<?xml version="1.0" encoding="iso-8859-1"?>
<svg version="1.1" id="&#x56FE;&#x5C42;_1" xmlns="http://www.w3.org/2000/svg" xmlns:xlink="http://www.w3.org/1999/xlink" x="0px"
	 y="0px" viewBox="0 0 24 24" style="enable-background:new 0 0 24 24;" xml:space="preserve">
<path style="fill:#333333;" d="M1,21.511c-0.021-1.926,0.153-3.612,0.517-5.013c0.227-0.871,0.783-1.744,1.428-2.755
	c1-1.569,2.134-3.347,2.134-5.361c0-2.168-0.607-3.868-1.857-5.197l1.457-1.37c1.592,1.694,2.4,3.904,2.4,6.567
	c0,2.597-1.357,4.725-2.447,6.436c-0.53,0.832-1.032,1.617-1.179,2.184C3.133,18.23,2.98,19.74,3,21.489L1,21.511z"/>
<path style="fill:#333333;" d="M22.578,21.511l-2-0.021c0.02-1.748-0.133-3.258-0.453-4.487c-0.147-0.566-0.648-1.353-1.179-2.185
	c-1.09-1.71-2.446-3.838-2.446-6.435c0-2.664,0.808-4.873,2.399-6.567l1.457,1.37C19.107,4.514,18.5,6.214,18.5,8.382
	c0,2.014,1.133,3.792,2.133,5.36c0.645,1.012,1.201,1.885,1.428,2.756C22.426,17.899,22.6,19.586,22.578,21.511z"/>
<path style="fill:#333333;" d="M12.011,19.516c-2.844,0-6.014-1.095-9.423-3.253l1.069-1.689c3.084,1.952,5.895,2.942,8.354,2.942
	c2.443,0,5.094-0.982,7.878-2.919l1.143,1.643C17.904,18.413,14.87,19.516,12.011,19.516z"/>
<path style="fill:#333333;" d="M12,15.5c0.69,0,1.25-0.56,1.25-1.25S12.69,13,12,13s-1.25,0.56-1.25,1.25S11.31,15.5,12,15.5z"/>
</svg>






