<?xml version="1.0" encoding="iso-8859-1"?>
<svg version="1.1" id="&#x56FE;&#x5C42;_1" xmlns="http://www.w3.org/2000/svg" xmlns:xlink="http://www.w3.org/1999/xlink" x="0px"
	 y="0px" viewBox="0 0 24 24" style="enable-background:new 0 0 24 24;" xml:space="preserve">
<rect x="17" y="16.5" style="fill:#333333;" width="4" height="2"/>
<rect x="13.5" y="20" style="fill:#333333;" width="2" height="2"/>
<path style="fill:#333333;" d="M22,14.5H6c-1.227,0-2.868-1.856-4.877-5.519L0.311,7.5h4.051l3,2.5h12l3.278,2.731L22,14.5z
	 M6.128,12.519L6.128,12.519L6.128,12.519z M6.088,12.5h13.15L18.638,12h-12L3.862,9.687C4.772,11.123,5.672,12.279,6.088,12.5z"/>
<polygon style="fill:#333333;" points="14.424,11.817 9.598,8.413 10.437,10.649 8.563,11.351 6.557,6 9.647,6 15.576,10.183 "/>
<polygon style="fill:#333333;" points="8.996,20.5 5.583,20.5 8.191,13.165 10.076,13.835 8.523,18.201 14.316,12.771 
	15.684,14.229 "/>
<path style="fill:#333333;" d="M19.5,7.5h-5l-0.317-1.948c0.285-0.096,0.62-0.248,0.814-0.364c0.001-0.598,0.08-1.596,1.057-2.083
	c0.385-0.193,0.812-0.243,1.202-0.23C17.596,2.146,18.3,1.5,19.511,1.5c0.961,0,1.834,0.464,2.395,1.274
	c0.603,0.87,0.757,1.995,0.402,2.935C21.776,7.123,20.293,7.5,19.5,7.5z M17,5.5h2.5c-0.003,0,0.758-0.022,0.936-0.495
	c0.121-0.32,0.049-0.769-0.175-1.092C20.071,3.639,19.819,3.5,19.511,3.5c-0.172,0-0.491,0-0.511,0.517l-0.049,1.301l-1.245-0.363
	c-0.226-0.066-0.531-0.097-0.693-0.077C16.994,5,16.997,5.21,16.998,5.334L17,5.5z"/>
</svg>






