<?xml version="1.0" encoding="iso-8859-1"?>
<svg version="1.1" id="&#x56FE;&#x5C42;_1" xmlns="http://www.w3.org/2000/svg" xmlns:xlink="http://www.w3.org/1999/xlink" x="0px"
	 y="0px" viewBox="0 0 24 24" style="enable-background:new 0 0 24 24;" xml:space="preserve">
<path style="fill:#333333;" d="M12,23.118l-11-5.5V6.382l11-5.5l11,5.5v11.236L12,23.118z M3,16.382l9,4.5l9-4.5V7.618l-9-4.5
	l-9,4.5V16.382z"/>
<rect x="6" y="3.91" transform="matrix(0.4472 -0.8944 0.8944 0.4472 -4.6276 11.5125)" style="fill:#333333;" width="2" height="11.18"/>
<rect x="11" y="12" style="fill:#333333;" width="2" height="10"/>
<rect x="11.41" y="8.5" transform="matrix(0.8944 -0.4472 0.4472 0.8944 -2.4538 8.6056)" style="fill:#333333;" width="11.18" height="2"/>
<rect x="6.41" y="6" transform="matrix(0.8944 -0.4472 0.4472 0.8944 -1.8636 6.1056)" style="fill:#333333;" width="11.18" height="2"/>
</svg>






