<?xml version="1.0" encoding="iso-8859-1"?>
<svg version="1.1" id="&#x56FE;&#x5C42;_1" xmlns="http://www.w3.org/2000/svg" xmlns:xlink="http://www.w3.org/1999/xlink" x="0px"
	 y="0px" viewBox="0 0 24 24" style="enable-background:new 0 0 24 24;" xml:space="preserve">
<rect x="11" y="12" style="fill:#333333;" width="2" height="3"/>
<path style="fill:#333333;" d="M22,22H2v-8h20V22z M4,20h16v-4H4V20z"/>
<rect x="2" y="5.75" style="fill:#333333;" width="2" height="0.5"/>
<rect x="2" y="8.5" style="fill:#333333;" width="2" height="0.5"/>
<rect x="2" y="3" style="fill:#333333;" width="2" height="0.5"/>
<rect x="20" y="5.75" style="fill:#333333;" width="2" height="0.5"/>
<rect x="20" y="8.5" style="fill:#333333;" width="2" height="0.5"/>
<rect x="20" y="3" style="fill:#333333;" width="2" height="0.5"/>
<rect x="20.5" y="8" style="fill:#333333;" width="0.5" height="2"/>
<rect x="3" y="8" style="fill:#333333;" width="0.5" height="2"/>
<rect x="3" y="2" style="fill:#333333;" width="0.5" height="2"/>
<rect x="6.5" y="2" style="fill:#333333;" width="0.5" height="2"/>
<rect x="10" y="2" style="fill:#333333;" width="0.5" height="2"/>
<rect x="10" y="8" style="fill:#333333;" width="0.5" height="2"/>
<rect x="13.5" y="2" style="fill:#333333;" width="0.5" height="2"/>
<rect x="6.5" y="8" style="fill:#333333;" width="0.5" height="2"/>
<rect x="13.5" y="8" style="fill:#333333;" width="0.5" height="2"/>
<rect x="17" y="2" style="fill:#333333;" width="0.5" height="2"/>
<rect x="17" y="8" style="fill:#333333;" width="0.5" height="2"/>
<rect x="20.5" y="2" style="fill:#333333;" width="0.5" height="2"/>
</svg>






