<?xml version="1.0" encoding="iso-8859-1"?>
<svg version="1.1" id="&#x56FE;&#x5C42;_1" xmlns="http://www.w3.org/2000/svg" xmlns:xlink="http://www.w3.org/1999/xlink" x="0px"
	 y="0px" viewBox="0 0 24 24" style="enable-background:new 0 0 24 24;" xml:space="preserve">
<polygon style="fill:#333333;" points="22,10.5 18,10.5 18,8.5 20,8.5 20,4 4,4 4,8.5 6,8.5 6,10.5 2,10.5 2,2 22,2 "/>
<path style="fill:#333333;" d="M12,23.244l-3-2.223l-2.405,1.782L5,22V5h14v17l-1.596,0.804L15,21.021L12,23.244z M9,18.533l3,2.223
	l3-2.223l2,1.481V7H7v13.015L9,18.533z"/>
<rect x="10" y="12" style="fill:#333333;" width="4" height="2"/>
<rect x="11" y="11" style="fill:#333333;" width="2" height="4"/>
</svg>






