<?xml version="1.0" encoding="iso-8859-1"?>
<svg version="1.1" id="&#x56FE;&#x5C42;_1" xmlns="http://www.w3.org/2000/svg" xmlns:xlink="http://www.w3.org/1999/xlink" x="0px"
	 y="0px" viewBox="0 0 24 24" style="enable-background:new 0 0 24 24;" xml:space="preserve">
<path style="fill:#333333;" d="M12,22.5C6.21,22.5,1.5,17.79,1.5,12C1.5,6.21,6.21,1.5,12,1.5c1.734,0,3.455,0.433,4.975,1.251
	l-0.949,1.761C14.797,3.85,13.405,3.5,12,3.5c-4.687,0-8.5,3.813-8.5,8.5c0,4.687,3.813,8.5,8.5,8.5
	c1.251,0,2.454-0.265,3.578-0.788l0.844,1.814C15.032,22.172,13.544,22.5,12,22.5z"/>
<rect x="15.5" y="14" style="fill:#333333;" width="6" height="2"/>
<polygon style="fill:#333333;" points="10.981,15.896 6.793,11.707 8.207,10.293 11.019,13.104 19.812,4.774 21.188,6.226 "/>
<rect x="17.5" y="12" style="fill:#333333;" width="2" height="6"/>
</svg>






