<?xml version="1.0" encoding="iso-8859-1"?>
<svg version="1.1" id="&#x56FE;&#x5C42;_1" xmlns="http://www.w3.org/2000/svg" xmlns:xlink="http://www.w3.org/1999/xlink" x="0px"
	 y="0px" viewBox="0 0 24 24" style="enable-background:new 0 0 24 24;" xml:space="preserve">
<polygon style="fill:#333333;" points="9,18.5 4,18.5 4,14 6,14 6,16.5 9,16.5 "/>
<path style="fill:#333333;" d="M22,22H8v-9h14V22z M10,20h10v-5H10V20z"/>
<rect x="2" y="6.25" style="fill:#333333;" width="2" height="0.5"/>
<rect x="2" y="9.5" style="fill:#333333;" width="2" height="0.5"/>
<rect x="2" y="3" style="fill:#333333;" width="2" height="0.5"/>
<rect x="15" y="6.25" style="fill:#333333;" width="2" height="0.5"/>
<rect x="15" y="9.5" style="fill:#333333;" width="2" height="0.5"/>
<rect x="15" y="3" style="fill:#333333;" width="2" height="0.5"/>
<rect x="15.5" y="9" style="fill:#333333;" width="0.5" height="2"/>
<rect x="3" y="9" style="fill:#333333;" width="0.5" height="2"/>
<rect x="3" y="2" style="fill:#333333;" width="0.5" height="2"/>
<rect x="6" y="2" style="fill:#333333;" width="0.5" height="2"/>
<rect x="9.25" y="2" style="fill:#333333;" width="0.5" height="2"/>
<rect x="9.25" y="9" style="fill:#333333;" width="0.5" height="2"/>
<rect x="12.5" y="2" style="fill:#333333;" width="0.5" height="2"/>
<rect x="6" y="9" style="fill:#333333;" width="0.5" height="2"/>
<rect x="12.5" y="9" style="fill:#333333;" width="0.5" height="2"/>
<rect x="15.5" y="2" style="fill:#333333;" width="0.5" height="2"/>
</svg>






