<?xml version="1.0" encoding="iso-8859-1"?>
<svg version="1.1" id="&#x56FE;&#x5C42;_1" xmlns="http://www.w3.org/2000/svg" xmlns:xlink="http://www.w3.org/1999/xlink" x="0px"
	 y="0px" viewBox="0 0 24 24" style="enable-background:new 0 0 24 24;" xml:space="preserve">
<path style="fill:#333333;" d="M18,22H4c-1.103,0-2-0.897-2-2V6c0-1.103,0.897-2,2-2h9.182v2H4v14h14v-9.5h2V20
	C20,21.103,19.103,22,18,22z"/>
<path style="fill:#333333;" d="M17.939,16.516H4.005l4.885-6.54l1.436,1.435l1.877-2.951L17.939,16.516z M10.722,14.516h3.339
	l-1.764-2.477L10.722,14.516z M7.996,14.516h2.606L9.11,13.024L7.996,14.516z"/>
<rect x="17" y="4" style="fill:#333333;" width="4" height="2"/>
<rect x="17.997" y="2.897" style="fill:#333333;" width="2" height="4"/>
</svg>






