<?xml version="1.0" encoding="iso-8859-1"?>
<svg version="1.1" id="&#x56FE;&#x5C42;_1" xmlns="http://www.w3.org/2000/svg" xmlns:xlink="http://www.w3.org/1999/xlink" x="0px"
	 y="0px" viewBox="0 0 24 24" style="enable-background:new 0 0 24 24;" xml:space="preserve">
<polygon style="fill:#333333;" points="21,23 3,23 3,18 5,18 5,21 19,21 19,3 5,3 5,6 3,6 3,1 21,1 "/>
<rect x="3" y="14" style="fill:#333333;" width="2" height="2"/>
<rect x="3" y="11" style="fill:#333333;" width="2" height="2"/>
<rect x="3" y="8" style="fill:#333333;" width="2" height="2"/>
<path style="fill:#333333;" d="M12,11.5c-1.654,0-3-1.346-3-3s1.346-3,3-3s3,1.346,3,3S13.654,11.5,12,11.5z M12,7.5
	c-0.551,0-1,0.449-1,1s0.449,1,1,1c0.552,0,1-0.449,1-1S12.552,7.5,12,7.5z"/>
<path style="fill:#333333;" d="M17,17.5h-2c0-1.654-1.346-3-3-3s-3,1.346-3,3H7c0-2.757,2.243-5,5-5S17,14.743,17,17.5z"/>
</svg>






