<?xml version="1.0" encoding="iso-8859-1"?>
<svg version="1.1" id="&#x56FE;&#x5C42;_1" xmlns="http://www.w3.org/2000/svg" xmlns:xlink="http://www.w3.org/1999/xlink" x="0px"
	 y="0px" viewBox="0 0 24 24" style="enable-background:new 0 0 24 24;" xml:space="preserve">
<path style="fill:none;" d="M7,14.5h14v6H7v-3V14.5z"/>
<path style="fill:none;" d="M7,3.5h14v6H7v-3V3.5z"/>
<path style="fill:#333333;" d="M22,21.5H6v-3H2v-13h4v-3h16v8H6v-3H4v9h2v-3h16V21.5z M8,19.5h12v-4H8V19.5z M8,8.5h12v-4H8V8.5z"/>
<polygon style="fill:#333333;" points="7,18.5 2,18.5 2,5.5 7,5.5 7,7.5 4,7.5 4,16.5 7,16.5 "/>
<path style="fill:#333333;" d="M22,21.5H6v-8h16V21.5z M8,19.5h12v-4H8V19.5z"/>
<path style="fill:#333333;" d="M22,10.5H6v-8h16V10.5z M8,8.5h12v-4H8V8.5z"/>
</svg>






