<?xml version="1.0" encoding="iso-8859-1"?>
<svg version="1.1" id="&#x56FE;&#x5C42;_1" xmlns="http://www.w3.org/2000/svg" xmlns:xlink="http://www.w3.org/1999/xlink" x="0px"
	 y="0px" viewBox="0 0 24 24" style="enable-background:new 0 0 24 24;" xml:space="preserve">
<path style="fill:#333333;" d="M20,22.5H4c-1.378,0-2.5-1.121-2.5-2.5V4c0-1.378,1.122-2.5,2.5-2.5h16c1.379,0,2.5,1.122,2.5,2.5v16
	C22.5,21.379,21.379,22.5,20,22.5z M4,3.5C3.724,3.5,3.5,3.724,3.5,4v16c0,0.275,0.224,0.5,0.5,0.5h16c0.275,0,0.5-0.225,0.5-0.5V4
	c0-0.276-0.225-0.5-0.5-0.5H4z"/>
<rect x="3.515" y="11" transform="matrix(0.7071 -0.7071 0.7071 0.7071 -4.9706 12)" style="fill:#333333;" width="16.971" height="2"/>
<rect x="6" y="7" style="fill:#333333;" width="4" height="2"/>
<rect x="13.5" y="15.5" style="fill:#333333;" width="4" height="2"/>
<rect x="7" y="6" style="fill:#333333;" width="2" height="4"/>
</svg>






