<?xml version="1.0" encoding="iso-8859-1"?>
<svg version="1.1" id="&#x56FE;&#x5C42;_1" xmlns="http://www.w3.org/2000/svg" xmlns:xlink="http://www.w3.org/1999/xlink" x="0px"
	 y="0px" viewBox="0 0 24 24" style="enable-background:new 0 0 24 24;" xml:space="preserve">
<path style="fill:#333333;" d="M19.5,22h-15C3.122,22,2,20.879,2,19.5v-15C2,3.122,3.122,2,4.5,2h15C20.879,2,22,3.122,22,4.5v15
	C22,20.879,20.879,22,19.5,22z M4.5,4C4.224,4,4,4.224,4,4.5v15C4,19.775,4.224,20,4.5,20h15c0.275,0,0.5-0.225,0.5-0.5v-15
	C20,4.224,19.775,4,19.5,4H4.5z"/>
<rect x="6" y="7.5" style="fill:#333333;" width="2" height="9"/>
<path style="fill:#333333;" d="M8,13.5H6v-7h2c2.818,0,4.5,1.309,4.5,3.5S10.818,13.5,8,13.5z M8,8.5v3c2.5,0,2.5-1.09,2.5-1.5
	S10.5,8.5,8,8.5z"/>
<path style="fill:#333333;" d="M14.414,17.503c-0.231,0-0.408-0.012-0.497-0.02l0.166-1.992c0.571,0.045,1.542-0.047,1.854-0.336
	C15.977,15.119,16,15.091,16,14.994c0-0.15-0.134-0.26-0.884-0.57C14.325,14.095,13,13.545,13,12.006
	c0-0.659,0.234-1.234,0.677-1.663c0.937-0.907,2.506-0.858,3.181-0.835L17,9.512v2l-0.208-0.005
	c-1.154-0.034-1.574,0.128-1.725,0.273C15.044,11.803,15,11.846,15,12.006c0,0.15,0.134,0.26,0.884,0.57
	C16.675,12.905,18,13.455,18,14.994c0,0.642-0.245,1.207-0.708,1.633C16.47,17.384,15.157,17.503,14.414,17.503z"/>
</svg>






