<?xml version="1.0" encoding="iso-8859-1"?>
<svg version="1.1" id="&#x56FE;&#x5C42;_1" xmlns="http://www.w3.org/2000/svg" xmlns:xlink="http://www.w3.org/1999/xlink" x="0px"
	 y="0px" viewBox="0 0 24 24" style="enable-background:new 0 0 24 24;" xml:space="preserve">
<path style="fill:#333333;" d="M19.5,22h-15C3.122,22,2,20.879,2,19.5v-15C2,3.122,3.122,2,4.5,2h5v2h-5C4.224,4,4,4.224,4,4.5v15
	C4,19.775,4.224,20,4.5,20h15c0.275,0,0.5-0.225,0.5-0.5v-5h2v5C22,20.879,20.879,22,19.5,22z"/>
<polygon style="fill:#333333;" points="10.368,15.765 8.051,8.816 9.949,8.184 11.632,13.235 16.684,11.551 17.316,13.448 "/>
<path style="fill:#333333;" d="M11.949,14.816l-1.897-0.633c2.49-7.468,4.1-9.421,9.578-11.612l0.742,1.857
	C15.732,6.284,14.399,7.464,11.949,14.816z"/>
</svg>






