<?xml version="1.0" encoding="iso-8859-1"?>
<svg version="1.1" id="&#x56FE;&#x5C42;_1" xmlns="http://www.w3.org/2000/svg" xmlns:xlink="http://www.w3.org/1999/xlink" x="0px"
	 y="0px" viewBox="0 0 24 24" style="enable-background:new 0 0 24 24;" xml:space="preserve">
<g>
	<defs>
		<rect id="SVGID_1_" width="24" height="24"/>
	</defs>
	<clipPath id="SVGID_00000146492737995973608640000008160365571882139806_">
		<use xlink:href="#SVGID_1_"  style="overflow:visible;"/>
	</clipPath>
	<g style="clip-path:url(#SVGID_00000146492737995973608640000008160365571882139806_);">
		<polygon style="fill:#333333;" points="13.328,23.399 0.601,10.671 9.793,1.479 11.207,2.893 3.429,10.671 13.328,20.571 
			21.106,12.793 22.521,14.207 		"/>
		
			<rect x="3.086" y="8.257" transform="matrix(0.7071 -0.7071 0.7071 0.7071 -3.8846 9.1359)" style="fill:#333333;" width="12" height="2"/>
		
			<rect x="5.914" y="11.086" transform="matrix(0.7071 -0.7071 0.7071 0.7071 -5.0561 11.9644)" style="fill:#333333;" width="12" height="2"/>
		
			<rect x="8.743" y="13.914" transform="matrix(0.7071 -0.7071 0.7071 0.7071 -6.2276 14.7928)" style="fill:#333333;" width="12" height="2"/>
		<path style="fill:#333333;" d="M8.025,22.339l-1.602-1.602l-2.371-0.79l-0.791-2.372l-1.601-1.601l3.535-3.535l6.364,6.363
			L8.025,22.339z M5.634,18.365l1.871,0.624l0.521,0.521l0.707-0.708l-3.536-3.535L4.49,15.975l0.521,0.521L5.634,18.365z"/>
	</g>
</g>
</svg>






