<?xml version="1.0" encoding="iso-8859-1"?>
<svg version="1.1" id="&#x56FE;&#x5C42;_1" xmlns="http://www.w3.org/2000/svg" xmlns:xlink="http://www.w3.org/1999/xlink" x="0px"
	 y="0px" viewBox="0 0 24 24" style="enable-background:new 0 0 24 24;" xml:space="preserve">
<path style="fill:#333333;" d="M19,23H5c-1.103,0-2-0.897-2-2V3c0-1.103,0.897-2,2-2h14c1.103,0,2,0.897,2,2v18
	C21,22.103,20.103,23,19,23z M5,3H4.999L5,21h14V3H5z"/>
<path style="fill:#333333;" d="M11.835,10.748l-1.585-1.41l-1.585,1.41L7,10V1h6.5v9L11.835,10.748z M10.25,6.662l1.25,1.111V3H9
	v4.773L10.25,6.662z"/>
<rect x="8" y="13" style="fill:#333333;" width="5" height="2"/>
<rect x="8" y="16" style="fill:#333333;" width="8" height="2"/>
</svg>






