<?xml version="1.0" encoding="iso-8859-1"?>
<svg version="1.1" id="&#x56FE;&#x5C42;_1" xmlns="http://www.w3.org/2000/svg" xmlns:xlink="http://www.w3.org/1999/xlink" x="0px"
	 y="0px" viewBox="0 0 24 24" style="enable-background:new 0 0 24 24;" xml:space="preserve">
<path style="fill:#333333;" d="M12,23C5.935,23,1,18.065,1,12S5.935,1,12,1s11,4.935,11,11S18.065,23,12,23z M12,3
	c-4.962,0-9,4.038-9,9c0,4.963,4.038,9,9,9c4.963,0,9-4.037,9-9C21,7.038,16.963,3,12,3z"/>
<path style="fill:none;" d="M12,18.5V22V18.5z"/>
<rect x="11" y="18.5" style="fill:#333333;" width="2" height="3.5"/>
<path style="fill:none;" d="M18,12h4H18z"/>
<rect x="18" y="11" style="fill:#333333;" width="4" height="2"/>
<path style="fill:none;" d="M2,12h3.5H2z"/>
<rect x="2" y="11" style="fill:#333333;" width="3.5" height="2"/>
<path style="fill:none;" d="M12,5.5V2V5.5z"/>
<rect x="11" y="2" style="fill:#333333;" width="2" height="3.5"/>
</svg>






