<?xml version="1.0" encoding="iso-8859-1"?>
<svg version="1.1" id="&#x56FE;&#x5C42;_1" xmlns="http://www.w3.org/2000/svg" xmlns:xlink="http://www.w3.org/1999/xlink" x="0px"
	 y="0px" viewBox="0 0 24 24" style="enable-background:new 0 0 24 24;" xml:space="preserve">
<path style="fill:#333333;" d="M21,15H3c-1.103,0-2-0.897-2-2V5c0-1.103,0.897-2,2-2h18c1.103,0,2,0.897,2,2v8
	C23,14.103,22.103,15,21,15z M3,5H2.999L3,13h18V5H3z"/>
<path style="fill:#333333;" d="M19,15H5V9h14V15z M7,13h10v-2H7V13z"/>
<rect x="16" y="6" style="fill:#333333;" width="2" height="2"/>
<rect x="11" y="17" style="fill:#333333;" width="2" height="3"/>
<rect x="7" y="18" style="fill:#333333;" width="2" height="1"/>
<rect x="15" y="18" style="fill:#333333;" width="2" height="1"/>
</svg>






