<?xml version="1.0" encoding="iso-8859-1"?>
<svg version="1.1" id="&#x56FE;&#x5C42;_1" xmlns="http://www.w3.org/2000/svg" xmlns:xlink="http://www.w3.org/1999/xlink" x="0px"
	 y="0px" viewBox="0 0 24 24" style="enable-background:new 0 0 24 24;" xml:space="preserve">
<rect x="2" y="21" style="fill:#333333;" width="20" height="2"/>
<path style="fill:#333333;" d="M21.5,22h-2v-3.64c0-2.294-2.158-2.36-2.404-2.36H14v-2h3.096c1.771,0,4.404,1.161,4.404,4.36V22z"/>
<polygon style="fill:#333333;" points="18.41,15.414 16.59,14.586 18.9,9.503 16.092,3.419 17.908,2.581 21.1,9.497 "/>
<rect x="14.307" y="2" transform="matrix(0.9286 -0.3711 0.3711 0.9286 0.1004 6.5221)" style="fill:#333333;" width="5.385" height="2"/>
<path style="fill:#333333;" d="M10,20c-2.757,0-5-2.243-5-5s2.243-5,5-5s5,2.243,5,5S12.757,20,10,20z M10,12c-1.654,0-3,1.346-3,3
	s1.346,3,3,3s3-1.346,3-3S11.654,12,10,12z"/>
<rect x="10" y="14" style="fill:#333333;" width="4" height="2"/>
<rect x="7.75" y="5.9" transform="matrix(0.7894 -0.6139 0.6139 0.7894 -3.5288 7.2151)" style="fill:#333333;" width="2" height="5.701"/>
<rect x="5" y="5.5" style="fill:#333333;" width="4" height="2"/>
<path style="fill:#333333;" d="M10,20v-2c1.654,0,3-1.346,3-3s-1.346-3-3-3v-2c2.757,0,5,2.243,5,5S12.757,20,10,20z"/>
</svg>






