<?xml version="1.0" encoding="iso-8859-1"?>
<svg version="1.1" id="&#x56FE;&#x5C42;_1" xmlns="http://www.w3.org/2000/svg" xmlns:xlink="http://www.w3.org/1999/xlink" x="0px"
	 y="0px" viewBox="0 0 24 24" style="enable-background:new 0 0 24 24;" xml:space="preserve">
<path style="fill:#333333;" d="M19.246,16.259l-1.932-0.518l3.045-11.365c0.047-0.174-0.011-0.312-0.05-0.379
	c-0.038-0.067-0.129-0.186-0.304-0.233c-0.174-0.045-0.312,0.011-0.379,0.05c-0.067,0.039-0.187,0.13-0.233,0.304l-3.253,12.141
	l-1.932-0.518L17.462,3.6c0.173-0.646,0.587-1.185,1.165-1.518c0.579-0.335,1.254-0.422,1.897-0.25
	c0.645,0.172,1.184,0.586,1.518,1.165c0.334,0.579,0.422,1.252,0.249,1.897L19.246,16.259z"/>
<path style="fill:#333333;" d="M19,20H6.5C5.122,20,4,18.879,4,17.5S5.122,15,6.5,15H19V20z M6.5,17C6.224,17,6,17.225,6,17.5
	S6.224,18,6.5,18H17v-1H6.5z"/>
<rect x="10.5" y="21" style="fill:#333333;" width="4" height="2"/>
<path style="fill:#333333;" d="M5.5,13C3.57,13,2,11.43,2,9.5v-5C2,2.57,3.57,1,5.5,1S9,2.57,9,4.5v5C9,11.43,7.43,13,5.5,13z
	 M5.5,3C4.673,3,4,3.673,4,4.5v5C4,10.327,4.673,11,5.5,11S7,10.327,7,9.5v-5C7,3.673,6.327,3,5.5,3z"/>
<rect x="3" y="6" style="fill:#333333;" width="5" height="2"/>
<rect x="2" y="4.5" style="fill:#333333;" width="2" height="5"/>
<rect x="7" y="4.5" style="fill:#333333;" width="2" height="5"/>
</svg>






