<?xml version="1.0" encoding="iso-8859-1"?>
<svg version="1.1" id="&#x56FE;&#x5C42;_1" xmlns="http://www.w3.org/2000/svg" xmlns:xlink="http://www.w3.org/1999/xlink" x="0px"
	 y="0px" viewBox="0 0 24 24" style="enable-background:new 0 0 24 24;" xml:space="preserve">
<path style="fill:#333333;" d="M12,23c-4.411,0-8-3.589-8-8V9c0-4.411,3.589-8,8-8s8,3.589,8,8v6C20,19.411,16.411,23,12,23z M12,3
	C8.691,3,6,5.691,6,9v6c0,3.309,2.691,6,6,6s6-2.691,6-6V9C18,5.691,15.309,3,12,3z"/>
<rect x="5" y="7.5" style="fill:#333333;" width="14" height="2"/>
<rect x="11" y="4.5" style="fill:#333333;" width="2" height="2"/>
<path style="fill:#333333;" d="M7,21v-2c0.732,0,0.75-0.058,0.75-0.815l1.546-0.838c0.412,0.27,1.005,0.203,1.379,0.002
	C10.87,17.243,11,17.104,11,17c0-0.509,0-0.815-2-0.815H7.605l0.447-1.321c0.005-0.026,0.063-0.334-0.26-0.656
	c-0.265-0.23-1.572-0.337-2.684-0.213l-0.22-1.988c0.746-0.082,3.26-0.271,4.317,0.787c0.458,0.458,0.69,0.961,0.788,1.423
	C11.311,14.325,13,14.814,13,17c0,0.854-0.513,1.642-1.372,2.107c-0.637,0.346-1.376,0.475-2.081,0.39C9.184,20.496,8.332,21,7,21z"
	/>
<path style="fill:#333333;" d="M18.038,17.299c-0.273,0-0.544-0.043-0.801-0.132c-0.394-0.135-0.885-0.417-1.277-1.001
	c-0.712,0.087-1.399-0.054-1.938-0.419C13.372,15.308,13,14.579,13,13.75c0-0.937,0.467-1.746,1.25-2.165
	c0.264-0.142,0.546-0.229,0.829-0.263c0.135-0.424,0.398-0.843,0.866-1.155c1.175-0.78,3.015,0.158,3.551,0.464l-0.991,1.737
	c-0.539-0.306-1.292-0.558-1.516-0.505c-0.07,0.059-0.02,0.39-0.02,0.394l-1.524,1.074c-0.048-0.031-0.152-0.035-0.252,0.017
	C15.065,13.418,15,13.553,15,13.75c0,0.244,0.1,0.312,0.143,0.341c0.174,0.117,0.544,0.157,0.986-0.02l0.984-0.394l0.335,1.006
	c0.076,0.228,0.214,0.515,0.438,0.592c0.158,0.054,0.378,0.013,0.559-0.107l1.109,1.664C19.094,17.14,18.562,17.299,18.038,17.299z"
	/>
<path style="fill:#333333;" d="M12.5,23v-2c3.032,0,5.5-2.468,5.5-5.5V9c0-3.309-2.691-6-6-6V1c4.411,0,8,3.589,8,8v6.5
	C20,19.636,16.636,23,12.5,23z"/>
<path style="fill:#333333;" d="M11.5,23C7.364,23,4,19.636,4,15.5V9c0-4.411,3.589-8,8-8v2C8.691,3,6,5.691,6,9v6.5
	c0,3.032,2.467,5.5,5.5,5.5V23z"/>
</svg>






