<?xml version="1.0" encoding="iso-8859-1"?>
<svg version="1.1" id="&#x56FE;&#x5C42;_1" xmlns="http://www.w3.org/2000/svg" xmlns:xlink="http://www.w3.org/1999/xlink" x="0px"
	 y="0px" viewBox="0 0 24 24" style="enable-background:new 0 0 24 24;" xml:space="preserve">
<path style="fill:#333333;" d="M15.648,22.937L12,21.568l-3.649,1.368L7.152,21.47L9.5,17.713v-2.595l-8,4v-4.087l7.75-6.459V5.269
	c0-2.504,1.48-3.81,2.354-4.187L12,0.911l0.396,0.17c0.874,0.377,2.354,1.684,2.354,4.187v3.303l7.75,6.459v4.087l-8-4v2.595
	l2.348,3.757L15.648,22.937z M12,19.432l1.588,0.596l-1.088-1.74v-6.405l7.741,3.871L12.75,9.508v-4.24
	c0-1.097-0.419-1.727-0.75-2.053c-0.332,0.326-0.75,0.956-0.75,2.053v4.24l-7.491,6.245l7.741-3.871v6.405l-1.088,1.74L12,19.432z"
	/>
</svg>






