<?xml version="1.0" encoding="iso-8859-1"?>
<svg version="1.1" id="&#x56FE;&#x5C42;_1" xmlns="http://www.w3.org/2000/svg" xmlns:xlink="http://www.w3.org/1999/xlink" x="0px"
	 y="0px" viewBox="0 0 24 24" style="enable-background:new 0 0 24 24;" xml:space="preserve">
<path style="fill:#333333;" d="M12,23.167C6.394,23.167,1.833,18.606,1.833,13C1.833,7.394,6.394,2.833,12,2.833
	c5.606,0,10.167,4.561,10.167,10.167C22.167,18.606,17.606,23.167,12,23.167z M12,4.833c-4.503,0-8.167,3.664-8.167,8.167
	S7.497,21.167,12,21.167c4.503,0,8.167-3.664,8.167-8.167S16.503,4.833,12,4.833z"/>
<polygon style="fill:#333333;" points="15.059,17.774 10.879,13.596 10.88,7.677 12.88,7.677 12.879,12.768 16.473,16.36 "/>
<rect x="1.599" y="2.25" transform="matrix(0.8139 -0.581 0.581 0.8139 -1.1904 2.7836)" style="fill:#333333;" width="4.301" height="2"/>
<rect x="19.25" y="1.099" transform="matrix(0.5812 -0.8137 0.8137 0.5812 5.8353 17.8391)" style="fill:#333333;" width="2" height="4.301"/>
</svg>






