<?xml version="1.0" encoding="iso-8859-1"?>
<svg version="1.1" id="&#x56FE;&#x5C42;_1" xmlns="http://www.w3.org/2000/svg" xmlns:xlink="http://www.w3.org/1999/xlink" x="0px"
	 y="0px" viewBox="0 0 24 24" style="enable-background:new 0 0 24 24;" xml:space="preserve">
<path style="fill:#333333;" d="M18,21.5H6v-9c0-3.309,2.691-6,6-6s6,2.691,6,6V21.5z M8,19.5h8v-7c0-2.206-1.794-4-4-4
	c-2.206,0-4,1.794-4,4V19.5z"/>
<rect x="11" y="2.5" style="fill:#333333;" width="2" height="1.5"/>
<rect x="16.714" y="4.239" transform="matrix(0.6432 -0.7657 0.7657 0.6432 2.2205 15.242)" style="fill:#333333;" width="1.5" height="2"/>
<rect x="19.62" y="9.274" transform="matrix(0.9848 -0.1738 0.1738 0.9848 -1.4757 3.6971)" style="fill:#333333;" width="1.5" height="2"/>
<rect x="2.629" y="9.524" transform="matrix(0.1738 -0.9848 0.9848 0.1738 -7.1192 12.0618)" style="fill:#333333;" width="2" height="1.5"/>
<rect x="5.536" y="4.489" transform="matrix(0.7659 -0.6429 0.6429 0.7659 -1.838 5.4283)" style="fill:#333333;" width="2" height="1.5"/>
<rect x="3" y="19.5" style="fill:#333333;" width="18.5" height="2"/>
</svg>






