<?xml version="1.0" encoding="iso-8859-1"?>
<svg version="1.1" id="&#x56FE;&#x5C42;_1" xmlns="http://www.w3.org/2000/svg" xmlns:xlink="http://www.w3.org/1999/xlink" x="0px"
	 y="0px" viewBox="0 0 24 24" style="enable-background:new 0 0 24 24;" xml:space="preserve">
<path style="fill:#333333;" d="M19.5,22h-15C3.122,22,2,20.879,2,19.5v-15C2,3.122,3.122,2,4.5,2h15C20.879,2,22,3.122,22,4.5v15
	C22,20.879,20.879,22,19.5,22z M4.5,4C4.224,4,4,4.224,4,4.5v15C4,19.775,4.224,20,4.5,20h15c0.275,0,0.5-0.225,0.5-0.5v-15
	C20,4.224,19.775,4,19.5,4H4.5z"/>
<rect x="11" y="11" style="fill:#333333;" width="2" height="2"/>
<rect x="9" y="8" style="fill:#333333;" width="6" height="2"/>
<rect x="10" y="5" style="fill:#333333;" width="4" height="2"/>
</svg>






