<?xml version="1.0" encoding="iso-8859-1"?>
<svg version="1.1" id="&#x56FE;&#x5C42;_1" xmlns="http://www.w3.org/2000/svg" xmlns:xlink="http://www.w3.org/1999/xlink" x="0px"
	 y="0px" viewBox="0 0 24 24" style="enable-background:new 0 0 24 24;" xml:space="preserve">
<path style="fill:#333333;" d="M21,18.5h-2v-2h2v-3.449c0-0.21-0.132-0.398-0.329-0.47l-3.525-1.282
	c-0.984-0.357-1.646-1.302-1.646-2.35V5.5H3v11h2v2H3c-1.103,0-2-0.897-2-2v-11c0-1.103,0.897-2,2-2h12.5c1.103,0,2,0.897,2,2v3.449
	c0,0.209,0.132,0.398,0.329,0.47l3.525,1.282C22.339,11.059,23,12.003,23,13.051V16.5C23,17.603,22.103,18.5,21,18.5z"/>
<rect x="9" y="16.5" style="fill:#333333;" width="6" height="2"/>
<rect x="6" y="8.5" style="fill:#333333;" width="4" height="2"/>
<rect x="7" y="7.5" style="fill:#333333;" width="2" height="4"/>
<path style="fill:#333333;" d="M7,20.5c-1.654,0-3-1.346-3-3s1.346-3,3-3s3,1.346,3,3S8.654,20.5,7,20.5z M7,16.5
	c-0.551,0-1,0.448-1,1s0.449,1,1,1s1-0.448,1-1S7.551,16.5,7,16.5z"/>
<path style="fill:#333333;" d="M17,20.5c-1.654,0-3-1.346-3-3s1.346-3,3-3s3,1.346,3,3S18.654,20.5,17,20.5z M17,16.5
	c-0.552,0-1,0.448-1,1s0.448,1,1,1s1-0.448,1-1S17.552,16.5,17,16.5z"/>
</svg>






