<?xml version="1.0" encoding="iso-8859-1"?>
<svg version="1.1" id="&#x56FE;&#x5C42;_1" xmlns="http://www.w3.org/2000/svg" xmlns:xlink="http://www.w3.org/1999/xlink" x="0px"
	 y="0px" viewBox="0 0 24 24" style="enable-background:new 0 0 24 24;" xml:space="preserve">
<path style="fill:#333333;" d="M22,19h-2c0-4.248-3.421-9-8-9c-4.579,0-8,4.752-8,9H2C2,13.808,6.276,8,12,8S22,13.808,22,19z"/>
<rect x="5" y="6" style="fill:#333333;" width="5" height="2"/>
<rect x="14" y="6" style="fill:#333333;" width="5" height="2"/>
<path style="fill:#333333;" d="M12,10c-1.654,0-3-1.346-3-3s1.346-3,3-3s3,1.346,3,3S13.654,10,12,10z M12,6c-0.551,0-1,0.449-1,1
	s0.449,1,1,1c0.552,0,1-0.449,1-1S12.552,6,12,6z"/>
<path style="fill:#333333;" d="M15,10H9V4h6V10z M11,8h2V6h-2V8z"/>
<path style="fill:#333333;" d="M23,9.5h-5v-5h5V9.5z M20,7.5h1v-1h-1V7.5z"/>
<path style="fill:#333333;" d="M6,9.5H1v-5h5V9.5z M3,7.5h1v-1H3V7.5z"/>
</svg>






