<?xml version="1.0" encoding="iso-8859-1"?>
<svg version="1.1" id="&#x56FE;&#x5C42;_1" xmlns="http://www.w3.org/2000/svg" xmlns:xlink="http://www.w3.org/1999/xlink" x="0px"
	 y="0px" viewBox="0 0 24 24" style="enable-background:new 0 0 24 24;" xml:space="preserve">
<path style="fill:#333333;" d="M21,17.5h-2C19,13.174,15.609,6,12,6s-7,7.174-7,11.5H3C3,12.758,6.711,4,12,4
	C17.288,4,21,12.758,21,17.5z"/>
<path style="fill:#333333;" d="M7,22.5H1v-6h6V22.5z M3,20.5h2v-2H3V20.5z"/>
<path style="fill:#333333;" d="M7,8H1V2h6V8z M3,6h2V4H3V6z"/>
<path style="fill:#333333;" d="M23,22.5h-6v-6h6V22.5z M19,20.5h2v-2h-2V20.5z"/>
<path style="fill:#333333;" d="M23,8h-6V2h6V8z M19,6h2V4h-2V6z"/>
<rect x="6" y="4" style="fill:#333333;" width="12" height="2"/>
</svg>






