<?xml version="1.0" encoding="iso-8859-1"?>
<svg version="1.1" id="&#x56FE;&#x5C42;_1" xmlns="http://www.w3.org/2000/svg" xmlns:xlink="http://www.w3.org/1999/xlink" x="0px"
	 y="0px" viewBox="0 0 24 24" style="enable-background:new 0 0 24 24;" xml:space="preserve">
<path style="fill:#333333;" d="M12,23C5.935,23,1,18.065,1,12v-1h4v2H3.055c0.499,4.494,4.32,8,8.945,8c4.625,0,8.445-3.506,8.944-8
	H19v-2h4v1C23,18.065,18.065,23,12,23z"/>
<rect x="11" y="7" style="fill:#333333;" width="2" height="15"/>
<path style="fill:#333333;" d="M12,8c-1.93,0-3.5-1.57-3.5-3.5S10.07,1,12,1s3.5,1.57,3.5,3.5S13.93,8,12,8z M12,3
	c-0.827,0-1.5,0.673-1.5,1.5S11.173,6,12,6s1.5-0.673,1.5-1.5S12.827,3,12,3z"/>
</svg>






