<?xml version="1.0" encoding="iso-8859-1"?>
<svg version="1.1" id="&#x56FE;&#x5C42;_1" xmlns="http://www.w3.org/2000/svg" xmlns:xlink="http://www.w3.org/1999/xlink" x="0px"
	 y="0px" viewBox="0 0 24 24" style="enable-background:new 0 0 24 24;" xml:space="preserve">
<path style="fill:#333333;" d="M23.055,19H0.945l0.109-1.099C1.615,12.257,6.32,8,12,8c5.681,0,10.386,4.257,10.945,9.901L23.055,19
	z M3.221,17h17.557c-0.91-4.06-4.507-7-8.778-7C7.729,10,4.132,12.94,3.221,17z"/>
<rect x="5" y="6.234" transform="matrix(0.8682 -0.4961 0.4961 0.8682 -3.3026 4.0638)" style="fill:#333333;" width="2" height="4.031"/>
<rect x="15.484" y="7.25" transform="matrix(0.4961 -0.8682 0.8682 0.4961 1.6546 19.3511)" style="fill:#333333;" width="4.031" height="2"/>
<circle style="fill:#333333;" cx="7.5" cy="14.5" r="1"/>
<circle style="fill:#333333;" cx="16.5" cy="14.5" r="1"/>
</svg>






