<?xml version="1.0" encoding="iso-8859-1"?>
<svg version="1.1" id="&#x56FE;&#x5C42;_1" xmlns="http://www.w3.org/2000/svg" xmlns:xlink="http://www.w3.org/1999/xlink" x="0px"
	 y="0px" viewBox="0 0 24 24" style="enable-background:new 0 0 24 24;" xml:space="preserve">
<path style="fill:#333333;" d="M21,21.5H3c-1.103,0-2-0.897-2-2v-11c0-1.103,0.897-2,2-2h18c1.103,0,2,0.897,2,2v11
	C23,20.603,22.103,21.5,21,21.5z M3,8.5H2.999L3,19.5h18v-11H3z"/>
<path style="fill:#333333;" d="M16,8.5H8L7.293,6.793L12,2.086l4.707,4.707L16,8.5z M10.414,6.5h3.172L12,4.914L10.414,6.5z"/>
<rect x="6" y="11" style="fill:#333333;" width="9" height="2"/>
<rect x="6" y="15" style="fill:#333333;" width="4" height="2"/>
</svg>






