<?xml version="1.0" encoding="iso-8859-1"?>
<svg version="1.1" id="&#x56FE;&#x5C42;_1" xmlns="http://www.w3.org/2000/svg" xmlns:xlink="http://www.w3.org/1999/xlink" x="0px"
	 y="0px" viewBox="0 0 24 24" style="enable-background:new 0 0 24 24;" xml:space="preserve">
<path style="fill:#333333;" d="M12.858,22.001c-0.28,0-0.568-0.001-0.866-0.003H11.99C2.798,21.903,1,20.96,1,19.36
	C1,17.213,9.367,8.001,12,8.001c2.751,0,11,9.122,11,11.359c0,0.305-0.089,0.756-0.51,1.174
	C21.755,21.264,20.018,22.001,12.858,22.001z M12.01,19.998c6.751,0.054,8.502-0.536,8.947-0.794
	c-0.643-1.826-7.268-9.081-8.963-9.203c-1.561,0.128-7.99,7.134-8.904,9.159C3.656,19.418,5.586,19.933,12.01,19.998z"/>
<rect x="8.213" y="14.916" transform="matrix(0.6408 -0.7677 0.7677 0.6408 -8.7612 13.1072)" style="fill:#333333;" width="2.825" height="2"/>
<path style="fill:#333333;" d="M12.25,5.5c0.69,0,1.25-0.56,1.25-1.25C13.5,3.56,12.94,3,12.25,3S11,3.56,11,4.25
	C11,4.94,11.56,5.5,12.25,5.5z"/>
<path style="fill:#333333;" d="M17,8c0.552,0,1-0.448,1-1c0-0.552-0.448-1-1-1s-1,0.448-1,1C16,7.552,16.448,8,17,8z"/>
<path style="fill:#333333;" d="M6,10.5c0.552,0,1-0.448,1-1c0-0.552-0.448-1-1-1s-1,0.448-1,1C5,10.052,5.448,10.5,6,10.5z"/>
<path style="fill:#333333;" d="M8.75,7.5c0.414,0,0.75-0.336,0.75-0.75C9.5,6.336,9.164,6,8.75,6S8,6.336,8,6.75
	C8,7.164,8.336,7.5,8.75,7.5z"/>
</svg>






