<?xml version="1.0" encoding="iso-8859-1"?>
<svg version="1.1" id="&#x56FE;&#x5C42;_1" xmlns="http://www.w3.org/2000/svg" xmlns:xlink="http://www.w3.org/1999/xlink" x="0px"
	 y="0px" viewBox="0 0 24 24" style="enable-background:new 0 0 24 24;" xml:space="preserve">
<path style="fill:#333333;" d="M10,11.969H8V5c0-2.206,1.794-4,4-4c2.206,0,4,1.794,4,4v1.003h-2V5c0-1.103-0.897-2-2-2
	c-1.103,0-2,0.897-2,2V11.969z"/>
<path style="fill:#333333;" d="M12,23c-2.206,0-4-1.794-4-4v-1.015h2V19c0,1.103,0.897,2,2,2c1.103,0,2-0.897,2-2v-6.998h2V19
	C16,21.206,14.206,23,12,23z"/>
<path style="fill:#333333;" d="M12,16H4.992C2.791,16,1,14.206,1,12c0-2.206,1.791-4,3.992-4h1.002v2H4.992C3.894,10,3,10.897,3,12
	c0,1.103,0.894,2,1.992,2H12V16z"/>
<path style="fill:#333333;" d="M18.994,16h-0.961v-2h0.961C20.101,14,21,13.103,21,12c0-1.103-0.899-2-2.006-2H12V8h6.994
	C21.203,8,23,9.794,23,12C23,14.206,21.203,16,18.994,16z"/>
</svg>






