<?xml version="1.0" encoding="iso-8859-1"?>
<svg version="1.1" id="&#x56FE;&#x5C42;_1" xmlns="http://www.w3.org/2000/svg" xmlns:xlink="http://www.w3.org/1999/xlink" x="0px"
	 y="0px" viewBox="0 0 24 24" style="enable-background:new 0 0 24 24;" xml:space="preserve">
<path style="fill:#333333;" d="M17,13.914L10.086,7l2.207-2.207c1.169-1.167,4.502-2.413,6.914,0c2.413,2.413,1.168,5.746,0,6.914
	L17,13.914z M12.914,7L17,11.086l0.793-0.793c0.433-0.433,1.532-2.554,0-4.086c-1.533-1.533-3.653-0.431-4.086,0L12.914,7z"/>
<rect x="17.982" y="3.25" transform="matrix(0.7071 -0.7071 0.7071 0.7071 2.7794 15.2102)" style="fill:#333333;" width="3.536" height="2"/>
<path style="fill:#333333;" d="M8.09,20.589c-1.109,0-2.284-0.369-3.297-1.382c-2.413-2.413-1.168-5.746,0-6.914L7,10.086L13.914,17
	l-2.207,2.207C11.03,19.885,9.623,20.589,8.09,20.589z M7,12.914l-0.793,0.793c-0.433,0.433-1.532,2.554,0,4.086
	s3.653,0.432,4.086,0L11.086,17L7,12.914z"/>
<rect x="11.086" y="14" transform="matrix(0.7071 -0.7071 0.7071 0.7071 -6.9454 13.2322)" style="fill:#333333;" width="2.828" height="2"/>
<rect x="2.482" y="18.75" transform="matrix(0.7071 -0.7071 0.7071 0.7071 -12.7206 8.7898)" style="fill:#333333;" width="3.536" height="2"/>
<rect x="7.586" y="10.5" transform="matrix(0.7071 -0.7071 0.7071 0.7071 -5.4957 9.7322)" style="fill:#333333;" width="2.828" height="2"/>
</svg>






