<?xml version="1.0" encoding="iso-8859-1"?>
<svg version="1.1" id="&#x56FE;&#x5C42;_1" xmlns="http://www.w3.org/2000/svg" xmlns:xlink="http://www.w3.org/1999/xlink" x="0px"
	 y="0px" viewBox="0 0 24 24" style="enable-background:new 0 0 24 24;" xml:space="preserve">
<path style="fill:#333333;" d="M19.5,22h-15C3.122,22,2,20.879,2,19.5v-15C2,3.122,3.122,2,4.5,2h15C20.879,2,22,3.122,22,4.5v15
	C22,20.879,20.879,22,19.5,22z M4.5,4C4.224,4,4,4.224,4,4.5v15C4,19.775,4.224,20,4.5,20h15c0.275,0,0.5-0.225,0.5-0.5v-15
	C20,4.224,19.775,4,19.5,4H4.5z"/>
<rect x="7.374" y="9.281" transform="matrix(0.5088 -0.8609 0.8609 0.5088 -3.0718 15.1788)" style="fill:#333333;" width="8.784" height="2"/>
<rect x="7.304" y="16.156" transform="matrix(0.5088 -0.8609 0.8609 0.5088 -10.9858 15.0584)" style="fill:#333333;" width="0.799" height="2"/>
<rect x="6" y="13.5" style="fill:#333333;" width="5.5" height="2"/>
<rect x="15" y="13.5" style="fill:#333333;" width="3" height="2"/>
<rect x="9.594" y="6.181" transform="matrix(0.8437 -0.5369 0.5369 0.8437 -2.7562 6.9724)" style="fill:#333333;" width="2" height="4.075"/>
<rect x="13.969" y="12.242" transform="matrix(0.8437 -0.5369 0.5369 0.8437 -5.7633 10.3961)" style="fill:#333333;" width="2" height="5.704"/>
</svg>






