<?xml version="1.0" encoding="iso-8859-1"?>
<svg version="1.1" id="&#x56FE;&#x5C42;_1" xmlns="http://www.w3.org/2000/svg" xmlns:xlink="http://www.w3.org/1999/xlink" x="0px"
	 y="0px" viewBox="0 0 24 24" style="enable-background:new 0 0 24 24;" xml:space="preserve">
<path style="fill:#333333;" d="M17.25,11C14.906,11,13,9.093,13,6.75s1.906-4.25,4.25-4.25s4.25,1.907,4.25,4.25S19.594,11,17.25,11
	z M17.25,4.5C16.01,4.5,15,5.509,15,6.75S16.01,9,17.25,9s2.25-1.009,2.25-2.25S18.49,4.5,17.25,4.5z"/>
<path style="fill:#333333;" d="M17.25,21.5c-2.344,0-4.25-1.906-4.25-4.25S14.906,13,17.25,13s4.25,1.906,4.25,4.25
	S19.594,21.5,17.25,21.5z M17.25,15C16.01,15,15,16.01,15,17.25s1.01,2.25,2.25,2.25s2.25-1.01,2.25-2.25S18.49,15,17.25,15z"/>
<path style="fill:#333333;" d="M6.75,11C4.407,11,2.5,9.093,2.5,6.75S4.407,2.5,6.75,2.5S11,4.407,11,6.75S9.093,11,6.75,11z
	 M6.75,4.5C5.509,4.5,4.5,5.509,4.5,6.75S5.509,9,6.75,9S9,7.991,9,6.75S7.991,4.5,6.75,4.5z"/>
<path style="fill:#333333;" d="M6.75,21.5c-2.343,0-4.25-1.906-4.25-4.25S4.407,13,6.75,13S11,14.906,11,17.25S9.093,21.5,6.75,21.5
	z M6.75,15c-1.241,0-2.25,1.01-2.25,2.25s1.009,2.25,2.25,2.25S9,18.49,9,17.25S7.991,15,6.75,15z"/>
</svg>






