<?xml version="1.0" encoding="iso-8859-1"?>
<svg version="1.1" id="&#x56FE;&#x5C42;_1" xmlns="http://www.w3.org/2000/svg" xmlns:xlink="http://www.w3.org/1999/xlink" x="0px"
	 y="0px" viewBox="0 0 24 24" style="enable-background:new 0 0 24 24;" xml:space="preserve">
<path style="fill:#333333;" d="M8.757,22.428c-0.406,0-0.842-0.067-1.286-0.263c-1.261-0.557-1.998-1.277-2.901-2.234
	C2.84,18.099,2,15.673,2,12.515c0-2.912,0.703-4.897,2.213-6.25c1.338-1.199,2.336-1.512,3.954-1.245
	c0.8,0.133,1.542,0.59,2.258,1.032c0.569,0.351,1.214,0.749,1.579,0.749c0.262,0,0.638-0.294,1.035-0.606
	c0.597-0.467,1.339-1.048,2.36-1.18c1.781-0.231,2.767,0.054,4.198,1.219C21.236,7.567,22,9.562,22,12.515
	c0,3.221-0.831,5.668-2.541,7.481c-0.898,0.951-1.666,1.611-2.93,2.169c-0.866,0.382-1.689,0.275-2.38,0.121
	c-0.375-0.083-0.682-0.253-0.952-0.402C12.818,21.675,12.52,21.51,12,21.51c-0.534,0-0.849,0.176-1.213,0.38
	c-0.262,0.146-0.559,0.312-0.919,0.396C9.542,22.36,9.165,22.428,8.757,22.428z M12,19.51c1.035,0,1.688,0.36,2.164,0.623
	c0.167,0.093,0.326,0.181,0.421,0.202c0.558,0.123,0.856,0.126,1.138,0c0.959-0.423,1.542-0.928,2.281-1.712
	C19.347,17.199,20,15.201,20,12.515c0-2.992-0.89-4.099-1.664-4.729c-1.012-0.823-1.438-0.947-2.681-0.788
	c-0.477,0.062-0.917,0.406-1.383,0.771c-0.617,0.483-1.316,1.031-2.269,1.031c-0.933,0-1.795-0.532-2.629-1.046
	C8.822,7.414,8.251,7.062,7.839,6.993C6.896,6.837,6.481,6.917,5.547,7.755C4.827,8.4,4,9.524,4,12.515
	c0,2.623,0.662,4.601,2.024,6.043c0.788,0.835,1.332,1.371,2.254,1.777c0.28,0.122,0.609,0.125,1.139,0.001
	c0.084-0.02,0.242-0.107,0.395-0.192C10.263,19.891,10.945,19.51,12,19.51z"/>
<path style="fill:#333333;" d="M13,7.902l-1.99-0.201C11.571,2.163,14.58,1,17.006,1h0.723l0.227,0.686
	c0.32,0.967,0.402,1.924,0.245,2.846c-0.079,0.461-0.295,1.054-0.66,1.813l-1.803-0.866c0.367-0.763,0.466-1.133,0.492-1.285
	c0.063-0.372,0.066-0.749,0.007-1.138C14.874,3.268,13.372,4.223,13,7.902z"/>
<path style="fill:#333333;" d="M7.346,17.486c-0.623-0.536-1.031-1.282-1.213-2.217c-0.163-0.841-0.162-1.672,0.002-2.471
	l1.959,0.402c-0.111,0.54-0.11,1.107,0.002,1.687c0.095,0.489,0.276,0.844,0.554,1.083L7.346,17.486z"/>
</svg>






