<?xml version="1.0" encoding="iso-8859-1"?>
<svg version="1.1" id="&#x56FE;&#x5C42;_1" xmlns="http://www.w3.org/2000/svg" xmlns:xlink="http://www.w3.org/1999/xlink" x="0px"
	 y="0px" viewBox="0 0 24 24" style="enable-background:new 0 0 24 24;" xml:space="preserve">
<path style="fill:#333333;" d="M16,22.944c-1.725,0-3.382-0.633-4.667-1.782l1.333-1.49c0.917,0.82,2.102,1.272,3.333,1.272
	c2.757,0,5-2.243,5-5c0-2.157-1.374-4.063-3.419-4.745l0.633-1.897C21.076,10.256,23,12.925,23,15.944
	C23,19.804,19.859,22.944,16,22.944z"/>
<path style="fill:#333333;" d="M8,22.944c-3.86,0-7-3.141-7-7c0-3.029,1.933-5.702,4.809-6.649l0.626,1.899
	C4.38,11.871,3,13.78,3,15.944c0,2.757,2.243,5,5,5c2.757,0,5-2.243,5-5c0-0.63-0.116-1.245-0.345-1.829l1.861-0.73
	C14.838,14.202,15,15.063,15,15.944C15,19.804,11.859,22.944,8,22.944z"/>
<path style="fill:#333333;" d="M12,14.944c-3.86,0-7-3.14-7-7c0-3.86,3.14-7,7-7c3.859,0,7,3.141,7,7
	C19,11.804,15.859,14.944,12,14.944z M12,2.944c-2.757,0-5,2.243-5,5c0,2.757,2.243,5,5,5s5-2.243,5-5
	C17,5.188,14.757,2.944,12,2.944z"/>
</svg>






