<?xml version="1.0" encoding="iso-8859-1"?>
<svg version="1.1" id="&#x56FE;&#x5C42;_1" xmlns="http://www.w3.org/2000/svg" xmlns:xlink="http://www.w3.org/1999/xlink" x="0px"
	 y="0px" viewBox="0 0 24 24" style="enable-background:new 0 0 24 24;" xml:space="preserve">
<path style="fill:#333333;" d="M11.956,5.659c0.041-1.116,0.354-2.096,0.933-2.915c0.582-0.823,1.543-1.408,2.859-1.74
	c0.009,0.041,0.018,0.081,0.027,0.121v0.212c0,0.481-0.117,1.032-0.347,1.638c-0.241,0.587-0.618,1.14-1.119,1.638
	c-0.468,0.439-0.901,0.73-1.284,0.862c-0.126,0.038-0.3,0.075-0.509,0.108C12.33,5.613,12.143,5.638,11.956,5.659z"/>
<path style="fill:#333333;" d="M15.774,22.25c-0.621,0-1.266-0.218-1.948-0.448c-0.591-0.2-1.202-0.406-1.651-0.406
	c-0.417,0-0.91,0.184-1.433,0.378c-0.63,0.234-1.281,0.477-1.987,0.477c-1.475,0-2.386-1.077-2.775-1.537l0.684-0.739l-0.756,0.653
	C4.944,19.514,2.704,16.443,2.704,12c0-5.1,3.365-7,5.486-7c0.977,0,1.756,0.408,2.443,0.768c0.559,0.293,1.042,0.546,1.542,0.546
	c0.496,0,1.012-0.247,1.608-0.532C14.55,5.416,15.42,5,16.5,5c1.43,0,2.679,0.683,3.713,2.028l0.562,0.732l-0.685,0.619
	c-1.069,0.968-1.59,2.152-1.59,3.621c0,1.848,1.138,2.762,2.129,3.352l0.703,0.419l-0.271,0.772
	c-0.462,1.315-1.754,3.503-2.56,4.335C17.82,21.583,17.176,22.25,15.774,22.25z M12.175,19.396c0.777,0,1.582,0.271,2.292,0.512
	c0.499,0.168,1.016,0.343,1.308,0.343c0.516,0,0.654-0.105,1.29-0.763c0.448-0.463,1.299-1.814,1.813-2.902
	C17.3,15.408,16.501,13.869,16.501,12c0-1.688,0.52-3.157,1.547-4.379C17.568,7.205,17.057,7,16.5,7
	c-0.627,0-1.223,0.285-1.854,0.587c-0.713,0.341-1.521,0.728-2.471,0.728c-0.992,0-1.777-0.412-2.47-0.775
	C9.152,7.25,8.675,7,8.19,7c-0.904,0-3.486,0.918-3.486,5c0,3.771,1.899,6.375,2.716,7.319l0.087,0.103
	c0.339,0.4,0.743,0.828,1.248,0.828c0.346,0,0.805-0.171,1.29-0.352C10.679,19.663,11.398,19.396,12.175,19.396z"/>
</svg>






