<?xml version="1.0" encoding="iso-8859-1"?>
<svg version="1.1" id="&#x56FE;&#x5C42;_1" xmlns="http://www.w3.org/2000/svg" xmlns:xlink="http://www.w3.org/1999/xlink" x="0px"
	 y="0px" viewBox="0 0 24 24" style="enable-background:new 0 0 24 24;" xml:space="preserve">
<path style="fill:#333333;" d="M12,10c-2.481,0-4.5-2.019-4.5-4.5S9.519,1,12,1s4.5,2.019,4.5,4.5S14.481,10,12,10z M12,3
	c-1.378,0-2.5,1.122-2.5,2.5S10.622,8,12,8c1.379,0,2.5-1.122,2.5-2.5S13.379,3,12,3z"/>
<path style="fill:#333333;" d="M3,20.5H1c0-4.963,4.486-9,10-9v2C6.589,13.5,3,16.641,3,20.5z"/>
<path style="fill:#333333;" d="M17,22.5c-3.032,0-5.5-2.468-5.5-5.5s2.468-5.5,5.5-5.5s5.5,2.468,5.5,5.5S20.032,22.5,17,22.5z
	 M17,13.5c-1.93,0-3.5,1.57-3.5,3.5s1.57,3.5,3.5,3.5s3.5-1.57,3.5-3.5S18.93,13.5,17,13.5z"/>
<polygon style="fill:#333333;" points="18.5,18.5 15.5,18.5 15.5,15.5 17.5,15.5 17.5,16.5 18.5,16.5 "/>
</svg>






