<?xml version="1.0" encoding="iso-8859-1"?>
<svg version="1.1" id="&#x56FE;&#x5C42;_1" xmlns="http://www.w3.org/2000/svg" xmlns:xlink="http://www.w3.org/1999/xlink" x="0px"
	 y="0px" viewBox="0 0 24 24" style="enable-background:new 0 0 24 24;" xml:space="preserve">
<path style="fill:#333333;" d="M21,23h-7v-8.5c0-1.103-0.897-2-2-2c-1.103,0-2,0.897-2,2V23H3V7h18V23z M16,21h3V9H5v12h3v-6.5
	c0-2.206,1.794-4,4-4c2.206,0,4,1.794,4,4V21z"/>
<path style="fill:#333333;" d="M20,9H4C2.622,9,1.5,7.878,1.5,6.5V4h21v2.5C22.5,7.878,21.379,9,20,9z M3.5,6v0.5
	C3.5,6.776,3.724,7,4,7h16c0.275,0,0.5-0.224,0.5-0.5V6H3.5z"/>
<rect x="2.5" y="1" style="fill:#333333;" width="19" height="2"/>
<rect x="3" y="2" style="fill:#333333;" width="2" height="2.5"/>
<rect x="19" y="2" style="fill:#333333;" width="2" height="2.5"/>
<rect x="4" y="13" style="fill:#333333;" width="5" height="2"/>
<rect x="15" y="13" style="fill:#333333;" width="5" height="2"/>
</svg>






