<?xml version="1.0" encoding="iso-8859-1"?>
<svg version="1.1" id="&#x56FE;&#x5C42;_1" xmlns="http://www.w3.org/2000/svg" xmlns:xlink="http://www.w3.org/1999/xlink" x="0px"
	 y="0px" viewBox="0 0 24 24" style="enable-background:new 0 0 24 24;" xml:space="preserve">
<path style="fill:#333333;" d="M6.5,22v-2c4.411,0,8-3.589,8-8s-3.589-8-8-8V2c5.514,0,10,4.486,10,10C16.5,17.514,12.014,22,6.5,22
	z"/>
<path style="fill:#333333;" d="M4.5,14.5C3.122,14.5,2,13.379,2,12c0-1.378,1.122-2.5,2.5-2.5S7,10.622,7,12
	C7,13.379,5.878,14.5,4.5,14.5z M4.5,11.5C4.224,11.5,4,11.724,4,12c0,0.275,0.224,0.5,0.5,0.5S5,12.275,5,12
	C5,11.724,4.776,11.5,4.5,11.5z"/>
<rect x="6" y="11" style="fill:#333333;" width="15" height="2"/>
<polygon style="fill:#333333;" points="19.707,14.707 18.293,13.293 19.586,12 18.293,10.707 19.707,9.293 22.414,12 "/>
</svg>






