<?xml version="1.0" encoding="iso-8859-1"?>
<svg version="1.1" id="&#x56FE;&#x5C42;_1" xmlns="http://www.w3.org/2000/svg" xmlns:xlink="http://www.w3.org/1999/xlink" x="0px"
	 y="0px" viewBox="0 0 24 24" style="enable-background:new 0 0 24 24;" xml:space="preserve">
<g>
	<defs>
		<rect id="SVGID_1_" width="24" height="24"/>
	</defs>
	<clipPath id="SVGID_00000036958251496176528780000007431034335929484178_">
		<use xlink:href="#SVGID_1_"  style="overflow:visible;"/>
	</clipPath>
	<g style="clip-path:url(#SVGID_00000036958251496176528780000007431034335929484178_);">
		<path style="fill:#333333;" d="M20.229,22.94l-0.787-0.157c-0.733-0.146-1.363-0.616-1.774-1.322
			c-0.502-0.86-0.623-1.977-0.315-2.912c0.907-2.768,0.191-6.454-0.158-7.911c-0.033-0.14-0.149-0.248-0.31-0.288l-1.131-0.283
			c-0.897-0.224-1.595-0.921-1.819-1.818L13.65,7.117c-0.04-0.16-0.147-0.276-0.288-0.31c-1.457-0.349-5.144-1.064-7.911-0.157
			C4.516,6.957,3.4,6.835,2.539,6.333C1.833,5.922,1.364,5.292,1.217,4.559L1.06,3.771L3.021,3.38l0.157,0.787
			C3.22,4.376,3.401,4.521,3.546,4.605c0.364,0.213,0.893,0.272,1.281,0.144c3.136-1.028,6.985-0.371,9.001,0.113
			c0.865,0.208,1.541,0.886,1.762,1.77l0.283,1.132c0.044,0.179,0.184,0.318,0.363,0.363l1.131,0.283
			c0.885,0.221,1.562,0.896,1.771,1.762c0.483,2.015,1.142,5.864,0.113,9.001c-0.128,0.391-0.069,0.917,0.143,1.281
			c0.085,0.145,0.229,0.326,0.439,0.368l0.787,0.157L20.229,22.94z"/>
		
			<rect x="10" y="2.186" transform="matrix(0.7071 -0.7071 0.7071 0.7071 -6.3241 11.7322)" style="fill:#333333;" width="2" height="22.627"/>
		
			<rect x="2.79" y="9.25" transform="matrix(0.7071 -0.7071 0.7071 0.7071 -3.2206 12.7249)" style="fill:#333333;" width="21.92" height="2"/>
	</g>
</g>
</svg>






