<?xml version="1.0" encoding="iso-8859-1"?>
<svg version="1.1" id="&#x56FE;&#x5C42;_1" xmlns="http://www.w3.org/2000/svg" xmlns:xlink="http://www.w3.org/1999/xlink" x="0px"
	 y="0px" viewBox="0 0 24 24" style="enable-background:new 0 0 24 24;" xml:space="preserve">
<path style="fill:#333333;" d="M23,22H1v-9.46l4.682,2.634l2.91-4.364l3.094,1.031l3.705-4.234l3,2.5l2.856-3.266L23,7.5V22z M3,20
	h18v-9.838l-2.391,2.732l-3-2.5l-3.295,3.766L9.408,13.19l-3.09,4.636L3,15.96V20z"/>
<polygon style="fill:#333333;" points="3,14.25 1,14.25 1,8.5 2.651,7.741 5.306,10.017 7.919,6.216 11.033,7.773 15.412,3.136 
	18.183,5.403 21.293,2.293 23,3 23,7.75 21,7.75 21,5.414 18.317,8.097 15.588,5.864 11.467,10.227 8.581,8.784 5.694,12.983 
	3,10.674 "/>
</svg>






