<?xml version="1.0" encoding="iso-8859-1"?>
<svg version="1.1" id="&#x56FE;&#x5C42;_1" xmlns="http://www.w3.org/2000/svg" xmlns:xlink="http://www.w3.org/1999/xlink" x="0px"
	 y="0px" viewBox="0 0 24 24" style="enable-background:new 0 0 24 24;" xml:space="preserve">
<path style="fill:#333333;" d="M12.447,18.895h-0.895l-10-5v-1.789l10-5h0.895l10,5v1.789L12.447,18.895z M4.236,13L12,16.882
	L19.764,13L12,9.118L4.236,13z"/>
<path style="fill:#333333;" d="M12.447,14.395h-0.895l-10-5V7.605l10-5h0.895l10,5v1.789L12.447,14.395z M4.236,8.5L12,12.382
	L19.764,8.5L12,4.618L4.236,8.5z"/>
<path style="fill:#333333;" d="M12.447,22.895h-0.895l-10-5L1,17v-4l1.447-0.895L12,16.882l9.553-4.776L23,13v4l-0.553,0.895
	L12.447,22.895z M3,16.382l9,4.5l9-4.5v-1.764l-8.553,4.276h-0.895L3,14.618V16.382z"/>
<rect x="21" y="7" style="fill:#333333;" width="2" height="6"/>
<rect x="1" y="7" style="fill:#333333;" width="2" height="6"/>
<rect x="11" y="12" style="fill:#333333;" width="2" height="6"/>
<rect x="11" y="2" style="fill:#333333;" width="2" height="6"/>
</svg>






