<?xml version="1.0" encoding="iso-8859-1"?>
<svg version="1.1" id="&#x56FE;&#x5C42;_1" xmlns="http://www.w3.org/2000/svg" xmlns:xlink="http://www.w3.org/1999/xlink" x="0px"
	 y="0px" viewBox="0 0 24 24" style="enable-background:new 0 0 24 24;" xml:space="preserve">
<path style="fill:#333333;" d="M12.999,21.033H11C10.594,8.852,7.632,5.356,6.733,4.575C6.4,4.285,5.9,3.946,5.381,4.006
	c-1.023,0.138-1.74,0.606-2.104,1.391c-0.518,1.118-0.244,2.697,0.32,3.578l-1.685,1.078c-0.837-1.308-1.335-3.586-0.45-5.498
	c0.46-0.993,1.473-2.239,3.68-2.536C5.847,1.946,6.9,2.069,8.046,3.065c1.149,1,2.861,3.319,3.954,8.606
	c1.093-5.288,2.805-7.607,3.954-8.606c1.146-0.997,2.198-1.118,2.875-1.048c2.235,0.3,3.247,1.546,3.707,2.539
	c0.886,1.911,0.389,4.189-0.448,5.498l-1.686-1.078c0.564-0.881,0.838-2.46,0.319-3.579c-0.363-0.784-1.08-1.253-2.131-1.394
	c-0.488-0.046-0.991,0.282-1.324,0.572C16.368,5.356,13.405,8.851,12.999,21.033z"/>
</svg>






