<?xml version="1.0" encoding="iso-8859-1"?>
<svg version="1.1" id="&#x56FE;&#x5C42;_1" xmlns="http://www.w3.org/2000/svg" xmlns:xlink="http://www.w3.org/1999/xlink" x="0px"
	 y="0px" viewBox="0 0 24 24" style="enable-background:new 0 0 24 24;" xml:space="preserve">
<path style="fill:#333333;" d="M20.5,23h-17C2.122,23,1,21.879,1,20.5v-17C1,2.122,2.122,1,3.5,1h17C21.879,1,23,2.122,23,3.5v17
	C23,21.879,21.879,23,20.5,23z M3.5,3C3.224,3,3,3.224,3,3.5v17C3,20.775,3.224,21,3.5,21h17c0.275,0,0.5-0.225,0.5-0.5v-17
	C21,3.224,20.775,3,20.5,3H3.5z"/>
<rect x="5" y="6" style="fill:#333333;" width="4" height="2"/>
<rect x="5" y="6" style="fill:#333333;" width="4" height="2"/>
<rect x="4.879" y="16" transform="matrix(0.7071 -0.7071 0.7071 0.7071 -9.9706 9.9289)" style="fill:#333333;" width="4.243" height="2"/>
<rect x="6" y="5" style="fill:#333333;" width="2" height="4"/>
<rect x="6" y="14.879" transform="matrix(0.7071 -0.7071 0.7071 0.7071 -9.9706 9.9289)" style="fill:#333333;" width="2" height="4.243"/>
<rect x="15" y="6" style="fill:#333333;" width="4" height="2"/>
<rect x="15" y="14.5" style="fill:#333333;" width="4" height="2"/>
<rect x="15" y="17.5" style="fill:#333333;" width="4" height="2"/>
<rect x="11" y="2" style="fill:#333333;" width="2" height="20"/>
<rect x="2" y="11" style="fill:#333333;" width="20" height="2"/>
<rect x="9" y="1" style="fill:#333333;" width="6" height="2"/>
<rect x="9" y="21" style="fill:#333333;" width="6" height="2"/>
<rect x="1" y="10" style="fill:#333333;" width="2" height="4"/>
<rect x="21" y="10" style="fill:#333333;" width="2" height="4"/>
</svg>






