<?xml version="1.0" encoding="iso-8859-1"?>
<svg version="1.1" id="&#x56FE;&#x5C42;_1" xmlns="http://www.w3.org/2000/svg" xmlns:xlink="http://www.w3.org/1999/xlink" x="0px"
	 y="0px" viewBox="0 0 24 24" style="enable-background:new 0 0 24 24;" xml:space="preserve">
<path style="fill:#333333;" d="M8,8C6.346,8,5,6.654,5,5s1.346-3,3-3s3,1.346,3,3S9.654,8,8,8z M8,4C7.449,4,7,4.449,7,5
	s0.449,1,1,1s1-0.449,1-1S8.551,4,8,4z"/>
<path style="fill:#333333;" d="M14,20H6.5C3.935,20,2,18.065,2,15.5S3.935,11,6.5,11H10v2H6.5C5.028,13,4,14.028,4,15.5
	S5.028,18,6.5,18H14V20z"/>
<path style="fill:#333333;" d="M17.5,13H10v-2h7.5c1.472,0,2.5-1.028,2.5-2.5S18.972,6,17.5,6H10V4h7.5C20.065,4,22,5.935,22,8.5
	S20.065,13,17.5,13z"/>
<rect x="3" y="4" style="fill:#333333;" width="3" height="2"/>
<rect x="18" y="18" style="fill:#333333;" width="3" height="2"/>
<path style="fill:#333333;" d="M16,22c-1.654,0-3-1.346-3-3s1.346-3,3-3s3,1.346,3,3S17.654,22,16,22z M16,18c-0.552,0-1,0.448-1,1
	s0.448,1,1,1s1-0.448,1-1S16.552,18,16,18z"/>
</svg>






