<?xml version="1.0" encoding="iso-8859-1"?>
<svg version="1.1" id="&#x56FE;&#x5C42;_1" xmlns="http://www.w3.org/2000/svg" xmlns:xlink="http://www.w3.org/1999/xlink" x="0px"
	 y="0px" viewBox="0 0 24 24" style="enable-background:new 0 0 24 24;" xml:space="preserve">
<path style="fill:#333333;" d="M19.5,22h-15C3.122,22,2,20.879,2,19.5v-15C2,3.122,3.122,2,4.5,2h15C20.879,2,22,3.122,22,4.5v15
	C22,20.879,20.879,22,19.5,22z M4.5,4C4.224,4,4,4.224,4,4.5v15C4,19.775,4.224,20,4.5,20h15c0.275,0,0.5-0.225,0.5-0.5v-15
	C20,4.224,19.775,4,19.5,4H4.5z"/>
<rect x="11" y="8" style="fill:#333333;" width="2" height="8"/>
<rect x="11" y="8" transform="matrix(0.5736 -0.8192 0.8192 0.5736 -4.7125 14.9472)" style="fill:#333333;" width="2" height="7.999"/>
<rect x="8" y="11" transform="matrix(0.8191 -0.5736 0.5736 0.8191 -4.7127 9.0534)" style="fill:#333333;" width="7.999" height="2"/>
</svg>






