<?xml version="1.0" encoding="iso-8859-1"?>
<svg version="1.1" id="&#x56FE;&#x5C42;_1" xmlns="http://www.w3.org/2000/svg" xmlns:xlink="http://www.w3.org/1999/xlink" x="0px"
	 y="0px" viewBox="0 0 24 24" style="enable-background:new 0 0 24 24;" xml:space="preserve">
<path style="fill:#333333;" d="M12,23C5.935,23,1,18.065,1,12S5.935,1,12,1s11,4.935,11,11h-2c0-4.962-4.037-9-9-9
	c-4.962,0-9,4.038-9,9c0,4.963,4.038,9,9,9c2.157,0,4.243-0.774,5.874-2.181l1.307,1.514C17.187,22.053,14.637,23,12,23z"/>
<path style="fill:#333333;" d="M12,17c-2.757,0-5-2.243-5-5s2.243-5,5-5s5,2.243,5,5S14.757,17,12,17z M12,9c-1.654,0-3,1.346-3,3
	s1.346,3,3,3s3-1.346,3-3S13.654,9,12,9z"/>
<path style="fill:#333333;" d="M19,16c-2.206,0-4-1.794-4-4h2c0,1.103,0.897,2,2,2s2-0.897,2-2h2C23,14.206,21.206,16,19,16z"/>
<rect x="15" y="8" style="fill:#333333;" width="2" height="4.5"/>
</svg>






