<?xml version="1.0" encoding="iso-8859-1"?>
<svg version="1.1" id="&#x56FE;&#x5C42;_1" xmlns="http://www.w3.org/2000/svg" xmlns:xlink="http://www.w3.org/1999/xlink" x="0px"
	 y="0px" viewBox="0 0 24 24" style="enable-background:new 0 0 24 24;" xml:space="preserve">
<path style="fill:#333333;" d="M21,19H3l0.003-4.979c0.001-0.827,0.674-1.499,1.5-1.499H8.96c0.001-0.095,0.001-0.195,0.001-0.295
	c-0.073-0.111-0.269-0.323-0.417-0.483c-0.761-0.82-2.034-2.194-2.034-4.817c0-4.005,3.043-5.426,5.649-5.426
	c2.614,0,5.408,1.425,5.408,5.426c0,2.527-1.162,3.771-1.931,4.594c-0.191,0.206-0.481,0.515-0.509,0.629
	c0,0.128,0.001,0.255,0.001,0.372h4.37c0.827,0,1.5,0.673,1.5,1.5V19z M5,17h14v-2.479h-4.479c-1.391,0-1.391-1.157-1.391-2.382
	c0-0.865,0.556-1.459,1.046-1.985c0.685-0.732,1.393-1.49,1.393-3.229c0-2.832-1.854-3.426-3.408-3.426
	c-1.363,0-3.649,0.445-3.649,3.426c0,1.839,0.832,2.737,1.501,3.458c0.467,0.504,0.95,1.025,0.95,1.755c0,0.566,0,0.965-0.089,1.31
	c-0.174,0.672-0.686,1.072-1.369,1.072H5.002L5,17z"/>
<rect x="4" y="20" style="fill:#333333;" width="16" height="2"/>
</svg>






