<?xml version="1.0" encoding="iso-8859-1"?>
<svg version="1.1" id="&#x56FE;&#x5C42;_1" xmlns="http://www.w3.org/2000/svg" xmlns:xlink="http://www.w3.org/1999/xlink" x="0px"
	 y="0px" viewBox="0 0 24 24" style="enable-background:new 0 0 24 24;" xml:space="preserve">
<path style="fill:#333333;" d="M21,23H3V1h12.96L21,6.88V23z M5,21h14V7.62L15.04,3H5V21z"/>
<polygon style="fill:#333333;" points="14,15.75 12,15.75 12,7.863 15.557,6.104 16.443,7.896 14,9.105 "/>
<path style="fill:#333333;" d="M10.25,19.5c-2.068,0-3.75-1.683-3.75-3.75S8.182,12,10.25,12c2.067,0,3.75,1.683,3.75,3.75
	S12.317,19.5,10.25,19.5z M10.25,14c-0.965,0-1.75,0.785-1.75,1.75s0.785,1.75,1.75,1.75S12,16.715,12,15.75S11.215,14,10.25,14z"/>
</svg>






