<?xml version="1.0" encoding="iso-8859-1"?>
<svg version="1.1" id="&#x56FE;&#x5C42;_1" xmlns="http://www.w3.org/2000/svg" xmlns:xlink="http://www.w3.org/1999/xlink" x="0px"
	 y="0px" viewBox="0 0 24 24" style="enable-background:new 0 0 24 24;" xml:space="preserve">
<path style="fill:#333333;" d="M12,17.5c-3.033,0-5.5-2.468-5.5-5.5c0-3.033,2.467-5.5,5.5-5.5c3.032,0,5.5,2.467,5.5,5.5
	C17.5,15.032,15.032,17.5,12,17.5z M12,8.5c-1.93,0-3.5,1.57-3.5,3.5s1.57,3.5,3.5,3.5s3.5-1.57,3.5-3.5S13.93,8.5,12,8.5z"/>
<circle style="fill:#333333;" cx="12" cy="12" r="1.5"/>
<path style="fill:#333333;" d="M21.999,12.288l-1.998-0.076c0.007-0.233,0.116-5.796-5.578-7.767
	C8.76,2.488,5.473,7.341,5.336,7.549L3.663,6.454C3.704,6.39,7.921,0.076,15.077,2.555C22.195,5.019,22.002,12.216,21.999,12.288z"
	/>
<path style="fill:#333333;" d="M12.308,22.093c-0.863,0-1.799-0.113-2.809-0.375C2.086,19.796,2,12.078,2,12h2
	c0.001,0.252,0.104,6.253,6.001,7.782c5.882,1.519,8.514-3.068,8.623-3.265l1.754,0.961C20.349,17.532,17.788,22.093,12.308,22.093z
	"/>
<rect x="20" y="4" style="fill:#333333;" width="2" height="8"/>
<rect x="2" y="12" style="fill:#333333;" width="2" height="8"/>
</svg>






