<?xml version="1.0" encoding="iso-8859-1"?>
<svg version="1.1" id="&#x56FE;&#x5C42;_1" xmlns="http://www.w3.org/2000/svg" xmlns:xlink="http://www.w3.org/1999/xlink" x="0px"
	 y="0px" viewBox="0 0 24 24" style="enable-background:new 0 0 24 24;" xml:space="preserve">
<path style="fill:#333333;" d="M21.102,22.5H2.897c-0.77,0-1.396-0.621-1.396-1.385v-0.462c-0.012-0.205-0.011-1.125,0.586-2.123
	c0.371-0.619,0.897-1.147,1.564-1.569c0.76-0.479,1.702-0.816,2.798-1.002c0.064-0.009,0.753-0.102,1.439-0.278
	c0.343-0.088,0.571-0.166,0.718-0.225c-0.004-0.071-0.01-0.157-0.02-0.259c-0.099-1.088-0.684-1.731-1.249-2.354
	c-0.222-0.244-0.429-0.477-0.589-0.702c-0.735-1.031-0.836-2.163-0.849-2.38c-0.002-0.521,0.154-0.884,0.33-1.138
	C6.108,7.716,6.11,6.601,6.24,5.796c0.088-1.239,0.96-2.155,1.28-2.451C7.507,3.201,7.511,3.04,7.545,2.865
	c0.122-0.614,0.586-1.081,1.242-1.25C9.039,1.549,9.281,1.537,9.426,1.53c0.516-0.026,1.069-0.048,1.638-0.006
	c3.931,0.292,5.426,1.712,5.686,1.994c0.423,0.489,0.714,1.053,0.891,1.701c0.057,0.208,0.093,0.384,0.113,0.551
	c0.14,0.781,0.116,1.608,0.086,2.158c-0.011,0.21-0.031,0.427-0.061,0.666c0.084,0.123,0.169,0.279,0.23,0.468
	c0.062,0.198,0.092,0.399,0.092,0.621c-0.012,0.267-0.103,1.407-0.851,2.458c-0.158,0.223-0.361,0.45-0.579,0.69
	c-0.577,0.637-1.161,1.28-1.26,2.367c-0.01,0.102-0.016,0.187-0.02,0.259c0.147,0.06,0.377,0.139,0.722,0.227
	c0.663,0.17,1.314,0.26,1.387,0.27c1.16,0.207,2.11,0.553,2.867,1.032c0.666,0.421,1.191,0.949,1.561,1.568
	c0.592,0.991,0.584,1.909,0.567,2.167l0.002,0.396C22.497,21.879,21.871,22.5,21.102,22.5z M3.502,21.112v0.003
	C3.502,21.114,3.502,21.113,3.502,21.112z M3.502,20.5h16.995c-0.01-0.197-0.061-0.544-0.287-0.924
	c-0.206-0.346-0.514-0.649-0.913-0.901c-0.538-0.342-1.246-0.593-2.106-0.747c-0.096-0.012-0.815-0.114-1.572-0.308
	c-1.287-0.329-1.944-0.727-2.132-1.289l-0.078-0.14l0.012-0.071c-0.047-0.238-0.047-0.6-0.001-1.104
	c0.159-1.753,1.122-2.813,1.759-3.516c0.173-0.19,0.326-0.356,0.443-0.521c0.362-0.509,0.454-1.1,0.476-1.287l-0.114-0.125
	c-0.116-0.11-0.307-0.421-0.231-0.916c0.048-0.316,0.077-0.582,0.092-0.834c0.024-0.45,0.044-1.122-0.066-1.749
	c-0.019-0.132-0.037-0.219-0.066-0.323c-0.099-0.365-0.247-0.658-0.453-0.897v0c-0.003,0-1.14-1.092-4.342-1.331
	c-0.417-0.031-0.84-0.017-1.274,0.004L9.53,4.088L9.452,4.208c-0.16,0.248-0.365,0.432-0.563,0.595
	c-0.161,0.139-0.63,0.65-0.654,1.154L8.221,6.081c-0.12,0.691-0.105,1.803,0.033,2.53c0.023,0.116,0.087,0.441-0.084,0.791
	L8.084,9.576l-0.145,0.13c-0.011,0.01-0.022,0.02-0.034,0.029c0.022,0.169,0.118,0.746,0.473,1.244
	c0.119,0.167,0.276,0.336,0.441,0.517c0.639,0.705,1.602,1.766,1.761,3.519c0.045,0.504,0.045,0.865-0.001,1.104l-0.06,0.206
	c-0.121,0.522-0.79,0.948-2.133,1.292c-0.786,0.202-1.552,0.307-1.637,0.318c-0.801,0.136-1.495,0.378-2.029,0.715
	c-0.398,0.252-0.707,0.558-0.916,0.906C3.562,19.962,3.512,20.329,3.502,20.5z M15.156,15.341L15.156,15.341L15.156,15.341z
	 M17.465,8.226l0.027,0.03C17.483,8.246,17.475,8.236,17.465,8.226z M7.69,3.964C7.696,3.976,7.701,3.988,7.707,4
	C7.702,3.988,7.696,3.976,7.69,3.964z"/>
</svg>






