<?xml version="1.0" encoding="iso-8859-1"?>
<svg version="1.1" id="&#x56FE;&#x5C42;_1" xmlns="http://www.w3.org/2000/svg" xmlns:xlink="http://www.w3.org/1999/xlink" x="0px"
	 y="0px" viewBox="0 0 24 24" style="enable-background:new 0 0 24 24;" xml:space="preserve">
<path style="fill:#333333;" d="M12.046,21.703c-0.744,0-1.496-0.073-2.242-0.223c-3.02-0.604-5.63-2.414-7.161-4.966l1.715-1.029
	c1.242,2.07,3.37,3.54,5.839,4.034c2.406,0.479,4.978-0.023,6.703-1.319c2.658-1.993,3.601-5.394,3.601-7.7
	c0-2.274-0.934-4.848-1.332-5.445c-0.226-0.339-0.752-0.542-0.918-0.586l0.492-1.938c0.141,0.035,1.396,0.374,2.09,1.416
	C21.431,4.843,22.5,7.802,22.5,10.5c0,2.9-1.156,6.867-4.4,9.3C16.447,21.04,14.287,21.703,12.046,21.703z"/>
<path style="fill:#333333;" d="M8.5,19c-3.207,0-5.45-1.14-6.857-3.485C-0.089,12.629,0.617,9.287,3.4,7.2
	c1.418-1.064,2.958-1.164,4.317-1.251c0.865-0.056,1.681-0.108,2.438-0.387c1.256-0.463,2.212-1.196,3.137-1.905
	c0.996-0.764,1.937-1.485,3.067-1.646c1.171-0.168,2.23,0.106,2.995,0.77C20.093,3.421,20.5,4.387,20.5,5.5
	c0,1.93-1.05,6.964-4.293,10.207C13.836,18.077,11.675,19,8.5,19z M17.017,3.962c-0.12,0-0.246,0.009-0.375,0.027
	c-0.612,0.088-1.317,0.628-2.134,1.254c-0.944,0.725-2.121,1.627-3.662,2.195l0,0c-1.029,0.379-2.031,0.444-3,0.506
	C6.609,8.024,5.542,8.094,4.6,8.8c-1.98,1.485-2.456,3.664-1.243,5.686C4.401,16.225,5.987,17,8.5,17
	c2.646,0,4.293-0.708,6.293-2.707c2.773-2.774,3.707-7.2,3.707-8.793c0-0.371-0.079-0.881-0.457-1.209
	C17.794,4.075,17.438,3.962,17.017,3.962z"/>
<path style="fill:#333333;" d="M10.411,14.5c-1.17,0-2.031-0.474-2.556-1.406c-0.658-1.169-0.39-2.522,0.668-3.367
	c0.575-0.46,1.177-0.501,1.617-0.532c0.192-0.013,0.359-0.025,0.466-0.067h0c0.247-0.097,0.461-0.272,0.688-0.457
	c0.327-0.267,0.696-0.569,1.211-0.648c0.532-0.082,1.029,0.053,1.404,0.375c0.381,0.327,0.59,0.81,0.59,1.361
	c0,0.789-0.378,2.444-1.394,3.527C12.309,14.137,11.502,14.5,10.411,14.5z M11.338,10.989L11.338,10.989
	c-0.394,0.155-0.764,0.18-1.061,0.201c-0.297,0.021-0.426,0.035-0.506,0.099c-0.201,0.161-0.394,0.434-0.174,0.824
	c0.119,0.212,0.263,0.388,0.813,0.388c0.536,0,0.813-0.131,1.237-0.582c0.405-0.432,0.649-1.084,0.766-1.581
	C12.143,10.555,11.791,10.812,11.338,10.989z"/>
</svg>






