<?xml version="1.0" encoding="iso-8859-1"?>
<svg version="1.1" id="&#x56FE;&#x5C42;_1" xmlns="http://www.w3.org/2000/svg" xmlns:xlink="http://www.w3.org/1999/xlink" x="0px"
	 y="0px" viewBox="0 0 24 24" style="enable-background:new 0 0 24 24;" xml:space="preserve">
<path style="fill:#333333;" d="M12,23c-3.976,0-8-2.576-8-7.5c0-2.527,0.972-4.147,1.83-5.577c0.268-0.447,0.537-0.893,0.775-1.37
	C6.817,8.129,6.93,7.397,7.048,6.621C7.392,4.383,7.91,1,12,1c4.132,0,4.632,3.543,4.963,5.887c0.121,0.857,0.235,1.666,0.466,2.241
	c0.338,0.846,0.744,1.514,1.138,2.159C19.271,12.445,20,13.643,20,15.5C20,20.424,15.976,23,12,23z M12,3
	C9.861,3,9.434,4.257,9.025,6.924C8.882,7.859,8.747,8.743,8.395,9.447c-0.262,0.523-0.555,1.014-0.85,1.505
	C6.716,12.334,6,13.527,6,15.5c0,3.779,3.11,5.5,6,5.5s6-1.721,6-5.5c0-1.296-0.479-2.083-1.143-3.173
	c-0.415-0.682-0.886-1.455-1.286-2.456c-0.319-0.799-0.45-1.725-0.589-2.705C14.573,4.27,14.168,3,12,3z"/>
<path style="fill:#333333;" d="M12,19c-2.206,0-4-1.794-4-4c0-2.196,1.747-4.75,4-4.75s4,2.554,4,4.75C16,17.206,14.206,19,12,19z
	 M12,12.25c-1.011,0-2,1.574-2,2.75c0,1.103,0.897,2,2,2c1.103,0,2-0.897,2-2C14,13.824,13.011,12.25,12,12.25z"/>
</svg>






