<?xml version="1.0" encoding="iso-8859-1"?>
<svg version="1.1" id="&#x56FE;&#x5C42;_1" xmlns="http://www.w3.org/2000/svg" xmlns:xlink="http://www.w3.org/1999/xlink" x="0px"
	 y="0px" viewBox="0 0 24 24" style="enable-background:new 0 0 24 24;" xml:space="preserve">
<path style="fill:#333333;" d="M17.145,23.298c-0.427,0-0.886-0.094-1.348-0.285c-1.521-0.63-3.297-2.452-3.297-5.513V12
	c0-0.642-0.779-0.783-1.079-0.783c-0.278,0-0.53,0.076-0.692,0.209C10.631,11.507,10.5,11.654,10.5,12v8.75
	c0,1.118-0.687,2.25-2,2.25c-2.646,0-5-7.549-5-13.5c0-6.373,2.336-8.036,3.053-8.395L6.764,1h10.705l0.3,0.36
	C18.292,1.988,20,4.289,20,7.5c0,4.173-0.807,6.606-1.396,8.383C18.267,16.9,18,17.704,18,18.5c0,0.348,0.283,0.762,0.557,1.162
	c0.454,0.663,1.299,1.896,0.15,3.045C18.316,23.098,17.765,23.298,17.145,23.298z M11.421,9.217c1.493,0,3.079,0.976,3.079,2.783
	v5.5c0,2.279,1.32,3.25,1.725,3.493c0.463,0.279,0.834,0.327,1.005,0.303c-0.077-0.145-0.219-0.354-0.322-0.504
	C16.524,20.232,16,19.467,16,18.5c0-1.118,0.327-2.104,0.706-3.246C17.282,13.515,18,11.351,18,7.5c0-2.113-0.938-3.73-1.491-4.5
	H7.281C6.584,3.528,5.5,5.391,5.5,9.5c0,5.455,1.973,10.499,2.975,11.41C8.491,20.846,8.5,20.779,8.5,20.75V12
	c0-0.86,0.342-1.614,0.962-2.122C9.983,9.452,10.679,9.217,11.421,9.217z M8.633,21.023L8.633,21.023L8.633,21.023z"/>
<rect x="5" y="5" style="fill:#333333;" width="13.5" height="2"/>
<path style="fill:#333333;" d="M5.585,7.595L3.594,7.405c0.141-1.483,0.44-2.762,0.89-3.802l1.836,0.793
	C5.953,5.244,5.706,6.32,5.585,7.595z"/>
<path style="fill:#333333;" d="M20,7.5h-2c0-0.887-0.167-1.776-0.497-2.645l1.869-0.711C19.789,5.241,20,6.37,20,7.5z"/>
</svg>






