<?xml version="1.0" encoding="iso-8859-1"?>
<svg version="1.1" id="&#x56FE;&#x5C42;_1" xmlns="http://www.w3.org/2000/svg" xmlns:xlink="http://www.w3.org/1999/xlink" x="0px"
	 y="0px" viewBox="0 0 24 24" style="enable-background:new 0 0 24 24;" xml:space="preserve">
<path style="fill:#333333;" d="M12,7.5c-1.93,0-3.5-1.57-3.5-3.5s1.57-3.5,3.5-3.5s3.5,1.57,3.5,3.5S13.93,7.5,12,7.5z M12,2.5
	c-0.827,0-1.5,0.673-1.5,1.5s0.673,1.5,1.5,1.5s1.5-0.673,1.5-1.5S12.827,2.5,12,2.5z"/>
<path style="fill:#333333;" d="M20.806,14.72c-3.062-2.952-6.209-4.37-9.383-4.208c-4.814,0.244-8.125,4.093-8.158,4.132
	l-1.531-1.287c0.156-0.186,3.875-4.542,9.564-4.841c3.754-0.198,7.414,1.406,10.896,4.764L20.806,14.72z"/>
<path style="fill:#333333;" d="M12,19.5c-2.568,0-3.5-2.093-3.5-3.5v-3.895C8.5,10.656,9.432,8.5,12,8.5
	c2.568,0,3.5,2.156,3.5,3.605V16C15.5,17.407,14.568,19.5,12,19.5z M12,10.5c-1.367,0-1.494,1.235-1.5,1.613V16
	c0.009,0.444,0.172,1.5,1.5,1.5c1.428,0,1.5-1.25,1.5-1.5v-3.895C13.493,11.735,13.366,10.5,12,10.5z"/>
<polygon style="fill:#333333;" points="16.259,22.65 14.741,21.35 16.984,18.731 13.97,16.848 15.03,15.152 20.016,18.269 "/>
<polygon style="fill:#333333;" points="7.741,22.65 3.984,18.269 8.97,15.152 10.03,16.848 7.016,18.731 9.259,21.35 "/>
</svg>






