<?xml version="1.0" encoding="iso-8859-1"?>
<svg version="1.1" id="&#x56FE;&#x5C42;_1" xmlns="http://www.w3.org/2000/svg" xmlns:xlink="http://www.w3.org/1999/xlink" x="0px"
	 y="0px" viewBox="0 0 24 24" style="enable-background:new 0 0 24 24;" xml:space="preserve">
<path style="fill:#333333;" d="M12,22.8c-4.898,0-8.682-3.94-9.888-7.833c0,0,0,0,0,0c-0.022,0-0.229-0.133-0.367-0.222
	C1.092,14.326,0,13.625,0,11.9c0-1.707,1.085-2.443,1.733-2.883c0.152-0.103,0.381-0.259,0.431-0.33C3.383,4.885,7.165,1,12,1
	c4.832,0,8.613,3.882,9.851,7.717c0.036,0.042,0.271,0.205,0.428,0.313C22.922,9.476,24,10.222,24,11.9
	c0,1.706-1.089,2.398-1.74,2.811c-0.137,0.087-0.343,0.218-0.392,0.278C20.712,18.834,16.928,22.8,12,22.8z M12,3
	C8.122,3,5.065,6.188,4.05,9.337c-0.216,0.67-0.758,1.039-1.194,1.334C2.263,11.074,2,11.279,2,11.9
	c0,0.607,0.253,0.795,0.825,1.163c0.439,0.282,0.986,0.633,1.197,1.312C5.012,17.567,8.07,20.8,12,20.8
	c3.954,0,7.013-3.253,7.989-6.466c0.208-0.682,0.757-1.03,1.198-1.311C21.766,12.656,22,12.483,22,11.9
	c0-0.603-0.279-0.823-0.86-1.226c-0.435-0.301-0.977-0.676-1.191-1.343C18.932,6.185,15.876,3,12,3z"/>
<path style="fill:#333333;" d="M19.948,9.331C18.932,6.185,15.876,3,12,3V1c4.832,0,8.613,3.882,9.851,7.717L19.948,9.331z"/>
<g>
	<path style="fill:#333333;" d="M9.55,10.8c0,0.413-0.112,0.776-0.28,1.028C9.101,12.082,8.894,12.2,8.7,12.2
		S8.3,12.082,8.13,11.828c-0.168-0.252-0.28-0.615-0.28-1.028s0.112-0.776,0.28-1.028C8.3,9.518,8.506,9.4,8.7,9.4
		s0.401,0.118,0.57,0.372C9.438,10.024,9.55,10.387,9.55,10.8z"/>
	<path style="fill:#333333;" d="M8.7,12.45c-0.294,0-0.57-0.172-0.778-0.483C7.714,11.654,7.6,11.24,7.6,10.8
		s0.114-0.855,0.322-1.167c0.415-0.622,1.14-0.623,1.556,0C9.686,9.945,9.8,10.359,9.8,10.8s-0.114,0.854-0.322,1.167
		C9.27,12.278,8.994,12.45,8.7,12.45z M8.7,9.65c-0.12,0-0.251,0.095-0.362,0.261C8.187,10.138,8.1,10.462,8.1,10.8
		s0.087,0.662,0.238,0.89c0.221,0.332,0.503,0.333,0.724,0C9.213,11.462,9.3,11.138,9.3,10.8s-0.087-0.662-0.238-0.889
		C8.952,9.745,8.819,9.65,8.7,9.65z"/>
</g>
<g>
	<path style="fill:#333333;" d="M16.15,10.8c0,0.413-0.112,0.776-0.28,1.028C15.7,12.082,15.494,12.2,15.3,12.2
		s-0.401-0.118-0.57-0.372c-0.168-0.252-0.28-0.615-0.28-1.028s0.112-0.776,0.28-1.028C14.899,9.518,15.106,9.4,15.3,9.4
		s0.401,0.118,0.57,0.372C16.038,10.024,16.15,10.387,16.15,10.8z"/>
	<path style="fill:#333333;" d="M15.3,12.45c-0.294,0-0.57-0.172-0.777-0.483C14.314,11.654,14.2,11.24,14.2,10.8
		s0.114-0.855,0.322-1.167c0.414-0.623,1.137-0.625,1.556,0C16.286,9.945,16.4,10.359,16.4,10.8s-0.114,0.854-0.322,1.167
		C15.869,12.278,15.593,12.45,15.3,12.45z M15.3,9.65c-0.119,0-0.251,0.095-0.361,0.261C14.787,10.138,14.7,10.462,14.7,10.8
		s0.087,0.662,0.238,0.89c0.221,0.332,0.503,0.332,0.724,0c0.151-0.227,0.238-0.551,0.238-0.889s-0.087-0.662-0.238-0.889
		C15.552,9.745,15.419,9.65,15.3,9.65z"/>
</g>
<path style="fill-rule:evenodd;clip-rule:evenodd;fill:#333333;" d="M9.249,15.875c0.965,0.65,1.884,0.975,2.756,0.975
	c0.871,0,1.734-0.324,2.59-0.973"/>
<path style="fill:#333333;" d="M12.005,17.85c-1.071,0-2.187-0.386-3.314-1.146l1.117-1.658c1.568,1.056,2.804,1.079,4.183,0.034
	l1.209,1.594C14.17,17.454,13.095,17.85,12.005,17.85z"/>
<path style="fill:#333333;" d="M11.734,6.849c-0.098,0-0.198-0.001-0.299-0.002l0.034-2c1.778,0.035,2.604-0.243,2.985-0.479
	c0.276-0.17,0.518-0.424,0.42-1.131l1.98-0.274c0.188,1.352-0.292,2.456-1.351,3.108C14.656,6.594,13.421,6.849,11.734,6.849z"/>
</svg>






