<?xml version="1.0" encoding="iso-8859-1"?>
<svg version="1.1" id="&#x56FE;&#x5C42;_1" xmlns="http://www.w3.org/2000/svg" xmlns:xlink="http://www.w3.org/1999/xlink" x="0px"
	 y="0px" viewBox="0 0 24 24" style="enable-background:new 0 0 24 24;" xml:space="preserve">
<path style="fill:#333333;" d="M12,23C6.486,23,2,18.514,2,13C2,7.486,6.486,3,12,3c5.514,0,10,4.486,10,10
	C22,18.514,17.514,23,12,23z M12,5c-4.411,0-8,3.589-8,8s3.589,8,8,8s8-3.589,8-8S16.411,5,12,5z"/>
<path style="fill:#333333;" d="M11.031,4.246C11.027,4.233,10.551,3,9,3V1c2.479,0,3.745,1.858,3.97,2.757L11.031,4.246z"/>
<path style="fill:#333333;" d="M12.996,4.083l-1.993-0.167c0.018-0.208,0.208-2.046,1.5-2.785l0.992,1.736
	C13.261,3.002,13.034,3.632,12.996,4.083z"/>
<path style="fill:#333333;" d="M12,19.5c-3.083,0-4.342-2.448-4.395-2.553l1.789-0.895C9.421,16.104,10.178,17.5,12,17.5
	s2.579-1.396,2.61-1.456l1.784,0.903C16.343,17.052,15.083,19.5,12,19.5z"/>
<path style="fill:#333333;" d="M14.497,18.072l-1.994-0.144C12.598,16.597,13.031,13.5,15,13.5c0.591,0,1.086,0.245,1.396,0.691
	c0.625,0.902,0.189,2.264,0.041,2.66l-1.618-0.607L15.5,16.5l-0.682-0.253C14.669,16.762,14.543,17.441,14.497,18.072z"/>
<rect x="14.5" y="9.5" style="fill:#333333;" width="2" height="2"/>
<rect x="7.5" y="9.5" style="fill:#333333;" width="2" height="2"/>
<rect x="1" y="12" style="fill:#333333;" width="2" height="2"/>
<rect x="21" y="12" style="fill:#333333;" width="2" height="2"/>
</svg>






