<?xml version="1.0" encoding="iso-8859-1"?>
<svg version="1.1" id="&#x56FE;&#x5C42;_1" xmlns="http://www.w3.org/2000/svg" xmlns:xlink="http://www.w3.org/1999/xlink" x="0px"
	 y="0px" viewBox="0 0 24 24" style="enable-background:new 0 0 24 24;" xml:space="preserve">
<path style="fill:#333333;" d="M15,22H5c-1.93,0-3.5-1.57-3.5-3.5v-13C1.5,3.57,3.07,2,5,2h7v2H5C4.173,4,3.5,4.673,3.5,5.5v13
	C3.5,19.327,4.173,20,5,20h10V22z"/>
<polygon style="fill:#333333;" points="2.805,14.952 2.195,13.048 8.5,11.032 8.5,3 10.5,3 10.5,12.492 "/>
<rect x="11.5" y="9.838" transform="matrix(0.3162 -0.9487 0.9487 0.3162 -3.7856 20.7475)" style="fill:#333333;" width="2" height="6.325"/>
<rect x="17.5" y="9" style="fill:#333333;" width="2" height="12"/>
<path style="fill:#333333;" d="M18.5,10c-0.987,0-1.922-0.27-2.631-0.761C14.986,8.629,14.5,7.715,14.5,6.667
	C14.5,3.156,16.83,1,18.5,1s4,2.156,4,5.667C22.5,8.598,20.817,10,18.5,10z M18.5,3c-0.339,0.006-2,1.026-2,3.667
	C16.5,7.721,17.809,8,18.5,8s2-0.279,2-1.333C20.5,4.026,18.839,3.006,18.5,3z"/>
</svg>






