<?xml version="1.0" encoding="iso-8859-1"?>
<svg version="1.1" id="&#x56FE;&#x5C42;_1" xmlns="http://www.w3.org/2000/svg" xmlns:xlink="http://www.w3.org/1999/xlink" x="0px"
	 y="0px" viewBox="0 0 24 24" style="enable-background:new 0 0 24 24;" xml:space="preserve">
<path style="fill:#333333;" d="M12,8.5c-1.93,0-3.5-1.57-3.5-3.5s1.57-3.5,3.5-3.5s3.5,1.57,3.5,3.5S13.93,8.5,12,8.5z M12,3.5
	c-0.827,0-1.5,0.673-1.5,1.5s0.673,1.5,1.5,1.5s1.5-0.673,1.5-1.5S12.827,3.5,12,3.5z"/>
<path style="fill:#333333;" d="M12.25,20c-2.609,0-3.271-1.399-3.854-2.634c-0.201-0.425-0.409-0.865-0.709-1.285
	c-1.056-1.478-2.951-2.55-3.574-2.901L3.6,12.888L1.87,3.375l4.372-1.749L6.48,2.803C6.494,2.87,7.883,9.5,12,9.5
	c4.116,0,5.506-6.63,5.52-6.697l0.238-1.175l4.372,1.748l-1.747,9.612l-0.532,0.199c-0.451,0.183-2.35,1.755-2.993,2.828
	c-0.139,0.231-0.256,0.505-0.381,0.788C15.916,18.076,15.068,20,12.25,20z M5.4,11.612c0.941,0.543,2.743,1.668,3.914,3.307
	c0.404,0.565,0.662,1.111,0.89,1.593C10.73,17.625,10.908,18,12.25,18c1.443,0,1.833-0.724,2.396-2.003
	c0.149-0.341,0.305-0.692,0.496-1.012c0.682-1.136,2.368-2.701,3.459-3.386l1.269-6.975L19.182,4.35
	C18.491,6.638,16.495,11.5,12,11.5c-4.496,0-6.491-4.862-7.182-7.15L4.13,4.625L5.4,11.612z"/>
<path style="fill:#333333;" d="M21.5,22H17v-1c0-2.373-1.938-3.595-2.02-3.646l1.034-1.712c0.109,0.065,2.442,1.498,2.906,4.357
	h0.511c-0.436-3.137-2.821-4.569-2.933-4.635l0.997-1.733C17.659,13.726,21.5,15.978,21.5,21V22z"/>
<path style="fill:#333333;" d="M7.5,22H3v-1c0-5.022,3.84-7.274,4.004-7.368l0.992,1.736L7.5,14.5L8,15.365
	C7.889,15.431,5.503,16.863,5.068,20H5.58c0.463-2.859,2.796-4.292,2.906-4.357l1.029,1.715C9.437,17.405,7.5,18.627,7.5,21V22z"/>
</svg>






