<?xml version="1.0" encoding="iso-8859-1"?>
<svg version="1.1" id="&#x56FE;&#x5C42;_1" xmlns="http://www.w3.org/2000/svg" xmlns:xlink="http://www.w3.org/1999/xlink" x="0px"
	 y="0px" viewBox="0 0 24 24" style="enable-background:new 0 0 24 24;" xml:space="preserve">
<path style="fill:#333333;" d="M16,19.5c-0.868,0-1.864-0.354-2.919-0.727C12.009,18.393,10.9,18,10,18
	c-0.833,0-1.596,0.274-2.334,0.541c-0.845,0.303-1.719,0.617-2.612,0.439C3.29,18.628,2.5,17.229,2.5,16
	c0-1.68,0.928-2.763,2.757-3.22c1.28-0.323,4.318,0.095,5.768,0.508c0.184,0.053,0.357,0.106,0.522,0.157
	c1.03,0.315,1.075,0.269,1.246,0.098c0.088-0.088,0.121-0.121-0.058-0.81C12.631,12.33,12.5,11.827,12.5,11.25
	c0-2.008,1.792-3.022,2.978-3.694c0.155-0.088,0.329-0.186,0.479-0.277c-0.034-0.038-0.068-0.074-0.098-0.106
	C15.391,6.671,14.75,5.985,14.75,5c0-2.624,4.641-3.711,6.062-3.982l1.47-0.28L18.97,16.742C18.714,17.767,17.801,19.5,16,19.5z
	 M10,16c1.244,0,2.575,0.472,3.749,0.888C14.599,17.188,15.476,17.5,16,17.5c0.637,0,0.987-1.102,1.027-1.234L19.699,3.35
	C18.006,3.865,16.75,4.588,16.75,5c0,0.197,0.33,0.55,0.57,0.809c0.4,0.429,1.465,1.57,0.387,2.648
	c-0.312,0.312-0.744,0.557-1.244,0.84C15.351,9.926,14.5,10.47,14.5,11.25c0,0.321,0.083,0.642,0.171,0.981
	c0.186,0.715,0.467,1.795-0.464,2.726c-1.07,1.07-2.227,0.713-3.248,0.399l-0.484-0.145c-1.401-0.401-4.01-0.671-4.732-0.492
	C4.692,14.982,4.5,15.357,4.5,16c0,0.25,0.092,0.849,0.946,1.02c0.345,0.062,0.928-0.14,1.542-0.36C7.804,16.365,8.818,16,10,16z"/>
<polygon style="fill:#333333;" points="20.5,23 2.557,23 4.563,17.648 6.437,18.352 5.443,21 18.5,21 16.7,18.6 18.3,17.4 
	21.3,21.4 "/>
</svg>






