<?xml version="1.0" encoding="iso-8859-1"?>
<svg version="1.1" id="&#x56FE;&#x5C42;_1" xmlns="http://www.w3.org/2000/svg" xmlns:xlink="http://www.w3.org/1999/xlink" x="0px"
	 y="0px" viewBox="0 0 24 24" style="enable-background:new 0 0 24 24;" xml:space="preserve">
<path style="fill:#333333;" d="M9.36,22.995c-0.709,0-1.35-0.138-1.871-0.418c-0.837-0.449-1.358-1.245-1.465-2.24
	c-0.193-1.79,0.833-2.5,1.583-3.019c0.527-0.365,0.982-0.68,1.287-1.385c0.157-0.365,0.034-0.6-0.777-1.475
	c-0.879-0.95-2.084-2.252-1.591-4.378C6.854,8.664,7.953,7.613,9.54,7.197c2.536-0.661,5.641,0.338,7.553,2.435
	c1.192,1.308,1.659,3.274,1.28,5.394c-0.518,2.898-2.525,5.509-5.371,6.982C11.744,22.66,10.468,22.995,9.36,22.995z M11.154,8.999
	c-0.398,0-0.772,0.045-1.107,0.133c-0.606,0.159-1.371,0.53-1.572,1.399c-0.241,1.042,0.265,1.655,1.111,2.568
	c0.78,0.843,1.848,1.997,1.146,3.627c-0.531,1.23-1.372,1.812-1.985,2.236c-0.661,0.457-0.798,0.552-0.733,1.159
	c0.047,0.438,0.251,0.602,0.423,0.693c0.596,0.321,1.991,0.274,3.646-0.582c2.297-1.19,3.913-3.268,4.322-5.559
	c0.265-1.481-0.03-2.862-0.79-3.695C14.361,9.605,12.604,8.999,11.154,8.999z"/>
<ellipse transform="matrix(0.6428 -0.766 0.766 0.6428 0.9839 15.6453)" style="fill:#333333;" cx="17.268" cy="6.768" rx="1.5" ry="1"/>
<ellipse transform="matrix(0.4226 -0.9063 0.9063 0.4226 3.6771 16.375)" style="fill:#333333;" cx="14.69" cy="5.302" rx="1.5" ry="1"/>
<ellipse transform="matrix(0.1045 -0.9945 0.9945 0.1045 5.6932 15.9257)" style="fill:#333333;" cx="11.69" cy="4.801" rx="1.5" ry="1"/>
<path style="fill:#333333;" d="M7.29,6.948c-0.458,0-0.926-0.142-1.35-0.418c-0.575-0.375-1.033-0.97-1.29-1.674
	C4.075,3.275,4.656,1.661,5.974,1.181l0,0c0.668-0.242,1.43-0.137,2.085,0.291c0.576,0.375,1.033,0.97,1.29,1.674
	c0.256,0.704,0.288,1.453,0.088,2.111C9.21,6.006,8.696,6.576,8.026,6.819C7.789,6.905,7.541,6.948,7.29,6.948z M6.658,3.06
	C6.492,3.121,6.318,3.588,6.53,4.171c0.108,0.296,0.292,0.545,0.503,0.684c0.12,0.078,0.241,0.114,0.309,0.085
	c0.07-0.026,0.14-0.127,0.182-0.264C7.597,4.434,7.577,4.125,7.47,3.83C7.362,3.533,7.179,3.284,6.966,3.146
	C6.846,3.067,6.729,3.037,6.658,3.06z"/>
<ellipse transform="matrix(0.766 -0.6428 0.6428 0.766 -1.1281 14.4363)" style="fill:#333333;" cx="19.268" cy="8.768" rx="1.5" ry="1"/>
</svg>






