<?xml version="1.0" encoding="iso-8859-1"?>
<svg version="1.1" id="&#x56FE;&#x5C42;_1" xmlns="http://www.w3.org/2000/svg" xmlns:xlink="http://www.w3.org/1999/xlink" x="0px"
	 y="0px" viewBox="0 0 24 24" style="enable-background:new 0 0 24 24;" xml:space="preserve">
<path style="fill:#333333;" d="M19,23H5V9h14V23z M7,21h10V11H7V21z"/>
<rect x="13" y="17" style="fill:#333333;" width="5" height="2"/>
<rect x="13" y="13" style="fill:#333333;" width="5" height="2"/>
<rect x="4" y="9" style="fill:#333333;" width="16" height="2"/>
<path style="fill:#333333;" d="M18,8h-5.2V3.8C12.795,3.666,12.562,3,12,3c-0.562,0-0.795,0.666-0.8,0.801V8H6V6h3.2V3.8
	C9.2,2.631,10.265,1,12,1c1.734,0,2.8,1.631,2.8,2.8V6H18V8z"/>
</svg>






