<?xml version="1.0" encoding="iso-8859-1"?>
<svg version="1.1" id="&#x56FE;&#x5C42;_1" xmlns="http://www.w3.org/2000/svg" xmlns:xlink="http://www.w3.org/1999/xlink" x="0px"
	 y="0px" viewBox="0 0 24 24" style="enable-background:new 0 0 24 24;" xml:space="preserve">
<polygon style="fill:#333333;" points="21.553,9.895 12.006,5.121 2.707,9.89 1.793,8.11 11.994,2.879 22.447,8.105 "/>
<rect x="11" y="2" style="fill:#333333;" width="2" height="7"/>
<rect x="4" y="8" style="fill:#333333;" width="2" height="7"/>
<path style="fill:#333333;" d="M5,22c-2.206,0-4-1.794-4-4s1.794-4,4-4s4,1.794,4,4S7.206,22,5,22z M5,16c-1.103,0-2,0.897-2,2
	s0.897,2,2,2s2-0.897,2-2S6.103,16,5,16z"/>
<rect x="18" y="8" style="fill:#333333;" width="2" height="7"/>
<path style="fill:#333333;" d="M19,22.414L14.586,18L19,13.586L23.414,18L19,22.414z M17.414,18L19,19.586L20.586,18L19,16.414
	L17.414,18z"/>
<polygon style="fill:#333333;" points="15.5,11.5 13.5,11.5 13.5,10 10.5,10 10.5,11.5 8.5,11.5 8.5,8 15.5,8 "/>
</svg>






