<?xml version="1.0" encoding="iso-8859-1"?>
<svg version="1.1" id="&#x56FE;&#x5C42;_1" xmlns="http://www.w3.org/2000/svg" xmlns:xlink="http://www.w3.org/1999/xlink" x="0px"
	 y="0px" viewBox="0 0 24 24" style="enable-background:new 0 0 24 24;" xml:space="preserve">
<path style="fill:#333333;" d="M12,14.13L2.034,8.885v-1.77L12,1.87l9.966,5.245v1.77L12,14.13z M4.647,8L12,11.87L19.353,8L12,4.13
	L4.647,8z"/>
<path style="fill:#333333;" d="M12,21.728c-0.447,0-0.895-0.112-1.303-0.336c-1.551-0.851-3.149-1.364-4.216-1.646
	C5.315,19.44,4.5,18.407,4.5,17.232V10h2v7.232c0,0.262,0.206,0.505,0.489,0.579c1.177,0.31,2.942,0.878,4.67,1.826
	c0.211,0.115,0.473,0.114,0.682,0c1.729-0.948,3.493-1.516,4.669-1.825c0.284-0.075,0.49-0.318,0.49-0.58V10h2v7.232
	c0,1.175-0.815,2.208-1.981,2.515c-1.067,0.28-2.665,0.794-4.215,1.645C12.896,21.615,12.448,21.728,12,21.728z"/>
<rect x="20.5" y="8" style="fill:#333333;" width="2" height="8"/>
</svg>






