<?xml version="1.0" encoding="iso-8859-1"?>
<svg version="1.1" id="&#x56FE;&#x5C42;_1" xmlns="http://www.w3.org/2000/svg" xmlns:xlink="http://www.w3.org/1999/xlink" x="0px"
	 y="0px" viewBox="0 0 24 24" style="enable-background:new 0 0 24 24;" xml:space="preserve">
<path style="fill:#333333;" d="M12,21.5c-3.358,0-5.769-1.318-6.649-1.886C4.818,19.272,4.5,18.676,4.5,18.02V10.5h2v7.475
	C7.283,18.467,9.254,19.5,12,19.5c2.746,0,4.719-1.034,5.5-1.525V10.5h2v7.52c0,0.657-0.318,1.253-0.853,1.596
	C17.769,20.182,15.358,21.5,12,21.5z M17.566,17.933C17.565,17.933,17.565,17.933,17.566,17.933
	C17.565,17.933,17.565,17.933,17.566,17.933z"/>
<rect x="20.5" y="12" style="fill:#333333;" width="2" height="4"/>
<path style="fill:#333333;" d="M12,14.63L2.034,9.385v-1.77L12,2.37l9.966,5.245v1.77L12,14.63z M4.647,8.5L12,12.37l7.353-3.87
	L12,4.63L4.647,8.5z"/>
</svg>






