<?xml version="1.0" encoding="iso-8859-1"?>
<svg version="1.1" id="&#x56FE;&#x5C42;_1" xmlns="http://www.w3.org/2000/svg" xmlns:xlink="http://www.w3.org/1999/xlink" x="0px"
	 y="0px" viewBox="0 0 24 24" style="enable-background:new 0 0 24 24;" xml:space="preserve">
<path style="fill:#333333;" d="M9.324,21.179l-8.702-9.425l8.721-8.952L11.059,3.5v4.126c3.014,0.239,5.636,1.472,7.807,3.671
	c2.377,2.408,3.766,5.442,4.129,9.02l-1.769,0.734c-2.287-2.792-4.289-4.387-5.952-4.739c-1.461-0.31-2.876-0.402-4.215-0.281V20.5
	L9.324,21.179z M3.378,11.791l5.681,6.152v-3.642l0.838-0.138c1.83-0.299,3.779-0.235,5.792,0.191
	c1.418,0.302,2.909,1.177,4.512,2.656c-0.61-1.625-1.532-3.066-2.759-4.31c-2.048-2.076-4.466-3.096-7.391-3.119L9.059,9.576V5.959
	L3.378,11.791z"/>
</svg>






