<?xml version="1.0" encoding="iso-8859-1"?>
<svg version="1.1" id="&#x56FE;&#x5C42;_1" xmlns="http://www.w3.org/2000/svg" xmlns:xlink="http://www.w3.org/1999/xlink" x="0px"
	 y="0px" viewBox="0 0 24 24" style="enable-background:new 0 0 24 24;" xml:space="preserve">
<polygon style="fill:#333333;" points="7.5,7 5.5,7 5.5,1 10.5,1 10.5,4.778 8.5,4.778 8.5,3 7.5,3 "/>
<polygon style="fill:#333333;" points="18.5,7 16.5,7 16.5,3 15.5,3 15.5,4.778 13.5,4.778 13.5,1 18.5,1 "/>
<path style="fill:#333333;" d="M16.5,23h-9c-1.654,0-3-1.346-3-3V10c0-3.309,2.691-6,6-6h3c3.309,0,6,2.691,6,6v10
	C19.5,21.654,18.154,23,16.5,23z M10.5,6c-2.206,0-4,1.794-4,4v10c0,0.552,0.449,1,1,1h9c0.552,0,1-0.448,1-1V10
	c0-2.206-1.794-4-4-4H10.5z"/>
<polygon style="fill:#333333;" points="5.5,20.5 1.5,20.5 1.5,13.5 5.5,13.5 5.5,15.5 3.5,15.5 3.5,18.5 5.5,18.5 "/>
<polygon style="fill:#333333;" points="22.5,20.5 18.5,20.5 18.5,18.5 20.5,18.5 20.5,15.5 18.5,15.5 18.5,13.5 22.5,13.5 "/>
<rect x="13" y="11.5" style="fill:#333333;" width="2" height="2"/>
<rect x="8.5" y="10.5" style="fill:#333333;" width="7" height="2"/>
</svg>






