<?xml version="1.0" encoding="iso-8859-1"?>
<svg version="1.1" id="&#x56FE;&#x5C42;_1" xmlns="http://www.w3.org/2000/svg" xmlns:xlink="http://www.w3.org/1999/xlink" x="0px"
	 y="0px" viewBox="0 0 24 24" style="enable-background:new 0 0 24 24;" xml:space="preserve">
<path style="fill:#333333;" d="M5,15.5H3.087c-0.558,0-1.095-0.235-1.472-0.646c-0.377-0.41-0.567-0.964-0.521-1.52l0.833-10
	C2.013,2.306,2.888,1.5,3.92,1.5H5c1.103,0,2,0.897,2,2v10C7,14.603,6.103,15.5,5,15.5z M3.92,3.5L3.087,13.502L5,13.5v-10H3.92z"/>
<path style="fill:#333333;" d="M13.926,22.5c-0.106,0-0.211-0.011-0.312-0.031c-0.591-0.12-1.011-0.58-1.096-1.2
	c-0.013-0.091-0.018-0.182-0.02-0.272c-0.056-1.296-0.312-3.064-0.855-3.972c-0.368-0.613-1.254-1.283-2.431-1.836
	C8.475,14.84,8,14.104,8,13.312V3.5c0-1.103,0.897-2,2-2h8.493c0.891,0,1.682,0.599,1.925,1.455l2.685,9.51
	c0.173,0.607,0.053,1.245-0.328,1.749c-0.382,0.505-0.963,0.794-1.596,0.794h-4.085l0.055,0.181
	c0.229,0.764,0.451,1.509,0.501,2.328c0.068,1.117-0.114,2.046-0.542,2.76C16.525,21.248,15.12,22.5,13.926,22.5z M18.494,3.5
	L10,3.5v9.812c0,0.01,0.02,0.045,0.065,0.066c1.094,0.515,2.555,1.388,3.292,2.616c0.743,1.238,1.004,3.132,1.096,4.22
	c0.33-0.234,0.712-0.588,0.939-0.967c0.21-0.352,0.303-0.923,0.261-1.61c-0.036-0.588-0.217-1.192-0.408-1.833l-0.839-2.797h6.772
	L18.494,3.5z"/>
</svg>






