<?xml version="1.0" encoding="iso-8859-1"?>
<svg version="1.1" id="&#x56FE;&#x5C42;_1" xmlns="http://www.w3.org/2000/svg" xmlns:xlink="http://www.w3.org/1999/xlink" x="0px"
	 y="0px" viewBox="0 0 24 24" style="enable-background:new 0 0 24 24;" xml:space="preserve">
<path style="fill:#333333;" d="M11.652,22.5h-0.12c-0.692,0-1.33-0.376-1.665-0.979l-1.329-2.393
	c-0.504-0.908-1.254-1.651-2.167-2.149l-3.33-1.816C2.4,14.812,2,14.14,2,13.406V3.5c0-1.103,0.897-2,2-2h12.993
	c0.891,0,1.682,0.599,1.925,1.455v0.001l2.685,9.501c0.173,0.606,0.053,1.245-0.328,1.749C20.893,14.711,20.311,15,19.678,15h-5.171
	l0.122,0.526c0.253,1.096,0.333,2.219,0.239,3.339l-0.046,0.552c-0.067,0.825-0.429,1.604-1.016,2.19
	C13.231,22.183,12.466,22.5,11.652,22.5z M4,3.5v9.906l3.33,1.816c1.246,0.681,2.269,1.695,2.957,2.935l1.329,2.393l0.036-0.05
	c0.28,0,0.542-0.109,0.741-0.307c0.253-0.253,0.408-0.587,0.437-0.941l0.047-0.553c0.076-0.914,0.01-1.83-0.196-2.722l-0.25-1.082
	c-0.106-0.463,0.002-0.94,0.297-1.312S13.463,13,13.938,13h5.74l-2.684-9.5l0.962-0.272L16.993,3.5H4z"/>
</svg>






