<?xml version="1.0" encoding="iso-8859-1"?>
<svg version="1.1" id="&#x56FE;&#x5C42;_1" xmlns="http://www.w3.org/2000/svg" xmlns:xlink="http://www.w3.org/1999/xlink" x="0px"
	 y="0px" viewBox="0 0 24 24" style="enable-background:new 0 0 24 24;" xml:space="preserve">
<path style="fill:#333333;" d="M9.75,23c-1.792,0-3.25-1.458-3.25-3.25l0.028-0.237l2.5-10.25L10,8.5h2l1,1v10.25
	C13,21.542,11.542,23,9.75,23z M8.504,19.853C8.557,20.494,9.095,21,9.75,21c0.689,0,1.25-0.561,1.25-1.25V10.5h-0.214L8.504,19.853
	z"/>
<path style="fill:#333333;" d="M5.25,23c-0.129,0-0.251-0.007-0.374-0.021c-0.953-0.111-1.78-0.661-2.272-1.508
	c-0.514-0.886-0.583-1.975-0.184-2.912l4.683-9.501L8,8.5h2v2H8.622l-4.385,8.893c-0.13,0.31-0.103,0.73,0.097,1.074
	c0.101,0.174,0.336,0.475,0.772,0.525C5.152,20.997,5.2,21,5.25,21c0.689,0,1.25-0.561,1.25-1.25h2C8.5,21.542,7.042,23,5.25,23z"/>
<path style="fill:#333333;" d="M14.25,23C12.458,23,11,21.542,11,19.75V9.5l1-1h2l0.972,0.763L17.5,19.75
	C17.5,21.542,16.042,23,14.25,23z M13,10.5v9.25c0,0.689,0.561,1.25,1.25,1.25c0.654,0,1.193-0.506,1.246-1.147L13.215,10.5H13z"/>
<path style="fill:#333333;" d="M18.75,23c-1.792,0-3.25-1.458-3.25-3.25h2c0,0.689,0.561,1.25,1.25,1.25
	c0.051,0,0.098-0.003,0.146-0.008c0.435-0.051,0.669-0.352,0.771-0.525c0.2-0.344,0.228-0.765,0.074-1.125L15.378,10.5H14v-2h2
	l0.896,0.558l4.66,9.45c0.423,0.989,0.354,2.077-0.161,2.963c-0.491,0.847-1.319,1.396-2.27,1.508C19.002,22.993,18.879,23,18.75,23
	z"/>
<path style="fill:#333333;" d="M15.97,7.5H8.03L7.037,6.621C7.012,6.416,7,6.211,7,6c0-2.757,2.243-5,5-5s5,2.243,5,5
	c0,0.212-0.013,0.417-0.038,0.624L15.97,7.5z M9.042,5.5h5.917C14.72,4.083,13.483,3,12,3C10.516,3,9.28,4.083,9.042,5.5z"/>
</svg>






