<?xml version="1.0" encoding="iso-8859-1"?>
<svg version="1.1" id="&#x56FE;&#x5C42;_1" xmlns="http://www.w3.org/2000/svg" xmlns:xlink="http://www.w3.org/1999/xlink" x="0px"
	 y="0px" viewBox="0 0 24 24" style="enable-background:new 0 0 24 24;" xml:space="preserve">
<path style="fill:#333333;" d="M13.5,21H5c-1.103,0-2-0.897-2-2V7c0-1.103,0.897-2,2-2h12c1.103,0,2,0.897,2,2v6h-2V7H5v12h8.5V21z"
	/>
<rect x="7" y="6" style="fill:#333333;" width="2" height="14"/>
<rect x="13" y="6" style="fill:#333333;" width="2" height="8.5"/>
<path style="fill:#333333;" d="M15,6h-2V3H9v3H7V3c0-1.103,0.897-2,2-2h4c1.103,0,2,0.897,2,2V6z"/>
<path style="fill:#333333;" d="M17.5,23c-3.032,0-5.5-2.468-5.5-5.5s2.468-5.5,5.5-5.5s5.5,2.468,5.5,5.5S20.532,23,17.5,23z
	 M17.5,14c-1.93,0-3.5,1.57-3.5,3.5s1.57,3.5,3.5,3.5s3.5-1.57,3.5-3.5S19.43,14,17.5,14z"/>
<polygon style="fill:#333333;" points="19,19 16,19 16,16 18,16 18,17 19,17 "/>
<rect x="5.5" y="20" style="fill:#333333;" width="2" height="2"/>
</svg>






