<?xml version="1.0" encoding="iso-8859-1"?>
<svg version="1.1" id="&#x56FE;&#x5C42;_1" xmlns="http://www.w3.org/2000/svg" xmlns:xlink="http://www.w3.org/1999/xlink" x="0px"
	 y="0px" viewBox="0 0 24 24" style="enable-background:new 0 0 24 24;" xml:space="preserve">
<path style="fill:#333333;" d="M6.841,13.44l-1.337-0.85l-0.5-5.5l0.602-1.009c3.765-1.614,9.024-1.614,12.788,0l0.603,1.009
	l-0.5,5.5l-1.337,0.85C13.834,12.233,10.168,12.231,6.841,13.44z M7.064,7.659l0.319,3.509c3.017-0.843,6.218-0.843,9.234,0
	l0.318-3.509C13.963,6.614,10.037,6.614,7.064,7.659z"/>
<rect x="10.25" y="8.792" transform="matrix(0.8575 -0.5145 0.5145 0.8575 -3.6704 7.2488)" style="fill:#333333;" width="2" height="2.915"/>
<path style="fill:#333333;" d="M19.5,22h-15C3.122,22,2,20.879,2,19.5v-15C2,3.122,3.122,2,4.5,2h15C20.879,2,22,3.122,22,4.5v15
	C22,20.879,20.879,22,19.5,22z M4.5,4C4.224,4,4,4.224,4,4.5v15C4,19.775,4.224,20,4.5,20h15c0.275,0,0.5-0.225,0.5-0.5v-15
	C20,4.224,19.775,4,19.5,4H4.5z"/>
<path style="fill:#333333;" d="M9.655,12.716L9.345,10.74c1.763-0.278,3.55-0.277,5.311,0l-0.311,1.976
	C12.79,12.47,11.212,12.47,9.655,12.716z"/>
</svg>






