<?xml version="1.0" encoding="iso-8859-1"?>
<svg version="1.1" id="&#x56FE;&#x5C42;_1" xmlns="http://www.w3.org/2000/svg" xmlns:xlink="http://www.w3.org/1999/xlink" x="0px"
	 y="0px" viewBox="0 0 24 24" style="enable-background:new 0 0 24 24;" xml:space="preserve">
<g>
	<defs>
		<rect id="SVGID_1_" width="24" height="24"/>
	</defs>
	<clipPath id="SVGID_00000005970841609588997970000005290305128266286247_">
		<use xlink:href="#SVGID_1_"  style="overflow:visible;"/>
	</clipPath>
	<g style="clip-path:url(#SVGID_00000005970841609588997970000005290305128266286247_);">
		<path style="fill:#333333;" d="M7.683,16.948c-1.697-0.565-3.45-1.85-4.264-3.122c-0.209-0.327-0.305-0.717-0.277-1.127
			l0.122-1.874c0.036-0.545,0.367-1.03,0.865-1.267c0.504-0.24,1.096-0.188,1.548,0.133C7.27,10.824,8.699,11.5,9.5,11.5
			c3.37,0,5.899-1.235,7.123-3.479l1.756,0.958C16.788,11.895,13.635,13.5,9.5,13.5c-1.34,0-2.976-0.847-4.294-1.709l-0.068,1.041
			c0.528,0.795,1.939,1.807,3.178,2.221L7.683,16.948z"/>
		<path style="fill:#333333;" d="M10.299,22.772c-4.371,0-7.782-2.037-8.728-4.401l-0.058-0.21L0.948,14.7l1.484-1.028
			c2.202,1.261,4.837,1.739,7.415,1.34C14.928,14.23,17,10.895,17,3.5V2.319l5,0.833v4.738l0.41,1.865
			c0.546,2.431,0.018,5.049-1.49,7.368c-1.782,2.743-4.67,4.746-7.724,5.356l0,0C12.197,22.681,11.226,22.772,10.299,22.772z
			 M3.467,17.722c0.917,2.044,4.921,3.68,9.336,2.798l0,0c2.499-0.5,4.967-2.219,6.439-4.485c1.211-1.864,1.643-3.939,1.215-5.844
			L20,8V4.847l-1.017-0.169c-0.154,5.356-1.529,11.188-8.832,12.311c-2.354,0.362-4.753,0.103-6.923-0.731L3.467,17.722z"/>
	</g>
</g>
</svg>






