<?xml version="1.0" encoding="iso-8859-1"?>
<svg version="1.1" id="&#x56FE;&#x5C42;_1" xmlns="http://www.w3.org/2000/svg" xmlns:xlink="http://www.w3.org/1999/xlink" x="0px"
	 y="0px" viewBox="0 0 24 24" style="enable-background:new 0 0 24 24;" xml:space="preserve">
<path style="fill:#333333;" d="M21,15.5h-1v-2h1v-9H8v2H6v-2c0-1.103,0.897-2,2-2h13c1.103,0,2,0.897,2,2v9
	C23,14.603,22.103,15.5,21,15.5z"/>
<path style="fill:#333333;" d="M16,21.5H3c-1.103,0-2-0.897-2-2v-9c0-1.103,0.897-2,2-2h13c1.103,0,2,0.897,2,2v9
	C18,20.603,17.103,21.5,16,21.5z M3,10.5H2.999L3,19.5h13v-9H3z"/>
<rect x="2" y="13" style="fill:#333333;" width="15" height="2"/>
<rect x="16" y="11.5" style="fill:#333333;" width="2" height="6"/>
<rect x="1" y="11.5" style="fill:#333333;" width="2" height="6"/>
<rect x="5.5" y="16" style="fill:#333333;" width="4" height="2"/>
<rect x="12.5" y="16" style="fill:#333333;" width="1" height="2"/>
</svg>






