<?xml version="1.0" encoding="iso-8859-1"?>
<svg version="1.1" id="&#x56FE;&#x5C42;_1" xmlns="http://www.w3.org/2000/svg" xmlns:xlink="http://www.w3.org/1999/xlink" x="0px"
	 y="0px" viewBox="0 0 24 24" style="enable-background:new 0 0 24 24;" xml:space="preserve">
<polygon style="fill:#333333;" points="20,23 4,23 4,8.5 6,8.5 6,21 18,21 18,8.5 20,8.5 "/>
<polygon style="fill:#333333;" points="20.793,11.707 18.293,9.207 12,3.365 5.681,9.233 3.207,11.707 1.793,10.293 4.293,7.793 
	12,0.635 19.681,7.767 22.207,10.293 "/>
<polygon style="fill:#333333;" points="12,14.062 8.732,10.14 10.268,8.86 12,10.938 13.731,8.86 15.269,10.14 "/>
<rect x="9" y="14.5" style="fill:#333333;" width="6" height="2"/>
<rect x="9" y="11.5" style="fill:#333333;" width="6" height="2"/>
<rect x="11" y="12.5" style="fill:#333333;" width="2" height="6"/>
</svg>






