<?xml version="1.0" encoding="iso-8859-1"?>
<svg version="1.1" id="&#x56FE;&#x5C42;_1" xmlns="http://www.w3.org/2000/svg" xmlns:xlink="http://www.w3.org/1999/xlink" x="0px"
	 y="0px" viewBox="0 0 24 24" style="enable-background:new 0 0 24 24;" xml:space="preserve">
<path style="fill:#333333;" d="M22,13h-7l-1-1c0-1.103-0.897-2-2-2c-1.103,0-2,0.897-2,2l-1,1H2l-1-1C1,5.935,5.935,1,12,1
	s11,4.935,11,11L22,13z M15.873,11h5.071C20.445,6.506,16.625,3,12,3c-4.625,0-8.446,3.506-8.945,8h5.071C8.572,9.277,10.14,8,12,8
	S15.429,9.277,15.873,11z"/>
<path style="fill:#333333;" d="M12,23C5.935,23,1,18.065,1,12l1-1h7v2H3.055c0.499,4.494,4.32,8,8.945,8
	c4.625,0,8.445-3.506,8.944-8H15v-2h7l1,1C23,18.065,18.065,23,12,23z"/>
<path style="fill:#333333;" d="M12,16c-2.206,0-4-1.794-4-4c0-2.206,1.794-4,4-4c2.206,0,4,1.794,4,4C16,14.206,14.206,16,12,16z
	 M12,10c-1.103,0-2,0.897-2,2c0,1.103,0.897,2,2,2c1.103,0,2-0.897,2-2C14,10.897,13.103,10,12,10z"/>
</svg>






