<?xml version="1.0" encoding="iso-8859-1"?>
<svg version="1.1" id="&#x56FE;&#x5C42;_1" xmlns="http://www.w3.org/2000/svg" xmlns:xlink="http://www.w3.org/1999/xlink" x="0px"
	 y="0px" viewBox="0 0 24 24" style="enable-background:new 0 0 24 24;" xml:space="preserve">
<path style="fill:#333333;" d="M12,23c-4.351,0-5.5-3.271-5.5-5v-5.68L4,8.82V3h16v5.82l-2.5,3.5V18C17.5,19.729,16.351,23,12,23z
	 M6,8.18l2.5,3.5V18c0.007,0.495,0.21,3,3.5,3c3.289,0,3.493-2.505,3.5-3.007V11.68l2.5-3.5V5H6V8.18z"/>
<rect x="6.5" y="2" style="fill:#333333;" width="2" height="3"/>
<rect x="9.5" y="2" style="fill:#333333;" width="2" height="3"/>
<rect x="12.5" y="2" style="fill:#333333;" width="2" height="3"/>
<path style="fill:#333333;" d="M12,20c-1.378,0-2.5-1.121-2.5-2.5v-2c0-1.379,1.122-2.5,2.5-2.5c1.379,0,2.5,1.121,2.5,2.5v2
	C14.5,18.879,13.379,20,12,20z M12,15c-0.276,0-0.5,0.225-0.5,0.5v2c0,0.275,0.224,0.5,0.5,0.5c0.275,0,0.5-0.225,0.5-0.5v-2
	C12.5,15.225,12.275,15,12,15z"/>
<rect x="5" y="7.5" style="fill:#333333;" width="14" height="2"/>
<rect x="15.5" y="2" style="fill:#333333;" width="2" height="3"/>
</svg>






