<?xml version="1.0" encoding="iso-8859-1"?>
<svg version="1.1" id="&#x56FE;&#x5C42;_1" xmlns="http://www.w3.org/2000/svg" xmlns:xlink="http://www.w3.org/1999/xlink" x="0px"
	 y="0px" viewBox="0 0 24 24" style="enable-background:new 0 0 24 24;" xml:space="preserve">
<path style="fill:#333333;" d="M8,7C6.346,7,5,5.654,5,4s1.346-3,3-3s3,1.346,3,3S9.654,7,8,7z M8,3C7.449,3,7,3.449,7,4
	s0.449,1,1,1s1-0.449,1-1S8.551,3,8,3z"/>
<path style="fill:#333333;" d="M8,16c-1.654,0-3-1.346-3-3s1.346-3,3-3s3,1.346,3,3S9.654,16,8,16z M8,12c-0.551,0-1,0.448-1,1
	s0.449,1,1,1s1-0.448,1-1S8.551,12,8,12z"/>
<rect x="7" y="15.5" style="fill:#333333;" width="2" height="6.5"/>
<path style="fill:#333333;" d="M16,7c-1.654,0-3-1.346-3-3s1.346-3,3-3s3,1.346,3,3S17.654,7,16,7z M16,3c-0.552,0-1,0.449-1,1
	s0.448,1,1,1s1-0.449,1-1S16.552,3,16,3z"/>
<path style="fill:#333333;" d="M16,16c-1.654,0-3-1.346-3-3s1.346-3,3-3s3,1.346,3,3S17.654,16,16,16z M16,12c-0.552,0-1,0.448-1,1
	s0.448,1,1,1s1-0.448,1-1S16.552,12,16,12z"/>
<rect x="15" y="15.5" style="fill:#333333;" width="2" height="6.5"/>
<rect x="6.5" y="7.5" style="fill:#333333;" width="3" height="2"/>
<rect x="14.5" y="7.5" style="fill:#333333;" width="3" height="2"/>
<rect x="6.5" y="17" style="fill:#333333;" width="3" height="2"/>
<rect x="14.5" y="17" style="fill:#333333;" width="3" height="2"/>
<rect x="7" y="7" style="fill:#333333;" width="2" height="3"/>
<rect x="15" y="7" style="fill:#333333;" width="2" height="3"/>
</svg>






