<?xml version="1.0" encoding="iso-8859-1"?>
<svg version="1.1" id="&#x56FE;&#x5C42;_1" xmlns="http://www.w3.org/2000/svg" xmlns:xlink="http://www.w3.org/1999/xlink" x="0px"
	 y="0px" viewBox="0 0 24 24" style="enable-background:new 0 0 24 24;" xml:space="preserve">
<path style="fill:#333333;" d="M14.898,23H8.102l-0.705-1.71c0.747-0.743,1.74-2.119,1.66-2.771
	c-0.007-0.059-0.017-0.139-0.194-0.244c-1.035-0.49-1.782-1.299-2.138-2.359c-0.69-2.057,0.44-4.282,0.489-4.375L7.493,11h8.014
	l0.28,0.541c0.048,0.094,1.179,2.319,0.488,4.375c-0.356,1.061-1.103,1.869-2.22,2.403c-0.08,0.036-0.106,0.058-0.111,0.063
	c-0.141,0.339,0.609,1.766,1.689,2.939L14.898,23z M10.196,21h2.668c-0.585-0.922-1.078-2.041-0.879-3.012
	c0.136-0.662,0.572-1.189,1.229-1.483c0.594-0.285,0.981-0.687,1.162-1.219c0.255-0.75,0.063-1.67-0.146-2.286H8.77
	c-0.209,0.614-0.401,1.536-0.146,2.286c0.181,0.532,0.568,0.934,1.184,1.229c0.748,0.442,1.146,1.037,1.235,1.764
	C11.155,19.202,10.718,20.188,10.196,21z"/>
<path style="fill:#333333;" d="M15.618,13H7.382l-4-8l0.224-0.447C3.678,4.408,5.452,1,11.5,1c6.049,0,7.822,3.408,7.895,3.553
	L19.618,5L15.618,13z M8.618,11h5.764l2.96-5.919C16.758,4.389,15.134,3,11.5,3S6.242,4.389,5.659,5.081L8.618,11z"/>
<rect x="9.959" y="8" transform="matrix(0.1643 -0.9864 0.9864 0.1643 1.9863 20.3443)" style="fill:#333333;" width="6.083" height="2"/>
<rect x="9" y="5.959" transform="matrix(0.9864 -0.1644 0.1644 0.9864 -1.3436 1.7666)" style="fill:#333333;" width="2" height="6.083"/>
</svg>






