<?xml version="1.0" encoding="iso-8859-1"?>
<svg version="1.1" id="&#x56FE;&#x5C42;_1" xmlns="http://www.w3.org/2000/svg" xmlns:xlink="http://www.w3.org/1999/xlink" x="0px"
	 y="0px" viewBox="0 0 24 24" style="enable-background:new 0 0 24 24;" xml:space="preserve">
<path style="fill:#333333;" d="M23,19H5v-4c0-4.962,4.038-9,9-9c4.963,0,9,4.038,9,9V19z M7,17h14v-2c0-3.86-3.141-7-7-7
	c-3.86,0-7,3.14-7,7V17z"/>
<path style="fill:#333333;" d="M10.039,18.274c-0.478-1.672-0.543-8.247,1.489-10.94C12.359,6.231,13.331,6,14,6
	c0.857,0,1.633,0.366,2.244,1.058c2.255,2.554,1.945,9.487,1.748,11.066l-1.984-0.248c0.251-2.011,0.244-7.787-1.263-9.494
	C14.446,8.043,14.189,8,14,8c-0.202,0-0.512,0.056-0.876,0.538c-1.511,2.003-1.551,7.828-1.163,9.188L10.039,18.274z"/>
<path style="fill:#333333;" d="M15.5,22h-12C2.122,22,1,20.879,1,19.5S2.122,17,3.5,17h12c1.379,0,2.5,1.121,2.5,2.5
	S16.879,22,15.5,22z M3.5,19C3.224,19,3,19.225,3,19.5S3.224,20,3.5,20h12c0.275,0,0.5-0.225,0.5-0.5S15.775,19,15.5,19H3.5z"/>
<path style="fill:#333333;" d="M14,8c-1.654,0-3-1.346-3-3s1.346-3,3-3s3,1.346,3,3S15.654,8,14,8z M14,4c-0.552,0-1,0.449-1,1
	s0.448,1,1,1s1-0.449,1-1S14.552,4,14,4z"/>
</svg>






