<?xml version="1.0" encoding="iso-8859-1"?>
<svg version="1.1" id="&#x56FE;&#x5C42;_1" xmlns="http://www.w3.org/2000/svg" xmlns:xlink="http://www.w3.org/1999/xlink" x="0px"
	 y="0px" viewBox="0 0 24 24" style="enable-background:new 0 0 24 24;" xml:space="preserve">
<path style="fill:#333333;" d="M12,23C5.935,23,1,18.065,1,12S5.935,1,12,1s11,4.935,11,11S18.065,23,12,23z M12,3
	c-4.962,0-9,4.038-9,9c0,4.963,4.038,9,9,9c4.963,0,9-4.037,9-9C21,7.038,16.963,3,12,3z"/>
<path style="fill:#333333;" d="M4.924,19.123l-1.302-1.52C5.528,15.971,6.455,14.138,6.455,12c0-2.137-0.926-3.971-2.833-5.604
	l1.302-1.519C7.267,6.886,8.455,9.282,8.455,12C8.455,14.719,7.267,17.115,4.924,19.123z"/>
<path style="fill:#333333;" d="M19.077,19.123c-2.344-2.009-3.532-4.405-3.532-7.123c0-2.717,1.188-5.114,3.532-7.123l1.301,1.519
	C18.472,8.03,17.545,9.863,17.545,12c0,2.138,0.927,3.971,2.833,5.604L19.077,19.123z"/>
</svg>






