<?xml version="1.0" encoding="iso-8859-1"?>
<svg version="1.1" id="&#x56FE;&#x5C42;_1" xmlns="http://www.w3.org/2000/svg" xmlns:xlink="http://www.w3.org/1999/xlink" x="0px"
	 y="0px" viewBox="0 0 24 24" style="enable-background:new 0 0 24 24;" xml:space="preserve">
<path style="fill:#333333;" d="M20,22.5c-1.379,0-2.5-1.121-2.5-2.5s1.121-2.5,2.5-2.5s2.5,1.121,2.5,2.5S21.379,22.5,20,22.5z
	 M20,19.5c-0.275,0-0.5,0.225-0.5,0.5s0.225,0.5,0.5,0.5s0.5-0.225,0.5-0.5S20.275,19.5,20,19.5z"/>
<path style="fill:#333333;" d="M18.166,19.562C10.24,13.865,4.157,9.084,4.097,9.037C3.834,8.806,1.928,7.057,1.869,5.063
	C1.843,4.208,2.163,3.423,2.793,2.793c0.629-0.63,1.426-0.952,2.27-0.924c1.994,0.059,3.743,1.965,3.936,2.182l0.035,0.042
	c0.05,0.063,5.079,6.395,10.532,14.078L18.166,19.562z M4.967,3.868c-0.291,0-0.526,0.105-0.76,0.339
	C3.964,4.45,3.859,4.695,3.868,5.001c0.026,0.96,1.129,2.159,1.513,2.503c0.01,0.006,3.6,2.826,8.851,6.711
	c-3.642-4.934-6.483-8.524-6.744-8.854c-0.366-0.4-1.542-1.468-2.487-1.494C4.99,3.868,4.979,3.868,4.967,3.868z"/>
</svg>






