<?xml version="1.0" encoding="iso-8859-1"?>
<svg version="1.1" id="&#x56FE;&#x5C42;_1" xmlns="http://www.w3.org/2000/svg" xmlns:xlink="http://www.w3.org/1999/xlink" x="0px"
	 y="0px" viewBox="0 0 24 24" style="enable-background:new 0 0 24 24;" xml:space="preserve">
<path style="fill:#333333;" d="M20,23H4c-1.103,0-2-0.897-2-2v-9.52c0-0.589,0.259-1.152,0.711-1.544
	c1.234-1.069,2.131-2.124,2.34-2.752c0.222-0.666,0.379-2.201,0.433-4.211C5.514,1.884,6.418,1,7.5,1H10v1c0,1.103,0.897,2,2,2
	c1.103,0,2-0.897,2-2V1h2.5c1.082,0,1.986,0.885,2.016,1.973c0.053,2.011,0.211,3.546,0.433,4.211
	c0.21,0.627,1.106,1.682,2.34,2.752C21.74,10.329,22,10.892,22,11.48V21C22,22.103,21.103,23,20,23z M7.5,3
	C7.441,4.604,7.315,6.718,6.949,7.816c-0.424,1.272-1.826,2.677-2.927,3.631L4,21h16v-9.52c-1.124-0.989-2.525-2.395-2.948-3.664
	c-0.367-1.098-0.494-3.211-0.536-4.791L15.87,3.015C15.419,4.73,13.855,6,12,6c-1.86,0-3.428-1.277-3.874-3H7.5z"/>
<path style="fill:#333333;" d="M17.5,19h-5v-8h5V19z M14.5,17h1v-4h-1V17z"/>
<polygon style="fill:#333333;" points="11.5,19 7.5,19 7.5,17 9.5,17 9.5,13 7.5,13 7.5,11 11.5,11 "/>
<rect x="7.5" y="14" style="fill:#333333;" width="3" height="2"/>
</svg>






