<?xml version="1.0" encoding="iso-8859-1"?>
<svg version="1.1" id="&#x56FE;&#x5C42;_1" xmlns="http://www.w3.org/2000/svg" xmlns:xlink="http://www.w3.org/1999/xlink" x="0px"
	 y="0px" viewBox="0 0 24 24" style="enable-background:new 0 0 24 24;" xml:space="preserve">
<path style="fill:none;" d="M9,12c0-3.312,2.688-6,6-6s6,2.688,6,6"/>
<path style="fill:#333333;" d="M22,12h-2c0-2.757-2.243-5-5-5s-5,2.243-5,5H8c0-3.86,3.14-7,7-7C18.859,5,22,8.14,22,12z"/>
<path style="fill:#333333;" d="M6,19H2l-1-1V2l1-1h4l1,1v16L6,19z M3,17h2V3H3V17z"/>
<rect x="6" y="11" style="fill:#333333;" width="16" height="2"/>
<path style="fill:#333333;" d="M10.937,22.35L9.063,21.65c0.89-2.388,0.893-4.818,0.008-7.029l-0.985-2.215l1.827-0.812l1,2.25
	C12,16.559,12.004,19.487,10.937,22.35z"/>
<path style="fill:#333333;" d="M18.563,22.351c-1.069-2.855-1.066-5.785,0.008-8.472l1.015-2.285l1.828,0.812l-1,2.25
	c-0.872,2.182-0.869,4.612,0.022,6.993L18.563,22.351z"/>
<rect x="10.61" y="15" style="fill:#333333;" width="8.28" height="2"/>
<rect x="10.845" y="19" style="fill:#333333;" width="7.815" height="2"/>
<rect x="13.75" y="12" style="fill:#333333;" width="2" height="8"/>
</svg>






