<?xml version="1.0" encoding="iso-8859-1"?>
<svg version="1.1" id="&#x56FE;&#x5C42;_1" xmlns="http://www.w3.org/2000/svg" xmlns:xlink="http://www.w3.org/1999/xlink" x="0px"
	 y="0px" viewBox="0 0 24 24" style="enable-background:new 0 0 24 24;" xml:space="preserve">
<path style="fill:#333333;" d="M16,23H8c-1.103,0-2-0.897-2-2V5c0-1.103,0.897-2,2-2h8c1.103,0,2,0.897,2,2v16
	C18,22.103,17.103,23,16,23z M8,5v16.001L16,21V5H8z"/>
<path style="fill:#333333;" d="M10,3V2c0-0.552,0.448-1,1-1h2c0.552,0,1,0.448,1,1v1H10z"/>
<rect x="11" y="9" style="fill:#333333;" width="2" height="5"/>
<circle style="fill:#333333;" cx="12" cy="17" r="1"/>
</svg>






