<?xml version="1.0" encoding="iso-8859-1"?>
<svg version="1.1" id="&#x56FE;&#x5C42;_1" xmlns="http://www.w3.org/2000/svg" xmlns:xlink="http://www.w3.org/1999/xlink" x="0px"
	 y="0px" viewBox="0 0 24 24" style="enable-background:new 0 0 24 24;" xml:space="preserve">
<path style="fill:#333333;" d="M6.5,18H3c-1.103,0-2-0.897-2-2V8c0-1.103,0.897-2,2-2h3.5v2H3v8h3.5V18z"/>
<path style="fill:#333333;" d="M19,18h-3.5v-2H19V8h-3.5V6H19c1.103,0,2,0.897,2,2v8C21,17.103,20.103,18,19,18z"/>
<polygon style="fill:#333333;" points="11.894,17.447 10.106,16.553 11.883,13.001 6.882,13.001 10.106,6.553 11.896,7.447 
	10.118,11.001 15.121,11.001 "/>
<path style="fill:#333333;" d="M21,10h1c0.552,0,1,0.448,1,1v2c0,0.552-0.448,1-1,1h-1V10z"/>
</svg>






