<?xml version="1.0" encoding="iso-8859-1"?>
<svg version="1.1" id="&#x56FE;&#x5C42;_1" xmlns="http://www.w3.org/2000/svg" xmlns:xlink="http://www.w3.org/1999/xlink" x="0px"
	 y="0px" viewBox="0 0 24 24" style="enable-background:new 0 0 24 24;" xml:space="preserve">
<path style="fill:#333333;" d="M19,18H3c-1.103,0-2-0.897-2-2V8c0-1.103,0.897-2,2-2h16c1.103,0,2,0.897,2,2v8
	C21,17.103,20.103,18,19,18z M3,8H2.999L3,16h16V8H3z"/>
<path style="fill:#333333;" d="M21,10h1c0.552,0,1,0.448,1,1v2c0,0.552-0.448,1-1,1h-1V10z"/>
<rect x="5.5" y="10.5" style="fill:#333333;" width="2" height="3"/>
<rect x="8.5" y="10.5" style="fill:#333333;" width="2" height="3"/>
<rect x="11.5" y="10.5" style="fill:#333333;" width="2" height="3"/>
<rect x="14.5" y="12" style="fill:#333333;" width="2" height="1.5"/>
</svg>






