<?xml version="1.0" encoding="iso-8859-1"?>
<svg version="1.1" id="&#x56FE;&#x5C42;_1" xmlns="http://www.w3.org/2000/svg" xmlns:xlink="http://www.w3.org/1999/xlink" x="0px"
	 y="0px" viewBox="0 0 24 24" style="enable-background:new 0 0 24 24;" xml:space="preserve">
<path style="fill:#333333;" d="M16,23H8c-1.103,0-2-0.897-2-2V5c0-1.103,0.897-2,2-2h8c1.103,0,2,0.897,2,2v16
	C18,22.103,17.103,23,16,23z M8,5v16.001L16,21V5H8z"/>
<path style="fill:#333333;" d="M10,3V2c0-0.552,0.448-1,1-1h2c0.552,0,1,0.448,1,1v1H10z"/>
<path style="fill:#333333;" d="M13,15h-2v-2.5h1c0.542,0,1-0.572,1-1.25c0-0.689-0.448-1.25-1-1.25c-0.551,0-1,0.561-1,1.25H9
	C9,9.458,10.346,8,12,8s3,1.458,3,3.25c0,1.412-0.836,2.617-2,3.064V15z"/>
<g>
	<path style="fill:#333333;" d="M13,17.75c0,0.552-0.448,1-1,1s-1-0.448-1-1s0.448-1,1-1S13,17.198,13,17.75z"/>
	<path style="fill:#333333;" d="M12,19c-0.689,0-1.25-0.561-1.25-1.25S11.311,16.5,12,16.5s1.25,0.561,1.25,1.25S12.689,19,12,19z
		 M12,17c-0.414,0-0.75,0.337-0.75,0.75S11.586,18.5,12,18.5c0.413,0,0.75-0.337,0.75-0.75S12.413,17,12,17z"/>
</g>
</svg>






