<?xml version="1.0" encoding="iso-8859-1"?>
<svg version="1.1" id="&#x56FE;&#x5C42;_1" xmlns="http://www.w3.org/2000/svg" xmlns:xlink="http://www.w3.org/1999/xlink" x="0px"
	 y="0px" viewBox="0 0 24 24" style="enable-background:new 0 0 24 24;" xml:space="preserve">
<path style="fill:#333333;" d="M22.366,15.812l-21.25-5.694l0.259-0.966c1.208-4.51,5.146-7.775,9.8-8.125
	c1.231-0.093,2.468,0.024,3.672,0.347c1.046,0.28,2.04,0.709,2.953,1.275c4.087,2.534,6.07,7.549,4.825,12.197L22.366,15.812z
	 M7.429,9.74l13.468,3.608c0.524-3.509-1.094-7.104-4.151-8.999C16,3.887,15.187,3.537,14.329,3.307
	c-0.985-0.264-1.999-0.36-3.004-0.284C7.854,3.284,4.868,5.528,3.619,8.719L7.429,9.74z"/>
<path style="fill:#333333;" d="M9.123,11.128l-1.973-0.325c0.018-0.111,0.465-2.748,2.205-5.073c1.7-2.272,4.568-4.149,4.689-4.228
	l1.09,1.677c-0.026,0.017-2.693,1.766-4.177,3.749C9.519,8.85,9.126,11.106,9.123,11.128z"/>
<path style="fill:#333333;" d="M16.8,13.389l-1.871-0.707c0.007-0.02,0.796-2.169,0.512-4.552c-0.294-2.459-1.729-5.308-1.743-5.336
	l1.783-0.907c0.065,0.129,1.609,3.188,1.946,6.006C17.77,10.776,16.84,13.283,16.8,13.389z"/>
<rect x="11" y="2" transform="matrix(0.2588 -0.9659 0.9659 0.2588 -2.6967 20.4851)" style="fill:#333333;" width="2" height="20"/>
<rect x="2" y="21" style="fill:#333333;" width="20" height="2"/>
<rect x="5.439" y="16" transform="matrix(0.2656 -0.9641 0.9641 0.2656 -8.5863 22.7291)" style="fill:#333333;" width="10.371" height="2"/>
<path style="fill:#333333;" d="M16.745,4.35C16,3.887,15.187,3.537,14.329,3.307c-0.985-0.264-1.999-0.36-3.004-0.284l-0.149-1.994
	c1.231-0.093,2.467,0.024,3.671,0.347c1.047,0.28,2.041,0.709,2.953,1.275L16.745,4.35z"/>
</svg>






