<?xml version="1.0" encoding="iso-8859-1"?>
<svg version="1.1" id="&#x56FE;&#x5C42;_1" xmlns="http://www.w3.org/2000/svg" xmlns:xlink="http://www.w3.org/1999/xlink" x="0px"
	 y="0px" viewBox="0 0 24 24" style="enable-background:new 0 0 24 24;" xml:space="preserve">
<path style="fill:#333333;" d="M12,22.5c-5.42,0-10-4.351-10-9.5c0-1.231,0.376-2.358,0.791-3.285C1.943,8.779,1.5,7.691,1.5,6.53
	c0-2.774,2.243-5.03,5-5.03c1.701,0,3.201,0.898,4.071,2.392c0.927-0.117,1.931-0.117,2.859,0C14.3,2.398,15.8,1.5,17.5,1.5
	c2.757,0,5,2.243,5,5c0,1.159-0.454,2.276-1.292,3.212C21.623,10.64,22,11.767,22,13C22,18.149,17.421,22.5,12,22.5z M6.5,3.5
	c-1.626,0-3,1.388-3,3.03c0,0.806,0.389,1.55,1.154,2.214l0.588,0.509L4.894,9.948C4.452,10.831,4,11.883,4,13
	c0,4.065,3.664,7.5,8,7.5c4.337,0,8-3.435,8-7.5c0-1.118-0.452-2.17-0.894-3.052l-0.349-0.695l0.588-0.509
	C19.872,8.288,20.5,7.529,20.5,6.5c0-1.654-1.346-3-3-3c-1.145,0-2.105,0.699-2.57,1.869l-0.311,0.782l-0.824-0.172
	c-1.098-0.23-2.492-0.23-3.59,0L9.381,6.151l-0.31-0.782C8.606,4.199,7.645,3.5,6.5,3.5z"/>
<circle style="fill:#333333;" cx="10" cy="9.5" r="1"/>
<circle style="fill:#333333;" cx="14" cy="9.5" r="1"/>
<circle style="fill:#333333;" cx="12" cy="13" r="1.5"/>
<rect x="11" y="13" style="fill:#333333;" width="2" height="4"/>
<path style="fill:#333333;" d="M12,18.346c-0.974,0-1.948-0.38-2.707-1.139l1.414-1.414c0.749,0.748,1.836,0.748,2.586,0
	l1.414,1.414C13.948,17.966,12.975,18.346,12,18.346z"/>
</svg>






