<?xml version="1.0" encoding="iso-8859-1"?>
<svg version="1.1" id="&#x56FE;&#x5C42;_1" xmlns="http://www.w3.org/2000/svg" xmlns:xlink="http://www.w3.org/1999/xlink" x="0px"
	 y="0px" viewBox="0 0 24 24" style="enable-background:new 0 0 24 24;" xml:space="preserve">
<path style="fill:#333333;" d="M22,22h-2V11c0-4.411-3.589-8-8-8s-8,3.589-8,8v11H2V11C2,5.486,6.486,1,12,1c5.514,0,10,4.486,10,10
	V22z"/>
<path style="fill:#333333;" d="M12,22.5c-3.364,0-6-4.832-6-11v-1h12v1C18,17.668,15.364,22.5,12,22.5z M8.025,12.5
	c0.244,4.763,2.204,8,3.975,8s3.73-3.237,3.975-8H8.025z"/>
</svg>






