<?xml version="1.0" encoding="iso-8859-1"?>
<svg version="1.1" id="&#x56FE;&#x5C42;_1" xmlns="http://www.w3.org/2000/svg" xmlns:xlink="http://www.w3.org/1999/xlink" x="0px"
	 y="0px" viewBox="0 0 24 24" style="enable-background:new 0 0 24 24;" xml:space="preserve">
<rect x="8.5" y="16" style="fill:#333333;" width="7" height="2"/>
<rect x="8" y="12.5" style="fill:#333333;" width="8" height="2"/>
<path style="fill:#333333;" d="M17.5,11h-11c-1.654,0-3-1.346-3-3V4c0-1.654,1.346-3,3-3h11c1.654,0,3,1.346,3,3v4
	C20.5,9.654,19.154,11,17.5,11z M6.5,3c-0.551,0-1,0.449-1,1v4c0,0.551,0.449,1,1,1h11c0.552,0,1-0.449,1-1V4c0-0.551-0.448-1-1-1
	H6.5z"/>
<polygon style="fill:#333333;" points="15.313,23 8.687,23 6.021,10.204 7.979,9.796 10.313,21 13.687,21 16.021,9.796 
	17.979,10.204 "/>
<rect x="8.5" y="5" style="fill:#333333;" width="6.5" height="2"/>
</svg>






