<?xml version="1.0" encoding="iso-8859-1"?>
<svg version="1.1" id="&#x56FE;&#x5C42;_1" xmlns="http://www.w3.org/2000/svg" xmlns:xlink="http://www.w3.org/1999/xlink" x="0px"
	 y="0px" viewBox="0 0 24 24" style="enable-background:new 0 0 24 24;" xml:space="preserve">
<path style="fill:#333333;" d="M23,22H1V8h22V22z M3,20h18V10H3V20z"/>
<rect x="11" y="11" style="fill:#333333;" width="2" height="2"/>
<rect x="2" y="14" style="fill:#333333;" width="20" height="2"/>
<rect x="11" y="17" style="fill:#333333;" width="2" height="2"/>
<rect x="3" y="21" style="fill:#333333;" width="2" height="2"/>
<rect x="19" y="21" style="fill:#333333;" width="2" height="2"/>
<rect x="11" y="5" style="fill:#333333;" width="2" height="4"/>
<path style="fill:#333333;" d="M17,6H7V5c0-2.757,2.243-5,5-5s5,2.243,5,5V6z M9.171,4h5.658C14.416,2.836,13.304,2,12,2
	S9.584,2.836,9.171,4z"/>
<rect x="21" y="13" style="fill:#333333;" width="2" height="4"/>
<rect x="1" y="13" style="fill:#333333;" width="2" height="4"/>
</svg>






