<?xml version="1.0" encoding="iso-8859-1"?>
<svg version="1.1" id="&#x56FE;&#x5C42;_1" xmlns="http://www.w3.org/2000/svg" xmlns:xlink="http://www.w3.org/1999/xlink" x="0px"
	 y="0px" viewBox="0 0 24 24" style="enable-background:new 0 0 24 24;" xml:space="preserve">
<path style="fill:#333333;" d="M12,23c-2.792,0-4-5.729-4-8.652C8,11.95,9.794,10,12,10c2.206,0,4,1.95,4,4.348
	C16,17.271,14.792,23,12,23z M12,12c-1.103,0-2,1.053-2,2.348c0,3.312,1.351,6.492,2.014,6.653C12.649,20.841,14,17.659,14,14.348
	C14,13.053,13.103,12,12,12z"/>
<path style="fill:#333333;" d="M5.739,14.5C3.974,14.5,2,13.003,2,11c0-2.003,1.974-3.5,3.739-3.5C7.091,7.5,11,8.704,11,11
	C11,13.297,7.091,14.5,5.739,14.5z M5.739,9.5C4.98,9.5,4,10.228,4,11s0.98,1.5,1.739,1.5c1.157,0,3.185-1.013,3.261-1.504
	C8.924,10.513,6.896,9.5,5.739,9.5z"/>
<path style="fill:#333333;" d="M18.261,14.5C16.909,14.5,13,13.297,13,11c0-2.296,3.909-3.5,5.261-3.5C20.025,7.5,22,8.997,22,11
	C22,13.003,20.025,14.5,18.261,14.5z M18.261,9.5c-1.157,0-3.185,1.013-3.261,1.504c0.076,0.483,2.104,1.496,3.261,1.496
	C19.021,12.5,20,11.772,20,11S19.021,9.5,18.261,9.5z"/>
<path style="fill:#333333;" d="M12,12c-1.93,0-3.5-1.57-3.5-3.5V7c0-1.93,1.57-3.5,3.5-3.5s3.5,1.57,3.5,3.5v1.5
	C15.5,10.43,13.93,12,12,12z M12,5.5c-0.827,0-1.5,0.673-1.5,1.5v1.5c0,0.827,0.673,1.5,1.5,1.5s1.5-0.673,1.5-1.5V7
	C13.5,6.173,12.827,5.5,12,5.5z"/>
<path style="fill:#333333;" d="M15,5h-2c0-2.206,1.794-4,4-4v2C15.897,3,15,3.897,15,5z"/>
<path style="fill:#333333;" d="M11.5,5h-2c0-1.103-1.122-2-2.5-2V1C9.481,1,11.5,2.794,11.5,5z"/>
</svg>






