<?xml version="1.0" encoding="iso-8859-1"?>
<svg version="1.1" id="&#x56FE;&#x5C42;_1" xmlns="http://www.w3.org/2000/svg" xmlns:xlink="http://www.w3.org/1999/xlink" x="0px"
	 y="0px" viewBox="0 0 24 24" style="enable-background:new 0 0 24 24;" xml:space="preserve">
<path style="fill:#333333;" d="M18.5,23h-13V10.5c0-1.103,0.897-2,2-2h1.25v2H7.5V21h9V10.5h-3.75v-2h3.75c1.103,0,2,0.897,2,2V23z"
	/>
<path style="fill:#333333;" d="M10.75,17c-1.241,0-2.25-1.01-2.25-2.25V10.5H7.25c-2.068,0-3.75-1.682-3.75-3.75S5.182,3,7.25,3
	h0.592C8.366,2.072,9.5,1,11.5,1c2,0,3.135,1.072,3.658,2h1.592c2.067,0,3.75,1.682,3.75,3.75s-1.683,3.75-3.75,3.75H13v4.25
	C13,15.99,11.991,17,10.75,17z M7.25,5C6.285,5,5.5,5.785,5.5,6.75S6.285,8.5,7.25,8.5h3.25v6.25c0,0.275,0.5,0.275,0.5,0V8.5h5.75
	c0.965,0,1.75-0.785,1.75-1.75S17.715,5,16.75,5h-3.031L13.53,4.243C13.474,4.048,13.093,3,11.5,3C9.8,3,9.473,4.23,9.47,4.243
	L9.281,5H7.25z"/>
<path style="fill:#333333;" d="M19,17h-1.5v-2H19c0.552,0,1-0.448,1-1v-2.5h-2.5v-2H20c1.103,0,2,0.897,2,2V14
	C22,15.654,20.654,17,19,17z"/>
</svg>






