<?xml version="1.0" encoding="iso-8859-1"?>
<svg version="1.1" id="&#x56FE;&#x5C42;_1" xmlns="http://www.w3.org/2000/svg" xmlns:xlink="http://www.w3.org/1999/xlink" x="0px"
	 y="0px" viewBox="0 0 24 24" style="enable-background:new 0 0 24 24;" xml:space="preserve">
<path style="fill:#333333;" d="M14,23c-6.318,0-7-3.062-7-4.379V7h14v11.621C21,19.938,20.318,23,14,23z M9,9v9.621
	C9,20.691,12.133,21,14,21s5-0.309,5-2.379V9H9z"/>
<rect x="11.5" y="11.5" style="fill:#333333;" width="2" height="7"/>
<rect x="14.5" y="11.5" style="fill:#333333;" width="2" height="7"/>
<path style="fill:#333333;" d="M7.085,8.406C6.6,7.314,6.217,5.1,7.859,3.732c1.067-0.891,2.204-1.041,3.069-0.924
	C11.442,1.93,12.42,1,14,1c1.585,0,2.563,0.937,3.075,1.817c0.944-0.136,2.161,0.004,3.132,0.976
	c1.668,1.668,0.779,4.408,0.74,4.523l-1.896-0.633c0.004-0.013,0.521-1.697-0.258-2.477c-0.748-0.75-1.887-0.292-1.9-0.288
	l-1.079,0.462l-0.285-1.14C15.496,4.124,15.157,3,14,3c-1.159,0-1.498,1.124-1.533,1.252l-0.32,1.178l-1.094-0.535
	c-0.083-0.039-0.974-0.41-1.913,0.374C8.246,6.014,8.908,7.583,8.915,7.599L7.085,8.406z"/>
<path style="fill:#333333;" d="M6.741,18.087c-1.355,0-3.196-0.288-3.69-1.771c-0.52-1.562-0.994-6.194-1.046-6.717l-0.11-1.1H8v2
	H4.114c0.194,1.701,0.532,4.275,0.834,5.184C5.051,15.99,6.48,16.205,7.86,16.01l0.282,1.98C7.91,18.023,7.379,18.087,6.741,18.087z
	"/>
</svg>






