<?xml version="1.0" encoding="iso-8859-1"?>
<svg version="1.1" id="&#x56FE;&#x5C42;_1" xmlns="http://www.w3.org/2000/svg" xmlns:xlink="http://www.w3.org/1999/xlink" x="0px"
	 y="0px" viewBox="0 0 24 24" style="enable-background:new 0 0 24 24;" xml:space="preserve">
<path style="fill:#333333;" d="M6,13H1V4h5c2.991,0,5,1.809,5,4.5S8.991,13,6,13z M3,11h3c1.907,0,3-0.911,3-2.5S7.907,6,6,6H3V11z"
	/>
<path style="fill:#333333;" d="M6.516,21H1V11h5.516C9.847,11,12,12.963,12,16S9.847,21,6.516,21z M3,19h3.516
	C8.73,19,10,17.906,10,16s-1.27-3-3.484-3H3V19z"/>
<path style="fill:#333333;" d="M18,21c-2.897,0-5-2.313-5-5.5s2.103-5.5,5-5.5c3.454,0,5,2.763,5,5.5v1h-7.895
	C15.401,17.856,16.328,19,18,19c1.887,0,2.646-1.025,2.678-1.068l1.654,1.123C22.279,19.134,21.001,21,18,21z M15.105,14.5h5.798
	C20.688,13.412,20.021,12,18,12C16.328,12,15.401,13.144,15.105,14.5z"/>
<rect x="15" y="6.5" style="fill:#333333;" width="6" height="2"/>
</svg>






