<?xml version="1.0" encoding="iso-8859-1"?>
<svg version="1.1" id="&#x56FE;&#x5C42;_1" xmlns="http://www.w3.org/2000/svg" xmlns:xlink="http://www.w3.org/1999/xlink" x="0px"
	 y="0px" viewBox="0 0 24 24" style="enable-background:new 0 0 24 24;" xml:space="preserve">
<path style="fill:#333333;" d="M10,19c-4.962,0-9-4.037-9-9c0-4.962,4.038-9,9-9c4.963,0,9,4.038,9,9C19,14.963,14.963,19,10,19z
	 M10,3c-3.86,0-7,3.14-7,7c0,3.859,3.14,7,7,7c3.859,0,7-3.141,7-7C17,6.14,13.859,3,10,3z"/>
<path style="fill:none;" d="M22,9v1h-1V9H22z"/>
<path style="fill:#333333;" d="M14.637,21.07l-0.773-1.844C17.591,17.663,20,14.042,20,10V8h3v3h-1.041
	C21.592,15.44,18.8,19.325,14.637,21.07z"/>
<polygon style="fill:#333333;" points="16.539,23 3.461,23 6.086,17.094 7.914,17.906 6.539,21 13.461,21 12.086,17.906 
	13.914,17.094 "/>
<path style="fill:#333333;" d="M10,13c-1.654,0-3-1.346-3-3s1.346-3,3-3s3,1.346,3,3S11.654,13,10,13z M10,9c-0.551,0-1,0.449-1,1
	s0.449,1,1,1s1-0.449,1-1S10.551,9,10,9z"/>
<path style="fill:#333333;" d="M6,10H4c0-3.309,2.691-6,6-6v2C7.794,6,6,7.794,6,10z"/>
</svg>






