<?xml version="1.0" encoding="iso-8859-1"?>
<svg version="1.1" id="&#x56FE;&#x5C42;_1" xmlns="http://www.w3.org/2000/svg" xmlns:xlink="http://www.w3.org/1999/xlink" x="0px"
	 y="0px" viewBox="0 0 24 24" style="enable-background:new 0 0 24 24;" xml:space="preserve">
<polygon style="fill:#333333;" points="5.636,23.313 0.687,18.364 4.576,14.475 5.99,15.889 3.515,18.364 5.636,20.485 
	8.111,18.011 9.525,19.425 "/>
<polygon style="fill:#333333;" points="15.182,13.768 13.768,12.354 20.485,5.636 18.364,3.515 11.646,10.232 10.232,8.818 
	18.364,0.687 23.313,5.636 "/>
<path style="fill:#333333;" d="M9.879,20.364c-0.534,0-1.036-0.208-1.414-0.586l-4.243-4.243c-0.78-0.779-0.78-2.049,0-2.828
	l4.243-4.243c0.78-0.779,2.049-0.779,2.828,0l4.243,4.243c0.78,0.779,0.78,2.049,0,2.828l-4.243,4.243
	C10.916,20.156,10.414,20.364,9.879,20.364z M5.636,14.121l4.243,4.243l4.243-4.243L9.879,9.878L5.636,14.121z"/>
<rect x="8.44" y="12.061" transform="matrix(0.7071 -0.7071 0.7071 0.7071 -6.0311 11.5607)" style="fill:#333333;" width="4.999" height="2"/>
<rect x="16.657" y="3.843" transform="matrix(0.7072 -0.7071 0.7071 0.7072 0.6859 14.3422)" style="fill:#333333;" width="2" height="5"/>
<rect x="14.182" y="6.318" transform="matrix(0.7072 -0.7071 0.7071 0.7072 -1.7891 13.3166)" style="fill:#333333;" width="2" height="5"/>
<rect x="9.586" y="9.415" transform="matrix(0.7072 -0.707 0.707 0.7072 -6.3848 11.413)" style="fill:#333333;" width="2" height="8"/>
</svg>






