<?xml version="1.0" encoding="iso-8859-1"?>
<svg version="1.1" id="&#x56FE;&#x5C42;_1" xmlns="http://www.w3.org/2000/svg" xmlns:xlink="http://www.w3.org/1999/xlink" x="0px"
	 y="0px" viewBox="0 0 24 24" style="enable-background:new 0 0 24 24;" xml:space="preserve">
<path style="fill:#333333;" d="M12,23C5.935,23,1,18.065,1,12S5.935,1,12,1s11,4.935,11,11S18.065,23,12,23z M12,3
	c-4.962,0-9,4.038-9,9c0,4.963,4.038,9,9,9c4.963,0,9-4.037,9-9C21,7.038,16.963,3,12,3z"/>
<polygon style="fill:#333333;" points="20.16,17.866 12,13.154 3.84,17.866 2.84,16.134 11,11.423 11,2 13,2 13,11.423 
	21.16,16.134 "/>
<path style="fill:#333333;" d="M4.144,19.7c-0.648-0.662-1.21-1.402-1.672-2.199c-0.498-0.861-0.877-1.787-1.125-2.751l1.937-0.5
	c0.203,0.789,0.513,1.546,0.92,2.249c0.378,0.653,0.838,1.259,1.37,1.801L4.144,19.7z M19.856,19.699l-1.43-1.398
	c0.533-0.545,0.994-1.15,1.369-1.801c0.409-0.707,0.719-1.464,0.92-2.249l1.938,0.498c-0.247,0.961-0.625,1.887-1.126,2.752
	C21.068,18.295,20.506,19.035,19.856,19.699z M14.7,3.412c-1.739-0.548-3.664-0.547-5.4,0L8.7,1.504c2.127-0.669,4.472-0.669,6.6,0
	L14.7,3.412z"/>
</svg>






