<?xml version="1.0" encoding="iso-8859-1"?>
<svg version="1.1" id="&#x56FE;&#x5C42;_1" xmlns="http://www.w3.org/2000/svg" xmlns:xlink="http://www.w3.org/1999/xlink" x="0px"
	 y="0px" viewBox="0 0 24 24" style="enable-background:new 0 0 24 24;" xml:space="preserve">
<path style="fill:#333333;" d="M11.75,23C7.536,23,3,20.81,3,16V8c0-3.427,2.52-6.039,4.89-6.757
	c1.289-0.389,2.389-0.127,2.942,0.702c0.917,1.376,0.054,2.455-0.462,3.1C9.922,5.603,9.5,6.131,9.5,7c0,1.579,1.571,2,2.5,2
	s2.5-0.421,2.5-2c0-0.836-0.525-1.361-1.082-1.918c-0.638-0.638-1.705-1.705-0.75-3.137c0.564-0.848,1.742-1.104,3.15-0.675
	C18.33,2.031,21,4.648,21,8v8C21,20.836,16.354,23,11.75,23z M9.067,3.045c-0.219,0-0.748,0.078-1.469,0.508
	C6.342,4.305,5,5.868,5,8v8c0,3.955,4.416,5,6.75,5c2.692,0,7.25-1.053,7.25-5V8c0-2.03-1.403-3.577-2.717-4.348
	c-1.099-0.645-1.855-0.63-1.996-0.552c0.045,0.067,0.346,0.368,0.545,0.567C15.496,4.332,16.5,5.336,16.5,7c0,2.626-2.264,4-4.5,4
	S7.5,9.626,7.5,7c0-1.571,0.788-2.555,1.309-3.206C8.97,3.593,9.214,3.289,9.236,3.176c-0.002,0-0.015-0.042-0.068-0.122
	C9.153,3.05,9.118,3.045,9.067,3.045z"/>
<path style="fill:#333333;" d="M12,19.914L8.086,16L12,12.086L15.914,16L12,19.914z M10.914,16L12,17.086L13.086,16L12,14.914
	L10.914,16z"/>
</svg>






