<?xml version="1.0" encoding="iso-8859-1"?>
<svg version="1.1" id="&#x56FE;&#x5C42;_1" xmlns="http://www.w3.org/2000/svg" xmlns:xlink="http://www.w3.org/1999/xlink" x="0px"
	 y="0px" viewBox="0 0 24 24" style="enable-background:new 0 0 24 24;" xml:space="preserve">
<path style="fill:#333333;" d="M23,23H1V11.9C1,5.89,5.935,1,12,1s11,4.89,11,10.9V23z M3,21h18v-9.1C21,6.993,16.963,3,12,3
	c-4.962,0-9,3.993-9,8.9V21z"/>
<path style="fill:#333333;" d="M12,19c-3.86,0-7-3.141-7-7c0-3.86,3.14-7,7-7c3.859,0,7,3.14,7,7C19,15.859,15.859,19,12,19z M12,7
	c-2.757,0-5,2.243-5,5s2.243,5,5,5s5-2.243,5-5S14.757,7,12,7z"/>
<polygon style="fill:#333333;" points="13.293,14.707 11,12.414 11,9 13,9 13,11.586 14.707,13.293 "/>
</svg>






