<?xml version="1.0" encoding="iso-8859-1"?>
<svg version="1.1" id="&#x56FE;&#x5C42;_1" xmlns="http://www.w3.org/2000/svg" xmlns:xlink="http://www.w3.org/1999/xlink" x="0px"
	 y="0px" viewBox="0 0 24 24" style="enable-background:new 0 0 24 24;" xml:space="preserve">
<path style="fill:#333333;" d="M5.25,22C2.355,22,0,19.645,0,16.75s2.355-5.25,5.25-5.25s5.25,2.355,5.25,5.25S8.145,22,5.25,22z
	 M5.25,13.5C3.458,13.5,2,14.958,2,16.75S3.458,20,5.25,20s3.25-1.458,3.25-3.25S7.042,13.5,5.25,13.5z"/>
<path style="fill:#333333;" d="M18.5,22c-3.032,0-5.5-2.468-5.5-5.5s2.468-5.5,5.5-5.5s5.5,2.468,5.5,5.5S21.532,22,18.5,22z
	 M18.5,13c-1.93,0-3.5,1.57-3.5,3.5s1.57,3.5,3.5,3.5s3.5-1.57,3.5-3.5S20.43,13,18.5,13z"/>
<polygon style="fill:#333333;" points="17.552,16.816 13.278,4 9.499,4 9.499,2 14.72,2 19.448,16.184 "/>
<path style="fill:none;" d="M5.529,16.5l10.312-8.118L5.529,16.5z"/>
<rect x="4.123" y="11.441" transform="matrix(0.7858 -0.6184 0.6184 0.7858 -5.4056 9.2721)" style="fill:#333333;" width="13.124" height="2"/>
<polygon style="fill:#333333;" points="20.774,8.5 15.841,8.5 15.841,6.5 19.38,6.5 20.062,4.654 21.938,5.346 "/>
<rect x="4" y="6.987" style="fill:#333333;" width="3.5" height="2"/>
<rect x="7.318" y="7.875" transform="matrix(0.9541 -0.2996 0.2996 0.9541 -2.7951 2.979)" style="fill:#333333;" width="2" height="5.462"/>
</svg>






