<?xml version="1.0" encoding="iso-8859-1"?>
<svg version="1.1" id="&#x56FE;&#x5C42;_1" xmlns="http://www.w3.org/2000/svg" xmlns:xlink="http://www.w3.org/1999/xlink" x="0px"
	 y="0px" viewBox="0 0 24 24" style="enable-background:new 0 0 24 24;" xml:space="preserve">
<path style="fill:#333333;" d="M11.813,19.518c-2.39,0-4.863-0.729-7.007-2.798c-2.745-2.646-3.732-6.275-3.772-6.428L0.902,9.795
	l2.851-3.459c1.255-1.41,3.998-2.729,6.412-0.583l1.542,1.541c0.373,0.372,1.242,1.245,3.811-0.169l4.677-2.076
	c1.271-0.408,1.915,0.195,2.131,0.475c0.607,0.784,0.77,2.155-1.784,6.549l0.263-0.053c0.803-0.155,1.777,0.052,2.153,0.858
	c0.579,1.238-0.765,2.532-1.825,3.397C19.492,17.521,15.767,19.518,11.813,19.518z M3.117,10.251
	c0.34,0.983,1.279,3.295,3.077,5.029c4.656,4.487,11.625,0.999,13.702-0.576c0.285-0.233,0.504-0.432,0.671-0.598l-1.87,0.374
	l-1.041-1.516c2.333-3.681,2.89-5.294,3.01-5.943l-4.259,1.893c-2.499,1.382-4.581,1.325-6.113-0.207l-1.5-1.5
	C7.121,5.724,5.491,7.396,5.258,7.652L3.117,10.251z"/>
<circle style="fill:#333333;" cx="7" cy="10" r="1"/>
</svg>






