<?xml version="1.0" encoding="iso-8859-1"?>
<svg version="1.1" id="&#x56FE;&#x5C42;_1" xmlns="http://www.w3.org/2000/svg" xmlns:xlink="http://www.w3.org/1999/xlink" x="0px"
	 y="0px" viewBox="0 0 24 24" style="enable-background:new 0 0 24 24;" xml:space="preserve">
<path style="fill:none;" d="M4,20h16v-8H4V20z"/>
<path style="fill:#333333;" d="M22,21H2v-2h1v-8h18v8h1V21z M5,19h14v-6H5V19z"/>
<polygon style="fill:#333333;" points="16,18.118 14,17.118 12,18.118 10,17.118 8,18.118 6,17.118 4.447,17.895 3.553,16.105 
	6,14.882 8,15.882 10,14.882 12,15.882 14,14.882 16,15.882 18,14.882 20.447,16.105 19.553,17.895 18,17.118 "/>
<rect x="15" y="7.5" style="fill:#333333;" width="2" height="4.5"/>
<rect x="11" y="7.5" style="fill:#333333;" width="2" height="4.5"/>
<rect x="7" y="7.5" style="fill:#333333;" width="2" height="4.5"/>
<rect x="15" y="4" style="fill:#333333;" width="2" height="1"/>
<rect x="11" y="4" style="fill:#333333;" width="2" height="1"/>
<rect x="7" y="4" style="fill:#333333;" width="2" height="1"/>
<rect x="3" y="12" style="fill:#333333;" width="2" height="8"/>
<rect x="19" y="12" style="fill:#333333;" width="2" height="8"/>
</svg>






