<?xml version="1.0" encoding="iso-8859-1"?>
<svg version="1.1" id="&#x56FE;&#x5C42;_1" xmlns="http://www.w3.org/2000/svg" xmlns:xlink="http://www.w3.org/1999/xlink" x="0px"
	 y="0px" viewBox="0 0 24 24" style="enable-background:new 0 0 24 24;" xml:space="preserve">
<path style="fill:#333333;" d="M12,23C5.935,23,1,18.065,1,12S5.935,1,12,1s11,4.935,11,11S18.065,23,12,23z M12,3
	c-4.962,0-9,4.038-9,9c0,4.963,4.038,9,9,9c4.963,0,9-4.037,9-9C21,7.038,16.963,3,12,3z"/>
<path style="fill:none;" d="M10,8h2.5h1c1.105,0,2,0.895,2,2s-0.895,2-2,2H10V8z"/>
<path style="fill:#333333;" d="M13.5,13H9V9H8V7h1V6h2v1h0.5V6h2v1c1.654,0,3,1.346,3,3S15.154,13,13.5,13z M11,11h2.5
	c0.552,0,1-0.449,1-1s-0.448-1-1-1h-1V8v1H11V11z"/>
<path style="fill:none;" d="M10,12h4.5c1.105,0,2,0.895,2,2s-0.895,2-2,2h-2H10V12z"/>
<path style="fill:#333333;" d="M13.5,18h-2v-1H11v1H9v-1H8v-2h1v-4h5.5c1.654,0,3,1.346,3,3s-1.346,3-3,3h-1V18z M12.5,16v-1h2
	c0.552,0,1-0.448,1-1s-0.448-1-1-1H11v2h1.5V16z"/>
</svg>






