<?xml version="1.0" encoding="iso-8859-1"?>
<svg version="1.1" id="&#x56FE;&#x5C42;_1" xmlns="http://www.w3.org/2000/svg" xmlns:xlink="http://www.w3.org/1999/xlink" x="0px"
	 y="0px" viewBox="0 0 24 24" style="enable-background:new 0 0 24 24;" xml:space="preserve">
<path style="fill:#333333;" d="M18.5,19H5c-1.103,0-2-0.897-2-2v-0.5c-1.103,0-2-0.897-2-2v-5c0-1.103,0.897-2,2-2V7
	c0-1.103,0.897-2,2-2h13.5c1.103,0,2,0.897,2,2v0.5H21c1.103,0,2,0.897,2,2v5c0,1.103-0.897,2-2,2h-0.5V17
	C20.5,18.103,19.603,19,18.5,19z M3,9.5v5h2V17h13.5v-2.5H21v-5h-2.5V7H5v2.5H3z"/>
<rect x="6" y="11" style="fill:#333333;" width="12" height="2"/>
<circle style="fill:#333333;" cx="12" cy="12" r="2"/>
<rect x="15" y="9.5" style="fill:#333333;" width="2" height="5"/>
<rect x="7" y="9.5" style="fill:#333333;" width="2" height="5"/>
</svg>






