<?xml version="1.0" encoding="iso-8859-1"?>
<svg version="1.1" id="&#x56FE;&#x5C42;_1" xmlns="http://www.w3.org/2000/svg" xmlns:xlink="http://www.w3.org/1999/xlink" x="0px"
	 y="0px" viewBox="0 0 24 24" style="enable-background:new 0 0 24 24;" xml:space="preserve">
<path style="fill:#333333;" d="M7.703,22H3.661c-0.708,0-1.349-0.362-1.714-0.969c-0.365-0.606-0.385-1.342-0.054-1.968l3.658-6.908
	l2.057-9.6C7.801,1.654,8.611,1,9.532,1C10.617,1,11.5,1.883,11.5,2.968v9.389c0,0.189-0.027,0.379-0.081,0.562L11.2,13.668
	l-1.547,6.777C9.443,21.36,8.642,22,7.703,22z M9.5,2.968l-1.993,9.606c-0.04,0.18-0.102,0.352-0.187,0.513L3.661,20h4.042
	L9.5,12.356V2.968z"/>
<rect x="7.25" y="11.346" transform="matrix(0.3939 -0.9191 0.9191 0.3939 -7.1785 15.6135)" style="fill:#333333;" width="2" height="3.808"/>
<path style="fill:#333333;" d="M20.339,22h-4.042c-0.938,0-1.739-0.639-1.949-1.554l-1.768-7.527
	c-0.054-0.188-0.08-0.375-0.08-0.562V2.968C12.5,1.883,13.383,1,14.468,1c0.922,0,1.73,0.654,1.924,1.556l2.057,9.599l3.658,6.91
	c0.331,0.626,0.311,1.361-0.054,1.968C21.688,21.638,21.047,22,20.339,22z M13.5,12.356l1.001,0.005l0.219,0.744L16.297,20h4.042
	l-3.657-6.909c-0.084-0.157-0.148-0.332-0.188-0.514l-2.057-9.603l0.063,9.382H13.5z"/>
<rect x="13.846" y="12.25" transform="matrix(0.9192 -0.3937 0.3937 0.9192 -3.9444 7.2705)" style="fill:#333333;" width="3.808" height="1.999"/>
</svg>






