<?xml version="1.0" encoding="iso-8859-1"?>
<svg version="1.1" id="&#x56FE;&#x5C42;_1" xmlns="http://www.w3.org/2000/svg" xmlns:xlink="http://www.w3.org/1999/xlink" x="0px"
	 y="0px" viewBox="0 0 24 24" style="enable-background:new 0 0 24 24;" xml:space="preserve">
<path style="fill:#333333;" d="M16,10H8V2h8V10z M10,8h4V4h-4V8z"/>
<path style="fill:#333333;" d="M22,10h-8V2h8V10z M16,8h4V4h-4V8z"/>
<path style="fill:#333333;" d="M10,10H2V2h8V10z M4,8h4V4H4V8z"/>
<path style="fill:#333333;" d="M10,16H2V8h8V16z M4,14h4v-4H4V14z"/>
<path style="fill:#333333;" d="M10,22H2v-8h8V22z M4,20h4v-4H4V20z"/>
</svg>






