<?xml version="1.0" encoding="iso-8859-1"?>
<svg version="1.1" id="&#x56FE;&#x5C42;_1" xmlns="http://www.w3.org/2000/svg" xmlns:xlink="http://www.w3.org/1999/xlink" x="0px"
	 y="0px" viewBox="0 0 24 24" style="enable-background:new 0 0 24 24;" xml:space="preserve">
<path style="fill:#333333;" d="M19,10h-8V2h8V10z M13,8h4V4h-4V8z"/>
<path style="fill:#333333;" d="M19,10h-8V2h8V10z M13,8h4V4h-4V8z"/>
<path style="fill:#333333;" d="M13,10H5V2h8V10z M7,8h4V4H7V8z"/>
<path style="fill:#333333;" d="M13,22H5v-8h8V22z M7,20h4v-4H7V20z"/>
<path style="fill:#333333;" d="M13,16H5V8h8V16z M7,14h4v-4H7V14z"/>
</svg>






