<?xml version="1.0" encoding="iso-8859-1"?>
<svg version="1.1" id="&#x56FE;&#x5C42;_1" xmlns="http://www.w3.org/2000/svg" xmlns:xlink="http://www.w3.org/1999/xlink" x="0px"
	 y="0px" viewBox="0 0 24 24" style="enable-background:new 0 0 24 24;" xml:space="preserve">
<path style="fill:#333333;" d="M11,11H2V2h9V11z M4,9h5V4H4V9z"/>
<path style="fill:#333333;" d="M11,22H2v-9h9V22z M4,20h5v-5H4V20z"/>
<path style="fill:#333333;" d="M22,11h-9V2h9V11z M15,9h5V4h-5V9z"/>
<polygon style="fill:#333333;" points="20.293,21.707 15,16.414 15,21 13,21 13,14 14,14 14,13 21,13 21,15 16.414,15 
	21.707,20.293 "/>
</svg>






