<?xml version="1.0" encoding="iso-8859-1"?>
<svg version="1.1" id="&#x56FE;&#x5C42;_1" xmlns="http://www.w3.org/2000/svg" xmlns:xlink="http://www.w3.org/1999/xlink" x="0px"
	 y="0px" viewBox="0 0 24 24" style="enable-background:new 0 0 24 24;" xml:space="preserve">
<rect x="5" y="14.595" transform="matrix(0.6402 -0.7682 0.7682 0.6402 -12.0532 11.2659)" style="fill:#333333;" width="2" height="7.81"/>
<rect x="14.095" y="17.499" transform="matrix(0.7681 -0.6403 0.6403 0.7681 -7.6717 15.8144)" style="fill:#333333;" width="7.81" height="2.001"/>
<rect x="11" y="16" style="fill:#333333;" width="2" height="6"/>
<path style="fill:#333333;" d="M12,17c-4.088,0-8.5-3.25-8.5-8.5c0-1.48,0.505-3.639,0.527-3.729l0.21-0.89l3.91,0.559L12,0.586
	l3.854,3.854l3.91-0.559l0.21,0.89C19.995,4.861,20.5,7.02,20.5,8.5C20.5,13.75,16.088,17,12,17z M5.787,6.123
	C5.654,6.819,5.5,7.784,5.5,8.5c0,4.483,3.801,6.5,6.5,6.5s6.5-2.017,6.5-6.5c0-0.716-0.154-1.681-0.287-2.377l-3.066,0.438
	L12,3.414L8.854,6.561L5.787,6.123z"/>
</svg>






