<?xml version="1.0" encoding="iso-8859-1"?>
<svg version="1.1" id="&#x56FE;&#x5C42;_1" xmlns="http://www.w3.org/2000/svg" xmlns:xlink="http://www.w3.org/1999/xlink" x="0px"
	 y="0px" viewBox="0 0 24 24" style="enable-background:new 0 0 24 24;" xml:space="preserve">
<path style="fill:#333333;" d="M8.5,21.997c-0.432,0-0.814-0.058-1.118-0.144c-1.602-0.468-2.24-1.435-2.495-2.164
	c-0.477-1.364,0.005-2.87,0.513-3.921c-2.199-0.605-3.275-1.594-3.799-2.377c-0.524-0.784-0.719-1.689-0.535-2.483
	c0.286-1.422,1.044-2.51,2.186-3.119c1.265-0.675,2.828-0.674,4.204-0.375C7.405,5.627,7.827,4.23,8.716,3.251
	c0.768-0.844,1.875-1.31,2.976-1.246c2.004,0.117,3.099,1.093,3.665,1.892c0.734,1.036,1.003,2.379,0.978,3.579
	c2.229-0.421,3.696,0.006,4.579,0.498c0.995,0.555,1.737,1.471,1.983,2.452c0.252,1.321,0.009,2.459-0.69,3.348
	c-0.593,0.754-1.445,1.243-2.307,1.527c0.942,1.521,1.267,2.897,0.964,4.106c-0.244,0.979-0.925,1.79-1.82,2.171l-0.126,0.044
	c-2.906,0.804-4.942-0.467-6.102-1.854C11.477,21.498,9.775,21.997,8.5,21.997z M5.742,9.224c-0.57,0-1.111,0.098-1.548,0.331
	c-0.614,0.327-0.997,0.909-1.172,1.778C3,11.429,2.938,11.791,3.265,12.279c0.332,0.496,1.272,1.392,3.853,1.818l1.572,0.26
	L7.771,15.66c-0.7,0.993-1.31,2.471-0.996,3.369c0.054,0.155,0.219,0.627,1.161,0.902c0.018,0.007,2.472,0.661,3.963-2.488
	l1.828,0.046c0.053,0.126,1.313,3.08,4.584,2.226c0.158-0.079,0.49-0.301,0.612-0.791c0.128-0.512,0.101-1.669-1.518-3.677
	l0.727-1.627c0.857-0.044,1.963-0.396,2.502-1.082c0.341-0.434,0.442-0.984,0.311-1.683c-0.076-0.293-0.39-0.792-1.005-1.134
	C19.219,9.319,17.852,9,15.445,9.765l-1.264-1.229c0.225-0.78,0.299-2.415-0.457-3.482c-0.46-0.649-1.163-0.993-2.149-1.05l0,0
	c-0.384-0.028-0.948,0.122-1.378,0.595C9.711,5.131,9.21,6.269,9.58,8.658L8.209,9.735C7.482,9.435,6.581,9.224,5.742,9.224z"/>
<rect x="9.899" y="13.25" transform="matrix(0.6249 -0.7807 0.7807 0.6249 -6.8114 14.3226)" style="fill:#333333;" width="3.202" height="2"/>
<rect x="10" y="11.229" transform="matrix(0.1644 -0.9864 0.9864 0.1644 -3.3847 21.5046)" style="fill:#333333;" width="2" height="3.041"/>
<rect x="11.25" y="9.482" transform="matrix(0.9899 -0.1414 0.1414 0.9899 -1.4679 1.8455)" style="fill:#333333;" width="2" height="3.536"/>
<rect x="12.419" y="11.5" transform="matrix(0.9486 -0.3165 0.3165 0.9486 -3.2367 5.074)" style="fill:#333333;" width="3.162" height="2"/>
<rect x="12.75" y="12.399" transform="matrix(0.6248 -0.7808 0.7808 0.6248 -5.7719 15.9895)" style="fill:#333333;" width="2.001" height="3.201"/>
</svg>






