<?xml version="1.0" encoding="iso-8859-1"?>
<svg version="1.1" id="&#x56FE;&#x5C42;_1" xmlns="http://www.w3.org/2000/svg" xmlns:xlink="http://www.w3.org/1999/xlink" x="0px"
	 y="0px" viewBox="0 0 24 24" style="enable-background:new 0 0 24 24;" xml:space="preserve">
<path style="fill:#333333;" d="M20.5,8h-17c-1.103,0-2-0.897-2-2V4c0-1.103,0.897-2,2-2h17c1.103,0,2,0.897,2,2v2
	C22.5,7.103,21.603,8,20.5,8z M3.5,4H3.499L3.5,6h17V4H3.5z"/>
<path style="fill:#333333;" d="M19,22H5c-1.103,0-2-0.897-2-2V7h2v13h14V7h2v13C21,21.103,20.103,22,19,22z"/>
<path style="fill:#333333;" d="M12,19c-2.481,0-4.5-2.004-4.5-4.467c0-1.396,0.579-2.318,1.09-3.131
	c0.333-0.529,0.646-1.029,0.834-1.679L9.739,8.63l1.043,0.452c1.201,0.521,1.879,1.458,2.261,2.356
	c0.379-0.289,0.844-0.536,1.409-0.676l1.13-0.28l0.106,1.159c0.058,0.631,0.233,1.021,0.419,1.432
	c0.184,0.409,0.393,0.872,0.393,1.459C16.5,16.996,14.481,19,12,19z M10.817,11.565c-0.175,0.329-0.36,0.623-0.534,0.9
	C9.829,13.189,9.5,13.713,9.5,14.533C9.5,15.894,10.622,17,12,17c1.379,0,2.5-1.106,2.5-2.467c0-0.15-0.078-0.33-0.216-0.637
	c-0.084-0.187-0.182-0.401-0.272-0.653c-0.365,0.374-0.52,0.791-0.529,0.818l-1.944-0.328C11.538,13.721,11.516,12.45,10.817,11.565
	z"/>
</svg>






