<?xml version="1.0" encoding="iso-8859-1"?>
<svg version="1.1" id="&#x56FE;&#x5C42;_1" xmlns="http://www.w3.org/2000/svg" xmlns:xlink="http://www.w3.org/1999/xlink" x="0px"
	 y="0px" viewBox="0 0 24 24" style="enable-background:new 0 0 24 24;" xml:space="preserve">
<path style="fill:#333333;" d="M12,19c-3.86,0-7-3.141-7-7V6.14C5,5.511,5.511,5,6.14,5h11.72C18.488,5,19,5.511,19,6.14V12
	C19,15.859,15.859,19,12,19z M7,7v5c0,2.757,2.243,5,5,5s5-2.243,5-5V7H7z"/>
<rect x="9" y="2" style="fill:#333333;" width="2" height="4"/>
<rect x="13" y="2" style="fill:#333333;" width="2" height="4"/>
<rect x="11" y="12.5" style="fill:#333333;" width="2" height="2"/>
<path style="fill:#333333;" d="M19,23h-5.5c-1.379,0-2.5-1.121-2.5-2.5V18h2v2.5c0,0.275,0.225,0.5,0.5,0.5H19V23z"/>
</svg>






