<?xml version="1.0" encoding="iso-8859-1"?>
<svg version="1.1" id="&#x56FE;&#x5C42;_1" xmlns="http://www.w3.org/2000/svg" xmlns:xlink="http://www.w3.org/1999/xlink" x="0px"
	 y="0px" viewBox="0 0 24 24" style="enable-background:new 0 0 24 24;" xml:space="preserve">
<path style="fill:#333333;" d="M8.354,22.752c-1.909,0.001-2.636-1.398-3.126-2.341c-0.199-0.383-0.387-0.745-0.613-0.971
	c-0.226-0.226-0.588-0.414-0.971-0.613c-0.994-0.517-2.496-1.298-2.325-3.529c-0.003-1.89,2.005-3.574,3.649-3.574
	c0.924,0,1.697,0.223,2.412,0.709l5.075-5.075c-0.486-0.715-0.709-1.488-0.709-2.413c0-1.644,1.685-3.651,3.651-3.651
	c1.995,0,2.739,1.264,3.281,2.187c0.24,0.409,0.468,0.794,0.784,1.111s0.703,0.543,1.111,0.784c0.923,0.542,2.188,1.286,2.188,3.281
	c0,1.967-2.008,3.652-3.652,3.652c-0.925,0-1.697-0.224-2.412-0.709l-5.075,5.075c0.486,0.715,0.709,1.487,0.709,2.412
	c0,1.645-1.686,3.652-3.652,3.652C8.568,22.748,8.458,22.752,8.354,22.752z M4.968,13.724c-0.516,0-1.652,0.799-1.652,1.651
	c-0.07,0.945,0.267,1.167,1.25,1.678c0.478,0.248,1.019,0.529,1.462,0.974s0.725,0.985,0.974,1.462
	c0.512,0.984,0.739,1.327,1.602,1.254c0.93-0.003,1.728-1.139,1.728-1.655c0-0.738-0.201-1.201-0.768-1.768l-0.707-0.707
	l7.778-7.778l0.707,0.707c0.566,0.567,1.029,0.768,1.768,0.768c0.517,0,1.652-0.799,1.652-1.652c0-0.812-0.289-1.021-1.201-1.558
	c-0.476-0.279-1.015-0.596-1.512-1.094s-0.814-1.036-1.094-1.512c-0.536-0.912-0.745-1.201-1.558-1.201
	c-0.853,0-1.651,1.136-1.651,1.651c0,0.739,0.201,1.201,0.768,1.768l0.707,0.707l-7.778,7.778l-0.707-0.707
	C6.168,13.925,5.706,13.724,4.968,13.724z"/>
</svg>






