<?xml version="1.0" encoding="iso-8859-1"?>
<svg version="1.1" id="&#x56FE;&#x5C42;_1" xmlns="http://www.w3.org/2000/svg" xmlns:xlink="http://www.w3.org/1999/xlink" x="0px"
	 y="0px" viewBox="0 0 24 24" style="enable-background:new 0 0 24 24;" xml:space="preserve">
<path style="fill:#333333;" d="M19.736,11H2.5L2.053,9.105C2.103,9.079,3.5,8.322,3.5,6.5S2.103,3.921,2.044,3.89L2.5,2h17.236
	l0.211,0.105C20.052,2.158,22.5,3.417,22.5,6.5s-2.448,4.342-2.553,4.395L19.736,11z M4.86,9h14.362
	C19.604,8.735,20.5,7.959,20.5,6.5c0-1.455-0.891-2.23-1.279-2.5H4.86C5.228,4.646,5.5,5.471,5.5,6.5S5.228,8.354,4.86,9z"/>
<path style="fill:#333333;" d="M21.5,22H4.264l-0.211-0.105C3.949,21.843,1.5,20.583,1.5,17.5s2.449-4.343,2.553-4.395L4.264,13
	H21.5l0.456,1.89c-0.06,0.031-1.456,0.788-1.456,2.61s1.396,2.579,1.456,2.61L21.5,22z M4.78,20h14.36
	c-0.367-0.646-0.64-1.472-0.64-2.5s0.272-1.854,0.64-2.5H4.778C4.396,15.265,3.5,16.041,3.5,17.5C3.5,18.955,4.39,19.73,4.78,20z"/>
</svg>






