<?xml version="1.0" encoding="iso-8859-1"?>
<svg version="1.1" id="&#x56FE;&#x5C42;_1" xmlns="http://www.w3.org/2000/svg" xmlns:xlink="http://www.w3.org/1999/xlink" x="0px"
	 y="0px" viewBox="0 0 24 24" style="enable-background:new 0 0 24 24;" xml:space="preserve">
<path style="fill:#333333;" d="M19,23H5c-1.103,0-2-0.897-2-2V3c0-1.103,0.897-2,2-2h14c1.103,0,2,0.897,2,2v18
	C21,22.103,20.103,23,19,23z M5,3v18h14V3H5z"/>
<path style="fill:#333333;" d="M15.777,11.691L13.5,9.311l-2.277,2.381L9.5,11V1h8v10L15.777,11.691z M13.5,6.417l2,2.091V3h-4
	v5.508L13.5,6.417z"/>
<rect x="5" y="1" style="fill:#333333;" width="14" height="2"/>
</svg>






