<?xml version="1.0" encoding="iso-8859-1"?>
<svg version="1.1" id="&#x56FE;&#x5C42;_1" xmlns="http://www.w3.org/2000/svg" xmlns:xlink="http://www.w3.org/1999/xlink" x="0px"
	 y="0px" viewBox="0 0 24 24" style="enable-background:new 0 0 24 24;" xml:space="preserve">
<path style="fill:#333333;" d="M21.5,22H5c-1.378,0-2.5-1.121-2.5-2.5v-15C2.5,3.122,3.622,2,5,2h16.5V22z M5,4
	C4.724,4,4.5,4.224,4.5,4.5v15C4.5,19.775,4.724,20,5,20h14.5V4H5z"/>
<rect x="3.5" y="16" style="fill:#333333;" width="17" height="2"/>
<rect x="2.5" y="15" style="fill:#333333;" width="2" height="4"/>
<rect x="19.5" y="15" style="fill:#333333;" width="2" height="4"/>
<path style="fill:#333333;" d="M11.875,13.781L10,12.28l-1.875,1.501L6.5,13V2h7v11L11.875,13.781z M10,9.719l1.5,1.2V4h-3v6.919
	L10,9.719z"/>
<rect x="5.5" y="2" style="fill:#333333;" width="9" height="2"/>
</svg>






