<?xml version="1.0" encoding="iso-8859-1"?>
<svg version="1.1" id="&#x56FE;&#x5C42;_1" xmlns="http://www.w3.org/2000/svg" xmlns:xlink="http://www.w3.org/1999/xlink" x="0px"
	 y="0px" viewBox="0 0 24 24" style="enable-background:new 0 0 24 24;" xml:space="preserve">
<path style="fill:#333333;" d="M5,20H3V5c0-2.206,1.884-4,4.2-4H21v18H7.2C5,19,5,19.152,5,20z M7.2,3C5.987,3,5,3.897,5,5v12.182
	C5.642,17.027,6.397,17,7.2,17H19V3H7.2z"/>
<path style="fill:#333333;" d="M21,23H6c-1.654,0-3-1.346-3-3s1.346-3,3-3h15V23z M6,19c-0.551,0-1,0.448-1,1s0.449,1,1,1h13v-2H6z"
	/>
</svg>






