<?xml version="1.0" encoding="iso-8859-1"?>
<svg version="1.1" id="&#x56FE;&#x5C42;_1" xmlns="http://www.w3.org/2000/svg" xmlns:xlink="http://www.w3.org/1999/xlink" x="0px"
	 y="0px" viewBox="0 0 24 24" style="enable-background:new 0 0 24 24;" xml:space="preserve">
<path style="fill:#333333;" d="M17.649,22H6.803c-0.439,0-0.858-0.146-1.18-0.413c-0.601-0.494-1.761-1.627-2.768-3.64
	c-1.267-2.534-1.783-4.067-1.804-4.131l-0.257-0.771l0.701-0.409c0.013-0.008,0.548-0.321,1.287-0.82C5.896,9.715,7,8.178,7,7.5v-1
	h10v1c0,1.124,1.506,2.73,4.027,4.296c0.807,0.501,1.414,0.807,1.42,0.81l0.66,0.331l-0.121,0.728
	c-0.011,0.067-0.29,1.679-1.592,4.283c-0.962,1.923-1.938,3.034-2.433,3.525C18.617,21.813,18.151,22,17.649,22z M6.896,20.044
	C6.896,20.044,6.896,20.044,6.896,20.044C6.896,20.044,6.896,20.044,6.896,20.044z M6.843,20h10.764
	c0.359-0.366,1.176-1.302,1.999-2.947c0.682-1.363,1.049-2.411,1.236-3.042c-0.246-0.139-0.542-0.312-0.869-0.516
	c-1.949-1.21-4.22-2.993-4.82-4.995h-6.34c-0.529,1.459-2.175,3.127-4.911,4.975c-0.25,0.169-0.479,0.318-0.676,0.444
	c0.263,0.659,0.722,1.738,1.419,3.134C5.479,18.723,6.424,19.645,6.843,20z"/>
<polygon style="fill:#333333;" points="16.977,7.717 15.023,7.283 16.198,2 21,2 21,4 17.802,4 "/>
<polygon style="fill:#333333;" points="7.024,7.717 6.198,4 3,4 3,2 7.802,2 8.976,7.283 "/>
<path style="fill:#333333;" d="M18,16.5H6c-3.577,0-4.842-2.448-4.895-2.553l1.782-0.907C2.92,13.1,3.702,14.5,6,14.5h12
	c1.948,0,3.191-1.589,3.203-1.604L22.8,14.1C22.727,14.198,20.966,16.5,18,16.5z"/>
<path style="fill:#333333;" d="M2.855,17.947c-1.267-2.534-1.783-4.067-1.804-4.131l-0.257-0.771l0.701-0.409
	c0.013-0.008,0.548-0.321,1.287-0.82l1.119,1.658c-0.25,0.169-0.479,0.318-0.676,0.444c0.263,0.659,0.722,1.738,1.419,3.134
	L2.855,17.947z"/>
<path style="fill:#333333;" d="M21.395,17.947l-1.789-0.895c0.682-1.363,1.049-2.411,1.236-3.042
	c-0.246-0.139-0.542-0.312-0.869-0.516l1.055-1.699c0.807,0.501,1.414,0.807,1.42,0.81l0.66,0.331l-0.121,0.728
	C22.976,13.731,22.696,15.343,21.395,17.947z"/>
</svg>






