<?xml version="1.0" encoding="iso-8859-1"?>
<svg version="1.1" id="&#x56FE;&#x5C42;_1" xmlns="http://www.w3.org/2000/svg" xmlns:xlink="http://www.w3.org/1999/xlink" x="0px"
	 y="0px" viewBox="0 0 24 24" style="enable-background:new 0 0 24 24;" xml:space="preserve">
<path style="fill:#333333;" d="M19.5,8.419c-0.801,0-1.602-0.214-2.315-0.643L17,7.666l-0.185,0.111
	c-1.428,0.857-3.203,0.857-4.631,0L12,7.666l-0.185,0.111c-1.429,0.858-3.202,0.857-4.631,0L7,7.666L6.815,7.777
	c-1.429,0.858-3.202,0.857-4.631,0L1,7.066V1.5h22v5.566l-1.185,0.71C21.102,8.206,20.301,8.419,19.5,8.419z M17,5.334l1.214,0.728
	c0.794,0.476,1.78,0.475,2.572,0L21,5.934V3.5H3v2.434l0.214,0.128c0.793,0.476,1.779,0.476,2.572,0L7,5.334l1.214,0.728
	c0.793,0.476,1.779,0.476,2.572,0L12,5.334l1.214,0.728c0.794,0.476,1.781,0.475,2.572,0L17,5.334z"/>
<path style="fill:#333333;" d="M22,22.5H2v-11h20V22.5z M4,20.5h16v-7H4V20.5z"/>
<rect x="3.5" y="8" style="fill:#333333;" width="2" height="4.5"/>
<rect x="18.5" y="8" style="fill:#333333;" width="2" height="4.5"/>
</svg>






