<?xml version="1.0" encoding="iso-8859-1"?>
<svg version="1.1" id="&#x56FE;&#x5C42;_1" xmlns="http://www.w3.org/2000/svg" xmlns:xlink="http://www.w3.org/1999/xlink" x="0px"
	 y="0px" viewBox="0 0 24 24" style="enable-background:new 0 0 24 24;" xml:space="preserve">
<path style="fill:#333333;" d="M9.448,22.775h-3.44l-0.219-0.12c-0.141-0.077-3.449-1.929-3.449-5.757
	c0-3.645,3.551-7.379,3.702-7.537l0.289-0.3h2.793l0.289,0.3c0.151,0.157,3.702,3.892,3.702,7.537c0,3.828-3.307,5.68-3.448,5.757
	L9.448,22.775z M6.536,20.816H8.92c0.578-0.385,2.236-1.685,2.236-3.918c0-2.35-2.12-4.999-2.885-5.878H7.184
	c-0.765,0.879-2.885,3.528-2.885,5.878C4.299,19.129,5.954,20.429,6.536,20.816z"/>
<path style="fill:#333333;" d="M9.097,11.021H6.358l-0.286-0.473C6,10.427,4.299,7.582,4.299,5.143c0-2.573,1.725-3.918,3.428-3.918
	c1.704,0,3.429,1.346,3.429,3.918c0,2.438-1.701,5.284-1.774,5.404L9.097,11.021z M7.488,9.062h0.479
	c0.428-0.814,1.23-2.526,1.23-3.918c0-1.904-1.319-1.959-1.47-1.959S6.258,3.239,6.258,5.143C6.258,6.535,7.06,8.247,7.488,9.062z"
	/>
<path style="fill:#333333;" d="M18.264,22.775h-3.439l-0.22-0.12c-0.141-0.077-3.448-1.929-3.448-5.757
	c0-3.645,3.551-7.379,3.702-7.537l0.289-0.3h2.793l0.289,0.3c0.151,0.157,3.702,3.892,3.702,7.537c0,3.828-3.308,5.68-3.448,5.757
	L18.264,22.775z M15.353,20.816h2.384c0.578-0.385,2.236-1.685,2.236-3.918c0-2.35-2.12-4.999-2.885-5.878H16
	c-0.765,0.879-2.885,3.528-2.885,5.878C13.115,19.126,14.778,20.432,15.353,20.816z"/>
<path style="fill:#333333;" d="M17.913,11.021h-2.738l-0.286-0.473c-0.072-0.12-1.773-2.966-1.773-5.404
	c0-2.573,1.725-3.918,3.429-3.918s3.429,1.346,3.429,3.918c0,2.438-1.701,5.284-1.773,5.404L17.913,11.021z M16.305,9.062h0.479
	c0.429-0.814,1.23-2.526,1.23-3.918c0-1.904-1.319-1.959-1.47-1.959s-1.47,0.055-1.47,1.959C15.074,6.535,15.876,8.247,16.305,9.062
	z"/>
</svg>






