<?xml version="1.0" encoding="iso-8859-1"?>
<svg version="1.1" id="&#x56FE;&#x5C42;_1" xmlns="http://www.w3.org/2000/svg" xmlns:xlink="http://www.w3.org/1999/xlink" x="0px"
	 y="0px" viewBox="0 0 24 24" style="enable-background:new 0 0 24 24;" xml:space="preserve">
<path style="fill:#333333;" d="M15.5,23h-7c-1.103,0-2-0.897-2-2V10.78c0-1.917,0.948-3.728,2.5-4.827V1h6v4.953
	c1.552,1.099,2.5,2.91,2.5,4.827V21C17.5,22.103,16.603,23,15.5,23z M11,3v3.364c0,0.433-0.23,0.84-0.601,1.062
	C9.228,8.13,8.5,9.414,8.5,10.78V21h7V10.78c0-1.365-0.728-2.65-1.898-3.353C13.23,7.204,13,6.797,13,6.364V3H11z"/>
<rect x="10" y="4" style="fill:#333333;" width="4" height="2"/>
<polygon style="fill:#333333;" points="16.5,20 11,20 11,10.5 16.5,10.5 16.5,12.5 13,12.5 13,18 16.5,18 "/>
<rect x="15.5" y="10.5" style="fill:#333333;" width="2" height="9.5"/>
<rect x="9" y="4" style="fill:#333333;" width="2" height="2"/>
<rect x="13" y="4" style="fill:#333333;" width="2" height="2"/>
</svg>






