<?xml version="1.0" encoding="iso-8859-1"?>
<svg version="1.1" id="&#x56FE;&#x5C42;_1" xmlns="http://www.w3.org/2000/svg" xmlns:xlink="http://www.w3.org/1999/xlink" x="0px"
	 y="0px" viewBox="0 0 24 24" style="enable-background:new 0 0 24 24;" xml:space="preserve">
<path style="fill:#333333;" d="M3.51,19.423c-0.603,0-1.161-0.281-1.524-0.775c-0.423-0.577-0.505-1.349-0.213-2.014
	C2.553,14.858,3,13.352,3,12.5c0-0.614-0.444-1.557-0.873-2.468C1.906,9.562,1.679,9.079,1.48,8.589
	C1.226,7.961,1.329,7.256,1.749,6.749c0.418-0.505,1.06-0.728,1.719-0.598c2.591,0.515,5.394,2.326,7.313,4.725L11,11.149V11.5
	c0,4.584-2.584,7.394-7.276,7.911C3.652,19.419,3.581,19.423,3.51,19.423z M3.49,8.208C3.633,8.536,3.787,8.861,3.937,9.18
	C4.483,10.341,5,11.438,5,12.5c0,1.445-0.75,3.462-1.384,4.91c3.501-0.42,5.264-2.24,5.378-5.558
	C7.495,10.094,5.404,8.712,3.49,8.208z"/>
<path style="fill:#333333;" d="M20.49,19.423c-0.07,0-0.142-0.004-0.214-0.012C15.584,18.894,13,16.084,13,11.5v-0.351l0.219-0.274
	c1.919-2.399,4.722-4.209,7.314-4.725l0,0c0.659-0.13,1.302,0.093,1.72,0.599c0.419,0.508,0.521,1.213,0.267,1.841
	c-0.198,0.489-0.426,0.973-0.647,1.443C21.424,10.986,21,11.886,21,12.5c0,0.853,0.447,2.358,1.228,4.134
	c0.292,0.664,0.211,1.435-0.213,2.013C21.651,19.142,21.093,19.423,20.49,19.423z M15.006,11.852
	c0.114,3.315,1.875,5.135,5.369,5.557C19.739,15.937,19,13.937,19,12.5c0-1.061,0.517-2.158,1.062-3.319
	c0.15-0.319,0.304-0.644,0.447-0.973C18.595,8.712,16.504,10.095,15.006,11.852z"/>
<path style="fill:#333333;" d="M15,15.5H9v-6h6V15.5z M11,13.5h2v-2h-2V13.5z"/>
</svg>






