<?xml version="1.0" encoding="iso-8859-1"?>
<svg version="1.1" id="&#x56FE;&#x5C42;_1" xmlns="http://www.w3.org/2000/svg" xmlns:xlink="http://www.w3.org/1999/xlink" x="0px"
	 y="0px" viewBox="0 0 24 24" style="enable-background:new 0 0 24 24;" xml:space="preserve">
<path style="fill:#333333;" d="M12.136,22.775C6.194,22.775,1.36,17.941,1.36,12S6.194,1.225,12.136,1.225S22.911,6.059,22.911,12
	S18.077,22.775,12.136,22.775z M12.136,3.184c-4.861,0-8.816,3.955-8.816,8.816s3.955,8.816,8.816,8.816s8.816-3.955,8.816-8.816
	S16.997,3.184,12.136,3.184z"/>
<path style="fill:#333333;" d="M12.136,12.98c0.813,0,1.469-0.656,1.469-1.469c0-0.813-0.656-1.469-1.469-1.469
	c-0.813,0-1.469,0.656-1.469,1.469C10.666,12.323,11.323,12.98,12.136,12.98z"/>
<path style="fill:#333333;" d="M15.564,9.061c0.813,0,1.469-0.656,1.469-1.469s-0.656-1.469-1.469-1.469
	c-0.813,0-1.469,0.656-1.469,1.469S14.751,9.061,15.564,9.061z"/>
<path style="fill:#333333;" d="M8.707,9.061c0.813,0,1.469-0.656,1.469-1.469S9.52,6.122,8.707,6.122
	c-0.813,0-1.469,0.656-1.469,1.469S7.894,9.061,8.707,9.061z"/>
</svg>






