<?xml version="1.0" encoding="iso-8859-1"?>
<svg version="1.1" id="&#x56FE;&#x5C42;_1" xmlns="http://www.w3.org/2000/svg" xmlns:xlink="http://www.w3.org/1999/xlink" x="0px"
	 y="0px" viewBox="0 0 24 24" style="enable-background:new 0 0 24 24;" xml:space="preserve">
<path style="fill:#333333;" d="M17,23H6.997l0.008-2.336c-0.186-0.107-0.371-0.222-0.552-0.343c-0.548-0.366-1.061-0.787-1.523-1.25
	C3.04,17.183,2,14.671,2,12v-1h20v1c0,2.67-1.04,5.182-2.929,7.071c-0.463,0.462-0.97,0.879-1.509,1.239
	c-0.183,0.123-0.37,0.24-0.562,0.352C17,21.229,17,22,17,22V23z M9.003,21H15c0.002-1.101,0.01-1.125,0.053-1.252l0.131-0.394
	l0.371-0.185c0.309-0.154,0.609-0.329,0.895-0.52c0.431-0.29,0.838-0.624,1.209-0.994c1.271-1.272,2.062-2.898,2.28-4.656H4.062
	c0.218,1.758,1.009,3.385,2.282,4.657c0.371,0.371,0.781,0.707,1.22,1.001c0.289,0.192,0.587,0.365,0.886,0.513l0.559,0.276
	L9.003,21z"/>
<rect x="11" y="4" style="fill:#333333;" width="2" height="5.004"/>
<rect x="17" y="6" style="fill:#333333;" width="2" height="3.004"/>
<rect x="5" y="6" style="fill:#333333;" width="2" height="3.004"/>
<path style="fill:#333333;" d="M19,6h-2c0-1.654,1.346-3,3-3v2C19.448,5,19,5.449,19,6z"/>
<path style="fill:#333333;" d="M13,4h-2c0-1.654,1.346-3,3-3v2C13.448,3,13,3.449,13,4z"/>
<path style="fill:#333333;" d="M7,6H5c0-1.654,1.346-3,3-3v2C7.449,5,7,5.449,7,6z"/>
</svg>






