<?xml version="1.0" encoding="iso-8859-1"?>
<svg version="1.1" id="&#x56FE;&#x5C42;_1" xmlns="http://www.w3.org/2000/svg" xmlns:xlink="http://www.w3.org/1999/xlink" x="0px"
	 y="0px" viewBox="0 0 24 24" style="enable-background:new 0 0 24 24;" xml:space="preserve">
<path style="fill:#333333;" d="M20,22H4c-1.103,0-2-0.897-2-2V7c0-1.103,0.897-2,2-2h16c1.103,0,2,0.897,2,2v13
	C22,21.103,21.103,22,20,22z M4,7H3.999L4,20h16V7H4z"/>
<rect x="8.975" y="11.004" style="fill:#333333;" width="6" height="2"/>
<polygon style="fill:#333333;" points="20.247,7.159 17.046,3.5 6.954,3.5 3.752,7.159 2.248,5.841 6.046,1.5 17.954,1.5 
	21.753,5.841 "/>
</svg>






