<?xml version="1.0" encoding="iso-8859-1"?>
<svg version="1.1" id="&#x56FE;&#x5C42;_1" xmlns="http://www.w3.org/2000/svg" xmlns:xlink="http://www.w3.org/1999/xlink" x="0px"
	 y="0px" viewBox="0 0 24 24" style="enable-background:new 0 0 24 24;" xml:space="preserve">
<path style="fill:#333333;" d="M18,19H6c-2.206,0-4-1.794-4-4v-4.5C2,8.57,3.57,7,5.5,7h2C9.43,7,11,8.57,11,10.5S9.43,14,7.5,14h-1
	v-2h1C8.327,12,9,11.327,9,10.5S8.327,9,7.5,9h-2C4.673,9,4,9.673,4,10.5V15c0,1.103,0.897,2,2,2h12c1.103,0,2-0.897,2-2v-2
	c0-0.552-0.448-1-1-1h-7v-2h7c1.654,0,3,1.346,3,3v2C22,17.206,20.206,19,18,19z"/>
<path style="fill:#333333;" d="M17,23H7c-1.103,0-2-0.897-2-2v-3l1-1h12l1,1v3C19,22.103,18.103,23,17,23z M17,21v1V21L17,21L17,21z
	 M7,19v2h9.997l0.002-2H7z"/>
<path style="fill:#333333;" d="M19,12H9.95v-2H19c1.103,0,2-0.897,2-2V6c0-1.654-1.346-3-3-3H6C4.346,3,3,4.346,3,6v2
	c0,0.559,0.226,1.011,0.315,1.097C3.289,9.072,3.174,9,3,9v2c-1.235,0-2-1.557-2-3V6c0-2.757,2.243-5,5-5h12c2.757,0,5,2.243,5,5v2
	C23,10.206,21.206,12,19,12z"/>
</svg>






