<?xml version="1.0" encoding="iso-8859-1"?>
<svg version="1.1" id="&#x56FE;&#x5C42;_1" xmlns="http://www.w3.org/2000/svg" xmlns:xlink="http://www.w3.org/1999/xlink" x="0px"
	 y="0px" viewBox="0 0 24 24" style="enable-background:new 0 0 24 24;" xml:space="preserve">
<path style="fill:#333333;" d="M18,23H8.5c-1.103,0-2-0.897-2-2v-3h2v3H18v-3h2v3C20,22.103,19.103,23,18,23z"/>
<path style="fill:#333333;" d="M19.003,19H7.5C3.473,19,1,14.632,1,11.5v-4l1-1h2.5V5c0-2.206,1.794-4,4-4H19c2.206,0,4,1.794,4,4
	v10C23,17.206,21.207,19,19.003,19z M3,8.5v3C3,13.367,4.588,17,7.5,17h11.503C20.104,17,21,16.103,21,15V5c0-1.103-0.897-2-2-2H8.5
	c-1.103,0-2,0.897-2,2v2.5l-1,1H3z"/>
<rect x="4.5" y="7" style="fill:#333333;" width="2" height="4"/>
</svg>






