<?xml version="1.0" encoding="iso-8859-1"?>
<svg version="1.1" id="&#x56FE;&#x5C42;_1" xmlns="http://www.w3.org/2000/svg" xmlns:xlink="http://www.w3.org/1999/xlink" x="0px"
	 y="0px" viewBox="0 0 24 24" style="enable-background:new 0 0 24 24;" xml:space="preserve">
<path style="fill:#333333;" d="M12,10c-2.481,0-4.5-2.019-4.5-4.5S9.519,1,12,1s4.5,2.019,4.5,4.5S14.481,10,12,10z M12,3
	c-1.378,0-2.5,1.122-2.5,2.5S10.622,8,12,8c1.379,0,2.5-1.122,2.5-2.5S13.379,3,12,3z"/>
<path style="fill:#333333;" d="M14.043,23H9.958L3.162,12.545L4,11h16l0.839,1.545L14.043,23z M11.042,21h1.915l5.2-8H5.843
	L11.042,21z"/>
</svg>






