<?xml version="1.0" encoding="iso-8859-1"?>
<svg version="1.1" id="&#x56FE;&#x5C42;_1" xmlns="http://www.w3.org/2000/svg" xmlns:xlink="http://www.w3.org/1999/xlink" x="0px"
	 y="0px" viewBox="0 0 24 24" style="enable-background:new 0 0 24 24;" xml:space="preserve">
<path style="fill:#333333;" d="M12,9C9.794,9,8,7.206,8,5s1.794-4,4-4c2.206,0,4,1.794,4,4S14.206,9,12,9z M12,3
	c-1.103,0-2,0.897-2,2s0.897,2,2,2c1.103,0,2-0.897,2-2S13.103,3,12,3z"/>
<path style="fill:#333333;" d="M16.5,22h-2v-5.066l2.313-1.388l-1.667-5.418C14.602,9.773,13.266,9,12,9
	c-1.273,0-2.618,0.783-3.157,1.134l-1.674,5.02L9.5,17.02V22h-2v-4.02l-2.669-2.135L7.15,8.887L7.4,8.7C7.493,8.63,9.693,7,12,7
	s4.508,1.63,4.6,1.7l0.261,0.195l2.326,7.559L16.5,18.066V22z"/>
</svg>






