<?xml version="1.0" encoding="iso-8859-1"?>
<svg version="1.1" id="&#x56FE;&#x5C42;_1" xmlns="http://www.w3.org/2000/svg" xmlns:xlink="http://www.w3.org/1999/xlink" x="0px"
	 y="0px" viewBox="0 0 24 24" style="enable-background:new 0 0 24 24;" xml:space="preserve">
<path style="fill:#333333;" d="M18.677,18H6.469l-1.75-7h16.757L18.677,18z M8.031,16h9.292l1.2-3H7.281L8.031,16z"/>
<polygon style="fill:#333333;" points="5.086,12.406 3.35,8.5 1.75,8.5 1.75,6.5 4.65,6.5 6.914,11.594 "/>
<path style="fill:#333333;" d="M10,23c-1.378,0-2.5-1.121-2.5-2.5S8.622,18,10,18s2.5,1.121,2.5,2.5S11.378,23,10,23z M10,20
	c-0.276,0-0.5,0.225-0.5,0.5S9.724,21,10,21s0.5-0.225,0.5-0.5S10.276,20,10,20z"/>
<path style="fill:#333333;" d="M15.5,23c-1.379,0-2.5-1.121-2.5-2.5s1.121-2.5,2.5-2.5s2.5,1.121,2.5,2.5S16.879,23,15.5,23z
	 M15.5,20c-0.275,0-0.5,0.225-0.5,0.5s0.225,0.5,0.5,0.5s0.5-0.225,0.5-0.5S15.775,20,15.5,20z"/>
<path style="fill:#333333;" d="M20.7,13h-5.285l-5.301-9.425l0.939-0.47c0.201-0.1,0.42-0.216,0.656-0.34
	C13.124,2.021,15.062,1,17,1c1.835,0,3.865,2.412,5.787,4.883l0.339,0.437L20.7,13z M16.585,11H19.3l1.57-4.319
	C18.469,3.652,17.44,3,17,3c-1.353,0-2.918,0.779-4.122,1.41L16.585,11z"/>
<rect x="14.5" y="2.234" transform="matrix(0.8682 -0.4961 0.4961 0.8682 -0.0664 8.2501)" style="fill:#333333;" width="2" height="4.031"/>
</svg>






