<?xml version="1.0" encoding="iso-8859-1"?>
<svg version="1.1" id="&#x56FE;&#x5C42;_1" xmlns="http://www.w3.org/2000/svg" xmlns:xlink="http://www.w3.org/1999/xlink" x="0px"
	 y="0px" viewBox="0 0 24 24" style="enable-background:new 0 0 24 24;" xml:space="preserve">
<path style="fill:#333333;" d="M15.751,22.672c-1.263-1.394-2.598-3.159-1.703-4.462l0.232-0.339l0.404-0.077
	C18.586,17.051,21,13.605,21,10.839C21,7.809,18.882,3,13.199,3C9.424,3,7.395,4.545,6.813,7.863L6.727,8.355L6.281,8.582
	c-1.204,0.612-2,1.037-2.526,1.331c0.665,0.491,1.357,1.292,0.896,2.459c-0.121,0.308-0.29,0.662-0.473,1.042
	c-0.387,0.806-1.108,2.305-0.773,2.771c0.194,0.271,0.836,0.355,1.516,0.444c0.919,0.121,2.063,0.271,3.001,1.015
	c1.145,0.908,2.003,2.275,2.552,4.063l-1.912,0.586c-0.428-1.394-1.061-2.431-1.883-3.083c-0.503-0.399-1.239-0.496-2.018-0.598
	c-1.022-0.134-2.182-0.285-2.882-1.262c-1.025-1.431-0.087-3.381,0.597-4.805c0.15-0.313,0.292-0.606,0.397-0.864
	c-0.135-0.152-0.535-0.374-0.716-0.475c-0.453-0.251-0.921-0.512-1.036-1.079L0.931,9.676l0.307-0.445
	C1.42,8.997,1.646,8.708,4.942,7.019C5.823,3.079,8.668,1,13.199,1C20.339,1,23,7.035,23,10.839c0,3.889-3.058,7.571-7.103,8.72
	c0.167,0.326,0.534,0.885,1.336,1.769L15.751,22.672z"/>
<path style="fill:#333333;" d="M13.581,14.233c-0.703,0-1.144-0.304-1.396-0.575c-0.481-0.517-0.596-1.233-0.575-1.911
	c-0.994-0.228-1.741-0.596-2.27-1.115C8.549,9.854,8.361,8.632,8.782,7l0.01-0.038c0.212-0.708,0.816-1.62,2.489-1.944
	c0.934-0.183,1.496-0.068,1.989,0.405c0.013,0,0.028,0.001,0.046,0.001c1.294,0,2.777,0.368,3.121,1.369
	c0.105,0.017,0.252,0.03,0.443,0.03c0.394,0,0.765,0.191,1.102,0.568c0.628,0.701,1.184,2.1,1.012,3.644
	c-0.11,0.981-0.59,1.494-0.972,1.752c-0.519,0.349-1.173,0.465-1.978,0.352c-0.38,0.493-1.042,0.962-2.195,1.081
	C13.756,14.229,13.666,14.233,13.581,14.233z M10.712,7.523c-0.21,0.829-0.199,1.457,0.03,1.683
	c0.247,0.242,0.809,0.565,2.088,0.726l1.04,0.131l-0.18,1.033c-0.113,0.65-0.085,0.981-0.055,1.125
	c0.803-0.092,0.876-0.355,0.911-0.484l0.268-0.968l0.967,0.272c0.699,0.197,1.039,0.143,1.123,0.086
	c0.034-0.023,0.08-0.131,0.101-0.315c0.107-0.959-0.238-1.707-0.442-1.998c-1.437-0.083-1.874-0.736-2.002-1.201
	c-0.221-0.085-0.676-0.189-1.245-0.189c-0.703,0-1.085-0.236-1.356-0.487c-0.062,0.005-0.157,0.017-0.298,0.044
	C11.117,7.087,10.797,7.27,10.712,7.523z M13.211,5.418L13.211,5.418L13.211,5.418z"/>
<path style="fill:#333333;" d="M13.27,16.5l-1.961-0.393c0.143-0.715,0.574-1.284,1.121-2.006c0.157-0.208,0.328-0.434,0.508-0.685
	c0.503-0.702,1.576-1.387,1.785-1.517l1.055,1.7c-0.515,0.319-1.048,0.751-1.215,0.983c-0.19,0.266-0.372,0.505-0.539,0.726
	C13.647,15.806,13.322,16.234,13.27,16.5z"/>
</svg>






