<?xml version="1.0" encoding="iso-8859-1"?>
<svg version="1.1" id="&#x56FE;&#x5C42;_1" xmlns="http://www.w3.org/2000/svg" xmlns:xlink="http://www.w3.org/1999/xlink" x="0px"
	 y="0px" viewBox="0 0 24 24" style="enable-background:new 0 0 24 24;" xml:space="preserve">
<path style="fill:#333333;" d="M12,21c-4.962,0-9-4.037-9-9c0-4.962,4.038-9,9-9c4.963,0,9,4.038,9,9C21,16.963,16.963,21,12,21z
	 M12,5c-3.86,0-7,3.14-7,7c0,3.859,3.14,7,7,7c3.859,0,7-3.141,7-7C19,8.14,15.859,5,12,5z"/>
<path style="fill:#333333;" d="M12,15c-1.654,0-3-1.346-3-3s1.346-3,3-3s3,1.346,3,3S13.654,15,12,15z M12,11c-0.551,0-1,0.449-1,1
	c0,0.552,0.449,1,1,1c0.552,0,1-0.448,1-1C13,11.449,12.552,11,12,11z"/>
<path style="fill:#333333;" d="M23,13h-5.997v-1c0-0.66-0.128-1.305-0.381-1.915c-0.253-0.611-0.618-1.157-1.084-1.624
	c-0.467-0.467-1.014-0.832-1.624-1.084C13.305,7.125,12.661,6.997,12,6.997h-1V1h1c1.451,0,2.867,0.282,4.21,0.837
	c1.341,0.555,2.541,1.357,3.568,2.384c1.026,1.026,1.828,2.227,2.385,3.569C22.719,9.132,23,10.549,23,12V13z M18.932,11h2.014
	c-0.094-0.838-0.305-1.657-0.63-2.444c-0.455-1.098-1.111-2.08-1.951-2.92c-0.841-0.84-1.823-1.496-2.92-1.951
	C14.657,3.359,13.838,3.148,13,3.055v2.013c0.575,0.083,1.138,0.237,1.68,0.462c0.854,0.354,1.618,0.864,2.272,1.518
	c0.653,0.653,1.163,1.418,1.518,2.272C18.694,9.863,18.849,10.425,18.932,11z"/>
</svg>






