<?xml version="1.0" encoding="iso-8859-1"?>
<svg version="1.1" id="&#x56FE;&#x5C42;_1" xmlns="http://www.w3.org/2000/svg" xmlns:xlink="http://www.w3.org/1999/xlink" x="0px"
	 y="0px" viewBox="0 0 24 24" style="enable-background:new 0 0 24 24;" xml:space="preserve">
<path style="fill:#333333;" d="M18,7c-1.654,0-3-1.346-3-3s1.346-3,3-3s3,1.346,3,3S19.654,7,18,7z M18,3c-0.552,0-1,0.449-1,1
	s0.448,1,1,1s1-0.449,1-1S18.552,3,18,3z"/>
<path style="fill:#333333;" d="M7,7C5.346,7,4,5.654,4,4s1.346-3,3-3s3,1.346,3,3S8.654,7,7,7z M7,3C6.449,3,6,3.449,6,4
	s0.449,1,1,1s1-0.449,1-1S7.551,3,7,3z"/>
<path style="fill:#333333;" d="M7,23c-1.654,0-3-1.346-3-3s1.346-3,3-3s3,1.346,3,3S8.654,23,7,23z M7,19c-0.551,0-1,0.448-1,1
	s0.449,1,1,1s1-0.448,1-1S7.551,19,7,19z"/>
<path style="fill:#333333;" d="M8,18H6V6h2v7.325c1.146-0.783,2.646-1.397,4.121-2.001C14.408,10.389,17,9.329,17,8V6h2v2
	c0,2.671-3.112,3.944-6.121,5.176C10.592,14.111,8,15.171,8,16.5V18z"/>
</svg>






