<?xml version="1.0" encoding="iso-8859-1"?>
<svg version="1.1" id="&#x56FE;&#x5C42;_1" xmlns="http://www.w3.org/2000/svg" xmlns:xlink="http://www.w3.org/1999/xlink" x="0px"
	 y="0px" viewBox="0 0 24 24" style="enable-background:new 0 0 24 24;" xml:space="preserve">
<path style="fill:#333333;" d="M18.5,20.5h-13c-1.654,0-3-1.346-3-3v-4c0-2.757,2.243-5,5-5h9c2.757,0,5,2.243,5,5v4
	C21.5,19.154,20.154,20.5,18.5,20.5z M7.5,10.5c-1.654,0-3,1.346-3,3v4c0,0.552,0.449,1,1,1h13c0.552,0,1-0.448,1-1v-4
	c0-1.654-1.346-3-3-3H7.5z"/>
<path style="fill:#333333;" d="M18,9.5h-2V5h1c0.812,0,0.875-0.574,0.875-0.75S17.812,3.5,17,3.5H7c-0.812,0-0.875,0.574-0.875,0.75
	S6.188,5,7,5h1v4.5H6V6.847C4.775,6.446,4.125,5.321,4.125,4.25c0-0.716,0.265-1.389,0.745-1.893C5.242,1.966,5.914,1.5,7,1.5h10
	c1.867,0,2.875,1.417,2.875,2.75c0,1.071-0.65,2.196-1.875,2.597V9.5z"/>
<rect x="9.793" y="5" transform="matrix(0.7071 -0.7071 0.7071 0.7071 -1.1673 9.182)" style="fill:#333333;" width="1.414" height="2"/>
<rect x="12.793" y="5" transform="matrix(0.7071 -0.7071 0.7071 0.7071 -0.2886 11.3033)" style="fill:#333333;" width="1.414" height="2"/>
<path style="fill:#333333;" d="M12,17.5c-1.654,0-3-1.346-3-3s1.346-3,3-3s3,1.346,3,3S13.654,17.5,12,17.5z M12,13.5
	c-0.551,0-1,0.448-1,1s0.449,1,1,1c0.552,0,1-0.448,1-1S12.552,13.5,12,13.5z"/>
<rect x="6.5" y="19.5" style="fill:#333333;" width="2" height="2"/>
<rect x="15.5" y="19.5" style="fill:#333333;" width="2" height="2"/>
</svg>






