<?xml version="1.0" encoding="iso-8859-1"?>
<svg version="1.1" id="&#x56FE;&#x5C42;_1" xmlns="http://www.w3.org/2000/svg" xmlns:xlink="http://www.w3.org/1999/xlink" x="0px"
	 y="0px" viewBox="0 0 24 24" style="enable-background:new 0 0 24 24;" xml:space="preserve">
<path style="fill:#333333;" d="M16.383,17.971l-1.766-0.941c0.04-0.075,4.006-7.511,4.988-9.477
	c0.322-0.645,0.365-1.345,0.124-2.023c-0.316-0.887-1.076-1.639-2.14-2.118c-1.989-0.895-4.491-0.367-5.822,1.228
	c-2.437,2.924-6.396,8.855-6.436,8.915l-1.664-1.109c0.165-0.247,4.059-6.079,6.564-9.085c1.914-2.297,5.353-3.043,8.178-1.772
	c1.565,0.705,2.703,1.866,3.203,3.271c0.423,1.187,0.345,2.461-0.219,3.589C20.4,10.436,16.546,17.664,16.383,17.971z"/>
<path style="fill:#333333;" d="M11.249,22c-0.332,0-0.665-0.017-0.995-0.033c-0.624-0.03-1.294-0.032-1.922-0.013
	c-1.317,0.047-2.677,0.091-3.837-0.756C2.909,20.043,2,18.364,2,16.594C2,13.006,4.981,10.5,9.25,10.5
	c3.998,0,7.25,2.733,7.25,6.094c0,1.856-0.982,3.587-2.696,4.747C13.003,21.884,12.128,22,11.249,22z M9.25,19.934
	c0.376,0,0.745,0.018,1.103,0.036c0.995,0.049,1.781,0.089,2.329-0.285c1.156-0.782,1.818-1.908,1.818-3.091
	c0-2.257-2.355-4.094-5.25-4.094C6.637,12.5,4,13.766,4,16.594c0,1.124,0.61,2.214,1.673,2.989c0.603,0.439,1.479,0.412,2.591,0.372
	C8.585,19.944,8.915,19.934,9.25,19.934z"/>
<path style="fill:#333333;" d="M9.967,19c-0.132,0-0.26-0.006-0.38-0.012c-0.11-0.005-0.222-0.01-0.337-0.01l-0.314,0.007
	c-0.514,0.013-1.148,0.033-1.725-0.336C6.441,18.157,6,17.413,6,16.608C6,15.097,7.367,14,9.25,14c1.822,0,3.25,1.146,3.25,2.608
	c0,0.841-0.474,1.604-1.301,2.098C10.786,18.951,10.355,19,9.967,19z M9.25,16.979c0.145,0,0.287,0.006,0.425,0.012
	c0.175,0.008,0.438,0.02,0.512-0.009c0.186-0.111,0.313-0.26,0.313-0.373C10.5,16.394,10.025,16,9.25,16C8.644,16,8,16.213,8,16.608
	c0,0.104,0.114,0.244,0.29,0.357c0.078,0.036,0.383,0.027,0.586,0.02C8.998,16.982,9.123,16.979,9.25,16.979z"/>
<path style="fill:#333333;" d="M11.283,9.976C9.33,9.543,7.786,9.958,7.771,9.963L7.225,8.039c0.082-0.023,2.024-0.563,4.492-0.015
	L11.283,9.976z"/>
<path style="fill:#333333;" d="M10.388,6.421l-0.782-1.84c0.088-0.038,2.17-0.91,4.288,0l-0.787,1.838
	C11.787,5.854,10.401,6.415,10.388,6.421z"/>
</svg>






