<?xml version="1.0" encoding="iso-8859-1"?>
<svg version="1.1" id="&#x56FE;&#x5C42;_1" xmlns="http://www.w3.org/2000/svg" xmlns:xlink="http://www.w3.org/1999/xlink" x="0px"
	 y="0px" viewBox="0 0 24 24" style="enable-background:new 0 0 24 24;" xml:space="preserve">
<path style="fill:#333333;" d="M18.042,21H5.958C3.225,21,1,18.775,1,16.042c0-0.889,0.228-1.653,0.677-2.272
	C2.714,12.337,5.8,9,12,9c6.199,0,9.285,3.336,10.324,4.771C22.772,14.389,23,15.153,23,16.042C23,18.775,20.775,21,18.042,21z
	 M12,11c-5.279,0-7.846,2.758-8.704,3.944C3.099,15.215,3,15.584,3,16.042C3,17.673,4.327,19,5.958,19h12.083
	C19.673,19,21,17.673,21,16.042c0-0.458-0.1-0.827-0.295-1.098C19.846,13.758,17.278,11,12,11z"/>
<rect x="5" y="4.5" style="fill:#333333;" width="2" height="2"/>
<rect x="6" y="11" style="fill:#333333;" width="2" height="2"/>
<rect x="17" y="4.5" style="fill:#333333;" width="2" height="2"/>
<rect x="16" y="11" style="fill:#333333;" width="2" height="2"/>
<rect x="11" y="3.5" style="fill:#333333;" width="2" height="3"/>
<rect x="11" y="10" style="fill:#333333;" width="2" height="4"/>
<path style="fill:#333333;" d="M19.348,13.479C18.034,12.349,15.693,11,12,11c-3.694,0-6.034,1.349-7.347,2.479l-1.306-1.516
	C4.917,10.612,7.692,9,12,9s7.083,1.612,8.652,2.964L19.348,13.479z"/>
</svg>






