<?xml version="1.0" encoding="iso-8859-1"?>
<svg version="1.1" id="&#x56FE;&#x5C42;_1" xmlns="http://www.w3.org/2000/svg" xmlns:xlink="http://www.w3.org/1999/xlink" x="0px"
	 y="0px" viewBox="0 0 24 24" style="enable-background:new 0 0 24 24;" xml:space="preserve">
<path style="fill:#333333;" d="M18.5,23h-14V12.5c0-2.015,1.919-3.178,3-3.674V6h8v2.826c1.081,0.496,3,1.66,3,3.674V23z M6.5,21h10
	v-8.5c0-1.062-1.827-1.888-2.316-2.051L13.5,10.221V8h-4v2.221l-0.684,0.228C8.217,10.652,6.5,11.466,6.5,12.5V21z"/>
<rect x="5.945" y="2.5" transform="matrix(0.7592 -0.6508 0.6508 0.7592 -0.2915 6.2121)" style="fill:#333333;" width="4.61" height="2"/>
<rect x="9" y="2.945" transform="matrix(0.7593 -0.6508 0.6508 0.7593 -1.0093 7.7717)" style="fill:#333333;" width="2" height="4.61"/>
<polygon style="fill:#333333;" points="19.859,10.768 16.5,7.968 16.5,5 13,5 13,3 18.5,3 18.5,7.032 21.141,9.232 "/>
</svg>






