<?xml version="1.0" encoding="iso-8859-1"?>
<svg version="1.1" id="&#x56FE;&#x5C42;_1" xmlns="http://www.w3.org/2000/svg" xmlns:xlink="http://www.w3.org/1999/xlink" x="0px"
	 y="0px" viewBox="0 0 24 24" style="enable-background:new 0 0 24 24;" xml:space="preserve">
<path style="fill:#333333;" d="M12,12.5c-5.503,0-8.723-5.262-8.857-5.485l1.714-1.031C4.884,6.029,7.641,10.5,12,10.5
	c4.358,0,7.116-4.471,7.144-4.516l1.714,1.031C20.723,7.238,17.503,12.5,12,12.5z"/>
<rect x="3" y="5" style="fill:#333333;" width="2" height="14"/>
<rect x="19" y="5" style="fill:#333333;" width="2" height="14"/>
<path style="fill:#333333;" d="M21.926,16.497c-0.061-0.004-6.104-0.449-9.938-0.497c-3.824-0.049-9.877,0.246-9.938,0.249
	l-0.098-1.998C2.012,14.247,8.119,13.942,12.013,14c3.896,0.049,10,0.498,10.062,0.503L21.926,16.497z"/>
<rect x="7" y="10.5" style="fill:#333333;" width="2" height="4.5"/>
<rect x="11" y="11.5" style="fill:#333333;" width="2" height="3.5"/>
<rect x="15" y="10.5" style="fill:#333333;" width="2" height="4.5"/>
<rect x="1.399" y="6.75" transform="matrix(0.6246 -0.7809 0.7809 0.6246 -4.926 5.2518)" style="fill:#333333;" width="3.202" height="2"/>
<rect x="20" y="6.149" transform="matrix(0.7809 -0.6247 0.6247 0.7809 -0.2396 14.8169)" style="fill:#333333;" width="2" height="3.202"/>
</svg>






