<?xml version="1.0" encoding="iso-8859-1"?>
<svg version="1.1" id="&#x56FE;&#x5C42;_1" xmlns="http://www.w3.org/2000/svg" xmlns:xlink="http://www.w3.org/1999/xlink" x="0px"
	 y="0px" viewBox="0 0 24 24" style="enable-background:new 0 0 24 24;" xml:space="preserve">
<path style="fill:#333333;" d="M17,8h-2c0-2.57-1.458-5-3-5S9,5.43,9,8H7c0-3.38,2.009-7,5-7C14.991,1,17,4.62,17,8z"/>
<path style="fill:#333333;" d="M21.087,15H12.5v-1.5h-1V15H2.913L3.58,7h16.84L21.087,15z M14.5,13h4.413L18.58,9H5.42l-0.333,4H9.5
	v-1.5h5V13z"/>
<polygon style="fill:#333333;" points="22.153,22 1.847,22 3.01,13.858 4.99,14.142 4.153,20 19.847,20 19.01,14.142 20.99,13.858 
	"/>
<path style="fill:#333333;" d="M14.5,16.5h-5v-5h5V16.5z M11.5,14.5h1v-1h-1V14.5z"/>
</svg>






