<?xml version="1.0" encoding="iso-8859-1"?>
<svg version="1.1" id="&#x56FE;&#x5C42;_1" xmlns="http://www.w3.org/2000/svg" xmlns:xlink="http://www.w3.org/1999/xlink" x="0px"
	 y="0px" viewBox="0 0 24 24" style="enable-background:new 0 0 24 24;" xml:space="preserve">
<path style="fill:#333333;" d="M12,23C5.935,23,1,18.065,1,12S5.935,1,12,1s11,4.935,11,11S18.065,23,12,23z M10.502,20.875
	C10.99,20.957,11.49,21,12,21c4.963,0,9-4.037,9-9c0-1.241-0.252-2.424-0.708-3.5h-4.053C17.026,9.452,17.5,10.671,17.5,12
	c0,1.723-0.796,3.263-2.039,4.271L10.502,20.875z M3.302,9.683C3.105,10.422,3,11.199,3,12c0,3.641,2.173,6.784,5.291,8.2
	l2.962-2.751c-1.457-0.198-2.734-0.97-3.596-2.078l-0.015,0.011L3.302,9.683z M12,8.5c-1.93,0-3.5,1.57-3.5,3.5s1.57,3.5,3.5,3.5
	s3.5-1.57,3.5-3.5S13.93,8.5,12,8.5z M4.185,7.541l2.455,3.225C7.202,8.325,9.392,6.5,12,6.5h7.119C17.472,4.372,14.894,3,12,3
	C8.659,3,5.737,4.83,4.185,7.541z"/>
</svg>






