<?xml version="1.0" encoding="iso-8859-1"?>
<svg version="1.1" id="&#x56FE;&#x5C42;_1" xmlns="http://www.w3.org/2000/svg" xmlns:xlink="http://www.w3.org/1999/xlink" x="0px"
	 y="0px" viewBox="0 0 24 24" style="enable-background:new 0 0 24 24;" xml:space="preserve">
<path style="fill:#333333;" d="M20,22H4c-1.103,0-2-0.897-2-2V9h2v11h16V9h2v11C22,21.103,21.103,22,20,22z"/>
<path style="fill:#333333;" d="M22,10H2V4c0-1.103,0.897-2,2-2h16c1.103,0,2,0.897,2,2V10z M4,8h16V4H4V8z"/>
<path style="fill-rule:evenodd;clip-rule:evenodd;fill:#333333;" d="M6,7c0.552,0,1-0.448,1-1S6.552,5,6,5S5,5.448,5,6S5.448,7,6,7z
	"/>
<path style="fill-rule:evenodd;clip-rule:evenodd;fill:#333333;" d="M9,7c0.552,0,1-0.448,1-1S9.552,5,9,5S8,5.448,8,6S8.448,7,9,7z
	"/>
<path style="fill-rule:evenodd;clip-rule:evenodd;fill:#333333;" d="M12,7c0.552,0,1-0.448,1-1s-0.448-1-1-1s-1,0.448-1,1
	S11.448,7,12,7z"/>
</svg>






