<?xml version="1.0" encoding="iso-8859-1"?>
<svg version="1.1" id="&#x56FE;&#x5C42;_1" xmlns="http://www.w3.org/2000/svg" xmlns:xlink="http://www.w3.org/1999/xlink" x="0px"
	 y="0px" viewBox="0 0 24 24" style="enable-background:new 0 0 24 24;" xml:space="preserve">
<path style="fill:#333333;" d="M17,12.5c-3.032,0-5.5-2.467-5.5-5.5s2.468-5.5,5.5-5.5s5.5,2.467,5.5,5.5S20.032,12.5,17,12.5z
	 M17,3.5c-1.93,0-3.5,1.57-3.5,3.5s1.57,3.5,3.5,3.5s3.5-1.57,3.5-3.5S18.93,3.5,17,3.5z"/>
<path style="fill:#333333;" d="M6,17c-2.481,0-4.5-2.019-4.5-4.5S3.519,8,6,8s4.5,2.019,4.5,4.5S8.481,17,6,17z M6,10
	c-1.378,0-2.5,1.122-2.5,2.5C3.5,13.879,4.622,15,6,15s2.5-1.121,2.5-2.5C8.5,11.122,7.378,10,6,10z"/>
<path style="fill:#333333;" d="M14.5,22c-1.93,0-3.5-1.57-3.5-3.5s1.57-3.5,3.5-3.5s3.5,1.57,3.5,3.5S16.43,22,14.5,22z M14.5,17
	c-0.827,0-1.5,0.673-1.5,1.5s0.673,1.5,1.5,1.5s1.5-0.673,1.5-1.5S15.327,17,14.5,17z"/>
</svg>






