<?xml version="1.0" encoding="iso-8859-1"?>
<svg version="1.1" id="&#x56FE;&#x5C42;_1" xmlns="http://www.w3.org/2000/svg" xmlns:xlink="http://www.w3.org/1999/xlink" x="0px"
	 y="0px" viewBox="0 0 24 24" style="enable-background:new 0 0 24 24;" xml:space="preserve">
<path style="fill:#333333;" d="M23,23H1V9.958l11-7.15l11,7.15V23z M3,21h18v-9.958l-9-5.85l-9,5.85V21z"/>
<polygon style="fill:#333333;" points="11,22 9,22 9,13.305 7,14.555 7,22 5,22 5,13.445 9.47,10.652 11,11.5 "/>
<polygon style="fill:#333333;" points="19,22 17,22 17,14.555 15,13.305 15,22 13,22 13,11.5 14.53,10.652 19,13.445 "/>
<rect x="4" y="21" style="fill:#333333;" width="16.5" height="2"/>
</svg>






