<?xml version="1.0" encoding="iso-8859-1"?>
<svg version="1.1" id="&#x56FE;&#x5C42;_1" xmlns="http://www.w3.org/2000/svg" xmlns:xlink="http://www.w3.org/1999/xlink" x="0px"
	 y="0px" viewBox="0 0 24 24" style="enable-background:new 0 0 24 24;" xml:space="preserve">
<path style="fill:#333333;" d="M16.803,14.023l-9.927-9.65C6.692,4.195,6.397,4.199,6.22,4.383c-0.246,0.285-0.23,0.684,0.017,0.929
	l5.012,4.965l-1.407,1.421L4.83,6.733C3.839,5.752,3.775,4.155,4.686,3.099l0.102-0.111C5.732,2.015,7.295,1.993,8.27,2.939
	l9.927,9.65L16.803,14.023z"/>
<path style="fill:#333333;" d="M7.414,14.007L1.807,8.286C0.902,7.24,1.018,5.648,2.067,4.74C3.145,3.809,4.78,3.864,5.793,4.867
	l5.457,5.412l-1.408,1.42L4.385,6.287C4.11,6.016,3.666,6.001,3.375,6.253C3.16,6.439,3.137,6.766,3.323,6.981l5.519,5.625
	L7.414,14.007z"/>
<path style="fill:#333333;" d="M14.299,22.529c-1.608,0-3.324-0.588-4.396-1.486c-0.486-0.407-2.5-2.176-7.985-7.844
	c-1.009-1.059-0.969-2.718,0.075-3.713C3.037,8.492,4.706,8.521,5.715,9.55l3.111,3.042l-1.397,1.43l-3.127-3.056
	c-0.264-0.268-0.673-0.275-0.928-0.031c-0.246,0.234-0.255,0.625-0.021,0.872c5.42,5.601,7.367,7.312,7.834,7.704
	c1.209,1.013,3.585,1.352,4.623,0.658c1.404-0.937,2.606-2.246,3.14-3.418c0.244-0.539,0.819-2.297,2.169-7.612
	c0.043-0.169,0.018-0.344-0.071-0.494s-0.231-0.256-0.4-0.299c-0.405-0.095-0.801,0.14-0.907,0.532l-1.274,4.692l-1.93-0.523
	l1.274-4.693c0.39-1.433,1.825-2.295,3.274-1.958c0.741,0.188,1.319,0.619,1.682,1.228c0.362,0.609,0.466,1.323,0.291,2.009
	c-1.128,4.443-1.876,7.043-2.287,7.947c-0.688,1.515-2.127,3.105-3.849,4.255C16.194,22.316,15.266,22.529,14.299,22.529z"/>
<path style="fill:#333333;" d="M15.026,6.889c-0.316-0.473-0.683-0.919-1.09-1.327c-0.403-0.403-0.851-0.77-1.326-1.089
	c-0.237-0.159-0.482-0.306-0.735-0.441c-0.251-0.134-0.51-0.258-0.776-0.368l0.766-1.848c0.327,0.135,0.644,0.286,0.954,0.452
	c0.312,0.167,0.613,0.348,0.905,0.543c0.584,0.391,1.131,0.841,1.628,1.337c0.499,0.501,0.949,1.048,1.337,1.629L15.026,6.889z"/>
<path style="fill:#333333;" d="M6.349,21.607c-0.319-0.151-0.629-0.318-0.93-0.501c-0.302-0.184-0.594-0.38-0.875-0.591
	c-0.56-0.418-1.083-0.896-1.555-1.42c-0.471-0.522-0.891-1.093-1.25-1.696l1.718-1.023c0.293,0.491,0.636,0.956,1.019,1.382
	c0.385,0.427,0.811,0.816,1.267,1.157c0.23,0.173,0.468,0.332,0.714,0.481c0.243,0.146,0.495,0.282,0.753,0.406L6.349,21.607z"/>
</svg>






