<?xml version="1.0" encoding="iso-8859-1"?>
<svg version="1.1" id="&#x56FE;&#x5C42;_1" xmlns="http://www.w3.org/2000/svg" xmlns:xlink="http://www.w3.org/1999/xlink" x="0px"
	 y="0px" viewBox="0 0 24 24" style="enable-background:new 0 0 24 24;" xml:space="preserve">
<path style="fill:#333333;" d="M12,23C5.935,23,1,18.065,1,12S5.935,1,12,1s11,4.935,11,11S18.065,23,12,23z M12,3
	c-4.962,0-9,4.038-9,9c0,4.963,4.038,9,9,9c4.963,0,9-4.037,9-9C21,7.038,16.963,3,12,3z"/>
<rect x="10.5" y="11" transform="matrix(0.7071 -0.7071 0.7071 0.7071 -4.9706 12)" style="fill:#333333;" width="3" height="2"/>
<path style="fill:#333333;" d="M16.949,14.121l-1.414-1.414L16.242,12c0.189-0.189,0.293-0.44,0.293-0.707s-0.104-0.518-0.293-0.707
	l-2.828-2.829c-0.391-0.39-1.023-0.39-1.414,0l-0.707,0.707L9.879,7.05l0.707-0.707c1.169-1.17,3.071-1.17,4.242,0l2.828,2.829
	c0.566,0.566,0.879,1.32,0.879,2.121c0,0.802-0.312,1.555-0.879,2.121L16.949,14.121z"/>
<path style="fill:#333333;" d="M11.292,18.533c-0.768,0-1.536-0.292-2.121-0.875l-2.829-2.83c-1.17-1.17-1.17-3.073,0-4.242
	L7.05,9.879l1.414,1.414L7.757,12c-0.39,0.39-0.39,1.024,0,1.414l2.828,2.829c0.39,0.39,1.025,0.389,1.415-0.001l0.706-0.707
	l1.416,1.414l-0.707,0.708C12.829,18.241,12.061,18.533,11.292,18.533z"/>
</svg>






