<?xml version="1.0" encoding="iso-8859-1"?>
<svg version="1.1" id="&#x56FE;&#x5C42;_1" xmlns="http://www.w3.org/2000/svg" xmlns:xlink="http://www.w3.org/1999/xlink" x="0px"
	 y="0px" viewBox="0 0 24 24" style="enable-background:new 0 0 24 24;" xml:space="preserve">
<path style="fill:#333333;" d="M1.5,20.977V2.023l4.5,1.8v15.354L1.5,20.977z M3.5,4.977v13.046l0.5-0.2V5.177L3.5,4.977z"/>
<path style="fill:#333333;" d="M7,20.977V10.023l4.5,1.8v7.354L7,20.977z M9,12.977v5.047l0.5-0.2v-4.646L9,12.977z"/>
<path style="fill:#333333;" d="M17,18.977l-4.5-1.8V9.823l4.5-1.8V18.977z M14.5,15.823l0.5,0.2v-5.046l-0.5,0.2V15.823z"/>
<path style="fill:#333333;" d="M18,20.977V3.023l4.5,1.8v14.354L18,20.977z M20,5.977v12.046l0.5-0.2V6.177L20,5.977z"/>
</svg>






