<?xml version="1.0" encoding="iso-8859-1"?>
<svg version="1.1" id="&#x56FE;&#x5C42;_1" xmlns="http://www.w3.org/2000/svg" xmlns:xlink="http://www.w3.org/1999/xlink" x="0px"
	 y="0px" viewBox="0 0 24 24" style="enable-background:new 0 0 24 24;" xml:space="preserve">
<path style="fill:#333333;" d="M17.36,22H6.64c-0.777,0-1.49-0.456-1.816-1.162l-2.538-5.5c-0.246-0.532-0.246-1.144,0-1.676
	l2.539-5.5C5.15,7.456,5.862,7,6.64,7H17.36c0.776,0,1.489,0.456,1.815,1.161l2.539,5.501c0.246,0.532,0.246,1.144-0.001,1.677
	l-2.537,5.499C18.85,21.544,18.137,22,17.36,22z M6.64,9l-2.539,5.5L6.64,20H17.36l2.538-5.5L17.36,9H6.64z"/>
<polygon style="fill:#333333;" points="10,17.5 4,17.5 4,15.5 8,15.5 8,12.5 4.5,12.5 4.5,10.5 10,10.5 "/>
<polygon style="fill:#333333;" points="20,17 11.5,17 11.5,10.5 19.5,10.5 19.5,12.5 13.5,12.5 13.5,15 20,15 "/>
<path style="fill:#333333;" d="M5.032,5.522c-0.68,0-1.056-0.022-1.094-0.024l0.124-1.996c0.022,0.001,2.292,0.13,6.109-0.299
	c3.797-0.428,8.438-2.125,8.484-2.142l0.691,1.877c-0.198,0.073-4.91,1.797-8.952,2.252C7.939,5.467,6.106,5.522,5.032,5.522z"/>
<polygon style="fill:#333333;" points="12.386,8.79 7.886,5.29 9.114,3.71 12,5.956 12,4 14,4 14,8 "/>
<path style="fill:#333333;" d="M3.592,18.169l-1.307-2.831c-0.246-0.532-0.246-1.144,0-1.676l2.114-4.581l1.816,0.838L4.102,14.5
	l1.307,2.831L3.592,18.169z"/>
<path style="fill:#333333;" d="M20.408,18.169l-1.816-0.838l1.307-2.831l-2.114-4.581l1.816-0.838l2.114,4.581
	c0.246,0.532,0.246,1.144-0.001,1.677L20.408,18.169z"/>
</svg>






