<?xml version="1.0" encoding="iso-8859-1"?>
<svg version="1.1" id="&#x56FE;&#x5C42;_1" xmlns="http://www.w3.org/2000/svg" xmlns:xlink="http://www.w3.org/1999/xlink" x="0px"
	 y="0px" viewBox="0 0 24 24" style="enable-background:new 0 0 24 24;" xml:space="preserve">
<path style="fill:#333333;" d="M21,16H3.5V8.303L15.784,2.79L21,8.565V16z M5.5,14H19V9.335L15.274,5.21L5.5,9.598V14z"/>
<path style="fill:#333333;" d="M14.688,13.25c-1.344,0-2.438-1.094-2.438-2.438V10H4.5V8h9.693l0.057,1.057v1.755
	c0,0.241,0.196,0.438,0.438,0.438s0.438-0.196,0.438-0.438V8.057L16.182,8H20v2h-2.875v0.812
	C17.125,12.156,16.031,13.25,14.688,13.25z"/>
<path style="fill:#333333;" d="M12,21c-6.271,0-11-2.472-11-5.75c0-0.953,0.41-2.356,2.365-3.631
	c0.289-0.188,0.602-0.366,0.938-0.535l0.895,1.789c-0.266,0.133-0.513,0.272-0.74,0.421C3.913,13.648,3,14.375,3,15.25
	C3,17.023,6.696,19,12,19c5.151,0,9-1.979,9-3.75c0-0.9-0.961-1.643-1.534-2.005l1.068-1.691C22.572,12.843,23,14.275,23,15.25
	C23,18.528,18.271,21,12,21z"/>
</svg>






