<?xml version="1.0" encoding="iso-8859-1"?>
<svg version="1.1" id="&#x56FE;&#x5C42;_1" xmlns="http://www.w3.org/2000/svg" xmlns:xlink="http://www.w3.org/1999/xlink" x="0px"
	 y="0px" viewBox="0 0 24 24" style="enable-background:new 0 0 24 24;" xml:space="preserve">
<path style="fill:#333333;" d="M17.465,22H6.535c-0.864,0-1.627-0.551-1.899-1.371l-2.585-7.814l1.898-0.629L6.535,20h10.93
	l2.586-7.814l1.898,0.629l-2.586,7.814C19.094,21.448,18.33,22,17.465,22z"/>
<path style="fill:#333333;" d="M12,15.922c-1.361,0-2.722-0.476-3.807-1.426c-0.688-0.603-1.573-0.935-2.489-0.935H3.158
	c-0.31,0-0.611-0.127-0.827-0.348c-0.216-0.221-0.336-0.524-0.329-0.834c0.089-3.906,3.002-7.261,7.25-8.349L9.5,4l5.276,0.039
	c4.158,1.196,7.128,4.625,7.222,8.339c0.007,0.312-0.113,0.614-0.329,0.835c-0.216,0.222-0.518,0.349-0.827,0.349h-2.545
	c-0.917,0-1.801,0.332-2.489,0.935C14.722,15.446,13.361,15.922,12,15.922z M4.087,11.562h1.616c1.401,0,2.753,0.508,3.807,1.431
	c1.419,1.242,3.559,1.243,4.98,0c1.053-0.923,2.405-1.431,3.807-1.431h1.605C19.424,9.117,17.229,6.874,14.355,6H9.629
	C6.701,6.793,4.539,9.001,4.087,11.562z"/>
<path style="fill:#333333;" d="M8.57,5.198C8.523,4.97,8.5,4.735,8.5,4.5C8.5,2.57,10.07,1,12,1s3.5,1.57,3.5,3.5
	c0,0.231-0.023,0.465-0.069,0.695L13.47,4.805c0.02-0.099,0.03-0.2,0.03-0.305C13.5,3.673,12.827,3,12,3s-1.5,0.673-1.5,1.5
	c0,0.104,0.01,0.204,0.03,0.302L8.57,5.198z"/>
</svg>






