<?xml version="1.0" encoding="iso-8859-1"?>
<svg version="1.1" id="&#x56FE;&#x5C42;_1" xmlns="http://www.w3.org/2000/svg" xmlns:xlink="http://www.w3.org/1999/xlink" x="0px"
	 y="0px" viewBox="0 0 24 24" style="enable-background:new 0 0 24 24;" xml:space="preserve">
<path style="fill:#333333;" d="M18.5,19h-13c-1.103,0-2-0.897-2-2V8c0-1.103,0.897-2,2-2h13c1.103,0,2,0.897,2,2v9
	C20.5,18.103,19.603,19,18.5,19z M5.5,8v9h13V8H5.5z"/>
<rect x="3" y="17" style="fill:#333333;" width="18" height="2"/>
<rect x="3" y="20" style="fill:#333333;" width="18" height="2"/>
<polygon style="fill:#333333;" points="17.5,15.5 12.5,15.5 12.5,11.5 11.5,11.5 11.5,14 6.5,14 6.5,11.5 4.5,11.5 4.5,9.5 8.5,9.5 
	8.5,12 9.5,12 9.5,9.5 14.5,9.5 14.5,13.5 15.5,13.5 15.5,9.5 19.5,9.5 19.5,11.5 17.5,11.5 "/>
<rect x="3.5" y="9.5" style="fill:#333333;" width="2" height="2"/>
<rect x="18.5" y="9.5" style="fill:#333333;" width="2" height="2"/>
<rect x="15.5" y="4" style="fill:#333333;" width="2" height="3"/>
<rect x="11" y="2" style="fill:#333333;" width="2" height="5"/>
<rect x="6.5" y="4" style="fill:#333333;" width="2" height="3"/>
</svg>






