<?xml version="1.0" encoding="iso-8859-1"?>
<svg version="1.1" id="&#x56FE;&#x5C42;_1" xmlns="http://www.w3.org/2000/svg" xmlns:xlink="http://www.w3.org/1999/xlink" x="0px"
	 y="0px" viewBox="0 0 24 24" style="enable-background:new 0 0 24 24;" xml:space="preserve">
<path style="fill:#333333;" d="M17.918,23H6.082L3.187,12.5h17.626L17.918,23z M7.605,21h8.789l1.792-6.5H5.813L7.605,21z"/>
<path style="fill:#333333;" d="M20.5,14.5h-17v-1c0-2.566,1.871-4.042,2.812-4.623C6.631,7.171,8.205,4.5,12,4.5
	s5.369,2.671,5.688,4.377C18.629,9.458,20.5,10.934,20.5,13.5V14.5z M5.676,12.5h12.648c-0.503-1.38-1.92-2.058-1.992-2.092
	l-0.577-0.27L15.75,9.5c0-0.03-0.279-3-3.75-3s-3.75,2.97-3.75,3v0.644L7.664,10.41C7.595,10.442,6.179,11.12,5.676,12.5z"/>
<rect x="3" y="12.5" style="fill:#333333;" width="18" height="2"/>
<path style="fill:#333333;" d="M15,6h-2c0-0.551-0.448-1-1-1c-0.551,0-1,0.449-1,1H9c0-1.654,1.346-3,3-3S15,4.346,15,6z"/>
<rect x="11.586" y="2" transform="matrix(0.7071 -0.7071 0.7071 0.7071 1.6863 10.0711)" style="fill:#333333;" width="2.828" height="2"/>
<rect x="9" y="13.5" style="fill:#333333;" width="2" height="8.5"/>
<rect x="13" y="13.5" style="fill:#333333;" width="2" height="8.5"/>
</svg>






