<?xml version="1.0" encoding="iso-8859-1"?>
<svg version="1.1" id="&#x56FE;&#x5C42;_1" xmlns="http://www.w3.org/2000/svg" xmlns:xlink="http://www.w3.org/1999/xlink" x="0px"
	 y="0px" viewBox="0 0 24 24" style="enable-background:new 0 0 24 24;" xml:space="preserve">
<polygon style="fill:#333333;" points="19.5,11.95 4.5,11.95 4.098,10.035 13.098,6.084 13.902,7.916 9.267,9.95 17.54,9.95 
	16.19,8.087 17.81,6.913 20.31,10.363 "/>
<g>
	<circle style="fill:#333333;" cx="15.5" cy="6.5" r="2"/>
	<path style="fill:#333333;" d="M15.5,9.5c-1.654,0-3-1.346-3-3s1.346-3,3-3s3,1.346,3,3S17.154,9.5,15.5,9.5z M15.5,5.5
		c-0.552,0-1,0.449-1,1s0.448,1,1,1s1-0.449,1-1S16.052,5.5,15.5,5.5z"/>
</g>
<rect x="15.654" y="2.25" transform="matrix(0.3715 -0.9284 0.9284 0.3715 7.6675 17.8262)" style="fill:#333333;" width="2.693" height="2.001"/>
<path style="fill:#333333;" d="M12,22.5c-6.271,0-11-2.472-11-5.75c0-0.953,0.41-2.356,2.365-3.632
	c0.289-0.188,0.602-0.366,0.938-0.534l0.895,1.789c-0.266,0.133-0.513,0.272-0.74,0.421C3.913,15.148,3,15.875,3,16.75
	c0,1.773,3.696,3.75,9,3.75c5.151,0,9-1.979,9-3.75c0-0.9-0.961-1.643-1.534-2.005l1.068-1.691C22.572,14.343,23,15.775,23,16.75
	C23,20.028,18.271,22.5,12,22.5z"/>
<path style="fill:#333333;" d="M20.5,18h-17v-8h17V18z M5.5,16h13v-4h-13V16z"/>
<rect x="4.5" y="10" style="fill:#333333;" width="15.5" height="2"/>
</svg>






