<?xml version="1.0" encoding="iso-8859-1"?>
<svg version="1.1" id="&#x56FE;&#x5C42;_1" xmlns="http://www.w3.org/2000/svg" xmlns:xlink="http://www.w3.org/1999/xlink" x="0px"
	 y="0px" viewBox="0 0 24 24" style="enable-background:new 0 0 24 24;" xml:space="preserve">
<rect x="11" y="6" style="fill:#333333;" width="2" height="2.5"/>
<path style="fill:#333333;" d="M19,22H5c-1.103,0-2-0.897-2-2v-6.5h2V20h14v-6.5h2V20C21,21.103,20.103,22,19,22z"/>
<path style="fill:#333333;" d="M20.003,14.349c-0.403,0-0.806-0.097-1.173-0.29l-0.175-0.093c-0.199-0.105-0.442-0.105-0.647,0.002
	c-0.787,0.414-1.728,0.414-2.515,0c-0.205-0.106-0.449-0.108-0.652,0c-0.788,0.414-1.729,0.413-2.515,0
	c-0.203-0.107-0.448-0.107-0.652,0c-0.788,0.414-1.728,0.414-2.515,0c-0.205-0.107-0.449-0.106-0.652,0
	c-0.787,0.414-1.728,0.414-2.515,0c-0.204-0.107-0.448-0.107-0.652,0l-0.167,0.089c-0.659,0.348-1.428,0.387-2.114,0.11
	C1.809,13.667,1,12.473,1,11.124v-0.14C1,9.063,2.563,7.5,4.484,7.5h15.031C21.437,7.5,23,9.063,23,10.984v0.14
	c0,1.349-0.81,2.544-2.062,3.044C20.638,14.289,20.319,14.349,20.003,14.349z M18.333,11.887c0.433,0,0.864,0.104,1.258,0.311
	l0.175,0.093c0.129,0.068,0.286,0.076,0.429,0.021C20.685,12.115,21,11.65,21,11.124v-0.14c0-0.818-0.666-1.484-1.484-1.484H4.484
	C3.666,9.5,3,10.166,3,10.984v0.14c0,0.526,0.315,0.991,0.803,1.187c0.143,0.058,0.301,0.049,0.436-0.021L4.406,12.2
	c0.792-0.417,1.73-0.417,2.519-0.002c0.204,0.107,0.447,0.107,0.651,0c0.789-0.415,1.728-0.415,2.515,0
	c0.204,0.108,0.448,0.107,0.652,0c0.787-0.414,1.727-0.415,2.514,0c0.203,0.107,0.447,0.107,0.652,0
	c0.788-0.416,1.729-0.416,2.515,0c0.203,0.107,0.448,0.107,0.653,0C17.47,11.991,17.901,11.887,18.333,11.887z"/>
<path style="fill:#333333;" d="M12,6.875c-0.526,0-1.053-0.147-1.493-0.441C9.671,5.875,9.302,4.892,9.52,3.804
	C10.065,1.079,11.804,1,12,1s1.935,0.079,2.48,2.804l0,0c0.218,1.088-0.151,2.072-0.987,2.631C13.054,6.729,12.527,6.875,12,6.875z
	 M12,3.049c-0.146,0.12-0.377,0.44-0.519,1.147c-0.085,0.426,0.077,0.535,0.138,0.576c0.208,0.137,0.556,0.137,0.763,0
	c0.061-0.041,0.223-0.149,0.138-0.576C12.378,3.489,12.146,3.168,12,3.049z"/>
</svg>






