<?xml version="1.0" encoding="iso-8859-1"?>
<svg version="1.1" id="&#x56FE;&#x5C42;_1" xmlns="http://www.w3.org/2000/svg" xmlns:xlink="http://www.w3.org/1999/xlink" x="0px"
	 y="0px" viewBox="0 0 24 24" style="enable-background:new 0 0 24 24;" xml:space="preserve">
<path style="fill:#333333;" d="M20,23H4c-1.103,0-2-0.897-2-2V3c0-1.103,0.897-2,2-2h16c1.103,0,2,0.897,2,2v18
	C22,22.103,21.103,23,20,23z M4,3v18h16V3H4z"/>
<path style="fill:#333333;" d="M18.5,10.5h-13V4h13V10.5z M7.5,8.5h9V6h-9V8.5z"/>
<rect x="6.75" y="13.275" transform="matrix(0.7071 -0.7071 0.7071 0.7071 -8.867 10.0931)" style="fill:#333333;" width="2" height="4.95"/>
<rect x="5.275" y="14.75" transform="matrix(0.7071 -0.7071 0.7071 0.7071 -8.867 10.0931)" style="fill:#333333;" width="4.95" height="2"/>
<rect x="14" y="16.5" style="fill:#333333;" width="4" height="2"/>
<rect x="14" y="13.5" style="fill:#333333;" width="4" height="2"/>
</svg>






