<?xml version="1.0" encoding="iso-8859-1"?>
<svg version="1.1" id="&#x56FE;&#x5C42;_1" xmlns="http://www.w3.org/2000/svg" xmlns:xlink="http://www.w3.org/1999/xlink" x="0px"
	 y="0px" viewBox="0 0 24 24" style="enable-background:new 0 0 24 24;" xml:space="preserve">
<path style="fill:#333333;" d="M21,23H3c-1.103,0-2-0.897-2-2V5c0-1.103,0.897-2,2-2h18c1.103,0,2,0.897,2,2v16
	C23,22.103,22.103,23,21,23z M3,5H2.999L3,21h18V5H3z"/>
<rect x="2" y="9" style="fill:#333333;" width="20" height="2"/>
<rect x="2" y="15" style="fill:#333333;" width="20" height="2"/>
<rect x="7.5" y="2" style="fill:#333333;" width="2" height="4"/>
<rect x="14.5" y="2" style="fill:#333333;" width="2" height="4"/>
<rect x="7.5" y="10" style="fill:#333333;" width="2" height="12"/>
<rect x="14.5" y="10" style="fill:#333333;" width="2" height="12"/>
<rect x="21" y="6.5" style="fill:#333333;" width="2" height="13"/>
<rect x="1" y="6.5" style="fill:#333333;" width="2" height="13"/>
<rect x="7" y="21" style="fill:#333333;" width="10" height="2"/>
</svg>






