<?xml version="1.0" encoding="iso-8859-1"?>
<svg version="1.1" id="&#x56FE;&#x5C42;_1" xmlns="http://www.w3.org/2000/svg" xmlns:xlink="http://www.w3.org/1999/xlink" x="0px"
	 y="0px" viewBox="0 0 24 24" style="enable-background:new 0 0 24 24;" xml:space="preserve">
<path style="fill:#333333;" d="M20.5,22h-17c-1.103,0-2-0.897-2-2V8.5h21V20C22.5,21.103,21.603,22,20.5,22z M3.5,10.5V20h17v-9.5
	H3.5z"/>
<path style="fill:#333333;" d="M22.5,10.5h-21v-6c0-1.103,0.897-2,2-2h17c1.103,0,2,0.897,2,2V10.5z M3.5,8.5h17v-4h-17V8.5z"/>
<rect x="7" y="2" style="fill:#333333;" width="2" height="4"/>
<rect x="15" y="2" style="fill:#333333;" width="2" height="4"/>
<rect x="14" y="16" style="fill:#333333;" width="3" height="2"/>
<rect x="7" y="16" style="fill:#333333;" width="3" height="2"/>
<rect x="14" y="12" style="fill:#333333;" width="3" height="2"/>
<rect x="7" y="12" style="fill:#333333;" width="3" height="2"/>
</svg>






