<?xml version="1.0" encoding="iso-8859-1"?>
<svg version="1.1" id="&#x56FE;&#x5C42;_1" xmlns="http://www.w3.org/2000/svg" xmlns:xlink="http://www.w3.org/1999/xlink" x="0px"
	 y="0px" viewBox="0 0 24 24" style="enable-background:new 0 0 24 24;" xml:space="preserve">
<path style="fill:#333333;" d="M12,17.5c-4.411,0-8-3.589-8-8s3.589-8,8-8s8,3.589,8,8S16.411,17.5,12,17.5z M12,3.5
	c-3.309,0-6,2.691-6,6s2.691,6,6,6s6-2.691,6-6S15.309,3.5,12,3.5z"/>
<path style="fill:#333333;" d="M12,13.5c-2.206,0-4-1.794-4-4s1.794-4,4-4c2.206,0,4,1.794,4,4S14.206,13.5,12,13.5z M12,7.5
	c-1.103,0-2,0.897-2,2s0.897,2,2,2c1.103,0,2-0.897,2-2S13.103,7.5,12,7.5z"/>
<polygon style="fill:#333333;" points="20.118,22.5 3.882,22.5 7.605,15.053 9.395,15.947 7.118,20.5 16.882,20.5 14.605,15.947 
	16.395,15.053 "/>
</svg>






