<?xml version="1.0" encoding="iso-8859-1"?>
<svg version="1.1" id="&#x56FE;&#x5C42;_1" xmlns="http://www.w3.org/2000/svg" xmlns:xlink="http://www.w3.org/1999/xlink" x="0px"
	 y="0px" viewBox="0 0 24 24" style="enable-background:new 0 0 24 24;" xml:space="preserve">
<path style="fill:#333333;" d="M20,21H4c-1.103,0-2-0.897-2-2V8c0-1.103,0.897-2,2-2h16c1.103,0,2,0.897,2,2v11
	C22,20.103,21.103,21,20,21z M4,8H3.999L4,19h16V8H4z"/>
<path style="fill:#333333;" d="M12.425,8H3.576l1.806-5h5.237L12.425,8z M6.424,6h3.151L9.214,5H6.786L6.424,6z"/>
<path style="fill:#333333;" d="M14.5,18c-2.481,0-4.5-2.019-4.5-4.5S12.019,9,14.5,9s4.5,2.019,4.5,4.5S16.981,18,14.5,18z M14.5,11
	c-1.379,0-2.5,1.121-2.5,2.5s1.121,2.5,2.5,2.5s2.5-1.121,2.5-2.5S15.879,11,14.5,11z"/>
<rect x="17" y="5" style="fill:#333333;" width="2" height="2"/>
</svg>






