<?xml version="1.0" encoding="iso-8859-1"?>
<svg version="1.1" id="&#x56FE;&#x5C42;_1" xmlns="http://www.w3.org/2000/svg" xmlns:xlink="http://www.w3.org/1999/xlink" x="0px"
	 y="0px" viewBox="0 0 24 24" style="enable-background:new 0 0 24 24;" xml:space="preserve">
<path style="fill:#333333;" d="M18.118,7H5.882l2.5-5h7.236L18.118,7z M9.118,5h5.764l-0.5-1H9.618L9.118,5z"/>
<path style="fill:#333333;" d="M20.5,22h-17C2.122,22,1,20.879,1,19.5v-12C1,6.122,2.122,5,3.5,5h17C21.879,5,23,6.122,23,7.5v12
	C23,20.879,21.879,22,20.5,22z M3.5,7C3.224,7,3,7.224,3,7.5v12C3,19.775,3.224,20,3.5,20h17c0.275,0,0.5-0.225,0.5-0.5v-12
	C21,7.224,20.775,7,20.5,7H3.5z"/>
<path style="fill:#333333;" d="M12,18.5c-2.757,0-5-2.243-5-5s2.243-5,5-5s5,2.243,5,5S14.757,18.5,12,18.5z M12,10.5
	c-1.654,0-3,1.346-3,3s1.346,3,3,3s3-1.346,3-3S13.654,10.5,12,10.5z"/>
</svg>






