<?xml version="1.0" encoding="iso-8859-1"?>
<svg version="1.1" id="&#x56FE;&#x5C42;_1" xmlns="http://www.w3.org/2000/svg" xmlns:xlink="http://www.w3.org/1999/xlink" x="0px"
	 y="0px" viewBox="0 0 24 24" style="enable-background:new 0 0 24 24;" xml:space="preserve">
<path style="fill:#333333;" d="M12,19.5c-4.962,0-9-4.037-9-9c0-4.962,4.038-9,9-9c4.963,0,9,4.038,9,9
	C21,15.463,16.963,19.5,12,19.5z M12,3.5c-3.86,0-7,3.14-7,7c0,3.859,3.14,7,7,7c3.859,0,7-3.141,7-7C19,6.64,15.859,3.5,12,3.5z"/>
<path style="fill:#333333;" d="M12,15c-2.481,0-4.5-2.019-4.5-4.5S9.519,6,12,6s4.5,2.019,4.5,4.5S14.481,15,12,15z M12,8
	c-1.378,0-2.5,1.122-2.5,2.5S10.622,13,12,13c1.379,0,2.5-1.122,2.5-2.5S13.379,8,12,8z"/>
<rect x="8" y="20.5" style="fill:#333333;" width="8" height="2"/>
<rect x="11" y="18.5" style="fill:#333333;" width="2" height="3"/>
</svg>






