<?xml version="1.0" encoding="iso-8859-1"?>
<svg version="1.1" id="&#x56FE;&#x5C42;_1" xmlns="http://www.w3.org/2000/svg" xmlns:xlink="http://www.w3.org/1999/xlink" x="0px"
	 y="0px" viewBox="0 0 24 24" style="enable-background:new 0 0 24 24;" xml:space="preserve">
<path style="fill:#333333;" d="M12,19c-3.86,0-7-3.141-7-7V8c0-3.86,3.14-7,7-7c3.859,0,7,3.14,7,7v4C19,15.859,15.859,19,12,19z
	 M12,3C9.243,3,7,5.243,7,8v4c0,2.757,2.243,5,5,5s5-2.243,5-5V8C17,5.243,14.757,3,12,3z"/>
<rect x="11" y="18" style="fill:#333333;" width="2" height="4"/>
<rect x="8" y="21" style="fill:#333333;" width="8" height="2"/>
<path style="fill:#333333;" d="M12,12.5c-2.206,0-4-1.794-4-4s1.794-4,4-4c2.206,0,4,1.794,4,4S14.206,12.5,12,12.5z M12,6.5
	c-1.103,0-2,0.897-2,2s0.897,2,2,2c1.103,0,2-0.897,2-2S13.103,6.5,12,6.5z"/>
<circle style="fill:#333333;" cx="12" cy="14.5" r="1"/>
</svg>






