<?xml version="1.0" encoding="iso-8859-1"?>
<svg version="1.1" id="&#x56FE;&#x5C42;_1" xmlns="http://www.w3.org/2000/svg" xmlns:xlink="http://www.w3.org/1999/xlink" x="0px"
	 y="0px" viewBox="0 0 24 24" style="enable-background:new 0 0 24 24;" xml:space="preserve">
<polygon style="fill:#333333;" points="22,18.5 19.415,18.5 12,5.293 4.585,18.5 2,18.5 2,16.5 3.415,16.5 11.128,2.76 12.872,2.76 
	20.585,16.5 22,16.5 "/>
<path style="fill:#333333;" d="M15.5,21.5h-7v-2c0-2.804,1.538-5,3.5-5c1.963,0,3.5,2.196,3.5,5V21.5z M10.5,19.5h3
	c0-1.717-0.792-3-1.5-3S10.5,17.783,10.5,19.5z"/>
<rect x="2" y="19.5" style="fill:#333333;" width="20" height="2"/>
<path style="fill:#333333;" d="M15.876,12.281C15.254,11.786,13.346,10.5,12,10.5c-1.346,0-3.298,1.319-3.875,1.781l-1.249-1.562
	C7.159,10.492,9.715,8.5,12,8.5c2.285,0,4.841,1.992,5.125,2.219L15.876,12.281z"/>
<polygon style="fill:#333333;" points="19.168,6.555 17.798,4.5 19.168,2.445 20.832,3.555 20.202,4.5 20.832,5.445 "/>
<polygon style="fill:#333333;" points="20.832,6.555 19.168,5.445 19.798,4.5 19.168,3.555 20.832,2.445 22.202,4.5 "/>
<polygon style="fill:#333333;" points="2.605,10.947 1.882,9.5 2.605,8.053 4.395,8.947 4.118,9.5 4.395,10.053 "/>
<polygon style="fill:#333333;" points="4.395,10.947 2.605,10.053 2.882,9.5 2.605,8.947 4.395,8.053 5.118,9.5 "/>
</svg>






