<?xml version="1.0" encoding="iso-8859-1"?>
<svg version="1.1" id="&#x56FE;&#x5C42;_1" xmlns="http://www.w3.org/2000/svg" xmlns:xlink="http://www.w3.org/1999/xlink" x="0px"
	 y="0px" viewBox="0 0 24 24" style="enable-background:new 0 0 24 24;" xml:space="preserve">
<path style="fill:#333333;" d="M18.5,12.5c-2.206,0-4-1.794-4-4s1.794-4,4-4s4,1.794,4,4S20.706,12.5,18.5,12.5z M18.5,6.5
	c-1.103,0-2,0.897-2,2s0.897,2,2,2s2-0.897,2-2S19.603,6.5,18.5,6.5z"/>
<path style="fill:#333333;" d="M3.798,7.102L2.2,5.9C2.335,5.72,5.562,1.5,11,1.5c5.353,0,8.572,3.158,8.707,3.293l-1.414,1.414
	C18.268,6.183,15.495,3.5,11,3.5C6.583,3.5,3.826,7.066,3.798,7.102z"/>
<path style="fill:#333333;" d="M5.5,19.5c-2.206,0-4-1.794-4-4s1.794-4,4-4s4,1.794,4,4S7.706,19.5,5.5,19.5z M5.5,13.5
	c-1.103,0-2,0.897-2,2s0.897,2,2,2s2-0.897,2-2S6.603,13.5,5.5,13.5z"/>
<path style="fill:#333333;" d="M13,22.5c-5.353,0-8.573-3.158-8.707-3.293l1.414-1.414C5.732,17.817,8.505,20.5,13,20.5
	c4.418,0,7.175-3.566,7.201-3.603L21.8,18.1C21.665,18.279,18.438,22.5,13,22.5z"/>
</svg>






