<?xml version="1.0" encoding="iso-8859-1"?>
<svg version="1.1" id="&#x56FE;&#x5C42;_1" xmlns="http://www.w3.org/2000/svg" xmlns:xlink="http://www.w3.org/1999/xlink" x="0px"
	 y="0px" viewBox="0 0 24 24" style="enable-background:new 0 0 24 24;" xml:space="preserve">
<path style="fill:#333333;" d="M12,18c-3.309,0-6-2.691-6-6s2.691-6,6-6s6,2.691,6,6S15.309,18,12,18z M12,8c-2.206,0-4,1.794-4,4
	c0,2.206,1.794,4,4,4c2.206,0,4-1.794,4-4C16,9.794,14.206,8,12,8z"/>
<path style="fill:#333333;" d="M12,15c-1.654,0-3-1.346-3-3h2c0,0.552,0.449,1,1,1V15z"/>
<path style="fill:#333333;" d="M9.525,9.587L1.811,8.473L1.247,6.776L6.714,1.31l1.697,0.564L9.525,9.587z M4.073,6.779l3.09,0.446
	l-0.446-3.09L4.073,6.779z"/>
<path style="fill:#333333;" d="M17.286,22.753l-1.696-0.564l-1.114-7.713l7.713,1.114l0.564,1.696L17.286,22.753z M16.837,16.837
	l0.446,3.091l2.645-2.645L16.837,16.837z"/>
</svg>






