<?xml version="1.0" encoding="iso-8859-1"?>
<svg version="1.1" id="&#x56FE;&#x5C42;_1" xmlns="http://www.w3.org/2000/svg" xmlns:xlink="http://www.w3.org/1999/xlink" x="0px"
	 y="0px" viewBox="0 0 24 24" style="enable-background:new 0 0 24 24;" xml:space="preserve">
<path style="fill:#333333;" d="M7.03,16.742c-0.778-3.111-0.545-4.732-0.516-4.907l1.973,0.329L7.5,12l0.988,0.155
	c-0.002,0.014-0.194,1.396,0.482,4.103L7.03,16.742z"/>
<path style="fill:#333333;" d="M15.942,22.5H8.021c-1.867,0-3.49-1.312-3.86-3.121C3.631,16.794,3,13.237,3,10.969
	C3,8.88,3.831,6.861,4.528,5.535l1.771,0.931C5.706,7.592,5,9.288,5,10.969c0,1.639,0.397,4.483,1.12,8.01
	C6.3,19.86,7.1,20.5,8.021,20.5h7.921c0.935,0,1.742-0.654,1.919-1.555C18.596,15.212,19,12.379,19,10.969
	c0-1.51-0.62-3.328-1.141-4.586l1.848-0.765C20.297,7.044,21,9.13,21,10.969c0,1.968-0.64,5.634-1.176,8.363
	C19.462,21.168,17.83,22.5,15.942,22.5z"/>
<path style="fill:#333333;" d="M19.081,7H4.919c-0.55,0-1.055-0.3-1.317-0.783c-0.263-0.483-0.24-1.07,0.059-1.532l1.294-2
	C5.231,2.256,5.703,2,6.213,2h11.574c0.51,0,0.979,0.255,1.258,0.683l1.296,2.002c0.299,0.462,0.32,1.049,0.058,1.532
	S19.631,7,19.081,7z M5.838,5h12.324l-0.647-1H6.485L5.838,5z"/>
</svg>






