<?xml version="1.0" encoding="iso-8859-1"?>
<svg version="1.1" id="&#x56FE;&#x5C42;_1" xmlns="http://www.w3.org/2000/svg" xmlns:xlink="http://www.w3.org/1999/xlink" x="0px"
	 y="0px" viewBox="0 0 24 24" style="enable-background:new 0 0 24 24;" xml:space="preserve">
<path style="fill:#333333;" d="M10,5.5H8c0-1.103-0.897-2-2-2s-2,0.897-2,2H2c0-2.206,1.794-4,4-4S10,3.294,10,5.5z"/>
<rect x="8" y="5.5" style="fill:#333333;" width="2" height="9"/>
<path style="fill:#333333;" d="M16,5.5h-2c0-1.103-0.897-2-2-2c-1.103,0-2,0.897-2,2H8c0-2.206,1.794-4,4-4
	C14.206,1.5,16,3.294,16,5.5z"/>
<path style="fill:#333333;" d="M11,22.5v-2c2.816,0,2.993-2.193,3-2.633V5.5h2v12.375C16,19.475,14.955,22.5,11,22.5z"/>
<path style="fill:#333333;" d="M18,19c-2.206,0-4-1.794-4-4s1.794-4,4-4s4,1.794,4,4S20.206,19,18,19z M18,13c-1.103,0-2,0.897-2,2
	s0.897,2,2,2s2-0.897,2-2S19.103,13,18,13z"/>
</svg>






