<?xml version="1.0" encoding="iso-8859-1"?>
<svg version="1.1" id="&#x56FE;&#x5C42;_1" xmlns="http://www.w3.org/2000/svg" xmlns:xlink="http://www.w3.org/1999/xlink" x="0px"
	 y="0px" viewBox="0 0 24 24" style="enable-background:new 0 0 24 24;" xml:space="preserve">
<path style="fill-rule:evenodd;clip-rule:evenodd;fill:#333333;" d="M6.75,16C7.44,16,8,15.44,8,14.75S7.44,13.5,6.75,13.5
	S5.5,14.06,5.5,14.75S6.06,16,6.75,16z"/>
<path style="fill-rule:evenodd;clip-rule:evenodd;fill:#333333;" d="M17.25,16c0.69,0,1.25-0.56,1.25-1.25s-0.56-1.25-1.25-1.25
	S16,14.06,16,14.75S16.56,16,17.25,16z"/>
<path style="fill:#333333;" d="M17.501,22c-1.484,0-2.721-1.083-2.959-2.5H9.458C9.22,20.917,7.984,22,6.5,22
	c-1.483,0-2.719-1.083-2.958-2.5H3.5C2.122,19.5,1,18.379,1,17v-4.646c0-1.495,0.815-2.843,2.133-3.538l1.048-4.498
	C4.5,2.954,5.701,2,7.103,2h9.844c1.416,0,2.62,0.965,2.928,2.346l1,4.474C22.188,9.516,23,10.862,23,12.354V17
	c0,1.379-1.121,2.5-2.5,2.5h-0.04C20.222,20.917,18.985,22,17.501,22z M7.5,17.5h9V19c0,0.552,0.449,1,1.001,1s1.001-0.448,1.001-1
	v-1.5H20.5c0.275,0,0.5-0.225,0.5-0.5v-4.646c0-0.763-0.424-1.448-1.105-1.789l-0.765-0.383l-1.206-5.401
	C17.82,4.321,17.419,4,16.947,4H7.103C6.636,4,6.235,4.318,6.129,4.773l-1.262,5.414l-0.763,0.379C3.424,10.907,3,11.592,3,12.354
	V17c0,0.275,0.224,0.5,0.5,0.5h2V19c0,0.552,0.448,1,1,1s1-0.448,1-1V17.5z"/>
<path style="fill:#333333;" d="M18.247,12H5.753L6.85,7.066C7.055,6.144,7.857,5.5,8.802,5.5h6.396c0.944,0,1.747,0.644,1.952,1.566
	L18.247,12z M8.247,10h7.506l-0.556-2.5H8.802L8.247,10z"/>
</svg>






