<?xml version="1.0" encoding="iso-8859-1"?>
<svg version="1.1" id="&#x56FE;&#x5C42;_1" xmlns="http://www.w3.org/2000/svg" xmlns:xlink="http://www.w3.org/1999/xlink" x="0px"
	 y="0px" viewBox="0 0 24 24" style="enable-background:new 0 0 24 24;" xml:space="preserve">
<path style="fill:#333333;" d="M21,19.5H3c-1.103,0-2-0.897-2-2v-12c0-1.103,0.897-2,2-2h18c1.103,0,2,0.897,2,2v12
	C23,18.603,22.103,19.5,21,19.5z M3,5.5v12h18v-12H3z"/>
<path style="fill:#333333;" d="M15,15.5H9v-8h6V15.5z M11,13.5h2v-4h-2V13.5z"/>
<polygon style="fill:#333333;" points="22,15.5 17,15.5 17,7.5 22,7.5 22,9.5 19,9.5 19,13.5 22,13.5 "/>
<polygon style="fill:#333333;" points="7,15.5 2,15.5 2,13.5 5,13.5 5,9.5 2,9.5 2,7.5 7,7.5 "/>
<rect x="1" y="6.5" style="fill:#333333;" width="2" height="10"/>
<rect x="21" y="6.5" style="fill:#333333;" width="2" height="10"/>
</svg>






