<?xml version="1.0" encoding="iso-8859-1"?>
<svg version="1.1" id="&#x56FE;&#x5C42;_1" xmlns="http://www.w3.org/2000/svg" xmlns:xlink="http://www.w3.org/1999/xlink" x="0px"
	 y="0px" viewBox="0 0 24 24" style="enable-background:new 0 0 24 24;" xml:space="preserve">
<path style="fill:#333333;" d="M12,23c-1.242,0-2.315-0.842-2.61-2.047L6.841,10.58C6.449,8.984,6.806,7.327,7.819,6.034
	C8.833,4.742,10.357,4,12,4c1.643,0,3.167,0.742,4.181,2.035s1.37,2.95,0.978,4.545L14.61,20.953C14.314,22.158,13.241,23,12,23z
	 M8.783,10.103l2.549,10.374C11.408,20.785,11.682,21,12,21c0.317,0,0.593-0.216,0.669-0.523l2.548-10.374
	c0.244-0.995,0.021-2.028-0.61-2.834S13.024,6,12,6s-1.975,0.462-2.607,1.269C8.761,8.075,8.539,9.108,8.783,10.103L8.783,10.103z"
	/>
<rect x="11" y="2" style="fill:#333333;" width="2" height="2.75"/>
<rect x="13.309" y="2.609" transform="matrix(0.6429 -0.766 0.766 0.6429 2.3677 12.2951)" style="fill:#333333;" width="2.121" height="1.999"/>
<rect x="8.682" y="2.548" transform="matrix(0.766 -0.6429 0.6429 0.766 -0.054 7.0684)" style="fill:#333333;" width="2" height="2.121"/>
<rect x="8" y="8.5" style="fill:#333333;" width="3" height="2"/>
<rect x="12.5" y="12" style="fill:#333333;" width="3" height="2"/>
<rect x="9.5" y="16" style="fill:#333333;" width="2" height="2"/>
</svg>






