<?xml version="1.0" encoding="iso-8859-1"?>
<svg version="1.1" id="&#x56FE;&#x5C42;_1" xmlns="http://www.w3.org/2000/svg" xmlns:xlink="http://www.w3.org/1999/xlink" x="0px"
	 y="0px" viewBox="0 0 24 24" style="enable-background:new 0 0 24 24;" xml:space="preserve">
<path style="fill:#333333;" d="M11.5,19.5h-2c0-3.859-3.14-7-7-7v-2C7.462,10.5,11.5,14.537,11.5,19.5z"/>
<path style="fill:#333333;" d="M7.5,19.5h-2c0-1.654-1.346-3-3-3v-2C5.257,14.5,7.5,16.743,7.5,19.5z"/>
<path style="fill-rule:evenodd;clip-rule:evenodd;fill:#333333;" d="M2.75,20.5C3.44,20.5,4,19.94,4,19.25S3.44,18,2.75,18
	S1.5,18.56,1.5,19.25S2.06,20.5,2.75,20.5z"/>
<polygon style="fill:#333333;" points="23,21 14.386,21 14.386,19 21,19 21,5 3,5 3,8.028 1,8.028 1,3 23,3 "/>
</svg>






