<?xml version="1.0" encoding="iso-8859-1"?>
<svg version="1.1" id="&#x56FE;&#x5C42;_1" xmlns="http://www.w3.org/2000/svg" xmlns:xlink="http://www.w3.org/1999/xlink" x="0px"
	 y="0px" viewBox="0 0 24 24" style="enable-background:new 0 0 24 24;" xml:space="preserve">
<path style="fill:#333333;" d="M9,6.5H2L1.293,4.793L5.5,0.586l4.207,4.207L9,6.5z M4.414,4.5h2.172L5.5,3.414L4.414,4.5z"/>
<path style="fill:#333333;" d="M22,6.5h-7l-0.707-1.707L18.5,0.586l4.207,4.207L22,6.5z M17.414,4.5h2.172L18.5,3.414L17.414,4.5z"
	/>
<path style="fill:#333333;" d="M23,23h-9v-3c0-1.103-0.897-2-2-2c-1.103,0-2,0.897-2,2v3H1V12h2V7.5h5V12h1v-1.914l3-3l3,3V12h1V7.5
	h5V12h2V23z M16,21h5v-7h-2V9.5h-1V14h-5v-3.086l-1-1l-1,1V14H6V9.5H5V14H3v7h5v-1c0-2.206,1.794-4,4-4c2.206,0,4,1.794,4,4V21z"/>
<path style="fill:#333333;" d="M8.5,9.5h-6v-5h6V9.5z M4.5,7.5h2v-1h-2V7.5z"/>
<path style="fill:#333333;" d="M21.5,9.5h-6v-5h6V9.5z M17.5,7.5h2v-1h-2V7.5z"/>
</svg>






