<?xml version="1.0" encoding="iso-8859-1"?>
<svg version="1.1" id="&#x56FE;&#x5C42;_1" xmlns="http://www.w3.org/2000/svg" xmlns:xlink="http://www.w3.org/1999/xlink" x="0px"
	 y="0px" viewBox="0 0 24 24" style="enable-background:new 0 0 24 24;" xml:space="preserve">
<path style="fill:#333333;" d="M12,22c-5.514,0-10-4.037-10-9h2c0,3.859,3.589,7,8,7s8-3.141,8-7h2C22,17.963,17.514,22,12,22z
	 M16.043,6.959c-2.443-1.255-5.644-1.255-8.085,0L7.042,5.181c3.006-1.546,6.908-1.546,9.915,0L16.043,6.959z"/>
<path style="fill:#333333;" d="M4,13H2V4.244c0-0.801,0.455-1.501,1.186-1.827c0.733-0.326,1.557-0.196,2.151,0.339l2.832,2.546
	L6.832,6.79L4,4.244V13z"/>
<path style="fill:#333333;" d="M22,13h-2V4.244L17.169,6.79l-1.338-1.487l2.831-2.546c0.596-0.535,1.417-0.667,2.152-0.339
	C21.546,2.743,22,3.443,22,4.244V13z"/>
<circle style="fill:#333333;" cx="15" cy="11" r="1"/>
<circle style="fill:#333333;" cx="9" cy="11" r="1"/>
<circle style="fill:#333333;" cx="12" cy="14" r="1"/>
<rect x="1.99" y="14.25" transform="matrix(0.9965 -0.083 0.083 0.9965 -1.2492 0.4679)" style="fill:#333333;" width="6.021" height="1.999"/>
<rect x="3.146" y="18" transform="matrix(0.8944 -0.4472 0.4472 0.8944 -7.8108 4.9128)" style="fill:#333333;" width="6.708" height="2"/>
<rect x="18" y="12.24" transform="matrix(0.083 -0.9965 0.9965 0.083 2.2248 32.9179)" style="fill:#333333;" width="1.999" height="6.021"/>
<rect x="16.5" y="15.646" transform="matrix(0.4472 -0.8944 0.8944 0.4472 -7.3204 26.1554)" style="fill:#333333;" width="2" height="6.708"/>
</svg>






