<?xml version="1.0" encoding="iso-8859-1"?>
<svg version="1.1" id="&#x56FE;&#x5C42;_1" xmlns="http://www.w3.org/2000/svg" xmlns:xlink="http://www.w3.org/1999/xlink" x="0px"
	 y="0px" viewBox="0 0 24 24" style="enable-background:new 0 0 24 24;" xml:space="preserve">
<path style="fill:#333333;" d="M12,23c-3.364,0-6.166-2.522-6.518-5.868l-0.744-7.066C4.521,8.011,5.19,5.952,6.573,4.417
	C7.956,2.881,9.934,2,12,2s4.044,0.881,5.426,2.416c1.383,1.536,2.052,3.595,1.835,5.65l-0.743,7.066C18.165,20.478,15.363,23,12,23
	z M6.727,9.857l0.744,7.066C7.715,19.247,9.663,21,12,21c2.337,0,4.285-1.753,4.53-4.077l0.743-7.066
	c0.156-1.492-0.329-2.988-1.333-4.103S13.5,4,12,4c-1.5,0-2.937,0.64-3.94,1.754C7.056,6.87,6.57,8.365,6.727,9.857L6.727,9.857z"/>
<path style="fill:#333333;" d="M16.358,16.267c-4.182-3.496-7.71-0.901-8.692-0.021l-1.334-1.49
	c2.527-2.261,7.004-3.624,11.309-0.021L16.358,16.267z"/>
<circle style="fill:#333333;" cx="9.5" cy="9" r="1"/>
<circle style="fill:#333333;" cx="10.5" cy="17" r="1"/>
<circle style="fill:#333333;" cx="14.5" cy="9" r="1"/>
<circle style="fill:#333333;" cx="13.5" cy="17" r="1"/>
<path style="fill:#333333;" d="M18.832,7.512l-1.664-1.11c0.262-0.392,1.258-1.707,3.09-2.165c0.346-0.086,0.719-0.375,0.782-0.604
	c0.042-0.15-0.137-0.358-0.247-0.468c-0.542-0.541-2.354,0.363-3.614,1.528l-1.357-1.47c1.518-1.401,4.569-3.289,6.386-1.472
	c0.975,0.974,0.895,1.932,0.761,2.417c-0.299,1.08-1.333,1.788-2.226,2.011C19.84,6.402,19.164,7.014,18.832,7.512z"/>
<path style="fill:#333333;" d="M5.216,7.512C4.885,7.014,4.208,6.402,3.305,6.177C2.413,5.954,1.379,5.246,1.08,4.166
	C0.946,3.682,0.867,2.724,1.841,1.75c1.815-1.815,4.868,0.072,6.386,1.472L6.87,4.691C5.608,3.527,3.793,2.624,3.255,3.164
	c-0.11,0.11-0.289,0.318-0.248,0.468c0.064,0.23,0.437,0.518,0.783,0.604c1.832,0.458,2.828,1.773,3.09,2.165L5.216,7.512z"/>
<rect x="5.25" y="12.487" transform="matrix(0.9945 -0.1047 0.1047 0.9945 -1.5228 0.736)" style="fill:#333333;" width="2" height="4.776"/>
<rect x="15.362" y="13.875" transform="matrix(0.1045 -0.9945 0.9945 0.1045 1.101 30.9728)" style="fill:#333333;" width="4.776" height="1.999"/>
</svg>






