<?xml version="1.0" encoding="iso-8859-1"?>
<svg version="1.1" id="&#x56FE;&#x5C42;_1" xmlns="http://www.w3.org/2000/svg" xmlns:xlink="http://www.w3.org/1999/xlink" x="0px"
	 y="0px" viewBox="0 0 24 24" style="enable-background:new 0 0 24 24;" xml:space="preserve">
<rect x="19.5" y="14.879" transform="matrix(0.7071 -0.7071 0.7071 0.7071 -6.0165 19.4749)" style="fill:#333333;" width="2" height="4.243"/>
<path style="fill:#333333;" d="M3.5,22h-2V9c0-3.703,2.114-6.05,6.283-6.976l7.075-1.014l0.283,1.979l-7,1
	C4.036,4.905,3.5,7.149,3.5,9V22z"/>
<path style="fill:#333333;" d="M20,22h-2v-5.5c0-2.966-3.837-3-4-3c-2.769,0-4.085-1.516-4.872-2.421
	c-0.121-0.139-0.23-0.267-0.335-0.372l1.414-1.414c0.134,0.134,0.276,0.295,0.431,0.474C11.309,10.539,12.144,11.5,14,11.5
	c2.075,0,6,1.045,6,5V22z"/>
<path style="fill:#333333;" d="M13.5,8h-2c0-3.32-1.399-4-3.5-4V2C11.649,2,13.5,4.019,13.5,8z"/>
<path style="fill:#333333;" d="M16,22h-2c0-1.654-1.346-3-3-3s-3,1.346-3,3H6c0-2.757,2.243-5,5-5S16,19.243,16,22z"/>
</svg>






