<?xml version="1.0" encoding="iso-8859-1"?>
<svg version="1.1" id="&#x56FE;&#x5C42;_1" xmlns="http://www.w3.org/2000/svg" xmlns:xlink="http://www.w3.org/1999/xlink" x="0px"
	 y="0px" viewBox="0 0 24 24" style="enable-background:new 0 0 24 24;" xml:space="preserve">
<path style="fill:#333333;" d="M16.702,15.08c-0.783,0-1.528-0.218-2.094-0.628c-1.003-0.727-1.474-1.93-1.399-3.574l1.998,0.091
	c-0.042,0.93,0.151,1.557,0.575,1.864c0.241,0.175,0.753,0.33,1.4,0.197c0.752-0.158,1.877-0.739,2.972-2.612
	c0.729-1.247,0.954-2.383,0.653-3.285c-0.249-0.747-0.772-1.105-0.889-1.154c-0.362-0.152-0.711-0.208-1.063-0.171l-0.207-1.989
	c0.691-0.072,1.378,0.035,2.047,0.317c0.706,0.297,1.603,1.144,2.01,2.364c0.341,1.021,0.475,2.705-0.824,4.927
	c-1.464,2.505-3.14,3.318-4.287,3.56C17.296,15.05,16.996,15.08,16.702,15.08z"/>
<path style="fill:#333333;" d="M20.441,21.674l-1.969-0.348c0.098-0.559-0.069-1.123-0.514-1.725
	c-0.254-0.344-0.7-0.526-1.217-0.738c-0.796-0.325-1.785-0.729-2.338-1.88c-0.825-1.717-0.268-2.924,0.346-3.634l1.514,1.307
	c-0.241,0.279-0.437,0.671-0.057,1.46c0.209,0.437,0.607,0.616,1.292,0.896c0.661,0.271,1.482,0.606,2.069,1.401
	C20.344,19.466,20.638,20.562,20.441,21.674z"/>
<path style="fill:#333333;" d="M7.469,14.101c-1.764,0-3.186-0.568-4.018-1.682l0,0c-1.436-1.92-0.795-4.65,1.672-7.125
	C6.117,4.298,7.35,3.396,8.789,2.612c0.72-0.392,1.415-0.733,2.065-1.014c4.093-1.766,6.248-1.065,7.331-0.164
	c1.341,1.114,2.322,4.145,0.171,7.113c-0.623,0.86-1.473,1.672-2.526,2.414c-1.39,0.979-2.811,1.748-4.222,2.288
	C10.116,13.82,8.708,14.101,7.469,14.101z M5.053,11.221c0.833,1.114,3.18,1.179,5.84,0.161c1.257-0.481,2.53-1.172,3.785-2.056
	c0.872-0.615,1.565-1.271,2.059-1.953c1.567-2.163,0.674-3.983,0.171-4.401c-0.924-0.767-2.793-0.602-5.261,0.462
	c-0.595,0.257-1.234,0.571-1.901,0.934C8.475,5.06,7.396,5.846,6.539,6.706C4.852,8.399,4.268,10.171,5.053,11.221L5.053,11.221z"/>
<path style="fill:#333333;" d="M13.66,11.69c-2.019-0.729-3.342-1.545-4.426-2.727C8.089,7.716,7.382,6.237,7.133,4.567l1.979-0.295
	c0.191,1.286,0.713,2.378,1.596,3.34c0.862,0.941,1.914,1.577,3.632,2.198L13.66,11.69z"/>
<path style="fill:#333333;" d="M12.082,21.896c-1.116-2.583-2.533-2.583-2.999-2.583c-0.747,0-1.473,0.335-2.241,0.689
	c-1.35,0.623-3.2,1.478-4.941-0.407c-1.776-1.922-0.97-4.551,2.394-7.813l1.393,1.436c-1.674,1.623-3.434,3.812-2.317,5.021
	c0.681,0.737,1.136,0.639,2.635-0.051c0.887-0.41,1.894-0.874,3.079-0.874c1.458,0,3.481,0.657,4.834,3.79L12.082,21.896z"/>
<path style="fill:#333333;" d="M11.608,13.249l-0.716-1.867c1.259-0.482,2.533-1.174,3.785-2.056
	c0.874-0.615,1.566-1.272,2.06-1.953l1.619,1.174c-0.622,0.859-1.473,1.671-2.526,2.414C14.441,11.938,13.021,12.708,11.608,13.249z
	"/>
<path style="fill:#333333;" d="M6.539,6.706L5.123,5.294C6.117,4.298,7.35,3.396,8.789,2.612c0.72-0.392,1.415-0.733,2.065-1.014
	l0.792,1.837c-0.594,0.256-1.234,0.57-1.901,0.934C8.475,5.06,7.396,5.846,6.539,6.706z"/>
</svg>






