<?xml version="1.0" encoding="iso-8859-1"?>
<svg version="1.1" id="&#x56FE;&#x5C42;_1" xmlns="http://www.w3.org/2000/svg" xmlns:xlink="http://www.w3.org/1999/xlink" x="0px"
	 y="0px" viewBox="0 0 24 24" style="enable-background:new 0 0 24 24;" xml:space="preserve">
<path style="fill:#333333;" d="M21,19h-4v-2h4V4H3v13h10v2H3c-1.103,0-2-0.897-2-2V4c0-1.103,0.897-2,2-2h18c1.103,0,2,0.897,2,2v13
	C23,18.103,22.103,19,21,19z"/>
<rect x="6" y="6" style="fill:#333333;" width="12" height="2"/>
<rect x="6" y="9.5" style="fill:#333333;" width="3" height="2"/>
<rect x="6" y="13" style="fill:#333333;" width="2" height="2"/>
<path style="fill:#333333;" d="M15,17.5c-2.206,0-4-1.794-4-4c0-2.206,1.794-4,4-4s4,1.794,4,4C19,15.706,17.206,17.5,15,17.5z
	 M15,11.5c-1.103,0-2,0.897-2,2s0.897,2,2,2s2-0.897,2-2S16.103,11.5,15,11.5z"/>
<path style="fill:#333333;" d="M18,22.618l-3-1.5l-3,1.5V15.75l1.796-0.605l0,0c0.004,0,0.352,0.355,1.204,0.355
	c0.865,0,1.208-0.376,1.223-0.392L18,15.736V22.618z M15,18.882l1,0.5v-1.991c-0.588,0.135-1.412,0.135-2,0.002v1.989L15,18.882z"/>
</svg>






