<?xml version="1.0" encoding="iso-8859-1"?>
<svg version="1.1" id="&#x56FE;&#x5C42;_1" xmlns="http://www.w3.org/2000/svg" xmlns:xlink="http://www.w3.org/1999/xlink" x="0px"
	 y="0px" viewBox="0 0 24 24" style="enable-background:new 0 0 24 24;" xml:space="preserve">
<path style="fill:#333333;" d="M14.728,12.5H9.273C7.346,12.5,6,11.232,6,9.417V5h2V3c0-1.103,0.897-2,2-2h4c1.103,0,2,0.897,2,2v2
	h2v4.417C18,11.232,16.654,12.5,14.728,12.5z M8,7v2.417C8,10.395,8.89,10.5,9.273,10.5h5.455C15.11,10.5,16,10.395,16,9.417V7h-2V3
	h-4v4H8z"/>
<rect x="2.382" y="15.75" transform="matrix(0.3564 -0.9343 0.9343 0.3564 -10.5012 18.2557)" style="fill:#333333;" width="11.236" height="2"/>
<rect x="15" y="11.132" transform="matrix(0.9345 -0.356 0.356 0.9345 -4.9146 6.7929)" style="fill:#333333;" width="2" height="11.236"/>
<rect x="15" y="5" style="fill:#333333;" width="4" height="2"/>
<rect x="5" y="5" style="fill:#333333;" width="4" height="2"/>
<rect x="8.5" y="14.5" style="fill:#333333;" width="7" height="2"/>
<rect x="7.5" y="18" style="fill:#333333;" width="9" height="2"/>
</svg>






