<?xml version="1.0" encoding="iso-8859-1"?>
<svg version="1.1" id="&#x56FE;&#x5C42;_1" xmlns="http://www.w3.org/2000/svg" xmlns:xlink="http://www.w3.org/1999/xlink" x="0px"
	 y="0px" viewBox="0 0 24 24" style="enable-background:new 0 0 24 24;" xml:space="preserve">
<path style="fill:#333333;" d="M12,23c-0.552,0-1.109-0.042-1.656-0.124C5.017,22.07,1,17.396,1,12
	C1,6.607,5.014,1.932,10.338,1.125l0.3,1.978C6.284,3.763,3,7.588,3,12c0,4.414,3.286,8.239,7.643,8.897
	c0.897,0.137,1.824,0.135,2.71,0.002c3.862-0.582,6.966-3.686,7.547-7.548l1.979,0.297c-0.711,4.723-4.505,8.518-9.228,9.229
	C13.11,22.958,12.555,23,12,23z M20.898,10.646c-0.582-3.86-3.684-6.963-7.544-7.545l0.299-1.978
	c4.719,0.711,8.512,4.505,9.224,9.225L20.898,10.646z"/>
<path style="fill:#333333;" d="M12,17c-2.757,0-5-2.243-5-5s2.243-5,5-5s5,2.243,5,5S14.757,17,12,17z M12,9c-1.654,0-3,1.346-3,3
	s1.346,3,3,3s3-1.346,3-3S13.654,9,12,9z"/>
</svg>






