<?xml version="1.0" encoding="iso-8859-1"?>
<svg version="1.1" id="&#x56FE;&#x5C42;_1" xmlns="http://www.w3.org/2000/svg" xmlns:xlink="http://www.w3.org/1999/xlink" x="0px"
	 y="0px" viewBox="0 0 24 24" style="enable-background:new 0 0 24 24;" xml:space="preserve">
<path style="fill:#333333;" d="M13,22.5h-1C6.21,22.5,1.5,17.79,1.5,12C1.5,6.21,6.21,1.5,12,1.5c5.79,0,10.5,4.71,10.5,10.5v1H13
	V22.5z M12,3.5c-4.687,0-8.5,3.813-8.5,8.5c0,4.349,3.282,7.945,7.5,8.441V13c0-1.103,0.897-2,2-2h7.441
	C19.945,6.782,16.349,3.5,12,3.5z"/>
<path style="fill:#333333;" d="M22,22h-8v-8h8V22z M16,20h4v-4h-4V20z"/>
</svg>






