<?xml version="1.0" encoding="iso-8859-1"?>
<svg version="1.1" id="&#x56FE;&#x5C42;_1" xmlns="http://www.w3.org/2000/svg" xmlns:xlink="http://www.w3.org/1999/xlink" x="0px"
	 y="0px" viewBox="0 0 24 24" style="enable-background:new 0 0 24 24;" xml:space="preserve">
<path style="fill:#333333;" d="M8,17H2V7h6V17z M4,15h2V9H4V15z"/>
<rect x="4" y="3" style="fill:#333333;" width="2" height="5"/>
<rect x="4" y="16" style="fill:#333333;" width="2" height="5"/>
<path style="fill:#333333;" d="M22,17h-6V7h6V17z M18,15h2V9h-2V15z"/>
<rect x="18" y="3" style="fill:#333333;" width="2" height="5"/>
<rect x="18" y="16" style="fill:#333333;" width="2" height="5"/>
<path style="fill:#333333;" d="M15,16H9V6h6V16z M11,14h2V8h-2V14z"/>
<rect x="11" y="2" style="fill:#333333;" width="2" height="5"/>
<rect x="11" y="15" style="fill:#333333;" width="2" height="5"/>
</svg>






