<?xml version="1.0" encoding="iso-8859-1"?>
<svg version="1.1" id="&#x56FE;&#x5C42;_1" xmlns="http://www.w3.org/2000/svg" xmlns:xlink="http://www.w3.org/1999/xlink" x="0px"
	 y="0px" viewBox="0 0 24 24" style="enable-background:new 0 0 24 24;" xml:space="preserve">
<path style="fill:#333333;" d="M12,23C5.935,23,1,18.065,1,12c0-2.938,1.144-5.7,3.222-7.778C5.25,3.193,6.451,2.39,7.789,1.835
	l0.767,1.848C7.46,4.137,6.478,4.794,5.636,5.636C3.936,7.336,3,9.596,3,12c0,4.963,4.038,9,9,9c2.404,0,4.664-0.937,6.364-2.636
	c0.842-0.842,1.499-1.824,1.953-2.919l1.848,0.766c-0.556,1.339-1.358,2.539-2.387,3.567C17.701,21.855,14.938,23,12,23z"/>
<path style="fill:#333333;" d="M23,13H11V1h1c6.065,0,11,4.935,11,11V13z M13,11h7.944C20.482,6.835,17.165,3.518,13,3.055V11z"/>
</svg>






