<?xml version="1.0" encoding="iso-8859-1"?>
<svg version="1.1" id="&#x56FE;&#x5C42;_1" xmlns="http://www.w3.org/2000/svg" xmlns:xlink="http://www.w3.org/1999/xlink" x="0px"
	 y="0px" viewBox="0 0 24 24" style="enable-background:new 0 0 24 24;" xml:space="preserve">
<path style="fill:#333333;" d="M19.562,20.25H4.491c-0.729,0-1.418-0.316-1.894-0.868s-0.686-1.281-0.578-2.002l1.98-13.25
	C4.183,2.896,5.223,2,6.471,2h11.518c1.266,0,2.333,0.948,2.482,2.205l1.572,13.25c0.084,0.708-0.139,1.421-0.612,1.955
	C20.957,19.943,20.275,20.25,19.562,20.25z M5.977,4.426l-1.98,13.25c-0.03,0.197,0.06,0.336,0.115,0.4
	c0.056,0.064,0.18,0.174,0.379,0.174h15.071c0.195,0,0.318-0.105,0.374-0.168s0.146-0.196,0.122-0.391l-1.572-13.25
	C18.456,4.19,18.242,4,17.989,4H6.471C6.221,4,6.013,4.179,5.977,4.426L5.977,4.426z"/>
<path style="fill:#333333;" d="M18,22H6c-2.206,0-4-1.794-4-4s1.794-4,4-4h12c2.206,0,4,1.794,4,4S20.206,22,18,22z M6,16
	c-1.103,0-2,0.897-2,2s0.897,2,2,2h12c1.103,0,2-0.897,2-2s-0.897-2-2-2H6z"/>
<path style="fill:#333333;" d="M10.5,17L10.5,17c0.552,0,1,0.448,1,1l0,0c0,0.552-0.448,1-1,1l0,0c-0.552,0-1-0.448-1-1l0,0
	C9.5,17.448,9.948,17,10.5,17z"/>
<rect x="14.5" y="17" style="fill:#333333;" width="3" height="2"/>
<rect x="11" y="5" style="fill:#333333;" width="2" height="2"/>
</svg>






