<?xml version="1.0" encoding="iso-8859-1"?>
<svg version="1.1" id="&#x56FE;&#x5C42;_1" xmlns="http://www.w3.org/2000/svg" xmlns:xlink="http://www.w3.org/1999/xlink" x="0px"
	 y="0px" viewBox="0 0 24 24" style="enable-background:new 0 0 24 24;" xml:space="preserve">
<path style="fill:#333333;" d="M12,23C5.935,23,1,18.065,1,12S5.935,1,12,1h1v10h10v1C23,18.065,18.065,23,12,23z M11,3.055
	C6.506,3.554,3,7.375,3,12c0,4.963,4.038,9,9,9c4.625,0,8.445-3.506,8.944-8H11V3.055z"/>
<path style="fill:#333333;" d="M22.904,10H14V1.096l1.3,0.408c3.429,1.077,6.119,3.767,7.196,7.196L22.904,10z M16,8h4.065
	C19.191,6.238,17.762,4.808,16,3.935V8z"/>
</svg>






