<?xml version="1.0" encoding="iso-8859-1"?>
<svg version="1.1" id="&#x56FE;&#x5C42;_1" xmlns="http://www.w3.org/2000/svg" xmlns:xlink="http://www.w3.org/1999/xlink" x="0px"
	 y="0px" viewBox="0 0 24 24" style="enable-background:new 0 0 24 24;" xml:space="preserve">
<path style="fill:#333333;" d="M12,23c-2.938,0-5.7-1.145-7.778-3.222C2.144,17.701,1,14.938,1,12c0-2.938,1.144-5.7,3.222-7.778
	C6.3,2.144,9.062,1,12,1c2.938,0,5.701,1.144,7.778,3.222C21.855,6.3,23,9.062,23,12c0,2.938-1.145,5.701-3.222,7.778
	S14.938,23,12,23z M12,3C9.596,3,7.336,3.936,5.636,5.636C3.936,7.336,3,9.596,3,12c0,2.404,0.936,4.664,2.636,6.364
	C7.336,20.063,9.596,21,12,21c2.404,0,4.664-0.937,6.364-2.636C20.063,16.664,21,14.404,21,12c0-2.404-0.937-4.664-2.636-6.364
	C16.664,3.936,14.404,3,12,3z"/>
<polygon style="fill:#333333;" points="11,16.414 7.293,12.707 8.707,11.293 11,13.586 16.293,8.293 17.707,9.707 "/>
</svg>






