<?xml version="1.0" encoding="iso-8859-1"?>
<svg version="1.1" id="&#x56FE;&#x5C42;_1" xmlns="http://www.w3.org/2000/svg" xmlns:xlink="http://www.w3.org/1999/xlink" x="0px"
	 y="0px" viewBox="0 0 24 24" style="enable-background:new 0 0 24 24;" xml:space="preserve">
<path style="fill:#333333;" d="M20.5,23h-17C2.122,23,1,21.879,1,20.5v-17C1,2.122,2.122,1,3.5,1h17C21.879,1,23,2.122,23,3.5v17
	C23,21.879,21.879,23,20.5,23z M3.5,3C3.224,3,3,3.224,3,3.5v17C3,20.775,3.224,21,3.5,21h17c0.275,0,0.5-0.225,0.5-0.5v-17
	C21,3.224,20.775,3,20.5,3H3.5z"/>
<rect x="11.5" y="7.5" style="fill:#333333;" width="10.5" height="2"/>
<rect x="2" y="7.5" style="fill:#333333;" width="4.5" height="2"/>
<rect x="17.5" y="14.5" style="fill:#333333;" width="4.5" height="2"/>
<rect x="3" y="14.5" style="fill:#333333;" width="9.5" height="2"/>
<rect x="7.5" y="10.5" style="fill:#333333;" width="2" height="11.5"/>
<rect x="14.5" y="2" style="fill:#333333;" width="2" height="11.5"/>
<rect x="14.5" y="17.5" style="fill:#333333;" width="2" height="4.5"/>
<rect x="7.5" y="2" style="fill:#333333;" width="2" height="4.5"/>
<path style="fill:#333333;" d="M15.5,18.5c-1.654,0-3-1.346-3-3s1.346-3,3-3s3,1.346,3,3S17.154,18.5,15.5,18.5z M15.5,14.5
	c-0.552,0-1,0.448-1,1s0.448,1,1,1s1-0.448,1-1S16.052,14.5,15.5,14.5z"/>
<path style="fill:#333333;" d="M8.5,11.5c-1.654,0-3-1.346-3-3s1.346-3,3-3s3,1.346,3,3S10.154,11.5,8.5,11.5z M8.5,7.5
	c-0.551,0-1,0.449-1,1s0.449,1,1,1s1-0.449,1-1S9.051,7.5,8.5,7.5z"/>
</svg>






