<?xml version="1.0" encoding="iso-8859-1"?>
<svg version="1.1" id="&#x56FE;&#x5C42;_1" xmlns="http://www.w3.org/2000/svg" xmlns:xlink="http://www.w3.org/1999/xlink" x="0px"
	 y="0px" viewBox="0 0 24 24" style="enable-background:new 0 0 24 24;" xml:space="preserve">
<path style="fill:#333333;" d="M8.916,10.901l-1.832-0.802l3.065-7.006c0.223-0.511,0.654-0.908,1.181-1.089
	c0.527-0.181,1.11-0.134,1.6,0.131l5.544,2.985L17.526,6.88l-5.545-2.985L8.916,10.901z"/>
<polygon style="fill:#333333;" points="22,21.5 12,21.5 12,18.5 14,18.5 14,19.5 20,19.5 20,7 14,7 14,15.5 12,15.5 12,5 22,5 "/>
<path style="fill:#333333;" d="M2,23v-2c2.592,0,3.536-0.962,4.294-1.734c0.477-0.486,0.97-0.989,1.728-1.099
	c0.485-0.07,0.974-0.13,1.458-0.189c1.018-0.124,1.98-0.24,2.836-0.449c1.605-0.391,2.909-0.895,3.438-1.111
	c0.07-0.141,0.122-0.263,0.159-0.364c-0.524,0.06-1.365,0.251-2.021,0.401c-1.512,0.345-3.22,0.735-4.461,0.568
	c-1.575-0.213-1.989-1.055-2.097-1.537c-0.201-0.904,0.375-1.815,1.048-2.248c1.088-0.7,2.264-0.846,3.119-0.845v-2.06
	c-2.136,0.669-6.434,2.226-8.231,4.385l-1.537-1.279c2.841-3.413,10.208-5.328,10.521-5.407L13.5,7.712v6.779
	c1.479-0.337,2.421-0.539,3.12-0.424c0.547,0.088,0.975,0.387,1.203,0.842c0.315,0.628,0.206,1.466-0.326,2.49
	c-0.198,0.379-0.529,0.679-0.934,0.847c-0.539,0.224-1.987,0.79-3.775,1.226c-0.971,0.236-2.037,0.366-3.067,0.491
	c-0.469,0.058-0.942,0.115-1.413,0.183c-0.104,0.028-0.394,0.324-0.587,0.521C6.865,21.539,5.432,23,2,23z M9.394,14.979
	c0.074,0.021,0.173,0.043,0.304,0.061c0.753,0.099,2.038-0.152,3.195-0.411l-0.636-0.159c-0.011-0.002-1.547-0.354-2.795,0.449
	C9.441,14.934,9.417,14.955,9.394,14.979z"/>
<rect x="16" y="9.5" style="fill:#333333;" width="5" height="2"/>
</svg>






