<?xml version="1.0" encoding="iso-8859-1"?>
<svg version="1.1" id="&#x56FE;&#x5C42;_1" xmlns="http://www.w3.org/2000/svg" xmlns:xlink="http://www.w3.org/1999/xlink" x="0px"
	 y="0px" viewBox="0 0 24 24" style="enable-background:new 0 0 24 24;" xml:space="preserve">
<path style="fill:#333333;" d="M20.579,10.329C20.159,9.701,16.544,7.354,9.6,3.683L3.118,8.786L1.882,7.214l6.493-5.101
	c0.618-0.486,1.466-0.565,2.159-0.198C22.5,8.24,22.5,9.299,22.5,10h-2C20.5,10.207,20.577,10.326,20.579,10.329L20.579,10.329z"/>
<path style="fill:#333333;" d="M3.501,21.945c-0.509,0-1.006-0.196-1.377-0.549C1.727,21.021,1.5,20.492,1.5,19.946V8.826
	C1.5,8.2,1.785,7.62,2.282,7.235c0.5-0.388,1.137-0.518,1.747-0.359c2.576,0.668,11.338,2.79,15.885,2.017
	c0.646-0.111,1.334,0.08,1.841,0.506c0.474,0.4,0.745,0.975,0.745,1.576v8.075c0,1.063-0.832,1.941-1.894,1.998L3.605,21.943
	C3.57,21.944,3.536,21.945,3.501,21.945z M3.527,8.812L3.5,8.826v11.12l17-0.896v-8.075c-0.095-0.098-0.185-0.119-0.253-0.11
	C15.444,11.678,6.952,9.701,3.527,8.812z"/>
<circle style="fill:#333333;" cx="6" cy="12.5" r="1"/>
<circle style="fill:#333333;" cx="12.5" cy="13.5" r="1"/>
<circle style="fill:#333333;" cx="17" cy="16" r="1"/>
<g>
	<circle style="fill:#333333;" cx="9" cy="16" r="1"/>
	<circle style="fill:#333333;" cx="9" cy="16" r="2"/>
</g>
</svg>






