<?xml version="1.0" encoding="iso-8859-1"?>
<svg version="1.1" id="&#x56FE;&#x5C42;_1" xmlns="http://www.w3.org/2000/svg" xmlns:xlink="http://www.w3.org/1999/xlink" x="0px"
	 y="0px" viewBox="0 0 24 24" style="enable-background:new 0 0 24 24;" xml:space="preserve">
<path style="fill:#333333;" d="M19,22H5v-6h14V22z M7,20h10v-2H7V20z"/>
<rect x="13.5" y="10" style="fill:#333333;" width="2" height="7"/>
<rect x="10" y="13" style="fill:#333333;" width="2" height="4"/>
<path style="fill:#333333;" d="M19,18H5v-4.981C4.152,12.367,2.5,10.803,2.5,8.5c0-2.666,2.253-4.185,4.702-4.456
	C7.78,2.593,9.555,1,12,1c2.438,0,4.21,1.583,4.793,3.031C19.757,4.274,21.5,5.906,21.5,8.5c0,2.303-1.652,3.867-2.5,4.519V18z
	 M7,16h10v-4.066l0.485-0.291c0.017-0.01,2.015-1.253,2.015-3.143C19.5,6.841,18.322,6,16,6h-1V5c0-0.382-1-2-3-2S9,4.618,9,5v1H8
	C6.79,6,4.5,6.522,4.5,8.5c0,1.889,1.998,3.132,2.018,3.145l0.479,0.292L7,16z"/>
</svg>






