<?xml version="1.0" encoding="iso-8859-1"?>
<svg version="1.1" id="&#x56FE;&#x5C42;_1" xmlns="http://www.w3.org/2000/svg" xmlns:xlink="http://www.w3.org/1999/xlink" x="0px"
	 y="0px" viewBox="0 0 24 24" style="enable-background:new 0 0 24 24;" xml:space="preserve">
<path style="fill:#333333;" d="M16.5,22h-9c-1.103,0-2-0.897-2-2v-7.18c-2.07-0.752-3.5-2.738-3.5-5C2,4.886,4.386,2.5,7.32,2.5
	c0.25,0,0.498,0.017,0.744,0.052C9.057,1.559,10.395,1,11.82,1c1.458,0,2.812,0.577,3.809,1.604C15.973,2.535,16.324,2.5,16.68,2.5
	C19.613,2.5,22,4.886,22,7.82c0,2.262-1.43,4.249-3.5,5V20C18.5,21.103,17.603,22,16.5,22z M7.32,4.5C5.489,4.5,4,5.989,4,7.82
	c0,1.59,1.131,2.961,2.689,3.261L7.5,11.236V20h9v-8.764l0.812-0.156C18.869,10.781,20,9.41,20,7.82c0-1.831-1.489-3.32-3.32-3.32
	c-0.369,0-0.731,0.06-1.076,0.178l-0.688,0.235l-0.436-0.582C13.845,3.485,12.875,3,11.82,3c-1.022,0-1.972,0.46-2.606,1.264
	L8.807,4.778L8.173,4.61C7.896,4.537,7.609,4.5,7.32,4.5z"/>
<rect x="6.5" y="14.5" style="fill:#333333;" width="11" height="2"/>
<rect x="9" y="12.5" style="fill:#333333;" width="2" height="3"/>
<rect x="16.5" y="14" style="fill:#333333;" width="2" height="3"/>
<rect x="5.5" y="14" style="fill:#333333;" width="2" height="3"/>
</svg>






