<?xml version="1.0" encoding="iso-8859-1"?>
<svg version="1.1" id="&#x56FE;&#x5C42;_1" xmlns="http://www.w3.org/2000/svg" xmlns:xlink="http://www.w3.org/1999/xlink" x="0px"
	 y="0px" viewBox="0 0 24 24" style="enable-background:new 0 0 24 24;" xml:space="preserve">
<path style="fill:#333333;" d="M4,18.75H2v-8.714c0-1.297,0.176-2.263,0.54-2.952c0.643-1.222,1.578-1.577,3.413-2.049
	c1.229-0.316,1.483-0.5,1.536-0.565c-0.001,0,0.01-0.042,0.01-0.146V1.75h2v2.574c0,1.864-1.69,2.298-3.048,2.647
	C4.68,7.427,4.523,7.609,4.309,8.016C4.194,8.235,4,8.789,4,10.036V18.75z"/>
<path style="fill:#333333;" d="M13.68,17.474l-0.303-1.977c1.227-0.188,2.041-0.666,2.491-1.465c0.511-0.905,0.709-1.95,0.605-3.195
	l1.993-0.165c0.136,1.635-0.152,3.096-0.856,4.343C16.849,16.364,15.526,17.192,13.68,17.474z"/>
<path style="fill:#333333;" d="M10.352,17.474c-1.86-0.281-3.191-1.107-3.958-2.456c-0.707-1.248-0.997-2.71-0.861-4.346
	l1.993,0.165c-0.103,1.245,0.096,2.29,0.608,3.193c0.454,0.799,1.277,1.278,2.517,1.467L10.352,17.474z"/>
<path style="fill:#333333;" d="M7.259,22.407l-1.519-1.303C6.251,20.509,6.5,19.893,6.5,19.22v-4.182h2v4.182
	C8.5,20.374,8.083,21.446,7.259,22.407z"/>
<path style="fill:#333333;" d="M16.741,22.407c-0.823-0.96-1.241-2.032-1.241-3.188v-4.182h2v4.182c0,0.673,0.248,1.29,0.759,1.885
	L16.741,22.407z"/>
<path style="fill:#333333;" d="M21.999,18.75h-2v-8.714c0-1.247-0.193-1.8-0.31-2.019c-0.214-0.407-0.371-0.59-2.141-1.044
	C16.19,6.623,14.5,6.188,14.5,4.324V1.75h2v2.574c0,0.115,0.015,0.153,0.015,0.153c0.045,0.055,0.296,0.24,1.532,0.557
	c1.834,0.471,2.769,0.827,3.412,2.049c0.363,0.688,0.54,1.654,0.54,2.952V18.75z"/>
</svg>






