<?xml version="1.0" encoding="iso-8859-1"?>
<svg version="1.1" id="&#x56FE;&#x5C42;_1" xmlns="http://www.w3.org/2000/svg" xmlns:xlink="http://www.w3.org/1999/xlink" x="0px"
	 y="0px" viewBox="0 0 24 24" style="enable-background:new 0 0 24 24;" xml:space="preserve">
<path style="fill:#333333;" d="M17,8H7L6,7V2l1-1h10l1,1v5L17,8z M8,6h8V3H8V6z"/>
<polygon style="fill:#333333;" points="16.5,19.5 7.5,19.5 6.532,18.248 9.532,6.748 11.468,7.252 8.794,17.5 15.206,17.5 
	12.532,7.252 14.468,6.748 17.468,18.248 "/>
<path style="fill:#333333;" d="M20,23H4l-1-1v-2l0.553-0.895l3-1.5L7,17.5h10l0.447,0.105l3,1.5L21,20v2L20,23z M5,21h14v-0.382
	L16.764,19.5H7.236L5,20.618V21z"/>
<rect x="6" y="10.51" style="fill:#333333;" width="12" height="2"/>
<rect x="9.25" y="2" style="fill:#333333;" width="2" height="2"/>
<rect x="12.75" y="2" style="fill:#333333;" width="2" height="2"/>
</svg>






