<?xml version="1.0" encoding="iso-8859-1"?>
<svg version="1.1" id="&#x56FE;&#x5C42;_1" xmlns="http://www.w3.org/2000/svg" xmlns:xlink="http://www.w3.org/1999/xlink" x="0px"
	 y="0px" viewBox="0 0 24 24" style="enable-background:new 0 0 24 24;" xml:space="preserve">
<path style="fill:#333333;" d="M9.619,9.295C9.166,8.45,8.601,7.675,7.936,6.987c-0.587-0.153-1.09-0.521-1.417-1.041
	C6.178,5.405,6.068,4.763,6.21,4.139c0.142-0.624,0.518-1.155,1.06-1.496C7.81,2.302,8.452,2.192,9.077,2.334
	c0.727,0.165,1.331,0.664,1.64,1.325c1.073,0.544,2.214,0.93,3.398,1.148l0.262,0.048c0.898,0.166,1.753,0.489,2.539,0.96
	l0.732,0.439c0.362,0.217,0.703,0.472,1.016,0.758l-1.35,1.476c-0.214-0.196-0.447-0.37-0.694-0.518l-0.732-0.439
	c-0.58-0.348-1.211-0.586-1.874-0.708l-0.262-0.048c-1.514-0.279-2.968-0.795-4.322-1.532L9.032,5.025l-0.1-0.441
	C8.906,4.465,8.813,4.325,8.634,4.284c-0.139-0.03-0.246,0.019-0.299,0.051C8.283,4.368,8.192,4.443,8.16,4.582
	C8.128,4.722,8.179,4.83,8.211,4.881c0.033,0.052,0.108,0.143,0.247,0.175l0.357,0.03l0.31,0.26
	c0.901,0.881,1.661,1.892,2.257,3.005L9.619,9.295z"/>
<path style="fill:#333333;" d="M13.573,21.223c-1.46,0-2.99-0.094-4.104-0.163C8.928,21.026,8.513,21,8.305,21
	c-1.238,0-2.592-0.635-3.375-1.179C4.102,19.247,3,18.226,3,16c0-1.983,1.565-3.787,1.91-4.16l0.054-0.057
	c0.163-0.171,1.781-1.851,3.257-2.859c1.44-0.983,4.612-2.132,5.234-2.353l0.125-0.042c0.436-0.133,2.751-0.732,5.366,0.575
	c2.618,1.309,3.713,2.523,4.039,4.48c0.139,0.831,0.06,1.847-0.234,3.022c-0.169,0.677-0.385,1.318-0.641,1.907
	c-0.399,0.922-0.872,1.66-1.404,2.192l-0.314,0.32c-0.892,0.921-1.503,1.466-3.676,1.949C15.884,21.161,14.751,21.223,13.573,21.223
	z M5.653,12.51l0.732,0.682C5.906,13.706,5,14.956,5,16c0,1.325,0.529,1.803,1.07,2.179C6.659,18.587,7.615,19,8.305,19
	c0.23,0,0.688,0.027,1.287,0.063c1.782,0.109,5.1,0.314,6.691-0.04c1.693-0.376,1.98-0.672,2.674-1.388l0.336-0.343
	c0.348-0.349,0.688-0.893,0.983-1.575c0.213-0.489,0.394-1.025,0.536-1.596c0.22-0.882,0.292-1.665,0.201-2.208
	c-0.158-0.952-0.478-1.778-2.961-3.02c-1.976-0.988-3.701-0.508-3.89-0.451c-1.643,0.582-3.855,1.478-4.813,2.132
	c-1.33,0.909-2.889,2.537-2.955,2.605L5.653,12.51z"/>
<path style="fill:#333333;" d="M10.579,19.009c-0.237,0-0.476-0.02-0.713-0.06c-1.038-0.173-1.987-0.65-2.744-1.383l-0.369-0.355
	c-0.359-0.347-0.672-0.742-0.93-1.175l-1.087-1.827l-0.352-0.7c-0.474-0.95-1.086-1.816-1.822-2.578
	c-0.591-0.156-1.091-0.522-1.417-1.041C0.804,9.349,0.694,8.707,0.836,8.083c0.142-0.624,0.518-1.156,1.06-1.497
	c0.542-0.34,1.183-0.451,1.808-0.309c0.726,0.165,1.33,0.664,1.64,1.325C6.415,8.146,7.556,8.532,8.741,8.75l0.262,0.048
	c0.901,0.167,1.755,0.489,2.54,0.96l0.733,0.44c0.583,0.35,1.103,0.789,1.545,1.304l0.203,0.236c0.797,0.93,1.16,2.158,0.998,3.37
	l-0.013,0.102c-0.113,0.845-0.502,1.643-1.094,2.252L13.682,17.7C12.861,18.543,11.738,19.009,10.579,19.009z M3.171,8.218
	c-0.096,0-0.169,0.036-0.21,0.061C2.909,8.312,2.818,8.387,2.786,8.526s0.019,0.247,0.051,0.298C2.87,8.876,2.945,8.968,3.084,9
	l0.353,0.033L3.75,9.29c0.99,0.968,1.806,2.087,2.424,3.327l0.316,0.635l1.051,1.761c0.167,0.28,0.37,0.536,0.602,0.76l0.369,0.356
	c0.464,0.449,1.046,0.742,1.682,0.849c0.754,0.126,1.524-0.126,2.056-0.673l0.233-0.238c0.297-0.306,0.485-0.692,0.542-1.117
	l0.013-0.102c0.088-0.651-0.106-1.309-0.532-1.805l-0.203-0.236c-0.303-0.353-0.658-0.652-1.057-0.892l-0.733-0.44
	c-0.578-0.347-1.208-0.585-1.873-0.708l-0.262-0.048c-1.516-0.28-2.97-0.795-4.322-1.533L3.659,8.968l-0.1-0.44
	c-0.027-0.118-0.12-0.259-0.299-0.3C3.229,8.221,3.199,8.218,3.171,8.218z"/>
</svg>






