<?xml version="1.0" encoding="iso-8859-1"?>
<svg version="1.1" id="&#x56FE;&#x5C42;_1" xmlns="http://www.w3.org/2000/svg" xmlns:xlink="http://www.w3.org/1999/xlink" x="0px"
	 y="0px" viewBox="0 0 24 24" style="enable-background:new 0 0 24 24;" xml:space="preserve">
<g>
	<defs>
		<rect id="SVGID_1_" width="24" height="24"/>
	</defs>
	<clipPath id="SVGID_00000094613914473553166740000015075007533446343077_">
		<use xlink:href="#SVGID_1_"  style="overflow:visible;"/>
	</clipPath>
	<g style="clip-path:url(#SVGID_00000094613914473553166740000015075007533446343077_);">
		<path style="fill:#333333;" d="M13.337,18.949c-0.811,0-1.695-0.092-2.635-0.28c-2.815-0.562-5.468-1.871-7.096-3.5
			c-2.735-2.734-4.171-7.143,0-11.313c4.17-4.169,8.578-2.736,11.314,0c3.358,3.358,5.205,11.056,2.475,13.789l0,0
			C16.535,18.504,15.114,18.949,13.337,18.949z M9.22,3.248c-1.264,0-2.697,0.52-4.2,2.022c-3.829,3.829-1.275,7.209,0,8.485
			c1.34,1.34,3.667,2.472,6.074,2.953c2.233,0.447,4.15,0.259,4.886-0.478c1.573-1.574,0.425-8.061-2.475-10.96
			C12.73,4.495,11.178,3.248,9.22,3.248z"/>
		
			<rect x="17.75" y="16.275" transform="matrix(0.7071 -0.7071 0.7071 0.7071 -7.7665 18.75)" style="fill:#333333;" width="2" height="4.95"/>
		<circle style="fill:#333333;" cx="21.097" cy="20.036" r="1.25"/>
		<circle style="fill:#333333;" cx="20.036" cy="21.096" r="1.25"/>
		<circle style="fill:#333333;" cx="8.5" cy="9" r="1"/>
		<circle style="fill:#333333;" cx="6" cy="10.5" r="1"/>
		<circle style="fill:#333333;" cx="8.5" cy="12" r="1"/>
	</g>
</g>
</svg>






