<?xml version="1.0" encoding="iso-8859-1"?>
<svg version="1.1" id="&#x56FE;&#x5C42;_1" xmlns="http://www.w3.org/2000/svg" xmlns:xlink="http://www.w3.org/1999/xlink" x="0px"
	 y="0px" viewBox="0 0 24 24" style="enable-background:new 0 0 24 24;" xml:space="preserve">
<path style="fill:#333333;" d="M14.523,15.717c-0.622-2.799,0.363-7.68,5.625-9.653l0.703,1.873
	c-4.55,1.706-4.701,5.882-4.375,7.347L14.523,15.717z"/>
<rect x="5.5" y="1.697" transform="matrix(0.8321 -0.5547 0.5547 0.8321 -0.8498 4.1934)" style="fill:#333333;" width="2" height="3.606"/>
<path style="fill:#333333;" d="M13.895,22.447l-1.789-0.895l1.211-2.421l0.458-0.106C16.549,18.383,18,16.389,18,15.5h2
	c0,1.906-2.113,4.432-5.309,5.354L13.895,22.447z"/>
<path style="fill:#333333;" d="M8.105,22.447l-0.819-1.639c-4.527-1.72-5.74-6.521-5.74-8.883c-0.244-2.589,0.41-4.667,1.948-6.084
	c1.982-1.827,5.008-2.071,7.179-1.689l-0.346,1.97c-1.622-0.285-4.03-0.144-5.478,1.19c-1.055,0.972-1.495,2.494-1.308,4.521
	c0.004,2.02,1,5.991,4.767,7.215l0.398,0.13l1.188,2.374L8.105,22.447z"/>
<path style="fill:#333333;" d="M20.342,16.5H15.5c-4.17,0-6.342-3.782-6.984-7.321l1.968-0.357c0.242,1.333,1.317,5.679,5.016,5.679
	h2.334c-0.068-1.671,0.593-3.819,3.286-4.925l0.76,1.85c-2.642,1.085-2.003,3.516-1.922,3.79L20.342,16.5z"/>
</svg>






