<?xml version="1.0" encoding="iso-8859-1"?>
<svg version="1.1" id="&#x56FE;&#x5C42;_1" xmlns="http://www.w3.org/2000/svg" xmlns:xlink="http://www.w3.org/1999/xlink" x="0px"
	 y="0px" viewBox="0 0 24 24" style="enable-background:new 0 0 24 24;" xml:space="preserve">
<path style="fill:#333333;" d="M12,22c-5.238,0-9.5-4.262-9.5-9.5S6.762,3,12,3s9.5,4.262,9.5,9.5S17.238,22,12,22z M12,5
	c-4.136,0-7.5,3.364-7.5,7.5S7.864,20,12,20s7.5-3.364,7.5-7.5S16.136,5,12,5z"/>
<polygon style="fill:#333333;" points="15.5,12.118 14.053,11.395 14.947,9.605 15.5,9.882 16.053,9.605 16.947,11.395 "/>
<polygon style="fill:#333333;" points="8.5,12.118 7.053,11.395 7.947,9.605 8.5,9.882 9.053,9.605 9.947,11.395 "/>
<rect x="11" y="19" style="fill:#333333;" width="2" height="3"/>
<path style="fill:#333333;" d="M11.031,4.246C11.027,4.233,10.551,3,9,3V1c2.479,0,3.745,1.858,3.97,2.757L11.031,4.246z"/>
<path style="fill:#333333;" d="M12.996,4.083l-1.993-0.167c0.018-0.208,0.208-2.046,1.5-2.785l0.992,1.736
	C13.261,3.002,13.034,3.632,12.996,4.083z"/>
<path style="fill:#333333;" d="M16.987,20h-2c0-3.034,0-3.5-2.987-3.5c-2.208,0-2.546,0.507-2.658,0.674
	c-0.33,0.493-0.33,1.511-0.33,2.799l-2,0.027c0-1.654,0-2.939,0.667-3.938C8.412,14.967,9.704,14.5,12,14.5
	C16.987,14.5,16.987,17.049,16.987,20z"/>
<rect x="1.5" y="11.5" style="fill:#333333;" width="2" height="2"/>
<rect x="20.5" y="11.5" style="fill:#333333;" width="2" height="2"/>
</svg>






