<?xml version="1.0" encoding="iso-8859-1"?>
<svg version="1.1" id="&#x56FE;&#x5C42;_1" xmlns="http://www.w3.org/2000/svg" xmlns:xlink="http://www.w3.org/1999/xlink" x="0px"
	 y="0px" viewBox="0 0 24 24" style="enable-background:new 0 0 24 24;" xml:space="preserve">
<g>
	<defs>
		<rect id="SVGID_1_" width="24" height="24"/>
	</defs>
	<clipPath id="SVGID_00000151522459061732841920000018173379237771942545_">
		<use xlink:href="#SVGID_1_"  style="overflow:visible;"/>
	</clipPath>
	<g style="clip-path:url(#SVGID_00000151522459061732841920000018173379237771942545_);">
		<path style="fill:#333333;" d="M4.508,22.555c-0.442,0-0.879-0.136-1.252-0.399c-0.562-0.398-0.896-1.021-0.916-1.71
			c-0.019-0.688,0.279-1.33,0.818-1.759l1.39-1.104c1.932-1.533,3.32-3.596,4.016-5.963l1.06-3.604
			c0.485-1.65,1.694-2.92,3.319-3.485c1.623-0.565,3.362-0.319,4.765,0.674c1.214,0.858,2.01,2.197,2.186,3.674
			c0.175,1.477-0.286,2.966-1.267,4.084l-1.565,1.788c-2.704,3.088-6.16,5.5-9.995,6.975l-1.78,0.684
			C5.035,22.507,4.771,22.555,4.508,22.555z M14.681,6.235c-0.361,0-0.725,0.061-1.081,0.185c-1.006,0.35-1.756,1.137-2.056,2.159v0
			l-1.06,3.604c-0.812,2.765-2.435,5.173-4.69,6.965l-1.39,1.104c-0.055,0.043-0.065,0.099-0.063,0.138
			c0.001,0.056,0.025,0.101,0.071,0.133c0.046,0.033,0.105,0.039,0.157,0.021l1.781-0.685c3.532-1.358,6.716-3.58,9.208-6.426
			l1.565-1.787c0.615-0.704,0.895-1.603,0.784-2.532c-0.11-0.928-0.591-1.737-1.354-2.276C15.99,6.439,15.341,6.235,14.681,6.235z"
			/>
		<path style="fill:#333333;" d="M19.429,8.818l-1.248-1.562c0.221-0.177,0.385-0.413,0.474-0.684
			c0.253-0.767-0.166-1.598-0.934-1.851c-0.37-0.123-0.768-0.094-1.118,0.083c-0.35,0.176-0.609,0.478-0.731,0.85l-1.9-0.625
			c0.29-0.879,0.904-1.593,1.731-2.01c0.828-0.417,1.766-0.486,2.646-0.197c1.813,0.598,2.804,2.561,2.207,4.375
			C20.343,7.838,19.954,8.398,19.429,8.818z"/>
		
			<rect x="18.586" y="2" transform="matrix(0.7071 -0.7071 0.7071 0.7071 3.7365 15.0208)" style="fill:#333333;" width="2.828" height="2"/>
	</g>
</g>
</svg>






