<?xml version="1.0" encoding="iso-8859-1"?>
<svg version="1.1" id="&#x56FE;&#x5C42;_1" xmlns="http://www.w3.org/2000/svg" xmlns:xlink="http://www.w3.org/1999/xlink" x="0px"
	 y="0px" viewBox="0 0 24 24" style="enable-background:new 0 0 24 24;" xml:space="preserve">
<rect x="2" y="21" style="fill:#333333;" width="20" height="2"/>
<rect x="6.5" y="6" style="fill:#333333;" width="11" height="2"/>
<path style="fill:#333333;" d="M19.143,23H4.858L7.125,6h9.751L19.143,23z M7.142,21h9.715L15.124,8H8.875L7.142,21z"/>
<rect x="7.5" y="11" style="fill:#333333;" width="9" height="2"/>
<rect x="6.5" y="16" style="fill:#333333;" width="11" height="2"/>
<rect x="16" y="6.934" transform="matrix(0.9912 -0.1322 0.1322 0.9912 -1.7673 2.3741)" style="fill:#333333;" width="2" height="15.133"/>
<rect x="-0.566" y="13.5" transform="matrix(0.1318 -0.9913 0.9913 0.1318 -8.2963 19.5272)" style="fill:#333333;" width="15.133" height="2"/>
<path style="fill:#333333;" d="M12.707,4.707l-1.414-1.414l0.414-0.414C12.273,2.312,13.027,2,13.828,2h0.344
	c0.263,0,0.521-0.107,0.707-0.293l0.414-0.414l1.414,1.414l-0.414,0.414C15.727,3.688,14.973,4,14.172,4h-0.344
	c-0.263,0-0.521,0.107-0.707,0.293L12.707,4.707z"/>
</svg>






