<?xml version="1.0" encoding="iso-8859-1"?>
<svg version="1.1" id="&#x56FE;&#x5C42;_1" xmlns="http://www.w3.org/2000/svg" xmlns:xlink="http://www.w3.org/1999/xlink" x="0px"
	 y="0px" viewBox="0 0 24 24" style="enable-background:new 0 0 24 24;" xml:space="preserve">
<path style="fill:#333333;" d="M18.609,10.5L5.285,10.477c-0.052-0.011-1.272-0.281-2.069-0.518
	C2.603,9.777,1.664,9.442,1.664,9.442l0.241-1.938c0.4-0.039,1.584-0.193,2.245-0.441c0.933-0.35,2.254-1.424,2.685-1.809L7.118,5
	l9.764,0l0.285,0.254c0.43,0.385,1.751,1.459,2.685,1.81c0.66,0.247,1.844,0.402,2.244,0.44l0.24,1.938c0,0-0.939,0.335-1.551,0.517
	c-0.797,0.237-2.019,0.507-2.069,0.518L18.609,10.5z M5.763,8.5h12.475c-0.862-0.489-1.68-1.139-2.109-1.5H7.872
	C7.442,7.361,6.625,8.011,5.763,8.5z"/>
<path style="fill:#333333;" d="M15,7H9L8.2,5.4L12,0.333L15.8,5.4L15,7z M11,5h2l-1-1.333L11,5z"/>
<rect x="4.5" y="9.5" style="fill:#333333;" width="2" height="9.5"/>
<rect x="17.5" y="9.5" style="fill:#333333;" width="2" height="9.5"/>
<path style="fill:#333333;" d="M22,23H2v-5h20V23z M4,21h16v-1H4V21z"/>
</svg>






