<?xml version="1.0" encoding="iso-8859-1"?>
<svg version="1.1" id="&#x56FE;&#x5C42;_1" xmlns="http://www.w3.org/2000/svg" xmlns:xlink="http://www.w3.org/1999/xlink" x="0px"
	 y="0px" viewBox="0 0 24 24" style="enable-background:new 0 0 24 24;" xml:space="preserve">
<path style="fill:#333333;" d="M17,22H7c-1.103,0-2-0.897-2-2V4c0-1.103,0.897-2,2-2h10c1.103,0,2,0.897,2,2v16
	C19,21.103,18.103,22,17,22z M7,4H6.999L7,20h10V4H7z"/>
<rect x="3" y="5" style="fill:#333333;" width="3" height="2"/>
<rect x="3" y="9" style="fill:#333333;" width="3" height="2"/>
<rect x="3" y="13" style="fill:#333333;" width="3" height="2"/>
<rect x="3" y="17" style="fill:#333333;" width="3" height="2"/>
<rect x="18" y="5" style="fill:#333333;" width="3" height="2"/>
<rect x="18" y="9" style="fill:#333333;" width="3" height="2"/>
<rect x="18" y="13" style="fill:#333333;" width="3" height="2"/>
<rect x="18" y="17" style="fill:#333333;" width="3" height="2"/>
</svg>






