<?xml version="1.0" encoding="iso-8859-1"?>
<svg version="1.1" id="&#x56FE;&#x5C42;_1" xmlns="http://www.w3.org/2000/svg" xmlns:xlink="http://www.w3.org/1999/xlink" x="0px"
	 y="0px" viewBox="0 0 24 24" style="enable-background:new 0 0 24 24;" xml:space="preserve">
<rect x="11" y="18" style="fill:#333333;" width="2" height="4"/>
<path style="fill:#333333;" d="M21,19H3l-0.742-1.671l2.859-3.159l-0.843-0.195l-0.481-1.682L7.086,9L5.619,7.533L12,0.513
	l6.381,7.02L16.914,9l3.293,3.293l-0.481,1.682l-0.843,0.195l2.858,3.159L21,19z M5.253,17h13.494l-3.63-4.012l2.401-0.556L14.086,9
	l1.533-1.533L12,3.487l-3.619,3.98L9.914,9l-3.433,3.433l2.401,0.556L5.253,17z"/>
</svg>






