<?xml version="1.0" encoding="iso-8859-1"?>
<svg version="1.1" id="&#x56FE;&#x5C42;_1" xmlns="http://www.w3.org/2000/svg" xmlns:xlink="http://www.w3.org/1999/xlink" x="0px"
	 y="0px" viewBox="0 0 24 24" style="enable-background:new 0 0 24 24;" xml:space="preserve">
<path style="fill:#333333;" d="M19.5,18h-15l-0.781-1.625l3.158-3.947l-2.656-1.062l4.091-4.091l-2-1L12,0.586l5.688,5.688l-2,1
	l4.163,4.163l-3.087,1.029l3.479,3.865L19.5,18z M6.581,16h10.674l-4.02-4.466l2.913-0.971l-3.837-3.837l2-1L12,3.414L9.688,5.726
	l2,1l-3.909,3.909l2.344,0.938L6.581,16z"/>
<rect x="8.5" y="21" style="fill:#333333;" width="7" height="2"/>
<rect x="7.738" y="18.5" transform="matrix(0.0996 -0.995 0.995 0.0996 -10.1739 27.7568)" style="fill:#333333;" width="5.025" height="2"/>
<rect x="12.75" y="16.988" transform="matrix(0.995 -0.0995 0.0995 0.995 -1.8721 1.465)" style="fill:#333333;" width="2" height="5.025"/>
</svg>






