<?xml version="1.0" encoding="iso-8859-1"?>
<svg version="1.1" id="&#x56FE;&#x5C42;_1" xmlns="http://www.w3.org/2000/svg" xmlns:xlink="http://www.w3.org/1999/xlink" x="0px"
	 y="0px" viewBox="0 0 24 24" style="enable-background:new 0 0 24 24;" xml:space="preserve">
<path style="fill:#333333;" d="M18.5,23h-13V11.558L12,5.648l6.5,5.909V23z M7.5,21h9v-8.558L12,8.352l-4.5,4.091V21z"/>
<path style="fill:#333333;" d="M7.5,23h-5V3.667L5,0.333l2.5,3.333V23z M4.5,21h1V4.333L5,3.667L4.5,4.333V21z"/>
<path style="fill:#333333;" d="M21.5,23h-5V3.667L19,0.333l2.5,3.333V23z M18.5,21h1V4.333L19,3.667l-0.5,0.667V21z"/>
<rect x="11" y="12.5" style="fill:#333333;" width="2" height="5"/>
<rect x="10" y="13.5" style="fill:#333333;" width="4" height="2"/>
</svg>






