<?xml version="1.0" encoding="iso-8859-1"?>
<svg version="1.1" id="&#x56FE;&#x5C42;_1" xmlns="http://www.w3.org/2000/svg" xmlns:xlink="http://www.w3.org/1999/xlink" x="0px"
	 y="0px" viewBox="0 0 24 24" style="enable-background:new 0 0 24 24;" xml:space="preserve">
<rect x="11" y="2" style="fill:#333333;" width="2" height="6"/>
<rect x="10" y="3" style="fill:#333333;" width="4" height="2"/>
<path style="fill:#333333;" d="M4.5,22h-2v-7c0-1.103,0.897-2,2-2h3v2h-3V22z"/>
<path style="fill:#333333;" d="M21.5,22h-2v-7h-3v-2h3c1.103,0,2,0.897,2,2V22z"/>
<rect x="2" y="21" style="fill:#333333;" width="20" height="2"/>
<path style="fill:#333333;" d="M17.5,23h-11V11.051L12,6.162l5.5,4.889V23z M8.5,21h7v-9.051L12,8.838l-3.5,3.111V21z"/>
<rect x="11" y="17" style="fill:#333333;" width="2" height="5"/>
<rect x="10" y="21" style="fill:#333333;" width="4" height="2"/>
</svg>






