<?xml version="1.0" encoding="iso-8859-1"?>
<svg version="1.1" id="&#x56FE;&#x5C42;_1" xmlns="http://www.w3.org/2000/svg" xmlns:xlink="http://www.w3.org/1999/xlink" x="0px"
	 y="0px" viewBox="0 0 24 24" style="enable-background:new 0 0 24 24;" xml:space="preserve">
<path style="fill:#333333;" d="M20,7c-1.654,0-3-1.346-3-3s1.346-3,3-3s3,1.346,3,3S21.654,7,20,7z M20,3c-0.552,0-1,0.449-1,1
	s0.448,1,1,1s1-0.449,1-1S20.552,3,20,3z"/>
<path style="fill:#333333;" d="M20,23c-1.654,0-3-1.346-3-3s1.346-3,3-3s3,1.346,3,3S21.654,23,20,23z M20,19c-0.552,0-1,0.448-1,1
	s0.448,1,1,1s1-0.448,1-1S20.552,19,20,19z"/>
<path style="fill:#333333;" d="M4,7C2.346,7,1,5.654,1,4s1.346-3,3-3s3,1.346,3,3S5.654,7,4,7z M4,3C3.449,3,3,3.449,3,4
	s0.449,1,1,1s1-0.449,1-1S4.551,3,4,3z"/>
<path style="fill:#333333;" d="M4,23c-1.654,0-3-1.346-3-3s1.346-3,3-3s3,1.346,3,3S5.654,23,4,23z M4,19c-0.551,0-1,0.448-1,1
	s0.449,1,1,1s1-0.448,1-1S4.551,19,4,19z"/>
<rect x="10" y="3" style="fill:#333333;" width="4" height="2"/>
<path style="fill:none;" d="M16,8l-8,8L16,8z"/>
<rect x="6.343" y="11" transform="matrix(0.7071 -0.7071 0.7071 0.7071 -4.9706 12)" style="fill:#333333;" width="11.314" height="2"/>
<rect x="19" y="10" style="fill:#333333;" width="2" height="4"/>
</svg>






