<?xml version="1.0" encoding="iso-8859-1"?>
<svg version="1.1" id="&#x56FE;&#x5C42;_1" xmlns="http://www.w3.org/2000/svg" xmlns:xlink="http://www.w3.org/1999/xlink" x="0px"
	 y="0px" viewBox="0 0 24 24" style="enable-background:new 0 0 24 24;" xml:space="preserve">
<path style="fill:#333333;" d="M12,21.5c-0.81,0-1.611-0.114-2.383-0.339L8.73,20.903l0.187-0.904C8.972,19.733,9,19.46,9,19.186
	c0-2.206-1.794-4-4-4c-0.109,0-0.217,0.004-0.324,0.013l-0.921,0.074L3.608,14.36C3.537,13.914,3.5,13.456,3.5,13
	c0-2.686,1.291-5.243,3.454-6.841l0.947-0.7l0.537,1.048C9.127,7.851,10.492,8.685,12,8.685c1.508,0,2.873-0.834,3.562-2.178
	L16.1,5.459l0.947,0.7C19.209,7.757,20.5,10.314,20.5,13c0,0.46-0.036,0.918-0.108,1.361l-0.148,0.91l-0.919-0.073
	c-0.107-0.009-0.216-0.013-0.324-0.013c-2.206,0-4,1.794-4,4c0,0.275,0.027,0.549,0.082,0.812l0.189,0.906l-0.889,0.258
	C13.61,21.386,12.809,21.5,12,21.5z M10.995,19.423c0.663,0.104,1.348,0.104,2.01,0C13.002,19.344,13,19.265,13,19.186
	c0-3.139,2.423-5.723,5.497-5.979C18.499,13.138,18.5,13.069,18.5,13c0-1.696-0.674-3.326-1.841-4.531
	c-1.126,1.39-2.821,2.216-4.659,2.216S8.466,9.859,7.341,8.469C6.174,9.674,5.5,11.304,5.5,13c0,0.068,0.001,0.138,0.003,0.206
	C8.577,13.463,11,16.047,11,19.186C11,19.265,10.999,19.344,10.995,19.423z"/>
<path style="fill:#333333;" d="M12,7.5c-1.654,0-3-1.346-3-3s1.346-3,3-3s3,1.346,3,3S13.654,7.5,12,7.5z M12,3.5
	c-0.551,0-1,0.449-1,1s0.449,1,1,1c0.552,0,1-0.449,1-1S12.552,3.5,12,3.5z"/>
<path style="fill:#333333;" d="M4.5,22.5c-1.654,0-3-1.346-3-3s1.346-3,3-3s3,1.346,3,3S6.154,22.5,4.5,22.5z M4.5,18.5
	c-0.551,0-1,0.448-1,1s0.449,1,1,1s1-0.448,1-1S5.051,18.5,4.5,18.5z"/>
<path style="fill:#333333;" d="M19.5,22.5c-1.654,0-3-1.346-3-3s1.346-3,3-3s3,1.346,3,3S21.154,22.5,19.5,22.5z M19.5,18.5
	c-0.552,0-1,0.448-1,1s0.448,1,1,1s1-0.448,1-1S20.052,18.5,19.5,18.5z"/>
</svg>






