<?xml version="1.0" encoding="iso-8859-1"?>
<svg version="1.1" id="&#x56FE;&#x5C42;_1" xmlns="http://www.w3.org/2000/svg" xmlns:xlink="http://www.w3.org/1999/xlink" x="0px"
	 y="0px" viewBox="0 0 24 24" style="enable-background:new 0 0 24 24;" xml:space="preserve">
<path style="fill:#333333;" d="M12,7c-1.654,0-3-1.346-3-3s1.346-3,3-3s3,1.346,3,3S13.654,7,12,7z M12,3c-0.551,0-1,0.449-1,1
	s0.449,1,1,1c0.552,0,1-0.449,1-1S12.552,3,12,3z"/>
<path style="fill:#333333;" d="M12,15c-1.654,0-3-1.346-3-3s1.346-3,3-3s3,1.346,3,3S13.654,15,12,15z M12,11c-0.551,0-1,0.449-1,1
	c0,0.552,0.449,1,1,1c0.552,0,1-0.448,1-1C13,11.449,12.552,11,12,11z"/>
<path style="fill:#333333;" d="M18.934,11c-1.037,0-2.048-0.538-2.604-1.499c-0.4-0.694-0.507-1.503-0.3-2.277
	c0.208-0.774,0.704-1.421,1.398-1.822c0.693-0.4,1.502-0.508,2.276-0.299c0.774,0.207,1.421,0.704,1.821,1.398
	c0.4,0.693,0.507,1.501,0.3,2.276c-0.207,0.774-0.703,1.421-1.397,1.821C19.958,10.87,19.442,11,18.934,11z M18.927,7
	c-0.173,0-0.344,0.045-0.498,0.134c-0.231,0.134-0.397,0.35-0.467,0.607c-0.068,0.258-0.033,0.527,0.101,0.758
	c0.274,0.477,0.887,0.642,1.366,0.367c0.231-0.134,0.396-0.35,0.466-0.607s0.033-0.527-0.101-0.758
	c-0.134-0.232-0.349-0.397-0.606-0.466C19.102,7.011,19.014,7,18.927,7z"/>
<path style="fill:#333333;" d="M18.924,19.001c-0.521,0-1.033-0.136-1.495-0.402c-1.433-0.828-1.926-2.666-1.099-4.099v-0.001
	c0.829-1.431,2.669-1.921,4.098-1.098c1.434,0.829,1.926,2.667,1.099,4.1c-0.4,0.692-1.047,1.189-1.821,1.396
	C19.446,18.967,19.184,19.001,18.924,19.001z M18.062,15.5c-0.276,0.478-0.111,1.091,0.366,1.366c0.232,0.134,0.5,0.171,0.759,0.1
	c0.258-0.068,0.473-0.234,0.606-0.465c0.276-0.479,0.112-1.092-0.366-1.367C18.95,14.856,18.339,15.024,18.062,15.5z"/>
<path style="fill:#333333;" d="M12,23c-1.654,0-3-1.346-3-3s1.346-3,3-3s3,1.346,3,3S13.654,23,12,23z M12,19c-0.551,0-1,0.448-1,1
	s0.449,1,1,1c0.552,0,1-0.448,1-1S12.552,19,12,19z"/>
<path style="fill:#333333;" d="M5.077,18.999c-1.038,0-2.049-0.538-2.604-1.499c-0.827-1.432-0.334-3.271,1.098-4.099
	c1.433-0.827,3.271-0.334,4.098,1.099h0c0.827,1.433,0.334,3.271-1.098,4.099C6.101,18.87,5.585,18.999,5.077,18.999z M5.069,15
	c-0.169,0-0.341,0.043-0.498,0.134C4.094,15.409,3.93,16.022,4.206,16.5c0.276,0.478,0.889,0.644,1.367,0.366
	c0.477-0.275,0.641-0.889,0.365-1.366C5.752,15.18,5.416,15,5.069,15z"/>
<path style="fill:#333333;" d="M5.067,11.001c-0.52,0-1.033-0.137-1.496-0.404C2.139,9.771,1.646,7.933,2.474,6.5
	c0.827-1.433,2.666-1.925,4.098-1.098C8.004,6.229,8.497,8.067,7.67,9.5c-0.401,0.694-1.048,1.19-1.822,1.398
	C5.59,10.967,5.328,11.001,5.067,11.001z M5.073,7C4.728,7,4.391,7.18,4.206,7.5C3.93,7.978,4.094,8.59,4.572,8.866
	C4.804,9,5.073,9.036,5.331,8.966C5.588,8.897,5.804,8.731,5.938,8.5c0.276-0.478,0.112-1.09-0.366-1.366
	C5.415,7.043,5.243,7,5.073,7z"/>
</svg>






