<?xml version="1.0" encoding="iso-8859-1"?>
<svg version="1.1" id="&#x56FE;&#x5C42;_1" xmlns="http://www.w3.org/2000/svg" xmlns:xlink="http://www.w3.org/1999/xlink" x="0px"
	 y="0px" viewBox="0 0 24 24" style="enable-background:new 0 0 24 24;" xml:space="preserve">
<path style="fill:#333333;" d="M22,12.5H2l-0.496-1.868c0.051-0.029,5.138-2.951,7.253-5.301c2.041-2.268,2.542-3.643,2.547-3.656
	l1.894,0.009c0.002,0.005,0.504,1.38,2.545,3.647c2.131,2.367,6.744,5.294,6.791,5.324L22,12.5z M5.493,10.5h13.266
	c-1.51-1.092-3.317-2.515-4.502-3.831c-0.915-1.017-1.559-1.881-2.007-2.566c-0.448,0.685-1.092,1.549-2.007,2.566
	C9.057,7.987,7.129,9.407,5.493,10.5z"/>
<path style="fill:#333333;" d="M21,23H3v-8.5h18V23z M5,21h14v-4.5H5V21z"/>
<path style="fill:#333333;" d="M18.5,16.5h-13v-6h13V16.5z M7.5,14.5h9v-2h-9V14.5z"/>
</svg>






