<?xml version="1.0" encoding="iso-8859-1"?>
<svg version="1.1" id="&#x56FE;&#x5C42;_1" xmlns="http://www.w3.org/2000/svg" xmlns:xlink="http://www.w3.org/1999/xlink" x="0px"
	 y="0px" viewBox="0 0 24 24" style="enable-background:new 0 0 24 24;" xml:space="preserve">
<path style="fill:#333333;" d="M12,6c-1.378,0-2.5-1.122-2.5-2.5S10.622,1,12,1c1.379,0,2.5,1.122,2.5,2.5S13.379,6,12,6z M12,3
	c-0.276,0-0.5,0.224-0.5,0.5S11.724,4,12,4c0.275,0,0.5-0.224,0.5-0.5S12.275,3,12,3z"/>
<path style="fill:#333333;" d="M12,23c-1.378,0-2.5-1.121-2.5-2.5S10.622,18,12,18c1.379,0,2.5,1.121,2.5,2.5S13.379,23,12,23z
	 M12,20c-0.276,0-0.5,0.225-0.5,0.5S11.724,21,12,21c0.275,0,0.5-0.225,0.5-0.5S12.275,20,12,20z"/>
<path style="fill:#333333;" d="M3.5,14.5C2.122,14.5,1,13.379,1,12c0-1.378,1.122-2.5,2.5-2.5S6,10.622,6,12
	C6,13.379,4.878,14.5,3.5,14.5z M3.5,11.5C3.224,11.5,3,11.724,3,12c0,0.275,0.224,0.5,0.5,0.5S4,12.275,4,12
	C4,11.724,3.776,11.5,3.5,11.5z"/>
<path style="fill:#333333;" d="M20.5,14.5c-1.379,0-2.5-1.121-2.5-2.5c0-1.378,1.121-2.5,2.5-2.5S23,10.622,23,12
	C23,13.379,21.879,14.5,20.5,14.5z M20.5,11.5c-0.275,0-0.5,0.224-0.5,0.5c0,0.275,0.225,0.5,0.5,0.5S21,12.275,21,12
	C21,11.724,20.775,11.5,20.5,11.5z"/>
<path style="fill:#333333;" d="M15.69,19.6l-0.518-0.949c-0.614-1.126-1.792-1.825-3.074-1.825c-1.277,0-2.453,0.695-3.069,1.815
	l-0.521,0.948l-0.904-0.594c-1.037-0.681-1.92-1.602-2.556-2.664l-0.483-0.809l0.777-0.531c0.958-0.653,1.529-1.735,1.529-2.893
	c0-1.153-0.568-2.232-1.52-2.887L4.576,8.678l0.486-0.807c0.691-1.147,1.663-2.119,2.81-2.81l0.807-0.486l0.534,0.776
	c0.654,0.952,1.733,1.52,2.887,1.52c1.157,0,2.239-0.572,2.893-1.529l0.531-0.777l0.809,0.483c1.064,0.637,1.985,1.521,2.665,2.559
	l0.566,0.864l-0.882,0.538C17.628,9.651,17,10.769,17,12c0,1.251,0.675,2.415,1.762,3.039l0.896,0.515l-0.543,0.879
	c-0.636,1.028-1.507,1.919-2.519,2.577L15.69,19.6z M12.099,14.825c1.624,0,3.142,0.714,4.175,1.918
	c0.212-0.19,0.41-0.396,0.595-0.613C15.696,15.096,15,13.593,15,12c0-1.56,0.642-3.004,1.758-4.034
	c-0.232-0.259-0.486-0.5-0.758-0.717c-1.023,1.03-2.423,1.623-3.901,1.623c-1.472,0-2.867-0.589-3.89-1.611
	C7.86,7.542,7.542,7.86,7.261,8.209c1.022,1.023,1.611,2.417,1.611,3.89c0,1.479-0.593,2.878-1.623,3.901
	c0.209,0.261,0.439,0.505,0.687,0.729C8.969,15.534,10.482,14.825,12.099,14.825z"/>
</svg>






