<?xml version="1.0" encoding="iso-8859-1"?>
<svg version="1.1" id="&#x56FE;&#x5C42;_1" xmlns="http://www.w3.org/2000/svg" xmlns:xlink="http://www.w3.org/1999/xlink" x="0px"
	 y="0px" viewBox="0 0 24 24" style="enable-background:new 0 0 24 24;" xml:space="preserve">
<path style="fill:#333333;" d="M20,7c-1.654,0-3-1.346-3-3s1.346-3,3-3s3,1.346,3,3S21.654,7,20,7z M20,3c-0.552,0-1,0.449-1,1
	s0.448,1,1,1s1-0.449,1-1S20.552,3,20,3z"/>
<path style="fill:#333333;" d="M4,23c-1.654,0-3-1.346-3-3s1.346-3,3-3s3,1.346,3,3S5.654,23,4,23z M4,19c-0.551,0-1,0.448-1,1
	s0.449,1,1,1s1-0.448,1-1S4.551,19,4,19z"/>
<polygon style="fill:#333333;" points="21,21 10,21 10,19 19,19 19,10 21,10 "/>
<polygon style="fill:#333333;" points="5,14 3,14 3,3 14,3 14,5 5,5 "/>
</svg>






