<?xml version="1.0" encoding="iso-8859-1"?>
<svg version="1.1" id="&#x56FE;&#x5C42;_1" xmlns="http://www.w3.org/2000/svg" xmlns:xlink="http://www.w3.org/1999/xlink" x="0px"
	 y="0px" viewBox="0 0 24 24" style="enable-background:new 0 0 24 24;" xml:space="preserve">
<path style="fill:#333333;" d="M12,22.5c-2.152,0-4.181-0.701-5.868-2.028l1.236-1.572C8.7,19.946,10.301,20.5,12,20.5
	c1.699,0,3.301-0.554,4.632-1.601l1.236,1.572C16.181,21.799,14.151,22.5,12,22.5z"/>
<path style="fill:#333333;" d="M3.008,16.073C2.671,15.086,2.5,14.052,2.5,13c0-4.2,2.695-7.85,6.707-9.083L9.793,5.83
	C6.627,6.802,4.5,9.684,4.5,13c0,0.831,0.135,1.647,0.401,2.427L3.008,16.073z"/>
<path style="fill:#333333;" d="M20.991,16.073l-1.893-0.646C19.365,14.647,19.5,13.831,19.5,13c0-3.316-2.127-6.198-5.294-7.17
	l0.588-1.912C18.805,5.15,21.5,8.8,21.5,13C21.5,14.052,21.329,15.086,20.991,16.073z"/>
<path style="fill:#333333;" d="M19,21.5c-1.93,0-3.5-1.57-3.5-3.5c0-1.357,0.796-2.604,2.027-3.176
	C17.99,14.609,18.485,14.5,19,14.5c1.93,0,3.5,1.57,3.5,3.5c0,0.906-0.346,1.767-0.973,2.421C20.861,21.116,19.964,21.5,19,21.5z
	 M19,16.5c-0.221,0-0.433,0.047-0.63,0.139C17.842,16.884,17.5,17.418,17.5,18c0,0.827,0.673,1.5,1.5,1.5
	c0.413,0,0.798-0.164,1.083-0.463c0.27-0.28,0.417-0.648,0.417-1.037C20.5,17.173,19.827,16.5,19,16.5z"/>
<path style="fill:#333333;" d="M5,21.5c-1.93,0-3.5-1.57-3.5-3.5c0-1.356,0.795-2.603,2.027-3.176C3.991,14.609,4.486,14.5,5,14.5
	c1.93,0,3.5,1.57,3.5,3.5c0,0.907-0.346,1.768-0.973,2.421C6.862,21.116,5.964,21.5,5,21.5z M5,16.5
	c-0.221,0-0.433,0.047-0.631,0.139C3.841,16.884,3.5,17.418,3.5,18c0,0.827,0.673,1.5,1.5,1.5c0.413,0,0.797-0.164,1.083-0.463
	C6.353,18.757,6.5,18.389,6.5,18C6.5,17.173,5.827,16.5,5,16.5z"/>
<path style="fill:#333333;" d="M12,8c-1.93,0-3.5-1.57-3.5-3.5c0-1.357,0.796-2.604,2.027-3.176C10.991,1.109,11.486,1,12,1
	c1.93,0,3.5,1.57,3.5,3.5c0,0.906-0.345,1.765-0.972,2.42C13.861,7.617,12.964,8,12,8z M12,3c-0.221,0-0.433,0.046-0.631,0.139
	C10.841,3.384,10.5,3.918,10.5,4.5C10.5,5.327,11.173,6,12,6c0.413,0,0.798-0.165,1.084-0.463C13.352,5.257,13.5,4.888,13.5,4.5
	C13.5,3.673,12.827,3,12,3z"/>
</svg>






