<?xml version="1.0" encoding="iso-8859-1"?>
<svg version="1.1" id="&#x56FE;&#x5C42;_1" xmlns="http://www.w3.org/2000/svg" xmlns:xlink="http://www.w3.org/1999/xlink" x="0px"
	 y="0px" viewBox="0 0 24 24" style="enable-background:new 0 0 24 24;" xml:space="preserve">
<path style="fill:#333333;" d="M18.609,10L5.285,9.977C5.233,9.965,4.013,9.695,3.216,9.458C2.603,9.277,1.664,8.942,1.664,8.942
	l0.229-1.936c0.913-0.099,1.915-0.282,2.144-0.392c0.743-0.394,2.326-1.52,2.873-1.921L7.173,4.5h9.1l0.234,0.138
	c0.025,0.015,2.516,1.478,3.461,1.979c0.226,0.108,1.227,0.291,2.14,0.39l0.229,1.936c0,0-0.939,0.335-1.551,0.517
	c-0.797,0.237-2.019,0.507-2.069,0.518L18.609,10z M5.623,8h12.71c-0.899-0.504-2.101-1.205-2.604-1.5H7.824
	C7.367,6.829,6.413,7.506,5.623,8z"/>
<path style="fill:#333333;" d="M15,6.5H8.5L7.793,4.793l4.264-4.264l3.702,4.32L15,6.5z M10.914,4.5h1.912l-0.883-1.029L10.914,4.5z
	"/>
<rect x="16.5" y="9" style="fill:#333333;" width="2" height="3"/>
<rect x="5" y="9" style="fill:#333333;" width="2" height="3"/>
<path style="fill:#333333;" d="M23.105,23H0.895l1.2-12h19.81L23.105,23z M3.105,21h17.79l-0.8-8H3.905L3.105,21z"/>
<path style="fill:#333333;" d="M15,23H9v-4c0-1.654,1.346-3,3-3s3,1.346,3,3V23z M11,21h2v-2c0-0.552-0.448-1-1-1
	c-0.551,0-1,0.448-1,1V21z"/>
</svg>






