<?xml version="1.0" encoding="iso-8859-1"?>
<svg version="1.1" id="&#x56FE;&#x5C42;_1" xmlns="http://www.w3.org/2000/svg" xmlns:xlink="http://www.w3.org/1999/xlink" x="0px"
	 y="0px" viewBox="0 0 24 24" style="enable-background:new 0 0 24 24;" xml:space="preserve">
<rect x="2" y="20" style="fill:#333333;" width="20" height="2"/>
<path style="fill:#333333;" d="M7,22H5c-1.103,0-2-0.897-2-2v-6c0-1.103,0.897-2,2-2h2c1.103,0,2,0.897,2,2v6
	C9,21.103,8.103,22,7,22z M5,14H4.999L5,20h2v-6H5z"/>
<rect x="6" y="16" style="fill:#333333;" width="0.5" height="2"/>
<path style="fill:#333333;" d="M19,22H9c-1.103,0-2-0.897-2-2V3c0-1.103,0.897-2,2-2h10c1.103,0,2,0.897,2,2v17
	C21,21.103,20.103,22,19,22z M9,3H8.999L9,20h10V3H9z"/>
<rect x="11" y="5" style="fill:#333333;" width="2" height="2"/>
<rect x="15" y="5" style="fill:#333333;" width="2" height="2"/>
<rect x="11" y="8.5" style="fill:#333333;" width="2" height="2"/>
<rect x="15" y="8.5" style="fill:#333333;" width="2" height="2"/>
<rect x="15" y="12" style="fill:#333333;" width="2" height="2"/>
<rect x="15" y="15.5" style="fill:#333333;" width="2" height="2"/>
</svg>






