<?xml version="1.0" encoding="iso-8859-1"?>
<svg version="1.1" id="&#x56FE;&#x5C42;_1" xmlns="http://www.w3.org/2000/svg" xmlns:xlink="http://www.w3.org/1999/xlink" x="0px"
	 y="0px" viewBox="0 0 24 24" style="enable-background:new 0 0 24 24;" xml:space="preserve">
<path style="fill:#333333;" d="M12,12c-3.033,0-5.5-2.467-5.5-5.5S8.967,1,12,1c3.032,0,5.5,2.467,5.5,5.5S15.032,12,12,12z M12,3
	c-1.93,0-3.5,1.57-3.5,3.5S10.07,10,12,10s3.5-1.57,3.5-3.5S13.93,3,12,3z"/>
<path style="fill:#333333;" d="M22.5,22h-2c0-3.462-2.745-7.084-4.378-7.863l-4.146,4.604l-0.74-0.876
	c-1.011-1.198-2.529-2.85-3.292-3.672C5.962,15.23,3.5,18.423,3.5,22h-2c0-4.648,3.369-8.976,6.393-9.951l0.603-0.195l0.434,0.462
	c0.082,0.088,1.719,1.834,3.086,3.392l3.394-3.767l0.521,0.069C18.678,12.37,22.5,17.473,22.5,22z"/>
<rect x="1" y="21" style="fill:#333333;" width="22" height="2"/>
</svg>






