<?xml version="1.0" encoding="iso-8859-1"?>
<svg version="1.1" id="&#x56FE;&#x5C42;_1" xmlns="http://www.w3.org/2000/svg" xmlns:xlink="http://www.w3.org/1999/xlink" x="0px"
	 y="0px" viewBox="0 0 24 24" style="enable-background:new 0 0 24 24;" xml:space="preserve">
<path style="fill:#333333;" d="M11.5,13h-2V7.5C9.5,7.224,9.276,7,9,7S8.5,7.224,8.5,7.5V13h-2V7.5C6.5,6.122,7.622,5,9,5
	s2.5,1.122,2.5,2.5V13z"/>
<path style="fill:#333333;" d="M13.75,22.5h-0.5c-3.722,0-6.75-3.028-6.75-6.75V12.5h2v3.25c0,2.619,2.131,4.75,4.75,4.75h0.5
	c2.619,0,4.75-2.131,4.75-4.75V12.5h2v3.25C20.5,19.472,17.472,22.5,13.75,22.5z"/>
<path style="fill:#333333;" d="M14.5,14.5h-2V12c0-0.276-0.225-0.5-0.5-0.5c-0.276,0-0.5,0.224-0.5,0.5v2.5h-2V12
	c0-1.378,1.122-2.5,2.5-2.5c1.379,0,2.5,1.122,2.5,2.5V14.5z"/>
<path style="fill:#333333;" d="M17.5,14.5h-2V12c0-0.276-0.225-0.5-0.5-0.5s-0.5,0.224-0.5,0.5v2.5h-2V12c0-1.378,1.121-2.5,2.5-2.5
	s2.5,1.122,2.5,2.5V14.5z"/>
<path style="fill:#333333;" d="M20.5,14.5h-2V12c0-0.276-0.225-0.5-0.5-0.5s-0.5,0.224-0.5,0.5v2.5h-2V12c0-1.378,1.121-2.5,2.5-2.5
	s2.5,1.122,2.5,2.5V14.5z"/>
<path style="fill:#333333;" d="M15,7.5h-2c0-0.413-0.062-0.818-0.185-1.207c-0.134-0.421-0.334-0.815-0.598-1.17
	C11.454,4.091,10.281,3.5,9,3.5c-1.281,0-2.454,0.591-3.217,1.623c-0.264,0.356-0.465,0.75-0.598,1.17C5.062,6.682,5,7.087,5,7.5H3
	c0-0.617,0.094-1.226,0.278-1.809c0.2-0.632,0.501-1.224,0.897-1.759C5.304,2.409,7.107,1.5,9,1.5c1.894,0,3.697,0.909,4.824,2.433
	c0.396,0.534,0.698,1.125,0.898,1.759C14.906,6.274,15,6.883,15,7.5z"/>
</svg>






