<?xml version="1.0" encoding="iso-8859-1"?>
<svg version="1.1" id="&#x56FE;&#x5C42;_1" xmlns="http://www.w3.org/2000/svg" xmlns:xlink="http://www.w3.org/1999/xlink" x="0px"
	 y="0px" viewBox="0 0 24 24" style="enable-background:new 0 0 24 24;" xml:space="preserve">
<path style="fill:#333333;" d="M22,22h-2v-1.194l-11.5-2.5V7.5c0-0.551-0.449-1-1-1s-1,0.449-1,1V22h-2V7.5c0-1.654,1.346-3,3-3
	s3,1.346,3,3v9.194l11.5,2.5V22z"/>
<path style="fill:#333333;" d="M9.864,13.557l-0.728-1.863C10.876,11.014,12,9.368,12,7.5C12,5.019,9.981,3,7.5,3S3,5.019,3,7.5
	c0,1.868,1.124,3.514,2.864,4.193l-0.728,1.863C2.624,12.575,1,10.198,1,7.5C1,3.916,3.916,1,7.5,1S14,3.916,14,7.5
	C14,10.198,12.376,12.575,9.864,13.557z"/>
</svg>






