<?xml version="1.0" encoding="iso-8859-1"?>
<svg version="1.1" id="&#x56FE;&#x5C42;_1" xmlns="http://www.w3.org/2000/svg" xmlns:xlink="http://www.w3.org/1999/xlink" x="0px"
	 y="0px" viewBox="0 0 24 24" style="enable-background:new 0 0 24 24;" xml:space="preserve">
<rect x="11" y="2" style="fill:#333333;" width="2" height="4"/>
<path style="fill:#333333;" d="M18,22.414l-2.845-2.845l-1.323,1.985l-1.812-0.358L9.725,9.725l11.471,2.294l0.358,1.812
	l-1.985,1.323L22.414,18L18,22.414z M14.845,16.431L18,19.586L19.586,18l-3.155-3.155l2.006-1.338l-6.162-1.232l1.232,6.162
	L14.845,16.431z"/>
<rect x="15.656" y="5.343" transform="matrix(0.7071 -0.7071 0.7071 0.7071 0.6863 14.343)" style="fill:#333333;" width="4.001" height="2"/>
<rect x="4.343" y="16.657" transform="matrix(0.7071 -0.7071 0.7071 0.7071 -10.6274 9.6567)" style="fill:#333333;" width="4.001" height="2"/>
<rect x="2" y="11" style="fill:#333333;" width="4" height="2"/>
<rect x="5.343" y="4.343" transform="matrix(0.7072 -0.707 0.707 0.7072 -2.6273 6.3424)" style="fill:#333333;" width="2" height="4"/>
</svg>






