<?xml version="1.0" encoding="iso-8859-1"?>
<svg version="1.1" id="&#x56FE;&#x5C42;_1" xmlns="http://www.w3.org/2000/svg" xmlns:xlink="http://www.w3.org/1999/xlink" x="0px"
	 y="0px" viewBox="0 0 24 24" style="enable-background:new 0 0 24 24;" xml:space="preserve">
<rect x="2" y="21" style="fill:#333333;" width="20" height="2"/>
<path style="fill:#333333;" d="M20.5,23h-8v-8h8V23z M14.5,21h4v-4h-4V21z"/>
<rect x="18" y="5" style="fill:#333333;" width="2" height="3"/>
<rect x="13" y="5" style="fill:#333333;" width="2" height="3"/>
<path style="fill:#333333;" d="M19,6h-5l-0.769-1.64L16.5,0.438l3.269,3.922L19,6z M16.135,4h0.73L16.5,3.562L16.135,4z"/>
<path style="fill:#333333;" d="M5.5,22h-2V11c0-1.103,0.897-2,2-2h7v2h-7V22z"/>
<rect x="7.5" y="13.5" style="fill:#333333;" width="2" height="2"/>
<rect x="7.5" y="17" style="fill:#333333;" width="2" height="2"/>
<path style="fill:#333333;" d="M20,17h-7c-0.827,0-1.5-0.673-1.5-1.5v-7C11.5,7.673,12.173,7,13,7h7c0.827,0,1.5,0.673,1.5,1.5v7
	C21.5,16.327,20.827,17,20,17z M13.5,15h6V9h-6V15z"/>
<circle style="fill:#333333;" cx="16.5" cy="12" r="1.5"/>
<rect x="15.5" y="16" style="fill:#333333;" width="2" height="5"/>
</svg>






