<?xml version="1.0" encoding="iso-8859-1"?>
<svg version="1.1" id="&#x56FE;&#x5C42;_1" xmlns="http://www.w3.org/2000/svg" xmlns:xlink="http://www.w3.org/1999/xlink" x="0px"
	 y="0px" viewBox="0 0 24 24" style="enable-background:new 0 0 24 24;" xml:space="preserve">
<path style="fill:#333333;" d="M15,20H3l-0.64-1.769c0.017-0.015,2.445-2.192,2.629-8.013l1.999,0.063
	C6.868,14.054,5.891,16.527,5.022,18H15V20z M20.359,19.769C20.223,19.654,17,16.884,17,9.5c0-2.757-2.243-5-5-5
	c-1.025,0-2.009,0.308-2.847,0.889L8.012,3.747C9.187,2.931,10.565,2.5,12,2.5c3.859,0,7,3.14,7,7c0,6.36,2.622,8.716,2.648,8.738
	L20.359,19.769z"/>
<path style="fill:#333333;" d="M12,23c-2.206,0-4-1.794-4-4v-1h8v1C16,21.206,14.206,23,12,23z M10.269,20
	c0.346,0.598,0.993,1,1.731,1c0.739,0,1.386-0.402,1.731-1H10.269z"/>
<path style="fill-rule:evenodd;clip-rule:evenodd;fill:#333333;" d="M12,1c-1.105,0-2,0.895-2,2h4C14,1.895,13.105,1,12,1z"/>
<rect x="11" y="0.002" transform="matrix(0.7452 -0.6668 0.6668 0.7452 -5.4445 11.2497)" style="fill:#333333;" width="2" height="25.495"/>
</svg>






