<?xml version="1.0" encoding="iso-8859-1"?>
<svg version="1.1" id="&#x56FE;&#x5C42;_1" xmlns="http://www.w3.org/2000/svg" xmlns:xlink="http://www.w3.org/1999/xlink" x="0px"
	 y="0px" viewBox="0 0 24 24" style="enable-background:new 0 0 24 24;" xml:space="preserve">
<path style="fill:#333333;" d="M20,23H9.586L8,21.414L6.414,23H4c-1.101,0-1.828,0-2.414-0.586S1,21.101,1,20V4
	c0-1.101,0-1.828,0.586-2.414S2.899,1,4,1h5c1.101,0,1.828,0,2.414,0.586S12,2.899,12,4v0.263c0,2.396,0.019,3.39,0.493,3.934
	c0.474,0.543,1.517,0.705,3.831,1.021l0.622,0.085c2.631,0.358,4.081,0.556,5.067,1.687C23,12.118,23,13.581,23,16.237V20
	c0,1.101,0,1.828-0.586,2.414S21.101,23,20,23z M10.414,21H20c0.365,0,0.771,0,0.973-0.027C21,20.771,21,20.365,21,20v-3.763
	c0-2.396-0.019-3.391-0.493-3.934c-0.474-0.543-1.517-0.705-3.831-1.021l-0.622-0.085c-2.631-0.358-4.081-0.556-5.067-1.687
	C10,8.381,10,6.918,10,4.263V4c0-0.365,0-0.771-0.028-0.972C9.771,3,9.365,3,9,3H4C3.635,3,3.229,3,3.028,3.028C3,3.229,3,3.635,3,4
	v16c0,0.365,0,0.771,0.028,0.973C3.229,21,3.635,21,4,21h1.586L8,18.586L10.414,21z"/>
<rect x="2" y="16" style="fill:#333333;" width="20" height="2"/>
<rect x="2" y="4.75" style="fill:#333333;" width="9" height="2"/>
<path style="fill:#333333;" d="M7.5,14C6.122,14,5,12.879,5,11.5C5,10.122,6.122,9,7.5,9s2.5,1.122,2.5,2.5
	C10,12.879,8.878,14,7.5,14z M7.5,11C7.224,11,7,11.224,7,11.5S7.224,12,7.5,12S8,11.776,8,11.5S7.776,11,7.5,11z"/>
</svg>






