<?xml version="1.0" encoding="iso-8859-1"?>
<svg version="1.1" id="&#x56FE;&#x5C42;_1" xmlns="http://www.w3.org/2000/svg" xmlns:xlink="http://www.w3.org/1999/xlink" x="0px"
	 y="0px" viewBox="0 0 24 24" style="enable-background:new 0 0 24 24;" xml:space="preserve">
<path style="fill:#333333;" d="M19.5,23h-15v-3.5H1V11c0-1.78,1.096-3.798,2.86-5.268C5.565,4.311,7.782,4.02,7.876,4.008
	l0.485-0.061L12,7.586l3.639-3.639l0.485,0.061c0.094,0.012,2.311,0.303,4.017,1.724C21.904,7.202,23,9.22,23,11v8.5h-3.5V23z
	 M6.5,21h11V11h2v6.5H21V11c0-1.166-0.86-2.665-2.141-3.732c-0.852-0.709-1.927-1.044-2.527-1.186L13,9.414V13.5h-2V9.414
	L7.668,6.082c-0.6,0.141-1.676,0.476-2.528,1.186C3.86,8.335,3,9.834,3,11v6.5h1.5V11h2v7.5h-1h1V21z"/>
<path style="fill:#333333;" d="M12,10.414L7.668,6.082c-0.6,0.141-1.676,0.476-2.528,1.186L4.124,8.115L2.406,4.25L3.85,1h16.299
	l1.445,3.25l-1.719,3.865l-1.017-0.847c-0.852-0.709-1.927-1.044-2.527-1.186L12,10.414z M8.361,3.947L12,7.586l3.639-3.639
	l0.485,0.061c0.075,0.009,1.505,0.197,2.946,0.997l0.335-0.754L18.851,3H5.15L4.594,4.25L4.93,5.004
	c1.442-0.8,2.872-0.987,2.946-0.997L8.361,3.947z"/>
</svg>






