<?xml version="1.0" encoding="iso-8859-1"?>
<svg version="1.1" id="&#x56FE;&#x5C42;_1" xmlns="http://www.w3.org/2000/svg" xmlns:xlink="http://www.w3.org/1999/xlink" x="0px"
	 y="0px" viewBox="0 0 24 24" style="enable-background:new 0 0 24 24;" xml:space="preserve">
<path style="fill:#333333;" d="M19.5,23h-15v-3.5H1V5.586l2.929-2.929L7.795,1h8.41l3.866,1.657L23,5.586V19.5h-3.5V23z M6.5,21h11
	V9.5h2v8H21V6.414l-2.071-2.071L15.795,3h-7.59L5.071,4.343L3,6.414V17.5h1.5v-8h2v9h-1h1V21z"/>
<rect x="11" y="10.5" style="fill:#333333;" width="2" height="11.5"/>
<rect x="7.25" y="1.87" transform="matrix(0.6823 -0.7311 0.7311 0.6823 -2.4965 8.2551)" style="fill:#333333;" width="2" height="10.259"/>
<rect x="9" y="1.553" transform="matrix(0.9048 -0.4258 0.4258 0.9048 -1.7094 4.8529)" style="fill:#333333;" width="2" height="9.394"/>
<rect x="9.303" y="5.25" transform="matrix(0.4257 -0.9049 0.9049 0.4257 2.3848 16.2575)" style="fill:#333333;" width="9.394" height="2.001"/>
<rect x="10.621" y="6" transform="matrix(0.731 -0.6824 0.6824 0.731 -0.5397 12.631)" style="fill:#333333;" width="10.259" height="2"/>
</svg>






