<?xml version="1.0" encoding="iso-8859-1"?>
<svg version="1.1" id="&#x56FE;&#x5C42;_1" xmlns="http://www.w3.org/2000/svg" xmlns:xlink="http://www.w3.org/1999/xlink" x="0px"
	 y="0px" viewBox="0 0 24 24" style="enable-background:new 0 0 24 24;" xml:space="preserve">
<path style="fill:#333333;" d="M19.5,23h-15v-3.5H1V8.525l4.027-3.288l3.322,2.416L12,3.481l3.65,4.172l3.322-2.416L23,8.525V19.5
	h-3.5V23z M6.5,21h11v-8.5h2v5H21V9.475l-2.098-1.712l-3.553,2.584L12,6.519l-3.349,3.828L5.098,7.762L3,9.475V17.5h1.5v-5h2v6h-1h1
	V21z"/>
<path style="fill:none;" d="M8.5,9L12,5l3.5,4L21,5l-1.25-3H4.5L3,5L8.5,9z"/>
<path style="fill:#333333;" d="M15.35,10.346L12,6.519l-3.349,3.828L1.727,5.311L3.882,1h16.535l1.81,4.344L15.35,10.346z M14.204,6
	l1.446,1.654l4.123-2.998L19.083,3H5.118L4.273,4.689l4.076,2.964L9.796,6H9.5V4h2.046L12,3.481L12.454,4H14.5v2H14.204z"/>
</svg>






