<?xml version="1.0" encoding="iso-8859-1"?>
<svg version="1.1" id="&#x56FE;&#x5C42;_1" xmlns="http://www.w3.org/2000/svg" xmlns:xlink="http://www.w3.org/1999/xlink" x="0px"
	 y="0px" viewBox="0 0 24 24" style="enable-background:new 0 0 24 24;" xml:space="preserve">
<path style="fill:#333333;" d="M19.5,23h-15v-3.5H1v-8c0-1.78,1.096-3.798,2.86-5.268C5.517,4.851,8.626,4.063,8.757,4.03L9,4
	l6.242,0.03c0.132,0.033,3.241,0.821,4.898,2.202C21.904,7.702,23,9.72,23,11.5v8h-3.5V23z M6.5,21h11v-9.5h2v6H21v-6
	c0-1.166-0.86-2.665-2.141-3.732C17.823,6.905,15.734,6.228,14.873,6H9.127C8.265,6.229,6.172,6.908,5.14,7.768
	C3.86,8.835,3,10.334,3,11.5v6h1.5v-6h2v7h-1h1V21z"/>
<path style="fill:#333333;" d="M16,6H8V1h8V6z M10,4h4V3h-4V4z"/>
</svg>






