<?xml version="1.0" encoding="iso-8859-1"?>
<svg version="1.1" id="&#x56FE;&#x5C42;_1" xmlns="http://www.w3.org/2000/svg" xmlns:xlink="http://www.w3.org/1999/xlink" x="0px"
	 y="0px" viewBox="0 0 24 24" style="enable-background:new 0 0 24 24;" xml:space="preserve">
<path style="fill:#333333;" d="M14.079,19.5L9.77,19.451c-0.135-0.044-3.332-1.099-5.477-3.244C2.026,13.94,2,9.68,2,9.5v-5h20v5
	c0,0.18-0.026,4.44-2.293,6.707c-2.146,2.146-5.342,3.2-5.478,3.244L14.079,19.5z M10.248,17.5h3.504
	c0.599-0.216,2.971-1.137,4.541-2.707C19.971,13.115,20,9.535,20,9.499V6.5H4v3c0,0.035,0.029,3.615,1.707,5.293
	C7.277,16.363,9.649,17.284,10.248,17.5z"/>
<path style="fill:#333333;" d="M11.079,18.514l-2-0.026c0-0.031,0.02-3.199-1.349-4.849c-1.12-1.35-4.073-2.779-5.117-3.216
	l0.772-1.845c0.172,0.072,4.224,1.783,5.883,3.784C11.112,14.583,11.081,18.354,11.079,18.514z"/>
<path style="fill:#333333;" d="M12.921,18.514c-0.002-0.159-0.034-3.931,1.81-6.152c1.66-2,5.712-3.712,5.883-3.784l0.773,1.845
	c-1.045,0.438-4,1.87-5.117,3.216c-1.369,1.649-1.349,4.816-1.349,4.849L12.921,18.514z"/>
</svg>






