<?xml version="1.0" encoding="iso-8859-1"?>
<svg version="1.1" id="&#x56FE;&#x5C42;_1" xmlns="http://www.w3.org/2000/svg" xmlns:xlink="http://www.w3.org/1999/xlink" x="0px"
	 y="0px" viewBox="0 0 24 24" style="enable-background:new 0 0 24 24;" xml:space="preserve">
<path style="fill:#333333;" d="M19.5,23h-15v-3.5H1V4.341L8.795,1h6.41L23,4.341V19.5h-3.5V23z M6.5,21h11V10.5h2v7H21V5.659
	L14.795,3h-5.59L3,5.659V17.5h1.5v-7h2v8h-1h1V21z"/>
<polygon style="fill:#333333;" points="13,22 11,22 11,9.205 8.081,2.394 9.919,1.606 12,6.461 14.081,1.606 15.919,2.394 13,9.205 
	"/>
<rect x="9.692" y="4.5" transform="matrix(0.3941 -0.9191 0.9191 0.3941 3.1248 15.7399)" style="fill:#333333;" width="7.616" height="2"/>
<rect x="9.5" y="1.692" transform="matrix(0.9191 -0.3939 0.3939 0.9191 -1.3176 4.5809)" style="fill:#333333;" width="2" height="7.616"/>
<polygon style="fill:#333333;" points="11.132,18.996 6.902,11.594 7.878,8.908 5.833,6.097 8.105,1.553 9.895,2.447 8.167,5.903 
	10.122,8.592 9.098,11.406 12.868,18.004 "/>
<polygon style="fill:#333333;" points="12.868,18.996 11.132,18.004 14.901,11.406 13.854,8.524 16.251,5.888 14.152,2.53 
	15.848,1.47 18.749,6.112 16.146,8.976 17.099,11.594 "/>
</svg>






