<?xml version="1.0" encoding="iso-8859-1"?>
<svg version="1.1" id="&#x56FE;&#x5C42;_1" xmlns="http://www.w3.org/2000/svg" xmlns:xlink="http://www.w3.org/1999/xlink" x="0px"
	 y="0px" viewBox="0 0 24 24" style="enable-background:new 0 0 24 24;" xml:space="preserve">
<path style="fill:#333333;" d="M18,20H4V8c0-3.003,0-4.657,1.172-5.829C6.343,1,7.997,1,11,1h0.5c2.487,0,3.858,0,4.936,0.827
	c0.276,0.212,0.525,0.461,0.738,0.739c0.721,0.938,0.812,2.101,0.824,4.033C19.561,6.897,21.5,7.932,21.5,10.5V13
	c0,2.567-1.938,3.602-3.5,3.9V20z M6,18h10v-3h1c0.414-0.004,2.5-0.119,2.5-2v-2.5c0-1.16-0.794-1.648-1.5-1.854V11h-2V7.5
	c0-2.05,0-3.179-0.413-3.717c-0.106-0.139-0.23-0.263-0.368-0.369C14.679,3,13.55,3,11.5,3H11C8.345,3,7.148,3.024,6.586,3.586
	C6.024,4.148,6,5.345,6,8V18z"/>
<path style="fill:#333333;" d="M17.5,23h-13C3.122,23,2,21.879,2,20.5S3.122,18,4.5,18h13c1.379,0,2.5,1.121,2.5,2.5
	S18.879,23,17.5,23z M4.5,20C4.224,20,4,20.225,4,20.5S4.224,21,4.5,21h13c0.275,0,0.5-0.225,0.5-0.5S17.775,20,17.5,20H4.5z"/>
</svg>






