<?xml version="1.0" encoding="iso-8859-1"?>
<svg version="1.1" id="&#x56FE;&#x5C42;_1" xmlns="http://www.w3.org/2000/svg" xmlns:xlink="http://www.w3.org/1999/xlink" x="0px"
	 y="0px" viewBox="0 0 24 24" style="enable-background:new 0 0 24 24;" xml:space="preserve">
<path style="fill:#333333;" d="M22.105,23h-6.309L12,12.452L8.203,23H1.895l2.2-22h15.81L22.105,23z M17.203,21h2.691l-1.8-18H5.905
	l-1.8,18h2.692l4.262-11.839h1.881L17.203,21z"/>
<rect x="11" y="2" style="fill:#333333;" width="2" height="2.75"/>
<path style="fill:#333333;" d="M4.687,8.472L4.212,6.529C4.708,6.406,6.14,5.946,6.793,5.293C7.251,4.834,7.498,3.085,7.5,1.999
	L9.5,2c0,0.57-0.062,3.477-1.293,4.707C7.042,7.872,4.925,8.414,4.687,8.472z"/>
<path style="fill:#333333;" d="M19.312,8.472c-0.237-0.058-2.355-0.6-3.52-1.765C14.562,5.477,14.5,2.57,14.5,2l2-0.001
	c0.002,1.086,0.248,2.835,0.707,3.294c0.653,0.653,2.084,1.113,2.581,1.236L19.312,8.472z"/>
</svg>






