<?xml version="1.0" encoding="iso-8859-1"?>
<svg version="1.1" id="&#x56FE;&#x5C42;_1" xmlns="http://www.w3.org/2000/svg" xmlns:xlink="http://www.w3.org/1999/xlink" x="0px"
	 y="0px" viewBox="0 0 24 24" style="enable-background:new 0 0 24 24;" xml:space="preserve">
<path style="fill:#333333;" d="M19.5,23h-15v-3.5H1v-11c0-1.78,1.096-3.798,2.86-5.268C5.517,1.851,8.626,1.063,8.757,1.03L9,1
	l6.242,0.03c0.132,0.033,3.241,0.821,4.898,2.202C21.904,4.702,23,6.72,23,8.5v11h-3.5V23z M6.5,21h11V8.5h2v9H21v-9
	c0-1.166-0.86-2.665-2.141-3.732C17.823,3.905,15.734,3.228,14.873,3H9.127C8.265,3.229,6.172,3.908,5.14,4.768
	C3.86,5.835,3,7.334,3,8.5v9h1.5v-9h2v10h-1h1V21z"/>
<path style="fill:#333333;" d="M12,6C9.794,6,8,4.206,8,2h2c0,1.103,0.897,2,2,2c1.103,0,2-0.897,2-2h2C16,4.206,14.206,6,12,6z"/>
</svg>






