<?xml version="1.0" encoding="iso-8859-1"?>
<svg version="1.1" id="&#x56FE;&#x5C42;_1" xmlns="http://www.w3.org/2000/svg" xmlns:xlink="http://www.w3.org/1999/xlink" x="0px"
	 y="0px" viewBox="0 0 24 24" style="enable-background:new 0 0 24 24;" xml:space="preserve">
<path style="fill:#333333;" d="M19.5,23h-15v-3.5H1v-11c0-1.78,1.096-3.798,2.86-5.268c1.612-1.343,3.701-2.135,3.789-2.168L7.819,1
	h8.363l0.17,0.063c0.088,0.033,2.177,0.825,3.789,2.168C21.904,4.702,23,6.72,23,8.5v11h-3.5V23z M6.5,21h11V8.5h2v9H21v-9
	c0-1.166-0.86-2.665-2.141-3.732C17.745,3.839,16.287,3.197,15.808,3H8.192C7.713,3.197,6.254,3.839,5.14,4.768
	C3.86,5.835,3,7.334,3,8.5v9h1.5v-9h2v10h-1h1V21z"/>
<rect x="11" y="8.5" style="fill:#333333;" width="2" height="13.5"/>
<rect x="9" y="1.434" transform="matrix(0.8517 -0.5241 0.5241 0.8517 -1.2681 6.0198)" style="fill:#333333;" width="2" height="7.632"/>
<rect x="10.184" y="4.25" transform="matrix(0.524 -0.8517 0.8517 0.524 2.1923 14.4228)" style="fill:#333333;" width="7.632" height="2"/>
</svg>






