<?xml version="1.0" encoding="iso-8859-1"?>
<svg version="1.1" id="&#x56FE;&#x5C42;_1" xmlns="http://www.w3.org/2000/svg" xmlns:xlink="http://www.w3.org/1999/xlink" x="0px"
	 y="0px" viewBox="0 0 24 24" style="enable-background:new 0 0 24 24;" xml:space="preserve">
<path style="fill:none;" d="M13.5,2h-6C5.614,2,4.672,2,4.086,2.586C3.5,3.172,3.5,4.114,3.5,6v16h14v-3.5c0,0,3.5,0,3.5-3v-4
	c0-3-3.5-3-3.5-3V6c0-1.886,0-2.828-0.586-3.414C16.328,2,15.386,2,13.5,2z"/>
<path style="fill:#333333;" d="M18.5,23h-16V6c0-2.091,0-3.243,0.879-4.122C4.257,1,5.409,1,7.5,1h6c2.091,0,3.242,0,4.121,0.879
	C18.5,2.757,18.5,3.909,18.5,6v1.599C20.062,7.898,22,8.933,22,11.5v4c0,2.567-1.938,3.602-3.5,3.9V23z M4.5,21h12v-3.5h1
	c0.414-0.004,2.5-0.119,2.5-2v-4c0-1.16-0.794-1.648-1.5-1.854V13.5h-2V6c0-1.454,0-2.414-0.293-2.707C15.914,3,14.953,3,13.5,3h-6
	C6.046,3,5.086,3,4.793,3.293C4.5,3.586,4.5,4.546,4.5,6V21z"/>
<rect x="6" y="2" style="fill:#333333;" width="2" height="9"/>
<rect x="9.5" y="2" style="fill:#333333;" width="2" height="9"/>
<rect x="13" y="2" style="fill:#333333;" width="2" height="9"/>
<rect x="6" y="1" style="fill:#333333;" width="9" height="2"/>
</svg>






