<?xml version="1.0" encoding="iso-8859-1"?>
<svg version="1.1" id="&#x56FE;&#x5C42;_1" xmlns="http://www.w3.org/2000/svg" xmlns:xlink="http://www.w3.org/1999/xlink" x="0px"
	 y="0px" viewBox="0 0 24 24" style="enable-background:new 0 0 24 24;" xml:space="preserve">
<path style="fill:#333333;" d="M23,22H1v-8.5h22V22z M3,20h18v-4.5H3V20z"/>
<path style="fill:#333333;" d="M17.75,19c0.69,0,1.25-0.56,1.25-1.25s-0.56-1.25-1.25-1.25s-1.25,0.56-1.25,1.25S17.06,19,17.75,19z
	"/>
<polygon style="fill:#333333;" points="2.979,14.705 1.021,14.295 3.707,1.5 20.323,1.5 22.979,14.297 21.021,14.703 18.696,3.5 
	5.331,3.5 "/>
<path style="fill:#333333;" d="M10.488,12.5h-0.64C7.783,12.5,6.5,11.449,6.5,9.756c0-1.513,1.347-2.743,3.003-2.743v2
	c-0.543,0-1.003,0.34-1.003,0.743c0,0.184,0,0.744,1.349,0.744h0.64V12.5z"/>
<path style="fill:#333333;" d="M14.144,12.5h-0.65v-2h0.65c1.356,0,1.356-0.56,1.356-0.744c0-0.241,0-0.743-0.996-0.743v-2
	c1.792,0,2.996,1.103,2.996,2.743C17.5,11.449,16.214,12.5,14.144,12.5z"/>
<path style="fill:#333333;" d="M15.504,8.013h-2C13.504,7.066,12.941,6.5,12,6.5c-0.951,0-1.497,0.552-1.497,1.513h-2
	C8.503,5.945,9.941,4.5,12,4.5C14.063,4.5,15.504,5.945,15.504,8.013z"/>
<rect x="10" y="10.5" style="fill:#333333;" width="4" height="2"/>
</svg>






