<?xml version="1.0" encoding="iso-8859-1"?>
<svg version="1.1" id="&#x56FE;&#x5C42;_1" xmlns="http://www.w3.org/2000/svg" xmlns:xlink="http://www.w3.org/1999/xlink" x="0px"
	 y="0px" viewBox="0 0 24 24" style="enable-background:new 0 0 24 24;" xml:space="preserve">
<path style="fill:#333333;" d="M13,11h-2V8h1c0.827,0,1.5-0.673,1.5-1.5S12.827,5,12,5s-1.5,0.673-1.5,1.5h-2C8.5,4.57,10.07,3,12,3
	s3.5,1.57,3.5,3.5c0,1.583-1.056,2.923-2.5,3.354V11z"/>
<path style="fill:#333333;" d="M23,19H1v-1c0-2.79,3.227-8,11-8s11,5.21,11,8V19z M3.179,17h17.643c-0.696-2.108-3.462-5-8.821-5
	C6.64,12,3.875,14.892,3.179,17z"/>
</svg>






