<?xml version="1.0" encoding="iso-8859-1"?>
<svg version="1.1" id="&#x56FE;&#x5C42;_1" xmlns="http://www.w3.org/2000/svg" xmlns:xlink="http://www.w3.org/1999/xlink" x="0px"
	 y="0px" viewBox="0 0 24 24" style="enable-background:new 0 0 24 24;" xml:space="preserve">
<g>
	<defs>
		<rect id="SVGID_1_" width="24" height="24"/>
	</defs>
	<clipPath id="SVGID_00000080918657889813673710000001658897425297846662_">
		<use xlink:href="#SVGID_1_"  style="overflow:visible;"/>
	</clipPath>
	<g style="clip-path:url(#SVGID_00000080918657889813673710000001658897425297846662_);">
		<polygon style="fill:#333333;" points="10.508,17.982 4.329,7.5 3,7.5 3,5.5 5.471,5.5 10.492,14.018 15.424,5.5 17.9,5.5 
			17.9,7.5 16.576,7.5 		"/>
		<path style="fill:#333333;" d="M15.716,14.544c-1.131,0-2.277-0.281-3.331-0.874l0.98-1.744c2.317,1.3,5.259,0.477,6.562-1.837
			c1.302-2.315,0.479-5.259-1.837-6.561c-2.317-1.303-5.259-0.478-6.561,1.837l-1.743-0.98c1.843-3.277,6.009-4.442,9.285-2.6
			c3.276,1.843,4.442,6.008,2.599,9.285C20.419,13.292,18.101,14.544,15.716,14.544z"/>
		<rect x="8" y="21" style="fill:#333333;" width="5" height="2"/>
		<rect x="9.5" y="16" style="fill:#333333;" width="2" height="6"/>
		<path style="fill:#333333;" d="M12.5,9.5c-1.027,0-1.817-0.474-2.515-0.893C9.442,8.282,8.973,8,8.5,8
			C7.454,8,6.708,8.706,6.701,8.713l-1.408-1.42C5.425,7.161,6.64,6,8.5,6c1.027,0,1.817,0.474,2.515,0.893
			C11.558,7.218,12.027,7.5,12.5,7.5c1.221,0,2.051-0.394,2.06-0.397l0.888,1.792C15.323,8.957,14.188,9.5,12.5,9.5z"/>
	</g>
</g>
</svg>






