<?xml version="1.0" encoding="iso-8859-1"?>
<svg version="1.1" id="&#x56FE;&#x5C42;_1" xmlns="http://www.w3.org/2000/svg" xmlns:xlink="http://www.w3.org/1999/xlink" x="0px"
	 y="0px" viewBox="0 0 24 24" style="enable-background:new 0 0 24 24;" xml:space="preserve">
<path style="fill:#333333;" d="M7.5,21.032c-0.006-0.194-0.146-4.798,0.518-8.223c0.669-3.452,2.033-6.151,2.091-6.264l1.782,0.908
	c-0.013,0.025-1.296,2.573-1.909,5.737c-0.621,3.201-0.484,7.732-0.482,7.777L7.5,21.032z"/>
<path style="fill:#333333;" d="M17.859,12.905c-0.123,0-0.248-0.013-0.372-0.038c-0.458-0.097-0.806-0.227-1.063-0.397
	c-0.512-0.34-0.676-0.851-0.772-1.156c-0.005-0.013-0.009-0.026-0.013-0.04c-0.014,0.001-0.028,0.003-0.042,0.004
	c-0.318,0.03-0.854,0.076-1.364-0.264c-0.504-0.334-0.67-0.836-0.769-1.142c-0.004,0.001-0.009,0.002-0.014,0.003
	c-0.311,0.069-0.781,0.175-1.285-0.004c-0.432-0.153-0.833-0.544-1.386-1.348c-0.365-0.53-0.436-1.188-0.189-1.759
	c0.239-0.552,0.744-0.937,1.351-1.03c1.253-0.194,3.147-0.153,5.059,1.116c2.182,1.45,2.55,3.325,2.575,4.314
	c0.014,0.521-0.205,1.009-0.601,1.34C18.659,12.767,18.268,12.905,17.859,12.905z M15.778,9.266c0.295,0,0.654,0.051,1.005,0.283
	c0.299,0.199,0.479,0.456,0.597,0.695c-0.218-0.562-0.655-1.176-1.488-1.729c-1.194-0.793-2.375-0.92-3.267-0.849
	c0.108,0.144,0.188,0.236,0.242,0.294c0.039-0.013,0.102-0.027,0.149-0.038c0.369-0.083,0.987-0.22,1.576,0.172
	c0.512,0.34,0.675,0.85,0.772,1.154c0.004,0.014,0.008,0.027,0.013,0.041c0.014-0.001,0.027-0.003,0.042-0.004
	C15.521,9.277,15.643,9.266,15.778,9.266z"/>
<path style="fill:#333333;" d="M4.359,11.06c-0.109,0-0.222-0.006-0.339-0.02c-0.459-0.051-0.88-0.29-1.155-0.655
	C2.591,10.02,2.479,9.549,2.557,9.093c0.177-1.029,0.874-2.873,3.545-3.648c2.526-0.734,4.202-0.077,4.976,0.38
	c0.708,0.418,1,1.282,0.695,2.053c-0.322,0.817-0.826,1.36-1.456,1.57C9.609,9.685,8.98,9.532,8.566,9.431
	C8.532,9.423,8.5,9.415,8.468,9.406c-0.175,0.27-0.466,0.706-1.052,0.863c-0.571,0.153-1.032-0.063-1.32-0.209
	c-0.006,0.009-0.013,0.018-0.02,0.027c-0.12,0.159-0.285,0.378-0.527,0.583C5.245,10.929,4.845,11.06,4.359,11.06z M7.123,8.333
	L7.123,8.333L7.123,8.333z M8.292,7.115c-0.461,0-1.004,0.069-1.633,0.251C5.928,7.579,5.438,7.897,5.112,8.249
	c0.14-0.09,0.303-0.167,0.496-0.219c0.528-0.14,0.964,0.034,1.255,0.177c0.18-0.269,0.469-0.639,0.999-0.781
	C8.298,7.31,8.708,7.408,9.036,7.487c0.292,0.071,0.484,0.111,0.633,0.069c0.022-0.018,0.064-0.064,0.116-0.149
	C9.445,7.255,8.952,7.115,8.292,7.115z"/>
<path style="fill:#333333;" d="M10.001,8.562L10,7c0-1.385,1.461-4.262,3.129-4.929c1.692-0.676,4.292-0.21,5.237,1.429l0.547,0.949
	L10.001,8.562z M14.8,3.772c-0.339,0-0.666,0.051-0.929,0.156c-0.342,0.137-0.741,0.604-1.084,1.145l2.679-1.236
	C15.249,3.794,15.021,3.772,14.8,3.772z"/>
<path style="fill:#333333;" d="M11.33,8.428L3.701,3.292L4.113,2.5C4.942,0.907,8,0.729,10.335,1.558
	c0.934,0.332,1.607,0.996,1.947,1.921c0.51,1.385,0.142,3.055-0.416,4.021L11.33,8.428z M6.998,3.1l3.487,2.348
	c0.069-0.44,0.058-0.904-0.08-1.278c-0.134-0.364-0.369-0.595-0.74-0.727C8.68,3.093,7.713,3.035,6.998,3.1z"/>
<path style="fill:#333333;" d="M12,22.5c-1.419,0-8.5-0.145-8.5-3c0-0.429,0.177-1.054,1.018-1.601l0.969,1.492
	c-0.013-0.051-0.032-0.085-0.041-0.098C5.759,19.701,8.071,20.5,12,20.5c3.561,0,5.794-0.656,6.414-1.082
	C18.005,19.113,16.335,18.5,13,18.5v-2c4.767,0,7.5,1.094,7.5,3C20.5,22.355,13.419,22.5,12,22.5z"/>
</svg>






