<?xml version="1.0" encoding="iso-8859-1"?>
<svg version="1.1" id="&#x56FE;&#x5C42;_1" xmlns="http://www.w3.org/2000/svg" xmlns:xlink="http://www.w3.org/1999/xlink" x="0px"
	 y="0px" viewBox="0 0 24 24" style="enable-background:new 0 0 24 24;" xml:space="preserve">
<path style="fill:#333333;" d="M21,17.5H3V6c0-1.378,1.122-2.5,2.5-2.5H11v2H5.5C5.224,5.5,5,5.724,5,6v9.5h14V11h2V17.5z"/>
<path style="fill:#333333;" d="M19,21.5H5c-2.206,0-4-1.794-4-4v-2h22v2C23,19.706,21.206,21.5,19,21.5z M3,17.5
	c0,1.103,0.897,2,2,2h14c1.103,0,2-0.897,2-2H3z"/>
<polygon style="fill:#333333;" points="15.793,8.207 13.086,5.5 15.793,2.793 17.207,4.207 15.914,5.5 17.207,6.793 "/>
<polygon style="fill:#333333;" points="20.207,8.207 18.793,6.793 20.086,5.5 18.793,4.207 20.207,2.793 22.914,5.5 "/>
</svg>






