<?xml version="1.0" encoding="iso-8859-1"?>
<svg version="1.1" id="&#x56FE;&#x5C42;_1" xmlns="http://www.w3.org/2000/svg" xmlns:xlink="http://www.w3.org/1999/xlink" x="0px"
	 y="0px" viewBox="0 0 24 24" style="enable-background:new 0 0 24 24;" xml:space="preserve">
<path style="fill:#333333;" d="M19.5,18h-15C3.122,18,2,16.879,2,15.5v-11C2,3.122,3.122,2,4.5,2h6v2h-6C4.224,4,4,4.224,4,4.5v11
	C4,15.775,4.224,16,4.5,16h15c0.275,0,0.5-0.225,0.5-0.5v-5h2v5C22,16.879,20.879,18,19.5,18z"/>
<rect x="11" y="17" style="fill:#333333;" width="2" height="4"/>
<polygon style="fill:#333333;" points="15.293,7.707 12.586,5 15.293,2.293 16.707,3.707 15.414,5 16.707,6.293 "/>
<polygon style="fill:#333333;" points="19.707,7.707 18.293,6.293 19.586,5 18.293,3.707 19.707,2.293 22.414,5 "/>
<rect x="7" y="20" style="fill:#333333;" width="10" height="2"/>
</svg>






