<?xml version="1.0" encoding="iso-8859-1"?>
<svg version="1.1" id="&#x56FE;&#x5C42;_1" xmlns="http://www.w3.org/2000/svg" xmlns:xlink="http://www.w3.org/1999/xlink" x="0px"
	 y="0px" viewBox="0 0 24 24" style="enable-background:new 0 0 24 24;" xml:space="preserve">
<path style="fill:#333333;" d="M8,23c-1.742,0-3.5-1.082-3.5-3.5V14c0-0.523-1.108-1.262-1.874-1.572l0.002-1.856
	C3.392,10.262,4.5,9.524,4.5,9V4.5C4.5,2.082,6.258,1,8,1v2C7.316,3,6.5,3.26,6.5,4.5V9c0,1.083-0.735,1.922-1.497,2.5
	C5.765,12.078,6.5,12.917,6.5,14v5.5C6.5,20.74,7.316,21,8,21V23z"/>
<path style="fill:#333333;" d="M16,23v-2c0.685,0,1.5-0.26,1.5-1.5V14c0-1.083,0.735-1.922,1.497-2.5
	C18.235,10.922,17.5,10.083,17.5,9V4.5C17.5,3.26,16.685,3,16,3V1c1.742,0,3.5,1.082,3.5,3.5V9c0,0.524,1.107,1.262,1.873,1.572
	l-0.002,1.856C20.607,12.738,19.5,13.477,19.5,14v5.5C19.5,21.918,17.742,23,16,23z"/>
</svg>






