<?xml version="1.0" encoding="iso-8859-1"?>
<svg version="1.1" id="&#x56FE;&#x5C42;_1" xmlns="http://www.w3.org/2000/svg" xmlns:xlink="http://www.w3.org/1999/xlink" x="0px"
	 y="0px" viewBox="0 0 24 24" style="enable-background:new 0 0 24 24;" xml:space="preserve">
<path style="fill:#333333;" d="M18.5,22H4v-2h14.5c0.275,0,0.5-0.225,0.5-0.5v-15C19,4.224,18.775,4,18.5,4h-10V2h10
	C19.879,2,21,3.122,21,4.5v15C21,20.879,19.879,22,18.5,22z"/>
<path style="fill:#333333;" d="M11,19c-3.309,0-6-2.691-6-6v-1h12v1C17,16.309,14.309,19,11,19z M7.126,14
	C7.572,15.724,9.14,17,11,17s3.429-1.276,3.873-3H7.126z"/>
<rect x="7" y="9" style="fill:#333333;" width="2" height="1"/>
<rect x="10" y="9" style="fill:#333333;" width="2" height="1"/>
<rect x="13" y="9" style="fill:#333333;" width="2" height="1"/>
</svg>






