<?xml version="1.0" encoding="iso-8859-1"?>
<svg version="1.1" id="&#x56FE;&#x5C42;_1" xmlns="http://www.w3.org/2000/svg" xmlns:xlink="http://www.w3.org/1999/xlink" x="0px"
	 y="0px" viewBox="0 0 24 24" style="enable-background:new 0 0 24 24;" xml:space="preserve">
<path style="fill:#333333;" d="M16.146,23H7.854c-0.596,0-1.135-0.353-1.374-0.898l-1.396-3.202l1.833-0.799L8.181,21h7.638
	l1.264-2.899l1.834,0.799l-1.396,3.2C17.283,22.646,16.743,23,16.146,23z"/>
<path style="fill:#333333;" d="M17.083,5.9L15.818,3H8.181L6.917,5.9L5.083,5.1l1.396-3.2C6.717,1.354,7.257,1,7.854,1h8.293
	c0.598,0,1.138,0.354,1.376,0.903L18.917,5.1L17.083,5.9z M15.688,2.7c0.001,0,0.001,0.001,0.001,0.002L15.688,2.7z"/>
<path style="fill:#333333;" d="M17,20H7c-1.103,0-2-0.897-2-2V6c0-1.103,0.897-2,2-2h10c1.103,0,2,0.897,2,2v12
	C19,19.103,18.103,20,17,20z M7,6v12h10V6H7z"/>
<path style="fill:#333333;" d="M6.656,12.237l-0.312-1.975l3.198-0.505c0.777-0.123,1.496-0.511,2.024-1.092
	c1.122-1.235,2.723-1.881,4.388-1.779l1.858,0.116l-0.125,1.996l-1.858-0.116c-1.054-0.07-2.07,0.345-2.782,1.128
	c-0.834,0.917-1.967,1.529-3.192,1.723L6.656,12.237z"/>
<path style="fill:#333333;" d="M6.295,17.249l-0.091-1.998l2.776-0.126c1.328-0.061,2.54-0.828,3.161-2.002
	c0.748-1.415,2.065-2.463,3.613-2.876l1.737-0.463l0.516,1.933l-1.737,0.463c-1.012,0.27-1.872,0.954-2.361,1.879
	c-0.951,1.797-2.804,2.972-4.837,3.064L6.295,17.249z"/>
<rect x="17" y="6" style="fill:#333333;" width="2" height="10"/>
<rect x="5" y="8" style="fill:#333333;" width="2" height="10"/>
</svg>






