<?xml version="1.0" encoding="iso-8859-1"?>
<svg version="1.1" id="&#x56FE;&#x5C42;_1" xmlns="http://www.w3.org/2000/svg" xmlns:xlink="http://www.w3.org/1999/xlink" x="0px"
	 y="0px" viewBox="0 0 24 24" style="enable-background:new 0 0 24 24;" xml:space="preserve">
<path style="fill:#333333;" d="M11,21C5.486,21,1,16.514,1,11C1,5.486,5.486,1,11,1c5.514,0,10,4.486,10,10h-2c0-4.411-3.589-8-8-8
	s-8,3.589-8,8s3.589,8,8,8V21z"/>
<path style="fill:#333333;" d="M18,22.072l-0.361-0.14C16.41,21.457,14,19.437,14,16.923C14,15.312,15.188,14,16.65,14
	c0.483,0,0.947,0.144,1.35,0.405C18.402,14.144,18.866,14,19.35,14c1.462,0,2.65,1.312,2.65,2.923c0,2.514-2.41,4.534-3.639,5.01
	L18,22.072z M16.65,16C16.304,16,16,16.432,16,16.923c0,1.18,1.162,2.438,2,2.959c0.838-0.521,2-1.779,2-2.959
	C20,16.432,19.696,16,19.35,16c-0.183,0-0.367,0.125-0.494,0.335L18,17.75l-0.855-1.415C17.018,16.125,16.833,16,16.65,16z"/>
<path style="fill:#333333;" d="M11,14.5c-1.93,0-3.5-1.57-3.5-3.5S9.07,7.5,11,7.5s3.5,1.57,3.5,3.5S12.93,14.5,11,14.5z M11,9.5
	c-0.827,0-1.5,0.673-1.5,1.5s0.673,1.5,1.5,1.5s1.5-0.673,1.5-1.5S11.827,9.5,11,9.5z"/>
</svg>






