<?xml version="1.0" encoding="iso-8859-1"?>
<svg version="1.1" id="&#x56FE;&#x5C42;_1" xmlns="http://www.w3.org/2000/svg" xmlns:xlink="http://www.w3.org/1999/xlink" x="0px"
	 y="0px" viewBox="0 0 24 24" style="enable-background:new 0 0 24 24;" xml:space="preserve">
<path style="fill:#333333;" d="M21,23H3V1h12.96L21,6.88V23z M5,21h14V7.62L15.04,3H5V21z"/>
<path style="fill:#333333;" d="M9.259,18.32l-1.472-1.069l0.625-3.086l-2.32-2.128l0.562-1.73l3.127-0.358l1.308-2.864h1.82
	l1.307,2.864l3.128,0.358l0.562,1.73l-2.319,2.128l0.626,3.086L14.74,18.32L12,16.771L9.259,18.32z M12,14.475l1.817,1.026
	l-0.414-2.045l1.537-1.412l-2.073-0.237L12,9.908l-0.867,1.899l-2.074,0.237l1.538,1.412l-0.415,2.045L12,14.475z"/>
</svg>






