<?xml version="1.0" encoding="iso-8859-1"?>
<svg version="1.1" id="&#x56FE;&#x5C42;_1" xmlns="http://www.w3.org/2000/svg" xmlns:xlink="http://www.w3.org/1999/xlink" x="0px"
	 y="0px" viewBox="0 0 24 24" style="enable-background:new 0 0 24 24;" xml:space="preserve">
<path style="fill:#333333;" d="M22,10.5c0-0.552-0.448-1-1-1s-1,0.448-1,1H22z M11.5,4c0.552,0,1-0.448,1-1s-0.448-1-1-1V4z
	 M19.5,20h-15v2h15V20z M4,19.5v-15H2v15H4z M20,10.5v9h2v-9H20z M4.5,4h7V2h-7V4z M4.5,20C4.224,20,4,19.776,4,19.5H2
	C2,20.881,3.119,22,4.5,22V20z M19.5,22c1.381,0,2.5-1.119,2.5-2.5h-2c0,0.276-0.224,0.5-0.5,0.5V22z M4,4.5C4,4.224,4.224,4,4.5,4
	V2C3.119,2,2,3.119,2,4.5H4z"/>
<path style="fill:#333333;" d="M15.35,18.76l-6.328-5.423l-5.346,4.9l-1.352-1.475l5.347-4.901c0.745-0.682,1.886-0.7,2.653-0.043
	l6.327,5.423L15.35,18.76z"/>
<path style="fill:#333333;" d="M20.4,16.3l-3.306-2.479l-2.388,2.387l-1.414-1.414l2.387-2.387c0.7-0.7,1.824-0.779,2.614-0.186
	L21.6,14.7L20.4,16.3z"/>
<path style="fill:#333333;" d="M18,9.051l-0.308-0.099C16.445,8.549,14,6.806,14,4.602C14,3.167,15.188,2,16.65,2
	c0.48,0,0.946,0.129,1.35,0.364C18.403,2.129,18.869,2,19.35,2C20.812,2,22,3.167,22,4.602c0,2.204-2.445,3.947-3.692,4.35L18,9.051
	z M16.65,4C16.292,4,16,4.27,16,4.602c0,0.884,1.169,1.912,2,2.319c0.831-0.408,2-1.436,2-2.319C20,4.27,19.708,4,19.35,4
	c-0.217,0-0.419,0.1-0.54,0.268L18,5.383l-0.81-1.115C17.069,4.1,16.867,4,16.65,4z"/>
</svg>






