<?xml version="1.0" encoding="iso-8859-1"?>
<svg version="1.1" id="&#x56FE;&#x5C42;_1" xmlns="http://www.w3.org/2000/svg" xmlns:xlink="http://www.w3.org/1999/xlink" x="0px"
	 y="0px" viewBox="0 0 24 24" style="enable-background:new 0 0 24 24;" xml:space="preserve">
<path style="fill:#333333;" d="M19.5,18h-15C3.122,18,2,16.879,2,15.5v-11C2,3.122,3.122,2,4.5,2H11v2H4.5C4.224,4,4,4.224,4,4.5v11
	C4,15.775,4.224,16,4.5,16h15c0.275,0,0.5-0.225,0.5-0.5V11h2v4.5C22,16.879,20.879,18,19.5,18z"/>
<rect x="11" y="17" style="fill:#333333;" width="2" height="4"/>
<rect x="7" y="20" style="fill:#333333;" width="10" height="2"/>
<path style="fill:#333333;" d="M18,9.051l-0.308-0.099C16.445,8.549,14,6.806,14,4.602C14,3.167,15.188,2,16.65,2
	c0.48,0,0.946,0.129,1.35,0.364C18.403,2.129,18.869,2,19.35,2C20.812,2,22,3.167,22,4.602c0,2.204-2.445,3.947-3.692,4.35L18,9.051
	z M16.65,4C16.292,4,16,4.27,16,4.602c0,0.884,1.169,1.912,2,2.319c0.831-0.408,2-1.436,2-2.319C20,4.27,19.708,4,19.35,4
	c-0.217,0-0.419,0.1-0.54,0.268L18,5.383l-0.81-1.115C17.069,4.1,16.867,4,16.65,4z"/>
</svg>






