<?xml version="1.0" encoding="iso-8859-1"?>
<svg version="1.1" id="&#x56FE;&#x5C42;_1" xmlns="http://www.w3.org/2000/svg" xmlns:xlink="http://www.w3.org/1999/xlink" x="0px"
	 y="0px" viewBox="0 0 24 24" style="enable-background:new 0 0 24 24;" xml:space="preserve">
<path style="fill:#333333;" d="M16,23c-1.725,0-3.382-0.633-4.667-1.782l1.333-1.49C13.584,20.548,14.769,21,16,21
	c2.757,0,5-2.243,5-5c0-2.283-1.542-4.274-3.749-4.843l0.498-1.937C20.841,10.016,23,12.804,23,16C23,19.859,19.859,23,16,23z"/>
<path style="fill:#333333;" d="M8,23c-3.86,0-7-3.141-7-7c0-3.196,2.159-5.984,5.251-6.779l0.498,1.937C4.542,11.726,3,13.717,3,16
	c0,2.757,2.243,5,5,5s5-2.243,5-5c0-0.633-0.116-1.248-0.345-1.829l1.861-0.732C14.837,14.254,15,15.115,15,16
	C15,19.859,11.86,23,8,23z"/>
<path style="fill:#333333;" d="M12,15c-3.86,0-7-3.14-7-7s3.14-7,7-7c3.859,0,7,3.14,7,7S15.859,15,12,15z M12,3
	C9.243,3,7,5.243,7,8s2.243,5,5,5s5-2.243,5-5S14.757,3,12,3z"/>
</svg>






