<?xml version="1.0" encoding="iso-8859-1"?>
<svg version="1.1" id="&#x56FE;&#x5C42;_1" xmlns="http://www.w3.org/2000/svg" xmlns:xlink="http://www.w3.org/1999/xlink" x="0px"
	 y="0px" viewBox="0 0 24 24" style="enable-background:new 0 0 24 24;" xml:space="preserve">
<path style="fill:none;" d="M5,22c1.657,0,3-1.343,3-3v-7.243V2H2v17C2,20.657,3.343,22,5,22z"/>
<path style="fill:#333333;" d="M23,23H5c-0.002,0-0.007,0-0.006,0c-0.003,0-0.003,0-0.006,0c-0.002,0-0.005,0-0.007,0
	c-0.001,0-0.002,0-0.003,0c-1.06-0.006-2.055-0.422-2.805-1.172l0.001-0.001C1.449,21.103,1,20.103,1,19V1h8v8.343l8.719-8.781
	l5.688,5.688L14.656,15H23V23z M8.656,21H21v-4h-8.344L8.656,21z M5,21c0.001,0,0.002,0,0.003,0h0c0.001,0,0.001,0,0.002,0
	c0,0,0,0,0,0C6.106,20.996,7,20.101,7,19v-7.243h1H7V3H3v16c0,1.101,0.894,1.996,1.993,2c0,0,0,0,0,0c0.001,0,0.001,0,0.002,0h0
	C4.998,21,4.999,21,5,21z M9,12.172v5.656l2.535-2.535L12.242,16l-0.707-0.707l9.043-9.043L17.75,3.422L9,12.172z"/>
<polygon style="fill:#333333;" points="7.829,21.828 6.415,20.414 20.578,6.25 17.743,3.415 8.708,12.464 7.292,11.051 
	17.741,0.585 23.406,6.25 "/>
<polygon style="fill:#333333;" points="23,23 6.25,23 6.25,21 21,21 21,17 12.242,17 12.242,15 23,15 "/>
<polygon style="fill:#333333;" points="23,23 6.25,23 6.25,21 21,21 21,17 12.242,17 12.242,15 23,15 "/>
<path style="fill:#333333;" d="M5,23c-2.206,0-4-1.794-4-4V1h8v18C9,21.206,7.206,23,5,23z M3,3v16c0,1.103,0.897,2,2,2s2-0.897,2-2
	V3H3z"/>
</svg>






