<?xml version="1.0" encoding="iso-8859-1"?>
<svg version="1.1" id="&#x56FE;&#x5C42;_1" xmlns="http://www.w3.org/2000/svg" xmlns:xlink="http://www.w3.org/1999/xlink" x="0px"
	 y="0px" viewBox="0 0 24 24" style="enable-background:new 0 0 24 24;" xml:space="preserve">
<path style="fill:#333333;" d="M19.65,22H4.35C3.054,22,2,20.946,2,19.65V4.35C2,3.054,3.054,2,4.35,2h15.3
	C20.946,2,22,3.054,22,4.35v15.3C22,20.946,20.946,22,19.65,22z M4.35,4C4.157,4,4,4.157,4,4.35v15.3C4,19.843,4.157,20,4.35,20
	h15.3c0.192,0,0.35-0.157,0.35-0.35V4.35C20,4.157,19.843,4,19.65,4H4.35z"/>
<rect x="11" y="3" style="fill:#333333;" width="2" height="18"/>
</svg>






