<?xml version="1.0" encoding="iso-8859-1"?>
<svg version="1.1" id="&#x56FE;&#x5C42;_1" xmlns="http://www.w3.org/2000/svg" xmlns:xlink="http://www.w3.org/1999/xlink" x="0px"
	 y="0px" viewBox="0 0 24 24" style="enable-background:new 0 0 24 24;" xml:space="preserve">
<path style="fill:#333333;" d="M14.18,22.096c-1.732,0-3.525-0.4-5.127-1.201l0,0c0,0,0,0,0,0c-4.175-2.087-5.944-6.135-7.366-9.388
	c-0.204-0.466-0.4-0.915-0.595-1.338C0.734,9.394,0.839,8.623,1.379,8.054c0.926-0.976,2.923-1.01,4.242-0.482
	C6.08,7.755,6.562,7.996,7,8.235V5.75C7,4.233,8.234,3,9.75,3c0.424,0,0.825,0.096,1.184,0.268C11.424,2.506,12.279,2,13.25,2
	c1.302,0,2.395,0.909,2.679,2.125C16.188,4.044,16.464,4,16.75,4c1.136,0,2.112,0.692,2.531,1.676
	C19.583,5.562,19.909,5.5,20.25,5.5C21.767,5.5,23,6.733,23,8.249V14.5c0,1.917-1.047,4.595-3.985,6.357
	C17.64,21.683,15.94,22.096,14.18,22.096z M2.93,9.367c0.207,0.462,0.395,0.893,0.59,1.339c1.292,2.957,2.901,6.636,6.428,8.399l0,0
	c2.642,1.321,5.872,1.337,8.038,0.037C20.208,17.809,21,15.87,21,14.5V8.249C21,7.836,20.663,7.5,20.25,7.5S19.5,7.836,19.5,8.25h-2
	v-1.5C17.5,6.336,17.163,6,16.75,6S16,6.336,16,6.75h-2v-2C14,4.336,13.663,4,13.25,4S12.5,4.336,12.5,4.75v1h-2
	C10.5,5.336,10.164,5,9.75,5S9,5.336,9,5.75V10l-1.555,0.832c-0.014-0.009-1.431-0.949-2.567-1.403
	C4.151,9.138,3.264,9.213,2.93,9.367z"/>
</svg>






