<?xml version="1.0" encoding="iso-8859-1"?>
<svg version="1.1" id="&#x56FE;&#x5C42;_1" xmlns="http://www.w3.org/2000/svg" xmlns:xlink="http://www.w3.org/1999/xlink" x="0px"
	 y="0px" viewBox="0 0 24 24" style="enable-background:new 0 0 24 24;" xml:space="preserve">
<path style="fill:#333333;" d="M8.455,8.455H4.727C2.672,8.455,1,6.782,1,4.727S2.672,1,4.727,1s3.728,1.672,3.728,3.727V8.455z
	 M4.727,3C3.775,3,3,3.775,3,4.727C3,5.68,3.775,6.455,4.727,6.455h1.728V4.727C6.455,3.775,5.68,3,4.727,3z"/>
<path style="fill:#333333;" d="M4.727,23C2.672,23,1,21.328,1,19.272c0-2.055,1.672-3.727,3.727-3.727h3.728v3.727
	C8.455,21.328,6.782,23,4.727,23z M4.727,17.546C3.775,17.546,3,18.32,3,19.272S3.775,21,4.727,21c0.953,0,1.728-0.775,1.728-1.728
	v-1.727H4.727z"/>
<path style="fill:#333333;" d="M17.546,17.546H6.455V6.455h11.091V17.546z M8.455,15.546h7.091V8.455H8.455V15.546z"/>
<path style="fill:#333333;" d="M19.272,8.455h-3.728V4.727C15.545,2.672,17.217,1,19.272,1S23,2.672,23,4.727
	S21.328,8.455,19.272,8.455z M17.545,6.455h1.728C20.225,6.455,21,5.68,21,4.727C21,3.775,20.225,3,19.272,3
	s-1.728,0.775-1.728,1.727V6.455z"/>
<path style="fill:#333333;" d="M19.272,23c-2.056,0-3.728-1.672-3.728-3.728v-3.727h3.728c2.056,0,3.728,1.672,3.728,3.727
	C23,21.328,21.328,23,19.272,23z M17.545,17.546v1.727c0,0.952,0.775,1.728,1.728,1.728S21,20.225,21,19.272
	s-0.775-1.727-1.728-1.727H17.545z"/>
</svg>






