<?xml version="1.0" encoding="iso-8859-1"?>
<svg version="1.1" id="&#x56FE;&#x5C42;_1" xmlns="http://www.w3.org/2000/svg" xmlns:xlink="http://www.w3.org/1999/xlink" x="0px"
	 y="0px" viewBox="0 0 24 24" style="enable-background:new 0 0 24 24;" xml:space="preserve">
<path style="fill:#333333;" d="M19.867,21H4.133c-0.573,0-1.12-0.247-1.5-0.677s-0.556-1.003-0.485-1.571l1.75-14
	C4.023,3.753,4.876,3,5.883,3h12.234c1.007,0,1.859,0.753,1.984,1.752l1.75,14c0.071,0.567-0.104,1.141-0.484,1.57
	C20.988,20.753,20.441,21,19.867,21z M5.883,5l-1.75,14h15.734l-1.75-14H5.883z"/>
<path style="fill:#333333;" d="M12,12c-4.071,0-5.342-2.449-5.395-2.553l1.78-0.913C8.418,8.595,9.229,10,12,10
	c2.771,0,3.582-1.405,3.615-1.465l1.779,0.913C17.343,9.551,16.071,12,12,12z"/>
</svg>






