<?xml version="1.0" encoding="iso-8859-1"?>
<svg version="1.1" id="&#x56FE;&#x5C42;_1" xmlns="http://www.w3.org/2000/svg" xmlns:xlink="http://www.w3.org/1999/xlink" x="0px"
	 y="0px" viewBox="0 0 24 24" style="enable-background:new 0 0 24 24;" xml:space="preserve">
<path style="fill:#333333;" d="M12,23c-5.238,0-9.5-4.262-9.5-9.5S6.762,4,12,4s9.5,4.262,9.5,9.5S17.238,23,12,23z M12,6
	c-4.136,0-7.5,3.364-7.5,7.5S7.864,21,12,21s7.5-3.364,7.5-7.5S16.136,6,12,6z"/>
<rect x="9.5" y="1" style="fill:#333333;" width="5" height="2"/>
<path style="fill:#333333;" d="M12.868,17.496h-1.736L8.848,13.5l2.284-3.996h1.736l2.283,3.996L12.868,17.496z M11.152,13.5
	L12,14.984l0.849-1.484L12,12.016L11.152,13.5z"/>
<rect x="3.5" y="12.5" style="fill:#333333;" width="2" height="2"/>
<rect x="18.5" y="12.5" style="fill:#333333;" width="2" height="2"/>
<rect x="11" y="5" style="fill:#333333;" width="2" height="2"/>
<rect x="11" y="20" style="fill:#333333;" width="2" height="2"/>
<path style="fill:#333333;" d="M12,23c-1.259,0-2.481-0.242-3.633-0.72l0.766-1.848c1.816,0.754,3.917,0.754,5.734,0l0.766,1.848
	C14.481,22.758,13.259,23,12,23z"/>
<path style="fill:#333333;" d="M3.22,17.133C2.742,15.979,2.5,14.758,2.5,13.5s0.242-2.479,0.72-3.633l1.848,0.766
	C4.691,11.542,4.5,12.507,4.5,13.5s0.191,1.958,0.567,2.867L3.22,17.133z"/>
<path style="fill:#333333;" d="M20.78,17.133l-1.848-0.766C19.31,15.459,19.5,14.494,19.5,13.5s-0.19-1.959-0.567-2.867l1.848-0.766
	c0.478,1.152,0.72,2.374,0.72,3.633S21.258,15.981,20.78,17.133z"/>
<path style="fill:#333333;" d="M15.084,6.661c-1.942-0.877-4.226-0.876-6.168,0L8.092,4.839c2.463-1.113,5.353-1.113,7.816,0
	L15.084,6.661z"/>
</svg>






