<?xml version="1.0" encoding="iso-8859-1"?>
<svg version="1.1" id="&#x56FE;&#x5C42;_1" xmlns="http://www.w3.org/2000/svg" xmlns:xlink="http://www.w3.org/1999/xlink" x="0px"
	 y="0px" viewBox="0 0 24 24" style="enable-background:new 0 0 24 24;" xml:space="preserve">
<path style="fill:#333333;" d="M12,10.414L7.086,5.5L12,0.586L16.914,5.5L12,10.414z M9.914,5.5L12,7.586L14.086,5.5L12,3.414
	L9.914,5.5z"/>
<path style="fill:#333333;" d="M18.5,17.414L13.586,12.5L18.5,7.586l4.914,4.914L18.5,17.414z M16.414,12.5l2.086,2.086l2.086-2.086
	L18.5,10.414L16.414,12.5z"/>
<path style="fill:#333333;" d="M12,23.414L7.086,18.5L12,13.586l4.914,4.914L12,23.414z M9.914,18.5L12,20.586l2.086-2.086
	L12,16.414L9.914,18.5z"/>
<path style="fill:#333333;" d="M5.5,16.914L0.586,12L5.5,7.086L10.414,12L5.5,16.914z M3.414,12L5.5,14.086L7.586,12L5.5,9.914
	L3.414,12z"/>
</svg>






