<?xml version="1.0" encoding="iso-8859-1"?>
<svg version="1.1" id="&#x56FE;&#x5C42;_1" xmlns="http://www.w3.org/2000/svg" xmlns:xlink="http://www.w3.org/1999/xlink" x="0px"
	 y="0px" viewBox="0 0 24 24" style="enable-background:new 0 0 24 24;" xml:space="preserve">
<rect x="1.062" y="13.875" transform="matrix(0.3514 -0.9362 0.9362 0.3514 -8.3019 17.766)" style="fill:#333333;" width="15.219" height="2.001"/>
<rect x="14.328" y="7.265" transform="matrix(0.9363 -0.3511 0.3511 0.9363 -4.2469 6.3289)" style="fill:#333333;" width="2.001" height="15.219"/>
<path style="fill:#333333;" d="M12,9c-1.654,0-3-1.346-3-3s1.346-3,3-3s3,1.346,3,3S13.654,9,12,9z M12,5c-0.551,0-1,0.449-1,1
	s0.449,1,1,1c0.552,0,1-0.449,1-1S12.552,5,12,5z"/>
<path style="fill:#333333;" d="M12,19.5c-2.612,0-5.146-0.747-7.329-2.161l1.087-1.678c3.716,2.406,8.768,2.406,12.483,0
	l1.088,1.678C17.146,18.753,14.612,19.5,12,19.5z"/>
<rect x="11" y="2" style="fill:#333333;" width="2" height="2"/>
</svg>






