<?xml version="1.0" encoding="iso-8859-1"?>
<svg version="1.1" id="&#x56FE;&#x5C42;_1" xmlns="http://www.w3.org/2000/svg" xmlns:xlink="http://www.w3.org/1999/xlink" x="0px"
	 y="0px" viewBox="0 0 24 24" style="enable-background:new 0 0 24 24;" xml:space="preserve">
<path style="fill:#333333;" d="M18,23H6c-1.103,0-2-0.897-2-2V3c0-1.103,0.897-2,2-2h12c1.103,0,2,0.897,2,2v18
	C20,22.103,19.103,23,18,23z M6,3v18h12V3H6z"/>
<rect x="8.5" y="5" style="fill:#333333;" width="7" height="2"/>
<circle style="fill:#333333;" cx="8.5" cy="10.5" r="1"/>
<circle style="fill:#333333;" cx="8.5" cy="13.5" r="1"/>
<circle style="fill:#333333;" cx="8.5" cy="16.5" r="1"/>
<circle style="fill:#333333;" cx="12" cy="10.5" r="1"/>
<circle style="fill:#333333;" cx="12" cy="13.5" r="1"/>
<circle style="fill:#333333;" cx="12" cy="16.5" r="1"/>
<circle style="fill:#333333;" cx="15.5" cy="10.5" r="1"/>
<circle style="fill:#333333;" cx="15.5" cy="13.5" r="1"/>
<circle style="fill:#333333;" cx="15.5" cy="16.5" r="1"/>
</svg>






