<?xml version="1.0" encoding="iso-8859-1"?>
<svg version="1.1" id="&#x56FE;&#x5C42;_1" xmlns="http://www.w3.org/2000/svg" xmlns:xlink="http://www.w3.org/1999/xlink" x="0px"
	 y="0px" viewBox="0 0 24 24" style="enable-background:new 0 0 24 24;" xml:space="preserve">
<path style="fill:#333333;" d="M18.566,22H5.434c-0.649,0-1.243-0.303-1.628-0.831c-0.385-0.527-0.496-1.212-0.297-1.831
	C4.065,17.598,5,14.331,5,12c0-2.332-0.935-5.598-1.492-7.338C3.309,4.043,3.42,3.359,3.805,2.832C4.19,2.303,4.784,2,5.434,2
	h13.133c0.649,0,1.244,0.304,1.63,0.833c0.384,0.527,0.495,1.212,0.296,1.831C19.935,6.4,19,9.666,19,12
	c0,2.334,0.935,5.599,1.492,7.337c0.199,0.619,0.088,1.304-0.297,1.831C19.81,21.696,19.216,22,18.566,22z M5.434,4L5.412,4.052
	C6.005,5.903,7,9.397,7,12c0,2.603-0.995,6.097-1.588,7.947L18.566,20C17.995,18.099,17,14.606,17,12
	c0-2.607,0.995-6.099,1.588-7.948L5.434,4z"/>
<path style="fill:#333333;" d="M2.8,17.1L1.2,15.9C1.679,15.262,2,13.694,2,12c0-1.695-0.321-3.262-0.8-3.9l1.6-1.2
	C3.883,8.344,4,10.948,4,12C4,13.053,3.883,15.656,2.8,17.1z"/>
<rect x="9" y="6.75" style="fill:#333333;" width="6" height="2"/>
<rect x="9" y="11" style="fill:#333333;" width="6" height="2"/>
<rect x="9" y="15" style="fill:#333333;" width="2" height="2"/>
<path style="fill:#333333;" d="M21.105,16.947C20.361,15.459,20,13.841,20,12c0-1.052,0.117-3.656,1.2-5.1l1.6,1.2
	C22.321,8.738,22,10.305,22,12c0,1.545,0.284,2.832,0.895,4.053L21.105,16.947z"/>
</svg>






