<?xml version="1.0" encoding="iso-8859-1"?>
<svg version="1.1" id="&#x56FE;&#x5C42;_1" xmlns="http://www.w3.org/2000/svg" xmlns:xlink="http://www.w3.org/1999/xlink" x="0px"
	 y="0px" viewBox="0 0 24 24" style="enable-background:new 0 0 24 24;" xml:space="preserve">
<path style="fill:none;" d="M19.914,10.893l-8.93,8.93c-1.707,1.707-4.516,1.666-6.273-0.091c-1.757-1.757-1.798-4.566-0.091-6.273
	l8.93-8.93"/>
<path style="fill:#333333;" d="M7.933,22.077c-0.027,0-0.054,0-0.081-0.001c-1.446-0.021-2.813-0.603-3.848-1.638
	c-1.035-1.034-1.617-2.401-1.638-3.848c-0.021-1.457,0.528-2.82,1.547-3.839l8.929-8.93l1.414,1.414l-8.929,8.93
	c-0.633,0.633-0.974,1.483-0.961,2.396c0.013,0.923,0.387,1.797,1.052,2.462s1.54,1.039,2.463,1.052
	c0.923,0.061,1.763-0.328,2.396-0.961l8.93-8.929l1.414,1.414l-8.93,8.929C10.692,21.529,9.36,22.077,7.933,22.077z"/>
<rect x="4.365" y="12.54" transform="matrix(0.9997 -0.0264 0.0264 0.9997 -0.3531 0.2921)" style="fill:#333333;" width="13.077" height="2.001"/>
<path style="fill:#333333;" d="M14.696,10.453c0.391-0.391,0.391-1.024,0-1.414c-0.391-0.391-1.024-0.391-1.414,0
	c-0.391,0.391-0.391,1.024,0,1.414C13.673,10.844,14.306,10.844,14.696,10.453z"/>
<path style="fill:#333333;" d="M11.868,11.868c0.391-0.391,0.391-1.024,0-1.414c-0.391-0.391-1.024-0.391-1.414,0
	c-0.391,0.391-0.391,1.024,0,1.414C10.844,12.258,11.477,12.258,11.868,11.868z"/>
<rect x="15.732" y="0.711" transform="matrix(0.7071 -0.7071 0.7071 0.7071 -0.5521 14.0894)" style="fill:#333333;" width="2" height="14"/>
</svg>






