<?xml version="1.0" encoding="iso-8859-1"?>
<svg version="1.1" id="&#x56FE;&#x5C42;_1" xmlns="http://www.w3.org/2000/svg" xmlns:xlink="http://www.w3.org/1999/xlink" x="0px"
	 y="0px" viewBox="0 0 24 24" style="enable-background:new 0 0 24 24;" xml:space="preserve">
<path style="fill:#333333;" d="M15.5,21.5h-7V15h7V21.5z M10.5,19.5h3V17h-3V19.5z"/>
<path style="fill:#333333;" d="M20.5,17h-17c-1.103,0-2-0.897-2-2V5c0-1.103,0.897-2,2-2h17c1.103,0,2,0.897,2,2v10
	C22.5,16.103,21.603,17,20.5,17z M3.5,5H3.499L3.5,15h17V5H3.5z"/>
<rect x="11" y="12.5" style="fill:#333333;" width="2" height="2"/>
<rect x="7" y="19.5" style="fill:#333333;" width="10" height="2"/>
</svg>






