<?xml version="1.0" encoding="iso-8859-1"?>
<svg version="1.1" id="&#x56FE;&#x5C42;_1" xmlns="http://www.w3.org/2000/svg" xmlns:xlink="http://www.w3.org/1999/xlink" x="0px"
	 y="0px" viewBox="0 0 24 24" style="enable-background:new 0 0 24 24;" xml:space="preserve">
<path style="fill:#333333;" d="M13.083,23c-0.647,0-1.888-0.346-6.12-2.848l-3.931,1.642L0.606,16.99l6.977-2.566L12.258,17h1.926v2
	h-2.441l-4.326-2.385l-4.014,1.477l0.576,1.14l3.143-1.312l0.433,0.259c4.417,2.637,5.386,2.813,5.536,2.822
	c0.219-0.023,1.564-0.374,8.456-3.891l0.909,1.781C14.403,23,13.544,23,13.083,23z"/>
<path style="fill:#333333;" d="M15.496,14.494h-4.998l0.002-1.002c0.001-0.732,0.002-1.293,0.002-1.683
	c-0.485-0.234-1.011-0.539-1.392-0.92C8.072,9.85,7.5,8.469,7.5,7c0-3.033,2.467-5.5,5.5-5.5c3.032,0,5.5,2.467,5.5,5.5
	c0,1.469-0.572,2.85-1.611,3.889c-0.381,0.381-0.896,0.682-1.393,0.92V14.494z M12.502,12.494h0.994v-2.003l0.617-0.256
	c0.683-0.283,1.141-0.539,1.36-0.759C16.136,8.814,16.5,7.935,16.5,7c0-1.93-1.57-3.5-3.5-3.5S9.5,5.07,9.5,7
	c0,0.935,0.364,1.814,1.025,2.475c0.223,0.223,0.68,0.479,1.358,0.76l0.605,0.251l0.012,0.655
	C12.502,11.264,12.503,11.715,12.502,12.494z"/>
<rect x="5.896" y="9.25" transform="matrix(0.7071 -0.7071 0.7071 0.7071 -5.4173 7.4216)" style="fill:#333333;" width="0.707" height="2"/>
<rect x="18.75" y="9.896" transform="matrix(0.7071 -0.7071 0.7071 0.7071 -1.4632 16.9675)" style="fill:#333333;" width="2" height="0.707"/>
<rect x="6.25" y="1.896" transform="matrix(0.7071 -0.7071 0.7071 0.7071 0.5325 5.7855)" style="fill:#333333;" width="2" height="0.707"/>
<rect x="18.396" y="1.25" transform="matrix(0.7071 -0.7071 0.7071 0.7071 3.9008 13.9173)" style="fill:#333333;" width="0.707" height="2"/>
<rect x="20" y="5" style="fill:#333333;" width="0.5" height="2"/>
<rect x="5.5" y="5" style="fill:#333333;" width="0.5" height="2"/>
</svg>






