<?xml version="1.0" encoding="iso-8859-1"?>
<svg version="1.1" id="&#x56FE;&#x5C42;_1" xmlns="http://www.w3.org/2000/svg" xmlns:xlink="http://www.w3.org/1999/xlink" x="0px"
	 y="0px" viewBox="0 0 24 24" style="enable-background:new 0 0 24 24;" xml:space="preserve">
<path style="fill:#333333;" d="M4.722,19.778C2.644,17.701,1.5,14.938,1.5,12c0-2.938,1.144-5.7,3.222-7.778l1.414,1.414
	C4.436,7.336,3.5,9.596,3.5,12c0,2.404,0.936,4.664,2.636,6.364L4.722,19.778z"/>
<path style="fill:#333333;" d="M20.278,19.778l-1.414-1.414c1.699-1.7,2.636-3.96,2.636-6.364c0-2.404-0.937-4.664-2.636-6.364
	l1.414-1.414C22.355,6.3,23.5,9.062,23.5,12C23.5,14.938,22.355,17.701,20.278,19.778z"/>
<path style="fill:#333333;" d="M18.156,17.657l-1.414-1.414C17.876,15.109,18.5,13.603,18.5,12c0-1.603-0.624-3.11-1.758-4.242
	l1.414-1.415C19.668,7.853,20.5,9.862,20.5,12C20.5,14.137,19.668,16.146,18.156,17.657z"/>
<path style="fill:#333333;" d="M6.843,17.657C5.332,16.145,4.5,14.136,4.5,12c0-2.137,0.832-4.146,2.343-5.657l1.414,1.414
	C7.124,8.891,6.5,10.397,6.5,12c0,1.602,0.624,3.109,1.758,4.243L6.843,17.657z"/>
<path style="fill:#333333;" d="M12.5,17.182l-0.533-0.335c-0.69-0.435-1.277-0.879-1.745-1.319l-0.117-0.11
	C9.37,14.729,8,13.45,8,11.8C8,10.256,9.305,9,10.909,9c0.574,0,1.125,0.162,1.591,0.455C12.966,9.162,13.517,9,14.091,9
	C15.695,9,17,10.256,17,11.8c0,1.651-1.371,2.932-2.107,3.619l-0.116,0.108c-0.466,0.44-1.053,0.885-1.744,1.319L12.5,17.182z
	 M10.909,11C10.408,11,10,11.359,10,11.8c0,0.782,0.957,1.676,1.471,2.156l0.125,0.116c0.252,0.238,0.555,0.481,0.905,0.728
	c0.35-0.245,0.652-0.489,0.904-0.727l0.124-0.116C14.042,13.477,15,12.583,15,11.8c0-0.441-0.408-0.8-0.909-0.8
	c-0.316,0-0.605,0.143-0.773,0.381L12.5,12.54l-0.817-1.159C11.515,11.143,11.226,11,10.909,11z"/>
</svg>






