<?xml version="1.0" encoding="iso-8859-1"?>
<svg version="1.1" id="&#x56FE;&#x5C42;_1" xmlns="http://www.w3.org/2000/svg" xmlns:xlink="http://www.w3.org/1999/xlink" x="0px"
	 y="0px" viewBox="0 0 24 24" style="enable-background:new 0 0 24 24;" xml:space="preserve">
<path style="fill:#333333;" d="M21,23H3V11h18V23z M5,21h14v-8H5V21z"/>
<polygon style="fill:#333333;" points="19.5,12 17.5,12 17.5,9.5 6.5,9.5 6.5,12 4.5,12 4.5,7.5 19.5,7.5 "/>
<path style="fill:#333333;" d="M9.235,9.178l-1.47-1.356C8.329,7.211,9,5.706,9,2V1h1c2.054,0,6,3.111,6,7.366h-2
	c0-2.341-1.771-4.225-3.032-4.993C10.833,6.16,10.262,8.065,9.235,9.178z"/>
<path style="fill:#333333;" d="M17,19.5H7v-5h10V19.5z M9,17.5h6v-1H9V17.5z"/>
</svg>






