<?xml version="1.0" encoding="iso-8859-1"?>
<svg version="1.1" id="&#x56FE;&#x5C42;_1" xmlns="http://www.w3.org/2000/svg" xmlns:xlink="http://www.w3.org/1999/xlink" x="0px"
	 y="0px" viewBox="0 0 24 24" style="enable-background:new 0 0 24 24;" xml:space="preserve">
<path style="fill:#333333;" d="M12,23.5c-4.816,0-10-1.252-10-4s5.184-4,10-4s10,1.252,10,4S16.816,23.5,12,23.5z M12,17.5
	c-5.25,0-8,1.486-8,2s2.75,2,8,2c5.249,0,8-1.486,8-2S17.249,17.5,12,17.5z"/>
<rect x="3" y="18.5" style="fill:#333333;" width="18" height="2"/>
<polygon style="fill:#333333;" points="20.11,19.957 12,4.187 3.889,19.957 2.111,19.043 11.111,1.542 12.89,1.542 21.89,19.043 "/>
</svg>






