<?xml version="1.0" encoding="iso-8859-1"?>
<svg version="1.1" id="&#x56FE;&#x5C42;_1" xmlns="http://www.w3.org/2000/svg" xmlns:xlink="http://www.w3.org/1999/xlink" x="0px"
	 y="0px" viewBox="0 0 24 24" style="enable-background:new 0 0 24 24;" xml:space="preserve">
<path style="fill:#333333;" d="M12,23C5.935,23,1,18.065,1,12S5.935,1,12,1s11,4.935,11,11S18.065,23,12,23z M12,3
	c-4.962,0-9,4.038-9,9c0,4.963,4.038,9,9,9c4.963,0,9-4.037,9-9C21,7.038,16.963,3,12,3z"/>
<polygon style="fill:#333333;" points="15.293,12.207 13.086,10 15.293,7.793 16.707,9.207 15.914,10 16.707,10.793 "/>
<polygon style="fill:#333333;" points="8.707,12.207 7.293,10.793 8.086,10 7.293,9.207 8.707,7.793 10.914,10 "/>
<polygon style="fill:#333333;" points="15,18.414 13.5,16.914 12,18.414 10.5,16.914 9,18.414 6.793,16.207 8.207,14.793 9,15.586 
	10.5,14.086 12,15.586 13.5,14.086 15,15.586 15.793,14.793 17.207,16.207 "/>
</svg>






