<?xml version="1.0" encoding="iso-8859-1"?>
<svg version="1.1" id="&#x56FE;&#x5C42;_1" xmlns="http://www.w3.org/2000/svg" xmlns:xlink="http://www.w3.org/1999/xlink" x="0px"
	 y="0px" viewBox="0 0 24 24" style="enable-background:new 0 0 24 24;" xml:space="preserve">
<path style="fill:#333333;" d="M12,23.414L8.586,20H4v-4.586L0.586,12L4,8.586V4h4.586L12,0.586L15.414,4H20v4.586L23.414,12
	L20,15.414V20h-4.586L12,23.414z M6,18h3.414L12,20.586L14.586,18H18v-3.414L20.586,12L18,9.414V6h-3.414L12,3.414L9.414,6H6v3.414
	L3.414,12L6,14.586V18z"/>
<path style="fill:#333333;" d="M12,16c-2.206,0-4-1.794-4-4c0-2.206,1.794-4,4-4c2.206,0,4,1.794,4,4C16,14.206,14.206,16,12,16z
	 M12,10c-1.103,0-2,0.897-2,2c0,1.103,0.897,2,2,2c1.103,0,2-0.897,2-2C14,10.897,13.103,10,12,10z"/>
</svg>






