<?xml version="1.0" encoding="iso-8859-1"?>
<svg version="1.1" id="&#x56FE;&#x5C42;_1" xmlns="http://www.w3.org/2000/svg" xmlns:xlink="http://www.w3.org/1999/xlink" x="0px"
	 y="0px" viewBox="0 0 24 24" style="enable-background:new 0 0 24 24;" xml:space="preserve">
<path style="fill:#333333;" d="M17.997,21.002H3.033v-2h14.964c0.308,0,3.003-0.084,3.003-3.01C21,13.084,18.305,13,17.997,13H6.091
	C4.044,13,1,11.664,1,7.984c0-3.932,3.33-4.971,5.091-4.971h14.404v2H6.091C5.774,5.013,3,5.097,3,7.984C3,10.966,5.965,11,6.091,11
	h11.906C19.728,11,23,12.043,23,15.992C23,19.668,20.008,21.002,17.997,21.002z"/>
<polygon style="fill:#333333;" points="3.319,22.71 0.624,20.04 3.308,17.297 4.738,18.695 3.443,20.019 4.727,21.29 "/>
<polygon style="fill:#333333;" points="19.726,6.691 18.317,5.27 19.601,3.999 18.307,2.676 19.736,1.278 22.421,4.021 "/>
</svg>






