<?xml version="1.0" encoding="iso-8859-1"?>
<svg version="1.1" id="&#x56FE;&#x5C42;_1" xmlns="http://www.w3.org/2000/svg" xmlns:xlink="http://www.w3.org/1999/xlink" x="0px"
	 y="0px" viewBox="0 0 24 24" style="enable-background:new 0 0 24 24;" xml:space="preserve">
<path style="fill:#333333;" d="M12,22C6.486,22,2,17.514,2,12h2c0,4.411,3.589,8,8,8s8-3.589,8-8h2C22,17.514,17.514,22,12,22z"/>
<rect x="11" y="7" style="fill:#333333;" width="2" height="14"/>
<rect x="3" y="11" style="fill:#333333;" width="3" height="2"/>
<rect x="18" y="11" style="fill:#333333;" width="3" height="2"/>
<path style="fill:#333333;" d="M12,8c-1.654,0-3-1.346-3-3s1.346-3,3-3s3,1.346,3,3S13.654,8,12,8z M12,4c-0.551,0-1,0.449-1,1
	s0.449,1,1,1c0.552,0,1-0.449,1-1S12.552,4,12,4z"/>
</svg>






