<?xml version="1.0" encoding="iso-8859-1"?>
<svg version="1.1" id="&#x56FE;&#x5C42;_1" xmlns="http://www.w3.org/2000/svg" xmlns:xlink="http://www.w3.org/1999/xlink" x="0px"
	 y="0px" viewBox="0 0 24 24" style="enable-background:new 0 0 24 24;" xml:space="preserve">
<polygon style="fill:#333333;" points="20.207,22.707 18.793,21.293 20.586,19.5 18.793,17.707 20.207,16.293 23.414,19.5 "/>
<path style="fill:#333333;" d="M4,7C2.346,7,1,5.654,1,4s1.346-3,3-3s3,1.346,3,3S5.654,7,4,7z M4,3C3.449,3,3,3.449,3,4
	s0.449,1,1,1s1-0.449,1-1S4.551,3,4,3z"/>
<path style="fill:#333333;" d="M22,20.5h-8c-1.654,0-3-1.346-3-3V6c0-0.551-0.449-1-1-1H6V3h4c1.654,0,3,1.346,3,3v11.5
	c0,0.552,0.448,1,1,1h8V20.5z"/>
</svg>






