<?xml version="1.0" encoding="iso-8859-1"?>
<svg version="1.1" id="&#x56FE;&#x5C42;_1" xmlns="http://www.w3.org/2000/svg" xmlns:xlink="http://www.w3.org/1999/xlink" x="0px"
	 y="0px" viewBox="0 0 24 24" style="enable-background:new 0 0 24 24;" xml:space="preserve">
<path style="fill:#333333;" d="M4,7C2.346,7,1,5.654,1,4s1.346-3,3-3s3,1.346,3,3S5.654,7,4,7z M4,3C3.449,3,3,3.449,3,4
	s0.449,1,1,1s1-0.449,1-1S4.551,3,4,3z"/>
<path style="fill:#333333;" d="M5,22c-2.206,0-4-1.794-4-4s1.794-4,4-4s4,1.794,4,4S7.206,22,5,22z M5,16c-1.103,0-2,0.897-2,2
	s0.897,2,2,2s2-0.897,2-2S6.103,16,5,16z"/>
<path style="fill:#333333;" d="M19,23c-2.206,0-4-1.794-4-4s1.794-4,4-4s4,1.794,4,4S21.206,23,19,23z M19,17c-1.103,0-2,0.897-2,2
	s0.897,2,2,2s2-0.897,2-2S20.103,17,19,17z"/>
<path style="fill:#333333;" d="M11,15c-2.757,0-5-2.243-5-5s2.243-5,5-5s5,2.243,5,5S13.757,15,11,15z M11,7c-1.654,0-3,1.346-3,3
	s1.346,3,3,3s3-1.346,3-3S12.654,7,11,7z"/>
<path style="fill:#333333;" d="M17,7c-1.654,0-3-1.346-3-3s1.346-3,3-3s3,1.346,3,3S18.654,7,17,7z M17,3c-0.552,0-1,0.449-1,1
	s0.448,1,1,1s1-0.449,1-1S17.552,3,17,3z"/>
<rect x="5.5" y="5.086" transform="matrix(0.7071 -0.7071 0.7071 0.7071 -2.6924 6.5)" style="fill:#333333;" width="2" height="2.828"/>
<rect x="13.793" y="5.5" transform="matrix(0.7071 -0.7071 0.7071 0.7071 -0.3492 12.1569)" style="fill:#333333;" width="1.414" height="2"/>
<rect x="14.5" y="12.474" transform="matrix(0.7809 -0.6247 0.6247 0.7809 -5.8958 12.9423)" style="fill:#333333;" width="2.001" height="4.802"/>
<rect x="6.586" y="13.5" transform="matrix(0.7071 -0.7071 0.7071 0.7071 -7.9099 9.9038)" style="fill:#333333;" width="2.828" height="2"/>
</svg>






