<?xml version="1.0" encoding="iso-8859-1"?>
<svg version="1.1" id="&#x56FE;&#x5C42;_1" xmlns="http://www.w3.org/2000/svg" xmlns:xlink="http://www.w3.org/1999/xlink" x="0px"
	 y="0px" viewBox="0 0 24 24" style="enable-background:new 0 0 24 24;" xml:space="preserve">
<path style="fill:#333333;" d="M21.5,9h-19C1.673,9,1,8.307,1,7.455V2.545C1,1.693,1.673,1,2.5,1h19C22.327,1,23,1.693,23,2.545
	v4.909C23,8.307,22.327,9,21.5,9z M3,7h18V3H3V7z"/>
<path style="fill:#333333;" d="M21.5,23h-19C1.673,23,1,22.307,1,21.454v-4.908C1,15.693,1.673,15,2.5,15h19
	c0.827,0,1.5,0.693,1.5,1.546v4.908C23,22.307,22.327,23,21.5,23z M3,21h18v-4H3V21z"/>
<polygon style="fill:#333333;" points="18,16 16,16 16,13.009 6,13.004 6,8 8,8 8,11.004 18,11.009 "/>
<rect x="9" y="18" style="fill:#333333;" width="6" height="2"/>
<rect x="9" y="4" style="fill:#333333;" width="6" height="2"/>
</svg>






