<?xml version="1.0" encoding="iso-8859-1"?>
<svg version="1.1" id="&#x56FE;&#x5C42;_1" xmlns="http://www.w3.org/2000/svg" xmlns:xlink="http://www.w3.org/1999/xlink" x="0px"
	 y="0px" viewBox="0 0 24 24" style="enable-background:new 0 0 24 24;" xml:space="preserve">
<path style="fill:#333333;" d="M19,17H5c-1.103,0-2-0.897-2-2V7c0-1.103,0.897-2,2-2h14c1.103,0,2,0.897,2,2v8
	C21,16.103,20.103,17,19,17z M5,7v8h14V7H5z"/>
<rect x="7" y="6" style="fill:#333333;" width="2" height="10"/>
<rect x="15" y="6" style="fill:#333333;" width="2" height="10"/>
<rect x="14" y="5" style="fill:#333333;" width="4" height="2"/>
<rect x="6" y="5" style="fill:#333333;" width="4" height="2"/>
<rect x="6" y="15" style="fill:#333333;" width="4" height="2"/>
<rect x="14" y="15" style="fill:#333333;" width="4" height="2"/>
<rect x="2" y="18" style="fill:#333333;" width="20" height="2"/>
<rect x="8" y="19" style="fill:#333333;" width="2" height="1"/>
<rect x="5" y="19" style="fill:#333333;" width="2" height="1"/>
<rect x="2" y="19" style="fill:#333333;" width="2" height="1"/>
<rect x="11" y="19" style="fill:#333333;" width="2" height="1"/>
<rect x="14" y="19" style="fill:#333333;" width="2" height="1"/>
<rect x="17" y="19" style="fill:#333333;" width="2" height="1"/>
<rect x="20" y="19" style="fill:#333333;" width="2" height="1"/>
<polygon style="fill:#333333;" points="16,6 14,6 14,4 10,4 10,6 8,6 8,2 16,2 "/>
</svg>






