<?xml version="1.0" encoding="iso-8859-1"?>
<svg version="1.1" id="&#x56FE;&#x5C42;_1" xmlns="http://www.w3.org/2000/svg" xmlns:xlink="http://www.w3.org/1999/xlink" x="0px"
	 y="0px" viewBox="0 0 24 24" style="enable-background:new 0 0 24 24;" xml:space="preserve">
<path style="fill:#333333;" d="M18.5,23h-13c-1.103,0-2-0.897-2-2V3c0-1.103,0.897-2,2-2h13c1.103,0,2,0.897,2,2v18
	C20.5,22.103,19.603,23,18.5,23z M5.5,3H5.499L5.5,21h13V3H5.5z"/>
<path style="fill:#333333;" d="M12,19.5c-2.206,0-4-1.794-4-4s1.794-4,4-4c2.206,0,4,1.794,4,4S14.206,19.5,12,19.5z M12,13.5
	c-1.103,0-2,0.897-2,2s0.897,2,2,2c1.103,0,2-0.897,2-2S13.103,13.5,12,13.5z"/>
<rect x="9" y="5" style="fill:#333333;" width="1.5" height="2"/>
<rect x="9" y="8" style="fill:#333333;" width="1.5" height="2"/>
<rect x="13.5" y="8" style="fill:#333333;" width="1.5" height="2"/>
</svg>






