<?xml version="1.0" encoding="iso-8859-1"?>
<svg version="1.1" id="&#x56FE;&#x5C42;_1" xmlns="http://www.w3.org/2000/svg" xmlns:xlink="http://www.w3.org/1999/xlink" x="0px"
	 y="0px" viewBox="0 0 24 24" style="enable-background:new 0 0 24 24;" xml:space="preserve">
<path style="fill:#333333;" d="M13,23h-1C5.935,23,1,18.065,1,12S5.935,1,12,1h1V23z M11,3.055C6.506,3.554,3,7.375,3,12
	c0,4.625,3.506,8.445,8,8.944V3.055z"/>
<path style="fill:#333333;" d="M12,23h-1V1h1c6.065,0,11,4.935,11,11S18.065,23,12,23z M13,3.055v17.889
	c4.494-0.499,8-4.319,8-8.944C21,7.375,17.494,3.554,13,3.055z"/>
<rect x="4.5" y="17" style="fill:#333333;" width="7.5" height="2"/>
<rect x="2.5" y="13" style="fill:#333333;" width="9.5" height="2"/>
<rect x="2.5" y="9" style="fill:#333333;" width="9.5" height="2"/>
<rect x="4.5" y="5" style="fill:#333333;" width="7.5" height="2"/>
</svg>






