<?xml version="1.0" encoding="iso-8859-1"?>
<svg version="1.1" id="&#x56FE;&#x5C42;_1" xmlns="http://www.w3.org/2000/svg" xmlns:xlink="http://www.w3.org/1999/xlink" x="0px"
	 y="0px" viewBox="0 0 24 24" style="enable-background:new 0 0 24 24;" xml:space="preserve">
<rect x="3" y="20" style="fill:#333333;" width="18" height="2"/>
<rect x="3" y="17" style="fill:#333333;" width="18" height="2"/>
<path style="fill:#333333;" d="M20.5,19h-17v-6.5C3.5,7.813,7.313,4,12,4c4.687,0,8.5,3.813,8.5,8.5V19z M5.5,17h13v-4.5
	C18.5,8.916,15.584,6,12,6s-6.5,2.916-6.5,6.5V17z"/>
<rect x="7.5" y="12.5" style="fill:#333333;" width="2" height="2"/>
<path style="fill:#333333;" d="M15,5h-2V4c0-0.551-0.448-1-1-1c-0.551,0-1,0.449-1,1v1H9V4c0-1.654,1.346-3,3-3s3,1.346,3,3V5z"/>
</svg>






