<?xml version="1.0" encoding="iso-8859-1"?>
<svg version="1.1" id="&#x56FE;&#x5C42;_1" xmlns="http://www.w3.org/2000/svg" xmlns:xlink="http://www.w3.org/1999/xlink" x="0px"
	 y="0px" viewBox="0 0 24 24" style="enable-background:new 0 0 24 24;" xml:space="preserve">
<path style="fill:#333333;" d="M20,23H4V10.474C4,6.904,7.589,4,12,4s8,2.904,8,6.474V23z M6,21h12V10.474C18,8.007,15.309,6,12,6
	s-6,2.007-6,4.474V21z"/>
<path style="fill:#333333;" d="M20,12.022L4,12.02v-1.546C4,6.904,7.589,4,12,4s8,2.904,8,6.474V12.022z M6.031,10.02l11.939,0.002
	C17.665,7.767,15.104,6,12,6C8.897,6,6.336,7.766,6.031,10.02z"/>
<rect x="2" y="10" style="fill:#333333;" width="20" height="2"/>
<rect x="10.5" y="1" style="fill:#333333;" width="3" height="2"/>
</svg>






