<?xml version="1.0" encoding="iso-8859-1"?>
<svg version="1.1" id="&#x56FE;&#x5C42;_1" xmlns="http://www.w3.org/2000/svg" xmlns:xlink="http://www.w3.org/1999/xlink" x="0px"
	 y="0px" viewBox="0 0 24 24" style="enable-background:new 0 0 24 24;" xml:space="preserve">
<path style="fill:#333333;" d="M13.84,22.575c-1.591,0-3.212-0.394-4.787-1.181c-2.825-1.412-5.68-4.997-7.41-7.88
	C0.561,11.711,1.28,9.942,2.407,9.062c1.346-1.049,3.113-0.956,4.3,0.231L7,9.586V3.75C7,2.233,8.233,1,9.75,1s2.75,1.233,2.75,2.75
	v2.104c0.238-0.068,0.49-0.104,0.75-0.104c0.891,0,1.684,0.426,2.187,1.084c0.605-0.331,1.391-0.422,2.067-0.229
	C17.579,5.156,18.782,4,20.25,4C21.767,4,23,5.233,23,6.75v8.308c0,1.298-0.333,2.393-0.991,3.255
	c-0.683,0.893-1.848,2.147-3.53,3.065C17.015,22.177,15.443,22.575,13.84,22.575z M4.459,10.34c-0.311,0-0.604,0.129-0.821,0.298
	c-0.457,0.357-0.771,1.03-0.28,1.847c1.513,2.521,4.146,5.898,6.589,7.12c2.596,1.298,5.215,1.303,7.574,0.017
	c1.373-0.75,2.334-1.786,2.898-2.523c0.385-0.505,0.58-1.191,0.58-2.041V6.75C21,6.336,20.663,6,20.25,6S19.5,6.336,19.5,6.75v2.5
	h-2c0-0.414-0.337-0.75-0.75-0.75S16,8.836,16,9.25h-2V8.5c0-0.414-0.337-0.75-0.75-0.75S12.5,8.086,12.5,8.5h-2V3.75
	C10.5,3.336,10.164,3,9.75,3S9,3.336,9,3.75V12l-1.707,0.707l-2-2C5.027,10.441,4.736,10.34,4.459,10.34z"/>
</svg>






