<?xml version="1.0" encoding="iso-8859-1"?>
<svg version="1.1" id="&#x56FE;&#x5C42;_1" xmlns="http://www.w3.org/2000/svg" xmlns:xlink="http://www.w3.org/1999/xlink" x="0px"
	 y="0px" viewBox="0 0 24 24" style="enable-background:new 0 0 24 24;" xml:space="preserve">
<polygon style="fill:#333333;" points="12.707,20.707 12,20 11.293,20.707 0.586,10 8,2.586 12.707,7.293 11.293,8.707 8,5.414 
	3.414,10 12,18.586 17.293,13.293 18.707,14.707 "/>
<path style="fill:#333333;" d="M18,15.414l-4-4l-2.845,2.845l-4.268-2.56L16,2.586L23.414,10L18,15.414z M14,8.586l4,4L20.586,10
	L16,5.414l-5.887,5.887l0.732,0.439L14,8.586z"/>
<rect x="12.25" y="16.189" transform="matrix(0.7071 -0.7071 0.7071 0.7071 -8.3168 14.4216)" style="fill:#333333;" width="2" height="2.121"/>
<rect x="14.25" y="14.189" transform="matrix(0.7071 -0.7071 0.7071 0.7071 -6.3168 15.25)" style="fill:#333333;" width="2" height="2.121"/>
</svg>






