<?xml version="1.0" encoding="iso-8859-1"?>
<svg version="1.1" id="&#x56FE;&#x5C42;_1" xmlns="http://www.w3.org/2000/svg" xmlns:xlink="http://www.w3.org/1999/xlink" x="0px"
	 y="0px" viewBox="0 0 24 24" style="enable-background:new 0 0 24 24;" xml:space="preserve">
<path style="fill:#333333;" d="M12,23.151L4,18.58V9.42l8-4.572l8,4.572v9.16L12,23.151z M6,17.42l6,3.429l6-3.429v-6.84l-6-3.428
	L6,10.58V17.42z"/>
<rect x="11" y="3" style="fill:#333333;" width="2" height="3"/>
<polygon style="fill:#333333;" points="12,15.151 4.504,10.868 5.496,9.132 12,12.849 18.504,9.132 19.496,10.868 "/>
<rect x="19.5" y="17.073" transform="matrix(0.4472 -0.8944 0.8944 0.4472 -5.4384 28.7005)" style="fill:#333333;" width="2" height="3.354"/>
<rect x="1.823" y="17.75" transform="matrix(0.8944 -0.4472 0.4472 0.8944 -8.0157 3.5447)" style="fill:#333333;" width="3.354" height="2"/>
<rect x="11" y="14" style="fill:#333333;" width="2" height="8"/>
<path style="fill:#333333;" d="M12,23.151l-3.996-2.283l0.992-1.736L12,20.849l3.004-1.717l0.992,1.736L12,23.151z M20,14h-2v-3.42
	l-2.996-1.712l0.992-1.736L20,9.42V14z M6,14H4V9.42l4.004-2.288l0.992,1.736L6,10.58V14z"/>
</svg>






