<?xml version="1.0" encoding="iso-8859-1"?>
<svg version="1.1" id="&#x56FE;&#x5C42;_1" xmlns="http://www.w3.org/2000/svg" xmlns:xlink="http://www.w3.org/1999/xlink" x="0px"
	 y="0px" viewBox="0 0 24 24" style="enable-background:new 0 0 24 24;" xml:space="preserve">
<path style="fill:#333333;" d="M20.5,19h-1.491v-2H20.5c0.275,0,0.5-0.225,0.5-0.5v-13C21,3.224,20.775,3,20.5,3h-13
	C7.224,3,7,3.224,7,3.5v1.463H5V3.5C5,2.122,6.122,1,7.5,1h13C21.879,1,23,2.122,23,3.5v13C23,17.879,21.879,19,20.5,19z"/>
<path style="fill:#333333;" d="M17.5,23h-14C2.122,23,1,21.879,1,20.5v-14C1,5.122,2.122,4,3.5,4h14C18.879,4,20,5.122,20,6.5v14
	C20,21.879,18.879,23,17.5,23z M3.5,6C3.224,6,3,6.224,3,6.5v14C3,20.775,3.224,21,3.5,21h14c0.275,0,0.5-0.225,0.5-0.5v-14
	C18,6.224,17.775,6,17.5,6H3.5z"/>
<path style="fill:#333333;" d="M14.338,13.198l-1.455-1.373l0.955-1.012c0.18-0.179,0.265-0.394,0.262-0.625
	c-0.003-0.241-0.102-0.471-0.276-0.646c-0.356-0.355-0.916-0.371-1.25-0.036l-2.632,2.741l-1.442-1.386l2.646-2.755
	c1.128-1.128,2.957-1.114,4.093,0.021c0.546,0.546,0.853,1.269,0.862,2.034c0.011,0.776-0.283,1.502-0.827,2.046L14.338,13.198z"/>
<path style="fill:#333333;" d="M7.328,19.476c-0.748,0-1.506-0.287-2.085-0.865c-0.541-0.54-0.849-1.307-0.845-2.102
	c0.004-0.787,0.312-1.544,0.845-2.077c0.013-0.014,0.532-0.514,0.783-0.765l1.414,1.414c-0.259,0.259-0.795,0.777-0.795,0.777
	c-0.151,0.15-0.245,0.396-0.247,0.66s0.093,0.512,0.259,0.678c0.355,0.354,0.916,0.37,1.25,0.036l2.617-2.378l1.345,1.48
	L9.287,18.68C8.757,19.21,8.048,19.476,7.328,19.476z"/>
<path style="fill:#333333;" d="M8.625,14.872c-0.505-0.504-0.81-1.17-0.857-1.877c-0.055-0.823,0.244-1.625,0.82-2.202l1.414,1.414
	c-0.171,0.171-0.256,0.403-0.239,0.653c0.015,0.223,0.113,0.435,0.274,0.596L8.625,14.872z"/>
<path style="fill:#333333;" d="M11.903,16.302l-1.414-1.414c0.159-0.159,0.244-0.373,0.241-0.604
	c-0.003-0.241-0.102-0.47-0.277-0.646l1.414-1.414c0.546,0.546,0.852,1.268,0.863,2.033C12.74,15.032,12.447,15.759,11.903,16.302z"
	/>
</svg>






