<?xml version="1.0" encoding="iso-8859-1"?>
<svg version="1.1" id="&#x56FE;&#x5C42;_1" xmlns="http://www.w3.org/2000/svg" xmlns:xlink="http://www.w3.org/1999/xlink" x="0px"
	 y="0px" viewBox="0 0 24 24" style="enable-background:new 0 0 24 24;" xml:space="preserve">
<path style="fill:#333333;" d="M20.094,18.5h-2.336v-2h2.336c0.224,0,0.406-0.183,0.406-0.406V3.906
	c0-0.224-0.183-0.406-0.406-0.406H7.906C7.682,3.5,7.5,3.682,7.5,3.906v2.31h-2v-2.31C5.5,2.58,6.58,1.5,7.906,1.5h12.188
	c1.327,0,2.406,1.08,2.406,2.406v12.188C22.5,17.421,21.421,18.5,20.094,18.5z"/>
<path style="fill:#333333;" d="M16.094,22.5H3.906C2.58,22.5,1.5,21.421,1.5,20.094V7.906C1.5,6.58,2.58,5.5,3.906,5.5h12.188
	c1.327,0,2.406,1.08,2.406,2.406v12.188C18.5,21.421,17.421,22.5,16.094,22.5z M3.906,7.5C3.682,7.5,3.5,7.682,3.5,7.906v12.188
	c0,0.224,0.182,0.406,0.406,0.406h12.188c0.224,0,0.406-0.183,0.406-0.406V7.906c0-0.224-0.183-0.406-0.406-0.406H3.906z"/>
</svg>






