<?xml version="1.0" encoding="iso-8859-1"?>
<svg version="1.1" id="&#x56FE;&#x5C42;_1" xmlns="http://www.w3.org/2000/svg" xmlns:xlink="http://www.w3.org/1999/xlink" x="0px"
	 y="0px" viewBox="0 0 24 24" style="enable-background:new 0 0 24 24;" xml:space="preserve">
<path style="fill:#333333;" d="M5.949,21.188c-0.592-0.391-1.147-0.839-1.649-1.332c-0.478-0.469-0.915-0.982-1.3-1.529l1.635-1.152
	c0.316,0.448,0.674,0.87,1.065,1.254c0.411,0.403,0.866,0.771,1.351,1.09L5.949,21.188z"/>
<path style="fill:#333333;" d="M12,23c-0.713,0-1.428-0.069-2.126-0.205l0.383-1.963c1.144,0.223,2.344,0.223,3.486,0l0.383,1.963
	C13.429,22.931,12.713,23,12,23z"/>
<path style="fill:#333333;" d="M22.752,14.332l-1.955-0.422C20.932,13.285,21,12.643,21,12c0-0.632-0.065-1.262-0.194-1.872
	l1.957-0.413C22.92,10.46,23,11.229,23,12C23,12.784,22.917,13.569,22.752,14.332z"/>
<path style="fill:#333333;" d="M19.365,6.826C19.052,6.38,18.693,5.958,18.3,5.572c-0.414-0.405-0.869-0.772-1.351-1.09l1.102-1.67
	C18.639,3.2,19.193,3.648,19.7,4.144c0.48,0.472,0.917,0.986,1.3,1.53L19.365,6.826z"/>
<path style="fill:#333333;" d="M13.731,3.166c-1.132-0.22-2.329-0.22-3.463,0L9.887,1.203c1.384-0.27,2.843-0.27,4.228,0
	L13.731,3.166z"/>
<path style="fill:#333333;" d="M4.635,6.826L3,5.674c0.384-0.545,0.822-1.061,1.3-1.53c0.505-0.495,1.06-0.943,1.649-1.332
	l1.102,1.669C6.568,4.8,6.114,5.167,5.7,5.573C5.308,5.957,4.95,6.379,4.635,6.826z"/>
<path style="fill:#333333;" d="M18.118,21.085l-1.102-1.67c0.482-0.317,0.937-0.685,1.351-1.091c0.393-0.385,0.75-0.806,1.064-1.253
	l1.637,1.15c-0.385,0.547-0.822,1.062-1.301,1.53C19.262,20.248,18.707,20.696,18.118,21.085z"/>
<rect x="2" y="11" style="fill:#333333;" width="6" height="2"/>
<rect x="4.136" y="15.914" transform="matrix(0.7071 -0.7071 0.7071 0.7071 -9.8847 9.9644)" style="fill:#333333;" width="5.9" height="2"/>
<rect x="11" y="16" style="fill:#333333;" width="2" height="6"/>
<rect x="15.914" y="13.964" transform="matrix(0.7071 -0.7071 0.7071 0.7071 -7.006 16.9141)" style="fill:#333333;" width="2" height="5.9"/>
<rect x="16" y="11" style="fill:#333333;" width="6" height="2"/>
<rect x="13.964" y="6.086" transform="matrix(0.7071 -0.7071 0.7071 0.7071 -0.0563 14.0354)" style="fill:#333333;" width="5.9" height="2"/>
<rect x="11" y="2" style="fill:#333333;" width="2" height="6"/>
<rect x="6.086" y="4.136" transform="matrix(0.7071 -0.7071 0.7071 0.7071 -2.935 7.0857)" style="fill:#333333;" width="2" height="5.899"/>
<path style="fill:#333333;" d="M1.238,14.285C1.08,13.538,1,12.769,1,12c0-0.769,0.08-1.538,0.238-2.285l1.957,0.413
	C3.065,10.74,3,11.37,3,12c0,0.63,0.065,1.261,0.195,1.873L1.238,14.285z"/>
<path style="fill:#333333;" d="M12,17c-2.757,0-5-2.243-5-5s2.243-5,5-5s5,2.243,5,5S14.757,17,12,17z M12,9c-1.654,0-3,1.346-3,3
	s1.346,3,3,3s3-1.346,3-3S13.654,9,12,9z"/>
</svg>






