<?xml version="1.0" encoding="iso-8859-1"?>
<svg version="1.1" id="&#x56FE;&#x5C42;_1" xmlns="http://www.w3.org/2000/svg" xmlns:xlink="http://www.w3.org/1999/xlink" x="0px"
	 y="0px" viewBox="0 0 24 24" style="enable-background:new 0 0 24 24;" xml:space="preserve">
<g>
	<defs>
		<rect id="SVGID_1_" width="24" height="24"/>
	</defs>
	<clipPath id="SVGID_00000138556844903944016390000001385986943941994918_">
		<use xlink:href="#SVGID_1_"  style="overflow:visible;"/>
	</clipPath>
	<g style="clip-path:url(#SVGID_00000138556844903944016390000001385986943941994918_);">
		<path style="fill:#333333;" d="M11.634,17.913l-5.047-5.048L18.705,2.262c0.662-0.667,2.188-1.251,3.486,0.045
			c1.297,1.297,0.711,2.825,0,3.536L11.634,17.913z M9.512,12.963l2.024,2.024l9.195-10.51c0.386-0.416,0.165-0.637,0.046-0.756
			c-0.088-0.087-0.354-0.353-0.707,0L9.512,12.963z"/>
		
			<rect x="11.646" y="9.854" transform="matrix(0.707 -0.7072 0.7072 0.707 -4.6777 12.4156)" style="fill:#333333;" width="2" height="4"/>
		<path style="fill:#333333;" d="M8.699,22.773c-0.973,0-3.054-0.243-4.892-2.081c-2.447-2.446-2.068-5.324-2.051-5.445l0.076-0.536
			l6.429-2.999l4.526,4.526l-3,6.428l-0.536,0.077C9.222,22.747,9.021,22.773,8.699,22.773z M3.729,16.034
			c0.037,0.709,0.284,2.035,1.493,3.244c1.208,1.208,2.535,1.456,3.244,1.493l1.918-4.109l-2.545-2.546L3.729,16.034z"/>
		
			<rect x="3.345" y="16.688" transform="matrix(0.9191 -0.3941 0.3941 0.9191 -6.5909 3.2803)" style="fill:#333333;" width="2.692" height="2"/>
		
			<rect x="5.846" y="19.339" transform="matrix(0.4472 -0.8944 0.8944 0.4472 -14.5232 17.1787)" style="fill:#333333;" width="1.581" height="2"/>
		
			<rect x="8.999" y="9.439" transform="matrix(0.7528 -0.6583 0.6583 0.7528 -4.1825 9.742)" style="fill:#333333;" width="3.759" height="2"/>
		
			<rect x="12.181" y="12.621" transform="matrix(0.6582 -0.7529 0.7529 0.6582 -5.4485 15.2421)" style="fill:#333333;" width="3.758" height="2"/>
	</g>
</g>
</svg>






