<?xml version="1.0" encoding="iso-8859-1"?>
<svg version="1.1" id="&#x56FE;&#x5C42;_1" xmlns="http://www.w3.org/2000/svg" xmlns:xlink="http://www.w3.org/1999/xlink" x="0px"
	 y="0px" viewBox="0 0 24 24" style="enable-background:new 0 0 24 24;" xml:space="preserve">
<path style="fill:#333333;" d="M23,19H1V5h22V19z M13,17h8V7h-8v3h-2V7H3v10h8v-3h2V17z"/>
<path style="fill:#333333;" d="M12,15c-1.654,0-3-1.346-3-3s1.346-3,3-3s3,1.346,3,3S13.654,15,12,15z M12,11c-0.551,0-1,0.449-1,1
	c0,0.552,0.449,1,1,1c0.552,0,1-0.448,1-1C13,11.449,12.552,11,12,11z"/>
<path style="fill:#333333;" d="M3.5,15H1V9h2.5c1.654,0,3,1.346,3,3S5.154,15,3.5,15z M3,13h0.5c0.551,0,1-0.448,1-1
	c0-0.551-0.449-1-1-1H3V13z"/>
<path style="fill:#333333;" d="M23,15h-2.5c-1.654,0-3-1.346-3-3s1.346-3,3-3H23V15z M20.5,11c-0.552,0-1,0.449-1,1
	c0,0.552,0.448,1,1,1H21v-2H20.5z"/>
</svg>






