<?xml version="1.0" encoding="iso-8859-1"?>
<svg version="1.1" id="&#x56FE;&#x5C42;_1" xmlns="http://www.w3.org/2000/svg" xmlns:xlink="http://www.w3.org/1999/xlink" x="0px"
	 y="0px" viewBox="0 0 24 24" style="enable-background:new 0 0 24 24;" xml:space="preserve">
<path style="fill:#333333;" d="M19,21H5c-1.103,0-2-0.897-2-2V5c0-1.103,0.897-2,2-2h14c1.103,0,2,0.897,2,2v14
	C21,20.103,20.103,21,19,21z M5,5v14h14V5H5z"/>
<path style="fill:#333333;" d="M16,16H8V8h8V16z M10,14h4v-4h-4V14z"/>
<path style="fill:none;" d="M7.455,1v3V1z"/>
<rect x="6.455" y="1" style="fill:#333333;" width="2" height="3"/>
<path style="fill:none;" d="M7.455,20v3V20z"/>
<rect x="6.455" y="20" style="fill:#333333;" width="2" height="3"/>
<path style="fill:none;" d="M12,1v3V1z"/>
<rect x="11" y="1" style="fill:#333333;" width="2" height="3"/>
<path style="fill:none;" d="M12,20v3V20z"/>
<rect x="11" y="20" style="fill:#333333;" width="2" height="3"/>
<path style="fill:none;" d="M16.545,1v3V1z"/>
<rect x="15.545" y="1" style="fill:#333333;" width="2" height="3"/>
<path style="fill:none;" d="M16.545,20v3V20z"/>
<rect x="15.545" y="20" style="fill:#333333;" width="2" height="3"/>
<path style="fill:none;" d="M1,7.455h3H1z"/>
<rect x="1" y="6.455" style="fill:#333333;" width="3" height="2"/>
<path style="fill:none;" d="M20,7.455h3H20z"/>
<rect x="20" y="6.455" style="fill:#333333;" width="3" height="2"/>
<path style="fill:none;" d="M1,12h3H1z"/>
<rect x="1" y="11" style="fill:#333333;" width="3" height="2"/>
<path style="fill:none;" d="M20,12h3H20z"/>
<rect x="20" y="11" style="fill:#333333;" width="3" height="2"/>
<path style="fill:none;" d="M1,16.545h3H1z"/>
<rect x="1" y="15.545" style="fill:#333333;" width="3" height="2"/>
<path style="fill:none;" d="M20,16.545h3H20z"/>
<rect x="20" y="15.545" style="fill:#333333;" width="3" height="2"/>
</svg>






