<?xml version="1.0" encoding="iso-8859-1"?>
<svg version="1.1" id="&#x56FE;&#x5C42;_1" xmlns="http://www.w3.org/2000/svg" xmlns:xlink="http://www.w3.org/1999/xlink" x="0px"
	 y="0px" viewBox="0 0 24 24" style="enable-background:new 0 0 24 24;" xml:space="preserve">
<path style="fill:#333333;" d="M2.5,9.5h-1v-1c0-3.083,0.762-5.18,2.264-6.232C5.045,1.369,6.755,1.301,8.842,2.06l0.5,0.182
	l0.129,0.516C9.806,4.1,9.401,5.719,8.413,6.984C7.517,8.132,5.764,9.5,2.5,9.5z M6.228,3.539c-0.527,0-0.967,0.123-1.317,0.368
	C4.134,4.451,3.666,5.662,3.537,7.438c1.787-0.223,2.772-1.009,3.3-1.685c0.523-0.67,0.74-1.414,0.748-2
	C7.083,3.61,6.63,3.539,6.228,3.539z"/>
<path style="fill:#333333;" d="M22.5,9.5h-1c-3.264,0-5.017-1.368-5.912-2.515C14.6,5.719,14.194,4.1,14.53,2.757l0.129-0.516
	l0.499-0.182c2.088-0.759,3.797-0.689,5.078,0.208C21.738,3.32,22.5,5.417,22.5,8.5V9.5z M16.417,3.753
	c0.008,0.587,0.224,1.331,0.747,2.001c0.527,0.676,1.513,1.462,3.3,1.685c-0.129-1.776-0.598-2.988-1.375-3.532
	C18.473,3.474,17.573,3.423,16.417,3.753z"/>
<path style="fill:#333333;" d="M15,22H9c-3.309,0-6-2.691-6-6s2.691-6,6-6h6c3.309,0,6,2.691,6,6S18.309,22,15,22z M9,12
	c-2.206,0-4,1.794-4,4s1.794,4,4,4h6c2.206,0,4-1.794,4-4s-1.794-4-4-4H9z"/>
<rect x="12.5" y="9" style="fill:#333333;" width="2" height="2"/>
<rect x="9.5" y="9" style="fill:#333333;" width="2" height="2"/>
<path style="fill:#333333;" d="M20.6,15.3L19.4,13.7c1.517-1.138,1.583-3.587,1.151-4.884l1.896-0.633
	C23.039,9.956,23.06,13.455,20.6,15.3z"/>
<path style="fill:#333333;" d="M3.2,15.1c-1.612-2.148-2.29-4.993-1.649-6.916l1.897,0.633C3.082,9.917,3.43,12.074,4.8,13.9
	L3.2,15.1z"/>
<polygon style="fill:#333333;" points="23.539,22 15,22 15,20 20.461,20 19.086,16.906 20.914,16.094 "/>
<polygon style="fill:#333333;" points="9,22 0.461,22 3.086,16.094 4.914,16.906 3.539,20 9,20 "/>
</svg>






