<?xml version="1.0" encoding="iso-8859-1"?>
<svg version="1.1" id="&#x56FE;&#x5C42;_1" xmlns="http://www.w3.org/2000/svg" xmlns:xlink="http://www.w3.org/1999/xlink" x="0px"
	 y="0px" viewBox="0 0 24 24" style="enable-background:new 0 0 24 24;" xml:space="preserve">
<path style="fill:#333333;" d="M19.5,22h-15C3.122,22,2,20.879,2,19.5v-15C2,3.122,3.122,2,4.5,2h15C20.879,2,22,3.122,22,4.5v15
	C22,20.879,20.879,22,19.5,22z M4.5,4C4.224,4,4,4.224,4,4.5v15C4,19.775,4.224,20,4.5,20h15c0.275,0,0.5-0.225,0.5-0.5v-15
	C20,4.224,19.775,4,19.5,4H4.5z"/>
<path style="fill:#333333;" d="M14.453,19.041L12,17.732l-2.453,1.309l-1.456-1.056l0.478-2.72l-2.005-1.961L7.12,11.6l2.766-0.401
	l1.216-2.481l1.794-0.005l1.234,2.486l2.752,0.401l0.555,1.705l-2.003,1.961l0.476,2.721L14.453,19.041z M12,15.467l1.587,0.846
	l-0.304-1.74l1.312-1.284l-1.791-0.261l-0.798-1.609l-0.788,1.609l-1.809,0.262l1.312,1.283l-0.306,1.738L12,15.467z"/>
<rect x="9.158" y="5.316" style="fill:#333333;" width="5.684" height="2"/>
</svg>






