<?xml version="1.0" encoding="iso-8859-1"?>
<svg version="1.1" id="&#x56FE;&#x5C42;_1" xmlns="http://www.w3.org/2000/svg" xmlns:xlink="http://www.w3.org/1999/xlink" x="0px"
	 y="0px" viewBox="0 0 24 24" style="enable-background:new 0 0 24 24;" xml:space="preserve">
<g>
	<defs>
		<rect id="SVGID_1_" width="24" height="24"/>
	</defs>
	<clipPath id="SVGID_00000003794769648514467490000016145747699776700602_">
		<use xlink:href="#SVGID_1_"  style="overflow:visible;"/>
	</clipPath>
	<g style="clip-path:url(#SVGID_00000003794769648514467490000016145747699776700602_);">
		<path style="fill:#333333;" d="M6.309,22.262c-0.341,0-0.675-0.094-0.983-0.277c-0.879-0.528-1.529-1.495-2.046-3.044
			c-0.794-2.383-0.78-4.369-0.779-4.452l2,0.021c0,0.018-0.005,1.751,0.677,3.798c0.347,1.041,0.744,1.701,1.177,1.961
			c0.049-0.028,0.417-0.304,0.81-0.98c0.429-0.737,1.058-1.565,1.869-2.46l1.481,1.344c-0.708,0.78-1.268,1.514-1.621,2.121
			c-0.425,0.731-1.134,1.657-2.097,1.906C6.633,22.241,6.47,22.262,6.309,22.262z"/>
		<path style="fill:#333333;" d="M19.135,10.229l-1.371-1.457c0.813-0.765,1.564-1.341,2.232-1.713
			c0.325-0.181,0.48-0.31,0.553-0.383c-0.21-0.407-0.675-0.837-1.153-1.057c-0.132-0.061-0.742-0.289-3.061-0.677l0.33-1.973
			c2.475,0.415,3.22,0.673,3.564,0.832c0.989,0.453,1.863,1.333,2.228,2.243c0.289,0.72,0.266,1.785-1.488,2.762
			C20.452,9.093,19.818,9.585,19.135,10.229z"/>
		<path style="fill:#333333;" d="M8.961,18.291c-0.322,0-0.648-0.062-0.962-0.195l-3.987-1.685c-1.24-0.524-1.833-1.92-1.349-3.177
			l0.226-0.585c0.516-1.338,1.474-2.488,2.699-3.236l1.043,1.706c-0.851,0.521-1.518,1.319-1.876,2.25l-0.226,0.585
			c-0.093,0.242,0.022,0.514,0.262,0.615l3.987,1.685c0.245,0.1,0.529-0.012,0.635-0.256c0.184-0.43,0.483-0.796,0.866-1.062
			l1.25-0.869l1.141,1.643l-1.25,0.869c-0.075,0.052-0.134,0.124-0.17,0.208C10.848,17.726,9.927,18.291,8.961,18.291z"/>
		<path style="fill:#333333;" d="M16.095,12.933l-1.469-1.357l1.15-1.246c0.257-0.276,0.56-0.49,0.902-0.637
			c0.316-0.136,0.474-0.495,0.358-0.818l-1.426-4.006c-0.068-0.19-0.27-0.3-0.465-0.255l-0.609,0.14
			C13.453,5,12.51,5.644,11.883,6.563L10.23,5.437c0.912-1.338,2.283-2.273,3.861-2.634l0.609-0.139
			c1.184-0.267,2.386,0.388,2.794,1.533l1.427,4.006c0.469,1.315-0.17,2.777-1.454,3.328c-0.085,0.037-0.16,0.09-0.225,0.158
			L16.095,12.933z"/>
		<path style="fill:#333333;" d="M11.887,15.783c-0.605,0-1.214-0.182-1.739-0.557l-4.023-2.874C4.88,11.464,4.539,9.75,5.348,8.451
			c0.853-1.371,2.029-2.543,3.4-3.39c1.286-0.794,2.938-0.48,3.844,0.728l2.966,3.954c0.493,0.658,0.692,1.466,0.562,2.278
			c-0.131,0.811-0.573,1.515-1.247,1.983l-0.118,0.083c-0.077,0.054-0.145,0.116-0.205,0.189l-0.34,0.413
			C13.621,15.406,12.759,15.783,11.887,15.783z M10.273,6.627c-0.162,0-0.327,0.044-0.475,0.136
			c-1.11,0.686-2.062,1.635-2.752,2.745c-0.253,0.406-0.147,0.941,0.241,1.218L11.31,13.6c0.428,0.305,1.023,0.226,1.353-0.179
			l0.343-0.417c0.179-0.216,0.381-0.402,0.604-0.558l0.117-0.082c0.227-0.157,0.374-0.392,0.417-0.662
			c0.044-0.271-0.022-0.541-0.187-0.76l-2.966-3.954C10.815,6.753,10.547,6.627,10.273,6.627z"/>
	</g>
</g>
</svg>






