<?xml version="1.0" encoding="iso-8859-1"?>
<svg version="1.1" id="&#x56FE;&#x5C42;_1" xmlns="http://www.w3.org/2000/svg" xmlns:xlink="http://www.w3.org/1999/xlink" x="0px"
	 y="0px" viewBox="0 0 24 24" style="enable-background:new 0 0 24 24;" xml:space="preserve">
<path style="fill:#333333;" d="M14,22.5h-4c-1.103,0-2-0.897-2-2V16H3.5c-1.103,0-2-0.897-2-2v-4c0-1.103,0.897-2,2-2H8V3.5
	c0-1.103,0.897-2,2-2h4c1.103,0,2,0.897,2,2V8h4.5c1.103,0,2,0.897,2,2v4c0,1.103-0.897,2-2,2H16v4.5C16,21.603,15.103,22.5,14,22.5
	z M3.5,10H3.499L3.5,14H10v6.5h4V14h6.5v-4H14V3.5h-4V10H3.5z"/>
</svg>






