<?xml version="1.0" encoding="iso-8859-1"?>
<svg version="1.1" id="&#x56FE;&#x5C42;_1" xmlns="http://www.w3.org/2000/svg" xmlns:xlink="http://www.w3.org/1999/xlink" x="0px"
	 y="0px" viewBox="0 0 24 24" style="enable-background:new 0 0 24 24;" xml:space="preserve">
<path style="fill:#333333;" d="M12,7c-1.654,0-3-1.346-3-3s1.346-3,3-3s3,1.346,3,3S13.654,7,12,7z M12,3c-0.551,0-1,0.449-1,1
	s0.449,1,1,1c0.552,0,1-0.449,1-1S12.552,3,12,3z"/>
<path style="fill:#333333;" d="M12,23c-1.654,0-3-1.346-3-3s1.346-3,3-3s3,1.346,3,3S13.654,23,12,23z M12,19c-0.551,0-1,0.448-1,1
	s0.449,1,1,1c0.552,0,1-0.448,1-1S12.552,19,12,19z"/>
<path style="fill:#333333;" d="M4,15c-1.654,0-3-1.346-3-3s1.346-3,3-3s3,1.346,3,3S5.654,15,4,15z M4,11c-0.551,0-1,0.449-1,1
	c0,0.552,0.449,1,1,1s1-0.448,1-1C5,11.449,4.551,11,4,11z"/>
<path style="fill:#333333;" d="M20,15c-1.654,0-3-1.346-3-3s1.346-3,3-3s3,1.346,3,3S21.654,15,20,15z M20,11c-0.552,0-1,0.449-1,1
	c0,0.552,0.448,1,1,1s1-0.448,1-1C21,11.449,20.552,11,20,11z"/>
<rect x="6" y="11" style="fill:#333333;" width="12" height="2"/>
<rect x="11" y="6" style="fill:#333333;" width="2" height="12"/>
<path style="fill:#333333;" d="M17,19.483l-1.263-1.538l2.208-2.208L19.483,17c-0.326,0.487-0.702,0.946-1.118,1.363
	C17.946,18.781,17.487,19.157,17,19.483z M6.999,19.483c-0.488-0.327-0.946-0.703-1.362-1.118c-0.416-0.416-0.792-0.874-1.12-1.364
	l1.538-1.264l2.208,2.208L6.999,19.483z M6.054,8.262L4.517,6.998c0.329-0.49,0.706-0.949,1.12-1.362
	c0.413-0.413,0.871-0.79,1.361-1.119l1.264,1.538L6.054,8.262z M17.821,8.112c-0.255-0.38-0.548-0.738-0.872-1.062
	c-0.322-0.322-0.68-0.616-1.062-0.872l1.113-1.661c0.49,0.328,0.948,0.705,1.363,1.12c0.416,0.417,0.792,0.875,1.119,1.362
	L17.821,8.112z"/>
</svg>






