<?xml version="1.0" encoding="iso-8859-1"?>
<svg version="1.1" id="&#x56FE;&#x5C42;_1" xmlns="http://www.w3.org/2000/svg" xmlns:xlink="http://www.w3.org/1999/xlink" x="0px"
	 y="0px" viewBox="0 0 24 24" style="enable-background:new 0 0 24 24;" xml:space="preserve">
<path style="fill:#333333;" d="M17.909,16c-3.116,0-4.69-1.928-6.514-4.159l-0.341-0.418C9.37,9.362,8.258,8,6.091,8
	C4.808,8,3,8.931,3,11s1.808,3,3.091,3c1.411,0,2.084-0.658,2.937-1.492l1.398,1.43C9.487,14.856,8.317,16,6.091,16
	C3.588,16,1,14.13,1,11s2.588-5,5.091-5c3.116,0,4.689,1.927,6.513,4.158l0.341,0.418C14.629,12.638,15.742,14,17.909,14
	C19.192,14,21,13.069,21,11s-1.808-3-3.091-3c-1.408,0-2.559,1.123-2.937,1.492l-1.398-1.429C14.098,7.551,15.686,6,17.909,6
	C20.411,6,23,7.87,23,11S20.411,16,17.909,16z"/>
</svg>






