<?xml version="1.0" encoding="iso-8859-1"?>
<svg version="1.1" id="&#x56FE;&#x5C42;_1" xmlns="http://www.w3.org/2000/svg" xmlns:xlink="http://www.w3.org/1999/xlink" x="0px"
	 y="0px" viewBox="0 0 24 24" style="enable-background:new 0 0 24 24;" xml:space="preserve">
<path style="fill:#333333;" d="M20.306,21H3.694L1.023,8.712l1.424-1.107l4.236,2.118L12,2.279l5.317,7.444l4.235-2.118l1.425,1.107
	L20.306,21z M5.306,19h13.388l1.885-8.671l-3.896,1.948L12,5.721l-4.683,6.556l-3.896-1.948L5.306,19z"/>
<path style="fill:#333333;" d="M12,17.5c-1.654,0-3-1.346-3-3s1.346-3,3-3s3,1.346,3,3S13.654,17.5,12,17.5z M12,13.5
	c-0.551,0-1,0.448-1,1s0.449,1,1,1c0.552,0,1-0.448,1-1S12.552,13.5,12,13.5z"/>
</svg>






