<?xml version="1.0" encoding="iso-8859-1"?>
<svg version="1.1" id="&#x56FE;&#x5C42;_1" xmlns="http://www.w3.org/2000/svg" xmlns:xlink="http://www.w3.org/1999/xlink" x="0px"
	 y="0px" viewBox="0 0 24 24" style="enable-background:new 0 0 24 24;" xml:space="preserve">
<path style="fill:#333333;" d="M19.939,21.342l-1.879-0.684l1.695-4.662L12,12.118l-7.755,3.878l1.695,4.662l-1.88,0.684
	L2.365,16.68c-0.348-0.956,0.076-2.02,0.986-2.473l7.754-3.878c0.562-0.279,1.229-0.278,1.789,0l7.756,3.878
	c0.909,0.454,1.333,1.517,0.984,2.473L19.939,21.342z"/>
<path style="fill:#333333;" d="M19.5,15.562L12,12.102l-7.5,3.461V8c0-1.103,0.897-2,2-2h11c1.103,0,2,0.897,2,2V15.562z M6.5,8
	v4.438l4.662-2.152c0.532-0.246,1.143-0.246,1.676,0l4.662,2.152V8H6.5z"/>
<path style="fill:#333333;" d="M15.5,7h-2V3h-3v4h-2V3c0-1.103,0.897-2,2-2h3c1.103,0,2,0.897,2,2V7z"/>
<rect x="11" y="16" style="fill:#333333;" width="2" height="4"/>
<path style="fill:#333333;" d="M22,23c-1.34,0-2.028-0.397-2.531-0.688C19.109,22.104,18.928,22,18.5,22
	c-0.447,0-0.613,0.111-0.945,0.332C17.132,22.614,16.553,23,15.5,23c-0.972,0-1.583-0.327-2.073-0.589C12.98,22.172,12.658,22,12,22
	s-0.98,0.172-1.426,0.411C10.083,22.673,9.472,23,8.5,23c-1.053,0-1.632-0.386-2.055-0.668C6.114,22.111,5.947,22,5.5,22
	c-0.428,0-0.609,0.104-0.969,0.312C4.028,22.603,3.34,23,2,23v-2c0.804,0,1.125-0.186,1.531-0.42C3.979,20.321,4.536,20,5.5,20
	c1.053,0,1.632,0.386,2.055,0.668C7.886,20.889,8.053,21,8.5,21c0.471,0,0.733-0.141,1.131-0.353C10.17,20.358,10.841,20,12,20
	s1.83,0.358,2.369,0.647C14.767,20.859,15.029,21,15.5,21c0.447,0,0.613-0.111,0.945-0.332C16.868,20.386,17.447,20,18.5,20
	c0.964,0,1.521,0.321,1.969,0.58C20.875,20.814,21.196,21,22,21V23z"/>
</svg>






