<?xml version="1.0" encoding="iso-8859-1"?>
<svg version="1.1" id="&#x56FE;&#x5C42;_1" xmlns="http://www.w3.org/2000/svg" xmlns:xlink="http://www.w3.org/1999/xlink" x="0px"
	 y="0px" viewBox="0 0 24 24" style="enable-background:new 0 0 24 24;" xml:space="preserve">
<path style="fill:#333333;" d="M12,23C6.486,23,2,18.514,2,13C2,7.486,6.486,3,12,3c5.514,0,10,4.486,10,10
	C22,18.514,17.514,23,12,23z M12,5c-4.411,0-8,3.589-8,8s3.589,8,8,8s8-3.589,8-8S16.411,5,12,5z"/>
<path style="fill:#333333;" d="M11.031,4.246C11.027,4.233,10.551,3,9,3V1c2.479,0,3.745,1.858,3.97,2.757L11.031,4.246z"/>
<path style="fill:#333333;" d="M12.996,4.083l-1.993-0.167c0.018-0.208,0.208-2.046,1.5-2.785l0.992,1.736
	C13.261,3.002,13.034,3.632,12.996,4.083z"/>
<path style="fill:#333333;" d="M14.61,17.956C14.579,17.896,13.822,16.5,12,16.5s-2.579,1.396-2.61,1.456l-1.784-0.903
	C7.658,16.948,8.917,14.5,12,14.5c3.083,0,4.343,2.448,4.395,2.553L14.61,17.956z"/>
<rect x="14.5" y="8.229" transform="matrix(0.1644 -0.9864 0.9864 0.1644 3.3345 23.4362)" style="fill:#333333;" width="2" height="3.041"/>
<rect x="6.979" y="8.75" transform="matrix(0.9864 -0.1646 0.1646 0.9864 -1.4886 1.5317)" style="fill:#333333;" width="3.041" height="2"/>
<rect x="6.5" y="10" style="fill:#333333;" width="2" height="2.5"/>
<rect x="15.5" y="10" style="fill:#333333;" width="2" height="2.5"/>
<rect x="1" y="12" style="fill:#333333;" width="2" height="2"/>
<rect x="21" y="12" style="fill:#333333;" width="2" height="2"/>
</svg>






