<?xml version="1.0" encoding="iso-8859-1"?>
<svg version="1.1" id="&#x56FE;&#x5C42;_1" xmlns="http://www.w3.org/2000/svg" xmlns:xlink="http://www.w3.org/1999/xlink" x="0px"
	 y="0px" viewBox="0 0 24 24" style="enable-background:new 0 0 24 24;" xml:space="preserve">
<path style="fill:#333333;" d="M12,23.154l-9.66-5.577V6.423L12,0.845l9.66,5.578v11.154L12,23.154z M4.34,16.423L12,20.846
	l7.66-4.423V7.577L12,3.155L4.34,7.577V16.423z"/>
<polygon style="fill:#333333;" points="16.696,15.866 12,13.154 7.304,15.866 6.304,14.134 11,11.423 11,5.5 13,5.5 13,11.423 
	17.696,14.134 "/>
<polygon style="fill:#333333;" points="12,19.654 10.093,18.554 11.093,16.821 12,17.346 12.907,16.821 13.907,18.554 "/>
<polygon style="fill:#333333;" points="18.629,10.375 16.629,10.375 16.629,9.327 15.722,8.804 16.722,7.071 18.629,8.173 "/>
<polygon style="fill:#333333;" points="7.371,10.375 5.371,10.375 5.371,8.173 7.278,7.071 8.278,8.804 7.371,9.327 "/>
</svg>






