<?xml version="1.0" encoding="iso-8859-1"?>
<svg version="1.1" id="&#x56FE;&#x5C42;_1" xmlns="http://www.w3.org/2000/svg" xmlns:xlink="http://www.w3.org/1999/xlink" x="0px"
	 y="0px" viewBox="0 0 24 24" style="enable-background:new 0 0 24 24;" xml:space="preserve">
<path style="fill:#333333;" d="M12,23.16l-9.5-5.588V6.428L12,0.84l9.5,5.588v11.144L12,23.16z M4.5,16.428L12,20.84l7.5-4.412
	V7.572L12,3.16L4.5,7.572V16.428z"/>
<rect x="11" y="2" style="fill:#333333;" width="2" height="10"/>
<rect x="15.25" y="9.569" transform="matrix(0.507 -0.8619 0.8619 0.507 -4.4872 21.1547)" style="fill:#333333;" width="2" height="9.861"/>
<rect x="2.819" y="13.5" transform="matrix(0.8621 -0.5067 0.5067 0.8621 -6.2789 5.9265)" style="fill:#333333;" width="9.861" height="2"/>
<rect x="11" y="17" style="fill:#333333;" width="2" height="5"/>
<rect x="16.142" y="7.25" transform="matrix(0.8479 -0.5301 0.5301 0.8479 -1.56 11.0621)" style="fill:#333333;" width="4.717" height="2.001"/>
<rect x="4.5" y="5.892" transform="matrix(0.53 -0.848 0.848 0.53 -4.411 8.5415)" style="fill:#333333;" width="2" height="4.717"/>
</svg>






