<?xml version="1.0" encoding="iso-8859-1"?>
<svg version="1.1" id="&#x56FE;&#x5C42;_1" xmlns="http://www.w3.org/2000/svg" xmlns:xlink="http://www.w3.org/1999/xlink" x="0px"
	 y="0px" viewBox="0 0 24 24" style="enable-background:new 0 0 24 24;" xml:space="preserve">
<rect x="8.993" y="16.75" transform="matrix(0.3329 -0.9429 0.9429 0.3329 -7.732 24.5701)" style="fill:#333333;" width="9.014" height="2.001"/>
<rect x="9.5" y="13.243" transform="matrix(0.943 -0.3328 0.3328 0.943 -5.3089 4.5066)" style="fill:#333333;" width="2" height="9.014"/>
<rect x="9" y="12.5" style="fill:#333333;" width="6" height="2"/>
<rect x="16.75" y="11.99" transform="matrix(0.5369 -0.8437 0.8437 0.5369 -4.6454 22.0376)" style="fill:#333333;" width="2" height="6.519"/>
<rect x="13.493" y="9.25" transform="matrix(0.6455 -0.7637 0.7637 0.6455 -1.5366 17.1892)" style="fill:#333333;" width="8.515" height="2"/>
<rect x="11.934" y="6.75" transform="matrix(0.9848 -0.1738 0.1738 0.9848 -1.0997 2.9424)" style="fill:#333333;" width="8.631" height="2"/>
<rect x="12.5" y="8.085" transform="matrix(0.8575 -0.5145 0.5145 0.8575 -3.7356 8.5133)" style="fill:#333333;" width="2" height="5.831"/>
<rect x="11" y="2" style="fill:#333333;" width="2" height="6.5"/>
<rect x="6.75" y="3.434" transform="matrix(0.1738 -0.9848 0.9848 0.1738 -1.2289 14.0352)" style="fill:#333333;" width="2" height="8.631"/>
<rect x="7.585" y="10" transform="matrix(0.5146 -0.8574 0.8574 0.5146 -4.3352 14.3417)" style="fill:#333333;" width="5.831" height="2"/>
<rect x="5.25" y="5.993" transform="matrix(0.7634 -0.646 0.646 0.7634 -5.1422 6.4629)" style="fill:#333333;" width="1.999" height="8.515"/>
<rect x="2.99" y="14.25" transform="matrix(0.8436 -0.537 0.537 0.8436 -7.2117 5.7417)" style="fill:#333333;" width="6.519" height="2"/>
<path style="fill:#333333;" d="M12,23.154l-9.66-5.577V6.423L12,0.845l9.66,5.578v11.154L12,23.154z M4.34,16.423L12,20.846
	l7.66-4.423V7.577L12,3.155L4.34,7.577V16.423z"/>
</svg>






