<?xml version="1.0" encoding="iso-8859-1"?>
<svg version="1.1" id="&#x56FE;&#x5C42;_1" xmlns="http://www.w3.org/2000/svg" xmlns:xlink="http://www.w3.org/1999/xlink" x="0px"
	 y="0px" viewBox="0 0 24 24" style="enable-background:new 0 0 24 24;" xml:space="preserve">
<path style="fill:#333333;" d="M14.5,17C7.104,17,6,14.181,6,12.5V4h17v8.5C23,14.181,21.896,17,14.5,17z M8,6v6.5
	c0,1.565,2.43,2.5,6.5,2.5s6.5-0.935,6.5-2.5V6H8z"/>
<path style="fill:#333333;" d="M13,13.414l-2.5-2.5V7h5v3.914L13,13.414z M12.5,10.086l0.5,0.5l0.5-0.5V9h-1V10.086z"/>
<rect x="12" y="5" style="fill:#333333;" width="2" height="3"/>
<rect x="7.5" y="19" style="fill:#333333;" width="14" height="2"/>
<path style="fill:#333333;" d="M5.741,13.087c-1.355,0-3.196-0.288-3.69-1.771c-0.513-1.541-1.01-4.015-1.031-4.12L0.78,6H7v2H3.238
	c0.187,0.824,0.451,1.905,0.71,2.684C4.05,10.991,5.48,11.203,6.86,11.01l0.282,1.98C6.91,13.023,6.379,13.087,5.741,13.087z"/>
</svg>






