<?xml version="1.0" encoding="iso-8859-1"?>
<svg version="1.1" id="&#x56FE;&#x5C42;_1" xmlns="http://www.w3.org/2000/svg" xmlns:xlink="http://www.w3.org/1999/xlink" x="0px"
	 y="0px" viewBox="0 0 24 24" style="enable-background:new 0 0 24 24;" xml:space="preserve">
<path style="fill:#333333;" d="M18,22.5H6c-1.103,0-2-0.897-2-2v-8.035C2.732,12.354,1,11.896,1,10c0-2.5,3.011-2.5,4-2.5h14
	c0.989,0,4,0,4,2.5c0,1.896-1.731,2.354-3,2.465V20.5C20,21.603,19.103,22.5,18,22.5z M5,9.5c-0.495,0-2,0-2,0.5s1.505,0.5,2,0.5h1
	v10h12v-10h1c0.495,0,2,0,2-0.5s-1.505-0.5-2-0.5H5z"/>
<path style="fill:#333333;" d="M21.5,8.5h-2c0-1.878-1.432-2.766-5.674-3.515L13,4.839V3h-2v1.839l-0.826,0.146
	C5.932,5.734,4.5,6.622,4.5,8.5h-2c0-3.792,3.755-4.816,6.5-5.335V3c0-1.103,0.897-2,2-2h2c1.103,0,2,0.897,2,2v0.165
	C17.744,3.684,21.5,4.708,21.5,8.5z"/>
</svg>






