<?xml version="1.0" encoding="iso-8859-1"?>
<svg version="1.1" id="&#x56FE;&#x5C42;_1" xmlns="http://www.w3.org/2000/svg" xmlns:xlink="http://www.w3.org/1999/xlink" x="0px"
	 y="0px" viewBox="0 0 24 24" style="enable-background:new 0 0 24 24;" xml:space="preserve">
<path style="fill:#333333;" d="M19,22H5c-2.206,0-4-1.794-4-4v-4c0-2.206,1.794-4,4-4h14c2.206,0,4,1.794,4,4v4
	C23,20.206,21.206,22,19,22z M5,12c-1.103,0-2,0.897-2,2v4c0,1.103,0.897,2,2,2h14c1.103,0,2-0.897,2-2v-4c0-1.103-0.897-2-2-2H5z"
	/>
<rect x="2" y="15" style="fill:#333333;" width="20" height="2"/>
<path style="fill:#333333;" d="M11,12H5l-0.916-1.401l3.24-7.4C7.631,2.475,8.352,2,9.155,2h8.595c1.517,0,2.75,1.233,2.75,2.75
	S19.267,7.5,17.75,7.5H12V11L11,12z M6.529,10H10V6.5l1-1h6.75c0.413,0,0.75-0.336,0.75-0.75S18.163,4,17.75,4H9.155L6.529,10z"/>
</svg>






