<?xml version="1.0" encoding="iso-8859-1"?>
<svg version="1.1" id="&#x56FE;&#x5C42;_1" xmlns="http://www.w3.org/2000/svg" xmlns:xlink="http://www.w3.org/1999/xlink" x="0px"
	 y="0px" viewBox="0 0 24 24" style="enable-background:new 0 0 24 24;" xml:space="preserve">
<path style="fill-rule:evenodd;clip-rule:evenodd;fill:#333333;" d="M4.304,18.493c-1.644-1.804-2.644-4.186-2.644-6.798
	c0-5.632,4.648-10.198,10.382-10.198c5.734,0,10.382,4.566,10.382,10.198c0,3.982-2.325,7.43-5.713,9.109
	c-2.073,1.081-4.438,1.693-6.949,1.693c-3.076,0-5.934-0.919-8.304-2.493C1.458,20.004,3.048,19.831,4.304,18.493L4.304,18.493z
	 M16.92,16.743c2.686-2.686,2.686-7.041,0-9.727c-1.245-1.245-2.85-1.913-4.48-2.003v0c-0.049-1.223,0.609-2.049,0.612-2.053
	l-0.001,0l0-0.001C11.178,3.32,9.389,4.227,7.938,5.678C6.825,6.791,6.033,8.102,5.561,9.498C5.63,9.315,5.707,9.135,5.792,8.957
	c-0.098,0.25-0.186,0.505-0.266,0.766c-0.787,2.388-0.231,5.121,1.668,7.02C9.879,19.429,14.234,19.429,16.92,16.743z"/>
<path style="fill-rule:evenodd;clip-rule:evenodd;fill:#333333;" d="M8.565,11.172v0.854v0.569c0,0.568,0.46,1.029,1.029,1.029
	c0.568,0,1.029-0.46,1.029-1.029v-0.57v-0.854c0-0.568-0.46-1.029-1.029-1.029C9.025,10.144,8.565,10.604,8.565,11.172z"/>
<path style="fill-rule:evenodd;clip-rule:evenodd;fill:#333333;" d="M13.656,11.172v0.854v0.569c0,0.568,0.461,1.029,1.029,1.029
	c0.568,0,1.029-0.46,1.029-1.029v-0.57v-0.854c0-0.568-0.461-1.029-1.029-1.029C14.117,10.144,13.656,10.604,13.656,11.172z"/>
</svg>






