<?xml version="1.0" encoding="iso-8859-1"?>
<svg version="1.1" id="&#x56FE;&#x5C42;_1" xmlns="http://www.w3.org/2000/svg" xmlns:xlink="http://www.w3.org/1999/xlink" x="0px"
	 y="0px" viewBox="0 0 24 24" style="enable-background:new 0 0 24 24;" xml:space="preserve">
<path style="fill:#333333;" d="M4,10H2c0-4.58,2.42-7,7-7v2C5.542,5,4,6.542,4,10z"/>
<path style="fill:#333333;" d="M14,22v-2c3.458,0,5-1.542,5-5h2C21,19.579,18.579,22,14,22z"/>
<path style="fill:#333333;" d="M22,12h-9V9c0-3.309,2.691-6,6-6h3V12z M15,10h5V5h-1c-2.206,0-4,1.794-4,4V10z"/>
<path style="fill:#333333;" d="M5,22H2v-9h9v3C11,19.309,8.309,22,5,22z M4,20h1c2.206,0,4-1.794,4-4v-1H4V20z"/>
</svg>






