<?xml version="1.0" encoding="iso-8859-1"?>
<svg version="1.1" id="&#x56FE;&#x5C42;_1" xmlns="http://www.w3.org/2000/svg" xmlns:xlink="http://www.w3.org/1999/xlink" x="0px"
	 y="0px" viewBox="0 0 24 24" style="enable-background:new 0 0 24 24;" xml:space="preserve">
<path style="fill:#333333;" d="M17.5,18h-2v-2h2c1.93,0,3.5-1.57,3.5-3.5S19.43,9,17.5,9c-0.936,0-1.814,0.365-2.476,1.026
	c-0.604,0.604-1.778,2.377-2.181,3.01c-0.16,0.252-1.592,2.495-2.466,3.364C9.339,17.432,7.962,18,6.5,18C3.467,18,1,15.532,1,12.5
	C1,9.467,3.467,7,6.5,7h2v2h-2C4.57,9,3,10.57,3,12.5S4.57,16,6.5,16c0.931,0,1.807-0.361,2.468-1.018
	c0.606-0.604,1.785-2.383,2.188-3.018c0.16-0.252,1.587-2.484,2.453-3.351C14.647,7.573,16.029,7,17.5,7c3.032,0,5.5,2.467,5.5,5.5
	C23,15.532,20.532,18,17.5,18z"/>
<polygon style="fill:#333333;" points="16.793,19.707 14.086,17 16.793,14.293 18.207,15.707 16.914,17 18.207,18.293 "/>
<polygon style="fill:#333333;" points="7.207,10.707 5.793,9.293 7.086,8 5.793,6.707 7.207,5.293 9.914,8 "/>
</svg>






