<?xml version="1.0" encoding="iso-8859-1"?>
<svg version="1.1" id="&#x56FE;&#x5C42;_1" xmlns="http://www.w3.org/2000/svg" xmlns:xlink="http://www.w3.org/1999/xlink" x="0px"
	 y="0px" viewBox="0 0 24 24" style="enable-background:new 0 0 24 24;" xml:space="preserve">
<polygon style="fill:#333333;" points="12,10.914 9.293,8.207 10.707,6.793 12,8.086 13.293,6.793 14.707,8.207 "/>
<path style="fill:#333333;" d="M23,9.5h-2V4c0-0.551-0.448-1-1-1h-6c-0.552,0-1,0.449-1,1v5.5h-2V4c0-1.654,1.346-3,3-3h6
	c1.654,0,3,1.346,3,3V9.5z"/>
<polygon style="fill:#333333;" points="13.293,17.207 12,15.914 10.707,17.207 9.293,15.793 12,13.086 14.707,15.793 "/>
<path style="fill:#333333;" d="M10,23H4c-1.654,0-3-1.346-3-3v-5.5h2V20c0,0.552,0.449,1,1,1h6c0.551,0,1-0.448,1-1v-5.5h2V20
	C13,21.654,11.654,23,10,23z"/>
<polygon style="fill:#333333;" points="15.793,14.707 13.086,12 15.793,9.293 17.207,10.707 15.914,12 17.207,13.293 "/>
<path style="fill:#333333;" d="M20,23h-5.5v-2H20c0.552,0,1-0.448,1-1v-6c0-0.552-0.448-1-1-1h-5.5v-2H20c1.654,0,3,1.346,3,3v6
	C23,21.654,21.654,23,20,23z"/>
<polygon style="fill:#333333;" points="8.207,14.707 6.793,13.293 8.086,12 6.793,10.707 8.207,9.293 10.914,12 "/>
<path style="fill:#333333;" d="M9.5,13H4c-1.654,0-3-1.346-3-3V4c0-1.654,1.346-3,3-3h5.5v2H4C3.449,3,3,3.449,3,4v6
	c0,0.551,0.449,1,1,1h5.5V13z"/>
</svg>






