<?xml version="1.0" encoding="iso-8859-1"?>
<svg version="1.1" id="&#x56FE;&#x5C42;_1" xmlns="http://www.w3.org/2000/svg" xmlns:xlink="http://www.w3.org/1999/xlink" x="0px"
	 y="0px" viewBox="0 0 24 24" style="enable-background:new 0 0 24 24;" xml:space="preserve">
<polygon style="fill:#333333;" points="4.5,20.5 2.5,20.5 2.5,16.5 6.5,16.5 6.5,18.5 4.5,18.5 "/>
<polygon style="fill:#333333;" points="20.5,21.5 16.5,21.5 16.5,17.5 18.5,17.5 18.5,19.5 20.5,19.5 "/>
<polygon style="fill:#333333;" points="21.5,7.5 17.5,7.5 17.5,5.5 19.5,5.5 19.5,3.5 21.5,3.5 "/>
<polygon style="fill:#333333;" points="7.5,6.5 5.5,6.5 5.5,4.5 3.5,4.5 3.5,2.5 7.5,2.5 "/>
<path style="fill:#333333;" d="M1.123,13.649C1.042,13.107,1,12.553,1,12c0-3.708,1.85-7.143,4.949-9.188l1.102,1.669
	C4.514,6.155,3,8.966,3,12c0,0.453,0.034,0.908,0.101,1.351L1.123,13.649z"/>
<path style="fill:#333333;" d="M12,23c-3.708,0-7.143-1.851-9.188-4.949l1.669-1.102C6.155,19.485,8.966,21,12,21
	c0.452,0,0.907-0.034,1.352-0.101l0.297,1.979C13.105,22.959,12.551,23,12,23z"/>
<path style="fill:#333333;" d="M18.051,21.188l-1.102-1.67C19.485,17.845,21,15.034,21,12c0-0.453-0.034-0.907-0.101-1.352
	l1.979-0.296C22.959,10.894,23,11.449,23,12C23,15.709,21.149,19.144,18.051,21.188z"/>
<path style="fill:#333333;" d="M19.518,7.051C17.845,4.514,15.034,3,12,3c-0.453,0-0.908,0.034-1.351,0.101l-0.298-1.978
	C10.893,1.042,11.447,1,12,1c3.709,0,7.144,1.85,9.188,4.949L19.518,7.051z"/>
</svg>






