<?xml version="1.0" encoding="iso-8859-1"?>
<svg version="1.1" id="&#x56FE;&#x5C42;_1" xmlns="http://www.w3.org/2000/svg" xmlns:xlink="http://www.w3.org/1999/xlink" x="0px"
	 y="0px" viewBox="0 0 24 24" style="enable-background:new 0 0 24 24;" xml:space="preserve">
<path style="fill:#333333;" d="M12,9C6.702,9,1,7.748,1,5s5.702-4,11-4s11,1.252,11,4S17.298,9,12,9z M12,3
	C6.15,3,3.151,4.46,2.999,5.015C3.151,5.54,6.15,7,12,7c5.797,0,8.795-1.434,8.997-2C20.795,4.434,17.797,3,12,3z"/>
<path style="fill:#333333;" d="M12,23c-5.298,0-11-1.252-11-4s5.702-4,11-4s11,1.252,11,4S17.298,23,12,23z M12,17
	c-5.851,0-8.849,1.46-9.001,2.015C3.151,19.54,6.149,21,12,21c5.799,0,8.796-1.435,8.997-2C20.796,18.435,17.799,17,12,17z"/>
<rect x="21" y="5" style="fill:#333333;" width="2" height="14"/>
<rect x="1" y="5" style="fill:#333333;" width="2" height="14"/>
</svg>






