<?xml version="1.0" encoding="iso-8859-1"?>
<svg version="1.1" id="&#x56FE;&#x5C42;_1" xmlns="http://www.w3.org/2000/svg" xmlns:xlink="http://www.w3.org/1999/xlink" x="0px"
	 y="0px" viewBox="0 0 24 24" style="enable-background:new 0 0 24 24;" xml:space="preserve">
<path style="fill:#333333;" d="M10.309,21H3.5c-1.103,0-2-0.897-2-2V5c0-1.103,0.897-2,2-2H15l0.857,1.515l-1.175,1.957l1.277,1.916
	l-4.368,2.185l0.521,3.649L8.725,15.19L10.309,21z M3.5,5v14h4.191l-1.416-5.19l3.611-1.031L9.408,9.428l3.632-1.815l-0.723-1.084
	L13.233,5H3.5z"/>
<path style="fill:#333333;" d="M20.5,21h-9.254l-1.482-5.187l3.638-1.04l-0.485-3.886l4.145-1.842l-1.243-2.074L18.465,3H20.5
	c1.103,0,2,0.897,2,2v14C22.5,20.103,21.603,21,20.5,21z M12.754,19H20.5V5h-0.965l-1.353,2.028l1.757,2.926l-4.855,2.158
	l0.515,4.114l-3.362,0.96L12.754,19z"/>
<path style="fill:#333333;" d="M7.25,10C6.285,10,5.5,9.215,5.5,8.25S6.285,6.5,7.25,6.5S9,7.285,9,8.25S8.215,10,7.25,10z M7.25,8
	C7.112,8,7,8.112,7,8.25c0,0.275,0.5,0.275,0.5,0C7.5,8.112,7.388,8,7.25,8z"/>
</svg>






