<?xml version="1.0" encoding="iso-8859-1"?>
<svg version="1.1" id="&#x56FE;&#x5C42;_1" xmlns="http://www.w3.org/2000/svg" xmlns:xlink="http://www.w3.org/1999/xlink" x="0px"
	 y="0px" viewBox="0 0 24 24" style="enable-background:new 0 0 24 24;" xml:space="preserve">
<path style="fill:#333333;" d="M12.003,23.414L8.95,20.365H3.635v-5.314l-3.049-3.053l3.049-3.049V3.635h5.314l3.054-3.049
	l3.048,3.049h5.314v5.314l3.049,3.049l-3.049,3.053v5.314h-5.314L12.003,23.414z M5.635,18.365h4.142l2.224,2.221l2.222-2.221h4.143
	v-4.143l2.221-2.224l-2.221-2.222V5.635h-4.143l-2.222-2.221L9.777,5.635H5.635v4.142l-2.221,2.222l2.221,2.224V18.365z"/>
<path style="fill:#333333;" d="M12.04,16.831c-0.767,0-1.533-0.181-2.251-0.546C8.398,15.577,7.5,14.287,7.5,13v-1h1
	c2.594,0,4-0.558,4-3.5v-1h1c1.32,0,2.582,1.155,3.142,2.875c0.688,2.114,0.078,4.247-1.554,5.433
	C14.156,16.486,13.098,16.831,12.04,16.831z M9.94,13.938c0.2,0.217,0.459,0.414,0.756,0.564c0.493,0.253,1.793,0.725,3.216-0.311
	c1.113-0.81,1.157-2.183,0.827-3.198c-0.104-0.323-0.244-0.604-0.396-0.831C13.751,13.026,11.599,13.753,9.94,13.938z"/>
</svg>






