<?xml version="1.0" encoding="iso-8859-1"?>
<svg version="1.1" id="&#x56FE;&#x5C42;_1" xmlns="http://www.w3.org/2000/svg" xmlns:xlink="http://www.w3.org/1999/xlink" x="0px"
	 y="0px" viewBox="0 0 24 24" style="enable-background:new 0 0 24 24;" xml:space="preserve">
<path style="fill:#333333;" d="M20.485,21.485l-1.414-1.414C20.96,18.182,22,15.67,22,13c0-5.514-4.486-10-10-10
	C6.486,3,2,7.486,2,13c0,2.67,1.04,5.182,2.929,7.071l-1.415,1.414C1.248,19.218,0,16.204,0,13C0,6.383,5.383,1,12,1
	c6.617,0,12,5.383,12,12C24,16.204,22.752,19.218,20.485,21.485z"/>
<path style="fill:#333333;" d="M6.343,18.657C4.832,17.145,4,15.136,4,13c0-4.411,3.589-8,8-8v2c-3.309,0-6,2.691-6,6
	c0,1.602,0.624,3.109,1.758,4.243L6.343,18.657z"/>
<rect x="11" y="9" style="fill:#333333;" width="2" height="4"/>
</svg>






