<?xml version="1.0" encoding="iso-8859-1"?>
<svg version="1.1" id="&#x56FE;&#x5C42;_1" xmlns="http://www.w3.org/2000/svg" xmlns:xlink="http://www.w3.org/1999/xlink" x="0px"
	 y="0px" viewBox="0 0 24 24" style="enable-background:new 0 0 24 24;" xml:space="preserve">
<path style="fill:#333333;" d="M12,23C5.935,23,1,18.065,1,12c0-2.935,1.142-5.695,3.215-7.771C6.294,2.146,9.059,1,12,1
	c2.942,0,5.707,1.146,7.785,3.229C21.858,6.306,23,9.066,23,12C23,18.065,18.065,23,12,23z M12,3C9.593,3,7.331,3.938,5.63,5.642
	C3.934,7.341,3,9.599,3,12c0,4.963,4.038,9,9,9c4.963,0,9-4.037,9-9c0-2.401-0.935-4.659-2.631-6.358C16.669,3.938,14.407,3,12,3z"
	/>
<rect x="2" y="11" style="fill:#333333;" width="2" height="2"/>
<rect x="4.705" y="4.611" transform="matrix(0.7071 -0.7071 0.7071 0.7071 -2.372 5.7086)" style="fill:#333333;" width="2" height="2.213"/>
<rect x="11" y="2" style="fill:#333333;" width="2" height="2"/>
<rect x="20" y="11" style="fill:#333333;" width="2" height="2"/>
<rect x="17.189" y="4.718" transform="matrix(0.7071 -0.7071 0.7071 0.7071 1.3156 14.6111)" style="fill:#333333;" width="2.213" height="2"/>
<rect x="11" y="10" style="fill:#333333;" width="2" height="6"/>
<path style="fill:#333333;" d="M12,23c-3.439,0-6.617-1.564-8.718-4.292l-0.701-0.909l0.997-0.569
	c5.107-2.919,11.741-2.917,16.844,0l0.996,0.569l-0.7,0.909C18.616,21.436,15.439,23,12,23z M5.668,18.398
	C7.345,20.064,9.595,21,12,21s4.655-0.936,6.331-2.603C14.391,16.563,9.613,16.562,5.668,18.398z"/>
</svg>






