<?xml version="1.0" encoding="iso-8859-1"?>
<svg version="1.1" id="&#x56FE;&#x5C42;_1" xmlns="http://www.w3.org/2000/svg" xmlns:xlink="http://www.w3.org/1999/xlink" x="0px"
	 y="0px" viewBox="0 0 24 24" style="enable-background:new 0 0 24 24;" xml:space="preserve">
<path style="fill:#333333;" d="M21.506,19.325l-1.584-1.223C21.281,16.342,22,14.231,22,12c0-5.514-4.486-10-10-10
	C6.486,2,2,6.486,2,12c0,2.231,0.718,4.342,2.078,6.103l-1.583,1.223C0.863,17.211,0,14.678,0,12C0,5.383,5.383,0,12,0
	c6.617,0,12,5.383,12,12C24,14.678,23.138,17.211,21.506,19.325z"/>
<path style="fill:#333333;" d="M5.317,16.399C4.456,15.092,4,13.57,4,12c0-4.411,3.589-8,8-8s8,3.589,8,8
	c0,1.57-0.455,3.092-1.316,4.398l-1.67-1.1C17.659,14.318,18,13.178,18,12c0-3.309-2.691-6-6-6s-6,2.691-6,6
	c0,1.179,0.341,2.319,0.987,3.298L5.317,16.399z"/>
<path style="fill:#333333;" d="M20,24H4l-0.707-1.707L12,13.586l8.707,8.707L20,24z M6.414,22h11.172L12,16.414L6.414,22z"/>
</svg>






