<?xml version="1.0" encoding="iso-8859-1"?>
<svg version="1.1" id="&#x56FE;&#x5C42;_1" xmlns="http://www.w3.org/2000/svg" xmlns:xlink="http://www.w3.org/1999/xlink" x="0px"
	 y="0px" viewBox="0 0 24 24" style="enable-background:new 0 0 24 24;" xml:space="preserve">
<path style="fill:#333333;" d="M19.912,21.306H4.36L4.069,20.99c-1.721-1.865-2.708-4.606-2.708-7.521
	c0-5.942,4.833-10.776,10.775-10.776S22.911,7.528,22.911,13.47c0,2.913-0.987,5.654-2.708,7.521L19.912,21.306z M5.235,19.347
	h13.802c1.222-1.498,1.915-3.614,1.915-5.877c0-4.862-3.955-8.817-8.816-8.817c-4.861,0-8.816,3.955-8.816,8.817
	C3.32,15.733,4.014,17.849,5.235,19.347z"/>
<path style="fill:#333333;" d="M12.136,17.878c-1.62,0-2.938-1.318-2.938-2.939c0-1.62,1.318-2.938,2.938-2.938
	c1.621,0,2.939,1.318,2.939,2.938C15.075,16.56,13.757,17.878,12.136,17.878z M12.136,13.959c-0.54,0-0.979,0.439-0.979,0.979
	c0,0.541,0.439,0.98,0.979,0.98c0.541,0,0.98-0.439,0.98-0.98C13.116,14.398,12.677,13.959,12.136,13.959z"/>
<rect x="11.156" y="10.041" style="fill:#333333;" width="1.959" height="2.938"/>
<rect x="11.156" y="6.123" style="fill:#333333;" width="1.959" height="0.979"/>
<rect x="4.789" y="12.979" style="fill:#333333;" width="0.979" height="1.959"/>
<rect x="6.115" y="8.918" transform="matrix(0.7074 -0.7069 0.7069 0.7074 -4.5735 7.768)" style="fill:#333333;" width="1.959" height="0.98"/>
<rect x="18.503" y="12.979" style="fill:#333333;" width="0.98" height="1.959"/>
<rect x="16.891" y="8.428" transform="matrix(0.7066 -0.7076 0.7076 0.7066 -1.5575 15.0585)" style="fill:#333333;" width="0.98" height="1.96"/>
</svg>






