<?xml version="1.0" encoding="iso-8859-1"?>
<svg version="1.1" id="&#x56FE;&#x5C42;_1" xmlns="http://www.w3.org/2000/svg" xmlns:xlink="http://www.w3.org/1999/xlink" x="0px"
	 y="0px" viewBox="0 0 24 24" style="enable-background:new 0 0 24 24;" xml:space="preserve">
<path style="fill:#333333;" d="M6.5,13C3.767,13,1,11.97,1,10V4h2v6c0.088,0.26,1.303,1,3.5,1s3.412-0.74,3.502-1.021L10,4h2v6
	C12,11.97,9.233,13,6.5,13z"/>
<path style="fill:#333333;" d="M6.5,10C3.767,10,1,8.97,1,7h2c0.088,0.26,1.303,1,3.5,1s3.412-0.74,3.502-1.021L12,7
	C12,8.97,9.233,10,6.5,10z"/>
<path style="fill:#333333;" d="M6.5,7C3.767,7,1,5.97,1,4c0-3.939,11-3.939,11,0C12,5.97,9.233,7,6.5,7z M6.5,3
	C4.303,3,3.088,3.74,2.998,4.021C3.088,4.26,4.303,5,6.5,5c2.145,0,3.354-0.705,3.494-1C9.854,3.705,8.645,3,6.5,3z"/>
<path style="fill:#333333;" d="M17.5,23c-2.733,0-5.5-1.03-5.5-3v-6h2v6c0.089,0.261,1.304,1,3.5,1s3.411-0.739,3.503-1.021L21,14h2
	v6C23,21.97,20.233,23,17.5,23z"/>
<path style="fill:#333333;" d="M17.5,20c-2.733,0-5.5-1.03-5.5-3h2c0.089,0.261,1.304,1,3.5,1s3.411-0.739,3.503-1.021L23,17
	C23,18.97,20.233,20,17.5,20z"/>
<path style="fill:#333333;" d="M17.5,17c-2.733,0-5.5-1.03-5.5-3c0-3.939,11-3.939,11,0C23,15.97,20.233,17,17.5,17z M17.5,13
	c-2.196,0-3.411,0.739-3.503,1.021C14.089,14.261,15.304,15,17.5,15c2.145,0,3.354-0.705,3.494-1C20.854,13.705,19.645,13,17.5,13z"
	/>
<path style="fill:#333333;" d="M22,8h-2V5c0-0.551-0.448-1-1-1h-3V2h3c1.654,0,3,1.346,3,3V8z"/>
<path style="fill:#333333;" d="M8,22H5c-1.654,0-3-1.346-3-3v-3h2v3c0,0.552,0.449,1,1,1h3V22z"/>
</svg>






