<?xml version="1.0" encoding="iso-8859-1"?>
<svg version="1.1" id="&#x56FE;&#x5C42;_1" xmlns="http://www.w3.org/2000/svg" xmlns:xlink="http://www.w3.org/1999/xlink" x="0px"
	 y="0px" viewBox="0 0 24 24" style="enable-background:new 0 0 24 24;" xml:space="preserve">
<path style="fill:#333333;" d="M6.5,13C3.767,13,1,11.97,1,10V4h2v6c0.088,0.26,1.303,1,3.5,1s3.412-0.74,3.502-1.021L10,4h2v6
	C12,11.97,9.233,13,6.5,13z"/>
<path style="fill:#333333;" d="M6.5,10C3.767,10,1,8.97,1,7h2c0.088,0.26,1.303,1,3.5,1s3.412-0.74,3.502-1.021L12,7
	C12,8.97,9.233,10,6.5,10z"/>
<path style="fill:#333333;" d="M6.5,7C3.767,7,1,5.97,1,4c0-3.939,11-3.939,11,0C12,5.97,9.233,7,6.5,7z M6.5,3
	C4.303,3,3.088,3.74,2.998,4.021C3.088,4.26,4.303,5,6.5,5c2.145,0,3.354-0.705,3.494-1C9.854,3.705,8.645,3,6.5,3z"/>
<path style="fill:#333333;" d="M22,8h-2V5c0-0.551-0.448-1-1-1h-3V2h3c1.654,0,3,1.346,3,3V8z"/>
<path style="fill:#333333;" d="M8,22H5c-1.654,0-3-1.346-3-3v-3h2v3c0,0.552,0.449,1,1,1h3V22z"/>
<rect x="16.5" y="19" style="fill:#333333;" width="2" height="3"/>
<rect x="14.5" y="21" style="fill:#333333;" width="6" height="2"/>
<path style="fill:#333333;" d="M23,20H12v-8h11V20z M14,18h7v-4h-7V18z"/>
</svg>






