<?xml version="1.0" encoding="iso-8859-1"?>
<svg version="1.1" id="&#x56FE;&#x5C42;_1" xmlns="http://www.w3.org/2000/svg" xmlns:xlink="http://www.w3.org/1999/xlink" x="0px"
	 y="0px" viewBox="0 0 24 24" style="enable-background:new 0 0 24 24;" xml:space="preserve">
<path style="fill:#333333;" d="M17,21.5c-1.037,0-2.06-0.269-2.956-0.777c-1.576-0.895-2.654-2.427-2.958-4.205
	C11.029,16.188,11,15.844,11,15.5c0-1.482,0.545-2.906,1.535-4.008C13.672,10.226,15.3,9.5,17,9.5c3.309,0,6,2.691,6,6
	S20.309,21.5,17,21.5z M17,11.5c-1.134,0-2.219,0.484-2.977,1.328C13.363,13.562,13,14.512,13,15.5c0,0.229,0.02,0.458,0.058,0.679
	c0.203,1.187,0.922,2.207,1.973,2.804C15.627,19.321,16.309,19.5,17,19.5c2.206,0,4-1.794,4-4S19.206,11.5,17,11.5z"/>
<path style="fill:#333333;" d="M9.5,21.5C5.406,21.5,1,20.404,1,18V6h2v12c0.163,0.399,2.344,1.5,6.5,1.5
	c0.997,0,1.968-0.068,2.855-0.197c-0.65-0.792-1.091-1.747-1.269-2.785C11.029,16.188,11,15.844,11,15.5
	c0-1.482,0.545-2.906,1.535-4.008c0.911-1.015,2.138-1.683,3.465-1.907V6h2v5.5h-1c-1.134,0-2.219,0.484-2.977,1.328
	C13.363,13.562,13,14.512,13,15.5c0,0.229,0.02,0.458,0.058,0.679c0.203,1.187,0.922,2.207,1.973,2.804l-0.204,1.827
	C13.354,21.255,11.462,21.5,9.5,21.5z"/>
<path style="fill:#333333;" d="M9.5,9.5C5.406,9.5,1,8.405,1,6s4.406-3.5,8.5-3.5S18,3.595,18,6S13.594,9.5,9.5,9.5z M9.5,4.5
	c-4.156,0-6.337,1.1-6.505,1.538C3.163,6.4,5.344,7.5,9.5,7.5c4.041,0,6.216-1.04,6.486-1.5C15.716,5.54,13.541,4.5,9.5,4.5z"/>
<path style="fill:#333333;" d="M9.5,17.5C5.406,17.5,1,16.404,1,14h2c0-0.02-0.004-0.034-0.005-0.038
	C3.163,14.399,5.344,15.5,9.5,15.5c0.838,0,1.664-0.048,2.453-0.144l0.239,1.986C11.324,17.447,10.418,17.5,9.5,17.5z"/>
<path style="fill:#333333;" d="M9.5,13.5C5.406,13.5,1,12.404,1,10h2c0-0.02-0.004-0.034-0.005-0.038
	C3.163,10.4,5.344,11.5,9.5,11.5c1.267,0,2.508-0.111,3.588-0.321l0.383,1.963C12.266,13.376,10.893,13.5,9.5,13.5z"/>
<polygon style="fill:#333333;" points="19,16.5 16,16.5 16,13.5 18,13.5 18,14.5 19,14.5 "/>
</svg>






