<?xml version="1.0" encoding="iso-8859-1"?>
<svg version="1.1" id="&#x56FE;&#x5C42;_1" xmlns="http://www.w3.org/2000/svg" xmlns:xlink="http://www.w3.org/1999/xlink" x="0px"
	 y="0px" viewBox="0 0 24 24" style="enable-background:new 0 0 24 24;" xml:space="preserve">
<rect x="11" y="15" style="fill:#333333;" width="2" height="3"/>
<rect x="3" y="19" style="fill:#333333;" width="7" height="2"/>
<rect x="14" y="19" style="fill:#333333;" width="7" height="2"/>
<path style="fill:#333333;" d="M12,23c-1.654,0-3-1.346-3-3s1.346-3,3-3s3,1.346,3,3S13.654,23,12,23z M12,19c-0.551,0-1,0.448-1,1
	s0.449,1,1,1c0.552,0,1-0.448,1-1S12.552,19,12,19z"/>
<path style="fill:#333333;" d="M12,16c-4.136,0-7.5-3.364-7.5-7.5h1h-1C4.5,4.364,7.864,1,12,1s7.5,3.364,7.5,7.5h-1h1
	C19.5,12.636,16.136,16,12,16z M6.591,9.5C7.062,12.057,9.309,14,12,14s4.938-1.943,5.409-4.5H6.591z M6.591,7.5h10.818
	C16.938,4.943,14.691,3,12,3S7.062,4.943,6.591,7.5z"/>
<path style="fill:#333333;" d="M12,16c-2.405,0-3.5-3.888-3.5-7.5S9.595,1,12,1c2.404,0,3.5,3.888,3.5,7.5S14.404,16,12,16z
	 M11.998,3C11.566,3.066,10.5,5.075,10.5,8.5s1.066,5.435,1.502,5.5c0.432-0.065,1.498-2.075,1.498-5.5S12.434,3.066,11.998,3z"/>
<rect x="5.5" y="7.5" style="fill:#333333;" width="13" height="2"/>
</svg>






