<?xml version="1.0" encoding="iso-8859-1"?>
<svg version="1.1" id="&#x56FE;&#x5C42;_1" xmlns="http://www.w3.org/2000/svg" xmlns:xlink="http://www.w3.org/1999/xlink" x="0px"
	 y="0px" viewBox="0 0 24 24" style="enable-background:new 0 0 24 24;" xml:space="preserve">
<path style="fill:#333333;" d="M12,9.5c-5.298,0-11-1.252-11-4s5.702-4,11-4s11,1.252,11,4S17.298,9.5,12,9.5z M12,3.5
	c-5.85,0-8.849,1.46-9.001,2.015C3.151,6.04,6.15,7.5,12,7.5c5.85,0,8.849-1.46,9.002-2.015C20.849,4.96,17.85,3.5,12,3.5z"/>
<path style="fill:#333333;" d="M12,14c-5.298,0-11-1.252-11-4c0-0.968,0.716-2.312,4.129-3.217l0.512,1.934
	c-2.047,0.542-2.605,1.162-2.643,1.298C3.151,10.54,6.15,12,12,12c5.85,0,8.849-1.46,9.002-2.015
	c-0.038-0.106-0.597-0.726-2.644-1.268l0.512-1.934C22.283,7.687,23,9.031,23,10C23,12.748,17.298,14,12,14z"/>
<path style="fill:#333333;" d="M12,18.5c-5.298,0-11-1.252-11-4c0-0.969,0.716-2.312,4.129-3.217l0.512,1.934
	c-2.047,0.542-2.605,1.162-2.643,1.298C3.151,15.04,6.149,16.5,12,16.5c5.851,0,8.85-1.46,9.002-2.015
	c-0.038-0.106-0.596-0.727-2.644-1.269l0.512-1.934C22.283,12.188,23,13.531,23,14.5C23,17.248,17.298,18.5,12,18.5z"/>
<path style="fill:#333333;" d="M12,23c-5.298,0-11-1.252-11-4c0-0.969,0.716-2.312,4.129-3.217l0.512,1.934
	c-2.047,0.542-2.605,1.162-2.643,1.298C3.151,19.54,6.149,21,12,21c5.851,0,8.85-1.46,9.002-2.015
	c-0.038-0.106-0.596-0.727-2.644-1.269l0.512-1.934C22.283,16.688,23,18.031,23,19C23,21.748,17.298,23,12,23z"/>
</svg>






