<?xml version="1.0" encoding="iso-8859-1"?>
<svg version="1.1" id="&#x56FE;&#x5C42;_1" xmlns="http://www.w3.org/2000/svg" xmlns:xlink="http://www.w3.org/1999/xlink" x="0px"
	 y="0px" viewBox="0 0 24 24" style="enable-background:new 0 0 24 24;" xml:space="preserve">
<rect x="11" y="15" style="fill:#333333;" width="2" height="3"/>
<rect x="3" y="19" style="fill:#333333;" width="7" height="2"/>
<rect x="14" y="19" style="fill:#333333;" width="7" height="2"/>
<path style="fill:#333333;" d="M12,23c-1.654,0-3-1.346-3-3s1.346-3,3-3s3,1.346,3,3S13.654,23,12,23z M12,19c-0.551,0-1,0.448-1,1
	s0.449,1,1,1c0.552,0,1-0.448,1-1S12.552,19,12,19z"/>
<path style="fill:#333333;" d="M12,16c-4.094,0-8.5-1.096-8.5-3.5v-8h2v8C5.663,12.899,7.844,14,12,14
	c4.156,0,6.338-1.101,6.505-1.538L18.5,4.5h2v8C20.5,14.904,16.094,16,12,16z"/>
<path style="fill:#333333;" d="M12,12c-4.094,0-8.5-1.095-8.5-3.5h2C5.663,8.9,7.844,10,12,10c4.156,0,6.338-1.1,6.505-1.538
	L20.5,8.5C20.5,10.905,16.094,12,12,12z"/>
<path style="fill:none;" d="M19.5,4.5C19.5,5.881,16.142,7,12,7S4.5,5.881,4.5,4.5C4.5,3.119,7.858,2,12,2S19.5,3.119,19.5,4.5z"/>
<path style="fill:none;" d="M19.5,4.5C19.5,5.881,16.142,7,12,7S4.5,5.881,4.5,4.5C4.5,3.119,7.858,2,12,2S19.5,3.119,19.5,4.5z"/>
<path style="fill:#333333;" d="M12,8C7.906,8,3.5,6.905,3.5,4.5S7.906,1,12,1s8.5,1.095,8.5,3.5S16.094,8,12,8z M12,3
	C7.844,3,5.663,4.1,5.495,4.538C5.663,4.9,7.844,6,12,6c4.041,0,6.216-1.04,6.486-1.5C18.216,4.04,16.041,3,12,3z"/>
<path style="fill:#333333;" d="M12,8C7.906,8,3.5,6.905,3.5,4.5S7.906,1,12,1s8.5,1.095,8.5,3.5S16.094,8,12,8z M12,3
	C7.844,3,5.663,4.1,5.495,4.538C5.663,4.9,7.844,6,12,6c4.041,0,6.216-1.04,6.486-1.5C18.216,4.04,16.041,3,12,3z"/>
</svg>






