<?xml version="1.0" encoding="iso-8859-1"?>
<svg version="1.1" id="&#x56FE;&#x5C42;_1" xmlns="http://www.w3.org/2000/svg" xmlns:xlink="http://www.w3.org/1999/xlink" x="0px"
	 y="0px" viewBox="0 0 24 24" style="enable-background:new 0 0 24 24;" xml:space="preserve">
<path style="fill:#333333;" d="M20.5,19h-17C2.122,19,1,17.879,1,16.5v-12C1,3.122,2.122,2,3.5,2h17C21.879,2,23,3.122,23,4.5v12
	C23,17.879,21.879,19,20.5,19z M3.5,4C3.224,4,3,4.224,3,4.5v12C3,16.775,3.224,17,3.5,17h17c0.275,0,0.5-0.225,0.5-0.5v-12
	C21,4.224,20.775,4,20.5,4H3.5z"/>
<rect x="11" y="18" style="fill:#333333;" width="2" height="3.5"/>
<rect x="6.685" y="9.5" transform="matrix(0.7526 -0.6584 0.6584 0.7526 -3.9452 10.4985)" style="fill:#333333;" width="10.63" height="2"/>
<rect x="5" y="20.5" style="fill:#333333;" width="14" height="2"/>
<path style="fill:#333333;" d="M7.5,11C6.122,11,5,9.878,5,8.5S6.122,6,7.5,6S10,7.122,10,8.5S8.878,11,7.5,11z M7.5,8
	C7.224,8,7,8.224,7,8.5S7.224,9,7.5,9S8,8.776,8,8.5S7.776,8,7.5,8z"/>
<path style="fill:#333333;" d="M16.5,15c-1.379,0-2.5-1.121-2.5-2.5c0-1.378,1.121-2.5,2.5-2.5s2.5,1.122,2.5,2.5
	C19,13.879,17.879,15,16.5,15z M16.5,12c-0.275,0-0.5,0.225-0.5,0.5s0.225,0.5,0.5,0.5s0.5-0.225,0.5-0.5S16.775,12,16.5,12z"/>
</svg>






