<?xml version="1.0" encoding="iso-8859-1"?>
<svg version="1.1" id="&#x56FE;&#x5C42;_1" xmlns="http://www.w3.org/2000/svg" xmlns:xlink="http://www.w3.org/1999/xlink" x="0px"
	 y="0px" viewBox="0 0 24 24" style="enable-background:new 0 0 24 24;" xml:space="preserve">
<path style="fill:#333333;" d="M19.5,22h-15C3.122,22,2,20.879,2,19.5v-14C2,4.122,3.122,3,4.5,3H18v2H4.5C4.224,5,4,5.224,4,5.5v14
	C4,19.775,4.224,20,4.5,20h15c0.275,0,0.5-0.225,0.5-0.5V9h2v10.5C22,20.879,20.879,22,19.5,22z"/>
<polygon style="fill:#333333;" points="16.828,6.95 15.414,5.536 16.828,4.122 15.414,2.707 16.828,1.293 19.656,4.122 "/>
<rect x="11" y="8.5" style="fill:#333333;" width="2" height="8.5"/>
<rect x="15" y="12" style="fill:#333333;" width="2" height="5"/>
<rect x="7" y="12" style="fill:#333333;" width="2" height="5"/>
</svg>






