<?xml version="1.0" encoding="iso-8859-1"?>
<svg version="1.1" id="&#x56FE;&#x5C42;_1" xmlns="http://www.w3.org/2000/svg" xmlns:xlink="http://www.w3.org/1999/xlink" x="0px"
	 y="0px" viewBox="0 0 24 24" style="enable-background:new 0 0 24 24;" xml:space="preserve">
<path style="fill:#333333;" d="M12,23C5.935,23,1,18.065,1,12S5.935,1,12,1s11,4.935,11,11S18.065,23,12,23z M12,3
	c-4.962,0-9,4.038-9,9c0,4.963,4.038,9,9,9c4.963,0,9-4.037,9-9C21,7.038,16.963,3,12,3z"/>
<rect x="2.5" y="11.5" style="fill:#333333;" width="19.5" height="2"/>
<path style="fill:#333333;" d="M9.5,10.5c-1.654,0-3-1.346-3-3s1.346-3,3-3s3,1.346,3,3S11.154,10.5,9.5,10.5z M9.5,6.5
	c-0.551,0-1,0.449-1,1s0.449,1,1,1s1-0.449,1-1S10.051,6.5,9.5,6.5z"/>
<rect x="15.5" y="14.5" style="fill:#333333;" width="6" height="2"/>
<rect x="17" y="7.5" style="fill:#333333;" width="4" height="2"/>
<rect x="12.5" y="17.5" style="fill:#333333;" width="7" height="2"/>
<path style="fill:#333333;" d="M16.95,21.825l-0.9-1.785C19.104,18.499,21,15.418,21,12c0-1.966-0.622-3.833-1.8-5.4l1.6-1.201
	C22.239,7.314,23,9.597,23,12C23,16.178,20.682,19.942,16.95,21.825z"/>
<path style="fill:#333333;" d="M1.347,14.749C1.117,13.855,1,12.931,1,12c0-0.741,0.074-1.48,0.22-2.199l1.96,0.398
	C3.061,10.787,3,11.393,3,12c0,0.763,0.095,1.521,0.283,2.251L1.347,14.749z"/>
</svg>






