<?xml version="1.0" encoding="iso-8859-1"?>
<svg version="1.1" id="&#x56FE;&#x5C42;_1" xmlns="http://www.w3.org/2000/svg" xmlns:xlink="http://www.w3.org/1999/xlink" x="0px"
	 y="0px" viewBox="0 0 24 24" style="enable-background:new 0 0 24 24;" xml:space="preserve">
<path style="fill:#333333;" d="M10.028,22H2.472C1.661,22,1,21.32,1,20.485V3.514C1,2.679,1.661,2,2.472,2h7.556
	C10.839,2,11.5,2.679,11.5,3.514v2.989h-2V4H3v16h6.5v-2.504h2v2.989C11.5,21.32,10.839,22,10.028,22z"/>
<path style="fill:#333333;" d="M21.527,22h-7.555c-0.812,0-1.473-0.68-1.473-1.515v-2.989h2V20H21V4h-6.5v2.503h-2V3.514
	C12.5,2.679,13.16,2,13.973,2h7.555C22.34,2,23,2.679,23,3.514v16.971C23,21.32,22.34,22,21.527,22z"/>
<path style="fill:#333333;" d="M6.25,19c0.552,0,1-0.448,1-1s-0.448-1-1-1s-1,0.448-1,1S5.698,19,6.25,19z"/>
<path style="fill:#333333;" d="M17.75,19c0.552,0,1-0.448,1-1s-0.448-1-1-1s-1,0.448-1,1S17.198,19,17.75,19z"/>
<rect x="8" y="10.75" style="fill:#333333;" width="8" height="2"/>
<polygon style="fill:#333333;" points="14.318,14.844 12.904,13.43 14.584,11.75 12.904,10.07 14.318,8.656 17.412,11.75 "/>
</svg>






