<?xml version="1.0" encoding="iso-8859-1"?>
<svg version="1.1" id="&#x56FE;&#x5C42;_1" xmlns="http://www.w3.org/2000/svg" xmlns:xlink="http://www.w3.org/1999/xlink" x="0px"
	 y="0px" viewBox="0 0 24 24" style="enable-background:new 0 0 24 24;" xml:space="preserve">
<path style="fill:#333333;" d="M12,23c-4.208,0-7-5.718-7-9.5C5,9.383,6.146,7,12,7s7,2.383,7,6.5C19,17.282,16.208,23,12,23z M12,9
	c-4.548,0-5,1.302-5,4.5c0,3.274,2.425,7.5,5,7.5s5-4.226,5-7.5C17,10.302,16.548,9,12,9z"/>
<path style="fill:#333333;" d="M18.764,11.908c-0.679,0-1.294-0.238-1.738-0.683c-0.56-0.56-0.791-1.389-0.635-2.273
	c0.135-0.768,0.549-1.53,1.165-2.146c0.615-0.616,1.377-1.03,2.146-1.165c0.882-0.156,1.713,0.075,2.273,0.635
	c1.091,1.09,0.857,3.032-0.53,4.419v0c-0.616,0.615-1.378,1.029-2.146,1.165C19.117,11.892,18.938,11.908,18.764,11.908z
	 M20.24,7.592c-0.06,0-0.124,0.006-0.191,0.018c-0.362,0.064-0.756,0.286-1.079,0.61c-0.638,0.638-0.741,1.38-0.53,1.591
	c0.09,0.09,0.281,0.119,0.512,0.079c0.362-0.063,0.756-0.286,1.079-0.61c0.324-0.324,0.546-0.717,0.61-1.079
	c0.04-0.23,0.011-0.421-0.08-0.512C20.497,7.625,20.383,7.592,20.24,7.592z"/>
<path style="fill:#333333;" d="M5.239,11.911c-0.899,0-1.883-0.416-2.684-1.216c-1.387-1.388-1.62-3.33-0.531-4.42
	c1.09-1.09,3.032-0.856,4.42,0.53l0,0c1.387,1.388,1.62,3.33,0.53,4.419C6.513,11.686,5.899,11.911,5.239,11.911z M3.76,7.59
	c-0.144,0-0.257,0.035-0.321,0.099C3.228,7.9,3.332,8.643,3.97,9.28c0.637,0.637,1.38,0.741,1.591,0.53s0.107-0.953-0.53-1.591
	C4.586,7.775,4.091,7.59,3.76,7.59z"/>
<path style="fill:#333333;" d="M12,9C8.14,9,5,5.86,5,2h2c0,2.757,2.243,5,5,5s5-2.243,5-5h2C19,5.86,15.859,9,12,9z"/>
<path style="fill:#333333;" d="M12,9C9.757,9,8,6.584,8,3.5h2C10,5.562,11.054,7,12,7c0.946,0,2-1.438,2-3.5h2
	C16,6.584,14.243,9,12,9z"/>
<circle style="fill:#333333;" cx="10" cy="13" r="1"/>
<circle style="fill:#333333;" cx="12" cy="17" r="1"/>
<circle style="fill:#333333;" cx="14" cy="13" r="1"/>
</svg>






