<?xml version="1.0" encoding="iso-8859-1"?>
<svg version="1.1" id="&#x56FE;&#x5C42;_1" xmlns="http://www.w3.org/2000/svg" xmlns:xlink="http://www.w3.org/1999/xlink" x="0px"
	 y="0px" viewBox="0 0 24 24" style="enable-background:new 0 0 24 24;" xml:space="preserve">
<path style="fill:#333333;" d="M11.511,13.978L0.629,9.629V7.771l10.882-4.348l10.882,4.348v1.857L11.511,13.978z M3.695,8.7
	l7.816,3.124L19.327,8.7l-7.816-3.124L3.695,8.7z"/>
<rect x="21.022" y="8.755" style="fill:#333333;" width="2" height="4.611"/>
<path style="fill:#333333;" d="M11.511,20.5c-3.695,0-6.325-2.546-6.435-2.654l-0.298-0.294v-6.639h2v5.765
	c0.687,0.558,2.494,1.822,4.733,1.822c2.239,0,4.044-1.264,4.733-1.822v-5.765h2v6.639l-0.299,0.294
	C17.836,17.954,15.207,20.5,11.511,20.5z"/>
</svg>






