<?xml version="1.0" encoding="iso-8859-1"?>
<svg version="1.1" id="&#x56FE;&#x5C42;_1" xmlns="http://www.w3.org/2000/svg" xmlns:xlink="http://www.w3.org/1999/xlink" x="0px"
	 y="0px" viewBox="0 0 24 24" style="enable-background:new 0 0 24 24;" xml:space="preserve">
<path style="fill:#333333;" d="M21,20H9.894c-0.509,0-0.994-0.191-1.365-0.538L0.534,12l7.995-7.462C8.901,4.191,9.386,4,9.894,4H21
	c1.103,0,2,0.897,2,2v12C23,19.103,22.103,20,21,20z M3.466,12l6.428,6H21V6H9.894L3.466,12z"/>
<rect x="11.964" y="11" transform="matrix(0.7071 -0.7071 0.7071 0.7071 -3.9454 14.4749)" style="fill:#333333;" width="7.071" height="2"/>
<rect x="14.5" y="8.464" transform="matrix(0.7071 -0.7071 0.7071 0.7071 -3.9454 14.4749)" style="fill:#333333;" width="2" height="7.071"/>
</svg>






