<?xml version="1.0" encoding="iso-8859-1"?>
<svg version="1.1" id="&#x56FE;&#x5C42;_1" xmlns="http://www.w3.org/2000/svg" xmlns:xlink="http://www.w3.org/1999/xlink" x="0px"
	 y="0px" viewBox="0 0 24 24" style="enable-background:new 0 0 24 24;" xml:space="preserve">
<path style="fill:#333333;" d="M14,23c-1.815,0-3.259-0.486-4.532-0.916C8.538,21.771,7.735,21.5,7,21.5H2v-2h5
	c1.063,0,2.056,0.335,3.107,0.689C11.29,20.588,12.513,21,14,21c2.531,0,5.762-2.676,6.793-3.707
	c0.085-0.085,0.155-0.165,0.213-0.238c-1.357,0.184-4.747,0.813-7.81,1.426l-0.261,0.052l-3.252-1.084l0.633-1.896l2.748,0.916
	C14.773,16.127,20.513,15,21.5,15c0.763,0,1.371,0.368,1.626,0.984c0.331,0.799-0.013,1.816-0.919,2.723
	C22.032,18.883,17.87,23,14,23z"/>
<path style="fill:#333333;" d="M13.555,18.332l-1.11-1.663c0.508-0.342,1.044-0.87,1.18-1.15C12.83,14.764,8.701,13,7,13
	c-1.54,0-3.275,1.188-4.293,2.207l-1.414-1.414C1.948,13.138,4.296,11,7,11c2.203,0,7.323,2.098,8.3,3.4
	c0.299,0.397,0.411,0.872,0.326,1.371C15.414,17.008,13.987,18.044,13.555,18.332z"/>
<path style="fill:#333333;" d="M23,13h-2V5H9v4H7V5c0-1.103,0.897-2,2-2h12c1.103,0,2,0.897,2,2V13z"/>
<path style="fill:#333333;" d="M18.5,9.5h-7V3h7V9.5z M13.5,7.5h3V5h-3V7.5z"/>
</svg>






