<?xml version="1.0" encoding="iso-8859-1"?>
<svg version="1.1" id="&#x56FE;&#x5C42;_1" xmlns="http://www.w3.org/2000/svg" xmlns:xlink="http://www.w3.org/1999/xlink" x="0px"
	 y="0px" viewBox="0 0 24 24" style="enable-background:new 0 0 24 24;" xml:space="preserve">
<polygon style="fill:#333333;" points="19,23 5,23 5,8 7,8 7,21 17,21 17,8 19,8 "/>
<polygon style="fill:#333333;" points="12,14.562 8.732,10.64 10.268,9.36 12,11.438 13.731,9.36 15.269,10.64 "/>
<rect x="9" y="15" style="fill:#333333;" width="6" height="2"/>
<rect x="9" y="12" style="fill:#333333;" width="6" height="2"/>
<rect x="11" y="13" style="fill:#333333;" width="2" height="6"/>
<rect x="7" y="4" style="fill:#333333;" width="10" height="2"/>
<polygon style="fill:#333333;" points="22,10 18,10 18,8 20,8 20,3 4,3 4,8 6,8 6,10 2,10 2,1 22,1 "/>
</svg>






