<?xml version="1.0" encoding="iso-8859-1"?>
<svg version="1.1" id="&#x56FE;&#x5C42;_1" xmlns="http://www.w3.org/2000/svg" xmlns:xlink="http://www.w3.org/1999/xlink" x="0px"
	 y="0px" viewBox="0 0 24 24" style="enable-background:new 0 0 24 24;" xml:space="preserve">
<g>
	<defs>
		<rect id="SVGID_1_" width="24" height="24"/>
	</defs>
	<clipPath id="SVGID_00000030467524622637415180000011803492602128860063_">
		<use xlink:href="#SVGID_1_"  style="overflow:visible;"/>
	</clipPath>
	<g style="clip-path:url(#SVGID_00000030467524622637415180000011803492602128860063_);">
		<path style="fill:#333333;" d="M21.647,20.866c-0.726-0.355-17.777-8.71-19.154-9.504C1.623,10.859,1.091,10,1.035,9.004
			C0.974,7.928,1.482,6.855,2.362,6.205c1.279-0.946,3.646-1.533,3.911-1.597l1.634-0.393L6.954,7.774l14.573,7.086l1.514,4.808
			L21.647,20.866z M5.073,7.067C4.5,7.28,3.923,7.538,3.551,7.813c-0.338,0.25-0.542,0.673-0.519,1.078
			C3.05,9.215,3.206,9.463,3.493,9.629c0.944,0.545,10.546,5.277,16.939,8.414l-0.554-1.761L4.595,8.851L5.073,7.067z"/>
		
			<rect x="10.5" y="16.573" transform="matrix(0.4472 -0.8944 0.8944 0.4472 -9.9663 20.3743)" style="fill:#333333;" width="2" height="3.354"/>
		<polygon style="fill:#333333;" points="13.518,12.685 12.108,5.172 11.689,4.962 10.475,10.225 8.525,9.775 10.311,2.038 
			13.892,3.828 15.482,12.315 		"/>
	</g>
</g>
</svg>






