<?xml version="1.0" encoding="iso-8859-1"?>
<svg version="1.1" id="&#x56FE;&#x5C42;_1" xmlns="http://www.w3.org/2000/svg" xmlns:xlink="http://www.w3.org/1999/xlink" x="0px"
	 y="0px" viewBox="0 0 24 24" style="enable-background:new 0 0 24 24;" xml:space="preserve">
<path style="fill:#333333;" d="M19.298,14H4.702C3.764,14,3,13.236,3,12.298V10c0-4.962,4.038-9,9-9c4.963,0,9,4.038,9,9v2.298
	C21,13.236,20.236,14,19.298,14z M5,12h14v-2c0-3.86-3.141-7-7-7c-3.86,0-7,3.14-7,7V12z"/>
<rect x="11" y="13" style="fill:#333333;" width="2" height="8"/>
<rect x="6.5" y="13" style="fill:#333333;" width="2" height="3"/>
<rect x="7.5" y="20" style="fill:#333333;" width="9" height="2"/>
</svg>






