<?xml version="1.0" encoding="iso-8859-1"?>
<svg version="1.1" id="&#x56FE;&#x5C42;_1" xmlns="http://www.w3.org/2000/svg" xmlns:xlink="http://www.w3.org/1999/xlink" x="0px"
	 y="0px" viewBox="0 0 24 24" style="enable-background:new 0 0 24 24;" xml:space="preserve">
<rect x="3" y="19.499" style="fill:#333333;" width="18" height="2"/>
<rect x="18.5" y="9.5" style="fill:#333333;" width="2" height="11"/>
<rect x="15.5" y="5.594" transform="matrix(0.6402 -0.7682 0.7682 0.6402 -1.3608 16.0937)" style="fill:#333333;" width="2" height="7.81"/>
<path style="fill:#333333;" d="M13.718,13.885L3.652,7.886l0.475-0.849c0.994-1.778,2.749-2.871,4.69-2.966
	c0.424-0.714,1.126-1.244,1.939-1.461c0.833-0.223,1.688-0.109,2.408,0.321c1.47,0.876,2.005,2.881,1.186,4.403
	c0.897,1.771,0.861,3.88-0.131,5.654L13.718,13.885z M6.445,7.223l6.422,3.827c0.292-1.088,0.112-2.235-0.532-3.21L11.91,7.195
	l0.516-0.575c0.059-0.065,0.11-0.138,0.153-0.215c0.329-0.589,0.12-1.425-0.438-1.757c-0.253-0.15-0.56-0.187-0.868-0.106
	c-0.32,0.085-0.594,0.294-0.75,0.573c-0.057,0.102-0.08,0.165-0.106,0.251l-0.232,0.771L9.383,6.075
	C8.253,5.986,7.204,6.407,6.445,7.223z"/>
</svg>






