<?xml version="1.0" encoding="iso-8859-1"?>
<svg version="1.1" id="&#x56FE;&#x5C42;_1" xmlns="http://www.w3.org/2000/svg" xmlns:xlink="http://www.w3.org/1999/xlink" x="0px"
	 y="0px" viewBox="0 0 24 24" style="enable-background:new 0 0 24 24;" xml:space="preserve">
<path style="fill:#333333;" d="M4.233,21.184c-0.732,0-1.46-0.312-1.967-0.915c-0.908-1.082-0.766-2.701,0.316-3.609l1.677-1.408
	l0.257-2.935L14.809,3.68c1.962-1.646,4.898-1.389,6.545,0.572c1.646,1.963,1.39,4.899-0.572,6.545l-10.292,8.636l-2.934-0.255
	l-1.677,1.406C5.399,20.987,4.815,21.184,4.233,21.184z M6.437,13.316L6.18,16.251L3.868,18.19
	c-0.115,0.097-0.186,0.232-0.199,0.383c-0.013,0.149,0.033,0.295,0.129,0.41c0.2,0.238,0.557,0.27,0.795,0.069l2.311-1.938
	l2.934,0.255l9.658-8.104c1.117-0.938,1.264-2.61,0.325-3.728c-0.938-1.117-2.609-1.263-3.728-0.326L6.437,13.316z"/>
<rect x="14.411" y="3.515" transform="matrix(0.766 -0.6428 0.6428 0.766 -2.3463 12.073)" style="fill:#333333;" width="1.999" height="11.489"/>
<rect x="8.819" y="12.25" transform="matrix(0.7531 -0.6579 0.6579 0.7531 -6.0705 10.3232)" style="fill:#333333;" width="3.801" height="2"/>
</svg>






