<?xml version="1.0" encoding="iso-8859-1"?>
<svg version="1.1" id="&#x56FE;&#x5C42;_1" xmlns="http://www.w3.org/2000/svg" xmlns:xlink="http://www.w3.org/1999/xlink" x="0px"
	 y="0px" viewBox="0 0 24 24" style="enable-background:new 0 0 24 24;" xml:space="preserve">
<path style="fill:#333333;" d="M12,22.239c-0.658,0-1.273-0.323-1.646-0.865L1.805,8.979c-0.32-0.465-0.43-1.046-0.3-1.595
	c0.129-0.549,0.487-1.021,0.982-1.293l0,0l8.549-4.702c0.604-0.331,1.324-0.332,1.928,0l8.548,4.701
	c0.494,0.271,0.854,0.742,0.983,1.292c0.13,0.55,0.021,1.131-0.3,1.596l-8.549,12.396C13.273,21.916,12.657,22.239,12,22.239z
	 M3.452,7.843L3.45,7.844L12,20.239l8.549-12.396L12,3.142L3.452,7.843z"/>
</svg>






