<?xml version="1.0" encoding="iso-8859-1"?>
<svg version="1.1" id="&#x56FE;&#x5C42;_1" xmlns="http://www.w3.org/2000/svg" xmlns:xlink="http://www.w3.org/1999/xlink" x="0px"
	 y="0px" viewBox="0 0 24 24" style="enable-background:new 0 0 24 24;" xml:space="preserve">
<path style="fill:#333333;" d="M12.5,23C7.813,23,4,19.187,4,14.5C4,9.813,7.813,6,12.5,6c4.687,0,8.5,3.813,8.5,8.5
	C21,19.187,17.187,23,12.5,23z M12.5,8C8.916,8,6,10.916,6,14.5S8.916,21,12.5,21s6.5-2.916,6.5-6.5S16.084,8,12.5,8z"/>
<path style="fill:#333333;" d="M12.5,8.317L7.638,4.149L10,1h5.031l2.325,3.155L12.5,8.317z M10.362,3.851L12.5,5.683l2.144-1.838
	L14.021,3H11L10.362,3.851z"/>
</svg>






