<?xml version="1.0" encoding="iso-8859-1"?>
<svg version="1.1" id="&#x56FE;&#x5C42;_1" xmlns="http://www.w3.org/2000/svg" xmlns:xlink="http://www.w3.org/1999/xlink" x="0px"
	 y="0px" viewBox="0 0 24 24" style="enable-background:new 0 0 24 24;" xml:space="preserve">
<path style="fill:#333333;" d="M12,22.562L0.709,9.013L5.52,3H18.48l4.811,6.013L12,22.562z M3.291,8.987L12,19.438l8.709-10.45
	L17.52,5H6.48L3.291,8.987z"/>
<rect x="2" y="8" style="fill:#333333;" width="20" height="2"/>
<rect x="9" y="8.675" transform="matrix(0.9487 -0.3162 0.3162 0.9487 -4.2303 3.932)" style="fill:#333333;" width="2" height="12.649"/>
<rect x="7.675" y="14" transform="matrix(0.3164 -0.9486 0.9486 0.3164 -4.6595 23.5337)" style="fill:#333333;" width="12.649" height="2"/>
<polygon style="fill:#333333;" points="12,22.562 0.709,9.013 3.219,5.875 4.781,7.125 3.291,8.987 12,19.438 20.709,8.987 
	19.219,7.125 20.781,5.875 23.291,9.013 "/>
</svg>






