<?xml version="1.0" encoding="iso-8859-1"?>
<svg version="1.1" id="&#x56FE;&#x5C42;_1" xmlns="http://www.w3.org/2000/svg" xmlns:xlink="http://www.w3.org/1999/xlink" x="0px"
	 y="0px" viewBox="0 0 24 24" style="enable-background:new 0 0 24 24;" xml:space="preserve">
<path style="fill:#333333;" d="M17.023,21.68L6,15.066V7.293L16,12.9v-2.834l-5.999-3.6l6.514-3.619L22.5,6.375v11.72L17.023,21.68z
	 M8,13.934l8.977,5.387l3.523-2.308V7.518l-4.015-2.366l-2.486,1.381L18,8.934v7.381L8,10.707V13.934z"/>
<polygon style="fill:#333333;" points="7.528,21.683 1.5,18.066 1.5,6.434 7.481,2.845 12.485,5.626 11.514,7.374 7.519,5.155 
	3.5,7.566 3.5,16.934 7.472,19.317 11.445,16.668 12.555,18.332 "/>
</svg>






