<?xml version="1.0" encoding="iso-8859-1"?>
<svg version="1.1" id="&#x56FE;&#x5C42;_1" xmlns="http://www.w3.org/2000/svg" xmlns:xlink="http://www.w3.org/1999/xlink" x="0px"
	 y="0px" viewBox="0 0 24 24" style="enable-background:new 0 0 24 24;" xml:space="preserve">
<path style="fill:#333333;" d="M12,22.25C4.09,22.25,2,15.545,2,12V2h20v10C22,14.851,20.203,22.25,12,22.25z M4,4v8
	c0,0.337,0.091,8.25,8,8.25c7.782,0,8-8.168,8-8.25V4H4z"/>
<rect x="3" y="6" style="fill:#333333;" width="5" height="2"/>
<rect x="16" y="6" style="fill:#333333;" width="5" height="2"/>
<path style="fill:#333333;" d="M13.5,21h-2c0-6.542,3.285-10,9.5-10v2C15.953,13,13.5,15.617,13.5,21z"/>
<path style="fill:#333333;" d="M12.5,21h-2c0-5.383-2.453-8-7.5-8v-2C9.215,11,12.5,14.458,12.5,21z"/>
</svg>






