<?xml version="1.0" encoding="iso-8859-1"?>
<svg version="1.1" id="&#x56FE;&#x5C42;_1" xmlns="http://www.w3.org/2000/svg" xmlns:xlink="http://www.w3.org/1999/xlink" x="0px"
	 y="0px" viewBox="0 0 24 24" style="enable-background:new 0 0 24 24;" xml:space="preserve">
<path style="fill:#333333;" d="M14.5,22H4c-1.103,0-2-0.897-2-2V9.5c0-1.103,0.897-2,2-2h3.5c1.103,0,2,0.897,2,2v5h5
	c1.103,0,2,0.897,2,2V20C16.5,21.103,15.603,22,14.5,22z M4,9.5v10.501L14.5,20v-3.5h-5c-1.103,0-2-0.897-2-2v-5H4z"/>
<path style="fill:#333333;" d="M20,16.5h-3.5c-1.103,0-2-0.897-2-2v-5h-5c-1.103,0-2-0.897-2-2V4c0-1.103,0.897-2,2-2H20
	c1.103,0,2,0.897,2,2v10.5C22,15.603,21.103,16.5,20,16.5z M20,3.999L9.5,4v3.5h5c1.103,0,2,0.897,2,2v5H20V3.999z"/>
</svg>






