<?xml version="1.0" encoding="iso-8859-1"?>
<svg version="1.1" id="&#x56FE;&#x5C42;_1" xmlns="http://www.w3.org/2000/svg" xmlns:xlink="http://www.w3.org/1999/xlink" x="0px"
	 y="0px" viewBox="0 0 24 24" style="enable-background:new 0 0 24 24;" xml:space="preserve">
<path style="fill:#333333;" d="M16,18.5H8c-1.378,0-2.5-1.121-2.5-2.5V8c0-1.378,1.122-2.5,2.5-2.5h8c1.379,0,2.5,1.122,2.5,2.5v8
	C18.5,17.379,17.379,18.5,16,18.5z M8,7.5C7.724,7.5,7.5,7.724,7.5,8v8c0,0.275,0.224,0.5,0.5,0.5h8c0.275,0,0.5-0.225,0.5-0.5V8
	c0-0.276-0.225-0.5-0.5-0.5H8z"/>
<path style="fill:#333333;" d="M13.5,23h-3c-1.103,0-2-0.897-2-2v-3.5h2V21h3v-3.5h2V21C15.5,22.103,14.603,23,13.5,23z"/>
<path style="fill:#333333;" d="M15.5,6.5h-2V3h-3v3.5h-2V3c0-1.103,0.897-2,2-2h3c1.103,0,2,0.897,2,2V6.5z"/>
<rect x="17.5" y="9.5" style="fill:#333333;" width="1" height="2"/>
<rect x="9.5" y="11" style="fill:#333333;" width="1" height="2"/>
<rect x="13.5" y="11" style="fill:#333333;" width="1" height="2"/>
</svg>






