<?xml version="1.0" encoding="iso-8859-1"?>
<svg version="1.1" id="&#x56FE;&#x5C42;_1" xmlns="http://www.w3.org/2000/svg" xmlns:xlink="http://www.w3.org/1999/xlink" x="0px"
	 y="0px" viewBox="0 0 24 24" style="enable-background:new 0 0 24 24;" xml:space="preserve">
<polygon style="fill:#333333;" points="13,7 11,7 11,4.414 9.707,5.707 8.293,4.293 11.293,1.293 12,2 12.707,1.293 15.707,4.293 
	14.293,5.707 13,4.414 "/>
<polygon style="fill:#333333;" points="12.707,22.707 12,22 11.293,22.707 8.293,19.707 9.707,18.293 11,19.586 11,17 13,17 
	13,19.586 14.293,18.293 15.707,19.707 "/>
<polygon style="fill:#333333;" points="19.707,15.707 18.293,14.293 19.586,13 17,13 17,11 19.586,11 18.293,9.707 19.707,8.293 
	22.707,11.293 22,12 22.707,12.707 "/>
<polygon style="fill:#333333;" points="4.293,15.707 1.293,12.707 2,12 1.293,11.293 4.293,8.293 5.707,9.707 4.414,11 7,11 7,13 
	4.414,13 5.707,14.293 "/>
<path style="fill:#333333;" d="M12,15c-1.654,0-3-1.346-3-3s1.346-3,3-3s3,1.346,3,3S13.654,15,12,15z M12,11c-0.551,0-1,0.449-1,1
	c0,0.552,0.449,1,1,1c0.552,0,1-0.448,1-1C13,11.449,12.552,11,12,11z"/>
</svg>






