<?xml version="1.0" encoding="iso-8859-1"?>
<svg version="1.1" id="&#x56FE;&#x5C42;_1" xmlns="http://www.w3.org/2000/svg" xmlns:xlink="http://www.w3.org/1999/xlink" x="0px"
	 y="0px" viewBox="0 0 24 24" style="enable-background:new 0 0 24 24;" xml:space="preserve">
<polygon style="fill:#333333;" points="12.707,22.707 12,22 11.293,22.707 8.293,19.707 9.707,18.293 11,19.586 11,13 4.414,13 
	5.707,14.293 4.293,15.707 1.293,12.707 2,12 1.293,11.293 4.293,8.293 5.707,9.707 4.414,11 11,11 11,4.414 9.707,5.707 
	8.293,4.293 11.293,1.293 12,2 12.707,1.293 15.707,4.293 14.293,5.707 13,4.414 13,11 19.586,11 18.293,9.707 19.707,8.293 
	22.707,11.293 22,12 22.707,12.707 19.707,15.707 18.293,14.293 19.586,13 13,13 13,19.586 14.293,18.293 15.707,19.707 "/>
</svg>






