<?xml version="1.0" encoding="iso-8859-1"?>
<svg version="1.1" id="&#x56FE;&#x5C42;_1" xmlns="http://www.w3.org/2000/svg" xmlns:xlink="http://www.w3.org/1999/xlink" x="0px"
	 y="0px" viewBox="0 0 24 24" style="enable-background:new 0 0 24 24;" xml:space="preserve">
<g>
	<defs>
		<rect id="SVGID_1_" width="24" height="24"/>
	</defs>
	<clipPath id="SVGID_00000048468967497493792150000013326715200690598328_">
		<use xlink:href="#SVGID_1_"  style="overflow:visible;"/>
	</clipPath>
	<g style="clip-path:url(#SVGID_00000048468967497493792150000013326715200690598328_);">
		<path style="fill:#333333;" d="M19.5,22h-15C3.122,22,2,20.879,2,19.5v-15C2,3.122,3.122,2,4.5,2h15C20.879,2,22,3.122,22,4.5v15
			C22,20.879,20.879,22,19.5,22z M4.5,4C4.225,4,4,4.224,4,4.5v15C4,19.775,4.225,20,4.5,20h15c0.275,0,0.5-0.225,0.5-0.5v-15
			C20,4.224,19.775,4,19.5,4H4.5z"/>
		<path style="fill:#333333;" d="M11.646,5.282l-1.621,1.621C9.71,7.219,9.933,7.757,10.379,7.757h3.243
			c0.445,0,0.668-0.539,0.354-0.854l-1.621-1.621C12.158,5.087,11.842,5.087,11.646,5.282z"/>
		<path style="fill:#333333;" d="M5.282,12.354l1.621,1.621c0.315,0.315,0.854,0.092,0.854-0.354v-3.243
			c0-0.445-0.539-0.668-0.854-0.354l-1.621,1.621C5.087,11.842,5.087,12.158,5.282,12.354z"/>
		<path style="fill:#333333;" d="M12.354,18.718l1.621-1.621c0.315-0.315,0.092-0.854-0.354-0.854h-3.243
			c-0.445,0-0.668,0.539-0.354,0.854l1.621,1.621C11.842,18.913,12.158,18.913,12.354,18.718z"/>
		<path style="fill:#333333;" d="M18.718,11.646l-1.621-1.621c-0.315-0.315-0.854-0.092-0.854,0.354v3.243
			c0,0.445,0.539,0.668,0.854,0.354l1.621-1.621C18.913,12.158,18.913,11.842,18.718,11.646z"/>
	</g>
</g>
</svg>






