<?xml version="1.0" encoding="iso-8859-1"?>
<svg version="1.1" id="&#x56FE;&#x5C42;_1" xmlns="http://www.w3.org/2000/svg" xmlns:xlink="http://www.w3.org/1999/xlink" x="0px"
	 y="0px" viewBox="0 0 24 24" style="enable-background:new 0 0 24 24;" xml:space="preserve">
<path style="fill:#333333;" d="M12,23C5.935,23,1,18.065,1,12S5.935,1,12,1s11,4.935,11,11S18.065,23,12,23z M12,3
	c-4.962,0-9,4.038-9,9c0,4.963,4.038,9,9,9c4.963,0,9-4.037,9-9C21,7.038,16.963,3,12,3z"/>
<rect x="14.5" y="10.882" transform="matrix(0.4472 -0.8944 0.8944 0.4472 -2.1649 20.4971)" style="fill:#333333;" width="2" height="2.236"/>
<rect x="6.882" y="11" transform="matrix(0.8944 -0.4472 0.4472 0.8944 -4.522 4.8446)" style="fill:#333333;" width="2.236" height="2"/>
<path style="fill:#333333;" d="M14.61,17.956C14.579,17.896,13.822,16.5,12,16.5s-2.579,1.396-2.61,1.456l-1.784-0.903
	C7.658,16.948,8.917,14.5,12,14.5c3.083,0,4.343,2.448,4.395,2.553L14.61,17.956z"/>
</svg>






