<?xml version="1.0" encoding="iso-8859-1"?>
<svg version="1.1" id="&#x56FE;&#x5C42;_1" xmlns="http://www.w3.org/2000/svg" xmlns:xlink="http://www.w3.org/1999/xlink" x="0px"
	 y="0px" viewBox="0 0 24 24" style="enable-background:new 0 0 24 24;" xml:space="preserve">
<path style="fill:#333333;" d="M19.5,17.999h-15c-1.378,0-2.5-1.121-2.5-2.5v-11c0-1.378,1.122-2.5,2.5-2.5h7v2h-7
	c-0.276,0-0.5,0.224-0.5,0.5v11c0,0.275,0.224,0.5,0.5,0.5h15c0.275,0,0.5-0.225,0.5-0.5v-3.5h2v3.5
	C22,16.878,20.879,17.999,19.5,17.999z"/>
<rect x="11" y="17" style="fill:#333333;" width="2" height="4"/>
<path style="fill:#333333;" d="M18,10c-2.206,0-4-1.794-4-4s1.794-4,4-4s4,1.794,4,4S20.206,10,18,10z M18,4c-1.103,0-2,0.897-2,2
	s0.897,2,2,2s2-0.897,2-2S19.103,4,18,4z"/>
<rect x="17" y="3.172" transform="matrix(0.7071 -0.7071 0.7071 0.7071 1.0294 14.4853)" style="fill:#333333;" width="2" height="5.657"/>
<rect x="7" y="19.999" style="fill:#333333;" width="10" height="2"/>
</svg>






