<?xml version="1.0" encoding="iso-8859-1"?>
<svg version="1.1" id="&#x56FE;&#x5C42;_1" xmlns="http://www.w3.org/2000/svg" xmlns:xlink="http://www.w3.org/1999/xlink" x="0px"
	 y="0px" viewBox="0 0 24 24" style="enable-background:new 0 0 24 24;" xml:space="preserve">
<path style="fill:#333333;" d="M21,17.499H3V6c0-1.378,1.122-2.5,2.5-2.5h6v2h-6C5.224,5.5,5,5.724,5,6v9.5h14v-2.5h2V17.499z"/>
<path style="fill:#333333;" d="M19,21.499H5c-2.206,0-4-1.794-4-4v-2h22v2C23,19.705,21.206,21.499,19,21.499z M3,17.499
	c0,1.103,0.897,2,2,2h14c1.103,0,2-0.897,2-2H3z"/>
<path style="fill:#333333;" d="M18,10.5c-2.206,0-4-1.794-4-4s1.794-4,4-4s4,1.794,4,4S20.206,10.5,18,10.5z M18,4.5
	c-1.103,0-2,0.897-2,2s0.897,2,2,2s2-0.897,2-2S19.103,4.5,18,4.5z"/>
<rect x="17" y="3.672" transform="matrix(0.7071 -0.7071 0.7071 0.7071 0.6759 14.6317)" style="fill:#333333;" width="2" height="5.657"/>
</svg>






