<?xml version="1.0" encoding="iso-8859-1"?>
<svg version="1.1" id="&#x56FE;&#x5C42;_1" xmlns="http://www.w3.org/2000/svg" xmlns:xlink="http://www.w3.org/1999/xlink" x="0px"
	 y="0px" viewBox="0 0 24 24" style="enable-background:new 0 0 24 24;" xml:space="preserve">
<path style="fill:#333333;" d="M4,8H2V4c0-1.103,0.897-2,2-2h4v2H4V8z"/>
<path style="fill:#333333;" d="M8,22H4c-1.103,0-2-0.897-2-2v-4h2v4h4V22z"/>
<path style="fill:#333333;" d="M20,22h-4v-2h4v-4h2v4C22,21.103,21.103,22,20,22z"/>
<path style="fill:#333333;" d="M22,8h-2V4h-4V2h4c1.103,0,2,0.897,2,2V8z"/>
<path style="fill:#333333;" d="M15.5,16h-7V8h7V16z M10.5,14h3v-4h-3V14z"/>
<rect x="11" y="6" style="fill:#333333;" width="2" height="3"/>
<rect x="11" y="15" style="fill:#333333;" width="2" height="3"/>
</svg>






