<?xml version="1.0" encoding="iso-8859-1"?>
<svg version="1.1" id="&#x56FE;&#x5C42;_1" xmlns="http://www.w3.org/2000/svg" xmlns:xlink="http://www.w3.org/1999/xlink" x="0px"
	 y="0px" viewBox="0 0 24 24" style="enable-background:new 0 0 24 24;" xml:space="preserve">
<path style="fill:#333333;" d="M12.136,22.775c-3.781,0-6.857-3.076-6.857-6.857V8.577c0-0.813,0.662-1.475,1.476-1.475h10.763
	c0.813,0,1.476,0.662,1.476,1.475v7.341C18.993,19.699,15.917,22.775,12.136,22.775z M7.238,9.061v6.857
	c0,2.701,2.197,4.898,4.898,4.898c2.701,0,4.898-2.197,4.898-4.898V9.061H7.238z"/>
<path style="fill:#333333;" d="M17.523,9.061H6.749V1.225h10.775V9.061z M8.708,7.102h6.857V3.184H8.708V7.102z"/>
<rect x="9.687" y="4.653" style="fill:#333333;" width="1.959" height="0.98"/>
<rect x="12.626" y="4.653" style="fill:#333333;" width="1.959" height="0.98"/>
<rect x="6.258" y="14.938" style="fill:#333333;" width="11.755" height="1.959"/>
</svg>






