<?xml version="1.0" encoding="iso-8859-1"?>
<svg version="1.1" id="&#x56FE;&#x5C42;_1" xmlns="http://www.w3.org/2000/svg" xmlns:xlink="http://www.w3.org/1999/xlink" x="0px"
	 y="0px" viewBox="0 0 24 24" style="enable-background:new 0 0 24 24;" xml:space="preserve">
<path style="fill:#333333;" d="M12,22.217l-0.315-0.104C7.85,20.838,1,15.533,1,9.5C1,5.916,3.916,3,7.5,3
	c1.69,0,3.3,0.661,4.5,1.81C13.199,3.661,14.81,3,16.5,3C20.084,3,23,5.916,23,9.5c0,6.033-6.85,11.338-10.685,12.612L12,22.217z
	 M7.5,5C5.019,5,3,7.019,3,9.5c0,4.771,5.763,9.357,9,10.601c3.237-1.243,9-5.83,9-10.601C21,7.019,18.981,5,16.5,5
	c-1.463,0-2.839,0.715-3.683,1.913L12,8.074l-0.818-1.162C10.339,5.715,8.963,5,7.5,5z"/>
<path style="fill:none;" d="M14,10l-4,4L14,10z"/>
<rect x="9.172" y="11" transform="matrix(0.7071 -0.7071 0.7071 0.7071 -4.9706 12)" style="fill:#333333;" width="5.657" height="2"/>
<path style="fill:none;" d="M10,10l4,4L10,10z"/>
<rect x="11" y="9.172" transform="matrix(0.7071 -0.7071 0.7071 0.7071 -4.9706 12)" style="fill:#333333;" width="2" height="5.657"/>
</svg>






