<?xml version="1.0" encoding="iso-8859-1"?>
<svg version="1.1" id="&#x56FE;&#x5C42;_1" xmlns="http://www.w3.org/2000/svg" xmlns:xlink="http://www.w3.org/1999/xlink" x="0px"
	 y="0px" viewBox="0 0 24 24" style="enable-background:new 0 0 24 24;" xml:space="preserve">
<path style="fill:#333333;" d="M12,22.04l-0.275-0.078C7.982,20.893,1,15.67,1,9.5C1,5.916,3.916,3,7.5,3
	c1.025,0,2.047,0.245,2.955,0.709l0.655,0.335l-0.504,2.927l5.136,2.853l-3.95,3.386l1.065,1.775l-1.715,1.029L9.208,12.79
	l3.05-2.614L8.394,8.029l0.485-2.815C8.438,5.072,7.976,5,7.5,5C5.019,5,3,7.019,3,9.5c0,4.76,5.68,9.346,9,10.453
	c3.319-1.107,9-5.693,9-10.453C21,7.019,18.981,5,16.5,5c-0.721,0-1.408,0.165-2.045,0.49l-0.91-1.781C14.453,3.245,15.475,3,16.5,3
	C20.084,3,23,5.916,23,9.5c0,6.17-6.982,11.393-10.726,12.462L12,22.04z"/>
</svg>






