<?xml version="1.0" encoding="iso-8859-1"?>
<svg version="1.1" id="&#x56FE;&#x5C42;_1" xmlns="http://www.w3.org/2000/svg" xmlns:xlink="http://www.w3.org/1999/xlink" x="0px"
	 y="0px" viewBox="0 0 24 24" style="enable-background:new 0 0 24 24;" xml:space="preserve">
<path style="fill:#333333;" d="M12,23C5.935,23,1,18.065,1,12S5.935,1,12,1s11,4.935,11,11S18.065,23,12,23z M12,3
	c-4.962,0-9,4.038-9,9c0,4.963,4.038,9,9,9c4.963,0,9-4.037,9-9C21,7.038,16.963,3,12,3z"/>
<path style="fill:#333333;" d="M17.118,17.5H6.882l0.724-1.447C7.658,15.948,8.917,13.5,12,13.5c3.083,0,4.343,2.448,4.395,2.553
	L17.118,17.5z"/>
<polygon style="fill:#333333;" points="15.293,12.207 13.086,10 15.293,7.793 16.707,9.207 15.914,10 16.707,10.793 "/>
<polygon style="fill:#333333;" points="8.707,12.207 7.293,10.793 8.086,10 7.293,9.207 8.707,7.793 10.914,10 "/>
</svg>






