<?xml version="1.0" encoding="iso-8859-1"?>
<svg version="1.1" id="&#x56FE;&#x5C42;_1" xmlns="http://www.w3.org/2000/svg" xmlns:xlink="http://www.w3.org/1999/xlink" x="0px"
	 y="0px" viewBox="0 0 24 24" style="enable-background:new 0 0 24 24;" xml:space="preserve">
<path style="fill:#333333;" d="M19.5,22c-0.589,0-1.178-0.148-1.726-0.444c-0.508-0.275-1.041-0.275-1.549,0
	c-1.096,0.592-2.355,0.592-3.451,0c-0.507-0.275-1.042-0.275-1.549,0c-1.097,0.592-2.354,0.592-3.451,0
	c-0.507-0.275-1.042-0.275-1.549,0c-1.097,0.592-2.354,0.592-3.451,0l-1.25-0.676l0.951-1.76l1.25,0.676
	c0.507,0.276,1.043,0.274,1.549,0c1.097-0.592,2.354-0.592,3.451,0c0.507,0.275,1.042,0.275,1.549,0
	c1.097-0.592,2.355-0.592,3.451,0c0.508,0.275,1.041,0.275,1.549,0c1.096-0.592,2.355-0.592,3.451,0
	c0.508,0.275,1.041,0.275,1.549,0l1.25-0.676l0.951,1.76l-1.25,0.676C20.678,21.852,20.089,22,19.5,22z"/>
<rect x="6" y="2" style="fill:#333333;" width="2" height="3.5"/>
<rect x="14.5" y="2" style="fill:#333333;" width="2" height="3.5"/>
<rect x="9.5" y="2" style="fill:#333333;" width="2" height="2"/>
<rect x="18" y="2" style="fill:#333333;" width="2" height="2"/>
<rect x="6" y="2" style="fill:#333333;" width="4" height="2"/>
<rect x="14.5" y="2" style="fill:#333333;" width="4" height="2"/>
<path style="fill:#333333;" d="M7,18.5c-1.654,0-3-1.346-3-3v-8c0-1.654,1.346-3,3-3s3,1.346,3,3v8C10,17.154,8.654,18.5,7,18.5z
	 M7,6.5c-0.551,0-1,0.449-1,1v8c0,0.552,0.449,1,1,1s1-0.448,1-1v-8C8,6.949,7.551,6.5,7,6.5z"/>
<path style="fill:#333333;" d="M15.5,18.5c-1.654,0-3-1.346-3-3v-8c0-1.654,1.346-3,3-3s3,1.346,3,3v8
	C18.5,17.154,17.154,18.5,15.5,18.5z M15.5,6.5c-0.552,0-1,0.449-1,1v8c0,0.552,0.448,1,1,1s1-0.448,1-1v-8
	C16.5,6.949,16.052,6.5,15.5,6.5z"/>
<path style="fill:#333333;" d="M18.5,10.5h-6v-3c0-1.654,1.346-3,3-3s3,1.346,3,3V10.5z M14.5,8.5h2v-1c0-0.551-0.448-1-1-1
	s-1,0.449-1,1V8.5z"/>
<path style="fill:#333333;" d="M10,10.5H4v-3c0-1.654,1.346-3,3-3s3,1.346,3,3V10.5z M6,8.5h2v-1c0-0.551-0.449-1-1-1s-1,0.449-1,1
	V8.5z"/>
</svg>






