<?xml version="1.0" encoding="iso-8859-1"?>
<svg version="1.1" id="&#x56FE;&#x5C42;_1" xmlns="http://www.w3.org/2000/svg" xmlns:xlink="http://www.w3.org/1999/xlink" x="0px"
	 y="0px" viewBox="0 0 24 24" style="enable-background:new 0 0 24 24;" xml:space="preserve">
<path style="fill:#333333;" d="M12.955,13H11.5v-2h1.455C15.186,11,17,9.206,17,7c0-2.089-1.628-3.81-3.696-3.985l-2.658,2.249
	H9.354L6.696,3.015C4.628,3.19,3,4.911,3,7c0,2.206,1.814,4,4.045,4H8.5v2H7.045C3.712,13,1,10.309,1,7s2.712-6,6.045-6l0.646,0.236
	L10,3.19l2.31-1.954L12.955,1C16.288,1,19,3.691,19,7S16.288,13,12.955,13z"/>
<path style="fill:#333333;" d="M13,23H7l-1-1v-4l1-1h6l1,1v4L13,23z M8,21h4v-2H8V21z"/>
<path style="fill:#333333;" d="M18,21h-5v-2h5c1.654,0,3-1.346,3-3V8h-3V6h4l1,1v9C23,18.757,20.757,21,18,21z"/>
<path style="fill:#333333;" d="M10.61,16H9.39c-0.644,0-1.251-0.281-1.667-0.772c-0.414-0.49-0.591-1.133-0.485-1.764l0.61-3.644
	C8.024,8.766,8.929,8,10,8c1.07,0,1.975,0.766,2.151,1.82l0.609,3.645c0.104,0.638-0.077,1.279-0.493,1.768
	C11.853,15.721,11.248,16,10.61,16z M10,10c-0.09,0-0.164,0.061-0.179,0.149l-0.61,3.646c-0.011,0.065,0.015,0.112,0.039,0.141
	C9.275,13.965,9.32,14,9.39,14h1.22c0.067,0,0.11-0.035,0.135-0.064c0.025-0.029,0.053-0.079,0.042-0.146l-0.609-3.639
	C10.165,10.064,10.087,10,10,10z"/>
</svg>






