<?xml version="1.0" encoding="iso-8859-1"?>
<svg version="1.1" id="&#x56FE;&#x5C42;_1" xmlns="http://www.w3.org/2000/svg" xmlns:xlink="http://www.w3.org/1999/xlink" x="0px"
	 y="0px" viewBox="0 0 24 24" style="enable-background:new 0 0 24 24;" xml:space="preserve">
<path style="fill:#333333;" d="M12,9c-1.93,0-3.5-1.57-3.5-3.5S10.07,2,12,2s3.5,1.57,3.5,3.5S13.93,9,12,9z M12,4
	c-0.827,0-1.5,0.673-1.5,1.5S11.173,7,12,7s1.5-0.673,1.5-1.5S12.827,4,12,4z"/>
<path style="fill:#333333;" d="M12,22c-1.93,0-3.5-1.57-3.5-3.5S10.07,15,12,15s3.5,1.57,3.5,3.5S13.93,22,12,22z M12,17
	c-0.827,0-1.5,0.673-1.5,1.5S11.173,20,12,20s1.5-0.673,1.5-1.5S12.827,17,12,17z"/>
<rect x="2" y="11" style="fill:#333333;" width="20" height="2"/>
</svg>






