<?xml version="1.0" encoding="iso-8859-1"?>
<svg version="1.1" id="&#x56FE;&#x5C42;_1" xmlns="http://www.w3.org/2000/svg" xmlns:xlink="http://www.w3.org/1999/xlink" x="0px"
	 y="0px" viewBox="0 0 24 24" style="enable-background:new 0 0 24 24;" xml:space="preserve">
<path style="fill:#333333;" d="M10.5,23H5c-1.103,0-2-0.897-2-2V3c0-1.103,0.897-2,2-2h14c1.103,0,2,0.897,2,2v10.5h-2V3H5v18h5.5
	V23z"/>
<rect x="8.5" y="5" style="fill:#333333;" width="7" height="2"/>
<rect x="8.5" y="9" style="fill:#333333;" width="7" height="2"/>
<rect x="8.5" y="13" style="fill:#333333;" width="3" height="2"/>
<path style="fill:none;" d="M18.5,18.5c0,0.69-0.28,1.315-0.732,1.768C17.315,20.72,16.69,21,16,21c-1.381,0-2.5-1.119-2.5-2.5
	S14.619,16,16,16S18.5,17.119,18.5,18.5z"/>
<path style="fill:#333333;" d="M18.793,22.707l-1.127-1.127C17.16,21.854,16.591,22,16,22c-1.93,0-3.5-1.57-3.5-3.5S14.07,15,16,15
	s3.5,1.57,3.5,3.5c0,0.591-0.146,1.16-0.42,1.666l1.127,1.127L18.793,22.707z M16,17c-0.827,0-1.5,0.673-1.5,1.5S15.173,20,16,20
	c0.4,0,0.777-0.156,1.061-0.439S17.5,18.9,17.5,18.5C17.5,17.673,16.827,17,16,17z"/>
</svg>






