<?xml version="1.0" encoding="iso-8859-1"?>
<svg version="1.1" id="&#x56FE;&#x5C42;_1" xmlns="http://www.w3.org/2000/svg" xmlns:xlink="http://www.w3.org/1999/xlink" x="0px"
	 y="0px" viewBox="0 0 24 24" style="enable-background:new 0 0 24 24;" xml:space="preserve">
<path style="fill:#333333;" d="M19,23H5c-1.103,0-2-0.897-2-2V3c0-1.103,0.897-2,2-2h14c1.103,0,2,0.897,2,2v18
	C21,22.103,20.103,23,19,23z M5,3v18h14V3H5z"/>
<path style="fill:none;" d="M14,8c0,0.69-0.28,1.315-0.732,1.768C12.815,10.22,12.19,10.5,11.5,10.5C10.119,10.5,9,9.381,9,8
	s1.119-2.5,2.5-2.5S14,6.619,14,8z"/>
<path style="fill:#333333;" d="M14.293,12.207l-1.127-1.127c-0.506,0.274-1.074,0.42-1.666,0.42C9.57,11.5,8,9.93,8,8
	s1.57-3.5,3.5-3.5S15,6.07,15,8c0,0.591-0.146,1.16-0.42,1.666l1.127,1.127L14.293,12.207z M11.5,6.5C10.673,6.5,10,7.173,10,8
	s0.673,1.5,1.5,1.5c0.401,0,0.777-0.156,1.061-0.439v0C12.844,8.777,13,8.4,13,8C13,7.173,12.327,6.5,11.5,6.5z"/>
<rect x="8.5" y="14" style="fill:#333333;" width="7" height="2"/>
<rect x="8.5" y="17" style="fill:#333333;" width="3.5" height="2"/>
</svg>






