<?xml version="1.0" encoding="iso-8859-1"?>
<svg version="1.1" id="&#x56FE;&#x5C42;_1" xmlns="http://www.w3.org/2000/svg" xmlns:xlink="http://www.w3.org/1999/xlink" x="0px"
	 y="0px" viewBox="0 0 24 24" style="enable-background:new 0 0 24 24;" xml:space="preserve">
<path style="fill:#333333;" d="M4,22H2V9.5c0-3.074,2.18-5.502,7.526-8.38L11,0.326V5.5h3.5v4h-2v-2H9V3.714
	C4.632,6.322,4,8.095,4,9.5V22z"/>
<path style="fill:#333333;" d="M17.103,22.945c-0.405,0-0.754-0.062-1.027-0.139c-1.31-0.365-2.363-1.451-2.562-2.643
	c-0.742-4.452-3.983-5.891-5.919-6.75l0.812-1.828c2,0.888,6.162,2.734,7.081,8.25c0.052,0.309,0.445,0.854,1.125,1.044
	c0.948,0.266,2.057-0.28,3.13-1.53c0.335-0.361,0.475-0.729,0.399-1.015c-0.107-0.414-0.678-0.814-1.564-1.099l0.611-1.904
	c2.019,0.646,2.685,1.716,2.889,2.499c0.252,0.967-0.056,2.006-0.845,2.852C19.675,22.499,18.186,22.945,17.103,22.945z"/>
<path style="fill:#333333;" d="M9.5,22h-2c0-1.402,0.521-2.609,1.508-3.491c1.42-1.268,3.647-1.66,5.104-1.503l-0.225,1.988
	c-0.831-0.099-2.528,0.097-3.547,1.007C9.775,20.506,9.5,21.16,9.5,22z"/>
</svg>






