<?xml version="1.0" encoding="iso-8859-1"?>
<svg version="1.1" id="&#x56FE;&#x5C42;_1" xmlns="http://www.w3.org/2000/svg" xmlns:xlink="http://www.w3.org/1999/xlink" x="0px"
	 y="0px" viewBox="0 0 24 24" style="enable-background:new 0 0 24 24;" xml:space="preserve">
<path style="fill:#333333;" d="M3.506,9.11C3.049,4.996,5.692,2.124,7.141,1.566l0.921-0.354l1.367,3.416L7.571,5.372l-0.52-1.299
	C6.24,4.935,5.241,6.608,5.494,8.89L3.506,9.11z"/>
<path style="fill:#333333;" d="M20.494,9.11L18.506,8.89c0.254-2.281-0.746-3.955-1.558-4.817l-0.52,1.299l-1.857-0.743l1.366-3.416
	l0.922,0.354C18.309,2.124,20.951,4.997,20.494,9.11z"/>
<path style="fill:#333333;" d="M12,22.5c-6.075,0-10-3.238-10-8.25C2,9.175,6.276,3.5,12,3.5s10,5.675,10,10.75
	C22,19.262,18.075,22.5,12,22.5z M12,5.5c-4.579,0-8,4.62-8,8.75c0,4.608,4.132,6.25,8,6.25c3.867,0,8-1.642,8-6.25
	C20,10.12,16.579,5.5,12,5.5z"/>
<circle style="fill:#333333;" cx="10" cy="8.5" r="1"/>
<circle style="fill:#333333;" cx="14" cy="8.5" r="1"/>
<path style="fill:#333333;" d="M10.5,16.75c-1.378,0-2.5-1.121-2.5-2.5h2c0,0.275,0.224,0.5,0.5,0.5c0.094,0,0.261-0.01,0.327-0.077
	c0.21-0.216,0.189-0.99,0.179-1.362L11,13h2l0.005,0.256c0.021,0.745,0.054,1.991-0.745,2.812
	C11.957,16.379,11.406,16.75,10.5,16.75z"/>
<path style="fill:#333333;" d="M13.513,16.75c-0.906,0-1.457-0.371-1.76-0.683c-0.799-0.82-0.765-2.066-0.745-2.811L11.013,13h2
	l-0.006,0.311c-0.01,0.372-0.031,1.146,0.179,1.361c0.065,0.068,0.233,0.078,0.327,0.078c0.275,0,0.5-0.225,0.5-0.5h2
	C16.013,15.629,14.892,16.75,13.513,16.75z"/>
<path style="fill:#333333;" d="M12,14.882l-0.468-0.248C10,13.821,10,13.109,10,12.875c0-0.75,0.524-1.625,2-1.625
	c1.477,0,2,0.875,2,1.625c0,0.234,0,0.946-1.531,1.759L12,14.882z"/>
</svg>






