<?xml version="1.0" encoding="iso-8859-1"?>
<svg version="1.1" id="&#x56FE;&#x5C42;_1" xmlns="http://www.w3.org/2000/svg" xmlns:xlink="http://www.w3.org/1999/xlink" x="0px"
	 y="0px" viewBox="0 0 24 24" style="enable-background:new 0 0 24 24;" xml:space="preserve">
<path style="fill:#333333;" d="M15.947,22.395l-1.405-1.181c0.245-0.819,0.761-2.378,1.303-3.604
	c-1.458-2.014-3.786-5.192-6.865-6.791c-0.279,0.617-0.458,1.087-0.483,1.242L6.571,12.37L7.5,12l-0.974,0.259
	c-0.194-0.478-0.668-1.646-0.921-3.014c-0.553-0.189-1.18-0.393-1.688-0.557l-0.734-0.24C2.226,8.1,1.255,7.378,1.324,6.374
	c0.078-1.125,1.305-1.568,2.081-1.763c1.005-1.401,3.625-4.648,8.531-2.27c0.826-0.498,2.288-1.101,4.013-0.234l1.392,0.698
	l-1.213,0.975c0,0,0.001-0.001,0.001-0.001c0.008,0-0.183,0.259-0.482,1.305c1.911,1.519,4.6,5.28,4.379,11.438
	C21.296,17.521,23,19.197,23,21v1.326l-4.4-1.258L15.947,22.395z M18.083,17.568l-0.188,0.377c-0.224,0.449-0.455,1.009-0.668,1.573
	l1.173-0.587l1.825,0.521c-0.446-0.532-1.068-1.101-1.814-1.646L18.083,17.568z M8.016,8.228l0.856,0.344
	c4.087,1.641,6.948,5.593,8.657,7.956l0.459,0.631l0.014-0.221c0.403-6.486-2.759-9.834-4.012-10.577L13.35,5.98l0.18-0.722
	c0.165-0.661,0.32-1.174,0.468-1.578c-0.518,0.051-0.981,0.322-1.414,0.632L12.069,4.68l-0.552-0.305
	C7.56,2.193,5.826,4.648,4.895,5.966L4.59,6.396L4.21,6.478C4.075,6.507,3.956,6.536,3.853,6.564l0.68,0.221
	c0.71,0.23,1.646,0.533,2.311,0.775L7.417,7.77l0.076,0.606c0.029,0.23,0.067,0.457,0.112,0.679c0,0,0,0,0,0L8.016,8.228z"/>
<circle style="fill:#333333;" cx="8" cy="5.5" r="1"/>
</svg>






