<?xml version="1.0" encoding="iso-8859-1"?>
<svg version="1.1" id="&#x56FE;&#x5C42;_1" xmlns="http://www.w3.org/2000/svg" xmlns:xlink="http://www.w3.org/1999/xlink" x="0px"
	 y="0px" viewBox="0 0 24 24" style="enable-background:new 0 0 24 24;" xml:space="preserve">
<path style="fill:#333333;" d="M22.911,14.938H1.361v-0.979c0-5.941,4.833-10.775,10.775-10.775s10.775,4.834,10.775,10.775V14.938z
	 M3.374,12.979h17.524c-0.489-4.402-4.232-7.837-8.763-7.837C7.606,5.143,3.863,8.578,3.374,12.979z"/>
<rect x="11.156" y="2.204" style="fill:#333333;" width="1.959" height="1.959"/>
<path style="fill:#333333;" d="M12.136,19.837c-3.241,0-5.877-2.637-5.877-5.878v-0.979h11.755v0.979
	C18.014,17.2,15.377,19.837,12.136,19.837z M8.342,14.938c0.436,1.688,1.972,2.939,3.794,2.939s3.358-1.251,3.795-2.939H8.342z"/>
<rect x="18.503" y="17.729" transform="matrix(0.8193 -0.5733 0.5733 0.8193 -7.1508 14.5324)" style="fill:#333333;" width="1.959" height="1.766"/>
<rect x="3.906" y="17.632" transform="matrix(0.7076 -0.7066 0.7066 0.7076 -11.7513 8.8261)" style="fill:#333333;" width="1.766" height="1.96"/>
<rect x="15.774" y="19.925" transform="matrix(0.8194 -0.5732 0.5732 0.8194 -8.6764 13.2895)" style="fill:#333333;" width="1.959" height="0.98"/>
<rect x="6.957" y="19.436" transform="matrix(0.7069 -0.7074 0.7074 0.7069 -12.2577 11.2522)" style="fill:#333333;" width="0.98" height="1.959"/>
</svg>






