<?xml version="1.0" encoding="iso-8859-1"?>
<svg version="1.1" id="&#x56FE;&#x5C42;_1" xmlns="http://www.w3.org/2000/svg" xmlns:xlink="http://www.w3.org/1999/xlink" x="0px"
	 y="0px" viewBox="0 0 24 24" style="enable-background:new 0 0 24 24;" xml:space="preserve">
<path style="fill-rule:evenodd;clip-rule:evenodd;fill:#333333;" d="M19.08,16.78c-2.158-0.76-4.476-1.158-6.859-1.158
	c-2.53,0-4.984,0.448-7.251,1.3C5.169,17.474,5.43,18,5.748,18.493L3.228,20.12C2.107,18.383,1.5,16.348,1.5,14.224
	C1.5,8.31,6.193,3.5,12,3.5s10.5,4.81,10.5,10.724c0,2.217-0.662,4.337-1.877,6.12l-2.479-1.689
	C18.54,18.075,18.854,17.445,19.08,16.78z M19.3,12.442C18.518,9.031,15.54,6.5,12,6.5c-3.586,0-6.594,2.596-7.329,6.075
	c-0.118,0.665,0.062,1.244,0.556,1.091c2.227-0.687,4.583-1.043,6.994-1.043c2.328,0,4.606,0.333,6.766,0.974
	c0.427,0.127,0.491-0.408,0.321-1.113C19.304,12.469,19.301,12.455,19.3,12.442z"/>
</svg>






