<?xml version="1.0" encoding="iso-8859-1"?>
<svg version="1.1" id="&#x56FE;&#x5C42;_1" xmlns="http://www.w3.org/2000/svg" xmlns:xlink="http://www.w3.org/1999/xlink" x="0px"
	 y="0px" viewBox="0 0 24 24" style="enable-background:new 0 0 24 24;" xml:space="preserve">
<path style="fill:#333333;" d="M15,23H4c-1.103,0-2-0.897-2-2V3c0-1.103,0.897-2,2-2h11c1.103,0,2,0.897,2,2v18
	C17,22.103,16.103,23,15,23z M4,3H3.999L4,21h11V3H4z"/>
<rect x="7" y="16" style="fill:#333333;" width="5" height="2"/>
<path style="fill:#333333;" d="M9.5,12C7.57,12,6,10.43,6,8.5S7.57,5,9.5,5c0.917,0,1.799,0.367,2.449,1H22v5H11.949
	C11.299,11.633,10.417,12,9.5,12z M9.5,7C8.673,7,8,7.673,8,8.5S8.673,10,9.5,10c0.477,0,0.914-0.219,1.2-0.601L11,9h9V8h-9
	l-0.3-0.399C10.414,7.219,9.977,7,9.5,7z"/>
</svg>






