<?xml version="1.0" encoding="iso-8859-1"?>
<svg version="1.1" id="&#x56FE;&#x5C42;_1" xmlns="http://www.w3.org/2000/svg" xmlns:xlink="http://www.w3.org/1999/xlink" x="0px"
	 y="0px" viewBox="0 0 24 24" style="enable-background:new 0 0 24 24;" xml:space="preserve">
<g>
	<path style="fill:#333333;" d="M12,16.5c2.485,0,4.5-2.015,4.5-4.5S14.485,7.5,12,7.5S7.5,9.515,7.5,12S9.515,16.5,12,16.5z"/>
	<path style="fill:#333333;" d="M12,17.5c-3.033,0-5.5-2.468-5.5-5.5c0-3.033,2.467-5.5,5.5-5.5c3.032,0,5.5,2.467,5.5,5.5
		C17.5,15.032,15.032,17.5,12,17.5z M12,8.5c-1.93,0-3.5,1.57-3.5,3.5s1.57,3.5,3.5,3.5s3.5-1.57,3.5-3.5S13.93,8.5,12,8.5z"/>
</g>
</svg>






