<?xml version="1.0" encoding="iso-8859-1"?>
<svg version="1.1" id="&#x56FE;&#x5C42;_1" xmlns="http://www.w3.org/2000/svg" xmlns:xlink="http://www.w3.org/1999/xlink" x="0px"
	 y="0px" viewBox="0 0 24 24" style="enable-background:new 0 0 24 24;" xml:space="preserve">
<path style="fill:#333333;" d="M12,22.5C6.21,22.5,1.5,17.79,1.5,12C1.5,6.21,6.21,1.5,12,1.5c5.79,0,10.5,4.71,10.5,10.5
	C22.5,17.79,17.79,22.5,12,22.5z M12,3.5c-4.687,0-8.5,3.813-8.5,8.5c0,4.687,3.813,8.5,8.5,8.5c4.687,0,8.5-3.813,8.5-8.5
	C20.5,7.313,16.687,3.5,12,3.5z"/>
<path style="fill:#333333;" d="M12,16.5c-2.481,0-4.5-2.019-4.5-4.5S9.519,7.5,12,7.5s4.5,2.019,4.5,4.5S14.481,16.5,12,16.5z
	 M12,9.5c-1.378,0-2.5,1.122-2.5,2.5c0,1.379,1.122,2.5,2.5,2.5c1.379,0,2.5-1.121,2.5-2.5C14.5,10.622,13.379,9.5,12,9.5z"/>
<path style="fill:#333333;" d="M8.009,15.325c-0.686,0-1.563-0.241-2.609-1.025c-0.617-0.464-1.735,0.447-1.746,0.457l-1.312-1.51
	C3.198,12.498,5.06,11.543,6.6,12.7c0.974,0.729,1.562,0.679,1.739,0.551l1.368,1.456C9.667,14.747,9.069,15.325,8.009,15.325z"/>
<path style="fill:#333333;" d="M15.332,15.055l-1.664-1.109c0.537-0.808,2.66-2.749,4.726-1.864c1.306,0.561,2.12,0.144,2.228,0.038
	C20.59,12.15,20.5,12.286,20.5,12.5h2c0,0.503-0.291,0.972-0.82,1.321c-0.82,0.541-2.322,0.85-4.073,0.098
	C16.791,13.571,15.557,14.719,15.332,15.055z"/>
</svg>






