<?xml version="1.0" encoding="iso-8859-1"?>
<svg version="1.1" id="&#x56FE;&#x5C42;_1" xmlns="http://www.w3.org/2000/svg" xmlns:xlink="http://www.w3.org/1999/xlink" x="0px"
	 y="0px" viewBox="0 0 24 24" style="enable-background:new 0 0 24 24;" xml:space="preserve">
<path style="fill:#333333;" d="M20.834,17.977l-1.15-1.637c1.293-0.908,1.84-2.531,1.363-4.038
	c-0.436-1.376-1.816-2.265-3.517-2.265c-0.001,0-0.002,0-0.003,0h-1.937l-0.193-0.751c-0.651-2.538-2.837-4.444-5.44-4.743
	c-2.611-0.305-5.165,1.06-6.376,3.382c-1.211,2.323-0.858,5.202,0.878,7.164l-1.498,1.326C0.68,13.836,0.217,10.053,1.808,7
	c1.591-3.053,4.956-4.839,8.378-4.445c3.157,0.364,5.849,2.527,6.917,5.482h0.423c0.002,0,0.004,0,0.005,0
	c2.59,0,4.718,1.437,5.422,3.661C23.695,14.041,22.844,16.563,20.834,17.977z"/>
<rect x="11.002" y="11.5" style="fill:#333333;" width="2" height="9"/>
<polygon style="fill:#333333;" points="12,21.914 8.111,18.025 9.525,16.611 12,19.086 14.475,16.611 15.889,18.025 "/>
</svg>






