<?xml version="1.0" encoding="iso-8859-1"?>
<svg version="1.1" id="&#x56FE;&#x5C42;_1" xmlns="http://www.w3.org/2000/svg" xmlns:xlink="http://www.w3.org/1999/xlink" x="0px"
	 y="0px" viewBox="0 0 24 24" style="enable-background:new 0 0 24 24;" xml:space="preserve">
<g>
	<defs>
		<rect id="SVGID_1_" width="24" height="24"/>
	</defs>
	<clipPath id="SVGID_00000053534307980931746830000004469063784511016849_">
		<use xlink:href="#SVGID_1_"  style="overflow:visible;"/>
	</clipPath>
	<g style="clip-path:url(#SVGID_00000053534307980931746830000004469063784511016849_);">
		<path style="fill:#333333;" d="M17.718,21.954l-1.414-1.414l1.87-1.87c0.377-0.378,0.585-0.88,0.585-1.414
			s-0.208-1.036-0.585-1.414c-0.78-0.78-2.05-0.778-2.829,0l-1.115,1.115l-1.414-1.414l1.115-1.115c1.562-1.562,4.098-1.56,5.657,0
			c0.755,0.755,1.171,1.76,1.171,2.828s-0.416,2.073-1.171,2.828L17.718,21.954z"/>
		<path style="fill:#333333;" d="M9.244,13.457L7.83,12.043l3.272-3.272c0.378-0.378,0.586-0.88,0.586-1.415
			S11.48,6.32,11.103,5.942c-0.756-0.756-2.073-0.756-2.829,0L4.738,9.478L3.324,8.063L6.86,4.528
			c0.755-0.756,1.76-1.172,2.828-1.172c1.069,0,2.073,0.416,2.829,1.172c0.756,0.755,1.172,1.76,1.172,2.828
			s-0.416,2.073-1.172,2.829L9.244,13.457z"/>
		<path style="fill:#333333;" d="M6.506,23.024c-1.069,0-2.073-0.416-2.829-1.172c-1.559-1.56-1.559-4.098,0-5.657l4.153-4.152
			l1.414,1.414l-4.153,4.152c-0.779,0.78-0.779,2.049,0,2.829c0.756,0.756,2.072,0.756,2.829,0l4.883-4.883l1.414,1.414
			l-4.883,4.883C8.579,22.608,7.575,23.024,6.506,23.024z"/>
		<rect x="5.5" y="2" style="fill:#333333;" width="2" height="4"/>
		
			<rect x="18.482" y="12.75" transform="matrix(0.7071 -0.7071 0.7071 0.7071 -3.7916 18.3462)" style="fill:#333333;" width="3.536" height="2"/>
	</g>
</g>
</svg>






