<?xml version="1.0" encoding="iso-8859-1"?>
<svg version="1.1" id="&#x56FE;&#x5C42;_1" xmlns="http://www.w3.org/2000/svg" xmlns:xlink="http://www.w3.org/1999/xlink" x="0px"
	 y="0px" viewBox="0 0 24 24" style="enable-background:new 0 0 24 24;" xml:space="preserve">
<path style="fill-rule:evenodd;clip-rule:evenodd;fill:#333333;" d="M9.5,5c0,1.105-0.895,2-2,2s-2-0.895-2-2c0-1.105,0.895-2,2-2
	S9.5,3.895,9.5,5z M7.5,14c1.105,0,2-0.895,2-2s-0.895-2-2-2s-2,0.895-2,2S6.395,14,7.5,14z M7.5,21c1.105,0,2-0.895,2-2
	s-0.895-2-2-2s-2,0.895-2,2S6.395,21,7.5,21z"/>
<path style="fill-rule:evenodd;clip-rule:evenodd;fill:#333333;" d="M18.5,5c0,1.105-0.895,2-2,2s-2-0.895-2-2c0-1.105,0.895-2,2-2
	S18.5,3.895,18.5,5z M16.5,14c1.105,0,2-0.895,2-2s-0.895-2-2-2s-2,0.895-2,2S15.395,14,16.5,14z M16.5,21c1.105,0,2-0.895,2-2
	s-0.895-2-2-2s-2,0.895-2,2S15.395,21,16.5,21z"/>
</svg>






