<?xml version="1.0" encoding="iso-8859-1"?>
<svg version="1.1" id="&#x56FE;&#x5C42;_1" xmlns="http://www.w3.org/2000/svg" xmlns:xlink="http://www.w3.org/1999/xlink" x="0px"
	 y="0px" viewBox="0 0 24 24" style="enable-background:new 0 0 24 24;" xml:space="preserve">
<path style="fill:#333333;" d="M12,23C5.935,23,1,18.065,1,12c0-2.833,1.074-5.523,3.025-7.577C6.123,2.216,8.955,1,12,1
	c2.93,0,5.686,1.138,7.762,3.205C21.85,6.285,23,9.053,23,12c0,2.946-1.15,5.715-3.238,7.795C17.685,21.862,14.929,23,12,23z M12,3
	C9.509,3,7.191,3.995,5.475,5.801C3.879,7.481,3,9.682,3,12c0,4.963,4.038,9,9,9c2.396,0,4.651-0.931,6.351-2.622
	C20.059,16.676,21,14.411,21,12s-0.941-4.676-2.65-6.378C16.651,3.931,14.396,3,12,3z"/>
<path style="fill:#333333;" d="M5.733,19.671L4.13,18.476c1.369-1.837,4.385-4.604,8.381-6.36c3.213-1.41,6.717-1.24,8.603-1.148
	C21.468,10.985,21.769,11,22,11v2c-0.257,0-0.59-0.016-0.984-0.035c-1.84-0.089-4.917-0.24-7.7,0.982
	C9.676,15.545,6.957,18.029,5.733,19.671z"/>
<path style="fill:#333333;" d="M15.555,21.139c-0.079-0.349-0.172-0.926-0.288-1.656c-0.32-2.008-0.803-5.043-1.711-7.654
	c-1.15-3.308-4.303-6.815-5.984-8.367l1.356-1.47c0.501,0.462,4.94,4.647,6.516,9.179c0.967,2.778,1.486,6.045,1.797,7.997
	c0.107,0.674,0.191,1.207,0.265,1.527L15.555,21.139z"/>
<path style="fill:#333333;" d="M4.212,11.811c-0.961,0-1.739-0.035-2.195-0.063l0.12-1.996c1.044,0.063,6.411,0.306,9.636-1.071
	c2.756-1.177,5.166-3.25,6.324-4.247l0.321-0.275l1.291,1.528L19.402,5.95c-1.139,0.979-3.803,3.271-6.844,4.57
	C10.038,11.597,6.572,11.811,4.212,11.811z"/>
<path style="fill:#333333;" d="M6.774,21.682c-2.228-1.205-3.986-3.156-4.949-5.494l1.85-0.762c0.788,1.913,2.227,3.51,4.051,4.496
	L6.774,21.682z"/>
<path style="fill:#333333;" d="M3,12H1c0-2.833,1.074-5.523,3.025-7.576l1.449,1.378C3.879,7.481,3,9.682,3,12z"/>
<path style="fill:#333333;" d="M5.475,5.801l-1.45-1.378C6.123,2.216,8.955,1,12,1v2C9.509,3,7.191,3.995,5.475,5.801z"/>
<path style="fill:#333333;" d="M22.307,15.85l-1.873-0.699C20.81,14.144,21,13.084,21,12c0-2.411-0.941-4.676-2.65-6.378
	c-0.797-0.794-1.723-1.425-2.75-1.874L16.4,1.916c1.256,0.549,2.387,1.319,3.361,2.29C21.85,6.285,23,9.053,23,12
	C23,13.324,22.767,14.619,22.307,15.85z"/>
<path style="fill:#333333;" d="M12,23v-2c2.396,0,4.651-0.931,6.351-2.622l1.41,1.418C17.685,21.862,14.929,23,12,23z"/>
</svg>






