<?xml version="1.0" encoding="iso-8859-1"?>
<svg version="1.1" id="&#x56FE;&#x5C42;_1" xmlns="http://www.w3.org/2000/svg" xmlns:xlink="http://www.w3.org/1999/xlink" x="0px"
	 y="0px" viewBox="0 0 24 24" style="enable-background:new 0 0 24 24;" xml:space="preserve">
<rect x="5" y="7" style="fill:#333333;" width="14" height="2"/>
<path style="fill:#333333;" d="M15.069,23H8.931c-1.044,0-1.92-0.815-1.995-1.857l-0.857-12C6.04,8.591,6.233,8.042,6.61,7.637
	C6.987,7.232,7.521,7,8.074,7h7.852c0.554,0,1.087,0.232,1.464,0.637s0.57,0.953,0.531,1.505l-0.857,12
	C16.99,22.184,16.114,23,15.069,23z M8.074,9l0.857,12h6.138l0.857-12H8.074z"/>
<path style="fill:#333333;" d="M13,5h-2V3c0-1.103,0.897-2,2-2h1.5v2H13V5z"/>
<path style="fill:#333333;" d="M18.181,9H5.819l0.555-3.329C6.536,4.703,7.365,4,8.347,4h7.306c0.98,0,1.81,0.702,1.973,1.669
	L18.181,9z M8.181,7h7.639l-0.166-1L8.347,6L8.181,7z"/>
</svg>






