<?xml version="1.0" encoding="iso-8859-1"?>
<svg version="1.1" id="&#x56FE;&#x5C42;_1" xmlns="http://www.w3.org/2000/svg" xmlns:xlink="http://www.w3.org/1999/xlink" x="0px"
	 y="0px" viewBox="0 0 24 24" style="enable-background:new 0 0 24 24;" xml:space="preserve">
<path style="fill:#333333;" d="M12,22.5c-2.404,0-4.664-0.936-6.364-2.636S3,15.903,3,13.5c0-2.404,0.936-4.664,2.636-6.364
	C7.336,5.436,9.596,4.5,12,4.5c2.403,0,4.664,0.936,6.364,2.636S21,11.096,21,13.5c0,2.403-0.936,4.663-2.636,6.364
	C16.663,21.564,14.403,22.5,12,22.5z M12,6.5c-1.87,0-3.627,0.728-4.95,2.05S5,11.63,5,13.5c0,1.869,0.728,3.628,2.05,4.95
	c1.322,1.321,3.08,2.05,4.95,2.05c1.869,0,3.627-0.729,4.95-2.05C18.271,17.127,19,15.369,19,13.5c0-1.87-0.729-3.627-2.05-4.95
	C15.628,7.228,13.869,6.5,12,6.5z"/>
<path style="fill:#333333;" d="M19.071,6.429C17.183,4.54,14.671,3.5,12,3.5S6.818,4.54,4.929,6.429L3.515,5.015
	C5.781,2.748,8.795,1.5,12,1.5s6.219,1.248,8.485,3.515L19.071,6.429z"/>
</svg>






