<?xml version="1.0" encoding="iso-8859-1"?>
<svg version="1.1" id="&#x56FE;&#x5C42;_1" xmlns="http://www.w3.org/2000/svg" xmlns:xlink="http://www.w3.org/1999/xlink" x="0px"
	 y="0px" viewBox="0 0 24 24" style="enable-background:new 0 0 24 24;" xml:space="preserve">
<path style="fill:#333333;" d="M10.5,21c-2.404,0-4.664-0.936-6.364-2.636S1.5,14.403,1.5,12c0-2.404,0.936-4.664,2.636-6.364
	C5.836,3.936,8.096,3,10.5,3c2.403,0,4.664,0.936,6.364,2.636S19.5,9.596,19.5,12c0,2.403-0.936,4.663-2.636,6.364
	C15.163,20.064,12.903,21,10.5,21z M10.5,5C8.63,5,6.873,5.728,5.55,7.05S3.5,10.13,3.5,12c0,1.869,0.728,3.628,2.05,4.95
	C6.873,18.271,8.63,19,10.5,19c1.869,0,3.627-0.729,4.95-2.05c1.321-1.323,2.05-3.081,2.05-4.95c0-1.87-0.729-3.627-2.05-4.95
	C14.128,5.728,12.369,5,10.5,5z"/>
<path style="fill:#333333;" d="M18.985,20.485l-1.414-1.414C19.46,17.182,20.5,14.67,20.5,12c0-2.671-1.04-5.182-2.929-7.071
	l1.414-1.414C21.252,5.782,22.5,8.795,22.5,12C22.5,15.204,21.252,18.218,18.985,20.485z"/>
</svg>






