<?xml version="1.0" encoding="iso-8859-1"?>
<svg version="1.1" id="&#x56FE;&#x5C42;_1" xmlns="http://www.w3.org/2000/svg" xmlns:xlink="http://www.w3.org/1999/xlink" x="0px"
	 y="0px" viewBox="0 0 24 24" style="enable-background:new 0 0 24 24;" xml:space="preserve">
<path style="fill:#333333;" d="M13.5,21c-2.404,0-4.664-0.936-6.364-2.636S4.5,14.403,4.5,12c0-2.404,0.936-4.664,2.636-6.364
	C8.836,3.936,11.096,3,13.5,3c2.403,0,4.664,0.936,6.364,2.636S22.5,9.596,22.5,12c0,2.403-0.936,4.663-2.636,6.364
	C18.163,20.064,15.903,21,13.5,21z M13.5,5c-1.87,0-3.627,0.728-4.95,2.05S6.5,10.13,6.5,12c0,1.869,0.728,3.628,2.05,4.95
	C9.873,18.271,11.63,19,13.5,19c1.869,0,3.627-0.729,4.95-2.05c1.321-1.323,2.05-3.081,2.05-4.95c0-1.87-0.729-3.627-2.05-4.95
	C17.128,5.728,15.369,5,13.5,5z"/>
<path style="fill:#333333;" d="M5.014,20.485C2.748,18.218,1.5,15.204,1.5,12c0-3.205,1.248-6.218,3.515-8.485l1.414,1.414
	C4.54,6.818,3.5,9.329,3.5,12c0,2.67,1.04,5.182,2.929,7.071L5.014,20.485z"/>
</svg>






