<?xml version="1.0" encoding="iso-8859-1"?>
<svg version="1.1" id="&#x56FE;&#x5C42;_1" xmlns="http://www.w3.org/2000/svg" xmlns:xlink="http://www.w3.org/1999/xlink" x="0px"
	 y="0px" viewBox="0 0 24 24" style="enable-background:new 0 0 24 24;" xml:space="preserve">
<path style="fill:#333333;" d="M5.661,22.566l-4.243-4.242l0.565-1.697l6.27-0.896l-0.896,6.27L5.661,22.566z M4.247,18.324
	l1.414,1.414l0.235-1.649L4.247,18.324z"/>
<path style="fill:#333333;" d="M11.318,19.664c-1.792,0-3.585-0.683-4.95-2.047c-1.322-1.322-2.05-3.08-2.05-4.949
	c0-1.87,0.728-3.628,2.05-4.95l4.949-4.95l1.414,1.414l-4.949,4.95c-0.944,0.944-1.464,2.2-1.464,3.536
	c0,1.335,0.52,2.591,1.464,3.535c1.951,1.949,5.123,1.949,7.071,0l4.949-4.95l1.414,1.415l-4.949,4.949
	C14.903,18.981,13.11,19.664,11.318,19.664z"/>
<path style="fill:#333333;" d="M18.692,13.625c-1.746,0-3.838-0.957-5.606-2.726c-1.257-1.256-2.157-2.74-2.535-4.177
	c-0.428-1.627-0.156-3.031,0.768-3.954C12.239,1.844,13.643,1.571,15.272,2c1.437,0.378,2.921,1.278,4.177,2.535l0,0l0,0
	c2.775,2.775,3.553,6.347,1.769,8.131C20.57,13.314,19.688,13.625,18.692,13.625z M13.849,3.805c-0.479,0-0.867,0.127-1.116,0.377
	c-0.394,0.394-0.483,1.134-0.248,2.031c0.286,1.084,1.021,2.277,2.016,3.272c2.084,2.083,4.467,2.603,5.304,1.768
	c0.836-0.836,0.315-3.22-1.769-5.303l0,0c-0.995-0.995-2.188-1.73-3.272-2.015C14.435,3.848,14.126,3.805,13.849,3.805z"/>
<circle style="fill:#333333;" cx="15.03" cy="5.699" r="1"/>
<circle style="fill:#333333;" cx="18.566" cy="9.235" r="1"/>
<circle style="fill:#333333;" cx="15.737" cy="8.528" r="1"/>
</svg>






