<?xml version="1.0" encoding="iso-8859-1"?>
<svg version="1.1" id="&#x56FE;&#x5C42;_1" xmlns="http://www.w3.org/2000/svg" xmlns:xlink="http://www.w3.org/1999/xlink" x="0px"
	 y="0px" viewBox="0 0 24 24" style="enable-background:new 0 0 24 24;" xml:space="preserve">
<path style="fill:#333333;" d="M11.31,23.028c-2.703,0-6.655-1.06-8.38-3.711c-0.809-1.245-1.433-3.348,0.194-6.3
	c0.031-0.08,0.194-0.446,1.858-2.668c-3.513-2.12-3.824-3.17-3.941-3.566l1.333-1.211c0.51,0.205,1.597-0.366,2.779-2.104
	C6.4,1.337,8.94,0.496,11.349,1.426c2.016,0.778,3.765,2.87,3.128,5.787c-0.426,1.652-1.317,2.328-1.906,2.775
	c-0.378,0.287-0.507,0.398-0.561,0.575c0.207,0.389,1.305,1.251,2.794,1.401c1.439,0.148,3.532-0.34,5.329-3.463l1.764,0.056
	c1.134,2.299,1.557,6.188-0.196,9.298c-1.165,2.067-3.779,4.638-9.614,5.141C11.842,23.018,11.582,23.028,11.31,23.028z
	 M4.017,7.269c0.46,0.353,1.096,0.784,1.954,1.289c0.505,0.297,0.86,0.797,0.976,1.373c0.114,0.568-0.019,1.158-0.364,1.619
	c-1.448,1.934-1.652,2.325-1.671,2.363c-0.958,1.744-1.048,3.173-0.305,4.315c1.369,2.105,5.12,2.965,7.307,2.777
	c3.986-0.344,6.693-1.733,8.044-4.131c1.047-1.855,1.069-4.009,0.728-5.659c-3.021,3.633-6.544,2.78-7.658,2.385
	c-1.626-0.581-3.235-1.921-3.014-3.262c0.174-1.052,0.825-1.545,1.348-1.942c0.498-0.377,0.927-0.703,1.171-1.645
	c0.4-1.842-0.719-3-1.904-3.458C9.377,2.809,7.731,2.996,6.867,4.499L6.829,4.56C5.806,6.074,4.843,6.874,4.017,7.269z"/>
<path style="fill:#333333;" d="M14.142,18.746c-0.276,0-0.556-0.018-0.838-0.054c-1.841-0.237-3.654-1.262-4.618-2.611l1.628-1.162
	c0.52,0.728,1.757,1.599,3.246,1.79c1.221,0.156,2.333-0.172,3.3-0.978l1.281,1.537C16.971,18.243,15.602,18.746,14.142,18.746z"/>
<circle style="fill:#333333;" cx="8.5" cy="6" r="1"/>
</svg>






