<?xml version="1.0" encoding="iso-8859-1"?>
<svg version="1.1" id="&#x56FE;&#x5C42;_1" xmlns="http://www.w3.org/2000/svg" xmlns:xlink="http://www.w3.org/1999/xlink" x="0px"
	 y="0px" viewBox="0 0 24 24" style="enable-background:new 0 0 24 24;" xml:space="preserve">
<path style="fill:#333333;" d="M5.5,19.5c-1.378,0-2.5-1.031-2.5-2.3V6.8c0-1.268,1.122-2.3,2.5-2.3S8,5.532,8,6.8v10.4
	C8,18.469,6.878,19.5,5.5,19.5z M5.5,6.5C5.195,6.5,5,6.678,5,6.8v10.4c0,0.122,0.195,0.3,0.5,0.3S6,17.322,6,17.2V6.8
	C6,6.678,5.805,6.5,5.5,6.5z"/>
<path style="fill:#333333;" d="M18.5,19.5c-1.379,0-2.5-1.031-2.5-2.3V6.8c0-1.268,1.121-2.3,2.5-2.3S21,5.532,21,6.8v10.4
	C21,18.469,19.879,19.5,18.5,19.5z M18.5,6.5c-0.306,0-0.5,0.178-0.5,0.3v10.4c0,0.122,0.194,0.3,0.5,0.3s0.5-0.178,0.5-0.3V6.8
	C19,6.678,18.806,6.5,18.5,6.5z"/>
<path style="fill:#333333;" d="M2.5,17C1.122,17,0,15.953,0,14.667V9.333C0,8.047,1.122,7,2.5,7S5,8.047,5,9.333v5.333
	C5,15.953,3.878,17,2.5,17z M2.5,9C2.214,9,2,9.176,2,9.333v5.333C2,14.824,2.214,15,2.5,15S3,14.824,3,14.667V9.333
	C3,9.176,2.786,9,2.5,9z"/>
<path style="fill:#333333;" d="M21.5,17c-1.379,0-2.5-1.047-2.5-2.333V9.333C19,8.047,20.121,7,21.5,7S24,8.047,24,9.333v5.333
	C24,15.953,22.879,17,21.5,17z M21.5,9C21.214,9,21,9.176,21,9.333v5.333C21,14.824,21.214,15,21.5,15s0.5-0.176,0.5-0.333V9.333
	C22,9.176,21.786,9,21.5,9z"/>
<path style="fill:#333333;" d="M18,14.5H6v-5h12V14.5z M8,12.5h8v-1H8V12.5z"/>
</svg>






