<?xml version="1.0" encoding="iso-8859-1"?>
<svg version="1.1" id="&#x56FE;&#x5C42;_1" xmlns="http://www.w3.org/2000/svg" xmlns:xlink="http://www.w3.org/1999/xlink" x="0px"
	 y="0px" viewBox="0 0 24 24" style="enable-background:new 0 0 24 24;" xml:space="preserve">
<path style="fill:#333333;" d="M20.181,18H3.82c-0.95,0-1.775-0.676-1.961-1.607l-0.82-4.1C1.013,12.168,1,12.034,1,11.901V8
	c0-1.103,0.897-2,2-2h18c1.103,0,2,0.897,2,2v3.901c0,0.131-0.013,0.261-0.038,0.389l-0.82,4.103C21.954,17.324,21.13,18,20.181,18z
	 M3,8v3.901L3.82,16h16.361L21,11.901V8H3z"/>
<rect x="5" y="11" style="fill:#333333;" width="3" height="2"/>
<rect x="10.5" y="9.5" style="fill:#333333;" width="1" height="2"/>
<rect x="10.5" y="12.5" style="fill:#333333;" width="1" height="2"/>
<rect x="14" y="9.5" style="fill:#333333;" width="1" height="2"/>
<rect x="14" y="12.5" style="fill:#333333;" width="1" height="2"/>
<rect x="17.5" y="9.5" style="fill:#333333;" width="1" height="2"/>
<rect x="17.5" y="12.5" style="fill:#333333;" width="1" height="2"/>
</svg>






