<?xml version="1.0" encoding="iso-8859-1"?>
<svg version="1.1" id="&#x56FE;&#x5C42;_1" xmlns="http://www.w3.org/2000/svg" xmlns:xlink="http://www.w3.org/1999/xlink" x="0px"
	 y="0px" viewBox="0 0 24 24" style="enable-background:new 0 0 24 24;" xml:space="preserve">
<path style="fill:#333333;" d="M6.833,21.554l-1.706-1.04c2.466-4.427,2.531-6.831,2.414-7.233c-0.197-0.805-0.569-1.758-1.287-1.98
	c-0.75-0.233-1.868,0.3-2.585,0.944l-0.92,0.826l-0.616-1.072c-1.006-1.755-0.745-3.162-0.348-4.033
	c0.912-2,3.298-3.038,4.751-3.387c3.846-3.294,7.158-3.13,9.273-2.397c3.412,1.181,5.688,4.485,6.174,7.139
	c0.429,2.345,0.563,4.403,0.672,6.058c0.079,1.213,0.147,2.262,0.31,2.86l-1.768,0.858c-2.104-2.832-3.431-2.968-3.784-2.934
	c-0.358,0.028-0.493,0.235-0.526,0.299c-0.763,1.565-1.821,2.118-2.572,2.302c-0.855,0.208-1.735,0.041-2.411-0.461
	c-0.28-0.229-0.542-0.29-0.896-0.241C9.72,18.255,7.874,19.988,6.833,21.554z M11.223,16.045c0.709,0,1.362,0.231,1.911,0.682
	c0.035,0.025,0.302,0.193,0.707,0.094c0.474-0.115,0.921-0.562,1.26-1.259c0.42-0.806,1.221-1.318,2.153-1.393
	c0.821-0.062,1.979,0.181,3.408,1.387c-0.001-0.016-0.002-0.031-0.003-0.048c-0.104-1.603-0.235-3.597-0.643-5.828
	c-0.372-2.032-2.202-4.688-4.861-5.608c-2.362-0.817-4.954-0.064-7.493,2.178L7.459,6.429L7.193,6.481
	C5.81,6.754,4.132,7.637,3.604,8.795C3.439,9.157,3.392,9.538,3.462,9.947c1-0.566,2.233-0.915,3.382-0.558
	c0.891,0.275,2.069,1.084,2.627,3.375c0.208,0.708,0.134,2.053-0.468,3.951c0.555-0.315,1.132-0.545,1.709-0.631
	C10.885,16.058,11.055,16.045,11.223,16.045z"/>
<circle style="fill:#333333;" cx="11.5" cy="8" r="1"/>
</svg>






