<?xml version="1.0" encoding="iso-8859-1"?>
<svg version="1.1" id="&#x56FE;&#x5C42;_1" xmlns="http://www.w3.org/2000/svg" xmlns:xlink="http://www.w3.org/1999/xlink" x="0px"
	 y="0px" viewBox="0 0 24 24" style="enable-background:new 0 0 24 24;" xml:space="preserve">
<path style="fill:#333333;" d="M12.218,22.69c-1.244,0-2.557-0.25-4.034-0.742C4.673,20.778,2.5,16.911,2.5,14
	c0-1.744,1.845-2.751,3-3.209V7.5c0-1.517,1.233-2.75,2.75-2.75c0.379,0,0.74,0.077,1.068,0.216C9.78,4.095,10.697,3.5,11.75,3.5
	s1.97,0.595,2.432,1.466C14.735,4.732,15.415,4.688,16,4.854V3.75C16,2.233,17.233,1,18.75,1s2.75,1.233,2.75,2.75v10.366
	c0,1.555-0.417,2.955-1.207,4.052c-1.104,1.53-2.219,2.61-3.312,3.209l0,0C15.374,22.257,13.857,22.69,12.218,22.69z M8.25,6.75
	C7.836,6.75,7.5,7.086,7.5,7.5v3.751c0,0.575-0.368,1.085-0.915,1.271C5.396,12.924,4.5,13.56,4.5,14
	c0,2.182,1.772,5.203,4.316,6.052c2.91,0.97,4.861,0.853,7.203-0.429l0,0c0.819-0.448,1.735-1.356,2.65-2.625
	c0.543-0.753,0.83-1.75,0.83-2.882V3.75C19.5,3.336,19.163,3,18.75,3S18,3.336,18,3.75V7.5h-2c0-0.414-0.337-0.75-0.75-0.75
	S14.5,7.086,14.5,7.5h-2V6.25c0-0.414-0.337-0.75-0.75-0.75C11.336,5.5,11,5.836,11,6.25V7.5H9C9,7.086,8.664,6.75,8.25,6.75z"/>
</svg>






