<?xml version="1.0" encoding="iso-8859-1"?>
<svg version="1.1" id="&#x56FE;&#x5C42;_1" xmlns="http://www.w3.org/2000/svg" xmlns:xlink="http://www.w3.org/1999/xlink" x="0px"
	 y="0px" viewBox="0 0 24 24" style="enable-background:new 0 0 24 24;" xml:space="preserve">
<path style="fill:#333333;" d="M19,23h-3.25v-2H19v-4.5h2V21C21,22.103,20.103,23,19,23z"/>
<path style="fill:#333333;" d="M8,23H5c-1.103,0-2-0.897-2-2V3c0-1.103,0.897-2,2-2h14c1.103,0,2,0.897,2,2v5h-2V3H5v18h3V23z"/>
<rect x="8" y="7" style="fill:#333333;" width="7" height="2"/>
<rect x="8.995" y="15.75" transform="matrix(0.629 -0.7774 0.7774 0.629 -7.1781 18.4591)" style="fill:#333333;" width="13.509" height="2"/>
<rect x="8" y="11" style="fill:#333333;" width="4" height="2"/>
</svg>






