<?xml version="1.0" encoding="iso-8859-1"?>
<svg version="1.1" id="&#x56FE;&#x5C42;_1" xmlns="http://www.w3.org/2000/svg" xmlns:xlink="http://www.w3.org/1999/xlink" x="0px"
	 y="0px" viewBox="0 0 24 24" style="enable-background:new 0 0 24 24;" xml:space="preserve">
<path style="fill:none;" d="M21.5,4.5v4v7v4H17v-4h4.5v-7H17v-4H21.5z"/>
<path style="fill:none;" d="M2.5,8.5v-4H7v4H2.5v7H7v4H2.5v-4V8.5z"/>
<path style="fill:#333333;" d="M22.5,20.5H17v-1v1h-2v-2h1v-2h-1v-2h2v1v-1h3.5v-5H17v-1v1h-2v-2h1v-2h-1v-2h2v1v-1h5.5V20.5z
	 M18,18.5h2.5v-2H18V18.5z M18,7.5h2.5v-2H18V7.5z M9,20.5H1.5v-17H9v2H8v2h1v2H3.5v5H9v2H8v2h1V20.5z M3.5,18.5H6v-2H3.5V18.5z
	 M3.5,7.5H6v-2H3.5V7.5z"/>
<rect x="11" y="3.5" style="fill:#333333;" width="2" height="2"/>
<rect x="11" y="8.5" style="fill:#333333;" width="2" height="2"/>
<rect x="11" y="13.5" style="fill:#333333;" width="2" height="2"/>
<rect x="11" y="18.5" style="fill:#333333;" width="2" height="2"/>
</svg>






