<?xml version="1.0" encoding="iso-8859-1"?>
<svg version="1.1" id="&#x56FE;&#x5C42;_1" xmlns="http://www.w3.org/2000/svg" xmlns:xlink="http://www.w3.org/1999/xlink" x="0px"
	 y="0px" viewBox="0 0 24 24" style="enable-background:new 0 0 24 24;" xml:space="preserve">
<path style="fill:#333333;" d="M6.5,22C4.019,22,2,19.981,2,17.5S4.019,13,6.5,13s4.5,2.019,4.5,4.5S8.981,22,6.5,22z M6.5,15
	C5.122,15,4,16.121,4,17.5S5.122,20,6.5,20S9,18.879,9,17.5S7.878,15,6.5,15z"/>
<path style="fill:#333333;" d="M17.5,22c-2.481,0-4.5-2.019-4.5-4.5s2.019-4.5,4.5-4.5s4.5,2.019,4.5,4.5S19.981,22,17.5,22z
	 M17.5,15c-1.379,0-2.5,1.121-2.5,2.5s1.121,2.5,2.5,2.5s2.5-1.121,2.5-2.5S18.879,15,17.5,15z"/>
<rect x="9" y="0.361" transform="matrix(0.6757 -0.7372 0.7372 0.6757 -3.0231 10.1279)" style="fill:#333333;" width="2" height="16.279"/>
<rect x="5.861" y="7.5" transform="matrix(0.7372 -0.6757 0.6757 0.7372 -2.064 11.6934)" style="fill:#333333;" width="16.279" height="2"/>
</svg>






