<?xml version="1.0" encoding="iso-8859-1"?>
<svg version="1.1" id="&#x56FE;&#x5C42;_1" xmlns="http://www.w3.org/2000/svg" xmlns:xlink="http://www.w3.org/1999/xlink" x="0px"
	 y="0px" viewBox="0 0 24 24" style="enable-background:new 0 0 24 24;" xml:space="preserve">
<path style="fill:#333333;" d="M22,8h-2V4.5C20,4.224,19.775,4,19.5,4h-15C4.224,4,4,4.224,4,4.5V8H2V4.5C2,3.122,3.122,2,4.5,2h15
	C20.879,2,22,3.122,22,4.5V8z"/>
<path style="fill:#333333;" d="M19.5,22h-15C3.122,22,2,20.879,2,19.5V16h2v3.5C4,19.775,4.224,20,4.5,20h15
	c0.275,0,0.5-0.225,0.5-0.5V16h2v3.5C22,20.879,20.879,22,19.5,22z"/>
<polygon style="fill:#333333;" points="13.217,17.847 9.719,9.853 6.995,13 2.5,13 2.5,11 6.081,11 10.281,6.147 13.783,14.153 
	16.532,11 21.5,11 21.5,13 17.442,13 "/>
</svg>






