<?xml version="1.0" encoding="iso-8859-1"?>
<svg version="1.1" id="&#x56FE;&#x5C42;_1" xmlns="http://www.w3.org/2000/svg" xmlns:xlink="http://www.w3.org/1999/xlink" x="0px"
	 y="0px" viewBox="0 0 24 24" style="enable-background:new 0 0 24 24;" xml:space="preserve">
<path style="fill:#333333;" d="M19.5,22h-15C3.122,22,2,20.879,2,19.5v-15C2,3.122,3.122,2,4.5,2h5v2h-5C4.224,4,4,4.224,4,4.5v15
	C4,19.775,4.224,20,4.5,20h15c0.275,0,0.5-0.225,0.5-0.5v-5h2v5C22,20.879,20.879,22,19.5,22z"/>
<polygon style="fill:#333333;" points="20.052,9.816 18.367,4.765 13.316,6.449 12.684,4.551 19.633,2.235 21.948,9.184 "/>
<path style="fill:#333333;" d="M10.372,15.429l-0.743-1.857c4.639-1.855,5.972-3.036,8.423-10.388l1.896,0.633
	C17.459,11.284,15.849,13.237,10.372,15.429z"/>
</svg>






