<?xml version="1.0" encoding="iso-8859-1"?>
<svg version="1.1" id="&#x56FE;&#x5C42;_1" xmlns="http://www.w3.org/2000/svg" xmlns:xlink="http://www.w3.org/1999/xlink" x="0px"
	 y="0px" viewBox="0 0 24 24" style="enable-background:new 0 0 24 24;" xml:space="preserve">
<path style="fill:#333333;" d="M11.652,21.746l-3.479-5.055l-6.118-0.684l-0.68-1.605l3.753-4.854l-1.236-6l1.313-1.144l5.801,2.056
	l5.354-3.027l1.492,0.898l-0.171,6.122l4.544,4.131l-0.392,1.7l-5.905,1.73l-2.543,5.579L11.652,21.746z M4.046,14.218l5.257,0.587
	l2.995,4.353l2.189-4.804l5.074-1.487l-3.905-3.55l0.147-5.271L11.198,6.65L6.209,4.882l1.064,5.163L4.046,14.218z"/>
<rect x="19.089" y="17.195" transform="matrix(0.7055 -0.7087 0.7087 0.7055 -8.2705 20.1304)" style="fill:#333333;" width="2" height="5.644"/>
</svg>






