<?xml version="1.0" encoding="iso-8859-1"?>
<svg version="1.1" id="&#x56FE;&#x5C42;_1" xmlns="http://www.w3.org/2000/svg" xmlns:xlink="http://www.w3.org/1999/xlink" x="0px"
	 y="0px" viewBox="0 0 24 24" style="enable-background:new 0 0 24 24;" xml:space="preserve">
<path style="fill:#333333;" d="M8.5,19c-4.122,0-7-3.263-7-7.934C1.5,5.045,5.12,1,8.5,1s7,4.045,7,10.066
	C15.5,15.737,12.621,19,8.5,19z M8.5,3c-2.043,0-5,2.873-5,8.066C3.5,14.615,5.509,17,8.5,17s5-2.385,5-5.934
	C13.5,5.873,10.543,3,8.5,3z"/>
<path style="fill:#333333;" d="M13.566,23c-3.618,0-6.344-1.884-6.945-4.798l1.959-0.404C8.987,19.773,10.898,21,13.566,21
	c4.296,0,6.934-2.33,6.934-4c0-1.475-2.111-3.674-6.074-3.969l0.148-1.994C19.535,11.406,22.5,14.358,22.5,17
	C22.5,19.897,18.91,23,13.566,23z"/>
</svg>






