<?xml version="1.0" encoding="iso-8859-1"?>
<svg version="1.1" id="&#x56FE;&#x5C42;_1" xmlns="http://www.w3.org/2000/svg" xmlns:xlink="http://www.w3.org/1999/xlink" x="0px"
	 y="0px" viewBox="0 0 24 24" style="enable-background:new 0 0 24 24;" xml:space="preserve">
<path style="fill:#333333;" d="M12,18c-3.309,0-6-2.691-6-6s2.691-6,6-6s6,2.691,6,6S15.309,18,12,18z M12,8c-2.206,0-4,1.794-4,4
	c0,2.206,1.794,4,4,4c2.206,0,4-1.794,4-4C16,9.794,14.206,8,12,8z"/>
<path style="fill:#333333;" d="M12,23C5.935,23,1,18.065,1,12S5.935,1,12,1s11,4.935,11,11c0,1.417-0.266,2.796-0.789,4.098
	c-0.438,1.089-1.417,1.199-2.065,1.272c-0.637,0.072-1.186,0.134-1.804,0.796c-0.603,0.647-0.637,1.166-0.677,1.766
	c-0.043,0.655-0.108,1.646-1.255,2.148C15.018,22.69,13.533,23,12,23z M12,3c-4.962,0-9,4.038-9,9c0,4.963,4.038,9,9,9
	c1.256,0,2.47-0.253,3.607-0.752c0.035-0.043,0.051-0.277,0.062-0.448c0.048-0.728,0.12-1.828,1.209-2.997
	c1.122-1.203,2.277-1.334,3.042-1.42c0.18-0.021,0.425-0.048,0.496-0.082C20.783,14.288,21,13.16,21,12C21,7.038,16.963,3,12,3z"/>
<path style="fill:#333333;" d="M11.329,14.985c-0.153-0.027-0.947-0.189-1.536-0.778s-0.751-1.382-0.778-1.535l1.969-0.354
	c0.025,0.126,0.113,0.364,0.224,0.475s0.349,0.199,0.475,0.224L11.329,14.985z"/>
</svg>






