<?xml version="1.0" encoding="iso-8859-1"?>
<svg version="1.1" id="&#x56FE;&#x5C42;_1" xmlns="http://www.w3.org/2000/svg" xmlns:xlink="http://www.w3.org/1999/xlink" x="0px"
	 y="0px" viewBox="0 0 24 24" style="enable-background:new 0 0 24 24;" xml:space="preserve">
<path style="fill:#333333;" d="M7.837,21.998c-1.432,0-2.786-0.39-3.89-1.155c-1.578-1.094-2.447-2.8-2.447-4.805
	c0-3.439,2.545-4.313,4.402-4.95c0.771-0.265,1.5-0.515,1.998-0.888c1.836-1.377,3.749-4.227,3.768-4.255l1.664,1.11
	C13.246,7.183,11.213,10.215,9.1,11.8c-0.75,0.562-1.664,0.876-2.548,1.18C4.603,13.648,3.5,14.12,3.5,16.038
	c0,1.349,0.548,2.441,1.586,3.161c1.328,0.919,3.22,1.056,5.063,0.364c3.019-1.132,4.09-3.513,4.347-4.216
	c0.032-0.087,0.057-0.17,0.083-0.254l1.965-6.388l1.912,0.588l-1.94,6.307c-0.062,0.199-0.099,0.317-0.142,0.437
	c-0.33,0.902-1.705,3.968-5.522,5.399C9.848,21.812,8.824,21.998,7.837,21.998z"/>
<path style="fill:#333333;" d="M18.758,12.738l-1.739-3.061l-2.263,0.647c-0.794,0.227-1.626-0.235-1.854-1.029l-0.636-2.223
	L8.577,7.418L7.601,5.953c0.042-0.079,1.05-1.938,3.392-3.315c2.599-1.528,5.622-0.835,7.021,0.004
	c1.617,0.97,2.703,2.88,2.979,5.241c0.201,1.73-0.364,4.451-0.389,4.566L18.758,12.738z M17.261,7.588
	c0.529,0,1.03,0.28,1.303,0.759l0.464,0.817c0.018-0.384,0.016-0.746-0.02-1.049c-0.2-1.714-0.956-3.119-2.022-3.757
	c-1.021-0.614-3.242-1.018-4.979,0.004c-0.452,0.265-0.84,0.553-1.17,0.836l1.658-0.155c0.718-0.063,1.386,0.388,1.582,1.084
	l0.611,2.136l2.16-0.617C16.984,7.607,17.124,7.588,17.261,7.588z M12.152,6.674c0.001,0.001,0.001,0.002,0.001,0.002L12.152,6.674z
	"/>
<rect x="17.919" y="2.5" transform="matrix(0.9486 -0.3164 0.3164 0.9486 -0.1057 6.3491)" style="fill:#333333;" width="3.162" height="2"/>
</svg>






