<?xml version="1.0" encoding="iso-8859-1"?>
<svg version="1.1" id="&#x56FE;&#x5C42;_1" xmlns="http://www.w3.org/2000/svg" xmlns:xlink="http://www.w3.org/1999/xlink" x="0px"
	 y="0px" viewBox="0 0 24 24" style="enable-background:new 0 0 24 24;" xml:space="preserve">
<path style="fill:#333333;" d="M6.361,22.509l-1.722-1.018C7.637,16.417,9.5,9.715,9.5,4h2C11.5,10.052,9.531,17.145,6.361,22.509z"
	/>
<path style="fill:#333333;" d="M17.639,22.509C14.469,17.145,12.5,10.052,12.5,4h2c0,5.715,1.862,12.417,4.861,17.491L17.639,22.509
	z"/>
<rect x="2" y="21" style="fill:#333333;" width="20" height="2"/>
<rect x="7" y="14" style="fill:#333333;" width="10" height="2"/>
<rect x="8.5" y="9.5" style="fill:#333333;" width="7" height="2"/>
<rect x="10" y="3" style="fill:#333333;" width="4" height="2"/>
<rect x="11" y="2" style="fill:#333333;" width="2" height="2"/>
<path style="fill:#333333;" d="M9.96,22.278l-1.921-0.556c0.08-0.276,0.515-1.691,1.254-2.43C9.838,18.747,10.586,18,12,18
	s2.161,0.747,2.707,1.293c0.845,0.845,1.224,2.304,1.264,2.467l-1.941,0.48c-0.104-0.41-0.395-1.191-0.736-1.533
	C12.803,20.217,12.562,20,12,20c-0.562,0-0.803,0.217-1.293,0.707C10.429,20.985,10.097,21.81,9.96,22.278z"/>
</svg>






