<?xml version="1.0" encoding="iso-8859-1"?>
<svg version="1.1" id="&#x56FE;&#x5C42;_1" xmlns="http://www.w3.org/2000/svg" xmlns:xlink="http://www.w3.org/1999/xlink" x="0px"
	 y="0px" viewBox="0 0 24 24" style="enable-background:new 0 0 24 24;" xml:space="preserve">
<path style="fill:#333333;" d="M19.5,22h-15C3.122,22,2,20.879,2,19.5v-15C2,3.122,3.122,2,4.5,2h15C20.879,2,22,3.122,22,4.5v15
	C22,20.879,20.879,22,19.5,22z M4.5,4C4.224,4,4,4.224,4,4.5v15C4,19.775,4.224,20,4.5,20h15c0.275,0,0.5-0.225,0.5-0.5v-15
	C20,4.224,19.775,4,19.5,4H4.5z"/>
<polygon style="fill:#333333;" points="11.934,18.359 10.009,18.135 9.056,11.146 8.2,13.5 6,13.5 6,11.5 6.8,11.5 8.56,6.658 
	10.491,6.865 11.465,14.006 12.566,11.141 14.332,10.945 15.548,12.77 16.5,11.5 18.5,11.5 18.5,13.5 17.5,13.5 15.452,16.23 
	13.739,13.662 "/>
</svg>






