<?xml version="1.0" encoding="iso-8859-1"?>
<svg version="1.1" id="&#x56FE;&#x5C42;_1" xmlns="http://www.w3.org/2000/svg" xmlns:xlink="http://www.w3.org/1999/xlink" x="0px"
	 y="0px" viewBox="0 0 24 24" style="enable-background:new 0 0 24 24;" xml:space="preserve">
<path style="fill:#333333;" d="M17,20H7c-1.103,0-2-0.897-2-2v-7c0-1.103,0.897-2,2-2h10c1.103,0,2,0.897,2,2v7
	C19,19.103,18.103,20,17,20z M7,11H6.999L7,18h10v-7H7z"/>
<path style="fill:#333333;" d="M16,10h-2V7c0-1.381-1.005-2-2-2c-0.996,0-2,0.619-2,2v3H8V7c0-2.318,1.682-4,4-4
	c2.317,0,4,1.682,4,4V10z"/>
<rect x="11" y="14" style="fill:#333333;" width="2" height="1"/>
<rect x="2" y="9" style="fill:#333333;" width="2" height="6"/>
<rect x="20" y="9" style="fill:#333333;" width="2" height="6"/>
</svg>






