<?xml version="1.0" encoding="iso-8859-1"?>
<svg version="1.1" id="&#x56FE;&#x5C42;_1" xmlns="http://www.w3.org/2000/svg" xmlns:xlink="http://www.w3.org/1999/xlink" x="0px"
	 y="0px" viewBox="0 0 24 24" style="enable-background:new 0 0 24 24;" xml:space="preserve">
<path style="fill:#333333;" d="M15,23H4c-1.103,0-2-0.897-2-2V3c0-1.103,0.897-2,2-2h11c1.103,0,2,0.897,2,2v18
	C17,22.103,16.103,23,15,23z M4,3H3.999L4,21h11V3H4z"/>
<path style="fill:#333333;" d="M20,20h-8c-1.654,0-3-1.346-3-3s1.346-3,3-3h8c1.654,0,3,1.346,3,3S21.654,20,20,20z M12,16
	c-0.551,0-1,0.448-1,1s0.449,1,1,1h8c0.552,0,1-0.448,1-1s-0.448-1-1-1H12z"/>
<circle style="fill:#333333;" cx="6" cy="6" r="1"/>
<circle style="fill:#333333;" cx="6" cy="9" r="1"/>
<circle style="fill:#333333;" cx="6" cy="12" r="1"/>
<circle style="fill:#333333;" cx="9.5" cy="6" r="1"/>
<circle style="fill:#333333;" cx="9.5" cy="9" r="1"/>
<circle style="fill:#333333;" cx="9.5" cy="12" r="1"/>
<circle style="fill:#333333;" cx="13" cy="6" r="1"/>
<circle style="fill:#333333;" cx="13" cy="9" r="1"/>
<circle style="fill:#333333;" cx="13" cy="12" r="1"/>
</svg>






