<?xml version="1.0" encoding="iso-8859-1"?>
<svg version="1.1" id="&#x56FE;&#x5C42;_1" xmlns="http://www.w3.org/2000/svg" xmlns:xlink="http://www.w3.org/1999/xlink" x="0px"
	 y="0px" viewBox="0 0 24 24" style="enable-background:new 0 0 24 24;" xml:space="preserve">
<path style="fill:#333333;" d="M12,23C5.935,23,1,18.065,1,12S5.935,1,12,1s11,4.935,11,11S18.065,23,12,23z M12,3
	c-4.962,0-9,4.038-9,9c0,4.963,4.038,9,9,9c4.963,0,9-4.037,9-9C21,7.038,16.963,3,12,3z"/>
<polygon style="fill:#333333;" points="13.363,17.901 11.461,17.665 10.333,10.908 9.086,15.066 5.5,15.066 5.5,13.066 
	7.598,13.066 9.654,6.213 11.598,6.335 12.881,14.022 14.401,10.556 16.875,13.066 18.5,13.066 18.5,15.066 16.037,15.066 
	15.048,14.062 "/>
</svg>






