<?xml version="1.0" encoding="iso-8859-1"?>
<svg version="1.1" id="&#x56FE;&#x5C42;_1" xmlns="http://www.w3.org/2000/svg" xmlns:xlink="http://www.w3.org/1999/xlink" x="0px"
	 y="0px" viewBox="0 0 24 24" style="enable-background:new 0 0 24 24;" xml:space="preserve">
<path style="fill:#333333;" d="M19.558,13.5H9v-10h10.849c0.83,0,1.631,0.349,2.196,0.957c0.566,0.608,0.856,1.432,0.796,2.261
	l-0.292,4C22.436,12.278,21.121,13.5,19.558,13.5z M11,11.5h8.558c0.521,0,0.959-0.407,0.997-0.927l0.292-4
	c0.02-0.28-0.074-0.548-0.266-0.754C20.39,5.613,20.13,5.5,19.849,5.5H11V11.5z"/>
<path style="fill:#333333;" d="M15.488,20.5c-1.008,0-1.955-0.493-2.534-1.319c-0.578-0.826-0.717-1.884-0.372-2.831l1.764-4.85
	h6.582l-2.532,6.964C17.953,19.682,16.784,20.5,15.488,20.5z M15.746,13.5l-1.285,3.533c-0.123,0.34-0.075,0.704,0.132,1
	C14.8,18.33,15.127,18.5,15.488,18.5c0.458,0,0.871-0.289,1.028-0.72l1.556-4.28H15.746z"/>
<path style="fill:#333333;" d="M11,12H6V5h5V12z M8,10h1V7H8V10z"/>
<rect x="2" y="7.5" style="fill:#333333;" width="5" height="2"/>
</svg>






