<?xml version="1.0" encoding="iso-8859-1"?>
<svg version="1.1" id="&#x56FE;&#x5C42;_1" xmlns="http://www.w3.org/2000/svg" xmlns:xlink="http://www.w3.org/1999/xlink" x="0px"
	 y="0px" viewBox="0 0 24 24" style="enable-background:new 0 0 24 24;" xml:space="preserve">
<path style="fill:#333333;" d="M17.254,21h-4.935v-3.109H5.935V21H1V10.894c0-2.529,1.095-3.941,2.014-4.68
	C4.418,5.084,6.36,4.754,7.9,4.911c0.07-0.097,0.144-0.192,0.221-0.285c0.837-1.004,1.999-1.619,3.027-1.618h3.429
	c3.813-0.204,5.332,2.928,5.6,4.62l0.012,0.156v6.321c0.25-0.032,0.732-0.256,0.963-0.527l1.75,0.492
	c0.394,2.507-0.429,4.008-2.445,4.462c-1.005,0.229-1.854-0.157-2.571-0.534c-0.232-0.122-0.441-0.28-0.631-0.462V21z M14.319,19
	h0.935v-5.016l0.719-0.609l0.553,0.066c0.611,0.118,0.89,0.644,1.241,1.31c0.254,0.479,0.679,1.282,1.047,1.476
	c0.616,0.323,0.932,0.417,1.203,0.354c0.33-0.074,0.686-0.154,0.866-0.588c-0.445,0.129-0.913,0.163-1.355,0.033
	c-0.73-0.214-1.216-0.821-1.33-1.667l-0.009-0.134V7.873c-0.092-0.463-0.694-3.035-3.556-2.865l-3.491,0.001
	c-0.001,0-0.002,0-0.004,0c-0.356,0-0.965,0.28-1.481,0.898C9.303,6.332,8.744,7.232,8.98,8.487c0.147,0.78,0.607,1.735,1.959,1.855
	c0.398,0.041,1.386-0.052,2.057-1.619l1.838,0.788c-1.22,2.846-3.425,2.883-4.07,2.823c-1.969-0.174-3.37-1.473-3.748-3.476
	C6.89,8.192,6.898,7.519,7.033,6.873C6.09,6.893,5.037,7.152,4.267,7.772C3.426,8.448,3,9.499,3,10.894V19h0.935v-3.109h10.385V19z
	 M20.204,14.197L20.204,14.197L20.204,14.197z"/>
<circle style="fill:#333333;" cx="16.5" cy="9.5" r="1"/>
</svg>






