<?xml version="1.0" encoding="iso-8859-1"?>
<svg version="1.1" id="&#x56FE;&#x5C42;_1" xmlns="http://www.w3.org/2000/svg" xmlns:xlink="http://www.w3.org/1999/xlink" x="0px"
	 y="0px" viewBox="0 0 24 24" style="enable-background:new 0 0 24 24;" xml:space="preserve">
<polygon style="fill:#333333;" points="12,20.5 1,20.5 1,3.5 23,3.5 23,12 21,12 21,5.5 3,5.5 3,18.5 12,18.5 "/>
<polygon style="fill:#333333;" points="12,13.25 1.4,5.3 2.6,3.7 12,10.75 21.4,3.7 22.6,5.3 "/>
<path style="fill:#333333;" d="M22.5,21.5h-8v-6h8V21.5z M16.5,19.5h4v-2h-4V19.5z"/>
<path style="fill:#333333;" d="M21,16.5h-2V15c0-0.275-0.225-0.5-0.5-0.5S18,14.725,18,15v1.5h-2V15c0-1.379,1.121-2.5,2.5-2.5
	S21,13.621,21,15V16.5z"/>
</svg>






