<?xml version="1.0" encoding="iso-8859-1"?>
<svg version="1.1" id="&#x56FE;&#x5C42;_1" xmlns="http://www.w3.org/2000/svg" xmlns:xlink="http://www.w3.org/1999/xlink" x="0px"
	 y="0px" viewBox="0 0 24 24" style="enable-background:new 0 0 24 24;" xml:space="preserve">
<polygon style="fill:#333333;" points="12,20.5 1,20.5 1,3.5 23,3.5 23,12 21,12 21,5.5 3,5.5 3,18.5 12,18.5 "/>
<path style="fill:#333333;" d="M17.5,21.077l-0.371-0.148C17.001,20.877,14,19.624,14,15c0-0.44,0-1.177,3.129-2.429l0.371-0.148
	l0.371,0.148C21,13.823,21,14.56,21,15c0,4.624-3.001,5.877-3.129,5.929L17.5,21.077z M16.007,15.342
	c0.088,2.091,0.97,3.083,1.494,3.492c0.52-0.405,1.404-1.397,1.492-3.492c-0.295-0.196-0.882-0.494-1.493-0.759
	C16.889,14.848,16.302,15.146,16.007,15.342z"/>
<polygon style="fill:#333333;" points="12,13.25 1.4,5.3 2.6,3.7 12,10.75 21.4,3.7 22.6,5.3 "/>
</svg>






