<?xml version="1.0" encoding="iso-8859-1"?>
<svg version="1.1" id="&#x56FE;&#x5C42;_1" xmlns="http://www.w3.org/2000/svg" xmlns:xlink="http://www.w3.org/1999/xlink" x="0px"
	 y="0px" viewBox="0 0 24 24" style="enable-background:new 0 0 24 24;" xml:space="preserve">
<polygon style="fill:#333333;" points="12,20.5 1,20.5 1,3.5 23,3.5 23,12 21,12 21,5.5 3,5.5 3,18.5 12,18.5 "/>
<path style="fill:#333333;" d="M18,20.5c-1.93,0-3.5-1.57-3.5-3.5s1.57-3.5,3.5-3.5s3.5,1.57,3.5,3.5S19.93,20.5,18,20.5z M18,15.5
	c-0.827,0-1.5,0.673-1.5,1.5s0.673,1.5,1.5,1.5s1.5-0.673,1.5-1.5S18.827,15.5,18,15.5z"/>
<rect x="20" y="18" transform="matrix(0.6 -0.8 0.8 0.6 -7 24.5)" style="fill:#333333;" width="1.999" height="2.5"/>
<polygon style="fill:#333333;" points="12,13.25 1.4,5.3 2.6,3.7 12,10.75 21.4,3.7 22.6,5.3 "/>
</svg>






