<?xml version="1.0" encoding="iso-8859-1"?>
<svg version="1.1" id="&#x56FE;&#x5C42;_1" xmlns="http://www.w3.org/2000/svg" xmlns:xlink="http://www.w3.org/1999/xlink" x="0px"
	 y="0px" viewBox="0 0 24 24" style="enable-background:new 0 0 24 24;" xml:space="preserve">
<g>
	<defs>
		<rect id="SVGID_1_" width="24" height="24"/>
	</defs>
	<clipPath id="SVGID_00000173875722625166921760000006605966596223013309_">
		<use xlink:href="#SVGID_1_"  style="overflow:visible;"/>
	</clipPath>
	<g style="clip-path:url(#SVGID_00000173875722625166921760000006605966596223013309_);">
		<path style="fill:#333333;" d="M6.312,22H4.719c-0.607,0-1.174-0.271-1.556-0.743c-0.381-0.473-0.527-1.084-0.399-1.677
			l0.375-1.748c-0.504-0.616-0.593-1.491-0.215-2.202l0.761-1.432L3.432,5.027c-0.015-0.544,0.186-1.06,0.565-1.45
			c0.38-0.39,0.889-0.605,1.434-0.605h3.661c0.595,0,1.154,0.262,1.535,0.718c0.381,0.456,0.539,1.054,0.433,1.639l-1.702,9.394
			l-0.013,2.944L8.18,20.715C7.885,21.483,7.135,22,6.312,22z M4.719,20h1.592l1.035-2.706l0.011-2.581
			c0.001-0.118,0.012-0.231,0.032-0.344l1.703-9.397H5.432L5.7,14.671L4.69,16.569l0.617,0.696L4.719,20z"/>
		
			<rect x="5.525" y="12.697" transform="matrix(0.0532 -0.9986 0.9986 0.0532 -8.3332 20.2754)" style="fill:#333333;" width="2.001" height="3.671"/>
		<path style="fill:#333333;" d="M19.289,22h-1.59c-0.836,0-1.591-0.527-1.879-1.313l-1.106-3.027l-0.013-2.938l-1.703-9.394
			c-0.105-0.584,0.052-1.182,0.433-1.638c0.382-0.457,0.941-0.718,1.536-0.718h3.661c0.544,0,1.054,0.215,1.434,0.605
			c0.379,0.391,0.58,0.905,0.565,1.45l-0.254,9.171l0.762,1.432c0.378,0.715,0.286,1.594-0.224,2.213l0.343,1.778
			c0.112,0.59-0.042,1.191-0.424,1.653C20.449,21.735,19.888,22,19.289,22z M16.712,17.301l0.987,2.698L19.291,20l-0.53-2.745
			l0.608-0.686l-1.01-1.898l0.268-9.7l-3.66,0l1.702,9.394c0.021,0.109,0.032,0.231,0.032,0.353L16.712,17.301z"/>
		
			<rect x="15.698" y="13.532" transform="matrix(0.9986 -0.0527 0.0527 0.9986 -0.7417 0.9444)" style="fill:#333333;" width="3.671" height="2.001"/>
	</g>
</g>
</svg>






