<?xml version="1.0" encoding="iso-8859-1"?>
<svg version="1.1" id="&#x56FE;&#x5C42;_1" xmlns="http://www.w3.org/2000/svg" xmlns:xlink="http://www.w3.org/1999/xlink" x="0px"
	 y="0px" viewBox="0 0 24 24" style="enable-background:new 0 0 24 24;" xml:space="preserve">
<path style="fill:#333333;" d="M11.573,23c-4.952,0-8.064-2.709-8.54-7.433c-0.364-3.63,2.249-6.12,3.979-7.767
	c0.51-0.485,1.145-1.09,1.243-1.339c0.227-0.577,0.432-1.796,0.117-4.338l1.402-1.035c2.186,0.983,3.739,2.365,4.617,4.107
	c0.702,1.39,0.73,2.933,0.751,4.06c0.002,0.086,0.004,0.179,0.006,0.273c0.359-0.408,0.931-1.161,1.756-2.542l0.757-1.268
	l0.896,1.173C20.178,9.015,21,11.772,21,15.09C21,23,14.633,23,11.573,23z M10.521,3.786c0.059,1.45-0.076,2.575-0.405,3.409
	c-0.26,0.66-0.906,1.275-1.724,2.054c-1.534,1.461-3.635,3.462-3.368,6.12C5.492,20.022,8.844,21,11.573,21
	C16.39,21,19,20.059,19,15.09c0-2.231-0.414-4.149-1.232-5.722C16.523,11.219,15.585,12,14.665,12c-1.472,0-1.502-1.629-1.521-2.708
	c-0.019-0.986-0.041-2.214-0.537-3.196C12.159,5.21,11.461,4.438,10.521,3.786z"/>
<path style="fill:#333333;" d="M11.089,19.989c-0.331,0-0.668-0.046-1.005-0.139c-1.07-0.293-2.328-1.197-2.645-2.857
	c-0.349-1.83,0.574-3.758,2.743-5.729l1.664,0.606c0.15,1.111,0.447,1.935,0.859,2.38c1.09,1.177,1.598,2.21,1.552,3.156
	c-0.03,0.646-0.321,1.231-0.841,1.694C12.76,19.684,11.945,19.989,11.089,19.989z M10.308,14.03c-0.747,0.954-1.05,1.82-0.904,2.588
	c0.182,0.953,0.971,1.239,1.209,1.304c0.567,0.156,1.061,0.05,1.472-0.315c0.167-0.148,0.171-0.244,0.174-0.296
	c0.006-0.134-0.049-0.65-1.023-1.702C10.851,15.192,10.543,14.67,10.308,14.03z"/>
</svg>






