<?xml version="1.0" encoding="iso-8859-1"?>
<svg version="1.1" id="&#x56FE;&#x5C42;_1" xmlns="http://www.w3.org/2000/svg" xmlns:xlink="http://www.w3.org/1999/xlink" x="0px"
	 y="0px" viewBox="0 0 24 24" style="enable-background:new 0 0 24 24;" xml:space="preserve">
<path style="fill:none;" d="M8,5c0,1.381-1.119,2.5-2.5,2.5C4.119,7.5,3,6.381,3,5c0-1.381,1.119-2.5,2.5-2.5C6.881,2.5,8,3.619,8,5
	z"/>
<path style="fill:#333333;" d="M5.5,8.5C3.57,8.5,2,6.93,2,5s1.57-3.5,3.5-3.5c1.583,0,2.923,1.056,3.354,2.5h2.231l-0.293-0.293
	l1.414-1.414l2,2L13.5,5l0.707,0.707l-2,2l-1.414-1.414L11.086,6H8.854C8.423,7.444,7.083,8.5,5.5,8.5z M5.5,3.5
	C4.673,3.5,4,4.173,4,5s0.673,1.5,1.5,1.5S7,5.827,7,5S6.327,3.5,5.5,3.5z"/>
<path style="fill:none;" d="M16,19c0,1.381,1.119,2.5,2.5,2.5S21,20.381,21,19s-1.119-2.5-2.5-2.5S16,17.619,16,19z"/>
<path style="fill:#333333;" d="M18.5,22.5c-1.583,0-2.923-1.056-3.354-2.5h-2.231l0.293,0.293l-1.414,1.414l-2-2L10.5,19
	l-0.707-0.707l2-2l1.414,1.414L12.914,18h2.231c0.432-1.444,1.771-2.5,3.354-2.5c1.93,0,3.5,1.57,3.5,3.5S20.43,22.5,18.5,22.5z
	 M18.5,17.5c-0.827,0-1.5,0.673-1.5,1.5s0.673,1.5,1.5,1.5S20,19.827,20,19S19.327,17.5,18.5,17.5z"/>
<path style="fill:none;" d="M16.5,5.5C16.5,6.881,17.619,8,19,8s2.5-1.119,2.5-2.5C21.5,4.119,20.381,3,19,3S16.5,4.119,16.5,5.5z"
	/>
<path style="fill:#333333;" d="M19.707,14.207L19,13.5l-0.707,0.707l-2-2l1.414-1.414L18,11.086V8.854
	c-1.444-0.431-2.5-1.772-2.5-3.354C15.5,3.57,17.07,2,19,2s3.5,1.57,3.5,3.5c0,1.583-1.056,2.923-2.5,3.354v2.231l0.293-0.293
	l1.414,1.414L19.707,14.207z M19,4c-0.827,0-1.5,0.673-1.5,1.5S18.173,7,19,7s1.5-0.673,1.5-1.5S19.827,4,19,4z"/>
<path style="fill:none;" d="M2.5,18.5C2.5,17.119,3.619,16,5,16c1.381,0,2.5,1.119,2.5,2.5S6.381,21,5,21
	C3.619,21,2.5,19.881,2.5,18.5z"/>
<path style="fill:#333333;" d="M5,22c-1.93,0-3.5-1.57-3.5-3.5c0-1.583,1.056-2.923,2.5-3.354v-2.231l-0.293,0.293l-1.414-1.414l2-2
	L5,10.5l0.707-0.707l2,2l-1.414,1.414L6,12.914v2.231c1.444,0.432,2.5,1.771,2.5,3.354C8.5,20.43,6.93,22,5,22z M5,17
	c-0.827,0-1.5,0.673-1.5,1.5S4.173,20,5,20s1.5-0.673,1.5-1.5S5.827,17,5,17z"/>
</svg>






