<?xml version="1.0" encoding="iso-8859-1"?>
<svg version="1.1" id="&#x56FE;&#x5C42;_1" xmlns="http://www.w3.org/2000/svg" xmlns:xlink="http://www.w3.org/1999/xlink" x="0px"
	 y="0px" viewBox="0 0 24 24" style="enable-background:new 0 0 24 24;" xml:space="preserve">
<rect x="16" y="2" style="fill:#333333;" width="3" height="2"/>
<polygon style="fill:#333333;" points="17,19 9,19 9,17 15,17 15,15 4,15 4,17 5,17 5,19 2,19 2,13 17,13 "/>
<polygon style="fill:#333333;" points="23,19 20.5,19 20.5,17 21,17 21,12.218 18.608,7 17,7 17,18 15,18 15,5 19.892,5 23,11.782 
	"/>
<path style="fill:#333333;" d="M14,12H2.691L0.763,3H14V12z M4.309,10H12V5H3.237L4.309,10z"/>
<path style="fill:#333333;" d="M18.5,22c-1.654,0-3-1.346-3-3s1.346-3,3-3s3,1.346,3,3S20.154,22,18.5,22z M18.5,18
	c-0.552,0-1,0.448-1,1s0.448,1,1,1s1-0.448,1-1S19.052,18,18.5,18z"/>
<path style="fill:#333333;" d="M7,22c-1.654,0-3-1.346-3-3s1.346-3,3-3s3,1.346,3,3S8.654,22,7,22z M7,18c-0.551,0-1,0.448-1,1
	s0.449,1,1,1s1-0.448,1-1S7.551,18,7,18z"/>
</svg>






