<?xml version="1.0" encoding="iso-8859-1"?>
<svg version="1.1" id="&#x56FE;&#x5C42;_1" xmlns="http://www.w3.org/2000/svg" xmlns:xlink="http://www.w3.org/1999/xlink" x="0px"
	 y="0px" viewBox="0 0 24 24" style="enable-background:new 0 0 24 24;" xml:space="preserve">
<path style="fill:#333333;" d="M20.5,14h-17c-1.103,0-2-0.897-2-2V4c0-1.103,0.897-2,2-2h17c1.103,0,2,0.897,2,2v8
	C22.5,13.103,21.603,14,20.5,14z M3.5,4H3.499L3.5,12h17V4H3.5z"/>
<rect x="5" y="13" style="fill:#333333;" width="2" height="8"/>
<rect x="6" y="15.5" style="fill:#333333;" width="12" height="2"/>
<rect x="4" y="20" style="fill:#333333;" width="4" height="2"/>
<rect x="16" y="20" style="fill:#333333;" width="4" height="2"/>
<rect x="17" y="13" style="fill:#333333;" width="2" height="8"/>
</svg>






