<?xml version="1.0" encoding="iso-8859-1"?>
<svg version="1.1" id="&#x56FE;&#x5C42;_1" xmlns="http://www.w3.org/2000/svg" xmlns:xlink="http://www.w3.org/1999/xlink" x="0px"
	 y="0px" viewBox="0 0 24 24" style="enable-background:new 0 0 24 24;" xml:space="preserve">
<path style="fill:#333333;" d="M19.5,22h-15C3.122,22,2,20.879,2,19.5v-15C2,3.122,3.122,2,4.5,2h15C20.879,2,22,3.122,22,4.5v15
	C22,20.879,20.879,22,19.5,22z M4.5,4C4.224,4,4,4.224,4,4.5v15C4,19.775,4.224,20,4.5,20h15c0.275,0,0.5-0.225,0.5-0.5v-15
	C20,4.224,19.775,4,19.5,4H4.5z"/>
<polygon style="fill:#333333;" points="7.5,15.5 5.5,15.5 5.5,7.5 10.5,7.5 10.5,9.5 7.5,9.5 "/>
<rect x="6.5" y="11" style="fill:#333333;" width="3.75" height="2"/>
<rect x="6.5" y="14.5" style="fill:#333333;" width="3.75" height="2"/>
<rect x="12" y="9.5" style="fill:#333333;" width="2" height="6"/>
<path style="fill:#333333;" d="M18.5,15.5h-2v-3.25c0-0.689-0.561-1.25-1.25-1.25S14,11.561,14,12.25v3.25h-2v-3.25
	C12,10.458,13.458,9,15.25,9s3.25,1.458,3.25,3.25V15.5z"/>
</svg>






