<?xml version="1.0" encoding="iso-8859-1"?>
<svg version="1.1" id="&#x56FE;&#x5C42;_1" xmlns="http://www.w3.org/2000/svg" xmlns:xlink="http://www.w3.org/1999/xlink" x="0px"
	 y="0px" viewBox="0 0 24 24" style="enable-background:new 0 0 24 24;" xml:space="preserve">
<path style="fill:#333333;" d="M8.064,16c-4.57,0-6.568-2.864-7.029-4.557L2.7,10.466c0.207,0.202,1.151,0.898,2.022,0.612l0,0
	c0.43-0.14,0.696-0.458,1.129-1.007c0.593-0.753,1.332-1.689,2.888-1.995c2.289-0.444,3.841,1.123,4.204,2.903
	c0.18,0.88-0.039,2.257-0.932,3.349C11.389,15.092,10.199,16,8.064,16z M4.678,13.124C5.441,13.619,6.528,14,8.064,14
	c1.084,0,1.891-0.314,2.398-0.936c0.522-0.64,0.576-1.411,0.521-1.684c-0.055-0.273-0.41-1.625-1.859-1.34
	c-0.829,0.162-1.195,0.627-1.702,1.27c-0.493,0.626-1.052,1.335-2.079,1.67C5.119,13.053,4.897,13.1,4.678,13.124z"/>
<path style="fill:#333333;" d="M15.936,16c-2.135,0-3.325-0.908-3.947-1.671c-0.892-1.092-1.11-2.469-0.931-3.348
	C11.42,9.2,12.98,7.629,15.262,8.077c1.556,0.305,2.295,1.242,2.888,1.995c0.433,0.549,0.698,0.867,1.129,1.007l0,0
	c0.863,0.284,1.815-0.411,2.022-0.613l1.664,0.978C22.504,13.136,20.504,16,15.936,16z M14.495,10.001
	c-1.134,0-1.428,1.132-1.479,1.38c-0.056,0.273-0.001,1.044,0.521,1.684C14.045,13.686,14.852,14,15.936,14
	c1.536,0,2.622-0.381,3.386-0.876c-0.219-0.024-0.44-0.071-0.664-0.145l0,0c-1.026-0.335-1.585-1.044-2.078-1.67
	c-0.507-0.643-0.873-1.107-1.702-1.27C14.74,10.013,14.613,10.001,14.495,10.001z"/>
</svg>






