<?xml version="1.0" encoding="iso-8859-1"?>
<svg version="1.1" id="&#x56FE;&#x5C42;_1" xmlns="http://www.w3.org/2000/svg" xmlns:xlink="http://www.w3.org/1999/xlink" x="0px"
	 y="0px" viewBox="0 0 24 24" style="enable-background:new 0 0 24 24;" xml:space="preserve">
<path style="fill:#333333;" d="M8,13c-3.309,0-6-2.691-6-6s2.691-6,6-6s6,2.691,6,6S11.309,13,8,13z M8,3C5.794,3,4,4.794,4,7
	s1.794,4,4,4s4-1.794,4-4S10.206,3,8,3z"/>
<path style="fill:#333333;" d="M17.638,20.348c-0.34,0-0.681-0.117-0.962-0.353l-8.417-7.237l1.304-1.516l8.048,6.921l1.398-1.398
	c-4.443-5.588-6.7-8.427-6.785-8.532l0.749-0.605l0.733-0.733c0.05,0.05,0.05,0.05,7.139,8.966c0.485,0.582,0.445,1.451-0.106,2.003
	l-2.042,2.042C18.404,20.199,18.021,20.348,17.638,20.348z M19.279,17.104c0.005,0.007,0.01,0.013,0.015,0.02
	C19.289,17.116,19.284,17.11,19.279,17.104z"/>
<rect x="12.942" y="11.942" transform="matrix(0.7071 -0.7071 0.7071 0.7071 -5.068 13.6495)" style="fill:#333333;" width="2" height="2"/>
<path style="fill:#333333;" d="M18.141,23.434c-1.238,0-2.428-0.641-3.584-1.264c-0.913-0.491-1.857-1-2.562-1
	c-1.053,0-1.937,0.484-2.702,1.481l-1.587-1.217c1.153-1.503,2.596-2.265,4.289-2.265c1.208,0,2.378,0.63,3.51,1.239
	c1.037,0.559,2.113,1.136,2.879,1.005c0.621-0.107,1.068-0.437,1.194-0.88c0.095-0.33-0.015-0.665-0.299-0.917l1.326-1.496
	c0.857,0.76,1.2,1.894,0.896,2.961c-0.337,1.184-1.402,2.066-2.779,2.303C18.527,23.418,18.334,23.434,18.141,23.434z"/>
</svg>






