<?xml version="1.0" encoding="iso-8859-1"?>
<svg version="1.1" id="&#x56FE;&#x5C42;_1" xmlns="http://www.w3.org/2000/svg" xmlns:xlink="http://www.w3.org/1999/xlink" x="0px"
	 y="0px" viewBox="0 0 24 24" style="enable-background:new 0 0 24 24;" xml:space="preserve">
<polygon style="fill:#333333;" points="6,17 1,17 1,3 19,3 19,8 17,8 17,5 3,5 3,15 6,15 "/>
<path style="fill:#333333;" d="M23,21H5V7h18V21z M7,19h14V9H7V19z"/>
<polygon style="fill:#333333;" points="14,15.25 5.4,8.8 6.6,7.2 14,12.75 21.4,7.2 22.6,8.8 "/>
<polygon style="fill:#333333;" points="7,15.5 5,15.5 5,7 16,7 16,9 7,9 "/>
<polygon style="fill:#333333;" points="23,15.5 21,15.5 21,9 12,9 12,7 23,7 "/>
</svg>






