<?xml version="1.0" encoding="iso-8859-1"?>
<svg version="1.1" id="&#x56FE;&#x5C42;_1" xmlns="http://www.w3.org/2000/svg" xmlns:xlink="http://www.w3.org/1999/xlink" x="0px"
	 y="0px" viewBox="0 0 24 24" style="enable-background:new 0 0 24 24;" xml:space="preserve">
<path style="fill:#333333;" d="M19.5,22h-15C3.122,22,2,20.879,2,19.5v-15C2,3.122,3.122,2,4.5,2h15C20.879,2,22,3.122,22,4.5v15
	C22,20.879,20.879,22,19.5,22z M4.5,4C4.224,4,4,4.224,4,4.5v15C4,19.775,4.224,20,4.5,20h15c0.275,0,0.5-0.225,0.5-0.5v-15
	C20,4.224,19.775,4,19.5,4H4.5z"/>
<path style="fill-rule:evenodd;clip-rule:evenodd;fill:#333333;" d="M12,11.25c0.69,0,1.25-0.56,1.25-1.25S12.69,8.75,12,8.75
	S10.75,9.31,10.75,10S11.31,11.25,12,11.25z"/>
<path style="fill-rule:evenodd;clip-rule:evenodd;fill:#333333;" d="M12,15.25c0.69,0,1.25-0.56,1.25-1.25s-0.56-1.25-1.25-1.25
	s-1.25,0.56-1.25,1.25S11.31,15.25,12,15.25z"/>
<rect x="6.75" y="8.5" style="fill:#333333;" width="2" height="7"/>
<rect x="15.25" y="8.5" style="fill:#333333;" width="2" height="7"/>
</svg>






