<?xml version="1.0" encoding="iso-8859-1"?>
<svg version="1.1" id="&#x56FE;&#x5C42;_1" xmlns="http://www.w3.org/2000/svg" xmlns:xlink="http://www.w3.org/1999/xlink" x="0px"
	 y="0px" viewBox="0 0 24 24" style="enable-background:new 0 0 24 24;" xml:space="preserve">
<rect x="4.5" y="8" style="fill:#333333;" width="2" height="13"/>
<rect x="11" y="14.5" style="fill:#333333;" width="2" height="6.5"/>
<rect x="11" y="3" style="fill:#333333;" width="2" height="6.5"/>
<rect x="17.5" y="3" style="fill:#333333;" width="2" height="13"/>
<path style="fill:#333333;" d="M5.5,9C3.57,9,2,7.43,2,5.5S3.57,2,5.5,2S9,3.57,9,5.5S7.43,9,5.5,9z M5.5,4C4.673,4,4,4.673,4,5.5
	S4.673,7,5.5,7S7,6.327,7,5.5S6.327,4,5.5,4z"/>
<path style="fill:#333333;" d="M12,15.5c-1.93,0-3.5-1.57-3.5-3.5s1.57-3.5,3.5-3.5s3.5,1.57,3.5,3.5S13.93,15.5,12,15.5z M12,10.5
	c-0.827,0-1.5,0.673-1.5,1.5s0.673,1.5,1.5,1.5s1.5-0.673,1.5-1.5S12.827,10.5,12,10.5z"/>
<path style="fill:#333333;" d="M18.5,22c-1.93,0-3.5-1.57-3.5-3.5s1.57-3.5,3.5-3.5s3.5,1.57,3.5,3.5S20.43,22,18.5,22z M18.5,17
	c-0.827,0-1.5,0.673-1.5,1.5s0.673,1.5,1.5,1.5s1.5-0.673,1.5-1.5S19.327,17,18.5,17z"/>
</svg>






