<?xml version="1.0" encoding="iso-8859-1"?>
<svg version="1.1" id="&#x56FE;&#x5C42;_1" xmlns="http://www.w3.org/2000/svg" xmlns:xlink="http://www.w3.org/1999/xlink" x="0px"
	 y="0px" viewBox="0 0 24 24" style="enable-background:new 0 0 24 24;" xml:space="preserve">
<path style="fill:#333333;" d="M22,11.997c0-0.552-0.448-1-1-1s-1,0.448-1,1H22z M12,3.997c0.552,0,1-0.448,1-1s-0.448-1-1-1V3.997z
	 M19.5,19.997h-15v2h15V19.997z M4,19.497v-15H2v15H4z M20,11.997v7.5h2v-7.5H20z M4.5,3.997H12v-2H4.5V3.997z M4.5,19.997
	c-0.276,0-0.5-0.224-0.5-0.5H2c0,1.381,1.119,2.5,2.5,2.5V19.997z M19.5,21.997c1.381,0,2.5-1.119,2.5-2.5h-2
	c0,0.276-0.224,0.5-0.5,0.5V21.997z M4,4.497c0-0.276,0.224-0.5,0.5-0.5v-2c-1.381,0-2.5,1.119-2.5,2.5H4z"/>
<path style="fill:#333333;" d="M15.35,18.76l-6.328-5.423l-5.346,4.9l-1.352-1.475l5.347-4.901c0.745-0.682,1.886-0.7,2.653-0.043
	l6.327,5.423L15.35,18.76z"/>
<path style="fill:#333333;" d="M20.4,16.3l-3.306-2.479l-2.388,2.387l-1.414-1.414l2.387-2.387c0.7-0.7,1.824-0.779,2.614-0.186
	L21.6,14.7L20.4,16.3z"/>
<rect x="17.5" y="2.672" transform="matrix(0.7071 -0.7071 0.7071 0.7071 1.5294 14.6924)" style="fill:#333333;" width="2" height="5.657"/>
<rect x="15.672" y="4.5" transform="matrix(0.7071 -0.7071 0.7071 0.7071 1.5294 14.6924)" style="fill:#333333;" width="5.657" height="2"/>
</svg>






