<?xml version="1.0" encoding="iso-8859-1"?>
<svg version="1.1" id="&#x56FE;&#x5C42;_1" xmlns="http://www.w3.org/2000/svg" xmlns:xlink="http://www.w3.org/1999/xlink" x="0px"
	 y="0px" viewBox="0 0 24 24" style="enable-background:new 0 0 24 24;" xml:space="preserve">
<rect x="6" y="7.757" transform="matrix(0.7071 -0.7071 0.7071 0.7071 -6.435 8.4645)" style="fill:#333333;" width="2" height="8.485"/>
<rect x="2.757" y="11" transform="matrix(0.7071 -0.7071 0.7071 0.7071 -6.435 8.4645)" style="fill:#333333;" width="8.485" height="2"/>
<path style="fill:#333333;" d="M17.657,20.754l-1.314-1.508C18.735,17.159,20,14.653,20,12c0-2.654-1.265-5.159-3.657-7.247
	l1.314-1.507C20.458,5.689,22,8.798,22,12S20.458,18.311,17.657,20.754z"/>
<path style="fill:#333333;" d="M14.088,17.809l-1.176-1.617C14.093,15.333,15.5,13.909,15.5,12s-1.407-3.333-2.588-4.191
	l1.176-1.618c2.2,1.6,3.412,3.663,3.412,5.809S16.288,16.209,14.088,17.809z"/>
</svg>






