<?xml version="1.0" encoding="iso-8859-1"?>
<svg version="1.1" id="&#x56FE;&#x5C42;_1" xmlns="http://www.w3.org/2000/svg" xmlns:xlink="http://www.w3.org/1999/xlink" x="0px"
	 y="0px" viewBox="0 0 24 24" style="enable-background:new 0 0 24 24;" xml:space="preserve">
<path style="fill:#333333;" d="M6.914,23H1v-6.5h5.086l11-11H23V12h-5.086L6.914,23z M3,21h3.086l11-11H21V7.5h-3.086l-11,11H3V21z"
	/>
<rect x="8.568" y="3.25" transform="matrix(0.7071 -0.7071 0.7071 0.7071 0.4363 9.5533)" style="fill:#333333;" width="6.364" height="2"/>
<polygon style="fill:#333333;" points="15,5 13,5 13,3 11,3 11,1 15,1 "/>
<rect x="1.568" y="10.25" transform="matrix(0.7071 -0.7071 0.7071 0.7071 -6.5637 6.6538)" style="fill:#333333;" width="6.364" height="2"/>
<polygon style="fill:#333333;" points="5.5,14.5 1.5,14.5 1.5,10.5 3.5,10.5 3.5,12.5 5.5,12.5 "/>
</svg>






