<?xml version="1.0" encoding="iso-8859-1"?>
<svg version="1.1" id="&#x56FE;&#x5C42;_1" xmlns="http://www.w3.org/2000/svg" xmlns:xlink="http://www.w3.org/1999/xlink" x="0px"
	 y="0px" viewBox="0 0 24 24" style="enable-background:new 0 0 24 24;" xml:space="preserve">
<path style="fill:#333333;" d="M7,18c-1.93,0-3.5-1.57-3.5-3.5S5.07,11,7,11s3.5,1.57,3.5,3.5S8.93,18,7,18z M7,13
	c-0.827,0-1.5,0.673-1.5,1.5S6.173,16,7,16s1.5-0.673,1.5-1.5S7.827,13,7,13z"/>
<path style="fill:#333333;" d="M17,18c-1.93,0-3.5-1.57-3.5-3.5S15.07,11,17,11s3.5,1.57,3.5,3.5S18.93,18,17,18z M17,13
	c-0.827,0-1.5,0.673-1.5,1.5S16.173,16,17,16s1.5-0.673,1.5-1.5S17.827,13,17,13z"/>
<path style="fill:#333333;" d="M12,8c-1.93,0-3.5-1.57-3.5-3.5S10.07,1,12,1s3.5,1.57,3.5,3.5S13.93,8,12,8z M12,3
	c-0.827,0-1.5,0.673-1.5,1.5S11.173,6,12,6s1.5-0.673,1.5-1.5S12.827,3,12,3z"/>
<path style="fill:#333333;" d="M13,22h-2c0-2.206-1.794-4-4-4s-4,1.794-4,4H1c0-3.309,2.691-6,6-6S13,18.691,13,22z"/>
<path style="fill:#333333;" d="M23,22h-2c0-2.206-1.794-4-4-4s-4,1.794-4,4h-2c0-3.309,2.691-6,6-6S23,18.691,23,22z"/>
<path style="fill:#333333;" d="M18,12h-2c0-2.206-1.794-4-4-4c-2.206,0-4,1.794-4,4H6c0-3.309,2.691-6,6-6S18,8.691,18,12z"/>
</svg>






