<?xml version="1.0" encoding="iso-8859-1"?>
<svg version="1.1" id="&#x56FE;&#x5C42;_1" xmlns="http://www.w3.org/2000/svg" xmlns:xlink="http://www.w3.org/1999/xlink" x="0px"
	 y="0px" viewBox="0 0 24 24" style="enable-background:new 0 0 24 24;" xml:space="preserve">
<path style="fill:#333333;" d="M19,23H5c-1.103,0-2-0.897-2-2v-4.5h2V21h14V3H5v4.5H3V3c0-1.103,0.897-2,2-2h14c1.103,0,2,0.897,2,2
	v18C21,22.103,20.103,23,19,23z"/>
<rect x="15.5" y="6.5" style="fill:#333333;" width="1.5" height="2"/>
<rect x="14" y="10.5" style="fill:#333333;" width="3" height="2"/>
<rect x="14" y="14.5" style="fill:#333333;" width="3" height="2"/>
<path style="fill:#333333;" d="M12,17.5H1v-11h11V17.5z M3,15.5h7v-7H3V15.5z"/>
<rect x="5.5" y="9.879" transform="matrix(0.7071 -0.7071 0.7071 0.7071 -6.5815 8.1109)" style="fill:#333333;" width="2" height="4.243"/>
<rect x="4.379" y="11" transform="matrix(0.7071 -0.7071 0.7071 0.7071 -6.5815 8.1109)" style="fill:#333333;" width="4.243" height="2"/>
</svg>






