<?xml version="1.0" encoding="iso-8859-1"?>
<svg version="1.1" id="&#x56FE;&#x5C42;_1" xmlns="http://www.w3.org/2000/svg" xmlns:xlink="http://www.w3.org/1999/xlink" x="0px"
	 y="0px" viewBox="0 0 24 24" style="enable-background:new 0 0 24 24;" xml:space="preserve">
<path style="fill:#333333;" d="M20.5,22.5H9c-1.103,0-2-0.897-2-2V9c0-1.103,0.897-2,2-2h11.5c1.103,0,2,0.897,2,2v11.5
	C22.5,21.603,21.603,22.5,20.5,22.5z M9,9H8.999L9,20.5h11.5V9H9z"/>
<path style="fill:#333333;" d="M15,17H3.5c-1.103,0-2-0.897-2-2V3.5c0-1.103,0.897-2,2-2H15c1.103,0,2,0.897,2,2V15
	C17,16.103,16.103,17,15,17z M3.5,3.5H3.499L3.5,15H15V3.5H3.5z"/>
<rect x="7.068" y="17.25" transform="matrix(0.7071 -0.7071 0.7071 0.7071 -9.9025 12.5933)" style="fill:#333333;" width="6.364" height="2"/>
<rect x="15.068" y="9.25" transform="matrix(0.7071 -0.7071 0.7071 0.7071 -1.9025 15.9069)" style="fill:#333333;" width="6.364" height="2"/>
<rect x="2.569" y="12.75" transform="matrix(0.7071 -0.7071 0.7071 0.7071 -8.0384 8.0935)" style="fill:#333333;" width="6.364" height="2"/>
<rect x="10.569" y="4.75" transform="matrix(0.707 -0.7072 0.7072 0.707 -0.0375 11.4095)" style="fill:#333333;" width="6.363" height="2"/>
<rect x="10.032" y="15.75" transform="matrix(0.7071 -0.7071 0.7071 0.7071 -6.9381 16.75)" style="fill:#333333;" width="13.435" height="2"/>
<rect x="0.533" y="6.25" transform="matrix(0.7071 -0.7071 0.7071 0.7071 -3.003 7.2502)" style="fill:#333333;" width="13.435" height="2"/>
<rect x="16.068" y="18.25" transform="matrix(0.7071 -0.7071 0.7071 0.7071 -7.9736 19.25)" style="fill:#333333;" width="6.364" height="2"/>
<rect x="1.568" y="3.75" transform="matrix(0.7071 -0.7071 0.7071 0.7071 -1.9675 4.75)" style="fill:#333333;" width="6.364" height="2"/>
</svg>






