<?xml version="1.0" encoding="iso-8859-1"?>
<svg version="1.1" id="&#x56FE;&#x5C42;_1" xmlns="http://www.w3.org/2000/svg" xmlns:xlink="http://www.w3.org/1999/xlink" x="0px"
	 y="0px" viewBox="0 0 24 24" style="enable-background:new 0 0 24 24;" xml:space="preserve">
<path style="fill:#333333;" d="M19,22H5c-1.654,0-3-1.346-3-3V5c0-1.654,1.346-3,3-3h14c1.654,0,3,1.346,3,3v14
	C22,20.654,20.654,22,19,22z M5,4C4.449,4,4,4.449,4,5v14c0,0.552,0.449,1,1,1h14c0.552,0,1-0.448,1-1V5c0-0.551-0.448-1-1-1H5z"/>
<rect x="3" y="15" style="fill:#333333;" width="18" height="2"/>
<polygon style="fill:#333333;" points="12,11.414 9.293,8.707 10.707,7.293 12,8.586 13.293,7.293 14.707,8.707 "/>
<rect x="2" y="13" style="fill:#333333;" width="2" height="6"/>
<rect x="20" y="13" style="fill:#333333;" width="2" height="6"/>
</svg>






