<?xml version="1.0" encoding="iso-8859-1"?>
<svg version="1.1" id="&#x56FE;&#x5C42;_1" xmlns="http://www.w3.org/2000/svg" xmlns:xlink="http://www.w3.org/1999/xlink" x="0px"
	 y="0px" viewBox="0 0 24 24" style="enable-background:new 0 0 24 24;" xml:space="preserve">
<polygon style="fill:#333333;" points="15.707,18.707 14.293,17.293 16.086,15.5 14.293,13.707 15.707,12.293 18.914,15.5 "/>
<polygon style="fill:#333333;" points="19.707,18.707 18.293,17.293 20.086,15.5 18.293,13.707 19.707,12.293 22.914,15.5 "/>
<path style="fill:#333333;" d="M14.235,21.5H3.5c-1.103,0-2-0.897-2-2v-15c0-1.103,0.897-2,2-2h17c1.103,0,2,0.897,2,2V11h-2V4.5
	h-17v15h10.735V21.5z"/>
<polygon style="fill:#333333;" points="9,12.062 5.732,8.14 7.268,6.86 9,8.938 10.732,6.86 12.269,8.14 "/>
<rect x="6" y="12.5" style="fill:#333333;" width="6" height="2"/>
<rect x="6" y="9.5" style="fill:#333333;" width="6" height="2"/>
<rect x="8" y="10.5" style="fill:#333333;" width="2" height="6"/>
</svg>






