<?xml version="1.0" encoding="iso-8859-1"?>
<svg version="1.1" id="&#x56FE;&#x5C42;_1" xmlns="http://www.w3.org/2000/svg" xmlns:xlink="http://www.w3.org/1999/xlink" x="0px"
	 y="0px" viewBox="0 0 24 24" style="enable-background:new 0 0 24 24;" xml:space="preserve">
<rect x="6" y="1" style="fill:#333333;" width="12" height="2"/>
<polygon style="fill:#333333;" points="6.289,15.436 4.489,14.564 8.009,7.29 8.009,1 16.014,1 16.014,7.291 19.523,14.565 
	17.723,15.435 14.014,7.748 14.014,3 10.009,3 10.009,7.749 "/>
<path style="fill:#333333;" d="M19.394,23H4.61c-0.395,0-0.792-0.091-1.148-0.263L3.46,22.736c-1.307-0.634-1.856-2.214-1.224-3.521
	l2.761-5.702l0.96,0.665c0.12,0.082,3.035,2.026,5.402,0.054c2.834-2.362,6.361-1.068,7.832-0.055l0.218,0.15l2.358,4.891
	c0.172,0.354,0.263,0.75,0.263,1.146C22.03,21.817,20.848,23,19.394,23z M4.333,20.938C4.42,20.979,4.514,21,4.61,21h14.783
	c0.352,0,0.637-0.285,0.637-0.637c0-0.095-0.021-0.189-0.063-0.274l-2.119-4.395c-0.723-0.422-3.173-1.623-5.207,0.074
	c-2.31,1.924-5.077,1.422-6.813,0.621l-1.79,3.696C3.884,20.402,4.017,20.783,4.333,20.938z"/>
</svg>






