<?xml version="1.0" encoding="iso-8859-1"?>
<svg version="1.1" id="&#x56FE;&#x5C42;_1" xmlns="http://www.w3.org/2000/svg" xmlns:xlink="http://www.w3.org/1999/xlink" x="0px"
	 y="0px" viewBox="0 0 24 24" style="enable-background:new 0 0 24 24;" xml:space="preserve">
<path style="fill:#333333;" d="M19,23H5c-1.103,0-2-0.897-2-2v-5.5h2V21h14v-5.5h2V21C21,22.103,20.103,23,19,23z"/>
<path style="fill:#333333;" d="M19,13H5c-1.103,0-2-0.897-2-2V8c0-1.103,0.897-2,2-2h14c1.103,0,2,0.897,2,2v3
	C21,12.103,20.103,13,19,13z M5,8v3h14V8H5z"/>
<rect x="7" y="2" style="fill:#333333;" width="2" height="2"/>
<rect x="11" y="2" style="fill:#333333;" width="2" height="2"/>
<rect x="15" y="2" style="fill:#333333;" width="2" height="2"/>
<rect x="8" y="16" style="fill:#333333;" width="8" height="2"/>
</svg>






