<?xml version="1.0" encoding="iso-8859-1"?>
<svg version="1.1" id="&#x56FE;&#x5C42;_1" xmlns="http://www.w3.org/2000/svg" xmlns:xlink="http://www.w3.org/1999/xlink" x="0px"
	 y="0px" viewBox="0 0 24 24" style="enable-background:new 0 0 24 24;" xml:space="preserve">
<path style="fill:#333333;" d="M12,21.5c-5.292,0-10-4.474-10-8s4.708-8,10-8c5.292,0,10,4.474,10,8S17.292,21.5,12,21.5z M12,7.5
	c-4.339,0-8,3.686-8,6s3.661,6,8,6s8-3.686,8-6S16.339,7.5,12,7.5z"/>
<path style="fill:#333333;" d="M12,17.5c-2.206,0-4-1.794-4-4c0-2.206,1.794-4,4-4c2.206,0,4,1.794,4,4
	C16,15.706,14.206,17.5,12,17.5z M12,11.5c-1.103,0-2,0.897-2,2s0.897,2,2,2c1.103,0,2-0.897,2-2S13.103,11.5,12,11.5z"/>
<rect x="6.28" y="5.424" transform="matrix(0.8129 -0.5825 0.5825 0.8129 -2.4457 5.4642)" style="fill:#333333;" width="2" height="2.227"/>
<rect x="16.051" y="5.761" transform="matrix(0.5827 -0.8127 0.8127 0.5827 1.669 16.7707)" style="fill:#333333;" width="2.227" height="1.999"/>
<rect x="11.005" y="3.5" style="fill:#333333;" width="2" height="3"/>
</svg>






