<?xml version="1.0" encoding="iso-8859-1"?>
<svg version="1.1" id="&#x56FE;&#x5C42;_1" xmlns="http://www.w3.org/2000/svg" xmlns:xlink="http://www.w3.org/1999/xlink" x="0px"
	 y="0px" viewBox="0 0 24 24" style="enable-background:new 0 0 24 24;" xml:space="preserve">
<path style="fill:#333333;" d="M19.5,22h-15C3.122,22,2,20.879,2,19.5v-15C2,3.122,3.122,2,4.5,2h15C20.879,2,22,3.122,22,4.5v15
	C22,20.879,20.879,22,19.5,22z M4.5,4C4.224,4,4,4.224,4,4.5v15C4,19.775,4.224,20,4.5,20h15c0.275,0,0.5-0.225,0.5-0.5v-15
	C20,4.224,19.775,4,19.5,4H4.5z"/>
<path style="fill:#333333;" d="M14.777,17C12.858,17,12,15.653,12,14.318h2C14,14.821,14.203,15,14.777,15
	C15.446,15,16,14.887,16,13.5c0-1.75-0.451-1.75-0.75-1.75c-0.948,0-1.632,0.495-1.638,0.5L12,11.459V7h5v2h-3v0.914
	c0.368-0.097,0.788-0.164,1.25-0.164c1.255,0,2.75,0.65,2.75,3.75C18,15.725,16.825,17,14.777,17z"/>
<polygon style="fill:#333333;" points="8,16 6,16 6,7 10.5,7 10.5,9 8,9 "/>
<rect x="7" y="11" style="fill:#333333;" width="3.5" height="2"/>
</svg>






