<?xml version="1.0" encoding="iso-8859-1"?>
<svg version="1.1" id="&#x56FE;&#x5C42;_1" xmlns="http://www.w3.org/2000/svg" xmlns:xlink="http://www.w3.org/1999/xlink" x="0px"
	 y="0px" viewBox="0 0 24 24" style="enable-background:new 0 0 24 24;" xml:space="preserve">
<path style="fill:#333333;" d="M19.5,22h-15C3.122,22,2,20.879,2,19.5v-15C2,3.122,3.122,2,4.5,2h15C20.879,2,22,3.122,22,4.5v15
	C22,20.879,20.879,22,19.5,22z M4.5,4C4.224,4,4,4.224,4,4.5v15C4,19.775,4.224,20,4.5,20h15c0.275,0,0.5-0.225,0.5-0.5v-15
	C20,4.224,19.775,4,19.5,4H4.5z"/>
<path style="fill:#333333;" d="M15.25,17c-1.29,0-2.258-0.78-2.645-1.553l1.789-0.895C14.484,14.733,14.819,15,15.25,15
	c0.28,0,0.75-0.13,0.75-1c0-1.264-1.014-1.399-1.45-1.399l-0.827-1.563L15.109,9H13.5V7H17l0.827,1.562l-1.631,2.396
	C17.307,11.497,18,12.601,18,14C18,15.97,16.616,17,15.25,17z"/>
<polygon style="fill:#333333;" points="8,16 6,16 6,7 10.5,7 10.5,9 8,9 "/>
<rect x="7" y="11" style="fill:#333333;" width="3.5" height="2"/>
</svg>






