<?xml version="1.0" encoding="iso-8859-1"?>
<svg version="1.1" id="&#x56FE;&#x5C42;_1" xmlns="http://www.w3.org/2000/svg" xmlns:xlink="http://www.w3.org/1999/xlink" x="0px"
	 y="0px" viewBox="0 0 24 24" style="enable-background:new 0 0 24 24;" xml:space="preserve">
<path style="fill:#333333;" d="M19.5,22h-15C3.122,22,2,20.879,2,19.5v-15C2,3.122,3.122,2,4.5,2h15C20.879,2,22,3.122,22,4.5v15
	C22,20.879,20.879,22,19.5,22z M4.5,4C4.224,4,4,4.224,4,4.5v15C4,19.775,4.224,20,4.5,20h15c0.275,0,0.5-0.225,0.5-0.5v-15
	C20,4.224,19.775,4,19.5,4H4.5z"/>
<path style="fill:#333333;" d="M17,17h-5v-1c0-1.409,1.128-2.493,2.219-3.541C15.095,11.618,16,10.748,16,10c0-0.682-0.597-1-1-1
	s-1,0.318-1,1h-2c0-1.853,1.558-3,3-3s3,1.147,3,3c0,1.6-1.272,2.822-2.396,3.901c-0.372,0.357-0.768,0.737-1.073,1.099H17V17z"/>
<polygon style="fill:#333333;" points="8,16 6,16 6,7 10.5,7 10.5,9 8,9 "/>
<rect x="7" y="11" style="fill:#333333;" width="3.5" height="2"/>
</svg>






