<?xml version="1.0" encoding="iso-8859-1"?>
<svg version="1.1" id="&#x56FE;&#x5C42;_1" xmlns="http://www.w3.org/2000/svg" xmlns:xlink="http://www.w3.org/1999/xlink" x="0px"
	 y="0px" viewBox="0 0 24 24" style="enable-background:new 0 0 24 24;" xml:space="preserve">
<path style="fill:#333333;" d="M20.5,22.5h-4v-2h4v-4h2v4C22.5,21.603,21.603,22.5,20.5,22.5z M7.5,22.5h-4c-1.103,0-2-0.897-2-2v-4
	h2v4h4V22.5z M22.5,7.5h-2v-4h-4v-2h4c1.103,0,2,0.897,2,2V7.5z M3.5,7.5h-2v-4c0-1.103,0.897-2,2-2h4v2h-4V7.5z"/>
<path style="fill:#333333;" d="M12,20c-3.86,0-7-3.589-7-8s3.14-8,7-8c3.859,0,7,3.589,7,8S15.859,20,12,20z M12,6
	c-2.757,0-5,2.691-5,6s2.243,6,5,6s5-2.691,5-6S14.757,6,12,6z"/>
<rect x="3" y="11" style="fill:#333333;" width="18" height="2"/>
<path style="fill:#333333;" d="M12,16.756c-0.892,0-1.753-0.303-2.56-0.899l1.189-1.607c0.932,0.688,1.82,0.682,2.816-0.016
	l1.146,1.639C13.754,16.459,12.882,16.756,12,16.756z"/>
</svg>






