<?xml version="1.0" encoding="iso-8859-1"?>
<svg version="1.1" id="&#x56FE;&#x5C42;_1" xmlns="http://www.w3.org/2000/svg" xmlns:xlink="http://www.w3.org/1999/xlink" x="0px"
	 y="0px" viewBox="0 0 24 24" style="enable-background:new 0 0 24 24;" xml:space="preserve">
<path style="fill:#333333;" d="M15.01,22.5H8.623v-6.968H5V9.734h3.588l0.034-2.619L8.616,6.484C8.588,3.763,10.779,1.527,13.5,1.5
	H19v5.8h-4.007l0.012,2.434h4.16l-0.891,5.798H15.01V22.5z M10.623,20.5h2.387v-6.968h3.548l0.277-1.798H13.01V7.283
	c0-1.094,0.89-1.983,1.983-1.983H17V3.5h-3.45c-1.647,0.016-2.951,1.346-2.934,2.963l0.007,0.654l-0.06,4.616H7v1.798h3.623V20.5z"
	/>
</svg>






