<?xml version="1.0" encoding="iso-8859-1"?>
<svg version="1.1" id="&#x56FE;&#x5C42;_1" xmlns="http://www.w3.org/2000/svg" xmlns:xlink="http://www.w3.org/1999/xlink" x="0px"
	 y="0px" viewBox="0 0 24 24" style="enable-background:new 0 0 24 24;" xml:space="preserve">
<path style="fill:#333333;" d="M21.944,24H2.056C0.922,24,0,23.075,0,21.938V2.062C0,0.925,0.922,0,2.056,0h19.889
	C23.078,0,24,0.925,24,2.062v19.877C24,23.075,23.078,24,21.944,24z M2.056,2L2,21.938L2.056,22h19.889L22,2.062L2.056,2z"/>
<path style="fill-rule:evenodd;clip-rule:evenodd;fill:#333333;" d="M19.331,8.943h-2.177h-0.257c-0.675,0-1.222,0.547-1.222,1.222
	v2.445h3.657l-0.536,3.665h-3.121V23h-4.021v-6.724h-3.32v-3.665h3.277l0.043-3.479l-0.012-1.247
	c-0.017-1.761,1.397-3.202,3.158-3.219c0.01,0,0.02,0,0.031,0h4.501V8.943z"/>
</svg>






