<?xml version="1.0" encoding="iso-8859-1"?>
<svg version="1.1" id="&#x56FE;&#x5C42;_1" xmlns="http://www.w3.org/2000/svg" xmlns:xlink="http://www.w3.org/1999/xlink" x="0px"
	 y="0px" viewBox="0 0 24 24" style="enable-background:new 0 0 24 24;" xml:space="preserve">
<path style="fill:#333333;" d="M12,19c-4.473,0-9-1.374-9-4s4.527-4,9-4s9,1.374,9,4S16.473,19,12,19z M12,13c-4.547,0-7,1.42-7,2
	s2.453,2,7,2s7-1.42,7-2S16.547,13,12,13z"/>
<path style="fill:#333333;" d="M12,13c-5.047,0-9-2.636-9-6s3.953-6,9-6s9,2.636,9,6S17.047,13,12,13z M12,3C8.206,3,5,4.832,5,7
	s3.206,4,7,4c3.794,0,7-1.832,7-4S15.794,3,12,3z"/>
<rect x="8.792" y="4.75" transform="matrix(0.8574 -0.5146 0.5146 0.8574 -1.4976 6.095)" style="fill:#333333;" width="2.915" height="2"/>
<rect x="12.292" y="6.75" transform="matrix(0.8574 -0.5146 0.5146 0.8574 -2.0278 8.1814)" style="fill:#333333;" width="2.915" height="2"/>
<path style="fill:#333333;" d="M12,23c-4.473,0-9-1.374-9-4h2c0,0.58,2.453,2,7,2s7-1.42,7-2h2C21,21.626,16.473,23,12,23z"/>
<rect x="19" y="15" style="fill:#333333;" width="2" height="4"/>
<rect x="3" y="15" style="fill:#333333;" width="2" height="4"/>
<ellipse style="fill:#333333;" cx="12" cy="15" rx="3.5" ry="1"/>
</svg>






