<?xml version="1.0" encoding="iso-8859-1"?>
<svg version="1.1" id="&#x56FE;&#x5C42;_1" xmlns="http://www.w3.org/2000/svg" xmlns:xlink="http://www.w3.org/1999/xlink" x="0px"
	 y="0px" viewBox="0 0 24 24" style="enable-background:new 0 0 24 24;" xml:space="preserve">
<polygon style="fill:#333333;" points="17.5,23 6.5,23 6.5,17 8.5,17 8.5,21 15.5,21 15.5,17 17.5,17 "/>
<path style="fill:#333333;" d="M17.238,18H6.714L3.654,5.763C3.538,5.38,3.189,3.875,4.168,2.557C4.695,1.847,5.787,1,7.993,1h7.975
	c0.007,0,0.014,0,0.02,0c1.722,0,2.989,0.5,3.767,1.486c0.68,0.862,0.914,2.084,0.627,3.269c-0.617,2.55-2.924,11.408-2.947,11.497
	L17.238,18z M8.275,16h7.417c0.572-2.199,2.237-8.618,2.745-10.715c0.11-0.458,0.103-1.108-0.254-1.56
	C17.712,3.127,16.732,3,15.987,3c-0.006,0-0.012,0-0.017,0H7.993C7.234,3,6.234,3.13,5.774,3.749C5.438,4.202,5.46,4.83,5.582,5.23
	L8.275,16z"/>
<path style="fill:#333333;" d="M12.037,13.706c-1.188,0-2.346-0.771-2.879-1.919c-0.47-1.011-0.35-2.089,0.321-2.886l0,0
	c0.743-0.882,1.357-2.194,1.652-2.825l0.673-1.438l1.006,1.229c0.6,0.731,1.979,2.652,2.454,3.777c0.337,0.8,0.23,1.71-0.293,2.499
	C14.331,13.106,13.207,13.706,12.037,13.706z M12.204,8.4c-0.328,0.596-0.729,1.236-1.196,1.79l0,0
	c-0.207,0.245-0.134,0.545-0.037,0.753c0.206,0.442,0.654,0.763,1.066,0.763c0.568,0,1.047-0.336,1.268-0.67
	c0.086-0.129,0.216-0.381,0.116-0.616C13.218,9.937,12.713,9.133,12.204,8.4z"/>
</svg>






