<?xml version="1.0" encoding="iso-8859-1"?>
<svg version="1.1" id="&#x56FE;&#x5C42;_1" xmlns="http://www.w3.org/2000/svg" xmlns:xlink="http://www.w3.org/1999/xlink" x="0px"
	 y="0px" viewBox="0 0 24 24" style="enable-background:new 0 0 24 24;" xml:space="preserve">
<path style="fill:#333333;" d="M12,21c-2.435,0-5.47-2.05-7.063-3.272C4.341,17.271,4,16.568,4,15.802V7.557
	c0-1.054,0.667-2,1.659-2.354l5.5-1.964c0.542-0.194,1.14-0.193,1.683,0l5.499,1.964C19.334,5.558,20,6.504,20,7.557v8.245
	c0,0.767-0.342,1.468-0.937,1.926C17.47,18.95,14.435,21,12,21z M12,5.093c-0.057,0-0.113,0.01-0.167,0.029l-5.5,1.965
	C6.133,7.157,6,7.347,6,7.557v8.245c0,0.141,0.057,0.264,0.155,0.34C8.488,17.932,10.673,19,12,19c1.327,0,3.512-1.068,5.846-2.858
	C17.943,16.065,18,15.942,18,15.802V7.557c0-0.211-0.134-0.4-0.332-0.471l-5.499-1.964C12.114,5.103,12.057,5.093,12,5.093z"/>
<path style="fill:#333333;" d="M5,15c-2.206,0-4-2.007-4-4.474C1,8.285,2.458,7,5,7v2c-2,0-2,0.993-2,1.526C3,11.89,3.897,13,5,13
	V15z"/>
<path style="fill:#333333;" d="M19,15v-2c1.103,0,2-1.11,2-2.474C21,9.993,21,9,19,9V7c2.542,0,4,1.285,4,3.526
	C23,12.993,21.206,15,19,15z"/>
<polygon style="fill:#333333;" points="15.553,13.395 12,11.618 8.447,13.395 7.553,11.605 12,9.382 16.447,11.605 "/>
<polygon style="fill:#333333;" points="14.129,16.429 12,15.577 9.872,16.429 9.128,14.571 12,13.423 14.871,14.571 "/>
</svg>






