<?xml version="1.0" encoding="iso-8859-1"?>
<svg version="1.1" id="&#x56FE;&#x5C42;_1" xmlns="http://www.w3.org/2000/svg" xmlns:xlink="http://www.w3.org/1999/xlink" x="0px"
	 y="0px" viewBox="0 0 24 24" style="enable-background:new 0 0 24 24;" xml:space="preserve">
<path style="fill:#333333;" d="M2.993,14.121l-1.985-0.242c0.496-4.047,3.502-5.261,3.63-5.311l0.725,1.864L5,9.5l0.372,0.928
	C5.289,10.462,3.338,11.3,2.993,14.121z"/>
<path style="fill:#333333;" d="M21.008,14.121c-0.346-2.821-2.297-3.659-2.38-3.693l0.734-1.86c0.128,0.05,3.135,1.264,3.63,5.311
	L21.008,14.121z"/>
<path style="fill:#333333;" d="M11.021,13.201c-0.458-2.225-2.194-2.712-2.267-2.732l0.483-1.941
	c0.123,0.03,3.023,0.773,3.743,4.271L11.021,13.201z"/>
<path style="fill:#333333;" d="M12.979,13.201l-1.959-0.402c0.719-3.497,3.62-4.241,3.743-4.271l0.473,1.943L15,9.5l0.247,0.969
	C15.173,10.489,13.437,10.977,12.979,13.201z"/>
<path style="fill:#333333;" d="M7.946,20.324l-1.892-0.648c1.078-3.146,3.661-3.641,3.77-3.66l0.352,1.969L10,17l0.189,0.981
	C10.126,17.995,8.63,18.328,7.946,20.324z"/>
<path style="fill:#333333;" d="M16.054,20.324c-0.685-1.996-2.18-2.329-2.243-2.343l0.365-1.966c0.109,0.02,2.691,0.515,3.771,3.66
	L16.054,20.324z"/>
<path style="fill:#333333;" d="M12,19c-1.93,0-3.5-1.57-3.5-3.5S10.07,12,12,12s3.5,1.57,3.5,3.5S13.93,19,12,19z M12,14
	c-0.827,0-1.5,0.673-1.5,1.5S11.173,17,12,17s1.5-0.673,1.5-1.5S12.827,14,12,14z"/>
<path style="fill:#333333;" d="M17,11c-2.206,0-4-1.794-4-4s1.794-4,4-4s4,1.794,4,4S19.206,11,17,11z M17,5c-1.103,0-2,0.897-2,2
	s0.897,2,2,2s2-0.897,2-2S18.103,5,17,5z"/>
<path style="fill:#333333;" d="M7,11c-2.206,0-4-1.794-4-4s1.794-4,4-4s4,1.794,4,4S9.206,11,7,11z M7,5C5.897,5,5,5.897,5,7
	s0.897,2,2,2s2-0.897,2-2S8.103,5,7,5z"/>
</svg>






