<?xml version="1.0" encoding="iso-8859-1"?>
<svg version="1.1" id="&#x56FE;&#x5C42;_1" xmlns="http://www.w3.org/2000/svg" xmlns:xlink="http://www.w3.org/1999/xlink" x="0px"
	 y="0px" viewBox="0 0 24 24" style="enable-background:new 0 0 24 24;" xml:space="preserve">
<path style="fill:#333333;" d="M12.999,18h-2v-1.773l-10.246-3.33l0.309-0.951c0.755-2.325,2.2-4.312,4.178-5.75
	C7.218,4.759,9.556,4,12,4c2.445,0,4.782,0.759,6.76,2.196c1.977,1.437,3.422,3.424,4.178,5.75l0.309,0.951l-10.247,3.33V18z
	 M15.674,10.444c0.802,0.583,1.441,1.332,1.886,2.199l3.117-1.014c-0.676-1.52-1.731-2.826-3.093-3.814C15.95,6.627,14.019,6,12,6
	S8.05,6.627,6.416,7.814c-1.362,0.989-2.418,2.295-3.093,3.814l3.117,1.014c0.444-0.867,1.084-1.616,1.886-2.199l0.001,0.001
	l0-0.001C10.477,8.882,13.522,8.882,15.674,10.444l-0.002,0.002L15.674,10.444z M12.999,11.626v0.797l0.469-0.645L12.999,11.626z
	 M10.532,11.778L11,12.422v-0.795L10.532,11.778z"/>
</svg>






