<?xml version="1.0" encoding="iso-8859-1"?>
<svg version="1.1" id="&#x56FE;&#x5C42;_1" xmlns="http://www.w3.org/2000/svg" xmlns:xlink="http://www.w3.org/1999/xlink" x="0px"
	 y="0px" viewBox="0 0 24 24" style="enable-background:new 0 0 24 24;" xml:space="preserve">
<path style="fill:#333333;" d="M17.714,2.442c2.109,0,3.826,1.718,3.826,3.827v11.446c0,2.109-1.718,3.826-3.826,3.826H6.269
	c-2.109,0-3.827-1.718-3.827-3.826V6.269c0-2.109,1.718-3.827,3.827-3.827H17.714z M17.714,2H6.269C3.905,2,2,3.905,2,6.269v11.446
	c0,2.364,1.905,4.269,4.269,4.269h11.446c2.364,0,4.269-1.905,4.269-4.269V6.269C22,3.905,20.078,2,17.714,2z"/>
<path style="fill:#333333;" d="M14.551,2v4.201l1.616-0.918l1.616,0.918V2H14.551z"/>
<path style="fill:#333333;" d="M12.017,9.143c-4.099,0-7.738,1.786-10.017,4.541v4.031c0,2.364,1.905,4.269,4.269,4.269h11.446
	c2.364,0,4.269-1.905,4.269-4.269v-4.082C19.704,10.895,16.099,9.143,12.017,9.143z M7.306,18.837c-0.748,0-1.105-0.272-1.105-0.629
	c0-0.357,0.34-0.646,1.088-0.646s1.65,0.629,1.65,0.629S8.054,18.837,7.306,18.837z M7.918,15.605
	c-0.544-0.527-0.595-0.969-0.34-1.224c0.255-0.255,0.697-0.221,1.241,0.323c0.544,0.527,0.714,1.599,0.714,1.599
	S8.446,16.133,7.918,15.605z M12.017,15.231c0,0-0.646-0.867-0.663-1.633c0-0.748,0.272-1.105,0.629-1.105s0.646,0.34,0.646,1.088
	C12.646,14.347,12.017,15.231,12.017,15.231z M15.18,14.687c0.544-0.527,0.986-0.561,1.241-0.323
	c0.255,0.255,0.204,0.697-0.34,1.225c-0.544,0.527-1.616,0.68-1.616,0.68S14.636,15.214,15.18,14.687z M16.677,18.837
	c-0.748,0-1.633-0.663-1.633-0.663s0.884-0.629,1.65-0.629c0.748,0,1.105,0.306,1.088,0.646
	C17.782,18.565,17.425,18.837,16.677,18.837z"/>
</svg>






