<?xml version="1.0" encoding="iso-8859-1"?>
<svg version="1.1" id="&#x56FE;&#x5C42;_1" xmlns="http://www.w3.org/2000/svg" xmlns:xlink="http://www.w3.org/1999/xlink" x="0px"
	 y="0px" viewBox="0 0 24 24" style="enable-background:new 0 0 24 24;" xml:space="preserve">
<path style="fill:#333333;" d="M12.278,22.948c-0.769,0-1.537-0.292-2.121-0.876l-4.95-4.951c-1.169-1.17-1.169-3.072,0-4.242
	l5.658-5.657c0.778-0.779,2.046-0.78,2.828,0l5.657,5.658c1.168,1.17,1.168,3.072,0.001,4.242l-4.951,4.95
	C13.814,22.655,13.046,22.948,12.278,22.948z M12.278,8.636l-5.657,5.657c-0.389,0.39-0.389,1.024,0,1.414l4.949,4.95
	c0.389,0.388,1.026,0.391,1.415-0.001l4.95-4.949c0.389-0.39,0.389-1.024-0.001-1.414L12.278,8.636z"/>
<path style="fill:#333333;" d="M16.029,10.161l-1.502-1.32c0.022-0.026,2.267-2.579,3.078-3.582
	c0.277-0.343,0.663-0.987,0.124-1.453c-0.141-0.121-0.411-0.325-0.653-0.304c-0.232,0.018-0.469,0.244-0.625,0.43
	c-0.908,1.076-3.111,3.549-3.205,3.654l-1.493-1.331c0.001-0.001,2.265-2.54,3.168-3.612c0.586-0.694,1.257-1.076,1.996-1.135
	c0.714-0.059,1.456,0.213,2.118,0.784c1.229,1.06,1.279,2.797,0.124,4.225C18.323,7.551,16.123,10.055,16.029,10.161z"/>
<path style="fill:#333333;" d="M8.971,10.16C8.877,10.054,6.677,7.551,5.84,6.517C4.685,5.089,4.736,3.352,5.964,2.292
	c0.662-0.571,1.4-0.838,2.118-0.785c0.739,0.059,1.411,0.44,1.996,1.135c0.904,1.072,3.167,3.61,3.168,3.612l-1.493,1.331
	C11.66,7.48,9.457,5.007,8.549,3.931C8.392,3.745,8.156,3.52,7.924,3.501C7.688,3.483,7.412,3.685,7.271,3.806
	c-0.539,0.465-0.153,1.11,0.124,1.452c0.812,1.003,3.056,3.556,3.078,3.582L8.971,10.16z"/>
</svg>






