<?xml version="1.0" encoding="iso-8859-1"?>
<svg version="1.1" id="&#x56FE;&#x5C42;_1" xmlns="http://www.w3.org/2000/svg" xmlns:xlink="http://www.w3.org/1999/xlink" x="0px"
	 y="0px" viewBox="0 0 24 24" style="enable-background:new 0 0 24 24;" xml:space="preserve">
<g>
	<defs>
		<rect id="SVGID_1_" width="24" height="24"/>
	</defs>
	<clipPath id="SVGID_00000107581860649462021600000011652319950882011321_">
		<use xlink:href="#SVGID_1_"  style="overflow:visible;"/>
	</clipPath>
	<g style="clip-path:url(#SVGID_00000107581860649462021600000011652319950882011321_);">
		<path style="fill:#333333;" d="M14.239,17.872c-2.048,0-4.097-0.78-5.657-2.34c-1.511-1.512-2.343-3.521-2.343-5.657
			c0-2.137,0.832-4.146,2.343-5.657c1.511-1.511,3.52-2.343,5.657-2.343c2.138,0,4.146,0.832,5.657,2.343l0,0
			c3.119,3.119,3.119,8.194,0,11.313C18.337,17.092,16.288,17.872,14.239,17.872z M14.239,3.875c-1.603,0-3.109,0.624-4.243,1.757
			s-1.757,2.64-1.757,4.243c0,1.602,0.624,3.109,1.757,4.243c2.341,2.341,6.148,2.34,8.486,0c2.339-2.339,2.339-6.146,0-8.485l0,0
			C17.35,4.5,15.843,3.875,14.239,3.875z"/>
		
			<rect x="1.55" y="16.95" transform="matrix(0.7071 -0.7071 0.7071 0.7071 -10.9203 9.5354)" style="fill:#333333;" width="9" height="2"/>
		
			<rect x="5.404" y="13.096" transform="matrix(0.7071 -0.7071 0.7071 0.7071 -10.5668 9.682)" style="fill:#333333;" width="2" height="9"/>
	</g>
</g>
</svg>






