<?xml version="1.0" encoding="iso-8859-1"?>
<svg version="1.1" id="&#x56FE;&#x5C42;_1" xmlns="http://www.w3.org/2000/svg" xmlns:xlink="http://www.w3.org/1999/xlink" x="0px"
	 y="0px" viewBox="0 0 24 24" style="enable-background:new 0 0 24 24;" xml:space="preserve">
<rect x="1.593" y="15.5" transform="matrix(0.5635 -0.8261 0.8261 0.5635 -10.0299 14.0186)" style="fill:#333333;" width="13.314" height="2"/>
<rect x="14.75" y="9.843" transform="matrix(0.8262 -0.5633 0.5633 0.8262 -6.5581 11.7398)" style="fill:#333333;" width="2" height="13.314"/>
<path style="fill:#333333;" d="M3.575,12.132C3.525,11.759,3.5,11.378,3.5,11c0-1.182,0.238-2.326,0.708-3.4
	C4.252,7.497,4.3,7.393,4.351,7.289l1.799,0.875C6.112,8.241,6.076,8.319,6.042,8.398C5.682,9.221,5.5,10.096,5.5,11
	c0,0.294,0.02,0.584,0.057,0.868L3.575,12.132z"/>
<path style="fill:#333333;" d="M10.301,19.33c-2.317-0.471-4.35-1.905-5.579-3.937l1.711-1.035c0.94,1.555,2.495,2.652,4.265,3.011
	L10.301,19.33z"/>
<path style="fill:#333333;" d="M13.699,19.33l-0.398-1.961c1.792-0.363,3.357-1.479,4.294-3.059l1.721,1.02
	C18.091,17.396,16.044,18.854,13.699,19.33z"/>
<path style="fill:#333333;" d="M20.425,12.133l-1.982-0.266C18.48,11.583,18.5,11.291,18.5,11c0-0.995-0.219-1.949-0.649-2.836
	l1.799-0.874C20.214,8.452,20.5,9.7,20.5,11C20.5,11.38,20.475,11.761,20.425,12.133z"/>
<path style="fill:#333333;" d="M16.333,6.155c-0.859-0.77-1.908-1.297-3.032-1.525l0.398-1.96c1.472,0.299,2.844,0.988,3.968,1.995
	L16.333,6.155z"/>
<path style="fill:#333333;" d="M7.4,6.408L5.986,4.994c0.112-0.112,0.228-0.222,0.346-0.328C7.458,3.658,8.83,2.969,10.301,2.67
	l0.397,1.96C9.576,4.858,8.527,5.385,7.667,6.155C7.576,6.236,7.487,6.321,7.4,6.408z"/>
<path style="fill:#333333;" d="M5,16c-1.378,0-2.5-1.121-2.5-2.5S3.622,11,5,11s2.5,1.121,2.5,2.5S6.378,16,5,16z M5,13
	c-0.276,0-0.5,0.225-0.5,0.5S4.724,14,5,14s0.5-0.225,0.5-0.5S5.276,13,5,13z"/>
<path style="fill:#333333;" d="M12,21c-1.378,0-2.5-1.121-2.5-2.5S10.622,16,12,16c1.379,0,2.5,1.121,2.5,2.5S13.379,21,12,21z
	 M12,18c-0.276,0-0.5,0.225-0.5,0.5S11.724,19,12,19c0.275,0,0.5-0.225,0.5-0.5S12.275,18,12,18z"/>
<path style="fill:#333333;" d="M12,6c-1.378,0-2.5-1.122-2.5-2.5S10.622,1,12,1c1.379,0,2.5,1.122,2.5,2.5S13.379,6,12,6z M12,3
	c-0.276,0-0.5,0.224-0.5,0.5S11.724,4,12,4c0.275,0,0.5-0.224,0.5-0.5S12.275,3,12,3z"/>
<path style="fill:#333333;" d="M6,9C4.622,9,3.5,7.878,3.5,6.5S4.622,4,6,4s2.5,1.122,2.5,2.5S7.378,9,6,9z M6,6
	C5.724,6,5.5,6.224,5.5,6.5S5.724,7,6,7s0.5-0.224,0.5-0.5S6.276,6,6,6z"/>
<path style="fill:#333333;" d="M18,9c-1.379,0-2.5-1.122-2.5-2.5S16.621,4,18,4s2.5,1.122,2.5,2.5S19.379,9,18,9z M18,6
	c-0.275,0-0.5,0.224-0.5,0.5S17.725,7,18,7s0.5-0.224,0.5-0.5S18.275,6,18,6z"/>
<path style="fill:#333333;" d="M19,16c-1.379,0-2.5-1.121-2.5-2.5S17.621,11,19,11s2.5,1.121,2.5,2.5S20.379,16,19,16z M19,13
	c-0.275,0-0.5,0.225-0.5,0.5S18.725,14,19,14s0.5-0.225,0.5-0.5S19.275,13,19,13z"/>
<circle style="fill:#333333;" cx="12" cy="11" r="2"/>
<rect x="3" y="21" style="fill:#333333;" width="4" height="2"/>
<rect x="17" y="21" style="fill:#333333;" width="4" height="2"/>
</svg>






