<?xml version="1.0" encoding="iso-8859-1"?>
<svg version="1.1" id="&#x56FE;&#x5C42;_1" xmlns="http://www.w3.org/2000/svg" xmlns:xlink="http://www.w3.org/1999/xlink" x="0px"
	 y="0px" viewBox="0 0 24 24" style="enable-background:new 0 0 24 24;" xml:space="preserve">
<path style="fill:#333333;" d="M19.5,22h-15C3.122,22,2,20.879,2,19.5v-15C2,3.122,3.122,2,4.5,2h15C20.879,2,22,3.122,22,4.5v15
	C22,20.879,20.879,22,19.5,22z M4.5,4C4.224,4,4,4.224,4,4.5v15C4,19.775,4.224,20,4.5,20h15c0.275,0,0.5-0.225,0.5-0.5v-15
	C20,4.224,19.775,4,19.5,4H4.5z"/>
<path style="fill:#333333;" d="M13,11.5h-2.5C9.122,11.5,8,10.378,8,9s1.122-2.5,2.5-2.5H13V11.5z M10.5,8.5
	C10.224,8.5,10,8.724,10,9s0.224,0.5,0.5,0.5H11v-1H10.5z"/>
<path style="fill:#333333;" d="M13,14.5h-2.5C9.122,14.5,8,13.379,8,12c0-1.378,1.122-2.5,2.5-2.5H13V14.5z M10.5,11.5
	c-0.276,0-0.5,0.224-0.5,0.5c0,0.275,0.224,0.5,0.5,0.5H11v-1H10.5z"/>
<path style="fill:#333333;" d="M10.5,17.5C9.122,17.5,8,16.379,8,15s1.122-2.5,2.5-2.5H13V15C13,16.379,11.878,17.5,10.5,17.5z
	 M10.5,14.5c-0.276,0-0.5,0.225-0.5,0.5s0.224,0.5,0.5,0.5S11,15.275,11,15v-0.5H10.5z"/>
<path style="fill:#333333;" d="M13.5,11.5H11v-5h2.5C14.879,6.5,16,7.622,16,9S14.879,11.5,13.5,11.5z M13,9.5h0.5
	C13.775,9.5,14,9.276,14,9s-0.225-0.5-0.5-0.5H13V9.5z"/>
<path style="fill:#333333;" d="M13.5,14.5c-1.379,0-2.5-1.121-2.5-2.5c0-1.378,1.121-2.5,2.5-2.5S16,10.622,16,12
	C16,13.379,14.879,14.5,13.5,14.5z M13.5,11.5c-0.275,0-0.5,0.224-0.5,0.5c0,0.275,0.225,0.5,0.5,0.5S14,12.275,14,12
	C14,11.724,13.775,11.5,13.5,11.5z"/>
</svg>






