<?xml version="1.0" encoding="iso-8859-1"?>
<svg version="1.1" id="&#x56FE;&#x5C42;_1" xmlns="http://www.w3.org/2000/svg" xmlns:xlink="http://www.w3.org/1999/xlink" x="0px"
	 y="0px" viewBox="0 0 24 24" style="enable-background:new 0 0 24 24;" xml:space="preserve">
<path style="fill:#333333;" d="M12,23C5.935,23,1,18.065,1,12S5.935,1,12,1s11,4.935,11,11S18.065,23,12,23z M12,3
	c-4.962,0-9,4.038-9,9c0,4.963,4.038,9,9,9c4.963,0,9-4.037,9-9C21,7.038,16.963,3,12,3z"/>
<path style="fill:#333333;" d="M7,21.817l-0.5-0.29C3.107,19.566,1,15.915,1,12c0-3.915,2.107-7.565,5.499-9.528L7,2.183l0.501,0.29
	C10.893,4.435,13,8.085,13,12c0,3.915-2.107,7.566-5.5,9.527L7,21.817z M7,4.516C4.519,6.178,3,8.994,3,12s1.519,5.822,4,7.484
	c2.481-1.662,4-4.479,4-7.484S9.481,6.178,7,4.516z"/>
</svg>






