<?xml version="1.0" encoding="iso-8859-1"?>
<svg version="1.1" id="&#x56FE;&#x5C42;_1" xmlns="http://www.w3.org/2000/svg" xmlns:xlink="http://www.w3.org/1999/xlink" x="0px"
	 y="0px" viewBox="0 0 24 24" style="enable-background:new 0 0 24 24;" xml:space="preserve">
<path style="fill:#333333;" d="M12,10.914L7.086,6L12,1.086L16.914,6L12,10.914z M9.914,6L12,8.086L14.086,6L12,3.914L9.914,6z"/>
<path style="fill:#333333;" d="M12,22.914L7.086,18L12,13.086L16.914,18L12,22.914z M9.914,18L12,20.086L14.086,18L12,15.914
	L9.914,18z"/>
<path style="fill:#333333;" d="M18,16.914L13.086,12L18,7.086L22.914,12L18,16.914z M15.914,12L18,14.086L20.086,12L18,9.914
	L15.914,12z"/>
<path style="fill:#333333;" d="M6,16.914L1.086,12L6,7.086L10.914,12L6,16.914z M3.914,12L6,14.086L8.086,12L6,9.914L3.914,12z"/>
</svg>






