<?xml version="1.0" encoding="iso-8859-1"?>
<svg version="1.1" id="&#x56FE;&#x5C42;_1" xmlns="http://www.w3.org/2000/svg" xmlns:xlink="http://www.w3.org/1999/xlink" x="0px"
	 y="0px" viewBox="0 0 24 24" style="enable-background:new 0 0 24 24;" xml:space="preserve">
<path style="fill:#333333;" d="M19,23H5c-1.103,0-2-0.897-2-2V3c0-1.103,0.897-2,2-2h11v5h5v15C21,22.103,20.103,23,19,23z M5,3v18
	h14V8h-5V3H5z"/>
<rect x="16.5" y="0.964" transform="matrix(0.7071 -0.7071 0.7071 0.7071 1.9437 13.6924)" style="fill:#333333;" width="2" height="7.071"/>
<path style="fill:#333333;" d="M12,18.572l-0.361-0.14C10.241,17.891,7.5,15.596,7.5,12.743c0-1.788,1.312-3.243,2.925-3.243
	c0.568,0,1.112,0.181,1.575,0.508C12.463,9.681,13.008,9.5,13.575,9.5c1.612,0,2.925,1.455,2.925,3.243
	c0,2.852-2.74,5.147-4.139,5.689L12,18.572z M10.425,11.5c-0.501,0-0.925,0.569-0.925,1.243c0,1.499,1.466,3.048,2.5,3.647
	c1.034-0.6,2.5-2.149,2.5-3.647c0-0.674-0.424-1.243-0.925-1.243c-0.276,0-0.539,0.171-0.72,0.471L12,13.387l-0.855-1.417
	C10.963,11.671,10.702,11.5,10.425,11.5z"/>
</svg>






