<?xml version="1.0" encoding="iso-8859-1"?>
<svg version="1.1" id="&#x56FE;&#x5C42;_1" xmlns="http://www.w3.org/2000/svg" xmlns:xlink="http://www.w3.org/1999/xlink" x="0px"
	 y="0px" viewBox="0 0 24 24" style="enable-background:new 0 0 24 24;" xml:space="preserve">
<path style="fill:#333333;" d="M11,23H5c-1.103,0-2-0.897-2-2V3c0-1.103,0.897-2,2-2h10.945L21,6.616V11.5h-2V7.384L15.055,3H5v18h6
	V23z"/>
<polygon style="fill:#333333;" points="19,20.25 17,20.25 17,14.197 19.765,13.528 20.235,15.472 19,15.771 "/>
<path style="fill:#333333;" d="M16,23c-1.654,0-3-1.346-3-3s1.346-3,3-3s3,1.346,3,3S17.654,23,16,23z M16,19c-0.552,0-1,0.448-1,1
	s0.448,1,1,1s1-0.448,1-1S16.552,19,16,19z"/>
<polygon style="fill:#333333;" points="20,8 14,8 14,2 16,2 16,6 20,6 "/>
</svg>






