<?xml version="1.0" encoding="iso-8859-1"?>
<svg version="1.1" id="&#x56FE;&#x5C42;_1" xmlns="http://www.w3.org/2000/svg" xmlns:xlink="http://www.w3.org/1999/xlink" x="0px"
	 y="0px" viewBox="0 0 24 24" style="enable-background:new 0 0 24 24;" xml:space="preserve">
<path style="fill:#333333;" d="M11,23H5c-1.103,0-2-0.897-2-2V3c0-1.103,0.897-2,2-2h10.945L21,6.616V11.5h-2V7.384L15.055,3H5v18h6
	V23z"/>
<path style="fill:#333333;" d="M19.153,22.512L17,21.295l-2.153,1.217l-1.473-1.07l0.492-2.424l-1.821-1.671l0.562-1.73l2.457-0.282
	l1.026-2.249h1.82l1.026,2.249l2.457,0.282l0.562,1.73l-1.821,1.671l0.492,2.424L19.153,22.512z M17,18.998l1.229,0.694
	l-0.281-1.384l1.041-0.955l-1.402-0.16L17,15.908l-0.587,1.285l-1.402,0.16l1.041,0.955l-0.281,1.384L17,18.998z"/>
<polygon style="fill:#333333;" points="20,8 14,8 14,2 16,2 16,6 20,6 "/>
</svg>






