<?xml version="1.0" encoding="iso-8859-1"?>
<svg version="1.1" id="&#x56FE;&#x5C42;_1" xmlns="http://www.w3.org/2000/svg" xmlns:xlink="http://www.w3.org/1999/xlink" x="0px"
	 y="0px" viewBox="0 0 24 24" style="enable-background:new 0 0 24 24;" xml:space="preserve">
<path style="fill:#333333;" d="M11,23H5c-1.103,0-2-0.897-2-2V3c0-1.103,0.897-2,2-2h10.945L21,6.616V11.5h-2V7.384L15.055,3H5v18h6
	V23z"/>
<path style="fill:#333333;" d="M15.5,21c-2.206,0-4-1.794-4-4s1.794-4,4-4s4,1.794,4,4S17.706,21,15.5,21z M15.5,15
	c-1.103,0-2,0.897-2,2s0.897,2,2,2s2-0.897,2-2S16.603,15,15.5,15z"/>
<rect x="18.25" y="18.399" transform="matrix(0.6247 -0.7809 0.7809 0.6247 -8.3928 22.5378)" style="fill:#333333;" width="2.001" height="3.202"/>
<polygon style="fill:#333333;" points="20,8 14,8 14,2 16,2 16,6 20,6 "/>
</svg>






