<?xml version="1.0" encoding="iso-8859-1"?>
<svg version="1.1" id="&#x56FE;&#x5C42;_1" xmlns="http://www.w3.org/2000/svg" xmlns:xlink="http://www.w3.org/1999/xlink" x="0px"
	 y="0px" viewBox="0 0 24 24" style="enable-background:new 0 0 24 24;" xml:space="preserve">
<path style="fill:#333333;" d="M11,23H5c-1.103,0-2-0.897-2-2V3c0-1.103,0.897-2,2-2h10.945L21,6.616V11.5h-2V7.384L15.055,3H5v18h6
	V23z"/>
<rect x="13.5" y="15.5" style="fill:#333333;" width="7" height="2"/>
<rect x="13.5" y="18.5" style="fill:#333333;" width="7" height="2"/>
<rect x="18.25" y="13.482" transform="matrix(0.7071 -0.7071 0.7071 0.7071 -5.1452 18.0784)" style="fill:#333333;" width="2" height="3.536"/>
<rect x="13.75" y="18.982" transform="matrix(0.7071 -0.7071 0.7071 0.7071 -10.3523 16.5074)" style="fill:#333333;" width="2" height="3.536"/>
<polygon style="fill:#333333;" points="20,8 14,8 14,2 16,2 16,6 20,6 "/>
</svg>






