<?xml version="1.0" encoding="iso-8859-1"?>
<svg version="1.1" id="&#x56FE;&#x5C42;_1" xmlns="http://www.w3.org/2000/svg" xmlns:xlink="http://www.w3.org/1999/xlink" x="0px"
	 y="0px" viewBox="0 0 24 24" style="enable-background:new 0 0 24 24;" xml:space="preserve">
<path style="fill:#333333;" d="M19,23H5c-1.103,0-2-0.897-2-2V3c0-1.103,0.897-2,2-2h11v5h5v15C21,22.103,20.103,23,19,23z M5,3v18
	h14V8h-5V3H5z"/>
<rect x="16.5" y="0.964" transform="matrix(0.7071 -0.7071 0.7071 0.7071 1.9437 13.6924)" style="fill:#333333;" width="2" height="7.071"/>
<rect x="8.5" y="11.5" style="fill:#333333;" width="7" height="2"/>
<rect x="8.5" y="14.5" style="fill:#333333;" width="7" height="2"/>
<rect x="13.25" y="9.482" transform="matrix(0.7071 -0.7071 0.7071 0.7071 -3.7812 13.3713)" style="fill:#333333;" width="2" height="3.536"/>
<rect x="8.75" y="14.982" transform="matrix(0.7071 -0.7071 0.7071 0.7071 -8.9883 11.8003)" style="fill:#333333;" width="2" height="3.536"/>
</svg>






