<?xml version="1.0" encoding="iso-8859-1"?>
<svg version="1.1" id="&#x56FE;&#x5C42;_1" xmlns="http://www.w3.org/2000/svg" xmlns:xlink="http://www.w3.org/1999/xlink" x="0px"
	 y="0px" viewBox="0 0 24 24" style="enable-background:new 0 0 24 24;" xml:space="preserve">
<path style="fill:#333333;" d="M19,23H5c-1.103,0-2-0.897-2-2V3c0-1.103,0.897-2,2-2h10.414L21,6.586V21C21,22.103,20.103,23,19,23z
	 M5,3H4.999L5,21h14V7.414L14.586,3H5z"/>
<rect x="10.5" y="8" style="fill:#333333;" width="5" height="2"/>
<rect x="12" y="9" style="fill:#333333;" width="2" height="6"/>
<path style="fill:#333333;" d="M11,18c-1.654,0-3-1.346-3-3h2c0,0.552,0.449,1,1,1s1-0.448,1-1h2C14,16.654,12.654,18,11,18z"/>
</svg>






