<?xml version="1.0" encoding="iso-8859-1"?>
<svg version="1.1" id="&#x56FE;&#x5C42;_1" xmlns="http://www.w3.org/2000/svg" xmlns:xlink="http://www.w3.org/1999/xlink" x="0px"
	 y="0px" viewBox="0 0 24 24" style="enable-background:new 0 0 24 24;" xml:space="preserve">
<path style="fill:#333333;" d="M19,23H5c-1.103,0-2-0.897-2-2V3c0-1.103,0.897-2,2-2h11v5h5v15C21,22.103,20.103,23,19,23z M5,3v18
	h14V8h-5V3H5z"/>
<rect x="16.5" y="0.964" transform="matrix(0.7071 -0.7071 0.7071 0.7071 1.9437 13.6924)" style="fill:#333333;" width="2" height="7.071"/>
<path style="fill:#333333;" d="M12,18c-2.984,0-5.236-3.302-5.33-3.442L6.295,14l0.375-0.558C6.764,13.302,9.016,10,12,10
	c2.984,0,5.235,3.302,5.33,3.442L17.704,14l-0.374,0.558C17.235,14.698,14.984,18,12,18z M8.76,14c0.71,0.836,1.978,2,3.24,2
	s2.529-1.164,3.24-2c-0.711-0.836-1.979-2-3.24-2S9.47,13.164,8.76,14z"/>
<path style="fill:#333333;" d="M12,15c0.552,0,1-0.448,1-1s-0.448-1-1-1s-1,0.448-1,1S11.448,15,12,15z"/>
</svg>






