<?xml version="1.0" encoding="iso-8859-1"?>
<svg version="1.1" id="&#x56FE;&#x5C42;_1" xmlns="http://www.w3.org/2000/svg" xmlns:xlink="http://www.w3.org/1999/xlink" x="0px"
	 y="0px" viewBox="0 0 24 24" style="enable-background:new 0 0 24 24;" xml:space="preserve">
<path style="fill:#333333;" d="M13,23H5c-1.103,0-2-0.897-2-2V3c0-1.103,0.897-2,2-2h14c1.103,0,2,0.897,2,2v7.421h-2V3H5v18h8V23z"
	/>
<rect x="7" y="7.5" style="fill:#333333;" width="3" height="2"/>
<rect x="14" y="7.5" style="fill:#333333;" width="3" height="2"/>
<rect x="7" y="13" style="fill:#333333;" width="3" height="2"/>
<rect x="7" y="16" style="fill:#333333;" width="3" height="2"/>
<rect x="7.5" y="7" style="fill:#333333;" width="2" height="3"/>
<rect x="18.925" y="18.425" transform="matrix(0.7071 -0.7071 0.7071 0.7071 -8.2531 19.9248)" style="fill:#333333;" width="2" height="3"/>
<path style="fill:#333333;" d="M16.742,20.74c-1.024,0-2.048-0.39-2.828-1.169c-1.559-1.56-1.559-4.098,0-5.657
	c1.559-1.559,4.097-1.559,5.657,0l0,0c1.559,1.56,1.559,4.098,0,5.657C18.792,20.351,17.767,20.74,16.742,20.74z M16.743,14.744
	c-0.513,0-1.025,0.194-1.415,0.584c-0.779,0.78-0.779,2.049,0,2.829c0.78,0.78,2.051,0.778,2.829,0c0.779-0.78,0.779-2.049,0-2.829
	C17.768,14.938,17.255,14.744,16.743,14.744z"/>
</svg>






