<?xml version="1.0" encoding="iso-8859-1"?>
<svg version="1.1" id="&#x56FE;&#x5C42;_1" xmlns="http://www.w3.org/2000/svg" xmlns:xlink="http://www.w3.org/1999/xlink" x="0px"
	 y="0px" viewBox="0 0 24 24" style="enable-background:new 0 0 24 24;" xml:space="preserve">
<path style="fill:#333333;" d="M19,23H5c-1.103,0-2-0.897-2-2V3c0-1.103,0.897-2,2-2h11v5h5v15C21,22.103,20.103,23,19,23z M5,3v18
	h14V8h-5V3H5z"/>
<rect x="16.5" y="0.964" transform="matrix(0.7071 -0.7071 0.7071 0.7071 1.9437 13.6924)" style="fill:#333333;" width="2" height="7.071"/>
<path style="fill:#333333;" d="M13,15.5h-2V13h1c0.542,0,1-0.572,1-1.25c0-0.689-0.448-1.25-1-1.25c-0.551,0-1,0.561-1,1.25H9
	c0-1.792,1.346-3.25,3-3.25s3,1.458,3,3.25c0,1.412-0.836,2.617-2,3.064V15.5z"/>
<path style="fill-rule:evenodd;clip-rule:evenodd;fill:#333333;" d="M12,19.5c0.69,0,1.25-0.56,1.25-1.25S12.69,17,12,17
	s-1.25,0.56-1.25,1.25S11.31,19.5,12,19.5z"/>
</svg>






