<?xml version="1.0" encoding="iso-8859-1"?>
<svg version="1.1" id="&#x56FE;&#x5C42;_1" xmlns="http://www.w3.org/2000/svg" xmlns:xlink="http://www.w3.org/1999/xlink" x="0px"
	 y="0px" viewBox="0 0 24 24" style="enable-background:new 0 0 24 24;" xml:space="preserve">
<polygon style="fill:#333333;" points="20,23 4,23 4,19 6,19 6,21 18,21 18,19 20,19 "/>
<polygon style="fill:#333333;" points="20,10 18,10 18,7.351 14.52,3 6,3 6,10 4,10 4,1 15.48,1 20,6.649 "/>
<polygon style="fill:#333333;" points="19,8 13,8 13,2 15,2 15,6 19,6 "/>
<rect x="8" y="5" style="fill:#333333;" width="2" height="2"/>
<path style="fill:#333333;" d="M21,20H3c-1.103,0-2-0.897-2-2v-7c0-1.103,0.897-2,2-2h18c1.103,0,2,0.897,2,2v7
	C23,19.103,22.103,20,21,20z M3,11H2.999L3,18h18v-7H3z"/>
<rect x="11" y="12" transform="matrix(0.8 -0.6 0.6 0.8 -6.2999 10.1)" style="fill:#333333;" width="1.999" height="5"/>
<rect x="9.5" y="13.5" transform="matrix(0.5998 -0.8001 0.8001 0.5998 -6.7997 15.4036)" style="fill:#333333;" width="5" height="1.999"/>
<rect x="5.5" y="12.5" style="fill:#333333;" width="2" height="4"/>
<rect x="5" y="11.5" style="fill:#333333;" width="3" height="2"/>
<rect x="16.5" y="12.5" style="fill:#333333;" width="2" height="4"/>
<rect x="16" y="11.5" style="fill:#333333;" width="3" height="2"/>
</svg>






