<?xml version="1.0" encoding="iso-8859-1"?>
<svg version="1.1" id="&#x56FE;&#x5C42;_1" xmlns="http://www.w3.org/2000/svg" xmlns:xlink="http://www.w3.org/1999/xlink" x="0px"
	 y="0px" viewBox="0 0 24 24" style="enable-background:new 0 0 24 24;" xml:space="preserve">
<path style="fill:#333333;" d="M11,23H5c-1.103,0-2-0.897-2-2V3c0-1.103,0.897-2,2-2h10.945L21,6.616V11.5h-2V7.384L15.055,3H5v18h6
	V23z"/>
<path style="fill:#333333;" d="M17,23.171l-0.521-0.317c-0.162-0.099-3.979-2.48-3.979-7.254c0-0.567,0-1.273,4.209-2.557L17,12.955
	l0.291,0.088C21.5,14.326,21.5,15.032,21.5,15.6c0,4.773-3.817,7.155-3.979,7.254L17,23.171z M14.513,16.007
	c0.151,2.486,1.664,4.068,2.487,4.753c0.822-0.683,2.336-2.265,2.487-4.753c-0.464-0.245-1.47-0.636-2.487-0.959
	C15.982,15.371,14.977,15.762,14.513,16.007z"/>
<polygon style="fill:#333333;" points="20,8 14,8 14,2 16,2 16,6 20,6 "/>
</svg>






