<?xml version="1.0" encoding="iso-8859-1"?>
<svg version="1.1" id="&#x56FE;&#x5C42;_1" xmlns="http://www.w3.org/2000/svg" xmlns:xlink="http://www.w3.org/1999/xlink" x="0px"
	 y="0px" viewBox="0 0 24 24" style="enable-background:new 0 0 24 24;" xml:space="preserve">
<path style="fill:#333333;" d="M19,23H5c-1.103,0-2-0.897-2-2V3c0-1.103,0.897-2,2-2h11v5h5v15C21,22.103,20.103,23,19,23z M5,3v18
	h14V8h-5V3H5z"/>
<rect x="16.5" y="0.964" transform="matrix(0.7071 -0.7071 0.7071 0.7071 1.9437 13.6924)" style="fill:#333333;" width="2" height="7.071"/>
<path style="fill:#333333;" d="M12,15.5c-1.645,0-3.208-0.807-4.183-2.157c-0.34-0.469-0.6-0.99-0.772-1.548l1.911-0.59
	c0.107,0.348,0.27,0.673,0.481,0.966C10.047,13.016,10.981,13.5,12,13.5c1.019,0,1.952-0.484,2.562-1.328
	c0.213-0.293,0.375-0.618,0.481-0.966l1.912,0.588c-0.172,0.558-0.432,1.08-0.773,1.551C15.207,14.694,13.644,15.5,12,15.5z"/>
<rect x="9.502" y="14.5" transform="matrix(0.2588 -0.9659 0.9659 0.2588 -7.188 21.6324)" style="fill:#333333;" width="2" height="2"/>
<rect x="12.502" y="14.5" transform="matrix(0.9659 -0.2588 0.2588 0.9659 -3.5516 4.0227)" style="fill:#333333;" width="2" height="2"/>
<rect x="14.884" y="13.384" transform="matrix(0.7071 -0.7071 0.7071 0.7071 -5.5186 15.4444)" style="fill:#333333;" width="2" height="2"/>
<rect x="7.207" y="13.298" transform="matrix(0.7071 -0.7071 0.7071 0.7071 -7.7063 9.991)" style="fill:#333333;" width="2" height="2"/>
</svg>






