<?xml version="1.0" encoding="iso-8859-1"?>
<svg version="1.1" id="&#x56FE;&#x5C42;_1" xmlns="http://www.w3.org/2000/svg" xmlns:xlink="http://www.w3.org/1999/xlink" x="0px"
	 y="0px" viewBox="0 0 24 24" style="enable-background:new 0 0 24 24;" xml:space="preserve">
<path style="fill:#333333;" d="M11,23H5c-1.103,0-2-0.897-2-2V3c0-1.103,0.897-2,2-2h10.945L21,6.616V11.5h-2V7.384L15.055,3H5v18h6
	V23z"/>
<path style="fill:#333333;" d="M16.5,21.5c-2.984,0-5.236-3.302-5.33-3.442L10.795,17.5l0.375-0.558
	c0.094-0.141,2.346-3.442,5.33-3.442s5.235,3.302,5.33,3.442l0.374,0.558l-0.374,0.558C21.735,18.198,19.484,21.5,16.5,21.5z
	 M13.26,17.5c0.711,0.836,1.979,2,3.24,2s2.529-1.164,3.24-2c-0.711-0.836-1.979-2-3.24-2S13.971,16.664,13.26,17.5z"/>
<path style="fill:#333333;" d="M16.5,18.5c0.552,0,1-0.448,1-1s-0.448-1-1-1c-0.552,0-1,0.448-1,1S15.948,18.5,16.5,18.5z"/>
<polygon style="fill:#333333;" points="20,8 14,8 14,2 16,2 16,6 20,6 "/>
</svg>






