<?xml version="1.0" encoding="iso-8859-1"?>
<svg version="1.1" id="&#x56FE;&#x5C42;_1" xmlns="http://www.w3.org/2000/svg" xmlns:xlink="http://www.w3.org/1999/xlink" x="0px"
	 y="0px" viewBox="0 0 24 24" style="enable-background:new 0 0 24 24;" xml:space="preserve">
<polygon style="fill:#333333;" points="20,21.5 12.5,21.5 12.5,19.5 18,19.5 18,17 20,17 "/>
<polygon style="fill:#333333;" points="20,7 18,7 18,4.5 12.5,4.5 12.5,2.5 20,2.5 "/>
<polygon style="fill:#333333;" points="13.5,23.421 4,20.014 4,17 6,17 6,18.605 11.5,20.579 11.5,17.122 13.5,17.122 "/>
<polygon style="fill:#333333;" points="13.5,6.986 11.5,6.986 11.5,3.421 6,5.394 6,6.986 4,6.986 4,3.987 13.5,0.579 "/>
<path style="fill:#333333;" d="M21,18H3c-1.103,0-2-0.897-2-2V8c0-1.103,0.897-2,2-2h18c1.103,0,2,0.897,2,2v8
	C23,17.103,22.103,18,21,18z M3,8H2.999L3,16h18V8H3z"/>
<rect x="4" y="9.5" style="fill:#333333;" width="2" height="5"/>
<rect x="9.5" y="9.5" style="fill:#333333;" width="2" height="5"/>
<rect x="16.5" y="10" style="fill:#333333;" width="2" height="4"/>
<rect x="16" y="9" style="fill:#333333;" width="3" height="2"/>
<path style="fill:#333333;" d="M6.5,13.5H5v-2h1.5C6.776,11.5,7,11.276,7,11s-0.224-0.5-0.5-0.5H5v-2h1.5C7.878,8.5,9,9.622,9,11
	C9,12.379,7.878,13.5,6.5,13.5z"/>
<path style="fill:#333333;" d="M12,13.5h-1.5v-2H12c0.275,0,0.5-0.224,0.5-0.5s-0.225-0.5-0.5-0.5h-1.5v-2H12
	c1.379,0,2.5,1.122,2.5,2.5C14.5,12.379,13.379,13.5,12,13.5z"/>
</svg>






