<?xml version="1.0" encoding="iso-8859-1"?>
<svg version="1.1" id="&#x56FE;&#x5C42;_1" xmlns="http://www.w3.org/2000/svg" xmlns:xlink="http://www.w3.org/1999/xlink" x="0px"
	 y="0px" viewBox="0 0 24 24" style="enable-background:new 0 0 24 24;" xml:space="preserve">
<path style="fill:#333333;" d="M19,23H5c-1.103,0-2-0.897-2-2V3c0-1.103,0.897-2,2-2h11v5h5v15C21,22.103,20.103,23,19,23z M5,3v18
	h14V8h-5V3H5z"/>
<rect x="16.5" y="0.964" transform="matrix(0.7071 -0.7071 0.7071 0.7071 1.9437 13.6924)" style="fill:#333333;" width="2" height="7.071"/>
<polygon style="fill:#333333;" points="13.5,16.75 11.5,16.75 11.5,10.863 15.057,9.104 15.943,10.896 13.5,12.105 "/>
<path style="fill:#333333;" d="M10.5,19.5c-1.654,0-3-1.346-3-3s1.346-3,3-3s3,1.346,3,3S12.154,19.5,10.5,19.5z M10.5,15.5
	c-0.551,0-1,0.448-1,1s0.449,1,1,1s1-0.448,1-1S11.051,15.5,10.5,15.5z"/>
</svg>






