<?xml version="1.0" encoding="iso-8859-1"?>
<svg version="1.1" id="&#x56FE;&#x5C42;_1" xmlns="http://www.w3.org/2000/svg" xmlns:xlink="http://www.w3.org/1999/xlink" x="0px"
	 y="0px" viewBox="0 0 24 24" style="enable-background:new 0 0 24 24;" xml:space="preserve">
<path style="fill:#333333;" d="M11,23H5c-1.103,0-2-0.897-2-2V3c0-1.103,0.897-2,2-2h10.945L21,6.616V11.5h-2V7.384L15.055,3H5v18h6
	V23z"/>
<rect x="15.5" y="13" style="fill:#333333;" width="2" height="5"/>
<path style="fill-rule:evenodd;clip-rule:evenodd;fill:#333333;" d="M16.5,23c0.69,0,1.25-0.56,1.25-1.25s-0.56-1.25-1.25-1.25
	s-1.25,0.56-1.25,1.25S15.81,23,16.5,23z"/>
<polygon style="fill:#333333;" points="20,8 14,8 14,2 16,2 16,6 20,6 "/>
</svg>






