<?xml version="1.0" encoding="iso-8859-1"?>
<svg version="1.1" id="&#x56FE;&#x5C42;_1" xmlns="http://www.w3.org/2000/svg" xmlns:xlink="http://www.w3.org/1999/xlink" x="0px"
	 y="0px" viewBox="0 0 24 24" style="enable-background:new 0 0 24 24;" xml:space="preserve">
<path style="fill:#333333;" d="M19,23H5c-1.103,0-2-0.897-2-2V3c0-1.103,0.897-2,2-2h10.414L21,6.586V21C21,22.103,20.103,23,19,23z
	 M5,3H4.999L5,21h14V7.414L14.586,3H5z"/>
<polygon style="fill:#333333;" points="13.609,17.447 12.004,14.236 10.398,17.447 8.526,17.21 7.026,10.209 8.982,9.791 
	9.884,14.003 11.109,11.553 12.898,11.553 14.123,14.003 15.026,9.791 16.981,10.209 15.481,17.21 "/>
</svg>






