<?xml version="1.0" encoding="iso-8859-1"?>
<svg version="1.1" id="&#x56FE;&#x5C42;_1" xmlns="http://www.w3.org/2000/svg" xmlns:xlink="http://www.w3.org/1999/xlink" x="0px"
	 y="0px" viewBox="0 0 24 24" style="enable-background:new 0 0 24 24;" xml:space="preserve">
<path style="fill:#333333;" d="M11,23H5c-1.103,0-2-0.897-2-2V3c0-1.103,0.897-2,2-2h10.945L21,6.616V11.5h-2V7.384L15.055,3H5v18h6
	V23z"/>
<path style="fill:#333333;" d="M17,23.072l-0.361-0.14c-1.398-0.542-4.139-2.838-4.139-5.689c0-1.788,1.312-3.243,2.925-3.243
	c0.567,0,1.112,0.181,1.575,0.508C17.463,14.181,18.008,14,18.575,14c1.612,0,2.925,1.455,2.925,3.243
	c0,2.852-2.74,5.147-4.139,5.689L17,23.072z M15.425,16c-0.501,0-0.925,0.569-0.925,1.243c0,1.498,1.466,3.048,2.5,3.647
	c1.034-0.6,2.5-2.149,2.5-3.647c0-0.674-0.424-1.243-0.925-1.243c-0.276,0-0.539,0.172-0.72,0.471L17,17.885l-0.855-1.414
	C15.964,16.172,15.701,16,15.425,16z"/>
<polygon style="fill:#333333;" points="20,8 14,8 14,2 16,2 16,6 20,6 "/>
</svg>






