<?xml version="1.0" encoding="iso-8859-1"?>
<svg version="1.1" id="&#x56FE;&#x5C42;_1" xmlns="http://www.w3.org/2000/svg" xmlns:xlink="http://www.w3.org/1999/xlink" x="0px"
	 y="0px" viewBox="0 0 24 24" style="enable-background:new 0 0 24 24;" xml:space="preserve">
<polygon style="fill:#333333;" points="20,23 4,23 4,19 6,19 6,21 18,21 18,19 20,19 "/>
<polygon style="fill:#333333;" points="20,10 18,10 18,7.351 14.52,3 6,3 6,10 4,10 4,1 15.48,1 20,6.649 "/>
<polygon style="fill:#333333;" points="19,8 13,8 13,2 15,2 15,6 19,6 "/>
<rect x="8" y="5" style="fill:#333333;" width="2" height="2"/>
<path style="fill:#333333;" d="M21,20H3c-1.103,0-2-0.897-2-2v-7c0-1.103,0.897-2,2-2h18c1.103,0,2,0.897,2,2v7
	C23,19.103,22.103,20,21,20z M3,11H2.999L3,18h18v-7H3z"/>
<rect x="4" y="12.5" style="fill:#333333;" width="2" height="4"/>
<path style="fill:#333333;" d="M6,17.5H5v-2h1c0.551,0,1-0.448,1-1s-0.449-1-1-1H5v-2h1c1.654,0,3,1.346,3,3S7.654,17.5,6,17.5z"/>
<path style="fill:#333333;" d="M12,17.5c-1.402,0-2.5-1.317-2.5-3s1.098-3,2.5-3c1.402,0,2.5,1.317,2.5,3S13.402,17.5,12,17.5z
	 M12,13.5c-0.176,0-0.5,0.38-0.5,1s0.324,1,0.5,1c0.177,0,0.5-0.38,0.5-1S12.177,13.5,12,13.5z"/>
<path style="fill:#333333;" d="M19,17.5h-1c-1.654,0-3-1.346-3-3s1.346-3,3-3h1v2h-1c-0.552,0-1,0.448-1,1s0.448,1,1,1h1V17.5z"/>
</svg>






