<?xml version="1.0" encoding="iso-8859-1"?>
<svg version="1.1" id="&#x56FE;&#x5C42;_1" xmlns="http://www.w3.org/2000/svg" xmlns:xlink="http://www.w3.org/1999/xlink" x="0px"
	 y="0px" viewBox="0 0 24 24" style="enable-background:new 0 0 24 24;" xml:space="preserve">
<path style="fill:#333333;" d="M19,23H5c-1.103,0-2-0.897-2-2V3c0-1.103,0.897-2,2-2h10.414L21,6.586V21C21,22.103,20.103,23,19,23z
	 M5,3H4.999L5,21h14V7.414L14.586,3H5z"/>
<polygon style="fill:#333333;" points="16.504,18 7.5,18 7.5,8 15.504,8 15.504,10 9.5,10 9.5,16 14.504,16 14.504,14.504 
	13,14.504 13,12.504 16.504,12.504 "/>
</svg>






