<?xml version="1.0" encoding="iso-8859-1"?>
<svg version="1.1" id="&#x56FE;&#x5C42;_1" xmlns="http://www.w3.org/2000/svg" xmlns:xlink="http://www.w3.org/1999/xlink" x="0px"
	 y="0px" viewBox="0 0 24 24" style="enable-background:new 0 0 24 24;" xml:space="preserve">
<path style="fill:#333333;" d="M19,23H5c-1.103,0-2-0.897-2-2V3c0-1.103,0.897-2,2-2h11v5h5v15C21,22.103,20.103,23,19,23z M5,3v18
	h14V8h-5V3H5z"/>
<rect x="16.5" y="0.964" transform="matrix(0.7071 -0.7071 0.7071 0.7071 1.9437 13.6924)" style="fill:#333333;" width="2" height="7.071"/>
<path style="fill:#333333;" d="M16.5,18.5h-9v-6h9V18.5z M9.5,16.5h5v-2h-5V16.5z"/>
<path style="fill:#333333;" d="M15,13.5h-2v-2c0-0.301-0.098-1-1-1s-1,0.699-1,1v2H9v-2c0-1.491,1.03-3,3-3s3,1.509,3,3V13.5z"/>
</svg>






