<?xml version="1.0" encoding="iso-8859-1"?>
<svg version="1.1" id="&#x56FE;&#x5C42;_1" xmlns="http://www.w3.org/2000/svg" xmlns:xlink="http://www.w3.org/1999/xlink" x="0px"
	 y="0px" viewBox="0 0 24 24" style="enable-background:new 0 0 24 24;" xml:space="preserve">
<path style="fill:#333333;" d="M19,23H5c-1.103,0-2-0.897-2-2V3c0-1.103,0.897-2,2-2h11v5h5v15C21,22.103,20.103,23,19,23z M5,3v18
	h14V8h-5V3H5z"/>
<rect x="16.5" y="0.964" transform="matrix(0.7071 -0.7071 0.7071 0.7071 1.9437 13.6924)" style="fill:#333333;" width="2" height="7.071"/>
<path style="fill:#333333;" d="M14.153,18.512L12,17.295l-2.153,1.217l-1.472-1.069l0.491-2.425l-1.822-1.671l0.562-1.731
	l2.457-0.281l1.027-2.25h1.82l1.026,2.25l2.457,0.281l0.562,1.731l-1.821,1.671l0.492,2.424L14.153,18.512z M10.01,13.354
	l1.041,0.955l-0.281,1.384L12,14.998l1.229,0.694l-0.281-1.384l1.041-0.955l-1.402-0.16L12,11.908l-0.586,1.286L10.01,13.354z"/>
</svg>






