<?xml version="1.0" encoding="iso-8859-1"?>
<svg version="1.1" id="&#x56FE;&#x5C42;_1" xmlns="http://www.w3.org/2000/svg" xmlns:xlink="http://www.w3.org/1999/xlink" x="0px"
	 y="0px" viewBox="0 0 24 24" style="enable-background:new 0 0 24 24;" xml:space="preserve">
<path style="fill:#333333;" d="M19,23H5c-1.103,0-2-0.897-2-2V3c0-1.103,0.897-2,2-2h11v5h5v15C21,22.103,20.103,23,19,23z M5,3v18
	h14V8h-5V3H5z"/>
<rect x="16.5" y="0.964" transform="matrix(0.7071 -0.7071 0.7071 0.7071 1.9437 13.6924)" style="fill:#333333;" width="2" height="7.071"/>
<path style="fill:#333333;" d="M12,17c-1.93,0-3.5-1.57-3.5-3.5S10.07,10,12,10s3.5,1.57,3.5,3.5S13.93,17,12,17z M12,12
	c-0.827,0-1.5,0.673-1.5,1.5S11.173,15,12,15s1.5-0.673,1.5-1.5S12.827,12,12,12z"/>
<rect x="11" y="9.5" style="fill:#333333;" width="2" height="1.5"/>
<rect x="11" y="16" style="fill:#333333;" width="2" height="1.5"/>
<rect x="13.634" y="10.03" transform="matrix(0.7071 -0.7071 0.7071 0.7071 -3.5867 13.4016)" style="fill:#333333;" width="1.5" height="2"/>
<rect x="8.634" y="15.03" transform="matrix(0.7071 -0.7071 0.7071 0.7071 -8.5867 11.3305)" style="fill:#333333;" width="1.5" height="2"/>
<rect x="8.53" y="10.28" transform="matrix(0.7071 -0.7071 0.7071 0.7071 -5.0082 9.9696)" style="fill:#333333;" width="2" height="1.5"/>
<rect x="13.53" y="15.28" transform="matrix(0.7071 -0.7071 0.7071 0.7071 -7.0793 14.9696)" style="fill:#333333;" width="2" height="1.5"/>
<rect x="8" y="12.5" style="fill:#333333;" width="1.5" height="2"/>
<rect x="14.5" y="12.5" style="fill:#333333;" width="1.5" height="2"/>
</svg>






