<?xml version="1.0" encoding="iso-8859-1"?>
<svg version="1.1" id="&#x56FE;&#x5C42;_1" xmlns="http://www.w3.org/2000/svg" xmlns:xlink="http://www.w3.org/1999/xlink" x="0px"
	 y="0px" viewBox="0 0 24 24" style="enable-background:new 0 0 24 24;" xml:space="preserve">
<path style="fill:#333333;" d="M19,23H5c-1.103,0-2-0.897-2-2V3c0-1.103,0.897-2,2-2h11v5h5v15C21,22.103,20.103,23,19,23z M5,3v18
	h14V8h-5V3H5z"/>
<rect x="16.5" y="0.964" transform="matrix(0.7071 -0.7071 0.7071 0.7071 1.9437 13.6924)" style="fill:#333333;" width="2" height="7.071"/>
<path style="fill:#333333;" d="M12,19.171l-0.521-0.317C11.317,18.755,7.5,16.373,7.5,11.6c0-0.568,0-1.274,4.208-2.557L12,8.955
	l0.291,0.089C16.5,10.326,16.5,11.032,16.5,11.6c0,4.773-3.817,7.155-3.979,7.253L12,19.171z M9.512,12.007
	c0.152,2.486,1.665,4.069,2.488,4.753c0.822-0.683,2.336-2.266,2.487-4.753c-0.464-0.246-1.471-0.636-2.487-0.959
	C10.983,11.372,9.976,11.762,9.512,12.007z"/>
</svg>






