<?xml version="1.0" encoding="iso-8859-1"?>
<svg version="1.1" id="&#x56FE;&#x5C42;_1" xmlns="http://www.w3.org/2000/svg" xmlns:xlink="http://www.w3.org/1999/xlink" x="0px"
	 y="0px" viewBox="0 0 24 24" style="enable-background:new 0 0 24 24;" xml:space="preserve">
<path style="fill:#333333;" d="M11,23H5c-1.103,0-2-0.897-2-2V3c0-1.103,0.897-2,2-2h10.945L21,6.616V11.5h-2V7.384L15.055,3H5v18h6
	V23z"/>
<path style="fill:#333333;" d="M17,23c-2.757,0-5-2.243-5-5s2.243-5,5-5s5,2.243,5,5S19.757,23,17,23z M17,15c-1.654,0-3,1.346-3,3
	s1.346,3,3,3s3-1.346,3-3S18.654,15,17,15z"/>
<polygon style="fill:#333333;" points="18.5,19.5 15.5,19.5 15.5,16.5 17.5,16.5 17.5,17.5 18.5,17.5 "/>
<polygon style="fill:#333333;" points="20,8 14,8 14,2 16,2 16,6 20,6 "/>
</svg>






