<?xml version="1.0" encoding="iso-8859-1"?>
<svg version="1.1" id="&#x56FE;&#x5C42;_1" xmlns="http://www.w3.org/2000/svg" xmlns:xlink="http://www.w3.org/1999/xlink" x="0px"
	 y="0px" viewBox="0 0 24 24" style="enable-background:new 0 0 24 24;" xml:space="preserve">
<path style="fill:#333333;" d="M10,23H5c-1.103,0-2-0.897-2-2V3c0-1.103,0.897-2,2-2h10.945L21,6.616V11.5h-2V7.384L15.055,3H5v18h5
	V23z"/>
<path style="fill:#333333;" d="M17,19c-1.654,0-3-1.346-3-3s1.346-3,3-3s3,1.346,3,3S18.654,19,17,19z M17,15c-0.552,0-1,0.448-1,1
	s0.448,1,1,1s1-0.448,1-1S17.552,15,17,15z"/>
<path style="fill:#333333;" d="M22,22h-2c0-1.654-1.346-3-3-3s-3,1.346-3,3h-2c0-2.757,2.243-5,5-5S22,19.243,22,22z"/>
<polygon style="fill:#333333;" points="20,8 14,8 14,2 16,2 16,6 20,6 "/>
</svg>






