<?xml version="1.0" encoding="iso-8859-1"?>
<svg version="1.1" id="&#x56FE;&#x5C42;_1" xmlns="http://www.w3.org/2000/svg" xmlns:xlink="http://www.w3.org/1999/xlink" x="0px"
	 y="0px" viewBox="0 0 24 24" style="enable-background:new 0 0 24 24;" xml:space="preserve">
<g>
	<path style="fill:#333333;" d="M12.245,4.199C12.123,4.179,12.137,4,12.26,4h7.49C19.888,4,20,4.112,20,4.25v7.49
		c0,0.123-0.179,0.137-0.199,0.016l-0.983-6.158c-0.034-0.213-0.201-0.381-0.415-0.415L12.245,4.199z"/>
	<path style="fill:#333333;" d="M19.896,12.84c-0.539,0-0.996-0.385-1.083-0.926l-0.927-5.802l-5.802-0.926
		c-0.571-0.092-0.968-0.597-0.921-1.174C11.21,3.435,11.681,3,12.26,3h7.49C20.439,3,21,3.561,21,4.25v7.49
		c0,0.579-0.436,1.05-1.013,1.096C19.957,12.839,19.927,12.84,19.896,12.84z M12.403,3.211L12.403,3.211L12.403,3.211L12.403,3.211z
		"/>
</g>
<g>
	<path style="fill:#333333;" d="M3.244,13.199C3.123,13.179,3.137,13,3.26,13h7.49c0.138,0,0.25,0.112,0.25,0.25v7.49
		c0,0.123-0.179,0.137-0.199,0.016l-0.984-6.158c-0.034-0.213-0.201-0.381-0.415-0.415L3.244,13.199z"/>
	<path style="fill:#333333;" d="M10.897,21.84c-0.539,0-0.996-0.384-1.083-0.925l-0.926-5.802l-5.802-0.927
		c-0.572-0.092-0.968-0.597-0.922-1.174C2.21,12.436,2.681,12,3.26,12h7.49c0.689,0,1.25,0.561,1.25,1.25v7.49
		c0,0.579-0.435,1.05-1.012,1.096C10.958,21.839,10.927,21.84,10.897,21.84z"/>
</g>
<g>
	<path style="fill:#333333;" d="M7.745,8.699C7.623,8.679,7.637,8.5,7.76,8.5h7.49c0.138,0,0.25,0.112,0.25,0.25v7.49
		c0,0.123-0.179,0.137-0.199,0.016l-0.926-5.801c-0.068-0.427-0.403-0.762-0.83-0.83L7.745,8.699z"/>
	<path style="fill:#333333;" d="M15.396,17.34c-0.538,0-0.996-0.384-1.083-0.925l-0.926-5.802L7.586,9.686
		C7.014,9.594,6.618,9.09,6.664,8.512C6.71,7.935,7.181,7.5,7.76,7.5h7.49c0.689,0,1.25,0.561,1.25,1.25v7.49
		c0,0.579-0.436,1.05-1.012,1.096C15.457,17.339,15.427,17.34,15.396,17.34z M7.903,7.711l0.002,0
		C7.905,7.711,7.904,7.711,7.903,7.711L7.903,7.711z"/>
</g>
</svg>






