<?xml version="1.0" encoding="iso-8859-1"?>
<svg version="1.1" id="&#x56FE;&#x5C42;_1" xmlns="http://www.w3.org/2000/svg" xmlns:xlink="http://www.w3.org/1999/xlink" x="0px"
	 y="0px" viewBox="0 0 24 24" style="enable-background:new 0 0 24 24;" xml:space="preserve">
<path style="fill:#333333;" d="M20.5,19h-1.491v-2H20.5c0.275,0,0.5-0.225,0.5-0.5v-13C21,3.224,20.775,3,20.5,3h-13
	C7.224,3,7,3.224,7,3.5v1.463H5V3.5C5,2.122,6.122,1,7.5,1h13C21.879,1,23,2.122,23,3.5v13C23,17.879,21.879,19,20.5,19z"/>
<path style="fill:#333333;" d="M17.5,23h-14C2.122,23,1,21.879,1,20.5v-14C1,5.122,2.122,4,3.5,4h14C18.879,4,20,5.122,20,6.5v14
	C20,21.879,18.879,23,17.5,23z M3.5,6C3.224,6,3,6.224,3,6.5v14C3,20.775,3.224,21,3.5,21h14c0.275,0,0.5-0.225,0.5-0.5v-14
	C18,6.224,17.775,6,17.5,6H3.5z"/>
<polygon style="fill:#333333;" points="10.5,12.914 6.793,9.207 8.207,7.793 10.5,10.086 12.793,7.793 14.207,9.207 "/>
<rect x="7" y="11.5" style="fill:#333333;" width="7" height="2"/>
<rect x="7" y="14.5" style="fill:#333333;" width="7" height="2"/>
<rect x="9.5" y="12.5" style="fill:#333333;" width="2" height="5.5"/>
</svg>






