<?xml version="1.0" encoding="iso-8859-1"?>
<svg version="1.1" id="&#x56FE;&#x5C42;_1" xmlns="http://www.w3.org/2000/svg" xmlns:xlink="http://www.w3.org/1999/xlink" x="0px"
	 y="0px" viewBox="0 0 24 24" style="enable-background:new 0 0 24 24;" xml:space="preserve">
<path style="fill:#333333;" d="M16.967,23H7.01c-1.892,0-3.647-0.886-4.696-2.37c-0.982-1.391-1.215-3.12-0.639-4.745
	c1.376-3.884,3.081-7.027,5.066-9.343l0.462-0.539l0.662,0.259C9.719,6.987,11.982,7,12.005,7c0.021,0,2.279-0.013,4.13-0.739
	l0.662-0.259l0.463,0.54c1.966,2.295,3.664,5.431,5.048,9.323c0.579,1.63,0.347,3.365-0.639,4.76C20.619,22.112,18.861,23,16.967,23
	z M7.83,8.366c-1.628,2.063-3.097,4.876-4.27,8.187c-0.361,1.02-0.224,2.058,0.387,2.923C4.622,20.43,5.767,21,7.01,21h9.957
	c1.245,0,2.393-0.571,3.068-1.529c0.614-0.869,0.752-1.912,0.388-2.937c-1.179-3.315-2.642-6.123-4.253-8.168
	C14.153,8.992,12.1,9,12.004,9C11.908,9,9.85,8.992,7.83,8.366z"/>
<rect x="9" y="13" style="fill:#333333;" width="6" height="2"/>
<rect x="9" y="16" style="fill:#333333;" width="6" height="2"/>
<rect x="11.005" y="14" style="fill:#333333;" width="2" height="5"/>
<polygon style="fill:#333333;" points="12,15.414 8.293,11.707 9.707,10.293 12,12.586 14.293,10.293 15.707,11.707 "/>
<path style="fill:#333333;" d="M12,9C7.724,9,4.5,7.28,4.5,5S7.724,1,12,1c4.275,0,7.5,1.72,7.5,4S16.275,9,12,9z M12,3
	C8.694,3,6.5,4.204,6.5,5S8.694,7,12,7c3.307,0,5.5-1.204,5.5-2S15.307,3,12,3z"/>
</svg>






