<?xml version="1.0" encoding="iso-8859-1"?>
<svg version="1.1" id="&#x56FE;&#x5C42;_1" xmlns="http://www.w3.org/2000/svg" xmlns:xlink="http://www.w3.org/1999/xlink" x="0px"
	 y="0px" viewBox="0 0 24 24" style="enable-background:new 0 0 24 24;" xml:space="preserve">
<path style="fill:#333333;" d="M12,23C5.935,23,1,18.065,1,12S5.935,1,12,1s11,4.935,11,11S18.065,23,12,23z M12,3
	c-4.962,0-9,4.038-9,9c0,4.963,4.038,9,9,9c4.963,0,9-4.037,9-9C21,7.038,16.963,3,12,3z"/>
<path style="fill:#333333;" d="M12,16.12c-0.512,0-1.024-0.195-1.414-0.585l-2.122-2.121c-0.78-0.78-0.779-2.049,0-2.828
	l2.122-2.122c0.78-0.78,2.048-0.781,2.828,0l2.121,2.122c0.378,0.377,0.586,0.879,0.586,1.414c0,0.534-0.208,1.036-0.586,1.414
	l-2.121,2.121C13.024,15.925,12.512,16.12,12,16.12z M11.999,9.877L9.878,12L12,14.121L14.121,12L11.999,9.877z"/>
</svg>






