<?xml version="1.0" encoding="iso-8859-1"?>
<svg version="1.1" id="&#x56FE;&#x5C42;_1" xmlns="http://www.w3.org/2000/svg" xmlns:xlink="http://www.w3.org/1999/xlink" x="0px"
	 y="0px" viewBox="0 0 24 24" style="enable-background:new 0 0 24 24;" xml:space="preserve">
<path style="fill:#333333;" d="M11.9,18c-1.5,0-2.941-0.54-4.06-1.521l1.319-1.504C9.913,15.636,10.886,16,11.9,16
	c2.261,0,4.1-1.794,4.1-4c0-2.206-1.839-4-4.1-4V6c3.364,0,6.1,2.691,6.1,6S15.264,18,11.9,18z"/>
<path style="fill:#333333;" d="M12,23c-2.875,0-5.596-1.103-7.66-3.105C2.186,17.804,1,15.001,1,12c0-2.85,1.085-5.552,3.056-7.608
	L5.5,5.775C3.888,7.458,3,9.668,3,12c0,2.455,0.97,4.749,2.732,6.459C7.421,20.098,9.647,21,12,21c4.963,0,9-4.037,9-9
	c0-4.962-4.037-9-9-9V1c6.065,0,11,4.935,11,11S18.065,23,12,23z"/>
<polygon style="fill:#333333;" points="5.754,19.873 4.318,18.48 10.582,12.026 4.086,5.806 5.47,4.361 13.419,11.974 "/>
</svg>






