<?xml version="1.0" encoding="iso-8859-1"?>
<svg version="1.1" id="&#x56FE;&#x5C42;_1" xmlns="http://www.w3.org/2000/svg" xmlns:xlink="http://www.w3.org/1999/xlink" x="0px"
	 y="0px" viewBox="0 0 24 24" style="enable-background:new 0 0 24 24;" xml:space="preserve">
<rect x="2" y="2.5" style="fill:#333333;" width="20" height="2"/>
<rect x="2" y="10.5" style="fill:#333333;" width="5.5" height="2"/>
<rect x="2" y="18.5" style="fill:#333333;" width="5.5" height="2"/>
<path style="fill:#333333;" d="M15.75,18c-2.895,0-5.25-2.355-5.25-5.25c0-2.895,2.355-5.25,5.25-5.25S21,9.855,21,12.75
	C21,15.645,18.645,18,15.75,18z M15.75,9.5c-1.792,0-3.25,1.458-3.25,3.25S13.958,16,15.75,16S19,14.542,19,12.75
	S17.542,9.5,15.75,9.5z"/>
<rect x="19.25" y="15.279" transform="matrix(0.7097 -0.7045 0.7045 0.7097 -6.6352 19.4243)" style="fill:#333333;" width="2" height="4.968"/>
</svg>






