<?xml version="1.0" encoding="iso-8859-1"?>
<svg version="1.1" id="&#x56FE;&#x5C42;_1" xmlns="http://www.w3.org/2000/svg" xmlns:xlink="http://www.w3.org/1999/xlink" x="0px"
	 y="0px" viewBox="0 0 24 24" style="enable-background:new 0 0 24 24;" xml:space="preserve">
<path style="fill:#333333;" d="M12,23C5.935,23,1,18.065,1,12S5.935,1,12,1v2c-4.962,0-9,4.038-9,9c0,4.963,4.038,9,9,9
	c4.963,0,9-4.037,9-9h2C23,18.065,18.065,23,12,23z"/>
<polygon style="fill:#333333;" points="19.139,6.927 19,6.827 18.861,6.927 18.412,6.601 18.509,6.469 18.231,6.268 18.135,6.399 
	17.686,6.073 17.739,5.91 17.6,5.809 17.771,5.281 17.927,5.331 18.033,5.005 17.877,4.955 18.049,4.426 18.221,4.426 18.273,4.264 
	18.828,4.264 18.828,4.426 19.172,4.426 19.172,4.264 19.727,4.264 19.779,4.426 19.951,4.426 20.123,4.955 19.967,5.005 
	20.073,5.331 20.229,5.281 20.4,5.809 20.261,5.91 20.314,6.073 19.865,6.399 19.769,6.268 19.491,6.469 19.588,6.601 "/>
<path style="fill:#333333;" d="M12,19.5c-2.206,0-4-1.794-4-4v-6c0-2.206,1.794-4,4-4c2.206,0,4,1.794,4,4v6
	C16,17.706,14.206,19.5,12,19.5z M12,7.5c-1.103,0-2,0.897-2,2v6c0,1.103,0.897,2,2,2c1.103,0,2-0.897,2-2v-6
	C14,8.397,13.103,7.5,12,7.5z"/>
<path style="fill:#333333;" d="M7.5,20.393h-2V15.5c0-2.357,1.845-4,3.5-4v2c-0.427,0-1.5,0.595-1.5,2V20.393z"/>
<path style="fill:#333333;" d="M18.5,20.25h-2V15.5c0-1.405-1.073-2-1.5-2v-2c1.655,0,3.5,1.643,3.5,4V20.25z"/>
</svg>






