<?xml version="1.0" encoding="iso-8859-1"?>
<svg version="1.1" id="&#x56FE;&#x5C42;_1" xmlns="http://www.w3.org/2000/svg" xmlns:xlink="http://www.w3.org/1999/xlink" x="0px"
	 y="0px" viewBox="0 0 24 24" style="enable-background:new 0 0 24 24;" xml:space="preserve">
<path style="fill:#333333;" d="M20.515,6.732c-2.281-2.246-5.32-3.482-8.556-3.482c-3.216,0-6.24,1.223-8.516,3.444L2.047,5.263
	C4.698,2.675,8.218,1.25,11.959,1.25c3.764,0,7.301,1.441,9.958,4.057L20.515,6.732z"/>
<path style="fill:#333333;" d="M2.333,14.737v-0.029c0-5.33,4.336-9.666,9.667-9.666v2c-4.228,0-7.667,3.439-7.667,7.666
	L2.333,14.737z"/>
<path style="fill:#333333;" d="M19.667,14.715c0-3.006-1.765-5.747-4.496-6.989l0.828-1.82c3.443,1.567,5.668,5.022,5.668,8.803
	L19.667,14.715z"/>
<path style="fill:#333333;" d="M17.875,18.5h-2v-3.792c0-2.137-1.738-3.875-3.875-3.875s-3.875,1.738-3.875,3.875V18.5h-2v-3.792
	c0-3.239,2.636-5.875,5.875-5.875s5.875,2.636,5.875,5.875V18.5z"/>
<path style="fill:#333333;" d="M9.003,22.721l-0.479-1.941c0.487-0.12,0.852-0.723,0.852-1.182V15.25
	c0-1.447,1.178-2.625,2.625-2.625s2.625,1.178,2.625,2.625v4.348h-2V15.25c0-0.345-0.28-0.625-0.625-0.625s-0.625,0.28-0.625,0.625
	v4.348C11.375,20.828,10.543,22.341,9.003,22.721z"/>
</svg>






