<?xml version="1.0" encoding="iso-8859-1"?>
<svg version="1.1" id="&#x56FE;&#x5C42;_1" xmlns="http://www.w3.org/2000/svg" xmlns:xlink="http://www.w3.org/1999/xlink" x="0px"
	 y="0px" viewBox="0 0 24 24" style="enable-background:new 0 0 24 24;" xml:space="preserve">
<path style="fill:#333333;" d="M16.5,22h-2V11c0-1.103-0.897-2-2-2c-1.103,0-2,0.897-2,2v11h-2V11c0-2.206,1.794-4,4-4
	c2.206,0,4,1.794,4,4V22z"/>
<path style="fill:#333333;" d="M19.5,22h-2V11c0-2.757-2.243-5-5-5s-5,2.243-5,5v11h-2V11c0-3.86,3.14-7,7-7c3.859,0,7,3.14,7,7V22z
	"/>
<path style="fill:#333333;" d="M22.5,22h-2V11c0-4.411-3.589-8-8-8s-8,3.589-8,8v11h-2V11c0-5.514,4.486-10,10-10
	c5.514,0,10,4.486,10,10V22z"/>
<rect x="11.5" y="11" style="fill:#333333;" width="2" height="11"/>
</svg>






