<?xml version="1.0" encoding="iso-8859-1"?>
<svg version="1.1" id="&#x56FE;&#x5C42;_1" xmlns="http://www.w3.org/2000/svg" xmlns:xlink="http://www.w3.org/1999/xlink" x="0px"
	 y="0px" viewBox="0 0 24 24" style="enable-background:new 0 0 24 24;" xml:space="preserve">
<path style="fill:#333333;" d="M12,23H2V10c0-2.757,2.243-5,5-5s5,2.243,5,5V23z M4,21h6V10c0-1.654-1.346-3-3-3s-3,1.346-3,3V21z"
	/>
<path style="fill:none;" d="M15,22h6l-3-9L15,22z"/>
<path style="fill:#333333;" d="M22.388,23h-8.775L17,12.838V12c0-3.491,0-5.243-0.879-6.122C15.243,5,13.491,5,10,5H9V3h1
	c3.915,0,6.071,0,7.535,1.464C19,5.929,19,8.085,19,12v0.838L22.388,23z M16.388,21h3.225L18,16.162L16.388,21z M5,5H3V3h2V5z"/>
<path style="fill:#333333;" d="M7,7C5.346,7,4,5.654,4,4s1.346-3,3-3s3,1.346,3,3S8.654,7,7,7z M7,3C6.449,3,6,3.449,6,4
	s0.449,1,1,1s1-0.449,1-1S7.551,3,7,3z"/>
</svg>






