<?xml version="1.0" encoding="iso-8859-1"?>
<svg version="1.1" id="&#x56FE;&#x5C42;_1" xmlns="http://www.w3.org/2000/svg" xmlns:xlink="http://www.w3.org/1999/xlink" x="0px"
	 y="0px" viewBox="0 0 24 24" style="enable-background:new 0 0 24 24;" xml:space="preserve">
<path style="fill:#333333;" d="M15,23H9c-1.103,0-2-0.897-2-2V9c0-2.757,2.243-5,5-5s5,2.243,5,5v12C17,22.103,16.103,23,15,23z
	 M12,6c-1.654,0-3,1.346-3,3v12h6V9C15,7.346,13.654,6,12,6z"/>
<rect x="11" y="12" style="fill:#333333;" width="2" height="5"/>
<rect x="9" y="1.5" style="fill:#333333;" width="6.5" height="4"/>
<path style="fill:#333333;" d="M20,6.117l-6.5-0.722v-3.79L20,0.883V6.117z M15.5,3.605L18,3.883V3.117l-2.5,0.278V3.605z"/>
<path style="fill:#333333;" d="M5,9H3c0-0.263-0.004-0.513-0.007-0.752c-0.024-1.669-0.045-3.11,1.3-4.455
	C5.674,2.412,7.81,2.458,9.369,2.491C9.59,2.496,9.802,2.5,10,2.5v2c-0.211,0-0.438-0.005-0.674-0.01
	C8.058,4.464,6.484,4.429,5.707,5.207C4.988,5.926,4.969,6.608,4.993,8.219C4.996,8.467,5,8.727,5,9z"/>
</svg>






