<?xml version="1.0" encoding="iso-8859-1"?>
<svg version="1.1" id="&#x56FE;&#x5C42;_1" xmlns="http://www.w3.org/2000/svg" xmlns:xlink="http://www.w3.org/1999/xlink" x="0px"
	 y="0px" viewBox="0 0 24 24" style="enable-background:new 0 0 24 24;" xml:space="preserve">
<path style="fill:#333333;" d="M12,23c-4.767,0-8.5-3.642-8.5-8.291c0-1.694,0.298-3.002,0.912-4
	c0.543-0.882,0.92-1.287,1.397-1.799c0.143-0.154,0.3-0.322,0.481-0.525l0.314-0.348C7.091,7.5,7.193,7.388,7.66,6.51
	C8.157,5.576,8.593,3.468,8.593,2l1.633-0.774l0.467,0.374c1.055,0.835,2.499,1.979,3.642,3.654
	c0.737,1.081,1.368,2.608,1.775,3.835c0.225-0.378,0.413-0.866,0.487-1.493l1.862-0.376c0.655,1.15,0.787,1.431,1.367,3.17
	c0.621,1.87,0.673,3.08,0.673,4.159C20.5,19.209,16.687,23,12,23z M10.432,3.964c-0.189,1.267-0.537,2.604-1.006,3.485
	C8.868,8.497,8.66,8.748,8.084,9.381L7.782,9.716c-0.191,0.214-0.358,0.393-0.51,0.556c-0.448,0.481-0.719,0.772-1.157,1.484
	C5.707,12.421,5.5,13.414,5.5,14.709C5.5,18.236,8.355,21,12,21c3.584,0,6.5-2.894,6.5-6.451c0-0.953-0.044-1.94-0.571-3.528
	c-0.089-0.268-0.166-0.496-0.234-0.695c-0.527,0.798-1.135,1.25-1.416,1.46l-1.673-0.745c-0.045-0.262-0.8-3.016-1.923-4.661
	C12.016,5.404,11.191,4.61,10.432,3.964z"/>
</svg>






