<?xml version="1.0" encoding="iso-8859-1"?>
<svg version="1.1" id="&#x56FE;&#x5C42;_1" xmlns="http://www.w3.org/2000/svg" xmlns:xlink="http://www.w3.org/1999/xlink" x="0px"
	 y="0px" viewBox="0 0 24 24" style="enable-background:new 0 0 24 24;" xml:space="preserve">
<path style="fill:#333333;" d="M3.303,21.953l-1.247-1.284L6.928,6.777l10.417,10.704L3.303,21.953z M7.746,10.486l-3.139,8.952
	l9.048-2.881L7.746,10.486z"/>
<path style="fill:#333333;" d="M12.207,10.207l-1.414-1.414l2.5-2.5c1.293-1.293,0.797-1.79,0.5-2.086l1.414-1.414
	c0.663,0.664,1.943,2.47-0.5,4.914L12.207,10.207z"/>
<path style="fill:#333333;" d="M15.207,13.207l-1.414-1.414l2.5-2.5c2.068-2.067,4.346-2.067,6.414,0l-1.414,1.414
	c-1.273-1.272-2.312-1.272-3.586,0L15.207,13.207z"/>
<path style="fill:#333333;" d="M10,3.5c0.552,0,1-0.448,1-1s-0.448-1-1-1s-1,0.448-1,1S9.448,3.5,10,3.5z"/>
<path style="fill:#333333;" d="M21,3c0.552,0,1-0.448,1-1s-0.448-1-1-1s-1,0.448-1,1S20.448,3,21,3z"/>
<path style="fill:#333333;" d="M21,14.5c0.552,0,1-0.448,1-1s-0.448-1-1-1s-1,0.448-1,1S20.448,14.5,21,14.5z"/>
<path style="fill:#333333;" d="M19.5,19c0.552,0,1-0.448,1-1s-0.448-1-1-1s-1,0.448-1,1S18.948,19,19.5,19z"/>
</svg>






