<?xml version="1.0" encoding="iso-8859-1"?>
<svg version="1.1" id="&#x56FE;&#x5C42;_1" xmlns="http://www.w3.org/2000/svg" xmlns:xlink="http://www.w3.org/1999/xlink" x="0px"
	 y="0px" viewBox="0 0 24 24" style="enable-background:new 0 0 24 24;" xml:space="preserve">
<path style="fill:#333333;" d="M11.5,18C7.364,18,4,14.636,4,10.5c0-2.365,0.961-3.91,1.89-5.403c0.623-1,1.266-2.034,1.648-3.372
	l0.314-1.1l1.048,0.458c2.505,1.096,3.646,3.314,4.166,5.125c0.731-0.801,1.769-1.573,3.191-1.929l1.133-0.283l0.105,1.163
	c0.121,1.332,0.492,2.164,0.852,2.968C18.684,8.879,19,9.589,19,10.5C19,14.636,15.636,18,11.5,18z M9.044,3.469
	C8.612,4.509,8.076,5.37,7.588,6.154C6.736,7.523,6,8.706,6,10.5c0,3.032,2.467,5.5,5.5,5.5c3.032,0,5.5-2.468,5.5-5.5
	c0-0.485-0.201-0.935-0.479-1.557c-0.275-0.618-0.6-1.343-0.817-2.314c-1.623,0.9-2.228,2.606-2.257,2.691L11.5,9
	C11.5,8.961,11.451,5.286,9.044,3.469z"/>
<rect x="10.5" y="11.754" transform="matrix(0.2425 -0.9701 0.9701 0.2425 -10.692 26.3061)" style="fill:#333333;" width="1.999" height="16.492"/>
<rect x="3.254" y="19" transform="matrix(0.9701 -0.2428 0.2428 0.9701 -4.5113 3.3901)" style="fill:#333333;" width="16.492" height="1.999"/>
</svg>






