<?xml version="1.0" encoding="iso-8859-1"?>
<svg version="1.1" id="&#x56FE;&#x5C42;_1" xmlns="http://www.w3.org/2000/svg" xmlns:xlink="http://www.w3.org/1999/xlink" x="0px"
	 y="0px" viewBox="0 0 24 24" style="enable-background:new 0 0 24 24;" xml:space="preserve">
<path style="fill:#333333;" d="M10.82,22.915c-0.301,0-0.6-0.021-0.895-0.062c-2.708-0.375-4.688-2.858-5.222-3.784
	c-0.166-0.289-0.312-0.599-0.434-0.921c-0.266-0.702-0.063-1.47,0.491-1.95c-0.03-0.027-0.059-0.056-0.086-0.086
	c-0.385-0.413-0.545-0.972-0.44-1.532c0.2-1.065,0.829-3.048,2.794-4.365c2.846-1.906,4.857-1.356,5.519-1.177l-0.466,1.946
	l-0.062-0.017c-0.534-0.146-1.79-0.488-3.878,0.91c-1.198,0.802-1.683,1.991-1.878,2.779c0.373-0.055,0.593-0.112,0.717-0.154
	c0.245-0.083,0.248-0.09,0.413-0.484c0.098-0.234,0.221-0.525,0.432-0.846c0.814-1.233,2.666-1.577,4.126-0.766
	c1.341,0.744,1.996,2.163,1.63,3.531c-0.38,1.413-1.307,2.279-2.756,2.576c-1.289,0.266-2.032-0.211-2.752-0.67
	c-0.25-0.158-0.53-0.339-0.882-0.513c-0.104-0.051-0.453-0.011-0.977,0.294c0.067,0.156,0.142,0.308,0.222,0.445
	c0.284,0.491,1.847,2.537,3.763,2.803c1.848,0.253,3.908-0.624,5.137-2.186c1.047-1.33,1.174-3.289,0.332-5.111l1.814-0.84
	c1.16,2.51,0.94,5.264-0.574,7.188C15.448,21.779,13.089,22.914,10.82,22.915z M8.602,15.821c0.199,0.116,0.378,0.229,0.545,0.336
	c0.632,0.402,0.799,0.496,1.276,0.397c0.809-0.166,1.075-0.574,1.226-1.136c0.101-0.375-0.022-0.905-0.669-1.265
	c-0.63-0.348-1.301-0.161-1.486,0.119c-0.108,0.164-0.177,0.328-0.256,0.518C9.107,15.104,8.947,15.485,8.602,15.821z"/>
<path style="fill:#333333;" d="M11.753,14.968c-0.323-1.714-0.545-10.724-0.501-11.852c0.043-1.144,0.827-2.027,2.097-2.362
	c0.374-0.1,0.766-0.042,1.098,0.162c0.341,0.208,0.585,0.555,0.67,0.951L17.5,13.001l-1.955,0.418L13.312,2.992
	c-0.057,0.084-0.06,0.159-0.062,0.202c-0.045,1.16,0.192,9.935,0.469,11.405L11.753,14.968z"/>
</svg>






