<?xml version="1.0" encoding="iso-8859-1"?>
<svg version="1.1" id="&#x56FE;&#x5C42;_1" xmlns="http://www.w3.org/2000/svg" xmlns:xlink="http://www.w3.org/1999/xlink" x="0px"
	 y="0px" viewBox="0 0 24 24" style="enable-background:new 0 0 24 24;" xml:space="preserve">
<path style="fill:#333333;" d="M19.5,18.5h-8.218c-0.465,0-0.919-0.129-1.314-0.373l-4.493-2.776L6,13.5h13.5
	c1.379,0,2.5,1.121,2.5,2.5S20.879,18.5,19.5,18.5z M9.521,15.5l1.499,0.926c0.079,0.049,0.169,0.074,0.262,0.074H19.5
	c0.275,0,0.5-0.225,0.5-0.5s-0.225-0.5-0.5-0.5H9.521z"/>
<circle style="fill:#333333;" cx="15" cy="4.5" r="2"/>
<path style="fill:#333333;" d="M17.6,16.8L16.4,15.2c1.482-1.112,0.775-3.883,0.461-4.491c-0.246-0.476-0.628-1.05-0.929-1.478
	c-0.354,0.356-0.675,0.736-0.982,1.098c-0.907,1.067-1.845,2.171-3.2,2.171c-1.473,0-3.293-1.016-3.496-1.132l0.991-1.737
	C9.836,9.967,11.038,10.5,11.75,10.5c0.431,0,1.063-0.746,1.677-1.466c0.347-0.408,0.705-0.829,1.116-1.241
	C15.298,7.038,16.117,7,16.274,7l0.796,0.395c0.042,0.055,1.034,1.364,1.568,2.396C19.258,10.989,20.164,14.877,17.6,16.8z"/>
<path style="fill:#333333;" d="M4,14H2V5c0-0.549,0.229-1.078,0.626-1.451c0.394-0.368,0.906-0.548,1.44-0.516
	c3.231,0.213,4.853,1.515,6.714,3.841L9.22,8.125C7.615,6.12,6.471,5.197,3.935,5.029L4,14z"/>
<path style="fill:#333333;" d="M21,22.5c-1.234,0-1.803-0.336-2.322-0.711c-0.275-0.198-0.401-0.289-0.928-0.289
	c-0.443,0-0.481,0.044-0.594,0.175c-0.342,0.399-0.799,0.825-1.906,0.825c-1.069,0-1.594-0.388-1.978-0.67
	c-0.288-0.213-0.447-0.33-1.022-0.33c-0.524,0-0.634,0.088-0.875,0.281C10.901,22.16,10.382,22.5,9.25,22.5
	c-1.19,0-1.717-0.387-2.155-0.783C6.896,21.537,6.855,21.5,6.5,21.5c-0.357,0-0.409,0.043-0.629,0.224
	C5.392,22.116,4.814,22.5,3.5,22.5v-2c0.709,0,0.857-0.121,1.103-0.323C4.931,19.907,5.428,19.5,6.5,19.5
	c1.038,0,1.526,0.362,1.936,0.733C8.645,20.422,8.731,20.5,9.25,20.5c0.524,0,0.634-0.088,0.875-0.281
	c0.474-0.379,0.993-0.719,2.125-0.719c1.139,0,1.695,0.341,2.21,0.721c0.275,0.203,0.379,0.279,0.79,0.279
	c0.233,0,0.309-0.032,0.31-0.033c0.022-0.021,0.048-0.058,0.077-0.092c0.362-0.424,0.854-0.875,2.113-0.875
	c1.082,0,1.609,0.315,2.097,0.667C20.136,20.375,20.31,20.5,21,20.5V22.5z"/>
</svg>






