<?xml version="1.0" encoding="iso-8859-1"?>
<svg version="1.1" id="&#x56FE;&#x5C42;_1" xmlns="http://www.w3.org/2000/svg" xmlns:xlink="http://www.w3.org/1999/xlink" x="0px"
	 y="0px" viewBox="0 0 24 24" style="enable-background:new 0 0 24 24;" xml:space="preserve">
<g>
	<defs>
		<rect id="SVGID_1_" width="24" height="24"/>
	</defs>
	<clipPath id="SVGID_00000127029793165244369510000014665334681667021197_">
		<use xlink:href="#SVGID_1_"  style="overflow:visible;"/>
	</clipPath>
	<g style="clip-path:url(#SVGID_00000127029793165244369510000014665334681667021197_);">
		<path style="fill:#333333;" d="M6.389,22.207c-0.701,0-1.543-0.472-2.293-2.19c-2.163-0.943-2.352-2.035-2.109-2.805
			c0.551-1.747,3.934-2.265,5.947-1.76l0.582,0.146l0.146,0.582c0.503,2.012-0.015,5.395-1.76,5.946
			C6.742,22.176,6.57,22.207,6.389,22.207z M4.059,17.728c0.178,0.135,0.521,0.343,1.162,0.589l0.415,0.16l0.159,0.414
			c0.247,0.642,0.455,0.984,0.59,1.163c0.269-0.476,0.558-1.628,0.442-2.769C5.683,17.171,4.533,17.458,4.059,17.728z"/>
		<path style="fill:#333333;" d="M8.071,10.356c-0.684-0.2-2.971-0.959-3.677-2.353c-0.289-0.57-0.218-1.053-0.107-1.357
			c0.75-2.062,5.351-2.522,6.937-2.522c0.007,0,0.014,0,0.021,0l-0.005,2c-0.01,0-0.021,0-0.031,0c-2.287,0-4.37,0.662-4.933,1.108
			C6.554,7.533,7.36,8.065,8.632,8.437L8.071,10.356z"/>
		<path style="fill:#333333;" d="M16.919,19.922c-0.236,0-0.511-0.052-0.809-0.203c-1.394-0.706-2.154-2.993-2.354-3.678l1.92-0.561
			c0.374,1.282,0.914,2.092,1.213,2.364c0.428-0.53,1.106-2.649,1.101-4.972l2-0.004c0.004,1.565-0.451,6.203-2.522,6.956
			C17.321,19.878,17.136,19.922,16.919,19.922z"/>
		<path style="fill:#333333;" d="M6.597,17.493l0.096-1.154c0.03-0.361,0.772-8.886,3.825-11.938
			c3.211-3.212,9.557-1.394,9.826-1.315l0.471,0.138l0.179,0.458c0.103,0.263,2.474,6.484-1.321,9.939l0,0
			c-3.551,3.232-11.58,3.777-11.919,3.799L6.597,17.493z M16.048,4.496c-1.488,0-3.088,0.292-4.115,1.32
			c-1.803,1.803-2.76,6.704-3.117,9.492c2.273-0.267,7.208-1.069,9.511-3.165l0,0c2.279-2.075,1.371-5.922,0.962-7.261
			C18.628,4.731,17.383,4.496,16.048,4.496z"/>
		<path style="fill:#333333;" d="M18.848,13.874c-0.15-0.023-3.705-0.605-5.854-2.755c-2.149-2.149-2.731-5.704-2.755-5.854
			l1.975-0.313c0.005,0.03,0.51,3.069,2.194,4.753c1.406,1.407,3.907,2.061,4.753,2.194L18.848,13.874z"/>
		<circle style="fill:#333333;" cx="16.883" cy="7.23" r="1"/>
		<path style="fill:#333333;" d="M16.232,15.63l-0.73-1.861c1.211-0.476,2.162-1.022,2.825-1.626
			c0.564-0.514,0.975-1.176,1.217-1.964l1.912,0.588c-0.35,1.135-0.949,2.096-1.782,2.856C18.828,14.39,17.671,15.065,16.232,15.63z
			"/>
		<path style="fill:#333333;" d="M10.631,7.9L8.798,7.1c0.504-1.153,1.083-2.061,1.72-2.698c0.704-0.704,1.614-1.221,2.705-1.534
			l0.553,1.922c-0.762,0.219-1.382,0.564-1.844,1.026C11.473,6.275,11.035,6.977,10.631,7.9z"/>
	</g>
</g>
</svg>






