<?xml version="1.0" encoding="iso-8859-1"?>
<svg version="1.1" id="&#x56FE;&#x5C42;_1" xmlns="http://www.w3.org/2000/svg" xmlns:xlink="http://www.w3.org/1999/xlink" x="0px"
	 y="0px" viewBox="0 0 24 24" style="enable-background:new 0 0 24 24;" xml:space="preserve">
<path style="fill:#333333;" d="M12.399,22.635c-1.44,0-2.769-0.276-3.793-0.716C7.93,21.629,2,18.932,2,13.5
	c0-2.472,2.654-3.746,4-4.232V6c0-1.516,1.233-2.75,2.75-2.75c0.379,0,0.74,0.077,1.068,0.216C10.28,2.595,11.197,2,12.25,2
	s1.97,0.595,2.432,1.466C15.01,3.327,15.371,3.25,15.75,3.25c1.385,0,2.533,1.029,2.723,2.362C18.72,5.539,18.98,5.5,19.25,5.5
	C20.767,5.5,22,6.733,22,8.248V15c0,2.545-2.33,5.186-4.522,6.378C15.834,22.273,14.044,22.635,12.399,22.635z M8.75,5.25
	C8.336,5.25,8,5.586,8,6v3.744c0,0.593-0.383,1.108-0.953,1.282C5.642,11.456,4,12.361,4,13.5c0,4.149,4.842,6.345,5.394,6.581
	c1.215,0.521,4.27,1.096,7.127-0.459h0.001C18.407,18.596,20,16.479,20,15V8.248C20,7.835,19.663,7.5,19.25,7.5
	s-0.749,0.336-0.75,0.749l-2-0.004V6c0-0.414-0.337-0.75-0.75-0.75S15,5.586,15,6h-2V4.75C13,4.336,12.663,4,12.25,4
	c-0.414,0-0.75,0.336-0.75,0.75V6h-2C9.5,5.586,9.164,5.25,8.75,5.25z"/>
</svg>






