<?xml version="1.0" encoding="iso-8859-1"?>
<svg version="1.1" id="&#x56FE;&#x5C42;_1" xmlns="http://www.w3.org/2000/svg" xmlns:xlink="http://www.w3.org/1999/xlink" x="0px"
	 y="0px" viewBox="0 0 24 24" style="enable-background:new 0 0 24 24;" xml:space="preserve">
<path style="fill:#333333;" d="M18.359,21.769l-2.528-2.107c-3.32,1.362-6.082,1.34-7.153,1.34L8.5,21c-5.136,0-7-2.393-7-4
	c0-3.047,1.197-8.36,2.056-10.829C4.28,3.62,5.99,2,8,2c5.523,0,6.362,2.558,6.487,3.342l0.081,0.504l-3.587,3.587l-0.707-0.745
	c-0.646-0.681-1.096-1.051-1.389-1.25c-0.198,1.731-0.217,3.506-0.12,4.825c2.341-1.274,4.116-0.53,5.175,0.053
	c3.65-2.452,6.101-1.18,7.446-0.482c0.184,0.095,0.347,0.181,0.493,0.242l-0.76,1.85c-0.194-0.079-0.411-0.19-0.653-0.315
	c-1.234-0.64-2.925-1.516-5.867,0.69l-0.52,0.391l-0.791-0.445c-1.061-0.611-2.377-1.372-4.649,0.523l-1.229,1.024l-0.382-1.555
	c-0.416-1.695-0.424-5.159-0.018-7.886l0.066-0.238c0.196-0.47,0.594-0.792,1.092-0.883c0.774-0.145,1.668,0.278,2.829,1.356
	l1.333-1.333C11.905,4.671,10.69,4,8,4C6.938,4,5.941,5.089,5.462,6.773C4.652,9.108,3.5,14.204,3.5,17c0,0.329,0.869,2,5,2
	l0.189,0.001c1.107,0.001,3.722,0.021,6.899-1.412l0.57-0.258l3.481,2.9L18.359,21.769z"/>
</svg>






