<?xml version="1.0" encoding="iso-8859-1"?>
<svg version="1.1" id="&#x56FE;&#x5C42;_1" xmlns="http://www.w3.org/2000/svg" xmlns:xlink="http://www.w3.org/1999/xlink" x="0px"
	 y="0px" viewBox="0 0 24 24" style="enable-background:new 0 0 24 24;" xml:space="preserve">
<path style="fill:#333333;" d="M14.122,23h-0.577c-2.85,0-5.557-1.373-7.241-3.674l-3.836-5.243
	c-1.021-1.396-0.737-3.388,0.633-4.442C4.258,8.75,5.863,8.767,7,9.628V3.625C7,2.178,8.178,1,9.625,1
	c0.479,0,0.928,0.129,1.314,0.354c0.48-0.524,1.17-0.854,1.936-0.854s1.455,0.329,1.936,0.854C15.197,1.129,15.646,1,16.125,1
	c1.264,0,2.322,0.898,2.57,2.089C18.912,3.031,19.14,3,19.375,3C20.822,3,22,4.178,22,5.625v9.529c0,1.573-0.472,3.095-1.365,4.399
	C19.16,21.712,16.725,23,14.122,23z M7.918,18.145C9.227,19.933,11.33,21,13.545,21h0.577c1.942,0,3.76-0.963,4.862-2.575
	C19.64,17.468,20,16.307,20,15.154V5.625C20,5.28,19.72,5,19.375,5S18.75,5.28,18.75,5.625h-2v-2C16.75,3.28,16.47,3,16.125,3
	S15.5,3.28,15.5,3.625h-2v-0.5c0-0.345-0.28-0.625-0.625-0.625S12.25,2.78,12.25,3.125v0.5h-2C10.25,3.28,9.97,3,9.625,3
	S9,3.28,9,3.625V12l-1.707,0.707L5.916,11.33c-0.428-0.428-1.114-0.473-1.596-0.104c-0.517,0.397-0.624,1.148-0.238,1.675
	L7.918,18.145z"/>
</svg>






