<?xml version="1.0" encoding="iso-8859-1"?>
<svg version="1.1" id="&#x56FE;&#x5C42;_1" xmlns="http://www.w3.org/2000/svg" xmlns:xlink="http://www.w3.org/1999/xlink" x="0px"
	 y="0px" viewBox="0 0 24 24" style="enable-background:new 0 0 24 24;" xml:space="preserve">
<path style="fill:#333333;" d="M19.5,22h-15C3.122,22,2,20.879,2,19.5v-15C2,3.122,3.122,2,4.5,2h15C20.879,2,22,3.122,22,4.5v15
	C22,20.879,20.879,22,19.5,22z M4.5,4C4.224,4,4,4.224,4,4.5v15C4,19.775,4.224,20,4.5,20h15c0.275,0,0.5-0.225,0.5-0.5v-15
	C20,4.224,19.775,4,19.5,4H4.5z"/>
<path style="fill:#333333;" d="M12,17.5c-1.822,0-3-1.176-3-2.996h2c0,0.875,0.48,0.996,1,0.996c0.633,0,1.5,0,1.5-2.5
	c0-2-0.509-2-1-2c-1.2,0-1.996,0.378-2.003,0.382l-0.442-0.865H9V6.005h5.5v2H11v1.139C11.775,9.003,12.484,9,12.5,9
	c1.99,0,3,1.346,3,4C15.5,16.72,13.597,17.5,12,17.5z"/>
</svg>






