<?xml version="1.0" encoding="iso-8859-1"?>
<svg version="1.1" id="&#x56FE;&#x5C42;_1" xmlns="http://www.w3.org/2000/svg" xmlns:xlink="http://www.w3.org/1999/xlink" x="0px"
	 y="0px" viewBox="0 0 24 24" style="enable-background:new 0 0 24 24;" xml:space="preserve">
<path style="fill:#333333;" d="M20.5,17.5c-1.727,0-2.5-2.511-2.5-5c0-2.489,0.773-5,2.5-5s2.5,2.511,2.5,5
	C23,14.989,22.227,17.5,20.5,17.5z M20.5,9.727c-0.231,0.462-0.5,1.43-0.5,2.773s0.269,2.311,0.5,2.772
	c0.231-0.462,0.5-1.43,0.5-2.772S20.731,10.189,20.5,9.727z"/>
<path style="fill:#333333;" d="M3.5,17.5c-1.727,0-2.5-2.511-2.5-5c0-2.489,0.773-5,2.5-5s2.5,2.511,2.5,5
	C6,14.989,5.227,17.5,3.5,17.5z M3.5,9.727C3.269,10.188,3,11.157,3,12.5c0,1.344,0.269,2.312,0.5,2.773
	C3.731,14.812,4,13.844,4,12.5C4,11.157,3.731,10.188,3.5,9.727z"/>
<path style="fill:#333333;" d="M12,23c-2.748,0-4-5.702-4-11S9.252,1,12,1s4,5.702,4,11S14.748,23,12,23z M11.985,2.999
	C11.46,3.151,10,6.15,10,12c0,5.797,1.434,8.795,2,8.997c0.566-0.202,2-3.199,2-8.997C14,6.149,12.54,3.151,11.985,2.999z"/>
<path style="fill:#333333;" d="M17,21c-2.855,0-3-7.497-3-9s0.145-9,3-9s3,7.497,3,9S19.855,21,17,21z M17,5.272
	C16.57,6.135,16,8.458,16,12s0.57,5.865,1,6.728c0.43-0.862,1-3.186,1-6.728S17.43,6.135,17,5.272z"/>
<path style="fill:#333333;" d="M7,21c-2.855,0-3-7.497-3-9s0.145-9,3-9s3,7.497,3,9S9.855,21,7,21z M7,5.272
	C6.57,6.135,6,8.458,6,12s0.57,5.865,1,6.728C7.43,17.865,8,15.542,8,12S7.43,6.135,7,5.272z"/>
</svg>






