<?xml version="1.0" encoding="iso-8859-1"?>
<svg version="1.1" id="&#x56FE;&#x5C42;_1" xmlns="http://www.w3.org/2000/svg" xmlns:xlink="http://www.w3.org/1999/xlink" x="0px"
	 y="0px" viewBox="0 0 24 24" style="enable-background:new 0 0 24 24;" xml:space="preserve">
<path style="fill:#333333;" d="M11.5,23c-4.146,0-6.306-1.375-6.895-2.553l-0.051-0.121l-2.535-7.38L1.041,8.05
	C1.014,7.92,1,7.782,1,7.644c0-0.834,0.485-1.484,1.207-1.7c0.72-0.217,1.484,0.064,1.896,0.695c0.053,0.08,0.103,0.17,0.146,0.263
	L4.349,7.12L4.074,5.108c-0.077-0.569,0.07-1.133,0.413-1.59C4.77,3.14,5.185,2.894,5.654,2.827c0.47-0.066,0.935,0.052,1.314,0.336
	c0.434,0.326,0.707,0.7,0.856,1.132L8.14,5.21L8.041,3.673C7.998,3,8.247,2.339,8.724,1.862c0.686-0.686,1.772-0.746,2.529-0.14
	l0.17,0.136c0.485,0.388,0.807,0.94,0.906,1.554l0.235,1.456l0.129-1.332c0.064-0.667,0.402-1.291,0.927-1.711l0.105-0.084
	c0.768-0.617,1.874-0.554,2.571,0.144C16.75,2.335,17,2.938,17,3.58v8.838l1.465-0.942C18.95,11.165,19.511,11,20.087,11h1.035
	c0.537,0,1.036,0.29,1.303,0.757c0.266,0.467,0.262,1.044-0.013,1.507l-4.409,7.394C17.919,20.754,15.903,23,11.5,23z M6.416,19.587
	C6.652,19.937,8.021,21,11.5,21c3.112,0,4.665-1.337,4.949-1.61L20.243,13h-0.156c-0.192,0-0.379,0.055-0.541,0.159l-2.234,1.437
	c-0.463,0.299-1.049,0.318-1.53,0.055C15.299,14.388,15,13.883,15,13.334V3.58c0-0.106-0.041-0.207-0.116-0.281l-0.016,0.087
	c-0.104,0.083-0.172,0.208-0.185,0.341l-0.664,6.862c-0.062,0.661-0.611,1.161-1.277,1.161c-0.637,0-1.17-0.456-1.269-1.084
	L10.355,3.73c-0.02-0.123-0.084-0.233-0.181-0.311l-0.09-0.072c-0.035,0.06-0.051,0.128-0.046,0.198l0.441,6.841
	c0.023,0.351-0.102,0.701-0.343,0.958C9.894,11.602,9.553,11.75,9.2,11.75c-0.545,0-1.032-0.346-1.21-0.862L6.16,5.604l0.939,6.864
	l-0.747,0.281c-0.799,0.297-1.627-0.042-1.955-0.751l-0.916-1.985l0.486,2.477L6.416,19.587z M8.482,10.515c0,0,0,0.001,0,0.002
	V10.515z M12.029,10.396c0,0.001,0,0.003-0.001,0.004L12.029,10.396z M13.448,10.345l0.001,0.007
	C13.449,10.35,13.448,10.347,13.448,10.345z"/>
</svg>






