<?xml version="1.0" encoding="iso-8859-1"?>
<svg version="1.1" id="&#x56FE;&#x5C42;_1" xmlns="http://www.w3.org/2000/svg" xmlns:xlink="http://www.w3.org/1999/xlink" x="0px"
	 y="0px" viewBox="0 0 24 24" style="enable-background:new 0 0 24 24;" xml:space="preserve">
<path style="fill:#333333;" d="M16.5,23h-9V11.49c-2.515-2.044-4-5.149-4-8.392V1h17v2.098c0,3.246-1.488,6.353-4,8.392V23z M9.5,21
	h5v-9.902c0-0.375,0.179-0.732,0.479-0.957C17.184,8.487,18.5,5.854,18.5,3.098V3h-13v0.098c0,2.756,1.316,5.389,3.521,7.043
	C9.318,10.36,9.5,10.719,9.5,11.098V21z M7.816,11.737c0.004,0.003,0.009,0.006,0.013,0.01C7.825,11.744,7.82,11.74,7.816,11.737z"
	/>
<rect x="5" y="4.5" style="fill:#333333;" width="14" height="2"/>
<rect x="11" y="14.004" style="fill:#333333;" width="2" height="2"/>
<path style="fill:#333333;" d="M7.9,11.8C5.145,9.733,3.5,6.444,3.5,3V2h2v1c0,2.818,1.346,5.509,3.6,7.2L7.9,11.8z"/>
<path style="fill:#333333;" d="M16.101,11.8l-1.201-1.6C17.154,8.509,18.5,5.817,18.5,3V2h2v1C20.5,6.443,18.855,9.733,16.101,11.8z
	"/>
</svg>






