<?xml version="1.0" encoding="iso-8859-1"?>
<svg version="1.1" id="&#x56FE;&#x5C42;_1" xmlns="http://www.w3.org/2000/svg" xmlns:xlink="http://www.w3.org/1999/xlink" x="0px"
	 y="0px" viewBox="0 0 24 24" style="enable-background:new 0 0 24 24;" xml:space="preserve">
<path style="fill:#333333;" d="M19,14.5H5v-10h2.882l1-2h6.236l1,2H19V14.5z M7,12.5h10v-6h-2.118l-1-2h-3.764l-1,2H7V12.5z"/>
<path style="fill:#333333;" d="M12,12c-1.654,0-3-1.346-3-3s1.346-3,3-3s3,1.346,3,3S13.654,12,12,12z M12,8c-0.551,0-1,0.449-1,1
	s0.449,1,1,1c0.552,0,1-0.449,1-1S12.552,8,12,8z"/>
<path style="fill:#333333;" d="M10.707,21.707l-1.414-1.414l0.417-0.418C4.677,19.315,1,16.936,1,14
	c0-0.932,0.373-1.851,1.079-2.658l1.506,1.316C3.197,13.103,3,13.554,3,14c0,1.565,2.531,3.279,6.41,3.824l-0.117-0.117l1.414-1.414
	l2,2L12,19l0.707,0.707L10.707,21.707z"/>
<path style="fill:#333333;" d="M16.214,19.561l-0.428-1.953C18.856,16.937,21,15.453,21,14c0-0.446-0.197-0.897-0.585-1.342
	l1.506-1.316C22.627,12.149,23,13.068,23,14C23,16.516,20.399,18.646,16.214,19.561z"/>
</svg>






