<?xml version="1.0" encoding="iso-8859-1"?>
<svg version="1.1" id="&#x56FE;&#x5C42;_1" xmlns="http://www.w3.org/2000/svg" xmlns:xlink="http://www.w3.org/1999/xlink" x="0px"
	 y="0px" viewBox="0 0 24 24" style="enable-background:new 0 0 24 24;" xml:space="preserve">
<path style="fill:#333333;" d="M11.82,22.915c-0.3,0-0.6-0.021-0.895-0.062C8.22,22.48,6.239,19.996,5.704,19.07
	c-0.165-0.286-0.311-0.597-0.434-0.922c-0.265-0.703-0.062-1.47,0.492-1.95c-0.03-0.027-0.058-0.056-0.086-0.085
	C5.29,15.7,5.129,15.142,5.234,14.581c0.2-1.065,0.829-3.049,2.794-4.365c2.226-1.492,3.927-1.032,4.943-0.757l0.271,0.071
	l-0.484,1.94l-0.309-0.081c-0.901-0.245-1.837-0.498-3.308,0.488c-1.198,0.802-1.683,1.991-1.878,2.78
	c0.373-0.056,0.593-0.113,0.716-0.155c0.246-0.083,0.249-0.09,0.414-0.484c0.098-0.234,0.22-0.525,0.431-0.846
	c0.816-1.233,2.667-1.577,4.126-0.766c1.341,0.744,1.996,2.163,1.63,3.531c-0.38,1.414-1.308,2.281-2.757,2.576
	c-1.287,0.265-2.031-0.211-2.75-0.669c-0.25-0.159-0.53-0.339-0.883-0.514c-0.104-0.05-0.454-0.011-0.977,0.294
	c0.067,0.156,0.142,0.308,0.221,0.444c0.284,0.492,1.849,2.539,3.763,2.804c1.845,0.253,3.909-0.623,5.137-2.185
	c1.047-1.331,1.174-3.29,0.332-5.113l1.816-0.838c1.158,2.509,0.938,5.264-0.576,7.188C16.448,21.78,14.089,22.914,11.82,22.915z
	 M9.603,15.821c0.199,0.116,0.378,0.229,0.545,0.336c0.632,0.402,0.798,0.495,1.276,0.397c0.809-0.165,1.074-0.573,1.226-1.136
	c0.101-0.375-0.022-0.905-0.669-1.265c-0.628-0.348-1.3-0.161-1.486,0.119c-0.108,0.164-0.176,0.327-0.256,0.517
	C10.107,15.104,9.947,15.485,9.603,15.821z"/>
<path style="fill:#333333;" d="M12.754,14.968c-0.168-0.889-0.992-5.821-1.195-7.04c-0.495-0.604-1.665-2.036-1.89-2.374
	C8.922,4.435,8.994,3.073,9.865,1.818c0.24-0.344,0.615-0.563,1.031-0.6c0.426-0.041,0.854,0.117,1.166,0.428l4.843,4.844
	l1.591,6.481l-1.943,0.477L15.096,7.51l-3.902-3.902c-0.116,0.456,0.065,0.728,0.139,0.838c0.135,0.203,1.092,1.389,1.941,2.419
	l0.17,0.207l0.044,0.264c0.011,0.063,1.048,6.289,1.231,7.263L12.754,14.968z"/>
</svg>






