<?xml version="1.0" encoding="iso-8859-1"?>
<svg version="1.1" id="&#x56FE;&#x5C42;_1" xmlns="http://www.w3.org/2000/svg" xmlns:xlink="http://www.w3.org/1999/xlink" x="0px"
	 y="0px" viewBox="0 0 24 24" style="enable-background:new 0 0 24 24;" xml:space="preserve">
<path style="fill:#333333;" d="M12,21c-6.065,0-11-4.037-11-9c0-4.962,4.935-9,11-9s11,4.038,11,9C23,16.963,18.065,21,12,21z M12,5
	c-4.962,0-9,3.14-9,7c0,3.859,4.038,7,9,7c4.963,0,9-3.141,9-7C21,8.14,16.963,5,12,5z"/>
<path style="fill:#333333;" d="M12,15c-3.364,0-6-1.757-6-4s2.636-4,6-4s6,1.757,6,4S15.364,15,12,15z M12,9c-2.29,0-4,1.056-4,2
	s1.71,2,4,2c2.289,0,4-1.056,4-2S14.289,9,12,9z"/>
<rect x="11" y="4" style="fill:#333333;" width="2" height="4"/>
<path style="fill:#333333;" d="M16.833,9.553l-1.669-1.102C15.229,8.351,16.804,6,19.5,6v2C17.896,8,16.844,9.538,16.833,9.553z"/>
<path style="fill:#333333;" d="M7.11,9.456C7.079,9.397,6.322,8,4.5,8V6c3.083,0,4.342,2.449,4.395,2.553L7.11,9.456z"/>
<path style="fill:#333333;" d="M6.49,18.142L4.51,17.858c0.581-4.064,4.027-5.258,4.173-5.307l0.633,1.896L9,13.5l0.323,0.946
	C9.224,14.481,6.892,15.326,6.49,18.142z"/>
<path style="fill:#333333;" d="M17.503,18.071c-0.196-2.749-2.696-3.583-2.803-3.617l0.594-1.91c0.159,0.05,3.908,1.249,4.203,5.385
	L17.503,18.071z"/>
</svg>






