<?xml version="1.0" encoding="iso-8859-1"?>
<svg version="1.1" id="&#x56FE;&#x5C42;_1" xmlns="http://www.w3.org/2000/svg" xmlns:xlink="http://www.w3.org/1999/xlink" x="0px"
	 y="0px" viewBox="0 0 24 24" style="enable-background:new 0 0 24 24;" xml:space="preserve">
<path style="fill:#333333;" d="M19.5,22h-15C3.122,22,2,20.879,2,19.5v-15C2,3.122,3.122,2,4.5,2h15C20.879,2,22,3.122,22,4.5v15
	C22,20.879,20.879,22,19.5,22z M4.5,4C4.224,4,4,4.224,4,4.5v15C4,19.775,4.224,20,4.5,20h15c0.275,0,0.5-0.225,0.5-0.5v-15
	C20,4.224,19.775,4,19.5,4H4.5z"/>
<rect x="0.722" y="7.5" transform="matrix(0.7071 -0.7071 0.7071 0.7071 -3.5208 8.5)" style="fill:#333333;" width="15.556" height="2"/>
<rect x="7.722" y="14.5" transform="matrix(0.7071 -0.7071 0.7071 0.7071 -6.4203 15.5)" style="fill:#333333;" width="15.556" height="2"/>
<rect x="0.686" y="11" transform="matrix(0.7071 -0.7071 0.7071 0.7071 -4.9706 12)" style="fill:#333333;" width="22.627" height="2"/>
<rect x="6.75" y="10.275" transform="matrix(0.7071 -0.7071 0.7071 0.7071 -6.7457 9.2145)" style="fill:#333333;" width="2" height="4.95"/>
<rect x="15.25" y="8.775" transform="matrix(0.7071 -0.7071 0.7071 0.7071 -3.1954 14.7855)" style="fill:#333333;" width="2" height="4.95"/>
</svg>






