<?xml version="1.0" encoding="iso-8859-1"?>
<svg version="1.1" id="&#x56FE;&#x5C42;_1" xmlns="http://www.w3.org/2000/svg" xmlns:xlink="http://www.w3.org/1999/xlink" x="0px"
	 y="0px" viewBox="0 0 24 24" style="enable-background:new 0 0 24 24;" xml:space="preserve">
<path style="fill:#333333;" d="M12,14c-1.654,0-3-1.346-3-3s1.346-3,3-3s3,1.346,3,3S13.654,14,12,14z M12,10c-0.551,0-1,0.449-1,1
	s0.449,1,1,1c0.552,0,1-0.449,1-1S12.552,10,12,10z"/>
<path style="fill:#333333;" d="M12,23.5c-0.615,0-1.189-0.252-1.576-0.69c-0.679-0.769-1.446-5.771-0.413-6.943
	c0.97-1.102,3.007-1.102,3.978,0c1.032,1.172,0.266,6.175-0.414,6.944C13.19,23.248,12.616,23.5,12,23.5L12,23.5z M11.962,21.498
	c0.023,0.004,0.05,0.002,0.076-0.001c0.278-0.771,0.622-3.615,0.397-4.359c-0.215-0.174-0.657-0.174-0.871,0
	C11.34,17.882,11.684,20.728,11.962,21.498z M11.513,17.188L11.513,17.188L11.513,17.188C11.512,17.188,11.512,17.188,11.513,17.188
	z M12.416,17.082L12.416,17.082L12.416,17.082z M11.584,17.082L11.584,17.082z"/>
<path style="fill:#333333;" d="M16.117,16.03l-1.268-1.547c1.049-0.859,1.65-2.129,1.65-3.483c0-2.481-2.019-4.5-4.5-4.5
	S7.5,8.519,7.5,11c0,1.354,0.602,2.624,1.65,3.483L7.883,16.03C6.369,14.789,5.5,12.956,5.5,11c0-3.584,2.916-6.5,6.5-6.5
	s6.5,2.916,6.5,6.5C18.5,12.956,17.632,14.79,16.117,16.03z"/>
<path style="fill:#333333;" d="M16.404,19.98l-0.883-1.795C18.284,16.828,20,14.075,20,11c0-4.411-3.589-8-8-8s-8,3.589-8,8
	c0,3.075,1.716,5.828,4.478,7.186L7.596,19.98C4.145,18.284,2,14.844,2,11C2,5.486,6.486,1,12,1c5.514,0,10,4.486,10,10
	C22,14.844,19.855,18.284,16.404,19.98z"/>
</svg>






