<?xml version="1.0" encoding="iso-8859-1"?>
<svg version="1.1" id="&#x56FE;&#x5C42;_1" xmlns="http://www.w3.org/2000/svg" xmlns:xlink="http://www.w3.org/1999/xlink" x="0px"
	 y="0px" viewBox="0 0 24 24" style="enable-background:new 0 0 24 24;" xml:space="preserve">
<path style="fill:#333333;" d="M4,8H2V4c0-1.103,0.897-2,2-2h4v2H4V8z"/>
<path style="fill:#333333;" d="M8,22H4c-1.103,0-2-0.897-2-2v-4h2v4h4V22z"/>
<path style="fill:#333333;" d="M20,22h-4v-2h4v-4h2v4C22,21.103,21.103,22,20,22z"/>
<path style="fill:#333333;" d="M22,8h-2V4h-4V2h4c1.103,0,2,0.897,2,2V8z"/>
<path style="fill:#333333;" d="M12,18c-3.309,0-6-2.691-6-6s2.691-6,6-6s6,2.691,6,6S15.309,18,12,18z M12,8c-2.206,0-4,1.794-4,4
	c0,2.206,1.794,4,4,4c2.206,0,4-1.794,4-4C16,9.794,14.206,8,12,8z"/>
<circle style="fill:#333333;" cx="12" cy="12" r="1.5"/>
</svg>






