<?xml version="1.0" encoding="iso-8859-1"?>
<svg version="1.1" id="&#x56FE;&#x5C42;_1" xmlns="http://www.w3.org/2000/svg" xmlns:xlink="http://www.w3.org/1999/xlink" x="0px"
	 y="0px" viewBox="0 0 24 24" style="enable-background:new 0 0 24 24;" xml:space="preserve">
<path style="fill:#333333;" d="M19.679,17.414l-0.812-1.828C20.162,15.01,21,13.703,21,12.257c0-2-1.591-3.628-3.546-3.628
	c-0.561,0-1.098,0.13-1.596,0.387l-1.105,0.57l-0.319-1.203C13.749,5.802,11.44,4,8.818,4C5.61,4,3,6.666,3,9.942
	c0,1.89,0.851,3.625,2.334,4.761L4.12,16.291C2.137,14.774,1,12.461,1,9.942C1,5.563,4.507,2,8.818,2
	c3.159,0,5.979,1.936,7.191,4.823c0.47-0.128,0.957-0.194,1.444-0.194c3.058,0,5.546,2.525,5.546,5.628
	C23,14.492,21.696,16.517,19.679,17.414z"/>
<path style="fill:#333333;" d="M6.172,12.828C5.417,12.073,5,11.069,5,10c0-2.206,1.794-4,4-4c1.069,0,2.073,0.417,2.829,1.172
	l-1.415,1.414C10.036,8.208,9.534,8,9,8c-1.103,0-2,0.897-2,2c0,0.534,0.208,1.036,0.586,1.414L6.172,12.828z"/>
<rect x="10" y="16" style="fill:#333333;" width="4" height="2"/>
<rect x="5" y="20" style="fill:#333333;" width="5" height="2"/>
<rect x="14" y="20" style="fill:#333333;" width="5" height="2"/>
<rect x="13" y="12" style="fill:#333333;" width="4" height="2"/>
</svg>






