<?xml version="1.0" encoding="iso-8859-1"?>
<svg version="1.1" id="&#x56FE;&#x5C42;_1" xmlns="http://www.w3.org/2000/svg" xmlns:xlink="http://www.w3.org/1999/xlink" x="0px"
	 y="0px" viewBox="0 0 24 24" style="enable-background:new 0 0 24 24;" xml:space="preserve">
<path style="fill:#333333;" d="M11,22H3.5c-1.103,0-2-0.897-2-2V4c0-1.103,0.897-2,2-2h6.468l2.5,3H20.5c1.103,0,2,0.897,2,2v4.5h-2
	V7h-8.968l-2.5-3H3.5v16H11V22z"/>
<path style="fill:#333333;" d="M17.5,20.5c-1.654,0-3-1.346-3-3s1.346-3,3-3s3,1.346,3,3S19.154,20.5,17.5,20.5z M17.5,16.5
	c-0.552,0-1,0.448-1,1s0.448,1,1,1s1-0.448,1-1S18.052,16.5,17.5,16.5z"/>
<rect x="16.5" y="14" style="fill:#333333;" width="2" height="1.5"/>
<rect x="16.5" y="19.5" style="fill:#333333;" width="2" height="1.5"/>
<rect x="18.634" y="14.53" transform="matrix(0.7071 -0.7071 0.7071 0.7071 -5.3042 18.2551)" style="fill:#333333;" width="1.5" height="2"/>
<rect x="14.634" y="18.53" transform="matrix(0.7071 -0.7071 0.7071 0.7071 -9.3042 16.5983)" style="fill:#333333;" width="1.5" height="2"/>
<rect x="14.53" y="14.78" transform="matrix(0.7071 -0.7071 0.7071 0.7071 -6.4328 15.5303)" style="fill:#333333;" width="2" height="1.5"/>
<rect x="18.53" y="18.78" transform="matrix(0.7071 -0.7071 0.7071 0.7071 -8.0897 19.5303)" style="fill:#333333;" width="2" height="1.5"/>
<rect x="14" y="16.5" style="fill:#333333;" width="1.5" height="2"/>
<rect x="19.5" y="16.5" style="fill:#333333;" width="1.5" height="2"/>
</svg>






