<?xml version="1.0" encoding="iso-8859-1"?>
<svg version="1.1" id="&#x56FE;&#x5C42;_1" xmlns="http://www.w3.org/2000/svg" xmlns:xlink="http://www.w3.org/1999/xlink" x="0px"
	 y="0px" viewBox="0 0 24 24" style="enable-background:new 0 0 24 24;" xml:space="preserve">
<path style="fill:#333333;" d="M20.5,22h-17c-1.103,0-2-0.897-2-2V4c0-1.103,0.897-2,2-2h6.468l2.5,3H20.5c1.103,0,2,0.897,2,2v13
	C22.5,21.103,21.603,22,20.5,22z M3.5,4v16h17V7h-8.968l-2.5-3H3.5z"/>
<polygon style="fill:#333333;" points="9.793,17.207 6.586,14 9.793,10.793 11.207,12.207 9.414,14 11.207,15.793 "/>
<polygon style="fill:#333333;" points="17,15 8,15 8,13 15,13 15,11 17,11 "/>
</svg>






