<?xml version="1.0" encoding="iso-8859-1"?>
<svg version="1.1" id="&#x56FE;&#x5C42;_1" xmlns="http://www.w3.org/2000/svg" xmlns:xlink="http://www.w3.org/1999/xlink" x="0px"
	 y="0px" viewBox="0 0 24 24" style="enable-background:new 0 0 24 24;" xml:space="preserve">
<path style="fill:#333333;" d="M20.5,22h-17c-1.103,0-2-0.897-2-2V4c0-1.103,0.897-2,2-2h6.468l2.5,3H20.5c1.103,0,2,0.897,2,2v13
	C22.5,21.103,21.603,22,20.5,22z M3.5,4v16h17V7h-8.968l-2.5-3H3.5z"/>
<rect x="8.5" y="11" style="fill:#333333;" width="7" height="2"/>
<rect x="8.5" y="14" style="fill:#333333;" width="7" height="2"/>
<rect x="13.25" y="8.982" transform="matrix(0.7071 -0.7071 0.7071 0.7071 -3.4277 13.2249)" style="fill:#333333;" width="2" height="3.536"/>
<rect x="8.75" y="14.482" transform="matrix(0.7071 -0.7071 0.7071 0.7071 -8.6348 11.6538)" style="fill:#333333;" width="2" height="3.536"/>
</svg>






