<?xml version="1.0" encoding="iso-8859-1"?>
<svg version="1.1" id="&#x56FE;&#x5C42;_1" xmlns="http://www.w3.org/2000/svg" xmlns:xlink="http://www.w3.org/1999/xlink" x="0px"
	 y="0px" viewBox="0 0 24 24" style="enable-background:new 0 0 24 24;" xml:space="preserve">
<path style="fill:#333333;" d="M20.5,22h-17c-1.103,0-2-0.897-2-2V4c0-1.103,0.897-2,2-2h6.468l2.5,3H20.5c1.103,0,2,0.897,2,2v13
	C22.5,21.103,21.603,22,20.5,22z M3.5,4v16h17V7h-8.968l-2.5-3H3.5z"/>
<path style="fill:#333333;" d="M16.5,18h-9v-6h9V18z M9.5,16h5v-2h-5V16z"/>
<path style="fill:#333333;" d="M14.5,13h-2v-1.5c0-0.276-0.225-0.5-0.5-0.5c-0.276,0-0.5,0.224-0.5,0.5V13h-2v-1.5
	C9.5,10.122,10.622,9,12,9c1.379,0,2.5,1.122,2.5,2.5V13z"/>
</svg>






