<?xml version="1.0" encoding="iso-8859-1"?>
<svg version="1.1" id="&#x56FE;&#x5C42;_1" xmlns="http://www.w3.org/2000/svg" xmlns:xlink="http://www.w3.org/1999/xlink" x="0px"
	 y="0px" viewBox="0 0 24 24" style="enable-background:new 0 0 24 24;" xml:space="preserve">
<path style="fill:#333333;" d="M11,22H3.5c-1.103,0-2-0.897-2-2V4c0-1.103,0.897-2,2-2h6.468l2.5,3H20.5c1.103,0,2,0.897,2,2v4.5h-2
	V7h-8.968l-2.5-3H3.5v16H11V22z"/>
<polygon style="fill:#333333;" points="19.707,20.207 18.293,18.793 20.086,17 18.293,15.207 19.707,13.793 22.914,17 "/>
<polygon style="fill:#333333;" points="14.293,20.207 11.086,17 14.293,13.793 15.707,15.207 13.914,17 15.707,18.793 "/>
</svg>






