<?xml version="1.0" encoding="iso-8859-1"?>
<svg version="1.1" id="&#x56FE;&#x5C42;_1" xmlns="http://www.w3.org/2000/svg" xmlns:xlink="http://www.w3.org/1999/xlink" x="0px"
	 y="0px" viewBox="0 0 24 24" style="enable-background:new 0 0 24 24;" xml:space="preserve">
<path style="fill:#333333;" d="M11,22H3.5c-1.103,0-2-0.897-2-2V4c0-1.103,0.897-2,2-2h6.468l2.5,3H20.5c1.103,0,2,0.897,2,2v4.5h-2
	V7h-8.968l-2.5-3H3.5v16H11V22z"/>
<rect x="13.5" y="14.5" style="fill:#333333;" width="7" height="2"/>
<rect x="13.5" y="17.5" style="fill:#333333;" width="7" height="2"/>
<rect x="18.25" y="12.482" transform="matrix(0.7071 -0.7071 0.7071 0.7071 -4.4381 17.7855)" style="fill:#333333;" width="2" height="3.536"/>
<rect x="13.75" y="17.982" transform="matrix(0.7071 -0.7071 0.7071 0.7071 -9.6452 16.2145)" style="fill:#333333;" width="2" height="3.536"/>
</svg>






