<?xml version="1.0" encoding="iso-8859-1"?>
<svg version="1.1" id="&#x56FE;&#x5C42;_1" xmlns="http://www.w3.org/2000/svg" xmlns:xlink="http://www.w3.org/1999/xlink" x="0px"
	 y="0px" viewBox="0 0 24 24" style="enable-background:new 0 0 24 24;" xml:space="preserve">
<path style="fill:#333333;" d="M11,22H3.5c-1.103,0-2-0.897-2-2V4c0-1.103,0.897-2,2-2h6.468l2.5,3H20.5c1.103,0,2,0.897,2,2v4.5h-2
	V7h-8.968l-2.5-3H3.5v16H11V22z"/>
<path style="fill:#333333;" d="M17.5,22.5c-2.757,0-5-2.243-5-5s2.243-5,5-5s5,2.243,5,5S20.257,22.5,17.5,22.5z M17.5,14.5
	c-1.654,0-3,1.346-3,3s1.346,3,3,3s3-1.346,3-3S19.154,14.5,17.5,14.5z"/>
<rect x="16.086" y="16.5" transform="matrix(0.7071 -0.7071 0.7071 0.7071 -7.2487 17.5)" style="fill:#333333;" width="2.828" height="2"/>
</svg>






