<?xml version="1.0" encoding="iso-8859-1"?>
<svg version="1.1" id="&#x56FE;&#x5C42;_1" xmlns="http://www.w3.org/2000/svg" xmlns:xlink="http://www.w3.org/1999/xlink" x="0px"
	 y="0px" viewBox="0 0 24 24" style="enable-background:new 0 0 24 24;" xml:space="preserve">
<path style="fill:#333333;" d="M20.5,22h-17c-1.103,0-2-0.897-2-2V4c0-1.103,0.897-2,2-2h6.468l2.5,3H20.5c1.103,0,2,0.897,2,2v13
	C22.5,21.103,21.603,22,20.5,22z M3.5,4v16h17V7h-8.968l-2.5-3H3.5z"/>
<path style="fill:#333333;" d="M12.5,18C10.019,18,8,15.981,8,13.5S10.019,9,12.5,9s4.5,2.019,4.5,4.5S14.981,18,12.5,18z M12.5,11
	c-1.378,0-2.5,1.121-2.5,2.5s1.122,2.5,2.5,2.5c1.379,0,2.5-1.121,2.5-2.5S13.879,11,12.5,11z"/>
<rect x="11.086" y="12.5" transform="matrix(0.7071 -0.7071 0.7071 0.7071 -5.8848 12.7929)" style="fill:#333333;" width="2.828" height="2"/>
</svg>






