<?xml version="1.0" encoding="iso-8859-1"?>
<svg version="1.1" id="&#x56FE;&#x5C42;_1" xmlns="http://www.w3.org/2000/svg" xmlns:xlink="http://www.w3.org/1999/xlink" x="0px"
	 y="0px" viewBox="0 0 24 24" style="enable-background:new 0 0 24 24;" xml:space="preserve">
<path style="fill:#333333;" d="M11,22H3.5c-1.103,0-2-0.897-2-2V4c0-1.103,0.897-2,2-2h6.468l2.5,3H20.5c1.103,0,2,0.897,2,2v4.5h-2
	V7h-8.968l-2.5-3H3.5v16H11V22z"/>
<path style="fill:#333333;" d="M17,22.069l-4.787-5.792l2.204-2.777h5.166l2.204,2.777L17,22.069z M14.787,16.252L17,18.931
	l2.213-2.679L18.616,15.5h-3.232L14.787,16.252z"/>
</svg>






