<?xml version="1.0" encoding="iso-8859-1"?>
<svg version="1.1" id="&#x56FE;&#x5C42;_1" xmlns="http://www.w3.org/2000/svg" xmlns:xlink="http://www.w3.org/1999/xlink" x="0px"
	 y="0px" viewBox="0 0 24 24" style="enable-background:new 0 0 24 24;" xml:space="preserve">
<path style="fill:#333333;" d="M8,22.5H3c-0.827,0-1.5-0.673-1.5-1.5V3c0-0.827,0.673-1.5,1.5-1.5h5c0.827,0,1.5,0.673,1.5,1.5v18
	C9.5,21.827,8.827,22.5,8,22.5z M3.5,20.5h4v-17h-4V20.5z"/>
<circle style="fill:#333333;" cx="5.5" cy="17.5" r="1"/>
<rect x="4.5" y="5.5" style="fill:#333333;" width="2" height="7"/>
<path style="fill:#333333;" d="M15.862,21.395c-0.669,0-1.281-0.451-1.455-1.126l-3.75-14.531c-0.101-0.39-0.043-0.795,0.163-1.142
	s0.535-0.591,0.925-0.688l5.03-1.258c0.797-0.196,1.611,0.287,1.816,1.082l3.75,14.53c0.1,0.391,0.042,0.796-0.164,1.143
	c-0.205,0.346-0.533,0.59-0.924,0.688l-5.031,1.258C16.104,21.38,15.981,21.395,15.862,21.395z M12.72,5.726l3.501,13.563
	l4.06-1.015L16.779,4.71L12.72,5.726z"/>
<circle style="fill:#333333;" cx="17.5" cy="16" r="1"/>
<rect x="15.125" y="7.923" transform="matrix(0.9701 -0.2426 0.2426 0.9701 -2.0653 4.2248)" style="fill:#333333;" width="1.999" height="5.154"/>
</svg>






