<?xml version="1.0" encoding="iso-8859-1"?>
<svg version="1.1" id="&#x56FE;&#x5C42;_1" xmlns="http://www.w3.org/2000/svg" xmlns:xlink="http://www.w3.org/1999/xlink" x="0px"
	 y="0px" viewBox="0 0 24 24" style="enable-background:new 0 0 24 24;" xml:space="preserve">
<path style="fill:#333333;" d="M20.5,22h-17c-1.103,0-2-0.897-2-2V4c0-1.103,0.897-2,2-2h6.468l2.5,3H20.5c1.103,0,2,0.897,2,2v13
	C22.5,21.103,21.603,22,20.5,22z M3.5,4v16h17V7h-8.968l-2.5-3H3.5z"/>
<path style="fill:#333333;" d="M12,17c-1.654,0-3-1.346-3-3s1.346-3,3-3s3,1.346,3,3S13.654,17,12,17z M12,13c-0.551,0-1,0.448-1,1
	s0.449,1,1,1c0.552,0,1-0.448,1-1S12.552,13,12,13z"/>
<rect x="11" y="10.5" style="fill:#333333;" width="2" height="1.5"/>
<rect x="11" y="16" style="fill:#333333;" width="2" height="1.5"/>
<rect x="13.134" y="11.03" transform="matrix(0.7071 -0.7071 0.7071 0.7071 -4.4402 13.3409)" style="fill:#333333;" width="1.5" height="2"/>
<rect x="9.134" y="15.03" transform="matrix(0.7071 -0.7071 0.7071 0.7071 -8.4402 11.6841)" style="fill:#333333;" width="1.5" height="2"/>
<rect x="9.03" y="11.28" transform="matrix(0.7071 -0.7071 0.7071 0.7071 -5.5689 10.6161)" style="fill:#333333;" width="2" height="1.5"/>
<rect x="13.03" y="15.28" transform="matrix(0.7071 -0.7071 0.7071 0.7071 -7.2257 14.6161)" style="fill:#333333;" width="2" height="1.5"/>
<rect x="8.5" y="13" style="fill:#333333;" width="1.5" height="2"/>
<rect x="14" y="13" style="fill:#333333;" width="1.5" height="2"/>
</svg>






