<?xml version="1.0" encoding="iso-8859-1"?>
<svg version="1.1" id="&#x56FE;&#x5C42;_1" xmlns="http://www.w3.org/2000/svg" xmlns:xlink="http://www.w3.org/1999/xlink" x="0px"
	 y="0px" viewBox="0 0 24 24" style="enable-background:new 0 0 24 24;" xml:space="preserve">
<path style="fill:#333333;" d="M11,22H3.5c-1.103,0-2-0.897-2-2V4c0-1.103,0.897-2,2-2h6.468l2.5,3H20.5c1.103,0,2,0.897,2,2v4.5h-2
	V7h-8.968l-2.5-3H3.5v16H11V22z"/>
<path style="fill:#333333;" d="M16,20c-2.206,0-4-1.794-4-4s1.794-4,4-4s4,1.794,4,4S18.206,20,16,20z M16,14c-1.103,0-2,0.897-2,2
	s0.897,2,2,2s2-0.897,2-2S17.103,14,16,14z"/>
<rect x="18.75" y="17.399" transform="matrix(0.6247 -0.7809 0.7809 0.6247 -7.4242 22.553)" style="fill:#333333;" width="2.001" height="3.202"/>
</svg>






