<?xml version="1.0" encoding="iso-8859-1"?>
<svg version="1.1" id="&#x56FE;&#x5C42;_1" xmlns="http://www.w3.org/2000/svg" xmlns:xlink="http://www.w3.org/1999/xlink" x="0px"
	 y="0px" viewBox="0 0 24 24" style="enable-background:new 0 0 24 24;" xml:space="preserve">
<path style="fill:#333333;" d="M19.5,23h-15c-1.103,0-2-0.897-2-2V3c0-1.103,0.897-2,2-2h15c1.103,0,2,0.897,2,2v18
	C21.5,22.103,20.603,23,19.5,23z M4.5,3v18h15V3H4.5z"/>
<rect x="8" y="13.5" style="fill:#333333;" width="2" height="2"/>
<rect x="8" y="16.5" style="fill:#333333;" width="5" height="2"/>
<path style="fill:#333333;" d="M12,10c-5.434,0-8.237-4.724-8.96-7.222L4.96,2.22C5.029,2.456,6.725,8,12,8
	c5.274,0,6.971-5.544,7.04-5.78l1.921,0.559C20.237,5.276,17.433,10,12,10z"/>
<path style="fill:#333333;" d="M12,12c-1.654,0-3-1.346-3-3s1.346-3,3-3s3,1.346,3,3S13.654,12,12,12z M12,8c-0.551,0-1,0.449-1,1
	s0.449,1,1,1c0.552,0,1-0.449,1-1S12.552,8,12,8z"/>
<path style="fill:#333333;" d="M4.5,6h-2V3c0-1.103,0.897-2,2-2h3v2h-3V6z"/>
<path style="fill:#333333;" d="M21.5,6h-2V3h-3V1h3c1.103,0,2,0.897,2,2V6z"/>
</svg>






