<?xml version="1.0" encoding="iso-8859-1"?>
<svg version="1.1" id="&#x56FE;&#x5C42;_1" xmlns="http://www.w3.org/2000/svg" xmlns:xlink="http://www.w3.org/1999/xlink" x="0px"
	 y="0px" viewBox="0 0 24 24" style="enable-background:new 0 0 24 24;" xml:space="preserve">
<path style="fill:#333333;" d="M20.5,22h-17c-1.103,0-2-0.897-2-2V4c0-1.103,0.897-2,2-2h6.468l2.5,3H20.5c1.103,0,2,0.897,2,2v13
	C22.5,21.103,21.603,22,20.5,22z M3.5,4v16h17V7h-8.968l-2.5-3H3.5z"/>
<path style="fill:#333333;" d="M12,18.178l-0.528-0.329C11.33,17.761,8,15.641,8,11.4c0-0.536,0-1.203,3.703-2.354L12,8.953
	l0.297,0.093C16,10.197,16,10.864,16,11.4c0,4.241-3.33,6.361-3.472,6.449L12,18.178z M10.015,11.824
	c0.146,1.994,1.289,3.298,1.985,3.915c0.694-0.616,1.84-1.92,1.984-3.915c-0.403-0.206-1.189-0.514-1.984-0.774
	C11.205,11.311,10.419,11.619,10.015,11.824z"/>
</svg>






