<?xml version="1.0" encoding="iso-8859-1"?>
<svg version="1.1" id="&#x56FE;&#x5C42;_1" xmlns="http://www.w3.org/2000/svg" xmlns:xlink="http://www.w3.org/1999/xlink" x="0px"
	 y="0px" viewBox="0 0 24 24" style="enable-background:new 0 0 24 24;" xml:space="preserve">
<path style="fill:#333333;" d="M11,22H3.5c-1.103,0-2-0.897-2-2V4c0-1.103,0.897-2,2-2h6.468l2.5,3H20.5c1.103,0,2,0.897,2,2v4.5h-2
	V7h-8.968l-2.5-3H3.5v16H11V22z"/>
<path style="fill:#333333;" d="M17,22.178l-0.528-0.329C16.33,21.761,13,19.641,13,15.4c0-0.536,0-1.203,3.703-2.355L17,12.953
	l0.297,0.092C21,14.197,21,14.864,21,15.4c0,4.24-3.33,6.36-3.472,6.448L17,22.178z M15.016,15.824
	c0.145,1.994,1.289,3.298,1.984,3.915c0.694-0.616,1.84-1.92,1.984-3.915c-0.403-0.206-1.189-0.514-1.984-0.774
	C16.205,15.311,15.419,15.619,15.016,15.824z"/>
</svg>






