<?xml version="1.0" encoding="iso-8859-1"?>
<svg version="1.1" id="&#x56FE;&#x5C42;_1" xmlns="http://www.w3.org/2000/svg" xmlns:xlink="http://www.w3.org/1999/xlink" x="0px"
	 y="0px" viewBox="0 0 24 24" style="enable-background:new 0 0 24 24;" xml:space="preserve">
<path style="fill:#333333;" d="M11.417,20.917c-5.238,0-9.5-4.262-9.5-9.5c0-5.238,4.262-9.5,9.5-9.5c5.238,0,9.5,4.262,9.5,9.5
	C20.917,16.655,16.655,20.917,11.417,20.917z M11.417,3.917c-4.136,0-7.5,3.364-7.5,7.5c0,4.135,3.364,7.5,7.5,7.5
	c4.135,0,7.5-3.364,7.5-7.5C18.917,7.282,15.553,3.917,11.417,3.917z"/>
<rect x="18" y="16.879" transform="matrix(0.7071 -0.7071 0.7071 0.7071 -7.8701 19)" style="fill:#333333;" width="2" height="4.243"/>
<rect x="10.5" y="8.5" style="fill:#333333;" width="2" height="7"/>
<rect x="9" y="7.5" style="fill:#333333;" width="5" height="2"/>
</svg>






