<?xml version="1.0" encoding="iso-8859-1"?>
<svg version="1.1" id="&#x56FE;&#x5C42;_1" xmlns="http://www.w3.org/2000/svg" xmlns:xlink="http://www.w3.org/1999/xlink" x="0px"
	 y="0px" viewBox="0 0 24 24" style="enable-background:new 0 0 24 24;" xml:space="preserve">
<path style="fill:#333333;" d="M5.184,23.001c-1.183,0-2.052-0.312-2.634-0.939c-1.448-1.562-1.051-2.83-0.813-3.303
	c0.413-0.821,1.309-1.306,2.217-1.207c1.587,0.175,2.173-0.092,2.179-0.095l0.114-0.061c3.593-1.604,3.086-9.571,2.278-13.178
	l1.951-0.438c0.786,3.506,1.706,13.084-3.359,15.417c-0.377,0.212-1.341,0.563-3.379,0.342c-0.068-0.011-0.173,0.037-0.214,0.117
	c-0.081,0.16,0.04,0.556,0.493,1.045C4.25,20.954,5.02,21.13,6.478,20.87l0.176-0.016h3.852c0.429,0,1.78-0.854,3.215-3.495
	l0.064-0.103c0.724-1.016,2.551-2.794,4.81-3.016c0.49-0.033,1.162-0.255,1.551-0.783c0.37-0.502,0.451-1.229,0.241-2.162
	c-0.616-1.412-1.626-2.841-2.604-4.224c-1.179-1.668-2.292-3.243-2.743-4.793l1.92-0.559c0.357,1.228,1.377,2.67,2.457,4.197
	c1.055,1.494,2.146,3.038,2.844,4.671l0.053,0.16c0.469,1.958-0.044,3.199-0.558,3.896c-1,1.358-2.548,1.561-2.998,1.59
	c-1.531,0.151-2.878,1.553-3.312,2.138c-1.538,2.809-3.383,4.482-4.94,4.482H6.741C6.171,22.952,5.653,23.001,5.184,23.001z"/>
</svg>






