<?xml version="1.0" encoding="iso-8859-1"?>
<svg version="1.1" id="&#x56FE;&#x5C42;_1" xmlns="http://www.w3.org/2000/svg" xmlns:xlink="http://www.w3.org/1999/xlink" x="0px"
	 y="0px" viewBox="0 0 24 24" style="enable-background:new 0 0 24 24;" xml:space="preserve">
<path style="fill:#333333;" d="M12,23C5.935,23,1,18.065,1,12S5.935,1,12,1s11,4.935,11,11S18.065,23,12,23z M12,3
	c-4.962,0-9,4.038-9,9c0,4.963,4.038,9,9,9c4.963,0,9-4.037,9-9C21,7.038,16.963,3,12,3z"/>
<polygon style="fill:#333333;" points="15.744,11.805 11.034,8.094 11.034,4.919 14.46,2.44 15.632,4.06 13.034,5.94 13.034,7.124 
	16.07,9.515 17.273,9.027 18.411,5.954 20.286,6.648 18.842,10.55 "/>
<polygon style="fill:#333333;" points="8.325,11.805 5.227,10.55 3.783,6.648 5.659,5.954 6.796,9.027 8,9.515 11.034,7.124 
	11.034,5.94 8.437,4.06 9.609,2.44 13.034,4.919 13.034,8.094 "/>
<polygon style="fill:#333333;" points="8.667,18.198 4.291,18.198 4.291,16.198 7.659,16.198 8.362,15.248 7.326,11.4 6.025,10.873 
	3.398,12.014 2.602,10.179 5.999,8.704 8.999,9.92 10.545,15.662 "/>
<polygon style="fill:#333333;" points="16.907,20.25 14.907,20.25 14.907,17.528 14.112,16.455 9.957,16.455 9.163,17.528 
	9.163,20.25 7.163,20.25 7.163,16.868 8.949,14.455 15.12,14.455 16.907,16.868 "/>
<polygon style="fill:#333333;" points="19.779,18.198 15.403,18.198 13.525,15.662 15.071,9.92 18.104,8.691 21.952,10.64 
	21.048,12.424 18.012,10.886 16.743,11.4 15.707,15.248 16.411,16.198 19.779,16.198 "/>
</svg>






