<?xml version="1.0" encoding="iso-8859-1"?>
<svg version="1.1" id="&#x56FE;&#x5C42;_1" xmlns="http://www.w3.org/2000/svg" xmlns:xlink="http://www.w3.org/1999/xlink" x="0px"
	 y="0px" viewBox="0 0 24 24" style="enable-background:new 0 0 24 24;" xml:space="preserve">
<rect x="6" y="2" style="fill:#333333;" width="2" height="20"/>
<path style="fill:#333333;" d="M7,11c-1.383,0-4-0.731-4-3.5v-5h2v5C5,8.958,6.795,9,7,9c0.33-0.003,2-0.093,2-1.5v-5h2v5
	C11,10.269,8.383,11,7,11z"/>
<rect x="16" y="10" style="fill:#333333;" width="2" height="12"/>
<path style="fill:#333333;" d="M17,11c-2.206,0-4-2.243-4-5s1.794-5,4-5s4,2.243,4,5S19.206,11,17,11z M17,3c-1.084,0-2,1.374-2,3
	s0.916,3,2,3s2-1.374,2-3S18.084,3,17,3z"/>
</svg>






