<?xml version="1.0" encoding="iso-8859-1"?>
<svg version="1.1" id="&#x56FE;&#x5C42;_1" xmlns="http://www.w3.org/2000/svg" xmlns:xlink="http://www.w3.org/1999/xlink" x="0px"
	 y="0px" viewBox="0 0 24 24" style="enable-background:new 0 0 24 24;" xml:space="preserve">
<path style="fill:#333333;" d="M18.5,7c-1.654,0-3-1.346-3-3s1.346-3,3-3s3,1.346,3,3S20.154,7,18.5,7z M18.5,3
	c-0.552,0-1,0.449-1,1s0.448,1,1,1s1-0.449,1-1S19.052,3,18.5,3z"/>
<path style="fill:#333333;" d="M5.5,7c-1.654,0-3-1.346-3-3s1.346-3,3-3s3,1.346,3,3S7.154,7,5.5,7z M5.5,3c-0.551,0-1,0.449-1,1
	s0.449,1,1,1s1-0.449,1-1S6.051,3,5.5,3z"/>
<path style="fill:#333333;" d="M12,23c-1.654,0-3-1.346-3-3s1.346-3,3-3s3,1.346,3,3S13.654,23,12,23z M12,19c-0.551,0-1,0.448-1,1
	s0.449,1,1,1c0.552,0,1-0.448,1-1S12.552,19,12,19z"/>
<path style="fill:#333333;" d="M13,18h-2v-2c0-1.258-1.389-2.326-2.86-3.457C6.434,11.23,4.5,9.742,4.5,7.5V6h2v1.5
	c0,1.258,1.389,2.326,2.86,3.458c0.929,0.714,1.925,1.481,2.64,2.393c0.715-0.912,1.711-1.679,2.641-2.393
	C16.111,9.826,17.5,8.758,17.5,7.5V6h2v1.5c0,2.242-1.934,3.73-3.641,5.043C14.389,13.674,13,14.742,13,16V18z"/>
</svg>






