<?xml version="1.0" encoding="iso-8859-1"?>
<svg version="1.1" id="&#x56FE;&#x5C42;_1" xmlns="http://www.w3.org/2000/svg" xmlns:xlink="http://www.w3.org/1999/xlink" x="0px"
	 y="0px" viewBox="0 0 24 24" style="enable-background:new 0 0 24 24;" xml:space="preserve">
<path style="fill:#333333;" d="M13.5,23h-4c-2.935,0-4-2.393-4-4V9.5c0-1.103,0.897-2,2-2h8c1.103,0,2,0.897,2,2V19
	C17.5,20.607,16.435,23,13.5,23z M7.5,9.5V19c0.007,0.464,0.173,2,2,2h4c1.826,0,1.992-1.536,2-2.008V9.5H7.5z"/>
<path style="fill:#333333;" d="M15,9.5H8V5h7V9.5z M10,7.5h3V7h-3V7.5z"/>
<path style="fill:#333333;" d="M15,6.25h-2V5c0-0.797,0.336-1.459,0.819-2H12c-0.966,0-2,0.603-2,1.5V6H8V4.5C8,2.338,10.076,1,12,1
	h5.5l0.276,1.961C16.906,3.213,15,4.076,15,5V6.25z"/>
</svg>






