<?xml version="1.0" encoding="iso-8859-1"?>
<svg version="1.1" id="&#x56FE;&#x5C42;_1" xmlns="http://www.w3.org/2000/svg" xmlns:xlink="http://www.w3.org/1999/xlink" x="0px"
	 y="0px" viewBox="0 0 24 24" style="enable-background:new 0 0 24 24;" xml:space="preserve">
<path style="fill:#333333;" d="M5,9C2.794,9,1,7.206,1,5s1.794-4,4-4s4,1.794,4,4S7.206,9,5,9z M5,3C3.897,3,3,3.897,3,5
	s0.897,2,2,2s2-0.897,2-2S6.103,3,5,3z"/>
<path style="fill:#333333;" d="M3.18,10.199L1.22,9.801c0.206-1.014,0.555-1.993,1.037-2.911l1.771,0.93
	C3.633,8.571,3.348,9.371,3.18,10.199z"/>
<path style="fill:#333333;" d="M7.82,4.027l-0.93-1.771C7.808,1.774,8.788,1.425,9.801,1.22l0.397,1.96
	C9.371,3.348,8.571,3.633,7.82,4.027z"/>
<path style="fill:#333333;" d="M19,9c-2.206,0-4-1.794-4-4s1.794-4,4-4s4,1.794,4,4S21.206,9,19,9z M19,3c-1.103,0-2,0.897-2,2
	s0.897,2,2,2s2-0.897,2-2S20.103,3,19,3z"/>
<path style="fill:#333333;" d="M16.18,4.027c-0.75-0.394-1.55-0.679-2.379-0.847l0.398-1.96c1.015,0.206,1.993,0.555,2.91,1.037
	L16.18,4.027z"/>
<path style="fill:#333333;" d="M20.819,10.198c-0.167-0.826-0.452-1.626-0.847-2.378l1.771-0.93c0.482,0.92,0.831,1.899,1.036,2.911
	L20.819,10.198z"/>
<path style="fill:#333333;" d="M19,23c-2.206,0-4-1.794-4-4s1.794-4,4-4s4,1.794,4,4S21.206,23,19,23z M19,17c-1.103,0-2,0.897-2,2
	s0.897,2,2,2s2-0.897,2-2S20.103,17,19,17z"/>
<path style="fill:#333333;" d="M21.744,17.109l-1.771-0.93c0.395-0.751,0.68-1.552,0.847-2.378l1.961,0.396
	C22.575,15.211,22.227,16.19,21.744,17.109z"/>
<path style="fill:#333333;" d="M14.198,22.78l-0.396-1.961c0.826-0.167,1.627-0.452,2.378-0.847l0.93,1.771
	C16.19,22.227,15.211,22.575,14.198,22.78z"/>
<path style="fill:#333333;" d="M5,23c-2.206,0-4-1.794-4-4s1.794-4,4-4s4,1.794,4,4S7.206,23,5,23z M5,17c-1.103,0-2,0.897-2,2
	s0.897,2,2,2s2-0.897,2-2S6.103,17,5,17z"/>
<path style="fill:#333333;" d="M9.802,22.78c-1.012-0.205-1.991-0.554-2.911-1.036l0.93-1.771c0.752,0.395,1.552,0.68,2.378,0.847
	L9.802,22.78z"/>
<path style="fill:#333333;" d="M2.256,17.109c-0.482-0.917-0.831-1.896-1.037-2.91l1.96-0.398c0.168,0.829,0.453,1.629,0.847,2.379
	L2.256,17.109z"/>
<polygon style="fill:#333333;" points="13,15 11,15 11,13 9,13 9,11 11,11 11,9 13,9 13,11 15,11 15,13 13,13 "/>
</svg>






