<?xml version="1.0" encoding="iso-8859-1"?>
<svg version="1.1" id="&#x56FE;&#x5C42;_1" xmlns="http://www.w3.org/2000/svg" xmlns:xlink="http://www.w3.org/1999/xlink" x="0px"
	 y="0px" viewBox="0 0 24 24" style="enable-background:new 0 0 24 24;" xml:space="preserve">
<path style="fill:#333333;" d="M12.872,23h-0.447c-2.953,0-5.682-1.475-7.299-3.944l-1.098-1.675
	c-1.054-1.609-0.742-3.761,0.727-5.003l0.996-0.842V3.625C5.75,2.178,6.928,1,8.375,1c0.479,0,0.928,0.129,1.314,0.354
	C10.17,0.829,10.86,0.5,11.625,0.5c0.766,0,1.455,0.329,1.936,0.854C13.947,1.129,14.396,1,14.875,1c1.264,0,2.322,0.898,2.57,2.089
	C17.662,3.031,17.89,3,18.125,3c1.447,0,2.625,1.178,2.625,2.625v9.529c0,1.573-0.472,3.095-1.365,4.399
	C17.91,21.712,15.475,23,12.872,23z M8.375,3C8.03,3,7.75,3.28,7.75,3.625v8.105c0,0.466-0.204,0.905-0.56,1.207l-1.144,0.968
	c-0.699,0.591-0.847,1.614-0.346,2.38l1.098,1.675c1.247,1.903,3.35,3.04,5.626,3.04h0.447c1.942,0,3.76-0.963,4.862-2.575
	c0.655-0.957,1.016-2.118,1.016-3.271V5.625C18.75,5.28,18.47,5,18.125,5S17.5,5.28,17.5,5.625h-2v-2C15.5,3.28,15.22,3,14.875,3
	S14.25,3.28,14.25,3.625h-2v-0.5c0-0.345-0.28-0.625-0.625-0.625S11,2.78,11,3.125v0.5H9C9,3.28,8.72,3,8.375,3z"/>
</svg>






