<?xml version="1.0" encoding="iso-8859-1"?>
<svg version="1.1" id="&#x56FE;&#x5C42;_1" xmlns="http://www.w3.org/2000/svg" xmlns:xlink="http://www.w3.org/1999/xlink" x="0px"
	 y="0px" viewBox="0 0 24 24" style="enable-background:new 0 0 24 24;" xml:space="preserve">
<path style="fill:#333333;" d="M14.707,10.707l-1.414-1.414l0.937-0.937c-0.559-1.038-1.257-2.98-0.08-4.882
	c2.126-3.435,7.782-2.501,8.021-2.459L22.001,2l0.984-0.17c0.041,0.24,0.975,5.895-2.459,8.021c-1.901,1.177-3.845,0.478-4.882-0.08
	L14.707,10.707z M17.146,8.269c0.653,0.245,1.522,0.38,2.328-0.119c1.234-0.764,1.583-2.461,1.644-3.853L17.146,8.269z
	 M19.708,2.877c-1.453,0.071-3.121,0.458-3.857,1.649c-0.498,0.804-0.364,1.674-0.118,2.328L19.708,2.877z"/>
<path style="fill:#333333;" d="M20.214,23.132c-1.906,0-4.706-0.411-6.064-2.605c-1.177-1.902-0.479-3.845,0.08-4.882l-0.937-0.938
	l1.414-1.414l0.938,0.937c1.036-0.558,2.981-1.255,4.882-0.08c3.434,2.126,2.5,7.781,2.459,8.021l-0.619,0.196l-0.196,0.619
	C22.084,23,21.291,23.132,20.214,23.132z M15.731,17.146c-0.246,0.653-0.38,1.522,0.119,2.328c0.764,1.234,2.461,1.583,3.853,1.644
	L15.731,17.146z M17.146,15.732l3.976,3.976c-0.07-1.453-0.458-3.121-1.648-3.857C18.671,15.354,17.801,15.487,17.146,15.732z"/>
<path style="fill:#333333;" d="M9.425,10.707L8.488,9.77c-1.037,0.559-2.979,1.258-4.882,0.08c-3.434-2.125-2.5-7.781-2.459-8.021
	l0.619-0.196l0.196-0.619c0.24-0.042,5.895-0.975,8.021,2.459c1.177,1.902,0.479,3.845-0.08,4.882l0.937,0.937L9.425,10.707z
	 M3.009,4.292C3.08,5.745,3.468,7.413,4.658,8.15c0.804,0.498,1.674,0.363,2.328,0.118L3.009,4.292z M4.429,2.883L8.4,6.854
	C8.646,6.202,8.78,5.332,8.282,4.526C7.518,3.292,5.821,2.944,4.429,2.883z"/>
<path style="fill:#333333;" d="M3.918,23.132c-1.078,0-1.87-0.132-1.957-0.146l-0.196-0.619L1.146,22.17
	c-0.042-0.239-0.975-5.895,2.459-8.021c1.902-1.177,3.845-0.478,4.882,0.08l0.937-0.937l1.414,1.414l-0.937,0.938
	c0.559,1.037,1.257,2.979,0.08,4.882C8.624,22.721,5.825,23.132,3.918,23.132z M8.4,17.146l-3.976,3.976
	c1.453-0.07,3.121-0.458,3.858-1.648C8.779,18.67,8.645,17.799,8.4,17.146z M5.867,15.512c-0.396,0-0.811,0.092-1.209,0.339
	c-1.234,0.764-1.583,2.461-1.644,3.853l3.972-3.972C6.657,15.607,6.271,15.512,5.867,15.512z"/>
</svg>






