<?xml version="1.0" encoding="iso-8859-1"?>
<svg version="1.1" id="&#x56FE;&#x5C42;_1" xmlns="http://www.w3.org/2000/svg" xmlns:xlink="http://www.w3.org/1999/xlink" x="0px"
	 y="0px" viewBox="0 0 24 24" style="enable-background:new 0 0 24 24;" xml:space="preserve">
<polygon style="fill:#333333;" points="10,21 3,21 3,14 5,14 5,19 10,19 "/>
<polygon style="fill:#333333;" points="21,21 14,21 14,19 19,19 19,14 21,14 "/>
<polygon style="fill:#333333;" points="21,10 19,10 19,5 14,5 14,3 21,3 "/>
<polygon style="fill:#333333;" points="5,10 3,10 3,3 10,3 10,5 5,5 "/>
<path style="fill:#333333;" d="M23,15h-6V9h6V15z M19,13h2v-2h-2V13z"/>
<path style="fill:#333333;" d="M7,15H1V9h6V15z M3,13h2v-2H3V13z"/>
<path style="fill:#333333;" d="M15,23H9v-6h6V23z M11,21h2v-2h-2V21z"/>
<path style="fill:#333333;" d="M15,7H9V1h6V7z M11,5h2V3h-2V5z"/>
<rect x="11" y="9" style="fill:#333333;" width="2" height="6"/>
<rect x="9" y="11" style="fill:#333333;" width="6" height="2"/>
<rect x="16" y="2.757" transform="matrix(0.7071 -0.7071 0.7071 0.7071 0.0294 14.0711)" style="fill:#333333;" width="2" height="8.485"/>
<rect x="2.757" y="6" transform="matrix(0.7071 -0.7071 0.7071 0.7071 -2.8995 7)" style="fill:#333333;" width="8.485" height="2"/>
<rect x="6" y="12.757" transform="matrix(0.7071 -0.7071 0.7071 0.7071 -9.9706 9.9289)" style="fill:#333333;" width="2" height="8.485"/>
<rect x="13.18" y="16" transform="matrix(0.6757 -0.7372 0.7372 0.6757 -6.9378 18.23)" style="fill:#333333;" width="8.139" height="2"/>
</svg>






