<?xml version="1.0" encoding="iso-8859-1"?>
<svg version="1.1" id="&#x56FE;&#x5C42;_1" xmlns="http://www.w3.org/2000/svg" xmlns:xlink="http://www.w3.org/1999/xlink" x="0px"
	 y="0px" viewBox="0 0 24 24" style="enable-background:new 0 0 24 24;" xml:space="preserve">
<path style="fill:#333333;" d="M20,22H4c-1.103,0-2-0.897-2-2V4c0-1.103,0.897-2,2-2h16c1.103,0,2,0.897,2,2v16
	C22,21.103,21.103,22,20,22z M4,4v16h16V4H4z"/>
<rect x="2.144" y="4.25" transform="matrix(0.7474 -0.6644 0.6644 0.7474 -2.0909 5.0008)" style="fill:#333333;" width="6.773" height="2"/>
<rect x="1.273" y="6.5" transform="matrix(0.7432 -0.669 0.669 0.7432 -2.9635 7.2781)" style="fill:#333333;" width="13.454" height="2"/>
<rect x="0.344" y="8.75" transform="matrix(0.7316 -0.6818 0.6818 0.7316 -3.8958 9.6052)" style="fill:#333333;" width="19.812" height="2"/>
<rect x="1.827" y="17" transform="matrix(0.7346 -0.6785 0.6785 0.7346 -10.5538 9.017)" style="fill:#333333;" width="8.846" height="1.999"/>
<rect x="13.561" y="6.713" transform="matrix(0.7346 -0.6785 0.6785 0.7346 -0.5728 13.9618)" style="fill:#333333;" width="8" height="2.001"/>
<rect x="8.5" y="10.5" style="fill:#333333;" width="2" height="10.5"/>
<rect x="9.5" y="9.5" style="fill:#333333;" width="11.5" height="2"/>
</svg>






