<?xml version="1.0" encoding="iso-8859-1"?>
<svg version="1.1" id="&#x56FE;&#x5C42;_1" xmlns="http://www.w3.org/2000/svg" xmlns:xlink="http://www.w3.org/1999/xlink" x="0px"
	 y="0px" viewBox="0 0 24 24" style="enable-background:new 0 0 24 24;" xml:space="preserve">
<path style="fill:#333333;" d="M20,22H4c-1.103,0-2-0.897-2-2V4c0-1.103,0.897-2,2-2h16c1.103,0,2,0.897,2,2v16
	C22,21.103,21.103,22,20,22z M4,4v16h16V4H4z"/>
<rect x="3" y="8.529" style="fill:#333333;" width="18" height="2"/>
<rect x="2.144" y="4.25" transform="matrix(0.7474 -0.6644 0.6644 0.7474 -2.0909 5.0008)" style="fill:#333333;" width="6.773" height="2"/>
<rect x="15.138" y="6.251" transform="matrix(0.7435 -0.6688 0.6688 0.7435 -0.1039 14.2327)" style="fill:#333333;" width="6.725" height="2.001"/>
<rect x="4.761" y="5.156" transform="matrix(0.7474 -0.6644 0.6644 0.7474 -1.6872 7.8745)" style="fill:#333333;" width="9.5" height="2"/>
<rect x="9.761" y="5.156" transform="matrix(0.7474 -0.6644 0.6644 0.7474 -0.4242 11.1965)" style="fill:#333333;" width="9.5" height="2"/>
</svg>






