<?xml version="1.0" encoding="iso-8859-1"?>
<svg version="1.1" id="&#x56FE;&#x5C42;_1" xmlns="http://www.w3.org/2000/svg" xmlns:xlink="http://www.w3.org/1999/xlink" x="0px"
	 y="0px" viewBox="0 0 24 24" style="enable-background:new 0 0 24 24;" xml:space="preserve">
<path style="fill:#333333;" d="M20,22H4c-1.103,0-2-0.897-2-2V4c0-1.103,0.897-2,2-2h16c1.103,0,2,0.897,2,2v16
	C22,21.103,21.103,22,20,22z M4,4v16h16V4H4z"/>
<rect x="2.144" y="4.25" transform="matrix(0.7474 -0.6644 0.6644 0.7474 -2.0909 5.0008)" style="fill:#333333;" width="6.773" height="2"/>
<rect x="1.827" y="8" transform="matrix(0.7347 -0.6783 0.6783 0.7347 -4.4472 6.6269)" style="fill:#333333;" width="8.846" height="2"/>
<rect x="1.827" y="12.5" transform="matrix(0.7346 -0.6785 0.6785 0.7346 -7.5007 7.8228)" style="fill:#333333;" width="8.846" height="2"/>
<rect x="1.827" y="17" transform="matrix(0.7346 -0.6785 0.6785 0.7346 -10.5538 9.017)" style="fill:#333333;" width="8.846" height="1.999"/>
<rect x="8.5" y="3" style="fill:#333333;" width="2" height="18"/>
</svg>






