<?xml version="1.0" encoding="iso-8859-1"?>
<svg version="1.1" id="&#x56FE;&#x5C42;_1" xmlns="http://www.w3.org/2000/svg" xmlns:xlink="http://www.w3.org/1999/xlink" x="0px"
	 y="0px" viewBox="0 0 24 24" style="enable-background:new 0 0 24 24;" xml:space="preserve">
<path style="fill:#333333;" d="M11.5,11h-2V6H8v4.5H6V6c0-1.103,0.897-2,2-2h1.5c1.103,0,2,0.897,2,2V11z"/>
<path style="fill:#333333;" d="M15,11h-2V7c0-1.103,0.897-2,2-2h1.5c1.103,0,2,0.897,2,2v3.5h-2V7H15V11z"/>
<path style="fill:#333333;" d="M15,11h-2V3h-1.5v8h-2V3c0-1.103,0.897-2,2-2H13c1.103,0,2,0.897,2,2V11z"/>
<path style="fill:#333333;" d="M18.923,23H5.078L2.517,9.182L4.08,8.185C4.112,8.208,7.405,10.5,12,10.5
	c4.626,0,7.887-2.291,7.919-2.314l1.564,0.996L18.923,23z M6.741,21h10.518l1.872-10.098C17.524,11.647,15.025,12.5,12,12.5
	s-5.524-0.853-7.13-1.598L6.741,21z"/>
<path style="fill:#333333;" d="M12,19c-2.318,0-4-1.052-4-2.5S9.682,14,12,14c2.317,0,4,1.052,4,2.5S14.317,19,12,19z M10.059,16.5
	C10.287,16.694,10.963,17,12,17s1.713-0.306,1.941-0.5C13.713,16.306,13.037,16,12,16S10.287,16.306,10.059,16.5z"/>
</svg>






