<?xml version="1.0" encoding="iso-8859-1"?>
<svg version="1.1" id="&#x56FE;&#x5C42;_1" xmlns="http://www.w3.org/2000/svg" xmlns:xlink="http://www.w3.org/1999/xlink" x="0px"
	 y="0px" viewBox="0 0 24 24" style="enable-background:new 0 0 24 24;" xml:space="preserve">
<path style="fill:#333333;" d="M19.5,13.456L12,10.571l-7.5,2.885V5h15V13.456z M12,8.429l5.5,2.115V7h-11v3.544L12,8.429z"/>
<path style="fill:#333333;" d="M15.5,7h-7V3.5C8.5,2.122,9.622,1,11,1h2c1.379,0,2.5,1.122,2.5,2.5V7z M10.5,5h3V3.5
	C13.5,3.224,13.275,3,13,3h-2c-0.276,0-0.5,0.224-0.5,0.5V5z"/>
<polygon style="fill:#333333;" points="18.948,22.316 17.052,21.684 19.75,13.587 12,10.573 4.25,13.587 6.949,21.684 5.051,22.316 
	1.75,12.413 12,8.427 22.25,12.413 "/>
<path style="fill:#333333;" d="M18,23c-1.39,0-2.349-0.273-3.274-0.538C13.895,22.225,13.11,22,12,22
	c-1.11,0-1.895,0.225-2.725,0.462C8.348,22.727,7.39,23,6,23c-1.853,0-4.292-1.037-4.394-1.081l0.788-1.838
	C2.992,20.337,4.805,21,6,21c1.11,0,1.895-0.225,2.725-0.462C9.652,20.273,10.61,20,12,20c1.39,0,2.349,0.273,3.274,0.538
	C16.105,20.775,16.89,21,18,21c1.194,0,3.008-0.664,3.606-0.919l0.788,1.838C22.291,21.963,19.852,23,18,23z"/>
<rect x="11" y="9.5" style="fill:#333333;" width="2" height="11.5"/>
</svg>






