<?xml version="1.0" encoding="iso-8859-1"?>
<svg version="1.1" id="&#x56FE;&#x5C42;_1" xmlns="http://www.w3.org/2000/svg" xmlns:xlink="http://www.w3.org/1999/xlink" x="0px"
	 y="0px" viewBox="0 0 24 24" style="enable-background:new 0 0 24 24;" xml:space="preserve">
<path style="fill:#333333;" d="M11.75,21C5.823,21,1,17.541,1,13.29c0-0.924,0.218-1.817,0.65-2.665
	c-0.068-0.1-0.132-0.203-0.19-0.31C0.329,8.25,1.393,5.364,3.832,3.881C5.18,3.062,6.72,2.798,8.06,3.156
	c1.04,0.278,1.881,0.921,2.368,1.811c0.114,0.208,0.207,0.424,0.279,0.649c0.855-0.06,1.725-0.045,2.574,0.041
	c0.073-0.239,0.171-0.47,0.292-0.691c0.487-0.889,1.329-1.532,2.369-1.811c1.34-0.359,2.881-0.094,4.227,0.725
	c2.439,1.483,3.504,4.37,2.372,6.435c-0.142,0.258-0.311,0.494-0.506,0.707c0.31,0.73,0.466,1.49,0.466,2.268
	C22.5,17.541,17.678,21,11.75,21z M6.849,5C6.205,5,5.504,5.205,4.871,5.59C3.359,6.509,2.6,8.233,3.214,9.354
	C3.3,9.511,3.411,9.652,3.544,9.772L4.18,10.35l-0.474,0.715C3.238,11.772,3,12.521,3,13.29C3,16.438,6.925,19,11.75,19
	c4.825,0,8.75-2.562,8.75-5.71c0-0.689-0.192-1.366-0.571-2.01l-0.483-0.823l0.8-0.521c0.229-0.15,0.411-0.346,0.541-0.582
	c0.614-1.12-0.145-2.844-1.657-3.764c-0.87-0.529-1.869-0.716-2.671-0.502c-0.358,0.096-0.847,0.32-1.132,0.84
	c-0.14,0.253-0.211,0.542-0.214,0.859l-0.01,1.176l-1.159-0.198c-1.272-0.218-2.641-0.242-3.925-0.07L8.923,7.841L8.887,6.736
	c-0.01-0.297-0.082-0.569-0.213-0.808v0c-0.285-0.52-0.773-0.744-1.132-0.84C7.323,5.029,7.09,5,6.849,5z"/>
<circle style="fill:#333333;" cx="6" cy="8.5" r="1"/>
<circle style="fill:#333333;" cx="10.078" cy="14.288" r="1"/>
<circle style="fill:#333333;" cx="14.078" cy="14.288" r="1"/>
<circle style="fill:#333333;" cx="18" cy="8.5" r="1"/>
</svg>






