<?xml version="1.0" encoding="iso-8859-1"?>
<svg version="1.1" id="&#x56FE;&#x5C42;_1" xmlns="http://www.w3.org/2000/svg" xmlns:xlink="http://www.w3.org/1999/xlink" x="0px"
	 y="0px" viewBox="0 0 24 24" style="enable-background:new 0 0 24 24;" xml:space="preserve">
<path style="fill:#333333;" d="M13.599,18.995l-0.197-1.99c2.904-0.289,3.477-1.758,3.588-2.376
	c0.147-0.815,0.638-1.503,1.312-1.839c1.552-0.773,1.724-1.883,1.699-2.763c0.026-3.006-3.014-4.27-4.08-4.479
	c-0.643-0.126-1.212-0.502-1.562-1.032C13.476,3.18,12.165,3,11,3C7.392,3,6.674,6.061,6.54,6.999
	c-0.097,0.678-0.487,1.279-1.07,1.65C4.106,9.519,4,11.028,4,11.471c0,1.552,0.582,2.519,1.831,3.042
	C6.994,15.001,8.427,14.991,9.417,15L9.5,16l-0.083,1c-1.062-0.006-2.825,0.001-4.36-0.643C3.057,15.519,2,13.829,2,11.471
	c0-0.7,0.173-3.092,2.396-4.508c0.088-0.056,0.151-0.151,0.165-0.247C4.937,4.08,6.849,1,11,1c0.849,0,3.434,0,5.026,2.414
	c0.056,0.084,0.159,0.148,0.277,0.171c2.308,0.451,5.73,2.534,5.696,6.423c0.07,2.581-1.487,3.914-2.807,4.571
	c-0.105,0.052-0.202,0.219-0.235,0.404C18.808,15.814,17.979,18.559,13.599,18.995z M9.5,17v-1V17z"/>
<path style="fill:#333333;" d="M14.533,23H6.311l0.812-1.481c2.059-3.752,2.021-5.956,1.626-7.145
	c-0.339-1.021-0.977-1.379-1.164-1.464l0.273-1.9l7-1l0.953,1.574c-2.989,4.153-1.613,8.246-0.468,9.83L14.533,23z M9.624,21h3.226
	c-0.892-2.105-1.396-5.328,0.225-8.715L10.167,12.7c0.194,0.319,0.356,0.669,0.48,1.043C11.106,15.125,11.25,17.458,9.624,21z"/>
</svg>






