<?xml version="1.0" encoding="iso-8859-1"?>
<svg version="1.1" id="&#x56FE;&#x5C42;_1" xmlns="http://www.w3.org/2000/svg" xmlns:xlink="http://www.w3.org/1999/xlink" x="0px"
	 y="0px" viewBox="0 0 24 24" style="enable-background:new 0 0 24 24;" xml:space="preserve">
<path style="fill:#333333;" d="M8,21H3c-1.103,0-2-0.897-2-2V5c0-1.103,0.897-2,2-2h18c1.103,0,2,0.897,2,2v3h-2V5H3v14h5V21z"/>
<path style="fill:#333333;" d="M21,21h-8c-1.103,0-2-0.897-2-2v-6c0-1.103,0.897-2,2-2h8c1.103,0,2,0.897,2,2v6
	C23,20.103,22.103,21,21,21z M13,13v6h8v-6H13z"/>
</svg>






