<?xml version="1.0" encoding="utf-8"?>
<svg version="1.1" id="&#x56FE;&#x5C42;_1" xmlns="http://www.w3.org/2000/svg" xmlns:xlink="http://www.w3.org/1999/xlink" x="0px" y="0px"
	 viewBox="0 0 24 24" style="enable-background:new 0 0 24 24;" xml:space="preserve">
<style type="text/css">
	.st0{fill:#333333;}
</style>
<path class="st0" d="M17,19.5H4c-1.4,0-2.5-1.1-2.5-2.5V4c0-1.4,1.1-2.5,2.5-2.5h13c1.4,0,2.5,1.1,2.5,2.5v13
	C19.5,18.4,18.4,19.5,17,19.5z M4,3.5C3.7,3.5,3.5,3.7,3.5,4v13c0,0.3,0.2,0.5,0.5,0.5h13c0.3,0,0.5-0.2,0.5-0.5V4
	c0-0.3-0.2-0.5-0.5-0.5H4z"/>
<path class="st0" d="M21,23H6.5v-2H21V6.5h2V21C23,22.1,22.1,23,21,23z"/>
<polygon class="st0" points="9.5,14.4 5.8,11 7.2,9.5 9.5,11.6 13.8,7.2 15.2,8.6 "/>
</svg>





