<?xml version="1.0" encoding="iso-8859-1"?>
<svg version="1.1" id="&#x56FE;&#x5C42;_1" xmlns="http://www.w3.org/2000/svg" xmlns:xlink="http://www.w3.org/1999/xlink" x="0px"
	 y="0px" viewBox="0 0 24 24" style="enable-background:new 0 0 24 24;" xml:space="preserve">
<rect x="4.5" y="1.957" transform="matrix(0.7035 -0.7107 0.7107 0.7035 -2.2602 5.5319)" style="fill:#333333;" width="2" height="7.036"/>
<rect x="1.982" y="17.475" transform="matrix(0.7108 -0.7034 0.7034 0.7108 -11.4052 9.2127)" style="fill:#333333;" width="7.036" height="2.001"/>
<rect x="17.525" y="14.975" transform="matrix(0.7072 -0.707 0.707 0.7072 -7.6379 18.5081)" style="fill:#333333;" width="2" height="7"/>
<rect x="14.975" y="4.475" transform="matrix(0.7071 -0.7071 0.7071 0.7071 1.5399 14.6674)" style="fill:#333333;" width="7" height="2"/>
<polygon style="fill:#333333;" points="22,7.5 20,7.5 20,4 16.5,4 16.5,2 22,2 "/>
<polygon style="fill:#333333;" points="22,22 16.5,22 16.5,20 20,20 20,16.5 22,16.5 "/>
<polygon style="fill:#333333;" points="7.5,22 2,22 2,16.5 4,16.5 4,20 7.5,20 "/>
<polygon style="fill:#333333;" points="4,7.5 2,7.5 2,2 7.5,2 7.5,4 4,4 "/>
</svg>






