<?xml version="1.0" encoding="iso-8859-1"?>
<svg version="1.1" id="&#x56FE;&#x5C42;_1" xmlns="http://www.w3.org/2000/svg" xmlns:xlink="http://www.w3.org/1999/xlink" x="0px"
	 y="0px" viewBox="0 0 24 24" style="enable-background:new 0 0 24 24;" xml:space="preserve">
<path style="fill:#333333;" d="M7,8.5C3.58,8.5,1,6.995,1,5s2.58-3.5,6-3.5s6,1.505,6,3.5S10.42,8.5,7,8.5z M7,3.5
	C4.519,3.5,3,4.471,3,5s1.519,1.5,4,1.5s4-0.971,4-1.5S9.481,3.5,7,3.5z"/>
<path style="fill:#333333;" d="M7,12c-3.42,0-6-1.505-6-3.5V5h2v3.5C3,9.029,4.519,10,7,10s4-0.971,4-1.5V5h2v3.5
	C13,10.495,10.42,12,7,12z"/>
<path style="fill:#333333;" d="M7,15.5c-3.42,0-6-1.505-6-3.5V8.5h2V12c0,0.529,1.519,1.5,4,1.5s4-0.971,4-1.5V8.5h2V12
	C13,13.995,10.42,15.5,7,15.5z"/>
<path style="fill:#333333;" d="M7,19c-3.42,0-6-1.505-6-3.5V12h2v3.5C3,16.029,4.519,17,7,17s4-0.971,4-1.5V12h2v3.5
	C13,17.495,10.42,19,7,19z"/>
<path style="fill:#333333;" d="M7,22.5c-3.42,0-6-1.505-6-3.5v-3.5h2V19c0,0.529,1.519,1.5,4,1.5s4-0.971,4-1.5v-3.5h2V19
	C13,20.995,10.42,22.5,7,22.5z"/>
<path style="fill:#333333;" d="M17,15.5c-3.421,0-6-1.505-6-3.5s2.579-3.5,6-3.5s6,1.505,6,3.5S20.421,15.5,17,15.5z M17,10.5
	c-2.481,0-4,0.971-4,1.5c0,0.529,1.519,1.5,4,1.5s4-0.971,4-1.5C21,11.471,19.481,10.5,17,10.5z"/>
<path style="fill:#333333;" d="M17,19c-3.421,0-6-1.505-6-3.5V12h2v3.5c0,0.529,1.519,1.5,4,1.5s4-0.971,4-1.5V12h2v3.5
	C23,17.495,20.421,19,17,19z"/>
<path style="fill:#333333;" d="M17,22.5c-3.421,0-6-1.505-6-3.5v-3.5h2V19c0,0.529,1.519,1.5,4,1.5s4-0.971,4-1.5v-3.5h2V19
	C23,20.995,20.421,22.5,17,22.5z"/>
</svg>






