<?xml version="1.0" encoding="iso-8859-1"?>
<svg version="1.1" id="&#x56FE;&#x5C42;_1" xmlns="http://www.w3.org/2000/svg" xmlns:xlink="http://www.w3.org/1999/xlink" x="0px"
	 y="0px" viewBox="0 0 24 24" style="enable-background:new 0 0 24 24;" xml:space="preserve">
<path style="fill:#333333;" d="M15,23H9V3.586l3-3l3,3V23z M11,21h2V4.414l-1-1l-1,1V21z"/>
<path style="fill:#333333;" d="M11,23H5V9.586l4.293-4.293L11,6V23z M7,21h2V8.414l-2,2V21z"/>
<path style="fill:#333333;" d="M7,23H1v-5.954l4.341-3.799L7,14V23z M3,21h2v-4.796l-2,1.75V21z"/>
<path style="fill:#333333;" d="M19,23h-6V6l1.707-0.707L19,9.586V23z M15,21h2V10.414l-2-2V21z"/>
<path style="fill:#333333;" d="M23,23h-6v-9l1.631-0.776L23,16.774V23z M19,21h2v-3.274l-2-1.625V21z"/>
</svg>






