<?xml version="1.0" encoding="iso-8859-1"?>
<svg version="1.1" id="&#x56FE;&#x5C42;_1" xmlns="http://www.w3.org/2000/svg" xmlns:xlink="http://www.w3.org/1999/xlink" x="0px"
	 y="0px" viewBox="0 0 24 24" style="enable-background:new 0 0 24 24;" xml:space="preserve">
<rect x="2" y="21" style="fill:#333333;" width="20" height="2"/>
<path style="fill:#333333;" d="M12.25,6C9.92,6,4.5,5.756,4.5,3.5S9.92,1,12.25,1S20,1.244,20,3.5S14.58,6,12.25,6z M7.334,3.5
	C8.316,3.755,9.986,4,12.25,4c2.264,0,3.934-0.245,4.915-0.5C16.184,3.245,14.514,3,12.25,3C9.986,3,8.316,3.245,7.334,3.5z"/>
<path style="fill:#333333;" d="M10.986,22.167l-1.972-0.334c0.01-0.06,1.002-6.009,0.495-9.697C9.114,9.261,7.115,4.967,7.094,4.924
	l1.812-0.848c0.087,0.187,2.149,4.615,2.585,7.788C12.039,15.857,11.029,21.911,10.986,22.167z"/>
<path style="fill:#333333;" d="M13.011,22.149c-0.038-0.256-0.936-6.301-0.388-10.286c0.436-3.172,2.497-7.601,2.585-7.788
	l1.811,0.848c-0.02,0.043-2.021,4.342-2.415,7.212c-0.508,3.698,0.376,9.655,0.386,9.716L13.011,22.149z"/>
</svg>






