<?xml version="1.0" encoding="iso-8859-1"?>
<svg version="1.1" id="&#x56FE;&#x5C42;_1" xmlns="http://www.w3.org/2000/svg" xmlns:xlink="http://www.w3.org/1999/xlink" x="0px"
	 y="0px" viewBox="0 0 24 24" style="enable-background:new 0 0 24 24;" xml:space="preserve">
<path style="fill:#333333;" d="M12,10.914l-3-3V1h6v6.914L12,10.914z M11,7.086l1,1l1-1V3h-2V7.086z"/>
<path style="fill:#333333;" d="M15,23H9v-6.914l3-3l3,3V23z M11,21h2v-4.086l-1-1l-1,1V21z"/>
<path style="fill:#333333;" d="M23,15h-6.914l-3-3l3-3H23V15z M16.914,13H21v-2h-4.086l-1,1L16.914,13z"/>
<path style="fill:#333333;" d="M7.914,15H1V9h6.914l3,3L7.914,15z M3,13h4.086l1-1l-1-1H3V13z"/>
</svg>






