<?xml version="1.0" encoding="iso-8859-1"?>
<svg version="1.1" id="&#x56FE;&#x5C42;_1" xmlns="http://www.w3.org/2000/svg" xmlns:xlink="http://www.w3.org/1999/xlink" x="0px"
	 y="0px" viewBox="0 0 24 24" style="enable-background:new 0 0 24 24;" xml:space="preserve">
<path style="fill:#333333;" d="M19,22H5c-2.206,0-4-1.794-4-4s1.794-4,4-4h14c2.206,0,4,1.794,4,4S21.206,22,19,22z M5,16
	c-1.103,0-2,0.897-2,2s0.897,2,2,2h14c1.103,0,2-0.897,2-2s-0.897-2-2-2H5z"/>
<path style="fill:#333333;" d="M18,12c-2.757,0-5-2.243-5-5s2.243-5,5-5s5,2.243,5,5S20.757,12,18,12z M18,4c-1.654,0-3,1.346-3,3
	s1.346,3,3,3s3-1.346,3-3S19.654,4,18,4z"/>
<path style="fill:#333333;" d="M6.5,12.914L0.586,7L6.5,1.086L12.414,7L6.5,12.914z M3.414,7L6.5,10.086L9.586,7L6.5,3.914L3.414,7z
	"/>
</svg>






