<?xml version="1.0" encoding="iso-8859-1"?>
<svg version="1.1" id="&#x56FE;&#x5C42;_1" xmlns="http://www.w3.org/2000/svg" xmlns:xlink="http://www.w3.org/1999/xlink" x="0px"
	 y="0px" viewBox="0 0 24 24" style="enable-background:new 0 0 24 24;" xml:space="preserve">
<path style="fill:#333333;" d="M12.25,23.5C6.047,23.5,1,18.453,1,12.25S6.047,1,12.25,1c2.867,0,5.598,1.079,7.689,3.038
	l0.756,0.708l-7.284,7.26l7.455,7.546l-0.711,0.702C18.036,22.348,15.229,23.5,12.25,23.5z M12.25,3C7.149,3,3,7.149,3,12.25
	s4.149,9.25,9.25,9.25c2.112,0,4.121-0.705,5.751-2.004l-7.412-7.501l7.188-7.164C16.186,3.644,14.259,3,12.25,3z"/>
<path style="fill:#333333;" d="M20,15c-1.654,0-3-1.346-3-3s1.346-3,3-3s3,1.346,3,3S21.654,15,20,15z M20,11c-0.552,0-1,0.449-1,1
	c0,0.552,0.448,1,1,1s1-0.448,1-1C21,11.449,20.552,11,20,11z"/>
<rect x="7.5" y="6.5" style="fill:#333333;" width="2" height="4"/>
<rect x="6.5" y="7.5" style="fill:#333333;" width="4" height="2"/>
</svg>






