<?xml version="1.0" encoding="iso-8859-1"?>
<svg version="1.1" id="&#x56FE;&#x5C42;_1" xmlns="http://www.w3.org/2000/svg" xmlns:xlink="http://www.w3.org/1999/xlink" x="0px"
	 y="0px" viewBox="0 0 24 24" style="enable-background:new 0 0 24 24;" xml:space="preserve">
<path style="fill:#333333;" d="M23,23H13V13h10V23z M15,21h6v-6h-6V21z"/>
<path style="fill:#333333;" d="M12.71,11H0.29l5.338-9.49h1.743L12.71,11z M3.71,9h5.58L6.5,4.04L3.71,9z"/>
<path style="fill:#333333;" d="M18,11c-2.757,0-5-2.243-5-5s2.243-5,5-5s5,2.243,5,5S20.757,11,18,11z M18,3c-1.654,0-3,1.346-3,3
	s1.346,3,3,3s3-1.346,3-3S19.654,3,18,3z"/>
<rect x="5" y="12.343" transform="matrix(0.7071 -0.7071 0.7071 0.7071 -10.9706 9.5147)" style="fill:#333333;" width="2" height="11.314"/>
<rect x="0.343" y="17" transform="matrix(0.7071 -0.7071 0.7071 0.7071 -10.9706 9.5147)" style="fill:#333333;" width="11.314" height="2"/>
</svg>






