<?xml version="1.0" encoding="iso-8859-1"?>
<svg version="1.1" id="&#x56FE;&#x5C42;_1" xmlns="http://www.w3.org/2000/svg" xmlns:xlink="http://www.w3.org/1999/xlink" x="0px"
	 y="0px" viewBox="0 0 24 24" style="enable-background:new 0 0 24 24;" xml:space="preserve">
<path style="fill:#333333;" d="M6,21c-2.481,0-4.5-2.019-4.5-4.5v-7h2v7C3.5,17.879,4.622,19,6,19s2.5-1.121,2.5-2.5V15h2v1.5
	C10.5,18.981,8.481,21,6,21z"/>
<path style="fill:#333333;" d="M18,21c-2.481,0-4.5-2.019-4.5-4.5V15h2v1.5c0,1.379,1.121,2.5,2.5,2.5s2.5-1.121,2.5-2.5v-7h2v7
	C22.5,18.981,20.481,21,18,21z"/>
<path style="fill:#333333;" d="M16,16H8c-3.584,0-6.5-2.916-6.5-6.5S4.416,3,8,3h8c3.584,0,6.5,2.916,6.5,6.5S19.584,16,16,16z M8,5
	C5.519,5,3.5,7.019,3.5,9.5S5.519,14,8,14h8c2.481,0,4.5-2.019,4.5-4.5S18.481,5,16,5H8z"/>
<rect x="6.5" y="8.5" style="fill:#333333;" width="4" height="2"/>
<rect x="7.5" y="7.5" style="fill:#333333;" width="2" height="4"/>
<path style="fill:#333333;" d="M17,7.5L17,7.5c0.552,0,1,0.448,1,1l0,0c0,0.552-0.448,1-1,1l0,0c-0.552,0-1-0.448-1-1l0,0
	C16,7.948,16.448,7.5,17,7.5z"/>
<path style="fill:#333333;" d="M15,10L15,10c0.552,0,1,0.448,1,1l0,0c0,0.552-0.448,1-1,1l0,0c-0.552,0-1-0.448-1-1l0,0
	C14,10.448,14.448,10,15,10z"/>
</svg>






