<?xml version="1.0" encoding="iso-8859-1"?>
<svg version="1.1" id="&#x56FE;&#x5C42;_1" xmlns="http://www.w3.org/2000/svg" xmlns:xlink="http://www.w3.org/1999/xlink" x="0px"
	 y="0px" viewBox="0 0 24 24" style="enable-background:new 0 0 24 24;" xml:space="preserve">
<path style="fill:#333333;" d="M16,22H8c-3.86,0-7-3.141-7-7c0-3.86,3.14-7,7-7h8c3.859,0,7,3.14,7,7C23,18.859,19.859,22,16,22z
	 M8,10c-2.757,0-5,2.243-5,5s2.243,5,5,5h8c2.757,0,5-2.243,5-5s-2.243-5-5-5H8z"/>
<rect x="7" y="13" style="fill:#333333;" width="2" height="4"/>
<rect x="6" y="14" style="fill:#333333;" width="4" height="2"/>
<polygon style="fill:#333333;" points="13,8 11,8 11,3.857 15,3.857 15,2 17,2 17,5.857 13,5.857 "/>
<path style="fill:#333333;" d="M16,18c-1.654,0-3-1.346-3-3s1.346-3,3-3s3,1.346,3,3S17.654,18,16,18z M16,14c-0.552,0-1,0.448-1,1
	s0.448,1,1,1s1-0.448,1-1S16.552,14,16,14z"/>
</svg>






