<?xml version="1.0" encoding="iso-8859-1"?>
<svg version="1.1" id="&#x56FE;&#x5C42;_1" xmlns="http://www.w3.org/2000/svg" xmlns:xlink="http://www.w3.org/1999/xlink" x="0px"
	 y="0px" viewBox="0 0 24 24" style="enable-background:new 0 0 24 24;" xml:space="preserve">
<path style="fill:#333333;" d="M15,21.5H9c-4.411,0-8-3.589-8-8s3.589-8,8-8h6c4.411,0,8,3.589,8,8S19.411,21.5,15,21.5z M9,7.5
	c-3.309,0-6,2.691-6,6s2.691,6,6,6h6c3.309,0,6-2.691,6-6s-2.691-6-6-6H9z"/>
<circle style="fill:#333333;" cx="15.5" cy="11" r="1"/>
<circle style="fill:#333333;" cx="17.5" cy="13.5" r="1"/>
<rect x="6" y="12.5" style="fill:#333333;" width="5" height="2"/>
<rect x="11" y="3.5" style="fill:#333333;" width="2" height="3"/>
<rect x="7.5" y="11" style="fill:#333333;" width="2" height="5"/>
</svg>






