<?xml version="1.0" encoding="iso-8859-1"?>
<svg version="1.1" id="&#x56FE;&#x5C42;_1" xmlns="http://www.w3.org/2000/svg" xmlns:xlink="http://www.w3.org/1999/xlink" x="0px"
	 y="0px" viewBox="0 0 24 24" style="enable-background:new 0 0 24 24;" xml:space="preserve">
<path style="fill:#333333;" d="M11.25,22c-1.532,0-2.984-0.653-4.089-1.839C6.105,19.027,5.5,17.511,5.5,16
	c0-2.267,1.088-4.219,2.985-5.357C9.809,9.848,10.5,9.37,10.5,8h2c0,2.566-1.655,3.56-2.985,4.357C8.762,12.809,7.5,13.883,7.5,16
	c0,1.011,0.41,2.03,1.125,2.798C9.346,19.573,10.279,20,11.25,20c0.995,0,1.939-0.456,2.592-1.252
	c0.606-0.74,0.854-1.67,0.678-2.552c-0.153-0.768-0.394-1.05-0.726-1.44C13.061,13.893,12.5,13.031,12.5,10.5h2
	c0,1.997,0.361,2.423,0.818,2.961c0.404,0.476,0.907,1.067,1.162,2.343c0.294,1.472-0.104,3.007-1.092,4.212
	C14.354,21.276,12.846,22,11.25,22z"/>
<path style="fill:#333333;" d="M12.04,21.999l-0.08-1.998c2.587-0.104,4.527-0.817,5.611-2.065c0.985-1.134,0.981-2.361,0.934-2.836
	c-0.186-1.855-1.828-2.562-2.069-2.604L16.5,10.5c0.979,0,3.69,1.353,3.995,4.4c0.155,1.55-0.36,3.135-1.414,4.348
	C18.066,20.415,16.021,21.84,12.04,21.999z"/>
<path style="fill:#333333;" d="M8,21c-4.809,0-7-3.11-7-6c0-3.419,4.38-6.308,5.553-6.895C7.155,7.805,7.5,7.219,7.5,6.5v-2
	c0-1.233,0.767-2,2-2h4.5c1.084,0,2,0.916,2,2V6c0,0.785,0.619,1.21,0.988,1.394c0.359,0.18,0.737,0.35,1.123,0.508
	c1.71,0.699,4.889,2,4.889,5.598c0,2.775-1.981,5.5-4,5.5v-2c0.597,0,2-1.478,2-3.5c0-2.085-1.65-2.931-3.645-3.747
	c-0.435-0.177-0.857-0.369-1.26-0.57C14.785,8.53,14.001,7.34,14.001,6V4.5H9.5v2c0,1.483-0.768,2.752-2.053,3.395
	C6.467,10.385,3,12.809,3,15c0,1.991,1.546,4,5,4V21z"/>
</svg>






