<?xml version="1.0" encoding="iso-8859-1"?>
<svg version="1.1" id="&#x56FE;&#x5C42;_1" xmlns="http://www.w3.org/2000/svg" xmlns:xlink="http://www.w3.org/1999/xlink" x="0px"
	 y="0px" viewBox="0 0 24 24" style="enable-background:new 0 0 24 24;" xml:space="preserve">
<path style="fill:#333333;" d="M3.414,9.498L2.936,7.592c1.242-0.572,7.478-3.435,8.33-3.664h0c1.343-0.363,2.728,0.43,3.085,1.761
	c0.356,1.333-0.447,2.708-1.791,3.068C11.714,8.984,5.346,9.382,3.414,9.498z M11.785,5.859c-0.267,0.077-1.443,0.582-2.997,1.274
	c1.708-0.129,2.987-0.244,3.26-0.309c0.273-0.073,0.442-0.351,0.371-0.618C12.348,5.942,12.064,5.788,11.785,5.859z"/>
<path style="fill:#333333;" d="M11.957,20.277c-0.221,0-0.443-0.029-0.663-0.088c-0.836-0.224-6.596-2.953-8.342-3.784l0.504-1.9
	c1.93,0.144,8.293,0.63,9.132,0.854c0.648,0.174,1.191,0.587,1.53,1.162c0.342,0.581,0.434,1.259,0.26,1.906
	c-0.173,0.647-0.592,1.188-1.178,1.52C12.816,20.166,12.39,20.277,11.957,20.277z M11.814,18.258
	c0.136,0.037,0.279,0.019,0.401-0.05c0.067-0.038,0.187-0.128,0.232-0.298c0.046-0.171-0.014-0.309-0.053-0.375
	c-0.07-0.12-0.186-0.207-0.323-0.244c-0.279-0.067-1.595-0.2-3.254-0.347C10.328,17.639,11.536,18.177,11.814,18.258z"/>
<path style="fill:#333333;" d="M19,13.002H8v-2h11c0.827,0,1.5-0.673,1.5-1.5s-0.673-1.5-1.5-1.5c-0.477,0-0.914,0.219-1.2,0.601
	l-1.6-1.201c0.668-0.889,1.688-1.399,2.8-1.399c1.93,0,3.5,1.57,3.5,3.5S20.93,13.002,19,13.002z"/>
</svg>






