<?xml version="1.0" encoding="iso-8859-1"?>
<svg version="1.1" id="&#x56FE;&#x5C42;_1" xmlns="http://www.w3.org/2000/svg" xmlns:xlink="http://www.w3.org/1999/xlink" x="0px"
	 y="0px" viewBox="0 0 24 24" style="enable-background:new 0 0 24 24;" xml:space="preserve">
<rect x="5.5" y="5" style="fill:#333333;" width="2" height="12.5"/>
<rect x="16.5" y="5" style="fill:#333333;" width="2" height="12.5"/>
<rect x="4" y="8" style="fill:#333333;" width="16" height="2"/>
<rect x="11" y="5" style="fill:#333333;" width="2" height="4"/>
<path style="fill:#333333;" d="M20.035,6H3.965L1.668,2.555L2.59,1.004C2.645,1.009,8.127,1.5,12,1.5s9.355-0.491,9.41-0.496
	l0.922,1.551L20.035,6z M5.035,4h13.93l0.558-0.837C17.538,3.31,14.487,3.5,12,3.5c-2.487,0-5.538-0.19-7.523-0.337L5.035,4z"/>
<path style="fill:#333333;" d="M9,23H4v-6.5h5V23z M6,21h1v-2.5H6V21z"/>
<path style="fill:#333333;" d="M20,23h-5v-6.5h5V23z M17,21h1v-2.5h-1V21z"/>
</svg>






