<?xml version="1.0" encoding="iso-8859-1"?>
<svg version="1.1" id="&#x56FE;&#x5C42;_1" xmlns="http://www.w3.org/2000/svg" xmlns:xlink="http://www.w3.org/1999/xlink" x="0px"
	 y="0px" viewBox="0 0 24 24" style="enable-background:new 0 0 24 24;" xml:space="preserve">
<path style="fill:#333333;" d="M13,21.5c-5.238,0-9.5-4.262-9.5-9.5S7.762,2.5,13,2.5s9.5,4.262,9.5,9.5S18.238,21.5,13,21.5z
	 M13,4.5c-4.136,0-7.5,3.364-7.5,7.5s3.364,7.5,7.5,7.5s7.5-3.364,7.5-7.5S17.136,4.5,13,4.5z"/>
<path style="fill:#333333;" d="M13,16.5c-2.481,0-4.5-2.019-4.5-4.5s2.019-4.5,4.5-4.5s4.5,2.019,4.5,4.5S15.481,16.5,13,16.5z
	 M13,9.5c-1.378,0-2.5,1.122-2.5,2.5c0,1.379,1.122,2.5,2.5,2.5c1.379,0,2.5-1.121,2.5-2.5C15.5,10.622,14.379,9.5,13,9.5z"/>
<rect x="2.5" y="19.5" style="fill:#333333;" width="10.5" height="2"/>
</svg>






