<?xml version="1.0" encoding="iso-8859-1"?>
<svg version="1.1" id="&#x56FE;&#x5C42;_1" xmlns="http://www.w3.org/2000/svg" xmlns:xlink="http://www.w3.org/1999/xlink" x="0px"
	 y="0px" viewBox="0 0 24 24" style="enable-background:new 0 0 24 24;" xml:space="preserve">
<path style="fill:#333333;" d="M13.693,22.5H3.078c-0.508,0-0.967-0.249-1.228-0.667c-0.249-0.396-0.273-0.889-0.066-1.314
	c0.33-0.683,1.206-1.969,3.358-2.896c0.187-0.081,0.386-0.122,0.59-0.122h5.285c0.195,0,0.384,0.037,0.561,0.11
	c0.34,0.14,2.107,0.929,3.319,2.617c0.313,0.437,0.356,1.003,0.113,1.478C14.757,22.195,14.253,22.5,13.693,22.5z M4.273,20.5h8.174
	c-0.56-0.488-1.151-0.827-1.538-1H5.838C5.124,19.82,4.622,20.176,4.273,20.5z"/>
<path style="fill:#333333;" d="M12.062,13.294L6,9.794l3.5-6.062l6.063,3.5L12.062,13.294z M8.732,9.062l2.598,1.5l1.5-2.598
	l-2.598-1.5L8.732,9.062z"/>
<path style="fill:#333333;" d="M13.696,8.464l0.5-0.866c-0.478-0.276-1.09-0.112-1.366,0.366L13.696,8.464z M12.196,11.062
	l-0.866-0.5c-0.276,0.478-0.112,1.09,0.366,1.366L12.196,11.062z M13.196,9.33l6.495,3.75l1-1.732l-6.495-3.75L13.196,9.33z
	 M19.191,13.946l-6.495-3.75l-1,1.732l6.495,3.75L19.191,13.946z M13.062,11.562l1.5-2.598l-1.732-1l-1.5,2.598L13.062,11.562z
	 M19.874,13.763c-0.138,0.239-0.444,0.321-0.683,0.183l-1,1.732c1.196,0.69,2.725,0.281,3.415-0.915L19.874,13.763z M19.691,13.08
	c0.239,0.138,0.321,0.444,0.183,0.683l1.732,1c0.69-1.196,0.281-2.725-0.915-3.415L19.691,13.08z"/>
<path style="fill:#333333;" d="M14.509,8.55c-0.433,0-0.86-0.114-1.246-0.336l-3.464-2C8.605,5.525,8.195,3.993,8.884,2.799
	c0.334-0.579,0.873-0.992,1.518-1.165c0.646-0.173,1.319-0.083,1.897,0.25l3.464,2c0.578,0.333,0.992,0.873,1.165,1.518
	c0.173,0.646,0.085,1.319-0.249,1.897c-0.334,0.578-0.873,0.992-1.519,1.165C14.945,8.521,14.727,8.55,14.509,8.55z M11.05,3.549
	c-0.173,0-0.341,0.089-0.434,0.25c-0.138,0.239-0.056,0.545,0.183,0.683l3.464,2c0.239,0.137,0.545,0.056,0.684-0.183
	c0.09-0.156,0.07-0.305,0.05-0.379c-0.02-0.075-0.077-0.214-0.233-0.304l-3.464-2C11.22,3.571,11.134,3.549,11.05,3.549z"/>
<path style="fill:#333333;" d="M10.509,15.477c-0.424,0-0.853-0.107-1.246-0.334l-3.464-2c-1.193-0.689-1.604-2.221-0.915-3.415
	c0.334-0.579,0.873-0.992,1.518-1.165c0.645-0.174,1.319-0.084,1.897,0.25l3.464,2c1.194,0.69,1.604,2.222,0.915,3.416
	C12.216,15.028,11.373,15.477,10.509,15.477z M7.05,10.478c-0.173,0-0.341,0.089-0.434,0.25c-0.138,0.239-0.056,0.545,0.183,0.683
	l3.464,2c0.239,0.14,0.545,0.056,0.683-0.183c0.138-0.239,0.056-0.546-0.184-0.684l-3.464-2C7.22,10.499,7.134,10.478,7.05,10.478z"
	/>
</svg>






