<?xml version="1.0" encoding="iso-8859-1"?>
<svg version="1.1" id="&#x56FE;&#x5C42;_1" xmlns="http://www.w3.org/2000/svg" xmlns:xlink="http://www.w3.org/1999/xlink" x="0px"
	 y="0px" viewBox="0 0 24 24" style="enable-background:new 0 0 24 24;" xml:space="preserve">
<path style="fill:#333333;" d="M20,22.5H4c-1.103,0-2-0.897-2-2v-15c0-1.103,0.897-2,2-2h16c1.103,0,2,0.897,2,2v15
	C22,21.603,21.103,22.5,20,22.5z M4,5.5v15h16v-15H4z"/>
<rect x="6.5" y="2.5" style="fill:#333333;" width="2" height="2"/>
<rect x="15.5" y="2.5" style="fill:#333333;" width="2" height="2"/>
<rect x="3" y="7.5" style="fill:#333333;" width="18" height="2"/>
<rect x="9" y="14" style="fill:#333333;" width="6" height="2"/>
<rect x="11" y="12" style="fill:#333333;" width="2" height="6"/>
<rect x="2" y="5.5" style="fill:#333333;" width="2" height="6"/>
<rect x="20" y="5.5" style="fill:#333333;" width="2" height="6"/>
</svg>






