<?xml version="1.0" encoding="iso-8859-1"?>
<svg version="1.1" id="&#x56FE;&#x5C42;_1" xmlns="http://www.w3.org/2000/svg" xmlns:xlink="http://www.w3.org/1999/xlink" x="0px"
	 y="0px" viewBox="0 0 24 24" style="enable-background:new 0 0 24 24;" xml:space="preserve">
<path style="fill:#333333;" d="M12,23c-0.979,0-1.413-0.913-1.729-1.581c-0.028-0.059-0.062-0.13-0.098-0.203
	c-0.073,0.062-0.144,0.124-0.202,0.175c-0.548,0.481-1.297,1.141-2.182,0.774c-0.901-0.373-0.947-1.379-0.979-2.114
	c-0.003-0.066-0.007-0.148-0.012-0.232c-0.09,0.029-0.179,0.059-0.251,0.083c-0.695,0.232-1.649,0.554-2.325-0.123
	c-0.688-0.688-0.34-1.646-0.085-2.347c0.024-0.065,0.054-0.146,0.082-0.229c-0.085-0.005-0.169-0.009-0.238-0.012
	c-0.748-0.032-1.771-0.077-2.146-0.979C1.453,15.289,2.196,14.544,2.738,14c0.045-0.046,0.1-0.101,0.156-0.158
	c-0.073-0.033-0.144-0.064-0.203-0.091C1.978,13.432,1,12.995,1,12c0-0.936,0.848-1.408,1.529-1.787
	c0.073-0.041,0.164-0.091,0.253-0.143C2.731,10.016,2.682,9.965,2.64,9.922C2.169,9.437,1.457,8.703,1.835,7.789
	c0.375-0.904,1.396-0.946,2.217-0.98c0.072-0.003,0.159-0.006,0.249-0.011c-0.027-0.066-0.055-0.13-0.078-0.184
	C3.921,5.907,3.507,4.938,4.221,4.223c0.62-0.621,1.506-0.441,2.22-0.298c0.101,0.021,0.233,0.047,0.357,0.068
	C6.803,3.924,6.807,3.855,6.81,3.797c0.031-0.595,0.082-1.59,0.98-1.962c0.842-0.349,1.59,0.227,2.137,0.646
	c0.069,0.053,0.159,0.123,0.247,0.187c0.04-0.073,0.079-0.148,0.112-0.211C10.588,1.877,11.046,1,12,1
	c0.976,0,1.405,0.893,1.689,1.483c0.027,0.055,0.058,0.12,0.09,0.184c0.096-0.067,0.195-0.14,0.271-0.196
	c0.593-0.437,1.332-0.979,2.16-0.636c0.9,0.374,0.948,1.389,0.979,2.061c0.003,0.064,0.007,0.142,0.012,0.221
	c0.102-0.027,0.205-0.057,0.286-0.08c0.691-0.198,1.633-0.469,2.29,0.185c0.695,0.696,0.328,1.658,0.061,2.36
	c-0.023,0.062-0.053,0.138-0.081,0.216c0.087,0.005,0.172,0.008,0.241,0.011c0.757,0.033,1.792,0.077,2.166,0.981
	c0.4,0.966-0.419,1.684-0.859,2.069c-0.023,0.021-0.049,0.043-0.075,0.067c0.104,0.074,0.215,0.148,0.302,0.206
	C22.22,10.593,23,11.116,23,12c0,1.061-1.055,1.42-1.825,1.682c-0.04,0.014-0.086,0.029-0.134,0.046
	c0.063,0.068,0.126,0.134,0.179,0.188c0.589,0.618,1.321,1.388,0.945,2.295c-0.374,0.903-1.409,0.947-2.165,0.979
	c-0.07,0.003-0.155,0.007-0.242,0.012c0.028,0.078,0.058,0.154,0.081,0.217c0.268,0.702,0.635,1.663-0.06,2.358
	c-0.632,0.632-1.488,0.436-2.113,0.294c-0.089-0.021-0.199-0.046-0.3-0.065c-0.022,0.104-0.043,0.22-0.061,0.312
	c-0.115,0.637-0.274,1.508-1.095,1.848c-0.933,0.385-1.669-0.372-2.109-0.824c-0.034-0.035-0.074-0.077-0.117-0.12
	c-0.061,0.097-0.12,0.196-0.167,0.274C13.416,22.165,12.916,23,12,23z M10.349,18.992c0.089,0,0.181,0.009,0.274,0.027
	c0.784,0.154,1.149,0.9,1.44,1.513c0.014-0.023,0.026-0.045,0.039-0.065c0.383-0.64,0.78-1.302,1.517-1.448
	c0.761-0.145,1.319,0.329,1.753,0.761c0.104-0.547,0.267-1.171,0.815-1.539c0.567-0.379,1.216-0.275,1.766-0.154
	c-0.251-0.657-0.541-1.463-0.087-2.142c0.411-0.614,1.134-0.706,1.817-0.741c-0.56-0.59-1.102-1.205-0.947-1.99
	c0.167-0.841,1.008-1.155,1.715-1.397c-0.011-0.008-0.022-0.015-0.033-0.022c-0.619-0.415-1.259-0.844-1.399-1.55
	c-0.121-0.611,0.169-1.087,0.511-1.455c-0.636-0.043-1.283-0.164-1.663-0.731c-0.437-0.653-0.186-1.422,0.057-2.064
	c-0.648,0.186-1.369,0.357-1.979-0.053c-0.641-0.429-0.713-1.188-0.745-1.831c-0.544,0.401-1.159,0.842-1.892,0.696
	c-0.708-0.14-1.071-0.75-1.329-1.269c-0.283,0.533-0.651,1.129-1.355,1.269c-0.716,0.144-1.33-0.29-1.829-0.672
	C8.756,4.692,8.649,5.363,8.057,5.76C7.462,6.158,6.737,6.023,6.09,5.894c0.282,0.661,0.602,1.468,0.138,2.162
	C5.81,8.682,5.046,8.765,4.332,8.799c0.394,0.433,0.784,0.983,0.649,1.665c-0.147,0.742-0.828,1.134-1.441,1.476
	c0.688,0.308,1.457,0.663,1.614,1.462c0.146,0.733-0.329,1.321-0.797,1.806c0.637,0.038,1.344,0.146,1.74,0.736
	c0.422,0.631,0.204,1.377-0.021,2.007c0.648-0.214,1.359-0.403,1.98,0.012c0.616,0.413,0.707,1.151,0.741,1.798
	C9.229,19.387,9.743,18.992,10.349,18.992z"/>
<path style="fill:#333333;" d="M14.5,15.5c-1.654,0-3-1.346-3-3s1.346-3,3-3s3,1.346,3,3S16.154,15.5,14.5,15.5z M14.5,11.5
	c-0.552,0-1,0.449-1,1c0,0.552,0.448,1,1,1s1-0.448,1-1C15.5,11.949,15.052,11.5,14.5,11.5z"/>
<path style="fill:#333333;" d="M8.25,13c0.69,0,1.25-0.56,1.25-1.25c0-0.69-0.56-1.25-1.25-1.25S7,11.06,7,11.75
	C7,12.441,7.56,13,8.25,13z"/>
</svg>






