<?xml version="1.0" encoding="iso-8859-1"?>
<svg version="1.1" id="&#x56FE;&#x5C42;_1" xmlns="http://www.w3.org/2000/svg" xmlns:xlink="http://www.w3.org/1999/xlink" x="0px"
	 y="0px" viewBox="0 0 24 24" style="enable-background:new 0 0 24 24;" xml:space="preserve">
<path style="fill:#333333;" d="M12,23.803l-2-3l-1.845,2.767L6,21.414l-1.293,1.293L3,22V10c0-4.962,4.038-9,9-9
	c4.963,0,9,4.038,9,9v12l-1.707,0.707L18,21.414l-2.155,2.155L14,20.803L12,23.803z M14,17.197l2.155,3.233L18,18.586l1,1V10
	c0-3.86-3.141-7-7-7c-3.86,0-7,3.14-7,7v9.586l1-1l1.845,1.845L10,17.197l2,3L14,17.197z"/>
<rect x="9.5" y="9" style="fill:#333333;" width="1" height="2"/>
<rect x="15.5" y="9" style="fill:#333333;" width="1" height="2"/>
</svg>






