<?xml version="1.0" encoding="iso-8859-1"?>
<svg version="1.1" id="&#x56FE;&#x5C42;_1" xmlns="http://www.w3.org/2000/svg" xmlns:xlink="http://www.w3.org/1999/xlink" x="0px"
	 y="0px" viewBox="0 0 24 24" style="enable-background:new 0 0 24 24;" xml:space="preserve">
<path style="fill:#333333;" d="M19.5,22h-15C3.122,22,2,20.879,2,19.5v-11C2,7.122,3.122,6,4.5,6h15C20.879,6,22,7.122,22,8.5v11
	C22,20.879,20.879,22,19.5,22z M4.5,8C4.224,8,4,8.224,4,8.5v11C4,19.775,4.224,20,4.5,20h15c0.275,0,0.5-0.225,0.5-0.5v-11
	C20,8.224,19.775,8,19.5,8H4.5z"/>
<path style="fill:#333333;" d="M19.5,22h-15C3.122,22,2,20.879,2,19.5V15h20v4.5C22,20.879,20.879,22,19.5,22z M4,17v2.5
	C4,19.775,4.224,20,4.5,20h15c0.275,0,0.5-0.225,0.5-0.5V17H4z"/>
<path style="fill:#333333;" d="M9.5,8C7.57,8,6,6.43,6,4.5S7.57,1,9.5,1S13,2.57,13,4.5S11.43,8,9.5,8z M9.5,3
	C8.673,3,8,3.673,8,4.5S8.673,6,9.5,6S11,5.327,11,4.5S10.327,3,9.5,3z"/>
<path style="fill:#333333;" d="M14,8c-1.654,0-3-1.346-3-3s1.346-3,3-3s3,1.346,3,3S15.654,8,14,8z M14,4c-0.552,0-1,0.449-1,1
	s0.448,1,1,1s1-0.449,1-1S14.552,4,14,4z"/>
<polygon style="fill:#333333;" points="14.85,10.759 12,8.317 9.151,10.759 7.849,9.241 12,5.683 16.15,9.241 "/>
</svg>






