<?xml version="1.0" encoding="iso-8859-1"?>
<svg version="1.1" id="&#x56FE;&#x5C42;_1" xmlns="http://www.w3.org/2000/svg" xmlns:xlink="http://www.w3.org/1999/xlink" x="0px"
	 y="0px" viewBox="0 0 24 24" style="enable-background:new 0 0 24 24;" xml:space="preserve">
<path style="fill:#333333;" d="M19.5,22h-15C3.122,22,2,20.879,2,19.5v-15C2,3.122,3.122,2,4.5,2h15C20.879,2,22,3.122,22,4.5v15
	C22,20.879,20.879,22,19.5,22z M4.5,4C4.224,4,4,4.224,4,4.5v15C4,19.775,4.224,20,4.5,20h15c0.275,0,0.5-0.225,0.5-0.5v-15
	C20,4.224,19.775,4,19.5,4H4.5z"/>
<rect x="2" y="11" style="fill:#333333;" width="20" height="2"/>
<rect x="11" y="2" style="fill:#333333;" width="2" height="20"/>
<rect x="2" y="9" style="fill:#333333;" width="2" height="6"/>
<rect x="20" y="9" style="fill:#333333;" width="2" height="6"/>
<rect x="9" y="20" style="fill:#333333;" width="6" height="2"/>
<rect x="9" y="2" style="fill:#333333;" width="6" height="2"/>
<path style="fill:#333333;" d="M8.538,17.999c-0.65,0-1.3-0.247-1.794-0.742C6.264,16.776,6,16.14,6,15.462
	c0-0.679,0.264-1.315,0.744-1.795c0.406-0.406,1.681-1.08,2.889-1.667c-1.208-0.587-2.483-1.26-2.889-1.667l1.414-1.414
	c0.185,0.167,0.871,0.543,1.74,0.979c-0.436-0.87-0.813-1.559-0.983-1.746l1.419-1.409c0.406,0.406,1.08,1.681,1.667,2.89
	c0.587-1.209,1.261-2.484,1.668-2.89c0.956-0.957,2.628-0.959,3.589,0c0.989,0.99,0.989,2.6,0,3.59
	c-0.406,0.406-1.682,1.08-2.89,1.667c1.208,0.587,2.483,1.261,2.89,1.668l-1.416,1.412c-0.184-0.167-0.87-0.543-1.738-0.978
	c0.436,0.869,0.813,1.559,0.984,1.746l-1.42,1.408c-0.406-0.406-1.08-1.682-1.667-2.89c-0.587,1.208-1.26,2.482-1.666,2.889
	C9.839,17.751,9.188,17.999,8.538,17.999z M9.898,14.103c-0.87,0.436-1.558,0.813-1.745,0.983C8.056,15.183,8,15.318,8,15.462
	s0.056,0.279,0.158,0.381c0.209,0.209,0.552,0.209,0.761,0C9.086,15.658,9.462,14.972,9.898,14.103z M15.462,8
	c-0.144,0-0.279,0.056-0.381,0.158c-0.167,0.185-0.544,0.871-0.979,1.74c0.87-0.436,1.559-0.814,1.746-0.984
	c0.204-0.204,0.204-0.546-0.006-0.756C15.741,8.056,15.605,8,15.462,8z"/>
</svg>






