<?xml version="1.0" encoding="iso-8859-1"?>
<svg version="1.1" id="&#x56FE;&#x5C42;_1" xmlns="http://www.w3.org/2000/svg" xmlns:xlink="http://www.w3.org/1999/xlink" x="0px"
	 y="0px" viewBox="0 0 24 24" style="enable-background:new 0 0 24 24;" xml:space="preserve">
<path style="fill:#333333;" d="M12,9C9.794,9,8,7.206,8,5s1.794-4,4-4c2.206,0,4,1.794,4,4S14.206,9,12,9z M12,3
	c-1.103,0-2,0.897-2,2s0.897,2,2,2c1.103,0,2-0.897,2-2S13.103,3,12,3z"/>
<polygon style="fill:#333333;" points="15,22 13,22 13,17 17.326,17 13.018,9 10.982,9 6.674,17 11,17 11,22 9,22 9,19 3.326,19 
	9.788,7 14.213,7 20.674,19 15,19 "/>
</svg>






