<?xml version="1.0" encoding="iso-8859-1"?>
<svg version="1.1" id="&#x56FE;&#x5C42;_1" xmlns="http://www.w3.org/2000/svg" xmlns:xlink="http://www.w3.org/1999/xlink" x="0px"
	 y="0px" viewBox="0 0 24 24" style="enable-background:new 0 0 24 24;" xml:space="preserve">
<path style="fill:#333333;" d="M12,9C9.794,9,8,7.206,8,5s1.794-4,4-4c2.206,0,4,1.794,4,4S14.206,9,12,9z M12,3
	c-1.103,0-2,0.897-2,2s0.897,2,2,2c1.103,0,2-0.897,2-2S13.103,3,12,3z"/>
<path style="fill:#333333;" d="M20.674,19H3.326L9.788,7h4.425L20.674,19z M6.674,17h10.652l-4.309-8h-2.036L6.674,17z"/>
<rect x="12.5" y="18" style="fill:#333333;" width="2" height="4"/>
<rect x="9.5" y="18" style="fill:#333333;" width="2" height="4"/>
</svg>






