<?xml version="1.0" encoding="iso-8859-1"?>
<svg version="1.1" id="&#x56FE;&#x5C42;_1" xmlns="http://www.w3.org/2000/svg" xmlns:xlink="http://www.w3.org/1999/xlink" x="0px"
	 y="0px" viewBox="0 0 24 24" style="enable-background:new 0 0 24 24;" xml:space="preserve">
<path style="fill:#333333;" d="M9.704,16.317c-1.565-0.264-2.897-0.801-3.96-1.598C4.025,13.432,3,11.48,3,9.5
	c0-1.266,0.432-2.498,1.25-3.575C4.27,5.714,4.27,5.302,4.27,4.987c0-1.474,0-2.748,0.837-3.299
	c0.376-0.248,0.844-0.281,1.288-0.092C6.802,1.771,7.182,1.999,7.549,2.22c0.627,0.377,1.22,0.733,1.631,0.628
	c1.947-0.496,4.119-0.458,6.041,0.11c0.29,0.018,1.316-0.528,1.861-0.826c0.355-0.195,0.699-0.381,1.006-0.524
	c0.465-0.217,0.949-0.183,1.324,0.094c0.754,0.557,0.604,1.635,0.416,3c-0.051,0.368-0.124,0.898-0.125,1.162
	C20.553,6.956,21,8.208,21,9.5c0,2.053-0.967,4.004-2.587,5.22c-0.934,0.699-2.123,1.203-3.538,1.498l-0.406-1.959
	c1.108-0.23,2.058-0.624,2.744-1.139C18.332,12.28,19,10.927,19,9.5c0-0.887-0.336-1.761-0.973-2.528
	c-0.456-0.548-0.346-1.342-0.181-2.543c0.02-0.137,0.042-0.301,0.063-0.47c-1.121,0.612-2.272,1.211-3.258,0.917
	c-1.578-0.467-3.38-0.498-4.979-0.09C8.453,5.099,7.38,4.452,6.519,3.934C6.442,3.888,6.367,3.843,6.293,3.799
	C6.27,4.194,6.27,4.67,6.27,4.987c0,1.042,0,1.617-0.34,2.038C5.321,7.778,5,8.634,5,9.5c0,1.334,0.745,2.721,1.943,3.62
	c0.805,0.603,1.845,1.015,3.093,1.225L9.704,16.317z M19.565,5.694C19.566,5.695,19.566,5.695,19.565,5.694
	C19.566,5.695,19.566,5.695,19.565,5.694z"/>
<path style="fill:#333333;" d="M10.001,21.505h-2v-4.357c0-0.827,0.379-1.664,1.128-2.488l1.48,1.344
	c-0.398,0.439-0.609,0.835-0.609,1.145V21.505z"/>
<path style="fill:#333333;" d="M16.495,21.505h-2v-4.326c0-0.238-0.107-0.663-0.619-1.335l1.592-1.211
	c0.691,0.907,1.027,1.74,1.027,2.546V21.505z"/>
<path style="fill:#333333;" d="M9.001,19.759H6.913c-1.29,0-2.558-1.014-3.768-3.014C3.11,16.688,3.071,16.624,2.877,16.6
	l0.246-1.984c0.756,0.094,1.355,0.472,1.732,1.094c1.181,1.951,1.921,2.05,2.058,2.05h2.088V19.759z"/>
</svg>






