<?xml version="1.0" encoding="iso-8859-1"?>
<svg version="1.1" id="&#x56FE;&#x5C42;_1" xmlns="http://www.w3.org/2000/svg" xmlns:xlink="http://www.w3.org/1999/xlink" x="0px"
	 y="0px" viewBox="0 0 24 24" style="enable-background:new 0 0 24 24;" xml:space="preserve">
<path style="fill:#333333;" d="M6,22c-2.481,0-4.5-2.019-4.5-4.5S3.519,13,6,13s4.5,2.019,4.5,4.5S8.481,22,6,22z M6,15
	c-1.378,0-2.5,1.121-2.5,2.5S4.622,20,6,20s2.5-1.121,2.5-2.5S7.378,15,6,15z"/>
<path style="fill:#333333;" d="M18,22c-2.481,0-4.5-2.019-4.5-4.5S15.519,13,18,13s4.5,2.019,4.5,4.5S20.481,22,18,22z M18,15
	c-1.379,0-2.5,1.121-2.5,2.5S16.621,20,18,20s2.5-1.121,2.5-2.5S19.379,15,18,15z"/>
<path style="fill:#333333;" d="M3.5,17h-2V5.441c0-0.823,0-1.367,0.378-1.891c0.375-0.523,0.891-0.694,1.67-0.955l1.635-0.545
	l0.632,1.897L4.184,4.493C3.93,4.577,3.65,4.671,3.517,4.733C3.5,4.879,3.5,5.175,3.5,5.441V17z"/>
<path style="fill:#333333;" d="M22.5,17h-2V5.441c0-0.266,0-0.562-0.018-0.708c-0.133-0.062-0.411-0.156-0.662-0.24l-1.637-0.545
	l0.633-1.897l1.633,0.544c0.782,0.261,1.295,0.433,1.673,0.956C22.5,4.075,22.5,4.619,22.5,5.441V17z"/>
<path style="fill:#333333;" d="M15.5,17h-2c0-0.827-0.673-1.5-1.5-1.5s-1.5,0.673-1.5,1.5h-2c0-1.93,1.57-3.5,3.5-3.5
	S15.5,15.07,15.5,17z"/>
</svg>






