<?xml version="1.0" encoding="iso-8859-1"?>
<svg version="1.1" id="&#x56FE;&#x5C42;_1" xmlns="http://www.w3.org/2000/svg" xmlns:xlink="http://www.w3.org/1999/xlink" x="0px"
	 y="0px" viewBox="0 0 24 24" style="enable-background:new 0 0 24 24;" xml:space="preserve">
<path style="fill:#333333;" d="M6,21c-2.481,0-4.5-2.019-4.5-4.5S3.519,12,6,12s4.5,2.019,4.5,4.5S8.481,21,6,21z M6,14
	c-1.378,0-2.5,1.121-2.5,2.5S4.622,19,6,19s2.5-1.121,2.5-2.5S7.378,14,6,14z"/>
<path style="fill:#333333;" d="M15.5,16.5h-2c0-1.327-0.505-2-1.5-2s-1.5,0.673-1.5,2h-2c0-2.43,1.374-4,3.5-4S15.5,14.07,15.5,16.5
	z"/>
<path style="fill:#333333;" d="M18,21c-2.481,0-4.5-2.019-4.5-4.5S15.519,12,18,12s4.5,2.019,4.5,4.5S20.481,21,18,21z M18,14
	c-1.379,0-2.5,1.121-2.5,2.5S16.621,19,18,19s2.5-1.121,2.5-2.5S19.379,14,18,14z"/>
<path style="fill:#333333;" d="M4,11H2V7c0-2.206,1.794-4,4-4h1v2H6C4.897,5,4,5.897,4,7V11z"/>
<path style="fill:#333333;" d="M22,11h-2V7c0-1.103-0.897-2-2-2h-1V3h1c2.206,0,4,1.794,4,4V11z"/>
</svg>






