<?xml version="1.0" encoding="iso-8859-1"?>
<svg version="1.1" id="&#x56FE;&#x5C42;_1" xmlns="http://www.w3.org/2000/svg" xmlns:xlink="http://www.w3.org/1999/xlink" x="0px"
	 y="0px" viewBox="0 0 24 24" style="enable-background:new 0 0 24 24;" xml:space="preserve">
<path style="fill:#333333;" d="M12.158,20c-2.971,0-5.845-1.239-7.885-3.4l1.454-1.373C7.416,17.015,9.7,18,12.158,18
	C17.033,18,21,14.033,21,9.158c0-2.458-0.985-4.742-2.773-6.431L19.6,1.273C21.761,3.313,23,6.188,23,9.158
	C23,15.136,18.137,20,12.158,20z"/>
<path style="fill:#333333;" d="M12,17c-4.411,0-8-3.589-8-8s3.589-8,8-8s8,3.589,8,8S16.411,17,12,17z M12,3C8.691,3,6,5.691,6,9
	s2.691,6,6,6s6-2.691,6-6S15.309,3,12,3z"/>
<rect x="11" y="19" style="fill:#333333;" width="2" height="3"/>
<rect x="9" y="21" style="fill:#333333;" width="6" height="2"/>
</svg>






