<?xml version="1.0" encoding="iso-8859-1"?>
<svg version="1.1" id="&#x56FE;&#x5C42;_1" xmlns="http://www.w3.org/2000/svg" xmlns:xlink="http://www.w3.org/1999/xlink" x="0px"
	 y="0px" viewBox="0 0 24 24" style="enable-background:new 0 0 24 24;" xml:space="preserve">
<g>
	<defs>
		<rect id="SVGID_1_" width="24" height="24"/>
	</defs>
	<clipPath id="SVGID_00000047060187832215853300000001341976765420496517_">
		<use xlink:href="#SVGID_1_"  style="overflow:visible;"/>
	</clipPath>
	<g style="clip-path:url(#SVGID_00000047060187832215853300000001341976765420496517_);">
		<path style="fill:#333333;" d="M9.939,17.439c-2.003,0-3.887-0.78-5.303-2.197l-2.475-2.475l1.414-1.414l2.475,2.475
			c1.039,1.039,2.42,1.611,3.889,1.611c1.469,0,2.85-0.572,3.889-1.611s1.611-2.42,1.611-3.889c0-1.469-0.572-2.85-1.611-3.889
			l-2.475-2.475l1.414-1.414l2.475,2.475c1.417,1.416,2.197,3.3,2.197,5.303c0,2.003-0.78,3.887-2.197,5.303
			C13.826,16.659,11.942,17.439,9.939,17.439z"/>
		
			<rect x="15.5" y="14.379" transform="matrix(0.7071 -0.7071 0.7071 0.7071 -6.8345 16.5)" style="fill:#333333;" width="2" height="4.243"/>
		<path style="fill:#333333;" d="M4.109,13.208c-0.96,0-1.801-0.293-2.413-0.904C0.763,11.37,0.531,9.917,1.042,8.213
			c0.447-1.492,1.433-3.052,2.776-4.395l0,0c2.975-2.974,6.702-3.906,8.485-2.121c1.785,1.784,0.853,5.511-2.121,8.485
			C8.228,12.135,5.949,13.208,4.109,13.208z M5.232,5.232C4.135,6.329,3.306,7.625,2.958,8.787c-0.286,0.953-0.23,1.719,0.153,2.102
			c0.834,0.835,3.431,0.104,5.657-2.122c2.226-2.226,2.956-4.822,2.122-5.657C10.054,2.277,7.458,3.008,5.232,5.232L5.232,5.232z"/>
		<path style="fill:#333333;" d="M17.578,22.37c-0.561,0-1.049-0.184-1.407-0.543c-0.556-0.556-0.691-1.429-0.369-2.394
			c0.248-0.746,0.756-1.527,1.431-2.201c0.674-0.675,1.455-1.183,2.201-1.431c0.967-0.323,1.838-0.187,2.395,0.37
			c1.024,1.024,0.578,2.957-1.061,4.596c-0.674,0.675-1.456,1.183-2.202,1.431C18.222,22.313,17.889,22.37,17.578,22.37z
			 M20.373,17.627c-0.299,0.024-0.993,0.285-1.727,1.02l0,0c-0.734,0.733-0.995,1.428-1.02,1.727
			c0.299-0.024,0.993-0.286,1.727-1.02C20.087,18.619,20.349,17.926,20.373,17.627z"/>
	</g>
</g>
</svg>






