<?xml version="1.0" encoding="iso-8859-1"?>
<svg version="1.1" id="&#x56FE;&#x5C42;_1" xmlns="http://www.w3.org/2000/svg" xmlns:xlink="http://www.w3.org/1999/xlink" x="0px"
	 y="0px" viewBox="0 0 24 24" style="enable-background:new 0 0 24 24;" xml:space="preserve">
<rect x="6.5" y="21" style="fill:#333333;" width="10" height="2"/>
<rect x="10.5" y="14" style="fill:#333333;" width="2" height="8"/>
<path style="fill:#333333;" d="M11.5,15c-2.698,0-5.109-1.507-6.293-3.932C4.738,10.108,4.5,9.076,4.5,8
	c0-1.152,0.223-2.359,0.664-3.587c0.63-1.756,1.491-2.951,1.527-3L6.991,1h9.019l0.299,0.412c0.041,0.056,1.007,1.397,1.642,3.333
	C18.315,5.857,18.5,6.953,18.5,8c0,0.958-0.196,1.893-0.584,2.776C16.79,13.342,14.271,15,11.5,15z M8.042,3
	C7.781,3.431,7.375,4.171,7.046,5.088C6.684,6.099,6.5,7.079,6.5,8c0,0.769,0.169,1.506,0.503,2.19C7.85,11.923,9.573,13,11.5,13
	c1.978,0,3.777-1.188,4.584-3.027C16.36,9.344,16.5,8.68,16.5,8c0-0.835-0.151-1.721-0.45-2.632C15.707,4.322,15.245,3.474,14.957,3
	H8.042z"/>
<path style="fill:#333333;" d="M14.167,9.665c-1.044,0-2.169-0.2-3.182-0.807C8.96,7.642,5.922,8.906,5.892,8.92L5.106,7.081
	c0.162-0.07,4.003-1.682,6.909,0.062c2.022,1.213,5.063-0.049,5.094-0.062l0.785,1.839C17.788,8.964,16.12,9.665,14.167,9.665z"/>
<path style="fill:#333333;" d="M17.916,10.776l-1.832-0.804C16.36,9.344,16.5,8.68,16.5,8c0-0.835-0.151-1.721-0.45-2.632l1.9-0.623
	C18.315,5.857,18.5,6.953,18.5,8C18.5,8.958,18.304,9.893,17.916,10.776z"/>
<path style="fill:#333333;" d="M5.207,11.068C4.738,10.108,4.5,9.076,4.5,8c0-1.152,0.223-2.359,0.664-3.587l1.883,0.675
	C6.684,6.099,6.5,7.079,6.5,8c0,0.769,0.169,1.506,0.503,2.19L5.207,11.068z"/>
</svg>






