<?xml version="1.0" encoding="iso-8859-1"?>
<svg version="1.1" id="&#x56FE;&#x5C42;_1" xmlns="http://www.w3.org/2000/svg" xmlns:xlink="http://www.w3.org/1999/xlink" x="0px"
	 y="0px" viewBox="0 0 24 24" style="enable-background:new 0 0 24 24;" xml:space="preserve">
<rect x="6.5" y="21" style="fill:#333333;" width="10" height="2"/>
<rect x="10.5" y="14" style="fill:#333333;" width="2" height="8"/>
<path style="fill:#333333;" d="M11.5,15c-3.86,0-7-3.14-7-7c0-3.535,2.102-6.465,2.191-6.588L6.991,1h9.018l0.3,0.412
	C16.398,1.535,18.5,4.465,18.5,8C18.5,11.86,15.359,15,11.5,15z M8.043,3C7.541,3.83,6.5,5.813,6.5,8c0,2.757,2.243,5,5,5
	c2.71,0,5-2.29,5-5c0-2.201-1.038-4.173-1.541-5H8.043z"/>
<polygon style="fill:#333333;" points="12.448,8.816 10.551,8.184 11.21,6.208 9.21,5.708 10.551,1.684 12.448,2.316 11.79,4.292 
	13.79,4.792 "/>
<rect x="7.5" y="1" style="fill:#333333;" width="8" height="2"/>
</svg>






