<?xml version="1.0" encoding="iso-8859-1"?>
<svg version="1.1" id="&#x56FE;&#x5C42;_1" xmlns="http://www.w3.org/2000/svg" xmlns:xlink="http://www.w3.org/1999/xlink" x="0px"
	 y="0px" viewBox="0 0 24 24" style="enable-background:new 0 0 24 24;" xml:space="preserve">
<path style="fill:#333333;" d="M17.751,11.467c-0.916-1.732-2.538-2.949-4.45-3.337l-1.162-0.236L14.815,1h8.626l-3.87,10.35
	L17.751,11.467z M14.832,6.482c1.367,0.481,2.58,1.301,3.534,2.381L20.559,3h-4.374L14.832,6.482z"/>
<path style="fill:#333333;" d="M6.25,11.467L4.429,11.35L0.559,1h8.626l2.677,6.894L10.699,8.13
	C8.787,8.519,7.165,9.735,6.25,11.467z M3.441,3l2.192,5.863c0.954-1.081,2.167-1.9,3.534-2.381L7.815,3H3.441z"/>
<path style="fill:#333333;" d="M12,23c-4.687,0-8.5-3.813-8.5-8.5c0-1.382,0.339-2.754,0.981-3.968
	c1.196-2.264,3.317-3.854,5.819-4.362c1.116-0.226,2.286-0.225,3.397,0c2.502,0.508,4.623,2.098,5.82,4.363
	c0.643,1.213,0.981,2.585,0.981,3.967C20.5,19.187,16.687,23,12,23z M12,8c-0.438,0-0.875,0.044-1.302,0.13
	C8.787,8.519,7.165,9.735,6.25,11.467C5.759,12.395,5.5,13.442,5.5,14.5c0,3.584,2.916,6.5,6.5,6.5s6.5-2.916,6.5-6.5
	c0-1.058-0.259-2.105-0.749-3.032c-0.916-1.733-2.538-2.95-4.45-3.338C12.876,8.044,12.438,8,12,8z"/>
<polygon style="fill:#333333;" points="14,18.5 12,18.5 12,17.5 12,18.5 10,18.5 10,16.5 11,16.5 11,12.388 10.816,12.448 
	10.184,10.551 13,9.613 13,16.5 14,16.5 "/>
</svg>






