<?xml version="1.0" encoding="iso-8859-1"?>
<svg version="1.1" id="&#x56FE;&#x5C42;_1" xmlns="http://www.w3.org/2000/svg" xmlns:xlink="http://www.w3.org/1999/xlink" x="0px"
	 y="0px" viewBox="0 0 24 24" style="enable-background:new 0 0 24 24;" xml:space="preserve">
<path style="fill:#333333;" d="M11,7C9.346,7,8,5.654,8,4s1.346-3,3-3s3,1.346,3,3S12.654,7,11,7z M11,3c-0.551,0-1,0.449-1,1
	s0.449,1,1,1s1-0.449,1-1S11.551,3,11,3z"/>
<polygon style="fill:#333333;" points="6.5,21.5 4.5,21.5 4.5,13.5 8,13.5 8,10 4,10 4,8 10,8 10,15.5 6.5,15.5 "/>
<polygon style="fill:#333333;" points="19.289,22.203 12,14.841 12,8 18.091,8 18.091,10 14,10 14,14.019 20.711,20.797 "/>
</svg>






