<?xml version="1.0" encoding="iso-8859-1"?>
<svg version="1.1" id="&#x56FE;&#x5C42;_1" xmlns="http://www.w3.org/2000/svg" xmlns:xlink="http://www.w3.org/1999/xlink" x="0px"
	 y="0px" viewBox="0 0 24 24" style="enable-background:new 0 0 24 24;" xml:space="preserve">
<path style="fill:#333333;" d="M5,22.5H3.917c-1.045,0-1.902-0.785-1.993-1.826l-0.826-9.5c-0.049-0.557,0.14-1.112,0.517-1.525
	C1.994,9.237,2.531,9,3.091,9H5c1.103,0,2,0.897,2,2v9.5C7,21.603,6.103,22.5,5,22.5z M3.091,11l0.826,9.5H5V11H3.091z"/>
<path style="fill:#333333;" d="M18.493,22.5H10c-1.103,0-2-0.897-2-2v-9.813C8,9.896,8.476,9.16,9.211,8.813
	c1.178-0.556,2.064-1.225,2.432-1.837c0.544-0.908,0.8-2.676,0.854-3.915c0.004-0.148,0.009-0.239,0.021-0.329
	c0.085-0.621,0.505-1.081,1.096-1.201c1.236-0.255,2.86,1.135,3.494,2.193c0.428,0.713,0.61,1.642,0.542,2.76
	c-0.05,0.819-0.273,1.565-0.489,2.286l-0.066,0.222h4.085c0.632,0,1.214,0.289,1.595,0.793c0.382,0.504,0.502,1.143,0.329,1.751
	l-2.685,9.506C20.175,21.901,19.384,22.5,18.493,22.5z M14.453,3.785c-0.091,1.084-0.353,2.979-1.096,4.219
	c-0.735,1.227-2.197,2.101-3.293,2.617L10,10.687V20.5h8.493l2.686-9.508h-6.772l0.826-2.755c0.204-0.68,0.385-1.286,0.421-1.875
	c0.042-0.688-0.051-1.259-0.261-1.609C15.165,4.373,14.783,4.02,14.453,3.785z"/>
</svg>






