<?xml version="1.0" encoding="iso-8859-1"?>
<svg version="1.1" id="&#x56FE;&#x5C42;_1" xmlns="http://www.w3.org/2000/svg" xmlns:xlink="http://www.w3.org/1999/xlink" x="0px"
	 y="0px" viewBox="0 0 24 24" style="enable-background:new 0 0 24 24;" xml:space="preserve">
<path style="fill:#333333;" d="M16.993,22.5H4c-1.103,0-2-0.897-2-2v-9.906c0-0.732,0.399-1.405,1.042-1.756l3.33-1.816
	c0.913-0.498,1.662-1.242,2.167-2.15l1.329-2.392C10.203,1.875,10.84,1.5,11.532,1.5h0.12c0.814,0,1.58,0.317,2.155,0.893
	c0.587,0.587,0.948,1.365,1.017,2.192l0.045,0.55c0.095,1.121,0.014,2.244-0.239,3.338L14.507,9h5.171
	c0.633,0,1.215,0.29,1.596,0.794c0.382,0.504,0.502,1.142,0.329,1.75l-2.685,9.5C18.676,21.901,17.884,22.5,16.993,22.5z
	 M11.532,3.5l-1.246,2.343C9.598,7.083,8.575,8.098,7.33,8.778L4,10.594V20.5h12.993l0.963,0.271L16.994,20.5l2.685-9.5h-5.741
	c-0.475,0-0.916-0.213-1.211-0.584s-0.403-0.849-0.297-1.311l0.25-1.082c0.207-0.892,0.272-1.808,0.196-2.722L12.83,4.75
	c-0.03-0.355-0.185-0.69-0.438-0.943C12.194,3.609,11.932,3.5,11.652,3.5H11.532z"/>
</svg>






