<?xml version="1.0" encoding="iso-8859-1"?>
<svg version="1.1" id="&#x56FE;&#x5C42;_1" xmlns="http://www.w3.org/2000/svg" xmlns:xlink="http://www.w3.org/1999/xlink" x="0px"
	 y="0px" viewBox="0 0 24 24" style="enable-background:new 0 0 24 24;" xml:space="preserve">
<path style="fill:#333333;" d="M15.754,23H9.503c-2.521,0-4.897-1.453-6.357-3.887c-1.637-2.729-1.652-6.731-0.037-9.962l0,0
	c0,0,0,0,0,0c2.184-4.369,6.612-6.23,9.846-7.589l0.902-0.382c0.783-0.338,1.555-0.217,2.117,0.331
	c0.964,0.939,0.989,2.877,0.457,4.208C16.259,6.152,16.035,6.595,15.81,7h2.443c1.517,0,2.75,1.234,2.75,2.75
	c0,0.424-0.097,0.825-0.269,1.184c0.763,0.49,1.269,1.345,1.269,2.316c0,1.302-0.909,2.395-2.125,2.679
	c0.081,0.26,0.125,0.535,0.125,0.821c0,1.136-0.691,2.112-1.676,2.531c0.113,0.302,0.176,0.628,0.176,0.969
	C18.503,21.767,17.27,23,15.754,23z M14.636,3.029l-0.906,0.377c-3.109,1.307-6.979,2.933-8.832,6.64l0,0
	c-1.321,2.643-1.336,5.873-0.037,8.038C6.484,20.79,8.824,21,9.503,21h6.251c0.413,0,0.749-0.337,0.749-0.75s-0.337-0.75-0.75-0.75
	v-2h1.5c0.413,0,0.75-0.337,0.75-0.75S17.666,16,17.253,16v-2h2c0.413,0,0.75-0.337,0.75-0.75s-0.337-0.75-0.75-0.75h-1v-2
	c0.413,0,0.75-0.336,0.75-0.75S18.666,9,18.253,9h-4.25l-0.814-1.581c0.01-0.013,0.938-1.322,1.386-2.442
	C14.87,4.239,14.793,3.345,14.636,3.029z"/>
</svg>






