<?xml version="1.0" encoding="iso-8859-1"?>
<svg version="1.1" id="&#x56FE;&#x5C42;_1" xmlns="http://www.w3.org/2000/svg" xmlns:xlink="http://www.w3.org/1999/xlink" x="0px"
	 y="0px" viewBox="0 0 24 24" style="enable-background:new 0 0 24 24;" xml:space="preserve">
<g>
	<defs>
		<rect id="SVGID_1_" width="24" height="24"/>
	</defs>
	<clipPath id="SVGID_00000038401644197706128930000011198632692088215456_">
		<use xlink:href="#SVGID_1_"  style="overflow:visible;"/>
	</clipPath>
	<g style="clip-path:url(#SVGID_00000038401644197706128930000011198632692088215456_);">
		<path style="fill:#333333;" d="M17.965,22.344c-1.508,0-2.954-0.854-3.632-2.309L8.417,7.346c-0.452-0.968-0.5-2.054-0.134-3.058
			c0.365-1.004,1.1-1.806,2.068-2.257c0.97-0.453,2.055-0.498,3.059-0.134c1.004,0.366,1.806,1.1,2.257,2.069l5.917,12.688
			c0.451,0.969,0.499,2.055,0.134,3.06c-0.365,1.004-1.101,1.806-2.068,2.257C19.104,22.224,18.53,22.344,17.965,22.344z
			 M12.041,3.655c-0.289,0-0.576,0.063-0.844,0.188c-0.484,0.226-0.852,0.626-1.034,1.129c-0.183,0.502-0.159,1.045,0.067,1.529
			l5.916,12.688c0.466,0.998,1.656,1.433,2.658,0.968c0.484-0.226,0.852-0.627,1.034-1.129s0.159-1.045-0.066-1.529L13.854,4.811
			c-0.226-0.484-0.627-0.852-1.129-1.035C12.503,3.695,12.271,3.655,12.041,3.655z"/>
		<path style="fill:#333333;" d="M6.035,22.344c-0.565,0-1.139-0.12-1.684-0.374c-1.999-0.932-2.867-3.316-1.935-5.316L8.281,4.077
			l1.812,0.846L4.229,17.499c-0.466,1-0.032,2.192,0.967,2.658s2.192,0.032,2.658-0.968l2.958-6.345l1.812,0.846l-2.958,6.345
			C8.988,21.488,7.542,22.344,6.035,22.344z"/>
		<path style="fill:#333333;" d="M6.035,22.344c-0.565,0-1.139-0.12-1.684-0.374c-1.999-0.932-2.867-3.317-1.935-5.316
			c0.451-0.968,1.253-1.703,2.257-2.068c1.003-0.365,2.09-0.318,3.059,0.134C8.7,15.17,9.435,15.972,9.8,16.976
			c0.365,1.005,0.318,2.091-0.134,3.06C8.988,21.488,7.542,22.344,6.035,22.344z M6.042,16.343c-0.231,0-0.462,0.04-0.685,0.122
			c-0.502,0.183-0.903,0.55-1.129,1.034c-0.466,0.999-0.032,2.192,0.968,2.658s2.191,0.032,2.658-0.968
			c0.226-0.484,0.25-1.027,0.067-1.529s-0.55-0.903-1.034-1.129h0C6.618,16.406,6.331,16.343,6.042,16.343z"/>
	</g>
</g>
</svg>






