<?xml version="1.0" encoding="iso-8859-1"?>
<svg version="1.1" id="&#x56FE;&#x5C42;_1" xmlns="http://www.w3.org/2000/svg" xmlns:xlink="http://www.w3.org/1999/xlink" x="0px"
	 y="0px" viewBox="0 0 24 24" style="enable-background:new 0 0 24 24;" xml:space="preserve">
<path style="fill:none;" d="M17.25,3.5l-2.5,3.75C14.25,6.984,13.25,6.5,12,6.5c-3,0-5.5,2.5-5.5,5.25s2,5.75,5.5,5.75
	c2.8,0,4.75-2,4.75-3.5H12v-3.5c3.5,0,10,0,10,0c0.25,3.75-0.855,5.95-2.25,7.75C17.662,20.944,14.586,22,12,22C7,22,2,18,2,11.75
	C2,5.75,7.362,2,11.5,2S17.25,3.5,17.25,3.5z"/>
<path style="fill:#333333;" d="M14.75,7.25l-0.469,0.883c0.454,0.241,1.016,0.099,1.301-0.328L14.75,7.25z M17.25,3.5l0.832,0.555
	c0.272-0.408,0.208-0.953-0.151-1.287L17.25,3.5z M22,10.5l0.998-0.067C22.963,9.908,22.526,9.5,22,9.5L22,10.5z M12,10.5v-1
	c-0.265,0-0.52,0.105-0.707,0.293C11.105,9.981,11,10.235,11,10.5H12z M12,14h-1c0,0.552,0.448,1,1,1V14z M16.75,14h1
	c0-0.552-0.448-1-1-1V14z M19.75,18.25l-0.79-0.613l0,0L19.75,18.25z M15.582,7.805l2.5-3.75l-1.664-1.109l-2.5,3.75L15.582,7.805z
	 M17.25,3.5c0.681-0.732,0.681-0.732,0.68-0.733c0,0-0.001-0.001-0.001-0.001c-0.001-0.001-0.001-0.001-0.002-0.002
	c-0.001-0.001-0.003-0.003-0.005-0.004c-0.003-0.003-0.007-0.006-0.011-0.01c-0.008-0.007-0.018-0.016-0.03-0.026
	c-0.023-0.02-0.054-0.045-0.091-0.074c-0.075-0.059-0.178-0.135-0.311-0.222c-0.267-0.174-0.654-0.392-1.175-0.604
	C15.259,1.398,13.693,1,11.5,1v2c1.945,0,3.254,0.352,4.049,0.676c0.399,0.163,0.674,0.32,0.838,0.427
	c0.082,0.054,0.137,0.095,0.167,0.118c0.015,0.012,0.023,0.019,0.026,0.021c0.001,0.001,0.001,0.001-0.001-0.001
	c-0.001-0.001-0.002-0.002-0.004-0.004c-0.001-0.001-0.002-0.002-0.003-0.003c-0.001,0-0.001-0.001-0.002-0.001
	c0,0-0.001-0.001-0.001-0.001C16.569,4.232,16.569,4.232,17.25,3.5z M11.5,1C9.153,1,6.545,2.051,4.526,3.885
	C2.489,5.735,1,8.431,1,11.75h2c0-2.681,1.192-4.86,2.871-6.385C7.567,3.824,9.709,3,11.5,3V1z M1,11.75C1,18.6,6.497,23,12,23v-2
	c-4.497,0-9-3.6-9-9.25H1z M22,10.5c0-1,0-1,0-1c0,0,0,0,0,0c0,0,0,0-0.001,0c-0.001,0-0.002,0-0.004,0c-0.003,0-0.008,0-0.014,0
	c-0.012,0-0.031,0-0.055,0c-0.048,0-0.12,0-0.212,0c-0.185,0-0.452,0-0.784,0c-0.664,0-1.586,0-2.617,0c-2.062,0-4.562,0-6.312,0v2
	c1.75,0,4.25,0,6.312,0c1.031,0,1.953,0,2.617,0c0.332,0,0.6,0,0.784,0c0.092,0,0.164,0,0.212,0c0.024,0,0.043,0,0.055,0
	c0.006,0,0.011,0,0.014,0c0.002,0,0.003,0,0.004,0c0,0,0.001,0,0.001,0c0,0,0,0,0,0S22,11.5,22,10.5z M11,10.5V14h2v-3.5H11z M12,15
	h4.75v-2H12V15z M15.75,14c0,0.349-0.261,0.966-0.96,1.54c-0.666,0.547-1.632,0.96-2.79,0.96v2c1.641,0,3.051-0.587,4.059-1.415
	c0.976-0.801,1.691-1.934,1.691-3.085H15.75z M12,16.5c-2.809,0-4.5-2.402-4.5-4.75h-2c0,3.152,2.309,6.75,6.5,6.75V16.5z
	 M7.5,11.75C7.5,9.582,9.522,7.5,12,7.5v-2c-3.522,0-6.5,2.918-6.5,6.25H7.5z M12,7.5c1,0,1.823,0.39,2.281,0.633l0.939-1.766
	C14.677,6.079,13.5,5.5,12,5.5V7.5z M12,23c2.836,0,6.23-1.156,8.54-4.138l-1.581-1.225C17.094,20.044,14.335,21,12,21V23z
	 M20.54,18.863c1.519-1.959,2.726-4.395,2.457-8.429l-1.996,0.133c0.231,3.467-0.771,5.431-2.043,7.071L20.54,18.863z"/>
</svg>






