<?xml version="1.0" encoding="iso-8859-1"?>
<svg version="1.1" id="&#x56FE;&#x5C42;_1" xmlns="http://www.w3.org/2000/svg" xmlns:xlink="http://www.w3.org/1999/xlink" x="0px"
	 y="0px" viewBox="0 0 24 24" style="enable-background:new 0 0 24 24;" xml:space="preserve">
<path style="fill:#333333;" d="M12,13.414l-6-6V7c0-3.309,2.691-6,6-6s6,2.691,6,6v0.414L12,13.414z M8.02,6.605L12,10.586
	l3.98-3.981C15.781,4.584,14.072,3,12,3S8.218,4.584,8.02,6.605z"/>
<path style="fill:#333333;" d="M7.414,18H7c-3.309,0-6-2.691-6-6s2.691-6,6-6h0.414l6,6L7.414,18z M6.605,8.02
	C4.584,8.218,3,9.928,3,12s1.584,3.781,3.605,3.98L10.586,12L6.605,8.02z"/>
<path style="fill:#333333;" d="M17,18h-0.414l-6-6l6-6H17c3.309,0,6,2.691,6,6S20.309,18,17,18z M13.414,12l3.98,3.98
	C19.416,15.781,21,14.072,21,12s-1.584-3.782-3.605-3.98L13.414,12z"/>
<path style="fill:#333333;" d="M12,23c-3.309,0-6-2.691-6-6v-0.414l6-6l6,6V17C18,20.309,15.309,23,12,23z M8.02,17.395
	C8.218,19.416,9.928,21,12,21s3.781-1.584,3.98-3.605L12,13.414L8.02,17.395z"/>
</svg>






