<?xml version="1.0" encoding="iso-8859-1"?>
<svg version="1.1" id="&#x56FE;&#x5C42;_1" xmlns="http://www.w3.org/2000/svg" xmlns:xlink="http://www.w3.org/1999/xlink" x="0px"
	 y="0px" viewBox="0 0 24 24" style="enable-background:new 0 0 24 24;" xml:space="preserve">
<path style="fill:#333333;" d="M7.228,14.921C5.207,13.417,4,11.016,4,8.5c0-4.411,3.589-8,8-8s8,3.589,8,8
	c0,2.512-1.146,4.828-3.143,6.356l-1.215-1.588C17.141,12.122,18,10.384,18,8.5c0-3.309-2.691-6-6-6s-6,2.691-6,6
	c0,1.916,0.883,3.671,2.422,4.817L7.228,14.921z"/>
<path style="fill:#333333;" d="M22,23H2l-0.804-1.596L12,6.82l10.804,14.584L22,23z M3.985,21h16.029L12,10.18L3.985,21z"/>
</svg>






