<?xml version="1.0" encoding="iso-8859-1"?>
<svg version="1.1" id="&#x56FE;&#x5C42;_1" xmlns="http://www.w3.org/2000/svg" xmlns:xlink="http://www.w3.org/1999/xlink" x="0px"
	 y="0px" viewBox="0 0 24 24" style="enable-background:new 0 0 24 24;" xml:space="preserve">
<path style="fill:#333333;" d="M20.252,8.4C18.818,5.12,15.579,3,12,3C8.42,3,5.182,5.12,3.749,8.4L1.916,7.6
	C3.667,3.59,7.625,1,12,1c4.374,0,8.333,2.59,10.084,6.6L20.252,8.4z"/>
<path style="fill:#333333;" d="M13,22h-2c0-2.425-0.95-4.699-2.675-6.402l-0.267-0.265L8.03,14.959C8.01,14.688,8,14.416,8,14.142
	c0-2.98,1.172-5.77,3.3-7.856L12,5.6l0.7,0.686c2.128,2.086,3.3,4.876,3.3,7.856c0,0.275-0.01,0.549-0.03,0.819l-0.028,0.373
	l-0.266,0.264C13.95,17.302,13,19.575,13,22z M10.005,14.456c0.831,0.88,1.501,1.874,1.995,2.945
	c0.494-1.071,1.163-2.065,1.995-2.945C13.998,14.352,14,14.247,14,14.142c0-2.089-0.704-4.063-2-5.659c-1.296,1.596-2,3.57-2,5.659
	C10,14.247,10.002,14.352,10.005,14.456z"/>
<path style="fill:#333333;" d="M13,23h-1C5.935,23,1,18.065,1,12v-1h1c2.913,0,5.658,1.127,7.73,3.175
	C11.839,16.257,13,19.036,13,22V23z M3.062,13.062c0.486,4.116,3.76,7.391,7.876,7.876c-0.236-2.021-1.143-3.888-2.614-5.34
	C6.884,14.174,5.045,13.294,3.062,13.062z"/>
<path style="fill:#333333;" d="M12,23h-1v-1c0-2.964,1.161-5.743,3.27-7.826C16.342,12.127,19.087,11,22,11h1v1
	C23,18.065,18.065,23,12,23z M20.938,13.062c-1.982,0.232-3.821,1.112-5.262,2.535c-1.471,1.453-2.379,3.32-2.614,5.341
	C17.178,20.452,20.452,17.178,20.938,13.062z"/>
</svg>






