<?xml version="1.0" encoding="iso-8859-1"?>
<svg version="1.1" id="&#x56FE;&#x5C42;_1" xmlns="http://www.w3.org/2000/svg" xmlns:xlink="http://www.w3.org/1999/xlink" x="0px"
	 y="0px" viewBox="0 0 24 24" style="enable-background:new 0 0 24 24;" xml:space="preserve">
<path style="fill:#333333;" d="M13.5,13c-1.93,0-3.5-1.57-3.5-3.5S11.57,6,13.5,6S17,7.57,17,9.5S15.43,13,13.5,13z M13.5,8
	C12.673,8,12,8.673,12,9.5s0.673,1.5,1.5,1.5S15,10.327,15,9.5S14.327,8,13.5,8z"/>
<polygon style="fill:#333333;" points="4.94,22.342 3.06,21.658 5.06,16.158 6.316,15.552 9.825,16.721 10.539,14.226 
	12.462,14.774 11.461,18.274 10.184,18.948 6.607,17.757 "/>
<path style="fill:#333333;" d="M17.505,23h-5.29c-0.921,0-1.719-0.625-1.94-1.52l-0.749-3.257l1.949-0.447l0.745,3.24L17.505,21V23z
	"/>
<polygon style="fill:#333333;" points="11.149,15.437 3.149,12.437 3.851,10.563 7.528,11.943 6.293,10.707 6.006,10.11 5.506,5.61 
	7.494,5.39 7.955,9.541 12.207,13.793 "/>
<path style="fill:#333333;" d="M23,16h-2C21,4.004,14.825,3,8.5,3H6V1h2.5C13.567,1,23,1,23,16z"/>
</svg>






