<?xml version="1.0" encoding="iso-8859-1"?>
<svg version="1.1" id="&#x56FE;&#x5C42;_1" xmlns="http://www.w3.org/2000/svg" xmlns:xlink="http://www.w3.org/1999/xlink" x="0px"
	 y="0px" viewBox="0 0 24 24" style="enable-background:new 0 0 24 24;" xml:space="preserve">
<rect x="2" y="4" style="fill:#333333;" width="2" height="16"/>
<rect x="11" y="4" style="fill:#333333;" width="2" height="16"/>
<rect x="3.5" y="11" style="fill:#333333;" width="8" height="2"/>
<path style="fill:#333333;" d="M21,21h-6v-1c0-1.655,1.371-2.973,2.697-4.246C18.829,14.666,20,13.541,20,12.5
	c0-1.023-0.896-1.5-1.5-1.5S17,11.477,17,12.5h-2c0-2.162,1.816-3.5,3.5-3.5s3.5,1.338,3.5,3.5c0,1.893-1.55,3.382-2.917,4.695
	c-0.634,0.608-1.279,1.229-1.681,1.805H21V21z"/>
</svg>






