<?xml version="1.0" encoding="iso-8859-1"?>
<svg version="1.1" id="&#x56FE;&#x5C42;_1" xmlns="http://www.w3.org/2000/svg" xmlns:xlink="http://www.w3.org/1999/xlink" x="0px"
	 y="0px" viewBox="0 0 24 24" style="enable-background:new 0 0 24 24;" xml:space="preserve">
<rect x="2" y="4" style="fill:#333333;" width="2" height="16"/>
<rect x="11" y="4" style="fill:#333333;" width="2" height="16"/>
<rect x="3.5" y="11" style="fill:#333333;" width="8" height="2"/>
<path style="fill:#333333;" d="M18.5,21c-1.281,0-2.433-0.489-3.24-1.377l1.48-1.346C17.04,18.607,17.588,19,18.5,19
	c0.685,0,1.5-0.26,1.5-1.5c0-1.74-1.566-2-2.5-2l-0.789-1.614L18.955,11H16V9h5l0.789,1.614l-2.458,3.161
	C20.996,14.325,22,15.668,22,17.5C22,19.918,20.242,21,18.5,21z"/>
</svg>






