<?xml version="1.0" encoding="iso-8859-1"?>
<svg version="1.1" id="&#x56FE;&#x5C42;_1" xmlns="http://www.w3.org/2000/svg" xmlns:xlink="http://www.w3.org/1999/xlink" x="0px"
	 y="0px" viewBox="0 0 24 24" style="enable-background:new 0 0 24 24;" xml:space="preserve">
<path style="fill:#333333;" d="M16.603,14.396c-0.229,0-0.459-0.015-0.689-0.044L5.44,13.001c-0.535-0.067-0.94-0.527-0.94-1.07
	V6.069c0-0.543,0.406-1.003,0.944-1.07l10.469-1.351c1.542-0.199,3.09,0.276,4.254,1.3C21.332,5.972,22,7.449,22,9
	s-0.668,3.028-1.833,4.052C19.177,13.924,17.907,14.396,16.603,14.396z M6.5,11.121l9.669,1.248c0.97,0.13,1.944-0.174,2.678-0.818
	C19.58,10.906,20,9.976,20,9s-0.42-1.906-1.153-2.55s-1.707-0.944-2.678-0.818L6.5,6.879V11.121z M5.692,11.017L5.7,11.018
	C5.697,11.017,5.695,11.017,5.692,11.017z M5.704,6.982L5.696,6.983C5.699,6.983,5.701,6.982,5.704,6.982z"/>
<polygon style="fill:#333333;" points="1,15.724 1,2.277 5.996,5.132 5.004,6.868 3,5.723 3,12.276 5.004,11.132 5.996,12.868 "/>
<path style="fill:#333333;" d="M13.317,23c-1.188,0-2.289-0.591-2.945-1.58c-0.657-0.988-0.773-2.232-0.312-3.326l2.518-5.981
	l1.844,0.775l-2.519,5.982c-0.203,0.482-0.154,1.009,0.136,1.444C12.328,20.75,12.794,21,13.317,21c0.618,0,1.174-0.369,1.415-0.939
	l3.346-7.948l1.844,0.775l-3.347,7.949C16.021,22.151,14.742,23,13.317,23z"/>
<path style="fill:#333333;" d="M17.5,14.5c-3.032,0-5.5-2.468-5.5-5.5c0-3.033,2.468-5.5,5.5-5.5S23,5.967,23,9
	C23,12.032,20.532,14.5,17.5,14.5z M17.5,5.5C15.57,5.5,14,7.07,14,9s1.57,3.5,3.5,3.5S21,10.93,21,9S19.43,5.5,17.5,5.5z"/>
</svg>






