<?xml version="1.0" encoding="iso-8859-1"?>
<svg version="1.1" id="&#x56FE;&#x5C42;_1" xmlns="http://www.w3.org/2000/svg" xmlns:xlink="http://www.w3.org/1999/xlink" x="0px"
	 y="0px" viewBox="0 0 24 24" style="enable-background:new 0 0 24 24;" xml:space="preserve">
<g>
	<defs>
		<rect id="SVGID_1_" width="24" height="24"/>
	</defs>
	<clipPath id="SVGID_00000024708747952821222550000014528196817072678316_">
		<use xlink:href="#SVGID_1_"  style="overflow:visible;"/>
	</clipPath>
	<g style="clip-path:url(#SVGID_00000024708747952821222550000014528196817072678316_);">
		<path style="fill:#333333;" d="M2.617,18.484l-0.634-1.896c0.024-0.008,2.394-0.805,4.183-1.773
			c1.629-0.883,1.968-1.066,3.558-5.213c1.508-3.938,5.426-7.194,9.526-7.917l0.348,1.97c-2.907,0.512-6.591,2.966-8.006,6.663
			c-1.629,4.25-2.172,5.01-4.473,6.256C5.173,17.627,2.72,18.45,2.617,18.484z"/>
		<path style="fill:#333333;" d="M12.582,19.062c-0.739,0-1.515-0.271-2.254-0.788c-1.104-0.773-3.396-1.824-4.993-0.864
			l-1.031-1.713c2.315-1.393,5.311-0.364,7.172,0.938c0.418,0.293,0.836,0.442,1.161,0.426c0.265-0.015,0.469-0.137,0.642-0.384
			c0.174-0.248,0.218-0.48,0.142-0.734c-0.096-0.317-0.379-0.653-0.796-0.945c-0.089-0.062-0.204-0.134-0.336-0.217
			c-1.037-0.652-3.792-2.386-2.546-5.224l1.831,0.804c-0.462,1.054,0.303,1.798,1.78,2.727c0.163,0.104,0.306,0.193,0.417,0.271
			c0.795,0.557,1.335,1.25,1.563,2.005c0.254,0.84,0.105,1.714-0.417,2.46c-0.523,0.748-1.294,1.186-2.17,1.234
			C12.691,19.062,12.637,19.062,12.582,19.062z"/>
		<path style="fill:#333333;" d="M13.324,13.927l-1.894-0.643c2.038-6.008,4.171-8.041,9.926-9.456l0.478,1.942
			C17.056,6.946,15.259,8.224,13.324,13.927z"/>
		<path style="fill:#333333;" d="M8.428,21.369c-0.115-1.796,1.025-4.334,1.155-4.618l1.817,0.836
			c-0.411,0.894-1.039,2.676-0.977,3.655L8.428,21.369z"/>
	</g>
</g>
</svg>






