<?xml version="1.0" encoding="iso-8859-1"?>
<svg version="1.1" id="&#x56FE;&#x5C42;_1" xmlns="http://www.w3.org/2000/svg" xmlns:xlink="http://www.w3.org/1999/xlink" x="0px"
	 y="0px" viewBox="0 0 24 24" style="enable-background:new 0 0 24 24;" xml:space="preserve">
<path style="fill:#333333;" d="M10.95,17.383c-1.042,0-1.919-0.324-2.559-0.964l1.414-1.414c0.461,0.46,1.444,0.499,2.634,0.102
	c1.458-0.486,3.034-1.526,4.438-2.93c1.403-1.404,2.443-2.979,2.93-4.438c0.396-1.189,0.358-2.173-0.102-2.633l1.414-1.414
	c1.037,1.037,1.245,2.699,0.585,4.68c-0.582,1.747-1.794,3.601-3.413,5.219c-1.618,1.619-3.472,2.831-5.22,3.413
	C12.312,17.257,11.599,17.383,10.95,17.383z"/>
<rect x="13.048" y="3.191" transform="matrix(0.7074 -0.7069 0.7069 0.7074 1.5019 11.0101)" style="fill:#333333;" width="2" height="1"/>
<rect x="10.573" y="5.666" transform="matrix(0.7071 -0.7071 0.7071 0.7071 -0.9703 9.9895)" style="fill:#333333;" width="2" height="1"/>
<rect x="8.452" y="8.495" transform="matrix(0.7071 -0.7071 0.7071 0.7071 -3.5918 9.3178)" style="fill:#333333;" width="2" height="1"/>
<rect x="7.745" y="12.03" transform="matrix(0.7071 -0.7071 0.7071 0.7071 -6.299 9.8534)" style="fill:#333333;" width="2" height="1"/>
<rect x="16.938" y="2.131" transform="matrix(0.7071 -0.7071 0.7071 0.7071 3.3935 13.4543)" style="fill:#333333;" width="2" height="1"/>
<rect x="16.583" y="6.227" transform="matrix(0.7069 -0.7074 0.7074 0.7069 0.0423 14.5562)" style="fill:#333333;" width="2" height="2"/>
<rect x="14.109" y="8.701" transform="matrix(0.7069 -0.7074 0.7074 0.7069 -2.4335 13.5312)" style="fill:#333333;" width="2" height="2"/>
<rect x="11.28" y="10.823" transform="matrix(0.7072 -0.707 0.707 0.7072 -4.7634 12.1434)" style="fill:#333333;" width="2" height="2"/>
<path style="fill:#333333;" d="M5.209,22.1c-0.64,0-1.28-0.243-1.767-0.729c-0.473-0.474-0.733-1.102-0.733-1.77
	c0-0.667,0.26-1.295,0.732-1.768l2.829-2.828c0.943-0.945,2.591-0.945,3.535,0l0,0l0,0h0c0.974,0.975,0.974,2.561,0,3.535
	l-2.828,2.829C6.49,21.855,5.849,22.1,5.209,22.1z M8.038,16.272c-0.077,0-0.226,0.019-0.353,0.146l-2.829,2.828
	c-0.127,0.128-0.146,0.276-0.146,0.354c0,0.078,0.019,0.227,0.146,0.354c0.195,0.193,0.513,0.193,0.708-0.001l2.828-2.828
	c0.127-0.128,0.146-0.276,0.146-0.354s-0.019-0.226-0.146-0.354h0C8.264,16.291,8.115,16.272,8.038,16.272z"/>
</svg>






