<?xml version="1.0" encoding="iso-8859-1"?>
<svg version="1.1" id="&#x56FE;&#x5C42;_1" xmlns="http://www.w3.org/2000/svg" xmlns:xlink="http://www.w3.org/1999/xlink" x="0px"
	 y="0px" viewBox="0 0 24 24" style="enable-background:new 0 0 24 24;" xml:space="preserve">
<path style="fill:#333333;" d="M9.033,23c-1.377,0-2.544-1.031-2.715-2.397l-1.187-9.494l1.984-0.248l1.187,9.494
	C8.348,20.723,8.662,21,9.033,21c0.29,0,0.47-0.156,0.553-0.249c0.082-0.093,0.214-0.292,0.178-0.579l-1.159-9.276l1.984-0.248
	l1.159,9.276c0.098,0.778-0.144,1.562-0.663,2.15C10.565,22.663,9.818,23,9.033,23z"/>
<path style="fill:#333333;" d="M6.5,12c-0.155,0-0.308-0.006-0.459-0.019C3.214,11.747,1,9.339,1,6.5C1,3.467,3.467,1,6.5,1
	l0.144,0.01L23,3.385V9.6L9.758,11.759C8.353,11.921,7.272,12,6.5,12z M6.432,3C4.533,3.037,3,4.593,3,6.5
	c0,1.807,1.408,3.339,3.206,3.488C6.303,9.996,6.401,10,6.5,10c0.697,0,1.7-0.075,2.983-0.222L21,7.9V5.115L6.432,3z"/>
<rect x="17.5" y="4.1" style="fill:#333333;" width="2" height="4.8"/>
<rect x="15.758" y="8.255" transform="matrix(0.9869 -0.1612 0.1612 0.9869 -1.2445 3.1666)" style="fill:#333333;" width="6.283" height="2"/>
<rect x="17.125" y="-0.228" transform="matrix(0.1437 -0.9896 0.9896 0.1437 11.872 21.0948)" style="fill:#333333;" width="2" height="7.831"/>
<path style="fill:#333333;" d="M6.5,9C5.122,9,4,7.878,4,6.5S5.122,4,6.5,4S9,5.122,9,6.5S7.878,9,6.5,9z M6.5,6
	C6.224,6,6,6.224,6,6.5S6.224,7,6.5,7S7,6.776,7,6.5S6.776,6,6.5,6z"/>
</svg>






