<?xml version="1.0" encoding="iso-8859-1"?>
<svg version="1.1" id="&#x56FE;&#x5C42;_1" xmlns="http://www.w3.org/2000/svg" xmlns:xlink="http://www.w3.org/1999/xlink" x="0px"
	 y="0px" viewBox="0 0 24 24" style="enable-background:new 0 0 24 24;" xml:space="preserve">
<path style="fill:#333333;" d="M12,15c-1.654,0-3-1.346-3-3s1.346-3,3-3s3,1.346,3,3S13.654,15,12,15z M12,11c-0.551,0-1,0.449-1,1
	c0,0.552,0.449,1,1,1c0.552,0,1-0.448,1-1C13,11.449,12.552,11,12,11z"/>
<path style="fill:#333333;" d="M7.795,9.292l-1.68-1.085c0.268-0.414,0.579-0.801,0.926-1.149c0.33-0.331,0.696-0.631,1.086-0.891
	l1.108,1.665c-0.28,0.187-0.542,0.401-0.778,0.638C8.21,8.72,7.987,8.996,7.795,9.292z"/>
<path style="fill:#333333;" d="M5.115,13.271C5.039,12.854,5,12.428,5,12c0-0.427,0.039-0.855,0.115-1.271l1.967,0.361
	C7.028,11.388,7,11.693,7,12s0.028,0.612,0.082,0.909L5.115,13.271z"/>
<path style="fill:#333333;" d="M8.128,17.832c-0.392-0.261-0.758-0.561-1.087-0.892c-0.347-0.349-0.659-0.735-0.926-1.148
	l1.681-1.084c0.19,0.295,0.414,0.571,0.663,0.821c0.235,0.236,0.497,0.451,0.778,0.639L8.128,17.832z"/>
<path style="fill:#333333;" d="M12,19c-0.462,0-0.925-0.046-1.376-0.136l0.392-1.961c0.645,0.129,1.325,0.129,1.968,0l0.393,1.961
	C12.926,18.954,12.463,19,12,19z"/>
<path style="fill:#333333;" d="M15.87,17.833l-1.105-1.666c0.278-0.186,0.54-0.399,0.777-0.638c0.248-0.249,0.472-0.526,0.663-0.822
	l1.68,1.086c-0.268,0.413-0.579,0.8-0.927,1.148C16.627,17.274,16.261,17.574,15.87,17.833z"/>
<path style="fill:#333333;" d="M18.885,13.27l-1.967-0.359C16.973,12.61,17,12.305,17,12c0-0.304-0.027-0.61-0.082-0.911
	l1.967-0.358C18.961,11.149,19,11.576,19,12C19,12.424,18.961,12.852,18.885,13.27z"/>
<path style="fill:#333333;" d="M16.205,9.293c-0.192-0.297-0.415-0.574-0.663-0.823c-0.238-0.239-0.5-0.454-0.777-0.638l1.105-1.666
	c0.389,0.258,0.755,0.558,1.088,0.891c0.347,0.348,0.658,0.734,0.927,1.148L16.205,9.293z"/>
<path style="fill:#333333;" d="M11.016,7.097l-0.392-1.961c0.903-0.181,1.852-0.181,2.752,0l-0.393,1.961
	C12.341,6.969,11.66,6.969,11.016,7.097z"/>
<path style="fill:#333333;" d="M10.766,22.932c-0.414-0.047-0.824-0.116-1.221-0.207c-0.381-0.087-0.755-0.193-1.12-0.319
	l0.65-1.891c0.299,0.103,0.604,0.189,0.916,0.261c0.326,0.074,0.659,0.131,0.997,0.168L10.766,22.932z M13.234,22.932l-0.223-1.988
	c0.338-0.037,0.671-0.094,0.996-0.168c0.312-0.071,0.618-0.158,0.917-0.261l0.65,1.891c-0.365,0.126-0.739,0.232-1.121,0.319
	C14.058,22.815,13.647,22.885,13.234,22.932z M18.519,20.861l-1.188-1.609c0.215-0.158,0.422-0.325,0.62-0.501
	c0.225-0.197,0.437-0.403,0.639-0.621l1.467,1.359c-0.247,0.267-0.508,0.52-0.781,0.761C19.034,20.464,18.78,20.668,18.519,20.861z
	 M5.481,20.861c-0.261-0.193-0.514-0.396-0.757-0.611c-0.273-0.242-0.533-0.494-0.78-0.761l1.467-1.359
	c0.202,0.218,0.415,0.425,0.638,0.621c0.198,0.175,0.405,0.343,0.621,0.501L5.481,20.861z M21.763,17.072l-1.773-0.924
	c0.131-0.251,0.25-0.51,0.357-0.774c0.097-0.239,0.186-0.486,0.262-0.739l1.914,0.578c-0.094,0.31-0.202,0.613-0.321,0.91
	C22.069,16.449,21.923,16.765,21.763,17.072z M2.236,17.071C2.077,16.764,1.93,16.448,1.8,16.124
	c-0.12-0.295-0.228-0.599-0.322-0.908l1.913-0.584c0.077,0.253,0.165,0.5,0.263,0.742c0.107,0.266,0.227,0.524,0.357,0.775
	L2.236,17.071z M23,12h-2c0-0.304-0.015-0.604-0.045-0.899c-0.03-0.307-0.075-0.607-0.136-0.902l1.961-0.397
	c0.072,0.361,0.129,0.729,0.165,1.101C22.981,11.262,23,11.629,23,12z M3,12H1c0-0.371,0.018-0.737,0.054-1.099
	c0.037-0.373,0.093-0.74,0.166-1.101l1.96,0.4c-0.061,0.294-0.105,0.595-0.136,0.899C3.015,11.396,3,11.696,3,12z M19.988,7.851
	c-0.116-0.224-0.241-0.442-0.376-0.655c-0.151-0.239-0.311-0.467-0.48-0.688l1.582-1.223c0.209,0.27,0.405,0.55,0.588,0.84
	c0.164,0.259,0.318,0.527,0.462,0.803L19.988,7.851z M4.011,7.851L2.236,6.929c0.143-0.275,0.297-0.542,0.461-0.803
	c0.184-0.291,0.38-0.571,0.589-0.84l1.582,1.223c-0.17,0.221-0.331,0.449-0.48,0.686C4.254,7.407,4.128,7.626,4.011,7.851z
	 M6.668,4.749L5.482,3.138c0.292-0.215,0.596-0.416,0.909-0.603C6.73,2.334,7.081,2.151,7.441,1.987l0.83,1.819
	C7.976,3.941,7.689,4.091,7.413,4.255C7.156,4.407,6.908,4.572,6.668,4.749z M17.331,4.749c-0.238-0.176-0.487-0.341-0.744-0.494
	c-0.276-0.164-0.562-0.314-0.857-0.448l0.828-1.82c0.361,0.165,0.712,0.348,1.051,0.549c0.313,0.187,0.617,0.388,0.91,0.603
	L17.331,4.749z M10.989,3.056l-0.224-1.987c0.811-0.093,1.66-0.092,2.47,0l-0.225,1.987C12.349,2.982,11.653,2.982,10.989,3.056z"/>
</svg>






