<?xml version="1.0" encoding="iso-8859-1"?>
<svg version="1.1" id="&#x56FE;&#x5C42;_1" xmlns="http://www.w3.org/2000/svg" xmlns:xlink="http://www.w3.org/1999/xlink" x="0px"
	 y="0px" viewBox="0 0 24 24" style="enable-background:new 0 0 24 24;" xml:space="preserve">
<path style="fill:#333333;" d="M21,11h-2v-0.5c0-3.86-3.141-7-7-7c-3.86,0-7,3.14-7,7V11H3v-0.5c0-4.962,4.038-9,9-9
	c4.963,0,9,4.038,9,9V11z"/>
<path style="fill:#333333;" d="M12,22.256c-3.149,0-6.299-0.287-7.447-0.861c-2.233-1.116-1.945-3.605-1.481-4.766l1.857,0.742L4,17
	l0.931,0.366c-0.066,0.17-0.609,1.677,0.517,2.239c1.715,0.857,11.391,0.857,13.105,0c1.164-0.582,0.546-2.167,0.519-2.234
	l1.857-0.742c0.464,1.16,0.752,3.649-1.481,4.766C18.299,21.969,15.149,22.256,12,22.256z"/>
<path style="fill:#333333;" d="M18,18.5H6c-2.481,0-4.5-2.019-4.5-4.5S3.519,9.5,6,9.5h12c2.481,0,4.5,2.019,4.5,4.5
	S20.481,18.5,18,18.5z M6,11.5c-1.378,0-2.5,1.121-2.5,2.5s1.122,2.5,2.5,2.5h12c1.379,0,2.5-1.121,2.5-2.5s-1.121-2.5-2.5-2.5H6z"
	/>
<path style="fill:#333333;" d="M5.947,15.395l-0.894-1.789l0.796-0.397c1.019-0.512,2.213-0.56,3.272-0.137l0.212,0.086
	c0.396,0.156,0.84,0.139,1.219-0.052c0.89-0.445,1.932-0.487,2.856-0.119l0.48,0.193c0.357,0.143,0.762,0.124,1.108-0.047
	c0.94-0.469,2.062-0.47,3.002-0.001l0.947,0.474l-0.895,1.789l-0.946-0.474c-0.378-0.188-0.831-0.189-1.214,0
	c-0.855,0.43-1.858,0.471-2.746,0.115l-0.48-0.193c-0.396-0.157-0.84-0.138-1.219,0.052c-0.889,0.446-1.931,0.488-2.856,0.119
	l-0.213-0.086c-0.53-0.211-1.125-0.186-1.634,0.068L5.947,15.395z"/>
<circle style="fill:#333333;" cx="8.5" cy="7.525" r="1.25"/>
<circle style="fill:#333333;" cx="11.875" cy="6.15" r="1.25"/>
</svg>






