<?xml version="1.0" encoding="iso-8859-1"?>
<svg version="1.1" id="&#x56FE;&#x5C42;_1" xmlns="http://www.w3.org/2000/svg" xmlns:xlink="http://www.w3.org/1999/xlink" x="0px"
	 y="0px" viewBox="0 0 24 24" style="enable-background:new 0 0 24 24;" xml:space="preserve">
<path style="fill:#333333;" d="M8,13H2V7c0-4.746,3.271-6,5-6h1V13z M4,11h2V3.223C5.122,3.583,4,4.528,4,7V11z"/>
<path style="fill:#333333;" d="M22,9H6V4h16V9z M8,7h12V6H8V7z"/>
<path style="fill:#333333;" d="M16.888,23H5.113l1-3H2v-6h20v1c0,1.729-0.836,5-4,5h-2.112L16.888,23z M7.887,21h6.225l-1-3H18
	c1.225,0,1.699-1.126,1.884-2H4v2h4.887L7.887,21z"/>
</svg>






