<?xml version="1.0" encoding="iso-8859-1"?>
<svg version="1.1" id="&#x56FE;&#x5C42;_1" xmlns="http://www.w3.org/2000/svg" xmlns:xlink="http://www.w3.org/1999/xlink" x="0px"
	 y="0px" viewBox="0 0 24 24" style="enable-background:new 0 0 24 24;" xml:space="preserve">
<path style="fill:#333333;" d="M12,12c-3.033,0-5.5-2.467-5.5-5.5S8.967,1,12,1c3.032,0,5.5,2.467,5.5,5.5S15.032,12,12,12z M12,3
	c-1.93,0-3.5,1.57-3.5,3.5S10.07,10,12,10s3.5-1.57,3.5-3.5S13.93,3,12,3z"/>
<path style="fill:#333333;" d="M23,22h-2V3.875C21,3.392,20.607,3,20.125,3S19.25,3.392,19.25,3.875V14
	c0,0.931-0.434,1.43-0.797,1.685c-1.002,0.704-2.535,0.294-3.902-0.199C13.237,15.012,12.01,15,11.998,15
	c-5.742,0-8.748,4.557-8.748,7h-2c0-3.758,4.09-9,10.75-9c0.063,0,1.574,0.007,3.229,0.604c1.323,0.477,1.839,0.482,2.019,0.453
	c0.001-0.016,0.002-0.035,0.002-0.058V3.875C17.25,2.29,18.54,1,20.125,1S23,2.289,23,3.875V22z"/>
<rect x="1" y="21" style="fill:#333333;" width="22" height="2"/>
</svg>






