<?xml version="1.0" encoding="iso-8859-1"?>
<svg version="1.1" id="&#x56FE;&#x5C42;_1" xmlns="http://www.w3.org/2000/svg" xmlns:xlink="http://www.w3.org/1999/xlink" x="0px"
	 y="0px" viewBox="0 0 24 24" style="enable-background:new 0 0 24 24;" xml:space="preserve">
<rect x="11" y="2" style="fill:#333333;" width="2" height="3.5"/>
<polygon style="fill:#333333;" points="15.5,8.5 13.5,8.5 13.5,6.5 10.5,6.5 10.5,8.5 8.5,8.5 8.5,4.5 15.5,4.5 "/>
<path style="fill:#333333;" d="M8.5,4h-2c0-1.822,1.334-3,3.4-3h5.6v2H9.9C8.5,3,8.5,3.727,8.5,4z"/>
<path style="fill:#333333;" d="M12,23H9.5C6.467,23,4,20.532,4,17.5V13c0-3.033,2.467-5.5,5.5-5.5h5c3.032,0,5.5,2.467,5.5,5.5
	v0.488h-2V13c0-1.93-1.57-3.5-3.5-3.5h-5C7.57,9.5,6,11.07,6,13v4.5C6,19.43,7.57,21,9.5,21H12V23z"/>
<path style="fill:#333333;" d="M17.75,23c-1.792,0-3.25-1.397-3.25-3.115c0-1.524,1.722-4.385,3.25-4.385S21,18.36,21,19.885
	C21,21.603,19.542,23,17.75,23z M17.75,17.589c-0.471,0.416-1.25,1.666-1.25,2.296C16.5,20.5,17.061,21,17.75,21S19,20.5,19,19.885
	C19,19.255,18.221,18.005,17.75,17.589z M17.914,17.473L17.914,17.473z M17.586,17.473L17.586,17.473L17.586,17.473z"/>
</svg>






