<?xml version="1.0" encoding="iso-8859-1"?>
<svg version="1.1" id="&#x56FE;&#x5C42;_1" xmlns="http://www.w3.org/2000/svg" xmlns:xlink="http://www.w3.org/1999/xlink" x="0px"
	 y="0px" viewBox="0 0 24 24" style="enable-background:new 0 0 24 24;" xml:space="preserve">
<path style="fill:#333333;" d="M6.013,21.486h-5v-13h5V21.486z M3.013,19.486h1v-9h-1V19.486z"/>
<path style="fill:#333333;" d="M13.479,21.487H4.013V9.046l0.325-0.297c3.609-3.303,5.644-5.146,6.22-5.635
	c0.7-0.594,1.528-0.758,2.216-0.439c0.464,0.214,1.242,0.836,1.242,2.589c0,1.381-0.972,2.344-1.752,3.117
	c-0.036,0.036-0.075,0.074-0.114,0.113c1.641,0.001,4.433-0.001,8.36-0.004c0.001,0,0.002,0,0.003,0c1.378,0,2.499,1.12,2.501,2.498
	c0,1.382-1.123,2.505-2.503,2.505h-3.145c-0.521,3.428-0.814,5.337-0.876,5.679C16.283,20.323,15.271,21.487,13.479,21.487z
	 M6.013,19.487h7.466c0.855,0,1.014-0.514,1.042-0.671c0.035-0.197,0.212-1.302,0.997-6.476l0.129-0.85h4.863
	c0.277,0,0.503-0.226,0.503-0.502c0-0.18-0.093-0.299-0.147-0.354s-0.173-0.146-0.354-0.146h-0.001
	C9.904,10.499,9.899,10.5,9.589,10.108L9.373,9.835V9.487c0-1.058,0.788-1.838,1.483-2.527c0.57-0.565,1.16-1.149,1.16-1.696
	c0-0.352-0.045-0.565-0.085-0.686c-0.023,0.016-0.05,0.036-0.078,0.061C11.32,5.09,9.356,6.869,6.013,9.927V19.487z"/>
</svg>






