<?xml version="1.0" encoding="iso-8859-1"?>
<svg version="1.1" id="&#x56FE;&#x5C42;_1" xmlns="http://www.w3.org/2000/svg" xmlns:xlink="http://www.w3.org/1999/xlink" x="0px"
	 y="0px" viewBox="0 0 24 24" style="enable-background:new 0 0 24 24;" xml:space="preserve">
<path style="fill:#333333;" d="M12,23C5.935,23,1,18.065,1,12S5.935,1,12,1s11,4.935,11,11S18.065,23,12,23z M12,3
	c-4.962,0-9,4.038-9,9c0,4.963,4.038,9,9,9c4.963,0,9-4.037,9-9C21,7.038,16.963,3,12,3z"/>
<path style="fill:#333333;" d="M16.026,12.5h-8.24l-0.232-0.675c-0.418-1.217-0.363-3.446,1.562-4.248l0,0
	c0.678-0.282,1.389-0.438,2.016-0.574c0.419-0.091,1.031-0.225,1.265-0.354c0.04-0.507,0.354-0.926,0.822-1.083
	c0.979-0.327,2.131,0.619,2.817,1.53c1.213,1.607,1.32,3.465,0.288,4.969L16.026,12.5z M9.349,10.5h5.559
	c0.165-0.421,0.164-0.864-0.001-1.341c-0.196-0.568-0.562-1.021-0.874-1.311c-0.549,0.688-1.624,0.923-2.475,1.109
	c-0.571,0.125-1.162,0.253-1.674,0.467l0,0C9.451,9.604,9.346,10.083,9.349,10.5z"/>
<path style="fill:#333333;" d="M18.5,16.5h-13v-6h13V16.5z M7.5,14.5h9v-2h-9V14.5z"/>
</svg>






