<?xml version="1.0" encoding="iso-8859-1"?>
<svg version="1.1" id="&#x56FE;&#x5C42;_1" xmlns="http://www.w3.org/2000/svg" xmlns:xlink="http://www.w3.org/1999/xlink" x="0px"
	 y="0px" viewBox="0 0 24 24" style="enable-background:new 0 0 24 24;" xml:space="preserve">
<path style="fill:#333333;" d="M21.5,23h-13v-5h13V23z M10.5,21h9v-1h-9V21z"/>
<path style="fill:#333333;" d="M21.5,20H9.06l-0.297-0.325c-3.31-3.617-5.154-5.652-5.636-6.221
	c-0.593-0.697-0.758-1.526-0.439-2.214c0.215-0.464,0.836-1.242,2.589-1.242c1.381,0,2.344,0.971,3.117,1.752
	c0.036,0.036,0.074,0.074,0.113,0.114c0.001-1.447,0-3.998-0.005-8.361C8.5,2.124,9.621,1.001,11,1c1.381,0,2.504,1.123,2.504,2.502
	v3.145c3.487,0.53,5.349,0.817,5.679,0.876C20.336,7.73,21.5,8.741,21.5,10.534V20z M9.94,18h9.56v-7.466
	c0-0.855-0.514-1.014-0.671-1.042c-0.334-0.06-2.513-0.395-6.476-0.996l-0.85-0.129V3.502C11.504,3.225,11.279,3,11.002,3
	c-0.275,0-0.5,0.225-0.5,0.501c0.012,10.612,0.012,10.612-0.38,10.922l-0.273,0.217H9.5c-1.058,0-1.839-0.788-2.527-1.483
	c-0.565-0.569-1.149-1.159-1.696-1.159c-0.352,0-0.565,0.045-0.685,0.085c0.016,0.022,0.036,0.049,0.06,0.077
	C5.103,12.693,6.834,14.604,9.94,18z"/>
</svg>






