<?xml version="1.0" encoding="iso-8859-1"?>
<svg version="1.1" id="&#x56FE;&#x5C42;_1" xmlns="http://www.w3.org/2000/svg" xmlns:xlink="http://www.w3.org/1999/xlink" x="0px"
	 y="0px" viewBox="0 0 24 24" style="enable-background:new 0 0 24 24;" xml:space="preserve">
<polygon style="fill:#333333;" points="22,23 2,23 2,9 4,9 4,21 20,21 20,9 22,9 "/>
<path style="fill:#333333;" d="M22,10H2V1h20V10z M4,8h16V3H4V8z"/>
<rect x="7" y="13.5" style="fill:#333333;" width="2" height="4"/>
<rect x="6" y="14.5" style="fill:#333333;" width="4" height="2"/>
<path style="fill:#333333;" d="M16,18.5c-1.654,0-3-1.346-3-3s1.346-3,3-3s3,1.346,3,3S17.654,18.5,16,18.5z M16,14.5
	c-0.552,0-1,0.448-1,1s0.448,1,1,1s1-0.448,1-1S16.552,14.5,16,14.5z"/>
</svg>






