<?xml version="1.0" encoding="iso-8859-1"?>
<svg version="1.1" id="&#x56FE;&#x5C42;_1" xmlns="http://www.w3.org/2000/svg" xmlns:xlink="http://www.w3.org/1999/xlink" x="0px"
	 y="0px" viewBox="0 0 24 24" style="enable-background:new 0 0 24 24;" xml:space="preserve">
<path style="fill:#333333;" d="M15.526,6h-13V1h13V6z M4.526,4h9V3h-9V4z"/>
<path style="fill:#333333;" d="M13.027,23c-1.382,0-2.505-1.122-2.505-2.502v-3.146c-3.54-0.537-5.352-0.816-5.679-0.875
	c-1.153-0.207-2.317-1.219-2.317-3.012V4h12.44l0.297,0.325c3.249,3.549,5.145,5.641,5.637,6.22
	c0.593,0.699,0.758,1.527,0.439,2.216c-0.215,0.463-0.837,1.241-2.59,1.241c-1.381,0-2.344-0.972-3.116-1.752
	c-0.036-0.036-0.074-0.074-0.113-0.114c-0.001,1.417-0.001,3.937,0.004,8.361C15.526,21.875,14.406,22.998,13.027,23z M4.526,6
	v7.465c0,0.856,0.513,1.015,0.671,1.043c0.33,0.06,2.448,0.385,6.475,0.996l0.85,0.129v4.864c0,0.41,0.565,0.646,0.856,0.354
	c0.054-0.055,0.146-0.173,0.146-0.354C13.514,9.9,13.514,9.9,13.888,9.59l0.277-0.231h0.361c1.059,0,1.839,0.788,2.527,1.483
	c0.565,0.57,1.149,1.159,1.696,1.159c0.352,0,0.565-0.045,0.686-0.084c-0.017-0.023-0.036-0.049-0.06-0.078
	c-0.461-0.542-2.24-2.506-5.29-5.839H4.526z"/>
</svg>






