<?xml version="1.0" encoding="iso-8859-1"?>
<svg version="1.1" id="&#x56FE;&#x5C42;_1" xmlns="http://www.w3.org/2000/svg" xmlns:xlink="http://www.w3.org/1999/xlink" x="0px"
	 y="0px" viewBox="0 0 24 24" style="enable-background:new 0 0 24 24;" xml:space="preserve">
<path style="fill:#333333;" d="M12,23C5.935,23,1,18.065,1,12S5.935,1,12,1s11,4.935,11,11S18.065,23,12,23z M12,3
	c-4.962,0-9,4.038-9,9c0,4.963,4.038,9,9,9c4.963,0,9-4.037,9-9C21,7.038,16.963,3,12,3z"/>
<path style="fill:#333333;" d="M12.396,12.5H8v-7h4.396C14.383,5.5,16,7.07,16,9S14.383,12.5,12.396,12.5z M10,10.5h2.396
	C13.28,10.5,14,9.827,14,9s-0.72-1.5-1.604-1.5H10V10.5z"/>
<path style="fill:#333333;" d="M13.415,18.5H8v-8h5.415c1.977,0,3.585,1.794,3.585,4S15.392,18.5,13.415,18.5z M10,16.5h3.415
	c0.874,0,1.585-0.897,1.585-2s-0.711-2-1.585-2H10V16.5z"/>
</svg>






