<?xml version="1.0" encoding="iso-8859-1"?>
<svg version="1.1" id="&#x56FE;&#x5C42;_1" xmlns="http://www.w3.org/2000/svg" xmlns:xlink="http://www.w3.org/1999/xlink" x="0px"
	 y="0px" viewBox="0 0 24 24" style="enable-background:new 0 0 24 24;" xml:space="preserve">
<path style="fill:#333333;" d="M18.5,9H6V7c0-2.206,1.794-4,4-4h4.5c2.206,0,4,1.794,4,4V9z M8,7h8.5c0-1.103-0.897-2-2-2H10
	C8.897,5,8,5.897,8,7z"/>
<path style="fill:#333333;" d="M21,21H3c-1.103,0-2-0.897-2-2v-7.781l11,2.75l11-2.75V19C23,20.103,22.103,21,21,21z M3,13.781V19
	h18v-5.219l-8.516,2.128c-0.317,0.08-0.652,0.08-0.971,0L3,13.781z"/>
<path style="fill:#333333;" d="M23,13.5h-2V9H3v4.5H1V9c0-1.103,0.897-2,2-2h18c1.103,0,2,0.897,2,2V13.5z"/>
<path style="fill:#333333;" d="M13.25,11.5c0,0.69-0.56,1.25-1.25,1.25s-1.25-0.56-1.25-1.25s0.56-1.25,1.25-1.25
	S13.25,10.81,13.25,11.5z"/>
</svg>






