<?xml version="1.0" encoding="iso-8859-1"?>
<svg version="1.1" id="&#x56FE;&#x5C42;_1" xmlns="http://www.w3.org/2000/svg" xmlns:xlink="http://www.w3.org/1999/xlink" x="0px"
	 y="0px" viewBox="0 0 24 24" style="enable-background:new 0 0 24 24;" xml:space="preserve">
<path style="fill:#333333;" d="M12,23C5.935,23,1,18.065,1,12S5.935,1,12,1s11,4.935,11,11S18.065,23,12,23z M12,3
	c-4.962,0-9,4.038-9,9c0,4.963,4.038,9,9,9c4.963,0,9-4.037,9-9C21,7.038,16.963,3,12,3z"/>
<rect x="3.458" y="10" transform="matrix(0.4141 -0.9102 0.9102 0.4141 -4.4465 15.0921)" style="fill:#333333;" width="12.083" height="2"/>
<rect x="9" y="12" style="fill:#333333;" width="6" height="2"/>
<rect x="13.5" y="4.958" transform="matrix(0.9104 -0.4138 0.4138 0.9104 -3.2521 6.9858)" style="fill:#333333;" width="2" height="12.083"/>
</svg>






