<?xml version="1.0" encoding="iso-8859-1"?>
<svg version="1.1" id="&#x56FE;&#x5C42;_1" xmlns="http://www.w3.org/2000/svg" xmlns:xlink="http://www.w3.org/1999/xlink" x="0px"
	 y="0px" viewBox="0 0 24 24" style="enable-background:new 0 0 24 24;" xml:space="preserve">
<path style="fill:#333333;" d="M23,21.5h-5v-13h5V21.5z M20,19.5h1v-9h-1V19.5z"/>
<path style="fill:#333333;" d="M20,21.5h-9.966c-1.792,0-2.804-1.165-3.011-2.319c-0.06-0.333-0.346-2.193-0.875-5.677H3.502
	C2.123,13.504,1,12.382,1,11.002c0.001-0.669,0.262-1.297,0.734-1.77c0.472-0.471,1.099-0.73,1.766-0.73c0.001,0,0.002,0,0.003,0
	c3.942,0.004,6.745,0.009,8.383,0.004c-0.047-0.047-0.092-0.093-0.134-0.135c-0.775-0.781-1.74-1.754-1.74-3.132
	c0-1.756,0.779-2.378,1.243-2.592c0.688-0.319,1.516-0.153,2.216,0.441c0.582,0.496,2.613,2.353,6.209,5.677L20,9.062V21.5z
	 M3.5,10.502c-0.18,0-0.299,0.091-0.354,0.146S3,10.821,3,11.001c0,0.277,0.225,0.502,0.502,0.502h4.366l0.129,0.851
	c0.6,3.959,0.934,6.137,0.995,6.473C9.02,18.985,9.179,19.5,10.034,19.5H18V9.938c-3.331-3.078-5.29-4.87-5.827-5.326
	c-0.027-0.024-0.054-0.044-0.077-0.06c-0.039,0.121-0.085,0.335-0.085,0.688c0,0.554,0.59,1.148,1.16,1.723
	c0.69,0.696,1.473,1.484,1.473,2.538v0.38l-0.253,0.285C14.081,10.514,14.079,10.513,3.5,10.502C3.5,10.502,3.5,10.502,3.5,10.502z"
	/>
</svg>






