<?xml version="1.0" encoding="iso-8859-1"?>
<svg version="1.1" id="&#x56FE;&#x5C42;_1" xmlns="http://www.w3.org/2000/svg" xmlns:xlink="http://www.w3.org/1999/xlink" x="0px"
	 y="0px" viewBox="0 0 24 24" style="enable-background:new 0 0 24 24;" xml:space="preserve">
<path style="fill:#333333;" d="M14.008,23H8.25c-2.963,0-5.746-4.055-5.746-6.5c0-1.697,0.58-2.954,1.723-3.735l1.128,1.652
	c-0.572,0.391-0.851,1.072-0.851,2.083c0,1.629,2.166,4.5,3.746,4.5h5.757c1.636,0,2.54-1.46,2.54-2.47V12.3
	c0-0.344-0.28-0.625-0.625-0.626c0,0-0.001,0-0.002,0c-0.164,0-0.318,0.063-0.435,0.179c-0.117,0.116-0.182,0.271-0.182,0.435
	l-2,0.054c0.002-0.757,0.275-1.414,0.771-1.907c0.493-0.491,1.148-0.761,1.844-0.761c0.003,0,0.006,0,0.009,0
	c1.444,0.004,2.619,1.182,2.619,2.626v6.23C18.548,20.688,16.724,23,14.008,23z"/>
<path style="fill:#333333;" d="M6.491,14.723h-2V3.831c0-1.438,1.17-2.608,2.608-2.608s2.609,1.17,2.609,2.608v7.993h-2V3.831
	c0-0.335-0.273-0.608-0.609-0.608c-0.335,0-0.608,0.273-0.608,0.608V14.723z"/>
<path style="fill:#333333;" d="M12.512,12.214h-2v-2.31c0-0.222-0.18-0.402-0.402-0.402S9.708,9.682,9.708,9.904V12h-2V9.904
	c0-1.325,1.078-2.402,2.402-2.402c1.324,0,2.402,1.078,2.402,2.402V12.214z"/>
<path style="fill:#333333;" d="M15.305,12.502h-2v-1.598c0-0.222-0.181-0.402-0.402-0.402S12.5,10.682,12.5,10.904v1.425h-2v-1.425
	c0-1.325,1.078-2.402,2.402-2.402c1.324,0,2.402,1.078,2.402,2.402V12.502z"/>
<rect x="5.5" y="3" style="fill:#333333;" width="15" height="2"/>
<polygon style="fill:#333333;" points="18.669,6.993 17.331,5.507 19.005,4 17.331,2.493 18.669,1.007 21.995,4 "/>
</svg>






