<?xml version="1.0" encoding="iso-8859-1"?>
<svg version="1.1" id="&#x56FE;&#x5C42;_1" xmlns="http://www.w3.org/2000/svg" xmlns:xlink="http://www.w3.org/1999/xlink" x="0px"
	 y="0px" viewBox="0 0 24 24" style="enable-background:new 0 0 24 24;" xml:space="preserve">
<path style="fill:#333333;" d="M6.5,23H1V11h5.5V23z M3,21h1.5v-8H3V21z"/>
<path style="fill:#333333;" d="M18,10.312c-1.293,0-2.412-0.735-2.919-1.918c-0.945-2.207,1.63-5.418,2.155-6.04L18,1.452
	l0.764,0.902c0.525,0.622,3.101,3.833,2.155,6.04C20.412,9.577,19.293,10.312,18,10.312z M18,4.67
	c-0.729,1.094-1.326,2.364-1.081,2.936C17.2,8.262,17.817,8.312,18,8.312s0.8-0.051,1.081-0.707C19.326,7.034,18.729,5.764,18,4.67z
	"/>
<path style="fill:#333333;" d="M15.5,22.25c-2.795,0-5.183-0.459-7.101-0.828C7.222,21.195,6.205,21,5.5,21h-1v-7h1
	c1.898,0,2.423-0.367,3.148-0.876c0.477-0.335,1.07-0.751,2.035-1.072c1.719-0.573,3.314-0.428,4.271,0.388
	c0.642,0.548,0.927,1.359,0.782,2.225c-0.077,0.465-0.287,0.91-0.565,1.321c0.386-0.211,0.694-0.484,1.074-0.823
	c0.327-0.292,0.69-0.614,1.155-0.962c1.462-1.097,3.112-1.405,4.309-0.808C22.518,13.797,23,14.585,23,15.5
	C23,17.359,20.693,22.25,15.5,22.25z M6.5,19.068c0.678,0.082,1.44,0.229,2.277,0.39c1.835,0.353,4.119,0.792,6.723,0.792
	c3.785,0,5.5-3.644,5.5-4.75c0-0.164-0.05-0.251-0.186-0.318c-0.402-0.201-1.267-0.093-2.215,0.618
	c-0.412,0.31-0.733,0.597-1.024,0.856C16.252,17.834,15.341,18.5,12,18.5l-0.516-1.856c0.85-0.513,2.161-1.601,2.279-2.308
	c0.038-0.229-0.036-0.313-0.109-0.376c-0.321-0.274-1.189-0.395-2.338-0.012c-0.688,0.229-1.092,0.513-1.52,0.812
	c-0.743,0.521-1.508,1.058-3.297,1.202V19.068z"/>
</svg>






