<?xml version="1.0" encoding="iso-8859-1"?>
<svg version="1.1" id="&#x56FE;&#x5C42;_1" xmlns="http://www.w3.org/2000/svg" xmlns:xlink="http://www.w3.org/1999/xlink" x="0px"
	 y="0px" viewBox="0 0 24 24" style="enable-background:new 0 0 24 24;" xml:space="preserve">
<path style="fill:#333333;" d="M21,21H9v-2h12V6H9V4h12c1.103,0,2,0.897,2,2v13C23,20.103,22.103,21,21,21z"/>
<path style="fill:#333333;" d="M10,21H3c-1.103,0-2-0.897-2-2V6c0-1.103,0.897-2,2-2h7V21z M3,6v13h5V6H3z"/>
<rect x="4.5" y="8.5" style="fill:#333333;" width="2" height="2"/>
<rect x="10.298" y="11.25" transform="matrix(0.5769 -0.8168 0.8168 0.5769 -3.448 17.8434)" style="fill:#333333;" width="10.404" height="2.001"/>
<path style="fill:#333333;" d="M5.5,12.5L5.5,12.5c0.552,0,1,0.448,1,1l0,0c0,0.552-0.448,1-1,1l0,0c-0.552,0-1-0.448-1-1l0,0
	C4.5,12.948,4.948,12.5,5.5,12.5z"/>
<path style="fill:#333333;" d="M5.5,15.5L5.5,15.5c0.552,0,1,0.448,1,1l0,0c0,0.552-0.448,1-1,1l0,0c-0.552,0-1-0.448-1-1l0,0
	C4.5,15.948,4.948,15.5,5.5,15.5z"/>
</svg>






