<?xml version="1.0" encoding="iso-8859-1"?>
<svg version="1.1" id="&#x56FE;&#x5C42;_1" xmlns="http://www.w3.org/2000/svg" xmlns:xlink="http://www.w3.org/1999/xlink" x="0px"
	 y="0px" viewBox="0 0 24 24" style="enable-background:new 0 0 24 24;" xml:space="preserve">
<path style="fill:#333333;" d="M12,23C5.935,23,1,18.065,1,12S5.935,1,12,1s11,4.935,11,11S18.065,23,12,23z M12,3
	c-4.962,0-9,4.038-9,9c0,4.963,4.038,9,9,9c4.963,0,9-4.037,9-9C21,7.038,16.963,3,12,3z"/>
<path style="fill:#333333;" d="M11.958,18.5c-2.713,0-5.676-2.229-5.938-5.961c-0.257-3.654,2.117-6.734,5.405-7.014
	c2.888-0.241,4.72,1.308,5.473,2.843L15.103,9.25c-0.16-0.325-1.085-1.937-3.509-1.731c-2.222,0.188-3.761,2.287-3.579,4.88
	c0.188,2.664,2.171,4.102,3.943,4.102c2.078,0,3.149-1.654,3.194-1.725l1.701,1.053C16.785,15.937,15.175,18.5,11.958,18.5z"/>
</svg>






