<?xml version="1.0" encoding="iso-8859-1"?>
<svg version="1.1" id="&#x56FE;&#x5C42;_1" xmlns="http://www.w3.org/2000/svg" xmlns:xlink="http://www.w3.org/1999/xlink" x="0px"
	 y="0px" viewBox="0 0 24 24" style="enable-background:new 0 0 24 24;" xml:space="preserve">
<path style="fill:#333333;" d="M18.5,23h-13v-7.882l-4.165-2.082l2.3-9.2L8.741,1h6.518l5.106,2.836l2.3,9.2L18.5,15.118V23z
	 M7.5,21h9v-7.118l3.835-1.917l-1.7-6.801L14.741,3H9.259L5.365,5.164l-1.7,6.801L7.5,13.882V21z"/>
<rect x="9.5" y="1.602" transform="matrix(0.8682 -0.4961 0.4961 0.8682 -0.9112 5.8188)" style="fill:#333333;" width="2" height="6.047"/>
<polygon style="fill:#333333;" points="7.297,15.104 5.703,13.896 11.164,6.697 14.132,1.504 15.868,2.496 12.797,7.854 "/>
</svg>






