<?xml version="1.0" encoding="iso-8859-1"?>
<svg version="1.1" id="&#x56FE;&#x5C42;_1" xmlns="http://www.w3.org/2000/svg" xmlns:xlink="http://www.w3.org/1999/xlink" x="0px"
	 y="0px" viewBox="0 0 24 24" style="enable-background:new 0 0 24 24;" xml:space="preserve">
<path style="fill:#333333;" d="M20.703,22H3.296C2.03,22,1,20.97,1,19.703c0-0.78,0.391-1.499,1.044-1.925l7.776-5.055
	c1.324-0.859,3.035-0.86,4.359,0.001l7.775,5.053C22.609,18.203,23,18.923,23,19.703C23,20.97,21.97,22,20.703,22z M12,14.078
	c-0.379,0-0.759,0.107-1.09,0.322v0.001l-7.775,5.054C3.051,19.51,3,19.603,3,19.703C3,19.867,3.133,20,3.296,20h17.407
	C20.867,20,21,19.867,21,19.703c0-0.101-0.051-0.193-0.135-0.248l-7.775-5.054C12.759,14.186,12.379,14.078,12,14.078z"/>
<path style="fill:#333333;" d="M12.823,13.068l-1.646-1.137C12.535,9.965,14,7.33,14,6.5c0-1.103-0.897-2-2-2c-1.103,0-2,0.897-2,2
	H8c0-2.206,1.794-4,4-4c2.206,0,4,1.794,4,4C16,8.374,13.354,12.3,12.823,13.068z"/>
</svg>






