<?xml version="1.0" encoding="iso-8859-1"?>
<svg version="1.1" id="&#x56FE;&#x5C42;_1" xmlns="http://www.w3.org/2000/svg" xmlns:xlink="http://www.w3.org/1999/xlink" x="0px"
	 y="0px" viewBox="0 0 24 24" style="enable-background:new 0 0 24 24;" xml:space="preserve">
<path style="fill:#333333;" d="M18.5,23h-13c-1.103,0-2-0.897-2-2V3c0-1.103,0.897-2,2-2h13c1.103,0,2,0.897,2,2v18
	C20.5,22.103,19.603,23,18.5,23z M5.5,3H5.499L5.5,21h13V3H5.5z"/>
<circle style="fill:#333333;" cx="16" cy="5" r="1"/>
<circle style="fill:#333333;" cx="8" cy="5" r="1"/>
<circle style="fill:#333333;" cx="16" cy="19" r="1"/>
<circle style="fill:#333333;" cx="8" cy="19" r="1"/>
<path style="fill:#333333;" d="M12,16v-2c1.654,0,3-1.346,3-3s-1.346-3-3-3s-3,1.346-3,3H7c0-2.757,2.243-5,5-5s5,2.243,5,5
	S14.757,16,12,16z"/>
<rect x="8.379" y="11.5" transform="matrix(0.7071 -0.7071 0.7071 0.7071 -5.7635 11.0858)" style="fill:#333333;" width="4.243" height="2"/>
</svg>






