<?xml version="1.0" encoding="iso-8859-1"?>
<svg version="1.1" id="&#x56FE;&#x5C42;_1" xmlns="http://www.w3.org/2000/svg" xmlns:xlink="http://www.w3.org/1999/xlink" x="0px"
	 y="0px" viewBox="0 0 24 24" style="enable-background:new 0 0 24 24;" xml:space="preserve">
<path style="fill:#333333;" d="M12,23C5.935,23,1,18.065,1,12S5.935,1,12,1s11,4.935,11,11S18.065,23,12,23z M12,3
	c-4.962,0-9,4.038-9,9c0,4.963,4.038,9,9,9c4.963,0,9-4.037,9-9C21,7.038,16.963,3,12,3z"/>
<path style="fill:#333333;" d="M15.5,21.5h-2c0-0.827-0.673-1.5-1.5-1.5s-1.5,0.673-1.5,1.5h-2c0-1.93,1.57-3.5,3.5-3.5
	S15.5,19.57,15.5,21.5z"/>
<path style="fill:#333333;" d="M12,23c-1.634,0-3.207-0.35-4.675-1.04l0.851-1.811c2.4,1.129,5.25,1.129,7.649,0l0.852,1.811
	C15.207,22.65,13.634,23,12,23z"/>
<circle style="fill:#333333;" cx="7.5" cy="7.5" r="1.5"/>
<circle style="fill:#333333;" cx="5.5" cy="11.5" r="1.5"/>
<circle style="fill:#333333;" cx="12" cy="5.5" r="1.5"/>
<circle style="fill:#333333;" cx="16.5" cy="7.5" r="1.5"/>
<circle style="fill:#333333;" cx="18.5" cy="11.5" r="1.5"/>
</svg>






