<?xml version="1.0" encoding="iso-8859-1"?>
<svg version="1.1" id="&#x56FE;&#x5C42;_1" xmlns="http://www.w3.org/2000/svg" xmlns:xlink="http://www.w3.org/1999/xlink" x="0px"
	 y="0px" viewBox="0 0 24 24" style="enable-background:new 0 0 24 24;" xml:space="preserve">
<path style="fill:#333333;" d="M18.5,18h-13c-0.989,0-1.863-0.753-2.078-1.791c-0.222-1.067-0.88-1.704-1.393-2.051
	C1.384,13.721,1,13.035,1,12.323V8c0-1.103,0.897-2,2-2h18c1.103,0,2,0.897,2,2v4.323c0,0.713-0.385,1.398-1.029,1.835
	c-0.513,0.347-1.171,0.984-1.393,2.052C20.362,17.247,19.488,18,18.5,18z M3,8v4.323c0.001,0.023,0.046,0.108,0.151,0.18
	c0.669,0.452,1.851,1.483,2.229,3.299c0.025,0.12,0.098,0.19,0.123,0.198H18.5c0.022-0.008,0.095-0.078,0.119-0.197
	c0.378-1.815,1.56-2.848,2.23-3.301c0.104-0.071,0.149-0.155,0.15-0.179V8H3z"/>
<rect x="7" y="13" style="fill:#333333;" width="10" height="2"/>
<rect x="6" y="12.5" style="fill:#333333;" width="2" height="1.5"/>
<rect x="9.5" y="12.5" style="fill:#333333;" width="2" height="1.5"/>
<rect x="12.5" y="12.5" style="fill:#333333;" width="2" height="1.5"/>
<rect x="16" y="12.5" style="fill:#333333;" width="2" height="1.5"/>
<rect x="5.5" y="9" style="fill:#333333;" width="1" height="2"/>
<rect x="9.5" y="9" style="fill:#333333;" width="1" height="2"/>
<rect x="13.5" y="9" style="fill:#333333;" width="1" height="2"/>
<rect x="17.5" y="9" style="fill:#333333;" width="1" height="2"/>
</svg>






