<?xml version="1.0" encoding="iso-8859-1"?>
<svg version="1.1" id="&#x56FE;&#x5C42;_1" xmlns="http://www.w3.org/2000/svg" xmlns:xlink="http://www.w3.org/1999/xlink" x="0px"
	 y="0px" viewBox="0 0 24 24" style="enable-background:new 0 0 24 24;" xml:space="preserve">
<path style="fill:none;" d="M2,14c0-0.552,0.448-1,1-1h2v6H3c-0.552,0-1-0.448-1-1V14z"/>
<path style="fill:none;" d="M19,13h2c0.552,0,1,0.448,1,1v4c0,0.552-0.448,1-1,1h-2V13z"/>
<path style="fill:#333333;" d="M21,20h-3v-8c0-3.309-2.691-6-6-6s-6,2.691-6,6v8H3c-1.103,0-2-0.897-2-2v-4c0-1.103,0.897-2,2-2h1
	c0-4.411,3.589-8,8-8s8,3.589,8,8h1c1.103,0,2,0.897,2,2v4C23,19.103,22.103,20,21,20z M20,18h1v-4h-1V18z M3,14v4h1v-4H3z"/>
<polygon style="fill:#333333;" points="13.948,19.316 12.052,19.316 11,16.162 10.721,17 8,17 8,15 9.279,15 10.051,12.684 
	11.949,12.684 13,15.838 13.279,15 16,15 16,17 14.721,17 "/>
</svg>






