<?xml version="1.0" encoding="iso-8859-1"?>
<svg version="1.1" id="&#x56FE;&#x5C42;_1" xmlns="http://www.w3.org/2000/svg" xmlns:xlink="http://www.w3.org/1999/xlink" x="0px"
	 y="0px" viewBox="0 0 24 24" style="enable-background:new 0 0 24 24;" xml:space="preserve">
<path style="fill:#333333;" d="M22,15h-2v-2.77C20,7.692,16.411,4,12,4s-8,3.692-8,8.23V15H2v-2.77C2,6.589,6.486,2,12,2
	c5.514,0,10,4.589,10,10.23V15z"/>
<path style="fill:#333333;" d="M22,22h-3c-1.654,0-3-1.346-3-3v-3c0-1.654,1.346-3,3-3h3V22z M19,15c-0.552,0-1,0.448-1,1v3
	c0,0.552,0.448,1,1,1h1v-5H19z"/>
<path style="fill:#333333;" d="M21,16h1c0.552,0,1,0.448,1,1v1c0,0.552-0.448,1-1,1h-1V16z"/>
<path style="fill:#333333;" d="M3,16H2c-0.552,0-1,0.448-1,1v1c0,0.552,0.448,1,1,1h1V16z"/>
<path style="fill:#333333;" d="M5,22H2v-9h3c1.654,0,3,1.346,3,3v3C8,20.654,6.654,22,5,22z M4,20h1c0.551,0,1-0.448,1-1v-3
	c0-0.552-0.449-1-1-1H4V20z"/>
</svg>






