<?xml version="1.0" encoding="iso-8859-1"?>
<svg version="1.1" id="&#x56FE;&#x5C42;_1" xmlns="http://www.w3.org/2000/svg" xmlns:xlink="http://www.w3.org/1999/xlink" x="0px"
	 y="0px" viewBox="0 0 24 24" style="enable-background:new 0 0 24 24;" xml:space="preserve">
<path style="fill:none;" d="M18,16c2.209,0,4-1.791,4-4s-1.791-4-4-4"/>
<path style="fill:#333333;" d="M18,17v-2c1.654,0,3-1.346,3-3s-1.346-3-3-3V7c2.757,0,5,2.243,5,5S20.757,17,18,17z"/>
<path style="fill:none;" d="M6,8c-2.209,0-4,1.791-4,4s1.791,4,4,4"/>
<path style="fill:#333333;" d="M6,17c-2.757,0-5-2.243-5-5s2.243-5,5-5v2c-1.654,0-3,1.346-3,3s1.346,3,3,3V17z"/>
<path style="fill:#333333;" d="M12,23v-2c2.757,0,5-2.243,5-5V8c0-2.757-2.243-5-5-5S7,5.243,7,8v8H5V8c0-3.86,3.14-7,7-7
	c3.859,0,7,3.14,7,7v8C19,19.859,15.859,23,12,23z"/>
</svg>






