<?xml version="1.0" encoding="iso-8859-1"?>
<svg version="1.1" id="&#x56FE;&#x5C42;_1" xmlns="http://www.w3.org/2000/svg" xmlns:xlink="http://www.w3.org/1999/xlink" x="0px"
	 y="0px" viewBox="0 0 24 24" style="enable-background:new 0 0 24 24;" xml:space="preserve">
<path style="fill:#333333;" d="M5.425,22.121C4.519,20.978,3,18.598,3,15.5c0-4.962,4.038-9,9-9c4.963,0,9,4.038,9,9
	c0,3.096-1.519,5.477-2.424,6.621l-1.568-1.242C17.606,20.123,19,18.083,19,15.5c0-3.86-3.141-7-7-7c-3.86,0-7,3.14-7,7
	c0,2.585,1.394,4.623,1.992,5.379L5.425,22.121z"/>
<path style="fill:#333333;" d="M16.736,10.172L15.9,6.413l4.913-4.64l1.656,0.97l-1.653,6.614L16.736,10.172z M18.1,7.087
	l0.164,0.74l0.92-0.184L19.7,5.575L18.1,7.087z"/>
<path style="fill:#333333;" d="M7.264,10.172L3.183,9.356L1.53,2.743l1.657-0.97l4.913,4.64L7.264,10.172z M4.817,7.644l0.919,0.184
	l0.165-0.74L4.299,5.575L4.817,7.644z"/>
</svg>






