<?xml version="1.0" encoding="iso-8859-1"?>
<svg version="1.1" id="&#x56FE;&#x5C42;_1" xmlns="http://www.w3.org/2000/svg" xmlns:xlink="http://www.w3.org/1999/xlink" x="0px"
	 y="0px" viewBox="0 0 24 24" style="enable-background:new 0 0 24 24;" xml:space="preserve">
<path style="fill:#333333;" d="M16.964,23H7.036L4,19.412V8.552L7.04,5h9.92L20,8.552v10.86L16.964,23z M7.964,21h8.072L18,18.68
	V9.291L16.04,7H7.96L6,9.291v9.389L7.964,21z"/>
<rect x="9.5" y="9" style="fill:#333333;" width="5" height="2"/>
<path style="fill:#333333;" d="M17.5,6h-2V3.5C15.5,3.224,15.275,3,15,3H9C8.724,3,8.5,3.224,8.5,3.5V6h-2V3.5
	C6.5,2.122,7.622,1,9,1h6c1.379,0,2.5,1.122,2.5,2.5V6z"/>
<path style="fill:#333333;" d="M12,19.5c-1.93,0-3.5-1.57-3.5-3.5s1.57-3.5,3.5-3.5s3.5,1.57,3.5,3.5S13.93,19.5,12,19.5z M12,14.5
	c-0.827,0-1.5,0.673-1.5,1.5s0.673,1.5,1.5,1.5s1.5-0.673,1.5-1.5S12.827,14.5,12,14.5z"/>
</svg>






