<?xml version="1.0" encoding="iso-8859-1"?>
<svg version="1.1" id="&#x56FE;&#x5C42;_1" xmlns="http://www.w3.org/2000/svg" xmlns:xlink="http://www.w3.org/1999/xlink" x="0px"
	 y="0px" viewBox="0 0 24 24" style="enable-background:new 0 0 24 24;" xml:space="preserve">
<path style="fill:#333333;" d="M19.5,22h-15C3.122,22,2,20.879,2,19.5v-15C2,3.122,3.122,2,4.5,2h15C20.879,2,22,3.122,22,4.5v15
	C22,20.879,20.879,22,19.5,22z M4.5,4C4.224,4,4,4.224,4,4.5v15C4,19.775,4.224,20,4.5,20h15c0.275,0,0.5-0.225,0.5-0.5v-15
	C20,4.224,19.775,4,19.5,4H4.5z"/>
<path style="fill:#333333;" d="M15,12.051l-0.308-0.099C13.445,11.549,11,9.806,11,7.602C11,6.167,12.188,5,13.65,5
	c0.48,0,0.946,0.129,1.35,0.364C15.403,5.129,15.869,5,16.35,5C17.812,5,19,6.167,19,7.602c0,2.204-2.445,3.947-3.692,4.35
	L15,12.051z M13.65,7C13.292,7,13,7.27,13,7.602c0,0.884,1.169,1.912,2,2.319c0.831-0.408,2-1.436,2-2.319C17,7.27,16.708,7,16.35,7
	c-0.217,0-0.419,0.1-0.54,0.268L15,8.383l-0.81-1.115C14.069,7.1,13.867,7,13.65,7z"/>
</svg>






