<?xml version="1.0" encoding="iso-8859-1"?>
<svg version="1.1" id="&#x56FE;&#x5C42;_1" xmlns="http://www.w3.org/2000/svg" xmlns:xlink="http://www.w3.org/1999/xlink" x="0px"
	 y="0px" viewBox="0 0 24 24" style="enable-background:new 0 0 24 24;" xml:space="preserve">
<path style="fill:#333333;" d="M7.5,22h-3C3.122,22,2,20.879,2,19.5v-3h2v3C4,19.775,4.224,20,4.5,20h3V22z"/>
<path style="fill:#333333;" d="M19.5,22h-3v-2h3c0.275,0,0.5-0.225,0.5-0.5v-3h2v3C22,20.879,20.879,22,19.5,22z"/>
<path style="fill:#333333;" d="M22,7.5h-2v-3C20,4.224,19.775,4,19.5,4h-3V2h3C20.879,2,22,3.122,22,4.5V7.5z"/>
<path style="fill:#333333;" d="M4,7.5H2v-3C2,3.122,3.122,2,4.5,2h3v2h-3C4.224,4,4,4.224,4,4.5V7.5z"/>
<path style="fill:#333333;" d="M12,18.414l-5.707-5.707C5.481,11.896,5.106,10.358,6.2,8.9c1.07-1.428,3.154-1.533,4.354-0.732
	c0.23,0.153,0.419,0.306,0.595,0.448C11.522,8.918,11.623,9,12,9c0.377,0,0.478-0.082,0.851-0.384
	c0.175-0.142,0.365-0.294,0.595-0.448C14.645,7.369,16.729,7.471,17.8,8.9c1.094,1.458,0.719,2.996-0.093,3.807L12,18.414z
	 M8.783,9.67c-0.355,0-0.746,0.115-0.983,0.43c-0.435,0.58-0.263,1.022-0.093,1.193L12,15.586l4.293-4.293
	c0.17-0.17,0.342-0.613-0.093-1.193c-0.417-0.556-1.316-0.488-1.646-0.268c-0.172,0.115-0.312,0.23-0.443,0.337
	C13.654,10.539,13.087,11,12,11s-1.655-0.461-2.111-0.831c-0.131-0.106-0.272-0.222-0.444-0.337C9.302,9.737,9.053,9.67,8.783,9.67z
	"/>
</svg>






