<?xml version="1.0" encoding="iso-8859-1"?>
<svg version="1.1" id="&#x56FE;&#x5C42;_1" xmlns="http://www.w3.org/2000/svg" xmlns:xlink="http://www.w3.org/1999/xlink" x="0px"
	 y="0px" viewBox="0 0 24 24" style="enable-background:new 0 0 24 24;" xml:space="preserve">
<path style="fill:#333333;" d="M10.501,23.501c-3.156,0-5.543-2.4-7.095-7.135C2.518,13.653,2.595,9.897,4.269,8.56
	c0.442-0.354,2.022-1.339,3.777,0.818L6.494,10.64c-0.64-0.788-0.853-0.619-0.978-0.518c-0.573,0.458-1.088,2.94-0.21,5.621
	c1.252,3.82,3,5.758,5.194,5.758c1.952,0,2.796-1.411,3.955-3.734c0.305-0.611,0.62-1.244,0.974-1.802
	c1.335-2.108,1.925-3.875,0.742-6.165l1.777-0.918c1.715,3.321,0.543,5.985-0.83,8.153c-0.299,0.472-0.578,1.031-0.873,1.624
	C15.17,20.816,13.831,23.501,10.501,23.501z"/>
<path style="fill:#333333;" d="M4.664,9.567C3.815,8.275,3.151,7.272,2.671,6.559C2.066,5.662,2.309,4.471,3.248,3.728
	c0.973-0.771,2.229-0.74,2.986,0.076C6.832,4.449,7.63,5.404,8.608,6.643l-1.57,1.239C6.093,6.685,5.329,5.771,4.767,5.164
	c-0.01,0.002-0.114,0.018-0.236,0.101c-0.134,0.091-0.19,0.196-0.195,0.224c0.478,0.67,1.146,1.68,2,2.981L4.664,9.567z"/>
<path style="fill:#333333;" d="M6.515,12.9C6.248,9.554,6.491,7.466,7.282,6.327c1.026-1.478,2.929-2.326,5.22-2.326
	c1.27,0,2.428,0.53,3.442,1.575l-1.436,1.393c-0.632-0.651-1.288-0.967-2.007-0.967c-0.77,0-2.658,0.143-3.578,1.466
	c-0.28,0.404-0.707,1.626-0.416,5.272L6.515,12.9z"/>
<path style="fill:#333333;" d="M12.354,14.928c-1.022,0-2.095-0.741-2.365-0.978c-0.507-0.445-0.811-1.064-0.834-1.699
	c-0.017-0.457,0.106-1.145,0.782-1.83c0.409-0.414,0.409-0.414,0.394-0.791c-0.005-0.125-0.011-0.266-0.011-0.428
	c0-1.812,5.638-4.791,8.217-5.051c1.104-0.062,2.497,0.39,2.925,1.878c0.226,0.784,0.132,1.554-0.265,2.167
	c-0.307,0.474-0.939,1.077-2.213,1.258c-1.242,0.178-2.201,0.827-2.897,1.372c-0.687,0.537-1.958,2.278-2.159,2.958
	c-0.158,0.532-0.547,0.924-1.066,1.074C12.695,14.906,12.525,14.928,12.354,14.928z M12.322,9.386
	c0.002,0.058,0.004,0.112,0.006,0.164c0.035,0.877-0.091,1.387-0.968,2.276c-0.135,0.137-0.21,0.266-0.207,0.354
	c0.003,0.094,0.083,0.205,0.155,0.268c0.166,0.146,0.55,0.35,0.821,0.438c0.498-1.192,1.861-2.958,2.725-3.633
	c0.892-0.698,2.136-1.531,3.847-1.776c0.406-0.058,0.704-0.191,0.817-0.365c0.099-0.154,0.066-0.372,0.021-0.527l0,0
	c-0.119-0.416-0.58-0.457-0.844-0.438C16.568,6.361,12.952,8.602,12.322,9.386z"/>
<rect x="10.504" y="2" style="fill:#333333;" width="2" height="2.631"/>
<path style="fill:#333333;" d="M9.371,5.981c-1.849-2.323-2.783-2.75-3.099-2.825l0.464-1.945c1.175,0.28,2.509,1.4,4.201,3.525
	L9.371,5.981z"/>
<rect x="7.703" y="1.498" transform="matrix(0.2363 -0.9717 0.9717 0.2363 4.2547 10.4092)" style="fill:#333333;" width="2.093" height="2"/>
<path style="fill:#333333;" d="M18.12,9.157c-0.639-0.666-1.052-1.297-1.262-1.929c-0.227-0.678-0.23-1.401-0.012-2.15l1.92,0.561
	c-0.104,0.355-0.107,0.668-0.012,0.957c0.078,0.234,0.282,0.628,0.809,1.178L18.12,9.157z"/>
</svg>






