<?xml version="1.0" encoding="iso-8859-1"?>
<svg version="1.1" id="&#x56FE;&#x5C42;_1" xmlns="http://www.w3.org/2000/svg" xmlns:xlink="http://www.w3.org/1999/xlink" x="0px"
	 y="0px" viewBox="0 0 24 24" style="enable-background:new 0 0 24 24;" xml:space="preserve">
<path style="fill:#333333;" d="M9.172,19.656c-0.512,0-1.024-0.195-1.414-0.585l-2.829-2.829c-0.78-0.779-0.78-2.049,0-2.828
	l8.486-8.485c0.754-0.754,2.071-0.756,2.828,0l2.828,2.829c0.378,0.378,0.586,0.88,0.586,1.414c0,0.535-0.208,1.037-0.586,1.415
	l-8.485,8.485C10.196,19.461,9.684,19.656,9.172,19.656z M6.343,14.828L6.343,14.828l2.829,2.829l8.485-8.486l-2.828-2.829
	L6.343,14.828z"/>
<rect x="2.783" y="17.718" transform="matrix(0.7071 -0.7071 0.7071 0.7071 -11.6883 9.2176)" style="fill:#333333;" width="5" height="2"/>
<rect x="16.219" y="4.283" transform="matrix(0.7071 -0.7071 0.7071 0.7071 1.7473 14.7834)" style="fill:#333333;" width="5" height="2"/>
<rect x="8.525" y="11.475" transform="matrix(0.7071 -0.7071 0.7071 0.7071 -7.4454 10.9758)" style="fill:#333333;" width="2" height="6"/>
<rect x="11" y="9" transform="matrix(0.7071 -0.7071 0.7071 0.7071 -4.9704 11.999)" style="fill:#333333;" width="2" height="6"/>
<rect x="13.475" y="6.525" transform="matrix(0.7071 -0.7071 0.7071 0.7071 -2.496 13.024)" style="fill:#333333;" width="2" height="6"/>
<rect x="4.879" y="8.879" transform="matrix(0.7071 -0.7071 0.7071 0.7071 -4.0919 9.8787)" style="fill:#333333;" width="10" height="2"/>
<rect x="9.121" y="13.122" transform="matrix(0.7071 -0.7071 0.7071 0.7071 -5.8494 14.1216)" style="fill:#333333;" width="10" height="2"/>
</svg>






