<?xml version="1.0" encoding="iso-8859-1"?>
<svg version="1.1" id="&#x56FE;&#x5C42;_1" xmlns="http://www.w3.org/2000/svg" xmlns:xlink="http://www.w3.org/1999/xlink" x="0px"
	 y="0px" viewBox="0 0 24 24" style="enable-background:new 0 0 24 24;" xml:space="preserve">
<path style="fill:#333333;" d="M19.061,17.5H7.5v-2h11.561C20.239,14.899,21,13.651,21,12.257c0-2-1.591-3.628-3.546-3.628
	c-0.561,0-1.098,0.13-1.596,0.387l-1.105,0.57l-0.319-1.203C13.749,5.802,11.44,4,8.818,4C5.61,4,3,6.666,3,9.942H1
	C1,5.563,4.507,2,8.818,2c3.159,0,5.979,1.936,7.191,4.823c0.47-0.128,0.957-0.194,1.444-0.194c3.058,0,5.546,2.525,5.546,5.628
	c0,2.154-1.183,4.088-3.086,5.046C19.655,17.432,19.36,17.5,19.061,17.5z"/>
<path style="fill:#333333;" d="M7.5,21.5H6c-1.654,0-3-1.346-3-3s1.346-3,3-3h1.5v2H6c-0.551,0-1,0.448-1,1s0.449,1,1,1h1.5V21.5z"
	/>
<path style="fill:#333333;" d="M11,14H9.5c-1.654,0-3-1.346-3-3s1.346-3,3-3H11v2H9.5c-0.551,0-1,0.449-1,1s0.449,1,1,1H11V14z"/>
<rect x="9.5" y="12" style="fill:#333333;" width="6.5" height="2"/>
</svg>






