<?xml version="1.0" encoding="iso-8859-1"?>
<svg version="1.1" id="&#x56FE;&#x5C42;_1" xmlns="http://www.w3.org/2000/svg" xmlns:xlink="http://www.w3.org/1999/xlink" x="0px"
	 y="0px" viewBox="0 0 24 24" style="enable-background:new 0 0 24 24;" xml:space="preserve">
<path style="fill:#333333;" d="M12.327,14.119L5.068,7.5L6.95,3.636l4.402-1.03l6.455,5.113l1.569,5.053L12.327,14.119z
	 M7.521,7.031l5.414,4.936l3.867-0.739L16.08,8.903l-5.213-4.13L8.332,5.366L7.521,7.031z"/>
<rect x="9.442" y="3.212" transform="matrix(0.6506 -0.7594 0.7594 0.6506 -1.5921 10.3407)" style="fill:#333333;" width="2" height="7.378"/>
<polygon style="fill:#333333;" points="13.62,13.195 11.644,12.891 12.36,8.226 16.743,7.331 17.144,9.291 14.126,9.907 "/>
<polygon style="fill:#333333;" points="7.476,21.271 0.823,14.754 2.552,10.457 5.787,9.703 6.241,11.651 4.019,12.168 3.177,14.26 
	8.125,19.107 12.342,18.286 11.544,15.819 13.447,15.204 14.938,19.817 "/>
<rect x="4.964" y="10.159" transform="matrix(0.6871 -0.7265 0.7265 0.6871 -8.1935 8.6647)" style="fill:#333333;" width="2" height="7.373"/>
<polygon style="fill:#333333;" points="8.772,20.169 6.829,19.696 7.932,15.174 12.352,14.532 12.639,16.511 9.555,16.959 "/>
<path style="fill:#333333;" d="M15.839,19.646l0.698-5.665l4.805-1.066l1.538,5.357L15.839,19.646z M18.35,15.627l-0.188,1.528
	l2.195-0.429l-0.417-1.453L18.35,15.627z"/>
</svg>






