<?xml version="1.0" encoding="iso-8859-1"?>
<svg version="1.1" id="&#x56FE;&#x5C42;_1" xmlns="http://www.w3.org/2000/svg" xmlns:xlink="http://www.w3.org/1999/xlink" x="0px"
	 y="0px" viewBox="0 0 24 24" style="enable-background:new 0 0 24 24;" xml:space="preserve">
<path style="fill:#333333;" d="M15.505,20.5c-2.481,0-4.5-2.019-4.5-4.5l-0.004-3H2l-1-1C1,5.935,5.935,1,12,1s11,4.935,11,11
	c0,1.532-0.308,3.013-0.914,4.4L21.17,17h-1.277C19.437,19.002,17.643,20.5,15.505,20.5z M3.055,11H12l1,0.999l0.005,4
	c0,1.38,1.121,2.501,2.5,2.501s2.5-1.121,2.5-2.5l1-1h1.485c0.339-0.957,0.51-1.964,0.51-3c0-4.962-4.037-9-9-9
	C7.375,3,3.554,6.506,3.055,11z"/>
<path style="fill:#333333;" d="M15.5,17c0.55,0,1-0.45,1-1c0-0.55-0.45-1-1-1c-0.55,0-1,0.45-1,1C14.5,16.55,14.95,17,15.5,17z"/>
<path style="fill:#333333;" d="M6.583,22.908c-1.998-0.917-3.197-2.623-4.358-4.272l0.559-1.612l9-2l0.434,1.953l-7.519,1.671
	c0.682,0.902,1.39,1.688,2.274,2.211l5.523-3.223l1.008,1.729l-6,3.5L6.583,22.908z"/>
</svg>






