<?xml version="1.0" encoding="iso-8859-1"?>
<svg version="1.1" id="&#x56FE;&#x5C42;_1" xmlns="http://www.w3.org/2000/svg" xmlns:xlink="http://www.w3.org/1999/xlink" x="0px"
	 y="0px" viewBox="0 0 24 24" style="enable-background:new 0 0 24 24;" xml:space="preserve">
<path style="fill:#333333;" d="M19.5,22h-15C3.122,22,2,20.879,2,19.5v-15C2,3.122,3.122,2,4.5,2h15C20.879,2,22,3.122,22,4.5v15
	C22,20.879,20.879,22,19.5,22z M4.5,4C4.224,4,4,4.224,4,4.5v15C4,19.775,4.224,20,4.5,20h15c0.275,0,0.5-0.225,0.5-0.5v-15
	C20,4.224,19.775,4,19.5,4H4.5z"/>
<path style="fill:#333333;" d="M13,14.312h-2v-3h1c1.103,0,2-0.897,2-2s-0.897-2-2-2c-1.103,0-2,0.897-2,2H8c0-2.206,1.794-4,4-4
	c2.206,0,4,1.794,4,4c0,1.86-1.276,3.429-3,3.873V14.312z"/>
<path style="fill-rule:evenodd;clip-rule:evenodd;fill:#333333;" d="M12,18.812c0.69,0,1.25-0.56,1.25-1.25s-0.56-1.25-1.25-1.25
	s-1.25,0.56-1.25,1.25S11.31,18.812,12,18.812z"/>
</svg>






