<?xml version="1.0" encoding="iso-8859-1"?>
<svg version="1.1" id="&#x56FE;&#x5C42;_1" xmlns="http://www.w3.org/2000/svg" xmlns:xlink="http://www.w3.org/1999/xlink" x="0px"
	 y="0px" viewBox="0 0 24 24" style="enable-background:new 0 0 24 24;" xml:space="preserve">
<path style="fill:#333333;" d="M12,23c-2.938,0-5.7-1.145-7.778-3.222C2.144,17.701,1,14.938,1,12c0-2.938,1.144-5.7,3.222-7.778
	C6.3,2.144,9.062,1,12,1c2.938,0,5.701,1.144,7.778,3.222C21.855,6.3,23,9.062,23,12c0,2.938-1.145,5.701-3.222,7.778
	S14.938,23,12,23z M12,3C9.596,3,7.336,3.936,5.636,5.636C3.936,7.336,3,9.596,3,12c0,2.404,0.936,4.664,2.636,6.364
	C7.336,20.063,9.596,21,12,21c2.404,0,4.664-0.937,6.364-2.636C20.063,16.664,21,14.404,21,12c0-2.404-0.937-4.664-2.636-6.364
	C16.664,3.936,14.404,3,12,3z"/>
<path style="fill:#333333;" d="M13,14.312h-2v-3h1c1.103,0,2-0.897,2-2s-0.897-2-2-2c-1.103,0-2,0.897-2,2H8c0-2.206,1.794-4,4-4
	c2.206,0,4,1.794,4,4c0,1.86-1.276,3.429-3,3.873V14.312z"/>
<path style="fill-rule:evenodd;clip-rule:evenodd;fill:#333333;" d="M12,18.812c0.69,0,1.25-0.56,1.25-1.25
	c0-0.69-0.56-1.25-1.25-1.25s-1.25,0.56-1.25,1.25C10.75,18.253,11.31,18.812,12,18.812z"/>
</svg>






