<?xml version="1.0" encoding="iso-8859-1"?>
<svg version="1.1" id="&#x56FE;&#x5C42;_1" xmlns="http://www.w3.org/2000/svg" xmlns:xlink="http://www.w3.org/1999/xlink" x="0px"
	 y="0px" viewBox="0 0 24 24" style="enable-background:new 0 0 24 24;" xml:space="preserve">
<path style="fill:#333333;" d="M12,22.858c-0.333,0-0.667-0.085-0.972-0.254l-8-4.444C2.394,17.807,2,17.137,2,16.411V7.588
	C2,6.862,2.394,6.192,3.029,5.84l8-4.444c0.609-0.337,1.337-0.338,1.943,0l7.999,4.444C21.605,6.193,22,6.863,22,7.588v8.823
	c0,0.726-0.394,1.396-1.028,1.749l-8.001,4.444C12.667,22.773,12.334,22.858,12,22.858z M12,20.856l-0.485,0.874L12,20.856
	L12,20.856C12,20.856,12,20.856,12,20.856z M12,3.144L4,7.588v8.823l8,4.445l8-4.444V7.588L12,3.144z"/>
</svg>






