<?xml version="1.0" encoding="iso-8859-1"?>
<svg version="1.1" id="&#x56FE;&#x5C42;_1" xmlns="http://www.w3.org/2000/svg" xmlns:xlink="http://www.w3.org/1999/xlink" x="0px"
	 y="0px" viewBox="0 0 24 24" style="enable-background:new 0 0 24 24;" xml:space="preserve">
<rect x="3.5" y="6" style="fill:#333333;" width="17" height="2"/>
<rect x="-0.87" y="8.5" transform="matrix(0.4931 -0.87 0.87 0.4931 -4.3362 11.558)" style="fill:#333333;" width="17.241" height="2"/>
<rect x="15.25" y="0.88" transform="matrix(0.87 -0.493 0.493 0.87 -2.5715 9.2462)" style="fill:#333333;" width="2" height="17.241"/>
<rect x="3.5" y="16" style="fill:#333333;" width="17" height="2"/>
<rect x="7.63" y="13.5" transform="matrix(0.4931 -0.87 0.87 0.4931 -4.3774 21.4874)" style="fill:#333333;" width="17.241" height="2"/>
<rect x="6.75" y="5.88" transform="matrix(0.87 -0.493 0.493 0.87 -6.1414 5.7055)" style="fill:#333333;" width="2" height="17.241"/>
<path style="fill:#333333;" d="M12,23.16l-9.5-5.588V6.428L12,0.84l9.5,5.588v11.144L12,23.16z M4.5,16.428L12,20.84l7.5-4.412
	V7.572L12,3.16L4.5,7.572V16.428z"/>
</svg>






