<?xml version="1.0" encoding="iso-8859-1"?>
<svg version="1.1" id="&#x56FE;&#x5C42;_1" xmlns="http://www.w3.org/2000/svg" xmlns:xlink="http://www.w3.org/1999/xlink" x="0px"
	 y="0px" viewBox="0 0 24 24" style="enable-background:new 0 0 24 24;" xml:space="preserve">
<path style="fill:#333333;" d="M18.5,22.5H8.738c-0.389,0-0.746-0.197-0.955-0.526l-4.703-7.583c-0.79-1.272-0.524-2.962,0.619-3.93
	c0.688-0.583,1.589-0.83,2.481-0.68c0.558,0.095,1.069,0.34,1.486,0.701V4.288c0-0.741,0.326-1.439,0.893-1.916
	c0.567-0.477,1.31-0.676,2.042-0.547l8.333,1.471C20.131,3.508,21,4.543,21,5.758V20C21,21.379,19.879,22.5,18.5,22.5z M9.223,20.5
	H18.5c0.275,0,0.5-0.225,0.5-0.5V5.758c0-0.243-0.174-0.45-0.413-0.492l-8.333-1.471C10.054,3.76,9.912,3.849,9.845,3.905
	C9.778,3.96,9.667,4.085,9.667,4.288v9.558l-1.862,0.506l-1.231-2.098c-0.159-0.271-0.418-0.449-0.728-0.502
	c-0.309-0.053-0.613,0.03-0.853,0.234c-0.393,0.333-0.484,0.914-0.213,1.35L9.223,20.5z"/>
</svg>






