<?xml version="1.0" encoding="iso-8859-1"?>
<svg version="1.1" id="&#x56FE;&#x5C42;_1" xmlns="http://www.w3.org/2000/svg" xmlns:xlink="http://www.w3.org/1999/xlink" x="0px"
	 y="0px" viewBox="0 0 24 24" style="enable-background:new 0 0 24 24;" xml:space="preserve">
<path style="fill:#333333;" d="M13.066,21H1v-3.592l0.519-0.285c1.154-0.634,4.801-2.865,6.424-3.953l0.515-0.346l0.538,0.308
	c0.707,0.403,1.313,0.506,1.861,0.325c1.394-0.473,2.352-2.75,2.813-3.845c0.958-2.276,2.969-4.225,4.438-5.647
	c0.25-0.242,0.481-0.466,0.684-0.669l0.554-0.557l0.793,0.478C20.846,3.627,23,4.88,23,7.5c0,2.222-0.805,4.178-2.001,4.867
	l-2.919,2.048c-1.216,0.851-2.22,1.927-2.982,3.199L13.066,21z M3,19h8.934l1.449-2.415c0.908-1.515,2.104-2.796,3.551-3.809
	l2.993-2.096C20.339,10.439,21,9.286,21,7.5c0-1.055-0.627-1.731-1.359-2.236c-0.047,0.045-0.094,0.091-0.142,0.137
	c-1.345,1.303-3.187,3.087-3.985,4.987v0c-0.618,1.468-1.769,4.202-4.015,4.962c-0.932,0.316-1.916,0.248-2.931-0.197
	C7.049,16.143,4.415,17.765,3,18.583V19z"/>
<rect x="20.5" y="10.5" style="fill:#333333;" width="2" height="9.5"/>
</svg>






