<?xml version="1.0" encoding="iso-8859-1"?>
<svg version="1.1" id="&#x56FE;&#x5C42;_1" xmlns="http://www.w3.org/2000/svg" xmlns:xlink="http://www.w3.org/1999/xlink" x="0px"
	 y="0px" viewBox="0 0 24 24" style="enable-background:new 0 0 24 24;" xml:space="preserve">
<path style="fill:#333333;" d="M15.5,20h-7c-2.757,0-5-2.243-5-5v-5h2v5c0,1.654,1.346,3,3,3h7c1.654,0,3-1.346,3-3v-5h2v5
	C20.5,17.757,18.257,20,15.5,20z"/>
<rect x="16" y="19" style="fill:#333333;" width="2" height="2"/>
<rect x="6" y="19" style="fill:#333333;" width="2" height="2"/>
<rect x="10" y="21" style="fill:#333333;" width="4" height="2"/>
<path style="fill:#333333;" d="M20.5,11h-17V8.181C3.5,6.049,6.799,1,12,1s8.5,5.049,8.5,7.181V11z M5.5,9h13V8.181
	C18.5,7.144,15.982,3,12,3S5.5,7.144,5.5,8.181V9z"/>
<g>
	<path style="fill:#333333;" d="M10.25,16c0,0.414-0.336,0.75-0.75,0.75S8.75,16.414,8.75,16s0.336-0.75,0.75-0.75
		S10.25,15.586,10.25,16z"/>
	<path style="fill:#333333;" d="M9.5,17c-0.551,0-1-0.448-1-1s0.449-1,1-1s1,0.448,1,1S10.051,17,9.5,17z M9.5,15.5
		C9.224,15.5,9,15.725,9,16s0.224,0.5,0.5,0.5S10,16.275,10,16S9.776,15.5,9.5,15.5z"/>
</g>
<g>
	<path style="fill:#333333;" d="M15.25,16c0,0.414-0.336,0.75-0.75,0.75s-0.75-0.336-0.75-0.75s0.336-0.75,0.75-0.75
		S15.25,15.586,15.25,16z"/>
	<path style="fill:#333333;" d="M14.5,17c-0.552,0-1-0.448-1-1s0.448-1,1-1s1,0.448,1,1S15.052,17,14.5,17z M14.5,15.5
		c-0.275,0-0.5,0.225-0.5,0.5s0.225,0.5,0.5,0.5S15,16.275,15,16S14.775,15.5,14.5,15.5z"/>
</g>
<rect x="11" y="4.5" style="fill:#333333;" width="2" height="2"/>
</svg>






