<?xml version="1.0" encoding="iso-8859-1"?>
<svg version="1.1" id="&#x56FE;&#x5C42;_1" xmlns="http://www.w3.org/2000/svg" xmlns:xlink="http://www.w3.org/1999/xlink" x="0px"
	 y="0px" viewBox="0 0 24 24" style="enable-background:new 0 0 24 24;" xml:space="preserve">
<path style="fill:#333333;" d="M17.5,22.5h-11c-2.206,0-4-1.794-4-4v-3c0-2.206,1.794-4,4-4h11c2.206,0,4,1.794,4,4v3
	C21.5,20.706,19.706,22.5,17.5,22.5z M6.5,13.5c-1.103,0-2,0.897-2,2v3c0,1.103,0.897,2,2,2h11c1.103,0,2-0.897,2-2v-3
	c0-1.103-0.897-2-2-2H6.5z"/>
<path style="fill:#333333;" d="M8.5,19.5C7.122,19.5,6,18.379,6,17s1.122-2.5,2.5-2.5S11,15.621,11,17S9.878,19.5,8.5,19.5z
	 M8.5,16.5C8.224,16.5,8,16.725,8,17s0.224,0.5,0.5,0.5S9,17.275,9,17S8.776,16.5,8.5,16.5z"/>
<path style="fill:#333333;" d="M15.5,19.5c-1.379,0-2.5-1.121-2.5-2.5s1.121-2.5,2.5-2.5S18,15.621,18,17S16.879,19.5,15.5,19.5z
	 M15.5,16.5c-0.275,0-0.5,0.225-0.5,0.5s0.225,0.5,0.5,0.5S16,17.275,16,17S15.775,16.5,15.5,16.5z"/>
<path style="fill:#333333;" d="M19.5,13.5h-15v-4c0-2.206,1.794-4,4-4h7c2.206,0,4,1.794,4,4V13.5z M6.5,11.5h11v-2
	c0-1.103-0.897-2-2-2h-7c-1.103,0-2,0.897-2,2V11.5z"/>
<circle style="fill:#333333;" cx="10" cy="9.5" r="1"/>
<circle style="fill:#333333;" cx="14" cy="9.5" r="1"/>
<path style="fill:#333333;" d="M11.5,7.5h-5V4c0-1.378,1.122-2.5,2.5-2.5s2.5,1.122,2.5,2.5V7.5z M8.5,5.5h1V4
	c0-0.276-0.224-0.5-0.5-0.5S8.5,3.724,8.5,4V5.5z"/>
<path style="fill:#333333;" d="M17.5,7.5h-5V4c0-1.378,1.121-2.5,2.5-2.5s2.5,1.122,2.5,2.5V7.5z M14.5,5.5h1V4
	c0-0.276-0.225-0.5-0.5-0.5S14.5,3.724,14.5,4V5.5z"/>
</svg>






