<?xml version="1.0" encoding="iso-8859-1"?>
<svg version="1.1" id="&#x56FE;&#x5C42;_1" xmlns="http://www.w3.org/2000/svg" xmlns:xlink="http://www.w3.org/1999/xlink" x="0px"
	 y="0px" viewBox="0 0 24 24" style="enable-background:new 0 0 24 24;" xml:space="preserve">
<polygon style="fill:#333333;" points="6.545,8 1.909,8 1.909,3.364 3.909,3.364 3.909,6 6.545,6 "/>
<path style="fill:#333333;" d="M12,23C5.935,23,1,18.065,1,12h2c0,4.963,4.038,9,9,9c4.963,0,9-4.037,9-9c0-4.962-4.037-9-9-9
	C8.797,3,5.81,4.724,4.204,7.5L2.473,6.498C4.435,3.107,8.085,1,12,1c6.065,0,11,4.935,11,11S18.065,23,12,23z"/>
<polygon style="fill:#333333;" points="15.534,16.951 11.002,12.419 11.003,6 13.003,6 13.002,11.591 16.948,15.537 "/>
</svg>






