<?xml version="1.0" encoding="iso-8859-1"?>
<svg version="1.1" id="&#x56FE;&#x5C42;_1" xmlns="http://www.w3.org/2000/svg" xmlns:xlink="http://www.w3.org/1999/xlink" x="0px"
	 y="0px" viewBox="0 0 24 24" style="enable-background:new 0 0 24 24;" xml:space="preserve">
<path style="fill:#333333;" d="M12,22H4.5C3.122,22,2,20.879,2,19.5v-15C2,3.122,3.122,2,4.5,2h15C20.879,2,22,3.122,22,4.5V12h-2
	V4.5C20,4.224,19.775,4,19.5,4h-15C4.224,4,4,4.224,4,4.5v15C4,19.775,4.224,20,4.5,20H12V22z"/>
<path style="fill:#333333;" d="M16,20c-2.206,0-4-1.794-4-4s1.794-4,4-4s4,1.794,4,4S18.206,20,16,20z M16,14c-1.103,0-2,0.897-2,2
	s0.897,2,2,2s2-0.897,2-2S17.103,14,16,14z"/>
<rect x="18.75" y="17.399" transform="matrix(0.6247 -0.7809 0.7809 0.6247 -7.4242 22.553)" style="fill:#333333;" width="2.001" height="3.202"/>
<rect x="7" y="7" style="fill:#333333;" width="10" height="2"/>
<rect x="7" y="11" style="fill:#333333;" width="4" height="2"/>
</svg>






