<?xml version="1.0" encoding="iso-8859-1"?>
<svg version="1.1" id="&#x56FE;&#x5C42;_1" xmlns="http://www.w3.org/2000/svg" xmlns:xlink="http://www.w3.org/1999/xlink" x="0px"
	 y="0px" viewBox="0 0 24 24" style="enable-background:new 0 0 24 24;" xml:space="preserve">
<path style="fill:#333333;" d="M6.002,22.772c-1.007,0-1.988-0.383-2.729-1.071C2.464,20.947,2,19.881,2,18.775V18
	c0-1.379,1.122-2.5,2.5-2.5h9.635l2.887-13.706L18,1h3l0.979,1.206l-3.535,16.78c-0.364,1.737-1.855,3.039-3.627,3.166l-8.53,0.609
	C6.191,22.769,6.096,22.772,6.002,22.772z M4.5,17.5C4.224,17.5,4,17.725,4,18v0.775c0,0.561,0.226,1.08,0.636,1.462
	c0.411,0.382,0.945,0.567,1.507,0.53l8.531-0.609c0.885-0.063,1.63-0.715,1.812-1.583L19.768,3h-0.956l-2.718,12.911
	c-0.203,0.938-1.008,1.589-1.959,1.589H4.5z"/>
<path style="fill:#333333;" d="M7.5,9c-2.489,0-5-0.773-5-2.5S5.011,4,7.5,4s5,0.773,5,2.5S9.989,9,7.5,9z M4.727,6.5
	C5.188,6.731,6.157,7,7.5,7s2.312-0.269,2.773-0.5C9.812,6.269,8.843,6,7.5,6S5.188,6.269,4.727,6.5z"/>
<path style="fill:#333333;" d="M7.5,12c-2.489,0-5-0.773-5-2.5v-3h2v2.859C4.787,9.603,5.866,10,7.5,10s2.713-0.397,3-0.641V6.5h2v3
	C12.5,11.227,9.989,12,7.5,12z"/>
</svg>






