<?xml version="1.0" encoding="iso-8859-1"?>
<svg version="1.1" id="&#x56FE;&#x5C42;_1" xmlns="http://www.w3.org/2000/svg" xmlns:xlink="http://www.w3.org/1999/xlink" x="0px"
	 y="0px" viewBox="0 0 24 24" style="enable-background:new 0 0 24 24;" xml:space="preserve">
<path style="fill:#333333;" d="M14,18.5c-1.815,0-3.259-0.486-4.532-0.916C8.538,17.271,7.735,17,7,17H2v-2h5
	c1.063,0,2.056,0.335,3.107,0.689C11.29,16.088,12.513,16.5,14,16.5c2.531,0,5.762-2.676,6.793-3.707
	c0.085-0.085,0.155-0.165,0.213-0.238c-1.357,0.184-4.747,0.813-7.81,1.426l-0.261,0.052l-3.252-1.084l0.633-1.897l2.748,0.916
	c1.709-0.34,7.448-1.467,8.436-1.467c0.763,0,1.371,0.368,1.626,0.985c0.331,0.798-0.013,1.816-0.919,2.722
	C22.032,14.383,17.87,18.5,14,18.5z"/>
<path style="fill:#333333;" d="M13.555,13.832l-1.11-1.663c0.508-0.342,1.044-0.871,1.18-1.15C12.83,10.264,8.701,8.5,7,8.5
	c-1.54,0-3.275,1.189-4.293,2.207L1.293,9.293C1.948,8.638,4.296,6.5,7,6.5c2.203,0,7.323,2.097,8.3,3.4
	c0.299,0.398,0.411,0.873,0.326,1.372C15.414,12.508,13.987,13.544,13.555,13.832z"/>
</svg>






