<?xml version="1.0" encoding="iso-8859-1"?>
<svg version="1.1" id="&#x56FE;&#x5C42;_1" xmlns="http://www.w3.org/2000/svg" xmlns:xlink="http://www.w3.org/1999/xlink" x="0px"
	 y="0px" viewBox="0 0 24 24" style="enable-background:new 0 0 24 24;" xml:space="preserve">
<path style="fill:#333333;" d="M15.721,12.198c-0.383,0-0.758-0.111-1.086-0.325l-4.048-2.629l-1.551,0.33L8.619,7.618l1.551-0.33
	c0.522-0.109,1.056-0.012,1.503,0.277l4.052,2.631l3.507-0.745L18.92,7.984l-2.04,0.434c-0.524,0.112-1.057,0.012-1.505-0.279
	l-4.049-2.63L2.438,7.398L2.022,5.442l8.887-1.889c0.514-0.109,1.063-0.008,1.504,0.278l4.051,2.63l2.04-0.433
	c0.521-0.112,1.057-0.013,1.505,0.279c0.448,0.291,0.757,0.739,0.867,1.262l0.312,1.467c0.111,0.521,0.012,1.056-0.278,1.504
	c-0.291,0.448-0.739,0.756-1.262,0.867l-3.508,0.746C16.001,12.184,15.86,12.198,15.721,12.198z"/>
<path style="fill:#333333;" d="M12.671,19.491c-0.383,0-0.757-0.11-1.085-0.323l-4.05-2.63l-2.04,0.434
	c-0.524,0.109-1.058,0.012-1.505-0.278c-0.448-0.291-0.756-0.739-0.867-1.262l-0.312-1.468C2.7,13.44,2.8,12.906,3.091,12.458
	c0.292-0.448,0.74-0.755,1.262-0.866l3.506-0.745c0.521-0.112,1.057-0.012,1.505,0.278l4.05,2.63l1.551-0.33l0.416,1.957
	l-1.551,0.33c-0.523,0.108-1.059,0.012-1.506-0.279l-4.049-2.63l-3.507,0.746l0.312,1.467l2.04-0.435
	c0.518-0.107,1.065-0.007,1.506,0.28l4.049,2.629l8.887-1.889l0.416,1.957l-8.888,1.889C12.95,19.477,12.81,19.491,12.671,19.491z"
	/>
</svg>






