<?xml version="1.0" encoding="iso-8859-1"?>
<svg version="1.1" id="&#x56FE;&#x5C42;_1" xmlns="http://www.w3.org/2000/svg" xmlns:xlink="http://www.w3.org/1999/xlink" x="0px"
	 y="0px" viewBox="0 0 24 24" style="enable-background:new 0 0 24 24;" xml:space="preserve">
<path style="fill:#333333;" d="M14,23c-1.815,0-3.259-0.486-4.532-0.916C8.538,21.771,7.735,21.5,7,21.5H2v-2h5
	c1.063,0,2.056,0.335,3.107,0.689C11.29,20.588,12.513,21,14,21c2.531,0,5.762-2.676,6.793-3.707
	c0.085-0.085,0.155-0.165,0.213-0.238c-1.357,0.184-4.747,0.813-7.81,1.426l-0.261,0.052l-3.252-1.084l0.633-1.896l2.748,0.916
	C14.773,16.127,20.513,15,21.5,15c0.763,0,1.371,0.368,1.626,0.984c0.331,0.799-0.013,1.816-0.919,2.723
	C22.032,18.883,17.87,23,14,23z"/>
<path style="fill:#333333;" d="M13.555,18.332l-1.11-1.663c0.508-0.342,1.044-0.87,1.18-1.15C12.83,14.764,8.701,13,7,13
	c-1.54,0-3.275,1.188-4.293,2.207l-1.414-1.414C1.948,13.138,4.296,11,7,11c2.203,0,7.323,2.098,8.3,3.4
	c0.299,0.397,0.411,0.872,0.326,1.371C15.414,17.008,13.987,18.044,13.555,18.332z"/>
<path style="fill:#333333;" d="M17,13.5c-1.379,0-2.5-1.121-2.5-2.5c0-1.378,1.121-2.5,2.5-2.5s2.5,1.122,2.5,2.5
	C19.5,12.379,18.379,13.5,17,13.5z M17,10.5c-0.275,0-0.5,0.224-0.5,0.5s0.225,0.5,0.5,0.5s0.5-0.224,0.5-0.5S17.275,10.5,17,10.5z"
	/>
<path style="fill:#333333;" d="M11,10c-1.378,0-2.5-1.122-2.5-2.5S9.622,5,11,5c1.379,0,2.5,1.122,2.5,2.5S12.379,10,11,10z M11,7
	c-0.276,0-0.5,0.224-0.5,0.5S10.724,8,11,8s0.5-0.224,0.5-0.5S11.276,7,11,7z"/>
<path style="fill:#333333;" d="M17,6c-1.379,0-2.5-1.122-2.5-2.5S15.621,1,17,1s2.5,1.122,2.5,2.5S18.379,6,17,6z M17,3
	c-0.275,0-0.5,0.224-0.5,0.5S16.725,4,17,4s0.5-0.224,0.5-0.5S17.275,3,17,3z"/>
</svg>






