<?xml version="1.0" encoding="iso-8859-1"?>
<svg version="1.1" id="&#x56FE;&#x5C42;_1" xmlns="http://www.w3.org/2000/svg" xmlns:xlink="http://www.w3.org/1999/xlink" x="0px"
	 y="0px" viewBox="0 0 24 24" style="enable-background:new 0 0 24 24;" xml:space="preserve">
<path style="fill:#333333;" d="M19,22.5c-0.228,0-5.611-0.006-9.142-0.51C4.644,21.245,2,19.902,2,18
	c0-0.647,0.248-1.218,0.716-1.648c1.077-0.988,2.994-0.882,3.369-0.848c0.11-0.008,0.35,0.013,0.612,0.033
	c0.344,0.026,1.149,0.088,1.352-0.038c-0.245-0.524-2.726-1.383-4.134-1.503l0.17-1.992C4.144,12.009,10.001,12.683,10,15.5
	c0,0.758-0.329,1.222-0.605,1.477c-0.775,0.717-1.976,0.625-2.854,0.554c-0.201-0.016-0.383-0.031-0.535-0.03
	c-0.747-0.063-1.639,0.05-1.938,0.325C4.027,17.863,4,17.896,4,18c0.062,0.242,1.287,1.316,6.142,2.01
	c3.388,0.484,8.804,0.49,8.858,0.49V22.5z"/>
<rect x="3.379" y="7.5" transform="matrix(0.7071 -0.7071 0.7071 0.7071 -4.3995 6.3787)" style="fill:#333333;" width="4.243" height="2"/>
<polygon style="fill:#333333;" points="20.293,5.707 18.586,4 14,4 14,2 19.414,2 21.707,4.293 "/>
<path style="fill:#333333;" d="M18,11H9.586L6.293,7.707L7,6h8.414l3.293,3.293L18,11z M10.414,9h5.172l-1-1H9.414L10.414,9z"/>
<rect x="20" y="8" style="fill:#333333;" width="2" height="3"/>
<rect x="12" y="13" style="fill:#333333;" width="2" height="2"/>
<rect x="15" y="13" style="fill:#333333;" width="2" height="4"/>
</svg>






