<?xml version="1.0" encoding="iso-8859-1"?>
<svg version="1.1" id="&#x56FE;&#x5C42;_1" xmlns="http://www.w3.org/2000/svg" xmlns:xlink="http://www.w3.org/1999/xlink" x="0px"
	 y="0px" viewBox="0 0 24 24" style="enable-background:new 0 0 24 24;" xml:space="preserve">
<path style="fill:#333333;" d="M4.238,8.933c-0.5,0-1.001-0.186-1.389-0.56L2.49,8.026C1.696,7.26,1.673,5.992,2.439,5.198
	l2.43-2.519c0.766-0.794,2.034-0.817,2.828-0.051l0.36,0.347C8.851,3.742,8.873,5.01,8.108,5.804l-2.43,2.519
	C5.285,8.729,4.762,8.933,4.238,8.933z M3.878,6.586L3.878,6.586l0.36,0.347l2.43-2.519l-0.36-0.347L3.878,6.586z"/>
<path style="fill:#333333;" d="M11.434,15.876c-0.5,0-1.001-0.186-1.389-0.56L9.687,14.97c-0.794-0.766-0.816-2.034-0.051-2.828
	l2.43-2.519c0.768-0.792,2.033-0.816,2.828-0.051l0.359,0.348c0.794,0.766,0.816,2.035,0.051,2.828l-2.43,2.519
	C12.481,15.672,11.958,15.876,11.434,15.876z M11.075,13.53L11.075,13.53l0.359,0.347l2.43-2.519l-0.359-0.348L11.075,13.53z"/>
<path style="fill:#333333;" d="M4.995,11.748c-0.5,0-1-0.186-1.388-0.56l-0.36-0.347c-0.384-0.371-0.602-0.869-0.611-1.403
	c-0.01-0.534,0.189-1.04,0.56-1.425l4.513-4.678c0.766-0.792,2.035-0.817,2.829-0.05l0.359,0.347
	c0.384,0.371,0.602,0.869,0.611,1.403c0.01,0.534-0.189,1.04-0.56,1.424l-4.513,4.678C6.043,11.543,5.519,11.748,4.995,11.748z
	 M4.636,9.402L4.636,9.402l0.36,0.347l4.513-4.678l-0.36-0.347L4.636,9.402z"/>
<path style="fill:#333333;" d="M8.594,15.22c-0.5,0-1.001-0.186-1.389-0.56l-0.359-0.347c-0.794-0.766-0.816-2.034-0.051-2.828
	l4.514-4.678c0.37-0.384,0.868-0.602,1.403-0.611c0.549,0.01,1.041,0.189,1.425,0.561l0.359,0.347
	c0.385,0.37,0.602,0.869,0.611,1.403c0.01,0.535-0.189,1.041-0.561,1.425l-4.513,4.677C9.642,15.016,9.118,15.22,8.594,15.22z
	 M8.234,12.874L8.234,12.874l0.359,0.347l4.514-4.677l-0.359-0.348L8.234,12.874z"/>
<path style="fill:#333333;" d="M5.406,14.923c-0.5,0-1.001-0.186-1.389-0.56l-0.359-0.347c-0.794-0.766-0.816-2.035-0.051-2.828
	l7.291-7.556c0.766-0.792,2.034-0.816,2.828-0.051l0.359,0.347c0.386,0.372,0.603,0.87,0.611,1.405
	c0.01,0.534-0.189,1.04-0.561,1.424l-7.29,7.555C6.454,14.719,5.93,14.923,5.406,14.923z M5.046,12.577L5.046,12.577l0.359,0.347
	l7.291-7.556l-0.358-0.347L5.046,12.577z"/>
<path style="fill:#333333;" d="M19.73,22.576l-8.644-8.339l3.473-3.599l8.643,8.339L19.73,22.576z M13.915,14.187l5.765,5.562
	l0.694-0.72l-5.764-5.562L13.915,14.187z"/>
<path style="fill:#333333;" d="M8.5,23c-1.654,0-3-1.29-3-2.875c0-1.297,1.593-3.101,2.277-3.816L8.5,15.554l0.723,0.755
	c0.685,0.716,2.277,2.52,2.277,3.816C11.5,21.71,10.154,23,8.5,23z M8.5,18.518c-0.553,0.688-0.975,1.354-1,1.617
	C7.5,20.607,7.949,21,8.5,21c0.549,0,0.996-0.389,1-0.868C9.472,19.865,9.051,19.203,8.5,18.518z"/>
</svg>






