<?xml version="1.0" encoding="iso-8859-1"?>
<svg version="1.1" id="&#x56FE;&#x5C42;_1" xmlns="http://www.w3.org/2000/svg" xmlns:xlink="http://www.w3.org/1999/xlink" x="0px"
	 y="0px" viewBox="0 0 24 24" style="enable-background:new 0 0 24 24;" xml:space="preserve">
<path style="fill:#333333;" d="M6.134,8.595c-0.681,0-1.361-0.259-1.879-0.777c-1.036-1.037-1.036-2.723,0-3.758l2.345-2.345
	c1.036-1.036,2.723-1.036,3.759,0c1.037,1.036,1.037,2.723,0,3.759L8.013,7.817C7.495,8.335,6.814,8.595,6.134,8.595z M8.479,2.936
	C8.31,2.936,8.142,3,8.013,3.128L5.668,5.473c-0.256,0.256-0.256,0.674,0,0.93c0.256,0.257,0.673,0.257,0.93,0l2.345-2.344
	c0.256-0.257,0.256-0.674,0-0.931C8.815,3,8.647,2.936,8.479,2.936z"/>
<path style="fill:#333333;" d="M10.433,13.676c-0.71,0-1.377-0.276-1.879-0.778c-1.036-1.036-1.036-2.722,0-3.758l3.126-3.126
	c1.036-1.036,2.721-1.037,3.759,0c1.036,1.036,1.036,2.723,0,3.759l-3.126,3.126C11.81,13.399,11.143,13.676,10.433,13.676z
	 M13.094,7.427l-3.126,3.126c-0.256,0.256-0.256,0.674,0,0.93c0.25,0.25,0.682,0.249,0.93,0l3.126-3.126
	c0.257-0.257,0.257-0.674,0-0.931C13.768,7.169,13.349,7.171,13.094,7.427L13.094,7.427z"/>
<path style="fill:#333333;" d="M19.71,20.004c-0.575,0-1.125-0.201-1.536-0.612l-6.885-6.885l1.415-1.414l6.885,6.885
	c0.068,0.065,0.399,0.046,0.688-0.242c0.152-0.152,0.25-0.337,0.271-0.509c0.011-0.094-0.007-0.158-0.028-0.18l-6.886-6.885
	l1.414-1.414l6.886,6.885c0.462,0.462,0.681,1.126,0.601,1.823c-0.071,0.62-0.371,1.223-0.843,1.694
	C21.125,19.715,20.399,20.004,19.71,20.004z"/>
<path style="fill:#333333;" d="M6.916,12.502c-0.681,0-1.361-0.259-1.879-0.777C4,10.689,4,9.003,5.036,7.967l5.472-5.472
	c1.036-1.035,2.721-1.035,3.758,0c1.036,1.037,1.036,2.723,0,3.759l-5.471,5.471C8.277,12.243,7.596,12.502,6.916,12.502z
	 M11.921,3.91L6.45,9.381c-0.256,0.256-0.256,0.674,0,0.93c0.256,0.257,0.673,0.257,0.93,0l5.471-5.471
	c0.257-0.257,0.257-0.674,0-0.931C12.594,3.653,12.177,3.654,11.921,3.91L11.921,3.91z"/>
<path style="fill:#333333;" d="M8.585,23.071c-1.579,0-2.837-0.791-3.453-2.17c-0.731-1.638-0.433-3.821,0.695-5.08
	c0.69-0.771,0.74-2.099,0.148-3.944l1.904-0.611c0.825,2.57,0.635,4.552-0.562,5.89c-0.593,0.662-0.761,2.031-0.359,2.93
	c0.296,0.664,0.829,0.986,1.627,0.986c1.204,0,1.813-0.743,1.981-1.438c0.162-0.668-0.017-1.562-1.002-2.067l0.914-1.779
	c1.636,0.842,2.453,2.576,2.032,4.316C12.08,21.879,10.503,23.071,8.585,23.071z"/>
</svg>






