<?xml version="1.0" encoding="iso-8859-1"?>
<svg version="1.1" id="&#x56FE;&#x5C42;_1" xmlns="http://www.w3.org/2000/svg" xmlns:xlink="http://www.w3.org/1999/xlink" x="0px"
	 y="0px" viewBox="0 0 24 24" style="enable-background:new 0 0 24 24;" xml:space="preserve">
<path style="fill:#333333;" d="M3,12.5H1V9.149C1,3.59,5.774,1,9,1v2C7.121,3,3,4.548,3,9.149V12.5z"/>
<rect x="16.5" y="15" style="fill:#333333;" width="2" height="7"/>
<path style="fill:#333333;" d="M19.299,17.277c-0.88,0-1.676-0.462-2.156-1.263c-1.249-2.081-3.967-2.256-4.825-2.152
	c-2.011,0.353-3.628-0.601-4.262-2.554l1.902-0.617c0.427,1.316,1.386,1.311,2.069,1.192c1.896-0.231,5.218,0.416,6.83,3.102
	c0.085,0.144,0.229,0.309,0.485,0.29c0.426-0.033,1.135-0.599,1.729-2.078l1.855,0.746c-1.103,2.744-2.62,3.262-3.427,3.326
	C19.434,17.274,19.366,17.277,19.299,17.277z"/>
<path style="fill:#333333;" d="M6,22H4V8.971c0-2.839,1.565-3.776,2.317-4.226l0.151-0.092c2.141-1.076,3.862-0.379,4.506-0.033
	c0.815,0.438,1.667,1.35,1.761,1.452l1.046,1.303l-1.562,1.249l-1-1.25c-0.225-0.239-0.8-0.782-1.193-0.994
	c-0.37-0.198-1.36-0.596-2.579,0.014L7.344,6.461C6.714,6.838,6,7.266,6,8.971V22z"/>
<path style="fill:#333333;" d="M14.5,22h-2v-1.5c0-0.827-0.673-1.5-1.5-1.5s-1.5,0.673-1.5,1.5V22h-2v-1.5c0-1.93,1.57-3.5,3.5-3.5
	s3.5,1.57,3.5,3.5V22z"/>
</svg>






