<?xml version="1.0" encoding="iso-8859-1"?>
<svg version="1.1" id="&#x56FE;&#x5C42;_1" xmlns="http://www.w3.org/2000/svg" xmlns:xlink="http://www.w3.org/1999/xlink" x="0px"
	 y="0px" viewBox="0 0 24 24" style="enable-background:new 0 0 24 24;" xml:space="preserve">
<path style="fill:#333333;" d="M15,22H3c-1.103,0-2-0.897-2-2V4c0-1.103,0.897-2,2-2h10c1.103,0,2,0.897,2,2V22z M3,4v16h10V4H3z"/>
<path style="fill:#333333;" d="M11.5,21h-2v-4.5C9.5,16.225,9.276,16,9,16H7c-0.276,0-0.5,0.225-0.5,0.5V21h-2v-4.5
	C4.5,15.121,5.622,14,7,14h2c1.378,0,2.5,1.121,2.5,2.5V21z"/>
<path style="fill:#333333;" d="M21,22h-8V11h8c1.103,0,2,0.897,2,2v7C23,21.103,22.103,22,21,22z M15,20h6v-7h-6V20z"/>
<rect x="6" y="8" style="fill:#333333;" width="4" height="2"/>
<rect x="17" y="14" style="fill:#333333;" width="2" height="2"/>
<rect x="17" y="17" style="fill:#333333;" width="2" height="2"/>
<rect x="7" y="7" style="fill:#333333;" width="2" height="4"/>
<rect x="3.5" y="20" style="fill:#333333;" width="9" height="2"/>
</svg>






