<?xml version="1.0" encoding="iso-8859-1"?>
<svg version="1.1" id="&#x56FE;&#x5C42;_1" xmlns="http://www.w3.org/2000/svg" xmlns:xlink="http://www.w3.org/1999/xlink" x="0px"
	 y="0px" viewBox="0 0 24 24" style="enable-background:new 0 0 24 24;" xml:space="preserve">
<path style="fill:#333333;" d="M12,19c-3.85,0-8.5-4.382-8.5-9.824C3.5,4.515,7.154,1,12,1s8.5,3.515,8.5,8.176
	C20.5,14.618,15.85,19,12,19z M12,3C7.733,3,5.5,6.107,5.5,9.176C5.5,13.39,9.074,17,12,17s6.5-3.61,6.5-7.824
	C18.5,6.107,16.268,3,12,3z"/>
<path style="fill:#333333;" d="M13.225,18.688l-1.45-1.377C13.328,15.677,15,12.691,15,10c0-2.751-1.616-5.651-3.218-7.304
	l1.436-1.392C14.963,3.105,17,6.463,17,10C17,13.258,15.104,16.711,13.225,18.688z"/>
<path style="fill:#333333;" d="M10.806,18.72C8.387,16.386,7,13.207,7,10c0-3.299,1.354-6.398,3.812-8.726l1.375,1.452
	C10.132,4.672,9,7.255,9,10c0,2.668,1.165,5.321,3.194,7.28L10.806,18.72z"/>
<path style="fill:#333333;" d="M13.453,9.234c-1.406,0-2.577-0.23-2.65-0.245l0.393-1.961c0.023,0.004,2.339,0.456,4.055,0.012
	c1.773-0.458,3.19-1.37,3.205-1.379l1.092,1.676c-0.068,0.044-1.694,1.096-3.797,1.64C15.003,9.17,14.195,9.234,13.453,9.234z"/>
<path style="fill:#333333;" d="M11.752,13.062c-0.815,0-1.9-0.068-2.995-0.343c-2.083-0.521-4.599-1.772-4.705-1.825l0.895-1.789
	c0.024,0.012,2.428,1.208,4.295,1.674c1.796,0.449,3.616,0.23,3.633,0.228l0.248,1.984C13.08,12.998,12.543,13.062,11.752,13.062z"
	/>
<path style="fill:none;" d="M9,17.5l0.7,3.548c0,0,1.363,0.952,2.3,0.952s2.3-0.952,2.3-0.952l0.697-3.533L12,18L9,17.5z"/>
<path style="fill:#333333;" d="M12,23c-1.192,0-2.602-0.943-2.873-1.133l-0.33-0.23l-1.058-5.36l4.263,0.71l4.255-0.688
	l-1.054,5.339l-0.33,0.23C14.603,22.057,13.192,23,12,23z M10.599,20.437C11.069,20.716,11.68,21,12,21
	c0.323,0,0.933-0.284,1.401-0.562l0.336-1.706l-1.74,0.282l-1.737-0.29L10.599,20.437z"/>
</svg>






