<?xml version="1.0" encoding="iso-8859-1"?>
<svg version="1.1" id="&#x56FE;&#x5C42;_1" xmlns="http://www.w3.org/2000/svg" xmlns:xlink="http://www.w3.org/1999/xlink" x="0px"
	 y="0px" viewBox="0 0 24 24" style="enable-background:new 0 0 24 24;" xml:space="preserve">
<rect x="11" y="2" style="fill:#333333;" width="2" height="3.5"/>
<rect x="15" y="3.5" style="fill:#333333;" width="2" height="2"/>
<rect x="7" y="3.5" style="fill:#333333;" width="2" height="2"/>
<path style="fill:#333333;" d="M12,17.5c-2.127,0-4.191-0.495-5.967-1.433C2.881,14.402,1,11.574,1,8.5v-1h22v1
	c0,3.074-1.882,5.902-5.033,7.566C16.19,17.005,14.128,17.5,12,17.5z M3.093,9.5c0.36,1.931,1.751,3.678,3.874,4.799
	c2.978,1.57,7.088,1.57,10.066-0.001c2.122-1.12,3.515-2.867,3.874-4.798H3.093z"/>
<rect x="5.233" y="18.5" style="fill:#333333;" width="13.533" height="2"/>
<rect x="1.948" y="17.591" transform="matrix(0.2813 -0.9596 0.9596 0.2813 -13.8877 18.6396)" style="fill:#333333;" width="7.105" height="2"/>
<rect x="17.5" y="15.039" transform="matrix(0.9596 -0.2815 0.2815 0.9596 -4.4854 5.9597)" style="fill:#333333;" width="2.001" height="7.105"/>
<rect x="10" y="11.5" style="fill:#333333;" width="4" height="2"/>
</svg>






