<?xml version="1.0" encoding="iso-8859-1"?>
<svg version="1.1" id="&#x56FE;&#x5C42;_1" xmlns="http://www.w3.org/2000/svg" xmlns:xlink="http://www.w3.org/1999/xlink" x="0px"
	 y="0px" viewBox="0 0 24 24" style="enable-background:new 0 0 24 24;" xml:space="preserve">
<path style="fill:#333333;" d="M12,19c-5.949,0-9.5-3.738-9.5-10V8h19v1C21.5,15.262,17.948,19,12,19z M4.538,10
	C4.766,12.985,6.16,17,12,17c5.841,0,7.234-4.015,7.463-7H4.538z"/>
<polygon style="fill:#333333;" points="18.388,23 5.613,23 7.551,17.184 9.449,17.816 8.387,21 15.612,21 14.552,17.816 
	16.448,17.184 "/>
<polygon style="fill:#333333;" points="13.503,9.079 13.021,3 10.979,3 10.497,9.079 8.503,8.921 9.132,1 14.868,1 15.497,8.921 "/>
<path style="fill:#333333;" d="M8.935,14.998c-0.152-0.01-0.946-0.096-1.642-0.791s-0.781-1.489-0.791-1.642l1.993-0.163
	c0.001,0.009,0.031,0.209,0.212,0.391c0.165,0.165,0.357,0.209,0.358,0.209L8.935,14.998z"/>
</svg>






