<?xml version="1.0" encoding="iso-8859-1"?>
<svg version="1.1" id="&#x56FE;&#x5C42;_1" xmlns="http://www.w3.org/2000/svg" xmlns:xlink="http://www.w3.org/1999/xlink" x="0px"
	 y="0px" viewBox="0 0 24 24" style="enable-background:new 0 0 24 24;" xml:space="preserve">
<rect x="2" y="1" style="fill:#333333;" width="20" height="2"/>
<path style="fill:#333333;" d="M19,23H5c-1.103,0-2-0.897-2-2V3c0-1.103,0.897-2,2-2h14c1.103,0,2,0.897,2,2v18
	C21,22.103,20.103,23,19,23z M5,3H4.999L5,21h14V3H5z"/>
<path style="fill:#333333;" d="M15,23H9v-8h6V23z M11,21h2v-4h-2V21z"/>
<rect x="7.5" y="5" style="fill:#333333;" width="1" height="2"/>
<rect x="7.5" y="8" style="fill:#333333;" width="1" height="2"/>
<rect x="11.5" y="5" style="fill:#333333;" width="1" height="2"/>
<rect x="11.5" y="8" style="fill:#333333;" width="1" height="2"/>
<rect x="15.5" y="5" style="fill:#333333;" width="1" height="2"/>
<rect x="15.5" y="8" style="fill:#333333;" width="1" height="2"/>
<rect x="2" y="21" style="fill:#333333;" width="20" height="2"/>
<path style="fill:#333333;" d="M15,17h-1v-2h0.161c-0.439-0.6-1.257-1-2.161-1s-1.722,0.4-2.161,1H10v2H9
	c-0.446,0-0.861-0.194-1.14-0.532c-0.267-0.323-0.374-0.744-0.294-1.155C7.94,13.393,9.804,12,12,12
	c2.195,0,4.061,1.393,4.434,3.312c0.08,0.412-0.027,0.833-0.294,1.156C15.861,16.806,15.445,17,15,17z"/>
</svg>






