<?xml version="1.0" encoding="iso-8859-1"?>
<svg version="1.1" id="&#x56FE;&#x5C42;_1" xmlns="http://www.w3.org/2000/svg" xmlns:xlink="http://www.w3.org/1999/xlink" x="0px"
	 y="0px" viewBox="0 0 24 24" style="enable-background:new 0 0 24 24;" xml:space="preserve">
<path style="fill:none;" d="M6.5,13.5c0,0,10,0,10-6V22h-10V13.5z"/>
<path style="fill:#333333;" d="M17.5,23h-12V12.502L6.499,12.5c0.09,0,9.001-0.07,9.001-5V7c0-2.206-1.794-4-4-4
	c-2.206,0-4,1.794-4,4h-2c0-3.309,2.691-6,6-6s6,2.691,6,6V23z M7.5,21h8v-9.171c-2.358,2.012-6.187,2.509-8,2.631V21z"/>
<rect x="10.5" y="15.379" transform="matrix(0.7071 -0.7071 0.7071 0.7071 -9.0061 13.2574)" style="fill:#333333;" width="2" height="4.243"/>
<rect x="9.379" y="16.5" transform="matrix(0.7071 -0.7071 0.7071 0.7071 -9.0061 13.2574)" style="fill:#333333;" width="4.243" height="2"/>
</svg>






