<?xml version="1.0" encoding="iso-8859-1"?>
<svg version="1.1" id="&#x56FE;&#x5C42;_1" xmlns="http://www.w3.org/2000/svg" xmlns:xlink="http://www.w3.org/1999/xlink" x="0px"
	 y="0px" viewBox="0 0 24 24" style="enable-background:new 0 0 24 24;" xml:space="preserve">
<rect x="4" y="1" style="fill:#333333;" width="16" height="2"/>
<rect x="4" y="21" style="fill:#333333;" width="16" height="2"/>
<polygon style="fill:#333333;" points="9.757,13.669 5,8.384 5,2 7,2 7,7.616 11.243,12.331 "/>
<polygon style="fill:#333333;" points="19,22 17,22 17,15.181 12.813,11.227 14.187,9.773 19,14.319 "/>
<polygon style="fill:#333333;" points="7,22 5,22 5,14.586 8.543,11.043 9.957,12.457 7,15.414 "/>
<polygon style="fill:#333333;" points="15.506,12.405 13.994,11.095 17,7.627 17,2 19,2 19,8.373 "/>
<rect x="9" y="15.5" style="fill:#333333;" width="0.5" height="2"/>
<rect x="13.75" y="16.25" transform="matrix(0.7071 -0.7071 0.7071 0.7071 -7.3471 15.2626)" style="fill:#333333;" width="2" height="0.5"/>
<rect x="12" y="18" style="fill:#333333;" width="0.5" height="2"/>
</svg>






