<?xml version="1.0" encoding="iso-8859-1"?>
<svg version="1.1" id="&#x56FE;&#x5C42;_1" xmlns="http://www.w3.org/2000/svg" xmlns:xlink="http://www.w3.org/1999/xlink" x="0px"
	 y="0px" viewBox="0 0 24 24" style="enable-background:new 0 0 24 24;" xml:space="preserve">
<path style="fill:#333333;" d="M12,22.399c-0.286,0-0.572-0.062-0.839-0.186l-5.557-2.564c-0.645-0.298-1.087-0.922-1.153-1.63
	L3.107,3.687C3.054,3.128,3.241,2.569,3.619,2.154C3.997,1.738,4.536,1.5,5.098,1.5h13.803c0.562,0,1.101,0.238,1.479,0.653
	c0.379,0.416,0.565,0.974,0.514,1.533L19.55,18.021c-0.066,0.706-0.508,1.33-1.152,1.629l-5.56,2.565
	C12.572,22.338,12.286,22.399,12,22.399z M5.098,3.5l1.344,14.333L12,20.398l5.559-2.565L18.901,3.5H5.098z"/>
<polygon style="fill:#333333;" points="12,18.618 8.06,16.647 7.755,13.6 9.745,13.4 9.94,15.353 12,16.382 14.055,15.354 
	14.405,11.5 7.605,11.5 6.883,5 16,5 16,7 9.117,7 9.395,9.5 16.595,9.5 15.945,16.646 "/>
</svg>






