<?xml version="1.0" encoding="iso-8859-1"?>
<svg version="1.1" id="&#x56FE;&#x5C42;_1" xmlns="http://www.w3.org/2000/svg" xmlns:xlink="http://www.w3.org/1999/xlink" x="0px"
	 y="0px" viewBox="0 0 24 24" style="enable-background:new 0 0 24 24;" xml:space="preserve">
<path style="fill:#333333;" d="M23,22H1v-8.5h22V22z M3,20h18v-4.5H3V20z"/>
<polygon style="fill:#333333;" points="2.979,14.705 1.021,14.295 3.707,1.5 20.323,1.5 22.979,14.297 21.021,14.703 18.696,3.5 
	5.331,3.5 "/>
<path style="fill:#333333;" d="M9.5,12C7.57,12,6,10.43,6,8.5S7.57,5,9.5,5v2C8.673,7,8,7.673,8,8.5S8.673,10,9.5,10V12z"/>
<path style="fill:#333333;" d="M14.5,12v-2c0.827,0,1.5-0.673,1.5-1.5S15.327,7,14.5,7V5C16.43,5,18,6.57,18,8.5S16.43,12,14.5,12z"
	/>
<rect x="10" y="7.5" style="fill:#333333;" width="4" height="2"/>
</svg>






