<?xml version="1.0" encoding="iso-8859-1"?>
<svg version="1.1" id="&#x56FE;&#x5C42;_1" xmlns="http://www.w3.org/2000/svg" xmlns:xlink="http://www.w3.org/1999/xlink" x="0px"
	 y="0px" viewBox="0 0 24 24" style="enable-background:new 0 0 24 24;" xml:space="preserve">
<path style="fill:#333333;" d="M17.696,8.02c-1.642-0.348-2.786-1.791-2.811-3.458h-2.537v10.224c-0.05,1.169-1.02,2.09-2.189,2.065
	c-1.169-0.025-2.09-0.995-2.09-2.164c0.025-1.169,0.97-2.114,2.139-2.114c0.224,0,0.423,0.025,0.622,0.1V10.06
	c-0.199-0.025-0.423-0.025-0.622-0.025h-0.099c-2.587,0.075-4.627,2.189-4.577,4.776c0.05,2.587,2.164,4.627,4.751,4.602
	c2.587-0.025,4.652-2.139,4.652-4.702V9.512c1.045,0.746,2.264,1.144,3.557,1.144V8.094C18.194,8.094,17.945,8.07,17.696,8.02z"/>
<path style="fill:#333333;" d="M16.975,22h-9.95C4.239,22,2,19.736,2,16.975v-9.95C2,4.239,4.239,2,7.025,2h9.95
	C19.736,2,22,4.239,22,7.025v9.95C22,19.736,19.736,22,16.975,22z M7.05,2.224c-2.662,0-4.826,2.164-4.826,4.826v9.876
	c0,2.662,2.164,4.826,4.826,4.826h9.876c2.662,0,4.826-2.164,4.826-4.826V7.05c0-2.662-2.164-4.826-4.826-4.826H7.05z"/>
<path style="fill:#333333;" d="M18.069,17.871c0-0.05,0-0.149,0-0.224c0-0.025,0.025-0.025,0.025-0.025
	c0.025,0,0.299,0.249,0.299,0.249"/>
<path style="fill:#333333;" d="M10.21,16.602c1.02,0,1.841-0.796,1.891-1.816V13.99c-0.473-0.199-0.945-0.373-1.443-0.498
	c-0.05-0.025-0.1-0.025-0.149-0.025c0,0.05,0,0.099,0,0.149c0,1.119-0.323,2.04-0.846,2.886c0.149,0.05,0.323,0.075,0.498,0.075
	C10.16,16.602,10.185,16.602,10.21,16.602z"/>
<path style="fill:#333333;" d="M18.269,17.771c-0.025-0.025-0.1-0.05-0.124-0.025c-0.05,0.025-0.075,0.05-0.075,0.099
	c-0.025,0.796-0.224,1.567-0.522,2.264c0.025-0.075-0.124-0.373-0.149-0.448c-0.05-0.149-0.1-0.299-0.174-0.448
	c-0.124-0.299-0.249-0.572-0.398-0.871c-0.299-0.547-0.647-1.095-1.02-1.567c-0.249-0.323-0.522-0.597-0.821-0.871
	c-0.547,2.114-2.438,3.706-4.726,3.731h-0.05c-0.995,0-1.915-0.299-2.687-0.796c-0.174,0.149-0.373,0.299-0.547,0.448
	c-0.423-0.448-0.771-0.945-1.07-1.493c-0.025-0.05-0.05-0.1-0.05-0.149c-0.05,0.05-0.099,0.075-0.149,0.124
	c-0.896,0.796-1.667,1.692-2.313,2.637c0.05,0.05,0.124,0.124,0.174,0.174c0.025-0.025,0.05-0.075,0.075-0.1l0.622,0.547
	l0.398,0.174c-0.05,0.025-0.075,0.075-0.124,0.1c0.075,0.05,0.149,0.075,0.224,0.124c0.05-0.05,0.1-0.075,0.149-0.124l0.92,0.423
	l2.264,0.149h7.488c0,0.025,0,0.05-0.025,0.075h1.02c0.025-0.025,0.05-0.05,0.075-0.075c0-0.025,0.025-0.025,0.025-0.05l1.368-0.124
	l1.368-0.572l0.92-0.697c0.025,0.05,0.05,0.075,0.075,0.124c0.05-0.05,0.124-0.124,0.174-0.174
	C19.936,19.463,19.165,18.567,18.269,17.771z"/>
<path style="fill:#333333;" d="M10.259,19.388c2.214-0.025,4.08-1.592,4.527-3.682c-0.572-0.498-1.194-0.945-1.866-1.318
	c-0.199-0.099-0.398-0.199-0.597-0.299v0.672c-0.05,1.144-0.995,2.065-2.139,2.065c-0.025,0-0.025,0-0.05,0
	c-0.224,0-0.423-0.05-0.622-0.124c-0.473,0.697-1.095,1.343-1.791,1.94c0.721,0.448,1.567,0.721,2.488,0.721
	C10.209,19.388,10.234,19.388,10.259,19.388z M9.164,17.597C9.14,17.597,9.164,17.597,9.164,17.597L9.164,17.597z"/>
</svg>






