<?xml version="1.0" encoding="iso-8859-1"?>
<svg version="1.1" id="&#x56FE;&#x5C42;_1" xmlns="http://www.w3.org/2000/svg" xmlns:xlink="http://www.w3.org/1999/xlink" x="0px"
	 y="0px" viewBox="0 0 24 24" style="enable-background:new 0 0 24 24;" xml:space="preserve">
<path style="fill:#333333;" d="M23,15H1V2h22V15z M3,13h18V4H3V13z"/>
<polygon style="fill:#333333;" points="23,19 1,19 1,14 3,14 3,17 21,17 21,14 23,14 "/>
<path style="fill:#333333;" d="M6.545,9H5.455C5.203,9,5,9.203,5,9.455v1.091C5,10.797,5.203,11,5.455,11h1.091
	C6.797,11,7,10.797,7,10.545V9.455C7,9.203,6.797,9,6.545,9z"/>
<path style="fill:#333333;" d="M6.545,6H5.455C5.203,6,5,6.203,5,6.455v1.091C5,7.797,5.203,8,5.455,8h1.091
	C6.797,8,7,7.797,7,7.545V6.455C7,6.203,6.797,6,6.545,6z"/>
<path style="fill:#333333;" d="M10.545,9H9.455C9.203,9,9,9.203,9,9.455v1.091C9,10.797,9.203,11,9.455,11h1.091
	C10.797,11,11,10.797,11,10.545V9.455C11,9.203,10.797,9,10.545,9z"/>
<path style="fill:#333333;" d="M10.545,6H9.455C9.203,6,9,6.203,9,6.455v1.091C9,7.797,9.203,8,9.455,8h1.091
	C10.797,8,11,7.797,11,7.545V6.455C11,6.203,10.797,6,10.545,6z"/>
<path style="fill:#333333;" d="M14.545,9h-1.091C13.203,9,13,9.203,13,9.455v1.091C13,10.797,13.203,11,13.455,11h1.091
	C14.797,11,15,10.797,15,10.545V9.455C15,9.203,14.797,9,14.545,9z"/>
<path style="fill:#333333;" d="M14.545,6h-1.091C13.203,6,13,6.203,13,6.455v1.091C13,7.797,13.203,8,13.455,8h1.091
	C14.797,8,15,7.797,15,7.545V6.455C15,6.203,14.797,6,14.545,6z"/>
<path style="fill:#333333;" d="M18.545,6h-1.091C17.204,6,17,6.203,17,6.455v1.091C17,7.797,17.204,8,17.455,8h1.091
	C18.796,8,19,7.797,19,7.545V6.455C19,6.203,18.796,6,18.545,6z"/>
<polygon style="fill:#333333;" points="16,22 8,22 7.222,20.372 9.646,17.372 11.201,18.628 10.093,20 13.907,20 12.799,18.628 
	14.355,17.372 16.778,20.372 "/>
</svg>






