<?xml version="1.0" encoding="iso-8859-1"?>
<svg version="1.1" id="&#x56FE;&#x5C42;_1" xmlns="http://www.w3.org/2000/svg" xmlns:xlink="http://www.w3.org/1999/xlink" x="0px"
	 y="0px" viewBox="0 0 24 24" style="enable-background:new 0 0 24 24;" xml:space="preserve">
<path style="fill:#333333;" d="M16.865,17h-9.73C6.509,17,6,16.491,6,15.865V7c0-3.309,2.691-6,6-6s6,2.691,6,6v8.865
	C18,16.491,17.491,17,16.865,17z M8,15h8V7c0-2.206-1.794-4-4-4C9.794,3,8,4.794,8,7V15z"/>
<path style="fill:#333333;" d="M12,23c-1.378,0-2.5-1.121-2.5-2.5V16h2v4.5c0,0.275,0.224,0.5,0.5,0.5c0.275,0,0.5-0.225,0.5-0.5V16
	h2v4.5C14.5,21.879,13.379,23,12,23z"/>
<path style="fill:#333333;" d="M9.5,10.033c-1.162,0-2.323-0.442-3.207-1.326l1.414-1.414c0.988,0.988,2.598,0.988,3.586,0
	c1.768-1.769,4.646-1.769,6.414,0l-1.414,1.414c-0.988-0.988-2.598-0.988-3.586,0C11.823,9.591,10.662,10.033,9.5,10.033z"/>
</svg>






