<?xml version="1.0" encoding="iso-8859-1"?>
<svg version="1.1" id="&#x56FE;&#x5C42;_1" xmlns="http://www.w3.org/2000/svg" xmlns:xlink="http://www.w3.org/1999/xlink" x="0px"
	 y="0px" viewBox="0 0 24 24" style="enable-background:new 0 0 24 24;" xml:space="preserve">
<g>
	<defs>
		<rect id="SVGID_1_" width="24" height="24"/>
	</defs>
	<clipPath id="SVGID_00000158736942765992331340000009580493844316172962_">
		<use xlink:href="#SVGID_1_"  style="overflow:visible;"/>
	</clipPath>
	<g style="clip-path:url(#SVGID_00000158736942765992331340000009580493844316172962_);">
		<path style="fill:#333333;" d="M5.705,21.529l-4.163-4.162L9.248,5.273l8.472,8.473L5.705,21.529z M4.092,17.088l1.883,1.883
			l8.583-5.559L9.595,8.45L4.092,17.088z"/>
		<path style="fill:#333333;" d="M15.879,14.706L8.305,7.131l-0.003-0.41C8.298,6.238,8.557,5.285,9.545,4.781
			c0.193-0.091,0.466-0.176,0.946-0.178c0.774-1.183,1.896-1.665,3.202-1.368c0.926-0.791,2.374-1.098,3.628-0.694
			c0.886,0.286,1.294,0.794,1.563,1.13c0.131,0.162,0.194,0.237,0.265,0.282c0-0.419,0.03-1.048,0.544-1.448
			c0.312-0.245,0.709-0.321,1.121-0.214c0.968,0.261,1.281,1.258,1.521,2.258c0.222,0.934,0.079,2.264-0.737,3.132
			c-0.274,0.292-0.646,0.493-1.004,0.639c0.098,0.692,0.071,1.572-0.5,2.143c-0.423,0.423-0.802,0.623-1.132,0.746
			c-0.069,1.346-0.428,2.979-2.561,3.396L15.879,14.706z M10.613,6.611l5.876,5.876c0.395-0.223,0.476-0.692,0.49-1.945l0.008-0.705
			l0.668-0.312c0.125-0.043,0.242-0.078,0.354-0.11c0.298-0.088,0.414-0.122,0.618-0.315c0.041-0.203-0.034-0.737-0.161-1.115
			l-0.327-0.971l1.132-0.357c0.182-0.054,0.733-0.217,0.873-0.349c0.181-0.192,0.271-0.515,0.285-0.828
			c-0.08,0.066-0.162,0.124-0.241,0.172c-0.598,0.369-1.285,0.411-1.884,0.117c-0.494-0.243-0.773-0.59-0.978-0.844
			c-0.202-0.251-0.304-0.377-0.62-0.479c-0.642-0.208-1.571,0.033-1.873,0.487l-0.454,0.687l-0.762-0.314
			c-0.69-0.287-1.185-0.25-1.663,0.776l-0.319,0.687l-0.747-0.121C10.781,6.629,10.689,6.618,10.613,6.611z M18.617,9.136
			L18.617,9.136L18.617,9.136z"/>
		<path style="fill:#333333;" d="M18.011,9.04c-0.98,0-1.904-0.443-2.794-1.333l1.414-1.414c0.821,0.82,1.407,0.941,2.327,0.474
			l0.906,1.782C19.223,8.876,18.606,9.04,18.011,9.04z"/>
	</g>
</g>
</svg>






