<?xml version="1.0" encoding="iso-8859-1"?>
<svg version="1.1" id="&#x56FE;&#x5C42;_1" xmlns="http://www.w3.org/2000/svg" xmlns:xlink="http://www.w3.org/1999/xlink" x="0px"
	 y="0px" viewBox="0 0 24 24" style="enable-background:new 0 0 24 24;" xml:space="preserve">
<path style="fill:#333333;" d="M18.113,17H5.887L7.602,1h8.797L18.113,17z M8.113,15h7.774L14.602,3H9.398L8.113,15z"/>
<path style="fill:#333333;" d="M12,23c-1.378,0-2.5-1.121-2.5-2.5V16h2v4.5c0,0.275,0.224,0.5,0.5,0.5c0.275,0,0.5-0.225,0.5-0.5V16
	h2v4.5C14.5,21.879,13.379,23,12,23z"/>
<path style="fill:#333333;" d="M10,8.827c-0.98,0-1.961-0.373-2.707-1.12l1.414-1.414c0.713,0.713,1.873,0.713,2.586,0
	c1.492-1.493,3.922-1.493,5.414,0l-1.414,1.414c-0.713-0.713-1.873-0.713-2.586,0C11.961,8.454,10.98,8.827,10,8.827z"/>
<path style="fill:#333333;" d="M9.855,13.134c-0.108,0-0.216-0.005-0.324-0.014c-1.099-0.09-2.124-0.635-2.812-1.495l1.562-1.25
	c0.351,0.439,0.854,0.706,1.414,0.752c0.556,0.052,1.099-0.135,1.517-0.512l0.239-0.216c0.82-0.739,1.923-1.112,3.019-1.02
	c1.099,0.09,2.124,0.635,2.812,1.496l-1.562,1.25c-0.351-0.439-0.853-0.706-1.413-0.752c-0.558-0.05-1.1,0.135-1.517,0.512
	l-0.239,0.216C11.81,12.767,10.843,13.134,9.855,13.134z"/>
</svg>






