<?xml version="1.0" encoding="iso-8859-1"?>
<svg version="1.1" id="&#x56FE;&#x5C42;_1" xmlns="http://www.w3.org/2000/svg" xmlns:xlink="http://www.w3.org/1999/xlink" x="0px"
	 y="0px" viewBox="0 0 24 24" style="enable-background:new 0 0 24 24;" xml:space="preserve">
<path style="fill:#333333;" d="M21,21H3c-1.103,0-2-0.897-2-2V5c0-1.103,0.897-2,2-2h18c1.103,0,2,0.897,2,2v14
	C23,20.103,22.103,21,21,21z M3,5H2.999L3,19h18V5H3z"/>
<path style="fill:#333333;" d="M8.5,13.5c-1.654,0-3-1.346-3-3s1.346-3,3-3s3,1.346,3,3S10.154,13.5,8.5,13.5z M8.5,9.5
	c-0.551,0-1,0.449-1,1s0.449,1,1,1s1-0.449,1-1S9.051,9.5,8.5,9.5z"/>
<path style="fill:#333333;" d="M12.5,15.5h-2c0-1.103-0.897-2-2-2s-2,0.897-2,2h-2c0-2.206,1.794-4,4-4S12.5,13.294,12.5,15.5z"/>
<rect x="14" y="9" style="fill:#333333;" width="4" height="2"/>
<rect x="15" y="13" style="fill:#333333;" width="3" height="2"/>
</svg>






