<?xml version="1.0" encoding="iso-8859-1"?>
<svg version="1.1" id="&#x56FE;&#x5C42;_1" xmlns="http://www.w3.org/2000/svg" xmlns:xlink="http://www.w3.org/1999/xlink" x="0px"
	 y="0px" viewBox="0 0 24 24" style="enable-background:new 0 0 24 24;" xml:space="preserve">
<path style="fill:#333333;" d="M21,21H3c-1.103,0-2-0.897-2-2V5c0-1.103,0.897-2,2-2h18c1.103,0,2,0.897,2,2v14
	C23,20.103,22.103,21,21,21z M3,5v14h18V5H3z"/>
<path style="fill:#333333;" d="M19,13h-6V7h6V13z M15,11h2V9h-2V11z"/>
<rect x="6" y="15" style="fill:#333333;" width="12" height="2"/>
<rect x="6" y="7" style="fill:#333333;" width="3" height="2"/>
<rect x="6" y="11" style="fill:#333333;" width="3" height="2"/>
</svg>






