<?xml version="1.0" encoding="iso-8859-1"?>
<svg version="1.1" id="&#x56FE;&#x5C42;_1" xmlns="http://www.w3.org/2000/svg" xmlns:xlink="http://www.w3.org/1999/xlink" x="0px"
	 y="0px" viewBox="0 0 24 24" style="enable-background:new 0 0 24 24;" xml:space="preserve">
<path style="fill:#333333;" d="M19,23H5c-1.103,0-2-0.897-2-2V3c0-1.103,0.897-2,2-2h14c1.103,0,2,0.897,2,2v18
	C21,22.103,20.103,23,19,23z M5,3H4.999L5,21h14V3H5z"/>
<path style="fill:#333333;" d="M12,10.5c-1.654,0-3-1.346-3-3s1.346-3,3-3s3,1.346,3,3S13.654,10.5,12,10.5z M12,6.5
	c-0.551,0-1,0.449-1,1s0.449,1,1,1c0.552,0,1-0.449,1-1S12.552,6.5,12,6.5z"/>
<path style="fill:#333333;" d="M16,12.5h-2c0-1.103-0.897-2-2-2c-1.103,0-2,0.897-2,2H8c0-2.206,1.794-4,4-4
	C14.206,8.5,16,10.294,16,12.5z"/>
<rect x="9" y="14.5" style="fill:#333333;" width="6" height="2"/>
<rect x="9" y="17.5" style="fill:#333333;" width="3.5" height="2"/>
</svg>






