<?xml version="1.0" encoding="iso-8859-1"?>
<svg version="1.1" id="&#x56FE;&#x5C42;_1" xmlns="http://www.w3.org/2000/svg" xmlns:xlink="http://www.w3.org/1999/xlink" x="0px"
	 y="0px" viewBox="0 0 24 24" style="enable-background:new 0 0 24 24;" xml:space="preserve">
<path style="fill:#333333;" d="M19,23H5c-1.103,0-2-0.897-2-2V3c0-1.103,0.897-2,2-2h11v5h5v15C21,22.103,20.103,23,19,23z M5,3v18
	h14V8h-5V3H5z"/>
<rect x="16.5" y="0.964" transform="matrix(0.7071 -0.7071 0.7071 0.7071 1.9437 13.6924)" style="fill:#333333;" width="2" height="7.071"/>
<path style="fill:#333333;" d="M9,11.5c-1.654,0-3-1.346-3-3s1.346-3,3-3s3,1.346,3,3S10.654,11.5,9,11.5z M9,7.5
	c-0.551,0-1,0.449-1,1s0.449,1,1,1s1-0.449,1-1S9.551,7.5,9,7.5z"/>
<path style="fill:#333333;" d="M17.5,19.5h-11v-6.994l4.976,2.052l4.283-4.729L17.5,10.5V19.5z M8.5,17.5h7v-4.406l-3.486,3.849
	L8.5,15.494V17.5z"/>
</svg>






