<?xml version="1.0" encoding="iso-8859-1"?>
<svg version="1.1" id="&#x56FE;&#x5C42;_1" xmlns="http://www.w3.org/2000/svg" xmlns:xlink="http://www.w3.org/1999/xlink" x="0px"
	 y="0px" viewBox="0 0 24 24" style="enable-background:new 0 0 24 24;" xml:space="preserve">
<rect x="11" y="2" style="fill:#333333;" width="2" height="7.5"/>
<rect x="5.815" y="8.5" transform="matrix(0.9701 -0.2427 0.2427 0.9701 -1.9465 3.1957)" style="fill:#333333;" width="12.369" height="2"/>
<rect x="11.969" y="10.5" transform="matrix(0.4961 -0.8682 0.8682 0.4961 -1.923 19.6863)" style="fill:#333333;" width="8.062" height="2"/>
<rect x="19" y="7.469" transform="matrix(0.8682 -0.4961 0.4961 0.8682 -3.0705 11.438)" style="fill:#333333;" width="2" height="8.062"/>
<rect x="7" y="10.469" transform="matrix(0.8682 -0.4961 0.4961 0.8682 -6.14 5.8796)" style="fill:#333333;" width="2" height="8.062"/>
<rect x="-0.031" y="13.5" transform="matrix(0.4961 -0.8682 0.8682 0.4961 -10.5741 10.779)" style="fill:#333333;" width="8.062" height="2"/>
<path style="fill:#333333;" d="M6,23c-2.757,0-5-2.243-5-5v-1h10v1C11,20.757,8.757,23,6,23z M3.171,19C3.584,20.164,4.696,21,6,21
	s2.416-0.836,2.829-2H3.171z"/>
<path style="fill:#333333;" d="M18,20c-2.757,0-5-2.243-5-5v-1h10v1C23,17.757,20.757,20,18,20z M15.171,16
	c0.413,1.164,1.525,2,2.829,2s2.416-0.836,2.829-2H15.171z"/>
</svg>






