<?xml version="1.0" encoding="iso-8859-1"?>
<svg version="1.1" id="&#x56FE;&#x5C42;_1" xmlns="http://www.w3.org/2000/svg" xmlns:xlink="http://www.w3.org/1999/xlink" x="0px"
	 y="0px" viewBox="0 0 24 24" style="enable-background:new 0 0 24 24;" xml:space="preserve">
<path style="fill:#333333;" d="M19.5,22h-15C3.122,22,2,20.879,2,19.5v-15C2,3.122,3.122,2,4.5,2h15C20.879,2,22,3.122,22,4.5v15
	C22,20.879,20.879,22,19.5,22z M4.5,4C4.224,4,4,4.224,4,4.5v15C4,19.775,4.224,20,4.5,20h15c0.275,0,0.5-0.225,0.5-0.5v-15
	C20,4.224,19.775,4,19.5,4H4.5z"/>
<polygon style="fill:#333333;" points="16.118,18.5 7.882,18.5 6.882,16.5 2,16.5 2,14.5 8.118,14.5 9.118,16.5 14.882,16.5 
	15.882,14.5 22,14.5 22,16.5 17.118,16.5 "/>
<rect x="20" y="13" style="fill:#333333;" width="2" height="5"/>
<polygon style="fill:#333333;" points="12,15.414 8.293,11.707 9.707,10.293 12,12.586 14.293,10.293 15.707,11.707 "/>
<rect x="11" y="6" style="fill:#333333;" width="2" height="8"/>
<rect x="2" y="13" style="fill:#333333;" width="2" height="5"/>
</svg>






