<?xml version="1.0" encoding="iso-8859-1"?>
<svg version="1.1" id="&#x56FE;&#x5C42;_1" xmlns="http://www.w3.org/2000/svg" xmlns:xlink="http://www.w3.org/1999/xlink" x="0px"
	 y="0px" viewBox="0 0 24 24" style="enable-background:new 0 0 24 24;" xml:space="preserve">
<path style="fill:#333333;" d="M12.106,23.191c-0.512,0-1.024-0.195-1.414-0.585L1.5,13.414c-0.779-0.78-0.779-2.048,0-2.828
	l9.193-9.193c0.779-0.78,2.048-0.781,2.828,0l9.192,9.192c0.78,0.78,0.78,2.049,0,2.828l-9.192,9.192
	C13.131,22.996,12.618,23.191,12.106,23.191z M12.106,2.808L2.914,12l9.192,9.192L21.299,12L12.106,2.808z"/>
<path style="fill:#333333;" d="M12,17c-2.757,0-5-2.243-5-5s2.243-5,5-5s5,2.243,5,5S14.757,17,12,17z M12,9c-1.654,0-3,1.346-3,3
	s1.346,3,3,3s3-1.346,3-3S13.654,9,12,9z"/>
</svg>






