<?xml version="1.0" encoding="iso-8859-1"?>
<svg version="1.1" id="&#x56FE;&#x5C42;_1" xmlns="http://www.w3.org/2000/svg" xmlns:xlink="http://www.w3.org/1999/xlink" x="0px"
	 y="0px" viewBox="0 0 24 24" style="enable-background:new 0 0 24 24;" xml:space="preserve">
<path style="fill:#333333;" d="M7,9.5c-1.654,0-3-1.346-3-3s1.346-3,3-3s3,1.346,3,3S8.654,9.5,7,9.5z M7,5.5c-0.551,0-1,0.449-1,1
	s0.449,1,1,1s1-0.449,1-1S7.551,5.5,7,5.5z"/>
<path style="fill:#333333;" d="M16.5,9.5c-1.654,0-3-1.346-3-3s1.346-3,3-3s3,1.346,3,3S18.154,9.5,16.5,9.5z M16.5,5.5
	c-0.552,0-1,0.449-1,1s0.448,1,1,1s1-0.449,1-1S17.052,5.5,16.5,5.5z"/>
<rect x="2" y="5.5" style="fill:#333333;" width="3" height="2"/>
<rect x="9" y="5.5" style="fill:#333333;" width="5.5" height="2"/>
<rect x="18.5" y="5.5" style="fill:#333333;" width="3.5" height="2"/>
<polygon style="fill:#333333;" points="4.293,21.207 0.586,17.5 4.293,13.793 5.707,15.207 3.414,17.5 5.707,19.793 "/>
<rect x="2" y="16.5" style="fill:#333333;" width="20" height="2"/>
</svg>






