<?xml version="1.0" encoding="iso-8859-1"?>
<svg version="1.1" id="&#x56FE;&#x5C42;_1" xmlns="http://www.w3.org/2000/svg" xmlns:xlink="http://www.w3.org/1999/xlink" x="0px"
	 y="0px" viewBox="0 0 24 24" style="enable-background:new 0 0 24 24;" xml:space="preserve">
<polygon style="fill:#333333;" points="16.793,19.707 13.586,16.5 16.793,13.293 18.207,14.707 16.414,16.5 18.207,18.293 "/>
<polygon style="fill:#333333;" points="20.793,19.707 17.586,16.5 20.793,13.293 22.207,14.707 20.414,16.5 22.207,18.293 "/>
<path style="fill:#333333;" d="M14.235,21.5H3.5c-1.103,0-2-0.897-2-2v-15c0-1.103,0.897-2,2-2h17c1.103,0,2,0.897,2,2V11h-2V4.5
	h-17v15h10.735V21.5z"/>
<polygon style="fill:#333333;" points="9,12.062 5.732,8.14 7.268,6.86 9,8.938 10.732,6.86 12.269,8.14 "/>
<rect x="6" y="12.5" style="fill:#333333;" width="6" height="2"/>
<rect x="6" y="9.5" style="fill:#333333;" width="6" height="2"/>
<rect x="8" y="10.5" style="fill:#333333;" width="2" height="6"/>
</svg>






