<?xml version="1.0" encoding="iso-8859-1"?>
<svg version="1.1" id="&#x56FE;&#x5C42;_1" xmlns="http://www.w3.org/2000/svg" xmlns:xlink="http://www.w3.org/1999/xlink" x="0px"
	 y="0px" viewBox="0 0 24 24" style="enable-background:new 0 0 24 24;" xml:space="preserve">
<path style="fill:#333333;" d="M11.5,22.5c-5.514,0-10-4.486-10-10c0-5.514,4.486-10,10-10v2c-4.411,0-8,3.589-8,8s3.589,8,8,8
	s8-3.589,8-8h2C21.5,18.014,17.014,22.5,11.5,22.5z"/>
<path style="fill:#333333;" d="M6,15.25v-2c4.039,0,5.471-0.198,8.711-4.364l1.578,1.228C12.639,14.808,10.568,15.25,6,15.25z"/>
<polygon style="fill:#333333;" points="16.5,13.5 14.5,13.5 14.5,10.5 11.5,10.5 11.5,8.5 16.5,8.5 "/>
<rect x="14.5" y="2.5" style="fill:#333333;" width="2" height="2.25"/>
<rect x="19.5" y="7.5" style="fill:#333333;" width="2.25" height="2"/>
<rect x="18.097" y="3.472" transform="matrix(0.7071 -0.7071 0.7071 0.7071 2.541 15.0788)" style="fill:#333333;" width="2.75" height="2"/>
</svg>






