<?xml version="1.0" encoding="iso-8859-1"?>
<svg version="1.1" id="&#x56FE;&#x5C42;_1" xmlns="http://www.w3.org/2000/svg" xmlns:xlink="http://www.w3.org/1999/xlink" x="0px"
	 y="0px" viewBox="0 0 24 24" style="enable-background:new 0 0 24 24;" xml:space="preserve">
<path style="fill:#333333;" d="M9.5,13C7.57,13,6,11.43,6,9.5v-5C6,2.57,7.57,1,9.5,1S13,2.57,13,4.5v5C13,11.43,11.43,13,9.5,13z
	 M9.5,3C8.673,3,8,3.673,8,4.5v5C8,10.327,8.673,11,9.5,11S11,10.327,11,9.5v-5C11,3.673,10.327,3,9.5,3z"/>
<path style="fill:#333333;" d="M18.5,13c-1.93,0-3.5-1.57-3.5-3.5v-5C15,2.57,16.57,1,18.5,1S22,2.57,22,4.5v5
	C22,11.43,20.43,13,18.5,13z M18.5,3C17.673,3,17,3.673,17,4.5v5c0,0.827,0.673,1.5,1.5,1.5S20,10.327,20,9.5v-5
	C20,3.673,19.327,3,18.5,3z"/>
<polygon style="fill:#333333;" points="18.707,22.707 17.293,21.293 19.586,19 17.293,16.707 18.707,15.293 22.414,19 "/>
<rect x="3" y="11" style="fill:#333333;" width="0.5" height="2"/>
<rect x="9.5" y="18" style="fill:#333333;" width="11.5" height="2"/>
</svg>






