<?xml version="1.0" encoding="iso-8859-1"?>
<svg version="1.1" id="&#x56FE;&#x5C42;_1" xmlns="http://www.w3.org/2000/svg" xmlns:xlink="http://www.w3.org/1999/xlink" x="0px"
	 y="0px" viewBox="0 0 24 24" style="enable-background:new 0 0 24 24;" xml:space="preserve">
<path style="fill:#333333;" d="M12,23c-4.411,0-8-3.589-8-8c0-4.087,6.469-12.646,7.206-13.608L12,0.356l0.794,1.036
	C13.531,2.354,20,10.913,20,15C20,19.411,16.411,23,12,23z M12,3.674C9.801,6.698,6,12.454,6,15c0,3.309,2.691,6,6,6s6-2.691,6-6
	C18,12.454,14.198,6.698,12,3.674z"/>
<rect x="9" y="14" style="fill:#333333;" width="6" height="2"/>
<rect x="11" y="12" style="fill:#333333;" width="2" height="6"/>
</svg>






