<?xml version="1.0" encoding="iso-8859-1"?>
<svg version="1.1" id="&#x56FE;&#x5C42;_1" xmlns="http://www.w3.org/2000/svg" xmlns:xlink="http://www.w3.org/1999/xlink" x="0px"
	 y="0px" viewBox="0 0 24 24" style="enable-background:new 0 0 24 24;" xml:space="preserve">
<path style="fill:none;" d="M19.084,11.131l-9.546,9.546l-6.364-6.364l9.546-9.546"/>
<polygon style="fill:#333333;" points="9.538,22.091 1.76,14.313 12.014,4.06 13.428,5.474 4.588,14.313 9.538,19.263 
	18.377,10.424 19.791,11.838 "/>
<rect x="14.903" y="0.949" transform="matrix(0.7071 -0.7071 0.7071 0.7071 -0.9627 13.5739)" style="fill:#333333;" width="2" height="14"/>
<rect x="7.478" y="13.874" transform="matrix(0.7071 -0.7071 0.7071 0.7071 -8.3881 10.4975)" style="fill:#333333;" width="2" height="3"/>
<rect x="2.516" y="18.086" transform="matrix(0.7071 -0.7071 0.7071 0.7071 -12.1 8.9599)" style="fill:#333333;" width="4.5" height="2"/>
<rect x="15.536" y="6.065" transform="matrix(0.7071 -0.7071 0.7071 0.7071 -0.0793 13.9389)" style="fill:#333333;" width="2.499" height="2"/>
</svg>






