<?xml version="1.0" encoding="iso-8859-1"?>
<svg version="1.1" id="&#x56FE;&#x5C42;_1" xmlns="http://www.w3.org/2000/svg" xmlns:xlink="http://www.w3.org/1999/xlink" x="0px"
	 y="0px" viewBox="0 0 24 24" style="enable-background:new 0 0 24 24;" xml:space="preserve">
<path style="fill:#333333;" d="M12,22.5H3.5c-1.103,0-2-0.897-2-2v-12h21v8h-2v-6h-17v10H12V22.5z"/>
<path style="fill:#333333;" d="M22.5,10.5h-21V5c0-1.103,0.897-2,2-2h17c1.103,0,2,0.897,2,2V10.5z M3.5,8.5h17V5h-17V8.5z"/>
<rect x="7" y="2.5" style="fill:#333333;" width="2" height="4"/>
<rect x="15" y="2.5" style="fill:#333333;" width="2" height="4"/>
<path style="fill:#333333;" d="M15,20.5c-2.481,0-4.5-2.019-4.5-4.5s2.019-4.5,4.5-4.5s4.5,2.019,4.5,4.5S17.481,20.5,15,20.5z
	 M15,13.5c-1.379,0-2.5,1.121-2.5,2.5s1.121,2.5,2.5,2.5s2.5-1.121,2.5-2.5S16.379,13.5,15,13.5z"/>
<rect x="18.499" y="17.797" transform="matrix(0.6402 -0.7682 0.7682 0.6402 -8.156 22.0867)" style="fill:#333333;" width="2.001" height="3.905"/>
</svg>






