<?xml version="1.0" encoding="iso-8859-1"?>
<svg version="1.1" id="&#x56FE;&#x5C42;_1" xmlns="http://www.w3.org/2000/svg" xmlns:xlink="http://www.w3.org/1999/xlink" x="0px"
	 y="0px" viewBox="0 0 24 24" style="enable-background:new 0 0 24 24;" xml:space="preserve">
<path style="fill:#333333;" d="M4.5,7c-1.654,0-3-1.346-3-3s1.346-3,3-3s3,1.346,3,3S6.154,7,4.5,7z M4.5,3c-0.551,0-1,0.449-1,1
	s0.449,1,1,1s1-0.449,1-1S5.051,3,4.5,3z"/>
<path style="fill:#333333;" d="M7.5,22.5h-6V8h6V22.5z M3.5,20.5h2V10h-2V20.5z"/>
<path style="fill:#333333;" d="M22.5,22.5H17v-8c0-0.51-0.39-1.25-1-1.25c-0.952,0-1,1.041-1,1.25v8H9.5v-8.75
	C9.5,11.687,11.672,8,16,8s6.5,3.687,6.5,5.75V22.5z M19,20.5h1.5v-6.75c0-1.033-1.384-3.75-4.5-3.75s-4.5,2.717-4.5,3.75v6.75H13
	v-6c0-1.883,1.262-3.25,3-3.25c1.795,0,3,1.681,3,3.25V20.5z"/>
</svg>






