<?xml version="1.0" encoding="iso-8859-1"?>
<svg version="1.1" id="&#x56FE;&#x5C42;_1" xmlns="http://www.w3.org/2000/svg" xmlns:xlink="http://www.w3.org/1999/xlink" x="0px"
	 y="0px" viewBox="0 0 24 24" style="enable-background:new 0 0 24 24;" xml:space="preserve">
<polygon style="fill:#333333;" points="4.082,6.388 2.502,5.163 5.344,1.5 18.658,1.5 21.491,5.164 19.909,6.387 17.676,3.5 
	6.323,3.5 "/>
<path style="fill:#333333;" d="M19.5,22.5h-15C3.122,22.5,2,21.379,2,20V6.5c0-1.103,0.897-2,2-2h16c1.103,0,2,0.897,2,2V20
	C22,21.379,20.879,22.5,19.5,22.5z M4,6.5V20c0,0.275,0.224,0.5,0.5,0.5h15c0.275,0,0.5-0.225,0.5-0.5V6.5H4z"/>
<polygon style="fill:#333333;" points="12,18.914 7.293,14.207 8.707,12.793 12,16.086 15.293,12.793 16.707,14.207 "/>
<rect x="10.996" y="9.5" style="fill:#333333;" width="2" height="8"/>
</svg>






