<?xml version="1.0" encoding="iso-8859-1"?>
<svg version="1.1" id="&#x56FE;&#x5C42;_1" xmlns="http://www.w3.org/2000/svg" xmlns:xlink="http://www.w3.org/1999/xlink" x="0px"
	 y="0px" viewBox="0 0 24 24" style="enable-background:new 0 0 24 24;" xml:space="preserve">
<path style="fill:#333333;" d="M21,21H3c-1.103,0-2-0.897-2-2V5c0-1.103,0.897-2,2-2h18c1.103,0,2,0.897,2,2v14
	C23,20.103,22.103,21,21,21z M3,5H2.999L3,19h18V5H3z"/>
<path style="fill:#333333;" d="M23,9H1V5c0-1.103,0.897-2,2-2h18c1.103,0,2,0.897,2,2V9z M3,7h18V5H3V7z"/>
<rect x="9.205" y="13.25" transform="matrix(0.1788 -0.9839 0.9839 0.1788 -4.1658 23.5092)" style="fill:#333333;" width="5.59" height="1.999"/>
<polygon style="fill:#333333;" points="16.207,17.707 14.793,16.293 17.019,14.067 14.859,12.269 16.141,10.732 19.981,13.933 "/>
<polygon style="fill:#333333;" points="7.793,17.707 4.019,13.933 7.86,10.732 9.14,12.269 6.981,14.067 9.207,16.293 "/>
</svg>






