<?xml version="1.0" encoding="iso-8859-1"?>
<svg version="1.1" id="&#x56FE;&#x5C42;_1" xmlns="http://www.w3.org/2000/svg" xmlns:xlink="http://www.w3.org/1999/xlink" x="0px"
	 y="0px" viewBox="0 0 24 24" style="enable-background:new 0 0 24 24;" xml:space="preserve">
<path style="fill:#333333;" d="M17,22H7c-2.757,0-5-2.243-5-5V7c0-2.757,2.243-5,5-5h10c2.757,0,5,2.243,5,5v10
	C22,19.757,19.757,22,17,22z M7,4C5.346,4,4,5.346,4,7v10c0,1.654,1.346,3,3,3h10c1.654,0,3-1.346,3-3V7c0-1.654-1.346-3-3-3H7z"/>
<path style="fill:#333333;" d="M12,17c-2.757,0-5-2.243-5-5s2.243-5,5-5s5,2.243,5,5S14.757,17,12,17z M12,9c-1.654,0-3,1.346-3,3
	s1.346,3,3,3s3-1.346,3-3S13.654,9,12,9z"/>
<path style="fill:#333333;" d="M17.5,7.5c0.552,0,1-0.448,1-1s-0.448-1-1-1s-1,0.448-1,1S16.948,7.5,17.5,7.5z"/>
</svg>






