<?xml version="1.0" encoding="iso-8859-1"?>
<svg version="1.1" id="&#x56FE;&#x5C42;_1" xmlns="http://www.w3.org/2000/svg" xmlns:xlink="http://www.w3.org/1999/xlink" x="0px"
	 y="0px" viewBox="0 0 24 24" style="enable-background:new 0 0 24 24;" xml:space="preserve">
<path style="fill:#333333;" d="M15,23H9c-1.378,0-2.5-1.121-2.5-2.5v-4.838l-1-3V7c0-1.378,1.122-2.5,2.5-2.5h8
	c1.379,0,2.5,1.122,2.5,2.5v5.662l-1,3V20.5C17.5,21.879,16.379,23,15,23z M7.5,12.338l1,3V20.5C8.5,20.775,8.724,21,9,21h6
	c0.275,0,0.5-0.225,0.5-0.5v-5.162l1-3V7c0-0.276-0.225-0.5-0.5-0.5H8C7.724,6.5,7.5,6.724,7.5,7V12.338z"/>
<rect x="8.5" y="2" style="fill:#333333;" width="2" height="3.5"/>
<rect x="13" y="3.5" style="fill:#333333;" width="2" height="2"/>
<rect x="10" y="8.5" style="fill:#333333;" width="4" height="2"/>
<rect x="11" y="12" style="fill:#333333;" width="2" height="2"/>
</svg>






