<?xml version="1.0" encoding="iso-8859-1"?>
<svg version="1.1" id="&#x56FE;&#x5C42;_1" xmlns="http://www.w3.org/2000/svg" xmlns:xlink="http://www.w3.org/1999/xlink" x="0px"
	 y="0px" viewBox="0 0 24 24" style="enable-background:new 0 0 24 24;" xml:space="preserve">
<path style="fill:#333333;" d="M20,22H4c-1.103,0-2-0.897-2-2V4c0-1.103,0.897-2,2-2h16c1.103,0,2,0.897,2,2v16
	C22,21.103,21.103,22,20,22z M4,4v16h16V4H4z"/>
<path style="fill:#333333;" d="M22,11h-9V2h7c1.103,0,2,0.897,2,2V11z M15,9h5V3.999L15,4V9z"/>
<polygon style="fill:#333333;" points="10,18.5 6.5,18.5 6.5,17.5 5.5,17.5 5.5,14 7.5,14 7.5,15.086 10.793,11.793 12.207,13.207 
	8.914,16.5 10,16.5 "/>
</svg>






