<?xml version="1.0" encoding="iso-8859-1"?>
<svg version="1.1" id="&#x56FE;&#x5C42;_1" xmlns="http://www.w3.org/2000/svg" xmlns:xlink="http://www.w3.org/1999/xlink" x="0px"
	 y="0px" viewBox="0 0 24 24" style="enable-background:new 0 0 24 24;" xml:space="preserve">
<rect x="15" y="11.5" style="fill:#333333;" width="6" height="2"/>
<polygon style="fill:#333333;" points="17.293,16.207 13.586,12.5 17.293,8.793 18.707,10.207 16.414,12.5 18.707,14.793 "/>
<path style="fill:#333333;" d="M4.885,21.923l-0.77-1.846C6.716,18.992,9.5,15.89,9.5,13V3h2v10
	C11.5,16.858,8.137,20.566,4.885,21.923z"/>
<path style="fill:#333333;" d="M19.5,22h-15C3.122,22,2,20.879,2,19.5v-15C2,3.122,3.122,2,4.5,2h15C20.879,2,22,3.122,22,4.5V7h-2
	V4.5C20,4.224,19.775,4,19.5,4h-15C4.224,4,4,4.224,4,4.5v15C4,19.775,4.224,20,4.5,20h15c0.275,0,0.5-0.225,0.5-0.5v-1.75h2v1.75
	C22,20.879,20.879,22,19.5,22z"/>
</svg>






