<?xml version="1.0" encoding="iso-8859-1"?>
<svg version="1.1" id="&#x56FE;&#x5C42;_1" xmlns="http://www.w3.org/2000/svg" xmlns:xlink="http://www.w3.org/1999/xlink" x="0px"
	 y="0px" viewBox="0 0 24 24" style="enable-background:new 0 0 24 24;" xml:space="preserve">
<path style="fill:#333333;" d="M12,23C5.935,23,1,18.065,1,12S5.935,1,12,1s11,4.935,11,11S18.065,23,12,23z M12,3
	c-4.962,0-9,4.038-9,9c0,4.963,4.038,9,9,9c4.963,0,9-4.037,9-9C21,7.038,16.963,3,12,3z"/>
<path style="fill:#333333;" d="M4.708,16.888c-0.61,0-1.304-0.155-2.08-0.466l0.744-1.857c0.872,0.35,1.544,0.42,1.796,0.189
	c0.109-0.133,0.163-0.743,0.195-1.108c0.084-0.957,0.2-2.269,1.335-2.887c1.075-0.588,2.144,0.106,3.002,0.662
	c0.826,0.534,1.396,0.868,1.788,0.651c0.283-0.158,0.317-0.436,0.186-1.488c-0.114-0.908-0.27-2.152,0.684-2.981
	c0.766-0.666,1.625-0.726,2.194-0.766c0.153-0.011,0.379-0.027,0.474-0.055c-0.003-0.017,0.019-0.079,0.036-0.192
	c0.035-0.222,0.015-0.303,0.015-0.304c0.001,0.031-0.105-0.037-0.186-0.084c-0.439-0.262-1.176-0.7-1.396-1.92
	c-0.182-1.012-0.457-2.541,0.71-2.875l0.549,1.923c0.39-0.111,0.562-0.438,0.58-0.571c-0.003,0.026-0.031,0.277,0.13,1.168
	c0.058,0.323,0.133,0.368,0.449,0.556c0.48,0.286,1.375,0.817,1.125,2.416c-0.279,1.788-1.676,1.886-2.347,1.933
	c-0.486,0.034-0.773,0.064-1.021,0.28c-0.149,0.13-0.066,0.788-0.012,1.224c0.131,1.048,0.33,2.631-1.195,3.482
	c-1.469,0.822-2.902-0.105-3.849-0.719c-0.32-0.207-0.856-0.554-1.043-0.561c-0.11,0.082-0.176,0.834-0.216,1.283
	c-0.074,0.839-0.158,1.789-0.84,2.411C6.036,16.669,5.432,16.888,4.708,16.888z"/>
<path style="fill:#333333;" d="M13.796,22.374c-1.211-1.239-1.632-2.476-1.251-3.676c0.305-0.958,0.773-1.386,1.084-1.669
	c0.181-0.165,0.223-0.209,0.258-0.303c0.013-0.051,0.006-0.228,0-0.357c-0.028-0.703-0.082-2.013,1.73-2.964
	c2.427-1.272,5.152,1.441,6.049,2.333l-1.41,1.418c-1.644-1.634-2.995-2.355-3.709-1.979c-0.692,0.362-0.685,0.551-0.661,1.11
	c0.013,0.321,0.029,0.722-0.124,1.135c-0.206,0.557-0.541,0.862-0.784,1.085c-0.231,0.211-0.384,0.351-0.526,0.798
	c-0.14,0.439,0.121,1.002,0.774,1.671L13.796,22.374z"/>
</svg>






