<?xml version="1.0" encoding="iso-8859-1"?>
<svg version="1.1" id="&#x56FE;&#x5C42;_1" xmlns="http://www.w3.org/2000/svg" xmlns:xlink="http://www.w3.org/1999/xlink" x="0px"
	 y="0px" viewBox="0 0 24 24" style="enable-background:new 0 0 24 24;" xml:space="preserve">
<path style="fill:#333333;" d="M20,16.5h-4.5v-2H20V4H9.5v4.5h-2V4c0-1.103,0.897-2,2-2H20c1.103,0,2,0.897,2,2v10.5
	C22,15.603,21.103,16.5,20,16.5z"/>
<path style="fill:#333333;" d="M14.5,22H4c-1.103,0-2-0.897-2-2V9.5c0-1.103,0.897-2,2-2h4.5v2H4V20h10.5v-4.5h2V20
	C16.5,21.103,15.603,22,14.5,22z"/>
<path style="fill:#333333;" d="M14.5,16.5h-5c-1.103,0-2-0.897-2-2v-5c0-1.103,0.897-2,2-2h5c1.103,0,2,0.897,2,2v5
	C16.5,15.603,15.603,16.5,14.5,16.5z M9.5,9.5H9.499l0.001,5h5v-5H9.5z"/>
</svg>






