<?xml version="1.0" encoding="iso-8859-1"?>
<svg version="1.1" id="&#x56FE;&#x5C42;_1" xmlns="http://www.w3.org/2000/svg" xmlns:xlink="http://www.w3.org/1999/xlink" x="0px"
	 y="0px" viewBox="0 0 24 24" style="enable-background:new 0 0 24 24;" xml:space="preserve">
<path style="fill:#333333;" d="M21,23H3V1h12.96L21,6.88V23z M5,21h14V7.62L15.04,3H5V21z"/>
<path style="fill:#333333;" d="M12,18.5c-3.309,0-6-2.691-6-6s2.691-6,6-6c1.538,0,3.001,0.582,4.119,1.637
	C17.314,9.267,18,10.857,18,12.5C18,15.809,15.309,18.5,12,18.5z M12,8.5c-2.206,0-4,1.794-4,4c0,2.206,1.794,4,4,4
	c2.206,0,4-1.794,4-4c0-1.112-0.445-2.145-1.254-2.909C14.001,8.888,13.025,8.5,12,8.5z"/>
<rect x="11" y="7.55" transform="matrix(0.7071 -0.7071 0.7071 0.7071 -5.3241 12.1464)" style="fill:#333333;" width="2" height="9.899"/>
<path style="fill:#333333;" d="M12,18.5v-2c2.206,0,4-1.794,4-4h2C18,15.809,15.309,18.5,12,18.5z M8,12.5H6c0-3.309,2.691-6,6-6v2
	C9.794,8.5,8,10.294,8,12.5z"/>
</svg>






