<?xml version="1.0" encoding="iso-8859-1"?>
<svg version="1.1" id="&#x56FE;&#x5C42;_1" xmlns="http://www.w3.org/2000/svg" xmlns:xlink="http://www.w3.org/1999/xlink" x="0px"
	 y="0px" viewBox="0 0 24 24" style="enable-background:new 0 0 24 24;" xml:space="preserve">
<polygon style="fill:#333333;" points="7,23 1,23 1,17 3,17 3,21 7,21 "/>
<polygon style="fill:#333333;" points="23,23 17,23 17,21 21,21 21,17 23,17 "/>
<polygon style="fill:#333333;" points="23,7 21,7 21,3 17,3 17,1 23,1 "/>
<polygon style="fill:#333333;" points="3,7 1,7 1,1 7,1 7,3 3,3 "/>
<path style="fill:#333333;" d="M12,19.5c-2.881,0-4.634-1.72-4.707-1.793l1.409-1.419C8.753,16.337,9.974,17.5,12,17.5
	c2.026,0,3.247-1.163,3.298-1.212l1.409,1.419C16.634,17.78,14.881,19.5,12,19.5z"/>
<path style="fill:#333333;" d="M10,14.5H9.5v-2H10c0.449,0,1-0.551,1-1V7h2v4.5C13,13.042,11.542,14.5,10,14.5z"/>
<rect x="16" y="7" style="fill:#333333;" width="2" height="1"/>
<rect x="6" y="7" style="fill:#333333;" width="2" height="1"/>
</svg>






