<?xml version="1.0" encoding="iso-8859-1"?>
<svg version="1.1" id="&#x56FE;&#x5C42;_1" xmlns="http://www.w3.org/2000/svg" xmlns:xlink="http://www.w3.org/1999/xlink" x="0px"
	 y="0px" viewBox="0 0 24 24" style="enable-background:new 0 0 24 24;" xml:space="preserve">
<path style="fill:#333333;" d="M23,21H1v-7.361l0.664-0.236c0.69-0.247,1.154-0.911,1.154-1.652c0-0.742-0.464-1.405-1.154-1.651
	L1,9.862V2.5h22v7.362l-0.664,0.236c-0.69,0.246-1.154,0.91-1.154,1.651c0,0.742,0.464,1.405,1.154,1.652L23,13.639V21z M3,19h18
	v-4.028c-1.11-0.668-1.818-1.887-1.818-3.222c0-1.335,0.708-2.554,1.818-3.221V4.5H3v4.029c1.111,0.667,1.818,1.886,1.818,3.221
	c0,1.335-0.708,2.554-1.818,3.222V19z"/>
<rect x="5.5" y="9" style="fill:#333333;" width="2" height="5.5"/>
<rect x="8" y="9" style="fill:#333333;" width="2" height="5.5"/>
<path style="fill:#333333;" d="M10.5,13H8V8h2.5c1.378,0,2.5,1.122,2.5,2.5S11.878,13,10.5,13z M10,11h0.5
	c0.276,0,0.5-0.224,0.5-0.5S10.776,10,10.5,10H10V11z"/>
<path style="fill:#333333;" d="M16,15.5c-1.425,0-2.5-1.505-2.5-3.5s1.075-3.5,2.5-3.5s2.5,1.505,2.5,3.5S17.425,15.5,16,15.5z
	 M16,10.507c-0.156,0.09-0.5,0.622-0.5,1.493c0,0.913,0.377,1.452,0.521,1.503C16.123,13.452,16.5,12.913,16.5,12
	C16.5,11.128,16.156,10.597,16,10.507z"/>
</svg>






