<?xml version="1.0" encoding="iso-8859-1"?>
<svg version="1.1" id="&#x56FE;&#x5C42;_1" xmlns="http://www.w3.org/2000/svg" xmlns:xlink="http://www.w3.org/1999/xlink" x="0px"
	 y="0px" viewBox="0 0 24 24" style="enable-background:new 0 0 24 24;" xml:space="preserve">
<path style="fill:#333333;" d="M23.133,21H1v-1c0-4.963,4.038-9,9-9h11.883L23.133,21z M3.071,19h17.796l-0.75-6H10
	C6.479,13,3.558,15.612,3.071,19z"/>
<polygon style="fill:#333333;" points="20.008,12.124 19.117,5 8,5 8,3 20.883,3 21.992,11.876 "/>
<path style="fill:#333333;" d="M12,17.5c-3.033,0-5.5-2.468-5.5-5.5c0-3.033,2.467-5.5,5.5-5.5c3.032,0,5.5,2.467,5.5,5.5
	C17.5,15.032,15.032,17.5,12,17.5z M12,8.5c-1.93,0-3.5,1.57-3.5,3.5s1.57,3.5,3.5,3.5s3.5-1.57,3.5-3.5S13.93,8.5,12,8.5z"/>
<rect x="11" y="10.586" transform="matrix(0.7071 -0.7071 0.7071 0.7071 -4.9706 12)" style="fill:#333333;" width="2" height="2.828"/>
<rect x="10.586" y="11" transform="matrix(0.7071 -0.7071 0.7071 0.7071 -4.9706 12)" style="fill:#333333;" width="2.828" height="2"/>
</svg>






