<?xml version="1.0" encoding="iso-8859-1"?>
<svg version="1.1" id="&#x56FE;&#x5C42;_1" xmlns="http://www.w3.org/2000/svg" xmlns:xlink="http://www.w3.org/1999/xlink" x="0px"
	 y="0px" viewBox="0 0 24 24" style="enable-background:new 0 0 24 24;" xml:space="preserve">
<path style="fill:#333333;" d="M13,22c-2.217,0-4.347-0.902-5.996-2.54l1.409-1.42C9.686,19.304,11.314,20,13,20
	c3.859,0,7-3.589,7-8s-3.141-8-7-8c-1.686,0-3.314,0.696-4.587,1.959L7.004,4.541C8.653,2.902,10.783,2,13,2c4.963,0,9,4.486,9,10
	C22,17.514,17.963,22,13,22z"/>
<path style="fill:#333333;" d="M7,20H4c-1.103,0-2-0.897-2-2V6c0-1.103,0.897-2,2-2h3c1.103,0,2,0.897,2,2v12
	C9,19.103,8.103,20,7,20z M4,6H3.999L4,18h3V6H4z"/>
<path style="fill:#333333;" d="M6.5,10L6.5,10c0,0.552-0.448,1-1,1l0,0c-0.552,0-1-0.448-1-1l0,0c0-0.552,0.448-1,1-1l0,0
	C6.052,9,6.5,9.448,6.5,10z"/>
<path style="fill:#333333;" d="M6.5,13.5L6.5,13.5c0,0.552-0.448,1-1,1l0,0c-0.552,0-1-0.448-1-1l0,0c0-0.552,0.448-1,1-1l0,0
	C6.052,12.5,6.5,12.948,6.5,13.5z"/>
</svg>






