<?xml version="1.0" encoding="iso-8859-1"?>
<svg version="1.1" id="&#x56FE;&#x5C42;_1" xmlns="http://www.w3.org/2000/svg" xmlns:xlink="http://www.w3.org/1999/xlink" x="0px"
	 y="0px" viewBox="0 0 24 24" style="enable-background:new 0 0 24 24;" xml:space="preserve">
<path style="fill:#333333;" d="M19,19H4V5h15V19z M6,17h11V7H6V17z"/>
<path style="fill:#333333;" d="M11.5,15c-1.654,0-3-1.346-3-3s1.346-3,3-3s3,1.346,3,3S13.154,15,11.5,15z M11.5,11
	c-0.551,0-1,0.449-1,1c0,0.552,0.449,1,1,1c0.552,0,1-0.448,1-1C12.5,11.449,12.052,11,11.5,11z"/>
<path style="fill:#333333;" d="M14.525,6.115L13.81,3H9.202L8.487,6.113C8.496,6.077,8.5,6.038,8.5,6h-2
	c0-0.113,0.013-0.226,0.038-0.335l0.803-3.497C7.5,1.48,8.108,1,8.82,1h5.371c0.713,0,1.32,0.48,1.479,1.167l0.804,3.501
	L14.525,6.115z"/>
<path style="fill:#333333;" d="M14.191,23H8.82c-0.712,0-1.32-0.479-1.479-1.167l-0.804-3.501C6.513,18.229,6.5,18.115,6.5,18h2
	c0-0.037-0.004-0.076-0.013-0.115L9.202,21h4.607l0.716-3.115l1.949,0.447l-0.804,3.5C15.512,22.521,14.904,23,14.191,23z"/>
<rect x="18.5" y="8" style="fill:#333333;" width="2" height="2"/>
</svg>






