<?xml version="1.0" encoding="iso-8859-1"?>
<svg version="1.1" id="&#x56FE;&#x5C42;_1" xmlns="http://www.w3.org/2000/svg" xmlns:xlink="http://www.w3.org/1999/xlink" x="0px"
	 y="0px" viewBox="0 0 24 24" style="enable-background:new 0 0 24 24;" xml:space="preserve">
<path style="fill:#333333;" d="M12,23C5.935,23,1,18.065,1,12S5.935,1,12,1s11,4.935,11,11S18.065,23,12,23z M12,3
	c-4.962,0-9,4.038-9,9c0,4.963,4.038,9,9,9c4.963,0,9-4.037,9-9C21,7.038,16.963,3,12,3z"/>
<path style="fill:#333333;" d="M12,17.5l-0.128-0.008C10.717,17.342,9,15.756,9,12c0-3.513,1.481-5.142,2.75-5.468l0.194-0.05
	l0.199,0.029C13.204,6.664,15,7.993,15,12C15,16.035,13.206,17.5,12,17.5z M12.024,8.604C11.638,8.927,11,9.868,11,12
	c0,2.277,0.732,3.219,1.059,3.457C12.294,15.249,13,14.335,13,12C13,9.843,12.383,8.91,12.024,8.604z"/>
<path style="fill:#333333;" d="M12,17.5c-2.919,0-4.162-0.701-5.557-2.082c-1.249-1.237-1.744-3.461-1.407-4.684l0.182-0.662
	l0.683-0.067c3.644-0.361,4.516,0.501,4.802,0.785l-1.407,1.421c-0.112-0.108-0.768-0.348-2.342-0.279
	c0.081,0.658,0.375,1.547,0.896,2.064C8.906,15.042,9.618,15.5,12,15.5V17.5z"/>
<path style="fill:#333333;" d="M12,17.5v-2c0.672,0,2.625-0.225,3.584-1.248c0.693-0.74,0.917-1.656,0.961-2.323
	c-1.498-0.061-1.812,0.25-1.815,0.254l-1.459-1.367c0.739-0.791,2.115-1.051,4.336-0.811l0.739,0.079l0.138,0.731
	c0.188,1.011,0.099,3.161-1.44,4.803C15.331,17.447,12.336,17.5,12,17.5z"/>
</svg>






