<?xml version="1.0" encoding="iso-8859-1"?>
<svg version="1.1" id="&#x56FE;&#x5C42;_1" xmlns="http://www.w3.org/2000/svg" xmlns:xlink="http://www.w3.org/1999/xlink" x="0px"
	 y="0px" viewBox="0 0 24 24" style="enable-background:new 0 0 24 24;" xml:space="preserve">
<g>
	<defs>
		<rect id="SVGID_1_" width="24" height="24"/>
	</defs>
	<clipPath id="SVGID_00000163771609153519445810000012442335442578897068_">
		<use xlink:href="#SVGID_1_"  style="overflow:visible;"/>
	</clipPath>
	<g style="clip-path:url(#SVGID_00000163771609153519445810000012442335442578897068_);">
		<path style="fill:#333333;" d="M12,21c-4.687,0-8.5-3.813-8.5-8.5C3.5,7.813,7.313,4,12,4c4.687,0,8.5,3.813,8.5,8.5
			C20.5,17.187,16.687,21,12,21z M12,6c-3.584,0-6.5,2.916-6.5,6.5S8.416,19,12,19s6.5-2.916,6.5-6.5S15.584,6,12,6z"/>
		<path style="fill:#333333;" d="M6.375,13.437c-0.794,0-1.604-0.153-2.351-0.557l0.95-1.76c1.535,0.829,3.904-0.175,4.593-0.634
			c0.312-0.208,0.368-0.324,0.369-0.325c-0.006-0.004-0.031-0.108-0.047-0.177C9.833,9.75,9.749,9.397,9.848,8.996
			c0.122-0.494,0.41-0.804,0.62-1.031c0.191-0.206,0.208-0.239,0.214-0.316c0.039-0.541-0.805-1.073-1.17-1.276l0.976-1.746
			c1.921,1.073,2.25,2.315,2.189,3.168c-0.059,0.792-0.487,1.254-0.743,1.53c-0.037,0.04-0.083,0.089-0.116,0.128
			c0.005,0.021,0.011,0.042,0.016,0.064c0.19,0.793,0.202,1.727-1.156,2.633C10.026,12.585,8.246,13.437,6.375,13.437z"/>
		<path style="fill:#333333;" d="M3.888,19.451c-0.279,0-0.548-0.024-0.804-0.075c-0.873-0.175-1.549-0.655-1.957-1.391
			c-1.349-2.427,1.348-5.484,3.091-6.582l1.065,1.693c-1.341,0.844-2.954,2.936-2.408,3.918c0.087,0.155,0.226,0.325,0.602,0.4
			c1.271,0.245,4.498-0.822,9.404-4.699C16.316,10,18.389,6.42,19.401,4.294l-0.644,0.172l-0.516-1.933l2.614-0.697l1.207,1.282
			c-0.091,0.271-2.274,6.687-7.943,11.165C11.588,16.285,7.076,19.451,3.888,19.451z"/>
		<path style="fill:#333333;" d="M13.995,20.103l-1.99-0.202c0.012-0.118,0.313-2.919,2.345-4.659C16.357,13.52,18.893,13.5,19,13.5
			v2c-0.015,0-1.916,0.031-3.35,1.259C14.238,17.97,13.997,20.082,13.995,20.103z"/>
	</g>
</g>
</svg>






