<?xml version="1.0" encoding="iso-8859-1"?>
<svg version="1.1" id="&#x56FE;&#x5C42;_1" xmlns="http://www.w3.org/2000/svg" xmlns:xlink="http://www.w3.org/1999/xlink" x="0px"
	 y="0px" viewBox="0 0 24 24" style="enable-background:new 0 0 24 24;" xml:space="preserve">
<path style="fill:#333333;" d="M23,22.5H1v-7h22V22.5z M3,20.5h18v-3H3V20.5z"/>
<path style="fill:#333333;" d="M20,17.5h-8V12h8V17.5z M14,15.5h4V14h-4V15.5z"/>
<path style="fill:#333333;" d="M9,8C7.07,8,5.5,6.43,5.5,4.5S7.07,1,9,1s3.5,1.57,3.5,3.5S10.93,8,9,8z M9,3
	C8.173,3,7.5,3.673,7.5,4.5S8.173,6,9,6s1.5-0.673,1.5-1.5S9.827,3,9,3z"/>
<rect x="1.188" y="10.75" transform="matrix(0.3457 -0.9384 0.9384 0.3457 -6.9361 13.5532)" style="fill:#333333;" width="10.124" height="2"/>
</svg>






