<?xml version="1.0" encoding="iso-8859-1"?>
<svg version="1.1" id="&#x56FE;&#x5C42;_1" xmlns="http://www.w3.org/2000/svg" xmlns:xlink="http://www.w3.org/1999/xlink" x="0px"
	 y="0px" viewBox="0 0 24 24" style="enable-background:new 0 0 24 24;" xml:space="preserve">
<path style="fill:#333333;" d="M16.514,23H7.486l-1.08-12h11.188L16.514,23z M9.314,21h5.372l0.721-8H8.594L9.314,21z"/>
<path style="fill:#333333;" d="M17,13H7c-1.378,0-2.5-1.122-2.5-2.5S5.622,8,7,8h10c1.379,0,2.5,1.122,2.5,2.5S18.379,13,17,13z
	 M7,10c-0.276,0-0.5,0.224-0.5,0.5S6.724,11,7,11h10c0.275,0,0.5-0.224,0.5-0.5S17.275,10,17,10H7z"/>
<path style="fill:#333333;" d="M18,10H6V9c0-3.309,2.691-6,6-6s6,2.691,6,6V10z M8.126,8h7.747C15.429,6.277,13.86,5,12,5
	S8.572,6.277,8.126,8z"/>
<rect x="12.382" y="2" transform="matrix(0.4472 -0.8944 0.8944 0.4472 4.7793 13.7331)" style="fill:#333333;" width="2.236" height="2"/>
</svg>






