<?xml version="1.0" encoding="iso-8859-1"?>
<svg version="1.1" id="&#x56FE;&#x5C42;_1" xmlns="http://www.w3.org/2000/svg" xmlns:xlink="http://www.w3.org/1999/xlink" x="0px"
	 y="0px" viewBox="0 0 24 24" style="enable-background:new 0 0 24 24;" xml:space="preserve">
<polygon style="fill:#333333;" points="6.267,22.546 4.591,21.454 9,14.688 9,10.588 3.351,5.76 4.649,4.24 11,9.666 11,15.281 "/>
<polygon style="fill:#333333;" points="17.733,22.546 13,15.281 13,9.666 19.351,4.24 20.649,5.76 15,10.588 15,14.688 
	19.409,21.454 "/>
<path style="fill:#333333;" d="M12,7c-1.654,0-3-1.346-3-3s1.346-3,3-3s3,1.346,3,3S13.654,7,12,7z M12,3c-0.551,0-1,0.449-1,1
	s0.449,1,1,1c0.552,0,1-0.449,1-1S12.552,3,12,3z"/>
</svg>






