<?xml version="1.0" encoding="iso-8859-1"?>
<svg version="1.1" id="&#x56FE;&#x5C42;_1" xmlns="http://www.w3.org/2000/svg" xmlns:xlink="http://www.w3.org/1999/xlink" x="0px"
	 y="0px" viewBox="0 0 24 24" style="enable-background:new 0 0 24 24;" xml:space="preserve">
<path style="fill:#333333;" d="M21.932,22.775H2.34v-5.388h19.591V22.775z M4.299,20.816h15.673v-1.47H4.299V20.816z"/>
<path style="fill:#333333;" d="M6.255,17.956L4.302,17.8l0.633-7.956c0.01-0.13-0.033-0.262-0.118-0.36L1.601,5.786L2.34,4.164
	h16.581l1.049,13.639l-1.953,0.15l-0.91-11.831H4.491l1.805,2.075C6.724,8.69,6.94,9.347,6.889,9.999L6.255,17.956z"/>
<rect x="10.667" y="8.082" style="fill:#333333;" width="2.449" height="1.959"/>
<rect x="10.667" y="11.021" style="fill:#333333;" width="2.449" height="1.959"/>
<rect x="10.667" y="13.959" style="fill:#333333;" width="2.449" height="1.959"/>
<polygon style="fill:#333333;" points="22.911,13.959 18.993,13.959 18.993,12 20.952,12 20.952,6.123 18.014,6.123 18.014,4.164 
	22.911,4.164 "/>
<polygon style="fill:#333333;" points="15.075,4.653 13.116,4.653 13.116,3.184 10.667,3.184 10.667,4.653 8.708,4.653 8.708,1.225 
	15.075,1.225 "/>
</svg>






