<?xml version="1.0" encoding="iso-8859-1"?>
<svg version="1.1" id="&#x56FE;&#x5C42;_1" xmlns="http://www.w3.org/2000/svg" xmlns:xlink="http://www.w3.org/1999/xlink" x="0px"
	 y="0px" viewBox="0 0 24 24" style="enable-background:new 0 0 24 24;" xml:space="preserve">
<path style="fill:#333333;" d="M15.265,22H6.129l-0.281-0.242C5.691,21.623,2,18.397,2,14s3.691-7.623,3.848-7.758L6.129,6h9.115
	l0.216,0.112C15.646,6.208,20,8.528,20,13.899c0,5.347-4.321,7.865-4.506,7.97L15.265,22z M6.897,20h7.814
	C15.467,19.491,18,17.514,18,13.899c0-3.604-2.53-5.44-3.269-5.899H6.897C6.145,8.746,4,11.125,4,14C4,16.874,6.145,19.254,6.897,20
	z"/>
<path style="fill:#333333;" d="M7.505,16.058c-1.463,0-3.067-0.293-4.924-1.149l0.838-1.816c3.253,1.501,5.474,0.959,8.047,0.329
	c2.154-0.528,4.597-1.126,7.759-0.396l-0.449,1.949c-2.696-0.622-4.706-0.131-6.834,0.389C10.536,15.707,9.105,16.058,7.505,16.058z
	"/>
<path style="fill:#333333;" d="M23,15h-2c0-4.204-1.031-6.279-1.496-7H15.5V6h4.914l0.293,0.293C20.941,6.527,23,8.766,23,15z"/>
<path style="fill:#333333;" d="M16.33,8H5.882L3.605,3.447l1.01-1.44l12.565,1.457L16.33,8z M7.118,6h7.552l0.149-0.797L6.221,4.206
	L7.118,6z"/>
</svg>






