<?xml version="1.0" encoding="iso-8859-1"?>
<svg version="1.1" id="&#x56FE;&#x5C42;_1" xmlns="http://www.w3.org/2000/svg" xmlns:xlink="http://www.w3.org/1999/xlink" x="0px"
	 y="0px" viewBox="0 0 24 24" style="enable-background:new 0 0 24 24;" xml:space="preserve">
<g>
	<defs>
		<rect id="SVGID_1_" width="24" height="24"/>
	</defs>
	<clipPath id="SVGID_00000060741266666727259020000001692833779693993905_">
		<use xlink:href="#SVGID_1_"  style="overflow:visible;"/>
	</clipPath>
	<g style="clip-path:url(#SVGID_00000060741266666727259020000001692833779693993905_);">
		<path style="fill:#333333;" d="M7.5,21.5c-2.757,0-5-2.243-5-5s2.243-5,5-5s5,2.243,5,5S10.257,21.5,7.5,21.5z M7.5,13.5
			c-1.654,0-3,1.346-3,3s1.346,3,3,3s3-1.346,3-3S9.154,13.5,7.5,13.5z"/>
		
			<rect x="15.25" y="7.195" transform="matrix(0.6508 -0.7593 0.7593 0.6508 -1.5383 15.6554)" style="fill:#333333;" width="2" height="4.61"/>
		<polygon style="fill:#333333;" points="10.748,13.664 9.252,12.336 17.905,2.602 22.15,6.241 20.85,7.759 18.095,5.398 		"/>
	</g>
</g>
</svg>






