<?xml version="1.0" encoding="iso-8859-1"?>
<svg version="1.1" id="&#x56FE;&#x5C42;_1" xmlns="http://www.w3.org/2000/svg" xmlns:xlink="http://www.w3.org/1999/xlink" x="0px"
	 y="0px" viewBox="0 0 24 24" style="enable-background:new 0 0 24 24;" xml:space="preserve">
<g>
	<defs>
		<rect id="SVGID_1_" width="24" height="24"/>
	</defs>
	<clipPath id="SVGID_00000020364192587155939690000002798803090852542094_">
		<use xlink:href="#SVGID_1_"  style="overflow:visible;"/>
	</clipPath>
	<g style="clip-path:url(#SVGID_00000020364192587155939690000002798803090852542094_);">
		<path style="fill:#333333;" d="M7.5,21.5c-2.757,0-5-2.243-5-5s2.243-5,5-5s5,2.243,5,5S10.257,21.5,7.5,21.5z M7.5,13.5
			c-1.654,0-3,1.346-3,3s1.346,3,3,3s3-1.346,3-3S9.154,13.5,7.5,13.5z"/>
		
			<rect x="15.125" y="7.289" transform="matrix(0.6783 -0.7348 0.7348 0.6783 -1.7929 14.905)" style="fill:#333333;" width="2.001" height="4.423"/>
		
			<rect x="7.876" y="7.25" transform="matrix(0.667 -0.7451 0.7451 0.667 -1.4012 13.365)" style="fill:#333333;" width="12.748" height="2"/>
		
			<rect x="18.25" y="4.737" transform="matrix(0.6805 -0.7328 0.7328 0.6805 0.9302 16.3831)" style="fill:#333333;" width="2" height="4.776"/>
	</g>
</g>
</svg>






