<?xml version="1.0" encoding="iso-8859-1"?>
<svg version="1.1" id="&#x56FE;&#x5C42;_1" xmlns="http://www.w3.org/2000/svg" xmlns:xlink="http://www.w3.org/1999/xlink" x="0px"
	 y="0px" viewBox="0 0 24 24" style="enable-background:new 0 0 24 24;" xml:space="preserve">
<path style="fill:#333333;" d="M7.945,21.622c-1.579,0-3.123-0.623-4.258-1.769c-2.26-2.327-2.228-6.071,0.065-8.353
	c2.289-2.276,6.044-2.31,8.374-0.072l0.009,0.006c1.524,1.496,2.13,3.705,1.58,5.766c-0.55,2.059-2.176,3.677-4.243,4.223
	C8.968,21.557,8.455,21.622,7.945,21.622z M7.977,11.768c-1.022,0-2.043,0.385-2.814,1.151c-1.52,1.513-1.542,3.995-0.048,5.534
	c0.993,1.001,2.469,1.401,3.847,1.037c1.375-0.363,2.457-1.438,2.822-2.805c0.364-1.363-0.037-2.826-1.045-3.818
	C9.971,12.134,8.974,11.768,7.977,11.768z"/>
<rect x="9.74" y="6.75" transform="matrix(0.7071 -0.7071 0.7071 0.7071 -0.867 13.4069)" style="fill:#333333;" width="12.021" height="2"/>
<path style="fill:#333333;" d="M17.867,12.561l-4.133-4.11l4.585-4.561L22.451,8L17.867,12.561z M16.57,8.45l1.297,1.289L19.615,8
	l-1.296-1.289L16.57,8.45z"/>
</svg>






