<?xml version="1.0" encoding="iso-8859-1"?>
<svg version="1.1" id="&#x56FE;&#x5C42;_1" xmlns="http://www.w3.org/2000/svg" xmlns:xlink="http://www.w3.org/1999/xlink" x="0px"
	 y="0px" viewBox="0 0 24 24" style="enable-background:new 0 0 24 24;" xml:space="preserve">
<path style="fill:#333333;" d="M12,23C5.935,23,1,18.065,1,12S5.935,1,12,1s11,4.935,11,11S18.065,23,12,23z M12,3
	c-4.962,0-9,4.038-9,9c0,4.963,4.038,9,9,9c4.963,0,9-4.037,9-9C21,7.038,16.963,3,12,3z"/>
<path style="fill:#333333;" d="M15.133,17H8.867l0.576-4.61C8.845,11.746,8.5,10.889,8.5,10c0-1.93,1.57-3.5,3.5-3.5
	s3.5,1.57,3.5,3.5c0,0.889-0.345,1.746-0.943,2.39L15.133,17z M11.133,15h1.734l-0.432-3.452l0.464-0.348
	c0.382-0.286,0.601-0.724,0.601-1.2c0-0.827-0.673-1.5-1.5-1.5s-1.5,0.673-1.5,1.5c0,0.477,0.219,0.914,0.601,1.2l0.464,0.348
	L11.133,15z"/>
</svg>






