<?xml version="1.0" encoding="iso-8859-1"?>
<svg version="1.1" id="&#x56FE;&#x5C42;_1" xmlns="http://www.w3.org/2000/svg" xmlns:xlink="http://www.w3.org/1999/xlink" x="0px"
	 y="0px" viewBox="0 0 24 24" style="enable-background:new 0 0 24 24;" xml:space="preserve">
<path style="fill:#333333;" d="M9,23.25c-1.491,0-3-1.116-3-3.25v-5h2v5c0,0.922,0.517,1.25,1,1.25s1-0.328,1-1.25v-5h2v5
	C12,22.134,10.491,23.25,9,23.25z"/>
<rect x="7" y="17.5" style="fill:#333333;" width="4" height="2"/>
<path style="fill:#333333;" d="M16.934,16H6V3c0-1.103,0.897-2,2-2h8.317c0.391,0,0.751,0.114,1.041,0.331
	c0.645,0.481,2.188,1.982,2.634,5.545c0.418,3.337-0.739,6.656-1.256,7.928C18.439,15.531,17.732,16,16.934,16z M8,14h8.934
	c0.407-1.075,1.434-4.006,1.074-6.876C17.673,4.447,16.661,3.346,16.247,3H8V14z"/>
<circle style="fill:#333333;" cx="11" cy="5" r="1"/>
</svg>






