<?xml version="1.0" encoding="iso-8859-1"?>
<svg version="1.1" id="&#x56FE;&#x5C42;_1" xmlns="http://www.w3.org/2000/svg" xmlns:xlink="http://www.w3.org/1999/xlink" x="0px"
	 y="0px" viewBox="0 0 24 24" style="enable-background:new 0 0 24 24;" xml:space="preserve">
<rect x="6" y="2" style="fill:#333333;" width="2" height="20"/>
<path style="fill:#333333;" d="M7,11c-1.383,0-4-0.731-4-3.5v-5h2v5C5,8.958,6.795,9,7,9c0.33-0.003,2-0.093,2-1.5v-5h2v5
	C11,10.269,8.383,11,7,11z"/>
<path style="fill:none;" d="M15,6c0-4,4-4,4-4v8.5h-4V6z"/>
<path style="fill:#333333;" d="M20,22h-2V11.5h-4V6c0-3.955,3.271-5,5-5h1V22z M16,9.5h2V3.153C17.111,3.416,16,4.119,16,6V9.5z"/>
</svg>






