<?xml version="1.0" encoding="iso-8859-1"?>
<svg version="1.1" id="&#x56FE;&#x5C42;_1" xmlns="http://www.w3.org/2000/svg" xmlns:xlink="http://www.w3.org/1999/xlink" x="0px"
	 y="0px" viewBox="0 0 24 24" style="enable-background:new 0 0 24 24;" xml:space="preserve">
<path style="fill:#333333;" d="M5.5,9.5C3.57,9.5,2,7.93,2,6s1.57-3.5,3.5-3.5S9,4.07,9,6S7.43,9.5,5.5,9.5z M5.5,4.5
	C4.673,4.5,4,5.173,4,6s0.673,1.5,1.5,1.5S7,6.827,7,6S6.327,4.5,5.5,4.5z"/>
<polygon style="fill:#333333;" points="13.486,21.164 11.514,20.836 12.914,12.436 9.4,9.8 10.6,8.2 14.6,11.2 14.986,12.164 "/>
<rect x="12.846" y="7.75" transform="matrix(0.776 -0.6307 0.6307 0.776 -1.4869 13.3136)" style="fill:#333333;" width="10.308" height="2"/>
<polygon style="fill:#333333;" points="5.447,15.895 4.553,14.105 7.232,12.766 9.181,8.427 12.681,3.427 14.493,3.887 
	14.993,8.287 13.007,8.513 12.805,6.737 10.875,9.494 8.914,13.906 8.447,14.395 "/>
</svg>






