<?xml version="1.0" encoding="iso-8859-1"?>
<svg version="1.1" id="&#x56FE;&#x5C42;_1" xmlns="http://www.w3.org/2000/svg" xmlns:xlink="http://www.w3.org/1999/xlink" x="0px"
	 y="0px" viewBox="0 0 24 24" style="enable-background:new 0 0 24 24;" xml:space="preserve">
<rect x="8.5" y="7.5" style="fill:#333333;" width="9" height="2"/>
<rect x="7.5" y="12" style="fill:#333333;" width="9" height="2"/>
<rect x="6" y="16.5" style="fill:#333333;" width="9" height="2"/>
<path style="fill:#333333;" d="M5.456,21.795l-1.911-0.59L9.196,2.91c0.26-0.843,1.028-1.41,1.911-1.41h7.081
	c0.629,0,1.209,0.287,1.59,0.787c0.382,0.5,0.505,1.136,0.338,1.743l-4.87,17.735l-1.928-0.529L18.188,3.5h-7.081L5.456,21.795z"/>
<rect x="8.5" y="8.917" transform="matrix(0.9864 -0.1644 0.1644 0.9864 -2.3368 1.766)" style="fill:#333333;" width="2" height="12.166"/>
<rect x="17.5" y="8.917" transform="matrix(0.9864 -0.1644 0.1644 0.9864 -2.2143 3.2456)" style="fill:#333333;" width="2" height="12.166"/>
</svg>






