<?xml version="1.0" encoding="iso-8859-1"?>
<svg version="1.1" id="&#x56FE;&#x5C42;_1" xmlns="http://www.w3.org/2000/svg" xmlns:xlink="http://www.w3.org/1999/xlink" x="0px"
	 y="0px" viewBox="0 0 24 24" style="enable-background:new 0 0 24 24;" xml:space="preserve">
<path style="fill:#333333;" d="M11.5,11.5H6V4.75C6,3.233,7.233,2,8.75,2s2.75,1.233,2.75,2.75V11.5z M8,9.5h1.5V4.75
	C9.5,4.336,9.164,4,8.75,4S8,4.336,8,4.75V9.5z"/>
<path style="fill:#333333;" d="M18,11.5h-5.5V4.75C12.5,3.233,13.733,2,15.25,2S18,3.233,18,4.75V11.5z M14.5,9.5H16V4.75
	C16,4.336,15.663,4,15.25,4S14.5,4.336,14.5,4.75V9.5z"/>
<path style="fill:#333333;" d="M16,22H8v-6h8V22z M10,20h4v-2h-4V20z"/>
<path style="fill:#333333;" d="M15,18H9c-2.757,0-5-2.243-5-5v-2c0-0.827,0.673-1.5,1.5-1.5h13c0.827,0,1.5,0.673,1.5,1.5v2
	C20,15.757,17.757,18,15,18z M6,11.5V13c0,1.654,1.346,3,3,3h6c1.654,0,3-1.346,3-3v-1.5H6z"/>
</svg>






