<?xml version="1.0" encoding="iso-8859-1"?>
<svg version="1.1" id="&#x56FE;&#x5C42;_1" xmlns="http://www.w3.org/2000/svg" xmlns:xlink="http://www.w3.org/1999/xlink" x="0px"
	 y="0px" viewBox="0 0 24 24" style="enable-background:new 0 0 24 24;" xml:space="preserve">
<rect x="2.5" y="20.5" style="fill:#333333;" width="19" height="2"/>
<path style="fill:#333333;" d="M20,18.5c-2.049,0-15.602-4.203-18.298-5.046L1,13.235v-6.74h1c1.191,0,2.925,2.201,3.578,3.094
	L9.5,10.302v-9.42l3.83,1.915l2.87,9.342l4.015,0.885C22.731,13.652,23,15.314,23,16C23,17.519,21.822,18.5,20,18.5z M3,11.764
	C9.178,13.684,18.704,16.5,20,16.5c0.663,0,1-0.168,1-0.5c0-0.478-0.418-0.824-1.242-1.03l-5.126-1.13L11.67,4.203L11.5,4.118v8.58
	l-7.105-1.292L4.16,11.042C3.889,10.622,3.441,10.068,3,9.58V11.764z"/>
</svg>






