<?xml version="1.0" encoding="iso-8859-1"?>
<svg version="1.1" id="&#x56FE;&#x5C42;_1" xmlns="http://www.w3.org/2000/svg" xmlns:xlink="http://www.w3.org/1999/xlink" x="0px"
	 y="0px" viewBox="0 0 24 24" style="enable-background:new 0 0 24 24;" xml:space="preserve">
<path style="fill:#333333;" d="M18.25,23C16.894,23,5,22.901,5,19.5c0-2.463,3.288-2.499,4.449-2.5
	c0.251-0.023,0.55-0.031,0.871-0.038c1.425-0.028,1.93-0.149,1.93-0.462C12.062,15.89,8.971,15,7,15v-2c1.192,0,7.25,0.608,7.25,3.5
	c0,2.384-2.627,2.437-3.89,2.462c-0.28,0.006-0.54,0.009-0.751,0.032L9.5,19c-1.805,0-2.307,0.256-2.446,0.401
	C8.191,20.278,14.561,21,18.25,21V23z"/>
<path style="fill:#333333;" d="M2.507,18.028C2.501,17.838,2.386,13.318,3.3,9.5C4.313,5.27,6.902,1,10.402,1
	C13.939,1,16.5,4.883,16.5,7.5h-2c0-1.581-1.689-4.5-4.098-4.5C8.112,3,6.074,6.504,5.245,9.966
	c-0.852,3.556-0.74,7.961-0.739,8.005L2.507,18.028z"/>
<path style="fill:#333333;" d="M19.001,16.54c-0.001-0.024-0.102-2.45-0.476-4.064C18.411,11.979,17.748,9.5,16,9.5
	c-1.978,0-2,2.475-2,2.5h-2c0-1.74,1.086-4.5,4-4.5c2.526,0,3.968,2.337,4.475,4.524c0.416,1.8,0.521,4.329,0.524,4.437
	L19.001,16.54z"/>
</svg>






