<?xml version="1.0" encoding="iso-8859-1"?>
<svg version="1.1" id="&#x56FE;&#x5C42;_1" xmlns="http://www.w3.org/2000/svg" xmlns:xlink="http://www.w3.org/1999/xlink" x="0px"
	 y="0px" viewBox="0 0 24 24" style="enable-background:new 0 0 24 24;" xml:space="preserve">
<path style="fill:#333333;" d="M21,17H3V5.5C3,4.122,4.122,3,5.5,3h13C19.879,3,21,4.122,21,5.5V17z M5,15h14V5.5
	C19,5.224,18.775,5,18.5,5h-13C5.224,5,5,5.224,5,5.5V15z"/>
<path style="fill:#333333;" d="M19,21H5c-2.206,0-4-1.794-4-4v-2h22v2C23,19.206,21.206,21,19,21z M3,17c0,1.103,0.897,2,2,2h14
	c1.103,0,2-0.897,2-2H3z"/>
</svg>






