<?xml version="1.0" encoding="iso-8859-1"?>
<svg version="1.1" id="&#x56FE;&#x5C42;_1" xmlns="http://www.w3.org/2000/svg" xmlns:xlink="http://www.w3.org/1999/xlink" x="0px"
	 y="0px" viewBox="0 0 24 24" style="enable-background:new 0 0 24 24;" xml:space="preserve">
<g>
	<defs>
		<rect id="SVGID_1_" width="24" height="24"/>
	</defs>
	<clipPath id="SVGID_00000115474371562754215780000001375492623846335652_">
		<use xlink:href="#SVGID_1_"  style="overflow:visible;"/>
	</clipPath>
	<g style="clip-path:url(#SVGID_00000115474371562754215780000001375492623846335652_);">
		<path style="fill:#333333;" d="M15.664,24.191L9.74,18.267l0.019-4.058l-4.194-0.118l-5.709-5.709l20.698-6.178l1.245,1.242
			L15.664,24.191z M11.744,17.442l2.956,2.956l4.657-15.751L3.64,9.338l2.776,2.776l5.352,0.151L11.744,17.442z"/>
		<path style="fill-rule:evenodd;clip-rule:evenodd;fill:#333333;" d="M13.768,7.445c-0.781,0.781-0.781,2.047,0,2.828
			c0.781,0.781,2.047,0.781,2.828,0c0.781-0.781,0.781-2.047,0-2.828C15.815,6.664,14.549,6.664,13.768,7.445z"/>
		
			<rect x="14.01" y="5.031" transform="matrix(0.7071 -0.7071 0.7071 0.7071 1.0103 14.5017)" style="fill:#333333;" width="8.001" height="2"/>
	</g>
</g>
</svg>






