<?xml version="1.0" encoding="iso-8859-1"?>
<svg version="1.1" id="&#x56FE;&#x5C42;_1" xmlns="http://www.w3.org/2000/svg" xmlns:xlink="http://www.w3.org/1999/xlink" x="0px"
	 y="0px" viewBox="0 0 24 24" style="enable-background:new 0 0 24 24;" xml:space="preserve">
<path style="fill:#333333;" d="M12,19c-4.136,0-7.5-3.167-7.5-7.061c0-3.652,6.093-9.937,6.788-10.642L12,0.576l0.712,0.722
	c0.695,0.705,6.788,6.99,6.788,10.642C19.5,15.833,16.136,19,12,19z M12,3.446c-2.374,2.549-5.5,6.558-5.5,8.493
	C6.5,14.729,8.967,17,12,17c3.032,0,5.5-2.271,5.5-5.061C17.5,10.004,14.374,5.996,12,3.446z"/>
<rect x="11" y="2" style="fill:#333333;" width="2" height="16"/>
<rect x="11" y="18" style="fill:#333333;" width="2" height="4"/>
<path style="fill:#333333;" d="M12,19c-4.136,0-7.5-3.167-7.5-7.061h2C6.5,14.729,8.967,17,12,17c3.032,0,5.5-2.271,5.5-5.061h2
	C19.5,15.833,16.136,19,12,19z"/>
<path style="fill:#333333;" d="M19.5,11.939h-2c0-1.936-3.126-5.944-5.5-8.493c-2.374,2.549-5.5,6.558-5.5,8.493h-2
	c0-3.652,6.093-9.937,6.788-10.642L12,0.576l0.712,0.722C13.407,2.002,19.5,8.288,19.5,11.939z"/>
</svg>






