<?xml version="1.0" encoding="iso-8859-1"?>
<svg version="1.1" id="&#x56FE;&#x5C42;_1" xmlns="http://www.w3.org/2000/svg" xmlns:xlink="http://www.w3.org/1999/xlink" x="0px"
	 y="0px" viewBox="0 0 24 24" style="enable-background:new 0 0 24 24;" xml:space="preserve">
<path style="fill:#333333;" d="M14.766,22.521c-1.956,0-6.958-0.365-10.018-3.863C1.042,14.425,1,2.505,1,2V1.041l0.958-0.04
	C2.461,0.979,14.363,0.522,18.6,3.7c4.41,3.307,3.438,12.046,3.394,12.417l-1.986-0.233C20.016,15.805,20.89,7.917,17.4,5.3
	C14.622,3.216,6.825,2.909,3.015,2.972c0.104,3.798,0.805,11.59,3.238,14.37c3.134,3.581,9.113,3.165,9.17,3.161l0.154,1.994
	C15.521,22.501,15.229,22.521,14.766,22.521z"/>
<path style="fill:#333333;" d="M21.397,22.798c-0.231-0.175-5.705-4.325-9.14-8.128c-3.482-3.855-5.11-7.619-5.178-7.777
	l1.839-0.786c0.015,0.036,1.576,3.628,4.823,7.224c3.306,3.659,8.806,7.83,8.86,7.872L21.397,22.798z"/>
<rect x="9.99" y="9.75" transform="matrix(0.0771 -0.997 0.997 0.0771 1.5099 23.1312)" style="fill:#333333;" width="6.519" height="2"/>
<rect x="9.5" y="11.238" transform="matrix(0.0995 -0.995 0.995 0.0995 -4.2266 22.8297)" style="fill:#333333;" width="2" height="5.025"/>
</svg>






