<?xml version="1.0" encoding="iso-8859-1"?>
<svg version="1.1" id="&#x56FE;&#x5C42;_1" xmlns="http://www.w3.org/2000/svg" xmlns:xlink="http://www.w3.org/1999/xlink" x="0px"
	 y="0px" viewBox="0 0 24 24" style="enable-background:new 0 0 24 24;" xml:space="preserve">
<path style="fill:#333333;" d="M22,16H2v-4c0-1.103,0.897-2,2-2h16c1.103,0,2,0.897,2,2V16z M4,14h16v-2H4V14z"/>
<rect x="8.5" y="15" style="fill:#333333;" width="2" height="7"/>
<rect x="13.5" y="15" style="fill:#333333;" width="2" height="7"/>
<path style="fill:#333333;" d="M20,12H4V9c0-4.411,3.589-8,8-8s8,3.589,8,8V12z M6,10h12V9c0-3.309-2.691-6-6-6S6,5.691,6,9V10z"/>
<path style="fill:#333333;" d="M12,9c-1.378,0-2.5-1.122-2.5-2.5S10.622,4,12,4c1.379,0,2.5,1.122,2.5,2.5S13.379,9,12,9z M12,6
	c-0.276,0-0.5,0.224-0.5,0.5S11.724,7,12,7c0.275,0,0.5-0.224,0.5-0.5S12.275,6,12,6z"/>
</svg>






