<?xml version="1.0" encoding="iso-8859-1"?>
<svg version="1.1" id="&#x56FE;&#x5C42;_1" xmlns="http://www.w3.org/2000/svg" xmlns:xlink="http://www.w3.org/1999/xlink" x="0px"
	 y="0px" viewBox="0 0 24 24" style="enable-background:new 0 0 24 24;" xml:space="preserve">
<path style="fill:#333333;" d="M19.473,12.85c-1.152-0.715-3.558-3.242-4.165-6.112C14.966,5.12,13.935,5.008,13.008,5l-0.016-2
	c0.019,0,0.037,0,0.055,0c2.902,0,3.896,1.804,4.218,3.324c0.479,2.266,2.528,4.371,3.263,4.827L19.473,12.85z"/>
<path style="fill:#333333;" d="M13,21v-2c0.981,0,1.968-0.134,2.308-1.737c0.607-2.87,3.013-5.397,4.165-6.112l1.055,1.699
	c-0.734,0.456-2.783,2.561-3.263,4.827C16.797,19.882,15.362,21,13,21z"/>
<circle style="fill:#333333;" cx="20" cy="12" r="2"/>
<rect x="13" y="11" style="fill:#333333;" width="7" height="2"/>
<rect x="3" y="11" style="fill:#333333;" width="6" height="2"/>
<rect x="3" y="3" style="fill:#333333;" width="6" height="2"/>
<rect x="3" y="19" style="fill:#333333;" width="6" height="2"/>
</svg>






