<?xml version="1.0" encoding="iso-8859-1"?>
<svg version="1.1" id="&#x56FE;&#x5C42;_1" xmlns="http://www.w3.org/2000/svg" xmlns:xlink="http://www.w3.org/1999/xlink" x="0px"
	 y="0px" viewBox="0 0 24 24" style="enable-background:new 0 0 24 24;" xml:space="preserve">
<path style="fill:#333333;" d="M12,23c-0.851,0-1.314-0.781-1.687-1.41c-0.088-0.147-0.212-0.357-0.294-0.466
	C7.239,20.03,5,16.427,5,13c0-3.377,2.175-6.928,4.901-8.076L12,2.457l2.099,2.468C16.824,6.072,19,9.623,19,13
	c0,3.426-2.238,7.03-5.019,8.124c-0.082,0.108-0.207,0.318-0.294,0.466C13.314,22.219,12.851,23,12,23z M12,5.543l-0.911,1.071
	l-0.25,0.09C9.023,7.358,7,10.104,7,13s2.023,5.642,3.839,6.296c0.539,0.193,0.845,0.688,1.161,1.219
	c0.315-0.531,0.623-1.025,1.161-1.219C14.977,18.642,17,15.896,17,13s-2.023-5.642-3.839-6.295l-0.25-0.09L12,5.543z"/>
<path style="fill:#333333;" d="M14.807,6.526c-0.293,0-0.566-0.021-0.809-0.052c-0.553-0.071-1.027-0.383-1.301-0.856
	c-0.273-0.473-0.306-1.04-0.09-1.555c0.321-0.769,0.928-1.815,1.99-2.429c1.06-0.613,2.267-0.617,3.101-0.51
	c0.553,0.071,1.027,0.383,1.301,0.856c0.273,0.473,0.306,1.04,0.09,1.555c-0.321,0.769-0.929,1.816-1.991,2.429
	C16.346,6.398,15.52,6.526,14.807,6.526z M14.597,4.521c0.477,0.024,1.041-0.023,1.501-0.289C16.559,3.966,16.884,3.5,17.1,3.077
	c-0.483-0.024-1.043,0.024-1.502,0.29C15.137,3.632,14.812,4.098,14.597,4.521z"/>
</svg>






