<?xml version="1.0" encoding="iso-8859-1"?>
<svg version="1.1" id="&#x56FE;&#x5C42;_1" xmlns="http://www.w3.org/2000/svg" xmlns:xlink="http://www.w3.org/1999/xlink" x="0px"
	 y="0px" viewBox="0 0 24 24" style="enable-background:new 0 0 24 24;" xml:space="preserve">
<path style="fill:none;" d="M7,5c0,1.105-0.895,2-2,2C3.895,7,3,6.105,3,5c0-1.105,0.895-2,2-2C6.105,3,7,3.895,7,5z"/>
<path style="fill:#333333;" d="M6,10H4V7.829C2.836,7.416,2,6.304,2,5c0-1.654,1.346-3,3-3c1.304,0,2.416,0.836,2.829,2H10v2H7.829
	C7.527,6.851,6.851,7.527,6,7.829V10z M5,7V6c0.551,0,1-0.449,1-1h1H6c0-0.551-0.449-1-1-1S4,4.449,4,5s0.449,1,1,1V7z"/>
<path style="fill:none;" d="M7,19c0-1.105-0.895-2-2-2c-1.105,0-2,0.895-2,2s0.895,2,2,2C6.105,21,7,20.105,7,19z"/>
<path style="fill:#333333;" d="M5,22c-1.654,0-3-1.346-3-3c0-1.304,0.836-2.416,2-2.829V14h2v2.171
	C6.851,16.473,7.527,17.148,7.829,18H10v2H7.829C7.416,21.164,6.304,22,5,22z M5,17v1c-0.551,0-1,0.448-1,1s0.449,1,1,1s1-0.448,1-1
	s-0.449-1-1-1V17z"/>
<path style="fill:none;" d="M17,19c0-1.105,0.895-2,2-2s2,0.895,2,2s-0.895,2-2,2S17,20.105,17,19z"/>
<path style="fill:#333333;" d="M19,22c-1.304,0-2.416-0.836-2.829-2H14v-2h2.171c0.302-0.852,0.978-1.527,1.829-1.829V14h2v2.171
	c1.164,0.413,2,1.525,2,2.829C22,20.654,20.654,22,19,22z M18,19c0,0.552,0.448,1,1,1s1-0.448,1-1s-0.448-1-1-1S18,18.448,18,19z"/>
<path style="fill:none;" d="M17,5c0,1.105,0.895,2,2,2s2-0.895,2-2c0-1.105-0.895-2-2-2S17,3.895,17,5z"/>
<path style="fill:#333333;" d="M20,10h-2V7.829C17.148,7.527,16.473,6.851,16.171,6H14V4h2.171C16.584,2.836,17.696,2,19,2
	c1.654,0,3,1.346,3,3c0,1.304-0.836,2.416-2,2.829V10z M17,5h1c0,0.551,0.448,1,1,1s1-0.449,1-1s-0.448-1-1-1s-1,0.449-1,1H17z"/>
<rect x="8.5" y="11" style="fill:#333333;" width="7" height="2"/>
<rect x="11" y="8.5" style="fill:#333333;" width="2" height="7"/>
</svg>






