<?xml version="1.0" encoding="iso-8859-1"?>
<svg version="1.1" id="&#x56FE;&#x5C42;_1" xmlns="http://www.w3.org/2000/svg" xmlns:xlink="http://www.w3.org/1999/xlink" x="0px"
	 y="0px" viewBox="0 0 24 24" style="enable-background:new 0 0 24 24;" xml:space="preserve">
<path style="fill:#333333;" d="M6.5,17.5c-2.206,0-4-1.794-4-4c0-2.206,1.794-4,4-4s4,1.794,4,4C10.5,15.706,8.706,17.5,6.5,17.5z
	 M6.5,11.5c-1.103,0-2,0.897-2,2s0.897,2,2,2s2-0.897,2-2S7.603,11.5,6.5,11.5z"/>
<path style="fill:#333333;" d="M17.745,22.502c-0.499,0-0.982-0.096-1.399-0.289c-1.27-0.591-2.14-1.536-2.586-2.81
	c-0.78-2.228,0.022-4.857,0.62-6.06l0.783-1.763c0.21-0.43,0.55-1.188,0.632-1.533c0.563-2.339,0.411-4.08-0.451-5.176
	C14.367,3.634,12.681,3.5,12,3.5c-4.374,0-4.5,6.284-4.5,7h-2c0-4.48,2.01-9,6.5-9c0.972,0,3.396,0.208,4.914,2.135
	c1.262,1.601,1.539,3.916,0.826,6.88c-0.161,0.67-0.704,1.788-0.766,1.913l-0.785,1.768c-0.445,0.897-1.104,2.943-0.542,4.547
	c0.265,0.756,0.77,1.298,1.542,1.656c0.307,0.144,0.909,0.158,1.425-0.095c0.474-0.232,0.779-0.644,0.91-1.224l1.951,0.441
	c-0.264,1.164-0.966,2.08-1.979,2.577C18.952,22.366,18.338,22.502,17.745,22.502z"/>
</svg>






