<?xml version="1.0" encoding="iso-8859-1"?>
<svg version="1.1" id="&#x56FE;&#x5C42;_1" xmlns="http://www.w3.org/2000/svg" xmlns:xlink="http://www.w3.org/1999/xlink" x="0px"
	 y="0px" viewBox="0 0 24 24" style="enable-background:new 0 0 24 24;" xml:space="preserve">
<rect x="2" y="4" style="fill:#333333;" width="2" height="16"/>
<rect x="11" y="4" style="fill:#333333;" width="2" height="16"/>
<rect x="3.5" y="11" style="fill:#333333;" width="8" height="2"/>
<path style="fill:#333333;" d="M18.25,17c-2.067,0-3.75-1.683-3.75-3.75c0-2.068,1.683-3.75,3.75-3.75S22,11.182,22,13.25
	C22,15.317,20.317,17,18.25,17z M18.25,11.5c-0.965,0-1.75,0.785-1.75,1.75S17.285,15,18.25,15S20,14.215,20,13.25
	S19.215,11.5,18.25,11.5z"/>
<path style="fill:#333333;" d="M18.25,21c-1.715,0-3.059-0.966-3.687-2.65l1.873-0.699C16.771,18.546,17.381,19,18.25,19
	c0.965,0,1.75-0.897,1.75-2v-3.5h2V17C22,19.206,20.317,21,18.25,21z"/>
</svg>






