<?xml version="1.0" encoding="iso-8859-1"?>
<svg version="1.1" id="&#x56FE;&#x5C42;_1" xmlns="http://www.w3.org/2000/svg" xmlns:xlink="http://www.w3.org/1999/xlink" x="0px"
	 y="0px" viewBox="0 0 24 24" style="enable-background:new 0 0 24 24;" xml:space="preserve">
<rect x="2" y="18.5" style="fill:#333333;" width="20" height="2"/>
<rect x="2" y="12.5" style="fill:#333333;" width="5.75" height="2"/>
<rect x="16.25" y="12.5" style="fill:#333333;" width="5.75" height="2"/>
<path style="fill:#333333;" d="M6.988,14.14c-0.08-0.097-0.157-0.196-0.231-0.297c-0.072-0.1-0.141-0.197-0.206-0.298
	C5.864,12.491,5.5,11.265,5.5,10c0-3.584,2.916-6.5,6.5-6.5s6.5,2.916,6.5,6.5c0,1.264-0.363,2.49-1.052,3.546
	c-0.065,0.101-0.133,0.196-0.201,0.292c-0.077,0.104-0.153,0.201-0.23,0.296l-1.547-1.268c0.056-0.067,0.11-0.138,0.162-0.209
	c0.047-0.063,0.095-0.134,0.142-0.205C16.248,11.724,16.5,10.875,16.5,10c0-2.481-2.019-4.5-4.5-4.5S7.5,7.519,7.5,10
	c0,0.875,0.251,1.724,0.727,2.454c0.046,0.07,0.093,0.139,0.142,0.205c0.05,0.067,0.103,0.136,0.157,0.201L6.988,14.14z"/>
</svg>






