<?xml version="1.0" encoding="iso-8859-1"?>
<svg version="1.1" id="&#x56FE;&#x5C42;_1" xmlns="http://www.w3.org/2000/svg" xmlns:xlink="http://www.w3.org/1999/xlink" x="0px"
	 y="0px" viewBox="0 0 24 24" style="enable-background:new 0 0 24 24;" xml:space="preserve">
<path style="fill:#333333;" d="M12,22.995c-2.817,0-5.634-1.072-7.778-3.217c-4.289-4.289-4.289-11.268,0-15.557
	c4.289-4.29,11.269-4.289,15.557,0c4.289,4.289,4.289,11.268,0,15.557C17.634,21.923,14.817,22.995,12,22.995z M12,3.004
	c-2.305,0-4.609,0.877-6.364,2.631c-3.509,3.509-3.509,9.219,0,12.729c3.509,3.508,9.219,3.51,12.729,0
	c3.509-3.51,3.509-9.219,0-12.729C16.609,3.882,14.305,3.004,12,3.004z M12,19c-1.87,0-3.627-0.729-4.95-2.051S5,13.87,5,12
	c0-1.87,0.728-3.627,2.05-4.95S10.13,5,12,5c1.869,0,3.627,0.728,4.949,2.05l0,0l0,0C18.271,8.373,19,10.13,19,12
	c0,1.87-0.729,3.628-2.051,4.949C15.628,18.271,13.87,19,12,19z M12,7c-1.335,0-2.591,0.52-3.536,1.464S7,10.665,7,12
	c0,1.335,0.52,2.591,1.464,3.535S10.665,17,12,17c1.335,0,2.591-0.521,3.535-1.465S17,13.335,17,12c0-1.335-0.521-2.591-1.465-3.536
	l0,0C14.591,7.52,13.335,7,12,7z"/>
<rect x="16.657" y="15.656" transform="matrix(0.7071 -0.7071 0.7071 0.7071 -7.3137 17.6567)" style="fill:#333333;" width="2" height="4.001"/>
<rect x="4.343" y="16.657" transform="matrix(0.7071 -0.7071 0.7071 0.7071 -10.6274 9.6567)" style="fill:#333333;" width="4.001" height="2"/>
<rect x="5.343" y="4.343" transform="matrix(0.7071 -0.7071 0.7071 0.7071 -2.6274 6.343)" style="fill:#333333;" width="2" height="4"/>
<rect x="15.656" y="5.343" transform="matrix(0.7071 -0.7071 0.7071 0.7071 0.6863 14.343)" style="fill:#333333;" width="4.001" height="2"/>
<path style="fill:#333333;" d="M12,19c-1.87,0-3.627-0.729-4.95-2.051S5,13.87,5,12c0-1.87,0.728-3.627,2.05-4.95S10.13,5,12,5
	c1.87,0,3.627,0.728,4.949,2.05S19,10.13,19,12c0,1.869-0.729,3.627-2.051,4.949l0,0l0,0l0,0C15.627,18.271,13.869,19,12,19z M12,7
	c-1.335,0-2.591,0.52-3.536,1.464S7,10.665,7,12c0,1.335,0.52,2.591,1.464,3.535S10.665,17,12,17c1.335,0,2.591-0.521,3.535-1.465
	l0,0C16.479,14.591,17,13.335,17,12c0-1.335-0.521-2.591-1.465-3.536S13.335,7,12,7z"/>
</svg>






