<?xml version="1.0" encoding="iso-8859-1"?>
<svg version="1.1" id="&#x56FE;&#x5C42;_1" xmlns="http://www.w3.org/2000/svg" xmlns:xlink="http://www.w3.org/1999/xlink" x="0px"
	 y="0px" viewBox="0 0 24 24" style="enable-background:new 0 0 24 24;" xml:space="preserve">
<path style="fill:#333333;" d="M17.124,8.415L8.827,4.747L6.499,8.073L4.86,6.927l2.328-3.326C7.735,2.82,8.766,2.532,9.636,2.918
	l8.296,3.667L17.124,8.415z"/>
<path style="fill:#333333;" d="M21.5,21.5h-19C1.673,21.5,1,20.827,1,20V8c0-0.827,0.673-1.5,1.5-1.5h19C22.327,6.5,23,7.173,23,8
	v12C23,20.827,22.327,21.5,21.5,21.5z M3,19.5h18v-11H3V19.5z"/>
<polygon style="fill:#333333;" points="11.161,16.954 8.609,11.955 10.391,11.045 12.033,14.264 13.602,11.06 15.398,11.94 
	12.95,16.939 "/>
</svg>






