<?xml version="1.0" encoding="iso-8859-1"?>
<svg version="1.1" id="&#x56FE;&#x5C42;_1" xmlns="http://www.w3.org/2000/svg" xmlns:xlink="http://www.w3.org/1999/xlink" x="0px"
	 y="0px" viewBox="0 0 24 24" style="enable-background:new 0 0 24 24;" xml:space="preserve">
<rect x="3" y="21" style="fill:#333333;" width="18" height="2"/>
<rect x="8.5" y="9" style="fill:#333333;" width="7" height="2"/>
<path style="fill:#333333;" d="M17.133,23H6.867l1.75-14h6.766L17.133,23z M9.133,21h5.734l-1.25-10h-3.234L9.133,21z"/>
<polygon style="fill:#333333;" points="14.335,11 9.666,11 8.516,4.679 10.484,4.321 11.334,9 12.665,9 13.517,4.321 15.483,4.679 
	"/>
<polygon style="fill:#333333;" points="15.293,6.707 12,3.414 8.707,6.707 7.293,5.293 12,0.586 16.707,5.293 "/>
<rect x="18.189" y="1.75" transform="matrix(0.7071 -0.7071 0.7071 0.7071 3.6937 14.4173)" style="fill:#333333;" width="2.121" height="2"/>
<rect x="3.75" y="1.689" transform="matrix(0.7071 -0.7071 0.7071 0.7071 -0.5533 4.1642)" style="fill:#333333;" width="2" height="2.121"/>
<rect x="18.25" y="9.189" transform="matrix(0.7071 -0.7071 0.7071 0.7071 -1.6097 16.614)" style="fill:#333333;" width="2" height="2.121"/>
<rect x="3.689" y="9.25" transform="matrix(0.7071 -0.7071 0.7071 0.7071 -5.8566 6.3609)" style="fill:#333333;" width="2.121" height="2"/>
<rect x="19" y="5.5" style="fill:#333333;" width="2" height="2"/>
<rect x="3" y="5.5" style="fill:#333333;" width="2" height="2"/>
<rect x="9" y="13" style="fill:#333333;" width="6" height="2"/>
<rect x="8.5" y="17" style="fill:#333333;" width="7" height="2"/>
<rect x="14.25" y="9.953" transform="matrix(0.9923 -0.124 0.124 0.9923 -1.8668 2.0151)" style="fill:#333333;" width="2" height="12.093"/>
<rect x="2.703" y="15" transform="matrix(0.124 -0.9923 0.9923 0.124 -8.2118 22.6979)" style="fill:#333333;" width="12.093" height="2"/>
</svg>






