<?xml version="1.0" encoding="iso-8859-1"?>
<svg version="1.1" id="&#x56FE;&#x5C42;_1" xmlns="http://www.w3.org/2000/svg" xmlns:xlink="http://www.w3.org/1999/xlink" x="0px"
	 y="0px" viewBox="0 0 24 24" style="enable-background:new 0 0 24 24;" xml:space="preserve">
<path style="fill:#333333;" d="M15.095,23h-6.19c-1.032,0-1.888-0.774-1.99-1.802l-0.9-8.999c-0.013-0.135-0.013-0.264,0-0.394
	l0.901-9.004C7.017,1.774,7.873,1,8.905,1h6.19c1.032,0,1.889,0.774,1.99,1.802l0.9,8.999c0.014,0.131,0.014,0.268,0,0.401
	l-0.9,8.997C16.982,22.226,16.127,23,15.095,23z M8.905,3l-0.9,9l0.9,9h6.189l0.9-9l-0.9-9H8.905z"/>
<rect x="7" y="11" style="fill:#333333;" width="10" height="2"/>
<rect x="11" y="2" style="fill:#333333;" width="2" height="20"/>
<rect x="10" y="1" style="fill:#333333;" width="4" height="2"/>
<rect x="10" y="21" style="fill:#333333;" width="4" height="2"/>
<path style="fill:#333333;" d="M6.505,17.1l-0.49-4.9c-0.013-0.135-0.013-0.264,0-0.394L6.505,6.9L8.495,7.1L8.005,12l0.49,4.9
	L6.505,17.1z"/>
<path style="fill:#333333;" d="M17.495,17.1l-1.99-0.199l0.49-4.9l-0.49-4.9l1.99-0.199l0.49,4.9c0.014,0.131,0.014,0.268,0,0.401
	L17.495,17.1z"/>
</svg>






