<?xml version="1.0" encoding="iso-8859-1"?>
<svg version="1.1" id="&#x56FE;&#x5C42;_1" xmlns="http://www.w3.org/2000/svg" xmlns:xlink="http://www.w3.org/1999/xlink" x="0px"
	 y="0px" viewBox="0 0 24 24" style="enable-background:new 0 0 24 24;" xml:space="preserve">
<path style="fill:#333333;" d="M6.861,13.241L2.893,9.273C2.057,8.438,1.605,7.319,1.622,6.125c0.016-1.185,0.491-2.303,1.337-3.149
	c0.846-0.847,1.964-1.322,3.149-1.337C7.298,1.62,8.421,2.074,9.257,2.91l4.57,4.57l-1.414,1.414l-4.57-4.57
	C7.392,3.873,6.768,3.608,6.135,3.638c-0.66,0.009-1.286,0.275-1.762,0.751S3.63,5.491,3.621,6.151
	c-0.008,0.65,0.235,1.257,0.686,1.708l3.968,3.968L6.861,13.241z"/>
<path style="fill:#333333;" d="M17.85,22.398c-1.172,0-2.266-0.45-3.087-1.272l-4.57-4.57l1.414-1.414l4.57,4.57
	c0.452,0.451,1.059,0.689,1.708,0.687c0.66-0.009,1.286-0.276,1.762-0.752c0.975-0.975,1.004-2.532,0.065-3.471l-3.968-3.967
	l1.414-1.415l3.968,3.967c1.719,1.719,1.689,4.544-0.065,6.299c-0.847,0.847-1.965,1.321-3.149,1.338
	C17.891,22.398,17.87,22.398,17.85,22.398z"/>
<path style="fill:#333333;" d="M13.762,13.777l-1.414-1.414c0.476-0.476,0.743-1.101,0.752-1.762
	c0.009-0.65-0.235-1.257-0.687-1.708l1.414-1.414c0.836,0.836,1.288,1.954,1.272,3.149C15.083,11.813,14.608,12.932,13.762,13.777z"
	/>
<path style="fill:#333333;" d="M10.127,16.49c-0.836-0.836-1.288-1.954-1.271-3.148c0.016-1.186,0.491-2.304,1.337-3.149
	l1.414,1.414c-0.476,0.476-0.743,1.102-0.751,1.762c-0.009,0.65,0.235,1.257,0.686,1.708L10.127,16.49z"/>
</svg>






