<?xml version="1.0" encoding="iso-8859-1"?>
<svg version="1.1" id="&#x56FE;&#x5C42;_1" xmlns="http://www.w3.org/2000/svg" xmlns:xlink="http://www.w3.org/1999/xlink" x="0px"
	 y="0px" viewBox="0 0 24 24" style="enable-background:new 0 0 24 24;" xml:space="preserve">
<path style="fill:#333333;" d="M17.5,17.5H11v-2h6.5c0.821,0,3.5-0.217,3.5-3c0-3.23-3.245-3.712-3.614-3.756l-0.66-0.079
	l-0.188-0.64C16.216,6.895,15.197,5,12,5C8.808,5,7.983,6.948,7.461,8.775L7.254,9.5H6.5C6.465,9.5,3,9.691,3,12.75
	c0,2.617,2.916,2.75,3.5,2.75v2c-2.738,0-5.5-1.469-5.5-4.75c0-3.464,2.827-4.882,4.738-5.186C6.293,5.877,7.675,3,12,3
	c4.065,0,5.654,2.364,6.253,3.866C20.183,7.304,23,8.862,23,12.5C23,15.954,20.237,17.5,17.5,17.5z"/>
<polygon style="fill:#333333;" points="12.793,19.707 9.586,16.5 12.793,13.293 14.207,14.707 12.414,16.5 14.207,18.293 "/>
</svg>






