<?xml version="1.0" encoding="iso-8859-1"?>
<svg version="1.1" id="&#x56FE;&#x5C42;_1" xmlns="http://www.w3.org/2000/svg" xmlns:xlink="http://www.w3.org/1999/xlink" x="0px"
	 y="0px" viewBox="0 0 24 24" style="enable-background:new 0 0 24 24;" xml:space="preserve">
<path style="fill:#333333;" d="M21,17h-2v-2h2V8h-7.5V6H21c1.103,0,2,0.897,2,2v7C23,16.103,22.103,17,21,17z"/>
<path style="fill:#333333;" d="M10.5,17H3c-1.103,0-2-0.897-2-2V8c0-1.103,0.897-2,2-2h2.5v2H3v7h7.5V17z"/>
<rect x="11" y="1.638" transform="matrix(0.8619 -0.507 0.507 0.8619 -4.1739 7.6717)" style="fill:#333333;" width="2" height="19.723"/>
<rect x="16" y="10.5" style="fill:#333333;" width="2" height="2"/>
<rect x="6" y="10.5" style="fill:#333333;" width="2" height="2"/>
</svg>






