<?xml version="1.0" encoding="iso-8859-1"?>
<svg version="1.1" id="&#x56FE;&#x5C42;_1" xmlns="http://www.w3.org/2000/svg" xmlns:xlink="http://www.w3.org/1999/xlink" x="0px"
	 y="0px" viewBox="0 0 24 24" style="enable-background:new 0 0 24 24;" xml:space="preserve">
<path style="fill:#333333;" d="M15.89,13.646c-0.512,0-1.024-0.195-1.414-0.585L10.94,9.525c-0.378-0.377-0.586-0.879-0.586-1.414
	c0-0.534,0.208-1.036,0.586-1.414l4.95-4.95c0.779-0.78,2.049-0.78,2.828,0l3.535,3.536c0.378,0.377,0.586,0.879,0.586,1.414
	c0,0.534-0.208,1.036-0.586,1.414l-4.949,4.95C16.914,13.45,16.401,13.646,15.89,13.646z M17.303,3.16l-4.948,4.951l3.535,3.536
	l4.949-4.95L17.303,3.16z"/>
<path style="fill:#333333;" d="M6.697,22.839c-0.535,0-1.037-0.208-1.415-0.586l-3.535-3.535c-0.378-0.378-0.586-0.881-0.586-1.416
	c0-0.534,0.208-1.036,0.587-1.413l4.949-4.949c0.779-0.78,2.049-0.78,2.828,0l3.535,3.535c0.78,0.78,0.78,2.049,0,2.829
	l-4.949,4.949C7.733,22.631,7.231,22.839,6.697,22.839z M8.11,12.353l-4.949,4.951l3.536,3.535l4.949-4.949L8.11,12.353z"/>
<rect x="7.001" y="11" transform="matrix(0.7071 -0.7071 0.7071 0.7071 -4.9702 12.0003)" style="fill:#333333;" width="10" height="2"/>
</svg>






