<?xml version="1.0" encoding="iso-8859-1"?>
<svg version="1.1" id="&#x56FE;&#x5C42;_1" xmlns="http://www.w3.org/2000/svg" xmlns:xlink="http://www.w3.org/1999/xlink" x="0px"
	 y="0px" viewBox="0 0 24 24" style="enable-background:new 0 0 24 24;" xml:space="preserve">
<path style="fill:#333333;" d="M18,17.5v-2c1.368,0,3-0.521,3-3c0-3.23-3.245-3.712-3.614-3.756l-0.66-0.079l-0.188-0.64
	C16.216,6.895,15.197,5,12,5C8.808,5,7.983,6.948,7.461,8.775L7.254,9.5H6.5C6.465,9.5,3,9.691,3,12.75c0,2.393,1.879,2.75,3,2.75v2
	c-2.307,0-5-1.244-5-4.75c0-3.464,2.827-4.882,4.738-5.186C6.293,5.877,7.675,3,12,3c4.065,0,5.654,2.364,6.253,3.866
	C20.183,7.304,23,8.862,23,12.5C23,16.187,20.417,17.5,18,17.5z"/>
<rect x="8.464" y="15.5" transform="matrix(0.7071 -0.7071 0.7071 0.7071 -8.1525 13.318)" style="fill:#333333;" width="7.071" height="2"/>
<rect x="11" y="12.964" transform="matrix(0.7071 -0.7071 0.7071 0.7071 -8.1525 13.318)" style="fill:#333333;" width="2" height="7.071"/>
</svg>






