<?xml version="1.0" encoding="iso-8859-1"?>
<svg version="1.1" id="&#x56FE;&#x5C42;_1" xmlns="http://www.w3.org/2000/svg" xmlns:xlink="http://www.w3.org/1999/xlink" x="0px"
	 y="0px" viewBox="0 0 24 24" style="enable-background:new 0 0 24 24;" xml:space="preserve">
<path style="fill:#333333;" d="M8.111,20.887c-1.408,0-2.816-0.536-3.889-1.608c-2.144-2.145-2.144-5.634,0-7.778l7.424-7.424
	l1.414,1.414l-7.424,7.424c-1.364,1.365-1.364,3.585,0,4.95c1.365,1.363,3.585,1.363,4.95,0l8.839-8.839
	c0.378-0.378,0.586-0.88,0.586-1.415c0-0.534-0.208-1.036-0.586-1.414c-0.78-0.78-2.05-0.778-2.829,0l-8.838,8.838
	c-0.195,0.195-0.195,0.513,0,0.708c0.196,0.196,0.513,0.194,0.708,0l7.425-7.425l1.414,1.414l-7.425,7.425
	c-0.975,0.975-2.561,0.975-3.536,0c-0.975-0.975-0.975-2.562,0-3.536l8.838-8.838c1.561-1.56,4.097-1.56,5.657,0
	c0.756,0.755,1.172,1.76,1.172,2.828c0,1.069-0.416,2.073-1.172,2.829L12,19.278C10.928,20.351,9.52,20.887,8.111,20.887z"/>
</svg>






