<?xml version="1.0" encoding="iso-8859-1"?>
<svg version="1.1" id="&#x56FE;&#x5C42;_1" xmlns="http://www.w3.org/2000/svg" xmlns:xlink="http://www.w3.org/1999/xlink" x="0px"
	 y="0px" viewBox="0 0 24 24" style="enable-background:new 0 0 24 24;" xml:space="preserve">
<path style="fill:#333333;" d="M18,18.5h-8c-2.757,0-5-2.243-5-5s2.243-5,5-5h5v2h-5c-1.654,0-3,1.346-3,3s1.346,3,3,3h8
	c1.654,0,3-1.346,3-3c0-0.731-0.267-1.437-0.75-1.984l1.5-1.323C22.556,11.106,23,12.281,23,13.5C23,16.257,20.757,18.5,18,18.5z"/>
<path style="fill:#333333;" d="M14,14.5H9v-2h5c1.654,0,3-1.346,3-3s-1.346-3-3-3H6c-1.654,0-3,1.346-3,3
	c0,0.732,0.266,1.437,0.75,1.983L2.25,12.808C1.444,11.895,1,10.72,1,9.5c0-2.757,2.243-5,5-5h8c2.757,0,5,2.243,5,5
	S16.757,14.5,14,14.5z"/>
</svg>






