<?xml version="1.0" encoding="iso-8859-1"?>
<svg version="1.1" id="&#x56FE;&#x5C42;_1" xmlns="http://www.w3.org/2000/svg" xmlns:xlink="http://www.w3.org/1999/xlink" x="0px"
	 y="0px" viewBox="0 0 24 24" style="enable-background:new 0 0 24 24;" xml:space="preserve">
<polygon style="fill:#333333;" points="17,6 15,6 15,3 9,3 9,6 7,6 7,1 17,1 "/>
<polygon style="fill:#333333;" points="17,23 7,23 7,18 9,18 9,21 15,21 15,18 17,18 "/>
<rect x="2" y="11" style="fill:#333333;" width="7" height="2"/>
<rect x="15" y="11" style="fill:#333333;" width="7" height="2"/>
<rect x="11" y="7" style="fill:#333333;" width="2" height="10"/>
<polygon style="fill:#333333;" points="7.207,15.207 5.793,13.793 7.586,12 5.793,10.207 7.207,8.793 10.414,12 "/>
<polygon style="fill:#333333;" points="16.793,15.207 13.586,12 16.793,8.793 18.207,10.207 16.414,12 18.207,13.793 "/>
</svg>






