<?xml version="1.0" encoding="iso-8859-1"?>
<svg version="1.1" id="&#x56FE;&#x5C42;_1" xmlns="http://www.w3.org/2000/svg" xmlns:xlink="http://www.w3.org/1999/xlink" x="0px"
	 y="0px" viewBox="0 0 24 24" style="enable-background:new 0 0 24 24;" xml:space="preserve">
<path style="fill:#333333;" d="M10.781,23H5.219L5.03,22.242c-0.042-0.166-1.023-4.128-1.525-9.143C3.006,8.107,3,6.083,3,6V5h10v1
	c0,0.083-0.006,2.107-0.505,7.1c-0.501,5.015-1.483,8.977-1.525,9.143L10.781,23z M6.795,21h2.41c0.306-1.378,0.939-4.489,1.3-8.1
	C10.8,9.947,10.919,8.044,10.968,7H5.032C5.081,8.044,5.2,9.947,5.495,12.9C5.856,16.511,6.489,19.622,6.795,21z"/>
<path style="fill:#333333;" d="M19.75,23h-4.5l-0.3-0.4c-0.035-0.046-0.854-1.148-1.398-2.783C13.016,18.209,13,17.119,13,17v-1h9v1
	c0,0.119-0.016,1.209-0.552,2.816c-0.545,1.635-1.363,2.737-1.398,2.783L19.75,23z M16.289,21h2.422
	c0.232-0.386,0.577-1.025,0.841-1.816c0.15-0.452,0.25-0.853,0.316-1.184h-4.736c0.066,0.331,0.166,0.731,0.316,1.184
	C15.712,19.975,16.056,20.614,16.289,21z"/>
<rect x="16.5" y="6.5" style="fill:#333333;" width="2" height="10.5"/>
<path style="fill:#333333;" d="M19.221,7.5h-3.441l-1.667-5h6.775L19.221,7.5z M17.221,5.5h0.559l0.333-1h-1.225L17.221,5.5z"/>
<path style="fill:#333333;" d="M11.5,7h-7V2h7V7z M6.5,5h3V4h-3V5z"/>
</svg>






