<?xml version="1.0" encoding="iso-8859-1"?>
<svg version="1.1" id="&#x56FE;&#x5C42;_1" xmlns="http://www.w3.org/2000/svg" xmlns:xlink="http://www.w3.org/1999/xlink" x="0px"
	 y="0px" viewBox="0 0 24 24" style="enable-background:new 0 0 24 24;" xml:space="preserve">
<path style="fill:#333333;" d="M12.5,17c-3.152,0-6.37-2.615-7.316-3.95l-0.707-0.997l1.117-0.495
	c0.391-0.175,2.133-1.431,2.546-2.124C8.675,8.536,9.65,8,10.75,8c0.649,0,1.256,0.187,1.753,0.525
	c0.441-0.295,0.971-0.475,1.548-0.513c1.146-0.071,2.267,0.413,2.981,1.31c1.103,1.383,2.075,2.104,2.373,2.236l1.171,0.519
	l-0.788,1.011C19.072,14.005,16.431,17,12.5,17z M7.535,12.682C8.685,13.745,10.699,15,12.5,15c2.266,0,4.018-1.349,4.997-2.336
	c-0.586-0.477-1.29-1.169-2.029-2.095c-0.302-0.379-0.789-0.596-1.283-0.561c-0.217,0.015-0.612,0.092-0.826,0.451l-0.86,1.439
	l-0.857-1.441c-0.34-0.571-1.441-0.571-1.781,0C9.407,11.216,8.376,12.082,7.535,12.682z"/>
<path style="fill:#333333;" d="M12.335,13.998c-2.962,0-5.333-0.279-6.53-0.518l0.391-1.961c1.906,0.379,7.006,0.866,12.651-0.007
	l0.307,1.977C16.728,13.863,14.389,13.998,12.335,13.998z"/>
<path style="fill:#333333;" d="M12,23C5.935,23,1,18.065,1,12S5.935,1,12,1v2c-4.962,0-9,4.038-9,9c0,4.963,4.038,9,9,9
	c4.963,0,9-4.037,9-9h2C23,18.065,18.065,23,12,23z"/>
<polygon style="fill:#333333;" points="19.639,6.427 19.5,6.327 19.361,6.427 18.912,6.101 19.009,5.969 18.731,5.768 18.635,5.899 
	18.186,5.573 18.239,5.41 18.1,5.309 18.271,4.781 18.427,4.831 18.533,4.505 18.377,4.455 18.549,3.926 18.721,3.926 18.773,3.764 
	19.328,3.764 19.328,3.926 19.672,3.926 19.672,3.764 20.227,3.764 20.279,3.926 20.451,3.926 20.623,4.455 20.467,4.505 
	20.573,4.831 20.729,4.781 20.9,5.309 20.761,5.41 20.814,5.573 20.365,5.899 20.269,5.768 19.991,5.969 20.088,6.101 "/>
<path style="fill:#333333;" d="M17.464,15.313L16.3,13.687c0.476-0.34,0.877-0.699,1.197-1.021
	c-0.223-0.182-0.455-0.389-0.691-0.617l1.389-1.439c0.624,0.603,1.065,0.884,1.211,0.949l1.171,0.52l-0.787,1.01
	C19.417,13.562,18.621,14.485,17.464,15.313z"/>
<path style="fill:#333333;" d="M8.512,15.827c-1.555-0.869-2.792-2.021-3.328-2.777l-0.707-0.997l1.117-0.495
	c0.189-0.084,1.05-0.646,1.789-1.304l1.33,1.493c-0.372,0.332-0.786,0.657-1.17,0.932c0.481,0.443,1.148,0.957,1.944,1.402
	L8.512,15.827z"/>
</svg>






