<?xml version="1.0" encoding="iso-8859-1"?>
<svg version="1.1" id="&#x56FE;&#x5C42;_1" xmlns="http://www.w3.org/2000/svg" xmlns:xlink="http://www.w3.org/1999/xlink" x="0px"
	 y="0px" viewBox="0 0 24 24" style="enable-background:new 0 0 24 24;" xml:space="preserve">
<path style="fill:#333333;" d="M16.889,11.146l-3.535-3.535l6.364-6.365l1.414,1.415c1.169,1.169,1.169,3.073,0,4.242L16.889,11.146
	z M16.182,7.611l0.707,0.707l2.829-2.829c0.39-0.39,0.39-1.024,0-1.414L16.182,7.611z"/>
<path style="fill:#333333;" d="M11.939,17.51l-4.95-4.949l7.071-7.071l4.949,4.95L11.939,17.51z M9.818,12.561l2.122,2.121
	l4.242-4.242l-2.121-2.122L9.818,12.561z"/>
<path style="fill:#333333;" d="M7.697,23.167l-6.364-6.363l6.364-6.364l6.364,6.364L7.697,23.167z M4.161,16.804l3.536,3.535
	l3.536-3.535l-3.536-3.536L4.161,16.804z"/>
</svg>






