<?xml version="1.0" encoding="iso-8859-1"?>
<svg version="1.1" id="&#x56FE;&#x5C42;_1" xmlns="http://www.w3.org/2000/svg" xmlns:xlink="http://www.w3.org/1999/xlink" x="0px"
	 y="0px" viewBox="0 0 24 24" style="enable-background:new 0 0 24 24;" xml:space="preserve">
<path style="fill:#333333;" d="M11.5,17.027L2.95,7.155L3.706,5.5h15.588l0.756,1.655L11.5,17.027z M5.895,7.5l5.605,6.473
	L17.105,7.5H5.895z"/>
<rect x="10.5" y="16" style="fill:#333333;" width="2" height="5"/>
<rect x="8.5" y="21" style="fill:#333333;" width="6" height="2"/>
<rect x="8" y="10.5" style="fill:#333333;" width="7" height="2"/>
<path style="fill:#333333;" d="M19,10h-1.5V8H19c1.103,0,2-0.897,2-2s-0.897-2-2-2s-2,0.897-2,2c0,0.116,0.01,0.229,0.028,0.34
	l-1.975,0.32C15.02,6.445,15,6.225,15,6c0-2.206,1.794-4,4-4s4,1.794,4,4S21.206,10,19,10z"/>
<rect x="6.634" y="7.776" transform="matrix(0.7559 -0.6547 0.6547 0.7559 -5.3618 7.6917)" style="fill:#333333;" width="2" height="6.519"/>
<rect x="11.946" y="10.109" transform="matrix(0.6545 -0.7561 0.7561 0.6545 -3.112 15.4084)" style="fill:#333333;" width="6.713" height="2"/>
</svg>






