<?xml version="1.0" encoding="iso-8859-1"?>
<svg version="1.1" id="&#x56FE;&#x5C42;_1" xmlns="http://www.w3.org/2000/svg" xmlns:xlink="http://www.w3.org/1999/xlink" x="0px"
	 y="0px" viewBox="0 0 24 24" style="enable-background:new 0 0 24 24;" xml:space="preserve">
<path style="fill:#333333;" d="M4,22c-1.654,0-3-1.346-3-3s1.346-3,3-3s3,1.346,3,3S5.654,22,4,22z M4,18c-0.551,0-1,0.448-1,1
	s0.449,1,1,1s1-0.448,1-1S4.551,18,4,18z"/>
<circle style="fill:#333333;" cx="4" cy="5" r="2"/>
<circle style="fill:#333333;" cx="4" cy="12" r="2"/>
<rect x="10" y="11" style="fill:#333333;" width="12" height="2"/>
<rect x="10" y="18" style="fill:#333333;" width="12" height="2"/>
<rect x="10" y="4" style="fill:#333333;" width="12" height="2"/>
</svg>






