<?xml version="1.0" encoding="iso-8859-1"?>
<svg version="1.1" id="&#x56FE;&#x5C42;_1" xmlns="http://www.w3.org/2000/svg" xmlns:xlink="http://www.w3.org/1999/xlink" x="0px"
	 y="0px" viewBox="0 0 24 24" style="enable-background:new 0 0 24 24;" xml:space="preserve">
<path style="fill:#333333;" d="M20.5,22h-17C2.122,22,1,20.879,1,19.5v-15C1,3.122,2.122,2,3.5,2h17C21.879,2,23,3.122,23,4.5v15
	C23,20.879,21.879,22,20.5,22z M3.5,4C3.224,4,3,4.224,3,4.5v15C3,19.775,3.224,20,3.5,20h17c0.275,0,0.5-0.225,0.5-0.5v-15
	C21,4.224,20.775,4,20.5,4H3.5z"/>
<rect x="2" y="6" style="fill:#333333;" width="20" height="2"/>
<rect x="10" y="11" style="fill:#333333;" width="8" height="2"/>
<rect x="10" y="15" style="fill:#333333;" width="8" height="2"/>
<rect x="6" y="11" style="fill:#333333;" width="1" height="2"/>
<rect x="6" y="15" style="fill:#333333;" width="1" height="2"/>
</svg>






