<?xml version="1.0" encoding="iso-8859-1"?>
<svg version="1.1" id="&#x56FE;&#x5C42;_1" xmlns="http://www.w3.org/2000/svg" xmlns:xlink="http://www.w3.org/1999/xlink" x="0px"
	 y="0px" viewBox="0 0 24 24" style="enable-background:new 0 0 24 24;" xml:space="preserve">
<rect x="10" y="3.5" style="fill:#333333;" width="11" height="2"/>
<rect x="10" y="8.5" style="fill:#333333;" width="11" height="2"/>
<rect x="10" y="13.5" style="fill:#333333;" width="11" height="2"/>
<rect x="10" y="18.5" style="fill:#333333;" width="11" height="2"/>
<polygon style="fill:#333333;" points="6,20.5 3,20.5 2.143,18.985 4.234,15.5 3,15.5 3,13.5 6,13.5 6.857,15.015 4.766,18.5 
	6,18.5 "/>
<path style="fill:none;" d="M5.5,4.5l-2,0L3.15,8h2.7L5.5,4.5z"/>
<path style="fill:#333333;" d="M5.005,9.6L4.945,9h-0.89l-0.06,0.6L2.005,9.4l0.15-1.5L3.15,8L2.155,7.9l0.44-4.4h3.81l0.44,4.4
	L5.85,8l0.995-0.1l0.15,1.5L5.005,9.6z M4.255,7h0.49l-0.15-1.5h-0.19L4.255,7z"/>
</svg>






