<?xml version="1.0" encoding="iso-8859-1"?>
<svg version="1.1" id="&#x56FE;&#x5C42;_1" xmlns="http://www.w3.org/2000/svg" xmlns:xlink="http://www.w3.org/1999/xlink" x="0px"
	 y="0px" viewBox="0 0 24 24" style="enable-background:new 0 0 24 24;" xml:space="preserve">
<path style="fill:#333333;" d="M4.5,22c-1.654,0-3-1.346-3-3s1.346-3,3-3s3,1.346,3,3S6.154,22,4.5,22z M4.5,18
	c-0.551,0-1,0.448-1,1s0.449,1,1,1s1-0.448,1-1S5.051,18,4.5,18z"/>
<path style="fill:#333333;" d="M4.5,8c-1.654,0-3-1.346-3-3s1.346-3,3-3s3,1.346,3,3S6.154,8,4.5,8z M4.5,4c-0.551,0-1,0.449-1,1
	s0.449,1,1,1s1-0.449,1-1S5.051,4,4.5,4z"/>
<path style="fill:#333333;" d="M4.5,15c-1.654,0-3-1.346-3-3s1.346-3,3-3s3,1.346,3,3S6.154,15,4.5,15z M4.5,11
	c-0.551,0-1,0.449-1,1c0,0.552,0.449,1,1,1s1-0.448,1-1C5.5,11.449,5.051,11,4.5,11z"/>
<rect x="10.5" y="11" style="fill:#333333;" width="11" height="2"/>
<rect x="10.5" y="18" style="fill:#333333;" width="11" height="2"/>
<rect x="10.5" y="4" style="fill:#333333;" width="11" height="2"/>
</svg>






