<?xml version="1.0" encoding="iso-8859-1"?>
<svg version="1.1" id="&#x56FE;&#x5C42;_1" xmlns="http://www.w3.org/2000/svg" xmlns:xlink="http://www.w3.org/1999/xlink" x="0px"
	 y="0px" viewBox="0 0 24 24" style="enable-background:new 0 0 24 24;" xml:space="preserve">
<path style="fill:#333333;" d="M4,15c-1.654,0-3-1.346-3-3s1.346-3,3-3s3,1.346,3,3S5.654,15,4,15z M4,11c-0.551,0-1,0.449-1,1
	c0,0.552,0.449,1,1,1s1-0.448,1-1C5,11.449,4.551,11,4,11z"/>
<circle style="fill:#333333;" cx="4" cy="5" r="2"/>
<circle style="fill:#333333;" cx="4" cy="19" r="2"/>
<rect x="10" y="11" style="fill:#333333;" width="12" height="2"/>
<rect x="10" y="18" style="fill:#333333;" width="12" height="2"/>
<rect x="10" y="4" style="fill:#333333;" width="12" height="2"/>
</svg>






