<?xml version="1.0" encoding="iso-8859-1"?>
<svg version="1.1" id="&#x56FE;&#x5C42;_1" xmlns="http://www.w3.org/2000/svg" xmlns:xlink="http://www.w3.org/1999/xlink" x="0px"
	 y="0px" viewBox="0 0 24 24" style="enable-background:new 0 0 24 24;" xml:space="preserve">
<rect x="10" y="4" style="fill:#333333;" width="12" height="2"/>
<rect x="10" y="11" style="fill:#333333;" width="12" height="2"/>
<rect x="10" y="18" style="fill:#333333;" width="12" height="2"/>
<path style="fill:#333333;" d="M4,15c-1.654,0-3-1.346-3-3s1.346-3,3-3s3,1.346,3,3S5.654,15,4,15z M4,11c-0.551,0-1,0.449-1,1
	c0,0.552,0.449,1,1,1s1-0.448,1-1C5,11.449,4.551,11,4,11z"/>
<path style="fill:#333333;" d="M4,22c-1.654,0-3-1.346-3-3s1.346-3,3-3s3,1.346,3,3S5.654,22,4,22z M4,18c-0.551,0-1,0.448-1,1
	s0.449,1,1,1s1-0.448,1-1S4.551,18,4,18z"/>
<polygon style="fill:#333333;" points="3.5,7.914 1.293,5.707 2.707,4.293 3.5,5.086 5.793,2.793 7.207,4.207 "/>
</svg>






