<?xml version="1.0" encoding="iso-8859-1"?>
<svg version="1.1" id="&#x56FE;&#x5C42;_1" xmlns="http://www.w3.org/2000/svg" xmlns:xlink="http://www.w3.org/1999/xlink" x="0px"
	 y="0px" viewBox="0 0 24 24" style="enable-background:new 0 0 24 24;" xml:space="preserve">
<path style="fill:#333333;" d="M12,23C5.935,23,1,18.065,1,12S5.935,1,12,1s11,4.935,11,11S18.065,23,12,23z M12,3
	c-4.962,0-9,4.038-9,9c0,4.963,4.038,9,9,9c4.963,0,9-4.037,9-9C21,7.038,16.963,3,12,3z"/>
<rect x="11" y="6" style="fill:#333333;" width="2" height="1.5"/>
<rect x="14.962" y="7.288" transform="matrix(0.7071 -0.7071 0.7071 0.7071 -1.2583 13.5374)" style="fill:#333333;" width="1.5" height="2"/>
<rect x="16.5" y="11" style="fill:#333333;" width="1.5" height="2"/>
<rect x="14.712" y="14.962" transform="matrix(0.7071 -0.7071 0.7071 0.7071 -6.5081 15.7119)" style="fill:#333333;" width="2" height="1.5"/>
<rect x="11" y="16.5" style="fill:#333333;" width="2" height="1.5"/>
<rect x="7.538" y="14.712" transform="matrix(0.7071 -0.7071 0.7071 0.7071 -8.6826 10.4621)" style="fill:#333333;" width="1.5" height="2"/>
<rect x="6" y="11" style="fill:#333333;" width="1.5" height="2"/>
<rect x="7.288" y="7.538" transform="matrix(0.7071 -0.7071 0.7071 0.7071 -3.4328 8.2876)" style="fill:#333333;" width="2" height="1.5"/>
</svg>






