<?xml version="1.0" encoding="iso-8859-1"?>
<svg version="1.1" id="&#x56FE;&#x5C42;_1" xmlns="http://www.w3.org/2000/svg" xmlns:xlink="http://www.w3.org/1999/xlink" x="0px"
	 y="0px" viewBox="0 0 24 24" style="enable-background:new 0 0 24 24;" xml:space="preserve">
<path style="fill:#333333;" d="M12,23C5.935,23,1,18.065,1,12h2c0,4.963,4.038,9,9,9c4.963,0,9-4.037,9-9c0-4.962-4.037-9-9-9V1
	c6.065,0,11,4.935,11,11S18.065,23,12,23z"/>
<path style="fill:#333333;" d="M12,19c-3.86,0-7-3.141-7-7c0-3.86,3.14-7,7-7c3.859,0,7,3.14,7,7h-2c0-2.757-2.243-5-5-5
	s-5,2.243-5,5s2.243,5,5,5V19z"/>
</svg>






