<?xml version="1.0" encoding="iso-8859-1"?>
<svg version="1.1" id="&#x56FE;&#x5C42;_1" xmlns="http://www.w3.org/2000/svg" xmlns:xlink="http://www.w3.org/1999/xlink" x="0px"
	 y="0px" viewBox="0 0 24 24" style="enable-background:new 0 0 24 24;" xml:space="preserve">
<path style="fill:#333333;" d="M12,23.28l-0.625-0.499C11.054,22.523,3.5,16.401,3.5,9.5C3.5,4.813,7.313,1,12,1
	c4.687,0,8.5,3.813,8.5,8.5c0,6.901-7.554,13.023-7.875,13.281L12,23.28z M12,3C8.416,3,5.5,5.916,5.5,9.5
	c0,4.877,4.762,9.612,6.5,11.179c1.738-1.566,6.5-6.302,6.5-11.179C18.5,5.916,15.584,3,12,3z"/>
<path style="fill:#333333;" d="M12,13.5c-2.206,0-4-1.794-4-4s1.794-4,4-4c2.206,0,4,1.794,4,4S14.206,13.5,12,13.5z M12,7.5
	c-1.103,0-2,0.897-2,2s0.897,2,2,2c1.103,0,2-0.897,2-2S13.103,7.5,12,7.5z"/>
</svg>






