<?xml version="1.0" encoding="iso-8859-1"?>
<svg version="1.1" id="&#x56FE;&#x5C42;_1" xmlns="http://www.w3.org/2000/svg" xmlns:xlink="http://www.w3.org/1999/xlink" x="0px"
	 y="0px" viewBox="0 0 24 24" style="enable-background:new 0 0 24 24;" xml:space="preserve">
<path style="fill:#333333;" d="M12,11c-2.757,0-5-2.243-5-5s2.243-5,5-5s5,2.243,5,5S14.757,11,12,11z M12,3c-1.654,0-3,1.346-3,3
	s1.346,3,3,3s3-1.346,3-3S13.654,3,12,3z"/>
<rect x="11" y="10" style="fill:#333333;" width="2" height="9"/>
<polygon style="fill:#333333;" points="22,23 2,23 1.168,21.445 5.465,15 8,15 8,17 6.535,17 3.869,21 20.132,21 17.465,17 16,17 
	16,15 18.535,15 22.832,21.445 "/>
</svg>






