<?xml version="1.0" encoding="iso-8859-1"?>
<svg version="1.1" id="&#x56FE;&#x5C42;_1" xmlns="http://www.w3.org/2000/svg" xmlns:xlink="http://www.w3.org/1999/xlink" x="0px"
	 y="0px" viewBox="0 0 24 24" style="enable-background:new 0 0 24 24;" xml:space="preserve">
<path style="fill:#333333;" d="M12,22.5c-5.298,0-11-1.252-11-4c0-1.318,1.225-2.354,3.641-3.079l0.575,1.916
	c-1.685,0.505-2.178,1.033-2.218,1.179C3.151,19.04,6.149,20.5,12,20.5c5.851,0,8.85-1.46,9.002-2.015
	c-0.04-0.115-0.533-0.644-2.218-1.148l0.574-1.916C21.774,16.146,23,17.182,23,18.5C23,21.248,17.298,22.5,12,22.5z"/>
<path style="fill:#333333;" d="M12,18.694l-0.547-0.357C11.169,18.151,4.5,13.731,4.5,8.341C4.5,4.293,7.864,1,12,1
	s7.5,3.293,7.5,7.341c0,5.391-6.669,9.811-6.953,9.996L12,18.694z M12,3C8.967,3,6.5,5.396,6.5,8.341
	c0,3.536,4.01,6.832,5.499,7.934c1.489-1.104,5.501-4.408,5.501-7.934C17.5,5.396,15.032,3,12,3z"/>
<path style="fill:#333333;" d="M12,12c-1.93,0-3.5-1.57-3.5-3.5S10.07,5,12,5s3.5,1.57,3.5,3.5S13.93,12,12,12z M12,7
	c-0.827,0-1.5,0.673-1.5,1.5S11.173,10,12,10s1.5-0.673,1.5-1.5S12.827,7,12,7z"/>
</svg>






