<?xml version="1.0" encoding="iso-8859-1"?>
<svg version="1.1" id="&#x56FE;&#x5C42;_1" xmlns="http://www.w3.org/2000/svg" xmlns:xlink="http://www.w3.org/1999/xlink" x="0px"
	 y="0px" viewBox="0 0 24 24" style="enable-background:new 0 0 24 24;" xml:space="preserve">
<path style="fill:#333333;" d="M22,13c0-0.552-0.448-1-1-1s-1,0.448-1,1H22z M12,4c0.552,0,1-0.448,1-1s-0.448-1-1-1V4z M19.5,20
	h-15v2h15V20z M4,19.5v-15H2v15H4z M20,13v6.5h2V13H20z M4.5,4H12V2H4.5V4z M4.5,20C4.224,20,4,19.776,4,19.5H2
	C2,20.881,3.119,22,4.5,22V20z M19.5,22c1.381,0,2.5-1.119,2.5-2.5h-2c0,0.276-0.224,0.5-0.5,0.5V22z M4,4.5C4,4.224,4.224,4,4.5,4
	V2C3.119,2,2,3.119,2,4.5H4z"/>
<path style="fill:#333333;" d="M15.35,18.76l-6.328-5.423l-5.346,4.9l-1.352-1.475l5.347-4.901c0.745-0.682,1.886-0.7,2.653-0.043
	l6.327,5.423L15.35,18.76z"/>
<path style="fill:#333333;" d="M20.4,16.3l-3.306-2.479l-2.388,2.387l-1.414-1.414l2.387-2.387c0.7-0.7,1.824-0.779,2.614-0.186
	L21.6,14.7L20.4,16.3z"/>
<path style="fill:#333333;" d="M19.5,11h-3C15.121,11,14,9.878,14,8.5v-1C14,6.122,15.121,5,16.5,5h3C20.879,5,22,6.122,22,7.5v1
	C22,9.878,20.879,11,19.5,11z M16.5,7C16.225,7,16,7.224,16,7.5v1C16,8.776,16.225,9,16.5,9h3C19.775,9,20,8.776,20,8.5v-1
	C20,7.224,19.775,7,19.5,7H16.5z"/>
<path style="fill:none;" d="M18,3c0.828,0,1.5,0.672,1.5,1.5V6h-3V4.5C16.5,3.672,17.172,3,18,3z"/>
<path style="fill:#333333;" d="M19.5,6v1c0.552,0,1-0.448,1-1H19.5z M16.5,6h-1c0,0.552,0.448,1,1,1V6z M18.5,4.5V6h2V4.5H18.5z
	 M19.5,5h-3v2h3V5z M17.5,6V4.5h-2V6H17.5z M17.5,4.5C17.5,4.224,17.724,4,18,4V2c-1.381,0-2.5,1.119-2.5,2.5H17.5z M20.5,4.5
	C20.5,3.119,19.381,2,18,2v2c0.276,0,0.5,0.224,0.5,0.5H20.5z"/>
</svg>






