<?xml version="1.0" encoding="iso-8859-1"?>
<svg version="1.1" id="&#x56FE;&#x5C42;_1" xmlns="http://www.w3.org/2000/svg" xmlns:xlink="http://www.w3.org/1999/xlink" x="0px"
	 y="0px" viewBox="0 0 24 24" style="enable-background:new 0 0 24 24;" xml:space="preserve">
<path style="fill:#333333;" d="M19.5,18h-15C3.122,18,2,16.879,2,15.5v-11C2,3.122,3.122,2,4.5,2H12v2H4.5C4.224,4,4,4.224,4,4.5v11
	C4,15.775,4.224,16,4.5,16h15c0.275,0,0.5-0.225,0.5-0.5v-2h2v2C22,16.879,20.879,18,19.5,18z"/>
<rect x="11" y="17" style="fill:#333333;" width="2" height="4"/>
<path style="fill:#333333;" d="M19.5,11h-3C15.121,11,14,9.878,14,8.5v-1C14,6.122,15.121,5,16.5,5h3C20.879,5,22,6.122,22,7.5v1
	C22,9.878,20.879,11,19.5,11z M16.5,7C16.225,7,16,7.224,16,7.5v1C16,8.776,16.225,9,16.5,9h3C19.775,9,20,8.776,20,8.5v-1
	C20,7.224,19.775,7,19.5,7H16.5z"/>
<path style="fill:#333333;" d="M20.5,7h-5V4.5C15.5,3.122,16.621,2,18,2s2.5,1.122,2.5,2.5V7z M17.5,5h1V4.5
	C18.5,4.224,18.275,4,18,4s-0.5,0.224-0.5,0.5V5z"/>
<rect x="7" y="20" style="fill:#333333;" width="10" height="2"/>
</svg>






