<?xml version="1.0" encoding="iso-8859-1"?>
<svg version="1.1" id="&#x56FE;&#x5C42;_1" xmlns="http://www.w3.org/2000/svg" xmlns:xlink="http://www.w3.org/1999/xlink" x="0px"
	 y="0px" viewBox="0 0 24 24" style="enable-background:new 0 0 24 24;" xml:space="preserve">
<path style="fill:#333333;" d="M12,21H3.5C2.122,21,1,19.879,1,18.5v-13C1,4.122,2.122,3,3.5,3h17C21.879,3,23,4.122,23,5.5v6.029
	h-2V5.5C21,5.224,20.775,5,20.5,5h-17C3.224,5,3,5.224,3,5.5v13C3,18.775,3.224,19,3.5,19H12V21z"/>
<path style="fill:#333333;" d="M23,11H1V5.5C1,4.122,2.122,3,3.5,3h17C21.879,3,23,4.122,23,5.5V11z M3,9h18V5.5
	C21,5.224,20.775,5,20.5,5h-17C3.224,5,3,5.224,3,5.5V9z"/>
<path style="fill:#333333;" d="M20.5,21.5h-3c-1.379,0-2.5-1.121-2.5-2.5v-1c0-1.379,1.121-2.5,2.5-2.5h3c1.379,0,2.5,1.121,2.5,2.5
	v1C23,20.379,21.879,21.5,20.5,21.5z M17.5,17.5c-0.275,0-0.5,0.225-0.5,0.5v1c0,0.275,0.225,0.5,0.5,0.5h3
	c0.275,0,0.5-0.225,0.5-0.5v-1c0-0.275-0.225-0.5-0.5-0.5H17.5z"/>
<path style="fill:#333333;" d="M21.5,17.5h-5V15c0-1.379,1.121-2.5,2.5-2.5s2.5,1.121,2.5,2.5V17.5z M18.5,15.5h1V15
	c0-0.275-0.225-0.5-0.5-0.5s-0.5,0.225-0.5,0.5V15.5z"/>
<circle style="fill:#333333;" cx="5" cy="7" r="1"/>
<circle style="fill:#333333;" cx="8" cy="7" r="1"/>
</svg>






