<?xml version="1.0" encoding="iso-8859-1"?>
<svg version="1.1" id="&#x56FE;&#x5C42;_1" xmlns="http://www.w3.org/2000/svg" xmlns:xlink="http://www.w3.org/1999/xlink" x="0px"
	 y="0px" viewBox="0 0 24 24" style="enable-background:new 0 0 24 24;" xml:space="preserve">
<path style="fill:#333333;" d="M13,20c-0.143,0-0.286-0.003-0.424-0.014c-2.221-0.096-4.343-1.028-5.939-2.625
	c-0.86-0.859-1.525-1.861-1.978-2.979C4.222,13.309,4,12.169,4,10.999S4.222,8.69,4.66,7.613c0.452-1.116,1.117-2.117,1.977-2.977
	C7.498,3.776,8.5,3.111,9.615,2.659c2.152-0.875,4.617-0.876,6.771,0c1.116,0.452,2.118,1.117,2.978,1.977
	c1.001,0.999,1.734,2.183,2.178,3.519c0.422,1.27,0.557,2.646,0.389,3.979c-0.077,0.598-0.21,1.178-0.395,1.728
	c-0.585,1.726-1.392,2.901-2.788,4.063l-0.001,0.001C17.137,19.264,15.096,20,13,20z M13,4c-0.91,0-1.796,0.172-2.633,0.512
	C9.5,4.864,8.721,5.381,8.051,6.051C7.381,6.72,6.864,7.499,6.513,8.365C6.172,9.203,6,10.088,6,10.999s0.172,1.796,0.512,2.632
	c0.352,0.868,0.869,1.647,1.539,2.316c1.242,1.241,2.892,1.967,4.646,2.043C12.819,17.999,12.91,18,13,18
	c1.63,0,3.216-0.572,4.468-1.612l0,0c1.116-0.93,1.705-1.787,2.172-3.166c0.143-0.424,0.246-0.876,0.306-1.341
	c0.131-1.035,0.026-2.106-0.303-3.095c-0.344-1.037-0.914-1.957-1.692-2.734c-0.67-0.67-1.449-1.188-2.315-1.539
	C14.797,4.172,13.91,4,13,4z"/>
<path style="fill:#333333;" d="M11.951,17c-0.153,0-0.306-0.005-0.464-0.015c-1.295-0.089-2.957-0.334-4.361-1.453
	c-1.216-0.97-2.108-2.259-2.579-3.727l1.904-0.61c0.35,1.091,1.014,2.05,1.921,2.773c0.768,0.613,1.739,0.918,3.247,1.021
	c1.221,0.082,2.389-0.304,3.312-1.106c0.92-0.8,1.474-1.908,1.56-3.121c0.064-0.939-0.239-1.846-0.856-2.553
	c-0.618-0.711-1.475-1.138-2.412-1.203c-0.557-0.042-1.082,0.094-1.53,0.352c0.391-0.17,0.819-0.252,1.281-0.22
	c0.818,0.056,1.566,0.429,2.106,1.05c0.539,0.623,0.804,1.416,0.744,2.233c-0.063,0.928-0.487,1.779-1.193,2.392
	c-0.706,0.612-1.603,0.927-2.54,0.848c-1.071-0.074-2.051-0.562-2.758-1.375c-0.708-0.813-1.055-1.852-0.98-2.924
	c0.18-2.579,2.438-4.535,5.008-4.352c1.471,0.102,2.813,0.771,3.782,1.884c0.967,1.108,1.444,2.531,1.343,4.005
	c-0.124,1.746-0.92,3.341-2.242,4.49C15.054,16.429,13.528,17,11.951,17z M10.345,9.695c0.011,0.47,0.184,0.918,0.498,1.279
	c0.356,0.41,0.85,0.656,1.389,0.693c0.395,0.026,0.786-0.101,1.089-0.363c0.302-0.262,0.482-0.625,0.51-1.023
	c0.021-0.291-0.069-0.561-0.261-0.782c-0.19-0.219-0.443-0.345-0.732-0.365c-0.397-0.017-0.758,0.277-0.787,0.681L10.345,9.695z"/>
<rect x="2.084" y="18.121" transform="matrix(0.6863 -0.7273 0.7273 0.6863 -12.3386 9.6345)" style="fill:#333333;" width="5.831" height="2.001"/>
</svg>






