<?xml version="1.0" encoding="iso-8859-1"?>
<svg version="1.1" id="&#x56FE;&#x5C42;_1" xmlns="http://www.w3.org/2000/svg" xmlns:xlink="http://www.w3.org/1999/xlink" x="0px"
	 y="0px" viewBox="0 0 24 24" style="enable-background:new 0 0 24 24;" xml:space="preserve">
<path style="fill:#333333;" d="M15,19.5H8c-3.86,0-7-3.141-7-7c0-3.86,3.14-7,7-7h14v2H8c-2.757,0-5,2.243-5,5s2.243,5,5,5h7
	c1.846,0,3.562-0.832,4.709-2.281c0.434-0.548,0.764-1.158,0.983-1.815c0.102-0.306,0.18-0.624,0.232-0.948l1.975,0.32
	c-0.07,0.431-0.175,0.854-0.311,1.262c-0.292,0.877-0.733,1.692-1.312,2.423C19.749,18.392,17.461,19.5,15,19.5z"/>
<polygon style="fill:#333333;" points="19.707,10.207 18.293,8.793 20.586,6.5 18.293,4.207 19.707,2.793 23.414,6.5 "/>
</svg>






