<?xml version="1.0" encoding="iso-8859-1"?>
<svg version="1.1" id="&#x56FE;&#x5C42;_1" xmlns="http://www.w3.org/2000/svg" xmlns:xlink="http://www.w3.org/1999/xlink" x="0px"
	 y="0px" viewBox="0 0 24 24" style="enable-background:new 0 0 24 24;" xml:space="preserve">
<path style="fill:#333333;" d="M13.507,8.117c-0.152-1.297-0.997-2.716-1.628-3.618c-1.12,1.361-1.346,3.185-1.383,3.593
	L8.504,7.909c0.058-0.63,0.468-3.866,2.891-5.705l0.766-0.581l0.61,0.742c0.567,0.688,2.439,3.121,2.722,5.519L13.507,8.117z"/>
<path style="fill:#333333;" d="M12.773,22.169l-1.067-0.184c-2.511-0.432-6.006-2.093-8.286-5.462
	c-2.41-3.561-3.028-8.181-1.839-13.733l0.212-0.992l0.989,0.227c4.005,0.917,11.269,6.081,10.089,19.065L12.773,22.169z
	 M3.329,4.284c-0.779,4.515-0.192,8.251,1.748,11.12c1.614,2.386,3.937,3.757,5.886,4.352C11.467,10.011,6.687,5.591,3.329,4.284z"
	/>
<path style="fill:#333333;" d="M11.226,22.169l-0.098-1.078C9.949,8.106,17.212,2.942,21.218,2.025l0.988-0.227l0.212,0.992
	c1.189,5.552,0.57,10.172-1.839,13.733c-2.279,3.369-5.774,5.03-8.286,5.462L11.226,22.169z M20.671,4.284
	c-3.357,1.307-8.137,5.728-7.634,15.471c1.949-0.595,4.271-1.966,5.886-4.352C20.863,12.535,21.449,8.798,20.671,4.284z"/>
</svg>






