<?xml version="1.0" encoding="iso-8859-1"?>
<svg version="1.1" id="&#x56FE;&#x5C42;_1" xmlns="http://www.w3.org/2000/svg" xmlns:xlink="http://www.w3.org/1999/xlink" x="0px"
	 y="0px" viewBox="0 0 24 24" style="enable-background:new 0 0 24 24;" xml:space="preserve">
<path style="fill:#333333;" d="M12,23C5.935,23,1,18.065,1,12S5.935,1,12,1s11,4.935,11,11S18.065,23,12,23z M12,3
	c-4.962,0-9,4.038-9,9c0,4.963,4.038,9,9,9c4.963,0,9-4.037,9-9C21,7.038,16.963,3,12,3z"/>
<path style="fill:#333333;" d="M17.118,17.5H6.882l0.724-1.447C7.658,15.948,8.917,13.5,12,13.5c3.083,0,4.343,2.448,4.395,2.553
	L17.118,17.5z"/>
<rect x="14.75" y="6.982" transform="matrix(0.1414 -0.9899 0.9899 0.1414 4.8606 23.1043)" style="fill:#333333;" width="2" height="3.536"/>
<rect x="15.5" y="9" style="fill:#333333;" width="2" height="4.5"/>
<rect x="6.482" y="7.75" transform="matrix(0.9899 -0.1416 0.1416 0.9899 -1.1561 1.2566)" style="fill:#333333;" width="3.536" height="2"/>
<rect x="6.5" y="9" style="fill:#333333;" width="2" height="4.5"/>
</svg>






