<?xml version="1.0" encoding="iso-8859-1"?>
<svg version="1.1" id="&#x56FE;&#x5C42;_1" xmlns="http://www.w3.org/2000/svg" xmlns:xlink="http://www.w3.org/1999/xlink" x="0px"
	 y="0px" viewBox="0 0 24 24" style="enable-background:new 0 0 24 24;" xml:space="preserve">
<path style="fill:#333333;" d="M12,21.717l-0.315-0.104C7.85,20.338,1,15.033,1,9c0-3.584,2.916-6.5,6.5-6.5
	c1.69,0,3.3,0.661,4.5,1.81c1.199-1.149,2.81-1.81,4.5-1.81C20.084,2.5,23,5.416,23,9c0,6.033-6.85,11.338-10.685,12.612L12,21.717z
	 M7.5,4.5C5.019,4.5,3,6.519,3,9c0,4.771,5.763,9.357,9,10.601c3.237-1.243,9-5.83,9-10.601c0-2.481-2.019-4.5-4.5-4.5
	c-1.463,0-2.839,0.715-3.683,1.913L12,7.574l-0.818-1.162C10.339,5.215,8.963,4.5,7.5,4.5z"/>
<rect x="9" y="11" style="fill:#333333;" width="6" height="2"/>
<rect x="11" y="9" style="fill:#333333;" width="2" height="6"/>
</svg>






