<?xml version="1.0" encoding="iso-8859-1"?>
<svg version="1.1" id="&#x56FE;&#x5C42;_1" xmlns="http://www.w3.org/2000/svg" xmlns:xlink="http://www.w3.org/1999/xlink" x="0px"
	 y="0px" viewBox="0 0 24 24" style="enable-background:new 0 0 24 24;" xml:space="preserve">
<path style="fill:#333333;" d="M4,11.504L2,11.5c0-1.168,1.268-3.617,4.324-4.264c2.266-0.479,4.371-2.528,4.827-3.263l1.699,1.055
	C12.135,6.18,9.607,8.585,6.738,9.193C4.747,9.614,4.018,11.133,4,11.504z"/>
<path style="fill:#333333;" d="M22,11.508l-2-0.016l1,0.008l-1-0.003c-0.017-0.369-0.745-1.883-2.737-2.304
	c-2.87-0.607-5.397-3.013-6.112-4.166l1.699-1.055c0.456,0.734,2.561,2.784,4.827,3.263C20.75,7.887,22.009,10.339,22,11.508z"/>
<circle style="fill:#333333;" cx="12" cy="4.5" r="2"/>
<rect x="11" y="4.5" style="fill:#333333;" width="2" height="7"/>
<rect x="2.5" y="15.5" style="fill:#333333;" width="3" height="2"/>
<rect x="2.5" y="19.5" style="fill:#333333;" width="3" height="2"/>
<rect x="18.5" y="15.5" style="fill:#333333;" width="3" height="2"/>
<rect x="18.5" y="19.5" style="fill:#333333;" width="3" height="2"/>
<rect x="10.5" y="15.5" style="fill:#333333;" width="3" height="2"/>
<rect x="10.5" y="19.5" style="fill:#333333;" width="3" height="2"/>
</svg>






