<?xml version="1.0" encoding="iso-8859-1"?>
<svg version="1.1" id="&#x56FE;&#x5C42;_1" xmlns="http://www.w3.org/2000/svg" xmlns:xlink="http://www.w3.org/1999/xlink" x="0px"
	 y="0px" viewBox="0 0 24 24" style="enable-background:new 0 0 24 24;" xml:space="preserve">
<path style="fill:#333333;" d="M19,21H5c-1.103,0-2-0.897-2-2V8c0-1.103,0.897-2,2-2h14c1.103,0,2,0.897,2,2v11
	C21,20.103,20.103,21,19,21z M5,8H4.999L5,19h14V8H5z"/>
<rect x="9" y="11.5" style="fill:#333333;" width="2" height="4"/>
<rect x="6.5" y="20" style="fill:#333333;" width="2" height="2"/>
<rect x="15.5" y="20" style="fill:#333333;" width="2" height="2"/>
<rect x="13" y="11.5" style="fill:#333333;" width="2" height="4"/>
<rect x="9.5" y="1" style="fill:#333333;" width="5" height="2"/>
<rect x="11" y="2" style="fill:#333333;" width="2" height="5"/>
</svg>






