<?xml version="1.0" encoding="iso-8859-1"?>
<svg version="1.1" id="&#x56FE;&#x5C42;_1" xmlns="http://www.w3.org/2000/svg" xmlns:xlink="http://www.w3.org/1999/xlink" x="0px"
	 y="0px" viewBox="0 0 24 24" style="enable-background:new 0 0 24 24;" xml:space="preserve">
<path style="fill:#333333;" d="M12,23c-2.262,0-4.434-0.682-6.282-1.97l0,0c-1.076-0.75-2.001-1.675-2.749-2.749l0,0
	C1.681,16.433,1,14.261,1,12C1,5.935,5.935,1,12,1s11,4.935,11,11S18.065,23,12,23z M7.899,20.015C9.161,20.662,10.558,21,12,21
	c4.963,0,9-4.037,9-9c0-4.962-4.037-9-9-9c-4.962,0-9,4.038-9,9c0,1.441,0.338,2.838,0.985,4.1L10,10.086L13.914,14l-2.707,2.707
	L10.5,16l0.707,0.707L7.899,20.015z M6.29,20.21L6.29,20.21z M5.116,17.798c0.331,0.393,0.693,0.755,1.086,1.086L9.086,16L8,14.914
	L5.116,17.798z M3.79,17.71L3.79,17.71z M9.414,13.5l1.086,1.086L11.086,14L10,12.914L9.414,13.5z"/>
<rect x="8.5" y="6" style="fill:#333333;" width="2" height="2"/>
<polygon style="fill:#333333;" points="16.5,10 14.5,10 14.5,9.5 14,9.5 14,7.5 14.5,7.5 14.5,7 16.5,7 16.5,7.5 17,7.5 17,9.5 
	16.5,9.5 "/>
<rect x="16" y="13.5" style="fill:#333333;" width="2" height="2"/>
</svg>






