<?xml version="1.0" encoding="iso-8859-1"?>
<svg version="1.1" id="&#x56FE;&#x5C42;_1" xmlns="http://www.w3.org/2000/svg" xmlns:xlink="http://www.w3.org/1999/xlink" x="0px"
	 y="0px" viewBox="0 0 24 24" style="enable-background:new 0 0 24 24;" xml:space="preserve">
<path style="fill:#333333;" d="M12,22.5c-7.75,0-10.5-2.963-10.5-5.5c0-2.288,2.139-3.495,3.494-4.137
	c-0.018-1.057-0.08-2.645-0.234-3.722C4.622,8.175,4.486,7.536,4.343,6.86c-0.11-0.518-0.22-1.036-0.33-1.696l1.973-0.329
	C6.091,5.462,6.195,5.954,6.3,6.446c0.144,0.678,0.292,1.379,0.44,2.413C6.946,10.297,7,12.523,7,13.5v0.64l-0.753,0.348
	C5.287,14.925,3.5,15.741,3.5,17c0,1.407,2.264,3.5,8.5,3.5s8.5-2.093,8.5-3.5c0-0.914-1.727-2.081-2.894-2.581L17,14.159V13.5
	c0-0.115,0.003-2.842,0.26-4.642c0.147-1.033,0.297-1.734,0.44-2.413c0.104-0.492,0.209-0.984,0.313-1.61l1.973,0.329
	c-0.11,0.66-0.22,1.178-0.329,1.696c-0.144,0.676-0.279,1.314-0.417,2.281c-0.167,1.167-0.218,2.836-0.233,3.732
	C20.174,13.48,22.5,14.946,22.5,17C22.5,19.537,19.75,22.5,12,22.5z"/>
<path style="fill:#333333;" d="M11.75,18.5v-2c5.25,0,5.25-1.594,5.25-3h2C19,17.005,16.832,18.5,11.75,18.5z"/>
<path style="fill:#333333;" d="M12,8.5C8.147,8.5,4,7.405,4,5s4.147-3.5,8-3.5c3.854,0,8,1.095,8,3.5S15.854,8.5,12,8.5z M12,3.5
	c-3.844,0-5.878,1.1-6.002,1.518C6.122,5.4,8.156,6.5,12,6.5c3.845,0,5.878-1.1,6.002-1.518C17.878,4.6,15.845,3.5,12,3.5z"/>
</svg>






