<?xml version="1.0" encoding="iso-8859-1"?>
<svg version="1.1" id="&#x56FE;&#x5C42;_1" xmlns="http://www.w3.org/2000/svg" xmlns:xlink="http://www.w3.org/1999/xlink" x="0px"
	 y="0px" viewBox="0 0 24 24" style="enable-background:new 0 0 24 24;" xml:space="preserve">
<path style="fill:#333333;" d="M16,16h-2v-3h2V16z M19.243,14.657l-2.122-2.121l1.414-1.415l2.122,2.122L19.243,14.657z
	 M10.757,14.657l-1.414-1.414l2.122-2.122l1.414,1.415L10.757,14.657z M22,10h-3V8h3V10z M11,10H8V8h3V10z M18.535,6.878
	l-1.414-1.414l2.122-2.121l1.414,1.414L18.535,6.878z M11.465,6.878L9.343,4.757l1.414-1.414l2.122,2.121L11.465,6.878z M16,5h-2V2
	h2V5z"/>
<rect x="0.283" y="14.217" transform="matrix(0.7071 -0.7071 0.7071 0.7071 -8.1879 10.6672)" style="fill:#333333;" width="17" height="2"/>
</svg>






