<?xml version="1.0" encoding="iso-8859-1"?>
<svg version="1.1" id="&#x56FE;&#x5C42;_1" xmlns="http://www.w3.org/2000/svg" xmlns:xlink="http://www.w3.org/1999/xlink" x="0px"
	 y="0px" viewBox="0 0 24 24" style="enable-background:new 0 0 24 24;" xml:space="preserve">
<path style="fill:#333333;" d="M12,23C6.486,23,2,18.514,2,13V5h2v8c0,4.411,3.589,8,8,8s8-3.589,8-8V5h2v8
	C22,18.514,17.514,23,12,23z M12,19c-3.309,0-6-2.691-6-6V5h2v8c0,2.206,1.794,4,4,4c2.206,0,4-1.794,4-4V5h2v8
	C18,16.309,15.309,19,12,19z"/>
<path style="fill:#333333;" d="M8,6H2V1h6V6z M4,4h2V3H4V4z"/>
<path style="fill:#333333;" d="M22,6h-6V1h6V6z M18,4h2V3h-2V4z"/>
</svg>






