<?xml version="1.0" encoding="iso-8859-1"?>
<svg version="1.1" id="&#x56FE;&#x5C42;_1" xmlns="http://www.w3.org/2000/svg" xmlns:xlink="http://www.w3.org/1999/xlink" x="0px"
	 y="0px" viewBox="0 0 24 24" style="enable-background:new 0 0 24 24;" xml:space="preserve">
<path style="fill:#333333;" d="M21,22H3c-1.103,0-2-0.938-2-2.091V9l1.625-0.781L12,15.72l9.375-7.5L23,9v10.909
	C23,21.062,22.103,22,21,22z M3,11.081v8.829c0,0.062,0.027,0.095,0.034,0.1L20.993,20C20.979,19.997,21,19.965,21,19.909v-8.829
	l-9,7.2L3,11.081z"/>
<polygon style="fill:#333333;" points="21.433,9.715 12,3.214 2.567,9.715 1.433,8.069 12,0.786 22.567,8.069 "/>
<path style="fill:#333333;" d="M12,18.28l-6-4.8V8h12v5.48L12,18.28z M8,12.52l4,3.2l4-3.2V10H8V12.52z"/>
</svg>






