<?xml version="1.0" encoding="iso-8859-1"?>
<svg version="1.1" id="&#x56FE;&#x5C42;_1" xmlns="http://www.w3.org/2000/svg" xmlns:xlink="http://www.w3.org/1999/xlink" x="0px"
	 y="0px" viewBox="0 0 24 24" style="enable-background:new 0 0 24 24;" xml:space="preserve">
<path style="fill:#333333;" d="M21,22.5H3c-1.103,0-2-0.938-2-2.091V12l1.545-0.838L12,17.308l9.455-6.146L23,12v8.409
	C23,21.562,22.103,22.5,21,22.5z M3,13.843v6.566c0,0.062,0.027,0.095,0.034,0.1L20.993,20.5C20.979,20.497,21,20.465,21,20.409
	v-6.566l-9,5.85L3,13.843z"/>
<path style="fill:#333333;" d="M21.433,12.716l-5-3.446l1.135-1.646l5,3.446L21.433,12.716z M2.567,12.716l-1.135-1.647l5-3.446
	L7.567,9.27L2.567,12.716z"/>
<path style="fill:#333333;" d="M12.001,19.308c-0.38,0-0.76-0.108-1.091-0.324l-4-2.599C6.34,16.014,6,15.387,6,14.707V1.5h12
	v13.207c0,0.68-0.34,1.308-0.91,1.678l-4,2.6C12.76,19.199,12.38,19.308,12.001,19.308z M8,3.5v11.207l4,2.6l4-2.6V3.5H8z"/>
<rect x="10" y="5.5" style="fill:#333333;" width="2" height="2"/>
<rect x="10" y="8.5" style="fill:#333333;" width="4" height="2"/>
</svg>






