<?xml version="1.0" encoding="iso-8859-1"?>
<svg version="1.1" id="&#x56FE;&#x5C42;_1" xmlns="http://www.w3.org/2000/svg" xmlns:xlink="http://www.w3.org/1999/xlink" x="0px"
	 y="0px" viewBox="0 0 24 24" style="enable-background:new 0 0 24 24;" xml:space="preserve">
<path style="fill:#333333;" d="M12,23C5.935,23,1,18.065,1,12S5.935,1,12,1v2c-4.962,0-9,4.038-9,9c0,4.963,4.038,9,9,9
	c4.963,0,9-4.037,9-9h2C23,18.065,18.065,23,12,23z"/>
<polygon style="fill:#333333;" points="18.552,6.574 18.217,6.331 18.364,6.129 18.206,6.129 18.158,5.979 18.011,6.181 
	17.676,5.938 17.773,5.64 17.52,5.456 17.647,5.062 17.885,5.14 17.836,4.991 17.883,4.957 17.882,4.957 17.964,4.897 17.726,4.819 
	17.854,4.426 18.167,4.426 18.264,4.129 18.677,4.129 18.677,4.378 18.804,4.286 18.933,4.379 18.933,4.129 19.346,4.129 
	19.442,4.426 19.756,4.426 19.884,4.819 19.646,4.896 19.774,4.99 19.726,5.14 19.963,5.062 20.091,5.456 19.838,5.64 19.935,5.938 
	19.601,6.181 19.453,5.978 19.422,6.075 19.421,6.074 19.403,6.129 19.246,6.129 19.394,6.331 19.06,6.574 18.806,6.39 "/>
<path style="fill:#333333;" d="M12,18.5c-3.577,0-4.842-2.448-4.895-2.553l1.782-0.907C8.92,15.1,9.702,16.5,12,16.5
	c2.299,0,3.08-1.4,3.112-1.46l1.782,0.907C16.843,16.052,15.577,18.5,12,18.5z"/>
<path style="fill:#333333;" d="M8.5,13.5C7.122,13.5,6,12.379,6,11c0-1.378,1.122-2.5,2.5-2.5S11,9.622,11,11
	C11,12.379,9.878,13.5,8.5,13.5z M8.5,10.5C8.224,10.5,8,10.724,8,11s0.224,0.5,0.5,0.5S9,11.276,9,11S8.776,10.5,8.5,10.5z"/>
<path style="fill:#333333;" d="M15.5,13.5c-1.379,0-2.5-1.121-2.5-2.5c0-1.378,1.121-2.5,2.5-2.5S18,9.622,18,11
	C18,12.379,16.879,13.5,15.5,13.5z M15.5,10.5c-0.275,0-0.5,0.224-0.5,0.5s0.225,0.5,0.5,0.5S16,11.276,16,11S15.775,10.5,15.5,10.5
	z"/>
</svg>






