<?xml version="1.0" encoding="iso-8859-1"?>
<svg version="1.1" id="&#x56FE;&#x5C42;_1" xmlns="http://www.w3.org/2000/svg" xmlns:xlink="http://www.w3.org/1999/xlink" x="0px"
	 y="0px" viewBox="0 0 24 24" style="enable-background:new 0 0 24 24;" xml:space="preserve">
<polygon style="fill:#333333;" points="21.976,7.524 19.976,7.524 19.976,4.024 16.476,4.024 16.476,2.024 21.976,2.024 "/>
<path style="fill:#333333;" d="M10.156,22.051c-2.137,0-4.146-0.832-5.657-2.344l0,0c-3.119-3.119-3.119-8.194,0-11.313
	s8.195-3.119,11.314,0c1.511,1.511,2.343,3.52,2.343,5.657s-0.832,4.146-2.343,5.656C14.302,21.219,12.293,22.051,10.156,22.051z
	 M10.156,8.054c-1.537,0-3.073,0.584-4.243,1.754c-2.339,2.339-2.339,6.146,0,8.485l0,0c1.133,1.134,2.64,1.758,4.243,1.758
	s3.109-0.624,4.243-1.758c1.133-1.133,1.757-2.64,1.757-4.242s-0.624-3.109-1.757-4.243C13.229,8.639,11.693,8.054,10.156,8.054z"/>
<rect x="13.97" y="5.512" transform="matrix(0.7071 -0.7071 0.7071 0.7071 0.5172 14.2731)" style="fill:#333333;" width="7.037" height="2"/>
</svg>






