<?xml version="1.0" encoding="iso-8859-1"?>
<svg version="1.1" id="&#x56FE;&#x5C42;_1" xmlns="http://www.w3.org/2000/svg" xmlns:xlink="http://www.w3.org/1999/xlink" x="0px"
	 y="0px" viewBox="0 0 24 24" style="enable-background:new 0 0 24 24;" xml:space="preserve">
<path style="fill:#333333;" d="M20,22.5H4c-1.103,0-2-0.897-2-2V5.3h20v15.2C22,21.603,21.103,22.5,20,22.5z M4,7.3v13.2h16V7.3H4z"
	/>
<polygon style="fill:#333333;" points="3.802,6.897 2.198,5.702 5.332,1.5 18.669,1.5 21.802,5.702 20.198,6.897 17.665,3.5 
	6.335,3.5 "/>
<path style="fill:#333333;" d="M12,14.4c-2.634,0-4.778-2.153-4.778-4.8h2c0,1.544,1.246,2.8,2.778,2.8
	c1.531,0,2.777-1.256,2.777-2.8h2C16.777,12.247,14.634,14.4,12,14.4z"/>
</svg>






