<?xml version="1.0" encoding="iso-8859-1"?>
<svg version="1.1" id="&#x56FE;&#x5C42;_1" xmlns="http://www.w3.org/2000/svg" xmlns:xlink="http://www.w3.org/1999/xlink" x="0px"
	 y="0px" viewBox="0 0 24 24" style="enable-background:new 0 0 24 24;" xml:space="preserve">
<path style="fill:#333333;" d="M21,21.5H3c-1.103,0-2-0.897-2-2v-15c0-1.103,0.897-2,2-2h18c1.103,0,2,0.897,2,2v15
	C23,20.603,22.103,21.5,21,21.5z M3,4.5v15h18v-15H3z"/>
<polygon style="fill:#333333;" points="18.168,15.555 16,12.303 16,15 14,15 14,9 15.832,8.445 18,11.697 18,9 20,9 20,15 "/>
<polygon style="fill:#333333;" points="8.168,15.555 6,12.303 6,15 4,15 4,9 5.832,8.445 8,11.697 8,9 10,9 10,15 "/>
<rect x="11" y="10" style="fill:#333333;" width="2" height="0.5"/>
<rect x="11" y="13.5" style="fill:#333333;" width="2" height="0.5"/>
</svg>






