<?xml version="1.0" encoding="iso-8859-1"?>
<svg version="1.1" id="&#x56FE;&#x5C42;_1" xmlns="http://www.w3.org/2000/svg" xmlns:xlink="http://www.w3.org/1999/xlink" x="0px"
	 y="0px" viewBox="0 0 24 24" style="enable-background:new 0 0 24 24;" xml:space="preserve">
<path style="fill:#333333;" d="M19.65,22H4.35C3.054,22,2,20.946,2,19.65V4.35C2,3.054,3.054,2,4.35,2h15.3
	C20.946,2,22,3.054,22,4.35v15.3C22,20.946,20.946,22,19.65,22z M4.35,4C4.157,4,4,4.157,4,4.35v15.3C4,19.843,4.157,20,4.35,20
	h15.3c0.192,0,0.35-0.157,0.35-0.35V4.35C20,4.157,19.843,4,19.65,4H4.35z"/>
<rect x="14.346" y="13.25" transform="matrix(0.9192 -0.3937 0.3937 0.9192 -4.2977 7.5481)" style="fill:#333333;" width="3.808" height="1.999"/>
<rect x="6.846" y="16.25" transform="matrix(0.9191 -0.3941 0.3941 0.9191 -6.09 4.8444)" style="fill:#333333;" width="3.808" height="2"/>
<path style="fill:#333333;" d="M8,16.259l-0.823-1.19C5.69,12.917,5.5,12.031,5.5,11.5C5.5,10.122,6.622,9,8,9s2.5,1.122,2.5,2.5
	c0,0.531-0.19,1.417-1.677,3.568L8,16.259z M8,11c-0.276,0-0.5,0.224-0.5,0.5c0.001,0.039,0.028,0.323,0.5,1.146
	c0.472-0.822,0.499-1.107,0.5-1.147C8.5,11.224,8.276,11,8,11z"/>
<path style="fill:#333333;" d="M16,12.76l-0.823-1.191C13.69,9.416,13.5,8.531,13.5,8c0-1.378,1.121-2.5,2.5-2.5s2.5,1.122,2.5,2.5
	c0,0.531-0.19,1.416-1.677,3.568L16,12.76z M16,7.5c-0.275,0-0.5,0.224-0.5,0.5c0.001,0.039,0.028,0.323,0.5,1.146
	c0.472-0.822,0.499-1.107,0.5-1.147C16.5,7.724,16.275,7.5,16,7.5z"/>
</svg>






