<?xml version="1.0" encoding="iso-8859-1"?>
<svg version="1.1" id="&#x56FE;&#x5C42;_1" xmlns="http://www.w3.org/2000/svg" xmlns:xlink="http://www.w3.org/1999/xlink" x="0px"
	 y="0px" viewBox="0 0 24 24" style="enable-background:new 0 0 24 24;" xml:space="preserve">
<path style="fill:#333333;" d="M21,23H3c-1.103,0-2-0.897-2-2V3c0-1.103,0.897-2,2-2h18c1.103,0,2,0.897,2,2v18
	C23,22.103,22.103,23,21,23z M3,3v18h18V3H3z"/>
<rect x="4.567" y="7.5" transform="matrix(0.9417 -0.3364 0.3364 0.9417 -2.1599 4.5317)" style="fill:#333333;" width="14.866" height="2"/>
<path style="fill:#333333;" d="M5.336,15.441l-0.672-1.883l0.942-0.336l0.672,1.883L5.336,15.441z M9.103,14.096l-0.672-1.883
	l0.941-0.336l0.672,1.883L9.103,14.096z M12.87,12.751l-0.672-1.884l0.941-0.336l0.672,1.884L12.87,12.751z M16.638,11.406
	l-0.674-1.884l0.941-0.336l0.674,1.884L16.638,11.406z"/>
<rect x="4.567" y="14.5" transform="matrix(0.9417 -0.3365 0.3365 0.9417 -4.5162 4.9423)" style="fill:#333333;" width="14.866" height="1.999"/>
<rect x="6.25" y="5.364" transform="matrix(0.9363 -0.3511 0.3511 0.9363 -2.1718 3.0232)" style="fill:#333333;" width="2" height="4.272"/>
<rect x="16.75" y="13.864" transform="matrix(0.9363 -0.3511 0.3511 0.9363 -4.4878 7.2512)" style="fill:#333333;" width="2.001" height="4.272"/>
</svg>






