<?xml version="1.0" encoding="iso-8859-1"?>
<svg version="1.1" id="&#x56FE;&#x5C42;_1" xmlns="http://www.w3.org/2000/svg" xmlns:xlink="http://www.w3.org/1999/xlink" x="0px"
	 y="0px" viewBox="0 0 24 24" style="enable-background:new 0 0 24 24;" xml:space="preserve">
<path style="fill:#333333;" d="M23,22.562l-7.515-3.468l-7,3L1,18.64V1.437l7.515,3.469l7-3L23,5.36V22.562z M3,17.36l5.515,2.545
	l7-3L21,19.438V6.64l-5.515-2.545l-7,3L3,4.563V17.36z"/>
<rect x="14.5" y="3" style="fill:#333333;" width="2" height="15"/>
<rect x="7.5" y="6" style="fill:#333333;" width="2" height="15"/>
<polygon style="fill:#333333;" points="8.485,7.094 4.831,5.408 5.669,3.592 8.515,4.906 15.515,1.906 19.169,3.592 18.331,5.408 
	15.485,4.094 "/>
<polygon style="fill:#333333;" points="8.485,22.095 4.831,20.408 5.669,18.592 8.515,19.905 15.515,16.905 19.169,18.592 
	18.331,20.408 15.485,19.095 "/>
</svg>






