<?xml version="1.0" encoding="iso-8859-1"?>
<svg version="1.1" id="&#x56FE;&#x5C42;_1" xmlns="http://www.w3.org/2000/svg" xmlns:xlink="http://www.w3.org/1999/xlink" x="0px"
	 y="0px" viewBox="0 0 24 24" style="enable-background:new 0 0 24 24;" xml:space="preserve">
<path style="fill:#333333;" d="M23,11H1V5.5C1,4.122,2.122,3,3.5,3h17C21.879,3,23,4.122,23,5.5V11z M3,9h18V5.5
	C21,5.224,20.775,5,20.5,5h-17C3.224,5,3,5.224,3,5.5V9z"/>
<polygon style="fill:#333333;" points="2.767,20.218 1.345,18.812 8.125,11.962 11.464,15.159 15.492,11.64 18.394,14.468 
	16.997,15.899 15.418,14.36 11.403,17.87 8.163,14.767 "/>
<path style="fill:#333333;" d="M20.5,21H6v-2h14.5c0.275,0,0.5-0.225,0.5-0.5V9h2v9.5C23,19.879,21.879,21,20.5,21z"/>
<rect x="9.556" y="6" style="fill:#333333;" width="9" height="2"/>
<rect x="5.555" y="6" style="fill:#333333;" width="1" height="2"/>
<rect x="1" y="9" style="fill:#333333;" width="2" height="4.5"/>
</svg>






