<?xml version="1.0" encoding="iso-8859-1"?>
<svg version="1.1" id="&#x56FE;&#x5C42;_1" xmlns="http://www.w3.org/2000/svg" xmlns:xlink="http://www.w3.org/1999/xlink" x="0px"
	 y="0px" viewBox="0 0 24 24" style="enable-background:new 0 0 24 24;" xml:space="preserve">
<path style="fill:#333333;" d="M15.5,21h-7C4.364,21,1,17.636,1,13.5V12c0-3.309,2.691-6,6-6h10c3.309,0,6,2.691,6,6v1.5
	C23,17.636,19.636,21,15.5,21z M7,8c-2.206,0-4,1.794-4,4v1.5C3,16.532,5.467,19,8.5,19h7c3.032,0,5.5-2.468,5.5-5.5V12
	c0-2.206-1.794-4-4-4H7z"/>
<rect x="9" y="12.5" style="fill:#333333;" width="6" height="2"/>
<rect x="11" y="10.5" style="fill:#333333;" width="2" height="6"/>
<path style="fill:#333333;" d="M3,12.521H1V6.007c0-1.701,1.383-3.084,3.084-3.084c0.797,0,1.553,0.303,2.13,0.854
	C7.119,4.64,7.777,5.605,8.17,6.646L6.3,7.354C6.013,6.596,5.52,5.879,4.833,5.223c-0.203-0.193-0.469-0.3-0.749-0.3
	C3.486,4.923,3,5.409,3,6.007V12.521z"/>
<path style="fill:#333333;" d="M23,12.521h-2V6.383c0-0.683-0.556-1.239-1.239-1.239c-0.383,0-0.738,0.173-0.975,0.474
	c-0.513,0.653-1.004,1.308-1.473,1.964l-1.627-1.163c0.486-0.68,0.995-1.358,1.527-2.036c0.618-0.787,1.547-1.238,2.547-1.238
	C21.547,3.144,23,4.597,23,6.383V12.521z"/>
</svg>






