<?xml version="1.0" encoding="iso-8859-1"?>
<svg version="1.1" id="&#x56FE;&#x5C42;_1" xmlns="http://www.w3.org/2000/svg" xmlns:xlink="http://www.w3.org/1999/xlink" x="0px"
	 y="0px" viewBox="0 0 24 24" style="enable-background:new 0 0 24 24;" xml:space="preserve">
<path style="fill:#333333;" d="M12,23C5.935,23,1,18.065,1,12S5.935,1,12,1s11,4.935,11,11S18.065,23,12,23z M12,3
	c-4.962,0-9,4.038-9,9c0,4.963,4.038,9,9,9c4.963,0,9-4.037,9-9C21,7.038,16.963,3,12,3z"/>
<path style="fill:#333333;" d="M15.15,22.307C10.874,20.71,8,16.567,8,12s2.874-8.709,7.15-10.307l0.699,1.873
	C12.351,4.874,10,8.263,10,12c0,3.737,2.351,7.127,5.85,8.434L15.15,22.307z"/>
<rect x="7.995" y="6.75" transform="matrix(0.8254 -0.5646 0.5646 0.8254 -1.9744 9.1163)" style="fill:#333333;" width="11.511" height="2"/>
<rect x="8.343" y="9.75" transform="matrix(0.8261 -0.5635 0.5635 0.8261 -3.4493 10.3208)" style="fill:#333333;" width="13.314" height="2"/>
<rect x="9.798" y="12.75" transform="matrix(0.8137 -0.5812 0.5812 0.8137 -4.9652 12.0063)" style="fill:#333333;" width="12.903" height="2"/>
<rect x="12.048" y="15.999" transform="matrix(0.8169 -0.5768 0.5768 0.8169 -6.6469 13.0627)" style="fill:#333333;" width="10.404" height="2.001"/>
</svg>






