<?xml version="1.0" encoding="iso-8859-1"?>
<svg version="1.1" id="&#x56FE;&#x5C42;_1" xmlns="http://www.w3.org/2000/svg" xmlns:xlink="http://www.w3.org/1999/xlink" x="0px"
	 y="0px" viewBox="0 0 24 24" style="enable-background:new 0 0 24 24;" xml:space="preserve">
<path style="fill:#333333;" d="M12,23c-1.339,0-2.64-0.286-3.864-0.851c-1.219-0.562-2.311-1.372-3.243-2.409l1.486-1.338
	c0.75,0.834,1.623,1.483,2.594,1.931c1.92,0.885,4.133,0.886,6.053,0c0.972-0.447,1.844-1.097,2.595-1.931l1.486,1.338
	c-0.934,1.037-2.024,1.848-3.243,2.409C14.64,22.714,13.339,23,12,23z M2.747,16.177C2.251,14.852,2,13.446,2,12
	c0-1.447,0.251-2.852,0.747-4.178l1.873,0.7C4.208,9.623,4,10.793,4,12c0,1.206,0.208,2.376,0.62,3.478L2.747,16.177z
	 M21.254,16.177l-1.873-0.699C19.792,14.375,20,13.205,20,12s-0.208-2.375-0.619-3.479l1.873-0.698C21.749,9.15,22,10.555,22,12
	C22,13.444,21.749,14.85,21.254,16.177z M17.621,5.598c-0.751-0.833-1.623-1.483-2.595-1.931C14.066,3.225,13.048,3,12,3
	C9.883,3,7.887,3.922,6.379,5.598L4.893,4.26C6.785,2.158,9.309,1,12,1c1.339,0,2.64,0.286,3.864,0.851
	c1.219,0.562,2.31,1.373,3.243,2.409L17.621,5.598z"/>
<path style="fill:#333333;" d="M9,12.5c-1.378,0-2.5-1.122-2.5-2.5S7.622,7.5,9,7.5s2.5,1.122,2.5,2.5S10.378,12.5,9,12.5z M9,9.5
	c-0.276,0-0.5,0.224-0.5,0.5s0.224,0.5,0.5,0.5s0.5-0.224,0.5-0.5S9.276,9.5,9,9.5z"/>
<path style="fill:#333333;" d="M15,12.5c-1.379,0-2.5-1.122-2.5-2.5s1.121-2.5,2.5-2.5s2.5,1.122,2.5,2.5S16.379,12.5,15,12.5z
	 M15,9.5c-0.275,0-0.5,0.224-0.5,0.5s0.225,0.5,0.5,0.5s0.5-0.224,0.5-0.5S15.275,9.5,15,9.5z"/>
<path style="fill:#333333;" d="M12,18.5c-1.995,0-3.5-1.075-3.5-2.5s1.505-2.5,3.5-2.5s3.5,1.075,3.5,2.5S13.995,18.5,12,18.5z
	 M12,15.5c-0.913,0-1.452,0.377-1.503,0.521C10.548,16.123,11.087,16.5,12,16.5c0.913,0,1.452-0.377,1.503-0.521
	C13.452,15.877,12.913,15.5,12,15.5z"/>
</svg>






