<?xml version="1.0" encoding="iso-8859-1"?>
<svg version="1.1" id="&#x56FE;&#x5C42;_1" xmlns="http://www.w3.org/2000/svg" xmlns:xlink="http://www.w3.org/1999/xlink" x="0px"
	 y="0px" viewBox="0 0 24 24" style="enable-background:new 0 0 24 24;" xml:space="preserve">
<path style="fill:#333333;" d="M17.5,14h-2V7.826C15.5,7.068,14.414,6,12,6S8.5,7.068,8.5,7.826V14h-2V7.826C6.5,5.925,8.389,4,12,4
	c3.61,0,5.5,1.925,5.5,3.826V14z"/>
<path style="fill:#333333;" d="M19,18H5v-5h14V18z M7,16h10v-1H7V16z"/>
<rect x="10" y="1" style="fill:#333333;" width="4" height="2"/>
<polygon style="fill:#333333;" points="21,15 3,15 3,8 5,8 5,13 19,13 19,8 21,8 "/>
<rect x="8.5" y="20.5" style="fill:#333333;" width="7" height="2"/>
<rect x="11" y="17" style="fill:#333333;" width="2" height="4.5"/>
<rect x="11" y="2" style="fill:#333333;" width="2" height="3"/>
</svg>






