<?xml version="1.0" encoding="iso-8859-1"?>
<svg version="1.1" id="&#x56FE;&#x5C42;_1" xmlns="http://www.w3.org/2000/svg" xmlns:xlink="http://www.w3.org/1999/xlink" x="0px"
	 y="0px" viewBox="0 0 24 24" style="enable-background:new 0 0 24 24;" xml:space="preserve">
<path style="fill:#333333;" d="M23,12.5H6v-4c0-1.103,0.897-2,2-2h13c1.103,0,2,0.897,2,2V12.5z M8,10.5h13v-2H8V10.5z"/>
<rect x="5.39" y="14" transform="matrix(0.6506 -0.7595 0.7595 0.6506 -7.8974 12.8363)" style="fill:#333333;" width="9.22" height="1.999"/>
<rect x="18.001" y="10.39" transform="matrix(0.7593 -0.6508 0.6508 0.7593 -5.1877 15.9762)" style="fill:#333333;" width="1.999" height="9.22"/>
<rect x="3" y="10.5" style="fill:#333333;" width="4" height="2"/>
<rect x="9.5" y="14.5" style="fill:#333333;" width="10" height="2"/>
<rect x="2" y="6.5" style="fill:#333333;" width="2" height="5"/>
<rect x="6" y="11.5" style="fill:#333333;" width="2" height="8.5"/>
<rect x="21" y="11.5" style="fill:#333333;" width="2" height="8.5"/>
<rect x="2" y="4.919" transform="matrix(0.3162 -0.9487 0.9487 0.3162 -4.1151 7.2906)" style="fill:#333333;" width="2" height="3.162"/>
</svg>






