<?xml version="1.0" encoding="iso-8859-1"?>
<svg version="1.1" id="&#x56FE;&#x5C42;_1" xmlns="http://www.w3.org/2000/svg" xmlns:xlink="http://www.w3.org/1999/xlink" x="0px"
	 y="0px" viewBox="0 0 24 24" style="enable-background:new 0 0 24 24;" xml:space="preserve">
<path style="fill:#333333;" d="M20.5,7.5h-2V4.782c0-0.154-0.006-0.239-0.012-0.282c-0.029,0.004-0.095,0-0.19,0H5.702
	c-0.107,0-0.173,0.004-0.212,0.007C5.507,4.532,5.5,4.617,5.5,4.782V7.5h-2V4.782c0-0.559,0.061-0.878,0.231-1.218
	c0.171-0.339,0.432-0.615,0.754-0.799C4.822,2.572,5.152,2.5,5.702,2.5h12.596c0.549,0,0.879,0.072,1.218,0.265
	c0.323,0.184,0.583,0.459,0.753,0.797C20.438,3.902,20.5,4.231,20.5,4.782V7.5z"/>
<path style="fill:#333333;" d="M22.5,21.5h-21v-15h21V21.5z M3.5,19.5h17v-11h-17V19.5z"/>
<path style="fill-rule:evenodd;clip-rule:evenodd;fill:#333333;" d="M6.5,13C7.328,13,8,12.328,8,11.5S7.328,10,6.5,10
	S5,10.672,5,11.5S5.672,13,6.5,13z"/>
<polygon style="fill:#333333;" points="20.564,20.97 13.124,14.893 10.13,18.385 7.609,16.368 3.525,20.867 2.044,19.523 
	7.391,13.632 9.87,15.615 12.876,12.107 21.83,19.421 "/>
</svg>






