<?xml version="1.0" encoding="iso-8859-1"?>
<svg version="1.1" id="&#x56FE;&#x5C42;_1" xmlns="http://www.w3.org/2000/svg" xmlns:xlink="http://www.w3.org/1999/xlink" x="0px"
	 y="0px" viewBox="0 0 24 24" style="enable-background:new 0 0 24 24;" xml:space="preserve">
<polygon style="fill:#333333;" points="22,23 1,23 1,2 3,2 3,21 22,21 "/>
<path style="fill:#333333;" d="M21.012,19.154C20.034,12.909,17.131,3,13.5,3c-3.63,0-6.534,9.909-7.512,16.154l-1.976-0.309
	C4.297,17.019,6.988,1,13.5,1s9.202,16.019,9.488,17.846L21.012,19.154z"/>
<path style="fill:#333333;" d="M22,3h-1V1h1V3z M18,3h-1V1h1V3z M14,3h-1V1h1V3z M10,3H9V1h1V3z M6,3H5V1h1V3z"/>
</svg>






