<?xml version="1.0" encoding="iso-8859-1"?>
<svg version="1.1" id="&#x56FE;&#x5C42;_1" xmlns="http://www.w3.org/2000/svg" xmlns:xlink="http://www.w3.org/1999/xlink" x="0px"
	 y="0px" viewBox="0 0 24 24" style="enable-background:new 0 0 24 24;" xml:space="preserve">
<path style="fill:#333333;" d="M14.478,23h-4.477c-2.585,0-4.569-1.212-5.585-3.411C3.952,18.588,3.5,17.448,3.5,15.521
	c0-2.28,2.228-4.518,4.499-4.518h1.002V3.5c0-1.378,1.122-2.5,2.5-2.5c0.673,0.001,1.299,0.263,1.77,0.735
	c0.47,0.473,0.729,1.1,0.727,1.767l-0.019,8.195c0.445,0.381,0.773,0.895,0.924,1.48c0.013-0.002,0.021-0.003,0.026-0.005
	c-0.006-0.009,0.086-0.172,0.086-0.647l-0.008-4.523c0-1.381,1.119-2.5,2.495-2.5c0.671,0.001,1.297,0.262,1.768,0.734
	c0.471,0.473,0.729,1.1,0.728,1.767c-0.007,3.749-0.008,6.582-0.004,8.496c0.004,1.953-0.686,3.768-1.894,4.978
	C17.104,22.473,15.853,23,14.478,23z M7.999,13.004c-1.144,0-2.499,1.364-2.499,2.518c0,1.524,0.331,2.363,0.731,3.228
	C6.921,20.243,8.189,21,10.001,21h4.477c0.832,0,1.595-0.324,2.206-0.937c0.836-0.837,1.312-2.135,1.31-3.562
	c-0.004-1.916-0.003-4.75,0.004-8.504c0-0.178-0.09-0.296-0.145-0.35c-0.054-0.055-0.171-0.146-0.35-0.146
	c-0.274,0-0.496,0.222-0.496,0.495l0.008,4.528c0,1.068-0.312,1.835-0.93,2.279c-0.387,0.278-0.848,0.402-1.393,0.372
	c-0.473,0.953-1.457,1.609-2.591,1.609l-1.032,0.086l0.332,0.699l-1.807,0.857l-1.571-3.312l3.997-0.327
	c0.572-0.003,0.972-0.402,0.972-0.894s-0.399-0.892-0.891-0.892H7.999z M11.001,11.004h0.979l0.017-7.506
	c0-0.179-0.09-0.297-0.145-0.352C11.798,3.092,11.681,3,11.502,3c-0.277,0-0.501,0.224-0.501,0.5V11.004z"/>
<path style="fill:#333333;" d="M11.003,12h-2V5.004c0-0.276-0.225-0.501-0.501-0.502c0,0-0.001,0-0.001,0
	C8.226,4.502,8.003,4.726,8.003,5v7h-2V5c0-1.377,1.121-2.498,2.498-2.498c1.381,0.002,2.502,1.125,2.502,2.502V12z"/>
<path style="fill:#333333;" d="M17.004,10.01h-2v-0.5c0-0.276-0.225-0.5-0.5-0.5s-0.5,0.224-0.5,0.5v0.5h-2v-0.5
	c0-1.378,1.121-2.5,2.5-2.5s2.5,1.122,2.5,2.5V10.01z"/>
</svg>






