<?xml version="1.0" encoding="iso-8859-1"?>
<svg version="1.1" id="&#x56FE;&#x5C42;_1" xmlns="http://www.w3.org/2000/svg" xmlns:xlink="http://www.w3.org/1999/xlink" x="0px"
	 y="0px" viewBox="0 0 24 24" style="enable-background:new 0 0 24 24;" xml:space="preserve">
<polygon style="fill:#333333;" points="21.903,11 18,11 18,9 20.161,9 20.853,4 18,4 18,2 23.147,2 "/>
<path style="fill:#333333;" d="M17,22H5.5c-1.103,0-2-0.897-2-2V8.25c0-0.168-0.084-0.336-0.231-0.462
	C1.276,6.079,0.516,4.683,0.946,3.521C1.509,2,3.76,2,4.5,2H19v18C19,21.103,18.103,22,17,22z M2.845,4.237
	C2.914,4.487,3.304,5.184,4.57,6.27C5.161,6.775,5.5,7.498,5.5,8.25V20H17V4H4.5C3.411,4,2.984,4.162,2.845,4.237z"/>
<rect x="13" y="6.5" style="fill:#333333;" width="2" height="2"/>
<rect x="13" y="10.5" style="fill:#333333;" width="2" height="2"/>
<rect x="13" y="14.5" style="fill:#333333;" width="2" height="2"/>
</svg>






