<?xml version="1.0" encoding="iso-8859-1"?>
<svg version="1.1" id="&#x56FE;&#x5C42;_1" xmlns="http://www.w3.org/2000/svg" xmlns:xlink="http://www.w3.org/1999/xlink" x="0px"
	 y="0px" viewBox="0 0 24 24" style="enable-background:new 0 0 24 24;" xml:space="preserve">
<path style="fill:#333333;" d="M14.5,8.5h-8c-1.654,0-3-1.346-3-3v-1c0-1.654,1.346-3,3-3h8c1.654,0,3,1.346,3,3v1
	C17.5,7.154,16.154,8.5,14.5,8.5z M6.5,3.5c-0.551,0-1,0.449-1,1v1c0,0.551,0.449,1,1,1h8c0.552,0,1-0.449,1-1v-1
	c0-0.551-0.448-1-1-1H6.5z"/>
<rect x="9.5" y="2.5" style="fill:#333333;" width="2" height="4"/>
<rect x="6.5" y="2.5" style="fill:#333333;" width="2" height="4"/>
<rect x="12.5" y="2.5" style="fill:#333333;" width="2" height="4"/>
<path style="fill:#333333;" d="M13.5,21H4c-1.103,0-2-0.897-2-2V8.5c0-1.103,0.897-2,2-2h13c1.103,0,2,0.897,2,2V13h-2V8.5H4V19h9.5
	V21z"/>
<polygon style="fill:#333333;" points="19,19 16,19 16,16 18,16 18,17 19,17 "/>
<path style="fill:#333333;" d="M17.5,23c-3.032,0-5.5-2.468-5.5-5.5s2.468-5.5,5.5-5.5s5.5,2.468,5.5,5.5S20.532,23,17.5,23z
	 M17.5,14c-1.93,0-3.5,1.57-3.5,3.5s1.57,3.5,3.5,3.5s3.5-1.57,3.5-3.5S19.43,14,17.5,14z"/>
<rect x="6.5" y="1.5" style="fill:#333333;" width="8" height="2"/>
<rect x="6.5" y="6.5" style="fill:#333333;" width="8" height="2"/>
</svg>






