<?xml version="1.0" encoding="iso-8859-1"?>
<svg version="1.1" id="&#x56FE;&#x5C42;_1" xmlns="http://www.w3.org/2000/svg" xmlns:xlink="http://www.w3.org/1999/xlink" x="0px"
	 y="0px" viewBox="0 0 24 24" style="enable-background:new 0 0 24 24;" xml:space="preserve">
<path style="fill:#333333;" d="M20,22H4c-1.378,0-2.5-1.121-2.5-2.5v-10C1.5,8.122,2.622,7,4,7h16c1.379,0,2.5,1.122,2.5,2.5v10
	C22.5,20.879,21.379,22,20,22z M4,9C3.724,9,3.5,9.224,3.5,9.5v10C3.5,19.775,3.724,20,4,20h16c0.275,0,0.5-0.225,0.5-0.5v-10
	C20.5,9.224,20.275,9,20,9H4z"/>
<path style="fill:#333333;" d="M9.5,4h5V2h-5V4z M15,4.5V8h2V4.5H15z M9,8V4.5H7V8H9z M14.5,4C14.776,4,15,4.224,15,4.5h2
	C17,3.119,15.881,2,14.5,2V4z M9.5,2C8.119,2,7,3.119,7,4.5h2C9,4.224,9.224,4,9.5,4V2z"/>
<rect x="9" y="13.5" style="fill:#333333;" width="6" height="2"/>
<rect x="11" y="11.5" style="fill:#333333;" width="2" height="6"/>
</svg>






