<?xml version="1.0" encoding="iso-8859-1"?>
<svg version="1.1" id="&#x56FE;&#x5C42;_1" xmlns="http://www.w3.org/2000/svg" xmlns:xlink="http://www.w3.org/1999/xlink" x="0px"
	 y="0px" viewBox="0 0 24 24" style="enable-background:new 0 0 24 24;" xml:space="preserve">
<path style="fill:#333333;" d="M18.5,19h-9C8.122,19,7,17.879,7,16.5v-9C7,6.122,8.122,5,9.5,5h9C19.879,5,21,6.122,21,7.5v9
	C21,17.879,19.879,19,18.5,19z M9.5,7C9.224,7,9,7.224,9,7.5v9C9,16.775,9.224,17,9.5,17h9c0.275,0,0.5-0.225,0.5-0.5v-9
	C19,7.224,18.775,7,18.5,7H9.5z"/>
<rect x="3" y="2" style="fill:#333333;" width="2" height="20"/>
<rect x="4" y="8.5" style="fill:#333333;" width="4" height="2"/>
<rect x="4" y="13.5" style="fill:#333333;" width="4" height="2"/>
<rect x="11" y="11" style="fill:#333333;" width="6" height="2"/>
<rect x="13" y="9" style="fill:#333333;" width="2" height="6"/>
</svg>






