<?xml version="1.0" encoding="iso-8859-1"?>
<svg version="1.1" id="&#x56FE;&#x5C42;_1" xmlns="http://www.w3.org/2000/svg" xmlns:xlink="http://www.w3.org/1999/xlink" x="0px"
	 y="0px" viewBox="0 0 24 24" style="enable-background:new 0 0 24 24;" xml:space="preserve">
<path style="fill:#333333;" d="M11.5,22h-7c-1.103,0-2-0.897-2-2V4c0-1.103,0.897-2,2-2h14c1.103,0,2,0.897,2,2v5.75h-2V4h-14v16h7
	V22z"/>
<path style="fill:#333333;" d="M16.5,21.688l-0.54-0.347c-0.777-0.499-1.44-1.011-1.972-1.521l-0.133-0.127
	C13.032,18.909,11.5,17.448,11.5,15.6c0-1.709,1.428-3.1,3.182-3.1c0.66,0,1.292,0.198,1.818,0.556
	c0.526-0.357,1.158-0.556,1.818-0.556c1.754,0,3.182,1.391,3.182,3.1c0,1.849-1.532,3.31-2.355,4.094l-0.133,0.127
	c-0.531,0.511-1.194,1.022-1.972,1.521L16.5,21.688z M14.682,14.5c-0.651,0-1.182,0.493-1.182,1.1c0,0.992,1.087,2.027,1.735,2.646
	l0.14,0.133c0.313,0.302,0.69,0.608,1.125,0.916c0.435-0.308,0.812-0.614,1.125-0.916l0.14-0.133
	c0.648-0.619,1.735-1.654,1.735-2.646c0-0.606-0.53-1.1-1.182-1.1c-0.404,0-0.776,0.189-0.996,0.507L16.5,16.198l-0.822-1.191
	C15.458,14.689,15.086,14.5,14.682,14.5z"/>
<rect x="7.5" y="6" style="fill:#333333;" width="8" height="2"/>
</svg>






