<?xml version="1.0" encoding="iso-8859-1"?>
<svg version="1.1" id="&#x56FE;&#x5C42;_1" xmlns="http://www.w3.org/2000/svg" xmlns:xlink="http://www.w3.org/1999/xlink" x="0px"
	 y="0px" viewBox="0 0 24 24" style="enable-background:new 0 0 24 24;" xml:space="preserve">
<path style="fill:#333333;" d="M17,23H7c-1.103,0-2-0.897-2-2V6c0-1.103,0.897-2,2-2h10c1.103,0,2,0.897,2,2v15
	C19,22.103,18.103,23,17,23z M7,6v15h10V6H7z"/>
<rect x="6" y="8" style="fill:#333333;" width="12" height="2"/>
<rect x="5" y="7.5" style="fill:#333333;" width="2" height="3"/>
<rect x="17" y="7.5" style="fill:#333333;" width="2" height="3"/>
<path style="fill:#333333;" d="M17,6H7V1h10V6z M9,4h6V3H9V4z"/>
<rect x="10" y="14.5" style="fill:#333333;" width="4" height="2"/>
<rect x="11" y="13.5" style="fill:#333333;" width="2" height="4"/>
</svg>






