<?xml version="1.0" encoding="iso-8859-1"?>
<svg version="1.1" id="&#x56FE;&#x5C42;_1" xmlns="http://www.w3.org/2000/svg" xmlns:xlink="http://www.w3.org/1999/xlink" x="0px"
	 y="0px" viewBox="0 0 24 24" style="enable-background:new 0 0 24 24;" xml:space="preserve">
<path style="fill:#333333;" d="M16,6H8C6.622,6,5.5,4.878,5.5,3.5S6.622,1,8,1h8c1.379,0,2.5,1.122,2.5,2.5S17.379,6,16,6z M8,3
	C7.724,3,7.5,3.224,7.5,3.5S7.724,4,8,4h8c0.275,0,0.5-0.224,0.5-0.5S16.275,3,16,3H8z"/>
<path style="fill:#333333;" d="M18.5,23h-13C4.122,23,3,21.879,3,20.5v-8.238c0-0.567,0.195-1.123,0.55-1.566l2.22-2.761
	C6.247,7.341,6.957,7,7.719,7h8.562c0.763,0,1.473,0.341,1.949,0.935l2.218,2.76c0.356,0.444,0.552,1,0.552,1.566V20.5
	C21,21.879,19.879,23,18.5,23z M7.719,9C7.567,9,7.425,9.068,7.33,9.187l0,0L5.11,11.948C5.039,12.036,5,12.148,5,12.262V20.5
	C5,20.775,5.224,21,5.5,21h13c0.275,0,0.5-0.225,0.5-0.5v-8.238c0-0.113-0.039-0.225-0.111-0.314l-2.218-2.761
	C16.575,9.068,16.434,9,16.281,9H7.719z"/>
<rect x="9" y="14" style="fill:#333333;" width="6" height="2"/>
<rect x="11" y="12" style="fill:#333333;" width="2" height="6"/>
</svg>






