<?xml version="1.0" encoding="iso-8859-1"?>
<svg version="1.1" id="&#x56FE;&#x5C42;_1" xmlns="http://www.w3.org/2000/svg" xmlns:xlink="http://www.w3.org/1999/xlink" x="0px"
	 y="0px" viewBox="0 0 24 24" style="enable-background:new 0 0 24 24;" xml:space="preserve">
<path style="fill:#333333;" d="M19,23H5c-1.103,0-2-0.897-2-2V3c0-1.103,0.897-2,2-2h10.094c0.524,0,1.021,0.202,1.396,0.568
	l3.905,3.804C20.779,5.747,21,6.269,21,6.805V21C21,22.103,20.103,23,19,23z M5,3v18h14V6.805L15.094,3H5z"/>
<rect x="4" y="9.5" style="fill:#333333;" width="16" height="2"/>
<rect x="15" y="13.5" style="fill:#333333;" width="5" height="2"/>
<rect x="15" y="17" style="fill:#333333;" width="5" height="2"/>
<rect x="14" y="10.5" style="fill:#333333;" width="2" height="11.5"/>
<rect x="8" y="10.5" style="fill:#333333;" width="2" height="11.5"/>
<rect x="4" y="15.5" style="fill:#333333;" width="5" height="2"/>
</svg>






