<?xml version="1.0" encoding="iso-8859-1"?>
<svg version="1.1" id="&#x56FE;&#x5C42;_1" xmlns="http://www.w3.org/2000/svg" xmlns:xlink="http://www.w3.org/1999/xlink" x="0px"
	 y="0px" viewBox="0 0 24 24" style="enable-background:new 0 0 24 24;" xml:space="preserve">
<path style="fill:#333333;" d="M20,21H4c-1.103,0-2-0.897-2-2V9.553c0-0.396,0.116-0.78,0.336-1.109l3.035-4.553
	C5.743,3.333,6.365,3,7.035,3H20c1.103,0,2,0.897,2,2v14C22,20.103,21.103,21,20,21z M7.035,5L4,9.553V19h16.002L20,5H7.035z"/>
<rect x="8" y="4" style="fill:#333333;" width="2" height="4"/>
<rect x="11" y="4" style="fill:#333333;" width="2" height="4"/>
<rect x="14" y="4" style="fill:#333333;" width="2" height="4"/>
<rect x="17" y="4" style="fill:#333333;" width="2" height="4"/>
<path style="fill:#333333;" d="M17.5,21h-11v-8h11V21z M8.5,19h7v-4h-7V19z"/>
</svg>






