<?xml version="1.0" encoding="iso-8859-1"?>
<svg version="1.1" id="&#x56FE;&#x5C42;_1" xmlns="http://www.w3.org/2000/svg" xmlns:xlink="http://www.w3.org/1999/xlink" x="0px"
	 y="0px" viewBox="0 0 24 24" style="enable-background:new 0 0 24 24;" xml:space="preserve">
<path style="fill:#333333;" d="M19.5,22h-15C3.122,22,2,20.879,2,19.5v-15C2,3.122,3.122,2,4.5,2h10.668
	c0.668,0,1.295,0.26,1.768,0.732l4.332,4.332C21.74,7.537,22,8.165,22,8.832V19.5C22,20.879,20.879,22,19.5,22z M4.5,4
	C4.224,4,4,4.224,4,4.5v15C4,19.775,4.224,20,4.5,20h15c0.275,0,0.5-0.225,0.5-0.5V8.832c0-0.134-0.053-0.259-0.147-0.354
	l-4.331-4.331C15.427,4.052,15.302,4,15.168,4H4.5z"/>
<path style="fill:#333333;" d="M18,22H6v-7.5C6,13.121,7.122,12,8.5,12h7c1.379,0,2.5,1.121,2.5,2.5V22z M8,20h8v-5.5
	c0-0.275-0.225-0.5-0.5-0.5h-7C8.224,14,8,14.225,8,14.5V20z"/>
<path style="fill:#333333;" d="M14.5,9h-6C7.122,9,6,7.878,6,6.5V3h2v3.5C8,6.776,8.224,7,8.5,7h6V9z"/>
</svg>






