<?xml version="1.0" encoding="iso-8859-1"?>
<svg version="1.1" id="&#x56FE;&#x5C42;_1" xmlns="http://www.w3.org/2000/svg" xmlns:xlink="http://www.w3.org/1999/xlink" x="0px"
	 y="0px" viewBox="0 0 24 24" style="enable-background:new 0 0 24 24;" xml:space="preserve">
<path style="fill:#333333;" d="M9.778,20.364c-0.535,0-1.037-0.208-1.415-0.586L2,13.414c-0.78-0.779-0.78-2.048,0-2.828
	l5.657-5.657c0.778-0.78,2.049-0.781,2.829,0l6.364,6.364c0.778,0.78,0.778,2.048,0.001,2.827l-5.658,5.658
	C10.814,20.156,10.312,20.364,9.778,20.364z M9.071,6.343l-5.658,5.658l6.365,6.363l5.657-5.657L9.071,6.343z"/>
<path style="fill:#333333;" d="M15.071,19.656c-0.512,0-1.024-0.195-1.414-0.585L8,13.414c-0.78-0.779-0.78-2.048,0-2.828
	l5.657-5.657c0.779-0.78,2.049-0.78,2.828,0l5.656,5.657c0.78,0.78,0.78,2.049,0,2.828l-5.656,5.657
	C16.096,19.461,15.583,19.656,15.071,19.656z M9.414,12L9.414,12l5.657,5.657L20.728,12l-5.656-5.657L9.414,12z"/>
</svg>






