<?xml version="1.0" encoding="iso-8859-1"?>
<svg version="1.1" id="&#x56FE;&#x5C42;_1" xmlns="http://www.w3.org/2000/svg" xmlns:xlink="http://www.w3.org/1999/xlink" x="0px"
	 y="0px" viewBox="0 0 24 24" style="enable-background:new 0 0 24 24;" xml:space="preserve">
<path style="fill:#333333;" d="M19.5,22h-15C3.122,22,2,20.879,2,19.5v-15C2,3.122,3.122,2,4.5,2h15C20.879,2,22,3.122,22,4.5v15
	C22,20.879,20.879,22,19.5,22z M4.5,4C4.224,4,4,4.224,4,4.5v15C4,19.775,4.224,20,4.5,20h15c0.275,0,0.5-0.225,0.5-0.5v-15
	C20,4.224,19.775,4,19.5,4H4.5z"/>
<path style="fill:#333333;" d="M7.871,17.929L6.592,16.58l0.566-1.223c0.122-0.264-0.028-0.63-0.193-0.863
	C6.333,13.603,6,12.566,6,11.5C6,8.467,8.691,6,12,6s6,2.467,6,5.5c0,2.298-1.58,4.374-3.931,5.165C13.404,16.888,12.709,17,12,17
	C10.221,17,7.894,17.919,7.871,17.929z M12,8c-2.206,0-4,1.57-4,3.5c0,0.65,0.207,1.286,0.597,1.838
	c0.462,0.651,0.665,1.386,0.592,2.074C10.049,15.191,11.064,15,12,15c0.492,0,0.974-0.078,1.433-0.231
	C14.968,14.252,16,12.938,16,11.5C16,9.57,14.206,8,12,8z"/>
</svg>






