<?xml version="1.0" encoding="iso-8859-1"?>
<svg version="1.1" id="&#x56FE;&#x5C42;_1" xmlns="http://www.w3.org/2000/svg" xmlns:xlink="http://www.w3.org/1999/xlink" x="0px"
	 y="0px" viewBox="0 0 24 24" style="enable-background:new 0 0 24 24;" xml:space="preserve">
<polygon style="fill:#333333;" points="4.5,22.618 4.5,19.5 1,19.5 1,2.5 23,2.5 23,9 21,9 21,4.5 3,4.5 3,17.5 6.5,17.5 
	6.5,19.382 10.264,17.5 12.75,17.5 12.75,19.5 10.736,19.5 "/>
<path style="fill:#333333;" d="M17,18c-2.206,0-4-1.794-4-4c0-2.206,1.794-4,4-4s4,1.794,4,4C21,16.206,19.206,18,17,18z M17,12
	c-1.103,0-2,0.897-2,2s0.897,2,2,2s2-0.897,2-2S18.103,12,17,12z"/>
<rect x="19.75" y="15.399" transform="matrix(0.6247 -0.7809 0.7809 0.6247 -5.4872 22.5832)" style="fill:#333333;" width="2.001" height="3.202"/>
<rect x="6" y="6.5" style="fill:#333333;" width="3" height="2"/>
<rect x="6" y="9.5" style="fill:#333333;" width="6" height="2"/>
</svg>






