<?xml version="1.0" encoding="iso-8859-1"?>
<svg version="1.1" id="&#x56FE;&#x5C42;_1" xmlns="http://www.w3.org/2000/svg" xmlns:xlink="http://www.w3.org/1999/xlink" x="0px"
	 y="0px" viewBox="0 0 24 24" style="enable-background:new 0 0 24 24;" xml:space="preserve">
<polygon style="fill:#333333;" points="4.5,22.618 4.5,19.5 1,19.5 1,2.5 23,2.5 23,9 21,9 21,4.5 3,4.5 3,17.5 6.5,17.5 
	6.5,19.382 10.264,17.5 12.75,17.5 12.75,19.5 10.736,19.5 "/>
<rect x="6" y="6.5" style="fill:#333333;" width="3" height="2"/>
<rect x="6" y="9.5" style="fill:#333333;" width="6" height="2"/>
<rect x="18" y="11.257" transform="matrix(0.7071 -0.7071 0.7071 0.7071 -5.3952 17.9749)" style="fill:#333333;" width="2" height="8.485"/>
<rect x="14.757" y="14.5" transform="matrix(0.7071 -0.7071 0.7071 0.7071 -5.3952 17.9749)" style="fill:#333333;" width="8.485" height="2"/>
</svg>






