<?xml version="1.0" encoding="iso-8859-1"?>
<svg version="1.1" id="&#x56FE;&#x5C42;_1" xmlns="http://www.w3.org/2000/svg" xmlns:xlink="http://www.w3.org/1999/xlink" x="0px"
	 y="0px" viewBox="0 0 24 24" style="enable-background:new 0 0 24 24;" xml:space="preserve">
<path style="fill:#333333;" d="M14.934,18.428c-0.646,0-1.297-0.181-1.879-0.551l-6.092-3.876l0.458-1.829L7.419,12.16
	c0.02-0.001,1.965-0.18,3.263-1.478c1.298-1.298,1.477-3.243,1.478-3.263l1.841-0.457l3.876,6.091
	c0.885,1.393,0.688,3.18-0.478,4.346C16.721,18.078,15.832,18.428,14.934,18.428z M9.944,13.527l4.184,2.662
	c0.598,0.38,1.36,0.294,1.857-0.204c0.498-0.499,0.582-1.263,0.204-1.858l-2.662-4.183c-0.307,0.713-0.761,1.482-1.432,2.153
	C11.426,12.767,10.657,13.221,9.944,13.527z"/>
<path style="fill:#333333;" d="M7.5,14C3.916,14,1,11.084,1,7.5S3.916,1,7.5,1S14,3.916,14,7.5S11.084,14,7.5,14z M7.5,3
	C5.019,3,3,5.019,3,7.5S5.019,12,7.5,12S12,9.981,12,7.5S9.981,3,7.5,3z"/>
<rect x="0.778" y="6.779" transform="matrix(0.7071 -0.7071 0.7071 0.7071 -3.2221 7.7782)" style="fill:#333333;" width="14" height="2"/>
<polygon style="fill:#333333;" points="21,21.5 16.5,21.5 16.5,19.5 18.586,19.5 16.293,17.207 17.707,15.793 21.707,19.793 "/>
</svg>






