<?xml version="1.0" encoding="iso-8859-1"?>
<svg version="1.1" id="&#x56FE;&#x5C42;_1" xmlns="http://www.w3.org/2000/svg" xmlns:xlink="http://www.w3.org/1999/xlink" x="0px"
	 y="0px" viewBox="0 0 24 24" style="enable-background:new 0 0 24 24;" xml:space="preserve">
<path style="fill:none;" d="M22,13c0,1.32-0.365,2.554-1,3.608c-0.59,0.979-1.413,1.802-2.392,2.392c-1.054,0.635-2.288,1-3.608,1
	s-2.554-0.365-3.608-1C9.36,17.775,8,15.546,8,13s1.36-4.775,3.392-6C12.446,6.365,13.68,6,15,6s2.554,0.365,3.608,1
	C19.587,7.59,20.41,8.413,21,9.392C21.635,10.446,22,11.68,22,13z"/>
<path style="fill:none;" d="M2,7v12h9.392C9.36,17.775,8,15.546,8,13s1.36-4.775,3.392-6H2z"/>
<path style="fill:#333333;" d="M15,21c-1.359,0-2.693-0.345-3.875-1H1V6h10.125c2.364-1.311,5.387-1.311,7.75,0H22v3.125
	c0.655,1.182,1,2.515,1,3.875c0,1.359-0.345,2.693-1,3.875V20h-3.125C17.693,20.655,16.359,21,15,21z M18.092,18.144L18.607,19
	L18.092,18.144c0.838-0.505,1.547-1.214,2.052-2.052L21,16.607l-0.856-0.516C20.704,15.161,21,14.092,21,13
	c0-1.093-0.296-2.162-0.856-3.091L21,9.393l-0.856,0.516c-0.504-0.837-1.214-1.547-2.052-2.052l0,0c-1.861-1.12-4.322-1.12-6.183,0
	l0,0C10.087,8.954,9,10.877,9,13c0,2.124,1.087,4.047,2.909,5.144L11.393,19l0.516-0.856C13.77,19.265,16.23,19.265,18.092,18.144z
	 M3,18h5.762C7.642,16.598,7,14.834,7,13c0-1.861,0.626-3.607,1.746-5H3V18z"/>
<path style="fill:#333333;" d="M9.5,8H3V3.5h6.5V8z M5,6h2.5V5.5H5V6z"/>
<rect x="4" y="11" style="fill:#333333;" width="2" height="4"/>
<path style="fill:#333333;" d="M15,17v-2c1.103,0,2-0.897,2-2h2C19,15.206,17.206,17,15,17z M13,13h-2c0-2.206,1.794-4,4-4v2
	C13.897,11,13,11.897,13,13z"/>
</svg>






