<?xml version="1.0" encoding="iso-8859-1"?>
<svg version="1.1" id="&#x56FE;&#x5C42;_1" xmlns="http://www.w3.org/2000/svg" xmlns:xlink="http://www.w3.org/1999/xlink" x="0px"
	 y="0px" viewBox="0 0 24 24" style="enable-background:new 0 0 24 24;" xml:space="preserve">
<path style="fill:#333333;" d="M20.5,18h-17c-1.103,0-2-0.897-2-2V6c0-1.103,0.897-2,2-2h17c1.103,0,2,0.897,2,2v10
	C22.5,17.103,21.603,18,20.5,18z M3.5,6v10.001L20.5,16V6H3.5z"/>
<rect x="10" y="8.5" style="fill:#333333;" width="2" height="2"/>
<rect x="6.5" y="11.5" style="fill:#333333;" width="11" height="2"/>
<rect x="5" y="17" style="fill:#333333;" width="2" height="2"/>
<rect x="9" y="17" style="fill:#333333;" width="2" height="2"/>
<rect x="13" y="17" style="fill:#333333;" width="2" height="2"/>
<rect x="17" y="17" style="fill:#333333;" width="2" height="2"/>
<path style="fill:#333333;" d="M7.5,9.5c0,0.552-0.448,1-1,1s-1-0.448-1-1s0.448-1,1-1S7.5,8.948,7.5,9.5z"/>
</svg>






