<?xml version="1.0" encoding="iso-8859-1"?>
<svg version="1.1" id="&#x56FE;&#x5C42;_1" xmlns="http://www.w3.org/2000/svg" xmlns:xlink="http://www.w3.org/1999/xlink" x="0px"
	 y="0px" viewBox="0 0 24 24" style="enable-background:new 0 0 24 24;" xml:space="preserve">
<path style="fill:#333333;" d="M8.425,16.057C8.424,16.057,8.424,16.057,8.425,16.057c-0.402,0-0.778-0.156-1.062-0.44l-3.484-3.484
	c-0.418-0.417-0.418-1.098,0-1.515l6.844-6.844c1.462-1.461,3.84-1.462,5.304,0c1.461,1.462,1.461,3.841,0,5.303l-0.818,0.818
	l-1.414-1.415l0.819-0.817c0.681-0.682,0.681-1.792-0.001-2.475c-0.684-0.682-1.794-0.682-2.476,0L5.95,11.375l2.475,2.475
	l2.054-2.056l1.415,1.414l-2.409,2.409C9.202,15.9,8.825,16.057,8.425,16.057z"/>
<path style="fill:#333333;" d="M16.557,7.132l-3.89-3.89l1.591-1.591c1.072-1.071,2.817-1.072,3.89,0
	c0.52,0.519,0.806,1.209,0.806,1.944s-0.286,1.425-0.806,1.945L16.557,7.132z M15.495,3.243l1.062,1.061l0.177-0.177
	c0.142-0.142,0.22-0.33,0.22-0.53s-0.078-0.389-0.22-0.53c-0.293-0.292-0.769-0.293-1.062,0L15.495,3.243z"/>
<path style="fill:#333333;" d="M5.596,18.092l-3.889-3.889l3.535-3.535l3.89,3.889L5.596,18.092z M4.536,14.203l1.061,1.061
	l0.707-0.707l-1.061-1.061L4.536,14.203z"/>
<path style="fill:#333333;" d="M13.021,14.27c-0.832,0-1.664-0.316-2.297-0.95c-1.267-1.268-1.267-3.329-0.001-4.597
	c1.229-1.229,3.37-1.227,4.596,0l0,0c1.268,1.267,1.268,3.329,0,4.597C14.686,13.952,13.853,14.27,13.021,14.27z M13.021,9.771
	c-0.334,0-0.647,0.13-0.884,0.366c-0.487,0.487-0.487,1.281,0,1.768c0.488,0.486,1.281,0.486,1.768,0
	c0.487-0.488,0.487-1.281,0-1.769l0,0C13.668,9.901,13.354,9.771,13.021,9.771z"/>
<rect x="5.182" y="8.682" transform="matrix(0.7071 -0.7071 0.7071 0.7071 -7.5104 8.2317)" style="fill:#333333;" width="2" height="9"/>
<rect x="5" y="21" style="fill:#333333;" width="16" height="2"/>
<path style="fill:#333333;" d="M16.107,22.795l-1.215-1.59l0.303-0.229C16.59,19.927,18.5,18.488,18.5,16c0-2.471-1.558-4-3-4v-2
	c2.404,0,5,2.294,5,6c0,3.486-2.567,5.419-4.102,6.574L16.107,22.795z"/>
</svg>






