<?xml version="1.0" encoding="iso-8859-1"?>
<svg version="1.1" id="&#x56FE;&#x5C42;_1" xmlns="http://www.w3.org/2000/svg" xmlns:xlink="http://www.w3.org/1999/xlink" x="0px"
	 y="0px" viewBox="0 0 24 24" style="enable-background:new 0 0 24 24;" xml:space="preserve">
<path style="fill:#333333;" d="M15.84,23H9.895c-2.867,0-5.9-3.341-5.9-6.5c0-2.196,1.177-3.616,3.315-3.997l0.351,1.969
	c-1.183,0.211-1.666,0.799-1.666,2.028c0,2.019,2.15,4.5,3.9,4.5h5.945c1.71,0,2.655-1.46,2.655-2.47v-6.525
	c0-0.276-0.225-0.5-0.5-0.5c-0.277,0-0.5,0.222-0.5,0.495h-2c0-1.376,1.12-2.495,2.496-2.495c1.383,0,2.504,1.122,2.504,2.5v6.525
	C20.495,20.688,18.625,23,15.84,23z"/>
<path style="fill:#333333;" d="M8.486,15.021h-2v-4.514c0-1.379,1.122-2.501,2.501-2.501c1.381,0.001,2.504,1.125,2.504,2.504v2.002
	h-2V10.51c0-0.278-0.226-0.504-0.503-0.504c-0.277,0-0.502,0.225-0.502,0.501V15.021z"/>
<path style="fill:#333333;" d="M14.507,12.004h-2V3.508C12.507,3.228,12.279,3,12,3s-0.508,0.228-0.508,0.508v8.496h-2V3.508
	C9.492,2.125,10.617,1,12,1c1.382,0,2.507,1.125,2.507,2.508V12.004z"/>
<path style="fill:#333333;" d="M17.495,12.002h-2v-1.5c0-0.276-0.225-0.5-0.5-0.5s-0.5,0.224-0.5,0.5v1.356h-2v-1.356
	c0-1.378,1.121-2.5,2.5-2.5s2.5,1.122,2.5,2.5V12.002z"/>
</svg>






