<?xml version="1.0" encoding="iso-8859-1"?>
<svg version="1.1" id="&#x56FE;&#x5C42;_1" xmlns="http://www.w3.org/2000/svg" xmlns:xlink="http://www.w3.org/1999/xlink" x="0px"
	 y="0px" viewBox="0 0 24 24" style="enable-background:new 0 0 24 24;" xml:space="preserve">
<path style="fill:#333333;" d="M17,23H2V10h15V23z M4,21h11v-9H4V21z"/>
<polygon style="fill:#333333;" points="13,19 11,19 11,16.762 9.5,18.562 8,16.762 8,19 6,19 6,14 7.768,13.359 9.5,15.438 
	11.232,13.359 13,14 "/>
<rect x="17" y="3.595" transform="matrix(0.6402 -0.7682 0.7682 0.6402 0.715 16.5266)" style="fill:#333333;" width="2" height="7.81"/>
<path style="fill:#333333;" d="M9,7.22V2.18l7-1.4v5.04L9,7.22z M11,3.82v0.96l3-0.6V3.22L11,3.82z"/>
<path style="fill:#333333;" d="M15,23.344V10.18l7-1.4v12.464L15,23.344z M17,11.82v8.836l3-0.9V11.22L17,11.82z"/>
<path style="fill:#333333;" d="M16,12H3l-0.596-1.803l7.359-5.458l6.861,5.48L16,12z M6.027,10h7.119L9.718,7.262L6.027,10z"/>
</svg>






