<?xml version="1.0" encoding="iso-8859-1"?>
<svg version="1.1" id="&#x56FE;&#x5C42;_1" xmlns="http://www.w3.org/2000/svg" xmlns:xlink="http://www.w3.org/1999/xlink" x="0px"
	 y="0px" viewBox="0 0 24 24" style="enable-background:new 0 0 24 24;" xml:space="preserve">
<polygon style="fill:#333333;" points="22,23 1,23 1,2 3,2 3,21 22,21 "/>
<path style="fill:#333333;" d="M13.5,20C6.988,20,4.297,3.981,4.012,2.154l1.976-0.309C6.966,8.091,9.87,18,13.5,18
	c3.631,0,6.534-9.909,7.512-16.154l1.977,0.309C22.702,3.981,20.012,20,13.5,20z"/>
<path style="fill:#333333;" d="M22,20h-1v-2h1V20z M18,20h-1v-2h1V20z M14,20h-1v-2h1V20z M10,20H9v-2h1V20z M6,20H5v-2h1V20z"/>
</svg>






