<?xml version="1.0" encoding="iso-8859-1"?>
<svg version="1.1" id="&#x56FE;&#x5C42;_1" xmlns="http://www.w3.org/2000/svg" xmlns:xlink="http://www.w3.org/1999/xlink" x="0px"
	 y="0px" viewBox="0 0 24 24" style="enable-background:new 0 0 24 24;" xml:space="preserve">
<path style="fill:#333333;" d="M13.5,22.5h-10c-1.103,0-2-0.897-2-2v-10c0-1.103,0.897-2,2-2h5c1.103,0,2,0.897,2,2v3h3
	c1.103,0,2,0.897,2,2v5C15.5,21.603,14.603,22.5,13.5,22.5z M3.5,10.5v10.001l10-0.001v-5h-3c-1.103,0-2-0.897-2-2v-3H3.5z"/>
<path style="fill:#333333;" d="M20.5,15.5h-10c-1.103,0-2-0.897-2-2v-10c0-1.103,0.897-2,2-2h10c1.103,0,2,0.897,2,2v10
	C22.5,14.603,21.603,15.5,20.5,15.5z M10.5,3.5v10.001l10-0.001v-10H10.5z"/>
</svg>






