<?xml version="1.0" encoding="iso-8859-1"?>
<svg version="1.1" id="&#x56FE;&#x5C42;_1" xmlns="http://www.w3.org/2000/svg" xmlns:xlink="http://www.w3.org/1999/xlink" x="0px"
	 y="0px" viewBox="0 0 24 24" style="enable-background:new 0 0 24 24;" xml:space="preserve">
<path style="fill:#333333;" d="M17,23H7c-1.347,0-4.5,0-4.5-3v-4h7.281l0.5,2h3.938l0.5-2H21.5v4C21.5,23,18.347,23,17,23z M4.5,18
	v2c0,0.515,0,1,2.5,1h10c2.5,0,2.5-0.485,2.5-1v-2h-3.219l-0.5,2H8.719l-0.5-2H4.5z"/>
<path style="fill:#333333;" d="M18.836,17.549l-1.672-1.098l0.307-0.461c0.951-1.424,2.029-3.038,2.029-5.063
	C19.5,6.408,16.275,3,12,3c-4.276,0-7.5,3.408-7.5,7.927c0,2.025,1.078,3.639,2.029,5.063l0.307,0.461l-1.672,1.098l-0.297-0.448
	C3.812,15.522,2.5,13.559,2.5,10.927C2.5,5.268,6.584,1,12,1s9.5,4.268,9.5,9.927c0,2.631-1.312,4.595-2.366,6.173L18.836,17.549z"
	/>
</svg>






