<?xml version="1.0" encoding="iso-8859-1"?>
<svg version="1.1" id="&#x56FE;&#x5C42;_1" xmlns="http://www.w3.org/2000/svg" xmlns:xlink="http://www.w3.org/1999/xlink" x="0px"
	 y="0px" viewBox="0 0 24 24" style="enable-background:new 0 0 24 24;" xml:space="preserve">
<path style="fill:#333333;" d="M12,16c-4.136,0-7.5-3.364-7.5-7.5S7.864,1,12,1s7.5,3.364,7.5,7.5S16.136,16,12,16z M12,3
	C8.967,3,6.5,5.467,6.5,8.5S8.967,14,12,14c3.032,0,5.5-2.467,5.5-5.5S15.032,3,12,3z"/>
<path style="fill:#333333;" d="M12,18.5c-5.514,0-10-4.486-10-10h2c0,4.411,3.589,8,8,8s8-3.589,8-8h2
	C22,14.014,17.514,18.5,12,18.5z"/>
<rect x="19" y="7.5" style="fill:#333333;" width="2" height="2"/>
<rect x="3" y="7.5" style="fill:#333333;" width="2" height="2"/>
<rect x="9" y="21" style="fill:#333333;" width="6" height="2"/>
<rect x="11" y="18" style="fill:#333333;" width="2" height="4"/>
</svg>






