<?xml version="1.0" encoding="iso-8859-1"?>
<svg version="1.1" id="&#x56FE;&#x5C42;_1" xmlns="http://www.w3.org/2000/svg" xmlns:xlink="http://www.w3.org/1999/xlink" x="0px"
	 y="0px" viewBox="0 0 24 24" style="enable-background:new 0 0 24 24;" xml:space="preserve">
<path style="fill:#333333;" d="M10,16c-3.86,0-7-3.141-7-7c0-3.86,3.14-7,7-7v2C7.243,4,5,6.243,5,9s2.243,5,5,5V16z"/>
<path style="fill:#333333;" d="M10,12c-1.654,0-3-1.346-3-3s1.346-3,3-3v2C9.449,8,9,8.449,9,9s0.449,1,1,1V12z"/>
<path style="fill:#333333;" d="M14,18v-2c0.552,0,1-0.448,1-1s-0.448-1-1-1v-2c1.654,0,3,1.346,3,3S15.654,18,14,18z"/>
<path style="fill:#333333;" d="M14,22v-2c2.757,0,5-2.243,5-5s-2.243-5-5-5V8c3.859,0,7,3.14,7,7C21,18.859,17.859,22,14,22z"/>
</svg>






