<?xml version="1.0" encoding="iso-8859-1"?>
<svg version="1.1" id="&#x56FE;&#x5C42;_1" xmlns="http://www.w3.org/2000/svg" xmlns:xlink="http://www.w3.org/1999/xlink" x="0px"
	 y="0px" viewBox="0 0 24 24" style="enable-background:new 0 0 24 24;" xml:space="preserve">
<path style="fill:#333333;" d="M12,16.862L7.314,9.5L12,2.137L16.686,9.5L12,16.862z M9.686,9.5L12,13.138L14.314,9.5L12,5.863
	L9.686,9.5z"/>
<path style="fill:#333333;" d="M22,21h-7.202l-3.63-5.445L12,14h7.202l3.63,5.445L22,21z M15.868,19h4.264l-2-3h-4.264L15.868,19z"
	/>
<path style="fill:#333333;" d="M9.202,21H2l-0.832-1.555L4.798,14H12l0.832,1.555L9.202,21z M3.869,19h4.263l2-3H5.869L3.869,19z"/>
</svg>






