<?xml version="1.0" encoding="iso-8859-1"?>
<svg version="1.1" id="&#x56FE;&#x5C42;_1" xmlns="http://www.w3.org/2000/svg" xmlns:xlink="http://www.w3.org/1999/xlink" x="0px"
	 y="0px" viewBox="0 0 24 24" style="enable-background:new 0 0 24 24;" xml:space="preserve">
<path style="fill:#333333;" d="M21,20.5H3c-1.103,0-2-0.897-2-2v-13c0-1.103,0.897-2,2-2h18c1.103,0,2,0.897,2,2v13
	C23,19.603,22.103,20.5,21,20.5z M3,5.5H2.999L3,18.5h18v-13H3z"/>
<rect x="7" y="4.5" style="fill:#333333;" width="2" height="15"/>
<rect x="6" y="3.5" style="fill:#333333;" width="4" height="2"/>
<rect x="6" y="18.5" style="fill:#333333;" width="4" height="2"/>
<rect x="10.05" y="11" transform="matrix(0.7071 -0.7071 0.7071 0.7071 -4.0919 14.1213)" style="fill:#333333;" width="9.899" height="2"/>
<rect x="11" y="8.293" transform="matrix(0.7071 -0.7071 0.7071 0.7071 -2.8492 11.1213)" style="fill:#333333;" width="2" height="1.414"/>
<rect x="17" y="14.293" transform="matrix(0.7071 -0.7071 0.7071 0.7071 -5.3345 17.1213)" style="fill:#333333;" width="2" height="1.414"/>
</svg>






