<?xml version="1.0" encoding="iso-8859-1"?>
<svg version="1.1" id="&#x56FE;&#x5C42;_1" xmlns="http://www.w3.org/2000/svg" xmlns:xlink="http://www.w3.org/1999/xlink" x="0px"
	 y="0px" viewBox="0 0 24 24" style="enable-background:new 0 0 24 24;" xml:space="preserve">
<path style="fill:#333333;" d="M5.086,9.743L2.964,7.621C2.586,7.244,2.378,6.742,2.378,6.207c0-0.534,0.208-1.036,0.586-1.414
	l2.829-2.829c0.781-0.78,2.049-0.778,2.828,0l2.122,2.122L9.328,5.5L7.207,3.378L4.378,6.207L6.5,8.329L5.086,9.743z"/>
<path style="fill:#333333;" d="M17.293,22.12c-0.512,0-1.024-0.195-1.414-0.585l-2.122-2.121L15.171,18l2.122,2.121l2.828-2.828
	L18,15.172l1.414-1.414l2.121,2.121c0.78,0.779,0.78,2.049,0,2.828l-2.828,2.828C18.317,21.925,17.805,22.12,17.293,22.12z"/>
<path style="fill:#333333;" d="M6.696,22.131c-0.512,0-1.024-0.195-1.414-0.585l-2.828-2.828c-0.378-0.378-0.586-0.881-0.586-1.416
	c0-0.534,0.208-1.036,0.587-1.413L15.889,2.454c0.777-0.78,2.048-0.781,2.829,0l2.828,2.829c0.78,0.78,0.78,2.048,0,2.828
	L8.111,21.546C7.721,21.936,7.209,22.131,6.696,22.131z M17.303,3.867L3.868,17.304l2.828,2.828L20.132,6.697L17.303,3.867z"/>
<circle style="fill:#333333;" cx="12" cy="12" r="1"/>
<circle style="fill:#333333;" cx="10" cy="14" r="1"/>
<circle style="fill:#333333;" cx="14" cy="10" r="1"/>
</svg>






