<?xml version="1.0" encoding="iso-8859-1"?>
<svg version="1.1" id="&#x56FE;&#x5C42;_1" xmlns="http://www.w3.org/2000/svg" xmlns:xlink="http://www.w3.org/1999/xlink" x="0px"
	 y="0px" viewBox="0 0 24 24" style="enable-background:new 0 0 24 24;" xml:space="preserve">
<path style="fill:#333333;" d="M12,23c-2.897,0-5.632-1.116-7.7-3.145C3.285,18.86,2.482,17.697,1.916,16.4L3.749,15.6
	c0.463,1.062,1.12,2.013,1.952,2.828C7.392,20.087,9.629,21,12,21c4.625,0,8.445-3.506,8.944-8h-3.965l-2.836-4.051l-3.749,7.499
	L8.652,16.53L6.446,13H1v-1C1,5.935,5.935,1,12,1c3.044,0,5.876,1.216,7.975,3.423c0.942,0.992,1.683,2.132,2.2,3.389l-1.85,0.762
	c-0.423-1.028-1.029-1.961-1.8-2.773C16.808,3.995,14.49,3,12,3c-4.625,0-8.446,3.506-8.945,8h4.499l1.849,2.958l4.454-8.907
	L18.021,11H23v1C23,18.065,18.065,23,12,23z"/>
</svg>






