<?xml version="1.0" encoding="iso-8859-1"?>
<svg version="1.1" id="&#x56FE;&#x5C42;_1" xmlns="http://www.w3.org/2000/svg" xmlns:xlink="http://www.w3.org/1999/xlink" x="0px"
	 y="0px" viewBox="0 0 24 24" style="enable-background:new 0 0 24 24;" xml:space="preserve">
<path style="fill:#333333;" d="M5.714,10.964C5.24,10.058,5,9.084,5,8.069C5,4.447,8.14,1.5,12,1.5c3.859,0,7,2.947,7,6.569
	c0,1.015-0.24,1.988-0.713,2.894l-1.773-0.927C16.837,9.42,17,8.758,17,8.069C17,5.55,14.757,3.5,12,3.5S7,5.55,7,8.069
	c0,0.689,0.164,1.351,0.486,1.967L5.714,10.964z"/>
<path style="fill:#333333;" d="M12,22.5c-4.687,0-8.5-3.141-8.5-7c0-3.86,3.813-7,8.5-7c4.687,0,8.5,3.14,8.5,7
	C20.5,19.359,16.687,22.5,12,22.5z M12,10.5c-3.584,0-6.5,2.243-6.5,5s2.916,5,6.5,5s6.5-2.243,6.5-5S15.584,10.5,12,10.5z"/>
<path style="fill:#333333;" d="M11.986,19.276c-1.507,0-3.029-0.584-4.193-1.748l1.414-1.414c1.505,1.504,3.903,1.558,5.345,0.116
	l1.414,1.414C14.876,18.734,13.438,19.276,11.986,19.276z"/>
<path style="fill:#333333;" d="M6,12.5c-2.206,0-4-1.57-4-3.5s1.794-3.5,4-3.5v2C4.916,7.5,4,8.187,4,9s0.916,1.5,2,1.5V12.5z"/>
<path style="fill:#333333;" d="M18,12.5v-2c1.084,0,2-0.687,2-1.5s-0.916-1.5-2-1.5v-2c2.206,0,4,1.57,4,3.5S20.206,12.5,18,12.5z"
	/>
<circle style="fill:#333333;" cx="10" cy="7" r="1"/>
<circle style="fill:#333333;" cx="14" cy="7" r="1"/>
</svg>






