<?xml version="1.0" encoding="iso-8859-1"?>
<svg version="1.1" id="&#x56FE;&#x5C42;_1" xmlns="http://www.w3.org/2000/svg" xmlns:xlink="http://www.w3.org/1999/xlink" x="0px"
	 y="0px" viewBox="0 0 24 24" style="enable-background:new 0 0 24 24;" xml:space="preserve">
<path style="fill:#333333;" d="M3,22H1V7c0.291-3.243,1.742-4.645,2.909-5.266c1.807-0.961,3.994-0.636,5.358,0.112l0.357,0.196
	l0.118,0.39c0.21,0.691,0.601,1.977,0.844,2.136c1.322,0.695,1.755,1.66,1.873,2.339c0.195,1.131-0.35,2.207-0.925,2.835
	l-1.476-1.35c0.263-0.288,0.498-0.752,0.43-1.145c-0.06-0.346-0.368-0.668-0.914-0.957C8.763,5.77,8.399,4.854,7.958,3.437
	C7.064,3.077,5.809,2.989,4.848,3.5C3.784,4.066,3.161,5.274,2.996,7.09L3,22z"/>
<path style="fill:#333333;" d="M18.629,23.055c-0.062,0-0.125-0.001-0.188-0.004c-1.533-0.064-2.854-0.917-3.367-2.173
	c-1.881-5.093-4.848-6.683-6.917-7.438l0.687-1.879c3.829,1.398,6.477,4.21,8.095,8.593c0.198,0.486,0.856,0.869,1.587,0.899
	c0.46,0.016,1.61-0.088,2.334-1.507c0.135-0.264,0.144-0.628,0.024-0.973c-0.138-0.4-0.513-0.976-1.514-1.44
	c-1.353-0.629-2.363-2.125-2.352-3.48c0.01-1.12,0.675-2.055,1.825-2.566l0.097-0.037c1.532-0.5,3.006,0.238,3.94,1.977
	l-1.762,0.947c-0.451-0.841-0.955-1.189-1.514-1.037c-0.583,0.277-0.586,0.606-0.587,0.732c-0.005,0.581,0.553,1.352,1.194,1.649
	c1.638,0.762,2.297,1.836,2.562,2.603c0.297,0.861,0.248,1.784-0.134,2.533C21.805,22.094,20.314,23.055,18.629,23.055z"/>
<path style="fill:#333333;" d="M8.497,22.081l-1.993-0.162c0.158-1.942,0.962-3.484,2.324-4.457c1.857-1.327,4.35-1.332,5.918-0.931
	l-0.492,1.938c-1.247-0.316-3.048-0.248-4.264,0.621C9.11,19.719,8.607,20.725,8.497,22.081z"/>
</svg>






