<?xml version="1.0" encoding="iso-8859-1"?>
<svg version="1.1" id="&#x56FE;&#x5C42;_1" xmlns="http://www.w3.org/2000/svg" xmlns:xlink="http://www.w3.org/1999/xlink" x="0px"
	 y="0px" viewBox="0 0 24 24" style="enable-background:new 0 0 24 24;" xml:space="preserve">
<path style="fill:#333333;" d="M12,23C5.935,23,1,18.065,1,12S5.935,1,12,1c0.75,0,1.5,0.076,2.229,0.226l0.05,1.947
	c-2.358,0.615-4.005,2.749-4.005,5.19c0,2.958,2.406,5.364,5.364,5.364c2.441,0,4.576-1.647,5.19-4.006l1.947,0.05
	C22.924,10.499,23,11.249,23,12C23,18.065,18.065,23,12,23z M10.451,3.133C6.224,3.87,3,7.565,3,12c0,4.963,4.038,9,9,9
	c4.434,0,8.13-3.224,8.866-7.45c-1.349,1.358-3.213,2.178-5.229,2.178c-4.061,0-7.364-3.304-7.364-7.364
	C8.273,6.347,9.092,4.482,10.451,3.133z"/>
</svg>






