<?xml version="1.0" encoding="iso-8859-1"?>
<svg version="1.1" id="&#x56FE;&#x5C42;_1" xmlns="http://www.w3.org/2000/svg" xmlns:xlink="http://www.w3.org/1999/xlink" x="0px"
	 y="0px" viewBox="0 0 24 24" style="enable-background:new 0 0 24 24;" xml:space="preserve">
<path style="fill:#333333;" d="M12.035,10.45L7.086,5.5l4.949-4.95l4.95,4.95L12.035,10.45z M9.914,5.5l2.121,2.122L14.157,5.5
	l-2.122-2.122L9.914,5.5z"/>
<path style="fill:#333333;" d="M18.535,16.949L13.586,12l4.949-4.95l4.95,4.95L18.535,16.949z M16.414,12l2.121,2.121L20.657,12
	l-2.122-2.122L16.414,12z"/>
<path style="fill:#333333;" d="M5.536,16.949L0.586,12l4.95-4.95L10.485,12L5.536,16.949z M3.414,12l2.122,2.121L7.657,12
	L5.536,9.878L3.414,12z"/>
<path style="fill:#333333;" d="M12.035,23.449L7.086,18.5l4.949-4.949l4.95,4.949L12.035,23.449z M9.914,18.5l2.121,2.121
	l2.122-2.121l-2.122-2.121L9.914,18.5z"/>
</svg>






