<?xml version="1.0" encoding="iso-8859-1"?>
<svg version="1.1" id="&#x56FE;&#x5C42;_1" xmlns="http://www.w3.org/2000/svg" xmlns:xlink="http://www.w3.org/1999/xlink" x="0px"
	 y="0px" viewBox="0 0 24 24" style="enable-background:new 0 0 24 24;" xml:space="preserve">
<path style="fill:#333333;" d="M12,23C5.935,23,1,18.065,1,12S5.935,1,12,1s11,4.935,11,11S18.065,23,12,23z M12,3
	c-4.962,0-9,4.038-9,9c0,4.963,4.038,9,9,9c4.963,0,9-4.037,9-9C21,7.038,16.963,3,12,3z"/>
<path style="fill-rule:evenodd;clip-rule:evenodd;fill:#333333;" d="M10.75,7c0,0.69,0.56,1.25,1.25,1.25S13.25,7.69,13.25,7
	S12.69,5.75,12,5.75S10.75,6.31,10.75,7z M10.75,12c0,0.69,0.56,1.25,1.25,1.25s1.25-0.56,1.25-1.25s-0.56-1.25-1.25-1.25
	S10.75,11.31,10.75,12z M12,18.25c-0.69,0-1.25-0.56-1.25-1.25s0.56-1.25,1.25-1.25s1.25,0.56,1.25,1.25S12.69,18.25,12,18.25z"/>
</svg>






