<?xml version="1.0" encoding="iso-8859-1"?>
<svg version="1.1" id="&#x56FE;&#x5C42;_1" xmlns="http://www.w3.org/2000/svg" xmlns:xlink="http://www.w3.org/1999/xlink" x="0px"
	 y="0px" viewBox="0 0 24 24" style="enable-background:new 0 0 24 24;" xml:space="preserve">
<path style="fill:#333333;" d="M12,23c-3.86,0-7-3.141-7-7v-4c0-3.86,3.14-7,7-7c3.859,0,7,3.14,7,7v4C19,19.859,15.859,23,12,23z
	 M12,7c-2.757,0-5,2.243-5,5v4c0,2.757,2.243,5,5,5s5-2.243,5-5v-4C17,9.243,14.757,7,12,7z"/>
<path style="fill:#333333;" d="M19,13.5H5V12c0-3.86,3.14-7,7-7c3.859,0,7,3.14,7,7V13.5z M7.025,11.5h9.951
	C16.724,8.977,14.588,7,12,7C9.412,7,7.276,8.977,7.025,11.5z"/>
<path style="fill:#333333;" d="M13,12.5h-2V6c0-3.131,1.683-5,4.5-5c3.454,0,5,2.762,5,5.5h-2c0-0.821-0.217-3.5-3-3.5
	C14.816,3,13,3,13,6V12.5z"/>
</svg>






