<?xml version="1.0" encoding="iso-8859-1"?>
<svg version="1.1" id="&#x56FE;&#x5C42;_1" xmlns="http://www.w3.org/2000/svg" xmlns:xlink="http://www.w3.org/1999/xlink" x="0px"
	 y="0px" viewBox="0 0 24 24" style="enable-background:new 0 0 24 24;" xml:space="preserve">
<path style="fill:#333333;" d="M12,23c-3.86,0-7-3.141-7-7V7h14v9C19,19.859,15.859,23,12,23z M7,9v7c0,2.757,2.243,5,5,5
	s5-2.243,5-5V9H7z"/>
<path style="fill:#333333;" d="M19,9h-8V1h1c3.859,0,7,3.14,7,7V9z M13,7h3.899C16.501,5.044,14.956,3.499,13,3.101V7z"/>
<path style="fill:#333333;" d="M13,9H5V8c0-3.86,3.14-7,7-7h1V9z M7.101,7H11V3.101C9.044,3.499,7.499,5.044,7.101,7z"/>
</svg>






