<?xml version="1.0" encoding="iso-8859-1"?>
<svg version="1.1" id="&#x56FE;&#x5C42;_1" xmlns="http://www.w3.org/2000/svg" xmlns:xlink="http://www.w3.org/1999/xlink" x="0px"
	 y="0px" viewBox="0 0 24 24" style="enable-background:new 0 0 24 24;" xml:space="preserve">
<path style="fill:#333333;" d="M9.5,18.5H1v-1c0-4.501,2.769-10,6-10h0.802l1.174,5.283l-1.952,0.434l-0.77-3.462
	c-1.359,0.866-2.9,3.812-3.202,6.746H9.5V18.5z"/>
<path style="fill:#333333;" d="M15,17.5h-2c0-1.627,0.403-2.82,1.233-3.649c0.91-0.908,2.301-1.351,4.25-1.351
	c0.006,0,0.012,0,0.018,0l-0.002,2c-0.006,0-0.011,0-0.016,0c-1.374,0-2.328,0.258-2.837,0.766C15.205,15.706,15,16.416,15,17.5z"/>
<path style="fill:#333333;" d="M20.619,18.148c-0.361,0-0.726-0.084-1.066-0.254c-1.054-0.526-1.255-1.83-1.469-3.21
	c-0.123-0.793-0.25-1.612-0.521-2.333c-0.558-1.488-1.844-2.55-3.528-2.915c-2.054-0.445-4.29,0.233-5.828,1.771L6.793,9.793
	c2.014-2.014,4.952-2.898,7.666-2.311c2.362,0.512,4.176,2.031,4.978,4.167c0.343,0.914,0.492,1.878,0.624,2.729
	c0.096,0.622,0.241,1.562,0.425,1.754c0.001,0,0.001,0,0.001,0c0.014,0.001,0.18,0.064,0.333-0.053c0.21-0.161,0.388-0.68,0.2-1.613
	l1.961-0.395c0.436,2.167-0.406,3.184-0.946,3.597C21.617,17.986,21.121,18.148,20.619,18.148z"/>
</svg>






