<?xml version="1.0" encoding="iso-8859-1"?>
<svg version="1.1" id="&#x56FE;&#x5C42;_1" xmlns="http://www.w3.org/2000/svg" xmlns:xlink="http://www.w3.org/1999/xlink" x="0px"
	 y="0px" viewBox="0 0 24 24" style="enable-background:new 0 0 24 24;" xml:space="preserve">
<polygon style="fill:#333333;" points="12,9.414 9.293,6.707 10.707,5.293 12,6.586 13.293,5.293 14.707,6.707 "/>
<rect x="11" y="2" style="fill:#333333;" width="2" height="6"/>
<polygon style="fill:#333333;" points="13.293,18.707 12,17.414 10.707,18.707 9.293,17.293 12,14.586 14.707,17.293 "/>
<rect x="11" y="16" style="fill:#333333;" width="2" height="6"/>
<polygon style="fill:#333333;" points="17.293,14.707 14.586,12 17.293,9.293 18.707,10.707 17.414,12 18.707,13.293 "/>
<rect x="16" y="11" style="fill:#333333;" width="6" height="2"/>
<polygon style="fill:#333333;" points="6.707,14.707 5.293,13.293 6.586,12 5.293,10.707 6.707,9.293 9.414,12 "/>
<rect x="2" y="11" style="fill:#333333;" width="6" height="2"/>
<circle style="fill:#333333;" cx="12" cy="12" r="2"/>
</svg>






