<?xml version="1.0" encoding="iso-8859-1"?>
<svg version="1.1" id="&#x56FE;&#x5C42;_1" xmlns="http://www.w3.org/2000/svg" xmlns:xlink="http://www.w3.org/1999/xlink" x="0px"
	 y="0px" viewBox="0 0 24 24" style="enable-background:new 0 0 24 24;" xml:space="preserve">
<path style="fill:#333333;" d="M18.9,22.414l-1.945-1.944l-0.723,1.085l-1.812-0.358l-1.694-8.471l8.471,1.694l0.358,1.812
	l-1.085,0.723l1.944,1.945L18.9,22.414z M16.645,17.331l2.256,2.255l0.686-0.686l-2.255-2.256l1.105-0.737l-3.162-0.633l0.633,3.162
	L16.645,17.331z"/>
<path style="fill:#333333;" d="M10.5,22H4c-1.103,0-2-0.897-2-2V4c0-1.103,0.897-2,2-2h16c1.103,0,2,0.897,2,2v7h-2V4H4v16h6.5V22z"
	/>
</svg>






