<?xml version="1.0" encoding="iso-8859-1"?>
<svg version="1.1" id="&#x56FE;&#x5C42;_1" xmlns="http://www.w3.org/2000/svg" xmlns:xlink="http://www.w3.org/1999/xlink" x="0px"
	 y="0px" viewBox="0 0 24 24" style="enable-background:new 0 0 24 24;" xml:space="preserve">
<path style="fill:#333333;" d="M23,22H1V7h22V22z M3,20h18V9H3V20z"/>
<path style="fill:#333333;" d="M23,9H1V2h22V9z M3,7h18V4H3V7z"/>
<rect x="13" y="2.807" transform="matrix(0.9285 -0.3714 0.3714 0.9285 -1.0413 5.5928)" style="fill:#333333;" width="2.001" height="5.385"/>
<rect x="9" y="2.807" transform="matrix(0.9285 -0.3714 0.3714 0.9285 -1.3274 4.1073)" style="fill:#333333;" width="2.001" height="5.385"/>
<rect x="5" y="2.807" transform="matrix(0.9285 -0.3714 0.3714 0.9285 -1.6135 2.6217)" style="fill:#333333;" width="2.001" height="5.385"/>
<rect x="17" y="2.807" transform="matrix(0.9285 -0.3714 0.3714 0.9285 -0.7552 7.0784)" style="fill:#333333;" width="2.001" height="5.385"/>
<rect x="6" y="11" style="fill:#333333;" width="12" height="2"/>
<rect x="6" y="15" style="fill:#333333;" width="6" height="2"/>
</svg>






