<?xml version="1.0" encoding="iso-8859-1"?>
<svg version="1.1" id="&#x56FE;&#x5C42;_1" xmlns="http://www.w3.org/2000/svg" xmlns:xlink="http://www.w3.org/1999/xlink" x="0px"
	 y="0px" viewBox="0 0 24 24" style="enable-background:new 0 0 24 24;" xml:space="preserve">
<path style="fill:#333333;" d="M12,16c-2.206,0-4-1.794-4-4V5c0-2.206,1.794-4,4-4c2.206,0,4,1.794,4,4v7C16,14.206,14.206,16,12,16
	z M12,3c-1.103,0-2,0.897-2,2v7c0,1.103,0.897,2,2,2c1.103,0,2-0.897,2-2V5C14,3.897,13.103,3,12,3z"/>
<path style="fill:#333333;" d="M12,16c-1.068,0-2.073-0.416-2.828-1.172C8.416,14.073,8,13.068,8,12s0.416-2.073,1.172-2.828
	l4.949-4.95c1.511-1.511,4.145-1.513,5.657,0c1.559,1.56,1.559,4.097,0,5.656l-4.95,4.95C14.073,15.584,13.068,16,12,16z
	 M16.95,5.051c-0.513,0-1.025,0.195-1.415,0.585l-4.949,4.95C10.208,10.964,10,11.466,10,12s0.208,1.036,0.586,1.414
	c0.756,0.756,2.072,0.756,2.828,0l4.95-4.95c0.779-0.78,0.779-2.048,0-2.828C17.975,5.246,17.462,5.051,16.95,5.051z"/>
<path style="fill:#333333;" d="M19,16h-7c-2.206,0-4-1.794-4-4c0-2.206,1.794-4,4-4h7c2.206,0,4,1.794,4,4
	C23,14.206,21.206,16,19,16z M12,10c-1.103,0-2,0.897-2,2c0,1.103,0.897,2,2,2h7c1.103,0,2-0.897,2-2c0-1.103-0.897-2-2-2H12z"/>
<path style="fill:#333333;" d="M16.949,20.947c-1.024,0-2.048-0.39-2.828-1.169l-4.95-4.95C8.416,14.073,8,13.068,8,12
	s0.416-2.073,1.171-2.828c1.511-1.512,4.147-1.512,5.657,0l4.95,4.949c1.559,1.56,1.559,4.098,0,5.657
	C18.999,20.558,17.974,20.947,16.949,20.947z M15.535,18.364c0.78,0.78,2.051,0.778,2.829,0c0.779-0.78,0.779-2.049,0-2.829
	l-4.95-4.949c-0.756-0.756-2.073-0.756-2.829,0C10.208,10.964,10,11.466,10,12s0.208,1.036,0.585,1.414L15.535,18.364z"/>
<path style="fill:#333333;" d="M12,23c-2.206,0-4-1.794-4-4v-7c0-2.206,1.794-4,4-4c2.206,0,4,1.794,4,4v7
	C16,21.206,14.206,23,12,23z M12,10c-1.103,0-2,0.897-2,2v7c0,1.103,0.897,2,2,2c1.103,0,2-0.897,2-2v-7C14,10.897,13.103,10,12,10z
	"/>
<path style="fill:#333333;" d="M7.05,20.947c-1.024,0-2.048-0.39-2.828-1.169c-0.756-0.756-1.172-1.76-1.172-2.828
	c0-1.069,0.416-2.073,1.172-2.829l4.95-4.949c1.511-1.512,4.146-1.512,5.656,0C15.584,9.927,16,10.932,16,12
	s-0.416,2.073-1.172,2.828l-4.95,4.95C9.099,20.558,8.074,20.947,7.05,20.947z M5.636,15.535c-0.78,0.78-0.78,2.049,0,2.829
	c0.779,0.779,2.049,0.779,2.828,0l4.95-4.95C13.792,13.036,14,12.534,14,12s-0.208-1.036-0.586-1.414
	c-0.756-0.756-2.072-0.756-2.828,0L5.636,15.535z"/>
<path style="fill:#333333;" d="M12,16H5c-2.206,0-4-1.794-4-4c0-2.206,1.794-4,4-4h7c2.206,0,4,1.794,4,4C16,14.206,14.206,16,12,16
	z M5,10c-1.103,0-2,0.897-2,2c0,1.103,0.897,2,2,2h7c1.103,0,2-0.897,2-2c0-1.103-0.897-2-2-2H5z"/>
<path style="fill:#333333;" d="M12,16c-1.068,0-2.073-0.416-2.828-1.172l-4.95-4.949C3.466,9.124,3.05,8.119,3.05,7.05
	s0.416-2.073,1.172-2.828c1.511-1.512,4.146-1.512,5.657,0l4.949,4.95C15.584,9.927,16,10.932,16,12s-0.416,2.073-1.172,2.828
	C14.073,15.584,13.068,16,12,16z M7.05,5.05c-0.534,0-1.036,0.208-1.414,0.586S5.05,6.516,5.05,7.05s0.208,1.037,0.586,1.415
	l4.95,4.949c0.756,0.756,2.072,0.756,2.828,0C13.792,13.036,14,12.534,14,12s-0.208-1.036-0.586-1.414l-4.949-4.95
	C8.087,5.258,7.584,5.05,7.05,5.05z"/>
</svg>






