<?xml version="1.0" encoding="iso-8859-1"?>
<svg version="1.1" id="&#x56FE;&#x5C42;_1" xmlns="http://www.w3.org/2000/svg" xmlns:xlink="http://www.w3.org/1999/xlink" x="0px"
	 y="0px" viewBox="0 0 24 24" style="enable-background:new 0 0 24 24;" xml:space="preserve">
<path style="fill:#333333;" d="M21,19H3c-1.103,0-2-0.897-2-2V4c0-1.103,0.897-2,2-2h18c1.103,0,2,0.897,2,2v13
	C23,18.103,22.103,19,21,19z M3,4H2.999L3,17h18V4H3z"/>
<rect x="10" y="20" style="fill:#333333;" width="4" height="2"/>
<rect x="17" y="20" style="fill:#333333;" width="1" height="2"/>
<rect x="2" y="20" style="fill:#333333;" width="1" height="2"/>
<rect x="21" y="20" style="fill:#333333;" width="1" height="2"/>
<rect x="6" y="20" style="fill:#333333;" width="1" height="2"/>
</svg>






