<?xml version="1.0" encoding="iso-8859-1"?>
<svg version="1.1" id="&#x56FE;&#x5C42;_1" xmlns="http://www.w3.org/2000/svg" xmlns:xlink="http://www.w3.org/1999/xlink" x="0px"
	 y="0px" viewBox="0 0 24 24" style="enable-background:new 0 0 24 24;" xml:space="preserve">
<path style="fill:#333333;" d="M12,23C5.935,23,1,18.065,1,12S5.935,1,12,1s11,4.935,11,11S18.065,23,12,23z M12,3
	c-4.962,0-9,4.038-9,9c0,4.963,4.038,9,9,9c4.963,0,9-4.037,9-9C21,7.038,16.963,3,12,3z"/>
<path style="fill:#333333;" d="M12,19c-5.211,0-9.745-3.701-10.78-8.801l1.96-0.398C4.027,13.973,7.736,17,12,17
	s7.973-3.027,8.819-7.199l1.961,0.398C21.744,15.299,17.211,19,12,19z"/>
<path style="fill:#333333;" d="M12,15c-4.375,0-8.333-2.591-10.084-6.6L3.749,7.6C5.182,10.88,8.42,13,12,13
	c3.579,0,6.818-2.12,8.252-5.4L22.084,8.4C20.333,12.409,16.374,15,12,15z"/>
<path style="fill:#333333;" d="M12,11c-3.493,0-6.7-1.604-8.8-4.399l1.6-1.201C6.518,7.688,9.143,9,12,9
	c2.855,0,5.483-1.313,7.209-3.602l1.598,1.204C18.699,9.397,15.489,11,12,11z"/>
<path style="fill:#333333;" d="M12,7C9.597,7,7.314,6.239,5.398,4.799L6.6,3.201C8.167,4.378,10.034,5,12,5
	c1.966,0,3.833-0.622,5.4-1.799l1.201,1.599C16.686,6.239,14.402,7,12,7z"/>
</svg>






