<?xml version="1.0" encoding="iso-8859-1"?>
<svg version="1.1" id="&#x56FE;&#x5C42;_1" xmlns="http://www.w3.org/2000/svg" xmlns:xlink="http://www.w3.org/1999/xlink" x="0px"
	 y="0px" viewBox="0 0 24 24" style="enable-background:new 0 0 24 24;" xml:space="preserve">
<path style="fill:#333333;" d="M12,23C5.935,23,1,18.065,1,12S5.935,1,12,1s11,4.935,11,11S18.065,23,12,23z M12,3
	c-4.962,0-9,4.038-9,9c0,4.963,4.038,9,9,9c4.963,0,9-4.037,9-9C21,7.038,16.963,3,12,3z"/>
<path style="fill:#333333;" d="M12,23c-4.411,0-8-3.589-8-8s3.589-8,8-8s8,3.589,8,8S16.411,23,12,23z M12,9c-3.309,0-6,2.691-6,6
	s2.691,6,6,6s6-2.691,6-6S15.309,9,12,9z"/>
<path style="fill:#333333;" d="M12,23c-2.757,0-5-2.243-5-5s2.243-5,5-5s5,2.243,5,5S14.757,23,12,23z M12,15c-1.654,0-3,1.346-3,3
	s1.346,3,3,3s3-1.346,3-3S13.654,15,12,15z"/>
</svg>






