<?xml version="1.0" encoding="iso-8859-1"?>
<svg version="1.1" id="&#x56FE;&#x5C42;_1" xmlns="http://www.w3.org/2000/svg" xmlns:xlink="http://www.w3.org/1999/xlink" x="0px"
	 y="0px" viewBox="0 0 24 24" style="enable-background:new 0 0 24 24;" xml:space="preserve">
<path style="fill:#333333;" d="M12,23c-2.206,0-4-1.794-4-4V5c0-2.206,1.794-4,4-4c2.206,0,4,1.794,4,4v14
	C16,21.206,14.206,23,12,23z M12,3c-1.103,0-2,0.897-2,2v14c0,1.103,0.897,2,2,2c1.103,0,2-0.897,2-2V5C14,3.897,13.103,3,12,3z"/>
<path style="fill:#333333;" d="M20.035,15.362c-0.769,0-1.536-0.292-2.121-0.877L14,10.571V4.5l1.707-0.707l6.45,6.45
	c1.169,1.17,1.169,3.073,0.001,4.243C21.572,15.07,20.804,15.362,20.035,15.362z M16,9.743l3.328,3.329
	c0.392,0.392,1.025,0.39,1.415,0s0.39-1.024-0.001-1.415L16,6.914V9.743z"/>
<path style="fill:#333333;" d="M8.329,20.071l-6.45-6.45C1.312,13.055,1,12.301,1,11.5c0-0.802,0.312-1.555,0.879-2.122
	c1.133-1.133,3.109-1.133,4.243,0l3.914,3.914v6.071L8.329,20.071z M4,10.5c-0.267,0-0.518,0.104-0.707,0.293
	C3.104,10.982,3,11.233,3,11.5s0.104,0.518,0.293,0.707l4.743,4.743v-2.829l-3.329-3.328C4.518,10.604,4.267,10.5,4,10.5z"/>
<rect x="11" y="5" style="fill:#333333;" width="2" height="0.5"/>
<rect x="11" y="18.5" style="fill:#333333;" width="2" height="0.5"/>
</svg>






