<?xml version="1.0" encoding="iso-8859-1"?>
<svg version="1.1" id="&#x56FE;&#x5C42;_1" xmlns="http://www.w3.org/2000/svg" xmlns:xlink="http://www.w3.org/1999/xlink" x="0px"
	 y="0px" viewBox="0 0 24 24" style="enable-background:new 0 0 24 24;" xml:space="preserve">
<path style="fill:none;" d="M10.685,18c0.725-2.625,3.26-4.5,6.18-4.19c2.78,0.295,4.99,2.64,5.13,5.43
	c0.035,0.735-0.065,1.44-0.28,2.095c-0.13,0.4-0.52,0.665-0.945,0.665H5.879c-2.524,0-4.417-2.309-3.922-4.784L5,2h6l2,3.5
	L8.715,8.565L7.5,7"/>
<path style="fill:#333333;" d="M20.77,23H5.879c-1.504,0-2.914-0.667-3.867-1.83c-0.953-1.163-1.331-2.676-1.036-4.15L4.02,1.804
	L5,1h6l0.868,0.504l2,3.5l-0.286,1.31L9.296,9.378l-1.372-0.2L6.71,7.613l1.58-1.227l0.625,0.806l2.769-1.98L10.419,3h-4.6
	L2.938,17.412c-0.177,0.885,0.05,1.792,0.622,2.489C4.131,20.6,4.977,21,5.879,21h14.89c0.178-0.532,0.255-1.116,0.227-1.712
	c-0.115-2.311-1.937-4.239-4.236-4.484c-2.348-0.254-4.488,1.208-5.111,3.463l-1.928-0.533c0.884-3.201,3.93-5.274,7.25-4.918
	c3.27,0.348,5.858,3.089,6.023,6.375c0.04,0.842-0.07,1.668-0.329,2.456C22.403,22.455,21.641,23,20.77,23z"/>
<rect x="8.86" y="8.414" transform="matrix(0.9654 -0.2609 0.2609 0.9654 -2.9936 3.0153)" style="fill:#333333;" width="2" height="8.738"/>
</svg>






