<?xml version="1.0" encoding="iso-8859-1"?>
<svg version="1.1" id="&#x56FE;&#x5C42;_1" xmlns="http://www.w3.org/2000/svg" xmlns:xlink="http://www.w3.org/1999/xlink" x="0px"
	 y="0px" viewBox="0 0 24 24" style="enable-background:new 0 0 24 24;" xml:space="preserve">
<rect x="2" y="21" style="fill:#333333;" width="20" height="2"/>
<path style="fill:#333333;" d="M21,7.5H3V3l0.577-0.27C3.728,2.66,7.332,1,12,1c4.669,0,8.272,1.66,8.424,1.73L21,3V7.5z M5,5.5h14
	V4.306C17.866,3.874,15.182,3,12,3C8.804,3,6.129,3.872,5,4.305V5.5z"/>
<rect x="4" y="6.5" style="fill:#333333;" width="2" height="12.5"/>
<rect x="7.5" y="6.5" style="fill:#333333;" width="2" height="12.5"/>
<rect x="11" y="6.5" style="fill:#333333;" width="2" height="12.5"/>
<rect x="14.5" y="6.5" style="fill:#333333;" width="2" height="12.5"/>
<rect x="18" y="6.5" style="fill:#333333;" width="2" height="12.5"/>
<path style="fill:#333333;" d="M21.5,23h-19v-5h19V23z M4.5,21h15v-1h-15V21z"/>
</svg>






