<?xml version="1.0" encoding="iso-8859-1"?>
<svg version="1.1" id="&#x56FE;&#x5C42;_1" xmlns="http://www.w3.org/2000/svg" xmlns:xlink="http://www.w3.org/1999/xlink" x="0px"
	 y="0px" viewBox="0 0 24 24" style="enable-background:new 0 0 24 24;" xml:space="preserve">
<path style="fill:#333333;" d="M12,23C5.935,23,1,18.065,1,12S5.935,1,12,1s11,4.935,11,11S18.065,23,12,23z M12,3
	c-4.962,0-9,4.038-9,9c0,4.963,4.038,9,9,9c4.963,0,9-4.037,9-9C21,7.038,16.963,3,12,3z"/>
<rect x="12" y="7" style="fill:#333333;" width="2" height="7"/>
<path style="fill:#333333;" d="M10.84,17.5H9.16C7.417,17.5,6,16.229,6,14.667v-0.334C6,12.771,7.417,11.5,9.16,11.5H14v3.167
	C14,16.229,12.582,17.5,10.84,17.5z M9.16,13.5C8.531,13.5,8,13.882,8,14.333v0.334C8,15.118,8.531,15.5,9.16,15.5h1.68
	c0.629,0,1.16-0.382,1.16-0.833V13.5H9.16z"/>
<rect x="13.5" y="5.729" transform="matrix(0.1644 -0.9864 0.9864 0.1644 4.9649 20.3608)" style="fill:#333333;" width="2" height="3.041"/>
</svg>






