<?xml version="1.0" encoding="iso-8859-1"?>
<svg version="1.1" id="&#x56FE;&#x5C42;_1" xmlns="http://www.w3.org/2000/svg" xmlns:xlink="http://www.w3.org/1999/xlink" x="0px"
	 y="0px" viewBox="0 0 24 24" style="enable-background:new 0 0 24 24;" xml:space="preserve">
<path style="fill:#333333;" d="M18.7,20h-1.95C15.233,20,14,18.767,14,17.25s1.233-2.75,2.75-2.75h4.75v2.7
	C21.5,18.744,20.244,20,18.7,20z M16.75,16.5c-0.413,0-0.75,0.337-0.75,0.75S16.337,18,16.75,18h1.95c0.441,0,0.8-0.358,0.8-0.8
	v-0.7H16.75z"/>
<path style="fill:#333333;" d="M6.2,22H4.75C3.233,22,2,20.767,2,19.25s1.233-2.75,2.75-2.75H9v2.7C9,20.744,7.744,22,6.2,22z
	 M4.75,18.5C4.336,18.5,4,18.837,4,19.25S4.336,20,4.75,20H6.2C6.641,20,7,19.642,7,19.2v-0.7H4.75z"/>
<rect x="7.827" y="6.542" transform="matrix(0.9731 -0.2305 0.2305 0.9731 -1.3546 3.487)" style="fill:#333333;" width="12.846" height="2"/>
<polygon style="fill:#333333;" points="9,19 7,19 7,4.211 21.5,0.731 21.5,16.847 19.5,16.847 19.5,3.269 9,5.789 "/>
</svg>






