<?xml version="1.0" encoding="iso-8859-1"?>
<svg version="1.1" id="&#x56FE;&#x5C42;_1" xmlns="http://www.w3.org/2000/svg" xmlns:xlink="http://www.w3.org/1999/xlink" x="0px"
	 y="0px" viewBox="0 0 24 24" style="enable-background:new 0 0 24 24;" xml:space="preserve">
<rect x="11" y="3" style="fill:#333333;" width="2" height="14.5"/>
<path style="fill:#333333;" d="M9.48,22H7.52C5.579,22,4,20.421,4,18.48V18.02c0-1.94,1.579-3.52,3.52-3.52H13v3.98
	C13,20.421,11.421,22,9.48,22z M7.52,16.5C6.682,16.5,6,17.182,6,18.02v0.461C6,19.318,6.682,20,7.52,20h1.96
	c0.838,0,1.52-0.682,1.52-1.52V16.5H7.52z"/>
<path style="fill:#333333;" d="M19.441,9.825L11,7.824V1.739l8.441,1.975V9.825z M13,6.243l4.441,1.053V5.3L13,4.261V6.243z"/>
</svg>






