<?xml version="1.0" encoding="iso-8859-1"?>
<svg version="1.1" id="&#x56FE;&#x5C42;_1" xmlns="http://www.w3.org/2000/svg" xmlns:xlink="http://www.w3.org/1999/xlink" x="0px"
	 y="0px" viewBox="0 0 24 24" style="enable-background:new 0 0 24 24;" xml:space="preserve">
<rect x="13.5" y="3" style="fill:#333333;" width="2" height="14.5"/>
<path style="fill:#333333;" d="M11.98,22h-1.96c-1.941,0-3.52-1.579-3.52-3.52V18.02c0-1.94,1.579-3.52,3.52-3.52h5.48v3.98
	C15.5,20.421,13.921,22,11.98,22z M10.02,16.5c-0.838,0-1.52,0.682-1.52,1.52v0.461c0,0.838,0.682,1.52,1.52,1.52h1.96
	c0.838,0,1.52-0.682,1.52-1.52V16.5H10.02z"/>
<path style="fill:#333333;" d="M21.941,9.825L13.5,7.824V1.739l8.441,1.975V9.825z M15.5,6.243l4.441,1.053V5.3L15.5,4.261V6.243z"
	/>
<rect x="3" y="3" style="fill:#333333;" width="7" height="2"/>
<rect x="3" y="7" style="fill:#333333;" width="7" height="2"/>
<rect x="3" y="11" style="fill:#333333;" width="5" height="2"/>
</svg>






