<?xml version="1.0" encoding="iso-8859-1"?>
<svg version="1.1" id="&#x56FE;&#x5C42;_1" xmlns="http://www.w3.org/2000/svg" xmlns:xlink="http://www.w3.org/1999/xlink" x="0px"
	 y="0px" viewBox="0 0 24 24" style="enable-background:new 0 0 24 24;" xml:space="preserve">
<path style="fill:#333333;" d="M12,23C5.935,23,1,18.065,1,12S5.935,1,12,1s11,4.935,11,11S18.065,23,12,23z M12,3
	c-4.962,0-9,4.038-9,9c0,4.963,4.038,9,9,9c4.963,0,9-4.037,9-9C21,7.038,16.963,3,12,3z"/>
<path style="fill:#333333;" d="M15.5,18h-1c-1.898,0-3.296-1.661-3.905-2.545H9.05c-0.854,0-1.55-0.698-1.55-1.556v-3.841
	c0-0.858,0.695-1.556,1.55-1.556h1.55C11.21,7.632,12.606,6,14.5,6h1V18z M9.5,13.455h2.229l0.287,0.51
	c0.205,0.361,0.788,1.185,1.483,1.666v-7.27c-0.698,0.473-1.282,1.284-1.488,1.641L11.723,10.5L9.5,10.503V13.455z"/>
</svg>






