<?xml version="1.0" encoding="iso-8859-1"?>
<svg version="1.1" id="&#x56FE;&#x5C42;_1" xmlns="http://www.w3.org/2000/svg" xmlns:xlink="http://www.w3.org/1999/xlink" x="0px"
	 y="0px" viewBox="0 0 24 24" style="enable-background:new 0 0 24 24;" xml:space="preserve">
<path style="fill:#333333;" d="M13.943,12h-3.886c-0.547,0-1.077-0.228-1.453-0.625C8.228,10.977,8.03,10.436,8.06,9.889l0.389-7
	C8.508,1.83,9.385,1,10.446,1h3.108c1.062,0,1.938,0.83,1.997,1.889l0.389,7c0.031,0.546-0.167,1.087-0.543,1.485
	S14.49,12,13.943,12z M10.446,3l-0.389,7h3.886l-0.389-7H10.446z"/>
<path style="fill:#333333;" d="M17,23H7c-1.378,0-2.5-1.121-2.5-2.5V14c0-2.206,1.794-4,4-4h7c2.206,0,4,1.794,4,4v6.5
	C19.5,21.879,18.379,23,17,23z M8.5,12c-1.103,0-2,0.897-2,2v6.5C6.5,20.775,6.724,21,7,21h10c0.275,0,0.5-0.225,0.5-0.5V14
	c0-1.103-0.897-2-2-2H8.5z"/>
<circle style="fill:#333333;" cx="12" cy="16.5" r="1.5"/>
</svg>






