<?xml version="1.0" encoding="iso-8859-1"?>
<svg version="1.1" id="&#x56FE;&#x5C42;_1" xmlns="http://www.w3.org/2000/svg" xmlns:xlink="http://www.w3.org/1999/xlink" x="0px"
	 y="0px" viewBox="0 0 24 24" style="enable-background:new 0 0 24 24;" xml:space="preserve">
<path style="fill:#333333;" d="M19,23H5c-1.103,0-2-0.897-2-2V11c0-1.103,0.897-2,2-2h14c1.103,0,2,0.897,2,2v10
	C21,22.103,20.103,23,19,23z M5,11H4.999L5,21h14V11H5z"/>
<path style="fill:#333333;" d="M16.5,11h-9V1h9V11z M9.5,9h5V3h-5V9z"/>
<path style="fill:#333333;" d="M14.72,19.5H9.28l0.9-4.5h3.639L14.72,19.5z M11.72,17.5h0.561l-0.1-0.5H11.82L11.72,17.5z"/>
<rect x="11" y="10" style="fill:#333333;" width="2" height="6"/>
<rect x="8.5" y="9" style="fill:#333333;" width="7" height="2"/>
</svg>






