<?xml version="1.0" encoding="iso-8859-1"?>
<svg version="1.1" id="&#x56FE;&#x5C42;_1" xmlns="http://www.w3.org/2000/svg" xmlns:xlink="http://www.w3.org/1999/xlink" x="0px"
	 y="0px" viewBox="0 0 24 24" style="enable-background:new 0 0 24 24;" xml:space="preserve">
<path style="fill:#333333;" d="M6.638,22.51c-0.754,0-1.55-0.213-2.29-0.636c-1.444-0.824-2.307-2.254-2.307-3.823
	c0-1.974,1.765-4.645,3.321-7.001C6.11,9.918,6.883,8.748,7.056,8.203c0.24-0.758,0.511-2.447,0.438-6.183l2-0.039
	c0.063,3.263-0.111,5.496-0.531,6.826c-0.257,0.812-0.996,1.93-1.932,3.346c-1.262,1.91-2.99,4.526-2.99,5.898
	c0,1.215,0.908,1.864,1.298,2.087c0.722,0.41,1.544,0.488,2.048,0.19l1.017,1.723C7.883,22.357,7.275,22.51,6.638,22.51z"/>
<path style="fill:#333333;" d="M17.703,22.487c-0.613,0-1.195-0.145-1.69-0.437l1.018-1.723c0.467,0.275,1.254,0.188,1.959-0.214
	c0.934-0.533,1.49-1.455,1.49-2.468c0-1.506-1.755-3.902-3.036-5.652c-0.964-1.315-1.725-2.354-1.988-3.188
	c-0.423-1.333-0.571-3.572-0.453-6.842L17,2.036c-0.134,3.731,0.123,5.413,0.361,6.166c0.165,0.521,0.943,1.583,1.695,2.611
	c1.604,2.191,3.423,4.673,3.423,6.833c0,1.739-0.934,3.312-2.499,4.204C19.24,22.273,18.448,22.487,17.703,22.487z"/>
<path style="fill:#333333;" d="M12.004,21c-1.906,0-2.75-1.246-3.308-2.07c-0.204-0.3-0.396-0.584-0.573-0.721
	c-0.146-0.113-0.419-0.324-1.125,0.077l-0.989-1.738c1.62-0.921,2.785-0.347,3.334,0.077c0.432,0.332,0.725,0.765,1.009,1.184
	C10.882,18.592,11.197,19,12.004,19c0.93,0,1.608-0.707,2.264-1.392c0.413-0.431,0.803-0.837,1.273-1.08
	c0.933-0.482,1.936-0.484,2.901-0.008l-0.885,1.793c-0.399-0.196-0.729-0.199-1.099-0.008c-0.175,0.09-0.479,0.407-0.747,0.687
	C14.899,19.84,13.787,21,12.004,21z"/>
<path style="fill:#333333;" d="M9.705,14.29l-1.994-0.156c0.036-0.449,0.09-0.915,0.37-1.673c0.361-0.978,0.854-1.558,1.329-2.069
	l1.465,1.361c-0.377,0.406-0.684,0.767-0.918,1.4C9.765,13.675,9.732,13.942,9.705,14.29z"/>
</svg>






