<?xml version="1.0" encoding="iso-8859-1"?>
<svg version="1.1" id="&#x56FE;&#x5C42;_1" xmlns="http://www.w3.org/2000/svg" xmlns:xlink="http://www.w3.org/1999/xlink" x="0px"
	 y="0px" viewBox="0 0 24 24" style="enable-background:new 0 0 24 24;" xml:space="preserve">
<path style="fill:#333333;" d="M12,14.5c-3.346,0-5.967-2.636-5.967-6L5.986,1.409L9.36,4.107L12,0.938l2.641,3.169L18,1.419V8.5
	C18,11.864,15.364,14.5,12,14.5z M8.014,5.591l0.019,2.902C8.033,10.78,9.738,12.5,12,12.5c2.28,0,4-1.72,4-4V5.581l-1.641,1.312
	L12,4.062L9.641,6.893L8.014,5.591z"/>
<path style="fill:#333333;" d="M10.976,22.939c-1.495,0-3.408-1.215-4.89-2.697c-2.043-2.043-3.579-4.905-2.122-6.363
	c1.458-1.457,4.32,0.077,6.364,2.121c2.043,2.044,3.579,4.907,2.122,6.364v0.001C12.05,22.765,11.542,22.939,10.976,22.939z
	 M5.397,15.311c-0.049,0.414,0.444,1.858,2.104,3.518c1.659,1.659,3.087,2.141,3.518,2.104c0.049-0.414-0.445-1.858-2.104-3.519
	C7.255,15.756,5.805,15.26,5.397,15.311z"/>
<path style="fill:#333333;" d="M13.181,22.768c-0.566,0-1.073-0.175-1.474-0.575h0c-1.457-1.458,0.079-4.321,2.123-6.364
	c2.043-2.043,4.906-3.577,6.363-2.121c1.457,1.457-0.078,4.32-2.121,6.364C16.589,21.553,14.676,22.768,13.181,22.768z
	 M13.139,20.761c0.443,0.045,1.861-0.446,3.519-2.104c1.659-1.66,2.152-3.105,2.104-3.519c-0.417-0.042-1.857,0.443-3.518,2.104
	S13.09,20.347,13.139,20.761z"/>
</svg>






