<?xml version="1.0" encoding="iso-8859-1"?>
<svg version="1.1" id="&#x56FE;&#x5C42;_1" xmlns="http://www.w3.org/2000/svg" xmlns:xlink="http://www.w3.org/1999/xlink" x="0px"
	 y="0px" viewBox="0 0 24 24" style="enable-background:new 0 0 24 24;" xml:space="preserve">
<g>
	<defs>
		<rect id="SVGID_1_" width="24" height="24"/>
	</defs>
	<clipPath id="SVGID_00000092445529121521794950000014376907346274880137_">
		<use xlink:href="#SVGID_1_"  style="overflow:visible;"/>
	</clipPath>
	<g style="clip-path:url(#SVGID_00000092445529121521794950000014376907346274880137_);">
		
			<rect x="15" y="3.05" transform="matrix(0.7071 -0.7071 0.7071 0.7071 -0.9706 13.6569)" style="fill:#333333;" width="2" height="9.899"/>
		
			<rect x="17.75" y="0.654" transform="matrix(0.7071 -0.7071 0.7071 0.7071 1.7794 14.7959)" style="fill:#333333;" width="2" height="9.192"/>
		
			<rect x="16.981" y="7.25" transform="matrix(0.7071 -0.7071 0.7071 0.7071 -0.3418 15.6738)" style="fill:#333333;" width="3.536" height="2"/>
		
			<rect x="13.981" y="4.25" transform="matrix(0.7071 -0.7071 0.7071 0.7071 0.9008 12.6738)" style="fill:#333333;" width="3.536" height="2"/>
		
			<rect x="2.482" y="18.75" transform="matrix(0.7071 -0.7071 0.7071 0.7071 -12.7206 8.7898)" style="fill:#333333;" width="3.536" height="2"/>
		<path style="fill:#333333;" d="M4.368,19.632l0.677-6.091L14,4.586L19.414,10l-8.955,8.955L4.368,19.632z M6.955,14.459
			l-0.323,2.909l2.909-0.323L16.586,10L14,7.414L6.955,14.459z"/>
	</g>
</g>
</svg>






