<?xml version="1.0" encoding="iso-8859-1"?>
<svg version="1.1" id="&#x56FE;&#x5C42;_1" xmlns="http://www.w3.org/2000/svg" xmlns:xlink="http://www.w3.org/1999/xlink" x="0px"
	 y="0px" viewBox="0 0 24 24" style="enable-background:new 0 0 24 24;" xml:space="preserve">
<path style="fill:#333333;" d="M3.854,21.985l-1.749-0.971l3.397-6.125l0.704,0.126c2.239,0.401,4.108,0.195,5.554-0.606
	c2.107-1.17,2.958-3.511,2.763-4.751c-0.084-0.525-0.418-1.064-0.742-1.584c-0.533-0.858-1.138-1.832-0.685-2.949
	c0.232-0.573,0.677-0.965,1.203-1.235c-0.398-0.607-1.073-1.39-1.777-1.39c-1.036,0-1.39,0.454-1.599,0.897L3.368,16.652
	l-1.737-0.99L9.148,2.477C9.552,1.612,10.5,0.5,12.521,0.5c1.864,0,3.109,1.697,3.63,2.578l1.496,0.223L17.516,5.29
	c-2.318,0.038-2.565,0.58-2.567,0.585c-0.071,0.175,0.291,0.757,0.53,1.143c0.388,0.625,0.871,1.402,1.018,2.327
	c0.338,2.135-0.979,5.266-3.767,6.812c-1.693,0.94-3.763,1.257-6.164,0.938L3.854,21.985z"/>
<path style="fill:#333333;" d="M7.529,14.487l-0.933-1.483c1.312-2.365,2.152-3.843,2.566-4.517
	c0.581-0.943,1.931-1.286,3.008-0.764c0.924,0.447,1.673,1.579,1.003,3.413C12.425,13.186,10.526,14.313,7.529,14.487z
	 M11.104,9.482c-0.108,0-0.21,0.03-0.247,0.066c-0.271,0.442-0.773,1.317-1.497,2.606c1.493-0.494,1.81-1.361,1.935-1.705
	c0.165-0.452,0.178-0.818,0.033-0.911C11.265,9.498,11.183,9.482,11.104,9.482z"/>
<path style="fill:#333333;" d="M18.409,18.213c-0.915,0-1.781-0.317-2.555-0.944l-0.581-0.471l0.288-0.69
	c0.693-1.664,1.76-2.696,3.168-3.069c1.395-0.368,2.685-0.139,3.836,0.682l0.659,0.47l-0.321,0.742
	c-0.679,1.564-1.723,2.59-3.105,3.048C19.326,18.136,18.862,18.213,18.409,18.213z M17.801,16.11
	c0.422,0.146,0.869,0.137,1.368-0.029c0.582-0.192,1.061-0.563,1.45-1.123c-0.429-0.123-0.88-0.116-1.378,0.014
	C18.665,15.124,18.189,15.499,17.801,16.11z"/>
<path style="fill:#333333;" d="M17.952,21.504c-0.52,0-1.094-0.075-1.724-0.254c-2.464-0.696-3.371-2.247-3.699-3.425l-0.239-0.864
	l0.833-0.332c1.453-0.58,2.803-0.786,4.019-0.614c1.304,0.186,2.655,1.112,4.134,2.834l0.624,0.727L21.2,20.23
	C20.524,20.862,19.466,21.504,17.952,21.504z M14.867,18.153c0.396,0.542,1.021,0.923,1.905,1.173
	c0.865,0.245,1.59,0.246,2.213-0.005c-0.991-0.969-1.688-1.264-2.125-1.326C16.263,17.909,15.596,17.963,14.867,18.153z"/>
</svg>






