<?xml version="1.0" encoding="iso-8859-1"?>
<svg version="1.1" id="&#x56FE;&#x5C42;_1" xmlns="http://www.w3.org/2000/svg" xmlns:xlink="http://www.w3.org/1999/xlink" x="0px"
	 y="0px" viewBox="0 0 24 24" style="enable-background:new 0 0 24 24;" xml:space="preserve">
<path style="fill:#333333;" d="M7,22H1v-6h6V22z M3,20h2v-2H3V20z"/>
<path style="fill:#333333;" d="M21,10H3V2h18V10z M5,8h14V4H5V8z"/>
<rect x="11" y="9" style="fill:#333333;" width="2" height="8"/>
<polygon style="fill:#333333;" points="21,17 19,17 19,14 5,14 5,17 3,17 3,12 21,12 "/>
<path style="fill:#333333;" d="M23,22h-6v-6h6V22z M19,20h2v-2h-2V20z"/>
<path style="fill:#333333;" d="M15,22H9v-6h6V22z M11,20h2v-2h-2V20z"/>
<rect x="7" y="5" style="fill:#333333;" width="1" height="2"/>
</svg>






