<?xml version="1.0" encoding="iso-8859-1"?>
<svg version="1.1" id="&#x56FE;&#x5C42;_1" xmlns="http://www.w3.org/2000/svg" xmlns:xlink="http://www.w3.org/1999/xlink" x="0px"
	 y="0px" viewBox="0 0 24 24" style="enable-background:new 0 0 24 24;" xml:space="preserve">
<path style="fill:#333333;" d="M20.834,18.977l-1.15-1.637c1.293-0.908,1.84-2.531,1.363-4.038
	c-0.436-1.376-1.816-2.265-3.517-2.265c-0.001,0-0.002,0-0.003,0h-1.937l-0.193-0.751c-0.651-2.538-2.837-4.444-5.44-4.743
	C7.347,5.24,4.792,6.603,3.582,8.925c-1.211,2.323-0.858,5.202,0.878,7.164l-1.498,1.326C0.68,14.836,0.217,11.053,1.808,8
	c1.591-3.053,4.956-4.838,8.378-4.445c3.157,0.364,5.849,2.527,6.917,5.482h0.423c0.002,0,0.004,0,0.005,0
	c2.59,0,4.718,1.437,5.422,3.661C23.695,15.041,22.844,17.563,20.834,18.977z"/>
<path style="fill:#333333;" d="M18,21.5H6v-5h12V21.5z M8,19.5h8v-1H8V19.5z"/>
<rect x="11" y="13" style="fill:#333333;" width="6" height="2"/>
<rect x="7" y="13" style="fill:#333333;" width="1" height="2"/>
</svg>






