<?xml version="1.0" encoding="iso-8859-1"?>
<svg version="1.1" id="&#x56FE;&#x5C42;_1" xmlns="http://www.w3.org/2000/svg" xmlns:xlink="http://www.w3.org/1999/xlink" x="0px"
	 y="0px" viewBox="0 0 24 24" style="enable-background:new 0 0 24 24;" xml:space="preserve">
<path style="fill:#333333;" d="M10.25,17.5c-1.11,0-1.676-0.945-2.051-1.57c-0.127-0.212-0.339-0.566-0.449-0.636
	c-0.116-0.031-0.555,0.071-0.816,0.134c-0.743,0.174-1.76,0.413-2.518-0.344s-0.519-1.779-0.344-2.524
	c0.062-0.265,0.165-0.707,0.125-0.842c-0.06-0.088-0.413-0.297-0.624-0.422C2.947,10.924,2,10.363,2,9.25
	c0-1.081,0.891-1.68,1.541-2.118c0.222-0.149,0.594-0.4,0.662-0.522C4.236,6.5,4.135,6.1,4.075,5.861
	C3.907,5.192,3.652,4.181,4.417,3.417C5.21,2.623,6.282,2.975,6.992,3.209C7.24,3.29,7.656,3.427,7.791,3.405
	C7.845,3.347,8.057,2.954,8.184,2.72C8.577,1.994,9.114,1,10.25,1c1.133,0,1.657,0.959,2.004,1.595
	c0.111,0.204,0.298,0.545,0.397,0.616c0.12,0.027,0.583-0.077,0.861-0.14c0.767-0.172,1.819-0.407,2.571,0.345
	c0.756,0.757,0.518,1.782,0.344,2.53c-0.062,0.267-0.166,0.713-0.125,0.85c0.06,0.086,0.411,0.292,0.621,0.415
	C17.552,7.579,18.5,8.134,18.5,9.25c0,1.084-0.854,1.651-1.419,2.026c-0.193,0.128-0.516,0.342-0.567,0.447
	c-0.059,0.142,0.005,0.593,0.047,0.893c0.104,0.736,0.246,1.744-0.476,2.468c-0.767,0.764-1.777,0.509-2.445,0.341
	c-0.239-0.06-0.639-0.162-0.759-0.123c-0.113,0.063-0.363,0.436-0.513,0.657C11.93,16.609,11.331,17.5,10.25,17.5z M7.688,13.296
	c0.28,0,0.565,0.042,0.843,0.157c0.687,0.285,1.073,0.931,1.383,1.448c0.096,0.16,0.241,0.403,0.352,0.538
	c0.135-0.14,0.321-0.417,0.443-0.597c0.353-0.524,0.752-1.117,1.408-1.39c0.71-0.294,1.431-0.114,2.011,0.032
	c0.164,0.041,0.392,0.099,0.541,0.117c-0.011-0.152-0.058-0.491-0.089-0.708c-0.085-0.605-0.181-1.291,0.087-1.938
	c0.273-0.66,0.847-1.041,1.308-1.346c0.139-0.092,0.351-0.232,0.466-0.336c-0.134-0.106-0.371-0.245-0.526-0.336
	c-0.523-0.306-1.174-0.687-1.461-1.38c-0.291-0.7-0.115-1.456,0.026-2.063c0.039-0.169,0.097-0.417,0.119-0.595
	c-0.19,0.021-0.463,0.083-0.647,0.124c-0.653,0.146-1.394,0.312-2.087,0.024c-0.711-0.295-1.074-0.96-1.366-1.495
	c-0.066-0.121-0.159-0.292-0.243-0.421c-0.106,0.159-0.228,0.384-0.312,0.54c-0.328,0.606-0.7,1.293-1.413,1.589
	C7.778,5.571,6.996,5.315,6.367,5.108C6.235,5.065,6.066,5.009,5.921,4.971c0.026,0.131,0.064,0.284,0.094,0.402
	c0.146,0.579,0.327,1.299,0.033,2.01c-0.272,0.656-0.866,1.056-1.39,1.408c-0.18,0.121-0.456,0.307-0.595,0.441
	c0.135,0.108,0.373,0.25,0.53,0.342c0.521,0.309,1.168,0.692,1.455,1.382c0.29,0.701,0.114,1.454-0.027,2.059
	c-0.039,0.165-0.095,0.408-0.118,0.583c0.173-0.022,0.411-0.079,0.574-0.117C6.84,13.395,7.259,13.296,7.688,13.296z"/>
<path style="fill:#333333;" d="M10,12c-1.654,0-3-1.346-3-3s1.346-3,3-3s3,1.346,3,3S11.654,12,10,12z M10,8C9.449,8,9,8.449,9,9
	s0.449,1,1,1s1-0.449,1-1S10.551,8,10,8z"/>
<path style="fill:#333333;" d="M11.21,23.002c-0.785,0-1.593-0.259-2.397-0.78c-1.706-1.106-2.201-3.525-1.513-7.396l1.969,0.35
	c-0.509,2.867-0.285,4.774,0.632,5.369c1.078,0.698,1.925,0.604,2.835-0.318c0.115-0.117,0.276-0.306,0.474-0.534
	c1.552-1.8,3.372-3.72,5.328-3.72c1.061,0,1.959,0.404,2.598,1.169c0.824,0.984,0.954,2.235,0.815,3.008
	c-0.175,0.975-0.67,1.747-1.431,2.233l-1.078-1.684c0.184-0.118,0.438-0.339,0.54-0.903c0.065-0.366-0.045-0.971-0.381-1.372
	c-0.254-0.304-0.602-0.451-1.063-0.451c-1.204,0-3.033,2.121-3.814,3.026c-0.233,0.271-0.426,0.492-0.563,0.632
	C13.261,22.542,12.256,23.002,11.21,23.002z"/>
</svg>






