<?xml version="1.0" encoding="iso-8859-1"?>
<svg version="1.1" id="&#x56FE;&#x5C42;_1" xmlns="http://www.w3.org/2000/svg" xmlns:xlink="http://www.w3.org/1999/xlink" x="0px"
	 y="0px" viewBox="0 0 24 24" style="enable-background:new 0 0 24 24;" xml:space="preserve">
<path style="fill:#333333;" d="M9.5,22h-5C3.122,22,2,20.879,2,19.5v-15C2,3.122,3.122,2,4.5,2h15C20.879,2,22,3.122,22,4.5v5h-2v-5
	C20,4.224,19.775,4,19.5,4h-15C4.224,4,4,4.224,4,4.5v15C4,19.775,4.224,20,4.5,20h5V22z"/>
<polygon style="fill:#333333;" points="15.293,20.707 10.586,16 15.293,11.293 16.707,12.707 13.414,16 16.707,19.293 "/>
<rect x="12" y="15" style="fill:#333333;" width="9" height="2"/>
</svg>






