<?xml version="1.0" encoding="iso-8859-1"?>
<svg version="1.1" id="&#x56FE;&#x5C42;_1" xmlns="http://www.w3.org/2000/svg" xmlns:xlink="http://www.w3.org/1999/xlink" x="0px"
	 y="0px" viewBox="0 0 24 24" style="enable-background:new 0 0 24 24;" xml:space="preserve">
<path style="fill:#333333;" d="M19.5,22h-15C3.122,22,2,20.879,2,19.5v-15C2,3.122,3.122,2,4.5,2h15C20.879,2,22,3.122,22,4.5v15
	C22,20.879,20.879,22,19.5,22z M4.5,4C4.224,4,4,4.224,4,4.5v15C4,19.775,4.224,20,4.5,20h15c0.275,0,0.5-0.225,0.5-0.5v-15
	C20,4.224,19.775,4,19.5,4H4.5z"/>
<path style="fill:#333333;" d="M15.35,15.259L9.022,9.836l-5.346,4.901l-1.352-1.475l5.347-4.901
	c0.745-0.685,1.885-0.703,2.653-0.044l6.327,5.424L15.35,15.259z"/>
<path style="fill:#333333;" d="M20.4,12.8l-3.306-2.479l-2.388,2.387l-1.414-1.414l2.387-2.387c0.698-0.7,1.822-0.779,2.614-0.186
	L21.6,11.2L20.4,12.8z"/>
<rect x="2" y="10" style="fill:#333333;" width="2" height="5"/>
<rect x="20" y="10" style="fill:#333333;" width="2" height="5"/>
</svg>






