<?xml version="1.0" encoding="iso-8859-1"?>
<svg version="1.1" id="&#x56FE;&#x5C42;_1" xmlns="http://www.w3.org/2000/svg" xmlns:xlink="http://www.w3.org/1999/xlink" x="0px"
	 y="0px" viewBox="0 0 24 24" style="enable-background:new 0 0 24 24;" xml:space="preserve">
<path style="fill:#333333;" d="M9.542,21.5c-0.015,0-0.03,0-0.044,0c-3.3-0.01-6.365-1.569-8.133-3.025L1,18.175V8.5h2v8.717
	c1.536,1.146,3.942,2.275,6.503,2.283c2.485-0.008,4.55-0.732,6.35-2.262c1.746-1.484,2.332-3.226,2.898-4.908
	c0.36-1.071,0.708-2.104,1.331-2.948c-1.247-0.206-2.963,0.198-5.32,2.969C13.06,14.353,10.777,15.5,8.5,15.5v-2
	c1.69,0,3.417-0.891,4.738-2.445c4.399-5.174,7.686-3.654,9.09-3.005l0.15,1.828c-0.971,0.529-1.351,1.659-1.832,3.09
	c-0.593,1.76-1.33,3.95-3.499,5.794C14.981,20.604,12.492,21.5,9.542,21.5z"/>
<path style="fill:#333333;" d="M2.824,7.933c-0.313-0.455-0.935-0.57-1.391-0.258s-0.57,0.935-0.258,1.391L2.824,7.933z
	 M18.001,17.865c0.478-0.277,0.641-0.889,0.364-1.367c-0.277-0.478-0.889-0.641-1.367-0.364L18.001,17.865z M1.176,9.067
	c1.446,2.103,4.224,5.005,7.267,7.045c1.524,1.021,3.165,1.861,4.781,2.254c1.623,0.395,3.298,0.355,4.777-0.501l-1.002-1.731
	c-0.896,0.519-2.002,0.604-3.302,0.288c-1.306-0.318-2.727-1.025-4.141-1.972c-2.831-1.898-5.429-4.62-6.733-6.517L1.176,9.067z"/>
<path style="fill:#333333;" d="M12.605,12.447C11.193,9.623,8.771,7.5,6.825,5.793C6.148,5.2,5.564,4.688,5.085,4.202L5.797,2.5
	h8.383l0.286,0.257c1.974,1.78,3.01,4.607,3.28,5.431l-1.9,0.624c-0.155-0.475-0.973-2.803-2.451-4.312H8.384
	c1.942,1.706,4.486,4.005,6.011,7.053L12.605,12.447z"/>
</svg>






