<?xml version="1.0" encoding="iso-8859-1"?>
<svg version="1.1" id="&#x56FE;&#x5C42;_1" xmlns="http://www.w3.org/2000/svg" xmlns:xlink="http://www.w3.org/1999/xlink" x="0px"
	 y="0px" viewBox="0 0 24 24" style="enable-background:new 0 0 24 24;" xml:space="preserve">
<rect x="9.75" y="17.984" transform="matrix(0.9923 -0.124 0.124 0.9923 -2.3977 1.4878)" style="fill:#333333;" width="2" height="4.031"/>
<path style="fill:#333333;" d="M22,23H11l-0.752-1.658l3.205-3.663L11.867,5H22V23z M13.204,21H20V7h-5.867l1.415,11.321L13.204,21z
	"/>
<rect x="14" y="13" style="fill:#333333;" width="2.5" height="2"/>
<rect x="13.5" y="9" style="fill:#333333;" width="3" height="2"/>
<path style="fill:#333333;" d="M15.633,19H2V1h11.383L15.633,19z M4,17h9.367l-1.75-14H4V17z"/>
<rect x="6" y="5" style="fill:#333333;" width="3.5" height="2"/>
<rect x="6" y="9" style="fill:#333333;" width="4" height="2"/>
<rect x="6" y="13" style="fill:#333333;" width="4.5" height="2"/>
</svg>






