<?xml version="1.0" encoding="iso-8859-1"?>
<svg version="1.1" id="&#x56FE;&#x5C42;_1" xmlns="http://www.w3.org/2000/svg" xmlns:xlink="http://www.w3.org/1999/xlink" x="0px"
	 y="0px" viewBox="0 0 24 24" style="enable-background:new 0 0 24 24;" xml:space="preserve">
<path style="fill:#333333;" d="M14.675,21.179L12.94,20.5v-4.469c-1.341-0.121-2.755-0.028-4.215,0.281
	c-1.662,0.353-3.664,1.947-5.952,4.739l-1.769-0.734c0.363-3.576,1.752-6.61,4.128-9.02c2.17-2.2,4.793-3.432,7.807-3.671V3.5
	l1.716-0.698l8.722,8.952L14.675,21.179z M11.784,13.979c0.791,0,1.565,0.062,2.319,0.185l0.838,0.138v3.642l5.682-6.152
	L14.94,5.959v3.616l-0.992,0.008c-2.925,0.023-5.343,1.043-7.391,3.119c-1.227,1.243-2.148,2.686-2.758,4.31
	c1.603-1.479,3.094-2.354,4.511-2.656C9.494,14.104,10.656,13.979,11.784,13.979z"/>
</svg>






