<?xml version="1.0" encoding="iso-8859-1"?>
<svg version="1.1" id="&#x56FE;&#x5C42;_1" xmlns="http://www.w3.org/2000/svg" xmlns:xlink="http://www.w3.org/1999/xlink" x="0px"
	 y="0px" viewBox="0 0 24 24" style="enable-background:new 0 0 24 24;" xml:space="preserve">
<rect x="12.343" y="15" transform="matrix(0.7071 -0.7071 0.7071 0.7071 -6.6274 16)" style="fill:#333333;" width="7.314" height="2"/>
<rect x="4.343" y="15" transform="matrix(0.7071 -0.7071 0.7071 0.7071 -8.9706 10.3431)" style="fill:#333333;" width="7.314" height="2"/>
<rect x="12.343" y="7" transform="matrix(0.7071 -0.7071 0.7071 0.7071 -0.9706 13.6569)" style="fill:#333333;" width="7.314" height="2"/>
<rect x="4.343" y="7" transform="matrix(0.7071 -0.7071 0.7071 0.7071 -3.3137 8)" style="fill:#333333;" width="7.314" height="2"/>
<path style="fill:#333333;" d="M4,7C2.346,7,1,5.654,1,4s1.346-3,3-3s3,1.346,3,3S5.654,7,4,7z M4,3C3.449,3,3,3.449,3,4
	s0.449,1,1,1s1-0.449,1-1S4.551,3,4,3z"/>
<path style="fill:#333333;" d="M12,7c-1.654,0-3-1.346-3-3s1.346-3,3-3s3,1.346,3,3S13.654,7,12,7z M12,3c-0.551,0-1,0.449-1,1
	s0.449,1,1,1c0.552,0,1-0.449,1-1S12.552,3,12,3z"/>
<path style="fill:#333333;" d="M20,7c-1.654,0-3-1.346-3-3s1.346-3,3-3s3,1.346,3,3S21.654,7,20,7z M20,3c-0.552,0-1,0.449-1,1
	s0.448,1,1,1s1-0.449,1-1S20.552,3,20,3z"/>
<path style="fill:#333333;" d="M20,15c-1.654,0-3-1.346-3-3s1.346-3,3-3s3,1.346,3,3S21.654,15,20,15z M20,11c-0.552,0-1,0.449-1,1
	c0,0.552,0.448,1,1,1s1-0.448,1-1C21,11.449,20.552,11,20,11z"/>
<path style="fill:#333333;" d="M20,23c-1.654,0-3-1.346-3-3s1.346-3,3-3s3,1.346,3,3S21.654,23,20,23z M20,19c-0.552,0-1,0.448-1,1
	s0.448,1,1,1s1-0.448,1-1S20.552,19,20,19z"/>
<path style="fill:#333333;" d="M12,23c-1.654,0-3-1.346-3-3s1.346-3,3-3s3,1.346,3,3S13.654,23,12,23z M12,19c-0.551,0-1,0.448-1,1
	s0.449,1,1,1c0.552,0,1-0.448,1-1S12.552,19,12,19z"/>
<path style="fill:#333333;" d="M4,23c-1.654,0-3-1.346-3-3s1.346-3,3-3s3,1.346,3,3S5.654,23,4,23z M4,19c-0.551,0-1,0.448-1,1
	s0.449,1,1,1s1-0.448,1-1S4.551,19,4,19z"/>
<path style="fill:#333333;" d="M4,15c-1.654,0-3-1.346-3-3s1.346-3,3-3s3,1.346,3,3S5.654,15,4,15z M4,11c-0.551,0-1,0.449-1,1
	c0,0.552,0.449,1,1,1s1-0.448,1-1C5,11.449,4.551,11,4,11z"/>
<path style="fill:#333333;" d="M12,15c-1.654,0-3-1.346-3-3s1.346-3,3-3s3,1.346,3,3S13.654,15,12,15z M12,11c-0.551,0-1,0.449-1,1
	c0,0.552,0.449,1,1,1c0.552,0,1-0.448,1-1C13,11.449,12.552,11,12,11z"/>
</svg>






