<?xml version="1.0" encoding="iso-8859-1"?>
<svg version="1.1" id="&#x56FE;&#x5C42;_1" xmlns="http://www.w3.org/2000/svg" xmlns:xlink="http://www.w3.org/1999/xlink" x="0px"
	 y="0px" viewBox="0 0 24 24" style="enable-background:new 0 0 24 24;" xml:space="preserve">
<path style="fill:#333333;" d="M19.5,22h-15C3.122,22,2,20.879,2,19.5v-15C2,3.122,3.122,2,4.5,2h15C20.879,2,22,3.122,22,4.5v15
	C22,20.879,20.879,22,19.5,22z M4.5,4C4.224,4,4,4.224,4,4.5v15C4,19.775,4.224,20,4.5,20h15c0.275,0,0.5-0.225,0.5-0.5v-15
	C20,4.224,19.775,4,19.5,4H4.5z"/>
<path style="fill:#333333;" d="M12.25,13.5c-2.068,0-3.75-1.682-3.75-3.75S10.182,6,12.25,6C14.317,6,16,7.682,16,9.75
	S14.317,13.5,12.25,13.5z M12.25,8c-0.965,0-1.75,0.785-1.75,1.75s0.785,1.75,1.75,1.75S14,10.715,14,9.75S13.215,8,12.25,8z"/>
<path style="fill:#333333;" d="M12.25,17.5c-1.715,0-3.059-0.966-3.687-2.65l1.874-0.699c0.334,0.896,0.944,1.35,1.813,1.35
	c0.965,0,1.75-0.897,1.75-2V10h2v3.5C16,15.706,14.317,17.5,12.25,17.5z"/>
</svg>






