<?xml version="1.0" encoding="iso-8859-1"?>
<svg version="1.1" id="&#x56FE;&#x5C42;_1" xmlns="http://www.w3.org/2000/svg" xmlns:xlink="http://www.w3.org/1999/xlink" x="0px"
	 y="0px" viewBox="0 0 24 24" style="enable-background:new 0 0 24 24;" xml:space="preserve">
<path style="fill:#333333;" d="M11,22H9c-3.003,0-4.657,0-5.829-1.172S2,18.003,2,15V9c0-3.003,0-4.657,1.172-5.829
	C4.343,2,5.997,2,9,2h2V22z M9,4C6.345,4,5.148,4.024,4.586,4.586C4.024,5.148,4,6.345,4,9v6c0,2.654,0.024,3.852,0.586,4.414
	S6.345,20,9,20V4z"/>
<path style="fill:#333333;" d="M15,22h-2V2h2c3.003,0,4.656,0,5.828,1.172C22,4.343,22,5.997,22,9v6c0,3.003,0,4.656-1.172,5.828
	S18.003,22,15,22z M15,4v16c2.654,0,3.852-0.023,4.414-0.586S20,17.654,20,15V9c0-2.655-0.023-3.852-0.586-4.414
	C18.852,4.024,17.654,4,15,4z"/>
<rect x="16.5" y="6.5" style="fill:#333333;" width="2" height="1"/>
<rect x="5.5" y="16.5" style="fill:#333333;" width="2" height="1"/>
</svg>






