<?xml version="1.0" encoding="iso-8859-1"?>
<svg version="1.1" id="&#x56FE;&#x5C42;_1" xmlns="http://www.w3.org/2000/svg" xmlns:xlink="http://www.w3.org/1999/xlink" x="0px"
	 y="0px" viewBox="0 0 24 24" style="enable-background:new 0 0 24 24;" xml:space="preserve">
<path style="fill:#333333;" d="M18.118,7H5.882l2.5-5h7.236L18.118,7z M9.118,5h5.764l-0.5-1H9.618L9.118,5z"/>
<path style="fill:#333333;" d="M20.5,22h-17C2.122,22,1,20.923,1,19.6V7.4C1,6.077,2.122,5,3.5,5h17C21.879,5,23,6.077,23,7.4v12.2
	C23,20.923,21.879,22,20.5,22z M3.5,7C3.229,7,3,7.183,3,7.4v12.2C3,19.816,3.229,20,3.5,20h17c0.271,0,0.5-0.184,0.5-0.4V7.4
	C21,7.183,20.771,7,20.5,7H3.5z"/>
<rect x="7.969" y="12.5" transform="matrix(0.4961 -0.8682 0.8682 0.4961 -5.6749 17.221)" style="fill:#333333;" width="8.062" height="2"/>
<path style="fill:#333333;" d="M12,18.5c-2.757,0-5-2.243-5-5s2.243-5,5-5s5,2.243,5,5S14.757,18.5,12,18.5z M12,10.5
	c-1.654,0-3,1.346-3,3s1.346,3,3,3s3-1.346,3-3S13.654,10.5,12,10.5z"/>
</svg>






