<?xml version="1.0" encoding="iso-8859-1"?>
<svg version="1.1" id="&#x56FE;&#x5C42;_1" xmlns="http://www.w3.org/2000/svg" xmlns:xlink="http://www.w3.org/1999/xlink" x="0px"
	 y="0px" viewBox="0 0 24 24" style="enable-background:new 0 0 24 24;" xml:space="preserve">
<path style="fill:#333333;" d="M19.5,23h-14C4.673,23,4,22.327,4,21.5v-17C4,3.673,4.673,3,5.5,3H9v2H6v16h13V5h-3V3h3.5
	C20.327,3,21,3.673,21,4.5v17C21,22.327,20.327,23,19.5,23z"/>
<path style="fill:#333333;" d="M15.5,8h-6C8.673,8,8,7.327,8,6.5V3h2c0-1.378,1.122-2.5,2.5-2.5C13.879,0.5,15,1.622,15,3h2v3.5
	C17,7.327,16.327,8,15.5,8z M10,6h5V5h-1.976L13,3c0-0.276-0.225-0.5-0.5-0.5S12,2.724,12,3v1.975L10,5V6z"/>
</svg>






