<?xml version="1.0" encoding="iso-8859-1"?>
<svg version="1.1" id="&#x56FE;&#x5C42;_1" xmlns="http://www.w3.org/2000/svg" xmlns:xlink="http://www.w3.org/1999/xlink" x="0px"
	 y="0px" viewBox="0 0 24 24" style="enable-background:new 0 0 24 24;" xml:space="preserve">
<path style="fill:#333333;" d="M20,23H6c-1.103,0-2-0.897-2-2V3c0-1.103,0.897-2,2-2h14c1.103,0,2,0.897,2,2v18
	C22,22.103,21.103,23,20,23z M6,3v18h14V3H6z"/>
<rect x="16" y="3" style="fill:#333333;" width="2" height="18"/>
<rect x="3" y="6" style="fill:#333333;" width="4" height="2"/>
<rect x="3" y="11" style="fill:#333333;" width="4" height="2"/>
<rect x="3" y="16" style="fill:#333333;" width="4" height="2"/>
<rect x="13.5" y="1" style="fill:#333333;" width="6" height="2"/>
<rect x="13.5" y="21" style="fill:#333333;" width="6" height="2"/>
</svg>






