<?xml version="1.0" encoding="iso-8859-1"?>
<svg version="1.1" id="&#x56FE;&#x5C42;_1" xmlns="http://www.w3.org/2000/svg" xmlns:xlink="http://www.w3.org/1999/xlink" x="0px"
	 y="0px" viewBox="0 0 24 24" style="enable-background:new 0 0 24 24;" xml:space="preserve">
<rect x="2" y="21" style="fill:#333333;" width="20" height="2"/>
<rect x="6" y="6" style="fill:#333333;" width="12" height="2"/>
<path style="fill:#333333;" d="M21.104,23H2.895l0.554-5.545c0.045-0.443,0.138-0.881,0.278-1.301l1.667-5.001
	c0.083-0.249,0.142-0.507,0.175-0.769L6.117,6h11.766l0.548,4.385c0.032,0.259,0.092,0.519,0.175,0.771l1.666,4.999
	c0.141,0.422,0.234,0.859,0.279,1.3L21.104,23z M5.105,21h13.791l-0.335-3.346c-0.029-0.294-0.092-0.586-0.186-0.867l-1.667-5.001
	c-0.125-0.377-0.213-0.764-0.262-1.153L16.117,8H7.883l-0.329,2.633c-0.049,0.394-0.138,0.781-0.262,1.154l-1.667,5
	c-0.093,0.28-0.156,0.572-0.186,0.868L5.105,21z"/>
<path style="fill:#333333;" d="M12.707,4.707l-1.414-1.414l0.414-0.414C12.273,2.312,13.027,2,13.828,2h0.344
	c0.263,0,0.521-0.107,0.707-0.293l0.414-0.414l1.414,1.414l-0.414,0.414C15.727,3.688,14.973,4,14.172,4h-0.344
	c-0.263,0-0.521,0.107-0.707,0.293L12.707,4.707z"/>
<path style="fill:#333333;" d="M10.245,19.646c-0.569-0.242-1.075-0.592-1.502-1.041C7.941,17.765,7.5,16.662,7.5,15.5h2
	c0,0.646,0.245,1.258,0.69,1.725c0.238,0.25,0.52,0.445,0.836,0.579L10.245,19.646z"/>
<path style="fill:#333333;" d="M13.755,19.646l-0.781-1.842c0.316-0.134,0.598-0.329,0.835-0.578
	c0.446-0.467,0.691-1.079,0.691-1.726h2c0,1.163-0.441,2.266-1.243,3.105C14.83,19.054,14.325,19.403,13.755,19.646z"/>
<path style="fill:#333333;" d="M10.19,13.775l-1.446-1.381C9.602,11.495,10.758,11,12,11c1.243,0,2.399,0.496,3.257,1.395
	l-1.447,1.381C12.857,12.776,11.146,12.775,10.19,13.775z"/>
<circle style="fill:#333333;" cx="12" cy="15.5" r="1"/>
</svg>






