<?xml version="1.0" encoding="iso-8859-1"?>
<svg version="1.1" id="&#x56FE;&#x5C42;_1" xmlns="http://www.w3.org/2000/svg" xmlns:xlink="http://www.w3.org/1999/xlink" x="0px"
	 y="0px" viewBox="0 0 24 24" style="enable-background:new 0 0 24 24;" xml:space="preserve">
<path style="fill:#333333;" d="M17.729,19.787c-0.229,0-0.459-0.05-0.669-0.15C16.17,19.212,14.33,18.5,12,18.5
	c-2.331,0-4.17,0.712-5.059,1.137c-0.381,0.183-0.827,0.2-1.223,0.05c-0.389-0.148-0.703-0.45-0.863-0.829l-3.663-8.699
	C0.969,9.629,1.064,9.038,1.44,8.615C2.404,7.532,6.012,4,12,4c5.99,0,9.597,3.532,10.56,4.614c0.376,0.424,0.472,1.015,0.249,1.544
	l-3.663,8.698c-0.16,0.38-0.475,0.682-0.863,0.83C18.104,19.754,17.917,19.787,17.729,19.787z M12,16.5
	c2.391,0,4.343,0.643,5.489,1.136l3.345-7.942C19.754,8.57,16.759,6,12,6C7.244,6,4.249,8.569,3.167,9.693l3.344,7.942
	C7.657,17.143,9.609,16.5,12,16.5z"/>
<rect x="10" y="11.001" style="fill:#333333;" width="4" height="2"/>
<rect x="11" y="10" style="fill:#333333;" width="2" height="4"/>
</svg>






