<?xml version="1.0" encoding="iso-8859-1"?>
<svg version="1.1" id="&#x56FE;&#x5C42;_1" xmlns="http://www.w3.org/2000/svg" xmlns:xlink="http://www.w3.org/1999/xlink" x="0px"
	 y="0px" viewBox="0 0 24 24" style="enable-background:new 0 0 24 24;" xml:space="preserve">
<path style="fill:#333333;" d="M18.385,7.467c-0.304,0-0.571-0.084-0.774-0.29l-0.136-0.134c-1.048-1.031-1.677-1.703-1.42-2.484
	l0.086-0.262l0.208-0.181c0.422-0.367,1.069-1.056,1.456-1.467c0.146-0.156,0.264-0.28,0.333-0.351l0.537-0.544l0.666,0.375
	c2.494,1.406,2.766,1.682,2.855,1.772c0.331,0.335,0.398,0.833,0.171,1.266c-0.071,0.137-0.169,0.264-0.308,0.401
	C22.034,5.593,19.812,7.467,18.385,7.467z M19.02,5.757l0.015,0.015C19.029,5.767,19.024,5.762,19.02,5.757z M18.296,5.025
	c0.098,0.104,0.214,0.224,0.348,0.359c0.329-0.15,0.792-0.406,1.197-0.657c-0.241-0.143-0.515-0.303-0.804-0.47
	C18.811,4.497,18.552,4.769,18.296,5.025z"/>
<path style="fill:#333333;" d="M9.827,22.748c-2.334,0-4.492-0.892-6.005-2.538c-1.336-1.455-2.066-3.402-2.054-5.483l0.007-1.252
	l1.219,0.284c0.421,0.096,0.921-0.265,0.921-0.739c0-0.356-0.252-0.668-0.599-0.74l-1.208-0.253l0.498-1.129
	c0.555-1.26,1.352-2.399,2.369-3.385L6.667,8.14l-0.889,0.2l0.007,0.008l0.892-0.12l0.016,0.117C6.807,9.189,7.507,9.84,8.358,9.893
	c1.468,0.09,2.763,1.033,3.299,2.403l0.045,0.116c0.24,0.613,0.768,1.067,1.41,1.214l0.841,0.189
	c0.889,0.202,1.632,0.823,1.988,1.662c0.255,0.603,0.956,0.921,1.59,0.732l1.135,1.49c-0.515,0.816-1.142,1.566-1.863,2.229
	c-1.445,1.327-3.184,2.231-5.026,2.615C11.12,22.682,10.467,22.748,9.827,22.748z M3.829,15.694
	c0.166,1.209,0.664,2.289,1.465,3.162c1.447,1.575,3.72,2.219,6.075,1.73c1.49-0.311,2.901-1.047,4.08-2.13
	c0.152-0.14,0.3-0.285,0.441-0.434c-0.783-0.318-1.439-0.935-1.791-1.766c-0.105-0.248-0.325-0.432-0.588-0.491l-0.842-0.19
	c-1.292-0.294-2.349-1.205-2.831-2.437l-0.045-0.116c-0.253-0.646-0.865-1.092-1.558-1.135c-1.22-0.075-2.294-0.731-2.935-1.703
	c-0.155,0.218-0.3,0.442-0.434,0.672c0.644,0.511,1.049,1.3,1.049,2.162C5.916,14.309,5.026,15.394,3.829,15.694z"/>
<path style="fill:#333333;" d="M17.151,18.268c-0.42,0-0.842-0.081-1.245-0.242c-0.822-0.33-1.464-0.957-1.807-1.766
	c-0.105-0.25-0.325-0.434-0.588-0.493l-0.842-0.19c-1.292-0.295-2.35-1.205-2.831-2.438l-0.044-0.112
	c-0.254-0.649-0.866-1.095-1.56-1.138c-1.801-0.11-3.284-1.489-3.524-3.278L4.695,8.498C4.537,7.318,4.911,6.147,5.721,5.281
	l0.126-0.135c1.27-1.357,2.987-2.204,4.835-2.386l0.703-0.069c1.394-0.137,2.816,0.061,4.12,0.572
	c1.515,0.594,2.837,1.592,3.822,2.885l0.126,0.165c1.158,1.52,1.835,3.329,1.956,5.234l0.054,0.846
	c0.027,0.435,0.007,0.871-0.06,1.3L21.3,14.358c-0.25,1.6-1.337,2.993-2.835,3.637C18.044,18.177,17.598,18.268,17.151,18.268z
	 M7.308,6.512L7.182,6.647C6.783,7.073,6.599,7.649,6.677,8.228l0.016,0.113c0.114,0.848,0.814,1.5,1.665,1.552
	c1.468,0.09,2.763,1.034,3.299,2.403l0.044,0.113c0.241,0.616,0.769,1.07,1.411,1.217l0.841,0.189
	c0.889,0.201,1.632,0.823,1.988,1.663c0.133,0.315,0.386,0.561,0.71,0.69c0.332,0.133,0.696,0.13,1.023-0.011
	c0.872-0.375,1.504-1.184,1.648-2.109l0.104-0.665c0.045-0.284,0.058-0.576,0.04-0.865l-0.054-0.845
	c-0.096-1.509-0.632-2.943-1.55-4.147l-0.126-0.165c-0.765-1.003-1.789-1.776-2.963-2.237c-1.012-0.396-2.115-0.55-3.194-0.443
	L10.878,4.75C9.514,4.884,8.245,5.51,7.308,6.512z"/>
</svg>






