<?xml version="1.0" encoding="iso-8859-1"?>
<svg version="1.1" id="&#x56FE;&#x5C42;_1" xmlns="http://www.w3.org/2000/svg" xmlns:xlink="http://www.w3.org/1999/xlink" x="0px"
	 y="0px" viewBox="0 0 24 24" style="enable-background:new 0 0 24 24;" xml:space="preserve">
<path style="fill:#333333;" d="M15.947,22H8.151l-0.115-0.869c-0.141-1.061-0.306-1.478-0.376-1.616C3.609,17.792,1,13.878,1,9.5v-1
	h22v1c0,4.408-2.744,8.436-6.854,10.094c-0.053,0.168-0.143,0.572-0.169,1.437L15.947,22z M9.879,20h4.161
	c0.111-1.025,0.4-1.895,1.184-2.192c3.138-1.19,5.34-4.053,5.719-7.308H3.056c0.361,3.198,2.44,5.969,5.501,7.222
	C9.212,17.99,9.616,18.67,9.879,20z"/>
<path style="fill:#333333;" d="M8.399,16.33c-0.494-0.376-0.917-0.794-1.259-1.24c-0.368-0.48-0.662-1.082-0.876-1.788l1.914-0.58
	c0.144,0.476,0.329,0.864,0.55,1.153c0.234,0.305,0.53,0.596,0.882,0.863L8.399,16.33z"/>
<path style="fill:#333333;" d="M4.723,9.732L2.777,9.268c0.926-3.889,4.195-6.807,8.133-7.261l0.229,1.986
	C8.034,4.352,5.455,6.658,4.723,9.732z M19.277,9.73c-0.289-1.214-0.883-2.35-1.715-3.283l1.492-1.331
	c1.053,1.18,1.802,2.615,2.168,4.15L19.277,9.73z M15.613,4.882c-0.562-0.313-1.162-0.553-1.783-0.71l0.492-1.938
	c0.79,0.201,1.552,0.504,2.266,0.903L15.613,4.882z"/>
</svg>






