<?xml version="1.0" encoding="iso-8859-1"?>
<svg version="1.1" id="&#x56FE;&#x5C42;_1" xmlns="http://www.w3.org/2000/svg" xmlns:xlink="http://www.w3.org/1999/xlink" x="0px"
	 y="0px" viewBox="0 0 24 24" style="enable-background:new 0 0 24 24;" xml:space="preserve">
<polygon style="fill:#333333;" points="20.5,10.5 13.5,10.5 13.5,3.5 15.5,3.5 15.5,8.5 20.5,8.5 "/>
<polygon style="fill:#333333;" points="4,9 2,9 2,2 9,2 9,4 4,4 "/>
<polygon style="fill:#333333;" points="22,22 15,22 15,20 20,20 20,15 22,15 "/>
<polygon style="fill:#333333;" points="10.5,20.5 8.5,20.5 8.5,15.5 3.5,15.5 3.5,13.5 10.5,13.5 "/>
<rect x="13.154" y="5.25" transform="matrix(0.7071 -0.7071 0.7071 0.7071 0.7794 14.3817)" style="fill:#333333;" width="9.192" height="2"/>
<rect x="1.654" y="16.75" transform="matrix(0.7071 -0.7071 0.7071 0.7071 -10.7206 9.6183)" style="fill:#333333;" width="9.192" height="2"/>
</svg>






