<?xml version="1.0" encoding="iso-8859-1"?>
<svg version="1.1" id="&#x56FE;&#x5C42;_1" xmlns="http://www.w3.org/2000/svg" xmlns:xlink="http://www.w3.org/1999/xlink" x="0px"
	 y="0px" viewBox="0 0 24 24" style="enable-background:new 0 0 24 24;" xml:space="preserve">
<path style="fill:#333333;" d="M20,22H4V2h16V22z M6,20h12V4H6V20z"/>
<path style="fill:#333333;" d="M11.887,16c-1.036,0-2.041-0.676-2.559-1.722c-0.504-1.017-0.43-2.116,0.197-2.939l0,0
	c0.645-0.847,1.163-2.071,1.441-2.729l1.725-0.206c0.523,0.708,1.729,2.565,2.143,3.654c0.314,0.826,0.181,1.754-0.366,2.547
	C13.875,15.466,12.886,16,11.887,16z M12.046,11.047c-0.264,0.509-0.575,1.039-0.929,1.502h0c-0.231,0.305-0.056,0.721,0.004,0.84
	c0.175,0.354,0.498,0.61,0.767,0.61c0.346,0,0.712-0.208,0.934-0.529c0.08-0.115,0.253-0.414,0.144-0.701
	C12.806,12.352,12.438,11.688,12.046,11.047z"/>
<rect x="3" y="2" style="fill:#333333;" width="18" height="2"/>
<rect x="3" y="20" style="fill:#333333;" width="18" height="2"/>
<rect x="3" y="11" style="fill:#333333;" width="2" height="2"/>
<rect x="19" y="11" style="fill:#333333;" width="2" height="2"/>
</svg>






