<?xml version="1.0" encoding="iso-8859-1"?>
<svg version="1.1" id="&#x56FE;&#x5C42;_1" xmlns="http://www.w3.org/2000/svg" xmlns:xlink="http://www.w3.org/1999/xlink" x="0px"
	 y="0px" viewBox="0 0 24 24" style="enable-background:new 0 0 24 24;" xml:space="preserve">
<path style="fill:#333333;" d="M12.217,23.313c-2.457,0-4.671-1.65-5.367-2.345c-0.235-0.235-0.456-0.496-0.658-0.778
	c-0.438-0.609-0.44-1.403-0.03-2.01c-0.035-0.019-0.07-0.038-0.104-0.06c-0.48-0.299-0.78-0.797-0.824-1.367
	c-0.083-1.08,0.011-3.159,1.569-4.939v0c1.538-1.757,3.344-2.648,5.367-2.648c0.946,0,3.757,0.427,5.384,2.379
	c1.77,2.123,2.27,4.84,1.305,7.091c-1.053,2.458-3.459,4.321-5.987,4.637C12.653,23.3,12.434,23.313,12.217,23.313z M7.936,19.183
	c0.105,0.134,0.215,0.259,0.33,0.373c0.401,0.4,2.445,1.967,4.36,1.732c1.848-0.23,3.614-1.613,4.397-3.439
	c0.667-1.557,0.282-3.481-1.004-5.023c-1.147-1.378-3.326-1.66-3.847-1.66c-0.53,0-2.142,0-3.862,1.965
	c-0.95,1.086-1.11,2.359-1.094,3.171c0.278-0.12,0.504-0.235,0.653-0.334c0.214-0.144,0.215-0.151,0.272-0.574
	c0.034-0.252,0.077-0.565,0.198-0.93c0.477-1.432,2.299-2.341,3.903-1.934c1.441,0.359,2.372,1.583,2.372,3.116
	c0,1.48-0.768,2.688-2.055,3.229c-1.178,0.494-1.961,0.265-2.792,0.02c-0.276-0.082-0.587-0.174-0.965-0.25
	C8.679,18.617,8.36,18.754,7.936,19.183z M9.777,16.819c0.201,0.053,0.385,0.107,0.557,0.158c0.695,0.205,0.93,0.273,1.45,0.055
	c0.686-0.289,0.83-0.913,0.83-1.386c0-0.226-0.062-0.978-0.856-1.177c-0.702-0.173-1.416,0.31-1.521,0.627
	c-0.062,0.187-0.086,0.362-0.114,0.565C10.077,15.997,10.021,16.407,9.777,16.819z"/>
<path style="fill:#333333;" d="M15.174,12.113L6.256,5.294c0,0.124,0.053,0.195,0.082,0.233c0.519,0.691,2.686,2.661,4.461,4.163
	l-1.292,1.526c-0.157-0.132-3.846-3.259-4.769-4.49C4.048,5.807,4.103,4.623,4.884,3.56c0.227-0.308,0.56-0.507,0.939-0.561
	C6.212,2.942,6.614,3.05,6.929,3.291l9.459,7.234L15.174,12.113z"/>
<path style="fill:#333333;" d="M16.621,13.478L11.018,3.176c-0.052,0.113-0.032,0.199-0.021,0.247
	c0.197,0.869,0.985,2.496,1.619,3.802l0.286,0.592l-1.803,0.866l-0.283-0.586c-0.713-1.471-1.521-3.139-1.769-4.232
	c-0.255-1.122,0.279-2.18,1.426-2.833c0.333-0.189,0.719-0.234,1.086-0.129c0.376,0.108,0.701,0.37,0.89,0.718l5.93,10.901
	L16.621,13.478z"/>
<path style="fill:#333333;" d="M17.001,14.047l-0.442-9.475c-0.098,0.08-0.117,0.167-0.129,0.213
	C16.171,5.897,16.006,7.514,16,9.004l-2-0.009c0.007-1.629,0.191-3.417,0.482-4.664c0.261-1.12,1.204-1.839,2.521-1.924
	c0.389-0.025,0.747,0.103,1.032,0.357c0.292,0.261,0.47,0.638,0.488,1.035l0.475,10.154L17.001,14.047z"/>
</svg>






