<?xml version="1.0" encoding="iso-8859-1"?>
<svg version="1.1" id="&#x56FE;&#x5C42;_1" xmlns="http://www.w3.org/2000/svg" xmlns:xlink="http://www.w3.org/1999/xlink" x="0px"
	 y="0px" viewBox="0 0 24 24" style="enable-background:new 0 0 24 24;" xml:space="preserve">
<path style="fill:#333333;" d="M12,23c-3.915,0-7.566-2.107-9.528-5.499L3.338,16H7.5v2H5.293c1.69,1.883,4.129,3,6.707,3
	c1.963,0,3.831-0.62,5.401-1.793l1.197,1.602C16.68,22.242,14.397,23,12,23z"/>
<path style="fill:#333333;" d="M20.661,18.998L17.774,14l1.732-1l1.045,1.81C20.848,13.907,21,12.959,21,12
	c0-3.58-2.12-6.818-5.4-8.251L16.4,1.916C20.409,3.667,23,7.625,23,12c0,1.934-0.509,3.835-1.473,5.501L20.661,18.998z"/>
<path style="fill:#333333;" d="M1.054,13.099C1.018,12.737,1,12.371,1,12C1,5.935,5.935,1,12,1l0.866,1.5L10.845,6L9.113,5
	l1.046-1.811C6.076,4.042,3,7.668,3,12c0,0.305,0.015,0.604,0.044,0.901L1.054,13.099z"/>
<path style="fill:#333333;" d="M12,16c-2.206,0-4-1.794-4-4c0-2.206,1.794-4,4-4c2.206,0,4,1.794,4,4C16,14.206,14.206,16,12,16z
	 M12,10c-1.103,0-2,0.897-2,2c0,1.103,0.897,2,2,2c1.103,0,2-0.897,2-2C14,10.897,13.103,10,12,10z"/>
</svg>






