<?xml version="1.0" encoding="iso-8859-1"?>
<svg version="1.1" id="&#x56FE;&#x5C42;_1" xmlns="http://www.w3.org/2000/svg" xmlns:xlink="http://www.w3.org/1999/xlink" x="0px"
	 y="0px" viewBox="0 0 24 24" style="enable-background:new 0 0 24 24;" xml:space="preserve">
<path style="fill:#333333;" d="M12.872,23h-0.447c-2.953,0-5.682-1.475-7.299-3.944l-1.098-1.675
	c-1.054-1.609-0.742-3.761,0.727-5.003l0.996-0.842V3.625C5.75,2.178,6.928,1,8.375,1S11,2.178,11,3.625v1.95
	C11.2,5.526,11.41,5.5,11.625,5.5c0.846,0,1.6,0.402,2.08,1.025c0.353-0.176,0.75-0.275,1.17-0.275c1.264,0,2.322,0.898,2.57,2.089
	c0.217-0.058,0.444-0.089,0.68-0.089c1.447,0,2.625,1.178,2.625,2.625v5.109c0,1.03-0.308,2.025-0.89,2.875l-0.486,0.711
	C17.905,21.718,15.475,23,12.872,23z M8.375,3C8.03,3,7.75,3.28,7.75,3.625v8.105c0,0.466-0.204,0.905-0.56,1.207l-1.144,0.968
	c-0.699,0.591-0.847,1.614-0.346,2.38l1.098,1.675c1.247,1.903,3.35,3.04,5.626,3.04h0.447c1.941,0,3.755-0.957,4.852-2.559
	l0.486-0.711c0.354-0.517,0.54-1.12,0.54-1.746v-5.109c0-0.345-0.28-0.625-0.625-0.625S17.5,10.53,17.5,10.875h-2v-2
	c0-0.345-0.28-0.625-0.625-0.625S14.25,8.53,14.25,8.875h-2v-0.75c0-0.345-0.28-0.625-0.625-0.625S11,7.78,11,8.125H9v-4.5
	C9,3.28,8.72,3,8.375,3z"/>
</svg>






