<?xml version="1.0" encoding="iso-8859-1"?>
<svg version="1.1" id="&#x56FE;&#x5C42;_1" xmlns="http://www.w3.org/2000/svg" xmlns:xlink="http://www.w3.org/1999/xlink" x="0px"
	 y="0px" viewBox="0 0 24 24" style="enable-background:new 0 0 24 24;" xml:space="preserve">
<path style="fill:#333333;" d="M11.5,23c-4.146,0-6.306-1.375-6.895-2.553l-0.013-0.028l-2.03-4.398
	c-0.762-1.65-0.116-3.637,1.47-4.522l5.628-3.146c0.793-0.442,1.762-0.417,2.525,0.05l0.505-4.881
	c0.068-0.66,0.405-1.278,0.925-1.694l0.11-0.087c0.768-0.617,1.874-0.554,2.571,0.144C16.75,2.335,17,2.938,17,3.58v10.09l0.875-0.7
	c0.998-0.8,2.421-0.738,3.801,0.166c0.331,0.218,0.552,0.552,0.621,0.941c0.071,0.396-0.026,0.812-0.268,1.14l-3.976,5.378
	C17.919,20.754,15.903,23,11.5,23z M6.398,19.559C6.575,19.874,7.921,21,11.5,21c3.45,0,4.983-1.642,4.997-1.658l3.55-4.808
	c-0.31-0.122-0.68-0.197-0.922-0.003l-1.688,1.35c-0.456,0.363-1.064,0.433-1.588,0.181C15.325,15.81,15,15.291,15,14.71V3.58
	c0-0.106-0.041-0.207-0.116-0.282L14.863,3.39c-0.102,0.082-0.17,0.206-0.183,0.337l-0.595,5.748
	c-0.056,0.537-0.397,1.004-0.892,1.22c-0.497,0.215-1.07,0.148-1.5-0.174l-0.514-0.385c-0.158-0.118-0.373-0.134-0.544-0.036
	l-5.628,3.146c-0.68,0.38-0.957,1.231-0.63,1.938L6.398,19.559z"/>
</svg>






