<?xml version="1.0" encoding="iso-8859-1"?>
<svg version="1.1" id="&#x56FE;&#x5C42;_1" xmlns="http://www.w3.org/2000/svg" xmlns:xlink="http://www.w3.org/1999/xlink" x="0px"
	 y="0px" viewBox="0 0 24 24" style="enable-background:new 0 0 24 24;" xml:space="preserve">
<path style="fill:#333333;" d="M13.5,23h-3C7.935,23,6,21.065,6,18.5v-7H2.756L0.838,5.108l0.573-0.417
	C2.441,3.942,6.247,1.5,12,1.5c3.85,0,7.4,1.066,10.554,3.167l0.616,0.411L21.244,11.5H18v7C18,21.065,16.065,23,13.5,23z
	 M4.244,9.5H8v9c0,1.448,1.051,2.5,2.5,2.5h3c1.448,0,2.5-1.052,2.5-2.5v-9h3.756l1.069-3.563C18.163,4.319,15.197,3.5,12,3.5
	c-4.366,0-7.443,1.545-8.831,2.417L4.244,9.5z"/>
<path style="fill:#333333;" d="M13.5,22h-2c0-4.746,3.598-6,5.5-6l0.006,2C16.647,18.005,13.5,18.155,13.5,22z"/>
<path style="fill:#333333;" d="M12.5,22h-2c0-3.888-3.142-4-3.5-4v-2C8.902,16,12.5,17.254,12.5,22z"/>
<path style="fill:#333333;" d="M12,7.5c-2.206,0-4-1.794-4-4c0-0.339,0.042-0.676,0.126-1L10.063,3C10.021,3.162,10,3.33,10,3.5
	c0,1.103,0.897,2,2,2c1.103,0,2-0.897,2-2c0-0.169-0.021-0.338-0.063-0.501l1.938-0.497C15.958,2.828,16,3.164,16,3.5
	C16,5.706,14.206,7.5,12,7.5z"/>
<path style="fill:#333333;" d="M6.299,4.44L5.647,2.55c4.037-1.392,8.663-1.394,12.681,0l-0.656,1.89
	C14.075,3.191,9.912,3.195,6.299,4.44z"/>
<rect x="6" y="15.5" style="fill:#333333;" width="2" height="3"/>
<rect x="16" y="15.5" style="fill:#333333;" width="2" height="3"/>
<rect x="10.5" y="21" style="fill:#333333;" width="3" height="2"/>
</svg>






