<?xml version="1.0" encoding="iso-8859-1"?>
<svg version="1.1" id="&#x56FE;&#x5C42;_1" xmlns="http://www.w3.org/2000/svg" xmlns:xlink="http://www.w3.org/1999/xlink" x="0px"
	 y="0px" viewBox="0 0 24 24" style="enable-background:new 0 0 24 24;" xml:space="preserve">
<path style="fill:#333333;" d="M22,9h-2V4.5C20,4.224,19.775,4,19.5,4h-15C4.224,4,4,4.224,4,4.5V9H2V4.5C2,3.122,3.122,2,4.5,2h15
	C20.879,2,22,3.122,22,4.5V9z"/>
<rect x="9.077" y="8.75" transform="matrix(0.6785 -0.7346 0.7346 0.6785 -2.822 13.0521)" style="fill:#333333;" width="8.846" height="2"/>
<rect x="13" y="10.086" transform="matrix(0.7071 -0.7071 0.7071 0.7071 -4.0312 13.2678)" style="fill:#333333;" width="2" height="2.828"/>
<rect x="15.5" y="7.586" transform="matrix(0.7071 -0.7071 0.7071 0.7071 -1.5312 14.3033)" style="fill:#333333;" width="2" height="2.828"/>
<path style="fill:#333333;" d="M19.5,22h-15C3.122,22,2,20.879,2,19.5V15h2v4.5C4,19.775,4.224,20,4.5,20h15
	c0.275,0,0.5-0.225,0.5-0.5V15h2v4.5C22,20.879,20.879,22,19.5,22z"/>
<path style="fill:#333333;" d="M9,18.5c-1.93,0-3.5-1.57-3.5-3.5s1.57-3.5,3.5-3.5s3.5,1.57,3.5,3.5S10.93,18.5,9,18.5z M9,13.5
	c-0.827,0-1.5,0.673-1.5,1.5s0.673,1.5,1.5,1.5s1.5-0.673,1.5-1.5S9.827,13.5,9,13.5z"/>
</svg>






