<?xml version="1.0" encoding="iso-8859-1"?>
<svg version="1.1" id="&#x56FE;&#x5C42;_1" xmlns="http://www.w3.org/2000/svg" xmlns:xlink="http://www.w3.org/1999/xlink" x="0px"
	 y="0px" viewBox="0 0 24 24" style="enable-background:new 0 0 24 24;" xml:space="preserve">
<path style="fill:#333333;" d="M20.42,21h-4.102c-0.947,0-1.771-0.674-1.96-1.603l-1.594-7.913l-0.203-2.059
	c-0.07-0.713,0.249-1.414,0.834-1.828l6.403-4.545c0.457-0.324,1.03-0.433,1.575-0.296c0.543,0.136,0.998,0.501,1.248,1.002
	c0.346,0.69,0.244,1.516-0.258,2.103l-1.105,1.289l-2.597,3.466l3.564,7.527c0.296,0.622,0.252,1.342-0.116,1.925
	C21.741,20.652,21.109,21,20.42,21z M14.75,11.238L16.318,19h4.102l-3.565-7.526c-0.318-0.674-0.238-1.462,0.208-2.057L19.7,5.9
	l0.778-0.91l-5.926,4.239l-0.579-0.815l0.578,0.815L14.75,11.238z"/>
<rect x="13.93" y="10" transform="matrix(0.9616 -0.2744 0.2744 0.9616 -2.4139 4.744)" style="fill:#333333;" width="3.64" height="2"/>
<path style="fill:#333333;" d="M7.661,21H3.58c-0.689,0-1.321-0.348-1.69-0.931c-0.369-0.582-0.413-1.302-0.118-1.925l3.558-7.512
	L2.715,7.314L1.648,6.093c-0.513-0.589-0.616-1.42-0.262-2.117c0.25-0.492,0.701-0.851,1.236-0.985
	C3.156,2.855,3.724,2.96,4.177,3.278l6.364,4.454c0.646,0.453,0.967,1.245,0.817,2.02l-0.377,1.939l-1.351,7.657
	C9.461,20.306,8.633,21,7.661,21z M3.661,5.357l0.593,0.68l2.647,3.356c0.474,0.602,0.564,1.404,0.237,2.095L3.58,19h4.081
	l1.734-9.629h0L3.661,5.357z"/>
<rect x="7.25" y="9.18" transform="matrix(0.2748 -0.9615 0.9615 0.2748 -4.594 15.9091)" style="fill:#333333;" width="2" height="3.64"/>
</svg>






