<?xml version="1.0" encoding="iso-8859-1"?>
<svg version="1.1" id="&#x56FE;&#x5C42;_1" xmlns="http://www.w3.org/2000/svg" xmlns:xlink="http://www.w3.org/1999/xlink" x="0px"
	 y="0px" viewBox="0 0 24 24" style="enable-background:new 0 0 24 24;" xml:space="preserve">
<path style="fill:#333333;" d="M12,22H4.5C3.122,22,2,20.879,2,19.5v-15C2,3.122,3.122,2,4.5,2h15C20.879,2,22,3.122,22,4.5V12h-2
	V4.5C20,4.224,19.775,4,19.5,4h-15C4.224,4,4,4.224,4,4.5v15C4,19.775,4.224,20,4.5,20H12V22z"/>
<rect x="18.525" y="16.5" style="fill:#333333;" width="2" height="5"/>
<rect x="17" y="17.975" style="fill:#333333;" width="5" height="2"/>
<path style="fill:#333333;" d="M12,12.5c-1.93,0-3.5-1.57-3.5-3.5s1.57-3.5,3.5-3.5s3.5,1.57,3.5,3.5S13.93,12.5,12,12.5z M12,7.5
	c-0.827,0-1.5,0.673-1.5,1.5s0.673,1.5,1.5,1.5s1.5-0.673,1.5-1.5S12.827,7.5,12,7.5z"/>
<path style="fill:#333333;" d="M17.5,15.5h-2c0-1.654-1.57-3-3.5-3s-3.5,1.346-3.5,3h-2c0-2.757,2.467-5,5.5-5
	C15.032,10.5,17.5,12.743,17.5,15.5z"/>
</svg>






