<?xml version="1.0" encoding="iso-8859-1"?>
<svg version="1.1" id="&#x56FE;&#x5C42;_1" xmlns="http://www.w3.org/2000/svg" xmlns:xlink="http://www.w3.org/1999/xlink" x="0px"
	 y="0px" viewBox="0 0 24 24" style="enable-background:new 0 0 24 24;" xml:space="preserve">
<path style="fill:#333333;" d="M13.662,19.41l-1.887-0.188l-1.088-4.786l-5.27-0.439l-0.434-1.852l4.643-2.807L8.522,4.21
	l1.642-0.958l3.957,3.517l4.39-2.577l1.414,1.282l-2.206,4.771l3.945,3.507l-0.747,1.743l-5.295-0.44L13.662,19.41z M8.658,12.26
	l3.654,0.305l0.751,3.303l1.314-2.923l3.716,0.31l-2.812-2.5l1.488-3.221L13.879,9.23l-2.758-2.452l0.761,3.533L8.658,12.26z"/>
<rect x="2.443" y="16.255" transform="matrix(0.7069 -0.7074 0.7074 0.7069 -9.9334 10.5401)" style="fill:#333333;" width="10.614" height="2.001"/>
</svg>






