<?xml version="1.0" encoding="iso-8859-1"?>
<svg version="1.1" id="&#x56FE;&#x5C42;_1" xmlns="http://www.w3.org/2000/svg" xmlns:xlink="http://www.w3.org/1999/xlink" x="0px"
	 y="0px" viewBox="0 0 24 24" style="enable-background:new 0 0 24 24;" xml:space="preserve">
<path style="fill:#333333;" d="M12,23c-5.682,0-9.5-4.019-9.5-10c0-1.978,0.577-3.89,1.667-5.53c1.568-2.36,3.676-2.211,5.904-2.057
	c1.232,0.086,2.624,0.086,3.857,0c2.23-0.156,4.336-0.302,5.904,2.057C20.924,9.111,21.5,11.023,21.5,13
	C21.5,18.981,17.683,23,12,23z M8.447,7.338c-1.23,0-1.956,0.249-2.614,1.239C4.961,9.888,4.5,11.417,4.5,13c0,4.859,2.944,8,7.5,8
	c4.556,0,7.5-3.141,7.5-8c0-1.582-0.461-3.111-1.333-4.423c-0.888-1.336-1.897-1.324-4.1-1.169c-1.24,0.086-2.895,0.086-4.135,0
	C9.364,7.368,8.875,7.338,8.447,7.338z"/>
<polygon style="fill:#333333;" points="13.8,7.1 12.2,5.9 12.537,5.451 12,4.914 11.463,5.451 11.8,5.9 10.2,7.1 8.7,5.1 9.5,3.5 
	10.586,3.5 12,2.086 13.414,3.5 14.5,3.5 15.3,5.1 "/>
<circle style="fill:#333333;" cx="9" cy="10" r="1"/>
<circle style="fill:#333333;" cx="7.5" cy="13.5" r="1"/>
<circle style="fill:#333333;" cx="10.5" cy="12.5" r="1"/>
<circle style="fill:#333333;" cx="9" cy="16" r="1"/>
</svg>






