<?xml version="1.0" encoding="iso-8859-1"?>
<svg version="1.1" id="&#x56FE;&#x5C42;_1" xmlns="http://www.w3.org/2000/svg" xmlns:xlink="http://www.w3.org/1999/xlink" x="0px"
	 y="0px" viewBox="0 0 24 24" style="enable-background:new 0 0 24 24;" xml:space="preserve">
<g>
	<defs>
		<rect id="SVGID_1_" width="24" height="24"/>
	</defs>
	<clipPath id="SVGID_00000087381016942389958080000003065717793774037901_">
		<use xlink:href="#SVGID_1_"  style="overflow:visible;"/>
	</clipPath>
	<g style="clip-path:url(#SVGID_00000087381016942389958080000003065717793774037901_);">
		<path style="fill:#333333;" d="M9.65,21.495c-2.945,0-5.89-1.121-8.131-3.363l-0.707-0.707L17.075,1.161l0.707,0.707
			c4.484,4.484,4.484,11.78,0,16.264C15.54,20.374,12.596,21.495,9.65,21.495z M3.677,17.388c3.728,3.019,9.224,2.795,12.691-0.67
			c3.466-3.466,3.688-8.964,0.67-12.691L3.677,17.388z"/>
		
			<rect x="12.363" y="8.462" transform="matrix(0.7071 -0.7071 0.7071 0.7071 -5.7823 13.4652)" style="fill:#333333;" width="2" height="10.5"/>
		<rect x="8.651" y="10" style="fill:#333333;" width="2" height="10.606"/>
		
			<rect x="13.777" y="5.047" transform="matrix(0.0345 -0.9994 0.9994 0.0345 4.0972 24.5944)" style="fill:#333333;" width="2" height="10.259"/>
		<path style="fill:#333333;" d="M9.704,21.484c-0.911,0-1.832-0.108-2.746-0.33l0.47-1.943c3.25,0.784,6.601-0.154,8.963-2.516
			c2.361-2.361,3.302-5.711,2.515-8.961l1.943-0.471c0.953,3.933-0.186,7.988-3.044,10.846
			C15.611,20.303,12.712,21.483,9.704,21.484z"/>
		
			<rect x="6.297" y="9.354" transform="matrix(0.7071 -0.7071 0.7071 0.7071 -4.5979 9.6066)" style="fill:#333333;" width="6" height="2"/>
	</g>
</g>
</svg>






