<?xml version="1.0" encoding="iso-8859-1"?>
<svg version="1.1" id="&#x56FE;&#x5C42;_1" xmlns="http://www.w3.org/2000/svg" xmlns:xlink="http://www.w3.org/1999/xlink" x="0px"
	 y="0px" viewBox="0 0 24 24" style="enable-background:new 0 0 24 24;" xml:space="preserve">
<rect x="3.5" y="2" style="fill:#333333;" width="2" height="4.5"/>
<rect x="3" y="5.5" style="fill:#333333;" width="3" height="2"/>
<rect x="3" y="12.5" style="fill:#333333;" width="3" height="2"/>
<path style="fill:#333333;" d="M3.496,14.368l-0.993-1.736c1.227-0.704,2.239-1.737,2.176-2.056
	c-0.053-0.084-0.162-0.232-0.253-0.242c-0.191-0.016-0.582,0.236-0.719,0.373L2.293,9.293c0.11-0.11,1.101-1.067,2.331-0.949
	C5.1,8.391,5.782,8.621,6.332,9.445c0.326,0.489,0.425,1.057,0.288,1.642C6.231,12.733,3.95,14.109,3.496,14.368z"/>
<path style="fill:#333333;" d="M4.475,22.596c-0.438,0-0.872-0.117-1.283-0.353c-0.611-0.35-0.96-0.843-1.023-0.938l1.664-1.109
	c0.306,0.431,0.683,0.508,1.113,0.223c0.189-0.126,0.223-0.206,0.223-0.206c-0.002-0.092-0.193-0.348-0.309-0.443L3.938,19
	l0.922-0.769c0.158-0.138,0.306-0.37,0.307-0.453l0,0c-0.002,0-0.043-0.077-0.221-0.196c-0.581-0.389-0.947-0.027-1.113,0.223
	l-1.664-1.109c0.063-0.096,0.412-0.589,1.023-0.938c0.911-0.521,1.928-0.463,2.863,0.161c0.87,0.58,1.083,1.274,1.109,1.754
	C7.191,18.19,7.011,18.646,6.794,19c0.217,0.354,0.397,0.81,0.37,1.328c-0.026,0.479-0.239,1.174-1.109,1.754
	C5.542,22.424,5.005,22.596,4.475,22.596z"/>
<rect x="4.5" y="18" style="fill:#333333;" width="1" height="2"/>
<rect x="2.849" y="1.5" transform="matrix(0.8321 -0.5547 0.5547 0.8321 -0.7569 2.5)" style="fill:#333333;" width="1.803" height="2"/>
<rect x="10.5" y="11" style="fill:#333333;" width="11" height="2"/>
<rect x="10.5" y="18" style="fill:#333333;" width="11" height="2"/>
<rect x="10.5" y="4" style="fill:#333333;" width="11" height="2"/>
</svg>






