<?xml version="1.0" encoding="iso-8859-1"?>
<svg version="1.1" id="&#x56FE;&#x5C42;_1" xmlns="http://www.w3.org/2000/svg" xmlns:xlink="http://www.w3.org/1999/xlink" x="0px"
	 y="0px" viewBox="0 0 24 24" style="enable-background:new 0 0 24 24;" xml:space="preserve">
<path style="fill:#333333;" d="M7.846,22.549c-0.448,0-0.87-0.146-1.237-0.43c-0.502-0.424-1.143-0.964-1.111-9.62
	c-2.267-1.708-2.982-2.473-3.656-3.832C1.285,7.544,1.398,5.11,2.452,3.413C3.086,2.39,4.321,1.171,6.6,1.171
	c2.47,0,4.512,1.118,6.093,3.329c0.587-1.474,1.375-2.431,2.386-2.904c1.418-0.666,2.812-0.783,4.031-0.337
	c1.272,0.465,2.291,1.51,3.027,3.105c1.206,2.612-0.186,5.356-4.137,8.159v8.976l-1.538,0.843L11.8,19.368
	c-1.383,1.983-2.509,2.965-3.591,3.149C8.086,22.538,7.965,22.549,7.846,22.549z M6.6,3.171c-1.107,0-1.908,0.424-2.449,1.296
	c-0.788,1.27-0.693,2.958-0.518,3.312c0.491,0.99,0.893,1.507,3.464,3.419L7.504,11.5L7.5,12.007
	c-0.041,6.252,0.262,8.036,0.421,8.539c0.215-0.074,1.069-0.487,2.752-3.089l0.54-0.834l4.787,3.052V11.47l0.438-0.298
	c3.354-2.276,4.66-4.285,3.882-5.97c-0.505-1.095-1.143-1.79-1.896-2.065c-0.896-0.327-1.851-0.033-2.498,0.27
	c-0.581,0.272-1.391,1.156-1.948,3.818l-1.884,0.221C10.744,4.569,8.946,3.171,6.6,3.171z"/>
<rect x="12.5" y="12.5" style="fill:#333333;" width="2" height="3"/>
</svg>






