<?xml version="1.0" encoding="iso-8859-1"?>
<svg version="1.1" id="&#x56FE;&#x5C42;_1" xmlns="http://www.w3.org/2000/svg" xmlns:xlink="http://www.w3.org/1999/xlink" x="0px"
	 y="0px" viewBox="0 0 24 24" style="enable-background:new 0 0 24 24;" xml:space="preserve">
<path style="fill:#333333;" d="M17.5,16h-11c-2.206,0-4-1.794-4-4V4.5h2V12c0,1.103,0.897,2,2,2h11c1.103,0,2-0.897,2-2V4.5h2V12
	C21.5,14.206,19.706,16,17.5,16z"/>
<path style="fill:#333333;" d="M17.5,9h-11c-2.206,0-4-1.794-4-4s1.794-4,4-4h11c2.206,0,4,1.794,4,4S19.706,9,17.5,9z M6.5,3
	c-1.103,0-2,0.897-2,2s0.897,2,2,2h11c1.103,0,2-0.897,2-2s-0.897-2-2-2H6.5z"/>
<circle style="fill:#333333;" cx="7.5" cy="5" r="1"/>
<circle style="fill:#333333;" cx="10.5" cy="5" r="1"/>
<circle style="fill:#333333;" cx="13.5" cy="5" r="1"/>
<circle style="fill:#333333;" cx="16.5" cy="5" r="1"/>
<rect x="8.5" y="15" style="fill:#333333;" width="2" height="7"/>
<rect x="13.5" y="15" style="fill:#333333;" width="2" height="7"/>
</svg>






