<?xml version="1.0" encoding="iso-8859-1"?>
<svg version="1.1" id="&#x56FE;&#x5C42;_1" xmlns="http://www.w3.org/2000/svg" xmlns:xlink="http://www.w3.org/1999/xlink" x="0px"
	 y="0px" viewBox="0 0 24 24" style="enable-background:new 0 0 24 24;" xml:space="preserve">
<path style="fill:#333333;" d="M10.276,22.069c-2.883-0.663-5.74-3.025-7.642-6.319c-1.431-2.479-2.148-5.188-2.02-7.628
	c0.137-2.599,1.208-4.604,3.015-5.648c2.519-1.454,5.94-0.701,8.929,1.966l-1.331,1.492C8.939,3.892,6.351,3.213,4.629,4.206
	C3.428,4.899,2.712,6.327,2.612,8.227c-0.109,2.059,0.514,4.375,1.754,6.523c1.604,2.779,4.041,4.838,6.358,5.37L10.276,22.069z"/>
<path style="fill:#333333;" d="M12.081,22.264c-0.999,0-1.957-0.237-2.823-0.737C5.616,19.424,5.179,13.592,8.263,8.25l0,0
	c1.432-2.479,3.419-4.454,5.597-5.563c2.318-1.18,4.591-1.256,6.398-0.213c3.643,2.103,4.08,7.934,0.996,13.276
	C18.903,19.821,15.282,22.264,12.081,22.264z M9.995,9.25c-2.439,4.225-2.318,9.054,0.263,10.544
	c2.579,1.49,6.824-0.819,9.263-5.044c2.439-4.225,2.318-9.054-0.264-10.544c-1.198-0.692-2.794-0.601-4.491,0.264
	C12.93,5.405,11.235,7.103,9.995,9.25L9.995,9.25z"/>
</svg>






