<?xml version="1.0" encoding="iso-8859-1"?>
<svg version="1.1" id="&#x56FE;&#x5C42;_1" xmlns="http://www.w3.org/2000/svg" xmlns:xlink="http://www.w3.org/1999/xlink" x="0px"
	 y="0px" viewBox="0 0 24 24" style="enable-background:new 0 0 24 24;" xml:space="preserve">
<path style="fill:#333333;" d="M11.832,22.257c-1.145,0-2.367-0.315-3.602-0.943c-2.178-1.109-4.166-3.085-5.597-5.563
	s-2.148-5.188-2.02-7.628c0.137-2.599,1.208-4.604,3.015-5.648c1.807-1.042,4.08-0.967,6.398,0.213
	c2.178,1.109,4.165,3.084,5.597,5.563c1.431,2.479,2.148,5.188,2.02,7.628c-0.137,2.6-1.208,4.605-3.015,5.648
	C13.784,22.014,12.838,22.257,11.832,22.257z M6.43,3.747c-0.661,0-1.27,0.152-1.801,0.459C3.428,4.899,2.712,6.327,2.612,8.227
	c-0.109,2.059,0.514,4.375,1.754,6.523c1.24,2.147,2.934,3.846,4.771,4.78c1.695,0.863,3.291,0.957,4.491,0.264
	c1.201-0.693,1.917-2.121,2.018-4.021c0.108-2.059-0.515-4.375-1.755-6.523l0,0c-1.239-2.147-2.934-3.845-4.771-4.78
	C8.175,3.988,7.261,3.747,6.43,3.747z"/>
<path style="fill:#333333;" d="M12.081,22.264c-0.999,0-1.957-0.237-2.823-0.737C5.616,19.424,5.179,13.592,8.263,8.25l0,0
	c1.432-2.479,3.419-4.454,5.597-5.563c2.318-1.18,4.591-1.256,6.398-0.213c3.643,2.103,4.08,7.934,0.996,13.276
	C18.903,19.821,15.282,22.264,12.081,22.264z M9.995,9.25c-2.439,4.225-2.318,9.054,0.263,10.544
	c2.579,1.49,6.824-0.819,9.263-5.044c2.439-4.225,2.318-9.054-0.264-10.544c-1.198-0.692-2.794-0.601-4.491,0.264
	C12.93,5.405,11.235,7.103,9.995,9.25L9.995,9.25z"/>
<path style="fill:#333333;" d="M12.031,22.249l-0.064-1.998c0.613-0.021,1.171-0.174,1.661-0.456
	c1.202-0.694,1.918-2.122,2.019-4.021c0.108-2.059-0.515-4.375-1.755-6.523c-0.733-1.273-1.66-2.424-2.68-3.331l1.329-1.494
	c1.194,1.062,2.231,2.349,3.083,3.826c1.431,2.479,2.148,5.188,2.02,7.627c-0.137,2.6-1.208,4.605-3.015,5.648
	C13.852,21.976,12.978,22.219,12.031,22.249z"/>
</svg>






