<?xml version="1.0" encoding="iso-8859-1"?>
<svg version="1.1" id="&#x56FE;&#x5C42;_1" xmlns="http://www.w3.org/2000/svg" xmlns:xlink="http://www.w3.org/1999/xlink" x="0px"
	 y="0px" viewBox="0 0 24 24" style="enable-background:new 0 0 24 24;" xml:space="preserve">
<path style="fill:#333333;" d="M17.5,17.5h-11v-11h11V17.5z M8.5,15.5h7v-7h-7V15.5z"/>
<polygon style="fill:#333333;" points="6.5,21.5 4.5,21.5 4.5,19.5 2.5,19.5 2.5,17.5 6.5,17.5 "/>
<polygon style="fill:#333333;" points="19.5,21.5 17.5,21.5 17.5,17.5 21.5,17.5 21.5,19.5 19.5,19.5 "/>
<polygon style="fill:#333333;" points="6.5,6.5 2.5,6.5 2.5,4.5 4.5,4.5 4.5,2.5 6.5,2.5 "/>
<polygon style="fill:#333333;" points="21.5,6.5 17.5,6.5 17.5,2.5 19.5,2.5 19.5,4.5 21.5,4.5 "/>
</svg>






