<?xml version="1.0" encoding="iso-8859-1"?>
<svg version="1.1" id="&#x56FE;&#x5C42;_1" xmlns="http://www.w3.org/2000/svg" xmlns:xlink="http://www.w3.org/1999/xlink" x="0px"
	 y="0px" viewBox="0 0 24 24" style="enable-background:new 0 0 24 24;" xml:space="preserve">
<g>
	<defs>
		<rect id="SVGID_1_" width="24" height="24"/>
	</defs>
	<clipPath id="SVGID_00000137815983761295293160000005279166929534934414_">
		<use xlink:href="#SVGID_1_"  style="overflow:visible;"/>
	</clipPath>
	<g style="clip-path:url(#SVGID_00000137815983761295293160000005279166929534934414_);">
		<path style="fill:#333333;" d="M16.035,11.5l-1.414-1.414l2.459-2.459l0.558,0.148c0.688,0.184,1.43-0.015,1.933-0.518
			c0.378-0.378,0.586-0.88,0.586-1.415c0-0.534-0.208-1.036-0.586-1.414c-0.756-0.755-2.072-0.755-2.828,0
			c-0.503,0.503-0.702,1.244-0.519,1.934l0.148,0.557l-2.458,2.459L12.5,7.964l1.681-1.682c-0.13-1.195,0.285-2.406,1.147-3.268
			c0.756-0.755,1.76-1.171,2.828-1.171s2.073,0.416,2.828,1.171c0.756,0.755,1.172,1.76,1.172,2.828
			c0,1.069-0.416,2.073-1.172,2.829c-0.861,0.862-2.068,1.278-3.268,1.147L16.035,11.5z"/>
		<path style="fill:#333333;" d="M18.802,19.34l-5.961-4.155l-2.236,1.491l-3.457-3.458l1.493-2.239L4.664,5.193l3.24-3.239
			l14.143,14.142L18.802,19.34z M12.866,12.765l5.705,3.978l0.646-0.646L7.903,4.782L7.254,5.432l3.801,5.529l-1.335,2.003
			l1.139,1.138L12.866,12.765z"/>
		<path style="fill:#333333;" d="M8.257,21.739c-1.537,0-3.073-0.584-4.243-1.754c-1.133-1.134-1.757-2.641-1.757-4.243
			s0.624-3.109,1.757-4.242c1.55-1.55,3.819-2.132,5.925-1.518l-0.56,1.92c-1.402-0.408-2.917-0.021-3.951,1.012
			c-0.755,0.756-1.171,1.76-1.171,2.828s0.416,2.073,1.171,2.829c1.561,1.559,4.098,1.559,5.657,0
			c1.033-1.033,1.42-2.547,1.012-3.952l1.92-0.559c0.613,2.106,0.031,4.376-1.519,5.925C11.33,21.154,9.793,21.739,8.257,21.739z"/>
	</g>
</g>
</svg>






