<?xml version="1.0" encoding="iso-8859-1"?>
<svg version="1.1" id="&#x56FE;&#x5C42;_1" xmlns="http://www.w3.org/2000/svg" xmlns:xlink="http://www.w3.org/1999/xlink" x="0px"
	 y="0px" viewBox="0 0 24 24" style="enable-background:new 0 0 24 24;" xml:space="preserve">
<path style="fill:#333333;" d="M16.606,12l-9.317-0.022c-0.103-0.022-1.02-0.224-1.633-0.487c-0.485-0.208-1.115-0.598-1.185-0.642
	l0.484-1.848c0.367-0.017,1.087-0.093,1.453-0.227c0.608-0.221,1.51-1.07,1.851-1.446L8.557,7h6.885l0.298,0.328
	c0.407,0.447,1.27,1.235,1.852,1.447c0.383,0.139,1.144,0.212,1.452,0.226l0.485,1.848c-0.07,0.044-0.7,0.434-1.185,0.642
	c-0.614,0.264-1.531,0.465-1.634,0.487L16.606,12z M8.262,10h7.477c-0.476-0.345-0.893-0.731-1.163-1h-5.15
	C9.154,9.269,8.738,9.655,8.262,10z"/>
<path style="fill:#333333;" d="M17.082,18L6.836,17.986c-0.13-0.021-1.296-0.219-1.988-0.479c-0.54-0.201-1.249-0.586-1.328-0.629
	l0.44-1.877c0.312-0.013,1.234-0.08,1.735-0.24c0.774-0.246,1.772-1.14,2.092-1.463l0.294-0.297L15.918,13l0.294,0.298
	c0.319,0.323,1.318,1.217,2.092,1.463c0.501,0.16,1.444,0.229,1.735,0.24l0.44,1.877c-0.079,0.043-0.788,0.427-1.329,0.63
	c-0.69,0.26-1.856,0.457-1.987,0.479L17.082,18z M7.632,16h8.736c-0.528-0.349-0.982-0.736-1.27-1H8.901
	C8.614,15.264,8.16,15.651,7.632,16z"/>
<path style="fill:#333333;" d="M14.689,6H9.311L9.134,5.931c-0.114-0.044-0.7-0.28-1.071-0.516C7.799,5.247,7.393,4.938,7.393,4.938
	l0.229-1.72c0.004-0.001,0.59-0.241,0.959-0.411l0,0c1.147-0.53,2.858-1.635,2.875-1.646L12,0.809l0.543,0.352
	c0.018,0.011,1.73,1.117,2.876,1.646c0.368,0.17,0.955,0.41,0.959,0.411l0.229,1.72c0,0-0.406,0.31-0.67,0.478
	c-0.373,0.236-0.958,0.471-1.071,0.516L14.689,6z M10.619,4h2.762C12.86,3.708,12.36,3.405,12,3.182
	C11.64,3.405,11.14,3.708,10.619,4z"/>
<rect x="9.5" y="5" style="fill:#333333;" width="2" height="3"/>
<rect x="12.5" y="5" style="fill:#333333;" width="2" height="3"/>
<rect x="8.5" y="11" style="fill:#333333;" width="2" height="3"/>
<rect x="13.5" y="11" style="fill:#333333;" width="2" height="3"/>
<polygon style="fill:#333333;" points="17,23 7,23 7,17 9,17 9,21 15,21 15,17 17,17 "/>
</svg>






