<?xml version="1.0" encoding="iso-8859-1"?>
<svg version="1.1" id="&#x56FE;&#x5C42;_1" xmlns="http://www.w3.org/2000/svg" xmlns:xlink="http://www.w3.org/1999/xlink" x="0px"
	 y="0px" viewBox="0 0 24 24" style="enable-background:new 0 0 24 24;" xml:space="preserve">
<path style="fill:#333333;" d="M12,23c-5.551,0-9-3.832-9-10C3,7.168,7.626,1,12,1s9,6.168,9,12C21,19.168,17.552,23,12,23z M12,3
	C9.073,3,5,8.039,5,13c0,5.084,2.551,8,7,8c4.448,0,7-2.916,7-8C19,8.039,14.928,3,12,3z"/>
<path style="fill:#333333;" d="M10.5,19c0.828,0,1.5-0.672,1.5-1.5S11.328,16,10.5,16S9,16.672,9,17.5S9.672,19,10.5,19z"/>
<path style="fill-rule:evenodd;clip-rule:evenodd;fill:#333333;" d="M8,14.834c0.552,0,1-0.448,1-1c0-0.552-0.448-1-1-1
	s-1,0.448-1,1C7,14.386,7.448,14.834,8,14.834z"/>
</svg>






