<?xml version="1.0" encoding="iso-8859-1"?>
<svg version="1.1" id="&#x56FE;&#x5C42;_1" xmlns="http://www.w3.org/2000/svg" xmlns:xlink="http://www.w3.org/1999/xlink" x="0px"
	 y="0px" viewBox="0 0 24 24" style="enable-background:new 0 0 24 24;" xml:space="preserve">
<path style="fill:#333333;" d="M20,20H4c-1.378,0-2.5-1.121-2.5-2.5v-11C1.5,5.122,2.622,4,4,4h16c1.379,0,2.5,1.122,2.5,2.5v11
	C22.5,18.879,21.379,20,20,20z M4,6C3.724,6,3.5,6.224,3.5,6.5v11C3.5,17.775,3.724,18,4,18h16c0.275,0,0.5-0.225,0.5-0.5v-11
	C20.5,6.224,20.275,6,20,6H4z"/>
<rect x="5.5" y="8.5" style="fill:#333333;" width="2" height="3.5"/>
<path style="fill:#333333;" d="M7.5,15.5L7.5,15.5c0,0.552-0.448,1-1,1l0,0c-0.552,0-1-0.448-1-1l0,0c0-0.552,0.448-1,1-1l0,0
	C7.052,14.5,7.5,14.948,7.5,15.5z"/>
</svg>






