<?xml version="1.0" encoding="iso-8859-1"?>
<svg version="1.1" id="&#x56FE;&#x5C42;_1" xmlns="http://www.w3.org/2000/svg" xmlns:xlink="http://www.w3.org/1999/xlink" x="0px"
	 y="0px" viewBox="0 0 24 24" style="enable-background:new 0 0 24 24;" xml:space="preserve">
<rect x="8.97" y="10.28" transform="matrix(0.7071 -0.7071 0.7071 0.7071 -6.8242 11.0864)" style="fill:#333333;" width="2" height="7"/>
<path style="fill:#333333;" d="M5.727,22.521c-1.152,0-2.305-0.438-3.182-1.315c-1.755-1.755-1.755-4.609,0-6.364l4.242-4.243
	l1.414,1.415l-4.242,4.242c-0.975,0.975-0.975,2.562,0,3.536s2.561,0.975,3.536,0l4.242-4.243l1.414,1.414l-4.242,4.243
	C8.032,22.082,6.879,22.521,5.727,22.521z"/>
<rect x="4.934" y="16.316" transform="matrix(0.7071 -0.7071 0.7071 0.7071 -10.3594 9.6212)" style="fill:#333333;" width="3" height="2"/>
<path style="fill:#333333;" d="M12.217,17.442l-5.909-5.91l3.527-8.173c0.41-0.95,1.192-1.642,2.147-1.899
	c0.891-0.237,1.838-0.057,2.596,0.504c1.3,0.962,4.601,3.583,7.173,7.113c0.563,0.774,0.742,1.748,0.489,2.67
	c-0.27,0.987-0.979,1.792-1.944,2.209L12.217,17.442z M8.682,11.078l3.99,3.989l6.83-2.946c0.399-0.172,0.701-0.509,0.809-0.901
	c0.065-0.239,0.088-0.6-0.178-0.965c-2.477-3.399-5.79-5.975-6.746-6.683c-0.343-0.253-0.669-0.237-0.886-0.18
	c-0.361,0.097-0.664,0.374-0.831,0.76L8.682,11.078z"/>
</svg>






