<?xml version="1.0" encoding="iso-8859-1"?>
<svg version="1.1" id="&#x56FE;&#x5C42;_1" xmlns="http://www.w3.org/2000/svg" xmlns:xlink="http://www.w3.org/1999/xlink" x="0px"
	 y="0px" viewBox="0 0 24 24" style="enable-background:new 0 0 24 24;" xml:space="preserve">
<path style="fill:#333333;" d="M17.305,19h-7.93c-0.364,0-0.711-0.156-0.954-0.428h0l-4.857-5.439
	c-0.528-0.592-0.787-1.354-0.729-2.146c0.059-0.792,0.427-1.507,1.036-2.015C4.475,8.47,5.24,8.236,6.019,8.315
	C6.366,8.351,6.696,8.445,7,8.593V4.497C7,3.121,8.12,2,9.495,1.997c0.324-0.019,0.614,0.055,0.896,0.163
	C10.835,1.463,11.614,1,12.5,1c0.858,0,1.616,0.435,2.067,1.095c0.288-0.117,0.603-0.181,0.933-0.181
	c1.112,0,2.058,0.73,2.381,1.736C18.079,3.6,18.286,3.573,18.5,3.573c1.379,0,2.5,1.122,2.5,2.5v6.841
	c0,1.29-0.401,2.524-1.16,3.567l-1.416,1.948C18.165,18.786,17.747,19,17.305,19z M9.698,17h7.293l1.231-1.694
	c0.509-0.7,0.777-1.526,0.777-2.392V6.073c0-0.276-0.225-0.5-0.5-0.5S18,5.797,18,6.073h-2V4.415c0-0.276-0.225-0.5-0.5-0.5
	S15,4.139,15,4.415h-2V3.5C13,3.224,12.775,3,12.5,3S12,3.224,12,3.5v0.997h-2c0-0.181-0.092-0.299-0.147-0.354
	S9.68,3.997,9.5,3.997c0,0,0,0-0.001,0c-0.276,0-0.5,0.225-0.5,0.5V11l-1.781,0.625L6.43,10.639c-0.153-0.191-0.37-0.31-0.613-0.334
	c-0.239-0.021-0.479,0.048-0.666,0.204c-0.19,0.158-0.304,0.38-0.322,0.625s0.062,0.482,0.227,0.666L9.698,17z"/>
<path style="fill:#333333;" d="M17,23h-7c-0.827,0-1.5-0.673-1.5-1.5v-3c0-0.827,0.673-1.5,1.5-1.5h7c0.827,0,1.5,0.673,1.5,1.5v3
	C18.5,22.327,17.827,23,17,23z M10.5,21h6v-2h-6V21z"/>
</svg>






