<?xml version="1.0" encoding="iso-8859-1"?>
<svg version="1.1" id="&#x56FE;&#x5C42;_1" xmlns="http://www.w3.org/2000/svg" xmlns:xlink="http://www.w3.org/1999/xlink" x="0px"
	 y="0px" viewBox="0 0 24 24" style="enable-background:new 0 0 24 24;" xml:space="preserve">
<path style="fill:#333333;" d="M12,23c-5.514,0-10-4.262-10-9.5S6.486,4,12,4c5.514,0,10,4.262,10,9.5S17.514,23,12,23z M12,6
	c-4.411,0-8,3.364-8,7.5S7.589,21,12,21s8-3.364,8-7.5S16.411,6,12,6z"/>
<path style="fill:#333333;" d="M8.244,15.29c-0.187,0-0.372-0.023-0.554-0.072c-1.354-0.363-2.073-1.92-1.638-3.544
	c0.436-1.625,1.832-2.618,3.191-2.251c0.688,0.184,1.25,0.707,1.542,1.434c0.256,0.638,0.291,1.388,0.096,2.111
	c-0.193,0.724-0.598,1.356-1.139,1.78C9.289,15.104,8.764,15.29,8.244,15.29z M8.687,11.35c-0.188,0-0.554,0.284-0.704,0.841
	c-0.16,0.599,0.055,1.05,0.225,1.096c0.07,0.019,0.187-0.021,0.299-0.112c0.199-0.156,0.36-0.42,0.442-0.725
	c0.082-0.304,0.074-0.613-0.021-0.848c-0.053-0.133-0.131-0.228-0.204-0.247C8.714,11.351,8.701,11.35,8.687,11.35z"/>
<path style="fill:#333333;" d="M15.689,15.29c-0.521,0-1.046-0.187-1.499-0.543c-0.54-0.424-0.944-1.057-1.139-1.78
	s-0.16-1.473,0.096-2.111c0.292-0.727,0.854-1.25,1.543-1.434c0.688-0.187,1.436-0.014,2.052,0.47
	c0.541,0.425,0.945,1.057,1.139,1.781c0.436,1.624-0.283,3.181-1.637,3.544C16.062,15.267,15.876,15.29,15.689,15.29z M15.245,11.35
	c-0.013,0-0.025,0.001-0.037,0.004l0,0c-0.072,0.02-0.15,0.114-0.204,0.247c-0.095,0.235-0.102,0.544-0.021,0.848
	c0.082,0.304,0.243,0.568,0.442,0.726c0.113,0.089,0.229,0.131,0.3,0.111c0.17-0.046,0.384-0.496,0.224-1.096
	c-0.081-0.304-0.242-0.568-0.441-0.724C15.413,11.392,15.316,11.35,15.245,11.35z"/>
<path style="fill:#333333;" d="M21.207,11.207l-1.414-1.414c1.217-1.217,1.287-3.127,0.156-4.257
	c-0.539-0.54-1.393-0.824-2.334-0.793c-0.938,0.035-1.839,0.396-2.408,0.965l-1.414-1.414c0.93-0.931,2.296-1.495,3.748-1.549
	c1.489-0.053,2.891,0.446,3.822,1.378C23.273,6.031,23.204,9.209,21.207,11.207z"/>
<path style="fill:#333333;" d="M2.793,11.207C0.792,9.206,0.715,6.027,2.621,4.121c1.905-1.907,5.593-1.823,7.586,0.171L8.793,5.707
	C7.573,4.486,5.171,4.4,4.035,5.535C2.909,6.662,2.986,8.571,4.207,9.792L2.793,11.207z"/>
<path style="fill:#333333;" d="M11.256,19.5c-0.192,0-0.365-0.026-0.513-0.063c-1.095-0.273-1.56-1.275-1.676-1.576l1.865-0.721
	c0.066,0.17,0.201,0.333,0.295,0.356c0.066,0.018,0.28-0.03,0.619-0.322L12.5,16.61l0.653,0.563
	c0.339,0.292,0.548,0.343,0.619,0.322c0.094-0.023,0.229-0.187,0.295-0.356l1.865,0.721c-0.116,0.301-0.58,1.303-1.675,1.576
	c-0.424,0.105-1.036,0.118-1.758-0.285C12.032,19.413,11.61,19.5,11.256,19.5z"/>
</svg>






