<?xml version="1.0" encoding="iso-8859-1"?>
<svg version="1.1" id="&#x56FE;&#x5C42;_1" xmlns="http://www.w3.org/2000/svg" xmlns:xlink="http://www.w3.org/1999/xlink" x="0px"
	 y="0px" viewBox="0 0 24 24" style="enable-background:new 0 0 24 24;" xml:space="preserve">
<path style="fill:#333333;" d="M19.225,11.509l-2.628-1.504c-0.057-0.032-0.126,0.006-0.126,0.076v3.74
	c0,0.069,0.038,0.126,0.095,0.164l2.628,1.504c0.057,0.032,0.126-0.006,0.126-0.076v-3.74C19.32,11.603,19.282,11.546,19.225,11.509
	z"/>
<path style="fill:#333333;" d="M15.555,9.437l-2.628-1.504C12.87,7.902,12.801,7.94,12.801,8.01v5.819
	c0,0.051,0.038,0.088,0.088,0.088h2.679c0.05,0,0.088-0.038,0.088-0.088V9.602C15.65,9.532,15.612,9.469,15.555,9.437z"/>
<path style="fill:#333333;" d="M9.339,15.471l2.628-1.504c0.057-0.032,0.095-0.095,0.095-0.164V7.586
	c0-0.063-0.069-0.107-0.126-0.076L9.307,9.014C9.25,9.046,9.212,9.109,9.212,9.178v6.217C9.212,15.465,9.282,15.503,9.339,15.471z"
	/>
<path style="fill:#333333;" d="M20.053,12.134v1.706c0,0.051,0.038,0.088,0.089,0.088h2.982c0.088,0,0.12-0.12,0.044-0.158
	l-2.982-1.706C20.123,12.026,20.053,12.071,20.053,12.134z"/>
<path style="fill:#333333;" d="M8.346,9.564l-7.304,4.189c-0.076,0.044-0.044,0.158,0.044,0.158h7.304
	c0.051,0,0.089-0.038,0.089-0.088V9.64C8.473,9.57,8.403,9.532,8.346,9.564z"/>
</svg>






