<?xml version="1.0" encoding="iso-8859-1"?>
<svg version="1.1" id="&#x56FE;&#x5C42;_1" xmlns="http://www.w3.org/2000/svg" xmlns:xlink="http://www.w3.org/1999/xlink" x="0px"
	 y="0px" viewBox="0 0 24 24" style="enable-background:new 0 0 24 24;" xml:space="preserve">
<path style="fill:#333333;" d="M23,19.5H1v-14h22V19.5z M3,17.5h18v-10H3V17.5z"/>
<path style="fill:#333333;" d="M2,11.5H1v-6h6v1C7,9.257,4.757,11.5,2,11.5z M3,7.5v1.829C3.851,9.027,4.527,8.351,4.829,7.5H3z"/>
<path style="fill:#333333;" d="M7,19.5H1v-6h1c2.757,0,5,2.243,5,5V19.5z M3,17.5h1.829C4.527,16.648,3.851,15.973,3,15.671V17.5z"
	/>
<path style="fill:#333333;" d="M23,19.5h-6v-1c0-2.757,2.243-5,5-5h1V19.5z M19.171,17.5H21v-1.829
	C20.148,15.973,19.473,16.648,19.171,17.5z"/>
<path style="fill:#333333;" d="M23,11.5h-1c-2.757,0-5-2.243-5-5v-1h6V11.5z M19.171,7.5C19.473,8.351,20.148,9.027,21,9.329V7.5
	H19.171z"/>
<path style="fill:#333333;" d="M12,16.5c-1.93,0-3.5-1.794-3.5-4c0-2.206,1.57-4,3.5-4s3.5,1.794,3.5,4
	C15.5,14.706,13.93,16.5,12,16.5z M12,10.5c-0.813,0-1.5,0.916-1.5,2s0.687,2,1.5,2c0.813,0,1.5-0.916,1.5-2S12.813,10.5,12,10.5z"
	/>
</svg>






