<?xml version="1.0" encoding="iso-8859-1"?>
<svg version="1.1" id="&#x56FE;&#x5C42;_1" xmlns="http://www.w3.org/2000/svg" xmlns:xlink="http://www.w3.org/1999/xlink" x="0px"
	 y="0px" viewBox="0 0 24 24" style="enable-background:new 0 0 24 24;" xml:space="preserve">
<path style="fill:#333333;" d="M6.035,22.8L1.097,12.43l1.146-1.4l11.592,2.898L6.035,22.8z M3.814,13.484L6.536,19.2l3.629-4.128
	L3.814,13.484z"/>
<path style="fill:#333333;" d="M17.965,22.8l-7.799-8.872l11.592-2.898l1.146,1.4L17.965,22.8z M13.834,15.072l3.629,4.128
	l2.723-5.716L13.834,15.072z"/>
<path style="fill:#333333;" d="M17.5,22h-11l-0.763-1.646L12,12.952l6.264,7.402L17.5,22z M8.656,20h6.688L12,16.048L8.656,20z"/>
<polygon style="fill:#333333;" points="17.122,13.479 12,4.088 6.878,13.479 5.122,12.521 11.122,1.521 12.878,1.521 18.878,12.521 
	"/>
</svg>






