<?xml version="1.0" encoding="iso-8859-1"?>
<svg version="1.1" id="&#x56FE;&#x5C42;_1" xmlns="http://www.w3.org/2000/svg" xmlns:xlink="http://www.w3.org/1999/xlink" x="0px"
	 y="0px" viewBox="0 0 24 24" style="enable-background:new 0 0 24 24;" xml:space="preserve">
<path style="fill:#333333;" d="M5.996,20.967c-1.143,0-2.405-0.405-3.542-1.542c-1.431-1.431-1.62-2.953-1.526-3.979
	c0.115-1.271,0.704-2.27,1.173-2.738l9.545-9.546c1.734-1.734,5.88-2.605,8.839,0.354c2.959,2.96,2.088,7.105,0.354,8.839
	l-7.071,7.071l-1.414-1.414l7.071-7.071c0.987-0.987,1.735-3.921-0.354-6.011c-2.09-2.09-5.023-1.34-6.011-0.354l-9.545,9.546
	c-0.195,0.195-0.529,0.775-0.595,1.505c-0.08,0.874,0.24,1.676,0.949,2.385c1.752,1.751,3.598,0.645,3.889,0.354l9.192-9.192
	c0.324-0.324,0.66-1.461,0-2.122c-0.661-0.66-1.798-0.324-2.121,0l-6.718,6.717l-1.414-1.414l6.718-6.718
	c1.146-1.144,3.556-1.393,4.949,0s1.145,3.805,0,4.95l-9.192,9.192C8.567,20.384,7.367,20.966,5.996,20.967z"/>
</svg>






