<?xml version="1.0" encoding="iso-8859-1"?>
<svg version="1.1" id="&#x56FE;&#x5C42;_1" xmlns="http://www.w3.org/2000/svg" xmlns:xlink="http://www.w3.org/1999/xlink" x="0px"
	 y="0px" viewBox="0 0 24 24" style="enable-background:new 0 0 24 24;" xml:space="preserve">
<rect x="12" y="3.5" style="fill:#333333;" width="9" height="2"/>
<rect x="12" y="8.5" style="fill:#333333;" width="9" height="2"/>
<rect x="3" y="13.5" style="fill:#333333;" width="18" height="2"/>
<rect x="3" y="18.5" style="fill:#333333;" width="18" height="2"/>
<path style="fill:#333333;" d="M3.5,10.616c-0.255,0-0.51-0.064-0.739-0.194C2.292,10.156,2,9.656,2,9.117V4.883
	c0-0.54,0.292-1.04,0.761-1.306C3.23,3.313,3.81,3.32,4.272,3.597L7.8,5.714C8.256,5.988,8.528,6.468,8.528,7S8.256,8.012,7.8,8.286
	l-3.528,2.117C4.035,10.545,3.768,10.616,3.5,10.616z M4,5.767v2.467L6.056,7L4,5.767z"/>
</svg>






