<?xml version="1.0" encoding="iso-8859-1"?>
<svg version="1.1" id="&#x56FE;&#x5C42;_1" xmlns="http://www.w3.org/2000/svg" xmlns:xlink="http://www.w3.org/1999/xlink" x="0px"
	 y="0px" viewBox="0 0 24 24" style="enable-background:new 0 0 24 24;" xml:space="preserve">
<rect x="12" y="3.5" style="fill:#333333;" width="9" height="2"/>
<rect x="12" y="8.5" style="fill:#333333;" width="9" height="2"/>
<rect x="3" y="13.5" style="fill:#333333;" width="18" height="2"/>
<rect x="3" y="18.5" style="fill:#333333;" width="18" height="2"/>
<path style="fill:none;" d="M5.5,4.5l-2,4h4L5.5,4.5z"/>
<path style="fill:#333333;" d="M7.105,9.947L6.882,9.5H4.118L3.895,9.947L2.105,9.053l0.5-1L3.5,8.5L2.605,8.053l2-4h1.789l2,4
	L7.5,8.5l0.895-0.447l0.5,1L7.105,9.947z M5.118,7.5h0.764L5.5,6.736L5.118,7.5z"/>
</svg>






