<?xml version="1.0" encoding="iso-8859-1"?>
<svg version="1.1" id="&#x56FE;&#x5C42;_1" xmlns="http://www.w3.org/2000/svg" xmlns:xlink="http://www.w3.org/1999/xlink" x="0px"
	 y="0px" viewBox="0 0 24 24" style="enable-background:new 0 0 24 24;" xml:space="preserve">
<path style="fill:#333333;" d="M8.416,13.362L7.713,12.76c-1.752-1.502-2.416-1.578-2.531-1.578s-0.779,0.076-2.531,1.578L1,12
	C1,5.935,5.935,1,12,1s11,4.935,11,11l-1.65,0.76c-1.752-1.502-2.416-1.578-2.531-1.578s-0.779,0.076-2.531,1.578l-0.702,0.602
	l-0.655-0.654c-2.027-2.025-3.835-2.024-5.859,0L8.416,13.362z M12,9.182c1.245,0,2.478,0.502,3.672,1.496
	c1.301-1.018,2.312-1.496,3.146-1.496c0.551,0,1.179,0.208,1.916,0.643C19.759,5.91,16.213,3,12,3S4.241,5.91,3.266,9.824
	C4.003,9.39,4.631,9.182,5.182,9.182c0.834,0,1.846,0.479,3.147,1.496C9.522,9.684,10.754,9.182,12,9.182z"/>
<polygon style="fill:#333333;" points="11.293,22.707 1.293,12.707 2.707,11.293 9.52,18.105 7.424,12.342 9.304,11.658 
	12.939,21.658 "/>
<polygon style="fill:#333333;" points="12.707,22.707 11.06,21.658 14.697,11.658 16.576,12.342 14.48,18.105 21.293,11.293 
	22.707,12.707 "/>
</svg>






