<?xml version="1.0" encoding="iso-8859-1"?>
<svg version="1.1" id="&#x56FE;&#x5C42;_1" xmlns="http://www.w3.org/2000/svg" xmlns:xlink="http://www.w3.org/1999/xlink" x="0px"
	 y="0px" viewBox="0 0 24 24" style="enable-background:new 0 0 24 24;" xml:space="preserve">
<path style="fill:#333333;" d="M22,13.5h-1c-1.92,0-3.249-1.946-4.656-4.006C15.002,7.53,13.615,5.5,12,5.5
	c-1.616,0-3.002,2.03-4.344,3.994C6.25,11.554,4.92,13.5,3,13.5H2v-2h1c0.864,0,2.001-1.665,3.005-3.134
	C7.562,6.085,9.329,3.5,12,3.5c2.672,0,4.438,2.585,5.995,4.866C18.998,9.835,20.136,11.5,21,11.5h1V13.5z"/>
<rect x="1" y="16.5" style="fill:#333333;" width="2" height="3"/>
<rect x="11" y="16.5" style="fill:#333333;" width="2" height="3"/>
<rect x="21" y="16.5" style="fill:#333333;" width="2" height="3"/>
<rect x="2" y="17" style="fill:#333333;" width="20" height="2"/>
</svg>






