<?xml version="1.0" encoding="iso-8859-1"?>
<svg version="1.1" id="&#x56FE;&#x5C42;_1" xmlns="http://www.w3.org/2000/svg" xmlns:xlink="http://www.w3.org/1999/xlink" x="0px"
	 y="0px" viewBox="0 0 24 24" style="enable-background:new 0 0 24 24;" xml:space="preserve">
<rect x="3" y="3.5" style="fill:#333333;" width="18" height="2"/>
<rect x="3" y="8.5" style="fill:#333333;" width="18" height="2"/>
<rect x="3" y="13.5" style="fill:#333333;" width="9" height="2"/>
<rect x="3" y="18.5" style="fill:#333333;" width="5" height="2"/>
<path style="fill:#333333;" d="M13.293,22.207l-2-2L12,19.5l-0.707-0.707l2-2l1.414,1.414L14.414,18.5H18.5
	c0.827,0,1.5-0.673,1.5-1.5s-0.673-1.5-1.5-1.5H16v-2h2.5c1.93,0,3.5,1.57,3.5,3.5s-1.57,3.5-3.5,3.5h-4.086l0.293,0.293
	L13.293,22.207z"/>
</svg>






