<?xml version="1.0" encoding="iso-8859-1"?>
<svg version="1.1" id="&#x56FE;&#x5C42;_1" xmlns="http://www.w3.org/2000/svg" xmlns:xlink="http://www.w3.org/1999/xlink" x="0px"
	 y="0px" viewBox="0 0 24 24" style="enable-background:new 0 0 24 24;" xml:space="preserve">
<path style="fill:#333333;" d="M20,23H6.812C4.283,23,3,21.486,3,18.5V1h7v2H5v15.5C5,20.812,5.821,21,6.812,21H18v-5.5h2V23z"/>
<path style="fill:#333333;" d="M16.5,14c-3.032,0-5.5-2.467-5.5-5.5S13.468,3,16.5,3S22,5.467,22,8.5S19.532,14,16.5,14z M16.5,5
	C14.57,5,13,6.57,13,8.5s1.57,3.5,3.5,3.5S20,10.43,20,8.5S18.43,5,16.5,5z"/>
<rect x="10" y="8" style="fill:#333333;" width="2" height="1"/>
<rect x="21" y="8" style="fill:#333333;" width="2" height="1"/>
<path style="fill:#333333;" d="M15.514,4.164c-0.002-0.009-0.194-0.89-1.288-1.202l0.549-1.923c1.862,0.532,2.581,2.009,2.712,2.798
	L15.514,4.164z"/>
<path style="fill:#333333;" d="M17.496,4.083l-1.992-0.167c0.017-0.208,0.207-2.046,1.5-2.785l0.992,1.736
	C17.761,3.002,17.534,3.632,17.496,4.083z"/>
<circle style="fill:#333333;" cx="18" cy="8" r="1"/>
<circle style="fill:#333333;" cx="15" cy="8" r="1"/>
<rect x="4" y="17" style="fill:#333333;" width="15" height="2"/>
</svg>






