<?xml version="1.0" encoding="iso-8859-1"?>
<svg version="1.1" id="&#x56FE;&#x5C42;_1" xmlns="http://www.w3.org/2000/svg" xmlns:xlink="http://www.w3.org/1999/xlink" x="0px"
	 y="0px" viewBox="0 0 24 24" style="enable-background:new 0 0 24 24;" xml:space="preserve">
<path style="fill:#333333;" d="M12,23.25l-0.6-0.45C11.057,22.543,3,16.421,3,9.5C3,4.813,7.038,1,12,1c4.963,0,9,3.813,9,8.5
	c0,6.921-8.057,13.043-8.4,13.3L12,23.25z M12,3C8.14,3,5,5.916,5,9.5c0,4.922,5.204,9.71,7,11.216c1.796-1.506,7-6.294,7-11.216
	C19,5.916,15.859,3,12,3z"/>
<rect x="9.5" y="7" style="fill:#333333;" width="2" height="8"/>
<path style="fill:#333333;" d="M13.5,12h-4V6h4c1.654,0,3,1.346,3,3S15.154,12,13.5,12z M11.5,10h2c0.552,0,1-0.449,1-1
	s-0.448-1-1-1h-2V10z"/>
</svg>






