<?xml version="1.0" encoding="iso-8859-1"?>
<svg version="1.1" id="&#x56FE;&#x5C42;_1" xmlns="http://www.w3.org/2000/svg" xmlns:xlink="http://www.w3.org/1999/xlink" x="0px"
	 y="0px" viewBox="0 0 24 24" style="enable-background:new 0 0 24 24;" xml:space="preserve">
<path style="fill:#333333;" d="M12.063,15c-1.996,0-5.494-2.945-6.053-6.858C5.721,6.121,6.188,4.287,7.323,2.977
	C8.429,1.702,10.112,1,12.063,1c2.025,0,3.646,0.623,4.686,1.801c1.109,1.257,1.527,3.048,1.243,5.323
	C17.46,12.384,14.181,15,12.063,15z M12.063,3c-1.382,0-2.499,0.445-3.229,1.288C8.084,5.152,7.785,6.42,7.99,7.858
	C8.436,10.98,11.205,13,12.063,13c0.91,0,3.501-1.576,3.944-5.124c0.21-1.681-0.045-2.943-0.759-3.751
	C14.591,3.378,13.519,3,12.063,3z"/>
<path style="fill:#333333;" d="M9.621,22.993l-0.241-1.986c1.775-0.216,3.612-0.707,4.352-1.13c-0.392-0.106-0.977-0.19-1.374-0.248
	C10.862,19.413,9,19.144,9,17.5c0-2.011,1.792-3.784,3.064-4.4l0.871,1.801c-0.76,0.368-1.803,1.433-1.924,2.415
	c0.336,0.146,1.132,0.262,1.632,0.334C14.139,17.865,16,18.134,16,19.777C16,21.901,12.003,22.704,9.621,22.993z"/>
</svg>






