<?xml version="1.0" encoding="iso-8859-1"?>
<svg version="1.1" id="&#x56FE;&#x5C42;_1" xmlns="http://www.w3.org/2000/svg" xmlns:xlink="http://www.w3.org/1999/xlink" x="0px"
	 y="0px" viewBox="0 0 24 24" style="enable-background:new 0 0 24 24;" xml:space="preserve">
<path style="fill:#333333;" d="M6.5,21h-2c-1.103,0-2-0.897-2-2V3c0-1.103,0.897-2,2-2h10c1.103,0,2,0.897,2,2v2h-2V3h-10v16h2V21z"
	/>
<path style="fill:#333333;" d="M19.5,23h-12c-1.103,0-2-0.897-2-2V6c0-1.103,0.897-2,2-2h12c1.103,0,2,0.897,2,2v15
	C21.5,22.103,20.603,23,19.5,23z M7.5,6v15.001L19.5,21V6H7.5z"/>
<path style="fill:#333333;" d="M13.5,18.5c-2.757,0-5-2.243-5-5s2.243-5,5-5s5,2.243,5,5S16.257,18.5,13.5,18.5z M13.5,10.5
	c-1.654,0-3,1.346-3,3s1.346,3,3,3s3-1.346,3-3S15.154,10.5,13.5,10.5z"/>
<path style="fill:#333333;" d="M13.168,18.055c-0.639-0.956-0.137-3.329,1.232-4.354c1.305-0.98,3.069-0.719,3.264-0.687
	l-0.323,1.974c-0.306-0.048-1.211-0.085-1.741,0.312c-0.534,0.4-0.772,1.469-0.702,1.779c-0.001,0-0.014-0.056-0.065-0.134
	L13.168,18.055z"/>
<path style="fill:#333333;" d="M10,16.5v-2c0.449,0,1-0.552,1-1h2C13,15.042,11.542,16.5,10,16.5z"/>
<path style="fill:#333333;" d="M14,13v-2c0.466,0,0.5-0.997,0.5-1.006l2,0.006C16.5,11.206,15.834,13,14,13z"/>
</svg>






