<?xml version="1.0" encoding="iso-8859-1"?>
<svg version="1.1" id="&#x56FE;&#x5C42;_1" xmlns="http://www.w3.org/2000/svg" xmlns:xlink="http://www.w3.org/1999/xlink" x="0px"
	 y="0px" viewBox="0 0 24 24" style="enable-background:new 0 0 24 24;" xml:space="preserve">
<path style="fill:#333333;" d="M22,9h-7V2h7V9z M17,7h3V4h-3V7z"/>
<path style="fill:#333333;" d="M22,22h-7v-7h7V22z M17,20h3v-3h-3V20z"/>
<path style="fill:#333333;" d="M9,22H2v-7h7V22z M4,20h3v-3H4V20z"/>
<path style="fill:#333333;" d="M9,9H2V2h7V9z M4,7h3V4H4V7z"/>
<rect x="4" y="11" style="fill:#333333;" width="11" height="2"/>
<rect x="19" y="11" style="fill:#333333;" width="1" height="2"/>
<rect x="11" y="18.5" style="fill:#333333;" width="2" height="1"/>
<rect x="11" y="8.5" style="fill:#333333;" width="2" height="7"/>
<rect x="11" y="4" style="fill:#333333;" width="2" height="1"/>
</svg>






