<?xml version="1.0" encoding="iso-8859-1"?>
<svg version="1.1" id="&#x56FE;&#x5C42;_1" xmlns="http://www.w3.org/2000/svg" xmlns:xlink="http://www.w3.org/1999/xlink" x="0px"
	 y="0px" viewBox="0 0 24 24" style="enable-background:new 0 0 24 24;" xml:space="preserve">
<path style="fill:#333333;" d="M13.876,22.5h-6.55L10.148,5h6.367c3.747,0,5.984,1.869,5.984,5s-2.237,5-5.984,5h-1.64L13.876,22.5z
	 M9.674,20.5h2.45l1-7.5h3.392c2.644,0,3.984-1.009,3.984-3s-1.341-3-3.984-3h-4.664L9.674,20.5z"/>
<path style="fill:#333333;" d="M9,19H3.826L6.648,1.5h6.367C16.763,1.5,19,3.369,19,6.5s-2.237,5-5.984,5H10.5v-2h2.516
	C15.659,9.5,17,8.491,17,6.5s-1.341-3-3.984-3H8.352L6.174,17H9V19z"/>
</svg>






