<?xml version="1.0" encoding="iso-8859-1"?>
<svg version="1.1" id="&#x56FE;&#x5C42;_1" xmlns="http://www.w3.org/2000/svg" xmlns:xlink="http://www.w3.org/1999/xlink" x="0px"
	 y="0px" viewBox="0 0 24 24" style="enable-background:new 0 0 24 24;" xml:space="preserve">
<path style="fill:#333333;" d="M12,20.5c-2.206,0-4-1.794-4-4s1.794-4,4-4c2.206,0,4,1.794,4,4S14.206,20.5,12,20.5z M12,14.5
	c-1.103,0-2,0.897-2,2s0.897,2,2,2c1.103,0,2-0.897,2-2S13.103,14.5,12,14.5z"/>
<path style="fill:#333333;" d="M12,9c-1.378,0-2.5-1.122-2.5-2.5S10.622,4,12,4c1.379,0,2.5,1.122,2.5,2.5S13.379,9,12,9z M12,6
	c-0.276,0-0.5,0.224-0.5,0.5S11.724,7,12,7c0.275,0,0.5-0.224,0.5-0.5S12.275,6,12,6z"/>
<rect x="11" y="20" style="fill:#333333;" width="2" height="2"/>
<rect x="7.459" y="10" transform="matrix(0.1641 -0.9864 0.9864 0.1641 -2.0738 19.5528)" style="fill:#333333;" width="6.083" height="2"/>
<rect x="12.5" y="7.959" transform="matrix(0.9864 -0.1644 0.1644 0.9864 -1.6248 2.3693)" style="fill:#333333;" width="2" height="6.083"/>
<rect x="6.846" y="19.25" transform="matrix(0.3937 -0.9192 0.9192 0.3937 -13.3095 20.3213)" style="fill:#333333;" width="3.808" height="1.999"/>
<rect x="14.25" y="18.346" transform="matrix(0.9191 -0.3939 0.3939 0.9191 -6.7438 7.6446)" style="fill:#333333;" width="1.999" height="3.808"/>
<rect x="11" y="2" style="fill:#333333;" width="2" height="3"/>
</svg>






