<?xml version="1.0" encoding="iso-8859-1"?>
<svg version="1.1" id="&#x56FE;&#x5C42;_1" xmlns="http://www.w3.org/2000/svg" xmlns:xlink="http://www.w3.org/1999/xlink" x="0px"
	 y="0px" viewBox="0 0 24 24" style="enable-background:new 0 0 24 24;" xml:space="preserve">
<path style="fill:#333333;" d="M9.161,21.652c-1.264,0-2.523-0.476-3.49-1.414l-0.595-0.579c-1.963-1.905-2.372-4.888-0.993-7.252
	L5.9,9.291l1.509-3.33C8.224,4.162,10.026,3,12,3c1.974,0,3.775,1.162,4.592,2.96l1.509,3.331l1.817,3.117
	c1.378,2.364,0.97,5.347-0.994,7.253l-0.594,0.577c-1.726,1.675-4.381,1.876-6.33,0.531C11.144,21.359,10.151,21.652,9.161,21.652z
	 M11.685,20.533c0,0,0.001,0.001,0.001,0.001C11.686,20.534,11.686,20.533,11.685,20.533z M9.23,6.786l-1.577,3.468l-1.843,3.162
	c-0.915,1.567-0.644,3.546,0.659,4.81l0.596,0.579c1.092,1.061,2.808,1.137,3.989,0.177c0.549-0.445,1.346-0.446,1.893,0.001
	c1.182,0.959,2.896,0.883,3.99-0.179l0.594-0.577c1.303-1.265,1.574-3.243,0.659-4.811l-1.89-3.252l-1.53-3.377
	C14.278,5.701,13.19,5,12,5C10.809,5,9.722,5.701,9.23,6.786L9.23,6.786z"/>
<path style="fill:#333333;" d="M12.971,5.992L11.03,5.508c0.049-0.197,0.154-0.899,0-1.516C10.918,3.545,10.438,3.017,10.15,2.8
	L11.35,1.2c0.131,0.099,1.293,1,1.62,2.308C13.271,4.712,13.002,5.864,12.971,5.992z"/>
<circle style="fill:#333333;" cx="8" cy="14" r="1"/>
<circle style="fill:#333333;" cx="9" cy="17" r="1"/>
<circle style="fill:#333333;" cx="11.5" cy="15" r="1"/>
</svg>






