<?xml version="1.0" encoding="iso-8859-1"?>
<svg version="1.1" id="&#x56FE;&#x5C42;_1" xmlns="http://www.w3.org/2000/svg" xmlns:xlink="http://www.w3.org/1999/xlink" x="0px"
	 y="0px" viewBox="0 0 24 24" style="enable-background:new 0 0 24 24;" xml:space="preserve">
<g>
	<defs>
		<rect id="SVGID_1_" width="24" height="24"/>
	</defs>
	<clipPath id="SVGID_00000103224862493532071610000015377048336981137055_">
		<use xlink:href="#SVGID_1_"  style="overflow:visible;"/>
	</clipPath>
	<g style="clip-path:url(#SVGID_00000103224862493532071610000015377048336981137055_);">
		<path style="fill:#333333;" d="M13.081,23.003c-0.048,0-0.096-0.002-0.144-0.005c-0.797-0.05-1.559-0.482-2.204-1.25
			c-1.417-1.687-2.079-4.697-1.728-7.858c0.528-4.752,3.604-8.388,3.735-8.541l0.702-0.82l0.764,0.764C14.362,5.448,18,9.142,18,14
			c0,3.23-1.131,6.464-2.813,8.045C14.517,22.674,13.792,23.003,13.081,23.003z M13.553,7.607c-0.863,1.276-2.248,3.7-2.559,6.503
			c-0.35,3.154,0.466,5.393,1.271,6.351c0.276,0.329,0.567,0.526,0.798,0.541c0.162,0.005,0.415-0.095,0.755-0.415
			C14.868,19.6,16,17.117,16,14C16,11.242,14.502,8.847,13.553,7.607z"/>
		<path style="fill:#333333;" d="M21.949,12.315l-1.898-0.631c0.008-0.021,0.717-2.183,0.953-4.775
			c0.14-1.528-0.157-2.879-0.648-2.951c-0.11-0.015-0.239-0.008-0.385,0.018c0.466,0.696,0.726,1.507,0.488,2.309
			c-0.332,1.119-1.158,1.824-2.155,1.84c-1.026,0.024-1.881-0.693-2.252-1.808c-0.271-0.814-0.068-1.702,0.571-2.51
			c-0.262-0.074-0.469-0.07-0.58,0.002c-1.137,0.734-1.567,2.414-1.572,2.431l-1.942-0.476c0.024-0.1,0.616-2.462,2.429-3.635
			c0.916-0.591,2.194-0.472,3.41,0.301c0.763-0.374,1.586-0.551,2.277-0.451c2.051,0.3,2.56,2.837,2.352,5.112
			C22.737,9.923,21.98,12.22,21.949,12.315z M18.238,4.991c-0.004,0.004-0.008,0.008-0.011,0.013
			c-0.227,0.271-0.331,0.524-0.279,0.68c0.113,0.338,0.275,0.441,0.322,0.441l0,0c0.04,0,0.179-0.099,0.271-0.41
			C18.574,5.604,18.479,5.322,18.238,4.991z"/>
		<path style="fill:#333333;" d="M3.504,19.096c-0.006,0-0.011,0-0.017,0c-0.94-0.003-1.716-0.329-2.245-0.943
			c-1.664-1.933-0.138-6.171,3.551-9.859c3.797-3.797,8.614-3.312,8.817-3.287l0.89,0.099V6c0,0.179-0.043,4.424-3.748,8.658
			C8.284,17.479,5.643,19.096,3.504,19.096z M12.385,6.994C10.98,7.08,8.364,7.55,6.207,9.707c-3.386,3.386-4.045,6.448-3.449,7.141
			c0.175,0.203,0.498,0.247,0.737,0.248c0.002,0,0.005,0,0.008,0c1.19,0,3.321-0.985,5.744-3.754
			C11.431,10.846,12.149,8.337,12.385,6.994z"/>
		<circle style="fill:#333333;" cx="13.622" cy="13.704" r="1.25"/>
		<circle style="fill:#333333;" cx="13.122" cy="17.204" r="1.25"/>
	</g>
</g>
</svg>






