<?xml version="1.0" encoding="iso-8859-1"?>
<svg version="1.1" id="&#x56FE;&#x5C42;_1" xmlns="http://www.w3.org/2000/svg" xmlns:xlink="http://www.w3.org/1999/xlink" x="0px"
	 y="0px" viewBox="0 0 24 24" style="enable-background:new 0 0 24 24;" xml:space="preserve">
<g>
	<defs>
		<rect id="SVGID_1_" width="24" height="24"/>
	</defs>
	<clipPath id="SVGID_00000059281559822813989300000008146929722934296708_">
		<use xlink:href="#SVGID_1_"  style="overflow:visible;"/>
	</clipPath>
	<g style="clip-path:url(#SVGID_00000059281559822813989300000008146929722934296708_);">
		
			<rect x="16.5" y="3.671" transform="matrix(0.7071 -0.7071 0.7071 0.7071 0.5298 14.278)" style="fill:#333333;" width="2" height="5.657"/>
		<path style="fill:#333333;" d="M1.725,22.273l1.354-6.768L18,0.586L23.414,6L8.493,20.92L1.725,22.273z M4.921,16.492
			l-0.647,3.232l3.232-0.646L20.586,6L18,3.414L4.921,16.492z"/>
		
			<rect x="16.5" y="3.671" transform="matrix(0.7071 -0.7071 0.7071 0.7071 0.5298 14.278)" style="fill:#333333;" width="2" height="5.657"/>
		
			<rect x="5.25" y="15.274" transform="matrix(0.7071 -0.7071 0.7071 0.7071 -10.72 9.6176)" style="fill:#333333;" width="2" height="4.95"/>
		
			<rect x="4.222" y="10.999" transform="matrix(0.7071 -0.7071 0.7071 0.7071 -4.9701 11.9996)" style="fill:#333333;" width="15.556" height="2"/>
	</g>
</g>
</svg>






