<?xml version="1.0" encoding="iso-8859-1"?>
<svg version="1.1" id="&#x56FE;&#x5C42;_1" xmlns="http://www.w3.org/2000/svg" xmlns:xlink="http://www.w3.org/1999/xlink" x="0px"
	 y="0px" viewBox="0 0 24 24" style="enable-background:new 0 0 24 24;" xml:space="preserve">
<path style="fill:#333333;" d="M23,20.5H1v-17h8.086L12,0.586L14.914,3.5H23V20.5z M3,18.5h18v-13h-6.914L12,3.414L9.914,5.5H3V18.5
	z"/>
<path style="fill:#333333;" d="M12,13.5c-1.93,0-3.5-1.57-3.5-3.5s1.57-3.5,3.5-3.5s3.5,1.57,3.5,3.5S13.93,13.5,12,13.5z M12,8.5
	c-0.827,0-1.5,0.673-1.5,1.5s0.673,1.5,1.5,1.5s1.5-0.673,1.5-1.5S12.827,8.5,12,8.5z"/>
<path style="fill:#333333;" d="M17.5,16.5h-2c0-1.654-1.57-3-3.5-3s-3.5,1.346-3.5,3h-2c0-2.757,2.467-5,5.5-5
	C15.032,11.5,17.5,13.743,17.5,16.5z"/>
</svg>






