<?xml version="1.0" encoding="iso-8859-1"?>
<svg version="1.1" id="&#x56FE;&#x5C42;_1" xmlns="http://www.w3.org/2000/svg" xmlns:xlink="http://www.w3.org/1999/xlink" x="0px"
	 y="0px" viewBox="0 0 24 24" style="enable-background:new 0 0 24 24;" xml:space="preserve">
<path style="fill:#333333;" d="M12,22.914L9.086,20H1V3h22v17h-8.086L12,22.914z M3,18h6.914L12,20.086L14.086,18H21V5H3V18z"/>
<path style="fill:#333333;" d="M12,13c-1.93,0-3.5-1.57-3.5-3.5S10.07,6,12,6s3.5,1.57,3.5,3.5S13.93,13,12,13z M12,8
	c-0.827,0-1.5,0.673-1.5,1.5S11.173,11,12,11s1.5-0.673,1.5-1.5S12.827,8,12,8z"/>
<path style="fill:#333333;" d="M17.5,16h-2c0-1.654-1.57-3-3.5-3s-3.5,1.346-3.5,3h-2c0-2.757,2.467-5,5.5-5
	C15.032,11,17.5,13.243,17.5,16z"/>
</svg>






