<?xml version="1.0" encoding="iso-8859-1"?>
<svg version="1.1" id="&#x56FE;&#x5C42;_1" xmlns="http://www.w3.org/2000/svg" xmlns:xlink="http://www.w3.org/1999/xlink" x="0px"
	 y="0px" viewBox="0 0 24 24" style="enable-background:new 0 0 24 24;" xml:space="preserve">
<path style="fill:#333333;" d="M9.5,11C7.019,11,5,8.981,5,6.5S7.019,2,9.5,2S14,4.019,14,6.5S11.981,11,9.5,11z M9.5,4
	C8.122,4,7,5.122,7,6.5S8.122,9,9.5,9S12,7.878,12,6.5S10.878,4,9.5,4z"/>
<polygon style="fill:#333333;" points="21.293,12.207 17.586,8.5 21.293,4.793 22.707,6.207 20.414,8.5 22.707,10.793 "/>
<path style="fill:#333333;" d="M18,22H1v-1.6c0-2.397,0-3.601,0.545-4.671c0.483-0.947,1.238-1.702,2.185-2.185
	C4.8,13,6.003,13,8.4,13h2.2c2.397,0,3.599,0,4.669,0.544c0.947,0.483,1.703,1.239,2.186,2.185C18,16.801,18,18.004,18,20.4V22z
	 M3,20h13c-0.001-1.814-0.021-2.763-0.327-3.363c-0.289-0.566-0.743-1.021-1.312-1.311C13.721,15,12.678,15,10.6,15H8.4
	c-2.078,0-3.121,0-3.762,0.327c-0.568,0.289-1.021,0.742-1.311,1.311C3.021,17.237,3.001,18.187,3,20z"/>
</svg>






