<?xml version="1.0" encoding="iso-8859-1"?>
<svg version="1.1" id="&#x56FE;&#x5C42;_1" xmlns="http://www.w3.org/2000/svg" xmlns:xlink="http://www.w3.org/1999/xlink" x="0px"
	 y="0px" viewBox="0 0 24 24" style="enable-background:new 0 0 24 24;" xml:space="preserve">
<path style="fill:#333333;" d="M12.001,23.054l-0.316-0.104C5.711,20.959,2,16.003,2,10.014V3.878l10.004-2.92L22,3.878v6.139
	c0,5.987-3.71,10.942-9.683,12.932L12.001,23.054z M4,5.378v4.636c0,4.994,3.056,9.153,8.001,10.928
	C16.944,19.167,20,15.01,20,10.017v-4.64l-7.996-2.335L4,5.378z"/>
<path style="fill:#333333;" d="M12,12.5c-1.93,0-3.5-1.57-3.5-3.5s1.57-3.5,3.5-3.5s3.5,1.57,3.5,3.5S13.93,12.5,12,12.5z M12,7.5
	c-0.827,0-1.5,0.673-1.5,1.5s0.673,1.5,1.5,1.5s1.5-0.673,1.5-1.5S12.827,7.5,12,7.5z"/>
<path style="fill:#333333;" d="M17,15.5h-2c0-1.654-1.346-3-3-3s-3,1.346-3,3H7c0-2.757,2.243-5,5-5S17,12.743,17,15.5z"/>
</svg>






