<?xml version="1.0" encoding="iso-8859-1"?>
<svg version="1.1" id="&#x56FE;&#x5C42;_1" xmlns="http://www.w3.org/2000/svg" xmlns:xlink="http://www.w3.org/1999/xlink" x="0px"
	 y="0px" viewBox="0 0 24 24" style="enable-background:new 0 0 24 24;" xml:space="preserve">
<path style="fill:#333333;" d="M12,10c-2.481,0-4.5-2.019-4.5-4.5S9.519,1,12,1s4.5,2.019,4.5,4.5S14.481,10,12,10z M12,3
	c-1.378,0-2.5,1.122-2.5,2.5S10.622,8,12,8c1.379,0,2.5-1.122,2.5-2.5S13.379,3,12,3z"/>
<path style="fill:#333333;" d="M3,20.5H1c0-4.963,4.486-9,10-9v2C6.589,13.5,3,16.641,3,20.5z"/>
<path style="fill:#333333;" d="M17.5,21c-2.206,0-4-1.794-4-4s1.794-4,4-4s4,1.794,4,4S19.706,21,17.5,21z M17.5,15
	c-1.103,0-2,0.897-2,2s0.897,2,2,2s2-0.897,2-2S18.603,15,17.5,15z"/>
<rect x="20" y="18.5" transform="matrix(0.6 -0.8 0.8 0.6 -7.4 24.7)" style="fill:#333333;" width="1.999" height="2.5"/>
</svg>






