<?xml version="1.0" encoding="iso-8859-1"?>
<svg version="1.1" id="&#x56FE;&#x5C42;_1" xmlns="http://www.w3.org/2000/svg" xmlns:xlink="http://www.w3.org/1999/xlink" x="0px"
	 y="0px" viewBox="0 0 24 24" style="enable-background:new 0 0 24 24;" xml:space="preserve">
<path style="fill:#333333;" d="M9.5,11C7.019,11,5,8.981,5,6.5S7.019,2,9.5,2S14,4.019,14,6.5S11.981,11,9.5,11z M9.5,4
	C8.122,4,7,5.122,7,6.5S8.122,9,9.5,9S12,7.878,12,6.5S10.878,4,9.5,4z"/>
<path style="fill:#333333;" d="M13.5,22H2v-1.6c0-2.397,0-3.601,0.545-4.671c0.483-0.947,1.238-1.702,2.185-2.185
	C5.8,13,7.003,13,9.4,13h4.1v2H9.4c-2.078,0-3.121,0-3.762,0.327c-0.568,0.289-1.021,0.742-1.311,1.311
	C4.021,17.237,4.001,18.187,4,20h9.5V22z"/>
<rect x="18.207" y="18.586" transform="matrix(0.7071 -0.7071 0.7071 0.7071 -8.3094 19.3535)" style="fill:#333333;" width="2" height="2.243"/>
<path style="fill:#333333;" d="M17,20.5c-1.654,0-3-1.346-3-3s1.346-3,3-3s3,1.346,3,3c0,0.803-0.312,1.557-0.88,2.122
	C18.557,20.188,17.803,20.5,17,20.5z M17,16.5c-0.552,0-1,0.448-1,1s0.448,1,1,1c0.268,0,0.519-0.104,0.706-0.292
	C17.896,18.019,18,17.768,18,17.5C18,16.948,17.552,16.5,17,16.5z"/>
</svg>






