<?xml version="1.0" encoding="iso-8859-1"?>
<svg version="1.1" id="&#x56FE;&#x5C42;_1" xmlns="http://www.w3.org/2000/svg" xmlns:xlink="http://www.w3.org/1999/xlink" x="0px"
	 y="0px" viewBox="0 0 24 24" style="enable-background:new 0 0 24 24;" xml:space="preserve">
<path style="fill:#333333;" d="M12,10c-2.481,0-4.5-2.019-4.5-4.5S9.519,1,12,1s4.5,2.019,4.5,4.5S14.481,10,12,10z M12,3
	c-1.378,0-2.5,1.122-2.5,2.5S10.622,8,12,8c1.379,0,2.5-1.122,2.5-2.5S13.379,3,12,3z"/>
<path style="fill:#333333;" d="M3,20.5H1c0-4.963,4.486-9,10-9v2C6.589,13.5,3,16.641,3,20.5z"/>
<path style="fill:#333333;" d="M17.5,22.171l-0.521-0.317C16.817,21.755,13,19.373,13,14.6c0-0.567,0-1.273,4.209-2.557l0.291-0.088
	l0.291,0.088C22,13.326,22,14.032,22,14.6c0,4.773-3.817,7.155-3.979,7.254L17.5,22.171z M15.013,15.007
	c0.151,2.486,1.664,4.068,2.487,4.753c0.822-0.683,2.336-2.265,2.487-4.753c-0.464-0.245-1.47-0.636-2.487-0.959
	C16.482,14.371,15.477,14.762,15.013,15.007z"/>
</svg>






