<?xml version="1.0" encoding="iso-8859-1"?>
<svg version="1.1" id="&#x56FE;&#x5C42;_1" xmlns="http://www.w3.org/2000/svg" xmlns:xlink="http://www.w3.org/1999/xlink" x="0px"
	 y="0px" viewBox="0 0 24 24" style="enable-background:new 0 0 24 24;" xml:space="preserve">
<path style="fill:#333333;" d="M5.5,9C3.57,9,2,7.43,2,5.5S3.57,2,5.5,2S9,3.57,9,5.5S7.43,9,5.5,9z M5.5,4C4.673,4,4,4.673,4,5.5
	S4.673,7,5.5,7S7,6.327,7,5.5S6.327,4,5.5,4z"/>
<path style="fill:#333333;" d="M18.5,22c-1.93,0-3.5-1.57-3.5-3.5s1.57-3.5,3.5-3.5s3.5,1.57,3.5,3.5S20.43,22,18.5,22z M18.5,17
	c-0.827,0-1.5,0.673-1.5,1.5s0.673,1.5,1.5,1.5s1.5-0.673,1.5-1.5S19.327,17,18.5,17z"/>
<rect x="-0.728" y="11" transform="matrix(0.7071 -0.7071 0.7071 0.7071 -4.9706 12)" style="fill:#333333;" width="25.456" height="2"/>
</svg>






