<?xml version="1.0" encoding="iso-8859-1"?>
<svg version="1.1" id="&#x56FE;&#x5C42;_1" xmlns="http://www.w3.org/2000/svg" xmlns:xlink="http://www.w3.org/1999/xlink" x="0px"
	 y="0px" viewBox="0 0 24 24" style="enable-background:new 0 0 24 24;" xml:space="preserve">
<path style="fill:#333333;" d="M20.5,21.5h-17c-1.103,0-2-0.897-2-2v-10c0-1.103,0.897-2,2-2h17c1.103,0,2,0.897,2,2v10
	C22.5,20.603,21.603,21.5,20.5,21.5z M3.5,9.5H3.499l0.001,10h17v-10H3.5z"/>
<path style="fill:#333333;" d="M18,9.5H6v-7h12V9.5z M8,7.5h8v-3H8V7.5z"/>
<path style="fill:#333333;" d="M16,17.5H8v-6h8V17.5z M10,15.5h4v-2h-4V15.5z"/>
<rect x="15" y="13.5" style="fill:#333333;" width="6.5" height="2"/>
<rect x="2.5" y="13.5" style="fill:#333333;" width="6.5" height="2"/>
<rect x="1.5" y="12" style="fill:#333333;" width="2" height="5"/>
<rect x="20.5" y="12" style="fill:#333333;" width="2" height="5"/>
</svg>






