<?xml version="1.0" encoding="iso-8859-1"?>
<svg version="1.1" id="&#x56FE;&#x5C42;_1" xmlns="http://www.w3.org/2000/svg" xmlns:xlink="http://www.w3.org/1999/xlink" x="0px"
	 y="0px" viewBox="0 0 24 24" style="enable-background:new 0 0 24 24;" xml:space="preserve">
<path style="fill:#333333;" d="M12,23C5.935,23,1,18.065,1,12S5.935,1,12,1v2c-4.962,0-9,4.038-9,9c0,4.963,4.038,9,9,9
	c4.963,0,9-4.037,9-9c0-1.194-0.229-2.354-0.683-3.444c-0.113-0.274-0.24-0.541-0.379-0.8l1.766-0.94
	c0.168,0.315,0.322,0.641,0.461,0.974C22.719,9.124,23,10.541,23,12C23,18.065,18.065,23,12,23z"/>
<path style="fill:#333333;" d="M17.5,6c-1.683,0-3-1.098-3-2.5s1.317-2.5,3-2.5s3,1.098,3,2.5S19.183,6,17.5,6z M17.5,3
	c-0.62,0-1,0.324-1,0.5s0.38,0.5,1,0.5s1-0.324,1-0.5S18.12,3,17.5,3z"/>
<path style="fill:#333333;" d="M12,16.5c-2.481,0-4.5-2.019-4.5-4.5S9.519,7.5,12,7.5s4.5,2.019,4.5,4.5S14.481,16.5,12,16.5z
	 M12,9.5c-1.378,0-2.5,1.122-2.5,2.5c0,1.379,1.122,2.5,2.5,2.5c1.379,0,2.5-1.121,2.5-2.5C14.5,10.622,13.379,9.5,12,9.5z"/>
<rect x="14.5" y="3.25" style="fill:#333333;" width="2" height="8.75"/>
</svg>






