<?xml version="1.0" encoding="iso-8859-1"?>
<svg version="1.1" id="&#x56FE;&#x5C42;_1" xmlns="http://www.w3.org/2000/svg" xmlns:xlink="http://www.w3.org/1999/xlink" x="0px"
	 y="0px" viewBox="0 0 24 24" style="enable-background:new 0 0 24 24;" xml:space="preserve">
<path style="fill:#333333;" d="M14.5,8h-5C8.122,8,7,6.878,7,5.5v-2C7,2.122,8.122,1,9.5,1h5C15.879,1,17,2.122,17,3.5v2
	C17,6.878,15.879,8,14.5,8z M9.5,3C9.224,3,9,3.224,9,3.5v2C9,5.776,9.224,6,9.5,6h5C14.775,6,15,5.776,15,5.5v-2
	C15,3.224,14.775,3,14.5,3H9.5z"/>
<path style="fill:#333333;" d="M15,23H9c-3.86,0-7-3.141-7-7s3.14-7,7-7h6c3.859,0,7,3.141,7,7S18.859,23,15,23z M9,11
	c-2.757,0-5,2.243-5,5s2.243,5,5,5h6c2.757,0,5-2.243,5-5s-2.243-5-5-5H9z"/>
<path style="fill:#333333;" d="M17.812,18.366c-1.906,0-3.98-0.696-5.701-1.274l-0.427-0.144c-2.958-0.985-6.819-1.201-7.897,0.17
	l-1.572-1.236c2.069-2.63,7.512-1.694,10.103-0.83l0.432,0.145c2.674,0.898,6.003,2.016,7.471,0.179l1.562,1.25
	C20.742,17.924,19.33,18.366,17.812,18.366z"/>
<path style="fill:#333333;" d="M12.5,4.5C12.5,4.776,12.276,5,12,5s-0.5-0.224-0.5-0.5C11.5,4.224,11.724,4,12,4
	S12.5,4.224,12.5,4.5z"/>
</svg>






