<?xml version="1.0" encoding="iso-8859-1"?>
<svg version="1.1" id="&#x56FE;&#x5C42;_1" xmlns="http://www.w3.org/2000/svg" xmlns:xlink="http://www.w3.org/1999/xlink" x="0px"
	 y="0px" viewBox="0 0 24 24" style="enable-background:new 0 0 24 24;" xml:space="preserve">
<path style="fill:#333333;" d="M12,10c-2.481,0-4.5-2.019-4.5-4.5S9.519,1,12,1s4.5,2.019,4.5,4.5S14.481,10,12,10z M12,3
	c-1.378,0-2.5,1.122-2.5,2.5S10.622,8,12,8c1.379,0,2.5-1.122,2.5-2.5S13.379,3,12,3z"/>
<path style="fill:#333333;" d="M3,20.5H1c0-4.963,4.486-9,10-9v2C6.589,13.5,3,16.641,3,20.5z"/>
<path style="fill:#333333;" d="M17.5,22.072l-0.361-0.14C15.74,21.391,13,19.095,13,16.243C13,14.455,14.312,13,15.925,13
	c0.567,0,1.112,0.181,1.575,0.508C17.963,13.181,18.508,13,19.075,13C20.688,13,22,14.455,22,16.243c0,2.852-2.74,5.147-4.139,5.689
	L17.5,22.072z M15.925,15C15.424,15,15,15.569,15,16.243c0,1.498,1.466,3.048,2.5,3.647c1.034-0.6,2.5-2.149,2.5-3.647
	C20,15.569,19.576,15,19.075,15c-0.276,0-0.539,0.172-0.72,0.471L17.5,16.885l-0.855-1.414C16.464,15.172,16.201,15,15.925,15z"/>
</svg>






