<?xml version="1.0" encoding="iso-8859-1"?>
<svg version="1.1" id="&#x56FE;&#x5C42;_1" xmlns="http://www.w3.org/2000/svg" xmlns:xlink="http://www.w3.org/1999/xlink" x="0px"
	 y="0px" viewBox="0 0 24 24" style="enable-background:new 0 0 24 24;" xml:space="preserve">
<path style="fill:#333333;" d="M1,23.22V16h1H1V8h1H1V0.78l7.696,1.539L8.502,3.288l0.194-0.969L23,5.18V10h-1h1v4h-1h1v4.82
	l-14.304,2.86l-0.194-0.969l0.194,0.969L1,23.22z M3,16.905v3.875l4.5-0.9v-3.425L3,16.905z M9.5,16.255v3.226l5-1v-2.726
	L9.5,16.255z M16.5,15.555v2.525l4.5-0.9v-2.074L16.5,15.555z M3,9.105v5.79l4.5-0.449v-4.89L3,9.105z M9.5,9.755v4.49l5-0.5v-3.49
	L9.5,9.755z M16.5,10.455v3.09l4.5-0.45v-2.19L16.5,10.455z M16.5,8.445l4.5,0.45V6.82l-4.5-0.9V8.445z M9.5,7.745l5,0.5V5.52l-5-1
	V7.745z M3,7.095l4.5,0.45V4.12L3,3.22V7.095z"/>
</svg>






