<?xml version="1.0" encoding="iso-8859-1"?>
<svg version="1.1" id="&#x56FE;&#x5C42;_1" xmlns="http://www.w3.org/2000/svg" xmlns:xlink="http://www.w3.org/1999/xlink" x="0px"
	 y="0px" viewBox="0 0 24 24" style="enable-background:new 0 0 24 24;" xml:space="preserve">
<path style="fill:#333333;" d="M12,10c-2.481,0-4.5-2.019-4.5-4.5S9.519,1,12,1s4.5,2.019,4.5,4.5S14.481,10,12,10z M12,3
	c-1.378,0-2.5,1.122-2.5,2.5S10.622,8,12,8c1.379,0,2.5-1.122,2.5-2.5S13.379,3,12,3z"/>
<path style="fill:#333333;" d="M3,20.5H1c0-4.963,4.486-9,10-9v2C6.589,13.5,3,16.641,3,20.5z"/>
<path style="fill:#333333;" d="M21.5,21.5h-9v-7h9V21.5z M14.5,19.5h5v-3h-5V19.5z"/>
<path style="fill:#333333;" d="M19.5,15.5h-2V14c0-0.275-0.225-0.5-0.5-0.5s-0.5,0.225-0.5,0.5v1.5h-2V14c0-1.379,1.121-2.5,2.5-2.5
	s2.5,1.121,2.5,2.5V15.5z"/>
</svg>






