<?xml version="1.0" encoding="iso-8859-1"?>
<svg version="1.1" id="&#x56FE;&#x5C42;_1" xmlns="http://www.w3.org/2000/svg" xmlns:xlink="http://www.w3.org/1999/xlink" x="0px"
	 y="0px" viewBox="0 0 24 24" style="enable-background:new 0 0 24 24;" xml:space="preserve">
<path style="fill:#333333;" d="M22,22H2V10.586L5.586,7h8.969l4.5-5H22V22z M4,20h16V4h-0.055l-4.5,5H6.414L4,11.414V20z"/>
<polygon style="fill:#333333;" points="6.707,8.707 5.293,7.293 10.586,2 20,2 20,4 11.414,4 "/>
<path style="fill:#333333;" d="M11.887,18.5c-1.036,0-2.041-0.676-2.559-1.722c-0.504-1.017-0.43-2.116,0.197-2.939l0,0
	c0.645-0.847,1.163-2.071,1.441-2.729l1.725-0.206c0.522,0.707,1.729,2.564,2.143,3.654c0.314,0.826,0.181,1.754-0.366,2.547
	C13.875,17.966,12.886,18.5,11.887,18.5z M12.046,13.547c-0.264,0.51-0.575,1.039-0.929,1.503h0
	c-0.231,0.305-0.056,0.721,0.004,0.84c0.175,0.354,0.498,0.61,0.767,0.61c0.346,0,0.712-0.208,0.934-0.529
	c0.08-0.115,0.253-0.414,0.144-0.701C12.806,14.852,12.438,14.188,12.046,13.547z"/>
<rect x="1.275" y="4.75" transform="matrix(0.7071 -0.7071 0.7071 0.7071 -2.9675 4.3358)" style="fill:#333333;" width="4.95" height="2"/>
</svg>






