<?xml version="1.0" encoding="iso-8859-1"?>
<svg version="1.1" id="&#x56FE;&#x5C42;_1" xmlns="http://www.w3.org/2000/svg" xmlns:xlink="http://www.w3.org/1999/xlink" x="0px"
	 y="0px" viewBox="0 0 24 24" style="enable-background:new 0 0 24 24;" xml:space="preserve">
<path style="fill:#333333;" d="M17.262,22.247c-0.305,0-0.613-0.05-0.915-0.152c-2.824-0.953-6.726-2.625-9.277-5.177
	c-2.553-2.554-4.225-6.455-5.177-9.277C1.598,6.77,1.734,5.845,2.266,5.104c0.543-0.756,1.435-1.208,2.385-1.208h2.537
	c0.726,0,1.396,0.395,1.748,1.029L10.16,7.13c0.32,0.577,0.335,1.274,0.041,1.865l-1.009,2.018c0.155,0.494,0.555,1.511,1.414,2.37
	c0.857,0.856,1.869,1.254,2.363,1.408l2.019-1.01c0.591-0.294,1.287-0.28,1.866,0.041l2.21,1.229
	c0.634,0.354,1.027,1.022,1.027,1.748v2.537c0,0.951-0.451,1.843-1.207,2.386C18.399,22.068,17.837,22.247,17.262,22.247z
	 M4.651,5.897c-0.312,0-0.59,0.136-0.761,0.374c-0.089,0.124-0.22,0.383-0.104,0.73c0.724,2.145,2.296,6.102,4.696,8.502
	c2.398,2.398,6.356,3.972,8.503,4.696c0.346,0.117,0.605-0.015,0.729-0.104c0.237-0.171,0.374-0.448,0.374-0.761v-2.537l-2.21-1.229
	l-2.658,1.33l-0.333-0.063c-0.084-0.017-2.07-0.413-3.698-2.04s-2.029-3.618-2.045-3.702l-0.065-0.334l1.331-2.661L7.188,5.897
	H4.651z"/>
<path style="fill:#333333;" d="M20.5,8.5h-8v-7h8v1.023l2.5-1v6.954l-2.5-1V8.5z M14.5,6.5h4v-3h-4V6.5z M19.692,5L21,5.523V4.477
	L19.692,5z"/>
</svg>






