<?xml version="1.0" encoding="iso-8859-1"?>
<svg version="1.1" id="&#x56FE;&#x5C42;_1" xmlns="http://www.w3.org/2000/svg" xmlns:xlink="http://www.w3.org/1999/xlink" x="0px"
	 y="0px" viewBox="0 0 24 24" style="enable-background:new 0 0 24 24;" xml:space="preserve">
<path style="fill:#333333;" d="M19.5,22h-15C3.122,22,2,20.879,2,19.5v-15C2,3.122,3.122,2,4.5,2h15C20.879,2,22,3.122,22,4.5v15
	C22,20.879,20.879,22,19.5,22z M4.5,4C4.224,4,4,4.224,4,4.5v15C4,19.775,4.224,20,4.5,20h15c0.275,0,0.5-0.225,0.5-0.5v-15
	C20,4.224,19.775,4,19.5,4H4.5z"/>
<path style="fill:#333333;" d="M15.883,18.001c-0.229,0-0.459-0.038-0.686-0.114c-1.765-0.595-4.208-1.644-5.824-3.26
	c-1.614-1.614-2.664-4.059-3.26-5.825C5.893,8.149,5.995,7.456,6.395,6.9C6.799,6.336,7.462,6,8.169,6H9.72
	c0.585,0,1.125,0.318,1.409,0.83l0.749,1.348c0.258,0.464,0.27,1.026,0.032,1.503l-0.371,0.917c0.074,0.278,0.257,0.784,0.668,1.196
	c0.409,0.409,0.911,0.592,1.193,0.667l0.983-0.403c0.41-0.208,0.972-0.195,1.438,0.064l1.35,0.75C17.683,13.156,18,13.695,18,14.279
	v1.552c0,0.707-0.337,1.37-0.901,1.775C16.735,17.867,16.313,18.001,15.883,18.001z M8.169,8c-0.092,0-0.136,0.047-0.15,0.067
	c0.421,1.376,1.357,3.735,2.768,5.146c1.413,1.413,3.771,2.348,5.05,2.779C15.953,15.967,16,15.923,16,15.831v-1.323l-0.989-0.55
	l-1.368,0.564l-0.254-0.028c-0.15-0.018-1.505-0.196-2.596-1.287c-1.09-1.09-1.27-2.445-1.287-2.596l-0.028-0.252l0.559-1.375
	L9.491,8H8.169z M15.213,13.875l-0.055,0.022C15.177,13.892,15.195,13.884,15.213,13.875z M10.089,8.856
	c-0.003,0.005-0.005,0.011-0.008,0.019L10.089,8.856z"/>
</svg>






