<?xml version="1.0" encoding="iso-8859-1"?>
<svg version="1.1" id="&#x56FE;&#x5C42;_1" xmlns="http://www.w3.org/2000/svg" xmlns:xlink="http://www.w3.org/1999/xlink" x="0px"
	 y="0px" viewBox="0 0 24 24" style="enable-background:new 0 0 24 24;" xml:space="preserve">
<path style="fill:#333333;" d="M17.762,22.247c-0.305,0-0.613-0.05-0.915-0.152c-2.824-0.953-6.726-2.625-9.277-5.177
	c-2.552-2.552-4.224-6.454-5.177-9.277C2.098,6.769,2.234,5.845,2.766,5.104c0.543-0.756,1.435-1.207,2.385-1.207h2.537
	c0.726,0,1.396,0.395,1.748,1.029L10.66,7.13c0.32,0.578,0.335,1.275,0.04,1.866l-1.008,2.018c0.155,0.494,0.555,1.51,1.414,2.37
	c0.857,0.856,1.869,1.254,2.363,1.408l2.019-1.01c0.591-0.294,1.286-0.28,1.866,0.041l2.21,1.229
	c0.634,0.354,1.027,1.022,1.027,1.748v2.537c0,0.951-0.451,1.843-1.207,2.386C18.899,22.068,18.337,22.247,17.762,22.247z
	 M5.151,5.897c-0.312,0-0.59,0.136-0.761,0.374C4.302,6.395,4.17,6.655,4.287,7.002c0.724,2.145,2.297,6.104,4.696,8.502
	c2.398,2.398,6.356,3.972,8.503,4.696c0.346,0.117,0.605-0.015,0.729-0.104c0.237-0.171,0.374-0.448,0.374-0.761v-2.537l-2.21-1.229
	l-2.658,1.33l-0.333-0.063c-0.084-0.017-2.071-0.413-3.698-2.04c-1.627-1.627-2.029-3.617-2.045-3.701l-0.065-0.334l1.33-2.661
	L7.688,5.897H5.151z"/>
<rect x="13.241" y="5.875" transform="matrix(0.7206 -0.6933 0.6933 0.7206 0.1921 14.2267)" style="fill:#333333;" width="9.017" height="2"/>
<polygon style="fill:#333333;" points="21,11 13.5,11 13.5,3.5 15.5,3.5 15.5,9 21,9 "/>
</svg>






