<?xml version="1.0" encoding="iso-8859-1"?>
<svg version="1.1" id="&#x56FE;&#x5C42;_1" xmlns="http://www.w3.org/2000/svg" xmlns:xlink="http://www.w3.org/1999/xlink" x="0px"
	 y="0px" viewBox="0 0 24 24" style="enable-background:new 0 0 24 24;" xml:space="preserve">
<path style="fill:#333333;" d="M18.57,21.192c-0.305,0-0.613-0.05-0.916-0.152c-1.894-0.639-4.647-1.735-7.007-3.331l1.121-1.656
	c2.173,1.471,4.748,2.493,6.525,3.093c0.346,0.118,0.607-0.015,0.732-0.104c0.237-0.17,0.374-0.447,0.374-0.76v-2.536l-2.21-1.229
	l-2.659,1.329l-0.332-0.063c-0.056-0.011-0.56-0.111-1.252-0.406l0.783-1.84c0.214,0.091,0.402,0.156,0.546,0.201l2.02-1.01
	c0.595-0.295,1.293-0.281,1.868,0.042l2.209,1.228c0.633,0.351,1.027,1.021,1.027,1.748v2.536c0,0.95-0.451,1.842-1.208,2.385
	C19.708,21.014,19.146,21.192,18.57,21.192z M6.335,13.295C4.842,11,3.808,8.381,3.203,6.588C2.909,5.716,3.045,4.792,3.577,4.05
	C4.12,3.294,5.011,2.843,5.962,2.843h2.536c0.726,0,1.396,0.395,1.749,1.029l1.224,2.204c0.32,0.577,0.335,1.274,0.04,1.865
	l-1.009,2.02c0.036,0.114,0.084,0.257,0.149,0.419l-1.857,0.742c-0.241-0.604-0.328-1.034-0.337-1.081L8.391,9.707l1.33-2.661
	L8.498,4.843H5.962c-0.312,0-0.59,0.136-0.76,0.374C5.112,5.341,4.98,5.601,5.098,5.948c0.568,1.684,1.535,4.136,2.914,6.257
	L6.335,13.295z"/>
<rect x="0.686" y="11" transform="matrix(0.7071 -0.7071 0.7071 0.7071 -4.9706 12)" style="fill:#333333;" width="22.627" height="2"/>
</svg>






