<?xml version="1.0" encoding="utf-8"?>
<svg version="1.1" id="&#x56FE;&#x5C42;_1" xmlns="http://www.w3.org/2000/svg" xmlns:xlink="http://www.w3.org/1999/xlink" x="0px" y="0px"
	 viewBox="0 0 24 24" style="enable-background:new 0 0 24 24;" xml:space="preserve">
<style type="text/css">
	.st0{fill:#333333;}
</style>
<path class="st0" d="M18.1,21.7c-0.3,0-0.6,0-0.9-0.2c-2.8-1-6.7-2.6-9.3-5.2c-2.6-2.6-4.2-6.5-5.2-9.3C2.4,6.2,2.5,5.3,3.1,4.6
	c0.5-0.8,1.4-1.2,2.4-1.2H8c0.7,0,1.4,0.4,1.7,1L11,6.6c0.3,0.6,0.3,1.3,0,1.9l-1,2c0.2,0.5,0.6,1.5,1.4,2.4
	c0.9,0.9,1.9,1.3,2.4,1.4l2-1c0.6-0.3,1.3-0.3,1.9,0l2.2,1.2c0.6,0.4,1,1,1,1.7v2.5c0,1-0.5,1.8-1.2,2.4
	C19.2,21.5,18.6,21.7,18.1,21.7z M5.5,5.3c-0.3,0-0.6,0.1-0.8,0.4C4.6,5.8,4.5,6.1,4.6,6.4c0.7,2.1,2.3,6.1,4.7,8.5
	c2.4,2.4,6.4,4,8.5,4.7c0.3,0.1,0.6,0,0.7-0.1c0.2-0.2,0.4-0.4,0.4-0.8v-2.5L16.7,15L14,16.3l-0.3-0.1c-0.1,0-2.1-0.4-3.7-2
	c-1.6-1.6-2-3.6-2-3.7l-0.1-0.3l1.3-2.7L8,5.3H5.5z"/>
<rect x="14.1" y="5.8" transform="matrix(0.7071 -0.7071 0.7071 0.7071 0.2793 14.1745)" class="st0" width="6.4" height="2"/>
<rect x="16.2" y="3.6" transform="matrix(0.7071 -0.7071 0.7071 0.7071 0.2793 14.1745)" class="st0" width="2" height="6.4"/>
</svg>





