<?xml version="1.0" encoding="iso-8859-1"?>
<svg version="1.1" id="&#x56FE;&#x5C42;_1" xmlns="http://www.w3.org/2000/svg" xmlns:xlink="http://www.w3.org/1999/xlink" x="0px"
	 y="0px" viewBox="0 0 24 24" style="enable-background:new 0 0 24 24;" xml:space="preserve">
<path style="fill:#333333;" d="M21.879,10.451L19.9,10.155c0.108-0.723,0.073-1.449-0.104-2.159c-0.241-0.96-0.74-1.84-1.445-2.545
	c-0.705-0.705-1.585-1.205-2.545-1.445c-0.71-0.179-1.437-0.215-2.16-0.105l-0.295-1.979c0.986-0.146,1.977-0.098,2.941,0.144
	c1.312,0.329,2.512,1.01,3.473,1.971s1.643,2.162,1.971,3.473C21.978,8.478,22.026,9.467,21.879,10.451z"/>
<path style="fill:#333333;" d="M18.084,10.05l-1.979-0.296c0.095-0.634-0.11-1.258-0.563-1.711
	c-0.454-0.453-1.079-0.659-1.712-0.563l-0.295-1.979c1.252-0.182,2.528,0.235,3.421,1.128S18.271,8.8,18.084,10.05z"/>
<path style="fill:#333333;" d="M17.262,21.747c-0.305,0-0.613-0.05-0.915-0.152c-2.822-0.951-6.723-2.622-9.277-5.177
	c-2.552-2.552-4.224-6.454-5.177-9.277C1.598,6.269,1.734,5.345,2.266,4.604c0.543-0.756,1.435-1.207,2.385-1.207h2.537
	c0.726,0,1.396,0.395,1.748,1.029L10.16,6.63c0.32,0.578,0.335,1.275,0.04,1.866l-1.008,2.018c0.155,0.494,0.555,1.51,1.414,2.37
	c0.857,0.856,1.869,1.254,2.363,1.408l2.019-1.01c0.591-0.294,1.287-0.279,1.866,0.041l2.21,1.229
	c0.634,0.354,1.027,1.022,1.027,1.748v2.537c0,0.951-0.451,1.843-1.207,2.386C18.399,21.568,17.837,21.747,17.262,21.747z
	 M4.651,5.397c-0.312,0-0.59,0.136-0.761,0.374C3.802,5.895,3.67,6.155,3.787,6.502c0.724,2.145,2.297,6.104,4.696,8.502
	c2.401,2.401,6.357,3.973,8.502,4.696c0.349,0.117,0.606-0.016,0.73-0.104c0.237-0.171,0.374-0.448,0.374-0.761v-2.537l-2.21-1.229
	l-2.658,1.33l-0.333-0.063c-0.084-0.017-2.071-0.413-3.698-2.04c-1.627-1.627-2.029-3.617-2.045-3.701l-0.065-0.334l1.33-2.661
	L7.188,5.397H4.651z"/>
</svg>






