<?xml version="1.0" encoding="iso-8859-1"?>
<svg version="1.1" id="&#x56FE;&#x5C42;_1" xmlns="http://www.w3.org/2000/svg" xmlns:xlink="http://www.w3.org/1999/xlink" x="0px"
	 y="0px" viewBox="0 0 24 24" style="enable-background:new 0 0 24 24;" xml:space="preserve">
<path style="fill:#333333;" d="M18.571,21.193c-0.305,0-0.612-0.05-0.915-0.152c-2.823-0.953-6.725-2.625-9.276-5.178
	C5.827,13.311,4.155,9.41,3.202,6.587C2.908,5.715,3.044,4.791,3.576,4.051c0.543-0.756,1.435-1.208,2.386-1.208h2.536
	c0.726,0,1.396,0.395,1.749,1.029l1.224,2.204c0.32,0.577,0.335,1.274,0.04,1.865l-1.009,2.019c0.155,0.494,0.555,1.51,1.414,2.369
	c0.857,0.857,1.868,1.254,2.362,1.408l2.019-1.009c0.595-0.295,1.293-0.281,1.868,0.042l2.209,1.228
	c0.634,0.353,1.027,1.022,1.027,1.748v2.536c0,0.951-0.452,1.843-1.208,2.387C19.708,21.015,19.146,21.193,18.571,21.193z
	 M5.962,4.843c-0.313,0-0.59,0.136-0.761,0.374c-0.089,0.124-0.22,0.384-0.104,0.73c0.724,2.146,2.297,6.103,4.697,8.502
	c2.398,2.399,6.356,3.973,8.503,4.697c0.343,0.117,0.604-0.015,0.729-0.104c0.238-0.171,0.375-0.448,0.375-0.762v-2.536l-2.21-1.229
	l-2.659,1.329l-0.333-0.063c-0.083-0.017-2.07-0.412-3.698-2.04c-1.626-1.627-2.028-3.617-2.044-3.701L8.391,9.708l1.33-2.661
	L8.498,4.843H5.962z"/>
</svg>






