<?xml version="1.0" encoding="iso-8859-1"?>
<svg version="1.1" id="&#x56FE;&#x5C42;_1" xmlns="http://www.w3.org/2000/svg" xmlns:xlink="http://www.w3.org/1999/xlink" x="0px"
	 y="0px" viewBox="0 0 24 24" style="enable-background:new 0 0 24 24;" xml:space="preserve">
<path style="fill:#333333;" d="M12,23C5.935,23,1,18.065,1,12S5.935,1,12,1s11,4.935,11,11S18.065,23,12,23z M12,3
	c-4.962,0-9,4.038-9,9c0,4.963,4.038,9,9,9c4.963,0,9-4.037,9-9C21,7.038,16.963,3,12,3z"/>
<polygon style="fill:#333333;" points="15.869,21.276 8.612,15.379 5.248,19.164 3.752,17.836 8.388,12.621 17.131,19.724 "/>
<path style="fill:#333333;" d="M9,11.5c-1.654,0-3-1.346-3-3s1.346-3,3-3s3,1.346,3,3S10.654,11.5,9,11.5z M9,7.5
	c-0.551,0-1,0.449-1,1s0.449,1,1,1s1-0.449,1-1S9.551,7.5,9,7.5z"/>
<polygon style="fill:#333333;" points="12.781,17.125 11.219,15.875 15.844,10.094 21.625,14.719 20.375,16.281 16.156,12.905 "/>
</svg>






