<?xml version="1.0" encoding="iso-8859-1"?>
<svg version="1.1" id="&#x56FE;&#x5C42;_1" xmlns="http://www.w3.org/2000/svg" xmlns:xlink="http://www.w3.org/1999/xlink" x="0px"
	 y="0px" viewBox="0 0 24 24" style="enable-background:new 0 0 24 24;" xml:space="preserve">
<path style="fill:#333333;" d="M20.5,21h-17c-1.103,0-2-0.897-2-2V5c0-1.103,0.897-2,2-2h17c1.103,0,2,0.897,2,2v14
	C22.5,20.103,21.603,21,20.5,21z M3.5,5v14h17V5H3.5z"/>
<path style="fill:#333333;" d="M7.25,10C6.285,10,5.5,9.215,5.5,8.25S6.285,6.5,7.25,6.5S9,7.285,9,8.25S8.215,10,7.25,10z M7.25,8
	C7.112,8,7,8.112,7,8.25c0,0.275,0.5,0.275,0.5,0C7.5,8.112,7.388,8,7.25,8z"/>
<path style="fill:#333333;" d="M20.5,21h-17c-1.103,0-2-0.897-2-2v-2.414l5.926-5.926l2.444,1.955l2.987-3.484l9.644,7.375V19
	C22.5,20.103,21.603,21,20.5,21z M3.5,17.414V19h17v-1.506l-7.356-5.625l-3.013,3.516L7.574,13.34L3.5,17.414z"/>
</svg>






