<?xml version="1.0" encoding="iso-8859-1"?>
<svg version="1.1" id="&#x56FE;&#x5C42;_1" xmlns="http://www.w3.org/2000/svg" xmlns:xlink="http://www.w3.org/1999/xlink" x="0px"
	 y="0px" viewBox="0 0 24 24" style="enable-background:new 0 0 24 24;" xml:space="preserve">
<path style="fill:#333333;" d="M17,19H4c-1.103,0-2-0.897-2-2V4c0-1.103,0.897-2,2-2h13c1.103,0,2,0.897,2,2v13
	C19,18.103,18.103,19,17,19z M4,4H3.999L4,17h13V4H4z"/>
<path style="fill:#333333;" d="M19.5,22H6v-2h13.5c0.275,0,0.5-0.225,0.5-0.5V6h2v13.5C22,20.879,20.879,22,19.5,22z"/>
<path style="fill:#333333;" d="M12.327,14.24L7.492,9.844l-3.828,3.403l-1.329-1.495L6.164,8.35c0.767-0.68,1.917-0.674,2.674,0.015
	l4.835,4.395L12.327,14.24z"/>
<path style="fill:#333333;" d="M17.4,12.8l-3.367-2.525l-2.393,1.994l-1.28-1.537l2.392-1.994c0.717-0.596,1.737-0.622,2.48-0.063
	L18.6,11.2L17.4,12.8z"/>
<rect x="2" y="9.5" style="fill:#333333;" width="2" height="4"/>
<rect x="17" y="9.5" style="fill:#333333;" width="2" height="4"/>
</svg>






