<?xml version="1.0" encoding="iso-8859-1"?>
<svg version="1.1" id="&#x56FE;&#x5C42;_1" xmlns="http://www.w3.org/2000/svg" xmlns:xlink="http://www.w3.org/1999/xlink" x="0px"
	 y="0px" viewBox="0 0 24 24" style="enable-background:new 0 0 24 24;" xml:space="preserve">
<path style="fill:#333333;" d="M19.5,22h-15C3.122,22,2,20.879,2,19.5v-15C2,3.122,3.122,2,4.5,2h15C20.879,2,22,3.122,22,4.5v15
	C22,20.879,20.879,22,19.5,22z M4.5,4C4.224,4,4,4.224,4,4.5v15C4,19.775,4.224,20,4.5,20h15c0.275,0,0.5-0.225,0.5-0.5v-15
	C20,4.224,19.775,4,19.5,4H4.5z"/>
<path style="fill:#333333;" d="M9,12.5c-1.93,0-3.5-1.57-3.5-3.5S7.07,5.5,9,5.5s3.5,1.57,3.5,3.5S10.93,12.5,9,12.5z M9,7.5
	C8.173,7.5,7.5,8.173,7.5,9s0.673,1.5,1.5,1.5s1.5-0.673,1.5-1.5S9.827,7.5,9,7.5z"/>
<polygon style="fill:#333333;" points="10.516,18.831 6.958,15.781 3.6,18.3 2.4,16.7 7.042,13.219 10.484,16.169 15.503,11.651 
	21.673,17.26 20.327,18.74 15.497,14.349 "/>
</svg>






