<?xml version="1.0" encoding="iso-8859-1"?>
<svg version="1.1" id="&#x56FE;&#x5C42;_1" xmlns="http://www.w3.org/2000/svg" xmlns:xlink="http://www.w3.org/1999/xlink" x="0px"
	 y="0px" viewBox="0 0 24 24" style="enable-background:new 0 0 24 24;" xml:space="preserve">
<path style="fill:#333333;" d="M19.5,22h-15C3.122,22,2,20.879,2,19.5v-15C2,3.122,3.122,2,4.5,2h15C20.879,2,22,3.122,22,4.5v15
	C22,20.879,20.879,22,19.5,22z M4.5,4C4.224,4,4,4.224,4,4.5v15C4,19.775,4.224,20,4.5,20h15c0.275,0,0.5-0.225,0.5-0.5v-15
	C20,4.224,19.775,4,19.5,4H4.5z"/>
<path style="fill:#333333;" d="M9,12.5c-1.93,0-3.5-1.57-3.5-3.5S7.07,5.5,9,5.5s3.5,1.57,3.5,3.5S10.93,12.5,9,12.5z M9,7.5
	C8.173,7.5,7.5,8.173,7.5,9s0.673,1.5,1.5,1.5s1.5-0.673,1.5-1.5S9.827,7.5,9,7.5z"/>
<path style="fill:#333333;" d="M19.084,22H8l-0.801-1.599l5.895-7.89c0.377-0.505,0.974-0.803,1.602-0.803c0.011,0,0.021,0,0.031,0
	c0.642,0.01,1.243,0.331,1.61,0.856l4.388,6.291c0.428,0.614,0.479,1.407,0.132,2.07C20.511,21.588,19.831,22,19.084,22z M9.996,20
	h9.088l-4.388-6.292L9.996,20z"/>
</svg>






