<?xml version="1.0" encoding="iso-8859-1"?>
<svg version="1.1" id="&#x56FE;&#x5C42;_1" xmlns="http://www.w3.org/2000/svg" xmlns:xlink="http://www.w3.org/1999/xlink" x="0px"
	 y="0px" viewBox="0 0 24 24" style="enable-background:new 0 0 24 24;" xml:space="preserve">
<path style="fill:#333333;" d="M12,23C5.935,23,1,18.065,1,12S5.935,1,12,1s11,4.935,11,11S18.065,23,12,23z M12,3
	c-4.962,0-9,4.038-9,9c0,4.963,4.038,9,9,9c4.963,0,9-4.037,9-9C21,7.038,16.963,3,12,3z"/>
<path style="fill:#333333;" d="M12.002,22.999c-0.979,0-1.958-0.13-2.905-0.389c-1.724-0.473-3.324-1.368-4.627-2.591l-0.729-0.685
	L11,11.604V1h1c1.787,0,3.567,0.442,5.147,1.278c1.58,0.837,2.945,2.061,3.95,3.539c1.005,1.479,1.64,3.2,1.836,4.977
	c0.195,1.777-0.049,3.594-0.706,5.256c-0.658,1.661-1.725,3.153-3.084,4.315c-1.36,1.161-3.001,1.98-4.744,2.369
	C13.612,22.911,12.807,22.999,12.002,22.999z M6.607,19.204c0.902,0.675,1.93,1.179,3.019,1.477
	c1.411,0.386,2.912,0.421,4.337,0.103c1.427-0.318,2.769-0.989,3.882-1.939c1.112-0.95,1.985-2.171,2.523-3.53
	s0.737-2.847,0.577-4.301c-0.16-1.453-0.68-2.861-1.502-4.071c-0.822-1.209-1.939-2.21-3.231-2.895
	C15.214,3.518,14.119,3.182,13,3.056v9.339L6.607,19.204z"/>
</svg>






