<?xml version="1.0" encoding="iso-8859-1"?>
<svg version="1.1" id="&#x56FE;&#x5C42;_1" xmlns="http://www.w3.org/2000/svg" xmlns:xlink="http://www.w3.org/1999/xlink" x="0px"
	 y="0px" viewBox="0 0 24 24" style="enable-background:new 0 0 24 24;" xml:space="preserve">
<path style="fill:#333333;" d="M12,23C5.935,23,1,18.065,1,12S5.935,1,12,1s11,4.935,11,11S18.065,23,12,23z M12,3
	c-4.962,0-9,4.038-9,9c0,4.963,4.038,9,9,9c4.963,0,9-4.037,9-9C21,7.038,16.963,3,12,3z"/>
<path style="fill:#333333;" d="M19.335,20.26L11,12.433V1h1c2.152,0,4.24,0.625,6.039,1.806c1.798,1.181,3.201,2.849,4.057,4.825
	c0.854,1.976,1.11,4.141,0.741,6.261c-0.371,2.119-1.345,4.068-2.817,5.639L19.335,20.26z M13,11.567l6.205,5.827
	c0.847-1.131,1.416-2.443,1.661-3.847c0.303-1.734,0.093-3.506-0.606-5.123c-0.7-1.616-1.848-2.981-3.318-3.947
	C15.75,3.695,14.403,3.211,13,3.055V11.567z"/>
</svg>






