<?xml version="1.0" encoding="iso-8859-1"?>
<svg version="1.1" id="&#x56FE;&#x5C42;_1" xmlns="http://www.w3.org/2000/svg" xmlns:xlink="http://www.w3.org/1999/xlink" x="0px"
	 y="0px" viewBox="0 0 24 24" style="enable-background:new 0 0 24 24;" xml:space="preserve">
<path style="fill:#333333;" d="M12,23C5.935,23,1,18.065,1,12S5.935,1,12,1s11,4.935,11,11S18.065,23,12,23z M12,3
	c-4.962,0-9,4.038-9,9c0,4.963,4.038,9,9,9c4.963,0,9-4.037,9-9C21,7.038,16.963,3,12,3z"/>
<path style="fill:#333333;" d="M12.685,12.729L11,12V1h1c1.512,0,2.981,0.304,4.369,0.904c1.387,0.601,2.615,1.464,3.649,2.566
	l0.686,0.729L12.685,12.729z M13,3.055v6.634l4.836-4.542c-0.678-0.578-1.435-1.05-2.262-1.408C14.748,3.382,13.886,3.153,13,3.055z
	"/>
</svg>






