<?xml version="1.0" encoding="iso-8859-1"?>
<svg version="1.1" id="&#x56FE;&#x5C42;_1" xmlns="http://www.w3.org/2000/svg" xmlns:xlink="http://www.w3.org/1999/xlink" x="0px"
	 y="0px" viewBox="0 0 24 24" style="enable-background:new 0 0 24 24;" xml:space="preserve">
<path style="fill:#333333;" d="M12,23C5.935,23,1,18.065,1,12S5.935,1,12,1s11,4.935,11,11S18.065,23,12,23z M12,3
	c-4.962,0-9,4.038-9,9c0,4.963,4.038,9,9,9c4.963,0,9-4.037,9-9C21,7.038,16.963,3,12,3z"/>
<path style="fill:#333333;" d="M11.995,22.998c-1.002,0-2.006-0.136-2.98-0.41C6.586,21.902,4.451,20.389,3,18.325
	c-1.451-2.064-2.151-4.587-1.973-7.102C1.206,8.707,2.255,6.308,3.981,4.47l0.685-0.729L11,9.689V1h1
	c2.522,0,4.989,0.877,6.945,2.47c1.956,1.592,3.315,3.83,3.826,6.3c0.512,2.47,0.153,5.062-1.01,7.301s-3.078,4.022-5.393,5.025
	C14.982,22.695,13.49,22.998,11.995,22.998z M4.796,6.606C3.767,7.983,3.145,9.64,3.022,11.365c-0.146,2.058,0.427,4.122,1.614,5.81
	c1.187,1.688,2.934,2.927,4.92,3.488c1.986,0.558,4.124,0.417,6.018-0.403c1.893-0.82,3.46-2.28,4.411-4.111
	c0.952-1.831,1.245-3.953,0.826-5.973c-0.418-2.021-1.529-3.852-3.13-5.155C16.342,3.929,14.708,3.249,13,3.056V12l-1.685,0.729
	L4.796,6.606z"/>
</svg>






