<?xml version="1.0" encoding="iso-8859-1"?>
<svg version="1.1" id="&#x56FE;&#x5C42;_1" xmlns="http://www.w3.org/2000/svg" xmlns:xlink="http://www.w3.org/1999/xlink" x="0px"
	 y="0px" viewBox="0 0 24 24" style="enable-background:new 0 0 24 24;" xml:space="preserve">
<path style="fill:#333333;" d="M12,23C5.935,23,1,18.065,1,12S5.935,1,12,1s11,4.935,11,11S18.065,23,12,23z M12,3
	c-4.962,0-9,4.038-9,9c0,4.963,4.038,9,9,9c4.963,0,9-4.037,9-9C21,7.038,16.963,3,12,3z"/>
<path style="fill:#333333;" d="M12,23h-1V1h1c1.451,0,2.867,0.282,4.21,0.837c1.341,0.555,2.541,1.357,3.568,2.384
	c1.026,1.026,1.828,2.227,2.385,3.569C22.719,9.132,23,10.549,23,12c0,1.45-0.281,2.867-0.837,4.209
	c-0.557,1.343-1.358,2.544-2.385,3.569c-1.025,1.026-2.227,1.828-3.568,2.385C14.867,22.719,13.45,23,12,23z M13,3.055v17.889
	c0.838-0.093,1.657-0.304,2.445-0.629c1.097-0.455,2.079-1.111,2.919-1.951s1.496-1.822,1.951-2.92C20.77,14.346,21,13.187,21,12
	c0-1.188-0.23-2.346-0.685-3.444c-0.455-1.098-1.111-2.08-1.951-2.92c-0.841-0.84-1.823-1.496-2.92-1.951
	C14.657,3.359,13.838,3.148,13,3.055z"/>
</svg>






