<?xml version="1.0" encoding="iso-8859-1"?>
<svg version="1.1" id="&#x56FE;&#x5C42;_1" xmlns="http://www.w3.org/2000/svg" xmlns:xlink="http://www.w3.org/1999/xlink" x="0px"
	 y="0px" viewBox="0 0 24 24" style="enable-background:new 0 0 24 24;" xml:space="preserve">
<path style="fill:#333333;" d="M4.637,20.005c-1.024-1.752-1.824-3.906-2.409-5.479c-0.259-0.696-0.482-1.297-0.623-1.578
	l-0.042-0.095C0.327,9.565,2.277,6.62,3.946,5.571l1.059-3.3l1.141,0.965c0.774,0.654,1.371,2.095,1.663,2.979L11,7.279v4.685
	l-0.354,0.3c-0.473,0.4-2.612,1.869-3.893,2.204l-0.505-1.936c0.668-0.175,2.029-1.01,2.752-1.526V8.721L6.165,7.776l-0.134-0.53
	c-0.062-0.244-0.154-0.525-0.262-0.81L5.591,6.989L5.182,7.17C4.333,7.548,2.519,9.632,3.42,12.105
	c0.184,0.381,0.406,0.978,0.683,1.723c0.559,1.505,1.325,3.565,2.261,5.167L4.637,20.005z"/>
<path style="fill:#333333;" d="M17.5,19.5h-2c0-0.713,0.087-3.097,1.202-3.866c1.661-1.145,1.869-3.821,1.785-4.28
	c-0.201-1.279-0.744-2.222-1.625-2.858c-1.397-1.011-3.405-1.123-4.699-0.906l-0.326-1.974c1.754-0.289,4.304-0.111,6.197,1.259
	c1.329,0.961,2.143,2.345,2.419,4.115c0.173,0.777-0.01,4.495-2.616,6.291C17.766,17.399,17.5,18.252,17.5,19.5z"/>
<path style="fill:#333333;" d="M14,20h-2c0-0.552-0.449-1-1-1s-1,0.448-1,1H8c0-1.654,1.346-3,3-3S14,18.346,14,20z"/>
<path style="fill:#333333;" d="M20.543,13.518c-0.127,0-0.256-0.01-0.384-0.029c-0.691-0.108-1.286-0.507-1.554-1.041l1.789-0.895
	c-0.026-0.053-0.055-0.082-0.063-0.088c0.004,0.002,0.288,0.176,0.567-0.112c0.055-0.065,0.185-0.362,0.137-0.646
	c-0.026-0.155-0.1-0.259-0.246-0.346l1.02-1.721c0.68,0.403,1.11,1.052,1.213,1.827c0.109,0.829-0.168,1.746-0.691,2.283
	C21.844,13.248,21.208,13.518,20.543,13.518z"/>
</svg>






