<?xml version="1.0" encoding="iso-8859-1"?>
<svg version="1.1" id="&#x56FE;&#x5C42;_1" xmlns="http://www.w3.org/2000/svg" xmlns:xlink="http://www.w3.org/1999/xlink" x="0px"
	 y="0px" viewBox="0 0 24 24" style="enable-background:new 0 0 24 24;" xml:space="preserve">
<path style="fill:#333333;" d="M11.976,21.5c-4.963,0-9-4.03-9-8.984c0-0.913,0.135-1.805,0.402-2.664
	C3.102,9.663,2.846,9.451,2.619,9.225C1.62,8.229,1,6.799,1,5.494c0-0.881,0.285-1.632,0.825-2.171
	c1.507-1.505,4.323-0.79,5.908,0.791l0,0c0.103,0.103,0.203,0.211,0.299,0.324c2.458-1.196,5.472-1.189,7.922,0.017
	c0.1-0.119,0.203-0.232,0.312-0.34c1.585-1.583,4.403-2.296,5.909-0.793C22.715,3.861,23,4.612,23,5.494
	c0,1.285-0.636,2.75-1.619,3.731c-0.238,0.238-0.507,0.458-0.798,0.655c0.262,0.85,0.394,1.733,0.394,2.636
	C20.977,17.47,16.938,21.5,11.976,21.5z M3.997,4.5c-0.328,0-0.6,0.079-0.76,0.238C3.041,4.934,3,5.257,3,5.494
	c0,0.77,0.415,1.7,1.031,2.315c0.275,0.275,0.623,0.517,1.003,0.698l0.862,0.412l-0.373,0.88c-0.364,0.86-0.549,1.774-0.549,2.717
	c0,3.852,3.141,6.984,7,6.984c3.86,0,7.001-3.133,7.001-6.984c0-0.937-0.183-1.845-0.542-2.7l-0.373-0.888l0.873-0.406
	c0.393-0.183,0.75-0.43,1.033-0.713C20.586,7.193,21,6.263,21,5.493c0-0.236-0.041-0.559-0.237-0.755
	c-0.498-0.499-2.085-0.205-3.084,0.792c-0.21,0.21-0.398,0.458-0.561,0.738l-0.521,0.9l-0.879-0.556
	c-2.226-1.407-5.224-1.414-7.455-0.02L7.391,7.139L6.871,6.25c-0.159-0.272-0.344-0.514-0.55-0.719l0,0
	C5.642,4.853,4.692,4.5,3.997,4.5z"/>
<path style="fill:#333333;" d="M12,19c-2.757,0-5-2.019-5-4.5S9.243,10,12,10s5,2.019,5,4.5S14.757,19,12,19z M12,12
	c-1.654,0-3,1.121-3,2.5s1.346,2.5,3,2.5s3-1.121,3-2.5S13.654,12,12,12z"/>
<circle style="fill:#333333;" cx="8.5" cy="9" r="1"/>
<circle style="fill:#333333;" cx="10.5" cy="14.5" r="1"/>
<circle style="fill:#333333;" cx="15.5" cy="9" r="1"/>
<circle style="fill:#333333;" cx="13.5" cy="14.5" r="1"/>
</svg>






