<?xml version="1.0" encoding="iso-8859-1"?>
<svg version="1.1" id="&#x56FE;&#x5C42;_1" xmlns="http://www.w3.org/2000/svg" xmlns:xlink="http://www.w3.org/1999/xlink" x="0px"
	 y="0px" viewBox="0 0 24 24" style="enable-background:new 0 0 24 24;" xml:space="preserve">
<path style="fill:#333333;" d="M6.134,13.501c-0.529-0.912-1.479-3.352,1.121-6.286c0.684-0.648,1.616-1.525,3.255-1.989
	c0.438-0.215,0.954-0.551,1.088-0.986c0.098-0.317-0.002-0.731-0.298-1.231l1.392-1.356C13.735,2.307,15.5,4.457,15.5,8.367h-2
	c0-1.094-0.162-1.993-0.396-2.715c-0.394,0.561-1.002,1.036-1.817,1.419l-0.166,0.061C9.91,7.458,9.262,8.067,8.69,8.605
	c-1.527,1.73-1.297,3.078-0.825,3.894L6.134,13.501z"/>
<path style="fill:#333333;" d="M19.579,22.5c-0.097,0-0.194-0.005-0.294-0.014c-0.406-0.025-1.383-0.284-1.813-2.111
	c-0.516,0.079-1.641,0.386-3.773,1.512c-1.521,0.727-4.915,1.321-7.123-1.479C5.7,19.162,3.674,17.877,2,17.877H0.846l0.164-1.142
	c0.19-1.328,1.009-3.182,2.687-4.037c0.765-0.39,1.948-0.682,3.539-0.188c0.472-1.592,2.121-3.509,6.249-4.608
	c0.564-0.161,2.316-1.167,3.419-3.79l1.909,0.23c0.486,3.048,0.422,8.843-2.719,11.937c0.083,0.026,0.181,0.053,0.297,0.08
	c0.229-0.071,1.367-0.531,3.477-3.038l0.134-0.132c0.546-0.444,1.213-0.532,1.778-0.231c1.062,0.562,1.408,2.247,1.126,5.463
	c-0.027,0.372-0.237,2.35-1.529,3.428C20.862,22.277,20.246,22.5,19.579,22.5z M3.279,16.024c2.001,0.447,3.952,1.838,4.9,3.19
	c1.75,2.216,4.594,0.899,4.623,0.885c2.68-1.415,4.584-1.982,5.611-1.66c0.466,0.145,0.697,0.43,0.81,0.644l0.083,0.157l0.022,0.177
	c0.084,0.637,0.223,0.948,0.303,1.082c0.177-0.009,0.324-0.069,0.465-0.187c0.465-0.388,0.763-1.327,0.817-2.055
	c0.146-1.663,0.082-2.585-0.006-3.08c-1.981,2.226-3.708,3.371-4.8,3.167c-0.495-0.104-1.941-0.41-2.263-1.551
	c-0.161-0.568,0.021-1.172,0.485-1.613c1.937-1.612,2.629-4.736,2.695-7.483c-1.112,1.282-2.293,1.928-3.009,2.132
	c-4.467,1.19-5.059,3.278-4.915,3.916L7.66,14.849c-1.231-0.649-2.26-0.773-3.054-0.368C4.001,14.788,3.553,15.394,3.279,16.024z"/>
<circle style="fill:#333333;" cx="6" cy="15.706" r="1"/>
</svg>






