<?xml version="1.0" encoding="iso-8859-1"?>
<svg version="1.1" id="&#x56FE;&#x5C42;_1" xmlns="http://www.w3.org/2000/svg" xmlns:xlink="http://www.w3.org/1999/xlink" x="0px"
	 y="0px" viewBox="0 0 24 24" style="enable-background:new 0 0 24 24;" xml:space="preserve">
<path style="fill:#333333;" d="M13.768,22.632c-0.668,0-1.295-0.26-1.768-0.732L2.101,12c-0.472-0.472-0.732-1.1-0.732-1.768
	s0.26-1.296,0.732-1.768L8.464,2.1c0.975-0.975,2.56-0.974,3.536,0l9.899,9.9c0.473,0.473,0.732,1.1,0.732,1.768
	s-0.26,1.295-0.732,1.768l-6.364,6.364C15.062,22.372,14.436,22.632,13.768,22.632z M10.232,3.368c-0.128,0-0.256,0.049-0.354,0.146
	L3.515,9.878c-0.127,0.127-0.146,0.276-0.146,0.354s0.019,0.226,0.146,0.353v0l9.899,9.9c0.128,0.128,0.276,0.146,0.354,0.146
	s0.226-0.019,0.354-0.146l6.364-6.364c0.128-0.128,0.146-0.276,0.146-0.354s-0.019-0.226-0.146-0.354l-9.899-9.9
	C10.488,3.417,10.36,3.368,10.232,3.368z"/>
<circle style="fill:#333333;" cx="7.404" cy="10.232" r="1"/>
<circle style="fill:#333333;" cx="11.646" cy="14.475" r="1"/>
<circle style="fill:#333333;" cx="9.525" cy="12.354" r="1"/>
<circle style="fill:#333333;" cx="13.768" cy="16.597" r="1"/>
<circle style="fill:#333333;" cx="10.232" cy="7.403" r="1"/>
<circle style="fill:#333333;" cx="14.475" cy="11.646" r="1"/>
<circle style="fill:#333333;" cx="12.354" cy="9.525" r="1"/>
<circle style="fill:#333333;" cx="16.596" cy="13.768" r="1"/>
</svg>






