<?xml version="1.0" encoding="iso-8859-1"?>
<svg version="1.1" id="&#x56FE;&#x5C42;_1" xmlns="http://www.w3.org/2000/svg" xmlns:xlink="http://www.w3.org/1999/xlink" x="0px"
	 y="0px" viewBox="0 0 24 24" style="enable-background:new 0 0 24 24;" xml:space="preserve">
<path style="fill:#333333;" d="M8.372,21.304c-0.184,0-0.369-0.009-0.555-0.024c-1.663-0.146-3.17-0.93-4.243-2.209
	s-1.584-2.899-1.438-4.562c0.146-1.663,0.93-3.17,2.209-4.243l7.276-6.106c1.28-1.073,2.904-1.585,4.563-1.438
	c1.663,0.146,3.17,0.93,4.243,2.209c1.072,1.278,1.584,2.899,1.438,4.562s-0.93,3.17-2.209,4.242l-7.277,6.107
	C11.243,20.794,9.837,21.304,8.372,21.304z M15.632,4.696c-0.997,0-1.953,0.346-2.726,0.995l-7.277,6.106
	c-0.87,0.73-1.403,1.754-1.502,2.885s0.249,2.232,0.978,3.103c0.729,0.869,1.754,1.402,2.885,1.502
	c1.131,0.095,2.232-0.249,3.102-0.979l7.278-6.106c0.869-0.73,1.402-1.754,1.502-2.885c0.099-1.131-0.249-2.232-0.979-3.102
	c-0.729-0.87-1.755-1.403-2.886-1.502C15.883,4.702,15.757,4.696,15.632,4.696z"/>
<rect x="10.279" y="10.409" transform="matrix(0.7661 -0.6428 0.6428 0.7661 -5.4862 10.2063)" style="fill:#333333;" width="2" height="4.463"/>
</svg>






