<?xml version="1.0" encoding="iso-8859-1"?>
<svg version="1.1" id="&#x56FE;&#x5C42;_1" xmlns="http://www.w3.org/2000/svg" xmlns:xlink="http://www.w3.org/1999/xlink" x="0px"
	 y="0px" viewBox="0 0 24 24" style="enable-background:new 0 0 24 24;" xml:space="preserve">
<g>
	<defs>
		<rect id="SVGID_1_" width="24" height="24"/>
	</defs>
	<clipPath id="SVGID_00000039855207701945281990000004553964865179912364_">
		<use xlink:href="#SVGID_1_"  style="overflow:visible;"/>
	</clipPath>
	<g style="clip-path:url(#SVGID_00000039855207701945281990000004553964865179912364_);">
		<path style="fill:#333333;" d="M3.816,21.582l-1.4-1.396l5.489-7.463L3.934,8.752l0.707-0.707c1.021-1.02,2.744-1.938,5.275-0.772
			l5.304-2.94L14.96,2.538l1.696-0.851l5.657,5.657L21.465,9.04l-1.792-0.257l-2.956,5.319c0.634,1.469,1.047,3.446-0.762,5.256
			l-0.707,0.707l-3.988-3.986L3.816,21.582z M11.457,13.446l3.667,3.667c0.243-0.611,0.172-1.393-0.427-2.612l-0.229-0.47
			l4.125-7.424l0.183,0.026L17.372,5.23l0.026,0.182L9.941,9.546L9.458,9.281c-1.173-0.643-1.98-0.646-2.571-0.404l3.646,3.646
			l-2.587,3.519L11.457,13.446z"/>
	</g>
</g>
</svg>






