<?xml version="1.0" encoding="iso-8859-1"?>
<svg version="1.1" id="&#x56FE;&#x5C42;_1" xmlns="http://www.w3.org/2000/svg" xmlns:xlink="http://www.w3.org/1999/xlink" x="0px"
	 y="0px" viewBox="0 0 24 24" style="enable-background:new 0 0 24 24;" xml:space="preserve">
<path style="fill:#333333;" d="M13.957,7.957l-1.414-1.414c-0.071,0.071-0.093,0.133-0.093,0.134C12.5,6.529,12.5,5.982,12.5,5.5
	c0-0.755-0.31-1.461-0.617-1.977C11.439,4.057,11,4.781,11,5.5c0,0.533,0,1.036,0.042,1.17c-0.005-0.017-0.031-0.074-0.084-0.127
	L9.543,7.957C9,7.414,9,6.774,9,5.5c0-2.393,2.286-4.211,2.383-4.287l0.712-0.559l0.627,0.654C12.795,1.384,14.5,3.192,14.5,5.5
	C14.5,6.694,14.5,7.414,13.957,7.957z"/>
<path style="fill:#333333;" d="M7.576,8.883C7.053,7.622,5.703,5.917,4.89,5.292l0.426-1.775c3.705-0.695,6.26,2.003,6.956,2.847
	l-1.543,1.272c-0.355-0.43-1.354-1.507-2.788-1.99c0.599,0.786,1.15,1.668,1.483,2.47L7.576,8.883z"/>
<path style="fill:#333333;" d="M15.881,8.474l-1.762-0.947c0.332-0.617,0.794-1.262,1.292-1.859
	c-1.382,0.491-2.295,1.527-2.621,1.947l-1.58-1.228c0.665-0.855,3.126-3.593,6.974-2.869l0.426,1.775
	C17.909,5.832,16.558,7.215,15.881,8.474z"/>
<path style="fill:#333333;" d="M12,23.125c-2.211,0-4.422-0.441-5.6-1.325c-1.267-0.949-1.853-1.933-2.12-2.589
	c-0.292-0.716-0.297-1.459-0.278-2.1c0.062-2.126,0.507-6.035,2.792-8.318C7.108,8.478,7.411,8.194,7.7,7.938l0,0
	c2.493-2.205,6.109-2.204,8.6,0c0.29,0.255,0.592,0.54,0.907,0.855c2.284,2.284,2.729,6.187,2.791,8.31
	c0.02,0.646,0.015,1.396-0.282,2.118c-0.268,0.653-0.852,1.631-2.116,2.579C16.423,22.684,14.211,23.125,12,23.125z M9.025,9.436
	L9.025,9.436c-0.261,0.23-0.534,0.486-0.817,0.771c-1.863,1.863-2.164,5.49-2.207,6.963c-0.014,0.475-0.014,0.931,0.131,1.285
	C6.305,18.878,6.699,19.524,7.6,20.2c1.646,1.232,7.155,1.232,8.8,0c0.898-0.675,1.293-1.317,1.465-1.738
	c0.148-0.36,0.147-0.84,0.133-1.3c-0.042-1.472-0.343-5.093-2.205-6.955c-0.284-0.284-0.557-0.54-0.817-0.771
	C13.225,7.888,10.778,7.887,9.025,9.436z"/>
<rect x="4.823" y="10.75" transform="matrix(0.8859 -0.4639 0.4639 0.8859 -4.2243 6.3283)" style="fill:#333333;" width="11.853" height="2"/>
<rect x="12.25" y="5.823" transform="matrix(0.464 -0.8858 0.8858 0.464 -3.3066 18.0352)" style="fill:#333333;" width="2" height="11.853"/>
<rect x="10.5" y="10.054" transform="matrix(0.5039 -0.8638 0.8638 0.5039 -8.9788 18.3676)" style="fill:#333333;" width="2.001" height="13.892"/>
<rect x="5.554" y="16" transform="matrix(0.8639 -0.5037 0.5037 0.8639 -6.8613 8.6101)" style="fill:#333333;" width="13.892" height="2.001"/>
</svg>






