<?xml version="1.0" encoding="iso-8859-1"?>
<svg version="1.1" id="&#x56FE;&#x5C42;_1" xmlns="http://www.w3.org/2000/svg" xmlns:xlink="http://www.w3.org/1999/xlink" x="0px"
	 y="0px" viewBox="0 0 24 24" style="enable-background:new 0 0 24 24;" xml:space="preserve">
<path style="fill:#333333;" d="M11.5,11.5h-6L4.638,9.993l5-8.5L11.5,2V11.5z M7.249,9.5H9.5V5.672L7.249,9.5z"/>
<path style="fill:#333333;" d="M14.362,22.507L12.5,22v-9.5h6l0.862,1.507L14.362,22.507z M14.5,14.5v3.828l2.252-3.828H14.5z"/>
<path style="fill:#333333;" d="M22,11.5h-9.5v-6l1.507-0.862l8.5,5L22,11.5z M14.5,9.5h3.828L14.5,7.249V9.5z"/>
<path style="fill:#333333;" d="M9.993,19.362l-8.5-5L2,12.5h9.5v6L9.993,19.362z M5.672,14.5L9.5,16.752V14.5H5.672z"/>
</svg>






