<?xml version="1.0" encoding="iso-8859-1"?>
<svg version="1.1" id="&#x56FE;&#x5C42;_1" xmlns="http://www.w3.org/2000/svg" xmlns:xlink="http://www.w3.org/1999/xlink" x="0px"
	 y="0px" viewBox="0 0 24 24" style="enable-background:new 0 0 24 24;" xml:space="preserve">
<rect x="2" y="11" style="fill:#333333;" width="20" height="2"/>
<path style="fill:#333333;" d="M5.854,21.021l-1.707-1.043C4.175,19.933,7,15.263,7,12S4.175,4.068,4.146,4.021l1.707-1.042
	C5.982,3.189,9,8.173,9,12S5.982,20.812,5.854,21.021z"/>
<path style="fill:#333333;" d="M18.144,21.016C18.015,20.803,15,15.755,15,12s3.015-8.803,3.144-9.016l1.713,1.032
	C19.828,4.063,17,8.803,17,12c0,3.198,2.828,7.937,2.856,7.984L18.144,21.016z"/>
</svg>






