<?xml version="1.0" encoding="iso-8859-1"?>
<svg version="1.1" id="&#x56FE;&#x5C42;_1" xmlns="http://www.w3.org/2000/svg" xmlns:xlink="http://www.w3.org/1999/xlink" x="0px"
	 y="0px" viewBox="0 0 24 24" style="enable-background:new 0 0 24 24;" xml:space="preserve">
<path style="fill:#333333;" d="M21,23H3c-1.103,0-2-0.897-2-2L1,3c0-1.103,0.897-2,2-2h18c1.103,0,2,0.897,2,2v18
	C23,22.103,22.103,23,21,23z M3,3l0,18h18V3H3z"/>
<polygon style="fill:#333333;" points="17.75,18.004 10.004,18.004 10.004,16.004 15.75,16.004 15.75,10.004 17.75,10.004 "/>
<polygon style="fill:#333333;" points="11.543,19.957 8.586,17 11.543,14.043 12.957,15.457 11.414,17 12.957,18.543 "/>
<polygon style="fill:#333333;" points="18.293,12.957 16.75,11.414 15.207,12.957 13.793,11.543 16.75,8.586 19.707,11.543 "/>
<rect x="6" y="2" style="fill:#333333;" width="2" height="20"/>
<rect x="2" y="6.01" style="fill:#333333;" width="20" height="2"/>
<rect x="4" y="1" style="fill:#333333;" width="10" height="2"/>
<rect x="4" y="21" style="fill:#333333;" width="10" height="2"/>
<rect x="21" y="4" style="fill:#333333;" width="2" height="5"/>
<rect x="1" y="4" style="fill:#333333;" width="2" height="5"/>
</svg>






