<?xml version="1.0" encoding="iso-8859-1"?>
<svg version="1.1" id="&#x56FE;&#x5C42;_1" xmlns="http://www.w3.org/2000/svg" xmlns:xlink="http://www.w3.org/1999/xlink" x="0px"
	 y="0px" viewBox="0 0 24 24" style="enable-background:new 0 0 24 24;" xml:space="preserve">
<path style="fill:#333333;" d="M12,21c-4.962,0-9-4.037-9-9c0-4.962,4.038-9,9-9c4.963,0,9,4.038,9,9C21,16.963,16.963,21,12,21z
	 M12,5c-3.86,0-7,3.14-7,7c0,3.859,3.14,7,7,7c3.859,0,7-3.141,7-7C19,8.14,15.859,5,12,5z"/>
<path style="fill:#333333;" d="M6.543,18.3c-0.49,0-0.961-0.02-1.411-0.059c-3.399-0.297-4.444-1.597-4.723-2.636
	c-0.411-1.532,0.671-3.248,3.045-4.83l1.109,1.664c-1.719,1.146-2.355,2.155-2.223,2.648c0.124,0.46,1.088,0.997,2.965,1.161
	c2.091,0.18,4.743-0.12,7.471-0.852c2.729-0.731,5.178-1.796,6.896-2.998c1.544-1.081,2.11-2.028,1.987-2.487
	c-0.123-0.46-1.088-0.997-2.964-1.161l0.174-1.992c3.397,0.296,4.443,1.597,4.722,2.635c0.278,1.039,0.023,2.688-2.772,4.645
	c-1.904,1.332-4.576,2.501-7.524,3.291C10.919,17.966,8.575,18.3,6.543,18.3z"/>
</svg>






