<?xml version="1.0" encoding="iso-8859-1"?>
<svg version="1.1" id="&#x56FE;&#x5C42;_1" xmlns="http://www.w3.org/2000/svg" xmlns:xlink="http://www.w3.org/1999/xlink" x="0px"
	 y="0px" viewBox="0 0 24 24" style="enable-background:new 0 0 24 24;" xml:space="preserve">
<path style="fill:#333333;" d="M15.751,22.672c-1.264-1.394-2.599-3.16-1.703-4.463l0.233-0.338l0.403-0.077
	C18.586,17.051,21,13.605,21,10.839C21,7.809,18.882,3,13.199,3C9.424,3,7.395,4.545,6.813,7.863L6.727,8.355L6.281,8.582
	c-1.204,0.612-2,1.037-2.526,1.331c0.664,0.491,1.357,1.292,0.896,2.459c-0.121,0.308-0.29,0.662-0.473,1.042
	c-0.387,0.806-1.108,2.305-0.773,2.771c0.194,0.271,0.836,0.355,1.516,0.444c0.919,0.121,2.063,0.271,3.001,1.015
	c1.145,0.908,2.003,2.275,2.552,4.063l-1.912,0.586c-0.428-1.394-1.061-2.431-1.883-3.083c-0.503-0.399-1.239-0.496-2.018-0.598
	c-1.022-0.134-2.182-0.285-2.882-1.262c-1.025-1.431-0.087-3.381,0.597-4.805c0.15-0.313,0.292-0.606,0.397-0.864
	c-0.135-0.152-0.535-0.374-0.715-0.475c-0.453-0.251-0.921-0.512-1.036-1.079L0.931,9.676l0.306-0.445
	c0.184-0.234,0.411-0.523,3.706-2.212C5.823,3.079,8.668,1,13.199,1C20.339,1,23,7.035,23,10.839c0,3.888-3.058,7.571-7.103,8.72
	c0.168,0.326,0.534,0.885,1.336,1.769L15.751,22.672z"/>
<path style="fill:#333333;" d="M13.809,20.203c-0.743-1.584-1.212-2.852-1.435-3.875c-0.263-1.214,0.518-1.981,1.087-2.542
	c0.546-0.537,0.88-0.896,0.88-1.508c0-0.345-0.612-0.618-1.547-0.995c-1.166-0.471-2.616-1.056-3.209-2.507
	c-0.68-1.665-0.696-3.857-0.049-6.703l1.95,0.443c-0.544,2.398-0.561,4.249-0.049,5.503c0.273,0.669,1.164,1.028,2.106,1.409
	c1.246,0.503,2.798,1.129,2.798,2.85c0,1.48-0.889,2.354-1.477,2.934c-0.398,0.392-0.561,0.574-0.535,0.692
	c0.187,0.862,0.621,2.023,1.29,3.449L13.809,20.203z"/>
<path style="fill:#333333;" d="M8.5,16.275l-0.016-2c0.008,0,0.768-0.045,1.276-0.57c0.34-0.353,0.499-0.734,0.499-1.205h2
	c0,0.994-0.357,1.867-1.061,2.595C10.07,16.262,8.563,16.275,8.5,16.275z"/>
</svg>






