<?xml version="1.0" encoding="iso-8859-1"?>
<svg version="1.1" id="&#x56FE;&#x5C42;_1" xmlns="http://www.w3.org/2000/svg" xmlns:xlink="http://www.w3.org/1999/xlink" x="0px"
	 y="0px" viewBox="0 0 24 24" style="enable-background:new 0 0 24 24;" xml:space="preserve">
<path style="fill:#333333;" d="M12,23C5.935,23,1,18.065,1,12S5.935,1,12,1s11,4.935,11,11c0,2.267-2.427,2.762-4.376,3.159
	c-1.137,0.232-2.425,0.495-2.876,1.004c-0.562,0.636-0.664,1.753-0.762,2.834C14.842,20.591,14.624,23,12,23z M12,3
	c-4.962,0-9,4.038-9,9c0,4.963,4.038,9,9,9c0.646,0,0.814-0.201,0.994-2.184c0.121-1.337,0.259-2.853,1.257-3.979
	c0.894-1.009,2.459-1.328,3.973-1.637C19.797,12.879,21,12.587,21,12C21,7.038,16.963,3,12,3z"/>
<path style="fill:#333333;" d="M14,9.5c-1.379,0-2.5-1.122-2.5-2.5s1.121-2.5,2.5-2.5s2.5,1.122,2.5,2.5S15.379,9.5,14,9.5z M14,6.5
	c-0.275,0-0.5,0.224-0.5,0.5s0.225,0.5,0.5,0.5s0.5-0.224,0.5-0.5S14.275,6.5,14,6.5z"/>
<path style="fill:#333333;" d="M8,11.5c-1.378,0-2.5-1.122-2.5-2.5S6.622,6.5,8,6.5s2.5,1.122,2.5,2.5S9.378,11.5,8,11.5z M8,8.5
	C7.724,8.5,7.5,8.724,7.5,9S7.724,9.5,8,9.5S8.5,9.276,8.5,9S8.276,8.5,8,8.5z"/>
<path style="fill:#333333;" d="M8.5,18C7.122,18,6,16.879,6,15.5S7.122,13,8.5,13s2.5,1.121,2.5,2.5S9.878,18,8.5,18z M8.5,15
	C8.224,15,8,15.225,8,15.5S8.224,16,8.5,16S9,15.775,9,15.5S8.776,15,8.5,15z"/>
</svg>






