<?xml version="1.0" encoding="iso-8859-1"?>
<svg version="1.1" id="&#x56FE;&#x5C42;_1" xmlns="http://www.w3.org/2000/svg" xmlns:xlink="http://www.w3.org/1999/xlink" x="0px"
	 y="0px" viewBox="0 0 24 24" style="enable-background:new 0 0 24 24;" xml:space="preserve">
<path style="fill:#333333;" d="M3,12.5H1c0-3.86,3.14-7,7-7h14v2H8C5.243,7.5,3,9.743,3,12.5z"/>
<polygon style="fill:#333333;" points="19.707,10.207 18.293,8.793 20.586,6.5 18.293,4.207 19.707,2.793 23.414,6.5 "/>
<path style="fill:#333333;" d="M16,18.5H2v-2h14c2.757,0,5-2.243,5-5h2C23,15.359,19.859,18.5,16,18.5z"/>
<polygon style="fill:#333333;" points="4.293,21.207 0.586,17.5 4.293,13.793 5.707,15.207 3.414,17.5 5.707,19.793 "/>
</svg>






