<?xml version="1.0" encoding="iso-8859-1"?>
<svg version="1.1" id="&#x56FE;&#x5C42;_1" xmlns="http://www.w3.org/2000/svg" xmlns:xlink="http://www.w3.org/1999/xlink" x="0px"
	 y="0px" viewBox="0 0 24 24" style="enable-background:new 0 0 24 24;" xml:space="preserve">
<path style="fill:#333333;" d="M12,23C5.935,23,1,18.065,1,12S5.935,1,12,1s11,4.935,11,11h-2c0-4.962-4.037-9-9-9
	c-4.962,0-9,4.038-9,9c0,4.963,4.038,9,9,9V23z"/>
<rect x="17.5" y="15.672" transform="matrix(0.7071 -0.7071 0.7071 0.7071 -7.663 18.5)" style="fill:#333333;" width="2" height="5.657"/>
<rect x="15.672" y="17.5" transform="matrix(0.7071 -0.7071 0.7071 0.7071 -7.663 18.5)" style="fill:#333333;" width="5.657" height="2"/>
<path style="fill:#333333;" d="M9,17.195V6.804L18,12L9,17.195z M11,10.268v3.464L14,12L11,10.268z"/>
</svg>






