<?xml version="1.0" encoding="iso-8859-1"?>
<svg version="1.1" id="&#x56FE;&#x5C42;_1" xmlns="http://www.w3.org/2000/svg" xmlns:xlink="http://www.w3.org/1999/xlink" x="0px"
	 y="0px" viewBox="0 0 24 24" style="enable-background:new 0 0 24 24;" xml:space="preserve">
<path style="fill:#333333;" d="M16,9c-1.93,0-3.5-1.57-3.5-3.5S14.07,2,16,2s3.5,1.57,3.5,3.5S17.93,9,16,9z M16,4
	c-0.827,0-1.5,0.673-1.5,1.5S15.173,7,16,7s1.5-0.673,1.5-1.5S16.827,4,16,4z"/>
<path style="fill:#333333;" d="M11.746,20.969l-0.492-1.938l3.115-0.792l-3.515-2.976l-0.249-1.211l1.496-2.993L7.957,9.571
	c-0.499-0.179-0.899-0.54-1.128-1.018L4.621,4.476l1.759-0.952l2.23,4.12l5.229,1.915l0.557,1.388l-1.648,3.297l3.665,3.103
	c0.435,0.383,0.613,0.952,0.479,1.498c-0.135,0.545-0.556,0.965-1.1,1.097L11.746,20.969z M15.309,18.001
	c-0.003,0-0.007,0.001-0.01,0.002L15.309,18.001z"/>
<path style="fill:#333333;" d="M2.834,21.942l-0.669-1.885l5.13-1.82l3.421-4.358l1.567,1.242l-3.484,4.395
	c-0.233,0.278-0.504,0.477-0.801,0.594L2.834,21.942z"/>
<path style="fill:#333333;" d="M20.151,16.028l-1.98-3.18l-4.942-1.386l0.543-1.925l4.95,1.395c0.484,0.144,0.885,0.445,1.143,0.853
	l1.984,3.187L20.151,16.028z"/>
<path style="fill:#333333;" d="M9,4c0.828,0,1.5-0.672,1.5-1.5S9.828,1,9,1S7.5,1.672,7.5,2.5S8.172,4,9,4z"/>
</svg>






