<?xml version="1.0" encoding="iso-8859-1"?>
<svg version="1.1" id="&#x56FE;&#x5C42;_1" xmlns="http://www.w3.org/2000/svg" xmlns:xlink="http://www.w3.org/1999/xlink" x="0px"
	 y="0px" viewBox="0 0 24 24" style="enable-background:new 0 0 24 24;" xml:space="preserve">
<path style="fill:#333333;" d="M16.5,19h-9C6.122,19,5,17.879,5,16.5v-9C5,6.122,6.122,5,7.5,5h9C17.879,5,19,6.122,19,7.5v9
	C19,17.879,17.879,19,16.5,19z M7.5,7C7.224,7,7,7.224,7,7.5v9C7,16.775,7.224,17,7.5,17h9c0.275,0,0.5-0.225,0.5-0.5v-9
	C17,7.224,16.775,7,16.5,7H7.5z"/>
<path style="fill:#333333;" d="M10.5,23H4v-2h6.5c0.276,0,0.5-0.225,0.5-0.5V18h2v2.5C13,21.879,11.878,23,10.5,23z"/>
<rect x="9" y="2" style="fill:#333333;" width="2" height="4"/>
<rect x="13" y="2" style="fill:#333333;" width="2" height="4"/>
<rect x="11" y="11" style="fill:#333333;" width="2" height="2"/>
</svg>






