<?xml version="1.0" encoding="iso-8859-1"?>
<svg version="1.1" id="&#x56FE;&#x5C42;_1" xmlns="http://www.w3.org/2000/svg" xmlns:xlink="http://www.w3.org/1999/xlink" x="0px"
	 y="0px" viewBox="0 0 24 24" style="enable-background:new 0 0 24 24;" xml:space="preserve">
<path style="fill:#333333;" d="M12,19c-4.392,0-7.72-2.205-9.895-6.553L2,12.236V6h20v6.236l-0.105,0.211
	C19.721,16.795,16.392,19,12,19z M4,11.76C5.829,15.285,8.447,17,12,17s6.172-1.715,8-5.24V8H4V11.76z"/>
<polygon style="fill:#333333;" points="16.905,23 7.095,23 6.505,17.1 8.495,16.9 8.905,21 15.095,21 15.505,16.9 17.495,17.1 "/>
<rect x="11" y="11" style="fill:#333333;" width="2" height="2"/>
<rect x="7" y="2" style="fill:#333333;" width="2" height="4"/>
<rect x="15" y="2" style="fill:#333333;" width="2" height="4"/>
</svg>






