<?xml version="1.0" encoding="iso-8859-1"?>
<svg version="1.1" id="&#x56FE;&#x5C42;_1" xmlns="http://www.w3.org/2000/svg" xmlns:xlink="http://www.w3.org/1999/xlink" x="0px"
	 y="0px" viewBox="0 0 24 24" style="enable-background:new 0 0 24 24;" xml:space="preserve">
<path style="fill:#333333;" d="M18.5,23H8.738c-0.389,0-0.746-0.197-0.955-0.526l-4.703-7.583c-0.79-1.272-0.524-2.962,0.619-3.93
	c0.688-0.583,1.589-0.83,2.481-0.68c0.558,0.095,1.069,0.34,1.486,0.701v-7.01C7.667,2.333,9,1,10.638,1
	c1.638,0,2.971,1.333,2.971,2.971v4.222l5.369,0.179C20.111,8.41,21,9.329,21,10.464V20.5C21,21.879,19.879,23,18.5,23z M9.223,21
	H18.5c0.275,0,0.5-0.225,0.5-0.5V10.464c0-0.05-0.039-0.091-0.089-0.092l-5.811-0.194c-0.837-0.028-1.492-0.706-1.492-1.542V3.971
	C11.608,3.436,11.173,3,10.638,3c-0.536,0-0.971,0.436-0.971,0.971v10.375l-1.862,0.506l-1.231-2.098
	c-0.159-0.271-0.418-0.449-0.728-0.502c-0.309-0.049-0.613,0.03-0.853,0.234c-0.393,0.332-0.484,0.913-0.213,1.35L9.223,21z"/>
</svg>






