<?xml version="1.0" encoding="iso-8859-1"?>
<svg version="1.1" id="&#x56FE;&#x5C42;_1" xmlns="http://www.w3.org/2000/svg" xmlns:xlink="http://www.w3.org/1999/xlink" x="0px"
	 y="0px" viewBox="0 0 24 24" style="enable-background:new 0 0 24 24;" xml:space="preserve">
<path style="fill:#333333;" d="M13.841,22.575c-1.592,0-3.213-0.394-4.788-1.181c-2.258-1.129-4.751-3.948-7.41-8.38
	C0.561,11.211,1.28,9.442,2.407,8.562c1.346-1.049,3.113-0.956,4.3,0.231L7,9.086V3.75C7,2.233,8.233,1,9.75,1s2.75,1.233,2.75,2.75
	v1.604c0.238-0.068,0.49-0.104,0.75-0.104c0.891,0,1.684,0.426,2.187,1.084C15.827,6.121,16.274,6,16.75,6
	c1.468,0,2.671,1.156,2.746,2.605C19.736,8.537,19.988,8.5,20.25,8.5c1.517,0,2.75,1.233,2.75,2.75v4.372
	c0,0.83-0.219,1.588-0.632,2.191c-0.583,0.856-1.865,2.46-3.89,3.564C17.016,22.176,15.442,22.575,13.841,22.575z M4.459,9.84
	c-0.311,0-0.604,0.129-0.821,0.298c-0.457,0.357-0.771,1.03-0.28,1.847c2.391,3.985,4.731,6.691,6.589,7.62
	c2.596,1.298,5.215,1.303,7.574,0.017c1.655-0.903,2.712-2.228,3.195-2.936C20.951,16.344,21,15.919,21,15.622V11.25
	c0-0.414-0.337-0.75-0.75-0.75s-0.75,0.336-0.75,0.75h-2V8.749C17.5,8.336,17.163,8,16.75,8S16,8.336,16,8.75h-2V8
	c0-0.414-0.337-0.75-0.75-0.75S12.5,7.586,12.5,8h-2V3.75C10.5,3.336,10.164,3,9.75,3S9,3.336,9,3.75v7.75l-1.707,0.707l-2-2
	C5.027,9.941,4.736,9.84,4.459,9.84z"/>
</svg>






