<?xml version="1.0" encoding="iso-8859-1"?>
<svg version="1.1" id="&#x56FE;&#x5C42;_1" xmlns="http://www.w3.org/2000/svg" xmlns:xlink="http://www.w3.org/1999/xlink" x="0px"
	 y="0px" viewBox="0 0 24 24" style="enable-background:new 0 0 24 24;" xml:space="preserve">
<rect x="16.807" y="12" transform="matrix(0.9286 -0.3711 0.3711 0.9286 -3.4316 8.1636)" style="fill:#333333;" width="5.385" height="2"/>
<path style="fill:#333333;" d="M13.304,20H5.696c-2.286,0-4.208-1.713-4.47-3.983L0.878,13h17.244l-0.349,3.017
	C17.513,18.287,15.591,20,13.304,20z M3.122,15l0.091,0.787C3.358,17.049,4.426,18,5.696,18h7.607c1.271,0,2.338-0.951,2.483-2.213
	L15.878,15H3.122z"/>
<rect x="8.5" y="5" style="fill:#333333;" width="2" height="5"/>
<rect x="4.5" y="6" style="fill:#333333;" width="2" height="3"/>
<rect x="12.5" y="6" style="fill:#333333;" width="2" height="3"/>
</svg>






