<?xml version="1.0" encoding="iso-8859-1"?>
<svg version="1.1" id="&#x56FE;&#x5C42;_1" xmlns="http://www.w3.org/2000/svg" xmlns:xlink="http://www.w3.org/1999/xlink" x="0px"
	 y="0px" viewBox="0 0 24 24" style="enable-background:new 0 0 24 24;" xml:space="preserve">
<path style="fill:#333333;" d="M12,15c-5.333,0-11-1.752-11-5c0-3.248,5.667-5,11-5c5.333,0,11,1.752,11,5
	C23,13.248,17.333,15,12,15z M12,7c-5.494,0-9,1.777-9,3s3.506,3,9,3s9-1.777,9-3S17.494,7,12,7z"/>
<rect x="11" y="2" style="fill:#333333;" width="2" height="7.5"/>
<rect x="7" y="17" style="fill:#333333;" width="2" height="4"/>
<rect x="11" y="17" style="fill:#333333;" width="2" height="5"/>
<rect x="15" y="17" style="fill:#333333;" width="2" height="4"/>
<path style="fill:#333333;" d="M3.694,19.346c-1.874-1.255-2.532-2.595-2.601-2.744L1,16.402V10h2v5.919
	c0.199,0.315,0.74,1.051,1.806,1.765L3.694,19.346z"/>
<path style="fill:#333333;" d="M20.307,19.346l-1.113-1.662c1.063-0.712,1.604-1.445,1.807-1.766V10h2v6.402l-0.093,0.199
	C22.839,16.75,22.181,18.091,20.307,19.346z"/>
</svg>






