<?xml version="1.0" encoding="iso-8859-1"?>
<svg version="1.1" id="&#x56FE;&#x5C42;_1" xmlns="http://www.w3.org/2000/svg" xmlns:xlink="http://www.w3.org/1999/xlink" x="0px"
	 y="0px" viewBox="0 0 24 24" style="enable-background:new 0 0 24 24;" xml:space="preserve">
<path style="fill:#333333;" d="M20.5,22.5h-17C2.122,22.5,1,21.379,1,20V10c0-1.378,1.122-2.5,2.5-2.5h2.643
	c1.193,0,2.115,0.87,2.705,1.524C9.248,9.47,10.121,10,12,10c1.88,0,2.752-0.53,3.152-0.975C15.742,8.37,16.664,7.5,17.857,7.5H20.5
	c1.379,0,2.5,1.122,2.5,2.5v10C23,21.379,21.879,22.5,20.5,22.5z M3.5,9.5C3.224,9.5,3,9.724,3,10v10c0,0.275,0.224,0.5,0.5,0.5h17
	c0.275,0,0.5-0.225,0.5-0.5V10c0-0.276-0.225-0.5-0.5-0.5h-2.643c-0.293,0-0.703,0.291-1.219,0.863C15.966,11.11,14.615,12,12,12
	s-3.966-0.89-4.639-1.637C6.846,9.791,6.436,9.5,6.143,9.5H3.5z"/>
<path style="fill:#333333;" d="M12,12c-3.136,0-5.5-1.505-5.5-3.5h2C8.5,9.097,9.896,10,12,10c2.104,0,3.5-0.903,3.5-1.5h2
	C17.5,10.495,15.136,12,12,12z"/>
<path style="fill:#333333;" d="M12,8.5C8.864,8.5,6.5,6.995,6.5,5S8.864,1.5,12,1.5s5.5,1.505,5.5,3.5S15.136,8.5,12,8.5z M12,3.5
	C9.896,3.5,8.5,4.403,8.5,5S9.896,6.5,12,6.5c2.104,0,3.5-0.903,3.5-1.5S14.104,3.5,12,3.5z"/>
<rect x="15.5" y="5" style="fill:#333333;" width="2" height="3.5"/>
<rect x="6.5" y="5" style="fill:#333333;" width="2" height="3.5"/>
<ellipse style="fill:#333333;" cx="13.5" cy="5" rx="1" ry="0.5"/>
<ellipse style="fill:#333333;" cx="10.5" cy="5" rx="1" ry="0.5"/>
</svg>






