<?xml version="1.0" encoding="iso-8859-1"?>
<svg version="1.1" id="&#x56FE;&#x5C42;_1" xmlns="http://www.w3.org/2000/svg" xmlns:xlink="http://www.w3.org/1999/xlink" x="0px"
	 y="0px" viewBox="0 0 24 24" style="enable-background:new 0 0 24 24;" xml:space="preserve">
<path style="fill:#333333;" d="M12,22.5c-5.79,0-10.5-4.655-10.5-10.377c0-2.533,0.934-4.973,2.629-6.87
	c0.474-0.53,1.004-1.013,1.575-1.437C6.038,3.57,6.391,3.339,6.753,3.132l0.993,1.736C7.452,5.037,7.165,5.224,6.895,5.424
	C6.433,5.766,6.004,6.158,5.62,6.587C4.253,8.116,3.5,10.083,3.5,12.123c0,4.619,3.813,8.377,8.5,8.377c4.687,0,8.5-3.758,8.5-8.377
	c0-2.041-0.753-4.007-2.12-5.537c-0.384-0.429-0.813-0.82-1.275-1.163c-0.272-0.202-0.56-0.389-0.851-0.555l0.992-1.736
	c0.359,0.205,0.712,0.435,1.049,0.684c0.571,0.424,1.102,0.908,1.575,1.437c1.696,1.896,2.63,4.336,2.63,6.87
	C22.5,17.845,17.79,22.5,12,22.5z"/>
<rect x="11" y="2" style="fill:#333333;" width="2" height="10"/>
</svg>






