<?xml version="1.0" encoding="iso-8859-1"?>
<svg version="1.1" id="&#x56FE;&#x5C42;_1" xmlns="http://www.w3.org/2000/svg" xmlns:xlink="http://www.w3.org/1999/xlink" x="0px"
	 y="0px" viewBox="0 0 24 24" style="enable-background:new 0 0 24 24;" xml:space="preserve">
<path style="fill:#333333;" d="M17.013,22.858l-1.025-1.717c2.685-1.605,4.147-3.932,4.471-7.112
	c0.313-3.082-1.144-5.503-4.455-7.402L15.5,6.338V2h2v3.191c3.663,2.272,5.327,5.311,4.948,9.041
	C22.062,18.031,20.232,20.934,17.013,22.858z"/>
<path style="fill:#333333;" d="M11.031,21c-0.915,0-1.951-0.501-3.152-1.52C5.497,17.458,1.5,13.78,1.5,11.863
	c0-1.135,1.456-6.778,2.163-8.387c0.603-1.37,1.659-2.221,3.054-2.461l0.34,1.971C6.323,3.112,5.827,3.524,5.494,4.282
	C4.834,5.78,3.511,11.118,3.5,11.864c0.063,0.387,1.208,2.301,5.673,6.091c1.283,1.088,1.831,1.053,1.928,1.039
	c0.039-0.007,0.155-0.028,0.31-0.303c0.151-0.269,0.234-0.417-1.002-1.386c-1.461-1.146-4.857-3.998-4.857-5.75
	c0-0.572,0.231-1.857,2.037-6.758l1.877,0.691c-1.775,4.819-1.914,5.862-1.914,6.066c0.09,0.445,1.601,2.223,4.091,4.176
	c0.967,0.759,2.586,2.027,1.512,3.94c-0.51,0.906-1.206,1.202-1.7,1.291C11.316,20.987,11.175,21,11.031,21z"/>
<path style="fill:#333333;" d="M4.534,22.23c-0.686-2.548-1.167-5.124-1.428-7.657l1.989-0.205c0.251,2.427,0.712,4.896,1.371,7.343
	L4.534,22.23z"/>
<path style="fill:#333333;" d="M19.188,14.37l-1.98-0.277c0.075-0.538,0.018-1.161-0.172-1.85c-0.162-0.588-0.519-1.059-1.09-1.438
	l1.107-1.666c0.976,0.648,1.619,1.514,1.91,2.574C19.227,12.665,19.302,13.56,19.188,14.37z"/>
</svg>






