<?xml version="1.0" encoding="iso-8859-1"?>
<svg version="1.1" id="&#x56FE;&#x5C42;_1" xmlns="http://www.w3.org/2000/svg" xmlns:xlink="http://www.w3.org/1999/xlink" x="0px"
	 y="0px" viewBox="0 0 24 24" style="enable-background:new 0 0 24 24;" xml:space="preserve">
<path style="fill:#333333;" d="M19,22H5c-1.103,0-2-0.897-2-2V4c0-1.103,0.897-2,2-2h9.5v6H21v12C21,21.103,20.103,22,19,22z M5,4
	v16h14V10h-6.5V4H5z"/>
<rect x="15.75" y="1.577" transform="matrix(0.6783 -0.7348 0.7348 0.6783 0.98 14.2383)" style="fill:#333333;" width="2.001" height="8.846"/>
<polygon style="fill:#333333;" points="20,10.041 12.512,10.041 12.512,3 14.512,3 14.512,8.041 20,8.041 "/>
<rect x="7" y="14" style="fill:#333333;" width="6" height="2"/>
<rect x="9" y="12" style="fill:#333333;" width="2" height="6"/>
</svg>






