<?xml version="1.0" encoding="iso-8859-1"?>
<svg version="1.1" id="&#x56FE;&#x5C42;_1" xmlns="http://www.w3.org/2000/svg" xmlns:xlink="http://www.w3.org/1999/xlink" x="0px"
	 y="0px" viewBox="0 0 24 24" style="enable-background:new 0 0 24 24;" xml:space="preserve">
<path style="fill:#333333;" d="M12,19c-5.956,0-10.606-6.141-10.801-6.402L0.752,12l0.446-0.598
	c0.048-0.065,1.212-1.613,3.092-3.172l1.276,1.54c-1.012,0.838-1.801,1.684-2.273,2.229C4.547,13.443,8.037,17,12,17
	c0.569,0,1.161-0.075,1.758-0.225l0.484,1.941C13.487,18.904,12.732,19,12,19z M19.709,15.77l-1.275-1.539
	c1.012-0.839,1.801-1.685,2.272-2.229C19.453,10.557,15.963,7,12,7c-0.567,0-1.153,0.074-1.743,0.221L9.775,5.279
	C10.522,5.094,11.271,5,12,5c5.955,0,10.606,6.141,10.802,6.402L23.248,12l-0.446,0.598C22.753,12.663,21.589,14.212,19.709,15.77z"
	/>
<path style="fill:#333333;" d="M12,15.5c-1.93,0-3.5-1.57-3.5-3.5c0-0.879,0.327-1.719,0.92-2.366l1.474,1.353
	C10.64,11.264,10.5,11.624,10.5,12c0,0.827,0.673,1.5,1.5,1.5c0.395,0,0.768-0.152,1.05-0.429l1.4,1.428
	C13.792,15.145,12.922,15.5,12,15.5z"/>
<rect x="11" y="-0.728" transform="matrix(0.7071 -0.7071 0.7071 0.7071 -4.9706 12)" style="fill:#333333;" width="2" height="25.456"/>
</svg>






