<?xml version="1.0" encoding="iso-8859-1"?>
<svg version="1.1" id="&#x56FE;&#x5C42;_1" xmlns="http://www.w3.org/2000/svg" xmlns:xlink="http://www.w3.org/1999/xlink" x="0px"
	 y="0px" viewBox="0 0 24 24" style="enable-background:new 0 0 24 24;" xml:space="preserve">
<path style="fill:#333333;" d="M12,19c-5.956,0-10.606-6.141-10.801-6.402L0.752,12l0.446-0.598C1.394,11.141,6.044,5,12,5
	c5.955,0,10.606,6.141,10.802,6.402L23.248,12l-0.446,0.598C22.606,12.859,17.955,19,12,19z M3.293,11.999
	C4.547,13.442,8.037,17,12,17c3.962,0,7.451-3.556,8.705-5C19.451,10.556,15.962,7,12,7C8.024,7,4.544,10.555,3.293,11.999z"/>
<path style="fill:#333333;" d="M12,15.5c-1.93,0-3.5-1.57-3.5-3.5s1.57-3.5,3.5-3.5s3.5,1.57,3.5,3.5S13.93,15.5,12,15.5z M12,10.5
	c-0.827,0-1.5,0.673-1.5,1.5s0.673,1.5,1.5,1.5s1.5-0.673,1.5-1.5S12.827,10.5,12,10.5z"/>
</svg>






