<?xml version="1.0" encoding="iso-8859-1"?>
<svg version="1.1" id="&#x56FE;&#x5C42;_1" xmlns="http://www.w3.org/2000/svg" xmlns:xlink="http://www.w3.org/1999/xlink" x="0px"
	 y="0px" viewBox="0 0 24 24" style="enable-background:new 0 0 24 24;" xml:space="preserve">
<path style="fill:#333333;" d="M12,13c-3.249,0-6.246-0.929-8.222-2.549C3.05,9.854,2.49,9.185,2.113,8.461l1.774-0.923
	C4.138,8.021,4.528,8.48,5.045,8.904C6.646,10.217,9.247,11,12,11c2.753,0,5.354-0.784,6.955-2.096
	c0.518-0.424,0.906-0.883,1.158-1.366l1.773,0.923c-0.377,0.724-0.937,1.394-1.664,1.99C18.245,12.071,15.248,13,12,13z"/>
<rect x="14.006" y="11.931" transform="matrix(0.9659 -0.259 0.259 0.9659 -3.0967 4.3629)" style="fill:#333333;" width="2" height="4"/>
<rect x="19.091" y="10.091" transform="matrix(0.7071 -0.7071 0.7071 0.7071 -2.665 17.7477)" style="fill:#333333;" width="2" height="4"/>
<rect x="1.914" y="11.091" transform="matrix(0.7071 -0.7071 0.7071 0.7071 -7.403 6.3092)" style="fill:#333333;" width="4" height="2"/>
<rect x="6.981" y="12.932" transform="matrix(0.2588 -0.9659 0.9659 0.2588 -6.8005 19.0017)" style="fill:#333333;" width="4.001" height="2"/>
</svg>






