<?xml version="1.0" encoding="iso-8859-1"?>
<svg version="1.1" id="&#x56FE;&#x5C42;_1" xmlns="http://www.w3.org/2000/svg" xmlns:xlink="http://www.w3.org/1999/xlink" x="0px"
	 y="0px" viewBox="0 0 24 24" style="enable-background:new 0 0 24 24;" xml:space="preserve">
<path style="fill:#333333;" d="M20,10h-2V4H6v6H4V4c0-1.103,0.897-2,2-2h12c1.103,0,2,0.897,2,2V10z"/>
<path style="fill:#333333;" d="M20,22H4c-1.103,0-2-0.897-2-2v-9c0-1.103,0.897-2,2-2h16c1.103,0,2,0.897,2,2v9
	C22,21.103,21.103,22,20,22z M4,11H3.999L4,20h16v-9H4z"/>
<path style="fill:#333333;" d="M18.5,22H9v-6h9.5V22z M11,20h5.5v-2H11V20z"/>
<rect x="6" y="12" style="fill:#333333;" width="1.5" height="2"/>
</svg>






