<?xml version="1.0" encoding="iso-8859-1"?>
<svg version="1.1" id="&#x56FE;&#x5C42;_1" xmlns="http://www.w3.org/2000/svg" xmlns:xlink="http://www.w3.org/1999/xlink" x="0px"
	 y="0px" viewBox="0 0 24 24" style="enable-background:new 0 0 24 24;" xml:space="preserve">
<path style="fill:#333333;" d="M9.5,7.5h-6C2.673,7.5,2,6.827,2,6V2h2v3.5h5V2h2v4C11,6.827,10.327,7.5,9.5,7.5z"/>
<rect x="3" y="2.5" style="fill:#333333;" width="7" height="2"/>
<polygon style="fill:#333333;" points="14,23 2,23 2,10 14,10 14,12 4,12 4,21 14,21 "/>
<rect x="7" y="6.5" style="fill:#333333;" width="2" height="15.5"/>
<rect x="4" y="6.5" style="fill:#333333;" width="2" height="4.5"/>
<rect x="5.5" y="2" style="fill:#333333;" width="2" height="1.5"/>
<rect x="12.5" y="6.5" style="fill:#333333;" width="2" height="1.5"/>
<rect x="16.5" y="6.5" style="fill:#333333;" width="2" height="1.5"/>
<rect x="20.5" y="6.5" style="fill:#333333;" width="2" height="1.5"/>
<path style="fill:#333333;" d="M22.5,23h-10V7h10V23z M14.5,21h6V9h-6V21z"/>
<rect x="16.5" y="17" style="fill:#333333;" width="2" height="5"/>
<rect x="15.5" y="21" style="fill:#333333;" width="4" height="2"/>
</svg>






