<?xml version="1.0" encoding="iso-8859-1"?>
<svg version="1.1" id="&#x56FE;&#x5C42;_1" xmlns="http://www.w3.org/2000/svg" xmlns:xlink="http://www.w3.org/1999/xlink" x="0px"
	 y="0px" viewBox="0 0 24 24" style="enable-background:new 0 0 24 24;" xml:space="preserve">
<path style="fill:#333333;" d="M21,18H3c-1.103,0-2-0.897-2-2V6c0-1.103,0.897-2,2-2h18c1.103,0,2,0.897,2,2v10
	C23,17.103,22.103,18,21,18z M3,6v10h18V6H3z"/>
<rect x="6" y="8.5" style="fill:#333333;" width="3" height="2"/>
<rect x="6" y="11.5" style="fill:#333333;" width="2" height="2"/>
<rect x="6" y="17" style="fill:#333333;" width="2" height="3"/>
<rect x="16" y="17" style="fill:#333333;" width="2" height="3"/>
<path style="fill:#333333;" d="M15.5,14.5c-1.93,0-3.5-1.57-3.5-3.5s1.57-3.5,3.5-3.5S19,9.07,19,11S17.43,14.5,15.5,14.5z
	 M15.5,9.5c-0.827,0-1.5,0.673-1.5,1.5s0.673,1.5,1.5,1.5S17,11.827,17,11S16.327,9.5,15.5,9.5z"/>
</svg>






