<?xml version="1.0" encoding="iso-8859-1"?>
<svg version="1.1" id="&#x56FE;&#x5C42;_1" xmlns="http://www.w3.org/2000/svg" xmlns:xlink="http://www.w3.org/1999/xlink" x="0px"
	 y="0px" viewBox="0 0 24 24" style="enable-background:new 0 0 24 24;" xml:space="preserve">
<polygon style="fill:#333333;" points="11.5,10.5 9.5,10.5 9.5,6 6,6 6,10.5 4,10.5 4,4 11.5,4 "/>
<path style="fill:#333333;" d="M21,19.5H3c-1.103,0-2-0.897-2-2v-6c0-1.103,0.897-2,2-2h18c1.103,0,2,0.897,2,2v6
	C23,18.603,22.103,19.5,21,19.5z M3,11.5H2.999L3,17.5h18v-6H3z"/>
<path style="fill:#333333;" d="M8,13.5L8,13.5c0.552,0,1,0.448,1,1l0,0c0,0.552-0.448,1-1,1l0,0c-0.552,0-1-0.448-1-1l0,0
	C7,13.948,7.448,13.5,8,13.5z"/>
<rect x="14" y="13.5" style="fill:#333333;" width="4" height="2"/>
</svg>






