<?xml version="1.0" encoding="iso-8859-1"?>
<svg version="1.1" id="&#x56FE;&#x5C42;_1" xmlns="http://www.w3.org/2000/svg" xmlns:xlink="http://www.w3.org/1999/xlink" x="0px"
	 y="0px" viewBox="0 0 24 24" style="enable-background:new 0 0 24 24;" xml:space="preserve">
<polygon style="fill:#333333;" points="23,17 1,17 1,7 12,7 12,9 3,9 3,15 21,15 21,9 19,9 19,7 23,7 "/>
<path style="fill:#333333;" d="M7,20H2v-5h5V20z M4,18h1v-1H4V18z"/>
<path style="fill:#333333;" d="M22,20h-5v-5h5V20z M19,18h1v-1h-1V18z"/>
<rect x="5" y="11" style="fill:#333333;" width="4" height="2"/>
<path style="fill:#333333;" d="M15.5,12.5c-2.481,0-4.5-2.019-4.5-4.5s2.019-4.5,4.5-4.5S20,5.519,20,8S17.981,12.5,15.5,12.5z
	 M15.5,5.5C14.121,5.5,13,6.622,13,8s1.121,2.5,2.5,2.5S18,9.378,18,8S16.879,5.5,15.5,5.5z"/>
<circle style="fill:#333333;" cx="15.5" cy="8" r="1.5"/>
</svg>






