<?xml version="1.0" encoding="iso-8859-1"?>
<svg version="1.1" id="&#x56FE;&#x5C42;_1" xmlns="http://www.w3.org/2000/svg" xmlns:xlink="http://www.w3.org/1999/xlink" x="0px"
	 y="0px" viewBox="0 0 24 24" style="enable-background:new 0 0 24 24;" xml:space="preserve">
<g>
	<defs>
		<rect id="SVGID_1_" width="24" height="24"/>
	</defs>
	<clipPath id="SVGID_00000065757200316468671420000003758903345509502356_">
		<use xlink:href="#SVGID_1_"  style="overflow:visible;"/>
	</clipPath>
	<g style="clip-path:url(#SVGID_00000065757200316468671420000003758903345509502356_);">
		<path style="fill:#333333;" d="M20.66,21H3.34c-0.723,0-1.371-0.374-1.732-1c-0.362-0.626-0.362-1.373,0-2l8.661-15
			C10.63,2.374,11.277,2,12,2h0.001c0.723,0,1.37,0.374,1.731,1l8.66,15c0.361,0.627,0.361,1.374-0.001,2
			C22.03,20.626,21.383,21,20.66,21z M11.134,3.5L12,4L3.34,19h17.32L12,4L11.134,3.5z"/>
		
			<rect x="6.362" y="13.5" transform="matrix(0.5088 -0.8609 0.8609 0.5088 -6.2201 18.0984)" style="fill:#333333;" width="12.777" height="2"/>
		
			<rect x="14.368" y="16.25" transform="matrix(0.4786 -0.878 0.878 0.4786 -6.0214 24.3603)" style="fill:#333333;" width="6.265" height="2"/>
	</g>
</g>
</svg>






