<?xml version="1.0" encoding="iso-8859-1"?>
<svg version="1.1" id="&#x56FE;&#x5C42;_1" xmlns="http://www.w3.org/2000/svg" xmlns:xlink="http://www.w3.org/1999/xlink" x="0px"
	 y="0px" viewBox="0 0 24 24" style="enable-background:new 0 0 24 24;" xml:space="preserve">
<path style="fill:#333333;" d="M22,13H2v-1c0-5.238,4.486-9.5,10-9.5c5.514,0,10,4.262,10,9.5V13z M4.071,11h15.858
	C19.406,7.335,16.05,4.5,12,4.5S4.594,7.335,4.071,11z"/>
<path style="fill:#333333;" d="M9.25,23c-2.068,0-3.75-1.672-3.75-3.728h2C7.5,20.225,8.285,21,9.25,21S11,20.225,11,19.272v-7.269
	h2v7.269C13,21.328,11.318,23,9.25,23z"/>
<rect x="11" y="2" style="fill:#333333;" width="2" height="1.5"/>
</svg>






