<?xml version="1.0" encoding="iso-8859-1"?>
<svg version="1.1" id="&#x56FE;&#x5C42;_1" xmlns="http://www.w3.org/2000/svg" xmlns:xlink="http://www.w3.org/1999/xlink" x="0px"
	 y="0px" viewBox="0 0 24 24" style="enable-background:new 0 0 24 24;" xml:space="preserve">
<path style="fill:#333333;" d="M7.5,8c-1.654,0-3-1.346-3-3s1.346-3,3-3s3,1.346,3,3S9.154,8,7.5,8z M7.5,4c-0.551,0-1,0.449-1,1
	s0.449,1,1,1s1-0.449,1-1S8.051,4,7.5,4z"/>
<path style="fill:#333333;" d="M16.5,8c-1.654,0-3-1.346-3-3s1.346-3,3-3s3,1.346,3,3S18.154,8,16.5,8z M16.5,4
	c-0.552,0-1,0.449-1,1s0.448,1,1,1s1-0.449,1-1S17.052,4,16.5,4z"/>
<path style="fill:#333333;" d="M9.913,22H5.087L3.905,9h7.19L9.913,22z M6.913,20h1.174l0.818-9h-2.81L6.913,20z"/>
<path style="fill:#333333;" d="M18.913,22h-4.826l-0.5-5.5h-1.785L13.165,9h6.67l1.363,7.5h-1.785L18.913,22z M15.913,20h1.174
	l0.5-5.5h1.215L18.165,11h-3.33l-0.637,3.5h1.215L15.913,20z"/>
</svg>






