<?xml version="1.0" encoding="iso-8859-1"?>
<svg version="1.1" id="&#x56FE;&#x5C42;_1" xmlns="http://www.w3.org/2000/svg" xmlns:xlink="http://www.w3.org/1999/xlink" x="0px"
	 y="0px" viewBox="0 0 24 24" style="enable-background:new 0 0 24 24;" xml:space="preserve">
<path style="fill:#333333;" d="M18.5,23c-1.654,0-3-1.346-3-3s1.346-3,3-3s3,1.346,3,3S20.154,23,18.5,23z M18.5,19
	c-0.552,0-1,0.448-1,1s0.448,1,1,1s1-0.448,1-1S19.052,19,18.5,19z"/>
<path style="fill:#333333;" d="M5.5,7c-1.654,0-3-1.346-3-3s1.346-3,3-3s3,1.346,3,3S7.154,7,5.5,7z M5.5,3c-0.551,0-1,0.449-1,1
	s0.449,1,1,1s1-0.449,1-1S6.051,3,5.5,3z"/>
<path style="fill:#333333;" d="M5.5,23c-1.654,0-3-1.346-3-3s1.346-3,3-3s3,1.346,3,3S7.154,23,5.5,23z M5.5,19
	c-0.551,0-1,0.448-1,1s0.449,1,1,1s1-0.448,1-1S6.051,19,5.5,19z"/>
<rect x="4.5" y="6" style="fill:#333333;" width="2" height="12"/>
<path style="fill:#333333;" d="M19.5,18h-2V7c0-0.551-0.448-1-1-1H12V4h4.5c1.654,0,3,1.346,3,3V18z"/>
<polygon style="fill:#333333;" points="14.293,8.707 10.586,5 14.293,1.293 15.707,2.707 13.414,5 15.707,7.293 "/>
</svg>






