<?xml version="1.0" encoding="iso-8859-1"?>
<svg version="1.1" id="&#x56FE;&#x5C42;_1" xmlns="http://www.w3.org/2000/svg" xmlns:xlink="http://www.w3.org/1999/xlink" x="0px"
	 y="0px" viewBox="0 0 24 24" style="enable-background:new 0 0 24 24;" xml:space="preserve">
<path style="fill:#333333;" d="M15.5,21h-7C4.364,21,1,17.636,1,13.5S4.364,6,8.5,6h7c4.136,0,7.5,3.364,7.5,7.5S19.636,21,15.5,21z
	 M8.5,8C5.467,8,3,10.467,3,13.5C3,16.532,5.467,19,8.5,19h7c3.032,0,5.5-2.468,5.5-5.5c0-3.033-2.468-5.5-5.5-5.5H8.5z"/>
<path style="fill:#333333;" d="M12,21c-2.804,0-5-3.294-5-7.5C7,9.294,9.196,6,12,6s5,3.294,5,7.5C17,17.706,14.804,21,12,21z M12,8
	c-1.419,0-3,2.259-3,5.5s1.581,5.5,3,5.5s3-2.259,3-5.5S13.419,8,12,8z"/>
<path style="fill:#333333;" d="M13,7h-2V4.5C11,3.122,12.121,2,13.5,2H15v2h-1.5C13.225,4,13,4.224,13,4.5V7z"/>
</svg>






