<?xml version="1.0" encoding="iso-8859-1"?>
<svg version="1.1" id="&#x56FE;&#x5C42;_1" xmlns="http://www.w3.org/2000/svg" xmlns:xlink="http://www.w3.org/1999/xlink" x="0px"
	 y="0px" viewBox="0 0 24 24" style="enable-background:new 0 0 24 24;" xml:space="preserve">
<path style="fill:#333333;" d="M5.895,21.419l-0.79-1.838c2.188-0.94,4.289-1.455,6.244-1.529c1.924-0.072,4.41,0.253,7.387,0.977
	l-0.473,1.943c-2.797-0.679-5.095-0.989-6.838-0.922C9.717,20.115,7.856,20.576,5.895,21.419z"/>
<path style="fill:#333333;" d="M10.526,22.081c-0.391-4.812-0.22-8.628,0.508-11.34l1.932,0.519
	c-0.669,2.49-0.819,6.077-0.446,10.66L10.526,22.081z"/>
<path style="fill:#333333;" d="M16.146,14.076c-1.531,0-3.107-0.556-4.715-1.665l-0.578-0.399l0.18-0.679
	c0.887-3.358,2.531-5.406,4.888-6.088c2.273-0.657,4.49-0.354,6.592,0.899l0.485,0.29L23,6.998c0.012,2.834-1.238,4.94-3.715,6.262
	C18.265,13.805,17.217,14.076,16.146,14.076z M13.168,11.149c1.859,1.097,3.557,1.21,5.176,0.346
	c1.624-0.867,2.49-2.151,2.635-3.915c-1.463-0.732-2.942-0.866-4.502-0.416C14.97,7.602,13.883,8.908,13.168,11.149z"/>
<path style="fill:#333333;" d="M8.7,12.608c-1.921,0-3.6-0.619-5.016-1.855c-2.208-1.928-3.06-4.76-2.531-8.416l0.092-0.634
	l0.614-0.182C4.9,0.622,7.627,1,9.967,2.646c2.399,1.688,3.383,4.557,2.923,8.526l-0.074,0.64l-0.613,0.197
	C10.959,12.409,9.79,12.608,8.7,12.608z M3.053,3.274c-0.256,2.65,0.383,4.608,1.946,5.973c1.548,1.352,3.506,1.696,5.966,1.042
	c0.213-2.872-0.493-4.841-2.149-6.006C7.135,3.1,5.245,2.767,3.053,3.274z"/>
</svg>






