<?xml version="1.0" encoding="iso-8859-1"?>
<svg version="1.1" id="&#x56FE;&#x5C42;_1" xmlns="http://www.w3.org/2000/svg" xmlns:xlink="http://www.w3.org/1999/xlink" x="0px"
	 y="0px" viewBox="0 0 24 24" style="enable-background:new 0 0 24 24;" xml:space="preserve">
<path style="fill:#333333;" d="M12.97,22.242h-1.94L9.219,15H4v-1c0-2.113,2.274-3.982,3.145-4.621l1.693-5.501L7.4,2.8L8,1h8
	l0.6,1.8l-1.438,1.078l1.682,5.465C18.157,10.176,20,11.746,20,14v1h-5.219L12.97,22.242z M6.354,13h4.427L12,17.877L13.219,13h4.53
	c-0.512-1.024-1.676-1.799-2.253-2.136l-0.337-0.197l-2.321-7.545L13,3h-2l0.163,0.122l-2.311,7.511l-0.296,0.198
	C7.958,11.232,6.902,12.123,6.354,13z"/>
</svg>






