<?xml version="1.0" encoding="iso-8859-1"?>
<svg version="1.1" id="&#x56FE;&#x5C42;_1" xmlns="http://www.w3.org/2000/svg" xmlns:xlink="http://www.w3.org/1999/xlink" x="0px"
	 y="0px" viewBox="0 0 24 24" style="enable-background:new 0 0 24 24;" xml:space="preserve">
<path style="fill:#333333;" d="M18,23H1v-6h3c1.103,0,2-0.897,2-2s-0.897-2-2-2H1V5h4.5c0-2.206,1.794-4,4-4s4,1.794,4,4H18v6h1
	c2.206,0,4,1.794,4,4s-1.794,4-4,4h-1V23z M3,21h13v-4h3c1.103,0,2-0.897,2-2s-0.897-2-2-2h-3V7h-4.5V5c0-1.103-0.897-2-2-2
	s-2,0.897-2,2v2H3v4h1c2.206,0,4,1.794,4,4s-1.794,4-4,4H3V21z"/>
</svg>






