<?xml version="1.0" encoding="iso-8859-1"?>
<svg version="1.1" id="&#x56FE;&#x5C42;_1" xmlns="http://www.w3.org/2000/svg" xmlns:xlink="http://www.w3.org/1999/xlink" x="0px"
	 y="0px" viewBox="0 0 24 24" style="enable-background:new 0 0 24 24;" xml:space="preserve">
<path style="fill:#333333;" d="M18.118,22H0.882L8.605,6.553h1.789L18.118,22z M4.118,20h10.764L9.5,9.236L4.118,20z"/>
<rect x="4.941" y="15.75" transform="matrix(0.4678 -0.8838 0.8838 0.4678 -9.6153 17.5318)" style="fill:#333333;" width="9.618" height="2"/>
<polygon style="fill:#333333;" points="21.75,22 16.5,22 16.5,20 19.973,20 17.533,15.981 16.121,18.49 14.379,17.51 17.467,12.019 
	22.604,20.481 "/>
<path style="fill:#333333;" d="M13.238,14.167l-0.492-1.938c2.574-0.655,4.137-3.282,3.483-5.856
	c-0.317-1.247-1.101-2.296-2.207-2.954c-1.106-0.659-2.402-0.845-3.649-0.529C9.126,3.207,8.077,3.991,7.418,5.097
	C6.761,6.203,6.573,7.499,6.89,8.745c0.156,0.616,0.426,1.185,0.801,1.689l-1.604,1.193c-0.533-0.716-0.915-1.52-1.135-2.39
	C4.503,7.473,4.769,5.639,5.7,4.074C6.631,2.509,8.116,1.4,9.881,0.952c1.764-0.449,3.6-0.183,5.164,0.748
	c1.565,0.931,2.674,2.416,3.122,4.181C19.093,9.524,16.882,13.242,13.238,14.167z"/>
<rect x="5" y="20" style="fill:#333333;" width="5" height="2"/>
<rect x="11.5" y="10.205" transform="matrix(0.8944 -0.4472 0.4472 0.8944 -4.4941 6.9626)" style="fill:#333333;" width="2" height="5.59"/>
</svg>






