<?xml version="1.0" encoding="iso-8859-1"?>
<svg version="1.1" id="&#x56FE;&#x5C42;_1" xmlns="http://www.w3.org/2000/svg" xmlns:xlink="http://www.w3.org/1999/xlink" x="0px"
	 y="0px" viewBox="0 0 24 24" style="enable-background:new 0 0 24 24;" xml:space="preserve">
<path style="fill:#333333;" d="M0.693,13.64c0.981,4.7,5.562,7.736,10.28,6.849l-0.003,0.003c5.496-0.898,8.07-4.219,10.162-5.881
	c1.112-0.884,1.695-1.4,2.265-1.698c0,0,0,0,0,0c-0.373,0.063-0.613-0.051-0.935-0.164c-0.356-0.125-0.812-0.251-1.657-0.139
	c-1.612,0.214-3.022,1.825-3.022,1.825l-0.86,0.764c-1.03,0.798-2.254,1.379-3.617,1.662c-1.567,0.324-3.123,0.213-4.541-0.25
	c-0.575-0.188-1.127-0.434-1.648-0.732c-2.113-1.208-3.718-3.275-4.253-5.836c-0.315-1.51-0.221-3.01,0.208-4.385
	C1.057,7.682,0.067,10.642,0.693,13.64z"/>
<path style="fill-rule:evenodd;clip-rule:evenodd;fill:#333333;" d="M10.973,20.49l-0.003,0.003
	c5.496-0.898,8.07-4.219,10.162-5.881c1.112-0.884,1.695-1.4,2.265-1.698c-0.373,0.063-0.613-0.051-0.935-0.164
	c-0.356-0.125-0.812-0.251-1.657-0.139c-1.612,0.214-3.022,1.825-3.022,1.825l-0.86,0.764c-1.03,0.798-2.254,1.379-3.617,1.662
	c-1.567,0.324-3.123,0.213-4.541-0.25c-0.575-0.188-1.127-0.434-1.648-0.732c-2.113-1.208-3.718-3.275-4.253-5.836
	c-0.315-1.51-0.221-3.01,0.208-4.385c-2.014,2.024-3.004,4.984-2.378,7.982C1.675,18.34,6.256,21.376,10.973,20.49z"/>
<path style="fill-rule:evenodd;clip-rule:evenodd;fill:#333333;" d="M17.875,14.293c-1.337,4.673-6.226,7.382-10.92,6.051
	c-4.093-1.16-6.686-5.01-6.396-9.075c0.34,3.222,2.598,6.069,5.919,7.01c4.361,1.237,8.904-1.28,10.147-5.622
	c0.359-1.255,0.403-2.526,0.179-3.727c-0.275-1.471-0.951-2.838-1.943-3.95c1.284,1.012,2.252,2.356,2.811,3.865
	C18.296,10.535,18.408,12.429,17.875,14.293z"/>
<path style="fill:#333333;" d="M13.729,16.234l0.264,0.459l0.428-0.176l0.395-0.176c0.796-0.397,0.759-0.337,1.717-0.972
	c0.958-0.634,1.464-1.02,2.2-1.907l-0.41-0.325c-0.484,0.611-1.019,1.069-1.935,1.676C15.812,15.195,14.925,15.67,13.729,16.234z"/>
<path style="fill-rule:evenodd;clip-rule:evenodd;fill:#333333;" d="M9.348,3.059c1.175,0,2.315,0.235,3.364,0.667
	C8.376,4.95,5.637,9.264,6.436,13.721c0.001,0.002,0.001,0.005,0.001,0.007c0.012,0.067,0.025,0.135,0.039,0.202
	c0.001,0.005,0.002,0.009,0.003,0.014c0.002,0.009,0.003,0.019,0.005,0.028c0.012,0.057,0.025,0.115,0.038,0.171
	c0.003,0.011,0.005,0.022,0.008,0.033c0.005,0.024,0.011,0.047,0.018,0.072c0.089,0.364,0.2,0.719,0.333,1.063
	c-1.475-1.05-2.439-2.333-3.06-3.67c-0.825-1.777-0.945-3.824-0.304-6.4c1.109-0.97,2.477-1.676,4.025-1.997
	c0.122-0.025,0.244-0.047,0.366-0.067C8.391,3.097,8.872,3.059,9.348,3.059z M2.693,8.708L2.7,8.884
	C2.66,8.34,2.672,7.802,2.731,7.275C2.69,7.767,2.677,8.245,2.693,8.708z"/>
</svg>






