<?xml version="1.0" encoding="iso-8859-1"?>
<svg version="1.1" id="&#x56FE;&#x5C42;_1" xmlns="http://www.w3.org/2000/svg" xmlns:xlink="http://www.w3.org/1999/xlink" x="0px"
	 y="0px" viewBox="0 0 24 24" style="enable-background:new 0 0 24 24;" xml:space="preserve">
<path style="fill:#333333;" d="M5.5,15h-2V7.813c0-1.061,0.542-2.021,1.45-2.569c0.907-0.546,2.01-0.58,2.948-0.086l6.568,3.457
	l-0.932,1.77L6.966,6.928C6.515,6.69,6.129,6.869,5.983,6.957C5.838,7.044,5.5,7.303,5.5,7.813V15z"/>
<polygon style="fill:#333333;" points="5.114,15.789 3.886,14.211 8,11.011 8,7 10,7 10,11.989 "/>
<polygon style="fill:#333333;" points="14.6,10.3 13.4,8.7 16.105,6.671 10.117,3.676 6.114,6.79 4.886,5.21 9.883,1.324 
	19.895,6.329 "/>
<path style="fill:#333333;" d="M17.502,19.19c-0.479,0-0.957-0.115-1.399-0.349l-6.568-3.457l0.932-1.77l6.568,3.457
	c0.451,0.236,0.837,0.06,0.982-0.029c0.146-0.087,0.483-0.346,0.483-0.855V9h2v7.188c0,1.061-0.542,2.021-1.449,2.568
	C18.571,19.045,18.037,19.19,17.502,19.19z"/>
<polygon style="fill:#333333;" points="16,17 14,17 14,12.011 18.886,8.21 20.114,9.79 16,12.989 "/>
<polygon style="fill:#333333;" points="14.116,22.677 4.105,17.671 9.4,13.7 10.6,15.3 7.895,17.329 13.884,20.323 17.886,17.211 
	19.114,18.789 "/>
</svg>






