<?xml version="1.0" encoding="iso-8859-1"?>
<svg version="1.1" id="&#x56FE;&#x5C42;_1" xmlns="http://www.w3.org/2000/svg" xmlns:xlink="http://www.w3.org/1999/xlink" x="0px"
	 y="0px" viewBox="0 0 24 24" style="enable-background:new 0 0 24 24;" xml:space="preserve">
<path style="fill:#333333;" d="M19.706,21H3.5C2.122,21,1,19.879,1,18.5v-13C1,4.122,2.122,3,3.5,3h10.519
	c0.993,0,1.893,0.588,2.291,1.498l5.688,13c0.34,0.775,0.266,1.661-0.198,2.37S20.553,21,19.706,21z M3.5,5C3.224,5,3,5.224,3,5.5
	v13C3,18.775,3.224,19,3.5,19h16.206c0.235,0,0.363-0.142,0.419-0.227s0.134-0.259,0.04-0.475L14.478,5.3
	c-0.08-0.182-0.26-0.3-0.459-0.3H3.5z"/>
</svg>






