<?xml version="1.0" encoding="iso-8859-1"?>
<svg version="1.1" id="&#x56FE;&#x5C42;_1" xmlns="http://www.w3.org/2000/svg" xmlns:xlink="http://www.w3.org/1999/xlink" x="0px"
	 y="0px" viewBox="0 0 24 24" style="enable-background:new 0 0 24 24;" xml:space="preserve">
<path style="fill:#333333;" d="M12,23c-5.238,0-9.5-3.141-9.5-7S6.762,9,12,9s9.5,3.141,9.5,7S17.238,23,12,23z M12,11
	c-4.136,0-7.5,2.243-7.5,5s3.364,5,7.5,5s7.5-2.243,7.5-5S16.136,11,12,11z"/>
<circle style="fill:#333333;" cx="9" cy="14.706" r="1"/>
<circle style="fill:#333333;" cx="12" cy="17.706" r="1"/>
<circle style="fill:#333333;" cx="15" cy="14.706" r="1"/>
<path style="fill:#333333;" d="M5.41,11.383C4.681,9.627,3.498,5.553,4.239,2.705l0.032-0.1c0.236-0.628,0.746-1.158,1.363-1.417
	C6.102,0.992,6.87,0.851,7.867,1.292c0.428,0.189,1.037,0.7,1.359,1.52c0.533,1.186,0.185,4.883-0.21,7.821l-1.852-0.249
	c0.031,0.08,0.062,0.158,0.094,0.232L5.41,11.383z M6.157,3.276c-0.482,1.982,0.221,4.993,0.908,6.85
	c0.35-2.689,0.57-5.864,0.35-6.47L7.37,3.559C7.251,3.241,7.037,3.112,7.035,3.11C6.866,3.036,6.599,2.954,6.406,3.033
	C6.276,3.087,6.192,3.208,6.157,3.276z"/>
<path style="fill:#333333;" d="M18.617,11.384l-1.848-0.768c0.701-1.687,1.602-5.149,1.07-7.339c-0.035-0.068-0.12-0.189-0.25-0.244
	c-0.189-0.08-0.459,0.002-0.649,0.088c0,0,0,0,0,0c0.004,0-0.2,0.131-0.314,0.437l-0.065,0.141c-0.204,0.564,0.052,3.649,0.43,6.152
	l-1.977,0.299c-0.338-2.23-0.808-6.092-0.243-7.339c0.32-0.818,0.93-1.329,1.358-1.519c0.997-0.44,1.765-0.3,2.233-0.104
	c0.617,0.258,1.127,0.788,1.363,1.416l0.032,0.101C20.509,5.593,19.34,9.645,18.617,11.384z"/>
</svg>






