<?xml version="1.0" encoding="iso-8859-1"?>
<svg version="1.1" id="&#x56FE;&#x5C42;_1" xmlns="http://www.w3.org/2000/svg" xmlns:xlink="http://www.w3.org/1999/xlink" x="0px"
	 y="0px" viewBox="0 0 24 24" style="enable-background:new 0 0 24 24;" xml:space="preserve">
<rect x="11" y="2" style="fill:#333333;" width="2" height="8.5"/>
<path style="fill:#333333;" d="M12,23C5.935,23,1,18.065,1,12S5.935,1,12,1v2c-4.962,0-9,4.038-9,9c0,4.963,4.038,9,9,9
	c4.963,0,9-4.037,9-9c0-2.021-0.654-3.931-1.893-5.522l1.578-1.229C22.199,7.195,23,9.529,23,12C23,18.065,18.065,23,12,23z"/>
<path style="fill:#333333;" d="M12,18.5c-3.584,0-6.5-2.916-6.5-6.5S8.416,5.5,12,5.5v2c-2.481,0-4.5,2.019-4.5,4.5
	s2.019,4.5,4.5,4.5s4.5-2.019,4.5-4.5c0-1.011-0.327-1.966-0.946-2.761l1.578-1.229C18.027,9.16,18.5,10.54,18.5,12
	C18.5,15.584,15.584,18.5,12,18.5z"/>
<path style="fill:#333333;" d="M12,14.5c-1.378,0-2.5-1.121-2.5-2.5c0-1.378,1.122-2.5,2.5-2.5c1.379,0,2.5,1.122,2.5,2.5
	C14.5,13.379,13.379,14.5,12,14.5z M12,11.5c-0.276,0-0.5,0.224-0.5,0.5c0,0.275,0.224,0.5,0.5,0.5c0.275,0,0.5-0.225,0.5-0.5
	C12.5,11.724,12.275,11.5,12,11.5z"/>
</svg>






