<?xml version="1.0" encoding="iso-8859-1"?>
<svg version="1.1" id="&#x56FE;&#x5C42;_1" xmlns="http://www.w3.org/2000/svg" xmlns:xlink="http://www.w3.org/1999/xlink" x="0px"
	 y="0px" viewBox="0 0 24 24" style="enable-background:new 0 0 24 24;" xml:space="preserve">
<path style="fill:#333333;" d="M20.5,22h-17c-1.103,0-2-0.897-2-2V8c0-1.103,0.897-2,2-2h17c1.103,0,2,0.897,2,2v12
	C22.5,21.103,21.603,22,20.5,22z M3.5,8H3.499L3.5,20h17V8H3.5z"/>
<rect x="16" y="10" style="fill:#333333;" width="2" height="2"/>
<rect x="16" y="13" style="fill:#333333;" width="2" height="2"/>
<rect x="16" y="16" style="fill:#333333;" width="2" height="2"/>
<path style="fill:#333333;" d="M9,18.5c-2.481,0-4.5-2.019-4.5-4.5S6.519,9.5,9,9.5s4.5,2.019,4.5,4.5S11.481,18.5,9,18.5z M9,11.5
	c-1.378,0-2.5,1.121-2.5,2.5s1.122,2.5,2.5,2.5s2.5-1.121,2.5-2.5S10.378,11.5,9,11.5z"/>
<polygon style="fill:#333333;" points="20,7 18,7 18,4 6,4 6,7 4,7 4,2 20,2 "/>
</svg>






