<?xml version="1.0" encoding="iso-8859-1"?>
<svg version="1.1" id="&#x56FE;&#x5C42;_1" xmlns="http://www.w3.org/2000/svg" xmlns:xlink="http://www.w3.org/1999/xlink" x="0px"
	 y="0px" viewBox="0 0 24 24" style="enable-background:new 0 0 24 24;" xml:space="preserve">
<path style="fill:#333333;" d="M17,23H7c-1.103,0-2-0.896-2-1.999V10.844C5,6.942,8.009,4,12,4c3.99,0,7,2.942,7,6.844v10.157
	C19,22.104,18.103,23,17,23z M12,6c-2.851,0-5,2.083-5,4.844v10.157L17,21V10.844C17,8.083,14.851,6,12,6z"/>
<path style="fill:#333333;" d="M12,14.5c-1.654,0-3-1.346-3-3s1.346-3,3-3s3,1.346,3,3S13.654,14.5,12,14.5z M12,10.5
	c-0.551,0-1,0.449-1,1c0,0.552,0.449,1,1,1c0.552,0,1-0.448,1-1C13,10.949,12.552,10.5,12,10.5z"/>
<rect x="9" y="16" style="fill:#333333;" width="1" height="2"/>
<rect x="13" y="18" style="fill:#333333;" width="2" height="2"/>
<rect x="5" y="2" style="fill:#333333;" width="2" height="8"/>
</svg>






