<?xml version="1.0" encoding="iso-8859-1"?>
<svg version="1.1" id="&#x56FE;&#x5C42;_1" xmlns="http://www.w3.org/2000/svg" xmlns:xlink="http://www.w3.org/1999/xlink" x="0px"
	 y="0px" viewBox="0 0 24 24" style="enable-background:new 0 0 24 24;" xml:space="preserve">
<path style="fill:#333333;" d="M12.002,13.5c0.828,0,1.5-0.672,1.5-1.5s-0.672-1.5-1.5-1.5c-0.828,0-1.5,0.672-1.5,1.5
	S11.174,13.5,12.002,13.5z"/>
<path style="fill:#333333;" d="M12,23c-2.167,0-4.263-0.631-6.063-1.825l-0.831-0.551l4.13-6.273l0.836,0.555
	c1.143,0.758,2.711,0.758,3.854,0l0.836-0.555l4.132,6.273l-0.831,0.551C16.264,22.369,14.167,23,12,23z M7.903,20.013
	c2.524,1.297,5.67,1.297,8.194,0l-1.951-2.964c-1.348,0.574-2.942,0.574-4.291,0L7.903,20.013z M22.922,13.631l-7.482-0.45
	l0.055-0.993c0.004-0.071,0.006-0.144,0.006-0.216c0-1.339-0.742-2.543-1.937-3.144l-0.891-0.447l3.353-6.725l0.896,0.45
	C20.671,3.99,23,7.77,23,11.972c0,0.222-0.007,0.441-0.02,0.659L22.922,13.631z M17.46,11.298l3.528,0.212
	c-0.145-2.919-1.665-5.545-4.093-7.118l-1.583,3.175C16.505,8.466,17.279,9.805,17.46,11.298z M1.079,13.631l-0.059-1
	C1.006,12.413,1,12.193,1,11.972C1,7.77,3.329,3.99,7.078,2.106l0.896-0.45l3.353,6.725l-0.891,0.447
	C9.242,9.428,8.5,10.632,8.5,11.972c0,0.07,0.002,0.141,0.006,0.211l0.06,0.998L1.079,13.631z M7.104,4.393
	c-2.427,1.573-3.947,4.199-4.093,7.118l3.529-0.212c0.18-1.494,0.955-2.833,2.147-3.73L7.104,4.393z"/>
</svg>






