<?xml version="1.0" encoding="iso-8859-1"?>
<svg version="1.1" id="&#x56FE;&#x5C42;_1" xmlns="http://www.w3.org/2000/svg" xmlns:xlink="http://www.w3.org/1999/xlink" x="0px"
	 y="0px" viewBox="0 0 24 24" style="enable-background:new 0 0 24 24;" xml:space="preserve">
<path style="fill:#333333;" d="M19,12v-2c0.603,0,1.5-0.133,1.5-0.5c0-0.335,0-0.714-1.246-1.031l0.492-1.938
	C20.428,6.704,22.5,7.23,22.5,9.5C22.5,10.708,21.58,12,19,12z"/>
<path style="fill:#333333;" d="M14,5h-2c0-2.028,1.262-3.5,3-3.5c1.476,0,2.324,0.617,2.929,2.129l-1.857,0.742
	C15.724,3.5,15.526,3.5,15,3.5C14.411,3.5,14,4.117,14,5z"/>
<path style="fill:#333333;" d="M18.405,9.414l-0.812-1.828l0,0c0,0,0.504-0.242,1.136-0.874c0.402-0.403,0.402-1.058,0-1.46
	c-0.308-0.308-1.044-0.251-1.613,0.126c-0.214,0.142-0.553,0.695-0.702,1.029l-1.826-0.814c0.099-0.223,0.634-1.357,1.421-1.881
	c1.397-0.929,3.137-0.874,4.135,0.126c1.183,1.182,1.183,3.106,0,4.289C19.241,9.028,18.488,9.377,18.405,9.414z"/>
<path style="fill:#333333;" d="M10.901,22.5c-1.239,0-2.445-0.253-3.592-0.752c-4.167,0.81-4.738,0.238-5.016-0.041
	c-0.278-0.278-0.85-0.851-0.043-5.031c-1.5-3.434-0.685-7.655,2.043-10.383c1.725-1.725,4.025-2.637,6.651-2.637
	c2.521,0,4.743,0.98,6.604,2.913c1.854,1.926,2.756,4.069,2.756,6.549c0,2.613-0.898,4.892-2.597,6.589
	C15.909,21.459,13.368,22.5,10.901,22.5z M7.561,19.657l0.302,0.145C8.83,20.266,9.852,20.5,10.901,20.5
	c1.929,0,3.998-0.85,5.4-2.216c1.325-1.325,2.002-3.065,2.002-5.166c0-1.965-0.698-3.605-2.197-5.163
	c-1.489-1.547-3.178-2.299-5.162-2.299c-2.084,0-3.895,0.709-5.237,2.051c-2.218,2.218-2.84,5.676-1.514,8.408l0.147,0.303
	l-0.066,0.331c-0.264,1.314-0.441,2.724-0.442,3.419c0.692-0.002,2.093-0.18,3.4-0.444L7.561,19.657z"/>
<path style="fill:#333333;" d="M5.105,15.947c-0.639-1.281-2.342-0.979-2.416-0.966L2.304,13.02
	c1.123-0.227,3.529-0.089,4.591,2.033L5.105,15.947z"/>
<path style="fill:#333333;" d="M9.97,21.242l-1.94-0.484L9,21l-0.971-0.239c0.116-0.478,0.21-1.607-0.236-2.054l1.414-1.414
	C10.568,18.654,10.035,20.981,9.97,21.242z"/>
<path style="fill:#333333;" d="M10.901,22.5c-1.353,0-2.667-0.301-3.903-0.895l0.865-1.803C8.828,20.266,9.85,20.5,10.901,20.5V22.5
	z"/>
<path style="fill:#333333;" d="M2.395,16.988C0.702,13.502,1.482,9.104,4.293,6.293l1.414,1.414
	c-2.218,2.218-2.84,5.676-1.514,8.408L2.395,16.988z"/>
</svg>






