<?xml version="1.0" encoding="iso-8859-1"?>
<svg version="1.1" id="&#x56FE;&#x5C42;_1" xmlns="http://www.w3.org/2000/svg" xmlns:xlink="http://www.w3.org/1999/xlink" x="0px"
	 y="0px" viewBox="0 0 24 24" style="enable-background:new 0 0 24 24;" xml:space="preserve">
<g>
	<defs>
		<rect id="SVGID_1_" width="24" height="24"/>
	</defs>
	<clipPath id="SVGID_00000073684016774076107680000006298182088576413884_">
		<use xlink:href="#SVGID_1_"  style="overflow:visible;"/>
	</clipPath>
	<g style="clip-path:url(#SVGID_00000073684016774076107680000006298182088576413884_);">
		<path style="fill:#333333;" d="M14.726,14.991c-1.475,0-2.957-0.497-4.172-1.517C7.808,11.17,7.449,7.062,9.752,4.316
			c1.116-1.33,2.683-2.146,4.413-2.297c1.725-0.147,3.415,0.38,4.744,1.496l0,0c2.746,2.304,3.105,6.412,0.802,9.157
			C18.428,14.202,16.582,14.991,14.726,14.991z M14.739,3.994c-0.133,0-0.266,0.006-0.399,0.018
			c-1.198,0.104-2.283,0.669-3.055,1.59c-1.595,1.901-1.347,4.746,0.554,6.34c1.902,1.593,4.744,1.346,6.341-0.556
			c1.594-1.9,1.345-4.744-0.556-6.339l0,0C16.806,4.361,15.795,3.994,14.739,3.994z"/>
		<path style="fill:#333333;" d="M19.016,12.654c-0.903,0-3.454-0.2-5.891-2.245c-2.964-2.488-3.27-5.614-3.281-5.746l1.992-0.175
			c0.009,0.094,0.269,2.454,2.574,4.389c2.306,1.936,4.672,1.777,4.775,1.772l0.168,1.993C19.33,12.645,19.212,12.654,19.016,12.654
			z"/>
		<path style="fill:#333333;" d="M6.412,22.019c-0.783,0-1.58-0.291-2.286-0.885c-1.579-1.324-1.756-3.353-0.432-4.931
			c0.623-0.742,1.403-1.177,2.092-1.56c0.504-0.281,0.98-0.546,1.245-0.861c0.758-0.904,1.413-1.684,1.577-3.174l1.988,0.22
			c-0.231,2.092-1.188,3.233-2.033,4.239c-0.502,0.6-1.165,0.968-1.805,1.324c-0.59,0.328-1.147,0.639-1.533,1.098
			c-0.613,0.73-0.545,1.501,0.185,2.114c0.729,0.612,1.5,0.544,2.113-0.186c0.386-0.46,0.595-1.062,0.815-1.7
			c0.24-0.692,0.488-1.408,0.99-2.007c0.845-1.007,1.802-2.147,3.823-2.738l0.561,1.92c-1.438,0.421-2.093,1.2-2.851,2.104
			c-0.266,0.316-0.444,0.831-0.632,1.376c-0.258,0.745-0.551,1.59-1.174,2.331C8.325,21.574,7.379,22.019,6.412,22.019z"/>
		<path style="fill:#333333;" d="M20.183,5.888l-1.533-1.285c0.178-0.211,0.149-0.528-0.062-0.705
			c-0.21-0.177-0.526-0.15-0.703,0.062l-1.533-1.285c0.43-0.512,1.032-0.826,1.697-0.884c0.662-0.057,1.313,0.146,1.825,0.575
			C20.93,3.252,21.067,4.832,20.183,5.888z"/>
	</g>
</g>
</svg>






