<?xml version="1.0" encoding="iso-8859-1"?>
<svg version="1.1" id="&#x56FE;&#x5C42;_1" xmlns="http://www.w3.org/2000/svg" xmlns:xlink="http://www.w3.org/1999/xlink" x="0px"
	 y="0px" viewBox="0 0 24 24" style="enable-background:new 0 0 24 24;" xml:space="preserve">
<g>
	<defs>
		<rect id="SVGID_1_" width="24" height="24"/>
	</defs>
	<clipPath id="SVGID_00000057106088533407886880000008686604615007744406_">
		<use xlink:href="#SVGID_1_"  style="overflow:visible;"/>
	</clipPath>
	<g style="clip-path:url(#SVGID_00000057106088533407886880000008686604615007744406_);">
		<path style="fill:#333333;" d="M15.032,14.277c-1.475,0.001-2.957-0.497-4.173-1.517c-2.746-2.305-3.105-6.413-0.801-9.158
			c1.116-1.33,2.683-2.146,4.413-2.297c1.725-0.148,3.414,0.379,4.744,1.496l0,0c2.746,2.304,3.105,6.412,0.803,9.157
			C18.733,13.489,16.889,14.277,15.032,14.277z M15.045,3.281c-0.133,0-0.266,0.006-0.399,0.018
			c-1.198,0.104-2.283,0.669-3.055,1.59c-1.595,1.901-1.346,4.745,0.554,6.34c1.9,1.594,4.744,1.347,6.341-0.555
			c1.594-1.9,1.345-4.745-0.556-6.339l0,0C17.111,3.647,16.101,3.281,15.045,3.281z"/>
		<path style="fill:#333333;" d="M6.584,8.521L5.052,7.234c0.186-0.222,0.177-0.533,0.113-1.192C5.089,5.267,4.985,4.204,5.77,3.268
			c1.121-1.335,2.344-0.822,3.155-0.482c0.549,0.23,1.144,0.477,1.889,0.46l0.021,2C9.646,5.239,8.784,4.895,8.151,4.63
			C7.92,4.533,7.582,4.399,7.465,4.395c0.001,0.002-0.057,0.033-0.163,0.159C7.081,4.818,7.087,5.151,7.156,5.848
			C7.229,6.601,7.331,7.631,6.584,8.521z"/>
		<path style="fill:#333333;" d="M6.075,22.071c-0.783,0-1.58-0.291-2.287-0.884c-1.578-1.325-1.755-3.354-0.432-4.932
			c0.623-0.742,1.404-1.178,2.093-1.561c0.504-0.28,0.979-0.546,1.245-0.861c0.256-0.305,0.61-0.715,0.985-1.147
			c0.658-0.76,1.652-1.909,1.824-2.185l1.698,1.056c-0.236,0.381-0.949,1.213-2.01,2.438C8.825,14.42,8.478,14.82,8.227,15.12
			c-0.502,0.598-1.164,0.967-1.804,1.322c-0.59,0.329-1.148,0.639-1.534,1.099c-0.612,0.73-0.545,1.501,0.185,2.114
			c0.729,0.611,1.5,0.545,2.113-0.186c0.385-0.459,0.594-1.062,0.815-1.7c0.24-0.692,0.488-1.408,0.99-2.007l2.893-3.447
			l1.532,1.285l-2.892,3.447c-0.265,0.316-0.443,0.831-0.632,1.377c-0.258,0.744-0.551,1.589-1.173,2.33
			C7.988,21.627,7.042,22.071,6.075,22.071z"/>
		<path style="fill:#333333;" d="M5.618,12.168c-0.567,0-1.137-0.191-1.604-0.583c-1.056-0.886-1.194-2.466-0.309-3.522
			c0.429-0.512,1.032-0.826,1.697-0.884c0.671-0.061,1.314,0.146,1.825,0.576C7.738,8.184,8.052,8.787,8.11,9.452
			c0.059,0.665-0.146,1.313-0.575,1.825C7.042,11.865,6.332,12.168,5.618,12.168z M5.62,9.169c-0.016,0-0.03,0.001-0.043,0.002
			C5.5,9.178,5.353,9.21,5.237,9.349C5.06,9.56,5.087,9.875,5.299,10.053c0.211,0.179,0.528,0.15,0.704-0.062
			c0.116-0.138,0.122-0.288,0.115-0.365C6.111,9.549,6.08,9.402,5.941,9.287v0C5.826,9.189,5.702,9.169,5.62,9.169z"/>
		<path style="fill:#333333;" d="M14.229,21.353c-0.566,0-1.137-0.191-1.604-0.583c-1.056-0.889-1.193-2.469-0.308-3.523
			c0.884-1.053,2.464-1.194,3.521-0.309l0.001,0.001c1.056,0.887,1.193,2.467,0.307,3.522
			C15.652,21.049,14.942,21.353,14.229,21.353z M14.231,18.354c-0.017,0-0.031,0.001-0.044,0.002
			c-0.077,0.007-0.224,0.039-0.339,0.177c-0.178,0.211-0.149,0.527,0.062,0.705c0.209,0.176,0.525,0.149,0.703-0.062
			c0.117-0.139,0.123-0.288,0.116-0.365c-0.012-0.133-0.074-0.253-0.177-0.339C14.438,18.374,14.313,18.354,14.231,18.354z"/>
		<path style="fill:#333333;" d="M18.204,18.252c-0.386,0-0.769-0.06-1.114-0.114c-0.313-0.049-0.842-0.132-0.985-0.068
			l-1.838-0.732c0.621-1.571,2.257-1.312,3.134-1.175c0.308,0.049,0.877,0.137,1.023,0.064c0.188-0.325-0.243-1.856-0.45-2.593
			c-0.136-0.486-0.266-0.951-0.347-1.354l1.961-0.394c0.072,0.36,0.189,0.774,0.312,1.208c0.485,1.727,1.035,3.685-0.235,4.701
			C19.221,18.149,18.71,18.252,18.204,18.252z"/>
	</g>
</g>
</svg>






