<?xml version="1.0" encoding="iso-8859-1"?>
<svg version="1.1" id="&#x56FE;&#x5C42;_1" xmlns="http://www.w3.org/2000/svg" xmlns:xlink="http://www.w3.org/1999/xlink" x="0px"
	 y="0px" viewBox="0 0 24 24" style="enable-background:new 0 0 24 24;" xml:space="preserve">
<path style="fill:#333333;" d="M11.228,22.636C9.882,21,4.882,21,3,21H2V8h1c5.068,0,8.336,1.016,9.469,1.617L13,9.898V22
	L11.228,22.636z M4,19.007c2.65,0.037,5.192,0.252,7,1.067v-8.921c-1.105-0.416-3.485-1.037-7-1.139V19.007z"/>
<path style="fill:#333333;" d="M12.772,22.636L11,22V9.898l0.531-0.282C12.663,9.016,15.931,8,21,8h1v13h-1
	C19.118,21,14.118,21,12.772,22.636z M13,11.153v8.921c1.808-0.815,4.35-1.03,7-1.067v-8.993C16.484,10.116,14.104,10.737,13,11.153
	z"/>
<path style="fill:#333333;" d="M12,11c-2.757,0-5-2.243-5-5s2.243-5,5-5s5,2.243,5,5S14.757,11,12,11z M12,3c-1.654,0-3,1.346-3,3
	s1.346,3,3,3s3-1.346,3-3S13.654,3,12,3z"/>
</svg>






