<?xml version="1.0" encoding="iso-8859-1"?>
<svg version="1.1" id="&#x56FE;&#x5C42;_1" xmlns="http://www.w3.org/2000/svg" xmlns:xlink="http://www.w3.org/1999/xlink" x="0px"
	 y="0px" viewBox="0 0 24 24" style="enable-background:new 0 0 24 24;" xml:space="preserve">
<polygon style="fill:#333333;" points="22,16 2,16 2,2.5 4,2.5 4,14 20,14 20,2.5 22,2.5 "/>
<polygon style="fill:#333333;" points="12,22.914 8.293,19.207 9.707,17.793 12,20.086 14.293,17.793 15.707,19.207 "/>
<rect x="11" y="15" style="fill:#333333;" width="2" height="6.5"/>
<path style="fill:#333333;" d="M12,11.5c-2.33,0-4.44-1.132-6.273-3.366L5.206,7.5l0.521-0.634C7.56,4.632,9.67,3.5,12,3.5
	c2.329,0,4.439,1.132,6.273,3.366L18.794,7.5l-0.521,0.634C16.439,10.368,14.329,11.5,12,11.5z M7.835,7.5
	c1.291,1.344,2.66,2,4.165,2c1.506,0,2.874-0.656,4.165-2c-1.291-1.344-2.659-2-4.165-2C10.495,5.5,9.126,6.156,7.835,7.5z"/>
<path style="fill:#333333;" d="M12,9c0.828,0,1.5-0.672,1.5-1.5S12.828,6,12,6s-1.5,0.672-1.5,1.5S11.172,9,12,9z"/>
</svg>






