<?xml version="1.0" encoding="iso-8859-1"?>
<svg version="1.1" id="&#x56FE;&#x5C42;_1" xmlns="http://www.w3.org/2000/svg" xmlns:xlink="http://www.w3.org/1999/xlink" x="0px"
	 y="0px" viewBox="0 0 24 24" style="enable-background:new 0 0 24 24;" xml:space="preserve">
<path style="fill:#333333;" d="M18.212,22H5.789c-0.928,0-1.728-0.631-1.945-1.533l-2.52-10.5c-0.144-0.6-0.008-1.221,0.374-1.705
	S2.652,7.5,3.269,7.5h17.463c0.616,0,1.188,0.277,1.57,0.761s0.519,1.105,0.375,1.705l-2.521,10.501
	C19.94,21.369,19.141,22,18.212,22z M3.268,9.5L5.788,20h12.424l2.52-10.5H3.268z"/>
<path style="fill:#333333;" d="M10.5,9.5h-6v-7h6V9.5z M6.5,7.5h2v-3h-2V7.5z"/>
<polygon style="fill:#333333;" points="18.416,9.312 12.976,5.395 10.311,9.085 8.689,7.915 12.524,2.605 19.584,7.688 "/>
<rect x="7.5" y="11.5" style="fill:#333333;" width="4" height="2"/>
</svg>






