<?xml version="1.0" encoding="iso-8859-1"?>
<svg version="1.1" id="&#x56FE;&#x5C42;_1" xmlns="http://www.w3.org/2000/svg" xmlns:xlink="http://www.w3.org/1999/xlink" x="0px"
	 y="0px" viewBox="0 0 24 24" style="enable-background:new 0 0 24 24;" xml:space="preserve">
<path style="fill:#333333;" d="M12,22.995c-2.817,0-5.634-1.072-7.778-3.217l0,0c-4.289-4.289-4.289-11.268,0-15.557l0.707-0.707
	l15.557,15.557l-0.707,0.707C17.634,21.923,14.817,22.995,12,22.995z M5.636,18.364c3.271,3.271,8.451,3.494,11.982,0.668
	L4.968,6.382C2.144,9.912,2.367,15.094,5.636,18.364L5.636,18.364z"/>
<rect x="12.615" y="10.453" transform="matrix(0.2333 -0.9724 0.9724 0.2333 2.8674 26.5438)" style="fill:#333333;" width="11.305" height="2"/>
<rect x="10.636" y="7.707" transform="matrix(0.7071 -0.7071 0.7071 0.7071 -1.6776 13.364)" style="fill:#333333;" width="9.314" height="2"/>
<rect x="6.895" y="4.732" transform="matrix(0.9725 -0.2329 0.2329 0.9725 -0.99 3.0794)" style="fill:#333333;" width="11.304" height="2"/>
<path style="fill:#333333;" d="M20,7c-0.21,0-0.42-0.022-0.622-0.064c-0.569-0.121-1.088-0.402-1.5-0.815
	c-0.411-0.411-0.692-0.929-0.813-1.498C17.021,4.419,17,4.21,17,4c0-1.654,1.346-3,3-3s3,1.346,3,3S21.654,7,20,7z M20,3
	c-0.552,0-1,0.449-1,1c0,0.071,0.007,0.141,0.021,0.208c0.04,0.188,0.134,0.361,0.271,0.499c0.138,0.138,0.311,0.232,0.499,0.271
	C20.372,5.104,21,4.623,21,4C21,3.449,20.552,3,20,3z"/>
</svg>






