<?xml version="1.0" encoding="iso-8859-1"?>
<svg version="1.1" id="&#x56FE;&#x5C42;_1" xmlns="http://www.w3.org/2000/svg" xmlns:xlink="http://www.w3.org/1999/xlink" x="0px"
	 y="0px" viewBox="0 0 24 24" style="enable-background:new 0 0 24 24;" xml:space="preserve">
<path style="fill:#333333;" d="M20.5,22h-17c-1.103,0-2-0.897-2-2V10c0-1.103,0.897-2,2-2h17c1.103,0,2,0.897,2,2v10
	C22.5,21.103,21.603,22,20.5,22z M3.5,10H3.499L3.5,20h17V10H3.5z"/>
<rect x="4" y="5" style="fill:#333333;" width="16" height="2"/>
<rect x="7.5" y="2" style="fill:#333333;" width="9" height="2"/>
<rect x="12" y="12" style="fill:#333333;" width="2" height="3"/>
<path style="fill:#333333;" d="M11.56,19h-1.12C9.095,19,8,17.935,8,16.625v-0.25C8,15.065,9.095,14,10.44,14H14v2.625
	C14,17.935,12.905,19,11.56,19z M10.44,16C10.197,16,10,16.168,10,16.375v0.25C10,16.832,10.197,17,10.44,17h1.12
	c0.243,0,0.44-0.168,0.44-0.375V16H10.44z"/>
<rect x="13.25" y="10.975" transform="matrix(0.1961 -0.9806 0.9806 0.1961 -0.5568 23.8209)" style="fill:#333333;" width="2" height="2.55"/>
</svg>






