<?xml version="1.0" encoding="iso-8859-1"?>
<svg version="1.1" id="&#x56FE;&#x5C42;_1" xmlns="http://www.w3.org/2000/svg" xmlns:xlink="http://www.w3.org/1999/xlink" x="0px"
	 y="0px" viewBox="0 0 24 24" style="enable-background:new 0 0 24 24;" xml:space="preserve">
<path style="fill:#333333;" d="M20.5,21h-17c-1.103,0-2-0.897-2-2V5c0-1.103,0.897-2,2-2h17c1.103,0,2,0.897,2,2v14
	C22.5,20.103,21.603,21,20.5,21z M3.5,5H3.499L3.5,19h17V5H3.5z"/>
<rect x="5.5" y="4" style="fill:#333333;" width="2" height="16"/>
<path style="fill:#333333;" d="M14,17.5c-3.033,0-5.5-2.468-5.5-5.5c0-3.033,2.467-5.5,5.5-5.5c3.032,0,5.5,2.467,5.5,5.5
	C19.5,15.032,17.032,17.5,14,17.5z M14,8.5c-1.93,0-3.5,1.57-3.5,3.5s1.57,3.5,3.5,3.5s3.5-1.57,3.5-3.5S15.93,8.5,14,8.5z"/>
<circle style="fill:#333333;" cx="14" cy="12" r="1.5"/>
<rect x="2.5" y="7" style="fill:#333333;" width="4" height="2"/>
<rect x="2.5" y="11" style="fill:#333333;" width="4" height="2"/>
<rect x="2.5" y="15" style="fill:#333333;" width="4" height="2"/>
</svg>






