<?xml version="1.0" encoding="iso-8859-1"?>
<svg version="1.1" id="&#x56FE;&#x5C42;_1" xmlns="http://www.w3.org/2000/svg" xmlns:xlink="http://www.w3.org/1999/xlink" x="0px"
	 y="0px" viewBox="0 0 24 24" style="enable-background:new 0 0 24 24;" xml:space="preserve">
<path style="fill:#333333;" d="M12,23.044L0.776,19.677l4.39-15.913L12,0.917l6.834,2.848l4.39,15.913L12,23.044z M3.224,18.323
	L12,20.956l8.776-2.633l-3.61-13.087L12,3.083L6.834,5.236L3.224,18.323z"/>
<rect x="11" y="7" style="fill:#333333;" width="2" height="15"/>
<rect x="11.75" y="4.75" transform="matrix(0.923 -0.3848 0.3848 0.923 -1.0576 6.2152)" style="fill:#333333;" width="6.5" height="2"/>
<rect x="8" y="2.5" transform="matrix(0.3846 -0.9231 0.9231 0.3846 0.2308 11.8462)" style="fill:#333333;" width="2" height="6.5"/>
<rect x="2.269" y="16.5" transform="matrix(0.9535 -0.3014 0.3014 0.9535 -4.9372 2.9988)" style="fill:#333333;" width="9.962" height="1.999"/>
<rect x="16" y="12.28" transform="matrix(0.2873 -0.9578 0.9578 0.2873 -4.6469 28.7545)" style="fill:#333333;" width="2" height="10.44"/>
</svg>






