<?xml version="1.0" encoding="iso-8859-1"?>
<svg version="1.1" id="&#x56FE;&#x5C42;_1" xmlns="http://www.w3.org/2000/svg" xmlns:xlink="http://www.w3.org/1999/xlink" x="0px"
	 y="0px" viewBox="0 0 24 24" style="enable-background:new 0 0 24 24;" xml:space="preserve">
<polygon style="fill:#333333;" points="12,11.414 9.293,8.707 10.707,7.293 12,8.586 13.293,7.293 14.707,8.707 "/>
<polygon style="fill:#333333;" points="18,17.914 15.293,15.207 16.707,13.793 18,15.086 19.293,13.793 20.707,15.207 "/>
<polygon style="fill:#333333;" points="6,17.914 3.293,15.207 4.707,13.793 6,15.086 7.293,13.793 8.707,15.207 "/>
<rect x="11" y="2" style="fill:#333333;" width="2" height="8"/>
<path style="fill:#333333;" d="M19,16.434h-2V9.818c0-1.654,1.346-3,3-3h2v2h-2c-0.552,0-1,0.449-1,1V16.434z"/>
<path style="fill:#333333;" d="M7,16.434H5V9.818c0-0.551-0.449-1-1-1H2v-2h2c1.654,0,3,1.346,3,3V16.434z"/>
<path style="fill:#333333;" d="M20,23H4c-1.654,0-3-1.346-3-3v-2h2v2c0,0.552,0.449,1,1,1h16c0.552,0,1-0.448,1-1v-2h2v2
	C23,21.654,21.654,23,20,23z"/>
</svg>






