<?xml version="1.0" encoding="iso-8859-1"?>
<svg version="1.1" id="&#x56FE;&#x5C42;_1" xmlns="http://www.w3.org/2000/svg" xmlns:xlink="http://www.w3.org/1999/xlink" x="0px"
	 y="0px" viewBox="0 0 24 24" style="enable-background:new 0 0 24 24;" xml:space="preserve">
<path style="fill:#333333;" d="M15.897,10.25L12.03,3.553L9.38,8.474L7.62,7.526l2.65-4.921c0.344-0.638,1.007-1.041,1.731-1.052
	c0.717,0,1.399,0.373,1.762,1L17.63,9.25L15.897,10.25z"/>
<path style="fill:#333333;" d="M20.711,21H12.5v-2h8.211l-3.062-4.976l1.703-1.049l3.062,4.976c0.38,0.619,0.396,1.395,0.042,2.026
	C22.103,20.608,21.434,21,20.711,21z"/>
<path style="fill:#333333;" d="M8.5,21H3.249c-0.727,0-1.376-0.377-1.736-1.008c-0.361-0.631-0.356-1.381,0.012-2.006l4.114-6.993
	l1.724,1.014L3.248,19H8.5V21z"/>
<polygon style="fill:#333333;" points="13.793,22.707 11.086,20 13.793,17.293 15.207,18.707 13.914,20 15.207,21.293 "/>
<polygon style="fill:#333333;" points="17.439,11.058 13.741,10.066 14.259,8.134 16.025,8.607 16.498,6.841 18.43,7.359 "/>
<polygon style="fill:#333333;" points="6.248,14.491 5.775,12.725 4.009,13.198 3.491,11.267 7.189,10.275 8.18,13.974 "/>
</svg>






