<?xml version="1.0" encoding="iso-8859-1"?>
<svg version="1.1" id="&#x56FE;&#x5C42;_1" xmlns="http://www.w3.org/2000/svg" xmlns:xlink="http://www.w3.org/1999/xlink" x="0px"
	 y="0px" viewBox="0 0 24 24" style="enable-background:new 0 0 24 24;" xml:space="preserve">
<path style="fill:#333333;" d="M21,23H3V1h18V23z M5,21h14V3H5V21z"/>
<path style="fill:#333333;" d="M14.524,11.376l-0.73-1.861c1.74-0.684,3.451-2.299,5.385-5.085l1.643,1.141
	C18.651,8.696,16.65,10.542,14.524,11.376z M9.503,11.319C7.314,10.46,5.305,8.633,3.179,5.57l1.498-1.307l5.869,5.389L9.503,11.319
	z"/>
<path style="fill:#333333;" d="M12,14.5c-1.792,0-3.25-1.458-3.25-3.25S10.208,8,12,8s3.25,1.458,3.25,3.25S13.792,14.5,12,14.5z
	 M12,10c-0.689,0-1.25,0.561-1.25,1.25S11.311,12.5,12,12.5s1.25-0.561,1.25-1.25S12.689,10,12,10z"/>
</svg>






