<?xml version="1.0" encoding="iso-8859-1"?>
<svg version="1.1" id="&#x56FE;&#x5C42;_1" xmlns="http://www.w3.org/2000/svg" xmlns:xlink="http://www.w3.org/1999/xlink" x="0px"
	 y="0px" viewBox="0 0 24 24" style="enable-background:new 0 0 24 24;" xml:space="preserve">
<path style="fill:#333333;" d="M12,8.035L3.5,5.768V1h17v4.768L12,8.035z M5.5,4.232L12,5.965l6.5-1.733V3h-13V4.232z"/>
<polygon style="fill:#333333;" points="20.5,23 3.5,23 3.5,8.5 5.5,8.5 5.5,21 18.5,21 18.5,8.5 20.5,8.5 "/>
<polygon style="fill:#333333;" points="12,14.062 8.732,10.14 10.268,8.86 12,10.938 13.731,8.86 15.269,10.14 "/>
<rect x="9" y="14.5" style="fill:#333333;" width="6" height="2"/>
<rect x="9" y="11.5" style="fill:#333333;" width="6" height="2"/>
<rect x="11" y="12.5" style="fill:#333333;" width="2" height="6"/>
</svg>






