<?xml version="1.0" encoding="iso-8859-1"?>
<svg version="1.1" id="&#x56FE;&#x5C42;_1" xmlns="http://www.w3.org/2000/svg" xmlns:xlink="http://www.w3.org/1999/xlink" x="0px"
	 y="0px" viewBox="0 0 24 24" style="enable-background:new 0 0 24 24;" xml:space="preserve">
<path style="fill:#333333;" d="M12,22C6.486,22,2,17.514,2,12C2,6.486,6.486,2,12,2c2.671,0,5.183,1.04,7.071,2.929
	c0.841,0.84,2.602,2.823,2.677,2.907l-1.496,1.328c-0.018-0.021-1.796-2.022-2.595-2.82C16.146,4.832,14.137,4,12,4
	c-4.411,0-8,3.589-8,8s3.589,8,8,8c2.137,0,4.146-0.832,5.657-2.343l1.414,1.414C17.182,20.96,14.67,22,12,22z"/>
<polygon style="fill:#333333;" points="22,9.5 16.5,9.5 16.5,7.5 20,7.5 20,4 22,4 "/>
</svg>






