<?xml version="1.0" encoding="iso-8859-1"?>
<svg version="1.1" id="&#x56FE;&#x5C42;_1" xmlns="http://www.w3.org/2000/svg" xmlns:xlink="http://www.w3.org/1999/xlink" x="0px"
	 y="0px" viewBox="0 0 24 24" style="enable-background:new 0 0 24 24;" xml:space="preserve">
<path style="fill:#333333;" d="M11,13c-1.93,0-3.5-1.57-3.5-3.5v-5C7.5,2.57,9.07,1,11,1s3.5,1.57,3.5,3.5v5
	C14.5,11.43,12.93,13,11,13z M11,3c-0.827,0-1.5,0.673-1.5,1.5v5c0,0.827,0.673,1.5,1.5,1.5s1.5-0.673,1.5-1.5v-5
	C12.5,3.673,11.827,3,11,3z"/>
<polygon style="fill:#333333;" points="11.793,22.707 8.086,19 11.793,15.293 13.207,16.707 10.914,19 13.207,21.293 "/>
<rect x="4" y="11" style="fill:#333333;" width="0.5" height="2"/>
<rect x="9.5" y="18" style="fill:#333333;" width="10.5" height="2"/>
</svg>






