<?xml version="1.0" encoding="iso-8859-1"?>
<svg version="1.1" id="&#x56FE;&#x5C42;_1" xmlns="http://www.w3.org/2000/svg" xmlns:xlink="http://www.w3.org/1999/xlink" x="0px"
	 y="0px" viewBox="0 0 24 24" style="enable-background:new 0 0 24 24;" xml:space="preserve">
<path style="fill:#333333;" d="M19.5,22h-15C3.122,22,2,20.879,2,19.5v-15C2,3.122,3.122,2,4.5,2h15C20.879,2,22,3.122,22,4.5v15
	C22,20.879,20.879,22,19.5,22z M4.5,4C4.224,4,4,4.224,4,4.5v15C4,19.775,4.224,20,4.5,20h15c0.275,0,0.5-0.225,0.5-0.5v-15
	C20,4.224,19.775,4,19.5,4H4.5z"/>
<path style="fill:#333333;" d="M8.5,15H6.207c-0.445,0-0.669,0.539-0.354,0.854l2.293,2.293C8.461,18.461,9,18.238,9,17.793V15.5
	C9,15.224,8.776,15,8.5,15z"/>
<path style="fill:#333333;" d="M15,15.5v2.293c0,0.445,0.539,0.669,0.854,0.354l2.293-2.293C18.461,15.539,18.238,15,17.793,15H15.5
	C15.224,15,15,15.224,15,15.5z"/>
<path style="fill:#333333;" d="M15.5,9h2.293c0.445,0,0.669-0.539,0.354-0.854l-2.293-2.293C15.539,5.539,15,5.762,15,6.207V8.5
	C15,8.776,15.224,9,15.5,9z"/>
<path style="fill:#333333;" d="M9,8.5V6.207c0-0.445-0.539-0.669-0.854-0.354L5.854,8.146C5.539,8.461,5.762,9,6.207,9H8.5
	C8.776,9,9,8.776,9,8.5z"/>
</svg>






