<?xml version="1.0" encoding="iso-8859-1"?>
<svg version="1.1" id="&#x56FE;&#x5C42;_1" xmlns="http://www.w3.org/2000/svg" xmlns:xlink="http://www.w3.org/1999/xlink" x="0px"
	 y="0px" viewBox="0 0 24 24" style="enable-background:new 0 0 24 24;" xml:space="preserve">
<rect x="6.319" y="6.5" transform="matrix(0.862 -0.5069 0.5069 0.862 -2.2493 6.7381)" style="fill:#333333;" width="9.862" height="2"/>
<rect x="6.169" y="10.5" transform="matrix(0.8574 -0.5146 0.5146 0.8574 -4.2072 7.8155)" style="fill:#333333;" width="11.662" height="2"/>
<rect x="6.632" y="15" transform="matrix(0.8455 -0.534 0.534 0.8455 -6.6514 9.0144)" style="fill:#333333;" width="11.236" height="2.001"/>
<path style="fill:#333333;" d="M20.5,6h-17V1h17V6z M5.5,4h13V3h-13V4z"/>
<path style="fill:#333333;" d="M20.5,23h-17v-5h17V23z M5.5,21h13v-1h-13V21z"/>
<rect x="6" y="5" style="fill:#333333;" width="2" height="14"/>
<rect x="16" y="5" style="fill:#333333;" width="2" height="14"/>
</svg>






