<?xml version="1.0" encoding="iso-8859-1"?>
<svg version="1.1" id="&#x56FE;&#x5C42;_1" xmlns="http://www.w3.org/2000/svg" xmlns:xlink="http://www.w3.org/1999/xlink" x="0px"
	 y="0px" viewBox="0 0 24 24" style="enable-background:new 0 0 24 24;" xml:space="preserve">
<rect x="20" y="4" style="fill:#333333;" width="2" height="8"/>
<rect x="2" y="12" style="fill:#333333;" width="2" height="8"/>
<path style="fill:#333333;" d="M12,22C6.486,22,2,17.514,2,12h2c0,4.411,3.589,8,8,8c2.084,0,4.057-0.797,5.556-2.244l1.389,1.439
	C17.071,21.004,14.605,22,12,22z M22,12h-2c0-4.411-3.589-8-8-8C9.81,4,7.765,4.868,6.243,6.444L4.805,5.056
	C6.707,3.085,9.262,2,12,2C17.514,2,22,6.486,22,12z"/>
</svg>






