<?xml version="1.0" encoding="iso-8859-1"?>
<svg version="1.1" id="&#x56FE;&#x5C42;_1" xmlns="http://www.w3.org/2000/svg" xmlns:xlink="http://www.w3.org/1999/xlink" x="0px"
	 y="0px" viewBox="0 0 24 24" style="enable-background:new 0 0 24 24;" xml:space="preserve">
<path style="fill:#333333;" d="M12.035,16.157c-0.534,0-1.037-0.208-1.414-0.586L8.5,13.449c-0.377-0.376-0.586-0.879-0.586-1.413
	c0-0.535,0.208-1.037,0.586-1.415L10.622,8.5c0.377-0.378,0.879-0.586,1.414-0.586c0.001,0,0.001,0,0.001,0
	c0.534,0,1.037,0.208,1.414,0.587l2.121,2.121c0.378,0.377,0.586,0.88,0.586,1.415c0,0.534-0.209,1.037-0.587,1.414l-2.121,2.121
	C13.073,15.948,12.57,16.157,12.035,16.157C12.036,16.157,12.036,16.157,12.035,16.157z M12.035,9.914l-2.122,2.123l2.123,2.12
	l2.121-2.122L12.035,9.914z"/>
<path style="fill:#333333;" d="M19.164,8.445C17.802,5.703,15.055,4,11.996,4c-3.017,0-5.737,1.703-7.1,4.445l-1.791-0.89
	C4.807,4.128,8.214,2,11.996,2c3.824,0,7.256,2.128,8.959,5.555L19.164,8.445z"/>
<rect x="3" y="4" style="fill:#333333;" width="2" height="4"/>
<rect x="4" y="7" style="fill:#333333;" width="3.39" height="2"/>
<path style="fill:#333333;" d="M12.064,22c-3.824,0-7.257-2.129-8.96-5.555l1.791-0.891C6.258,18.297,9.005,20,12.064,20
	c3.017,0,5.737-1.703,7.1-4.445l1.791,0.891C19.253,19.871,15.846,22,12.064,22z"/>
<rect x="19.06" y="16" style="fill:#333333;" width="2" height="4"/>
<rect x="16.67" y="15" style="fill:#333333;" width="3.39" height="2"/>
</svg>






