<?xml version="1.0" encoding="iso-8859-1"?>
<svg version="1.1" id="&#x56FE;&#x5C42;_1" xmlns="http://www.w3.org/2000/svg" xmlns:xlink="http://www.w3.org/1999/xlink" x="0px"
	 y="0px" viewBox="0 0 24 24" style="enable-background:new 0 0 24 24;" xml:space="preserve">
<path style="fill:#333333;" d="M17.5,21h-12c-1.103,0-2-0.897-2-2V3c0-1.103,0.897-2,2-2h12c1.103,0,2,0.897,2,2v16
	C19.5,20.103,18.603,21,17.5,21z M5.5,3H5.499L5.5,19h12V3H5.5z"/>
<rect x="4.5" y="10" style="fill:#333333;" width="14" height="2"/>
<rect x="3.5" y="10" style="fill:#333333;" width="2" height="2"/>
<rect x="17.5" y="10" style="fill:#333333;" width="2" height="2"/>
<rect x="6.5" y="14.5" style="fill:#333333;" width="2" height="2"/>
<rect x="6.5" y="5.5" style="fill:#333333;" width="2" height="2"/>
<rect x="15.5" y="20" style="fill:#333333;" width="2" height="2"/>
<rect x="5.5" y="20" style="fill:#333333;" width="2" height="2"/>
</svg>






