<?xml version="1.0" encoding="iso-8859-1"?>
<svg version="1.1" id="&#x56FE;&#x5C42;_1" xmlns="http://www.w3.org/2000/svg" xmlns:xlink="http://www.w3.org/1999/xlink" x="0px"
	 y="0px" viewBox="0 0 24 24" style="enable-background:new 0 0 24 24;" xml:space="preserve">
<path style="fill:#333333;" d="M9.505,22H4.5C3.122,22,2,20.879,2,19.5v-15C2,3.122,3.122,2,4.5,2h15C20.879,2,22,3.122,22,4.5
	v5.015h-2V4.5C20,4.224,19.775,4,19.5,4h-15C4.224,4,4,4.224,4,4.5v15C4,19.775,4.224,20,4.5,20h5.005V22z"/>
<path style="fill:#333333;" d="M20.5,22h-5.981v-2H20v-5.482h2V20.5C22,21.327,21.327,22,20.5,22z"/>
<rect x="9" y="13.518" style="fill:#333333;" width="12" height="2"/>
<polygon style="fill:#333333;" points="10.793,18.207 7.086,14.5 10.793,10.793 12.207,12.207 9.914,14.5 12.207,16.793 "/>
</svg>






