<?xml version="1.0" encoding="iso-8859-1"?>
<svg version="1.1" id="&#x56FE;&#x5C42;_1" xmlns="http://www.w3.org/2000/svg" xmlns:xlink="http://www.w3.org/1999/xlink" x="0px"
	 y="0px" viewBox="0 0 24 24" style="enable-background:new 0 0 24 24;" xml:space="preserve">
<rect x="2" y="16.5" style="fill:#333333;" width="20" height="2"/>
<path style="fill:#333333;" d="M13,16h-2c0-1.654-1.458-3-3.25-3S4.5,14.346,4.5,16h-2c0-2.757,2.355-5,5.25-5S13,13.243,13,16z"/>
<path style="fill:#333333;" d="M21.5,16h-2c0-4.962-3.364-9-7.5-9s-7.5,4.038-7.5,9h-2C2.5,9.935,6.762,5,12,5S21.5,9.935,21.5,16z"
	/>
<path style="fill:#333333;" d="M20.5,20c-1.379,0-2.5-1.121-2.5-2.5s1.121-2.5,2.5-2.5s2.5,1.121,2.5,2.5S21.879,20,20.5,20z
	 M20.5,17c-0.275,0-0.5,0.225-0.5,0.5s0.225,0.5,0.5,0.5s0.5-0.225,0.5-0.5S20.775,17,20.5,17z"/>
<path style="fill:#333333;" d="M12,20c-1.378,0-2.5-1.121-2.5-2.5S10.622,15,12,15c1.379,0,2.5,1.121,2.5,2.5S13.379,20,12,20z
	 M12,17c-0.276,0-0.5,0.225-0.5,0.5S11.724,18,12,18c0.275,0,0.5-0.225,0.5-0.5S12.275,17,12,17z"/>
<path style="fill:#333333;" d="M3.5,20C2.122,20,1,18.879,1,17.5S2.122,15,3.5,15S6,16.121,6,17.5S4.878,20,3.5,20z M3.5,17
	C3.224,17,3,17.225,3,17.5S3.224,18,3.5,18S4,17.775,4,17.5S3.776,17,3.5,17z"/>
</svg>






