<?xml version="1.0" encoding="iso-8859-1"?>
<svg version="1.1" id="&#x56FE;&#x5C42;_1" xmlns="http://www.w3.org/2000/svg" xmlns:xlink="http://www.w3.org/1999/xlink" x="0px"
	 y="0px" viewBox="0 0 24 24" style="enable-background:new 0 0 24 24;" xml:space="preserve">
<path style="fill:#333333;" d="M13.852,23.084c-1.008,0-2.049-0.216-3.202-0.647l0,0c-2.538-0.949-4.579-3.856-5.844-6.129
	c-0.655-1.176-0.348-2.655,0.73-3.518c0.863-0.688,2.002-0.818,2.963-0.407V8.75c0-1.241,1.009-2.25,2.25-2.25S13,7.509,13,8.75
	v0.764c0.865-0.089,1.731,0.35,2.169,1.062c0.186-0.05,0.38-0.076,0.581-0.076c0.811,0,1.522,0.431,1.919,1.076
	c0.186-0.05,0.38-0.076,0.581-0.076c1.24,0,2.25,1.01,2.25,2.25v3.934c0,0.781-0.216,1.5-0.623,2.078
	c-0.636,0.901-1.67,2.095-2.983,2.657C15.859,22.862,14.873,23.084,13.852,23.084z M7.358,14.15c-0.202,0-0.404,0.066-0.572,0.201
	c-0.317,0.254-0.414,0.658-0.233,0.983c1.535,2.757,3.283,4.662,4.797,5.229l0,0c1.866,0.697,3.155,0.703,4.756,0.018
	c0.93-0.398,1.737-1.406,2.136-1.972c0.213-0.302,0.258-0.67,0.258-0.926V13.75c0-0.275-0.5-0.275-0.5,0h-2v-1
	c0-0.275-0.5-0.275-0.5,0h-2v-1c0-0.275-0.5-0.275-0.5,0h-2v-3c0-0.275-0.5-0.275-0.5,0v5.75l-1.707,0.707l-0.788-0.788
	C7.827,14.241,7.593,14.15,7.358,14.15z"/>
<polygon style="fill:#333333;" points="16,9.414 13.293,6.707 14.707,5.293 16,6.586 17.293,5.293 18.707,6.707 "/>
<path style="fill:#333333;" d="M16.908,7.505l-1.967-0.359C14.98,6.932,15,6.714,15,6.5C15,4.57,13.43,3,11.5,3S8,4.57,8,6.5H6
	C6,3.467,8.467,1,11.5,1C14.532,1,17,3.467,17,6.5C17,6.834,16.969,7.173,16.908,7.505z"/>
</svg>






