<?xml version="1.0" encoding="iso-8859-1"?>
<svg version="1.1" id="&#x56FE;&#x5C42;_1" xmlns="http://www.w3.org/2000/svg" xmlns:xlink="http://www.w3.org/1999/xlink" x="0px"
	 y="0px" viewBox="0 0 24 24" style="enable-background:new 0 0 24 24;" xml:space="preserve">
<path style="fill:none;" d="M12,2C8.134,2,5,5.134,5,9v10h14V9C19,5.134,15.866,2,12,2z"/>
<path style="fill:#333333;" d="M22,20H2v-2h2V9c0-4.411,3.589-8,8-8s8,3.589,8,8v9h2V20z M6,18h12V9c0-3.309-2.691-6-6-6
	S6,5.691,6,9V18z"/>
<path style="fill:#333333;" d="M12,23c-1.93,0-3.5-1.57-3.5-3.5V18h7v1.5C15.5,21.43,13.93,23,12,23z M10.585,20
	c0.207,0.582,0.763,1,1.415,1c0.652,0,1.208-0.418,1.414-1H10.585z"/>
<rect x="11" y="7.464" transform="matrix(0.7071 -0.7071 0.7071 0.7071 -4.2635 11.7071)" style="fill:#333333;" width="2" height="7.071"/>
<rect x="8.464" y="10" transform="matrix(0.7071 -0.7071 0.7071 0.7071 -4.2635 11.7071)" style="fill:#333333;" width="7.071" height="2"/>
</svg>






