<?xml version="1.0" encoding="iso-8859-1"?>
<svg version="1.1" id="&#x56FE;&#x5C42;_1" xmlns="http://www.w3.org/2000/svg" xmlns:xlink="http://www.w3.org/1999/xlink" x="0px"
	 y="0px" viewBox="0 0 24 24" style="enable-background:new 0 0 24 24;" xml:space="preserve">
<path style="fill:#333333;" d="M12,23c-4.136,0-7.5-3.364-7.5-7.5V2.723C4.5,1.773,5.273,1,6.223,1h11.555
	c0.95,0,1.723,0.773,1.723,1.723V15.5C19.5,19.636,16.136,23,12,23z M6.5,3v12.5c0,3.032,2.467,5.5,5.5,5.5
	c3.032,0,5.5-2.468,5.5-5.5V3H6.5z"/>
<rect x="8.5" y="7" style="fill:#333333;" width="1.5" height="2"/>
<rect x="14" y="7" style="fill:#333333;" width="1.5" height="2"/>
<circle style="fill:#333333;" cx="8.5" cy="5" r="1"/>
<path style="fill:#333333;" d="M12,20c-2.481,0-4.5-2.019-4.5-4.5S9.519,11,12,11s4.5,2.019,4.5,4.5S14.481,20,12,20z M12,13
	c-1.378,0-2.5,1.121-2.5,2.5S10.622,18,12,18c1.379,0,2.5-1.121,2.5-2.5S13.379,13,12,13z"/>
</svg>






