<?xml version="1.0" encoding="iso-8859-1"?>
<svg version="1.1" id="&#x56FE;&#x5C42;_1" xmlns="http://www.w3.org/2000/svg" xmlns:xlink="http://www.w3.org/1999/xlink" x="0px"
	 y="0px" viewBox="0 0 24 24" style="enable-background:new 0 0 24 24;" xml:space="preserve">
<path style="fill:#333333;" d="M7.052,22.318c-0.781-2.323-1.032-4.339-0.745-5.989c0.321-1.848,1.387-3.128,3.083-3.702
	l1.271,1.261c-0.867,2.628-0.573,4.456,0.897,5.586c1.026,0.789,3.036,1.139,4.897,0.28c1.943-0.897,3.087-2.865,3.222-5.542
	c0.195-3.887-0.801-7.28-2.732-9.311c-1.21-1.272-2.741-1.944-4.43-1.944c-1.793,0-3.064,0.817-3.399,2.187
	c-0.266,1.085,0.125,2.525,1.6,3.294l-0.25,1.864c-2.847,0.62-4.584,1.812-5.312,3.643c-0.775,1.948-0.825,4.591-0.149,7.854
	l-1.958,0.406c-0.757-3.653-0.673-6.681,0.249-8.999c0.79-1.987,2.421-3.435,4.861-4.32c-0.957-1.171-1.35-2.717-0.982-4.217
	c0.439-1.794,2.074-3.71,5.342-3.71c2.25,0,4.282,0.887,5.879,2.566c2.308,2.426,3.503,6.358,3.281,10.789
	c-0.234,4.664-2.846,6.549-4.382,7.258c-2.313,1.068-5.174,0.858-6.954-0.51c-1.256-0.966-1.968-2.237-2.131-3.801
	c-0.085,1.22,0.163,2.704,0.74,4.423L7.052,22.318z"/>
<path style="fill:#333333;" d="M14.68,11.406c-1.041,0-1.572-0.584-1.829-1.048c-0.487-0.878-0.547-2.235,1.937-3.717l1.025,1.718
	c-1.121,0.668-1.217,1.045-1.218,1.049c0.007-0.002,0.027,0.006,0.095,0.006c0.161,0,0.545-0.05,1.293-0.432l0.908,1.782
	C15.975,11.231,15.251,11.406,14.68,11.406z"/>
<path style="fill:#333333;" d="M15.899,17.107c-0.902-0.178-2.978-1.225-3.562-2.51c-0.243-0.536-0.227-1.091,0.046-1.563
	c0.833-1.443,2.934-1.201,4.438-0.894L16.424,14.1c-1.262-0.256-1.864-0.2-2.131-0.131c0.397,0.441,1.479,1.075,1.993,1.176
	L15.899,17.107z"/>
</svg>






