<?xml version="1.0" encoding="iso-8859-1"?>
<svg version="1.1" id="&#x56FE;&#x5C42;_1" xmlns="http://www.w3.org/2000/svg" xmlns:xlink="http://www.w3.org/1999/xlink" x="0px"
	 y="0px" viewBox="0 0 24 24" style="enable-background:new 0 0 24 24;" xml:space="preserve">
<path style="fill:#333333;" d="M12,22c-2.67,0-5.182-1.04-7.071-2.929l1.414-1.414C7.854,19.168,9.863,20,12,20c4.411,0,8-3.589,8-8
	s-3.589-8-8-8C9.863,4,7.854,4.832,6.343,6.343C5.544,7.142,3.766,9.144,3.748,9.164L2.252,7.836
	c0.074-0.084,1.836-2.067,2.677-2.907C6.817,3.041,9.329,2,12,2c5.514,0,10,4.486,10,10C22,17.514,17.514,22,12,22z"/>
<polygon style="fill:#333333;" points="7,9.5 2,9.5 2,4.5 4,4.5 4,7.5 7,7.5 "/>
<path style="fill:#333333;" d="M12,17c-1.183,0-2.5-0.821-2.5-2h2c0-0.114-0.039-0.19-0.053-0.208C11.503,14.864,11.743,15,12,15
	c0.879,0,1-0.48,1-1c0-1.5-0.509-1.5-1-1.5c-0.661,0-0.688,0.018-0.951,0.19L9.5,11.855V8H14v2h-2.5v0.51
	c0.152-0.008,0.317-0.01,0.5-0.01c1.12,0,3,0.455,3,3.5C15,15.822,13.822,17,12,17z"/>
</svg>






