<?xml version="1.0" encoding="iso-8859-1"?>
<svg version="1.1" id="&#x56FE;&#x5C42;_1" xmlns="http://www.w3.org/2000/svg" xmlns:xlink="http://www.w3.org/1999/xlink" x="0px"
	 y="0px" viewBox="0 0 24 24" style="enable-background:new 0 0 24 24;" xml:space="preserve">
<path style="fill:#333333;" d="M19,18.5H5v-8c0-3.86,3.14-7,7-7c3.859,0,7,3.14,7,7V18.5z M7,16.5h10v-6c0-2.757-2.243-5-5-5
	s-5,2.243-5,5V16.5z"/>
<rect x="4" y="20" style="fill:#333333;" width="16" height="2"/>
<rect x="1.75" y="5.959" transform="matrix(0.3162 -0.9487 0.9487 0.3162 -4.5232 7.2243)" style="fill:#333333;" width="2" height="1.581"/>
<rect x="5.75" y="1.959" transform="matrix(0.9487 -0.3162 0.3162 0.9487 -0.5232 2.2757)" style="fill:#333333;" width="2" height="1.581"/>
<rect x="3.25" y="3.189" transform="matrix(0.7071 -0.7071 0.7071 0.7071 -1.7604 4.25)" style="fill:#333333;" width="2" height="2.121"/>
</svg>






