<?xml version="1.0" encoding="iso-8859-1"?>
<svg version="1.1" id="&#x56FE;&#x5C42;_1" xmlns="http://www.w3.org/2000/svg" xmlns:xlink="http://www.w3.org/1999/xlink" x="0px"
	 y="0px" viewBox="0 0 24 24" style="enable-background:new 0 0 24 24;" xml:space="preserve">
<path style="fill:#333333;" d="M12,18.702l-0.555-0.37C11.243,18.197,6.5,14.989,6.5,11c0-1.469,0.572-2.85,1.61-3.889
	C9.15,6.072,10.531,5.5,12,5.5s2.85,0.572,3.889,1.611C16.928,8.149,17.5,9.53,17.5,11c0,3.989-4.743,7.197-4.945,7.332L12,18.702z
	 M12,7.5c-0.935,0-1.814,0.364-2.475,1.025C8.864,9.186,8.5,10.065,8.5,11c0,2.088,2.177,4.229,3.5,5.263
	c1.322-1.034,3.5-3.175,3.5-5.263c0-0.935-0.364-1.814-1.025-2.475C13.813,7.864,12.935,7.5,12,7.5z"/>
<path style="fill:#333333;" d="M12,13.5c-1.378,0-2.5-1.121-2.5-2.5c0-1.378,1.122-2.5,2.5-2.5c1.379,0,2.5,1.122,2.5,2.5
	C14.5,12.379,13.379,13.5,12,13.5z M12,10.5c-0.276,0-0.5,0.224-0.5,0.5s0.224,0.5,0.5,0.5c0.275,0,0.5-0.224,0.5-0.5
	S12.275,10.5,12,10.5z"/>
<path style="fill:#333333;" d="M21.999,12.288l-1.998-0.076c0.007-0.233,0.116-5.796-5.578-7.767
	C8.76,2.488,5.473,7.341,5.336,7.549L3.663,6.454C3.704,6.39,7.921,0.076,15.077,2.555C22.195,5.019,22.002,12.216,21.999,12.288z"
	/>
<rect x="20" y="4" style="fill:#333333;" width="2" height="8"/>
<path style="fill:#333333;" d="M12.308,22.093c-0.863,0-1.799-0.113-2.809-0.375C2.086,19.796,2,12.078,2,12h2
	c0.001,0.252,0.104,6.253,6.001,7.782c5.882,1.519,8.514-3.068,8.623-3.265l1.754,0.961C20.349,17.532,17.788,22.093,12.308,22.093z
	"/>
<rect x="2" y="12" style="fill:#333333;" width="2" height="8"/>
</svg>






