<?xml version="1.0" encoding="iso-8859-1"?>
<svg version="1.1" id="&#x56FE;&#x5C42;_1" xmlns="http://www.w3.org/2000/svg" xmlns:xlink="http://www.w3.org/1999/xlink" x="0px"
	 y="0px" viewBox="0 0 24 24" style="enable-background:new 0 0 24 24;" xml:space="preserve">
<path style="fill:#333333;" d="M9.171,20.363c-0.512,0-1.024-0.195-1.414-0.585l-3.536-3.536c-0.78-0.779-0.78-2.049,0-2.828
	l1.475-1.475c0.378-0.378,0.88-0.586,1.414-0.586h1.293l2.95-2.95V7.111c0-0.534,0.208-1.036,0.586-1.414l1.475-1.475
	c0.779-0.779,2.049-0.779,2.828,0l3.536,3.536c0.378,0.378,0.586,0.88,0.586,1.414c0,0.535-0.208,1.037-0.586,1.415l-1.476,1.475
	c-0.378,0.378-0.88,0.586-1.414,0.586h-1.293l-2.949,2.949v1.293c0,0.534-0.208,1.036-0.586,1.414l-1.475,1.476
	C10.196,20.168,9.684,20.363,9.171,20.363z M5.636,14.828l3.536,3.536l1.475-1.476v-1.293c0-0.526,0.213-1.042,0.585-1.414
	l2.95-2.949c0.372-0.373,0.888-0.586,1.414-0.586h1.293l1.476-1.475l-3.536-3.536l-1.475,1.475v1.293
	c0,0.534-0.208,1.036-0.586,1.414l-2.95,2.95c-0.378,0.378-0.88,0.586-1.414,0.586H7.111L5.636,14.828z"/>
<rect x="2.855" y="17.894" transform="matrix(0.7071 -0.7071 0.7071 0.7071 -11.8647 9.1442)" style="fill:#333333;" width="4.501" height="2"/>
<rect x="16.645" y="4.106" transform="matrix(0.7071 -0.7071 0.7071 0.7071 1.9238 14.8559)" style="fill:#333333;" width="4.5" height="2"/>
</svg>






