<?xml version="1.0" encoding="iso-8859-1"?>
<svg version="1.1" id="&#x56FE;&#x5C42;_1" xmlns="http://www.w3.org/2000/svg" xmlns:xlink="http://www.w3.org/1999/xlink" x="0px"
	 y="0px" viewBox="0 0 24 24" style="enable-background:new 0 0 24 24;" xml:space="preserve">
<path style="fill:#333333;" d="M23.618,22h-8.927l-1.646-7.687C13.015,14.175,13,14.034,13,13.895V7.979L9.659,5.298
	c-0.42-0.337-0.68-0.818-0.732-1.354c-0.052-0.536,0.112-1.058,0.459-1.47C10,1.749,11.044,1.562,11.871,2.026l4.986,2.809
	l2.082,7.808L23.618,22z M16.309,20h4.073l-3.23-6.462c-0.061-0.12-0.108-0.247-0.144-0.377l-1.865-6.997L10.89,3.769L15,7.021
	v6.874L16.309,20z"/>
<rect x="13.938" y="12.5" transform="matrix(0.9702 -0.2423 0.2423 0.9702 -2.7943 4.2792)" style="fill:#333333;" width="4.123" height="1.999"/>
<path style="fill:#333333;" d="M8.98,22H0.629l3.264-10.184c0.033-0.103,0.074-0.202,0.124-0.299L6.329,7l4.105-0.546L13,8.386
	v3.122l-0.921,1.54c-0.301,0.503-0.805,0.848-1.383,0.945c-0.536,0.09-1.077-0.039-1.511-0.356L8.98,14.604V22z M3.371,20H6.98
	l0.021-5.707L7.961,10h2.744l-0.375,1.993l0.024,0.02L11,10.951V9.384L9.886,8.545l-2.255,0.3l-1.834,3.582L3.371,20z"/>
<rect x="5.5" y="11.573" transform="matrix(0.4472 -0.8944 0.8944 0.4472 -8.258 13.1382)" style="fill:#333333;" width="2" height="3.354"/>
</svg>






