<?xml version="1.0" encoding="iso-8859-1"?>
<svg version="1.1" id="&#x56FE;&#x5C42;_1" xmlns="http://www.w3.org/2000/svg" xmlns:xlink="http://www.w3.org/1999/xlink" x="0px"
	 y="0px" viewBox="0 0 24 24" style="enable-background:new 0 0 24 24;" xml:space="preserve">
<rect x="11" y="13" style="fill:#333333;" width="2" height="6"/>
<rect x="11" y="3" style="fill:#333333;" width="2" height="10"/>
<rect x="11" y="2" style="fill:#333333;" width="2" height="1"/>
<polygon style="fill:#333333;" points="17.414,21 4,21 4,19 16.586,19 19.293,16.293 20.707,17.707 "/>
<rect x="6.5" y="20" style="fill:#333333;" width="2" height="2"/>
<rect x="15" y="20" style="fill:#333333;" width="2" height="2"/>
<path style="fill:#333333;" d="M22,13h-2c0-0.743-0.631-1.5-1.25-1.5S17.5,12.257,17.5,13h-2c0-0.743-0.631-1.5-1.25-1.5
	S13,12.257,13,13h-2c0-0.743-0.631-1.5-1.25-1.5S8.5,12.257,8.5,13h-2c0-0.743-0.631-1.5-1.25-1.5S4,12.257,4,13H2v-1.028
	C2,6.474,6.486,2,12,2c5.514,0,10,4.474,10,9.972V13z M9.75,9.5c0.854,0,1.656,0.398,2.25,1.025C12.594,9.898,13.396,9.5,14.25,9.5
	s1.656,0.398,2.25,1.025c0.811-0.855,2.068-1.238,3.154-0.875C18.654,6.383,15.601,4,12,4C8.399,4,5.346,6.383,4.346,9.65
	C5.431,9.286,6.69,9.669,7.5,10.525C8.094,9.898,8.896,9.5,9.75,9.5z"/>
<path style="fill:#333333;" d="M6.535,13.263C6.5,13.137,5.706,10.13,7.09,7.086c1.357-2.986,4.25-4.852,4.373-4.93l1.075,1.687
	c-0.024,0.016-2.521,1.636-3.627,4.071c-1.077,2.369-0.452,4.802-0.445,4.827L6.535,13.263z"/>
<path style="fill:#333333;" d="M17.494,13.11l-1.988-0.221L16.5,13l-0.994-0.105c0.002-0.021,0.195-2.087-0.939-5.036
	c-1.091-2.836-3.038-3.977-3.058-3.988l0.977-1.745c0.105,0.058,2.583,1.467,3.948,5.015C17.756,10.579,17.505,13.009,17.494,13.11z
	"/>
<rect x="11" y="3" style="fill:#333333;" width="2" height="9.5"/>
<path style="fill:#333333;" d="M17.5,13h-2c0-0.743-0.631-1.5-1.25-1.5v-2c0.854,0,1.656,0.398,2.25,1.025
	C17.094,9.898,17.896,9.5,18.75,9.5v2C18.131,11.5,17.5,12.257,17.5,13z"/>
<path style="fill:#333333;" d="M13,13h-2c0-0.743-0.631-1.5-1.25-1.5v-2c0.854,0,1.656,0.398,2.25,1.025
	C12.594,9.898,13.396,9.5,14.25,9.5v2C13.631,11.5,13,12.257,13,13z"/>
<path style="fill:#333333;" d="M8.5,13h-2c0-0.743-0.631-1.5-1.25-1.5v-2c0.854,0,1.656,0.398,2.25,1.025
	C8.094,9.898,8.896,9.5,9.75,9.5v2C9.131,11.5,8.5,12.257,8.5,13z"/>
<path style="fill:#333333;" d="M8.326,4.889L7.408,3.111c2.816-1.454,6.369-1.454,9.184,0l-0.918,1.777
	C13.392,3.709,10.609,3.709,8.326,4.889z"/>
</svg>






