<?xml version="1.0" encoding="iso-8859-1"?>
<svg version="1.1" id="&#x56FE;&#x5C42;_1" xmlns="http://www.w3.org/2000/svg" xmlns:xlink="http://www.w3.org/1999/xlink" x="0px"
	 y="0px" viewBox="0 0 24 24" style="enable-background:new 0 0 24 24;" xml:space="preserve">
<path style="fill:#333333;" d="M18.5,7h-2c0-2.206-2.019-4-4.5-4S7.5,4.794,7.5,7h-2c0-3.309,2.916-6,6.5-6S18.5,3.691,18.5,7z"/>
<path style="fill:#333333;" d="M19.5,16H15c-1.103,0-2-0.897-2-2h-2c0,1.103-0.897,2-2,2H4.5c-1.103,0-2-0.897-2-2V8
	c0-1.103,0.897-2,2-2h15c1.103,0,2,0.897,2,2v6C21.5,15.103,20.603,16,19.5,16z M11,12h2c1.103,0,2,0.897,2,2h4.5V8h-15v6H9
	C9,12.897,9.897,12,11,12z"/>
<polygon style="fill:#333333;" points="20,23 4,23 4,15 6,15 6,21 18,21 18,15 20,15 "/>
<path style="fill:#333333;" d="M15,17H9v-5h6V17z M11,15h2v-1h-2V15z"/>
</svg>






