<?xml version="1.0" encoding="iso-8859-1"?>
<svg version="1.1" id="&#x56FE;&#x5C42;_1" xmlns="http://www.w3.org/2000/svg" xmlns:xlink="http://www.w3.org/1999/xlink" x="0px"
	 y="0px" viewBox="0 0 24 24" style="enable-background:new 0 0 24 24;" xml:space="preserve">
<path style="fill:#333333;" d="M18.118,7H5.882l2.5-5h7.236L18.118,7z M9.118,5h5.764l-0.5-1H9.618L9.118,5z"/>
<path style="fill:#333333;" d="M20.5,22h-17C2.122,22,1,20.923,1,19.6V7.4C1,6.077,2.122,5,3.5,5h17C21.879,5,23,6.077,23,7.4v12.2
	C23,20.923,21.879,22,20.5,22z M3.5,7C3.229,7,3,7.183,3,7.4v12.2C3,19.816,3.229,20,3.5,20h17c0.271,0,0.5-0.184,0.5-0.4V7.4
	C21,7.183,20.771,7,20.5,7H3.5z"/>
<rect x="15" y="9.5" style="fill:#333333;" width="2" height="4"/>
<rect x="7" y="13.5" style="fill:#333333;" width="2" height="4"/>
<path style="fill:#333333;" d="M12,18.5c-2.757,0-5-2.243-5-5h2c0,1.654,1.346,3,3,3c0.39,0,0.768-0.073,1.125-0.218l0.75,1.854
	C13.279,18.378,12.647,18.5,12,18.5z"/>
<path style="fill:#333333;" d="M17,13.5h-2c0-1.654-1.346-3-3-3c-0.39,0-0.768,0.073-1.125,0.217l-0.75-1.854
	C10.721,8.622,11.352,8.5,12,8.5C14.757,8.5,17,10.743,17,13.5z"/>
</svg>






