<?xml version="1.0" encoding="iso-8859-1"?>
<svg version="1.1" id="&#x56FE;&#x5C42;_1" xmlns="http://www.w3.org/2000/svg" xmlns:xlink="http://www.w3.org/1999/xlink" x="0px"
	 y="0px" viewBox="0 0 24 24" style="enable-background:new 0 0 24 24;" xml:space="preserve">
<path style="fill:#333333;" d="M12,20c-5.416,0-9.5-4.084-9.5-9.5v-1h19v1C21.5,15.916,17.416,20,12,20z M4.56,11.5
	C5.02,15.269,8.064,18,12,18s6.98-2.731,7.439-6.5H4.56z"/>
<path style="fill:#333333;" d="M16,10.5h-2c0-2.206-1.683-4-3.75-4c-2.068,0-3.75,1.794-3.75,4h-2c0-3.309,2.58-6,5.75-6
	C13.421,4.5,16,7.191,16,10.5z"/>
<path style="fill:#333333;" d="M20.5,10.5h-2c0-1.103-0.938-2-2.089-2c-0.479,0-0.93,0.151-1.303,0.437L13.892,7.35
	c0.725-0.556,1.596-0.85,2.52-0.85C18.666,6.5,20.5,8.294,20.5,10.5z"/>
<rect x="14.64" y="4" transform="matrix(0.2871 -0.9579 0.9579 0.2871 7.5084 20.0885)" style="fill:#333333;" width="5.22" height="2"/>
<rect x="17.984" y="6.25" transform="matrix(0.4961 -0.8682 0.8682 0.4961 3.7825 21.0179)" style="fill:#333333;" width="4.031" height="2"/>
<polygon style="fill:#333333;" points="17.388,22.5 6.613,22.5 8.051,18.184 9.949,18.816 9.387,20.5 14.612,20.5 14.052,18.816 
	15.948,18.184 "/>
</svg>






