<?xml version="1.0" encoding="iso-8859-1"?>
<svg version="1.1" id="&#x56FE;&#x5C42;_1" xmlns="http://www.w3.org/2000/svg" xmlns:xlink="http://www.w3.org/1999/xlink" x="0px"
	 y="0px" viewBox="0 0 24 24" style="enable-background:new 0 0 24 24;" xml:space="preserve">
<path style="fill:#333333;" d="M13.056,20.712c-0.738-0.728-0.721-2.137-0.329-3.093c0.229-0.559,0.578-0.965,1.002-1.184
	c0.24-0.711,0.664-2.132,0.664-3.283c0-1.356-1.652-3.284-3.335-3.893l-0.882-0.318l0.261-0.9c0.115-0.404,0.172-0.923,0.13-1.147
	C10.34,6.747,9.787,6.53,9.129,6.32v3.062L3,12.001v1.061l3.196-0.301l0.188,1.992L1,15.259V10.68l6.129-2.618V3.725l1.238,0.304
	c2.146,0.526,3.445,1.104,3.859,1.717c0.387,0.571,0.393,1.365,0.311,1.988c2.13,1.125,3.855,3.477,3.855,5.418
	c0,1.979-0.922,4.361-0.961,4.462l-0.249,0.636h-0.546c-0.156,0.24-0.242,0.877-0.133,1.093L13.056,20.712z"/>
<path style="fill:#333333;" d="M9,16c-1.794,0-3-1.206-3-3h2c0,0.466,0.114,1,1,1s1-0.534,1-1h2C12,14.794,10.794,16,9,16z"/>
<path style="fill:#333333;" d="M7.079,20.815l-1.158-1.631c1.816-1.29,1.886-1.544,2.024-2.048c0.115-0.42,0.028-1.374-0.064-1.617
	C7.938,15.67,8.222,16,8.69,16v-2l0.857,0.435c0.492,0.645,0.549,2.415,0.326,3.229C9.572,18.768,9.147,19.346,7.079,20.815z"/>
<circle style="fill:#333333;" cx="18.5" cy="7" r="2"/>
<path style="fill:#333333;" d="M17.793,20.457l-1.5-1.5L17,17.25h3.29c0.402-1.553,0.125-3.705-0.179-4.291
	c-0.179-0.346-0.392-0.706-0.586-1.017l-0.061,0.045l-0.34,0.154c-0.004,0.045-0.008,0.093-0.012,0.134
	c-0.039,0.479-0.111,1.373-1.047,2.016c-0.967,0.661-3.045,1.792-4.601,1.708l0.068-1.998c0.858-0.013,2.414-0.685,3.401-1.359
	c0.131-0.09,0.152-0.13,0.185-0.528c0.037-0.452,0.12-1.474,1.296-1.84l0.756-0.571l1.421,0.223c0.031,0.044,0.771,1.1,1.296,2.116
	c0.642,1.241,0.936,4.566,0.025,6.615L21,19.25h-2L17.793,20.457z"/>
</svg>






