<?xml version="1.0" encoding="iso-8859-1"?>
<svg version="1.1" id="&#x56FE;&#x5C42;_1" xmlns="http://www.w3.org/2000/svg" xmlns:xlink="http://www.w3.org/1999/xlink" x="0px"
	 y="0px" viewBox="0 0 24 24" style="enable-background:new 0 0 24 24;" xml:space="preserve">
<path style="fill:#333333;" d="M16.5,8C14.57,8,13,6.43,13,4.5S14.57,1,16.5,1S20,2.57,20,4.5S18.43,8,16.5,8z M16.5,3
	C15.673,3,15,3.673,15,4.5S15.673,6,16.5,6S18,5.327,18,4.5S17.327,3,16.5,3z"/>
<path style="fill:#333333;" d="M11,19.001l-0.005-4.615l-3.732-2.288c-0.449-0.278-0.714-0.755-0.714-1.279
	c0-0.523,0.266-1,0.71-1.274l3.727-2.292c0.818-0.5,1.879-0.35,2.526,0.356l2.667,2.887L20,10.5v2h-3.814
	c-0.558,0-1.095-0.235-1.475-0.646l-2.67-2.89L9.006,10.82l3.031,1.857c0.59,0.359,0.958,1.014,0.958,1.707L13,18.999L11,19.001z"/>
<path style="fill:#333333;" d="M18.25,23c-2.619,0-4.75-2.131-4.75-4.75s2.131-4.75,4.75-4.75S23,15.631,23,18.25
	S20.869,23,18.25,23z M18.25,15.5c-1.517,0-2.75,1.233-2.75,2.75S16.733,21,18.25,21S21,19.767,21,18.25S19.767,15.5,18.25,15.5z"/>
<path style="fill:#333333;" d="M5.75,23C3.131,23,1,20.869,1,18.25s2.131-4.75,4.75-4.75s4.75,2.131,4.75,4.75S8.369,23,5.75,23z
	 M5.75,15.5C4.233,15.5,3,16.733,3,18.25S4.233,21,5.75,21s2.75-1.233,2.75-2.75S7.267,15.5,5.75,15.5z"/>
</svg>






