<?xml version="1.0" encoding="iso-8859-1"?>
<svg version="1.1" id="&#x56FE;&#x5C42;_1" xmlns="http://www.w3.org/2000/svg" xmlns:xlink="http://www.w3.org/1999/xlink" x="0px"
	 y="0px" viewBox="0 0 24 24" style="enable-background:new 0 0 24 24;" xml:space="preserve">
<rect x="2" y="11" style="fill:#333333;" width="5" height="2"/>
<path style="fill:#333333;" d="M7.067,12.998l-0.135-1.996c1.416-0.096,4.445-1.12,6.988-3.551c3.78-3.614,7.032-4.313,7.939-4.441
	l0.279,1.98c-1.561,0.22-4.176,1.362-6.836,3.906C12.562,11.518,9.112,12.86,7.067,12.998z"/>
<path style="fill:#333333;" d="M21.933,20.998c-2.045-0.139-5.495-1.481-8.236-4.102C11.035,14.352,8.42,13.21,6.86,12.99
	l0.279-1.98c0.906,0.128,4.157,0.826,7.939,4.441c2.542,2.431,5.572,3.455,6.988,3.551L21.933,20.998z"/>
</svg>






