<?xml version="1.0" encoding="iso-8859-1"?>
<svg version="1.1" id="&#x56FE;&#x5C42;_1" xmlns="http://www.w3.org/2000/svg" xmlns:xlink="http://www.w3.org/1999/xlink" x="0px"
	 y="0px" viewBox="0 0 24 24" style="enable-background:new 0 0 24 24;" xml:space="preserve">
<path style="fill:#333333;" d="M12,6.81c-1.596,0-2.895-1.303-2.895-2.905S10.404,1,12,1c1.596,0,2.895,1.303,2.895,2.905
	S13.596,6.81,12,6.81z M12,3c-0.493,0-0.895,0.406-0.895,0.905S11.507,4.81,12,4.81s0.895-0.406,0.895-0.905S12.493,3,12,3z"/>
<path style="fill:#333333;" d="M4.895,21.096C3.298,21.096,2,19.792,2,18.19s1.298-2.904,2.895-2.904S7.79,16.589,7.79,18.19
	S6.491,21.096,4.895,21.096z M4.895,17.286C4.401,17.286,4,17.691,4,18.19s0.401,0.905,0.895,0.905c0.494,0,0.895-0.406,0.895-0.905
	S5.388,17.286,4.895,17.286z"/>
<path style="fill:#333333;" d="M19.105,21.096c-1.596,0-2.895-1.304-2.895-2.905s1.299-2.904,2.895-2.904S22,16.589,22,18.19
	S20.701,21.096,19.105,21.096z M19.105,17.286c-0.493,0-0.895,0.405-0.895,0.904s0.401,0.905,0.895,0.905S20,18.689,20,18.19
	S19.599,17.286,19.105,17.286z"/>
<path style="fill:#333333;" d="M21.956,13.901l-1.992-0.188C19.988,13.464,20,13.21,20,12.952c0-2.834-1.51-5.492-3.939-6.935
	l1.021-1.72C20.115,6.099,22,9.416,22,12.952C22,13.272,21.984,13.589,21.956,13.901z"/>
<path style="fill:#333333;" d="M12,23c-1.352,0-2.664-0.267-3.899-0.793l0.784-1.84c1.972,0.84,4.257,0.84,6.23,0l0.783,1.84
	C14.664,22.733,13.353,23,12,23z"/>
<path style="fill:#333333;" d="M2.044,13.901C2.015,13.589,2,13.272,2,12.952c0-3.537,1.884-6.853,4.918-8.655l1.021,1.72
	C5.509,7.46,4,10.117,4,12.952c0,0.258,0.012,0.512,0.035,0.762L2.044,13.901z"/>
</svg>






