<?xml version="1.0" encoding="iso-8859-1"?>
<svg version="1.1" id="&#x56FE;&#x5C42;_1" xmlns="http://www.w3.org/2000/svg" xmlns:xlink="http://www.w3.org/1999/xlink" x="0px"
	 y="0px" viewBox="0 0 24 24" style="enable-background:new 0 0 24 24;" xml:space="preserve">
<path style="fill:#333333;" d="M6.5,22.5c-2.757,0-5-2.243-5-5s2.243-5,5-5s5,2.243,5,5S9.257,22.5,6.5,22.5z M6.5,14.5
	c-1.654,0-3,1.346-3,3s1.346,3,3,3s3-1.346,3-3S8.154,14.5,6.5,14.5z"/>
<path style="fill:#333333;" d="M17.5,22.5c-2.757,0-5-2.243-5-5s2.243-5,5-5s5,2.243,5,5S20.257,22.5,17.5,22.5z M17.5,14.5
	c-1.654,0-3,1.346-3,3s1.346,3,3,3s3-1.346,3-3S19.154,14.5,17.5,14.5z"/>
<rect x="3" y="1.5" style="fill:#333333;" width="18" height="2"/>
<rect x="5.5" y="2.5" style="fill:#333333;" width="2" height="11"/>
<rect x="16.5" y="2.5" style="fill:#333333;" width="2" height="11"/>
<rect x="4.5" y="8.5" style="fill:#333333;" width="4" height="2"/>
<rect x="15.5" y="8.5" style="fill:#333333;" width="4" height="2"/>
</svg>






