<?xml version="1.0" encoding="iso-8859-1"?>
<svg version="1.1" id="&#x56FE;&#x5C42;_1" xmlns="http://www.w3.org/2000/svg" xmlns:xlink="http://www.w3.org/1999/xlink" x="0px"
	 y="0px" viewBox="0 0 24 24" style="enable-background:new 0 0 24 24;" xml:space="preserve">
<path style="fill:#333333;" d="M12,6.636c-1.554,0-2.818-1.264-2.818-2.818C9.182,2.264,10.446,1,12,1
	c1.554,0,2.818,1.264,2.818,2.818C14.818,5.372,13.554,6.636,12,6.636z M12,3c-0.451,0-0.818,0.367-0.818,0.818
	S11.549,4.636,12,4.636s0.818-0.367,0.818-0.818S12.451,3,12,3z"/>
<path style="fill:#333333;" d="M12,23c-1.554,0-2.818-1.265-2.818-2.818s1.264-2.818,2.818-2.818c1.554,0,2.818,1.265,2.818,2.818
	S13.554,23,12,23z M12,19.363c-0.451,0-0.818,0.367-0.818,0.818S11.549,21,12,21s0.818-0.367,0.818-0.818S12.451,19.363,12,19.363z"
	/>
<path style="fill:#333333;" d="M3.818,14.818C2.264,14.818,1,13.554,1,12c0-1.554,1.264-2.818,2.818-2.818
	c1.554,0,2.818,1.264,2.818,2.818C6.636,13.554,5.372,14.818,3.818,14.818z M3.818,11.182C3.367,11.182,3,11.549,3,12
	s0.367,0.818,0.818,0.818S4.636,12.451,4.636,12S4.27,11.182,3.818,11.182z"/>
<path style="fill:#333333;" d="M20.182,14.818c-1.554,0-2.818-1.265-2.818-2.818c0-1.554,1.265-2.818,2.818-2.818S23,10.446,23,12
	C23,13.554,21.735,14.818,20.182,14.818z M20.182,11.182c-0.451,0-0.818,0.367-0.818,0.818s0.367,0.818,0.818,0.818S21,12.451,21,12
	S20.633,11.182,20.182,11.182z"/>
<path style="fill:#333333;" d="M18.074,8.167c-0.568-0.899-1.343-1.674-2.241-2.242l1.068-1.69c1.147,0.725,2.138,1.715,2.864,2.864
	L18.074,8.167z"/>
<path style="fill:#333333;" d="M16.901,19.766l-1.068-1.691c0.897-0.567,1.673-1.342,2.242-2.241l1.689,1.068
	C19.039,18.051,18.049,19.041,16.901,19.766z"/>
<path style="fill:#333333;" d="M7.099,19.766c-1.148-0.726-2.138-1.716-2.864-2.864l1.69-1.068c0.568,0.898,1.344,1.674,2.242,2.241
	L7.099,19.766z"/>
<path style="fill:#333333;" d="M5.925,8.167l-1.69-1.068C4.96,5.951,5.951,4.961,7.099,4.235l1.068,1.69
	C7.269,6.494,6.493,7.269,5.925,8.167z"/>
</svg>






