<?xml version="1.0" encoding="iso-8859-1"?>
<svg version="1.1" id="&#x56FE;&#x5C42;_1" xmlns="http://www.w3.org/2000/svg" xmlns:xlink="http://www.w3.org/1999/xlink" x="0px"
	 y="0px" viewBox="0 0 24 24" style="enable-background:new 0 0 24 24;" xml:space="preserve">
<path style="fill:#333333;" d="M17,20.5c-2.049,0-3.766-0.812-5.427-1.596C10.044,18.182,8.6,17.5,7,17.5
	c-2.183,0-4.464,1.345-4.487,1.358l-1.028-1.716C1.597,17.075,4.254,15.5,7,15.5c2.049,0,3.767,0.812,5.428,1.596
	C13.956,17.818,15.4,18.5,17,18.5c2.183,0,4.464-1.345,4.486-1.358l1.028,1.716C22.402,18.925,19.745,20.5,17,20.5z"/>
<path style="fill:#333333;" d="M17,14.5c-2.049,0-3.766-0.812-5.427-1.596C10.044,12.182,8.6,11.5,7,11.5
	c-2.183,0-4.464,1.345-4.487,1.358l-1.028-1.716C1.597,11.076,4.254,9.5,7,9.5c2.049,0,3.767,0.812,5.428,1.596
	C13.956,11.818,15.4,12.5,17,12.5c2.183,0,4.464-1.345,4.486-1.358l1.028,1.716C22.402,12.925,19.745,14.5,17,14.5z"/>
<path style="fill:#333333;" d="M17,8.5c-2.049,0-3.766-0.811-5.427-1.596C10.044,6.182,8.6,5.5,7,5.5
	c-2.183,0-4.464,1.345-4.487,1.358L1.485,5.143C1.597,5.076,4.254,3.5,7,3.5c2.049,0,3.767,0.812,5.428,1.596
	C13.956,5.818,15.4,6.5,17,6.5c2.183,0,4.464-1.345,4.486-1.358l1.028,1.716C22.402,6.924,19.745,8.5,17,8.5z"/>
</svg>






