<?xml version="1.0" encoding="iso-8859-1"?>
<svg version="1.1" id="&#x56FE;&#x5C42;_1" xmlns="http://www.w3.org/2000/svg" xmlns:xlink="http://www.w3.org/1999/xlink" x="0px"
	 y="0px" viewBox="0 0 24 24" style="enable-background:new 0 0 24 24;" xml:space="preserve">
<path style="fill:none;" d="M13.5,3h-3L9.875,5.25L9.25,7.5L8,12l-1.25,4.5l-0.625,2.25L5.5,21h13l-0.75-2.7L16,12l-1.25-4.5
	l-0.625-2.25L13.5,3z"/>
<path style="fill:#333333;" d="M21,22H3v-2h1.74l5-18h4.52l5,18H21V22z M6.815,20h10.369L12.74,4h-1.48L6.815,20z"/>
<rect x="6.75" y="15.5" style="fill:#333333;" width="10.5" height="2"/>
<rect x="8" y="11" style="fill:#333333;" width="8" height="2"/>
<rect x="9.25" y="6.5" style="fill:#333333;" width="5.5" height="2"/>
<rect x="14.937" y="5.003" transform="matrix(0.9635 -0.2676 0.2676 0.9635 -2.5701 4.6952)" style="fill:#333333;" width="2.001" height="13.544"/>
<rect x="0.994" y="11" transform="matrix(0.2676 -0.9635 0.9635 0.2676 -5.7032 16.4968)" style="fill:#333333;" width="14.011" height="2"/>
</svg>






