<?xml version="1.0" encoding="iso-8859-1"?>
<svg version="1.1" id="&#x56FE;&#x5C42;_1" xmlns="http://www.w3.org/2000/svg" xmlns:xlink="http://www.w3.org/1999/xlink" x="0px"
	 y="0px" viewBox="0 0 24 24" style="enable-background:new 0 0 24 24;" xml:space="preserve">
<path style="fill:#333333;" d="M22.5,22h-21v-4.5c0-1.103,0.897-2,2-2h17c1.103,0,2,0.897,2,2V22z M3.5,20h17v-2.5h-17V20z"/>
<polygon style="fill:#333333;" points="21,10 16.586,10 12.586,6 16.586,2 21,2 21,4 17.414,4 15.414,6 17.414,8 21,8 "/>
<path style="fill:#333333;" d="M4,9C2.346,9,1,7.654,1,6s1.346-3,3-3s3,1.346,3,3S5.654,9,4,9z M4,5C3.449,5,3,5.449,3,6
	s0.449,1,1,1s1-0.449,1-1S4.551,5,4,5z"/>
<rect x="6" y="5" style="fill:#333333;" width="8" height="2"/>
<rect x="6" y="7.553" transform="matrix(0.9048 -0.4258 0.4258 0.9048 -4.5497 4.1466)" style="fill:#333333;" width="2" height="9.394"/>
</svg>






