<?xml version="1.0" encoding="iso-8859-1"?>
<svg version="1.1" id="&#x56FE;&#x5C42;_1" xmlns="http://www.w3.org/2000/svg" xmlns:xlink="http://www.w3.org/1999/xlink" x="0px"
	 y="0px" viewBox="0 0 24 24" style="enable-background:new 0 0 24 24;" xml:space="preserve">
<path style="fill:#333333;" d="M18.5,22h-13c-1.103,0-2-0.897-2-2V10c0-1.103,0.897-2,2-2h13c1.103,0,2,0.897,2,2v10
	C20.5,21.103,19.603,22,18.5,22z M5.5,10H5.499L5.5,20h13V10H5.5z"/>
<circle style="fill:#333333;" cx="8.5" cy="13" r="1"/>
<circle style="fill:#333333;" cx="15.5" cy="13" r="1"/>
<path style="fill:#333333;" d="M10,16c-0.552,0-1,0.448-1,1s0.448,1,1,1V16z M14,18c0.552,0,1-0.448,1-1s-0.448-1-1-1V18z M10,18h4
	v-2h-4V18z"/>
<rect x="11" y="5" style="fill:#333333;" width="2" height="4"/>
<rect x="1" y="13" style="fill:#333333;" width="2" height="4"/>
<rect x="21" y="13" style="fill:#333333;" width="2" height="4"/>
<circle style="fill:#333333;" cx="12" cy="4" r="2"/>
</svg>






