<?xml version="1.0" encoding="iso-8859-1"?>
<svg version="1.1" id="&#x56FE;&#x5C42;_1" xmlns="http://www.w3.org/2000/svg" xmlns:xlink="http://www.w3.org/1999/xlink" x="0px"
	 y="0px" viewBox="0 0 24 24" style="enable-background:new 0 0 24 24;" xml:space="preserve">
<path style="fill:#333333;" d="M17,15.5H6.434l-0.291-0.485C6.076,14.902,4.5,12.239,4.5,9V8h8.099
	c0.158-0.946,0.57-2.401,1.643-3.651c1.612-1.882,3.243-2.709,3.312-2.744l0.666-0.333L23,6.354v4.257l-4.587-1.434
	c-1.156,2.092-0.45,5.05-0.442,5.083l0.305,1.238L17,15.5z M7.604,13.5h8.218c-0.168-1.535-0.163-4.174,1.396-6.125l0.428-0.534
	L21,7.89V7.146l-3.171-3.369c-0.518,0.356-1.295,0.969-2.07,1.873C14.534,7.08,14.5,8.981,14.5,9v1H6.56
	C6.74,11.525,7.28,12.828,7.604,13.5z"/>
<rect x="15.25" y="14.25" transform="matrix(0.9231 -0.3846 0.3846 0.9231 -5.4808 7.5962)" style="fill:#333333;" width="2" height="6.5"/>
<rect x="4.5" y="16.5" transform="matrix(0.3848 -0.923 0.923 0.3848 -11.3847 17.9188)" style="fill:#333333;" width="6.5" height="2"/>
<path style="fill:#333333;" d="M12,22.5c-7.33,0-10.573-3.158-10.707-3.293l1.409-1.419C2.73,17.815,5.565,20.5,12,20.5
	c6.435,0,9.27-2.685,9.298-2.712l1.409,1.419C22.572,19.342,19.33,22.5,12,22.5z"/>
<path style="fill:#333333;" d="M6.5,9h-2c0-0.602-0.244-2-2.5-2V5C5.108,5,6.5,7.009,6.5,9z"/>
</svg>






