<?xml version="1.0" encoding="iso-8859-1"?>
<svg version="1.1" id="&#x56FE;&#x5C42;_1" xmlns="http://www.w3.org/2000/svg" xmlns:xlink="http://www.w3.org/1999/xlink" x="0px"
	 y="0px" viewBox="0 0 24 24" style="enable-background:new 0 0 24 24;" xml:space="preserve">
<path style="fill:#333333;" d="M13,23H6.5c-0.196,0-1.951-0.036-3.207-1.293C2.036,20.45,2,18.92,2,18.75V6.391
	C2,5.466,2.679,4,4.5,4C6.124,4,7,5.232,7,6.391V12.5H5V6.391C4.993,6,4.635,6,4.5,6C4.381,6,4.019,6,4,6.396V18.75
	c0.001,0.023,0.029,0.865,0.707,1.543C5.391,20.977,6.496,21,6.507,21H13c0.567-0.15,2.318-2.411,3.629-4.74l0.164-0.217l3.25-3.25
	c0.363-0.363,0.363-0.473,0-0.836c-0.195-0.193-0.476-0.11-0.836,0.25l-3.5,3.5L14,15V3.75C14,3,13.662,3,13.5,3S13,3,13,3.75v8.75
	h-2V3.75C11,2.381,11.773,1,13.5,1C15.227,1,16,2.381,16,3.75v8.836l1.793-1.793c1.169-1.171,2.642-1.272,3.664-0.25
	c1.147,1.147,1.147,2.517,0,3.664l-3.153,3.153C17.077,19.523,14.82,23,13,23z"/>
<path style="fill:#333333;" d="M7.5,16.5C6.122,16.5,5,15.379,5,14v-3c0-1.378,1.122-2.5,2.5-2.5S10,9.622,10,11v3
	C10,15.379,8.878,16.5,7.5,16.5z M7.5,10.5C7.224,10.5,7,10.724,7,11v3c0,0.275,0.224,0.5,0.5,0.5S8,14.275,8,14v-3
	C8,10.724,7.776,10.5,7.5,10.5z"/>
<path style="fill:#333333;" d="M10.5,16.5C9.122,16.5,8,15.379,8,14v-3c0-1.378,1.122-2.5,2.5-2.5S13,9.622,13,11v3
	C13,15.379,11.878,16.5,10.5,16.5z M10.5,10.5c-0.276,0-0.5,0.224-0.5,0.5v3c0,0.275,0.224,0.5,0.5,0.5S11,14.275,11,14v-3
	C11,10.724,10.776,10.5,10.5,10.5z"/>
</svg>






