<?xml version="1.0" encoding="iso-8859-1"?>
<svg version="1.1" id="&#x56FE;&#x5C42;_1" xmlns="http://www.w3.org/2000/svg" xmlns:xlink="http://www.w3.org/1999/xlink" x="0px"
	 y="0px" viewBox="0 0 24 24" style="enable-background:new 0 0 24 24;" xml:space="preserve">
<path style="fill:#333333;" d="M12.217,23.313c-2.457,0-4.671-1.65-5.367-2.345c-0.231-0.23-0.453-0.493-0.658-0.778
	c-0.438-0.609-0.44-1.403-0.03-2.01c-0.035-0.019-0.07-0.038-0.104-0.06c-0.48-0.299-0.78-0.797-0.824-1.367
	c-0.083-1.08,0.011-3.159,1.569-4.939c2.254-2.577,4.173-2.585,4.891-2.565l0.055,2h-0.063c-0.511-0.008-1.722-0.009-3.377,1.882
	c-0.95,1.085-1.11,2.358-1.094,3.17c0.278-0.12,0.504-0.235,0.653-0.334c0.214-0.144,0.215-0.151,0.272-0.574
	c0.034-0.252,0.077-0.565,0.198-0.93c0.467-1.401,2.166-2.21,3.787-1.808c1.36,0.341,2.24,1.347,2.476,2.834
	c0.222,1.394-0.617,2.786-2.042,3.386c-1.178,0.494-1.961,0.265-2.792,0.02c-0.276-0.082-0.587-0.174-0.965-0.25
	c-0.115-0.025-0.44,0.106-0.867,0.537c0.105,0.135,0.215,0.259,0.328,0.371c0.402,0.402,2.446,1.969,4.361,1.734
	c1.848-0.23,3.614-1.613,4.397-3.439c0.678-1.582,0.51-3.824-1.122-5.049l1.199-1.6c2.458,1.843,2.746,5.136,1.761,7.436
	c-1.053,2.458-3.459,4.321-5.987,4.637C12.653,23.3,12.434,23.313,12.217,23.313z M9.777,16.819
	c0.201,0.053,0.385,0.107,0.557,0.158c0.695,0.205,0.93,0.273,1.45,0.055c0.639-0.269,0.907-0.821,0.843-1.229
	c-0.141-0.887-0.601-1.11-0.985-1.207c-0.7-0.17-1.299,0.18-1.405,0.5c-0.062,0.187-0.086,0.362-0.114,0.565
	C10.077,15.997,10.021,16.407,9.777,16.819z"/>
<path style="fill:#333333;" d="M12.599,15.433C11.822,13.816,9.297,4.968,9.046,3.865c-0.253-1.116,0.274-2.17,1.409-2.822
	c0.341-0.195,0.736-0.239,1.112-0.126c0.385,0.117,0.709,0.393,0.892,0.758l4.936,9.879l-1.789,0.894l-4.606-9.221
	c-0.027,0.088-0.011,0.156-0.002,0.196c0.254,1.121,2.758,9.799,3.405,11.145L12.599,15.433z"/>
<path style="fill:#333333;" d="M17.001,13.549l-0.44-8.978c-0.099,0.08-0.12,0.168-0.131,0.216C16.171,5.897,16.006,7.514,16,9.004
	l-2-0.009c0.007-1.629,0.191-3.417,0.482-4.664c0.263-1.122,1.206-1.841,2.523-1.924c0.376-0.023,0.743,0.102,1.028,0.355
	c0.292,0.26,0.471,0.636,0.491,1.032l0.474,9.657L17.001,13.549z"/>
</svg>






