<?xml version="1.0" encoding="iso-8859-1"?>
<svg version="1.1" id="&#x56FE;&#x5C42;_1" xmlns="http://www.w3.org/2000/svg" xmlns:xlink="http://www.w3.org/1999/xlink" x="0px"
	 y="0px" viewBox="0 0 24 24" style="enable-background:new 0 0 24 24;" xml:space="preserve">
<path style="fill:#333333;" d="M18.5,19.5h-13V9.586c0-2.534,1.219-4.944,3.26-6.445L12,0.759l3.24,2.383
	c2.041,1.501,3.26,3.91,3.26,6.445V19.5z M7.5,17.5h9V9.586c0-1.901-0.914-3.708-2.445-4.833L12,3.241L9.945,4.753
	C8.414,5.879,7.5,7.686,7.5,9.586V17.5z"/>
<path style="fill:#333333;" d="M2.5,17.118v-6.032l3.293-3.293L7.5,8.5v6.118L2.5,17.118z M4.5,11.914v1.968l1-0.5v-2.468
	L4.5,11.914z"/>
<path style="fill:#333333;" d="M21.5,17.118l-5-2.5V8.5l1.707-0.707l3.293,3.293V17.118z M18.5,13.382l1,0.5v-1.968l-1-1V13.382z"/>
<rect x="8" y="19.5" style="fill:#333333;" width="2" height="1.5"/>
<rect x="11" y="19.5" style="fill:#333333;" width="2" height="2.5"/>
<rect x="14" y="19.5" style="fill:#333333;" width="2" height="1.5"/>
</svg>






