<?xml version="1.0" encoding="iso-8859-1"?>
<svg version="1.1" id="&#x56FE;&#x5C42;_1" xmlns="http://www.w3.org/2000/svg" xmlns:xlink="http://www.w3.org/1999/xlink" x="0px"
	 y="0px" viewBox="0 0 24 24" style="enable-background:new 0 0 24 24;" xml:space="preserve">
<path style="fill:#333333;" d="M22,7h-8l-1-1V2l1-1h8l1,1v4L22,7z M15,5h6V3h-6V5z"/>
<path style="fill:#333333;" d="M21,19H4c-1.654,0-3-1.346-3-3v-3c0-2.757,2.243-5,5-5h7V6l1-1h8l1,1v11C23,18.103,22.103,19,21,19z
	 M6,10c-1.654,0-3,1.346-3,3v3c0,0.552,0.449,1,1,1h17V7h-6v2l-1,1H6z"/>
<rect x="6" y="9" style="fill:#333333;" width="2" height="3"/>
<rect x="9.5" y="9" style="fill:#333333;" width="2" height="3"/>
<rect x="6" y="8" style="fill:#333333;" width="5.5" height="2"/>
<path style="fill:#333333;" d="M4.5,23c-1.654,0-3-1.346-3-3s1.346-3,3-3s3,1.346,3,3S6.154,23,4.5,23z M4.5,19
	c-0.551,0-1,0.448-1,1s0.449,1,1,1s1-0.448,1-1S5.051,19,4.5,19z"/>
<path style="fill:#333333;" d="M9.665,23c-1.654,0-3-1.346-3-3s1.346-3,3-3s3,1.346,3,3S11.319,23,9.665,23z M9.665,19
	c-0.551,0-1,0.448-1,1s0.449,1,1,1s1-0.448,1-1S10.216,19,9.665,19z"/>
<path style="fill:#333333;" d="M14.835,23c-1.654,0-3-1.346-3-3s1.346-3,3-3s3,1.346,3,3S16.489,23,14.835,23z M14.835,19
	c-0.552,0-1,0.448-1,1s0.448,1,1,1s1-0.448,1-1S15.387,19,14.835,19z"/>
<path style="fill:#333333;" d="M20,23c-1.654,0-3-1.346-3-3s1.346-3,3-3s3,1.346,3,3S21.654,23,20,23z M20,19c-0.552,0-1,0.448-1,1
	s0.448,1,1,1s1-0.448,1-1S20.552,19,20,19z"/>
</svg>






