<?xml version="1.0" encoding="iso-8859-1"?>
<svg version="1.1" id="&#x56FE;&#x5C42;_1" xmlns="http://www.w3.org/2000/svg" xmlns:xlink="http://www.w3.org/1999/xlink" x="0px"
	 y="0px" viewBox="0 0 24 24" style="enable-background:new 0 0 24 24;" xml:space="preserve">
<path style="fill:#333333;" d="M14,23h-4v-1c0-0.006-0.026-1.235-0.832-2.445c-0.374-0.562-0.988-0.82-1.438-0.939
	C6.711,18.345,6,17.476,6,16.501v-5.003L4.244,11.5c-0.89,0-1.66-0.573-1.916-1.426L1.246,6.467C0.994,5.627,1.325,4.719,2.05,4.259
	C3.676,3.229,7.13,1.5,12,1.5c4.517,0,7.88,1.495,9.906,2.748c0.752,0.467,1.097,1.392,0.838,2.25l-1.072,3.577
	c-0.256,0.853-1.025,1.426-1.916,1.426H18v5.001c0,0.975-0.712,1.844-1.73,2.114c-0.449,0.119-1.063,0.378-1.438,0.939
	C14.022,20.769,14,21.988,14,22V23z M11.882,21h0.236c0.136-0.679,0.426-1.619,1.05-2.555c0.571-0.856,1.467-1.467,2.59-1.764
	C15.911,16.641,16,16.529,16,16.501v-5.003c0-1.102,0.897-1.998,2-1.998h1.756l1.073-3.578C19.048,4.832,16.047,3.5,12,3.5
	c-4.365,0-7.436,1.534-8.879,2.448L4.244,9.5L3.286,9.787L4.244,9.5H6c1.103,0,2,0.896,2,1.998v5.003
	c0,0.028,0.089,0.14,0.243,0.181c1.123,0.298,2.019,0.907,2.589,1.764C11.456,19.381,11.747,20.321,11.882,21z"/>
<path style="fill:#333333;" d="M12,7.5c-2.206,0-4-1.794-4-4c0-0.339,0.042-0.676,0.126-1L10.063,3C10.021,3.162,10,3.33,10,3.5
	c0,1.103,0.897,2,2,2c1.103,0,2-0.897,2-2c0-0.169-0.021-0.338-0.063-0.501l1.938-0.497C15.958,2.828,16,3.164,16,3.5
	C16,5.706,14.206,7.5,12,7.5z"/>
<path style="fill:#333333;" d="M7.033,4.206L6.467,2.288c3.546-1.045,7.519-1.046,11.045,0l-0.568,1.917
	C13.786,3.269,10.21,3.27,7.033,4.206z"/>
</svg>






