<?xml version="1.0" encoding="iso-8859-1"?>
<svg version="1.1" id="&#x56FE;&#x5C42;_1" xmlns="http://www.w3.org/2000/svg" xmlns:xlink="http://www.w3.org/1999/xlink" x="0px"
	 y="0px" viewBox="0 0 24 24" style="enable-background:new 0 0 24 24;" xml:space="preserve">
<path style="fill:#333333;" d="M15.5,23c-2.481,0-4.5-2.019-4.5-4.5v-13C11,4.122,9.878,3,8.5,3S6,4.122,6,5.5V16H4V5.5
	C4,3.019,6.019,1,8.5,1S13,3.019,13,5.5v13c0,1.379,1.121,2.5,2.5,2.5s2.5-1.121,2.5-2.5V8h2v10.5C20,20.981,17.981,23,15.5,23z"/>
<path style="fill:none;" d="M20.5,2v6h-3V2H20.5z"/>
<path style="fill:#333333;" d="M22,9h-1.5V8v1H16V7h0.5V1h5v6H22V9z M18.5,7h1V3h-1V7z"/>
<path style="fill:none;" d="M3.5,22v-6h3v6H3.5z"/>
<path style="fill:#333333;" d="M7.5,23h-5v-6H2v-2h4.5v1v-1H8v2H7.5V23z M4.5,21h1v-4h-1V21z"/>
</svg>






