<?xml version="1.0" encoding="iso-8859-1"?>
<svg version="1.1" id="&#x56FE;&#x5C42;_1" xmlns="http://www.w3.org/2000/svg" xmlns:xlink="http://www.w3.org/1999/xlink" x="0px"
	 y="0px" viewBox="0 0 24 24" style="enable-background:new 0 0 24 24;" xml:space="preserve">
<path style="fill:#333333;" d="M21.5,20h-2v-9c-0.127-1.708-0.99-6.551-3.394-7.581c-0.953-0.408-1.86-0.167-2.547,0.193
	C15.051,5.325,16,7.716,16,10c0,3.341-1.57,5.5-4,5.5S8,13.341,8,10c0-2.284,0.949-4.675,2.44-6.388
	c-0.688-0.36-1.597-0.601-2.546-0.193c-2.404,1.03-3.267,5.874-3.396,7.653L4.5,20h-2v-9c0.058-0.85,0.66-7.728,4.606-9.419
	c1.535-0.659,3.253-0.446,4.836,0.599C11.961,2.192,11.98,2.205,12,2.218c0.02-0.013,0.039-0.026,0.058-0.039
	c1.586-1.044,3.304-1.256,4.836-0.599c3.946,1.691,4.548,8.569,4.604,9.348L21.5,20z M12,4.865C10.794,6.218,10,8.178,10,10
	c0,0.584,0.096,3.5,2,3.5c1.903,0,2-2.916,2-3.5C14,8.178,13.206,6.218,12,4.865z"/>
<rect x="2" y="14.5" style="fill:#333333;" width="3" height="2"/>
<rect x="19" y="14.5" style="fill:#333333;" width="3" height="2"/>
</svg>






