<?xml version="1.0" encoding="iso-8859-1"?>
<svg version="1.1" id="&#x56FE;&#x5C42;_1" xmlns="http://www.w3.org/2000/svg" xmlns:xlink="http://www.w3.org/1999/xlink" x="0px"
	 y="0px" viewBox="0 0 24 24" style="enable-background:new 0 0 24 24;" xml:space="preserve">
<path style="fill:#333333;" d="M12,23v-2c4.963,0,9-4.037,9-9c0-4.962-4.037-9-9-9V1c6.065,0,11,4.935,11,11S18.065,23,12,23z"/>
<path style="fill:#333333;" d="M12,23c-0.37,0-0.736-0.019-1.095-0.054l0.195-1.99C11.396,20.985,11.696,21,12,21V23z M7.718,22.136
	c-0.339-0.144-0.669-0.304-0.991-0.479l0.959-1.756c0.262,0.144,0.532,0.274,0.809,0.391L7.718,22.136z M4.111,19.665
	c-0.255-0.264-0.497-0.538-0.726-0.826l1.567-1.242c0.187,0.235,0.385,0.461,0.594,0.676L4.111,19.665z M1.747,15.991
	c-0.132-0.34-0.248-0.688-0.347-1.044l1.928-0.533c0.08,0.291,0.175,0.575,0.283,0.853L1.747,15.991z M3.003,11.741l-1.999-0.055
	c0.01-0.371,0.039-0.736,0.085-1.096l1.983,0.255C3.035,11.14,3.012,11.439,3.003,11.741z M3.811,8.261L1.992,7.429
	C2.145,7.094,2.314,6.768,2.5,6.453l1.726,1.011C4.074,7.721,3.936,7.987,3.811,8.261z M5.915,5.368L4.562,3.896
	c0.269-0.247,0.551-0.481,0.843-0.701l1.203,1.598C6.368,4.973,6.136,5.165,5.915,5.368z M8.976,3.521L8.304,1.637
	C8.647,1.514,8.999,1.408,9.358,1.32l0.478,1.942C9.543,3.334,9.256,3.42,8.976,3.521z"/>
</svg>






