<?xml version="1.0" encoding="iso-8859-1"?>
<svg version="1.1" id="&#x56FE;&#x5C42;_1" xmlns="http://www.w3.org/2000/svg" xmlns:xlink="http://www.w3.org/1999/xlink" x="0px"
	 y="0px" viewBox="0 0 24 24" style="enable-background:new 0 0 24 24;" xml:space="preserve">
<path style="fill:#333333;" d="M3,12H1c0-2.888,1.147-5.633,3.111-7.662H3.338v-2H7v1h1V7H6V5.293C4.117,6.984,3,9.422,3,12z"/>
<path style="fill:#333333;" d="M12,23c-2.889,0-5.633-1.147-7.662-3.111v0.773h-2V17h1v-1H7v2H5.293c1.69,1.883,4.129,3,6.707,3V23z
	"/>
<path style="fill:#333333;" d="M20.662,21.662H17v-1h-1V17h2v1.707c1.883-1.69,3-4.129,3-6.707h2c0,2.889-1.147,5.634-3.111,7.662
	h0.773V21.662z"/>
<path style="fill:#333333;" d="M20.662,8H17V6h1.706C17.016,4.117,14.577,3,12,3V1c2.889,0,5.633,1.147,7.662,3.112V3.338h2V7h-1V8z
	"/>
</svg>






