<?xml version="1.0" encoding="iso-8859-1"?>
<svg version="1.1" id="&#x56FE;&#x5C42;_1" xmlns="http://www.w3.org/2000/svg" xmlns:xlink="http://www.w3.org/1999/xlink" x="0px"
	 y="0px" viewBox="0 0 24 24" style="enable-background:new 0 0 24 24;" xml:space="preserve">
<path style="fill:#333333;" d="M12,23C5.935,23,1,18.065,1,12S5.935,1,12,1s11,4.935,11,11h-2c0-4.962-4.037-9-9-9
	c-4.962,0-9,4.038-9,9c0,4.963,4.038,9,9,9c3.021,0,5.826-1.504,7.5-4.024l1.666,1.107C19.12,21.162,15.693,23,12,23z"/>
<rect x="15" y="11" style="fill:#333333;" width="7" height="2"/>
<path style="fill:#333333;" d="M12,16c-2.206,0-4-1.794-4-4c0-2.206,1.794-4,4-4c2.206,0,4,1.794,4,4C16,14.206,14.206,16,12,16z
	 M12,10c-1.103,0-2,0.897-2,2c0,1.103,0.897,2,2,2c1.103,0,2-0.897,2-2C14,10.897,13.103,10,12,10z"/>
</svg>






