<?xml version="1.0" encoding="iso-8859-1"?>
<svg version="1.1" id="&#x56FE;&#x5C42;_1" xmlns="http://www.w3.org/2000/svg" xmlns:xlink="http://www.w3.org/1999/xlink" x="0px"
	 y="0px" viewBox="0 0 24 24" style="enable-background:new 0 0 24 24;" xml:space="preserve">
<path style="fill:#333333;" d="M7,8H3.338V7h-1V3.338h2v0.773C6.367,2.147,9.112,1,12,1v2C9.422,3,6.984,4.117,5.293,6H7V8z"/>
<path style="fill:#333333;" d="M7,21.662H3.338v-2h0.773C2.147,17.634,1,14.889,1,12h2c0,2.578,1.117,5.017,3,6.707V17h2v3.662H7
	V21.662z"/>
<path style="fill:#333333;" d="M12,23v-2c2.578,0,5.017-1.117,6.707-3H17v-2h3.662v1h1v3.662h-2v-0.773
	C17.634,21.853,14.889,23,12,23z"/>
<path style="fill:#333333;" d="M23,12h-2c0-2.578-1.117-5.016-3-6.707V7h-2V3.338h1v-1h3.662v2h-0.773C21.853,6.367,23,9.111,23,12z
	"/>
<rect x="9" y="11" style="fill:#333333;" width="6" height="2"/>
<rect x="11" y="9" style="fill:#333333;" width="2" height="6"/>
</svg>






