<?xml version="1.0" encoding="iso-8859-1"?>
<svg version="1.1" id="&#x56FE;&#x5C42;_1" xmlns="http://www.w3.org/2000/svg" xmlns:xlink="http://www.w3.org/1999/xlink" x="0px"
	 y="0px" viewBox="0 0 24 24" style="enable-background:new 0 0 24 24;" xml:space="preserve">
<path style="fill:#333333;" d="M22,22H5V11h17V22z M7,20h13v-7H7V20z"/>
<polygon style="fill:#333333;" points="7.5,9.5 2,9.5 2,4 4,4 4,7.5 7.5,7.5 "/>
<path style="fill:#333333;" d="M3.729,9.185l-1.457-1.37L4.128,5.84C5.974,3.427,8.866,2,12,2c3.155,0,6.161,1.516,8.041,4.054
	l-1.607,1.19C16.907,5.183,14.562,4,12,4C9.493,4,7.178,5.142,5.65,7.134L3.729,9.185z"/>
</svg>






