<?xml version="1.0" encoding="iso-8859-1"?>
<svg version="1.1" id="&#x56FE;&#x5C42;_1" xmlns="http://www.w3.org/2000/svg" xmlns:xlink="http://www.w3.org/1999/xlink" x="0px"
	 y="0px" viewBox="0 0 24 24" style="enable-background:new 0 0 24 24;" xml:space="preserve">
<polygon style="fill:#333333;" points="18.293,14.707 17,13.414 15.707,14.707 14.293,13.293 17,10.586 19.707,13.293 "/>
<path style="fill:#333333;" d="M12,23c-3.364,0-6-4.832-6-11C6,5.832,8.636,1,12,1c2.516,0,4.646,2.601,5.561,6.787l-1.953,0.427
	C14.937,5.144,13.453,3,12,3c-1.892,0-4,3.696-4,9s2.108,9,4,9c1.892,0,4-3.696,4-9h2C18,18.168,15.364,23,12,23z"/>
</svg>






