<?xml version="1.0" encoding="iso-8859-1"?>
<svg version="1.1" id="&#x56FE;&#x5C42;_1" xmlns="http://www.w3.org/2000/svg" xmlns:xlink="http://www.w3.org/1999/xlink" x="0px"
	 y="0px" viewBox="0 0 24 24" style="enable-background:new 0 0 24 24;" xml:space="preserve">
<path style="fill:#333333;" d="M12,23C5.935,23,1,18.065,1,12S5.935,1,12,1s11,4.935,11,11S18.065,23,12,23z M12,3
	c-4.962,0-9,4.038-9,9c0,4.963,4.038,9,9,9c4.963,0,9-4.037,9-9C21,7.038,16.963,3,12,3z"/>
<path style="fill:#333333;" d="M12,15c-1.654,0-3-1.346-3-3s1.346-3,3-3s3,1.346,3,3S13.654,15,12,15z M12,11c-0.551,0-1,0.449-1,1
	c0,0.552,0.449,1,1,1c0.552,0,1-0.448,1-1C13,11.449,12.552,11,12,11z"/>
<path style="fill:#333333;" d="M17.05,21.823l-3.215-5.065l0.844-0.535c0.709-0.45,1.298-1.078,1.703-1.814
	C16.786,13.672,17,12.839,17,12v-1h6v1c0,1.848-0.471,3.681-1.361,5.299c-0.89,1.62-2.185,2.999-3.744,3.989L17.05,21.823z
	 M16.557,17.313l1.08,1.702c0.915-0.735,1.683-1.648,2.25-2.68c0.567-1.032,0.926-2.169,1.058-3.336h-2.017
	c-0.12,0.829-0.389,1.635-0.793,2.372C17.729,16.109,17.192,16.768,16.557,17.313z"/>
<path style="fill:#333333;" d="M7.031,21.865l-0.849-0.529c-1.568-0.977-2.875-2.345-3.778-3.957
	C1.501,15.768,1.016,13.939,1,12.091l-0.008-1l6-0.05l0.008,1c0.007,0.84,0.228,1.67,0.638,2.402s1.004,1.354,1.718,1.8l0.848,0.529
	L7.031,21.865z M3.064,13.074c0.141,1.166,0.509,2.3,1.084,3.326c0.576,1.027,1.352,1.934,2.272,2.662l1.066-1.712
	c-0.641-0.541-1.183-1.195-1.594-1.928c-0.411-0.733-0.686-1.537-0.813-2.365L3.064,13.074z"/>
<path style="fill:#333333;" d="M15.303,8.114l-0.874-0.485C13.694,7.221,12.861,7.003,12.022,7
	c-0.869,0.007-1.673,0.207-2.412,0.608L8.732,8.086L5.865,2.815l0.878-0.478C8.365,1.454,10.187,0.948,12.048,1
	c1.848,0.008,3.678,0.487,5.294,1.384l0.874,0.485L15.303,8.114z M12.001,5c0.01,0,0.02,0,0.029,0
	c0.841,0.004,1.677,0.161,2.46,0.458l0.979-1.763C14.386,3.244,13.217,3.005,12.04,3c-0.014,0-0.026,0-0.039,0
	C10.836,3,9.68,3.228,8.604,3.666l0.963,1.771C10.344,5.149,11.17,5,12.001,5z"/>
</svg>






