<?xml version="1.0" encoding="iso-8859-1"?>
<svg version="1.1" id="&#x56FE;&#x5C42;_1" xmlns="http://www.w3.org/2000/svg" xmlns:xlink="http://www.w3.org/1999/xlink" x="0px"
	 y="0px" viewBox="0 0 24 24" style="enable-background:new 0 0 24 24;" xml:space="preserve">
<path style="fill:#333333;" d="M4.037,16.767c-0.444,0-0.889-0.105-1.307-0.316c-0.963-0.485-1.638-1.462-1.761-2.549
	c-0.18-1.58,0.495-3.923,0.572-4.185l0.477-1.612l2.631,2.63l12.672-7.798l4.896,1.088l0.311,1.826
	C21.889,6.247,6.862,15.58,5.5,16.366C5.039,16.633,4.538,16.767,4.037,16.767z M3.071,11.985c-0.103,0.603-0.167,1.231-0.115,1.691
	c0.047,0.418,0.312,0.806,0.674,0.988c0.289,0.146,0.581,0.137,0.87-0.03c1.035-0.598,10.586-6.519,14.889-9.189l-1.71-0.38
	L4.352,13.266L3.071,11.985z"/>
<polygon style="fill:#333333;" points="6.793,10.707 2.372,6.286 5.181,4.664 13.105,5.505 12.895,7.495 5.638,6.723 8.207,9.293 
	"/>
<polygon style="fill:#333333;" points="13.719,22.625 11.719,20.125 12.5,18.5 20,18.5 20,17.5 22,17.5 22,20.5 14.581,20.5 
	15.281,21.375 "/>
<polygon style="fill:#333333;" points="10.5,18.5 8.5,18.5 8.5,15.5 15.919,15.5 15.219,14.625 16.781,13.375 18.781,15.875 
	18,17.5 10.5,17.5 "/>
</svg>






