<?xml version="1.0" encoding="iso-8859-1"?>
<svg version="1.1" id="&#x56FE;&#x5C42;_1" xmlns="http://www.w3.org/2000/svg" xmlns:xlink="http://www.w3.org/1999/xlink" x="0px"
	 y="0px" viewBox="0 0 24 24" style="enable-background:new 0 0 24 24;" xml:space="preserve">
<path style="fill:#333333;" d="M21,22H3c-1.103,0-2-0.897-2-2v-5c0-1.103,0.897-2,2-2h18c1.103,0,2,0.897,2,2v5
	C23,21.103,22.103,22,21,22z M3,15H2.999L3,20h18v-5H3z"/>
<rect x="7" y="16.5" style="fill:#333333;" width="4" height="2"/>
<path style="fill:#333333;" d="M16,16.5L16,16.5c0.552,0,1,0.448,1,1l0,0c0,0.552-0.448,1-1,1l0,0c-0.552,0-1-0.448-1-1l0,0
	C15,16.948,15.448,16.5,16,16.5z"/>
<rect x="5" y="4" style="fill:#333333;" width="2" height="10"/>
<rect x="17" y="4" style="fill:#333333;" width="2" height="10"/>
</svg>






