<?xml version="1.0" encoding="iso-8859-1"?>
<svg version="1.1" id="&#x56FE;&#x5C42;_1" xmlns="http://www.w3.org/2000/svg" xmlns:xlink="http://www.w3.org/1999/xlink" x="0px"
	 y="0px" viewBox="0 0 24 24" style="enable-background:new 0 0 24 24;" xml:space="preserve">
<path style="fill:#333333;" d="M15.01,9c-1.93,0-3.5-1.57-3.5-3.5S13.08,2,15.01,2s3.5,1.57,3.5,3.5S16.939,9,15.01,9z M15.01,4
	c-0.827,0-1.5,0.673-1.5,1.5S14.183,7,15.01,7s1.5-0.673,1.5-1.5S15.837,4,15.01,4z"/>
<rect x="15.559" y="17.75" transform="matrix(0.4736 -0.8808 0.8808 0.4736 -6.3805 26.825)" style="fill:#333333;" width="7.382" height="2"/>
<polygon style="fill:#333333;" points="5.043,20.84 3.643,19.485 9.643,9.485 10.712,9.023 22.213,11.523 21.787,13.478 
	10.988,11.129 7.574,16.819 12.457,13.66 13.878,14.021 16.883,19.521 15.127,20.479 12.639,15.925 "/>
<rect x="2" y="19" style="fill:#333333;" width="20" height="2"/>
</svg>






