<?xml version="1.0" encoding="iso-8859-1"?>
<svg version="1.1" id="&#x56FE;&#x5C42;_1" xmlns="http://www.w3.org/2000/svg" xmlns:xlink="http://www.w3.org/1999/xlink" x="0px"
	 y="0px" viewBox="0 0 24 24" style="enable-background:new 0 0 24 24;" xml:space="preserve">
<path style="fill:#333333;" d="M19.627,19H4.373c-0.995,0-1.847-0.743-1.982-1.729l-1.227-9C1.086,7.698,1.259,7.12,1.639,6.685
	C2.019,6.25,2.568,6,3.146,6h17.709c0.577,0,1.127,0.25,1.506,0.685c0.38,0.436,0.554,1.014,0.476,1.586l-1.227,8.999
	C21.475,18.256,20.623,19,19.627,19z M3.146,8l1.227,9h15.254l1.227-9H3.146z"/>
<rect x="9.5" y="10" style="fill:#333333;" width="1" height="2"/>
<rect x="11.5" y="13" style="fill:#333333;" width="1" height="2"/>
<rect x="5.5" y="10" style="fill:#333333;" width="1" height="2"/>
<rect x="7.5" y="13" style="fill:#333333;" width="1" height="2"/>
<rect x="13.5" y="10" style="fill:#333333;" width="1" height="2"/>
<rect x="15.5" y="13" style="fill:#333333;" width="1" height="2"/>
<rect x="17.5" y="10" style="fill:#333333;" width="1" height="2"/>
</svg>






