<?xml version="1.0" encoding="iso-8859-1"?>
<svg version="1.1" id="&#x56FE;&#x5C42;_1" xmlns="http://www.w3.org/2000/svg" xmlns:xlink="http://www.w3.org/1999/xlink" x="0px"
	 y="0px" viewBox="0 0 24 24" style="enable-background:new 0 0 24 24;" xml:space="preserve">
<path style="fill:#333333;" d="M12,20.5c-5.168,0-9.678-3.39-10.966-8.243v-0.514C2.323,6.89,6.832,3.5,12,3.5
	c5.167,0,9.677,3.39,10.967,8.243v0.514C21.677,17.11,17.167,20.5,12,20.5z M3.039,12C4.184,15.841,7.83,18.5,12,18.5
	s7.815-2.659,8.961-6.5C19.815,8.16,16.169,5.5,12,5.5C7.83,5.5,4.184,8.16,3.039,12z"/>
<rect x="20" y="11" style="fill:#333333;" width="2" height="2"/>
<rect x="7" y="11" style="fill:#333333;" width="10" height="2"/>
<rect x="2" y="11" style="fill:#333333;" width="2" height="2"/>
<rect x="7.5" y="10" style="fill:#333333;" width="2" height="4"/>
<rect x="14.5" y="10" style="fill:#333333;" width="2" height="4"/>
<rect x="11" y="10" style="fill:#333333;" width="2" height="4"/>
</svg>






