<?xml version="1.0" encoding="iso-8859-1"?>
<svg version="1.1" id="&#x56FE;&#x5C42;_1" xmlns="http://www.w3.org/2000/svg" xmlns:xlink="http://www.w3.org/1999/xlink" x="0px"
	 y="0px" viewBox="0 0 24 24" style="enable-background:new 0 0 24 24;" xml:space="preserve">
<g>
	<defs>
		<rect id="SVGID_1_" width="24" height="24"/>
	</defs>
	<clipPath id="SVGID_00000047765446206896026680000001794479950329608383_">
		<use xlink:href="#SVGID_1_"  style="overflow:visible;"/>
	</clipPath>
	<g style="clip-path:url(#SVGID_00000047765446206896026680000001794479950329608383_);">
		<path style="fill:#333333;" d="M7.171,22.835c-1.73,0-3.252-0.531-4.363-1.643c-1.584-1.584-2.037-4.051-1.275-6.947
			c0.712-2.706,2.421-5.512,4.811-7.902s5.196-4.098,7.902-4.811c2.898-0.762,5.363-0.309,6.947,1.275
			c3.172,3.172,1.618,9.695-3.536,14.85C14.308,21.006,10.381,22.835,7.171,22.835z M16.852,3.172c-0.644,0-1.347,0.098-2.097,0.295
			C12.386,4.09,9.9,5.614,7.757,7.757s-3.667,4.628-4.29,6.998c-0.574,2.179-0.306,3.963,0.754,5.023
			c2.3,2.3,7.804,0.68,12.021-3.535c4.216-4.217,5.836-9.722,3.536-12.021C19.083,3.526,18.076,3.172,16.852,3.172z"/>
		
			<rect x="11" y="10" transform="matrix(0.707 -0.7072 0.7072 0.707 -4.9706 12.0013)" style="fill:#333333;" width="2" height="4"/>
		
			<rect x="13.122" y="7.878" transform="matrix(0.707 -0.7072 0.7072 0.707 -2.8489 12.8803)" style="fill:#333333;" width="2" height="4.001"/>
		
			<rect x="8.879" y="12.121" transform="matrix(0.707 -0.7072 0.7072 0.707 -7.092 11.1227)" style="fill:#333333;" width="2" height="4"/>
		
			<rect x="4.003" y="11.003" transform="matrix(0.7071 -0.7071 0.7071 0.7071 -4.9719 12.0032)" style="fill:#333333;" width="16" height="2"/>
		
			<rect x="5.343" y="12.657" transform="matrix(0.7071 -0.7071 0.7071 0.7071 -10.6274 9.6566)" style="fill:#333333;" width="2" height="10"/>
		
			<rect x="16.657" y="1.343" transform="matrix(0.7071 -0.7071 0.7071 0.7071 0.6866 14.3436)" style="fill:#333333;" width="2" height="10"/>
	</g>
</g>
</svg>






