<?xml version="1.0" encoding="iso-8859-1"?>
<svg version="1.1" id="&#x56FE;&#x5C42;_1" xmlns="http://www.w3.org/2000/svg" xmlns:xlink="http://www.w3.org/1999/xlink" x="0px"
	 y="0px" viewBox="0 0 24 24" style="enable-background:new 0 0 24 24;" xml:space="preserve">
<path style="fill:#333333;" d="M7,23.414L0.586,17L17,0.586L23.414,7L7,23.414z M3.414,17L7,20.586L20.586,7L17,3.414L3.414,17z"/>
<rect x="1.545" y="8.5" transform="matrix(0.7071 -0.7071 0.7071 0.7071 -3.935 9.5)" style="fill:#333333;" width="15.91" height="2"/>
<rect x="4.5" y="14.086" transform="matrix(0.7071 -0.7071 0.7071 0.7071 -9.3492 8.4289)" style="fill:#333333;" width="2" height="2.828"/>
<rect x="7.5" y="11.379" transform="matrix(0.7071 -0.7071 0.7071 0.7071 -7.0563 9.9645)" style="fill:#333333;" width="2" height="4.243"/>
<rect x="9.5" y="9.086" transform="matrix(0.7071 -0.7071 0.7071 0.7071 -4.3492 10.5)" style="fill:#333333;" width="2" height="2.828"/>
<rect x="12.5" y="6.379" transform="matrix(0.7071 -0.7071 0.7071 0.7071 -2.0563 12.0355)" style="fill:#333333;" width="2" height="4.243"/>
<rect x="14.5" y="4.086" transform="matrix(0.7071 -0.7071 0.7071 0.7071 0.6508 12.5711)" style="fill:#333333;" width="2" height="2.828"/>
</svg>






