<?xml version="1.0" encoding="iso-8859-1"?>
<svg version="1.1" id="&#x56FE;&#x5C42;_1" xmlns="http://www.w3.org/2000/svg" xmlns:xlink="http://www.w3.org/1999/xlink" x="0px"
	 y="0px" viewBox="0 0 24 24" style="enable-background:new 0 0 24 24;" xml:space="preserve">
<path style="fill:#333333;" d="M21,20H6.5C3.935,20,2,18.065,2,15.5S3.935,11,6.5,11h3v2h-3C5.051,13,4,14.052,4,15.5
	S5.051,18,6.5,18H21V20z"/>
<path style="fill:#333333;" d="M17.5,13h-8v-2h8c1.448,0,2.5-1.051,2.5-2.5S18.948,6,17.5,6h-9V4h9C20.065,4,22,5.935,22,8.5
	S20.065,13,17.5,13z"/>
<polygon style="fill:#333333;" points="19.207,22.207 17.793,20.793 19.586,19 17.793,17.207 19.207,15.793 22.414,19 "/>
<path style="fill:#333333;" d="M6,8.5C4.07,8.5,2.5,6.93,2.5,5S4.07,1.5,6,1.5S9.5,3.07,9.5,5S7.93,8.5,6,8.5z M6,3.5
	C5.173,3.5,4.5,4.173,4.5,5S5.173,6.5,6,6.5S7.5,5.827,7.5,5S6.827,3.5,6,3.5z"/>
</svg>






