<?xml version="1.0" encoding="iso-8859-1"?>
<svg version="1.1" id="&#x56FE;&#x5C42;_1" xmlns="http://www.w3.org/2000/svg" xmlns:xlink="http://www.w3.org/1999/xlink" x="0px"
	 y="0px" viewBox="0 0 24 24" style="enable-background:new 0 0 24 24;" xml:space="preserve">
<path style="fill:#333333;" d="M8.5,22C5.935,22,4,20.065,4,17.5V8h2v9.5C6,18.948,7.051,20,8.5,20s2.5-1.052,2.5-2.5v-2h2v2
	C13,20.065,11.065,22,8.5,22z"/>
<path style="fill:#333333;" d="M20,21h-2V6.5C18,5.051,16.948,4,15.5,4S13,5.051,13,6.5v9h-2v-9C11,3.935,12.935,2,15.5,2
	S20,3.935,20,6.5V21z"/>
<polygon style="fill:#333333;" points="19,22.414 15.793,19.207 17.207,17.793 19,19.586 20.793,17.793 22.207,19.207 "/>
<path style="fill:#333333;" d="M5,9C3.07,9,1.5,7.43,1.5,5.5S3.07,2,5,2s3.5,1.57,3.5,3.5S6.93,9,5,9z M5,4
	C4.173,4,3.5,4.673,3.5,5.5S4.173,7,5,7s1.5-0.673,1.5-1.5S5.827,4,5,4z"/>
</svg>






