<?xml version="1.0" encoding="iso-8859-1"?>
<svg version="1.1" id="&#x56FE;&#x5C42;_1" xmlns="http://www.w3.org/2000/svg" xmlns:xlink="http://www.w3.org/1999/xlink" x="0px"
	 y="0px" viewBox="0 0 24 24" style="enable-background:new 0 0 24 24;" xml:space="preserve">
<path style="fill:#333333;" d="M20,16h-2V6.5C18,5.051,16.948,4,15.5,4S13,5.051,13,6.5v2h-2v-2C11,3.935,12.935,2,15.5,2
	S20,3.935,20,6.5V16z"/>
<path style="fill:#333333;" d="M8.5,22C5.935,22,4,20.065,4,17.5V3h2v14.5C6,18.948,7.051,20,8.5,20s2.5-1.052,2.5-2.5v-9h2v9
	C13,20.065,11.065,22,8.5,22z"/>
<polygon style="fill:#333333;" points="6.793,6.207 5,4.414 3.207,6.207 1.793,4.793 5,1.586 8.207,4.793 "/>
<path style="fill:#333333;" d="M19,22c-1.93,0-3.5-1.57-3.5-3.5S17.07,15,19,15s3.5,1.57,3.5,3.5S20.93,22,19,22z M19,17
	c-0.827,0-1.5,0.673-1.5,1.5S18.173,20,19,20s1.5-0.673,1.5-1.5S19.827,17,19,17z"/>
</svg>






