<?xml version="1.0" encoding="iso-8859-1"?>
<svg version="1.1" id="&#x56FE;&#x5C42;_1" xmlns="http://www.w3.org/2000/svg" xmlns:xlink="http://www.w3.org/1999/xlink" x="0px"
	 y="0px" viewBox="0 0 24 24" style="enable-background:new 0 0 24 24;" xml:space="preserve">
<path style="fill:#333333;" d="M12.001,23.058l-0.325-0.112C6.188,21.057,2.5,15.781,2.5,9.819V3.82l9.504-2.865L21.5,3.821v6
	c0,5.961-3.687,11.235-9.174,13.124L12.001,23.058z M4.5,5.307v4.512c0,4.99,3,9.414,7.501,11.118
	c4.5-1.704,7.499-6.127,7.499-11.115V5.306l-7.496-2.262L4.5,5.307z"/>
<path style="fill:#333333;" d="M12,16c-2.481,0-4.5-2.019-4.5-4.5S9.519,7,12,7s4.5,2.019,4.5,4.5S14.481,16,12,16z M12,9
	c-1.378,0-2.5,1.122-2.5,2.5c0,1.379,1.122,2.5,2.5,2.5c1.379,0,2.5-1.121,2.5-2.5C14.5,10.122,13.379,9,12,9z"/>
<rect x="15.001" y="13.945" transform="matrix(0.7593 -0.6508 0.6508 0.7593 -6.7235 14.3247)" style="fill:#333333;" width="1.999" height="4.61"/>
<path style="fill:#333333;" d="M12.326,22.945l-0.651-1.891c4.68-1.611,7.825-6.126,7.825-11.233h2
	C21.5,15.782,17.813,21.057,12.326,22.945z"/>
</svg>






