<?xml version="1.0" encoding="iso-8859-1"?>
<svg version="1.1" id="&#x56FE;&#x5C42;_1" xmlns="http://www.w3.org/2000/svg" xmlns:xlink="http://www.w3.org/1999/xlink" x="0px"
	 y="0px" viewBox="0 0 24 24" style="enable-background:new 0 0 24 24;" xml:space="preserve">
<polygon style="fill:#333333;" points="9.5,16 5.5,16 4.752,14.336 8.752,9.835 10.248,11.165 7.727,14 9.5,14 "/>
<path style="fill:#333333;" d="M20.5,16h-12V1h1c5.552,0,11,6.935,11,14V16z M10.5,14h7.958C18.027,8.84,14.362,3.857,10.5,3.099V14
	z"/>
<path style="fill:#333333;" d="M15.558,22H3.279l-1.667-5H21l0.513,1.858l-4.675,2.788C16.45,21.878,16.008,22,15.558,22z M4.721,20
	h10.837c0.09,0,0.178-0.024,0.255-0.07L17.371,19H4.387L4.721,20z"/>
<rect x="8.5" y="15" style="fill:#333333;" width="2" height="3"/>
<rect x="14.5" y="9.5" style="fill:#333333;" width="6" height="2"/>
</svg>






