<?xml version="1.0" encoding="iso-8859-1"?>
<svg version="1.1" id="&#x56FE;&#x5C42;_1" xmlns="http://www.w3.org/2000/svg" xmlns:xlink="http://www.w3.org/1999/xlink" x="0px"
	 y="0px" viewBox="0 0 24 24" style="enable-background:new 0 0 24 24;" xml:space="preserve">
<polygon style="fill:#333333;" points="20.895,14.447 19.105,13.553 19.382,13 4.618,13 4.895,13.553 3.105,14.447 2.105,12.447 
	3,11 21,11 21.895,12.447 "/>
<path style="fill:#333333;" d="M14,13H5l-0.743-1.669l9-10L15,2v10L14,13z M7.245,11H13V4.606L7.245,11z"/>
<path style="fill:#333333;" d="M19,13h-5l-1-1V5.5l1.793-0.61l5,6.5L19,13z M15,11h1.969L15,8.44V11z"/>
<path style="fill:#333333;" d="M19.5,19c-0.589,0-1.178-0.148-1.726-0.444c-0.508-0.275-1.041-0.275-1.549,0
	c-1.096,0.592-2.355,0.592-3.451,0c-0.507-0.274-1.042-0.275-1.549,0c-1.097,0.592-2.354,0.592-3.451,0
	c-0.507-0.275-1.042-0.275-1.549,0c-1.097,0.592-2.354,0.592-3.451,0l-1.25-0.676l0.951-1.76l1.25,0.676
	c0.507,0.275,1.043,0.275,1.549,0c1.097-0.592,2.354-0.592,3.451,0c0.507,0.275,1.042,0.275,1.549,0
	c1.097-0.592,2.355-0.592,3.451,0c0.508,0.275,1.041,0.275,1.549,0c1.096-0.592,2.355-0.592,3.451,0
	c0.508,0.275,1.041,0.275,1.549,0l1.25-0.676l0.951,1.76l-1.25,0.676C20.678,18.852,20.089,19,19.5,19z"/>
<path style="fill:#333333;" d="M19.5,22c-0.589,0-1.178-0.148-1.726-0.444c-0.508-0.275-1.041-0.275-1.549,0
	c-1.096,0.592-2.355,0.592-3.451,0c-0.507-0.275-1.042-0.275-1.549,0c-1.097,0.592-2.354,0.592-3.451,0
	c-0.507-0.275-1.042-0.275-1.549,0c-1.097,0.592-2.354,0.592-3.451,0l-1.25-0.676l0.951-1.76l1.25,0.676
	c0.507,0.276,1.043,0.274,1.549,0c1.097-0.592,2.354-0.592,3.451,0c0.507,0.275,1.042,0.275,1.549,0
	c1.097-0.592,2.355-0.592,3.451,0c0.508,0.275,1.041,0.275,1.549,0c1.096-0.592,2.355-0.592,3.451,0
	c0.508,0.275,1.041,0.275,1.549,0l1.25-0.676l0.951,1.76l-1.25,0.676C20.678,21.852,20.089,22,19.5,22z"/>
</svg>






