<?xml version="1.0" encoding="iso-8859-1"?>
<svg version="1.1" id="&#x56FE;&#x5C42;_1" xmlns="http://www.w3.org/2000/svg" xmlns:xlink="http://www.w3.org/1999/xlink" x="0px"
	 y="0px" viewBox="0 0 24 24" style="enable-background:new 0 0 24 24;" xml:space="preserve">
<path style="fill:#333333;" d="M7.041,22.585c-0.101,0-0.202-0.003-0.304-0.01c-2.237-0.155-3.891-1.953-3.765-4.092l0.037-0.598
	c0.09-1.4,0.175-2.724-0.14-4.143c-0.281-1.266-0.5-2.578-0.731-3.966C2.033,9.152,1.927,8.516,1.812,7.87
	C1.402,5.553,2.748,3.282,4.944,2.586l0.354-0.112c1.368-0.434,2.815-0.203,3.97,0.633c1.137,0.822,1.799,2.1,1.816,3.506
	c0.03,2.53-0.009,4.456-0.119,5.723c-0.091,1.054,0.072,2.69,0.47,4.734c0.276,1.421-0.132,2.919-1.094,4.006
	C9.485,22.045,8.296,22.585,7.041,22.585z M5.903,4.38L5.548,4.493C4.305,4.887,3.546,6.188,3.782,7.521
	C3.897,8.174,4.005,8.816,4.11,9.448c0.228,1.361,0.442,2.647,0.711,3.861c0.377,1.697,0.279,3.226,0.184,4.704l-0.037,0.587
	c-0.061,1.031,0.777,1.9,1.907,1.979c0.745,0.047,1.45-0.242,1.968-0.827c0.552-0.625,0.788-1.484,0.629-2.299
	c-0.439-2.256-0.607-4.035-0.499-5.289c0.102-1.186,0.14-3.097,0.111-5.527C9.076,5.871,8.715,5.175,8.097,4.728
	C7.459,4.267,6.66,4.141,5.903,4.38z"/>
<path style="fill:#333333;" d="M16.553,22.031c-0.344,0-0.69-0.042-1.033-0.127c-2.095-0.521-3.417-2.53-3.009-4.573l0.063-0.318
	c0.266-1.312,0.494-2.444,0.427-3.969c-0.058-1.313-0.023-2.73,0.013-4.229c0.018-0.738,0.036-1.492,0.043-2.251
	c0.022-2.266,1.612-4.206,3.779-4.612l0.385-0.072c1.427-0.265,2.849,0.147,3.896,1.14c1.031,0.976,1.516,2.345,1.329,3.755
	c-0.381,2.885-0.747,5-1.09,6.284c-0.253,0.948-0.358,2.396-0.307,4.188c0.042,1.461-0.614,2.882-1.757,3.802
	C18.492,21.692,17.531,22.031,16.553,22.031z M18.062,3.8c-0.156,0-0.314,0.015-0.473,0.044h-0.001l-0.385,0.072
	c-1.23,0.231-2.135,1.352-2.147,2.666c-0.007,0.769-0.025,1.533-0.044,2.281c-0.035,1.464-0.068,2.848-0.014,4.093
	c0.078,1.769-0.186,3.072-0.464,4.452l-0.063,0.314c-0.201,1.01,0.457,1.974,1.531,2.24c0.712,0.18,1.436,0.009,2.036-0.474
	c0.657-0.529,1.035-1.346,1.011-2.185c-0.058-2.012,0.068-3.614,0.375-4.763c0.315-1.184,0.675-3.269,1.039-6.03
	c0.101-0.767-0.162-1.511-0.722-2.041C19.28,4.034,18.687,3.8,18.062,3.8z"/>
<path style="fill:#333333;" d="M9.051,14.816c-0.787-2.359-1.554-4.324-2.157-5.549c-0.696,1.058-1.627,2.88-1.901,5.343
	L3.006,14.39c0.532-4.793,3.174-7.484,3.287-7.597l1.481,0.074c1.08,1.32,2.453,5.151,3.175,7.317L9.051,14.816z"/>
<path style="fill:#333333;" d="M20.998,15.062l-1.996-0.125c0.153-2.447-0.968-4.96-1.707-6.328C16.284,9.555,15,10.837,15,12.75h-2
	c0-2.873,1.922-4.664,3.071-5.734c0.268-0.25,0.521-0.485,0.655-0.649l1.598,0.067C18.444,6.608,21.267,10.767,20.998,15.062z"/>
</svg>






