<?xml version="1.0" encoding="iso-8859-1"?>
<svg version="1.1" id="&#x56FE;&#x5C42;_1" xmlns="http://www.w3.org/2000/svg" xmlns:xlink="http://www.w3.org/1999/xlink" x="0px"
	 y="0px" viewBox="0 0 24 24" style="enable-background:new 0 0 24 24;" xml:space="preserve">
<path style="fill:#333333;" d="M18,12H2v-2h16c1.654,0,3-1.346,3-3s-1.346-3-3-3s-3,1.346-3,3h-2c0-2.757,2.243-5,5-5s5,2.243,5,5
	S20.757,12,18,12z"/>
<rect x="2" y="13.5" style="fill:#333333;" width="3" height="2"/>
<rect x="10.5" y="13.5" style="fill:#333333;" width="3" height="2"/>
<rect x="19" y="13.5" style="fill:#333333;" width="3" height="2"/>
<rect x="2" y="16.5" style="fill:#333333;" width="3" height="2"/>
<rect x="10.5" y="16.5" style="fill:#333333;" width="3" height="2"/>
<rect x="19" y="16.5" style="fill:#333333;" width="3" height="2"/>
<rect x="2" y="20" style="fill:#333333;" width="6" height="2"/>
<rect x="16" y="20" style="fill:#333333;" width="6" height="2"/>
</svg>






