<?xml version="1.0" encoding="iso-8859-1"?>
<svg version="1.1" id="&#x56FE;&#x5C42;_1" xmlns="http://www.w3.org/2000/svg" xmlns:xlink="http://www.w3.org/1999/xlink" x="0px"
	 y="0px" viewBox="0 0 24 24" style="enable-background:new 0 0 24 24;" xml:space="preserve">
<g>
	<defs>
		<rect id="SVGID_1_" width="24" height="24"/>
	</defs>
	<clipPath id="SVGID_00000070087235378208761010000001663436344542412709_">
		<use xlink:href="#SVGID_1_"  style="overflow:visible;"/>
	</clipPath>
	<g style="clip-path:url(#SVGID_00000070087235378208761010000001663436344542412709_);">
		<path style="fill:#333333;" d="M12.412,22.671c-2.296,0-4.131-1.805-4.22-1.893l1.412-1.417c0.017,0.018,1.709,1.664,3.371,1.239
			c1.902-0.493,7.274-5.866,7.769-7.769c0.429-1.654-1.223-3.353-1.239-3.37L20.92,8.05c0.102,0.101,2.477,2.516,1.759,5.284
			c-0.674,2.596-6.607,8.53-9.202,9.202C13.114,22.63,12.758,22.671,12.412,22.671z"/>
		<path style="fill:#333333;" d="M3.243,15.828c-0.102-0.102-2.476-2.515-1.759-5.284c0.673-2.595,6.607-8.529,9.203-9.202
			c2.77-0.72,5.183,1.657,5.284,1.758l-1.414,1.414c-0.015-0.015-1.718-1.664-3.368-1.236C9.286,3.771,3.914,9.144,3.42,11.046
			c-0.429,1.655,1.223,3.353,1.239,3.37L3.243,15.828z"/>
		<path style="fill:#333333;" d="M7.485,21.033c-1.152,0-2.305-0.438-3.182-1.315c-1.755-1.755-1.755-4.609,0-6.364l9.192-9.192
			c0.85-0.85,1.979-1.318,3.182-1.318s2.332,0.468,3.182,1.318c1.755,1.754,1.755,4.61,0,6.364l-9.192,9.192
			C9.79,20.595,8.638,21.033,7.485,21.033z M16.678,4.843c-0.668,0-1.296,0.26-1.768,0.732l-9.192,9.192
			c-0.472,0.473-0.732,1.101-0.732,1.768c0,0.668,0.26,1.296,0.732,1.769c0.975,0.975,2.561,0.975,3.536,0l9.192-9.192
			c0.473-0.473,0.732-1.1,0.732-1.768s-0.26-1.295-0.732-1.768C17.974,5.103,17.346,4.843,16.678,4.843z"/>
		<path style="fill:#333333;" d="M8.788,17.205L6.89,16.574l0.281-0.845c0.361-1.082,1.169-1.961,2.218-2.411l0.21-0.09
			c0.391-0.168,0.692-0.495,0.827-0.898c0.315-0.944,1.021-1.711,1.937-2.104l0.474-0.203c0.356-0.153,0.63-0.451,0.753-0.818
			c0.333-0.997,1.126-1.79,2.122-2.122l1.004-0.335l0.633,1.897L16.344,8.98c-0.402,0.134-0.724,0.456-0.858,0.859
			c-0.303,0.907-0.98,1.645-1.86,2.022l-0.475,0.204c-0.392,0.168-0.692,0.495-0.827,0.898c-0.315,0.944-1.021,1.711-1.936,2.104
			l-0.209,0.09c-0.524,0.226-0.929,0.664-1.109,1.205L8.788,17.205z"/>
	</g>
</g>
</svg>






