<?xml version="1.0" encoding="iso-8859-1"?>
<svg version="1.1" id="&#x56FE;&#x5C42;_1" xmlns="http://www.w3.org/2000/svg" xmlns:xlink="http://www.w3.org/1999/xlink" x="0px"
	 y="0px" viewBox="0 0 24 24" style="enable-background:new 0 0 24 24;" xml:space="preserve">
<path style="fill:none;" d="M13.5,4c-2.343,2.343-1.982,6.517-1.982,6.517S15.657,10.843,18,8.5s2.003-6.482,2.003-6.482
	S15.843,1.657,13.5,4z"/>
<path style="fill:#333333;" d="M12.05,11.534c-0.35,0-0.572-0.016-0.611-0.019l-0.845-0.066l-0.073-0.845
	c-0.017-0.189-0.371-4.668,2.271-7.311c2.642-2.643,7.108-2.29,7.296-2.271l0.842,0.073L21,1.936
	c0.015,0.188,0.347,4.631-2.293,7.271C16.615,11.299,13.391,11.534,12.05,11.534z M14.793,5.828l1.414,1.414l-2.086,2.086
	c1.081-0.217,2.294-0.657,3.172-1.535c1.381-1.381,1.672-3.564,1.72-4.788c-1.23,0.044-3.433,0.328-4.806,1.702
	c-0.892,0.892-1.324,2.136-1.53,3.237L14.793,5.828z"/>
<path style="fill:none;" d="M10,10.5c1.925,1.922,1.486,5.486,1.486,5.486S7.925,16.422,6,14.5
	c-1.925-1.922-1.484-5.486-1.484-5.486S8.075,8.578,10,10.5z"/>
<path style="fill:#333333;" d="M10.611,17.028c-1.343,0-3.74-0.246-5.317-1.82c-2.244-2.242-1.79-6.151-1.77-6.316L3.62,8.117
	l0.775-0.095c0.164-0.02,4.068-0.471,6.312,1.771c2.245,2.241,1.792,6.15,1.772,6.315l-0.096,0.775l-0.775,0.095
	C11.559,16.984,11.179,17.028,10.611,17.028z M5.473,9.975c0.007,1.031,0.188,2.774,1.233,3.817
	c0.608,0.608,1.452,0.924,2.255,1.084l-1.668-1.669l1.414-1.414l1.67,1.67c-0.159-0.803-0.475-1.647-1.084-2.255
	C8.254,10.17,6.506,9.985,5.473,9.975z"/>
<rect x="10.5" y="2" style="fill:#333333;" width="2" height="20"/>
</svg>






