<?xml version="1.0" encoding="iso-8859-1"?>
<svg version="1.1" id="&#x56FE;&#x5C42;_1" xmlns="http://www.w3.org/2000/svg" xmlns:xlink="http://www.w3.org/1999/xlink" x="0px"
	 y="0px" viewBox="0 0 24 24" style="enable-background:new 0 0 24 24;" xml:space="preserve">
<path style="fill:#333333;" d="M19.5,22h-15C3.122,22,2,20.879,2,19.5v-15C2,3.122,3.122,2,4.5,2h13.035L22,6.168V19.5
	C22,20.879,20.879,22,19.5,22z M4.5,4C4.224,4,4,4.224,4,4.5v15C4,19.775,4.224,20,4.5,20h15c0.275,0,0.5-0.225,0.5-0.5V7.038
	L16.746,4H4.5z"/>
<path style="fill:none;" d="M12.004,3L12,6.692C12,6.862,11.776,7,11.5,7h-4C7.224,7,7,6.862,7,6.692V3"/>
<path style="fill:#333333;" d="M11.5,8h-4C6.659,8,6,7.426,6,6.692V2h7.005L13,6.693C13,7.426,12.341,8,11.5,8z M8,6h3.001l0.002-2
	H8V6z"/>
<rect x="4.5" y="2" style="fill:#333333;" width="12.641" height="2"/>
<rect x="7" y="12" style="fill:#333333;" width="10" height="2"/>
<rect x="7" y="16" style="fill:#333333;" width="5.004" height="2"/>
</svg>






