<?xml version="1.0" encoding="iso-8859-1"?>
<svg version="1.1" id="&#x56FE;&#x5C42;_1" xmlns="http://www.w3.org/2000/svg" xmlns:xlink="http://www.w3.org/1999/xlink" x="0px"
	 y="0px" viewBox="0 0 24 24" style="enable-background:new 0 0 24 24;" xml:space="preserve">
<polygon style="fill:#333333;" points="22.5,8 15,8 15,6 20.5,6 20.5,5.187 14.814,3 9.186,3 3.5,5.187 3.5,6 9,6 9,8 1.5,8 
	1.5,3.813 8.814,1 15.186,1 22.5,3.813 "/>
<path style="fill:#333333;" d="M16,23H8V1h8V23z M10,21h4V3h-4V21z"/>
<rect x="9" y="5" style="fill:#333333;" width="2" height="2"/>
<rect x="9" y="14" style="fill:#333333;" width="2.5" height="2"/>
<rect x="9" y="8" style="fill:#333333;" width="2.5" height="2"/>
<rect x="9" y="11" style="fill:#333333;" width="2" height="2"/>
<rect x="9" y="17" style="fill:#333333;" width="2" height="2"/>
<rect x="8" y="5" style="fill:#333333;" width="2" height="14"/>
</svg>






