<?xml version="1.0" encoding="iso-8859-1"?>
<svg version="1.1" id="&#x56FE;&#x5C42;_1" xmlns="http://www.w3.org/2000/svg" xmlns:xlink="http://www.w3.org/1999/xlink" x="0px"
	 y="0px" viewBox="0 0 24 24" style="enable-background:new 0 0 24 24;" xml:space="preserve">
<g>
	<defs>
		<rect id="SVGID_1_" width="24" height="24"/>
	</defs>
	<clipPath id="SVGID_00000144319955135609858150000001025295511757698454_">
		<use xlink:href="#SVGID_1_"  style="overflow:visible;"/>
	</clipPath>
	<g style="clip-path:url(#SVGID_00000144319955135609858150000001025295511757698454_);">
		<path style="fill:#333333;" d="M10.874,12.485l-1.749-0.97c0.011-0.021,1.157-2.11,1.381-4.125c0.215-1.939-0.42-3.484-0.427-3.5
			L9.745,3.092l4.5-2.705l0.241,1.449C14.508,1.961,15,4.935,15,6.5h-2c0-0.75-0.139-1.933-0.268-2.874l-0.534,0.32
			c0.222,0.81,0.466,2.134,0.296,3.664C12.225,10.032,10.929,12.387,10.874,12.485z"/>
		<path style="fill:#333333;" d="M4.778,22.977c-0.859,0-1.724-0.186-2.378-0.677c-0.664-0.497-1.049-1.402-1.057-2.483
			c-0.012-1.573,0.753-3.109,2.045-4.107c1.011-0.781,1.584-1.105,2.139-1.418c0.57-0.322,1.16-0.654,2.361-1.583
			c1.86-1.436,6.598-8.602,8.266-11.242l0.589-0.932l3.896,3.03l-6.685,8.907c-0.751,1-1.202,2.229-1.681,3.53
			c-0.39,1.062-0.793,2.161-1.385,3.177c-1.078,1.854-2.292,2.642-3.442,3.217C6.802,22.717,5.794,22.977,4.778,22.977z
			 M17.252,3.463c-1.654,2.567-6.036,9.203-8.141,10.828c-1.316,1.017-1.999,1.401-2.601,1.742
			c-0.538,0.303-1.001,0.565-1.899,1.258c-1.187,0.918-1.271,2.154-1.268,2.511C3.347,20.318,3.502,20.627,3.6,20.7h0
			c0.584,0.438,2.138,0.312,2.953-0.095c0.851-0.426,1.753-0.964,2.608-2.434c0.503-0.864,0.859-1.834,1.236-2.86
			c0.507-1.38,1.031-2.806,1.958-4.042l5.505-7.334L17.252,3.463z"/>
		<path style="fill:#333333;" d="M12.055,15.832l-1.109-1.664c0.063-0.042,1.575-1.046,3.607-2.062
			c1.445-0.723,3.87-0.973,5.45-1.06L19.35,9.521c-1.421,0.085-3.391,0.435-4.143,1.186l-1.414-1.414C15.535,7.55,19.548,7.5,20,7.5
			h0.659l2.357,5.499L21.5,13c-1.187,0.001-4.589,0.162-6.053,0.895C13.532,14.852,12.069,15.822,12.055,15.832z"/>
	</g>
</g>
</svg>






