<?xml version="1.0" encoding="iso-8859-1"?>
<svg version="1.1" id="&#x56FE;&#x5C42;_1" xmlns="http://www.w3.org/2000/svg" xmlns:xlink="http://www.w3.org/1999/xlink" x="0px"
	 y="0px" viewBox="0 0 24 24" style="enable-background:new 0 0 24 24;" xml:space="preserve">
<polygon style="fill:#333333;" points="22,9 20,9 20,4 15,4 15,2 22,2 "/>
<polygon style="fill:#333333;" points="15.5,15.5 8.5,15.5 8.5,8.5 10.5,8.5 10.5,13.5 15.5,13.5 "/>
<rect x="7.118" y="7.75" transform="matrix(0.7071 -0.7071 0.7071 0.7071 -1.7206 13.3462)" style="fill:#333333;" width="16.263" height="2"/>
<path style="fill:#333333;" d="M20,22H4c-1.103,0-2-0.897-2-2V4c0-1.103,0.897-2,2-2h7v2H4v16h16v-7h2v7C22,21.103,21.103,22,20,22z
	"/>
</svg>






