<?xml version="1.0" encoding="iso-8859-1"?>
<svg version="1.1" id="&#x56FE;&#x5C42;_1" xmlns="http://www.w3.org/2000/svg" xmlns:xlink="http://www.w3.org/1999/xlink" x="0px"
	 y="0px" viewBox="0 0 24 24" style="enable-background:new 0 0 24 24;" xml:space="preserve">
<path style="fill:#333333;" d="M20,22.5H4c-1.378,0-2.5-1.121-2.5-2.5V4c0-1.378,1.122-2.5,2.5-2.5h16c1.379,0,2.5,1.122,2.5,2.5v16
	C22.5,21.379,21.379,22.5,20,22.5z M4,3.5C3.724,3.5,3.5,3.724,3.5,4v16c0,0.275,0.224,0.5,0.5,0.5h16c0.275,0,0.5-0.225,0.5-0.5V4
	c0-0.276-0.225-0.5-0.5-0.5H4z"/>
<path style="fill:#333333;" d="M10.332,15.055l-1.664-1.109c0.776-1.163,0.776-2.727,0-3.891l1.664-1.109
	C11.55,10.772,11.55,13.228,10.332,15.055z"/>
<polygon style="fill:#333333;" points="17.445,17.832 8.697,12 17.445,6.168 18.555,7.832 12.303,12 18.555,16.168 "/>
<path style="fill:#333333;" d="M8,11c-1.654,0-3-1.346-3-3s1.346-3,3-3s3,1.346,3,3S9.654,11,8,11z M8,7C7.449,7,7,7.449,7,8
	s0.449,1,1,1s1-0.449,1-1S8.551,7,8,7z"/>
<path style="fill:#333333;" d="M8,19c-1.654,0-3-1.346-3-3s1.346-3,3-3s3,1.346,3,3S9.654,19,8,19z M8,15c-0.551,0-1,0.448-1,1
	s0.449,1,1,1s1-0.448,1-1S8.551,15,8,15z"/>
</svg>






