<?xml version="1.0" encoding="iso-8859-1"?>
<svg version="1.1" id="&#x56FE;&#x5C42;_1" xmlns="http://www.w3.org/2000/svg" xmlns:xlink="http://www.w3.org/1999/xlink" x="0px"
	 y="0px" viewBox="0 0 24 24" style="enable-background:new 0 0 24 24;" xml:space="preserve">
<path style="fill:#333333;" d="M9,6H7c0-1.103-0.897-2-2-2S3,4.897,3,6H1c0-2.206,1.794-4,4-4S9,3.794,9,6z"/>
<path style="fill:#333333;" d="M15,6h-2c0-1.103-0.897-2-2-2C9.897,4,9,4.897,9,6H7c0-2.206,1.794-4,4-4C13.206,2,15,3.794,15,6z"/>
<path style="fill:#333333;" d="M17,21c-2.206,0-4-1.794-4-4h2c0,1.103,0.897,2,2,2s2-0.897,2-2h2C21,19.206,19.206,21,17,21z"/>
<rect x="1" y="6" style="fill:#333333;" width="2" height="9"/>
<rect x="7" y="6" style="fill:#333333;" width="2" height="9"/>
<rect x="13" y="6" style="fill:#333333;" width="2" height="11"/>
<rect x="19" y="11.5" style="fill:#333333;" width="2" height="5.5"/>
<polygon style="fill:#333333;" points="21.293,14.207 20,12.914 18.707,14.207 17.293,12.793 20,10.086 22.707,12.793 "/>
</svg>






