<?xml version="1.0" encoding="iso-8859-1"?>
<svg version="1.1" id="&#x56FE;&#x5C42;_1" xmlns="http://www.w3.org/2000/svg" xmlns:xlink="http://www.w3.org/1999/xlink" x="0px"
	 y="0px" viewBox="0 0 24 24" style="enable-background:new 0 0 24 24;" xml:space="preserve">
<path style="fill:#333333;" d="M5,22c-2.206,0-4-1.794-4-4s1.794-4,4-4s4,1.794,4,4S7.206,22,5,22z M5,16c-1.103,0-2,0.897-2,2
	s0.897,2,2,2s2-0.897,2-2S6.103,16,5,16z"/>
<path style="fill:#333333;" d="M5,22c-1.068,0-2.073-0.416-2.829-1.172l1.414-1.414c0.756,0.756,2.073,0.756,2.829,0
	c0.96-0.96,7.782-9.609,12.83-16.032l1.572,1.236c-8.294,10.553-12.178,15.4-12.988,16.21C7.073,21.584,6.068,22,5,22z"/>
<path style="fill:#333333;" d="M19,22c-2.206,0-4-1.794-4-4s1.794-4,4-4s4,1.794,4,4S21.206,22,19,22z M19,16c-1.103,0-2,0.897-2,2
	s0.897,2,2,2s2-0.897,2-2S20.103,16,19,16z"/>
<path style="fill:#333333;" d="M19,22c-1.069,0-2.073-0.416-2.828-1.172c-0.844-0.844-5.083-6.146-12.959-16.212l1.575-1.232
	c9.612,12.284,12.266,15.498,12.798,16.03c0.756,0.756,2.072,0.756,2.828,0l1.414,1.414C21.072,21.584,20.068,22,19,22z"/>
</svg>






