<?xml version="1.0" encoding="iso-8859-1"?>
<svg version="1.1" id="&#x56FE;&#x5C42;_1" xmlns="http://www.w3.org/2000/svg" xmlns:xlink="http://www.w3.org/1999/xlink" x="0px"
	 y="0px" viewBox="0 0 24 24" style="enable-background:new 0 0 24 24;" xml:space="preserve">
<path style="fill:#333333;" d="M4,8H2V4c0-1.103,0.897-2,2-2h4v2H4V8z"/>
<path style="fill:#333333;" d="M8,22H4c-1.103,0-2-0.897-2-2v-4h2v4h4V22z"/>
<path style="fill:#333333;" d="M20,22h-4v-2h4v-4h2v4C22,21.103,21.103,22,20,22z"/>
<path style="fill:#333333;" d="M22,8h-2V4h-4V2h4c1.103,0,2,0.897,2,2V8z"/>
<path style="fill:#333333;" d="M16,18H8c-1.103,0-2-0.897-2-2V8c0-1.103,0.897-2,2-2h8c1.103,0,2,0.897,2,2v8
	C18,17.103,17.103,18,16,18z M8,8H7.999L8,16h8V8H8z"/>
</svg>






