<?xml version="1.0" encoding="iso-8859-1"?>
<svg version="1.1" id="&#x56FE;&#x5C42;_1" xmlns="http://www.w3.org/2000/svg" xmlns:xlink="http://www.w3.org/1999/xlink" x="0px"
	 y="0px" viewBox="0 0 24 24" style="enable-background:new 0 0 24 24;" xml:space="preserve">
<path style="fill:#333333;" d="M18.5,22.5h-13c-1.103,0-2-0.897-2-2V11h2v-1h-2V6.125l3.449-3.942C7.329,1.749,7.877,1.5,8.454,1.5
	H18.5c1.103,0,2,0.897,2,2v17C20.5,21.603,19.603,22.5,18.5,22.5z M5.5,13v7.5h13v-17H8.454L5.5,6.875V8h2v5H5.5z"/>
<rect x="15.5" y="5.5" style="fill:#333333;" width="2" height="2"/>
<rect x="9.5" y="5.5" style="fill:#333333;" width="2" height="2"/>
<rect x="12.5" y="5.5" style="fill:#333333;" width="2" height="2"/>
</svg>






