<?xml version="1.0" encoding="iso-8859-1"?>
<svg version="1.1" id="&#x56FE;&#x5C42;_1" xmlns="http://www.w3.org/2000/svg" xmlns:xlink="http://www.w3.org/1999/xlink" x="0px"
	 y="0px" viewBox="0 0 24 24" style="enable-background:new 0 0 24 24;" xml:space="preserve">
<path style="fill:#333333;" d="M10.5,20C5.262,20,1,15.738,1,10.5S5.262,1,10.5,1S20,5.262,20,10.5S15.738,20,10.5,20z M10.5,3
	C6.364,3,3,6.364,3,10.5S6.364,18,10.5,18s7.5-3.364,7.5-7.5S14.636,3,10.5,3z"/>
<path style="fill:#333333;" d="M12.621,7.878c-1.133-1.133-3.109-1.133-4.242,0L6.965,6.464C7.909,5.52,9.165,5,10.5,5
	s2.591,0.52,3.535,1.464L12.621,7.878z"/>
<rect x="17.732" y="15.732" transform="matrix(0.707 -0.7072 0.7072 0.707 -7.7594 18.7351)" style="fill:#333333;" width="2" height="6"/>
</svg>






