<?xml version="1.0" encoding="iso-8859-1"?>
<svg version="1.1" id="&#x56FE;&#x5C42;_1" xmlns="http://www.w3.org/2000/svg" xmlns:xlink="http://www.w3.org/1999/xlink" x="0px"
	 y="0px" viewBox="0 0 24 24" style="enable-background:new 0 0 24 24;" xml:space="preserve">
<path style="fill:#333333;" d="M10,21.5c-3.309,0-6-2.691-6-6c0-2.635,1.688-4.936,4.2-5.725l0.6,1.908
	C7.125,12.209,6,13.743,6,15.5c0,2.206,1.794,4,4,4c1.27,0,2.437-0.583,3.2-1.601c0.098-0.129,0.186-0.262,0.266-0.4l1.73,1.002
	c-0.121,0.209-0.254,0.41-0.398,0.602C13.654,20.625,11.905,21.5,10,21.5z"/>
<path style="fill:#333333;" d="M20,21.5h-2v-6h-7V7.044l1.359,0.522C15.492,8.771,17.11,9,19,9v2c-1.786,0-3.418-0.189-6-1.071V13.5
	h7V21.5z"/>
<path style="fill:#333333;" d="M12,7c-1.654,0-3-1.346-3-3s1.346-3,3-3s3,1.346,3,3S13.654,7,12,7z M12,3c-0.551,0-1,0.449-1,1
	s0.449,1,1,1c0.552,0,1-0.449,1-1S12.552,3,12,3z"/>
</svg>






