<?xml version="1.0" encoding="iso-8859-1"?>
<svg version="1.1" id="&#x56FE;&#x5C42;_1" xmlns="http://www.w3.org/2000/svg" xmlns:xlink="http://www.w3.org/1999/xlink" x="0px"
	 y="0px" viewBox="0 0 24 24" style="enable-background:new 0 0 24 24;" xml:space="preserve">
<path style="fill:#333333;" d="M22,13h-2v-2c0-4.411-3.589-8-8-8s-8,3.589-8,8v2H2v-2C2,5.486,6.486,1,12,1c5.514,0,10,4.486,10,10
	V13z"/>
<path style="fill:#333333;" d="M17,13.5h-2V6c0-1.654-1.346-3-3-3S9,4.346,9,6v7.5H7V6c0-2.757,2.243-5,5-5s5,2.243,5,5V13.5z"/>
<path style="fill:#333333;" d="M15,23c-2.206,0-4-1.794-4-4v-7h2v7c0,1.103,0.897,2,2,2s2-0.897,2-2v-1.444h2V19
	C19,21.206,17.206,23,15,23z"/>
<rect x="6" y="11" style="fill:#333333;" width="15" height="2"/>
</svg>






