<?xml version="1.0" encoding="iso-8859-1"?>
<svg version="1.1" id="&#x56FE;&#x5C42;_1" xmlns="http://www.w3.org/2000/svg" xmlns:xlink="http://www.w3.org/1999/xlink" x="0px"
	 y="0px" viewBox="0 0 24 24" style="enable-background:new 0 0 24 24;" xml:space="preserve">
<rect x="11" y="13" style="fill:#333333;" width="2" height="8"/>
<path style="fill:#333333;" d="M12.913,14.955c-0.466,0-0.92-0.174-1.269-0.49C11.235,14.094,11,13.56,11,13V8.814
	c0-0.244,0.044-0.481,0.13-0.704c1.907-4.936,6.949-5.055,8.848-5.1c0.535-0.021,1.075,0.204,1.453,0.596
	c0.374,0.388,0.57,0.919,0.538,1.457c-0.501,8.421-6.919,9.693-8.874,9.883C13.034,14.952,12.974,14.955,12.913,14.955z
	 M19.97,4.995c-2.731,0.083-5.722,0.594-6.975,3.837L13,12.945C15.482,12.68,19.573,11.278,19.97,4.995z"/>
<path style="fill:#333333;" d="M11.046,13.93c-0.065,0-0.129-0.004-0.194-0.01c-8.711-0.876-8.81-7.436-8.848-9.905
	C1.996,3.463,2.22,2.932,2.618,2.556c0.39-0.368,0.921-0.558,1.454-0.517c4.751,0.349,7.635,2.991,8.749,5.349
	C12.939,7.64,13,7.914,13,8.203v3.752c0,0.562-0.238,1.099-0.652,1.473C11.989,13.752,11.523,13.93,11.046,13.93z M3.991,4.039
	c0.074,3.728,0.978,7.28,7.062,7.891L11,8.203C10.184,6.489,7.85,4.344,3.991,4.039z M3.926,4.033
	C3.926,4.034,3.926,4.034,3.926,4.033C3.926,4.034,3.926,4.034,3.926,4.033L3.926,4.033z"/>
</svg>






