<?xml version="1.0" encoding="iso-8859-1"?>
<svg version="1.1" id="&#x56FE;&#x5C42;_1" xmlns="http://www.w3.org/2000/svg" xmlns:xlink="http://www.w3.org/1999/xlink" x="0px"
	 y="0px" viewBox="0 0 24 24" style="enable-background:new 0 0 24 24;" xml:space="preserve">
<path style="fill:#333333;" d="M7,7H1V1h6V7z M3,5h2V3H3V5z"/>
<path style="fill:#333333;" d="M23,23h-6v-6h6V23z M19,21h2v-2h-2V21z"/>
<path style="fill:#333333;" d="M7,23H1v-6h6V23z M3,21h2v-2H3V21z"/>
<path style="fill:#333333;" d="M23,7h-6V1h6V7z M19,5h2V3h-2V5z"/>
<rect x="3" y="6" style="fill:#333333;" width="2" height="12"/>
<rect x="19" y="6" style="fill:#333333;" width="2" height="12"/>
<rect x="6" y="3" style="fill:#333333;" width="12" height="2"/>
<rect x="6" y="19" style="fill:#333333;" width="12" height="2"/>
</svg>






