<?xml version="1.0" encoding="iso-8859-1"?>
<svg version="1.1" id="&#x56FE;&#x5C42;_1" xmlns="http://www.w3.org/2000/svg" xmlns:xlink="http://www.w3.org/1999/xlink" x="0px"
	 y="0px" viewBox="0 0 24 24" style="enable-background:new 0 0 24 24;" xml:space="preserve">
<path style="fill:#333333;" d="M7,7H1V1h6V7z M3,5h2V3H3V5z"/>
<path style="fill:#333333;" d="M23,23h-6v-6h6V23z M19,21h2v-2h-2V21z"/>
<path style="fill:#333333;" d="M7,23H1v-6h6V23z M3,21h2v-2H3V21z"/>
<path style="fill:#333333;" d="M23,7h-6V1h6V7z M19,5h2V3h-2V5z"/>
<path style="fill:#333333;" d="M5,18H3v-0.5h2V18z M5,15H3v-0.5h2V15z M5,12H3v-0.5h2V12z M5,9H3V8.5h2V9z"/>
<path style="fill:#333333;" d="M21,18h-2v-0.5h2V18z M21,15h-2v-0.5h2V15z M21,12h-2v-0.5h2V12z M21,9h-2V8.5h2V9z"/>
<path style="fill:#333333;" d="M15.5,5H15V3h0.5V5z M12.5,5H12V3h0.5V5z M9.5,5H9V3h0.5V5z M6.5,5H6V3h0.5V5z"/>
<path style="fill:#333333;" d="M15.5,21H15v-2h0.5V21z M12.5,21H12v-2h0.5V21z M9.5,21H9v-2h0.5V21z M6.5,21H6v-2h0.5V21z"/>
</svg>






