<?xml version="1.0" encoding="iso-8859-1"?>
<svg version="1.1" id="&#x56FE;&#x5C42;_1" xmlns="http://www.w3.org/2000/svg" xmlns:xlink="http://www.w3.org/1999/xlink" x="0px"
	 y="0px" viewBox="0 0 24 24" style="enable-background:new 0 0 24 24;" xml:space="preserve">
<g>
	<defs>
		<rect id="SVGID_1_" width="24" height="24"/>
	</defs>
	<clipPath id="SVGID_00000054967249799706504060000008852746711929942403_">
		<use xlink:href="#SVGID_1_"  style="overflow:visible;"/>
	</clipPath>
	<g style="clip-path:url(#SVGID_00000054967249799706504060000008852746711929942403_);">
		<path style="fill:#333333;" d="M18.99,15.876l-0.211-1.988c0.258-0.032,1.588-0.267,1.638-1.657c0.001-0.032,0-0.065-0.001-0.1
			c-0.977,0.698-2.031,0.896-2.82,0.51c-0.435-0.213-1.155-0.781-1.094-2.199c0.081-1.878,1.211-2.493,2.178-2.465
			c0.604,0.023,1.26,0.306,1.853,0.757c0.183-0.549,0.258-1.233,0.023-2.01c-0.362-1.203-0.986-2.021-1.854-2.429
			c-1.191-0.56-2.691-0.309-3.695,0.116l-0.777-1.843c0.679-0.286,3.074-1.141,5.324-0.083c1.403,0.66,2.386,1.892,2.919,3.662
			c0.495,1.645,0.142,3.135-0.518,4.269c0.306,0.588,0.484,1.234,0.461,1.885C22.325,14.853,20.136,15.755,18.99,15.876z
			 M18.588,9.975c0.008,0.019-0.071,0.169-0.088,0.553c-0.007,0.149,0.006,0.25,0.02,0.31c0.154-0.013,0.489-0.125,0.883-0.447
			C19.003,10.057,18.685,9.976,18.588,9.975z"/>
		<path style="fill:#333333;" d="M5.49,13.719c-0.692,0-1.365-0.358-1.735-1l-2-3.464C1.203,8.3,1.532,7.074,2.487,6.523v0
			l9.526-5.5c0.958-0.55,2.181-0.222,2.732,0.732l2,3.464c0.551,0.955,0.223,2.181-0.732,2.732l-9.526,5.5
			C6.173,13.633,5.829,13.719,5.49,13.719z M3.487,8.254L3.487,8.254l2,3.464l9.526-5.5l-2-3.464L3.487,8.254z"/>
		
			<rect x="11.625" y="9.333" transform="matrix(0.866 -0.5 0.5 0.866 -4.8499 8.0653)" style="fill:#333333;" width="2" height="7.5"/>
		<path style="fill:#333333;" d="M16.253,21.862c-0.217,0-0.435-0.028-0.649-0.086c-0.646-0.173-1.185-0.587-1.519-1.165l-1-1.732
			c-0.334-0.577-0.423-1.25-0.25-1.896c0.172-0.646,0.586-1.186,1.165-1.52l0,0c0.579-0.333,1.256-0.42,1.896-0.249
			c0.646,0.173,1.185,0.586,1.519,1.164l1,1.732c0.688,1.194,0.278,2.726-0.915,3.415C17.114,21.749,16.687,21.862,16.253,21.862z
			 M15.248,17.129c-0.072,0-0.159,0.016-0.248,0.067l0,0c-0.156,0.09-0.213,0.229-0.233,0.304c-0.02,0.074-0.04,0.223,0.05,0.378
			l1.001,1.733c0.137,0.239,0.444,0.321,0.683,0.183c0.238-0.138,0.32-0.444,0.183-0.683l-1-1.732
			c-0.09-0.155-0.229-0.213-0.304-0.232C15.347,17.138,15.302,17.129,15.248,17.129z"/>
		
			<rect x="5.5" y="2.34" transform="matrix(0.8661 -0.4999 0.4999 0.8661 -0.7322 3.9466)" style="fill:#333333;" width="3" height="2"/>
		
			<rect x="10.75" y="11.433" transform="matrix(0.8661 -0.4999 0.4999 0.8661 -4.5748 7.789)" style="fill:#333333;" width="3" height="2"/>
	</g>
</g>
</svg>






