<?xml version="1.0" encoding="iso-8859-1"?>
<svg version="1.1" id="&#x56FE;&#x5C42;_1" xmlns="http://www.w3.org/2000/svg" xmlns:xlink="http://www.w3.org/1999/xlink" x="0px"
	 y="0px" viewBox="0 0 24 24" style="enable-background:new 0 0 24 24;" xml:space="preserve">
<path style="fill:#333333;" d="M20.5,22h-11C8.673,22,8,21.327,8,20.5V15h2v5h10V10h-5V8h5.5C21.327,8,22,8.673,22,9.5v11
	C22,21.327,21.327,22,20.5,22z"/>
<polygon style="fill:#333333;" points="4,5.017 2,5.017 2,2 4.984,2 4.984,4 4,4 "/>
<polygon style="fill:#333333;" points="4.999,16 2,16 2,13.006 4,13.006 4,14 4.999,14 "/>
<polygon style="fill:#333333;" points="15.999,16 13,16 13,14 13.999,14 13.999,13.006 15.999,13.006 "/>
<polygon style="fill:#333333;" points="16,4.999 14,4.999 14,4 13.001,4 13.001,2 16,2 "/>
<rect x="8.014" y="2" style="fill:#333333;" width="1.99" height="2"/>
<rect x="2" y="8" style="fill:#333333;" width="2" height="2.007"/>
<rect x="14" y="8" style="fill:#333333;" width="2" height="2.007"/>
<rect x="7.996" y="14" style="fill:#333333;" width="2.004" height="2"/>
</svg>






