<?xml version="1.0" encoding="iso-8859-1"?>
<svg version="1.1" id="&#x56FE;&#x5C42;_1" xmlns="http://www.w3.org/2000/svg" xmlns:xlink="http://www.w3.org/1999/xlink" x="0px"
	 y="0px" viewBox="0 0 24 24" style="enable-background:new 0 0 24 24;" xml:space="preserve">
<path style="fill:#333333;" d="M14.5,8C12.57,8,11,6.43,11,4.5S12.57,1,14.5,1S18,2.57,18,4.5S16.43,8,14.5,8z M14.5,3
	C13.673,3,13,3.673,13,4.5S13.673,6,14.5,6S16,5.327,16,4.5S15.327,3,14.5,3z"/>
<path style="fill:#333333;" d="M14.706,22.315l-1.67-5.02l-3.802-3.012l-0.26-1.257l2.145-4l1.762,0.945l-1.75,3.263l3.145,2.49
	c0.293,0.229,0.521,0.549,0.652,0.922l1.676,5.037L14.706,22.315z"/>
<path style="fill:#333333;" d="M5.582,21.055l-1.664-1.109c0.261-0.392,0.655-0.864,1.112-1.41c0.475-0.569,1.014-1.215,1.399-1.779
	l2.599-3.818l1.653,1.125l-2.6,3.82c-0.441,0.646-1.012,1.33-1.517,1.934C6.163,20.298,5.783,20.753,5.582,21.055z"/>
<path style="fill:#333333;" d="M17.544,13.05c-0.368,0-0.718-0.091-1.023-0.263l-1.65-0.964c-1.9-1.114-3.971-1.877-6.157-2.269
	L7.795,9.392L6.866,11L5.134,10l1.28-2.215L7.454,7.3l1.61,0.285c2.42,0.435,4.713,1.28,6.816,2.512l1.634,0.955L20.985,11l0.029,2
	L17.544,13.05C17.544,13.05,17.544,13.05,17.544,13.05z"/>
<path style="fill:#333333;" d="M5.629,16.654l-4.919-2.84l3.25-5.629l4.919,2.84L5.629,16.654z M3.442,13.082l1.454,0.84l1.25-2.165
	l-1.454-0.84L3.442,13.082z"/>
</svg>






