<?xml version="1.0" encoding="iso-8859-1"?>
<svg version="1.1" id="&#x56FE;&#x5C42;_1" xmlns="http://www.w3.org/2000/svg" xmlns:xlink="http://www.w3.org/1999/xlink" x="0px"
	 y="0px" viewBox="0 0 24 24" style="enable-background:new 0 0 24 24;" xml:space="preserve">
<path style="fill:#333333;" d="M12,21H3.5C2.122,21,1,19.879,1,18.5v-13C1,4.122,2.122,3,3.5,3h17C21.879,3,23,4.122,23,5.5v6.029
	h-2V5.5C21,5.224,20.775,5,20.5,5h-17C3.224,5,3,5.224,3,5.5v13C3,18.775,3.224,19,3.5,19H12V21z"/>
<path style="fill:#333333;" d="M23,11H1V5.5C1,4.122,2.122,3,3.5,3h17C21.879,3,23,4.122,23,5.5V11z M3,9h18V5.5
	C21,5.224,20.775,5,20.5,5h-17C3.224,5,3,5.224,3,5.5V9z"/>
<circle style="fill:#333333;" cx="5" cy="7" r="1"/>
<circle style="fill:#333333;" cx="8" cy="7" r="1"/>
<path style="fill:#333333;" d="M18.5,19.5c-1.379,0-2.5-1.121-2.5-2.5s1.121-2.5,2.5-2.5S21,15.621,21,17S19.879,19.5,18.5,19.5z
	 M18.5,16.5c-0.275,0-0.5,0.225-0.5,0.5s0.225,0.5,0.5,0.5S19,17.275,19,17S18.775,16.5,18.5,16.5z"/>
<rect x="17.5" y="18.5" style="fill:#333333;" width="2" height="2"/>
<rect x="17.5" y="13.5" style="fill:#333333;" width="2" height="2"/>
<rect x="15.335" y="17.25" transform="matrix(0.8661 -0.4999 0.4999 0.8661 -6.9358 10.6104)" style="fill:#333333;" width="2" height="2"/>
<rect x="19.665" y="14.75" transform="matrix(0.8661 -0.4999 0.4999 0.8661 -5.1061 12.4402)" style="fill:#333333;" width="2" height="2"/>
<rect x="15.335" y="14.75" transform="matrix(0.4999 -0.8661 0.8661 0.4999 -5.4718 22.0235)" style="fill:#333333;" width="2" height="2"/>
<rect x="19.665" y="17.25" transform="matrix(0.4999 -0.8661 0.8661 0.4999 -5.4716 27.0239)" style="fill:#333333;" width="2" height="2"/>
</svg>






