<?xml version="1.0" encoding="iso-8859-1"?>
<svg version="1.1" id="&#x56FE;&#x5C42;_1" xmlns="http://www.w3.org/2000/svg" xmlns:xlink="http://www.w3.org/1999/xlink" x="0px"
	 y="0px" viewBox="0 0 24 24" style="enable-background:new 0 0 24 24;" xml:space="preserve">
<path style="fill:#333333;" d="M14.363,23H9.636v-2.597c-0.666-0.186-1.303-0.45-1.907-0.79l-1.836,1.836l-3.342-3.343l1.836-1.836
	c-0.34-0.604-0.604-1.241-0.791-1.907H1V9.636h2.596C3.782,8.97,4.047,8.333,4.387,7.729L2.551,5.893l3.342-3.342l1.836,1.836
	c0.604-0.34,1.241-0.604,1.907-0.791V1h4.727v2.596c0.666,0.186,1.304,0.451,1.907,0.791l1.836-1.836l3.343,3.342l-1.836,1.836
	c0.34,0.604,0.604,1.241,0.79,1.907H23v4.727h-2.596c-0.187,0.666-0.451,1.303-0.791,1.907l1.836,1.836l-3.343,3.343l-1.836-1.836
	c-0.604,0.34-1.241,0.604-1.907,0.791V23z M11.636,21h0.727v-2.23l0.825-0.146c0.958-0.171,1.851-0.541,2.653-1.101l0.688-0.479
	l1.577,1.577l0.515-0.515l-1.577-1.577l0.479-0.688c0.56-0.803,0.93-1.695,1.101-2.653l0.146-0.825H21v-0.727h-2.23l-0.146-0.825
	c-0.171-0.958-0.541-1.852-1.101-2.654L17.044,7.47l1.577-1.577l-0.515-0.514l-1.577,1.578l-0.688-0.479
	c-0.802-0.56-1.694-0.93-2.653-1.101L12.363,5.23V3h-0.727v2.23l-0.825,0.147C9.852,5.548,8.959,5.918,8.158,6.478L7.471,6.957
	L5.893,5.379L5.379,5.893l1.578,1.578L6.478,8.158c-0.56,0.801-0.93,1.694-1.101,2.654L5.23,11.636H3v0.727h2.23l0.146,0.825
	c0.171,0.959,0.541,1.852,1.101,2.653l0.479,0.688l-1.578,1.577l0.514,0.515l1.577-1.577l0.687,0.479
	c0.803,0.56,1.696,0.93,2.654,1.101l0.825,0.146V21z"/>
<path style="fill:#333333;" d="M12,15.5c-1.93,0-3.5-1.57-3.5-3.5s1.57-3.5,3.5-3.5s3.5,1.57,3.5,3.5S13.93,15.5,12,15.5z M12,10.5
	c-0.827,0-1.5,0.673-1.5,1.5s0.673,1.5,1.5,1.5s1.5-0.673,1.5-1.5S12.827,10.5,12,10.5z"/>
</svg>






