<?xml version="1.0" encoding="iso-8859-1"?>
<svg version="1.1" id="&#x56FE;&#x5C42;_1" xmlns="http://www.w3.org/2000/svg" xmlns:xlink="http://www.w3.org/1999/xlink" x="0px"
	 y="0px" viewBox="0 0 24 24" style="enable-background:new 0 0 24 24;" xml:space="preserve">
<path style="fill:#333333;" d="M12,20.5c-4.687,0-8.5-3.813-8.5-8.5c0-4.687,3.813-8.5,8.5-8.5c4.687,0,8.5,3.813,8.5,8.5
	C20.5,16.687,16.687,20.5,12,20.5z M12,5.5c-3.584,0-6.5,2.916-6.5,6.5s2.916,6.5,6.5,6.5s6.5-2.916,6.5-6.5S15.584,5.5,12,5.5z"/>
<rect x="11" y="19.5" style="fill:#333333;" width="2" height="2.5"/>
<rect x="19.5" y="10.5" style="fill:#333333;" width="2.5" height="2"/>
<rect x="2" y="10.5" style="fill:#333333;" width="2.5" height="2"/>
<rect x="11" y="2" style="fill:#333333;" width="2" height="2.5"/>
<rect x="17.187" y="16.936" transform="matrix(0.7071 -0.7071 0.7071 0.7071 -7.5333 18.187)" style="fill:#333333;" width="2" height="2.501"/>
<rect x="16.583" y="4.459" transform="matrix(0.7074 -0.7069 0.7069 0.7074 1.3599 14.2035)" style="fill:#333333;" width="2.5" height="2"/>
<rect x="4.21" y="16.834" transform="matrix(0.7071 -0.7071 0.7071 0.7071 -11.0115 9.0839)" style="fill:#333333;" width="2.5" height="2"/>
<rect x="4.813" y="4.563" transform="matrix(0.7071 -0.7071 0.7071 0.7071 -2.4077 5.8127)" style="fill:#333333;" width="2" height="2.5"/>
</svg>






