<?xml version="1.0" encoding="iso-8859-1"?>
<svg version="1.1" id="&#x56FE;&#x5C42;_1" xmlns="http://www.w3.org/2000/svg" xmlns:xlink="http://www.w3.org/1999/xlink" x="0px"
	 y="0px" viewBox="0 0 24 24" style="enable-background:new 0 0 24 24;" xml:space="preserve">
<path style="fill:#333333;" d="M19.5,18h-15C3.122,18,2,16.879,2,15.5v-11C2,3.122,3.122,2,4.5,2H12v2H4.5C4.224,4,4,4.224,4,4.5v11
	C4,15.775,4.224,16,4.5,16h15c0.275,0,0.5-0.225,0.5-0.5V13h2v2.5C22,16.879,20.879,18,19.5,18z"/>
<rect x="11" y="17" style="fill:#333333;" width="2" height="4"/>
<rect x="7" y="20" style="fill:#333333;" width="10" height="2"/>
<path style="fill:#333333;" d="M18.5,9C17.121,9,16,7.878,16,6.5S17.121,4,18.5,4S21,5.122,21,6.5S19.879,9,18.5,9z M18.5,6
	C18.225,6,18,6.224,18,6.5S18.225,7,18.5,7S19,6.776,19,6.5S18.775,6,18.5,6z"/>
<rect x="17.5" y="8" style="fill:#333333;" width="2" height="2"/>
<rect x="17.5" y="3" style="fill:#333333;" width="2" height="2"/>
<rect x="15.335" y="6.75" transform="matrix(0.8661 -0.4999 0.4999 0.8661 -1.6867 9.2041)" style="fill:#333333;" width="2" height="2"/>
<rect x="19.665" y="4.25" transform="matrix(0.8661 -0.4999 0.4999 0.8661 0.1431 11.034)" style="fill:#333333;" width="2" height="2"/>
<rect x="15.335" y="4.25" transform="matrix(0.4999 -0.8661 0.8661 0.4999 3.6219 16.7727)" style="fill:#333333;" width="2" height="2"/>
<rect x="19.665" y="6.75" transform="matrix(0.4999 -0.8661 0.8661 0.4999 3.6221 21.773)" style="fill:#333333;" width="2" height="2"/>
</svg>






