<?xml version="1.0" encoding="iso-8859-1"?>
<svg version="1.1" id="&#x56FE;&#x5C42;_1" xmlns="http://www.w3.org/2000/svg" xmlns:xlink="http://www.w3.org/1999/xlink" x="0px"
	 y="0px" viewBox="0 0 24 24" style="enable-background:new 0 0 24 24;" xml:space="preserve">
<path style="fill:#333333;" d="M14.204,22.824l-0.298-0.934C13.64,21.059,12.874,20.5,12,20.5s-1.64,0.559-1.905,1.391l-0.298,0.934
	l-0.939-0.28c-1.812-0.539-3.466-1.548-4.784-2.917l-0.625-0.649l0.581-0.688C4.333,17.929,4.5,17.472,4.5,17
	c0-1.169-1.055-2.109-2.197-1.99L1.405,15.1l-0.181-0.884C1.075,13.492,1,12.746,1,12c0-1.126,0.169-2.237,0.504-3.3l0.229-0.727
	L2.494,8C3.603,8,4.5,7.103,4.5,6c0-0.31-0.069-0.607-0.205-0.883L3.966,4.45l0.545-0.506c1.288-1.198,2.86-2.079,4.548-2.546
	L9.846,1.18l0.371,0.727C10.561,2.581,11.244,3,12,3s1.439-0.419,1.783-1.093l0.371-0.727l0.786,0.218
	c1.688,0.467,3.261,1.348,4.548,2.546l0.546,0.507l-0.33,0.668C19.568,5.393,19.5,5.689,19.5,6c0,1.103,0.897,2,2,2h0.733l0.263,0.7
	C22.83,9.763,23,10.874,23,12c0,0.744-0.075,1.489-0.224,2.215L22.596,15.1l-0.898-0.09C20.564,14.892,19.5,15.831,19.5,17
	c0,0.472,0.167,0.929,0.471,1.289l0.58,0.688l-0.624,0.649c-1.316,1.368-2.97,2.377-4.783,2.917L14.204,22.824z M6.082,18.78
	c0.756,0.661,1.618,1.191,2.545,1.566C9.347,19.213,10.605,18.5,12,18.5c1.396,0,2.653,0.713,3.374,1.847
	c0.927-0.376,1.788-0.906,2.544-1.566C17.646,18.231,17.5,17.621,17.5,17c0-2.016,1.499-3.688,3.44-3.961
	C20.98,12.694,21,12.347,21,12c0-0.705-0.081-1.402-0.241-2.08C18.88,9.552,17.5,7.934,17.5,6c0-0.35,0.044-0.691,0.131-1.021
	c-0.764-0.613-1.626-1.1-2.542-1.435C14.339,4.458,13.217,5,12,5c-1.216,0-2.338-0.542-3.088-1.456
	C7.995,3.879,7.133,4.366,6.369,4.979C6.456,5.31,6.5,5.651,6.5,6c0,1.953-1.408,3.584-3.262,3.932C3.08,10.605,3,11.299,3,12
	c0,0.348,0.02,0.695,0.059,1.039C5.001,13.312,6.5,14.984,6.5,17C6.5,17.621,6.354,18.23,6.082,18.78z"/>
<path style="fill:#333333;" d="M12,16.5c-2.481,0-4.5-2.019-4.5-4.5S9.519,7.5,12,7.5s4.5,2.019,4.5,4.5S14.481,16.5,12,16.5z
	 M12,9.5c-1.378,0-2.5,1.122-2.5,2.5c0,1.379,1.122,2.5,2.5,2.5c1.379,0,2.5-1.121,2.5-2.5C14.5,10.622,13.379,9.5,12,9.5z"/>
</svg>






