<?xml version="1.0" encoding="iso-8859-1"?>
<svg version="1.1" id="&#x56FE;&#x5C42;_1" xmlns="http://www.w3.org/2000/svg" xmlns:xlink="http://www.w3.org/1999/xlink" x="0px"
	 y="0px" viewBox="0 0 24 24" style="enable-background:new 0 0 24 24;" xml:space="preserve">
<polygon style="fill:#333333;" points="2.759,19.65 1.241,18.35 2.683,16.667 0.683,14.333 2.683,12 0.683,9.667 2.683,7.333 
	1.241,5.651 2.759,4.349 5.317,7.333 3.317,9.667 5.317,12 3.317,14.333 5.317,16.667 "/>
<polygon style="fill:#333333;" points="21.241,19.65 18.683,16.667 20.683,14.333 18.683,12 20.683,9.667 18.683,7.333 21.24,4.349 
	22.76,5.651 21.317,7.333 23.317,9.667 21.317,12 23.317,14.333 21.317,16.667 22.759,18.35 "/>
<path style="fill:#333333;" d="M18,22H6V2h12V22z M8,20h8V4H8V20z"/>
<rect x="11" y="16.5" style="fill:#333333;" width="2" height="2"/>
</svg>






