<?xml version="1.0" encoding="iso-8859-1"?>
<svg version="1.1" id="&#x56FE;&#x5C42;_1" xmlns="http://www.w3.org/2000/svg" xmlns:xlink="http://www.w3.org/1999/xlink" x="0px"
	 y="0px" viewBox="0 0 24 24" style="enable-background:new 0 0 24 24;" xml:space="preserve">
<polygon style="fill:#333333;" points="22,10 20,10 20,4 14,4 14,2 22,2 "/>
<path style="fill:#333333;" d="M19.5,22h-15C3.122,22,2,20.879,2,19.5v-15C2,3.122,3.122,2,4.5,2H9v2H4.5C4.224,4,4,4.224,4,4.5v15
	C4,19.775,4.224,20,4.5,20h15c0.275,0,0.5-0.225,0.5-0.5v-4.763h2V19.5C22,20.879,20.879,22,19.5,22z"/>
<rect x="11.315" y="6.275" transform="matrix(0.7071 -0.7071 0.7071 0.7071 -0.2456 13.9569)" style="fill:#333333;" width="10.819" height="2"/>
</svg>






