<?xml version="1.0" encoding="iso-8859-1"?>
<svg version="1.1" id="&#x56FE;&#x5C42;_1" xmlns="http://www.w3.org/2000/svg" xmlns:xlink="http://www.w3.org/1999/xlink" x="0px"
	 y="0px" viewBox="0 0 24 24" style="enable-background:new 0 0 24 24;" xml:space="preserve">
<path style="fill:#333333;" d="M17.5,9C15.57,9,14,7.43,14,5.5S15.57,2,17.5,2S21,3.57,21,5.5S19.43,9,17.5,9z M17.5,4
	C16.673,4,16,4.673,16,5.5S16.673,7,17.5,7S19,6.327,19,5.5S18.327,4,17.5,4z"/>
<path style="fill:#333333;" d="M6.5,15.5C4.57,15.5,3,13.93,3,12s1.57-3.5,3.5-3.5S10,10.07,10,12S8.43,15.5,6.5,15.5z M6.5,10.5
	C5.673,10.5,5,11.173,5,12s0.673,1.5,1.5,1.5S8,12.827,8,12S7.327,10.5,6.5,10.5z"/>
<rect x="8.134" y="7.705" transform="matrix(0.8554 -0.518 0.518 0.8554 -2.7976 7.3894)" style="fill:#333333;" width="7.402" height="2"/>
<rect x="11.004" y="11.379" transform="matrix(0.5087 -0.8609 0.8609 0.5087 -7.2341 17.8289)" style="fill:#333333;" width="2.001" height="7.748"/>
<path style="fill:#333333;" d="M17.5,22c-1.93,0-3.5-1.57-3.5-3.5s1.57-3.5,3.5-3.5s3.5,1.57,3.5,3.5S19.43,22,17.5,22z M17.5,17
	c-0.827,0-1.5,0.673-1.5,1.5s0.673,1.5,1.5,1.5s1.5-0.673,1.5-1.5S18.327,17,17.5,17z"/>
</svg>






