<?xml version="1.0" encoding="iso-8859-1"?>
<svg version="1.1" id="&#x56FE;&#x5C42;_1" xmlns="http://www.w3.org/2000/svg" xmlns:xlink="http://www.w3.org/1999/xlink" x="0px"
	 y="0px" viewBox="0 0 24 24" style="enable-background:new 0 0 24 24;" xml:space="preserve">
<path style="fill:#333333;" d="M19.499,21.548l-1.363-1.463C19.982,18.362,21,16.023,21,13.5c0-4.962-4.037-9-9-9
	c-4.962,0-9,4.038-9,9c0,2.523,1.018,4.862,2.865,6.585L4.5,21.548C2.276,19.473,1,16.54,1,13.5c0-6.065,4.935-11,11-11
	s11,4.935,11,11C23,16.54,21.724,19.473,19.499,21.548z"/>
<path style="fill:#333333;" d="M6.887,18.987C5.37,17.573,4.5,15.573,4.5,13.5C4.5,9.364,7.864,6,12,6s7.5,3.364,7.5,7.5
	c0,2.073-0.87,4.073-2.387,5.487l-1.363-1.463c1.112-1.037,1.75-2.504,1.75-4.024c0-3.033-2.468-5.5-5.5-5.5
	c-3.033,0-5.5,2.467-5.5,5.5c0,1.521,0.638,2.987,1.75,4.024L6.887,18.987z"/>
<path style="fill:#333333;" d="M14.727,16.427l-1.363-1.463C13.773,14.581,14,14.062,14,13.5c0-1.103-0.897-2-2-2
	c-1.103,0-2,0.897-2,2c0,0.562,0.226,1.081,0.637,1.464l-1.364,1.463C8.464,15.672,8,14.605,8,13.5c0-2.206,1.794-4,4-4
	c2.206,0,4,1.794,4,4C16,14.606,15.536,15.673,14.727,16.427z"/>
</svg>






