<?xml version="1.0" encoding="iso-8859-1"?>
<svg version="1.1" id="&#x56FE;&#x5C42;_1" xmlns="http://www.w3.org/2000/svg" xmlns:xlink="http://www.w3.org/1999/xlink" x="0px"
	 y="0px" viewBox="0 0 24 24" style="enable-background:new 0 0 24 24;" xml:space="preserve">
<path style="fill:#333333;" d="M6.757,21.24c-1.024,0-2.048-0.39-2.828-1.169c-0.756-0.756-1.172-1.76-1.172-2.829
	c0-1.068,0.416-2.072,1.172-2.828l5.756-5.756c0.513-0.514,1.409-0.514,1.922,0l3.734,3.735c0.256,0.254,0.397,0.595,0.398,0.958
	c0.001,0.364-0.141,0.706-0.398,0.964l-5.756,5.757C8.806,20.851,7.782,21.24,6.757,21.24z M10.646,10.525l-5.303,5.303
	c-0.78,0.78-0.78,2.049,0,2.829c0.779,0.779,2.048,0.779,2.829,0l5.303-5.304L10.646,10.525z M13.927,13.806
	c0.001,0.001,0.002,0.003,0.003,0.004L13.927,13.806z"/>
<path style="fill:#333333;" d="M16.656,14.343c-1.869,0-3.627-0.729-4.949-2.05c-2.729-2.729-2.729-7.17,0-9.899l0.392-0.392
	c0.544-0.545,1.498-0.546,2.045-0.001l7.854,7.854c0.562,0.566,0.562,1.482,0.001,2.045l-0.393,0.393
	C20.284,13.614,18.526,14.343,16.656,14.343z M13.122,3.807L13.122,3.807c-1.95,1.95-1.95,5.122-0.001,7.071
	c0.944,0.944,2.2,1.464,3.535,1.464c1.336,0,2.592-0.52,3.536-1.464L13.122,3.807z"/>
<rect x="9.086" y="13.414" transform="matrix(0.7071 -0.7071 0.7071 0.7071 -7.3846 11.0001)" style="fill:#333333;" width="1" height="2"/>
<rect x="13.535" y="8.464" transform="matrix(0.7069 -0.7074 0.7074 0.7069 -2.4337 13.0562)" style="fill:#333333;" width="2" height="2"/>
</svg>






