<?xml version="1.0" encoding="iso-8859-1"?>
<svg version="1.1" id="&#x56FE;&#x5C42;_1" xmlns="http://www.w3.org/2000/svg" xmlns:xlink="http://www.w3.org/1999/xlink" x="0px"
	 y="0px" viewBox="0 0 24 24" style="enable-background:new 0 0 24 24;" xml:space="preserve">
<path style="fill:#333333;" d="M16,23H8c-1.103,0-2-0.897-2-2V9.5c0-1.103,0.897-2,2-2h8c1.103,0,2,0.897,2,2V21
	C18,22.103,17.103,23,16,23z M8,9.5H7.999L8,21h8V9.5H8z"/>
<path style="fill:#333333;" d="M15.5,9.5h-7V5h7V9.5z M10.5,7.5h3V7h-3V7.5z"/>
<path style="fill:#333333;" d="M15.5,6h-2V3.5H17V3h-3.5c-3,0-3,1.129-3,1.5V6h-2V4.5c0-1.052,0.487-3.5,5-3.5H19v4.5h-3.5V6z"/>
</svg>






