<?xml version="1.0" encoding="iso-8859-1"?>
<svg version="1.1" id="&#x56FE;&#x5C42;_1" xmlns="http://www.w3.org/2000/svg" xmlns:xlink="http://www.w3.org/1999/xlink" x="0px"
	 y="0px" viewBox="0 0 24 24" style="enable-background:new 0 0 24 24;" xml:space="preserve">
<path style="fill:#333333;" d="M11.8,12.6l-1.6-1.2l1.002-1.336L6.263,4.676C5.15,3.563,4.667,3.461,4.137,3.493
	C3.628,3.607,3.309,3.846,3.134,4.24C2.839,4.906,3.021,5.924,3.357,6.485L1.643,7.515C1.048,6.524,0.689,4.823,1.305,3.431
	c0.312-0.707,1-1.611,2.499-1.911l0.122-0.017c1.351-0.108,2.375,0.384,3.782,1.79l6.091,6.643L11.8,12.6z"/>
<path style="fill:#333333;" d="M7.5,21h-2v-2.087c-1.396-1.45-2.19-2.969-2.486-4.749C2.498,9.031,6.095,6.576,9.329,6.015
	l0.342,1.971C8.457,8.196,4.53,9.246,4.995,13.9c0.235,1.398,0.938,2.653,2.202,3.883L7.5,18.078V21z"/>
<path style="fill:#333333;" d="M20.5,21h-2v-2.373l0.244-0.282c2.207-2.544,2.503-4.881,2.299-5.556
	c-0.856-3.818-6.387-3.297-6.441-3.294l-0.203-1.989c2.543-0.258,7.602,0.406,8.577,4.777c0.308,1.009,0.191,3.854-2.476,7.084V21z"
	/>
<path style="fill:#333333;" d="M17.5,21h-2c0-1.374-1.296-2-2.5-2s-2.5,0.626-2.5,2h-2c0-2.626,2.264-4,4.5-4S17.5,18.374,17.5,21z"
	/>
</svg>






