<?xml version="1.0" encoding="iso-8859-1"?>
<svg version="1.1" id="&#x56FE;&#x5C42;_1" xmlns="http://www.w3.org/2000/svg" xmlns:xlink="http://www.w3.org/1999/xlink" x="0px"
	 y="0px" viewBox="0 0 24 24" style="enable-background:new 0 0 24 24;" xml:space="preserve">
<path style="fill:#333333;" d="M19.016,18H4.984L1.692,9.591L12,5.939l10.308,3.652L19.016,18z M6.349,16H17.65l2.042-5.214
	L12,8.061l-7.692,2.725L6.349,16z"/>
<path style="fill:#333333;" d="M18.499,10.363L12,8.061l-6.5,2.302V3h13L18.499,10.363z M12,5.939l4.499,1.594L16.5,5h-9v2.533
	L12,5.939z"/>
<rect x="11" y="2" style="fill:#333333;" width="2" height="2"/>
<rect x="11" y="8" style="fill:#333333;" width="2" height="4"/>
<polygon style="fill:#333333;" points="17.25,23.519 15.5,21.519 13.75,23.519 12,21.519 10.25,23.519 8.5,21.519 6.75,23.519 
	4.248,20.658 5.752,19.342 6.75,20.481 8.5,18.481 10.25,20.481 12,18.481 13.75,20.481 15.5,18.481 17.25,20.481 18.247,19.342 
	19.753,20.658 "/>
</svg>






