<?xml version="1.0" encoding="iso-8859-1"?>
<svg version="1.1" id="&#x56FE;&#x5C42;_1" xmlns="http://www.w3.org/2000/svg" xmlns:xlink="http://www.w3.org/1999/xlink" x="0px"
	 y="0px" viewBox="0 0 24 24" style="enable-background:new 0 0 24 24;" xml:space="preserve">
<polygon style="fill:#333333;" points="18.349,13 8.33,13 4.83,4.5 2.5,4.5 2.5,2.5 6.17,2.5 9.67,11 17.151,11 20.618,4.528 
	22.382,5.472 "/>
<rect x="10.5" y="5" style="fill:#333333;" width="6" height="2"/>
<rect x="12.5" y="3" style="fill:#333333;" width="2" height="6"/>
<polygon style="fill:#333333;" points="20,16 7,16 6.168,14.445 8.168,11.445 9.832,12.555 8.869,14 20,14 "/>
<path style="fill:#333333;" d="M9.5,22C8.122,22,7,20.879,7,19.5S8.122,17,9.5,17s2.5,1.121,2.5,2.5S10.878,22,9.5,22z M9.5,19
	C9.224,19,9,19.225,9,19.5S9.224,20,9.5,20s0.5-0.225,0.5-0.5S9.776,19,9.5,19z"/>
<path style="fill:#333333;" d="M17.5,22c-1.379,0-2.5-1.121-2.5-2.5s1.121-2.5,2.5-2.5s2.5,1.121,2.5,2.5S18.879,22,17.5,22z
	 M17.5,19c-0.275,0-0.5,0.225-0.5,0.5s0.225,0.5,0.5,0.5s0.5-0.225,0.5-0.5S17.775,19,17.5,19z"/>
</svg>






