<?xml version="1.0" encoding="iso-8859-1"?>
<svg version="1.1" id="&#x56FE;&#x5C42;_1" xmlns="http://www.w3.org/2000/svg" xmlns:xlink="http://www.w3.org/1999/xlink" x="0px"
	 y="0px" viewBox="0 0 24 24" style="enable-background:new 0 0 24 24;" xml:space="preserve">
<path style="fill:#333333;" d="M17.5,22h-11C5.122,22,4,20.879,4,19.5v-12C4,6.122,5.122,5,6.5,5h11C18.879,5,20,6.122,20,7.5v12
	C20,20.879,18.879,22,17.5,22z M6.5,7C6.224,7,6,7.224,6,7.5v12C6,19.775,6.224,20,6.5,20h11c0.275,0,0.5-0.225,0.5-0.5v-12
	C18,7.224,17.775,7,17.5,7H6.5z"/>
<path style="fill:#333333;" d="M16,9h-2V5c0-1.103-0.897-2-2-2c-1.103,0-2,0.897-2,2v4H8V5c0-2.206,1.794-4,4-4c2.206,0,4,1.794,4,4
	V9z"/>
</svg>






