<?xml version="1.0" encoding="iso-8859-1"?>
<svg version="1.1" id="&#x56FE;&#x5C42;_1" xmlns="http://www.w3.org/2000/svg" xmlns:xlink="http://www.w3.org/1999/xlink" x="0px"
	 y="0px" viewBox="0 0 24 24" style="enable-background:new 0 0 24 24;" xml:space="preserve">
<path style="fill:#333333;" d="M19.5,11.919c-0.801,0-1.602-0.214-2.315-0.643L17,11.166l-0.185,0.111
	c-1.428,0.858-3.203,0.858-4.631,0L12,11.166l-0.185,0.111c-1.429,0.859-3.202,0.858-4.631,0L7,11.166l-0.185,0.111
	c-1.429,0.859-3.202,0.858-4.631,0L1,10.566V5h22v5.566l-1.185,0.71C21.102,11.706,20.301,11.919,19.5,11.919z M17,8.834
	l1.214,0.728c0.794,0.476,1.78,0.475,2.572,0L21,9.434V7H3v2.434l0.214,0.128c0.793,0.476,1.779,0.476,2.572,0L7,8.834l1.214,0.728
	c0.793,0.476,1.779,0.476,2.572,0L12,8.834l1.214,0.728c0.794,0.476,1.781,0.475,2.572,0L17,8.834z"/>
<polygon style="fill:#333333;" points="21,23 3,23 3,11.245 5,11.245 5,21 19,21 19,11 21,11 "/>
<polygon style="fill:#333333;" points="21,6 19,6 19,3 5,3 5,5.911 3,5.911 3,1 21,1 "/>
<path style="fill:#333333;" d="M15.5,23h-7v-8h7V23z M10.5,21h3v-4h-3V21z"/>
</svg>






