<?xml version="1.0" encoding="iso-8859-1"?>
<svg version="1.1" id="&#x56FE;&#x5C42;_1" xmlns="http://www.w3.org/2000/svg" xmlns:xlink="http://www.w3.org/1999/xlink" x="0px"
	 y="0px" viewBox="0 0 24 24" style="enable-background:new 0 0 24 24;" xml:space="preserve">
<path style="fill:#333333;" d="M20.252,22.5H3.749l-2.423-15h21.349L20.252,22.5z M5.452,20.5h13.097l1.776-11H3.674L5.452,20.5z"/>
<path style="fill:#333333;" d="M18.5,8.5h-2c0-2.757-2.019-5-4.5-5s-4.5,2.243-4.5,5h-2c0-3.86,2.916-7,6.5-7S18.5,4.64,18.5,8.5z"
	/>
<circle style="fill:#333333;" cx="8.5" cy="13" r="1"/>
<path style="fill:#333333;" d="M12,19c-2.506,0-3.779-1.866-3.832-1.945l1.658-1.118C9.856,15.979,10.586,17,12,17
	c1.414,0,2.144-1.021,2.174-1.063l1.658,1.118C15.779,17.134,14.507,19,12,19z"/>
<circle style="fill:#333333;" cx="15.5" cy="13" r="1"/>
</svg>






