<?xml version="1.0" encoding="iso-8859-1"?>
<svg version="1.1" id="&#x56FE;&#x5C42;_1" xmlns="http://www.w3.org/2000/svg" xmlns:xlink="http://www.w3.org/1999/xlink" x="0px"
	 y="0px" viewBox="0 0 24 24" style="enable-background:new 0 0 24 24;" xml:space="preserve">
<path style="fill:none;" d="M19.5,16h-13L4,6h18L19.5,16z"/>
<path style="fill:#333333;" d="M20.281,17H5.719L2.469,4H1.5V2h2.531l0.75,3h18.5L20.281,17z M7.281,15h11.438l2-8H5.281L7.281,15z"
	/>
<path style="fill:#333333;" d="M6.5,22C5.122,22,4,20.879,4,19.5S5.122,17,6.5,17S9,18.121,9,19.5S7.878,22,6.5,22z M6.5,19
	C6.224,19,6,19.225,6,19.5S6.224,20,6.5,20S7,19.775,7,19.5S6.776,19,6.5,19z"/>
<path style="fill:#333333;" d="M19.5,22c-1.379,0-2.5-1.121-2.5-2.5s1.121-2.5,2.5-2.5s2.5,1.121,2.5,2.5S20.879,22,19.5,22z
	 M19.5,19c-0.275,0-0.5,0.225-0.5,0.5s0.225,0.5,0.5,0.5s0.5-0.225,0.5-0.5S19.775,19,19.5,19z"/>
<rect x="11" y="10" style="fill:#333333;" width="4" height="2"/>
<rect x="12" y="9" style="fill:#333333;" width="2" height="4"/>
</svg>






