<?xml version="1.0" encoding="iso-8859-1"?>
<svg version="1.1" id="&#x56FE;&#x5C42;_1" xmlns="http://www.w3.org/2000/svg" xmlns:xlink="http://www.w3.org/1999/xlink" x="0px"
	 y="0px" viewBox="0 0 24 24" style="enable-background:new 0 0 24 24;" xml:space="preserve">
<path style="fill:#333333;" d="M14.28,22.298L12,19.562l-2.28,2.735l-8.972-5.383L4.5,7.802V2h15v5.802l3.752,9.113L14.28,22.298z
	 M12,16.438l2.72,3.265l6.028-3.617L17.5,8.198V4h-11v4.198l-3.248,7.887l6.028,3.617L12,16.438z"/>
<path style="fill:#333333;" d="M5.5,7c-0.552,0-1,0.448-1,1s0.448,1,1,1V7z M18.5,9c0.552,0,1-0.448,1-1s-0.448-1-1-1V9z M5.5,9h13
	V7h-13V9z"/>
<polygon style="fill:#333333;" points="18.45,10.506 17.5,8.198 17.5,7 19.5,7 19.5,7.802 20.3,9.744 "/>
<polygon style="fill:#333333;" points="5.55,10.506 3.7,9.744 4.5,7.802 4.5,7 6.5,7 6.5,8.198 "/>
</svg>






