<?xml version="1.0" encoding="iso-8859-1"?>
<svg version="1.1" id="&#x56FE;&#x5C42;_1" xmlns="http://www.w3.org/2000/svg" xmlns:xlink="http://www.w3.org/1999/xlink" x="0px"
	 y="0px" viewBox="0 0 24 24" style="enable-background:new 0 0 24 24;" xml:space="preserve">
<path style="fill:#333333;" d="M12,23c-8.622,0-10.378-4.972-10.449-5.184L1.456,17.53L5.104,3.982L8.086,1h7.828l2.982,2.982
	l3.647,13.548l-0.096,0.286C22.378,18.028,20.622,23,12,23z M3.557,17.422C3.991,18.262,5.875,21,12,21
	c6.111,0,8.001-2.726,8.442-3.58L17.104,5.018L15.086,3H8.914L6.896,5.018L3.557,17.422z"/>
<rect x="3.377" y="16" transform="matrix(0.2422 -0.9702 0.9702 0.2422 -10.8103 20.1595)" style="fill:#333333;" width="8.246" height="2"/>
<path style="fill:#333333;" d="M12,23c-8.622,0-10.378-4.972-10.449-5.184l1.894-0.644C3.501,17.329,4.908,21,12,21V23z"/>
</svg>






