<?xml version="1.0" encoding="iso-8859-1"?>
<svg version="1.1" id="&#x56FE;&#x5C42;_1" xmlns="http://www.w3.org/2000/svg" xmlns:xlink="http://www.w3.org/1999/xlink" x="0px"
	 y="0px" viewBox="0 0 24 24" style="enable-background:new 0 0 24 24;" xml:space="preserve">
<polygon style="fill:#333333;" points="20.707,21.207 19.293,19.793 20.586,18.5 19.293,17.207 20.707,15.793 23.414,18.5 "/>
<polygon style="fill:#333333;" points="20.707,8.207 19.293,6.793 20.586,5.5 19.293,4.207 20.707,2.793 23.414,5.5 "/>
<path style="fill:#333333;" d="M22,19.5h-3.5c-4.136,0-7.5-3.364-7.5-7.5s3.364-7.5,7.5-7.5H22v2h-3.5C15.468,6.5,13,8.967,13,12
	c0,3.032,2.468,5.5,5.5,5.5H22V19.5z"/>
<path style="fill:#333333;" d="M5.5,19.5H2v-2h3.5c3.033,0,5.5-2.468,5.5-5.5c0-3.033-2.467-5.5-5.5-5.5H2v-2h3.5
	C9.636,4.5,13,7.864,13,12S9.636,19.5,5.5,19.5z"/>
</svg>






