<?xml version="1.0" encoding="iso-8859-1"?>
<svg version="1.1" id="&#x56FE;&#x5C42;_1" xmlns="http://www.w3.org/2000/svg" xmlns:xlink="http://www.w3.org/1999/xlink" x="0px"
	 y="0px" viewBox="0 0 24 24" style="enable-background:new 0 0 24 24;" xml:space="preserve">
<path style="fill:#333333;" d="M18.118,7H5.882l2.5-5h7.236L18.118,7z M9.118,5h5.764l-0.5-1H9.618L9.118,5z"/>
<path style="fill:#333333;" d="M20.5,22h-17C2.122,22,1,20.923,1,19.6V7.4C1,6.077,2.122,5,3.5,5h17C21.879,5,23,6.077,23,7.4v12.2
	C23,20.923,21.879,22,20.5,22z M3.5,7C3.229,7,3,7.183,3,7.4v12.2C3,19.816,3.229,20,3.5,20h17c0.271,0,0.5-0.184,0.5-0.4V7.4
	C21,7.183,20.771,7,20.5,7H3.5z"/>
<path style="fill:#333333;" d="M9.539,17.999l-0.077-1.998c2.028-0.079,3.622-0.575,3.99-0.929
	c-0.301-0.223-1.205-0.469-1.714-0.607C10.295,14.072,8.5,13.583,8.5,11.944c0-2.577,4.546-2.904,5.457-2.943l0.086,1.998
	c-1.812,0.079-3.246,0.581-3.514,0.914c0.28,0.227,1.214,0.481,1.734,0.623c1.442,0.393,3.237,0.882,3.237,2.521
	C15.5,17.573,10.937,17.945,9.539,17.999z"/>
</svg>






