<?xml version="1.0" encoding="iso-8859-1"?>
<svg version="1.1" id="&#x56FE;&#x5C42;_1" xmlns="http://www.w3.org/2000/svg" xmlns:xlink="http://www.w3.org/1999/xlink" x="0px"
	 y="0px" viewBox="0 0 24 24" style="enable-background:new 0 0 24 24;" xml:space="preserve">
<path style="fill:#333333;" d="M19.778,19.778l-1.414-1.414C20.063,16.664,21,14.404,21,12c0-2.404-0.937-4.664-2.636-6.364
	l1.414-1.414C21.855,6.3,23,9.062,23,12C23,14.938,21.855,17.701,19.778,19.778z"/>
<path style="fill:#333333;" d="M4.222,19.778C2.144,17.701,1,14.938,1,12c0-2.938,1.144-5.7,3.222-7.778l1.414,1.414
	C3.936,7.336,3,9.596,3,12c0,2.404,0.936,4.664,2.636,6.364L4.222,19.778z"/>
<path style="fill:#333333;" d="M6.843,17.657C5.332,16.145,4.5,14.136,4.5,12c0-2.137,0.832-4.146,2.343-5.657l1.414,1.414
	C7.124,8.891,6.5,10.397,6.5,12c0,1.602,0.624,3.109,1.758,4.243L6.843,17.657z"/>
<path style="fill:#333333;" d="M17.156,17.657l-1.414-1.414C16.876,15.109,17.5,13.603,17.5,12c0-1.603-0.624-3.11-1.758-4.242
	l1.414-1.415C18.668,7.853,19.5,9.862,19.5,12C19.5,14.137,18.668,16.146,17.156,17.657z"/>
<rect x="11" y="17" style="fill:#333333;" width="2" height="5"/>
<rect x="11" y="2" style="fill:#333333;" width="2" height="5"/>
<path style="fill:#333333;" d="M12,13.5c0.828,0,1.5-0.672,1.5-1.5s-0.672-1.5-1.5-1.5s-1.5,0.672-1.5,1.5S11.172,13.5,12,13.5z"/>
</svg>






