<?xml version="1.0" encoding="iso-8859-1"?>
<svg version="1.1" id="&#x56FE;&#x5C42;_1" xmlns="http://www.w3.org/2000/svg" xmlns:xlink="http://www.w3.org/1999/xlink" x="0px"
	 y="0px" viewBox="0 0 24 24" style="enable-background:new 0 0 24 24;" xml:space="preserve">
<path style="fill:#333333;" d="M19.778,19.778l-1.414-1.414c3.509-3.51,3.509-9.219,0-12.729c-3.511-3.509-9.219-3.509-12.729,0
	c-3.509,3.509-3.509,9.22,0,12.729l-1.414,1.414c-4.289-4.289-4.289-11.268,0-15.557c4.289-4.29,11.269-4.289,15.557,0
	C24.067,8.511,24.067,15.489,19.778,19.778z M16.949,16.949l-1.414-1.414C16.479,14.591,17,13.335,17,12
	c0-1.335-0.521-2.591-1.465-3.536S13.335,7,12,7c-1.335,0-2.591,0.52-3.536,1.464S7,10.665,7,12c0,1.335,0.52,2.591,1.464,3.535
	L7.05,16.949C5.728,15.627,5,13.87,5,12c0-1.87,0.728-3.627,2.05-4.95S10.13,5,12,5c1.87,0,3.627,0.728,4.949,2.05S19,10.13,19,12
	C19,13.87,18.271,15.628,16.949,16.949z"/>
<path style="fill:none;" d="M14,12c0,1.105-0.895,2-2,2s-2-0.895-2-2s0.895-2,2-2S14,10.895,14,12z"/>
<path style="fill:#333333;" d="M14,23h-2v-1v1h-2v-2h1v-6.171C9.836,14.416,9,13.304,9,12c0-1.654,1.346-3,3-3s3,1.346,3,3
	c0,1.304-0.836,2.416-2,2.829V21h1V23z M12,11c-0.551,0-1,0.449-1,1c0,0.552,0.449,1,1,1c0.552,0,1-0.448,1-1
	C13,11.449,12.552,11,12,11z"/>
</svg>






