<?xml version="1.0" encoding="iso-8859-1"?>
<svg version="1.1" id="&#x56FE;&#x5C42;_1" xmlns="http://www.w3.org/2000/svg" xmlns:xlink="http://www.w3.org/1999/xlink" x="0px"
	 y="0px" viewBox="0 0 24 24" style="enable-background:new 0 0 24 24;" xml:space="preserve">
<path style="fill:#333333;" d="M12.437,16.307c-0.453,0-0.909-0.04-1.364-0.12c-2.043-0.36-3.823-1.494-5.012-3.193
	c-1.189-1.698-1.646-3.758-1.286-5.801C5.134,5.15,6.268,3.37,7.967,2.181l0.819-0.573l8.906,12.719L16.873,14.9
	C15.554,15.824,14.016,16.307,12.437,16.307z M8.344,4.463C7.51,5.293,6.952,6.357,6.744,7.54c-0.267,1.517,0.072,3.046,0.955,4.307
	c0.883,1.261,2.204,2.103,3.721,2.371c1.181,0.208,2.373,0.049,3.438-0.451L8.344,4.463z"/>
<rect x="10" y="15.5" style="fill:#333333;" width="2" height="5.5"/>
<polygon style="fill:#333333;" points="21,22 1.523,22 5.571,11.878 7.429,12.621 4.477,20 21,20 "/>
<rect x="11.6" y="4.75" transform="matrix(0.8064 -0.5914 0.5914 0.8064 -0.2543 10.7231)" style="fill:#333333;" width="9.3" height="2.001"/>
<polygon style="fill:#333333;" points="17.451,14.06 15.549,13.44 18.623,4 8.5,4 8.5,2 21.377,2 "/>
</svg>






