<?xml version="1.0" encoding="iso-8859-1"?>
<svg version="1.1" id="&#x56FE;&#x5C42;_1" xmlns="http://www.w3.org/2000/svg" xmlns:xlink="http://www.w3.org/1999/xlink" x="0px"
	 y="0px" viewBox="0 0 24 24" style="enable-background:new 0 0 24 24;" xml:space="preserve">
<polygon style="fill:#333333;" points="17.02,22.196 13.181,3 10.82,3 6.98,22.196 5.02,21.804 9.18,1 14.819,1 18.98,21.804 "/>
<rect x="7.5" y="4" style="fill:#333333;" width="9" height="2"/>
<rect x="6" y="12" style="fill:#333333;" width="12" height="2"/>
<rect x="11.5" y="10.669" transform="matrix(0.5145 -0.8575 0.8575 0.5145 -8.0798 18.7295)" style="fill:#333333;" width="2" height="11.662"/>
<rect x="6.132" y="15.5" transform="matrix(0.8455 -0.534 0.534 0.8455 -6.9957 8.8247)" style="fill:#333333;" width="11.236" height="2.001"/>
<rect x="5.947" y="8.25" transform="matrix(0.7071 -0.7071 0.7071 0.7071 -3.2457 10.6642)" style="fill:#333333;" width="10.607" height="2"/>
<rect x="11.75" y="3.947" transform="matrix(0.7071 -0.7071 0.7071 0.7071 -2.8063 11.7249)" style="fill:#333333;" width="2" height="10.607"/>
</svg>






