<?xml version="1.0" encoding="iso-8859-1"?>
<svg version="1.1" id="&#x56FE;&#x5C42;_1" xmlns="http://www.w3.org/2000/svg" xmlns:xlink="http://www.w3.org/1999/xlink" x="0px"
	 y="0px" viewBox="0 0 24 24" style="enable-background:new 0 0 24 24;" xml:space="preserve">
<path style="fill:#333333;" d="M19,23H5c-1.103,0-2-0.897-2-2V3c0-1.103,0.897-2,2-2h9.113c0.498,0,0.976,0.185,1.345,0.52
	l4.888,4.443C20.762,6.342,21,6.881,21,7.442V21C21,22.103,20.103,23,19,23z M5,3v18h14V7.442L14.113,3H5z"/>
<circle style="fill:#333333;" cx="8.5" cy="7" r="1.5"/>
<path style="fill:#333333;" d="M17,19.5H7v-9h10V19.5z M9,17.5h6v-5H9V17.5z"/>
</svg>






