<?xml version="1.0" encoding="iso-8859-1"?>
<svg version="1.1" id="&#x56FE;&#x5C42;_1" xmlns="http://www.w3.org/2000/svg" xmlns:xlink="http://www.w3.org/1999/xlink" x="0px"
	 y="0px" viewBox="0 0 24 24" style="enable-background:new 0 0 24 24;" xml:space="preserve">
<path style="fill:#333333;" d="M21,12.5H3V6c0-1.378,1.122-2.5,2.5-2.5h13C19.879,3.5,21,4.622,21,6V12.5z M5,10.5h14V6
	c0-0.276-0.225-0.5-0.5-0.5h-13C5.224,5.5,5,5.724,5,6V10.5z"/>
<rect x="2" y="17.5" style="fill:#333333;" width="2" height="2"/>
<rect x="20" y="17.5" style="fill:#333333;" width="2" height="2"/>
<path style="fill:#333333;" d="M17,12.5H7v-2C7,9.122,8.122,8,9.5,8h5c1.379,0,2.5,1.122,2.5,2.5V12.5z M9,10.5h6
	c0-0.276-0.225-0.5-0.5-0.5h-5C9.224,10,9,10.224,9,10.5z"/>
<path style="fill:#333333;" d="M23,18.5H1V13c0-1.378,1.122-2.5,2.5-2.5h17c1.379,0,2.5,1.122,2.5,2.5V18.5z M3,16.5h18V13
	c0-0.275-0.225-0.5-0.5-0.5h-17C3.224,12.5,3,12.725,3,13V16.5z"/>
</svg>






