<?xml version="1.0" encoding="iso-8859-1"?>
<svg version="1.1" id="&#x56FE;&#x5C42;_1" xmlns="http://www.w3.org/2000/svg" xmlns:xlink="http://www.w3.org/1999/xlink" x="0px"
	 y="0px" viewBox="0 0 24 24" style="enable-background:new 0 0 24 24;" xml:space="preserve">
<rect x="17.928" y="10" style="fill:#333333;" width="2" height="4"/>
<rect x="13.464" y="17" transform="matrix(0.8661 -0.4999 0.4999 0.8661 -6.9274 10.1416)" style="fill:#333333;" width="4" height="2"/>
<rect x="7.535" y="16" transform="matrix(0.5 -0.866 0.866 0.5 -11.3206 16.3915)" style="fill:#333333;" width="2" height="4"/>
<rect x="4.072" y="10" style="fill:#333333;" width="2" height="4"/>
<rect x="6.536" y="5" transform="matrix(0.8661 -0.4999 0.4999 0.8661 -1.8564 5.0707)" style="fill:#333333;" width="4" height="2"/>
<rect x="14.464" y="4" transform="matrix(0.5001 -0.866 0.866 0.5001 2.5346 16.3908)" style="fill:#333333;" width="2" height="4"/>
<path style="fill:#333333;" d="M12,23c-1.654,0-3-1.346-3-3s1.346-3,3-3s3,1.346,3,3S13.654,23,12,23z M12,19c-0.551,0-1,0.448-1,1
	s0.449,1,1,1c0.552,0,1-0.448,1-1S12.552,19,12,19z"/>
<path style="fill:#333333;" d="M12,7c-1.654,0-3-1.346-3-3s1.346-3,3-3s3,1.346,3,3S13.654,7,12,7z M12,3c-0.551,0-1,0.449-1,1
	s0.449,1,1,1c0.552,0,1-0.449,1-1S12.552,3,12,3z"/>
<path style="fill:#333333;" d="M12,15c-1.654,0-3-1.346-3-3s1.346-3,3-3s3,1.346,3,3S13.654,15,12,15z M12,11c-0.551,0-1,0.449-1,1
	c0,0.552,0.449,1,1,1c0.552,0,1-0.448,1-1C13,11.449,12.552,11,12,11z"/>
<path style="fill:#333333;" d="M19,11c-1.654,0-3-1.346-3-3s1.346-3,3-3s3,1.346,3,3S20.654,11,19,11z M19,7c-0.552,0-1,0.449-1,1
	s0.448,1,1,1s1-0.449,1-1S19.552,7,19,7z"/>
<path style="fill:#333333;" d="M19,19c-1.654,0-3-1.346-3-3s1.346-3,3-3s3,1.346,3,3S20.654,19,19,19z M19,15c-0.552,0-1,0.448-1,1
	s0.448,1,1,1s1-0.448,1-1S19.552,15,19,15z"/>
<path style="fill:#333333;" d="M5,11c-1.654,0-3-1.346-3-3s1.346-3,3-3s3,1.346,3,3S6.654,11,5,11z M5,7C4.449,7,4,7.449,4,8
	s0.449,1,1,1s1-0.449,1-1S5.551,7,5,7z"/>
<path style="fill:#333333;" d="M5,19c-1.654,0-3-1.346-3-3s1.346-3,3-3s3,1.346,3,3S6.654,19,5,19z M5,15c-0.551,0-1,0.448-1,1
	s0.449,1,1,1s1-0.448,1-1S5.551,15,5,15z"/>
</svg>






