<?xml version="1.0" encoding="iso-8859-1"?>
<svg version="1.1" id="&#x56FE;&#x5C42;_1" xmlns="http://www.w3.org/2000/svg" xmlns:xlink="http://www.w3.org/1999/xlink" x="0px"
	 y="0px" viewBox="0 0 24 24" style="enable-background:new 0 0 24 24;" xml:space="preserve">
<path style="fill:#333333;" d="M19.5,22h-15C3.122,22,2,20.879,2,19.5v-15C2,3.122,3.122,2,4.5,2h15C20.879,2,22,3.122,22,4.5v15
	C22,20.879,20.879,22,19.5,22z M4.5,4C4.224,4,4,4.224,4,4.5v15C4,19.775,4.224,20,4.5,20h15c0.275,0,0.5-0.225,0.5-0.5v-15
	C20,4.224,19.775,4,19.5,4H4.5z"/>
<path style="fill:#333333;" d="M12.25,17.5c-2.068,0-3.75-1.683-3.75-3.75c0-2.068,1.682-3.75,3.75-3.75
	c2.067,0,3.75,1.682,3.75,3.75C16,15.817,14.317,17.5,12.25,17.5z M12.25,12c-0.965,0-1.75,0.785-1.75,1.75s0.785,1.75,1.75,1.75
	S14,14.715,14,13.75S13.215,12,12.25,12z"/>
<path style="fill:#333333;" d="M10.5,13.5h-2V10c0-2.206,1.682-4,3.75-4c1.546,0,2.914,0.989,3.484,2.52l-1.873,0.699
	C13.585,8.479,12.952,8,12.25,8c-0.965,0-1.75,0.897-1.75,2V13.5z"/>
</svg>






