<?xml version="1.0" encoding="iso-8859-1"?>
<svg version="1.1" id="&#x56FE;&#x5C42;_1" xmlns="http://www.w3.org/2000/svg" xmlns:xlink="http://www.w3.org/1999/xlink" x="0px"
	 y="0px" viewBox="0 0 24 24" style="enable-background:new 0 0 24 24;" xml:space="preserve">
<path style="fill:#333333;" d="M13.84,22.575c-1.591,0-3.212-0.394-4.788-1.181l0,0c-2.256-1.128-4.75-3.948-7.41-8.38
	C0.56,11.211,1.28,9.442,2.407,8.562c1.345-1.05,3.114-0.956,4.3,0.231L7,9.086V8.75C7,7.233,8.233,6,9.75,6
	c0.475,0,0.923,0.121,1.313,0.334c0.503-0.659,1.296-1.084,2.187-1.084s1.684,0.426,2.187,1.084c0.604-0.33,1.389-0.423,2.063-0.23
	V3.75C17.5,2.233,18.733,1,20.25,1S23,2.233,23,3.75v10.733c0,1.334-0.299,2.474-0.887,3.387c-0.694,1.075-1.888,2.555-3.635,3.508
	C17.015,22.177,15.443,22.575,13.84,22.575z M9.947,19.605c2.596,1.298,5.215,1.303,7.575,0.017
	c1.377-0.752,2.344-1.957,2.911-2.836C20.809,16.202,21,15.427,21,14.483V3.75C21,3.336,20.663,3,20.25,3S19.5,3.336,19.5,3.75v5h-2
	C17.5,8.336,17.163,8,16.75,8S16,8.336,16,8.75h-2V8c0-0.414-0.337-0.75-0.75-0.75S12.5,7.586,12.5,8v0.75h-2
	C10.5,8.336,10.164,8,9.75,8S9,8.336,9,8.75v2.75l-1.707,0.707l-2-2c-0.564-0.565-1.245-0.39-1.655-0.068
	c-0.457,0.357-0.771,1.029-0.28,1.847C5.75,15.971,8.089,18.677,9.947,19.605L9.947,19.605z"/>
</svg>






