<?xml version="1.0" encoding="iso-8859-1"?>
<svg version="1.1" id="&#x56FE;&#x5C42;_1" xmlns="http://www.w3.org/2000/svg" xmlns:xlink="http://www.w3.org/1999/xlink" x="0px"
	 y="0px" viewBox="0 0 24 24" style="enable-background:new 0 0 24 24;" xml:space="preserve">
<path style="fill:#333333;" d="M22,20.91H2l-0.484-1.875l16.269-9L18.27,9.91H22l1,1v9L22,20.91z M5.874,18.91H21v-7h-2.473
	L5.874,18.91z"/>
<polygon style="fill:#333333;" points="3.102,11.296 1.486,10.497 2.372,8.704 3.508,9.266 11.242,4.801 11.323,3.536 13.319,3.665 
	13.203,5.464 12.705,6.266 4.045,11.266 "/>
<path style="fill:#333333;" d="M6.165,12.44c0.828,0,1.5-0.672,1.5-1.5c0-0.828-0.672-1.5-1.5-1.5c-0.828,0-1.5,0.672-1.5,1.5
	C4.665,11.768,5.337,12.44,6.165,12.44z"/>
<path style="fill:#333333;" d="M11.725,9.44c0.828,0,1.5-0.672,1.5-1.5c0-0.828-0.672-1.5-1.5-1.5c-0.828,0-1.5,0.672-1.5,1.5
	C10.225,8.768,10.897,9.44,11.725,9.44z"/>
</svg>






