<?xml version="1.0" encoding="iso-8859-1"?>
<svg version="1.1" id="&#x56FE;&#x5C42;_1" xmlns="http://www.w3.org/2000/svg" xmlns:xlink="http://www.w3.org/1999/xlink" x="0px"
	 y="0px" viewBox="0 0 24 24" style="enable-background:new 0 0 24 24;" xml:space="preserve">
<path style="fill:#333333;" d="M22,7h-8l-1-1V2l1-1h8l1,1v4L22,7z M15,5h6V3h-6V5z"/>
<path style="fill:#333333;" d="M21,19H4c-1.654,0-3-1.346-3-3v-3c0-2.757,2.243-5,5-5h7V6l1-1h8l1,1v11C23,18.103,22.103,19,21,19z
	 M6,10c-1.654,0-3,1.346-3,3v3c0,0.552,0.449,1,1,1h17V7h-6v2l-1,1H6z"/>
<rect x="6" y="9" style="fill:#333333;" width="2" height="3"/>
<rect x="9.5" y="9" style="fill:#333333;" width="2" height="3"/>
<rect x="6" y="18" style="fill:#333333;" width="2" height="4"/>
<rect x="17" y="18" style="fill:#333333;" width="2" height="4"/>
<rect x="6" y="8" style="fill:#333333;" width="5.5" height="2"/>
<path style="fill:#333333;" d="M22,23H3c-1.103,0-2-0.897-2-2v-0.685h2V21h19V23z"/>
</svg>






