<?xml version="1.0" encoding="iso-8859-1"?>
<svg version="1.1" id="&#x56FE;&#x5C42;_1" xmlns="http://www.w3.org/2000/svg" xmlns:xlink="http://www.w3.org/1999/xlink" x="0px"
	 y="0px" viewBox="0 0 24 24" style="enable-background:new 0 0 24 24;" xml:space="preserve">
<path style="fill:#333333;" d="M19.852,23H4.148l1.947-4.813C3.831,16.364,2.5,13.599,2.5,10.636C2.5,5.323,6.762,1,12,1
	s9.5,4.323,9.5,9.636c0,2.962-1.33,5.728-3.596,7.55L19.852,23z M7.115,21h9.77l-1.43-3.534l0.673-0.453
	c2.111-1.42,3.372-3.804,3.372-6.376C19.5,6.426,16.136,3,12,3s-7.5,3.426-7.5,7.636c0,2.573,1.26,4.957,3.372,6.376l0.673,0.453
	L7.115,21z"/>
<rect x="9" y="19" style="fill:#333333;" width="2" height="3"/>
<rect x="13" y="19" style="fill:#333333;" width="2" height="3"/>
<path style="fill:#333333;" d="M8.5,12.5C7.122,12.5,6,11.378,6,10s1.122-2.5,2.5-2.5S11,8.622,11,10S9.878,12.5,8.5,12.5z M8.5,9.5
	C8.224,9.5,8,9.724,8,10s0.224,0.5,0.5,0.5S9,10.276,9,10S8.776,9.5,8.5,9.5z"/>
<path style="fill:#333333;" d="M15.5,12.5c-1.379,0-2.5-1.122-2.5-2.5s1.121-2.5,2.5-2.5S18,8.622,18,10S16.879,12.5,15.5,12.5z
	 M15.5,9.5C15.225,9.5,15,9.724,15,10s0.225,0.5,0.5,0.5S16,10.276,16,10S15.775,9.5,15.5,9.5z"/>
<rect x="12" y="21" style="fill:#333333;" width="4" height="2"/>
<rect x="8" y="21" style="fill:#333333;" width="4" height="2"/>
</svg>






