<?xml version="1.0" encoding="iso-8859-1"?>
<svg version="1.1" id="&#x56FE;&#x5C42;_1" xmlns="http://www.w3.org/2000/svg" xmlns:xlink="http://www.w3.org/1999/xlink" x="0px"
	 y="0px" viewBox="0 0 24 24" style="enable-background:new 0 0 24 24;" xml:space="preserve">
<path style="fill:#333333;" d="M20,19h-2v-3.75h2V19z M6,19H4V3c0-1.103,0.897-2,2-2h12c1.103,0,2,0.897,2,2v0.5h-2V3H6V19z"/>
<path style="fill:#333333;" d="M12.5,13.5H12c-2.206,0-4-1.794-4-4s1.794-4,4-4h0.5v2H12c-1.103,0-2,0.897-2,2s0.897,2,2,2h0.5V13.5
	z"/>
<path style="fill:#333333;" d="M17,13.5h-0.5v-2H17c1.103,0,2-0.897,2-2s-0.897-2-2-2h-0.5v-2H17c2.206,0,4,1.794,4,4
	S19.206,13.5,17,13.5z"/>
<rect x="12.5" y="8.5" style="fill:#333333;" width="4" height="2"/>
<path style="fill:#333333;" d="M16,23H8c-2.206,0-4-1.794-4-4s1.794-4,4-4h8c2.206,0,4,1.794,4,4S18.206,23,16,23z M8,17
	c-1.103,0-2,0.897-2,2s0.897,2,2,2h8c1.103,0,2-0.897,2-2s-0.897-2-2-2H8z"/>
<circle style="fill:#333333;" cx="16" cy="19" r="1"/>
</svg>






