<?xml version="1.0" encoding="iso-8859-1"?>
<svg version="1.1" id="&#x56FE;&#x5C42;_1" xmlns="http://www.w3.org/2000/svg" xmlns:xlink="http://www.w3.org/1999/xlink" x="0px"
	 y="0px" viewBox="0 0 24 24" style="enable-background:new 0 0 24 24;" xml:space="preserve">
<path style="fill:#333333;" d="M12,22C6.486,22,2,17.514,2,12c0-3.994,2.369-7.599,6.036-9.183l1.348,1.225
	C9.129,4.833,9,5.66,9,6.5c0,4.411,3.589,8,8,8c1.103,0,2.169-0.22,3.171-0.652l1.349,1.225C20.183,19.216,16.356,22,12,22z
	 M7.029,5.729C5.144,7.224,4,9.518,4,12c0,4.411,3.589,8,8,8c2.77,0,5.271-1.406,6.718-3.646C18.155,16.451,17.581,16.5,17,16.5
	c-5.514,0-10-4.486-10-10C7,6.242,7.01,5.985,7.029,5.729z"/>
<polygon style="fill:#333333;" points="20.5,10 15.5,10 14.875,8.219 17.649,6 15.83,6 15.83,4 20.5,4 21.125,5.781 18.351,8 
	20.5,8 "/>
</svg>






