<?xml version="1.0" encoding="iso-8859-1"?>
<svg version="1.1" id="&#x56FE;&#x5C42;_1" xmlns="http://www.w3.org/2000/svg" xmlns:xlink="http://www.w3.org/1999/xlink" x="0px"
	 y="0px" viewBox="0 0 24 24" style="enable-background:new 0 0 24 24;" xml:space="preserve">
<rect x="1" y="6" style="fill:#333333;" width="2" height="12"/>
<rect x="21" y="14.5" style="fill:#333333;" width="2" height="3.5"/>
<rect x="2" y="13.5" style="fill:#333333;" width="20" height="2"/>
<path style="fill:#333333;" d="M23,15.5H10V7h10.5C21.879,7,23,8.122,23,9.5V15.5z M12,13.5h9v-4C21,9.224,20.775,9,20.5,9H12V13.5z
	"/>
<path style="fill:#333333;" d="M6.5,12.5C5.122,12.5,4,11.378,4,10s1.122-2.5,2.5-2.5S9,8.622,9,10S7.878,12.5,6.5,12.5z M6.5,9.5
	C6.224,9.5,6,9.724,6,10s0.224,0.5,0.5,0.5S7,10.276,7,10S6.776,9.5,6.5,9.5z"/>
</svg>






