<?xml version="1.0" encoding="iso-8859-1"?>
<svg version="1.1" id="&#x56FE;&#x5C42;_1" xmlns="http://www.w3.org/2000/svg" xmlns:xlink="http://www.w3.org/1999/xlink" x="0px"
	 y="0px" viewBox="0 0 24 24" style="enable-background:new 0 0 24 24;" xml:space="preserve">
<polygon style="fill:#333333;" points="12.5,13 3.5,13 2.776,11.311 9.738,4 3.5,4 3.5,2 12.071,2 12.796,3.689 5.833,11 12.5,11 
	"/>
<polygon style="fill:#333333;" points="20.5,15.5 14.5,15.5 13.741,13.85 18.326,8.5 14.5,8.5 14.5,6.5 20.5,6.5 21.259,8.151 
	16.674,13.5 20.5,13.5 "/>
<polygon style="fill:#333333;" points="12.5,22 7.5,22 6.758,20.329 9.77,17 7.5,17 7.5,15 12.023,15 12.765,16.671 9.753,20 
	12.5,20 "/>
</svg>






