<?xml version="1.0" encoding="iso-8859-1"?>
<svg version="1.1" id="&#x56FE;&#x5C42;_1" xmlns="http://www.w3.org/2000/svg" xmlns:xlink="http://www.w3.org/1999/xlink" x="0px"
	 y="0px" viewBox="0 0 24 24" style="enable-background:new 0 0 24 24;" xml:space="preserve">
<path style="fill:#333333;" d="M23,18.5H1v-5h22V18.5z M3,16.5h18v-1H3V16.5z"/>
<path style="fill:#333333;" d="M16,15.5H1v-1c0-0.188,0.048-1.896,1.7-4.1l0,0c2.718-3.624,7.871-4.188,9.941-3.89
	C14.949,6.84,16,8.81,16,10.5V15.5z M3.243,13.5H14v-3c0-0.66-0.346-1.825-1.642-2.01C10.977,8.292,6.503,8.664,4.3,11.6
	C3.744,12.342,3.425,12.998,3.243,13.5z"/>
</svg>






