<?xml version="1.0" encoding="iso-8859-1"?>
<svg version="1.1" id="&#x56FE;&#x5C42;_1" xmlns="http://www.w3.org/2000/svg" xmlns:xlink="http://www.w3.org/1999/xlink" x="0px"
	 y="0px" viewBox="0 0 24 24" style="enable-background:new 0 0 24 24;" xml:space="preserve">
<path style="fill:#333333;" d="M12,23C5.935,23,1,18.065,1,12S5.935,1,12,1s11,4.935,11,11S18.065,23,12,23z M12,3
	c-4.962,0-9,4.038-9,9c0,4.963,4.038,9,9,9c4.963,0,9-4.037,9-9C21,7.038,16.963,3,12,3z"/>
<path style="fill:#333333;" d="M12,18.5c-3.083,0-4.342-2.448-4.395-2.553l1.789-0.895C9.421,15.104,10.178,16.5,12,16.5
	s2.579-1.396,2.61-1.456l1.784,0.903C16.343,16.052,15.083,18.5,12,18.5z"/>
<rect x="14.5" y="9" style="fill:#333333;" width="2" height="2"/>
<rect x="7.5" y="9" style="fill:#333333;" width="2" height="2"/>
</svg>






