<?xml version="1.0" encoding="iso-8859-1"?>
<svg version="1.1" id="&#x56FE;&#x5C42;_1" xmlns="http://www.w3.org/2000/svg" xmlns:xlink="http://www.w3.org/1999/xlink" x="0px"
	 y="0px" viewBox="0 0 24 24" style="enable-background:new 0 0 24 24;" xml:space="preserve">
<rect x="3" y="8.764" transform="matrix(0.4472 -0.8944 0.8944 0.4472 -7.6276 9.6584)" style="fill:#333333;" width="2" height="4.472"/>
<rect x="3" y="9" style="fill:#333333;" width="2" height="2"/>
<rect x="19" y="9" style="fill:#333333;" width="2" height="2"/>
<path style="fill:#333333;" d="M12,9C9.794,9,8,7.206,8,5s1.794-4,4-4c2.206,0,4,1.794,4,4S14.206,9,12,9z M12,3
	c-1.103,0-2,0.897-2,2s0.897,2,2,2c1.103,0,2-0.897,2-2S13.103,3,12,3z"/>
<path style="fill:#333333;" d="M12,23c-4.136,0-7.5-3.589-7.5-8S7.864,7,12,7s7.5,3.589,7.5,8S16.136,23,12,23z M12,9
	c-3.033,0-5.5,2.691-5.5,6s2.467,6,5.5,6c3.032,0,5.5-2.691,5.5-6S15.032,9,12,9z"/>
<circle style="fill:#333333;" cx="12" cy="13" r="1"/>
<circle style="fill:#333333;" cx="12" cy="15.5" r="1"/>
<circle style="fill:#333333;" cx="12" cy="18" r="1"/>
<rect x="17.764" y="10" transform="matrix(0.8944 -0.4472 0.4472 0.8944 -2.8079 10.1056)" style="fill:#333333;" width="4.472" height="2"/>
</svg>






