<?xml version="1.0" encoding="iso-8859-1"?>
<svg version="1.1" id="&#x56FE;&#x5C42;_1" xmlns="http://www.w3.org/2000/svg" xmlns:xlink="http://www.w3.org/1999/xlink" x="0px"
	 y="0px" viewBox="0 0 24 24" style="enable-background:new 0 0 24 24;" xml:space="preserve">
<path style="fill:#333333;" d="M14.5,8C12.57,8,11,6.43,11,4.5S12.57,1,14.5,1S18,2.57,18,4.5S16.43,8,14.5,8z M14.5,3
	C13.673,3,13,3.673,13,4.5S13.673,6,14.5,6S16,5.327,16,4.5S15.327,3,14.5,3z"/>
<path style="fill:#333333;" d="M9.5,23c0.828,0,1.5-0.672,1.5-1.5S10.328,20,9.5,20S8,20.672,8,21.5S8.672,23,9.5,23z"/>
<path style="fill:#333333;" d="M14.543,22.289l-1.515-5.02l-3.664-2.997l-0.244-1.249l2.19-4.044l1.758,0.952l-1.798,3.321
	l3.02,2.485c0.278,0.217,0.506,0.537,0.638,0.91l1.528,5.063L14.543,22.289z"/>
<path style="fill:#333333;" d="M6.423,18.758c-0.261,0-0.525-0.051-0.777-0.156l-4.031-1.679l0.769-1.846l4.035,1.68l2.769-3.841
	l1.624,1.168l-2.745,3.82C7.694,18.448,7.068,18.758,6.423,18.758z"/>
<path style="fill:#333333;" d="M21,13h-3.5c-0.356,0-0.707-0.092-1.013-0.266l-1.604-0.903c-1.914-1.122-3.985-1.885-6.17-2.277
	L7.105,9.27l-3.148,1.619L3.042,9.111l3.12-1.605c0.376-0.208,0.843-0.287,1.292-0.205l1.609,0.284
	c2.42,0.435,4.713,1.28,6.816,2.512l1.591,0.896L21,11V13z"/>
</svg>






