<?xml version="1.0" encoding="iso-8859-1"?>
<svg version="1.1" id="&#x56FE;&#x5C42;_1" xmlns="http://www.w3.org/2000/svg" xmlns:xlink="http://www.w3.org/1999/xlink" x="0px"
	 y="0px" viewBox="0 0 24 24" style="enable-background:new 0 0 24 24;" xml:space="preserve">
<path style="fill:#333333;" d="M11.989,23.001c-1.712,0-3.413-0.404-4.984-1.205c-2.618-1.334-4.56-3.606-5.467-6.399
	c-0.907-2.793-0.673-5.773,0.66-8.39C3.532,4.387,5.805,2.446,8.6,1.539l0,0c2.793-0.908,5.773-0.673,8.391,0.66
	c2.619,1.333,4.561,3.607,5.468,6.401c0.907,2.793,0.672,5.773-0.66,8.39c-1.333,2.619-3.606,4.561-6.401,5.468
	C14.279,22.821,13.132,23.001,11.989,23.001z M12.007,2.996c-0.935,0-1.874,0.147-2.789,0.445h0
	c-2.286,0.742-4.146,2.33-5.236,4.473c-1.091,2.142-1.282,4.58-0.54,6.866c0.742,2.284,2.33,4.144,4.473,5.234
	c2.143,1.092,4.579,1.283,6.866,0.542c2.286-0.742,4.146-2.33,5.236-4.473c1.09-2.142,1.282-4.58,0.54-6.866
	c-0.742-2.286-2.33-4.146-4.473-5.236C14.799,3.327,13.407,2.996,12.007,2.996z"/>
<path style="fill:#333333;" d="M15,17.5H9l-0.949-0.684l-2-6l0.324-1.097l5-4h1.25l5,4l0.323,1.097l-2,6L15,17.5z M9.721,15.5h4.559
	l1.552-4.655L12,7.781l-3.831,3.064L9.721,15.5z"/>
<rect x="16.878" y="8.75" transform="matrix(0.9486 -0.3164 0.3164 0.9486 -2.0959 6.591)" style="fill:#333333;" width="4.743" height="2"/>
<rect x="15.501" y="15.945" transform="matrix(0.7593 -0.6508 0.6508 0.7593 -7.9047 15.1316)" style="fill:#333333;" width="1.999" height="4.61"/>
<rect x="5.195" y="17.25" transform="matrix(0.6506 -0.7595 0.7595 0.6506 -11.2393 12.0734)" style="fill:#333333;" width="4.61" height="2"/>
<rect x="3.75" y="7.378" transform="matrix(0.3162 -0.9487 0.9487 0.3162 -6.0017 11.173)" style="fill:#333333;" width="2" height="4.743"/>
<rect x="11" y="2" style="fill:#333333;" width="2" height="4.5"/>
</svg>






