<?xml version="1.0" encoding="iso-8859-1"?>
<svg version="1.1" id="&#x56FE;&#x5C42;_1" xmlns="http://www.w3.org/2000/svg" xmlns:xlink="http://www.w3.org/1999/xlink" x="0px"
	 y="0px" viewBox="0 0 24 24" style="enable-background:new 0 0 24 24;" xml:space="preserve">
<path style="fill:#333333;" d="M15.793,18.207c-0.763-0.763-3.142-3.528-1.722-7.079C15.323,8,18.481,8,20,8v2
	c-1.751,0-3.38,0.143-4.071,1.872c-0.966,2.415,0.734,4.377,1.278,4.921L15.793,18.207z"/>
<rect x="9" y="4" style="fill:#333333;" width="11" height="2"/>
<path style="fill:#333333;" d="M8.396,22.933c-1.419,0-2.859-0.481-4.103-1.726c-1.306-1.306-1.977-2.893-1.94-4.59
	c0.035-1.648,0.753-3.235,1.971-4.354C5.754,10.951,7.303,9.668,8,9.099V3c0-1.103,0.897-2,2-2h9c1.103,0,2,0.897,2,2v9.144
	c0,2.02-0.959,3.951-2.564,5.167c-1.859,1.41-4.298,3.249-5.354,4.003C11.802,22.228,10.114,22.933,8.396,22.933z M10,3H9.999
	L10,10.056l-0.375,0.3c-0.021,0.017-2.122,1.702-3.949,3.38c-0.806,0.74-1.301,1.833-1.324,2.924
	c-0.024,1.139,0.444,2.222,1.355,3.133c2.404,2.403,5.596,0.333,6.211-0.106c1.093-0.78,3.795-2.822,5.309-3.97
	C18.338,14.876,19,13.541,19,12.144V3H10z"/>
</svg>






