<?xml version="1.0" encoding="iso-8859-1"?>
<svg version="1.1" id="&#x56FE;&#x5C42;_1" xmlns="http://www.w3.org/2000/svg" xmlns:xlink="http://www.w3.org/1999/xlink" x="0px"
	 y="0px" viewBox="0 0 24 24" style="enable-background:new 0 0 24 24;" xml:space="preserve">
<path style="fill:#333333;" d="M23,20H1V8h6v6.5h10V8h6V20z M3,18h18v-8h-2v6.5H5V10H3V18z"/>
<path style="fill:#333333;" d="M19,16.5H5V2h14V16.5z M7,14.5h10V4H7V14.5z"/>
<path style="fill-rule:evenodd;clip-rule:evenodd;fill:#333333;" d="M5,22c1.105,0,2-0.895,2-2c-0.549,0.002-3.65,0-4,0
	C3,21.105,3.895,22,5,22z"/>
<path style="fill-rule:evenodd;clip-rule:evenodd;fill:#333333;" d="M19,22c1.105,0,2-0.895,2-2c-0.952-0.003-3.569,0-4,0
	C17,21.105,17.895,22,19,22z"/>
</svg>






