<?xml version="1.0" encoding="iso-8859-1"?>
<svg version="1.1" id="&#x56FE;&#x5C42;_1" xmlns="http://www.w3.org/2000/svg" xmlns:xlink="http://www.w3.org/1999/xlink" x="0px"
	 y="0px" viewBox="0 0 24 24" style="enable-background:new 0 0 24 24;" xml:space="preserve">
<path style="fill:#333333;" d="M7,18.5H1v-9h6V18.5z M3,16.5h2v-5H3V16.5z"/>
<path style="fill:#333333;" d="M23,18.5h-6v-9h6V18.5z M19,16.5h2v-5h-2V16.5z"/>
<path style="fill:#333333;" d="M19,18.5H5v-6h14V18.5z M7,16.5h10v-2H7V16.5z"/>
<polygon style="fill:#333333;" points="21,10 19,10 19,5 5,5 5,10 3,10 3,3 21,3 "/>
<rect x="3" y="18" style="fill:#333333;" width="2" height="2"/>
<rect x="19" y="18" style="fill:#333333;" width="2" height="2"/>
</svg>






