<?xml version="1.0" encoding="iso-8859-1"?>
<svg version="1.1" id="&#x56FE;&#x5C42;_1" xmlns="http://www.w3.org/2000/svg" xmlns:xlink="http://www.w3.org/1999/xlink" x="0px"
	 y="0px" viewBox="0 0 24 24" style="enable-background:new 0 0 24 24;" xml:space="preserve">
<path style="fill:#333333;" d="M12,23C5.935,23,1,18.065,1,12S5.935,1,12,1s11,4.935,11,11S18.065,23,12,23z M12,3
	c-4.962,0-9,4.038-9,9c0,4.963,4.038,9,9,9c4.963,0,9-4.037,9-9C21,7.038,16.963,3,12,3z"/>
<path style="fill:#333333;" d="M5.7,19.714l-1.4-1.428C6.066,16.553,7,14.379,7,12c0-2.312-0.961-4.547-2.707-6.293l1.414-1.414
	C7.831,6.417,9,9.153,9,12C9,14.928,7.859,17.596,5.7,19.714z"/>
<path style="fill:#333333;" d="M18.3,19.714C16.141,17.595,15,14.928,15,12c0-2.846,1.169-5.583,3.293-7.707l1.414,1.414
	C17.962,7.453,17,9.688,17,12c0,2.379,0.934,4.553,2.7,6.286L18.3,19.714z"/>
<rect x="14" y="11" style="fill:#333333;" width="4" height="2"/>
<rect x="6" y="11" style="fill:#333333;" width="4" height="2"/>
<rect x="14.823" y="15.25" transform="matrix(0.8944 -0.4472 0.4472 0.8944 -5.5253 9.0946)" style="fill:#333333;" width="3.354" height="2"/>
<rect x="15.5" y="6.073" transform="matrix(0.4472 -0.8944 0.8944 0.4472 2.1892 19.0421)" style="fill:#333333;" width="2" height="3.354"/>
<rect x="6.5" y="14.573" transform="matrix(0.4472 -0.8944 0.8944 0.4472 -10.3885 15.691)" style="fill:#333333;" width="2" height="3.354"/>
<rect x="5.823" y="6.75" transform="matrix(0.8944 -0.4472 0.4472 0.8944 -2.6741 4.1723)" style="fill:#333333;" width="3.354" height="2"/>
</svg>






