<?xml version="1.0" encoding="iso-8859-1"?>
<svg version="1.1" id="&#x56FE;&#x5C42;_1" xmlns="http://www.w3.org/2000/svg" xmlns:xlink="http://www.w3.org/1999/xlink" x="0px"
	 y="0px" viewBox="0 0 24 24" style="enable-background:new 0 0 24 24;" xml:space="preserve">
<path style="fill:#333333;" d="M21,17H3c-1.103,0-2-0.897-2-2V5c0-1.103,0.897-2,2-2h18c1.103,0,2,0.897,2,2v10
	C23,16.103,22.103,17,21,17z M3,5H2.999L3,15h18V5H3z"/>
<rect x="14" y="4" style="fill:#333333;" width="2" height="12"/>
<rect x="8" y="4" style="fill:#333333;" width="2" height="12"/>
<rect x="3" y="9" style="fill:#333333;" width="18" height="2"/>
<rect x="11" y="16" style="fill:#333333;" width="2" height="4.5"/>
<rect x="8.5" y="19.5" style="fill:#333333;" width="7" height="2"/>
</svg>






