<?xml version="1.0" encoding="iso-8859-1"?>
<svg version="1.1" id="&#x56FE;&#x5C42;_1" xmlns="http://www.w3.org/2000/svg" xmlns:xlink="http://www.w3.org/1999/xlink" x="0px"
	 y="0px" viewBox="0 0 24 24" style="enable-background:new 0 0 24 24;" xml:space="preserve">
<path style="fill:#333333;" d="M8,22H4v-8h4c2.206,0,4,1.794,4,4S10.206,22,8,22z M6,20h2c1.103,0,2-0.897,2-2s-0.897-2-2-2H6V20z"
	/>
<rect x="4" y="14" style="fill:#333333;" width="2" height="8"/>
<rect x="2" y="15" style="fill:#333333;" width="3" height="2"/>
<rect x="2" y="18" style="fill:#333333;" width="3" height="2"/>
<path style="fill:#333333;" d="M15,19h-4v-2h4v-5.5h2V17C17,18.103,16.103,19,15,19z"/>
<rect x="15" y="2" style="fill:#333333;" width="2" height="3.5"/>
<rect x="11.5" y="3.5" transform="matrix(0.7071 -0.7071 0.7071 0.7071 0.1256 10.3033)" style="fill:#333333;" width="2" height="3"/>
<rect x="11" y="10.5" transform="matrix(0.7071 -0.7071 0.7071 0.7071 -4.4706 12.2071)" style="fill:#333333;" width="3" height="2"/>
<rect x="18" y="4" transform="matrix(0.7071 -0.7071 0.7071 0.7071 2.1759 15.253)" style="fill:#333333;" width="3" height="2"/>
<rect x="18.5" y="10" transform="matrix(0.7071 -0.7071 0.7071 0.7071 -2.4203 17.1569)" style="fill:#333333;" width="2" height="3"/>
<path style="fill:#333333;" d="M16,12.5c-2.206,0-4-1.794-4-4s1.794-4,4-4s4,1.794,4,4S18.206,12.5,16,12.5z M16,6.5
	c-1.103,0-2,0.897-2,2s0.897,2,2,2s2-0.897,2-2S17.103,6.5,16,6.5z"/>
<rect x="10" y="7.5" style="fill:#333333;" width="3" height="2"/>
<rect x="19" y="7.5" style="fill:#333333;" width="3" height="2"/>
</svg>






