<?xml version="1.0" encoding="iso-8859-1"?>
<svg version="1.1" id="&#x56FE;&#x5C42;_1" xmlns="http://www.w3.org/2000/svg" xmlns:xlink="http://www.w3.org/1999/xlink" x="0px"
	 y="0px" viewBox="0 0 24 24" style="enable-background:new 0 0 24 24;" xml:space="preserve">
<path style="fill:#333333;" d="M12,21c-2.581,0-11-0.217-11-3c0-1.299,1.5-2.132,4.707-2.604l2.229-8.288l-1.33-2.66l1.211-1.396
	L14.262,5.2l3.956,10.185C21.477,15.855,23,16.691,23,18C23,20.783,14.58,21,12,21z M3.448,17.979C4.636,18.432,7.575,19,12,19
	s7.364-0.568,8.553-1.021c-0.503-0.203-1.448-0.477-3.175-0.689l-0.594-0.073L12.738,6.8L9.474,5.712l0.59,1.181L7.291,17.208
	L6.623,17.29C4.896,17.503,3.95,17.776,3.448,17.979z"/>
</svg>






