<?xml version="1.0" encoding="iso-8859-1"?>
<svg version="1.1" id="&#x56FE;&#x5C42;_1" xmlns="http://www.w3.org/2000/svg" xmlns:xlink="http://www.w3.org/1999/xlink" x="0px"
	 y="0px" viewBox="0 0 24 24" style="enable-background:new 0 0 24 24;" xml:space="preserve">
<path style="fill:#333333;" d="M18,23H6c-1.378,0-2.5-1.121-2.5-2.5v-17C3.5,2.122,4.622,1,6,1h12c1.379,0,2.5,1.122,2.5,2.5v17
	C20.5,21.879,19.379,23,18,23z M6,3C5.724,3,5.5,3.224,5.5,3.5v17C5.5,20.775,5.724,21,6,21h12c0.275,0,0.5-0.225,0.5-0.5v-17
	C18.5,3.224,18.275,3,18,3H6z"/>
<path style="fill:#333333;" d="M12,15.5c-2.481,0-4.5-2.019-4.5-4.5S9.519,6.5,12,6.5s4.5,2.019,4.5,4.5S14.481,15.5,12,15.5z
	 M12,8.5c-1.378,0-2.5,1.122-2.5,2.5c0,1.379,1.122,2.5,2.5,2.5c1.379,0,2.5-1.121,2.5-2.5C14.5,9.622,13.379,8.5,12,8.5z"/>
<path style="fill:#333333;" d="M16,4L16,4c0.552,0,1,0.448,1,1l0,0c0,0.552-0.448,1-1,1l0,0c-0.552,0-1-0.448-1-1l0,0
	C15,4.448,15.448,4,16,4z"/>
<rect x="13.5" y="17" style="fill:#333333;" width="1" height="2"/>
<rect x="9.5" y="17" style="fill:#333333;" width="1" height="2"/>
</svg>






