<?xml version="1.0" encoding="iso-8859-1"?>
<svg version="1.1" id="&#x56FE;&#x5C42;_1" xmlns="http://www.w3.org/2000/svg" xmlns:xlink="http://www.w3.org/1999/xlink" x="0px"
	 y="0px" viewBox="0 0 24 24" style="enable-background:new 0 0 24 24;" xml:space="preserve">
<path style="fill:#333333;" d="M19,23H5c-1.103,0-2-0.897-2-2V3c0-1.103,0.897-2,2-2h14c1.103,0,2,0.897,2,2v18
	C21,22.103,20.103,23,19,23z M5,3H4.999L5,21h14V3H5z"/>
<path style="fill:#333333;" d="M12,11c-1.93,0-3.5-1.57-3.5-3.5S10.07,4,12,4s3.5,1.57,3.5,3.5S13.93,11,12,11z M12,6
	c-0.827,0-1.5,0.673-1.5,1.5S11.173,9,12,9s1.5-0.673,1.5-1.5S12.827,6,12,6z"/>
<circle style="fill:#333333;" cx="7" cy="5" r="1"/>
<circle style="fill:#333333;" cx="7" cy="19" r="1"/>
<circle style="fill:#333333;" cx="17" cy="5" r="1"/>
<circle style="fill:#333333;" cx="17" cy="19" r="1"/>
<path style="fill:#333333;" d="M12,20c-2.206,0-4-1.794-4-4s1.794-4,4-4c2.206,0,4,1.794,4,4S14.206,20,12,20z M12,14
	c-1.103,0-2,0.897-2,2s0.897,2,2,2c1.103,0,2-0.897,2-2S13.103,14,12,14z"/>
</svg>






