<?xml version="1.0" encoding="iso-8859-1"?>
<svg version="1.1" id="&#x56FE;&#x5C42;_1" xmlns="http://www.w3.org/2000/svg" xmlns:xlink="http://www.w3.org/1999/xlink" x="0px"
	 y="0px" viewBox="0 0 24 24" style="enable-background:new 0 0 24 24;" xml:space="preserve">
<path style="fill:#333333;" d="M20.466,13.5H16v-2h3.932L19.564,6H17.5V4h2.532c0.787,0,1.444,0.615,1.497,1.4l0.434,6.5
	c0.026,0.415-0.12,0.824-0.403,1.126C21.277,13.327,20.879,13.5,20.466,13.5z"/>
<path style="fill:#333333;" d="M16.358,16.5H6.633L5.057,5.471L2.793,3.207L3.5,1.5h15.166L16.358,16.5z M8.367,14.5h6.274l1.692-11
	H5.914l1.029,1.029L8.367,14.5z"/>
<path style="fill:#333333;" d="M18.888,22.5H4.113l2.667-8h9.441L18.888,22.5z M6.887,20.5h9.225l-1.333-4H8.221L6.887,20.5z"/>
<rect x="10.5" y="17.5" style="fill:#333333;" width="2" height="2"/>
</svg>






