<?xml version="1.0" encoding="iso-8859-1"?>
<svg version="1.1" id="&#x56FE;&#x5C42;_1" xmlns="http://www.w3.org/2000/svg" xmlns:xlink="http://www.w3.org/1999/xlink" x="0px"
	 y="0px" viewBox="0 0 24 24" style="enable-background:new 0 0 24 24;" xml:space="preserve">
<path style="fill:#333333;" d="M18.198,22H5.802c-0.945,0-1.748-0.645-1.952-1.566l-1.556-7c-0.132-0.595,0.011-1.209,0.392-1.685
	C3.068,11.273,3.637,11,4.247,11h15.506c0.61,0,1.179,0.273,1.561,0.749c0.382,0.476,0.524,1.09,0.393,1.685l-1.556,7
	C19.945,21.355,19.143,22,18.198,22z M4.247,13l1.556,7h12.396l1.555-7H4.247z"/>
<path style="fill:#333333;" d="M11.887,9c-1.036,0-2.04-0.676-2.559-1.722c-0.504-1.017-0.43-2.116,0.197-2.939l0,0
	c0.645-0.847,1.163-2.071,1.441-2.729l1.725-0.206c0.523,0.708,1.729,2.565,2.143,3.654c0.314,0.825,0.181,1.753-0.365,2.546
	C13.875,8.466,12.887,9,11.887,9z M11.117,5.55c-0.232,0.305-0.056,0.72,0.003,0.84C11.296,6.744,11.618,7,11.887,7
	c0.346,0,0.712-0.208,0.935-0.53c0.079-0.115,0.252-0.414,0.143-0.7c-0.159-0.417-0.526-1.082-0.919-1.723
	C11.782,4.557,11.471,5.085,11.117,5.55L11.117,5.55z"/>
<rect x="11" y="8" style="fill:#333333;" width="2" height="4"/>
</svg>






