<?xml version="1.0" encoding="iso-8859-1"?>
<svg version="1.1" id="&#x56FE;&#x5C42;_1" xmlns="http://www.w3.org/2000/svg" xmlns:xlink="http://www.w3.org/1999/xlink" x="0px"
	 y="0px" viewBox="0 0 24 24" style="enable-background:new 0 0 24 24;" xml:space="preserve">
<path style="fill:#333333;" d="M22,21.5h-2V3h-3.5v9h-2V3c0-1.103,0.897-2,2-2H20c1.103,0,2,0.897,2,2V21.5z"/>
<path style="fill:#333333;" d="M22,23H2v-3c0-5.514,4.486-10,10-10c5.514,0,10,4.486,10,10V23z M4,21h16v-1c0-4.411-3.589-8-8-8
	s-8,3.589-8,8V21z"/>
<rect x="3" y="4" style="fill:#333333;" width="2" height="11.5"/>
<rect x="7" y="7" style="fill:#333333;" width="2" height="5"/>
<rect x="15.5" y="6" style="fill:#333333;" width="5.5" height="2"/>
<path style="fill:#333333;" d="M16.5,21h-2v-1.5c0-4.509-1.505-7.5-2.5-7.5s-2.5,2.991-2.5,7.5V21h-2v-1.5
	c0-4.721,1.546-9.5,4.5-9.5s4.5,4.779,4.5,9.5V21z"/>
<rect x="2" y="21" style="fill:#333333;" width="20" height="2"/>
<path style="fill:#333333;" d="M20.404,18.495C20.353,18.49,15.238,18,12,18c-3.24,0-8.353,0.49-8.404,0.495l-0.192-1.99
	C3.617,16.484,8.665,16,12,16s8.383,0.484,8.596,0.505L20.404,18.495z"/>
</svg>






