<?xml version="1.0" encoding="iso-8859-1"?>
<svg version="1.1" id="&#x56FE;&#x5C42;_1" xmlns="http://www.w3.org/2000/svg" xmlns:xlink="http://www.w3.org/1999/xlink" x="0px"
	 y="0px" viewBox="0 0 24 24" style="enable-background:new 0 0 24 24;" xml:space="preserve">
<path style="fill:#333333;" d="M4.864,22.498c-0.861,0-1.721-0.325-2.376-0.977C1.851,20.891,1.5,20.049,1.5,19.153
	s0.351-1.737,0.988-2.369l5.819-5.778c-0.243-0.729-0.366-1.49-0.366-2.271c0-3.989,3.265-7.234,7.279-7.234
	c1.112,0,2.18,0.243,3.174,0.722l1.273,0.614l-2.604,2.586c-0.256,0.254-0.397,0.591-0.397,0.95s0.142,0.696,0.397,0.951
	c0.533,0.529,1.4,0.528,1.934,0l2.537-2.519l0.534,1.471C22.354,7.062,22.5,7.89,22.5,8.734c0,3.989-3.266,7.234-7.279,7.234
	c-0.712,0-1.41-0.102-2.084-0.302L7.24,21.522C6.584,22.173,5.724,22.498,4.864,22.498z M15.221,3.5
	c-2.911,0-5.279,2.348-5.279,5.234c0,0.737,0.15,1.448,0.447,2.113l0.281,0.63l-6.773,6.726C3.641,18.458,3.5,18.795,3.5,19.153
	s0.141,0.695,0.396,0.949c0.534,0.529,1.401,0.531,1.934,0l6.805-6.756l0.609,0.243c0.629,0.252,1.294,0.379,1.976,0.379
	c2.911,0,5.279-2.348,5.279-5.234c0-0.028,0-0.056-0.001-0.083l-0.093,0.092c-1.308,1.299-3.44,1.302-4.752,0
	c-0.638-0.633-0.988-1.475-0.988-2.371c0-0.895,0.351-1.736,0.987-2.369l0.438-0.434C15.806,3.523,15.516,3.5,15.221,3.5z"/>
</svg>






