<?xml version="1.0" encoding="iso-8859-1"?>
<svg version="1.1" id="&#x56FE;&#x5C42;_1" xmlns="http://www.w3.org/2000/svg" xmlns:xlink="http://www.w3.org/1999/xlink" x="0px"
	 y="0px" viewBox="0 0 24 24" style="enable-background:new 0 0 24 24;" xml:space="preserve">
<path style="fill:#333333;" d="M11.328,16.344c-0.751,0-1.502-0.278-2.084-0.84c-1.189-1.149-1.223-3.053-0.074-4.242
	c0.852-0.882,4.511-2.368,5.611-2.803l1.31,1.265c-0.396,1.115-1.753,4.824-2.604,5.706C12.898,16.038,12.113,16.344,11.328,16.344z
	 M13.392,11.209c-1.357,0.601-2.526,1.185-2.784,1.442c-0.382,0.396-0.371,1.03,0.025,1.414c0.396,0.382,1.03,0.373,1.415-0.025
	C12.296,13.774,12.839,12.587,13.392,11.209z"/>
<path style="fill:#333333;" d="M20.132,20.132l-1.414-1.414C20.512,16.924,21.5,14.538,21.5,12c0-5.238-4.262-9.5-9.5-9.5
	S2.5,6.762,2.5,12c0,2.537,0.988,4.923,2.782,6.718l-1.414,1.414C1.696,17.959,0.5,15.071,0.5,12C0.5,5.659,5.659,0.5,12,0.5
	c6.341,0,11.5,5.159,11.5,11.5C23.5,15.072,22.304,17.96,20.132,20.132z"/>
<rect x="11" y="2" style="fill:#333333;" width="2" height="2"/>
<rect x="17.645" y="5.201" transform="matrix(0.7774 -0.629 0.629 0.7774 0.2501 13.1076)" style="fill:#333333;" width="2" height="2"/>
<rect x="19.286" y="12.391" transform="matrix(0.2251 -0.9743 0.9743 0.2251 2.6719 30.1419)" style="fill:#333333;" width="2.001" height="2"/>
<rect x="2.713" y="12.391" transform="matrix(0.9744 -0.225 0.225 0.9744 -2.9183 1.1791)" style="fill:#333333;" width="2" height="2.001"/>
<rect x="4.354" y="5.2" transform="matrix(0.6293 -0.7772 0.7772 0.6293 -2.8336 6.4601)" style="fill:#333333;" width="2" height="2"/>
</svg>






