<?xml version="1.0" encoding="iso-8859-1"?>
<svg version="1.1" id="&#x56FE;&#x5C42;_1" xmlns="http://www.w3.org/2000/svg" xmlns:xlink="http://www.w3.org/1999/xlink" x="0px"
	 y="0px" viewBox="0 0 24 24" style="enable-background:new 0 0 24 24;" xml:space="preserve">
<path style="fill:#333333;" d="M12.218,23.312c-2.46,0-4.674-1.65-5.368-2.345c-0.232-0.232-0.454-0.494-0.657-0.777
	c-0.438-0.609-0.44-1.402-0.03-2.01c-0.036-0.019-0.071-0.039-0.105-0.061c-0.479-0.299-0.779-0.797-0.822-1.366
	c-0.083-1.08,0.011-3.159,1.569-4.939c0.629-0.72,1.286-1.296,1.951-1.714l1.063,1.693c-0.5,0.314-1.008,0.765-1.51,1.337
	c-0.95,1.086-1.11,2.359-1.094,3.171c0.277-0.119,0.504-0.235,0.653-0.334c0.214-0.144,0.216-0.159,0.272-0.574
	c0.034-0.252,0.077-0.565,0.198-0.93c0.469-1.402,2.168-2.215,3.788-1.807c1.487,0.371,2.487,1.572,2.487,2.988
	c0,1.481-0.769,2.688-2.055,3.229c-1.176,0.497-1.996,0.255-2.79,0.021c-0.277-0.082-0.588-0.174-0.967-0.25
	c-0.117-0.029-0.442,0.108-0.868,0.536c0.104,0.134,0.214,0.258,0.328,0.371c0.402,0.402,2.427,1.967,4.361,1.735
	c1.847-0.23,3.614-1.613,4.397-3.439c0.718-1.675,0.202-3.911-1.174-5.09l1.303-1.519c2.033,1.744,2.769,4.924,1.709,7.396
	c-1.054,2.458-3.46,4.321-5.987,4.637C12.653,23.3,12.435,23.312,12.218,23.312z M9.777,16.819c0.201,0.053,0.386,0.106,0.558,0.157
	c0.695,0.206,0.929,0.275,1.449,0.055c0.687-0.288,0.831-0.913,0.831-1.386c0-0.39-0.256-0.869-0.973-1.049
	c-0.698-0.172-1.298,0.179-1.405,0.5c-0.062,0.187-0.086,0.362-0.114,0.565C10.077,15.997,10.021,16.406,9.777,16.819z"/>
<path style="fill:#333333;" d="M15.605,12.447l-4.606-9.221c-0.027,0.088-0.011,0.156-0.002,0.195
	c0.254,1.12,1.749,6.28,2.404,7.645l-1.803,0.866c-0.771-1.604-2.312-7.013-2.551-8.068C8.793,2.75,9.32,1.694,10.455,1.042
	c0.339-0.195,0.733-0.241,1.111-0.126c0.385,0.116,0.71,0.393,0.893,0.758l4.936,9.879L15.605,12.447z"/>
<path style="fill:#333333;" d="M9.271,12.184c-1.213-1.295-2.741-3.481-3.333-4.497c-0.58-0.995-0.388-2.167,0.514-3.134
	c0.26-0.278,0.612-0.436,0.992-0.448c0.394-0.004,0.774,0.137,1.061,0.409l3.435,3.26l-1.377,1.45L7.612,6.426
	c-0.02,0.13,0.027,0.21,0.052,0.253c0.545,0.934,2.009,3.01,3.065,4.137L9.271,12.184z"/>
</svg>






