<?xml version="1.0" encoding="iso-8859-1"?>
<svg version="1.1" id="&#x56FE;&#x5C42;_1" xmlns="http://www.w3.org/2000/svg" xmlns:xlink="http://www.w3.org/1999/xlink" x="0px"
	 y="0px" viewBox="0 0 24 24" style="enable-background:new 0 0 24 24;" xml:space="preserve">
<path style="fill:#333333;" d="M22,8h-8l-1-1V3l1-1h8l1,1v4L22,8z M15,6h6V4h-6V6z"/>
<path style="fill:#333333;" d="M21,20H4c-1.654,0-3-1.346-3-3v-3c0-2.757,2.243-5,5-5h7V7l1-1h8l1,1v11C23,19.103,22.103,20,21,20z
	 M6,11c-1.654,0-3,1.346-3,3v3c0,0.552,0.449,1,1,1h17V8h-6v2l-1,1H6z"/>
<rect x="6" y="10" style="fill:#333333;" width="2" height="3"/>
<rect x="9.5" y="10" style="fill:#333333;" width="2" height="3"/>
<rect x="6.5" y="19" style="fill:#333333;" width="2" height="2"/>
<rect x="3" y="19" style="fill:#333333;" width="2" height="2"/>
<rect x="10" y="19" style="fill:#333333;" width="2" height="2"/>
<rect x="16" y="19" style="fill:#333333;" width="2" height="2"/>
<rect x="19.5" y="19" style="fill:#333333;" width="2" height="2"/>
<rect x="6" y="9" style="fill:#333333;" width="5.5" height="2"/>
</svg>






