<?xml version="1.0" encoding="iso-8859-1"?>
<svg version="1.1" id="&#x56FE;&#x5C42;_1" xmlns="http://www.w3.org/2000/svg" xmlns:xlink="http://www.w3.org/1999/xlink" x="0px"
	 y="0px" viewBox="0 0 24 24" style="enable-background:new 0 0 24 24;" xml:space="preserve">
<path style="fill:#333333;" d="M9.5,23h-7C1.673,23,1,22.327,1,21.5V17h2v4h6V3H3v4H1V2.5C1,1.673,1.673,1,2.5,1h7
	C10.327,1,11,1.673,11,2.5v19C11,22.327,10.327,23,9.5,23z"/>
<path style="fill:#333333;" d="M21.5,23h-7c-0.827,0-1.5-0.673-1.5-1.5v-19C13,1.673,13.673,1,14.5,1h7C22.327,1,23,1.673,23,2.5V7
	h-2V3h-6v18h6v-4h2v4.5C23,22.327,22.327,23,21.5,23z"/>
<rect x="14" y="11.003" style="fill:#333333;" width="8" height="2"/>
<rect x="2" y="11.003" style="fill:#333333;" width="8" height="2"/>
<polygon style="fill:#333333;" points="20.32,15.097 18.906,13.681 20.586,12.003 18.906,10.323 20.32,8.909 23.414,12.003 "/>
<polygon style="fill:#333333;" points="3.67,15.1 0.577,12.007 3.67,8.913 5.084,10.327 3.405,12.007 5.084,13.686 "/>
</svg>






