<?xml version="1.0" encoding="iso-8859-1"?>
<svg version="1.1" id="&#x56FE;&#x5C42;_1" xmlns="http://www.w3.org/2000/svg" xmlns:xlink="http://www.w3.org/1999/xlink" x="0px"
	 y="0px" viewBox="0 0 24 24" style="enable-background:new 0 0 24 24;" xml:space="preserve">
<path style="fill:#333333;" d="M19.5,22h-2v-7c0-1.654-1.346-3-3-3h-8v-2h8c2.757,0,5,2.243,5,5V22z"/>
<path style="fill:#333333;" d="M6.5,7.972c-1.93,0-3.5-1.57-3.5-3.5s1.57-3.5,3.5-3.5s3.5,1.57,3.5,3.5S8.43,7.972,6.5,7.972z
	 M6.5,2.972c-0.827,0-1.5,0.673-1.5,1.5s0.673,1.5,1.5,1.5S8,5.299,8,4.472S7.327,2.972,6.5,2.972z"/>
<rect x="5.5" y="7" style="fill:#333333;" width="2" height="14.5"/>
<polygon style="fill:#333333;" points="6.5,23.414 3.293,20.207 4.707,18.793 6.5,20.586 8.293,18.793 9.707,20.207 "/>
<polygon style="fill:#333333;" points="18.5,23.414 15.293,20.207 16.707,18.793 18.5,20.586 20.293,18.793 21.707,20.207 "/>
</svg>






