<?xml version="1.0" encoding="iso-8859-1"?>
<svg version="1.1" id="&#x56FE;&#x5C42;_1" xmlns="http://www.w3.org/2000/svg" xmlns:xlink="http://www.w3.org/1999/xlink" x="0px"
	 y="0px" viewBox="0 0 24 24" style="enable-background:new 0 0 24 24;" xml:space="preserve">
<path style="fill:#333333;" d="M7.5,22h-2v-7c0-2.757,2.243-5,5-5h8v2h-8c-1.654,0-3,1.346-3,3V22z"/>
<path style="fill:#333333;" d="M18.5,7.972c-1.93,0-3.5-1.57-3.5-3.5s1.57-3.5,3.5-3.5s3.5,1.57,3.5,3.5S20.43,7.972,18.5,7.972z
	 M18.5,2.972c-0.827,0-1.5,0.673-1.5,1.5s0.673,1.5,1.5,1.5s1.5-0.673,1.5-1.5S19.327,2.972,18.5,2.972z"/>
<rect x="17.5" y="7" style="fill:#333333;" width="2" height="14.5"/>
<polygon style="fill:#333333;" points="18.5,23.414 15.293,20.207 16.707,18.793 18.5,20.586 20.293,18.793 21.707,20.207 "/>
<polygon style="fill:#333333;" points="6.5,23.414 3.293,20.207 4.707,18.793 6.5,20.586 8.293,18.793 9.707,20.207 "/>
</svg>






