<?xml version="1.0" encoding="iso-8859-1"?>
<svg version="1.1" id="&#x56FE;&#x5C42;_1" xmlns="http://www.w3.org/2000/svg" xmlns:xlink="http://www.w3.org/1999/xlink" x="0px"
	 y="0px" viewBox="0 0 24 24" style="enable-background:new 0 0 24 24;" xml:space="preserve">
<path style="fill:#333333;" d="M12,13c-3.309,0-6-2.691-6-6s2.691-6,6-6s6,2.691,6,6S15.309,13,12,13z M12,3C9.794,3,8,4.794,8,7
	s1.794,4,4,4c2.206,0,4-1.794,4-4S14.206,3,12,3z"/>
<rect x="11" y="12" style="fill:#333333;" width="2" height="6"/>
<path style="fill:#333333;" d="M12,23c-1.378,0-2.5-1.121-2.5-2.5v-1c0-1.379,1.122-2.5,2.5-2.5c1.379,0,2.5,1.121,2.5,2.5v1
	C14.5,21.879,13.379,23,12,23z M12,19c-0.276,0-0.5,0.225-0.5,0.5v1c0,0.275,0.224,0.5,0.5,0.5c0.275,0,0.5-0.225,0.5-0.5v-1
	C12.5,19.225,12.275,19,12,19z"/>
</svg>






