<?xml version="1.0" encoding="iso-8859-1"?>
<svg version="1.1" id="&#x56FE;&#x5C42;_1" xmlns="http://www.w3.org/2000/svg" xmlns:xlink="http://www.w3.org/1999/xlink" x="0px"
	 y="0px" viewBox="0 0 24 24" style="enable-background:new 0 0 24 24;" xml:space="preserve">
<path style="fill:#333333;" d="M18,8.5c-1.93,0-3.5-1.57-3.5-3.5s1.57-3.5,3.5-3.5s3.5,1.57,3.5,3.5S19.93,8.5,18,8.5z M18,3.5
	c-0.827,0-1.5,0.673-1.5,1.5s0.673,1.5,1.5,1.5s1.5-0.673,1.5-1.5S18.827,3.5,18,3.5z"/>
<polygon style="fill:#333333;" points="12.804,22.6 11.204,21.398 14.062,17.592 8.26,13.772 13.573,9.812 9.941,8.078 6.327,9.33 
	5.673,7.44 10.062,5.92 17.427,9.435 11.743,13.671 16.938,17.092 "/>
<polygon style="fill:#333333;" points="19.158,12.774 17.183,11.7 18.138,9.943 18.844,10.327 21.315,8.004 22.685,9.462 "/>
<polygon style="fill:#333333;" points="2.491,21.37 1.513,19.626 6.269,16.958 7.628,15.168 9.221,16.377 7.61,18.499 "/>
</svg>






