<?xml version="1.0" encoding="iso-8859-1"?>
<svg version="1.1" id="&#x56FE;&#x5C42;_1" xmlns="http://www.w3.org/2000/svg" xmlns:xlink="http://www.w3.org/1999/xlink" x="0px"
	 y="0px" viewBox="0 0 24 24" style="enable-background:new 0 0 24 24;" xml:space="preserve">
<path style="fill:#333333;" d="M16.5,18h-9V1h9V18z M9.5,16h5V3h-5V16z"/>
<rect x="8.5" y="6" style="fill:#333333;" width="7" height="2"/>
<rect x="8.5" y="11" style="fill:#333333;" width="7" height="2"/>
<rect x="3.5" y="3.5" transform="matrix(0.7071 -0.7071 0.7071 0.7071 -2.2175 4.6464)" style="fill:#333333;" width="2" height="3"/>
<rect x="3" y="14.5" transform="matrix(0.7071 -0.7071 0.7071 0.7071 -9.6421 7.7218)" style="fill:#333333;" width="3" height="2"/>
<rect x="18" y="4" transform="matrix(0.7071 -0.7071 0.7071 0.7071 2.1759 15.253)" style="fill:#333333;" width="3" height="2"/>
<rect x="18.5" y="14" transform="matrix(0.7071 -0.7071 0.7071 0.7071 -5.2487 18.3284)" style="fill:#333333;" width="2" height="3"/>
<rect x="2" y="9.5" style="fill:#333333;" width="3" height="2"/>
<rect x="19" y="9.5" style="fill:#333333;" width="3" height="2"/>
<path style="fill:#333333;" d="M15,23H9v-7h6V23z M11,21h2v-3h-2V21z"/>
</svg>






