<?xml version="1.0" encoding="iso-8859-1"?>
<svg version="1.1" id="&#x56FE;&#x5C42;_1" xmlns="http://www.w3.org/2000/svg" xmlns:xlink="http://www.w3.org/1999/xlink" x="0px"
	 y="0px" viewBox="0 0 24 24" style="enable-background:new 0 0 24 24;" xml:space="preserve">
<path style="fill:#333333;" d="M19.693,22.82L17.7,21.325l-1.9,1.425L13.9,21.325L12,22.75l-1.9-1.425L8.2,22.75l-1.9-1.425
	L4.306,22.82L1.18,19.693L2.675,17.7L1.25,15.8L2.675,13.9L1.25,12l1.425-1.9L1.25,8.2l1.425-1.9L1.18,4.306L4.306,1.18L6.3,2.675
	L8.2,1.25l1.9,1.425L12,1.25l1.9,1.425L15.8,1.25l1.9,1.425l1.993-1.495l3.127,3.126L21.325,6.3l1.425,1.9l-1.425,1.9L22.75,12
	l-1.425,1.9L22.75,15.8l-1.425,1.9l1.495,1.993L19.693,22.82z M6.3,18.825l1.9,1.425l1.9-1.425L12,20.25l1.9-1.425L15.8,20.25
	l1.9-1.425l1.806,1.354l0.674-0.674L18.825,17.7l1.425-1.9L18.825,13.9L20.25,12l-1.425-1.9l1.425-1.9l-1.425-1.9l1.354-1.806
	L19.506,3.82L17.7,5.175L15.8,3.75L13.9,5.175L12,3.75l-1.9,1.425L8.2,3.75L6.3,5.175L4.494,3.82L3.82,4.494L5.175,6.3L3.75,8.2
	l1.425,1.9L3.75,12l1.425,1.9L3.75,15.8l1.425,1.9L3.82,19.506l0.673,0.674L6.3,18.825z"/>
<path style="fill:#333333;" d="M12,17.5c-3.033,0-5.5-2.468-5.5-5.5c0-3.033,2.467-5.5,5.5-5.5c3.032,0,5.5,2.467,5.5,5.5
	C17.5,15.032,15.032,17.5,12,17.5z M12,8.5c-1.93,0-3.5,1.57-3.5,3.5s1.57,3.5,3.5,3.5s3.5-1.57,3.5-3.5S13.93,8.5,12,8.5z"/>
</svg>






