<?xml version="1.0" encoding="iso-8859-1"?>
<svg version="1.1" id="&#x56FE;&#x5C42;_1" xmlns="http://www.w3.org/2000/svg" xmlns:xlink="http://www.w3.org/1999/xlink" x="0px"
	 y="0px" viewBox="0 0 24 24" style="enable-background:new 0 0 24 24;" xml:space="preserve">
<path style="fill:#333333;" d="M10,22c-3.309,0-6-2.691-6-6c0-2.635,1.688-4.936,4.2-5.725l0.6,1.908C7.125,12.709,6,14.243,6,16
	c0,2.206,1.794,4,4,4c1.27,0,2.437-0.583,3.2-1.601c0.098-0.129,0.186-0.262,0.266-0.4l1.73,1.002
	c-0.121,0.209-0.254,0.41-0.398,0.602C13.654,21.125,11.905,22,10,22z"/>
<polygon style="fill:#333333;" points="19.5,22 17.5,22 17.5,16 9.882,16 13.382,9 9.75,9 9.3,9.6 7.7,8.4 8.75,7 16.618,7 
	13.118,14 19.5,14 "/>
<path style="fill:#333333;" d="M17,7c-1.654,0-3-1.346-3-3s1.346-3,3-3s3,1.346,3,3S18.654,7,17,7z M17,3c-0.552,0-1,0.449-1,1
	s0.448,1,1,1s1-0.449,1-1S17.552,3,17,3z"/>
</svg>






