<?xml version="1.0" encoding="iso-8859-1"?>
<svg version="1.1" id="&#x56FE;&#x5C42;_1" xmlns="http://www.w3.org/2000/svg" xmlns:xlink="http://www.w3.org/1999/xlink" x="0px"
	 y="0px" viewBox="0 0 24 24" style="enable-background:new 0 0 24 24;" xml:space="preserve">
<polygon style="fill:#333333;" points="22,22.5 2,22.5 2,16.5 15.5,16.5 15.5,18.5 4,18.5 4,20.5 20,20.5 20,17.5 22,17.5 "/>
<polygon style="fill:#333333;" points="14.535,14.528 1.507,9.788 3.559,4.149 19.534,9.964 18.851,11.843 4.754,6.712 4.07,8.592 
	15.219,12.649 "/>
<path style="fill:#333333;" d="M12.057,9.341l-0.949-0.319L2.9,5.979l1.598-4.312L5.485,1.97l4.765,1.766
	c1.883,0.698,2.847,2.798,2.149,4.682L12.057,9.341z M5.47,4.799l5.088,1.886c-0.143-0.478-0.5-0.887-1.004-1.074L5.699,4.182
	L5.47,4.799z"/>
<path style="fill:#333333;" d="M7.225,14.569c-0.173,0-0.347-0.03-0.515-0.092L3.421,13.28c-0.375-0.135-0.676-0.41-0.846-0.773
	s-0.188-0.772-0.05-1.149l0.683-1.878l1.88,0.684l-0.513,1.41l2.349,0.855l0.513-1.41l1.879,0.684l-0.684,1.879
	c-0.137,0.377-0.413,0.678-0.775,0.847C7.656,14.521,7.44,14.569,7.225,14.569z M4.103,11.4l0.002,0
	C4.104,11.401,4.104,11.4,4.103,11.4z"/>
<path style="fill:#333333;" d="M18,19.5c-2.481,0-4.5-2.019-4.5-4.5s2.019-4.5,4.5-4.5s4.5,2.019,4.5,4.5S20.481,19.5,18,19.5z
	 M18,12.5c-1.379,0-2.5,1.121-2.5,2.5s1.121,2.5,2.5,2.5s2.5-1.121,2.5-2.5S19.379,12.5,18,12.5z"/>
</svg>






