<?xml version="1.0" encoding="iso-8859-1"?>
<svg version="1.1" id="&#x56FE;&#x5C42;_1" xmlns="http://www.w3.org/2000/svg" xmlns:xlink="http://www.w3.org/1999/xlink" x="0px"
	 y="0px" viewBox="0 0 24 24" style="enable-background:new 0 0 24 24;" xml:space="preserve">
<path style="fill:#333333;" d="M18.677,18H6.469l-1.75-7h16.757L18.677,18z M8.031,16h9.292l1.2-3H7.281L8.031,16z"/>
<polygon style="fill:#333333;" points="5.086,12.406 3.35,8.5 1.75,8.5 1.75,6.5 4.65,6.5 6.914,11.594 "/>
<path style="fill:#333333;" d="M10,23c-1.378,0-2.5-1.121-2.5-2.5S8.622,18,10,18s2.5,1.121,2.5,2.5S11.378,23,10,23z M10,20
	c-0.276,0-0.5,0.225-0.5,0.5S9.724,21,10,21s0.5-0.225,0.5-0.5S10.276,20,10,20z"/>
<path style="fill:#333333;" d="M15.5,23c-1.379,0-2.5-1.121-2.5-2.5s1.121-2.5,2.5-2.5s2.5,1.121,2.5,2.5S16.879,23,15.5,23z
	 M15.5,20c-0.275,0-0.5,0.225-0.5,0.5s0.225,0.5,0.5,0.5s0.5-0.225,0.5-0.5S15.775,20,15.5,20z"/>
<path style="fill:#333333;" d="M20.654,13h-7.39l-2.973-9.514l0.761-0.381c1.19-0.595,4.812-2.405,8.404,1.188
	c3.443,3.443,1.542,7.919,1.459,8.107L20.654,13z M14.735,11h4.549c0.295-1.085,0.626-3.425-1.241-5.293
	c-1.941-1.941-3.75-1.794-5.325-1.162L14.735,11z"/>
</svg>






