<?xml version="1.0" encoding="iso-8859-1"?>
<svg version="1.1" id="&#x56FE;&#x5C42;_1" xmlns="http://www.w3.org/2000/svg" xmlns:xlink="http://www.w3.org/1999/xlink" x="0px"
	 y="0px" viewBox="0 0 24 24" style="enable-background:new 0 0 24 24;" xml:space="preserve">
<path style="fill:#333333;" d="M18.5,22.5h-13c-1.103,0-2-0.897-2-2v-17c0-1.103,0.897-2,2-2h13c1.103,0,2,0.897,2,2v17
	C20.5,21.603,19.603,22.5,18.5,22.5z M5.5,3.5H5.499l0.001,17h13v-17H5.5z"/>
<rect x="4.5" y="8" style="fill:#333333;" width="15" height="2"/>
<path style="fill:#333333;" d="M12,19c-2.206,0-4-1.794-4-4s1.794-4,4-4c2.206,0,4,1.794,4,4S14.206,19,12,19z M12,13
	c-1.103,0-2,0.897-2,2s0.897,2,2,2c1.103,0,2-0.897,2-2S13.103,13,12,13z"/>
</svg>






