<?xml version="1.0" encoding="iso-8859-1"?>
<svg version="1.1" id="&#x56FE;&#x5C42;_1" xmlns="http://www.w3.org/2000/svg" xmlns:xlink="http://www.w3.org/1999/xlink" x="0px"
	 y="0px" viewBox="0 0 24 24" style="enable-background:new 0 0 24 24;" xml:space="preserve">
<path style="fill:#333333;" d="M8,17c-4.382,0-7-3.305-7-6.5v-8h3.026V2h2v0.5h3.947V2h2v0.5H15v8C15,13.695,12.382,17,8,17z M3,4.5
	v6C3,12.24,4.357,15,8,15s5-2.76,5-4.5v-6h-1.026V5h-2V4.5H6.026V5h-2V4.5H3z"/>
<path style="fill:#333333;" d="M20,12.5c-1.654,0-3-1.346-3-3s1.346-3,3-3s3,1.346,3,3S21.654,12.5,20,12.5z M20,8.5
	c-0.552,0-1,0.449-1,1s0.448,1,1,1s1-0.449,1-1S20.552,8.5,20,8.5z"/>
<path style="fill:#333333;" d="M14,23c-3.86,0-7-3.141-7-7h2c0,2.757,2.243,5,5,5s5-2.243,5-5v-4.5h2V16C21,19.859,17.859,23,14,23z
	"/>
</svg>






