<?xml version="1.0" encoding="iso-8859-1"?>
<svg version="1.1" id="&#x56FE;&#x5C42;_1" xmlns="http://www.w3.org/2000/svg" xmlns:xlink="http://www.w3.org/1999/xlink" x="0px"
	 y="0px" viewBox="0 0 24 24" style="enable-background:new 0 0 24 24;" xml:space="preserve">
<path style="fill:#333333;" d="M12,23C5.935,23,1,18.065,1,12S5.935,1,12,1h1.462l-0.53,1.362c-0.06,0.158-1.468,3.975,1.301,6.957
	c2.783,2.996,7.449,1.732,7.495,1.718l1.271-0.356L23,12C23,18.065,18.065,23,12,23z M10.684,3.096C6.343,3.735,3,7.484,3,12
	c0,4.963,4.038,9,9,9c4.548,0,8.319-3.392,8.917-7.777c-1.941,0.252-5.56,0.246-8.149-2.542C10.295,8.018,10.362,4.89,10.684,3.096z
	"/>
<rect x="16" y="-0.071" transform="matrix(0.7071 -0.7071 0.7071 0.7071 0.0294 14.0711)" style="fill:#333333;" width="2" height="14.142"/>
</svg>






