<?xml version="1.0" encoding="iso-8859-1"?>
<svg version="1.1" id="&#x56FE;&#x5C42;_1" xmlns="http://www.w3.org/2000/svg" xmlns:xlink="http://www.w3.org/1999/xlink" x="0px"
	 y="0px" viewBox="0 0 24 24" style="enable-background:new 0 0 24 24;" xml:space="preserve">
<path style="fill:#333333;" d="M12,23c-5.238,0-9.5-4.262-9.5-9.5S6.762,4,12,4s9.5,4.262,9.5,9.5S17.238,23,12,23z M12,6
	c-4.136,0-7.5,3.364-7.5,7.5S7.864,21,12,21s7.5-3.364,7.5-7.5S16.136,6,12,6z"/>
<rect x="8.5" y="1" style="fill:#333333;" width="7" height="2"/>
<rect x="17.189" y="4.75" transform="matrix(0.7071 -0.7071 0.7071 0.7071 1.2794 14.5888)" style="fill:#333333;" width="2.121" height="2"/>
<rect x="11" y="9" style="fill:#333333;" width="2" height="4.5"/>
</svg>






