<?xml version="1.0" encoding="iso-8859-1"?>
<svg version="1.1" id="&#x56FE;&#x5C42;_1" xmlns="http://www.w3.org/2000/svg" xmlns:xlink="http://www.w3.org/1999/xlink" x="0px"
	 y="0px" viewBox="0 0 24 24" style="enable-background:new 0 0 24 24;" xml:space="preserve">
<path style="fill:#333333;" d="M17.523,7.102H6.749V1.225h10.775V7.102z M8.708,5.143h6.857V3.184H8.708V5.143z"/>
<path style="fill:#333333;" d="M18.993,22.775H5.279c-1.08,0-1.959-0.879-1.959-1.959V3.184c0-1.08,0.879-1.959,1.959-1.959h2.248
	v1.959H5.279v17.633h13.714V3.184h-2.247V1.225h2.247c1.08,0,1.959,0.879,1.959,1.959v17.633
	C20.952,21.896,20.073,22.775,18.993,22.775z"/>
<polygon style="fill:#333333;" points="11.359,18.571 9.975,17.187 12.222,14.939 9.687,14.939 8.994,13.268 12.913,9.348 
	14.298,10.734 12.052,12.98 14.587,12.98 15.279,14.652 "/>
</svg>






