<?xml version="1.0" encoding="iso-8859-1"?>
<svg version="1.1" id="&#x56FE;&#x5C42;_1" xmlns="http://www.w3.org/2000/svg" xmlns:xlink="http://www.w3.org/1999/xlink" x="0px"
	 y="0px" viewBox="0 0 24 24" style="enable-background:new 0 0 24 24;" xml:space="preserve">
<path style="fill:#333333;" d="M19,23H5c-1.103,0-2-0.897-2-2V3c0-1.103,0.897-2,2-2h14c1.103,0,2,0.897,2,2v18
	C21,22.103,20.103,23,19,23z M5,3H4.999L5,21h14V3H5z"/>
<polygon style="fill:#333333;" points="18,8 6,8 6,2 8,2 8,6 16,6 16,2 18,2 "/>
<path style="fill:#333333;" d="M18,23H6V11h12V23z M8,21h8v-8H8V21z"/>
<rect x="7" y="15" style="fill:#333333;" width="10" height="2"/>
<rect x="16" y="14.5" style="fill:#333333;" width="2" height="3"/>
<rect x="6" y="14.5" style="fill:#333333;" width="2" height="3"/>
</svg>






