<?xml version="1.0" encoding="iso-8859-1"?>
<svg version="1.1" id="&#x56FE;&#x5C42;_1" xmlns="http://www.w3.org/2000/svg" xmlns:xlink="http://www.w3.org/1999/xlink" x="0px"
	 y="0px" viewBox="0 0 24 24" style="enable-background:new 0 0 24 24;" xml:space="preserve">
<path style="fill:#333333;" d="M3.137,22.063c-0.952,0-1.798-0.685-1.97-1.653l-0.173-0.984c-0.192-1.085,0.535-2.125,1.621-2.317
	h0.001l16.742-2.951c0.533-0.095,1.058,0.023,1.494,0.33c0.438,0.306,0.73,0.765,0.823,1.292l0.173,0.984
	c0.093,0.526-0.024,1.058-0.331,1.495s-0.766,0.729-1.292,0.822l-16.74,2.951C3.368,22.053,3.251,22.063,3.137,22.063z
	 M2.964,19.077l-0.001,0.001l0.174,0.984l16.741-2.951l-0.173-0.985L2.964,19.077z"/>
<rect x="20" y="17.586" transform="matrix(0.7071 -0.7071 0.7071 0.7071 -7.2843 20.4142)" style="fill:#333333;" width="2" height="2.828"/>
<path style="fill:#333333;" d="M11.071,14.728L4,7.657C2.421,6.078,2.293,5.122,2.293,4.121c0-0.875,0.622-2.187,0.812-2.568
	l0.621-1.241l10.88,10.88L11.071,14.728z M4.361,3.775c-0.043,0.15-0.068,0.271-0.068,0.346c0,0.581,0,1,1.121,2.122l5.657,5.657
	l0.707-0.707L4.361,3.775z"/>
<rect x="9.75" y="-0.796" transform="matrix(0.7071 -0.7071 0.7071 0.7071 -3.0386 10.1642)" style="fill:#333333;" width="2" height="19.092"/>
</svg>






