<?xml version="1.0" encoding="iso-8859-1"?>
<svg version="1.1" id="&#x56FE;&#x5C42;_1" xmlns="http://www.w3.org/2000/svg" xmlns:xlink="http://www.w3.org/1999/xlink" x="0px"
	 y="0px" viewBox="0 0 24 24" style="enable-background:new 0 0 24 24;" xml:space="preserve">
<path style="fill:#333333;" d="M18,11h-2c0-2.206-1.794-4-4-4c-2.206,0-4,1.794-4,4H6c0-3.309,2.691-6,6-6S18,7.691,18,11z"/>
<path style="fill:#333333;" d="M12,19c-5.466,0-11-1.54-11-4.483c0-1.797,2.115-3.253,5.802-3.997l0.396,1.961
	C4.057,13.113,3,14.144,3,14.517C3,15.26,6.062,17,12,17c5.938,0,9-1.74,9-2.483c0-0.373-1.057-1.403-4.197-2.036l0.395-1.961
	C20.885,11.263,23,12.72,23,14.517C23,17.46,17.466,19,12,19z"/>
<path style="fill:#333333;" d="M12,14c-3.112,0-4.85-1.536-5.505-2.114L6.36,11.769l1.28-1.537l0.179,0.156
	C8.412,10.911,9.645,12,12,12c2.586,0,3.826-1.24,4.293-1.707l1.414,1.414C17.14,12.274,15.414,14,12,14z"/>
<rect x="8.654" y="10.25" transform="matrix(0.3711 -0.9286 0.9286 0.3711 -4.1574 16.3618)" style="fill:#333333;" width="2.693" height="2"/>
</svg>






