<?xml version="1.0" encoding="iso-8859-1"?>
<svg version="1.1" id="&#x56FE;&#x5C42;_1" xmlns="http://www.w3.org/2000/svg" xmlns:xlink="http://www.w3.org/1999/xlink" x="0px"
	 y="0px" viewBox="0 0 24 24" style="enable-background:new 0 0 24 24;" xml:space="preserve">
<path style="fill:#333333;" d="M12,7c-1.654,0-3-1.346-3-3s1.346-3,3-3s3,1.346,3,3S13.654,7,12,7z M12,3c-0.551,0-1,0.449-1,1
	s0.449,1,1,1c0.552,0,1-0.449,1-1S12.552,3,12,3z"/>
<polygon style="fill:#333333;" points="15.5,22 13.5,22 13.5,8.314 19.876,3.219 21.124,4.781 15.5,9.276 "/>
<polygon style="fill:#333333;" points="4.209,21.205 2.791,19.795 8.5,14.046 8.5,10.752 5.564,12.486 4.547,10.764 8.991,8.139 
	10.5,9 10.5,14.87 "/>
</svg>






