<?xml version="1.0" encoding="iso-8859-1"?>
<svg version="1.1" id="&#x56FE;&#x5C42;_1" xmlns="http://www.w3.org/2000/svg" xmlns:xlink="http://www.w3.org/1999/xlink" x="0px"
	 y="0px" viewBox="0 0 24 24" style="enable-background:new 0 0 24 24;" xml:space="preserve">
<g>
	<defs>
		<rect id="SVGID_1_" width="24" height="24"/>
	</defs>
	<clipPath id="SVGID_00000166650972219362895770000002961588060086303914_">
		<use xlink:href="#SVGID_1_"  style="overflow:visible;"/>
	</clipPath>
	<g style="clip-path:url(#SVGID_00000166650972219362895770000002961588060086303914_);">
		<path style="fill:#333333;" d="M20,22H4c-1.103,0-2-0.897-2-2V4c0-1.103,0.897-2,2-2h7.5v2H4v16h16v-7.5h2V20
			C22,21.103,21.103,22,20,22z"/>
		<rect x="11.001" y="8" style="fill:#333333;" width="2" height="4"/>
		<rect x="20" y="3" style="fill:#333333;" width="2" height="4"/>
		<rect x="12.001" y="11" style="fill:#333333;" width="4" height="2"/>
		
			<rect x="10.136" y="6.5" transform="matrix(0.7072 -0.707 0.707 0.7072 -0.4714 13.8609)" style="fill:#333333;" width="12.728" height="2"/>
		<rect x="17" y="2" style="fill:#333333;" width="4" height="2"/>
	</g>
</g>
</svg>






