<?xml version="1.0" encoding="iso-8859-1"?>
<svg version="1.1" id="&#x56FE;&#x5C42;_1" xmlns="http://www.w3.org/2000/svg" xmlns:xlink="http://www.w3.org/1999/xlink" x="0px"
	 y="0px" viewBox="0 0 24 24" style="enable-background:new 0 0 24 24;" xml:space="preserve">
<rect x="2.5" y="11" style="fill:#333333;" width="19" height="2"/>
<path style="fill:#333333;" d="M12,23c-4.573,0-6.559-3.112-6.97-4.758l1.94-0.484C7.003,17.883,7.881,21,12,21
	c1.902,0,3.574-1.305,3.888-3.034c0.365-2.017-1.219-3.897-4.239-5.029l0.703-1.873c5.926,2.223,5.711,6.118,5.504,7.26
	C17.372,20.989,14.854,23,12,23z"/>
<path style="fill:#333333;" d="M6.967,9.546C5.765,7.703,5.604,5.575,6.536,3.854C7.519,2.041,9.51,1,12,1
	c5.134,0,6.865,4.459,6.937,4.649l-1.871,0.707C17.013,6.219,15.726,3,12,3c-1.733,0-3.083,0.659-3.706,1.807
	C7.718,5.872,7.848,7.235,8.642,8.454L6.967,9.546z"/>
<path style="fill:#333333;" d="M12,23c-4.565,0-6.801-4.367-6.895-4.553l1.788-0.897C6.911,17.585,8.684,21,12,21
	c1.593,0,2.937-0.726,3.595-1.94c0.592-1.094,0.506-2.374-0.237-3.514l1.676-1.092c1.14,1.747,1.259,3.825,0.32,5.559
	C16.34,21.883,14.339,23,12,23z"/>
</svg>






