<?xml version="1.0" encoding="iso-8859-1"?>
<svg version="1.1" id="&#x56FE;&#x5C42;_1" xmlns="http://www.w3.org/2000/svg" xmlns:xlink="http://www.w3.org/1999/xlink" x="0px"
	 y="0px" viewBox="0 0 24 24" style="enable-background:new 0 0 24 24;" xml:space="preserve">
<path style="fill:#333333;" d="M20.5,23h-17C2.122,23,1,21.879,1,20.5v-17C1,2.122,2.122,1,3.5,1h17C21.879,1,23,2.122,23,3.5v17
	C23,21.879,21.879,23,20.5,23z M3.5,3C3.224,3,3,3.224,3,3.5v17C3,20.775,3.224,21,3.5,21h17c0.275,0,0.5-0.225,0.5-0.5v-17
	C21,3.224,20.775,3,20.5,3H3.5z"/>
<path style="fill:#333333;" d="M6,7c0.552,0,1-0.448,1-1S6.552,5,6,5S5,5.448,5,6S5.448,7,6,7z"/>
<path style="fill:#333333;" d="M6,19c0.552,0,1-0.448,1-1s-0.448-1-1-1s-1,0.448-1,1S5.448,19,6,19z"/>
<path style="fill:#333333;" d="M18,7c0.552,0,1-0.448,1-1s-0.448-1-1-1s-1,0.448-1,1S17.448,7,18,7z"/>
<path style="fill:#333333;" d="M18,19c0.552,0,1-0.448,1-1s-0.448-1-1-1s-1,0.448-1,1S17.448,19,18,19z"/>
<path style="fill:#333333;" d="M12,17.5c-3.033,0-5.5-2.468-5.5-5.5c0-3.033,2.467-5.5,5.5-5.5c3.032,0,5.5,2.467,5.5,5.5
	C17.5,15.032,15.032,17.5,12,17.5z M12,8.5c-1.93,0-3.5,1.57-3.5,3.5s1.57,3.5,3.5,3.5s3.5-1.57,3.5-3.5S13.93,8.5,12,8.5z"/>
</svg>






