<?xml version="1.0" encoding="iso-8859-1"?>
<svg version="1.1" id="&#x56FE;&#x5C42;_1" xmlns="http://www.w3.org/2000/svg" xmlns:xlink="http://www.w3.org/1999/xlink" x="0px"
	 y="0px" viewBox="0 0 24 24" style="enable-background:new 0 0 24 24;" xml:space="preserve">
<path style="fill:#333333;" d="M20.5,22.5H9c-1.103,0-2-0.897-2-2V16h2v4.5h11.5V9H16V7h4.5c1.103,0,2,0.897,2,2v11.5
	C22.5,21.603,21.603,22.5,20.5,22.5z"/>
<path style="fill:#333333;" d="M15,17H3.5c-1.103,0-2-0.897-2-2V3.5c0-1.103,0.897-2,2-2H15c1.103,0,2,0.897,2,2V15
	C17,16.103,16.103,17,15,17z M3.5,3.5H3.499L3.5,15H15V3.5H3.5z"/>
<rect x="0.974" y="5" transform="matrix(0.6805 -0.7327 0.7327 0.6805 -2.5594 6.1302)" style="fill:#333333;" width="9.552" height="2"/>
<rect x="-0.139" y="7.5" transform="matrix(0.6757 -0.7372 0.7372 0.6757 -3.6716 8.6543)" style="fill:#333333;" width="16.279" height="2"/>
<rect x="3.567" y="9.5" transform="matrix(0.6729 -0.7398 0.7398 0.6729 -4.1691 11.5723)" style="fill:#333333;" width="14.866" height="2"/>
<rect x="9.783" y="12.25" transform="matrix(0.6729 -0.7398 0.7398 0.6729 -5.3856 14.3213)" style="fill:#333333;" width="7.433" height="2"/>
</svg>






