<?xml version="1.0" encoding="iso-8859-1"?>
<svg version="1.1" id="&#x56FE;&#x5C42;_1" xmlns="http://www.w3.org/2000/svg" xmlns:xlink="http://www.w3.org/1999/xlink" x="0px"
	 y="0px" viewBox="0 0 24 24" style="enable-background:new 0 0 24 24;" xml:space="preserve">
<path style="fill:#333333;" d="M20.5,22.5H9c-1.103,0-2-0.897-2-2V9c0-1.103,0.897-2,2-2h11.5c1.103,0,2,0.897,2,2v11.5
	C22.5,21.603,21.603,22.5,20.5,22.5z M9,9H8.999L9,20.5h11.5V9H9z"/>
<path style="fill:#333333;" d="M8,17H3.5c-1.103,0-2-0.897-2-2V3.5c0-1.103,0.897-2,2-2H15c1.103,0,2,0.897,2,2V8h-2V3.5H3.5V15H8
	V17z"/>
<rect x="6.474" y="10.5" transform="matrix(0.6805 -0.7327 0.7327 0.6805 -4.8322 11.9175)" style="fill:#333333;" width="9.552" height="2"/>
<rect x="5.361" y="13" transform="matrix(0.6757 -0.7372 0.7372 0.6757 -5.9424 14.4926)" style="fill:#333333;" width="16.279" height="2"/>
<rect x="9.067" y="15" transform="matrix(0.6727 -0.7399 0.7399 0.6727 -6.4382 17.4441)" style="fill:#333333;" width="14.866" height="2"/>
<rect x="15.283" y="17.75" transform="matrix(0.6726 -0.74 0.74 0.6726 -7.6546 20.198)" style="fill:#333333;" width="7.433" height="2.001"/>
</svg>






