<?xml version="1.0" encoding="iso-8859-1"?>
<svg version="1.1" id="&#x56FE;&#x5C42;_1" xmlns="http://www.w3.org/2000/svg" xmlns:xlink="http://www.w3.org/1999/xlink" x="0px"
	 y="0px" viewBox="0 0 24 24" style="enable-background:new 0 0 24 24;" xml:space="preserve">
<path style="fill:#333333;" d="M19,17H5c-1.103,0-2-0.897-2-2V4c0-1.103,0.897-2,2-2h14c1.103,0,2,0.897,2,2v11
	C21,16.103,20.103,17,19,17z M5,4H4.999L5,15h14V4H5z"/>
<circle style="fill:#333333;" cx="7" cy="13.5" r="1"/>
<circle style="fill:#333333;" cx="17" cy="13.5" r="1"/>
<path style="fill:#333333;" d="M18,12H6V5h12V12z M8,10h8V7H8V10z"/>
<rect x="17" y="15.24" transform="matrix(0.7474 -0.6644 0.6644 0.7474 -7.578 16.5683)" style="fill:#333333;" width="1.999" height="6.021"/>
<rect x="3.068" y="17.25" transform="matrix(0.7071 -0.7071 0.7071 0.7071 -11.0741 9.7647)" style="fill:#333333;" width="6.364" height="2"/>
</svg>






