<?xml version="1.0" encoding="iso-8859-1"?>
<svg version="1.1" id="&#x56FE;&#x5C42;_1" xmlns="http://www.w3.org/2000/svg" xmlns:xlink="http://www.w3.org/1999/xlink" x="0px"
	 y="0px" viewBox="0 0 24 24" style="enable-background:new 0 0 24 24;" xml:space="preserve">
<path style="fill:#333333;" d="M12,23.237l-2.952-2.152l-3.654,0.006l-1.122-3.477l-2.96-2.142L2.448,12L1.312,8.527l2.96-2.142
	l1.122-3.477l3.654,0.007L12,0.762l2.952,2.153l3.653-0.007l1.123,3.477l2.959,2.142L21.552,12l1.136,3.473l-2.959,2.142
	l-1.123,3.477l-3.653-0.006L12,23.237z M9.699,19.083L12,20.763l2.302-1.68l2.849,0.006l0.875-2.711l2.309-1.671L19.448,12
	l0.886-2.708l-2.309-1.669L17.15,4.911l-2.849,0.005L12,3.238L9.699,4.917L6.85,4.911L5.975,7.623l-2.308,1.67L4.552,12
	l-0.886,2.707l2.308,1.671l0.875,2.711L9.699,19.083z"/>
<polygon style="fill:#333333;" points="11,15.914 7.793,12.707 9.207,11.293 11,13.086 15.293,8.793 16.707,10.207 "/>
</svg>






