<?xml version="1.0" encoding="iso-8859-1"?>
<svg version="1.1" id="&#x56FE;&#x5C42;_1" xmlns="http://www.w3.org/2000/svg" xmlns:xlink="http://www.w3.org/1999/xlink" x="0px"
	 y="0px" viewBox="0 0 24 24" style="enable-background:new 0 0 24 24;" xml:space="preserve">
<path style="fill:#333333;" d="M12,19.5c-4.136,0-7.5-3.364-7.5-7.5S7.864,4.5,12,4.5s7.5,3.364,7.5,7.5S16.136,19.5,12,19.5z
	 M12,6.5c-3.033,0-5.5,2.467-5.5,5.5c0,3.032,2.467,5.5,5.5,5.5c3.032,0,5.5-2.468,5.5-5.5C17.5,8.967,15.032,6.5,12,6.5z"/>
<path style="fill:#333333;" d="M12,3c0.69,0,1.25-0.56,1.25-1.25S12.69,0.5,12,0.5s-1.25,0.56-1.25,1.25S11.31,3,12,3z"/>
<path style="fill:#333333;" d="M19.25,6c0.69,0,1.25-0.56,1.25-1.25c0-0.69-0.56-1.25-1.25-1.25S18,4.06,18,4.75
	C18,5.44,18.56,6,19.25,6z"/>
<path style="fill:#333333;" d="M22.25,13.25c0.69,0,1.25-0.56,1.25-1.25s-0.56-1.25-1.25-1.25S21,11.31,21,12
	S21.56,13.25,22.25,13.25z"/>
<path style="fill:#333333;" d="M19.25,20.5c0.69,0,1.25-0.56,1.25-1.25S19.94,18,19.25,18S18,18.56,18,19.25S18.56,20.5,19.25,20.5z
	"/>
<path style="fill:#333333;" d="M12,23.5c0.69,0,1.25-0.56,1.25-1.25S12.69,21,12,21s-1.25,0.56-1.25,1.25S11.31,23.5,12,23.5z"/>
<path style="fill:#333333;" d="M4.75,20.5C5.44,20.5,6,19.94,6,19.25S5.44,18,4.75,18c-0.69,0-1.25,0.56-1.25,1.25
	S4.06,20.5,4.75,20.5z"/>
<path style="fill:#333333;" d="M1.75,13.25C2.44,13.25,3,12.69,3,12s-0.56-1.25-1.25-1.25S0.5,11.31,0.5,12S1.06,13.25,1.75,13.25z"
	/>
<path style="fill:#333333;" d="M4.75,6C5.44,6,6,5.44,6,4.75C6,4.06,5.44,3.5,4.75,3.5C4.06,3.5,3.5,4.06,3.5,4.75
	C3.5,5.44,4.06,6,4.75,6z"/>
</svg>






