<?xml version="1.0" encoding="iso-8859-1"?>
<svg version="1.1" id="&#x56FE;&#x5C42;_1" xmlns="http://www.w3.org/2000/svg" xmlns:xlink="http://www.w3.org/1999/xlink" x="0px"
	 y="0px" viewBox="0 0 24 24" style="enable-background:new 0 0 24 24;" xml:space="preserve">
<path style="fill:#333333;" d="M19,11H5V5c0-1.103,0.897-2,2-2h10c1.103,0,2,0.897,2,2V11z M7,9h10V5H7V9z"/>
<path style="fill:#333333;" d="M18.2,21c-1.037,0-2.218-0.38-3.586-0.819c-0.718-0.23-1.506-0.484-2.372-0.714l0.516-1.934
	c0.9,0.24,1.721,0.504,2.468,0.743C16.434,18.665,17.477,19,18.2,19c1.609,0,2.163-0.851,2.651-1.601
	c0.137-0.211,0.261-0.396,0.379-0.538l1.539,1.277c-0.077,0.093-0.153,0.215-0.242,0.352C21.957,19.367,20.895,21,18.2,21z"/>
<path style="fill:#333333;" d="M6,21c-2.792,0-3.901-1.619-4.497-2.489c-0.094-0.137-0.174-0.26-0.255-0.353l-0.504-0.576
	l0.424-0.637c0.029-0.044,2.938-4.425,3.883-7.262L5.279,9h13.441l0.228,0.684c0.947,2.84,3.854,7.218,3.884,7.262l-1.387,1.387
	c-1.488-0.994-6.049,0.341-9.379,1.316C9.59,20.374,7.452,21,6,21z M3.213,17.469C3.72,18.204,4.33,19,6,19
	c1.165,0,3.272-0.617,5.504-1.271c2.936-0.859,5.94-1.739,8.275-1.739c0.031,0,0.062,0,0.092,0.001
	c-0.849-1.416-1.916-3.328-2.57-4.99H6.699C5.767,13.369,3.994,16.248,3.213,17.469z"/>
</svg>






