<?xml version="1.0" encoding="iso-8859-1"?>
<svg version="1.1" id="&#x56FE;&#x5C42;_1" xmlns="http://www.w3.org/2000/svg" xmlns:xlink="http://www.w3.org/1999/xlink" x="0px"
	 y="0px" viewBox="0 0 24 24" style="enable-background:new 0 0 24 24;" xml:space="preserve">
<rect x="4.132" y="4.345" transform="matrix(0.707 -0.7073 0.7073 0.707 -2.1259 5.1337)" style="fill:#333333;" width="2" height="1.575"/>
<rect x="1.5" y="11" style="fill:#333333;" width="1.575" height="2"/>
<rect x="4.345" y="17.868" transform="matrix(0.7071 -0.7071 0.7071 0.7071 -11.8387 9.1553)" style="fill:#333333;" width="1.575" height="2"/>
<rect x="17.868" y="18.081" transform="matrix(0.7071 -0.7071 0.7071 0.7071 -7.8154 18.8682)" style="fill:#333333;" width="2" height="1.574"/>
<rect x="20.925" y="11" style="fill:#333333;" width="1.575" height="2"/>
<rect x="18.081" y="4.132" transform="matrix(0.7071 -0.7071 0.7071 0.7071 1.8973 14.845)" style="fill:#333333;" width="1.574" height="2"/>
<rect x="11" y="1.5" style="fill:#333333;" width="2" height="1.575"/>
<g>
	<path style="fill:#333333;" d="M12,18c3.314,0,6-2.686,6-6s-2.686-6-6-6s-6,2.686-6,6S8.686,18,12,18z"/>
	<path style="fill:#333333;" d="M12,19c-3.86,0-7-3.141-7-7c0-3.86,3.14-7,7-7c3.859,0,7,3.14,7,7C19,15.859,15.859,19,12,19z M12,7
		c-2.757,0-5,2.243-5,5s2.243,5,5,5s5-2.243,5-5S14.757,7,12,7z"/>
</g>
<rect x="11" y="20.925" style="fill:#333333;" width="2" height="1.575"/>
</svg>






