<?xml version="1.0" encoding="iso-8859-1"?>
<svg version="1.1" id="&#x56FE;&#x5C42;_1" xmlns="http://www.w3.org/2000/svg" xmlns:xlink="http://www.w3.org/1999/xlink" x="0px"
	 y="0px" viewBox="0 0 24 24" style="enable-background:new 0 0 24 24;" xml:space="preserve">
<rect x="2" y="11" style="fill:#333333;" width="1.5" height="2"/>
<rect x="4.5" y="4.793" transform="matrix(0.7071 -0.7071 0.7071 0.7071 -2.2782 5.5)" style="fill:#333333;" width="2" height="1.414"/>
<rect x="11" y="2" style="fill:#333333;" width="2" height="1.5"/>
<path style="fill:#333333;" d="M15.472,16.895l-1.158-1.631C15.369,14.514,16,13.293,16,12c0-2.206-1.794-4-4-4
	c-2.206,0-4,1.794-4,4H6c0-3.309,2.691-6,6-6s6,2.691,6,6C18,13.939,17.055,15.77,15.472,16.895z"/>
<rect x="17.793" y="4.5" transform="matrix(0.7071 -0.7071 0.7071 0.7071 1.5294 14.6924)" style="fill:#333333;" width="1.414" height="2"/>
<rect x="20.5" y="11" style="fill:#333333;" width="1.5" height="2"/>
<rect x="17.585" y="18.013" transform="matrix(0.7075 -0.7067 0.7067 0.7075 -7.6987 18.5697)" style="fill:#333333;" width="2.001" height="1.146"/>
<path style="fill:#333333;" d="M5.325,22.038c-0.643,0-1.291-0.01-1.933-0.023C3.03,22.007,2.726,22,2.5,22v-2
	c0.237,0,0.556,0.007,0.935,0.015c7.494,0.171,8.501-0.793,8.584-1.211c0.002-0.009,0.006-0.03-0.045-0.099
	c-0.263-0.351-1.041-0.664-1.561-0.709l-0.401-0.03C8.61,17.867,6,17.683,6,15.5C6,13,10.177,13,11.75,13v2
	c-3.274,0-3.774,0.587-3.779,0.594c0.235,0.24,1.701,0.343,2.182,0.377l0.434,0.033c0.959,0.083,2.304,0.589,2.988,1.502
	c0.384,0.512,0.524,1.097,0.405,1.69C13.495,21.622,9.521,22.038,5.325,22.038z"/>
</svg>






