<?xml version="1.0" encoding="iso-8859-1"?>
<svg version="1.1" id="&#x56FE;&#x5C42;_1" xmlns="http://www.w3.org/2000/svg" xmlns:xlink="http://www.w3.org/1999/xlink" x="0px"
	 y="0px" viewBox="0 0 24 24" style="enable-background:new 0 0 24 24;" xml:space="preserve">
<path style="fill:#333333;" d="M16.216,14.943c-1.906,0-4.048-0.312-5.794-0.78C6.091,13.003,2.036,10.6,2.665,8.25
	C3.139,6.482,4.75,4.107,7.28,2.786c2.261-1.182,4.819-1.313,7.396-0.382c6.208,2.244,7.296,7.2,6.342,10.763l-0.035,0.106
	C20.509,14.48,18.538,14.943,16.216,14.943z M11.312,3.787c-1.082,0-2.121,0.257-3.107,0.772c-1.982,1.035-3.26,2.907-3.609,4.208
	c0.062,0.48,2.029,2.309,6.343,3.464c4.182,1.122,7.56,0.697,8.187,0.256c0.303-1.291,0.939-6.009-5.13-8.203
	C13.077,3.953,12.181,3.787,11.312,3.787z M19.178,12.445L19.178,12.445L19.178,12.445z"/>
<path style="fill:#333333;" d="M10,21.001L8,21c0-0.159,0.018-3.951,1.538-9.274c1.52-5.321,3.525-8.612,3.61-8.75l1.703,1.048
	c-0.019,0.032-1.951,3.213-3.391,8.251C10.023,17.309,10,20.965,10,21.001z"/>
<path style="fill:#333333;" d="M8.446,8.824L6.554,8.176c1.569-4.581,7.036-5.618,7.268-5.66l0.355,1.968L14,3.5l0.18,0.984
	C14.135,4.492,9.631,5.364,8.446,8.824z"/>
<path style="fill:#333333;" d="M16.448,11.316l-1.896-0.633c1.276-3.829-1.158-6.374-1.263-6.48l1.418-1.411
	C14.848,2.933,18.125,6.288,16.448,11.316z"/>
<path style="fill:#333333;" d="M5.165,22.486l-0.329-1.973C5.022,20.482,9.458,19.75,13,19.75c3.501,0,6.459,0.243,6.583,0.254
	l-0.166,1.992C19.388,21.994,16.414,21.75,13,21.75C9.626,21.75,5.208,22.479,5.165,22.486z"/>
<path style="fill:#333333;" d="M14,4.5l-0.012-2c0.2-0.018,0.812-0.327,1.03-0.749l1.777,0.916C16.231,3.764,14.895,4.5,14,4.5z"/>
<path style="fill:#333333;" d="M18,20.5h-2c0-0.301-0.098-1-1-1s-1,0.699-1,1h-2c0-1.491,1.03-3,3-3S18,19.009,18,20.5z"/>
</svg>






