<?xml version="1.0" encoding="iso-8859-1"?>
<svg version="1.1" id="&#x56FE;&#x5C42;_1" xmlns="http://www.w3.org/2000/svg" xmlns:xlink="http://www.w3.org/1999/xlink" x="0px"
	 y="0px" viewBox="0 0 24 24" style="enable-background:new 0 0 24 24;" xml:space="preserve">
<path style="fill:#333333;" d="M18.174,18H0.826L8.62,3.526h1.761L18.174,18z M4.174,16h10.652L9.5,6.109L4.174,16z"/>
<polygon style="fill:#333333;" points="21.5,18 16,18 16,16 19.668,16 16.896,11.687 15.269,13.641 13.731,12.359 17.104,8.313 
	22.341,16.459 "/>
<rect x="5" y="19.5" style="fill:#333333;" width="14" height="2"/>
<path style="fill:#333333;" d="M19,7.5c-1.379,0-2.5-1.122-2.5-2.5s1.121-2.5,2.5-2.5s2.5,1.122,2.5,2.5S20.379,7.5,19,7.5z M19,4.5
	c-0.275,0-0.5,0.224-0.5,0.5s0.225,0.5,0.5,0.5s0.5-0.224,0.5-0.5S19.275,4.5,19,4.5z"/>
</svg>






