<?xml version="1.0" encoding="iso-8859-1"?>
<svg version="1.1" id="&#x56FE;&#x5C42;_1" xmlns="http://www.w3.org/2000/svg" xmlns:xlink="http://www.w3.org/1999/xlink" x="0px"
	 y="0px" viewBox="0 0 24 24" style="enable-background:new 0 0 24 24;" xml:space="preserve">
<path style="fill:#333333;" d="M5.854,22.485l-1.749-0.971l3.397-6.125l0.704,0.126c2.24,0.401,4.107,0.195,5.554-0.606
	c2.107-1.17,2.958-3.511,2.763-4.751c-0.084-0.526-0.418-1.064-0.742-1.585c-0.533-0.858-1.138-1.832-0.685-2.949
	c0.233-0.576,0.666-0.971,1.197-1.243C15.893,3.775,15.221,3,14.521,3c-1.037,0-1.391,0.454-1.6,0.897L5.368,17.152l-1.737-0.99
	l7.517-13.186C11.551,2.112,12.499,1,14.521,1c1.864,0,3.109,1.697,3.63,2.578L19.646,3.8L19.516,5.79
	c-2.318,0.038-2.565,0.581-2.567,0.586c-0.071,0.175,0.291,0.757,0.53,1.142c0.388,0.625,0.871,1.402,1.018,2.328
	c0.338,2.135-0.979,5.266-3.767,6.812c-1.692,0.939-3.766,1.257-6.164,0.938L5.854,22.485z"/>
<path style="fill:#333333;" d="M9.529,14.987l-0.933-1.483c1.31-2.361,2.149-3.838,2.566-4.517c0.582-0.944,1.931-1.286,3.008-0.765
	c0.924,0.447,1.673,1.578,1.003,3.413C14.425,13.686,12.525,14.813,9.529,14.987z M13.104,9.981c-0.108,0-0.21,0.03-0.246,0.066
	c-0.273,0.445-0.775,1.32-1.497,2.607c1.492-0.494,1.81-1.362,1.935-1.706c0.165-0.451,0.178-0.817,0.033-0.911
	C13.265,9.998,13.183,9.981,13.104,9.981z"/>
</svg>






