<?xml version="1.0" encoding="iso-8859-1"?>
<svg version="1.1" id="&#x56FE;&#x5C42;_1" xmlns="http://www.w3.org/2000/svg" xmlns:xlink="http://www.w3.org/1999/xlink" x="0px"
	 y="0px" viewBox="0 0 24 24" style="enable-background:new 0 0 24 24;" xml:space="preserve">
<rect x="6" y="2" style="fill:#333333;" width="2" height="3.5"/>
<rect x="16" y="2" style="fill:#333333;" width="2" height="3.5"/>
<path style="fill:#333333;" d="M14,23H9.5v-1c0-1.836-2.461-3-3.5-3H5v-4.5h14V19h-1c-1.193,0-4,1.267-4,3V23z M11.379,21h0.756
	c0.605-2.177,3.106-3.482,4.865-3.874V16.5H7v0.632C8.68,17.537,10.848,18.865,11.379,21z"/>
<path style="fill:#333333;" d="M7,13.5c-2.481,0-4.5-2.019-4.5-4.5S4.519,4.5,7,4.5s4.5,2.019,4.5,4.5S9.481,13.5,7,13.5z M7,6.5
	C5.622,6.5,4.5,7.622,4.5,9s1.122,2.5,2.5,2.5S9.5,10.378,9.5,9S8.378,6.5,7,6.5z"/>
<path style="fill:#333333;" d="M17,13.5c-2.481,0-4.5-2.019-4.5-4.5s2.019-4.5,4.5-4.5s4.5,2.019,4.5,4.5S19.481,13.5,17,13.5z
	 M17,6.5c-1.379,0-2.5,1.122-2.5,2.5s1.121,2.5,2.5,2.5s2.5-1.122,2.5-2.5S18.379,6.5,17,6.5z"/>
<rect x="10.5" y="8" style="fill:#333333;" width="3" height="2"/>
</svg>






