<?xml version="1.0" encoding="iso-8859-1"?>
<svg version="1.1" id="&#x56FE;&#x5C42;_1" xmlns="http://www.w3.org/2000/svg" xmlns:xlink="http://www.w3.org/1999/xlink" x="0px"
	 y="0px" viewBox="0 0 24 24" style="enable-background:new 0 0 24 24;" xml:space="preserve">
<path style="fill:#333333;" d="M14.4,17.5L13.6,15.668c0.928-0.406,1.662-1.141,2.068-2.068L17.5,14.4
	C16.893,15.792,15.792,16.893,14.4,17.5z"/>
<path style="fill:#333333;" d="M9.6,17.5c-1.391-0.607-2.492-1.708-3.1-3.1L8.333,13.6c0.405,0.928,1.14,1.662,2.068,2.068L9.6,17.5
	z"/>
<path style="fill:#333333;" d="M8.333,10.4L6.5,9.6c0.608-1.391,1.709-2.492,3.1-3.1L10.4,8.333C9.472,8.738,8.738,9.472,8.333,10.4
	z"/>
<path style="fill:#333333;" d="M15.668,10.4c-0.406-0.928-1.141-1.663-2.068-2.068L14.4,6.5c1.392,0.608,2.492,1.709,3.1,3.1
	L15.668,10.4z"/>
<path style="fill:#333333;" d="M15.333,21.431l-0.666-1.885c2.257-0.799,4.08-2.622,4.879-4.879l1.885,0.666
	C20.419,18.196,18.196,20.419,15.333,21.431z"/>
<path style="fill:#333333;" d="M8.667,21.431c-2.863-1.012-5.085-3.234-6.097-6.098l1.886-0.666c0.797,2.257,2.621,4.08,4.878,4.879
	L8.667,21.431z"/>
<path style="fill:#333333;" d="M4.455,9.333L2.569,8.667c0.997-2.821,3.276-5.101,6.098-6.098l0.666,1.886
	C7.076,5.253,5.253,7.076,4.455,9.333z"/>
<path style="fill:#333333;" d="M19.546,9.333c-0.799-2.257-2.622-4.081-4.879-4.878l0.666-1.886
	c2.863,1.012,5.086,3.234,6.098,6.097L19.546,9.333z"/>
<path style="fill:#333333;" d="M13.5,9.5h-3L9.542,8.787l-1.5-5l0.126-0.842l1-1.5L10,1h4l0.832,0.445l1,1.5l0.126,0.842l-1.5,5
	L13.5,9.5z M11.244,7.5h1.512l1.151-3.837L13.465,3h-2.93l-0.442,0.663L11.244,7.5z"/>
<path style="fill:#333333;" d="M3.787,15.958l-0.842-0.126l-1.5-1L1,14v-4l0.445-0.832l1.5-1l0.842-0.126l5,1.5L9.5,10.5v3
	l-0.713,0.958L3.787,15.958z M3,13.465l0.663,0.442L7.5,12.756v-1.512l-3.837-1.151L3,10.535V13.465z"/>
<path style="fill:#333333;" d="M14,23h-4l-0.832-0.445l-1-1.5l-0.126-0.842l1.5-5L10.5,14.5h3l0.958,0.713l1.5,5l-0.126,0.842
	l-1,1.5L14,23z M10.535,21h2.93l0.442-0.663L12.756,16.5h-1.512l-1.151,3.837L10.535,21z"/>
<path style="fill:#333333;" d="M20.213,15.958l-5-1.5L14.5,13.5v-3l0.713-0.958l5-1.5l0.882,0.154
	c0.247,0.183,0.466,0.319,0.686,0.456c0.261,0.163,0.521,0.327,0.814,0.544L23,10v4l-0.404,0.804
	c-0.294,0.218-0.555,0.381-0.816,0.544c-0.219,0.137-0.438,0.273-0.684,0.456L20.213,15.958z M16.5,12.756l3.825,1.147
	c0.134-0.088,0.265-0.17,0.396-0.251c0.092-0.059,0.185-0.116,0.279-0.177v-2.951c-0.095-0.061-0.188-0.119-0.28-0.177
	c-0.13-0.082-0.261-0.163-0.395-0.251L16.5,11.244V12.756z"/>
</svg>






