<?xml version="1.0" encoding="iso-8859-1"?>
<svg version="1.1" id="&#x56FE;&#x5C42;_1" xmlns="http://www.w3.org/2000/svg" xmlns:xlink="http://www.w3.org/1999/xlink" x="0px"
	 y="0px" viewBox="0 0 24 24" style="enable-background:new 0 0 24 24;" xml:space="preserve">
<path style="fill:#333333;" d="M19,13.5h-2V4c0-1.654,1.346-3,3-3h2v2h-2c-0.552,0-1,0.449-1,1V13.5z"/>
<path style="fill:#333333;" d="M6,13.5H4V4c0-1.654,1.346-3,3-3h2v2H7C6.449,3,6,3.449,6,4V13.5z"/>
<rect x="5" y="5" style="fill:#333333;" width="13" height="2"/>
<rect x="5" y="9" style="fill:#333333;" width="13" height="2"/>
<path style="fill:#333333;" d="M19.5,19c-0.589,0-1.178-0.148-1.726-0.444c-0.508-0.275-1.041-0.275-1.549,0
	c-1.096,0.592-2.355,0.592-3.451,0c-0.507-0.274-1.042-0.275-1.549,0c-1.097,0.592-2.354,0.592-3.451,0
	c-0.507-0.275-1.042-0.275-1.549,0c-1.097,0.592-2.354,0.592-3.451,0l-1.25-0.676l0.951-1.76l1.25,0.676
	c0.507,0.275,1.043,0.275,1.549,0c1.097-0.592,2.354-0.592,3.451,0c0.507,0.275,1.042,0.275,1.549,0
	c1.097-0.592,2.355-0.592,3.451,0c0.508,0.275,1.041,0.275,1.549,0c1.096-0.592,2.355-0.592,3.451,0
	c0.508,0.275,1.041,0.275,1.549,0l1.25-0.676l0.951,1.76l-1.25,0.676C20.678,18.852,20.089,19,19.5,19z"/>
<path style="fill:#333333;" d="M19.5,22c-0.589,0-1.178-0.148-1.726-0.444c-0.508-0.275-1.041-0.275-1.549,0
	c-1.096,0.592-2.355,0.592-3.451,0c-0.507-0.275-1.042-0.275-1.549,0c-1.097,0.592-2.354,0.592-3.451,0
	c-0.507-0.275-1.042-0.275-1.549,0c-1.097,0.592-2.354,0.592-3.451,0l-1.25-0.676l0.951-1.76l1.25,0.676
	c0.507,0.276,1.043,0.274,1.549,0c1.097-0.592,2.354-0.592,3.451,0c0.507,0.275,1.042,0.275,1.549,0
	c1.097-0.592,2.355-0.592,3.451,0c0.508,0.275,1.041,0.275,1.549,0c1.096-0.592,2.355-0.592,3.451,0
	c0.508,0.275,1.041,0.275,1.549,0l1.25-0.676l0.951,1.76l-1.25,0.676C20.678,21.852,20.089,22,19.5,22z"/>
</svg>






