<?xml version="1.0" encoding="iso-8859-1"?>
<svg version="1.1" id="&#x56FE;&#x5C42;_1" xmlns="http://www.w3.org/2000/svg" xmlns:xlink="http://www.w3.org/1999/xlink" x="0px"
	 y="0px" viewBox="0 0 24 24" style="enable-background:new 0 0 24 24;" xml:space="preserve">
<g>
	<defs>
		<rect id="SVGID_1_" width="24" height="24"/>
	</defs>
	<clipPath id="SVGID_00000076602183357742661280000005973177069637308842_">
		<use xlink:href="#SVGID_1_"  style="overflow:visible;"/>
	</clipPath>
	<g style="clip-path:url(#SVGID_00000076602183357742661280000005973177069637308842_);">
		<path style="fill:#333333;" d="M11,22.5c-2.783,0-5.479-1.572-6.868-4.004l0,0C2.999,16.513,3,13.152,3,8.5
			c0-1.084,0.664-1.985,1.691-2.296c1.154-0.347,2.414,0.151,3.14,1.242c0.178,0.267,0.333,0.624,0.467,1.009l1.99-3.447
			c0.624-1.079,2.007-1.451,3.088-0.828c0.298,0.172,0.548,0.405,0.736,0.681c0.539-0.123,1.125-0.054,1.64,0.243
			c0.517,0.298,0.871,0.771,1.031,1.301c0.328,0.024,0.655,0.121,0.958,0.296c0.874,0.505,1.284,1.509,1.077,2.446
			c0.113,0.043,0.225,0.096,0.331,0.158c1.078,0.623,1.45,2.006,0.831,3.085l-4.585,7.98c-0.075,0.131-0.154,0.258-0.249,0.375
			C14.718,21.274,13.458,22.5,11,22.5z M5.436,8.095c-0.06,0-0.116,0.008-0.165,0.023C5,8.2,5,8.426,5,8.5
			c0,4.181-0.001,7.482,0.868,9.004l0,0C6.892,19.296,8.954,20.5,11,20.5c1.643,0,2.399-0.775,2.593-1.013
			c0.026-0.033,0.047-0.074,0.069-0.113l4.585-7.98c0.071-0.125,0.028-0.285-0.097-0.357c-0.078-0.044-0.149-0.037-0.198-0.026
			c-0.047,0.013-0.112,0.044-0.157,0.12l-0.001,0.002l-1.732-0.999c0.001-0.002,0.002-0.004,0.003-0.006l0.773-1.339
			c0.071-0.124,0.028-0.284-0.096-0.356c-0.126-0.072-0.283-0.028-0.355,0.095l-0.001,0.001l-1.731-1.001c0.001,0,0.001,0,0.001,0
			l0.194-0.336c0.071-0.124,0.028-0.283-0.096-0.355c-0.125-0.072-0.284-0.029-0.355,0.096l-0.195,0.337l-1.731-1.001
			c0.001,0,0.001,0,0.001,0v0c0.044-0.077,0.038-0.149,0.025-0.196s-0.044-0.113-0.121-0.158c-0.125-0.073-0.284-0.029-0.355,0.096
			l-3.248,5.625l-1.854-0.348c-0.13-0.841-0.458-2.29-0.752-2.729C5.939,8.212,5.658,8.095,5.436,8.095z"/>
		<path style="fill:#333333;" d="M20.902,7.616c-0.143-1.223-0.369-2.013-0.734-2.561c-0.56-0.84-1.358-1.261-2.001-1.6L18.03,3.383
			l0.939-1.766l0.13,0.069c0.753,0.397,1.892,0.997,2.732,2.259c0.55,0.825,0.876,1.886,1.057,3.439L20.902,7.616z"/>
	</g>
</g>
</svg>






