<?xml version="1.0" encoding="iso-8859-1"?>
<svg version="1.1" id="&#x56FE;&#x5C42;_1" xmlns="http://www.w3.org/2000/svg" xmlns:xlink="http://www.w3.org/1999/xlink" x="0px"
	 y="0px" viewBox="0 0 24 24" style="enable-background:new 0 0 24 24;" xml:space="preserve">
<path style="fill:#333333;" d="M11.33,14.495c-0.75,0-1.54-0.323-2.293-0.966L2.381,8.286l1.238-1.571l6.686,5.269
	c0.946,0.806,1.346,0.438,1.518,0.282c0.241-0.222,0.245-0.373,0.246-0.43c0.006-0.226-0.153-0.479-0.243-0.591L7.9,8.3l1.2-1.6
	l4.107,3.093c0.091,0.091,0.885,0.919,0.861,2.08c-0.01,0.484-0.173,1.201-0.891,1.862C12.627,14.242,11.994,14.495,11.33,14.495z"
	/>
<polygon style="fill:#333333;" points="18.327,9.74 13.113,5 2,5 2,3 13.887,3 19.673,8.26 "/>
<rect x="4.5" y="15.505" style="fill:#333333;" width="17.5" height="2"/>
<polygon style="fill:#333333;" points="23,21 3.5,21 3.5,9 5.5,9 5.5,19 21,19 21,10 11,10 11,8 23,8 "/>
</svg>






