<?xml version="1.0" encoding="iso-8859-1"?>
<svg version="1.1" id="&#x56FE;&#x5C42;_1" xmlns="http://www.w3.org/2000/svg" xmlns:xlink="http://www.w3.org/1999/xlink" x="0px"
	 y="0px" viewBox="0 0 24 24" style="enable-background:new 0 0 24 24;" xml:space="preserve">
<path style="fill:#333333;" d="M20,20h-5v-2h5c0.365,0,0.771,0,0.973-0.027C21,17.771,21,17.365,21,17V7
	c0-0.365,0-0.771-0.027-0.972C20.771,6,20.365,6,20,6h-5V4h5c1.101,0,1.828,0,2.414,0.586S23,5.899,23,7v10
	c0,1.101,0,1.828-0.586,2.414S21.101,20,20,20z"/>
<path style="fill:#333333;" d="M9,20H4c-1.101,0-1.828,0-2.414-0.586S1,18.101,1,17V7c0-1.101,0-1.828,0.586-2.414S2.899,4,4,4h5v2
	H4C3.635,6,3.229,6,3.028,6.028C3,6.229,3,6.635,3,7v10c0,0.365,0,0.771,0.028,0.973C3.229,18,3.635,18,4,18h5V20z"/>
<rect x="11" y="3" style="fill:#333333;" width="2" height="18"/>
</svg>






