<?xml version="1.0" encoding="iso-8859-1"?>
<svg version="1.1" id="&#x56FE;&#x5C42;_1" xmlns="http://www.w3.org/2000/svg" xmlns:xlink="http://www.w3.org/1999/xlink" x="0px"
	 y="0px" viewBox="0 0 24 24" style="enable-background:new 0 0 24 24;" xml:space="preserve">
<path style="fill:#333333;" d="M9.5,22H7c-2.757,0-5-2.243-5-5V6c0-2.757,2.243-5,5-5h2.5c1.103,0,2,0.897,2,2v17
	C11.5,21.103,10.603,22,9.5,22z M7,3C5.346,3,4,4.346,4,6v11c0,1.654,1.346,3,3,3h2.5V3H7z"/>
<path style="fill:#333333;" d="M17,23h-3c-1.103,0-2-0.897-2-2V4c0-1.103,0.897-2,2-2h3c2.757,0,5,2.243,5,5v11
	C22,20.757,19.757,23,17,23z M14,4v17h3c1.654,0,3-1.346,3-3V7c0-1.654-1.346-3-3-3H14z"/>
<path style="fill:#333333;" d="M6.75,15L6.75,15C7.44,15,8,15.56,8,16.25l0,0c0,0.69-0.56,1.25-1.25,1.25l0,0
	c-0.69,0-1.25-0.56-1.25-1.25l0,0C5.5,15.56,6.06,15,6.75,15z"/>
<path style="fill:#333333;" d="M17,7L17,7c0.69,0,1.25,0.56,1.25,1.25l0,0c0,0.69-0.56,1.25-1.25,1.25l0,0
	c-0.69,0-1.25-0.56-1.25-1.25l0,0C15.75,7.56,16.31,7,17,7z"/>
<rect x="6" y="7.5" style="fill:#333333;" width="1.5" height="2"/>
<rect x="16" y="14" style="fill:#333333;" width="2" height="3"/>
<rect x="15.5" y="14.5" style="fill:#333333;" width="3" height="2"/>
</svg>






