<?xml version="1.0" encoding="iso-8859-1"?>
<svg version="1.1" id="&#x56FE;&#x5C42;_1" xmlns="http://www.w3.org/2000/svg" xmlns:xlink="http://www.w3.org/1999/xlink" x="0px"
	 y="0px" viewBox="0 0 24 24" style="enable-background:new 0 0 24 24;" xml:space="preserve">
<path style="fill:#333333;" d="M12,22.5C6.21,22.5,1.5,17.79,1.5,12C1.5,6.21,6.21,1.5,12,1.5c5.79,0,10.5,4.71,10.5,10.5
	C22.5,17.79,17.79,22.5,12,22.5z M12,3.5c-4.687,0-8.5,3.813-8.5,8.5c0,4.687,3.813,8.5,8.5,8.5c4.687,0,8.5-3.813,8.5-8.5
	C20.5,7.313,16.687,3.5,12,3.5z"/>
<path style="fill:#333333;" d="M15.373,15.926H8.626c-2.001,0-3.629-1.628-3.629-3.629c0-2.001,1.628-3.63,3.629-3.63h6.747
	c2.002,0,3.63,1.628,3.63,3.63C19.003,14.298,17.375,15.926,15.373,15.926z M8.626,10.667c-0.898,0-1.629,0.731-1.629,1.63
	c0,0.898,0.731,1.629,1.629,1.629h6.747c0.898,0,1.63-0.73,1.63-1.629c0-0.899-0.731-1.63-1.63-1.63H8.626z"/>
<path style="fill:#333333;" d="M15.503,15.926c-1.93,0-3.5-1.57-3.5-3.5s1.57-3.5,3.5-3.5s3.5,1.57,3.5,3.5
	S17.433,15.926,15.503,15.926z M15.503,10.926c-0.827,0-1.5,0.673-1.5,1.5c0,0.827,0.673,1.5,1.5,1.5s1.5-0.673,1.5-1.5
	C17.003,11.599,16.33,10.926,15.503,10.926z"/>
</svg>






