<?xml version="1.0" encoding="iso-8859-1"?>
<svg version="1.1" id="&#x56FE;&#x5C42;_1" xmlns="http://www.w3.org/2000/svg" xmlns:xlink="http://www.w3.org/1999/xlink" x="0px"
	 y="0px" viewBox="0 0 24 24" style="enable-background:new 0 0 24 24;" xml:space="preserve">
<path style="fill:#333333;" d="M18,11H6c-2.757,0-5-2.243-5-5s2.243-5,5-5h12c2.757,0,5,2.243,5,5S20.757,11,18,11z M6,3
	C4.346,3,3,4.346,3,6s1.346,3,3,3h12c1.654,0,3-1.346,3-3s-1.346-3-3-3H6z"/>
<path style="fill:#333333;" d="M18,23H6c-2.757,0-5-2.243-5-5s2.243-5,5-5h12c2.757,0,5,2.243,5,5S20.757,23,18,23z M6,15
	c-1.654,0-3,1.346-3,3s1.346,3,3,3h12c1.654,0,3-1.346,3-3s-1.346-3-3-3H6z"/>
<circle style="fill:#333333;" cx="18" cy="6" r="2"/>
<circle style="fill:#333333;" cx="6" cy="18" r="2"/>
</svg>






