<?xml version="1.0" encoding="iso-8859-1"?>
<svg version="1.1" id="&#x56FE;&#x5C42;_1" xmlns="http://www.w3.org/2000/svg" xmlns:xlink="http://www.w3.org/1999/xlink" x="0px"
	 y="0px" viewBox="0 0 24 24" style="enable-background:new 0 0 24 24;" xml:space="preserve">
<path style="fill:#333333;" d="M22.997,14.5H10.5V1H23L22.997,14.5z M12.5,12.5h8.497L21,3h-8.5V12.5z"/>
<path style="fill:#333333;" d="M15.503,23H9.329c-0.805,0-2.312-0.207-3.354-1.592C5.33,20.549,5.002,19.402,5.002,18v-5.5h2V18
	c0,0.96,0.192,1.702,0.571,2.206C8.093,20.896,8.896,21,9.329,21h6.174V23z"/>
<polygon style="fill:#333333;" points="9.3,17.207 6.002,13.914 2.707,17.207 1.293,15.793 6.002,11.086 10.713,15.793 "/>
<rect x="15" y="8.5" style="fill:#333333;" width="3.5" height="2"/>
<rect x="15" y="5" style="fill:#333333;" width="3.5" height="2"/>
</svg>






