<?xml version="1.0" encoding="iso-8859-1"?>
<svg version="1.1" id="&#x56FE;&#x5C42;_1" xmlns="http://www.w3.org/2000/svg" xmlns:xlink="http://www.w3.org/1999/xlink" x="0px"
	 y="0px" viewBox="0 0 24 24" style="enable-background:new 0 0 24 24;" xml:space="preserve">
<path style="fill:#333333;" d="M22,21.002h-6.997l-0.574-1.819C17.505,17.027,19,14.678,19,12c0-3.925-3.073-7-6.996-7
	C7.946,5,5,7.944,5,12c0,2.816,1.488,5.16,4.55,7.166l-0.548,1.837H2v-2h4.13C4.051,16.989,3,14.644,3,12c0-5.13,3.871-9,9.004-9
	C17.049,3,21,6.953,21,12c0,2.561-1.079,4.908-3.214,7.002H22V21.002z"/>
</svg>






