<?xml version="1.0" encoding="iso-8859-1"?>
<svg version="1.1" id="&#x56FE;&#x5C42;_1" xmlns="http://www.w3.org/2000/svg" xmlns:xlink="http://www.w3.org/1999/xlink" x="0px"
	 y="0px" viewBox="0 0 24 24" style="enable-background:new 0 0 24 24;" xml:space="preserve">
<path style="fill:#333333;" d="M9,11H4c-1.103,0-2-0.897-2-2V4c0-1.103,0.897-2,2-2h5c1.103,0,2,0.897,2,2v5
	C11,10.103,10.103,11,9,11z M4,4v5h5V4H4z"/>
<path style="fill:#333333;" d="M9,22H4c-1.103,0-2-0.897-2-2v-5c0-1.103,0.897-2,2-2h5c1.103,0,2,0.897,2,2v5
	C11,21.103,10.103,22,9,22z M4,15v5h5v-5H4z"/>
<path style="fill:#333333;" d="M17.5,11C15.019,11,13,8.981,13,6.5S15.019,2,17.5,2S22,4.019,22,6.5S19.981,11,17.5,11z M17.5,4
	C16.121,4,15,5.122,15,6.5S16.121,9,17.5,9S20,7.878,20,6.5S18.879,4,17.5,4z"/>
<path style="fill:#333333;" d="M20,22h-5c-1.103,0-2-0.897-2-2v-5c0-1.103,0.897-2,2-2h5c1.103,0,2,0.897,2,2v5
	C22,21.103,21.103,22,20,22z M15,15v5h5v-5H15z"/>
</svg>






