<?xml version="1.0" encoding="iso-8859-1"?>
<svg version="1.1" id="&#x56FE;&#x5C42;_1" xmlns="http://www.w3.org/2000/svg" xmlns:xlink="http://www.w3.org/1999/xlink" x="0px"
	 y="0px" viewBox="0 0 24 24" style="enable-background:new 0 0 24 24;" xml:space="preserve">
<path style="fill:#333333;" d="M21,22H3c-1.103,0-2-0.897-2-2V4c0-1.103,0.897-2,2-2h18c1.103,0,2,0.897,2,2v16
	C23,21.103,22.103,22,21,22z M3,4v16h18V4H3z"/>
<rect x="2" y="8" style="fill:#333333;" width="20" height="2"/>
<rect x="7.75" y="9" style="fill:#333333;" width="2" height="12"/>
<rect x="14.25" y="9" style="fill:#333333;" width="2" height="12"/>
<rect x="2" y="14" style="fill:#333333;" width="20" height="2"/>
<path style="fill:#333333;" d="M21,22H3c-1.103,0-2-0.897-2-2V4h2v16h18V4h2v16C23,21.103,22.103,22,21,22z"/>
</svg>






