<?xml version="1.0" encoding="iso-8859-1"?>
<svg version="1.1" id="&#x56FE;&#x5C42;_1" xmlns="http://www.w3.org/2000/svg" xmlns:xlink="http://www.w3.org/1999/xlink" x="0px"
	 y="0px" viewBox="0 0 24 24" style="enable-background:new 0 0 24 24;" xml:space="preserve">
<path style="fill:#333333;" d="M18.5,23H4c-1.378,0-2.5-1.121-2.5-2.5v-17C1.5,2.122,2.622,1,4,1h12c1.379,0,2.5,1.122,2.5,2.5V23z
	 M4,3C3.724,3,3.5,3.224,3.5,3.5v17C3.5,20.775,3.724,21,4,21h12.5V3.5C16.5,3.224,16.275,3,16,3H4z"/>
<path style="fill:#333333;" d="M20,23h-3.5V12c0-1.103,0.897-2,2-2h2c1.103,0,2,0.897,2,2v8.5C22.5,21.879,21.379,23,20,23z
	 M18.5,21H20c0.275,0,0.5-0.225,0.5-0.5V12h-2V21z"/>
<rect x="5.5" y="5" style="fill:#333333;" width="4" height="2"/>
<rect x="5.5" y="8.5" style="fill:#333333;" width="6" height="2"/>
</svg>






