<?xml version="1.0" encoding="iso-8859-1"?>
<svg version="1.1" id="&#x56FE;&#x5C42;_1" xmlns="http://www.w3.org/2000/svg" xmlns:xlink="http://www.w3.org/1999/xlink" x="0px"
	 y="0px" viewBox="0 0 24 24" style="enable-background:new 0 0 24 24;" xml:space="preserve">
<path style="fill:#333333;" d="M15.726,9.48c-1.93,0-3.5-1.57-3.5-3.5s1.57-3.5,3.5-3.5s3.5,1.57,3.5,3.5S17.655,9.48,15.726,9.48z
	 M15.726,4.48c-0.827,0-1.5,0.673-1.5,1.5s0.673,1.5,1.5,1.5s1.5-0.673,1.5-1.5S16.553,4.48,15.726,4.48z"/>
<polygon style="fill:#333333;" points="17.017,17.179 16.246,12.941 11.914,14.91 11.275,14.975 4.775,13.475 5.225,11.525 
	11.395,12.949 16.586,10.59 17.983,11.321 18.983,16.821 "/>
<rect x="2" y="19.515" style="fill:#333333;" width="20" height="2"/>
<circle style="fill:#333333;" cx="4.5" cy="12.5" r="2.5"/>
<circle style="fill:#333333;" cx="3" cy="8.5" r="1"/>
<polygon style="fill:#333333;" points="14.816,17.948 14.184,16.052 19.621,14.239 16.485,12.357 17.515,10.643 22.515,13.643 
	22.316,15.448 "/>
</svg>






