<?xml version="1.0" encoding="iso-8859-1"?>
<svg version="1.1" id="&#x56FE;&#x5C42;_1" xmlns="http://www.w3.org/2000/svg" xmlns:xlink="http://www.w3.org/1999/xlink" x="0px"
	 y="0px" viewBox="0 0 24 24" style="enable-background:new 0 0 24 24;" xml:space="preserve">
<path style="fill:#333333;" d="M13.358,22.604c-0.749,0-1.453-0.292-1.981-0.822L3,13.415V3h10.414l8.378,8.378
	c1.084,1.09,1.084,2.861,0.002,3.949l-6.455,6.455C14.81,22.312,14.106,22.604,13.358,22.604z M5,12.585l7.792,7.782
	c0.3,0.304,0.831,0.303,1.133,0.001l6.451-6.451c0.309-0.311,0.309-0.816,0-1.127L12.586,5H5V12.585z"/>
<path style="fill-rule:evenodd;clip-rule:evenodd;fill:#333333;" d="M9.25,10.5c0.69,0,1.25-0.56,1.25-1.25S9.94,8,9.25,8
	S8,8.56,8,9.25S8.56,10.5,9.25,10.5z"/>
</svg>






