<?xml version="1.0" encoding="iso-8859-1"?>
<svg version="1.1" id="&#x56FE;&#x5C42;_1" xmlns="http://www.w3.org/2000/svg" xmlns:xlink="http://www.w3.org/1999/xlink" x="0px"
	 y="0px" viewBox="0 0 24 24" style="enable-background:new 0 0 24 24;" xml:space="preserve">
<path style="fill:#333333;" d="M21,2.5h-2.293c-0.445,0-0.669,0.539-0.354,0.854l2.293,2.293C20.961,5.961,21.5,5.738,21.5,5.293V3
	C21.5,2.724,21.276,2.5,21,2.5z"/>
<path style="fill:#333333;" d="M4,21.5h2.293c0.445,0,0.669-0.539,0.354-0.854l-2.293-2.293C4.039,18.039,3.5,18.262,3.5,18.707V21
	C3.5,21.276,3.724,21.5,4,21.5z"/>
<path style="fill:#333333;" d="M22,18H8c-1.103,0-2-0.897-2-2V2h2v14h14V18z"/>
<polygon style="fill:#333333;" points="18.5,13.5 16.5,13.5 16.5,7.5 10.5,7.5 10.5,5.5 18.5,5.5 "/>
<rect x="3" y="5.5" style="fill:#333333;" width="4" height="2"/>
<rect x="17" y="17" style="fill:#333333;" width="2" height="4"/>
</svg>






