<?xml version="1.0" encoding="iso-8859-1"?>
<svg version="1.1" id="&#x56FE;&#x5C42;_1" xmlns="http://www.w3.org/2000/svg" xmlns:xlink="http://www.w3.org/1999/xlink" x="0px"
	 y="0px" viewBox="0 0 24 24" style="enable-background:new 0 0 24 24;" xml:space="preserve">
<g>
	<defs>
		<rect id="SVGID_1_" width="24" height="24"/>
	</defs>
	<clipPath id="SVGID_00000068649503460631120520000000603716941521044662_">
		<use xlink:href="#SVGID_1_"  style="overflow:visible;"/>
	</clipPath>
	<g style="clip-path:url(#SVGID_00000068649503460631120520000000603716941521044662_);">
		<rect x="2.499" y="19.494" style="fill:#333333;" width="19" height="2"/>
		<path style="fill:#333333;" d="M3.762,16.769l-3.174-5.497l0.866-0.5c0.968-0.56,3.359,0.383,4.324,0.804l3.342-1.196L4.761,2.832
			l4.101-0.246l6.586,6.125l3.569-1.13c1.64-0.469,3.01-0.045,3.687,1.128c0.723,1.252,0.225,2.62-1.27,3.483
			c-1.647,0.951-14.413,3.845-16.956,4.415L3.762,16.769z M3.883,12.979l0.875,1.515c7.051-1.593,14.754-3.502,15.674-4.033
			c0.333-0.192,0.697-0.479,0.539-0.752c-0.197-0.346-0.661-0.417-1.377-0.213l-4.654,1.474L8.126,4.633L8.112,4.634l3.938,6.82
			l-6.388,2.287l-0.386-0.198C4.918,13.358,4.397,13.153,3.883,12.979z"/>
	</g>
</g>
</svg>






