<?xml version="1.0" encoding="iso-8859-1"?>
<svg version="1.1" id="&#x56FE;&#x5C42;_1" xmlns="http://www.w3.org/2000/svg" xmlns:xlink="http://www.w3.org/1999/xlink" x="0px"
	 y="0px" viewBox="0 0 24 24" style="enable-background:new 0 0 24 24;" xml:space="preserve">
<path style="fill:#333333;" d="M6.217,17.715c-0.582,0-1.158-0.204-1.621-0.599L0.07,13.26l3.354-1.285
	c0.527-0.202,1.115-0.219,1.655-0.047l1.64,0.524c0.125,0.039,0.259,0.028,0.378-0.031l11.132-5.649
	c0.35-0.177,0.74-0.271,1.131-0.271h4.26l-1.5,3C21.877,9.981,21.48,10.378,21,10.618l-4.553,2.276l-0.895-1.789l4.553-2.276
	c0.096-0.048,0.176-0.127,0.224-0.224L20.382,8.5h-1.023c-0.078,0-0.156,0.019-0.227,0.055l-11.13,5.648
	c-0.59,0.3-1.263,0.354-1.892,0.152L4.47,13.832c-0.108-0.034-0.225-0.03-0.331,0.01l-0.209,0.08l1.962,1.673
	c0.154,0.132,0.37,0.158,0.548,0.066l4.112-2.056l0.895,1.789L7.335,17.45C6.98,17.628,6.597,17.715,6.217,17.715z"/>
<polygon style="fill:#333333;" points="12.384,20.968 10.605,20.947 7.658,15.053 10.553,13.605 11.448,15.395 10.342,15.947 
	11.525,18.314 15.116,11.532 16.884,12.468 "/>
<polygon style="fill:#333333;" points="7.626,12.985 5.126,8.486 6.243,7.03 14.242,9.03 13.758,10.97 7.994,9.529 9.374,12.015 "/>
</svg>






