<?xml version="1.0" encoding="iso-8859-1"?>
<svg version="1.1" id="&#x56FE;&#x5C42;_1" xmlns="http://www.w3.org/2000/svg" xmlns:xlink="http://www.w3.org/1999/xlink" x="0px"
	 y="0px" viewBox="0 0 24 24" style="enable-background:new 0 0 24 24;" xml:space="preserve">
<path style="fill:#333333;" d="M21,20H3c-1.103,0-2-0.897-2-2V6c0-1.103,0.897-2,2-2h18c1.103,0,2,0.897,2,2v12
	C23,19.103,22.103,20,21,20z M3,6v12h18V6H3z"/>
<path style="fill:#333333;" d="M16.031,9H7.968C7.373,9,6.813,8.738,6.432,8.28l-0.833-1C5.096,6.677,4.991,5.862,5.324,5.151
	C5.657,4.441,6.351,4,7.135,4h9.73c0.784,0,1.479,0.441,1.811,1.151c0.333,0.71,0.228,1.526-0.274,2.129l-0.833,1
	C17.186,8.738,16.626,9,16.031,9z M7.135,6C7.13,6,7.127,6,7.127,6l0.841,1h8.063l0.833-1H7.135z"/>
<rect x="3" y="4" style="fill:#333333;" width="18" height="2"/>
<path style="fill:#333333;" d="M16.5,16.5c-1.654,0-3-1.346-3-3s1.346-3,3-3s3,1.346,3,3S18.154,16.5,16.5,16.5z M16.5,12.5
	c-0.552,0-1,0.448-1,1s0.448,1,1,1s1-0.448,1-1S17.052,12.5,16.5,12.5z"/>
<path style="fill:#333333;" d="M7.5,16.5c-1.654,0-3-1.346-3-3s1.346-3,3-3s3,1.346,3,3S9.154,16.5,7.5,16.5z M7.5,12.5
	c-0.551,0-1,0.448-1,1s0.449,1,1,1s1-0.448,1-1S8.051,12.5,7.5,12.5z"/>
</svg>






