<?xml version="1.0" encoding="iso-8859-1"?>
<svg version="1.1" id="&#x56FE;&#x5C42;_1" xmlns="http://www.w3.org/2000/svg" xmlns:xlink="http://www.w3.org/1999/xlink" x="0px"
	 y="0px" viewBox="0 0 24 24" style="enable-background:new 0 0 24 24;" xml:space="preserve">
<path style="fill:#333333;" d="M11.944,20.944c-4.962,0-9-4.037-9-9c0-4.962,4.038-9,9-9c4.963,0,9,4.038,9,9
	C20.944,16.907,16.907,20.944,11.944,20.944z M11.944,4.944c-3.86,0-7,3.14-7,7c0,3.859,3.14,7,7,7c3.859,0,7-3.141,7-7
	C18.944,8.084,15.804,4.944,11.944,4.944z"/>
<path style="fill:#333333;" d="M11.944,16.944c-2.757,0-5-2.243-5-5s2.243-5,5-5s5,2.243,5,5S14.701,16.944,11.944,16.944z
	 M11.944,8.944c-1.654,0-3,1.346-3,3s1.346,3,3,3s3-1.346,3-3S13.599,8.944,11.944,8.944z"/>
<path style="fill:#333333;" d="M11.944,12.944c0.55,0,1-0.45,1-1s-0.45-1-1-1s-1,0.45-1,1S11.394,12.944,11.944,12.944z"/>
<rect x="10.944" y="1.944" style="fill:#333333;" width="2" height="2"/>
<rect x="16.944" y="18.179" transform="matrix(0.8682 -0.4961 0.4961 0.8682 -7.6549 11.5636)" style="fill:#333333;" width="2" height="4.031"/>
<rect x="3.929" y="19.194" transform="matrix(0.4961 -0.8682 0.8682 0.4961 -14.5385 15.3363)" style="fill:#333333;" width="4.031" height="2"/>
</svg>






