<?xml version="1.0" encoding="iso-8859-1"?>
<svg version="1.1" id="&#x56FE;&#x5C42;_1" xmlns="http://www.w3.org/2000/svg" xmlns:xlink="http://www.w3.org/1999/xlink" x="0px"
	 y="0px" viewBox="0 0 24 24" style="enable-background:new 0 0 24 24;" xml:space="preserve">
<path style="fill:#333333;" d="M12,21.5c-5.238,0-9.5-4.262-9.5-9.5S6.762,2.5,12,2.5s9.5,4.262,9.5,9.5S17.238,21.5,12,21.5z
	 M12,4.5c-4.136,0-7.5,3.364-7.5,7.5s3.364,7.5,7.5,7.5s7.5-3.364,7.5-7.5S16.136,4.5,12,4.5z"/>
<path style="fill:#333333;" d="M12,17c-2.757,0-5-2.243-5-5s2.243-5,5-5s5,2.243,5,5S14.757,17,12,17z M12,9c-1.654,0-3,1.346-3,3
	s1.346,3,3,3s3-1.346,3-3S13.654,9,12,9z"/>
<rect x="2" y="11" style="fill:#333333;" width="20" height="2"/>
<rect x="11" y="2" style="fill:#333333;" width="2" height="20"/>
</svg>






