<?xml version="1.0" encoding="iso-8859-1"?>
<svg version="1.1" id="&#x56FE;&#x5C42;_1" xmlns="http://www.w3.org/2000/svg" xmlns:xlink="http://www.w3.org/1999/xlink" x="0px"
	 y="0px" viewBox="0 0 24 24" style="enable-background:new 0 0 24 24;" xml:space="preserve">
<path style="fill:#333333;" d="M12,16c-2.206,0-4-1.794-4-4c0-1.533,0.894-2.95,2.277-3.611l0.862,1.805
	C10.447,10.524,10,11.233,10,12c0,1.103,0.897,2,2,2c0.767,0,1.476-0.447,1.807-1.141l1.805,0.863C14.949,15.106,13.532,16,12,16z"
	/>
<path style="fill:#333333;" d="M12,19.5c-4.136,0-7.5-3.364-7.5-7.5S7.864,4.5,12,4.5c0.846,0,1.677,0.14,2.469,0.416l-0.658,1.889
	C13.23,6.603,12.621,6.5,12,6.5c-3.033,0-5.5,2.467-5.5,5.5c0,3.032,2.467,5.5,5.5,5.5c3.032,0,5.5-2.468,5.5-5.5
	c0-0.621-0.103-1.23-0.305-1.811l1.889-0.658C19.36,10.324,19.5,11.154,19.5,12C19.5,16.136,16.136,19.5,12,19.5z"/>
<path style="fill:#333333;" d="M12,23C5.935,23,1,18.065,1,12S5.935,1,12,1c1.838,0,3.657,0.463,5.263,1.338l-0.957,1.756
	C14.993,3.378,13.504,3,12,3c-4.962,0-9,4.038-9,9c0,4.963,4.038,9,9,9c4.963,0,9-4.037,9-9c0-1.505-0.378-2.994-1.094-4.305
	l1.756-0.958C22.537,8.341,23,10.161,23,12C23,18.065,18.065,23,12,23z"/>
<rect x="9.929" y="6" transform="matrix(0.7071 -0.7071 0.7071 0.7071 0.0294 14.0711)" style="fill:#333333;" width="14.142" height="2"/>
</svg>






