<?xml version="1.0" encoding="iso-8859-1"?>
<svg version="1.1" id="&#x56FE;&#x5C42;_1" xmlns="http://www.w3.org/2000/svg" xmlns:xlink="http://www.w3.org/1999/xlink" x="0px"
	 y="0px" viewBox="0 0 24 24" style="enable-background:new 0 0 24 24;" xml:space="preserve">
<path style="fill:#333333;" d="M17.502,22.5c-1.484,0-2.722-1.083-2.96-2.5H9.458C9.22,21.417,7.984,22.5,6.5,22.5
	c-1.483,0-2.719-1.083-2.958-2.5H3.5C2.122,20,1,18.879,1,17.5v-3.646c0-1.507,0.827-2.863,2.163-3.553l1.032-3.536
	C4.5,5.454,5.701,4.5,7.103,4.5h9.844c1.416,0,2.62,0.965,2.928,2.346l0.971,3.459C22.176,10.997,23,12.351,23,13.854V17.5
	c0,1.379-1.121,2.5-2.5,2.5h-0.04C20.222,21.417,18.985,22.5,17.502,22.5z M7.5,18h9v1.5c0,0.552,0.449,1,1.002,1
	c0.552,0,1-0.448,1-1V18H20.5c0.275,0,0.5-0.225,0.5-0.5v-3.646c0-0.763-0.424-1.448-1.105-1.789l-0.736-0.368l-1.222-4.364
	C17.82,6.821,17.419,6.5,16.947,6.5H7.103c-0.467,0-0.868,0.318-0.974,0.773l-1.292,4.428l-0.733,0.365
	C3.424,12.406,3,13.092,3,13.854V17.5C3,17.775,3.224,18,3.5,18h2v1.5c0,0.552,0.448,1,1,1s1-0.448,1-1V18z"/>
<path style="fill:#333333;" d="M6.75,16.5C7.44,16.5,8,15.94,8,15.25S7.44,14,6.75,14S5.5,14.56,5.5,15.25S6.06,16.5,6.75,16.5z"/>
<path style="fill:#333333;" d="M17.25,16.5c0.69,0,1.25-0.56,1.25-1.25S17.94,14,17.25,14S16,14.56,16,15.25S16.56,16.5,17.25,16.5z
	"/>
<path style="fill:#333333;" d="M16.22,6.5H7.78l0.735-3.674C8.668,2.058,9.328,1.5,10.082,1.5h3.837
	c0.753,0,1.411,0.557,1.566,1.324L16.22,6.5z M10.22,4.5h3.561l-0.199-1H10.42L10.22,4.5z"/>
<rect x="7.5" y="10.5" style="fill:#333333;" width="9" height="2"/>
</svg>






