<?xml version="1.0" encoding="iso-8859-1"?>
<svg version="1.1" id="&#x56FE;&#x5C42;_1" xmlns="http://www.w3.org/2000/svg" xmlns:xlink="http://www.w3.org/1999/xlink" x="0px"
	 y="0px" viewBox="0 0 24 24" style="enable-background:new 0 0 24 24;" xml:space="preserve">
<path style="fill:#333333;" d="M10,22C3.925,22,0,17.29,0,10V9h20v1C20,17.29,16.075,22,10,22z M2.03,11c0.276,4.521,2.477,9,7.97,9
	s7.693-4.479,7.97-9H2.03z"/>
<rect x="9" y="3" style="fill:#333333;" width="2" height="4"/>
<rect x="14" y="5" style="fill:#333333;" width="2" height="2"/>
<rect x="4" y="5" style="fill:#333333;" width="2" height="2"/>
<path style="fill:#333333;" d="M19.5,16.5c-0.579,0-1.144-0.076-1.676-0.226l-1.056-0.297l0.393-1.023
	c0.454-1.187,0.728-2.527,0.812-3.986l0.049-0.856l0.854-0.082C19.079,10.01,19.288,10,19.5,10c2.523,0,4.5,1.428,4.5,3.25
	S22.023,16.5,19.5,16.5z M19.415,14.499C20.977,14.543,22,13.769,22,13.25c0-0.465-0.81-1.121-2.109-1.233
	C19.795,12.884,19.636,13.714,19.415,14.499z"/>
</svg>






