<?xml version="1.0" encoding="iso-8859-1"?>
<svg version="1.1" id="&#x56FE;&#x5C42;_1" xmlns="http://www.w3.org/2000/svg" xmlns:xlink="http://www.w3.org/1999/xlink" x="0px"
	 y="0px" viewBox="0 0 24 24" style="enable-background:new 0 0 24 24;" xml:space="preserve">
<path style="fill:#333333;" d="M11.5,22c-3.86,0-7-3.141-7-7V9.083C4.5,8.486,4.986,8,5.583,8h11.833
	C18.014,8,18.5,8.486,18.5,9.083V15C18.5,18.859,15.359,22,11.5,22z M6.5,10v5c0,2.757,2.243,5,5,5s5-2.243,5-5v-5H6.5z"/>
<path style="fill:#333333;" d="M17.5,16v-2c1.103,0,2-0.897,2-2c0-1.103-0.897-2-2-2V8c2.206,0,4,1.794,4,4
	C21.5,14.206,19.706,16,17.5,16z"/>
<rect x="4.5" y="4" style="fill:#333333;" width="2" height="1.5"/>
<rect x="16.5" y="4" style="fill:#333333;" width="2" height="1.5"/>
<rect x="10.5" y="2.5" style="fill:#333333;" width="2" height="3"/>
</svg>






