<?xml version="1.0" encoding="iso-8859-1"?>
<svg version="1.1" id="&#x56FE;&#x5C42;_1" xmlns="http://www.w3.org/2000/svg" xmlns:xlink="http://www.w3.org/1999/xlink" x="0px"
	 y="0px" viewBox="0 0 24 24" style="enable-background:new 0 0 24 24;" xml:space="preserve">
<path style="fill:#333333;" d="M20.506,13.5H2.496l0.351-1.268C3.946,8.269,7.504,5.5,11.5,5.5c3.996,0,7.554,2.769,8.654,6.732
	L20.506,13.5z M5.255,11.5h12.492c-1.177-2.408-3.589-4-6.247-4C8.842,7.5,6.431,9.092,5.255,11.5z"/>
<path style="fill:#333333;" d="M17.75,21.5H5.25l-0.297-0.325C3.372,19.443,2.5,17.179,2.5,14.796c0-0.87,0.117-1.732,0.347-2.562
	L3.05,11.5h16.901l0.203,0.733c0.229,0.83,0.347,1.692,0.347,2.562c0,2.383-0.871,4.647-2.453,6.379L17.75,21.5z M6.149,19.5h10.703
	c1.066-1.314,1.649-2.969,1.649-4.704c0-0.437-0.037-0.87-0.11-1.296H4.611c-0.073,0.426-0.11,0.859-0.11,1.296
	C4.5,16.531,5.083,18.186,6.149,19.5z"/>
<path style="fill:#333333;" d="M14.5,6.5h-2v-1c0-0.551-0.448-1-1-1c-0.551,0-1,0.449-1,1v1h-2v-1c0-1.654,1.346-3,3-3s3,1.346,3,3
	V6.5z"/>
<path style="fill:#333333;" d="M3.435,14.998c-0.596-0.039-1.762-0.475-2.354-1.854c-0.716-1.671-0.062-2.894,0.464-3.876
	c0.198-0.369,0.384-0.718,0.506-1.084C2.229,7.65,1.879,7.202,1.554,6.92C1.203,6.613,1.001,6.182,1,5.735V5.424
	c0-0.79,0.608-1.431,1.383-1.46C3.137,3.937,4.221,4.041,5.1,4.7c1.234,0.925,1.78,3.147,1.876,3.583L5.024,8.718
	C4.853,7.954,4.377,6.658,3.9,6.3C3.779,6.209,3.639,6.142,3.493,6.092C4.085,6.917,4.257,7.89,3.949,8.816
	c-0.176,0.527-0.422,0.988-0.64,1.395c-0.491,0.917-0.712,1.391-0.39,2.145c0.239,0.558,0.61,0.639,0.682,0.648L3.435,14.998z"/>
<rect x="4.5" y="19.5" style="fill:#333333;" width="14" height="2"/>
<path style="fill:#333333;" d="M19.5,13.5v-2c0.827,0,1.5-0.673,1.5-1.5s-0.673-1.5-1.5-1.5c-0.597,0-1.137,0.354-1.376,0.9
	L16.292,8.6c0.557-1.275,1.816-2.1,3.208-2.1c1.93,0,3.5,1.57,3.5,3.5S21.43,13.5,19.5,13.5z"/>
</svg>






