<?xml version="1.0" encoding="iso-8859-1"?>
<svg version="1.1" id="&#x56FE;&#x5C42;_1" xmlns="http://www.w3.org/2000/svg" xmlns:xlink="http://www.w3.org/1999/xlink" x="0px"
	 y="0px" viewBox="0 0 24 24" style="enable-background:new 0 0 24 24;" xml:space="preserve">
<path style="fill:#333333;" d="M6,22.5c-2.206,0-4-1.794-4-4v-13c0-2.206,1.794-4,4-4s4,1.794,4,4v13C10,20.706,8.206,22.5,6,22.5z
	 M6,3.5c-1.103,0-2,0.897-2,2v13c0,1.103,0.897,2,2,2s2-0.897,2-2v-13C8,4.397,7.103,3.5,6,3.5z"/>
<path style="fill:#333333;" d="M18,22.5c-2.206,0-4-1.794-4-4v-13c0-2.206,1.794-4,4-4s4,1.794,4,4v13
	C22,20.706,20.206,22.5,18,22.5z M18,3.5c-1.103,0-2,0.897-2,2v13c0,1.103,0.897,2,2,2s2-0.897,2-2v-13C20,4.397,19.103,3.5,18,3.5z
	"/>
<path style="fill:#333333;" d="M6,22.5c-2.206,0-4-1.794-4-4s1.794-4,4-4s4,1.794,4,4S8.206,22.5,6,22.5z M6,16.5
	c-1.103,0-2,0.897-2,2s0.897,2,2,2s2-0.897,2-2S7.103,16.5,6,16.5z"/>
<path style="fill:#333333;" d="M18,22.5c-2.206,0-4-1.794-4-4s1.794-4,4-4s4,1.794,4,4S20.206,22.5,18,22.5z M18,16.5
	c-1.103,0-2,0.897-2,2s0.897,2,2,2s2-0.897,2-2S19.103,16.5,18,16.5z"/>
<path style="fill:#333333;" d="M16,10.5h-2c0-1.103-0.897-2-2-2c-1.103,0-2,0.897-2,2H8c0-2.206,1.794-4,4-4
	C14.206,6.5,16,8.294,16,10.5z"/>
<path style="fill:#333333;" d="M16,15.5h-2c0-1.103-0.897-2-2-2c-1.103,0-2,0.897-2,2H8c0-2.206,1.794-4,4-4
	C14.206,11.5,16,13.294,16,15.5z"/>
</svg>






