<?xml version="1.0" encoding="iso-8859-1"?>
<svg version="1.1" id="&#x56FE;&#x5C42;_1" xmlns="http://www.w3.org/2000/svg" xmlns:xlink="http://www.w3.org/1999/xlink" x="0px"
	 y="0px" viewBox="0 0 24 24" style="enable-background:new 0 0 24 24;" xml:space="preserve">
<path style="fill:#333333;" d="M10,23H5c-1.103,0-2-0.897-2-2V3c0-1.103,0.897-2,2-2h14c1.103,0,2,0.897,2,2v5.199h-2V3H5v18h5V23z"
	/>
<rect x="8" y="6" style="fill:#333333;" width="6.5" height="2"/>
<rect x="8" y="9.5" style="fill:#333333;" width="2.5" height="2"/>
<path style="fill:#333333;" d="M17,23c-3.309,0-6-2.691-6-6s2.691-6,6-6s6,2.691,6,6S20.309,23,17,23z M17,13c-2.206,0-4,1.794-4,4
	s1.794,4,4,4s4-1.794,4-4S19.206,13,17,13z"/>
<rect x="16" y="12.05" transform="matrix(0.7071 -0.7071 0.7071 0.7071 -7.0416 17)" style="fill:#333333;" width="2" height="9.899"/>
<path style="fill:#333333;" d="M13,17h-2c0-3.309,2.691-6,6-6v2C14.794,13,13,14.794,13,17z"/>
<path style="fill:#333333;" d="M17,23v-2c2.206,0,4-1.794,4-4h2C23,20.309,20.309,23,17,23z"/>
</svg>






