<?xml version="1.0" encoding="iso-8859-1"?>
<svg version="1.1" id="&#x56FE;&#x5C42;_1" xmlns="http://www.w3.org/2000/svg" xmlns:xlink="http://www.w3.org/1999/xlink" x="0px"
	 y="0px" viewBox="0 0 24 24" style="enable-background:new 0 0 24 24;" xml:space="preserve">
<path style="fill:#333333;" d="M20.5,22h-17c-1.103,0-2-0.897-2-2v-8h2v8h17v-8h2v8C22.5,21.103,21.603,22,20.5,22z"/>
<rect x="2.5" y="14.5" style="fill:#333333;" width="19" height="2"/>
<path style="fill:#333333;" d="M17,11.5h-2c0-1.654-1.346-3-3-3s-3,1.346-3,3H7c0-2.757,2.243-5,5-5S17,8.743,17,11.5z"/>
<rect x="11" y="3" style="fill:#333333;" width="2" height="1"/>
<rect x="16.854" y="4.354" transform="matrix(0.7071 -0.7071 0.7071 0.7071 1.2972 13.8388)" style="fill:#333333;" width="1" height="2"/>
<rect x="5.354" y="4.854" transform="matrix(0.7071 -0.7071 0.7071 0.7071 -1.9246 6.0606)" style="fill:#333333;" width="2" height="1"/>
</svg>






