<?xml version="1.0" encoding="iso-8859-1"?>
<svg version="1.1" id="&#x56FE;&#x5C42;_1" xmlns="http://www.w3.org/2000/svg" xmlns:xlink="http://www.w3.org/1999/xlink" x="0px"
	 y="0px" viewBox="0 0 24 24" style="enable-background:new 0 0 24 24;" xml:space="preserve">
<polygon style="fill:#333333;" points="22,8 20,8 20,4 16,4 16,2 22,2 "/>
<path style="fill:#333333;" d="M14.584,16.4l-0.832-1.9h-3.504l-0.832,1.9L7.584,15.6l1.094-2.5l0.916,0.4l-0.916-0.4l2.406-5.5
	h1.832l2.406,5.5l-0.916,0.4l0.916-0.4l1.094,2.5L14.584,16.4z M11.123,12.5h1.754L12,10.495L11.123,12.5z"/>
<polygon style="fill:#333333;" points="4,8 2,8 2,2 8,2 8,4 4,4 "/>
<polygon style="fill:#333333;" points="22,22 16,22 16,20 20,20 20,16 22,16 "/>
<polygon style="fill:#333333;" points="8,22 2,22 2,16 4,16 4,20 8,20 "/>
</svg>






