<?xml version="1.0" encoding="iso-8859-1"?>
<svg version="1.1" id="&#x56FE;&#x5C42;_1" xmlns="http://www.w3.org/2000/svg" xmlns:xlink="http://www.w3.org/1999/xlink" x="0px"
	 y="0px" viewBox="0 0 24 24" style="enable-background:new 0 0 24 24;" xml:space="preserve">
<path style="fill:#333333;" d="M12,13H4.5V1H12c3.3,0,5.984,2.691,5.984,6S15.3,13,12,13z M6.5,11H12c2.197,0,3.984-1.794,3.984-4
	S14.197,3,12,3H6.5V11z"/>
<path style="fill:#333333;" d="M14.016,23H4.5V11h9.516c3.3,0,5.984,2.691,5.984,6S17.315,23,14.016,23z M6.5,21h7.516
	C16.213,21,18,19.206,18,17s-1.787-4-3.984-4H6.5V21z"/>
</svg>






