<?xml version="1.0" encoding="iso-8859-1"?>
<svg version="1.1" id="&#x56FE;&#x5C42;_1" xmlns="http://www.w3.org/2000/svg" xmlns:xlink="http://www.w3.org/1999/xlink" x="0px"
	 y="0px" viewBox="0 0 24 24" style="enable-background:new 0 0 24 24;" xml:space="preserve">
<path style="fill:#333333;" d="M20,23H4c-1.654,0-3-1.346-3-3V4c0-1.654,1.346-3,3-3h16c1.654,0,3,1.346,3,3v16
	C23,21.654,21.654,23,20,23z M4,3C3.449,3,3,3.449,3,4v16c0,0.552,0.449,1,1,1h16c0.552,0,1-0.448,1-1V4c0-0.551-0.448-1-1-1H4z"/>
<rect x="5" y="6" style="fill:#333333;" width="2" height="4"/>
<rect x="13" y="14" style="fill:#333333;" width="2" height="4"/>
<rect x="9" y="6" style="fill:#333333;" width="2" height="4"/>
<rect x="14" y="5" style="fill:#333333;" width="4" height="2"/>
<rect x="6" y="13" style="fill:#333333;" width="4" height="2"/>
<rect x="14" y="9" style="fill:#333333;" width="4" height="2"/>
<rect x="6" y="17" style="fill:#333333;" width="4" height="2"/>
<rect x="17" y="14" style="fill:#333333;" width="2" height="4"/>
</svg>






