<?xml version="1.0" encoding="iso-8859-1"?>
<svg version="1.1" id="&#x56FE;&#x5C42;_1" xmlns="http://www.w3.org/2000/svg" xmlns:xlink="http://www.w3.org/1999/xlink" x="0px"
	 y="0px" viewBox="0 0 24 24" style="enable-background:new 0 0 24 24;" xml:space="preserve">
<path style="fill:#333333;" d="M12,23c-3.309,0-6-2.691-6-6c0-1.731,0.723-3.335,2-4.473V5c0-2.206,1.794-4,4-4c2.206,0,4,1.794,4,4
	v7.527c1.277,1.138,2,2.74,2,4.473C18,20.309,15.309,23,12,23z M12,3c-1.103,0-2,0.897-2,2v8.5l-0.399,0.3
	C8.583,14.563,8,15.73,8,17c0,2.206,1.794,4,4,4c2.206,0,4-1.794,4-4c0-1.271-0.583-2.437-1.601-3.2L14,13.5V5
	C14,3.897,13.103,3,12,3z"/>
<rect x="11" y="8.5" style="fill:#333333;" width="2" height="6.5"/>
<path style="fill:#333333;" d="M12,20c-1.654,0-3-1.346-3-3s1.346-3,3-3s3,1.346,3,3S13.654,20,12,20z M12,16c-0.551,0-1,0.448-1,1
	s0.449,1,1,1c0.552,0,1-0.448,1-1S12.552,16,12,16z"/>
</svg>






