<?xml version="1.0" encoding="iso-8859-1"?>
<svg version="1.1" id="&#x56FE;&#x5C42;_1" xmlns="http://www.w3.org/2000/svg" xmlns:xlink="http://www.w3.org/1999/xlink" x="0px"
	 y="0px" viewBox="0 0 24 24" style="enable-background:new 0 0 24 24;" xml:space="preserve">
<path style="fill:#333333;" d="M12,23c-3.033,0-5.5-2.468-5.5-5.5c0-1.889,0.943-3.604,2.5-4.611V5c0-2.654,1.009-4,3-4
	c1.99,0,3,1.346,3,4v7.889c1.557,1.009,2.5,2.724,2.5,4.611C17.5,20.532,15.032,23,12,23z M12,3c-0.691,0-1,0.289-1,2v9.088
	l-0.555,0.275C9.245,14.959,8.5,16.161,8.5,17.5c0,1.93,1.57,3.5,3.5,3.5s3.5-1.57,3.5-3.5c0-1.339-0.745-2.54-1.945-3.137
	L13,14.088V5C13,3.289,12.691,3,12,3z"/>
</svg>






