<?xml version="1.0" encoding="iso-8859-1"?>
<svg version="1.1" id="&#x56FE;&#x5C42;_1" xmlns="http://www.w3.org/2000/svg" xmlns:xlink="http://www.w3.org/1999/xlink" x="0px"
	 y="0px" viewBox="0 0 24 24" style="enable-background:new 0 0 24 24;" xml:space="preserve">
<path style="fill:#333333;" d="M16.5,13.5h-9c-0.742,0-2.123-0.085-3.03-0.652c-1.039-0.657-1.758-1.697-2.03-2.933
	C2.143,8.57,2.405,7.128,3.16,5.958l3.008-4.513l1.738,0.132c0.752,1.613,2.277,2.579,4.078,2.582c0.002,0,0.005,0,0.008,0
	c1.781,0,3.352-0.99,4.102-2.585l1.737-0.129l3,4.5c0.761,1.18,1.023,2.621,0.728,3.965c-0.271,1.237-0.99,2.278-2.023,2.935
	C18.635,13.415,17.247,13.5,16.5,13.5z M6.981,3.83L4.832,7.055C4.374,7.767,4.21,8.657,4.393,9.484
	c0.157,0.71,0.562,1.304,1.142,1.67C5.863,11.36,6.654,11.5,7.5,11.5h9c0.85,0,1.64-0.139,1.965-0.345
	c0.579-0.368,0.985-0.962,1.142-1.675c0.182-0.827,0.019-1.716-0.447-2.438l-2.143-3.215c-1.218,1.468-3.03,2.332-5.024,2.332
	c-0.004,0-0.008,0-0.012,0C9.995,6.156,8.191,5.292,6.981,3.83z"/>
<path style="fill:#333333;" d="M6.71,22.704l-1.42-1.408c0.966-0.974,1.35-2.419,1.001-3.771l-1.258-4.77l1.934-0.51l1.26,4.775
	C8.751,19.057,8.169,21.232,6.71,22.704z"/>
<path style="fill:#333333;" d="M17.29,22.704c-1.479-1.492-2.047-3.608-1.519-5.663l1.262-4.795l1.934,0.508l-1.26,4.79
	c-0.35,1.361,0.025,2.766,1.003,3.752L17.29,22.704z"/>
<rect x="11" y="20" style="fill:#333333;" width="2" height="1"/>
</svg>






