<?xml version="1.0" encoding="iso-8859-1"?>
<svg version="1.1" id="&#x56FE;&#x5C42;_1" xmlns="http://www.w3.org/2000/svg" xmlns:xlink="http://www.w3.org/1999/xlink" x="0px"
	 y="0px" viewBox="0 0 24 24" style="enable-background:new 0 0 24 24;" xml:space="preserve">
<path style="fill:#333333;" d="M14.867,22.5H5.674l-1.097-5.695C2.913,15.113,2,12.887,2,10.5c0-4.962,4.038-9,9-9
	c4.874,0,8.854,3.894,8.996,8.734l3.043,5.478L20,16.319V19.5l-2.664-0.014l-1.991-0.332L14.867,22.5z M7.326,20.5h5.807
	l0.522-3.654l3.928,0.654H18v-2.819l1.961-0.393L18,10.759V10.5c0-3.86-3.141-7-7-7c-3.86,0-7,3.14-7,7
	c0,1.942,0.777,3.747,2.188,5.084l0.233,0.221L7.326,20.5z"/>
<path style="fill:#333333;" d="M12,13.5h-2V11h1c0.827,0,1.5-0.673,1.5-1.5S11.827,8,11,8S9.5,8.673,9.5,9.5h-2
	C7.5,7.57,9.07,6,11,6s3.5,1.57,3.5,3.5c0,1.583-1.056,2.923-2.5,3.354V13.5z"/>
<rect x="10" y="16.5" style="fill:#333333;" width="2" height="0.5"/>
</svg>






