<?xml version="1.0" encoding="iso-8859-1"?>
<svg version="1.1" id="&#x56FE;&#x5C42;_1" xmlns="http://www.w3.org/2000/svg" xmlns:xlink="http://www.w3.org/1999/xlink" x="0px"
	 y="0px" viewBox="0 0 24 24" style="enable-background:new 0 0 24 24;" xml:space="preserve">
<path style="fill:none;" d="M8.5,3.5L12,9.562l2.995,5.188H2.005L8.5,3.5z"/>
<path style="fill:none;" d="M15.5,3.5l6.495,11.25H9.005L12,9.562L15.5,3.5z"/>
<path style="fill:none;" d="M5.505,20.75h12.99l-3.5-6h-5.99L5.505,20.75z"/>
<path style="fill:#333333;" d="M18.495,21.75H5.505l-0.864-1.504l2.623-4.496H0.273L8.5,1.5L12,7.562L15.5,1.5l8.228,14.25h-6.991
	l2.623,4.496L18.495,21.75z M7.246,19.75h9.508l-2.333-4H9.579L7.246,19.75z M15.572,13.75h4.69L15.5,5.5l-2.346,4.062L15.572,13.75
	z M10.737,13.75h2.526L12,11.562L10.737,13.75z M3.737,13.75h4.691l2.417-4.188L8.5,5.5L3.737,13.75z"/>
</svg>






