<?xml version="1.0" encoding="iso-8859-1"?>
<svg version="1.1" id="&#x56FE;&#x5C42;_1" xmlns="http://www.w3.org/2000/svg" xmlns:xlink="http://www.w3.org/1999/xlink" x="0px"
	 y="0px" viewBox="0 0 24 24" style="enable-background:new 0 0 24 24;" xml:space="preserve">
<path style="fill:#333333;" d="M11.5,23c-4.146,0-6.306-1.375-6.895-2.553l-0.014-0.028L2.488,15.86
	c-0.727-1.574-0.207-3.416,1.236-4.379l0.953-0.634c0.054-0.037,0.11-0.069,0.168-0.098L4.074,5.108
	c-0.077-0.569,0.07-1.133,0.413-1.59C4.77,3.14,5.185,2.894,5.654,2.827c0.47-0.066,0.935,0.052,1.314,0.336
	c0.434,0.326,0.707,0.7,0.856,1.132L8.14,5.21L8.041,3.673C7.998,3,8.247,2.339,8.724,1.862c0.686-0.686,1.772-0.746,2.529-0.14
	l0.17,0.136c0.485,0.388,0.807,0.94,0.906,1.554l0.235,1.456l0.129-1.332c0.064-0.667,0.402-1.291,0.927-1.711l0.105-0.084
	c0.768-0.617,1.874-0.554,2.571,0.144C16.75,2.335,17,2.938,17,3.58v6.312c0.087,0.354,0.355,1.006,0.816,1.159
	c0.555,0.185,1.15,0.74,2.256,2.847c0.521,0.994,0.496,2.188-0.064,3.197l-2.005,3.562C17.919,20.754,15.903,23,11.5,23z
	 M6.398,19.559C6.575,19.874,7.921,21,11.5,21c3.081,0,4.633-1.31,4.94-1.602l1.819-3.274c0.232-0.418,0.247-0.902,0.041-1.297
	c-0.737-1.405-1.108-1.815-1.209-1.911c-1.188-0.444-1.843-1.657-2.061-2.662L15,9.956V3.58c0-0.106-0.041-0.207-0.116-0.281
	l-0.016,0.087c-0.104,0.083-0.172,0.208-0.185,0.341l-0.664,6.862c-0.062,0.661-0.611,1.161-1.277,1.161
	c-0.637,0-1.17-0.456-1.269-1.084L10.355,3.73c-0.02-0.123-0.084-0.233-0.181-0.311l-0.09-0.072
	c-0.035,0.06-0.051,0.128-0.046,0.198l0.441,6.841c0.023,0.351-0.102,0.701-0.343,0.958C9.894,11.602,9.553,11.75,9.2,11.75
	c-0.545,0-1.032-0.346-1.21-0.862L6.16,5.604l0.831,6.073L5.577,12.59c0.074-0.01,0.145-0.036,0.209-0.078l-0.953,0.634
	c-0.618,0.413-0.841,1.202-0.529,1.877L6.398,19.559z M8.482,10.515c0,0,0,0.001,0,0.002V10.515z M12.029,10.396
	c0,0.001,0,0.003-0.001,0.004L12.029,10.396z M13.448,10.345l0.001,0.007C13.449,10.35,13.448,10.347,13.448,10.345z"/>
</svg>






