<?xml version="1.0" encoding="iso-8859-1"?>
<svg version="1.1" id="&#x56FE;&#x5C42;_1" xmlns="http://www.w3.org/2000/svg" xmlns:xlink="http://www.w3.org/1999/xlink" x="0px"
	 y="0px" viewBox="0 0 24 24" style="enable-background:new 0 0 24 24;" xml:space="preserve">
<rect x="9.8" y="16.25" style="fill:#333333;" width="4.4" height="2"/>
<polygon style="fill:#333333;" points="2.07,14.09 0.232,13.301 4.202,4.056 7.018,2.61 7.931,4.39 5.756,5.506 "/>
<polygon style="fill:#333333;" points="21.983,14.211 18.248,5.506 16.073,4.39 16.985,2.61 19.803,4.056 23.821,13.422 "/>
<path style="fill:#333333;" d="M8.895,21.55H2.164c-0.854,0-1.575-0.667-1.642-1.518l-0.464-5.855
	c-0.035-0.438,0.104-0.865,0.39-1.2c0.286-0.335,0.686-0.538,1.125-0.571L1.7,12.399h7.658c0.908,0,1.647,0.739,1.647,1.647
	L11,14.186l-0.462,5.848C10.469,20.884,9.748,21.55,8.895,21.55z M2.49,19.55h6.079l0.408-5.15H2.082L2.49,19.55z"/>
<path style="fill:#333333;" d="M21.836,21.55h-6.73c-0.852,0-1.573-0.665-1.643-1.515L13,14.177c-0.035-0.438,0.104-0.865,0.39-1.2
	s0.686-0.538,1.125-0.571l0.127-0.006H22.3c0.908,0,1.647,0.739,1.647,1.647l-0.004,0.109l-0.465,5.877
	C23.411,20.883,22.69,21.55,21.836,21.55z M15.431,19.55h6.08l0.407-5.15h-6.894L15.431,19.55z"/>
</svg>






