<?xml version="1.0" encoding="iso-8859-1"?>
<svg version="1.1" id="&#x56FE;&#x5C42;_1" xmlns="http://www.w3.org/2000/svg" xmlns:xlink="http://www.w3.org/1999/xlink" x="0px"
	 y="0px" viewBox="0 0 24 24" style="enable-background:new 0 0 24 24;" xml:space="preserve">
<path style="fill:#333333;" d="M12.872,23h-0.447c-2.953,0-5.682-1.475-7.299-3.944l-1.098-1.675
	c-1.054-1.609-0.742-3.761,0.727-5.003l0.996-0.842V3.625C5.75,2.178,6.928,1,8.375,1c0.479,0,0.928,0.129,1.314,0.354
	C10.17,0.829,10.86,0.5,11.625,0.5c0.766,0,1.455,0.329,1.936,0.854C13.947,1.129,14.396,1,14.875,1C16.322,1,17.5,2.178,17.5,3.625
	v4.7c0.2-0.049,0.41-0.075,0.625-0.075c1.447,0,2.625,1.178,2.625,2.625v5.109c0,1.03-0.308,2.025-0.89,2.875l-0.486,0.711
	C17.905,21.718,15.475,23,12.872,23z M8.375,3C8.03,3,7.75,3.28,7.75,3.625v8.105c0,0.466-0.204,0.905-0.56,1.207l-1.144,0.968
	c-0.699,0.591-0.847,1.614-0.346,2.38l1.098,1.675c1.247,1.903,3.35,3.04,5.626,3.04h0.447c1.941,0,3.755-0.957,4.852-2.559
	l0.486-0.711c0.354-0.517,0.54-1.12,0.54-1.746v-5.109c0-0.345-0.28-0.625-0.625-0.625S17.5,10.53,17.5,10.875h-2v-7.25
	C15.5,3.28,15.22,3,14.875,3S14.25,3.28,14.25,3.625h-2v-0.5c0-0.345-0.28-0.625-0.625-0.625S11,2.78,11,3.125v0.5H9
	C9,3.28,8.72,3,8.375,3z"/>
</svg>






