<?xml version="1.0" encoding="iso-8859-1"?>
<svg version="1.1" id="&#x56FE;&#x5C42;_1" xmlns="http://www.w3.org/2000/svg" xmlns:xlink="http://www.w3.org/1999/xlink" x="0px"
	 y="0px" viewBox="0 0 24 24" style="enable-background:new 0 0 24 24;" xml:space="preserve">
<path style="fill:#333333;" d="M13.539,22H12.89c-2.041,0-3.7-1.66-3.7-3.7v-2.6h-4.4c-0.827,0.003-1.593-0.342-2.133-0.963
	s-0.779-1.444-0.655-2.258l1.242-8.101C3.451,3.007,4.699,1.991,6.043,2h11.446v11.112L13.539,22z M10.189,13.7h1v4.6
	c0,0.726,0.458,1.347,1.099,1.591l3.201-7.202V4H6.032C5.593,3.964,5.279,4.288,5.22,4.68l-1.242,8.101
	c-0.035,0.231,0.033,0.466,0.188,0.644c0.155,0.178,0.386,0.247,0.613,0.275H10.189z"/>
<path style="fill:#333333;" d="M18.925,14c-0.017,0-0.033,0-0.05,0H15.49V2h3.402c1.532-0.044,2.88,1.119,3.089,2.666L21.99,4.8
	l-0.009,6.434C21.77,12.795,20.433,14,18.925,14z M17.49,12h1.402c0.005,0,0.01,0,0.016,0c0.507,0,0.981-0.439,1.082-0.978V4.878
	C19.894,4.365,19.45,3.96,18.91,4h-1.42V12z"/>
</svg>






