<?xml version="1.0" encoding="iso-8859-1"?>
<svg version="1.1" id="&#x56FE;&#x5C42;_1" xmlns="http://www.w3.org/2000/svg" xmlns:xlink="http://www.w3.org/1999/xlink" x="0px"
	 y="0px" viewBox="0 0 24 24" style="enable-background:new 0 0 24 24;" xml:space="preserve">
<path style="fill:#333333;" d="M17.978,22c-0.01,0-0.021,0-0.03,0H6.5V10.888L10.45,2h0.65c2.04,0,3.7,1.66,3.7,3.7v2.6h4.4
	c0.819,0.007,1.594,0.342,2.134,0.962c0.539,0.621,0.778,1.444,0.654,2.258l-1.242,8.101C20.541,20.981,19.354,22,17.978,22z
	 M8.5,20h9.458c0.395-0.019,0.751-0.288,0.811-0.68l1.243-8.102c0.035-0.231-0.033-0.467-0.188-0.645
	C19.672,10.4,19.452,10.3,19.221,10.3c-0.004,0-0.007,0-0.01,0H12.8V5.7c0-0.726-0.457-1.347-1.099-1.59L8.5,11.312V20z"/>
<path style="fill:#333333;" d="M5.043,22c-1.521,0.001-2.828-1.138-3.034-2.667L2,19.199l0.009-6.434
	C2.222,11.188,3.553,9.964,5.115,10H8.5v12H5.097C5.079,22,5.061,22,5.043,22z M4,19.121C4.096,19.635,4.535,19.977,5.08,20H6.5v-8
	H5.097C4.565,11.999,4.101,12.434,4,12.978V19.121z"/>
</svg>






