<?xml version="1.0" encoding="iso-8859-1"?>
<svg version="1.1" id="&#x56FE;&#x5C42;_1" xmlns="http://www.w3.org/2000/svg" xmlns:xlink="http://www.w3.org/1999/xlink" x="0px"
	 y="0px" viewBox="0 0 24 24" style="enable-background:new 0 0 24 24;" xml:space="preserve">
<path style="fill:#333333;" d="M18.5,21h-13c-0.992,0-1.847-0.73-2.079-1.776c-0.155-0.697-0.539-1.218-1.142-1.548
	C1.491,17.244,1,16.479,1,15.681V13c0-1.103,0.897-2,2-2h18c1.103,0,2,0.897,2,2v2.681c0,0.799-0.49,1.563-1.28,1.995
	c-0.602,0.33-0.985,0.851-1.14,1.548C20.347,20.27,19.491,21,18.5,21z M3,13v2.681c0.002,0.032,0.076,0.151,0.239,0.241
	c0.778,0.426,1.778,1.269,2.134,2.868c0.028,0.127,0.104,0.202,0.13,0.211L18.5,19c0.022-0.008,0.1-0.084,0.128-0.211
	c0.354-1.599,1.355-2.441,2.132-2.867c0.164-0.09,0.238-0.209,0.24-0.241V13H3z"/>
<rect x="7" y="14.5" style="fill:#333333;" width="10" height="2"/>
<polygon style="fill:#333333;" points="12.259,9.651 10.741,8.349 12.326,6.5 9.5,6.5 8.741,4.849 11.741,1.349 13.259,2.651 
	11.674,4.5 14.5,4.5 15.259,6.151 "/>
</svg>






