<?xml version="1.0" encoding="iso-8859-1"?>
<svg version="1.1" id="&#x56FE;&#x5C42;_1" xmlns="http://www.w3.org/2000/svg" xmlns:xlink="http://www.w3.org/1999/xlink" x="0px"
	 y="0px" viewBox="0 0 24 24" style="enable-background:new 0 0 24 24;" xml:space="preserve">
<path style="fill:#333333;" d="M11.021,22.154l-1.727-0.896l1.056-4.232l-3.149-0.451L9.525,9h5.592l0.833,1.554l-1.862,2.801
	l3.731,0.936L11.021,22.154z M9.799,14.926l3.028,0.434l-0.578,2.315l1.932-2.234l-3.327-0.834L13.252,11h-2.248L9.799,14.926z"/>
<path style="fill:#333333;" d="M19.679,16.914l-0.812-1.828C20.162,14.51,21,13.203,21,11.757c0-2-1.591-3.628-3.546-3.628
	c-0.561,0-1.098,0.13-1.596,0.387l-1.105,0.571l-0.319-1.203C13.75,5.302,11.44,3.5,8.818,3.5C5.61,3.5,3,6.166,3,9.442
	c0,1.89,0.851,3.625,2.334,4.761L4.12,15.791C2.137,14.274,1,11.961,1,9.442C1,5.063,4.507,1.5,8.818,1.5
	c3.159,0,5.979,1.936,7.191,4.823c0.47-0.128,0.957-0.194,1.444-0.194c3.058,0,5.546,2.525,5.546,5.628
	C23,13.992,21.696,16.017,19.679,16.914z"/>
</svg>






