<?xml version="1.0" encoding="iso-8859-1"?>
<svg version="1.1" id="&#x56FE;&#x5C42;_1" xmlns="http://www.w3.org/2000/svg" xmlns:xlink="http://www.w3.org/1999/xlink" x="0px"
	 y="0px" viewBox="0 0 24 24" style="enable-background:new 0 0 24 24;" xml:space="preserve">
<path style="fill:#333333;" d="M23,21H10.68l-0.161-0.804C10.483,20.029,10.104,18.5,8.5,18.5c-1.661,0-2.005,1.627-2.02,1.696
	L6.32,21H1V3h5.32L6.48,3.804C6.517,3.97,6.896,5.5,8.5,5.5c1.661,0,2.005-1.627,2.02-1.696L10.68,3H23V21z M12.222,19H21V5h-8.778
	C11.727,6.134,10.587,7.5,8.5,7.5S5.273,6.134,4.778,5H3v14h1.778c0.495-1.134,1.634-2.5,3.722-2.5S11.727,17.866,12.222,19z"/>
<rect x="7.5" y="9.5" style="fill:#333333;" width="2" height="1"/>
<rect x="7.5" y="13.5" style="fill:#333333;" width="2" height="1"/>
<rect x="12.5" y="9.5" style="fill:#333333;" width="5.5" height="2"/>
<rect x="12.5" y="12.5" style="fill:#333333;" width="5.5" height="2"/>
</svg>






