<?xml version="1.0" encoding="iso-8859-1"?>
<svg version="1.1" id="&#x56FE;&#x5C42;_1" xmlns="http://www.w3.org/2000/svg" xmlns:xlink="http://www.w3.org/1999/xlink" x="0px"
	 y="0px" viewBox="0 0 24 24" style="enable-background:new 0 0 24 24;" xml:space="preserve">
<polygon style="fill:#333333;" points="4.872,8.929 4.128,7.071 17.557,1.7 19.929,7.628 18.071,8.372 16.443,4.3 "/>
<path style="fill:#333333;" d="M23,21H1v-5h1c0.923,0,2-0.523,2-2s-1.077-2-2-2H1V7h22v5h-1c-0.804,0-2,0.466-2,1.75
	c0,1.246,1.094,2.25,2,2.25h1V21z M3,19h18v-1.153c-1.664-0.512-3-2.234-3-4.097c0-2.017,1.413-3.265,3-3.634V9H3v1.117
	C4.61,10.5,6,11.818,6,14c0,2.183-1.39,3.5-3,3.883V19z"/>
<rect x="8.5" y="11.692" style="fill:#333333;" width="3" height="2"/>
<rect x="8.5" y="14.692" style="fill:#333333;" width="7" height="2"/>
</svg>






