<?xml version="1.0" encoding="iso-8859-1"?>
<svg version="1.1" id="&#x56FE;&#x5C42;_1" xmlns="http://www.w3.org/2000/svg" xmlns:xlink="http://www.w3.org/1999/xlink" x="0px"
	 y="0px" viewBox="0 0 24 24" style="enable-background:new 0 0 24 24;" xml:space="preserve">
<path style="fill:#333333;" d="M21.5,18h-5v-1c0-0.491-0.562-1-1.5-1v-2c1.552,0,2.838,0.823,3.308,2H19.5V3h-1.2
	c-0.481,1.164-1.778,2-3.3,2s-2.818-0.836-3.3-2h-1.2v6h-2V1h5v1c0,0.409,0.534,1,1.5,1s1.5-0.591,1.5-1V1h5V18z"/>
<path style="fill:#333333;" d="M16,23h-5v-1c0-0.491-0.561-1-1.5-1S8,21.509,8,22v1H3V6h5v1c0,0.409,0.534,1,1.5,1S11,7.409,11,7V6
	h5V23z M12.808,21H14V8h-1.2c-0.481,1.164-1.779,2-3.3,2S6.682,9.164,6.2,8H5v13h1.192c0.471-1.177,1.756-2,3.308-2
	S12.338,19.823,12.808,21z"/>
<circle style="fill:#333333;" cx="7" cy="12" r="1"/>
<circle style="fill:#333333;" cx="9.5" cy="12" r="1"/>
<circle style="fill:#333333;" cx="12" cy="12" r="1"/>
</svg>






