<?xml version="1.0" encoding="iso-8859-1"?>
<svg version="1.1" id="&#x56FE;&#x5C42;_1" xmlns="http://www.w3.org/2000/svg" xmlns:xlink="http://www.w3.org/1999/xlink" x="0px"
	 y="0px" viewBox="0 0 24 24" style="enable-background:new 0 0 24 24;" xml:space="preserve">
<path style="fill:#333333;" d="M16.593,23h-3.77c-2.511,0-4.904-1.205-6.399-3.223l-2.133-2.88
	c-0.603-0.812-0.656-1.898-0.135-2.769c0.399-0.664,1.068-1.099,1.835-1.193c0.345-0.041,0.687-0.014,1.008,0.08V8
	c0-1.378,1.122-2.5,2.5-2.5S12,6.622,12,8v0.053C12.166,8.018,12.337,8,12.513,8c1.386,0,2.514,1.127,2.514,2.513v0.998
	c0.847-0.168,1.767,0.152,2.325,0.767C17.694,12.101,18.083,12,18.494,12c1.374,0,2.493,1.117,2.495,2.491l0.006,4.101
	c0.002,1.177-0.455,2.283-1.287,3.116S17.77,23,16.593,23z M6.299,14.917c-0.024,0-0.045,0.001-0.063,0.004
	c-0.09,0.011-0.256,0.057-0.365,0.236c-0.103,0.172-0.093,0.389,0.026,0.55l2.133,2.88C9.151,20.098,10.942,21,12.823,21h3.77
	c0.643,0,1.246-0.25,1.7-0.705c0.454-0.454,0.703-1.059,0.702-1.7l-0.006-4.102c0-0.271-0.223-0.493-0.495-0.493
	S18,14.222,18,14.494V15h-2v-1.051c0-0.269-0.219-0.486-0.487-0.486s-0.486,0.218-0.486,0.486V14.5h-2v-3.987
	c0-0.283-0.23-0.513-0.514-0.513C12.23,10,12,10.23,12,10.513v3.424h-2V8c0-0.276-0.224-0.5-0.5-0.5S9,7.724,9,8v7l-1.708,0.707
	l-0.645-0.646C6.529,14.942,6.395,14.917,6.299,14.917z"/>
<rect x="15" y="2" style="fill:#333333;" width="2" height="4"/>
<path style="fill:#333333;" d="M22,11h-8V9h6V8.831c-0.431-0.15-0.826-0.395-1.148-0.72c-0.549-0.555-0.847-1.308-0.839-2.121
	C18.028,4.552,18.926,3.559,20,3.175V3H4v0.175C5.074,3.558,5.972,4.552,5.987,5.99C5.995,6.802,5.698,7.555,5.148,8.11
	C4.827,8.435,4.431,8.681,4,8.831V9h4v2H2V7h1c0.271,0,0.543-0.111,0.727-0.296c0.176-0.178,0.263-0.411,0.26-0.693
	C3.979,5.269,3.393,5,3,5H2V1h20v4h-1c-0.393,0-0.979,0.269-0.987,1.011c-0.003,0.282,0.085,0.515,0.261,0.693
	C20.457,6.889,20.729,7,21,7h1V11z"/>
</svg>






