<?xml version="1.0" encoding="iso-8859-1"?>
<svg version="1.1" id="&#x56FE;&#x5C42;_1" xmlns="http://www.w3.org/2000/svg" xmlns:xlink="http://www.w3.org/1999/xlink" x="0px"
	 y="0px" viewBox="0 0 24 24" style="enable-background:new 0 0 24 24;" xml:space="preserve">
<path style="fill:#333333;" d="M20.5,22h-17c-1.103,0-2-0.897-2-2V9c0-1.103,0.897-2,2-2h17c1.103,0,2,0.897,2,2v11
	C22.5,21.103,21.603,22,20.5,22z M3.5,9v11.001L20.5,20V9H3.5z"/>
<polygon style="fill:#333333;" points="4.932,8.902 4.068,7.098 16.488,1.158 19.41,7.586 17.59,8.414 15.512,3.842 "/>
<circle style="fill:#333333;" cx="6.5" cy="11.5" r="1"/>
<circle style="fill:#333333;" cx="6.5" cy="14.5" r="1"/>
<circle style="fill:#333333;" cx="6.5" cy="17.5" r="1"/>
<polygon style="fill:#333333;" points="12.939,18.5 10.5,18.5 10.5,16.5 12.061,16.5 17.263,10.824 18.737,12.176 "/>
<rect x="12" y="13.5" style="fill:#333333;" width="3" height="2"/>
</svg>






