<?xml version="1.0" encoding="iso-8859-1"?>
<svg version="1.1" id="&#x56FE;&#x5C42;_1" xmlns="http://www.w3.org/2000/svg" xmlns:xlink="http://www.w3.org/1999/xlink" x="0px"
	 y="0px" viewBox="0 0 24 24" style="enable-background:new 0 0 24 24;" xml:space="preserve">
<path style="fill:#333333;" d="M4,22H2V7.5c0-0.891,0.461-2.637,2.082-4.139l-0.6-0.721L4.25,1c0.999,0,2.958,0.322,4.367,1.484
	c1.799,0.028,4.551,0.65,5.592,2.306C14.554,5.339,15,6.485,14.114,8.004C13.218,9.35,11.624,9.5,10.5,9.5v-2
	c1.548,0,1.816-0.403,1.918-0.555c0.376-0.647,0.181-0.958,0.098-1.09c-0.588-0.936-2.91-1.458-4.186-1.358L7.87,4.534L7.543,4.207
	c-0.186-0.186-0.398-0.345-0.624-0.48L6.073,4.319C4.373,5.51,4,7.019,4,7.5V22z"/>
<path style="fill:#333333;" d="M17.636,22.228c-1.052,0-1.724-0.385-2.118-0.735C14.871,20.916,14.5,20.008,14.5,19
	c0-3.897-3.549-6-5-6v-2c2.376,0,7,2.823,7,8c0,0.161,0.025,0.711,0.348,0.998c0.223,0.198,0.59,0.27,1.104,0.21
	c1.189-0.139,2.088-1.032,2.598-2.583l1.9,0.625c-0.749,2.278-2.304,3.716-4.267,3.944C17.99,22.217,17.808,22.228,17.636,22.228z"
	/>
<path style="fill:#333333;" d="M9.5,22h-2c0-2.659,1.576-5.5,6-5.5H15v2h-1.5C10.194,18.5,9.5,20.403,9.5,22z"/>
</svg>






