<?xml version="1.0" encoding="iso-8859-1"?>
<svg version="1.1" id="&#x56FE;&#x5C42;_1" xmlns="http://www.w3.org/2000/svg" xmlns:xlink="http://www.w3.org/1999/xlink" x="0px"
	 y="0px" viewBox="0 0 24 24" style="enable-background:new 0 0 24 24;" xml:space="preserve">
<path style="fill:#333333;" d="M9.989,22.583c-2.699,0-4.866-1.115-6.104-3.14c-1.274-2.085-1.369-4.971-0.237-7.181
	c1.339-2.612,3.715-3.851,7.079-3.692l0.759,0.037c0.001-1.733,0.003-3.795,0.007-6.192l0.001-0.999h5.556l0.001,0.999
	c0.001,0.52,0.001,0.931-0.028,1.25h0.028c0,1.019,1.237,1.866,1.969,2.206c0.472,0.219,1.052,0.371,1.725,0.453l0.88,0.106v5.049
	l-0.922,0.073c-0.247,0.017-0.645,0.005-1.872-0.226c-0.583-0.11-1.221-0.333-1.926-0.677v4.795
	C16.905,18.097,15.448,22.583,9.989,22.583z M9.679,10.571c-2.019,0.115-3.414,0.973-4.25,2.604
	c-0.827,1.613-0.761,3.714,0.164,5.226c0.873,1.428,2.393,2.183,4.397,2.183c4.679,0,4.916-4.279,4.916-5.138V8.938l1.535-0.845
	c1.116,0.707,2.045,1.134,2.76,1.268c0.159,0.03,0.3,0.055,0.425,0.077V8.163c-0.529-0.116-1.014-0.276-1.447-0.477
	c-0.521-0.242-3.126-1.576-3.126-4.02v-0.25h-1.56c-0.01,7.239-0.01,11.28,0.001,12.015c0.013,0.975-0.419,2.026-1.128,2.744
	c-0.69,0.699-1.588,1.069-2.598,1.069c-2.441,0-3.741-2.14-3.741-3.684c0-1.212,0.559-2.33,1.533-3.066
	c0.541-0.409,1.202-0.642,2.12-0.732V10.571z M10.679,13.719c-0.983,0-1.573,0.114-1.914,0.372c-0.643,0.485-0.739,1.13-0.739,1.471
	c0,0.432,0.429,1.684,1.741,1.684c0.469,0,0.864-0.159,1.174-0.474c0.388-0.394,0.557-0.942,0.552-1.312
	c-0.003-0.245-0.006-0.822-0.007-1.74H10.679z"/>
</svg>






