<?xml version="1.0" encoding="iso-8859-1"?>
<svg version="1.1" id="&#x56FE;&#x5C42;_1" xmlns="http://www.w3.org/2000/svg" xmlns:xlink="http://www.w3.org/1999/xlink" x="0px"
	 y="0px" viewBox="0 0 24 24" style="enable-background:new 0 0 24 24;" xml:space="preserve">
<path style="fill:#333333;" d="M12,23c-4.962,0-9-4.037-9-9c0-4.962,4.038-9,9-9c4.963,0,9,4.038,9,9C21,18.963,16.963,23,12,23z
	 M12,7c-3.86,0-7,3.14-7,7c0,3.859,3.14,7,7,7c3.859,0,7-3.141,7-7C19,10.14,15.859,7,12,7z"/>
<rect x="10" y="1" style="fill:#333333;" width="4" height="2"/>
<rect x="11" y="2" style="fill:#333333;" width="2" height="4"/>
<rect x="17.189" y="6.25" transform="matrix(0.7071 -0.7071 0.7071 0.7071 0.2188 15.0282)" style="fill:#333333;" width="2.121" height="2"/>
<rect x="11" y="11" style="fill:#333333;" width="2" height="3"/>
<rect x="9" y="13" style="fill:#333333;" width="3" height="2"/>
</svg>






