<?xml version="1.0" encoding="iso-8859-1"?>
<svg version="1.1" id="&#x56FE;&#x5C42;_1" xmlns="http://www.w3.org/2000/svg" xmlns:xlink="http://www.w3.org/1999/xlink" x="0px"
	 y="0px" viewBox="0 0 24 24" style="enable-background:new 0 0 24 24;" xml:space="preserve">
<polygon style="fill:#333333;" points="13,19.5 1,19.5 1,3.5 23,3.5 23,17.5 21,17.5 21,5.5 3,5.5 3,17.5 13,17.5 "/>
<path style="fill:#333333;" d="M17.5,23c-3.032,0-5.5-2.468-5.5-5.5s2.468-5.5,5.5-5.5s5.5,2.468,5.5,5.5S20.532,23,17.5,23z
	 M17.5,14c-1.93,0-3.5,1.57-3.5,3.5s1.57,3.5,3.5,3.5s3.5-1.57,3.5-3.5S19.43,14,17.5,14z"/>
<polygon style="fill:#333333;" points="19,19 16,19 16,16 18,16 18,17 19,17 "/>
<polygon style="fill:#333333;" points="12,12.192 1.455,5.338 2.545,3.662 12,9.807 21.455,3.662 22.545,5.338 "/>
</svg>






