<?xml version="1.0" encoding="iso-8859-1"?>
<svg version="1.1" id="&#x56FE;&#x5C42;_1" xmlns="http://www.w3.org/2000/svg" xmlns:xlink="http://www.w3.org/1999/xlink" x="0px"
	 y="0px" viewBox="0 0 24 24" style="enable-background:new 0 0 24 24;" xml:space="preserve">
<path style="fill:#333333;" d="M12,6C4.67,6,1.427,2.842,1.293,2.707l1.409-1.419C2.73,1.315,5.565,4,12,4
	c6.435,0,9.27-2.685,9.298-2.712l1.409,1.419C22.572,2.842,19.33,6,12,6z"/>
<rect x="11" y="5" style="fill:#333333;" width="2" height="3"/>
<path style="fill:#333333;" d="M15,23c-2.804,0-5-3.514-5-8c0-4.486,2.196-8,5-8s5,3.514,5,8C20,19.486,17.804,23,15,23z M15,9
	c-1.419,0-3,2.464-3,6s1.581,6,3,6s3-2.464,3-6S16.419,9,15,9z"/>
<path style="fill:#333333;" d="M15,19c-1.448,0-2.5-1.683-2.5-4s1.052-4,2.5-4s2.5,1.683,2.5,4S16.448,19,15,19z M15,13.059
	c-0.194,0.229-0.5,0.904-0.5,1.941s0.306,1.713,0.5,1.941c0.194-0.229,0.5-0.904,0.5-1.941S15.194,13.287,15,13.059z"/>
<path style="fill:#333333;" d="M9,23c-2.804,0-5-3.514-5-8c0-4.486,2.196-8,5-8v2c-1.419,0-3,2.464-3,6s1.581,6,3,6V23z"/>
<rect x="9" y="7" style="fill:#333333;" width="6" height="2"/>
<rect x="9" y="21" style="fill:#333333;" width="6" height="2"/>
<rect x="5" y="13.5" style="fill:#333333;" width="6" height="2"/>
<rect x="6" y="10" style="fill:#333333;" width="5.5" height="2"/>
<rect x="6" y="17.5" style="fill:#333333;" width="5.5" height="2"/>
</svg>






