<?xml version="1.0" encoding="iso-8859-1"?>
<svg version="1.1" id="&#x56FE;&#x5C42;_1" xmlns="http://www.w3.org/2000/svg" xmlns:xlink="http://www.w3.org/1999/xlink" x="0px"
	 y="0px" viewBox="0 0 24 24" style="enable-background:new 0 0 24 24;" xml:space="preserve">
<path style="fill:#333333;" d="M14.999,12H9V4h6V12z M11,10h2V6h-2V10z"/>
<polygon style="fill:#333333;" points="19.698,23 4.3,23 7.626,17.015 9.374,17.985 7.7,21 16.3,21 14.626,17.985 16.374,17.015 "/>
<path style="fill:#333333;" d="M17.999,11h-2V3H8v8H6V2.5C6,1.673,6.672,1,7.5,1h9c0.827,0,1.5,0.673,1.5,1.5V11z"/>
<path style="fill:#333333;" d="M12,19c-1.27,0-2.706-0.258-4.27-0.767c-2.801-0.914-4.919-3.469-5.667-6.834
	c-0.076-0.342,0.006-0.694,0.225-0.968C2.508,10.157,2.835,10,3.186,10h17.627c0.35,0,0.676,0.156,0.895,0.428
	c0.22,0.273,0.303,0.625,0.228,0.968c-0.749,3.371-2.867,5.925-5.667,6.837C14.706,18.742,13.271,19,12,19z M4.308,12
	c0.744,2.147,2.205,3.732,4.042,4.331C9.713,16.775,10.941,17,12,17c1.06,0,2.287-0.225,3.649-0.669
	c1.836-0.598,3.297-2.183,4.041-4.331H4.308z M4.016,10.963l0,0.002c0,0,0,0,0,0.001C4.016,10.965,4.016,10.964,4.016,10.963z"/>
</svg>






