<?xml version="1.0" encoding="iso-8859-1"?>
<svg version="1.1" id="&#x56FE;&#x5C42;_1" xmlns="http://www.w3.org/2000/svg" xmlns:xlink="http://www.w3.org/1999/xlink" x="0px"
	 y="0px" viewBox="0 0 24 24" style="enable-background:new 0 0 24 24;" xml:space="preserve">
<path style="fill:#333333;" d="M18.5,21.5h-13C4.122,21.5,3,20.379,3,19v-6.5h2V19c0,0.275,0.224,0.5,0.5,0.5h13
	c0.275,0,0.5-0.225,0.5-0.5v-6.5h2V19C21,20.379,19.879,21.5,18.5,21.5z"/>
<path style="fill:#333333;" d="M20.5,13.5h-17c-1.103,0-2-0.897-2-2v-4c0-1.103,0.897-2,2-2h17c1.103,0,2,0.897,2,2v4
	C22.5,12.603,21.603,13.5,20.5,13.5z M3.5,7.5v4h17v-4H3.5z"/>
<path style="fill:#333333;" d="M16.5,6.5h-2v-2h-5v2h-2v-2c0-1.103,0.897-2,2-2h5c1.103,0,2,0.897,2,2V6.5z"/>
<rect x="6.5" y="11.5" style="fill:#333333;" width="2" height="3"/>
<rect x="15.5" y="11.5" style="fill:#333333;" width="2" height="3"/>
</svg>






