<?xml version="1.0" encoding="iso-8859-1"?>
<svg version="1.1" id="&#x56FE;&#x5C42;_1" xmlns="http://www.w3.org/2000/svg" xmlns:xlink="http://www.w3.org/1999/xlink" x="0px"
	 y="0px" viewBox="0 0 24 24" style="enable-background:new 0 0 24 24;" xml:space="preserve">
<path style="fill:#333333;" d="M4.5,23.414L0.586,19.5l8.91-8.91C9.17,9.77,9,8.887,9,8c0-3.86,3.141-7,7-7
	c1.139,0,2.271,0.28,3.273,0.811l1.197,0.633L16.414,6.5L17.5,7.586l4.056-4.055l0.634,1.196C22.72,5.728,23,6.86,23,8
	c0,3.86-3.141,7-7,7c-0.888,0-1.77-0.17-2.59-0.495L4.5,23.414z M3.414,19.5L4.5,20.586l8.51-8.51l0.652,0.346
	C14.387,12.806,15.174,13,16,13c2.757,0,5-2.243,5-5c0-0.332-0.033-0.663-0.099-0.987L17.5,10.414L13.586,6.5l3.403-3.403
	C16.667,3.032,16.337,3,16,3c-2.757,0-5,2.243-5,5c0,0.814,0.2,1.623,0.579,2.337l0.346,0.653L3.414,19.5z"/>
</svg>






