<?xml version="1.0" encoding="iso-8859-1"?>
<svg version="1.1" id="&#x56FE;&#x5C42;_1" xmlns="http://www.w3.org/2000/svg" xmlns:xlink="http://www.w3.org/1999/xlink" x="0px"
	 y="0px" viewBox="0 0 24 24" style="enable-background:new 0 0 24 24;" xml:space="preserve">
<path style="fill:#333333;" d="M12.72,21.319c-0.106,0-0.214-0.011-0.32-0.034L7.857,20.32c-0.394-0.083-0.734-0.316-0.955-0.655
	c-0.221-0.34-0.297-0.746-0.212-1.143L8.52,9.908L4.955,9.15C4.138,8.976,3.614,8.17,3.787,7.353l0.966-4.544
	C4.927,1.991,5.735,1.47,6.551,1.64l14.642,3.113c0.815,0.173,1.34,0.979,1.168,1.795l-0.966,4.546
	c-0.176,0.818-0.986,1.342-1.799,1.168l-3.565-0.758l-1.831,8.614c-0.083,0.395-0.316,0.734-0.656,0.955
	C13.294,21.235,13.01,21.319,12.72,21.319z M12.242,19.702c0,0.001,0,0.002,0,0.003V19.702z M8.747,18.464l3.596,0.765l1.885-8.864
	c0.153-0.712,0.797-1.115,1.529-0.963l3.781,0.804l0.765-3.597L6.608,3.697L5.844,7.295l3.817,0.811
	c0.713,0.152,1.121,0.779,0.97,1.491L8.747,18.464z M8.271,18.363h0.002C8.272,18.363,8.271,18.363,8.271,18.363z"/>
</svg>






