<?xml version="1.0" encoding="iso-8859-1"?>
<svg version="1.1" id="&#x56FE;&#x5C42;_1" xmlns="http://www.w3.org/2000/svg" xmlns:xlink="http://www.w3.org/1999/xlink" x="0px"
	 y="0px" viewBox="0 0 24 24" style="enable-background:new 0 0 24 24;" xml:space="preserve">
<path style="fill:#333333;" d="M12,23c-1.459,0-2.876-0.281-4.211-0.835c-0.577-0.239-1.139-0.531-1.673-0.87
	c-0.28,0.034-1.015,0.167-2.852,0.67l-1.229-1.229c0.502-1.837,0.635-2.573,0.669-2.853c-0.337-0.531-0.629-1.093-0.87-1.673
	C1.281,14.874,1,13.457,1,12C1,5.935,5.935,1,12,1s11,4.935,11,11S18.065,23,12,23z M6.3,19.282c0.361,0,0.526,0.086,0.699,0.201
	c0.494,0.33,1.017,0.61,1.556,0.834C9.646,20.771,10.806,21,12,21c4.963,0,9-4.037,9-9c0-4.962-4.037-9-9-9c-4.962,0-9,4.038-9,9
	c0,1.193,0.229,2.353,0.683,3.445c0.225,0.542,0.505,1.065,0.833,1.554c0.232,0.348,0.346,0.665-0.12,2.605
	C5.37,19.37,5.935,19.282,6.3,19.282z"/>
<rect x="8.302" y="8.91" style="fill:#333333;" width="8.39" height="2"/>
<rect x="6" y="11" transform="matrix(0.1738 -0.9848 0.9848 0.1738 -3.3945 19.9539)" style="fill:#333333;" width="8.389" height="2"/>
<rect x="9.501" y="11" transform="matrix(0.1739 -0.9848 0.9848 0.1739 -0.503 23.4004)" style="fill:#333333;" width="8.389" height="1.999"/>
<rect x="7.302" y="13" style="fill:#333333;" width="8.39" height="2"/>
</svg>






