<?xml version="1.0" encoding="iso-8859-1"?>
<svg version="1.1" id="&#x56FE;&#x5C42;_1" xmlns="http://www.w3.org/2000/svg" xmlns:xlink="http://www.w3.org/1999/xlink" x="0px"
	 y="0px" viewBox="0 0 24 24" style="enable-background:new 0 0 24 24;" xml:space="preserve">
<path style="fill:#333333;" d="M13.5,23h-3l-1-1v-5l1-1h3l1,1v5L13.5,23z M11.5,21h1v-3h-1V21z"/>
<path style="fill:#333333;" d="M15.5,18h-7l-0.937-0.648l-1.5-4L7,12h10l0.937,1.352l-1.5,4L15.5,18z M9.193,16h5.614l0.75-2H8.443
	L9.193,16z"/>
<path style="fill:#333333;" d="M13.5,14h-4c-1.813,0-3.18-1.457-3.18-3.39c0-1.447,1.752-5.006,2.289-6.063l1.794,0.022
	c0,0.001,0.038,0.08,0.102,0.212c0.999-1.762,2.129-3.292,2.193-3.377l1.678,0.112c0.552,0.997,3.305,6.074,3.305,8.1
	C17.68,12.115,15.883,14,13.5,14z M9.517,7.278C8.854,8.746,8.32,10.141,8.32,10.61C8.32,11.302,8.685,12,9.5,12h4
	c1.263,0,2.18-1.003,2.18-2.385c0-0.9-1.173-3.518-2.292-5.699c-0.633,0.956-1.451,2.285-1.97,3.481L9.614,7.463
	C9.582,7.401,9.549,7.339,9.517,7.278z"/>
</svg>






