<?xml version="1.0" encoding="iso-8859-1"?>
<svg version="1.1" id="&#x56FE;&#x5C42;_1" xmlns="http://www.w3.org/2000/svg" xmlns:xlink="http://www.w3.org/1999/xlink" x="0px"
	 y="0px" viewBox="0 0 24 24" style="enable-background:new 0 0 24 24;" xml:space="preserve">
<path style="fill:#333333;" d="M18.5,19h-13c-1.103,0-2-0.897-2-2v-6.5h17V17C20.5,18.103,19.603,19,18.5,19z M5.5,12.5V17h13v-4.5
	H5.5z"/>
<path style="fill:#333333;" d="M20.5,12.5h-17V4c0-1.103,0.897-2,2-2h13c1.103,0,2,0.897,2,2V12.5z M5.5,10.5h13V4h-13V10.5z"/>
<path style="fill:#333333;" d="M7.5,22C6.122,22,5,20.879,5,19.5V17h5v2.5C10,20.879,8.878,22,7.5,22z M7,19v0.5
	C7,19.775,7.224,20,7.5,20S8,19.775,8,19.5V19H7z"/>
<path style="fill:#333333;" d="M16.5,22c-1.379,0-2.5-1.121-2.5-2.5V17h5v2.5C19,20.879,17.879,22,16.5,22z M16,19v0.5
	c0,0.275,0.225,0.5,0.5,0.5s0.5-0.225,0.5-0.5V19H16z"/>
<rect x="2" y="6" style="fill:#333333;" width="2" height="2"/>
<rect x="20" y="6" style="fill:#333333;" width="2" height="2"/>
<circle style="fill:#333333;" cx="7.5" cy="15" r="1"/>
<circle style="fill:#333333;" cx="16.5" cy="15" r="1"/>
<rect x="9.887" y="4.5" transform="matrix(0.669 -0.7432 0.7432 0.669 0.2977 11.6684)" style="fill:#333333;" width="6.727" height="2"/>
<rect x="15.797" y="4" transform="matrix(0.64 -0.7684 0.7684 0.64 2.5482 15.4388)" style="fill:#333333;" width="3.905" height="2"/>
</svg>






