<?xml version="1.0" encoding="iso-8859-1"?>
<svg version="1.1" id="&#x56FE;&#x5C42;_1" xmlns="http://www.w3.org/2000/svg" xmlns:xlink="http://www.w3.org/1999/xlink" x="0px"
	 y="0px" viewBox="0 0 24 24" style="enable-background:new 0 0 24 24;" xml:space="preserve">
<polygon style="fill:#333333;" points="11,7.25 9,7.25 9,1 15,1 15,6.75 13,6.75 13,3 11,3 "/>
<polygon style="fill:#333333;" points="8,12.5 6,12.5 6,6.847 18,5.369 18,11.5 16,11.5 16,7.631 8,8.615 "/>
<polygon style="fill:#333333;" points="6.5,17.5 4.5,17.5 4.5,12.108 19.5,10.378 19.5,16 17.5,16 17.5,12.622 6.5,13.892 "/>
<path style="fill:#333333;" d="M21,23H3v-5.883l18-2.25V23z M5,21h14v-3.867l-14,1.75V21z"/>
</svg>






