<?xml version="1.0" encoding="iso-8859-1"?>
<svg version="1.1" id="&#x56FE;&#x5C42;_1" xmlns="http://www.w3.org/2000/svg" xmlns:xlink="http://www.w3.org/1999/xlink" x="0px"
	 y="0px" viewBox="0 0 24 24" style="enable-background:new 0 0 24 24;" xml:space="preserve">
<g>
	<defs>
		<rect id="SVGID_1_" width="24" height="24"/>
	</defs>
	<clipPath id="SVGID_00000103954177556148994010000015690906066926369440_">
		<use xlink:href="#SVGID_1_"  style="overflow:visible;"/>
	</clipPath>
	<g style="clip-path:url(#SVGID_00000103954177556148994010000015690906066926369440_);">
		<rect x="2" y="21" style="fill:#333333;" width="20" height="2"/>
		<path style="fill:#333333;" d="M14.767,23H4.181L9.929,2.516l9.649,2.585L14.767,23z M6.819,21h6.414l3.894-14.485l-5.806-1.556
			L6.819,21z"/>
		
			<rect x="13.489" y="-0.228" transform="matrix(0.2588 -0.9659 0.9659 0.2588 6.1284 17.5322)" style="fill:#333333;" width="2" height="10"/>
		
			<rect x="11.935" y="5.568" transform="matrix(0.2588 -0.9659 0.9659 0.2588 -0.621 20.3269)" style="fill:#333333;" width="2" height="10"/>
		
			<rect x="12" y="8.5" transform="matrix(0.2588 -0.9659 0.9659 0.2588 0.4591 19.5983)" style="fill:#333333;" width="2" height="2"/>
		
			<rect x="10.382" y="11.364" transform="matrix(0.2589 -0.9659 0.9659 0.2589 -7.3703 23.1217)" style="fill:#333333;" width="2" height="10"/>
		
			<rect x="10.5" y="14" transform="matrix(0.2588 -0.9659 0.9659 0.2588 -5.9653 22.2259)" style="fill:#333333;" width="2" height="2"/>
		<path style="fill:#333333;" d="M16.553,6.308c-0.131,0-0.263-0.017-0.392-0.052l-3.863-1.035
			c-0.798-0.213-1.274-1.037-1.061-1.836l0.259-0.966c0.103-0.387,0.352-0.71,0.699-0.911c0.347-0.201,0.751-0.253,1.139-0.149
			l3.862,1.035c0.387,0.103,0.711,0.351,0.911,0.698c0.201,0.347,0.254,0.751,0.15,1.138l-0.26,0.967
			c-0.104,0.386-0.352,0.709-0.698,0.91C17.069,6.24,16.812,6.308,16.553,6.308z"/>
		
			<rect x="9" y="19.5" transform="matrix(0.2588 -0.9659 0.9659 0.2588 -12.3897 24.8535)" style="fill:#333333;" width="2" height="2"/>
	</g>
</g>
</svg>






