<?xml version="1.0" encoding="iso-8859-1"?>
<svg version="1.1" id="&#x56FE;&#x5C42;_1" xmlns="http://www.w3.org/2000/svg" xmlns:xlink="http://www.w3.org/1999/xlink" x="0px"
	 y="0px" viewBox="0 0 24 24" style="enable-background:new 0 0 24 24;" xml:space="preserve">
<path style="fill:#333333;" d="M18,14H2l-1-1V9l1-1h16l1,1v4L18,14z M3,12h14v-2H3V12z"/>
<path style="fill:#333333;" d="M20,23H8c-1.654,0-3-1.346-3-3v-1H4c-1.654,0-3-1.346-3-3V4c0-1.654,1.346-3,3-3h16
	c1.654,0,3,1.346,3,3v16C23,21.654,21.654,23,20,23z M7,19v1c0,0.552,0.449,1,1,1h12c0.552,0,1-0.448,1-1V4c0-0.551-0.448-1-1-1H4
	C3.449,3,3,3.449,3,4v12c0,0.552,0.449,1,1,1h12c0.552,0,1-0.448,1-1V6h2v10c0,1.654-1.346,3-3,3H7z"/>
</svg>






