<?xml version="1.0" encoding="iso-8859-1"?>
<svg version="1.1" id="&#x56FE;&#x5C42;_1" xmlns="http://www.w3.org/2000/svg" xmlns:xlink="http://www.w3.org/1999/xlink" x="0px"
	 y="0px" viewBox="0 0 24 24" style="enable-background:new 0 0 24 24;" xml:space="preserve">
<path style="fill:#333333;" d="M17.972,23H7.002v-2.549c-0.112-0.07-0.223-0.144-0.335-0.219c-0.571-0.383-1.106-0.822-1.592-1.308
	C3.092,16.941,2,14.304,2,11.5C2,5.71,6.71,1,12.5,1C18.29,1,23,5.71,23,11.5c0,2.804-1.092,5.44-3.075,7.425
	c-0.485,0.485-1.02,0.925-1.59,1.307c-0.116,0.077-0.232,0.152-0.352,0.225c0.001,0.657-0.005,1.551-0.005,1.551L17.972,23z
	 M9.002,21h6.981c0.002-0.445,0.002-0.911-0.004-1.087l-0.021-0.623l0.55-0.293c0.246-0.131,0.484-0.275,0.715-0.429
	c0.46-0.309,0.894-0.665,1.287-1.058C20.116,15.904,21,13.77,21,11.5C21,6.813,17.187,3,12.5,3C7.813,3,4,6.813,4,11.5
	c0,2.27,0.884,4.404,2.49,6.011c0.394,0.394,0.827,0.75,1.288,1.059c0.229,0.152,0.45,0.298,0.695,0.429l0.529,0.282V21z"/>
<path style="fill:#333333;" d="M9,14.5c-1.654,0-3-1.346-3-3s1.346-3,3-3h0.414L12,11.086V11.5C12,13.154,10.654,14.5,9,14.5z
	 M8.649,10.563C8.271,10.706,8,11.072,8,11.5c0,0.552,0.449,1,1,1c0.428,0,0.794-0.271,0.937-0.649L8.649,10.563z"/>
<path style="fill:#333333;" d="M16,14.5c-1.654,0-3-1.346-3-3v-0.414L15.586,8.5H16c1.654,0,3,1.346,3,3S17.654,14.5,16,14.5z
	 M15.063,11.851C15.206,12.229,15.572,12.5,16,12.5c0.552,0,1-0.448,1-1c0-0.428-0.271-0.794-0.649-0.937L15.063,11.851z"/>
<polygon style="fill:#333333;" points="11.714,17.699 10.286,16.301 12.441,14.098 14.688,16.222 13.312,17.675 12.496,16.902 "/>
</svg>






