<?xml version="1.0" encoding="iso-8859-1"?>
<svg version="1.1" id="&#x56FE;&#x5C42;_1" xmlns="http://www.w3.org/2000/svg" xmlns:xlink="http://www.w3.org/1999/xlink" x="0px"
	 y="0px" viewBox="0 0 24 24" style="enable-background:new 0 0 24 24;" xml:space="preserve">
<path style="fill:#333333;" d="M12,22C6.486,22,2,17.514,2,12C2,6.486,6.486,2,12,2v2c-4.411,0-8,3.589-8,8s3.589,8,8,8s8-3.589,8-8
	h2C22,17.514,17.514,22,12,22z"/>
<path style="fill:#333333;" d="M12,17.5c-3.033,0-5.5-2.468-5.5-5.5c0-3.033,2.467-5.5,5.5-5.5v2c-1.93,0-3.5,1.57-3.5,3.5
	s1.57,3.5,3.5,3.5s3.5-1.57,3.5-3.5h2C17.5,15.032,15.032,17.5,12,17.5z"/>
<rect x="11.346" y="9.424" transform="matrix(0.707 -0.7072 0.7072 0.707 -3.3942 12.655)" style="fill:#333333;" width="4.457" height="2"/>
<path style="fill:#333333;" d="M18.729,9.85h-4.579V5.3l2.993-3.006L18.852,3v2.15H21l0.709,1.706L18.729,9.85z M16.149,7.85h1.747
	l0.697-0.7h-1.742V5.421l-0.702,0.705V7.85z"/>
</svg>






