<?xml version="1.0" encoding="iso-8859-1"?>
<svg version="1.1" id="&#x56FE;&#x5C42;_1" xmlns="http://www.w3.org/2000/svg" xmlns:xlink="http://www.w3.org/1999/xlink" x="0px"
	 y="0px" viewBox="0 0 24 24" style="enable-background:new 0 0 24 24;" xml:space="preserve">
<path style="fill:#333333;" d="M15.947,22.5H8.151l-0.115-0.869c-0.141-1.061-0.306-1.478-0.376-1.616C3.609,18.292,1,14.378,1,10V9
	h22v1c0,4.408-2.744,8.436-6.854,10.094c-0.053,0.168-0.143,0.572-0.169,1.437L15.947,22.5z M9.879,20.5h4.161
	c0.111-1.025,0.4-1.895,1.184-2.192c3.138-1.19,5.34-4.053,5.719-7.308H3.056c0.361,3.198,2.44,5.969,5.501,7.222
	C9.212,18.49,9.616,19.17,9.879,20.5z"/>
<path style="fill:#333333;" d="M8.399,16.83c-0.494-0.376-0.917-0.794-1.259-1.24c-0.368-0.48-0.662-1.082-0.876-1.788l1.914-0.58
	c0.144,0.476,0.329,0.864,0.55,1.153c0.234,0.305,0.53,0.596,0.882,0.863L8.399,16.83z"/>
<path style="fill:#333333;" d="M13.508,10.449l-1.8-0.872c1.875-3.872,2.978-6.154,3.307-6.847c0.719-1.514,2.311-2.108,3.868-1.441
	c0.712,0.303,1.277,0.904,1.554,1.648c0.27,0.728,0.24,1.519-0.081,2.171c-0.255,0.517-1.119,2.294-2.593,5.331l-1.799-0.873
	c1.476-3.043,2.342-4.823,2.598-5.341c0.078-0.159,0.078-0.381-0.001-0.593c-0.05-0.136-0.178-0.382-0.463-0.504
	c-0.327-0.142-0.931-0.268-1.276,0.459C16.492,4.282,15.387,6.569,13.508,10.449z"/>
</svg>






