<?xml version="1.0" encoding="iso-8859-1"?>
<svg version="1.1" id="&#x56FE;&#x5C42;_1" xmlns="http://www.w3.org/2000/svg" xmlns:xlink="http://www.w3.org/1999/xlink" x="0px"
	 y="0px" viewBox="0 0 24 24" style="enable-background:new 0 0 24 24;" xml:space="preserve">
<path style="fill:#333333;" d="M18.5,20h-13c-1.103,0-2-0.897-2-2V4.419c0-0.87,0.455-1.638,1.188-2.005C5.74,1.886,8.09,1,12,1
	c3.91,0,6.26,0.886,7.312,1.414C20.045,2.781,20.5,3.549,20.5,4.419V18C20.5,19.103,19.603,20,18.5,20z M12,3
	C8.502,3,6.479,3.753,5.584,4.202C5.526,4.23,5.5,4.332,5.5,4.419V18h13V4.419c0-0.087-0.026-0.189-0.084-0.218
	C17.521,3.753,15.498,3,12,3z"/>
<rect x="16" y="19" style="fill:#333333;" width="2" height="2"/>
<rect x="6" y="19" style="fill:#333333;" width="2" height="2"/>
<g>
	<path style="fill:#333333;" d="M10.25,16c0,0.414-0.336,0.75-0.75,0.75S8.75,16.414,8.75,16s0.336-0.75,0.75-0.75
		S10.25,15.586,10.25,16z"/>
	<path style="fill:#333333;" d="M9.5,17c-0.551,0-1-0.448-1-1s0.449-1,1-1s1,0.448,1,1S10.051,17,9.5,17z M9.5,15.5
		C9.224,15.5,9,15.725,9,16s0.224,0.5,0.5,0.5S10,16.275,10,16S9.776,15.5,9.5,15.5z"/>
</g>
<g>
	<path style="fill:#333333;" d="M15.25,16c0,0.414-0.336,0.75-0.75,0.75s-0.75-0.336-0.75-0.75s0.336-0.75,0.75-0.75
		S15.25,15.586,15.25,16z"/>
	<path style="fill:#333333;" d="M14.5,17c-0.552,0-1-0.448-1-1s0.448-1,1-1s1,0.448,1,1S15.052,17,14.5,17z M14.5,15.5
		c-0.275,0-0.5,0.225-0.5,0.5s0.225,0.5,0.5,0.5S15,16.275,15,16S14.775,15.5,14.5,15.5z"/>
</g>
<rect x="10" y="21" style="fill:#333333;" width="4" height="2"/>
<path style="fill:#333333;" d="M20.5,14h-17V5h17V14z M5.5,12h13V7h-13V12z"/>
<rect x="11" y="6" style="fill:#333333;" width="2" height="7"/>
<rect x="10" y="5" style="fill:#333333;" width="4" height="2"/>
<rect x="10" y="12" style="fill:#333333;" width="4" height="2"/>
</svg>






