<?xml version="1.0" encoding="iso-8859-1"?>
<svg version="1.1" id="&#x56FE;&#x5C42;_1" xmlns="http://www.w3.org/2000/svg" xmlns:xlink="http://www.w3.org/1999/xlink" x="0px"
	 y="0px" viewBox="0 0 24 24" style="enable-background:new 0 0 24 24;" xml:space="preserve">
<path style="fill:#333333;" d="M20.5,16h-11C8.122,16,7,14.879,7,13.5v-6C7,6.122,8.122,5,9.5,5h11C21.879,5,23,6.122,23,7.5v6
	C23,14.879,21.879,16,20.5,16z M9.5,7C9.224,7,9,7.224,9,7.5v6C9,13.775,9.224,14,9.5,14h11c0.275,0,0.5-0.225,0.5-0.5v-6
	C21,7.224,20.775,7,20.5,7H9.5z"/>
<rect x="11" y="9" style="fill:#333333;" width="2" height="3"/>
<rect x="17" y="9" style="fill:#333333;" width="2" height="3"/>
<polygon style="fill:#333333;" points="19,6 17,6 17,4 13,4 13,6 11,6 11,2 19,2 "/>
<path style="fill:#333333;" d="M22,19H6c-1.103,0-2-0.897-2-2V5.5H2v-2h2c1.103,0,2,0.897,2,2V17h16V19z"/>
<path style="fill:#333333;" d="M9.5,22C8.122,22,7,20.879,7,19.5V17h5v2.5C12,20.879,10.878,22,9.5,22z M9,19v0.5
	C9,19.775,9.224,20,9.5,20s0.5-0.225,0.5-0.5V19H9z"/>
<path style="fill:#333333;" d="M18.5,22c-1.379,0-2.5-1.121-2.5-2.5V17h5v2.5C21,20.879,19.879,22,18.5,22z M18,19v0.5
	c0,0.275,0.225,0.5,0.5,0.5s0.5-0.225,0.5-0.5V19H18z"/>
</svg>






