<?xml version="1.0" encoding="iso-8859-1"?>
<svg version="1.1" id="&#x56FE;&#x5C42;_1" xmlns="http://www.w3.org/2000/svg" xmlns:xlink="http://www.w3.org/1999/xlink" x="0px"
	 y="0px" viewBox="0 0 24 24" style="enable-background:new 0 0 24 24;" xml:space="preserve">
<path style="fill:#333333;" d="M18.5,23h-13c-1.103,0-2-0.897-2-2V5c0-1.103,0.897-2,2-2h13c1.103,0,2,0.897,2,2v16
	C20.5,22.103,19.603,23,18.5,23z M5.5,5H5.499L5.5,21h13V5H5.5z"/>
<rect x="8" y="2" style="fill:#333333;" width="2" height="3"/>
<rect x="14" y="2" style="fill:#333333;" width="2" height="3"/>
<rect x="8" y="8.5" style="fill:#333333;" width="8" height="2"/>
<rect x="8" y="12.5" style="fill:#333333;" width="6" height="2"/>
<rect x="8" y="16.5" style="fill:#333333;" width="4" height="2"/>
</svg>






