<?xml version="1.0" encoding="iso-8859-1"?>
<svg version="1.1" id="&#x56FE;&#x5C42;_1" xmlns="http://www.w3.org/2000/svg" xmlns:xlink="http://www.w3.org/1999/xlink" x="0px"
	 y="0px" viewBox="0 0 24 24" style="enable-background:new 0 0 24 24;" xml:space="preserve">
<path style="fill:#333333;" d="M20.091,21.416L19.215,19.5h-4.43l-0.876,1.916l-1.818-0.832l1.14-2.493l2.854-6.493h1.83
	l3.994,8.986L20.091,21.416z M15.675,17.5h2.65L17,14.485L15.675,17.5z"/>
<rect x="7.25" y="2.959" transform="matrix(0.9487 -0.3162 0.3162 0.9487 -0.7625 2.8013)" style="fill:#333333;" width="2" height="1.581"/>
<rect x="3" y="4.5" style="fill:#333333;" width="11" height="2"/>
<path style="fill:#333333;" d="M13.643,16.934c-0.154-0.059-3.798-1.466-6.125-3.275c-2.467-1.917-3.439-5.243-3.479-5.383
	l1.922-0.551c0.008,0.028,0.842,2.846,2.785,4.355c2.09,1.626,5.578,2.974,5.613,2.987L13.643,16.934z"/>
<path style="fill:#333333;" d="M3.449,16.894L2.55,15.106c0.035-0.018,3.514-1.782,5.604-3.915c2.004-2.044,2.861-5.867,2.869-5.905
	l1.955,0.426c-0.039,0.179-0.984,4.418-3.396,6.878C7.256,14.965,3.604,16.815,3.449,16.894z"/>
</svg>






