<?xml version="1.0" encoding="iso-8859-1"?>
<svg version="1.1" id="&#x56FE;&#x5C42;_1" xmlns="http://www.w3.org/2000/svg" xmlns:xlink="http://www.w3.org/1999/xlink" x="0px"
	 y="0px" viewBox="0 0 24 24" style="enable-background:new 0 0 24 24;" xml:space="preserve">
<path style="fill:#333333;" d="M21,18H10c-1.103,0-2-0.897-2-2V5c0-1.103,0.897-2,2-2h11c1.103,0,2,0.897,2,2v11
	C23,17.103,22.103,18,21,18z M10,5v11h11V5H10z"/>
<path style="fill:#333333;" d="M10,18H1v-5.207L5.109,9H10V18z M3,16h5v-5H5.891L3,13.668V16z"/>
<path style="fill:#333333;" d="M7,21c-1.654,0-3-1.346-3-3h2c0,0.552,0.449,1,1,1s1-0.448,1-1h2C10,19.654,8.654,21,7,21z"/>
<path style="fill:#333333;" d="M18,21c-1.654,0-3-1.346-3-3h2c0,0.552,0.448,1,1,1s1-0.448,1-1h2C21,19.654,19.654,21,18,21z"/>
</svg>






