<?xml version="1.0" encoding="iso-8859-1"?>
<svg version="1.1" id="&#x56FE;&#x5C42;_1" xmlns="http://www.w3.org/2000/svg" xmlns:xlink="http://www.w3.org/1999/xlink" x="0px"
	 y="0px" viewBox="0 0 24 24" style="enable-background:new 0 0 24 24;" xml:space="preserve">
<path style="fill:#333333;" d="M15.248,22c-2.344,0-4.251-1.928-4.251-4.297l0.006-11.132C11.003,5.153,9.993,4,8.751,4
	S6.5,5.153,6.5,6.571v7.625h-2V6.571C4.5,4.051,6.407,2,8.751,2s4.251,2.051,4.251,4.571l-0.006,11.133
	c0,1.266,1.01,2.296,2.251,2.296c1.242,0,2.252-1.03,2.252-2.297v-3.507h2v3.507C19.5,20.072,17.593,22,15.248,22z"/>
<polygon style="fill:#333333;" points="20.793,16.207 18.5,13.914 16.207,16.207 14.793,14.793 18.5,11.086 22.207,14.793 "/>
<path style="fill:#333333;" d="M18.5,10.686l-0.537-0.342c-0.354-0.226-3.463-2.282-3.463-4.98c0-1.025,0.434-2.027,1.188-2.748
	c1.506-1.439,4.117-1.439,5.623,0C22.066,3.337,22.5,4.338,22.5,5.364c0,2.698-3.108,4.754-3.463,4.98L18.5,10.686z M18.5,3.5
	c-0.535,0-1.057,0.205-1.431,0.562C16.702,4.413,16.5,4.875,16.5,5.364c0,1.086,1.182,2.256,1.998,2.904
	c0.818-0.65,2.002-1.825,2.002-2.904c0-0.489-0.202-0.951-0.569-1.302C19.557,3.705,19.035,3.5,18.5,3.5z"/>
<path style="fill:#333333;" d="M5.5,22.686l-0.537-0.342C4.608,22.118,1.5,20.062,1.5,17.363c0-1.025,0.433-2.027,1.188-2.748
	c1.507-1.438,4.116-1.438,5.623,0C9.067,15.336,9.5,16.338,9.5,17.363c0,2.698-3.108,4.755-3.463,4.98L5.5,22.686z M5.5,15.5
	c-0.535,0-1.056,0.205-1.431,0.562C3.702,16.412,3.5,16.875,3.5,17.363c0,1.079,1.182,2.253,2,2.903c0.818-0.65,2-1.824,2-2.903
	c0-0.488-0.202-0.951-0.569-1.301C6.556,15.705,6.035,15.5,5.5,15.5z"/>
<circle style="fill:#333333;" cx="18.5" cy="5.5" r="1"/>
<circle style="fill:#333333;" cx="5.5" cy="17.5" r="1"/>
</svg>






