<?xml version="1.0" encoding="iso-8859-1"?>
<svg version="1.1" id="&#x56FE;&#x5C42;_1" xmlns="http://www.w3.org/2000/svg" xmlns:xlink="http://www.w3.org/1999/xlink" x="0px"
	 y="0px" viewBox="0 0 24 24" style="enable-background:new 0 0 24 24;" xml:space="preserve">
<path style="fill:#333333;" d="M21,23H3c-1.103,0-2-0.897-2-2V3c0-1.103,0.897-2,2-2h18c1.103,0,2,0.897,2,2v18
	C23,22.103,22.103,23,21,23z M3,3v18h18V3H3z"/>
<rect x="2" y="11" style="fill:#333333;" width="6.5" height="2"/>
<rect x="15.5" y="11" style="fill:#333333;" width="6.5" height="2"/>
<path style="fill:#333333;" d="M12,16.5c-2.481,0-4.5-2.019-4.5-4.5S9.519,7.5,12,7.5s4.5,2.019,4.5,4.5S14.481,16.5,12,16.5z
	 M12,9.5c-1.378,0-2.5,1.122-2.5,2.5c0,1.379,1.122,2.5,2.5,2.5c1.379,0,2.5-1.121,2.5-2.5C14.5,10.622,13.379,9.5,12,9.5z"/>
</svg>






