<?xml version="1.0" encoding="iso-8859-1"?>
<svg version="1.1" id="&#x56FE;&#x5C42;_1" xmlns="http://www.w3.org/2000/svg" xmlns:xlink="http://www.w3.org/1999/xlink" x="0px"
	 y="0px" viewBox="0 0 24 24" style="enable-background:new 0 0 24 24;" xml:space="preserve">
<path style="fill:#333333;" d="M19.875,23H4.655C2.64,23,1,21.36,1,19.345v-2.71c0-0.574,0.247-1.121,0.677-1.501
	c0.43-0.381,1.003-0.559,1.571-0.486l17.01,2.125C21.822,16.972,23,18.306,23,19.875C23,21.598,21.598,23,19.875,23z M3.001,16.632
	L3,19.345C3,20.258,3.742,21,4.655,21h15.22C20.495,21,21,20.495,21,19.875c0-0.565-0.427-1.046-0.991-1.118L3.001,16.632z"/>
<polygon style="fill:#333333;" points="7.081,16.394 1.081,2.394 2,1 5.215,1 5.215,3 3.517,3 8.919,15.606 "/>
<rect x="2" y="12.5" transform="matrix(0.5998 -0.8001 0.8001 0.5998 -9.0008 9.0026)" style="fill:#333333;" width="5" height="1.999"/>
<rect x="4.5" y="6.5" style="fill:#333333;" width="8" height="2"/>
</svg>






