<?xml version="1.0" encoding="iso-8859-1"?>
<svg version="1.1" id="&#x56FE;&#x5C42;_1" xmlns="http://www.w3.org/2000/svg" xmlns:xlink="http://www.w3.org/1999/xlink" x="0px"
	 y="0px" viewBox="0 0 24 24" style="enable-background:new 0 0 24 24;" xml:space="preserve">
<path style="fill:#333333;" d="M15,8c-1.93,0-3.5-1.57-3.5-3.5S13.07,1,15,1s3.5,1.57,3.5,3.5S16.93,8,15,8z M15,3
	c-0.827,0-1.5,0.673-1.5,1.5S14.173,6,15,6s1.5-0.673,1.5-1.5S15.827,3,15,3z"/>
<polygon style="fill:#333333;" points="14.538,19.274 13.621,16.063 10.349,13.259 10.105,12.053 11.109,10.046 8.693,9.141 
	6.14,11.268 4.86,9.732 7.86,7.232 8.851,7.063 12.852,8.563 13.395,9.947 12.243,12.249 15.15,14.741 15.462,15.226 16.462,18.726 
	"/>
<polygon style="fill:#333333;" points="8.376,17.492 4.376,16.992 4.624,15.008 7.99,15.429 10.152,11.97 11.848,13.03 9.348,17.03 
	"/>
<polygon style="fill:#333333;" points="20,23 3,23 3,21 19.351,21 21.086,17.094 22.914,17.906 20.914,22.406 "/>
<polygon style="fill:#333333;" points="16.816,12.948 15.97,12.848 11.97,10.348 13.03,8.652 16.631,10.902 19.184,10.051 
	19.816,11.949 "/>
</svg>






