<?xml version="1.0" encoding="iso-8859-1"?>
<svg version="1.1" id="&#x56FE;&#x5C42;_1" xmlns="http://www.w3.org/2000/svg" xmlns:xlink="http://www.w3.org/1999/xlink" x="0px"
	 y="0px" viewBox="0 0 24 24" style="enable-background:new 0 0 24 24;" xml:space="preserve">
<rect x="3" y="19.5" style="fill:#333333;" width="2" height="2.5"/>
<rect x="19" y="19.5" style="fill:#333333;" width="2" height="2.5"/>
<polygon style="fill:#333333;" points="18.937,15.852 17.063,15.148 19.884,7.628 18.168,5.055 19.832,3.945 22.116,7.372 "/>
<rect x="15.464" y="3.5" transform="matrix(0.7071 -0.7071 0.7071 0.7071 2.383 14.753)" style="fill:#333333;" width="7.071" height="2"/>
<path style="fill:#333333;" d="M20,20.5H4c-1.654,0-3-1.346-3-3s1.346-3,3-3h16c1.654,0,3,1.346,3,3S21.654,20.5,20,20.5z M4,16.5
	c-0.551,0-1,0.448-1,1s0.449,1,1,1h16c0.552,0,1-0.448,1-1s-0.448-1-1-1H4z"/>
</svg>






