<?xml version="1.0" encoding="iso-8859-1"?>
<svg version="1.1" id="&#x56FE;&#x5C42;_1" xmlns="http://www.w3.org/2000/svg" xmlns:xlink="http://www.w3.org/1999/xlink" x="0px"
	 y="0px" viewBox="0 0 24 24" style="enable-background:new 0 0 24 24;" xml:space="preserve">
<path style="fill:#333333;" d="M12,19c-4.687,0-8.5-4.037-8.5-9c0-4.962,3.813-9,8.5-9c4.687,0,8.5,4.038,8.5,9
	C20.5,14.963,16.687,19,12,19z M12,3c-3.584,0-6.5,3.14-6.5,7c0,3.859,2.916,7,6.5,7s6.5-3.141,6.5-7C18.5,6.14,15.584,3,12,3z"/>
<rect x="11" y="7" style="fill:#333333;" width="2" height="11"/>
<path style="fill:#333333;" d="M12,19c-1.191,0-2.343-0.256-3.423-0.76l0.846-1.812c1.627,0.76,3.527,0.76,5.154,0l0.846,1.812
	C14.342,18.744,13.19,19,12,19z"/>
<rect x="11" y="18" style="fill:#333333;" width="2" height="4"/>
<rect x="11.379" y="8.5" transform="matrix(0.7071 -0.7071 0.7071 0.7071 -2.7635 12.3284)" style="fill:#333333;" width="4.243" height="2"/>
<rect x="9.5" y="10.879" transform="matrix(0.7071 -0.7071 0.7071 0.7071 -6.117 11.2322)" style="fill:#333333;" width="2" height="4.243"/>
</svg>






