<?xml version="1.0" encoding="iso-8859-1"?>
<svg version="1.1" id="&#x56FE;&#x5C42;_1" xmlns="http://www.w3.org/2000/svg" xmlns:xlink="http://www.w3.org/1999/xlink" x="0px"
	 y="0px" viewBox="0 0 24 24" style="enable-background:new 0 0 24 24;" xml:space="preserve">
<path style="fill:#333333;" d="M17.5,17h-11C3.467,17,1,14.532,1,11.5c0-2.747,2.023-5.029,4.658-5.436C6.311,3.125,8.903,1,12,1
	c3.098,0,5.69,2.126,6.343,5.067C20.985,6.481,23,8.76,23,11.5C23,14.532,20.532,17,17.5,17z M6.5,8C4.57,8,3,9.57,3,11.5
	S4.57,15,6.5,15h11c1.93,0,3.5-1.57,3.5-3.5S19.43,8,17.5,8h-0.914l-0.104-0.91C16.271,4.758,14.345,3,12,3S7.729,4.758,7.519,7.09
	L7.437,8H6.5z"/>
<rect x="11.482" y="11.75" transform="matrix(0.7071 -0.7071 0.7071 0.7071 -5.1348 13.1036)" style="fill:#333333;" width="3.536" height="2"/>
<rect x="9.5" y="8.879" transform="matrix(0.7071 -0.7071 0.7071 0.7071 -4.7028 10.6464)" style="fill:#333333;" width="2" height="4.243"/>
<rect x="11" y="9" style="fill:#333333;" width="2" height="13"/>
</svg>






