<?xml version="1.0" encoding="iso-8859-1"?>
<svg version="1.1" id="&#x56FE;&#x5C42;_1" xmlns="http://www.w3.org/2000/svg" xmlns:xlink="http://www.w3.org/1999/xlink" x="0px"
	 y="0px" viewBox="0 0 24 24" style="enable-background:new 0 0 24 24;" xml:space="preserve">
<path style="fill:#333333;" d="M5,15c-1.654,0-3-1.346-3-3s1.346-3,3-3s3,1.346,3,3S6.654,15,5,15z M5,11c-0.551,0-1,0.449-1,1
	c0,0.552,0.449,1,1,1s1-0.448,1-1C6,11.449,5.551,11,5,11z"/>
<path style="fill:#333333;" d="M19,8c-1.654,0-3-1.346-3-3s1.346-3,3-3s3,1.346,3,3S20.654,8,19,8z M19,4c-0.552,0-1,0.449-1,1
	s0.448,1,1,1s1-0.449,1-1S19.552,4,19,4z"/>
<path style="fill:#333333;" d="M19,15c-1.654,0-3-1.346-3-3s1.346-3,3-3s3,1.346,3,3S20.654,15,19,15z M19,11c-0.552,0-1,0.449-1,1
	c0,0.552,0.448,1,1,1s1-0.448,1-1C20,11.449,19.552,11,19,11z"/>
<path style="fill:#333333;" d="M19,22c-1.654,0-3-1.346-3-3s1.346-3,3-3s3,1.346,3,3S20.654,22,19,22z M19,18c-0.552,0-1,0.448-1,1
	s0.448,1,1,1s1-0.448,1-1S19.552,18,19,18z"/>
<polygon style="fill:#333333;" points="17,20 10,20 10,4 17,4 17,6 12,6 12,18 17,18 "/>
<rect x="7" y="11" style="fill:#333333;" width="10" height="2"/>
</svg>






