<?xml version="1.0" encoding="iso-8859-1"?>
<svg version="1.1" id="&#x56FE;&#x5C42;_1" xmlns="http://www.w3.org/2000/svg" xmlns:xlink="http://www.w3.org/1999/xlink" x="0px"
	 y="0px" viewBox="0 0 24 24" style="enable-background:new 0 0 24 24;" xml:space="preserve">
<path style="fill:#333333;" d="M11,22.5H2v-9h9V22.5z M4,20.5h5v-5H4V20.5z"/>
<path style="fill:#333333;" d="M17,11.5H7L6.138,9.993L12,0.028l5.862,9.965L17,11.5z M8.749,9.5h6.503L12,3.972L8.749,9.5z"/>
<path style="fill:#333333;" d="M18,23c-2.757,0-5-2.243-5-5s2.243-5,5-5s5,2.243,5,5S20.757,23,18,23z M18,15c-1.654,0-3,1.346-3,3
	s1.346,3,3,3s3-1.346,3-3S19.654,15,18,15z"/>
</svg>






