<?xml version="1.0" encoding="iso-8859-1"?>
<svg version="1.1" id="&#x56FE;&#x5C42;_1" xmlns="http://www.w3.org/2000/svg" xmlns:xlink="http://www.w3.org/1999/xlink" x="0px"
	 y="0px" viewBox="0 0 24 24" style="enable-background:new 0 0 24 24;" xml:space="preserve">
<path style="fill:#333333;" d="M22,23H1V2l1.707-0.707l20,20L22,23z M3,21h16.586L3,4.414V21z"/>
<path style="fill:none;" d="M6.5,17.5h6l-6-6V17.5z"/>
<path style="fill:none;" d="M6.5,17.5h6l-6-6V17.5z"/>
<path style="fill:none;" d="M6.5,17.5h6l-6-6V17.5z"/>
<path style="fill:none;" d="M6.5,17.5h6l-6-6V17.5z"/>
<path style="fill:#333333;" d="M12.5,18.5h-7v-7l1.707-0.707l6,6L12.5,18.5z M7.5,16.5h2.586L7.5,13.914V16.5z"/>
<path style="fill:#333333;" d="M12.5,18.5h-7v-7l1.707-0.707l6,6L12.5,18.5z M7.5,16.5h2.586L7.5,13.914V16.5z"/>
<path style="fill:#333333;" d="M12.5,18.5h-7v-7l1.707-0.707l6,6L12.5,18.5z M7.5,16.5h2.586L7.5,13.914V16.5z"/>
<path style="fill:#333333;" d="M12.5,18.5h-7v-7l1.707-0.707l6,6L12.5,18.5z M7.5,16.5h2.586L7.5,13.914V16.5z"/>
<rect x="14" y="20.5" style="fill:#333333;" width="2" height="1.5"/>
<rect x="11" y="20.5" style="fill:#333333;" width="2" height="1.5"/>
<rect x="8" y="20.5" style="fill:#333333;" width="2" height="1.5"/>
<rect x="5" y="20.5" style="fill:#333333;" width="2" height="1.5"/>
<rect x="2" y="17" style="fill:#333333;" width="1.5" height="2"/>
<rect x="2" y="14" style="fill:#333333;" width="1.5" height="2"/>
<rect x="2" y="11" style="fill:#333333;" width="1.5" height="2"/>
<rect x="2" y="8" style="fill:#333333;" width="1.5" height="2"/>
</svg>






