<?xml version="1.0" encoding="iso-8859-1"?>
<svg version="1.1" id="&#x56FE;&#x5C42;_1" xmlns="http://www.w3.org/2000/svg" xmlns:xlink="http://www.w3.org/1999/xlink" x="0px"
	 y="0px" viewBox="0 0 24 24" style="enable-background:new 0 0 24 24;" xml:space="preserve">
<path style="fill:#333333;" d="M6,20.5c-1.654,0-3-1.346-3-3s1.346-3,3-3s3,1.346,3,3S7.654,20.5,6,20.5z M6,16.5
	c-0.551,0-1,0.448-1,1s0.449,1,1,1s1-0.448,1-1S6.551,16.5,6,16.5z"/>
<path style="fill:#333333;" d="M17.5,20.5c-1.654,0-3-1.346-3-3s1.346-3,3-3s3,1.346,3,3S19.154,20.5,17.5,20.5z M17.5,16.5
	c-0.552,0-1,0.448-1,1s0.448,1,1,1s1-0.448,1-1S18.052,16.5,17.5,16.5z"/>
<polygon style="fill:#333333;" points="16.5,18.5 8,18.5 8,16.5 14.5,16.5 14.5,6.5 2,6.5 2,16.5 4,16.5 4,18.5 0,18.5 0,4.5 
	16.5,4.5 "/>
<polygon style="fill:#333333;" points="24,18.5 19.905,18.5 19.905,16.5 22,16.5 22,13.586 19.289,10 16.5,10 16.5,17.5 14.5,17.5 
	14.5,8 20.283,8 24,12.914 "/>
</svg>






