<?xml version="1.0" encoding="iso-8859-1"?>
<svg version="1.1" id="&#x56FE;&#x5C42;_1" xmlns="http://www.w3.org/2000/svg" xmlns:xlink="http://www.w3.org/1999/xlink" x="0px"
	 y="0px" viewBox="0 0 24 24" style="enable-background:new 0 0 24 24;" xml:space="preserve">
<path style="fill:#333333;" d="M17.5,22c-1.379,0-2.5-1.121-2.5-2.5V13h5v6.5C20,20.879,18.879,22,17.5,22z M17,15v4.5
	c0,0.275,0.225,0.5,0.5,0.5s0.5-0.225,0.5-0.5V15H17z"/>
<path style="fill:#333333;" d="M19.5,15H14v-2h5.5c0.275,0,0.5-0.225,0.5-0.5v-5C20,7.224,19.775,7,19.5,7h-5V5h5
	C20.879,5,22,6.122,22,7.5v5C22,13.879,20.879,15,19.5,15z"/>
<path style="fill:#333333;" d="M7,14H6c-2.206,0-4-1.794-4-4c0-2.206,1.794-4,4-4h1v2H6c-1.103,0-2,0.897-2,2s0.897,2,2,2h1V14z"/>
<path style="fill:#333333;" d="M8.75,17.5H7.099C6.493,17.5,6,17.007,6,16.4V3.099C6,2.493,6.493,2,7.099,2H8.75
	c4.273,0,7.75,3.477,7.75,7.75S13.023,17.5,8.75,17.5z M8,15.5h0.75c3.17,0,5.75-2.579,5.75-5.75C14.5,6.58,11.92,4,8.75,4H8V15.5z"
	/>
</svg>






