<?xml version="1.0" encoding="iso-8859-1"?>
<svg version="1.1" id="&#x56FE;&#x5C42;_1" xmlns="http://www.w3.org/2000/svg" xmlns:xlink="http://www.w3.org/1999/xlink" x="0px"
	 y="0px" viewBox="0 0 24 24" style="enable-background:new 0 0 24 24;" xml:space="preserve">
<path style="fill:#333333;" d="M16,21H8c-1.654,0-3-1.346-3-3V8c0-1.654,1.346-3,3-3h8c1.654,0,3,1.346,3,3v10
	C19,19.654,17.654,21,16,21z M8,7C7.449,7,7,7.449,7,8v10c0,0.552,0.449,1,1,1h8c0.552,0,1-0.448,1-1V8c0-0.551-0.448-1-1-1H8z"/>
<rect x="9" y="3" style="fill:#333333;" width="2" height="3"/>
<rect x="13" y="3" style="fill:#333333;" width="2" height="3"/>
<rect x="8" y="1" style="fill:#333333;" width="8" height="2"/>
<rect x="8" y="20" style="fill:#333333;" width="2" height="2"/>
<rect x="14" y="20" style="fill:#333333;" width="2" height="2"/>
<rect x="10" y="11.5" style="fill:#333333;" width="4" height="2"/>
</svg>






