<?xml version="1.0" encoding="iso-8859-1"?>
<svg version="1.1" id="&#x56FE;&#x5C42;_1" xmlns="http://www.w3.org/2000/svg" xmlns:xlink="http://www.w3.org/1999/xlink" x="0px"
	 y="0px" viewBox="0 0 24 24" style="enable-background:new 0 0 24 24;" xml:space="preserve">
<path style="fill:#333333;" d="M20.055,23H3.946l-2.794-4.47L2,17h20l0.848,1.53L20.055,23z M5.054,21h13.891l1.25-2H3.804L5.054,21
	z"/>
<path style="fill:#333333;" d="M19.5,19h-15v-4c0-2.418,0.755-4.312,2.245-5.626c2.113-1.865,5.075-1.962,6.312-1.909
	c1.342-1.494,2.99-1.8,4.498-0.797c0.757,0.505,1.226,1.213,1.355,2.048c0.129,0.832-0.095,1.774-0.621,2.673
	c0.554,0.713,1.211,2.003,1.211,4.111V19z M6.5,17h11v-1.5c0-2.355-1.031-3.149-1.075-3.182L15.594,11.7l0.625-0.824
	c0.519-0.647,0.792-1.357,0.715-1.853c-0.027-0.175-0.107-0.437-0.488-0.691C16.159,8.142,15.399,7.634,14.3,9.1l-0.348,0.464
	l-0.576-0.072c-0.028-0.002-3.324-0.378-5.314,1.387C7.025,11.798,6.5,13.185,6.5,15V17z"/>
<path style="fill:#333333;" d="M10,14.5H8c0-0.107,0.019-1.081,0.668-2.055c0.616-0.924,1.262-1.278,1.385-1.34l0.895,1.789L10.5,12
	l0.471,0.882c-0.013,0.008-0.312,0.182-0.639,0.673C10.02,14.023,10,14.495,10,14.5z"/>
<rect x="16.297" y="5" transform="matrix(0.6408 -0.7677 0.7677 0.6408 1.9497 16.1667)" style="fill:#333333;" width="3.905" height="2"/>
<circle style="fill:#333333;" cx="19.178" cy="3.741" r="1.25"/>
<circle style="fill:#333333;" cx="20.405" cy="4.603" r="1.25"/>
</svg>






