<?xml version="1.0" encoding="iso-8859-1"?>
<svg version="1.1" id="&#x56FE;&#x5C42;_1" xmlns="http://www.w3.org/2000/svg" xmlns:xlink="http://www.w3.org/1999/xlink" x="0px"
	 y="0px" viewBox="0 0 24 24" style="enable-background:new 0 0 24 24;" xml:space="preserve">
<path style="fill:#333333;" d="M12,8c-1.93,0-3.5-1.57-3.5-3.5S10.07,1,12,1s3.5,1.57,3.5,3.5S13.93,8,12,8z M12,3
	c-0.827,0-1.5,0.673-1.5,1.5S11.173,6,12,6s1.5-0.673,1.5-1.5S12.827,3,12,3z"/>
<path style="fill:#333333;" d="M19,15.5H5v-1c0-0.515,0.002-0.772,0.024-0.988c0.233-2.368,2.12-4.254,4.486-4.488
	C9.728,9.002,9.985,9,10.5,9h3c0.515,0,0.772,0.002,0.988,0.024c2.368,0.233,4.255,2.121,4.487,4.487
	C18.997,13.726,19,13.984,19,14.5V15.5z M7.042,13.5h9.916c-0.225-1.322-1.314-2.353-2.665-2.486C14.121,10.998,13.911,11,13.5,11
	h-3c-0.414,0-0.621-0.002-0.795,0.014C8.356,11.147,7.266,12.178,7.042,13.5z"/>
<path style="fill:#333333;" d="M12,20.5c-5.333,0-11-1.752-11-5c0-0.77,0.34-1.906,1.958-2.949l1.083,1.682
	C3.379,14.658,3,15.121,3,15.5c0,1.224,3.506,3,9,3s9-1.776,9-3c0-0.38-0.38-0.842-1.041-1.268l1.082-1.682
	C22.66,13.593,23,14.729,23,15.5C23,18.748,17.333,20.5,12,20.5z"/>
<polygon style="fill:#333333;" points="10.207,22.707 8.793,21.293 10.586,19.5 8.793,17.707 10.207,16.293 13.414,19.5 "/>
</svg>






