<?xml version="1.0" encoding="iso-8859-1"?>
<svg version="1.1" id="&#x56FE;&#x5C42;_1" xmlns="http://www.w3.org/2000/svg" xmlns:xlink="http://www.w3.org/1999/xlink" x="0px"
	 y="0px" viewBox="0 0 24 24" style="enable-background:new 0 0 24 24;" xml:space="preserve">
<path style="fill:#333333;" d="M13.352,23.084c-1.008,0-2.049-0.216-3.202-0.647l0,0c-2.538-0.949-4.579-3.856-5.844-6.129
	c-0.655-1.176-0.348-2.655,0.73-3.518C5.898,12.102,7.039,11.972,8,12.383V8.75C8,7.509,9.009,6.5,10.25,6.5s2.25,1.009,2.25,2.25
	v0.764c0.866-0.089,1.731,0.35,2.169,1.062c0.186-0.05,0.38-0.076,0.581-0.076c0.811,0,1.522,0.431,1.919,1.076
	c0.186-0.05,0.38-0.076,0.581-0.076c1.24,0,2.25,1.01,2.25,2.25v3.934c0,0.781-0.216,1.5-0.623,2.078
	c-0.636,0.901-1.67,2.095-2.983,2.657C15.359,22.862,14.373,23.084,13.352,23.084z M6.858,14.15c-0.202,0-0.404,0.066-0.572,0.201
	c-0.317,0.254-0.414,0.658-0.233,0.983c1.535,2.757,3.283,4.662,4.797,5.229l0,0c1.866,0.697,3.155,0.703,4.756,0.018
	c0.93-0.398,1.737-1.406,2.136-1.972C17.955,18.308,18,17.939,18,17.684V13.75c0-0.275-0.5-0.275-0.5,0h-2v-1
	c0-0.275-0.5-0.275-0.5,0h-2v-1c0-0.275-0.5-0.275-0.5,0h-2v-3c0-0.275-0.5-0.275-0.5,0v5.75l-1.707,0.707l-0.788-0.788
	C7.327,14.241,7.093,14.15,6.858,14.15z"/>
<rect x="5.75" y="4.189" transform="matrix(0.7071 -0.7071 0.7071 0.7071 -1.7353 6.3107)" style="fill:#333333;" width="2" height="2.121"/>
<rect x="8.75" y="1.979" transform="matrix(0.9864 -0.1644 0.1644 0.9864 -0.4427 1.6505)" style="fill:#333333;" width="2" height="3.041"/>
<rect x="12.099" y="3.75" transform="matrix(0.5547 -0.8321 0.8321 0.5547 1.8367 12.9318)" style="fill:#333333;" width="1.803" height="2"/>
</svg>






