<?xml version="1.0" encoding="iso-8859-1"?>
<svg version="1.1" id="&#x56FE;&#x5C42;_1" xmlns="http://www.w3.org/2000/svg" xmlns:xlink="http://www.w3.org/1999/xlink" x="0px"
	 y="0px" viewBox="0 0 24 24" style="enable-background:new 0 0 24 24;" xml:space="preserve">
<path style="fill:#333333;" d="M21,22H3c-1.103,0-2-0.897-2-2V7c0-1.103,0.897-2,2-2h18c1.103,0,2,0.897,2,2v13
	C23,21.103,22.103,22,21,22z M3,7v13h18V7H3z"/>
<path style="fill:#333333;" d="M16.5,18.5h-12v-10h12V18.5z M6.5,16.5h8v-6h-8V16.5z"/>
<polygon style="fill:#333333;" points="11.58,7.325 6.364,3.021 7.636,1.479 11.511,4.675 16.324,0.263 17.676,1.737 "/>
<rect x="18" y="9" style="fill:#333333;" width="2" height="0.5"/>
<rect x="18" y="12.5" style="fill:#333333;" width="2" height="0.5"/>
</svg>






