<?xml version="1.0" encoding="iso-8859-1"?>
<svg version="1.1" id="&#x56FE;&#x5C42;_1" xmlns="http://www.w3.org/2000/svg" xmlns:xlink="http://www.w3.org/1999/xlink" x="0px"
	 y="0px" viewBox="0 0 24 24" style="enable-background:new 0 0 24 24;" xml:space="preserve">
<path style="fill:#333333;" d="M20.5,22h-17c-1.103,0-2-0.897-2-2V8c0-1.103,0.897-2,2-2h17c1.103,0,2,0.897,2,2v12
	C22.5,21.103,21.603,22,20.5,22z M3.5,8H3.499L3.5,20h17V8H3.5z"/>
<rect x="11.469" y="4" transform="matrix(0.8682 -0.4961 0.4961 0.8682 -0.4385 8.3489)" style="fill:#333333;" width="8.062" height="2"/>
<rect x="7.25" y="1.184" transform="matrix(0.5241 -0.8517 0.8517 0.5241 -0.332 9.4058)" style="fill:#333333;" width="2" height="7.632"/>
<rect x="16.5" y="10" style="fill:#333333;" width="2" height="3"/>
<path style="fill:#333333;" d="M17.5,16L17.5,16c0.552,0,1,0.448,1,1l0,0c0,0.552-0.448,1-1,1l0,0c-0.552,0-1-0.448-1-1l0,0
	C16.5,16.448,16.948,16,17.5,16z"/>
</svg>






