<?xml version="1.0" encoding="iso-8859-1"?>
<svg version="1.1" id="&#x56FE;&#x5C42;_1" xmlns="http://www.w3.org/2000/svg" xmlns:xlink="http://www.w3.org/1999/xlink" x="0px"
	 y="0px" viewBox="0 0 24 24" style="enable-background:new 0 0 24 24;" xml:space="preserve">
<path style="fill:#333333;" d="M11.049,21.511c-3.419,0-6.829-1.528-8.958-2.713l0.597-1.899c1.009,0.194,2.28-0.023,3.791-0.646
	c-1.705-1.092-2.851-2.38-3.414-3.844C1.998,9.639,2.487,7.184,3.029,5.1l1.82-0.271c1.107,1.806,3.318,4.553,6.116,3.628
	c-0.097-3.471,1.34-5.667,3.924-5.927c1.796-0.179,3.323,0.481,4.415,1.92c0.362,0.022,0.851-0.098,1.517-0.712L22.5,4.472
	c0,2.214-0.672,3.171-1.162,3.871c-0.083,0.118-0.164,0.231-0.236,0.35v0.111c0.014,2.639,0.041,8.131-5.161,11.381
	C14.408,21.142,12.728,21.511,11.049,21.511z M6.177,18.495c2.639,0.987,6.062,1.645,8.703-0.006
	c4.257-2.66,4.234-7.224,4.222-9.676l-0.001-0.597l0.098-0.205c0.15-0.316,0.329-0.571,0.502-0.817
	c0.182-0.259,0.358-0.511,0.499-0.847c-0.692,0.174-1.298,0.102-1.769-0.038l-0.349-0.104l-0.2-0.305
	c-0.697-1.062-1.586-1.504-2.792-1.38C12.958,4.734,12.865,7.431,13,9.019l0.058,0.672l-0.603,0.305
	c-2.745,1.386-5.558,0.572-7.941-2.218C4.354,9.011,4.399,10.31,4.93,11.69c0.548,1.425,1.948,2.675,4.159,3.718l0.05,1.783
	C8.079,17.766,7.094,18.2,6.177,18.495z"/>
</svg>






