<?xml version="1.0" encoding="iso-8859-1"?>
<svg version="1.1" id="&#x56FE;&#x5C42;_1" xmlns="http://www.w3.org/2000/svg" xmlns:xlink="http://www.w3.org/1999/xlink" x="0px"
	 y="0px" viewBox="0 0 24 24" style="enable-background:new 0 0 24 24;" xml:space="preserve">
<path style="fill:#333333;" d="M18.045,22.007l-5.36-0.035l-0.031-7.36l4.473-3.24l0.403-1.624l1.941,0.481l-0.579,2.334
	l-4.234,3.066l0.02,4.356l1.278,0.008l-0.166-3.775l0.494-0.309c4.557-2.85,4.718-3.874,4.722-3.916V3.029h2V12
	c0,0.986-0.627,2.386-5.167,5.292L18.045,22.007z"/>
<path style="fill:#333333;" d="M11.411,22.083L5.975,21.98l0.112-4.46c-3.554-2.1-5.081-3.617-5.081-5.03V3.015h2v9.476
	c0.003,0.038,0.135,1.032,4.594,3.597l0.516,0.297L8.025,20.02l1.323,0.024l-0.132-4.331l-4.08-3.128l-0.603-2.307l1.935-0.506
	l0.43,1.643l4.288,3.288L11.411,22.083z"/>
</svg>






