<?xml version="1.0" encoding="iso-8859-1"?>
<svg version="1.1" id="&#x56FE;&#x5C42;_1" xmlns="http://www.w3.org/2000/svg" xmlns:xlink="http://www.w3.org/1999/xlink" x="0px"
	 y="0px" viewBox="0 0 24 24" style="enable-background:new 0 0 24 24;" xml:space="preserve">
<path style="fill:#333333;" d="M19.5,22h-15C3.122,22,2,20.879,2,19.5v-15C2,3.122,3.122,2,4.5,2h15C20.879,2,22,3.122,22,4.5v15
	C22,20.879,20.879,22,19.5,22z M4.5,4C4.224,4,4,4.224,4,4.5v15C4,19.775,4.224,20,4.5,20h15c0.275,0,0.5-0.225,0.5-0.5v-15
	C20,4.224,19.775,4,19.5,4H4.5z"/>
<path style="fill:#333333;" d="M14.5,18h-6v-1c0-1.655,1.371-2.973,2.697-4.246C12.329,11.666,13.5,10.541,13.5,9.5
	C13.5,8.477,12.604,8,12,8c-0.605,0-1.5,0.477-1.5,1.5h-2C8.5,7.338,10.317,6,12,6c1.684,0,3.5,1.338,3.5,3.5
	c0,1.893-1.55,3.382-2.917,4.695c-0.633,0.608-1.28,1.229-1.681,1.805H14.5V18z"/>
</svg>






