<?xml version="1.0" encoding="iso-8859-1"?>
<svg version="1.1" id="&#x56FE;&#x5C42;_1" xmlns="http://www.w3.org/2000/svg" xmlns:xlink="http://www.w3.org/1999/xlink" x="0px"
	 y="0px" viewBox="0 0 24 24" style="enable-background:new 0 0 24 24;" xml:space="preserve">
<path style="fill:#333333;" d="M13.372,23h-0.447c-2.953,0-5.682-1.475-7.299-3.944l-1.098-1.675
	c-1.054-1.609-0.742-3.761,0.727-5.003l0.996-0.842V3.625C6.25,2.178,7.428,1,8.875,1c0.479,0,0.928,0.129,1.314,0.354
	C10.67,0.829,11.36,0.5,12.125,0.5c1.447,0,2.625,1.178,2.625,2.625v3.2c0.2-0.049,0.41-0.075,0.625-0.075
	c1.264,0,2.322,0.898,2.57,2.089c0.217-0.058,0.444-0.089,0.68-0.089c1.447,0,2.625,1.178,2.625,2.625v5.109
	c0,1.03-0.308,2.025-0.89,2.875l-0.486,0.711C18.405,21.718,15.975,23,13.372,23z M8.875,3C8.53,3,8.25,3.28,8.25,3.625v8.105
	c0,0.466-0.204,0.905-0.56,1.207l-1.144,0.968c-0.699,0.591-0.847,1.614-0.346,2.38l1.098,1.675c1.247,1.903,3.35,3.04,5.626,3.04
	h0.447c1.941,0,3.755-0.957,4.852-2.559l0.486-0.711c0.354-0.517,0.54-1.12,0.54-1.746v-5.109c0-0.345-0.28-0.625-0.625-0.625
	S18,10.53,18,10.875h-2v-2c0-0.345-0.28-0.625-0.625-0.625S14.75,8.53,14.75,8.875h-2v-5.75c0-0.345-0.28-0.625-0.625-0.625
	S11.5,2.78,11.5,3.125v0.5h-2C9.5,3.28,9.22,3,8.875,3z"/>
</svg>






