<?xml version="1.0" encoding="iso-8859-1"?>
<svg version="1.1" id="&#x56FE;&#x5C42;_1" xmlns="http://www.w3.org/2000/svg" xmlns:xlink="http://www.w3.org/1999/xlink" x="0px"
	 y="0px" viewBox="0 0 24 24" style="enable-background:new 0 0 24 24;" xml:space="preserve">
<path style="fill:#333333;" d="M23,13.5H1v-1c0-6.065,4.935-11,11-11s11,4.935,11,11V13.5z M3.055,11.5h17.889
	c-0.499-4.494-4.319-8-8.944-8C7.375,3.5,3.554,7.006,3.055,11.5z"/>
<path style="fill:#333333;" d="M12,22c-3.309,0-6-2.691-6-6v-1h12v1C18,19.309,15.309,22,12,22z M8.126,17
	c0.445,1.724,2.013,3,3.874,3s3.429-1.276,3.873-3H8.126z"/>
</svg>






