<?xml version="1.0" encoding="iso-8859-1"?>
<svg version="1.1" id="&#x56FE;&#x5C42;_1" xmlns="http://www.w3.org/2000/svg" xmlns:xlink="http://www.w3.org/1999/xlink" x="0px"
	 y="0px" viewBox="0 0 24 24" style="enable-background:new 0 0 24 24;" xml:space="preserve">
<path style="fill:#333333;" d="M11.5,23c-4.146,0-6.306-1.375-6.895-2.553l-0.014-0.028L2.539,15.97
	c-0.755-1.636-0.154-3.562,1.397-4.48l2.771-1.637c0.636-0.376,1.389-0.448,2.068-0.218L8.081,3.746
	c-0.083-0.706,0.157-1.399,0.66-1.901c0.675-0.674,1.748-0.734,2.492-0.139l0.19,0.152c0.485,0.387,0.806,0.939,0.906,1.553
	l0.235,1.456l0.129-1.332c0.064-0.667,0.402-1.291,0.927-1.711l0.105-0.084c0.768-0.617,1.874-0.554,2.571,0.144
	C16.75,2.335,17,2.938,17,3.58v10.09l0.875-0.7c0.998-0.8,2.421-0.738,3.801,0.166c0.331,0.218,0.552,0.552,0.621,0.941
	c0.071,0.396-0.026,0.812-0.268,1.14l-3.976,5.378C17.919,20.754,15.903,23,11.5,23z M6.398,19.559C6.575,19.874,7.921,21,11.5,21
	c3.45,0,4.983-1.642,4.997-1.658l3.55-4.808c-0.31-0.122-0.68-0.197-0.922-0.003l-1.688,1.35c-0.456,0.363-1.064,0.433-1.588,0.181
	C15.325,15.81,15,15.291,15,14.71V3.58c0-0.106-0.041-0.207-0.116-0.281l-0.016,0.087c-0.104,0.083-0.172,0.208-0.185,0.341
	l-0.664,6.862c-0.062,0.661-0.611,1.161-1.277,1.161c-0.637,0-1.17-0.456-1.269-1.084L10.355,3.73
	c-0.02-0.123-0.084-0.233-0.181-0.311l-0.083-0.066c-0.021,0.049-0.03,0.104-0.023,0.159l0.804,6.836
	c0.068,0.579-0.196,1.132-0.688,1.443c-0.492,0.311-1.105,0.312-1.598,0.004l-0.343-0.213c-0.16-0.099-0.358-0.103-0.52-0.007
	l-2.77,1.637c-0.665,0.393-0.922,1.219-0.599,1.92L6.398,19.559z M12.029,10.396c0,0.001,0,0.003-0.001,0.004L12.029,10.396z
	 M13.448,10.345l0.001,0.007C13.449,10.35,13.448,10.347,13.448,10.345z"/>
</svg>






