<?xml version="1.0" encoding="iso-8859-1"?>
<svg version="1.1" id="&#x56FE;&#x5C42;_1" xmlns="http://www.w3.org/2000/svg" xmlns:xlink="http://www.w3.org/1999/xlink" x="0px"
	 y="0px" viewBox="0 0 24 24" style="enable-background:new 0 0 24 24;" xml:space="preserve">
<path style="fill:#333333;" d="M21,20H3c-1.103,0-2-0.897-2-2V6c0-1.103,0.897-2,2-2h18c1.103,0,2,0.897,2,2v12
	C23,19.103,22.103,20,21,20z M3,6v12h18V6H3z"/>
<path style="fill:#333333;" d="M19,20H5l-0.707-1.707L7,15.586C7.378,15.208,7.88,15,8.414,15h6.716
	c0.479,0,0.941,0.172,1.304,0.483l3.217,2.758L19,20z M7.414,18h8.883l-1.166-1H8.414L7.414,18z"/>
<rect x="4.5" y="18" style="fill:#333333;" width="15" height="2"/>
<path style="fill:#333333;" d="M7.5,13.5c-1.654,0-3-1.346-3-3s1.346-3,3-3s3,1.346,3,3S9.154,13.5,7.5,13.5z M7.5,9.5
	c-0.551,0-1,0.449-1,1s0.449,1,1,1s1-0.449,1-1S8.051,9.5,7.5,9.5z"/>
<path style="fill:#333333;" d="M16.5,13.5c-1.654,0-3-1.346-3-3s1.346-3,3-3s3,1.346,3,3S18.154,13.5,16.5,13.5z M16.5,9.5
	c-0.552,0-1,0.449-1,1s0.448,1,1,1s1-0.449,1-1S17.052,9.5,16.5,9.5z"/>
<rect x="7.5" y="11.5" style="fill:#333333;" width="9" height="2"/>
<rect x="7.5" y="7.5" style="fill:#333333;" width="9" height="2"/>
</svg>






