<?xml version="1.0" encoding="iso-8859-1"?>
<svg version="1.1" id="&#x56FE;&#x5C42;_1" xmlns="http://www.w3.org/2000/svg" xmlns:xlink="http://www.w3.org/1999/xlink" x="0px"
	 y="0px" viewBox="0 0 24 24" style="enable-background:new 0 0 24 24;" xml:space="preserve">
<path style="fill:#333333;" d="M7.5,22h-2V7.5C5.5,3.916,8.416,1,12,1s6.5,2.916,6.5,6.5V17h-2V7.5C16.5,5.019,14.481,3,12,3
	S7.5,5.019,7.5,7.5V22z"/>
<polygon style="fill:#333333;" points="6.5,23.414 3.293,20.207 4.707,18.793 6.5,20.586 8.293,18.793 9.707,20.207 "/>
<path style="fill:#333333;" d="M17.5,23c-1.93,0-3.5-1.57-3.5-3.5s1.57-3.5,3.5-3.5s3.5,1.57,3.5,3.5S19.43,23,17.5,23z M17.5,18
	c-0.827,0-1.5,0.673-1.5,1.5s0.673,1.5,1.5,1.5s1.5-0.673,1.5-1.5S18.327,18,17.5,18z"/>
</svg>






