<?xml version="1.0" encoding="iso-8859-1"?>
<svg version="1.1" id="&#x56FE;&#x5C42;_1" xmlns="http://www.w3.org/2000/svg" xmlns:xlink="http://www.w3.org/1999/xlink" x="0px"
	 y="0px" viewBox="0 0 24 24" style="enable-background:new 0 0 24 24;" xml:space="preserve">
<path style="fill:#333333;" d="M22,18.5H7.5C3.916,18.5,1,15.584,1,12s2.916-6.5,6.5-6.5H17v2H7.5C5.019,7.5,3,9.519,3,12
	s2.019,4.5,4.5,4.5H22V18.5z"/>
<polygon style="fill:#333333;" points="20.207,20.707 18.793,19.293 20.586,17.5 18.793,15.707 20.207,14.293 23.414,17.5 "/>
<path style="fill:#333333;" d="M19.5,10C17.57,10,16,8.43,16,6.5S17.57,3,19.5,3S23,4.57,23,6.5S21.43,10,19.5,10z M19.5,5
	C18.673,5,18,5.673,18,6.5S18.673,8,19.5,8S21,7.327,21,6.5S20.327,5,19.5,5z"/>
</svg>






