<?xml version="1.0" encoding="iso-8859-1"?>
<svg version="1.1" id="&#x56FE;&#x5C42;_1" xmlns="http://www.w3.org/2000/svg" xmlns:xlink="http://www.w3.org/1999/xlink" x="0px"
	 y="0px" viewBox="0 0 24 24" style="enable-background:new 0 0 24 24;" xml:space="preserve">
<path style="fill:#333333;" d="M16.5,18.5H2v-2h14.5c2.481,0,4.5-2.019,4.5-4.5s-2.019-4.5-4.5-4.5H7v-2h9.5
	c3.584,0,6.5,2.916,6.5,6.5S20.084,18.5,16.5,18.5z"/>
<polygon style="fill:#333333;" points="3.793,20.707 0.586,17.5 3.793,14.293 5.207,15.707 3.414,17.5 5.207,19.293 "/>
<path style="fill:#333333;" d="M4.5,10C2.57,10,1,8.43,1,6.5S2.57,3,4.5,3S8,4.57,8,6.5S6.43,10,4.5,10z M4.5,5
	C3.673,5,3,5.673,3,6.5S3.673,8,4.5,8S6,7.327,6,6.5S5.327,5,4.5,5z"/>
</svg>






