<?xml version="1.0" encoding="iso-8859-1"?>
<svg version="1.1" id="&#x56FE;&#x5C42;_1" xmlns="http://www.w3.org/2000/svg" xmlns:xlink="http://www.w3.org/1999/xlink" x="0px"
	 y="0px" viewBox="0 0 24 24" style="enable-background:new 0 0 24 24;" xml:space="preserve">
<path style="fill:#333333;" d="M11,23C5.486,23,1,18.514,1,13C1,7.486,5.486,3,11,3c5.514,0,10,4.486,10,10
	C21,18.514,16.514,23,11,23z M11,5c-4.411,0-8,3.589-8,8s3.589,8,8,8s8-3.589,8-8S15.411,5,11,5z"/>
<path style="fill:#333333;" d="M20.5,6C19.121,6,18,4.878,18,3.5S19.121,1,20.5,1S23,2.122,23,3.5S21.879,6,20.5,6z M20.5,3
	C20.225,3,20,3.224,20,3.5S20.225,4,20.5,4S21,3.776,21,3.5S20.775,3,20.5,3z"/>
</svg>






