<?xml version="1.0" encoding="iso-8859-1"?>
<svg version="1.1" id="&#x56FE;&#x5C42;_1" xmlns="http://www.w3.org/2000/svg" xmlns:xlink="http://www.w3.org/1999/xlink" x="0px"
	 y="0px" viewBox="0 0 24 24" style="enable-background:new 0 0 24 24;" xml:space="preserve">
<path style="fill:#333333;" d="M11.5,23c-2.201,0-3-2.28-3-3.812h2c0,0.019,0.075,1.812,1,1.812c0.972,0,1-2.188,1-2.438V12h2v6.562
	C14.5,21.3,13.351,23,11.5,23z"/>
<path style="fill:#333333;" d="M23.098,13H0.902l0.103-1.093C1.358,8.134,4.111,1,12,1s10.642,7.134,10.996,10.907L23.098,13z
	 M3.16,11h17.68C20.179,7.745,17.76,3,12,3C6.241,3,3.821,7.745,3.16,11z"/>
<polygon style="fill:#333333;" points="11.557,10.471 8.793,7.707 10.207,6.293 11.443,7.529 13.741,4.849 15.259,6.151 "/>
</svg>






