<?xml version="1.0" encoding="iso-8859-1"?>
<svg version="1.1" id="&#x56FE;&#x5C42;_1" xmlns="http://www.w3.org/2000/svg" xmlns:xlink="http://www.w3.org/1999/xlink" x="0px"
	 y="0px" viewBox="0 0 24 24" style="enable-background:new 0 0 24 24;" xml:space="preserve">
<path style="fill:#333333;" d="M23,13H1v-1C1,5.935,5.935,1,12,1s11,4.935,11,11V13z M3.055,11h17.889C20.445,6.506,16.625,3,12,3
	C7.375,3,3.554,6.506,3.055,11z"/>
<path style="fill:#333333;" d="M14.75,23.006c-2.067,0-3.75-1.673-3.75-3.729V12h2v7.276c0,0.954,0.785,1.729,1.75,1.729
	s1.75-0.775,1.75-1.729h2C18.5,21.333,16.817,23.006,14.75,23.006z"/>
</svg>






