<?xml version="1.0" encoding="iso-8859-1"?>
<svg version="1.1" id="&#x56FE;&#x5C42;_1" xmlns="http://www.w3.org/2000/svg" xmlns:xlink="http://www.w3.org/1999/xlink" x="0px"
	 y="0px" viewBox="0 0 24 24" style="enable-background:new 0 0 24 24;" xml:space="preserve">
<path style="fill:#333333;" d="M8.416,14.862L7.713,14.26c-1.752-1.502-2.416-1.578-2.531-1.578s-0.779,0.076-2.531,1.578L1,13.5
	c0-6.065,4.935-11,11-11s11,4.935,11,11l-1.65,0.76c-1.752-1.502-2.416-1.578-2.531-1.578s-0.779,0.076-2.531,1.578l-0.702,0.602
	l-0.655-0.654c-2.027-2.024-3.835-2.022-5.859,0L8.416,14.862z M12,10.682c1.245,0,2.478,0.502,3.672,1.496
	c1.301-1.018,2.312-1.496,3.146-1.496c0.551,0,1.179,0.208,1.916,0.643C19.759,7.41,16.213,4.5,12,4.5s-7.759,2.91-8.734,6.824
	c0.737-0.434,1.365-0.643,1.916-0.643c0.834,0,1.846,0.479,3.147,1.496C9.522,11.184,10.754,10.682,12,10.682z"/>
<path style="fill:#333333;" d="M14.75,23.006c-2.067,0-3.75-1.673-3.75-3.729V12h2v7.276c0,0.954,0.785,1.729,1.75,1.729
	s1.75-0.775,1.75-1.729h2C18.5,21.333,16.817,23.006,14.75,23.006z"/>
<rect x="11" y="1.5" style="fill:#333333;" width="2" height="2"/>
</svg>






