<?xml version="1.0" encoding="iso-8859-1"?>
<svg version="1.1" id="&#x56FE;&#x5C42;_1" xmlns="http://www.w3.org/2000/svg" xmlns:xlink="http://www.w3.org/1999/xlink" x="0px"
	 y="0px" viewBox="0 0 24 24" style="enable-background:new 0 0 24 24;" xml:space="preserve">
<path style="fill:#333333;" d="M12,22c-2.67,0-5.182-1.04-7.071-2.929l1.414-1.414C7.854,19.168,9.863,20,12,20c4.411,0,8-3.589,8-8
	s-3.589-8-8-8C9.863,4,7.854,4.832,6.343,6.343C5.544,7.142,3.766,9.144,3.748,9.164L2.252,7.836
	c0.074-0.084,1.836-2.067,2.677-2.907C6.817,3.041,9.329,2,12,2c5.514,0,10,4.486,10,10C22,17.514,17.514,22,12,22z"/>
<polygon style="fill:#333333;" points="7,9.5 2,9.5 2,4.5 4,4.5 4,7.5 7,7.5 "/>
</svg>






