<?xml version="1.0" encoding="iso-8859-1"?>
<svg version="1.1" id="&#x56FE;&#x5C42;_1" xmlns="http://www.w3.org/2000/svg" xmlns:xlink="http://www.w3.org/1999/xlink" x="0px"
	 y="0px" viewBox="0 0 24 24" style="enable-background:new 0 0 24 24;" xml:space="preserve">
<path style="fill:#333333;" d="M6.636,6.636H1V1h5.636V6.636z M3,4.636h1.636V3H3V4.636z"/>
<path style="fill:#333333;" d="M23,23h-5.637v-5.637H23V23z M19.363,21H21v-1.637h-1.637V21z"/>
<path style="fill:#333333;" d="M6.636,16.637H1V11h5.636V16.637z M3,14.637h1.636V13H3V14.637z"/>
<path style="fill:#333333;" d="M13,23H7.364v-5.637H13V23z M9.364,21H11v-1.637H9.364V21z"/>
<path style="fill:#333333;" d="M16.637,6.636H11V1h5.637V6.636z M13,4.636h1.637V3H13V4.636z"/>
<path style="fill:#333333;" d="M23,13h-5.637V7.364H23V13z M19.363,11H21V9.364h-1.637V11z"/>
<rect x="5.636" y="2.818" style="fill:#333333;" width="6.364" height="2"/>
<rect x="12" y="19.182" style="fill:#333333;" width="6.363" height="2"/>
<polygon style="fill:#333333;" points="14.818,14.818 5.636,14.818 5.636,12.818 12.818,12.818 12.818,5.636 14.818,5.636 "/>
<path style="fill:#333333;" d="M11.182,18.363h-2v-4.549h2V18.363z M18.363,11.182h-3.949v-2h3.949V11.182z"/>
<rect x="2.818" y="5.636" style="fill:#333333;" width="2" height="6.364"/>
<rect x="19.182" y="12" style="fill:#333333;" width="2" height="6.363"/>
</svg>






