<?xml version="1.0" encoding="iso-8859-1"?>
<svg version="1.1" id="&#x56FE;&#x5C42;_1" xmlns="http://www.w3.org/2000/svg" xmlns:xlink="http://www.w3.org/1999/xlink" x="0px"
	 y="0px" viewBox="0 0 24 24" style="enable-background:new 0 0 24 24;" xml:space="preserve">
<path style="fill:#333333;" d="M20.5,22.5H9c-1.103,0-2-0.897-2-2V16h2v4.5h11.5V9H16V7h4.5c1.103,0,2,0.897,2,2v11.5
	C22.5,21.603,21.603,22.5,20.5,22.5z"/>
<path style="fill:#333333;" d="M8,17H3.5c-1.103,0-2-0.897-2-2V3.5c0-1.103,0.897-2,2-2H15c1.103,0,2,0.897,2,2V8h-2V3.5H3.5V15H8
	V17z"/>
<rect x="6.015" y="13" transform="matrix(0.7071 -0.7071 0.7071 0.7071 -5.6525 14.3537)" style="fill:#333333;" width="16.97" height="2"/>
<rect x="0.912" y="8.75" transform="matrix(0.7071 -0.7071 0.7071 0.7071 -4.0385 9.7502)" style="fill:#333333;" width="17.677" height="2"/>
<rect x="6.344" y="11" transform="matrix(0.7071 -0.7071 0.7071 0.7071 -4.9705 12.0002)" style="fill:#333333;" width="11.313" height="2"/>
<rect x="10.032" y="15.75" transform="matrix(0.7071 -0.7071 0.7071 0.7071 -6.9381 16.75)" style="fill:#333333;" width="13.435" height="2"/>
<rect x="0.533" y="6.25" transform="matrix(0.7071 -0.7071 0.7071 0.7071 -3.003 7.2502)" style="fill:#333333;" width="13.435" height="2"/>
<rect x="16.068" y="18.25" transform="matrix(0.7071 -0.7071 0.7071 0.7071 -7.9736 19.25)" style="fill:#333333;" width="6.364" height="2"/>
<rect x="1.569" y="3.75" transform="matrix(0.7071 -0.7071 0.7071 0.7071 -1.9674 4.7503)" style="fill:#333333;" width="6.364" height="2"/>
</svg>






