<?xml version="1.0" encoding="iso-8859-1"?>
<svg version="1.1" id="&#x56FE;&#x5C42;_1" xmlns="http://www.w3.org/2000/svg" xmlns:xlink="http://www.w3.org/1999/xlink" x="0px"
	 y="0px" viewBox="0 0 24 24" style="enable-background:new 0 0 24 24;" xml:space="preserve">
<path style="fill:#333333;" d="M12,20c-4.411,0-8-3.589-8-8s3.589-8,8-8s8,3.589,8,8S16.411,20,12,20z M12,6c-3.309,0-6,2.691-6,6
	s2.691,6,6,6s6-2.691,6-6S15.309,6,12,6z"/>
<path style="fill:#333333;" d="M6.829,15.777c-0.604,0-1.21-0.146-1.712-0.354l0.766-1.848c0.597,0.247,1.293,0.266,1.487,0.039
	c0.084-0.099,0.1-0.37,0.115-0.632c0.031-0.523,0.082-1.4,0.919-1.871c0.898-0.505,1.678,0.028,2.098,0.313
	c0.397,0.271,0.62,0.412,0.967,0.348C12.291,11.626,13,10.158,13,9.5c0-0.119,0-0.128-0.196-0.346
	c-0.25-0.277-0.669-0.742-0.721-1.564C11.992,6.157,12.868,5.099,13.4,4.7L14.6,6.3c-0.012,0.011-0.565,0.46-0.521,1.164
	c0.008,0.117,0.023,0.144,0.211,0.352C14.556,8.11,15,8.603,15,9.5c0,1.281-1.092,3.867-3.178,4.242
	c-1.09,0.194-1.856-0.266-2.343-0.593c-0.029,0.479-0.085,1.177-0.591,1.767C8.35,15.546,7.591,15.777,6.829,15.777z"/>
<path style="fill:#333333;" d="M13.358,19.268l-0.146-0.121C12.701,18.727,12,18.151,12,17c0-1.124,0.744-1.441,1.062-1.577
	c0.133-0.058,0.181-0.08,0.23-0.13c0.027-0.048,0.068-0.276,0.093-0.413c0.08-0.438,0.213-1.172,0.917-1.524
	c1.192-0.592,3.287,0.523,4.328,1.368l-1.262,1.553c-0.729-0.592-1.551-0.941-2.013-1.051c-0.001,0.004-0.002,0.008-0.002,0.012
	c-0.077,0.424-0.183,1.005-0.647,1.47c-0.237,0.237-0.478,0.378-0.668,0.469c0.052,0.093,0.17,0.201,0.442,0.425l0.16,0.132
	L13.358,19.268z"/>
<circle style="fill:#333333;" cx="12" cy="2" r="1"/>
<circle style="fill:#333333;" cx="12" cy="22" r="1"/>
<circle style="fill:#333333;" cx="22" cy="12" r="1"/>
<circle style="fill:#333333;" cx="19" cy="5" r="1"/>
<circle style="fill:#333333;" cx="5" cy="19" r="1"/>
<circle style="fill:#333333;" cx="2" cy="12" r="1"/>
<circle style="fill:#333333;" cx="5" cy="5" r="1"/>
<circle style="fill:#333333;" cx="19" cy="19" r="1"/>
<path style="fill:#333333;" d="M6.286,17.6C4.812,16.095,4,14.106,4,12h2c0,1.58,0.609,3.071,1.714,4.199L6.286,17.6z"/>
<path style="fill:#333333;" d="M12,20v-2c3.309,0,6-2.691,6-6h2C20,16.411,16.411,20,12,20z"/>
<path style="fill:#333333;" d="M16.199,7.714C15.071,6.609,13.58,6,12,6V4c2.106,0,4.095,0.812,5.6,2.286L16.199,7.714z"/>
</svg>






