<?xml version="1.0" encoding="iso-8859-1"?>
<svg version="1.1" id="&#x56FE;&#x5C42;_1" xmlns="http://www.w3.org/2000/svg" xmlns:xlink="http://www.w3.org/1999/xlink" x="0px"
	 y="0px" viewBox="0 0 24 24" style="enable-background:new 0 0 24 24;" xml:space="preserve">
<path style="fill:#333333;" d="M12,22.217l-0.315-0.104C7.85,20.838,1,15.533,1,9.5C1,5.916,3.916,3,7.5,3
	c1.69,0,3.3,0.661,4.5,1.81C13.199,3.661,14.81,3,16.5,3C20.084,3,23,5.916,23,9.5h-2C21,7.019,18.981,5,16.5,5
	c-1.463,0-2.839,0.715-3.683,1.913L12,8.074l-0.818-1.162C10.339,5.715,8.963,5,7.5,5C5.019,5,3,7.019,3,9.5
	c0,4.771,5.763,9.357,9,10.601c0.467-0.179,0.984-0.425,1.517-0.723l0.977,1.744c-0.774,0.435-1.507,0.768-2.178,0.99L12,22.217z"/>
<rect x="18.199" y="12.891" transform="matrix(0.7773 -0.6291 0.6291 0.7773 -5.5545 15.5571)" style="fill:#333333;" width="2" height="5.467"/>
<rect x="16.466" y="14.625" transform="matrix(0.629 -0.7774 0.7774 0.629 -5.0239 20.7233)" style="fill:#333333;" width="5.467" height="2"/>
</svg>






