<?xml version="1.0" encoding="iso-8859-1"?>
<svg version="1.1" id="&#x56FE;&#x5C42;_1" xmlns="http://www.w3.org/2000/svg" xmlns:xlink="http://www.w3.org/1999/xlink" x="0px"
	 y="0px" viewBox="0 0 24 24" style="enable-background:new 0 0 24 24;" xml:space="preserve">
<path style="fill:#333333;" d="M12,23c-4.411,0-8-3.589-8-8s3.589-8,8-8s8,3.589,8,8S16.411,23,12,23z M12,9c-3.309,0-6,2.691-6,6
	s2.691,6,6,6s6-2.691,6-6S15.309,9,12,9z"/>
<path style="fill:#333333;" d="M9.5,8.5h-2v-3C7.5,3.019,9.519,1,12,1s4.5,2.019,4.5,4.5V6h-2V5.5C14.5,4.122,13.379,3,12,3
	c-1.378,0-2.5,1.122-2.5,2.5V8.5z"/>
<rect x="11" y="13" style="fill:#333333;" width="2" height="4"/>
</svg>






