<?xml version="1.0" encoding="iso-8859-1"?>
<svg version="1.1" id="&#x56FE;&#x5C42;_1" xmlns="http://www.w3.org/2000/svg" xmlns:xlink="http://www.w3.org/1999/xlink" x="0px"
	 y="0px" viewBox="0 0 24 24" style="enable-background:new 0 0 24 24;" xml:space="preserve">
<path style="fill:#333333;" d="M19.5,23.023h-15c-1.103,0-2-0.897-2-2v-9c0-1.103,0.897-2,2-2h15c1.103,0,2,0.897,2,2v9
	C21.5,22.126,20.603,23.023,19.5,23.023z M19.5,12.023L4.499,12.024L4.5,21.023h15V12.023z"/>
<path style="fill:#333333;" d="M8,11H6V7.002C5.997,3.909,8.337,1.341,11.443,1.03c3.107-0.309,5.914,1.741,6.536,4.771
	l-1.959,0.402c-0.415-2.022-2.293-3.396-4.378-3.184C9.564,3.229,7.998,4.94,8,7.001V11z"/>
<rect x="11" y="15" style="fill:#333333;" width="2" height="3"/>
</svg>






