<?xml version="1.0" encoding="iso-8859-1"?>
<svg version="1.1" id="&#x56FE;&#x5C42;_1" xmlns="http://www.w3.org/2000/svg" xmlns:xlink="http://www.w3.org/1999/xlink" x="0px"
	 y="0px" viewBox="0 0 24 24" style="enable-background:new 0 0 24 24;" xml:space="preserve">
<rect x="3" y="9" style="fill:#333333;" width="2" height="4.5"/>
<rect x="2.5" y="12.5" style="fill:#333333;" width="3" height="2"/>
<rect x="2.5" y="5" style="fill:#333333;" width="3" height="2"/>
<path style="fill:#333333;" d="M2.996,6.868L2.003,5.132C3.23,4.428,4.242,3.395,4.179,3.076C4.126,2.991,4.018,2.843,3.926,2.834
	C3.738,2.82,3.345,3.07,3.207,3.207L1.793,1.793c0.11-0.11,1.104-1.067,2.331-0.949C4.6,0.891,5.282,1.121,5.832,1.945
	C6.158,2.435,6.257,3.002,6.12,3.587C5.731,5.233,3.45,6.609,2.996,6.868z"/>
<path style="fill:#333333;" d="M3.975,22.596c-0.438,0-0.872-0.117-1.283-0.353c-0.611-0.35-0.96-0.843-1.023-0.938l1.664-1.109
	c0.306,0.431,0.683,0.508,1.113,0.223c0.189-0.126,0.223-0.206,0.223-0.206c-0.002-0.092-0.193-0.348-0.309-0.443L3.438,19
	l0.922-0.769c0.158-0.138,0.306-0.37,0.307-0.453l0,0c-0.002,0-0.043-0.077-0.221-0.196c-0.58-0.389-0.947-0.027-1.113,0.223
	l-1.664-1.109c0.063-0.096,0.412-0.589,1.023-0.938c0.911-0.521,1.928-0.463,2.863,0.161c0.87,0.58,1.083,1.274,1.109,1.754
	C6.692,18.19,6.512,18.646,6.294,19c0.217,0.354,0.397,0.81,0.37,1.328c-0.026,0.479-0.239,1.174-1.109,1.754
	C5.042,22.424,4.505,22.596,3.975,22.596z"/>
<rect x="4" y="18" style="fill:#333333;" width="1" height="2"/>
<rect x="2.349" y="8.5" transform="matrix(0.8321 -0.5547 0.5547 0.8321 -4.7238 3.3983)" style="fill:#333333;" width="1.803" height="2"/>
<rect x="10" y="11" style="fill:#333333;" width="11" height="2"/>
<rect x="10" y="18" style="fill:#333333;" width="11" height="2"/>
<rect x="10" y="4" style="fill:#333333;" width="11" height="2"/>
</svg>






