<?xml version="1.0" encoding="iso-8859-1"?>
<svg version="1.1" id="&#x56FE;&#x5C42;_1" xmlns="http://www.w3.org/2000/svg" xmlns:xlink="http://www.w3.org/1999/xlink" x="0px"
	 y="0px" viewBox="0 0 24 24" style="enable-background:new 0 0 24 24;" xml:space="preserve">
<path style="fill:#333333;" d="M7,21c-3.309,0-6-2.691-6-6c0-2.792,1.895-5.192,4.607-5.837l0.463,1.945C4.263,11.539,3,13.139,3,15
	c0,2.206,1.794,4,4,4c0.373,0,0.741-0.051,1.093-0.15l0.546,1.924C8.109,20.924,7.558,21,7,21z"/>
<path style="fill:#333333;" d="M16.866,21c-0.557,0-1.108-0.076-1.639-0.227l0.545-1.924c0.353,0.1,0.721,0.15,1.094,0.15
	c2.206,0,4-1.794,4-4c0-1.861-1.263-3.461-3.07-3.892l0.463-1.945c2.713,0.645,4.607,3.045,4.607,5.837
	C22.866,18.309,20.175,21,16.866,21z"/>
<path style="fill:#333333;" d="M19,10h-2c0-2.757-2.243-5-5-5s-5,2.243-5,5H5c0-3.86,3.14-7,7-7C15.859,3,19,6.14,19,10z"/>
<polygon style="fill:#333333;" points="14.861,14.71 12.004,11.875 9.241,14.646 7.825,13.234 11.996,9.049 16.27,13.29 "/>
<rect x="11" y="12.23" style="fill:#333333;" width="2" height="6.77"/>
</svg>






