<?xml version="1.0" encoding="iso-8859-1"?>
<svg version="1.1" id="&#x56FE;&#x5C42;_1" xmlns="http://www.w3.org/2000/svg" xmlns:xlink="http://www.w3.org/1999/xlink" x="0px"
	 y="0px" viewBox="0 0 24 24" style="enable-background:new 0 0 24 24;" xml:space="preserve">
<path style="fill:#333333;" d="M21,17.5H3V6c0-1.378,1.122-2.5,2.5-2.5h7v2h-7C5.224,5.5,5,5.724,5,6v9.5h14V12h2V17.5z"/>
<path style="fill:#333333;" d="M19,21.5H5c-2.206,0-4-1.794-4-4v-2h22v2C23,19.706,21.206,21.5,19,21.5z M3,17.5
	c0,1.103,0.897,2,2,2h14c1.103,0,2-0.897,2-2H3z"/>
<rect x="17.5" y="3.5" style="fill:#333333;" width="2" height="6"/>
<polygon style="fill:#333333;" points="20.293,6.707 18.5,4.914 16.707,6.707 15.293,5.293 18.5,2.086 21.707,5.293 "/>
</svg>






