<?xml version="1.0" encoding="iso-8859-1"?>
<svg version="1.1" id="&#x56FE;&#x5C42;_1" xmlns="http://www.w3.org/2000/svg" xmlns:xlink="http://www.w3.org/1999/xlink" x="0px"
	 y="0px" viewBox="0 0 24 24" style="enable-background:new 0 0 24 24;" xml:space="preserve">
<path style="fill:#333333;" d="M20.5,17.5h-17C2.122,17.5,1,16.379,1,15V9c0-1.378,1.122-2.5,2.5-2.5h17C21.879,6.5,23,7.622,23,9v6
	C23,16.379,21.879,17.5,20.5,17.5z M3.5,8.5C3.224,8.5,3,8.724,3,9v6c0,0.275,0.224,0.5,0.5,0.5h17c0.275,0,0.5-0.225,0.5-0.5V9
	c0-0.276-0.225-0.5-0.5-0.5H3.5z"/>
<path style="fill:#333333;" d="M19.5,12.5h-15v-6h15V12.5z M6.5,10.5h11v-2h-11V10.5z"/>
<rect x="9.5" y="10.5" style="fill:#333333;" width="2" height="1"/>
<rect x="12.5" y="10.5" style="fill:#333333;" width="2" height="1"/>
<rect x="15" y="10.5" style="fill:#333333;" width="2" height="1"/>
<rect x="7" y="10.5" style="fill:#333333;" width="2" height="1"/>
<rect x="4" y="6.5" style="fill:#333333;" width="16" height="2"/>
</svg>






