<?xml version="1.0" encoding="iso-8859-1"?>
<svg version="1.1" id="&#x56FE;&#x5C42;_1" xmlns="http://www.w3.org/2000/svg" xmlns:xlink="http://www.w3.org/1999/xlink" x="0px"
	 y="0px" viewBox="0 0 24 24" style="enable-background:new 0 0 24 24;" xml:space="preserve">
<path style="fill:#333333;" d="M16.5,17.5h-9c-4.349,0-6.625-2.767-6.625-5.5c0-2.733,2.276-5.5,6.625-5.5h9
	c4.35,0,6.625,2.767,6.625,5.5C23.125,14.733,20.85,17.5,16.5,17.5z M7.5,8.5c-3.178,0-4.625,1.814-4.625,3.5s1.447,3.5,4.625,3.5h9
	c3.178,0,4.625-1.814,4.625-3.5S19.678,8.5,16.5,8.5H7.5z"/>
<rect x="9.5" y="10.5" style="fill:#333333;" width="2" height="3"/>
<rect x="12.5" y="10.5" style="fill:#333333;" width="2" height="3"/>
<rect x="15.5" y="10.5" style="fill:#333333;" width="2" height="3"/>
<rect x="6.5" y="10.5" style="fill:#333333;" width="2" height="3"/>
<rect x="6" y="11" style="fill:#333333;" width="12" height="2"/>
</svg>






