<?xml version="1.0" encoding="iso-8859-1"?>
<svg version="1.1" id="&#x56FE;&#x5C42;_1" xmlns="http://www.w3.org/2000/svg" xmlns:xlink="http://www.w3.org/1999/xlink" x="0px"
	 y="0px" viewBox="0 0 24 24" style="enable-background:new 0 0 24 24;" xml:space="preserve">
<path style="fill:#333333;" d="M12,12c-2.206,0-4-1.794-4-4s1.794-4,4-4c2.206,0,4,1.794,4,4S14.206,12,12,12z M12,6
	c-1.103,0-2,0.897-2,2s0.897,2,2,2c1.103,0,2-0.897,2-2S13.103,6,12,6z"/>
<path style="fill:#333333;" d="M19,18h-2c0-2.757-2.243-5-5-5s-5,2.243-5,5H5c0-3.859,3.14-7,7-7C15.859,11,19,14.141,19,18z"/>
<polygon style="fill:#333333;" points="23,6 21,6 21,3 18,3 18,1 23,1 "/>
<polygon style="fill:#333333;" points="3,6 1,6 1,1 6,1 6,3 3,3 "/>
<polygon style="fill:#333333;" points="23,23 18,23 18,21 21,21 21,18 23,18 "/>
<polygon style="fill:#333333;" points="6,23 1,23 1,18 3,18 3,21 6,21 "/>
</svg>






