<?xml version="1.0" encoding="iso-8859-1"?>
<svg version="1.1" id="&#x56FE;&#x5C42;_1" xmlns="http://www.w3.org/2000/svg" xmlns:xlink="http://www.w3.org/1999/xlink" x="0px"
	 y="0px" viewBox="0 0 24 24" style="enable-background:new 0 0 24 24;" xml:space="preserve">
<path style="fill:#333333;" d="M12.25,15.75c-3.219,0-4.054-3.618-4.725-6.525c-0.548-2.377-0.303-4.307,0.709-5.58
	C9.104,2.554,10.455,2,12.25,2c1.637,0,2.896,0.501,3.744,1.49c1.05,1.224,1.384,3.129,0.994,5.662l0,0
	C16.315,13.53,14.722,15.75,12.25,15.75z M12.25,4c-1.155,0-1.979,0.3-2.45,0.891C9.189,5.659,9.074,7.038,9.475,8.775
	c0.761,3.299,1.399,4.975,2.775,4.975c1.747,0,2.48-3.071,2.762-4.902v0c0.293-1.903,0.107-3.306-0.535-4.056
	C14.02,4.259,13.291,4,12.25,4z"/>
<path style="fill:#333333;" d="M19.987,13.713c-0.233,0-0.474-0.033-0.718-0.099c-0.962-0.26-1.627-0.882-1.875-1.752
	c-0.273-0.965,0.031-2.135,0.76-2.912c0.717-0.764,1.755-1.188,2.765-1.201c-0.207-1.295-0.795-1.452-1.562-1.5
	c-1.154-0.07-1.763,0.114-2.426,0.731l-1.363-1.463c1.076-1.003,2.211-1.372,3.913-1.265c3.025,0.188,3.449,2.635,3.509,4.1
	L23,8.359v0.619c0,1.936-0.562,3.478-1.542,4.229C21.021,13.542,20.521,13.713,19.987,13.713z M20.957,9.743
	c-0.479,0-1,0.208-1.344,0.575c-0.244,0.261-0.377,0.708-0.295,0.997c0.022,0.078,0.074,0.261,0.472,0.368
	c0.255,0.067,0.365,0.002,0.451-0.063c0.295-0.226,0.608-0.886,0.718-1.876C20.959,9.743,20.958,9.743,20.957,9.743z"/>
<path style="fill:#333333;" d="M4.51,13.712c-0.574,0-1.147-0.197-1.663-0.583C1.725,12.291,1,10.671,1,9l0.027-0.607
	c0.216-2.385,1.718-3.986,3.948-4.139C6.228,4.167,7.67,4.167,8.907,5.247L7.593,6.753C7.058,6.287,6.431,6.161,5.112,6.25
	C3.95,6.33,3.42,7.043,3.183,7.766c1.182,0.012,2.463,0.463,3.109,1.22c0.681,0.798,0.946,1.98,0.662,2.942
	c-0.245,0.826-0.857,1.421-1.726,1.679C4.991,13.678,4.75,13.712,4.51,13.712z M3.073,9.756c0.165,0.837,0.579,1.478,0.971,1.771
	c0.332,0.249,0.547,0.184,0.617,0.163C4.928,11.61,5,11.484,5.037,11.359c0.091-0.307-0.031-0.8-0.266-1.076
	C4.496,9.962,3.717,9.75,3.073,9.756z"/>
<rect x="9" y="13.5" style="fill:#333333;" width="2" height="8"/>
<rect x="13.5" y="13.5" style="fill:#333333;" width="2" height="8"/>
</svg>






