<?xml version="1.0" encoding="iso-8859-1"?>
<svg version="1.1" id="&#x56FE;&#x5C42;_1" xmlns="http://www.w3.org/2000/svg" xmlns:xlink="http://www.w3.org/1999/xlink" x="0px"
	 y="0px" viewBox="0 0 24 24" style="enable-background:new 0 0 24 24;" xml:space="preserve">
<path style="fill:#333333;" d="M5.236,13.58l-0.609-1.094c-0.719-1.29-0.667-2.647-0.461-3.75L1.21,9.228l0.312-1.44
	C2.319,4.114,4.679,2.004,7.999,2c0.004,0,0.008,0,0.013,0c1.523,0,2.951,0.454,3.99,0.903C12.938,2.501,14.423,2,16,2h0.001
	c1.571,0,5.344,0.564,6.477,5.788l0.312,1.44l-2.956-0.492c0.207,1.104,0.259,2.461-0.461,3.75l-0.609,1.093l-0.932-0.835
	c-0.877-0.787-2.561-1.88-4.045-2.844C13.142,9.481,12.521,9.079,12,8.722c-0.521,0.356-1.141,0.758-1.785,1.177
	c-1.485,0.964-3.169,2.058-4.047,2.845L5.236,13.58z M12,6.26l0.591,0.433c0.56,0.41,1.397,0.954,2.285,1.53
	c1.033,0.671,2.157,1.401,3.087,2.077c0.047-0.805-0.178-1.625-0.359-2.285l-0.469-1.756l2.93,0.488C19.104,4.516,17.385,4,16.001,4
	c0,0,0,0-0.001,0c-1.455,0-2.861,0.566-3.57,0.903L12,5.107l-0.43-0.205C10.861,4.565,9.456,4,8.011,4C8.008,4,8.004,4,8.001,4
	c-1.384,0.002-3.104,0.52-4.065,2.747l2.929-0.488L6.396,8.014C6.215,8.674,5.99,9.495,6.038,10.3
	c0.93-0.677,2.055-1.408,3.088-2.078c0.886-0.576,1.724-1.12,2.283-1.529L12,6.26z"/>
<path style="fill:#333333;" d="M11.028,18.235c-0.937-3.859-0.416-8.834-0.01-10.926l1.963,0.381
	c-0.377,1.943-0.864,6.55-0.01,10.074L11.028,18.235z"/>
<path style="fill:#333333;" d="M18,22H6l-0.811-1.586C6.214,18.996,9.002,17,11.996,17c0.002,0,0.003,0,0.005,0
	c2.799,0.002,4.125,0.82,6.69,3.278L18,22z M8.706,20h6.626c-1.111-0.807-1.948-0.999-3.333-1c-0.001,0-0.002,0-0.003,0
	C10.857,19,9.676,19.435,8.706,20z"/>
</svg>






