<?xml version="1.0" encoding="iso-8859-1"?>
<svg version="1.1" id="&#x56FE;&#x5C42;_1" xmlns="http://www.w3.org/2000/svg" xmlns:xlink="http://www.w3.org/1999/xlink" x="0px"
	 y="0px" viewBox="0 0 24 24" style="enable-background:new 0 0 24 24;" xml:space="preserve">
<path style="fill:#333333;" d="M20,17h-2V5c0-0.923-0.523-2-2-2s-2,1.077-2,2v6.25h-2V5c0-1.988,1.374-4,4-4s4,2.012,4,4V17z"/>
<path style="fill:#333333;" d="M23.133,21h-8.266l0.625-5h7.016L23.133,21z M17.133,19h3.734l-0.125-1h-3.484L17.133,19z"/>
<path style="fill:#333333;" d="M12.943,21H5v-2h7v-7.373C12,8.524,9.476,6,6.373,6C5.34,6,4.5,6.84,4.5,7.873V14.5h-2V7.873
	C2.5,5.737,4.237,4,6.373,4C10.578,4,14,7.422,14,11.627v9.316L12.943,21z"/>
<path style="fill:#333333;" d="M5,21c-2.206,0-4-1.794-4-4s1.794-4,4-4s4,1.794,4,4S7.206,21,5,21z M5,15c-1.103,0-2,0.897-2,2
	s0.897,2,2,2s2-0.897,2-2S6.103,15,5,15z"/>
<rect x="6" y="5" style="fill:#333333;" width="2" height="9.5"/>
</svg>






