<?xml version="1.0" encoding="iso-8859-1"?>
<svg version="1.1" id="&#x56FE;&#x5C42;_1" xmlns="http://www.w3.org/2000/svg" xmlns:xlink="http://www.w3.org/1999/xlink" x="0px"
	 y="0px" viewBox="0 0 24 24" style="enable-background:new 0 0 24 24;" xml:space="preserve">
<path style="fill:#333333;" d="M17.195,14.646l-0.891-1.791c1.126-0.56,3.409-2.131,3.992-4.065c0.327-1.087,0.265-1.934-0.19-2.588
	c-0.405-0.585-1.125-1.016-2.142-1.283c-0.418-0.11-1.159-0.148-1.706-0.001l-0.518-1.932c0.997-0.268,2.095-0.169,2.731-0.001
	c1.491,0.392,2.593,1.091,3.277,2.077c0.813,1.17,0.969,2.62,0.462,4.305C21.253,12.548,17.608,14.44,17.195,14.646z"/>
<path style="fill:#333333;" d="M14.404,21.711c-0.322-0.001-0.646-0.033-0.967-0.094l0.373-1.965
	c0.721,0.136,1.384,0.032,1.848-0.339c0.403-0.321,0.663-0.779,0.776-1.363c0.116-0.607-0.07-1.241-0.307-1.948
	c-0.232-0.696-0.358-1.638-0.377-2.219l1.998-0.066c0.016,0.45,0.122,1.191,0.275,1.651c0.304,0.904,0.582,1.879,0.373,2.961
	c-0.202,1.051-0.718,1.932-1.491,2.547C16.216,21.43,15.373,21.711,14.404,21.711z"/>
<path style="fill:#333333;" d="M6.078,14.156c-0.135-0.062-3.322-1.579-4.289-4.79C1.282,7.682,1.437,6.233,2.25,5.061
	c0.686-0.986,1.787-1.685,3.275-2.077c0.639-0.167,1.256-0.252,1.835-0.252v2c-0.408,0-0.854,0.063-1.327,0.187
	C5.02,5.186,4.299,5.617,3.894,6.202C3.439,6.856,3.377,7.704,3.704,8.79c0.711,2.362,3.193,3.542,3.218,3.554L6.078,14.156z"/>
<path style="fill:#333333;" d="M9.004,21.75c-1.015,0-1.659-0.35-2.316-0.874c-0.736-0.586-1.236-1.432-1.483-2.513
	c-0.258-1.128,0.074-2.119,0.367-2.994c0.365-1.092,0.287-1.406,0.276-1.438l1.796-0.878c0.336,0.672,0.282,1.582-0.176,2.951
	c-0.229,0.686-0.447,1.333-0.314,1.914c0.144,0.627,0.406,1.097,0.781,1.395C8.365,19.656,8.594,19.75,9,19.75
	c0.061-0.01,0.405-0.104,0.681-0.197l0.639,1.895C9.913,21.585,9.354,21.749,9.004,21.75z"/>
<path style="fill:#333333;" d="M11.75,17.443l-0.721-0.751C10.823,16.479,6,11.407,6,7.188C6,3.255,8.096,1,11.75,1
	s5.75,2.255,5.75,6.188c0,4.22-4.823,9.291-5.028,9.505L11.75,17.443z M11.75,3C9.227,3,8,4.37,8,7.188
	c0,2.384,2.284,5.585,3.75,7.314c1.466-1.729,3.75-4.93,3.75-7.314C15.5,4.37,14.273,3,11.75,3z"/>
<path style="fill:#333333;" d="M12,22.114c-1.197,0-2.296-0.384-3.093-1.081c-0.879-0.773-1.343-1.887-1.343-3.22
	c0-1.173,0.581-2.069,1.093-2.861c0.216-0.334,0.534-0.994,0.675-1.298c0.073-0.273,0.159-0.714,0.143-0.933
	c-0.023-0.324-0.312-0.705-0.567-1.041c-0.238-0.314-0.463-0.611-0.573-0.968C7.948,9.411,8.373,8.751,8.822,8.422
	C8.817,8.179,8.82,7.939,8.841,7.778c0.132-1.018,0.757-1.721,1.593-1.792c0.833-0.072,1.301,0.288,1.564,0.678
	c0.261-0.391,0.729-0.749,1.567-0.677c0.899,0.078,1.481,0.959,1.59,1.79c0.025,0.193,0.037,0.41,0.033,0.654
	c0.696,0.524,0.732,1.563,0.461,2.325c-0.141,0.393-0.396,0.7-0.642,0.997c-0.249,0.3-0.484,0.584-0.514,0.856
	c-0.041,0.372,0.019,0.562,0.178,1.067c0.151,0.478,0.321,0.739,0.604,1.174l0.064,0.1c0.514,0.793,1.095,1.69,1.095,2.864
	c0,1.335-0.464,2.447-1.343,3.218C14.294,21.729,13.195,22.114,12,22.114z M10.243,10.112c0.002,0.008,0.004,0.015,0.007,0.023
	c0.019,0.03,0.153,0.208,0.251,0.337c0.38,0.501,0.901,1.188,0.968,2.103c0.05,0.677-0.187,1.536-0.234,1.702l-0.05,0.137
	c-0.049,0.107-0.493,1.073-0.848,1.623c-0.398,0.615-0.773,1.194-0.773,1.776c0,0.763,0.217,1.324,0.662,1.716
	c0.848,0.742,2.696,0.746,3.55-0.003c0.444-0.389,0.66-0.949,0.66-1.713c0-0.583-0.376-1.163-0.773-1.777L13.6,15.939
	c-0.31-0.475-0.602-0.924-0.827-1.639c-0.193-0.612-0.353-1.12-0.267-1.909c0.095-0.868,0.597-1.474,0.963-1.916
	c0.084-0.102,0.203-0.246,0.265-0.338h-0.635l0.031-0.737c-0.07,0.179-0.144,0.355-0.218,0.523l-1.83-0.001
	c-0.069-0.157-0.137-0.321-0.203-0.487l0.043,0.635L10.243,10.112z"/>
</svg>






