<?xml version="1.0" encoding="iso-8859-1"?>
<svg version="1.1" id="&#x56FE;&#x5C42;_1" xmlns="http://www.w3.org/2000/svg" xmlns:xlink="http://www.w3.org/1999/xlink" x="0px"
	 y="0px" viewBox="0 0 24 24" style="enable-background:new 0 0 24 24;" xml:space="preserve">
<path style="fill:#333333;" d="M19.736,22H4.553c-1.012,0-1.866-0.758-1.986-1.764L1.206,8.795C1.122,8.086,1.346,7.374,1.82,6.84
	S2.975,6,3.689,6H5v2H3.689C3.493,8,3.371,8.105,3.315,8.168C3.259,8.23,3.169,8.365,3.192,8.56L4.553,20h15.184l1.109-11.452
	c0.019-0.192-0.072-0.323-0.128-0.385C20.662,8.103,20.54,8,20.348,8H19V6h1.348c0.703,0,1.378,0.298,1.851,0.819
	c0.473,0.521,0.705,1.221,0.638,1.921l-1.108,11.453C21.628,21.224,20.771,22,19.736,22z"/>
<rect x="2.5" y="10" style="fill:#333333;" width="19" height="2"/>
<rect x="7.5" y="13.5" style="fill:#333333;" width="9" height="2"/>
<rect x="8.5" y="17" style="fill:#333333;" width="7" height="2"/>
<path style="fill:#333333;" d="M16.987,12H7.019L7,10.733C7,5.836,9.196,2,12,2s5,3.836,5,8.733L16.987,12z M9.02,10h5.961
	C14.796,6.52,13.325,4,12,4C10.675,4,9.204,6.52,9.02,10z"/>
</svg>






