<?xml version="1.0" encoding="iso-8859-1"?>
<svg version="1.1" id="&#x56FE;&#x5C42;_1" xmlns="http://www.w3.org/2000/svg" xmlns:xlink="http://www.w3.org/1999/xlink" x="0px"
	 y="0px" viewBox="0 0 24 24" style="enable-background:new 0 0 24 24;" xml:space="preserve">
<polygon style="fill:#333333;" points="16,16.5 14,16.5 14,3 10,3 10,16.484 8,16.484 8,1 16,1 "/>
<rect x="12.5" y="6" style="fill:#333333;" width="2.5" height="2"/>
<rect x="12.5" y="9" style="fill:#333333;" width="2.5" height="2"/>
<path style="fill:#333333;" d="M12,23c-2.206,0-4-1.862-4-4.15v-3.355l8,0.043v3.312C16,21.138,14.206,23,12,23z M10,17.506v1.344
	c0,1.186,0.897,2.15,2,2.15c1.103,0,2-0.965,2-2.15v-1.322L10,17.506z"/>
</svg>






