<?xml version="1.0" encoding="iso-8859-1"?>
<svg version="1.1" id="&#x56FE;&#x5C42;_1" xmlns="http://www.w3.org/2000/svg" xmlns:xlink="http://www.w3.org/1999/xlink" x="0px"
	 y="0px" viewBox="0 0 24 24" style="enable-background:new 0 0 24 24;" xml:space="preserve">
<g>
	<defs>
		<rect id="SVGID_1_" width="24" height="24"/>
	</defs>
	<clipPath id="SVGID_00000020382635076446933780000002171738156072211382_">
		<use xlink:href="#SVGID_1_"  style="overflow:visible;"/>
	</clipPath>
	<g style="clip-path:url(#SVGID_00000020382635076446933780000002171738156072211382_);">
		<path style="fill:#333333;" d="M9.5,22.058c-2.361,0-4.737-0.851-6.406-2.335C1.744,18.522,1,17.022,1,15.5
			c0-2.914,1.484-5.023,4.179-5.938c0.334-0.114,0.645-0.204,0.942-0.289c1.007-0.29,1.673-0.481,2.672-1.48
			c0.415-0.415,0.721-1.064,1.045-1.752c0.676-1.432,1.516-3.213,3.845-3.99c1.804-0.601,3.792-0.433,5.457,0.458
			c1.64,0.878,2.82,2.379,3.324,4.228c1.106,4.06-1.933,8.886-3.196,10.404c-2.352,2.821-5.262,4.454-8.652,4.853
			C10.247,22.037,9.874,22.058,9.5,22.058z M15.881,3.695c-0.527,0-1.057,0.084-1.564,0.253c-1.518,0.506-2.052,1.636-2.669,2.945
			c-0.383,0.812-0.779,1.652-1.44,2.313c-1.364,1.364-2.418,1.667-3.533,1.989c-0.269,0.077-0.55,0.158-0.853,0.26
			C3.923,12.101,3,13.424,3,15.5c0,0.943,0.505,1.912,1.423,2.729c1.519,1.351,3.8,2.031,5.96,1.778
			c2.864-0.337,5.336-1.732,7.348-4.147c1.266-1.518,3.616-5.617,2.804-8.596c-0.357-1.313-1.188-2.375-2.339-2.991
			C17.482,3.89,16.684,3.695,15.881,3.695z"/>
		<path style="fill:#333333;" d="M9.195,13.374c-1.292,0-2.729-0.633-3.983-2.236l1.576-1.231c1.379,1.765,2.78,1.685,3.56,1.077
			c1.006-0.783,1.282-2.535-0.139-4.371l1.582-1.225c2.198,2.841,1.53,5.816-0.215,7.174C10.929,13.065,10.098,13.374,9.195,13.374z
			"/>
		<path style="fill:#333333;" d="M5.822,11.456L5.179,9.562c0.334-0.114,0.645-0.204,0.942-0.289c1.007-0.29,1.673-0.481,2.672-1.48
			c0.415-0.416,0.722-1.065,1.046-1.752c0.675-1.432,1.516-3.213,3.844-3.989l0.633,1.897c-1.518,0.506-2.051,1.636-2.668,2.945
			c-0.383,0.812-0.779,1.652-1.441,2.313c-1.363,1.364-2.417,1.667-3.533,1.988C6.406,11.273,6.125,11.354,5.822,11.456z"/>
	</g>
</g>
</svg>






