<?xml version="1.0" encoding="iso-8859-1"?>
<svg version="1.1" id="&#x56FE;&#x5C42;_1" xmlns="http://www.w3.org/2000/svg" xmlns:xlink="http://www.w3.org/1999/xlink" x="0px"
	 y="0px" viewBox="0 0 24 24" style="enable-background:new 0 0 24 24;" xml:space="preserve">
<path style="fill:#333333;" d="M17,21H3c-1.103,0-2-0.897-2-2V5c0-1.103,0.897-2,2-2h14c1.103,0,2,0.897,2,2v2.5l2.4-1.8L23,6.5V18
	l-1.6,0.8L19,17v2C19,20.103,18.103,21,17,21z M3,5v14h14v-4l1.6-0.8L21,16V8.5l-2.4,1.8L17,9.5V5H3z"/>
<path style="fill:#333333;" d="M8.5,14C6.57,14,5,12.43,5,10.5S6.57,7,8.5,7S12,8.57,12,10.5S10.43,14,8.5,14z M8.5,9
	C7.673,9,7,9.673,7,10.5S7.673,12,8.5,12s1.5-0.673,1.5-1.5S9.327,9,8.5,9z"/>
</svg>






