<?xml version="1.0" encoding="iso-8859-1"?>
<svg version="1.1" id="&#x56FE;&#x5C42;_1" xmlns="http://www.w3.org/2000/svg" xmlns:xlink="http://www.w3.org/1999/xlink" x="0px"
	 y="0px" viewBox="0 0 24 24" style="enable-background:new 0 0 24 24;" xml:space="preserve">
<path style="fill:#333333;" d="M16.5,21.5H3c-1.103,0-2-0.897-2-2v-8c0-1.103,0.897-2,2-2h13.5c1.103,0,2,0.897,2,2v8
	C18.5,20.603,17.603,21.5,16.5,21.5z M3,11.5H2.999L3,19.5h13.5v-8H3z"/>
<path style="fill:#333333;" d="M15.5,18.5H9v-6h6.5V18.5z M11,16.5h2.5v-2H11V16.5z"/>
<path style="fill:#333333;" d="M13.5,10C11.57,10,10,8.43,10,6.5S11.57,3,13.5,3S17,4.57,17,6.5S15.43,10,13.5,10z M13.5,5
	C12.673,5,12,5.673,12,6.5S12.673,8,13.5,8S15,7.327,15,6.5S14.327,5,13.5,5z"/>
<path style="fill:#333333;" d="M6.5,10C4.57,10,3,8.43,3,6.5S4.57,3,6.5,3S10,4.57,10,6.5S8.43,10,6.5,10z M6.5,5
	C5.673,5,5,5.673,5,6.5S5.673,8,6.5,8S8,7.327,8,6.5S7.327,5,6.5,5z"/>
<polygon style="fill:#333333;" points="23,21.039 17.094,18.414 17.906,16.586 21,17.961 21,13.039 17.906,14.414 17.094,12.586 
	23,9.961 "/>
</svg>






