<?xml version="1.0" encoding="iso-8859-1"?>
<svg version="1.1" id="&#x56FE;&#x5C42;_1" xmlns="http://www.w3.org/2000/svg" xmlns:xlink="http://www.w3.org/1999/xlink" x="0px"
	 y="0px" viewBox="0 0 24 24" style="enable-background:new 0 0 24 24;" xml:space="preserve">
<path style="fill:#333333;" d="M17,19.5H3c-1.103,0-2-0.897-2-2v-11c0-1.103,0.897-2,2-2h14c1.103,0,2,0.897,2,2v11
	C19,18.603,18.103,19.5,17,19.5z M3,6.5H2.999L3,17.5h14v-11H3z"/>
<path style="fill:#333333;" d="M10,16c-2.206,0-4-1.794-4-4c0-2.206,1.794-4,4-4c2.206,0,4,1.794,4,4C14,14.206,12.206,16,10,16z
	 M10,10c-1.103,0-2,0.897-2,2c0,1.103,0.897,2,2,2s2-0.897,2-2C12,10.897,11.103,10,10,10z"/>
<polygon style="fill:#333333;" points="23,18.118 17.553,15.395 18.447,13.605 21,14.882 21,9.118 18.447,10.395 17.553,8.605 
	23,5.882 "/>
</svg>






