<?xml version="1.0" encoding="iso-8859-1"?>
<svg version="1.1" id="&#x56FE;&#x5C42;_1" xmlns="http://www.w3.org/2000/svg" xmlns:xlink="http://www.w3.org/1999/xlink" x="0px"
	 y="0px" viewBox="0 0 24 24" style="enable-background:new 0 0 24 24;" xml:space="preserve">
<path style="fill:#333333;" d="M21,21H3c-1.103,0-2-0.897-2-2V5c0-1.103,0.897-2,2-2h18c1.103,0,2,0.897,2,2v14
	C23,20.103,22.103,21,21,21z M3,5v14h18V5H3z"/>
<rect x="17" y="4" style="fill:#333333;" width="2" height="16"/>
<rect x="5" y="4" style="fill:#333333;" width="2" height="16"/>
<rect x="19" y="8" style="fill:#333333;" width="3" height="2"/>
<rect x="19" y="14" style="fill:#333333;" width="3" height="2"/>
<rect x="2" y="8" style="fill:#333333;" width="3" height="2"/>
<rect x="1" y="8" style="fill:#333333;" width="2" height="2"/>
<rect x="4.5" y="3" style="fill:#333333;" width="3" height="2"/>
<rect x="4.5" y="19" style="fill:#333333;" width="3" height="2"/>
<rect x="16.5" y="3" style="fill:#333333;" width="3" height="2"/>
<rect x="16.5" y="19" style="fill:#333333;" width="3" height="2"/>
<rect x="2" y="14" style="fill:#333333;" width="3" height="2"/>
<rect x="1" y="14" style="fill:#333333;" width="2" height="2"/>
<rect x="21" y="14" style="fill:#333333;" width="2" height="2"/>
<rect x="21" y="8" style="fill:#333333;" width="2" height="2"/>
<path style="fill:#333333;" d="M11.03,15.348L9.5,14.5v-5l1.53-0.848L16.387,12L11.03,15.348z M11.5,11.304v1.391L12.613,12
	L11.5,11.304z"/>
</svg>






