<?xml version="1.0" encoding="iso-8859-1"?>
<svg version="1.1" id="&#x56FE;&#x5C42;_1" xmlns="http://www.w3.org/2000/svg" xmlns:xlink="http://www.w3.org/1999/xlink" x="0px"
	 y="0px" viewBox="0 0 24 24" style="enable-background:new 0 0 24 24;" xml:space="preserve">
<path style="fill:#333333;" d="M12,15.5c-3.86,0-7-3.141-7-7c0-3.86,3.14-7,7-7c3.859,0,7,3.14,7,7C19,12.359,15.859,15.5,12,15.5z
	 M12,3.5c-2.757,0-5,2.243-5,5s2.243,5,5,5s5-2.243,5-5S14.757,3.5,12,3.5z"/>
<path style="fill:#333333;" d="M8,22.5c-3.86,0-7-3.141-7-7c0-3.86,3.14-7,7-7s7,3.14,7,7C15,19.359,11.86,22.5,8,22.5z M8,10.5
	c-2.757,0-5,2.243-5,5s2.243,5,5,5s5-2.243,5-5S10.757,10.5,8,10.5z"/>
<path style="fill:#333333;" d="M16,22.5c-3.859,0-7-3.141-7-7s3.141-7,7-7s7,3.14,7,7S19.859,22.5,16,22.5z M16,10.5
	c-2.757,0-5,2.243-5,5s2.243,5,5,5s5-2.243,5-5S18.757,10.5,16,10.5z"/>
</svg>






