<?xml version="1.0" encoding="iso-8859-1"?>
<svg version="1.1" id="&#x56FE;&#x5C42;_1" xmlns="http://www.w3.org/2000/svg" xmlns:xlink="http://www.w3.org/1999/xlink" x="0px"
	 y="0px" viewBox="0 0 24 24" style="enable-background:new 0 0 24 24;" xml:space="preserve">
<path style="fill:#333333;" d="M4,8H2V4c0-1.103,0.897-2,2-2h4v2H4V8z"/>
<path style="fill:#333333;" d="M8,22H4c-1.103,0-2-0.897-2-2v-4h2v4h4V22z"/>
<path style="fill:#333333;" d="M20,22h-4v-2h4v-4h2v4C22,21.103,21.103,22,20,22z"/>
<path style="fill:#333333;" d="M22,8h-2V4h-4V2h4c1.103,0,2,0.897,2,2V8z"/>
<path style="fill:#333333;" d="M18.5,17.5h-13V8h3.465l1-1.5h4.07l1,1.5H18.5V17.5z M7.5,15.5h9V10h-2.535l-1-1.5h-1.93l-1,1.5H7.5
	V15.5z"/>
<path style="fill:#333333;" d="M12,15c-1.378,0-2.5-1.121-2.5-2.5c0-1.378,1.122-2.5,2.5-2.5c1.379,0,2.5,1.122,2.5,2.5
	C14.5,13.879,13.379,15,12,15z M12,12c-0.276,0-0.5,0.225-0.5,0.5S11.724,13,12,13c0.275,0,0.5-0.225,0.5-0.5S12.275,12,12,12z"/>
</svg>






