<?xml version="1.0" encoding="iso-8859-1"?>
<svg version="1.1" id="&#x56FE;&#x5C42;_1" xmlns="http://www.w3.org/2000/svg" xmlns:xlink="http://www.w3.org/1999/xlink" x="0px"
	 y="0px" viewBox="0 0 24 24" style="enable-background:new 0 0 24 24;" xml:space="preserve">
<path style="fill:#333333;" d="M19.5,22h-15C3.122,22,2,20.879,2,19.5v-15C2,3.122,3.122,2,4.5,2h15C20.879,2,22,3.122,22,4.5v15
	C22,20.879,20.879,22,19.5,22z M4.5,4C4.224,4,4,4.224,4,4.5v15C4,19.775,4.224,20,4.5,20h15c0.275,0,0.5-0.225,0.5-0.5v-15
	C20,4.224,19.775,4,19.5,4H4.5z"/>
<path style="fill:#333333;" d="M11.5,11.5h-6v-6h6V11.5z M7.5,9.5h2v-2h-2V9.5z"/>
<path style="fill:#333333;" d="M11.5,18.5h-6v-6h6V18.5z M7.5,16.5h2v-2h-2V16.5z"/>
<rect x="13.5" y="13" style="fill:#333333;" width="4" height="2"/>
<rect x="13.5" y="16.5" style="fill:#333333;" width="4" height="2"/>
<rect x="13.5" y="5.5" style="fill:#333333;" width="4" height="2"/>
<rect x="13.5" y="9" style="fill:#333333;" width="4" height="2"/>
</svg>






