<?xml version="1.0" encoding="iso-8859-1"?>
<svg version="1.1" id="&#x56FE;&#x5C42;_1" xmlns="http://www.w3.org/2000/svg" xmlns:xlink="http://www.w3.org/1999/xlink" x="0px"
	 y="0px" viewBox="0 0 24 24" style="enable-background:new 0 0 24 24;" xml:space="preserve">
<path style="fill:#333333;" d="M12,23.062c-5.307,0-9.625-4.264-9.625-9.505c0-2.685,1.197-4.757,2.423-6.649
	c0.039-0.06,0.955-1.466,1.779-2.01c0.33-0.218,0.719-0.262,1.07-0.12c0.375,0.153,0.566,0.445,0.679,0.739
	c0.35-0.252,0.696-0.561,0.936-0.874c0.433-0.567,0.892-1.815,0.892-2.429c0-0.588,0.347-1.069,0.883-1.226
	c1.306-0.377,3.218,1.533,4.157,3.012c0.461,0.727,0.67,1.532,0.758,2.285c0.109-0.246,0.185-0.455,0.2-0.583V4.234l1.365,0.568
	c0.674,0.265,1.293,1.046,1.921,1.892c0.358,0.481,0.742,1.039,1.032,1.736l0.183,0.423c0.151,0.344,0.28,0.638,0.43,1.102
	c0.36,1.115,0.543,2.327,0.543,3.603C21.625,18.799,17.308,23.062,12,23.062z M6.886,7.419C6.742,7.606,6.6,7.805,6.477,7.995
	c-1.107,1.71-2.102,3.422-2.102,5.562c0,4.139,3.42,7.505,7.625,7.505c4.204,0,7.625-3.366,7.625-7.505
	c0-1.081-0.146-2.059-0.446-2.988c-0.124-0.384-0.231-0.626-0.356-0.91L18.624,9.2c-0.207-0.496-0.492-0.91-0.771-1.284
	c-0.102-0.137-0.196-0.263-0.285-0.377c-0.565,1.165-1.442,2.41-2.179,2.582c-0.347,0.08-0.696-0.001-0.964-0.223
	c-0.492-0.408-0.468-1.01-0.437-1.772c0.035-0.855,0.089-2.148-0.484-3.051c-0.489-0.771-1.067-1.354-1.514-1.718
	c-0.237,0.939-0.7,1.926-1.141,2.503c-0.694,0.907-1.747,1.605-2.437,1.927c-0.36,0.17-0.745,0.17-1.083,0.002
	C7.14,7.694,6.996,7.564,6.886,7.419z"/>
<g>
	<path style="fill:#333333;" d="M9.648,11.866v4.369c0,0.519,0.42,0.939,0.939,0.939c0.174,0,0.344-0.048,0.493-0.14l4.193-2.584
		c0.221-0.136,0.289-0.425,0.153-0.646c-0.038-0.062-0.091-0.115-0.153-0.153l-4.193-2.584c-0.441-0.272-1.02-0.135-1.292,0.307
		C9.696,11.522,9.648,11.692,9.648,11.866z"/>
	<path style="fill:#333333;" d="M10.587,18.174c-1.069,0-1.939-0.869-1.939-1.938v-4.369c0-0.359,0.1-0.71,0.288-1.017
		c0.272-0.441,0.699-0.75,1.203-0.87c0.504-0.119,1.025-0.035,1.465,0.236l4.193,2.584c0.188,0.115,0.355,0.28,0.477,0.475
		c0.429,0.696,0.213,1.604-0.478,2.027l-4.192,2.584C11.3,18.074,10.947,18.174,10.587,18.174z M10.648,11.976v4.15l3.367-2.075
		L10.648,11.976z M14.747,14.502c0.002,0.001,0.004,0.002,0.005,0.003L14.747,14.502z"/>
</g>
</svg>






