<?xml version="1.0" encoding="iso-8859-1"?>
<svg version="1.1" id="&#x56FE;&#x5C42;_1" xmlns="http://www.w3.org/2000/svg" xmlns:xlink="http://www.w3.org/1999/xlink" x="0px"
	 y="0px" viewBox="0 0 24 24" style="enable-background:new 0 0 24 24;" xml:space="preserve">
<path style="fill:#333333;" d="M12,21.244c-0.43,0-0.84-0.185-1.125-0.507L1.519,10.131c-0.695-0.714-0.71-1.858-0.003-2.625v0
	l4.006-4.347C5.908,2.74,6.462,2.5,7.041,2.5h9.918c0.58,0,1.134,0.24,1.52,0.659l4.005,4.347c0.708,0.767,0.693,1.911-0.036,2.661
	l-9.322,10.57C12.84,21.06,12.43,21.244,12,21.244z M3.026,8.818L12,18.988l8.98-10.181l-3.974-4.294L7.041,4.5L3.026,8.818z
	 M2.987,8.861L2.987,8.861L2.987,8.861L2.987,8.861z M2.987,8.773L2.987,8.773L2.987,8.773z"/>
<polygon style="fill:#333333;" points="12,16.005 7.252,10.665 8.748,9.335 12,12.995 15.253,9.335 16.747,10.665 "/>
</svg>






