<?xml version="1.0" encoding="iso-8859-1"?>
<svg version="1.1" id="&#x56FE;&#x5C42;_1" xmlns="http://www.w3.org/2000/svg" xmlns:xlink="http://www.w3.org/1999/xlink" x="0px"
	 y="0px" viewBox="0 0 24 24" style="enable-background:new 0 0 24 24;" xml:space="preserve">
<path style="fill:#333333;" d="M12.561,22.328l-1.122-1.656c7.353-4.982,8.708-7.494,8.548-8.724C19.696,9.692,17.52,9.5,15.117,9.5
	c-0.007,0-0.014,0-0.021,0L15,8.5l0.096-1c2.103-0.012,6.335-0.002,6.876,4.192C22.321,14.4,19.419,17.681,12.561,22.328z M15,8.5
	v-1V8.5z"/>
<path style="fill:#333333;" d="M8,5.5c0,0.552,0.448,1,1,1s1-0.448,1-1H8z M2,5.5c0,0.552,0.448,1,1,1s1-0.448,1-1H2z M4,5.5
	c0-1.105,0.895-2,2-2v-2c-2.209,0-4,1.791-4,4H4z M6,3.5c1.105,0,2,0.895,2,2h2c0-2.209-1.791-4-4-4V3.5z"/>
<path style="fill:#333333;" d="M14,5.5c0,0.552,0.448,1,1,1s1-0.448,1-1H14z M8,5.5c0,0.552,0.448,1,1,1s1-0.448,1-1H8z M10,5.5
	c0-1.105,0.895-2,2-2v-2c-2.209,0-4,1.791-4,4H10z M12,3.5c1.105,0,2,0.895,2,2h2c0-2.209-1.791-4-4-4V3.5z"/>
<rect x="2" y="5.5" style="fill:#333333;" width="2" height="9"/>
<rect x="8" y="5.5" style="fill:#333333;" width="2" height="9"/>
<path style="fill:#333333;" d="M21,20.5c-6.318,0-7-4.196-7-6v-9h2v9c0,2.691,1.636,4,5,4V20.5z"/>
</svg>






