<?xml version="1.0" encoding="iso-8859-1"?>
<svg version="1.1" id="&#x56FE;&#x5C42;_1" xmlns="http://www.w3.org/2000/svg" xmlns:xlink="http://www.w3.org/1999/xlink" x="0px"
	 y="0px" viewBox="0 0 24 24" style="enable-background:new 0 0 24 24;" xml:space="preserve">
<path style="fill:#333333;" d="M21.5,21h-6.914l-2.583-2.585L9.414,21H2.5C1.673,21,1,20.327,1,19.5v-11C1,7.673,1.673,7,2.5,7h19
	C22.327,7,23,7.673,23,8.5v11C23,20.327,22.327,21,21.5,21z M15.414,19H21V9H3v10h5.586l3.418-3.413L15.414,19z"/>
<path style="fill:#333333;" d="M7,17c-1.654,0-3-1.346-3-3s1.346-3,3-3s3,1.346,3,3S8.654,17,7,17z M7,13c-0.551,0-1,0.448-1,1
	s0.449,1,1,1s1-0.448,1-1S7.551,13,7,13z"/>
<path style="fill:#333333;" d="M17,17c-1.654,0-3-1.346-3-3s1.346-3,3-3s3,1.346,3,3S18.654,17,17,17z M17,13c-0.552,0-1,0.448-1,1
	s0.448,1,1,1s1-0.448,1-1S17.552,13,17,13z"/>
<path style="fill:none;" d="M3,5h18H3z"/>
<rect x="3" y="4" style="fill:#333333;" width="18" height="2"/>
</svg>






