<?xml version="1.0" encoding="iso-8859-1"?>
<svg version="1.1" id="&#x56FE;&#x5C42;_1" xmlns="http://www.w3.org/2000/svg" xmlns:xlink="http://www.w3.org/1999/xlink" x="0px"
	 y="0px" viewBox="0 0 24 24" style="enable-background:new 0 0 24 24;" xml:space="preserve">
<path style="fill:#333333;" d="M5.5,16.5C3.019,16.5,1,14.481,1,12s2.019-4.5,4.5-4.5S10,9.519,10,12S7.981,16.5,5.5,16.5z M5.5,9.5
	C4.122,9.5,3,10.622,3,12c0,1.379,1.122,2.5,2.5,2.5S8,13.379,8,12C8,10.622,6.878,9.5,5.5,9.5z"/>
<path style="fill:#333333;" d="M18.5,16.5c-2.481,0-4.5-2.019-4.5-4.5s2.019-4.5,4.5-4.5S23,9.519,23,12S20.981,16.5,18.5,16.5z
	 M18.5,9.5c-1.379,0-2.5,1.122-2.5,2.5c0,1.379,1.121,2.5,2.5,2.5S21,13.379,21,12C21,10.622,19.879,9.5,18.5,9.5z"/>
<rect x="6" y="14.5" style="fill:#333333;" width="12" height="2"/>
</svg>






