<?xml version="1.0" encoding="iso-8859-1"?>
<svg version="1.1" id="&#x56FE;&#x5C42;_1" xmlns="http://www.w3.org/2000/svg" xmlns:xlink="http://www.w3.org/1999/xlink" x="0px"
	 y="0px" viewBox="0 0 24 24" style="enable-background:new 0 0 24 24;" xml:space="preserve">
<path style="fill:#333333;" d="M8,22c-3.86,0-7-3.141-7-7h2c0,2.757,2.243,5,5,5c2.667,0,4.118-1.517,4.552-2.816l3.992-12.978
	l1.921,0.031l4.5,16.5l-1.93,0.525L17.442,8.088l-2.986,9.706C13.806,19.746,11.73,22,8,22z"/>
<rect x="14.27" y="14" style="fill:#333333;" width="6.094" height="2"/>
<path style="fill:#333333;" d="M8,19c-2.206,0-4-1.794-4-4V7.5c0-2.206,1.794-4,4-4s4,1.794,4,4V15C12,17.206,10.206,19,8,19z
	 M8,5.5c-1.103,0-2,0.897-2,2V15c0,1.103,0.897,2,2,2s2-0.897,2-2V7.5C10,6.397,9.103,5.5,8,5.5z"/>
</svg>






