<?xml version="1.0" encoding="iso-8859-1"?>
<svg version="1.1" id="&#x56FE;&#x5C42;_1" xmlns="http://www.w3.org/2000/svg" xmlns:xlink="http://www.w3.org/1999/xlink" x="0px"
	 y="0px" viewBox="0 0 24 24" style="enable-background:new 0 0 24 24;" xml:space="preserve">
<path style="fill:#333333;" d="M12,16.5c-2.481,0-4.5-2.019-4.5-4.5V5.5C7.5,3.019,9.519,1,12,1s4.5,2.019,4.5,4.5V12
	C16.5,14.481,14.481,16.5,12,16.5z M12,3c-1.378,0-2.5,1.122-2.5,2.5V12c0,1.379,1.122,2.5,2.5,2.5c1.379,0,2.5-1.121,2.5-2.5V5.5
	C14.5,4.122,13.379,3,12,3z"/>
<path style="fill:#333333;" d="M12,20c-4.687,0-8.5-3.813-8.5-8.5h2c0,3.584,2.916,6.5,6.5,6.5c0.743,0,1.473-0.124,2.167-0.37
	l0.666,1.887C13.925,19.837,12.971,20,12,20z M19.792,14.9L17.96,14.1c0.358-0.821,0.54-1.695,0.54-2.6h2
	C20.5,12.682,20.262,13.825,19.792,14.9z"/>
<rect x="11" y="19" style="fill:#333333;" width="2" height="3"/>
<rect x="11" y="-0.728" transform="matrix(0.7071 -0.7071 0.7071 0.7071 -4.9706 12)" style="fill:#333333;" width="2" height="25.456"/>
</svg>






