<?xml version="1.0" encoding="iso-8859-1"?>
<svg version="1.1" id="&#x56FE;&#x5C42;_1" xmlns="http://www.w3.org/2000/svg" xmlns:xlink="http://www.w3.org/1999/xlink" x="0px"
	 y="0px" viewBox="0 0 24 24" style="enable-background:new 0 0 24 24;" xml:space="preserve">
<path style="fill:#333333;" d="M12.018,22.998c-4.28,0-8.36-2.517-10.141-6.702c-1.148-2.702-1.174-5.69-0.072-8.415
	c1.102-2.723,3.197-4.855,5.9-6.004c2.703-1.149,5.693-1.174,8.417-0.072c2.725,1.102,4.856,3.198,6.003,5.9
	c2.366,5.579-0.248,12.047-5.829,14.417C14.9,22.717,13.447,22.998,12.018,22.998z M11.998,2.998c-1.191,0-2.381,0.24-3.51,0.72
	c-2.212,0.94-3.927,2.685-4.828,4.913c-0.902,2.229-0.881,4.673,0.059,6.882c1.943,4.57,7.237,6.708,11.796,4.771h0.001
	c4.565-1.94,6.705-7.232,4.769-11.796c-0.938-2.211-2.682-3.926-4.911-4.828C14.281,3.218,13.139,2.998,11.998,2.998z"/>
<path style="fill:#333333;" d="M11.469,12.847C7.992,10.666,6.205,6.625,7.022,2.792l1.956,0.417
	c-0.643,3.015,0.785,6.208,3.553,7.944L11.469,12.847z"/>
<path style="fill:#333333;" d="M6.309,20.951l-0.617-1.902c3.061-0.992,5.194-3.839,5.309-7.084l1.999,0.071
	C12.854,16.117,10.166,19.7,6.309,20.951z"/>
<path style="fill:#333333;" d="M21.349,13.259c-2.444-2.096-6.523-1.912-8.802-0.422l-1.094-1.674
	c3.292-2.154,8.317-1.894,11.199,0.578L21.349,13.259z"/>
<path style="fill:#333333;" d="M9.09,8.807L7.908,7.194c0.256-0.188,6.356-4.574,13.055-1.081l-0.926,1.773
	C14.463,4.976,9.307,8.65,9.09,8.807z"/>
<path style="fill:#333333;" d="M9.627,17.428C9.35,17.316,2.819,14.61,2.501,7.042l1.998-0.084c0.263,6.253,5.647,8.521,5.876,8.615
	L9.627,17.428z"/>
<path style="fill:#333333;" d="M12.396,22.858l-1.073-1.688c5.335-3.393,4.689-9.998,4.683-10.064l1.988-0.214
	C18.029,11.214,18.768,18.808,12.396,22.858z"/>
</svg>






