<?xml version="1.0" encoding="utf-8"?>
<svg version="1.1" id="&#x56FE;&#x5C42;_1" xmlns="http://www.w3.org/2000/svg" xmlns:xlink="http://www.w3.org/1999/xlink" x="0px" y="0px"
	 viewBox="0 0 24 24" style="enable-background:new 0 0 24 24;" xml:space="preserve">
<style type="text/css">
	.st0{fill:#333333;filter:url(#Adobe_OpacityMaskFilter);}
	.st1{mask:url(#icon-49e95f0e6a0e536_00000180363571874358996140000011907131682058628486_);}
	.st2{fill:#333333;}
</style>
<defs>
	<filter id="Adobe_OpacityMaskFilter" filterUnits="userSpaceOnUse" x="15.4" y="9.4" width="5.7" height="5.7">
		<feColorMatrix  type="matrix" values="1 0 0 0 0  0 1 0 0 0  0 0 1 0 0  0 0 0 1 0"/>
	</filter>
</defs>
<mask maskUnits="userSpaceOnUse" x="15.4" y="9.4" width="5.7" height="5.7" id="icon-49e95f0e6a0e536_00000180363571874358996140000011907131682058628486_">
	<rect x="15" y="9" class="st0" width="6.5" height="6.5"/>
</mask>
<g class="st1">
	<rect x="15.2" y="11.3" transform="matrix(0.7071 -0.7071 0.7071 0.7071 -3.3284 16.4943)" class="st2" width="6" height="2"/>
	<rect x="17.2" y="9.3" transform="matrix(0.7071 -0.7071 0.7071 0.7071 -3.3276 16.4939)" class="st2" width="2" height="6"/>
</g>
<path class="st2" d="M13,22h-1c-3.3,0-5.8-3.3-6.7-4.6H3c-1.1,0-2-0.9-2-2V8.5c0-1.1,0.9-2,2-2h2.3C6.2,5.2,8.7,2,12,2h1V22z M3,8.5
	v6.9h3.5l0.3,0.5c0.6,1,2.3,3.3,4.2,3.9V4.2C8.6,4.9,6.8,8,6.8,8L6.5,8.5L3,8.5z"/>
</svg>





