<?xml version="1.0" encoding="iso-8859-1"?>
<svg version="1.1" id="&#x56FE;&#x5C42;_1" xmlns="http://www.w3.org/2000/svg" xmlns:xlink="http://www.w3.org/1999/xlink" x="0px"
	 y="0px" viewBox="0 0 24 24" style="enable-background:new 0 0 24 24;" xml:space="preserve">
<path style="fill:#333333;" d="M13,22h-1c-3.313,0-5.804-3.288-6.656-4.58H3c-1.103,0-2-0.897-2-2V8.505c0-1.103,0.897-2,2-2h2.349
	C6.202,5.232,8.692,2,12,2h1V22z M3,8.505v6.915h3.48l0.289,0.505c0.556,0.973,2.255,3.276,4.231,3.911V4.155
	C8.602,4.888,6.785,7.971,6.765,8.006L6.476,8.504L3,8.505z"/>
<path style="fill:#333333;" d="M16.666,17.246l-1.332-1.492c0.266-0.237,0.507-0.505,0.717-0.795C16.672,14.1,17,13.076,17,12
	c0-1.085-0.334-2.116-0.966-2.981c-0.206-0.282-0.441-0.542-0.7-0.773l1.332-1.491c0.363,0.324,0.694,0.689,0.983,1.084
	C18.533,9.049,19,10.488,19,12c0,1.499-0.459,2.928-1.328,4.131C17.377,16.538,17.039,16.913,16.666,17.246z"/>
<path style="fill:#333333;" d="M17.631,21.451l-1.025-1.717C19.316,18.116,21,15.152,21,12c0-3.142-1.597-6.005-4.272-7.66
	l1.053-1.701C21.049,4.661,23,8.161,23,12C23,15.854,20.942,19.475,17.631,21.451z"/>
</svg>






