<?xml version="1.0" encoding="iso-8859-1"?>
<svg version="1.1" id="&#x56FE;&#x5C42;_1" xmlns="http://www.w3.org/2000/svg" xmlns:xlink="http://www.w3.org/1999/xlink" x="0px"
	 y="0px" viewBox="0 0 24 24" style="enable-background:new 0 0 24 24;" xml:space="preserve">
<path style="fill:#333333;" d="M18.197,6.995L8.99,6.984L8.491,5.118l7.768-4.484l2.806,4.861L18.197,6.995z M12.716,4.989
	l3.749,0.004l-0.938-1.626L12.716,4.989z"/>
<path style="fill:#333333;" d="M21,23H3c-1.103,0-2-0.897-2-2V7c0-1.103,0.897-2,2-2h18c1.103,0,2,0.897,2,2v14
	C23,22.103,22.103,23,21,23z M3,7v14h18V7H3z"/>
<path style="fill:#333333;" d="M23,17.5h-5.375C15.626,17.5,14,15.93,14,14s1.626-3.5,3.625-3.5H23V17.5z M17.625,12.5
	C16.729,12.5,16,13.173,16,14s0.729,1.5,1.625,1.5H21v-3H17.625z"/>
<rect x="21" y="8.25" style="fill:#333333;" width="2" height="12"/>
</svg>






