<?xml version="1.0" encoding="iso-8859-1"?>
<svg version="1.1" id="&#x56FE;&#x5C42;_1" xmlns="http://www.w3.org/2000/svg" xmlns:xlink="http://www.w3.org/1999/xlink" x="0px"
	 y="0px" viewBox="0 0 24 24" style="enable-background:new 0 0 24 24;" xml:space="preserve">
<path style="fill:#333333;" d="M18,22H4.5C3.122,22,2,20.879,2,19.5v-15C2,3.122,3.122,2,4.5,2H18c1.379,0,2.5,1.122,2.5,2.5V8h-2
	V4.5C18.5,4.224,18.275,4,18,4H4.5C4.224,4,4,4.224,4,4.5v15C4,19.775,4.224,20,4.5,20H18c0.275,0,0.5-0.225,0.5-0.5V16h2v3.5
	C20.5,20.879,19.379,22,18,22z"/>
<path style="fill:#333333;" d="M19.5,17h-7c-1.378,0-2.5-1.121-2.5-2.5v-5C10,8.122,11.122,7,12.5,7h7C20.879,7,22,8.122,22,9.5v5
	C22,15.879,20.879,17,19.5,17z M12.5,9C12.225,9,12,9.224,12,9.5v5c0,0.275,0.225,0.5,0.5,0.5h7c0.275,0,0.5-0.225,0.5-0.5v-5
	C20,9.224,19.775,9,19.5,9H12.5z"/>
<circle style="fill:#333333;" cx="15" cy="12" r="1"/>
</svg>






