<?xml version="1.0" encoding="iso-8859-1"?>
<svg version="1.1" id="&#x56FE;&#x5C42;_1" xmlns="http://www.w3.org/2000/svg" xmlns:xlink="http://www.w3.org/1999/xlink" x="0px"
	 y="0px" viewBox="0 0 24 24" style="enable-background:new 0 0 24 24;" xml:space="preserve">
<path style="fill:#333333;" d="M20.5,20.5h-17c-1.103,0-2-0.897-2-2v-11c0-1.103,0.897-2,2-2h17c1.103,0,2,0.897,2,2v11
	C22.5,19.603,21.603,20.5,20.5,20.5z M3.5,7.5H3.499l0.001,11h17v-11H3.5z"/>
<path style="fill:#333333;" d="M22.5,16.5h-11V9h11V16.5z M13.5,14.5h7V11h-7V14.5z"/>
<rect x="20.5" y="9" style="fill:#333333;" width="2" height="7.5"/>
<path style="fill:#333333;" d="M17,6.5h-2c0-1.904-1.25-2-1.5-2H6.25C5.06,4.5,5,5.458,5,5.649V6.5H3V5.649
	C3,4.383,3.866,2.5,6.25,2.5h7.25C14.711,2.5,17,3.336,17,6.5z"/>
<circle style="fill:#333333;" cx="16.75" cy="12.75" r="0.75"/>
</svg>






