<?xml version="1.0" encoding="iso-8859-1"?>
<svg version="1.1" id="&#x56FE;&#x5C42;_1" xmlns="http://www.w3.org/2000/svg" xmlns:xlink="http://www.w3.org/1999/xlink" x="0px"
	 y="0px" viewBox="0 0 24 24" style="enable-background:new 0 0 24 24;" xml:space="preserve">
<rect x="9" y="11" style="fill:#333333;" width="8" height="2"/>
<polygon style="fill:#333333;" points="11.293,15.707 7.586,12 11.293,8.293 12.707,9.707 10.414,12 12.707,14.293 "/>
<path style="fill:#333333;" d="M19,15c-1.654,0-3-1.346-3-3s1.346-3,3-3s3,1.346,3,3S20.654,15,19,15z M19,11c-0.552,0-1,0.449-1,1
	c0,0.552,0.448,1,1,1s1-0.448,1-1C20,11.449,19.552,11,19,11z"/>
<path style="fill:#333333;" d="M12,23C5.935,23,1,18.065,1,12S5.935,1,12,1c2.896,0,5.632,1.117,7.7,3.144
	c0.56,0.549,1.06,1.157,1.487,1.806l-1.67,1.1c-0.35-0.531-0.76-1.028-1.218-1.478C16.607,3.914,14.37,3,12,3c-4.962,0-9,4.038-9,9
	c0,4.963,4.038,9,9,9c2.371,0,4.608-0.913,6.3-2.572c0.458-0.449,0.868-0.946,1.218-1.478l1.67,1.1
	c-0.428,0.649-0.928,1.257-1.487,1.806C17.632,21.884,14.897,23,12,23z"/>
</svg>






