<?xml version="1.0" encoding="iso-8859-1"?>
<svg version="1.1" id="&#x56FE;&#x5C42;_1" xmlns="http://www.w3.org/2000/svg" xmlns:xlink="http://www.w3.org/1999/xlink" x="0px"
	 y="0px" viewBox="0 0 24 24" style="enable-background:new 0 0 24 24;" xml:space="preserve">
<path style="fill:#333333;" d="M19,23H5c-1.103,0-2-0.897-2-2V3c0-1.103,0.897-2,2-2h14c1.103,0,2,0.897,2,2v18
	C21,22.103,20.103,23,19,23z M5,3H4.999L5,21h14V3H5z"/>
<path style="fill:#333333;" d="M19,8H5C3.897,8,3,7.103,3,6V3c0-1.103,0.897-2,2-2h14c1.103,0,2,0.897,2,2v3C21,7.103,20.103,8,19,8
	z M5,3v3.001L19,6V3H5z"/>
<circle style="fill:#333333;" cx="7" cy="4.5" r="1"/>
<circle style="fill:#333333;" cx="10" cy="4.5" r="1"/>
<path style="fill:#333333;" d="M12,19c-2.481,0-4.5-2.019-4.5-4.5S9.519,10,12,10s4.5,2.019,4.5,4.5S14.481,19,12,19z M12,12
	c-1.378,0-2.5,1.121-2.5,2.5S10.622,17,12,17c1.379,0,2.5-1.121,2.5-2.5S13.379,12,12,12z"/>
</svg>






