<?xml version="1.0" encoding="iso-8859-1"?>
<svg version="1.1" id="&#x56FE;&#x5C42;_1" xmlns="http://www.w3.org/2000/svg" xmlns:xlink="http://www.w3.org/1999/xlink" x="0px"
	 y="0px" viewBox="0 0 24 24" style="enable-background:new 0 0 24 24;" xml:space="preserve">
<polygon style="fill:#333333;" points="16.241,23 7.759,23 5.565,15.791 7.479,15.209 9.241,21 14.759,21 16.521,15.209 
	18.436,15.791 "/>
<polygon style="fill:#333333;" points="16.521,8.791 14.759,3 9.241,3 7.479,8.791 5.565,8.209 7.759,1 16.241,1 18.436,8.209 "/>
<path style="fill:#333333;" d="M12,19.5c-2.57,0-4.933-1.294-6.32-3.461C4.908,14.833,4.5,13.437,4.5,12
	c0-1.437,0.408-2.834,1.18-4.039C7.067,5.794,9.43,4.5,12,4.5s4.933,1.294,6.32,3.461C19.092,9.167,19.5,10.563,19.5,12
	c0,1.437-0.407,2.833-1.179,4.039C16.933,18.206,14.57,19.5,12,19.5z M12,6.5c-1.885,0-3.618,0.949-4.636,2.539
	C6.799,9.922,6.5,10.946,6.5,12c0,1.054,0.299,2.077,0.864,2.961C8.382,16.551,10.115,17.5,12,17.5s3.618-0.949,4.637-2.539
	C17.201,14.077,17.5,13.054,17.5,12c0-1.054-0.299-2.078-0.864-2.961C15.618,7.449,13.885,6.5,12,6.5z"/>
<polygon style="fill:#333333;" points="13.293,14.707 11,12.414 11,8.5 13,8.5 13,11.586 14.707,13.293 "/>
</svg>






