<?xml version="1.0" encoding="iso-8859-1"?>
<svg version="1.1" id="&#x56FE;&#x5C42;_1" xmlns="http://www.w3.org/2000/svg" xmlns:xlink="http://www.w3.org/1999/xlink" x="0px"
	 y="0px" viewBox="0 0 24 24" style="enable-background:new 0 0 24 24;" xml:space="preserve">
<path style="fill:#333333;" d="M15.5,7h-2V3h-3v4h-2V3c0-1.103,0.897-2,2-2h3c1.103,0,2,0.897,2,2V7z"/>
<path style="fill:#333333;" d="M13.5,23h-3c-1.103,0-2-0.897-2-2v-4h2v4h3v-4h2v4C15.5,22.103,14.603,23,13.5,23z"/>
<path style="fill:#333333;" d="M12,18.5c-3.584,0-6.5-2.916-6.5-6.5S8.416,5.5,12,5.5s6.5,2.916,6.5,6.5S15.584,18.5,12,18.5z
	 M12,7.5c-2.481,0-4.5,2.019-4.5,4.5s2.019,4.5,4.5,4.5s4.5-2.019,4.5-4.5S14.481,7.5,12,7.5z"/>
<rect x="10.5" y="11.5" style="fill:#333333;" width="2" height="2"/>
<rect x="11.5" y="10.5" style="fill:#333333;" width="2" height="2"/>
</svg>






