<?xml version="1.0" encoding="iso-8859-1"?>
<svg version="1.1" id="&#x56FE;&#x5C42;_1" xmlns="http://www.w3.org/2000/svg" xmlns:xlink="http://www.w3.org/1999/xlink" x="0px"
	 y="0px" viewBox="0 0 24 24" style="enable-background:new 0 0 24 24;" xml:space="preserve">
<path style="fill:#333333;" d="M19.5,19c-0.589,0-1.178-0.148-1.726-0.444c-0.508-0.275-1.041-0.275-1.549,0
	c-1.096,0.592-2.355,0.592-3.451,0c-0.507-0.274-1.042-0.275-1.549,0c-1.097,0.592-2.354,0.592-3.451,0
	c-0.507-0.275-1.042-0.275-1.549,0c-1.097,0.592-2.354,0.592-3.451,0l-1.25-0.676l0.951-1.76l1.25,0.676
	c0.507,0.275,1.043,0.275,1.549,0c1.097-0.592,2.354-0.592,3.451,0c0.507,0.275,1.042,0.275,1.549,0
	c1.097-0.592,2.355-0.592,3.451,0c0.508,0.275,1.041,0.275,1.549,0c1.096-0.592,2.355-0.592,3.451,0
	c0.508,0.275,1.041,0.275,1.549,0l1.25-0.676l0.951,1.76l-1.25,0.676C20.678,18.852,20.089,19,19.5,19z"/>
<path style="fill:#333333;" d="M19.5,22c-0.589,0-1.178-0.148-1.726-0.444c-0.508-0.275-1.041-0.275-1.549,0
	c-1.096,0.592-2.355,0.592-3.451,0c-0.507-0.275-1.042-0.275-1.549,0c-1.097,0.592-2.354,0.592-3.451,0
	c-0.507-0.275-1.042-0.275-1.549,0c-1.097,0.592-2.354,0.592-3.451,0l-1.25-0.676l0.951-1.76l1.25,0.676
	c0.507,0.276,1.043,0.274,1.549,0c1.097-0.592,2.354-0.592,3.451,0c0.507,0.275,1.042,0.275,1.549,0
	c1.097-0.592,2.355-0.592,3.451,0c0.508,0.275,1.041,0.275,1.549,0c1.096-0.592,2.355-0.592,3.451,0
	c0.508,0.275,1.041,0.275,1.549,0l1.25-0.676l0.951,1.76l-1.25,0.676C20.678,21.852,20.089,22,19.5,22z"/>
<path style="fill:#333333;" d="M22.773,14.202l-1.959-0.404c0.368-1.787,0.184-3.623-0.535-5.309
	c-0.938-2.215-2.684-3.93-4.913-4.831c-2.229-0.9-4.672-0.88-6.882,0.061C4.567,5.382,2.335,9.61,3.175,13.771l-1.96,0.396
	C0.187,9.08,2.916,3.911,7.702,1.877c2.702-1.149,5.689-1.175,8.413-0.074c2.726,1.101,4.858,3.198,6.005,5.903
	C22.998,9.768,23.225,12.015,22.773,14.202z"/>
<path style="fill:#333333;" d="M11.469,12.848C7.936,10.635,6.19,6.687,7.022,2.792l1.956,0.417
	c-0.654,3.064,0.741,6.183,3.553,7.944L11.469,12.848z"/>
<path style="fill:#333333;" d="M12.66,14.262l-1.931-0.523c0.158-0.581,0.249-1.179,0.271-1.775l1.999,0.074
	C12.972,12.785,12.857,13.534,12.66,14.262z"/>
<path style="fill:#333333;" d="M21.331,13.743c-2.324-2.095-5.888-2.44-8.861-0.86l-0.939-1.766
	c3.713-1.976,8.192-1.516,11.138,1.14L21.331,13.743z"/>
<path style="fill:#333333;" d="M9.625,8.781L8.374,7.221c0.236-0.19,5.868-4.612,12.589-1.107l-0.926,1.773
	C14.495,4.995,9.821,8.625,9.625,8.781z"/>
<path style="fill:#333333;" d="M5.762,14.675c-2.076-2.27-3.143-4.767-3.261-7.633l1.998-0.083c0.098,2.376,0.994,4.459,2.739,6.367
	L5.762,14.675z"/>
<path style="fill:#333333;" d="M17.95,14.19l-1.971-0.342c0.271-1.56,0.181-2.708,0.18-2.719l1.992-0.172
	C18.156,11.014,18.269,12.358,17.95,14.19z"/>
</svg>






