<?xml version="1.0" encoding="iso-8859-1"?>
<svg version="1.1" id="&#x56FE;&#x5C42;_1" xmlns="http://www.w3.org/2000/svg" xmlns:xlink="http://www.w3.org/1999/xlink" x="0px"
	 y="0px" viewBox="0 0 24 24" style="enable-background:new 0 0 24 24;" xml:space="preserve">
<path style="fill:#333333;" d="M12,20c-6.309,0-9.023-2.176-9.136-2.269l-0.649-0.534L11.13,1.506h1.739l8.916,15.691l-0.649,0.535
	C21.023,17.824,18.309,20,12,20z M4.849,16.61C5.911,17.146,8.202,18,12,18c3.795,0,6.085-0.854,7.15-1.391L12,4.024L4.849,16.61z"
	/>
<circle style="fill:#333333;" cx="12" cy="8.5" r="1"/>
<circle style="fill:#333333;" cx="13.5" cy="11.5" r="1"/>
<circle style="fill:#333333;" cx="10.5" cy="11.5" r="1"/>
<path style="fill:#333333;" d="M12,23c-6.309,0-9.023-2.176-9.136-2.269l1.271-1.543C4.151,19.2,6.488,21,12,21
	c5.512,0,7.849-1.8,7.872-1.818l1.264,1.551C21.023,20.824,18.309,23,12,23z"/>
</svg>






