<?xml version="1.0" encoding="iso-8859-1"?>
<svg version="1.1" id="&#x56FE;&#x5C42;_1" xmlns="http://www.w3.org/2000/svg" xmlns:xlink="http://www.w3.org/1999/xlink" x="0px"
	 y="0px" viewBox="0 0 24 24" style="enable-background:new 0 0 24 24;" xml:space="preserve">
<path style="fill:#333333;" d="M12,23C5.935,23,1,18.065,1,12h2c0,0.827,0.673,1.5,1.5,1.5S6,12.827,6,12h2
	c0,0.827,0.673,1.5,1.5,1.5S11,12.827,11,12h2c0,0.827,0.673,1.5,1.5,1.5S16,12.827,16,12h2c0,0.827,0.673,1.5,1.5,1.5
	S21,12.827,21,12h2C23,18.065,18.065,23,12,23z M3.667,15.399C5.011,18.683,8.24,21,12,21c3.761,0,6.989-2.317,8.333-5.601
	C20.066,15.465,19.787,15.5,19.5,15.5c-0.979,0-1.864-0.403-2.5-1.053c-0.636,0.649-1.521,1.053-2.5,1.053s-1.864-0.403-2.5-1.053
	c-0.636,0.649-1.521,1.053-2.5,1.053S7.636,15.097,7,14.447C6.364,15.097,5.479,15.5,4.5,15.5C4.213,15.5,3.934,15.465,3.667,15.399
	z"/>
<path style="fill:#333333;" d="M12,9.5c-1.654,0-3-1.346-3-3c0-1.243,1.496-3.916,2.138-5.007L12,0.03l0.861,1.463
	C13.505,2.584,15,5.257,15,6.5C15,8.154,13.654,9.5,12,9.5z M12,4.074c-0.578,1.127-0.993,2.11-1,2.427c0,0.55,0.449,0.999,1,0.999
	c0.551,0,1-0.448,1-1C12.993,6.184,12.578,5.2,12,4.074z"/>
</svg>






