<?xml version="1.0" encoding="iso-8859-1"?>
<svg version="1.1" id="&#x56FE;&#x5C42;_1" xmlns="http://www.w3.org/2000/svg" xmlns:xlink="http://www.w3.org/1999/xlink" x="0px"
	 y="0px" viewBox="0 0 24 24" style="enable-background:new 0 0 24 24;" xml:space="preserve">
<path style="fill:#333333;" d="M12,23c-4.962,0-9-3.711-9-8.272C3,10.5,5.81,5.961,11.352,1.239L12,0.686l0.648,0.553
	C18.19,5.962,21,10.5,21,14.728C21,19.289,16.963,23,12,23z M12,3.324C7.354,7.437,5,11.27,5,14.728C5,18.187,8.14,21,12,21
	c3.859,0,7-2.813,7-6.272C19,11.27,16.646,7.437,12,3.324z"/>
<polygon style="fill:#333333;" points="12,13.63 8.707,10.192 10.151,8.808 12,10.739 13.849,8.808 15.294,10.192 "/>
<rect x="9" y="12.079" style="fill:#333333;" width="6" height="2"/>
<rect x="9" y="14.764" style="fill:#333333;" width="6" height="2"/>
<rect x="11" y="13.079" style="fill:#333333;" width="2" height="4.921"/>
</svg>






