<?xml version="1.0" encoding="iso-8859-1"?>
<svg version="1.1" id="&#x56FE;&#x5C42;_1" xmlns="http://www.w3.org/2000/svg" xmlns:xlink="http://www.w3.org/1999/xlink" x="0px"
	 y="0px" viewBox="0 0 24 24" style="enable-background:new 0 0 24 24;" xml:space="preserve">
<path style="fill:#333333;" d="M12,23c-4.687,0-8.5-3.813-8.5-8.5c0-7.421,7.586-13.07,7.909-13.307L12,0.76l0.592,0.434
	C12.914,1.43,20.5,7.079,20.5,14.5C20.5,19.187,16.687,23,12,23z M12,3.281C10.295,4.712,5.5,9.21,5.5,14.5
	c0,3.584,2.916,6.5,6.5,6.5s6.5-2.916,6.5-6.5C18.5,9.21,13.705,4.712,12,3.281z"/>
<path style="fill:#333333;" d="M12,23c-4.687,0-8.5-3.813-8.5-8.5v-0.721l0.684-0.228c0.2-0.067,4.931-1.613,8.264,0.054
	c2.586,1.294,6.697-0.04,6.737-0.055l1.314-0.435L20.5,14.5C20.5,19.187,16.687,23,12,23z M5.543,15.248C5.915,18.48,8.669,21,12,21
	c3.13,0,5.75-2.224,6.364-5.174c-1.704,0.357-4.571,0.687-6.812-0.432C9.623,14.429,6.846,14.929,5.543,15.248z"/>
</svg>






