<?xml version="1.0" encoding="iso-8859-1"?>
<svg version="1.1" id="&#x56FE;&#x5C42;_1" xmlns="http://www.w3.org/2000/svg" xmlns:xlink="http://www.w3.org/1999/xlink" x="0px"
	 y="0px" viewBox="0 0 24 24" style="enable-background:new 0 0 24 24;" xml:space="preserve">
<path style="fill:#333333;" d="M12,23C5.935,23,1,18.065,1,12h2c0,0.827,0.673,1.5,1.5,1.5S6,12.827,6,12h2
	c0,0.827,0.673,1.5,1.5,1.5S11,12.827,11,12h2c0,0.827,0.673,1.5,1.5,1.5S16,12.827,16,12h2c0,0.827,0.673,1.5,1.5,1.5
	S21,12.827,21,12h2C23,18.065,18.065,23,12,23z M3.667,15.399C5.011,18.683,8.24,21,12,21c3.761,0,6.989-2.317,8.333-5.601
	C20.066,15.465,19.787,15.5,19.5,15.5c-0.979,0-1.864-0.403-2.5-1.053c-0.636,0.649-1.521,1.053-2.5,1.053s-1.864-0.403-2.5-1.053
	c-0.636,0.649-1.521,1.053-2.5,1.053S7.636,15.097,7,14.447C6.364,15.097,5.479,15.5,4.5,15.5C4.213,15.5,3.934,15.465,3.667,15.399
	z"/>
<rect x="11" y="1.464" transform="matrix(0.7071 -0.7071 0.7071 0.7071 -0.0208 9.9497)" style="fill:#333333;" width="2" height="7.071"/>
<rect x="8.464" y="4" transform="matrix(0.7071 -0.7071 0.7071 0.7071 -0.0208 9.9497)" style="fill:#333333;" width="7.071" height="2"/>
</svg>






