<?xml version="1.0" encoding="iso-8859-1"?>
<svg version="1.1" id="&#x56FE;&#x5C42;_1" xmlns="http://www.w3.org/2000/svg" xmlns:xlink="http://www.w3.org/1999/xlink" x="0px"
	 y="0px" viewBox="0 0 24 24" style="enable-background:new 0 0 24 24;" xml:space="preserve">
<path style="fill:#333333;" d="M19.5,19.5c-0.589,0-1.178-0.148-1.726-0.444c-0.508-0.275-1.041-0.275-1.549,0
	c-1.096,0.592-2.355,0.592-3.451,0c-0.507-0.275-1.042-0.275-1.549,0c-1.097,0.592-2.354,0.592-3.451,0
	c-0.507-0.275-1.042-0.275-1.549,0c-1.097,0.592-2.354,0.592-3.451,0l-1.25-0.676l0.951-1.76l1.25,0.676
	c0.507,0.275,1.043,0.275,1.549,0c1.097-0.592,2.354-0.592,3.451,0c0.507,0.275,1.042,0.275,1.549,0
	c1.097-0.592,2.355-0.592,3.451,0c0.508,0.275,1.041,0.275,1.549,0c1.096-0.592,2.355-0.592,3.451,0
	c0.508,0.275,1.041,0.275,1.549,0l1.25-0.676l0.951,1.76l-1.25,0.676C20.678,19.352,20.089,19.5,19.5,19.5z"/>
<path style="fill:#333333;" d="M19.5,22.5c-0.589,0-1.178-0.148-1.726-0.444c-0.508-0.275-1.041-0.275-1.549,0
	c-1.096,0.592-2.355,0.592-3.451,0c-0.507-0.274-1.042-0.276-1.549,0c-1.097,0.592-2.354,0.592-3.451,0
	c-0.507-0.275-1.042-0.275-1.549,0c-1.097,0.592-2.354,0.592-3.451,0l-1.25-0.676l0.951-1.76l1.25,0.676
	c0.507,0.275,1.043,0.275,1.549,0c1.097-0.592,2.354-0.592,3.451,0c0.507,0.275,1.042,0.275,1.549,0
	c1.097-0.592,2.355-0.592,3.451,0c0.508,0.275,1.041,0.275,1.549,0c1.096-0.592,2.355-0.592,3.451,0
	c0.508,0.275,1.041,0.275,1.549,0l1.25-0.676l0.951,1.76l-1.25,0.676C20.678,22.352,20.089,22.5,19.5,22.5z"/>
<path style="fill:#333333;" d="M12.5,10C10.57,10,9,8.43,9,6.5S10.57,3,12.5,3S16,4.57,16,6.5S14.43,10,12.5,10z M12.5,5
	C11.673,5,11,5.673,11,6.5S11.673,8,12.5,8S14,7.327,14,6.5S13.327,5,12.5,5z"/>
<rect x="11.25" y="12.469" transform="matrix(0.9701 -0.2425 0.2425 0.9701 -2.9085 3.3741)" style="fill:#333333;" width="1.999" height="2.062"/>
<polygon style="fill:#333333;" points="21,13.465 11.78,13.44 5.28,11.976 4.656,11.537 1.156,6.037 2.844,4.963 6.122,10.115 
	12.111,11.465 21,11.465 "/>
<path style="fill:#333333;" d="M5.5,5C6.328,5,7,4.328,7,3.5S6.328,2,5.5,2C4.672,2,4,2.672,4,3.5S4.672,5,5.5,5z"/>
</svg>






