<?xml version="1.0" encoding="iso-8859-1"?>
<svg version="1.1" id="&#x56FE;&#x5C42;_1" xmlns="http://www.w3.org/2000/svg" xmlns:xlink="http://www.w3.org/1999/xlink" x="0px"
	 y="0px" viewBox="0 0 24 24" style="enable-background:new 0 0 24 24;" xml:space="preserve">
<path style="fill:#333333;" d="M12,23C5.935,23,1,18.065,1,12S5.935,1,12,1s11,4.935,11,11S18.065,23,12,23z M12,3
	c-4.962,0-9,4.038-9,9c0,4.963,4.038,9,9,9c4.963,0,9-4.037,9-9C21,7.038,16.963,3,12,3z"/>
<path style="fill:#333333;" d="M17.118,17.5H6.882l0.724-1.447C7.658,15.948,8.917,13.5,12,13.5c3.083,0,4.343,2.448,4.395,2.553
	L17.118,17.5z"/>
<rect x="7.382" y="8.5" transform="matrix(0.8944 -0.4472 0.4472 0.8944 -3.3512 4.8043)" style="fill:#333333;" width="2.236" height="2"/>
<rect x="14.5" y="8.382" transform="matrix(0.4472 -0.8944 0.8944 0.4472 0.0711 19.1151)" style="fill:#333333;" width="2" height="2.236"/>
</svg>






