<?xml version="1.0" encoding="iso-8859-1"?>
<svg version="1.1" id="&#x56FE;&#x5C42;_1" xmlns="http://www.w3.org/2000/svg" xmlns:xlink="http://www.w3.org/1999/xlink" x="0px"
	 y="0px" viewBox="0 0 24 24" style="enable-background:new 0 0 24 24;" xml:space="preserve">
<path style="fill:#333333;" d="M20.5,21h-17C2.122,21,1,19.879,1,18.5v-13C1,4.122,2.122,3,3.5,3h17C21.879,3,23,4.122,23,5.5v13
	C23,19.879,21.879,21,20.5,21z M3.5,5C3.224,5,3,5.224,3,5.5v13C3,18.775,3.224,19,3.5,19h17c0.275,0,0.5-0.225,0.5-0.5v-13
	C21,5.224,20.775,5,20.5,5H3.5z"/>
<path style="fill:#333333;" d="M23,11H1V5.5C1,4.122,2.122,3,3.5,3h17C21.879,3,23,4.122,23,5.5V11z M3,9h18V5.5
	C21,5.224,20.775,5,20.5,5h-17C3.224,5,3,5.224,3,5.5V9z"/>
<circle style="fill:#333333;" cx="5" cy="7" r="1"/>
<circle style="fill:#333333;" cx="8" cy="7" r="1"/>
</svg>






