<?xml version="1.0" encoding="iso-8859-1"?>
<svg version="1.1" id="&#x56FE;&#x5C42;_1" xmlns="http://www.w3.org/2000/svg" xmlns:xlink="http://www.w3.org/1999/xlink" x="0px"
	 y="0px" viewBox="0 0 24 24" style="enable-background:new 0 0 24 24;" xml:space="preserve">
<path style="fill:none;" d="M18.499,10.856C18.422,6.504,14.87,3,10.5,3c-4.418,0-8,3.582-8,8c0,2.085,0.798,3.984,2.104,5.408
	l-0.599,3.605l3.557-1.528c1.567,0.521,3.047,0.651,4.438,0.391"/>
<path style="fill:#333333;" d="M4.4,20.932l-1.381-1.083l0.522-3.142C2.221,15.101,1.5,13.093,1.5,11c0-4.962,4.038-9,9-9
	c4.876,0,8.912,3.964,8.999,8.838l-2,0.035C17.432,7.083,14.292,4,10.5,4c-3.86,0-7,3.14-7,7c0,1.757,0.654,3.438,1.841,4.731
	l0.33,0.358l-0.379,2.282l2.226-0.955l0.36,0.119c1.398,0.465,2.723,0.584,3.938,0.357l0.369,1.965
	c-1.441,0.271-2.976,0.167-4.568-0.308L4.4,20.932z"/>
<path style="fill:#333333;" d="M7.562,10.233c0.621,0,1.125-0.507,1.125-1.133c0-0.626-0.504-1.133-1.125-1.133
	S6.438,8.474,6.438,9.1C6.438,9.726,6.941,10.233,7.562,10.233z"/>
<path style="fill:#333333;" d="M12.062,10.233c0.621,0,1.125-0.507,1.125-1.133c0-0.626-0.504-1.133-1.125-1.133
	S10.938,8.474,10.938,9.1C10.938,9.726,11.441,10.233,12.062,10.233z"/>
<path style="fill:none;" d="M19.381,19.965C18.507,20.615,17.423,21,16.25,21C13.351,21,11,18.649,11,15.75s2.351-5.25,5.25-5.25
	s5.25,2.351,5.25,5.25c0,0.8-0.179,1.558-0.499,2.236"/>
<path style="fill:#333333;" d="M16.25,22C12.804,22,10,19.196,10,15.75s2.804-6.25,6.25-6.25s6.25,2.804,6.25,6.25
	c0,0.931-0.2,1.827-0.595,2.663l-1.809-0.854c0.268-0.567,0.403-1.176,0.403-1.81c0-2.344-1.906-4.25-4.25-4.25S12,13.406,12,15.75
	S13.906,20,16.25,20c0.922,0,1.798-0.29,2.534-0.838l1.193,1.605C18.894,21.573,17.604,22,16.25,22z"/>
<path style="fill:none;" d="M21.001,17.986L21.5,21l-2.119-1.035"/>
<polygon style="fill:#333333;" points="21.062,21.898 18.942,20.863 19.819,19.066 20.196,19.25 20.015,18.149 21.987,17.823 
	22.486,20.837 "/>
<path style="fill:#333333;" d="M17.844,15.4C17.378,15.4,17,15.019,17,14.55s0.378-0.85,0.844-0.85s0.844,0.381,0.844,0.85
	S18.31,15.4,17.844,15.4z"/>
<path style="fill:#333333;" d="M14.469,15.4c-0.466,0-0.844-0.381-0.844-0.85s0.378-0.85,0.844-0.85s0.844,0.381,0.844,0.85
	S14.935,15.4,14.469,15.4z"/>
</svg>






