<?xml version="1.0" encoding="iso-8859-1"?>
<svg version="1.1" id="&#x56FE;&#x5C42;_1" xmlns="http://www.w3.org/2000/svg" xmlns:xlink="http://www.w3.org/1999/xlink" x="0px"
	 y="0px" viewBox="0 0 24 24" style="enable-background:new 0 0 24 24;" xml:space="preserve">
<path style="fill:#333333;" d="M8.972,21.021c-0.497,0-0.981-0.028-1.447-0.087c-2.048-0.258-3.652-1.074-4.637-2.359
	c-2.94-3.838,0.478-8.93,2.697-11.086l0,0c2.262-2.199,4.307-2.958,5.758-2.14c1.303,0.735,0.74,2.231,0.469,2.951
	c-0.03,0.08-0.067,0.179-0.103,0.279c0.234-0.112,0.499-0.259,0.693-0.367c1.006-0.558,2.258-1.252,3.402-0.623
	c1.396,0.766,1.057,2.347,0.853,3.291c-0.053,0.246-0.136,0.634-0.14,0.837c0.188,0.055,0.582,0.07,0.831,0.08
	c0.72,0.029,1.536,0.062,2.114,0.633c0.509,0.502,0.767,1.181,0.726,1.909c-0.072,1.29-1.018,2.633-2.89,4.105
	C15.308,20.011,11.939,21.021,8.972,21.021z M6.978,8.923c-1.429,1.389-4.665,5.612-2.502,8.435
	c0.824,1.076,2.249,1.459,3.299,1.592c3.049,0.378,6.607-0.755,8.287-2.076c1.87-1.472,2.112-2.34,2.13-2.645
	c0.009-0.159-0.033-0.274-0.135-0.375c-0.08-0.029-0.523-0.047-0.789-0.058c-0.808-0.032-1.913-0.076-2.482-1.014
	c-0.432-0.71-0.247-1.567-0.084-2.323c0.073-0.337,0.208-0.964,0.132-1.135c-0.208-0.033-1.061,0.414-1.462,0.637
	c-0.979,0.542-2.087,1.158-3.071,0.508C9.145,9.707,9.661,8.333,9.939,7.595c0.059-0.157,0.144-0.383,0.195-0.559
	C9.62,7,8.483,7.459,6.978,8.923L6.978,8.923z"/>
<path style="fill:#333333;" d="M20.692,8.333c-0.097-1.279-0.644-2.492-1.541-3.415c-0.872-0.896-2.031-1.474-3.266-1.625
	l0.242-1.985c1.687,0.207,3.269,0.993,4.457,2.215c1.224,1.258,1.97,2.913,2.102,4.659L20.692,8.333z"/>
<path style="fill:#333333;" d="M17.648,8.544c-0.043-0.552-0.293-1.077-0.702-1.479c-0.408-0.399-0.953-0.657-1.536-0.726
	l0.232-1.986c1.021,0.119,1.98,0.575,2.704,1.285c0.755,0.741,1.215,1.717,1.296,2.75L17.648,8.544z"/>
<path style="fill:#333333;" d="M12.5,15c0,1.105-1.343,2-3,2s-3-0.895-3-2s1.343-2,3-2S12.5,13.895,12.5,15z"/>
</svg>






