<?xml version="1.0" encoding="iso-8859-1"?>
<svg version="1.1" id="&#x56FE;&#x5C42;_1" xmlns="http://www.w3.org/2000/svg" xmlns:xlink="http://www.w3.org/1999/xlink" x="0px"
	 y="0px" viewBox="0 0 24 24" style="enable-background:new 0 0 24 24;" xml:space="preserve">
<path style="fill:#333333;" d="M20.5,23h-17C2.122,23,1,21.879,1,20.5v-17C1,2.122,2.122,1,3.5,1h17C21.879,1,23,2.122,23,3.5v17
	C23,21.879,21.879,23,20.5,23z M3.5,3C3.224,3,3,3.224,3,3.5v17C3,20.775,3.224,21,3.5,21h17c0.275,0,0.5-0.225,0.5-0.5v-17
	C21,3.224,20.775,3,20.5,3H3.5z"/>
<path style="fill:#333333;" d="M6.769,10.166L5.231,8.888C7.085,6.658,9.362,5.527,12,5.527c2.639,0,4.916,1.131,6.77,3.361
	l-1.539,1.278C15.755,8.39,14.044,7.527,12,7.527C9.957,7.527,8.245,8.39,6.769,10.166z"/>
<path style="fill:#333333;" d="M12,15.5c0.828,0,1.5-0.672,1.5-1.5s-0.672-1.5-1.5-1.5s-1.5,0.672-1.5,1.5S11.172,15.5,12,15.5z"/>
<rect x="9.752" y="10.098" transform="matrix(0.8133 -0.5818 0.5818 0.8133 -5.1202 8.5429)" style="fill:#333333;" width="2.001" height="4.303"/>
</svg>






