<?xml version="1.0" encoding="iso-8859-1"?>
<svg version="1.1" id="&#x56FE;&#x5C42;_1" xmlns="http://www.w3.org/2000/svg" xmlns:xlink="http://www.w3.org/1999/xlink" x="0px"
	 y="0px" viewBox="0 0 24 24" style="enable-background:new 0 0 24 24;" xml:space="preserve">
<path style="fill:#333333;" d="M12,14.5c-1.93,0-3.5-1.57-3.5-3.5s1.57-3.5,3.5-3.5s3.5,1.57,3.5,3.5S13.93,14.5,12,14.5z M12,9.5
	c-0.827,0-1.5,0.673-1.5,1.5s0.673,1.5,1.5,1.5s1.5-0.673,1.5-1.5S12.827,9.5,12,9.5z"/>
<rect x="2" y="3.5" style="fill:#333333;" width="20" height="2"/>
<rect x="1" y="2" style="fill:#333333;" width="2" height="5"/>
<rect x="21" y="2" style="fill:#333333;" width="2" height="5"/>
<polygon style="fill:#333333;" points="11.48,17.854 4.98,13.904 4.5,13.05 4.5,4.5 6.5,4.5 6.5,12.487 11.997,15.828 17.5,12.441 
	17.5,4.5 19.5,4.5 19.5,13 19.024,13.852 12.524,17.852 "/>
<rect x="11" y="17" style="fill:#333333;" width="2" height="5"/>
</svg>






