<?xml version="1.0" encoding="iso-8859-1"?>
<svg version="1.1" id="&#x56FE;&#x5C42;_1" xmlns="http://www.w3.org/2000/svg" xmlns:xlink="http://www.w3.org/1999/xlink" x="0px"
	 y="0px" viewBox="0 0 24 24" style="enable-background:new 0 0 24 24;" xml:space="preserve">
<path style="fill:#333333;" d="M12,23C5.935,23,1,18.065,1,12S5.935,1,12,1s11,4.935,11,11S18.065,23,12,23z M12,3
	c-4.962,0-9,4.038-9,9c0,4.963,4.038,9,9,9c4.963,0,9-4.037,9-9C21,7.038,16.963,3,12,3z"/>
<path style="fill:#333333;" d="M9.502,18.001c-0.229,0-0.458-0.022-0.685-0.068c-0.681-0.136-1.3-0.467-1.792-0.958
	s-0.823-1.11-0.958-1.792c-0.135-0.682-0.066-1.381,0.2-2.022c0.266-0.641,0.711-1.184,1.289-1.57C8.133,11.204,8.805,11,9.5,11v2
	c-0.298,0-0.586,0.087-0.833,0.252c-0.248,0.166-0.439,0.399-0.553,0.674C8,14.201,7.971,14.5,8.029,14.793
	c0.058,0.291,0.2,0.557,0.411,0.768c0.211,0.211,0.477,0.353,0.768,0.411c0.292,0.058,0.591,0.028,0.866-0.086
	c0.275-0.114,0.508-0.306,0.674-0.553C10.913,15.086,11,14.798,11,14.5v-5c0-0.695,0.204-1.367,0.589-1.944
	c0.387-0.578,0.93-1.023,1.571-1.289s1.341-0.334,2.021-0.2c0.683,0.136,1.302,0.467,1.793,0.958s0.822,1.11,0.958,1.792
	S18,10.198,17.733,10.84c-0.266,0.641-0.712,1.184-1.289,1.57C15.867,12.796,15.194,13,14.5,13v-2c0.298,0,0.586-0.087,0.833-0.252
	c0.247-0.166,0.438-0.399,0.553-0.674C16,9.798,16.029,9.499,15.972,9.208c-0.059-0.292-0.2-0.557-0.411-0.768
	c-0.211-0.21-0.477-0.353-0.769-0.411C14.501,7.97,14.201,8,13.926,8.114c-0.274,0.114-0.508,0.305-0.674,0.553
	C13.087,8.914,13,9.202,13,9.5v5c0,0.694-0.204,1.367-0.59,1.944c-0.387,0.577-0.929,1.023-1.571,1.289
	C10.412,17.911,9.958,18.001,9.502,18.001z"/>
</svg>






