<?xml version="1.0" encoding="iso-8859-1"?>
<svg version="1.1" id="&#x56FE;&#x5C42;_1" xmlns="http://www.w3.org/2000/svg" xmlns:xlink="http://www.w3.org/1999/xlink" x="0px"
	 y="0px" viewBox="0 0 24 24" style="enable-background:new 0 0 24 24;" xml:space="preserve">
<path style="fill:#333333;" d="M19,23H5c-1.103,0-2-0.897-2-2V8c0-1.103,0.897-2,2-2h14c1.103,0,2,0.897,2,2v13
	C21,22.103,20.103,23,19,23z M5,8v13h14V8H5z"/>
<path style="fill:#333333;" d="M16.5,9h-2V5.5C14.5,4.122,13.379,3,12,3c-1.378,0-2.5,1.122-2.5,2.5V9h-2V5.5
	C7.5,3.019,9.519,1,12,1s4.5,2.019,4.5,4.5V9z"/>
</svg>






