<?xml version="1.0" encoding="iso-8859-1"?>
<svg version="1.1" id="&#x56FE;&#x5C42;_1" xmlns="http://www.w3.org/2000/svg" xmlns:xlink="http://www.w3.org/1999/xlink" x="0px"
	 y="0px" viewBox="0 0 24 24" style="enable-background:new 0 0 24 24;" xml:space="preserve">
<path style="fill:#333333;" d="M12,23.447l-4.121-4.31l-5.792-1.414L3.758,12L2.087,6.276l5.792-1.414L12,0.553l4.121,4.309
	l5.792,1.414L20.242,12l1.671,5.724l-5.792,1.414L12,23.447z M4.593,16.276l4.328,1.057L12,20.553l3.08-3.22l4.327-1.057L18.158,12
	l1.249-4.276L15.08,6.667L12,3.447l-3.079,3.22L4.593,7.724L5.842,12L4.593,16.276z"/>
<path style="fill:#333333;" d="M16.409,19.637L12,17.379l-4.41,2.258l-0.25-4.947L3.181,12l4.16-2.69l0.25-4.947L12,6.62
	l4.409-2.258l0.249,4.948L20.819,12l-4.161,2.689L16.409,19.637z M6.864,12l2.423,1.566l0.145,2.881L12,15.133l2.567,1.314
	l0.146-2.881L17.136,12l-2.423-1.566l-0.146-2.881L12,8.867L9.432,7.552l-0.145,2.882L6.864,12z"/>
</svg>






