<?xml version="1.0" encoding="iso-8859-1"?>
<svg version="1.1" id="&#x56FE;&#x5C42;_1" xmlns="http://www.w3.org/2000/svg" xmlns:xlink="http://www.w3.org/1999/xlink" x="0px"
	 y="0px" viewBox="0 0 24 24" style="enable-background:new 0 0 24 24;" xml:space="preserve">
<path style="fill:#333333;" d="M9,23c-3.86,0-7-3.141-7-7c0-2.728,1.603-5.226,4.083-6.365l0.834,1.817C5.145,12.267,4,14.051,4,16
	c0,2.757,2.243,5,5,5c2.283,0,4.274-1.542,4.842-3.749l1.938,0.498C14.983,20.841,12.195,23,9,23z"/>
<polygon style="fill:#333333;" points="20.5,21 18.236,21 16.75,15.552 9.112,16.062 8.006,6.11 9.994,5.89 10.888,13.938 
	18.25,13.448 19.764,19 20.5,19 "/>
<path style="fill:#333333;" d="M9,7C7.346,7,6,5.654,6,4s1.346-3,3-3s3,1.346,3,3S10.654,7,9,7z M9,3C8.449,3,8,3.449,8,4
	s0.449,1,1,1s1-0.449,1-1S9.551,3,9,3z"/>
<rect x="12.5" y="9" style="fill:#333333;" width="4" height="2"/>
</svg>






