<?xml version="1.0" encoding="iso-8859-1"?>
<svg version="1.1" id="&#x56FE;&#x5C42;_1" xmlns="http://www.w3.org/2000/svg" xmlns:xlink="http://www.w3.org/1999/xlink" x="0px"
	 y="0px" viewBox="0 0 24 24" style="enable-background:new 0 0 24 24;" xml:space="preserve">
<path style="fill:#333333;" d="M12,15.5c-1.93,0-3.5-1.57-3.5-3.5s1.57-3.5,3.5-3.5s3.5,1.57,3.5,3.5S13.93,15.5,12,15.5z M12,10.5
	c-0.827,0-1.5,0.673-1.5,1.5s0.673,1.5,1.5,1.5s1.5-0.673,1.5-1.5S12.827,10.5,12,10.5z"/>
<path style="fill:#333333;" d="M11.75,23c-3.998,0-7.25-3.252-7.25-7.25c0-3.998,3.252-7.25,7.25-7.25v2
	c-2.895,0-5.25,2.355-5.25,5.25S8.855,21,11.75,21V23z"/>
<path style="fill:#333333;" d="M15.75,19c-3.998,0-7.25-3.252-7.25-7.25h2c0,2.895,2.355,5.25,5.25,5.25S21,14.645,21,11.75h2
	C23,15.748,19.748,19,15.75,19z"/>
<path style="fill:#333333;" d="M11.75,15.5v-2c2.895,0,5.25-2.355,5.25-5.25S14.645,3,11.75,3V1C15.748,1,19,4.252,19,8.25
	C19,12.248,15.748,15.5,11.75,15.5z"/>
<path style="fill:#333333;" d="M15.5,11.75h-2c0-2.895-2.355-5.25-5.25-5.25S3,8.855,3,11.75H1C1,7.752,4.252,4.5,8.25,4.5
	C12.248,4.5,15.5,7.752,15.5,11.75z"/>
</svg>






