<?xml version="1.0" encoding="iso-8859-1"?>
<svg version="1.1" id="&#x56FE;&#x5C42;_1" xmlns="http://www.w3.org/2000/svg" xmlns:xlink="http://www.w3.org/1999/xlink" x="0px"
	 y="0px" viewBox="0 0 24 24" style="enable-background:new 0 0 24 24;" xml:space="preserve">
<path style="fill:#333333;" d="M13.5,19.5C9.364,19.5,6,16.136,6,12c0-0.509,0.05-1.01,0.15-1.5H2l-1-1v-4l1-1h11.5
	c4.136,0,7.5,3.364,7.5,7.5S17.636,19.5,13.5,19.5z M3,8.5h4.5l0.922,1.387C8.138,10.564,8,11.255,8,12c0,3.032,2.467,5.5,5.5,5.5
	c3.032,0,5.5-2.468,5.5-5.5c0-3.033-2.468-5.5-5.5-5.5H3V8.5z"/>
<rect x="12.5" y="5.5" style="fill:#333333;" width="2" height="3"/>
<rect x="20" y="11" style="fill:#333333;" width="2" height="2"/>
</svg>






