<?xml version="1.0" encoding="iso-8859-1"?>
<svg version="1.1" id="&#x56FE;&#x5C42;_1" xmlns="http://www.w3.org/2000/svg" xmlns:xlink="http://www.w3.org/1999/xlink" x="0px"
	 y="0px" viewBox="0 0 24 24" style="enable-background:new 0 0 24 24;" xml:space="preserve">
<path style="fill:#333333;" d="M11,23c-1.654,0-3-1.346-3-3s1.346-3,3-3s3,1.346,3,3S12.654,23,11,23z M11,19c-0.551,0-1,0.448-1,1
	s0.449,1,1,1s1-0.448,1-1S11.551,19,11,19z"/>
<path style="fill:#333333;" d="M13,7c-1.654,0-3-1.346-3-3s1.346-3,3-3s3,1.346,3,3S14.654,7,13,7z M13,3c-0.552,0-1,0.449-1,1
	s0.448,1,1,1s1-0.449,1-1S13.552,3,13,3z"/>
<path style="fill:#333333;" d="M18,15c-1.654,0-3-1.346-3-3s1.346-3,3-3s3,1.346,3,3S19.654,15,18,15z M18,11c-0.552,0-1,0.449-1,1
	c0,0.552,0.448,1,1,1s1-0.448,1-1C19,11.449,18.552,11,18,11z"/>
<path style="fill:#333333;" d="M6,15c-1.654,0-3-1.346-3-3s1.346-3,3-3s3,1.346,3,3S7.654,15,6,15z M6,11c-0.551,0-1,0.449-1,1
	c0,0.552,0.449,1,1,1s1-0.448,1-1C7,11.449,6.551,11,6,11z"/>
<rect x="8" y="11" style="fill:#333333;" width="8" height="2"/>
<rect x="6.298" y="7" transform="matrix(0.6246 -0.7809 0.7809 0.6246 -2.6813 10.4217)" style="fill:#333333;" width="6.403" height="2"/>
<rect x="11.298" y="15" transform="matrix(0.6248 -0.7808 0.7808 0.6248 -7.0523 17.3239)" style="fill:#333333;" width="6.404" height="2.001"/>
</svg>






