<?xml version="1.0" encoding="iso-8859-1"?>
<svg version="1.1" id="&#x56FE;&#x5C42;_1" xmlns="http://www.w3.org/2000/svg" xmlns:xlink="http://www.w3.org/1999/xlink" x="0px"
	 y="0px" viewBox="0 0 24 24" style="enable-background:new 0 0 24 24;" xml:space="preserve">
<path style="fill:#333333;" d="M2.688,10.208L1.312,8.756c0.314-0.297,0.638-0.58,0.97-0.846c6.024-4.835,14.796-4.47,20.405,0.846
	l-1.375,1.452C16.425,5.577,8.782,5.258,3.535,9.469C3.245,9.702,2.962,9.948,2.688,10.208z"/>
<path style="fill:#333333;" d="M18.293,13.606c-3.47-3.469-9.116-3.469-12.586,0l-1.414-1.414c4.25-4.249,11.164-4.249,15.414,0
	L18.293,13.606z"/>
<path style="fill:#333333;" d="M15.293,16.864C14.413,15.984,13.244,15.5,12,15.5c-1.244,0-2.413,0.484-3.293,1.364L7.293,15.45
	C8.55,14.192,10.222,13.5,12,13.5s3.45,0.692,4.707,1.95L15.293,16.864z"/>
<path style="fill-rule:evenodd;clip-rule:evenodd;fill:#333333;" d="M12,20c0.69,0,1.25-0.56,1.25-1.25S12.69,17.5,12,17.5
	s-1.25,0.56-1.25,1.25S11.31,20,12,20z"/>
</svg>






