<?xml version="1.0" encoding="iso-8859-1"?>
<svg version="1.1" id="&#x56FE;&#x5C42;_1" xmlns="http://www.w3.org/2000/svg" xmlns:xlink="http://www.w3.org/1999/xlink" x="0px"
	 y="0px" viewBox="0 0 24 24" style="enable-background:new 0 0 24 24;" xml:space="preserve">
<path style="fill:#333333;" d="M6,13.5H5c-1.654,0-3-1.346-3-3s1.346-3,3-3h1v2H5c-0.551,0-1,0.449-1,1s0.449,1,1,1h1V13.5z"/>
<path style="fill:#333333;" d="M11,21.5H9.5c-1.654,0-3-1.346-3-3s1.346-3,3-3H11v2H9.5c-0.551,0-1,0.448-1,1s0.449,1,1,1H11V21.5z"
	/>
<path style="fill:#333333;" d="M13.5,8.5H12c-1.654,0-3-1.346-3-3s1.346-3,3-3h1.5v2H12c-0.551,0-1,0.449-1,1s0.449,1,1,1h1.5V8.5z"
	/>
<rect x="12" y="6.5" style="fill:#333333;" width="8" height="2"/>
<rect x="6" y="11.5" style="fill:#333333;" width="15" height="2"/>
<rect x="11" y="15.5" style="fill:#333333;" width="6" height="2"/>
</svg>






