<?xml version="1.0" encoding="iso-8859-1"?>
<svg version="1.1" id="&#x56FE;&#x5C42;_1" xmlns="http://www.w3.org/2000/svg" xmlns:xlink="http://www.w3.org/1999/xlink" x="0px"
	 y="0px" viewBox="0 0 24 24" style="enable-background:new 0 0 24 24;" xml:space="preserve">
<path style="fill:#333333;" d="M12,13h-1V1h1c3.309,0,6,2.691,6,6S15.309,13,12,13z M13,3.126v7.747C14.724,10.428,16,8.86,16,7
	S14.724,3.572,13,3.126z"/>
<path style="fill:#333333;" d="M17,18c-3.309,0-6-2.691-6-6v-1h12v1C23,15.309,20.309,18,17,18z M13.127,13
	c0.444,1.724,2.013,3,3.873,3s3.429-1.276,3.873-3H13.127z"/>
<path style="fill:#333333;" d="M13,13H1v-1c0-3.309,2.691-6,6-6s6,2.691,6,6V13z M3.126,11h7.747C10.428,9.277,8.86,8,7,8
	S3.572,9.277,3.126,11z"/>
<path style="fill:#333333;" d="M13,23h-1c-3.309,0-6-2.691-6-6s2.691-6,6-6h1V23z M11,13.127C9.277,13.571,8,15.14,8,17
	s1.277,3.429,3,3.873V13.127z"/>
</svg>






