<?xml version="1.0" encoding="iso-8859-1"?>
<svg version="1.1" id="&#x56FE;&#x5C42;_1" xmlns="http://www.w3.org/2000/svg" xmlns:xlink="http://www.w3.org/1999/xlink" x="0px"
	 y="0px" viewBox="0 0 24 24" style="enable-background:new 0 0 24 24;" xml:space="preserve">
<path style="fill:#333333;" d="M10.844,11.706H2.375v-7.05l8.469-1.129V11.706z M4.375,9.706h4.469V5.811L4.375,6.407V9.706z"/>
<path style="fill:#333333;" d="M21.625,11.706H11.431V3.542l10.194-1.303V11.706z M13.431,9.706h6.194V4.511l-6.194,0.792V9.706z"/>
<path style="fill:#333333;" d="M21.625,21.802l-10.194-1.669v-7.432l10.194,0.239V21.802z M13.431,18.434l6.194,1.015v-4.555
	l-6.194-0.146V18.434z"/>
<path style="fill:#333333;" d="M10.844,20.083l-8.469-1.428V12.27l8.469,0.203V20.083z M4.375,16.964l4.469,0.754v-3.292
	l-4.469-0.107V16.964z"/>
</svg>






