<?xml version="1.0" encoding="iso-8859-1"?>
<svg version="1.1" id="&#x56FE;&#x5C42;_1" xmlns="http://www.w3.org/2000/svg" xmlns:xlink="http://www.w3.org/1999/xlink" x="0px"
	 y="0px" viewBox="0 0 24 24" style="enable-background:new 0 0 24 24;" xml:space="preserve">
<rect x="11" y="15" style="fill:#333333;" width="2" height="7"/>
<path style="fill:#333333;" d="M24.199,19.5H22.5c-0.248,0-5.876-0.044-10.5-3.696C7.376,19.456,1.749,19.5,1.5,19.5h-1.618
	l0.724-1.447c0.105-0.21,2.548-4.995,7.904-7.239c0.167-6.316,2.615-9.325,2.723-9.454L12,0.438l0.769,0.922
	c0.107,0.129,2.567,3.154,2.724,9.504c5.333,2.644,7.777,6.961,7.882,7.15L24.199,19.5z M12,3.96c-0.658,1.383-1.5,3.87-1.5,7.54
	v0.7l-0.658,0.239c-3.112,1.132-5.212,3.331-6.369,4.858c2.025-0.333,5.241-1.215,7.863-3.545L12,13.162l0.664,0.591
	c2.578,2.291,5.709,3.182,7.735,3.527c-1.194-1.442-3.276-3.489-6.313-4.87L13.5,12.144V11.5C13.5,7.832,12.658,5.345,12,3.96z"/>
<circle style="fill:#333333;" cx="12" cy="12" r="1"/>
</svg>






