<?xml version="1.0" encoding="iso-8859-1"?>
<svg version="1.1" id="&#x56FE;&#x5C42;_1" xmlns="http://www.w3.org/2000/svg" xmlns:xlink="http://www.w3.org/1999/xlink" x="0px"
	 y="0px" viewBox="0 0 24 24" style="enable-background:new 0 0 24 24;" xml:space="preserve">
<path style="fill:#333333;" d="M18,23H2.802l0.692-3.808l1.968,0.357L5.198,21H18V23z M18.562,19.679l-1.7-9.348l1.967-0.357
	l1.7,9.348L18.562,19.679z M6.302,14.929l-1.968-0.357l1.468-8.072L7.77,6.856L6.302,14.929z M16.275,7.102l-0.17-0.931
	l-2.987-1.494c-0.7-0.351-1.537-0.351-2.236,0L9.138,5.549L8.243,3.76l1.744-0.872c1.261-0.63,2.766-0.63,4.025,0l3.882,1.941
	l0.348,1.916L16.275,7.102z"/>
<path style="fill:#333333;" d="M17,11.792c-0.384,0-0.769-0.146-1.061-0.438l-1.293-1.293c-0.585-0.585-0.585-1.536,0-2.121
	l4.293-4.293c0.584-0.585,1.537-0.585,2.121,0l1.293,1.293c0.585,0.585,0.585,1.536,0,2.121l-4.293,4.293
	C17.769,11.646,17.384,11.792,17,11.792z M16.414,9L17,9.586L20.586,6L20,5.414L16.414,9z"/>
<rect x="13.086" y="8.5" transform="matrix(0.7071 -0.7071 0.7071 0.7071 -2.4706 13.0355)" style="fill:#333333;" width="2.828" height="2"/>
<path style="fill:#333333;" d="M18,22.792c-0.384,0-0.769-0.146-1.061-0.438l-4.293-4.293c-0.585-0.585-0.585-1.536,0-2.121
	l1.293-1.293c0.584-0.586,1.537-0.586,2.121,0l4.293,4.293c0.585,0.585,0.585,1.536,0,2.121l-1.293,1.293
	C18.769,22.646,18.384,22.792,18,22.792z M14.414,17L18,20.586L18.586,20L15,16.414L14.414,17z"/>
<rect x="13.5" y="13.086" transform="matrix(0.7071 -0.7071 0.7071 0.7071 -6.0061 14.5)" style="fill:#333333;" width="2" height="2.828"/>
<path style="fill:#333333;" d="M4,20.792c-0.384,0-0.768-0.146-1.061-0.438l-1.293-1.293c-0.585-0.585-0.585-1.536,0-2.121
	l4.293-4.293c0.585-0.586,1.536-0.586,2.121,0l1.293,1.293c0.585,0.585,0.585,1.536,0,2.121l-4.293,4.293
	C4.768,20.646,4.384,20.792,4,20.792z M3.414,18L4,18.586L7.586,15L7,14.414L3.414,18z"/>
<rect x="8.086" y="13.5" transform="matrix(0.7071 -0.7071 0.7071 0.7071 -7.4706 10.9645)" style="fill:#333333;" width="2.828" height="2"/>
<path style="fill:#333333;" d="M9,9.792c-0.384,0-0.768-0.146-1.061-0.438L3.646,5.061c-0.585-0.585-0.585-1.536,0-2.121
	l1.293-1.293c0.585-0.585,1.536-0.585,2.121,0l4.293,4.293c0.585,0.585,0.585,1.536,0,2.121l-1.293,1.293
	C9.768,9.646,9.384,9.792,9,9.792z M5.414,4L9,7.586L9.586,7L6,3.414L5.414,4z"/>
<rect x="8.5" y="8.086" transform="matrix(0.7071 -0.7071 0.7071 0.7071 -3.935 9.5)" style="fill:#333333;" width="2" height="2.828"/>
<path style="fill:#333333;" d="M12,15c-1.654,0-3-1.346-3-3s1.346-3,3-3s3,1.346,3,3S13.654,15,12,15z M12,11c-0.551,0-1,0.449-1,1
	c0,0.552,0.449,1,1,1c0.552,0,1-0.448,1-1C13,11.449,12.552,11,12,11z"/>
</svg>






