<?xml version="1.0" encoding="iso-8859-1"?>
<svg version="1.1" id="&#x56FE;&#x5C42;_1" xmlns="http://www.w3.org/2000/svg" xmlns:xlink="http://www.w3.org/1999/xlink" x="0px"
	 y="0px" viewBox="0 0 24 24" style="enable-background:new 0 0 24 24;" xml:space="preserve">
<path style="fill:#333333;" d="M12,8c-1.93,0-3.5-1.57-3.5-3.5S10.07,1,12,1s3.5,1.57,3.5,3.5S13.93,8,12,8z M12,3
	c-0.827,0-1.5,0.673-1.5,1.5S11.173,6,12,6s1.5-0.673,1.5-1.5S12.827,3,12,3z"/>
<path style="fill:#333333;" d="M16.5,23h-9l-1-1v-3H4l-1-1c0-4.879,4.122-9,9-9c2.377,0,4.631,0.946,6.347,2.665
	c1.714,1.715,2.656,3.965,2.653,6.336L20,19h-2.5v3L16.5,23z M8.5,21h7v-3l1-1h2.428c-0.215-1.464-0.905-2.83-1.996-3.922
	C15.594,11.738,13.842,11,12,11c-3.456,0-6.423,2.659-6.925,6H7.5l1,1V21z"/>
<rect x="6.5" y="11.5" style="fill:#333333;" width="2" height="6.5"/>
<rect x="15.5" y="11.5" style="fill:#333333;" width="2" height="6.5"/>
<rect x="11" y="10" style="fill:#333333;" width="2" height="12"/>
</svg>






