<?xml version="1.0" encoding="iso-8859-1"?>
<svg version="1.1" id="&#x56FE;&#x5C42;_1" xmlns="http://www.w3.org/2000/svg" xmlns:xlink="http://www.w3.org/1999/xlink" x="0px"
	 y="0px" viewBox="0 0 24 24" style="enable-background:new 0 0 24 24;" xml:space="preserve">
<path style="fill:#333333;" d="M16.949,12.949l-1.414-1.414C16.479,10.591,17,9.335,17,8c0-2.757-2.243-5-5-5S7,5.243,7,8
	c0,1.336,0.52,2.591,1.464,3.535L7.05,12.949C5.728,11.628,5,9.87,5,8c0-3.86,3.14-7,7-7c3.859,0,7,3.14,7,7
	C19,9.87,18.271,11.627,16.949,12.949z"/>
<polygon style="fill:#333333;" points="20.02,22.196 19.596,20.079 15.103,16.812 12,19.914 8.897,16.812 4.404,20.079 3.98,22.196 
	2.02,21.804 2.596,18.921 9.103,14.188 12,17.086 14.897,14.188 21.404,18.921 21.98,21.804 "/>
<path style="fill:#333333;" d="M18.126,11.242l-1.932-0.516c0.168-0.631-0.384-1.134-1.393-1.791l-0.225-0.147
	c-0.225-0.151-1.107-0.301-1.635-0.391c-0.771-0.131-1.5-0.255-2.021-0.511C10.162,7.515,9.746,6.754,9.442,6.2
	c-0.07-0.127-0.167-0.305-0.235-0.407C9.063,5.78,8.813,5.868,8.319,6.573c-0.54,0.772-0.817,2.096-0.823,3.933l-2-0.006
	c0.007-2.285,0.395-3.945,1.184-5.074c1.056-1.511,2.176-1.979,3.421-1.438c0.539,0.234,0.822,0.751,1.095,1.251
	c0.165,0.302,0.415,0.758,0.605,0.851c0.262,0.128,0.935,0.243,1.476,0.335c0.943,0.161,1.834,0.312,2.415,0.703l0.199,0.131
	C16.732,7.806,18.701,9.086,18.126,11.242z M9.161,5.73L9.161,5.73L9.161,5.73z"/>
</svg>






