<?xml version="1.0" encoding="iso-8859-1"?>
<svg version="1.1" id="&#x56FE;&#x5C42;_1" xmlns="http://www.w3.org/2000/svg" xmlns:xlink="http://www.w3.org/1999/xlink" x="0px"
	 y="0px" viewBox="0 0 24 24" style="enable-background:new 0 0 24 24;" xml:space="preserve">
<path style="fill:#333333;" d="M21.045,23H2.956c-0.786,0-1.439-0.63-1.455-1.404c-0.018-0.979,0.26-1.821,0.826-2.506
	c0.453-0.548,1.078-0.978,1.91-1.313c0.667-0.269,1.395-0.448,2.025-0.596l0.404-0.093c0.496-0.112,0.977-0.223,1.437-0.359
	c0.131-0.038,0.237-0.091,0.316-0.378c0.017-0.064,0.036-0.136,0.055-0.212c-1.675-0.514-2.944-1.356-3.757-2.023l-1.007-0.826
	l1.058-0.76c0.938-0.673,0.896-1.34,0.726-2.282c-0.02-0.11-0.039-0.214-0.053-0.31c-0.438-2.937-0.089-5.09,1.039-6.398
	c0.696-0.808,1.658-1.269,2.797-1.344c2.312-1.602,4.065-1.312,5.143-0.77c1.877,0.945,3.09,3.47,3.09,6.432
	c0.081,2.583,1.173,3.627,1.825,4.251l0.834,0.799l-0.901,0.719c-1.244,0.973-2.521,1.714-3.811,2.211
	c0.043,0.191,0.087,0.371,0.126,0.512c0.079,0.288,0.185,0.341,0.314,0.379c0.461,0.137,0.942,0.247,1.437,0.358l0.398,0.092
	c0.638,0.149,1.366,0.329,2.032,0.598c0.832,0.336,1.457,0.766,1.91,1.314c0.566,0.684,0.844,1.526,0.825,2.504
	C22.486,22.368,21.834,23,21.045,23z M20.499,21.557c0,0,0,0.001,0,0.002C20.499,21.558,20.499,21.557,20.499,21.557z M3.555,21
	h16.89c-0.059-0.243-0.162-0.453-0.312-0.635c-0.236-0.286-0.602-0.525-1.117-0.733c-0.534-0.216-1.175-0.373-1.732-0.504
	l-0.395-0.091c-0.536-0.122-1.061-0.242-1.561-0.391c-0.59-0.175-1.361-0.623-1.675-1.768c-0.111-0.403-0.255-1.043-0.329-1.565
	l-0.12-0.85l0.822-0.248c1.039-0.312,2.084-0.821,3.119-1.518c-0.751-0.92-1.561-2.385-1.636-4.809
	c-0.001-2.211-0.801-4.078-1.99-4.677c-1.112-0.561-2.415,0.111-3.312,0.776L9.943,4.185h-0.33c-0.696,0-1.241,0.222-1.618,0.66
	c-0.502,0.583-1.01,1.889-0.576,4.799l0.042,0.248c0.131,0.726,0.375,2.076-0.562,3.334c0.73,0.459,1.734,0.952,2.951,1.202
	l0.948,0.194l-0.163,0.953c-0.078,0.457-0.196,0.97-0.287,1.303c-0.313,1.145-1.084,1.594-1.676,1.769
	c-0.499,0.148-1.023,0.269-1.561,0.392l-0.4,0.092c-0.55,0.129-1.189,0.285-1.725,0.502c-0.516,0.207-0.881,0.447-1.117,0.732
	C3.717,20.547,3.613,20.758,3.555,21z"/>
</svg>






