<?xml version="1.0" encoding="iso-8859-1"?>
<svg version="1.1" id="&#x56FE;&#x5C42;_1" xmlns="http://www.w3.org/2000/svg" xmlns:xlink="http://www.w3.org/1999/xlink" x="0px"
	 y="0px" viewBox="0 0 24 24" style="enable-background:new 0 0 24 24;" xml:space="preserve">
<path style="fill:#333333;" d="M12,13c-2.757,0-5-2.243-5-5h2c0,1.654,1.346,3,3,3s3-1.346,3-3h2C17,10.757,14.757,13,12,13z"/>
<path style="fill:#333333;" d="M17,9H7V8c0-2.757,2.243-5,5-5s5,2.243,5,5V9z M9.171,7h5.658C14.416,5.836,13.304,5,12,5
	S9.584,5.836,9.171,7z"/>
<rect x="6" y="7" style="fill:#333333;" width="12" height="2"/>
<rect x="11" y="2" style="fill:#333333;" width="2" height="2"/>
<path style="fill:#333333;" d="M21.5,22.5h-19v-1c0-4.963,4.262-9,9.5-9s9.5,4.037,9.5,9V22.5z M4.576,20.5h14.848
	c-0.521-3.388-3.652-6-7.424-6C8.228,14.5,5.098,17.112,4.576,20.5z"/>
<rect x="8" y="17" style="fill:#333333;" width="2" height="2"/>
<rect x="14" y="17" style="fill:#333333;" width="2" height="2"/>
</svg>






