<?xml version="1.0" encoding="iso-8859-1"?>
<svg version="1.1" id="&#x56FE;&#x5C42;_1" xmlns="http://www.w3.org/2000/svg" xmlns:xlink="http://www.w3.org/1999/xlink" x="0px"
	 y="0px" viewBox="0 0 24 24" style="enable-background:new 0 0 24 24;" xml:space="preserve">
<path style="fill:#333333;" d="M12,23C5.935,23,1,18.065,1,12S5.935,1,12,1s11,4.935,11,11S18.065,23,12,23z M12,3
	c-4.962,0-9,4.038-9,9c0,4.963,4.038,9,9,9c4.963,0,9-4.037,9-9C21,7.038,16.963,3,12,3z"/>
<path style="fill:#333333;" d="M7.856,13.933c-0.202,0-0.398-0.027-0.588-0.08c-1.056-0.296-1.562-1.272-1.968-2.057
	c-0.166-0.319-0.392-0.756-0.536-0.858c-0.384-0.273-1.237-0.132-2.338,0.387L1.573,9.516c1.85-0.874,3.316-0.946,4.351-0.208
	c0.539,0.383,0.851,0.986,1.153,1.569c0.204,0.394,0.512,0.989,0.731,1.05c0.09,0.027,0.331-0.023,0.701-0.249
	c0.177-0.107,0.285-0.19,0.351-0.249C8.789,11.326,8.68,11.19,8.6,11.09c-0.5-0.624-1.335-1.668-0.806-3.175
	c0.559-1.589,1.852-1.84,2.624-1.99c0.767-0.149,0.79-0.167,0.84-0.648c0.022-0.21-0.038-0.271-0.081-0.314
	c-0.176-0.179-1.027-0.736-4.526-0.408L6.464,2.564c3.216-0.302,5.166,0.013,6.135,0.992c0.504,0.508,0.728,1.176,0.648,1.929
	c-0.205,1.969-1.665,2.252-2.448,2.404c-0.762,0.147-0.956,0.229-1.118,0.689c-0.148,0.42,0.014,0.68,0.48,1.261
	c0.391,0.488,0.878,1.096,0.732,1.921c-0.143,0.81-0.835,1.315-1.344,1.625C8.952,13.75,8.385,13.933,7.856,13.933z"/>
<path style="fill:#333333;" d="M15.866,22.008l-1.719-1.021c1.369-2.306,1.573-3.354,1.573-3.775c0-0.146-0.411-0.493-0.711-0.745
	c-0.813-0.686-1.928-1.623-2.085-3.447c-0.067-0.782,0.163-1.471,0.667-1.993c1.213-1.255,3.594-1.132,4.875-1.068
	c0.02,0.001,0.039,0.002,0.058,0.003c0.01-0.085,0.005-0.189-0.033-0.279c-0.029-0.068-0.075-0.144-0.265-0.182
	c-0.473-0.095-0.791-0.003-1.193,0.111c-0.613,0.176-1.457,0.418-2.542-0.235c-0.455-0.274-0.731-0.709-0.777-1.225
	c-0.074-0.837,0.314-2.011,3.629-4.904l1.314,1.507c-2.023,1.766-2.66,2.653-2.86,3.033c0.184,0.046,0.352-0.002,0.687-0.099
	c0.501-0.144,1.186-0.34,2.138-0.149c1.244,0.25,2.022,1.325,1.895,2.612c-0.105,1.056-0.814,1.822-1.687,1.822
	c-0.107,0-0.268-0.007-0.466-0.018c-0.678-0.036-2.752-0.142-3.333,0.46c-0.048,0.05-0.138,0.144-0.113,0.432
	c0.087,0.999,0.687,1.504,1.381,2.089c0.667,0.562,1.423,1.198,1.423,2.275C17.721,18.354,17.132,19.878,15.866,22.008z"/>
<path style="fill:#333333;" d="M11.886,22.416l-1.765-0.941c0.362-0.679,0.554-1.277,0.571-1.779
	c-0.092-0.043-0.238-0.094-0.343-0.131c-0.367-0.129-0.824-0.288-1.182-0.663c-0.405-0.425-0.476-0.96-0.534-1.391
	c-0.083-0.621-0.138-0.882-0.676-1.119c-0.375-0.167-1.333-0.314-3.503,0.562c-0.224,0.091-0.559,0.233-1.003,0.427l-0.798-1.834
	C3.12,15.343,3.47,15.194,3.705,15.1c2.207-0.892,3.861-1.066,5.061-0.538c1.585,0.7,1.758,1.991,1.851,2.685
	c0.013,0.097,0.029,0.22,0.046,0.3c0.083,0.038,0.237,0.093,0.348,0.131c0.547,0.191,1.684,0.59,1.684,1.945
	C12.693,20.471,12.422,21.41,11.886,22.416z"/>
</svg>






