<?xml version="1.0" encoding="iso-8859-1"?>
<svg version="1.1" id="&#x56FE;&#x5C42;_1" xmlns="http://www.w3.org/2000/svg" xmlns:xlink="http://www.w3.org/1999/xlink" x="0px"
	 y="0px" viewBox="0 0 24 24" style="enable-background:new 0 0 24 24;" xml:space="preserve">
<path style="fill:#333333;" d="M14.914,13H11V9.086l8.5-8.5L23.414,4.5L14.914,13z M13,11h1.086l6.5-6.5L19.5,3.414l-6.5,6.5V11z"/>
<path style="fill:#333333;" d="M19.5,23H9v-2h10.5c0.827,0,1.5-0.673,1.5-1.5S20.327,18,19.5,18h-15C2.57,18,1,16.43,1,14.5
	S2.57,11,4.5,11H8v2H4.5C3.673,13,3,13.673,3,14.5S3.673,16,4.5,16h15c1.93,0,3.5,1.57,3.5,3.5S21.43,23,19.5,23z"/>
</svg>






