<?xml version="1.0" encoding="iso-8859-1"?>
<svg version="1.1" id="&#x56FE;&#x5C42;_1" xmlns="http://www.w3.org/2000/svg" xmlns:xlink="http://www.w3.org/1999/xlink" x="0px"
	 y="0px" viewBox="0 0 24 24" style="enable-background:new 0 0 24 24;" xml:space="preserve">
<path style="fill:#333333;" d="M23,22H1V9.479l11-7.7l11,7.7V22z M3,20h18v-9.479l-9-6.3l-9,6.3V20z"/>
<path style="fill:#333333;" d="M16.95,14.051c-0.654-0.654-1.419-1.165-2.271-1.518c-1.707-0.707-3.65-0.707-5.358,0
	c-0.853,0.353-1.617,0.863-2.271,1.517l-1.414-1.414c0.841-0.84,1.823-1.497,2.919-1.951c2.196-0.909,4.691-0.909,6.889,0
	c1.096,0.454,2.078,1.11,2.92,1.95L16.95,14.051z"/>
<path style="fill:#333333;" d="M9.879,16.879l-1.415-1.414c0.466-0.466,1.012-0.831,1.623-1.084c1.22-0.506,2.608-0.506,3.827,0
	c0.612,0.254,1.158,0.619,1.623,1.085l-1.416,1.412c-0.278-0.278-0.605-0.497-0.973-0.649c-0.733-0.304-1.564-0.302-2.295,0
	C10.485,16.381,10.158,16.6,9.879,16.879z"/>
</svg>






