<?xml version="1.0" encoding="iso-8859-1"?>
<svg version="1.1" id="&#x56FE;&#x5C42;_1" xmlns="http://www.w3.org/2000/svg" xmlns:xlink="http://www.w3.org/1999/xlink" x="0px"
	 y="0px" viewBox="0 0 24 24" style="enable-background:new 0 0 24 24;" xml:space="preserve">
<path style="fill:#333333;" d="M12,20c-1.294,0-2.818-0.102-4.529-0.301c-2.258-0.263-3.621-0.422-4.858-1.688
	c-1.238-1.267-1.35-2.468-1.537-4.459C1.025,13.017,1,12.493,1,12s0.025-1.016,0.076-1.554c0.187-1.99,0.299-3.192,1.537-4.458
	C3.85,4.723,5.212,4.564,7.469,4.3C9.179,4.101,10.703,4,12,4c1.297,0,2.821,0.101,4.529,0.3c2.258,0.264,3.62,0.422,4.857,1.688
	c1.238,1.266,1.351,2.467,1.538,4.458C22.975,10.981,23,11.503,23,12c0,0.497-0.025,1.02-0.075,1.554
	c-0.188,1.99-0.3,3.192-1.538,4.458c-1.237,1.266-2.601,1.425-4.858,1.688C14.818,19.898,13.295,20,12,20z M12,6
	c-1.22,0-2.666,0.097-4.297,0.287c-2.217,0.259-2.951,0.375-3.659,1.1c-0.711,0.728-0.795,1.316-0.976,3.247v0
	C3.022,11.109,3,11.569,3,12c0,0.432,0.022,0.891,0.067,1.366c0.181,1.931,0.265,2.52,0.976,3.247c0.708,0.725,1.443,0.841,3.66,1.1
	C9.337,17.903,10.783,18,12,18c1.218,0,2.663-0.097,4.297-0.287c2.216-0.258,2.951-0.374,3.66-1.1
	c0.711-0.728,0.795-1.316,0.976-3.247C20.978,12.895,21,12.435,21,12c0-0.434-0.022-0.894-0.067-1.366
	c-0.181-1.931-0.265-2.52-0.976-3.247c-0.709-0.725-1.443-0.841-3.659-1.1C14.666,6.097,13.22,6,12,6z"/>
<rect x="7" y="9.5" style="fill:#333333;" width="2" height="5"/>
<polygon style="fill:#333333;" points="15.793,15.207 12.586,12 15.793,8.793 17.207,10.207 15.414,12 17.207,13.793 "/>
</svg>






