<?xml version="1.0" encoding="iso-8859-1"?>
<svg version="1.1" id="&#x56FE;&#x5C42;_1" xmlns="http://www.w3.org/2000/svg" xmlns:xlink="http://www.w3.org/1999/xlink" x="0px"
	 y="0px" viewBox="0 0 24 24" style="enable-background:new 0 0 24 24;" xml:space="preserve">
<path style="fill:#333333;" d="M12,20c-3.67,0-7.318-0.777-9.166-1.24C1.754,18.489,1,17.512,1,16.384V7.616
	C1,6.489,1.754,5.512,2.833,5.24C4.682,4.777,8.33,4,12,4c3.669,0,7.317,0.777,9.166,1.24C22.246,5.512,23,6.489,23,7.616v8.768
	c0,1.128-0.754,2.105-1.834,2.376C19.317,19.223,15.669,20,12,20z M12,6C8.544,6,5.079,6.739,3.321,7.18
	C3.129,7.228,3,7.403,3,7.616v8.768c0,0.21,0.132,0.389,0.321,0.437C5.079,17.261,8.544,18,12,18c3.455,0,6.921-0.739,8.68-1.18
	c0.188-0.048,0.32-0.227,0.32-0.437V7.616c0-0.209-0.132-0.389-0.321-0.437C18.921,6.739,15.455,6,12,6z"/>
<path style="fill:#333333;" d="M11,16.041c-0.236,0-0.474-0.057-0.692-0.17C9.81,15.611,9.5,15.102,9.5,14.54V9.46
	c0-0.562,0.31-1.071,0.808-1.331c0.499-0.258,1.093-0.22,1.553,0.102l3.628,2.539c0.401,0.281,0.641,0.741,0.64,1.231
	c0,0.489-0.24,0.948-0.641,1.228l-3.627,2.539C11.603,15.949,11.302,16.041,11,16.041z M11.5,10.421v3.158L13.756,12L11.5,10.421z"
	/>
</svg>






