<?xml version="1.0" encoding="iso-8859-1"?>
<svg version="1.1" id="&#x56FE;&#x5C42;_1" xmlns="http://www.w3.org/2000/svg" xmlns:xlink="http://www.w3.org/1999/xlink" x="0px"
	 y="0px" viewBox="0 0 24 24" style="enable-background:new 0 0 24 24;" xml:space="preserve">
<path style="fill:#333333;" d="M21.5,22.5h-19C1.673,22.5,1,21.827,1,21V6.838c0-0.617,0.37-1.164,0.943-1.393L12,1.423
	l10.057,4.023C22.629,5.673,23,6.22,23,6.838V21C23,21.827,22.327,22.5,21.5,22.5z M3,20.5h18V7.177l-9-3.6l-9,3.6V20.5z
	 M21.314,7.303c0,0,0.001,0,0.002,0L21.314,7.303z"/>
<rect x="11" y="11" style="fill:#333333;" width="2" height="5"/>
<path style="fill:#333333;" d="M16.5,14.5c-1.379,0-2.5-1.01-2.5-2.25v-1.1c0-0.634,0.516-1.15,1.15-1.15h1.35
	c1.379,0,2.5,1.009,2.5,2.25C19,13.49,17.879,14.5,16.5,14.5z M16,12v0.25c0,0.076,0.188,0.25,0.5,0.25s0.5-0.174,0.5-0.25
	S16.812,12,16.5,12H16z"/>
<rect x="14" y="11" style="fill:#333333;" width="2" height="5"/>
<polygon style="fill:#333333;" points="9.002,17 6,17 5.143,15.485 7.235,12 6,12 6,10 9.002,10 9.86,11.515 7.767,15 9.002,15 "/>
</svg>






