<?xml version="1.0" encoding="iso-8859-1"?>
<svg version="1.1" id="&#x56FE;&#x5C42;_1" xmlns="http://www.w3.org/2000/svg" xmlns:xlink="http://www.w3.org/1999/xlink" x="0px"
	 y="0px" viewBox="0 0 24 24" style="enable-background:new 0 0 24 24;" xml:space="preserve">
<path style="fill:#333333;" d="M12.852,23.084c-1.007,0-2.049-0.216-3.202-0.647l0,0c-2.538-0.949-4.579-3.856-5.844-6.129
	c-0.655-1.176-0.348-2.655,0.73-3.518c0.863-0.688,2.003-0.818,2.963-0.407V10.25C7.5,9.009,8.509,8,9.75,8
	c0.089,0,0.176,0.005,0.262,0.015C10.13,6.884,11.089,6,12.25,6c1.24,0,2.25,1.009,2.25,2.25v1.764
	c1.036-0.114,2.055,0.552,2.382,1.517c0.12-0.02,0.243-0.03,0.368-0.03c1.24,0,2.25,1.01,2.25,2.25v3.934
	c0,0.781-0.216,1.5-0.623,2.078c-0.636,0.901-1.67,2.095-2.983,2.657C14.859,22.862,13.873,23.084,12.852,23.084z M6.358,14.15
	c-0.202,0-0.404,0.066-0.572,0.201c-0.317,0.254-0.414,0.658-0.233,0.983c1.535,2.757,3.283,4.662,4.797,5.229l0,0
	c1.866,0.697,3.154,0.703,4.756,0.018c0.93-0.398,1.737-1.406,2.136-1.972c0.213-0.302,0.258-0.67,0.258-0.926V13.75
	c0-0.275-0.5-0.275-0.5,0h-2v-1.5c0-0.275-0.5-0.275-0.5,0h-2v-4c0-0.275-0.5-0.275-0.5,0v2h-2c0-0.275-0.5-0.275-0.5,0v4.25
	l-1.707,0.707l-0.788-0.788C6.827,14.241,6.593,14.15,6.358,14.15z"/>
<rect x="6.5" y="3" style="fill:#333333;" width="11" height="2"/>
<polygon style="fill:#333333;" points="7.793,6.707 5.086,4 7.793,1.293 9.207,2.707 7.914,4 9.207,5.293 "/>
<polygon style="fill:#333333;" points="16.207,6.707 14.793,5.293 16.086,4 14.793,2.707 16.207,1.293 18.914,4 "/>
</svg>






