<?xml version="1.0" encoding="iso-8859-1"?>
<svg version="1.1" id="&#x56FE;&#x5C42;_1" xmlns="http://www.w3.org/2000/svg" xmlns:xlink="http://www.w3.org/1999/xlink" x="0px"
	 y="0px" viewBox="0 0 24 24" style="enable-background:new 0 0 24 24;" xml:space="preserve">
<path style="fill:#333333;" d="M1.5,21.506C1.479,19.623,1.647,17.981,2,16.624c0.207-0.795,0.744-1.637,1.366-2.612
	c1.037-1.627,2.212-3.47,2.212-5.629c0-2.269-0.67-4.133-1.993-5.54l0.729-0.685c1.502,1.598,2.264,3.693,2.264,6.225
	c0,2.451-1.313,4.511-2.369,6.167c-0.577,0.904-1.074,1.685-1.241,2.327C2.638,18.147,2.48,19.701,2.5,21.494L1.5,21.506z"/>
<path style="fill:#333333;" d="M22.078,21.506l-1-0.012c0.02-1.792-0.138-3.346-0.469-4.618c-0.167-0.643-0.665-1.423-1.241-2.327
	C18.313,12.894,17,10.833,17,8.382c0-2.532,0.762-4.626,2.264-6.225l0.729,0.685C18.67,4.249,18,6.113,18,8.382
	c0,2.159,1.175,4.002,2.211,5.628c0.622,0.976,1.159,1.818,1.366,2.613C21.931,17.982,22.099,19.625,22.078,21.506z"/>
<path style="fill:#333333;" d="M12.011,19.016c-2.748,0-5.828-1.068-9.156-3.175l0.535-0.846c3.166,2.004,6.066,3.021,8.621,3.021
	c2.547,0,5.294-1.012,8.164-3.008l0.57,0.82C17.705,17.943,14.766,19.016,12.011,19.016z"/>
<path style="fill:#333333;" d="M12,15.5c0.69,0,1.25-0.56,1.25-1.25S12.69,13,12,13s-1.25,0.56-1.25,1.25S11.31,15.5,12,15.5z"/>
</svg>






