<?xml version="1.0" encoding="iso-8859-1"?>
<svg version="1.1" id="&#x56FE;&#x5C42;_1" xmlns="http://www.w3.org/2000/svg" xmlns:xlink="http://www.w3.org/1999/xlink" x="0px"
	 y="0px" viewBox="0 0 24 24" style="enable-background:new 0 0 24 24;" xml:space="preserve">
<path style="fill:#333333;" d="M10,22.5H5c-0.827,0-1.5-0.673-1.5-1.5V3c0-0.827,0.673-1.5,1.5-1.5h14c0.827,0,1.5,0.673,1.5,1.5
	v5.199h-1V3c0-0.276-0.225-0.5-0.5-0.5H5C4.724,2.5,4.5,2.724,4.5,3v18c0,0.275,0.224,0.5,0.5,0.5h5V22.5z"/>
<rect x="8" y="6.5" style="fill:#333333;" width="6.5" height="1"/>
<rect x="8" y="10" style="fill:#333333;" width="2.5" height="1"/>
<path style="fill:#333333;" d="M17,22.5c-3.032,0-5.5-2.468-5.5-5.5s2.468-5.5,5.5-5.5s5.5,2.468,5.5,5.5S20.032,22.5,17,22.5z
	 M17,12.5c-2.481,0-4.5,2.019-4.5,4.5s2.019,4.5,4.5,4.5s4.5-2.019,4.5-4.5S19.481,12.5,17,12.5z"/>
<rect x="16.5" y="18" style="fill:#333333;" width="1" height="1.5"/>
<circle style="fill:#333333;" cx="17" cy="15" r="1"/>
</svg>






