<?xml version="1.0" encoding="iso-8859-1"?>
<svg version="1.1" id="&#x56FE;&#x5C42;_1" xmlns="http://www.w3.org/2000/svg" xmlns:xlink="http://www.w3.org/1999/xlink" x="0px"
	 y="0px" viewBox="0 0 24 24" style="enable-background:new 0 0 24 24;" xml:space="preserve">
<rect x="17" y="17" style="fill:#333333;" width="4" height="1"/>
<rect x="13.5" y="20.5" style="fill:#333333;" width="2" height="1"/>
<path style="fill:#333333;" d="M22,14H6c-1.401,0-3.571-3.678-4.438-5.259L1.155,8h3.026l3,2.5h12l3.14,2.616L22,14z M2.858,9
	C4.133,11.183,5.529,12.979,6,13h14.619l-1.8-1.5h-12l-3-2.5H2.858z"/>
<polygon style="fill:#333333;" points="14.712,11.409 9.171,7.5 8.722,7.5 9.968,10.824 9.032,11.176 7.278,6.5 9.489,6.5 
	15.288,10.591 "/>
<polygon style="fill:#333333;" points="8.798,20 6.292,20 8.662,13.332 9.604,13.668 7.708,19 8.402,19 14.658,13.135 
	15.342,13.865 "/>
<path style="fill:#333333;" d="M19.5,7h-5l-0.158-0.974c0.495-0.166,1.021-0.437,1.157-0.59V5.354
	c-0.008-0.525-0.02-1.404,0.777-1.802c0.417-0.209,0.928-0.2,1.313-0.148C17.795,2.71,18.374,2,19.511,2
	c0.795,0,1.518,0.386,1.983,1.059c0.503,0.726,0.639,1.697,0.346,2.474C21.295,6.983,19.573,7,19.5,7z M16.324,6H19.5
	c0.009,0,1.104-0.02,1.404-0.819c0.18-0.479,0.089-1.089-0.232-1.553C20.51,3.394,20.143,3,19.511,3
	c-0.923,0-1.007,0.769-1.011,1.004l-0.011,0.663l-0.636-0.188c-0.24-0.072-0.838-0.176-1.13-0.031c-0.2,0.1-0.232,0.368-0.225,0.894
	L16.5,5.5C16.5,5.681,16.435,5.848,16.324,6z"/>
</svg>






