<?xml version="1.0" encoding="iso-8859-1"?>
<svg version="1.1" id="&#x56FE;&#x5C42;_1" xmlns="http://www.w3.org/2000/svg" xmlns:xlink="http://www.w3.org/1999/xlink" x="0px"
	 y="0px" viewBox="0 0 24 24" style="enable-background:new 0 0 24 24;" xml:space="preserve">
<path style="fill:#333333;" d="M12,22.559l-10.5-5.25V6.691L12,1.441l10.5,5.25v10.618L12,22.559z M2.5,16.691l9.5,4.75l9.5-4.75
	V7.309L12,2.559l-9.5,4.75V16.691z"/>
<rect x="6.5" y="3.91" transform="matrix(0.4472 -0.8944 0.8944 0.4472 -4.6276 11.5125)" style="fill:#333333;" width="1" height="11.18"/>
<rect x="11.5" y="12" style="fill:#333333;" width="1" height="10"/>
<rect x="11.41" y="9" transform="matrix(0.8944 -0.4472 0.4472 0.8944 -2.4538 8.6056)" style="fill:#333333;" width="11.18" height="1"/>
<rect x="6.41" y="6.5" transform="matrix(0.8944 -0.4472 0.4472 0.8944 -1.8636 6.1056)" style="fill:#333333;" width="11.18" height="1"/>
</svg>






