<?xml version="1.0" encoding="iso-8859-1"?>
<svg version="1.1" id="&#x56FE;&#x5C42;_1" xmlns="http://www.w3.org/2000/svg" xmlns:xlink="http://www.w3.org/1999/xlink" x="0px"
	 y="0px" viewBox="0 0 24 24" style="enable-background:new 0 0 24 24;" xml:space="preserve">
<path style="fill:#333333;" d="M12,22.5C6.21,22.5,1.5,17.79,1.5,12C1.5,6.21,6.21,1.5,12,1.5c5.79,0,10.5,4.71,10.5,10.5
	C22.5,17.79,17.79,22.5,12,22.5z M12,2.5c-5.238,0-9.5,4.262-9.5,9.5s4.262,9.5,9.5,9.5s9.5-4.262,9.5-9.5S17.238,2.5,12,2.5z"/>
<rect x="17.75" y="17.189" transform="matrix(0.7071 -0.7071 0.7071 0.7071 -7.5594 18.25)" style="fill:#333333;" width="1" height="2.121"/>
<rect x="5.25" y="4.689" transform="matrix(0.7071 -0.7071 0.7071 0.7071 -2.3817 5.75)" style="fill:#333333;" width="1" height="2.121"/>
<path style="fill:none;" d="M10.571,14L9,8.5L7.429,14H10.571z"/>
<path style="fill:#333333;" d="M10.519,15.638L10.194,14.5H7.806l-0.325,1.138l-0.962-0.275l2-7h0.962l2,7L10.519,15.638z
	 M10.571,14l0.013-0.004L10.571,14z M7.416,13.996L7.429,14L7.416,13.996z M8.092,13.5h1.816L9,10.32L8.092,13.5z"/>
<path style="fill:#333333;" d="M13.5,16H13V8h0.5c2.817,0,4.5,1.495,4.5,4S16.317,16,13.5,16z M14,9.02v5.961
	c1.299-0.104,3-0.682,3-2.98C17,9.701,15.299,9.125,14,9.02z"/>
</svg>






