<?xml version="1.0" encoding="iso-8859-1"?>
<svg version="1.1" id="&#x56FE;&#x5C42;_1" xmlns="http://www.w3.org/2000/svg" xmlns:xlink="http://www.w3.org/1999/xlink" x="0px"
	 y="0px" viewBox="0 0 24 24" style="enable-background:new 0 0 24 24;" xml:space="preserve">
<path style="fill:#333333;" d="M12,22C6.486,22,2,17.514,2,12C2,6.486,6.486,2,12,2c1.652,0,3.29,0.412,4.737,1.191l-0.475,0.881
	C14.961,3.371,13.487,3,12,3c-4.962,0-9,4.038-9,9c0,4.963,4.038,9,9,9c1.324,0,2.599-0.28,3.789-0.834l0.422,0.906
	C14.888,21.688,13.471,22,12,22z"/>
<rect x="15.5" y="14.5" style="fill:#333333;" width="6" height="1"/>
<polygon style="fill:#333333;" points="10.991,15.197 7.146,11.354 7.854,10.646 11.009,13.803 20.156,5.137 20.844,5.863 "/>
<rect x="18" y="12" style="fill:#333333;" width="1" height="6"/>
</svg>






