<?xml version="1.0" encoding="iso-8859-1"?>
<svg version="1.1" id="&#x56FE;&#x5C42;_1" xmlns="http://www.w3.org/2000/svg" xmlns:xlink="http://www.w3.org/1999/xlink" x="0px"
	 y="0px" viewBox="0 0 24 24" style="enable-background:new 0 0 24 24;" xml:space="preserve">
<polygon style="fill:#333333;" points="9,18 4.5,18 4.5,14 5.5,14 5.5,17 9,17 "/>
<path style="fill:#333333;" d="M21.5,21.5h-13v-8h13V21.5z M9.5,20.5h11v-6h-11V20.5z"/>
<rect x="2.5" y="6.25" style="fill:#333333;" width="1" height="0.5"/>
<rect x="2.5" y="9.5" style="fill:#333333;" width="1" height="0.5"/>
<rect x="2.5" y="3" style="fill:#333333;" width="1" height="0.5"/>
<rect x="15.5" y="6.25" style="fill:#333333;" width="1" height="0.5"/>
<rect x="15.5" y="9.5" style="fill:#333333;" width="1" height="0.5"/>
<rect x="15.5" y="3" style="fill:#333333;" width="1" height="0.5"/>
<rect x="15.5" y="9.5" style="fill:#333333;" width="0.5" height="1"/>
<rect x="3" y="9.5" style="fill:#333333;" width="0.5" height="1"/>
<rect x="3" y="2.5" style="fill:#333333;" width="0.5" height="1"/>
<rect x="6" y="2.5" style="fill:#333333;" width="0.5" height="1"/>
<rect x="9.25" y="2.5" style="fill:#333333;" width="0.5" height="1"/>
<rect x="9.25" y="9.5" style="fill:#333333;" width="0.5" height="1"/>
<rect x="12.5" y="2.5" style="fill:#333333;" width="0.5" height="1"/>
<rect x="6" y="9.5" style="fill:#333333;" width="0.5" height="1"/>
<rect x="12.5" y="9.5" style="fill:#333333;" width="0.5" height="1"/>
<rect x="15.5" y="2.5" style="fill:#333333;" width="0.5" height="1"/>
</svg>






