<?xml version="1.0" encoding="iso-8859-1"?>
<svg version="1.1" id="&#x56FE;&#x5C42;_1" xmlns="http://www.w3.org/2000/svg" xmlns:xlink="http://www.w3.org/1999/xlink" x="0px"
	 y="0px" viewBox="0 0 24 24" style="enable-background:new 0 0 24 24;" xml:space="preserve">
<rect x="11.5" y="12" style="fill:#333333;" width="1" height="3"/>
<path style="fill:#333333;" d="M21.5,21.5h-19v-7h19V21.5z M3.5,20.5h17v-5h-17V20.5z"/>
<rect x="2.5" y="5.75" style="fill:#333333;" width="1" height="0.5"/>
<rect x="2.5" y="8.5" style="fill:#333333;" width="1" height="0.5"/>
<rect x="2.5" y="3" style="fill:#333333;" width="1" height="0.5"/>
<rect x="20.5" y="5.75" style="fill:#333333;" width="1" height="0.5"/>
<rect x="20.5" y="8.5" style="fill:#333333;" width="1" height="0.5"/>
<rect x="20.5" y="3" style="fill:#333333;" width="1" height="0.5"/>
<rect x="20.5" y="8.5" style="fill:#333333;" width="0.5" height="1"/>
<rect x="3" y="8.5" style="fill:#333333;" width="0.5" height="1"/>
<rect x="3" y="2.5" style="fill:#333333;" width="0.5" height="1"/>
<rect x="6.5" y="2.5" style="fill:#333333;" width="0.5" height="1"/>
<rect x="10" y="2.5" style="fill:#333333;" width="0.5" height="1"/>
<rect x="10" y="8.5" style="fill:#333333;" width="0.5" height="1"/>
<rect x="13.5" y="2.5" style="fill:#333333;" width="0.5" height="1"/>
<rect x="6.5" y="8.5" style="fill:#333333;" width="0.5" height="1"/>
<rect x="13.5" y="8.5" style="fill:#333333;" width="0.5" height="1"/>
<rect x="17" y="2.5" style="fill:#333333;" width="0.5" height="1"/>
<rect x="17" y="8.5" style="fill:#333333;" width="0.5" height="1"/>
<rect x="20.5" y="2.5" style="fill:#333333;" width="0.5" height="1"/>
</svg>






