<?xml version="1.0" encoding="iso-8859-1"?>
<svg version="1.1" id="&#x56FE;&#x5C42;_1" xmlns="http://www.w3.org/2000/svg" xmlns:xlink="http://www.w3.org/1999/xlink" x="0px"
	 y="0px" viewBox="0 0 24 24" style="enable-background:new 0 0 24 24;" xml:space="preserve">
<path style="fill:#333333;" d="M18,21.5H4c-0.827,0-1.5-0.673-1.5-1.5V6c0-0.827,0.673-1.5,1.5-1.5h9.182v1H4
	C3.724,5.5,3.5,5.724,3.5,6v14c0,0.275,0.224,0.5,0.5,0.5h14c0.275,0,0.5-0.225,0.5-0.5v-9.5h1V20C19.5,20.827,18.827,21.5,18,21.5z
	"/>
<path style="fill:#333333;" d="M16.97,16.016H5.003l3.943-5.278l1.467,1.468l1.813-2.851L16.97,16.016z M6.998,15.016h8.032
	l-2.757-3.871l-1.686,2.649l-1.533-1.532L6.998,15.016z"/>
<rect x="17" y="4.5" style="fill:#333333;" width="4" height="1"/>
<rect x="18.497" y="2.897" style="fill:#333333;" width="1" height="4"/>
</svg>






