<?xml version="1.0" encoding="iso-8859-1"?>
<svg version="1.1" id="&#x56FE;&#x5C42;_1" xmlns="http://www.w3.org/2000/svg" xmlns:xlink="http://www.w3.org/1999/xlink" x="0px"
	 y="0px" viewBox="0 0 24 24" style="enable-background:new 0 0 24 24;" xml:space="preserve">
<rect x="11.5" y="8" style="fill:#333333;" width="1" height="8"/>
<rect x="20.5" y="10.5" style="fill:#333333;" width="1" height="3"/>
<rect x="2.5" y="10.5" style="fill:#333333;" width="1" height="3"/>
<path style="fill:#333333;" d="M3.5,7h-1V4c0-0.827,0.673-1.5,1.5-1.5h3v1H4C3.724,3.5,3.5,3.724,3.5,4V7z"/>
<path style="fill:#333333;" d="M21.5,7h-1V4c0-0.276-0.225-0.5-0.5-0.5h-3v-1h3c0.827,0,1.5,0.673,1.5,1.5V7z"/>
<path style="fill:#333333;" d="M20,21.5h-3v-1h3c0.275,0,0.5-0.225,0.5-0.5v-3h1v3C21.5,20.827,20.827,21.5,20,21.5z"/>
<path style="fill:#333333;" d="M7,21.5H4c-0.827,0-1.5-0.673-1.5-1.5v-3h1v3c0,0.275,0.224,0.5,0.5,0.5h3V21.5z"/>
<rect x="10.5" y="2.5" style="fill:#333333;" width="3" height="1"/>
<rect x="8" y="11.5" style="fill:#333333;" width="8" height="1"/>
<rect x="10.5" y="20.5" style="fill:#333333;" width="3" height="1"/>
</svg>






