<?xml version="1.0" encoding="iso-8859-1"?>
<svg version="1.1" id="&#x56FE;&#x5C42;_1" xmlns="http://www.w3.org/2000/svg" xmlns:xlink="http://www.w3.org/1999/xlink" x="0px"
	 y="0px" viewBox="0 0 24 24" style="enable-background:new 0 0 24 24;" xml:space="preserve">
<polygon style="fill:#333333;" points="21.5,10 18,10 18,9 20.5,9 20.5,3.5 3.5,3.5 3.5,9 6,9 6,10 2.5,10 2.5,2.5 21.5,2.5 "/>
<path style="fill:#333333;" d="M12,22.622l-3-2.223l-2.702,2.002L5.5,22V5.5h13V22l-0.798,0.401L15,20.399L12,22.622z M9,19.155
	l3,2.223l3-2.223l2.5,1.852V6.5h-11v14.507L9,19.155z"/>
<rect x="10" y="12.5" style="fill:#333333;" width="4" height="1"/>
<rect x="11.5" y="11" style="fill:#333333;" width="1" height="4"/>
</svg>






