<?xml version="1.0" encoding="iso-8859-1"?>
<svg version="1.1" id="&#x56FE;&#x5C42;_1" xmlns="http://www.w3.org/2000/svg" xmlns:xlink="http://www.w3.org/1999/xlink" x="0px"
	 y="0px" viewBox="0 0 24 24" style="enable-background:new 0 0 24 24;" xml:space="preserve">
<polygon style="fill:#333333;" points="20.5,22.5 3.5,22.5 3.5,18 4.5,18 4.5,21.5 19.5,21.5 19.5,2.5 4.5,2.5 4.5,6 3.5,6 3.5,1.5 
	20.5,1.5 "/>
<rect x="3" y="14.5" style="fill:#333333;" width="2" height="1"/>
<rect x="3" y="11.5" style="fill:#333333;" width="2" height="1"/>
<rect x="3" y="8.5" style="fill:#333333;" width="2" height="1"/>
<path style="fill:#333333;" d="M12,11c-1.378,0-2.5-1.122-2.5-2.5S10.622,6,12,6c1.379,0,2.5,1.122,2.5,2.5S13.379,11,12,11z M12,7
	c-0.827,0-1.5,0.673-1.5,1.5S11.173,10,12,10s1.5-0.673,1.5-1.5S12.827,7,12,7z"/>
<path style="fill:#333333;" d="M16.5,17.5h-1c0-1.93-1.57-3.5-3.5-3.5s-3.5,1.57-3.5,3.5h-1c0-2.481,2.019-4.5,4.5-4.5
	S16.5,15.019,16.5,17.5z"/>
</svg>






