<?xml version="1.0" encoding="iso-8859-1"?>
<svg version="1.1" id="&#x56FE;&#x5C42;_1" xmlns="http://www.w3.org/2000/svg" xmlns:xlink="http://www.w3.org/1999/xlink" x="0px"
	 y="0px" viewBox="0 0 24 24" style="enable-background:new 0 0 24 24;" xml:space="preserve">
<path style="fill:none;" d="M7,14.5h14v6H7v-3V14.5z"/>
<path style="fill:none;" d="M7,3.5h14v6H7v-3V3.5z"/>
<path style="fill:#333333;" d="M21.5,21h-15v-3h-4V6h4V3h15v7h-15V7h-3v10h3v-3h15V21z M7.5,20h13v-5h-13V20z M7.5,9h13V4h-13V9z"/>
<polygon style="fill:#333333;" points="7,18 2.5,18 2.5,6 7,6 7,7 3.5,7 3.5,17 7,17 "/>
<path style="fill:#333333;" d="M21.5,21h-15v-7h15V21z M7.5,20h13v-5h-13V20z"/>
<path style="fill:#333333;" d="M21.5,10h-15V3h15V10z M7.5,9h13V4h-13V9z"/>
</svg>






