<?xml version="1.0" encoding="iso-8859-1"?>
<svg version="1.1" id="&#x56FE;&#x5C42;_1" xmlns="http://www.w3.org/2000/svg" xmlns:xlink="http://www.w3.org/1999/xlink" x="0px"
	 y="0px" viewBox="0 0 24 24" style="enable-background:new 0 0 24 24;" xml:space="preserve">
<path style="fill:#333333;" d="M19.5,21.5h-15c-1.103,0-2-0.897-2-2v-15c0-1.103,0.897-2,2-2h15c1.103,0,2,0.897,2,2v15
	C21.5,20.603,20.603,21.5,19.5,21.5z M4.5,3.5c-0.551,0-1,0.449-1,1v15c0,0.552,0.449,1,1,1h15c0.552,0,1-0.448,1-1v-15
	c0-0.551-0.448-1-1-1H4.5z"/>
<polygon style="fill:#333333;" points="11,17 6.5,17 6.5,7.5 7.5,7.5 7.5,16 11,16 "/>
<rect x="13.5" y="10.5" style="fill:#333333;" width="1" height="6"/>
<path style="fill:#333333;" d="M14.436,13.245l-0.871-0.49C14.833,10.5,16.297,10.5,17,10.5v1C16.37,11.5,15.417,11.5,14.436,13.245
	z"/>
</svg>






