<?xml version="1.0" encoding="iso-8859-1"?>
<svg version="1.1" id="&#x56FE;&#x5C42;_1" xmlns="http://www.w3.org/2000/svg" xmlns:xlink="http://www.w3.org/1999/xlink" x="0px"
	 y="0px" viewBox="0 0 24 24" style="enable-background:new 0 0 24 24;" xml:space="preserve">
<path style="fill:#333333;" d="M19.5,21.5h-15c-1.103,0-2-0.897-2-2v-15c0-1.103,0.897-2,2-2h15c1.103,0,2,0.897,2,2v15
	C21.5,20.603,20.603,21.5,19.5,21.5z M4.5,3.5c-0.551,0-1,0.449-1,1v15c0,0.552,0.449,1,1,1h15c0.552,0,1-0.448,1-1v-15
	c0-0.551-0.448-1-1-1H4.5z"/>
<rect x="6.5" y="7.5" style="fill:#333333;" width="1" height="9"/>
<path style="fill:#333333;" d="M8,13H6.5V7H8c2.542,0,4,1.093,4,3S10.542,13,8,13z M7.5,12H8c1.991,0,3-0.673,3-2S9.991,8,8,8H7.5
	V12z"/>
<path style="fill:#333333;" d="M14.4,17.002c-0.227,0-0.389-0.012-0.441-0.017l0.082-0.996c0.439,0.036,1.708,0.021,2.235-0.466
	c0.152-0.141,0.224-0.309,0.224-0.529c0-0.487-0.363-0.688-1.191-1.032c-0.764-0.316-1.809-0.751-1.809-1.956
	c0-0.528,0.177-0.966,0.524-1.303c0.784-0.761,2.211-0.717,2.816-0.694L17,10.012v1l-0.191-0.004
	c-0.438-0.015-1.606-0.053-2.089,0.414c-0.149,0.145-0.22,0.331-0.22,0.584c0,0.487,0.363,0.688,1.191,1.032
	c0.764,0.316,1.809,0.751,1.809,1.956c0,0.498-0.189,0.936-0.547,1.266C16.252,16.905,15.055,17.002,14.4,17.002z"/>
</svg>






