<?xml version="1.0" encoding="iso-8859-1"?>
<svg version="1.1" id="&#x56FE;&#x5C42;_1" xmlns="http://www.w3.org/2000/svg" xmlns:xlink="http://www.w3.org/1999/xlink" x="0px"
	 y="0px" viewBox="0 0 24 24" style="enable-background:new 0 0 24 24;" xml:space="preserve">
<path style="fill:#333333;" d="M19.5,21.5h-15c-1.103,0-2-0.897-2-2v-15c0-1.103,0.897-2,2-2h5v1h-5c-0.551,0-1,0.449-1,1v15
	c0,0.552,0.449,1,1,1h15c0.552,0,1-0.448,1-1v-5h1v5C21.5,20.603,20.603,21.5,19.5,21.5z"/>
<polygon style="fill:#333333;" points="10.684,15.133 8.526,8.658 9.474,8.342 11.316,13.867 16.842,12.025 17.158,12.975 "/>
<path style="fill:#333333;" d="M11.474,14.658l-0.948-0.316c2.576-7.728,4.2-9.271,9.289-11.306l0.371,0.929
	C15.449,5.859,13.975,7.157,11.474,14.658z"/>
</svg>






