<?xml version="1.0" encoding="iso-8859-1"?>
<svg version="1.1" id="&#x56FE;&#x5C42;_1" xmlns="http://www.w3.org/2000/svg" xmlns:xlink="http://www.w3.org/1999/xlink" x="0px"
	 y="0px" viewBox="0 0 24 24" style="enable-background:new 0 0 24 24;" xml:space="preserve">
<path style="fill:#333333;" d="M10.875,21.5H4.5c-1.103,0-2-0.897-2-2v-15c0-1.103,0.897-2,2-2h15c1.103,0,2,0.897,2,2v8.625h-1V4.5
	c0-0.551-0.448-1-1-1h-15c-0.551,0-1,0.449-1,1v15c0,0.552,0.449,1,1,1h6.375V21.5z"/>
<rect x="12" y="16.5" style="fill:#333333;" width="9" height="1"/>
<polygon style="fill:#333333;" points="14.646,20.354 11.293,17 14.646,13.646 15.354,14.354 12.707,17 15.354,19.646 "/>
</svg>






