<?xml version="1.0" encoding="iso-8859-1"?>
<svg version="1.1" id="&#x56FE;&#x5C42;_1" xmlns="http://www.w3.org/2000/svg" xmlns:xlink="http://www.w3.org/1999/xlink" x="0px"
	 y="0px" viewBox="0 0 24 24" style="enable-background:new 0 0 24 24;" xml:space="preserve">
<path style="fill:#333333;" d="M19.5,21.5h-15c-1.103,0-2-0.897-2-2v-15c0-1.103,0.897-2,2-2h15c1.103,0,2,0.897,2,2v2.438h-1V4.5
	c0-0.551-0.448-1-1-1h-15c-0.551,0-1,0.449-1,1v15c0,0.552,0.449,1,1,1h15c0.552,0,1-0.448,1-1v-2.156h1V19.5
	C21.5,20.603,20.603,21.5,19.5,21.5z"/>
<rect x="12" y="11.5" style="fill:#333333;" width="9" height="1"/>
<polygon style="fill:#333333;" points="14.646,15.354 11.293,12 14.646,8.646 15.354,9.354 12.707,12 15.354,14.646 "/>
</svg>






