<?xml version="1.0" encoding="iso-8859-1"?>
<svg version="1.1" id="&#x56FE;&#x5C42;_1" xmlns="http://www.w3.org/2000/svg" xmlns:xlink="http://www.w3.org/1999/xlink" x="0px"
	 y="0px" viewBox="0 0 24 24" style="enable-background:new 0 0 24 24;" xml:space="preserve">
<g>
	<defs>
		<rect id="SVGID_1_" width="24" height="24"/>
	</defs>
	<clipPath id="SVGID_00000060031952101854557370000015602207170344302741_">
		<use xlink:href="#SVGID_1_"  style="overflow:visible;"/>
	</clipPath>
	<g style="clip-path:url(#SVGID_00000060031952101854557370000015602207170344302741_);">
		<polygon style="fill:#333333;" points="13.328,22.692 1.308,10.671 10.146,1.833 10.854,2.54 2.722,10.671 13.328,21.278 
			21.46,13.146 22.167,13.854 		"/>
		
			<rect x="3.086" y="8.757" transform="matrix(0.7071 -0.7071 0.7071 0.7071 -3.8846 9.1359)" style="fill:#333333;" width="12" height="1"/>
		
			<rect x="5.914" y="11.586" transform="matrix(0.7071 -0.7071 0.7071 0.7071 -5.0561 11.9644)" style="fill:#333333;" width="12" height="1"/>
		
			<rect x="8.743" y="14.414" transform="matrix(0.7071 -0.7071 0.7071 0.7071 -6.2276 14.7928)" style="fill:#333333;" width="12" height="1"/>
		<path style="fill:#333333;" d="M8.025,21.632L6.694,20.3l-2.247-0.748l-0.749-2.246l-1.331-1.331l2.828-2.828l5.657,5.656
			L8.025,21.632z M5.239,18.761l1.996,0.666l0.791,0.791l1.414-1.415l-4.243-4.242l-1.414,1.414l0.791,0.79L5.239,18.761z"/>
	</g>
</g>
</svg>






