<?xml version="1.0" encoding="iso-8859-1"?>
<svg version="1.1" id="&#x56FE;&#x5C42;_1" xmlns="http://www.w3.org/2000/svg" xmlns:xlink="http://www.w3.org/1999/xlink" x="0px"
	 y="0px" viewBox="0 0 24 24" style="enable-background:new 0 0 24 24;" xml:space="preserve">
<path style="fill:#333333;" d="M19,22.5H5c-0.827,0-1.5-0.673-1.5-1.5V3c0-0.827,0.673-1.5,1.5-1.5h14c0.827,0,1.5,0.673,1.5,1.5v18
	C20.5,21.827,19.827,22.5,19,22.5z M5,2.5C4.724,2.5,4.5,2.724,4.5,3v18c0,0.275,0.224,0.5,0.5,0.5h14c0.275,0,0.5-0.225,0.5-0.5V3
	c0-0.276-0.225-0.5-0.5-0.5H5z"/>
<path style="fill:#333333;" d="M12.168,10.374L10.25,8.669l-1.918,1.705L7.5,10V1.5H13V10L12.168,10.374z M10.25,7.331L12,8.887V2.5
	H8.5v6.387L10.25,7.331z"/>
<rect x="8" y="13.5" style="fill:#333333;" width="5" height="1"/>
<rect x="8" y="16.5" style="fill:#333333;" width="8" height="1"/>
</svg>






