<?xml version="1.0" encoding="iso-8859-1"?>
<svg version="1.1" id="&#x56FE;&#x5C42;_1" xmlns="http://www.w3.org/2000/svg" xmlns:xlink="http://www.w3.org/1999/xlink" x="0px"
	 y="0px" viewBox="0 0 24 24" style="enable-background:new 0 0 24 24;" xml:space="preserve">
<path style="fill:#333333;" d="M12,22.5C6.21,22.5,1.5,17.79,1.5,12C1.5,6.21,6.21,1.5,12,1.5c5.79,0,10.5,4.71,10.5,10.5
	C22.5,17.79,17.79,22.5,12,22.5z M12,2.5c-5.238,0-9.5,4.262-9.5,9.5s4.262,9.5,9.5,9.5s9.5-4.262,9.5-9.5S17.238,2.5,12,2.5z"/>
<path style="fill:none;" d="M12,18.5V22V18.5z"/>
<rect x="11.5" y="18.5" style="fill:#333333;" width="1" height="3.5"/>
<path style="fill:none;" d="M18,12h4H18z"/>
<rect x="18" y="11.5" style="fill:#333333;" width="4" height="1"/>
<path style="fill:none;" d="M2,12h3.5H2z"/>
<rect x="2" y="11.5" style="fill:#333333;" width="3.5" height="1"/>
<path style="fill:none;" d="M12,5.5V2V5.5z"/>
<rect x="11.5" y="2" style="fill:#333333;" width="1" height="3.5"/>
</svg>






