<?xml version="1.0" encoding="iso-8859-1"?>
<svg version="1.1" id="&#x56FE;&#x5C42;_1" xmlns="http://www.w3.org/2000/svg" xmlns:xlink="http://www.w3.org/1999/xlink" x="0px"
	 y="0px" viewBox="0 0 24 24" style="enable-background:new 0 0 24 24;" xml:space="preserve">
<path style="fill:#333333;" d="M21,14.5H3c-0.827,0-1.5-0.673-1.5-1.5V5c0-0.827,0.673-1.5,1.5-1.5h18c0.827,0,1.5,0.673,1.5,1.5v8
	C22.5,13.827,21.827,14.5,21,14.5z M3,4.5C2.724,4.5,2.5,4.724,2.5,5v8c0,0.275,0.224,0.5,0.5,0.5h18c0.275,0,0.5-0.225,0.5-0.5V5
	c0-0.276-0.225-0.5-0.5-0.5H3z"/>
<path style="fill:#333333;" d="M18.5,14.5h-13v-5h13V14.5z M6.5,13.5h11v-3h-11V13.5z"/>
<rect x="16" y="6.5" style="fill:#333333;" width="2" height="1"/>
<rect x="11.5" y="17" style="fill:#333333;" width="1" height="3"/>
<rect x="7.5" y="18" style="fill:#333333;" width="1" height="1"/>
<rect x="15.5" y="18" style="fill:#333333;" width="1" height="1"/>
</svg>






