<?xml version="1.0" encoding="iso-8859-1"?>
<svg version="1.1" id="&#x56FE;&#x5C42;_1" xmlns="http://www.w3.org/2000/svg" xmlns:xlink="http://www.w3.org/1999/xlink" x="0px"
	 y="0px" viewBox="0 0 24 24" style="enable-background:new 0 0 24 24;" xml:space="preserve">
<rect x="2" y="21.5" style="fill:#333333;" width="20" height="1"/>
<path style="fill:#333333;" d="M21,22h-1v-3.64c0-2.828-2.786-2.86-2.904-2.86H14v-1h3.096c1.351,0,3.904,0.807,3.904,3.86V22z"/>
<polygon style="fill:#333333;" points="17.955,15.207 17.045,14.793 19.45,9.501 16.546,3.209 17.454,2.791 20.55,9.499 "/>
<rect x="14.307" y="2.5" transform="matrix(0.9286 -0.3711 0.3711 0.9286 0.1004 6.5221)" style="fill:#333333;" width="5.385" height="1"/>
<path style="fill:#333333;" d="M10,19.5c-2.481,0-4.5-2.019-4.5-4.5s2.019-4.5,4.5-4.5s4.5,2.019,4.5,4.5S12.481,19.5,10,19.5z
	 M10,11.5c-1.93,0-3.5,1.57-3.5,3.5s1.57,3.5,3.5,3.5s3.5-1.57,3.5-3.5S11.93,11.5,10,11.5z"/>
<rect x="10" y="14.5" style="fill:#333333;" width="4" height="1"/>
<rect x="8.25" y="5.9" transform="matrix(0.7894 -0.6139 0.6139 0.7894 -3.5288 7.2151)" style="fill:#333333;" width="1" height="5.701"/>
<rect x="5" y="6" style="fill:#333333;" width="4" height="1"/>
<path style="fill:#333333;" d="M10,19.5v-1c1.93,0,3.5-1.57,3.5-3.5s-1.57-3.5-3.5-3.5v-1c2.481,0,4.5,2.019,4.5,4.5
	S12.481,19.5,10,19.5z"/>
</svg>






