<?xml version="1.0" encoding="iso-8859-1"?>
<svg version="1.1" id="&#x56FE;&#x5C42;_1" xmlns="http://www.w3.org/2000/svg" xmlns:xlink="http://www.w3.org/1999/xlink" x="0px"
	 y="0px" viewBox="0 0 24 24" style="enable-background:new 0 0 24 24;" xml:space="preserve">
<path style="fill:#333333;" d="M15.824,22.468L12,21.034l-3.824,1.434l-0.6-0.732L10,17.856v-3.548l-8,4v-3.043l7.75-6.46V5.269
	c0-2.249,1.342-3.422,2.052-3.728L12,1.456l0.198,0.085c0.71,0.306,2.052,1.479,2.052,3.728v3.537l7.75,6.46v3.043l-8-4v3.548
	l2.424,3.879L15.824,22.468z M12,19.966l2.794,1.048L13,18.144v-5.452l8,4v-0.957l-7.75-6.46V5.269c0-1.546-0.778-2.386-1.25-2.699
	c-0.472,0.313-1.25,1.153-1.25,2.699v4.006L3,15.734v0.957l8-4v5.452l-1.794,2.87L12,19.966z"/>
</svg>






