<?xml version="1.0" encoding="iso-8859-1"?>
<svg version="1.1" id="&#x56FE;&#x5C42;_1" xmlns="http://www.w3.org/2000/svg" xmlns:xlink="http://www.w3.org/1999/xlink" x="0px"
	 y="0px" viewBox="0 0 24 24" style="enable-background:new 0 0 24 24;" xml:space="preserve">
<path style="fill:#333333;" d="M12,22.5c-4.136,0-7.5-3.364-7.5-7.5V9c0-4.136,3.364-7.5,7.5-7.5s7.5,3.364,7.5,7.5v6
	C19.5,19.136,16.136,22.5,12,22.5z M12,2.5C8.416,2.5,5.5,5.416,5.5,9v6c0,3.584,2.916,6.5,6.5,6.5s6.5-2.916,6.5-6.5V9
	C18.5,5.416,15.584,2.5,12,2.5z"/>
<rect x="5" y="8" style="fill:#333333;" width="14" height="1"/>
<rect x="11" y="5" style="fill:#333333;" width="2" height="1"/>
<path style="fill:#333333;" d="M7,20.5v-1c1.061,0,1.25-0.345,1.25-1.315l0.773-0.419c0.604,0.394,1.403,0.288,1.891,0.022
	C11.09,17.692,11.5,17.425,11.5,17c0-1.133-0.737-1.315-2.5-1.315H8.303l0.224-0.66c0.005-0.019,0.178-0.612-0.38-1.171
	c-0.434-0.433-2.07-0.47-3.091-0.356l-0.11-0.994c0.491-0.056,2.986-0.279,3.909,0.644c0.539,0.538,0.683,1.115,0.699,1.543
	C10.845,14.725,12.5,14.987,12.5,17c0,0.678-0.404,1.285-1.11,1.668c-0.676,0.366-1.487,0.448-2.196,0.255
	C9.046,19.758,8.544,20.5,7,20.5z"/>
<path style="fill:#333333;" d="M18.039,16.799c-0.219,0-0.435-0.034-0.639-0.104c-0.369-0.127-0.845-0.417-1.186-1.081
	c-0.704,0.167-1.396,0.068-1.913-0.28c-0.517-0.351-0.802-0.912-0.802-1.583c0-0.749,0.368-1.394,0.986-1.724
	c0.313-0.168,0.657-0.244,0.991-0.215c0.062-0.436,0.264-0.907,0.745-1.228c0.96-0.64,2.688,0.289,3.025,0.482l-0.496,0.869
	c-0.701-0.4-1.685-0.71-1.975-0.519c-0.444,0.296-0.294,0.956-0.292,0.963l-0.763,0.537c-0.209-0.139-0.51-0.144-0.765-0.008
	C14.787,12.999,14.5,13.23,14.5,13.75c0,0.338,0.122,0.592,0.362,0.755c0.352,0.238,0.907,0.249,1.452,0.031l0.492-0.197
	l0.168,0.503c0.111,0.335,0.332,0.764,0.75,0.906c0.364,0.129,0.757-0.003,0.998-0.164l0.555,0.832
	C18.899,16.668,18.465,16.799,18.039,16.799z"/>
<path style="fill:#333333;" d="M12.5,22.5v-1c3.309,0,6-2.691,6-6V9c0-3.584-2.916-6.5-6.5-6.5v-1c4.136,0,7.5,3.364,7.5,7.5v6.5
	C19.5,19.359,16.359,22.5,12.5,22.5z"/>
<path style="fill:#333333;" d="M11.5,22.5c-3.86,0-7-3.141-7-7V9c0-4.136,3.364-7.5,7.5-7.5v1C8.416,2.5,5.5,5.416,5.5,9v6.5
	c0,3.309,2.691,6,6,6V22.5z"/>
</svg>






