<?xml version="1.0" encoding="iso-8859-1"?>
<svg version="1.1" id="&#x56FE;&#x5C42;_1" xmlns="http://www.w3.org/2000/svg" xmlns:xlink="http://www.w3.org/1999/xlink" x="0px"
	 y="0px" viewBox="0 0 24 24" style="enable-background:new 0 0 24 24;" xml:space="preserve">
<path style="fill:#333333;" d="M17,22.5h-4v-16c0-2.757,2.243-5,5-5c1.878,0,3.581,1.037,4.444,2.707L22.5,4.315v4.37l-0.056,0.108
	C21.581,10.463,19.878,11.5,18,11.5c-0.338,0-0.673-0.034-1-0.1V22.5z M14,21.5h2V10.037l0.666,0.235
	C17.094,10.423,17.542,10.5,18,10.5c1.463,0,2.794-0.787,3.5-2.062V4.562C20.794,3.287,19.463,2.5,18,2.5c-2.206,0-4,1.794-4,4V21.5
	z"/>
<path style="fill:#333333;" d="M11,22.5H7V11.4c-0.328,0.066-0.662,0.1-1,0.1c-1.878,0-3.581-1.037-4.444-2.707L1.5,8.685v-4.37
	l0.056-0.108C2.419,2.537,4.122,1.5,6,1.5c2.757,0,5,2.243,5,5V22.5z M8,21.5h2v-15c0-2.206-1.794-4-4-4
	c-1.463,0-2.793,0.787-3.5,2.062v3.876C3.207,9.713,4.537,10.5,6,10.5c0.457,0,0.906-0.077,1.333-0.228L8,10.038V21.5z"/>
<rect x="7" y="6" style="fill:#333333;" width="0.5" height="1"/>
<rect x="16.5" y="6" style="fill:#333333;" width="0.5" height="1"/>
</svg>






