<?xml version="1.0" encoding="iso-8859-1"?>
<svg version="1.1" id="&#x56FE;&#x5C42;_1" xmlns="http://www.w3.org/2000/svg" xmlns:xlink="http://www.w3.org/1999/xlink" x="0px"
	 y="0px" viewBox="0 0 24 24" style="enable-background:new 0 0 24 24;" xml:space="preserve">
<path style="fill:#333333;" d="M18.764,16.13l-0.967-0.26l3.045-11.364c0.069-0.258,0.034-0.528-0.099-0.759
	c-0.134-0.231-0.35-0.396-0.607-0.466c-0.259-0.069-0.527-0.035-0.759,0.1c-0.231,0.134-0.397,0.35-0.467,0.607L15.658,16.13
	l-0.967-0.26l3.253-12.141c0.139-0.516,0.47-0.947,0.933-1.214c0.462-0.268,0.999-0.339,1.518-0.2
	c0.516,0.138,0.947,0.469,1.214,0.932c0.268,0.462,0.338,1.001,0.199,1.518L18.764,16.13z"/>
<path style="fill:#333333;" d="M18.5,19.5h-12c-1.103,0-2-0.897-2-2s0.897-2,2-2h12V19.5z M6.5,16.5c-0.551,0-1,0.448-1,1
	s0.449,1,1,1h11v-2H6.5z"/>
<rect x="10.5" y="21.5" style="fill:#333333;" width="4" height="1"/>
<path style="fill:#333333;" d="M5.5,12.5c-1.654,0-3-1.346-3-3v-5c0-1.654,1.346-3,3-3s3,1.346,3,3v5
	C8.5,11.154,7.154,12.5,5.5,12.5z M5.5,2.5c-1.103,0-2,0.897-2,2v5c0,1.103,0.897,2,2,2s2-0.897,2-2v-5C7.5,3.397,6.603,2.5,5.5,2.5
	z"/>
<rect x="3" y="6.5" style="fill:#333333;" width="5" height="1"/>
<rect x="2.5" y="4.5" style="fill:#333333;" width="1" height="5"/>
<rect x="7.5" y="4.5" style="fill:#333333;" width="1" height="5"/>
</svg>






