<?xml version="1.0" encoding="iso-8859-1"?>
<svg version="1.1" id="&#x56FE;&#x5C42;_1" xmlns="http://www.w3.org/2000/svg" xmlns:xlink="http://www.w3.org/1999/xlink" x="0px"
	 y="0px" viewBox="0 0 24 24" style="enable-background:new 0 0 24 24;" xml:space="preserve">
<path style="fill:#333333;" d="M17.5,21h-11v-8.5C6.5,9.467,8.967,7,12,7c3.032,0,5.5,2.467,5.5,5.5V21z M7.5,20h9v-7.5
	c0-2.481-2.019-4.5-4.5-4.5s-4.5,2.019-4.5,4.5V20z"/>
<rect x="11.5" y="2.5" style="fill:#333333;" width="1" height="1.5"/>
<rect x="16.714" y="4.738" transform="matrix(0.6434 -0.7655 0.7655 0.6434 2.2168 15.2363)" style="fill:#333333;" width="1.5" height="1"/>
<rect x="19.62" y="9.774" transform="matrix(0.9848 -0.1739 0.1739 0.9848 -1.4762 3.6989)" style="fill:#333333;" width="1.5" height="1"/>
<rect x="3.129" y="9.524" transform="matrix(0.1738 -0.9848 0.9848 0.1738 -7.1192 12.0618)" style="fill:#333333;" width="1" height="1.5"/>
<rect x="6.037" y="4.489" transform="matrix(0.7659 -0.6429 0.6429 0.7659 -1.838 5.4283)" style="fill:#333333;" width="1" height="1.5"/>
<rect x="3" y="20" style="fill:#333333;" width="18.5" height="1"/>
</svg>






