<?xml version="1.0" encoding="iso-8859-1"?>
<svg version="1.1" id="&#x56FE;&#x5C42;_1" xmlns="http://www.w3.org/2000/svg" xmlns:xlink="http://www.w3.org/1999/xlink" x="0px"
	 y="0px" viewBox="0 0 24 24" style="enable-background:new 0 0 24 24;" xml:space="preserve">
<path style="fill:#333333;" d="M12,22.667c-5.331,0-9.667-4.337-9.667-9.667S6.669,3.333,12,3.333c5.33,0,9.667,4.336,9.667,9.667
	S17.33,22.667,12,22.667z M12,4.333c-4.779,0-8.667,3.888-8.667,8.667c0,4.779,3.888,8.667,8.667,8.667
	c4.779,0,8.667-3.888,8.667-8.667C20.667,8.221,16.779,4.333,12,4.333z"/>
<polygon style="fill:#333333;" points="15.412,17.421 11.379,13.389 11.38,7.677 12.38,7.677 12.379,12.975 16.119,16.714 "/>
<rect x="1.599" y="2.75" transform="matrix(0.8137 -0.5812 0.5812 0.8137 -1.1905 2.785)" style="fill:#333333;" width="4.301" height="1"/>
<rect x="19.75" y="1.099" transform="matrix(0.5812 -0.8137 0.8137 0.5812 5.8353 17.8391)" style="fill:#333333;" width="1" height="4.301"/>
</svg>






