<?xml version="1.0" encoding="iso-8859-1"?>
<svg version="1.1" id="&#x56FE;&#x5C42;_1" xmlns="http://www.w3.org/2000/svg" xmlns:xlink="http://www.w3.org/1999/xlink" x="0px"
	 y="0px" viewBox="0 0 24 24" style="enable-background:new 0 0 24 24;" xml:space="preserve">
<path style="fill:#333333;" d="M12,0c6.627,0,12,5.373,12,12s-5.373,12-12,12S0,18.627,0,12S5.373,0,12,0z M12,2.182
	c-5.422,0-9.818,4.396-9.818,9.818S6.578,21.818,12,21.818c3.369,0,6.342-1.697,8.11-4.282c-0.717-0.212-1.862-0.58-3.341-1.201
	c-0.618-0.26-1.542-0.669-2.771-1.229C12.528,16.587,10.384,18,8.087,18c-1.594-0.008-4.269-0.814-4.269-3.327
	s2.478-3.112,4.086-3.112c0.973,0,2.695,0.537,5.166,1.611l0.038,0.015c0.663-0.811,1.118-1.754,1.366-2.827l0.05-0.232h-4.326
	c-0.655,0-1.359,0-2.11,0v-1.16l2.929,0v-1.45l-4.101,0v-0.87l4.101,0l0.001-1.739h2.343l0,1.739l4.687,0v0.87l-4.687,0v1.45
	l3.743,0c-0.055,0.362-0.117,0.691-0.186,0.986l-0.042,0.173c-0.172,0.623-0.56,1.53-1.162,2.721
	c-0.16,0.316-0.391,0.682-0.683,1.07c0.922,0.342,1.856,0.673,2.8,0.995c1.223,0.416,2.281,0.753,3.172,1.011
	c0.525-1.202,0.816-2.529,0.816-3.924C21.818,6.578,17.422,2.182,12,2.182z M5.158,14.272c0,1.599,3.345,2.236,6.055,0.553
	c0.305-0.189,0.59-0.392,0.855-0.606l-0.009-0.004l-0.213-0.131c-1.691-1.029-3.005-1.587-3.941-1.674
	C7.045,12.33,5.158,12.673,5.158,14.272z M14.523,10.128L14.523,10.128l1.104,0L14.523,10.128z"/>
</svg>






