<?xml version="1.0" encoding="iso-8859-1"?>
<svg version="1.1" id="&#x56FE;&#x5C42;_1" xmlns="http://www.w3.org/2000/svg" xmlns:xlink="http://www.w3.org/1999/xlink" x="0px"
	 y="0px" viewBox="0 0 24 24" style="enable-background:new 0 0 24 24;" xml:space="preserve">
<path style="fill:#333333;" d="M21,18h-2v-1h2c0.275,0,0.5-0.225,0.5-0.5v-3.449c0-0.419-0.265-0.797-0.658-0.939l-3.525-1.283
	C16.529,10.543,16,9.788,16,8.949V5.5C16,5.224,15.775,5,15.5,5H3C2.724,5,2.5,5.224,2.5,5.5v11C2.5,16.775,2.724,17,3,17h2v1H3
	c-0.827,0-1.5-0.673-1.5-1.5v-11C1.5,4.673,2.173,4,3,4h12.5C16.327,4,17,4.673,17,5.5v3.449c0,0.419,0.265,0.797,0.658,0.94
	l3.525,1.282c0.787,0.286,1.316,1.042,1.316,1.879V16.5C22.5,17.327,21.827,18,21,18z"/>
<rect x="9" y="17" style="fill:#333333;" width="6" height="1"/>
<rect x="6" y="9" style="fill:#333333;" width="4" height="1"/>
<rect x="7.5" y="7.5" style="fill:#333333;" width="1" height="4"/>
<path style="fill:#333333;" d="M7,20c-1.378,0-2.5-1.121-2.5-2.5S5.622,15,7,15s2.5,1.121,2.5,2.5S8.378,20,7,20z M7,16
	c-0.827,0-1.5,0.673-1.5,1.5S6.173,19,7,19s1.5-0.673,1.5-1.5S7.827,16,7,16z"/>
<path style="fill:#333333;" d="M17,20c-1.379,0-2.5-1.121-2.5-2.5S15.621,15,17,15s2.5,1.121,2.5,2.5S18.379,20,17,20z M17,16
	c-0.827,0-1.5,0.673-1.5,1.5S16.173,19,17,19s1.5-0.673,1.5-1.5S17.827,16,17,16z"/>
</svg>






