<?xml version="1.0" encoding="iso-8859-1"?>
<svg version="1.1" id="&#x56FE;&#x5C42;_1" xmlns="http://www.w3.org/2000/svg" xmlns:xlink="http://www.w3.org/1999/xlink" x="0px"
	 y="0px" viewBox="0 0 24 24" style="enable-background:new 0 0 24 24;" xml:space="preserve">
<rect x="7" y="3.5" style="fill:#333333;" width="10" height="1"/>
<rect x="7" y="3.5" style="fill:#333333;" width="10" height="1"/>
<rect x="7" y="19.5" style="fill:#333333;" width="10" height="1"/>
<path style="fill:#333333;" d="M21,6.5h-2c-0.827,0-1.5-0.673-1.5-1.5V3c0-0.827,0.673-1.5,1.5-1.5h2c0.827,0,1.5,0.673,1.5,1.5v2
	C22.5,5.827,21.827,6.5,21,6.5z M19,2.5c-0.275,0-0.5,0.224-0.5,0.5v2c0,0.276,0.225,0.5,0.5,0.5h2c0.275,0,0.5-0.224,0.5-0.5V3
	c0-0.276-0.225-0.5-0.5-0.5H19z"/>
<path style="fill:#333333;" d="M5,6.5H3C2.173,6.5,1.5,5.827,1.5,5V3c0-0.827,0.673-1.5,1.5-1.5h2c0.827,0,1.5,0.673,1.5,1.5v2
	C6.5,5.827,5.827,6.5,5,6.5z M3,2.5C2.724,2.5,2.5,2.724,2.5,3v2c0,0.276,0.224,0.5,0.5,0.5h2c0.276,0,0.5-0.224,0.5-0.5V3
	c0-0.276-0.224-0.5-0.5-0.5H3z"/>
<path style="fill:#333333;" d="M21,22.5h-2c-0.827,0-1.5-0.673-1.5-1.5v-2c0-0.827,0.673-1.5,1.5-1.5h2c0.827,0,1.5,0.673,1.5,1.5v2
	C22.5,21.827,21.827,22.5,21,22.5z M19,18.5c-0.275,0-0.5,0.225-0.5,0.5v2c0,0.275,0.225,0.5,0.5,0.5h2c0.275,0,0.5-0.225,0.5-0.5
	v-2c0-0.275-0.225-0.5-0.5-0.5H19z"/>
<path style="fill:#333333;" d="M5,22.5H3c-0.827,0-1.5-0.673-1.5-1.5v-2c0-0.827,0.673-1.5,1.5-1.5h2c0.827,0,1.5,0.673,1.5,1.5v2
	C6.5,21.827,5.827,22.5,5,22.5z M3,18.5c-0.276,0-0.5,0.225-0.5,0.5v2c0,0.275,0.224,0.5,0.5,0.5h2c0.276,0,0.5-0.225,0.5-0.5v-2
	c0-0.275-0.224-0.5-0.5-0.5H3z"/>
<rect x="19.5" y="7" style="fill:#333333;" width="1" height="10"/>
<rect x="3.5" y="7" style="fill:#333333;" width="1" height="10"/>
</svg>






