<?xml version="1.0" encoding="iso-8859-1"?>
<svg version="1.1" id="&#x56FE;&#x5C42;_1" xmlns="http://www.w3.org/2000/svg" xmlns:xlink="http://www.w3.org/1999/xlink" x="0px"
	 y="0px" viewBox="0 0 24 24" style="enable-background:new 0 0 24 24;" xml:space="preserve">
<path style="fill:#333333;" d="M21.5,19h-1c0-4.484-3.635-9.5-8.5-9.5c-4.865,0-8.5,5.016-8.5,9.5h-1c0-4.956,4.063-10.5,9.5-10.5
	C17.438,8.5,21.5,14.044,21.5,19z"/>
<rect x="5" y="6.5" style="fill:#333333;" width="5" height="1"/>
<rect x="14" y="6.5" style="fill:#333333;" width="5" height="1"/>
<path style="fill:#333333;" d="M12,9.5c-1.378,0-2.5-1.122-2.5-2.5s1.122-2.5,2.5-2.5c1.379,0,2.5,1.122,2.5,2.5S13.379,9.5,12,9.5z
	 M12,5.5c-0.827,0-1.5,0.673-1.5,1.5s0.673,1.5,1.5,1.5s1.5-0.673,1.5-1.5S12.827,5.5,12,5.5z"/>
<path style="fill:#333333;" d="M14.5,9.5h-5v-5h5V9.5z M10.5,8.5h3v-3h-3V8.5z"/>
<path style="fill:#333333;" d="M22.5,9h-4V5h4V9z M19.5,8h2V6h-2V8z"/>
<path style="fill:#333333;" d="M5.5,9h-4V5h4V9z M2.5,8h2V6h-2V8z"/>
</svg>






