<?xml version="1.0" encoding="iso-8859-1"?>
<svg version="1.1" id="&#x56FE;&#x5C42;_1" xmlns="http://www.w3.org/2000/svg" xmlns:xlink="http://www.w3.org/1999/xlink" x="0px"
	 y="0px" viewBox="0 0 24 24" style="enable-background:new 0 0 24 24;" xml:space="preserve">
<path style="fill:#333333;" d="M12,22.5C6.21,22.5,1.5,17.79,1.5,12v-0.5H5v1H2.513c0.261,5.007,4.417,9,9.487,9
	s9.226-3.993,9.487-9H19v-1h3.5V12C22.5,17.79,17.79,22.5,12,22.5z"/>
<rect x="11.5" y="7" style="fill:#333333;" width="1" height="15"/>
<path style="fill:#333333;" d="M12,7.5c-1.654,0-3-1.346-3-3s1.346-3,3-3s3,1.346,3,3S13.654,7.5,12,7.5z M12,2.5
	c-1.103,0-2,0.897-2,2s0.897,2,2,2c1.103,0,2-0.897,2-2S13.103,2.5,12,2.5z"/>
</svg>






