<?xml version="1.0" encoding="iso-8859-1"?>
<svg version="1.1" id="&#x56FE;&#x5C42;_1" xmlns="http://www.w3.org/2000/svg" xmlns:xlink="http://www.w3.org/1999/xlink" x="0px"
	 y="0px" viewBox="0 0 24 24" style="enable-background:new 0 0 24 24;" xml:space="preserve">
<path style="fill:#333333;" d="M20.5,17.5h-1c0-4.521-3.505-12-7.5-12c-3.995,0-7.5,7.479-7.5,12h-1c0-4.45,3.589-13,8.5-13
	C16.91,4.5,20.5,13.05,20.5,17.5z"/>
<path style="fill:#333333;" d="M6.5,22h-5v-5h5V22z M2.5,21h3v-3h-3V21z"/>
<path style="fill:#333333;" d="M6.5,7.5h-5v-5h5V7.5z M2.5,6.5h3v-3h-3V6.5z"/>
<path style="fill:#333333;" d="M22.5,22h-5v-5h5V22z M18.5,21h3v-3h-3V21z"/>
<path style="fill:#333333;" d="M22.5,7.5h-5v-5h5V7.5z M18.5,6.5h3v-3h-3V6.5z"/>
<rect x="6" y="4.5" style="fill:#333333;" width="12" height="1"/>
</svg>






