<?xml version="1.0" encoding="iso-8859-1"?>
<svg version="1.1" id="&#x56FE;&#x5C42;_1" xmlns="http://www.w3.org/2000/svg" xmlns:xlink="http://www.w3.org/1999/xlink" x="0px"
	 y="0px" viewBox="0 0 24 24" style="enable-background:new 0 0 24 24;" xml:space="preserve">
<path style="fill:#333333;" d="M21.5,19h-1c0-4.484-3.635-9.5-8.5-9.5c-4.865,0-8.5,5.016-8.5,9.5h-1c0-4.956,4.063-10.5,9.5-10.5
	C17.438,8.5,21.5,14.044,21.5,19z"/>
<rect x="5" y="6.5" style="fill:#333333;" width="5" height="1"/>
<rect x="14" y="6.5" style="fill:#333333;" width="5" height="1"/>
<path style="fill:#333333;" d="M3.5,9c-1.103,0-2-0.897-2-2s0.897-2,2-2s2,0.897,2,2S4.603,9,3.5,9z M3.5,6c-0.551,0-1,0.449-1,1
	s0.449,1,1,1s1-0.449,1-1S4.051,6,3.5,6z"/>
<path style="fill:#333333;" d="M20.5,9c-1.103,0-2-0.897-2-2s0.897-2,2-2s2,0.897,2,2S21.603,9,20.5,9z M20.5,6
	c-0.552,0-1,0.449-1,1s0.448,1,1,1s1-0.449,1-1S21.052,6,20.5,6z"/>
<path style="fill:#333333;" d="M12,9.5c-1.378,0-2.5-1.122-2.5-2.5s1.122-2.5,2.5-2.5c1.379,0,2.5,1.122,2.5,2.5S13.379,9.5,12,9.5z
	 M12,5.5c-0.827,0-1.5,0.673-1.5,1.5s0.673,1.5,1.5,1.5s1.5-0.673,1.5-1.5S12.827,5.5,12,5.5z"/>
</svg>






