<?xml version="1.0" encoding="iso-8859-1"?>
<svg version="1.1" id="&#x56FE;&#x5C42;_1" xmlns="http://www.w3.org/2000/svg" xmlns:xlink="http://www.w3.org/1999/xlink" x="0px"
	 y="0px" viewBox="0 0 24 24" style="enable-background:new 0 0 24 24;" xml:space="preserve">
<path style="fill:#333333;" d="M22.502,18.5H1.497l0.055-0.55C2.087,12.562,6.579,8.5,12,8.5c5.422,0,9.914,4.062,10.448,9.45
	L22.502,18.5z M2.617,17.5h18.766c-0.723-4.599-4.663-8-9.383-8C7.281,9.5,3.341,12.902,2.617,17.5z"/>
<rect x="5.5" y="6.234" transform="matrix(0.8682 -0.4961 0.4961 0.8682 -3.3026 4.0638)" style="fill:#333333;" width="1" height="4.031"/>
<rect x="15.484" y="7.75" transform="matrix(0.4957 -0.8685 0.8685 0.4957 1.6599 19.3588)" style="fill:#333333;" width="4.031" height="1.001"/>
<circle style="fill:#333333;" cx="7.5" cy="14.5" r="1"/>
<circle style="fill:#333333;" cx="16.5" cy="14.5" r="1"/>
</svg>






