<?xml version="1.0" encoding="iso-8859-1"?>
<svg version="1.1" id="&#x56FE;&#x5C42;_1" xmlns="http://www.w3.org/2000/svg" xmlns:xlink="http://www.w3.org/1999/xlink" x="0px"
	 y="0px" viewBox="0 0 24 24" style="enable-background:new 0 0 24 24;" xml:space="preserve">
<path style="fill:#333333;" d="M12,22.5C6.21,22.5,1.5,17.79,1.5,12C1.5,6.21,6.21,1.5,12,1.5c5.79,0,10.5,4.71,10.5,10.5
	C22.5,17.79,17.79,22.5,12,22.5z M12,2.5c-5.238,0-9.5,4.262-9.5,9.5s4.262,9.5,9.5,9.5s9.5-4.262,9.5-9.5S17.238,2.5,12,2.5z"/>
<path style="fill:#333333;" d="M15.054,17.726C15.018,17.655,14.145,16,12,16c-2.145,0-3.018,1.655-3.054,1.726l-0.894-0.449
	C8.099,17.184,9.223,15,12,15c2.777,0,3.9,2.184,3.947,2.276L15.054,17.726z"/>
<rect x="14.382" y="9.5" transform="matrix(0.8944 -0.4472 0.4472 0.8944 -2.8358 7.9875)" style="fill:#333333;" width="2.236" height="1"/>
<rect x="8" y="8.882" transform="matrix(0.4472 -0.8944 0.8944 0.4472 -4.2456 13.1305)" style="fill:#333333;" width="1" height="2.236"/>
</svg>






