<?xml version="1.0" encoding="iso-8859-1"?>
<svg version="1.1" id="&#x56FE;&#x5C42;_1" xmlns="http://www.w3.org/2000/svg" xmlns:xlink="http://www.w3.org/1999/xlink" x="0px"
	 y="0px" viewBox="0 0 24 24" style="enable-background:new 0 0 24 24;" xml:space="preserve">
<path style="fill:#333333;" d="M21,21H3c-0.827,0-1.5-0.673-1.5-1.5v-11C1.5,7.673,2.173,7,3,7h18c0.827,0,1.5,0.673,1.5,1.5v11
	C22.5,20.327,21.827,21,21,21z M3,8C2.724,8,2.5,8.224,2.5,8.5v11C2.5,19.775,2.724,20,3,20h18c0.275,0,0.5-0.225,0.5-0.5v-11
	C21.5,8.224,21.275,8,21,8H3z"/>
<path style="fill:#333333;" d="M16,8H8L7.646,7.146L12,2.793l4.354,4.354L16,8z M9.207,7h5.586L12,4.207L9.207,7z"/>
<rect x="6" y="11.5" style="fill:#333333;" width="9" height="1"/>
<rect x="6" y="15.5" style="fill:#333333;" width="4" height="1"/>
</svg>






