<?xml version="1.0" encoding="iso-8859-1"?>
<svg version="1.1" id="&#x56FE;&#x5C42;_1" xmlns="http://www.w3.org/2000/svg" xmlns:xlink="http://www.w3.org/1999/xlink" x="0px"
	 y="0px" viewBox="0 0 24 24" style="enable-background:new 0 0 24 24;" xml:space="preserve">
<path style="fill:#333333;" d="M12.837,21.501c-0.272,0-0.552-0.001-0.841-0.003h-0.001C2.771,21.403,1.5,20.415,1.5,19.36
	C1.5,17.448,9.552,8.501,12,8.501c2.513,0,10.5,8.805,10.5,10.859c0,0.21-0.062,0.521-0.362,0.818
	C21.56,20.753,19.957,21.501,12.837,21.501z M12.005,20.498c7.238,0.048,9.017-0.62,9.429-1.028
	c0.044-0.044,0.066-0.081,0.066-0.109c0-1.443-7.541-9.859-9.5-9.859c-1.793,0-9.457,8.49-9.5,9.86
	C2.542,19.456,3.183,20.407,12.005,20.498z"/>
<rect x="8.213" y="15.416" transform="matrix(0.6408 -0.7677 0.7677 0.6408 -8.7612 13.1072)" style="fill:#333333;" width="2.825" height="1"/>
<path style="fill:#333333;" d="M12.25,5.5c0.69,0,1.25-0.56,1.25-1.25C13.5,3.56,12.94,3,12.25,3S11,3.56,11,4.25
	C11,4.94,11.56,5.5,12.25,5.5z"/>
<path style="fill:#333333;" d="M17,8c0.552,0,1-0.448,1-1c0-0.552-0.448-1-1-1s-1,0.448-1,1C16,7.552,16.448,8,17,8z"/>
<path style="fill:#333333;" d="M6,10.5c0.552,0,1-0.448,1-1c0-0.552-0.448-1-1-1s-1,0.448-1,1C5,10.052,5.448,10.5,6,10.5z"/>
<path style="fill:#333333;" d="M8.75,7.5c0.414,0,0.75-0.336,0.75-0.75C9.5,6.336,9.164,6,8.75,6S8,6.336,8,6.75
	C8,7.164,8.336,7.5,8.75,7.5z"/>
</svg>






