<?xml version="1.0" encoding="iso-8859-1"?>
<svg version="1.1" id="&#x56FE;&#x5C42;_1" xmlns="http://www.w3.org/2000/svg" xmlns:xlink="http://www.w3.org/1999/xlink" x="0px"
	 y="0px" viewBox="0 0 24 24" style="enable-background:new 0 0 24 24;" xml:space="preserve">
<path style="fill:#333333;" d="M9.5,11.969h-1V5c0-1.93,1.57-3.5,3.5-3.5s3.5,1.57,3.5,3.5v1.003h-1V5c0-1.378-1.121-2.5-2.5-2.5
	c-1.378,0-2.5,1.122-2.5,2.5V11.969z"/>
<path style="fill:#333333;" d="M12,22.5c-1.93,0-3.5-1.57-3.5-3.5v-1.015h1V19c0,1.379,1.122,2.5,2.5,2.5c1.379,0,2.5-1.121,2.5-2.5
	v-6.998h1V19C15.5,20.93,13.93,22.5,12,22.5z"/>
<path style="fill:#333333;" d="M12,15.5H4.992C3.066,15.5,1.5,13.93,1.5,12s1.566-3.5,3.492-3.5h1.002v1H4.992
	C3.618,9.5,2.5,10.622,2.5,12c0,1.379,1.118,2.5,2.492,2.5H12V15.5z"/>
<path style="fill:#333333;" d="M18.994,15.5h-0.961v-1h0.961c1.382,0,2.506-1.121,2.506-2.5c0-1.378-1.124-2.5-2.506-2.5H12v-1
	h6.994c1.934,0,3.506,1.57,3.506,3.5S20.928,15.5,18.994,15.5z"/>
</svg>






