<?xml version="1.0" encoding="iso-8859-1"?>
<svg version="1.1" id="&#x56FE;&#x5C42;_1" xmlns="http://www.w3.org/2000/svg" xmlns:xlink="http://www.w3.org/1999/xlink" x="0px"
	 y="0px" viewBox="0 0 24 24" style="enable-background:new 0 0 24 24;" xml:space="preserve">
<path style="fill:#333333;" d="M17,13.207L10.793,7l1.854-1.854c0.914-0.914,3.997-2.209,6.207,0c2.211,2.21,0.913,5.294,0,6.207
	L17,13.207z M12.207,7L17,11.793l1.146-1.146c0.528-0.528,1.822-2.97,0-4.793c-1.821-1.823-4.264-0.527-4.793,0L12.207,7z"/>
<rect x="17.982" y="3.75" transform="matrix(0.7071 -0.7071 0.7071 0.7071 2.7794 15.2102)" style="fill:#333333;" width="3.536" height="1"/>
<path style="fill:#333333;" d="M8.074,20.072c-0.983,0-2.028-0.319-2.927-1.219c-2.21-2.211-0.914-5.294,0-6.207L7,10.793L13.207,17
	l-1.854,1.854C10.812,19.396,9.507,20.072,8.074,20.072z M7,12.207l-1.146,1.146c-0.528,0.528-1.822,2.971,0,4.793
	c1.823,1.822,4.265,0.528,4.793,0L11.793,17L7,12.207z"/>
<rect x="11.086" y="14.5" transform="matrix(0.7071 -0.7071 0.7071 0.7071 -6.9454 13.2322)" style="fill:#333333;" width="2.828" height="1"/>
<rect x="2.482" y="19.25" transform="matrix(0.7071 -0.7071 0.7071 0.7071 -12.7206 8.7898)" style="fill:#333333;" width="3.536" height="1"/>
<rect x="7.586" y="11" transform="matrix(0.7071 -0.7071 0.7071 0.7071 -5.4957 9.7322)" style="fill:#333333;" width="2.828" height="1"/>
</svg>






