<?xml version="1.0" encoding="iso-8859-1"?>
<svg version="1.1" id="&#x56FE;&#x5C42;_1" xmlns="http://www.w3.org/2000/svg" xmlns:xlink="http://www.w3.org/1999/xlink" x="0px"
	 y="0px" viewBox="0 0 24 24" style="enable-background:new 0 0 24 24;" xml:space="preserve">
<path style="fill:#333333;" d="M19.5,21.5h-15c-1.103,0-2-0.897-2-2v-15c0-1.103,0.897-2,2-2h15c1.103,0,2,0.897,2,2v15
	C21.5,20.603,20.603,21.5,19.5,21.5z M4.5,3.5c-0.551,0-1,0.449-1,1v15c0,0.552,0.449,1,1,1h15c0.552,0,1-0.448,1-1v-15
	c0-0.551-0.448-1-1-1H4.5z"/>
<rect x="7.374" y="9.781" transform="matrix(0.5079 -0.8614 0.8614 0.5079 -3.0664 15.195)" style="fill:#333333;" width="8.784" height="1"/>
<rect x="7.304" y="16.656" transform="matrix(0.5079 -0.8614 0.8614 0.5079 -10.988 15.0788)" style="fill:#333333;" width="0.799" height="1"/>
<rect x="6" y="14" style="fill:#333333;" width="5.5" height="1"/>
<rect x="15" y="14" style="fill:#333333;" width="3" height="1"/>
<rect x="10.094" y="6.181" transform="matrix(0.8437 -0.5369 0.5369 0.8437 -2.7562 6.9724)" style="fill:#333333;" width="1" height="4.075"/>
<rect x="14.469" y="12.242" transform="matrix(0.8437 -0.5369 0.5369 0.8437 -5.7633 10.3961)" style="fill:#333333;" width="1" height="5.704"/>
</svg>






