<?xml version="1.0" encoding="iso-8859-1"?>
<svg version="1.1" id="&#x56FE;&#x5C42;_1" xmlns="http://www.w3.org/2000/svg" xmlns:xlink="http://www.w3.org/1999/xlink" x="0px"
	 y="0px" viewBox="0 0 24 24" style="enable-background:new 0 0 24 24;" xml:space="preserve">
<path style="fill:#333333;" d="M17.25,10.5c-2.067,0-3.75-1.682-3.75-3.75S15.183,3,17.25,3S21,4.682,21,6.75
	S19.317,10.5,17.25,10.5z M17.25,4c-1.517,0-2.75,1.233-2.75,2.75s1.233,2.75,2.75,2.75S20,8.267,20,6.75S18.767,4,17.25,4z"/>
<path style="fill:#333333;" d="M17.25,21c-2.067,0-3.75-1.683-3.75-3.75s1.683-3.75,3.75-3.75S21,15.183,21,17.25
	S19.317,21,17.25,21z M17.25,14.5c-1.517,0-2.75,1.233-2.75,2.75S15.733,20,17.25,20S20,18.767,20,17.25S18.767,14.5,17.25,14.5z"/>
<path style="fill:#333333;" d="M6.75,10.5C4.682,10.5,3,8.818,3,6.75S4.682,3,6.75,3s3.75,1.682,3.75,3.75S8.818,10.5,6.75,10.5z
	 M6.75,4C5.233,4,4,5.233,4,6.75S5.233,9.5,6.75,9.5S9.5,8.267,9.5,6.75S8.267,4,6.75,4z"/>
<path style="fill:#333333;" d="M6.75,21C4.682,21,3,19.317,3,17.25s1.682-3.75,3.75-3.75s3.75,1.683,3.75,3.75S8.818,21,6.75,21z
	 M6.75,14.5C5.233,14.5,4,15.733,4,17.25S5.233,20,6.75,20s2.75-1.233,2.75-2.75S8.267,14.5,6.75,14.5z"/>
</svg>






