<?xml version="1.0" encoding="iso-8859-1"?>
<svg version="1.1" id="&#x56FE;&#x5C42;_1" xmlns="http://www.w3.org/2000/svg" xmlns:xlink="http://www.w3.org/1999/xlink" x="0px"
	 y="0px" viewBox="0 0 24 24" style="enable-background:new 0 0 24 24;" xml:space="preserve">
<polygon style="fill:#333333;" points="20.52,21.5 3.52,21.5 3.52,11 4.52,11 4.52,20.5 19.52,20.5 19.52,11 20.52,11 "/>
<path style="fill:#333333;" d="M18.283,11.5c-1.275,0-2.395-0.682-3.009-1.7c-0.613,1.018-1.729,1.7-3.001,1.7h-0.51
	c-1.272,0-2.388-0.682-3-1.7c-0.615,1.018-1.733,1.7-3.009,1.7c-1.166,0-2.257-0.575-2.917-1.538
	c-0.657-0.958-0.8-2.174-0.382-3.254L4.08,2.5h15.88l1.625,4.206c0.417,1.08,0.274,2.297-0.383,3.255
	C20.541,10.925,19.45,11.5,18.283,11.5z M14.773,8h1c0,1.378,1.126,2.5,2.51,2.5c0.85,0,1.613-0.403,2.094-1.104
	c0.478-0.696,0.578-1.545,0.274-2.329L19.274,3.5H4.766L3.388,7.068C3.085,7.852,3.185,8.701,3.662,9.396
	C4.143,10.098,4.906,10.5,5.754,10.5c1.384,0,2.509-1.122,2.509-2.5h1c0,1.378,1.122,2.5,2.5,2.5h0.51
	C13.652,10.5,14.773,9.378,14.773,8z"/>
</svg>






