<?xml version="1.0" encoding="iso-8859-1"?>
<svg version="1.1" id="&#x56FE;&#x5C42;_1" xmlns="http://www.w3.org/2000/svg" xmlns:xlink="http://www.w3.org/1999/xlink" x="0px"
	 y="0px" viewBox="0 0 24 24" style="enable-background:new 0 0 24 24;" xml:space="preserve">
<path style="fill:#333333;" d="M16,22.444c-1.602,0-3.14-0.588-4.333-1.654l0.667-0.746c1.01,0.903,2.312,1.4,3.667,1.4
	c3.032,0,5.5-2.468,5.5-5.5c0-2.372-1.512-4.47-3.761-5.219l0.316-0.949c2.658,0.886,4.444,3.364,4.444,6.168
	C22.5,19.528,19.584,22.444,16,22.444z"/>
<path style="fill:#333333;" d="M8,22.444c-3.584,0-6.5-2.916-6.5-6.5c0-2.813,1.794-5.295,4.465-6.175l0.312,0.95
	C4.018,11.464,2.5,13.563,2.5,15.944c0,3.032,2.467,5.5,5.5,5.5c3.033,0,5.5-2.468,5.5-5.5c0-0.692-0.128-1.37-0.38-2.012
	l0.932-0.365c0.297,0.759,0.448,1.559,0.448,2.377C14.5,19.528,11.584,22.444,8,22.444z"/>
<path style="fill:#333333;" d="M12,14.444c-3.584,0-6.5-2.916-6.5-6.5c0-3.584,2.916-6.5,6.5-6.5s6.5,2.916,6.5,6.5
	C18.5,11.529,15.584,14.444,12,14.444z M12,2.444c-3.033,0-5.5,2.467-5.5,5.5c0,3.032,2.467,5.5,5.5,5.5c3.032,0,5.5-2.467,5.5-5.5
	C17.5,4.912,15.032,2.444,12,2.444z"/>
</svg>






