<?xml version="1.0" encoding="iso-8859-1"?>
<svg version="1.1" id="&#x56FE;&#x5C42;_1" xmlns="http://www.w3.org/2000/svg" xmlns:xlink="http://www.w3.org/1999/xlink" x="0px"
	 y="0px" viewBox="0 0 24 24" style="enable-background:new 0 0 24 24;" xml:space="preserve">
<g>
	<defs>
		<rect id="SVGID_1_" width="24" height="24"/>
	</defs>
	<clipPath id="SVGID_00000137812430464285007820000011511958197093569968_">
		<use xlink:href="#SVGID_1_"  style="overflow:visible;"/>
	</clipPath>
	<g style="clip-path:url(#SVGID_00000137812430464285007820000011511958197093569968_);">
		<path style="fill:#333333;" d="M20.327,22.45l-0.787-0.157c-0.591-0.118-1.103-0.503-1.441-1.084
			c-0.432-0.741-0.536-1.7-0.271-2.504c0.947-2.89,0.213-6.686-0.147-8.184c-0.077-0.32-0.335-0.572-0.675-0.657l-1.131-0.283
			c-0.718-0.179-1.275-0.737-1.456-1.455l-0.282-1.132c-0.085-0.339-0.337-0.598-0.656-0.675c-1.499-0.359-5.296-1.092-8.184-0.146
			C4.492,6.438,3.532,6.333,2.791,5.901c-0.58-0.338-0.965-0.85-1.083-1.44L1.55,3.674l0.98-0.196l0.157,0.787
			c0.079,0.392,0.373,0.637,0.606,0.773C3.787,5.326,4.45,5.399,4.984,5.224c3.131-1.027,7.148-0.254,8.728,0.124
			c0.685,0.164,1.219,0.703,1.395,1.405l0.282,1.132c0.09,0.359,0.369,0.638,0.728,0.728l1.131,0.283
			c0.703,0.175,1.241,0.709,1.405,1.393c0.38,1.581,1.151,5.596,0.125,8.729c-0.176,0.532-0.103,1.195,0.186,1.689
			c0.136,0.233,0.381,0.527,0.773,0.606l0.786,0.157L20.327,22.45z"/>
		
			<rect x="10.5" y="2.186" transform="matrix(0.7071 -0.7071 0.7071 0.7071 -6.3241 11.7322)" style="fill:#333333;" width="1" height="22.627"/>
		
			<rect x="2.79" y="9.75" transform="matrix(0.7071 -0.7071 0.7071 0.7071 -3.2206 12.7249)" style="fill:#333333;" width="21.92" height="1"/>
	</g>
</g>
</svg>






