<?xml version="1.0" encoding="iso-8859-1"?>
<svg version="1.1" id="&#x56FE;&#x5C42;_1" xmlns="http://www.w3.org/2000/svg" xmlns:xlink="http://www.w3.org/1999/xlink" x="0px"
	 y="0px" viewBox="0 0 24 24" style="enable-background:new 0 0 24 24;" xml:space="preserve">
<path style="fill:#333333;" d="M6.5,21.5v-1c4.687,0,8.5-3.813,8.5-8.5c0-4.687-3.813-8.5-8.5-8.5v-1c5.238,0,9.5,4.262,9.5,9.5
	S11.738,21.5,6.5,21.5z"/>
<path style="fill:#333333;" d="M4.5,14c-1.103,0-2-0.897-2-2c0-1.103,0.897-2,2-2s2,0.897,2,2C6.5,13.103,5.603,14,4.5,14z M4.5,11
	c-0.551,0-1,0.449-1,1c0,0.552,0.449,1,1,1s1-0.448,1-1C5.5,11.449,5.051,11,4.5,11z"/>
<rect x="6" y="11.5" style="fill:#333333;" width="15" height="1"/>
<polygon style="fill:#333333;" points="19.354,14.354 18.646,13.646 20.293,12 18.646,10.354 19.354,9.646 21.707,12 "/>
</svg>






