<?xml version="1.0" encoding="iso-8859-1"?>
<svg version="1.1" id="&#x56FE;&#x5C42;_1" xmlns="http://www.w3.org/2000/svg" xmlns:xlink="http://www.w3.org/1999/xlink" x="0px"
	 y="0px" viewBox="0 0 24 24" style="enable-background:new 0 0 24 24;" xml:space="preserve">
<path style="fill:#333333;" d="M22.5,21.5h-21v-8.104l4.341,2.441l2.955-4.432l3.047,1.016l3.603-4.118l3,2.5l3.179-3.632L22.5,7.5
	V21.5z M2.5,20.5h19V8.831l-2.945,3.366l-3-2.5l-3.397,3.882l-2.953-0.984l-3.045,4.568L2.5,15.104V20.5z"/>
<polygon style="fill:#333333;" points="2.5,14.25 1.5,14.25 1.5,8.5 2.325,8.121 5.403,10.758 8.084,6.858 11.142,8.387 
	15.456,3.818 18.217,6.077 21.646,2.646 22.5,3 22.5,7.75 21.5,7.75 21.5,4.207 18.283,7.423 15.544,5.182 11.358,9.613 
	8.416,8.142 5.597,12.241 2.5,9.587 "/>
</svg>






