<?xml version="1.0" encoding="iso-8859-1"?>
<svg version="1.1" id="&#x56FE;&#x5C42;_1" xmlns="http://www.w3.org/2000/svg" xmlns:xlink="http://www.w3.org/1999/xlink" x="0px"
	 y="0px" viewBox="0 0 24 24" style="enable-background:new 0 0 24 24;" xml:space="preserve">
<path style="fill:#333333;" d="M12.224,18.447h-0.447l-10-5v-0.895l10-5h0.447l10,5v0.895L12.224,18.447z M3.118,13L12,17.441
	L20.882,13L12,8.559L3.118,13z"/>
<path style="fill:#333333;" d="M12.224,13.947h-0.447l-10-5V8.053l10-5h0.447l10,5v0.895L12.224,13.947z M3.118,8.5L12,12.941
	L20.882,8.5L12,4.059L3.118,8.5z"/>
<path style="fill:#333333;" d="M12.224,22.447h-0.447l-10-5L1.5,17v-4l0.724-0.447L12,17.441l9.776-4.889L22.5,13v4l-0.276,0.447
	L12.224,22.447z M2.5,16.691l9.5,4.75l9.5-4.75v-2.883l-9.276,4.639h-0.447L2.5,13.809V16.691z"/>
<rect x="21.5" y="7" style="fill:#333333;" width="1" height="6"/>
<rect x="1.5" y="7" style="fill:#333333;" width="1" height="6"/>
<rect x="11.5" y="12" style="fill:#333333;" width="1" height="6"/>
<rect x="11.5" y="2" style="fill:#333333;" width="1" height="6"/>
</svg>






