<?xml version="1.0" encoding="iso-8859-1"?>
<svg version="1.1" id="&#x56FE;&#x5C42;_1" xmlns="http://www.w3.org/2000/svg" xmlns:xlink="http://www.w3.org/1999/xlink" x="0px"
	 y="0px" viewBox="0 0 24 24" style="enable-background:new 0 0 24 24;" xml:space="preserve">
<path style="fill:#333333;" d="M12.5,21.017h-1C11.099,8.971,8.262,5.242,7.062,4.197C6.477,3.688,5.877,3.452,5.329,3.509
	C4.111,3.672,3.264,4.238,2.824,5.187C2.211,6.509,2.548,8.264,3.176,9.245L2.334,9.784C1.543,8.549,1.146,6.429,1.917,4.767
	c0.408-0.88,1.31-1.984,3.293-2.25c0.846-0.088,1.709,0.231,2.508,0.927C9.764,5.222,11.252,9.222,12,14.767
	c0.747-5.544,2.236-9.545,4.282-11.324c0.8-0.695,1.666-1.019,2.494-0.928c1.996,0.268,2.898,1.372,3.307,2.251
	c0.771,1.663,0.374,3.783-0.417,5.018l-0.842-0.539c0.628-0.981,0.964-2.737,0.352-4.058c-0.44-0.949-1.287-1.515-2.519-1.68
	c-0.534-0.054-1.134,0.182-1.719,0.69C15.737,5.242,12.901,8.971,12.5,21.017z"/>
</svg>






