<?xml version="1.0" encoding="iso-8859-1"?>
<svg version="1.1" id="&#x56FE;&#x5C42;_1" xmlns="http://www.w3.org/2000/svg" xmlns:xlink="http://www.w3.org/1999/xlink" x="0px"
	 y="0px" viewBox="0 0 24 24" style="enable-background:new 0 0 24 24;" xml:space="preserve">
<path style="fill:none;" d="M7,2h10v10H7V2z"/>
<path style="fill:none;" d="M2,12h10v10H2V12z"/>
<path style="fill:none;" d="M12,12h10v10H12V12z"/>
<path style="fill:#333333;" d="M22.5,22.5h-21v-11h5v-10h11v10h5V22.5z M12.5,21.5h9v-9h-9V21.5z M2.5,21.5h9v-9h-9V21.5z M7.5,11.5
	h9v-9h-9V11.5z"/>
<rect x="11.5" y="5" style="fill:#333333;" width="1" height="4"/>
<polygon style="fill:#333333;" points="13.646,7.354 12,5.707 10.354,7.354 9.646,6.646 12,4.293 14.354,6.646 "/>
<rect x="5" y="16.5" style="fill:#333333;" width="4" height="1"/>
<polygon style="fill:#333333;" points="6.646,19.354 4.293,17 6.646,14.646 7.354,15.354 5.707,17 7.354,18.646 "/>
<rect x="15" y="16.5" style="fill:#333333;" width="4" height="1"/>
<polygon style="fill:#333333;" points="17.354,19.354 16.646,18.646 18.293,17 16.646,15.354 17.354,14.646 19.707,17 "/>
</svg>






