<?xml version="1.0" encoding="iso-8859-1"?>
<svg version="1.1" id="&#x56FE;&#x5C42;_1" xmlns="http://www.w3.org/2000/svg" xmlns:xlink="http://www.w3.org/1999/xlink" x="0px"
	 y="0px" viewBox="0 0 24 24" style="enable-background:new 0 0 24 24;" xml:space="preserve">
<path style="fill:#333333;" d="M8,7.5C6.622,7.5,5.5,6.378,5.5,5S6.622,2.5,8,2.5s2.5,1.122,2.5,2.5S9.378,7.5,8,7.5z M8,3.5
	C7.173,3.5,6.5,4.173,6.5,5S7.173,6.5,8,6.5S9.5,5.827,9.5,5S8.827,3.5,8,3.5z"/>
<path style="fill:#333333;" d="M14,19.5H6.5c-2.28,0-4-1.72-4-4s1.72-4,4-4H10v1H6.5c-1.738,0-3,1.262-3,3s1.262,3,3,3H14V19.5z"/>
<path style="fill:#333333;" d="M17.5,12.5H10v-1h7.5c1.738,0,3-1.262,3-3s-1.262-3-3-3H10v-1h7.5c2.28,0,4,1.72,4,4
	S19.78,12.5,17.5,12.5z"/>
<rect x="3" y="4.5" style="fill:#333333;" width="3" height="1"/>
<rect x="18" y="18.5" style="fill:#333333;" width="3" height="1"/>
<path style="fill:#333333;" d="M16,21.5c-1.379,0-2.5-1.121-2.5-2.5s1.121-2.5,2.5-2.5s2.5,1.121,2.5,2.5S17.379,21.5,16,21.5z
	 M16,17.5c-0.827,0-1.5,0.673-1.5,1.5s0.673,1.5,1.5,1.5s1.5-0.673,1.5-1.5S16.827,17.5,16,17.5z"/>
</svg>






