<?xml version="1.0" encoding="iso-8859-1"?>
<svg version="1.1" id="&#x56FE;&#x5C42;_1" xmlns="http://www.w3.org/2000/svg" xmlns:xlink="http://www.w3.org/1999/xlink" x="0px"
	 y="0px" viewBox="0 0 24 24" style="enable-background:new 0 0 24 24;" xml:space="preserve">
<path style="fill:#333333;" d="M12,22.5C6.21,22.5,1.5,17.79,1.5,12C1.5,6.21,6.21,1.5,12,1.5c5.79,0,10.5,4.71,10.5,10.5h-1
	c0-5.238-4.262-9.5-9.5-9.5S2.5,6.762,2.5,12s4.262,9.5,9.5,9.5c2.276,0,4.479-0.817,6.201-2.303l0.652,0.758
	C16.95,21.596,14.517,22.5,12,22.5z"/>
<path style="fill:#333333;" d="M12,16.5c-2.481,0-4.5-2.019-4.5-4.5S9.519,7.5,12,7.5s4.5,2.019,4.5,4.5S14.481,16.5,12,16.5z
	 M12,8.5c-1.93,0-3.5,1.57-3.5,3.5s1.57,3.5,3.5,3.5s3.5-1.57,3.5-3.5S13.93,8.5,12,8.5z"/>
<path style="fill:#333333;" d="M19,15.5c-1.93,0-3.5-1.57-3.5-3.5h1c0,1.379,1.121,2.5,2.5,2.5s2.5-1.121,2.5-2.5h1
	C22.5,13.93,20.93,15.5,19,15.5z"/>
<rect x="15.5" y="8" style="fill:#333333;" width="1" height="4.5"/>
</svg>






