<?xml version="1.0" encoding="iso-8859-1"?>
<svg version="1.1" id="&#x56FE;&#x5C42;_1" xmlns="http://www.w3.org/2000/svg" xmlns:xlink="http://www.w3.org/1999/xlink" x="0px"
	 y="0px" viewBox="0 0 24 24" style="enable-background:new 0 0 24 24;" xml:space="preserve">
<path style="fill:#333333;" d="M20.5,22.5h-17v-21h12.229L20.5,7.065V22.5z M4.5,21.5h15V7.435L15.271,2.5H4.5V21.5z"/>
<polygon style="fill:#333333;" points="13.5,15.75 12.5,15.75 12.5,8.174 15.778,6.552 16.222,7.448 13.5,8.795 "/>
<path style="fill:#333333;" d="M10.25,19C8.458,19,7,17.542,7,15.75s1.458-3.25,3.25-3.25s3.25,1.458,3.25,3.25S12.042,19,10.25,19z
	 M10.25,13.5C9.009,13.5,8,14.51,8,15.75S9.009,18,10.25,18s2.25-1.01,2.25-2.25S11.491,13.5,10.25,13.5z"/>
</svg>






