<?xml version="1.0" encoding="iso-8859-1"?>
<svg version="1.1" id="&#x56FE;&#x5C42;_1" xmlns="http://www.w3.org/2000/svg" xmlns:xlink="http://www.w3.org/1999/xlink" x="0px"
	 y="0px" viewBox="0 0 24 24" style="enable-background:new 0 0 24 24;" xml:space="preserve">
<path style="fill:#333333;" d="M20.5,18.5h-17l0.003-4.479c0.001-0.552,0.45-1,1-1h4.93c0.029-0.176,0.029-0.539,0.029-0.866
	c0-0.158-0.292-0.473-0.55-0.751c-0.757-0.816-1.901-2.05-1.901-4.478C7.011,3.294,9.671,2,12.16,2c3.073,0,4.908,1.842,4.908,4.926
	c0,2.33-1.081,3.487-1.796,4.252c-0.398,0.427-0.643,0.701-0.643,0.961c0,0.361,0,0.688,0.013,0.88l4.857,0.002c0.552,0,1,0.448,1,1
	V18.5z M4.5,17.5h15v-3.479h-4.979c-0.891,0-0.891-0.629-0.891-1.882c0-0.667,0.442-1.142,0.912-1.644
	c0.68-0.728,1.526-1.634,1.526-3.57C16.068,3.51,13.62,3,12.16,3c-1.248,0-4.149,0.383-4.149,3.926c0,2.035,0.944,3.054,1.634,3.798
	c0.438,0.473,0.816,0.881,0.816,1.416c0,0.549,0,0.901-0.073,1.185c-0.116,0.449-0.431,0.697-0.885,0.697H4.502L4.5,17.5z"/>
<rect x="4" y="20.5" style="fill:#333333;" width="16" height="1"/>
</svg>






