<?xml version="1.0" encoding="iso-8859-1"?>
<svg version="1.1" id="&#x56FE;&#x5C42;_1" xmlns="http://www.w3.org/2000/svg" xmlns:xlink="http://www.w3.org/1999/xlink" x="0px"
	 y="0px" viewBox="0 0 24 24" style="enable-background:new 0 0 24 24;" xml:space="preserve">
<path style="fill:#333333;" d="M21.102,22H2.897c-0.494,0-0.896-0.396-0.896-0.885v-0.462c-0.011-0.196-0.009-0.99,0.515-1.866
	c0.331-0.552,0.802-1.024,1.402-1.404c0.704-0.443,1.583-0.757,2.615-0.931c0.048-0.007,0.766-0.104,1.48-0.287
	c0.705-0.18,0.995-0.335,1.098-0.403c0.004-0.091,0.004-0.277-0.026-0.61c-0.114-1.254-0.785-1.993-1.376-2.645
	c-0.208-0.229-0.402-0.445-0.553-0.657C6.488,10.911,6.407,9.849,6.4,9.731C6.398,9.248,6.581,8.956,6.757,8.763
	C6.606,7.845,6.6,6.647,6.743,5.824c0.051-1.135,0.995-2.008,1.184-2.171c0.035-0.029,0.086-0.072,0.137-0.118
	C8.019,3.382,7.991,3.187,8.036,2.962c0.041-0.202,0.206-0.69,0.876-0.863c0.203-0.053,0.405-0.063,0.538-0.07
	c0.502-0.025,1.037-0.047,1.576-0.007c3.822,0.285,5.21,1.676,5.355,1.834c0.361,0.42,0.619,0.918,0.775,1.493
	c0.05,0.183,0.081,0.336,0.1,0.482c0.134,0.755,0.112,1.543,0.083,2.068c-0.014,0.258-0.041,0.526-0.086,0.836
	c0.109,0.127,0.214,0.277,0.278,0.479c0.047,0.146,0.068,0.298,0.068,0.467c-0.007,0.143-0.077,1.211-0.758,2.167
	c-0.148,0.208-0.339,0.42-0.542,0.645c-0.604,0.666-1.274,1.404-1.388,2.657c-0.03,0.333-0.03,0.519-0.026,0.61
	c0.104,0.069,0.395,0.225,1.104,0.405c0.69,0.177,1.367,0.271,1.442,0.28c1.075,0.193,1.965,0.515,2.666,0.96
	c0.601,0.379,1.071,0.851,1.4,1.401c0.518,0.868,0.511,1.658,0.497,1.88l0.001,0.427C21.997,21.604,21.596,22,21.102,22z M3.002,21
	h17.995v-0.344c0.005-0.097,0.03-0.686-0.357-1.336c-0.247-0.414-0.608-0.773-1.075-1.068c-0.593-0.376-1.361-0.65-2.286-0.816
	c-0.061-0.008-0.791-0.109-1.536-0.3c-1.074-0.274-1.657-0.59-1.782-0.963l-0.05-0.147c-0.036-0.187-0.033-0.52,0.007-0.964
	c0.145-1.587,1.003-2.534,1.631-3.226c0.187-0.207,0.353-0.388,0.48-0.566c0.524-0.737,0.572-1.603,0.573-1.612
	c-0.001-0.062-0.012-0.108-0.021-0.139c-0.021-0.066-0.065-0.115-0.135-0.186l-0.081-0.088c-0.173-0.17-0.133-0.433-0.119-0.519
	c0.051-0.334,0.082-0.614,0.097-0.881c0.025-0.475,0.047-1.186-0.073-1.864c-0.017-0.128-0.04-0.237-0.076-0.367
	c-0.117-0.432-0.305-0.798-0.557-1.091l0,0c-0.001,0-1.203-1.243-4.684-1.502C10.47,2.983,9.99,3.003,9.5,3.028
	C9.401,3.033,9.268,3.04,9.164,3.067C9.122,3.078,9.026,3.107,9.017,3.156C9.004,3.221,9.028,3.279,9.067,3.369l0.075,0.168
	l-0.11,0.399C8.909,4.127,8.738,4.28,8.571,4.417C8.547,4.438,7.774,5.115,7.735,5.934C7.6,6.737,7.614,7.927,7.762,8.704
	c0.016,0.082,0.055,0.279-0.042,0.477L7.605,9.333c-0.15,0.135-0.207,0.186-0.207,0.367C7.4,9.707,7.456,10.546,7.971,11.27
	c0.13,0.182,0.299,0.367,0.479,0.564c0.629,0.694,1.488,1.641,1.633,3.228c0.04,0.443,0.042,0.776,0.006,0.964l-0.05,0.142
	c-0.048,0.336-0.635,0.676-1.775,0.967c-0.758,0.195-1.498,0.296-1.58,0.307c-0.883,0.149-1.639,0.416-2.23,0.788
	c-0.466,0.295-0.829,0.656-1.078,1.072c-0.397,0.663-0.378,1.26-0.374,1.326L3.002,21z M17.101,8.569
	c0.005,0.005,0.01,0.01,0.015,0.016C17.11,8.58,17.105,8.575,17.101,8.569z"/>
</svg>






