<?xml version="1.0" encoding="iso-8859-1"?>
<svg version="1.1" id="&#x56FE;&#x5C42;_1" xmlns="http://www.w3.org/2000/svg" xmlns:xlink="http://www.w3.org/1999/xlink" x="0px"
	 y="0px" viewBox="0 0 24 24" style="enable-background:new 0 0 24 24;" xml:space="preserve">
<path style="fill:#333333;" d="M12.002,21.196c-0.702,0-1.407-0.067-2.1-0.206c-2.882-0.576-5.372-2.302-6.831-4.733l0.857-0.514
	c1.314,2.19,3.563,3.745,6.169,4.267c2.542,0.511,5.264-0.031,7.102-1.41c2.805-2.104,3.8-5.678,3.8-8.1
	c0-2.329-0.936-5.002-1.416-5.723c-0.383-0.575-1.199-0.791-1.207-0.792l0.244-0.97c0.049,0.012,1.194,0.307,1.795,1.208
	C20.984,5.075,22,7.902,22,10.5c0,2.652-1.1,6.575-4.2,8.9C16.249,20.563,14.147,21.196,12.002,21.196z"/>
<path style="fill:#333333;" d="M8.5,18.5c-3.058,0-5.101-1.03-6.429-3.243C0.454,12.562,1.093,9.556,3.7,7.6
	C5,6.625,6.397,6.535,7.749,6.448c0.902-0.058,1.754-0.113,2.578-0.417l0,0c1.328-0.489,2.358-1.28,3.269-1.978
	c0.983-0.754,1.832-1.405,2.834-1.548c1.021-0.146,1.943,0.086,2.596,0.653C19.654,3.703,20,4.534,20,5.5
	c0,1.862-1.014,6.721-4.146,9.854C13.588,17.618,11.526,18.5,8.5,18.5z M17.015,3.462c-0.144,0-0.292,0.011-0.444,0.033
	c-0.741,0.106-1.494,0.683-2.366,1.352c-0.966,0.741-2.062,1.581-3.531,2.123l0,0c-0.96,0.354-1.926,0.417-2.859,0.477
	C6.552,7.527,5.361,7.604,4.3,8.4c-2.168,1.627-2.707,4.117-1.371,6.343C4.073,16.649,5.792,17.5,8.5,17.5
	c2.764,0,4.565-0.773,6.646-2.854C18.029,11.763,19,7.158,19,5.5c0-0.681-0.218-1.23-0.63-1.587
	C18.029,3.617,17.558,3.462,17.015,3.462z"/>
<path style="fill:#333333;" d="M10.411,14c-0.99,0-1.684-0.377-2.121-1.152c-0.533-0.947-0.314-2.044,0.545-2.73
	c0.453-0.362,0.944-0.396,1.339-0.424c0.234-0.016,0.436-0.03,0.615-0.1h0c0.32-0.125,0.575-0.334,0.821-0.535
	c0.304-0.249,0.591-0.483,0.971-0.541c0.382-0.057,0.739,0.035,1.002,0.261C13.853,9.008,14,9.356,14,9.759
	c0,0.602-0.308,2.171-1.258,3.185C12.038,13.694,11.363,14,10.411,14z M11.156,10.524L11.156,10.524
	c-0.322,0.126-0.636,0.148-0.912,0.167c-0.367,0.025-0.584,0.047-0.784,0.207c-0.477,0.38-0.591,0.939-0.298,1.459
	C9.419,12.813,9.781,13,10.411,13c0.678,0,1.083-0.187,1.602-0.739C12.766,11.457,13,10.146,13,9.759
	c0-0.105-0.024-0.187-0.067-0.223c-0.039-0.033-0.114-0.043-0.2-0.031c-0.109,0.017-0.302,0.174-0.488,0.327
	C11.966,10.059,11.621,10.341,11.156,10.524z"/>
</svg>






