<?xml version="1.0" encoding="iso-8859-1"?>
<svg version="1.1" id="&#x56FE;&#x5C42;_1" xmlns="http://www.w3.org/2000/svg" xmlns:xlink="http://www.w3.org/1999/xlink" x="0px"
	 y="0px" viewBox="0 0 24 24" style="enable-background:new 0 0 24 24;" xml:space="preserve">
<path style="fill:#333333;" d="M12,22.5c-3.727,0-7.5-2.404-7.5-7c0-2.389,0.894-3.878,1.759-5.32
	c0.275-0.458,0.55-0.916,0.794-1.404c0.247-0.494,0.365-1.264,0.49-2.08C7.879,4.504,8.339,1.5,12,1.5
	c3.697,0,4.125,3.026,4.468,5.457c0.126,0.888,0.244,1.726,0.496,2.357c0.354,0.884,0.771,1.57,1.175,2.233
	c0.7,1.15,1.361,2.236,1.361,3.953C19.5,20.096,15.727,22.5,12,22.5z M12,2.5c-2.607,0-3.066,1.722-3.469,4.349
	C8.394,7.744,8.264,8.589,7.947,9.224c-0.256,0.512-0.543,0.992-0.831,1.471C6.285,12.08,5.5,13.389,5.5,15.5c0,4.122,3.37,6,6.5,6
	c3.131,0,6.5-1.878,6.5-6c0-1.437-0.536-2.317-1.215-3.433c-0.405-0.666-0.864-1.419-1.249-2.382
	c-0.298-0.743-0.424-1.64-0.559-2.588C15.086,4.32,14.632,2.5,12,2.5z"/>
<path style="fill:#333333;" d="M12,18.5c-1.93,0-3.5-1.57-3.5-3.5c0-1.925,1.561-4.25,3.5-4.25c1.938,0,3.5,2.325,3.5,4.25
	C15.5,16.93,13.93,18.5,12,18.5z M12,11.75c-1.323,0-2.5,1.817-2.5,3.25c0,1.379,1.122,2.5,2.5,2.5c1.379,0,2.5-1.121,2.5-2.5
	C14.5,13.567,13.323,11.75,12,11.75z"/>
</svg>






