<?xml version="1.0" encoding="iso-8859-1"?>
<svg version="1.1" id="&#x56FE;&#x5C42;_1" xmlns="http://www.w3.org/2000/svg" xmlns:xlink="http://www.w3.org/1999/xlink" x="0px"
	 y="0px" viewBox="0 0 24 24" style="enable-background:new 0 0 24 24;" xml:space="preserve">
<path style="fill:#333333;" d="M9.364,22.5c-0.625,0-1.185-0.119-1.638-0.363c-0.698-0.374-1.114-1.016-1.205-1.854
	c-0.161-1.494,0.653-2.058,1.371-2.554c0.541-0.374,1.101-0.762,1.461-1.598c0.302-0.7-0.09-1.172-0.869-2.013
	c-0.849-0.917-1.904-2.058-1.472-3.926c0.289-1.248,1.231-2.14,2.654-2.512c2.328-0.607,5.293,0.354,7.056,2.288
	c1.087,1.192,1.51,3.003,1.158,4.969c-0.49,2.747-2.4,5.224-5.109,6.627C11.581,22.182,10.385,22.5,9.364,22.5z M11.14,8.501
	c-0.438,0-0.851,0.05-1.22,0.147c-0.605,0.159-1.662,0.599-1.933,1.771c-0.313,1.353,0.437,2.163,1.231,3.021
	c0.762,0.824,1.627,1.758,1.053,3.089c-0.474,1.1-1.215,1.611-1.811,2.023c-0.672,0.465-1.043,0.721-0.945,1.624
	c0.055,0.51,0.279,0.863,0.684,1.08c0.878,0.473,2.532,0.24,4.114-0.579c2.434-1.261,4.147-3.472,4.584-5.914
	c0.292-1.633-0.05-3.173-0.912-4.12C14.629,9.157,12.722,8.501,11.14,8.501z"/>
<ellipse transform="matrix(0.6428 -0.766 0.766 0.6428 0.9839 15.6453)" style="fill:#333333;" cx="17.268" cy="6.768" rx="1.5" ry="1"/>
<ellipse transform="matrix(0.4226 -0.9063 0.9063 0.4226 3.6771 16.375)" style="fill:#333333;" cx="14.69" cy="5.302" rx="1.5" ry="1"/>
<ellipse transform="matrix(0.1045 -0.9945 0.9945 0.1045 5.6932 15.9257)" style="fill:#333333;" cx="11.69" cy="4.801" rx="1.5" ry="1"/>
<path style="fill:#333333;" d="M7.291,6.448c-0.363,0-0.736-0.114-1.077-0.337C5.728,5.794,5.34,5.287,5.121,4.684
	C4.649,3.389,5.108,2.028,6.145,1.651l0,0C6.666,1.462,7.263,1.549,7.786,1.89C8.271,2.207,8.66,2.713,8.879,3.316
	c0.22,0.603,0.248,1.24,0.08,1.795C8.778,5.708,8.375,6.16,7.855,6.349C7.674,6.415,7.484,6.448,7.291,6.448z M6.487,2.59
	L6.487,2.59C5.978,2.776,5.782,3.578,6.06,4.342c0.144,0.395,0.399,0.734,0.7,0.931C6.911,5.372,7.208,5.52,7.513,5.41
	c0.303-0.11,0.437-0.416,0.489-0.588c0.104-0.344,0.081-0.768-0.062-1.163c-0.144-0.395-0.399-0.734-0.7-0.931
	C7.088,2.629,6.791,2.481,6.487,2.59z"/>
<ellipse transform="matrix(0.766 -0.6428 0.6428 0.766 -1.1281 14.4363)" style="fill:#333333;" cx="19.268" cy="8.768" rx="1.5" ry="1"/>
</svg>






