<?xml version="1.0" encoding="iso-8859-1"?>
<svg version="1.1" id="&#x56FE;&#x5C42;_1" xmlns="http://www.w3.org/2000/svg" xmlns:xlink="http://www.w3.org/1999/xlink" x="0px"
	 y="0px" viewBox="0 0 24 24" style="enable-background:new 0 0 24 24;" xml:space="preserve">
<path style="fill:#333333;" d="M12,8c-1.654,0-3-1.346-3-3s1.346-3,3-3s3,1.346,3,3S13.654,8,12,8z M12,3c-1.103,0-2,0.897-2,2
	s0.897,2,2,2c1.103,0,2-0.897,2-2S13.103,3,12,3z"/>
<path style="fill:#333333;" d="M12.25,19.5c-2.292,0-2.832-1.14-3.402-2.347c-0.211-0.446-0.429-0.906-0.754-1.362
	c-1.12-1.568-3.088-2.681-3.735-3.047L4.05,12.568L2.435,3.688l3.437-1.375L5.99,2.902C6.004,2.973,7.471,10,12,10
	s5.995-7.027,6.01-7.098l0.118-0.589l3.438,1.375l-1.624,8.931l-0.266,0.1c-0.562,0.211-2.56,1.894-3.247,3.039
	c-0.149,0.249-0.275,0.541-0.41,0.845C15.48,17.824,14.742,19.5,12.25,19.5z M4.95,11.93c0.779,0.443,2.763,1.608,3.957,3.279
	c0.378,0.529,0.626,1.054,0.845,1.517c0.542,1.145,0.839,1.774,2.499,1.774c1.84,0,2.333-1.118,2.854-2.302
	c0.152-0.345,0.299-0.674,0.468-0.955c0.726-1.209,2.548-2.81,3.482-3.331l1.381-7.6L18.853,3.68C18.37,5.517,16.549,11,12,11
	S5.63,5.517,5.147,3.68L3.565,4.312L4.95,11.93z"/>
<path style="fill:#333333;" d="M21,21.5h-3.5V21c0-2.668-2.166-4.016-2.259-4.072l0.516-0.856c0.106,0.063,2.473,1.517,2.722,4.429
	h1.506c-0.236-3.79-3.106-5.493-3.233-5.566l0.497-0.868C17.401,14.153,21,16.265,21,21V21.5z"/>
<path style="fill:#333333;" d="M7,21.5H3.5V21c0-4.735,3.599-6.847,3.752-6.935l0.497,0.868C7.622,15.007,4.752,16.71,4.516,20.5
	h1.505c0.25-2.912,2.616-4.365,2.722-4.429l0.516,0.856C9.166,16.984,7,18.332,7,21V21.5z"/>
</svg>






