<?xml version="1.0" encoding="iso-8859-1"?>
<svg version="1.1" id="&#x56FE;&#x5C42;_1" xmlns="http://www.w3.org/2000/svg" xmlns:xlink="http://www.w3.org/1999/xlink" x="0px"
	 y="0px" viewBox="0 0 24 24" style="enable-background:new 0 0 24 24;" xml:space="preserve">
<path style="fill:#333333;" d="M12,22.5c-5.238,0-9.5-4.262-9.5-9.5S6.762,3.5,12,3.5s9.5,4.262,9.5,9.5S17.238,22.5,12,22.5z
	 M12,4.5c-4.687,0-8.5,3.813-8.5,8.5c0,4.687,3.813,8.5,8.5,8.5c4.687,0,8.5-3.813,8.5-8.5C20.5,8.313,16.687,4.5,12,4.5z"/>
<path style="fill:#333333;" d="M11.515,4.121C11.435,3.8,10.734,2.5,9,2.5v-1c2.184,0,3.291,1.603,3.485,2.379L11.515,4.121z"/>
<path style="fill:#333333;" d="M12.498,4.042l-0.996-0.084c0.055-0.655,0.38-1.895,1.25-2.392l0.496,0.868
	C12.777,2.703,12.538,3.563,12.498,4.042z"/>
<path style="fill:#333333;" d="M12,19c-2.777,0-3.901-2.184-3.947-2.276l0.895-0.447C8.982,16.345,9.855,18,12,18
	c2.145,0,3.018-1.655,3.054-1.726l0.894,0.449C15.9,16.816,14.777,19,12,19z"/>
<path style="fill:#333333;" d="M13.999,18.036l-0.998-0.071C13.067,17.034,13.408,14,15,14c0.541,0,0.834,0.259,0.984,0.477
	c0.499,0.721,0.074,1.958-0.017,2.199l-0.937-0.351c0.168-0.452,0.264-1.089,0.131-1.279C15.154,15.034,15.131,15,15,15
	C14.598,15,14.111,16.476,13.999,18.036z"/>
<rect x="14.5" y="10" style="fill:#333333;" width="2" height="1"/>
<rect x="8" y="9.5" style="fill:#333333;" width="1" height="2"/>
<rect x="1.5" y="12" style="fill:#333333;" width="1" height="2"/>
<rect x="21.5" y="12" style="fill:#333333;" width="1" height="2"/>
</svg>






