<?xml version="1.0" encoding="iso-8859-1"?>
<svg version="1.1" id="&#x56FE;&#x5C42;_1" xmlns="http://www.w3.org/2000/svg" xmlns:xlink="http://www.w3.org/1999/xlink" x="0px"
	 y="0px" viewBox="0 0 24 24" style="enable-background:new 0 0 24 24;" xml:space="preserve">
<path style="fill:#333333;" d="M16,19c-0.782,0-1.739-0.339-2.752-0.698C12.136,17.907,10.986,17.5,10,17.5
	c-0.92,0-1.725,0.29-2.503,0.57c-0.815,0.294-1.585,0.572-2.345,0.42C3.563,18.173,3,16.95,3,16c0-2.141,1.791-2.588,2.379-2.735
	c1.14-0.284,4.128,0.11,5.509,0.505c0.18,0.052,0.351,0.104,0.512,0.153c0.98,0.302,1.337,0.384,1.747-0.026
	c0.297-0.297,0.259-0.573,0.073-1.288C13.116,12.212,13,11.763,13,11.25c0-1.717,1.574-2.608,2.724-3.259
	c0.389-0.22,0.755-0.427,0.923-0.595c0.005-0.106-0.252-0.382-0.423-0.565C15.79,6.367,15.25,5.788,15.25,5
	c0-2.297,4.712-3.311,5.656-3.491l0.735-0.14l-3.156,15.252C18.461,16.719,17.869,19,16,19z M10,16.5
	c1.158,0,2.446,0.457,3.582,0.859C14.512,17.688,15.39,18,16,18c1.048,0,1.479-1.491,1.513-1.614l2.842-13.733
	C18.454,3.12,16.25,4.037,16.25,5c0,0.394,0.358,0.778,0.705,1.149c0.425,0.456,1.136,1.217,0.398,1.954
	c-0.264,0.264-0.668,0.493-1.137,0.758C15.229,9.42,14,10.116,14,11.25c0,0.385,0.096,0.752,0.188,1.107
	c0.185,0.711,0.395,1.519-0.334,2.246c-0.855,0.855-1.774,0.573-2.747,0.275c-0.156-0.048-0.32-0.099-0.494-0.148
	c-1.36-0.389-4.128-0.711-4.991-0.495C4.47,14.523,4,15.034,4,16c0,0.6,0.354,1.311,1.348,1.51c0.482,0.092,1.098-0.124,1.81-0.381
	C7.977,16.834,8.906,16.5,10,16.5z"/>
<polygon style="fill:#333333;" points="20.5,22.5 3.278,22.5 5.032,17.824 5.968,18.176 4.722,21.5 19.5,21.5 17.1,18.3 17.9,17.7 
	20.9,21.7 "/>
</svg>






