<?xml version="1.0" encoding="iso-8859-1"?>
<svg version="1.1" id="&#x56FE;&#x5C42;_1" xmlns="http://www.w3.org/2000/svg" xmlns:xlink="http://www.w3.org/1999/xlink" x="0px"
	 y="0px" viewBox="0 0 24 24" style="enable-background:new 0 0 24 24;" xml:space="preserve">
<polygon style="fill:#333333;" points="21.776,9.447 12.003,4.561 2.478,9.445 2.022,8.555 11.997,3.439 22.224,8.553 "/>
<rect x="11.5" y="2" style="fill:#333333;" width="1" height="7"/>
<rect x="4.5" y="8" style="fill:#333333;" width="1" height="7"/>
<path style="fill:#333333;" d="M5,21.5c-1.93,0-3.5-1.57-3.5-3.5s1.57-3.5,3.5-3.5s3.5,1.57,3.5,3.5S6.93,21.5,5,21.5z M5,15.5
	c-1.378,0-2.5,1.121-2.5,2.5s1.122,2.5,2.5,2.5s2.5-1.121,2.5-2.5S6.378,15.5,5,15.5z"/>
<rect x="18.5" y="8" style="fill:#333333;" width="1" height="7"/>
<path style="fill:#333333;" d="M19,21.707L15.293,18L19,14.293L22.707,18L19,21.707z M16.707,18L19,20.293L21.293,18L19,15.707
	L16.707,18z"/>
<polygon style="fill:#333333;" points="15,11.5 14,11.5 14,9.5 10,9.5 10,11.5 9,11.5 9,8.5 15,8.5 "/>
</svg>






