<?xml version="1.0" encoding="iso-8859-1"?>
<svg version="1.1" id="&#x56FE;&#x5C42;_1" xmlns="http://www.w3.org/2000/svg" xmlns:xlink="http://www.w3.org/1999/xlink" x="0px"
	 y="0px" viewBox="0 0 24 24" style="enable-background:new 0 0 24 24;" xml:space="preserve">
<path style="fill:#333333;" d="M17.146,22.799c-0.36,0-0.755-0.082-1.157-0.248C14.609,21.979,13,20.314,13,17.5V12
	c0-0.941-0.944-1.283-1.579-1.283c-0.397,0-0.755,0.115-1.009,0.322C10.139,11.263,10,11.586,10,12v8.75
	c0,0.703-0.399,1.75-1.5,1.75c-2.103,0-4.5-6.925-4.5-13c0-6.086,2.125-7.622,2.776-7.947L6.882,1.5h10.353l0.149,0.18
	C17.881,2.276,19.5,4.457,19.5,7.5c0,4.093-0.792,6.481-1.371,8.226C17.777,16.786,17.5,17.624,17.5,18.5
	c0,0.503,0.328,0.981,0.645,1.444c0.449,0.656,1.064,1.554,0.209,2.409C18.059,22.648,17.634,22.799,17.146,22.799z M11.421,9.717
	c1.25,0,2.579,0.8,2.579,2.283v5.5c0,2.321,1.277,3.674,2.371,4.127c0.632,0.261,1.104,0.192,1.275,0.02
	c0.214-0.214,0.21-0.354-0.327-1.138C16.954,19.976,16.5,19.312,16.5,18.5c0-1.038,0.315-1.988,0.681-3.089
	c0.588-1.773,1.319-3.98,1.319-7.911c0-2.46-1.191-4.289-1.74-5H7.131C6.676,2.789,5,4.209,5,9.5c0,6.601,2.643,12,3.5,12
	c0.494,0,0.5-0.72,0.5-0.75V12c0-0.718,0.27-1.317,0.779-1.735C10.211,9.912,10.794,9.717,11.421,9.717z"/>
<rect x="5" y="5.5" style="fill:#333333;" width="13.5" height="1"/>
<path style="fill:#333333;" d="M5.087,7.547L4.092,7.453c0.136-1.431,0.422-2.659,0.851-3.651L5.86,4.198
	C5.474,5.094,5.213,6.221,5.087,7.547z"/>
<path style="fill:#333333;" d="M19.5,7.5h-1c0-0.948-0.179-1.897-0.53-2.822l0.936-0.355C19.3,5.361,19.5,6.431,19.5,7.5z"/>
</svg>






