<?xml version="1.0" encoding="iso-8859-1"?>
<svg version="1.1" id="&#x56FE;&#x5C42;_1" xmlns="http://www.w3.org/2000/svg" xmlns:xlink="http://www.w3.org/1999/xlink" x="0px"
	 y="0px" viewBox="0 0 24 24" style="enable-background:new 0 0 24 24;" xml:space="preserve">
<path style="fill:#333333;" d="M12,22.3c-4.656,0-8.258-3.764-9.41-7.48c-0.049-0.157-0.304-0.321-0.575-0.495
	C1.412,13.938,0.5,13.353,0.5,11.9c0-1.442,0.875-2.036,1.514-2.47C2.31,9.229,2.565,9.056,2.623,8.877
	C3.804,5.211,7.404,1.5,12,1.5c4.593,0,8.192,3.708,9.375,7.37c0.06,0.184,0.331,0.372,0.618,0.571
	c0.636,0.44,1.507,1.043,1.507,2.459c0,1.431-0.907,2.007-1.508,2.389c-0.269,0.171-0.521,0.332-0.567,0.481
	C20.287,18.512,16.685,22.3,12,22.3z M12,2.5c-4.118,0-7.355,3.362-8.425,6.684C3.411,9.69,2.986,9.979,2.576,10.257
	C1.999,10.649,1.5,10.988,1.5,11.9c0,0.906,0.489,1.22,1.055,1.583c0.41,0.263,0.833,0.534,0.99,1.039
	C4.588,17.891,7.828,21.3,12,21.3c4.198,0,7.438-3.431,8.468-6.82c0.153-0.504,0.578-0.773,0.987-1.034
	c0.561-0.356,1.045-0.664,1.045-1.545c0-0.892-0.498-1.237-1.075-1.637c-0.412-0.285-0.838-0.58-1.001-1.085
	C19.353,5.859,16.115,2.5,12,2.5z"/>
<path style="fill:#333333;" d="M20.424,9.178C19.353,5.859,16.115,2.5,12,2.5v-1c4.593,0,8.192,3.708,9.375,7.37L20.424,9.178z"/>
<g>
	<path style="fill:#333333;" d="M9.55,10.8c0,0.413-0.112,0.776-0.28,1.028C9.101,12.082,8.894,12.2,8.7,12.2
		S8.3,12.082,8.13,11.828c-0.168-0.252-0.28-0.615-0.28-1.028s0.112-0.776,0.28-1.028C8.3,9.518,8.506,9.4,8.7,9.4
		s0.401,0.118,0.57,0.372C9.438,10.024,9.55,10.387,9.55,10.8z"/>
	<path style="fill:#333333;" d="M8.7,12.45c-0.294,0-0.57-0.172-0.778-0.483C7.714,11.654,7.6,11.24,7.6,10.8
		s0.114-0.855,0.322-1.167c0.415-0.622,1.14-0.623,1.556,0C9.686,9.945,9.8,10.359,9.8,10.8s-0.114,0.854-0.322,1.167
		C9.27,12.278,8.994,12.45,8.7,12.45z M8.7,9.65c-0.12,0-0.251,0.095-0.362,0.261C8.187,10.138,8.1,10.462,8.1,10.8
		s0.087,0.662,0.238,0.89c0.221,0.332,0.503,0.333,0.724,0C9.213,11.462,9.3,11.138,9.3,10.8s-0.087-0.662-0.238-0.889
		C8.952,9.745,8.819,9.65,8.7,9.65z"/>
</g>
<g>
	<path style="fill:#333333;" d="M16.15,10.8c0,0.413-0.112,0.776-0.28,1.028C15.7,12.082,15.494,12.2,15.3,12.2
		s-0.401-0.118-0.57-0.372c-0.168-0.252-0.28-0.615-0.28-1.028s0.112-0.776,0.28-1.028C14.899,9.518,15.106,9.4,15.3,9.4
		s0.401,0.118,0.57,0.372C16.038,10.024,16.15,10.387,16.15,10.8z"/>
	<path style="fill:#333333;" d="M15.3,12.45c-0.294,0-0.57-0.172-0.777-0.483C14.314,11.654,14.2,11.24,14.2,10.8
		s0.114-0.855,0.322-1.167c0.414-0.623,1.137-0.625,1.556,0C16.286,9.945,16.4,10.359,16.4,10.8s-0.114,0.854-0.322,1.167
		C15.869,12.278,15.593,12.45,15.3,12.45z M15.3,9.65c-0.119,0-0.251,0.095-0.361,0.261C14.787,10.138,14.7,10.462,14.7,10.8
		s0.087,0.662,0.238,0.89c0.221,0.332,0.503,0.332,0.724,0c0.151-0.227,0.238-0.551,0.238-0.889s-0.087-0.662-0.238-0.889
		C15.552,9.745,15.419,9.65,15.3,9.65z"/>
</g>
<path style="fill-rule:evenodd;clip-rule:evenodd;fill:#333333;" d="M9.249,15.875c0.965,0.65,1.884,0.975,2.756,0.975
	c0.871,0,1.734-0.324,2.59-0.973"/>
<path style="fill:#333333;" d="M12.005,17.35c-0.97,0-1.991-0.356-3.035-1.06l0.559-0.83c1.739,1.173,3.228,1.185,4.765,0.019
	l0.604,0.797C13.956,16.988,12.983,17.35,12.005,17.35z"/>
<path style="fill:#333333;" d="M11.738,6.349c-0.097,0-0.195-0.001-0.295-0.002l0.018-1c1.516,0.022,2.619-0.16,3.256-0.553
	c0.552-0.339,0.759-0.856,0.652-1.625l0.99-0.137c0.203,1.466-0.496,2.23-1.117,2.613C14.475,6.118,13.326,6.349,11.738,6.349z"/>
</svg>






