<?xml version="1.0" encoding="iso-8859-1"?>
<svg version="1.1" id="&#x56FE;&#x5C42;_1" xmlns="http://www.w3.org/2000/svg" xmlns:xlink="http://www.w3.org/1999/xlink" x="0px"
	 y="0px" viewBox="0 0 24 24" style="enable-background:new 0 0 24 24;" xml:space="preserve">
<path style="fill:#333333;" d="M18.5,22.5h-13v-13h13V22.5z M6.5,21.5h11v-11h-11V21.5z"/>
<rect x="13" y="17.5" style="fill:#333333;" width="5" height="1"/>
<rect x="13" y="13.5" style="fill:#333333;" width="5" height="1"/>
<rect x="4" y="9.5" style="fill:#333333;" width="16" height="1"/>
<path style="fill:#333333;" d="M18,7.5h-4.7V3.8c0-0.313-0.391-1.3-1.3-1.3c-0.909,0-1.3,0.986-1.3,1.3v3.7H6v-1h3.7V3.8
	c0-0.825,0.769-2.3,2.3-2.3s2.3,1.475,2.3,2.3v2.7H18V7.5z"/>
</svg>






