<?xml version="1.0" encoding="iso-8859-1"?>
<svg version="1.1" id="&#x56FE;&#x5C42;_1" xmlns="http://www.w3.org/2000/svg" xmlns:xlink="http://www.w3.org/1999/xlink" x="0px"
	 y="0px" viewBox="0 0 24 24" style="enable-background:new 0 0 24 24;" xml:space="preserve">
<path style="fill:#333333;" d="M15,21.5H5c-1.654,0-3-1.346-3-3v-13c0-1.654,1.346-3,3-3h7v1H5c-1.103,0-2,0.897-2,2v13
	c0,1.103,0.897,2,2,2h10V21.5z"/>
<polygon style="fill:#333333;" points="2.652,14.477 2.348,13.523 9,11.396 9,3 10,3 10,12.127 "/>
<rect x="12" y="9.838" transform="matrix(0.3162 -0.9487 0.9487 0.3162 -3.7858 20.7477)" style="fill:#333333;" width="1" height="6.324"/>
<rect x="18" y="9" style="fill:#333333;" width="1" height="12"/>
<path style="fill:#333333;" d="M18.5,9.5c-0.887,0-1.72-0.239-2.347-0.672C15.409,8.314,15,7.546,15,6.667
	c0-3.44,2.244-5.167,3.5-5.167S22,3.227,22,6.667C22,8.527,20.239,9.5,18.5,9.5z M18.5,2.5c-0.688,0-2.5,1.281-2.5,4.167
	c0,1.26,1.296,1.833,2.5,1.833S21,7.926,21,6.667C21,3.781,19.188,2.5,18.5,2.5z"/>
</svg>






