<?xml version="1.0" encoding="iso-8859-1"?>
<svg version="1.1" id="&#x56FE;&#x5C42;_1" xmlns="http://www.w3.org/2000/svg" xmlns:xlink="http://www.w3.org/1999/xlink" x="0px"
	 y="0px" viewBox="0 0 24 24" style="enable-background:new 0 0 24 24;" xml:space="preserve">
<path style="fill:#333333;" d="M12,9.516L1.879,6.985v-0.97L12,3.484l10.121,2.531v0.97L12,9.516z M4.062,6.5L12,8.484L19.938,6.5
	L12,4.516L4.062,6.5z"/>
<path style="fill:#333333;" d="M12,15c-3.104,0-5.652-1.522-5.759-1.587L6,13.267V8h1v4.69C7.678,13.048,9.7,14,12,14
	s4.322-0.952,5-1.31V8h1v5.267l-0.241,0.146C17.652,13.478,15.104,15,12,15z"/>
<rect x="3" y="7" style="fill:#333333;" width="1" height="11"/>
<path style="fill:#333333;" d="M5.5,20.5h-4v-4h4V20.5z M2.5,19.5h2v-2h-2V19.5z"/>
</svg>






