<?xml version="1.0" encoding="iso-8859-1"?>
<svg version="1.1" id="&#x56FE;&#x5C42;_1" xmlns="http://www.w3.org/2000/svg" xmlns:xlink="http://www.w3.org/1999/xlink" x="0px"
	 y="0px" viewBox="0 0 24 24" style="enable-background:new 0 0 24 24;" xml:space="preserve">
<path style="fill:#333333;" d="M12,13.565L2.267,8.442V7.558L12,2.435l9.732,5.123v0.885L12,13.565z M3.574,8L12,12.435L20.427,8
	L12,3.565L3.574,8z"/>
<path style="fill:#333333;" d="M12,21.227c-0.365,0-0.729-0.091-1.062-0.273c-1.595-0.875-3.235-1.402-4.33-1.69
	C5.662,19.015,5,18.18,5,17.232V10h1v7.232c0,0.485,0.363,0.933,0.862,1.063c1.149,0.302,2.873,0.856,4.557,1.78
	c0.358,0.197,0.804,0.196,1.163,0c1.684-0.924,3.406-1.479,4.556-1.78c0.5-0.131,0.862-0.578,0.862-1.063V10h1v7.232
	c0,0.947-0.661,1.782-1.608,2.03c-1.095,0.288-2.734,0.815-4.329,1.69C12.73,21.136,12.365,21.227,12,21.227z"/>
<rect x="21" y="8" style="fill:#333333;" width="1" height="8"/>
</svg>






