<?xml version="1.0" encoding="iso-8859-1"?>
<svg version="1.1" id="&#x56FE;&#x5C42;_1" xmlns="http://www.w3.org/2000/svg" xmlns:xlink="http://www.w3.org/1999/xlink" x="0px"
	 y="0px" viewBox="0 0 24 24" style="enable-background:new 0 0 24 24;" xml:space="preserve">
<path style="fill:#333333;" d="M12,21c-3.226,0-5.535-1.263-6.378-1.807C5.232,18.943,5,18.505,5,18.02V10.5h1v7.52
	c0,0.146,0.06,0.267,0.163,0.333C6.932,18.849,9.04,20,12,20s5.067-1.151,5.837-1.646C17.94,18.286,18,18.165,18,18.02V10.5h1v7.52
	c0,0.485-0.232,0.925-0.623,1.175C17.535,19.737,15.226,21,12,21z"/>
<rect x="21" y="12" style="fill:#333333;" width="1" height="4"/>
<path style="fill:#333333;" d="M12,14.065L2.267,8.942V8.058L12,2.935l9.732,5.123v0.885L12,14.065z M3.574,8.5L12,12.935
	L20.427,8.5L12,4.065L3.574,8.5z"/>
</svg>






