<?xml version="1.0" encoding="iso-8859-1"?>
<svg version="1.1" id="&#x56FE;&#x5C42;_1" xmlns="http://www.w3.org/2000/svg" xmlns:xlink="http://www.w3.org/1999/xlink" x="0px"
	 y="0px" viewBox="0 0 24 24" style="enable-background:new 0 0 24 24;" xml:space="preserve">
<polygon style="fill:#333333;" points="7,7 6,7 6,1.5 10,1.5 10,4.778 9,4.778 9,2.5 7,2.5 "/>
<polygon style="fill:#333333;" points="18,7 17,7 17,2.5 15,2.5 15,4.778 14,4.778 14,1.5 18,1.5 "/>
<path style="fill:#333333;" d="M16.5,22.5h-9C6.122,22.5,5,21.379,5,20V10c0-3.033,2.467-5.5,5.5-5.5h3c3.032,0,5.5,2.467,5.5,5.5
	v10C19,21.379,17.879,22.5,16.5,22.5z M10.5,5.5C8.019,5.5,6,7.519,6,10v10c0,0.827,0.673,1.5,1.5,1.5h9c0.827,0,1.5-0.673,1.5-1.5
	V10c0-2.481-2.019-4.5-4.5-4.5H10.5z"/>
<polygon style="fill:#333333;" points="5.5,20 2,20 2,14 5.5,14 5.5,15 3,15 3,19 5.5,19 "/>
<polygon style="fill:#333333;" points="22,20 18.5,20 18.5,19 21,19 21,15 18.5,15 18.5,14 22,14 "/>
<rect x="13.5" y="11.5" style="fill:#333333;" width="1" height="2"/>
<rect x="8.5" y="11" style="fill:#333333;" width="7" height="1"/>
</svg>






