<?xml version="1.0" encoding="iso-8859-1"?>
<svg version="1.1" id="&#x56FE;&#x5C42;_1" xmlns="http://www.w3.org/2000/svg" xmlns:xlink="http://www.w3.org/1999/xlink" x="0px"
	 y="0px" viewBox="0 0 24 24" style="enable-background:new 0 0 24 24;" xml:space="preserve">
<path style="fill-rule:evenodd;clip-rule:evenodd;fill:#333333;" d="M18.5,18.5c1.105,0,2-0.895,2-2c0-0.736-0.667-1.736-2-3
	c-1.333,1.264-2,2.264-2,3C16.5,17.605,17.395,18.5,18.5,18.5z"/>
<rect x="10.811" y="2.386" transform="matrix(0.7072 -0.707 0.707 0.7072 0.741 9.0613)" style="fill:#333333;" width="1" height="2.5"/>
<path style="fill:#333333;" d="M9.72,18.309l-6.364-6.364l8.485-8.485l6.364,6.364L9.72,18.309z M4.77,11.945l4.95,4.95l7.071-7.071
	l-4.95-4.95L4.77,11.945z"/>
<rect x="9.74" y="6.967" transform="matrix(0.3123 -0.95 0.95 0.3123 -3.8171 17.5888)" style="fill:#333333;" width="1" height="8.927"/>
<rect x="2" y="21" style="fill:#333333;" width="20" height="1"/>
</svg>






