<?xml version="1.0" encoding="iso-8859-1"?>
<svg version="1.1" id="&#x56FE;&#x5C42;_1" xmlns="http://www.w3.org/2000/svg" xmlns:xlink="http://www.w3.org/1999/xlink" x="0px"
	 y="0px" viewBox="0 0 24 24" style="enable-background:new 0 0 24 24;" xml:space="preserve">
<path style="fill:#333333;" d="M9.692,20.839l-8.381-9.076l8.39-8.612L10.559,3.5v4.596c3.085,0.137,5.759,1.331,7.951,3.553
	c2.295,2.325,3.637,5.258,3.987,8.718l-0.884,0.367c-2.36-2.882-4.458-4.534-6.234-4.911c-1.677-0.356-3.297-0.438-4.82-0.239V20.5
	L9.692,20.839z M2.689,11.782l6.87,7.44v-4.495l0.419-0.068c1.77-0.29,3.656-0.227,5.608,0.187c1.72,0.365,3.577,1.652,5.648,3.921
	c-0.539-2.494-1.691-4.646-3.436-6.414c-2.116-2.145-4.722-3.244-7.744-3.268L9.559,9.08V4.73L2.689,11.782z"/>
</svg>






