<?xml version="1.0" encoding="iso-8859-1"?>
<svg version="1.1" id="&#x56FE;&#x5C42;_1" xmlns="http://www.w3.org/2000/svg" xmlns:xlink="http://www.w3.org/1999/xlink" x="0px"
	 y="0px" viewBox="0 0 24 24" style="enable-background:new 0 0 24 24;" xml:space="preserve">
<path style="fill:#333333;" d="M5,15H3.087c-0.418,0-0.821-0.177-1.104-0.484s-0.426-0.724-0.391-1.141l0.833-10
	C2.489,2.604,3.146,2,3.92,2H5c0.827,0,1.5,0.673,1.5,1.5v10C6.5,14.327,5.827,15,5,15z M3.92,3C3.658,3,3.444,3.197,3.422,3.458
	l-0.833,10c-0.012,0.141,0.035,0.275,0.13,0.38C2.814,13.942,2.945,14,3.087,14H5c0.276,0,0.5-0.225,0.5-0.5v-10
	C5.5,3.224,5.276,3,5,3H3.92z"/>
<path style="fill:#333333;" d="M13.915,21.998c-0.07,0-0.138-0.006-0.202-0.02c-0.382-0.077-0.644-0.368-0.7-0.778
	c-0.01-0.072-0.013-0.145-0.015-0.217c-0.022-0.536-0.163-2.942-0.927-4.217c-0.572-0.953-1.903-1.682-2.646-2.031
	C8.863,14.47,8.5,13.911,8.5,13.312V3.5C8.5,2.673,9.173,2,10,2h8.493c0.668,0,1.262,0.449,1.444,1.092l2.685,9.509
	c0.129,0.455,0.039,0.934-0.247,1.312c-0.286,0.379-0.722,0.596-1.196,0.596h-4.757l0.247,0.824
	c0.221,0.736,0.435,1.453,0.481,2.215c0.062,1.016-0.097,1.847-0.472,2.472C16.104,20.979,14.806,21.998,13.915,21.998z M10,3
	C9.724,3,9.5,3.224,9.5,3.5v9.812c0,0.214,0.138,0.418,0.352,0.519c0.845,0.397,2.369,1.241,3.077,2.422
	c0.866,1.443,1.035,3.901,1.066,4.621c0.001,0.058,0.002,0.096,0.003,0.124c0.381-0.057,1.342-0.69,1.823-1.493
	c0.335-0.56,0.365-1.341,0.331-1.897c-0.04-0.646-0.229-1.277-0.428-1.945l-0.646-2.154h6.101c0.158,0,0.304-0.072,0.398-0.198
	c0.096-0.126,0.125-0.285,0.082-0.437l-2.685-9.509C18.914,3.15,18.716,3,18.493,3H10z"/>
</svg>






