<?xml version="1.0" encoding="iso-8859-1"?>
<svg version="1.1" id="&#x56FE;&#x5C42;_1" xmlns="http://www.w3.org/2000/svg" xmlns:xlink="http://www.w3.org/1999/xlink" x="0px"
	 y="0px" viewBox="0 0 24 24" style="enable-background:new 0 0 24 24;" xml:space="preserve">
<path style="fill:#333333;" d="M11.652,22h-0.12c-0.51,0-0.981-0.276-1.228-0.723l-1.329-2.392c-0.55-0.991-1.368-1.803-2.365-2.347
	l-3.329-1.816C2.8,14.461,2.5,13.956,2.5,13.406V3.5C2.5,2.673,3.173,2,4,2h12.993c0.668,0,1.262,0.449,1.444,1.092v0l2.685,9.5
	c0.129,0.455,0.039,0.934-0.247,1.312c-0.286,0.379-0.723,0.596-1.197,0.596h-5.74l0.204,1.14c0.241,1.044,0.318,2.115,0.229,3.185
	l-0.046,0.551c-0.059,0.708-0.367,1.376-0.871,1.879C12.972,21.735,12.332,22,11.652,22z M4,3C3.724,3,3.5,3.224,3.5,3.5v9.906
	c0,0.184,0.1,0.352,0.26,0.438l3.33,1.817c1.163,0.634,2.117,1.581,2.76,2.737l1.329,2.393C11.25,20.921,11.385,21,11.532,21h0.12
	c0.414,0,0.802-0.161,1.094-0.453c0.336-0.336,0.543-0.781,0.582-1.254l0.046-0.552c0.08-0.966,0.011-1.934-0.207-2.877l-0.25-1.082
	c-0.072-0.312,0.001-0.636,0.201-0.887c0.199-0.251,0.498-0.396,0.819-0.396h5.74c0.158,0,0.305-0.072,0.399-0.198
	c0.096-0.126,0.125-0.285,0.082-0.437l-2.685-9.501C17.414,3.15,17.216,3,16.993,3H4z"/>
</svg>






