<?xml version="1.0" encoding="iso-8859-1"?>
<svg version="1.1" id="&#x56FE;&#x5C42;_1" xmlns="http://www.w3.org/2000/svg" xmlns:xlink="http://www.w3.org/1999/xlink" x="0px"
	 y="0px" viewBox="0 0 24 24" style="enable-background:new 0 0 24 24;" xml:space="preserve">
<path style="fill:#333333;" d="M14.388,22.594c-0.194,0-0.396-0.047-0.598-0.14l-0.275-0.128c-2.962-1.369-7.02-3.244-8.998-7.721
	l0,0c-1.356-3.069-1.35-6.862,0.016-9.438C5.75,2.871,7.732,1.5,9.835,1.5h5.322c1.24,0,2.249,1.01,2.249,2.25
	c0,0.487-0.155,0.938-0.42,1.307c0.999,0.229,1.746,1.126,1.746,2.193c0,0.463-0.141,0.895-0.382,1.253
	c1.194,0.053,2.149,1.041,2.149,2.248c0,0.937-0.575,1.742-1.391,2.08c0.316,0.388,0.507,0.883,0.507,1.421
	c0,1.24-1.01,2.25-2.25,2.25h-2.682c0.297,0.536,0.675,1.278,0.926,1.985c0.43,1.219,0.359,3.076-0.43,3.794
	C14.954,22.488,14.68,22.594,14.388,22.594z M9.835,2.5c-0.647,0-2.877,0.226-4.419,3.137c-1.23,2.319-1.224,5.761,0.016,8.564l0,0
	c1.825,4.132,5.528,5.843,8.503,7.218l0.275,0.127c0.194,0.092,0.255,0.035,0.298-0.004c0.374-0.341,0.523-1.689,0.159-2.721
	c-0.418-1.182-1.269-2.539-1.277-2.553l0.423-0.767h3.554c0.689,0,1.25-0.561,1.25-1.25s-0.561-1.25-1.25-1.25v-1h0.884
	c0.689,0,1.25-0.561,1.25-1.25s-0.561-1.25-1.25-1.25h-1.768v-1c0.689,0,1.25-0.561,1.25-1.25S17.172,6,16.482,6h-1.326V5
	c0.689,0,1.25-0.561,1.25-1.25S15.846,2.5,15.157,2.5H9.835z"/>
</svg>






