<?xml version="1.0" encoding="iso-8859-1"?>
<svg version="1.1" id="&#x56FE;&#x5C42;_1" xmlns="http://www.w3.org/2000/svg" xmlns:xlink="http://www.w3.org/1999/xlink" x="0px"
	 y="0px" viewBox="0 0 24 24" style="enable-background:new 0 0 24 24;" xml:space="preserve">
<path style="fill:#333333;" d="M13.5,20.5H5c-0.827,0-1.5-0.673-1.5-1.5V7c0-0.827,0.673-1.5,1.5-1.5h12c0.827,0,1.5,0.673,1.5,1.5
	v6h-1V7c0-0.276-0.225-0.5-0.5-0.5H5C4.724,6.5,4.5,6.724,4.5,7v12c0,0.275,0.224,0.5,0.5,0.5h8.5V20.5z"/>
<rect x="7.5" y="6" style="fill:#333333;" width="1" height="14"/>
<rect x="13.5" y="6" style="fill:#333333;" width="1" height="8.5"/>
<path style="fill:#333333;" d="M14.5,6h-1V3c0-0.276-0.225-0.5-0.5-0.5H9C8.724,2.5,8.5,2.724,8.5,3v3h-1V3
	c0-0.827,0.673-1.5,1.5-1.5h4c0.827,0,1.5,0.673,1.5,1.5V6z"/>
<path style="fill:#333333;" d="M17.5,22.5c-2.757,0-5-2.243-5-5s2.243-5,5-5s5,2.243,5,5S20.257,22.5,17.5,22.5z M17.5,13.5
	c-2.206,0-4,1.794-4,4s1.794,4,4,4s4-1.794,4-4S19.706,13.5,17.5,13.5z"/>
<polygon style="fill:#333333;" points="19,18.5 16.5,18.5 16.5,16 17.5,16 17.5,17.5 19,17.5 "/>
<rect x="6" y="20" style="fill:#333333;" width="1" height="2"/>
</svg>






