<?xml version="1.0" encoding="iso-8859-1"?>
<svg version="1.1" id="&#x56FE;&#x5C42;_1" xmlns="http://www.w3.org/2000/svg" xmlns:xlink="http://www.w3.org/1999/xlink" x="0px"
	 y="0px" viewBox="0 0 24 24" style="enable-background:new 0 0 24 24;" xml:space="preserve">
<g>
	<defs>
		<rect id="SVGID_1_" width="24" height="24"/>
	</defs>
	<clipPath id="SVGID_00000038411997634996333840000004573007886008815768_">
		<use xlink:href="#SVGID_1_"  style="overflow:visible;"/>
	</clipPath>
	<g style="clip-path:url(#SVGID_00000038411997634996333840000004573007886008815768_);">
		<path style="fill:#333333;" d="M7.841,16.475c-1.572-0.524-3.255-1.752-4.001-2.918c-0.151-0.236-0.22-0.521-0.2-0.824
			l0.123-1.874c0.024-0.37,0.241-0.687,0.581-0.848c0.339-0.162,0.74-0.128,1.043,0.088C7.086,11.307,8.585,12,9.5,12
			c3.561,0,6.247-1.328,7.562-3.739l0.877,0.479C16.44,11.487,13.443,13,9.5,13c-1.453,0-3.353-1.135-4.691-2.087l-0.169,1.885
			c-0.004,0.062,0,0.15,0.044,0.22c0.625,0.978,2.119,2.056,3.475,2.508L7.841,16.475z"/>
		<path style="fill:#333333;" d="M10.366,22.263c-4.102,0-7.445-1.862-8.331-4.077L2.006,18.08l-0.564-3.461l0.742-0.514
			c2.299,1.317,5.049,1.817,7.74,1.4C15.234,14.688,17.5,11.098,17.5,3.5V2.91l4,0.667v4.369l0.422,1.917
			c0.517,2.3,0.012,4.782-1.421,6.988c-1.686,2.594-4.522,4.562-7.403,5.139l0,0C12.164,22.177,11.248,22.263,10.366,22.263z
			 M2.984,17.863c0.95,2.247,5.228,4.085,9.918,3.146l0,0c2.626-0.525,5.216-2.327,6.76-4.703c1.285-1.978,1.741-4.189,1.283-6.227
			L20.5,8V4.423l-2.004-0.334c-0.073,5.31-1.222,11.297-8.42,12.405c-2.572,0.397-5.192,0.021-7.487-1.053L2.984,17.863z"/>
	</g>
</g>
</svg>






