<?xml version="1.0" encoding="iso-8859-1"?>
<svg version="1.1" id="&#x56FE;&#x5C42;_1" xmlns="http://www.w3.org/2000/svg" xmlns:xlink="http://www.w3.org/1999/xlink" x="0px"
	 y="0px" viewBox="0 0 24 24" style="enable-background:new 0 0 24 24;" xml:space="preserve">
<path style="fill:#333333;" d="M21,15h-1v-1h1c0.275,0,0.5-0.225,0.5-0.5v-9C21.5,4.224,21.275,4,21,4H8C7.724,4,7.5,4.224,7.5,4.5
	v2h-1v-2C6.5,3.673,7.173,3,8,3h13c0.827,0,1.5,0.673,1.5,1.5v9C22.5,14.327,21.827,15,21,15z"/>
<path style="fill:#333333;" d="M16,21H3c-0.827,0-1.5-0.673-1.5-1.5v-9C1.5,9.673,2.173,9,3,9h13c0.827,0,1.5,0.673,1.5,1.5v9
	C17.5,20.327,16.827,21,16,21z M3,10c-0.276,0-0.5,0.224-0.5,0.5v9C2.5,19.775,2.724,20,3,20h13c0.275,0,0.5-0.225,0.5-0.5v-9
	c0-0.276-0.225-0.5-0.5-0.5H3z"/>
<rect x="2" y="13.5" style="fill:#333333;" width="15" height="1"/>
<rect x="16.5" y="11.5" style="fill:#333333;" width="1" height="6"/>
<rect x="1.5" y="11.5" style="fill:#333333;" width="1" height="6"/>
<rect x="5.5" y="16.5" style="fill:#333333;" width="4" height="1"/>
<rect x="12.5" y="16.5" style="fill:#333333;" width="1" height="1"/>
</svg>






