<?xml version="1.0" encoding="iso-8859-1"?>
<svg version="1.1" id="&#x56FE;&#x5C42;_1" xmlns="http://www.w3.org/2000/svg" xmlns:xlink="http://www.w3.org/1999/xlink" x="0px"
	 y="0px" viewBox="0 0 24 24" style="enable-background:new 0 0 24 24;" xml:space="preserve">
<path style="fill:#333333;" d="M21,19.5H3c-0.827,0-1.5-0.673-1.5-1.5V6c0-0.827,0.673-1.5,1.5-1.5h18c0.827,0,1.5,0.673,1.5,1.5v12
	C22.5,18.827,21.827,19.5,21,19.5z M3,5.5C2.724,5.5,2.5,5.724,2.5,6v12c0,0.275,0.224,0.5,0.5,0.5h18c0.275,0,0.5-0.225,0.5-0.5V6
	c0-0.276-0.225-0.5-0.5-0.5H3z"/>
<rect x="2" y="9.5" style="fill:#333333;" width="20" height="1"/>
<rect x="1.5" y="8.5" style="fill:#333333;" width="1" height="3"/>
<rect x="21.5" y="8.5" style="fill:#333333;" width="1" height="3"/>
<rect x="14.5" y="14" style="fill:#333333;" width="4" height="1"/>
</svg>






