<?xml version="1.0" encoding="iso-8859-1"?>
<svg version="1.1" id="&#x56FE;&#x5C42;_1" xmlns="http://www.w3.org/2000/svg" xmlns:xlink="http://www.w3.org/1999/xlink" x="0px"
	 y="0px" viewBox="0 0 24 24" style="enable-background:new 0 0 24 24;" xml:space="preserve">
<path style="fill:#333333;" d="M22,12.5h-7L14.5,12c0-1.378-1.121-2.5-2.5-2.5c-1.378,0-2.5,1.122-2.5,2.5L9,12.5H2L1.5,12
	C1.5,6.21,6.21,1.5,12,1.5c5.79,0,10.5,4.71,10.5,10.5L22,12.5z M15.465,11.5h6.022c-0.262-5.007-4.417-9-9.487-9
	s-9.226,3.993-9.487,9h6.022c0.243-1.694,1.704-3,3.464-3C13.76,8.5,15.221,9.806,15.465,11.5z"/>
<path style="fill:#333333;" d="M12,22.5C6.21,22.5,1.5,17.79,1.5,12L2,11.5h7v1H2.513c0.261,5.007,4.417,9,9.487,9
	s9.226-3.993,9.487-9H15v-1h7l0.5,0.5C22.5,17.79,17.79,22.5,12,22.5z"/>
<path style="fill:#333333;" d="M12,15.5c-1.93,0-3.5-1.57-3.5-3.5s1.57-3.5,3.5-3.5s3.5,1.57,3.5,3.5S13.93,15.5,12,15.5z M12,9.5
	c-1.378,0-2.5,1.122-2.5,2.5c0,1.379,1.122,2.5,2.5,2.5c1.379,0,2.5-1.121,2.5-2.5C14.5,10.622,13.379,9.5,12,9.5z"/>
</svg>






