<?xml version="1.0" encoding="iso-8859-1"?>
<svg version="1.1" id="&#x56FE;&#x5C42;_1" xmlns="http://www.w3.org/2000/svg" xmlns:xlink="http://www.w3.org/1999/xlink" x="0px"
	 y="0px" viewBox="0 0 24 24" style="enable-background:new 0 0 24 24;" xml:space="preserve">
<path style="fill:#333333;" d="M8,6.5C6.622,6.5,5.5,5.378,5.5,4S6.622,1.5,8,1.5s2.5,1.122,2.5,2.5S9.378,6.5,8,6.5z M8,2.5
	C7.173,2.5,6.5,3.173,6.5,4S7.173,5.5,8,5.5S9.5,4.827,9.5,4S8.827,2.5,8,2.5z"/>
<path style="fill:#333333;" d="M8,15.5c-1.378,0-2.5-1.121-2.5-2.5c0-1.378,1.122-2.5,2.5-2.5s2.5,1.122,2.5,2.5
	C10.5,14.379,9.378,15.5,8,15.5z M8,11.5c-0.827,0-1.5,0.673-1.5,1.5s0.673,1.5,1.5,1.5s1.5-0.673,1.5-1.5S8.827,11.5,8,11.5z"/>
<rect x="7.5" y="15.5" style="fill:#333333;" width="1" height="6.5"/>
<path style="fill:#333333;" d="M16,6.5c-1.379,0-2.5-1.122-2.5-2.5s1.121-2.5,2.5-2.5s2.5,1.122,2.5,2.5S17.379,6.5,16,6.5z M16,2.5
	c-0.827,0-1.5,0.673-1.5,1.5s0.673,1.5,1.5,1.5s1.5-0.673,1.5-1.5S16.827,2.5,16,2.5z"/>
<path style="fill:#333333;" d="M16,15.5c-1.379,0-2.5-1.121-2.5-2.5c0-1.378,1.121-2.5,2.5-2.5s2.5,1.122,2.5,2.5
	C18.5,14.379,17.379,15.5,16,15.5z M16,11.5c-0.827,0-1.5,0.673-1.5,1.5s0.673,1.5,1.5,1.5s1.5-0.673,1.5-1.5S16.827,11.5,16,11.5z"
	/>
<rect x="15.5" y="15.5" style="fill:#333333;" width="1" height="6.5"/>
<rect x="6.5" y="8" style="fill:#333333;" width="3" height="1"/>
<rect x="14.5" y="8" style="fill:#333333;" width="3" height="1"/>
<rect x="6.5" y="17.5" style="fill:#333333;" width="3" height="1"/>
<rect x="14.5" y="17.5" style="fill:#333333;" width="3" height="1"/>
<rect x="7.5" y="7" style="fill:#333333;" width="1" height="3"/>
<rect x="15.5" y="7" style="fill:#333333;" width="1" height="3"/>
</svg>






