<?xml version="1.0" encoding="iso-8859-1"?>
<svg version="1.1" id="&#x56FE;&#x5C42;_1" xmlns="http://www.w3.org/2000/svg" xmlns:xlink="http://www.w3.org/1999/xlink" x="0px"
	 y="0px" viewBox="0 0 24 24" style="enable-background:new 0 0 24 24;" xml:space="preserve">
<path style="fill:#333333;" d="M12,22.5c-4.943,0-5-4.455-5-4.5v-5.84l-2.5-3.5V3.5h15v5.16l-2.5,3.5V18
	C17,18.045,16.942,22.5,12,22.5z M5.5,8.34l2.5,3.5V18c0.001,0.142,0.069,3.5,4,3.5s3.999-3.358,4-3.502V11.84l2.5-3.5V4.5h-13V8.34
	z"/>
<rect x="7" y="2" style="fill:#333333;" width="1" height="3"/>
<rect x="10" y="2" style="fill:#333333;" width="1" height="3"/>
<rect x="13" y="2" style="fill:#333333;" width="1" height="3"/>
<path style="fill:#333333;" d="M12,19.5c-1.103,0-2-0.897-2-2v-2c0-1.103,0.897-2,2-2c1.103,0,2,0.897,2,2v2
	C14,18.603,13.103,19.5,12,19.5z M12,14.5c-0.551,0-1,0.448-1,1v2c0,0.552,0.449,1,1,1c0.552,0,1-0.448,1-1v-2
	C13,14.948,12.552,14.5,12,14.5z"/>
<rect x="5" y="8" style="fill:#333333;" width="14" height="1"/>
<rect x="16" y="2" style="fill:#333333;" width="1" height="3"/>
</svg>






