<?xml version="1.0" encoding="iso-8859-1"?>
<svg version="1.1" id="&#x56FE;&#x5C42;_1" xmlns="http://www.w3.org/2000/svg" xmlns:xlink="http://www.w3.org/1999/xlink" x="0px"
	 y="0px" viewBox="0 0 24 24" style="enable-background:new 0 0 24 24;" xml:space="preserve">
<path style="fill:#333333;" d="M22.5,18.5h-17V15c0-4.687,3.813-8.5,8.5-8.5c4.687,0,8.5,3.813,8.5,8.5V18.5z M6.5,17.5h15V15
	c0-4.136-3.364-7.5-7.5-7.5S6.5,10.864,6.5,15V17.5z"/>
<path style="fill:#333333;" d="M10.519,18.138c-0.446-1.562-0.499-7.976,1.408-10.503C12.494,6.882,13.192,6.5,14,6.5
	c0.72,0,1.349,0.299,1.869,0.889c2.133,2.415,1.818,9.138,1.627,10.673l-0.992-0.125c0.268-2.145,0.25-8.035-1.384-9.887
	c-0.698-0.792-1.692-0.747-2.396,0.187c-1.662,2.204-1.631,8.27-1.244,9.625L10.519,18.138z"/>
<path style="fill:#333333;" d="M15.5,21.5h-12c-1.103,0-2-0.897-2-2s0.897-2,2-2h12c1.103,0,2,0.897,2,2S16.603,21.5,15.5,21.5z
	 M3.5,18.5c-0.551,0-1,0.448-1,1s0.449,1,1,1h12c0.552,0,1-0.448,1-1s-0.448-1-1-1H3.5z"/>
<path style="fill:#333333;" d="M14,7.5c-1.379,0-2.5-1.122-2.5-2.5s1.121-2.5,2.5-2.5s2.5,1.122,2.5,2.5S15.379,7.5,14,7.5z M14,3.5
	c-0.827,0-1.5,0.673-1.5,1.5s0.673,1.5,1.5,1.5s1.5-0.673,1.5-1.5S14.827,3.5,14,3.5z"/>
</svg>






