<?xml version="1.0" encoding="iso-8859-1"?>
<svg version="1.1" id="&#x56FE;&#x5C42;_1" xmlns="http://www.w3.org/2000/svg" xmlns:xlink="http://www.w3.org/1999/xlink" x="0px"
	 y="0px" viewBox="0 0 24 24" style="enable-background:new 0 0 24 24;" xml:space="preserve">
<path style="fill:#333333;" d="M20,22c-1.103,0-2-0.897-2-2s0.897-2,2-2s2,0.897,2,2S21.103,22,20,22z M20,19c-0.552,0-1,0.448-1,1
	s0.448,1,1,1s1-0.448,1-1S20.552,19,20,19z"/>
<path style="fill:#333333;" d="M18.458,19.156C10.541,13.466,4.467,8.691,4.406,8.644c-0.103-0.09-1.984-1.781-2.038-3.595
	c-0.021-0.725,0.24-1.365,0.778-1.902S4.312,2.35,5.048,2.369c1.814,0.054,3.505,1.935,3.577,2.015l0.017,0.021
	c0.05,0.062,5.071,6.384,10.516,14.057L18.458,19.156z M4.968,3.368c-0.422,0-0.788,0.159-1.114,0.486
	c-0.339,0.339-0.498,0.72-0.485,1.164c0.04,1.382,1.663,2.846,1.68,2.86c0.033,0.025,4.855,3.815,11.502,8.663
	C11.971,10.217,8.093,5.321,7.87,5.039c-0.12-0.13-1.524-1.633-2.853-1.671C5,3.368,4.984,3.368,4.968,3.368z"/>
</svg>






