<?xml version="1.0" encoding="iso-8859-1"?>
<svg version="1.1" id="&#x56FE;&#x5C42;_1" xmlns="http://www.w3.org/2000/svg" xmlns:xlink="http://www.w3.org/1999/xlink" x="0px"
	 y="0px" viewBox="0 0 24 24" style="enable-background:new 0 0 24 24;" xml:space="preserve">
<path style="fill:none;" d="M9,12c0-3.312,2.688-6,6-6s6,2.688,6,6"/>
<path style="fill:#333333;" d="M21.5,12h-1c0-3.033-2.468-5.5-5.5-5.5c-3.033,0-5.5,2.467-5.5,5.5h-1c0-3.584,2.916-6.5,6.5-6.5
	S21.5,8.416,21.5,12z"/>
<path style="fill:#333333;" d="M6,18.5H2L1.5,18V2L2,1.5h4L6.5,2v16L6,18.5z M2.5,17.5h3v-15h-3V17.5z"/>
<rect x="6" y="11.5" style="fill:#333333;" width="16" height="1"/>
<path style="fill:#333333;" d="M10.469,22.175l-0.938-0.35c0.934-2.506,0.936-5.062,0.004-7.39l-0.993-2.232l0.914-0.406l1,2.25
	C11.489,16.627,11.491,19.432,10.469,22.175z"/>
<path style="fill:#333333;" d="M19.032,22.176c-1.025-2.737-1.024-5.542,0.004-8.111l1.007-2.268l0.914,0.406l-1,2.25
	c-0.927,2.316-0.925,4.872,0.011,7.371L19.032,22.176z"/>
<rect x="10.61" y="15.5" style="fill:#333333;" width="8.28" height="1"/>
<rect x="10.845" y="19.5" style="fill:#333333;" width="7.815" height="1"/>
<rect x="14.25" y="12" style="fill:#333333;" width="1" height="8"/>
</svg>






