<?xml version="1.0" encoding="iso-8859-1"?>
<svg version="1.1" id="&#x56FE;&#x5C42;_1" xmlns="http://www.w3.org/2000/svg" xmlns:xlink="http://www.w3.org/1999/xlink" x="0px"
	 y="0px" viewBox="0 0 24 24" style="enable-background:new 0 0 24 24;" xml:space="preserve">
<path style="fill:#333333;" d="M21,17H3c-0.827,0-1.5-0.673-1.5-1.5v-12C1.5,2.673,2.173,2,3,2h18c0.827,0,1.5,0.673,1.5,1.5v12
	C22.5,16.327,21.827,17,21,17z M3,3C2.724,3,2.5,3.224,2.5,3.5v12C2.5,15.775,2.724,16,3,16h18c0.275,0,0.5-0.225,0.5-0.5v-12
	C21.5,3.224,21.275,3,21,3H3z"/>
<polygon style="fill:#333333;" points="16,11 15,11 15,8 9,8 9,11 8,11 8,7 16,7 "/>
<rect x="9" y="19" style="fill:#333333;" width="6" height="1"/>
<rect x="8.5" y="16" style="fill:#333333;" width="7" height="1"/>
<polygon style="fill:#333333;" points="15.015,21.621 14.489,19.521 15.507,13.418 16.493,13.582 15.511,19.479 15.985,21.379 "/>
<polygon style="fill:#333333;" points="8.985,21.621 8.015,21.379 8.49,19.479 7.507,13.582 8.493,13.418 9.51,19.521 "/>
<rect x="11.5" y="13.5" style="fill:#333333;" width="1" height="8"/>
<rect x="7" y="13" style="fill:#333333;" width="10" height="1"/>
</svg>






