<?xml version="1.0" encoding="iso-8859-1"?>
<svg version="1.1" id="&#x56FE;&#x5C42;_1" xmlns="http://www.w3.org/2000/svg" xmlns:xlink="http://www.w3.org/1999/xlink" x="0px"
	 y="0px" viewBox="0 0 24 24" style="enable-background:new 0 0 24 24;" xml:space="preserve">
<path style="fill:#333333;" d="M20,22.5H4c-0.827,0-1.5-0.673-1.5-1.5v-9.52c0-0.444,0.196-0.869,0.539-1.167
	c1.317-1.142,2.247-2.253,2.487-2.972c0.236-0.71,0.403-2.298,0.458-4.356C6.006,2.167,6.687,1.5,7.5,1.5h2V2
	c0,1.378,1.122,2.5,2.5,2.5c1.379,0,2.5-1.122,2.5-2.5V1.5h2c0.813,0,1.494,0.667,1.516,1.486c0.055,2.058,0.222,3.646,0.459,4.356
	c0.239,0.718,1.169,1.829,2.486,2.972c0.343,0.297,0.539,0.723,0.539,1.167V21C21.5,21.827,20.827,22.5,20,22.5z M7.5,2.5
	c-0.277,0-0.509,0.23-0.516,0.513c-0.041,1.545-0.163,3.605-0.51,4.646c-0.408,1.226-1.917,2.663-2.78,3.411
	C3.571,11.176,3.5,11.326,3.5,11.48V21c0,0.275,0.224,0.5,0.5,0.5h16c0.275,0,0.5-0.225,0.5-0.5v-9.52
	c0-0.154-0.071-0.304-0.195-0.412c-0.862-0.749-2.371-2.188-2.779-3.411c-0.347-1.04-0.469-3.101-0.51-4.646
	C17.008,2.73,16.777,2.5,16.5,2.5h-1.035c-0.244,1.694-1.705,3-3.465,3c-1.76,0-3.221-1.306-3.464-3H7.5z"/>
<path style="fill:#333333;" d="M17,18.5h-4v-7h4V18.5z M14,17.5h2v-5h-2V17.5z"/>
<polygon style="fill:#333333;" points="11,18.5 7.5,18.5 7.5,17.5 10,17.5 10,12.5 7.5,12.5 7.5,11.5 11,11.5 "/>
<rect x="7.5" y="14.5" style="fill:#333333;" width="3" height="1"/>
</svg>






