<?xml version="1.0" encoding="iso-8859-1"?>
<svg version="1.1" id="&#x56FE;&#x5C42;_1" xmlns="http://www.w3.org/2000/svg" xmlns:xlink="http://www.w3.org/1999/xlink" x="0px"
	 y="0px" viewBox="0 0 24 24" style="enable-background:new 0 0 24 24;" xml:space="preserve">
<path style="fill:#333333;" d="M16,22.5H8c-0.827,0-1.5-0.673-1.5-1.5V5c0-0.827,0.673-1.5,1.5-1.5h8c0.827,0,1.5,0.673,1.5,1.5v16
	C17.5,21.827,16.827,22.5,16,22.5z M8,4.5C7.724,4.5,7.5,4.724,7.5,5v16c0,0.275,0.224,0.5,0.5,0.5h8c0.275,0,0.5-0.225,0.5-0.5V5
	c0-0.276-0.225-0.5-0.5-0.5H8z"/>
<path style="fill:#333333;" d="M10,3V2c0-0.552,0.448-1,1-1h2c0.552,0,1,0.448,1,1v1H10z"/>
<polygon style="fill:#333333;" points="11.947,18.224 11.053,17.776 13.066,13.749 10.121,14.485 9.553,13.776 12.053,8.776 
	12.947,9.224 10.934,13.251 13.879,12.515 14.447,13.224 "/>
</svg>






