<?xml version="1.0" encoding="iso-8859-1"?>
<svg version="1.1" id="&#x56FE;&#x5C42;_1" xmlns="http://www.w3.org/2000/svg" xmlns:xlink="http://www.w3.org/1999/xlink" x="0px"
	 y="0px" viewBox="0 0 24 24" style="enable-background:new 0 0 24 24;" xml:space="preserve">
<path style="fill:#333333;" d="M16,22.5H8c-0.827,0-1.5-0.673-1.5-1.5V5c0-0.827,0.673-1.5,1.5-1.5h8c0.827,0,1.5,0.673,1.5,1.5v16
	C17.5,21.827,16.827,22.5,16,22.5z M8,4.5C7.724,4.5,7.5,4.724,7.5,5v16c0,0.275,0.224,0.5,0.5,0.5h8c0.275,0,0.5-0.225,0.5-0.5V5
	c0-0.276-0.225-0.5-0.5-0.5H8z"/>
<path style="fill:#333333;" d="M10,3V2c0-0.552,0.448-1,1-1h2c0.552,0,1,0.448,1,1v1H10z"/>
<path style="fill:#333333;" d="M12.5,15h-1v-2H12c0.827,0,1.5-0.785,1.5-1.75S12.827,9.5,12,9.5s-1.5,0.785-1.5,1.75h-1
	c0-1.517,1.122-2.75,2.5-2.75c1.379,0,2.5,1.233,2.5,2.75c0,1.328-0.86,2.439-2,2.694V15z"/>
<g>
	<path style="fill:#333333;" d="M13,17.75c0,0.552-0.448,1-1,1s-1-0.448-1-1s0.448-1,1-1S13,17.198,13,17.75z"/>
	<path style="fill:#333333;" d="M12,19c-0.689,0-1.25-0.561-1.25-1.25S11.311,16.5,12,16.5s1.25,0.561,1.25,1.25S12.689,19,12,19z
		 M12,17c-0.414,0-0.75,0.337-0.75,0.75S11.586,18.5,12,18.5c0.413,0,0.75-0.337,0.75-0.75S12.413,17,12,17z"/>
</g>
</svg>






