<?xml version="1.0" encoding="iso-8859-1"?>
<svg version="1.1" id="&#x56FE;&#x5C42;_1" xmlns="http://www.w3.org/2000/svg" xmlns:xlink="http://www.w3.org/1999/xlink" x="0px"
	 y="0px" viewBox="0 0 24 24" style="enable-background:new 0 0 24 24;" xml:space="preserve">
<path style="fill:#333333;" d="M19,17.5H3c-0.827,0-1.5-0.673-1.5-1.5V8c0-0.827,0.673-1.5,1.5-1.5h16c0.827,0,1.5,0.673,1.5,1.5v8
	C20.5,16.827,19.827,17.5,19,17.5z M3,7.5C2.724,7.5,2.5,7.724,2.5,8v8c0,0.275,0.224,0.5,0.5,0.5h16c0.275,0,0.5-0.225,0.5-0.5V8
	c0-0.276-0.225-0.5-0.5-0.5H3z"/>
<path style="fill:#333333;" d="M21,10h1c0.552,0,1,0.448,1,1v2c0,0.552-0.448,1-1,1h-1V10z"/>
</svg>






