<?xml version="1.0" encoding="iso-8859-1"?>
<svg version="1.1" id="&#x56FE;&#x5C42;_1" xmlns="http://www.w3.org/2000/svg" xmlns:xlink="http://www.w3.org/1999/xlink" x="0px"
	 y="0px" viewBox="0 0 24 24" style="enable-background:new 0 0 24 24;" xml:space="preserve">
<path style="fill:#333333;" d="M6.5,17.5H3c-0.827,0-1.5-0.673-1.5-1.5V8c0-0.827,0.673-1.5,1.5-1.5h3.5v1H3
	C2.724,7.5,2.5,7.724,2.5,8v8c0,0.275,0.224,0.5,0.5,0.5h3.5V17.5z"/>
<path style="fill:#333333;" d="M19,17.5h-3.5v-1H19c0.275,0,0.5-0.225,0.5-0.5V8c0-0.276-0.225-0.5-0.5-0.5h-3.5v-1H19
	c0.827,0,1.5,0.673,1.5,1.5v8C20.5,16.827,19.827,17.5,19,17.5z"/>
<polygon style="fill:#333333;" points="11.447,17.224 10.553,16.776 12.692,12.501 7.691,12.501 10.554,6.776 11.448,7.224 
	9.309,11.501 14.312,11.501 "/>
<path style="fill:#333333;" d="M21,10h1c0.552,0,1,0.448,1,1v2c0,0.552-0.448,1-1,1h-1V10z"/>
</svg>






