<?xml version="1.0" encoding="iso-8859-1"?>
<svg version="1.1" id="&#x56FE;&#x5C42;_1" xmlns="http://www.w3.org/2000/svg" xmlns:xlink="http://www.w3.org/1999/xlink" x="0px"
	 y="0px" viewBox="0 0 24 24" style="enable-background:new 0 0 24 24;" xml:space="preserve">
<path style="fill:#333333;" d="M22.013,15.2L1.729,9.765l0.129-0.483c1.153-4.305,4.913-7.421,9.354-7.755
	c1.177-0.088,2.356,0.023,3.504,0.331c1,0.268,1.948,0.677,2.82,1.217c3.9,2.418,5.794,7.206,4.605,11.643L22.013,15.2z M7.3,10.223
	l13.993,3.749c0.817-3.873-0.896-7.947-4.283-10.047c-0.788-0.488-1.646-0.859-2.551-1.101c-1.041-0.278-2.108-0.38-3.171-0.3
	c-3.852,0.29-7.137,2.892-8.322,6.538L7.3,10.223z"/>
<path style="fill:#333333;" d="M8.629,11.046l-0.987-0.162C7.66,10.778,8.087,8.258,9.754,6.03c1.647-2.202,4.443-4.031,4.561-4.108
	L14.86,2.76c-0.027,0.018-2.767,1.812-4.305,3.868C9.04,8.655,8.633,11.022,8.629,11.046z"/>
<path style="fill:#333333;" d="M16.332,13.212l-0.936-0.353c0.008-0.022,0.84-2.276,0.541-4.789
	c-0.305-2.551-1.779-5.474-1.794-5.503l0.891-0.453c0.064,0.125,1.569,3.107,1.896,5.838C17.259,10.716,16.37,13.111,16.332,13.212z
	"/>
<rect x="11.5" y="2" transform="matrix(0.2588 -0.9659 0.9659 0.2588 -2.6969 20.4847)" style="fill:#333333;" width="1" height="20"/>
<rect x="2" y="21.5" style="fill:#333333;" width="20" height="1"/>
<rect x="5.439" y="16.5" transform="matrix(0.2657 -0.9641 0.9641 0.2657 -8.5868 22.7267)" style="fill:#333333;" width="10.371" height="1"/>
<path style="fill:#333333;" d="M17.009,3.925c-0.787-0.488-1.646-0.858-2.55-1.101c-1.041-0.278-2.108-0.38-3.171-0.3l-0.075-0.997
	c1.179-0.088,2.356,0.023,3.504,0.331c1,0.268,1.948,0.677,2.819,1.217L17.009,3.925z"/>
</svg>






