<?xml version="1.0" encoding="iso-8859-1"?>
<svg version="1.1" id="&#x56FE;&#x5C42;_1" xmlns="http://www.w3.org/2000/svg" xmlns:xlink="http://www.w3.org/1999/xlink" x="0px"
	 y="0px" viewBox="0 0 24 24" style="enable-background:new 0 0 24 24;" xml:space="preserve">
<path style="fill:#333333;" d="M21.5,22h-1V11c0-4.687-3.813-8.5-8.5-8.5c-4.687,0-8.5,3.813-8.5,8.5v11h-1V11
	c0-5.238,4.262-9.5,9.5-9.5s9.5,4.262,9.5,9.5V22z"/>
<path style="fill:#333333;" d="M12,22c-3.084,0-5.5-4.612-5.5-10.5V11h11v0.5C17.5,17.388,15.084,22,12,22z M7.506,12
	C7.634,16.928,9.64,21,12,21c2.36,0,4.365-4.072,4.493-9H7.506z"/>
</svg>






