<?xml version="1.0" encoding="iso-8859-1"?>
<svg version="1.1" id="&#x56FE;&#x5C42;_1" xmlns="http://www.w3.org/2000/svg" xmlns:xlink="http://www.w3.org/1999/xlink" x="0px"
	 y="0px" viewBox="0 0 24 24" style="enable-background:new 0 0 24 24;" xml:space="preserve">
<rect x="8.5" y="16.5" style="fill:#333333;" width="7" height="1"/>
<rect x="8" y="13" style="fill:#333333;" width="8" height="1"/>
<path style="fill:#333333;" d="M17.5,10.5h-11C5.122,10.5,4,9.378,4,8V4c0-1.378,1.122-2.5,2.5-2.5h11C18.879,1.5,20,2.622,20,4v4
	C20,9.378,18.879,10.5,17.5,10.5z M6.5,2.5C5.673,2.5,5,3.173,5,4v4c0,0.827,0.673,1.5,1.5,1.5h11C18.327,9.5,19,8.827,19,8V4
	c0-0.827-0.673-1.5-1.5-1.5H6.5z"/>
<polygon style="fill:#333333;" points="14.906,22.5 9.093,22.5 6.511,10.102 7.489,9.898 9.907,21.5 14.094,21.5 16.511,9.898 
	17.489,10.102 "/>
<rect x="8.5" y="5.5" style="fill:#333333;" width="6.5" height="1"/>
</svg>






