<?xml version="1.0" encoding="iso-8859-1"?>
<svg version="1.1" id="&#x56FE;&#x5C42;_1" xmlns="http://www.w3.org/2000/svg" xmlns:xlink="http://www.w3.org/1999/xlink" x="0px"
	 y="0px" viewBox="0 0 24 24" style="enable-background:new 0 0 24 24;" xml:space="preserve">
<path style="fill:#333333;" d="M22.5,21.5h-21v-13h21V21.5z M2.5,20.5h19v-11h-19V20.5z"/>
<rect x="11" y="11.5" style="fill:#333333;" width="2" height="1"/>
<rect x="2" y="14.5" style="fill:#333333;" width="20" height="1"/>
<rect x="11" y="17.5" style="fill:#333333;" width="2" height="1"/>
<rect x="3.5" y="21" style="fill:#333333;" width="1" height="2"/>
<rect x="19.5" y="21" style="fill:#333333;" width="1" height="2"/>
<rect x="11.5" y="5" style="fill:#333333;" width="1" height="4"/>
<path style="fill:#333333;" d="M16.5,5.5h-9V5c0-2.481,2.019-4.5,4.5-4.5s4.5,2.019,4.5,4.5V5.5z M8.536,4.5h6.929
	c-0.244-1.694-1.705-3-3.465-3C10.24,1.5,8.779,2.806,8.536,4.5z"/>
<rect x="21.5" y="13" style="fill:#333333;" width="1" height="4"/>
<rect x="1.5" y="13" style="fill:#333333;" width="1" height="4"/>
</svg>






