<?xml version="1.0" encoding="iso-8859-1"?>
<svg version="1.1" id="&#x56FE;&#x5C42;_1" xmlns="http://www.w3.org/2000/svg" xmlns:xlink="http://www.w3.org/1999/xlink" x="0px"
	 y="0px" viewBox="0 0 24 24" style="enable-background:new 0 0 24 24;" xml:space="preserve">
<path style="fill:#333333;" d="M12,22.5c-2.298,0-3.5-5.308-3.5-8.152c0-2.122,1.57-3.848,3.5-3.848s3.5,1.726,3.5,3.848
	C15.5,17.192,14.298,22.5,12,22.5z M12,11.5c-1.378,0-2.5,1.277-2.5,2.848c0,3.209,1.378,7.152,2.5,7.152
	c1.121,0,2.5-3.943,2.5-7.152C14.5,12.777,13.379,11.5,12,11.5z"/>
<path style="fill:#333333;" d="M5.739,14C4.241,14,2.5,12.689,2.5,11s1.741-3,3.239-3C7.112,8,10.5,9.196,10.5,11
	C10.5,12.805,7.112,14,5.739,14z M5.739,9C4.731,9,3.5,9.923,3.5,11s1.231,2,2.239,2C6.982,13,9.5,11.9,9.5,11S6.982,9,5.739,9z"/>
<path style="fill:#333333;" d="M18.261,14c-1.373,0-4.761-1.195-4.761-3c0-1.804,3.388-3,4.761-3c1.498,0,3.239,1.311,3.239,3
	S19.759,14,18.261,14z M18.261,9c-1.243,0-3.761,1.1-3.761,2s2.518,2,3.761,2c1.008,0,2.239-0.923,2.239-2S19.269,9,18.261,9z"/>
<path style="fill:#333333;" d="M12,11.5c-1.654,0-3-1.346-3-3V7c0-1.654,1.346-3,3-3s3,1.346,3,3v1.5C15,10.154,13.654,11.5,12,11.5
	z M12,5c-1.103,0-2,0.897-2,2v1.5c0,1.103,0.897,2,2,2c1.103,0,2-0.897,2-2V7C14,5.897,13.103,5,12,5z"/>
<path style="fill:#333333;" d="M14.5,5h-1c0-1.93,1.57-3.5,3.5-3.5v1C15.621,2.5,14.5,3.622,14.5,5z"/>
<path style="fill:#333333;" d="M11,5h-1c0-1.378-1.346-2.5-3-2.5v-1C9.206,1.5,11,3.07,11,5z"/>
</svg>






