<?xml version="1.0" encoding="iso-8859-1"?>
<svg version="1.1" id="&#x56FE;&#x5C42;_1" xmlns="http://www.w3.org/2000/svg" xmlns:xlink="http://www.w3.org/1999/xlink" x="0px"
	 y="0px" viewBox="0 0 24 24" style="enable-background:new 0 0 24 24;" xml:space="preserve">
<path style="fill:#333333;" d="M14,22.5c-5.656,0-6.5-2.431-6.5-3.879V7.5h13v11.121C20.5,20.069,19.655,22.5,14,22.5z M8.5,8.5
	v10.121c0,1.856,1.953,2.879,5.5,2.879s5.5-1.022,5.5-2.879V8.5H8.5z"/>
<rect x="12" y="11.5" style="fill:#333333;" width="1" height="7"/>
<rect x="15" y="11.5" style="fill:#333333;" width="1" height="7"/>
<path style="fill:#333333;" d="M7.542,8.203C7.495,8.097,6.41,5.591,8.179,4.116c1.177-0.981,2.356-0.905,3.017-0.745
	C11.576,2.542,12.452,1.5,14,1.5c1.554,0,2.431,1.051,2.808,1.882c0.702-0.167,2.004-0.276,3.046,0.765
	c1.452,1.452,0.654,3.908,0.62,4.012l-0.949-0.315c0.007-0.02,0.635-1.976-0.378-2.989c-0.999-0.999-2.436-0.4-2.45-0.394
	l-0.54,0.231l-0.143-0.57C15.997,4.057,15.574,2.5,14,2.5c-1.576,0-1.999,1.557-2.016,1.624l-0.155,0.597l-0.553-0.273
	c-0.047-0.022-1.24-0.578-2.456,0.437C7.632,5.874,8.448,7.779,8.457,7.798L7.542,8.203z"/>
<path style="fill:#333333;" d="M6.746,17.584c-1.202,0-2.824-0.232-3.221-1.426C3.014,14.623,2.523,9.756,2.502,9.55L2.448,9H8v1
	H3.556c0.145,1.331,0.538,4.699,0.918,5.842c0.276,0.832,2.447,0.805,3.456,0.663l0.141,0.99C7.93,17.515,7.4,17.584,6.746,17.584z"
	/>
</svg>






