<?xml version="1.0" encoding="iso-8859-1"?>
<svg version="1.1" id="&#x56FE;&#x5C42;_1" xmlns="http://www.w3.org/2000/svg" xmlns:xlink="http://www.w3.org/1999/xlink" x="0px"
	 y="0px" viewBox="0 0 24 24" style="enable-background:new 0 0 24 24;" xml:space="preserve">
<path style="fill:#333333;" d="M18,22.5H6v-12C6,9.673,6.673,9,7.5,9h1.25v1H7.5C7.224,10,7,10.224,7,10.5v11h10v-11
	c0-0.276-0.225-0.5-0.5-0.5h-3.75V9h3.75c0.827,0,1.5,0.673,1.5,1.5V22.5z"/>
<path style="fill:#333333;" d="M10.75,16.5C9.785,16.5,9,15.715,9,14.75V10H7.25C5.458,10,4,8.542,4,6.75S5.458,3.5,7.25,3.5h0.897
	c0.374-0.846,1.383-2,3.353-2c1.969,0,2.979,1.154,3.353,2h1.897C18.542,3.5,20,4.958,20,6.75S18.542,10,16.75,10H12.5v4.75
	C12.5,15.715,11.715,16.5,10.75,16.5z M7.25,4.5C6.009,4.5,5,5.509,5,6.75S6.009,9,7.25,9H10v5.75c0,0.413,0.336,0.75,0.75,0.75
	s0.75-0.337,0.75-0.75V9h5.25C17.99,9,19,7.991,19,6.75S17.99,4.5,16.75,4.5h-2.641l-0.095-0.379C13.998,4.059,13.56,2.5,11.5,2.5
	c-2.085,0-2.511,1.605-2.515,1.621L8.891,4.5H7.25z"/>
<path style="fill:#333333;" d="M19,16.5h-1.5v-1H19c0.827,0,1.5-0.673,1.5-1.5v-2.5c0-0.276-0.225-0.5-0.5-0.5h-2.5v-1H20
	c0.827,0,1.5,0.673,1.5,1.5V14C21.5,15.379,20.379,16.5,19,16.5z"/>
</svg>






