<?xml version="1.0" encoding="iso-8859-1"?>
<svg version="1.1" id="&#x56FE;&#x5C42;_1" xmlns="http://www.w3.org/2000/svg" xmlns:xlink="http://www.w3.org/1999/xlink" x="0px"
	 y="0px" viewBox="0 0 24 24" style="enable-background:new 0 0 24 24;" xml:space="preserve">
<path style="fill:#333333;" d="M6,12.5H1.5v-8H6c2.733,0,4.5,1.57,4.5,4S8.733,12.5,6,12.5z M2.5,11.5H6c2.159,0,3.5-1.149,3.5-3
	s-1.341-3-3.5-3H2.5V11.5z"/>
<path style="fill:#333333;" d="M6.516,20.5H1.5v-9h5.016c3.075,0,4.984,1.725,4.984,4.5S9.59,20.5,6.516,20.5z M2.5,19.5h4.016
	c2.495,0,3.984-1.309,3.984-3.5s-1.489-3.5-3.984-3.5H2.5V19.5z"/>
<path style="fill:#333333;" d="M18,20.5c-2.649,0-4.5-2.056-4.5-5s1.851-5,4.5-5c3.108,0,4.5,2.511,4.5,5V16h-7.977
	c0.167,1.813,1.262,3.5,3.477,3.5c2.177,0,3.05-1.229,3.086-1.28l0.83,0.558C21.869,18.848,20.736,20.5,18,20.5z M14.523,15h6.951
	c-0.109-1.148-0.676-3.5-3.475-3.5C15.785,11.5,14.69,13.187,14.523,15z"/>
<rect x="15" y="7" style="fill:#333333;" width="6" height="1"/>
</svg>






