<?xml version="1.0" encoding="iso-8859-1"?>
<svg version="1.1" id="&#x56FE;&#x5C42;_1" xmlns="http://www.w3.org/2000/svg" xmlns:xlink="http://www.w3.org/1999/xlink" x="0px"
	 y="0px" viewBox="0 0 24 24" style="enable-background:new 0 0 24 24;" xml:space="preserve">
<path style="fill:#333333;" d="M10,18.5c-4.687,0-8.5-3.813-8.5-8.5c0-4.687,3.813-8.5,8.5-8.5c4.687,0,8.5,3.813,8.5,8.5
	C18.5,14.687,14.687,18.5,10,18.5z M10,2.5c-4.136,0-7.5,3.364-7.5,7.5s3.364,7.5,7.5,7.5s7.5-3.364,7.5-7.5S14.136,2.5,10,2.5z"/>
<path style="fill:none;" d="M22,9v1h-1V9H22z"/>
<path style="fill:#333333;" d="M14.443,20.609l-0.387-0.922C17.971,18.047,20.5,14.244,20.5,10V8.5h2v2h-1.011
	C21.299,14.944,18.576,18.877,14.443,20.609z"/>
<polygon style="fill:#333333;" points="15.77,22.5 4.23,22.5 6.543,17.297 7.457,17.703 5.77,21.5 14.23,21.5 12.543,17.703 
	13.457,17.297 "/>
<path style="fill:#333333;" d="M10,12.5c-1.378,0-2.5-1.122-2.5-2.5S8.622,7.5,10,7.5s2.5,1.122,2.5,2.5S11.378,12.5,10,12.5z
	 M10,8.5c-0.827,0-1.5,0.673-1.5,1.5s0.673,1.5,1.5,1.5s1.5-0.673,1.5-1.5S10.827,8.5,10,8.5z"/>
<path style="fill:#333333;" d="M5.5,10h-1c0-3.033,2.467-5.5,5.5-5.5v1C7.519,5.5,5.5,7.519,5.5,10z"/>
</svg>






