<?xml version="1.0" encoding="iso-8859-1"?>
<svg version="1.1" id="&#x56FE;&#x5C42;_1" xmlns="http://www.w3.org/2000/svg" xmlns:xlink="http://www.w3.org/1999/xlink" x="0px"
	 y="0px" viewBox="0 0 24 24" style="enable-background:new 0 0 24 24;" xml:space="preserve">
<polygon style="fill:#333333;" points="5.636,22.606 1.394,18.364 4.929,14.828 5.636,15.535 2.808,18.364 5.636,21.192 
	8.464,18.364 9.171,19.071 "/>
<polygon style="fill:#333333;" points="14.828,13.414 14.121,12.707 21.192,5.636 18.364,2.808 11.293,9.879 10.586,9.172 
	18.364,1.394 22.606,5.636 "/>
<path style="fill:#333333;" d="M9.879,19.864c-0.4,0-0.777-0.156-1.061-0.439l-4.243-4.243c-0.585-0.585-0.585-1.536,0-2.121
	l4.243-4.243c0.584-0.584,1.537-0.585,2.121,0l4.243,4.243c0.585,0.585,0.585,1.536,0,2.121l-4.243,4.243
	C10.657,19.708,10.28,19.864,9.879,19.864z M9.879,9.379c-0.128,0-0.256,0.049-0.354,0.146l-4.243,4.242
	c-0.195,0.195-0.195,0.512,0,0.707l4.243,4.243c0.19,0.189,0.518,0.189,0.707,0l4.244-4.243c0.195-0.195,0.195-0.512,0-0.707
	l-4.243-4.243C10.135,9.428,10.007,9.379,9.879,9.379z"/>
<rect x="8.44" y="12.561" transform="matrix(0.7071 -0.7071 0.7071 0.7071 -6.0311 11.5607)" style="fill:#333333;" width="4.999" height="1"/>
<rect x="17.157" y="3.843" transform="matrix(0.7072 -0.7071 0.7071 0.7072 0.6859 14.3422)" style="fill:#333333;" width="1" height="5"/>
<rect x="14.682" y="6.318" transform="matrix(0.7072 -0.7071 0.7071 0.7072 -1.7891 13.3166)" style="fill:#333333;" width="1" height="5"/>
<rect x="10.086" y="9.415" transform="matrix(0.7072 -0.707 0.707 0.7072 -6.3848 11.413)" style="fill:#333333;" width="1" height="8"/>
</svg>






