<?xml version="1.0" encoding="iso-8859-1"?>
<svg version="1.1" id="&#x56FE;&#x5C42;_1" xmlns="http://www.w3.org/2000/svg" xmlns:xlink="http://www.w3.org/1999/xlink" x="0px"
	 y="0px" viewBox="0 0 24 24" style="enable-background:new 0 0 24 24;" xml:space="preserve">
<path style="fill:#333333;" d="M11.75,22.5c-3.974,0-8.25-2.034-8.25-6.5V8c0-3.186,2.336-5.613,4.535-6.278
	c1.084-0.328,1.951-0.145,2.381,0.501c0.715,1.072,0.077,1.869-0.437,2.51C9.498,5.333,9,5.955,9,7c0,1.718,1.555,2.5,3,2.5
	c1.445,0,3-0.782,3-2.5c0-1.043-0.625-1.667-1.229-2.271c-0.631-0.63-1.415-1.415-0.688-2.506c0.443-0.665,1.387-0.838,2.59-0.474
	C18.014,2.458,20.5,4.889,20.5,8v8C20.5,20.49,16.105,22.5,11.75,22.5z M9.01,2.564c-0.198,0-0.432,0.038-0.685,0.114
	C6.736,3.16,4.5,5.128,4.5,8v8c0,3.779,3.758,5.5,7.25,5.5c2.879,0,7.75-1.158,7.75-5.5V8c0-2.949-2.524-4.812-4.116-5.294
	c-0.817-0.247-1.326-0.143-1.468,0.071c-0.234,0.352-0.155,0.526,0.562,1.244C15.121,4.664,16,5.543,16,7c0,2.298-2.013,3.5-4,3.5
	c-1.988,0-4-1.202-4-3.5c0-1.396,0.693-2.261,1.199-2.893c0.571-0.713,0.667-0.906,0.385-1.33C9.49,2.637,9.284,2.564,9.01,2.564z"
	/>
<path style="fill:#333333;" d="M12,19.207L8.793,16L12,12.793L15.207,16L12,19.207z M10.207,16L12,17.793L13.793,16L12,14.207
	L10.207,16z"/>
</svg>






