<?xml version="1.0" encoding="iso-8859-1"?>
<svg version="1.1" id="&#x56FE;&#x5C42;_1" xmlns="http://www.w3.org/2000/svg" xmlns:xlink="http://www.w3.org/1999/xlink" x="0px"
	 y="0px" viewBox="0 0 24 24" style="enable-background:new 0 0 24 24;" xml:space="preserve">
<path style="fill:#333333;" d="M22.5,22.5h-21V11.9C1.5,6.166,6.21,1.5,12,1.5c5.79,0,10.5,4.666,10.5,10.4V22.5z M2.5,21.5h19v-9.6
	c0-5.183-4.262-9.4-9.5-9.4s-9.5,4.217-9.5,9.4V21.5z"/>
<path style="fill:#333333;" d="M12,18.5c-3.584,0-6.5-2.916-6.5-6.5S8.416,5.5,12,5.5s6.5,2.916,6.5,6.5S15.584,18.5,12,18.5z
	 M12,6.5c-3.033,0-5.5,2.467-5.5,5.5c0,3.032,2.467,5.5,5.5,5.5c3.032,0,5.5-2.468,5.5-5.5C17.5,8.967,15.032,6.5,12,6.5z"/>
<polygon style="fill:#333333;" points="13.646,14.354 11.5,12.207 11.5,9 12.5,9 12.5,11.793 14.354,13.646 "/>
</svg>






