<?xml version="1.0" encoding="iso-8859-1"?>
<svg version="1.1" id="&#x56FE;&#x5C42;_1" xmlns="http://www.w3.org/2000/svg" xmlns:xlink="http://www.w3.org/1999/xlink" x="0px"
	 y="0px" viewBox="0 0 24 24" style="enable-background:new 0 0 24 24;" xml:space="preserve">
<path style="fill:#333333;" d="M12,22.614l-3.5-2.5l-3.209,2.293L4.5,22V3c0-0.827,0.673-1.5,1.5-1.5h12c0.827,0,1.5,0.673,1.5,1.5
	v19l-0.791,0.407L15.5,20.114L12,22.614z M8.5,18.886l3.5,2.5l3.5-2.5l3,2.143V3c0-0.276-0.225-0.5-0.5-0.5H6
	C5.724,2.5,5.5,2.724,5.5,3v18.028L8.5,18.886z"/>
<rect x="9" y="10.5" style="fill:#333333;" width="6" height="1"/>
<rect x="9" y="14.5" style="fill:#333333;" width="6" height="1"/>
<rect x="9" y="6.5" style="fill:#333333;" width="6" height="1"/>
</svg>






