<?xml version="1.0" encoding="iso-8859-1"?>
<svg version="1.1" id="&#x56FE;&#x5C42;_1" xmlns="http://www.w3.org/2000/svg" xmlns:xlink="http://www.w3.org/1999/xlink" x="0px"
	 y="0px" viewBox="0 0 24 24" style="enable-background:new 0 0 24 24;" xml:space="preserve">
<path style="fill:none;" d="M4,20h16v-8H4V20z"/>
<path style="fill:#333333;" d="M22,20.5H2v-1h1.5v-8h17v8H22V20.5z M4.5,19.5h15v-7h-15V19.5z"/>
<polygon style="fill:#333333;" points="16,17.559 14,16.559 12,17.559 10,16.559 8,17.559 6,16.559 4.224,17.447 3.776,16.553 
	6,15.441 8,16.441 10,15.441 12,16.441 14,15.441 16,16.441 18,15.441 20.224,16.553 19.776,17.447 18,16.559 "/>
<rect x="15.5" y="7.5" style="fill:#333333;" width="1" height="4.5"/>
<rect x="11.5" y="7.5" style="fill:#333333;" width="1" height="4.5"/>
<rect x="7.5" y="7.5" style="fill:#333333;" width="1" height="4.5"/>
<rect x="15.5" y="4" style="fill:#333333;" width="1" height="1"/>
<rect x="11.5" y="4" style="fill:#333333;" width="1" height="1"/>
<rect x="7.5" y="4" style="fill:#333333;" width="1" height="1"/>
<rect x="3.5" y="12" style="fill:#333333;" width="1" height="8"/>
<rect x="19.5" y="12" style="fill:#333333;" width="1" height="8"/>
</svg>






