<?xml version="1.0" encoding="iso-8859-1"?>
<svg version="1.1" id="&#x56FE;&#x5C42;_1" xmlns="http://www.w3.org/2000/svg" xmlns:xlink="http://www.w3.org/1999/xlink" x="0px"
	 y="0px" viewBox="0 0 24 24" style="enable-background:new 0 0 24 24;" xml:space="preserve">
<path style="fill:#333333;" d="M12,22.5C6.21,22.5,1.5,17.79,1.5,12C1.5,6.21,6.21,1.5,12,1.5c5.79,0,10.5,4.71,10.5,10.5
	C22.5,17.79,17.79,22.5,12,22.5z M12,2.5c-5.238,0-9.5,4.262-9.5,9.5s4.262,9.5,9.5,9.5s9.5-4.262,9.5-9.5S17.238,2.5,12,2.5z"/>
<path style="fill:none;" d="M10,8h2.5h1c1.105,0,2,0.895,2,2s-0.895,2-2,2H10V8z"/>
<path style="fill:#333333;" d="M13.5,12.5h-4v-4H8v-1h1.5V6h1v1.5H12V6h1v1.5h0.5c1.379,0,2.5,1.122,2.5,2.5S14.879,12.5,13.5,12.5z
	 M10.5,11.5h3c0.827,0,1.5-0.673,1.5-1.5s-0.673-1.5-1.5-1.5h-1V8v0.5h-2V11.5z"/>
<path style="fill:none;" d="M10,12h4.5c1.105,0,2,0.895,2,2s-0.895,2-2,2h-2H10V12z"/>
<path style="fill:#333333;" d="M13,18h-1v-1.5h-1.5V18h-1v-1.5H8v-1h1.5v-4h5c1.379,0,2.5,1.121,2.5,2.5s-1.121,2.5-2.5,2.5H13V18z
	 M12.5,16v-0.5h2c0.827,0,1.5-0.673,1.5-1.5s-0.673-1.5-1.5-1.5h-4v3h2V16z"/>
</svg>






