<?xml version="1.0" encoding="iso-8859-1"?>
<svg version="1.1" id="&#x56FE;&#x5C42;_1" xmlns="http://www.w3.org/2000/svg" xmlns:xlink="http://www.w3.org/1999/xlink" x="0px"
	 y="0px" viewBox="0 0 24 24" style="enable-background:new 0 0 24 24;" xml:space="preserve">
<path style="fill:#333333;" d="M7.703,21.5H3.661c-0.531,0-1.012-0.271-1.286-0.727c-0.273-0.455-0.289-1.006-0.04-1.476
	l3.658-6.909c0.021-0.04,0.038-0.085,0.047-0.131L8.097,2.66C8.241,1.988,8.845,1.5,9.532,1.5C10.342,1.5,11,2.158,11,2.968v9.389
	c0,0.143-0.021,0.284-0.061,0.422l-0.219,0.749l-1.555,6.807C9.008,21.021,8.407,21.5,7.703,21.5z M9.532,2.5
	c-0.219,0-0.412,0.156-0.458,0.37l-2.057,9.599c-0.029,0.135-0.076,0.265-0.14,0.387l-3.659,6.911
	c-0.12,0.225-0.031,0.419,0.013,0.491C3.276,20.331,3.406,20.5,3.661,20.5h4.042c0.235,0,0.436-0.16,0.488-0.389l1.789-7.614
	C9.993,12.45,10,12.404,10,12.356V2.968C10,2.71,9.79,2.5,9.532,2.5z"/>
<rect x="7.75" y="11.346" transform="matrix(0.3939 -0.9191 0.9191 0.3939 -7.1785 15.6135)" style="fill:#333333;" width="1.001" height="3.808"/>
<path style="fill:#333333;" d="M20.339,21.5h-4.042c-0.703,0-1.305-0.479-1.462-1.165l-1.774-7.557
	C13.02,12.639,13,12.497,13,12.356V2.968c0-0.81,0.658-1.468,1.468-1.468c0.688,0,1.291,0.488,1.436,1.16l2.057,9.6
	c0.01,0.045,0.025,0.088,0.046,0.127l3.659,6.911c0.248,0.47,0.232,1.021-0.041,1.476C21.351,21.229,20.87,21.5,20.339,21.5z
	 M14.468,2.5C14.21,2.5,14,2.71,14,2.968v9.389c0,0.048,0.007,0.095,0.021,0.144l0.219,0.746l1.57,6.865
	c0.053,0.229,0.253,0.389,0.487,0.389h4.042c0.255,0,0.385-0.169,0.429-0.242c0.044-0.072,0.133-0.267,0.013-0.491l-3.657-6.909
	c-0.063-0.119-0.111-0.25-0.141-0.387L14.925,2.87C14.879,2.656,14.687,2.5,14.468,2.5z"/>
<rect x="13.846" y="12.75" transform="matrix(0.919 -0.3942 0.3942 0.919 -3.9475 7.2806)" style="fill:#333333;" width="3.808" height="1.001"/>
</svg>






