<?xml version="1.0" encoding="iso-8859-1"?>
<svg version="1.1" id="&#x56FE;&#x5C42;_1" xmlns="http://www.w3.org/2000/svg" xmlns:xlink="http://www.w3.org/1999/xlink" x="0px"
	 y="0px" viewBox="0 0 24 24" style="enable-background:new 0 0 24 24;" xml:space="preserve">
<path style="fill:#333333;" d="M10.5,10.5h-8v-8h8V10.5z M3.5,9.5h6v-6h-6V9.5z"/>
<path style="fill:#333333;" d="M10.5,21.5h-8v-8h8V21.5z M3.5,20.5h6v-6h-6V20.5z"/>
<path style="fill:#333333;" d="M21.5,10.5h-8v-8h8V10.5z M14.5,9.5h6v-6h-6V9.5z"/>
<polygon style="fill:#333333;" points="20.646,21.354 14.5,15.207 14.5,21 13.5,21 13.5,14 14,14 14,13.5 21,13.5 21,14.5 
	15.207,14.5 21.354,20.646 "/>
</svg>






