<?xml version="1.0" encoding="iso-8859-1"?>
<svg version="1.1" id="&#x56FE;&#x5C42;_1" xmlns="http://www.w3.org/2000/svg" xmlns:xlink="http://www.w3.org/1999/xlink" x="0px"
	 y="0px" viewBox="0 0 24 24" style="enable-background:new 0 0 24 24;" xml:space="preserve">
<path style="fill:#333333;" d="M9.5,18.5h-7v-7h7V18.5z M3.5,17.5h5v-5h-5V17.5z"/>
<path style="fill:#333333;" d="M21.5,18.5h-7v-7h7V18.5z M15.5,17.5h5v-5h-5V17.5z"/>
<path style="fill:#333333;" d="M9.5,12.5h-7v-7h7V12.5z M3.5,11.5h5v-5h-5V11.5z"/>
<path style="fill:#333333;" d="M15.5,12.5h-7v-7h7V12.5z M9.5,11.5h5v-5h-5V11.5z"/>
<path style="fill:#333333;" d="M21.5,12.5h-7v-7h7V12.5z M15.5,11.5h5v-5h-5V11.5z"/>
</svg>






