<?xml version="1.0" encoding="iso-8859-1"?>
<svg version="1.1" id="&#x56FE;&#x5C42;_1" xmlns="http://www.w3.org/2000/svg" xmlns:xlink="http://www.w3.org/1999/xlink" x="0px"
	 y="0px" viewBox="0 0 24 24" style="enable-background:new 0 0 24 24;" xml:space="preserve">
<path style="fill:#333333;" d="M9.5,21.5h-7v-7h7V21.5z M3.5,20.5h5v-5h-5V20.5z"/>
<path style="fill:#333333;" d="M21.5,9.5h-7v-7h7V9.5z M15.5,8.5h5v-5h-5V8.5z"/>
<path style="fill:#333333;" d="M21.5,15.5h-7v-7h7V15.5z M15.5,14.5h5v-5h-5V14.5z"/>
<path style="fill:#333333;" d="M15.5,15.5h-7v-7h7V15.5z M9.5,14.5h5v-5h-5V14.5z"/>
<path style="fill:#333333;" d="M9.5,15.5h-7v-7h7V15.5z M3.5,14.5h5v-5h-5V14.5z"/>
</svg>






