<?xml version="1.0" encoding="iso-8859-1"?>
<svg version="1.1" id="&#x56FE;&#x5C42;_1" xmlns="http://www.w3.org/2000/svg" xmlns:xlink="http://www.w3.org/1999/xlink" x="0px"
	 y="0px" viewBox="0 0 24 24" style="enable-background:new 0 0 24 24;" xml:space="preserve">
<rect x="5.5" y="14.595" transform="matrix(0.6402 -0.7682 0.7682 0.6402 -12.0532 11.2659)" style="fill:#333333;" width="1" height="7.81"/>
<rect x="14.095" y="18" transform="matrix(0.7677 -0.6408 0.6408 0.7677 -7.6734 15.8305)" style="fill:#333333;" width="7.81" height="1"/>
<rect x="11.5" y="16" style="fill:#333333;" width="1" height="6"/>
<path style="fill:#333333;" d="M12,16.5c-3.226,0-8-2.543-8-8c0-1.423,0.492-3.526,0.513-3.615L4.618,4.44L8.323,4.97L12,1.293
	l3.677,3.677l3.705-0.529l0.104,0.445C19.508,4.974,20,7.077,20,8.5C20,13.957,15.227,16.5,12,16.5z M5.389,5.561
	C5.247,6.243,5,7.565,5,8.5c0,4.828,4.093,7,7,7c2.906,0,7-2.172,7-7c0-0.935-0.247-2.257-0.39-2.939l-3.287,0.47L12,2.707
	L8.677,6.03L5.389,5.561z"/>
</svg>






