<?xml version="1.0" encoding="iso-8859-1"?>
<svg version="1.1" id="&#x56FE;&#x5C42;_1" xmlns="http://www.w3.org/2000/svg" xmlns:xlink="http://www.w3.org/1999/xlink" x="0px"
	 y="0px" viewBox="0 0 24 24" style="enable-background:new 0 0 24 24;" xml:space="preserve">
<path style="fill:#333333;" d="M8.505,21.499c-0.381,0-0.718-0.051-0.985-0.126c-1.12-0.328-1.846-0.949-2.16-1.849
	c-0.511-1.462,0.243-3.152,0.78-4.088c-2.467-0.543-3.602-1.545-4.122-2.323c-0.636-0.951-0.536-1.78-0.463-2.092
	C1.816,9.718,2.468,8.774,3.487,8.23C4.836,7.511,6.583,7.644,7.996,8.07c-0.181-1.981,0.185-3.486,1.09-4.482
	c0.667-0.733,1.622-1.134,2.576-1.083l0,0c1.45,0.084,2.556,0.65,3.286,1.681c0.882,1.245,0.967,2.829,0.837,3.923
	c2.449-0.612,3.996-0.192,4.885,0.302c0.877,0.489,1.528,1.288,1.742,2.137c0.22,1.163,0.017,2.134-0.599,2.917
	c-0.673,0.856-1.733,1.331-2.714,1.536c1.153,1.63,1.583,3.068,1.278,4.286c-0.206,0.827-0.778,1.512-1.53,1.832
	c-3.087,0.857-5.093-0.765-6.047-2.203C11.527,20.939,9.774,21.499,8.505,21.499z M5.74,8.722c-0.635,0-1.257,0.111-1.782,0.392
	c-0.743,0.396-1.223,1.109-1.427,2.12c-0.037,0.159-0.113,0.68,0.318,1.324c0.459,0.688,1.559,1.599,4.187,2.033l0.786,0.13
	l-0.459,0.651c-0.797,1.131-1.434,2.751-1.059,3.822c0.205,0.586,0.693,0.983,1.492,1.218c0.988,0.279,3.218,0.066,4.555-2.754
	l0.914,0.022c0.508,1.225,2.255,3.33,5.254,2.496c0.111-0.052,0.695-0.354,0.89-1.132c0.184-0.734,0.053-2.044-1.614-4.112
	l0.363-0.812c0.899-0.047,2.19-0.408,2.869-1.272c0.43-0.547,0.567-1.248,0.409-2.085c-0.049-0.191-0.303-0.949-1.252-1.478
	c-0.809-0.45-2.311-0.816-4.89,0.003l-0.632-0.615c0.26-0.904,0.333-2.69-0.529-3.91c-0.546-0.771-1.396-1.194-2.529-1.261l0,0
	c-0.246-0.016-1.088-0.001-1.778,0.758c-0.801,0.881-1.057,2.429-0.74,4.474L8.4,9.273C7.664,8.969,6.687,8.722,5.74,8.722z"/>
<rect x="9.899" y="13.75" transform="matrix(0.6247 -0.7809 0.7809 0.6247 -6.8114 14.3281)" style="fill:#333333;" width="3.202" height="1"/>
<rect x="10.5" y="11.229" transform="matrix(0.1644 -0.9864 0.9864 0.1644 -3.3849 21.5042)" style="fill:#333333;" width="1" height="3.041"/>
<rect x="11.75" y="9.482" transform="matrix(0.9899 -0.1414 0.1414 0.9899 -1.4681 1.8457)" style="fill:#333333;" width="1" height="3.536"/>
<rect x="12.419" y="12" transform="matrix(0.9487 -0.3162 0.3162 0.9487 -3.2345 5.0687)" style="fill:#333333;" width="3.162" height="1"/>
<rect x="13.25" y="12.399" transform="matrix(0.6247 -0.7809 0.7809 0.6247 -5.7717 15.9912)" style="fill:#333333;" width="1" height="3.202"/>
</svg>






