<?xml version="1.0" encoding="iso-8859-1"?>
<svg version="1.1" id="&#x56FE;&#x5C42;_1" xmlns="http://www.w3.org/2000/svg" xmlns:xlink="http://www.w3.org/1999/xlink" x="0px"
	 y="0px" viewBox="0 0 24 24" style="enable-background:new 0 0 24 24;" xml:space="preserve">
<path style="fill:#333333;" d="M20.5,7.5h-17C2.673,7.5,2,6.827,2,6V4c0-0.827,0.673-1.5,1.5-1.5h17C21.327,2.5,22,3.173,22,4v2
	C22,6.827,21.327,7.5,20.5,7.5z M3.5,3.5C3.224,3.5,3,3.724,3,4v2c0,0.276,0.224,0.5,0.5,0.5h17C20.775,6.5,21,6.276,21,6V4
	c0-0.276-0.225-0.5-0.5-0.5H3.5z"/>
<path style="fill:#333333;" d="M19,21.5H5c-0.827,0-1.5-0.673-1.5-1.5V7h1v13c0,0.275,0.224,0.5,0.5,0.5h14
	c0.275,0,0.5-0.225,0.5-0.5V7h1v13C20.5,20.827,19.827,21.5,19,21.5z"/>
<path style="fill:#333333;" d="M12,18.5c-2.206,0-4-1.779-4-3.967c0-1.253,0.515-2.072,1.013-2.865
	c0.336-0.536,0.684-1.089,0.891-1.807l0.158-0.546l0.521,0.226c1.367,0.593,1.973,1.807,2.241,2.778
	c0.393-0.441,0.959-0.876,1.748-1.071l0.564-0.14l0.054,0.58c0.065,0.716,0.275,1.182,0.461,1.593
	C15.831,13.678,16,14.054,16,14.533C16,16.721,14.206,18.5,12,18.5z M10.66,10.727c-0.235,0.573-0.531,1.044-0.8,1.473
	C9.398,12.935,9,13.568,9,14.533c0,1.636,1.346,2.967,3,2.967s3-1.331,3-2.967c0-0.265-0.109-0.507-0.26-0.842
	c-0.152-0.338-0.333-0.737-0.449-1.276c-0.923,0.48-1.264,1.434-1.28,1.48l-0.973-0.161C12.038,13.712,12.012,11.695,10.66,10.727z"
	/>
</svg>






