<?xml version="1.0" encoding="iso-8859-1"?>
<svg version="1.1" id="&#x56FE;&#x5C42;_1" xmlns="http://www.w3.org/2000/svg" xmlns:xlink="http://www.w3.org/1999/xlink" x="0px"
	 y="0px" viewBox="0 0 24 24" style="enable-background:new 0 0 24 24;" xml:space="preserve">
<path style="fill:#333333;" d="M12,18.5c-3.584,0-6.5-2.916-6.5-6.5V6.14c0-0.353,0.287-0.64,0.64-0.64h11.72
	c0.353,0,0.64,0.287,0.64,0.64V12C18.5,15.584,15.584,18.5,12,18.5z M6.5,6.5V12c0,3.032,2.467,5.5,5.5,5.5
	c3.032,0,5.5-2.468,5.5-5.5V6.5H6.5z"/>
<rect x="9.5" y="2" style="fill:#333333;" width="1" height="4"/>
<rect x="13.5" y="2" style="fill:#333333;" width="1" height="4"/>
<rect x="11" y="13" style="fill:#333333;" width="2" height="1"/>
<path style="fill:#333333;" d="M19,22.5h-5.5c-1.103,0-2-0.897-2-2V18h1v2.5c0,0.552,0.448,1,1,1H19V22.5z"/>
</svg>






