<?xml version="1.0" encoding="iso-8859-1"?>
<svg version="1.1" id="&#x56FE;&#x5C42;_1" xmlns="http://www.w3.org/2000/svg" xmlns:xlink="http://www.w3.org/1999/xlink" x="0px"
	 y="0px" viewBox="0 0 24 24" style="enable-background:new 0 0 24 24;" xml:space="preserve">
<path style="fill:#333333;" d="M8.385,22.251c-1.638,0-2.231-1.143-2.714-2.07c-0.217-0.418-0.423-0.813-0.703-1.094
	s-0.675-0.485-1.094-0.703c-0.981-0.511-2.203-1.146-2.057-3.047c-0.001-1.63,1.761-3.113,3.15-3.113
	c0.972,0,1.73,0.264,2.459,0.869l5.688-5.688c-0.605-0.729-0.869-1.488-0.869-2.459c0-1.389,1.483-3.151,3.151-3.151
	c1.71,0,2.315,1.031,2.851,1.94c0.246,0.417,0.5,0.85,0.861,1.211c0.362,0.362,0.794,0.616,1.212,0.861
	c0.909,0.535,1.94,1.141,1.94,2.851c0,1.668-1.763,3.152-3.152,3.152c-0.972,0-1.73-0.264-2.459-0.869l-5.688,5.688
	c0.605,0.729,0.869,1.487,0.869,2.459c0,1.39-1.484,3.152-3.151,3.152C8.578,22.247,8.479,22.251,8.385,22.251z M4.968,13.224
	c-0.81,0-2.152,1.042-2.152,2.151c-0.093,1.224,0.487,1.585,1.52,2.121c0.467,0.243,0.95,0.494,1.339,0.884
	c0.39,0.39,0.641,0.872,0.883,1.34c0.538,1.032,0.911,1.611,2.083,1.521c1.148-0.002,2.19-1.345,2.19-2.154
	c0-0.868-0.256-1.463-0.914-2.121l-0.354-0.354l7.071-7.071l0.354,0.354c0.658,0.658,1.253,0.914,2.121,0.914
	c0.81,0,2.152-1.042,2.152-2.152c0-1.137-0.576-1.476-1.447-1.988c-0.45-0.265-0.96-0.564-1.412-1.017S17.65,4.69,17.386,4.241
	c-0.512-0.872-0.851-1.447-1.988-1.447c-1.109,0-2.151,1.342-2.151,2.151c0,0.869,0.256,1.464,0.914,2.122l0.354,0.354l-7.071,7.071
	l-0.354-0.354C6.431,13.479,5.836,13.224,4.968,13.224z"/>
</svg>






