<?xml version="1.0" encoding="iso-8859-1"?>
<svg version="1.1" id="&#x56FE;&#x5C42;_1" xmlns="http://www.w3.org/2000/svg" xmlns:xlink="http://www.w3.org/1999/xlink" x="0px"
	 y="0px" viewBox="0 0 24 24" style="enable-background:new 0 0 24 24;" xml:space="preserve">
<path style="fill:#333333;" d="M21,21.5H5c-1.103,0-2-0.897-2-2v-15c0-1.103,0.897-2,2-2h16V21.5z M5,3.5c-0.551,0-1,0.449-1,1v15
	c0,0.552,0.449,1,1,1h15v-17H5z"/>
<rect x="3.5" y="16.5" style="fill:#333333;" width="17" height="1"/>
<rect x="3" y="15" style="fill:#333333;" width="1" height="4"/>
<rect x="20" y="15" style="fill:#333333;" width="1" height="4"/>
<path style="fill:#333333;" d="M12.188,13.391L10,11.64l-2.188,1.75L7,13V2.5h6V13L12.188,13.391z M10,10.36l2,1.6V3.5H8v8.459
	L10,10.36z"/>
<rect x="5.5" y="2.5" style="fill:#333333;" width="9" height="1"/>
</svg>






