<?xml version="1.0" encoding="iso-8859-1"?>
<svg version="1.1" id="&#x56FE;&#x5C42;_1" xmlns="http://www.w3.org/2000/svg" xmlns:xlink="http://www.w3.org/1999/xlink" x="0px"
	 y="0px" viewBox="0 0 24 24" style="enable-background:new 0 0 24 24;" xml:space="preserve">
<path style="fill:#333333;" d="M4,18.5H3v-13C3,3.57,4.57,2,6.5,2H18v14H6.5C5.122,16,4,17.121,4,18.5z M6.5,3
	C5.122,3,4,4.122,4,5.5v10.553C4.636,15.403,5.521,15,6.5,15H17V3H6.5z"/>
<path style="fill:#333333;" d="M21,22H6.5C4.57,22,3,20.43,3,18.5S4.57,15,6.5,15h11v1h-11C5.122,16,4,17.121,4,18.5
	S5.122,21,6.5,21H20V3.5h1V22z"/>
<rect x="7" y="18" style="fill:#333333;" width="10" height="1"/>
</svg>






