<?xml version="1.0" encoding="iso-8859-1"?>
<svg version="1.1" id="&#x56FE;&#x5C42;_1" xmlns="http://www.w3.org/2000/svg" xmlns:xlink="http://www.w3.org/1999/xlink" x="0px"
	 y="0px" viewBox="0 0 24 24" style="enable-background:new 0 0 24 24;" xml:space="preserve">
<path style="fill:#333333;" d="M12.5,21h-1c0-1.379-1.122-2.5-2.5-2.5H2V3h6c2.481,0,4.5,2.019,4.5,4.5V21z M3,17.5h6
	c0.979,0,1.864,0.403,2.5,1.053V7.5C11.5,5.57,9.93,4,8,4H3V17.5z"/>
<path style="fill:#333333;" d="M12.5,21h-1V7.5C11.5,5.019,13.519,3,16,3h6v15.5h-7C13.621,18.5,12.5,19.621,12.5,21z M16,4
	c-1.93,0-3.5,1.57-3.5,3.5v11.053c0.636-0.649,1.521-1.053,2.5-1.053h6V4H16z"/>
</svg>






