<?xml version="1.0" encoding="iso-8859-1"?>
<svg version="1.1" id="&#x56FE;&#x5C42;_1" xmlns="http://www.w3.org/2000/svg" xmlns:xlink="http://www.w3.org/1999/xlink" x="0px"
	 y="0px" viewBox="0 0 24 24" style="enable-background:new 0 0 24 24;" xml:space="preserve">
<path style="fill:#333333;" d="M4.5,20h-1V5c0-1.93,1.66-3.5,3.7-3.5h13.3v17H7.2C4.623,18.5,4.5,18.86,4.5,20z M7.2,2.5
	C5.711,2.5,4.5,3.622,4.5,5v12.888C5.105,17.58,5.996,17.5,7.2,17.5h12.3v-15H7.2z"/>
<path style="fill:#333333;" d="M20.5,22.5H6c-1.378,0-2.5-1.121-2.5-2.5s1.122-2.5,2.5-2.5h14.5V22.5z M6,18.5
	c-0.827,0-1.5,0.673-1.5,1.5s0.673,1.5,1.5,1.5h13.5v-3H6z"/>
</svg>






