<?xml version="1.0" encoding="iso-8859-1"?>
<svg version="1.1" id="&#x56FE;&#x5C42;_1" xmlns="http://www.w3.org/2000/svg" xmlns:xlink="http://www.w3.org/1999/xlink" x="0px"
	 y="0px" viewBox="0 0 24 24" style="enable-background:new 0 0 24 24;" xml:space="preserve">
<path style="fill:#333333;" d="M17.649,21.5H6.803c-0.327,0-0.625-0.104-0.861-0.298c-0.57-0.471-1.673-1.548-2.639-3.479
	c-1.251-2.503-1.756-4.003-1.777-4.065l-0.128-0.385l0.351-0.205c0.006-0.004,0.555-0.325,1.314-0.837
	C5.841,10.355,7.5,8.586,7.5,7.5V7h9v0.5c0,1.318,1.554,3.039,4.264,4.721c0.829,0.515,1.454,0.829,1.46,0.832l0.33,0.165
	l-0.061,0.364c-0.011,0.064-0.277,1.604-1.546,4.142c-0.93,1.859-1.863,2.925-2.338,3.395C18.36,21.364,18.02,21.5,17.649,21.5z
	 M2.61,13.715c0.222,0.586,0.725,1.837,1.587,3.562c0.916,1.831,1.97,2.815,2.381,3.154c0.07,0.058,0.161,0.069,0.225,0.069h10.847
	c0.061,0,0.175-0.012,0.257-0.093c0.43-0.426,1.281-1.399,2.146-3.131c0.856-1.712,1.23-2.945,1.375-3.513
	c-0.276-0.149-0.697-0.386-1.191-0.693c-1.994-1.238-4.342-3.084-4.691-5.07H8.441c-0.404,1.752-2.79,3.689-4.819,5.06
	C3.208,13.339,2.854,13.563,2.61,13.715z"/>
<polygon style="fill:#333333;" points="16.488,7.608 15.512,7.392 16.599,2.5 21,2.5 21,3.5 17.401,3.5 "/>
<polygon style="fill:#333333;" points="7.512,7.608 6.599,3.5 3,3.5 3,2.5 7.401,2.5 8.488,7.392 "/>
<path style="fill:#333333;" d="M18,16H6c-3.271,0-4.401-2.184-4.447-2.276l0.893-0.45C2.482,13.344,3.371,15,6,15h12
	c2.209,0,3.587-1.783,3.601-1.801l0.8,0.601C22.333,13.89,20.719,16,18,16z"/>
<path style="fill:#333333;" d="M3.303,17.724c-1.251-2.503-1.756-4.003-1.777-4.065l-0.128-0.385l0.351-0.205
	c0.006-0.004,0.555-0.325,1.314-0.837l0.56,0.828c-0.414,0.279-0.768,0.504-1.012,0.655c0.222,0.586,0.725,1.837,1.587,3.562
	L3.303,17.724z"/>
<path style="fill:#333333;" d="M20.947,17.724l-0.895-0.447c0.856-1.712,1.23-2.945,1.375-3.513
	c-0.276-0.149-0.697-0.386-1.191-0.693l0.527-0.85c0.829,0.515,1.454,0.829,1.46,0.832l0.33,0.165l-0.061,0.364
	C22.482,13.646,22.216,15.186,20.947,17.724z"/>
</svg>






