<?xml version="1.0" encoding="iso-8859-1"?>
<svg version="1.1" id="&#x56FE;&#x5C42;_1" xmlns="http://www.w3.org/2000/svg" xmlns:xlink="http://www.w3.org/1999/xlink" x="0px"
	 y="0px" viewBox="0 0 24 24" style="enable-background:new 0 0 24 24;" xml:space="preserve">
<path style="fill:#333333;" d="M15.5,22.5h-7C7.673,22.5,7,21.827,7,21v-6c0-1.074,0.355-2.14,1-3l1.8-2.4
	C9.929,9.428,10,9.215,10,9V1.5h4V9c0,0.215,0.071,0.428,0.2,0.601L16,12c0.645,0.859,1,1.925,1,3v6
	C17,21.827,16.327,22.5,15.5,22.5z M11,2.5V9c0,0.429-0.142,0.855-0.399,1.199L8.8,12.6C8.284,13.288,8,14.141,8,15v6
	c0,0.275,0.224,0.5,0.5,0.5h7c0.275,0,0.5-0.225,0.5-0.5v-6c0-0.86-0.284-1.713-0.8-2.4l-1.801-2.4C13.142,9.855,13,9.429,13,9V2.5
	H11z"/>
<rect x="10.5" y="4.5" style="fill:#333333;" width="3" height="1"/>
<rect x="10" y="4" style="fill:#333333;" width="1" height="2"/>
<rect x="13" y="4" style="fill:#333333;" width="1" height="2"/>
</svg>






