<?xml version="1.0" encoding="iso-8859-1"?>
<svg version="1.1" id="&#x56FE;&#x5C42;_1" xmlns="http://www.w3.org/2000/svg" xmlns:xlink="http://www.w3.org/1999/xlink" x="0px"
	 y="0px" viewBox="0 0 24 24" style="enable-background:new 0 0 24 24;" xml:space="preserve">
<path style="fill:#333333;" d="M9.322,22.286H6.133l-0.11-0.061c-0.13-0.071-3.194-1.786-3.194-5.327
	c0-3.449,3.42-7.045,3.565-7.197l0.145-0.15h2.376l0.145,0.15c0.146,0.151,3.566,3.748,3.566,7.197c0,3.541-3.063,5.256-3.194,5.327
	L9.322,22.286z M6.392,21.306h2.672c0.498-0.308,2.582-1.753,2.582-4.407c0-2.689-2.529-5.672-3.154-6.368H6.963
	c-0.625,0.696-3.154,3.678-3.154,6.368C3.809,19.553,5.894,20.998,6.392,21.306z"/>
<path style="fill:#333333;" d="M8.82,10.531H6.635l-0.143-0.237c-0.069-0.115-1.703-2.847-1.703-5.151
	c0-2.356,1.523-3.429,2.938-3.429c1.416,0,2.939,1.073,2.939,3.429c0,2.304-1.634,5.036-1.703,5.151L8.82,10.531z M7.196,9.551
	h1.063c0.379-0.687,1.428-2.738,1.428-4.408c0-1.933-1.232-2.449-1.959-2.449S5.769,3.21,5.769,5.143
	C5.769,6.813,6.816,8.864,7.196,9.551z"/>
<path style="fill:#333333;" d="M18.139,22.286h-3.189l-0.11-0.061c-0.13-0.071-3.193-1.786-3.193-5.327
	c0-3.449,3.419-7.045,3.565-7.197l0.145-0.15h2.377l0.145,0.15c0.146,0.151,3.565,3.748,3.565,7.197
	c0,3.541-3.063,5.256-3.193,5.327L18.139,22.286z M15.209,21.306h2.671c0.499-0.308,2.582-1.753,2.582-4.407
	c0-2.689-2.528-5.672-3.153-6.368h-1.529c-0.625,0.696-3.153,3.678-3.153,6.368C12.626,19.533,14.722,21.001,15.209,21.306z"/>
<path style="fill:#333333;" d="M17.637,10.531h-2.186l-0.143-0.237c-0.07-0.115-1.704-2.847-1.704-5.151
	c0-2.356,1.524-3.429,2.939-3.429s2.939,1.073,2.939,3.429c0,2.304-1.634,5.036-1.704,5.151L17.637,10.531z M16.012,9.551h1.064
	c0.379-0.687,1.427-2.738,1.427-4.408c0-1.933-1.231-2.449-1.959-2.449s-1.959,0.516-1.959,2.449
	C14.585,6.813,15.633,8.864,16.012,9.551z"/>
</svg>






