<?xml version="1.0" encoding="iso-8859-1"?>
<svg version="1.1" id="&#x56FE;&#x5C42;_1" xmlns="http://www.w3.org/2000/svg" xmlns:xlink="http://www.w3.org/1999/xlink" x="0px"
	 y="0px" viewBox="0 0 24 24" style="enable-background:new 0 0 24 24;" xml:space="preserve">
<path style="fill:#333333;" d="M18.5,22.5h-13v-14h13V22.5z M6.5,21.5h11v-12h-11V21.5z"/>
<path style="fill:#333333;" d="M17.344,9.5H6.657l0.916-2.782C7.911,5.69,8.865,5,9.947,5h4.105c1.082,0,2.037,0.69,2.374,1.718
	L17.344,9.5z M8.039,8.5h7.922l-0.483-1.469C15.274,6.414,14.702,6,14.053,6H9.947C9.298,6,8.725,6.414,8.522,7.031L8.039,8.5z"/>
<path style="fill:#333333;" d="M14,5.5h-1v-2c0-0.551-0.448-1-1-1c-0.551,0-1,0.449-1,1v2h-1v-2c0-1.103,0.897-2,2-2
	c1.103,0,2,0.897,2,2V5.5z"/>
<rect x="8.75" y="13" style="fill:#333333;" width="1" height="5"/>
</svg>






