<?xml version="1.0" encoding="iso-8859-1"?>
<svg version="1.1" id="&#x56FE;&#x5C42;_1" xmlns="http://www.w3.org/2000/svg" xmlns:xlink="http://www.w3.org/1999/xlink" x="0px"
	 y="0px" viewBox="0 0 24 24" style="enable-background:new 0 0 24 24;" xml:space="preserve">
<path style="fill:#333333;" d="M15.5,22.5h-7C7.673,22.5,7,21.827,7,21V10.78c0-1.84,0.954-3.573,2.5-4.561V1.5h5v4.719
	C16.046,7.207,17,8.94,17,10.78V21C17,21.827,16.327,22.5,15.5,22.5z M10.5,2.5v3.864c0,0.258-0.137,0.501-0.358,0.634
	C8.82,7.791,8,9.24,8,10.78V21c0,0.275,0.224,0.5,0.5,0.5h7c0.275,0,0.5-0.225,0.5-0.5V10.78c0-1.54-0.82-2.989-2.141-3.781
	C13.638,6.865,13.5,6.623,13.5,6.364V2.5H10.5z"/>
<rect x="10" y="4.5" style="fill:#333333;" width="4" height="1"/>
<polygon style="fill:#333333;" points="16.5,19.5 11.5,19.5 11.5,11 16.5,11 16.5,12 12.5,12 12.5,18.5 16.5,18.5 "/>
<rect x="16" y="10.5" style="fill:#333333;" width="1" height="9.5"/>
<rect x="9.5" y="4" style="fill:#333333;" width="1" height="2"/>
<rect x="13.5" y="4" style="fill:#333333;" width="1" height="2"/>
</svg>






