<?xml version="1.0" encoding="iso-8859-1"?>
<svg version="1.1" id="&#x56FE;&#x5C42;_1" xmlns="http://www.w3.org/2000/svg" xmlns:xlink="http://www.w3.org/1999/xlink" x="0px"
	 y="0px" viewBox="0 0 24 24" style="enable-background:new 0 0 24 24;" xml:space="preserve">
<path style="fill:#333333;" d="M12,20c-5.131,0-9-3.869-9-9v-0.5h18V11C21,16.131,17.131,20,12,20z M4.014,11.5
	C4.255,15.81,7.607,19,12,19s7.745-3.19,7.986-7.5H4.014z"/>
<polygon style="fill:#333333;" points="16.693,22.5 7.306,22.5 8.526,18.842 9.474,19.158 8.694,21.5 15.307,21.5 14.525,19.158 
	15.475,18.842 "/>
<rect x="5.5" y="5" style="fill:#333333;" width="1" height="2"/>
<rect x="17.5" y="5" style="fill:#333333;" width="1" height="2"/>
<rect x="11.5" y="2.5" style="fill:#333333;" width="1" height="4.5"/>
</svg>






