<?xml version="1.0" encoding="iso-8859-1"?>
<svg version="1.1" id="&#x56FE;&#x5C42;_1" xmlns="http://www.w3.org/2000/svg" xmlns:xlink="http://www.w3.org/1999/xlink" x="0px"
	 y="0px" viewBox="0 0 24 24" style="enable-background:new 0 0 24 24;" xml:space="preserve">
<path style="fill:#333333;" d="M16.5,22.5H7.499l0.007-2.129c-0.262-0.141-0.522-0.297-0.775-0.466
	c-0.521-0.348-1.007-0.747-1.447-1.188C3.488,16.924,2.5,14.538,2.5,12v-0.5h19V12c0,2.537-0.988,4.923-2.782,6.718
	c-0.439,0.438-0.922,0.835-1.434,1.178c-0.252,0.169-0.515,0.327-0.784,0.473c0,0.542,0,1.632,0,1.632V22.5z M8.501,21.5H15.5
	c0-1.515,0.002-1.521,0.026-1.594l0.065-0.196l0.187-0.093c0.327-0.164,0.646-0.35,0.949-0.552c0.458-0.308,0.89-0.662,1.283-1.055
	c1.486-1.487,2.354-3.429,2.475-5.511H3.514c0.12,2.083,0.988,4.023,2.476,5.511c0.394,0.394,0.83,0.752,1.295,1.062
	c0.308,0.205,0.625,0.389,0.942,0.546l0.28,0.138L8.501,21.5z"/>
<rect x="11.5" y="4" style="fill:#333333;" width="1" height="5.004"/>
<rect x="17.5" y="6" style="fill:#333333;" width="1" height="3.004"/>
<rect x="5.5" y="6" style="fill:#333333;" width="1" height="3.004"/>
<path style="fill:#333333;" d="M18.5,6h-1c0-1.378,1.121-2.5,2.5-2.5v1C19.173,4.5,18.5,5.173,18.5,6z"/>
<path style="fill:#333333;" d="M12.5,4h-1c0-1.378,1.121-2.5,2.5-2.5v1C13.173,2.5,12.5,3.173,12.5,4z"/>
<path style="fill:#333333;" d="M6.5,6h-1c0-1.378,1.122-2.5,2.5-2.5v1C7.173,4.5,6.5,5.173,6.5,6z"/>
</svg>






