<?xml version="1.0" encoding="iso-8859-1"?>
<svg version="1.1" id="&#x56FE;&#x5C42;_1" xmlns="http://www.w3.org/2000/svg" xmlns:xlink="http://www.w3.org/1999/xlink" x="0px"
	 y="0px" viewBox="0 0 24 24" style="enable-background:new 0 0 24 24;" xml:space="preserve">
<path style="fill:#333333;" d="M20,21.5H4c-0.827,0-1.5-0.673-1.5-1.5V7c0-0.827,0.673-1.5,1.5-1.5h16c0.827,0,1.5,0.673,1.5,1.5v13
	C21.5,20.827,20.827,21.5,20,21.5z M4,6.5C3.724,6.5,3.5,6.724,3.5,7v13c0,0.275,0.224,0.5,0.5,0.5h16c0.275,0,0.5-0.225,0.5-0.5V7
	c0-0.276-0.225-0.5-0.5-0.5H4z"/>
<rect x="8.975" y="11.504" style="fill:#333333;" width="6" height="1"/>
<polygon style="fill:#333333;" points="20.624,6.829 17.273,3 6.727,3 3.376,6.829 2.624,6.171 6.273,2 17.727,2 21.376,6.171 "/>
</svg>






