<?xml version="1.0" encoding="iso-8859-1"?>
<svg version="1.1" id="&#x56FE;&#x5C42;_1" xmlns="http://www.w3.org/2000/svg" xmlns:xlink="http://www.w3.org/1999/xlink" x="0px"
	 y="0px" viewBox="0 0 24 24" style="enable-background:new 0 0 24 24;" xml:space="preserve">
<path style="fill:#333333;" d="M18,18.5H6c-1.93,0-3.5-1.57-3.5-3.5v-4.5c0-1.654,1.346-3,3-3h2c1.654,0,3,1.346,3,3s-1.346,3-3,3
	h-1v-1h1c1.103,0,2-0.897,2-2s-0.897-2-2-2h-2c-1.103,0-2,0.897-2,2V15c0,1.379,1.122,2.5,2.5,2.5h12c1.379,0,2.5-1.121,2.5-2.5v-2
	c0-0.827-0.673-1.5-1.5-1.5h-7v-1h7c1.379,0,2.5,1.122,2.5,2.5v2C21.5,16.93,19.93,18.5,18,18.5z"/>
<path style="fill:#333333;" d="M17,22.5H7c-0.827,0-1.5-0.673-1.5-1.5v-3L6,17.5h12l0.5,0.5v3C18.5,21.827,17.827,22.5,17,22.5z
	 M6.5,18.5V21c0,0.275,0.224,0.5,0.5,0.5h10c0.275,0,0.5-0.225,0.5-0.5v-2.5H6.5z"/>
<path style="fill:#333333;" d="M19,11.5H9.95v-1H19c1.379,0,2.5-1.122,2.5-2.5V6c0-1.93-1.57-3.5-3.5-3.5H6C4.07,2.5,2.5,4.07,2.5,6
	v2c0,0.804,0.368,1.439,0.53,1.504L3,10.5c-0.884,0-1.5-1.317-1.5-2.5V6c0-2.481,2.019-4.5,4.5-4.5h12c2.481,0,4.5,2.019,4.5,4.5v2
	C22.5,9.93,20.93,11.5,19,11.5z"/>
</svg>






