<?xml version="1.0" encoding="iso-8859-1"?>
<svg version="1.1" id="&#x56FE;&#x5C42;_1" xmlns="http://www.w3.org/2000/svg" xmlns:xlink="http://www.w3.org/1999/xlink" x="0px"
	 y="0px" viewBox="0 0 24 24" style="enable-background:new 0 0 24 24;" xml:space="preserve">
<path style="fill:#333333;" d="M18,22.5H8.5C7.673,22.5,7,21.827,7,21v-3h1v3c0,0.275,0.224,0.5,0.5,0.5H18
	c0.275,0,0.5-0.225,0.5-0.5v-3h1v3C19.5,21.827,18.827,22.5,18,22.5z"/>
<path style="fill:#333333;" d="M19.003,18.5H7.5c-3.717,0-6-4.077-6-7v-4L2,7h3V5c0-1.93,1.57-3.5,3.5-3.5H19
	c1.93,0,3.5,1.57,3.5,3.5v10C22.5,16.93,20.932,18.5,19.003,18.5z M2.5,8v3.5c0,2.094,1.717,6,5,6h11.503
	c1.377,0,2.497-1.121,2.497-2.5V5c0-1.378-1.121-2.5-2.5-2.5H8.5C7.122,2.5,6,3.622,6,5v2.5L5.5,8H2.5z"/>
<rect x="5" y="7" style="fill:#333333;" width="1" height="4"/>
</svg>






