<?xml version="1.0" encoding="iso-8859-1"?>
<svg version="1.1" id="&#x56FE;&#x5C42;_1" xmlns="http://www.w3.org/2000/svg" xmlns:xlink="http://www.w3.org/1999/xlink" x="0px"
	 y="0px" viewBox="0 0 24 24" style="enable-background:new 0 0 24 24;" xml:space="preserve">
<path style="fill:#333333;" d="M18.339,17.5H6.859l-1.5-6h15.379L18.339,17.5z M7.641,16.5h10.021l1.601-4H6.641L7.641,16.5z"/>
<polygon style="fill:#333333;" points="5.543,12.203 3.675,8 1.75,8 1.75,7 4.325,7 6.457,11.797 "/>
<path style="fill:#333333;" d="M10,22.5c-1.103,0-2-0.897-2-2s0.897-2,2-2s2,0.897,2,2S11.103,22.5,10,22.5z M10,19.5
	c-0.551,0-1,0.448-1,1s0.449,1,1,1s1-0.448,1-1S10.551,19.5,10,19.5z"/>
<path style="fill:#333333;" d="M15.5,22.5c-1.103,0-2-0.897-2-2s0.897-2,2-2s2,0.897,2,2S16.603,22.5,15.5,22.5z M15.5,19.5
	c-0.552,0-1,0.448-1,1s0.448,1,1,1s1-0.448,1-1S16.052,19.5,15.5,19.5z"/>
<path style="fill:#333333;" d="M20.351,12.5h-4.643l-4.901-8.712l0.47-0.235c0.204-0.102,0.426-0.219,0.666-0.345
	C13.311,2.487,15.186,1.5,17,1.5c1.608,0,3.627,2.421,5.393,4.69l0.17,0.218L22.47,6.671L20.351,12.5z M16.292,11.5h3.357
	l1.786-4.911C20.416,5.283,18.184,2.5,17,2.5c-1.567,0-3.315,0.92-4.593,1.593c-0.073,0.039-0.146,0.077-0.217,0.114L16.292,11.5z"
	/>
<rect x="15" y="2.234" transform="matrix(0.8682 -0.4961 0.4961 0.8682 -0.0664 8.2501)" style="fill:#333333;" width="1.001" height="4.031"/>
</svg>






