<?xml version="1.0" encoding="iso-8859-1"?>
<svg version="1.1" id="&#x56FE;&#x5C42;_1" xmlns="http://www.w3.org/2000/svg" xmlns:xlink="http://www.w3.org/1999/xlink" x="0px"
	 y="0px" viewBox="0 0 24 24" style="enable-background:new 0 0 24 24;" xml:space="preserve">
<path style="fill:#333333;" d="M12,9.5c-2.206,0-4-1.794-4-4s1.794-4,4-4c2.206,0,4,1.794,4,4S14.206,9.5,12,9.5z M12,2.5
	c-1.654,0-3,1.346-3,3s1.346,3,3,3s3-1.346,3-3S13.654,2.5,12,2.5z"/>
<path style="fill:#333333;" d="M13.771,22.5h-3.543L3.581,12.272L4,11.5h16l0.419,0.772L13.771,22.5z M10.771,21.5h2.457l5.851-9
	H4.921L10.771,21.5z"/>
</svg>






