<?xml version="1.0" encoding="iso-8859-1"?>
<svg version="1.1" id="&#x56FE;&#x5C42;_1" xmlns="http://www.w3.org/2000/svg" xmlns:xlink="http://www.w3.org/1999/xlink" x="0px"
	 y="0px" viewBox="0 0 24 24" style="enable-background:new 0 0 24 24;" xml:space="preserve">
<path style="fill:#333333;" d="M12,8.5c-1.93,0-3.5-1.57-3.5-3.5s1.57-3.5,3.5-3.5s3.5,1.57,3.5,3.5S13.93,8.5,12,8.5z M12,2.5
	c-1.378,0-2.5,1.122-2.5,2.5s1.122,2.5,2.5,2.5c1.379,0,2.5-1.122,2.5-2.5S13.379,2.5,12,2.5z"/>
<path style="fill:#333333;" d="M16,22h-1v-4.783l2.407-1.444L15.572,9.81C15.118,9.5,13.533,8.5,12,8.5
	c-1.539,0-3.131,1.008-3.578,1.314l-1.838,5.513L9,17.26V22H8v-4.26l-2.584-2.067l2.16-6.479L7.7,9.1C7.787,9.035,9.858,7.5,12,7.5
	c2.142,0,4.213,1.535,4.3,1.6l0.13,0.098l2.163,7.03L16,17.783V22z"/>
</svg>






