<?xml version="1.0" encoding="iso-8859-1"?>
<svg version="1.1" id="&#x56FE;&#x5C42;_1" xmlns="http://www.w3.org/2000/svg" xmlns:xlink="http://www.w3.org/1999/xlink" x="0px"
	 y="0px" viewBox="0 0 24 24" style="enable-background:new 0 0 24 24;" xml:space="preserve">
<path style="fill:#333333;" d="M16.122,22.336c-1.693-1.866-2.205-3.052-1.662-3.843l0.116-0.17l0.202-0.038
	c4.152-0.791,6.722-4.48,6.722-7.446c0-3.224-2.254-8.339-8.301-8.339c-4.006,0-6.256,1.726-6.878,5.276L6.277,8.022L6.055,8.136
	C4.137,9.11,3.224,9.627,2.79,9.898c0.615,0.341,1.885,1.05,1.397,2.291c-0.118,0.298-0.282,0.641-0.458,1.008
	c-0.522,1.086-1.237,2.572-0.729,3.28c0.321,0.447,1.033,0.541,1.858,0.648c0.903,0.118,1.926,0.252,2.755,0.91
	c1.063,0.844,1.866,2.129,2.384,3.818L9.04,22.146c-0.458-1.492-1.147-2.612-2.05-3.328c-0.612-0.485-1.452-0.596-2.264-0.702
	C3.76,17.99,2.76,17.859,2.186,17.059c-0.853-1.189-0.024-2.912,0.641-4.296c0.165-0.343,0.319-0.663,0.429-0.941
	c0.127-0.323-0.104-0.579-0.956-1.051c-0.417-0.232-0.72-0.399-0.789-0.741L1.466,9.803L1.63,9.54
	c0.124-0.157,0.352-0.449,3.751-2.184C6.156,3.47,8.785,1.5,13.199,1.5c6.775,0,9.301,5.729,9.301,9.339
	c0,3.83-3.157,7.451-7.241,8.368c0.012,0.265,0.229,0.941,1.604,2.457L16.122,22.336z"/>
<path style="fill:#333333;" d="M13.586,13.733c-0.529,0-0.853-0.22-1.036-0.416c-0.371-0.399-0.506-1.047-0.408-1.972
	c-1.116-0.196-1.92-0.548-2.451-1.069C9.036,9.631,8.893,8.571,9.266,7.125l0.005-0.019c0.251-0.837,0.959-1.375,2.105-1.597
	c0.895-0.172,1.241-0.028,1.571,0.297c0.084,0.083,0.119,0.118,0.369,0.118c1.001,0,2.695,0.279,2.695,1.325
	c0.013-0.04,0.265,0.074,0.869,0.074c0.246,0,0.491,0.135,0.729,0.401c0.553,0.618,1.042,1.864,0.887,3.255
	c-0.071,0.635-0.325,1.103-0.754,1.392c-0.471,0.316-1.106,0.386-1.934,0.22c-0.284,0.514-0.859,1.012-2.012,1.13
	C13.724,13.729,13.653,13.733,13.586,13.733z M10.232,7.384c-0.275,1.071-0.221,1.804,0.16,2.179
	c0.438,0.431,1.238,0.722,2.376,0.865l0.521,0.065l-0.091,0.517c-0.203,1.167-0.01,1.525,0.084,1.625
	c0.027,0.03,0.114,0.119,0.414,0.093c1.012-0.104,1.245-0.539,1.334-0.857l0.134-0.484l0.483,0.136
	c0.722,0.204,1.254,0.211,1.537,0.02c0.065-0.043,0.263-0.177,0.318-0.674c0.147-1.325-0.455-2.345-0.704-2.545
	c-1.553-0.022-1.787-0.679-1.787-1.073c-0.078-0.072-0.749-0.325-1.695-0.325c-0.611,0-0.865-0.202-1.073-0.408
	c-0.071-0.07-0.135-0.13-0.676-0.026C10.453,6.707,10.285,7.207,10.232,7.384z M16.767,8.3C16.767,8.3,16.767,8.3,16.767,8.3
	S16.767,8.3,16.767,8.3z"/>
<path style="fill:#333333;" d="M12.779,16.401l-0.98-0.195c0.12-0.603,0.521-1.133,1.029-1.803c0.159-0.211,0.333-0.44,0.516-0.694
	c0.348-0.485,1.103-1.049,1.643-1.384l0.527,0.85c-0.498,0.309-1.124,0.792-1.357,1.116c-0.188,0.263-0.366,0.498-0.531,0.716
	C13.178,15.598,12.854,16.024,12.779,16.401z"/>
</svg>






