<?xml version="1.0" encoding="iso-8859-1"?>
<svg version="1.1" id="&#x56FE;&#x5C42;_1" xmlns="http://www.w3.org/2000/svg" xmlns:xlink="http://www.w3.org/1999/xlink" x="0px"
	 y="0px" viewBox="0 0 24 24" style="enable-background:new 0 0 24 24;" xml:space="preserve">
<path style="fill:#333333;" d="M12,20.5c-4.687,0-8.5-3.813-8.5-8.5c0-4.687,3.813-8.5,8.5-8.5c4.687,0,8.5,3.813,8.5,8.5
	C20.5,16.687,16.687,20.5,12,20.5z M12,4.5c-4.136,0-7.5,3.364-7.5,7.5s3.364,7.5,7.5,7.5s7.5-3.364,7.5-7.5S16.136,4.5,12,4.5z"/>
<path style="fill:#333333;" d="M12,14.5c-1.378,0-2.5-1.121-2.5-2.5c0-1.378,1.122-2.5,2.5-2.5c1.379,0,2.5,1.122,2.5,2.5
	C14.5,13.379,13.379,14.5,12,14.5z M12,10.5c-0.827,0-1.5,0.673-1.5,1.5s0.673,1.5,1.5,1.5s1.5-0.673,1.5-1.5S12.827,10.5,12,10.5z"
	/>
<path style="fill:#333333;" d="M22.5,12.5h-4.997V12c0-0.726-0.141-1.435-0.419-2.106c-0.278-0.672-0.68-1.272-1.192-1.786
	c-0.514-0.514-1.115-0.915-1.786-1.193C13.436,6.638,12.727,6.497,12,6.497h-0.5V1.5H12c1.385,0,2.737,0.269,4.019,0.799
	c1.279,0.53,2.426,1.296,3.406,2.276c0.979,0.979,1.745,2.125,2.276,3.407C22.231,9.263,22.5,10.615,22.5,12V12.5z M18.484,11.5
	h3.003c-0.057-1.079-0.295-2.131-0.71-3.135c-0.48-1.159-1.174-2.196-2.06-3.083c-0.887-0.887-1.924-1.58-3.082-2.059
	c-1.005-0.416-2.058-0.654-3.136-0.71v3.002c0.684,0.052,1.351,0.211,1.988,0.476c0.793,0.329,1.503,0.803,2.11,1.41
	c0.606,0.606,1.08,1.316,1.409,2.11C18.272,10.149,18.432,10.816,18.484,11.5z"/>
</svg>






