<?xml version="1.0" encoding="iso-8859-1"?>
<svg version="1.1" id="&#x56FE;&#x5C42;_1" xmlns="http://www.w3.org/2000/svg" xmlns:xlink="http://www.w3.org/1999/xlink" x="0px"
	 y="0px" viewBox="0 0 24 24" style="enable-background:new 0 0 24 24;" xml:space="preserve">
<rect x="11.5" y="7.5" style="fill:#333333;" width="1" height="9"/>
<path style="fill:#333333;" d="M19.5,8h-15V4h15V8z M5.5,7h13V5h-13V7z"/>
<polygon style="fill:#333333;" points="19.621,16.326 16.758,13 7.23,13 4.379,16.325 3.621,15.675 6.77,12 17.217,12 
	20.379,15.674 "/>
<path style="fill:#333333;" d="M6.5,21h-5v-5h5V21z M2.5,20h3v-3h-3V20z"/>
<path style="fill:#333333;" d="M14.5,21h-5v-5h5V21z M10.5,20h3v-3h-3V20z"/>
<path style="fill:#333333;" d="M22.5,21h-5v-5h5V21z M18.5,20h3v-3h-3V20z"/>
</svg>






