<?xml version="1.0" encoding="iso-8859-1"?>
<svg version="1.1" id="&#x56FE;&#x5C42;_1" xmlns="http://www.w3.org/2000/svg" xmlns:xlink="http://www.w3.org/1999/xlink" x="0px"
	 y="0px" viewBox="0 0 24 24" style="enable-background:new 0 0 24 24;" xml:space="preserve">
<path style="fill:#333333;" d="M18,6.5c-1.379,0-2.5-1.122-2.5-2.5s1.121-2.5,2.5-2.5s2.5,1.122,2.5,2.5S19.379,6.5,18,6.5z M18,2.5
	c-0.827,0-1.5,0.673-1.5,1.5s0.673,1.5,1.5,1.5s1.5-0.673,1.5-1.5S18.827,2.5,18,2.5z"/>
<path style="fill:#333333;" d="M7,6.5C5.622,6.5,4.5,5.378,4.5,4S5.622,1.5,7,1.5S9.5,2.622,9.5,4S8.378,6.5,7,6.5z M7,2.5
	C6.173,2.5,5.5,3.173,5.5,4S6.173,5.5,7,5.5S8.5,4.827,8.5,4S7.827,2.5,7,2.5z"/>
<path style="fill:#333333;" d="M7,22.5c-1.378,0-2.5-1.121-2.5-2.5s1.122-2.5,2.5-2.5s2.5,1.121,2.5,2.5S8.378,22.5,7,22.5z M7,18.5
	c-0.827,0-1.5,0.673-1.5,1.5s0.673,1.5,1.5,1.5s1.5-0.673,1.5-1.5S7.827,18.5,7,18.5z"/>
<path style="fill:#333333;" d="M7.5,18h-1V6h1v8.371c1.107-1.068,2.979-1.835,4.811-2.584C14.862,10.744,17.5,9.665,17.5,8V6h1v2
	c0,2.335-2.954,3.544-5.811,4.713C10.138,13.757,7.5,14.836,7.5,16.5V18z"/>
</svg>






