<?xml version="1.0" encoding="iso-8859-1"?>
<svg version="1.1" id="&#x56FE;&#x5C42;_1" xmlns="http://www.w3.org/2000/svg" xmlns:xlink="http://www.w3.org/1999/xlink" x="0px"
	 y="0px" viewBox="0 0 24 24" style="enable-background:new 0 0 24 24;" xml:space="preserve">
<path style="fill:#333333;" d="M20,14.5c-1.379,0-2.5-1.121-2.5-2.5c0-1.378,1.121-2.5,2.5-2.5s2.5,1.122,2.5,2.5
	C22.5,13.379,21.379,14.5,20,14.5z M20,10.5c-0.827,0-1.5,0.673-1.5,1.5s0.673,1.5,1.5,1.5s1.5-0.673,1.5-1.5S20.827,10.5,20,10.5z"
	/>
<path style="fill:#333333;" d="M4.5,6.5C3.122,6.5,2,5.378,2,4s1.122-2.5,2.5-2.5S7,2.622,7,4S5.878,6.5,4.5,6.5z M4.5,2.5
	C3.673,2.5,3,3.173,3,4s0.673,1.5,1.5,1.5S6,4.827,6,4S5.327,2.5,4.5,2.5z"/>
<path style="fill:#333333;" d="M4.5,22.5C3.122,22.5,2,21.379,2,20s1.122-2.5,2.5-2.5S7,18.621,7,20S5.878,22.5,4.5,22.5z M4.5,18.5
	C3.673,18.5,3,19.173,3,20s0.673,1.5,1.5,1.5S6,20.827,6,20S5.327,18.5,4.5,18.5z"/>
<polygon style="fill:#333333;" points="5,18 4,18 4,6 5,6 5,11.504 18,11.504 18,12.504 5,12.504 "/>
</svg>






