<?xml version="1.0" encoding="iso-8859-1"?>
<svg version="1.1" id="&#x56FE;&#x5C42;_1" xmlns="http://www.w3.org/2000/svg" xmlns:xlink="http://www.w3.org/1999/xlink" x="0px"
	 y="0px" viewBox="0 0 24 24" style="enable-background:new 0 0 24 24;" xml:space="preserve">
<path style="fill:#333333;" d="M18,22.5H5v-10c0-1.909,2.145-2.989,3-3.344V6.5h7v2.656c0.855,0.355,3,1.435,3,3.344V22.5z M6,21.5
	h11v-9c0-1.595-2.632-2.517-2.658-2.526L14,9.86V7.5H9v2.359L8.659,9.974C7.919,10.223,6,11.161,6,12.5V21.5z"/>
<rect x="5.945" y="3" transform="matrix(0.7593 -0.6508 0.6508 0.7593 -0.2916 6.2116)" style="fill:#333333;" width="4.61" height="0.999"/>
<rect x="9.5" y="2.945" transform="matrix(0.7593 -0.6508 0.6508 0.7593 -1.0092 7.7718)" style="fill:#333333;" width="0.999" height="4.61"/>
<polygon style="fill:#333333;" points="20.18,10.384 17,7.734 17,4.5 13,4.5 13,3.5 18,3.5 18,7.266 20.82,9.616 "/>
</svg>






