<?xml version="1.0" encoding="iso-8859-1"?>
<svg version="1.1" id="&#x56FE;&#x5C42;_1" xmlns="http://www.w3.org/2000/svg" xmlns:xlink="http://www.w3.org/1999/xlink" x="0px"
	 y="0px" viewBox="0 0 24 24" style="enable-background:new 0 0 24 24;" xml:space="preserve">
<path style="fill:#333333;" d="M18.042,20.5H5.958c-2.458,0-4.458-2-4.458-4.458c0-0.781,0.195-1.447,0.581-1.979
	C3.075,12.691,6.03,9.5,12,9.5c5.969,0,8.926,3.191,9.92,4.564c0.385,0.531,0.58,1.196,0.58,1.978C22.5,18.5,20.5,20.5,18.042,20.5z
	 M12,10.5c-5.509,0-8.206,2.902-9.109,4.15C2.631,15.008,2.5,15.476,2.5,16.042c0,1.907,1.551,3.458,3.458,3.458h12.083
	c1.907,0,3.458-1.551,3.458-3.458c0-0.566-0.131-1.034-0.391-1.391C20.206,13.402,17.508,10.5,12,10.5z"/>
<rect x="5.5" y="4.5" style="fill:#333333;" width="1" height="2"/>
<rect x="6.5" y="11" style="fill:#333333;" width="1" height="2"/>
<rect x="17.5" y="4.5" style="fill:#333333;" width="1" height="2"/>
<rect x="16.5" y="11" style="fill:#333333;" width="1" height="2"/>
<rect x="11.5" y="3.5" style="fill:#333333;" width="1" height="3"/>
<rect x="11.5" y="10" style="fill:#333333;" width="1" height="4"/>
<path style="fill:#333333;" d="M19.674,13.101C18.297,11.914,15.848,10.5,12,10.5c-3.847,0-6.296,1.414-7.674,2.601l-0.652-0.758
	C5.179,11.046,7.846,9.5,12,9.5s6.821,1.546,8.326,2.843L19.674,13.101z"/>
</svg>






