<?xml version="1.0" encoding="iso-8859-1"?>
<svg version="1.1" id="&#x56FE;&#x5C42;_1" xmlns="http://www.w3.org/2000/svg" xmlns:xlink="http://www.w3.org/1999/xlink" x="0px"
	 y="0px" viewBox="0 0 24 24" style="enable-background:new 0 0 24 24;" xml:space="preserve">
<path style="fill:#333333;" d="M18.5,20h-13C4.122,20,3,18.879,3,17.5v-4C3,11.019,5.019,9,7.5,9h9c2.481,0,4.5,2.019,4.5,4.5v4
	C21,18.879,19.879,20,18.5,20z M7.5,10C5.57,10,4,11.57,4,13.5v4C4,18.327,4.673,19,5.5,19h13c0.827,0,1.5-0.673,1.5-1.5v-4
	c0-1.93-1.57-3.5-3.5-3.5H7.5z"/>
<path style="fill:#333333;" d="M17.5,9.5h-1v-4H17c0.95,0,1.375-0.628,1.375-1.25S17.95,3,17,3H7C6.561,3,6.2,3.135,5.956,3.392
	C5.743,3.616,5.625,3.92,5.625,4.25C5.625,4.872,6.05,5.5,7,5.5h0.5v4h-1V6.458C5.267,6.245,4.625,5.242,4.625,4.25
	c0-0.587,0.215-1.137,0.606-1.548C5.537,2.382,6.091,2,7,2h10c1.56,0,2.375,1.132,2.375,2.25c0,0.992-0.642,1.995-1.875,2.208V9.5z"
	/>
<rect x="9.793" y="5.5" transform="matrix(0.7071 -0.7071 0.7071 0.7071 -1.1673 9.182)" style="fill:#333333;" width="1.414" height="1"/>
<rect x="12.793" y="5.5" transform="matrix(0.7071 -0.7071 0.7071 0.7071 -0.2886 11.3033)" style="fill:#333333;" width="1.414" height="1"/>
<path style="fill:#333333;" d="M12,17c-1.378,0-2.5-1.121-2.5-2.5S10.622,12,12,12c1.379,0,2.5,1.121,2.5,2.5S13.379,17,12,17z
	 M12,13c-0.827,0-1.5,0.673-1.5,1.5S11.173,16,12,16s1.5-0.673,1.5-1.5S12.827,13,12,13z"/>
<rect x="7" y="19.5" style="fill:#333333;" width="1" height="2"/>
<rect x="16" y="19.5" style="fill:#333333;" width="1" height="2"/>
</svg>






