<?xml version="1.0" encoding="iso-8859-1"?>
<svg version="1.1" id="&#x56FE;&#x5C42;_1" xmlns="http://www.w3.org/2000/svg" xmlns:xlink="http://www.w3.org/1999/xlink" x="0px"
	 y="0px" viewBox="0 0 24 24" style="enable-background:new 0 0 24 24;" xml:space="preserve">
<path style="fill:#333333;" d="M15.941,17.735l-0.883-0.471c0.04-0.075,4.009-7.517,4.994-9.488c0.385-0.77,0.436-1.605,0.147-2.415
	c-0.362-1.016-1.216-1.871-2.405-2.406c-2.223-1-4.919-0.427-6.411,1.364c-2.454,2.945-6.428,8.897-6.468,8.957l-0.832-0.555
	c0.04-0.061,4.043-6.057,6.532-9.043c1.775-2.128,4.967-2.817,7.589-1.636c1.44,0.648,2.483,1.707,2.938,2.982
	c0.376,1.057,0.307,2.192-0.195,3.197C19.956,10.207,15.981,17.66,15.941,17.735z"/>
<path style="fill:#333333;" d="M11.256,21.5c-0.319,0-0.646-0.016-0.978-0.032c-0.637-0.031-1.321-0.035-1.964-0.013
	c-1.29,0.042-2.504,0.085-3.526-0.66C3.334,19.733,2.5,18.202,2.5,16.594C2.5,13.3,5.276,11,9.25,11c3.722,0,6.75,2.51,6.75,5.594
	c0,1.688-0.902,3.268-2.477,4.333C12.832,21.396,12.066,21.5,11.256,21.5z M9.25,20.434c0.368,0,0.728,0.018,1.078,0.035
	c1.043,0.05,1.944,0.097,2.635-0.37C14.258,19.222,15,17.944,15,16.594C15,14.061,12.421,12,9.25,12c-3.386,0-5.75,1.889-5.75,4.594
	c0,1.286,0.685,2.522,1.878,3.393c0.743,0.543,1.746,0.507,2.902,0.469C8.597,20.444,8.92,20.434,9.25,20.434z"/>
<path style="fill:#333333;" d="M9.974,18.5c-0.123,0-0.244-0.006-0.365-0.011c-0.117-0.005-0.237-0.011-0.359-0.011l-0.33,0.007
	c-0.489,0.014-0.993,0.029-1.44-0.257c-0.623-0.398-0.98-0.989-0.98-1.62c0-1.241,1.131-2.108,2.75-2.108
	c1.542,0,2.75,0.926,2.75,2.108c0,0.66-0.385,1.268-1.057,1.668C10.633,18.461,10.303,18.5,9.974,18.5z M9.25,17.479
	c0.137,0,0.272,0.006,0.403,0.012c0.328,0.014,0.61,0.026,0.779-0.073C10.793,17.202,11,16.907,11,16.608
	c0-0.601-0.801-1.108-1.75-1.108c-0.843,0-1.75,0.347-1.75,1.108c0,0.283,0.189,0.566,0.52,0.778
	c0.187,0.12,0.504,0.109,0.871,0.099C9.008,17.482,9.128,17.479,9.25,17.479z"/>
<path style="fill:#333333;" d="M11.392,9.488C9.304,9.024,7.653,9.477,7.636,9.481L7.363,8.519c0.076-0.021,1.898-0.529,4.246-0.007
	L11.392,9.488z"/>
<path style="fill:#333333;" d="M10.196,5.96L9.803,5.041c0.08-0.035,1.969-0.826,3.894,0l-0.395,0.919
	C11.781,5.308,10.211,5.953,10.196,5.96z"/>
</svg>






