<?xml version="1.0" encoding="iso-8859-1"?>
<svg version="1.1" id="&#x56FE;&#x5C42;_1" xmlns="http://www.w3.org/2000/svg" xmlns:xlink="http://www.w3.org/1999/xlink" x="0px"
	 y="0px" viewBox="0 0 24 24" style="enable-background:new 0 0 24 24;" xml:space="preserve">
<path style="fill:#333333;" d="M22.5,17h-5v-0.5c0-3.032-2.468-5.5-5.5-5.5c-3.033,0-5.5,2.468-5.5,5.5V17h-5V9.139l0.342-0.114
	C2.091,8.943,7.983,7,12,7c4.018,0,9.909,1.943,10.157,2.025L22.5,9.139V17z M18.481,16H21.5V9.865C20.178,9.45,15.319,8,12,8
	C8.678,8,3.822,9.45,2.5,9.865V16h3.019c0.256-3.352,3.065-6,6.481-6S18.225,12.648,18.481,16z"/>
</svg>






