<?xml version="1.0" encoding="iso-8859-1"?>
<svg version="1.1" id="&#x56FE;&#x5C42;_1" xmlns="http://www.w3.org/2000/svg" xmlns:xlink="http://www.w3.org/1999/xlink" x="0px"
	 y="0px" viewBox="0 0 24 24" style="enable-background:new 0 0 24 24;" xml:space="preserve">
<path style="fill:#333333;" d="M16.5,8h-1c0-2.878-1.668-5.5-3.5-5.5c-1.832,0-3.5,2.622-3.5,5.5h-1c0-3.074,1.848-6.5,4.5-6.5
	C14.652,1.5,16.5,4.926,16.5,8z"/>
<path style="fill:#333333;" d="M20.543,14.5H13V13h-2v1.5H3.457l0.583-7h15.92L20.543,14.5z M14,13.5h5.457l-0.417-5H4.96l-0.417,5
	H10V12h4V13.5z"/>
<polygon style="fill:#333333;" points="21.576,21.5 2.423,21.5 3.505,13.93 4.495,14.07 3.577,20.5 20.424,20.5 19.505,14.07 
	20.495,13.93 "/>
<path style="fill:#333333;" d="M14,16h-4v-4h4V16z M11,15h2v-2h-2V15z"/>
</svg>






