<?xml version="1.0" encoding="iso-8859-1"?>
<svg version="1.1" id="&#x56FE;&#x5C42;_1" xmlns="http://www.w3.org/2000/svg" xmlns:xlink="http://www.w3.org/1999/xlink" x="0px"
	 y="0px" viewBox="0 0 24 24" style="enable-background:new 0 0 24 24;" xml:space="preserve">
<path style="fill:#333333;" d="M12.01,18.177c-3.308,0-6-2.691-6-6s2.691-6,6-6c3.309,0,6,2.691,6,6S15.318,18.177,12.01,18.177z
	 M12.01,7.177c-2.757,0-5,2.243-5,5s2.243,5,5,5s5-2.243,5-5S14.767,7.177,12.01,7.177z"/>
<rect x="17.993" y="4.624" transform="matrix(0.7052 -0.7091 0.7091 0.7052 1.9295 14.8872)" style="fill:#333333;" width="1.745" height="1"/>
<rect x="4.296" y="18.387" transform="matrix(0.7052 -0.7091 0.7091 0.7052 -11.911 9.1296)" style="fill:#333333;" width="1.452" height="1"/>
<rect x="11.5" y="20.677" style="fill:#333333;" width="1" height="1.5"/>
<rect x="20" y="11.177" style="fill:#333333;" width="2" height="1"/>
<rect x="18.883" y="17.913" transform="matrix(0.7071 -0.7071 0.7071 0.7071 -7.6055 19.208)" style="fill:#333333;" width="1" height="1.744"/>
<path style="fill-rule:evenodd;clip-rule:evenodd;fill:#333333;" d="M12.01,8.677c-1.933,0-3.5,1.567-3.5,3.5s1.567,3.5,3.5,3.5"/>
<rect x="2" y="11.677" style="fill:#333333;" width="2" height="1"/>
<rect x="5.035" y="4.292" transform="matrix(0.7069 -0.7073 0.7073 0.7069 -1.9269 5.3857)" style="fill:#333333;" width="1" height="1.452"/>
<rect x="11.5" y="1.677" style="fill:#333333;" width="1" height="2"/>
</svg>






