<?xml version="1.0" encoding="iso-8859-1"?>
<svg version="1.1" id="&#x56FE;&#x5C42;_1" xmlns="http://www.w3.org/2000/svg" xmlns:xlink="http://www.w3.org/1999/xlink" x="0px"
	 y="0px" viewBox="0 0 24 24" style="enable-background:new 0 0 24 24;" xml:space="preserve">
<path style="fill:#333333;" d="M20.5,21.5h-11c-0.551,0-1-0.448-1-1v-11c0-0.551,0.449-1,1-1h11c0.552,0,1,0.449,1,1v11
	C21.5,21.052,21.052,21.5,20.5,21.5z M9.5,9.5v11h11v-11H9.5z"/>
<polygon style="fill:#333333;" points="3.5,5.017 2.5,5.017 2.5,2.5 4.984,2.5 4.984,3.5 3.5,3.5 "/>
<polygon style="fill:#333333;" points="4.999,15.5 2.5,15.5 2.5,13.006 3.5,13.006 3.5,14.5 4.999,14.5 "/>
<polygon style="fill:#333333;" points="15.5,5.008 14.5,5.008 14.5,3.5 13.001,3.5 13.001,2.5 15.5,2.5 "/>
<rect x="8.014" y="2.5" style="fill:#333333;" width="1.99" height="1"/>
<rect x="2.5" y="8" style="fill:#333333;" width="1" height="2"/>
<rect x="14.5" y="8" style="fill:#333333;" width="1" height="1.338"/>
<rect x="7.996" y="14.5" style="fill:#333333;" width="1.004" height="1"/>
</svg>






