<?xml version="1.0" encoding="iso-8859-1"?>
<svg version="1.1" id="&#x56FE;&#x5C42;_1" xmlns="http://www.w3.org/2000/svg" xmlns:xlink="http://www.w3.org/1999/xlink" x="0px"
	 y="0px" viewBox="0 0 24 24" style="enable-background:new 0 0 24 24;" xml:space="preserve">
<path style="fill:#333333;" d="M12,14.814c-1.529,0-2.772-1.24-2.772-2.766c0-1.525,1.244-2.766,2.772-2.766
	c1.528,0,2.772,1.241,2.772,2.766C14.772,13.574,13.528,14.814,12,14.814z M12,10.283c-0.978,0-1.772,0.792-1.772,1.766
	s0.795,1.766,1.772,1.766s1.772-0.792,1.772-1.766S12.978,10.283,12,10.283z"/>
<path style="fill:#333333;" d="M7.659,16.866C6.267,15.568,5.5,13.84,5.5,12s0.767-3.568,2.159-4.866l0.682,0.731
	C7.154,8.972,6.5,10.44,6.5,12s0.654,3.027,1.841,4.134L7.659,16.866z"/>
<path style="fill:#333333;" d="M16.341,16.866l-0.682-0.732C16.847,15.027,17.5,13.56,17.5,12s-0.653-3.028-1.841-4.134l0.682-0.731
	C17.733,8.432,18.5,10.16,18.5,12C18.5,13.84,17.733,15.568,16.341,16.866z"/>
<path style="fill:#333333;" d="M4.576,19.452C2.592,17.475,1.5,14.846,1.5,12.05c0-2.797,1.092-5.426,3.076-7.404l0.706,0.708
	C3.488,7.143,2.5,9.521,2.5,12.049c0,2.529,0.988,4.906,2.782,6.694L4.576,19.452z"/>
<path style="fill:#333333;" d="M19.424,19.452l-0.705-0.709c1.793-1.788,2.781-4.165,2.781-6.694c0-2.528-0.987-4.906-2.781-6.695
	l0.705-0.708C21.408,6.624,22.5,9.252,22.5,12.05C22.5,14.846,21.408,17.475,19.424,19.452z"/>
</svg>






