<?xml version="1.0" encoding="iso-8859-1"?>
<svg version="1.1" id="&#x56FE;&#x5C42;_1" xmlns="http://www.w3.org/2000/svg" xmlns:xlink="http://www.w3.org/1999/xlink" x="0px"
	 y="0px" viewBox="0 0 24 24" style="enable-background:new 0 0 24 24;" xml:space="preserve">
<path style="fill:#333333;" d="M22.5,20.5h-21v-15h21V20.5z M2.5,19.5h19v-13h-19V19.5z"/>
<path style="fill:#333333;" d="M15.5,16c-1.654,0-3-1.346-3-3s1.346-3,3-3s3,1.346,3,3S17.154,16,15.5,16z M15.5,11
	c-1.103,0-2,0.897-2,2c0,1.103,0.897,2,2,2s2-0.897,2-2C17.5,11.897,16.603,11,15.5,11z"/>
<rect x="6" y="10.5" style="fill:#333333;" width="3" height="1"/>
<rect x="6" y="14.5" style="fill:#333333;" width="3" height="1"/>
<rect x="3.5" y="20" style="fill:#333333;" width="1" height="2"/>
<rect x="19.5" y="20" style="fill:#333333;" width="1" height="2"/>
<rect x="3.72" y="3.5" transform="matrix(0.9616 -0.2743 0.2743 0.9616 -0.6753 3.1711)" style="fill:#333333;" width="14.56" height="1"/>
</svg>






