<?xml version="1.0" encoding="iso-8859-1"?>
<svg version="1.1" id="&#x56FE;&#x5C42;_1" xmlns="http://www.w3.org/2000/svg" xmlns:xlink="http://www.w3.org/1999/xlink" x="0px"
	 y="0px" viewBox="0 0 24 24" style="enable-background:new 0 0 24 24;" xml:space="preserve">
<path style="fill:#333333;" d="M12,22.5C6.21,22.5,1.5,17.79,1.5,12C1.5,6.21,6.21,1.5,12,1.5c5.79,0,10.5,4.71,10.5,10.5
	C22.5,17.79,17.79,22.5,12,22.5z M9.465,21.156C10.272,21.381,11.123,21.5,12,21.5c5.238,0,9.5-4.262,9.5-9.5
	c0-1.428-0.316-2.784-0.884-4h-5.619C16.212,8.913,17,10.366,17,12c0,1.573-0.73,2.979-1.869,3.896L9.465,21.156z M3.121,8.62
	C2.72,9.671,2.5,10.81,2.5,12c0,3.962,2.438,7.365,5.892,8.788l4.106-3.812C12.335,16.991,12.168,17,12,17
	c-1.602,0-3.03-0.757-3.945-1.932L8.04,15.079L3.121,8.62z M12,8c-2.206,0-4,1.794-4,4c0,2.206,1.794,4,4,4
	c0.934,0,1.793-0.321,2.474-0.858l0.009-0.008C15.406,14.401,16,13.269,16,12C16,9.794,14.206,8,12,8z M3.59,7.585L7,12.063
	C7,12.043,7,12.021,7,12c0-2.757,2.243-5,5-5h8.075C18.397,4.301,15.405,2.5,12,2.5C8.354,2.5,5.182,4.564,3.59,7.585z"/>
</svg>






