<?xml version="1.0" encoding="iso-8859-1"?>
<svg version="1.1" id="&#x56FE;&#x5C42;_1" xmlns="http://www.w3.org/2000/svg" xmlns:xlink="http://www.w3.org/1999/xlink" x="0px"
	 y="0px" viewBox="0 0 24 24" style="enable-background:new 0 0 24 24;" xml:space="preserve">
<path style="fill:#333333;" d="M17,12c-2.757,0-5-2.243-5-5s2.243-5,5-5s5,2.243,5,5S19.757,12,17,12z M17,3c-2.206,0-4,1.794-4,4
	s1.794,4,4,4s4-1.794,4-4S19.206,3,17,3z"/>
<path style="fill:#333333;" d="M6,16.5c-2.206,0-4-1.794-4-4c0-2.206,1.794-4,4-4s4,1.794,4,4C10,14.706,8.206,16.5,6,16.5z M6,9.5
	c-1.654,0-3,1.346-3,3s1.346,3,3,3s3-1.346,3-3S7.654,9.5,6,9.5z"/>
<path style="fill:#333333;" d="M14.5,21.5c-1.654,0-3-1.346-3-3s1.346-3,3-3s3,1.346,3,3S16.154,21.5,14.5,21.5z M14.5,16.5
	c-1.103,0-2,0.897-2,2s0.897,2,2,2s2-0.897,2-2S15.603,16.5,14.5,16.5z"/>
</svg>






