<?xml version="1.0" encoding="iso-8859-1"?>
<svg version="1.1" id="&#x56FE;&#x5C42;_1" xmlns="http://www.w3.org/2000/svg" xmlns:xlink="http://www.w3.org/1999/xlink" x="0px"
	 y="0px" viewBox="0 0 24 24" style="enable-background:new 0 0 24 24;" xml:space="preserve">
<path style="fill:#333333;" d="M12,21.5c-5.933,0-7.5-4.906-7.5-7.5V6.5h15V14C19.5,16.594,17.933,21.5,12,21.5z M5.5,7.5V14
	c0,0.065,0.074,6.5,6.5,6.5s6.5-6.234,6.5-6.5V7.5H5.5z"/>
<rect x="3" y="3.379" transform="matrix(0.7071 -0.7071 0.7071 0.7071 -2.864 4.0858)" style="fill:#333333;" width="1" height="4.243"/>
<rect x="18.379" y="5" transform="matrix(0.7071 -0.7071 0.7071 0.7071 2.1152 16.1066)" style="fill:#333333;" width="4.243" height="1"/>
<rect x="2" y="13" style="fill:#333333;" width="3" height="1"/>
<rect x="19" y="13" style="fill:#333333;" width="3" height="1"/>
<rect x="2.879" y="20" transform="matrix(0.7071 -0.7071 0.7071 0.7071 -13.0312 9.5398)" style="fill:#333333;" width="4.243" height="1"/>
<rect x="18.5" y="18.379" transform="matrix(0.7071 -0.7071 0.7071 0.7071 -8.9307 19.4393)" style="fill:#333333;" width="1" height="4.243"/>
<rect x="11.5" y="7" style="fill:#333333;" width="1" height="14"/>
<path style="fill:#333333;" d="M12,21.5c-1.96,0-3.595-0.537-4.861-1.596l0.642-0.768C8.862,20.041,10.281,20.5,12,20.5
	c1.733,0,3.162-0.463,4.245-1.376l0.645,0.766C15.621,20.958,13.977,21.5,12,21.5z"/>
<path style="fill:#333333;" d="M16.5,7.5h-9V6.167C7.5,3.593,9.519,1.5,12,1.5s4.5,2.093,4.5,4.667V7.5z M8.5,6.5h7V6.167
	C15.5,4.145,13.93,2.5,12,2.5S8.5,4.145,8.5,6.167V6.5z"/>
</svg>






