<?xml version="1.0" encoding="iso-8859-1"?>
<svg version="1.1" id="&#x56FE;&#x5C42;_1" xmlns="http://www.w3.org/2000/svg" xmlns:xlink="http://www.w3.org/1999/xlink" x="0px"
	 y="0px" viewBox="0 0 24 24" style="enable-background:new 0 0 24 24;" xml:space="preserve">
<polygon style="fill:#333333;" points="21,21.5 2.5,21.5 2.5,3 3.5,3 3.5,20.5 21,20.5 "/>
<path style="fill:#333333;" d="M18.5,20h-1V4.5c0-0.271-0.31-0.5-0.677-0.5H9.176C8.81,4,8.5,4.229,8.5,4.5V20h-1V4.5
	C7.5,3.673,8.252,3,9.176,3h7.647C17.748,3,18.5,3.673,18.5,4.5V20z"/>
<rect x="8.5" y="15.555" style="fill:#333333;" width="8.5" height="1"/>
<rect x="11" y="9" style="fill:#333333;" width="4" height="1"/>
<rect x="12.5" y="7" style="fill:#333333;" width="1" height="9.054"/>
</svg>






