<?xml version="1.0" encoding="iso-8859-1"?>
<svg version="1.1" id="&#x56FE;&#x5C42;_1" xmlns="http://www.w3.org/2000/svg" xmlns:xlink="http://www.w3.org/1999/xlink" x="0px"
	 y="0px" viewBox="0 0 24 24" style="enable-background:new 0 0 24 24;" xml:space="preserve">
<path style="fill:#333333;" d="M21,20.5H3c-0.827,0-1.5-0.673-1.5-1.5V3c0-0.827,0.673-1.5,1.5-1.5h18c0.827,0,1.5,0.673,1.5,1.5v16
	C22.5,19.827,21.827,20.5,21,20.5z M3,2.5C2.724,2.5,2.5,2.724,2.5,3v16c0,0.275,0.224,0.5,0.5,0.5h18c0.275,0,0.5-0.225,0.5-0.5V3
	c0-0.276-0.225-0.5-0.5-0.5H3z"/>
<path style="fill:#333333;" d="M8.5,22.5h-5v-3h5V22.5z M4.5,21.5h3v-1h-3V21.5z"/>
<path style="fill:#333333;" d="M20.5,22.5h-5v-3h5V22.5z M16.5,21.5h3v-1h-3V21.5z"/>
<rect x="10.5" y="7.5" style="fill:#333333;" width="3" height="1"/>
<rect x="5" y="16.5" style="fill:#333333;" width="1" height="1"/>
<rect x="9.5" y="16.5" style="fill:#333333;" width="5" height="1"/>
<rect x="2" y="12" style="fill:#333333;" width="20" height="1"/>
<rect x="2" y="4.5" style="fill:#333333;" width="20" height="1"/>
<rect x="18" y="16.5" style="fill:#333333;" width="1" height="1"/>
<rect x="1.5" y="3" style="fill:#333333;" width="1" height="4"/>
<rect x="21.5" y="3" style="fill:#333333;" width="1" height="4"/>
<rect x="1.5" y="10.5" style="fill:#333333;" width="1" height="4"/>
<rect x="21.5" y="10.5" style="fill:#333333;" width="1" height="4"/>
</svg>






