<?xml version="1.0" encoding="iso-8859-1"?>
<svg version="1.1" id="&#x56FE;&#x5C42;_1" xmlns="http://www.w3.org/2000/svg" xmlns:xlink="http://www.w3.org/1999/xlink" x="0px"
	 y="0px" viewBox="0 0 24 24" style="enable-background:new 0 0 24 24;" xml:space="preserve">
<path style="fill:#333333;" d="M18.5,20h-13c-1.103,0-2-0.897-2-2V4c0-1.103,0.897-2,2-2h13c1.103,0,2,0.897,2,2v14
	C20.5,19.103,19.603,20,18.5,20z M5.5,3c-0.551,0-1,0.449-1,1v14c0,0.552,0.449,1,1,1h13c0.552,0,1-0.448,1-1V4c0-0.551-0.448-1-1-1
	H5.5z"/>
<rect x="6.5" y="19.5" style="fill:#333333;" width="1" height="2"/>
<rect x="16.5" y="19.5" style="fill:#333333;" width="1" height="2"/>
<circle style="fill:#333333;" cx="17" cy="16.5" r="1"/>
<circle style="fill:#333333;" cx="7" cy="16.5" r="1"/>
<rect x="4" y="11" style="fill:#333333;" width="16" height="1"/>
<rect x="3.5" y="10.5" style="fill:#333333;" width="1" height="2"/>
<rect x="19.5" y="10.5" style="fill:#333333;" width="1" height="2"/>
<rect x="9" y="6" style="fill:#333333;" width="6" height="1"/>
</svg>






