<?xml version="1.0" encoding="iso-8859-1"?>
<svg version="1.1" id="&#x56FE;&#x5C42;_1" xmlns="http://www.w3.org/2000/svg" xmlns:xlink="http://www.w3.org/1999/xlink" x="0px"
	 y="0px" viewBox="0 0 24 24" style="enable-background:new 0 0 24 24;" xml:space="preserve">
<path style="fill:#333333;" d="M16.503,21.5c-1.378,0-2.499-1.12-2.501-2.497h-3.998C10.003,20.38,8.882,21.5,7.505,21.5
	s-2.498-1.12-2.499-2.497h-0.5c-1.103,0-2-0.897-2-2V4.018c0-0.827,0.673-1.5,1.5-1.5H20c0.827,0,1.5,0.673,1.5,1.5v12.985
	c0,1.103-0.897,2-2,2h-0.497C19.001,20.38,17.881,21.5,16.503,21.5z M9.004,18.003h5.998V19c0,0.827,0.673,1.5,1.5,1.5
	s1.501-0.673,1.501-1.5v-0.997H19.5c0.552,0,1-0.448,1-1V4.018c0-0.276-0.225-0.5-0.5-0.5H4.006c-0.276,0-0.5,0.224-0.5,0.5v12.985
	c0,0.552,0.449,1,1,1h1.5v0.998c0,0.826,0.672,1.499,1.499,1.499s1.499-0.673,1.499-1.499V18.003z"/>
<rect x="3" y="11" style="fill:#333333;" width="18" height="1"/>
<path style="fill:#333333;" d="M17.5,12h-11V6h11V12z M7.5,11h9V7h-9V11z"/>
<rect x="7" y="14.5" style="fill:#333333;" width="1" height="1"/>
<rect x="16" y="14.5" style="fill:#333333;" width="1" height="1"/>
</svg>






