<?xml version="1.0" encoding="iso-8859-1"?>
<svg version="1.1" id="&#x56FE;&#x5C42;_1" xmlns="http://www.w3.org/2000/svg" xmlns:xlink="http://www.w3.org/1999/xlink" x="0px"
	 y="0px" viewBox="0 0 24 24" style="enable-background:new 0 0 24 24;" xml:space="preserve">
<path style="fill:#333333;" d="M17.151,13.665l-9.927-9.65c-0.38-0.37-0.992-0.361-1.363,0.02C5.424,4.54,5.452,5.238,5.885,5.668
	l5.012,4.965l-0.704,0.71L5.181,6.378C4.376,5.581,4.325,4.284,5.064,3.425l0.081-0.088C5.9,2.562,7.146,2.544,7.921,3.298
	l9.927,9.65L17.151,13.665z"/>
<path style="fill:#333333;" d="M7.771,13.657L2.187,7.96C1.461,7.122,1.553,5.846,2.394,5.119c0.881-0.762,2.22-0.717,3.047,0.104
	l5.457,5.411l-0.704,0.71L4.737,5.932C4.278,5.479,3.536,5.453,3.048,5.875C2.843,6.052,2.719,6.299,2.7,6.57
	C2.68,6.841,2.767,7.103,2.944,7.308l5.54,5.648L7.771,13.657z"/>
<path style="fill:#333333;" d="M14.31,22.026c-1.492,0-3.107-0.547-4.085-1.367c-0.481-0.402-2.478-2.157-7.946-7.808
	c-0.816-0.856-0.784-2.199,0.061-3.003c0.846-0.807,2.2-0.784,3.019,0.052l3.12,3.049l-0.699,0.715L4.65,10.607
	c-0.445-0.455-1.169-0.467-1.623-0.036c-0.445,0.425-0.462,1.133-0.037,1.579c5.44,5.621,7.403,7.348,7.875,7.742
	c1.248,1.047,3.9,1.569,5.222,0.691c1.499-1,2.738-2.356,3.316-3.627c0.368-0.811,1.108-3.4,2.199-7.696
	c0.075-0.298,0.03-0.608-0.127-0.873c-0.157-0.265-0.408-0.452-0.707-0.528c-0.675-0.16-1.335,0.233-1.513,0.885l-1.274,4.692
	l-0.965-0.262l1.274-4.693c0.318-1.172,1.495-1.876,2.679-1.603c0.603,0.152,1.071,0.502,1.365,0.997s0.378,1.073,0.236,1.63
	c-1.121,4.414-1.859,6.986-2.258,7.864c-0.651,1.433-2.024,2.945-3.672,4.045C16.007,21.841,15.179,22.026,14.31,22.026z"/>
<path style="fill:#333333;" d="M15.441,6.611c-0.334-0.5-0.721-0.972-1.15-1.402c-0.428-0.427-0.899-0.814-1.402-1.151
	c-0.251-0.168-0.51-0.324-0.777-0.467c-0.266-0.142-0.54-0.272-0.821-0.389l0.383-0.924c0.311,0.129,0.615,0.273,0.909,0.431
	c0.297,0.159,0.585,0.332,0.863,0.518c0.557,0.373,1.079,0.802,1.553,1.275c0.476,0.477,0.905,1,1.275,1.553L15.441,6.611z"/>
<path style="fill:#333333;" d="M6.564,21.156c-0.304-0.145-0.6-0.304-0.887-0.478c-0.288-0.175-0.566-0.361-0.834-0.562
	C4.31,19.717,3.81,19.261,3.36,18.762c-0.448-0.498-0.849-1.043-1.192-1.618l0.859-0.512c0.31,0.52,0.671,1.011,1.076,1.46
	c0.407,0.451,0.857,0.863,1.339,1.224c0.243,0.182,0.494,0.351,0.753,0.508c0.258,0.156,0.524,0.3,0.798,0.431L6.564,21.156z"/>
</svg>






