<?xml version="1.0" encoding="iso-8859-1"?>
<svg version="1.1" id="&#x56FE;&#x5C42;_1" xmlns="http://www.w3.org/2000/svg" xmlns:xlink="http://www.w3.org/1999/xlink" x="0px"
	 y="0px" viewBox="0 0 24 24" style="enable-background:new 0 0 24 24;" xml:space="preserve">
<path style="fill:#333333;" d="M2,20.238V2.762l3.5,1.4v14.677L2,20.238z M3,4.238v14.523l1.5-0.601V4.838L3,4.238z"/>
<path style="fill:#333333;" d="M7.5,20.238v-9.477l3.5,1.399v6.678L7.5,20.238z M8.5,12.238v6.523l1.5-0.601v-5.322L8.5,12.238z"/>
<path style="fill:#333333;" d="M16.5,18.238L13,16.839v-6.677l3.5-1.4V18.238z M14,16.161l1.5,0.601v-6.523l-1.5,0.6V16.161z"/>
<path style="fill:#333333;" d="M18.5,20.238V3.762l3.5,1.4v13.677L18.5,20.238z M19.5,5.238v13.523l1.5-0.601V5.838L19.5,5.238z"/>
</svg>






