<?xml version="1.0" encoding="iso-8859-1"?>
<svg version="1.1" id="&#x56FE;&#x5C42;_1" xmlns="http://www.w3.org/2000/svg" xmlns:xlink="http://www.w3.org/1999/xlink" x="0px"
	 y="0px" viewBox="0 0 24 24" style="enable-background:new 0 0 24 24;" xml:space="preserve">
<path style="fill:#333333;" d="M12,22.5C6.21,22.5,1.5,17.79,1.5,12C1.5,6.21,6.21,1.5,12,1.5c5.79,0,10.5,4.71,10.5,10.5
	C22.5,17.79,17.79,22.5,12,22.5z M12,2.5c-5.238,0-9.5,4.262-9.5,9.5s4.262,9.5,9.5,9.5s9.5-4.262,9.5-9.5S17.238,2.5,12,2.5z"/>
<rect x="10.5" y="11.5" transform="matrix(0.7071 -0.7071 0.7071 0.7071 -4.9706 12)" style="fill:#333333;" width="3" height="1"/>
<path style="fill:#333333;" d="M16.596,13.768l-0.707-0.707l0.707-0.707c0.283-0.283,0.439-0.66,0.439-1.061
	s-0.156-0.777-0.439-1.061l-2.828-2.829c-0.584-0.585-1.536-0.585-2.121,0l-0.707,0.707l-0.707-0.707l0.707-0.707
	c0.975-0.975,2.561-0.975,3.535,0l2.828,2.829c0.473,0.472,0.732,1.1,0.732,1.768s-0.26,1.296-0.732,1.768L16.596,13.768z"/>
<path style="fill:#333333;" d="M11.292,18.034c-0.64,0-1.28-0.243-1.768-0.73l-2.828-2.829c-0.975-0.975-0.975-2.561,0-3.535
	l0.707-0.707l0.707,0.707l-0.707,0.707c-0.585,0.585-0.585,1.536,0,2.121l2.828,2.829c0.585,0.584,1.538,0.584,2.122,0l0.707-0.708
	l0.707,0.707l-0.707,0.708C12.573,17.79,11.933,18.034,11.292,18.034z"/>
</svg>






