<?xml version="1.0" encoding="iso-8859-1"?>
<svg version="1.1" id="&#x56FE;&#x5C42;_1" xmlns="http://www.w3.org/2000/svg" xmlns:xlink="http://www.w3.org/1999/xlink" x="0px"
	 y="0px" viewBox="0 0 24 24" style="enable-background:new 0 0 24 24;" xml:space="preserve">
<path style="fill:#333333;" d="M17.36,21.5H6.64c-0.583,0-1.117-0.342-1.362-0.871l-2.539-5.5c-0.184-0.399-0.184-0.858,0-1.258
	l2.539-5.5C5.522,7.842,6.057,7.5,6.64,7.5H17.36c0.582,0,1.117,0.342,1.362,0.871l2.538,5.5c0.185,0.399,0.185,0.858,0,1.258
	l-2.538,5.5C18.478,21.158,17.942,21.5,17.36,21.5z M6.64,8.5c-0.194,0-0.372,0.114-0.454,0.291l-2.539,5.5
	c-0.062,0.133-0.062,0.285,0,0.418l2.539,5.5C6.268,20.386,6.445,20.5,6.64,20.5H17.36c0.194,0,0.373-0.114,0.454-0.291l2.538-5.5
	c0.062-0.133,0.062-0.285,0-0.418l-2.538-5.5C17.733,8.614,17.555,8.5,17.36,8.5H6.64z"/>
<polygon style="fill:#333333;" points="9.5,17 4,17 4,16 8.5,16 8.5,12 4.5,12 4.5,11 9.5,11 "/>
<polygon style="fill:#333333;" points="20,16.5 12,16.5 12,11 19.5,11 19.5,12 13,12 13,15.5 20,15.5 "/>
<path style="fill:#333333;" d="M5.036,5.023c-0.664,0-1.03-0.021-1.067-0.024l0.062-0.998C4.054,4.003,6.357,4.136,10.226,3.7
	c3.86-0.435,8.554-2.151,8.601-2.169l0.346,0.938c-0.196,0.072-4.853,1.776-8.834,2.225C7.902,4.968,6.092,5.023,5.036,5.023z"/>
<polygon style="fill:#333333;" points="12.693,8.395 8.193,4.895 8.807,4.105 12.5,6.978 12.5,4 13.5,4 13.5,8 "/>
<path style="fill:#333333;" d="M4.046,17.96l-1.307-2.831c-0.184-0.399-0.184-0.858,0-1.258l2.114-4.581l0.908,0.419l-2.114,4.582
	c-0.062,0.133-0.062,0.285,0,0.418l1.307,2.831L4.046,17.96z"/>
<path style="fill:#333333;" d="M19.954,17.96l-0.908-0.42l1.307-2.831c0.062-0.133,0.062-0.285,0-0.418l-2.114-4.582l0.908-0.419
	l2.114,4.581c0.185,0.399,0.185,0.858,0,1.258L19.954,17.96z"/>
</svg>






