<?xml version="1.0" encoding="iso-8859-1"?>
<svg version="1.1" id="&#x56FE;&#x5C42;_1" xmlns="http://www.w3.org/2000/svg" xmlns:xlink="http://www.w3.org/1999/xlink" x="0px"
	 y="0px" viewBox="0 0 24 24" style="enable-background:new 0 0 24 24;" xml:space="preserve">
<rect x="4" y="21" style="fill:#333333;" width="16" height="1"/>
<path style="fill:#333333;" d="M8,15.5c-5.5,0-5.5-5.256-5.5-7.5h1c0,3.376,0.545,6.5,4.5,6.5V15.5z"/>
<path style="fill:#333333;" d="M16,17.5v-1c4.5,0,4.5-7.15,4.5-9.5h1C21.5,9.597,21.5,17.5,16,17.5z"/>
<path style="fill:#333333;" d="M16.5,22h-9V6.5C7.5,4.019,9.519,2,12,2s4.5,2.019,4.5,4.5V22z M8.5,21h7V6.5C15.5,4.57,13.93,3,12,3
	S8.5,4.57,8.5,6.5V21z"/>
</svg>






