<?xml version="1.0" encoding="iso-8859-1"?>
<svg version="1.1" id="&#x56FE;&#x5C42;_1" xmlns="http://www.w3.org/2000/svg" xmlns:xlink="http://www.w3.org/1999/xlink" x="0px"
	 y="0px" viewBox="0 0 24 24" style="enable-background:new 0 0 24 24;" xml:space="preserve">
<rect x="11.5" y="6" style="fill:#333333;" width="1" height="2.5"/>
<path style="fill:#333333;" d="M19,21.5H5c-0.827,0-1.5-0.673-1.5-1.5v-6.5h1V20c0,0.275,0.224,0.5,0.5,0.5h14
	c0.275,0,0.5-0.225,0.5-0.5v-6.5h1V20C20.5,20.827,19.827,21.5,19,21.5z"/>
<path style="fill:#333333;" d="M20.003,13.849c-0.323,0-0.646-0.078-0.939-0.232l-0.173-0.092c-0.348-0.184-0.766-0.183-1.115,0.001
	c-0.643,0.338-1.409,0.338-2.05,0c-0.349-0.183-0.767-0.185-1.117,0c-0.642,0.337-1.406,0.339-2.05,0
	c-0.35-0.185-0.768-0.185-1.117,0c-0.642,0.339-1.408,0.338-2.049,0c-0.35-0.185-0.768-0.185-1.118,0
	c-0.642,0.338-1.407,0.338-2.049,0c-0.35-0.184-0.769-0.184-1.118,0l-0.169,0.09c-0.527,0.277-1.144,0.31-1.693,0.088
	C2.186,13.279,1.5,12.267,1.5,11.124v-0.14C1.5,9.339,2.839,8,4.484,8h15.031c1.646,0,2.984,1.339,2.984,2.984v0.14
	c0,1.143-0.686,2.155-1.747,2.579C20.512,13.801,20.257,13.849,20.003,13.849z M18.333,12.388c0.353,0,0.704,0.084,1.025,0.253
	l0.172,0.092c0.264,0.138,0.573,0.152,0.851,0.043c0.681-0.271,1.119-0.92,1.119-1.651v-0.14C21.5,9.89,20.609,9,19.516,9H4.484
	C3.39,9,2.5,9.89,2.5,10.984v0.14c0,0.731,0.439,1.38,1.118,1.651c0.278,0.11,0.588,0.095,0.854-0.044l0.168-0.09
	c0.644-0.339,1.409-0.34,2.051-0.001c0.35,0.184,0.768,0.184,1.117,0c0.643-0.337,1.409-0.337,2.049,0
	c0.349,0.184,0.767,0.184,1.118,0c0.642-0.338,1.408-0.338,2.049,0c0.348,0.183,0.767,0.184,1.117,0c0.642-0.337,1.406-0.339,2.05,0
	c0.35,0.184,0.767,0.184,1.118,0C17.63,12.472,17.981,12.388,18.333,12.388z"/>
<path style="fill:#333333;" d="M12,6.377c-0.429,0-0.857-0.12-1.215-0.359c-0.672-0.449-0.954-1.22-0.775-2.117
	C10.485,1.527,11.938,1.5,12,1.5s1.515,0.027,1.99,2.402l0,0c0.18,0.896-0.104,1.668-0.774,2.117
	C12.857,6.258,12.429,6.377,12,6.377z M11.981,2.5c0.008,0.002-0.687,0.077-0.991,1.599c-0.099,0.494,0.022,0.87,0.35,1.089
	c0.376,0.25,0.943,0.25,1.318,0c0.328-0.219,0.449-0.596,0.351-1.089C12.705,2.577,12.011,2.502,11.981,2.5z"/>
</svg>






