<?xml version="1.0" encoding="iso-8859-1"?>
<svg version="1.1" id="&#x56FE;&#x5C42;_1" xmlns="http://www.w3.org/2000/svg" xmlns:xlink="http://www.w3.org/1999/xlink" x="0px"
	 y="0px" viewBox="0 0 24 24" style="enable-background:new 0 0 24 24;" xml:space="preserve">
<polygon style="fill:#333333;" points="19.5,11.45 4.5,11.45 4.299,10.492 13.299,6.542 13.701,7.458 6.883,10.45 18.521,10.45 
	16.595,7.793 17.405,7.207 19.905,10.657 "/>
<g>
	<circle style="fill:#333333;" cx="15.5" cy="6.5" r="2"/>
	<path style="fill:#333333;" d="M15.5,9C14.121,9,13,7.878,13,6.5S14.121,4,15.5,4S18,5.122,18,6.5S16.879,9,15.5,9z M15.5,5
		C14.673,5,14,5.673,14,6.5S14.673,8,15.5,8S17,7.327,17,6.5S16.327,5,15.5,5z"/>
</g>
<rect x="15.654" y="2.75" transform="matrix(0.3714 -0.9285 0.9285 0.3714 7.6688 17.8271)" style="fill:#333333;" width="2.693" height="0.999"/>
<path style="fill:#333333;" d="M12,22c-5.888,0-10.5-2.306-10.5-5.25c0-1.189,0.739-2.301,2.138-3.213
	c0.273-0.178,0.57-0.347,0.888-0.506l0.447,0.895c-0.283,0.142-0.547,0.291-0.79,0.449C3.416,14.876,2.5,15.695,2.5,16.75
	C2.5,19.054,6.851,21,12,21s9.5-1.946,9.5-4.25c0-1.083-0.961-1.918-1.768-2.428l0.535-0.846c1.46,0.924,2.232,2.056,2.232,3.273
	C22.5,19.694,17.888,22,12,22z"/>
<path style="fill:#333333;" d="M20,17.5H4v-7h16V17.5z M5,16.5h14v-5H5V16.5z"/>
<rect x="4.5" y="10.5" style="fill:#333333;" width="15.5" height="1"/>
</svg>






