<?xml version="1.0" encoding="iso-8859-1"?>
<svg version="1.1" id="&#x56FE;&#x5C42;_1" xmlns="http://www.w3.org/2000/svg" xmlns:xlink="http://www.w3.org/1999/xlink" x="0px"
	 y="0px" viewBox="0 0 24 24" style="enable-background:new 0 0 24 24;" xml:space="preserve">
<path style="fill:#333333;" d="M18.5,18.5h-13C4.673,18.5,4,17.827,4,17V8c0-0.827,0.673-1.5,1.5-1.5h13C19.327,6.5,20,7.173,20,8v9
	C20,17.827,19.327,18.5,18.5,18.5z M5.5,7.5C5.224,7.5,5,7.724,5,8v9c0,0.275,0.224,0.5,0.5,0.5h13c0.275,0,0.5-0.225,0.5-0.5V8
	c0-0.276-0.225-0.5-0.5-0.5H5.5z"/>
<rect x="3" y="17.5" style="fill:#333333;" width="18" height="1"/>
<rect x="3" y="20.5" style="fill:#333333;" width="18" height="1"/>
<polygon style="fill:#333333;" points="17,15 13,15 13,11 11,11 11,13.5 7,13.5 7,11 4.5,11 4.5,10 8,10 8,12.5 10,12.5 10,10 
	14,10 14,14 16,14 16,10 19.5,10 19.5,11 17,11 "/>
<rect x="4" y="9.5" style="fill:#333333;" width="1" height="2"/>
<rect x="19" y="9.5" style="fill:#333333;" width="1" height="2"/>
<rect x="16" y="4" style="fill:#333333;" width="1" height="3"/>
<rect x="11.5" y="2" style="fill:#333333;" width="1" height="5"/>
<rect x="7" y="4" style="fill:#333333;" width="1" height="3"/>
</svg>






