<?xml version="1.0" encoding="iso-8859-1"?>
<svg version="1.1" id="&#x56FE;&#x5C42;_1" xmlns="http://www.w3.org/2000/svg" xmlns:xlink="http://www.w3.org/1999/xlink" x="0px"
	 y="0px" viewBox="0 0 24 24" style="enable-background:new 0 0 24 24;" xml:space="preserve">
<path style="fill:#333333;" d="M17.537,22.5H6.463L3.843,13h16.313L17.537,22.5z M7.225,21.5h9.551l2.068-7.5H5.157L7.225,21.5z"/>
<path style="fill:#333333;" d="M20,14H4v-0.5c0-2.525,2.018-3.892,2.769-4.313C6.944,7.679,8.342,5,12,5
	c3.657,0,5.056,2.679,5.23,4.187C17.982,9.608,20,10.975,20,13.5V14z M5.036,13h13.929c-0.296-2.042-2.33-3.002-2.423-3.045
	l-0.291-0.134L16.25,9.5C16.25,8.806,15.494,6,12,6C8.506,6,7.75,8.806,7.75,9.5v0.32L7.458,9.955
	C7.365,9.998,5.331,10.958,5.036,13z"/>
<rect x="3" y="13" style="fill:#333333;" width="18" height="1"/>
<path style="fill:#333333;" d="M14.5,6h-1c0-0.827-0.673-1.5-1.5-1.5S10.5,5.173,10.5,6h-1c0-1.378,1.122-2.5,2.5-2.5
	C13.379,3.5,14.5,4.622,14.5,6z"/>
<rect x="11.586" y="2.5" transform="matrix(0.7071 -0.7071 0.7071 0.7071 1.6863 10.0711)" style="fill:#333333;" width="2.828" height="1"/>
<rect x="9.5" y="13.5" style="fill:#333333;" width="1" height="8.5"/>
<rect x="13.5" y="13.5" style="fill:#333333;" width="1" height="8.5"/>
</svg>






