<?xml version="1.0" encoding="iso-8859-1"?>
<svg version="1.1" id="&#x56FE;&#x5C42;_1" xmlns="http://www.w3.org/2000/svg" xmlns:xlink="http://www.w3.org/1999/xlink" x="0px"
	 y="0px" viewBox="0 0 24 24" style="enable-background:new 0 0 24 24;" xml:space="preserve">
<path style="fill:#333333;" d="M20.5,15.5H4V8.626l11.656-5.231L20.5,8.758V15.5z M5,14.5h14.5V9.143l-4.098-4.538L5,9.274V14.5z"/>
<path style="fill:#333333;" d="M14.688,12.75c-1.068,0-1.938-0.869-1.938-1.938V9.5H4.5v-1h9.193l0.057,0.557v1.755
	c0,0.517,0.421,0.938,0.938,0.938s0.938-0.42,0.938-0.938V8.557L16.182,8.5H20v1h-3.375v1.312
	C16.625,11.881,15.756,12.75,14.688,12.75z"/>
<path style="fill:#333333;" d="M12,20.5c-5.888,0-10.5-2.306-10.5-5.25c0-1.189,0.739-2.301,2.138-3.213
	c0.273-0.178,0.57-0.347,0.888-0.506l0.447,0.895c-0.283,0.142-0.547,0.291-0.79,0.449C3.416,13.376,2.5,14.195,2.5,15.25
	c0,2.304,4.351,4.25,9.5,4.25s9.5-1.946,9.5-4.25c0-1.083-0.961-1.918-1.768-2.428l0.535-0.846c1.46,0.924,2.232,2.056,2.232,3.273
	C22.5,18.194,17.888,20.5,12,20.5z"/>
</svg>






