<?xml version="1.0" encoding="iso-8859-1"?>
<svg version="1.1" id="&#x56FE;&#x5C42;_1" xmlns="http://www.w3.org/2000/svg" xmlns:xlink="http://www.w3.org/1999/xlink" x="0px"
	 y="0px" viewBox="0 0 24 24" style="enable-background:new 0 0 24 24;" xml:space="preserve">
<path style="fill:#333333;" d="M19,22.5H5c-0.827,0-1.5-0.673-1.5-1.5V3c0-0.827,0.673-1.5,1.5-1.5h14c0.827,0,1.5,0.673,1.5,1.5v18
	C20.5,21.827,19.827,22.5,19,22.5z M5,2.5C4.724,2.5,4.5,2.724,4.5,3v18c0,0.275,0.224,0.5,0.5,0.5h14c0.275,0,0.5-0.225,0.5-0.5V3
	c0-0.276-0.225-0.5-0.5-0.5H5z"/>
<path style="fill:#333333;" d="M17.5,10.5h-11V5h11V10.5z M7.5,9.5h9V6h-9V9.5z"/>
<circle style="fill:#333333;" cx="8.5" cy="13" r="1"/>
<circle style="fill:#333333;" cx="8.5" cy="16" r="1"/>
<circle style="fill:#333333;" cx="8.5" cy="19" r="1"/>
<circle style="fill:#333333;" cx="12" cy="13" r="1"/>
<circle style="fill:#333333;" cx="12" cy="16" r="1"/>
<circle style="fill:#333333;" cx="12" cy="19" r="1"/>
<circle style="fill:#333333;" cx="15.5" cy="13" r="1"/>
<circle style="fill:#333333;" cx="15.5" cy="16" r="1"/>
<circle style="fill:#333333;" cx="15.5" cy="19" r="1"/>
</svg>






