<?xml version="1.0" encoding="iso-8859-1"?>
<svg version="1.1" id="&#x56FE;&#x5C42;_1" xmlns="http://www.w3.org/2000/svg" xmlns:xlink="http://www.w3.org/1999/xlink" x="0px"
	 y="0px" viewBox="0 0 24 24" style="enable-background:new 0 0 24 24;" xml:space="preserve">
<path style="fill:#333333;" d="M20,22.5H4c-0.827,0-1.5-0.673-1.5-1.5V3c0-0.827,0.673-1.5,1.5-1.5h16c0.827,0,1.5,0.673,1.5,1.5v18
	C21.5,21.827,20.827,22.5,20,22.5z M4,2.5C3.724,2.5,3.5,2.724,3.5,3v18c0,0.275,0.224,0.5,0.5,0.5h16c0.275,0,0.5-0.225,0.5-0.5V3
	c0-0.276-0.225-0.5-0.5-0.5H4z"/>
<path style="fill:#333333;" d="M18,10H6V4.5h12V10z M7,9h10V5.5H7V9z"/>
<rect x="7.25" y="13.275" transform="matrix(0.7071 -0.7071 0.7071 0.7071 -8.867 10.0931)" style="fill:#333333;" width="1" height="4.95"/>
<rect x="5.275" y="15.25" transform="matrix(0.7071 -0.7071 0.7071 0.7071 -8.867 10.0931)" style="fill:#333333;" width="4.95" height="1"/>
<rect x="14" y="17" style="fill:#333333;" width="4" height="1"/>
<rect x="14" y="14" style="fill:#333333;" width="4" height="1"/>
</svg>






