<?xml version="1.0" encoding="iso-8859-1"?>
<svg version="1.1" id="&#x56FE;&#x5C42;_1" xmlns="http://www.w3.org/2000/svg" xmlns:xlink="http://www.w3.org/1999/xlink" x="0px"
	 y="0px" viewBox="0 0 24 24" style="enable-background:new 0 0 24 24;" xml:space="preserve">
<path style="fill:#333333;" d="M21,22.5H3c-0.827,0-1.5-0.673-1.5-1.5V3c0-0.827,0.673-1.5,1.5-1.5h18c0.827,0,1.5,0.673,1.5,1.5v18
	C22.5,21.827,21.827,22.5,21,22.5z M3,2.5C2.724,2.5,2.5,2.724,2.5,3v18c0,0.275,0.224,0.5,0.5,0.5h18c0.275,0,0.5-0.225,0.5-0.5V3
	c0-0.276-0.225-0.5-0.5-0.5H3z"/>
<rect x="2" y="6.5" style="fill:#333333;" width="20" height="1"/>
<rect x="21.5" y="5.5" style="fill:#333333;" width="1" height="6"/>
<rect x="6" y="10.5" style="fill:#333333;" width="2" height="1"/>
<rect x="11" y="10.5" style="fill:#333333;" width="2" height="1"/>
<rect x="16" y="10.5" style="fill:#333333;" width="2" height="1"/>
<rect x="6" y="14" style="fill:#333333;" width="2" height="1"/>
<rect x="11" y="14" style="fill:#333333;" width="2" height="1"/>
<rect x="16" y="14" style="fill:#333333;" width="2" height="1"/>
<rect x="6" y="17.5" style="fill:#333333;" width="2" height="1"/>
<rect x="11" y="17.5" style="fill:#333333;" width="2" height="1"/>
<rect x="16" y="17.5" style="fill:#333333;" width="2" height="1"/>
<rect x="1.5" y="5.5" style="fill:#333333;" width="1" height="6"/>
</svg>






