<?xml version="1.0" encoding="iso-8859-1"?>
<svg version="1.1" id="&#x56FE;&#x5C42;_1" xmlns="http://www.w3.org/2000/svg" xmlns:xlink="http://www.w3.org/1999/xlink" x="0px"
	 y="0px" viewBox="0 0 24 24" style="enable-background:new 0 0 24 24;" xml:space="preserve">
<path style="fill:#333333;" d="M21,22.5H3c-0.827,0-1.5-0.673-1.5-1.5V5c0-0.827,0.673-1.5,1.5-1.5h18c0.827,0,1.5,0.673,1.5,1.5v16
	C22.5,21.827,21.827,22.5,21,22.5z M3,4.5C2.724,4.5,2.5,4.724,2.5,5v16c0,0.275,0.224,0.5,0.5,0.5h18c0.275,0,0.5-0.225,0.5-0.5V5
	c0-0.276-0.225-0.5-0.5-0.5H3z"/>
<rect x="2" y="9.5" style="fill:#333333;" width="20" height="1"/>
<rect x="2" y="15.5" style="fill:#333333;" width="20" height="1"/>
<rect x="8" y="2" style="fill:#333333;" width="1" height="4"/>
<rect x="15" y="2" style="fill:#333333;" width="1" height="4"/>
<rect x="8" y="10" style="fill:#333333;" width="1" height="12"/>
<rect x="15" y="10" style="fill:#333333;" width="1" height="12"/>
<rect x="21.5" y="6.5" style="fill:#333333;" width="1" height="13"/>
<rect x="1.5" y="6.5" style="fill:#333333;" width="1" height="13"/>
<rect x="7" y="21.5" style="fill:#333333;" width="10" height="1"/>
</svg>






