<?xml version="1.0" encoding="iso-8859-1"?>
<svg version="1.1" id="&#x56FE;&#x5C42;_1" xmlns="http://www.w3.org/2000/svg" xmlns:xlink="http://www.w3.org/1999/xlink" x="0px"
	 y="0px" viewBox="0 0 24 24" style="enable-background:new 0 0 24 24;" xml:space="preserve">
<path style="fill:#333333;" d="M20.5,21.5h-17C2.673,21.5,2,20.827,2,20V9h20v11C22,20.827,21.327,21.5,20.5,21.5z M3,10v10
	c0,0.275,0.224,0.5,0.5,0.5h17c0.275,0,0.5-0.225,0.5-0.5V10H3z"/>
<path style="fill:#333333;" d="M22,10H2V4.5C2,3.673,2.673,3,3.5,3h17C21.327,3,22,3.673,22,4.5V10z M3,9h18V4.5
	C21,4.224,20.775,4,20.5,4h-17C3.224,4,3,4.224,3,4.5V9z"/>
<rect x="7.5" y="2" style="fill:#333333;" width="1" height="4"/>
<rect x="15.5" y="2" style="fill:#333333;" width="1" height="4"/>
<rect x="14" y="16.5" style="fill:#333333;" width="3" height="1"/>
<rect x="7" y="16.5" style="fill:#333333;" width="3" height="1"/>
<rect x="14" y="12.5" style="fill:#333333;" width="3" height="1"/>
<rect x="7" y="12.5" style="fill:#333333;" width="3" height="1"/>
</svg>






