<?xml version="1.0" encoding="iso-8859-1"?>
<svg version="1.1" id="&#x56FE;&#x5C42;_1" xmlns="http://www.w3.org/2000/svg" xmlns:xlink="http://www.w3.org/1999/xlink" x="0px"
	 y="0px" viewBox="0 0 24 24" style="enable-background:new 0 0 24 24;" xml:space="preserve">
<path style="fill:#333333;" d="M20,20.5H4c-0.827,0-1.5-0.673-1.5-1.5V8c0-0.827,0.673-1.5,1.5-1.5h16c0.827,0,1.5,0.673,1.5,1.5v11
	C21.5,19.827,20.827,20.5,20,20.5z M4,7.5C3.724,7.5,3.5,7.724,3.5,8v11c0,0.275,0.224,0.5,0.5,0.5h16c0.275,0,0.5-0.225,0.5-0.5V8
	c0-0.276-0.225-0.5-0.5-0.5H4z"/>
<path style="fill:#333333;" d="M11.712,7.5H4.288l1.445-4h4.535L11.712,7.5z M5.712,6.5h4.575l-0.722-2H6.435L5.712,6.5z"/>
<path style="fill:#333333;" d="M14.5,17.5c-2.206,0-4-1.794-4-4c0-2.206,1.794-4,4-4s4,1.794,4,4C18.5,15.706,16.706,17.5,14.5,17.5
	z M14.5,10.5c-1.654,0-3,1.346-3,3s1.346,3,3,3s3-1.346,3-3S16.154,10.5,14.5,10.5z"/>
<rect x="17.5" y="5" style="fill:#333333;" width="1" height="2"/>
</svg>






