<?xml version="1.0" encoding="iso-8859-1"?>
<svg version="1.1" id="&#x56FE;&#x5C42;_1" xmlns="http://www.w3.org/2000/svg" xmlns:xlink="http://www.w3.org/1999/xlink" x="0px"
	 y="0px" viewBox="0 0 24 24" style="enable-background:new 0 0 24 24;" xml:space="preserve">
<path style="fill:#333333;" d="M12,17c-4.136,0-7.5-3.364-7.5-7.5S7.864,2,12,2s7.5,3.364,7.5,7.5S16.136,17,12,17z M12,3
	C8.416,3,5.5,5.916,5.5,9.5S8.416,16,12,16s6.5-2.916,6.5-6.5S15.584,3,12,3z"/>
<path style="fill:#333333;" d="M12,13c-1.93,0-3.5-1.57-3.5-3.5S10.07,6,12,6s3.5,1.57,3.5,3.5S13.93,13,12,13z M12,7
	c-1.378,0-2.5,1.122-2.5,2.5S10.622,12,12,12c1.379,0,2.5-1.122,2.5-2.5S13.379,7,12,7z"/>
<polygon style="fill:#333333;" points="19.309,22 4.691,22 8.053,15.276 8.947,15.724 6.309,21 17.691,21 15.053,15.724 
	15.947,15.276 "/>
</svg>






