<?xml version="1.0" encoding="iso-8859-1"?>
<svg version="1.1" id="&#x56FE;&#x5C42;_1" xmlns="http://www.w3.org/2000/svg" xmlns:xlink="http://www.w3.org/1999/xlink" x="0px"
	 y="0px" viewBox="0 0 24 24" style="enable-background:new 0 0 24 24;" xml:space="preserve">
<path style="fill:#333333;" d="M17.309,6.5H6.691l2-4h6.618L17.309,6.5z M8.309,5.5h7.382l-1-2H9.309L8.309,5.5z"/>
<path style="fill:#333333;" d="M20.5,21.5h-17c-1.103,0-2-0.897-2-2v-12c0-1.103,0.897-2,2-2h17c1.103,0,2,0.897,2,2v12
	C22.5,20.603,21.603,21.5,20.5,21.5z M3.5,6.5c-0.551,0-1,0.449-1,1v12c0,0.552,0.449,1,1,1h17c0.552,0,1-0.448,1-1v-12
	c0-0.551-0.448-1-1-1H3.5z"/>
<path style="fill:#333333;" d="M12,18c-2.481,0-4.5-2.019-4.5-4.5S9.519,9,12,9s4.5,2.019,4.5,4.5S14.481,18,12,18z M12,10
	c-1.93,0-3.5,1.57-3.5,3.5S10.07,17,12,17s3.5-1.57,3.5-3.5S13.93,10,12,10z"/>
</svg>






