<?xml version="1.0" encoding="iso-8859-1"?>
<svg version="1.1" id="&#x56FE;&#x5C42;_1" xmlns="http://www.w3.org/2000/svg" xmlns:xlink="http://www.w3.org/1999/xlink" x="0px"
	 y="0px" viewBox="0 0 24 24" style="enable-background:new 0 0 24 24;" xml:space="preserve">
<path style="fill:#333333;" d="M12,18.5c-3.584,0-6.5-2.916-6.5-6.5V8c0-3.584,2.916-6.5,6.5-6.5s6.5,2.916,6.5,6.5v4
	C18.5,15.584,15.584,18.5,12,18.5z M12,2.5C8.967,2.5,6.5,4.967,6.5,8v4c0,3.032,2.467,5.5,5.5,5.5c3.032,0,5.5-2.468,5.5-5.5V8
	C17.5,4.967,15.032,2.5,12,2.5z"/>
<rect x="11.5" y="18" style="fill:#333333;" width="1" height="4"/>
<rect x="8" y="21.5" style="fill:#333333;" width="8" height="1"/>
<path style="fill:#333333;" d="M12,12c-1.93,0-3.5-1.57-3.5-3.5S10.07,5,12,5s3.5,1.57,3.5,3.5S13.93,12,12,12z M12,6
	c-1.378,0-2.5,1.122-2.5,2.5S10.622,11,12,11c1.379,0,2.5-1.122,2.5-2.5S13.379,6,12,6z"/>
<circle style="fill:#333333;" cx="12" cy="14.5" r="1"/>
</svg>






