<?xml version="1.0" encoding="iso-8859-1"?>
<svg version="1.1" id="&#x56FE;&#x5C42;_1" xmlns="http://www.w3.org/2000/svg" xmlns:xlink="http://www.w3.org/1999/xlink" x="0px"
	 y="0px" viewBox="0 0 24 24" style="enable-background:new 0 0 24 24;" xml:space="preserve">
<path style="fill:#333333;" d="M12,20.5c-4.687,0-8.5-3.813-8.5-8.5V5h1v7c0,4.136,3.364,7.5,7.5,7.5s7.5-3.364,7.5-7.5V5h1v7
	C20.5,16.687,16.687,20.5,12,20.5z"/>
<rect x="2" y="4.5" style="fill:#333333;" width="20" height="1"/>
<path style="fill:#333333;" d="M12,15.5c-1.93,0-3.5-1.57-3.5-3.5s1.57-3.5,3.5-3.5s3.5,1.57,3.5,3.5S13.93,15.5,12,15.5z M12,9.5
	c-1.378,0-2.5,1.122-2.5,2.5c0,1.379,1.122,2.5,2.5,2.5c1.379,0,2.5-1.121,2.5-2.5C14.5,10.622,13.379,9.5,12,9.5z"/>
</svg>






