<?xml version="1.0" encoding="iso-8859-1"?>
<svg version="1.1" id="&#x56FE;&#x5C42;_1" xmlns="http://www.w3.org/2000/svg" xmlns:xlink="http://www.w3.org/1999/xlink" x="0px"
	 y="0px" viewBox="0 0 24 24" style="enable-background:new 0 0 24 24;" xml:space="preserve">
<polygon style="fill:#333333;" points="22,18 19.707,18 12,4.271 4.292,18 2,18 2,17 3.708,17 11.564,3.005 12.436,3.005 20.293,17 
	22,17 "/>
<path style="fill:#333333;" d="M15,21H9v-1.5c0-2.523,1.318-4.5,3-4.5c1.683,0,3,1.977,3,4.5V21z M10,20h4v-0.5
	c0-1.897-0.916-3.5-2-3.5s-2,1.603-2,3.5V20z"/>
<rect x="2" y="20" style="fill:#333333;" width="20" height="1"/>
<path style="fill:#333333;" d="M16.188,11.891C16.164,11.872,13.799,10,12,10c-1.804,0-4.164,1.872-4.188,1.891l-0.625-0.781
	C7.295,11.023,9.849,9,12,9c2.15,0,4.705,2.023,4.812,2.109L16.188,11.891z"/>
<polygon style="fill:#333333;" points="19.584,6.277 18.399,4.5 19.584,2.723 20.416,3.277 19.601,4.5 20.416,5.723 "/>
<polygon style="fill:#333333;" points="20.416,6.277 19.584,5.723 20.399,4.5 19.584,3.277 20.416,2.723 21.601,4.5 "/>
<polygon style="fill:#333333;" points="3.053,10.724 2.441,9.5 3.053,8.276 3.947,8.724 3.559,9.5 3.947,10.276 "/>
<polygon style="fill:#333333;" points="3.947,10.724 3.053,10.276 3.441,9.5 3.053,8.724 3.947,8.276 4.559,9.5 "/>
</svg>






