<?xml version="1.0" encoding="iso-8859-1"?>
<svg version="1.1" id="&#x56FE;&#x5C42;_1" xmlns="http://www.w3.org/2000/svg" xmlns:xlink="http://www.w3.org/1999/xlink" x="0px"
	 y="0px" viewBox="0 0 24 24" style="enable-background:new 0 0 24 24;" xml:space="preserve">
<path style="fill:#333333;" d="M12,17.5c-3.033,0-5.5-2.468-5.5-5.5c0-3.033,2.467-5.5,5.5-5.5c3.032,0,5.5,2.467,5.5,5.5
	C17.5,15.032,15.032,17.5,12,17.5z M12,7.5c-2.481,0-4.5,2.019-4.5,4.5s2.019,4.5,4.5,4.5s4.5-2.019,4.5-4.5S14.481,7.5,12,7.5z"/>
<path style="fill:#333333;" d="M12,14.5c-1.378,0-2.5-1.121-2.5-2.5h1c0,0.827,0.673,1.5,1.5,1.5V14.5z"/>
<path style="fill:#333333;" d="M8.934,8.997L1.883,7.978L1.601,7.13l5.467-5.467l0.848,0.282L8.934,8.997z M3.013,7.131l4.74,0.685
	l-0.685-4.74L3.013,7.131z"/>
<path style="fill:#333333;" d="M16.933,22.399l-0.849-0.282l-1.019-7.052l7.052,1.019l0.282,0.849L16.933,22.399z M16.247,16.247
	l0.685,4.739l4.055-4.055L16.247,16.247z"/>
</svg>






