<?xml version="1.0" encoding="iso-8859-1"?>
<svg version="1.1" id="&#x56FE;&#x5C42;_1" xmlns="http://www.w3.org/2000/svg" xmlns:xlink="http://www.w3.org/1999/xlink" x="0px"
	 y="0px" viewBox="0 0 24 24" style="enable-background:new 0 0 24 24;" xml:space="preserve">
<path style="fill:#333333;" d="M7.515,16.621c-0.767-3.065-0.519-4.638-0.508-4.703l0.986,0.164L7.5,12l0.494,0.08
	c-0.002,0.015-0.217,1.464,0.491,4.299L7.515,16.621z"/>
<path style="fill:#333333;" d="M15.942,22H8.021c-1.63,0-3.048-1.145-3.371-2.721c-0.525-2.562-1.15-6.084-1.15-8.311
	c0-1.987,0.8-3.925,1.471-5.202l0.885,0.466C5.237,7.409,4.5,9.186,4.5,10.969c0,2.256,0.708,6.049,1.13,8.109
	C5.858,20.191,6.863,21,8.021,21h7.921c1.173,0,2.187-0.823,2.41-1.958c0.74-3.765,1.147-6.632,1.147-8.073
	c0-1.592-0.641-3.477-1.179-4.778l0.924-0.382c0.572,1.384,1.255,3.403,1.255,5.16c0,1.928-0.635,5.56-1.167,8.267
	C19.018,20.837,17.592,22,15.942,22z"/>
<path style="fill:#333333;" d="M19.081,6.5H4.919c-0.367,0-0.703-0.2-0.878-0.522C3.866,5.656,3.88,5.265,4.08,4.957l1.294-2
	C5.559,2.671,5.873,2.5,6.213,2.5h11.574c0.34,0,0.653,0.17,0.839,0.456l1.295,2.001c0.199,0.308,0.214,0.699,0.038,1.021
	C19.784,6.3,19.447,6.5,19.081,6.5z M5.793,3.229L6.213,3.5l-1.294,2h14.162l-1.294-2H6.213L5.793,3.229z"/>
</svg>






