<?xml version="1.0" encoding="iso-8859-1"?>
<svg version="1.1" id="&#x56FE;&#x5C42;_1" xmlns="http://www.w3.org/2000/svg" xmlns:xlink="http://www.w3.org/1999/xlink" x="0px"
	 y="0px" viewBox="0 0 24 24" style="enable-background:new 0 0 24 24;" xml:space="preserve">
<path style="fill:#333333;" d="M9.5,5.5h-1C8.5,4.122,7.378,3,6,3S3.5,4.122,3.5,5.5h-1C2.5,3.57,4.07,2,6,2S9.5,3.57,9.5,5.5z"/>
<rect x="8.5" y="5.5" style="fill:#333333;" width="1" height="9"/>
<path style="fill:#333333;" d="M15.5,5.5h-1C14.5,4.122,13.379,3,12,3c-1.378,0-2.5,1.122-2.5,2.5h-1C8.5,3.57,10.07,2,12,2
	S15.5,3.57,15.5,5.5z"/>
<path style="fill:#333333;" d="M11,22v-1c3.379,0,3.498-2.807,3.5-3.127V5.5h1v12.375C15.5,17.916,15.448,22,11,22z"/>
<path style="fill:#333333;" d="M18,18.5c-1.93,0-3.5-1.57-3.5-3.5s1.57-3.5,3.5-3.5s3.5,1.57,3.5,3.5S19.93,18.5,18,18.5z M18,12.5
	c-1.379,0-2.5,1.121-2.5,2.5s1.121,2.5,2.5,2.5s2.5-1.121,2.5-2.5S19.379,12.5,18,12.5z"/>
</svg>






