<?xml version="1.0" encoding="iso-8859-1"?>
<svg version="1.1" id="&#x56FE;&#x5C42;_1" xmlns="http://www.w3.org/2000/svg" xmlns:xlink="http://www.w3.org/1999/xlink" x="0px"
	 y="0px" viewBox="0 0 24 24" style="enable-background:new 0 0 24 24;" xml:space="preserve">
<path style="fill-rule:evenodd;clip-rule:evenodd;fill:#333333;" d="M6.75,16C7.44,16,8,15.44,8,14.75S7.44,13.5,6.75,13.5
	S5.5,14.06,5.5,14.75S6.06,16,6.75,16z"/>
<path style="fill-rule:evenodd;clip-rule:evenodd;fill:#333333;" d="M17.25,16c0.69,0,1.25-0.56,1.25-1.25s-0.56-1.25-1.25-1.25
	S16,14.06,16,14.75S16.56,16,17.25,16z"/>
<path style="fill:#333333;" d="M17.501,21.5C16.122,21.5,15,20.379,15,19H9c0,1.379-1.122,2.5-2.5,2.5S4,20.379,4,19H3.5
	c-1.103,0-2-0.897-2-2v-4.646c0-1.334,0.742-2.534,1.936-3.131l0.131-0.065l1.102-4.726C4.934,3.294,5.935,2.5,7.103,2.5h9.844
	c1.18,0,2.183,0.804,2.44,1.955l1.051,4.705l0.127,0.063C21.759,9.82,22.5,11.02,22.5,12.354V17c0,1.103-0.897,2-2,2h-0.498
	C20.002,20.379,18.88,21.5,17.501,21.5z M8,18h8v1c0,0.827,0.674,1.5,1.501,1.5c0.828,0,1.501-0.673,1.501-1.5v-1H20.5
	c0.552,0,1-0.448,1-1v-4.646c0-0.953-0.529-1.81-1.382-2.236l-0.553-0.276l-1.154-5.169C18.257,3.982,17.655,3.5,16.947,3.5H7.103
	c-0.701,0-1.302,0.477-1.461,1.159L4.434,9.844l-0.552,0.275C3.03,10.544,2.5,11.401,2.5,12.354V17c0,0.552,0.449,1,1,1H5v1
	c0,0.827,0.673,1.5,1.5,1.5C7.327,20.5,8,19.827,8,19V18z"/>
<path style="fill:#333333;" d="M17.623,11.5H6.376l0.961-4.325C7.492,6.483,8.094,6,8.802,6h6.396c0.708,0,1.311,0.483,1.464,1.175
	L17.623,11.5z M7.624,10.5h8.753l-0.691-3.108C15.635,7.161,15.434,7,15.198,7H8.802C8.566,7,8.365,7.161,8.314,7.392L7.624,10.5z"
	/>
</svg>






