<?xml version="1.0" encoding="iso-8859-1"?>
<svg version="1.1" id="&#x56FE;&#x5C42;_1" xmlns="http://www.w3.org/2000/svg" xmlns:xlink="http://www.w3.org/1999/xlink" x="0px"
	 y="0px" viewBox="0 0 24 24" style="enable-background:new 0 0 24 24;" xml:space="preserve">
<path style="fill:#333333;" d="M21,19H3c-0.827,0-1.5-0.673-1.5-1.5v-12C1.5,4.673,2.173,4,3,4h18c0.827,0,1.5,0.673,1.5,1.5v12
	C22.5,18.327,21.827,19,21,19z M3,5C2.724,5,2.5,5.224,2.5,5.5v12C2.5,17.775,2.724,18,3,18h18c0.275,0,0.5-0.225,0.5-0.5v-12
	C21.5,5.224,21.275,5,21,5H3z"/>
<path style="fill:#333333;" d="M14.5,15h-5V8h5V15z M10.5,14h3V9h-3V14z"/>
<polygon style="fill:#333333;" points="22,15 17.5,15 17.5,8 22,8 22,9 18.5,9 18.5,14 22,14 "/>
<polygon style="fill:#333333;" points="6.5,15 2,15 2,14 5.5,14 5.5,9 2,9 2,8 6.5,8 "/>
<rect x="1.5" y="6.5" style="fill:#333333;" width="1" height="10"/>
<rect x="21.5" y="6.5" style="fill:#333333;" width="1" height="10"/>
</svg>






