<?xml version="1.0" encoding="iso-8859-1"?>
<svg version="1.1" id="&#x56FE;&#x5C42;_1" xmlns="http://www.w3.org/2000/svg" xmlns:xlink="http://www.w3.org/1999/xlink" x="0px"
	 y="0px" viewBox="0 0 24 24" style="enable-background:new 0 0 24 24;" xml:space="preserve">
<path style="fill:#333333;" d="M12,22.5c-1.011,0-1.884-0.686-2.125-1.666L7.327,10.46C6.971,9.015,7.294,7.514,8.213,6.343
	C9.131,5.172,10.512,4.5,12,4.5s2.869,0.672,3.787,1.843s1.241,2.672,0.886,4.117l-2.548,10.374C13.884,21.815,13.01,22.5,12,22.5z
	 M8.297,10.222l2.549,10.374C10.977,21.128,11.451,21.5,12,21.5s1.023-0.372,1.154-0.904l2.548-10.374
	C15.983,9.077,15.728,7.888,15,6.96c-0.728-0.928-1.821-1.46-3-1.46c-1.179,0-2.272,0.532-3,1.46S8.017,9.077,8.297,10.222
	L8.297,10.222z"/>
<rect x="11.5" y="2" style="fill:#333333;" width="1" height="2.75"/>
<rect x="13.309" y="3.109" transform="matrix(0.6429 -0.766 0.766 0.6429 2.3677 12.2951)" style="fill:#333333;" width="2.121" height="1"/>
<rect x="9.182" y="2.548" transform="matrix(0.766 -0.6429 0.6429 0.766 -0.054 7.0684)" style="fill:#333333;" width="1" height="2.121"/>
<rect x="8" y="9" style="fill:#333333;" width="3" height="1"/>
<rect x="12.5" y="12.5" style="fill:#333333;" width="3" height="1"/>
<rect x="9.5" y="16.5" style="fill:#333333;" width="2" height="1"/>
</svg>






