<?xml version="1.0" encoding="iso-8859-1"?>
<svg version="1.1" id="&#x56FE;&#x5C42;_1" xmlns="http://www.w3.org/2000/svg" xmlns:xlink="http://www.w3.org/1999/xlink" x="0px"
	 y="0px" viewBox="0 0 24 24" style="enable-background:new 0 0 24 24;" xml:space="preserve">
<path style="fill:#333333;" d="M9,6H2L1.646,5.146L5.5,1.293l3.854,3.854L9,6z M3.207,5h4.586L5.5,2.707L3.207,5z"/>
<path style="fill:#333333;" d="M22,6h-7l-0.354-0.854L18.5,1.293l3.854,3.854L22,6z M16.207,5h4.586L18.5,2.707L16.207,5z"/>
<path style="fill:#333333;" d="M22.5,22.5h-8V20c0-1.379-1.121-2.5-2.5-2.5c-1.378,0-2.5,1.121-2.5,2.5v2.5h-8v-10h2V8h4v4.5h2
	v-2.207l2.5-2.5l2.5,2.5V12.5h2V8h4v4.5h2V22.5z M15.5,21.5h6v-8h-2V9h-2v4.5h-4v-2.793l-1.5-1.5l-1.5,1.5V13.5h-4V9h-2v4.5h-2v8h6
	V20c0-1.93,1.57-3.5,3.5-3.5s3.5,1.57,3.5,3.5V21.5z"/>
<path style="fill:#333333;" d="M8,9H3V5h5V9z M4,8h3V6H4V8z"/>
<path style="fill:#333333;" d="M21,9h-5V5h5V9z M17,8h3V6h-3V8z"/>
</svg>






