<?xml version="1.0" encoding="iso-8859-1"?>
<svg version="1.1" id="&#x56FE;&#x5C42;_1" xmlns="http://www.w3.org/2000/svg" xmlns:xlink="http://www.w3.org/1999/xlink" x="0px"
	 y="0px" viewBox="0 0 24 24" style="enable-background:new 0 0 24 24;" xml:space="preserve">
<path style="fill:#333333;" d="M11,19.5h-1c0-4.136-3.364-7.5-7.5-7.5v-1C7.187,11,11,14.813,11,19.5z"/>
<path style="fill:#333333;" d="M7,19.5H6C6,17.57,4.43,16,2.5,16v-1C4.981,15,7,17.019,7,19.5z"/>
<path style="fill-rule:evenodd;clip-rule:evenodd;fill:#333333;" d="M2.75,20.5C3.44,20.5,4,19.94,4,19.25S3.44,18,2.75,18
	S1.5,18.56,1.5,19.25S2.06,20.5,2.75,20.5z"/>
<polygon style="fill:#333333;" points="22.5,20.5 14.386,20.5 14.386,19.5 21.5,19.5 21.5,4.5 2.5,4.5 2.5,8.028 1.5,8.028 1.5,3.5 
	22.5,3.5 "/>
</svg>






