<?xml version="1.0" encoding="iso-8859-1"?>
<svg version="1.1" id="&#x56FE;&#x5C42;_1" xmlns="http://www.w3.org/2000/svg" xmlns:xlink="http://www.w3.org/1999/xlink" x="0px"
	 y="0px" viewBox="0 0 24 24" style="enable-background:new 0 0 24 24;" xml:space="preserve">
<path style="fill:#333333;" d="M12,21.5c-5.238,0-9.5-3.813-9.5-8.5h1c0,4.136,3.813,7.5,8.5,7.5c4.687,0,8.5-3.364,8.5-7.5h1
	C21.5,17.687,17.238,21.5,12,21.5z M16.271,6.515c-2.584-1.328-5.96-1.328-8.543,0l-0.457-0.89c2.864-1.473,6.592-1.473,9.457,0
	L16.271,6.515z"/>
<path style="fill:#333333;" d="M3.5,13h-1V4.244c0-0.601,0.341-1.125,0.889-1.37c0.549-0.245,1.168-0.146,1.614,0.255l2.832,2.546
	L7.166,6.418L4.334,3.872c-0.223-0.2-0.468-0.115-0.538-0.084C3.727,3.818,3.5,3.943,3.5,4.244V13z"/>
<path style="fill:#333333;" d="M21.5,13h-1V4.244c0-0.301-0.227-0.426-0.297-0.457c-0.068-0.031-0.313-0.116-0.538,0.084
	l-2.831,2.546l-0.668-0.743l2.831-2.546c0.445-0.401,1.064-0.5,1.613-0.255c0.549,0.245,0.89,0.77,0.89,1.37V13z"/>
<circle style="fill:#333333;" cx="15" cy="11" r="1"/>
<circle style="fill:#333333;" cx="9" cy="11" r="1"/>
<circle style="fill:#333333;" cx="12" cy="14" r="1"/>
<rect x="1.99" y="14.75" transform="matrix(0.9965 -0.083 0.083 0.9965 -1.2492 0.4679)" style="fill:#333333;" width="6.021" height="1"/>
<rect x="3.146" y="18.5" transform="matrix(0.8944 -0.4472 0.4472 0.8944 -7.8108 4.9128)" style="fill:#333333;" width="6.708" height="1"/>
<rect x="18.5" y="12.24" transform="matrix(0.083 -0.9965 0.9965 0.083 2.2248 32.9179)" style="fill:#333333;" width="1" height="6.021"/>
<rect x="17" y="15.646" transform="matrix(0.4472 -0.8944 0.8944 0.4472 -7.3204 26.1554)" style="fill:#333333;" width="1" height="6.708"/>
</svg>






