<?xml version="1.0" encoding="iso-8859-1"?>
<svg version="1.1" id="&#x56FE;&#x5C42;_1" xmlns="http://www.w3.org/2000/svg" xmlns:xlink="http://www.w3.org/1999/xlink" x="0px"
	 y="0px" viewBox="0 0 24 24" style="enable-background:new 0 0 24 24;" xml:space="preserve">
<path style="fill:#333333;" d="M19,21.5H5c-1.378,0-2.5-1.121-2.5-2.5v-3c0-1.379,1.122-2.5,2.5-2.5h14c1.379,0,2.5,1.121,2.5,2.5v3
	C21.5,20.379,20.379,21.5,19,21.5z M5,14.5c-0.827,0-1.5,0.673-1.5,1.5v3c0,0.827,0.673,1.5,1.5,1.5h14c0.827,0,1.5-0.673,1.5-1.5
	v-3c0-0.827-0.673-1.5-1.5-1.5H5z"/>
<path style="fill:#333333;" d="M10,11H5c-1.378,0-2.5-1.122-2.5-2.5v-3C2.5,4.122,3.622,3,5,3h5v1H5C4.173,4,3.5,4.673,3.5,5.5v3
	C3.5,9.327,4.173,10,5,10h5V11z"/>
<path style="fill:#333333;" d="M17,11.5c-2.481,0-4.5-2.019-4.5-4.5s2.019-4.5,4.5-4.5s4.5,2.019,4.5,4.5S19.481,11.5,17,11.5z
	 M17,3.5c-1.93,0-3.5,1.57-3.5,3.5s1.57,3.5,3.5,3.5s3.5-1.57,3.5-3.5S18.93,3.5,17,3.5z"/>
<circle style="fill:#333333;" cx="17" cy="7" r="1.5"/>
</svg>






