<?xml version="1.0" encoding="iso-8859-1"?>
<svg version="1.1" id="&#x56FE;&#x5C42;_1" xmlns="http://www.w3.org/2000/svg" xmlns:xlink="http://www.w3.org/1999/xlink" x="0px"
	 y="0px" viewBox="0 0 24 24" style="enable-background:new 0 0 24 24;" xml:space="preserve">
<rect x="20" y="14.879" transform="matrix(0.7071 -0.7071 0.7071 0.7071 -6.0165 19.4749)" style="fill:#333333;" width="1" height="4.243"/>
<path style="fill:#333333;" d="M3,22H2V9c0-3.485,1.927-5.607,5.892-6.488l7.038-1.007l0.141,0.99l-7,1C3.53,4.506,3,7.121,3,9V22z"
	/>
<path style="fill:#333333;" d="M19.5,22h-1v-5.5c0-3.46-4.455-3.5-4.5-3.5c-2.541,0-3.764-1.408-4.495-2.249
	c-0.129-0.149-0.247-0.286-0.359-0.397l0.707-0.707c0.126,0.126,0.26,0.28,0.407,0.448C10.959,10.899,11.916,12,14,12
	c1.902,0,5.5,0.94,5.5,4.5V22z"/>
<path style="fill:#333333;" d="M13,8h-1c0-3.154-1.196-4.5-4-4.5v-1C11.364,2.5,13,4.299,13,8z"/>
<path style="fill:#333333;" d="M15.5,22h-1c0-1.93-1.57-3.5-3.5-3.5S7.5,20.07,7.5,22h-1c0-2.481,2.019-4.5,4.5-4.5
	S15.5,19.519,15.5,22z"/>
</svg>






