<?xml version="1.0" encoding="iso-8859-1"?>
<svg version="1.1" id="&#x56FE;&#x5C42;_1" xmlns="http://www.w3.org/2000/svg" xmlns:xlink="http://www.w3.org/1999/xlink" x="0px"
	 y="0px" viewBox="0 0 24 24" style="enable-background:new 0 0 24 24;" xml:space="preserve">
<path style="fill:#333333;" d="M12,22.5c-3.107,0-5.695-2.33-6.02-5.42l-0.744-7.066C5.034,8.1,5.657,6.181,6.945,4.751
	C8.232,3.32,10.075,2.5,12,2.5c1.924,0,3.767,0.82,5.055,2.251c1.288,1.43,1.91,3.349,1.709,5.263l-0.743,7.066
	C17.695,20.17,15.106,22.5,12,22.5z M6.229,9.909l0.744,7.065C7.245,19.555,9.406,21.5,12,21.5c2.594,0,4.755-1.945,5.027-4.525
	l0.743-7.065c0.172-1.633-0.359-3.269-1.458-4.489S13.642,3.5,12,3.5c-1.642,0-3.213,0.7-4.312,1.92
	C6.589,6.64,6.058,8.276,6.229,9.909L6.229,9.909z"/>
<path style="fill:#333333;" d="M16.68,15.884c-4.604-3.852-8.594-0.686-9.347-0.011l-0.667-0.746
	c0.861-0.77,5.419-4.39,10.654-0.011L16.68,15.884z"/>
<circle style="fill:#333333;" cx="9.5" cy="9" r="1"/>
<circle style="fill:#333333;" cx="10.5" cy="17" r="1"/>
<circle style="fill:#333333;" cx="14.5" cy="9" r="1"/>
<circle style="fill:#333333;" cx="13.5" cy="17" r="1"/>
<path style="fill:#333333;" d="M18.416,7.234l-0.832-0.555c0.236-0.354,1.137-1.543,2.795-1.958
	c0.464-0.116,1.019-0.505,1.144-0.957c0.083-0.301-0.043-0.623-0.376-0.955c-0.934-0.934-3.137,0.433-4.308,1.514l-0.678-0.734
	c1.385-1.28,4.142-3.036,5.692-1.486c0.755,0.755,0.761,1.466,0.633,1.929c-0.244,0.881-1.138,1.478-1.865,1.659
	C19.312,6.019,18.603,6.955,18.416,7.234z"/>
<path style="fill:#333333;" d="M5.632,7.234C5.446,6.955,4.737,6.019,3.427,5.691C2.7,5.51,1.806,4.913,1.562,4.032
	C1.434,3.569,1.439,2.858,2.194,2.103C3.741,0.556,6.5,2.309,7.888,3.589L7.209,4.324c-1.17-1.08-3.375-2.445-4.308-1.514
	C2.569,3.143,2.442,3.464,2.526,3.765c0.125,0.451,0.679,0.84,1.143,0.957c1.658,0.415,2.559,1.603,2.795,1.958L5.632,7.234z"/>
<rect x="5.75" y="12.487" transform="matrix(0.9945 -0.1047 0.1047 0.9945 -1.5228 0.736)" style="fill:#333333;" width="1" height="4.776"/>
<rect x="15.362" y="14.375" transform="matrix(0.1055 -0.9944 0.9944 0.1055 1.0854 30.9567)" style="fill:#333333;" width="4.776" height="1"/>
</svg>






