<?xml version="1.0" encoding="iso-8859-1"?>
<svg version="1.1" id="&#x56FE;&#x5C42;_1" xmlns="http://www.w3.org/2000/svg" xmlns:xlink="http://www.w3.org/1999/xlink" x="0px"
	 y="0px" viewBox="0 0 24 24" style="enable-background:new 0 0 24 24;" xml:space="preserve">
<path style="fill:#333333;" d="M12,21.5c-5.238,0-9.5-4.262-9.5-9.5S6.762,2.5,12,2.5s9.5,4.262,9.5,9.5S17.238,21.5,12,21.5z
	 M12,3.5c-4.687,0-8.5,3.813-8.5,8.5c0,4.687,3.813,8.5,8.5,8.5c4.687,0,8.5-3.813,8.5-8.5C20.5,7.313,16.687,3.5,12,3.5z"/>
<path style="fill:#333333;" d="M7,12H6c0-3.309,2.691-6,6-6v1C9.243,7,7,9.243,7,12z"/>
<path style="fill:#333333;" d="M12,15c-1.654,0-3-1.346-3-3s1.346-3,3-3s3,1.346,3,3S13.654,15,12,15z M12,10c-1.103,0-2,0.897-2,2
	c0,1.103,0.897,2,2,2c1.103,0,2-0.897,2-2C14,10.897,13.103,10,12,10z"/>
</svg>






