<?xml version="1.0" encoding="iso-8859-1"?>
<svg version="1.1" id="&#x56FE;&#x5C42;_1" xmlns="http://www.w3.org/2000/svg" xmlns:xlink="http://www.w3.org/1999/xlink" x="0px"
	 y="0px" viewBox="0 0 24 24" style="enable-background:new 0 0 24 24;" xml:space="preserve">
<path style="fill:#333333;" d="M16.699,14.581c-0.678,0-1.316-0.185-1.798-0.534c-0.857-0.621-1.259-1.681-1.192-3.146l0.998,0.045
	c-0.051,1.125,0.205,1.874,0.781,2.292c0.341,0.247,0.987,0.45,1.797,0.282c0.851-0.179,2.114-0.818,3.301-2.849
	c0.804-1.375,1.044-2.653,0.696-3.696c-0.273-0.818-0.862-1.328-1.169-1.457c-0.441-0.186-0.873-0.253-1.31-0.208L18.7,4.316
	c0.604-0.06,1.21,0.031,1.801,0.281c0.449,0.189,1.32,0.836,1.729,2.062c0.308,0.923,0.423,2.457-0.781,4.517
	c-1.371,2.347-2.909,3.102-3.958,3.322C17.226,14.554,16.959,14.581,16.699,14.581z"/>
<path style="fill:#333333;" d="M19.949,21.587l-0.984-0.174c0.123-0.701-0.074-1.391-0.604-2.108
	c-0.337-0.456-0.868-0.674-1.431-0.903c-0.753-0.309-1.606-0.658-2.075-1.635c-0.708-1.473-0.242-2.493,0.272-3.091l0.758,0.654
	c-0.479,0.554-0.521,1.19-0.13,2.003c0.304,0.631,0.883,0.868,1.554,1.143c0.635,0.26,1.354,0.554,1.856,1.235
	C19.857,19.648,20.121,20.615,19.949,21.587z"/>
<path style="fill:#333333;" d="M7.461,13.604c-1.598,0-2.874-0.501-3.61-1.485l0,0c-1.276-1.707-0.653-4.187,1.625-6.472
	c0.959-0.962,2.154-1.835,3.551-2.596c0.707-0.385,1.388-0.719,2.024-0.994c3.864-1.668,5.838-1.049,6.813-0.239
	c1.195,0.993,2.05,3.725,0.086,6.435c-0.591,0.815-1.402,1.588-2.41,2.299c-1.355,0.955-2.739,1.705-4.112,2.23
	C9.989,13.333,8.638,13.604,7.461,13.604z M4.652,11.521c0.984,1.314,3.503,1.443,6.419,0.328c1.296-0.496,2.605-1.207,3.894-2.114
	c0.918-0.647,1.65-1.343,2.176-2.068c1.743-2.405,0.789-4.495,0.086-5.079c-0.762-0.633-2.383-1.078-5.778,0.388
	c-0.608,0.263-1.262,0.583-1.942,0.954c-1.312,0.714-2.43,1.53-3.321,2.424C4.283,8.261,3.696,10.241,4.652,11.521L4.652,11.521z"/>
<path style="fill:#333333;" d="M13.83,11.22c-1.963-0.709-3.188-1.461-4.228-2.594C8.526,7.453,7.862,6.062,7.628,4.493l0.989-0.147
	C8.821,5.714,9.4,6.927,10.339,7.95c0.921,1.004,2.031,1.68,3.831,2.33L13.83,11.22z"/>
<path style="fill:#333333;" d="M12.541,21.698c-0.839-1.941-1.97-2.885-3.458-2.885c-0.856,0-1.667,0.374-2.451,0.735
	c-1.345,0.622-2.871,1.324-4.365-0.293c-1.556-1.684-0.757-4.078,2.375-7.115l0.696,0.719c-2.667,2.586-3.453,4.51-2.336,5.719
	c0.957,1.033,1.759,0.732,3.211,0.063c0.841-0.389,1.794-0.828,2.87-0.828c1.903,0,3.375,1.174,4.375,3.488L12.541,21.698z"/>
<path style="fill:#333333;" d="M11.429,12.782l-0.357-0.934c1.298-0.497,2.607-1.208,3.894-2.114
	c0.919-0.647,1.65-1.343,2.176-2.068l0.811,0.587c-0.591,0.814-1.401,1.587-2.41,2.298C14.188,11.505,12.804,12.256,11.429,12.782z"
	/>
<path style="fill:#333333;" d="M6.185,6.353L5.477,5.647c0.959-0.962,2.154-1.835,3.551-2.596c0.707-0.385,1.388-0.719,2.024-0.994
	l0.396,0.918c-0.608,0.263-1.262,0.583-1.942,0.954C8.194,4.644,7.077,5.459,6.185,6.353z"/>
</svg>






