<?xml version="1.0" encoding="iso-8859-1"?>
<svg version="1.1" id="&#x56FE;&#x5C42;_1" xmlns="http://www.w3.org/2000/svg" xmlns:xlink="http://www.w3.org/1999/xlink" x="0px"
	 y="0px" viewBox="0 0 24 24" style="enable-background:new 0 0 24 24;" xml:space="preserve">
<path style="fill:#333333;" d="M21,18.5h-4v-1h4c0.275,0,0.5-0.225,0.5-0.5V4c0-0.276-0.225-0.5-0.5-0.5H3
	C2.724,3.5,2.5,3.724,2.5,4v13c0,0.275,0.224,0.5,0.5,0.5h10v1H3c-0.827,0-1.5-0.673-1.5-1.5V4c0-0.827,0.673-1.5,1.5-1.5h18
	c0.827,0,1.5,0.673,1.5,1.5v13C22.5,17.827,21.827,18.5,21,18.5z"/>
<rect x="6" y="6.5" style="fill:#333333;" width="12" height="1"/>
<rect x="6" y="10" style="fill:#333333;" width="3" height="1"/>
<rect x="6" y="13.5" style="fill:#333333;" width="2" height="1"/>
<path style="fill:#333333;" d="M15,17c-1.93,0-3.5-1.57-3.5-3.5S13.07,10,15,10s3.5,1.57,3.5,3.5S16.93,17,15,17z M15,11
	c-1.379,0-2.5,1.121-2.5,2.5S13.621,16,15,16s2.5-1.121,2.5-2.5S16.379,11,15,11z"/>
<path style="fill:#333333;" d="M17.5,21.809l-2.5-1.25l-2.5,1.25V15.75l0.898-0.303C13.411,15.463,13.864,16,15,16
	c1.134,0,1.586-0.547,1.604-0.569l0.896,0.306V21.809z M15,19.441l1.5,0.75v-3.494C16.128,16.865,15.633,17,15,17
	s-1.128-0.133-1.5-0.299v3.49L15,19.441z"/>
</svg>






