<?xml version="1.0" encoding="iso-8859-1"?>
<svg version="1.1" id="&#x56FE;&#x5C42;_1" xmlns="http://www.w3.org/2000/svg" xmlns:xlink="http://www.w3.org/1999/xlink" x="0px"
	 y="0px" viewBox="0 0 24 24" style="enable-background:new 0 0 24 24;" xml:space="preserve">
<path style="fill:#333333;" d="M18,15.5H6c-1.93,0-3.5-1.57-3.5-3.5V8.5h19V12C21.5,13.93,19.93,15.5,18,15.5z M3.5,9.5V12
	c0,1.379,1.122,2.5,2.5,2.5h12c1.379,0,2.5-1.121,2.5-2.5V9.5H3.5z"/>
<rect x="4" y="20.5" style="fill:#333333;" width="16" height="1"/>
<rect x="4.158" y="17.5" transform="matrix(0.2423 -0.9702 0.9702 0.2423 -11.9703 20.6724)" style="fill:#333333;" width="6.185" height="1"/>
<rect x="16.25" y="14.908" transform="matrix(0.9701 -0.2425 0.2425 0.9701 -3.8655 4.5999)" style="fill:#333333;" width="1" height="6.185"/>
<polygon style="fill:#333333;" points="14.511,9.105 13.096,2.5 10.904,2.5 9.489,9.105 8.511,8.895 10.096,1.5 13.904,1.5 
	15.489,8.895 "/>
<rect x="18" y="5" style="fill:#333333;" width="2" height="1"/>
<rect x="4" y="5" style="fill:#333333;" width="2" height="1"/>
</svg>






