<?xml version="1.0" encoding="iso-8859-1"?>
<svg version="1.1" id="&#x56FE;&#x5C42;_1" xmlns="http://www.w3.org/2000/svg" xmlns:xlink="http://www.w3.org/1999/xlink" x="0px"
	 y="0px" viewBox="0 0 24 24" style="enable-background:new 0 0 24 24;" xml:space="preserve">
<rect x="2.382" y="16.25" transform="matrix(0.3555 -0.9347 0.9347 0.3555 -10.4998 18.2726)" style="fill:#333333;" width="11.236" height="1"/>
<rect x="15.5" y="11.132" transform="matrix(0.9345 -0.356 0.356 0.9345 -4.9149 6.7936)" style="fill:#333333;" width="0.999" height="11.236"/>
<rect x="8" y="16.5" style="fill:#333333;" width="8" height="1"/>
<path style="fill:#333333;" d="M14.728,12H9.273C7.64,12,6.5,10.938,6.5,9.417V5.5h2V3c0-0.827,0.673-1.5,1.5-1.5h4
	c0.827,0,1.5,0.673,1.5,1.5v2.5h2v3.917C17.5,10.938,16.36,12,14.728,12z M7.5,6.5v2.917C7.5,10.393,8.179,11,9.273,11h5.455
	c1.094,0,1.772-0.607,1.772-1.583V6.5h-2V3c0-0.276-0.225-0.5-0.5-0.5h-4C9.724,2.5,9.5,2.724,9.5,3v3.5H7.5z"/>
<rect x="15" y="5.5" style="fill:#333333;" width="4" height="1"/>
<rect x="5" y="5.5" style="fill:#333333;" width="4" height="1"/>
</svg>






