<?xml version="1.0" encoding="iso-8859-1"?>
<svg version="1.1" id="&#x56FE;&#x5C42;_1" xmlns="http://www.w3.org/2000/svg" xmlns:xlink="http://www.w3.org/1999/xlink" x="0px"
	 y="0px" viewBox="0 0 24 24" style="enable-background:new 0 0 24 24;" xml:space="preserve">
<path style="fill:#333333;" d="M7.5,16.5h-5v-9h5V16.5z M3.5,15.5h3v-7h-3V15.5z"/>
<rect x="4.5" y="3" style="fill:#333333;" width="1" height="5"/>
<rect x="4.5" y="16" style="fill:#333333;" width="1" height="5"/>
<path style="fill:#333333;" d="M21.5,16.5h-5v-9h5V16.5z M17.5,15.5h3v-7h-3V15.5z"/>
<rect x="18.5" y="3" style="fill:#333333;" width="1" height="5"/>
<rect x="18.5" y="16" style="fill:#333333;" width="1" height="5"/>
<path style="fill:#333333;" d="M14.5,15.5h-5v-9h5V15.5z M10.5,14.5h3v-7h-3V14.5z"/>
<rect x="11.5" y="2" style="fill:#333333;" width="1" height="5"/>
<rect x="11.5" y="15" style="fill:#333333;" width="1" height="5"/>
</svg>






