<?xml version="1.0" encoding="iso-8859-1"?>
<svg version="1.1" id="&#x56FE;&#x5C42;_1" xmlns="http://www.w3.org/2000/svg" xmlns:xlink="http://www.w3.org/1999/xlink" x="0px"
	 y="0px" viewBox="0 0 24 24" style="enable-background:new 0 0 24 24;" xml:space="preserve">
<polygon style="fill:#333333;" points="21,21.5 2.5,21.5 2.5,3 3.5,3 3.5,20.5 21,20.5 "/>
<path style="fill-rule:evenodd;clip-rule:evenodd;fill:#333333;" d="M10,12c1.105,0,2-0.895,2-2s-0.895-2-2-2s-2,0.895-2,2
	S8.895,12,10,12z"/>
<path style="fill-rule:evenodd;clip-rule:evenodd;fill:#333333;" d="M18.5,8C19.881,8,21,6.881,21,5.5C21,4.119,19.881,3,18.5,3
	S16,4.119,16,5.5C16,6.881,17.119,8,18.5,8z"/>
<path style="fill-rule:evenodd;clip-rule:evenodd;fill:#333333;" d="M7.5,18C8.328,18,9,17.328,9,16.5C9,15.672,8.328,15,7.5,15
	S6,15.672,6,16.5C6,17.328,6.672,18,7.5,18z"/>
<path style="fill-rule:evenodd;clip-rule:evenodd;fill:#333333;" d="M16.5,16c0.828,0,1.5-0.672,1.5-1.5S17.328,13,16.5,13
	c-0.828,0-1.5,0.672-1.5,1.5S15.672,16,16.5,16z"/>
</svg>






