<?xml version="1.0" encoding="iso-8859-1"?>
<svg version="1.1" id="&#x56FE;&#x5C42;_1" xmlns="http://www.w3.org/2000/svg" xmlns:xlink="http://www.w3.org/1999/xlink" x="0px"
	 y="0px" viewBox="0 0 24 24" style="enable-background:new 0 0 24 24;" xml:space="preserve">
<path style="fill:#333333;" d="M12,22.5C6.21,22.5,1.5,17.79,1.5,12c0-2.805,1.092-5.441,3.075-7.424
	c0.982-0.982,2.128-1.749,3.406-2.279l0.383,0.924C7.208,3.7,6.171,4.394,5.282,5.283C3.488,7.077,2.5,9.462,2.5,12
	c0,5.238,4.262,9.5,9.5,9.5c2.538,0,4.924-0.988,6.718-2.782c0.889-0.889,1.582-1.925,2.062-3.081l0.924,0.383
	c-0.53,1.278-1.297,2.424-2.278,3.405C17.441,21.408,14.805,22.5,12,22.5z"/>
<path style="fill:#333333;" d="M22.5,12.5h-11v-11H12c5.79,0,10.5,4.71,10.5,10.5V12.5z M12.5,11.5h8.987
	c-0.253-4.841-4.146-8.734-8.987-8.987V11.5z"/>
</svg>






