<?xml version="1.0" encoding="iso-8859-1"?>
<svg version="1.1" id="&#x56FE;&#x5C42;_1" xmlns="http://www.w3.org/2000/svg" xmlns:xlink="http://www.w3.org/1999/xlink" x="0px"
	 y="0px" viewBox="0 0 24 24" style="enable-background:new 0 0 24 24;" xml:space="preserve">
<path style="fill:#333333;" d="M12.5,22H12C6.486,22,2,17.514,2,12C2,6.486,6.486,2,12,2c5.514,0,10,4.486,10,10v0.5h-9
	c-0.275,0-0.5,0.225-0.5,0.5V22z M12,3c-4.962,0-9,4.038-9,9c0,4.795,3.769,8.726,8.5,8.986V13c0-0.827,0.673-1.5,1.5-1.5h7.986
	C20.726,6.769,16.795,3,12,3z"/>
<path style="fill:#333333;" d="M21.5,21.5h-7v-7h7V21.5z M15.5,20.5h5v-5h-5V20.5z"/>
</svg>






