<?xml version="1.0" encoding="iso-8859-1"?>
<svg version="1.1" id="&#x56FE;&#x5C42;_1" xmlns="http://www.w3.org/2000/svg" xmlns:xlink="http://www.w3.org/1999/xlink" x="0px"
	 y="0px" viewBox="0 0 24 24" style="enable-background:new 0 0 24 24;" xml:space="preserve">
<path style="fill:#333333;" d="M12,22.5C6.21,22.5,1.5,17.79,1.5,12C1.5,6.21,6.21,1.5,12,1.5h0.5v10h10V12
	C22.5,17.79,17.79,22.5,12,22.5z M11.5,2.513C6.493,2.774,2.5,6.93,2.5,12c0,5.238,4.262,9.5,9.5,9.5c5.07,0,9.226-3.993,9.487-9
	H11.5V2.513z"/>
<path style="fill:#333333;" d="M22.223,9.5H14.5V1.777l0.649,0.204c3.273,1.028,5.842,3.596,6.869,6.869L22.223,9.5z M15.5,8.5
	h5.335C19.87,6.063,17.937,4.13,15.5,3.166V8.5z"/>
</svg>






