<?xml version="1.0" encoding="iso-8859-1"?>
<svg version="1.1" id="&#x56FE;&#x5C42;_1" xmlns="http://www.w3.org/2000/svg" xmlns:xlink="http://www.w3.org/1999/xlink" x="0px"
	 y="0px" viewBox="0 0 24 24" style="enable-background:new 0 0 24 24;" xml:space="preserve">
<path style="fill:#333333;" d="M8.458,10.7l-0.916-0.4l3.065-7.006c0.167-0.383,0.49-0.681,0.886-0.817
	c0.393-0.136,0.832-0.1,1.2,0.098l5.545,2.985L17.763,6.44l-5.545-2.985c-0.124-0.068-0.266-0.079-0.399-0.033
	c-0.134,0.046-0.239,0.143-0.295,0.272L8.458,10.7z"/>
<polygon style="fill:#333333;" points="21.5,21 12.5,21 12.5,18.5 13.5,18.5 13.5,20 20.5,20 20.5,6.5 13.5,6.5 13.5,15.5 
	12.5,15.5 12.5,5.5 21.5,5.5 "/>
<path style="fill:#333333;" d="M2,22.5v-1c2.802,0,3.871-1.089,4.651-1.885c0.438-0.446,0.852-0.868,1.442-0.954
	c0.482-0.069,0.966-0.129,1.446-0.187c1.034-0.126,2.009-0.245,2.895-0.46c1.687-0.411,3.049-0.944,3.556-1.154
	c0.057-0.023,0.133-0.069,0.177-0.153c0.363-0.699,0.358-1.07,0.315-1.127c0,0-0.022-0.02-0.1-0.031
	c-0.459-0.075-1.547,0.176-2.603,0.418c-1.47,0.336-3.134,0.721-4.282,0.56c-1.21-0.163-1.58-0.715-1.676-1.149
	c-0.149-0.674,0.316-1.389,0.83-1.72c1.229-0.791,2.581-0.812,3.349-0.74V9.659c-1.804,0.529-7.027,2.23-9.116,4.739l-0.769-0.641
	c2.739-3.289,9.955-5.164,10.26-5.242L13,8.356v5.781l-0.62-0.151c-0.017-0.004-1.75-0.413-3.188,0.514
	c-0.235,0.15-0.434,0.484-0.395,0.661c0.028,0.125,0.263,0.299,0.833,0.376c0.965,0.127,2.539-0.229,3.926-0.545
	c1.255-0.285,2.343-0.529,2.983-0.431c0.493,0.08,0.728,0.356,0.837,0.573c0.239,0.477,0.13,1.161-0.324,2.035
	c-0.143,0.274-0.385,0.492-0.681,0.615c-0.528,0.219-1.947,0.774-3.702,1.201c-0.942,0.229-1.946,0.353-3.01,0.481
	c-0.473,0.058-0.949,0.115-1.423,0.185c-0.256,0.037-0.528,0.313-0.872,0.665C6.511,21.186,5.222,22.5,2,22.5z"/>
<rect x="16" y="10" style="fill:#333333;" width="5" height="1"/>
</svg>






