<?xml version="1.0" encoding="iso-8859-1"?>
<svg version="1.1" id="&#x56FE;&#x5C42;_1" xmlns="http://www.w3.org/2000/svg" xmlns:xlink="http://www.w3.org/1999/xlink" x="0px"
	 y="0px" viewBox="0 0 24 24" style="enable-background:new 0 0 24 24;" xml:space="preserve">
<g>
	<defs>
		<rect id="SVGID_1_" width="24" height="24"/>
	</defs>
	<clipPath id="SVGID_00000137839296211534050260000012931169030185212314_">
		<use xlink:href="#SVGID_1_"  style="overflow:visible;"/>
	</clipPath>
	<g style="clip-path:url(#SVGID_00000137839296211534050260000012931169030185212314_);">
		<path style="fill:#333333;" d="M19.5,21.5h-15c-1.103,0-2-0.897-2-2v-15c0-1.103,0.897-2,2-2H15v1H4.5c-0.551,0-1,0.449-1,1v15
			c0,0.552,0.449,1,1,1h15c0.552,0,1-0.448,1-1V10h1v9.5C21.5,20.603,20.603,21.5,19.5,21.5z"/>
		<polygon style="fill:#333333;" points="13.1,14.721 7.688,10.391 8.312,9.609 12.9,13.279 20.093,3.209 20.907,3.791 		"/>
	</g>
</g>
</svg>






