<?xml version="1.0" encoding="iso-8859-1"?>
<svg version="1.1" id="&#x56FE;&#x5C42;_1" xmlns="http://www.w3.org/2000/svg" xmlns:xlink="http://www.w3.org/1999/xlink" x="0px"
	 y="0px" viewBox="0 0 24 24" style="enable-background:new 0 0 24 24;" xml:space="preserve">
<path style="fill:#333333;" d="M21.013,10.081c-0.26-0.586-3.869-2.976-11.18-6.841C9.661,3.15,9.457,3.17,9.302,3.292L2.809,8.393
	L2.191,7.607l6.493-5.101c0.464-0.365,1.098-0.425,1.617-0.149C22,8.541,22,9.601,22,10h-1C21,10.051,21.013,10.081,21.013,10.081z"
	/>
<path style="fill:#333333;" d="M3.501,21.445c-0.382,0-0.755-0.147-1.033-0.411C2.17,20.752,2,20.355,2,19.946V8.826
	C2,8.355,2.214,7.92,2.588,7.63c0.376-0.291,0.855-0.389,1.315-0.27c3.333,0.864,11.575,2.792,16.095,2.026
	c0.5-0.083,1.04,0.062,1.434,0.396C21.793,10.087,22,10.522,22,10.976v8.075c0,0.798-0.624,1.456-1.421,1.498l-17,0.895
	C3.553,21.445,3.527,21.445,3.501,21.445z M3.52,8.311c-0.114,0-0.227,0.038-0.32,0.11C3.073,8.52,3,8.667,3,8.826v11.12
	c0,0.139,0.055,0.267,0.156,0.362c0.102,0.096,0.237,0.137,0.371,0.137l17-0.895c0.266-0.015,0.474-0.234,0.474-0.5v-8.075
	c0-0.217-0.134-0.363-0.214-0.43c-0.172-0.146-0.407-0.208-0.622-0.173C15.455,11.169,7.047,9.208,3.652,8.328
	C3.608,8.317,3.564,8.311,3.52,8.311z"/>
<circle style="fill:#333333;" cx="6" cy="12.5" r="1"/>
<circle style="fill:#333333;" cx="12.5" cy="13.5" r="1"/>
<circle style="fill:#333333;" cx="17" cy="16" r="1"/>
<g>
	<circle style="fill:#333333;" cx="9" cy="16" r="1"/>
	<path style="fill:#333333;" d="M9,17.5c-0.827,0-1.5-0.673-1.5-1.5s0.673-1.5,1.5-1.5s1.5,0.673,1.5,1.5S9.827,17.5,9,17.5z
		 M9,15.5c-0.276,0-0.5,0.225-0.5,0.5s0.224,0.5,0.5,0.5s0.5-0.225,0.5-0.5S9.276,15.5,9,15.5z"/>
</g>
</svg>






