<?xml version="1.0" encoding="iso-8859-1"?>
<svg version="1.1" id="&#x56FE;&#x5C42;_1" xmlns="http://www.w3.org/2000/svg" xmlns:xlink="http://www.w3.org/1999/xlink" x="0px"
	 y="0px" viewBox="0 0 24 24" style="enable-background:new 0 0 24 24;" xml:space="preserve">
<path style="fill:#333333;" d="M16.5,21.5h-9C6.673,21.5,6,20.827,6,20v-7.543c-2.051-0.582-3.5-2.47-3.5-4.637
	C2.5,5.162,4.662,3,7.32,3C7.631,3,7.94,3.03,8.243,3.088C9.157,2.075,10.444,1.5,11.82,1.5c1.414,0,2.72,0.6,3.637,1.656
	C15.854,3.053,16.265,3,16.68,3c2.658,0,4.82,2.162,4.82,4.82c0,2.167-1.449,4.056-3.5,4.637V20C18,20.827,17.327,21.5,16.5,21.5z
	 M7.32,4C5.213,4,3.5,5.713,3.5,7.82c0,1.829,1.301,3.407,3.094,3.751L7,11.649V20c0,0.275,0.224,0.5,0.5,0.5h9
	c0.275,0,0.5-0.225,0.5-0.5v-8.351l0.405-0.078C19.198,11.227,20.5,9.649,20.5,7.82C20.5,5.713,18.786,4,16.68,4
	c-0.425,0-0.841,0.069-1.238,0.205l-0.344,0.118l-0.219-0.291C14.149,3.058,13.034,2.5,11.82,2.5c-1.176,0-2.269,0.53-2.999,1.454
	L8.618,4.211L8.301,4.127C7.983,4.042,7.653,4,7.32,4z"/>
<rect x="6.5" y="15" style="fill:#333333;" width="11" height="1"/>
<rect x="9.5" y="12.5" style="fill:#333333;" width="1" height="3"/>
<rect x="17" y="14" style="fill:#333333;" width="1" height="3"/>
<rect x="6" y="14" style="fill:#333333;" width="1" height="3"/>
</svg>






