<?xml version="1.0" encoding="iso-8859-1"?>
<svg version="1.1" id="&#x56FE;&#x5C42;_1" xmlns="http://www.w3.org/2000/svg" xmlns:xlink="http://www.w3.org/1999/xlink" x="0px"
	 y="0px" viewBox="0 0 24 24" style="enable-background:new 0 0 24 24;" xml:space="preserve">
<path style="fill:#333333;" d="M18.5,21.5h-13v-5h13V21.5z M6.5,20.5h11v-3h-11V20.5z"/>
<rect x="14" y="10" style="fill:#333333;" width="1" height="7"/>
<rect x="10.5" y="13" style="fill:#333333;" width="1" height="4"/>
<path style="fill:#333333;" d="M18.5,17.5h-13v-4.732C4.826,12.292,3,10.792,3,8.5c0-2.587,2.296-3.848,4.574-3.987
	C7.929,3.251,9.546,1.5,12,1.5c2.452,0,4.068,1.748,4.425,3.009C19.299,4.64,21,6.111,21,8.5c0,2.292-1.826,3.792-2.5,4.268V17.5z
	 M6.5,16.5h11v-4.282l0.242-0.146C17.765,12.058,20,10.679,20,8.5c0-2.61-2.506-3-4-3h-0.5V5c0-0.764-1.322-2.5-3.5-2.5
	S8.5,4.236,8.5,5v0.5H8c-1.383,0-4,0.627-4,3c0,2.179,2.235,3.558,2.258,3.571l0.241,0.146L6.5,16.5z"/>
</svg>






