<?xml version="1.0" encoding="iso-8859-1"?>
<svg version="1.1" id="&#x56FE;&#x5C42;_1" xmlns="http://www.w3.org/2000/svg" xmlns:xlink="http://www.w3.org/1999/xlink" x="0px"
	 y="0px" viewBox="0 0 24 24" style="enable-background:new 0 0 24 24;" xml:space="preserve">
<path style="fill:#333333;" d="M7,21.5c-2.481,0-4.5-2.019-4.5-4.5s2.019-4.5,4.5-4.5s4.5,2.019,4.5,4.5S9.481,21.5,7,21.5z M7,13.5
	c-1.93,0-3.5,1.57-3.5,3.5s1.57,3.5,3.5,3.5s3.5-1.57,3.5-3.5S8.93,13.5,7,13.5z"/>
<path style="fill:#333333;" d="M17.5,22.5c-2.206,0-4-1.794-4-4s1.794-4,4-4s4,1.794,4,4S19.706,22.5,17.5,22.5z M17.5,15.5
	c-1.654,0-3,1.346-3,3s1.346,3,3,3s3-1.346,3-3S19.154,15.5,17.5,15.5z"/>
<path style="fill:#333333;" d="M9.464,13.686l-0.929-0.371l0.042-0.105c0.504-1.264,1.196-2.996,3.714-5.438
	c1.998-1.938,5.4-3.047,6.062-3.25l0.293,0.956c-1.722,0.527-4.236,1.632-5.659,3.011c-2.365,2.293-2.983,3.844-3.481,5.091
	L9.464,13.686z"/>
<path style="fill:#333333;" d="M16.536,15.186c-0.543-1.355-1.027-3.138-0.507-6.078c0.428-2.415,1.921-4.231,2.089-4.431
	l0.764,0.646c-0.548,0.646-1.558,2.208-1.868,3.958c-0.476,2.693-0.039,4.308,0.45,5.533L16.536,15.186z"/>
<rect x="18" y="0.39" transform="matrix(0.6508 -0.7593 0.7593 0.6508 2.6641 15.7923)" style="fill:#333333;" width="0.999" height="9.22"/>
</svg>






