<?xml version="1.0" encoding="iso-8859-1"?>
<svg version="1.1" id="&#x56FE;&#x5C42;_1" xmlns="http://www.w3.org/2000/svg" xmlns:xlink="http://www.w3.org/1999/xlink" x="0px"
	 y="0px" viewBox="0 0 24 24" style="enable-background:new 0 0 24 24;" xml:space="preserve">
<path style="fill:#333333;" d="M20,22.5H4L3.5,22v-2l0.276-0.447l3-1.5L7,18h10l0.224,0.053l3,1.5L20.5,20v2L20,22.5z M4.5,21.5h15
	v-1.191L16.882,19H7.118L4.5,20.309V21.5z"/>
<rect x="7" y="9" style="fill:#333333;" width="10" height="1"/>
<path style="fill:none;" d="M13.87,9.5l2.63,9h-9l2.63-9"/>
<polygon style="fill:#333333;" points="16.5,19 7.5,19 7.02,18.359 9.65,9.36 10.61,9.64 8.167,18 15.833,18 13.391,9.64 
	14.35,9.36 16.979,18.359 "/>
<path style="fill:#333333;" d="M14.068,10H9.933L9.819,9.937C8.389,9.144,7.5,7.635,7.5,6c0-2.481,2.019-4.5,4.5-4.5
	s4.5,2.019,4.5,4.5c0,1.635-0.889,3.144-2.319,3.937L14.068,10z M10.196,9h3.609C14.854,8.368,15.5,7.23,15.5,6
	c0-1.93-1.57-3.5-3.5-3.5S8.5,4.07,8.5,6C8.5,7.23,9.146,8.368,10.196,9z"/>
</svg>






