<?xml version="1.0" encoding="iso-8859-1"?>
<svg version="1.1" id="&#x56FE;&#x5C42;_1" xmlns="http://www.w3.org/2000/svg" xmlns:xlink="http://www.w3.org/1999/xlink" x="0px"
	 y="0px" viewBox="0 0 24 24" style="enable-background:new 0 0 24 24;" xml:space="preserve">
<path style="fill:#333333;" d="M17,7.5H7L6.5,7V2L7,1.5h10L17.5,2v5L17,7.5z M7.5,6.5h9v-4h-9V6.5z"/>
<polygon style="fill:#333333;" points="16.5,19 7.5,19 7.016,18.374 10.016,6.874 10.984,7.126 8.147,18 15.853,18 13.017,7.126 
	13.983,6.874 16.983,18.374 "/>
<path style="fill:#333333;" d="M20,22.5H4L3.5,22v-2l0.276-0.447l3-1.5L7,18h10l0.224,0.053l3,1.5L20.5,20v2L20,22.5z M4.5,21.5h15
	v-1.191L16.882,19H7.118L4.5,20.309V21.5z"/>
<rect x="6" y="11.01" style="fill:#333333;" width="12" height="1"/>
<rect x="9.75" y="2" style="fill:#333333;" width="1" height="2"/>
<rect x="13.25" y="2" style="fill:#333333;" width="1" height="2"/>
</svg>






