<?xml version="1.0" encoding="iso-8859-1"?>
<svg version="1.1" id="&#x56FE;&#x5C42;_1" xmlns="http://www.w3.org/2000/svg" xmlns:xlink="http://www.w3.org/1999/xlink" x="0px"
	 y="0px" viewBox="0 0 24 24" style="enable-background:new 0 0 24 24;" xml:space="preserve">
<path style="fill:#333333;" d="M10.059,9.06C9.561,8.129,8.933,7.28,8.19,6.533C8.168,6.528,8.146,6.523,8.124,6.518
	C7.632,6.407,7.211,6.109,6.942,5.681C6.672,5.252,6.585,4.744,6.697,4.25c0.112-0.494,0.41-0.914,0.838-1.184
	S8.47,2.709,8.966,2.821c0.628,0.143,1.141,0.602,1.36,1.199c1.164,0.61,2.407,1.04,3.698,1.278l0.262,0.048
	c0.84,0.155,1.639,0.457,2.372,0.897l0.733,0.439c0.333,0.2,0.647,0.435,0.936,0.697l-0.676,0.738
	c-0.238-0.218-0.499-0.413-0.774-0.578l-0.732-0.439c-0.632-0.378-1.317-0.638-2.04-0.771l-0.262-0.048
	c-1.462-0.27-2.866-0.768-4.174-1.48L9.47,4.694L9.42,4.473C9.344,4.138,9.079,3.873,8.745,3.797
	C8.512,3.745,8.271,3.785,8.069,3.912C7.866,4.04,7.726,4.238,7.673,4.471C7.62,4.705,7.661,4.945,7.788,5.148
	C7.916,5.35,8.114,5.491,8.347,5.543c0.042,0.01,0.082,0.016,0.121,0.02l0.178,0.015l0.128,0.125
	c0.865,0.846,1.594,1.816,2.166,2.883L10.059,9.06z"/>
<path style="fill:#333333;" d="M13.582,20.723c-1.445,0-2.972-0.094-4.082-0.162C8.944,20.526,8.519,20.5,8.305,20.5
	c-1.122,0-2.366-0.587-3.09-1.089C4.417,18.856,3.5,17.969,3.5,16c0-1.84,1.575-3.602,1.782-3.825l0.036-0.038
	c0.167-0.176,1.751-1.82,3.186-2.8c1.388-0.948,4.508-2.077,5.119-2.294l0.103-0.034c0.404-0.123,2.554-0.679,4.998,0.544
	c2.483,1.242,3.47,2.319,3.77,4.115c0.158,0.949-0.035,2.057-0.226,2.817c-0.163,0.65-0.37,1.267-0.615,1.829
	c-0.257,0.595-0.692,1.433-1.299,2.039l-0.319,0.326c-0.778,0.804-1.293,1.335-3.426,1.809
	C15.815,20.664,14.724,20.723,13.582,20.723z M5.653,12.51l0.366,0.341C5.958,12.917,4.5,14.5,4.5,16
	c0,1.492,0.618,2.126,1.285,2.589c0.632,0.439,1.69,0.911,2.52,0.911c0.225,0,0.672,0.027,1.256,0.062
	c1.808,0.112,5.171,0.318,6.83-0.051c1.84-0.408,2.202-0.782,2.924-1.527l0.331-0.338c0.495-0.495,0.865-1.214,1.089-1.729
	c0.224-0.514,0.412-1.077,0.562-1.674c0.168-0.67,0.34-1.631,0.21-2.411c-0.209-1.252-0.785-2.163-3.23-3.385
	c-2.15-1.075-4.049-0.545-4.26-0.482c-0.422,0.148-3.635,1.3-4.949,2.198c-1.373,0.938-2.968,2.602-3.035,2.673L5.653,12.51z"/>
<path style="fill:#333333;" d="M10.579,18.509c-0.21,0-0.421-0.018-0.631-0.053C9.01,18.3,8.153,17.868,7.469,17.207l-0.369-0.356
	c-0.328-0.315-0.613-0.676-0.848-1.071l-1.087-1.826l-0.334-0.668c-0.519-1.041-1.197-1.985-2.015-2.809
	c-0.021-0.004-0.042-0.008-0.063-0.013c-0.495-0.112-0.916-0.41-1.185-0.839c-0.27-0.429-0.356-0.937-0.245-1.43
	C1.555,7.175,2.57,6.536,3.592,6.765c0.628,0.143,1.141,0.602,1.361,1.199c1.162,0.61,2.405,1.04,3.697,1.278l0.262,0.048
	c0.842,0.156,1.64,0.458,2.373,0.897l0.732,0.44c0.537,0.322,1.016,0.727,1.424,1.201l0.202,0.236
	c0.705,0.821,1.026,1.906,0.882,2.978l-0.013,0.104c-0.101,0.748-0.431,1.428-0.956,1.968l-0.232,0.237
	C12.598,18.097,11.604,18.509,10.579,18.509z M3.17,7.718c-0.167,0-0.331,0.047-0.475,0.138c-0.203,0.127-0.343,0.326-0.396,0.56
	C2.246,8.649,2.287,8.889,2.414,9.091s0.326,0.343,0.56,0.396c0.041,0.009,0.083,0.016,0.125,0.02l0.176,0.017l0.126,0.124
	c0.95,0.929,1.732,2.002,2.325,3.192l0.316,0.635l1.069,1.793c0.19,0.318,0.42,0.609,0.684,0.864l0.369,0.356
	c0.538,0.52,1.211,0.858,1.948,0.981c0.917,0.155,1.849-0.152,2.497-0.817l0.232-0.237c0.373-0.384,0.609-0.869,0.681-1.4
	l0.013-0.104c0.106-0.791-0.131-1.59-0.649-2.195l-0.202-0.235c-0.338-0.394-0.734-0.729-1.18-0.996l-0.732-0.44
	c-0.63-0.378-1.316-0.637-2.04-0.771l-0.262-0.048c-1.463-0.27-2.868-0.768-4.174-1.48L4.097,8.638l-0.05-0.22
	C3.971,8.082,3.705,7.816,3.371,7.741C3.304,7.726,3.237,7.718,3.17,7.718z"/>
</svg>






