<?xml version="1.0" encoding="iso-8859-1"?>
<svg version="1.1" id="&#x56FE;&#x5C42;_1" xmlns="http://www.w3.org/2000/svg" xmlns:xlink="http://www.w3.org/1999/xlink" x="0px"
	 y="0px" viewBox="0 0 24 24" style="enable-background:new 0 0 24 24;" xml:space="preserve">
<g>
	<defs>
		<rect id="SVGID_1_" width="24" height="24"/>
	</defs>
	<clipPath id="SVGID_00000108289125686114209880000010227400739784890269_">
		<use xlink:href="#SVGID_1_"  style="overflow:visible;"/>
	</clipPath>
	<g style="clip-path:url(#SVGID_00000108289125686114209880000010227400739784890269_);">
		<path style="fill:#333333;" d="M13.314,18.445c-0.774,0-1.621-0.088-2.514-0.267c-2.722-0.544-5.279-1.802-6.841-3.363
			c-2.563-2.563-3.91-6.696,0-10.606c3.91-3.911,8.043-2.564,10.607,0c3.416,3.416,4.804,10.751,2.475,13.082l0,0
			C16.283,18.049,14.961,18.445,13.314,18.445z M9.194,2.758c-1.365,0-2.917,0.548-4.527,2.158c-4.265,4.265-1.078,8.114,0,9.192
			c1.427,1.428,3.793,2.583,6.33,3.09c2.431,0.486,4.474,0.249,5.338-0.614c1.933-1.934,0.499-8.694-2.475-11.667
			C13.188,4.246,11.443,2.758,9.194,2.758z"/>
		
			<rect x="18.25" y="16.275" transform="matrix(0.7071 -0.7071 0.7071 0.7071 -7.7665 18.75)" style="fill:#333333;" width="1" height="4.95"/>
		<circle style="fill:#333333;" cx="21.097" cy="20.036" r="1.25"/>
		<circle style="fill:#333333;" cx="20.036" cy="21.096" r="1.25"/>
		<circle style="fill:#333333;" cx="8.5" cy="9" r="1"/>
		<circle style="fill:#333333;" cx="6" cy="10.5" r="1"/>
		<circle style="fill:#333333;" cx="8.5" cy="12" r="1"/>
	</g>
</g>
</svg>






