<?xml version="1.0" encoding="iso-8859-1"?>
<svg version="1.1" id="&#x56FE;&#x5C42;_1" xmlns="http://www.w3.org/2000/svg" xmlns:xlink="http://www.w3.org/1999/xlink" x="0px"
	 y="0px" viewBox="0 0 24 24" style="enable-background:new 0 0 24 24;" xml:space="preserve">
<path style="fill:#333333;" d="M15.012,15.608c-0.584-2.629,0.349-7.215,5.312-9.077l0.352,0.937
	c-4.883,1.831-5.039,6.34-4.688,7.923L15.012,15.608z"/>
<rect x="6" y="1.697" transform="matrix(0.8321 -0.5547 0.5547 0.8321 -0.8498 4.1934)" style="fill:#333333;" width="1" height="3.606"/>
<path style="fill:#333333;" d="M13.447,22.224l-0.895-0.447l1.105-2.21l0.229-0.054c2.858-0.662,4.613-2.783,4.613-4.013h1
	c0,1.763-2.062,4.124-5.156,4.931L13.447,22.224z"/>
<path style="fill:#333333;" d="M8.553,22.224l-0.908-1.816c-4.421-1.562-5.598-6.21-5.598-8.481
	c-0.231-2.472,0.37-4.411,1.787-5.717c1.849-1.704,4.702-1.924,6.753-1.565l-0.173,0.985c-1.733-0.304-4.32-0.143-5.903,1.315
	C3.335,8.028,2.842,9.688,3.044,11.88c0.002,2.1,1.069,6.331,5.11,7.645l0.199,0.064l1.094,2.188L8.553,22.224z"/>
<path style="fill:#333333;" d="M19.671,16H15.5c-3.862,0-5.886-3.57-6.492-6.911l0.984-0.179C10.251,10.339,11.414,15,15.5,15h2.881
	c-0.224-1.55,0.203-3.843,2.929-4.962l0.381,0.925c-3.049,1.252-2.306,4.077-2.211,4.395L19.671,16z"/>
</svg>






