<?xml version="1.0" encoding="iso-8859-1"?>
<svg version="1.1" id="&#x56FE;&#x5C42;_1" xmlns="http://www.w3.org/2000/svg" xmlns:xlink="http://www.w3.org/1999/xlink" x="0px"
	 y="0px" viewBox="0 0 24 24" style="enable-background:new 0 0 24 24;" xml:space="preserve">
<path style="fill:#333333;" d="M21.5,16h-1c0-7.47-2.484-11.5-3.5-11.5c-0.897,0-2.107,1.835-2.553,2.724L14.309,7.5H9.691
	L9.553,7.224C9.107,6.335,7.897,4.5,7,4.5C5.984,4.5,3.5,8.53,3.5,16h-1C2.5,8.846,4.876,3.5,7,3.5c1.514,0,2.852,2.18,3.302,3
	h3.396c0.45-0.82,1.788-3,3.302-3C19.124,3.5,21.5,8.846,21.5,16z"/>
<path style="fill:#333333;" d="M21,20.5H3c-0.827,0-1.5-0.673-1.5-1.5v-2c0-0.827,0.673-1.5,1.5-1.5h18c0.827,0,1.5,0.673,1.5,1.5v2
	C22.5,19.827,21.827,20.5,21,20.5z M3,16.5c-0.276,0-0.5,0.225-0.5,0.5v2c0,0.275,0.224,0.5,0.5,0.5h18c0.275,0,0.5-0.225,0.5-0.5
	v-2c0-0.275-0.225-0.5-0.5-0.5H3z"/>
</svg>






