<?xml version="1.0" encoding="iso-8859-1"?>
<svg version="1.1" id="&#x56FE;&#x5C42;_1" xmlns="http://www.w3.org/2000/svg" xmlns:xlink="http://www.w3.org/1999/xlink" x="0px"
	 y="0px" viewBox="0 0 24 24" style="enable-background:new 0 0 24 24;" xml:space="preserve">
<g>
	<defs>
		<rect id="SVGID_1_" width="24" height="24"/>
	</defs>
	<clipPath id="SVGID_00000010290830568761135760000004169818662882058371_">
		<use xlink:href="#SVGID_1_"  style="overflow:visible;"/>
	</clipPath>
	<g style="clip-path:url(#SVGID_00000010290830568761135760000004169818662882058371_);">
		<path style="fill:#333333;" d="M4.508,22.054c-0.34,0-0.676-0.104-0.963-0.307c-0.433-0.307-0.689-0.786-0.705-1.315
			c-0.015-0.53,0.214-1.023,0.629-1.354l1.39-1.104c2.013-1.599,3.459-3.747,4.185-6.213l1.06-3.604
			c0.438-1.493,1.533-2.642,3.003-3.153c1.471-0.512,3.041-0.289,4.312,0.61c1.098,0.777,1.818,1.989,1.977,3.325
			c0.159,1.336-0.259,2.684-1.146,3.696l-1.565,1.787c-2.651,3.027-6.04,5.392-9.798,6.838l-1.78,0.684
			C4.914,22.018,4.71,22.054,4.508,22.054z M14.683,5.734c-0.417,0-0.837,0.07-1.247,0.213c-1.161,0.404-2.025,1.312-2.372,2.491
			l-1.06,3.604c-0.783,2.666-2.347,4.987-4.521,6.715l-1.39,1.104c-0.167,0.132-0.258,0.33-0.252,0.543s0.109,0.404,0.282,0.527
			c0.184,0.129,0.417,0.158,0.626,0.078l1.78-0.684c3.607-1.388,6.86-3.657,9.405-6.562l1.565-1.788c0.7-0.8,1.03-1.864,0.904-2.92
			C18.278,8,17.709,7.042,16.842,6.429C16.193,5.97,15.444,5.734,14.683,5.734z"/>
		<path style="fill:#333333;" d="M19.117,8.428l-0.625-0.781c0.298-0.237,0.518-0.555,0.638-0.918
			c0.339-1.029-0.223-2.143-1.252-2.482c-0.498-0.166-1.032-0.125-1.5,0.112C15.908,4.595,15.56,5,15.396,5.498l-0.949-0.312
			c0.247-0.752,0.773-1.363,1.48-1.72c0.709-0.356,1.513-0.416,2.264-0.169c1.553,0.512,2.4,2.192,1.889,3.745
			C19.898,7.589,19.566,8.069,19.117,8.428z"/>
		
			<rect x="18.586" y="2.5" transform="matrix(0.7071 -0.7071 0.7071 0.7071 3.7365 15.0208)" style="fill:#333333;" width="2.828" height="1"/>
	</g>
</g>
</svg>






