<?xml version="1.0" encoding="iso-8859-1"?>
<svg version="1.1" id="&#x56FE;&#x5C42;_1" xmlns="http://www.w3.org/2000/svg" xmlns:xlink="http://www.w3.org/1999/xlink" x="0px"
	 y="0px" viewBox="0 0 24 24" style="enable-background:new 0 0 24 24;" xml:space="preserve">
<path style="fill:#333333;" d="M12,21.5c-4.962,0-9-4.037-9-9c0-4.962,4.038-9,9-9c4.963,0,9,4.038,9,9
	C21,17.463,16.963,21.5,12,21.5z M12,4.5c-4.411,0-8,3.589-8,8s3.589,8,8,8s8-3.589,8-8S16.411,4.5,12,4.5z"/>
<polygon style="fill:#333333;" points="15.5,11.559 14.276,10.947 14.724,10.053 15.5,10.441 16.276,10.053 16.724,10.947 "/>
<polygon style="fill:#333333;" points="8.5,11.559 7.276,10.947 7.724,10.053 8.5,10.441 9.276,10.053 9.724,10.947 "/>
<rect x="11.5" y="19" style="fill:#333333;" width="1" height="3"/>
<path style="fill:#333333;" d="M11.515,4.121C11.435,3.8,10.734,2.5,9,2.5v-1c2.184,0,3.291,1.603,3.485,2.379L11.515,4.121z"/>
<path style="fill:#333333;" d="M12.498,4.042l-0.996-0.084c0.055-0.655,0.38-1.895,1.25-2.392l0.496,0.868
	C12.777,2.703,12.538,3.563,12.498,4.042z"/>
<path style="fill:#333333;" d="M16.487,20h-1c0-2.992,0-4-3.487-4c-2.193,0-2.795,0.479-3.074,0.896
	c-0.414,0.619-0.414,1.703-0.414,3.076l-1,0.027c0-1.569,0-2.788,0.583-3.66C8.723,15.4,9.891,15,12,15
	C16.487,15,16.487,16.989,16.487,20z"/>
<rect x="2" y="11.5" style="fill:#333333;" width="1" height="2"/>
<rect x="21" y="11.5" style="fill:#333333;" width="1" height="2"/>
</svg>






