<?xml version="1.0" encoding="iso-8859-1"?>
<svg version="1.1" id="&#x56FE;&#x5C42;_1" xmlns="http://www.w3.org/2000/svg" xmlns:xlink="http://www.w3.org/1999/xlink" x="0px"
	 y="0px" viewBox="0 0 24 24" style="enable-background:new 0 0 24 24;" xml:space="preserve">
<rect x="2" y="21.5" style="fill:#333333;" width="20" height="1"/>
<rect x="6.5" y="6.5" style="fill:#333333;" width="11" height="1"/>
<path style="fill:#333333;" d="M18.571,22.5H5.429l2.133-16h8.875L18.571,22.5z M6.571,21.5h10.857l-1.866-14H8.438L6.571,21.5z"/>
<rect x="7.5" y="11.5" style="fill:#333333;" width="9" height="1"/>
<rect x="6.5" y="16.5" style="fill:#333333;" width="11" height="1"/>
<rect x="16.5" y="6.934" transform="matrix(0.9912 -0.1322 0.1322 0.9912 -1.7672 2.3739)" style="fill:#333333;" width="1.001" height="15.133"/>
<rect x="-0.566" y="14" transform="matrix(0.1328 -0.9911 0.9911 0.1328 -8.3012 19.5123)" style="fill:#333333;" width="15.133" height="1"/>
<path style="fill:#333333;" d="M12.354,4.354l-0.707-0.707l0.414-0.414C12.533,2.76,13.16,2.5,13.828,2.5h0.344
	c0.395,0,0.781-0.16,1.061-0.439l0.414-0.414l0.707,0.707l-0.414,0.414C15.467,3.24,14.84,3.5,14.172,3.5h-0.344
	c-0.395,0-0.781,0.16-1.061,0.439L12.354,4.354z"/>
</svg>






