<?xml version="1.0" encoding="iso-8859-1"?>
<svg version="1.1" id="&#x56FE;&#x5C42;_1" xmlns="http://www.w3.org/2000/svg" xmlns:xlink="http://www.w3.org/1999/xlink" x="0px"
	 y="0px" viewBox="0 0 24 24" style="enable-background:new 0 0 24 24;" xml:space="preserve">
<path style="fill:#333333;" d="M18.555,10L5.392,9.988C5.341,9.977,4.138,9.711,3.358,9.479C2.756,9.3,1.832,8.971,1.832,8.971
	l0.12-0.968c0.015-0.001,1.514-0.149,2.372-0.471c1.214-0.455,2.826-1.89,2.842-1.904L7.309,5.5h9.382l0.142,0.127
	c0.017,0.014,1.629,1.449,2.843,1.904c0.858,0.322,2.357,0.469,2.372,0.471l0.12,0.968c0,0-0.924,0.33-1.525,0.509
	c-0.78,0.231-1.984,0.498-2.035,0.509L18.555,10z M5.555,9h12.89c0.189-0.042,0.86-0.195,1.458-0.353
	c-0.204-0.053-0.401-0.113-0.579-0.179c-1.172-0.44-2.562-1.583-3.012-1.968H7.688c-0.45,0.386-1.84,1.528-3.012,1.968
	C4.498,8.535,4.301,8.594,4.097,8.647C4.694,8.805,5.365,8.958,5.555,9z"/>
<path style="fill:#333333;" d="M15,6.5H9L8.6,5.7L12,1.167L15.4,5.7L15,6.5z M10,5.5h4l-2-2.667L10,5.5z"/>
<rect x="5" y="9.5" style="fill:#333333;" width="1" height="9.5"/>
<rect x="18" y="9.5" style="fill:#333333;" width="1" height="9.5"/>
<path style="fill:#333333;" d="M21.5,22.5h-19v-4h19V22.5z M3.5,21.5h17v-2h-17V21.5z"/>
</svg>






