<?xml version="1.0" encoding="iso-8859-1"?>
<svg version="1.1" id="&#x56FE;&#x5C42;_1" xmlns="http://www.w3.org/2000/svg" xmlns:xlink="http://www.w3.org/1999/xlink" x="0px"
	 y="0px" viewBox="0 0 24 24" style="enable-background:new 0 0 24 24;" xml:space="preserve">
<path style="fill:#333333;" d="M19.5,21.5h-15c-1.103,0-2-0.897-2-2v-15c0-1.103,0.897-2,2-2h15c1.103,0,2,0.897,2,2v15
	C21.5,20.603,20.603,21.5,19.5,21.5z M4.5,3.5c-0.551,0-1,0.449-1,1v15c0,0.552,0.449,1,1,1h15c0.552,0,1-0.448,1-1v-15
	c0-0.551-0.448-1-1-1H4.5z"/>
<path style="fill:#333333;" d="M8.704,16c-1.219,0-2.579-1.289-2.695-3.678C5.897,10.051,6.944,8.2,8.444,8.018
	c1.361-0.162,2.21,0.861,2.529,1.79l-0.946,0.324c-0.1-0.292-0.496-1.235-1.463-1.121c-0.821,0.1-1.649,1.375-1.557,3.263
	C7.089,13.958,7.952,15,8.704,15c0.848,0,1.333-1.085,1.337-1.096l0.918,0.396C10.93,14.369,10.214,16,8.704,16z"/>
<rect x="12.5" y="9.5" style="fill:#333333;" width="1" height="6"/>
<path style="fill:#333333;" d="M18,15.5h-1v-3.25c0-0.965-0.785-1.75-1.75-1.75s-1.75,0.785-1.75,1.75v3.25h-1v-3.25
	c0-1.517,1.233-2.75,2.75-2.75S18,10.733,18,12.25V15.5z"/>
</svg>






