<?xml version="1.0" encoding="iso-8859-1"?>
<svg version="1.1" id="&#x56FE;&#x5C42;_1" xmlns="http://www.w3.org/2000/svg" xmlns:xlink="http://www.w3.org/1999/xlink" x="0px"
	 y="0px" viewBox="0 0 24 24" style="enable-background:new 0 0 24 24;" xml:space="preserve">
<path style="fill:#333333;" d="M17,21.5H7c-0.827,0-1.5-0.673-1.5-1.5V4c0-0.827,0.673-1.5,1.5-1.5h10c0.827,0,1.5,0.673,1.5,1.5v16
	C18.5,20.827,17.827,21.5,17,21.5z M7,3.5C6.724,3.5,6.5,3.724,6.5,4v16c0,0.275,0.224,0.5,0.5,0.5h10c0.275,0,0.5-0.225,0.5-0.5V4
	c0-0.276-0.225-0.5-0.5-0.5H7z"/>
<rect x="3" y="5.5" style="fill:#333333;" width="3" height="1"/>
<rect x="3" y="9.5" style="fill:#333333;" width="3" height="1"/>
<rect x="3" y="13.5" style="fill:#333333;" width="3" height="1"/>
<rect x="3" y="17.5" style="fill:#333333;" width="3" height="1"/>
<rect x="18" y="5.5" style="fill:#333333;" width="3" height="1"/>
<rect x="18" y="9.5" style="fill:#333333;" width="3" height="1"/>
<rect x="18" y="13.5" style="fill:#333333;" width="3" height="1"/>
<rect x="18" y="17.5" style="fill:#333333;" width="3" height="1"/>
</svg>






