<?xml version="1.0" encoding="iso-8859-1"?>
<svg version="1.1" id="&#x56FE;&#x5C42;_1" xmlns="http://www.w3.org/2000/svg" xmlns:xlink="http://www.w3.org/1999/xlink" x="0px"
	 y="0px" viewBox="0 0 24 24" style="enable-background:new 0 0 24 24;" xml:space="preserve">
<path style="fill:#333333;" d="M21.006,20.5H7c-2.509,0-5.5-1.475-5.5-8.5c0-8.09,4.582-8.5,5.5-8.5h14.006
	C21.83,3.5,22.5,4.173,22.5,5v14C22.5,19.827,21.83,20.5,21.006,20.5z M7,4.5c-0.751,0-4.5,0.362-4.5,7.5c0,4.977,1.514,7.5,4.5,7.5
	h14.006c0.277,0,0.494-0.22,0.494-0.5V5c0-0.276-0.222-0.5-0.494-0.5H7z"/>
<rect x="5.5" y="10" style="fill:#333333;" width="1" height="4"/>
</svg>






