<?xml version="1.0" encoding="iso-8859-1"?>
<svg version="1.1" id="&#x56FE;&#x5C42;_1" xmlns="http://www.w3.org/2000/svg" xmlns:xlink="http://www.w3.org/1999/xlink" x="0px"
	 y="0px" viewBox="0 0 24 24" style="enable-background:new 0 0 24 24;" xml:space="preserve">
<rect x="11.5" y="18" style="fill:#333333;" width="1" height="4"/>
<path style="fill:#333333;" d="M21,18.5H3l-0.371-0.836l3.429-3.79l-1.671-0.387l-0.241-0.841L7.793,9L6.31,7.517L12,1.257
	l5.69,6.26L16.207,9l3.646,3.646l-0.24,0.841l-1.672,0.387l3.43,3.79L21,18.5z M4.126,17.5h15.747l-3.814-4.216l2.45-0.568L14.793,9
	l1.517-1.517L12,2.743l-4.31,4.74L9.207,9l-3.716,3.716l2.451,0.568L4.126,17.5z"/>
</svg>






