<?xml version="1.0" encoding="iso-8859-1"?>
<svg version="1.1" id="&#x56FE;&#x5C42;_1" xmlns="http://www.w3.org/2000/svg" xmlns:xlink="http://www.w3.org/1999/xlink" x="0px"
	 y="0px" viewBox="0 0 24 24" style="enable-background:new 0 0 24 24;" xml:space="preserve">
<path style="fill:#333333;" d="M19.5,17.5h-15l-0.391-0.812l3.579-4.474L5.11,11.183l4.045-4.045l-2-1L12,1.293l4.844,4.844l-2,1
	l4.082,4.082l-3.044,1.015l3.99,4.432L19.5,17.5z M5.541,16.5h12.836l-4.26-4.733l2.957-0.986l-3.918-3.918l2-1L12,2.707
	L8.844,5.863l2,1L6.89,10.817l2.422,0.969L5.541,16.5z"/>
<rect x="8.5" y="21.5" style="fill:#333333;" width="7" height="1"/>
<rect x="7.738" y="19" transform="matrix(0.0996 -0.995 0.995 0.0996 -10.1739 27.7568)" style="fill:#333333;" width="5.025" height="1"/>
<rect x="13.25" y="16.988" transform="matrix(0.995 -0.0995 0.0995 0.995 -1.8721 1.465)" style="fill:#333333;" width="0.999" height="5.025"/>
</svg>






