<?xml version="1.0" encoding="iso-8859-1"?>
<svg version="1.1" id="&#x56FE;&#x5C42;_1" xmlns="http://www.w3.org/2000/svg" xmlns:xlink="http://www.w3.org/1999/xlink" x="0px"
	 y="0px" viewBox="0 0 24 24" style="enable-background:new 0 0 24 24;" xml:space="preserve">
<rect x="11.5" y="2" style="fill:#333333;" width="1" height="6"/>
<rect x="10" y="3.5" style="fill:#333333;" width="4" height="1"/>
<path style="fill:#333333;" d="M4,22H3v-7c0-0.827,0.673-1.5,1.5-1.5h3v1h-3C4.224,14.5,4,14.725,4,15V22z"/>
<path style="fill:#333333;" d="M21,22h-1v-7c0-0.275-0.225-0.5-0.5-0.5h-3v-1h3c0.827,0,1.5,0.673,1.5,1.5V22z"/>
<rect x="2" y="21.5" style="fill:#333333;" width="20" height="1"/>
<path style="fill:#333333;" d="M17,22.5H7V11.275l5-4.444l5,4.444V22.5z M8,21.5h8v-9.775l-4-3.556l-4,3.556V21.5z"/>
<rect x="11.5" y="17" style="fill:#333333;" width="1" height="5"/>
<rect x="10" y="21.5" style="fill:#333333;" width="4" height="1"/>
</svg>






