<?xml version="1.0" encoding="iso-8859-1"?>
<svg version="1.1" id="&#x56FE;&#x5C42;_1" xmlns="http://www.w3.org/2000/svg" xmlns:xlink="http://www.w3.org/1999/xlink" x="0px"
	 y="0px" viewBox="0 0 24 24" style="enable-background:new 0 0 24 24;" xml:space="preserve">
<path style="fill:#333333;" d="M20,6.5c-1.379,0-2.5-1.122-2.5-2.5s1.121-2.5,2.5-2.5s2.5,1.122,2.5,2.5S21.379,6.5,20,6.5z M20,2.5
	c-0.827,0-1.5,0.673-1.5,1.5s0.673,1.5,1.5,1.5s1.5-0.673,1.5-1.5S20.827,2.5,20,2.5z"/>
<path style="fill:#333333;" d="M12,14.5c-1.378,0-2.5-1.121-2.5-2.5c0-1.378,1.122-2.5,2.5-2.5c1.379,0,2.5,1.122,2.5,2.5
	C14.5,13.379,13.379,14.5,12,14.5z M12,10.5c-0.827,0-1.5,0.673-1.5,1.5s0.673,1.5,1.5,1.5s1.5-0.673,1.5-1.5S12.827,10.5,12,10.5z"
	/>
<path style="fill:#333333;" d="M20,22.5c-1.379,0-2.5-1.121-2.5-2.5s1.121-2.5,2.5-2.5s2.5,1.121,2.5,2.5S21.379,22.5,20,22.5z
	 M20,18.5c-0.827,0-1.5,0.673-1.5,1.5s0.673,1.5,1.5,1.5s1.5-0.673,1.5-1.5S20.827,18.5,20,18.5z"/>
<path style="fill:#333333;" d="M4,6.5C2.622,6.5,1.5,5.378,1.5,4S2.622,1.5,4,1.5S6.5,2.622,6.5,4S5.378,6.5,4,6.5z M4,2.5
	C3.173,2.5,2.5,3.173,2.5,4S3.173,5.5,4,5.5S5.5,4.827,5.5,4S4.827,2.5,4,2.5z"/>
<path style="fill:#333333;" d="M4,22.5c-1.378,0-2.5-1.121-2.5-2.5s1.122-2.5,2.5-2.5s2.5,1.121,2.5,2.5S5.378,22.5,4,22.5z M4,18.5
	c-0.827,0-1.5,0.673-1.5,1.5s0.673,1.5,1.5,1.5s1.5-0.673,1.5-1.5S4.827,18.5,4,18.5z"/>
<rect x="10" y="19.5" style="fill:#333333;" width="4" height="1"/>
<rect x="10" y="3.5" style="fill:#333333;" width="4" height="1"/>
<rect x="3.5" y="10" style="fill:#333333;" width="1" height="4"/>
<rect x="19.5" y="10" style="fill:#333333;" width="1" height="4"/>
</svg>






