<?xml version="1.0" encoding="iso-8859-1"?>
<svg version="1.1" id="&#x56FE;&#x5C42;_1" xmlns="http://www.w3.org/2000/svg" xmlns:xlink="http://www.w3.org/1999/xlink" x="0px"
	 y="0px" viewBox="0 0 24 24" style="enable-background:new 0 0 24 24;" xml:space="preserve">
<path style="fill:#333333;" d="M20,6.5c-1.379,0-2.5-1.122-2.5-2.5s1.121-2.5,2.5-2.5s2.5,1.122,2.5,2.5S21.379,6.5,20,6.5z M20,2.5
	c-0.827,0-1.5,0.673-1.5,1.5s0.673,1.5,1.5,1.5s1.5-0.673,1.5-1.5S20.827,2.5,20,2.5z"/>
<path style="fill:#333333;" d="M4,22.5c-1.378,0-2.5-1.121-2.5-2.5s1.122-2.5,2.5-2.5s2.5,1.121,2.5,2.5S5.378,22.5,4,22.5z M4,18.5
	c-0.827,0-1.5,0.673-1.5,1.5s0.673,1.5,1.5,1.5s1.5-0.673,1.5-1.5S4.827,18.5,4,18.5z"/>
<polygon style="fill:#333333;" points="20.5,20.5 10,20.5 10,19.5 19.5,19.5 19.5,10 20.5,10 "/>
<polygon style="fill:#333333;" points="4.5,14 3.5,14 3.5,3.5 14,3.5 14,4.5 4.5,4.5 "/>
</svg>






