<?xml version="1.0" encoding="iso-8859-1"?>
<svg version="1.1" id="&#x56FE;&#x5C42;_1" xmlns="http://www.w3.org/2000/svg" xmlns:xlink="http://www.w3.org/1999/xlink" x="0px"
	 y="0px" viewBox="0 0 24 24" style="enable-background:new 0 0 24 24;" xml:space="preserve">
<path style="fill:#333333;" d="M12,5.5c-1.103,0-2-0.897-2-2s0.897-2,2-2c1.103,0,2,0.897,2,2S13.103,5.5,12,5.5z M12,2.5
	c-0.551,0-1,0.449-1,1s0.449,1,1,1c0.552,0,1-0.449,1-1S12.552,2.5,12,2.5z"/>
<path style="fill:#333333;" d="M12,22.5c-1.103,0-2-0.897-2-2s0.897-2,2-2c1.103,0,2,0.897,2,2S13.103,22.5,12,22.5z M12,19.5
	c-0.551,0-1,0.448-1,1s0.449,1,1,1c0.552,0,1-0.448,1-1S12.552,19.5,12,19.5z"/>
<path style="fill:#333333;" d="M3.5,14c-1.103,0-2-0.897-2-2c0-1.103,0.897-2,2-2s2,0.897,2,2C5.5,13.103,4.603,14,3.5,14z M3.5,11
	c-0.551,0-1,0.449-1,1c0,0.552,0.449,1,1,1s1-0.448,1-1C4.5,11.449,4.051,11,3.5,11z"/>
<path style="fill:#333333;" d="M20.5,14c-1.103,0-2-0.897-2-2c0-1.103,0.897-2,2-2s2,0.897,2,2C22.5,13.103,21.603,14,20.5,14z
	 M20.5,11c-0.552,0-1,0.449-1,1c0,0.552,0.448,1,1,1s1-0.448,1-1C21.5,11.449,21.052,11,20.5,11z"/>
<path style="fill:#333333;" d="M15.87,18.886l-0.258-0.475c-0.702-1.286-2.049-2.086-3.514-2.086c-1.459,0-2.804,0.795-3.507,2.075
	l-0.26,0.474l-0.452-0.297c-0.974-0.64-1.804-1.505-2.401-2.503L5.236,15.67l0.389-0.266c1.094-0.747,1.748-1.983,1.748-3.306
	c0-1.318-0.649-2.551-1.737-3.299L5.247,8.533L5.49,8.13c0.649-1.078,1.562-1.991,2.64-2.64l0.403-0.243L8.8,5.635
	c0.748,1.087,1.981,1.737,3.299,1.737c1.322,0,2.559-0.653,3.306-1.748l0.266-0.389l0.404,0.242c1,0.598,1.865,1.429,2.504,2.404
	l0.283,0.432l-0.44,0.269C17.218,9.316,16.5,10.594,16.5,12c0,1.43,0.771,2.76,2.013,3.473l0.448,0.257l-0.272,0.439
	c-0.597,0.967-1.415,1.804-2.365,2.422L15.87,18.886z M12.099,15.325c1.644,0,3.168,0.805,4.097,2.133
	c0.521-0.399,0.985-0.877,1.371-1.408C16.28,15.114,15.5,13.607,15.5,12c0-1.579,0.724-3.027,1.959-3.97
	c-0.428-0.559-0.944-1.051-1.523-1.452c-0.945,1.132-2.347,1.794-3.837,1.794c-1.484,0-2.882-0.658-3.828-1.782
	C7.617,7.046,7.046,7.617,6.59,8.271c1.124,0.946,1.782,2.344,1.782,3.828c0,1.489-0.663,2.892-1.794,3.837
	c0.396,0.571,0.882,1.083,1.434,1.509C8.942,16.125,10.462,15.325,12.099,15.325z"/>
</svg>






