<?xml version="1.0" encoding="iso-8859-1"?>
<svg version="1.1" id="&#x56FE;&#x5C42;_1" xmlns="http://www.w3.org/2000/svg" xmlns:xlink="http://www.w3.org/1999/xlink" x="0px"
	 y="0px" viewBox="0 0 24 24" style="enable-background:new 0 0 24 24;" xml:space="preserve">
<path style="fill:#333333;" d="M22.707,22.5H1.292l0.236-0.667c0.015-0.042,1.505-4.264,1.983-6.44
	c0.438-1.999,0.489-2.428,0.491-2.445l0.995,0.101c-0.004,0.044-0.054,0.483-0.509,2.56c-0.379,1.728-1.339,4.597-1.785,5.893
	h18.594c-0.445-1.296-1.405-4.164-1.785-5.893c-0.455-2.076-0.505-2.516-0.51-2.56l0.996-0.096c0.001,0.013,0.052,0.441,0.49,2.44
	c0.478,2.177,1.968,6.398,1.983,6.44L22.707,22.5z"/>
<path style="fill:#333333;" d="M8.407,22.291L7.593,21.71c0.024-0.033,2.382-3.409,1.91-7.654l0.994-0.111
	C11.012,18.582,8.514,22.142,8.407,22.291z"/>
<path style="fill:#333333;" d="M15.593,22.291c-0.106-0.149-2.604-3.709-2.09-8.347l0.994,0.111
	c-0.472,4.245,1.887,7.621,1.91,7.654L15.593,22.291z"/>
<path style="fill:#333333;" d="M10,14.75c-0.48,0-0.877-0.463-1.379-1.05c-0.195-0.228-0.514-0.599-0.667-0.696
	c-0.017,0.01-0.074,0.026-0.165,0.062c-1.402,0.559-2.641,0.631-3.684,0.214l-1.059-0.424L2.424,8.504L2.997,8.5
	c0.037,0,3.75-0.032,5.37-0.482c1.363-0.378,3.378-1.448,3.398-1.459l0.244-0.13l0.24,0.138c0.019,0.011,1.878,1.073,3.146,1.455
	c1.691,0.509,5.566,0.477,5.601,0.479l0.582-0.005l-0.619,4.335l-0.234,0.117C20.091,13.264,18.558,14,18,14
	c-0.401,0-0.827-0.283-1.277-0.584c-0.225-0.149-0.6-0.4-0.731-0.416c-0.14,0.05-0.687,0.561-0.948,0.807
	c-1.02,0.951-1.066,0.951-2.086,0c-0.237-0.223-0.709-0.664-0.937-0.784c-0.161,0.118-0.456,0.462-0.641,0.678
	C10.877,14.287,10.48,14.75,10,14.75z M8,12c0.48,0,0.877,0.463,1.379,1.05c0.177,0.207,0.456,0.531,0.621,0.662
	c0.165-0.131,0.443-0.455,0.621-0.662C11.123,12.463,11.52,12,12,12c0.457,0,0.925,0.406,1.641,1.076
	c0.112,0.104,0.25,0.233,0.359,0.329c0.109-0.096,0.247-0.225,0.359-0.329C15.075,12.406,15.543,12,16,12
	c0.401,0,0.827,0.283,1.277,0.584c0.225,0.149,0.6,0.4,0.731,0.416c0.225-0.013,1.188-0.421,2.033-0.832l0.382-2.669
	c-1.187-0.012-3.881-0.087-5.318-0.52c-1.106-0.333-2.548-1.099-3.114-1.411c-0.599,0.307-2.167,1.083-3.357,1.414
	c-1.36,0.377-3.917,0.48-5.059,0.508l0.379,2.653l0.522,0.209c0.808,0.322,1.77,0.253,2.943-0.216C7.656,12.043,7.84,12,8,12z"/>
<rect x="11.5" y="2.5" style="fill:#333333;" width="1" height="5"/>
<path style="fill:#333333;" d="M16.776,6.667c-0.616,0-1.304-0.251-2.054-0.751c-0.705-0.47-1.314-0.659-1.76-0.553
	c-0.362,0.089-0.514,0.357-0.52,0.369L11.5,5.5V2.382l0.053-0.105c0.034-0.068,0.354-0.667,1.136-0.875
	c0.746-0.196,1.614,0.034,2.589,0.683c0.706,0.471,1.316,0.661,1.76,0.553c0.362-0.089,0.514-0.357,0.52-0.369L18.5,2.5v3.118
	l-0.053,0.105c-0.034,0.068-0.354,0.667-1.136,0.875C17.14,6.645,16.961,6.667,16.776,6.667z M13.224,4.333
	c0.616,0,1.304,0.251,2.054,0.751c0.706,0.471,1.316,0.662,1.76,0.553c0.241-0.06,0.39-0.199,0.463-0.288V3.539
	c-0.06,0.022-0.122,0.043-0.188,0.061c-0.746,0.197-1.614-0.033-2.589-0.683c-0.705-0.471-1.314-0.658-1.76-0.553
	c-0.241,0.06-0.39,0.199-0.463,0.288v1.811c0.06-0.022,0.122-0.043,0.188-0.061C12.86,4.355,13.039,4.333,13.224,4.333z"/>
</svg>






