<?xml version="1.0" encoding="iso-8859-1"?>
<svg version="1.1" id="&#x56FE;&#x5C42;_1" xmlns="http://www.w3.org/2000/svg" xmlns:xlink="http://www.w3.org/1999/xlink" x="0px"
	 y="0px" viewBox="0 0 24 24" style="enable-background:new 0 0 24 24;" xml:space="preserve">
<path style="fill:#333333;" d="M12,6.5c-1.378,0-2.5-1.122-2.5-2.5s1.122-2.5,2.5-2.5c1.379,0,2.5,1.122,2.5,2.5S13.379,6.5,12,6.5z
	 M12,2.5c-0.827,0-1.5,0.673-1.5,1.5s0.673,1.5,1.5,1.5s1.5-0.673,1.5-1.5S12.827,2.5,12,2.5z"/>
<path style="fill:#333333;" d="M12,14.5c-1.378,0-2.5-1.121-2.5-2.5c0-1.378,1.122-2.5,2.5-2.5c1.379,0,2.5,1.122,2.5,2.5
	C14.5,13.379,13.379,14.5,12,14.5z M12,10.5c-0.827,0-1.5,0.673-1.5,1.5s0.673,1.5,1.5,1.5s1.5-0.673,1.5-1.5S12.827,10.5,12,10.5z"
	/>
<path style="fill:#333333;" d="M18.933,10.5c-0.864,0-1.706-0.448-2.169-1.25c-0.335-0.578-0.423-1.252-0.25-1.897
	s0.587-1.184,1.165-1.518c0.577-0.333,1.251-0.424,1.896-0.25c0.646,0.173,1.185,0.586,1.519,1.165
	c0.333,0.578,0.422,1.252,0.249,1.897c-0.172,0.645-0.586,1.184-1.164,1.518C19.786,10.392,19.356,10.5,18.933,10.5z M18.926,6.5
	c-0.26,0-0.516,0.068-0.747,0.202c-0.348,0.2-0.596,0.524-0.699,0.911c-0.104,0.387-0.051,0.791,0.149,1.138
	c0.415,0.715,1.334,0.964,2.05,0.549c0.347-0.2,0.595-0.523,0.698-0.911s0.051-0.791-0.149-1.138s-0.523-0.595-0.911-0.699
	C19.188,6.517,19.057,6.5,18.926,6.5z"/>
<path style="fill:#333333;" d="M18.924,18.501c-0.433,0-0.86-0.113-1.245-0.336c-1.194-0.689-1.604-2.222-0.915-3.415l0,0
	c0.689-1.193,2.221-1.603,3.415-0.916c1.194,0.691,1.604,2.223,0.914,3.416c-0.333,0.578-0.872,0.992-1.518,1.165
	C19.36,18.473,19.142,18.501,18.924,18.501z M17.629,15.25c-0.413,0.716-0.167,1.636,0.55,2.05c0.347,0.2,0.754,0.252,1.138,0.149
	c0.388-0.104,0.711-0.352,0.91-0.699c0.415-0.716,0.168-1.636-0.548-2.05C18.963,14.287,18.044,14.533,17.629,15.25L17.629,15.25z"
	/>
<path style="fill:#333333;" d="M12,22.5c-1.378,0-2.5-1.121-2.5-2.5s1.122-2.5,2.5-2.5c1.379,0,2.5,1.121,2.5,2.5
	S13.379,22.5,12,22.5z M12,18.5c-0.827,0-1.5,0.673-1.5,1.5s0.673,1.5,1.5,1.5s1.5-0.673,1.5-1.5S12.827,18.5,12,18.5z"/>
<path style="fill:#333333;" d="M5.076,18.5c-0.865,0-1.707-0.449-2.169-1.25c-0.689-1.193-0.279-2.726,0.915-3.415
	c1.194-0.688,2.726-0.278,3.415,0.915l0,0c0.689,1.193,0.278,2.726-0.915,3.415C5.929,18.392,5.5,18.5,5.076,18.5z M5.069,14.5
	c-0.254,0-0.512,0.064-0.747,0.201c-0.716,0.413-0.962,1.333-0.549,2.049c0.413,0.716,1.333,0.966,2.049,0.549
	c0.716-0.413,0.962-1.333,0.549-2.049C6.093,14.77,5.587,14.5,5.069,14.5z"/>
<path style="fill:#333333;" d="M5.068,10.501c-0.434,0-0.861-0.113-1.246-0.336C3.244,9.831,2.83,9.292,2.657,8.647
	S2.573,7.328,2.907,6.75S3.78,5.758,4.425,5.585c0.646-0.174,1.319-0.083,1.897,0.25C6.9,6.169,7.313,6.708,7.486,7.353
	s0.084,1.319-0.25,1.897s-0.873,0.992-1.518,1.165C5.503,10.473,5.285,10.501,5.068,10.501z M5.074,6.5
	C4.556,6.5,4.05,6.77,3.773,7.25C3.359,7.966,3.605,8.885,4.322,9.299C4.669,9.5,5.072,9.551,5.46,9.449
	C5.847,9.345,6.17,9.097,6.371,8.75c0.414-0.716,0.167-1.635-0.549-2.049C5.586,6.565,5.329,6.5,5.074,6.5z"/>
</svg>






