<?xml version="1.0" encoding="iso-8859-1"?>
<svg version="1.1" id="&#x56FE;&#x5C42;_1" xmlns="http://www.w3.org/2000/svg" xmlns:xlink="http://www.w3.org/1999/xlink" x="0px"
	 y="0px" viewBox="0 0 24 24" style="enable-background:new 0 0 24 24;" xml:space="preserve">
<path style="fill:#333333;" d="M22,12H2l-0.248-0.934c0.052-0.03,5.207-2.99,7.376-5.4c2.131-2.368,2.643-3.812,2.648-3.826
	l0.948,0.002c0.004,0.012,0.516,1.456,2.647,3.824c2.177,2.419,6.848,5.382,6.895,5.412L22,12z M3.798,11h16.541
	c-1.599-1.092-4.188-2.973-5.711-4.666c-1.242-1.38-1.969-2.472-2.378-3.192c-0.409,0.721-1.136,1.812-2.378,3.192
	C8.349,8.027,5.55,9.905,3.798,11z"/>
<path style="fill:#333333;" d="M20.5,22.5h-17V15h17V22.5z M4.5,21.5h15V16h-15V21.5z"/>
<path style="fill:#333333;" d="M18,16H6v-5h12V16z M7,15h10v-3H7V15z"/>
</svg>






