<?xml version="1.0" encoding="iso-8859-1"?>
<svg version="1.1" id="&#x56FE;&#x5C42;_1" xmlns="http://www.w3.org/2000/svg" xmlns:xlink="http://www.w3.org/1999/xlink" x="0px"
	 y="0px" viewBox="0 0 24 24" style="enable-background:new 0 0 24 24;" xml:space="preserve">
<rect x="2" y="20.5" style="fill:#333333;" width="20" height="1"/>
<path style="fill:#333333;" d="M7,21.5H5c-0.827,0-1.5-0.673-1.5-1.5v-6c0-0.827,0.673-1.5,1.5-1.5h2c0.827,0,1.5,0.673,1.5,1.5v6
	C8.5,20.827,7.827,21.5,7,21.5z M5,13.5c-0.276,0-0.5,0.225-0.5,0.5v6c0,0.275,0.224,0.5,0.5,0.5h2c0.276,0,0.5-0.225,0.5-0.5v-6
	c0-0.275-0.224-0.5-0.5-0.5H5z"/>
<rect x="6" y="16.5" style="fill:#333333;" width="0.5" height="1"/>
<path style="fill:#333333;" d="M19,21.5H9c-0.827,0-1.5-0.673-1.5-1.5V3c0-0.827,0.673-1.5,1.5-1.5h10c0.827,0,1.5,0.673,1.5,1.5v17
	C20.5,20.827,19.827,21.5,19,21.5z M9,2.5C8.724,2.5,8.5,2.724,8.5,3v17c0,0.275,0.224,0.5,0.5,0.5h10c0.275,0,0.5-0.225,0.5-0.5V3
	c0-0.276-0.225-0.5-0.5-0.5H9z"/>
<rect x="11" y="5" style="fill:#333333;" width="2" height="2"/>
<rect x="15" y="5" style="fill:#333333;" width="2" height="2"/>
<rect x="11" y="8.5" style="fill:#333333;" width="2" height="2"/>
<rect x="15" y="8.5" style="fill:#333333;" width="2" height="2"/>
<rect x="15" y="12" style="fill:#333333;" width="2" height="2"/>
<rect x="15" y="15.5" style="fill:#333333;" width="2" height="2"/>
</svg>






