<?xml version="1.0" encoding="iso-8859-1"?>
<svg version="1.1" id="&#x56FE;&#x5C42;_1" xmlns="http://www.w3.org/2000/svg" xmlns:xlink="http://www.w3.org/1999/xlink" x="0px"
	 y="0px" viewBox="0 0 24 24" style="enable-background:new 0 0 24 24;" xml:space="preserve">
<rect x="2" y="20.5" style="fill:#333333;" width="20" height="1"/>
<path style="fill:#333333;" d="M9,21.5H5c-0.827,0-1.5-0.673-1.5-1.5v-8c0-0.827,0.673-1.5,1.5-1.5h4c0.827,0,1.5,0.673,1.5,1.5v8
	C10.5,20.827,9.827,21.5,9,21.5z M5,11.5c-0.276,0-0.5,0.224-0.5,0.5v8c0,0.275,0.224,0.5,0.5,0.5h4c0.276,0,0.5-0.225,0.5-0.5v-8
	c0-0.276-0.224-0.5-0.5-0.5H5z"/>
<path style="fill:#333333;" d="M19,21.5h-8c-0.827,0-1.5-0.673-1.5-1.5V3c0-0.827,0.673-1.5,1.5-1.5h8c0.827,0,1.5,0.673,1.5,1.5v17
	C20.5,20.827,19.827,21.5,19,21.5z M11,2.5c-0.276,0-0.5,0.224-0.5,0.5v17c0,0.275,0.224,0.5,0.5,0.5h8c0.275,0,0.5-0.225,0.5-0.5V3
	c0-0.276-0.225-0.5-0.5-0.5H11z"/>
<rect x="14" y="15.504" style="fill:#333333;" width="2" height="1"/>
<rect x="6" y="15.504" style="fill:#333333;" width="2" height="1"/>
<rect x="14" y="11.004" style="fill:#333333;" width="2" height="1"/>
<rect x="14" y="6.504" style="fill:#333333;" width="2" height="1"/>
</svg>






