<?xml version="1.0" encoding="iso-8859-1"?>
<svg version="1.1" id="&#x56FE;&#x5C42;_1" xmlns="http://www.w3.org/2000/svg" xmlns:xlink="http://www.w3.org/1999/xlink" x="0px"
	 y="0px" viewBox="0 0 24 24" style="enable-background:new 0 0 24 24;" xml:space="preserve">
<path style="fill:#333333;" d="M18.555,9.5L5.392,9.488C5.341,9.477,4.138,9.211,3.358,8.979C2.756,8.8,1.832,8.471,1.832,8.471
	l0.114-0.968c0.772-0.083,2.002-0.277,2.32-0.445c0.933-0.494,2.918-1.947,2.938-1.961L7.336,5h8.799l0.117,0.069
	c0.025,0.015,2.525,1.484,3.48,1.989c0.318,0.168,1.549,0.361,2.32,0.445l0.114,0.968c0,0-0.924,0.33-1.525,0.509
	c-0.78,0.231-1.984,0.498-2.035,0.509L18.555,9.5z M5.555,8.5h12.89c0.188-0.042,0.841-0.19,1.432-0.346
	c-0.247-0.063-0.464-0.134-0.611-0.212C18.4,7.484,16.379,6.302,15.864,6H7.663C7.19,6.343,5.595,7.486,4.734,7.942
	C4.586,8.02,4.371,8.091,4.123,8.154C4.714,8.31,5.368,8.458,5.555,8.5z"/>
<path style="fill:#333333;" d="M15,6H8.5L8.146,5.146l3.882-3.882l3.352,3.91L15,6z M9.707,5h4.206l-1.941-2.265L9.707,5z"/>
<rect x="17" y="9" style="fill:#333333;" width="1" height="3"/>
<rect x="5.5" y="9" style="fill:#333333;" width="1" height="3"/>
<path style="fill:#333333;" d="M22.553,22.5H1.448l1.1-11h18.905L22.553,22.5z M2.553,21.5h18.895l-0.899-9H3.453L2.553,21.5z"/>
<path style="fill:#333333;" d="M14.5,22.5h-5V19c0-1.379,1.122-2.5,2.5-2.5c1.379,0,2.5,1.121,2.5,2.5V22.5z M10.5,21.5h3V19
	c0-0.827-0.673-1.5-1.5-1.5s-1.5,0.673-1.5,1.5V21.5z"/>
</svg>






