<?xml version="1.0" encoding="iso-8859-1"?>
<svg version="1.1" id="&#x56FE;&#x5C42;_1" xmlns="http://www.w3.org/2000/svg" xmlns:xlink="http://www.w3.org/1999/xlink" x="0px"
	 y="0px" viewBox="0 0 24 24" style="enable-background:new 0 0 24 24;" xml:space="preserve">
<g>
	<defs>
		<rect id="SVGID_1_" width="24" height="24"/>
	</defs>
	<clipPath id="SVGID_00000077319929112447152330000002124010728986005888_">
		<use xlink:href="#SVGID_1_"  style="overflow:visible;"/>
	</clipPath>
	<g style="clip-path:url(#SVGID_00000077319929112447152330000002124010728986005888_);">
		<path style="fill:#333333;" d="M9.508,22.509H7.029c-0.823,0-1.496-0.67-1.5-1.493l-0.028-6.337c0-0.058-0.011-0.115-0.031-0.171
			L2.71,7.048c-0.221-0.597,0.019-1.262,0.57-1.58c0.622-0.359,1.421-0.146,1.78,0.477l3.957,6.858l0.472,1.09l1.485,6.795
			c0.098,0.446-0.011,0.905-0.297,1.261S9.964,22.509,9.508,22.509z M3.931,6.293c-0.053,0-0.104,0.014-0.151,0.041
			C3.652,6.408,3.596,6.562,3.647,6.702l2.76,7.458c0.062,0.165,0.093,0.339,0.094,0.515l0.028,6.337
			c0.001,0.274,0.226,0.497,0.5,0.497h2.479c0.152,0,0.294-0.068,0.39-0.187c0.095-0.118,0.131-0.271,0.099-0.421l-1.474-6.745
			l-0.41-0.922L4.193,6.445c-0.041-0.07-0.105-0.12-0.184-0.141C3.984,6.297,3.957,6.293,3.931,6.293z"/>
		
			<rect x="5.979" y="13.75" transform="matrix(0.9864 -0.1641 0.1641 0.9864 -2.2365 1.4238)" style="fill:#333333;" width="3.041" height="1"/>
		<path style="fill:#333333;" d="M16.763,22.51H14.28c-0.465,0-0.896-0.21-1.183-0.577s-0.385-0.836-0.272-1.287l1.852-7.576
			c0.032-0.158,0.09-0.312,0.173-0.455l3.845-6.661c0.175-0.304,0.458-0.521,0.797-0.612c0.34-0.089,0.692-0.043,0.996,0.131
			c0.541,0.312,0.788,0.968,0.587,1.56l-2.553,7.488c-0.017,0.047-0.025,0.095-0.026,0.141l-0.233,6.402
			C18.232,21.875,17.573,22.51,16.763,22.51z M19.831,6.297c-0.027,0-0.054,0.003-0.081,0.011c-0.081,0.021-0.148,0.073-0.19,0.146
			l-3.845,6.661c-0.027,0.049-0.047,0.1-0.058,0.151l-0.167,0.833l-1.694,6.79c-0.038,0.15-0.005,0.307,0.09,0.429
			c0.096,0.122,0.239,0.192,0.395,0.192h2.482c0.271,0,0.489-0.212,0.499-0.482l0.233-6.398c0.005-0.141,0.031-0.286,0.079-0.428
			l2.553-7.49c0.048-0.141-0.011-0.297-0.14-0.372C19.939,6.312,19.886,6.297,19.831,6.297z"/>
		
			<rect x="16" y="12.729" transform="matrix(0.1644 -0.9864 0.9864 0.1644 -0.2687 28.1828)" style="fill:#333333;" width="1" height="3.041"/>
		
			<rect x="7.875" y="3.171" transform="matrix(0.7526 -0.6585 0.6585 0.7526 -0.8911 6.6284)" style="fill:#333333;" width="1" height="2.658"/>
		
			<rect x="11.25" y="1.979" transform="matrix(0.9864 -0.1644 0.1644 0.9864 -0.4155 1.9793)" style="fill:#333333;" width="1" height="3.041"/>
		
			<rect x="14.5" y="3.5" transform="matrix(0.5994 -0.8005 0.8005 0.5994 3.108 14.2099)" style="fill:#333333;" width="2.5" height="1"/>
	</g>
</g>
</svg>






