<?xml version="1.0" encoding="iso-8859-1"?>
<svg version="1.1" id="&#x56FE;&#x5C42;_1" xmlns="http://www.w3.org/2000/svg" xmlns:xlink="http://www.w3.org/1999/xlink" x="0px"
	 y="0px" viewBox="0 0 24 24" style="enable-background:new 0 0 24 24;" xml:space="preserve">
<path style="fill:#333333;" d="M12,11.5c-2.757,0-5-2.243-5-5s2.243-5,5-5s5,2.243,5,5S14.757,11.5,12,11.5z M12,2.5
	c-2.206,0-4,1.794-4,4s1.794,4,4,4c2.206,0,4-1.794,4-4S14.206,2.5,12,2.5z"/>
<path style="fill:#333333;" d="M22,22h-1c0-4.008-3.223-7.91-5.022-8.451l-3.99,4.431l-0.37-0.438
	c-1.146-1.355-2.932-3.286-3.558-3.958C5.613,14.586,3,18.261,3,22H2c0-4.434,3.187-8.553,6.046-9.476l0.302-0.098l0.217,0.231
	c0.022,0.023,2.021,2.155,3.445,3.803l3.595-3.991l0.261,0.034C18.431,12.842,22,17.689,22,22z"/>
<rect x="1" y="21.5" style="fill:#333333;" width="22" height="1"/>
</svg>






