<?xml version="1.0" encoding="iso-8859-1"?>
<svg version="1.1" id="&#x56FE;&#x5C42;_1" xmlns="http://www.w3.org/2000/svg" xmlns:xlink="http://www.w3.org/1999/xlink" x="0px"
	 y="0px" viewBox="0 0 24 24" style="enable-background:new 0 0 24 24;" xml:space="preserve">
<rect x="11.5" y="2" style="fill:#333333;" width="1" height="4"/>
<path style="fill:#333333;" d="M18,21.707l-2.922-2.922l-1.662,2.492l-0.906-0.18l-2.147-10.735l10.735,2.147l0.18,0.906
	l-2.492,1.662L21.707,18L18,21.707z M14.922,17.215L18,20.293L20.293,18l-3.078-3.078l2.504-1.668l-8.082-1.617l1.617,8.082
	L14.922,17.215z"/>
<rect x="15.656" y="5.843" transform="matrix(0.7071 -0.7071 0.7071 0.7071 0.6863 14.343)" style="fill:#333333;" width="4.001" height="1"/>
<rect x="4.343" y="17.157" transform="matrix(0.7071 -0.7071 0.7071 0.7071 -10.6274 9.6567)" style="fill:#333333;" width="4.001" height="1"/>
<rect x="2" y="11.5" style="fill:#333333;" width="4" height="1"/>
<rect x="5.843" y="4.343" transform="matrix(0.7072 -0.707 0.707 0.7072 -2.6273 6.3424)" style="fill:#333333;" width="1" height="4"/>
</svg>






