<?xml version="1.0" encoding="iso-8859-1"?>
<svg version="1.1" id="&#x56FE;&#x5C42;_1" xmlns="http://www.w3.org/2000/svg" xmlns:xlink="http://www.w3.org/1999/xlink" x="0px"
	 y="0px" viewBox="0 0 24 24" style="enable-background:new 0 0 24 24;" xml:space="preserve">
<path style="fill:#333333;" d="M11,13h-1V7.5c0-0.551-0.449-1-1-1s-1,0.449-1,1V13H7V7.5c0-1.103,0.897-2,2-2s2,0.897,2,2V13z"/>
<path style="fill:#333333;" d="M13.75,22h-0.5C9.804,22,7,19.196,7,15.75V12.5h1v3.25C8,18.645,10.355,21,13.25,21h0.5
	c2.895,0,5.25-2.355,5.25-5.25V12.5h1v3.25C20,19.196,17.196,22,13.75,22z"/>
<path style="fill:#333333;" d="M14,14.5h-1V12c0-0.551-0.448-1-1-1c-0.551,0-1,0.449-1,1v2.5h-1V12c0-1.103,0.897-2,2-2
	c1.103,0,2,0.897,2,2V14.5z"/>
<path style="fill:#333333;" d="M17,14.5h-1V12c0-0.551-0.448-1-1-1s-1,0.449-1,1v2.5h-1V12c0-1.103,0.897-2,2-2s2,0.897,2,2V14.5z"
	/>
<path style="fill:#333333;" d="M20,14.5h-1V12c0-0.551-0.448-1-1-1s-1,0.449-1,1v2.5h-1V12c0-1.103,0.897-2,2-2s2,0.897,2,2V14.5z"
	/>
<path style="fill:#333333;" d="M14.5,7.5h-1c0-0.464-0.07-0.92-0.208-1.357c-0.149-0.474-0.376-0.917-0.673-1.318
	C11.773,3.682,10.42,3,9,3C7.58,3,6.227,3.682,5.381,4.825c-0.297,0.4-0.523,0.844-0.672,1.317C4.57,6.58,4.5,7.036,4.5,7.5h-1
	c0-0.566,0.086-1.124,0.255-1.659C3.938,5.262,4.214,4.72,4.577,4.23C5.611,2.833,7.265,2,9,2c1.736,0,3.39,0.833,4.423,2.23
	c0.362,0.489,0.64,1.032,0.822,1.612C14.414,6.376,14.5,6.934,14.5,7.5z"/>
</svg>






