<?xml version="1.0" encoding="iso-8859-1"?>
<svg version="1.1" id="&#x56FE;&#x5C42;_1" xmlns="http://www.w3.org/2000/svg" xmlns:xlink="http://www.w3.org/1999/xlink" x="0px"
	 y="0px" viewBox="0 0 24 24" style="enable-background:new 0 0 24 24;" xml:space="preserve">
<path style="fill:#333333;" d="M19,22.5H5c-0.827,0-1.5-0.673-1.5-1.5V4.5C3.5,3.673,4.173,3,5,3h3.5v1H5C4.724,4,4.5,4.224,4.5,4.5
	V21c0,0.275,0.224,0.5,0.5,0.5h14c0.275,0,0.5-0.225,0.5-0.5V4.5C19.5,4.224,19.275,4,19,4h-3.5V3H19c0.827,0,1.5,0.673,1.5,1.5V21
	C20.5,21.827,19.827,22.5,19,22.5z"/>
<path style="fill:#333333;" d="M16,5.5H8v-4h8V5.5z M9,4.5h6v-2H9V4.5z"/>
</svg>






