<?xml version="1.0" encoding="iso-8859-1"?>
<svg version="1.1" id="&#x56FE;&#x5C42;_1" xmlns="http://www.w3.org/2000/svg" xmlns:xlink="http://www.w3.org/1999/xlink" x="0px"
	 y="0px" viewBox="0 0 24 24" style="enable-background:new 0 0 24 24;" xml:space="preserve">
<rect x="2" y="21.5" style="fill:#333333;" width="20" height="1"/>
<path style="fill:#333333;" d="M20,22.5h-7v-7h7V22.5z M14,21.5h5v-5h-5V21.5z"/>
<rect x="18.5" y="5" style="fill:#333333;" width="1" height="3"/>
<rect x="13.5" y="5" style="fill:#333333;" width="1" height="3"/>
<path style="fill:#333333;" d="M19,5.5h-5l-0.384-0.82L16.5,1.219l2.884,3.461L19,5.5z M15.067,4.5h2.865L16.5,2.781L15.067,4.5z"/>
<path style="fill:#333333;" d="M5,22H4V11c0-0.827,0.673-1.5,1.5-1.5h7v1h-7C5.224,10.5,5,10.724,5,11V22z"/>
<rect x="7.5" y="14" style="fill:#333333;" width="2" height="1"/>
<rect x="7.5" y="17.5" style="fill:#333333;" width="2" height="1"/>
<path style="fill:#333333;" d="M20,16.5h-7c-0.552,0-1-0.448-1-1v-7c0-0.551,0.448-1,1-1h7c0.552,0,1,0.449,1,1v7
	C21,16.052,20.552,16.5,20,16.5z M13,8.5v7h7v-7H13z M13,8l-0.001,0.5H13V8z"/>
<circle style="fill:#333333;" cx="16.5" cy="12" r="1.5"/>
<rect x="16" y="16" style="fill:#333333;" width="1" height="5"/>
</svg>






