<?xml version="1.0" encoding="iso-8859-1"?>
<svg version="1.1" id="&#x56FE;&#x5C42;_1" xmlns="http://www.w3.org/2000/svg" xmlns:xlink="http://www.w3.org/1999/xlink" x="0px"
	 y="0px" viewBox="0 0 24 24" style="enable-background:new 0 0 24 24;" xml:space="preserve">
<path style="fill:#333333;" d="M15,19.5H3l-0.32-0.884c0.024-0.021,2.616-2.295,2.809-8.382l0.999,0.031
	c-0.141,4.461-1.492,7.019-2.385,8.234H15V19.5z M20.68,19.384c-0.13-0.107-3.18-2.731-3.18-9.884C17.5,6.467,15.032,4,12,4
	c-1.127,0-2.21,0.338-3.132,0.979l-0.57-0.821C9.388,3.4,10.668,3,12,3c3.584,0,6.5,2.916,6.5,6.5c0,6.639,2.794,9.094,2.822,9.117
	L20.68,19.384z"/>
<path style="fill:#333333;" d="M12,22.5c-1.93,0-3.5-1.57-3.5-3.5v-0.5h7V19C15.5,20.93,13.93,22.5,12,22.5z M9.55,19.5
	c0.232,1.14,1.242,2,2.45,2c1.207,0,2.218-0.86,2.45-2H9.55z"/>
<path style="fill-rule:evenodd;clip-rule:evenodd;fill:#333333;" d="M12,1c-1.105,0-2,0.895-2,2h4C14,1.895,13.105,1,12,1z"/>
<rect x="11.5" y="0.002" transform="matrix(0.7452 -0.6668 0.6668 0.7452 -5.4445 11.2497)" style="fill:#333333;" width="1" height="25.495"/>
</svg>






