<?xml version="1.0" encoding="iso-8859-1"?>
<svg version="1.1" id="&#x56FE;&#x5C42;_1" xmlns="http://www.w3.org/2000/svg" xmlns:xlink="http://www.w3.org/1999/xlink" x="0px"
	 y="0px" viewBox="0 0 24 24" style="enable-background:new 0 0 24 24;" xml:space="preserve">
<path style="fill:#333333;" d="M21.656,9.845c-3.179-3.012-7.493-4.35-11.829-3.677L9.673,5.18c4.647-0.725,9.265,0.712,12.671,3.94
	L21.656,9.845z"/>
<path style="fill:#333333;" d="M18.646,13.253c-1.245-1.245-2.805-2.112-4.51-2.508l0.227-0.974c1.888,0.438,3.613,1.397,4.99,2.775
	L18.646,13.253z"/>
<path style="fill:#333333;" d="M5.354,13.253l-0.707-0.707c0.682-0.682,1.452-1.265,2.29-1.732l0.487,0.873
	C6.667,12.109,5.97,12.636,5.354,13.253z"/>
<path style="fill:#333333;" d="M8.354,16.511l-0.707-0.707c0.755-0.756,1.696-1.304,2.721-1.585l0.265,0.965
	C9.774,15.419,8.986,15.878,8.354,16.511z"/>
<path style="fill-rule:evenodd;clip-rule:evenodd;fill:#333333;" d="M12,20c0.69,0,1.25-0.56,1.25-1.25S12.69,17.5,12,17.5
	s-1.25,0.56-1.25,1.25S11.31,20,12,20z"/>
<rect x="11.5" y="0.686" transform="matrix(0.7071 -0.7071 0.7071 0.7071 -4.9706 12)" style="fill:#333333;" width="1" height="22.627"/>
<path style="fill:#333333;" d="M2.344,9.846L1.656,9.119C1.96,8.831,2.274,8.558,2.595,8.3C2.88,8.072,3.17,7.855,3.466,7.651
	l0.567,0.823C3.758,8.665,3.486,8.867,3.222,9.08C2.921,9.321,2.628,9.576,2.344,9.846z"/>
</svg>






