<?xml version="1.0" encoding="iso-8859-1"?>
<svg version="1.1" id="&#x56FE;&#x5C42;_1" xmlns="http://www.w3.org/2000/svg" xmlns:xlink="http://www.w3.org/1999/xlink" x="0px"
	 y="0px" viewBox="0 0 24 24" style="enable-background:new 0 0 24 24;" xml:space="preserve">
<path style="fill:#333333;" d="M19,22.5H5V19H1.5V8.763l3.545-2.894l3.38,2.458L12,4.241l3.575,4.086l3.38-2.458L22.5,8.763V19H19
	V22.5z M6,21.5h12v-9h1V18h2.5V9.237l-2.58-2.106l-3.495,2.542L12,5.759L8.575,9.673L5.08,7.131L2.5,9.237V18H5v-5.5h1v6H5.5H6V21.5
	z"/>
<path style="fill:none;" d="M8.5,9L12,5l3.5,4L21,5l-1.25-3H4.5L3,5L8.5,9z"/>
<path style="fill:#333333;" d="M15.425,9.673L12,5.759L8.575,9.673L2.363,5.155L4.191,1.5h15.892l1.53,3.672L15.425,9.673z
	 M13.102,5.5l2.474,2.827l4.812-3.499L19.417,2.5H4.809L3.637,4.845l4.788,3.482L10.898,5.5H9.5v-1h2.273L12,4.241L12.227,4.5H14.5
	v1H13.102z"/>
</svg>






