<?xml version="1.0" encoding="iso-8859-1"?>
<svg version="1.1" id="&#x56FE;&#x5C42;_1" xmlns="http://www.w3.org/2000/svg" xmlns:xlink="http://www.w3.org/1999/xlink" x="0px"
	 y="0px" viewBox="0 0 24 24" style="enable-background:new 0 0 24 24;" xml:space="preserve">
<path style="fill:none;" d="M13.5,2h-6C5.614,2,4.672,2,4.086,2.586C3.5,3.172,3.5,4.114,3.5,6v16h14v-3.5c0,0,3.5,0,3.5-3v-4
	c0-3-3.5-3-3.5-3V6c0-1.886,0-2.828-0.586-3.414C16.328,2,15.386,2,13.5,2z"/>
<path style="fill:#333333;" d="M18,22.5H3V6c0-1.958,0-3.036,0.732-3.768C4.464,1.5,5.542,1.5,7.5,1.5h6
	c1.957,0,3.035,0,3.768,0.732C18,2.964,18,4.042,18,6v2.029c1.432,0.158,3.5,1.009,3.5,3.471v4c0,2.462-2.068,3.312-3.5,3.472V22.5z
	 M4,21.5h13v-3.498L17.499,18c0.122-0.001,3.001-0.042,3.001-2.5v-4c0-1.857-1.644-2.335-2.5-2.458V13.5h-1V6
	c0-1.745,0-2.622-0.439-3.061C16.121,2.5,15.245,2.5,13.5,2.5h-6c-1.745,0-2.622,0-3.061,0.439C4,3.378,4,4.255,4,6V21.5z"/>
<rect x="6.5" y="2" style="fill:#333333;" width="1" height="9"/>
<rect x="10" y="2" style="fill:#333333;" width="1" height="9"/>
<rect x="13.5" y="2" style="fill:#333333;" width="1" height="9"/>
<rect x="6" y="1.5" style="fill:#333333;" width="9" height="1"/>
</svg>






