<?xml version="1.0" encoding="iso-8859-1"?>
<svg version="1.1" id="&#x56FE;&#x5C42;_1" xmlns="http://www.w3.org/2000/svg" xmlns:xlink="http://www.w3.org/1999/xlink" x="0px"
	 y="0px" viewBox="0 0 24 24" style="enable-background:new 0 0 24 24;" xml:space="preserve">
<path style="fill:#333333;" d="M19,22.5H5V19H1.5V8.5c0-1.635,1.027-3.506,2.68-4.884c1.57-1.308,4.572-2.069,4.699-2.101L9,1.5
	l6.121,0.015c0.127,0.032,3.129,0.792,4.699,2.101C21.473,4.994,22.5,6.865,22.5,8.5V19H19V22.5z M6,21.5h12v-13h1V18h2.5V8.5
	c0-1.326-0.911-2.941-2.32-4.116c-1.286-1.072-3.829-1.775-4.243-1.884H9.064C8.649,2.61,6.104,3.314,4.82,4.384
	C3.411,5.559,2.5,7.174,2.5,8.5V18H5V8.5h1v10H5.5H6V21.5z"/>
<path style="fill:#333333;" d="M12,5.5c-1.93,0-3.5-1.57-3.5-3.5h1c0,1.378,1.122,2.5,2.5,2.5c1.379,0,2.5-1.122,2.5-2.5h1
	C15.5,3.93,13.93,5.5,12,5.5z"/>
</svg>






