<?xml version="1.0" encoding="iso-8859-1"?>
<svg version="1.1" id="&#x56FE;&#x5C42;_1" xmlns="http://www.w3.org/2000/svg" xmlns:xlink="http://www.w3.org/1999/xlink" x="0px"
	 y="0px" viewBox="0 0 24 24" style="enable-background:new 0 0 24 24;" xml:space="preserve">
<path style="fill:#333333;" d="M17.5,19.5h-13V8c0-2.963,0-4.45,1.025-5.475C6.55,1.5,8.037,1.5,11,1.5h0.5
	c2.456,0,3.688,0,4.631,0.724c0.242,0.186,0.46,0.403,0.646,0.646c0.675,0.879,0.72,2.012,0.723,4.159
	C18.931,7.187,21,8.038,21,10.5V13c0,2.462-2.068,3.312-3.5,3.472V19.5z M5.5,18.5h11v-2.998l0.499-0.002
	C17.121,15.499,20,15.458,20,13v-2.5c0-1.857-1.644-2.335-2.5-2.458V11h-1V7.5c0-2.229,0-3.349-0.517-4.021
	c-0.133-0.174-0.288-0.329-0.461-0.461C14.849,2.5,13.729,2.5,11.5,2.5H11c-2.687,0-4.036,0-4.768,0.732C5.5,3.964,5.5,5.313,5.5,8
	V18.5z"/>
<path style="fill:#333333;" d="M17.5,22.5h-13c-1.103,0-2-0.897-2-2s0.897-2,2-2h13c1.103,0,2,0.897,2,2S18.603,22.5,17.5,22.5z
	 M4.5,19.5c-0.551,0-1,0.448-1,1s0.449,1,1,1h13c0.552,0,1-0.448,1-1s-0.448-1-1-1H4.5z"/>
</svg>






