<?xml version="1.0" encoding="iso-8859-1"?>
<svg version="1.1" id="&#x56FE;&#x5C42;_1" xmlns="http://www.w3.org/2000/svg" xmlns:xlink="http://www.w3.org/1999/xlink" x="0px"
	 y="0px" viewBox="0 0 24 24" style="enable-background:new 0 0 24 24;" xml:space="preserve">
<path style="fill:#333333;" d="M14,19l-4.075-0.024c-0.13-0.042-3.217-1.061-5.278-3.122C2.524,13.731,2.5,9.672,2.5,9.5V5h19v4.5
	c0,0.172-0.024,4.231-2.146,6.354c-2.062,2.062-5.147,3.08-5.278,3.122L14,19z M10.162,18h3.676c0.466-0.163,3.085-1.13,4.809-2.854
	C20.474,13.319,20.5,9.538,20.5,9.5V6h-17v3.5c0,0.038,0.026,3.819,1.854,5.646C7.078,16.87,9.697,17.837,10.162,18z"/>
<path style="fill:#333333;" d="M10.579,18.507l-1-0.014c0-0.033,0.025-3.379-1.464-5.174c-1.427-1.72-5.27-3.342-5.308-3.358
	l0.386-0.923c0.167,0.07,4.11,1.735,5.692,3.642C10.611,14.762,10.581,18.355,10.579,18.507z"/>
<path style="fill:#333333;" d="M13.421,18.507c-0.002-0.151-0.032-3.745,1.694-5.826c1.583-1.907,5.524-3.572,5.691-3.642
	l0.387,0.922c-0.039,0.017-3.883,1.641-5.309,3.358c-1.489,1.795-1.464,5.141-1.464,5.174L13.421,18.507z"/>
</svg>






