<?xml version="1.0" encoding="iso-8859-1"?>
<svg version="1.1" id="&#x56FE;&#x5C42;_1" xmlns="http://www.w3.org/2000/svg" xmlns:xlink="http://www.w3.org/1999/xlink" x="0px"
	 y="0px" viewBox="0 0 24 24" style="enable-background:new 0 0 24 24;" xml:space="preserve">
<path style="fill:#333333;" d="M19,22.5H5V19H1.5v-8c0-1.635,1.027-3.506,2.68-4.884c1.595-1.329,3.671-1.601,3.758-1.612
	l0.243-0.03L12,8.293l3.819-3.819l0.243,0.03c0.087,0.011,2.163,0.283,3.758,1.612C21.473,7.494,22.5,9.365,22.5,11v8H19V22.5z
	 M6,21.5h12V11h1v7h2.5v-7c0-1.326-0.911-2.941-2.32-4.116c-1.077-0.898-2.465-1.242-3.009-1.348L12.5,9.207V13.5h-1V9.207
	L7.829,5.536C7.285,5.642,5.897,5.986,4.82,6.884C3.411,8.059,2.5,9.674,2.5,11v7H5v-7h1v7.5H5.5H6V21.5z"/>
<path style="fill:#333333;" d="M12,9.707L7.829,5.536C7.285,5.642,5.897,5.986,4.82,6.884L4.312,7.308L2.953,4.25L4.175,1.5h15.65
	l1.222,2.75l-1.358,3.058L19.18,6.884c-1.077-0.898-2.465-1.242-3.009-1.348L12,9.707z M8.181,4.474L12,8.293l3.819-3.819
	l0.243,0.03c0.078,0.01,1.743,0.229,3.234,1.222l0.656-1.476L19.175,2.5H4.825L4.047,4.25l0.656,1.476
	C6.194,4.732,7.86,4.514,7.938,4.504L8.181,4.474z"/>
</svg>






