<?xml version="1.0" encoding="iso-8859-1"?>
<svg version="1.1" id="&#x56FE;&#x5C42;_1" xmlns="http://www.w3.org/2000/svg" xmlns:xlink="http://www.w3.org/1999/xlink" x="0px"
	 y="0px" viewBox="0 0 24 24" style="enable-background:new 0 0 24 24;" xml:space="preserve">
<path style="fill:#333333;" d="M19,22.5H5V19H1.5V5.793l2.803-2.752L8,1.5l8.197,0.041l3.656,1.606L22.5,5.793V19H19V22.5z M6,21.5
	h12v-12h1V18h2.5V6.207l-2.285-2.285L15.897,2.5H8.103L4.786,3.922L2.5,6.207V18H5V9.5h1v9H5.5H6V21.5z"/>
<rect x="11.5" y="10.5" style="fill:#333333;" width="1" height="11.5"/>
<rect x="7.75" y="1.871" transform="matrix(0.6823 -0.7311 0.7311 0.6823 -2.4966 8.2549)" style="fill:#333333;" width="1" height="10.259"/>
<rect x="9.5" y="1.553" transform="matrix(0.9048 -0.4258 0.4258 0.9048 -1.7094 4.8528)" style="fill:#333333;" width="1" height="9.394"/>
<rect x="9.303" y="5.75" transform="matrix(0.4258 -0.9048 0.9048 0.4258 2.3837 16.2561)" style="fill:#333333;" width="9.394" height="1"/>
<rect x="10.62" y="6.5" transform="matrix(0.7313 -0.682 0.682 0.7313 -0.5427 12.6225)" style="fill:#333333;" width="10.259" height="1"/>
</svg>






