<?xml version="1.0" encoding="iso-8859-1"?>
<svg version="1.1" id="&#x56FE;&#x5C42;_1" xmlns="http://www.w3.org/2000/svg" xmlns:xlink="http://www.w3.org/1999/xlink" x="0px"
	 y="0px" viewBox="0 0 24 24" style="enable-background:new 0 0 24 24;" xml:space="preserve">
<path style="fill:#333333;" d="M21.562,19.5h-5.379L12,10.668L7.816,19.5H2.438l2.118-18h14.889L21.562,19.5z M16.816,18.5h3.621
	l-1.882-16H5.445l-1.882,16h3.621l4.365-9.214h0.904L16.816,18.5z"/>
<path style="fill:#333333;" d="M21,22.5h-3.924l-0.666-4H21V22.5z M17.924,21.5H20v-2h-2.41L17.924,21.5z"/>
<path style="fill:#333333;" d="M6.923,22.5H3v-4h4.59L6.923,22.5z M4,21.5h2.077l0.333-2H4V21.5z"/>
<rect x="12.5" y="1.75" transform="matrix(0.8824 -0.4706 0.4706 0.8824 -0.2941 6.5735)" style="fill:#333333;" width="1" height="4.25"/>
<rect x="8.875" y="3.375" transform="matrix(0.4705 -0.8824 0.8824 0.4705 2.4053 11.7583)" style="fill:#333333;" width="4.25" height="1"/>
</svg>






