<?xml version="1.0" encoding="iso-8859-1"?>
<svg version="1.1" id="&#x56FE;&#x5C42;_1" xmlns="http://www.w3.org/2000/svg" xmlns:xlink="http://www.w3.org/1999/xlink" x="0px"
	 y="0px" viewBox="0 0 24 24" style="enable-background:new 0 0 24 24;" xml:space="preserve">
<path style="fill:#333333;" d="M19,22.5H5V19H1.5V4.67L9,1.5l6.197,0.041L22.5,4.67V19H19V22.5z M6,21.5h12v-11h1V18h2.5V5.33
	L14.897,2.5H9.103L2.5,5.33V18H5v-7.5h1v8H5.5H6V21.5z"/>
<polygon style="fill:#333333;" points="12.5,22 11.5,22 11.5,9.103 8.541,2.197 9.459,1.803 12,7.73 14.54,1.803 15.46,2.197 
	12.5,9.103 "/>
<rect x="9.692" y="5" transform="matrix(0.3935 -0.9193 0.9193 0.3935 3.1315 15.7467)" style="fill:#333333;" width="7.616" height="1"/>
<rect x="10" y="1.692" transform="matrix(0.9191 -0.3939 0.3939 0.9191 -1.3176 4.5809)" style="fill:#333333;" width="1" height="7.616"/>
<polygon style="fill:#333333;" points="11.566,18.748 7.451,11.547 8.439,8.829 6.417,6.048 8.553,1.776 9.447,2.224 7.583,5.952 
	9.561,8.671 8.549,11.453 12.435,18.252 "/>
<polygon style="fill:#333333;" points="12.435,18.748 11.566,18.252 15.451,11.453 14.427,8.637 16.875,5.944 14.576,2.265 
	15.424,1.735 18.125,6.056 15.573,8.863 16.549,11.547 "/>
</svg>






