<?xml version="1.0" encoding="iso-8859-1"?>
<svg version="1.1" id="&#x56FE;&#x5C42;_1" xmlns="http://www.w3.org/2000/svg" xmlns:xlink="http://www.w3.org/1999/xlink" x="0px"
	 y="0px" viewBox="0 0 24 24" style="enable-background:new 0 0 24 24;" xml:space="preserve">
<path style="fill:#333333;" d="M12.921,19h-2.289l-0.05-0.444c-0.004-0.039-0.454-3.913-1.967-5.736
	c-1.401-1.688-5.698-2.824-5.741-2.835L2.5,9.886V6.5h19v3.386l-0.374,0.098c-0.043,0.011-4.34,1.147-5.741,2.835
	c-1.513,1.823-1.963,5.697-1.967,5.736L13.368,19H12.921z M11.516,18h0.968c0.171-1.135,0.737-4.14,2.131-5.819
	c1.356-1.634,4.746-2.729,5.885-3.06V7.5h-17v1.621c1.139,0.332,4.529,1.426,5.885,3.06C10.778,13.86,11.345,16.865,11.516,18z"/>
</svg>






