<?xml version="1.0" encoding="iso-8859-1"?>
<svg version="1.1" id="&#x56FE;&#x5C42;_1" xmlns="http://www.w3.org/2000/svg" xmlns:xlink="http://www.w3.org/1999/xlink" x="0px"
	 y="0px" viewBox="0 0 24 24" style="enable-background:new 0 0 24 24;" xml:space="preserve">
<path style="fill:#333333;" d="M20,22.5H9.793L8,20.707L6.207,22.5H4c-1.045,0-1.621,0-2.061-0.439S1.5,21.045,1.5,20V4
	c0-1.045,0-1.621,0.439-2.061S2.955,1.5,4,1.5h5c1.045,0,1.621,0,2.061,0.439S11.5,2.955,11.5,4v0.263c0,2.368,0,3.556,0.616,4.263
	c0.617,0.707,1.795,0.867,4.141,1.187l0.621,0.085c2.594,0.354,3.896,0.531,4.759,1.521c0.863,0.988,0.863,2.302,0.863,4.92V20
	c0,1.045,0,1.621-0.439,2.061S21.045,22.5,20,22.5z M10.207,21.5H20c0.727,0,1.207,0,1.354-0.146S21.5,20.727,21.5,20v-3.763
	c0-2.368,0-3.557-0.617-4.262c-0.616-0.708-1.794-0.868-4.14-1.187l-0.621-0.085c-2.594-0.354-3.896-0.531-4.759-1.521
	C10.5,8.194,10.5,6.88,10.5,4.263V4c0-0.727,0-1.207-0.146-1.354S9.727,2.5,9,2.5H4c-0.727,0-1.207,0-1.354,0.146S2.5,3.273,2.5,4
	v16c0,0.727,0,1.207,0.146,1.354S3.273,21.5,4,21.5h1.793L8,19.293L10.207,21.5z"/>
<rect x="2" y="16.5" style="fill:#333333;" width="20" height="1"/>
<rect x="2" y="5.25" style="fill:#333333;" width="9" height="1"/>
<path style="fill:#333333;" d="M7.5,13.5c-1.103,0-2-0.897-2-2c0-1.103,0.897-2,2-2s2,0.897,2,2C9.5,12.603,8.603,13.5,7.5,13.5z
	 M7.5,10.5c-0.551,0-1,0.449-1,1c0,0.552,0.449,1,1,1s1-0.448,1-1C8.5,10.949,8.051,10.5,7.5,10.5z"/>
</svg>






