<?xml version="1.0" encoding="iso-8859-1"?>
<svg version="1.1" id="&#x56FE;&#x5C42;_1" xmlns="http://www.w3.org/2000/svg" xmlns:xlink="http://www.w3.org/1999/xlink" x="0px"
	 y="0px" viewBox="0 0 24 24" style="enable-background:new 0 0 24 24;" xml:space="preserve">
<path style="fill:#333333;" d="M19,22.5H5V19H1.5v-7.5c0-1.635,1.027-3.506,2.68-4.884c1.57-1.308,4.572-2.069,4.699-2.101L9,4.5
	l6.121,0.015c0.127,0.032,3.129,0.792,4.699,2.101c1.652,1.378,2.68,3.249,2.68,4.884V19H19V22.5z M6,21.5h12v-10h1V18h2.5v-6.5
	c0-1.326-0.911-2.941-2.32-4.116c-1.286-1.072-3.829-1.775-4.243-1.884H9.064C8.649,5.61,6.104,6.314,4.82,7.384
	C3.411,8.559,2.5,10.174,2.5,11.5V18H5v-6.5h1v7H5.5H6V21.5z"/>
<path style="fill:#333333;" d="M15.5,5.5h-7v-4h7V5.5z M9.5,4.5h5v-2h-5V4.5z"/>
</svg>






