<?xml version="1.0" encoding="iso-8859-1"?>
<svg version="1.1" id="&#x56FE;&#x5C42;_1" xmlns="http://www.w3.org/2000/svg" xmlns:xlink="http://www.w3.org/1999/xlink" x="0px"
	 y="0px" viewBox="0 0 24 24" style="enable-background:new 0 0 24 24;" xml:space="preserve">
<path style="fill:#333333;" d="M22.5,21.5h-21V14h21V21.5z M2.5,20.5h19V15h-19V20.5z"/>
<path style="fill:#333333;" d="M17.75,19c0.69,0,1.25-0.56,1.25-1.25s-0.56-1.25-1.25-1.25s-1.25,0.56-1.25,1.25S17.06,19,17.75,19z
	"/>
<polygon style="fill:#333333;" points="2.489,14.603 1.511,14.397 4.113,2 19.917,2 22.489,14.398 21.511,14.602 19.103,3 4.925,3 
	"/>
<path style="fill:#333333;" d="M10.488,12h-0.64C8.065,12,7,11.161,7,9.756C7,8.52,8.123,7.513,9.503,7.513v1
	C8.674,8.513,8,9.071,8,9.756C8,10.784,9.005,11,9.849,11h0.64V12z"/>
<path style="fill:#333333;" d="M14.144,12h-0.65v-1h0.65C14.99,11,16,10.784,16,9.756c0-1.027-0.813-1.243-1.496-1.243v-1
	c1.517,0,2.496,0.88,2.496,2.243C17,11.161,15.933,12,14.144,12z"/>
<path style="fill:#333333;" d="M15.004,8.013h-1C14.004,6.79,13.218,6,12,6c-1.232,0-1.997,0.771-1.997,2.013h-1
	C9.003,6.211,10.208,5,12,5C13.769,5,15.004,6.239,15.004,8.013z"/>
<rect x="10" y="11" style="fill:#333333;" width="4" height="1"/>
</svg>






