<?xml version="1.0" encoding="iso-8859-1"?>
<svg version="1.1" id="&#x56FE;&#x5C42;_1" xmlns="http://www.w3.org/2000/svg" xmlns:xlink="http://www.w3.org/1999/xlink" x="0px"
	 y="0px" viewBox="0 0 24 24" style="enable-background:new 0 0 24 24;" xml:space="preserve">
<path style="fill:#333333;" d="M19.476,16.957l-0.406-0.914c1.477-0.656,2.431-2.143,2.431-3.786c0-2.276-1.815-4.128-4.046-4.128
	c-0.642,0-1.256,0.149-1.824,0.442l-0.554,0.285l-0.159-0.601c-0.742-2.8-3.25-4.755-6.099-4.755C5.334,3.5,2.5,6.39,2.5,9.942
	c0,2.047,0.922,3.927,2.531,5.157l-0.607,0.795C2.565,14.473,1.5,12.304,1.5,9.942C1.5,5.839,4.783,2.5,8.818,2.5
	c3.109,0,5.867,2.005,6.895,4.943c0.556-0.207,1.147-0.314,1.741-0.314c2.782,0,5.046,2.301,5.046,5.128
	C22.5,14.295,21.312,16.14,19.476,16.957z"/>
<path style="fill:#333333;" d="M13,21.5c-1.93,0-3.5-1.57-3.5-3.5s1.57-3.5,3.5-3.5s3.5,1.57,3.5,3.5S14.93,21.5,13,21.5z M13,15.5
	c-1.378,0-2.5,1.121-2.5,2.5s1.122,2.5,2.5,2.5c1.379,0,2.5-1.121,2.5-2.5S14.379,15.5,13,15.5z"/>
<path style="fill:#333333;" d="M6.525,12.475C5.864,11.814,5.5,10.935,5.5,10c0-1.93,1.57-3.5,3.5-3.5
	c0.935,0,1.814,0.364,2.475,1.025l-0.707,0.707C10.295,7.76,9.668,7.5,9,7.5c-1.378,0-2.5,1.122-2.5,2.5
	c0,0.668,0.26,1.295,0.732,1.768L6.525,12.475z"/>
</svg>






