<?xml version="1.0" encoding="iso-8859-1"?>
<svg version="1.1" id="&#x56FE;&#x5C42;_1" xmlns="http://www.w3.org/2000/svg" xmlns:xlink="http://www.w3.org/1999/xlink" x="0px"
	 y="0px" viewBox="0 0 24 24" style="enable-background:new 0 0 24 24;" xml:space="preserve">
<path style="fill:#333333;" d="M18.5,8.5c-1.654,0-3-1.346-3-3s1.346-3,3-3s3,1.346,3,3S20.154,8.5,18.5,8.5z M18.5,3.5
	c-1.103,0-2,0.897-2,2s0.897,2,2,2s2-0.897,2-2S19.603,3.5,18.5,3.5z"/>
<path style="fill:#333333;" d="M5.5,21.5c-1.654,0-3-1.346-3-3s1.346-3,3-3s3,1.346,3,3S7.154,21.5,5.5,21.5z M5.5,16.5
	c-1.103,0-2,0.897-2,2s0.897,2,2,2s2-0.897,2-2S6.603,16.5,5.5,16.5z"/>
<path style="fill:#333333;" d="M15.252,21.5c-2.066,0-3.748-1.682-3.748-3.748v-11.5c0-1.518-1.234-2.752-2.752-2.752
	S6,4.734,6,6.252V16H5V6.252C5,4.183,6.683,2.5,8.752,2.5s3.752,1.683,3.752,3.752v11.5c0,1.516,1.232,2.748,2.748,2.748
	S18,19.268,18,17.752V8h1v9.752C19,19.818,17.318,21.5,15.252,21.5z"/>
</svg>






