<?xml version="1.0" encoding="iso-8859-1"?>
<svg version="1.1" id="&#x56FE;&#x5C42;_1" xmlns="http://www.w3.org/2000/svg" xmlns:xlink="http://www.w3.org/1999/xlink" x="0px"
	 y="0px" viewBox="0 0 24 24" style="enable-background:new 0 0 24 24;" xml:space="preserve">
<path style="fill:#333333;" d="M12.5,11h-1V8.5H12c1.103,0,2-0.897,2-2s-0.897-2-2-2c-1.103,0-2,0.897-2,2H9c0-1.654,1.346-3,3-3
	s3,1.346,3,3c0,1.484-1.083,2.72-2.5,2.958V11z"/>
<path style="fill:#333333;" d="M22.5,18.5h-21V18c0-2.615,3.08-7.5,10.5-7.5s10.5,4.885,10.5,7.5V18.5z M2.541,17.5h18.918
	c-0.366-2.336-3.213-6-9.459-6S2.907,15.164,2.541,17.5z"/>
</svg>






