<?xml version="1.0" encoding="iso-8859-1"?>
<svg version="1.1" id="&#x56FE;&#x5C42;_1" xmlns="http://www.w3.org/2000/svg" xmlns:xlink="http://www.w3.org/1999/xlink" x="0px"
	 y="0px" viewBox="0 0 24 24" style="enable-background:new 0 0 24 24;" xml:space="preserve">
<g>
	<defs>
		<rect id="SVGID_1_" width="24" height="24"/>
	</defs>
	<clipPath id="SVGID_00000074422691904651953660000013157861456600441237_">
		<use xlink:href="#SVGID_1_"  style="overflow:visible;"/>
	</clipPath>
	<g style="clip-path:url(#SVGID_00000074422691904651953660000013157861456600441237_);">
		<polygon style="fill:#333333;" points="10.504,16.991 4.614,7 3,7 3,6 5.186,6 10.496,15.009 15.712,6 17.9,6 17.9,7 16.288,7 		
			"/>
		<path style="fill:#333333;" d="M15.717,14.044c-1.049,0-2.11-0.261-3.087-0.811l0.49-0.871c2.555,1.436,5.804,0.528,7.242-2.028
			c1.438-2.556,0.528-5.804-2.027-7.242c-1.237-0.696-2.672-0.869-4.041-0.486c-1.368,0.383-2.504,1.276-3.201,2.514l-0.872-0.49
			c1.709-3.037,5.57-4.115,8.604-2.41c3.036,1.708,4.116,5.568,2.408,8.604C20.075,12.884,17.927,14.044,15.717,14.044z"/>
		<rect x="8" y="21.5" style="fill:#333333;" width="5" height="1"/>
		<rect x="10" y="16" style="fill:#333333;" width="1" height="6"/>
		<path style="fill:#333333;" d="M12.5,9c-0.889,0-1.616-0.437-2.257-0.821C9.661,7.83,9.111,7.5,8.5,7.5
			c-1.263,0-2.139,0.847-2.148,0.855L5.646,7.646C5.693,7.6,6.812,6.5,8.5,6.5c0.889,0,1.616,0.437,2.257,0.821
			C11.339,7.67,11.889,8,12.5,8c1.351,0,2.269-0.443,2.278-0.448l0.445,0.895C15.179,8.47,14.1,9,12.5,9z"/>
	</g>
</g>
</svg>






