<?xml version="1.0" encoding="iso-8859-1"?>
<svg version="1.1" id="&#x56FE;&#x5C42;_1" xmlns="http://www.w3.org/2000/svg" xmlns:xlink="http://www.w3.org/1999/xlink" x="0px"
	 y="0px" viewBox="0 0 24 24" style="enable-background:new 0 0 24 24;" xml:space="preserve">
<path style="fill:#333333;" d="M8,21.017c-0.006-0.192-0.145-4.742,0.509-8.111c0.656-3.384,1.989-6.022,2.045-6.132l0.891,0.454
	c-0.013,0.026-1.327,2.629-1.955,5.868C8.859,16.354,8.998,20.938,9,20.984L8,21.017z"/>
<path style="fill:#333333;" d="M17.858,12.405c-0.089,0-0.18-0.01-0.27-0.028c-0.394-0.082-0.685-0.188-0.889-0.324l0,0
	c-0.365-0.243-0.485-0.618-0.573-0.891c-0.062-0.196-0.105-0.317-0.173-0.363c-0.068-0.046-0.199-0.038-0.401-0.019
	c-0.286,0.027-0.677,0.062-1.044-0.182c-0.364-0.243-0.484-0.618-0.572-0.891c-0.062-0.195-0.105-0.317-0.174-0.362
	c-0.059-0.041-0.259,0.006-0.421,0.042c-0.286,0.062-0.644,0.141-1.009,0.012c-0.212-0.075-0.534-0.275-1.143-1.16
	c-0.267-0.387-0.32-0.865-0.142-1.277c0.17-0.393,0.531-0.667,0.968-0.734c1.164-0.179,2.928-0.143,4.705,1.038
	c1.994,1.324,2.33,3.019,2.353,3.911c0.01,0.368-0.144,0.712-0.422,0.944C18.43,12.307,18.15,12.405,17.858,12.405z M15.779,9.766
	c0.229,0,0.483,0.038,0.728,0.199c0.365,0.243,0.485,0.618,0.573,0.892c0.062,0.196,0.105,0.317,0.173,0.363l0,0
	c0.044,0.029,0.183,0.104,0.54,0.179c0.08,0.016,0.163,0.001,0.218-0.045c0.044-0.036,0.065-0.087,0.063-0.151
	c-0.021-0.853-0.369-2.083-1.905-3.104c-1.513-1.004-3.01-1.034-4.002-0.883c-0.099,0.015-0.166,0.063-0.2,0.142
	c-0.041,0.094-0.023,0.212,0.048,0.314c0.469,0.681,0.658,0.786,0.666,0.79c0.084,0.03,0.267-0.012,0.444-0.052
	c0.328-0.072,0.779-0.173,1.191,0.101c0.365,0.243,0.484,0.617,0.572,0.89c0.062,0.196,0.105,0.318,0.174,0.363
	c0.066,0.045,0.194,0.037,0.401,0.019C15.559,9.775,15.666,9.766,15.779,9.766z"/>
<path style="fill:#333333;" d="M4.358,10.56c-0.089,0-0.184-0.005-0.282-0.016c-0.328-0.037-0.616-0.2-0.811-0.459
	C3.07,9.825,2.994,9.503,3.05,9.178c0.158-0.915,0.782-2.553,3.191-3.252c2.348-0.685,3.877-0.086,4.582,0.331
	c0.495,0.292,0.699,0.897,0.485,1.438c-0.267,0.675-0.664,1.118-1.149,1.279c-0.569,0.19-1.093,0.063-1.475-0.029
	C8.529,8.908,8.315,8.855,8.25,8.875C8.21,8.885,8.108,9.043,8.059,9.12C7.906,9.354,7.698,9.676,7.287,9.787
	C6.875,9.896,6.534,9.722,6.285,9.595C6.205,9.554,6.04,9.468,5.996,9.479c-0.1,0.027-0.167,0.105-0.319,0.308
	c-0.112,0.148-0.251,0.333-0.45,0.503C5.015,10.469,4.723,10.56,4.358,10.56z M8.291,6.615c-0.506,0-1.095,0.075-1.77,0.271
	C4.728,7.406,4.179,8.512,4.035,9.348c-0.011,0.064,0.01,0.109,0.03,0.135c0.02,0.026,0.057,0.059,0.122,0.066
	c0.301,0.033,0.394-0.024,0.395-0.024c0.113-0.096,0.202-0.215,0.297-0.341c0.186-0.247,0.417-0.554,0.859-0.672
	C6.149,8.403,6.49,8.577,6.74,8.705C6.82,8.745,6.998,8.833,7.028,8.821C7.067,8.81,7.17,8.652,7.219,8.576
	C7.372,8.341,7.58,8.019,7.991,7.909C8.303,7.823,8.616,7.9,8.918,7.973c0.323,0.079,0.627,0.152,0.923,0.053
	c0.19-0.063,0.386-0.318,0.536-0.699c0.033-0.085,0.008-0.167-0.064-0.21C9.941,6.896,9.273,6.615,8.291,6.615z"/>
<path style="fill:#333333;" d="M10.5,7.781L10.5,7c0-1.099,1.302-3.859,2.814-4.464c1.5-0.601,3.797-0.209,4.619,1.215l0.273,0.474
	L10.5,7.781z M14.812,3.268c-0.404,0-0.798,0.065-1.126,0.196c-0.769,0.308-1.592,1.652-1.972,2.655l4.974-2.295
	C16.215,3.456,15.499,3.268,14.812,3.268z"/>
<path style="fill:#333333;" d="M11.165,7.714L4.351,3.126L4.557,2.73c0.676-1.302,3.52-1.443,5.61-0.701
	c0.789,0.281,1.358,0.842,1.646,1.623c0.455,1.233,0.122,2.73-0.38,3.599L11.165,7.714z M5.797,2.895l4.994,3.362
	c0.243-0.677,0.338-1.566,0.083-2.26c-0.187-0.508-0.527-0.843-1.042-1.026C8.246,2.406,6.544,2.522,5.797,2.895z"/>
<path style="fill:#333333;" d="M12,22c-3.853,0-8-0.782-8-2.5c0-0.443,0.266-0.841,0.79-1.181l0.545,0.838
	C5.06,19.336,5,19.465,5,19.5c0,0.448,2.381,1.5,7,1.5c4.618,0,7-1.052,7-1.5c0-0.47-1.511-1.5-6-1.5v-1c4.317,0,7,0.958,7,2.5
	C20,21.218,15.854,22,12,22z"/>
</svg>






