<?xml version="1.0" encoding="iso-8859-1"?>
<svg version="1.1" id="&#x56FE;&#x5C42;_1" xmlns="http://www.w3.org/2000/svg" xmlns:xlink="http://www.w3.org/1999/xlink" x="0px"
	 y="0px" viewBox="0 0 24 24" style="enable-background:new 0 0 24 24;" xml:space="preserve">
<path style="fill:#333333;" d="M19.5,17.5h-15c-1.103,0-2-0.897-2-2v-11c0-1.103,0.897-2,2-2h6v1h-6c-0.551,0-1,0.449-1,1v11
	c0,0.552,0.449,1,1,1h15c0.552,0,1-0.448,1-1v-5h1v5C21.5,16.603,20.603,17.5,19.5,17.5z"/>
<rect x="11.5" y="17" style="fill:#333333;" width="1" height="4"/>
<polygon style="fill:#333333;" points="15.646,7.354 13.293,5 15.646,2.646 16.354,3.354 14.707,5 16.354,6.646 "/>
<polygon style="fill:#333333;" points="19.354,7.354 18.646,6.646 20.293,5 18.646,3.354 19.354,2.646 21.707,5 "/>
<rect x="7" y="20.5" style="fill:#333333;" width="10" height="1"/>
</svg>






