<?xml version="1.0" encoding="iso-8859-1"?>
<svg version="1.1" id="&#x56FE;&#x5C42;_1" xmlns="http://www.w3.org/2000/svg" xmlns:xlink="http://www.w3.org/1999/xlink" x="0px"
	 y="0px" viewBox="0 0 24 24" style="enable-background:new 0 0 24 24;" xml:space="preserve">
<path style="fill:#333333;" d="M8,22.5c-1.384,0-3-0.786-3-3V14c0-0.943-1.619-1.808-2.186-2.036v-0.928C3.381,10.808,5,9.944,5,9
	V4.5c0-2.214,1.616-3,3-3v1c-0.602,0-2,0.195-2,2V9c0,1.158-1.061,2.011-1.885,2.5C4.939,11.989,6,12.842,6,14v5.5
	c0,1.805,1.398,2,2,2V22.5z"/>
<path style="fill:#333333;" d="M16,22.5v-1c0.602,0,2-0.195,2-2V14c0-1.158,1.061-2.011,1.886-2.5C19.061,11.011,18,10.158,18,9V4.5
	c0-1.805-1.398-2-2-2v-1c1.384,0,3,0.786,3,3V9c0,0.944,1.619,1.808,2.187,2.036v0.928C20.619,12.192,19,13.057,19,14v5.5
	C19,21.714,17.384,22.5,16,22.5z"/>
</svg>






