<?xml version="1.0" encoding="iso-8859-1"?>
<svg version="1.1" id="&#x56FE;&#x5C42;_1" xmlns="http://www.w3.org/2000/svg" xmlns:xlink="http://www.w3.org/1999/xlink" x="0px"
	 y="0px" viewBox="0 0 24 24" style="enable-background:new 0 0 24 24;" xml:space="preserve">
<path style="fill:#333333;" d="M18.5,21.5H4v-1h14.5c0.552,0,1-0.448,1-1v-15c0-0.551-0.448-1-1-1h-10v-1h10c1.103,0,2,0.897,2,2v15
	C20.5,20.603,19.603,21.5,18.5,21.5z"/>
<path style="fill:#333333;" d="M11,18.5c-3.033,0-5.5-2.468-5.5-5.5v-0.5h11V13C16.5,16.032,14.032,18.5,11,18.5z M6.528,13.5
	c0.25,2.247,2.16,4,4.472,4s4.223-1.753,4.473-4H6.528z"/>
<rect x="7.5" y="9" style="fill:#333333;" width="1" height="1"/>
<rect x="10.5" y="9" style="fill:#333333;" width="1" height="1"/>
<rect x="13.5" y="9" style="fill:#333333;" width="1" height="1"/>
</svg>






