<?xml version="1.0" encoding="iso-8859-1"?>
<svg version="1.1" id="&#x56FE;&#x5C42;_1" xmlns="http://www.w3.org/2000/svg" xmlns:xlink="http://www.w3.org/1999/xlink" x="0px"
	 y="0px" viewBox="0 0 24 24" style="enable-background:new 0 0 24 24;" xml:space="preserve">
<path style="fill:#333333;" d="M16.146,22.5H7.854c-0.397,0-0.756-0.235-0.916-0.6l-1.396-3.2l0.917-0.4l1.396,3.2h8.292l1.396-3.2
	l0.916,0.4l-1.396,3.2C16.904,22.265,16.544,22.5,16.146,22.5z"/>
<path style="fill:#333333;" d="M17.542,5.7l-1.396-3.2H7.854L6.458,5.7L5.542,5.3l1.396-3.2C7.096,1.736,7.456,1.5,7.854,1.5h8.293
	c0.398,0,0.759,0.236,0.917,0.602L18.458,5.3L17.542,5.7z"/>
<path style="fill:#333333;" d="M17,19.5H7c-0.827,0-1.5-0.673-1.5-1.5V6c0-0.827,0.673-1.5,1.5-1.5h10c0.827,0,1.5,0.673,1.5,1.5v12
	C18.5,18.827,17.827,19.5,17,19.5z M7,5.5C6.724,5.5,6.5,5.724,6.5,6v12c0,0.275,0.224,0.5,0.5,0.5h10c0.275,0,0.5-0.225,0.5-0.5V6
	c0-0.276-0.225-0.5-0.5-0.5H7z"/>
<path style="fill:#333333;" d="M6.578,11.744l-0.156-0.987l3.198-0.505c0.889-0.141,1.712-0.584,2.316-1.25
	c1.02-1.122,2.473-1.707,3.986-1.616l1.858,0.116l-0.062,0.998L15.86,8.383c-1.2-0.078-2.369,0.395-3.184,1.291
	c-0.757,0.833-1.788,1.389-2.9,1.565L6.578,11.744z"/>
<path style="fill:#333333;" d="M6.272,16.749l-0.045-0.998l2.776-0.126c1.504-0.069,2.876-0.938,3.579-2.268
	c0.685-1.293,1.887-2.25,3.301-2.627l1.737-0.463l0.258,0.966l-1.737,0.463c-1.146,0.306-2.12,1.081-2.674,2.128
	c-0.869,1.642-2.562,2.715-4.418,2.799L6.272,16.749z"/>
<rect x="17.5" y="6" style="fill:#333333;" width="1" height="10"/>
<rect x="5.5" y="8" style="fill:#333333;" width="1" height="10"/>
</svg>






