<?xml version="1.0" encoding="iso-8859-1"?>
<svg version="1.1" id="&#x56FE;&#x5C42;_1" xmlns="http://www.w3.org/2000/svg" xmlns:xlink="http://www.w3.org/1999/xlink" x="0px"
	 y="0px" viewBox="0 0 24 24" style="enable-background:new 0 0 24 24;" xml:space="preserve">
<path style="fill:#333333;" d="M20.5,17h-17V6c0-1.103,0.897-2,2-2h5v1h-5c-0.551,0-1,0.449-1,1v10h15v-4.5h1V17z"/>
<path style="fill:#333333;" d="M19,21H5c-1.93,0-3.5-1.57-3.5-3.5V16h21v1.5C22.5,19.43,20.93,21,19,21z M2.5,17v0.5
	C2.5,18.879,3.622,20,5,20h14c1.379,0,2.5-1.121,2.5-2.5V17H2.5z"/>
<path style="fill:#333333;" d="M17.5,9.025l-0.153-0.05C16.146,8.588,14,6.962,14,5.103C14,3.943,14.965,3,16.15,3
	c0.496,0,0.972,0.168,1.35,0.466C17.878,3.168,18.354,3,18.85,3C20.035,3,21,3.943,21,5.103c0,1.86-2.146,3.486-3.347,3.873
	L17.5,9.025z M16.15,4C15.516,4,15,4.495,15,5.103c0,1.264,1.568,2.49,2.5,2.866C18.432,7.593,20,6.366,20,5.103
	C20,4.495,19.484,4,18.85,4c-0.376,0-0.729,0.177-0.945,0.475L17.5,5.032l-0.404-0.557C16.88,4.177,16.526,4,16.15,4z"/>
</svg>






