<?xml version="1.0" encoding="iso-8859-1"?>
<svg version="1.1" id="&#x56FE;&#x5C42;_1" xmlns="http://www.w3.org/2000/svg" xmlns:xlink="http://www.w3.org/1999/xlink" x="0px"
	 y="0px" viewBox="0 0 24 24" style="enable-background:new 0 0 24 24;" xml:space="preserve">
<path style="fill:#333333;" d="M20.5,22.5h-17v-21h12.229L20.5,7.065V22.5z M4.5,21.5h15V7.435L15.271,2.5H4.5V21.5z"/>
<path style="fill:#333333;" d="M9.013,17.885L8.277,17.35l0.682-3.361l-2.527-2.319l0.281-0.865l3.409-0.391l1.424-3.121h0.91
	l1.425,3.121l3.407,0.391l0.281,0.865l-2.527,2.32l0.682,3.361l-0.736,0.535L12,16.197L9.013,17.885z M12,15.049l2.524,1.427
	l-0.575-2.843l2.137-1.96l-2.882-0.331L12,8.704l-1.205,2.638l-2.881,0.331l2.137,1.96l-0.577,2.843L12,15.049z"/>
</svg>






