<?xml version="1.0" encoding="iso-8859-1"?>
<svg version="1.1" id="&#x56FE;&#x5C42;_1" xmlns="http://www.w3.org/2000/svg" xmlns:xlink="http://www.w3.org/1999/xlink" x="0px"
	 y="0px" viewBox="0 0 24 24" style="enable-background:new 0 0 24 24;" xml:space="preserve">
<path style="fill:#333333;" d="M22,10.5c0-0.552-0.448-1-1-1s-1,0.448-1,1H22z M11.5,4c0.552,0,1-0.448,1-1s-0.448-1-1-1V4z
	 M19.5,20h-15v2h15V20z M4,19.5v-15H2v15H4z M20,10.5v9h2v-9H20z M4.5,4h7V2h-7V4z M4.5,20C4.224,20,4,19.776,4,19.5H2
	C2,20.881,3.119,22,4.5,22V20z M19.5,22c1.381,0,2.5-1.119,2.5-2.5h-2c0,0.276-0.224,0.5-0.5,0.5V22z M4,4.5C4,4.224,4.224,4,4.5,4
	V2C3.119,2,2,3.119,2,4.5H4z"/>
<path style="fill:#333333;" d="M15.675,18.38l-6.327-5.423c-0.192-0.166-0.477-0.16-0.663,0.01l-5.347,4.901l-0.676-0.736
	l5.347-4.901c0.559-0.513,1.414-0.526,1.99-0.033l6.327,5.423L15.675,18.38z"/>
<path style="fill:#333333;" d="M20.7,15.9l-3.306-2.479c-0.197-0.149-0.479-0.128-0.654,0.046l-2.387,2.387l-0.707-0.707
	l2.387-2.387c0.524-0.524,1.367-0.583,1.961-0.14L21.3,15.1L20.7,15.9z"/>
<path style="fill:#333333;" d="M18,8.525l-0.153-0.05C16.646,8.088,14.5,6.462,14.5,4.602c0-1.159,0.965-2.102,2.15-2.102
	c0.496,0,0.972,0.168,1.35,0.466C18.378,2.668,18.854,2.5,19.35,2.5c1.186,0,2.15,0.943,2.15,2.102c0,1.86-2.146,3.486-3.347,3.874
	L18,8.525z M16.65,3.5c-0.635,0-1.15,0.494-1.15,1.102c0,1.264,1.568,2.491,2.5,2.866c0.932-0.375,2.5-1.602,2.5-2.866
	c0-0.608-0.516-1.102-1.15-1.102c-0.376,0-0.729,0.177-0.945,0.475L18,4.532l-0.404-0.557C17.38,3.677,17.026,3.5,16.65,3.5z"/>
</svg>






