<?xml version="1.0" encoding="iso-8859-1"?>
<svg version="1.1" id="&#x56FE;&#x5C42;_1" xmlns="http://www.w3.org/2000/svg" xmlns:xlink="http://www.w3.org/1999/xlink" x="0px"
	 y="0px" viewBox="0 0 24 24" style="enable-background:new 0 0 24 24;" xml:space="preserve">
<path style="fill:#333333;" d="M16,22.5c-1.602,0-3.14-0.588-4.333-1.654l0.667-0.746c1.01,0.903,2.312,1.4,3.667,1.4
	c3.032,0,5.5-2.468,5.5-5.5c0-2.512-1.696-4.702-4.125-5.327l0.25-0.969C20.495,10.443,22.5,13.032,22.5,16
	C22.5,19.584,19.584,22.5,16,22.5z"/>
<path style="fill:#333333;" d="M8,22.5c-3.584,0-6.5-2.916-6.5-6.5c0-2.968,2.005-5.557,4.875-6.295l0.249,0.969
	C4.196,11.298,2.5,13.488,2.5,16c0,3.032,2.467,5.5,5.5,5.5s5.5-2.468,5.5-5.5c0-0.696-0.128-1.373-0.379-2.012l0.93-0.367
	C14.349,14.378,14.5,15.179,14.5,16C14.5,19.584,11.584,22.5,8,22.5z"/>
<path style="fill:#333333;" d="M12,14.5c-3.584,0-6.5-2.916-6.5-6.5S8.416,1.5,12,1.5s6.5,2.916,6.5,6.5S15.584,14.5,12,14.5z
	 M12,2.5C8.967,2.5,6.5,4.967,6.5,8s2.467,5.5,5.5,5.5c3.032,0,5.5-2.467,5.5-5.5S15.032,2.5,12,2.5z"/>
</svg>






