<?xml version="1.0" encoding="iso-8859-1"?>
<svg version="1.1" id="&#x56FE;&#x5C42;_1" xmlns="http://www.w3.org/2000/svg" xmlns:xlink="http://www.w3.org/1999/xlink" x="0px"
	 y="0px" viewBox="0 0 24 24" style="enable-background:new 0 0 24 24;" xml:space="preserve">
<path style="fill:none;" d="M5,22c1.657,0,3-1.343,3-3v-7.243V2H2v17C2,20.657,3.343,22,5,22z"/>
<path style="fill:#333333;" d="M22.5,22.5H5c-0.002,0-0.006,0-0.006,0c-0.002,0-0.003,0-0.005,0h0
	c-0.93-0.003-1.805-0.367-2.463-1.025l0.001-0.001C1.893,20.84,1.5,19.965,1.5,19V1.5h7v9.05l9.23-9.269l4.969,4.969l-9.25,9.25
	H22.5V22.5z M7.449,21.5H21.5v-5h-9.051l-4.975,4.975C7.466,21.483,7.458,21.491,7.449,21.5z M5,21.5c0.002,0,0.004,0,0.004,0
	c0.001,0,0.002,0,0.004,0l0,0C6.383,21.495,7.5,20.376,7.5,19v-7.243H8H7.5V2.5h-5V19c0,1.376,1.117,2.495,2.492,2.5l0,0
	c0.001,0,0.002,0,0.004,0C4.996,21.5,4.998,21.5,5,21.5z M8.5,11.964V19c0,0.012,0,0.023,0,0.035l3.389-3.389L12.242,16
	l-0.354-0.354l9.396-9.396L17.75,2.715L8.5,11.964z"/>
<polygon style="fill:#333333;" points="7.475,21.475 6.768,20.768 21.285,6.25 17.742,2.708 8.354,12.11 7.646,11.404 17.742,1.292 
	22.699,6.25 "/>
<polygon style="fill:#333333;" points="22.5,22.5 6.25,22.5 6.25,21.5 21.5,21.5 21.5,16.5 12.242,16.5 12.242,15.5 22.5,15.5 "/>
<polygon style="fill:#333333;" points="22.5,22.5 6.25,22.5 6.25,21.5 21.5,21.5 21.5,16.5 12.242,16.5 12.242,15.5 22.5,15.5 "/>
<path style="fill:#333333;" d="M5,22.5c-1.93,0-3.5-1.57-3.5-3.5V1.5h7V19C8.5,20.93,6.93,22.5,5,22.5z M2.5,2.5V19
	c0,1.379,1.122,2.5,2.5,2.5s2.5-1.121,2.5-2.5V2.5H2.5z"/>
</svg>






