<?xml version="1.0" encoding="iso-8859-1"?>
<svg version="1.1" id="&#x56FE;&#x5C42;_1" xmlns="http://www.w3.org/2000/svg" xmlns:xlink="http://www.w3.org/1999/xlink" x="0px"
	 y="0px" viewBox="0 0 24 24" style="enable-background:new 0 0 24 24;" xml:space="preserve">
<path style="fill:#333333;" d="M14.182,21.599c-1.655,0-3.371-0.384-4.905-1.151l0,0l0,0c-4.013-2.006-5.742-5.962-7.131-9.141
	c-0.206-0.469-0.403-0.921-0.6-1.347C1.18,9.166,1.512,8.641,1.742,8.398c0.757-0.797,2.521-0.832,3.694-0.362
	C6.153,8.323,6.938,8.76,7.5,9.097V5.75c0-1.241,1.009-2.25,2.25-2.25c0.522,0,1.004,0.179,1.386,0.479
	C11.452,3.117,12.28,2.5,13.25,2.5c1.24,0,2.25,1.009,2.25,2.25v0.13c0.357-0.24,0.788-0.38,1.25-0.38
	c1.121,0,2.054,0.824,2.223,1.898C19.336,6.147,19.776,6,20.25,6c1.24,0,2.25,1.009,2.25,2.249V14.5c0,1.78-0.983,4.273-3.743,5.929
	C17.458,21.208,15.851,21.599,14.182,21.599z M3.775,8.73c-0.584,0-1.1,0.136-1.308,0.356c-0.053,0.055-0.15,0.158-0.013,0.454
	c0.199,0.432,0.399,0.89,0.607,1.366c1.325,3.03,2.973,6.803,6.662,8.646l0,0c2.79,1.395,6.213,1.402,8.52,0.019
	C20.645,18.13,21.5,16.007,21.5,14.5V8.249C21.5,7.561,20.939,7,20.25,7S19,7.561,19,8.25h-1v-1.5c0-0.689-0.561-1.25-1.25-1.25
	S15.5,6.061,15.5,6.75h-1v-2c0-0.689-0.561-1.25-1.25-1.25S12,4.061,12,4.75v1h-1c0-0.689-0.561-1.25-1.25-1.25S8.5,5.061,8.5,5.75
	V10l-0.777,0.416c-0.015-0.01-1.473-0.978-2.658-1.452C4.658,8.802,4.198,8.73,3.775,8.73z"/>
</svg>






