<?xml version="1.0" encoding="iso-8859-1"?>
<svg version="1.1" id="&#x56FE;&#x5C42;_1" xmlns="http://www.w3.org/2000/svg" xmlns:xlink="http://www.w3.org/1999/xlink" x="0px"
	 y="0px" viewBox="0 0 24 24" style="enable-background:new 0 0 24 24;" xml:space="preserve">
<path style="fill:#333333;" d="M19.867,20.5H4.133c-0.43,0-0.84-0.185-1.125-0.508c-0.285-0.322-0.417-0.752-0.364-1.179l1.75-14
	C4.488,4.065,5.128,3.5,5.883,3.5h12.234c0.755,0,1.395,0.565,1.488,1.314l1.75,14c0.054,0.427-0.078,0.856-0.363,1.179
	C20.708,20.314,20.298,20.5,19.867,20.5z M5.883,4.5c-0.251,0-0.465,0.188-0.496,0.438l-1.75,14
	c-0.018,0.144,0.025,0.283,0.121,0.393C3.854,19.439,3.987,19.5,4.133,19.5h15.734c0.146,0,0.279-0.061,0.375-0.169
	c0.097-0.109,0.14-0.249,0.121-0.393l-1.75-14C18.582,4.688,18.369,4.5,18.117,4.5H5.883z"/>
<path style="fill:#333333;" d="M12,11.5c-3.766,0-4.901-2.184-4.947-2.276l0.892-0.452C7.982,8.843,8.888,10.5,12,10.5
	s4.018-1.657,4.055-1.728l0.893,0.452C16.9,9.316,15.766,11.5,12,11.5z"/>
</svg>






