<?xml version="1.0" encoding="iso-8859-1"?>
<svg version="1.1" id="&#x56FE;&#x5C42;_1" xmlns="http://www.w3.org/2000/svg" xmlns:xlink="http://www.w3.org/1999/xlink" x="0px"
	 y="0px" viewBox="0 0 24 24" style="enable-background:new 0 0 24 24;" xml:space="preserve">
<path style="fill:#333333;" d="M7.955,7.955H4.727C2.948,7.955,1.5,6.507,1.5,4.727C1.5,2.948,2.948,1.5,4.727,1.5
	c1.78,0,3.228,1.448,3.228,3.227V7.955z M4.727,2.5C3.499,2.5,2.5,3.499,2.5,4.727s0.999,2.228,2.227,2.228h2.228V4.727
	C6.955,3.499,5.955,2.5,4.727,2.5z"/>
<path style="fill:#333333;" d="M4.727,22.5c-1.779,0-3.227-1.448-3.227-3.228s1.448-3.227,3.227-3.227h3.228v3.227
	C7.955,21.052,6.507,22.5,4.727,22.5z M4.727,17.046c-1.228,0-2.227,0.999-2.227,2.227c0,1.229,0.999,2.228,2.227,2.228
	s2.228-0.999,2.228-2.228v-2.227H4.727z"/>
<path style="fill:#333333;" d="M17.046,17.046H6.955V6.955h10.091V17.046z M7.955,16.046h8.091V7.955H7.955V16.046z"/>
<path style="fill:#333333;" d="M19.272,7.955h-3.228V4.727c0-1.779,1.448-3.227,3.228-3.227S22.5,2.948,22.5,4.727
	C22.5,6.507,21.052,7.955,19.272,7.955z M17.045,6.955h2.228c1.229,0,2.228-1,2.228-2.228S20.501,2.5,19.272,2.5
	s-2.228,0.999-2.228,2.227V6.955z"/>
<path style="fill:#333333;" d="M19.272,22.5c-1.779,0-3.228-1.448-3.228-3.228v-3.227h3.228c1.779,0,3.228,1.447,3.228,3.227
	S21.052,22.5,19.272,22.5z M17.045,17.046v2.227c0,1.229,0.999,2.228,2.228,2.228s2.228-0.999,2.228-2.228
	c0-1.228-0.999-2.227-2.228-2.227H17.045z"/>
</svg>






