<?xml version="1.0" encoding="iso-8859-1"?>
<svg version="1.1" id="&#x56FE;&#x5C42;_1" xmlns="http://www.w3.org/2000/svg" xmlns:xlink="http://www.w3.org/1999/xlink" x="0px"
	 y="0px" viewBox="0 0 24 24" style="enable-background:new 0 0 24 24;" xml:space="preserve">
<path style="fill:#333333;" d="M16.496,11.009l-1-0.019l0.004-0.455C15.5,5.654,14.126,2.5,12,2.5s-3.5,3.154-3.5,8.036l0.004,0.456
	l-1,0.016L7.5,10.536C7.5,3.874,9.825,1.5,12,1.5c2.176,0,4.5,2.374,4.5,9.036L16.496,11.009z"/>
<path style="fill:#333333;" d="M16.5,22.5h-9C6.673,22.5,6,21.827,6,21v-9c0-0.827,0.673-1.5,1.5-1.5h9c0.827,0,1.5,0.673,1.5,1.5v9
	C18,21.827,17.327,22.5,16.5,22.5z M7.5,11.5C7.224,11.5,7,11.724,7,12v9c0,0.275,0.224,0.5,0.5,0.5h9c0.275,0,0.5-0.225,0.5-0.5v-9
	c0-0.276-0.225-0.5-0.5-0.5H7.5z"/>
</svg>






