<?xml version="1.0" encoding="iso-8859-1"?>
<svg version="1.1" id="&#x56FE;&#x5C42;_1" xmlns="http://www.w3.org/2000/svg" xmlns:xlink="http://www.w3.org/1999/xlink" x="0px"
	 y="0px" viewBox="0 0 24 24" style="enable-background:new 0 0 24 24;" xml:space="preserve">
<path style="fill:#333333;" d="M12,22.5c-4.962,0-9-4.037-9-9c0-4.962,4.038-9,9-9c4.963,0,9,4.038,9,9
	C21,18.463,16.963,22.5,12,22.5z M12,5.5c-4.411,0-8,3.589-8,8s3.589,8,8,8s8-3.589,8-8S16.411,5.5,12,5.5z"/>
<rect x="9.5" y="1.5" style="fill:#333333;" width="5" height="1"/>
<path style="fill:#333333;" d="M12.435,17.248h-0.869L9.424,13.5l2.142-3.748h0.869l2.142,3.748L12.435,17.248z M10.576,13.5
	L12,15.992l1.424-2.492L12,11.008L10.576,13.5z"/>
<rect x="3.5" y="13" style="fill:#333333;" width="2" height="1"/>
<rect x="18.5" y="13" style="fill:#333333;" width="2" height="1"/>
<rect x="11.5" y="5" style="fill:#333333;" width="1" height="2"/>
<rect x="11.5" y="20" style="fill:#333333;" width="1" height="2"/>
<path style="fill:#333333;" d="M12,22.5c-1.193,0-2.351-0.229-3.441-0.682l0.383-0.924c1.938,0.803,4.18,0.803,6.117,0l0.383,0.924
	C14.351,22.271,13.192,22.5,12,22.5z"/>
<path style="fill:#333333;" d="M3.682,16.941C3.229,15.85,3,14.691,3,13.5s0.229-2.349,0.682-3.441l0.924,0.383
	C4.204,11.412,4,12.44,4,13.5s0.204,2.089,0.605,3.059L3.682,16.941z"/>
<path style="fill:#333333;" d="M20.318,16.941l-0.924-0.383C19.796,15.59,20,14.561,20,13.5s-0.204-2.09-0.605-3.059l0.924-0.383
	C20.771,11.149,21,12.308,21,13.5S20.771,15.851,20.318,16.941z"/>
<path style="fill:#333333;" d="M15.29,6.206c-2.071-0.936-4.507-0.936-6.58,0L8.298,5.294c2.333-1.055,5.072-1.055,7.404,0
	L15.29,6.206z"/>
</svg>






