<?xml version="1.0" encoding="iso-8859-1"?>
<svg version="1.1" id="&#x56FE;&#x5C42;_1" xmlns="http://www.w3.org/2000/svg" xmlns:xlink="http://www.w3.org/1999/xlink" x="0px"
	 y="0px" viewBox="0 0 24 24" style="enable-background:new 0 0 24 24;" xml:space="preserve">
<path style="fill:#333333;" d="M12,9.707L7.793,5.5L12,1.293L16.207,5.5L12,9.707z M9.207,5.5L12,8.293L14.793,5.5L12,2.707
	L9.207,5.5z"/>
<path style="fill:#333333;" d="M18.5,16.707L14.293,12.5L18.5,8.293l4.207,4.207L18.5,16.707z M15.707,12.5l2.793,2.793l2.793-2.793
	L18.5,9.707L15.707,12.5z"/>
<path style="fill:#333333;" d="M12,22.707L7.793,18.5L12,14.293l4.207,4.207L12,22.707z M9.207,18.5L12,21.293l2.793-2.793
	L12,15.707L9.207,18.5z"/>
<path style="fill:#333333;" d="M5.5,16.207L1.293,12L5.5,7.793L9.707,12L5.5,16.207z M2.707,12L5.5,14.793L8.293,12L5.5,9.207
	L2.707,12z"/>
</svg>






