<?xml version="1.0" encoding="iso-8859-1"?>
<svg version="1.1" id="&#x56FE;&#x5C42;_1" xmlns="http://www.w3.org/2000/svg" xmlns:xlink="http://www.w3.org/1999/xlink" x="0px"
	 y="0px" viewBox="0 0 24 24" style="enable-background:new 0 0 24 24;" xml:space="preserve">
<path style="fill:#333333;" d="M18.566,21.5H5.434c-0.488,0-0.934-0.229-1.225-0.626c-0.291-0.398-0.375-0.916-0.225-1.384
	C4.55,17.723,5.5,14.398,5.5,12c0-2.399-0.95-5.723-1.516-7.49l0,0c-0.15-0.468-0.066-0.984,0.225-1.383
	C4.499,2.729,4.946,2.5,5.434,2.5h13.133c0.488,0,0.935,0.229,1.226,0.627c0.29,0.398,0.374,0.916,0.224,1.382
	C19.45,6.276,18.5,9.597,18.5,12c0,2.402,0.95,5.724,1.517,7.49c0.149,0.467,0.065,0.984-0.225,1.383
	C19.501,21.271,19.055,21.5,18.566,21.5z M5.434,3.5c-0.165,0-0.317,0.079-0.417,0.216C4.912,3.859,4.882,4.038,4.936,4.204v0
	C5.52,6.027,6.5,9.465,6.5,12s-0.98,5.972-1.564,7.795c-0.054,0.168-0.024,0.346,0.081,0.489c0.1,0.138,0.252,0.216,0.417,0.216
	h13.133c0.165,0,0.317-0.079,0.417-0.216c0.104-0.144,0.134-0.322,0.081-0.488C18.479,17.974,17.5,14.538,17.5,12
	c0-2.539,0.979-5.974,1.563-7.796c0.054-0.167,0.024-0.344-0.08-0.488c-0.1-0.138-0.252-0.216-0.417-0.216H5.434z"/>
<path style="fill:#333333;" d="M2.4,16.8l-0.8-0.6c0.664-0.886,0.9-2.816,0.9-4.2S2.264,8.686,1.6,7.8l0.8-0.6
	c1.021,1.361,1.1,4.018,1.1,4.8C3.5,12.782,3.421,15.439,2.4,16.8z"/>
<rect x="9" y="7.25" style="fill:#333333;" width="6" height="1"/>
<rect x="9" y="11.5" style="fill:#333333;" width="6" height="1"/>
<rect x="9" y="15.5" style="fill:#333333;" width="2" height="1"/>
<path style="fill:#333333;" d="M21.553,16.724C20.845,15.307,20.5,13.762,20.5,12c0-0.782,0.079-3.439,1.1-4.8L22.4,7.8
	c-0.665,0.886-0.9,2.816-0.9,4.2c0,1.625,0.301,2.984,0.947,4.276L21.553,16.724z"/>
</svg>






