<?xml version="1.0" encoding="iso-8859-1"?>
<svg version="1.1" id="&#x56FE;&#x5C42;_1" xmlns="http://www.w3.org/2000/svg" xmlns:xlink="http://www.w3.org/1999/xlink" x="0px"
	 y="0px" viewBox="0 0 24 24" style="enable-background:new 0 0 24 24;" xml:space="preserve">
<path style="fill:#333333;" d="M18,22.5H6c-0.827,0-1.5-0.673-1.5-1.5V3c0-0.827,0.673-1.5,1.5-1.5h12c0.827,0,1.5,0.673,1.5,1.5v18
	C19.5,21.827,18.827,22.5,18,22.5z M6,2.5C5.724,2.5,5.5,2.724,5.5,3v18c0,0.275,0.224,0.5,0.5,0.5h12c0.275,0,0.5-0.225,0.5-0.5V3
	c0-0.276-0.225-0.5-0.5-0.5H6z"/>
<rect x="8.5" y="5.5" style="fill:#333333;" width="7" height="1"/>
<circle style="fill:#333333;" cx="8.5" cy="10.5" r="1"/>
<circle style="fill:#333333;" cx="8.5" cy="13.5" r="1"/>
<circle style="fill:#333333;" cx="8.5" cy="16.5" r="1"/>
<circle style="fill:#333333;" cx="12" cy="10.5" r="1"/>
<circle style="fill:#333333;" cx="12" cy="13.5" r="1"/>
<circle style="fill:#333333;" cx="12" cy="16.5" r="1"/>
<circle style="fill:#333333;" cx="15.5" cy="10.5" r="1"/>
<circle style="fill:#333333;" cx="15.5" cy="13.5" r="1"/>
<circle style="fill:#333333;" cx="15.5" cy="16.5" r="1"/>
</svg>






