<?xml version="1.0" encoding="iso-8859-1"?>
<svg version="1.1" id="&#x56FE;&#x5C42;_1" xmlns="http://www.w3.org/2000/svg" xmlns:xlink="http://www.w3.org/1999/xlink" x="0px"
	 y="0px" viewBox="0 0 24 24" style="enable-background:new 0 0 24 24;" xml:space="preserve">
<rect x="1.062" y="14.375" transform="matrix(0.3514 -0.9362 0.9362 0.3514 -8.3019 17.766)" style="fill:#333333;" width="15.219" height="1"/>
<rect x="14.828" y="7.265" transform="matrix(0.9363 -0.3511 0.3511 0.9363 -4.247 6.3292)" style="fill:#333333;" width="0.999" height="15.219"/>
<path style="fill:#333333;" d="M12,8.5c-1.378,0-2.5-1.122-2.5-2.5s1.122-2.5,2.5-2.5c1.379,0,2.5,1.122,2.5,2.5S13.379,8.5,12,8.5z
	 M12,4.5c-0.827,0-1.5,0.673-1.5,1.5s0.673,1.5,1.5,1.5s1.5-0.673,1.5-1.5S12.827,4.5,12,4.5z"/>
<path style="fill:#333333;" d="M12,19c-2.516,0-4.956-0.72-7.057-2.08l0.544-0.84C7.426,17.336,9.678,18,12,18
	s4.574-0.664,6.514-1.92l0.543,0.84C16.956,18.28,14.516,19,12,19z"/>
<rect x="11.5" y="2" style="fill:#333333;" width="1" height="2"/>
</svg>






