<?xml version="1.0" encoding="iso-8859-1"?>
<svg version="1.1" id="&#x56FE;&#x5C42;_1" xmlns="http://www.w3.org/2000/svg" xmlns:xlink="http://www.w3.org/1999/xlink" x="0px"
	 y="0px" viewBox="0 0 24 24" style="enable-background:new 0 0 24 24;" xml:space="preserve">
<path style="fill:#333333;" d="M5.075,19.425C3.092,17.441,2,14.805,2,12s1.092-5.441,3.075-7.424l0.707,0.707
	C3.988,7.077,3,9.462,3,12c0,2.538,0.988,4.924,2.782,6.718L5.075,19.425z"/>
<path style="fill:#333333;" d="M19.925,19.425l-0.707-0.707C21.012,16.924,22,14.538,22,12c0-2.538-0.988-4.923-2.782-6.717
	l0.707-0.707C21.908,6.559,23,9.195,23,12S21.908,17.441,19.925,19.425z"/>
<path style="fill:#333333;" d="M17.803,17.304l-0.707-0.707C18.323,15.368,19,13.736,19,12c0-1.737-0.676-3.369-1.904-4.596
	l0.707-0.707C19.22,8.112,20,9.996,20,12C20,14.003,19.22,15.887,17.803,17.304z"/>
<path style="fill:#333333;" d="M7.197,17.304C5.78,15.886,5,14.003,5,12c0-2.003,0.78-3.887,2.197-5.303l0.707,0.707
	C6.676,8.631,6,10.264,6,12c0,1.735,0.676,3.368,1.904,4.597L7.197,17.304z"/>
<path style="fill:#333333;" d="M12.5,16.591l-0.267-0.168c-0.663-0.417-1.224-0.841-1.667-1.26l-0.119-0.111
	C9.719,14.372,8.5,13.233,8.5,11.8c0-1.268,1.081-2.3,2.409-2.3c0.593,0,1.156,0.208,1.591,0.572
	C12.935,9.708,13.497,9.5,14.091,9.5c1.328,0,2.409,1.032,2.409,2.3c0,1.435-1.22,2.573-1.948,3.254l-0.118,0.11
	c-0.443,0.418-1.004,0.842-1.667,1.259L12.5,16.591z M10.909,10.5c-0.777,0-1.409,0.583-1.409,1.3c0,0.999,1.02,1.952,1.629,2.521
	l0.123,0.114c0.338,0.319,0.757,0.645,1.248,0.97c0.492-0.325,0.91-0.65,1.247-0.969l0.122-0.114C14.479,13.753,15.5,12.8,15.5,11.8
	c0-0.717-0.632-1.3-1.409-1.3c-0.479,0-0.921,0.222-1.183,0.593l-0.408,0.58l-0.408-0.58C11.83,10.722,11.388,10.5,10.909,10.5z"/>
</svg>






