<?xml version="1.0" encoding="iso-8859-1"?>
<svg version="1.1" id="&#x56FE;&#x5C42;_1" xmlns="http://www.w3.org/2000/svg" xmlns:xlink="http://www.w3.org/1999/xlink" x="0px"
	 y="0px" viewBox="0 0 24 24" style="enable-background:new 0 0 24 24;" xml:space="preserve">
<path style="fill:#333333;" d="M13.083,22.5c-0.557,0-1.754-0.334-6.081-2.905l-3.733,1.559l-1.963-3.888l6.236-2.294l4.587,2.528
	h2.055v1h-2.312l-4.413-2.433l-4.755,1.749l1.039,2.056l3.339-1.395l0.216,0.129c4.216,2.518,5.435,2.894,5.785,2.894
	c0.288,0,1.713-0.385,8.689-3.945l0.455,0.891C15.186,22.039,13.642,22.5,13.083,22.5z"/>
<path style="fill:#333333;" d="M14.996,13.994h-3.997L11,13.493c0.002-0.962,0.002-1.63,0.002-2.004
	c-0.516-0.229-1.132-0.548-1.538-0.954C8.52,9.591,8,8.335,8,7c0-2.757,2.243-5,5-5s5,2.243,5,5c0,1.335-0.521,2.591-1.465,3.536
	c-0.403,0.403-1.021,0.723-1.539,0.953V13.994z M12.001,12.994h1.995v-2.169l0.309-0.128c0.277-0.115,1.12-0.465,1.523-0.868
	C16.584,9.073,17,8.068,17,7c0-2.206-1.794-4-4-4c-2.206,0-4,1.794-4,4c0,1.068,0.416,2.073,1.171,2.829
	c0.406,0.406,1.245,0.754,1.52,0.868l0.303,0.125L12,11.15C12.003,11.297,12.003,11.912,12.001,12.994z"/>
<rect x="5.896" y="9.75" transform="matrix(0.7071 -0.7071 0.7071 0.7071 -5.4173 7.4216)" style="fill:#333333;" width="0.707" height="1"/>
<rect x="19.25" y="9.896" transform="matrix(0.7071 -0.7071 0.7071 0.7071 -1.4632 16.9675)" style="fill:#333333;" width="1" height="0.707"/>
<rect x="6.75" y="1.896" transform="matrix(0.7071 -0.7071 0.7071 0.7071 0.5325 5.7855)" style="fill:#333333;" width="1" height="0.707"/>
<rect x="18.396" y="1.75" transform="matrix(0.7071 -0.7071 0.7071 0.7071 3.9008 13.9173)" style="fill:#333333;" width="0.707" height="1"/>
<rect x="20" y="5.5" style="fill:#333333;" width="0.5" height="1"/>
<rect x="5.5" y="5.5" style="fill:#333333;" width="0.5" height="1"/>
</svg>






