<?xml version="1.0" encoding="iso-8859-1"?>
<svg version="1.1" id="&#x56FE;&#x5C42;_1" xmlns="http://www.w3.org/2000/svg" xmlns:xlink="http://www.w3.org/1999/xlink" x="0px"
	 y="0px" viewBox="0 0 24 24" style="enable-background:new 0 0 24 24;" xml:space="preserve">
<path style="fill:#333333;" d="M20.5,22.5h-17v-11h17V22.5z M4.5,21.5h15v-9h-15V21.5z"/>
<polygon style="fill:#333333;" points="19,12 18,12 18,9 6,9 6,12 5,12 5,8 19,8 "/>
<path style="fill:#333333;" d="M8.867,8.839L8.133,8.161C9.04,7.178,9.5,5.105,9.5,2V1.5H10c1.834,0,5.5,2.968,5.5,6.866h-1
	c0-3.076-2.613-5.279-4.006-5.765C10.434,5.676,9.9,7.72,8.867,8.839z"/>
<path style="fill:#333333;" d="M16.5,19h-9v-4h9V19z M8.5,18h7v-2h-7V18z"/>
</svg>






