<?xml version="1.0" encoding="iso-8859-1"?>
<svg version="1.1" id="&#x56FE;&#x5C42;_1" xmlns="http://www.w3.org/2000/svg" xmlns:xlink="http://www.w3.org/1999/xlink" x="0px"
	 y="0px" viewBox="0 0 24 24" style="enable-background:new 0 0 24 24;" xml:space="preserve">
<path style="fill:#333333;" d="M12,22.5C6.21,22.5,1.5,17.79,1.5,12C1.5,6.21,6.21,1.5,12,1.5c5.79,0,10.5,4.71,10.5,10.5
	C22.5,17.79,17.79,22.5,12,22.5z M12,2.5c-5.238,0-9.5,4.262-9.5,9.5s4.262,9.5,9.5,9.5s9.5-4.262,9.5-9.5S17.238,2.5,12,2.5z"/>
<polygon style="fill:#333333;" points="15.646,11.854 13.793,10 15.646,8.146 16.354,8.854 15.207,10 16.354,11.146 "/>
<polygon style="fill:#333333;" points="8.354,11.854 7.646,11.146 8.793,10 7.646,8.854 8.354,8.146 10.207,10 "/>
<polygon style="fill:#333333;" points="15,17.707 13.5,16.207 12,17.707 10.5,16.207 9,17.707 7.146,15.854 7.854,15.146 9,16.293 
	10.5,14.793 12,16.293 13.5,14.793 15,16.293 16.146,15.146 16.854,15.854 "/>
</svg>






