<?xml version="1.0" encoding="iso-8859-1"?>
<svg version="1.1" id="&#x56FE;&#x5C42;_1" xmlns="http://www.w3.org/2000/svg" xmlns:xlink="http://www.w3.org/1999/xlink" x="0px"
	 y="0px" viewBox="0 0 24 24" style="enable-background:new 0 0 24 24;" xml:space="preserve">
<polygon style="fill:#333333;" points="19.854,22.354 19.146,21.646 21.293,19.5 19.146,17.354 19.854,16.646 22.707,19.5 "/>
<path style="fill:#333333;" d="M4,6.5C2.622,6.5,1.5,5.378,1.5,4S2.622,1.5,4,1.5S6.5,2.622,6.5,4S5.378,6.5,4,6.5z M4,2.5
	C3.173,2.5,2.5,3.173,2.5,4S3.173,5.5,4,5.5S5.5,4.827,5.5,4S4.827,2.5,4,2.5z"/>
<path style="fill:#333333;" d="M22,20h-8c-1.379,0-2.5-1.121-2.5-2.5V6c0-0.827-0.673-1.5-1.5-1.5H6v-1h4c1.378,0,2.5,1.122,2.5,2.5
	v11.5c0,0.827,0.673,1.5,1.5,1.5h8V20z"/>
</svg>






