<?xml version="1.0" encoding="iso-8859-1"?>
<svg version="1.1" id="&#x56FE;&#x5C42;_1" xmlns="http://www.w3.org/2000/svg" xmlns:xlink="http://www.w3.org/1999/xlink" x="0px"
	 y="0px" viewBox="0 0 24 24" style="enable-background:new 0 0 24 24;" xml:space="preserve">
<path style="fill:#333333;" d="M12,21.5c-5.238,0-9.5-4.262-9.5-9.5h1c0,4.687,3.813,8.5,8.5,8.5c4.687,0,8.5-3.813,8.5-8.5h1
	C21.5,17.238,17.238,21.5,12,21.5z"/>
<rect x="11.5" y="7" style="fill:#333333;" width="1" height="14"/>
<rect x="3" y="11.5" style="fill:#333333;" width="3" height="1"/>
<rect x="18" y="11.5" style="fill:#333333;" width="3" height="1"/>
<path style="fill:#333333;" d="M12,7.5c-1.378,0-2.5-1.122-2.5-2.5s1.122-2.5,2.5-2.5c1.379,0,2.5,1.122,2.5,2.5S13.379,7.5,12,7.5z
	 M12,3.5c-0.827,0-1.5,0.673-1.5,1.5s0.673,1.5,1.5,1.5s1.5-0.673,1.5-1.5S12.827,3.5,12,3.5z"/>
</svg>






