<?xml version="1.0" encoding="iso-8859-1"?>
<svg version="1.1" id="&#x56FE;&#x5C42;_1" xmlns="http://www.w3.org/2000/svg" xmlns:xlink="http://www.w3.org/1999/xlink" x="0px"
	 y="0px" viewBox="0 0 24 24" style="enable-background:new 0 0 24 24;" xml:space="preserve">
<rect x="2.5" y="11.5" style="fill:#333333;" width="19" height="1"/>
<path style="fill:#333333;" d="M14,8.5h-4C9.173,8.5,8.5,7.827,8.5,7V3c0-0.827,0.673-1.5,1.5-1.5h4c0.827,0,1.5,0.673,1.5,1.5v4
	C15.5,7.827,14.827,8.5,14,8.5z M10,2.5C9.724,2.5,9.5,2.724,9.5,3v4c0,0.276,0.224,0.5,0.5,0.5h4c0.275,0,0.5-0.224,0.5-0.5V3
	c0-0.276-0.225-0.5-0.5-0.5H10z"/>
<path style="fill:#333333;" d="M8,22.5H4c-0.827,0-1.5-0.673-1.5-1.5v-4c0-0.827,0.673-1.5,1.5-1.5h4c0.827,0,1.5,0.673,1.5,1.5v4
	C9.5,21.827,8.827,22.5,8,22.5z M4,16.5c-0.276,0-0.5,0.225-0.5,0.5v4c0,0.275,0.224,0.5,0.5,0.5h4c0.276,0,0.5-0.225,0.5-0.5v-4
	c0-0.275-0.224-0.5-0.5-0.5H4z"/>
<path style="fill:#333333;" d="M20,22.5h-4c-0.827,0-1.5-0.673-1.5-1.5v-4c0-0.827,0.673-1.5,1.5-1.5h4c0.827,0,1.5,0.673,1.5,1.5v4
	C21.5,21.827,20.827,22.5,20,22.5z M16,16.5c-0.275,0-0.5,0.225-0.5,0.5v4c0,0.275,0.225,0.5,0.5,0.5h4c0.275,0,0.5-0.225,0.5-0.5
	v-4c0-0.275-0.225-0.5-0.5-0.5H16z"/>
<rect x="11.5" y="8" style="fill:#333333;" width="1" height="4"/>
<rect x="17.5" y="12" style="fill:#333333;" width="1" height="4"/>
<rect x="5.5" y="12" style="fill:#333333;" width="1" height="4"/>
</svg>






