<?xml version="1.0" encoding="iso-8859-1"?>
<svg version="1.1" id="&#x56FE;&#x5C42;_1" xmlns="http://www.w3.org/2000/svg" xmlns:xlink="http://www.w3.org/1999/xlink" x="0px"
	 y="0px" viewBox="0 0 24 24" style="enable-background:new 0 0 24 24;" xml:space="preserve">
<path style="fill:#333333;" d="M21.5,8.5h-19c-0.551,0-1-0.469-1-1.045V2.545c0-0.577,0.449-1.045,1-1.045h19
	c0.552,0,1,0.469,1,1.045v4.909C22.5,8.031,22.052,8.5,21.5,8.5z M2.5,2.5v4.955l19,0.045v-5H2.5z"/>
<path style="fill:#333333;" d="M21.5,22.5h-19c-0.551,0-1-0.469-1-1.046v-4.908c0-0.577,0.449-1.046,1-1.046h19
	c0.552,0,1,0.469,1,1.046v4.908C22.5,22.031,22.052,22.5,21.5,22.5z M2.5,16.5v4.954l19,0.046v-5H2.5z"/>
<polygon style="fill:#333333;" points="17.5,16 16.5,16 16.5,12.509 6.5,12.504 6.5,8 7.5,8 7.5,11.504 17.5,11.509 "/>
<rect x="9" y="18.5" style="fill:#333333;" width="6" height="1"/>
<rect x="9" y="4.5" style="fill:#333333;" width="6" height="1"/>
</svg>






