<?xml version="1.0" encoding="iso-8859-1"?>
<svg version="1.1" id="&#x56FE;&#x5C42;_1" xmlns="http://www.w3.org/2000/svg" xmlns:xlink="http://www.w3.org/1999/xlink" x="0px"
	 y="0px" viewBox="0 0 24 24" style="enable-background:new 0 0 24 24;" xml:space="preserve">
<path style="fill:#333333;" d="M17.5,20.5H6v-1h11.5c1.305,0,4-0.855,4-3.5s-2.695-3.5-4-3.5h-11c-1.631,0-5-1.1-5-4.5
	s3.369-4.5,5-4.5H18v1H6.5c-1.305,0-4,0.855-4,3.5s2.695,3.5,4,3.5h11c1.632,0,5,1.1,5,4.5S19.132,20.5,17.5,20.5z"/>
<path style="fill:#333333;" d="M20,6.5c-1.379,0-2.5-1.122-2.5-2.5s1.121-2.5,2.5-2.5s2.5,1.122,2.5,2.5S21.379,6.5,20,6.5z M20,2.5
	c-0.827,0-1.5,0.673-1.5,1.5s0.673,1.5,1.5,1.5s1.5-0.673,1.5-1.5S20.827,2.5,20,2.5z"/>
<path style="fill:#333333;" d="M4,22.5c-1.378,0-2.5-1.121-2.5-2.5s1.122-2.5,2.5-2.5s2.5,1.121,2.5,2.5S5.378,22.5,4,22.5z M4,18.5
	c-0.827,0-1.5,0.673-1.5,1.5s0.673,1.5,1.5,1.5s1.5-0.673,1.5-1.5S4.827,18.5,4,18.5z"/>
</svg>






