<?xml version="1.0" encoding="iso-8859-1"?>
<svg version="1.1" id="&#x56FE;&#x5C42;_1" xmlns="http://www.w3.org/2000/svg" xmlns:xlink="http://www.w3.org/1999/xlink" x="0px"
	 y="0px" viewBox="0 0 24 24" style="enable-background:new 0 0 24 24;" xml:space="preserve">
<path style="fill:#333333;" d="M4,6.5C2.622,6.5,1.5,5.378,1.5,4S2.622,1.5,4,1.5S6.5,2.622,6.5,4S5.378,6.5,4,6.5z M4,2.5
	C3.173,2.5,2.5,3.173,2.5,4S3.173,5.5,4,5.5S5.5,4.827,5.5,4S4.827,2.5,4,2.5z"/>
<path style="fill:#333333;" d="M5,21.5c-1.93,0-3.5-1.57-3.5-3.5s1.57-3.5,3.5-3.5s3.5,1.57,3.5,3.5S6.93,21.5,5,21.5z M5,15.5
	c-1.378,0-2.5,1.121-2.5,2.5s1.122,2.5,2.5,2.5s2.5-1.121,2.5-2.5S6.378,15.5,5,15.5z"/>
<path style="fill:#333333;" d="M19,22.5c-1.93,0-3.5-1.57-3.5-3.5s1.57-3.5,3.5-3.5s3.5,1.57,3.5,3.5S20.93,22.5,19,22.5z M19,16.5
	c-1.379,0-2.5,1.121-2.5,2.5s1.121,2.5,2.5,2.5s2.5-1.121,2.5-2.5S20.379,16.5,19,16.5z"/>
<path style="fill:#333333;" d="M11,14.5c-2.481,0-4.5-2.019-4.5-4.5S8.519,5.5,11,5.5s4.5,2.019,4.5,4.5S13.481,14.5,11,14.5z
	 M11,6.5c-1.93,0-3.5,1.57-3.5,3.5s1.57,3.5,3.5,3.5s3.5-1.57,3.5-3.5S12.93,6.5,11,6.5z"/>
<path style="fill:#333333;" d="M17,6.5c-1.379,0-2.5-1.122-2.5-2.5s1.121-2.5,2.5-2.5s2.5,1.122,2.5,2.5S18.379,6.5,17,6.5z M17,2.5
	c-0.827,0-1.5,0.673-1.5,1.5s0.673,1.5,1.5,1.5s1.5-0.673,1.5-1.5S17.827,2.5,17,2.5z"/>
<rect x="6" y="5.086" transform="matrix(0.7071 -0.7071 0.7071 0.7071 -2.6924 6.5)" style="fill:#333333;" width="1" height="2.828"/>
<rect x="13.793" y="6" transform="matrix(0.7071 -0.7071 0.7071 0.7071 -0.3492 12.1569)" style="fill:#333333;" width="1.414" height="1"/>
<rect x="15" y="12.474" transform="matrix(0.7809 -0.6247 0.6247 0.7809 -5.8958 12.9423)" style="fill:#333333;" width="1" height="4.802"/>
<rect x="6.586" y="14" transform="matrix(0.7071 -0.7071 0.7071 0.7071 -7.9099 9.9038)" style="fill:#333333;" width="2.828" height="1"/>
</svg>






