<?xml version="1.0" encoding="iso-8859-1"?>
<svg version="1.1" id="&#x56FE;&#x5C42;_1" xmlns="http://www.w3.org/2000/svg" xmlns:xlink="http://www.w3.org/1999/xlink" x="0px"
	 y="0px" viewBox="0 0 24 24" style="enable-background:new 0 0 24 24;" xml:space="preserve">
<path style="fill:#333333;" d="M17.997,20.502H3.033v-1h14.964c0.143,0,3.503-0.04,3.503-3.51c0-3.452-3.36-3.492-3.503-3.492H6.091
	C4.503,12.5,1.5,11.556,1.5,7.984c0-3.536,3.003-4.471,4.591-4.471h14.404v1H6.091c-0.146,0-3.591,0.04-3.591,3.471
	c0,2.781,2.349,3.516,3.591,3.516h11.906c1.558,0,4.503,0.938,4.503,4.492C22.5,19.56,19.555,20.502,17.997,20.502z"/>
<polygon style="fill:#333333;" points="3.671,22.355 1.329,20.035 3.666,17.646 4.38,18.346 2.739,20.023 4.375,21.645 "/>
<polygon style="fill:#333333;" points="19.373,6.336 18.67,5.625 20.306,4.005 18.664,2.327 19.379,1.627 21.716,4.016 "/>
</svg>






