<?xml version="1.0" encoding="iso-8859-1"?>
<svg version="1.1" id="&#x56FE;&#x5C42;_1" xmlns="http://www.w3.org/2000/svg" xmlns:xlink="http://www.w3.org/1999/xlink" x="0px"
	 y="0px" viewBox="0 0 24 24" style="enable-background:new 0 0 24 24;" xml:space="preserve">
<path style="fill:#333333;" d="M19,16.5H5c-0.827,0-1.5-0.673-1.5-1.5V7c0-0.827,0.673-1.5,1.5-1.5h14c0.827,0,1.5,0.673,1.5,1.5v8
	C20.5,15.827,19.827,16.5,19,16.5z M5,6.5C4.724,6.5,4.5,6.724,4.5,7v8c0,0.275,0.224,0.5,0.5,0.5h14c0.275,0,0.5-0.225,0.5-0.5V7
	c0-0.276-0.225-0.5-0.5-0.5H5z"/>
<rect x="7.5" y="6" style="fill:#333333;" width="1" height="10"/>
<rect x="15.5" y="6" style="fill:#333333;" width="1" height="10"/>
<rect x="14" y="5.5" style="fill:#333333;" width="4" height="1"/>
<rect x="6" y="5.5" style="fill:#333333;" width="4" height="1"/>
<rect x="6" y="15.5" style="fill:#333333;" width="4" height="1"/>
<rect x="14" y="15.5" style="fill:#333333;" width="4" height="1"/>
<rect x="2" y="18.5" style="fill:#333333;" width="20" height="1"/>
<rect x="8.5" y="19" style="fill:#333333;" width="1" height="1"/>
<rect x="5.5" y="19" style="fill:#333333;" width="1" height="1"/>
<rect x="2.5" y="19" style="fill:#333333;" width="1" height="1"/>
<rect x="11.5" y="19" style="fill:#333333;" width="1" height="1"/>
<rect x="14.5" y="19" style="fill:#333333;" width="1" height="1"/>
<rect x="17.5" y="19" style="fill:#333333;" width="1" height="1"/>
<rect x="20.5" y="19" style="fill:#333333;" width="1" height="1"/>
<polygon style="fill:#333333;" points="15.5,6 14.5,6 14.5,3.5 9.5,3.5 9.5,6 8.5,6 8.5,2.5 15.5,2.5 "/>
</svg>






