<?xml version="1.0" encoding="iso-8859-1"?>
<svg version="1.1" id="&#x56FE;&#x5C42;_1" xmlns="http://www.w3.org/2000/svg" xmlns:xlink="http://www.w3.org/1999/xlink" x="0px"
	 y="0px" viewBox="0 0 24 24" style="enable-background:new 0 0 24 24;" xml:space="preserve">
<path style="fill:#333333;" d="M21,21.5H3c-0.827,0-1.5-0.673-1.5-1.5V7c0-0.827,0.673-1.5,1.5-1.5h18c0.827,0,1.5,0.673,1.5,1.5v13
	C22.5,20.827,21.827,21.5,21,21.5z M3,6.5C2.724,6.5,2.5,6.724,2.5,7v13c0,0.275,0.224,0.5,0.5,0.5h18c0.275,0,0.5-0.225,0.5-0.5V7
	c0-0.276-0.225-0.5-0.5-0.5H3z"/>
<polygon style="fill:#333333;" points="12,12.707 9.146,9.854 9.854,9.146 12,11.293 14.146,9.146 14.854,9.854 "/>
<rect x="9" y="12" style="fill:#333333;" width="6" height="1"/>
<rect x="9" y="15" style="fill:#333333;" width="6" height="1"/>
<rect x="11.5" y="12.5" style="fill:#333333;" width="1" height="5"/>
<rect x="4" y="2.5" style="fill:#333333;" width="16" height="1"/>
</svg>






