<?xml version="1.0" encoding="iso-8859-1"?>
<svg version="1.1" id="&#x56FE;&#x5C42;_1" xmlns="http://www.w3.org/2000/svg" xmlns:xlink="http://www.w3.org/1999/xlink" x="0px"
	 y="0px" viewBox="0 0 24 24" style="enable-background:new 0 0 24 24;" xml:space="preserve">
<path style="fill:#333333;" d="M18.5,22.5h-13C4.673,22.5,4,21.827,4,21V3c0-0.827,0.673-1.5,1.5-1.5h13C19.327,1.5,20,2.173,20,3
	v18C20,21.827,19.327,22.5,18.5,22.5z M5.5,2.5C5.224,2.5,5,2.724,5,3v18c0,0.275,0.224,0.5,0.5,0.5h13c0.275,0,0.5-0.225,0.5-0.5V3
	c0-0.276-0.225-0.5-0.5-0.5H5.5z"/>
<path style="fill:#333333;" d="M12,19c-1.93,0-3.5-1.57-3.5-3.5S10.07,12,12,12s3.5,1.57,3.5,3.5S13.93,19,12,19z M12,13
	c-1.378,0-2.5,1.121-2.5,2.5S10.622,18,12,18c1.379,0,2.5-1.121,2.5-2.5S13.379,13,12,13z"/>
<rect x="9" y="5.5" style="fill:#333333;" width="1.5" height="1"/>
<rect x="9" y="8.5" style="fill:#333333;" width="1.5" height="1"/>
<rect x="13.5" y="8.5" style="fill:#333333;" width="1.5" height="1"/>
</svg>






