<?xml version="1.0" encoding="iso-8859-1"?>
<svg version="1.1" id="&#x56FE;&#x5C42;_1" xmlns="http://www.w3.org/2000/svg" xmlns:xlink="http://www.w3.org/1999/xlink" x="0px"
	 y="0px" viewBox="0 0 24 24" style="enable-background:new 0 0 24 24;" xml:space="preserve">
<rect x="3" y="20.5" style="fill:#333333;" width="18" height="1"/>
<rect x="3" y="17.5" style="fill:#333333;" width="18" height="1"/>
<path style="fill:#333333;" d="M20,18.5H4v-6c0-4.411,3.589-8,8-8s8,3.589,8,8V18.5z M5,17.5h14v-5c0-3.86-3.141-7-7-7
	c-3.86,0-7,3.14-7,7V17.5z"/>
<rect x="8" y="12.5" style="fill:#333333;" width="1" height="2"/>
<path style="fill:#333333;" d="M14.5,5h-1V4c0-0.827-0.673-1.5-1.5-1.5S10.5,3.173,10.5,4v1h-1V4c0-1.378,1.122-2.5,2.5-2.5
	c1.379,0,2.5,1.122,2.5,2.5V5z"/>
</svg>






