<?xml version="1.0" encoding="iso-8859-1"?>
<svg version="1.1" id="&#x56FE;&#x5C42;_1" xmlns="http://www.w3.org/2000/svg" xmlns:xlink="http://www.w3.org/1999/xlink" x="0px"
	 y="0px" viewBox="0 0 24 24" style="enable-background:new 0 0 24 24;" xml:space="preserve">
<path style="fill:#333333;" d="M13.84,22.074c-1.516,0-3.061-0.376-4.563-1.127c-2.729-1.364-5.511-4.867-7.205-7.69
	c-0.931-1.551-0.348-3.027,0.644-3.801c0.933-0.728,2.469-0.98,3.638,0.19L7.5,10.793V3.75c0-1.241,1.009-2.25,2.25-2.25
	S12,2.509,12,3.75v2.88c0.357-0.24,0.788-0.38,1.25-0.38c0.898,0,1.676,0.529,2.036,1.292C16.005,6.926,17.211,6.851,18,7.38V6.75
	c0-1.241,1.01-2.25,2.25-2.25s2.25,1.009,2.25,2.25v8.308c0,1.186-0.299,2.179-0.889,2.952c-0.652,0.853-1.767,2.054-3.372,2.929
	C16.853,21.695,15.361,22.074,13.84,22.074z M4.463,9.839c-0.417,0-0.818,0.16-1.132,0.405c-0.597,0.466-1.061,1.4-0.401,2.499
	c1.622,2.702,4.258,6.041,6.794,7.31c2.749,1.375,5.527,1.377,8.037,0.009c1.451-0.792,2.463-1.883,3.056-2.659
	c0.453-0.594,0.684-1.383,0.684-2.345V6.75c0-0.689-0.561-1.25-1.25-1.25S19,6.061,19,6.75v2.5h-1C18,8.561,17.439,8,16.75,8
	S15.5,8.561,15.5,9.25h-1V8.5c0-0.689-0.561-1.25-1.25-1.25S12,7.811,12,8.5h-1V3.75c0-0.689-0.561-1.25-1.25-1.25
	S8.5,3.061,8.5,3.75V12l-0.854,0.354l-2-2C5.281,9.988,4.865,9.839,4.463,9.839z"/>
</svg>






