<?xml version="1.0" encoding="iso-8859-1"?>
<svg version="1.1" id="&#x56FE;&#x5C42;_1" xmlns="http://www.w3.org/2000/svg" xmlns:xlink="http://www.w3.org/1999/xlink" x="0px"
	 y="0px" viewBox="0 0 24 24" style="enable-background:new 0 0 24 24;" xml:space="preserve">
<polygon style="fill:#333333;" points="12.354,20.354 12,20 11.646,20.354 1.293,10 8,3.293 12.354,7.646 11.646,8.354 8,4.707 
	2.707,10 12,19.293 17.646,13.646 18.354,14.354 "/>
<path style="fill:#333333;" d="M18,14.707l-4-4l-2.922,2.923l-3.384-2.031L16,3.293L22.707,10L18,14.707z M14,9.293l4,4L21.293,10
	L16,4.707l-6.694,6.694l1.616,0.969L14,9.293z"/>
<rect x="12.75" y="16.189" transform="matrix(0.7071 -0.7071 0.7071 0.7071 -8.3168 14.4216)" style="fill:#333333;" width="1" height="2.121"/>
<rect x="14.75" y="14.189" transform="matrix(0.7071 -0.7071 0.7071 0.7071 -6.3168 15.25)" style="fill:#333333;" width="1" height="2.121"/>
</svg>






