<?xml version="1.0" encoding="iso-8859-1"?>
<svg version="1.1" id="&#x56FE;&#x5C42;_1" xmlns="http://www.w3.org/2000/svg" xmlns:xlink="http://www.w3.org/1999/xlink" x="0px"
	 y="0px" viewBox="0 0 24 24" style="enable-background:new 0 0 24 24;" xml:space="preserve">
<path style="fill:#333333;" d="M12,22.576L4.5,18.29V9.71L12,5.424l7.5,4.286v8.58L12,22.576z M5.5,17.71l6.5,3.714l6.5-3.714v-7.42
	L12,6.576L5.5,10.29V17.71z"/>
<rect x="11.5" y="3" style="fill:#333333;" width="1" height="3"/>
<polygon style="fill:#333333;" points="12,14.576 4.752,10.434 5.248,9.566 12,13.424 18.752,9.566 19.248,10.434 "/>
<rect x="20" y="17.073" transform="matrix(0.4472 -0.8944 0.8944 0.4472 -5.4384 28.7005)" style="fill:#333333;" width="1" height="3.354"/>
<rect x="1.823" y="18.25" transform="matrix(0.8944 -0.4472 0.4472 0.8944 -8.0157 3.5447)" style="fill:#333333;" width="3.354" height="1"/>
<rect x="11.5" y="14" style="fill:#333333;" width="1" height="8"/>
<path style="fill:#333333;" d="M12,22.576l-3.748-2.142l0.496-0.869L12,21.424l3.252-1.858l0.496,0.869L12,22.576z M19.5,14h-1
	v-3.71l-3.248-1.856l0.496-0.868L19.5,9.71V14z M5.5,14h-1V9.71l3.752-2.144l0.496,0.868L5.5,10.29V14z"/>
</svg>






