<?xml version="1.0" encoding="iso-8859-1"?>
<svg version="1.1" id="&#x56FE;&#x5C42;_1" xmlns="http://www.w3.org/2000/svg" xmlns:xlink="http://www.w3.org/1999/xlink" x="0px"
	 y="0px" viewBox="0 0 24 24" style="enable-background:new 0 0 24 24;" xml:space="preserve">
<path style="fill:#333333;" d="M20.094,18h-2.336v-1h2.336c0.5,0,0.906-0.406,0.906-0.906V3.906C21,3.407,20.594,3,20.094,3H7.906
	C7.407,3,7,3.407,7,3.906v2.31H6v-2.31C6,2.855,6.855,2,7.906,2h12.188C21.145,2,22,2.855,22,3.906v12.188
	C22,17.145,21.145,18,20.094,18z"/>
<path style="fill:#333333;" d="M16.094,22H3.906C2.855,22,2,21.145,2,20.094V7.906C2,6.855,2.855,6,3.906,6h12.188
	C17.145,6,18,6.855,18,7.906v12.188C18,21.145,17.145,22,16.094,22z M3.906,7C3.407,7,3,7.407,3,7.906v12.188
	C3,20.594,3.407,21,3.906,21h12.188c0.5,0,0.906-0.406,0.906-0.906V7.906C17,7.407,16.594,7,16.094,7H3.906z"/>
</svg>






