<?xml version="1.0" encoding="iso-8859-1"?>
<svg version="1.1" id="&#x56FE;&#x5C42;_1" xmlns="http://www.w3.org/2000/svg" xmlns:xlink="http://www.w3.org/1999/xlink" x="0px"
	 y="0px" viewBox="0 0 24 24" style="enable-background:new 0 0 24 24;" xml:space="preserve">
<path style="fill:#333333;" d="M20.5,18.5h-1.491v-1H20.5c0.552,0,1-0.448,1-1v-13c0-0.551-0.448-1-1-1h-13c-0.551,0-1,0.449-1,1
	v1.463h-1V3.5c0-1.103,0.897-2,2-2h13c1.103,0,2,0.897,2,2v13C22.5,17.603,21.603,18.5,20.5,18.5z"/>
<path style="fill:#333333;" d="M17.5,22.5h-14c-1.103,0-2-0.897-2-2v-14c0-1.103,0.897-2,2-2h14c1.103,0,2,0.897,2,2v14
	C19.5,21.603,18.603,22.5,17.5,22.5z M3.5,5.5c-0.551,0-1,0.449-1,1v14c0,0.552,0.449,1,1,1h14c0.552,0,1-0.448,1-1v-14
	c0-0.551-0.448-1-1-1H3.5z"/>
<path style="fill:#333333;" d="M13.974,12.854l-0.727-0.686l0.955-1.012c0.265-0.265,0.402-0.607,0.397-0.975
	c-0.005-0.372-0.155-0.725-0.423-0.993c-0.549-0.549-1.429-0.564-1.957-0.036l-2.639,2.748l-0.722-0.692l2.646-2.755
	c0.927-0.926,2.438-0.912,3.379,0.028c0.453,0.454,0.707,1.052,0.716,1.687c0.009,0.639-0.233,1.238-0.681,1.685L13.974,12.854z"/>
<path style="fill:#333333;" d="M7.322,18.975c-0.619,0-1.247-0.239-1.725-0.718c-0.447-0.446-0.702-1.083-0.698-1.746
	c0.003-0.656,0.258-1.285,0.698-1.726c0.007-0.007,0.53-0.512,0.783-0.765l0.707,0.707c-0.257,0.257-0.789,0.771-0.789,0.771
	c-0.249,0.25-0.397,0.623-0.399,1.019c-0.002,0.397,0.146,0.773,0.405,1.033c0.549,0.549,1.427,0.564,1.957,0.036l2.6-2.361
	l0.672,0.74L8.95,18.31C8.508,18.752,7.918,18.974,7.322,18.975z"/>
<path style="fill:#333333;" d="M8.979,14.519c-0.419-0.419-0.672-0.972-0.712-1.557c-0.045-0.68,0.201-1.341,0.675-1.815
	l0.707,0.707c-0.271,0.271-0.411,0.65-0.384,1.041c0.023,0.343,0.172,0.669,0.42,0.915L8.979,14.519z"/>
<path style="fill:#333333;" d="M11.55,15.948l-0.707-0.707c0.255-0.255,0.393-0.598,0.388-0.965
	c-0.005-0.372-0.155-0.725-0.423-0.992l0.707-0.707c0.453,0.453,0.708,1.052,0.716,1.687C12.239,14.902,11.997,15.501,11.55,15.948z
	"/>
</svg>






