<?xml version="1.0" encoding="iso-8859-1"?>
<svg version="1.1" id="&#x56FE;&#x5C42;_1" xmlns="http://www.w3.org/2000/svg" xmlns:xlink="http://www.w3.org/1999/xlink" x="0px"
	 y="0px" viewBox="0 0 24 24" style="enable-background:new 0 0 24 24;" xml:space="preserve">
<path style="fill:#333333;" d="M12,22.5C6.21,22.5,1.5,17.79,1.5,12C1.5,6.21,6.21,1.5,12,1.5c5.79,0,10.5,4.71,10.5,10.5
	C22.5,17.79,17.79,22.5,12,22.5z M12,2.5c-5.238,0-9.5,4.262-9.5,9.5s4.262,9.5,9.5,9.5s9.5-4.262,9.5-9.5S17.238,2.5,12,2.5z"/>
<path style="fill:none;" d="M12,8.5h-2V12h1.5H12c1.5,0,2-1,2-1.75S13.5,8.5,12,8.5z"/>
<path style="fill:#333333;" d="M13.593,15.791l-2.35-3.291H10.5v3h-1V12H10H9.5V8H12c1.718,0,2.5,1.167,2.5,2.25
	c0,0.984-0.645,2.036-2.049,2.222l1.956,2.737L13.593,15.791z M10.5,11.5h1V12v-0.5H12c1.428,0,1.5-1.042,1.5-1.25S13.428,9,12,9
	h-1.5V11.5z"/>
</svg>






