<?xml version="1.0" encoding="iso-8859-1"?>
<svg version="1.1" id="&#x56FE;&#x5C42;_1" xmlns="http://www.w3.org/2000/svg" xmlns:xlink="http://www.w3.org/1999/xlink" x="0px"
	 y="0px" viewBox="0 0 24 24" style="enable-background:new 0 0 24 24;" xml:space="preserve">
<path style="fill:#333333;" d="M6.225,20.77c-0.565-0.373-1.095-0.801-1.575-1.271c-0.456-0.447-0.874-0.939-1.241-1.461
	l0.817-0.576c0.333,0.473,0.711,0.918,1.124,1.322c0.434,0.426,0.914,0.813,1.425,1.151L6.225,20.77z"/>
<path style="fill:#333333;" d="M12,22.5c-0.681,0-1.364-0.065-2.03-0.195l0.191-0.982c1.206,0.236,2.471,0.236,3.678,0l0.191,0.982
	C13.364,22.435,12.681,22.5,12,22.5z"/>
<path style="fill:#333333;" d="M22.263,14.227l-0.977-0.211C21.428,13.356,21.5,12.678,21.5,12c0-0.667-0.069-1.331-0.205-1.975
	l0.979-0.207C22.424,10.53,22.5,11.264,22.5,12C22.5,12.749,22.42,13.498,22.263,14.227z"/>
<path style="fill:#333333;" d="M19.773,6.538c-0.33-0.47-0.709-0.915-1.124-1.322c-0.437-0.429-0.916-0.816-1.425-1.151l0.551-0.835
	c0.562,0.371,1.091,0.798,1.574,1.272c0.459,0.45,0.876,0.941,1.242,1.461L19.773,6.538z"/>
<path style="fill:#333333;" d="M13.827,2.675c-1.194-0.232-2.458-0.233-3.654,0L9.982,1.694c1.321-0.257,2.714-0.257,4.037,0
	L13.827,2.675z"/>
<path style="fill:#333333;" d="M4.226,6.538L3.409,5.962C3.775,5.441,4.193,4.95,4.65,4.501c0.482-0.473,1.012-0.9,1.575-1.272
	l0.551,0.835C6.266,4.4,5.787,4.788,5.35,5.215C4.936,5.621,4.558,6.066,4.226,6.538z"/>
<path style="fill:#333333;" d="M17.843,20.667l-0.551-0.834c0.509-0.336,0.988-0.724,1.425-1.152
	c0.414-0.405,0.792-0.85,1.124-1.321l0.818,0.574c-0.367,0.522-0.785,1.014-1.242,1.462C18.935,19.868,18.405,20.297,17.843,20.667z
	"/>
<rect x="2" y="11.5" style="fill:#333333;" width="6" height="1"/>
<rect x="4.136" y="16.414" transform="matrix(0.7071 -0.7071 0.7071 0.7071 -9.8847 9.9644)" style="fill:#333333;" width="5.9" height="1"/>
<rect x="11.5" y="16" style="fill:#333333;" width="1" height="6"/>
<rect x="16.414" y="13.964" transform="matrix(0.7071 -0.7071 0.7071 0.7071 -7.006 16.9141)" style="fill:#333333;" width="1" height="5.9"/>
<rect x="16" y="11.5" style="fill:#333333;" width="6" height="1"/>
<rect x="13.964" y="6.586" transform="matrix(0.7071 -0.7071 0.7071 0.7071 -0.0563 14.0354)" style="fill:#333333;" width="5.9" height="1"/>
<rect x="11.5" y="2" style="fill:#333333;" width="1" height="6"/>
<rect x="6.586" y="4.136" transform="matrix(0.7071 -0.7071 0.7071 0.7071 -2.935 7.0857)" style="fill:#333333;" width="1" height="5.899"/>
<path style="fill:#333333;" d="M1.727,14.183C1.576,13.469,1.5,12.734,1.5,12s0.076-1.468,0.227-2.182l0.979,0.207
	C2.569,10.67,2.5,11.335,2.5,12s0.069,1.33,0.206,1.976L1.727,14.183z"/>
<path style="fill:#333333;" d="M12,16.5c-2.481,0-4.5-2.019-4.5-4.5S9.519,7.5,12,7.5s4.5,2.019,4.5,4.5S14.481,16.5,12,16.5z
	 M12,8.5c-1.93,0-3.5,1.57-3.5,3.5s1.57,3.5,3.5,3.5s3.5-1.57,3.5-3.5S13.93,8.5,12,8.5z"/>
</svg>






