<?xml version="1.0" encoding="iso-8859-1"?>
<svg version="1.1" id="&#x56FE;&#x5C42;_1" xmlns="http://www.w3.org/2000/svg" xmlns:xlink="http://www.w3.org/1999/xlink" x="0px"
	 y="0px" viewBox="0 0 24 24" style="enable-background:new 0 0 24 24;" xml:space="preserve">
<g>
	<defs>
		<rect id="SVGID_1_" width="24" height="24"/>
	</defs>
	<clipPath id="SVGID_00000163758075384125103180000018271850163798597000_">
		<use xlink:href="#SVGID_1_"  style="overflow:visible;"/>
	</clipPath>
	<g style="clip-path:url(#SVGID_00000163758075384125103180000018271850163798597000_);">
		<path style="fill:#333333;" d="M11.609,17.182L7.318,12.89L19.034,2.638c0.543-0.544,1.764-1.016,2.804,0.023
			c1.037,1.038,0.568,2.26,0,2.829L11.609,17.182z M8.781,12.938l2.78,2.78l9.548-10.912c0.184-0.191,0.668-0.793,0.022-1.439
			c-0.676-0.674-1.297-0.118-1.414,0L8.781,12.938z"/>
		
			<rect x="12.146" y="9.854" transform="matrix(0.707 -0.7072 0.7072 0.707 -4.6777 12.4156)" style="fill:#333333;" width="1" height="4"/>
		<path style="fill:#333333;" d="M8.683,22.275c-0.89,0-2.81-0.225-4.522-1.937c-2.272-2.271-1.925-4.91-1.91-5.021L2.29,15.05
			l5.866-2.737l4.031,4.032L9.45,22.21l-0.268,0.038C9.154,22.252,8.974,22.275,8.683,22.275z M3.224,15.718
			c-0.018,0.646,0.099,2.368,1.645,3.914s3.277,1.662,3.914,1.644l2.203-4.72l-3.041-3.04L3.224,15.718z"/>
		
			<rect x="3.345" y="17.187" transform="matrix(0.9194 -0.3933 0.3933 0.9194 -6.5789 3.2709)" style="fill:#333333;" width="2.692" height="1.001"/>
		
			<rect x="5.846" y="19.839" transform="matrix(0.4472 -0.8944 0.8944 0.4472 -14.5232 17.1787)" style="fill:#333333;" width="1.581" height="1"/>
		
			<rect x="8.999" y="9.939" transform="matrix(0.7527 -0.6584 0.6584 0.7527 -4.1825 9.7444)" style="fill:#333333;" width="3.758" height="1"/>
		
			<rect x="12.182" y="13.121" transform="matrix(0.6586 -0.7525 0.7525 0.6586 -5.4496 15.2296)" style="fill:#333333;" width="3.758" height="0.999"/>
	</g>
</g>
</svg>






