<?xml version="1.0" encoding="iso-8859-1"?>
<svg version="1.1" id="&#x56FE;&#x5C42;_1" xmlns="http://www.w3.org/2000/svg" xmlns:xlink="http://www.w3.org/1999/xlink" x="0px"
	 y="0px" viewBox="0 0 24 24" style="enable-background:new 0 0 24 24;" xml:space="preserve">
<path style="fill:#333333;" d="M22.5,20.5h-21v-6.009l0.332-0.118c0.889-0.317,1.486-1.171,1.486-2.123
	c0-0.953-0.597-1.806-1.486-2.122L1.5,10.009V4h21v6.009l-0.332,0.119c-0.889,0.316-1.486,1.169-1.486,2.122
	c0,0.952,0.598,1.806,1.486,2.123l0.332,0.118V20.5z M2.5,19.5h19v-4.325c-1.101-0.538-1.818-1.673-1.818-2.925
	c0-1.252,0.718-2.386,1.818-2.924V5h-19v4.326c1.101,0.538,1.818,1.672,1.818,2.924c0,1.252-0.718,2.386-1.818,2.925V19.5z"/>
<polygon style="fill:#333333;" points="12,11.207 9.146,8.354 9.854,7.646 12,9.793 14.146,7.646 14.854,8.354 "/>
<rect x="9" y="10.5" style="fill:#333333;" width="6" height="1"/>
<rect x="9" y="13.583" style="fill:#333333;" width="6" height="1"/>
<rect x="11.5" y="11" style="fill:#333333;" width="1" height="6"/>
</svg>






