<?xml version="1.0" encoding="iso-8859-1"?>
<svg version="1.1" id="&#x56FE;&#x5C42;_1" xmlns="http://www.w3.org/2000/svg" xmlns:xlink="http://www.w3.org/1999/xlink" x="0px"
	 y="0px" viewBox="0 0 24 24" style="enable-background:new 0 0 24 24;" xml:space="preserve">
<path style="fill:#333333;" d="M22.5,18.5h-21v-13h21V18.5z M12.5,17.5h9v-11h-9V10h-1V6.5h-9v11h9V14h1V17.5z"/>
<path style="fill:#333333;" d="M12,14.5c-1.378,0-2.5-1.121-2.5-2.5c0-1.378,1.122-2.5,2.5-2.5c1.379,0,2.5,1.122,2.5,2.5
	C14.5,13.379,13.379,14.5,12,14.5z M12,10.5c-0.827,0-1.5,0.673-1.5,1.5s0.673,1.5,1.5,1.5s1.5-0.673,1.5-1.5S12.827,10.5,12,10.5z"
	/>
<path style="fill:#333333;" d="M3.5,14.5h-2v-5h2C4.878,9.5,6,10.622,6,12C6,13.379,4.878,14.5,3.5,14.5z M2.5,13.5h1
	C4.327,13.5,5,12.827,5,12s-0.673-1.5-1.5-1.5h-1V13.5z"/>
<path style="fill:#333333;" d="M22.5,14.5h-2c-1.379,0-2.5-1.121-2.5-2.5c0-1.378,1.121-2.5,2.5-2.5h2V14.5z M20.5,10.5
	c-0.827,0-1.5,0.673-1.5,1.5s0.673,1.5,1.5,1.5h1v-3H20.5z"/>
</svg>






