<?xml version="1.0" encoding="iso-8859-1"?>
<svg version="1.1" id="&#x56FE;&#x5C42;_1" xmlns="http://www.w3.org/2000/svg" xmlns:xlink="http://www.w3.org/1999/xlink" x="0px"
	 y="0px" viewBox="0 0 24 24" style="enable-background:new 0 0 24 24;" xml:space="preserve">
<path style="fill:#333333;" d="M19,20.5H5c-0.827,0-1.5-0.673-1.5-1.5V5c0-0.827,0.673-1.5,1.5-1.5h14c0.827,0,1.5,0.673,1.5,1.5v14
	C20.5,19.827,19.827,20.5,19,20.5z M5,4.5C4.724,4.5,4.5,4.724,4.5,5v14c0,0.275,0.224,0.5,0.5,0.5h14c0.275,0,0.5-0.225,0.5-0.5V5
	c0-0.276-0.225-0.5-0.5-0.5H5z"/>
<path style="fill:#333333;" d="M15.5,15.5h-7v-7h7V15.5z M9.5,14.5h5v-5h-5V14.5z"/>
<path style="fill:none;" d="M7.455,1v3V1z"/>
<rect x="6.955" y="1" style="fill:#333333;" width="1" height="3"/>
<path style="fill:none;" d="M7.455,20v3V20z"/>
<rect x="6.955" y="20" style="fill:#333333;" width="1" height="3"/>
<path style="fill:none;" d="M12,1v3V1z"/>
<rect x="11.5" y="1" style="fill:#333333;" width="1" height="3"/>
<path style="fill:none;" d="M12,20v3V20z"/>
<rect x="11.5" y="20" style="fill:#333333;" width="1" height="3"/>
<path style="fill:none;" d="M16.545,1v3V1z"/>
<rect x="16.045" y="1" style="fill:#333333;" width="1" height="3"/>
<path style="fill:none;" d="M16.545,20v3V20z"/>
<rect x="16.045" y="20" style="fill:#333333;" width="1" height="3"/>
<path style="fill:none;" d="M1,7.455h3H1z"/>
<rect x="1" y="6.955" style="fill:#333333;" width="3" height="1"/>
<path style="fill:none;" d="M20,7.455h3H20z"/>
<rect x="20" y="6.955" style="fill:#333333;" width="3" height="1"/>
<path style="fill:none;" d="M1,12h3H1z"/>
<rect x="1" y="11.5" style="fill:#333333;" width="3" height="1"/>
<path style="fill:none;" d="M20,12h3H20z"/>
<rect x="20" y="11.5" style="fill:#333333;" width="3" height="1"/>
<path style="fill:none;" d="M1,16.545h3H1z"/>
<rect x="1" y="16.045" style="fill:#333333;" width="3" height="1"/>
<path style="fill:none;" d="M20,16.545h3H20z"/>
<rect x="20" y="16.045" style="fill:#333333;" width="3" height="1"/>
</svg>






