<?xml version="1.0" encoding="iso-8859-1"?>
<svg version="1.1" id="&#x56FE;&#x5C42;_1" xmlns="http://www.w3.org/2000/svg" xmlns:xlink="http://www.w3.org/1999/xlink" x="0px"
	 y="0px" viewBox="0 0 24 24" style="enable-background:new 0 0 24 24;" xml:space="preserve">
<path style="fill:#333333;" d="M2.5,9H2V8.5c0-2.91,0.69-4.869,2.051-5.822C5.191,1.88,6.745,1.83,8.671,2.53l0.25,0.091
	l0.064,0.258C9.28,4.057,8.9,5.547,8.019,6.677C7.191,7.736,5.562,9,2.5,9z M6.226,3.04c-0.631,0-1.167,0.152-1.602,0.457
	C3.635,4.19,3.08,5.737,3.008,7.987c2.33-0.125,3.578-1.099,4.223-1.926C7.981,5.1,8.15,4.07,8.062,3.377
	C7.382,3.152,6.769,3.04,6.226,3.04z"/>
<path style="fill:#333333;" d="M22,9h-0.5c-3.062,0-4.69-1.263-5.519-2.323c-0.882-1.129-1.261-2.62-0.967-3.798l0.064-0.258
	l0.25-0.091c1.926-0.7,3.48-0.65,4.62,0.147C21.31,3.631,22,5.59,22,8.5V9z M15.938,3.377C15.851,4.07,16.02,5.1,16.77,6.062
	c0.646,0.826,1.894,1.801,4.223,1.925c-0.072-2.25-0.628-3.797-1.616-4.49C18.566,2.93,17.411,2.891,15.938,3.377z"/>
<path style="fill:#333333;" d="M15,21.5H9c-3.033,0-5.5-2.468-5.5-5.5s2.467-5.5,5.5-5.5h6c3.032,0,5.5,2.468,5.5,5.5
	S18.032,21.5,15,21.5z M9,11.5c-2.481,0-4.5,2.019-4.5,4.5s2.019,4.5,4.5,4.5h6c2.481,0,4.5-2.019,4.5-4.5s-2.019-4.5-4.5-4.5H9z"/>
<rect x="13" y="9" style="fill:#333333;" width="1" height="2"/>
<rect x="10" y="9" style="fill:#333333;" width="1" height="2"/>
<path style="fill:#333333;" d="M20.3,14.9L19.7,14.1c1.897-1.423,1.713-4.281,1.325-5.441l0.949-0.316
	C22.562,10.103,22.43,13.303,20.3,14.9z"/>
<path style="fill:#333333;" d="M3.6,14.8c-1.52-2.025-2.167-4.681-1.574-6.458l0.948,0.316C2.557,9.911,2.913,12.217,4.4,14.2
	L3.6,14.8z"/>
<polygon style="fill:#333333;" points="22.77,21.5 15,21.5 15,20.5 21.23,20.5 19.543,16.703 20.457,16.297 "/>
<polygon style="fill:#333333;" points="9,21.5 1.23,21.5 3.543,16.297 4.457,16.703 2.77,20.5 9,20.5 "/>
</svg>






