<?xml version="1.0" encoding="iso-8859-1"?>
<svg version="1.1" id="&#x56FE;&#x5C42;_1" xmlns="http://www.w3.org/2000/svg" xmlns:xlink="http://www.w3.org/1999/xlink" x="0px"
	 y="0px" viewBox="0 0 24 24" style="enable-background:new 0 0 24 24;" xml:space="preserve">
<path style="fill:#333333;" d="M19.5,21.5h-15c-1.103,0-2-0.897-2-2v-15c0-1.103,0.897-2,2-2h15c1.103,0,2,0.897,2,2v15
	C21.5,20.603,20.603,21.5,19.5,21.5z M4.5,3.5c-0.551,0-1,0.449-1,1v15c0,0.552,0.449,1,1,1h15c0.552,0,1-0.448,1-1v-15
	c0-0.551-0.448-1-1-1H4.5z"/>
<path style="fill:#333333;" d="M14.688,18.6L12,17.166L9.312,18.6l-0.728-0.528l0.524-2.979l-2.194-2.145l0.278-0.853l3.027-0.438
	l1.332-2.718l0.897-0.002l1.351,2.721l3.012,0.438l0.277,0.853l-2.19,2.145l0.52,2.98L14.688,18.6z M12,16.033l2.255,1.202
	l-0.435-2.489l1.846-1.807l-2.53-0.369l-1.133-2.282l-1.118,2.282l-2.549,0.369l1.848,1.807l-0.438,2.488L12,16.033z"/>
<rect x="9.158" y="5.816" style="fill:#333333;" width="5.684" height="1"/>
</svg>






