<?xml version="1.0" encoding="iso-8859-1"?>
<svg version="1.1" id="&#x56FE;&#x5C42;_1" xmlns="http://www.w3.org/2000/svg" xmlns:xlink="http://www.w3.org/1999/xlink" x="0px"
	 y="0px" viewBox="0 0 24 24" style="enable-background:new 0 0 24 24;" xml:space="preserve">
<polygon style="fill:#333333;" points="19.5,7.5 18.5,7.5 18.5,4 5.5,4 5.5,7.5 4.5,7.5 4.5,3 19.5,3 "/>
<polygon style="fill:#333333;" points="21.5,21 2,21 2,7 22,7 22,13.5 21,13.5 21,8 3,8 3,20 21.5,20 "/>
<polygon style="fill:#333333;" points="21.5,17.5 12,17.5 11.593,16.709 14.093,13.209 14.907,13.791 12.972,16.5 21.5,16.5 "/>
<rect x="11" y="10" style="fill:#333333;" width="2" height="1"/>
<rect x="6" y="10" style="fill:#333333;" width="2" height="1"/>
</svg>






