<?xml version="1.0" encoding="iso-8859-1"?>
<svg version="1.1" id="&#x56FE;&#x5C42;_1" xmlns="http://www.w3.org/2000/svg" xmlns:xlink="http://www.w3.org/1999/xlink" x="0px"
	 y="0px" viewBox="0 0 24 24" style="enable-background:new 0 0 24 24;" xml:space="preserve">
<g>
	<defs>
		<rect id="SVGID_1_" width="24" height="24"/>
	</defs>
	<clipPath id="SVGID_00000061470842432544764660000008142138589628085380_">
		<use xlink:href="#SVGID_1_"  style="overflow:visible;"/>
	</clipPath>
	<g style="clip-path:url(#SVGID_00000061470842432544764660000008142138589628085380_);">
		<path style="fill:#333333;" d="M6.311,21.762c-0.253,0-0.5-0.07-0.729-0.207c-0.771-0.462-1.352-1.343-1.829-2.772
			C2.986,16.479,2.999,14.574,3,14.494l1,0.012c0,0.018-0.009,1.824,0.702,3.96c0.392,1.174,0.848,1.903,1.395,2.231
			c0.106,0.064,0.207,0.081,0.325,0.049c0.344-0.089,0.794-0.551,1.174-1.207c0.411-0.707,1.019-1.506,1.808-2.375l0.74,0.672
			c-0.73,0.806-1.312,1.568-1.683,2.205c-0.309,0.532-0.952,1.457-1.789,1.674C6.551,21.746,6.431,21.762,6.311,21.762z"/>
		<path style="fill:#333333;" d="M18.792,9.864l-0.686-0.729c0.783-0.737,1.501-1.289,2.133-1.641
			c0.642-0.357,0.92-0.658,0.825-0.894c-0.222-0.554-0.822-1.145-1.46-1.437c-0.233-0.107-0.956-0.342-3.188-0.715l0.166-0.986
			c1.813,0.304,2.938,0.563,3.438,0.792c0.878,0.403,1.652,1.178,1.971,1.974c0.312,0.778-0.114,1.498-1.267,2.14
			C20.166,8.681,19.516,9.184,18.792,9.864z"/>
		<path style="fill:#333333;" d="M8.963,17.792c-0.257,0-0.518-0.051-0.769-0.156l-3.987-1.685c-0.99-0.42-1.463-1.534-1.077-2.537
			l0.226-0.584c0.477-1.237,1.362-2.299,2.493-2.99l0.521,0.854c-0.944,0.577-1.684,1.464-2.082,2.496l-0.226,0.584
			c-0.191,0.497,0.043,1.049,0.534,1.257l3.987,1.684c0.495,0.21,1.076-0.022,1.289-0.52c0.147-0.342,0.386-0.636,0.692-0.848
			l1.25-0.869l0.57,0.82l-1.25,0.869c-0.152,0.106-0.271,0.252-0.344,0.422C10.47,17.34,9.734,17.792,8.963,17.792z"/>
		<path style="fill:#333333;" d="M15.728,12.593l-0.734-0.678l1.15-1.246c0.208-0.224,0.454-0.398,0.732-0.517
			c0.559-0.239,0.836-0.875,0.633-1.446L16.083,4.7c-0.152-0.429-0.604-0.673-1.048-0.574l-0.609,0.139
			c-1.208,0.276-2.258,0.992-2.956,2.017l-0.826-0.563c0.841-1.233,2.105-2.096,3.56-2.428l0.609-0.139
			c0.941-0.216,1.889,0.308,2.212,1.213l1.426,4.006c0.381,1.067-0.138,2.253-1.18,2.7c-0.149,0.064-0.282,0.158-0.394,0.278
			L15.728,12.593z"/>
		<path style="fill:#333333;" d="M11.888,15.283c-0.504,0-1.012-0.151-1.449-0.463l-4.023-2.875
			c-1.03-0.736-1.312-2.155-0.643-3.231c0.812-1.306,1.932-2.422,3.238-3.229c1.065-0.655,2.432-0.397,3.181,0.602l2.967,3.955
			c0.41,0.548,0.576,1.222,0.468,1.898c-0.109,0.675-0.479,1.262-1.039,1.653l-0.12,0.084c-0.112,0.078-0.214,0.172-0.304,0.279
			l-0.34,0.415C13.333,14.97,12.614,15.283,11.888,15.283z M10.274,6.126c-0.252,0-0.507,0.069-0.738,0.211
			C8.361,7.063,7.353,8.068,6.621,9.243c-0.392,0.629-0.227,1.459,0.375,1.889l4.023,2.874c0.642,0.458,1.533,0.341,2.03-0.269
			l0.342-0.416c0.148-0.18,0.317-0.335,0.504-0.464l0.119-0.084c0.337-0.234,0.559-0.587,0.624-0.992
			c0.065-0.406-0.034-0.811-0.281-1.139l-2.966-3.955C11.117,6.322,10.7,6.126,10.274,6.126z"/>
	</g>
</g>
</svg>






