<?xml version="1.0" encoding="iso-8859-1"?>
<svg version="1.1" id="&#x56FE;&#x5C42;_1" xmlns="http://www.w3.org/2000/svg" xmlns:xlink="http://www.w3.org/1999/xlink" x="0px"
	 y="0px" viewBox="0 0 24 24" style="enable-background:new 0 0 24 24;" xml:space="preserve">
<path style="fill:#333333;" d="M12,6.5c-1.378,0-2.5-1.122-2.5-2.5s1.122-2.5,2.5-2.5c1.379,0,2.5,1.122,2.5,2.5S13.379,6.5,12,6.5z
	 M12,2.5c-0.827,0-1.5,0.673-1.5,1.5s0.673,1.5,1.5,1.5s1.5-0.673,1.5-1.5S12.827,2.5,12,2.5z"/>
<path style="fill:#333333;" d="M12,22.5c-1.378,0-2.5-1.121-2.5-2.5s1.122-2.5,2.5-2.5c1.379,0,2.5,1.121,2.5,2.5
	S13.379,22.5,12,22.5z M12,18.5c-0.827,0-1.5,0.673-1.5,1.5s0.673,1.5,1.5,1.5s1.5-0.673,1.5-1.5S12.827,18.5,12,18.5z"/>
<path style="fill:#333333;" d="M4,14.5c-1.378,0-2.5-1.121-2.5-2.5c0-1.378,1.122-2.5,2.5-2.5s2.5,1.122,2.5,2.5
	C6.5,13.379,5.378,14.5,4,14.5z M4,10.5c-0.827,0-1.5,0.673-1.5,1.5s0.673,1.5,1.5,1.5s1.5-0.673,1.5-1.5S4.827,10.5,4,10.5z"/>
<path style="fill:#333333;" d="M20,14.5c-1.379,0-2.5-1.121-2.5-2.5c0-1.378,1.121-2.5,2.5-2.5s2.5,1.122,2.5,2.5
	C22.5,13.379,21.379,14.5,20,14.5z M20,10.5c-0.827,0-1.5,0.673-1.5,1.5s0.673,1.5,1.5,1.5s1.5-0.673,1.5-1.5S20.827,10.5,20,10.5z"
	/>
<rect x="6" y="11.5" style="fill:#333333;" width="12" height="1"/>
<rect x="11.5" y="6" style="fill:#333333;" width="1" height="12"/>
<path style="fill:#333333;" d="M16.723,19.068l-0.632-0.77l2.208-2.208l0.77,0.632c-0.309,0.46-0.664,0.894-1.057,1.288
	C17.616,18.404,17.183,18.76,16.723,19.068z M7.277,19.067c-0.461-0.309-0.894-0.664-1.287-1.057
	c-0.392-0.392-0.748-0.825-1.058-1.288l0.769-0.632l2.208,2.208L7.277,19.067z M5.701,7.909L4.932,7.277
	C5.243,6.813,5.599,6.38,5.99,5.989C6.38,5.599,6.813,5.243,7.277,4.932l0.632,0.769L5.701,7.909z M18.237,7.833
	c-0.273-0.407-0.587-0.79-0.934-1.137c-0.346-0.346-0.729-0.66-1.138-0.934l0.557-0.831c0.463,0.311,0.896,0.666,1.288,1.058
	c0.393,0.393,0.748,0.826,1.057,1.287L18.237,7.833z"/>
</svg>






