<?xml version="1.0" encoding="iso-8859-1"?>
<svg version="1.1" id="&#x56FE;&#x5C42;_1" xmlns="http://www.w3.org/2000/svg" xmlns:xlink="http://www.w3.org/1999/xlink" x="0px"
	 y="0px" viewBox="0 0 24 24" style="enable-background:new 0 0 24 24;" xml:space="preserve">
<path style="fill:#333333;" d="M17.909,15.5c-2.879,0-4.384-1.843-6.126-3.976l-0.341-0.417C9.731,9.013,8.495,7.5,6.091,7.5
	C4.6,7.5,2.5,8.586,2.5,11s2.1,3.5,3.591,3.5c1.615,0,2.39-0.758,3.287-1.635l0.699,0.715c-0.92,0.9-1.963,1.92-3.986,1.92
	C3.834,15.5,1.5,13.816,1.5,11c0-2.817,2.334-4.5,4.591-4.5c2.878,0,4.383,1.842,6.125,3.974l0.342,0.417
	c1.711,2.095,2.947,3.608,5.352,3.608c1.491,0,3.591-1.086,3.591-3.5s-2.1-3.5-3.591-3.5c-1.612,0-2.872,1.229-3.285,1.634
	L13.923,8.42c0.488-0.476,1.967-1.92,3.986-1.92c2.257,0,4.591,1.683,4.591,4.5C22.5,13.816,20.166,15.5,17.909,15.5z"/>
</svg>






