<?xml version="1.0" encoding="iso-8859-1"?>
<svg version="1.1" id="&#x56FE;&#x5C42;_1" xmlns="http://www.w3.org/2000/svg" xmlns:xlink="http://www.w3.org/1999/xlink" x="0px"
	 y="0px" viewBox="0 0 24 24" style="enable-background:new 0 0 24 24;" xml:space="preserve">
<path style="fill:#333333;" d="M19.903,20.5H4.097L1.511,8.606l0.712-0.554l4.618,2.309L12,3.14l5.158,7.222l4.618-2.309
	l0.712,0.554L19.903,20.5z M4.903,19.5h14.194L21.29,9.414l-4.448,2.224L12,4.86l-4.841,6.778L2.71,9.414L4.903,19.5z"/>
<path style="fill:#333333;" d="M12,17c-1.378,0-2.5-1.121-2.5-2.5S10.622,12,12,12c1.379,0,2.5,1.121,2.5,2.5S13.379,17,12,17z
	 M12,13c-0.827,0-1.5,0.673-1.5,1.5S11.173,16,12,16s1.5-0.673,1.5-1.5S12.827,13,12,13z"/>
</svg>






