<?xml version="1.0" encoding="iso-8859-1"?>
<svg version="1.1" id="&#x56FE;&#x5C42;_1" xmlns="http://www.w3.org/2000/svg" xmlns:xlink="http://www.w3.org/1999/xlink" x="0px"
	 y="0px" viewBox="0 0 24 24" style="enable-background:new 0 0 24 24;" xml:space="preserve">
<path style="fill:#333333;" d="M17.877,21.5H6.123L3.019,10.637l0.705-0.584l4.553,2.276l3.276-6.553h0.895l3.276,6.553l4.553-2.276
	l0.704,0.584L17.877,21.5z M6.877,20.5h10.246l2.584-9.044l-4.431,2.215L12,7.118l-3.276,6.553l-4.431-2.215L6.877,20.5z"/>
<path style="fill:#333333;" d="M3.5,11c-1.103,0-2-0.897-2-2s0.897-2,2-2s2,0.897,2,2S4.603,11,3.5,11z M3.5,8c-0.551,0-1,0.449-1,1
	s0.449,1,1,1s1-0.449,1-1S4.051,8,3.5,8z"/>
<path style="fill:#333333;" d="M12,6.5c-1.103,0-2-0.897-2-2s0.897-2,2-2c1.103,0,2,0.897,2,2S13.103,6.5,12,6.5z M12,3.5
	c-0.551,0-1,0.449-1,1s0.449,1,1,1c0.552,0,1-0.449,1-1S12.552,3.5,12,3.5z"/>
<path style="fill:#333333;" d="M20.5,11c-1.103,0-2-0.897-2-2s0.897-2,2-2s2,0.897,2,2S21.603,11,20.5,11z M20.5,8
	c-0.552,0-1,0.449-1,1s0.448,1,1,1s1-0.449,1-1S21.052,8,20.5,8z"/>
</svg>






