<?xml version="1.0" encoding="iso-8859-1"?>
<svg version="1.1" id="&#x56FE;&#x5C42;_1" xmlns="http://www.w3.org/2000/svg" xmlns:xlink="http://www.w3.org/1999/xlink" x="0px"
	 y="0px" viewBox="0 0 24 24" style="enable-background:new 0 0 24 24;" xml:space="preserve">
<path style="fill:#333333;" d="M19.47,21.171l-0.939-0.342l1.695-4.662c0.087-0.239-0.019-0.505-0.246-0.618l-7.756-3.878
	c-0.141-0.071-0.308-0.071-0.448,0l-7.755,3.878c-0.228,0.113-0.333,0.379-0.247,0.618l1.695,4.662L4.53,21.171l-1.695-4.662
	c-0.261-0.717,0.057-1.515,0.739-1.854l7.755-3.878c0.421-0.211,0.922-0.21,1.342,0l7.756,3.878c0.682,0.34,0.999,1.138,0.738,1.854
	L19.47,21.171z"/>
<path style="fill:#333333;" d="M19,14.781l-6.791-3.134c-0.133-0.062-0.286-0.062-0.418,0L5,14.781V8c0-0.827,0.673-1.5,1.5-1.5h11
	C18.327,6.5,19,7.173,19,8V14.781z M12,10.601c0.215,0,0.429,0.046,0.629,0.138L18,13.219V8c0-0.276-0.225-0.5-0.5-0.5h-11
	C6.224,7.5,6,7.724,6,8v5.219l5.372-2.479C11.571,10.647,11.786,10.601,12,10.601z"/>
<path style="fill:#333333;" d="M15,7h-1V3c0-0.276-0.225-0.5-0.5-0.5h-3C10.224,2.5,10,2.724,10,3v4H9V3c0-0.827,0.673-1.5,1.5-1.5
	h3C14.327,1.5,15,2.173,15,3V7z"/>
<rect x="11.5" y="16" style="fill:#333333;" width="1" height="4"/>
<path style="fill:#333333;" d="M22,22.5c-1.206,0-1.802-0.344-2.281-0.621c-0.381-0.22-0.656-0.379-1.219-0.379
	c-0.599,0-0.874,0.184-1.223,0.416c-0.391,0.26-0.876,0.584-1.777,0.584c-0.847,0-1.373-0.281-1.838-0.53
	C13.19,21.718,12.783,21.5,12,21.5s-1.19,0.218-1.662,0.47C9.873,22.219,9.346,22.5,8.5,22.5c-0.901,0-1.387-0.324-1.777-0.584
	C6.374,21.684,6.099,21.5,5.5,21.5c-0.562,0-0.838,0.159-1.219,0.379C3.802,22.156,3.206,22.5,2,22.5v-1
	c0.938,0,1.347-0.236,1.781-0.486C4.198,20.772,4.67,20.5,5.5,20.5c0.901,0,1.387,0.324,1.777,0.584
	C7.626,21.316,7.901,21.5,8.5,21.5c0.596,0,0.936-0.182,1.366-0.412c0.516-0.275,1.1-0.588,2.134-0.588s1.618,0.312,2.134,0.588
	c0.431,0.23,0.771,0.412,1.366,0.412c0.599,0,0.874-0.184,1.223-0.416c0.391-0.26,0.876-0.584,1.777-0.584
	c0.83,0,1.303,0.272,1.719,0.514C20.652,21.264,21.062,21.5,22,21.5V22.5z"/>
</svg>






