<?xml version="1.0" encoding="iso-8859-1"?>
<svg version="1.1" id="&#x56FE;&#x5C42;_1" xmlns="http://www.w3.org/2000/svg" xmlns:xlink="http://www.w3.org/1999/xlink" x="0px"
	 y="0px" viewBox="0 0 24 24" style="enable-background:new 0 0 24 24;" xml:space="preserve">
<path style="fill:#333333;" d="M12,22.5c-5.238,0-9.5-4.262-9.5-9.5S6.762,3.5,12,3.5s9.5,4.262,9.5,9.5S17.238,22.5,12,22.5z
	 M12,4.5c-4.687,0-8.5,3.813-8.5,8.5c0,4.687,3.813,8.5,8.5,8.5c4.687,0,8.5-3.813,8.5-8.5C20.5,8.313,16.687,4.5,12,4.5z"/>
<path style="fill:#333333;" d="M11.515,4.121C11.435,3.8,10.734,2.5,9,2.5v-1c2.184,0,3.291,1.603,3.485,2.379L11.515,4.121z"/>
<path style="fill:#333333;" d="M12.498,4.042l-0.996-0.084c0.055-0.655,0.38-1.895,1.25-2.392l0.496,0.868
	C12.777,2.703,12.538,3.563,12.498,4.042z"/>
<path style="fill:#333333;" d="M15.054,17.726C15.018,17.655,14.145,16,12,16c-2.145,0-3.018,1.655-3.054,1.726l-0.894-0.449
	C8.099,17.184,9.223,15,12,15c2.777,0,3.9,2.184,3.947,2.276L15.054,17.726z"/>
<rect x="15" y="8.229" transform="matrix(0.1644 -0.9864 0.9864 0.1644 3.3345 23.4362)" style="fill:#333333;" width="1" height="3.041"/>
<rect x="6.979" y="9.25" transform="matrix(0.9864 -0.1641 0.1641 0.9864 -1.4846 1.5268)" style="fill:#333333;" width="3.041" height="1"/>
<rect x="7" y="10" style="fill:#333333;" width="1" height="2.5"/>
<rect x="16" y="10" style="fill:#333333;" width="1" height="2.5"/>
<rect x="1.5" y="12" style="fill:#333333;" width="1" height="2"/>
<rect x="21.5" y="12" style="fill:#333333;" width="1" height="2"/>
</svg>






