<?xml version="1.0" encoding="iso-8859-1"?>
<svg version="1.1" id="&#x56FE;&#x5C42;_1" xmlns="http://www.w3.org/2000/svg" xmlns:xlink="http://www.w3.org/1999/xlink" x="0px"
	 y="0px" viewBox="0 0 24 24" style="enable-background:new 0 0 24 24;" xml:space="preserve">
<path style="fill:#333333;" d="M18,22H6c-0.827,0-1.5-0.673-1.5-1.5v-8.505c-1.174-0.032-3-0.269-3-1.995c0-2,2.453-2,3.5-2h14
	c1.047,0,3.5,0,3.5,2c0,1.726-1.826,1.962-3,1.995V20.5C19.5,21.327,18.827,22,18,22z M5,9c-1.298,0-2.5,0.121-2.5,1s1.202,1,2.5,1
	h0.5v9.5C5.5,20.775,5.724,21,6,21h12c0.275,0,0.5-0.225,0.5-0.5V11H19c1.299,0,2.5-0.121,2.5-1S20.299,9,19,9H5z"/>
<path style="fill:#333333;" d="M21,8.5h-1c0-2.452-2.231-3.326-6.087-4.008L13.5,4.419V3c0-0.276-0.225-0.5-0.5-0.5h-2
	c-0.276,0-0.5,0.224-0.5,0.5v1.419l-0.413,0.073C6.232,5.174,4,6.048,4,8.5H3c0-3.342,3.151-4.3,6.5-4.918V3
	c0-0.827,0.673-1.5,1.5-1.5h2c0.827,0,1.5,0.673,1.5,1.5v0.582C17.849,4.2,21,5.158,21,8.5z"/>
</svg>






