<?xml version="1.0" encoding="iso-8859-1"?>
<svg version="1.1" id="&#x56FE;&#x5C42;_1" xmlns="http://www.w3.org/2000/svg" xmlns:xlink="http://www.w3.org/1999/xlink" x="0px"
	 y="0px" viewBox="0 0 24 24" style="enable-background:new 0 0 24 24;" xml:space="preserve">
<path style="fill:#333333;" d="M14.5,16.5c-6.96,0-8-2.506-8-4v-8h16v8C22.5,13.994,21.461,16.5,14.5,16.5z M7.5,5.5v7
	c0,1.935,2.486,3,7,3c4.514,0,7-1.065,7-3v-7H7.5z"/>
<path style="fill:#333333;" d="M13,12.707l-2-2V7.5h4v3.207L13,12.707z M12,10.293l1,1l1-1V8.5h-2V10.293z"/>
<rect x="12.5" y="5" style="fill:#333333;" width="1" height="3"/>
<rect x="7.5" y="19.5" style="fill:#333333;" width="14" height="1"/>
<path style="fill:#333333;" d="M5.746,12.584c-1.202,0-2.824-0.232-3.221-1.426C2.021,9.646,1.53,7.201,1.51,7.098L1.39,6.5H7v1
	H2.616c0.178,0.826,0.521,2.33,0.858,3.342c0.276,0.832,2.447,0.805,3.456,0.663l0.141,0.99C6.93,12.515,6.4,12.584,5.746,12.584z"
	/>
</svg>






