<?xml version="1.0" encoding="iso-8859-1"?>
<svg version="1.1" id="&#x56FE;&#x5C42;_1" xmlns="http://www.w3.org/2000/svg" xmlns:xlink="http://www.w3.org/1999/xlink" x="0px"
	 y="0px" viewBox="0 0 24 24" style="enable-background:new 0 0 24 24;" xml:space="preserve">
<path style="fill:#333333;" d="M10.667,22.286c-3.781,0-6.857-3.076-6.857-6.857V8.577c0-0.543,0.442-0.985,0.985-0.985h11.743
	c0.544,0,0.986,0.442,0.986,0.985v6.852C17.524,19.21,14.447,22.286,10.667,22.286z M4.795,8.571L4.789,8.577v6.852
	c0,3.241,2.637,5.877,5.877,5.877s5.877-2.636,5.877-5.877V8.577L4.795,8.571z"/>
<path style="fill:#333333;" d="M17.524,15.919H3.81v-4.898h13.715V15.919z M4.789,14.938h11.755V12H4.789V14.938z"/>
<rect x="10.177" y="2.204" style="fill:#333333;" width="0.979" height="2.939"/>
<rect x="6.259" y="3.184" style="fill:#333333;" width="0.979" height="0.979"/>
<rect x="14.095" y="3.184" style="fill:#333333;" width="0.98" height="0.979"/>
<path style="fill:#333333;" d="M17.034,17.389v-0.98c1.62,0,2.938-1.318,2.938-2.938c0-1.621-1.318-2.939-2.938-2.939V9.551
	c2.161,0,3.919,1.758,3.919,3.918C20.953,15.631,19.195,17.389,17.034,17.389z"/>
</svg>






