<?xml version="1.0" encoding="iso-8859-1"?>
<svg version="1.1" id="&#x56FE;&#x5C42;_1" xmlns="http://www.w3.org/2000/svg" xmlns:xlink="http://www.w3.org/1999/xlink" x="0px"
	 y="0px" viewBox="0 0 24 24" style="enable-background:new 0 0 24 24;" xml:space="preserve">
<path style="fill:#333333;" d="M19,21.5H5c-1.93,0-3.5-1.57-3.5-3.5v-4c0-1.93,1.57-3.5,3.5-3.5h14c1.93,0,3.5,1.57,3.5,3.5v4
	C22.5,19.93,20.93,21.5,19,21.5z M5,11.5c-1.378,0-2.5,1.121-2.5,2.5v4c0,1.379,1.122,2.5,2.5,2.5h14c1.379,0,2.5-1.121,2.5-2.5v-4
	c0-1.379-1.121-2.5-2.5-2.5H5z"/>
<rect x="2" y="15.5" style="fill:#333333;" width="20" height="1"/>
<path style="fill:#333333;" d="M11,11.5H5l-0.458-0.701l3.24-7.4C8.013,2.855,8.553,2.5,9.155,2.5h8.595C18.99,2.5,20,3.509,20,4.75
	S18.99,7,17.75,7H11.5v4L11,11.5z M5.765,10.5H10.5v-4L11,6h6.75C18.439,6,19,5.439,19,4.75S18.439,3.5,17.75,3.5H9.155
	c-0.2,0-0.378,0.116-0.454,0.295L5.765,10.5z"/>
</svg>






