<?xml version="1.0" encoding="utf-8"?>
<svg version="1.1" id="&#x56FE;&#x5C42;_1" xmlns="http://www.w3.org/2000/svg" xmlns:xlink="http://www.w3.org/1999/xlink" x="0px" y="0px"
	 viewBox="0 0 24 24" style="enable-background:new 0 0 24 24;" xml:space="preserve">
<style type="text/css">
	.st0{fill:#333333;}
</style>
<path class="st0" d="M5.5,21.5c-1.7,0-3-1.3-3-3s1.3-3,3-3s3,1.3,3,3S7.2,21.5,5.5,21.5z M5.5,16.5c-1.1,0-2,0.9-2,2s0.9,2,2,2
	s2-0.9,2-2S6.6,16.5,5.5,16.5z"/>
<path class="st0" d="M18.5,21.5c-1.7,0-3-1.3-3-3s1.3-3,3-3s3,1.3,3,3S20.2,21.5,18.5,21.5z M18.5,16.5c-1.1,0-2,0.9-2,2s0.9,2,2,2
	s2-0.9,2-2S19.6,16.5,18.5,16.5z"/>
<polygon class="st0" points="8.1,20 7.3,19.5 8.3,17.7 16.8,2.9 17.7,3.4 "/>
<polygon class="st0" points="15.9,20 14.8,18.1 6.3,3.3 7.2,2.8 16.7,19.5 "/>
</svg>





