<?xml version="1.0" encoding="iso-8859-1"?>
<svg version="1.1" id="&#x56FE;&#x5C42;_1" xmlns="http://www.w3.org/2000/svg" xmlns:xlink="http://www.w3.org/1999/xlink" x="0px"
	 y="0px" viewBox="0 0 24 24" style="enable-background:new 0 0 24 24;" xml:space="preserve">
<path style="fill:#333333;" d="M22.5,22.5h-21v-2.207l7-7V4.5h7v8.793l7,7V22.5z M2.5,21.5h19v-0.793l-7-7V5.5h-5v8.207l-7,7V21.5z"
	/>
<rect x="18" y="14.525" transform="matrix(0.7071 -0.7071 0.7071 0.7071 -6.6023 18.0607)" style="fill:#333333;" width="1" height="4.95"/>
<rect x="18" y="14.525" transform="matrix(0.7071 -0.7071 0.7071 0.7071 -6.6023 18.0607)" style="fill:#333333;" width="1" height="4.95"/>
<rect x="3.025" y="16.5" transform="matrix(0.7071 -0.7071 0.7071 0.7071 -10.4099 8.8683)" style="fill:#333333;" width="4.95" height="1"/>
<rect x="3.025" y="16.5" transform="matrix(0.7071 -0.7071 0.7071 0.7071 -10.4099 8.8683)" style="fill:#333333;" width="4.95" height="1"/>
<rect x="9" y="1.5" style="fill:#333333;" width="6" height="1"/>
<rect x="11.5" y="13.5" style="fill:#333333;" width="1" height="0.5"/>
<rect x="11.5" y="9" style="fill:#333333;" width="1" height="1.5"/>
<rect x="5" y="17" style="fill:#333333;" width="14" height="1"/>
</svg>






