<?xml version="1.0" encoding="iso-8859-1"?>
<svg version="1.1" id="&#x56FE;&#x5C42;_1" xmlns="http://www.w3.org/2000/svg" xmlns:xlink="http://www.w3.org/1999/xlink" x="0px"
	 y="0px" viewBox="0 0 24 24" style="enable-background:new 0 0 24 24;" xml:space="preserve">
<polygon style="fill:#333333;" points="4,20.5 3,20.5 3,17 6.5,17 6.5,18 4,18 "/>
<polygon style="fill:#333333;" points="20.5,21 17,21 17,17.5 18,17.5 18,20 20.5,20 "/>
<polygon style="fill:#333333;" points="21,7 17.5,7 17.5,6 20,6 20,3.5 21,3.5 "/>
<polygon style="fill:#333333;" points="7,6.5 6,6.5 6,4 3.5,4 3.5,3 7,3 "/>
<path style="fill:#333333;" d="M1.617,13.574C1.54,13.058,1.5,12.528,1.5,12c0-3.54,1.766-6.818,4.725-8.771l0.551,0.835
	C4.098,5.831,2.5,8.797,2.5,12c0,0.479,0.036,0.958,0.106,1.426L1.617,13.574z"/>
<path style="fill:#333333;" d="M12,22.5c-3.54,0-6.818-1.767-8.771-4.725l0.835-0.551C5.831,19.901,8.797,21.5,12,21.5
	c0.478,0,0.957-0.035,1.426-0.105l0.148,0.988C13.056,22.461,12.526,22.5,12,22.5z"/>
<path style="fill:#333333;" d="M17.775,20.77l-0.551-0.834C19.901,18.169,21.5,15.203,21.5,12c0-0.477-0.035-0.957-0.105-1.426
	l0.988-0.148C22.461,10.944,22.5,11.474,22.5,12C22.5,15.54,20.733,18.818,17.775,20.77z"/>
<path style="fill:#333333;" d="M19.936,6.775C18.169,4.098,15.203,2.5,12,2.5c-0.478,0-0.958,0.036-1.425,0.106l-0.149-0.989
	C10.942,1.54,11.472,1.5,12,1.5c3.54,0,6.818,1.766,8.77,4.725L19.936,6.775z"/>
</svg>






