<?xml version="1.0" encoding="iso-8859-1"?>
<svg version="1.1" id="&#x56FE;&#x5C42;_1" xmlns="http://www.w3.org/2000/svg" xmlns:xlink="http://www.w3.org/1999/xlink" x="0px"
	 y="0px" viewBox="0 0 24 24" style="enable-background:new 0 0 24 24;" xml:space="preserve">
<polygon style="fill:#333333;" points="12,10.207 9.646,7.854 10.354,7.146 12,8.793 13.646,7.146 14.354,7.854 "/>
<path style="fill:#333333;" d="M22.5,9.5h-1V4c0-0.827-0.673-1.5-1.5-1.5h-6c-0.827,0-1.5,0.673-1.5,1.5v5.5h-1V4
	c0-1.378,1.121-2.5,2.5-2.5h6c1.379,0,2.5,1.122,2.5,2.5V9.5z"/>
<polygon style="fill:#333333;" points="13.646,16.854 12,15.207 10.354,16.854 9.646,16.146 12,13.793 14.354,16.146 "/>
<path style="fill:#333333;" d="M10,22.5H4c-1.378,0-2.5-1.121-2.5-2.5v-5.5h1V20c0,0.827,0.673,1.5,1.5,1.5h6
	c0.827,0,1.5-0.673,1.5-1.5v-5.5h1V20C12.5,21.379,11.378,22.5,10,22.5z"/>
<polygon style="fill:#333333;" points="16.146,14.354 13.793,12 16.146,9.646 16.854,10.354 15.207,12 16.854,13.646 "/>
<path style="fill:#333333;" d="M20,22.5h-5.5v-1H20c0.827,0,1.5-0.673,1.5-1.5v-6c0-0.827-0.673-1.5-1.5-1.5h-5.5v-1H20
	c1.379,0,2.5,1.121,2.5,2.5v6C22.5,21.379,21.379,22.5,20,22.5z"/>
<polygon style="fill:#333333;" points="7.854,14.354 7.146,13.646 8.793,12 7.146,10.354 7.854,9.646 10.207,12 "/>
<path style="fill:#333333;" d="M9.5,12.5H4c-1.378,0-2.5-1.122-2.5-2.5V4c0-1.378,1.122-2.5,2.5-2.5h5.5v1H4
	C3.173,2.5,2.5,3.173,2.5,4v6c0,0.827,0.673,1.5,1.5,1.5h5.5V12.5z"/>
</svg>






