<?xml version="1.0" encoding="iso-8859-1"?>
<svg version="1.1" id="&#x56FE;&#x5C42;_1" xmlns="http://www.w3.org/2000/svg" xmlns:xlink="http://www.w3.org/1999/xlink" x="0px"
	 y="0px" viewBox="0 0 24 24" style="enable-background:new 0 0 24 24;" xml:space="preserve">
<path style="fill:#333333;" d="M3.5,10h-1c0-4.252,2.248-6.5,6.5-6.5v1C5.299,4.5,3.5,6.299,3.5,10z"/>
<path style="fill:#333333;" d="M14,21.5v-1c3.701,0,5.5-1.799,5.5-5.5h1C20.5,19.252,18.252,21.5,14,21.5z"/>
<path style="fill:#333333;" d="M21.5,11.5h-8V9c0-3.033,2.468-5.5,5.5-5.5h2.5V11.5z M14.5,10.5h6v-6H19c-2.481,0-4.5,2.019-4.5,4.5
	V10.5z"/>
<path style="fill:#333333;" d="M5,21.5H2.5v-8h8V16C10.5,19.032,8.033,21.5,5,21.5z M3.5,20.5H5c2.481,0,4.5-2.019,4.5-4.5v-1.5h-6
	V20.5z"/>
</svg>






