<?xml version="1.0" encoding="iso-8859-1"?>
<svg version="1.1" id="&#x56FE;&#x5C42;_1" xmlns="http://www.w3.org/2000/svg" xmlns:xlink="http://www.w3.org/1999/xlink" x="0px"
	 y="0px" viewBox="0 0 24 24" style="enable-background:new 0 0 24 24;" xml:space="preserve">
<path style="fill:#333333;" d="M12,8.5C6.782,8.5,1.5,7.298,1.5,5S6.782,1.5,12,1.5S22.5,2.702,22.5,5S17.218,8.5,12,8.5z M12,2.5
	C6.114,2.5,2.5,3.956,2.5,5S6.114,7.5,12,7.5s9.5-1.456,9.5-2.5S17.886,2.5,12,2.5z"/>
<path style="fill:#333333;" d="M12,22.5c-5.218,0-10.5-1.202-10.5-3.5s5.282-3.5,10.5-3.5s10.5,1.202,10.5,3.5S17.218,22.5,12,22.5z
	 M12,16.5c-5.886,0-9.5,1.456-9.5,2.5s3.614,2.5,9.5,2.5s9.5-1.456,9.5-2.5S17.886,16.5,12,16.5z"/>
<rect x="21.5" y="5" style="fill:#333333;" width="1" height="14"/>
<rect x="1.5" y="5" style="fill:#333333;" width="1" height="14"/>
</svg>






