<?xml version="1.0" encoding="iso-8859-1"?>
<svg version="1.1" id="&#x56FE;&#x5C42;_1" xmlns="http://www.w3.org/2000/svg" xmlns:xlink="http://www.w3.org/1999/xlink" x="0px"
	 y="0px" viewBox="0 0 24 24" style="enable-background:new 0 0 24 24;" xml:space="preserve">
<path style="fill:#333333;" d="M9.655,20.5H3.5C2.673,20.5,2,19.827,2,19V5c0-0.827,0.673-1.5,1.5-1.5H15l0.429,0.757l-1.337,2.229
	l1.139,1.708l-4.185,2.092l0.511,3.575l-3.444,0.983L9.655,20.5z M3.5,4.5C3.224,4.5,3,4.724,3,5v14c0,0.275,0.224,0.5,0.5,0.5
	h4.845l-1.458-5.345l3.556-1.017L9.954,9.714l3.815-1.908l-0.861-1.292L14.117,4.5H3.5z"/>
<path style="fill:#333333;" d="M20.5,20.5h-8.877l-1.241-4.344l3.569-1.02l-0.493-3.943l4.322-1.921l-1.372-2.287L18.732,3.5H20.5
	C21.327,3.5,22,4.173,22,5v14C22,19.827,21.327,20.5,20.5,20.5z M12.377,19.5H20.5c0.275,0,0.5-0.225,0.5-0.5V5
	c0-0.276-0.225-0.5-0.5-0.5h-1.232l-1.676,2.514l1.628,2.713l-4.678,2.079l0.507,4.057l-3.431,0.98L12.377,19.5z"/>
<path style="fill:#333333;" d="M7.25,9.5C6.561,9.5,6,8.939,6,8.25S6.561,7,7.25,7S8.5,7.561,8.5,8.25S7.939,9.5,7.25,9.5z M7.25,8
	C7.112,8,7,8.112,7,8.25c0,0.275,0.5,0.275,0.5,0C7.5,8.112,7.388,8,7.25,8z"/>
</svg>






