<?xml version="1.0" encoding="iso-8859-1"?>
<svg version="1.1" id="&#x56FE;&#x5C42;_1" xmlns="http://www.w3.org/2000/svg" xmlns:xlink="http://www.w3.org/1999/xlink" x="0px"
	 y="0px" viewBox="0 0 24 24" style="enable-background:new 0 0 24 24;" xml:space="preserve">
<path style="fill:#333333;" d="M12.002,22.707l-2.846-2.842H4.135v-5.021l-2.842-2.845l2.842-2.842V4.135h5.021l2.846-2.842
	l2.842,2.842h5.021v5.021l2.842,2.842l-2.842,2.845v5.021h-5.021L12.002,22.707z M5.135,18.865H9.57l2.432,2.428l2.428-2.428h4.436
	V14.43l2.428-2.431L18.865,9.57V5.135H14.43l-2.428-2.428L9.57,5.135H5.135V9.57l-2.428,2.428l2.428,2.431V18.865z"/>
<path style="fill:#333333;" d="M12.038,16.33c-0.689,0-1.377-0.162-2.022-0.491C8.791,15.216,8,14.102,8,13v-0.5h0.5
	c2.778,0,4.5-0.669,4.5-4V8h0.5c1.103,0,2.174,1.017,2.666,2.53c0.493,1.516,0.392,3.592-1.372,4.875
	C13.95,16.018,12.994,16.33,12.038,16.33z M9.086,13.489c0.194,0.563,0.702,1.111,1.383,1.459c1.2,0.611,2.596,0.479,3.737-0.353
	c1.33-0.968,1.394-2.575,1.009-3.756c-0.262-0.807-0.739-1.446-1.236-1.709C13.731,12.68,11.36,13.397,9.086,13.489z"/>
</svg>






