<?xml version="1.0" encoding="iso-8859-1"?>
<svg version="1.1" id="&#x56FE;&#x5C42;_1" xmlns="http://www.w3.org/2000/svg" xmlns:xlink="http://www.w3.org/1999/xlink" x="0px"
	 y="0px" viewBox="0 0 24 24" style="enable-background:new 0 0 24 24;" xml:space="preserve">
<path style="fill:#333333;" d="M12,22.5C6.21,22.5,1.5,17.79,1.5,12c0-2.801,1.09-5.436,3.069-7.418C6.553,2.594,9.192,1.5,12,1.5
	c2.809,0,5.447,1.094,7.431,3.082C21.41,6.564,22.5,9.199,22.5,12C22.5,17.79,17.79,22.5,12,22.5z M12,2.5
	c-2.541,0-4.928,0.99-6.723,2.788C3.486,7.082,2.5,9.465,2.5,12c0,5.238,4.262,9.5,9.5,9.5s9.5-4.262,9.5-9.5
	c0-2.534-0.986-4.918-2.776-6.712C16.929,3.49,14.541,2.5,12,2.5z"/>
<rect x="2" y="11.5" style="fill:#333333;" width="2" height="1"/>
<rect x="5.205" y="4.611" transform="matrix(0.7071 -0.7071 0.7071 0.7071 -2.372 5.7086)" style="fill:#333333;" width="1" height="2.213"/>
<rect x="11.5" y="2" style="fill:#333333;" width="1" height="2"/>
<rect x="20" y="11.5" style="fill:#333333;" width="2" height="1"/>
<rect x="17.189" y="5.218" transform="matrix(0.7071 -0.7071 0.7071 0.7071 1.3156 14.6111)" style="fill:#333333;" width="2.213" height="1"/>
<rect x="11.5" y="10" style="fill:#333333;" width="1" height="6"/>
<path style="fill:#333333;" d="M12,22.5c-3.283,0-6.316-1.493-8.322-4.097l-0.351-0.455l0.499-0.285
	c4.956-2.831,11.395-2.829,16.348,0l0.498,0.285l-0.35,0.454C18.316,21.007,15.283,22.5,12,22.5z M4.843,18.247
	C6.65,20.321,9.227,21.5,12,21.5c2.773,0,5.35-1.178,7.157-3.253C14.762,15.959,9.241,15.958,4.843,18.247z"/>
</svg>






