<?xml version="1.0" encoding="iso-8859-1"?>
<svg version="1.1" id="&#x56FE;&#x5C42;_1" xmlns="http://www.w3.org/2000/svg" xmlns:xlink="http://www.w3.org/1999/xlink" x="0px"
	 y="0px" viewBox="0 0 24 24" style="enable-background:new 0 0 24 24;" xml:space="preserve">
<path style="fill:#333333;" d="M20.132,21.132l-0.707-0.707C21.408,18.44,22.5,15.804,22.5,13c0-5.79-4.71-10.5-10.5-10.5
	C6.21,2.5,1.5,7.21,1.5,13c0,2.804,1.092,5.44,3.075,7.425l-0.707,0.707C1.696,18.959,0.5,16.071,0.5,13C0.5,6.659,5.659,1.5,12,1.5
	c6.341,0,11.5,5.159,11.5,11.5C23.5,16.071,22.304,18.959,20.132,21.132z"/>
<path style="fill:#333333;" d="M6.697,18.304C5.28,16.886,4.5,15.003,4.5,13c0-4.136,3.364-7.5,7.5-7.5v1
	c-3.584,0-6.5,2.916-6.5,6.5c0,1.735,0.676,3.368,1.904,4.597L6.697,18.304z"/>
<rect x="11.5" y="9" style="fill:#333333;" width="1" height="4"/>
</svg>






