<?xml version="1.0" encoding="iso-8859-1"?>
<svg version="1.1" id="&#x56FE;&#x5C42;_1" xmlns="http://www.w3.org/2000/svg" xmlns:xlink="http://www.w3.org/1999/xlink" x="0px"
	 y="0px" viewBox="0 0 24 24" style="enable-background:new 0 0 24 24;" xml:space="preserve">
<path style="fill:#333333;" d="M19.698,20.816H4.575l-0.146-0.158c-1.639-1.776-2.579-4.396-2.579-7.188
	c0-5.672,4.614-10.286,10.285-10.286c5.672,0,10.286,4.614,10.286,10.286c0,2.792-0.94,5.412-2.578,7.188L19.698,20.816z
	 M5.008,19.836h14.257c1.386-1.594,2.177-3.9,2.177-6.366c0-5.132-4.174-9.307-9.306-9.307c-5.131,0-9.306,4.175-9.306,9.307
	C2.83,15.936,3.622,18.242,5.008,19.836z"/>
<path style="fill:#333333;" d="M12.136,17.389c-1.35,0-2.449-1.1-2.449-2.45s1.099-2.449,2.449-2.449c1.351,0,2.45,1.099,2.45,2.449
	S13.486,17.389,12.136,17.389z M12.136,13.47c-0.81,0-1.469,0.658-1.469,1.469s0.659,1.47,1.469,1.47c0.811,0,1.47-0.659,1.47-1.47
	S12.946,13.47,12.136,13.47z"/>
<rect x="11.646" y="10.041" style="fill:#333333;" width="0.98" height="2.938"/>
<rect x="11.646" y="6.123" style="fill:#333333;" width="0.98" height="0.979"/>
<rect x="4.789" y="13.469" style="fill:#333333;" width="0.979" height="0.98"/>
<rect x="6.605" y="8.918" transform="matrix(0.7074 -0.7069 0.7069 0.7074 -4.5735 7.768)" style="fill:#333333;" width="0.98" height="0.98"/>
<rect x="18.503" y="13.469" style="fill:#333333;" width="0.98" height="0.98"/>
<rect x="16.891" y="8.918" transform="matrix(0.7066 -0.7076 0.7076 0.7066 -1.5575 15.0585)" style="fill:#333333;" width="0.98" height="0.98"/>
</svg>






