<?xml version="1.0" encoding="iso-8859-1"?>
<svg version="1.1" id="&#x56FE;&#x5C42;_1" xmlns="http://www.w3.org/2000/svg" xmlns:xlink="http://www.w3.org/1999/xlink" x="0px"
	 y="0px" viewBox="0 0 24 24" style="enable-background:new 0 0 24 24;" xml:space="preserve">
<path style="fill:#333333;" d="M21.109,19.02l-0.791-0.611C21.745,16.559,22.5,14.343,22.5,12c0-5.79-4.71-10.5-10.5-10.5
	C6.21,1.5,1.5,6.21,1.5,12c0,2.343,0.754,4.559,2.182,6.408L2.89,19.02C1.327,16.993,0.5,14.566,0.5,12C0.5,5.659,5.659,0.5,12,0.5
	c6.341,0,11.5,5.159,11.5,11.5C23.5,14.566,22.674,16.993,21.109,19.02z"/>
<path style="fill:#333333;" d="M5.734,16.124C4.927,14.898,4.5,13.473,4.5,12c0-4.136,3.364-7.5,7.5-7.5s7.5,3.364,7.5,7.5
	c0,1.473-0.427,2.898-1.233,4.124l-0.836-0.551C18.13,14.512,18.5,13.276,18.5,12c0-3.584-2.916-6.5-6.5-6.5S5.5,8.416,5.5,12
	c0,1.276,0.37,2.512,1.069,3.573L5.734,16.124z"/>
<path style="fill:#333333;" d="M20,23.5H4l-0.354-0.854L12,14.293l8.354,8.354L20,23.5z M5.207,22.5h13.586L12,15.707L5.207,22.5z"
	/>
</svg>






