<?xml version="1.0" encoding="iso-8859-1"?>
<svg version="1.1" id="&#x56FE;&#x5C42;_1" xmlns="http://www.w3.org/2000/svg" xmlns:xlink="http://www.w3.org/1999/xlink" x="0px"
	 y="0px" viewBox="0 0 24 24" style="enable-background:new 0 0 24 24;" xml:space="preserve">
<rect x="11.5" y="15" style="fill:#333333;" width="1" height="3"/>
<rect x="3" y="19.5" style="fill:#333333;" width="7" height="1"/>
<rect x="14" y="19.5" style="fill:#333333;" width="7" height="1"/>
<path style="fill:#333333;" d="M12,22.5c-1.378,0-2.5-1.121-2.5-2.5s1.122-2.5,2.5-2.5c1.379,0,2.5,1.121,2.5,2.5
	S13.379,22.5,12,22.5z M12,18.5c-0.827,0-1.5,0.673-1.5,1.5s0.673,1.5,1.5,1.5s1.5-0.673,1.5-1.5S12.827,18.5,12,18.5z"/>
<path style="fill:#333333;" d="M12,15.5c-3.976,0-8-1.03-8-3v-8h1v8c0,0.815,2.727,2,7,2c4.273,0,7-1.185,7-2v-8h1v8
	C20,14.47,15.976,15.5,12,15.5z"/>
<path style="fill:#333333;" d="M12,11.5c-3.976,0-8-1.03-8-3h1c0,0.815,2.727,2,7,2c4.273,0,7-1.185,7-2h1
	C20,10.47,15.976,11.5,12,11.5z"/>
<path style="fill:none;" d="M19.5,4.5C19.5,5.881,16.142,7,12,7S4.5,5.881,4.5,4.5C4.5,3.119,7.858,2,12,2S19.5,3.119,19.5,4.5z"/>
<path style="fill:none;" d="M19.5,4.5C19.5,5.881,16.142,7,12,7S4.5,5.881,4.5,4.5C4.5,3.119,7.858,2,12,2S19.5,3.119,19.5,4.5z"/>
<path style="fill:#333333;" d="M12,7.5c-3.976,0-8-1.03-8-3s4.024-3,8-3s8,1.03,8,3S15.976,7.5,12,7.5z M12,2.5
	c-4.273,0-7,1.185-7,2s2.727,2,7,2c4.273,0,7-1.185,7-2S16.273,2.5,12,2.5z"/>
<path style="fill:#333333;" d="M12,7.5c-3.976,0-8-1.03-8-3s4.024-3,8-3s8,1.03,8,3S15.976,7.5,12,7.5z M12,2.5
	c-4.273,0-7,1.185-7,2s2.727,2,7,2c4.273,0,7-1.185,7-2S16.273,2.5,12,2.5z"/>
</svg>






