<?xml version="1.0" encoding="iso-8859-1"?>
<svg version="1.1" id="&#x56FE;&#x5C42;_1" xmlns="http://www.w3.org/2000/svg" xmlns:xlink="http://www.w3.org/1999/xlink" x="0px"
	 y="0px" viewBox="0 0 24 24" style="enable-background:new 0 0 24 24;" xml:space="preserve">
<path style="fill:#333333;" d="M20.5,18.5h-17c-1.103,0-2-0.897-2-2v-12c0-1.103,0.897-2,2-2h17c1.103,0,2,0.897,2,2v12
	C22.5,17.603,21.603,18.5,20.5,18.5z M3.5,3.5c-0.551,0-1,0.449-1,1v12c0,0.552,0.449,1,1,1h17c0.552,0,1-0.448,1-1v-12
	c0-0.551-0.448-1-1-1H3.5z"/>
<rect x="11.5" y="18" style="fill:#333333;" width="1" height="3.5"/>
<rect x="6.685" y="10" transform="matrix(0.7525 -0.6586 0.6586 0.7525 -3.9452 10.5029)" style="fill:#333333;" width="10.63" height="1"/>
<rect x="5" y="21" style="fill:#333333;" width="14" height="1"/>
<path style="fill:#333333;" d="M7.5,10.5c-1.103,0-2-0.897-2-2s0.897-2,2-2s2,0.897,2,2S8.603,10.5,7.5,10.5z M7.5,7.5
	c-0.551,0-1,0.449-1,1s0.449,1,1,1s1-0.449,1-1S8.051,7.5,7.5,7.5z"/>
<path style="fill:#333333;" d="M16.5,14.5c-1.103,0-2-0.897-2-2c0-1.103,0.897-2,2-2s2,0.897,2,2C18.5,13.603,17.603,14.5,16.5,14.5
	z M16.5,11.5c-0.552,0-1,0.449-1,1c0,0.552,0.448,1,1,1s1-0.448,1-1C17.5,11.949,17.052,11.5,16.5,11.5z"/>
</svg>






