<?xml version="1.0" encoding="iso-8859-1"?>
<svg version="1.1" id="&#x56FE;&#x5C42;_1" xmlns="http://www.w3.org/2000/svg" xmlns:xlink="http://www.w3.org/1999/xlink" x="0px"
	 y="0px" viewBox="0 0 24 24" style="enable-background:new 0 0 24 24;" xml:space="preserve">
<path style="fill:#333333;" d="M20.5,22.5h-17c-1.103,0-2-0.897-2-2v-17c0-1.103,0.897-2,2-2h17c1.103,0,2,0.897,2,2v17
	C22.5,21.603,21.603,22.5,20.5,22.5z M3.5,2.5c-0.551,0-1,0.449-1,1v17c0,0.552,0.449,1,1,1h17c0.552,0,1-0.448,1-1v-17
	c0-0.551-0.448-1-1-1H3.5z"/>
<rect x="2" y="15.5" style="fill:#333333;" width="20" height="1"/>
<rect x="5" y="18.5" style="fill:#333333;" width="0.5" height="1"/>
<rect x="13" y="18.5" style="fill:#333333;" width="6" height="1"/>
<rect x="21.5" y="13.5" style="fill:#333333;" width="1" height="5"/>
<rect x="1.5" y="13.5" style="fill:#333333;" width="1" height="5"/>
</svg>






