<?xml version="1.0" encoding="iso-8859-1"?>
<svg version="1.1" id="&#x56FE;&#x5C42;_1" xmlns="http://www.w3.org/2000/svg" xmlns:xlink="http://www.w3.org/1999/xlink" x="0px"
	 y="0px" viewBox="0 0 24 24" style="enable-background:new 0 0 24 24;" xml:space="preserve">
<path style="fill:#333333;" d="M6.5,12.5c-2.851,0-5-1.075-5-2.5V4h1v6c0,0.612,1.558,1.5,4,1.5s4-0.888,4-1.5V4h1v6
	C11.5,11.425,9.351,12.5,6.5,12.5z"/>
<path style="fill:#333333;" d="M6.5,9.5c-2.851,0-5-1.075-5-2.5h1c0,0.612,1.558,1.5,4,1.5s4-0.888,4-1.5h1
	C11.5,8.425,9.351,9.5,6.5,9.5z"/>
<path style="fill:#333333;" d="M6.5,6.5c-2.851,0-5-1.075-5-2.5s2.149-2.5,5-2.5s5,1.075,5,2.5S9.351,6.5,6.5,6.5z M6.5,2.5
	c-2.442,0-4,0.888-4,1.5s1.558,1.5,4,1.5s4-0.888,4-1.5S8.942,2.5,6.5,2.5z"/>
<path style="fill:#333333;" d="M21.5,8h-1V5c0-0.827-0.673-1.5-1.5-1.5h-3v-1h3c1.379,0,2.5,1.122,2.5,2.5V8z"/>
<path style="fill:#333333;" d="M8,21.5H5c-1.378,0-2.5-1.121-2.5-2.5v-3h1v3c0,0.827,0.673,1.5,1.5,1.5h3V21.5z"/>
<path style="fill:#333333;" d="M17.5,17.5c-1.654,0-3-1.346-3-3s1.346-3,3-3s3,1.346,3,3S19.154,17.5,17.5,17.5z M17.5,12.5
	c-1.103,0-2,0.897-2,2s0.897,2,2,2s2-0.897,2-2S18.603,12.5,17.5,12.5z"/>
<path style="fill:#333333;" d="M22.5,22.5h-10V22c0-2.757,2.243-5,5-5s5,2.243,5,5V22.5z M13.531,21.5h7.938
	C21.222,19.529,19.536,18,17.5,18S13.778,19.529,13.531,21.5z"/>
</svg>






