<?xml version="1.0" encoding="iso-8859-1"?>
<svg version="1.1" id="&#x56FE;&#x5C42;_1" xmlns="http://www.w3.org/2000/svg" xmlns:xlink="http://www.w3.org/1999/xlink" x="0px"
	 y="0px" viewBox="0 0 24 24" style="enable-background:new 0 0 24 24;" xml:space="preserve">
<path style="fill:#333333;" d="M12,22.5c-5.218,0-10.5-1.202-10.5-3.5V5.5h1V19c0,1.044,3.614,2.5,9.5,2.5s9.5-1.456,9.5-2.5V5.5h1
	V19C22.5,21.298,17.218,22.5,12,22.5z"/>
<path style="fill:#333333;" d="M12,18c-5.218,0-10.5-1.202-10.5-3.5h1c0,1.044,3.614,2.5,9.5,2.5s9.5-1.456,9.5-2.5h1
	C22.5,16.798,17.218,18,12,18z"/>
<path style="fill:#333333;" d="M12,13.5c-5.218,0-10.5-1.202-10.5-3.5h1c0,1.044,3.614,2.5,9.5,2.5s9.5-1.456,9.5-2.5h1
	C22.5,12.298,17.218,13.5,12,13.5z"/>
<path style="fill:#333333;" d="M12,8.5C6.782,8.5,1.5,7.298,1.5,5S6.782,1.5,12,1.5S22.5,2.702,22.5,5S17.218,8.5,12,8.5z M12,2.5
	C6.114,2.5,2.5,3.956,2.5,5S6.114,7.5,12,7.5s9.5-1.456,9.5-2.5S17.886,2.5,12,2.5z"/>
</svg>






