<?xml version="1.0" encoding="iso-8859-1"?>
<svg version="1.1" id="&#x56FE;&#x5C42;_1" xmlns="http://www.w3.org/2000/svg" xmlns:xlink="http://www.w3.org/1999/xlink" x="0px"
	 y="0px" viewBox="0 0 24 24" style="enable-background:new 0 0 24 24;" xml:space="preserve">
<path style="fill:#333333;" d="M12,9C6.782,9,1.5,7.798,1.5,5.5S6.782,2,12,2s10.5,1.202,10.5,3.5S17.218,9,12,9z M12,3
	C6.114,3,2.5,4.456,2.5,5.5S6.114,8,12,8s9.5-1.456,9.5-2.5S17.886,3,12,3z"/>
<path style="fill:#333333;" d="M12,13.5c-5.218,0-10.5-1.202-10.5-3.5c0-1.137,1.299-2.082,3.757-2.733l0.128-0.034l0.128,0.034
	C7.299,7.74,9.603,8,12,8c2.397,0,4.7-0.26,6.486-0.733l0.128-0.034l0.128,0.034C21.2,7.917,22.5,8.863,22.5,10
	C22.5,12.298,17.218,13.5,12,13.5z M5.388,8.267C3.394,8.814,2.5,9.528,2.5,10c0,1.044,3.614,2.5,9.5,2.5s9.5-1.456,9.5-2.5
	c0-0.472-0.895-1.186-2.888-1.733C14.918,9.213,9.083,9.213,5.388,8.267z"/>
<path style="fill:#333333;" d="M12,18c-5.218,0-10.5-1.202-10.5-3.5c0-1.137,1.299-2.082,3.757-2.733l0.128-0.034l0.128,0.034
	C7.299,12.239,9.603,12.5,12,12.5c2.397,0,4.7-0.261,6.486-0.733l0.128-0.034l0.128,0.034C21.2,12.418,22.5,13.363,22.5,14.5
	C22.5,16.798,17.218,18,12,18z M5.387,12.768C3.259,13.351,2.5,14.062,2.5,14.5c0,1.044,3.614,2.5,9.5,2.5s9.5-1.456,9.5-2.5
	c0-0.438-0.76-1.149-2.888-1.732C14.918,13.713,9.083,13.713,5.387,12.768z"/>
<path style="fill:#333333;" d="M12,22.5c-5.218,0-10.5-1.202-10.5-3.5c0-1.137,1.299-2.082,3.757-2.733l0.128-0.034l0.128,0.034
	C7.299,16.739,9.603,17,12,17c2.397,0,4.7-0.261,6.486-0.733l0.128-0.034l0.128,0.034C21.2,16.918,22.5,17.863,22.5,19
	C22.5,21.298,17.218,22.5,12,22.5z M5.387,17.268C3.259,17.851,2.5,18.562,2.5,19c0,1.044,3.614,2.5,9.5,2.5s9.5-1.456,9.5-2.5
	c0-0.438-0.76-1.149-2.888-1.732C14.918,18.213,9.083,18.213,5.387,17.268z"/>
</svg>






