<?xml version="1.0" encoding="iso-8859-1"?>
<svg version="1.1" id="&#x56FE;&#x5C42;_1" xmlns="http://www.w3.org/2000/svg" xmlns:xlink="http://www.w3.org/1999/xlink" x="0px"
	 y="0px" viewBox="0 0 24 24" style="enable-background:new 0 0 24 24;" xml:space="preserve">
<path style="fill:#333333;" d="M6.5,12.5c-2.851,0-5-1.075-5-2.5V4h1v6c0,0.612,1.558,1.5,4,1.5s4-0.888,4-1.5V4h1v6
	C11.5,11.425,9.351,12.5,6.5,12.5z"/>
<path style="fill:#333333;" d="M6.5,9.5c-2.851,0-5-1.075-5-2.5h1c0,0.612,1.558,1.5,4,1.5s4-0.888,4-1.5h1
	C11.5,8.425,9.351,9.5,6.5,9.5z"/>
<path style="fill:#333333;" d="M6.5,6.5c-2.851,0-5-1.075-5-2.5s2.149-2.5,5-2.5s5,1.075,5,2.5S9.351,6.5,6.5,6.5z M6.5,2.5
	c-2.442,0-4,0.888-4,1.5s1.558,1.5,4,1.5s4-0.888,4-1.5S8.942,2.5,6.5,2.5z"/>
<path style="fill:#333333;" d="M17.5,22.5c-2.851,0-5-1.075-5-2.5v-6h1v6c0,0.611,1.559,1.5,4,1.5s4-0.889,4-1.5v-6h1v6
	C22.5,21.425,20.351,22.5,17.5,22.5z"/>
<path style="fill:#333333;" d="M17.5,19.5c-2.851,0-5-1.075-5-2.5h1c0,0.611,1.559,1.5,4,1.5s4-0.889,4-1.5h1
	C22.5,18.425,20.351,19.5,17.5,19.5z"/>
<path style="fill:#333333;" d="M17.5,16.5c-2.851,0-5-1.075-5-2.5s2.149-2.5,5-2.5s5,1.075,5,2.5S20.351,16.5,17.5,16.5z M17.5,12.5
	c-2.441,0-4,0.889-4,1.5s1.559,1.5,4,1.5s4-0.889,4-1.5S19.941,12.5,17.5,12.5z"/>
<path style="fill:#333333;" d="M21.5,8h-1V5c0-0.827-0.673-1.5-1.5-1.5h-3v-1h3c1.379,0,2.5,1.122,2.5,2.5V8z"/>
<path style="fill:#333333;" d="M8,21.5H5c-1.378,0-2.5-1.121-2.5-2.5v-3h1v3c0,0.827,0.673,1.5,1.5,1.5h3V21.5z"/>
</svg>






