<?xml version="1.0" encoding="iso-8859-1"?>
<svg version="1.1" id="&#x56FE;&#x5C42;_1" xmlns="http://www.w3.org/2000/svg" xmlns:xlink="http://www.w3.org/1999/xlink" x="0px"
	 y="0px" viewBox="0 0 24 24" style="enable-background:new 0 0 24 24;" xml:space="preserve">
<path style="fill:#333333;" d="M9.5,21c-3.976,0-8-1.03-8-3V6h1v12c0,0.815,2.727,2,7,2c1.384,0,2.72-0.129,3.868-0.368
	c-0.939-0.823-1.574-1.944-1.789-3.198c-0.053-0.304-0.08-0.618-0.08-0.934c0-1.359,0.5-2.664,1.407-3.674
	c0.93-1.036,2.218-1.677,3.593-1.803V6h1v5H17c-1.275,0-2.496,0.544-3.349,1.494C12.909,13.32,12.5,14.388,12.5,15.5
	c0,0.258,0.021,0.516,0.064,0.765c0.229,1.333,1.037,2.482,2.22,3.153l-0.103,0.913C13.255,20.763,11.415,21,9.5,21z"/>
<path style="fill:#333333;" d="M17,21c-0.951,0-1.888-0.246-2.71-0.713c-1.444-0.819-2.432-2.224-2.71-3.854
	c-0.053-0.304-0.08-0.618-0.08-0.934c0-1.359,0.5-2.664,1.407-3.674C13.949,10.666,15.441,10,17,10c3.032,0,5.5,2.468,5.5,5.5
	S20.032,21,17,21z M17,11c-1.275,0-2.496,0.544-3.349,1.494C12.909,13.32,12.5,14.388,12.5,15.5c0,0.258,0.021,0.516,0.064,0.765
	c0.229,1.333,1.037,2.482,2.22,3.153C15.455,19.799,16.222,20,17,20c2.481,0,4.5-2.019,4.5-4.5S19.481,11,17,11z"/>
<path style="fill:#333333;" d="M9.5,9c-3.976,0-8-1.03-8-3s4.024-3,8-3s8,1.03,8,3S13.476,9,9.5,9z M9.5,4c-4.273,0-7,1.185-7,2
	s2.727,2,7,2c4.273,0,7-1.185,7-2S13.773,4,9.5,4z"/>
<path style="fill:#333333;" d="M9.5,17c-3.976,0-8-1.03-8-3h1c0,0.815,2.727,2,7,2c0.858,0,1.704-0.05,2.513-0.146l0.119,0.992
	C11.284,16.948,10.398,17,9.5,17z"/>
<path style="fill:#333333;" d="M9.5,13c-3.976,0-8-1.03-8-3h1c0,0.815,2.727,2,7,2c1.298,0,2.572-0.114,3.684-0.331l0.191,0.982
	C12.201,12.879,10.861,13,9.5,13z"/>
<path style="fill:#333333;" d="M17,18.077l-2.232-1.288v-2.578L17,12.923l2.232,1.288v2.578L17,18.077z M15.768,16.211L17,16.923
	l1.232-0.712v-1.422L17,14.077l-1.232,0.712V16.211z"/>
</svg>






