<?xml version="1.0" encoding="iso-8859-1"?>
<svg version="1.1" id="&#x56FE;&#x5C42;_1" xmlns="http://www.w3.org/2000/svg" xmlns:xlink="http://www.w3.org/1999/xlink" x="0px"
	 y="0px" viewBox="0 0 24 24" style="enable-background:new 0 0 24 24;" xml:space="preserve">
<path style="fill:#333333;" d="M19.5,21.5h-15c-1.103,0-2-0.897-2-2v-14c0-1.103,0.897-2,2-2H18v1H4.5c-0.551,0-1,0.449-1,1v14
	c0,0.552,0.449,1,1,1h15c0.552,0,1-0.448,1-1V9h1v10.5C21.5,20.603,20.603,21.5,19.5,21.5z"/>
<polygon style="fill:#333333;" points="16.475,6.596 15.768,5.889 17.535,4.122 15.768,2.354 16.475,1.646 18.949,4.122 "/>
<rect x="11.5" y="8.5" style="fill:#333333;" width="1" height="8.5"/>
<rect x="15.5" y="12" style="fill:#333333;" width="1" height="5"/>
<rect x="7.5" y="12" style="fill:#333333;" width="1" height="5"/>
</svg>






