<?xml version="1.0" encoding="iso-8859-1"?>
<svg version="1.1" id="&#x56FE;&#x5C42;_1" xmlns="http://www.w3.org/2000/svg" xmlns:xlink="http://www.w3.org/1999/xlink" x="0px"
	 y="0px" viewBox="0 0 24 24" style="enable-background:new 0 0 24 24;" xml:space="preserve">
<path style="fill:#333333;" d="M12,22.5C6.21,22.5,1.5,17.79,1.5,12C1.5,6.21,6.21,1.5,12,1.5c5.79,0,10.5,4.71,10.5,10.5
	C22.5,17.79,17.79,22.5,12,22.5z M12,2.5c-5.238,0-9.5,4.262-9.5,9.5s4.262,9.5,9.5,9.5s9.5-4.262,9.5-9.5S17.238,2.5,12,2.5z"/>
<rect x="2.5" y="12" style="fill:#333333;" width="19.5" height="1"/>
<path style="fill:#333333;" d="M9.5,10C8.122,10,7,8.878,7,7.5S8.122,5,9.5,5S12,6.122,12,7.5S10.878,10,9.5,10z M9.5,6
	C8.673,6,8,6.673,8,7.5S8.673,9,9.5,9S11,8.327,11,7.5S10.327,6,9.5,6z"/>
<rect x="15.5" y="15" style="fill:#333333;" width="6" height="1"/>
<rect x="17" y="8" style="fill:#333333;" width="4" height="1"/>
<rect x="12.5" y="18" style="fill:#333333;" width="7" height="1"/>
<path style="fill:#333333;" d="M16.726,21.379l-0.451-0.893C19.498,18.859,21.5,15.608,21.5,12c0-2.075-0.657-4.046-1.899-5.701
	l0.799-0.601C21.773,7.527,22.5,9.706,22.5,12C22.5,15.987,20.287,19.581,16.726,21.379z"/>
<path style="fill:#333333;" d="M1.831,14.625C1.611,13.771,1.5,12.889,1.5,12c0-0.707,0.071-1.414,0.21-2.1L2.69,10.1
	C2.564,10.72,2.5,11.36,2.5,12c0,0.805,0.101,1.604,0.299,2.375L1.831,14.625z"/>
</svg>






