<?xml version="1.0" encoding="iso-8859-1"?>
<svg version="1.1" id="&#x56FE;&#x5C42;_1" xmlns="http://www.w3.org/2000/svg" xmlns:xlink="http://www.w3.org/1999/xlink" x="0px"
	 y="0px" viewBox="0 0 24 24" style="enable-background:new 0 0 24 24;" xml:space="preserve">
<path style="fill:#333333;" d="M10.028,21.5H2.472c-0.536,0-0.972-0.455-0.972-1.015V3.514C1.5,2.955,1.936,2.5,2.472,2.5h7.556
	C10.564,2.5,11,2.955,11,3.514v2.989h-1V3.514L2.472,3.5L2.5,20.485l7.528,0.015L10,17.496h1v2.989
	C11,21.045,10.564,21.5,10.028,21.5z"/>
<path style="fill:#333333;" d="M21.527,21.5h-7.555C13.437,21.5,13,21.045,13,20.485v-2.989h1v2.989l7.527,0.015L21.5,3.514
	L13.973,3.5L14,6.503h-1V3.514C13,2.955,13.437,2.5,13.973,2.5h7.555c0.536,0,0.973,0.455,0.973,1.014v16.971
	C22.5,21.045,22.063,21.5,21.527,21.5z"/>
<path style="fill:#333333;" d="M6.25,19c0.552,0,1-0.448,1-1s-0.448-1-1-1s-1,0.448-1,1S5.698,19,6.25,19z"/>
<path style="fill:#333333;" d="M17.75,19c0.552,0,1-0.448,1-1s-0.448-1-1-1s-1,0.448-1,1S17.198,19,17.75,19z"/>
<rect x="8" y="11.25" style="fill:#333333;" width="8" height="1"/>
<polygon style="fill:#333333;" points="13.965,14.49 13.258,13.783 15.291,11.75 13.258,9.717 13.965,9.01 16.705,11.75 "/>
</svg>






