<?xml version="1.0" encoding="iso-8859-1"?>
<svg version="1.1" id="&#x56FE;&#x5C42;_1" xmlns="http://www.w3.org/2000/svg" xmlns:xlink="http://www.w3.org/1999/xlink" x="0px"
	 y="0px" viewBox="0 0 24 24" style="enable-background:new 0 0 24 24;" xml:space="preserve">
<path style="fill:#333333;" d="M12,22.5c-3.771,0-6.5-5.376-6.5-9c0-3.891,1.036-6,6.5-6c5.464,0,6.5,2.109,6.5,6
	C18.5,17.124,15.771,22.5,12,22.5z M12,8.5c-4.958,0-5.5,1.601-5.5,5c0,3.526,2.589,8,5.5,8c2.91,0,5.5-4.474,5.5-8
	C17.5,10.101,16.957,8.5,12,8.5z"/>
<path style="fill:#333333;" d="M18.765,11.407c-0.546,0-1.036-0.186-1.386-0.536c-0.893-0.892-0.659-2.523,0.53-3.712
	c0.544-0.544,1.211-0.909,1.879-1.026c0.72-0.128,1.391,0.054,1.833,0.496c0.893,0.892,0.659,2.523-0.53,3.712l0,0
	c-0.544,0.544-1.212,0.908-1.879,1.026C19.06,11.395,18.91,11.407,18.765,11.407z M20.241,7.092c-0.106,0-0.204,0.012-0.279,0.025
	c-0.461,0.081-0.951,0.354-1.346,0.749c-0.767,0.767-1.01,1.819-0.53,2.298c0.285,0.284,0.718,0.257,0.952,0.218
	c0.461-0.082,0.951-0.354,1.346-0.749s0.668-0.885,0.749-1.346c0.041-0.233,0.067-0.667-0.219-0.953
	C20.721,7.143,20.461,7.092,20.241,7.092z"/>
<path style="fill:#333333;" d="M5.237,11.413c-0.768,0-1.625-0.369-2.328-1.072c-1.189-1.189-1.422-2.82-0.53-3.712
	c0.892-0.892,2.522-0.658,3.712,0.53l0,0c1.189,1.19,1.422,2.82,0.53,3.712C6.256,11.236,5.768,11.413,5.237,11.413z M3.759,7.089
	c-0.27,0-0.506,0.08-0.673,0.246C2.607,7.814,2.85,8.867,3.616,9.634c0.767,0.767,1.819,1.009,2.298,0.53s0.236-1.531-0.53-2.298
	C4.884,7.367,4.263,7.089,3.759,7.089z"/>
<path style="fill:#333333;" d="M12,8.5C8.416,8.5,5.5,5.584,5.5,2h1c0,3.033,2.467,5.5,5.5,5.5c3.032,0,5.5-2.467,5.5-5.5h1
	C18.5,5.584,15.584,8.5,12,8.5z"/>
<path style="fill:#333333;" d="M12,8.5c-1.962,0-3.5-2.196-3.5-5h1c0,2.168,1.145,4,2.5,4c1.355,0,2.5-1.832,2.5-4h1
	C15.5,6.304,13.963,8.5,12,8.5z"/>
<circle style="fill:#333333;" cx="10" cy="13" r="1"/>
<circle style="fill:#333333;" cx="12" cy="17" r="1"/>
<circle style="fill:#333333;" cx="14" cy="13" r="1"/>
</svg>






