<?xml version="1.0" encoding="iso-8859-1"?>
<svg version="1.1" id="&#x56FE;&#x5C42;_1" xmlns="http://www.w3.org/2000/svg" xmlns:xlink="http://www.w3.org/1999/xlink" x="0px"
	 y="0px" viewBox="0 0 24 24" style="enable-background:new 0 0 24 24;" xml:space="preserve">
<path style="fill:#333333;" d="M11.511,13.438L0.814,9.165V8.236l10.697-4.274l10.697,4.274v0.929L11.511,13.438z M2.348,8.7
	l9.164,3.662L20.675,8.7l-9.164-3.662L2.348,8.7z"/>
<rect x="21.522" y="8.755" style="fill:#333333;" width="1" height="4.611"/>
<path style="fill:#333333;" d="M11.511,20c-3.493,0-5.98-2.408-6.084-2.511l-0.149-0.147v-6.429h1v5.999
	C6.834,17.394,8.885,19,11.511,19c2.626,0,4.676-1.606,5.233-2.089v-5.999h1v6.429l-0.149,0.147C17.491,17.592,15.005,20,11.511,20z
	"/>
</svg>






