<?xml version="1.0" encoding="iso-8859-1"?>
<svg version="1.1" id="&#x56FE;&#x5C42;_1" xmlns="http://www.w3.org/2000/svg" xmlns:xlink="http://www.w3.org/1999/xlink" x="0px"
	 y="0px" viewBox="0 0 24 24" style="enable-background:new 0 0 24 24;" xml:space="preserve">
<path style="fill:#333333;" d="M21,19.5H9.894c-0.382,0-0.745-0.144-1.023-0.403L1.267,12l7.604-7.096
	C9.149,4.644,9.513,4.5,9.894,4.5H21c0.827,0,1.5,0.673,1.5,1.5v12C22.5,18.827,21.827,19.5,21,19.5z M2.733,12l6.82,6.366
	C9.646,18.452,9.767,18.5,9.894,18.5H21c0.275,0,0.5-0.225,0.5-0.5V6c0-0.276-0.225-0.5-0.5-0.5H9.894
	c-0.127,0-0.248,0.048-0.341,0.134v0L2.733,12z"/>
<rect x="11.964" y="11.5" transform="matrix(0.7071 -0.7071 0.7071 0.7071 -3.9454 14.4749)" style="fill:#333333;" width="7.071" height="1"/>
<rect x="15" y="8.464" transform="matrix(0.7071 -0.7071 0.7071 0.7071 -3.9454 14.4749)" style="fill:#333333;" width="1" height="7.071"/>
</svg>






