<?xml version="1.0" encoding="iso-8859-1"?>
<svg version="1.1" id="&#x56FE;&#x5C42;_1" xmlns="http://www.w3.org/2000/svg" xmlns:xlink="http://www.w3.org/1999/xlink" x="0px"
	 y="0px" viewBox="0 0 24 24" style="enable-background:new 0 0 24 24;" xml:space="preserve">
<polygon style="fill:#333333;" points="18.5,22.5 5.5,22.5 5.5,8 6.5,8 6.5,21.5 17.5,21.5 17.5,8 18.5,8 "/>
<polygon style="fill:#333333;" points="12,13.781 9.116,10.32 9.884,9.68 12,12.219 14.116,9.68 14.884,10.32 "/>
<rect x="9" y="15.5" style="fill:#333333;" width="6" height="1"/>
<rect x="9" y="12.5" style="fill:#333333;" width="6" height="1"/>
<rect x="11.5" y="13" style="fill:#333333;" width="1" height="6"/>
<rect x="7" y="4.5" style="fill:#333333;" width="10" height="1"/>
<polygon style="fill:#333333;" points="21.5,9.5 18,9.5 18,8.5 20.5,8.5 20.5,2.5 3.5,2.5 3.5,8.5 6,8.5 6,9.5 2.5,9.5 2.5,1.5 
	21.5,1.5 "/>
</svg>






