<?xml version="1.0" encoding="iso-8859-1"?>
<svg version="1.1" id="&#x56FE;&#x5C42;_1" xmlns="http://www.w3.org/2000/svg" xmlns:xlink="http://www.w3.org/1999/xlink" x="0px"
	 y="0px" viewBox="0 0 24 24" style="enable-background:new 0 0 24 24;" xml:space="preserve">
<g>
	<defs>
		<rect id="SVGID_1_" width="24" height="24"/>
	</defs>
	<clipPath id="SVGID_00000162310822215614893810000007197317960421296308_">
		<use xlink:href="#SVGID_1_"  style="overflow:visible;"/>
	</clipPath>
	<g style="clip-path:url(#SVGID_00000162310822215614893810000007197317960421296308_);">
		<path style="fill:#333333;" d="M21.867,20.417c-0.725-0.355-17.762-8.702-19.124-9.488C2.021,10.512,1.581,9.8,1.534,8.977
			C1.483,8.066,1.914,7.158,2.659,6.607C3.88,5.704,6.288,5.119,6.39,5.094l0.817-0.196L6.364,8.043l14.751,7.172l1.448,4.602
			L21.867,20.417z M5.797,6.297C5.028,6.532,3.906,6.929,3.253,7.411C2.783,7.759,2.5,8.351,2.533,8.92
			c0.028,0.488,0.28,0.894,0.71,1.143c1.142,0.66,14.19,7.066,18.017,8.943l-0.969-3.079L5.185,8.582L5.797,6.297z"/>
		
			<rect x="11" y="16.573" transform="matrix(0.4472 -0.8944 0.8944 0.4472 -9.9663 20.3743)" style="fill:#333333;" width="1" height="3.354"/>
		<polygon style="fill:#333333;" points="14.009,12.592 12.555,4.836 11.344,4.231 9.987,10.112 9.013,9.888 10.656,2.769 
			13.445,4.164 14.991,12.408 		"/>
	</g>
</g>
</svg>






