<?xml version="1.0" encoding="iso-8859-1"?>
<svg version="1.1" id="&#x56FE;&#x5C42;_1" xmlns="http://www.w3.org/2000/svg" xmlns:xlink="http://www.w3.org/1999/xlink" x="0px"
	 y="0px" viewBox="0 0 24 24" style="enable-background:new 0 0 24 24;" xml:space="preserve">
<rect x="3" y="19.999" style="fill:#333333;" width="18" height="1"/>
<rect x="19" y="9.5" style="fill:#333333;" width="1" height="11"/>
<rect x="16" y="5.594" transform="matrix(0.6402 -0.7682 0.7682 0.6402 -1.3608 16.0937)" style="fill:#333333;" width="1.001" height="7.81"/>
<path style="fill:#333333;" d="M13.532,13.192L4.326,7.706l0.237-0.425C5.516,5.58,7.227,4.564,9.097,4.564c0.008,0,0.016,0,0.024,0
	c0.028-0.06,0.059-0.12,0.094-0.182c0.353-0.63,0.962-1.1,1.671-1.29c0.7-0.188,1.418-0.093,2.022,0.267
	c1.258,0.75,1.706,2.479,0.98,3.775c-0.035,0.063-0.073,0.125-0.113,0.186c0.952,1.669,0.962,3.715,0.007,5.423L13.532,13.192z
	 M5.695,7.357l7.443,4.436c0.596-1.396,0.463-2.944-0.385-4.229L12.54,7.242l0.258-0.288c0.084-0.093,0.157-0.196,0.218-0.306
	c0.462-0.824,0.172-1.958-0.618-2.429c-0.37-0.221-0.815-0.278-1.252-0.16c-0.45,0.12-0.835,0.416-1.057,0.812
	c-0.078,0.14-0.115,0.239-0.149,0.352L9.823,5.608L9.421,5.577C7.921,5.459,6.563,6.121,5.695,7.357z"/>
</svg>






