<?xml version="1.0" encoding="iso-8859-1"?>
<svg version="1.1" id="&#x56FE;&#x5C42;_1" xmlns="http://www.w3.org/2000/svg" xmlns:xlink="http://www.w3.org/1999/xlink" x="0px"
	 y="0px" viewBox="0 0 24 24" style="enable-background:new 0 0 24 24;" xml:space="preserve">
<path style="fill:#333333;" d="M4.233,20.684c-0.59,0-1.176-0.25-1.583-0.736c-0.731-0.871-0.617-2.175,0.254-2.905l1.836-1.541
	l0.257-2.935L15.13,4.063c1.752-1.469,4.371-1.241,5.841,0.511s1.24,4.371-0.511,5.84l-10.133,8.502l-2.934-0.255l-1.835,1.54
	C5.172,20.526,4.701,20.684,4.233,20.684z M5.957,13.066L5.7,16.001l-2.153,1.807c-0.217,0.183-0.351,0.438-0.375,0.722
	c-0.025,0.282,0.062,0.558,0.244,0.775c0.377,0.451,1.052,0.509,1.5,0.132l2.152-1.806L10,17.886l9.817-8.237
	c1.328-1.115,1.502-3.103,0.388-4.432c-1.116-1.328-3.104-1.501-4.433-0.388L5.957,13.066z"/>
<rect x="14.911" y="3.515" transform="matrix(0.766 -0.6428 0.6428 0.766 -2.3464 12.0725)" style="fill:#333333;" width="1" height="11.489"/>
<rect x="8.819" y="12.75" transform="matrix(0.7538 -0.6571 0.6571 0.7538 -6.0676 10.3065)" style="fill:#333333;" width="3.801" height="1"/>
</svg>






