<?xml version="1.0" encoding="iso-8859-1"?>
<svg version="1.1" id="&#x56FE;&#x5C42;_1" xmlns="http://www.w3.org/2000/svg" xmlns:xlink="http://www.w3.org/1999/xlink" x="0px"
	 y="0px" viewBox="0 0 24 24" style="enable-background:new 0 0 24 24;" xml:space="preserve">
<path style="fill:#333333;" d="M12,22.351c-0.472,0-0.907-0.216-1.193-0.592l-6.743-8.85c-0.408-0.535-0.408-1.283,0-1.818
	l6.743-8.85c0.574-0.751,1.814-0.75,2.387,0l6.742,8.85c0.407,0.535,0.407,1.283,0.001,1.818l-6.743,8.85
	C12.907,22.135,12.473,22.351,12,22.351z M12,2.65c-0.157,0-0.302,0.072-0.398,0.197l-6.743,8.85c-0.136,0.178-0.136,0.428,0,0.606
	l6.743,8.85c0.19,0.25,0.604,0.25,0.796,0l6.742-8.85c0.136-0.179,0.136-0.428,0-0.607l-6.742-8.85
	C12.303,2.722,12.157,2.65,12,2.65z"/>
</svg>






