<?xml version="1.0" encoding="iso-8859-1"?>
<svg version="1.1" id="&#x56FE;&#x5C42;_1" xmlns="http://www.w3.org/2000/svg" xmlns:xlink="http://www.w3.org/1999/xlink" x="0px"
	 y="0px" viewBox="0 0 24 24" style="enable-background:new 0 0 24 24;" xml:space="preserve">
<path style="fill:#333333;" d="M12,22.085c-0.384,0-0.768-0.146-1.061-0.438l-8.586-8.586c-0.585-0.585-0.585-1.536,0-2.121
	l8.586-8.586c0.585-0.585,1.536-0.585,2.121,0l8.586,8.586c0.585,0.585,0.585,1.536,0,2.121l-8.586,8.586
	C12.769,21.938,12.384,22.085,12,22.085z M12,2.915c-0.128,0-0.256,0.048-0.354,0.146l-8.586,8.586
	c-0.195,0.195-0.195,0.512,0,0.707l8.586,8.586c0.195,0.195,0.512,0.195,0.707,0l8.586-8.586c0.195-0.195,0.195-0.512,0-0.707
	l-8.586-8.586C12.256,2.963,12.128,2.915,12,2.915z"/>
</svg>






