<?xml version="1.0" encoding="iso-8859-1"?>
<svg version="1.1" id="&#x56FE;&#x5C42;_1" xmlns="http://www.w3.org/2000/svg" xmlns:xlink="http://www.w3.org/1999/xlink" x="0px"
	 y="0px" viewBox="0 0 24 24" style="enable-background:new 0 0 24 24;" xml:space="preserve">
<path style="fill:#333333;" d="M12.5,22.5c-4.411,0-8-3.589-8-8s3.589-8,8-8s8,3.589,8,8S16.911,22.5,12.5,22.5z M12.5,7.5
	c-3.86,0-7,3.14-7,7c0,3.859,3.14,7,7,7c3.859,0,7-3.141,7-7C19.5,10.64,16.359,7.5,12.5,7.5z"/>
<path style="fill:#333333;" d="M12.5,7.659L8.319,4.075L10.25,1.5h4.529l1.898,2.577L12.5,7.659z M9.681,3.925L12.5,6.341
	l2.822-2.418L14.273,2.5H10.75L9.681,3.925z"/>
</svg>






