<?xml version="1.0" encoding="iso-8859-1"?>
<svg version="1.1" id="&#x56FE;&#x5C42;_1" xmlns="http://www.w3.org/2000/svg" xmlns:xlink="http://www.w3.org/1999/xlink" x="0px"
	 y="0px" viewBox="0 0 24 24" style="enable-background:new 0 0 24 24;" xml:space="preserve">
<path style="fill:#333333;" d="M12,21.739c-0.493,0-0.955-0.243-1.235-0.648L2.216,8.694C1.976,8.346,1.894,7.91,1.992,7.499
	c0.097-0.412,0.366-0.766,0.736-0.97h0l8.549-4.702c0.452-0.249,0.992-0.249,1.445,0l8.549,4.702c0.37,0.204,0.64,0.557,0.737,0.968
	c0.098,0.412,0.016,0.849-0.225,1.197l-8.55,12.396C12.955,21.496,12.493,21.739,12,21.739z M3.21,7.405
	C3.085,7.474,2.998,7.589,2.965,7.729C2.932,7.868,2.958,8.009,3.04,8.127l8.549,12.396c0.189,0.275,0.634,0.275,0.824,0
	l8.549-12.396c0.081-0.118,0.107-0.26,0.074-0.399c-0.033-0.139-0.12-0.253-0.245-0.322l-8.55-4.702c-0.15-0.083-0.33-0.083-0.481,0
	L3.21,7.405z"/>
</svg>






