<?xml version="1.0" encoding="iso-8859-1"?>
<svg version="1.1" id="&#x56FE;&#x5C42;_1" xmlns="http://www.w3.org/2000/svg" xmlns:xlink="http://www.w3.org/1999/xlink" x="0px"
	 y="0px" viewBox="0 0 24 24" style="enable-background:new 0 0 24 24;" xml:space="preserve">
<path style="fill:#333333;" d="M17.012,21.09L6.5,14.783V8.146l10,5.607V9.783l-5.5-3.3l5.506-3.06L22,6.661v11.164L17.012,21.09z
	 M7.5,14.217l9.488,5.693L21,17.283V7.232l-4.507-2.656L13,6.517l4.5,2.7v6.244l-10-5.607V14.217z"/>
<polygon style="fill:#333333;" points="7.514,21.092 2,17.783 2,6.717 7.49,3.423 12.243,6.063 11.757,6.937 7.51,4.577 3,7.283 
	3,17.217 7.486,19.908 11.723,17.084 12.277,17.916 "/>
</svg>






