<?xml version="1.0" encoding="iso-8859-1"?>
<svg version="1.1" id="&#x56FE;&#x5C42;_1" xmlns="http://www.w3.org/2000/svg" xmlns:xlink="http://www.w3.org/1999/xlink" x="0px"
	 y="0px" viewBox="0 0 24 24" style="enable-background:new 0 0 24 24;" xml:space="preserve">
<path style="fill:#333333;" d="M16,18H8c-1.103,0-2-0.897-2-2V8c0-1.103,0.897-2,2-2h8c1.103,0,2,0.897,2,2v8
	C18,17.103,17.103,18,16,18z M8,7C7.449,7,7,7.449,7,8v8c0,0.552,0.449,1,1,1h8c0.552,0,1-0.448,1-1V8c0-0.551-0.448-1-1-1H8z"/>
<path style="fill:#333333;" d="M13.5,22.5h-3C9.673,22.5,9,21.827,9,21v-3.5h1V21c0,0.275,0.224,0.5,0.5,0.5h3
	c0.275,0,0.5-0.225,0.5-0.5v-3.5h1V21C15,21.827,14.327,22.5,13.5,22.5z"/>
<path style="fill:#333333;" d="M15,6.5h-1V3c0-0.276-0.225-0.5-0.5-0.5h-3C10.224,2.5,10,2.724,10,3v3.5H9V3
	c0-0.827,0.673-1.5,1.5-1.5h3C14.327,1.5,15,2.173,15,3V6.5z"/>
<rect x="17.5" y="10" style="fill:#333333;" width="1" height="1"/>
<rect x="9.5" y="11.5" style="fill:#333333;" width="1" height="1"/>
<rect x="13.5" y="11.5" style="fill:#333333;" width="1" height="1"/>
</svg>






