<?xml version="1.0" encoding="iso-8859-1"?>
<svg version="1.1" id="&#x56FE;&#x5C42;_1" xmlns="http://www.w3.org/2000/svg" xmlns:xlink="http://www.w3.org/1999/xlink" x="0px"
	 y="0px" viewBox="0 0 24 24" style="enable-background:new 0 0 24 24;" xml:space="preserve">
<polygon style="fill:#333333;" points="12.5,8 11.5,8 11.5,3.207 10.354,4.354 9.646,3.646 11.646,1.646 12,2 12.354,1.646 
	14.354,3.646 13.646,4.354 12.5,3.207 "/>
<polygon style="fill:#333333;" points="12.354,22.354 12,22 11.646,22.354 9.646,20.354 10.354,19.646 11.5,20.793 11.5,16 12.5,16 
	12.5,20.793 13.646,19.646 14.354,20.354 "/>
<polygon style="fill:#333333;" points="20.354,14.354 19.646,13.646 20.793,12.5 16,12.5 16,11.5 20.793,11.5 19.646,10.354 
	20.354,9.646 22.354,11.646 22,12 22.354,12.354 "/>
<polygon style="fill:#333333;" points="3.646,14.354 1.646,12.354 2,12 1.646,11.646 3.646,9.646 4.354,10.354 3.207,11.5 8,11.5 
	8,12.5 3.207,12.5 4.354,13.646 "/>
<path style="fill:#333333;" d="M12,13.5c-0.827,0-1.5-0.673-1.5-1.5s0.673-1.5,1.5-1.5s1.5,0.673,1.5,1.5S12.827,13.5,12,13.5z
	 M12,11.5c-0.276,0-0.5,0.224-0.5,0.5c0,0.275,0.224,0.5,0.5,0.5c0.275,0,0.5-0.225,0.5-0.5C12.5,11.724,12.275,11.5,12,11.5z"/>
</svg>






