<?xml version="1.0" encoding="iso-8859-1"?>
<svg version="1.1" id="&#x56FE;&#x5C42;_1" xmlns="http://www.w3.org/2000/svg" xmlns:xlink="http://www.w3.org/1999/xlink" x="0px"
	 y="0px" viewBox="0 0 24 24" style="enable-background:new 0 0 24 24;" xml:space="preserve">
<polygon style="fill:#333333;" points="12.354,22.354 12,22 11.646,22.354 8.646,19.354 9.354,18.646 11.5,20.793 11.5,12.5 
	3.207,12.5 5.354,14.646 4.646,15.354 1.646,12.354 2,12 1.646,11.646 4.646,8.646 5.354,9.354 3.207,11.5 11.5,11.5 11.5,3.207 
	9.354,5.354 8.646,4.646 11.646,1.646 12,2 12.354,1.646 15.354,4.646 14.646,5.354 12.5,3.207 12.5,11.5 20.793,11.5 18.646,9.354 
	19.354,8.646 22.354,11.646 22,12 22.354,12.354 19.354,15.354 18.646,14.646 20.793,12.5 12.5,12.5 12.5,20.793 14.646,18.646 
	15.354,19.354 "/>
</svg>






