<?xml version="1.0" encoding="iso-8859-1"?>
<svg version="1.1" id="&#x56FE;&#x5C42;_1" xmlns="http://www.w3.org/2000/svg" xmlns:xlink="http://www.w3.org/1999/xlink" x="0px"
	 y="0px" viewBox="0 0 24 24" style="enable-background:new 0 0 24 24;" xml:space="preserve">
<polygon style="fill:#333333;" points="12.5,7 11.5,7 11.5,3.207 9.354,5.354 8.646,4.646 11.646,1.646 12,2 12.354,1.646 
	15.354,4.646 14.646,5.354 12.5,3.207 "/>
<polygon style="fill:#333333;" points="12.354,22.354 12,22 11.646,22.354 8.646,19.354 9.354,18.646 11.5,20.793 11.5,17 12.5,17 
	12.5,20.793 14.646,18.646 15.354,19.354 "/>
<polygon style="fill:#333333;" points="19.354,15.354 18.646,14.646 20.793,12.5 17,12.5 17,11.5 20.793,11.5 18.646,9.354 
	19.354,8.646 22.354,11.646 22,12 22.354,12.354 "/>
<polygon style="fill:#333333;" points="4.646,15.354 1.646,12.354 2,12 1.646,11.646 4.646,8.646 5.354,9.354 3.207,11.5 7,11.5 
	7,12.5 3.207,12.5 5.354,14.646 "/>
<path style="fill:#333333;" d="M12,14.5c-1.378,0-2.5-1.121-2.5-2.5c0-1.378,1.122-2.5,2.5-2.5c1.379,0,2.5,1.122,2.5,2.5
	C14.5,13.379,13.379,14.5,12,14.5z M12,10.5c-0.827,0-1.5,0.673-1.5,1.5s0.673,1.5,1.5,1.5s1.5-0.673,1.5-1.5S12.827,10.5,12,10.5z"
	/>
</svg>






