<?xml version="1.0" encoding="iso-8859-1"?>
<svg version="1.1" id="&#x56FE;&#x5C42;_1" xmlns="http://www.w3.org/2000/svg" xmlns:xlink="http://www.w3.org/1999/xlink" x="0px"
	 y="0px" viewBox="0 0 24 24" style="enable-background:new 0 0 24 24;" xml:space="preserve">
<path style="fill:#333333;" d="M19.5,17.499h-15c-1.103,0-2-0.897-2-2v-11c0-1.103,0.897-2,2-2h7v1h-7c-0.551,0-1,0.449-1,1v11
	c0,0.552,0.449,1,1,1h15c0.552,0,1-0.448,1-1v-3.5h1v3.5C21.5,16.602,20.603,17.499,19.5,17.499z"/>
<rect x="11.5" y="17" style="fill:#333333;" width="1" height="4"/>
<path style="fill:#333333;" d="M18,9.5c-1.93,0-3.5-1.57-3.5-3.5s1.57-3.5,3.5-3.5s3.5,1.57,3.5,3.5S19.93,9.5,18,9.5z M18,3.5
	c-1.379,0-2.5,1.122-2.5,2.5s1.121,2.5,2.5,2.5s2.5-1.122,2.5-2.5S19.379,3.5,18,3.5z"/>
<rect x="17.5" y="3.172" transform="matrix(0.7071 -0.7071 0.7071 0.7071 1.0294 14.4853)" style="fill:#333333;" width="1" height="5.657"/>
<rect x="7" y="20.499" style="fill:#333333;" width="10" height="1"/>
</svg>






