<?xml version="1.0" encoding="iso-8859-1"?>
<svg version="1.1" id="&#x56FE;&#x5C42;_1" xmlns="http://www.w3.org/2000/svg" xmlns:xlink="http://www.w3.org/1999/xlink" x="0px"
	 y="0px" viewBox="0 0 24 24" style="enable-background:new 0 0 24 24;" xml:space="preserve">
<path style="fill:#333333;" d="M20.5,16.999h-17V6c0-1.103,0.897-2,2-2h6v1h-6c-0.551,0-1,0.449-1,1v10h15v-3h1V16.999z"/>
<path style="fill:#333333;" d="M19,20.999H5c-1.93,0-3.5-1.57-3.5-3.5v-1.5h21v1.5C22.5,19.429,20.93,20.999,19,20.999z M2.5,16.999
	v0.5c0,1.379,1.122,2.5,2.5,2.5h14c1.379,0,2.5-1.121,2.5-2.5v-0.5H2.5z"/>
<path style="fill:#333333;" d="M18,10c-1.93,0-3.5-1.57-3.5-3.5S16.07,3,18,3s3.5,1.57,3.5,3.5S19.93,10,18,10z M18,4
	c-1.379,0-2.5,1.122-2.5,2.5S16.621,9,18,9s2.5-1.122,2.5-2.5S19.379,4,18,4z"/>
<rect x="17.5" y="3.672" transform="matrix(0.7071 -0.7071 0.7071 0.7071 0.6759 14.6317)" style="fill:#333333;" width="1" height="5.657"/>
</svg>






