<?xml version="1.0" encoding="iso-8859-1"?>
<svg version="1.1" id="&#x56FE;&#x5C42;_1" xmlns="http://www.w3.org/2000/svg" xmlns:xlink="http://www.w3.org/1999/xlink" x="0px"
	 y="0px" viewBox="0 0 24 24" style="enable-background:new 0 0 24 24;" xml:space="preserve">
<path style="fill:#333333;" d="M12,21.52l-0.137-0.039C8.346,20.476,1.5,15.336,1.5,9.5c0-3.309,2.691-6,6-6
	c0.96,0,1.878,0.22,2.728,0.654l0.328,0.167l-0.502,2.914l4.818,2.677l-3.725,3.192l1.283,2.139l-0.857,0.514l-1.717-2.861
	l3.275-2.808L8.947,7.765l0.496-2.874C8.829,4.631,8.178,4.5,7.5,4.5c-2.757,0-5,2.243-5,5c0,5.06,6.075,9.917,9.5,10.979
	c3.426-1.062,9.5-5.919,9.5-10.979c0-2.757-2.243-5-5-5c-0.801,0-1.565,0.183-2.272,0.545l-0.455-0.891
	C14.622,3.72,15.54,3.5,16.5,3.5c3.309,0,6,2.691,6,6c0,5.836-6.846,10.976-10.362,11.98L12,21.52z"/>
</svg>






