<?xml version="1.0" encoding="iso-8859-1"?>
<svg version="1.1" id="&#x56FE;&#x5C42;_1" xmlns="http://www.w3.org/2000/svg" xmlns:xlink="http://www.w3.org/1999/xlink" x="0px"
	 y="0px" viewBox="0 0 24 24" style="enable-background:new 0 0 24 24;" xml:space="preserve">
<path style="fill:#333333;" d="M20,13.5H4c-0.827,0-1.5-0.673-1.5-1.5V4c0-0.827,0.673-1.5,1.5-1.5h16c0.827,0,1.5,0.673,1.5,1.5v8
	C21.5,12.827,20.827,13.5,20,13.5z M4,3.5C3.724,3.5,3.5,3.724,3.5,4v8c0,0.275,0.224,0.5,0.5,0.5h16c0.275,0,0.5-0.225,0.5-0.5V4
	c0-0.276-0.225-0.5-0.5-0.5H4z"/>
<rect x="7" y="6" style="fill:#333333;" width="4" height="1"/>
<rect x="7" y="9" style="fill:#333333;" width="10" height="1"/>
<polygon style="fill:#333333;" points="19.626,22.332 17.108,19.5 6.682,19.5 4.388,22.315 3.612,21.685 6.207,18.5 17.558,18.5 
	20.374,21.668 "/>
<rect x="11.5" y="13" style="fill:#333333;" width="1" height="9"/>
</svg>






