<?xml version="1.0" encoding="iso-8859-1"?>
<svg version="1.1" id="&#x56FE;&#x5C42;_1" xmlns="http://www.w3.org/2000/svg" xmlns:xlink="http://www.w3.org/1999/xlink" x="0px"
	 y="0px" viewBox="0 0 24 24" style="enable-background:new 0 0 24 24;" xml:space="preserve">
<path style="fill:#333333;" d="M12,22.5C6.21,22.5,1.5,17.79,1.5,12C1.5,6.21,6.21,1.5,12,1.5c5.79,0,10.5,4.71,10.5,10.5
	C22.5,17.79,17.79,22.5,12,22.5z M12,2.5c-5.238,0-9.5,4.262-9.5,9.5s4.262,9.5,9.5,9.5s9.5-4.262,9.5-9.5S17.238,2.5,12,2.5z"/>
<path style="fill:#333333;" d="M16.309,17H7.691l0.362-0.724C8.099,16.184,9.223,14,12,14c2.777,0,3.9,2.184,3.947,2.276L16.309,17z
	 M9.505,16h4.99c-0.478-0.472-1.283-1-2.495-1C10.789,15,9.983,15.527,9.505,16z"/>
<polygon style="fill:#333333;" points="15.646,11.854 13.793,10 15.646,8.146 16.354,8.854 15.207,10 16.354,11.146 "/>
<polygon style="fill:#333333;" points="8.354,11.854 7.646,11.146 8.793,10 7.646,8.854 8.354,8.146 10.207,10 "/>
</svg>






