<?xml version="1.0" encoding="iso-8859-1"?>
<svg version="1.1" id="&#x56FE;&#x5C42;_1" xmlns="http://www.w3.org/2000/svg" xmlns:xlink="http://www.w3.org/1999/xlink" x="0px"
	 y="0px" viewBox="0 0 24 24" style="enable-background:new 0 0 24 24;" xml:space="preserve">
<path style="fill:#333333;" d="M18.5,9.5H12V9c0-0.727-0.526-1.5-1.5-1.5S9,8.273,9,9v0.5H2.5V5c0-1.378,1.167-2.5,2.6-2.5h10.8
	c1.434,0,2.6,1.122,2.6,2.5V9.5z M12.949,8.5H17.5V5c0-0.827-0.718-1.5-1.6-1.5H5.1C4.218,3.5,3.5,4.173,3.5,5v3.5h4.551
	c0.214-1.051,1.097-2,2.449-2S12.734,7.449,12.949,8.5z"/>
<path style="fill:#333333;" d="M10.5,15.5c-2.261,0-3-2.603-3-3.5h1c0,0.529,0.5,2.5,2,2.5s2-1.971,2-2.5h1
	C13.5,12.897,12.762,15.5,10.5,15.5z"/>
<path style="fill:#333333;" d="M18,22.5c-1.739,0-3.5-1.202-3.5-3.5v-1h1v1c0,1.718,1.296,2.5,2.5,2.5s2.5-0.782,2.5-2.5V3h1v16
	C21.5,21.298,19.739,22.5,18,22.5z"/>
</svg>






