<?xml version="1.0" encoding="iso-8859-1"?>
<svg version="1.1" id="&#x56FE;&#x5C42;_1" xmlns="http://www.w3.org/2000/svg" xmlns:xlink="http://www.w3.org/1999/xlink" x="0px"
	 y="0px" viewBox="0 0 24 24" style="enable-background:new 0 0 24 24;" xml:space="preserve">
<path style="fill:#333333;" d="M12.955,12.5H11.5v-1h1.455c2.506,0,4.545-2.019,4.545-4.5c0-2.422-1.942-4.403-4.366-4.497
	l-2.811,2.378H9.677L6.866,2.503C4.442,2.597,2.5,4.578,2.5,7c0,2.481,2.039,4.5,4.545,4.5H8.5v1H7.045C3.987,12.5,1.5,10.033,1.5,7
	s2.487-5.5,5.545-5.5l0.323,0.118L10,3.845l2.632-2.227L12.955,1.5C16.013,1.5,18.5,3.967,18.5,7S16.013,12.5,12.955,12.5z"/>
<path style="fill:#333333;" d="M13,22.5H7L6.5,22v-4L7,17.5h6l0.5,0.5v4L13,22.5z M7.5,21.5h5v-3h-5V21.5z"/>
<path style="fill:#333333;" d="M18,20.5h-5v-1h5c1.93,0,3.5-1.57,3.5-3.5V7.5H18v-1h4L22.5,7v9C22.5,18.481,20.481,20.5,18,20.5z"/>
<path style="fill:#333333;" d="M10.61,15.5H9.39c-0.496,0-0.964-0.217-1.285-0.596c-0.319-0.377-0.455-0.872-0.374-1.357l0.61-3.645
	C8.477,9.09,9.174,8.5,10,8.5c0.825,0,1.522,0.59,1.658,1.402l0.609,3.646c0.079,0.489-0.06,0.984-0.38,1.36
	C11.567,15.284,11.102,15.5,10.61,15.5z M10,9.5c-0.334,0-0.617,0.238-0.672,0.567l-0.61,3.645
	c-0.033,0.195,0.022,0.395,0.151,0.547c0.13,0.153,0.32,0.241,0.521,0.241h1.22c0.198,0,0.386-0.088,0.516-0.24
	c0.13-0.153,0.187-0.354,0.155-0.551l-0.609-3.642C10.617,9.739,10.334,9.5,10,9.5z"/>
</svg>






