<?xml version="1.0" encoding="iso-8859-1"?>
<svg version="1.1" id="&#x56FE;&#x5C42;_1" xmlns="http://www.w3.org/2000/svg" xmlns:xlink="http://www.w3.org/1999/xlink" x="0px"
	 y="0px" viewBox="0 0 24 24" style="enable-background:new 0 0 24 24;" xml:space="preserve">
<path style="fill:#333333;" d="M19.5,21.499c-0.508,0-1.015-0.128-1.488-0.384c-0.652-0.352-1.371-0.352-2.023,0
	c-0.947,0.512-2.029,0.512-2.977,0c-0.652-0.352-1.371-0.352-2.024,0c-0.945,0.512-2.03,0.512-2.976,0
	c-0.653-0.352-1.371-0.352-2.024,0c-0.945,0.512-2.03,0.512-2.976,0l-1.25-0.676l0.476-0.879l1.25,0.676
	c0.652,0.352,1.371,0.352,2.024,0c0.945-0.512,2.03-0.512,2.976,0c0.653,0.352,1.371,0.352,2.024,0c0.945-0.512,2.03-0.512,2.976,0
	c0.652,0.352,1.371,0.352,2.023,0c0.947-0.512,2.029-0.512,2.977,0c0.652,0.352,1.371,0.352,2.023,0l1.251-0.676l0.475,0.879
	l-1.25,0.676C20.515,21.371,20.008,21.499,19.5,21.499z"/>
<rect x="6.5" y="2" style="fill:#333333;" width="1" height="3.5"/>
<rect x="15" y="2" style="fill:#333333;" width="1" height="3.5"/>
<rect x="10" y="2" style="fill:#333333;" width="1" height="2"/>
<rect x="18.5" y="2" style="fill:#333333;" width="1" height="2"/>
<rect x="6" y="2.5" style="fill:#333333;" width="4" height="1"/>
<rect x="14.5" y="2.5" style="fill:#333333;" width="4" height="1"/>
<path style="fill:#333333;" d="M7,18c-1.378,0-2.5-1.121-2.5-2.5v-8C4.5,6.122,5.622,5,7,5s2.5,1.122,2.5,2.5v8
	C9.5,16.879,8.378,18,7,18z M7,6C6.173,6,5.5,6.673,5.5,7.5v8C5.5,16.327,6.173,17,7,17s1.5-0.673,1.5-1.5v-8C8.5,6.673,7.827,6,7,6
	z"/>
<path style="fill:#333333;" d="M15.5,18c-1.379,0-2.5-1.121-2.5-2.5v-8C13,6.122,14.121,5,15.5,5S18,6.122,18,7.5v8
	C18,16.879,16.879,18,15.5,18z M15.5,6C14.673,6,14,6.673,14,7.5v8c0,0.827,0.673,1.5,1.5,1.5s1.5-0.673,1.5-1.5v-8
	C17,6.673,16.327,6,15.5,6z"/>
<path style="fill:#333333;" d="M18,10h-5V7.5C13,6.122,14.121,5,15.5,5S18,6.122,18,7.5V10z M14,9h3V7.5C17,6.673,16.327,6,15.5,6
	S14,6.673,14,7.5V9z"/>
<path style="fill:#333333;" d="M9.5,10h-5V7.5C4.5,6.122,5.622,5,7,5s2.5,1.122,2.5,2.5V10z M5.5,9h3V7.5C8.5,6.673,7.827,6,7,6
	S5.5,6.673,5.5,7.5V9z"/>
</svg>






