<?xml version="1.0" encoding="iso-8859-1"?>
<svg version="1.1" id="&#x56FE;&#x5C42;_1" xmlns="http://www.w3.org/2000/svg" xmlns:xlink="http://www.w3.org/1999/xlink" x="0px"
	 y="0px" viewBox="0 0 24 24" style="enable-background:new 0 0 24 24;" xml:space="preserve">
<path style="fill:#333333;" d="M10.5,22.5H5c-0.827,0-1.5-0.673-1.5-1.5V3c0-0.827,0.673-1.5,1.5-1.5h14c0.827,0,1.5,0.673,1.5,1.5
	v10.5h-1V3c0-0.276-0.225-0.5-0.5-0.5H5C4.724,2.5,4.5,2.724,4.5,3v18c0,0.275,0.224,0.5,0.5,0.5h5.5V22.5z"/>
<rect x="8.5" y="5.5" style="fill:#333333;" width="7" height="1"/>
<rect x="8.5" y="9.5" style="fill:#333333;" width="7" height="1"/>
<rect x="8.5" y="13.5" style="fill:#333333;" width="3" height="1"/>
<path style="fill:none;" d="M18.5,18.5c0,0.69-0.28,1.315-0.732,1.768C17.315,20.72,16.69,21,16,21c-1.381,0-2.5-1.119-2.5-2.5
	S14.619,16,16,16S18.5,17.119,18.5,18.5z"/>
<path style="fill:#333333;" d="M19.146,22.354l-1.408-1.408C17.234,21.306,16.632,21.5,16,21.5c-1.654,0-3-1.346-3-3s1.346-3,3-3
	s3,1.346,3,3c0,0.632-0.194,1.234-0.555,1.738l1.408,1.408L19.146,22.354z M16,16.5c-1.103,0-2,0.897-2,2s0.897,2,2,2
	c0.534,0,1.036-0.208,1.414-0.586S18,19.034,18,18.5C18,17.397,17.103,16.5,16,16.5z"/>
</svg>






