<?xml version="1.0" encoding="iso-8859-1"?>
<svg version="1.1" id="&#x56FE;&#x5C42;_1" xmlns="http://www.w3.org/2000/svg" xmlns:xlink="http://www.w3.org/1999/xlink" x="0px"
	 y="0px" viewBox="0 0 24 24" style="enable-background:new 0 0 24 24;" xml:space="preserve">
<path style="fill:#333333;" d="M19.5,22.5h-14C4.673,22.5,4,21.827,4,21V3c0-0.827,0.673-1.5,1.5-1.5h14C20.327,1.5,21,2.173,21,3
	v18C21,21.827,20.327,22.5,19.5,22.5z M5.5,2.5C5.224,2.5,5,2.724,5,3v18c0,0.275,0.224,0.5,0.5,0.5h14c0.275,0,0.5-0.225,0.5-0.5V3
	c0-0.276-0.225-0.5-0.5-0.5H5.5z"/>
<rect x="8.5" y="14.5" style="fill:#333333;" width="7" height="1"/>
<rect x="8.5" y="17.5" style="fill:#333333;" width="3.5" height="1"/>
<path style="fill:#333333;" d="M16,11.5H8v-6h8V11.5z M9,10.5h6v-4H9V10.5z"/>
</svg>






