<?xml version="1.0" encoding="iso-8859-1"?>
<svg version="1.1" id="&#x56FE;&#x5C42;_1" xmlns="http://www.w3.org/2000/svg" xmlns:xlink="http://www.w3.org/1999/xlink" x="0px"
	 y="0px" viewBox="0 0 24 24" style="enable-background:new 0 0 24 24;" xml:space="preserve">
<path style="fill:#333333;" d="M19,22.5H5c-0.827,0-1.5-0.673-1.5-1.5V3c0-0.827,0.673-1.5,1.5-1.5h14c0.827,0,1.5,0.673,1.5,1.5v18
	C20.5,21.827,19.827,22.5,19,22.5z M5,2.5C4.724,2.5,4.5,2.724,4.5,3v18c0,0.275,0.224,0.5,0.5,0.5h14c0.275,0,0.5-0.225,0.5-0.5V3
	c0-0.276-0.225-0.5-0.5-0.5H5z"/>
<path style="fill:none;" d="M14,8c0,0.69-0.28,1.315-0.732,1.768C12.815,10.22,12.19,10.5,11.5,10.5C10.119,10.5,9,9.381,9,8
	s1.119-2.5,2.5-2.5S14,6.619,14,8z"/>
<path style="fill:#333333;" d="M14.646,11.854l-1.408-1.408C12.734,10.806,12.132,11,11.5,11c-1.654,0-3-1.346-3-3s1.346-3,3-3
	s3,1.346,3,3c0,0.632-0.194,1.234-0.555,1.738l1.408,1.408L14.646,11.854z M11.5,6c-1.103,0-2,0.897-2,2s0.897,2,2,2
	c0.534,0,1.036-0.208,1.414-0.586l0,0C13.292,9.036,13.5,8.534,13.5,8C13.5,6.897,12.603,6,11.5,6z"/>
<rect x="8.5" y="14.5" style="fill:#333333;" width="7" height="1"/>
<rect x="8.5" y="17.5" style="fill:#333333;" width="3.5" height="1"/>
</svg>






