<?xml version="1.0" encoding="iso-8859-1"?>
<svg version="1.1" id="&#x56FE;&#x5C42;_1" xmlns="http://www.w3.org/2000/svg" xmlns:xlink="http://www.w3.org/1999/xlink" x="0px"
	 y="0px" viewBox="0 0 24 24" style="enable-background:new 0 0 24 24;" xml:space="preserve">
<path style="fill:#333333;" d="M3.5,22h-1V9.5c0-2.862,2.104-5.163,7.263-7.94L10.5,1.163V6H14v3.5h-1V7H9.5V2.846
	c-4.25,2.389-6,4.345-6,6.654V22z"/>
<path style="fill:#333333;" d="M17.094,22.444c-0.349,0-0.648-0.054-0.885-0.119c-1.129-0.314-2.034-1.237-2.202-2.243
	c-0.786-4.719-4.314-6.284-6.209-7.125l0.405-0.914c1.92,0.853,5.916,2.625,6.791,7.875c0.087,0.523,0.638,1.208,1.484,1.443
	c1.143,0.315,2.438-0.281,3.643-1.687c0.445-0.479,0.624-1.007,0.505-1.466c-0.156-0.601-0.812-1.102-1.896-1.448l0.305-0.953
	c1.803,0.578,2.386,1.488,2.559,2.149c0.208,0.798-0.058,1.666-0.728,2.384C19.415,22.033,18.062,22.444,17.094,22.444z"/>
<path style="fill:#333333;" d="M9,22H8c0-1.274,0.451-2.323,1.341-3.118c1.503-1.343,3.738-1.487,4.715-1.379l-0.113,0.994
	c-0.952-0.111-2.787,0.104-3.936,1.131C9.339,20.225,9,21.022,9,22z"/>
</svg>






