<?xml version="1.0" encoding="iso-8859-1"?>
<svg version="1.1" id="&#x56FE;&#x5C42;_1" xmlns="http://www.w3.org/2000/svg" xmlns:xlink="http://www.w3.org/1999/xlink" x="0px"
	 y="0px" viewBox="0 0 24 24" style="enable-background:new 0 0 24 24;" xml:space="preserve">
<path style="fill:#333333;" d="M4.003,9.055C3.595,5.386,5.91,2.576,7.321,2.033l0.46-0.177l1.183,2.958L8.036,5.186l-0.788-1.97
	c-1.018,0.746-2.57,2.85-2.25,5.729L4.003,9.055z"/>
<path style="fill:#333333;" d="M19.997,9.055l-0.994-0.11c0.32-2.879-1.233-4.983-2.251-5.729l-0.788,1.97l-0.928-0.371l1.183-2.958
	l0.461,0.177C18.09,2.576,20.405,5.386,19.997,9.055z"/>
<path style="fill:#333333;" d="M12,22c-5.771,0-9.5-3.042-9.5-7.75C2.5,9.412,6.563,4,12,4c5.438,0,9.5,5.412,9.5,10.25
	C21.5,18.958,17.771,22,12,22z M12,5c-4.865,0-8.5,4.884-8.5,9.25C3.5,19.227,7.891,21,12,21s8.5-1.773,8.5-6.75
	C20.5,9.884,16.865,5,12,5z"/>
<circle style="fill:#333333;" cx="10" cy="8.5" r="1"/>
<circle style="fill:#333333;" cx="14" cy="8.5" r="1"/>
<path style="fill:#333333;" d="M10.5,16.25c-1.103,0-2-0.897-2-2h1c0,0.552,0.449,1,1,1c0.311,0,0.535-0.075,0.685-0.229
	c0.357-0.367,0.335-1.185,0.32-1.725L11.5,13h1l0.005,0.27c0.02,0.709,0.049,1.779-0.603,2.449
	C11.559,16.071,11.087,16.25,10.5,16.25z"/>
<path style="fill:#333333;" d="M13.513,16.25c-0.587,0-1.059-0.179-1.402-0.531c-0.651-0.67-0.622-1.74-0.603-2.448L11.513,13h1
	l-0.006,0.297c-0.015,0.541-0.036,1.357,0.32,1.725c0.15,0.153,0.374,0.229,0.686,0.229c0.552,0,1-0.448,1-1h1
	C15.513,15.353,14.615,16.25,13.513,16.25z"/>
<path style="fill:#333333;" d="M12,14.316l-0.234-0.125c-0.84-0.445-1.266-0.888-1.266-1.316c0-0.264,0.108-1.125,1.5-1.125
	s1.5,0.861,1.5,1.125c0,0.429-0.426,0.871-1.266,1.316L12,14.316z M11.531,12.827c0.093,0.092,0.274,0.225,0.469,0.346
	c0.197-0.122,0.378-0.255,0.47-0.347c-0.051-0.027-0.181-0.076-0.47-0.076C11.713,12.75,11.583,12.799,11.531,12.827z
	 M11.476,12.762L11.476,12.762z M12.523,12.762L12.523,12.762L12.523,12.762z"/>
</svg>






