<?xml version="1.0" encoding="iso-8859-1"?>
<svg version="1.1" id="&#x56FE;&#x5C42;_1" xmlns="http://www.w3.org/2000/svg" xmlns:xlink="http://www.w3.org/1999/xlink" x="0px"
	 y="0px" viewBox="0 0 24 24" style="enable-background:new 0 0 24 24;" xml:space="preserve">
<path style="fill:#333333;" d="M15.724,21.947l-0.703-0.591c0.242-0.808,0.824-2.566,1.399-3.805l-0.105-0.146
	c-1.551-2.144-4.105-5.674-7.574-7.259C8.285,11.103,8.01,11.821,8,12.004l-0.964,0.181L6.989,12.07
	c-0.202-0.497-0.716-1.763-0.942-3.201C5.432,8.653,4.669,8.406,4.07,8.212L3.341,7.974c-0.275-0.1-1.583-0.626-1.519-1.565
	c0.056-0.803,1.05-1.159,1.88-1.354c0.867-1.225,3.377-4.655,8.262-2.14c0.701-0.471,2.079-1.204,3.76-0.361l0.695,0.349
	L15.813,3.39c-0.033,0.026-0.315,0.292-0.74,1.887c2.066,1.453,4.729,5.477,4.44,11.482C20.722,17.674,22.5,19.309,22.5,21v0.663
	l-3.95-1.129L15.724,21.947z M8.258,8.864l0.428,0.172c3.954,1.587,6.761,5.466,8.439,7.784l0.458,0.631l-0.136,0.271
	c-0.392,0.787-0.803,1.897-1.108,2.799l2.111-1.056l2.9,0.828c-0.497-1.244-2.095-2.488-2.646-2.89l-0.221-0.162l0.017-0.273
	c0.375-6.025-2.34-9.902-4.256-11.039l-0.32-0.19l0.09-0.361c0.27-1.082,0.506-1.734,0.71-2.141
	c-0.967-0.245-1.763,0.188-2.434,0.667L12.035,4.09l-0.276-0.152c-4.348-2.397-6.397,0.501-7.272,1.74L4.295,5.948l-0.19,0.041
	c-1.144,0.246-1.289,0.51-1.29,0.513C2.846,6.56,3.162,6.845,3.671,7.03l0.707,0.23C5.083,7.489,6.012,7.79,6.671,8.03l0.287,0.105
	l0.038,0.303c0.094,0.754,0.288,1.479,0.48,2.069c0.193-0.445,0.409-0.893,0.576-1.229L8.258,8.864z"/>
<circle style="fill:#333333;" cx="8" cy="5.5" r="1"/>
</svg>






