<?xml version="1.0" encoding="iso-8859-1"?>
<svg version="1.1" id="&#x56FE;&#x5C42;_1" xmlns="http://www.w3.org/2000/svg" xmlns:xlink="http://www.w3.org/1999/xlink" x="0px"
	 y="0px" viewBox="0 0 24 24" style="enable-background:new 0 0 24 24;" xml:space="preserve">
<path style="fill:#333333;" d="M22.422,14.449H1.851v-0.49c0-5.671,4.614-10.286,10.285-10.286c5.672,0,10.286,4.614,10.286,10.286
	V14.449z M2.843,13.469h18.586c-0.256-4.904-4.326-8.816-9.293-8.816S3.099,8.565,2.843,13.469z"/>
<rect x="11.646" y="2.204" style="fill:#333333;" width="0.98" height="1.959"/>
<path style="fill:#333333;" d="M12.136,19.348c-2.971,0-5.387-2.418-5.387-5.389v-0.49h10.776v0.49
	C17.524,16.93,15.106,19.348,12.136,19.348z M7.755,14.449C8,16.65,9.871,18.367,12.136,18.367c2.266,0,4.137-1.717,4.382-3.918
	H7.755z"/>
<rect x="18.993" y="17.729" transform="matrix(0.8193 -0.5733 0.5733 0.8193 -7.1508 14.5324)" style="fill:#333333;" width="0.98" height="1.766"/>
<rect x="3.906" y="18.122" transform="matrix(0.7076 -0.7066 0.7066 0.7076 -11.7513 8.8261)" style="fill:#333333;" width="1.766" height="0.98"/>
<rect x="16.264" y="19.925" transform="matrix(0.8194 -0.5732 0.5732 0.8194 -8.6764 13.2895)" style="fill:#333333;" width="0.979" height="0.98"/>
<rect x="6.957" y="19.925" transform="matrix(0.7071 -0.7071 0.7071 0.7071 -12.2544 11.2453)" style="fill:#333333;" width="0.98" height="0.981"/>
</svg>






