<?xml version="1.0" encoding="iso-8859-1"?>
<svg version="1.1" id="&#x56FE;&#x5C42;_1" xmlns="http://www.w3.org/2000/svg" xmlns:xlink="http://www.w3.org/1999/xlink" x="0px"
	 y="0px" viewBox="0 0 24 24" style="enable-background:new 0 0 24 24;" xml:space="preserve">
<path style="fill:#333333;" d="M15,22.5H4c-0.827,0-1.5-0.673-1.5-1.5V3c0-0.827,0.673-1.5,1.5-1.5h11c0.827,0,1.5,0.673,1.5,1.5v18
	C16.5,21.827,15.827,22.5,15,22.5z M4,2.5C3.724,2.5,3.5,2.724,3.5,3v18c0,0.275,0.224,0.5,0.5,0.5h11c0.275,0,0.5-0.225,0.5-0.5V3
	c0-0.276-0.225-0.5-0.5-0.5H4z"/>
<rect x="7" y="16.5" style="fill:#333333;" width="5" height="1"/>
<path style="fill:#333333;" d="M9.5,11.5c-1.654,0-3-1.346-3-3s1.346-3,3-3c0.866,0,1.667,0.361,2.236,1H21.5v4h-9.764
	C11.167,11.139,10.366,11.5,9.5,11.5z M9.5,6.5c-1.103,0-2,0.897-2,2s0.897,2,2,2c0.635,0,1.218-0.292,1.6-0.8l0.15-0.2h9.25v-2
	h-9.25L11.1,7.3C10.718,6.792,10.135,6.5,9.5,6.5z"/>
</svg>






