<?xml version="1.0" encoding="iso-8859-1"?>
<svg version="1.1" id="&#x56FE;&#x5C42;_1" xmlns="http://www.w3.org/2000/svg" xmlns:xlink="http://www.w3.org/1999/xlink" x="0px"
	 y="0px" viewBox="0 0 24 24" style="enable-background:new 0 0 24 24;" xml:space="preserve">
<g>
	<path style="fill:#333333;" d="M12,16.5c2.485,0,4.5-2.015,4.5-4.5S14.485,7.5,12,7.5S7.5,9.515,7.5,12S9.515,16.5,12,16.5z"/>
	<path style="fill:#333333;" d="M12,17c-2.757,0-5-2.243-5-5s2.243-5,5-5s5,2.243,5,5S14.757,17,12,17z M12,8c-2.206,0-4,1.794-4,4
		c0,2.206,1.794,4,4,4c2.206,0,4-1.794,4-4C16,9.794,14.206,8,12,8z"/>
</g>
</svg>






