<?xml version="1.0" encoding="iso-8859-1"?>
<svg version="1.1" id="&#x56FE;&#x5C42;_1" xmlns="http://www.w3.org/2000/svg" xmlns:xlink="http://www.w3.org/1999/xlink" x="0px"
	 y="0px" viewBox="0 0 24 24" style="enable-background:new 0 0 24 24;" xml:space="preserve">
<path style="fill:#333333;" d="M22,12c0-0.552-0.448-1-1-1s-1,0.448-1,1H22z M12,4c0.552,0,1-0.448,1-1s-0.448-1-1-1V4z M19.5,20
	h-15v2h15V20z M4,19.5v-15H2v15H4z M20,12v7.5h2V12H20z M4.5,4H12V2H4.5V4z M4.5,20C4.224,20,4,19.776,4,19.5H2
	C2,20.881,3.119,22,4.5,22V20z M19.5,22c1.381,0,2.5-1.119,2.5-2.5h-2c0,0.276-0.224,0.5-0.5,0.5V22z M4,4.5C4,4.224,4.224,4,4.5,4
	V2C3.119,2,2,3.119,2,4.5H4z"/>
<path style="fill:#333333;" d="M15.675,18.38l-6.327-5.423c-0.192-0.166-0.477-0.16-0.663,0.01l-5.347,4.901l-0.676-0.736
	l5.347-4.901c0.559-0.513,1.414-0.526,1.99-0.033l6.327,5.423L15.675,18.38z"/>
<path style="fill:#333333;" d="M20.7,15.9l-3.306-2.479c-0.197-0.149-0.479-0.128-0.654,0.046l-2.387,2.387l-0.707-0.707
	l2.387-2.387c0.524-0.524,1.367-0.583,1.961-0.14L21.3,15.1L20.7,15.9z"/>
<polygon style="fill:#333333;" points="18.5,9.707 15.646,6.854 16.354,6.146 18.5,8.293 20.646,6.146 21.354,6.854 "/>
<rect x="18" y="3" style="fill:#333333;" width="1" height="6"/>
</svg>






