<?xml version="1.0" encoding="iso-8859-1"?>
<svg version="1.1" id="&#x56FE;&#x5C42;_1" xmlns="http://www.w3.org/2000/svg" xmlns:xlink="http://www.w3.org/1999/xlink" x="0px"
	 y="0px" viewBox="0 0 24 24" style="enable-background:new 0 0 24 24;" xml:space="preserve">
<path style="fill:#333333;" d="M13.5,20.5h-10c-1.103,0-2-0.897-2-2v-13c0-1.103,0.897-2,2-2h17c1.103,0,2,0.897,2,2V12h-1V5.5
	c0-0.551-0.448-1-1-1h-17c-0.551,0-1,0.449-1,1v13c0,0.552,0.449,1,1,1h10V20.5z"/>
<polygon style="fill:#333333;" points="19.5,21.207 16.646,18.354 17.354,17.646 19.5,19.793 21.646,17.646 22.354,18.354 "/>
<rect x="19" y="14.5" style="fill:#333333;" width="1" height="6"/>
<path style="fill:#333333;" d="M22.5,10.5h-21v-5c0-1.103,0.897-2,2-2h17c1.103,0,2,0.897,2,2V10.5z M2.5,9.5h19v-4
	c0-0.551-0.448-1-1-1h-17c-0.551,0-1,0.449-1,1V9.5z"/>
<circle style="fill:#333333;" cx="5" cy="7" r="1"/>
<circle style="fill:#333333;" cx="8" cy="7" r="1"/>
</svg>






