<?xml version="1.0" encoding="iso-8859-1"?>
<svg version="1.1" id="&#x56FE;&#x5C42;_1" xmlns="http://www.w3.org/2000/svg" xmlns:xlink="http://www.w3.org/1999/xlink" x="0px"
	 y="0px" viewBox="0 0 24 24" style="enable-background:new 0 0 24 24;" xml:space="preserve">
<path style="fill:#333333;" d="M20.5,17h-17V6c0-1.103,0.897-2,2-2h7v1h-7c-0.551,0-1,0.449-1,1v10h15v-3.5h1V17z"/>
<path style="fill:#333333;" d="M19,21H5c-1.93,0-3.5-1.57-3.5-3.5V16h21v1.5C22.5,19.43,20.93,21,19,21z M2.5,17v0.5
	C2.5,18.879,3.622,20,5,20h14c1.379,0,2.5-1.121,2.5-2.5V17H2.5z"/>
<polygon style="fill:#333333;" points="18,10.207 15.146,7.354 15.854,6.646 18,8.793 20.146,6.646 20.854,7.354 "/>
<rect x="17.5" y="3.5" style="fill:#333333;" width="1" height="6"/>
</svg>






