<?xml version="1.0" encoding="iso-8859-1"?>
<svg version="1.1" id="&#x56FE;&#x5C42;_1" xmlns="http://www.w3.org/2000/svg" xmlns:xlink="http://www.w3.org/1999/xlink" x="0px"
	 y="0px" viewBox="0 0 24 24" style="enable-background:new 0 0 24 24;" xml:space="preserve">
<g>
	<defs>
		<rect id="SVGID_1_" width="24" height="24"/>
	</defs>
	<clipPath id="SVGID_00000003097617988636702110000017470856043836667538_">
		<use xlink:href="#SVGID_1_"  style="overflow:visible;"/>
	</clipPath>
	<g style="clip-path:url(#SVGID_00000003097617988636702110000017470856043836667538_);">
		<path style="fill:#333333;" d="M17.364,21.601l-0.707-0.707l1.87-1.87c0.975-0.975,0.975-2.561,0-3.535
			c-0.974-0.975-2.561-0.977-3.536,0l-1.115,1.115l-0.707-0.707l1.115-1.115c1.365-1.364,3.585-1.366,4.95,0
			c0.661,0.661,1.024,1.539,1.024,2.475s-0.363,1.813-1.024,2.475L17.364,21.601z"/>
		<path style="fill:#333333;" d="M8.891,13.104l-0.707-0.707l3.272-3.272c0.472-0.472,0.732-1.1,0.732-1.768
			c0-0.667-0.26-1.295-0.732-1.768c-0.944-0.944-2.591-0.945-3.536,0L4.385,9.124L3.678,8.417l3.536-3.535
			c1.322-1.323,3.629-1.322,4.95,0c0.661,0.661,1.025,1.54,1.025,2.475s-0.364,1.814-1.025,2.475L8.891,13.104z"/>
		<path style="fill:#333333;" d="M6.506,22.524c-0.935,0-1.814-0.364-2.475-1.025c-1.364-1.365-1.364-3.585,0-4.95l4.153-4.152
			l0.707,0.707l-4.153,4.152c-0.975,0.975-0.975,2.562,0,3.536c0.944,0.944,2.591,0.946,3.536,0l4.883-4.883l0.707,0.707
			l-4.883,4.883C8.32,22.16,7.441,22.524,6.506,22.524z"/>
		<rect x="6" y="2" style="fill:#333333;" width="1" height="4"/>
		
			<rect x="18.482" y="13.25" transform="matrix(0.7071 -0.7071 0.7071 0.7071 -3.7916 18.3462)" style="fill:#333333;" width="3.536" height="1"/>
	</g>
</g>
</svg>






