<?xml version="1.0" encoding="iso-8859-1"?>
<svg version="1.1" id="&#x56FE;&#x5C42;_1" xmlns="http://www.w3.org/2000/svg" xmlns:xlink="http://www.w3.org/1999/xlink" x="0px"
	 y="0px" viewBox="0 0 24 24" style="enable-background:new 0 0 24 24;" xml:space="preserve">
<path style="fill:#333333;" d="M12,22.5C6.21,22.5,1.5,17.79,1.5,12c0-2.704,1.025-5.272,2.888-7.232C6.39,2.661,9.094,1.5,12,1.5
	c2.796,0,5.427,1.086,7.408,3.059C21.402,6.544,22.5,9.187,22.5,12c0,2.812-1.098,5.455-3.092,7.441
	C17.427,21.414,14.795,22.5,12,22.5z M12,2.5c-2.629,0-5.076,1.05-6.888,2.957C3.428,7.229,2.5,9.554,2.5,12
	c0,5.238,4.262,9.5,9.5,9.5c2.529,0,4.909-0.982,6.703-2.768C20.507,16.936,21.5,14.545,21.5,12c0-2.545-0.993-4.936-2.797-6.732
	C16.91,3.483,14.529,2.5,12,2.5z"/>
<path style="fill:#333333;" d="M5.333,19.372l-0.802-0.598c1.333-1.788,4.274-4.485,8.181-6.201
	c3.107-1.363,6.534-1.195,8.377-1.106C21.453,11.485,21.762,11.5,22,11.5v1c-0.251,0-0.575-0.016-0.96-0.034
	c-1.884-0.093-5.034-0.246-7.926,1.023C9.386,15.127,6.592,17.682,5.333,19.372z"/>
<path style="fill:#333333;" d="M16.043,21.027c-0.078-0.341-0.169-0.907-0.282-1.623c-0.323-2.026-0.811-5.088-1.733-7.74
	c-1.183-3.401-4.401-6.987-6.116-8.569l0.678-0.735c0.492,0.454,4.848,4.559,6.384,8.977c0.951,2.736,1.467,5.976,1.775,7.911
	c0.109,0.688,0.195,1.231,0.27,1.56L16.043,21.027z"/>
<path style="fill:#333333;" d="M4.225,11.312c-0.954,0-1.726-0.035-2.178-0.062l0.061-0.998c1.062,0.063,6.533,0.312,9.862-1.111
	c2.827-1.207,5.276-3.315,6.454-4.328l0.318-0.272l0.645,0.764l-0.311,0.267c-1.216,1.045-3.744,3.221-6.714,4.489
	C9.921,11.103,6.54,11.312,4.225,11.312z"/>
<path style="fill:#333333;" d="M7.012,21.241c-2.127-1.15-3.805-3.013-4.725-5.244l0.925-0.381c0.832,2.02,2.35,3.704,4.275,4.746
	L7.012,21.241z"/>
<path style="fill:#333333;" d="M2.5,12h-1c0-2.704,1.025-5.272,2.888-7.231l0.725,0.688C3.428,7.23,2.5,9.553,2.5,12z"/>
<path style="fill:#333333;" d="M5.112,5.457L4.388,4.768C6.39,2.661,9.094,1.5,12,1.5v1C9.371,2.5,6.924,3.55,5.112,5.457z"/>
<path style="fill:#333333;" d="M21.839,15.675l-0.938-0.35C21.299,14.263,21.5,13.144,21.5,12c0-2.545-0.993-4.936-2.797-6.732
	C17.861,4.43,16.885,3.764,15.8,3.29l0.4-0.916c1.199,0.524,2.278,1.259,3.208,2.185C21.402,6.544,22.5,9.187,22.5,12
	C22.5,13.264,22.277,14.5,21.839,15.675z"/>
<path style="fill:#333333;" d="M12,22.5v-1c2.529,0,4.909-0.982,6.703-2.768l0.705,0.709C17.427,21.414,14.795,22.5,12,22.5z"/>
</svg>






