<?xml version="1.0" encoding="iso-8859-1"?>
<svg version="1.1" id="&#x56FE;&#x5C42;_1" xmlns="http://www.w3.org/2000/svg" xmlns:xlink="http://www.w3.org/1999/xlink" x="0px"
	 y="0px" viewBox="0 0 24 24" style="enable-background:new 0 0 24 24;" xml:space="preserve">
<rect x="5" y="7.5" style="fill:#333333;" width="14" height="1"/>
<path style="fill:#333333;" d="M15.069,22.5H8.931c-0.783,0-1.44-0.612-1.496-1.393l-0.857-12c-0.03-0.414,0.115-0.825,0.398-1.129
	S7.659,7.5,8.074,7.5h7.852c0.415,0,0.815,0.174,1.098,0.478c0.283,0.304,0.429,0.715,0.399,1.129l-0.857,12
	C16.51,21.888,15.853,22.5,15.069,22.5z M8.074,8.5c-0.141,0-0.271,0.057-0.366,0.159S7.565,8.896,7.575,9.036l0.857,12
	C8.451,21.296,8.67,21.5,8.931,21.5h6.138c0.261,0,0.479-0.204,0.498-0.464l0.857-12c0.01-0.14-0.037-0.274-0.133-0.376
	S16.066,8.5,15.926,8.5H8.074z"/>
<path style="fill:#333333;" d="M12.5,5h-1V3c0-0.827,0.673-1.5,1.5-1.5h1.5v1H13c-0.275,0-0.5,0.224-0.5,0.5V5z"/>
<path style="fill:#333333;" d="M17.59,8.5H6.41l0.458-2.747C6.988,5.027,7.61,4.5,8.347,4.5h7.306c0.735,0,1.357,0.527,1.479,1.252
	L17.59,8.5z M7.59,7.5h8.82l-0.264-1.583C16.105,5.676,15.898,5.5,15.653,5.5H8.347c-0.246,0-0.453,0.176-0.493,0.417L7.59,7.5z"/>
</svg>






