<?xml version="1.0" encoding="iso-8859-1"?>
<svg version="1.1" id="&#x56FE;&#x5C42;_1" xmlns="http://www.w3.org/2000/svg" xmlns:xlink="http://www.w3.org/1999/xlink" x="0px"
	 y="0px" viewBox="0 0 24 24" style="enable-background:new 0 0 24 24;" xml:space="preserve">
<path style="fill:#333333;" d="M17.646,18.354l-3.5-3.5l0.707-0.707l3.5,3.5L17.646,18.354z M9.146,9.854l-3.5-3.5l0.707-0.707
	l3.5,3.5L9.146,9.854z"/>
<path style="fill:#333333;" d="M6.354,18.354l-0.707-0.707l3.5-3.5l0.707,0.707L6.354,18.354z M14.854,9.854l-0.707-0.707l3.5-3.5
	l0.707,0.707L14.854,9.854z"/>
<path style="fill:#333333;" d="M15,15H9V9h6V15z M10,14h4v-4h-4V14z"/>
<path style="fill:#333333;" d="M18,10V9c0.596,0,1.172-0.175,1.666-0.505c0.496-0.331,0.878-0.796,1.105-1.346
	c0.228-0.55,0.286-1.15,0.171-1.734c-0.116-0.583-0.4-1.114-0.821-1.536c-0.421-0.421-0.952-0.705-1.536-0.821
	c-0.584-0.117-1.185-0.057-1.733,0.171c-0.55,0.228-1.015,0.61-1.346,1.105C15.175,4.828,15,5.404,15,6h-1
	c0-0.794,0.233-1.563,0.674-2.222c0.441-0.66,1.062-1.169,1.795-1.473C17.204,2,18.003,1.923,18.78,2.077
	c0.778,0.154,1.486,0.533,2.048,1.094c0.562,0.562,0.94,1.271,1.095,2.049s0.076,1.577-0.228,2.31
	c-0.304,0.734-0.812,1.354-1.474,1.796C19.562,9.767,18.795,10,18,10z"/>
<path style="fill:#333333;" d="M17.998,22c-0.521,0-1.04-0.103-1.529-0.305c-0.733-0.304-1.354-0.813-1.795-1.474
	C14.233,19.562,14,18.795,14,18h1c0,0.596,0.175,1.172,0.506,1.666c0.33,0.495,0.796,0.878,1.346,1.105
	c0.553,0.228,1.152,0.285,1.733,0.171c0.584-0.116,1.114-0.4,1.536-0.821c0.421-0.422,0.705-0.952,0.821-1.536
	s0.057-1.184-0.171-1.733s-0.61-1.016-1.104-1.346C19.172,15.175,18.596,15,18,15v-1c0.795,0,1.562,0.233,2.223,0.674
	c0.659,0.44,1.169,1.062,1.473,1.795s0.382,1.533,0.228,2.312s-0.533,1.486-1.095,2.048s-1.27,0.94-2.048,1.095
	C18.521,21.975,18.259,22,17.998,22z"/>
<path style="fill:#333333;" d="M6.002,22c-0.261,0-0.522-0.025-0.782-0.077c-0.778-0.154-1.486-0.532-2.049-1.095
	c-0.562-0.562-0.94-1.27-1.094-2.048C1.922,18.002,2,17.202,2.305,16.469c0.304-0.732,0.813-1.354,1.473-1.795
	C4.437,14.233,5.206,14,6,14v1c-0.596,0-1.172,0.175-1.667,0.506c-0.495,0.331-0.877,0.796-1.105,1.346
	C3,17.401,2.941,18.001,3.058,18.585s0.4,1.115,0.821,1.536c0.422,0.421,0.953,0.705,1.536,0.821
	C6,21.058,6.598,20.998,7.148,20.771c0.55-0.228,1.015-0.609,1.346-1.104C8.825,19.172,9,18.596,9,18h1
	c0,0.795-0.233,1.562-0.674,2.223c-0.441,0.66-1.062,1.169-1.795,1.473C7.042,21.897,6.523,22,6.002,22z"/>
<path style="fill:#333333;" d="M6,10c-0.794,0-1.563-0.233-2.222-0.674C3.117,8.884,2.608,8.264,2.305,7.53
	C2,6.797,1.922,5.998,2.077,5.22C2.231,4.442,2.61,3.733,3.171,3.171C3.733,2.61,4.442,2.231,5.22,2.077
	C5.998,1.921,6.798,2,7.531,2.305c0.733,0.303,1.354,0.812,1.795,1.473C9.767,4.437,10,5.206,10,6H9
	c0-0.596-0.175-1.172-0.505-1.667C8.164,3.838,7.698,3.456,7.148,3.229C6.598,3,5.999,2.941,5.415,3.058S4.3,3.458,3.878,3.878
	C3.458,4.3,3.174,4.831,3.058,5.415C2.941,5.999,3,6.598,3.229,7.148c0.228,0.55,0.609,1.016,1.105,1.347C4.828,8.825,5.404,9,6,9
	V10z"/>
</svg>






