<?xml version="1.0" encoding="iso-8859-1"?>
<svg version="1.1" id="&#x56FE;&#x5C42;_1" xmlns="http://www.w3.org/2000/svg" xmlns:xlink="http://www.w3.org/1999/xlink" x="0px"
	 y="0px" viewBox="0 0 24 24" style="enable-background:new 0 0 24 24;" xml:space="preserve">
<path style="fill:#333333;" d="M15,9h-1V8c0-1.103-0.897-2-2-2c-1.103,0-2,0.897-2,2v1H9V8c0-1.654,1.346-3,3-3s3,1.346,3,3V9z"/>
<path style="fill:#333333;" d="M14.792,13H9.208L7.823,8.5h8.354L14.792,13z M9.946,12h4.108l0.77-2.5H9.177L9.946,12z"/>
<path style="fill:#333333;" d="M6.5,15H2v-4.5h4.5V15z M3,14h2.5v-2.5H3V14z"/>
<path style="fill:#333333;" d="M22,15h-4.5v-4.5H22V15z M18.5,14H21v-2.5h-2.5V14z"/>
<rect x="2" y="3.5" style="fill:#333333;" width="6" height="1"/>
<rect x="15.5" y="16.234" transform="matrix(0.8682 -0.4961 0.4961 0.8682 -6.9464 10.3428)" style="fill:#333333;" width="1.001" height="4.031"/>
<rect x="5.984" y="17.75" transform="matrix(0.4961 -0.8682 0.8682 0.4961 -11.8145 16.1414)" style="fill:#333333;" width="4.031" height="1"/>
<rect x="16" y="3.5" style="fill:#333333;" width="6" height="1"/>
</svg>






