<?xml version="1.0" encoding="iso-8859-1"?>
<svg version="1.1" id="&#x56FE;&#x5C42;_1" xmlns="http://www.w3.org/2000/svg" xmlns:xlink="http://www.w3.org/1999/xlink" x="0px"
	 y="0px" viewBox="0 0 24 24" style="enable-background:new 0 0 24 24;" xml:space="preserve">
<path style="fill:#333333;" d="M12,19c-2.27,0-4.404-0.884-6.01-2.489C4.384,14.904,3.5,12.771,3.5,10.5s0.884-4.405,2.49-6.01
	S9.729,2,12,2s4.404,0.884,6.011,2.49C19.616,6.096,20.5,8.23,20.5,10.5c0,2.27-0.884,4.404-2.489,6.011
	C16.404,18.116,14.27,19,12,19z M12,3C9.997,3,8.113,3.78,6.697,5.197S4.5,8.497,4.5,10.5s0.78,3.887,2.197,5.304
	C8.114,17.22,9.997,18,12,18s3.887-0.78,5.304-2.196C18.72,14.387,19.5,12.503,19.5,10.5s-0.78-3.886-2.196-5.303
	C15.887,3.78,14.003,3,12,3z"/>
<path style="fill:#333333;" d="M12,22c-3.071,0-5.959-1.196-8.132-3.368l0.707-0.707C6.559,19.908,9.196,21,12,21
	c2.804,0,5.44-1.092,7.425-3.075l0.707,0.707C17.959,20.804,15.071,22,12,22z"/>
</svg>






