<?xml version="1.0" encoding="iso-8859-1"?>
<svg version="1.1" id="&#x56FE;&#x5C42;_1" xmlns="http://www.w3.org/2000/svg" xmlns:xlink="http://www.w3.org/1999/xlink" x="0px"
	 y="0px" viewBox="0 0 24 24" style="enable-background:new 0 0 24 24;" xml:space="preserve">
<path style="fill:#333333;" d="M12,22c-2.27,0-4.404-0.884-6.01-2.489C4.384,17.904,3.5,15.771,3.5,13.5s0.884-4.405,2.49-6.01
	S9.729,5,12,5s4.404,0.884,6.011,2.49c1.605,1.606,2.489,3.74,2.489,6.01c0,2.27-0.884,4.404-2.489,6.011
	C16.404,21.116,14.27,22,12,22z M12,6C9.997,6,8.113,6.78,6.697,8.197S4.5,11.497,4.5,13.5s0.78,3.887,2.197,5.304
	C8.114,20.22,9.997,21,12,21s3.887-0.78,5.304-2.196C18.72,17.387,19.5,15.503,19.5,13.5s-0.78-3.886-2.196-5.303
	C15.887,6.78,14.003,6,12,6z"/>
<path style="fill:#333333;" d="M19.425,6.075C17.441,4.092,14.805,3,12,3S6.559,4.092,4.576,6.075L3.869,5.368
	C6.041,3.196,8.928,2,12,2c3.072,0,5.96,1.196,8.132,3.368L19.425,6.075z"/>
</svg>






