<?xml version="1.0" encoding="iso-8859-1"?>
<svg version="1.1" id="&#x56FE;&#x5C42;_1" xmlns="http://www.w3.org/2000/svg" xmlns:xlink="http://www.w3.org/1999/xlink" x="0px"
	 y="0px" viewBox="0 0 24 24" style="enable-background:new 0 0 24 24;" xml:space="preserve">
<g>
	<defs>
		<rect id="SVGID_1_" width="24" height="24"/>
	</defs>
	<clipPath id="SVGID_00000136376291781855034050000016069140749034116741_">
		<use xlink:href="#SVGID_1_"  style="overflow:visible;"/>
	</clipPath>
	<g style="clip-path:url(#SVGID_00000136376291781855034050000016069140749034116741_);">
		<path style="fill:#333333;" d="M12,13.601L5.099,9L12,4.399L18.901,9L12,13.601z M6.901,9L12,12.399L17.099,9L12,5.601L6.901,9z"
			/>
		<path style="fill:#333333;" d="M18.125,9.685l-6.91-4.607l3.714-3.715l6.284,3.999L18.125,9.685z M12.785,4.922l5.09,3.393
			l1.911-2.677L15.07,2.637L12.785,4.922z"/>
		<path style="fill:#333333;" d="M5.875,9.685L2.787,5.361L9.07,1.363l3.715,3.715L5.875,9.685z M4.213,5.639l1.912,2.677
			l5.09-3.393L8.93,2.637L4.213,5.639z"/>
		<path style="fill:#333333;" d="M15.507,16.119l-4.387-3.134l6.859-4.573l4.43,2.531L15.507,16.119z M12.88,13.015l2.613,1.866
			l5.098-3.824l-2.57-1.469L12.88,13.015z"/>
		<path style="fill:#333333;" d="M8.493,16.119l-6.901-5.176L6.02,8.413l6.86,4.573L8.493,16.119z M3.409,11.057l5.099,3.824
			l2.613-1.866L5.98,9.587L3.409,11.057z"/>
		<polygon style="fill:#333333;" points="12,22.579 5.5,18.787 5.5,14 6.5,14 6.5,18.213 12,21.421 17.5,18.213 17.5,14 18.5,14 
			18.5,18.787 		"/>
	</g>
</g>
</svg>






