<?xml version="1.0" encoding="iso-8859-1"?>
<svg version="1.1" id="&#x56FE;&#x5C42;_1" xmlns="http://www.w3.org/2000/svg" xmlns:xlink="http://www.w3.org/1999/xlink" x="0px"
	 y="0px" viewBox="0 0 24 24" style="enable-background:new 0 0 24 24;" xml:space="preserve">
<path style="fill:#333333;" d="M6.015,22.213l-4.243-4.242l0.283-0.849l5.61-0.801L6.863,21.93L6.015,22.213z M3.186,17.971
	l2.829,2.828l0.471-3.3L3.186,17.971z"/>
<path style="fill:#333333;" d="M11.318,19.164c-1.665,0-3.329-0.633-4.596-1.9c-1.228-1.228-1.904-2.859-1.904-4.596
	c0-1.737,0.676-3.369,1.904-4.597l4.949-4.95l0.707,0.707l-4.949,4.95c-1.039,1.039-1.611,2.42-1.611,3.89
	c0,1.469,0.572,2.85,1.611,3.889c2.145,2.145,5.635,2.145,7.778,0l4.949-4.95l0.707,0.708l-4.949,4.949
	C14.647,18.53,12.982,19.164,11.318,19.164z"/>
<path style="fill:#333333;" d="M18.683,13.135c-1.605,0-3.568-0.914-5.243-2.589c-1.195-1.195-2.049-2.598-2.405-3.951
	c-0.381-1.448-0.154-2.681,0.638-3.473c0.792-0.792,2.022-1.02,3.473-0.638c1.354,0.356,2.757,1.21,3.951,2.405l0,0
	c2.577,2.577,3.354,5.838,1.769,7.424C20.309,12.869,19.548,13.135,18.683,13.135z M13.842,3.304c-0.612,0-1.115,0.177-1.463,0.525
	c-0.53,0.53-0.665,1.422-0.378,2.512c0.312,1.185,1.074,2.427,2.146,3.499c2.105,2.107,4.857,2.918,6.011,1.768
	c1.149-1.15,0.34-3.902-1.769-6.01l0,0c-1.071-1.072-2.313-1.833-3.498-2.145C14.516,3.353,14.164,3.304,13.842,3.304z"/>
<circle style="fill:#333333;" cx="15.03" cy="5.699" r="1"/>
<circle style="fill:#333333;" cx="18.566" cy="9.235" r="1"/>
<circle style="fill:#333333;" cx="15.737" cy="8.528" r="1"/>
</svg>






