<?xml version="1.0" encoding="iso-8859-1"?>
<svg version="1.1" id="&#x56FE;&#x5C42;_1" xmlns="http://www.w3.org/2000/svg" xmlns:xlink="http://www.w3.org/1999/xlink" x="0px"
	 y="0px" viewBox="0 0 24 24" style="enable-background:new 0 0 24 24;" xml:space="preserve">
<path style="fill:#333333;" d="M11.339,22.526c-2.534,0.001-6.381-1.009-7.99-3.482c-0.735-1.129-1.294-3.05,0.212-5.785
	c0.033-0.078,0.19-0.434,1.82-2.61c0.091-0.121,0.124-0.272,0.094-0.425C5.444,10.067,5.347,9.931,5.21,9.85
	c-2.202-1.295-3.443-2.375-3.69-3.208l0.667-0.606c0.692,0.279,1.95-0.179,3.389-2.301c1.303-2.246,3.811-2.53,5.592-1.841
	c1.817,0.701,3.393,2.585,2.82,5.213c-0.379,1.465-1.154,2.054-1.721,2.483c-0.471,0.357-0.701,0.549-0.774,0.992
	c-0.028,0.228,0.664,1.146,2.141,1.639c1.244,0.415,4.413,0.91,6.933-3.47l0.882,0.028c1.078,2.185,1.48,5.88-0.184,8.832
	c-1.106,1.962-3.604,4.403-9.222,4.888C11.823,22.518,11.587,22.526,11.339,22.526z M3.019,7.074
	C3.518,7.555,4.38,8.202,5.717,8.988c0.382,0.225,0.651,0.604,0.739,1.04c0.086,0.429-0.014,0.874-0.274,1.221
	c-1.449,1.935-1.687,2.368-1.725,2.455c-1.037,1.886-1.121,3.486-0.269,4.796c1.476,2.27,5.461,3.205,7.769,3.003
	c4.161-0.358,6.999-1.833,8.437-4.383c1.284-2.277,1.188-5.057,0.515-7.032c-2.948,4.307-6.609,3.434-7.712,3.04
	c-1.661-0.593-2.843-1.782-2.689-2.708c0.141-0.855,0.681-1.265,1.157-1.625c0.524-0.397,1.065-0.808,1.352-1.918
	c0.474-2.172-0.893-3.542-2.208-4.049C9.361,2.266,7.446,2.49,6.434,4.25l-0.02,0.03C5.073,6.265,3.886,6.923,3.019,7.074z"/>
<path style="fill:#333333;" d="M14.139,18.246c-0.255,0-0.512-0.017-0.771-0.05c-1.945-0.25-3.548-1.389-4.275-2.405l0.813-0.582
	c0.581,0.813,1.952,1.785,3.588,1.995c0.939,0.124,2.343,0.031,3.685-1.088l0.641,0.768C16.742,17.782,15.481,18.246,14.139,18.246z
	"/>
<circle style="fill:#333333;" cx="8.5" cy="6" r="1"/>
</svg>






