<?xml version="1.0" encoding="iso-8859-1"?>
<svg version="1.1" id="&#x56FE;&#x5C42;_1" xmlns="http://www.w3.org/2000/svg" xmlns:xlink="http://www.w3.org/1999/xlink" x="0px"
	 y="0px" viewBox="0 0 24 24" style="enable-background:new 0 0 24 24;" xml:space="preserve">
<path style="fill:#333333;" d="M5.5,19c-1.103,0-2-0.808-2-1.8V6.8c0-0.992,0.897-1.8,2-1.8s2,0.808,2,1.8v10.4
	C7.5,18.192,6.603,19,5.5,19z M5.5,6c-0.551,0-1,0.359-1,0.8v10.4c0,0.441,0.449,0.8,1,0.8s1-0.358,1-0.8V6.8
	C6.5,6.359,6.051,6,5.5,6z"/>
<path style="fill:#333333;" d="M18.5,19c-1.103,0-2-0.808-2-1.8V6.8c0-0.992,0.897-1.8,2-1.8s2,0.808,2,1.8v10.4
	C20.5,18.192,19.603,19,18.5,19z M18.5,6c-0.552,0-1,0.359-1,0.8v10.4c0,0.441,0.448,0.8,1,0.8s1-0.358,1-0.8V6.8
	C19.5,6.359,19.052,6,18.5,6z"/>
<path style="fill:#333333;" d="M2.5,16.5c-1.103,0-2-0.822-2-1.833V9.333c0-1.011,0.897-1.833,2-1.833s2,0.822,2,1.833v5.333
	C4.5,15.678,3.603,16.5,2.5,16.5z M2.5,8.5c-0.551,0-1,0.374-1,0.833v5.333c0,0.459,0.449,0.833,1,0.833s1-0.374,1-0.833V9.333
	C3.5,8.874,3.051,8.5,2.5,8.5z"/>
<path style="fill:#333333;" d="M21.5,16.5c-1.103,0-2-0.822-2-1.833V9.333c0-1.011,0.897-1.833,2-1.833s2,0.822,2,1.833v5.333
	C23.5,15.678,22.603,16.5,21.5,16.5z M21.5,8.5c-0.552,0-1,0.374-1,0.833v5.333c0,0.459,0.448,0.833,1,0.833s1-0.374,1-0.833V9.333
	C22.5,8.874,22.052,8.5,21.5,8.5z"/>
<path style="fill:#333333;" d="M17.5,14h-11v-4h11V14z M7.5,13h9v-2h-9V13z"/>
</svg>






