<?xml version="1.0" encoding="iso-8859-1"?>
<svg version="1.1" id="&#x56FE;&#x5C42;_1" xmlns="http://www.w3.org/2000/svg" xmlns:xlink="http://www.w3.org/1999/xlink" x="0px"
	 y="0px" viewBox="0 0 24 24" style="enable-background:new 0 0 24 24;" xml:space="preserve">
<path style="fill:#333333;" d="M6.417,21.276l-0.854-0.52c2.507-4.501,2.617-7.071,2.457-7.616c-0.32-1.312-0.863-2.084-1.619-2.319
	c-0.972-0.3-2.242,0.311-3.067,1.051l-0.46,0.413l-0.308-0.536C1.843,10.488,1.733,9.285,2.24,8.173
	c0.857-1.881,3.188-2.839,4.529-3.135c3.707-3.222,6.871-3.079,8.876-2.384c3.197,1.106,5.398,4.307,5.847,6.756
	c0.423,2.317,0.557,4.359,0.664,6c0.084,1.292,0.151,2.312,0.326,2.959l-0.884,0.429c-2.194-2.954-3.673-3.165-4.226-3.134
	c-0.415,0.033-0.762,0.245-0.93,0.566c-0.684,1.404-1.6,1.89-2.247,2.047c-0.704,0.171-1.447,0.031-1.994-0.376
	c-0.37-0.303-0.78-0.405-1.268-0.334C9.275,17.815,7.282,19.975,6.417,21.276z M5.859,9.744c0.282,0,0.563,0.038,0.838,0.123
	c1.115,0.345,1.886,1.359,2.289,3.015c0.198,0.675,0.122,2.401-0.992,5.149c0.857-0.721,1.83-1.309,2.793-1.453
	c0.771-0.114,1.457,0.063,2.031,0.535c0.292,0.217,0.727,0.296,1.142,0.192c0.439-0.106,1.072-0.458,1.592-1.524
	c0.333-0.642,0.982-1.053,1.743-1.113c0.887-0.08,2.23,0.288,3.959,2.143c-0.034-0.408-0.063-0.854-0.095-1.335
	c-0.105-1.615-0.237-3.626-0.65-5.886c-0.396-2.171-2.351-5.009-5.188-5.991c-2.548-0.88-5.306-0.093-7.988,2.276l-0.102,0.09
	L7.097,5.991C5.634,6.279,3.775,7.215,3.149,8.587c-0.298,0.653-0.29,1.37,0.024,2.135C3.921,10.187,4.896,9.744,5.859,9.744z"/>
<circle style="fill:#333333;" cx="11.5" cy="8" r="1"/>
</svg>






