<?xml version="1.0" encoding="iso-8859-1"?>
<svg version="1.1" id="&#x56FE;&#x5C42;_1" xmlns="http://www.w3.org/2000/svg" xmlns:xlink="http://www.w3.org/1999/xlink" x="0px"
	 y="0px" viewBox="0 0 24 24" style="enable-background:new 0 0 24 24;" xml:space="preserve">
<path style="fill:#333333;" d="M12,22.5C6.21,22.5,1.5,17.79,1.5,12C1.5,6.21,6.21,1.5,12,1.5c5.79,0,10.5,4.71,10.5,10.5
	C22.5,17.79,17.79,22.5,12,22.5z M12,2.5c-5.238,0-9.5,4.262-9.5,9.5s4.262,9.5,9.5,9.5s9.5-4.262,9.5-9.5S17.238,2.5,12,2.5z"/>
<rect x="2" y="11.5" style="fill:#333333;" width="20" height="1"/>
<path style="fill:#333333;" d="M12,22.5c-2.523,0-4.5-4.612-4.5-10.5S9.477,1.5,12,1.5s4.5,4.612,4.5,10.5S14.523,22.5,12,22.5z
	 M12,2.5c-1.655,0-3.5,3.901-3.5,9.5s1.845,9.5,3.5,9.5s3.5-3.901,3.5-9.5S13.655,2.5,12,2.5z"/>
<path style="fill:#333333;" d="M12,8.5c-2.804,0-5.441-1.092-7.425-3.075l0.707-0.707C7.077,6.512,9.463,7.5,12,7.5
	c2.538,0,4.924-0.988,6.718-2.782l0.707,0.707C17.441,7.408,14.805,8.5,12,8.5z"/>
<path style="fill:#333333;" d="M5.282,19.282l-0.707-0.707C6.559,16.592,9.196,15.5,12,15.5c2.805,0,5.441,1.092,7.425,3.075
	l-0.707,0.707C16.924,17.488,14.538,16.5,12,16.5C9.463,16.5,7.077,17.488,5.282,19.282z"/>
</svg>






