<?xml version="1.0" encoding="iso-8859-1"?>
<svg version="1.1" id="&#x56FE;&#x5C42;_1" xmlns="http://www.w3.org/2000/svg" xmlns:xlink="http://www.w3.org/1999/xlink" x="0px"
	 y="0px" viewBox="0 0 24 24" style="enable-background:new 0 0 24 24;" xml:space="preserve">
<path style="fill:#333333;" d="M12.227,22.198c-1.186,0-2.444-0.244-3.885-0.724C5.146,20.409,3,16.75,3,14
	c0-1.609,2.019-2.518,3-2.863V7.5c0-1.241,1.009-2.25,2.25-2.25c0.494,0,0.951,0.16,1.323,0.431C9.826,4.715,10.706,4,11.75,4
	s1.925,0.715,2.177,1.681c0.721-0.525,1.834-0.547,2.573-0.051V3.75c0-1.241,1.01-2.25,2.25-2.25S21,2.509,21,3.75v10.366
	c0,1.449-0.385,2.749-1.113,3.759c-0.729,1.011-1.866,2.362-3.146,3.063l0,0C15.198,21.783,13.774,22.198,12.227,22.198z M8.25,6.25
	C7.561,6.25,7,6.811,7,7.5v3.751c0,0.36-0.231,0.681-0.575,0.797C5.252,12.444,4,13.165,4,14c0,2.353,1.913,5.61,4.658,6.525
	c3.06,1.021,5.121,0.896,7.602-0.464l0,0c1.117-0.611,2.147-1.845,2.816-2.771C19.681,16.451,20,15.354,20,14.116V3.75
	c0-0.689-0.561-1.25-1.25-1.25S17.5,3.061,17.5,3.75V7.5h-1c0-0.689-0.561-1.25-1.25-1.25S14,6.811,14,7.5h-1V6.25
	C13,5.561,12.439,5,11.75,5S10.5,5.561,10.5,6.25V7.5h-1C9.5,6.811,8.939,6.25,8.25,6.25z"/>
</svg>






