<?xml version="1.0" encoding="iso-8859-1"?>
<svg version="1.1" id="&#x56FE;&#x5C42;_1" xmlns="http://www.w3.org/2000/svg" xmlns:xlink="http://www.w3.org/1999/xlink" x="0px"
	 y="0px" viewBox="0 0 24 24" style="enable-background:new 0 0 24 24;" xml:space="preserve">
<path style="fill:#333333;" d="M12,9.5c-2.206,0-4-1.794-4-4s1.794-4,4-4c2.206,0,4,1.794,4,4S14.206,9.5,12,9.5z M12,2.5
	c-1.654,0-3,1.346-3,3s1.346,3,3,3s3-1.346,3-3S13.654,2.5,12,2.5z"/>
<path style="fill:#333333;" d="M2.5,20.5h-1c0-4.687,4.262-8.5,9.5-8.5v1C6.313,13,2.5,16.364,2.5,20.5z"/>
<path style="fill:#333333;" d="M15.707,21.5H13v-2.707l5.5-5.5L21.207,16L15.707,21.5z M14,20.5h1.293l4.5-4.5L18.5,14.707l-4.5,4.5
	V20.5z"/>
</svg>






