<?xml version="1.0" encoding="iso-8859-1"?>
<svg version="1.1" id="&#x56FE;&#x5C42;_1" xmlns="http://www.w3.org/2000/svg" xmlns:xlink="http://www.w3.org/1999/xlink" x="0px"
	 y="0px" viewBox="0 0 24 24" style="enable-background:new 0 0 24 24;" xml:space="preserve">
<path style="fill:#333333;" d="M19,22.5h-3.25v-1H19c0.275,0,0.5-0.225,0.5-0.5v-4.5h1V21C20.5,21.827,19.827,22.5,19,22.5z"/>
<path style="fill:#333333;" d="M8,22.5H5c-0.827,0-1.5-0.673-1.5-1.5V3c0-0.827,0.673-1.5,1.5-1.5h14c0.827,0,1.5,0.673,1.5,1.5v5
	h-1V3c0-0.276-0.225-0.5-0.5-0.5H5C4.724,2.5,4.5,2.724,4.5,3v18c0,0.275,0.224,0.5,0.5,0.5h3V22.5z"/>
<rect x="8" y="7.5" style="fill:#333333;" width="7" height="1"/>
<rect x="8.995" y="16.25" transform="matrix(0.629 -0.7774 0.7774 0.629 -7.1782 18.4592)" style="fill:#333333;" width="13.509" height="1"/>
<rect x="8" y="11.5" style="fill:#333333;" width="4" height="1"/>
</svg>






