<?xml version="1.0" encoding="iso-8859-1"?>
<svg version="1.1" id="&#x56FE;&#x5C42;_1" xmlns="http://www.w3.org/2000/svg" xmlns:xlink="http://www.w3.org/1999/xlink" x="0px"
	 y="0px" viewBox="0 0 24 24" style="enable-background:new 0 0 24 24;" xml:space="preserve">
<path style="fill:#333333;" d="M18.5,22.5h-14C3.673,22.5,3,21.827,3,21V3c0-0.827,0.673-1.5,1.5-1.5h10v1h-10
	C4.224,2.5,4,2.724,4,3v18c0,0.275,0.224,0.5,0.5,0.5h14c0.275,0,0.5-0.225,0.5-0.5V10.002h1V21C20,21.827,19.327,22.5,18.5,22.5z"
	/>
<rect x="6.5" y="8.5" style="fill:#333333;" width="4" height="1"/>
<rect x="6.5" y="13.5" style="fill:#333333;" width="6" height="1"/>
<rect x="13.26" y="5.499" transform="matrix(0.7071 -0.7071 0.7071 0.7071 0.8838 14.1322)" style="fill:#333333;" width="8.482" height="1"/>
</svg>






