<?xml version="1.0" encoding="iso-8859-1"?>
<svg version="1.1" id="&#x56FE;&#x5C42;_1" xmlns="http://www.w3.org/2000/svg" xmlns:xlink="http://www.w3.org/1999/xlink" x="0px"
	 y="0px" viewBox="0 0 24 24" style="enable-background:new 0 0 24 24;" xml:space="preserve">
<path style="fill:#333333;" d="M6.5,21.5c-2.206,0-4-1.794-4-4s1.794-4,4-4s4,1.794,4,4S8.706,21.5,6.5,21.5z M6.5,14.5
	c-1.654,0-3,1.346-3,3s1.346,3,3,3s3-1.346,3-3S8.154,14.5,6.5,14.5z"/>
<path style="fill:#333333;" d="M17.5,21.5c-2.206,0-4-1.794-4-4s1.794-4,4-4s4,1.794,4,4S19.706,21.5,17.5,21.5z M17.5,14.5
	c-1.654,0-3,1.346-3,3s1.346,3,3,3s3-1.346,3-3S19.154,14.5,17.5,14.5z"/>
<rect x="9.5" y="0.361" transform="matrix(0.6757 -0.7372 0.7372 0.6757 -3.023 10.1282)" style="fill:#333333;" width="1" height="16.279"/>
<rect x="5.861" y="8" transform="matrix(0.7367 -0.6762 0.6762 0.7367 -2.0619 11.704)" style="fill:#333333;" width="16.279" height="1"/>
</svg>






