<?xml version="1.0" encoding="iso-8859-1"?>
<svg version="1.1" id="&#x56FE;&#x5C42;_1" xmlns="http://www.w3.org/2000/svg" xmlns:xlink="http://www.w3.org/1999/xlink" x="0px"
	 y="0px" viewBox="0 0 24 24" style="enable-background:new 0 0 24 24;" xml:space="preserve">
<path style="fill:#333333;" d="M20,21.5H4c-0.827,0-1.5-0.673-1.5-1.5V4c0-0.827,0.673-1.5,1.5-1.5h7v1H4C3.724,3.5,3.5,3.724,3.5,4
	v16c0,0.275,0.224,0.5,0.5,0.5h16c0.275,0,0.5-0.225,0.5-0.5v-7h1v7C21.5,20.827,20.827,21.5,20,21.5z"/>
<path style="fill:#333333;" d="M10.866,17.5H6.5v-4.347L17.348,2.292l4.359,4.361L10.866,17.5z M7.5,16.5h2.952l9.841-9.846
	l-2.945-2.946L7.5,13.567V16.5z"/>
</svg>






