<?xml version="1.0" encoding="iso-8859-1"?>
<svg version="1.1" id="&#x56FE;&#x5C42;_1" xmlns="http://www.w3.org/2000/svg" xmlns:xlink="http://www.w3.org/1999/xlink" x="0px"
	 y="0px" viewBox="0 0 24 24" style="enable-background:new 0 0 24 24;" xml:space="preserve">
<path style="fill:#333333;" d="M21.5,8h-1V4.5c0-0.551-0.448-1-1-1h-15c-0.551,0-1,0.449-1,1V8h-1V4.5c0-1.103,0.897-2,2-2h15
	c1.103,0,2,0.897,2,2V8z"/>
<path style="fill:#333333;" d="M19.5,21.5h-15c-1.103,0-2-0.897-2-2V16h1v3.5c0,0.552,0.449,1,1,1h15c0.552,0,1-0.448,1-1V16h1v3.5
	C21.5,20.603,20.603,21.5,19.5,21.5z"/>
<polygon style="fill:#333333;" points="13.358,16.924 9.859,8.926 6.766,12.5 2.5,12.5 2.5,11.5 6.309,11.5 10.141,7.074 
	13.642,15.076 16.76,11.5 21.5,11.5 21.5,12.5 17.215,12.5 "/>
</svg>






