<?xml version="1.0" encoding="iso-8859-1"?>
<svg version="1.1" id="&#x56FE;&#x5C42;_1" xmlns="http://www.w3.org/2000/svg" xmlns:xlink="http://www.w3.org/1999/xlink" x="0px"
	 y="0px" viewBox="0 0 24 24" style="enable-background:new 0 0 24 24;" xml:space="preserve">
<path style="fill:#333333;" d="M12.063,21.463L8.456,16.22L2.11,15.511l-0.34-0.803l3.894-5.035L4.382,3.448l0.657-0.572
	l6.016,2.132l5.552-3.139l0.746,0.449l-0.178,6.352l4.714,4.286l-0.195,0.85L15.568,15.6l-2.638,5.787L12.063,21.463z M3.106,14.615
	l5.915,0.661l3.366,4.893l2.461-5.399l5.71-1.674L16.163,9.1l0.165-5.925L11.15,6.103L5.54,4.115l1.197,5.806L3.106,14.615z"/>
<rect x="19.589" y="17.195" transform="matrix(0.7055 -0.7087 0.7087 0.7055 -8.2705 20.1304)" style="fill:#333333;" width="1" height="5.644"/>
</svg>






