<?xml version="1.0" encoding="iso-8859-1"?>
<svg version="1.1" id="&#x56FE;&#x5C42;_1" xmlns="http://www.w3.org/2000/svg" xmlns:xlink="http://www.w3.org/1999/xlink" x="0px"
	 y="0px" viewBox="0 0 24 24" style="enable-background:new 0 0 24 24;" xml:space="preserve">
<path style="fill:#333333;" d="M19,22H5c-0.827,0-1.5-0.673-1.5-1.5v-17C3.5,2.673,4.173,2,5,2h5v1H5C4.724,3,4.5,3.224,4.5,3.5v17
	C4.5,20.775,4.724,21,5,21h14c0.275,0,0.5-0.225,0.5-0.5v-8.125h1V20.5C20.5,21.327,19.827,22,19,22z"/>
<polygon style="fill:#333333;" points="20.5,8.5 19.5,8.5 19.5,3 14,3 14,2 20.5,2 "/>
<rect x="8.636" y="7" transform="matrix(0.7071 -0.7071 0.7071 0.7071 -0.9099 12.8033)" style="fill:#333333;" width="12.728" height="1"/>
</svg>






