<?xml version="1.0" encoding="iso-8859-1"?>
<svg version="1.1" id="&#x56FE;&#x5C42;_1" xmlns="http://www.w3.org/2000/svg" xmlns:xlink="http://www.w3.org/1999/xlink" x="0px"
	 y="0px" viewBox="0 0 24 24" style="enable-background:new 0 0 24 24;" xml:space="preserve">
<path style="fill:#333333;" d="M19.5,21.5h-15c-1.103,0-2-0.897-2-2v-15c0-1.103,0.897-2,2-2h5v1h-5c-0.551,0-1,0.449-1,1v15
	c0,0.552,0.449,1,1,1h15c0.552,0,1-0.448,1-1v-5h1v5C21.5,20.603,20.603,21.5,19.5,21.5z"/>
<polygon style="fill:#333333;" points="20.525,9.658 18.684,4.132 13.158,5.974 12.842,5.026 19.316,2.868 21.475,9.342 "/>
<path style="fill:#333333;" d="M10.186,14.964l-0.371-0.928c4.736-1.895,6.211-3.193,8.711-10.694l0.949,0.316
	C16.898,11.386,15.274,12.929,10.186,14.964z"/>
</svg>






