<?xml version="1.0" encoding="iso-8859-1"?>
<svg version="1.1" id="&#x56FE;&#x5C42;_1" xmlns="http://www.w3.org/2000/svg" xmlns:xlink="http://www.w3.org/1999/xlink" x="0px"
	 y="0px" viewBox="0 0 24 24" style="enable-background:new 0 0 24 24;" xml:space="preserve">
<path style="fill:#333333;" d="M8.5,18.5c-3.827,0-6.5-3.057-6.5-7.434C2,5.344,5.361,1.5,8.5,1.5S15,5.344,15,11.066
	C15,15.443,12.327,18.5,8.5,18.5z M8.5,2.5C5.898,2.5,3,6.018,3,11.066C3,14.914,5.21,17.5,8.5,17.5s5.5-2.586,5.5-6.434
	C14,6.018,11.102,2.5,8.5,2.5z"/>
<path style="fill:#333333;" d="M13.566,22.5c-3.422,0-5.896-1.686-6.456-4.399l0.979-0.201c0.458,2.221,2.556,3.601,5.476,3.601
	C17.947,21.5,21,19.129,21,17c0-1.915-2.499-4.167-6.537-4.467l0.074-0.998C19.209,11.883,22,14.587,22,17
	C22,19.656,18.611,22.5,13.566,22.5z"/>
</svg>






