<?xml version="1.0" encoding="iso-8859-1"?>
<svg version="1.1" id="&#x56FE;&#x5C42;_1" xmlns="http://www.w3.org/2000/svg" xmlns:xlink="http://www.w3.org/1999/xlink" x="0px"
	 y="0px" viewBox="0 0 24 24" style="enable-background:new 0 0 24 24;" xml:space="preserve">
<path style="fill:#333333;" d="M12,17.5c-3.033,0-5.5-2.468-5.5-5.5c0-3.033,2.467-5.5,5.5-5.5c3.032,0,5.5,2.467,5.5,5.5
	C17.5,15.032,15.032,17.5,12,17.5z M12,7.5c-2.481,0-4.5,2.019-4.5,4.5s2.019,4.5,4.5,4.5s4.5-2.019,4.5-4.5S14.481,7.5,12,7.5z"/>
<path style="fill:#333333;" d="M12,22.5C6.21,22.5,1.5,17.79,1.5,12C1.5,6.21,6.21,1.5,12,1.5c5.79,0,10.5,4.71,10.5,10.5
	c0,1.353-0.253,2.669-0.753,3.911c-0.326,0.812-1.033,0.892-1.658,0.962c-0.642,0.072-1.369,0.154-2.113,0.952
	c-0.724,0.778-0.768,1.437-0.81,2.073c-0.041,0.63-0.088,1.343-0.957,1.724C14.881,22.205,13.464,22.5,12,22.5z M12,2.5
	c-5.238,0-9.5,4.262-9.5,9.5s4.262,9.5,9.5,9.5c1.325,0,2.606-0.268,3.808-0.794c0.287-0.126,0.32-0.257,0.361-0.873
	c0.046-0.697,0.108-1.651,1.075-2.689c0.996-1.068,2-1.182,2.732-1.264c0.636-0.072,0.754-0.12,0.843-0.342
	C21.271,14.415,21.5,13.225,21.5,12C21.5,6.762,17.238,2.5,12,2.5z"/>
<path style="fill:#333333;" d="M11.414,14.492c-0.078-0.013-0.775-0.146-1.268-0.639s-0.625-1.189-0.639-1.268l0.985-0.174
	c0.023,0.127,0.134,0.507,0.361,0.734s0.607,0.338,0.735,0.361L11.414,14.492z"/>
</svg>






