<?xml version="1.0" encoding="iso-8859-1"?>
<svg version="1.1" id="&#x56FE;&#x5C42;_1" xmlns="http://www.w3.org/2000/svg" xmlns:xlink="http://www.w3.org/1999/xlink" x="0px"
	 y="0px" viewBox="0 0 24 24" style="enable-background:new 0 0 24 24;" xml:space="preserve">
<path style="fill:#333333;" d="M7.836,21.499c-1.33,0-2.584-0.36-3.604-1.067C2.792,19.435,2,17.874,2,16.038
	c0-3.083,2.254-3.855,4.065-4.478c0.81-0.278,1.574-0.54,2.135-0.96c1.907-1.43,3.864-4.348,3.884-4.377l0.832,0.555
	C12.832,6.903,10.845,9.866,8.8,11.4c-0.687,0.515-1.563,0.816-2.41,1.107C4.571,13.131,3,13.67,3,16.038
	c0,1.498,0.64,2.767,1.801,3.572c1.462,1.012,3.528,1.169,5.523,0.422c3.218-1.207,4.366-3.76,4.641-4.514
	c0.034-0.093,0.062-0.186,0.091-0.278l1.966-6.387l0.955,0.294l-1.94,6.307c-0.058,0.189-0.092,0.3-0.133,0.409
	c-0.312,0.854-1.61,3.749-5.229,5.104C9.729,21.323,8.764,21.499,7.836,21.499z"/>
<path style="fill:#333333;" d="M19.192,12.491L17.26,9.089l-2.641,0.755c-0.531,0.151-1.084-0.156-1.236-0.686l-0.749-2.621
	L8.53,6.921L8.042,6.188c0.039-0.073,0.982-1.812,3.204-3.119c2.394-1.407,5.265-0.744,6.51,0.002
	c1.484,0.89,2.482,2.665,2.741,4.871c0.191,1.65-0.358,4.293-0.382,4.405L19.192,12.491z M17.261,8.088
	c0.353,0,0.687,0.187,0.868,0.506l1.241,2.185c0.12-0.854,0.226-1.938,0.134-2.721c-0.218-1.867-1.063-3.411-2.261-4.129
	c-1.049-0.629-3.467-1.188-5.49,0.002C10.708,4.546,9.976,5.274,9.52,5.824l3.021-0.283c0.49-0.05,0.924,0.26,1.056,0.723
	l0.748,2.619l2.641-0.755C17.076,8.101,17.169,8.088,17.261,8.088z"/>
<rect x="17.919" y="3" transform="matrix(0.9486 -0.3165 0.3165 0.9486 -0.1052 6.3521)" style="fill:#333333;" width="3.162" height="1"/>
</svg>






