<?xml version="1.0" encoding="iso-8859-1"?>
<svg version="1.1" id="&#x56FE;&#x5C42;_1" xmlns="http://www.w3.org/2000/svg" xmlns:xlink="http://www.w3.org/1999/xlink" x="0px"
	 y="0px" viewBox="0 0 24 24" style="enable-background:new 0 0 24 24;" xml:space="preserve">
<path style="fill:#333333;" d="M5.931,22.254l-0.861-0.508C8.111,16.599,10,9.799,10,4h1C11,9.968,9.058,16.963,5.931,22.254z"/>
<path style="fill:#333333;" d="M18.069,22.254C14.942,16.963,13,9.968,13,4h1c0,5.799,1.89,12.599,4.931,17.746L18.069,22.254z"/>
<rect x="2" y="21.5" style="fill:#333333;" width="20" height="1"/>
<rect x="7" y="14.5" style="fill:#333333;" width="10" height="1"/>
<rect x="8.5" y="10" style="fill:#333333;" width="7" height="1"/>
<rect x="10" y="3.5" style="fill:#333333;" width="4" height="1"/>
<rect x="11.5" y="2" style="fill:#333333;" width="1" height="2"/>
<path style="fill:#333333;" d="M9.48,22.139L8.52,21.861c0.045-0.156,0.461-1.549,1.127-2.215C10.157,19.136,10.793,18.5,12,18.5
	s1.843,0.636,2.354,1.146c0.762,0.762,1.117,2.174,1.132,2.233l-0.971,0.24c-0.083-0.333-0.4-1.299-0.868-1.767
	C13.17,19.877,12.793,19.5,12,19.5s-1.169,0.377-1.646,0.854C9.943,20.764,9.584,21.781,9.48,22.139z"/>
</svg>






