<?xml version="1.0" encoding="iso-8859-1"?>
<svg version="1.1" id="&#x56FE;&#x5C42;_1" xmlns="http://www.w3.org/2000/svg" xmlns:xlink="http://www.w3.org/1999/xlink" x="0px"
	 y="0px" viewBox="0 0 24 24" style="enable-background:new 0 0 24 24;" xml:space="preserve">
<path style="fill:#333333;" d="M19.5,21.5h-15c-1.103,0-2-0.897-2-2v-15c0-1.103,0.897-2,2-2h15c1.103,0,2,0.897,2,2v15
	C21.5,20.603,20.603,21.5,19.5,21.5z M4.5,3.5c-0.551,0-1,0.449-1,1v15c0,0.552,0.449,1,1,1h15c0.552,0,1-0.448,1-1v-15
	c0-0.551-0.448-1-1-1H4.5z"/>
<path style="fill:#333333;" d="M12,11.5c-1.378,0-2.5-1.122-2.5-2.5s1.122-2.5,2.5-2.5c1.379,0,2.5,1.122,2.5,2.5
	S13.379,11.5,12,11.5z M12,7.5c-0.827,0-1.5,0.673-1.5,1.5s0.673,1.5,1.5,1.5s1.5-0.673,1.5-1.5S12.827,7.5,12,7.5z"/>
<path style="fill:#333333;" d="M12,17c-1.654,0-3-1.346-3-3s1.346-3,3-3s3,1.346,3,3S13.654,17,12,17z M12,12c-1.103,0-2,0.897-2,2
	s0.897,2,2,2c1.103,0,2-0.897,2-2S13.103,12,12,12z"/>
</svg>






