<?xml version="1.0" encoding="iso-8859-1"?>
<svg version="1.1" id="&#x56FE;&#x5C42;_1" xmlns="http://www.w3.org/2000/svg" xmlns:xlink="http://www.w3.org/1999/xlink" x="0px"
	 y="0px" viewBox="0 0 24 24" style="enable-background:new 0 0 24 24;" xml:space="preserve">
<g>
	<defs>
		<rect id="SVGID_1_" width="24" height="24"/>
	</defs>
	<clipPath id="SVGID_00000020385396677271937410000018232405780401040025_">
		<use xlink:href="#SVGID_1_"  style="overflow:visible;"/>
	</clipPath>
	<g style="clip-path:url(#SVGID_00000020385396677271937410000018232405780401040025_);">
		<path style="fill:#333333;" d="M8.404,19.594c-0.896,0-1.792-0.341-2.475-1.022c-1.365-1.365-1.365-3.585,0-4.95l9.192-9.192
			c1.364-1.363,3.584-1.365,4.95,0l0,0c0.661,0.661,1.025,1.54,1.025,2.475s-0.364,1.814-1.025,2.475l-9.192,9.193
			C10.196,19.253,9.3,19.594,8.404,19.594z M17.596,4.405c-0.64,0-1.28,0.244-1.768,0.731l-9.192,9.192
			c-0.472,0.473-0.732,1.101-0.732,1.768c0,0.668,0.26,1.296,0.732,1.769c0.975,0.975,2.561,0.975,3.536,0l9.192-9.193
			c0.473-0.472,0.732-1.1,0.732-1.768c0-0.668-0.26-1.296-0.732-1.768C18.877,4.648,18.236,4.405,17.596,4.405z"/>
		
			<rect x="10.5" y="10.672" transform="matrix(0.7071 -0.7071 0.7071 0.7071 -6.3241 11.7322)" style="fill:#333333;" width="1" height="5.657"/>
		
			<rect x="2.379" y="19.5" transform="matrix(0.7071 -0.7071 0.7071 0.7071 -12.8241 9.0398)" style="fill:#333333;" width="4.243" height="1"/>
		<path style="fill:#333333;" d="M17.5,6.67L17.5,6.67c0.478,0.276,0.642,0.888,0.366,1.366l0,0
			C17.59,8.514,16.978,8.678,16.5,8.402l0,0c-0.478-0.276-0.642-0.888-0.366-1.366l0,0C16.41,6.558,17.022,6.394,17.5,6.67z"/>
	</g>
</g>
</svg>






