<?xml version="1.0" encoding="iso-8859-1"?>
<svg version="1.1" id="&#x56FE;&#x5C42;_1" xmlns="http://www.w3.org/2000/svg" xmlns:xlink="http://www.w3.org/1999/xlink" x="0px"
	 y="0px" viewBox="0 0 24 24" style="enable-background:new 0 0 24 24;" xml:space="preserve">
<path style="fill:#333333;" d="M17,19.5H7c-0.827,0-1.5-0.673-1.5-1.5v-7c0-0.827,0.673-1.5,1.5-1.5h10c0.827,0,1.5,0.673,1.5,1.5v7
	C18.5,18.827,17.827,19.5,17,19.5z M7,10.5c-0.276,0-0.5,0.224-0.5,0.5v7c0,0.275,0.224,0.5,0.5,0.5h10c0.275,0,0.5-0.225,0.5-0.5
	v-7c0-0.276-0.225-0.5-0.5-0.5H7z"/>
<path style="fill:#333333;" d="M9.5,10h-1V7c0-2.028,1.472-3.5,3.5-3.5c1.062,0,2.039,0.428,2.681,1.174
	c0.293,0.339,0.512,0.735,0.65,1.176l-0.955,0.3c-0.097-0.311-0.249-0.588-0.453-0.823C13.465,4.793,12.781,4.5,12,4.5
	c-1.472,0-2.5,1.028-2.5,2.5V10z"/>
<rect x="11.5" y="14" style="fill:#333333;" width="1" height="1"/>
<rect x="2.5" y="9" style="fill:#333333;" width="1" height="6"/>
<rect x="20.5" y="9" style="fill:#333333;" width="1" height="6"/>
</svg>






