<?xml version="1.0" encoding="iso-8859-1"?>
<svg version="1.1" id="&#x56FE;&#x5C42;_1" xmlns="http://www.w3.org/2000/svg" xmlns:xlink="http://www.w3.org/1999/xlink" x="0px"
	 y="0px" viewBox="0 0 24 24" style="enable-background:new 0 0 24 24;" xml:space="preserve">
<path style="fill:#333333;" d="M12,22.5C6.21,22.5,1.5,17.79,1.5,12C1.5,6.21,6.21,1.5,12,1.5c5.79,0,10.5,4.71,10.5,10.5
	C22.5,17.79,17.79,22.5,12,22.5z M12,2.5c-5.238,0-9.5,4.262-9.5,9.5s4.262,9.5,9.5,9.5s9.5-4.262,9.5-9.5S17.238,2.5,12,2.5z"/>
<polygon style="fill:#333333;" points="12.905,17.701 11.954,17.582 10.473,8.704 8.714,14.566 5.5,14.566 5.5,13.566 7.97,13.566 
	10.133,6.356 11.105,6.417 12.664,15.761 14.563,11.432 16.665,13.566 18.5,13.566 18.5,14.566 16.247,14.566 14.886,13.186 "/>
</svg>






