<?xml version="1.0" encoding="iso-8859-1"?>
<svg version="1.1" id="&#x56FE;&#x5C42;_1" xmlns="http://www.w3.org/2000/svg" xmlns:xlink="http://www.w3.org/1999/xlink" x="0px"
	 y="0px" viewBox="0 0 24 24" style="enable-background:new 0 0 24 24;" xml:space="preserve">
<path style="fill:#333333;" d="M19.558,13H9.5V4h10.349c0.692,0,1.359,0.291,1.831,0.797c0.471,0.507,0.713,1.194,0.663,1.884
	l-0.292,4C21.956,11.982,20.86,13,19.558,13z M10.5,12h9.058c0.782,0,1.438-0.611,1.495-1.391l0.292-4
	c0.031-0.42-0.11-0.822-0.397-1.13S20.27,5,19.849,5H10.5V12z"/>
<path style="fill:#333333;" d="M15.488,20c-0.846,0-1.64-0.413-2.124-1.106c-0.485-0.691-0.602-1.579-0.312-2.373L14.695,12h5.519
	l-2.288,6.293C17.555,19.314,16.575,20,15.488,20z M15.396,13l-1.405,3.862c-0.18,0.495-0.11,1.026,0.192,1.458
	c0.302,0.432,0.777,0.68,1.305,0.68c0.668,0,1.27-0.422,1.498-1.049l1.8-4.951H15.396z"/>
<path style="fill:#333333;" d="M10.5,11.5h-4v-6h4V11.5z M7.5,10.5h2v-4h-2V10.5z"/>
<rect x="2" y="8" style="fill:#333333;" width="5" height="1"/>
</svg>






