<?xml version="1.0" encoding="iso-8859-1"?>
<svg version="1.1" id="&#x56FE;&#x5C42;_1" xmlns="http://www.w3.org/2000/svg" xmlns:xlink="http://www.w3.org/1999/xlink" x="0px"
	 y="0px" viewBox="0 0 24 24" style="enable-background:new 0 0 24 24;" xml:space="preserve">
<path style="fill:#333333;" d="M21.424,21.5H2V9.356C2,8.884,2.384,8.5,2.856,8.5h6.72C16.427,8.5,22,14.073,22,20.924
	C22,21.241,21.741,21.5,21.424,21.5z M3,20.5h17.992c-0.224-6.104-5.259-11-11.416-11H3V20.5z"/>
<polygon style="fill:#333333;" points="3,9 2,9 2,3.5 12.5,3.5 12.5,4.5 3,4.5 "/>
<path style="fill:#333333;" d="M7.5,16C6.122,16,5,14.879,5,13.5S6.122,11,7.5,11s2.5,1.121,2.5,2.5S8.878,16,7.5,16z M7.5,12
	C6.673,12,6,12.673,6,13.5S6.673,15,7.5,15S9,14.327,9,13.5S8.327,12,7.5,12z"/>
<rect x="2.5" y="17.5" style="fill:#333333;" width="18.5" height="1"/>
<path style="fill:#333333;" d="M18.9,13.3L18.1,12.7c0.58-0.773,1.374-2.316,1.188-3.403c-0.065-0.383-0.251-0.671-0.565-0.881
	c-1.459-0.972-3.242,1.014-3.807,1.861l-0.832-0.555c0.895-1.34,3.13-3.515,5.193-2.139c0.548,0.366,0.884,0.885,0.996,1.544
	C20.531,10.632,19.531,12.458,18.9,13.3z"/>
</svg>






