<?xml version="1.0" encoding="iso-8859-1"?>
<svg version="1.1" id="&#x56FE;&#x5C42;_1" xmlns="http://www.w3.org/2000/svg" xmlns:xlink="http://www.w3.org/1999/xlink" x="0px"
	 y="0px" viewBox="0 0 24 24" style="enable-background:new 0 0 24 24;" xml:space="preserve">
<path style="fill:#333333;" d="M19.5,21.5h-15c-1.103,0-2-0.897-2-2v-15c0-1.103,0.897-2,2-2h15c1.103,0,2,0.897,2,2v15
	C21.5,20.603,20.603,21.5,19.5,21.5z M4.5,3.5c-0.551,0-1,0.449-1,1v15c0,0.552,0.449,1,1,1h15c0.552,0,1-0.448,1-1v-15
	c0-0.551-0.448-1-1-1H4.5z"/>
<polygon style="fill:#333333;" points="11.467,18.18 10.504,18.067 9.278,9.073 7.85,13 6,13 6,12 7.15,12 9.03,6.829 9.996,6.933 
	11.232,16.003 13.033,11.32 13.916,11.223 15.524,13.635 16.75,12 18.5,12 18.5,13 17.25,13 15.476,15.365 13.62,12.581 "/>
</svg>






