<?xml version="1.0" encoding="iso-8859-1"?>
<svg version="1.1" id="&#x56FE;&#x5C42;_1" xmlns="http://www.w3.org/2000/svg" xmlns:xlink="http://www.w3.org/1999/xlink" x="0px"
	 y="0px" viewBox="0 0 24 24" style="enable-background:new 0 0 24 24;" xml:space="preserve">
<path style="fill:#333333;" d="M15,22.5H4c-0.827,0-1.5-0.673-1.5-1.5V3c0-0.827,0.673-1.5,1.5-1.5h11c0.827,0,1.5,0.673,1.5,1.5v18
	C16.5,21.827,15.827,22.5,15,22.5z M4,2.5C3.724,2.5,3.5,2.724,3.5,3v18c0,0.275,0.224,0.5,0.5,0.5h11c0.275,0,0.5-0.225,0.5-0.5V3
	c0-0.276-0.225-0.5-0.5-0.5H4z"/>
<path style="fill:#333333;" d="M20,19.5h-8c-1.378,0-2.5-1.121-2.5-2.5s1.122-2.5,2.5-2.5h8c1.379,0,2.5,1.121,2.5,2.5
	S21.379,19.5,20,19.5z M12,15.5c-0.827,0-1.5,0.673-1.5,1.5s0.673,1.5,1.5,1.5h8c0.827,0,1.5-0.673,1.5-1.5s-0.673-1.5-1.5-1.5H12z"
	/>
<circle style="fill:#333333;" cx="6" cy="6" r="1"/>
<circle style="fill:#333333;" cx="6" cy="9" r="1"/>
<circle style="fill:#333333;" cx="6" cy="12" r="1"/>
<circle style="fill:#333333;" cx="9.5" cy="6" r="1"/>
<circle style="fill:#333333;" cx="9.5" cy="9" r="1"/>
<circle style="fill:#333333;" cx="9.5" cy="12" r="1"/>
<circle style="fill:#333333;" cx="13" cy="6" r="1"/>
<circle style="fill:#333333;" cx="13" cy="9" r="1"/>
<circle style="fill:#333333;" cx="13" cy="12" r="1"/>
</svg>






