<?xml version="1.0" encoding="iso-8859-1"?>
<svg version="1.1" id="&#x56FE;&#x5C42;_1" xmlns="http://www.w3.org/2000/svg" xmlns:xlink="http://www.w3.org/1999/xlink" x="0px"
	 y="0px" viewBox="0 0 24 24" style="enable-background:new 0 0 24 24;" xml:space="preserve">
<path style="fill:#333333;" d="M16.754,20.5h-3.935v-3.109H5.435V20.5H1.5v-9.606c0-1.872,0.615-3.315,1.827-4.291
	C4.712,5.489,6.674,5.222,8.14,5.445c0.11-0.172,0.231-0.338,0.365-0.499c0.74-0.888,1.746-1.438,2.627-1.438
	c0.004,0,0.008,0,0.013,0h3.432c3.471-0.19,4.863,2.66,5.105,4.198l0.006,6.519c0.045,0.298,0.196,0.342,0.261,0.361
	c0.43,0.124,1.238-0.279,1.583-0.686l0.875,0.247c0.351,2.23-0.324,3.505-2.061,3.896c-0.841,0.193-1.591-0.153-2.229-0.489
	c-0.585-0.307-1.021-0.933-1.363-1.528V20.5z M13.819,19.5h1.935v-5.284l0.359-0.305l0.317,0.021
	c0.377,0.072,0.571,0.441,0.895,1.052c0.316,0.6,0.751,1.42,1.257,1.686c0.63,0.33,1.081,0.502,1.545,0.398
	c0.832-0.188,1.39-0.604,1.374-1.88c-0.556,0.323-1.242,0.527-1.833,0.358c-0.313-0.092-0.856-0.377-0.975-1.254l-0.005-6.509
	c-0.188-1.15-1.308-3.429-4.083-3.276l-3.463,0.001c-0.002,0-0.004,0-0.007,0c-0.577,0-1.323,0.433-1.862,1.078
	C8.862,6.08,8.214,7.123,8.489,8.58c0.147,0.778,0.655,2.105,2.406,2.26c0.51,0.048,1.761-0.054,2.56-1.92l0.92,0.394
	c-1.089,2.538-3.01,2.57-3.567,2.522C8.24,11.609,7.632,9.428,7.507,8.765C7.353,7.951,7.414,7.144,7.676,6.396
	C6.501,6.292,4.999,6.542,3.954,7.382C2.989,8.158,2.5,9.34,2.5,10.894V19.5h1.935v-3.109h9.385V19.5z"/>
<circle style="fill:#333333;" cx="16.5" cy="9.5" r="1"/>
</svg>






