<?xml version="1.0" encoding="iso-8859-1"?>
<svg version="1.1" id="&#x56FE;&#x5C42;_1" xmlns="http://www.w3.org/2000/svg" xmlns:xlink="http://www.w3.org/1999/xlink" x="0px"
	 y="0px" viewBox="0 0 24 24" style="enable-background:new 0 0 24 24;" xml:space="preserve">
<path style="fill:none;" d="M21,20.5v-17H3v17H21z"/>
<path style="fill:#333333;" d="M22,21h-1v-0.5V21H3v-0.5V21H2v-1h0.5V4H2V3h20v1h-0.5v16H22V21z M3.5,20h17V4h-17V20z"/>
<rect x="11.5" y="3.5" style="fill:#333333;" width="1" height="17"/>
<rect x="16" y="10" style="fill:#333333;" width="1" height="4"/>
<polygon style="fill:#333333;" points="17.646,11.854 16.5,10.707 15.354,11.854 14.646,11.146 16.5,9.293 18.354,11.146 "/>
<rect x="7" y="10" style="fill:#333333;" width="1" height="4"/>
<polygon style="fill:#333333;" points="7.5,14.707 5.646,12.854 6.354,12.146 7.5,13.293 8.646,12.146 9.354,12.854 "/>
</svg>






