<?xml version="1.0" encoding="iso-8859-1"?>
<svg version="1.1" id="&#x56FE;&#x5C42;_1" xmlns="http://www.w3.org/2000/svg" xmlns:xlink="http://www.w3.org/1999/xlink" x="0px"
	 y="0px" viewBox="0 0 24 24" style="enable-background:new 0 0 24 24;" xml:space="preserve">
<polygon style="fill:#333333;" points="12,20 1.5,20 1.5,4 22.5,4 22.5,12 21.5,12 21.5,5 2.5,5 2.5,19 12,19 "/>
<polygon style="fill:#333333;" points="12,12.625 1.7,4.9 2.3,4.1 12,11.375 21.7,4.1 22.3,4.9 "/>
<path style="fill:#333333;" d="M22,21h-7v-5h7V21z M16,20h5v-3h-5V20z"/>
<path style="fill:#333333;" d="M20.5,16.5h-1V15c0-0.552-0.448-1-1-1s-1,0.448-1,1v1.5h-1V15c0-1.103,0.897-2,2-2s2,0.897,2,2V16.5z
	"/>
</svg>






