<?xml version="1.0" encoding="iso-8859-1"?>
<svg version="1.1" id="&#x56FE;&#x5C42;_1" xmlns="http://www.w3.org/2000/svg" xmlns:xlink="http://www.w3.org/1999/xlink" x="0px"
	 y="0px" viewBox="0 0 24 24" style="enable-background:new 0 0 24 24;" xml:space="preserve">
<polygon style="fill:#333333;" points="12,20 1.5,20 1.5,4 22.5,4 22.5,12 21.5,12 21.5,5 2.5,5 2.5,19 12,19 "/>
<path style="fill:#333333;" d="M18,20c-1.654,0-3-1.346-3-3s1.346-3,3-3s3,1.346,3,3S19.654,20,18,20z M18,15c-1.103,0-2,0.897-2,2
	s0.897,2,2,2s2-0.897,2-2S19.103,15,18,15z"/>
<rect x="20.5" y="18" transform="matrix(0.6 -0.8 0.8 0.6 -7 24.5)" style="fill:#333333;" width="1" height="2.5"/>
<polygon style="fill:#333333;" points="12,12.625 1.7,4.9 2.3,4.1 12,11.375 21.7,4.1 22.3,4.9 "/>
</svg>






