<?xml version="1.0" encoding="iso-8859-1"?>
<svg version="1.1" id="&#x56FE;&#x5C42;_1" xmlns="http://www.w3.org/2000/svg" xmlns:xlink="http://www.w3.org/1999/xlink" x="0px"
	 y="0px" viewBox="0 0 24 24" style="enable-background:new 0 0 24 24;" xml:space="preserve">
<polygon style="fill:#333333;" points="12,20 1.5,20 1.5,4 22.5,4 22.5,12 21.5,12 21.5,5 2.5,5 2.5,19 12,19 "/>
<path style="fill:#333333;" d="M17.5,20.538l-0.186-0.074C17.199,20.418,14.5,19.289,14.5,15c0-0.251,0-0.839,2.814-1.964
	l0.186-0.074l0.186,0.074C20.5,14.161,20.5,14.749,20.5,15c0,4.289-2.699,5.418-2.814,5.464L17.5,20.538z M15.501,15.102
	c0.032,2.916,1.471,4.027,1.999,4.338c0.525-0.309,1.967-1.42,1.999-4.338c-0.221-0.222-1.091-0.684-1.999-1.062
	C16.592,14.418,15.722,14.88,15.501,15.102z"/>
<polygon style="fill:#333333;" points="12,12.625 1.7,4.9 2.3,4.1 12,11.375 21.7,4.1 22.3,4.9 "/>
</svg>






