<?xml version="1.0" encoding="iso-8859-1"?>
<svg version="1.1" id="&#x56FE;&#x5C42;_1" xmlns="http://www.w3.org/2000/svg" xmlns:xlink="http://www.w3.org/1999/xlink" x="0px"
	 y="0px" viewBox="0 0 24 24" style="enable-background:new 0 0 24 24;" xml:space="preserve">
<polygon style="fill:#333333;" points="12,20 1.5,20 1.5,4 22.5,4 22.5,12 21.5,12 21.5,5 2.5,5 2.5,19 12,19 "/>
<polygon style="fill:#333333;" points="12,12.625 1.7,4.9 2.3,4.1 12,11.375 21.7,4.1 22.3,4.9 "/>
<path style="fill:#333333;" d="M20.41,21h-3.82l-1.2-6h6.221L20.41,21z M17.41,20h2.18l0.8-4H16.61L17.41,20z"/>
<rect x="17.382" y="14" transform="matrix(0.4472 -0.8944 0.8944 0.4472 -2.7426 24.5623)" style="fill:#333333;" width="2.236" height="1"/>
</svg>






