<?xml version="1.0" encoding="iso-8859-1"?>
<svg version="1.1" id="&#x56FE;&#x5C42;_1" xmlns="http://www.w3.org/2000/svg" xmlns:xlink="http://www.w3.org/1999/xlink" x="0px"
	 y="0px" viewBox="0 0 24 24" style="enable-background:new 0 0 24 24;" xml:space="preserve">
<g>
	<defs>
		<rect id="SVGID_1_" width="24" height="24"/>
	</defs>
	<clipPath id="SVGID_00000068669101489090224140000010678385339859461822_">
		<use xlink:href="#SVGID_1_"  style="overflow:visible;"/>
	</clipPath>
	<g style="clip-path:url(#SVGID_00000068669101489090224140000010678385339859461822_);">
		<path style="fill:#333333;" d="M6.312,21.5H4.719c-0.455,0-0.88-0.203-1.167-0.558s-0.396-0.812-0.3-1.258l0.428-1.993
			l-0.113-0.128c-0.414-0.464-0.495-1.147-0.202-1.698l0.823-1.549L3.932,5.013C3.92,4.605,4.071,4.219,4.356,3.926
			c0.285-0.293,0.667-0.454,1.076-0.454h3.661c0.446,0,0.866,0.196,1.151,0.539s0.404,0.79,0.325,1.229l-1.702,9.394l-0.054,3.026
			l-1.1,2.877C7.492,21.112,6.929,21.5,6.312,21.5z M5.432,4.472c-0.136,0-0.264,0.054-0.359,0.151
			C4.978,4.721,4.928,4.85,4.932,4.986l0.265,9.567l-0.947,1.781c-0.098,0.185-0.071,0.411,0.067,0.566l0.449,0.508L4.23,19.896
			c-0.032,0.147,0.004,0.301,0.1,0.419C4.426,20.433,4.567,20.5,4.719,20.5h1.592c0.206,0,0.394-0.129,0.467-0.321l1.067-2.792
			l0.012-2.671c0.001-0.089,0.009-0.174,0.024-0.26l1.702-9.396c0.037-0.2-0.052-0.342-0.108-0.409
			c-0.056-0.067-0.18-0.18-0.384-0.18H5.432z"/>
		
			<rect x="6.026" y="12.697" transform="matrix(0.0532 -0.9986 0.9986 0.0532 -8.3332 20.2754)" style="fill:#333333;" width="0.999" height="3.671"/>
		<path style="fill:#333333;" d="M19.289,21.5h-1.59c-0.627,0-1.193-0.396-1.409-0.985l-1.077-3.032l-0.012-2.763l-1.711-9.48
			C13.411,4.8,13.529,4.353,13.814,4.01c0.286-0.342,0.706-0.539,1.152-0.539h3.661c0.408,0,0.79,0.161,1.074,0.454
			c0.285,0.293,0.436,0.679,0.425,1.087l-0.257,9.304l0.823,1.549c0.291,0.551,0.21,1.232-0.201,1.698l-0.119,0.134l0.39,2.019
			c0.084,0.442-0.031,0.894-0.317,1.24C20.159,21.302,19.737,21.5,19.289,21.5z M16.213,17.391l1.017,2.78
			c0.072,0.197,0.261,0.329,0.47,0.329h1.59c0.205,0,0.329-0.113,0.386-0.182c0.095-0.115,0.134-0.267,0.105-0.414l-0.481-2.502
			l0.444-0.502c0.137-0.155,0.164-0.383,0.066-0.567l-0.947-1.78l0.265-9.567c0.004-0.136-0.046-0.265-0.142-0.362
			c-0.095-0.098-0.222-0.151-0.357-0.151h-3.661c-0.204,0-0.328,0.113-0.385,0.18c-0.056,0.067-0.144,0.209-0.107,0.409l1.702,9.395
			c0.016,0.083,0.024,0.173,0.024,0.263L16.213,17.391z"/>
		
			<rect x="15.698" y="14.033" transform="matrix(0.9986 -0.0528 0.0528 0.9986 -0.7424 0.9454)" style="fill:#333333;" width="3.671" height="0.999"/>
	</g>
</g>
</svg>






