<?xml version="1.0" encoding="iso-8859-1"?>
<svg version="1.1" id="&#x56FE;&#x5C42;_1" xmlns="http://www.w3.org/2000/svg" xmlns:xlink="http://www.w3.org/1999/xlink" x="0px"
	 y="0px" viewBox="0 0 24 24" style="enable-background:new 0 0 24 24;" xml:space="preserve">
<path style="fill:#333333;" d="M11.573,22.5c-4.665,0-7.596-2.545-8.042-6.982c-0.34-3.388,2.167-5.775,3.826-7.355
	c0.629-0.6,1.224-1.166,1.363-1.519c0.362-0.917,0.412-2.458,0.148-4.583l0.701-0.518c2.078,0.935,3.551,2.239,4.376,3.876
	c0.65,1.288,0.678,2.766,0.697,3.844c0.008,0.43,0.019,1.001,0.091,1.222c0.224-0.071,0.972-0.517,2.6-3.243l0.379-0.634
	l0.448,0.586c1.553,2.033,2.34,4.688,2.34,7.894C20.5,22.5,14.693,22.5,11.573,22.5z M9.958,2.853
	c0.165,1.852,0.063,3.218-0.308,4.158C9.431,7.568,8.82,8.15,8.047,8.887c-1.609,1.532-3.812,3.63-3.521,6.531
	C4.92,19.34,7.423,21.5,11.573,21.5c4.177,0,7.927-0.49,7.927-6.41c0-2.665-0.574-4.908-1.709-6.678
	c-1.697,2.704-2.532,3.088-3.126,3.088c-0.981,0-1.002-1.127-1.022-2.217c-0.019-1.037-0.043-2.328-0.59-3.413
	C12.44,4.657,11.402,3.645,9.958,2.853z"/>
<path style="fill:#333333;" d="M11.104,19.49c-0.352,0-0.66-0.059-0.888-0.121c-0.925-0.254-2.012-1.035-2.286-2.47
	c-0.314-1.647,0.556-3.419,2.587-5.266l0.832,0.303c0.166,1.232,0.499,2.124,0.987,2.652c0.994,1.074,1.459,1.987,1.42,2.794
	c-0.024,0.516-0.252,0.968-0.674,1.344C12.413,19.323,11.696,19.49,11.104,19.49z M10.529,13.018
	c-1.284,1.346-1.828,2.586-1.616,3.694c0.236,1.236,1.26,1.608,1.568,1.692c0.512,0.141,1.26,0.179,1.937-0.424
	c0.221-0.197,0.329-0.402,0.341-0.646c0.018-0.355-0.169-1.002-1.155-2.066C11.11,14.736,10.756,13.995,10.529,13.018z"/>
</svg>






