<?xml version="1.0" encoding="iso-8859-1"?>
<svg version="1.1" id="&#x56FE;&#x5C42;_1" xmlns="http://www.w3.org/2000/svg" xmlns:xlink="http://www.w3.org/1999/xlink" x="0px"
	 y="0px" viewBox="0 0 24 24" style="enable-background:new 0 0 24 24;" xml:space="preserve">
<path style="fill:none;" d="M8,5c0,1.381-1.119,2.5-2.5,2.5C4.119,7.5,3,6.381,3,5c0-1.381,1.119-2.5,2.5-2.5C6.881,2.5,8,3.619,8,5
	z"/>
<path style="fill:#333333;" d="M5.5,8c-1.654,0-3-1.346-3-3s1.346-3,3-3c1.484,0,2.72,1.083,2.958,2.5h3.834l-1.146-1.146
	l0.707-0.707l2,2L13.5,5l0.354,0.354l-2,2l-0.707-0.707L12.293,5.5H8.458C8.22,6.917,6.984,8,5.5,8z M5.5,3c-1.103,0-2,0.897-2,2
	s0.897,2,2,2s2-0.897,2-2S6.603,3,5.5,3z"/>
<path style="fill:none;" d="M16,19c0,1.381,1.119,2.5,2.5,2.5S21,20.381,21,19s-1.119-2.5-2.5-2.5S16,17.619,16,19z"/>
<path style="fill:#333333;" d="M18.5,22c-1.483,0-2.72-1.083-2.958-2.5h-3.835l1.146,1.146l-0.707,0.707l-2-2L10.5,19l-0.354-0.354
	l2-2l0.707,0.707L11.707,18.5h3.835C15.78,17.083,17.017,16,18.5,16c1.654,0,3,1.346,3,3S20.154,22,18.5,22z M18.5,17
	c-1.103,0-2,0.897-2,2s0.897,2,2,2s2-0.897,2-2S19.603,17,18.5,17z"/>
<path style="fill:none;" d="M16.5,5.5C16.5,6.881,17.619,8,19,8s2.5-1.119,2.5-2.5C21.5,4.119,20.381,3,19,3S16.5,4.119,16.5,5.5z"
	/>
<path style="fill:#333333;" d="M19.354,13.854L19,13.5l-0.354,0.354l-2-2l0.707-0.707l1.146,1.146V8.458
	C17.083,8.22,16,6.984,16,5.5c0-1.654,1.346-3,3-3s3,1.346,3,3c0,1.484-1.083,2.72-2.5,2.958v3.834l1.146-1.146l0.707,0.707
	L19.354,13.854z M19,3.5c-1.103,0-2,0.897-2,2s0.897,2,2,2s2-0.897,2-2S20.103,3.5,19,3.5z"/>
<path style="fill:none;" d="M2.5,18.5C2.5,17.119,3.619,16,5,16c1.381,0,2.5,1.119,2.5,2.5S6.381,21,5,21
	C3.619,21,2.5,19.881,2.5,18.5z"/>
<path style="fill:#333333;" d="M5,21.5c-1.654,0-3-1.346-3-3c0-1.483,1.083-2.72,2.5-2.958v-3.835l-1.146,1.146l-0.707-0.707l2-2
	L5,10.5l0.354-0.354l2,2l-0.707,0.707L5.5,11.707v3.835C6.917,15.78,8,17.017,8,18.5C8,20.154,6.654,21.5,5,21.5z M5,16.5
	c-1.103,0-2,0.897-2,2s0.897,2,2,2s2-0.897,2-2S6.103,16.5,5,16.5z"/>
</svg>






