<?xml version="1.0" encoding="iso-8859-1"?>
<svg version="1.1" id="&#x56FE;&#x5C42;_1" xmlns="http://www.w3.org/2000/svg" xmlns:xlink="http://www.w3.org/1999/xlink" x="0px"
	 y="0px" viewBox="0 0 24 24" style="enable-background:new 0 0 24 24;" xml:space="preserve">
<rect x="13" y="11.5" style="fill:#333333;" width="8" height="1"/>
<path style="fill:#333333;" d="M11,14c-1.103,0-2-0.897-2-2c0-1.103,0.897-2,2-2c1.103,0,2,0.897,2,2C13,13.103,12.103,14,11,14z
	 M11,11c-0.551,0-1,0.449-1,1c0,0.552,0.449,1,1,1s1-0.448,1-1C12,11.449,11.551,11,11,11z"/>
<path style="fill:#333333;" d="M21,20.5H11c-4.687,0-8.5-3.813-8.5-8.5c0-4.687,3.813-8.5,8.5-8.5h10v1H11
	c-4.136,0-7.5,3.364-7.5,7.5s3.364,7.5,7.5,7.5h10V20.5z"/>
</svg>






