<?xml version="1.0" encoding="iso-8859-1"?>
<svg version="1.1" id="&#x56FE;&#x5C42;_1" xmlns="http://www.w3.org/2000/svg" xmlns:xlink="http://www.w3.org/1999/xlink" x="0px"
	 y="0px" viewBox="0 0 24 24" style="enable-background:new 0 0 24 24;" xml:space="preserve">
<polygon style="fill:#333333;" points="21,20.5 2.5,20.5 2.5,3.5 21,3.5 21,4.5 3.5,4.5 3.5,19.5 21,19.5 "/>
<path style="fill:#333333;" d="M12,14c-1.103,0-2-0.897-2-2c0-1.103,0.897-2,2-2c1.103,0,2,0.897,2,2C14,13.103,13.103,14,12,14z
	 M12,11c-0.551,0-1,0.449-1,1c0,0.552,0.449,1,1,1c0.552,0,1-0.448,1-1C13,11.449,12.552,11,12,11z"/>
<rect x="13.5" y="11.5" style="fill:#333333;" width="7.5" height="1"/>
</svg>






