<?xml version="1.0" encoding="iso-8859-1"?>
<svg version="1.1" id="&#x56FE;&#x5C42;_1" xmlns="http://www.w3.org/2000/svg" xmlns:xlink="http://www.w3.org/1999/xlink" x="0px"
	 y="0px" viewBox="0 0 24 24" style="enable-background:new 0 0 24 24;" xml:space="preserve">
<path style="fill:#333333;" d="M21.5,20.5H3v-7h1v6h17.5V20.5z M21.5,12.5H5v-1h16.5V12.5z M4,10.5H3v-7h18.5v1H4V10.5z"/>
<path style="fill:#333333;" d="M3.5,14c-1.103,0-2-0.897-2-2c0-1.103,0.897-2,2-2s2,0.897,2,2C5.5,13.103,4.603,14,3.5,14z M3.5,11
	c-0.551,0-1,0.449-1,1c0,0.552,0.449,1,1,1s1-0.448,1-1C4.5,11.449,4.051,11,3.5,11z"/>
</svg>






