<?xml version="1.0" encoding="iso-8859-1"?>
<svg version="1.1" id="&#x56FE;&#x5C42;_1" xmlns="http://www.w3.org/2000/svg" xmlns:xlink="http://www.w3.org/1999/xlink" x="0px"
	 y="0px" viewBox="0 0 24 24" style="enable-background:new 0 0 24 24;" xml:space="preserve">
<path style="fill:#333333;" d="M20.5,13.5h-17C2.673,13.5,2,12.827,2,12V4c0-0.827,0.673-1.5,1.5-1.5h17C21.327,2.5,22,3.173,22,4v8
	C22,12.827,21.327,13.5,20.5,13.5z M3.5,3.5C3.224,3.5,3,3.724,3,4v8c0,0.275,0.224,0.5,0.5,0.5h17c0.275,0,0.5-0.225,0.5-0.5V4
	c0-0.276-0.225-0.5-0.5-0.5H3.5z"/>
<rect x="5.5" y="13" style="fill:#333333;" width="1" height="8"/>
<rect x="6" y="16" style="fill:#333333;" width="12" height="1"/>
<rect x="4" y="20.5" style="fill:#333333;" width="4" height="1"/>
<rect x="16" y="20.5" style="fill:#333333;" width="4" height="1"/>
<rect x="17.5" y="13" style="fill:#333333;" width="1" height="8"/>
</svg>






