<?xml version="1.0" encoding="iso-8859-1"?>
<svg version="1.1" id="&#x56FE;&#x5C42;_1" xmlns="http://www.w3.org/2000/svg" xmlns:xlink="http://www.w3.org/1999/xlink" x="0px"
	 y="0px" viewBox="0 0 24 24" style="enable-background:new 0 0 24 24;" xml:space="preserve">
<rect x="16" y="2.5" style="fill:#333333;" width="3" height="1"/>
<polygon style="fill:#333333;" points="16.5,18.5 9,18.5 9,17.5 15.5,17.5 15.5,14.5 3.5,14.5 3.5,17.5 5,17.5 5,18.5 2.5,18.5 
	2.5,13.5 16.5,13.5 "/>
<polygon style="fill:#333333;" points="22.5,18.5 20.5,18.5 20.5,17.5 21.5,17.5 21.5,12.109 18.929,6.5 16.5,6.5 16.5,18 15.5,18 
	15.5,5.5 19.571,5.5 22.5,12 "/>
<path style="fill:#333333;" d="M13.5,11.5H3.096l-1.714-8H13.5V11.5z M3.904,10.5H12.5v-6H2.619L3.904,10.5z"/>
<path style="fill:#333333;" d="M18.5,21.5c-1.379,0-2.5-1.121-2.5-2.5s1.121-2.5,2.5-2.5S21,17.621,21,19S19.879,21.5,18.5,21.5z
	 M18.5,17.5c-0.827,0-1.5,0.673-1.5,1.5s0.673,1.5,1.5,1.5S20,19.827,20,19S19.327,17.5,18.5,17.5z"/>
<path style="fill:#333333;" d="M7,21.5c-1.378,0-2.5-1.121-2.5-2.5s1.122-2.5,2.5-2.5s2.5,1.121,2.5,2.5S8.378,21.5,7,21.5z M7,17.5
	c-0.827,0-1.5,0.673-1.5,1.5s0.673,1.5,1.5,1.5s1.5-0.673,1.5-1.5S7.827,17.5,7,17.5z"/>
</svg>






