<?xml version="1.0" encoding="iso-8859-1"?>
<svg version="1.1" id="&#x56FE;&#x5C42;_1" xmlns="http://www.w3.org/2000/svg" xmlns:xlink="http://www.w3.org/1999/xlink" x="0px"
	 y="0px" viewBox="0 0 24 24" style="enable-background:new 0 0 24 24;" xml:space="preserve">
<path style="fill:#333333;" d="M8.064,15.5c-5.255,0-6.43-3.759-6.546-4.188l0.833-0.488c0.309,0.303,1.439,1.084,2.527,0.73l0,0
	c0.595-0.194,0.952-0.648,1.366-1.173c0.57-0.724,1.217-1.544,2.591-1.813c2.049-0.402,3.314,1.021,3.618,2.513
	c0.151,0.739-0.044,1.972-0.828,2.933C11.07,14.691,10.003,15.5,8.064,15.5z M3.232,12.473C3.979,13.428,5.409,14.5,8.064,14.5
	c1.242,0,2.179-0.377,2.786-1.119c0.613-0.751,0.707-1.687,0.623-2.1c-0.201-0.98-0.96-2.024-2.446-1.731
	C8.016,9.747,7.537,10.356,7.028,11c-0.471,0.598-0.958,1.217-1.841,1.505C4.499,12.73,3.82,12.663,3.232,12.473z"/>
<path style="fill:#333333;" d="M15.936,15.5c-1.938,0-3.006-0.809-3.56-1.487c-0.785-0.96-0.979-2.193-0.829-2.932
	c0.305-1.492,1.571-2.914,3.618-2.513c1.375,0.269,2.021,1.089,2.592,1.813c0.414,0.525,0.771,0.979,1.366,1.173l0,0
	c1.092,0.356,2.219-0.428,2.527-0.731l0.832,0.489C22.365,11.741,21.189,15.5,15.936,15.5z M14.484,9.5
	c-1.166,0-1.78,0.915-1.957,1.781c-0.085,0.414,0.01,1.349,0.623,2.1c0.606,0.742,1.544,1.119,2.785,1.119
	c2.655,0,4.085-1.072,4.832-2.027c-0.588,0.19-1.266,0.258-1.955,0.032l0,0c-0.883-0.288-1.37-0.907-1.841-1.505
	c-0.508-0.644-0.988-1.253-1.998-1.451C14.801,9.516,14.638,9.5,14.484,9.5z"/>
</svg>






