<?xml version="1.0" encoding="iso-8859-1"?>
<svg version="1.1" id="&#x56FE;&#x5C42;_1" xmlns="http://www.w3.org/2000/svg" xmlns:xlink="http://www.w3.org/1999/xlink" x="0px"
	 y="0px" viewBox="0 0 24 24" style="enable-background:new 0 0 24 24;" xml:space="preserve">
<path style="fill:#333333;" d="M21,20H3c-0.827,0-1.5-0.673-1.5-1.5v-14C1.5,3.673,2.173,3,3,3h18c0.827,0,1.5,0.673,1.5,1.5v14
	C22.5,19.327,21.827,20,21,20z M3,4C2.724,4,2.5,4.224,2.5,4.5v14C2.5,18.775,2.724,19,3,19h18c0.275,0,0.5-0.225,0.5-0.5v-14
	C21.5,4.224,21.275,4,21,4H3z"/>
<rect x="6" y="9" style="fill:#333333;" width="1" height="1"/>
<rect x="10.5" y="9" style="fill:#333333;" width="1" height="1"/>
<rect x="14.5" y="9" style="fill:#333333;" width="3.5" height="1"/>
<rect x="6" y="13.5" style="fill:#333333;" width="12" height="1"/>
</svg>






