<?xml version="1.0" encoding="iso-8859-1"?>
<svg version="1.1" id="&#x56FE;&#x5C42;_1" xmlns="http://www.w3.org/2000/svg" xmlns:xlink="http://www.w3.org/1999/xlink" x="0px"
	 y="0px" viewBox="0 0 24 24" style="enable-background:new 0 0 24 24;" xml:space="preserve">
<path style="fill:#333333;" d="M8,12.5c-3.033,0-5.5-2.467-5.5-5.5S4.967,1.5,8,1.5s5.5,2.467,5.5,5.5S11.033,12.5,8,12.5z M8,2.5
	C5.519,2.5,3.5,4.519,3.5,7s2.019,4.5,4.5,4.5s4.5-2.019,4.5-4.5S10.481,2.5,8,2.5z"/>
<path style="fill:#333333;" d="M17.638,19.847c-0.227,0-0.454-0.078-0.642-0.234l-8.411-7.233l0.652-0.758l8.406,7.229l2.035-2.047
	c-4.644-5.84-6.996-8.799-7.065-8.885l0.74-0.67c0.03,0.03,0.03,0.03,7.101,8.923c0.326,0.392,0.3,0.971-0.068,1.339l-2.042,2.042
	C18.148,19.747,17.894,19.847,17.638,19.847z"/>
<rect x="13.442" y="11.942" transform="matrix(0.7071 -0.7071 0.7071 0.7071 -5.068 13.6495)" style="fill:#333333;" width="1" height="2"/>
<path style="fill:#333333;" d="M18.147,22.934c-1.12,0-2.254-0.61-3.354-1.203c-0.968-0.521-1.969-1.061-2.799-1.061
	c-1.219,0-2.232,0.549-3.099,1.678l-0.793-0.609c1.053-1.372,2.363-2.068,3.892-2.068c1.082,0,2.195,0.6,3.272,1.18
	c1.113,0.6,2.273,1.219,3.2,1.057c0.816-0.14,1.411-0.602,1.592-1.235c0.146-0.515-0.021-1.049-0.449-1.428l0.664-0.748
	c0.722,0.641,1.001,1.557,0.747,2.45c-0.289,1.012-1.18,1.739-2.384,1.947C18.475,22.92,18.312,22.934,18.147,22.934z"/>
</svg>






