<?xml version="1.0" encoding="iso-8859-1"?>
<svg version="1.1" id="&#x56FE;&#x5C42;_1" xmlns="http://www.w3.org/2000/svg" xmlns:xlink="http://www.w3.org/1999/xlink" x="0px"
	 y="0px" viewBox="0 0 24 24" style="enable-background:new 0 0 24 24;" xml:space="preserve">
<polygon style="fill:#333333;" points="6,16.5 1.5,16.5 1.5,3.5 18.5,3.5 18.5,8 17.5,8 17.5,4.5 2.5,4.5 2.5,15.5 6,15.5 "/>
<path style="fill:#333333;" d="M22.5,20.5h-17v-13h17V20.5z M6.5,19.5h15v-11h-15V19.5z"/>
<polygon style="fill:#333333;" points="14,14.625 5.7,8.4 6.3,7.6 14,13.375 21.7,7.6 22.3,8.4 "/>
<polygon style="fill:#333333;" points="6.5,15.5 5.5,15.5 5.5,7.5 16,7.5 16,8.5 6.5,8.5 "/>
<polygon style="fill:#333333;" points="22.5,15.5 21.5,15.5 21.5,8.5 12,8.5 12,7.5 22.5,7.5 "/>
</svg>






