<?xml version="1.0" encoding="iso-8859-1"?>
<svg version="1.1" id="&#x56FE;&#x5C42;_1" xmlns="http://www.w3.org/2000/svg" xmlns:xlink="http://www.w3.org/1999/xlink" x="0px"
	 y="0px" viewBox="0 0 24 24" style="enable-background:new 0 0 24 24;" xml:space="preserve">
<path style="fill:#333333;" d="M22,11.997c0-0.552-0.448-1-1-1s-1,0.448-1,1H22z M12,3.997c0.552,0,1-0.448,1-1s-0.448-1-1-1V3.997z
	 M19.5,19.997h-15v2h15V19.997z M4,19.497v-15H2v15H4z M20,11.997v7.5h2v-7.5H20z M4.5,3.997H12v-2H4.5V3.997z M4.5,19.997
	c-0.276,0-0.5-0.224-0.5-0.5H2c0,1.381,1.119,2.5,2.5,2.5V19.997z M19.5,21.997c1.381,0,2.5-1.119,2.5-2.5h-2
	c0,0.276-0.224,0.5-0.5,0.5V21.997z M4,4.497c0-0.276,0.224-0.5,0.5-0.5v-2c-1.381,0-2.5,1.119-2.5,2.5H4z"/>
<path style="fill:#333333;" d="M15.675,18.38l-6.327-5.423c-0.192-0.166-0.477-0.16-0.663,0.01l-5.347,4.901l-0.676-0.736
	l5.347-4.901c0.559-0.513,1.414-0.526,1.99-0.033l6.327,5.423L15.675,18.38z"/>
<path style="fill:#333333;" d="M20.7,15.9l-3.306-2.479c-0.197-0.149-0.479-0.128-0.654,0.046l-2.387,2.387l-0.707-0.707
	l2.387-2.387c0.524-0.524,1.367-0.583,1.961-0.14L21.3,15.1L20.7,15.9z"/>
<rect x="18" y="2.672" transform="matrix(0.7071 -0.7071 0.7071 0.7071 1.5294 14.6924)" style="fill:#333333;" width="1" height="5.657"/>
<rect x="15.672" y="5" transform="matrix(0.7071 -0.7071 0.7071 0.7071 1.5294 14.6924)" style="fill:#333333;" width="5.657" height="1"/>
</svg>






