<?xml version="1.0" encoding="iso-8859-1"?>
<svg version="1.1" id="&#x56FE;&#x5C42;_1" xmlns="http://www.w3.org/2000/svg" xmlns:xlink="http://www.w3.org/1999/xlink" x="0px"
	 y="0px" viewBox="0 0 24 24" style="enable-background:new 0 0 24 24;" xml:space="preserve">
<path style="fill:#333333;" d="M19.5,17.5h-15c-1.103,0-2-0.897-2-2v-11c0-1.103,0.897-2,2-2H13v1H4.5c-0.551,0-1,0.449-1,1v11
	c0,0.552,0.449,1,1,1h15c0.552,0,1-0.448,1-1v-4h1v4C21.5,16.603,20.603,17.5,19.5,17.5z"/>
<rect x="11.5" y="17" style="fill:#333333;" width="1" height="4"/>
<rect x="18.5" y="2.672" transform="matrix(0.7071 -0.7071 0.7071 0.7071 1.6759 15.0459)" style="fill:#333333;" width="1" height="5.657"/>
<rect x="16.172" y="5" transform="matrix(0.7071 -0.7071 0.7071 0.7071 1.6759 15.0459)" style="fill:#333333;" width="5.657" height="1"/>
<rect x="7" y="20.5" style="fill:#333333;" width="10" height="1"/>
</svg>






