<?xml version="1.0" encoding="iso-8859-1"?>
<svg version="1.1" id="&#x56FE;&#x5C42;_1" xmlns="http://www.w3.org/2000/svg" xmlns:xlink="http://www.w3.org/1999/xlink" x="0px"
	 y="0px" viewBox="0 0 24 24" style="enable-background:new 0 0 24 24;" xml:space="preserve">
<path style="fill:#333333;" d="M7,17.5c-1.654,0-3-1.346-3-3s1.346-3,3-3s3,1.346,3,3S8.654,17.5,7,17.5z M7,12.5
	c-1.103,0-2,0.897-2,2s0.897,2,2,2s2-0.897,2-2S8.103,12.5,7,12.5z"/>
<path style="fill:#333333;" d="M17,17.5c-1.654,0-3-1.346-3-3s1.346-3,3-3s3,1.346,3,3S18.654,17.5,17,17.5z M17,12.5
	c-1.103,0-2,0.897-2,2s0.897,2,2,2s2-0.897,2-2S18.103,12.5,17,12.5z"/>
<path style="fill:#333333;" d="M12,7.5c-1.654,0-3-1.346-3-3s1.346-3,3-3s3,1.346,3,3S13.654,7.5,12,7.5z M12,2.5
	c-1.103,0-2,0.897-2,2s0.897,2,2,2c1.103,0,2-0.897,2-2S13.103,2.5,12,2.5z"/>
<path style="fill:#333333;" d="M12.5,22h-1c0-2.481-2.019-4.5-4.5-4.5S2.5,19.519,2.5,22h-1c0-3.032,2.467-5.5,5.5-5.5
	S12.5,18.968,12.5,22z"/>
<path style="fill:#333333;" d="M22.5,22h-1c0-2.481-2.019-4.5-4.5-4.5s-4.5,2.019-4.5,4.5h-1c0-3.032,2.468-5.5,5.5-5.5
	S22.5,18.968,22.5,22z"/>
<path style="fill:#333333;" d="M17.5,12h-1c0-2.481-2.019-4.5-4.5-4.5S7.5,9.519,7.5,12h-1c0-3.033,2.467-5.5,5.5-5.5
	C15.032,6.5,17.5,8.967,17.5,12z"/>
</svg>






