<?xml version="1.0" encoding="iso-8859-1"?>
<svg version="1.1" id="&#x56FE;&#x5C42;_1" xmlns="http://www.w3.org/2000/svg" xmlns:xlink="http://www.w3.org/1999/xlink" x="0px"
	 y="0px" viewBox="0 0 24 24" style="enable-background:new 0 0 24 24;" xml:space="preserve">
<path style="fill:#333333;" d="M19,22.5H5c-0.827,0-1.5-0.673-1.5-1.5v-4.5h1V21c0,0.275,0.224,0.5,0.5,0.5h14
	c0.275,0,0.5-0.225,0.5-0.5V3c0-0.276-0.225-0.5-0.5-0.5H5C4.724,2.5,4.5,2.724,4.5,3v4.5h-1V3c0-0.827,0.673-1.5,1.5-1.5h14
	c0.827,0,1.5,0.673,1.5,1.5v18C20.5,21.827,19.827,22.5,19,22.5z"/>
<rect x="15.5" y="7" style="fill:#333333;" width="1.5" height="1"/>
<rect x="14" y="11" style="fill:#333333;" width="3" height="1"/>
<rect x="14" y="15" style="fill:#333333;" width="3" height="1"/>
<path style="fill:#333333;" d="M11.5,17h-10V7h10V17z M2.5,16h8V8h-8V16z"/>
<rect x="6" y="9.879" transform="matrix(0.7071 -0.7071 0.7071 0.7071 -6.5815 8.1109)" style="fill:#333333;" width="1" height="4.243"/>
<rect x="4.379" y="11.5" transform="matrix(0.7071 -0.7071 0.7071 0.7071 -6.5815 8.1109)" style="fill:#333333;" width="4.243" height="1"/>
</svg>






