<?xml version="1.0" encoding="iso-8859-1"?>
<svg version="1.1" id="&#x56FE;&#x5C42;_1" xmlns="http://www.w3.org/2000/svg" xmlns:xlink="http://www.w3.org/1999/xlink" x="0px"
	 y="0px" viewBox="0 0 24 24" style="enable-background:new 0 0 24 24;" xml:space="preserve">
<path style="fill:#333333;" d="M19,21.5H5c-1.378,0-2.5-1.121-2.5-2.5V5c0-1.378,1.122-2.5,2.5-2.5h14c1.379,0,2.5,1.122,2.5,2.5v14
	C21.5,20.379,20.379,21.5,19,21.5z M5,3.5C4.173,3.5,3.5,4.173,3.5,5v14c0,0.827,0.673,1.5,1.5,1.5h14c0.827,0,1.5-0.673,1.5-1.5V5
	c0-0.827-0.673-1.5-1.5-1.5H5z"/>
<rect x="3" y="15.5" style="fill:#333333;" width="18" height="1"/>
<polygon style="fill:#333333;" points="12,10.707 9.646,8.354 10.354,7.646 12,9.293 13.646,7.646 14.354,8.354 "/>
<rect x="2.5" y="13" style="fill:#333333;" width="1" height="6"/>
<rect x="20.5" y="13" style="fill:#333333;" width="1" height="6"/>
</svg>






