<?xml version="1.0" encoding="iso-8859-1"?>
<svg version="1.1" id="&#x56FE;&#x5C42;_1" xmlns="http://www.w3.org/2000/svg" xmlns:xlink="http://www.w3.org/1999/xlink" x="0px"
	 y="0px" viewBox="0 0 24 24" style="enable-background:new 0 0 24 24;" xml:space="preserve">
<polygon style="fill:#333333;" points="5.839,15.218 4.938,14.782 8.509,7.405 8.509,1.5 15.514,1.5 15.514,7.405 19.073,14.783 
	18.173,15.217 14.514,7.52 14.514,2.5 9.509,2.5 9.459,7.737 "/>
<path style="fill:#333333;" d="M19.394,22.5H4.61c-0.32,0-0.642-0.073-0.931-0.213H3.679c-1.06-0.515-1.504-1.795-0.992-2.854
	l2.505-5.174l0.48,0.33c0.135,0.092,3.342,2.248,6.007,0.027c3.254-2.712,7.188-0.056,7.228-0.027l0.108,0.075l2.302,4.771
	c0.14,0.286,0.213,0.607,0.213,0.928C21.53,21.541,20.571,22.5,19.394,22.5z M4.114,21.387C4.268,21.461,4.439,21.5,4.61,21.5
	h14.783c0.627,0,1.137-0.51,1.137-1.137c0-0.17-0.039-0.34-0.113-0.493l-2.184-4.527c-0.596-0.373-3.484-1.983-5.913,0.041
	c-2.57,2.142-5.555,0.935-6.717,0.32l-2.016,4.164C3.314,20.432,3.551,21.112,4.114,21.387L4.114,21.387z"/>
</svg>






