<?xml version="1.0" encoding="iso-8859-1"?>
<svg version="1.1" id="&#x56FE;&#x5C42;_1" xmlns="http://www.w3.org/2000/svg" xmlns:xlink="http://www.w3.org/1999/xlink" x="0px"
	 y="0px" viewBox="0 0 24 24" style="enable-background:new 0 0 24 24;" xml:space="preserve">
<rect x="15.5" y="16.5" style="fill:#333333;" width="6" height="1"/>
<polygon style="fill:#333333;" points="19.354,19.854 18.646,19.146 20.793,17 18.646,14.854 19.354,14.146 22.207,17 "/>
<path style="fill:#333333;" d="M14.235,21H4c-1.103,0-2-0.897-2-2V5c0-1.103,0.897-2,2-2h16c1.103,0,2,0.897,2,2v8h-1V5
	c0-0.551-0.448-1-1-1H4C3.449,4,3,4.449,3,5v14c0,0.552,0.449,1,1,1h10.235V21z"/>
<polygon style="fill:#333333;" points="10,11.281 7.116,7.82 7.884,7.18 10,9.719 12.116,7.18 12.884,7.82 "/>
<rect x="7" y="13" style="fill:#333333;" width="6" height="1"/>
<rect x="7" y="10" style="fill:#333333;" width="6" height="1"/>
<rect x="9.5" y="10.5" style="fill:#333333;" width="1" height="6"/>
</svg>






