<?xml version="1.0" encoding="iso-8859-1"?>
<svg version="1.1" id="&#x56FE;&#x5C42;_1" xmlns="http://www.w3.org/2000/svg" xmlns:xlink="http://www.w3.org/1999/xlink" x="0px"
	 y="0px" viewBox="0 0 24 24" style="enable-background:new 0 0 24 24;" xml:space="preserve">
<path style="fill:#333333;" d="M19,22.5H5c-0.827,0-1.5-0.673-1.5-1.5v-5.5h1V21c0,0.275,0.224,0.5,0.5,0.5h14
	c0.275,0,0.5-0.225,0.5-0.5v-5.5h1V21C20.5,21.827,19.827,22.5,19,22.5z"/>
<path style="fill:#333333;" d="M19,12.5H5c-0.827,0-1.5-0.673-1.5-1.5V8c0-0.827,0.673-1.5,1.5-1.5h14c0.827,0,1.5,0.673,1.5,1.5v3
	C20.5,11.827,19.827,12.5,19,12.5z M5,7.5C4.724,7.5,4.5,7.724,4.5,8v3c0,0.276,0.224,0.5,0.5,0.5h14c0.275,0,0.5-0.224,0.5-0.5V8
	c0-0.276-0.225-0.5-0.5-0.5H5z"/>
<rect x="7.5" y="2" style="fill:#333333;" width="1" height="2"/>
<rect x="11.5" y="2" style="fill:#333333;" width="1" height="2"/>
<rect x="15.5" y="2" style="fill:#333333;" width="1" height="2"/>
<rect x="8" y="16.5" style="fill:#333333;" width="8" height="1"/>
</svg>






