<?xml version="1.0" encoding="iso-8859-1"?>
<svg version="1.1" id="&#x56FE;&#x5C42;_1" xmlns="http://www.w3.org/2000/svg" xmlns:xlink="http://www.w3.org/1999/xlink" x="0px"
	 y="0px" viewBox="0 0 24 24" style="enable-background:new 0 0 24 24;" xml:space="preserve">
<rect x="15" y="12" style="fill:#333333;" width="6" height="1"/>
<polygon style="fill:#333333;" points="18.354,15.854 17.646,15.146 20.293,12.5 17.646,9.854 18.354,9.146 21.707,12.5 "/>
<path style="fill:#333333;" d="M4.692,21.462l-0.385-0.924C7.045,19.396,10,16.189,10,13V3h1v10
	C11,16.602,7.726,20.196,4.692,21.462z"/>
<path style="fill:#333333;" d="M19.5,21.5h-15c-1.103,0-2-0.897-2-2v-15c0-1.103,0.897-2,2-2h15c1.103,0,2,0.897,2,2V7h-1V4.5
	c0-0.551-0.448-1-1-1h-15c-0.551,0-1,0.449-1,1v15c0,0.552,0.449,1,1,1h15c0.552,0,1-0.448,1-1v-1.75h1v1.75
	C21.5,20.603,20.603,21.5,19.5,21.5z"/>
</svg>






