<?xml version="1.0" encoding="iso-8859-1"?>
<svg version="1.1" id="&#x56FE;&#x5C42;_1" xmlns="http://www.w3.org/2000/svg" xmlns:xlink="http://www.w3.org/1999/xlink" x="0px"
	 y="0px" viewBox="0 0 24 24" style="enable-background:new 0 0 24 24;" xml:space="preserve">
<path style="fill:#333333;" d="M12,20.5c-5.151,0-9.219-4.975-9.389-5.187L2.358,15l0.253-0.313C2.781,14.475,6.849,9.5,12,9.5
	c5.15,0,9.219,4.975,9.39,5.187L21.643,15l-0.253,0.313C21.219,15.525,17.15,20.5,12,20.5z M3.663,15
	C4.629,16.069,8.04,19.5,12,19.5c3.961,0,7.371-3.431,8.338-4.5c-0.967-1.069-4.377-4.5-8.338-4.5C8.04,10.5,4.629,13.931,3.663,15z
	"/>
<path style="fill:#333333;" d="M12,17.5c-1.378,0-2.5-1.121-2.5-2.5s1.122-2.5,2.5-2.5c1.379,0,2.5,1.121,2.5,2.5
	S13.379,17.5,12,17.5z M12,13.5c-0.827,0-1.5,0.673-1.5,1.5s0.673,1.5,1.5,1.5s1.5-0.673,1.5-1.5S12.827,13.5,12,13.5z"/>
<path style="fill:#333333;" d="M3.706,9.573c-0.414,0-0.814-0.236-1.102-0.675C2.021,8.006,2.077,6.535,3.18,5.616
	C4.778,4.284,10.42,2.5,14,2.5c3.298,0,5.639,2.107,6.896,3.24c0.157,0.142,0.3,0.271,0.429,0.38l-0.549,0.827
	c-1.183-0.591-4.453-1.512-6.655-0.962c-2.407,0.602-8.953,2.99-9.897,3.462C4.054,9.532,3.878,9.573,3.706,9.573z M14,3.5
	c-3.333,0-8.732,1.678-10.18,2.884c-0.744,0.62-0.669,1.523-0.379,1.966c0.055,0.084,0.197,0.272,0.335,0.202
	c1.028-0.514,7.62-2.917,10.103-3.538c1.462-0.367,3.286-0.173,4.812,0.185C17.496,4.321,15.933,3.5,14,3.5z"/>
</svg>






