<?xml version="1.0" encoding="iso-8859-1"?>
<svg version="1.1" id="&#x56FE;&#x5C42;_1" xmlns="http://www.w3.org/2000/svg" xmlns:xlink="http://www.w3.org/1999/xlink" x="0px"
	 y="0px" viewBox="0 0 24 24" style="enable-background:new 0 0 24 24;" xml:space="preserve">
<path style="fill:#333333;" d="M12,21c-5.027,0-9.5-4.194-9.5-7.5C2.5,10.194,6.973,6,12,6s9.5,4.194,9.5,7.5
	C21.5,16.806,17.027,21,12,21z M12,7c-4.692,0-8.5,3.933-8.5,6.5c0,2.566,3.808,6.5,8.5,6.5c4.692,0,8.5-3.934,8.5-6.5
	C20.5,10.933,16.692,7,12,7z"/>
<path style="fill:#333333;" d="M12,17c-1.93,0-3.5-1.57-3.5-3.5S10.07,10,12,10s3.5,1.57,3.5,3.5S13.93,17,12,17z M12,11
	c-1.378,0-2.5,1.121-2.5,2.5S10.622,16,12,16c1.379,0,2.5-1.121,2.5-2.5S13.379,11,12,11z"/>
<rect x="6.781" y="5.424" transform="matrix(0.8129 -0.5825 0.5825 0.8129 -2.4457 5.4642)" style="fill:#333333;" width="0.999" height="2.227"/>
<rect x="16.051" y="6.261" transform="matrix(0.5823 -0.8129 0.8129 0.5823 1.6729 16.7768)" style="fill:#333333;" width="2.227" height="0.999"/>
<rect x="11.505" y="3.5" style="fill:#333333;" width="1" height="3"/>
</svg>






