<?xml version="1.0" encoding="iso-8859-1"?>
<svg version="1.1" id="&#x56FE;&#x5C42;_1" xmlns="http://www.w3.org/2000/svg" xmlns:xlink="http://www.w3.org/1999/xlink" x="0px"
	 y="0px" viewBox="0 0 24 24" style="enable-background:new 0 0 24 24;" xml:space="preserve">
<path style="fill:#333333;" d="M19.5,21.5h-15c-1.103,0-2-0.897-2-2v-15c0-1.103,0.897-2,2-2h15c1.103,0,2,0.897,2,2v15
	C21.5,20.603,20.603,21.5,19.5,21.5z M4.5,3.5c-0.551,0-1,0.449-1,1v15c0,0.552,0.449,1,1,1h15c0.552,0,1-0.448,1-1v-15
	c0-0.551-0.448-1-1-1H4.5z"/>
<path style="fill:#333333;" d="M14.777,16.5c-1.679,0-2.277-1.127-2.277-2.182h1c0,0.784,0.43,1.182,1.277,1.182
	c0.802,0,1.723-0.228,1.723-2c0-1.978-0.601-2.25-1.25-2.25c-1.131,0-1.937,0.599-1.944,0.605L12.5,11.459V7.5H17v1h-3.5v2.114
	c0.442-0.188,1.044-0.364,1.75-0.364c1.493,0,2.25,1.093,2.25,3.25C17.5,15.435,16.533,16.5,14.777,16.5z"/>
<polygon style="fill:#333333;" points="7.5,16 6.5,16 6.5,7.5 10.5,7.5 10.5,8.5 7.5,8.5 "/>
<rect x="7" y="11.5" style="fill:#333333;" width="3.5" height="1"/>
</svg>






