<?xml version="1.0" encoding="iso-8859-1"?>
<svg version="1.1" id="&#x56FE;&#x5C42;_1" xmlns="http://www.w3.org/2000/svg" xmlns:xlink="http://www.w3.org/1999/xlink" x="0px"
	 y="0px" viewBox="0 0 24 24" style="enable-background:new 0 0 24 24;" xml:space="preserve">
<path style="fill:#333333;" d="M19.5,21.5h-15c-1.103,0-2-0.897-2-2v-15c0-1.103,0.897-2,2-2h15c1.103,0,2,0.897,2,2v15
	C21.5,20.603,20.603,21.5,19.5,21.5z M4.5,3.5c-0.551,0-1,0.449-1,1v15c0,0.552,0.449,1,1,1h15c0.552,0,1-0.448,1-1v-15
	c0-0.551-0.448-1-1-1H4.5z"/>
<path style="fill:#333333;" d="M16.866,16h-1v-1.492H12.5v-1.457l3.446-5.323L16.866,8v5.508H17.5v1h-0.634V16z M13.5,13.508h2.366
	V9.692L13.5,13.346V13.508z"/>
<polygon style="fill:#333333;" points="7.5,16 6.5,16 6.5,7.5 10.5,7.5 10.5,8.5 7.5,8.5 "/>
<rect x="7" y="11.5" style="fill:#333333;" width="3.5" height="1"/>
</svg>






