<?xml version="1.0" encoding="iso-8859-1"?>
<svg version="1.1" id="&#x56FE;&#x5C42;_1" xmlns="http://www.w3.org/2000/svg" xmlns:xlink="http://www.w3.org/1999/xlink" x="0px"
	 y="0px" viewBox="0 0 24 24" style="enable-background:new 0 0 24 24;" xml:space="preserve">
<path style="fill:#333333;" d="M19.5,21.5h-15c-1.103,0-2-0.897-2-2v-15c0-1.103,0.897-2,2-2h15c1.103,0,2,0.897,2,2v15
	C21.5,20.603,20.603,21.5,19.5,21.5z M4.5,3.5c-0.551,0-1,0.449-1,1v15c0,0.552,0.449,1,1,1h15c0.552,0,1-0.448,1-1v-15
	c0-0.551-0.448-1-1-1H4.5z"/>
<rect x="12.5" y="8.5" style="fill:#333333;" width="1" height="7.5"/>
<path style="fill:#333333;" d="M17.5,16h-1v-4.5c0-0.939-0.561-1.5-1.5-1.5c-0.925,0-1.5,0.575-1.5,1.5h-1
	c0-1.472,1.028-2.5,2.5-2.5c1.495,0,2.5,1.005,2.5,2.5V16z"/>
<polygon style="fill:#333333;" points="7.5,16 6.5,16 6.5,7.5 10.5,7.5 10.5,8.5 7.5,8.5 "/>
<rect x="7" y="11.5" style="fill:#333333;" width="3.5" height="1"/>
</svg>






