<?xml version="1.0" encoding="iso-8859-1"?>
<svg version="1.1" id="&#x56FE;&#x5C42;_1" xmlns="http://www.w3.org/2000/svg" xmlns:xlink="http://www.w3.org/1999/xlink" x="0px"
	 y="0px" viewBox="0 0 24 24" style="enable-background:new 0 0 24 24;" xml:space="preserve">
<path style="fill:#333333;" d="M19.5,21.5h-15c-1.103,0-2-0.897-2-2v-15c0-1.103,0.897-2,2-2h15c1.103,0,2,0.897,2,2v15
	C21.5,20.603,20.603,21.5,19.5,21.5z M4.5,3.5c-0.551,0-1,0.449-1,1v15c0,0.552,0.449,1,1,1h15c0.552,0,1-0.448,1-1v-15
	c0-0.551-0.448-1-1-1H4.5z"/>
<path style="fill:#333333;" d="M17,16.5h-4.5V16c0-1.196,1.05-2.205,2.065-3.181C15.517,11.906,16.5,10.961,16.5,10
	c0-1.023-0.896-1.5-1.5-1.5s-1.5,0.477-1.5,1.5h-1c0-1.544,1.298-2.5,2.5-2.5s2.5,0.956,2.5,2.5c0,1.387-1.14,2.481-2.242,3.541
	c-0.682,0.654-1.381,1.326-1.646,1.959H17V16.5z"/>
<polygon style="fill:#333333;" points="7.5,16 6.5,16 6.5,7.5 10.5,7.5 10.5,8.5 7.5,8.5 "/>
<rect x="7" y="11.5" style="fill:#333333;" width="3.5" height="1"/>
</svg>






