<?xml version="1.0" encoding="iso-8859-1"?>
<svg version="1.1" id="&#x56FE;&#x5C42;_1" xmlns="http://www.w3.org/2000/svg" xmlns:xlink="http://www.w3.org/1999/xlink" x="0px"
	 y="0px" viewBox="0 0 24 24" style="enable-background:new 0 0 24 24;" xml:space="preserve">
<path style="fill:#333333;" d="M14.51,22H9.123v-6.968H5.5v-4.798h3.582l0.041-3.112L9.116,6.479C9.091,4.034,11.06,2.025,13.505,2
	H18.5v4.8h-3.507c-0.267,0-0.483,0.217-0.483,0.483v2.951h4.073l-0.738,4.798H14.51V22z M10.123,21h3.387v-6.968h3.478l0.43-2.798
	H13.51V7.283c0-0.818,0.665-1.483,1.483-1.483H17.5V3h-3.95c-1.928,0.019-3.453,1.575-3.434,3.469l0.007,0.654l-0.053,4.111H6.5
	v2.798h3.623V21z"/>
</svg>






