<?xml version="1.0" encoding="iso-8859-1"?>
<svg version="1.1" id="&#x56FE;&#x5C42;_1" xmlns="http://www.w3.org/2000/svg" xmlns:xlink="http://www.w3.org/1999/xlink" x="0px"
	 y="0px" viewBox="0 0 24 24" style="enable-background:new 0 0 24 24;" xml:space="preserve">
<path style="fill:#333333;" d="M12,18.5c-4.121,0-8.5-1.227-8.5-3.5s4.379-3.5,8.5-3.5c4.12,0,8.5,1.227,8.5,3.5S16.12,18.5,12,18.5
	z M12,12.5c-4.292,0-7.5,1.32-7.5,2.5s3.208,2.5,7.5,2.5c4.293,0,7.5-1.32,7.5-2.5S16.293,12.5,12,12.5z"/>
<path style="fill:#333333;" d="M12,12.5c-4.687,0-8.5-2.467-8.5-5.5S7.313,1.5,12,1.5c4.687,0,8.5,2.467,8.5,5.5
	S16.687,12.5,12,12.5z M12,2.5C7.864,2.5,4.5,4.519,4.5,7s3.364,4.5,7.5,4.5s7.5-2.019,7.5-4.5S16.136,2.5,12,2.5z"/>
<rect x="8.792" y="5.25" transform="matrix(0.8574 -0.5146 0.5146 0.8574 -1.4976 6.095)" style="fill:#333333;" width="2.915" height="1"/>
<rect x="12.292" y="7.25" transform="matrix(0.8578 -0.5139 0.5139 0.8578 -2.0282 8.1682)" style="fill:#333333;" width="2.915" height="1"/>
<path style="fill:#333333;" d="M12,22.5c-4.121,0-8.5-1.227-8.5-3.5h1c0,1.18,3.208,2.5,7.5,2.5c4.293,0,7.5-1.32,7.5-2.5h1
	C20.5,21.273,16.12,22.5,12,22.5z"/>
<rect x="19.5" y="15" style="fill:#333333;" width="1" height="4"/>
<rect x="3.5" y="15" style="fill:#333333;" width="1" height="4"/>
<ellipse style="fill:#333333;" cx="12" cy="15" rx="3.5" ry="1"/>
</svg>






