<?xml version="1.0" encoding="iso-8859-1"?>
<svg version="1.1" id="&#x56FE;&#x5C42;_1" xmlns="http://www.w3.org/2000/svg" xmlns:xlink="http://www.w3.org/1999/xlink" x="0px"
	 y="0px" viewBox="0 0 24 24" style="enable-background:new 0 0 24 24;" xml:space="preserve">
<path style="fill:#333333;" d="M19.5,21.5h-15c-1.103,0-2-0.897-2-2v-15c0-1.103,0.897-2,2-2h15c1.103,0,2,0.897,2,2v15
	C21.5,20.603,20.603,21.5,19.5,21.5z M4.5,3.5c-0.551,0-1,0.449-1,1v15c0,0.552,0.449,1,1,1h15c0.552,0,1-0.448,1-1v-15
	c0-0.551-0.448-1-1-1H4.5z"/>
<path style="fill:#333333;" d="M12,18.5c-3.235,0-6.5-1.7-6.5-5.5c0-4.197,4.841-6.821,7.894-7.488L14,5.379v2.256
	c1.437,0.475,4.5,1.737,4.5,5.365C18.5,16.8,15.235,18.5,12,18.5z M13,6.646C10.545,7.371,6.5,9.558,6.5,13
	c0,3.321,2.963,4.5,5.5,4.5s5.5-1.179,5.5-4.5c0-2.892-2.368-3.966-4.149-4.523L13,8.368V6.646z"/>
<ellipse style="fill:#333333;" cx="14.5" cy="13" rx="1.5" ry="2"/>
<ellipse style="fill:#333333;" cx="9.5" cy="13" rx="1.5" ry="2"/>
</svg>






