<?xml version="1.0" encoding="iso-8859-1"?>
<svg version="1.1" id="&#x56FE;&#x5C42;_1" xmlns="http://www.w3.org/2000/svg" xmlns:xlink="http://www.w3.org/1999/xlink" x="0px"
	 y="0px" viewBox="0 0 24 24" style="enable-background:new 0 0 24 24;" xml:space="preserve">
<path style="fill:#333333;" d="M20.5,22h-4v-1h4c0.275,0,0.5-0.225,0.5-0.5v-4h1v4C22,21.327,21.327,22,20.5,22z M7.5,22h-4
	C2.673,22,2,21.327,2,20.5v-4h1v4C3,20.775,3.224,21,3.5,21h4V22z M22,7.5h-1v-4C21,3.224,20.775,3,20.5,3h-4V2h4
	C21.327,2,22,2.673,22,3.5V7.5z M3,7.5H2v-4C2,2.673,2.673,2,3.5,2h4v1h-4C3.224,3,3,3.224,3,3.5V7.5z"/>
<path style="fill:#333333;" d="M12,19.5c-3.584,0-6.5-3.364-6.5-7.5S8.416,4.5,12,4.5s6.5,3.364,6.5,7.5S15.584,19.5,12,19.5z
	 M12,5.5c-3.033,0-5.5,2.916-5.5,6.5s2.467,6.5,5.5,6.5c3.032,0,5.5-2.916,5.5-6.5S15.032,5.5,12,5.5z"/>
<rect x="3" y="11.5" style="fill:#333333;" width="18" height="1"/>
<path style="fill:#333333;" d="M12,16.256c-0.783,0-1.544-0.27-2.263-0.801l0.595-0.805c1.098,0.812,2.234,0.809,3.399-0.007
	l0.574,0.819C13.553,15.989,12.777,16.256,12,16.256z"/>
</svg>






