<?xml version="1.0" encoding="iso-8859-1"?>
<svg version="1.1" id="&#x56FE;&#x5C42;_1" xmlns="http://www.w3.org/2000/svg" xmlns:xlink="http://www.w3.org/1999/xlink" x="0px"
	 y="0px" viewBox="0 0 24 24" style="enable-background:new 0 0 24 24;" xml:space="preserve">
<path style="fill:#333333;" d="M12,20.5c-2.287,0-5.216-1.985-6.758-3.169C4.77,16.97,4.5,16.412,4.5,15.802V7.557
	c0-0.843,0.533-1.6,1.327-1.883l5.5-1.964c0.434-0.156,0.912-0.155,1.345,0l5.5,1.964C18.967,5.958,19.5,6.714,19.5,7.557v8.245
	c0,0.609-0.271,1.167-0.741,1.529C17.216,18.515,14.287,20.5,12,20.5z M12,4.593c-0.114,0-0.228,0.02-0.336,0.058l-5.5,1.964
	C5.767,6.757,5.5,7.136,5.5,7.557v8.245c0,0.297,0.128,0.565,0.351,0.736C7.011,17.429,9.934,19.5,12,19.5
	c2.065,0,4.989-2.071,6.149-2.962c0.223-0.171,0.351-0.439,0.351-0.736V7.557c0-0.421-0.267-0.8-0.663-0.942l-5.5-1.964
	C12.229,4.612,12.114,4.593,12,4.593z"/>
<path style="fill:#333333;" d="M5,14.5c-1.93,0-3.5-1.782-3.5-3.974C1.5,8.575,2.743,7.5,5,7.5v1c-2.241,0-2.5,1.156-2.5,2.026
	c0,1.64,1.122,2.974,2.5,2.974V14.5z"/>
<path style="fill:#333333;" d="M19,14.5v-1c1.379,0,2.5-1.334,2.5-2.974c0-0.87-0.259-2.026-2.5-2.026v-1
	c2.257,0,3.5,1.075,3.5,3.026C22.5,12.718,20.93,14.5,19,14.5z"/>
<polygon style="fill:#333333;" points="15.776,12.947 12,11.059 8.224,12.947 7.776,12.053 12,9.941 16.224,12.053 "/>
<polygon style="fill:#333333;" points="14.314,15.964 12,15.038 9.686,15.964 9.314,15.036 12,13.962 14.686,15.036 "/>
</svg>






