<?xml version="1.0" encoding="iso-8859-1"?>
<svg version="1.1" id="&#x56FE;&#x5C42;_1" xmlns="http://www.w3.org/2000/svg" xmlns:xlink="http://www.w3.org/1999/xlink" x="0px"
	 y="0px" viewBox="0 0 24 24" style="enable-background:new 0 0 24 24;" xml:space="preserve">
<polygon style="fill:#333333;" points="17,22.5 7,22.5 7,17 8,17 8,21.5 16,21.5 16,17 17,17 "/>
<path style="fill:#333333;" d="M16.853,17.5H7.104L4.14,5.641C3.914,4.896,3.902,3.754,4.57,2.855S6.389,1.5,7.993,1.5h7.975
	c0.007,0,0.014,0,0.02,0c1.562,0,2.696,0.436,3.374,1.296c0.868,1.1,0.628,2.453,0.534,2.842
	c-0.616,2.546-2.923,11.399-2.946,11.488L16.853,17.5z M7.885,16.5h8.194c0.447-1.719,2.303-8.86,2.844-11.098
	c0.067-0.278,0.241-1.242-0.347-1.987c-0.481-0.611-1.36-0.962-2.607-0.915H7.993c-1.27,0-2.151,0.32-2.62,0.951
	c-0.446,0.601-0.432,1.388-0.27,1.924L7.885,16.5z"/>
<path style="fill:#333333;" d="M12.037,13.206c-0.998,0-1.973-0.655-2.426-1.63c-0.386-0.83-0.292-1.709,0.25-2.353l0,0
	c0.786-0.933,1.396-2.235,1.723-2.935l0.336-0.719l0.503,0.614c0.62,0.757,1.946,2.625,2.38,3.654
	c0.271,0.643,0.18,1.382-0.249,2.028C14.006,12.692,13.041,13.206,12.037,13.206z M12.138,7.449c-0.367,0.738-0.88,1.67-1.512,2.419
	l0,0c-0.396,0.47-0.238,1.008-0.108,1.287c0.288,0.619,0.913,1.052,1.52,1.052c0.663,0,1.324-0.351,1.685-0.894
	c0.142-0.213,0.35-0.637,0.16-1.086C13.581,9.513,12.76,8.292,12.138,7.449z"/>
</svg>






