<?xml version="1.0" encoding="iso-8859-1"?>
<svg version="1.1" id="&#x56FE;&#x5C42;_1" xmlns="http://www.w3.org/2000/svg" xmlns:xlink="http://www.w3.org/1999/xlink" x="0px"
	 y="0px" viewBox="0 0 24 24" style="enable-background:new 0 0 24 24;" xml:space="preserve">
<path style="fill:#333333;" d="M19,21H5c-1.103,0-2-0.897-2-2V5c0-1.103,0.897-2,2-2h14c1.103,0,2,0.897,2,2v14
	C21,20.103,20.103,21,19,21z M5,4C4.449,4,4,4.449,4,5v14c0,0.552,0.449,1,1,1h14c0.552,0,1-0.448,1-1V5c0-0.551-0.448-1-1-1H5z"/>
<path style="fill:#333333;" d="M20.2,13.4l-3.306-2.48c-0.199-0.15-0.48-0.127-0.654,0.046l-2.387,2.387l-0.707-0.707l2.387-2.387
	c0.524-0.523,1.367-0.585,1.961-0.139L20.8,12.6L20.2,13.4z"/>
<rect x="2.533" y="11" transform="matrix(0.74 -0.6726 0.6726 0.74 -6.1101 7.1941)" style="fill:#333333;" width="7.433" height="1"/>
<rect x="11.5" y="-0.728" transform="matrix(0.7071 -0.7071 0.7071 0.7071 -4.9706 12)" style="fill:#333333;" width="1" height="25.456"/>
</svg>






