<?xml version="1.0" encoding="iso-8859-1"?>
<svg version="1.1" id="&#x56FE;&#x5C42;_1" xmlns="http://www.w3.org/2000/svg" xmlns:xlink="http://www.w3.org/1999/xlink" x="0px"
	 y="0px" viewBox="0 0 24 24" style="enable-background:new 0 0 24 24;" xml:space="preserve">
<path style="fill:#333333;" d="M2.496,14.061l-0.992-0.121c0.459-3.754,3.199-4.86,3.315-4.905l0.362,0.932L5,9.5l0.184,0.465
	C5.09,10.002,2.881,10.922,2.496,14.061z"/>
<path style="fill:#333333;" d="M21.504,14.061c-0.385-3.139-2.594-4.058-2.688-4.095l0.365-0.931
	c0.116,0.045,2.854,1.151,3.314,4.905L21.504,14.061z"/>
<path style="fill:#333333;" d="M11.51,13.101c-0.525-2.552-2.545-3.094-2.631-3.115l0.239-0.971c0.11,0.027,2.715,0.695,3.371,3.885
	L11.51,13.101z"/>
<path style="fill:#333333;" d="M12.49,13.101l-0.98-0.201c0.656-3.19,3.261-3.858,3.372-3.885l0.236,0.972L15,9.5l0.121,0.485
	C15.035,10.007,13.015,10.549,12.49,13.101z"/>
<path style="fill:#333333;" d="M7.473,20.162l-0.946-0.324c0.984-2.87,3.288-3.312,3.385-3.33l0.176,0.984L10,17l0.091,0.491
	C10.017,17.506,8.259,17.869,7.473,20.162z"/>
<path style="fill:#333333;" d="M16.527,20.162c-0.787-2.293-2.544-2.656-2.618-2.671l0.179-0.983c0.098,0.018,2.4,0.46,3.385,3.33
	L16.527,20.162z"/>
<path style="fill:#333333;" d="M12,18.5c-1.654,0-3-1.346-3-3s1.346-3,3-3s3,1.346,3,3S13.654,18.5,12,18.5z M12,13.5
	c-1.103,0-2,0.897-2,2s0.897,2,2,2c1.103,0,2-0.897,2-2S13.103,13.5,12,13.5z"/>
<path style="fill:#333333;" d="M17,10.5c-1.93,0-3.5-1.57-3.5-3.5s1.57-3.5,3.5-3.5s3.5,1.57,3.5,3.5S18.93,10.5,17,10.5z M17,4.5
	c-1.379,0-2.5,1.122-2.5,2.5s1.121,2.5,2.5,2.5s2.5-1.122,2.5-2.5S18.379,4.5,17,4.5z"/>
<path style="fill:#333333;" d="M7,10.5c-1.93,0-3.5-1.57-3.5-3.5S5.07,3.5,7,3.5s3.5,1.57,3.5,3.5S8.93,10.5,7,10.5z M7,4.5
	C5.622,4.5,4.5,5.622,4.5,7S5.622,9.5,7,9.5S9.5,8.378,9.5,7S8.378,4.5,7,4.5z"/>
</svg>






