<?xml version="1.0" encoding="iso-8859-1"?>
<svg version="1.1" id="&#x56FE;&#x5C42;_1" xmlns="http://www.w3.org/2000/svg" xmlns:xlink="http://www.w3.org/1999/xlink" x="0px"
	 y="0px" viewBox="0 0 24 24" style="enable-background:new 0 0 24 24;" xml:space="preserve">
<path style="fill:#333333;" d="M12.499,18h-1v-2.137L1.384,12.576l0.154-0.476c0.723-2.224,2.104-4.125,3.996-5.5
	C7.426,5.227,9.662,4.5,12,4.5c2.338,0,4.575,0.727,6.466,2.101c1.891,1.374,3.272,3.275,3.996,5.5l0.154,0.476l-10.117,3.287V18z
	 M10.164,14.378l0.527,0.171l-0.125-0.171H10.164z M13.433,14.378l-0.124,0.171l0.526-0.171H13.433z M14.159,13.378h1.853
	l-0.926-1.274L14.159,13.378z M12.499,13.378h0.425l1.353-1.863l-1.777-0.577V13.378z M11.076,13.378H11.5v-2.44l-1.776,0.577
	L11.076,13.378z M7.988,13.378H9.84l-0.926-1.274L7.988,13.378z M15.38,10.848c0.854,0.62,1.508,1.445,1.914,2.407l4.051-1.317
	c-0.691-1.819-1.883-3.377-3.467-4.528C16.158,6.161,14.125,5.5,12,5.5c-2.125,0-4.158,0.661-5.877,1.91
	c-1.584,1.151-2.775,2.709-3.467,4.528l4.051,1.317c0.406-0.962,1.061-1.787,1.914-2.407h0l0,0
	C10.599,9.412,13.4,9.412,15.38,10.848L15.38,10.848L15.38,10.848z"/>
</svg>






