<?xml version="1.0" encoding="iso-8859-1"?>
<svg version="1.1" id="&#x56FE;&#x5C42;_1" xmlns="http://www.w3.org/2000/svg" xmlns:xlink="http://www.w3.org/1999/xlink" x="0px"
	 y="0px" viewBox="0 0 24 24" style="enable-background:new 0 0 24 24;" xml:space="preserve">
<path style="fill:#333333;" d="M12.278,22.448c-0.641,0-1.281-0.243-1.768-0.73l-4.95-4.95c-0.974-0.975-0.974-2.561,0-3.535
	l5.657-5.657c0.584-0.584,1.534-0.585,2.121,0l5.657,5.658c0.974,0.975,0.974,2.561,0,3.535l-4.95,4.95
	C13.559,22.205,12.918,22.448,12.278,22.448z M12.278,8.136c-0.128,0-0.256,0.049-0.354,0.146l-5.657,5.657
	c-0.584,0.585-0.584,1.536,0,2.121l4.95,4.95c0.584,0.584,1.538,0.585,2.122,0l4.95-4.95c0.584-0.585,0.584-1.536,0-2.121
	l-5.657-5.657C12.534,8.185,12.406,8.136,12.278,8.136z"/>
<path style="fill:#333333;" d="M15.654,9.831l-0.752-0.66c0.023-0.026,2.273-2.587,3.092-3.597c0.656-0.811,0.68-1.613,0.062-2.146
	c-0.354-0.307-0.691-0.445-1.02-0.424c-0.324,0.026-0.65,0.229-0.968,0.606c-0.911,1.081-3.195,3.643-3.195,3.643l-0.746-0.665
	c0-0.001,2.271-2.548,3.178-3.623c0.496-0.588,1.052-0.911,1.652-0.958c0.594-0.043,1.195,0.183,1.752,0.664
	c1.029,0.887,1.054,2.307,0.062,3.532C17.94,7.229,15.747,9.725,15.654,9.831z"/>
<path style="fill:#333333;" d="M9.346,9.83C9.253,9.725,7.06,7.228,6.229,6.202C5.237,4.978,5.262,3.558,6.291,2.67
	c0.558-0.481,1.17-0.71,1.752-0.665C8.644,2.054,9.2,2.376,9.696,2.964c0.906,1.075,3.177,3.622,3.177,3.623l-0.746,0.665
	c0,0-2.284-2.562-3.196-3.643c-0.317-0.376-0.643-0.58-0.967-0.606C7.645,2.976,7.3,3.121,6.944,3.427
	C6.327,3.96,6.35,4.762,7.006,5.573c0.818,1.01,3.069,3.571,3.091,3.597L9.346,9.83z"/>
</svg>






