<?xml version="1.0" encoding="iso-8859-1"?>
<svg version="1.1" id="&#x56FE;&#x5C42;_1" xmlns="http://www.w3.org/2000/svg" xmlns:xlink="http://www.w3.org/1999/xlink" x="0px"
	 y="0px" viewBox="0 0 24 24" style="enable-background:new 0 0 24 24;" xml:space="preserve">
<path style="fill-rule:evenodd;clip-rule:evenodd;fill:#333333;" d="M3.927,12.06C2.597,10.451,1.588,8.562,1,6.494
	c1.184,1.606,2.623,3.009,4.256,4.15c2.711-2.545,6.345-4.102,10.341-4.104c2.62,0,4.948,1.234,6.451,3.156
	c0.085,0.101,0.163,0.207,0.236,0.316c0.336,0.505,0.551,1.099,0.603,1.739c-0.621-0.274-1.257-0.513-1.908-0.716
	c-1.547-0.483-3.183-0.762-4.876-0.809c-0.178-0.005-0.338-0.007-0.499-0.007c-1.875,0-3.68,0.285-5.38,0.815
	c-0.798,0.249-1.573,0.551-2.319,0.904c-0.084,0.039-0.168,0.08-0.251,0.121c0.084,0.041,0.169,0.082,0.254,0.122
	c0.746,0.351,1.519,0.654,2.316,0.902c1.7,0.53,3.507,0.816,5.379,0.816c0.161,0,0.322-0.002,0.482-0.007
	c1.712-0.047,3.348-0.326,4.895-0.808c0.651-0.203,1.287-0.442,1.905-0.715c-0.05,0.637-0.264,1.23-0.599,1.734
	c-0.075,0.114-0.156,0.222-0.243,0.327c-1.502,1.919-3.828,3.15-6.44,3.15c-4.001-0.002-7.636-1.559-10.348-4.105
	c-1.632,1.14-3.07,2.544-4.254,4.149C1.589,15.557,2.597,13.669,3.927,12.06z"/>
<path style="fill-rule:evenodd;clip-rule:evenodd;fill:#333333;" d="M16.299,13.691c0.765-0.232,1.329-0.621,1.329-1.569
	c0-0.948-0.564-1.481-1.329-1.714c-0.005-0.002-0.011-0.003-0.016-0.005c-0.142-0.042-0.291-0.064-0.444-0.064
	c0.158,0,0.315,0.002,0.471,0.008c0,0,0.012,0,0.018,0.001c1.663,0.051,3.242,0.369,4.786,0.864c0.64,0.226,1.166,0.39,1.772,0.693
	c0,0.119,0,0.083,0,0.198c0,0.116,0,0.054-0.014,0.171c-0.662,0.277-1.118,0.437-1.758,0.664c-1.537,0.432-3.124,0.764-4.786,0.815
	c-0.006,0.001-0.013,0.001-0.019,0.001c-0.157,0.005-0.315,0.007-0.473,0.007c0.154,0,0.303-0.022,0.445-0.064
	C16.288,13.695,16.293,13.693,16.299,13.691z"/>
</svg>






