<?xml version="1.0" encoding="iso-8859-1"?>
<svg version="1.1" id="&#x56FE;&#x5C42;_1" xmlns="http://www.w3.org/2000/svg" xmlns:xlink="http://www.w3.org/1999/xlink" x="0px"
	 y="0px" viewBox="0 0 24 24" style="enable-background:new 0 0 24 24;" xml:space="preserve">
<g>
	<defs>
		<rect id="SVGID_1_" width="24" height="24"/>
	</defs>
	<clipPath id="SVGID_00000080205588996481219360000000471904723353344170_">
		<use xlink:href="#SVGID_1_"  style="overflow:visible;"/>
	</clipPath>
	<g style="clip-path:url(#SVGID_00000080205588996481219360000000471904723353344170_);">
		<path style="fill:#333333;" d="M14.239,17.372c-1.92,0-3.841-0.731-5.303-2.193c-1.417-1.417-2.197-3.3-2.197-5.303
			c0-2.003,0.78-3.887,2.197-5.303s3.3-2.197,5.303-2.197c2.004,0,3.888,0.78,5.304,2.197l0,0l0,0c2.924,2.924,2.924,7.683,0,10.606
			C18.081,16.641,16.16,17.372,14.239,17.372z M14.239,3.375c-1.736,0-3.368,0.676-4.596,1.904c-1.228,1.228-1.904,2.86-1.904,4.596
			c0,1.736,0.676,3.368,1.904,4.596c2.535,2.533,6.659,2.533,9.193,0c2.534-2.534,2.534-6.658,0-9.192l0,0
			C17.608,4.052,15.976,3.375,14.239,3.375z"/>
		
			<rect x="1.55" y="17.45" transform="matrix(0.7071 -0.7071 0.7071 0.7071 -10.9203 9.5354)" style="fill:#333333;" width="9" height="1"/>
		
			<rect x="5.904" y="13.096" transform="matrix(0.7071 -0.7071 0.7071 0.7071 -10.5668 9.682)" style="fill:#333333;" width="1" height="9"/>
	</g>
</g>
</svg>






