<?xml version="1.0" encoding="iso-8859-1"?>
<svg version="1.1" id="&#x56FE;&#x5C42;_1" xmlns="http://www.w3.org/2000/svg" xmlns:xlink="http://www.w3.org/1999/xlink" x="0px"
	 y="0px" viewBox="0 0 24 24" style="enable-background:new 0 0 24 24;" xml:space="preserve">
<rect x="3.5" y="2" style="fill:#333333;" width="1" height="20"/>
<rect x="2" y="5.5" style="fill:#333333;" width="20" height="1"/>
<rect x="11.5" y="2.686" transform="matrix(0.7071 -0.7071 0.7071 0.7071 -6.3848 12.5858)" style="fill:#333333;" width="1" height="22.627"/>
<rect x="0.686" y="13.5" transform="matrix(0.7071 -0.7071 0.7071 0.7071 -6.3848 12.5858)" style="fill:#333333;" width="22.627" height="1"/>
<rect x="8.25" y="10.532" transform="matrix(0.7071 -0.7071 0.7071 0.7071 -9.6348 11.2396)" style="fill:#333333;" width="1" height="13.435"/>
<rect x="14.75" y="4.032" transform="matrix(0.7071 -0.7071 0.7071 0.7071 -3.1348 13.932)" style="fill:#333333;" width="1" height="13.435"/>
<rect x="1.957" y="10.25" transform="matrix(0.6878 -0.7259 0.7259 0.6878 -5.1497 9.5263)" style="fill:#333333;" width="13.086" height="1"/>
<rect x="8.532" y="16.75" transform="matrix(0.7071 -0.7071 0.7071 0.7071 -7.731 15.8358)" style="fill:#333333;" width="13.435" height="1"/>
<rect x="2" y="21.5" style="fill:#333333;" width="20" height="1"/>
<rect x="19.5" y="2" style="fill:#333333;" width="1" height="20"/>
</svg>






