<?xml version="1.0" encoding="iso-8859-1"?>
<svg version="1.1" id="&#x56FE;&#x5C42;_1" xmlns="http://www.w3.org/2000/svg" xmlns:xlink="http://www.w3.org/1999/xlink" x="0px"
	 y="0px" viewBox="0 0 24 24" style="enable-background:new 0 0 24 24;" xml:space="preserve">
<rect x="1.593" y="16" transform="matrix(0.5628 -0.8266 0.8266 0.5628 -10.0319 14.0334)" style="fill:#333333;" width="13.314" height="1"/>
<rect x="15.25" y="9.843" transform="matrix(0.8262 -0.5634 0.5634 0.8262 -6.5582 11.7403)" style="fill:#333333;" width="1" height="13.314"/>
<path style="fill:#333333;" d="M4.07,12.065C4.023,11.715,4,11.356,4,11c0-1.112,0.224-2.189,0.666-3.2
	C4.708,7.702,4.753,7.604,4.8,7.508L5.7,7.945C5.659,8.029,5.62,8.113,5.583,8.199C5.196,9.084,5,10.026,5,11
	c0,0.316,0.021,0.628,0.062,0.934L4.07,12.065z"/>
<path style="fill:#333333;" d="M10.4,18.84c-2.18-0.442-4.094-1.793-5.25-3.705l0.855-0.518c1.012,1.674,2.687,2.855,4.594,3.242
	L10.4,18.84z"/>
<path style="fill:#333333;" d="M13.6,18.84l-0.199-0.98c1.931-0.392,3.616-1.592,4.625-3.294l0.859,0.51
	C17.732,17.02,15.807,18.392,13.6,18.84z"/>
<path style="fill:#333333;" d="M19.929,12.066l-0.99-0.133C18.979,11.627,19,11.313,19,11c0-1.071-0.235-2.099-0.7-3.055l0.9-0.437
	C19.73,8.602,20,9.776,20,11C20,11.358,19.977,11.716,19.929,12.066z"/>
<path style="fill:#333333;" d="M16.667,5.782C15.74,4.954,14.611,4.386,13.4,4.14L13.6,3.16c1.385,0.281,2.676,0.93,3.733,1.877
	L16.667,5.782z"/>
<path style="fill:#333333;" d="M7.046,6.054L6.339,5.347c0.106-0.106,0.215-0.209,0.327-0.31C7.726,4.09,9.017,3.441,10.4,3.16
	L10.6,4.14c-1.21,0.246-2.34,0.813-3.266,1.642C7.236,5.87,7.14,5.961,7.046,6.054z"/>
<path style="fill:#333333;" d="M5,15.5c-1.103,0-2-0.897-2-2s0.897-2,2-2s2,0.897,2,2S6.103,15.5,5,15.5z M5,12.5
	c-0.551,0-1,0.448-1,1s0.449,1,1,1s1-0.448,1-1S5.551,12.5,5,12.5z"/>
<path style="fill:#333333;" d="M12,20.5c-1.103,0-2-0.897-2-2s0.897-2,2-2c1.103,0,2,0.897,2,2S13.103,20.5,12,20.5z M12,17.5
	c-0.551,0-1,0.448-1,1s0.449,1,1,1c0.552,0,1-0.448,1-1S12.552,17.5,12,17.5z"/>
<path style="fill:#333333;" d="M12,5.5c-1.103,0-2-0.897-2-2s0.897-2,2-2c1.103,0,2,0.897,2,2S13.103,5.5,12,5.5z M12,2.5
	c-0.551,0-1,0.449-1,1s0.449,1,1,1c0.552,0,1-0.449,1-1S12.552,2.5,12,2.5z"/>
<path style="fill:#333333;" d="M6,8.5c-1.103,0-2-0.897-2-2s0.897-2,2-2s2,0.897,2,2S7.103,8.5,6,8.5z M6,5.5c-0.551,0-1,0.449-1,1
	s0.449,1,1,1s1-0.449,1-1S6.551,5.5,6,5.5z"/>
<path style="fill:#333333;" d="M18,8.5c-1.103,0-2-0.897-2-2s0.897-2,2-2s2,0.897,2,2S19.103,8.5,18,8.5z M18,5.5
	c-0.552,0-1,0.449-1,1s0.448,1,1,1s1-0.449,1-1S18.552,5.5,18,5.5z"/>
<path style="fill:#333333;" d="M19,15.5c-1.103,0-2-0.897-2-2s0.897-2,2-2s2,0.897,2,2S20.103,15.5,19,15.5z M19,12.5
	c-0.552,0-1,0.448-1,1s0.448,1,1,1s1-0.448,1-1S19.552,12.5,19,12.5z"/>
<circle style="fill:#333333;" cx="12" cy="11" r="2"/>
<rect x="3" y="21.5" style="fill:#333333;" width="4" height="1"/>
<rect x="17" y="21.5" style="fill:#333333;" width="4" height="1"/>
</svg>






