<?xml version="1.0" encoding="iso-8859-1"?>
<svg version="1.1" id="&#x56FE;&#x5C42;_1" xmlns="http://www.w3.org/2000/svg" xmlns:xlink="http://www.w3.org/1999/xlink" x="0px"
	 y="0px" viewBox="0 0 24 24" style="enable-background:new 0 0 24 24;" xml:space="preserve">
<path style="fill:#333333;" d="M19.5,21.5h-15c-1.103,0-2-0.897-2-2v-15c0-1.103,0.897-2,2-2h15c1.103,0,2,0.897,2,2v15
	C21.5,20.603,20.603,21.5,19.5,21.5z M4.5,3.5c-0.551,0-1,0.449-1,1v15c0,0.552,0.449,1,1,1h15c0.552,0,1-0.448,1-1v-15
	c0-0.551-0.448-1-1-1H4.5z"/>
<path style="fill:#333333;" d="M12.5,11h-2c-1.103,0-2-0.897-2-2s0.897-2,2-2h2V11z M10.5,8c-0.551,0-1,0.449-1,1s0.449,1,1,1h1V8
	H10.5z"/>
<path style="fill:#333333;" d="M12.5,14h-2c-1.103,0-2-0.897-2-2c0-1.103,0.897-2,2-2h2V14z M10.5,11c-0.551,0-1,0.449-1,1
	c0,0.552,0.449,1,1,1h1v-2H10.5z"/>
<path style="fill:#333333;" d="M10.5,17c-1.103,0-2-0.897-2-2s0.897-2,2-2h2v2C12.5,16.103,11.603,17,10.5,17z M10.5,14
	c-0.551,0-1,0.448-1,1s0.449,1,1,1s1-0.448,1-1v-1H10.5z"/>
<path style="fill:#333333;" d="M13.5,11h-2V7h2c1.103,0,2,0.897,2,2S14.603,11,13.5,11z M12.5,10h1c0.552,0,1-0.449,1-1
	s-0.448-1-1-1h-1V10z"/>
<path style="fill:#333333;" d="M13.5,14c-1.103,0-2-0.897-2-2c0-1.103,0.897-2,2-2s2,0.897,2,2C15.5,13.103,14.603,14,13.5,14z
	 M13.5,11c-0.552,0-1,0.449-1,1c0,0.552,0.448,1,1,1s1-0.448,1-1C14.5,11.449,14.052,11,13.5,11z"/>
</svg>






