<?xml version="1.0" encoding="iso-8859-1"?>
<svg version="1.1" id="&#x56FE;&#x5C42;_1" xmlns="http://www.w3.org/2000/svg" xmlns:xlink="http://www.w3.org/1999/xlink" x="0px"
	 y="0px" viewBox="0 0 24 24" style="enable-background:new 0 0 24 24;" xml:space="preserve">
<path style="fill:#333333;" d="M12,22.5C6.21,22.5,1.5,17.79,1.5,12C1.5,6.21,6.21,1.5,12,1.5c5.79,0,10.5,4.71,10.5,10.5
	C22.5,17.79,17.79,22.5,12,22.5z M12,2.5c-5.238,0-9.5,4.262-9.5,9.5s4.262,9.5,9.5,9.5s9.5-4.262,9.5-9.5S17.238,2.5,12,2.5z"/>
<path style="fill:#333333;" d="M7,21.239l-0.25-0.145C3.512,19.223,1.5,15.737,1.5,12c0-3.737,2.012-7.222,5.25-9.095L7,2.76
	l0.25,0.145C10.488,4.778,12.5,8.263,12.5,12c0,3.737-2.012,7.223-5.25,9.095L7,21.239z M7,3.921C4.217,5.647,2.5,8.716,2.5,12
	c0,3.284,1.717,6.353,4.5,8.079c2.783-1.727,4.5-4.795,4.5-8.079C11.5,8.716,9.783,5.647,7,3.921z"/>
</svg>






