<?xml version="1.0" encoding="iso-8859-1"?>
<svg version="1.1" id="&#x56FE;&#x5C42;_1" xmlns="http://www.w3.org/2000/svg" xmlns:xlink="http://www.w3.org/1999/xlink" x="0px"
	 y="0px" viewBox="0 0 24 24" style="enable-background:new 0 0 24 24;" xml:space="preserve">
<path style="fill:#333333;" d="M12,10.207L7.793,6L12,1.793L16.207,6L12,10.207z M9.207,6L12,8.793L14.793,6L12,3.207L9.207,6z"/>
<path style="fill:#333333;" d="M12,22.207L7.793,18L12,13.793L16.207,18L12,22.207z M9.207,18L12,20.793L14.793,18L12,15.207
	L9.207,18z"/>
<path style="fill:#333333;" d="M18,16.207L13.793,12L18,7.793L22.207,12L18,16.207z M15.207,12L18,14.793L20.793,12L18,9.207
	L15.207,12z"/>
<path style="fill:#333333;" d="M6,16.207L1.793,12L6,7.793L10.207,12L6,16.207z M3.207,12L6,14.793L8.793,12L6,9.207L3.207,12z"/>
</svg>






