<?xml version="1.0" encoding="iso-8859-1"?>
<svg version="1.1" id="&#x56FE;&#x5C42;_1" xmlns="http://www.w3.org/2000/svg" xmlns:xlink="http://www.w3.org/1999/xlink" x="0px"
	 y="0px" viewBox="0 0 24 24" style="enable-background:new 0 0 24 24;" xml:space="preserve">
<polygon style="fill:#333333;" points="12,22.707 1.293,12 12,1.293 22.354,11.646 21.646,12.354 12,2.707 2.707,12 12,21.293 
	17.146,16.146 17.854,16.854 "/>
<path style="fill:#333333;" d="M19.943,22.232l-0.887-0.464c0.026-0.05,2.55-4.955,0.34-7.165c-2.318-2.318-8.316-2.112-8.376-2.104
	l-0.04-1c0.263-0.014,6.5-0.229,9.124,2.396C22.832,16.625,20.062,22.004,19.943,22.232z"/>
<polygon style="fill:#333333;" points="12.646,14.354 10.293,12 12.646,9.646 13.354,10.354 11.707,12 13.354,13.646 "/>
</svg>






