<?xml version="1.0" encoding="iso-8859-1"?>
<svg version="1.1" id="&#x56FE;&#x5C42;_1" xmlns="http://www.w3.org/2000/svg" xmlns:xlink="http://www.w3.org/1999/xlink" x="0px"
	 y="0px" viewBox="0 0 24 24" style="enable-background:new 0 0 24 24;" xml:space="preserve">
<path style="fill:#333333;" d="M19,22.5H5c-0.827,0-1.5-0.673-1.5-1.5V3c0-0.827,0.673-1.5,1.5-1.5h10.5v5h5V21
	C20.5,21.827,19.827,22.5,19,22.5z M5,2.5C4.724,2.5,4.5,2.724,4.5,3v18c0,0.275,0.224,0.5,0.5,0.5h14c0.275,0,0.5-0.225,0.5-0.5
	V7.5h-5v-5H5z"/>
<rect x="17" y="0.964" transform="matrix(0.7071 -0.7071 0.7071 0.7071 1.9437 13.6924)" style="fill:#333333;" width="1" height="7.071"/>
<path style="fill:#333333;" d="M12,18.5c-2.481,0-4.5-2.019-4.5-4.5S9.519,9.5,12,9.5s4.5,2.019,4.5,4.5S14.481,18.5,12,18.5z
	 M12,10.5c-1.93,0-3.5,1.57-3.5,3.5s1.57,3.5,3.5,3.5s3.5-1.57,3.5-3.5S13.93,10.5,12,10.5z"/>
<polygon style="fill:#333333;" points="13.5,15 11,15 11,12.5 12,12.5 12,14 13.5,14 "/>
</svg>






