<?xml version="1.0" encoding="iso-8859-1"?>
<svg version="1.1" id="&#x56FE;&#x5C42;_1" xmlns="http://www.w3.org/2000/svg" xmlns:xlink="http://www.w3.org/1999/xlink" x="0px"
	 y="0px" viewBox="0 0 24 24" style="enable-background:new 0 0 24 24;" xml:space="preserve">
<path style="fill:#333333;" d="M19,22.5H5c-0.827,0-1.5-0.673-1.5-1.5V3c0-0.827,0.673-1.5,1.5-1.5h10.5v5h5V21
	C20.5,21.827,19.827,22.5,19,22.5z M5,2.5C4.724,2.5,4.5,2.724,4.5,3v18c0,0.275,0.224,0.5,0.5,0.5h14c0.275,0,0.5-0.225,0.5-0.5
	V7.5h-5v-5H5z"/>
<rect x="17" y="0.964" transform="matrix(0.7071 -0.7071 0.7071 0.7071 1.9437 13.6924)" style="fill:#333333;" width="1" height="7.071"/>
<polygon style="fill:#333333;" points="13,16.75 12,16.75 12,11.174 15.278,9.552 15.722,10.448 13,11.795 "/>
<path style="fill:#333333;" d="M10.5,19C9.122,19,8,17.879,8,16.5S9.122,14,10.5,14s2.5,1.121,2.5,2.5S11.878,19,10.5,19z M10.5,15
	C9.673,15,9,15.673,9,16.5S9.673,18,10.5,18s1.5-0.673,1.5-1.5S11.327,15,10.5,15z"/>
</svg>






