<?xml version="1.0" encoding="iso-8859-1"?>
<svg version="1.1" id="&#x56FE;&#x5C42;_1" xmlns="http://www.w3.org/2000/svg" xmlns:xlink="http://www.w3.org/1999/xlink" x="0px"
	 y="0px" viewBox="0 0 24 24" style="enable-background:new 0 0 24 24;" xml:space="preserve">
<path style="fill:#333333;" d="M11,22.5H5c-0.827,0-1.5-0.673-1.5-1.5V3c0-0.827,0.673-1.5,1.5-1.5h10.723L20.5,6.808V11.5h-1V7.192
	L15.277,2.5H5C4.724,2.5,4.5,2.724,4.5,3v18c0,0.275,0.224,0.5,0.5,0.5h6V22.5z"/>
<path style="fill:#333333;" d="M15.5,20.5c-1.93,0-3.5-1.57-3.5-3.5s1.57-3.5,3.5-3.5S19,15.07,19,17S17.43,20.5,15.5,20.5z
	 M15.5,14.5c-1.379,0-2.5,1.121-2.5,2.5s1.121,2.5,2.5,2.5S18,18.379,18,17S16.879,14.5,15.5,14.5z"/>
<rect x="18.75" y="18.399" transform="matrix(0.6247 -0.7809 0.7809 0.6247 -8.3928 22.5378)" style="fill:#333333;" width="1" height="3.202"/>
<polygon style="fill:#333333;" points="20,7.5 14.5,7.5 14.5,2 15.5,2 15.5,6.5 20,6.5 "/>
</svg>






