<?xml version="1.0" encoding="iso-8859-1"?>
<svg version="1.1" id="&#x56FE;&#x5C42;_1" xmlns="http://www.w3.org/2000/svg" xmlns:xlink="http://www.w3.org/1999/xlink" x="0px"
	 y="0px" viewBox="0 0 24 24" style="enable-background:new 0 0 24 24;" xml:space="preserve">
<polygon style="fill:#333333;" points="19.5,21 12.5,21 12.5,20 18.5,20 18.5,17 19.5,17 "/>
<polygon style="fill:#333333;" points="19.5,7 18.5,7 18.5,4 12.5,4 12.5,3 19.5,3 "/>
<polygon style="fill:#333333;" points="13,22.711 4.5,19.661 4.5,17 5.5,17 5.5,18.958 12,21.289 12,17.122 13,17.122 "/>
<polygon style="fill:#333333;" points="13,6.986 12,6.986 12,2.71 5.5,5.042 5.5,6.986 4.5,6.986 4.5,4.338 13,1.29 "/>
<path style="fill:#333333;" d="M21,17.5H3c-0.827,0-1.5-0.673-1.5-1.5V8c0-0.827,0.673-1.5,1.5-1.5h18c0.827,0,1.5,0.673,1.5,1.5v8
	C22.5,16.827,21.827,17.5,21,17.5z M3,7.5C2.724,7.5,2.5,7.724,2.5,8v8c0,0.275,0.224,0.5,0.5,0.5h18c0.275,0,0.5-0.225,0.5-0.5V8
	c0-0.276-0.225-0.5-0.5-0.5H3z"/>
<rect x="4.5" y="9.5" style="fill:#333333;" width="1" height="5"/>
<rect x="10" y="9.5" style="fill:#333333;" width="1" height="5"/>
<rect x="17" y="10" style="fill:#333333;" width="1" height="4"/>
<rect x="16" y="9.5" style="fill:#333333;" width="3" height="1"/>
<path style="fill:#333333;" d="M6.5,13H5v-1h1.5c0.551,0,1-0.449,1-1s-0.449-1-1-1H5V9h1.5c1.103,0,2,0.897,2,2
	C8.5,12.103,7.603,13,6.5,13z"/>
<path style="fill:#333333;" d="M12,13h-1.5v-1H12c0.552,0,1-0.449,1-1s-0.448-1-1-1h-1.5V9H12c1.103,0,2,0.897,2,2
	C14,12.103,13.103,13,12,13z"/>
</svg>






