<?xml version="1.0" encoding="iso-8859-1"?>
<svg version="1.1" id="&#x56FE;&#x5C42;_1" xmlns="http://www.w3.org/2000/svg" xmlns:xlink="http://www.w3.org/1999/xlink" x="0px"
	 y="0px" viewBox="0 0 24 24" style="enable-background:new 0 0 24 24;" xml:space="preserve">
<path style="fill:#333333;" d="M19,22.5H5c-0.827,0-1.5-0.673-1.5-1.5V3c0-0.827,0.673-1.5,1.5-1.5h10.5v5h5V21
	C20.5,21.827,19.827,22.5,19,22.5z M5,2.5C4.724,2.5,4.5,2.724,4.5,3v18c0,0.275,0.224,0.5,0.5,0.5h14c0.275,0,0.5-0.225,0.5-0.5
	V7.5h-5v-5H5z"/>
<rect x="17" y="0.964" transform="matrix(0.7071 -0.7071 0.7071 0.7071 1.9437 13.6924)" style="fill:#333333;" width="1" height="7.071"/>
<path style="fill:#333333;" d="M12,15c-1.484,0-2.896-0.729-3.778-1.949c-0.308-0.426-0.544-0.897-0.7-1.403l0.955-0.295
	c0.124,0.401,0.311,0.774,0.555,1.112C9.737,13.44,10.819,14,12,14c1.181,0,2.263-0.56,2.968-1.535
	c0.245-0.338,0.432-0.711,0.555-1.112l0.955,0.294c-0.155,0.505-0.391,0.978-0.699,1.404C14.896,14.271,13.483,15,12,15z"/>
<rect x="9.502" y="15" transform="matrix(0.2597 -0.9657 0.9657 0.2597 -7.1938 21.6158)" style="fill:#333333;" width="2" height="1"/>
<rect x="13.001" y="14.5" transform="matrix(0.9659 -0.2588 0.2588 0.9659 -3.5516 4.0227)" style="fill:#333333;" width="1.001" height="2"/>
<rect x="15.384" y="13.384" transform="matrix(0.7071 -0.7071 0.7071 0.7071 -5.5186 15.4444)" style="fill:#333333;" width="1" height="2"/>
<rect x="7.207" y="13.798" transform="matrix(0.7071 -0.7071 0.7071 0.7071 -7.7063 9.991)" style="fill:#333333;" width="2" height="1"/>
</svg>






