<?xml version="1.0" encoding="iso-8859-1"?>
<svg version="1.1" id="&#x56FE;&#x5C42;_1" xmlns="http://www.w3.org/2000/svg" xmlns:xlink="http://www.w3.org/1999/xlink" x="0px"
	 y="0px" viewBox="0 0 24 24" style="enable-background:new 0 0 24 24;" xml:space="preserve">
<path style="fill:#333333;" d="M19,22.5H5c-0.827,0-1.5-0.673-1.5-1.5V3c0-0.827,0.673-1.5,1.5-1.5h10.207L20.5,6.793V21
	C20.5,21.827,19.827,22.5,19,22.5z M5,2.5C4.724,2.5,4.5,2.724,4.5,3v18c0,0.275,0.224,0.5,0.5,0.5h14c0.275,0,0.5-0.225,0.5-0.5
	V7.207L14.793,2.5H5z"/>
<rect x="10.5" y="8.5" style="fill:#333333;" width="5" height="1"/>
<rect x="12.5" y="9" style="fill:#333333;" width="1" height="6"/>
<path style="fill:#333333;" d="M11,17.5c-1.378,0-2.5-1.121-2.5-2.5h1c0,0.827,0.673,1.5,1.5,1.5s1.5-0.673,1.5-1.5h1
	C13.5,16.379,12.379,17.5,11,17.5z"/>
</svg>






