<?xml version="1.0" encoding="iso-8859-1"?>
<svg version="1.1" id="&#x56FE;&#x5C42;_1" xmlns="http://www.w3.org/2000/svg" xmlns:xlink="http://www.w3.org/1999/xlink" x="0px"
	 y="0px" viewBox="0 0 24 24" style="enable-background:new 0 0 24 24;" xml:space="preserve">
<path style="fill:#333333;" d="M19,22.5H5c-0.827,0-1.5-0.673-1.5-1.5V3c0-0.827,0.673-1.5,1.5-1.5h10.207L20.5,6.793V21
	C20.5,21.827,19.827,22.5,19,22.5z M5,2.5C4.724,2.5,4.5,2.724,4.5,3v18c0,0.275,0.224,0.5,0.5,0.5h14c0.275,0,0.5-0.225,0.5-0.5
	V7.207L14.793,2.5H5z"/>
<polygon style="fill:#333333;" points="14.057,17.224 12.004,13.118 9.951,17.224 9.015,17.104 7.515,10.105 8.493,9.895 
	9.694,15.502 11.557,11.776 12.451,11.776 14.313,15.502 15.515,9.895 16.493,10.105 14.993,17.104 "/>
</svg>






