<?xml version="1.0" encoding="iso-8859-1"?>
<svg version="1.1" id="&#x56FE;&#x5C42;_1" xmlns="http://www.w3.org/2000/svg" xmlns:xlink="http://www.w3.org/1999/xlink" x="0px"
	 y="0px" viewBox="0 0 24 24" style="enable-background:new 0 0 24 24;" xml:space="preserve">
<path style="fill:#333333;" d="M19,22.5H5c-0.827,0-1.5-0.673-1.5-1.5V3c0-0.827,0.673-1.5,1.5-1.5h10.5v5h5V21
	C20.5,21.827,19.827,22.5,19,22.5z M5,2.5C4.724,2.5,4.5,2.724,4.5,3v18c0,0.275,0.224,0.5,0.5,0.5h14c0.275,0,0.5-0.225,0.5-0.5
	V7.5h-5v-5H5z"/>
<rect x="17" y="0.964" transform="matrix(0.7071 -0.7071 0.7071 0.7071 1.9437 13.6924)" style="fill:#333333;" width="1" height="7.071"/>
<path style="fill:#333333;" d="M14.399,18.076L12,16.721l-2.399,1.355l-0.736-0.535l0.548-2.7l-2.03-1.863l0.281-0.865l2.738-0.313
	l1.144-2.506h0.91l1.145,2.506l2.736,0.313l0.281,0.865l-2.03,1.863l0.549,2.7L14.399,18.076z M8.865,12.981l1.64,1.504
	l-0.442,2.182L12,15.572l1.938,1.095l-0.442-2.182l1.639-1.504l-2.21-0.253L12,10.704l-0.924,2.024L8.865,12.981z"/>
</svg>






