<?xml version="1.0" encoding="iso-8859-1"?>
<svg version="1.1" id="&#x56FE;&#x5C42;_1" xmlns="http://www.w3.org/2000/svg" xmlns:xlink="http://www.w3.org/1999/xlink" x="0px"
	 y="0px" viewBox="0 0 24 24" style="enable-background:new 0 0 24 24;" xml:space="preserve">
<path style="fill:#333333;" d="M11,22.5H5c-0.827,0-1.5-0.673-1.5-1.5V3c0-0.827,0.673-1.5,1.5-1.5h10.723L20.5,6.808V11.5h-1V7.192
	L15.277,2.5H5C4.724,2.5,4.5,2.724,4.5,3v18c0,0.275,0.224,0.5,0.5,0.5h6V22.5z"/>
<path style="fill:#333333;" d="M17,22.536l-0.181-0.07C15.448,21.935,13,19.735,13,17.243c0-1.513,1.088-2.743,2.425-2.743
	c0.585,0,1.142,0.237,1.575,0.656c0.434-0.419,0.99-0.656,1.575-0.656c1.337,0,2.425,1.23,2.425,2.743
	c0,2.492-2.448,4.691-3.819,5.223L17,22.536z M15.425,15.5C14.639,15.5,14,16.282,14,17.243c0,1.873,1.884,3.67,3,4.212
	c1.116-0.542,3-2.339,3-4.212c0-0.961-0.639-1.743-1.425-1.743c-0.448,0-0.878,0.267-1.147,0.712L17,16.919l-0.428-0.707
	C16.303,15.767,15.873,15.5,15.425,15.5z"/>
<polygon style="fill:#333333;" points="20,7.5 14.5,7.5 14.5,2 15.5,2 15.5,6.5 20,6.5 "/>
</svg>






