<?xml version="1.0" encoding="iso-8859-1"?>
<svg version="1.1" id="&#x56FE;&#x5C42;_1" xmlns="http://www.w3.org/2000/svg" xmlns:xlink="http://www.w3.org/1999/xlink" x="0px"
	 y="0px" viewBox="0 0 24 24" style="enable-background:new 0 0 24 24;" xml:space="preserve">
<path style="fill:#333333;" d="M11,22.5H5c-0.827,0-1.5-0.673-1.5-1.5V3c0-0.827,0.673-1.5,1.5-1.5h10.723L20.5,6.808V11.5h-1V7.192
	L15.277,2.5H5C4.724,2.5,4.5,2.724,4.5,3v18c0,0.275,0.224,0.5,0.5,0.5h6V22.5z"/>
<path style="fill:#333333;" d="M17,21c-1.654,0-3-1.346-3-3s1.346-3,3-3s3,1.346,3,3S18.654,21,17,21z M17,16c-1.103,0-2,0.897-2,2
	s0.897,2,2,2s2-0.897,2-2S18.103,16,17,16z"/>
<rect x="16.5" y="14" style="fill:#333333;" width="1" height="1.5"/>
<rect x="16.5" y="20.5" style="fill:#333333;" width="1" height="1.5"/>
<rect x="18.634" y="15.03" transform="matrix(0.7071 -0.7071 0.7071 0.7071 -5.3042 18.2551)" style="fill:#333333;" width="1.5" height="1"/>
<rect x="13.634" y="20.03" transform="matrix(0.7071 -0.7071 0.7071 0.7071 -10.3042 16.1841)" style="fill:#333333;" width="1.5" height="1"/>
<rect x="14.03" y="14.78" transform="matrix(0.7071 -0.7071 0.7071 0.7071 -6.7257 14.8232)" style="fill:#333333;" width="1" height="1.5"/>
<rect x="19.03" y="19.78" transform="matrix(0.7071 -0.7071 0.7071 0.7071 -8.7968 19.8232)" style="fill:#333333;" width="1" height="1.5"/>
<rect x="13" y="17.5" style="fill:#333333;" width="1.5" height="1"/>
<rect x="19.5" y="17.5" style="fill:#333333;" width="1.5" height="1"/>
<polygon style="fill:#333333;" points="20,7.5 14.5,7.5 14.5,2 15.5,2 15.5,6.5 20,6.5 "/>
</svg>






