<?xml version="1.0" encoding="iso-8859-1"?>
<svg version="1.1" id="&#x56FE;&#x5C42;_1" xmlns="http://www.w3.org/2000/svg" xmlns:xlink="http://www.w3.org/1999/xlink" x="0px"
	 y="0px" viewBox="0 0 24 24" style="enable-background:new 0 0 24 24;" xml:space="preserve">
<path style="fill:#333333;" d="M11,22.5H5c-0.827,0-1.5-0.673-1.5-1.5V3c0-0.827,0.673-1.5,1.5-1.5h10.723L20.5,6.808V11.5h-1V7.192
	L15.277,2.5H5C4.724,2.5,4.5,2.724,4.5,3v18c0,0.275,0.224,0.5,0.5,0.5h6V22.5z"/>
<path style="fill:#333333;" d="M17,22.586l-0.261-0.159C16.587,22.334,13,20.096,13,15.6c0-0.315,0-0.903,3.854-2.078L17,13.478
	l0.146,0.044C21,14.696,21,15.284,21,15.6c0,4.496-3.587,6.734-3.739,6.827L17,22.586z M14.001,15.733
	c0.06,3.177,2.235,5.084,2.999,5.657c0.764-0.573,2.939-2.48,2.999-5.657c-0.354-0.28-1.756-0.823-2.999-1.21
	C15.757,14.91,14.355,15.453,14.001,15.733z"/>
<polygon style="fill:#333333;" points="20,7.5 14.5,7.5 14.5,2 15.5,2 15.5,6.5 20,6.5 "/>
</svg>






