<?xml version="1.0" encoding="iso-8859-1"?>
<svg version="1.1" id="&#x56FE;&#x5C42;_1" xmlns="http://www.w3.org/2000/svg" xmlns:xlink="http://www.w3.org/1999/xlink" x="0px"
	 y="0px" viewBox="0 0 24 24" style="enable-background:new 0 0 24 24;" xml:space="preserve">
<path style="fill:#333333;" d="M11,22.5H5c-0.827,0-1.5-0.673-1.5-1.5V3c0-0.827,0.673-1.5,1.5-1.5h10.723L20.5,6.808V11.5h-1V7.192
	L15.277,2.5H5C4.724,2.5,4.5,2.724,4.5,3v18c0,0.275,0.224,0.5,0.5,0.5h6V22.5z"/>
<rect x="16" y="13" style="fill:#333333;" width="1" height="5"/>
<path style="fill-rule:evenodd;clip-rule:evenodd;fill:#333333;" d="M16.5,23c0.69,0,1.25-0.56,1.25-1.25s-0.56-1.25-1.25-1.25
	s-1.25,0.56-1.25,1.25S15.81,23,16.5,23z"/>
<polygon style="fill:#333333;" points="20,7.5 14.5,7.5 14.5,2 15.5,2 15.5,6.5 20,6.5 "/>
</svg>






