<?xml version="1.0" encoding="iso-8859-1"?>
<svg version="1.1" id="&#x56FE;&#x5C42;_1" xmlns="http://www.w3.org/2000/svg" xmlns:xlink="http://www.w3.org/1999/xlink" x="0px"
	 y="0px" viewBox="0 0 24 24" style="enable-background:new 0 0 24 24;" xml:space="preserve">
<path style="fill:#333333;" d="M11,22.5H5c-0.827,0-1.5-0.673-1.5-1.5V3c0-0.827,0.673-1.5,1.5-1.5h10.723L20.5,6.808V11.5h-1V7.192
	L15.277,2.5H5C4.724,2.5,4.5,2.724,4.5,3v18c0,0.275,0.224,0.5,0.5,0.5h6V22.5z"/>
<path style="fill:#333333;" d="M19.399,22.076L17,20.721l-2.399,1.355l-0.736-0.535l0.549-2.7l-2.03-1.863l0.281-0.865l2.736-0.313
	l1.145-2.507h0.91l1.145,2.507l2.736,0.313l0.281,0.865l-2.03,1.863l0.549,2.7L19.399,22.076z M17,19.572l1.938,1.095l-0.442-2.182
	l1.639-1.504l-2.21-0.253L17,14.704l-0.924,2.024l-2.21,0.253l1.639,1.504l-0.442,2.182L17,19.572z"/>
<polygon style="fill:#333333;" points="20,7.5 14.5,7.5 14.5,2 15.5,2 15.5,6.5 20,6.5 "/>
</svg>






