<?xml version="1.0" encoding="iso-8859-1"?>
<svg version="1.1" id="&#x56FE;&#x5C42;_1" xmlns="http://www.w3.org/2000/svg" xmlns:xlink="http://www.w3.org/1999/xlink" x="0px"
	 y="0px" viewBox="0 0 24 24" style="enable-background:new 0 0 24 24;" xml:space="preserve">
<path style="fill:#333333;" d="M13,22.5H5c-0.827,0-1.5-0.673-1.5-1.5V3c0-0.827,0.673-1.5,1.5-1.5h14c0.827,0,1.5,0.673,1.5,1.5
	v7.421h-1V3c0-0.276-0.225-0.5-0.5-0.5H5C4.724,2.5,4.5,2.724,4.5,3v18c0,0.275,0.224,0.5,0.5,0.5h8V22.5z"/>
<rect x="7" y="8" style="fill:#333333;" width="3" height="1"/>
<rect x="14" y="8" style="fill:#333333;" width="3" height="1"/>
<rect x="7" y="13.5" style="fill:#333333;" width="3" height="1"/>
<rect x="7" y="16.5" style="fill:#333333;" width="3" height="1"/>
<rect x="8" y="7" style="fill:#333333;" width="1" height="3"/>
<rect x="19.425" y="18.425" transform="matrix(0.7071 -0.7071 0.7071 0.7071 -8.2531 19.9248)" style="fill:#333333;" width="1" height="3"/>
<path style="fill:#333333;" d="M16.742,20.24c-0.896,0-1.792-0.341-2.475-1.022c-1.363-1.365-1.363-3.585,0-4.95
	c1.365-1.362,3.585-1.363,4.95,0l0,0c1.363,1.365,1.363,3.585,0,4.95C18.535,19.899,17.639,20.24,16.742,20.24z M16.743,14.244
	c-0.641,0-1.281,0.243-1.769,0.73c-0.974,0.975-0.974,2.562,0,3.536c0.976,0.975,2.562,0.974,3.536,0
	c0.974-0.975,0.974-2.561,0-3.536l0,0C18.023,14.487,17.383,14.244,16.743,14.244z"/>
</svg>






