<?xml version="1.0" encoding="iso-8859-1"?>
<svg version="1.1" id="&#x56FE;&#x5C42;_1" xmlns="http://www.w3.org/2000/svg" xmlns:xlink="http://www.w3.org/1999/xlink" x="0px"
	 y="0px" viewBox="0 0 24 24" style="enable-background:new 0 0 24 24;" xml:space="preserve">
<path style="fill:#333333;" d="M19,22.5H5c-0.827,0-1.5-0.673-1.5-1.5V3c0-0.827,0.673-1.5,1.5-1.5h10.5v5h5V21
	C20.5,21.827,19.827,22.5,19,22.5z M5,2.5C4.724,2.5,4.5,2.724,4.5,3v18c0,0.275,0.224,0.5,0.5,0.5h14c0.275,0,0.5-0.225,0.5-0.5
	V7.5h-5v-5H5z"/>
<rect x="17" y="0.964" transform="matrix(0.7071 -0.7071 0.7071 0.7071 1.9437 13.6924)" style="fill:#333333;" width="1" height="7.071"/>
<path style="fill:#333333;" d="M12,18.036l-0.181-0.07C10.449,17.436,8,15.235,8,12.743C8,11.23,9.088,10,10.425,10
	c0.585,0,1.142,0.237,1.575,0.656C12.434,10.237,12.99,10,13.575,10C14.912,10,16,11.23,16,12.743c0,2.492-2.448,4.691-3.819,5.223
	L12,18.036z M10.425,11C9.639,11,9,11.782,9,12.743c0,1.874,1.883,3.671,3,4.212c1.116-0.542,3-2.339,3-4.212
	C15,11.782,14.361,11,13.575,11c-0.449,0-0.878,0.266-1.147,0.712L12,12.42l-0.428-0.708C11.303,11.266,10.874,11,10.425,11z"/>
</svg>






