<?xml version="1.0" encoding="iso-8859-1"?>
<svg version="1.1" id="&#x56FE;&#x5C42;_1" xmlns="http://www.w3.org/2000/svg" xmlns:xlink="http://www.w3.org/1999/xlink" x="0px"
	 y="0px" viewBox="0 0 24 24" style="enable-background:new 0 0 24 24;" xml:space="preserve">
<path style="fill:#333333;" d="M19,22.5H5c-0.827,0-1.5-0.673-1.5-1.5V3c0-0.827,0.673-1.5,1.5-1.5h10.5v5h5V21
	C20.5,21.827,19.827,22.5,19,22.5z M5,2.5C4.724,2.5,4.5,2.724,4.5,3v18c0,0.275,0.224,0.5,0.5,0.5h14c0.275,0,0.5-0.225,0.5-0.5
	V7.5h-5v-5H5z"/>
<rect x="17" y="0.964" transform="matrix(0.7071 -0.7071 0.7071 0.7071 1.9437 13.6924)" style="fill:#333333;" width="1" height="7.071"/>
<path style="fill:#333333;" d="M12.5,15.5h-1v-2H12c0.827,0,1.5-0.785,1.5-1.75S12.827,10,12,10s-1.5,0.785-1.5,1.75h-1
	C9.5,10.233,10.622,9,12,9c1.379,0,2.5,1.233,2.5,2.75c0,1.328-0.86,2.439-2,2.694V15.5z"/>
<path style="fill-rule:evenodd;clip-rule:evenodd;fill:#333333;" d="M12,19.5c0.69,0,1.25-0.56,1.25-1.25S12.69,17,12,17
	s-1.25,0.56-1.25,1.25S11.31,19.5,12,19.5z"/>
</svg>






