<?xml version="1.0" encoding="iso-8859-1"?>
<svg version="1.1" id="&#x56FE;&#x5C42;_1" xmlns="http://www.w3.org/2000/svg" xmlns:xlink="http://www.w3.org/1999/xlink" x="0px"
	 y="0px" viewBox="0 0 24 24" style="enable-background:new 0 0 24 24;" xml:space="preserve">
<path style="fill:#333333;" d="M10,22.5H5c-0.827,0-1.5-0.673-1.5-1.5V3c0-0.827,0.673-1.5,1.5-1.5h10.723L20.5,6.808V11.5h-1V7.192
	L15.277,2.5H5C4.724,2.5,4.5,2.724,4.5,3v18c0,0.275,0.224,0.5,0.5,0.5h5V22.5z"/>
<path style="fill:#333333;" d="M17,18.5c-1.379,0-2.5-1.121-2.5-2.5s1.121-2.5,2.5-2.5s2.5,1.121,2.5,2.5S18.379,18.5,17,18.5z
	 M17,14.5c-0.827,0-1.5,0.673-1.5,1.5s0.673,1.5,1.5,1.5s1.5-0.673,1.5-1.5S17.827,14.5,17,14.5z"/>
<path style="fill:#333333;" d="M21.5,22h-1c0-1.93-1.57-3.5-3.5-3.5s-3.5,1.57-3.5,3.5h-1c0-2.481,2.019-4.5,4.5-4.5
	S21.5,19.519,21.5,22z"/>
<polygon style="fill:#333333;" points="20,7.5 14.5,7.5 14.5,2 15.5,2 15.5,6.5 20,6.5 "/>
</svg>






