<?xml version="1.0" encoding="iso-8859-1"?>
<svg version="1.1" id="&#x56FE;&#x5C42;_1" xmlns="http://www.w3.org/2000/svg" xmlns:xlink="http://www.w3.org/1999/xlink" x="0px"
	 y="0px" viewBox="0 0 24 24" style="enable-background:new 0 0 24 24;" xml:space="preserve">
<polygon style="fill:#333333;" points="19.5,22.5 4.5,22.5 4.5,19 5.5,19 5.5,21.5 18.5,21.5 18.5,19 19.5,19 "/>
<polygon style="fill:#333333;" points="19.5,10 18.5,10 18.5,7.175 14.76,2.5 5.5,2.5 5.5,10 4.5,10 4.5,1.5 15.24,1.5 19.5,6.825 
	"/>
<polygon style="fill:#333333;" points="19,7.5 13.5,7.5 13.5,2 14.5,2 14.5,6.5 19,6.5 "/>
<rect x="8" y="5.5" style="fill:#333333;" width="2" height="1"/>
<path style="fill:#333333;" d="M21,19.5H3c-0.827,0-1.5-0.673-1.5-1.5v-7c0-0.827,0.673-1.5,1.5-1.5h18c0.827,0,1.5,0.673,1.5,1.5v7
	C22.5,18.827,21.827,19.5,21,19.5z M3,10.5c-0.276,0-0.5,0.224-0.5,0.5v7c0,0.275,0.224,0.5,0.5,0.5h18c0.275,0,0.5-0.225,0.5-0.5
	v-7c0-0.276-0.225-0.5-0.5-0.5H3z"/>
<rect x="11.5" y="12" transform="matrix(0.8 -0.5999 0.5999 0.8 -6.2997 10.0986)" style="fill:#333333;" width="1" height="5"/>
<rect x="9.5" y="14" transform="matrix(0.5998 -0.8001 0.8001 0.5998 -6.7998 15.4037)" style="fill:#333333;" width="5" height="1"/>
<rect x="6" y="12.5" style="fill:#333333;" width="1" height="4"/>
<rect x="5" y="12" style="fill:#333333;" width="3" height="1"/>
<rect x="17" y="12.5" style="fill:#333333;" width="1" height="4"/>
<rect x="16" y="12" style="fill:#333333;" width="3" height="1"/>
</svg>






