<?xml version="1.0" encoding="iso-8859-1"?>
<svg version="1.1" id="&#x56FE;&#x5C42;_1" xmlns="http://www.w3.org/2000/svg" xmlns:xlink="http://www.w3.org/1999/xlink" x="0px"
	 y="0px" viewBox="0 0 24 24" style="enable-background:new 0 0 24 24;" xml:space="preserve">
<polygon style="fill:#333333;" points="19.5,22.5 4.5,22.5 4.5,19 5.5,19 5.5,21.5 18.5,21.5 18.5,19 19.5,19 "/>
<polygon style="fill:#333333;" points="19.5,10 18.5,10 18.5,7.175 14.76,2.5 5.5,2.5 5.5,10 4.5,10 4.5,1.5 15.24,1.5 19.5,6.825 
	"/>
<polygon style="fill:#333333;" points="19,7.5 13.5,7.5 13.5,2 14.5,2 14.5,6.5 19,6.5 "/>
<path style="fill:#333333;" d="M21,19.5H3c-0.827,0-1.5-0.673-1.5-1.5v-7c0-0.827,0.673-1.5,1.5-1.5h18c0.827,0,1.5,0.673,1.5,1.5v7
	C22.5,18.827,21.827,19.5,21,19.5z M3,10.5c-0.276,0-0.5,0.224-0.5,0.5v7c0,0.275,0.224,0.5,0.5,0.5h18c0.275,0,0.5-0.225,0.5-0.5
	v-7c0-0.276-0.225-0.5-0.5-0.5H3z"/>
<rect x="10" y="12.5" style="fill:#333333;" width="1" height="4"/>
<rect x="4.5" y="12.5" style="fill:#333333;" width="1" height="4"/>
<polygon style="fill:#333333;" points="16.5,16.5 15.5,16.5 15.5,12 18.5,12 18.5,13 16.5,13 "/>
<rect x="16" y="14.5" style="fill:#333333;" width="2.5" height="1"/>
<path style="fill:#333333;" d="M6.75,15.5H5v-1h1.75c0.414,0,0.75-0.337,0.75-0.75S7.164,13,6.75,13H5v-1h1.75
	c0.965,0,1.75,0.785,1.75,1.75S7.715,15.5,6.75,15.5z"/>
<path style="fill:#333333;" d="M11.5,17h-1v-1h1c0.827,0,1.5-0.673,1.5-1.5S12.327,13,11.5,13h-1v-1h1c1.379,0,2.5,1.121,2.5,2.5
	S12.879,17,11.5,17z"/>
<rect x="8" y="5.5" style="fill:#333333;" width="2" height="1"/>
</svg>






