<?xml version="1.0" encoding="iso-8859-1"?>
<svg version="1.1" id="&#x56FE;&#x5C42;_1" xmlns="http://www.w3.org/2000/svg" xmlns:xlink="http://www.w3.org/1999/xlink" x="0px"
	 y="0px" viewBox="0 0 24 24" style="enable-background:new 0 0 24 24;" xml:space="preserve">
<path style="fill:#333333;" d="M11,22.5H5c-0.827,0-1.5-0.673-1.5-1.5V3c0-0.827,0.673-1.5,1.5-1.5h10.723L20.5,6.808V11.5h-1V7.192
	L15.277,2.5H5C4.724,2.5,4.5,2.724,4.5,3v18c0,0.275,0.224,0.5,0.5,0.5h6V22.5z"/>
<path style="fill:#333333;" d="M16.5,21c-2.721,0-4.827-3.09-4.915-3.222L11.398,17.5l0.187-0.278C11.673,17.09,13.779,14,16.5,14
	s4.827,3.09,4.915,3.222l0.188,0.278l-0.188,0.278C21.327,17.91,19.221,21,16.5,21z M12.621,17.5c0.547,0.705,2.113,2.5,3.879,2.5
	s3.332-1.795,3.879-2.5C19.832,16.795,18.266,15,16.5,15S13.168,16.795,12.621,17.5z"/>
<path style="fill:#333333;" d="M16.5,18.5c0.552,0,1-0.448,1-1s-0.448-1-1-1c-0.552,0-1,0.448-1,1S15.948,18.5,16.5,18.5z"/>
<polygon style="fill:#333333;" points="20,7.5 14.5,7.5 14.5,2 15.5,2 15.5,6.5 20,6.5 "/>
</svg>






