<?xml version="1.0" encoding="iso-8859-1"?>
<svg version="1.1" id="&#x56FE;&#x5C42;_1" xmlns="http://www.w3.org/2000/svg" xmlns:xlink="http://www.w3.org/1999/xlink" x="0px"
	 y="0px" viewBox="0 0 24 24" style="enable-background:new 0 0 24 24;" xml:space="preserve">
<path style="fill:#333333;" d="M19,22.5H5c-0.827,0-1.5-0.673-1.5-1.5V3c0-0.827,0.673-1.5,1.5-1.5h10.5v5h5V21
	C20.5,21.827,19.827,22.5,19,22.5z M5,2.5C4.724,2.5,4.5,2.724,4.5,3v18c0,0.275,0.224,0.5,0.5,0.5h14c0.275,0,0.5-0.225,0.5-0.5
	V7.5h-5v-5H5z"/>
<rect x="17" y="0.964" transform="matrix(0.7071 -0.7071 0.7071 0.7071 1.9437 13.6924)" style="fill:#333333;" width="1" height="7.071"/>
<path style="fill:#333333;" d="M12,16.5c-1.654,0-3-1.346-3-3s1.346-3,3-3s3,1.346,3,3S13.654,16.5,12,16.5z M12,11.5
	c-1.103,0-2,0.897-2,2s0.897,2,2,2c1.103,0,2-0.897,2-2S13.103,11.5,12,11.5z"/>
<rect x="11.5" y="9.5" style="fill:#333333;" width="1" height="1.5"/>
<rect x="11.5" y="16" style="fill:#333333;" width="1" height="1.5"/>
<rect x="13.634" y="10.53" transform="matrix(0.7071 -0.7071 0.7071 0.7071 -3.5867 13.4016)" style="fill:#333333;" width="1.5" height="1"/>
<rect x="8.634" y="15.53" transform="matrix(0.7071 -0.7071 0.7071 0.7071 -8.5867 11.3305)" style="fill:#333333;" width="1.5" height="1"/>
<rect x="9.03" y="10.28" transform="matrix(0.7071 -0.7071 0.7071 0.7071 -5.0082 9.9696)" style="fill:#333333;" width="1" height="1.5"/>
<rect x="14.03" y="15.28" transform="matrix(0.7071 -0.7071 0.7071 0.7071 -7.0793 14.9696)" style="fill:#333333;" width="1" height="1.5"/>
<rect x="8" y="13" style="fill:#333333;" width="1.5" height="1"/>
<rect x="14.5" y="13" style="fill:#333333;" width="1.5" height="1"/>
</svg>






