<?xml version="1.0" encoding="iso-8859-1"?>
<svg version="1.1" id="&#x56FE;&#x5C42;_1" xmlns="http://www.w3.org/2000/svg" xmlns:xlink="http://www.w3.org/1999/xlink" x="0px"
	 y="0px" viewBox="0 0 24 24" style="enable-background:new 0 0 24 24;" xml:space="preserve">
<path style="fill:#333333;" d="M19,22.5H5c-0.827,0-1.5-0.673-1.5-1.5V3c0-0.827,0.673-1.5,1.5-1.5h10.5v5h5V21
	C20.5,21.827,19.827,22.5,19,22.5z M5,2.5C4.724,2.5,4.5,2.724,4.5,3v18c0,0.275,0.224,0.5,0.5,0.5h14c0.275,0,0.5-0.225,0.5-0.5
	V7.5h-5v-5H5z"/>
<rect x="17" y="0.964" transform="matrix(0.7071 -0.7071 0.7071 0.7071 1.9437 13.6924)" style="fill:#333333;" width="1" height="7.071"/>
<path style="fill:#333333;" d="M12,17.5c-2.721,0-4.827-3.09-4.915-3.222L6.898,14l0.187-0.278C7.173,13.59,9.279,10.5,12,10.5
	s4.827,3.09,4.915,3.222L17.103,14l-0.188,0.278C16.827,14.41,14.721,17.5,12,17.5z M8.121,14c0.547,0.705,2.113,2.5,3.879,2.5
	s3.332-1.795,3.879-2.5c-0.547-0.705-2.113-2.5-3.879-2.5S8.668,13.295,8.121,14z"/>
<path style="fill:#333333;" d="M12,15c0.552,0,1-0.448,1-1s-0.448-1-1-1s-1,0.448-1,1S11.448,15,12,15z"/>
</svg>






