<?xml version="1.0" encoding="iso-8859-1"?>
<svg version="1.1" id="&#x56FE;&#x5C42;_1" xmlns="http://www.w3.org/2000/svg" xmlns:xlink="http://www.w3.org/1999/xlink" x="0px"
	 y="0px" viewBox="0 0 24 24" style="enable-background:new 0 0 24 24;" xml:space="preserve">
<path style="fill:#333333;" d="M19,22.5H5c-0.827,0-1.5-0.673-1.5-1.5V3c0-0.827,0.673-1.5,1.5-1.5h10.5v5h5V21
	C20.5,21.827,19.827,22.5,19,22.5z M5,2.5C4.724,2.5,4.5,2.724,4.5,3v18c0,0.275,0.224,0.5,0.5,0.5h14c0.275,0,0.5-0.225,0.5-0.5
	V7.5h-5v-5H5z"/>
<rect x="17" y="0.964" transform="matrix(0.7071 -0.7071 0.7071 0.7071 1.9437 13.6924)" style="fill:#333333;" width="1" height="7.071"/>
<path style="fill:#333333;" d="M12,18.586l-0.26-0.159C11.587,18.334,8,16.096,8,11.6c0-0.316,0-0.904,3.854-2.079L12,9.478
	l0.146,0.044C16,10.696,16,11.284,16,11.6c0,4.496-3.587,6.734-3.739,6.827L12,18.586z M9.001,11.734
	c0.06,3.176,2.235,5.083,2.999,5.657c0.764-0.573,2.939-2.48,2.999-5.657c-0.354-0.281-1.756-0.824-2.999-1.21
	C10.757,10.911,9.355,11.454,9.001,11.734z"/>
</svg>






