<?xml version="1.0" encoding="iso-8859-1"?>
<svg version="1.1" id="&#x56FE;&#x5C42;_1" xmlns="http://www.w3.org/2000/svg" xmlns:xlink="http://www.w3.org/1999/xlink" x="0px"
	 y="0px" viewBox="0 0 24 24" style="enable-background:new 0 0 24 24;" xml:space="preserve">
<path style="fill:#333333;" d="M19.5,21.5h-15c-1.103,0-2-0.897-2-2v-15c0-1.103,0.897-2,2-2h15c1.103,0,2,0.897,2,2v15
	C21.5,20.603,20.603,21.5,19.5,21.5z M4.5,3.5c-0.551,0-1,0.449-1,1v15c0,0.552,0.449,1,1,1h15c0.552,0,1-0.448,1-1v-15
	c0-0.551-0.448-1-1-1H4.5z"/>
<path style="fill:#333333;" d="M17.5,17.5h-11v-11h11V17.5z M7.5,16.5h9v-9h-9V16.5z"/>
<rect x="10.361" y="13.75" transform="matrix(0.7071 -0.7071 0.7071 0.7071 -5.9025 14.25)" style="fill:#333333;" width="7.778" height="1"/>
<rect x="5.861" y="9.25" transform="matrix(0.7071 -0.7071 0.7071 0.7071 -4.0386 9.75)" style="fill:#333333;" width="7.778" height="1"/>
<rect x="4.929" y="11.5" transform="matrix(0.7071 -0.7071 0.7071 0.7071 -4.9706 12)" style="fill:#333333;" width="14.142" height="1"/>
<polygon style="fill:#333333;" points="13,17.5 6.5,17.5 6.5,11 7.5,11 7.5,16.5 13,16.5 "/>
<polygon style="fill:#333333;" points="17.5,13 16.5,13 16.5,7.5 11,7.5 11,6.5 17.5,6.5 "/>
</svg>






