<?xml version="1.0" encoding="iso-8859-1"?>
<svg version="1.1" id="&#x56FE;&#x5C42;_1" xmlns="http://www.w3.org/2000/svg" xmlns:xlink="http://www.w3.org/1999/xlink" x="0px"
	 y="0px" viewBox="0 0 24 24" style="enable-background:new 0 0 24 24;" xml:space="preserve">
<g>
	<path style="fill:#333333;" d="M12.245,4.199C12.123,4.179,12.137,4,12.26,4h7.49C19.888,4,20,4.112,20,4.25v7.49
		c0,0.123-0.179,0.137-0.199,0.016l-0.983-6.158c-0.034-0.213-0.201-0.381-0.415-0.415L12.245,4.199z"/>
	<path style="fill:#333333;" d="M19.898,12.34c-0.294,0-0.544-0.21-0.592-0.505l-0.983-6.159l-6.159-0.983
		c-0.311-0.05-0.527-0.326-0.502-0.641C11.687,3.737,11.944,3.5,12.26,3.5h7.49c0.413,0,0.75,0.336,0.75,0.75v7.49
		c0,0.316-0.237,0.573-0.553,0.598C19.931,12.339,19.914,12.34,19.898,12.34z M17.302,4.5l1.181,0.188
		c0.427,0.068,0.76,0.402,0.829,0.83L19.5,6.701V4.5H17.302z M12.324,3.705L12.324,3.705C12.324,3.705,12.324,3.705,12.324,3.705
		L12.324,3.705z"/>
</g>
<g>
	<path style="fill:#333333;" d="M3.244,13.199C3.123,13.179,3.137,13,3.26,13h7.49c0.138,0,0.25,0.112,0.25,0.25v7.49
		c0,0.123-0.179,0.137-0.199,0.016l-0.984-6.158c-0.034-0.213-0.201-0.381-0.415-0.415L3.244,13.199z"/>
	<path style="fill:#333333;" d="M10.898,21.34c-0.294,0-0.543-0.209-0.591-0.504l-0.983-6.16l-6.159-0.982
		c-0.312-0.051-0.528-0.326-0.503-0.641C2.688,12.737,2.944,12.5,3.26,12.5h7.49c0.414,0,0.75,0.337,0.75,0.75v7.49
		c0,0.315-0.237,0.572-0.552,0.598C10.932,21.339,10.915,21.34,10.898,21.34z M8.299,13.5l1.183,0.188
		c0.428,0.069,0.762,0.402,0.83,0.829l0.188,1.18V13.5H8.299z M3.324,12.705l0.001,0.001C3.325,12.706,3.324,12.706,3.324,12.705
		L3.324,12.705z"/>
</g>
<g>
	<path style="fill:#333333;" d="M7.745,8.699C7.623,8.679,7.637,8.5,7.76,8.5h7.49c0.138,0,0.25,0.112,0.25,0.25v7.49
		c0,0.123-0.179,0.137-0.199,0.016l-0.926-5.801c-0.068-0.427-0.403-0.762-0.83-0.83L7.745,8.699z"/>
	<path style="fill:#333333;" d="M15.398,16.84c-0.294,0-0.544-0.209-0.591-0.504l-0.927-5.802c-0.034-0.214-0.201-0.381-0.415-0.415
		l-5.8-0.926c-0.312-0.05-0.528-0.325-0.503-0.64C7.188,8.237,7.444,8,7.76,8h7.49C15.663,8,16,8.336,16,8.75v7.49
		c0,0.315-0.237,0.572-0.552,0.598C15.432,16.839,15.415,16.84,15.398,16.84z M12.802,9l0.822,0.131
		c0.642,0.103,1.142,0.603,1.245,1.245L15,11.199V9H12.802z M7.824,8.205h0.001C7.825,8.205,7.824,8.205,7.824,8.205L7.824,8.205z"
		/>
</g>
</svg>






