<?xml version="1.0" encoding="iso-8859-1"?>
<svg version="1.1" id="&#x56FE;&#x5C42;_1" xmlns="http://www.w3.org/2000/svg" xmlns:xlink="http://www.w3.org/1999/xlink" x="0px"
	 y="0px" viewBox="0 0 24 24" style="enable-background:new 0 0 24 24;" xml:space="preserve">
<path style="fill:#333333;" d="M20.5,18.5h-1.491v-1H20.5c0.552,0,1-0.448,1-1v-13c0-0.551-0.448-1-1-1h-13c-0.551,0-1,0.449-1,1
	v1.463h-1V3.5c0-1.103,0.897-2,2-2h13c1.103,0,2,0.897,2,2v13C22.5,17.603,21.603,18.5,20.5,18.5z"/>
<path style="fill:#333333;" d="M17.5,22.5h-14c-1.103,0-2-0.897-2-2v-14c0-1.103,0.897-2,2-2h14c1.103,0,2,0.897,2,2v14
	C19.5,21.603,18.603,22.5,17.5,22.5z M3.5,5.5c-0.551,0-1,0.449-1,1v14c0,0.552,0.449,1,1,1h14c0.552,0,1-0.448,1-1v-14
	c0-0.551-0.448-1-1-1H3.5z"/>
<polygon style="fill:#333333;" points="10.5,12.207 7.146,8.854 7.854,8.146 10.5,10.793 13.146,8.146 13.854,8.854 "/>
<rect x="7" y="12" style="fill:#333333;" width="7" height="1"/>
<rect x="7" y="15" style="fill:#333333;" width="7" height="1"/>
<rect x="10" y="12.5" style="fill:#333333;" width="1" height="5.5"/>
</svg>






