<?xml version="1.0" encoding="iso-8859-1"?>
<svg version="1.1" id="&#x56FE;&#x5C42;_1" xmlns="http://www.w3.org/2000/svg" xmlns:xlink="http://www.w3.org/1999/xlink" x="0px"
	 y="0px" viewBox="0 0 24 24" style="enable-background:new 0 0 24 24;" xml:space="preserve">
<path style="fill:#333333;" d="M12,22.5C6.21,22.5,1.5,17.79,1.5,12C1.5,6.21,6.21,1.5,12,1.5c5.79,0,10.5,4.71,10.5,10.5
	C22.5,17.79,17.79,22.5,12,22.5z M12,2.5c-5.238,0-9.5,4.262-9.5,9.5s4.262,9.5,9.5,9.5s9.5-4.262,9.5-9.5S17.238,2.5,12,2.5z"/>
<path style="fill:#333333;" d="M12,15.62c-0.384,0-0.768-0.146-1.061-0.438l-2.122-2.121c-0.584-0.585-0.584-1.537,0-2.121
	l2.122-2.122c0.585-0.584,1.536-0.585,2.121,0l2.121,2.122c0.283,0.283,0.439,0.66,0.439,1.061c0,0.4-0.156,0.777-0.439,1.061
	l-2.121,2.121C12.769,15.474,12.384,15.62,12,15.62z M12,9.379c-0.128,0-0.256,0.048-0.354,0.146l-2.122,2.122
	c-0.195,0.195-0.195,0.512,0,0.707l2.121,2.121c0.195,0.195,0.512,0.195,0.707,0l2.121-2.121c0.095-0.095,0.146-0.22,0.146-0.354
	s-0.052-0.259-0.146-0.353l-2.121-2.122C12.256,9.427,12.128,9.379,12,9.379z"/>
</svg>






