<?xml version="1.0" encoding="iso-8859-1"?>
<svg version="1.1" id="&#x56FE;&#x5C42;_1" xmlns="http://www.w3.org/2000/svg" xmlns:xlink="http://www.w3.org/1999/xlink" x="0px"
	 y="0px" viewBox="0 0 24 24" style="enable-background:new 0 0 24 24;" xml:space="preserve">
<rect x="2" y="3" style="fill:#333333;" width="20" height="1"/>
<rect x="2" y="11" style="fill:#333333;" width="5.5" height="1"/>
<rect x="2" y="19" style="fill:#333333;" width="5.5" height="1"/>
<path style="fill:#333333;" d="M15.75,17.5c-2.619,0-4.75-2.131-4.75-4.75S13.131,8,15.75,8s4.75,2.131,4.75,4.75
	S18.369,17.5,15.75,17.5z M15.75,9C13.683,9,12,10.682,12,12.75c0,2.067,1.683,3.75,3.75,3.75s3.75-1.683,3.75-3.75
	C19.5,10.682,17.817,9,15.75,9z"/>
<rect x="19.75" y="15.279" transform="matrix(0.7097 -0.7045 0.7045 0.7097 -6.6352 19.4243)" style="fill:#333333;" width="1" height="4.968"/>
</svg>






