<?xml version="1.0" encoding="iso-8859-1"?>
<svg version="1.1" id="&#x56FE;&#x5C42;_1" xmlns="http://www.w3.org/2000/svg" xmlns:xlink="http://www.w3.org/1999/xlink" x="0px"
	 y="0px" viewBox="0 0 24 24" style="enable-background:new 0 0 24 24;" xml:space="preserve">
<path style="fill:#333333;" d="M11.9,17.5c-1.378,0-2.703-0.496-3.729-1.397l0.659-0.752c0.845,0.741,1.935,1.149,3.07,1.149
	c2.537,0,4.6-2.019,4.6-4.5s-2.063-4.5-4.6-4.5v-1c3.088,0,5.6,2.467,5.6,5.5C17.5,15.032,14.988,17.5,11.9,17.5z"/>
<path style="fill:#333333;" d="M12,22.5c-2.745,0-5.342-1.053-7.312-2.965C2.632,17.54,1.5,14.864,1.5,12
	c0-2.72,1.036-5.299,2.917-7.262l0.722,0.691C3.437,7.206,2.5,9.539,2.5,12c0,2.592,1.024,5.013,2.884,6.818
	C7.167,20.548,9.517,21.5,12,21.5c5.238,0,9.5-4.262,9.5-9.5S17.238,2.5,12,2.5v-1c5.79,0,10.5,4.71,10.5,10.5
	C22.5,17.79,17.79,22.5,12,22.5z"/>
<polygon style="fill:#333333;" points="5.395,19.525 4.677,18.828 11.291,12.013 4.432,5.445 5.124,4.722 12.709,11.987 "/>
</svg>






