<?xml version="1.0" encoding="iso-8859-1"?>
<svg version="1.1" id="&#x56FE;&#x5C42;_1" xmlns="http://www.w3.org/2000/svg" xmlns:xlink="http://www.w3.org/1999/xlink" x="0px"
	 y="0px" viewBox="0 0 24 24" style="enable-background:new 0 0 24 24;" xml:space="preserve">
<path style="fill:#333333;" d="M16,22h-1V11c0-1.378-1.121-2.5-2.5-2.5C11.122,8.5,10,9.622,10,11v11H9V11c0-1.93,1.57-3.5,3.5-3.5
	S16,9.07,16,11V22z"/>
<path style="fill:#333333;" d="M19,22h-1V11c0-3.033-2.468-5.5-5.5-5.5C9.467,5.5,7,7.967,7,11v11H6V11c0-3.584,2.916-6.5,6.5-6.5
	S19,7.416,19,11V22z"/>
<path style="fill:#333333;" d="M22,22h-1V11c0-4.687-3.813-8.5-8.5-8.5C7.813,2.5,4,6.313,4,11v11H3V11c0-5.238,4.262-9.5,9.5-9.5
	S22,5.762,22,11V22z"/>
<rect x="12" y="11" style="fill:#333333;" width="1" height="11"/>
</svg>






