<?xml version="1.0" encoding="iso-8859-1"?>
<svg version="1.1" id="&#x56FE;&#x5C42;_1" xmlns="http://www.w3.org/2000/svg" xmlns:xlink="http://www.w3.org/1999/xlink" x="0px"
	 y="0px" viewBox="0 0 24 24" style="enable-background:new 0 0 24 24;" xml:space="preserve">
<path style="fill:#333333;" d="M20.865,6.376c-2.376-2.338-5.538-3.626-8.906-3.626c-3.347,0-6.495,1.273-8.865,3.586L2.396,5.621
	C4.953,3.125,8.35,1.75,11.959,1.75c3.632,0,7.044,1.39,9.607,3.913L20.865,6.376z"/>
<path style="fill:#333333;" d="M2.833,14.737v-0.029c0-5.054,4.112-9.166,9.167-9.166v1c-4.503,0-8.167,3.663-8.167,8.166
	L2.833,14.737z"/>
<path style="fill:#333333;" d="M20.167,14.715c0-3.201-1.88-6.121-4.789-7.444l0.414-0.91c3.266,1.486,5.375,4.762,5.375,8.348
	L20.167,14.715z"/>
<path style="fill:#333333;" d="M17.375,18.5h-1v-3.792c0-2.412-1.963-4.375-4.375-4.375c-2.413,0-4.375,1.963-4.375,4.375V18.5h-1
	v-3.792c0-2.964,2.411-5.375,5.375-5.375s5.375,2.411,5.375,5.375V18.5z"/>
<path style="fill:#333333;" d="M8.883,22.235l-0.239-0.971c0.736-0.182,1.231-1.009,1.231-1.667V15.25
	c0-1.172,0.953-2.125,2.125-2.125s2.125,0.953,2.125,2.125v4.348h-1V15.25c0-0.62-0.505-1.125-1.125-1.125s-1.125,0.505-1.125,1.125
	v4.348C10.875,20.652,10.13,21.928,8.883,22.235z"/>
</svg>






