<?xml version="1.0" encoding="iso-8859-1"?>
<svg version="1.1" id="&#x56FE;&#x5C42;_1" xmlns="http://www.w3.org/2000/svg" xmlns:xlink="http://www.w3.org/1999/xlink" x="0px"
	 y="0px" viewBox="0 0 24 24" style="enable-background:new 0 0 24 24;" xml:space="preserve">
<path style="fill:#333333;" d="M12,22.5C6.21,22.5,1.5,17.79,1.5,12C1.5,6.21,6.21,1.5,12,1.5v1c-5.238,0-9.5,4.262-9.5,9.5
	s4.262,9.5,9.5,9.5s9.5-4.262,9.5-9.5h1C22.5,17.79,17.79,22.5,12,22.5z"/>
<polygon style="fill:#333333;" points="19.155,6.523 19,6.41 18.845,6.523 18.075,5.963 18.135,5.781 17.979,5.669 18.273,4.764 
	18.465,4.764 18.524,4.581 19.476,4.581 19.535,4.764 19.727,4.764 20.021,5.669 19.865,5.781 19.925,5.963 "/>
<path style="fill:#333333;" d="M12,19c-1.93,0-3.5-1.57-3.5-3.5v-6C8.5,7.57,10.07,6,12,6s3.5,1.57,3.5,3.5v6
	C15.5,17.43,13.93,19,12,19z M12,7c-1.378,0-2.5,1.122-2.5,2.5v6c0,1.379,1.122,2.5,2.5,2.5c1.379,0,2.5-1.121,2.5-2.5v-6
	C14.5,8.122,13.379,7,12,7z"/>
<path style="fill:#333333;" d="M7,20.393H6V15.5C6,13.246,7.774,12,9,12v1c-0.718,0-2,0.835-2,2.5V20.393z"/>
<path style="fill:#333333;" d="M18,20.25h-1V15.5c0-1.665-1.282-2.5-2-2.5v-1c1.227,0,3,1.246,3,3.5V20.25z"/>
</svg>






