<?xml version="1.0" encoding="iso-8859-1"?>
<svg version="1.1" id="&#x56FE;&#x5C42;_1" xmlns="http://www.w3.org/2000/svg" xmlns:xlink="http://www.w3.org/1999/xlink" x="0px"
	 y="0px" viewBox="0 0 24 24" style="enable-background:new 0 0 24 24;" xml:space="preserve">
<path style="fill:#333333;" d="M15.5,21.5h-1V11c0-1.378-1.121-2.5-2.5-2.5c-1.378,0-2.5,1.122-2.5,2.5v10.5h-1V11
	c0-1.93,1.57-3.5,3.5-3.5s3.5,1.57,3.5,3.5V21.5z"/>
<path style="fill:#333333;" d="M18.5,20h-1v-9c0-3.033-2.468-5.5-5.5-5.5c-3.033,0-5.5,2.467-5.5,5.5v9h-1v-9
	c0-3.584,2.916-6.5,6.5-6.5s6.5,2.916,6.5,6.5V20z"/>
<path style="fill:#333333;" d="M21.5,17.5h-1V11c0-4.687-3.813-8.5-8.5-8.5c-4.687,0-8.5,3.813-8.5,8.5v6.5h-1V11
	c0-5.238,4.262-9.5,9.5-9.5s9.5,4.262,9.5,9.5V17.5z"/>
<rect x="11.5" y="15.5" style="fill:#333333;" width="1" height="6.5"/>
<rect x="11.5" y="10.938" style="fill:#333333;" width="1" height="1.375"/>
</svg>






