<?xml version="1.0" encoding="iso-8859-1"?>
<svg version="1.1" id="&#x56FE;&#x5C42;_1" xmlns="http://www.w3.org/2000/svg" xmlns:xlink="http://www.w3.org/1999/xlink" x="0px"
	 y="0px" viewBox="0 0 24 24" style="enable-background:new 0 0 24 24;" xml:space="preserve">
<path style="fill:#333333;" d="M11.5,22.5h-9V10c0-2.481,2.019-4.5,4.5-4.5s4.5,2.019,4.5,4.5V22.5z M3.5,21.5h7V10
	c0-1.93-1.57-3.5-3.5-3.5S3.5,8.07,3.5,10V21.5z"/>
<path style="fill:none;" d="M15,22h6l-3-9L15,22z"/>
<path style="fill:#333333;" d="M21.693,22.5h-7.387l3.193-9.581V12c0-3.628,0-5.45-1.025-6.475C15.45,4.5,13.629,4.5,10,4.5H9v-1h1
	c3.904,0,5.864,0,7.182,1.318C18.5,6.136,18.5,8.096,18.5,12v0.919L21.693,22.5z M15.693,21.5h4.613L18,14.581L15.693,21.5z M5,4.5
	H3v-1h2V4.5z"/>
<path style="fill:#333333;" d="M7,6.5C5.622,6.5,4.5,5.378,4.5,4S5.622,1.5,7,1.5S9.5,2.622,9.5,4S8.378,6.5,7,6.5z M7,2.5
	C6.173,2.5,5.5,3.173,5.5,4S6.173,5.5,7,5.5S8.5,4.827,8.5,4S7.827,2.5,7,2.5z"/>
</svg>






