<?xml version="1.0" encoding="iso-8859-1"?>
<svg version="1.1" id="&#x56FE;&#x5C42;_1" xmlns="http://www.w3.org/2000/svg" xmlns:xlink="http://www.w3.org/1999/xlink" x="0px"
	 y="0px" viewBox="0 0 24 24" style="enable-background:new 0 0 24 24;" xml:space="preserve">
<path style="fill:#333333;" d="M12,22.5c-4.486,0-8-3.422-8-7.791c0-1.576,0.282-2.834,0.838-3.738
	c0.517-0.84,0.861-1.209,1.337-1.721C6.32,9.094,6.48,8.923,6.663,8.717l0.311-0.345c0.498-0.548,0.631-0.695,1.127-1.628
	C8.639,5.734,9.093,3.562,9.093,2l0.816-0.387l0.473,0.378c1.029,0.815,2.439,1.932,3.54,3.544c0.941,1.378,1.659,3.423,1.987,4.606
	c0.471-0.459,1.035-1.234,1.186-2.487l0.931-0.188c0.61,1.072,0.743,1.329,1.327,3.082C19.95,12.347,20,13.511,20,14.549
	C20,18.934,16.411,22.5,12,22.5z M10.045,3C9.917,4.438,9.54,6.169,8.984,7.214C8.43,8.257,8.235,8.472,7.714,9.045L7.409,9.383
	C7.22,9.595,7.056,9.771,6.907,9.932c-0.453,0.487-0.753,0.808-1.217,1.563C5.232,12.238,5,13.32,5,14.709
	c0,3.808,3.075,6.791,7,6.791c3.859,0,7-3.118,7-6.951c0-0.996-0.046-2.027-0.597-3.686c-0.296-0.889-0.466-1.366-0.642-1.759
	c-0.517,1.338-1.43,2.019-1.782,2.282l-0.874-0.344c-0.038-0.363-0.856-3.253-2.01-4.943C12.176,4.751,10.988,3.753,10.045,3z"/>
</svg>






