<?xml version="1.0" encoding="iso-8859-1"?>
<svg version="1.1" id="&#x56FE;&#x5C42;_1" xmlns="http://www.w3.org/2000/svg" xmlns:xlink="http://www.w3.org/1999/xlink" x="0px"
	 y="0px" viewBox="0 0 24 24" style="enable-background:new 0 0 24 24;" xml:space="preserve">
<path style="fill:#333333;" d="M11.5,17.5c-3.86,0-7-3.141-7-7c0-2.223,0.881-3.639,1.815-5.139
	c0.641-1.029,1.303-2.094,1.704-3.499l0.157-0.55L8.7,1.542c2.803,1.226,3.779,3.979,4.119,5.777
	c0.661-0.965,1.786-2.111,3.56-2.554l0.566-0.142l0.053,0.581c0.129,1.415,0.535,2.325,0.894,3.127
	C18.204,9.033,18.5,9.695,18.5,10.5C18.5,14.359,15.359,17.5,11.5,17.5z M8.799,2.709C8.362,3.965,7.754,4.941,7.164,5.89
	C6.271,7.324,5.5,8.563,5.5,10.5c0,3.309,2.691,6,6,6s6-2.691,6-6c0-0.592-0.23-1.107-0.521-1.761
	c-0.321-0.718-0.71-1.588-0.901-2.833c-2.273,0.872-3.095,3.227-3.104,3.252L12,9C12,8.954,11.951,4.512,8.799,2.709z"/>
<rect x="11" y="11.754" transform="matrix(0.2425 -0.9701 0.9701 0.2425 -10.692 26.3059)" style="fill:#333333;" width="1" height="16.492"/>
<rect x="3.254" y="19.5" transform="matrix(0.9703 -0.2421 0.2421 0.9703 -4.4995 3.3787)" style="fill:#333333;" width="16.492" height="1"/>
</svg>






