<?xml version="1.0" encoding="iso-8859-1"?>
<svg version="1.1" id="&#x56FE;&#x5C42;_1" xmlns="http://www.w3.org/2000/svg" xmlns:xlink="http://www.w3.org/1999/xlink" x="0px"
	 y="0px" viewBox="0 0 24 24" style="enable-background:new 0 0 24 24;" xml:space="preserve">
<path style="fill:#333333;" d="M3.152,21.477l-0.624-0.642l4.604-13.13l9.291,9.546L3.152,21.477z M7.542,9.559L3.804,20.22
	l10.773-3.432L7.542,9.559z"/>
<path style="fill:#333333;" d="M11.854,9.854l-0.707-0.707l2.5-2.5c1.459-1.459,1.033-2.259,0.5-2.793l0.707-0.707
	c0.846,0.845,1.445,2.261-0.5,4.207L11.854,9.854z"/>
<path style="fill:#333333;" d="M14.854,12.854l-0.707-0.707l2.5-2.5c1.867-1.866,3.84-1.866,5.707,0l-0.707,0.707
	c-1.465-1.464-2.828-1.464-4.293,0L14.854,12.854z"/>
<path style="fill:#333333;" d="M10,3.5c0.552,0,1-0.448,1-1s-0.448-1-1-1s-1,0.448-1,1S9.448,3.5,10,3.5z"/>
<path style="fill:#333333;" d="M21,3c0.552,0,1-0.448,1-1s-0.448-1-1-1s-1,0.448-1,1S20.448,3,21,3z"/>
<path style="fill:#333333;" d="M21,14.5c0.552,0,1-0.448,1-1s-0.448-1-1-1s-1,0.448-1,1S20.448,14.5,21,14.5z"/>
<path style="fill:#333333;" d="M19.5,19c0.552,0,1-0.448,1-1s-0.448-1-1-1s-1,0.448-1,1S18.948,19,19.5,19z"/>
</svg>






