<?xml version="1.0" encoding="iso-8859-1"?>
<svg version="1.1" id="&#x56FE;&#x5C42;_1" xmlns="http://www.w3.org/2000/svg" xmlns:xlink="http://www.w3.org/1999/xlink" x="0px"
	 y="0px" viewBox="0 0 24 24" style="enable-background:new 0 0 24 24;" xml:space="preserve">
<path style="fill:#333333;" d="M19,20.5H5c-0.827,0-1.5-0.673-1.5-1.5v-9h1v9c0,0.275,0.224,0.5,0.5,0.5h14
	c0.275,0,0.5-0.225,0.5-0.5v-9h1v9C20.5,19.827,19.827,20.5,19,20.5z"/>
<path style="fill:#333333;" d="M22,10.5H2v-4h20V10.5z M3,9.5h18v-2H3V9.5z"/>
<path style="fill:#333333;" d="M16,7.5H8v-4h8V7.5z M9,6.5h6v-2H9V6.5z"/>
<rect x="10" y="14.5" style="fill:#333333;" width="4" height="1"/>
<rect x="11.5" y="13" style="fill:#333333;" width="1" height="4"/>
</svg>






