<?xml version="1.0" encoding="iso-8859-1"?>
<svg version="1.1" id="&#x56FE;&#x5C42;_1" xmlns="http://www.w3.org/2000/svg" xmlns:xlink="http://www.w3.org/1999/xlink" x="0px"
	 y="0px" viewBox="0 0 24 24" style="enable-background:new 0 0 24 24;" xml:space="preserve">
<g>
	<defs>
		<rect id="SVGID_1_" width="24" height="24"/>
	</defs>
	<clipPath id="SVGID_00000072258847622220616430000014550147685316720281_">
		<use xlink:href="#SVGID_1_"  style="overflow:visible;"/>
	</clipPath>
	<g style="clip-path:url(#SVGID_00000072258847622220616430000014550147685316720281_);">
		<path style="fill:#333333;" d="M6.391,21.706c-0.709,0-1.352-0.694-1.915-2.071c-1.605-0.656-2.283-1.42-2.014-2.272
			c0.417-1.318,3.368-1.918,5.349-1.426l0.291,0.073l0.073,0.291c0.496,1.981-0.106,4.932-1.425,5.348
			C6.628,21.688,6.509,21.706,6.391,21.706z M6.302,16.76c-1.43,0-2.758,0.5-2.885,0.904c-0.036,0.114,0.185,0.565,1.625,1.119
			l0.207,0.08l0.08,0.207c0.553,1.439,1,1.65,1.12,1.625c0.494-0.156,1.134-2.113,0.821-3.853C6.95,16.785,6.623,16.76,6.302,16.76z
			"/>
		<path style="fill:#333333;" d="M8.211,9.876C6.902,9.495,5.329,8.742,4.84,7.777c-0.208-0.411-0.16-0.749-0.083-0.96
			c0.545-1.5,4.163-2.193,6.457-2.193c0.01,0,0.02,0,0.029,0l-0.003,1C8.612,5.601,5.945,6.477,5.696,7.159
			C5.68,7.205,5.707,7.275,5.732,7.325c0.232,0.458,1.255,1.152,2.76,1.591L8.211,9.876z"/>
		<path style="fill:#333333;" d="M16.921,19.421c-0.169,0.001-0.366-0.038-0.585-0.148c-0.965-0.488-1.718-2.062-2.1-3.371
			l0.959-0.281c0.44,1.506,1.135,2.528,1.593,2.761c0.05,0.025,0.116,0.055,0.166,0.035c0.682-0.248,1.541-2.908,1.535-5.544
			l1-0.002c0.006,2.292-0.688,5.938-2.193,6.485C17.197,19.392,17.07,19.421,16.921,19.421z"/>
		<path style="fill:#333333;" d="M7.144,16.958l0.048-0.578c0.029-0.354,0.756-8.701,3.68-11.625
			c3.003-3.004,9.075-1.265,9.331-1.189l0.235,0.069l0.09,0.229c0.098,0.25,2.353,6.162-1.191,9.389
			c-3.423,3.115-11.282,3.647-11.615,3.669L7.144,16.958z M16.066,4.002c-1.602,0-3.348,0.32-4.487,1.459
			c-2.247,2.247-3.11,8.461-3.33,10.41c1.882-0.187,7.764-0.947,10.414-3.36l0,0c2.675-2.434,1.376-6.972,1.016-8.051
			C19.119,4.321,17.665,4.002,16.066,4.002z"/>
		<path style="fill:#333333;" d="M18.926,13.381c-0.144-0.022-3.543-0.579-5.579-2.616c-2.036-2.036-2.592-5.435-2.615-5.579
			l0.987-0.156c0.005,0.032,0.532,3.225,2.334,5.028c1.809,1.809,4.996,2.33,5.028,2.334L18.926,13.381z"/>
		<circle style="fill:#333333;" cx="16.883" cy="7.23" r="1"/>
		<path style="fill:#333333;" d="M16.05,15.165l-0.365-0.932c1.269-0.498,2.271-1.077,2.979-1.721
			c0.632-0.576,1.089-1.312,1.358-2.188l0.955,0.294c-0.322,1.048-0.874,1.935-1.641,2.633
			C18.537,13.979,17.432,14.622,16.05,15.165z"/>
		<path style="fill:#333333;" d="M10.173,7.7L9.257,7.3c0.479-1.096,1.022-1.952,1.615-2.545c0.644-0.644,1.481-1.117,2.489-1.407
			l0.277,0.961c-0.844,0.243-1.537,0.631-2.06,1.153C11.075,5.966,10.602,6.719,10.173,7.7z"/>
	</g>
</g>
</svg>






