<?xml version="1.0" encoding="iso-8859-1"?>
<svg version="1.1" id="&#x56FE;&#x5C42;_1" xmlns="http://www.w3.org/2000/svg" xmlns:xlink="http://www.w3.org/1999/xlink" x="0px"
	 y="0px" viewBox="0 0 24 24" style="enable-background:new 0 0 24 24;" xml:space="preserve">
<path style="fill:#333333;" d="M12.392,22.123c-1.38,0-2.646-0.26-3.588-0.663C8.158,21.183,2.5,18.61,2.5,13.5
	c0-2.375,2.929-3.532,4-3.875V6c0-1.241,1.009-2.25,2.25-2.25c0.494,0,0.951,0.16,1.323,0.431C10.326,3.215,11.206,2.5,12.25,2.5
	s1.925,0.715,2.177,1.681C14.799,3.91,15.256,3.75,15.75,3.75C16.99,3.75,18,4.759,18,6v0.38C18.357,6.14,18.788,6,19.25,6
	c1.24,0,2.25,1.008,2.25,2.248V15c0,2.266-2.167,4.799-4.261,5.939l0,0C15.684,21.786,13.964,22.123,12.392,22.123z M8.75,4.75
	C8.061,4.75,7.5,5.311,7.5,6v3.744c0,0.372-0.241,0.694-0.599,0.804C6.333,10.722,3.5,11.68,3.5,13.5c0,4.47,5.114,6.79,5.697,7.04
	c1.801,0.771,4.934,0.952,7.564-0.479l0,0C18.822,18.938,20.5,16.669,20.5,15V8.248C20.5,7.56,19.939,7,19.25,7
	C18.562,7,18.001,7.56,18,8.248l-1-0.002V6c0-0.689-0.561-1.25-1.25-1.25S14.5,5.311,14.5,6h-1V4.75c0-0.689-0.561-1.25-1.25-1.25
	S11,4.061,11,4.75V6h-1C10,5.311,9.439,4.75,8.75,4.75z"/>
</svg>






