<?xml version="1.0" encoding="iso-8859-1"?>
<svg version="1.1" id="&#x56FE;&#x5C42;_1" xmlns="http://www.w3.org/2000/svg" xmlns:xlink="http://www.w3.org/1999/xlink" x="0px"
	 y="0px" viewBox="0 0 24 24" style="enable-background:new 0 0 24 24;" xml:space="preserve">
<path style="fill:#333333;" d="M14.122,22.5h-0.577c-2.691,0-5.248-1.297-6.837-3.47l-3.836-5.243
	c-0.862-1.178-0.623-2.86,0.535-3.75C4.482,9.21,6.017,9.31,6.977,10.27L7.5,10.793V3.625C7.5,2.453,8.453,1.5,9.625,1.5
	c0.545,0,1.043,0.207,1.42,0.545C11.416,1.42,12.097,1,12.875,1s1.46,0.42,1.83,1.045C15.081,1.707,15.58,1.5,16.125,1.5
	c1.172,0,2.125,0.953,2.125,2.125v0.198C18.576,3.618,18.962,3.5,19.375,3.5c1.172,0,2.125,0.953,2.125,2.125v9.529
	c0,1.473-0.441,2.896-1.278,4.117C18.84,21.293,16.56,22.5,14.122,22.5z M7.515,18.44c1.402,1.916,3.657,3.06,6.03,3.06h0.577
	c2.107,0,4.079-1.044,5.274-2.793c0.722-1.055,1.104-2.283,1.104-3.553V5.625c0-0.62-0.505-1.125-1.125-1.125
	S18.25,5.005,18.25,5.625h-1v-2c0-0.62-0.505-1.125-1.125-1.125S15,3.005,15,3.625h-1v-0.5C14,2.505,13.495,2,12.875,2
	S11.75,2.505,11.75,3.125v0.5h-1c0-0.62-0.505-1.125-1.125-1.125S8.5,3.005,8.5,3.625V12l-0.854,0.354L6.27,10.977
	c-0.605-0.605-1.574-0.667-2.254-0.146c-0.73,0.562-0.881,1.623-0.337,2.367L7.515,18.44z"/>
</svg>






