<?xml version="1.0" encoding="iso-8859-1"?>
<svg version="1.1" id="&#x56FE;&#x5C42;_1" xmlns="http://www.w3.org/2000/svg" xmlns:xlink="http://www.w3.org/1999/xlink" x="0px"
	 y="0px" viewBox="0 0 24 24" style="enable-background:new 0 0 24 24;" xml:space="preserve">
<path style="fill:#333333;" d="M20.5,17c-1.313,0-2-2.264-2-4.5s0.687-4.5,2-4.5s2,2.264,2,4.5S21.813,17,20.5,17z M20.5,9
	c-0.29,0-1,1.227-1,3.5s0.71,3.5,1,3.5s1-1.227,1-3.5S20.79,9,20.5,9z"/>
<path style="fill:#333333;" d="M3.5,17c-1.313,0-2-2.264-2-4.5S2.187,8,3.5,8s2,2.264,2,4.5S4.813,17,3.5,17z M3.5,9
	c-0.29,0-1,1.227-1,3.5s0.71,3.5,1,3.5s1-1.227,1-3.5S3.79,9,3.5,9z"/>
<path style="fill:#333333;" d="M12,22.5c-2.298,0-3.5-5.282-3.5-10.5S9.702,1.5,12,1.5s3.5,5.282,3.5,10.5S14.298,22.5,12,22.5z
	 M12,2.5c-1.044,0-2.5,3.614-2.5,9.5s1.456,9.5,2.5,9.5s2.5-3.614,2.5-9.5S13.044,2.5,12,2.5z"/>
<path style="fill:#333333;" d="M17,20.5c-1.978,0-2.5-5.56-2.5-8.5c0-2.94,0.522-8.5,2.5-8.5s2.5,5.56,2.5,8.5
	C19.5,14.94,18.978,20.5,17,20.5z M17,4.5c-0.436,0-1.5,2.628-1.5,7.5c0,4.872,1.064,7.5,1.5,7.5s1.5-2.628,1.5-7.5
	C18.5,7.128,17.436,4.5,17,4.5z"/>
<path style="fill:#333333;" d="M7,20.5c-1.978,0-2.5-5.56-2.5-8.5c0-2.94,0.522-8.5,2.5-8.5S9.5,9.06,9.5,12
	C9.5,14.94,8.978,20.5,7,20.5z M7,4.5c-0.436,0-1.5,2.628-1.5,7.5c0,4.872,1.064,7.5,1.5,7.5s1.5-2.628,1.5-7.5
	C8.5,7.128,7.436,4.5,7,4.5z"/>
</svg>






