<?xml version="1.0" encoding="iso-8859-1"?>
<svg version="1.1" id="&#x56FE;&#x5C42;_1" xmlns="http://www.w3.org/2000/svg" xmlns:xlink="http://www.w3.org/1999/xlink" x="0px"
	 y="0px" viewBox="0 0 24 24" style="enable-background:new 0 0 24 24;" xml:space="preserve">
<path style="fill:#333333;" d="M19.5,21.5h-15c-1.103,0-2-0.897-2-2v-15c0-1.103,0.897-2,2-2h15c1.103,0,2,0.897,2,2v15
	C21.5,20.603,20.603,21.5,19.5,21.5z M4.5,3.5c-0.551,0-1,0.449-1,1v15c0,0.552,0.449,1,1,1h15c0.552,0,1-0.448,1-1v-15
	c0-0.551-0.448-1-1-1H4.5z"/>
<path style="fill:#333333;" d="M12,17c-1.843,0-2.5-1.289-2.5-2.496h1C10.5,15.187,10.76,16,12,16c1.039,0,2-0.363,2-3
	c0-2.091-0.55-2.5-1.5-2.5c-1.352,0-2.229,0.436-2.236,0.44l-0.233-0.423H9.5V6.505h5v1h-4v2.28c0.78-0.22,1.77-0.285,2-0.285
	C15,9.5,15,12.043,15,13C15,13.989,15,17,12,17z"/>
</svg>






