<?xml version="1.0" encoding="iso-8859-1"?>
<svg version="1.1" id="&#x56FE;&#x5C42;_1" xmlns="http://www.w3.org/2000/svg" xmlns:xlink="http://www.w3.org/1999/xlink" x="0px"
	 y="0px" viewBox="0 0 24 24" style="enable-background:new 0 0 24 24;" xml:space="preserve">
<path style="fill:#333333;" d="M16,22.5H8V11.249C5.491,9.305,4,6.271,4,3.098V1.5h16v1.598c0,3.175-1.492,6.21-4,8.15V22.5z
	 M9,21.5h6V11.098c0-0.218,0.104-0.426,0.278-0.557C17.608,8.793,19,6.011,19,3.098V2.5H5v0.598c0,2.913,1.391,5.695,3.721,7.443
	C8.895,10.668,9,10.878,9,11.098V21.5z M8.12,11.34c0.002,0.001,0.003,0.003,0.005,0.004C8.124,11.343,8.122,11.342,8.12,11.34z"/>
<rect x="5" y="5" style="fill:#333333;" width="14" height="1"/>
<rect x="11.5" y="14.004" style="fill:#333333;" width="1" height="2"/>
<path style="fill:#333333;" d="M8.2,11.4C5.57,9.427,4,6.287,4,3V2h1v1c0,2.974,1.42,5.815,3.8,7.6L8.2,11.4z"/>
<path style="fill:#333333;" d="M15.8,11.4l-0.6-0.8C17.579,8.815,19,5.974,19,3V2h1v1C20,6.287,18.43,9.427,15.8,11.4z"/>
</svg>






