<?xml version="1.0" encoding="iso-8859-1"?>
<svg version="1.1" id="&#x56FE;&#x5C42;_1" xmlns="http://www.w3.org/2000/svg" xmlns:xlink="http://www.w3.org/1999/xlink" x="0px"
	 y="0px" viewBox="0 0 24 24" style="enable-background:new 0 0 24 24;" xml:space="preserve">
<path style="fill:#333333;" d="M22,12.5h-1C21,7.813,17.075,4,12.25,4C7.425,4,3.5,7.813,3.5,12.5h-1C2.5,7.262,6.874,3,12.25,3
	S22,7.262,22,12.5z"/>
<path style="fill:#333333;" d="M22,21H4c-0.92,0-1.701-0.387-2.144-1.062c-0.429-0.655-0.479-1.482-0.137-2.269
	c0.608-1.397,2.339-2.975,2.413-3.041l0.825,0.267L5.405,17l12.761,0.011l4.133,3.089L22,21z M4.169,15.997
	c-0.521,0.546-1.222,1.359-1.532,2.071c-0.206,0.472-0.185,0.953,0.056,1.321C2.947,19.777,3.423,20,4,20h16.496l-2.662-1.989
	L4.595,18L4.169,15.997z"/>
<polygon style="fill:#333333;" points="14.164,17.87 8.807,13 8.11,13 8.99,17.402 8.01,17.598 6.89,12 9.193,12 14.836,17.13 "/>
</svg>






