<?xml version="1.0" encoding="iso-8859-1"?>
<svg version="1.1" id="&#x56FE;&#x5C42;_1" xmlns="http://www.w3.org/2000/svg" xmlns:xlink="http://www.w3.org/1999/xlink" x="0px"
	 y="0px" viewBox="0 0 24 24" style="enable-background:new 0 0 24 24;" xml:space="preserve">
<path style="fill:#333333;" d="M11.826,22.415c-0.28,0-0.558-0.019-0.832-0.057c-2.494-0.345-4.39-2.73-4.857-3.539
	c-0.151-0.262-0.286-0.547-0.399-0.848C5.526,17.41,5.732,16.79,6.24,16.463c0.16-0.103,0.336-0.205,0.523-0.298
	c-0.277-0.053-0.531-0.188-0.722-0.394c-0.275-0.295-0.39-0.695-0.315-1.099c0.186-0.988,0.768-2.827,2.581-4.042
	c2.037-1.364,3.541-0.959,4.534-0.69l0.28,0.074l-0.242,0.97l-0.299-0.079c-0.917-0.248-2.058-0.557-3.717,0.556
	c-1.51,1.012-1.998,2.562-2.155,3.395c-0.017,0.092,0.004,0.17,0.063,0.232c0.07,0.075,0.18,0.11,0.298,0.098
	c0.46-0.055,0.821-0.126,1.071-0.211C8.6,14.82,8.68,14.63,8.855,14.211c0.095-0.227,0.202-0.482,0.387-0.764
	c0.673-1.021,2.228-1.292,3.467-0.604c1.154,0.641,1.699,1.805,1.39,2.965c-0.327,1.217-1.126,1.962-2.374,2.217
	c-1.088,0.222-1.688-0.159-2.382-0.602c-0.263-0.168-0.558-0.356-0.93-0.54c-0.352-0.174-0.946-0.021-1.631,0.421
	c-0.109,0.07-0.153,0.197-0.108,0.314c0.094,0.25,0.205,0.486,0.33,0.701c0.329,0.568,1.993,2.754,4.128,3.049
	c2.012,0.277,4.263-0.675,5.599-2.371c1.163-1.479,1.313-3.637,0.393-5.631l0.908-0.42c1.079,2.338,0.882,4.894-0.516,6.67
	C16.148,21.353,13.943,22.415,11.826,22.415z M8.581,15.88c0.093,0.026,0.185,0.062,0.275,0.106
	c0.409,0.202,0.734,0.408,1.023,0.593c0.635,0.405,0.953,0.611,1.645,0.465c0.883-0.18,1.379-0.641,1.608-1.495
	c0.148-0.559-0.012-1.333-0.909-1.831c-0.846-0.47-1.81-0.229-2.147,0.28c-0.133,0.203-0.218,0.404-0.299,0.599
	C9.585,15.056,9.369,15.573,8.581,15.88z"/>
<path style="fill:#333333;" d="M13.245,14.876c-0.174-0.922-1.06-6.228-1.215-7.162c-0.382-0.465-1.719-2.096-1.946-2.437
	c-0.626-0.939-0.556-2.096,0.191-3.174c0.154-0.222,0.396-0.363,0.665-0.388C11.224,1.692,11.502,1.794,11.708,2l4.745,4.745
	l1.557,6.346l-0.971,0.238l-1.49-6.074l-4.503-4.503c-0.337,0.517-0.606,1.254-0.128,1.971c0.168,0.253,1.271,1.609,1.97,2.459
	l0.085,0.104l0.022,0.132c0.011,0.062,1.049,6.293,1.233,7.272L13.245,14.876z"/>
</svg>






