<?xml version="1.0" encoding="iso-8859-1"?>
<svg version="1.1" id="&#x56FE;&#x5C42;_1" xmlns="http://www.w3.org/2000/svg" xmlns:xlink="http://www.w3.org/1999/xlink" x="0px"
	 y="0px" viewBox="0 0 24 24" style="enable-background:new 0 0 24 24;" xml:space="preserve">
<path style="fill:#333333;" d="M12,20.5c-5.79,0-10.5-3.813-10.5-8.5c0-4.687,4.71-8.5,10.5-8.5c5.79,0,10.5,3.813,10.5,8.5
	C22.5,16.687,17.79,20.5,12,20.5z M12,4.5c-5.238,0-9.5,3.364-9.5,7.5s4.262,7.5,9.5,7.5s9.5-3.364,9.5-7.5S17.238,4.5,12,4.5z"/>
<path style="fill:#333333;" d="M12,14.5c-3.084,0-5.5-1.537-5.5-3.5c0-1.962,2.416-3.5,5.5-3.5s5.5,1.538,5.5,3.5
	C17.5,12.963,15.084,14.5,12,14.5z M12,8.5c-2.439,0-4.5,1.145-4.5,2.5c0,1.355,2.061,2.5,4.5,2.5s4.5-1.145,4.5-2.5
	C16.5,9.645,14.439,8.5,12,8.5z"/>
<rect x="11.5" y="4" style="fill:#333333;" width="1" height="4"/>
<path style="fill:#333333;" d="M16.417,9.275l-0.835-0.55C15.642,8.635,17.07,6.5,19.5,6.5v1C17.618,7.5,16.429,9.258,16.417,9.275z
	"/>
<path style="fill:#333333;" d="M7.554,9.226C7.518,9.155,6.645,7.5,4.5,7.5v-1c2.777,0,3.901,2.184,3.947,2.276L7.554,9.226z"/>
<path style="fill:#333333;" d="M5.995,18.07l-0.99-0.141c0.538-3.763,3.703-4.859,3.837-4.904l0.318,0.948
	C9.049,14.012,6.443,14.935,5.995,18.07z"/>
<path style="fill:#333333;" d="M18.001,18.035c-0.222-3.103-3.03-4.021-3.149-4.058l0.296-0.955c0.146,0.045,3.58,1.144,3.852,4.942
	L18.001,18.035z"/>
</svg>






