<?xml version="1.0" encoding="iso-8859-1"?>
<svg version="1.1" id="&#x56FE;&#x5C42;_1" xmlns="http://www.w3.org/2000/svg" xmlns:xlink="http://www.w3.org/1999/xlink" x="0px"
	 y="0px" viewBox="0 0 24 24" style="enable-background:new 0 0 24 24;" xml:space="preserve">
<path style="fill:#333333;" d="M19.5,21.5h-15c-1.103,0-2-0.897-2-2v-15c0-1.103,0.897-2,2-2h15c1.103,0,2,0.897,2,2v15
	C21.5,20.603,20.603,21.5,19.5,21.5z M4.5,3.5c-0.551,0-1,0.449-1,1v15c0,0.552,0.449,1,1,1h15c0.552,0,1-0.448,1-1v-15
	c0-0.551-0.448-1-1-1H4.5z"/>
<rect x="0.722" y="8" transform="matrix(0.7071 -0.7071 0.7071 0.7071 -3.5208 8.5)" style="fill:#333333;" width="15.556" height="1"/>
<rect x="7.722" y="15" transform="matrix(0.7071 -0.7071 0.7071 0.7071 -6.4203 15.5)" style="fill:#333333;" width="15.556" height="1"/>
<rect x="0.686" y="11.5" transform="matrix(0.7071 -0.7071 0.7071 0.7071 -4.9706 12)" style="fill:#333333;" width="22.627" height="1"/>
<rect x="7.25" y="10.275" transform="matrix(0.7071 -0.7071 0.7071 0.7071 -6.7457 9.2145)" style="fill:#333333;" width="1" height="4.95"/>
<rect x="15.75" y="8.775" transform="matrix(0.7071 -0.7071 0.7071 0.7071 -3.1954 14.7855)" style="fill:#333333;" width="1" height="4.95"/>
</svg>






