<?xml version="1.0" encoding="iso-8859-1"?>
<svg version="1.1" id="&#x56FE;&#x5C42;_1" xmlns="http://www.w3.org/2000/svg" xmlns:xlink="http://www.w3.org/1999/xlink" x="0px"
	 y="0px" viewBox="0 0 24 24" style="enable-background:new 0 0 24 24;" xml:space="preserve">
<path style="fill:#333333;" d="M3.5,8h-1V4c0-0.827,0.673-1.5,1.5-1.5h4v1H4C3.724,3.5,3.5,3.724,3.5,4V8z"/>
<path style="fill:#333333;" d="M8,21.5H4c-0.827,0-1.5-0.673-1.5-1.5v-4h1v4c0,0.275,0.224,0.5,0.5,0.5h4V21.5z"/>
<path style="fill:#333333;" d="M20,21.5h-4v-1h4c0.275,0,0.5-0.225,0.5-0.5v-4h1v4C21.5,20.827,20.827,21.5,20,21.5z"/>
<path style="fill:#333333;" d="M21.5,8h-1V4c0-0.276-0.225-0.5-0.5-0.5h-4v-1h4c0.827,0,1.5,0.673,1.5,1.5V8z"/>
<path style="fill:#333333;" d="M12,17.5c-3.033,0-5.5-2.468-5.5-5.5c0-3.033,2.467-5.5,5.5-5.5c3.032,0,5.5,2.467,5.5,5.5
	C17.5,15.032,15.032,17.5,12,17.5z M12,7.5c-2.481,0-4.5,2.019-4.5,4.5s2.019,4.5,4.5,4.5s4.5-2.019,4.5-4.5S14.481,7.5,12,7.5z"/>
<circle style="fill:#333333;" cx="12" cy="12" r="1.5"/>
</svg>






