<?xml version="1.0" encoding="iso-8859-1"?>
<svg version="1.1" id="&#x56FE;&#x5C42;_1" xmlns="http://www.w3.org/2000/svg" xmlns:xlink="http://www.w3.org/1999/xlink" x="0px"
	 y="0px" viewBox="0 0 24 24" style="enable-background:new 0 0 24 24;" xml:space="preserve">
<path style="fill:#333333;" d="M3.5,8h-1V4c0-0.827,0.673-1.5,1.5-1.5h4v1H4C3.724,3.5,3.5,3.724,3.5,4V8z"/>
<path style="fill:#333333;" d="M8,21.5H4c-0.827,0-1.5-0.673-1.5-1.5v-4h1v4c0,0.275,0.224,0.5,0.5,0.5h4V21.5z"/>
<path style="fill:#333333;" d="M20,21.5h-4v-1h4c0.275,0,0.5-0.225,0.5-0.5v-4h1v4C21.5,20.827,20.827,21.5,20,21.5z"/>
<path style="fill:#333333;" d="M21.5,8h-1V4c0-0.276-0.225-0.5-0.5-0.5h-4v-1h4c0.827,0,1.5,0.673,1.5,1.5V8z"/>
<path style="fill:#333333;" d="M12,16c-2.206,0-4-1.794-4-4c0-2.206,1.794-4,4-4c2.206,0,4,1.794,4,4C16,14.206,14.206,16,12,16z
	 M12,9c-1.654,0-3,1.346-3,3s1.346,3,3,3s3-1.346,3-3S13.654,9,12,9z"/>
<rect x="11.5" y="6.5" style="fill:#333333;" width="1" height="2"/>
<rect x="11.5" y="15.5" style="fill:#333333;" width="1" height="2"/>
<rect x="15.5" y="11.5" style="fill:#333333;" width="2" height="1"/>
<rect x="6.5" y="11.5" style="fill:#333333;" width="2" height="1"/>
<path style="fill:#333333;" d="M12,13c0.552,0,1-0.448,1-1s-0.448-1-1-1s-1,0.448-1,1S11.448,13,12,13z"/>
</svg>






