<?xml version="1.0" encoding="iso-8859-1"?>
<svg version="1.1" id="&#x56FE;&#x5C42;_1" xmlns="http://www.w3.org/2000/svg" xmlns:xlink="http://www.w3.org/1999/xlink" x="0px"
	 y="0px" viewBox="0 0 24 24" style="enable-background:new 0 0 24 24;" xml:space="preserve">
<path style="fill:#333333;" d="M20.5,21.5h-17C2.673,21.5,2,20.827,2,20V4c0-0.827,0.673-1.5,1.5-1.5h6.234l2.5,3H20.5
	C21.327,5.5,22,6.173,22,7v13C22,20.827,21.327,21.5,20.5,21.5z M3.5,3.5C3.224,3.5,3,3.724,3,4v16c0,0.275,0.224,0.5,0.5,0.5h17
	c0.275,0,0.5-0.225,0.5-0.5V7c0-0.276-0.225-0.5-0.5-0.5h-8.734l-2.5-3H3.5z"/>
<path style="fill:#333333;" d="M12,17.285l-4.144-5.014L9.658,10h4.683l1.803,2.271L12,17.285z M9.144,12.258L12,15.715l2.856-3.457
	L13.858,11h-3.717L9.144,12.258z"/>
</svg>






