<?xml version="1.0" encoding="iso-8859-1"?>
<svg version="1.1" id="&#x56FE;&#x5C42;_1" xmlns="http://www.w3.org/2000/svg" xmlns:xlink="http://www.w3.org/1999/xlink" x="0px"
	 y="0px" viewBox="0 0 24 24" style="enable-background:new 0 0 24 24;" xml:space="preserve">
<path style="fill:#333333;" d="M11,21.5H3.5C2.673,21.5,2,20.827,2,20V4c0-0.827,0.673-1.5,1.5-1.5h6.234l2.5,3H20.5
	C21.327,5.5,22,6.173,22,7v4.5h-1V7c0-0.276-0.225-0.5-0.5-0.5h-8.734l-2.5-3H3.5C3.224,3.5,3,3.724,3,4v16
	c0,0.275,0.224,0.5,0.5,0.5H11V21.5z"/>
<path style="fill:#333333;" d="M17,21.589l-0.264-0.164C16.604,21.343,13.5,19.366,13.5,15.4c0-0.292,0-0.835,3.352-1.878L17,13.477
	l0.148,0.046C20.5,14.565,20.5,15.108,20.5,15.4c0,3.966-3.104,5.942-3.236,6.024L17,21.589z M14.502,15.546
	c0.061,2.714,1.814,4.318,2.498,4.842c0.684-0.523,2.438-2.128,2.498-4.842c-0.328-0.243-1.477-0.695-2.498-1.021
	C15.979,14.851,14.829,15.303,14.502,15.546z"/>
</svg>






