<?xml version="1.0" encoding="iso-8859-1"?>
<svg version="1.1" id="&#x56FE;&#x5C42;_1" xmlns="http://www.w3.org/2000/svg" xmlns:xlink="http://www.w3.org/1999/xlink" x="0px"
	 y="0px" viewBox="0 0 24 24" style="enable-background:new 0 0 24 24;" xml:space="preserve">
<path style="fill:#333333;" d="M2.485,20.621L1.5,20.5v-16C1.5,3.673,2.173,3,3,3h6.734l2.5,3h6.516c0.827,0,1.5,0.673,1.5,1.5V11
	H4.891L2.485,20.621z M3,4C2.724,4,2.5,4.224,2.5,4.5v11.938L4.109,10H19.25V7.5c0-0.276-0.225-0.5-0.5-0.5h-6.984l-2.5-3H3z"/>
<path style="fill:#333333;" d="M20.41,21H1.365l2.647-11H22.61L20.41,21z M2.635,20H19.59l1.8-9H4.8L2.635,20z"/>
</svg>






