<?xml version="1.0" encoding="iso-8859-1"?>
<svg version="1.1" id="&#x56FE;&#x5C42;_1" xmlns="http://www.w3.org/2000/svg" xmlns:xlink="http://www.w3.org/1999/xlink" x="0px"
	 y="0px" viewBox="0 0 24 24" style="enable-background:new 0 0 24 24;" xml:space="preserve">
<path style="fill:#333333;" d="M19.5,22.5h-15C3.673,22.5,3,21.827,3,21V3c0-0.827,0.673-1.5,1.5-1.5h15C20.327,1.5,21,2.173,21,3
	v18C21,21.827,20.327,22.5,19.5,22.5z M4.5,2.5C4.224,2.5,4,2.724,4,3v18c0,0.275,0.224,0.5,0.5,0.5h15c0.275,0,0.5-0.225,0.5-0.5V3
	c0-0.276-0.225-0.5-0.5-0.5H4.5z"/>
<rect x="8" y="14" style="fill:#333333;" width="2" height="1"/>
<rect x="8" y="17" style="fill:#333333;" width="5" height="1"/>
<path style="fill:#333333;" d="M12,9.5c-6.419,0-8.46-6.792-8.48-6.861L4.48,2.36C4.553,2.611,6.339,8.5,12,8.5
	c5.66,0,7.446-5.889,7.52-6.14l0.961,0.279C20.46,2.708,18.419,9.5,12,9.5z"/>
<path style="fill:#333333;" d="M12,11.5c-1.378,0-2.5-1.122-2.5-2.5s1.122-2.5,2.5-2.5c1.379,0,2.5,1.122,2.5,2.5
	S13.379,11.5,12,11.5z M12,7.5c-0.827,0-1.5,0.673-1.5,1.5s0.673,1.5,1.5,1.5s1.5-0.673,1.5-1.5S12.827,7.5,12,7.5z"/>
<path style="fill:#333333;" d="M4,6H3V3c0-0.827,0.673-1.5,1.5-1.5h3v1h-3C4.224,2.5,4,2.724,4,3V6z"/>
<path style="fill:#333333;" d="M21,6h-1V3c0-0.276-0.225-0.5-0.5-0.5h-3v-1h3C20.327,1.5,21,2.173,21,3V6z"/>
</svg>






