<?xml version="1.0" encoding="iso-8859-1"?>
<svg version="1.1" id="&#x56FE;&#x5C42;_1" xmlns="http://www.w3.org/2000/svg" xmlns:xlink="http://www.w3.org/1999/xlink" x="0px"
	 y="0px" viewBox="0 0 24 24" style="enable-background:new 0 0 24 24;" xml:space="preserve">
<path style="fill:#333333;" d="M8,22H3c-0.551,0-1-0.448-1-1V3c0-0.551,0.449-1,1-1h5c0.551,0,1,0.449,1,1v18
	C9,21.552,8.551,22,8,22z M3,3v18h5V3H3z"/>
<circle style="fill:#333333;" cx="5.5" cy="17.5" r="1"/>
<rect x="5" y="5.5" style="fill:#333333;" width="1" height="7"/>
<path style="fill:#333333;" d="M15.861,20.895c-0.445,0-0.854-0.301-0.97-0.75l-3.75-14.532c-0.067-0.26-0.028-0.53,0.109-0.761
	c0.137-0.23,0.356-0.394,0.617-0.458l5.03-1.258c0.525-0.135,1.075,0.19,1.211,0.721l3.75,14.531
	c0.066,0.261,0.028,0.531-0.109,0.762c-0.137,0.23-0.355,0.394-0.615,0.459l-5.031,1.258C16.022,20.885,15.941,20.895,15.861,20.895
	z M12.11,5.363l3.75,14.532l5.03-1.258L17.14,4.105L12.11,5.363z M11.989,4.878l0.121,0.485c0,0,0,0,0.001,0L11.989,4.878z"/>
<circle style="fill:#333333;" cx="17.5" cy="16" r="1"/>
<rect x="15.625" y="7.923" transform="matrix(0.9701 -0.2425 0.2425 0.9701 -2.0652 4.2244)" style="fill:#333333;" width="1" height="5.154"/>
</svg>






