<?xml version="1.0" encoding="iso-8859-1"?>
<svg version="1.1" id="&#x56FE;&#x5C42;_1" xmlns="http://www.w3.org/2000/svg" xmlns:xlink="http://www.w3.org/1999/xlink" x="0px"
	 y="0px" viewBox="0 0 24 24" style="enable-background:new 0 0 24 24;" xml:space="preserve">
<path style="fill:#333333;" d="M11,21.5H3.5C2.673,21.5,2,20.827,2,20V4c0-0.827,0.673-1.5,1.5-1.5h6.234l2.5,3H20.5
	C21.327,5.5,22,6.173,22,7v4.5h-1V7c0-0.276-0.225-0.5-0.5-0.5h-8.734l-2.5-3H3.5C3.224,3.5,3,3.724,3,4v16
	c0,0.275,0.224,0.5,0.5,0.5H11V21.5z"/>
<path style="fill:#333333;" d="M17.5,20c-1.379,0-2.5-1.121-2.5-2.5s1.121-2.5,2.5-2.5s2.5,1.121,2.5,2.5S18.879,20,17.5,20z
	 M17.5,16c-0.827,0-1.5,0.673-1.5,1.5s0.673,1.5,1.5,1.5s1.5-0.673,1.5-1.5S18.327,16,17.5,16z"/>
<rect x="17" y="14" style="fill:#333333;" width="1" height="1.5"/>
<rect x="17" y="19.5" style="fill:#333333;" width="1" height="1.5"/>
<rect x="18.634" y="15.03" transform="matrix(0.7071 -0.7071 0.7071 0.7071 -5.3042 18.2551)" style="fill:#333333;" width="1.5" height="1"/>
<rect x="14.634" y="19.03" transform="matrix(0.7071 -0.7071 0.7071 0.7071 -9.3042 16.5983)" style="fill:#333333;" width="1.5" height="1"/>
<rect x="15.03" y="14.78" transform="matrix(0.7071 -0.7071 0.7071 0.7071 -6.4328 15.5303)" style="fill:#333333;" width="1" height="1.5"/>
<rect x="19.03" y="18.78" transform="matrix(0.7071 -0.7071 0.7071 0.7071 -8.0897 19.5303)" style="fill:#333333;" width="1" height="1.5"/>
<rect x="14" y="17" style="fill:#333333;" width="1.5" height="1"/>
<rect x="19.5" y="17" style="fill:#333333;" width="1.5" height="1"/>
</svg>






