<?xml version="1.0" encoding="iso-8859-1"?>
<svg version="1.1" id="&#x56FE;&#x5C42;_1" xmlns="http://www.w3.org/2000/svg" xmlns:xlink="http://www.w3.org/1999/xlink" x="0px"
	 y="0px" viewBox="0 0 24 24" style="enable-background:new 0 0 24 24;" xml:space="preserve">
<path style="fill:#333333;" d="M11,21.5H3.5C2.673,21.5,2,20.827,2,20V4c0-0.827,0.673-1.5,1.5-1.5h6.234l2.5,3H20.5
	C21.327,5.5,22,6.173,22,7v4.5h-1V7c0-0.276-0.225-0.5-0.5-0.5h-8.734l-2.5-3H3.5C3.224,3.5,3,3.724,3,4v16
	c0,0.275,0.224,0.5,0.5,0.5H11V21.5z"/>
<rect x="13.5" y="15" style="fill:#333333;" width="7" height="1"/>
<rect x="13.5" y="18" style="fill:#333333;" width="7" height="1"/>
<rect x="18.75" y="12.482" transform="matrix(0.7071 -0.7071 0.7071 0.7071 -4.4381 17.7855)" style="fill:#333333;" width="1" height="3.536"/>
<rect x="14.25" y="17.982" transform="matrix(0.7071 -0.7071 0.7071 0.7071 -9.6452 16.2145)" style="fill:#333333;" width="1" height="3.536"/>
</svg>






