<?xml version="1.0" encoding="iso-8859-1"?>
<svg version="1.1" id="&#x56FE;&#x5C42;_1" xmlns="http://www.w3.org/2000/svg" xmlns:xlink="http://www.w3.org/1999/xlink" x="0px"
	 y="0px" viewBox="0 0 24 24" style="enable-background:new 0 0 24 24;" xml:space="preserve">
<path style="fill:#333333;" d="M20.5,21.5h-17C2.673,21.5,2,20.827,2,20V4c0-0.827,0.673-1.5,1.5-1.5h6.234l2.5,3H20.5
	C21.327,5.5,22,6.173,22,7v13C22,20.827,21.327,21.5,20.5,21.5z M3.5,3.5C3.224,3.5,3,3.724,3,4v16c0,0.275,0.224,0.5,0.5,0.5h17
	c0.275,0,0.5-0.225,0.5-0.5V7c0-0.276-0.225-0.5-0.5-0.5h-8.734l-2.5-3H3.5z"/>
<path style="fill:#333333;" d="M14.105,17.672L12,16.482l-2.105,1.189l-0.736-0.535l0.48-2.369l-1.781-1.636l0.281-0.865
	l2.402-0.275l1.004-2.199h0.91l1.004,2.199l2.402,0.275l0.281,0.865l-1.782,1.636l0.481,2.369L14.105,17.672z M9.341,13.136
	l1.391,1.276l-0.375,1.851L12,15.334l1.644,0.929l-0.375-1.851l1.392-1.276l-1.877-0.215L12,11.204l-0.784,1.717L9.341,13.136z"/>
</svg>






