<?xml version="1.0" encoding="iso-8859-1"?>
<svg version="1.1" id="&#x56FE;&#x5C42;_1" xmlns="http://www.w3.org/2000/svg" xmlns:xlink="http://www.w3.org/1999/xlink" x="0px"
	 y="0px" viewBox="0 0 24 24" style="enable-background:new 0 0 24 24;" xml:space="preserve">
<path style="fill:#333333;" d="M20.5,21.5h-17C2.673,21.5,2,20.827,2,20V4c0-0.827,0.673-1.5,1.5-1.5h6.234l2.5,3H20.5
	C21.327,5.5,22,6.173,22,7v13C22,20.827,21.327,21.5,20.5,21.5z M3.5,3.5C3.224,3.5,3,3.724,3,4v16c0,0.275,0.224,0.5,0.5,0.5h17
	c0.275,0,0.5-0.225,0.5-0.5V7c0-0.276-0.225-0.5-0.5-0.5h-8.734l-2.5-3H3.5z"/>
<path style="fill:#333333;" d="M12.5,17.5c-2.206,0-4-1.794-4-4c0-2.206,1.794-4,4-4c2.206,0,4,1.794,4,4
	C16.5,15.706,14.706,17.5,12.5,17.5z M12.5,10.5c-1.654,0-3,1.346-3,3s1.346,3,3,3s3-1.346,3-3S14.154,10.5,12.5,10.5z"/>
<rect x="11.086" y="13" transform="matrix(0.7071 -0.7071 0.7071 0.7071 -5.8848 12.7929)" style="fill:#333333;" width="2.828" height="1"/>
</svg>






