<?xml version="1.0" encoding="iso-8859-1"?>
<svg version="1.1" id="&#x56FE;&#x5C42;_1" xmlns="http://www.w3.org/2000/svg" xmlns:xlink="http://www.w3.org/1999/xlink" x="0px"
	 y="0px" viewBox="0 0 24 24" style="enable-background:new 0 0 24 24;" xml:space="preserve">
<path style="fill:#333333;" d="M20.5,21.5h-17C2.673,21.5,2,20.827,2,20V4c0-0.827,0.673-1.5,1.5-1.5h6.234l2.5,3H20.5
	C21.327,5.5,22,6.173,22,7v13C22,20.827,21.327,21.5,20.5,21.5z M3.5,3.5C3.224,3.5,3,3.724,3,4v16c0,0.275,0.224,0.5,0.5,0.5h17
	c0.275,0,0.5-0.225,0.5-0.5V7c0-0.276-0.225-0.5-0.5-0.5h-8.734l-2.5-3H3.5z"/>
<path style="fill:#333333;" d="M11,16.5c-1.93,0-3.5-1.57-3.5-3.5S9.07,9.5,11,9.5s3.5,1.57,3.5,3.5S12.93,16.5,11,16.5z M11,10.5
	c-1.378,0-2.5,1.122-2.5,2.5c0,1.379,1.122,2.5,2.5,2.5c1.379,0,2.5-1.121,2.5-2.5C13.5,11.622,12.379,10.5,11,10.5z"/>
<rect x="14.25" y="14.399" transform="matrix(0.6247 -0.7809 0.7809 0.6247 -6.9582 17.5227)" style="fill:#333333;" width="1" height="3.202"/>
</svg>






