<?xml version="1.0" encoding="iso-8859-1"?>
<svg version="1.1" id="&#x56FE;&#x5C42;_1" xmlns="http://www.w3.org/2000/svg" xmlns:xlink="http://www.w3.org/1999/xlink" x="0px"
	 y="0px" viewBox="0 0 24 24" style="enable-background:new 0 0 24 24;" xml:space="preserve">
<path style="fill:#333333;" d="M20.5,22h-17C2.673,22,2,21.327,2,20.5v-16C2,3.673,2.673,3,3.5,3h6.234l2.5,3H20.5
	C21.327,6,22,6.673,22,7.5v13C22,21.327,21.327,22,20.5,22z M3.5,4C3.224,4,3,4.224,3,4.5v16C3,20.775,3.224,21,3.5,21h17
	c0.275,0,0.5-0.225,0.5-0.5v-13C21,7.224,20.775,7,20.5,7h-8.734l-2.5-3H3.5z"/>
<rect x="8.975" y="13.5" style="fill:#333333;" width="6" height="1"/>
</svg>






