<?xml version="1.0" encoding="iso-8859-1"?>
<svg version="1.1" id="&#x56FE;&#x5C42;_1" xmlns="http://www.w3.org/2000/svg" xmlns:xlink="http://www.w3.org/1999/xlink" x="0px"
	 y="0px" viewBox="0 0 24 24" style="enable-background:new 0 0 24 24;" xml:space="preserve">
<path style="fill:#333333;" d="M11,21.5H3.5C2.673,21.5,2,20.827,2,20V4c0-0.827,0.673-1.5,1.5-1.5h6.234l2.5,3H20.5
	C21.327,5.5,22,6.173,22,7v4.5h-1V7c0-0.276-0.225-0.5-0.5-0.5h-8.734l-2.5-3H3.5C3.224,3.5,3,3.724,3,4v16
	c0,0.275,0.224,0.5,0.5,0.5H11V21.5z"/>
<path style="fill:#333333;" d="M19.605,21.172L17.5,19.982l-2.105,1.189l-0.736-0.535l0.481-2.369l-1.782-1.636l0.281-0.865
	l2.402-0.275l1.004-2.199h0.91l1.004,2.199l2.402,0.275l0.281,0.865l-1.782,1.636l0.481,2.369L19.605,21.172z M17.5,18.834
	l1.644,0.929l-0.375-1.851l1.392-1.276l-1.877-0.215L17.5,14.704l-0.783,1.717l-1.877,0.215l1.392,1.276l-0.375,1.851L17.5,18.834z"
	/>
</svg>






