<?xml version="1.0" encoding="iso-8859-1"?>
<svg version="1.1" id="&#x56FE;&#x5C42;_1" xmlns="http://www.w3.org/2000/svg" xmlns:xlink="http://www.w3.org/1999/xlink" x="0px"
	 y="0px" viewBox="0 0 24 24" style="enable-background:new 0 0 24 24;" xml:space="preserve">
<path style="fill:#333333;" d="M20.5,21.5h-17C2.673,21.5,2,20.827,2,20V4c0-0.827,0.673-1.5,1.5-1.5h6.234l2.5,3H20.5
	C21.327,5.5,22,6.173,22,7v13C22,20.827,21.327,21.5,20.5,21.5z M3.5,3.5C3.224,3.5,3,3.724,3,4v16c0,0.275,0.224,0.5,0.5,0.5h17
	c0.275,0,0.5-0.225,0.5-0.5V7c0-0.276-0.225-0.5-0.5-0.5h-8.734l-2.5-3H3.5z"/>
<path style="fill:#333333;" d="M12,17.589l-0.264-0.164C11.604,17.343,8.5,15.366,8.5,11.4c0-0.292,0-0.834,3.352-1.877L12,9.477
	l0.148,0.046C15.5,10.565,15.5,11.108,15.5,11.4c0,3.966-3.104,5.943-3.236,6.025L12,17.589z M9.501,11.545
	c0.061,2.714,1.815,4.319,2.499,4.842c0.684-0.523,2.438-2.128,2.498-4.842c-0.328-0.243-1.477-0.695-2.498-1.021
	C10.979,10.851,9.83,11.303,9.501,11.545z"/>
</svg>






