<?xml version="1.0" encoding="iso-8859-1"?>
<svg version="1.1" id="&#x56FE;&#x5C42;_1" xmlns="http://www.w3.org/2000/svg" xmlns:xlink="http://www.w3.org/1999/xlink" x="0px"
	 y="0px" viewBox="0 0 24 24" style="enable-background:new 0 0 24 24;" xml:space="preserve">
<path style="fill:#333333;" d="M5.191,22.5c-1.021,0-1.793-0.259-2.275-0.778c-1.235-1.332-0.924-2.359-0.733-2.738
	c0.319-0.636,1.001-1.013,1.716-0.935c1.868,0.205,2.476-0.154,2.481-0.158C10.325,16.123,9.85,7.847,9.012,4.109l0.976-0.219
	c0.764,3.408,1.69,12.724-3.13,14.876c-0.132,0.093-0.956,0.505-3.067,0.276c-0.286-0.036-0.583,0.129-0.714,0.39
	c-0.205,0.408,0.003,0.995,0.573,1.609c0.438,0.472,1.447,0.583,2.917,0.32l3.94-0.008c0.777,0,2.252-1.176,3.654-3.756
	c0.66-0.934,2.399-2.655,4.483-2.86c0.607-0.04,1.415-0.318,1.905-0.983c0.472-0.641,0.574-1.534,0.306-2.656
	c-0.607-1.407-1.652-2.885-2.663-4.315c-1.154-1.633-2.244-3.175-2.672-4.644L16.48,1.86c0.38,1.308,1.424,2.784,2.527,4.346
	c1.041,1.472,2.117,2.995,2.793,4.579c0.367,1.501,0.208,2.673-0.447,3.562c-0.693,0.941-1.812,1.334-2.628,1.388
	c-1.585,0.156-3.095,1.516-3.719,2.392c-1.402,2.588-3.139,4.228-4.501,4.228H6.654C6.122,22.452,5.633,22.5,5.191,22.5z"/>
</svg>






