<?xml version="1.0" encoding="iso-8859-1"?>
<svg version="1.1" id="&#x56FE;&#x5C42;_1" xmlns="http://www.w3.org/2000/svg" xmlns:xlink="http://www.w3.org/1999/xlink" x="0px"
	 y="0px" viewBox="0 0 24 24" style="enable-background:new 0 0 24 24;" xml:space="preserve">
<path style="fill:#333333;" d="M12,22.5C6.21,22.5,1.5,17.79,1.5,12C1.5,6.21,6.21,1.5,12,1.5c5.79,0,10.5,4.71,10.5,10.5
	C22.5,17.79,17.79,22.5,12,22.5z M12,2.5c-5.238,0-9.5,4.262-9.5,9.5s4.262,9.5,9.5,9.5s9.5-4.262,9.5-9.5S17.238,2.5,12,2.5z"/>
<polygon style="fill:#333333;" points="15.826,11.232 11.534,7.852 11.534,5.174 14.753,2.845 15.339,3.655 12.534,5.685 
	12.534,7.366 15.988,10.088 17.665,9.408 18.88,6.127 19.817,6.475 18.45,10.169 "/>
<polygon style="fill:#333333;" points="8.244,11.232 5.619,10.169 4.252,6.475 5.189,6.128 6.403,9.408 8.081,10.088 11.534,7.366 
	11.534,5.685 8.73,3.655 9.316,2.845 12.534,5.174 12.534,7.852 "/>
<polygon style="fill:#333333;" points="8.415,17.698 4.291,17.698 4.291,16.698 7.911,16.698 8.908,15.352 7.745,11.03 
	6.019,10.331 3.199,11.555 2.801,10.638 6.005,9.247 8.581,10.29 9.999,15.559 "/>
<polygon style="fill:#333333;" points="16.407,20.25 15.407,20.25 15.407,17.363 14.364,15.955 9.705,15.955 8.663,17.363 
	8.663,20.25 7.663,20.25 7.663,17.033 9.201,14.955 14.868,14.955 16.407,17.033 "/>
<polygon style="fill:#333333;" points="19.779,17.698 15.655,17.698 14.07,15.559 15.489,10.29 18.081,9.24 21.726,11.086 
	21.274,11.979 18.034,10.337 16.325,11.03 15.162,15.352 16.159,16.698 19.779,16.698 "/>
</svg>






