<?xml version="1.0" encoding="iso-8859-1"?>
<svg version="1.1" id="&#x56FE;&#x5C42;_1" xmlns="http://www.w3.org/2000/svg" xmlns:xlink="http://www.w3.org/1999/xlink" x="0px"
	 y="0px" viewBox="0 0 24 24" style="enable-background:new 0 0 24 24;" xml:space="preserve">
<path style="fill:#333333;" d="M18.5,6.5C17.121,6.5,16,5.378,16,4s1.121-2.5,2.5-2.5S21,2.622,21,4S19.879,6.5,18.5,6.5z M18.5,2.5
	C17.673,2.5,17,3.173,17,4s0.673,1.5,1.5,1.5S20,4.827,20,4S19.327,2.5,18.5,2.5z"/>
<path style="fill:#333333;" d="M5.5,6.5C4.122,6.5,3,5.378,3,4s1.122-2.5,2.5-2.5S8,2.622,8,4S6.878,6.5,5.5,6.5z M5.5,2.5
	C4.673,2.5,4,3.173,4,4s0.673,1.5,1.5,1.5S7,4.827,7,4S6.327,2.5,5.5,2.5z"/>
<path style="fill:#333333;" d="M12,22.5c-1.378,0-2.5-1.121-2.5-2.5s1.122-2.5,2.5-2.5c1.379,0,2.5,1.121,2.5,2.5
	S13.379,22.5,12,22.5z M12,18.5c-0.827,0-1.5,0.673-1.5,1.5s0.673,1.5,1.5,1.5s1.5-0.673,1.5-1.5S12.827,18.5,12,18.5z"/>
<path style="fill:#333333;" d="M12.5,18h-1v-2c0-1.504-1.484-2.646-3.055-3.854C6.751,10.843,5,9.496,5,7.5V6h1v1.5
	c0,1.504,1.484,2.645,3.055,3.854c1.139,0.876,2.304,1.772,2.945,2.873c0.641-1.101,1.806-1.997,2.945-2.873
	C16.517,10.145,18,9.004,18,7.5V6h1v1.5c0,1.996-1.751,3.343-3.445,4.646C13.983,13.354,12.5,14.496,12.5,16V18z"/>
</svg>






