<?xml version="1.0" encoding="iso-8859-1"?>
<svg version="1.1" id="&#x56FE;&#x5C42;_1" xmlns="http://www.w3.org/2000/svg" xmlns:xlink="http://www.w3.org/1999/xlink" x="0px"
	 y="0px" viewBox="0 0 24 24" style="enable-background:new 0 0 24 24;" xml:space="preserve">
<rect x="6.5" y="2" style="fill:#333333;" width="1" height="20"/>
<path style="fill:#333333;" d="M7,10.5c-1.21,0-3.5-0.627-3.5-3v-5h1v5c0,1.977,2.398,2,2.5,2c0.101,0,2.5-0.035,2.5-2v-5h1v5
	C10.5,9.873,8.21,10.5,7,10.5z"/>
<rect x="16.5" y="10" style="fill:#333333;" width="1" height="12"/>
<path style="fill:#333333;" d="M17,10.5c-1.93,0-3.5-2.019-3.5-4.5s1.57-4.5,3.5-4.5s3.5,2.019,3.5,4.5S18.93,10.5,17,10.5z M17,2.5
	c-1.379,0-2.5,1.57-2.5,3.5s1.121,3.5,2.5,3.5s2.5-1.57,2.5-3.5S18.379,2.5,17,2.5z"/>
</svg>






