<?xml version="1.0" encoding="iso-8859-1"?>
<svg version="1.1" id="&#x56FE;&#x5C42;_1" xmlns="http://www.w3.org/2000/svg" xmlns:xlink="http://www.w3.org/1999/xlink" x="0px"
	 y="0px" viewBox="0 0 24 24" style="enable-background:new 0 0 24 24;" xml:space="preserve">
<path style="fill:#333333;" d="M13.5,22.5h-4C6.731,22.5,6,20.211,6,19V9.5C6,8.673,6.673,8,7.5,8h8C16.327,8,17,8.673,17,9.5V19
	C17,20.211,16.269,22.5,13.5,22.5z M7.5,9C7.224,9,7,9.224,7,9.5V19c0.002,0.254,0.088,2.5,2.5,2.5h4c2.412,0,2.498-2.246,2.5-2.502
	V9.5C16,9.224,15.775,9,15.5,9H7.5z"/>
<path style="fill:#333333;" d="M14.5,9h-6V5.5h6V9z M9.5,8h4V6.5h-4V8z"/>
<path style="fill:#333333;" d="M14.5,6.25h-1V5c0-1.105,0.819-1.931,1.704-2.5H12c-1.202,0-2.5,0.765-2.5,2V6h-1V4.5
	c0-1.853,1.817-3,3.5-3h5.5l0.138,0.98C16.765,2.731,14.5,3.673,14.5,5V6.25z"/>
</svg>






