<?xml version="1.0" encoding="iso-8859-1"?>
<svg version="1.1" id="&#x56FE;&#x5C42;_1" xmlns="http://www.w3.org/2000/svg" xmlns:xlink="http://www.w3.org/1999/xlink" x="0px"
	 y="0px" viewBox="0 0 24 24" style="enable-background:new 0 0 24 24;" xml:space="preserve">
<path style="fill:#333333;" d="M14.354,10.354l-0.707-0.707l1.207-1.207c-0.501-0.805-1.464-2.788-0.278-4.703
	c1.951-3.151,7.284-2.268,7.51-2.229L22,2l0.493-0.085c0.039,0.226,0.92,5.56-2.23,7.51c-1.912,1.183-3.896,0.222-4.702-0.279
	L14.354,10.354z M16.289,8.417c0.723,0.406,2.133,0.974,3.448,0.157c1.852-1.146,1.962-3.959,1.873-5.479L16.289,8.417z M20.19,2.37
	c-1.569,0-3.783,0.308-4.766,1.894c-0.807,1.304-0.243,2.722,0.16,3.445l5.317-5.318C20.688,2.378,20.447,2.37,20.19,2.37z"/>
<path style="fill:#333333;" d="M20.188,22.635c-1.792,0-4.379-0.379-5.612-2.372c-1.186-1.914-0.223-3.897,0.278-4.702l-1.207-1.207
	l0.707-0.707l1.207,1.207c0.805-0.501,2.79-1.464,4.702-0.278c3.15,1.95,2.27,7.284,2.23,7.51l-0.31,0.099l-0.099,0.31
	C22.002,22.507,21.229,22.635,20.188,22.635z M15.582,16.289c-0.406,0.722-0.971,2.133-0.157,3.448
	c1.146,1.85,3.959,1.961,5.479,1.873L15.582,16.289z M16.292,15.585l5.317,5.317c0.087-1.52-0.025-4.334-1.872-5.478
	C18.432,14.616,17.013,15.181,16.292,15.585z"/>
<path style="fill:#333333;" d="M9.778,10.354L8.571,9.146C7.767,9.647,5.783,10.61,3.869,9.425c-3.15-1.95-2.269-7.284-2.229-7.51
	l0.31-0.098l0.098-0.31c0.225-0.04,5.559-0.921,7.51,2.229c1.185,1.915,0.222,3.897-0.279,4.703l1.207,1.207L9.778,10.354z
	 M2.522,3.098c-0.087,1.52,0.026,4.334,1.873,5.477C5.699,9.382,7.118,8.817,7.84,8.416L2.522,3.098z M3.228,2.389L8.549,7.71
	C8.956,6.99,9.521,5.578,8.707,4.263C7.561,2.411,4.746,2.3,3.228,2.389z"/>
<path style="fill:#333333;" d="M3.944,22.635c-1.042,0-1.814-0.128-1.897-0.142l-0.098-0.31l-0.31-0.099
	c-0.039-0.226-0.921-5.56,2.229-7.51c1.915-1.188,3.897-0.223,4.703,0.278l1.207-1.207l0.707,0.707l-1.207,1.207
	c0.5,0.805,1.464,2.788,0.279,4.702C8.324,22.256,5.736,22.635,3.944,22.635z M3.229,21.609c1.517,0.088,4.333-0.025,5.477-1.872
	c0.807-1.305,0.244-2.723-0.159-3.445L3.229,21.609z M5.864,15.01c-0.476,0-0.979,0.112-1.469,0.415
	c-1.852,1.146-1.962,3.96-1.874,5.479l5.321-5.321C7.39,15.327,6.666,15.01,5.864,15.01z"/>
</svg>






