<?xml version="1.0" encoding="iso-8859-1"?>
<svg version="1.1" id="&#x56FE;&#x5C42;_1" xmlns="http://www.w3.org/2000/svg" xmlns:xlink="http://www.w3.org/1999/xlink" x="0px"
	 y="0px" viewBox="0 0 24 24" style="enable-background:new 0 0 24 24;" xml:space="preserve">
<polygon style="fill:#333333;" points="10,20.5 3.5,20.5 3.5,14 4.5,14 4.5,19.5 10,19.5 "/>
<polygon style="fill:#333333;" points="20.5,20.5 14,20.5 14,19.5 19.5,19.5 19.5,14 20.5,14 "/>
<polygon style="fill:#333333;" points="20.5,10 19.5,10 19.5,4.5 14,4.5 14,3.5 20.5,3.5 "/>
<polygon style="fill:#333333;" points="4.5,10 3.5,10 3.5,3.5 10,3.5 10,4.5 4.5,4.5 "/>
<path style="fill:#333333;" d="M22.5,14.5h-5v-5h5V14.5z M18.5,13.5h3v-3h-3V13.5z"/>
<path style="fill:#333333;" d="M6.5,14.5h-5v-5h5V14.5z M2.5,13.5h3v-3h-3V13.5z"/>
<path style="fill:#333333;" d="M14.5,22.5h-5v-5h5V22.5z M10.5,21.5h3v-3h-3V21.5z"/>
<path style="fill:#333333;" d="M14.5,6.5h-5v-5h5V6.5z M10.5,5.5h3v-3h-3V5.5z"/>
<rect x="11.5" y="9" style="fill:#333333;" width="1" height="6"/>
<rect x="9" y="11.5" style="fill:#333333;" width="6" height="1"/>
<rect x="16.5" y="2.757" transform="matrix(0.7071 -0.7071 0.7071 0.7071 0.0294 14.0711)" style="fill:#333333;" width="1" height="8.485"/>
<rect x="2.757" y="6.5" transform="matrix(0.7071 -0.7071 0.7071 0.7071 -2.8995 7)" style="fill:#333333;" width="8.485" height="1"/>
<rect x="6.5" y="12.757" transform="matrix(0.7071 -0.7071 0.7071 0.7071 -9.9706 9.9289)" style="fill:#333333;" width="1" height="8.485"/>
<rect x="13.18" y="16.5" transform="matrix(0.6762 -0.7367 0.7367 0.6762 -6.9386 18.2141)" style="fill:#333333;" width="8.139" height="0.999"/>
</svg>






