<?xml version="1.0" encoding="iso-8859-1"?>
<svg version="1.1" id="&#x56FE;&#x5C42;_1" xmlns="http://www.w3.org/2000/svg" xmlns:xlink="http://www.w3.org/1999/xlink" x="0px"
	 y="0px" viewBox="0 0 24 24" style="enable-background:new 0 0 24 24;" xml:space="preserve">
<path style="fill:#333333;" d="M5,8.5C3.07,8.5,1.5,6.93,1.5,5S3.07,1.5,5,1.5S8.5,3.07,8.5,5S6.93,8.5,5,8.5z M5,2.5
	C3.622,2.5,2.5,3.622,2.5,5S3.622,7.5,5,7.5S7.5,6.378,7.5,5S6.378,2.5,5,2.5z"/>
<path style="fill:#333333;" d="M2.69,10.1L1.709,9.9c0.197-0.967,0.529-1.902,0.989-2.777l0.886,0.465
	C3.168,8.38,2.867,9.225,2.69,10.1z"/>
<path style="fill:#333333;" d="M7.588,3.584L7.123,2.699c0.875-0.46,1.81-0.792,2.777-0.989L10.1,2.69
	C9.225,2.867,8.38,3.168,7.588,3.584z"/>
<path style="fill:#333333;" d="M19,8.5c-1.93,0-3.5-1.57-3.5-3.5s1.57-3.5,3.5-3.5s3.5,1.57,3.5,3.5S20.93,8.5,19,8.5z M19,2.5
	c-1.379,0-2.5,1.122-2.5,2.5s1.121,2.5,2.5,2.5s2.5-1.122,2.5-2.5S20.379,2.5,19,2.5z"/>
<path style="fill:#333333;" d="M16.412,3.584C15.621,3.168,14.775,2.867,13.9,2.69l0.199-0.98c0.968,0.197,1.902,0.53,2.777,0.99
	L16.412,3.584z"/>
<path style="fill:#333333;" d="M21.31,10.099c-0.177-0.873-0.478-1.717-0.894-2.511l0.885-0.465
	c0.461,0.878,0.794,1.812,0.989,2.778L21.31,10.099z"/>
<path style="fill:#333333;" d="M19,22.5c-1.93,0-3.5-1.57-3.5-3.5s1.57-3.5,3.5-3.5s3.5,1.57,3.5,3.5S20.93,22.5,19,22.5z M19,16.5
	c-1.379,0-2.5,1.121-2.5,2.5s1.121,2.5,2.5,2.5s2.5-1.121,2.5-2.5S20.379,16.5,19,16.5z"/>
<path style="fill:#333333;" d="M21.301,16.877l-0.885-0.465c0.416-0.793,0.717-1.638,0.894-2.512l0.98,0.199
	C22.094,15.065,21.762,16,21.301,16.877z"/>
<path style="fill:#333333;" d="M14.1,22.29L13.9,21.31c0.874-0.177,1.719-0.478,2.512-0.894l0.465,0.885
	C16,21.762,15.065,22.094,14.1,22.29z"/>
<path style="fill:#333333;" d="M5,22.5c-1.93,0-3.5-1.57-3.5-3.5s1.57-3.5,3.5-3.5s3.5,1.57,3.5,3.5S6.93,22.5,5,22.5z M5,16.5
	c-1.378,0-2.5,1.121-2.5,2.5s1.122,2.5,2.5,2.5s2.5-1.121,2.5-2.5S6.378,16.5,5,16.5z"/>
<path style="fill:#333333;" d="M9.901,22.29c-0.965-0.195-1.9-0.528-2.778-0.989l0.465-0.885c0.794,0.416,1.639,0.717,2.511,0.894
	L9.901,22.29z"/>
<path style="fill:#333333;" d="M2.699,16.877c-0.46-0.875-0.793-1.81-0.99-2.777L2.69,13.9c0.177,0.875,0.479,1.721,0.894,2.512
	L2.699,16.877z"/>
<polygon style="fill:#333333;" points="12.5,15 11.5,15 11.5,12.5 9,12.5 9,11.5 11.5,11.5 11.5,9 12.5,9 12.5,11.5 15,11.5 
	15,12.5 12.5,12.5 "/>
</svg>






