<?xml version="1.0" encoding="iso-8859-1"?>
<svg version="1.1" id="&#x56FE;&#x5C42;_1" xmlns="http://www.w3.org/2000/svg" xmlns:xlink="http://www.w3.org/1999/xlink" x="0px"
	 y="0px" viewBox="0 0 24 24" style="enable-background:new 0 0 24 24;" xml:space="preserve">
<path style="fill:#333333;" d="M12.5,22.5c-4.191,0-6.024-1.431-6.447-2.276l-0.025-0.061l-2.5-7.25L2.531,7.952
	C2.51,7.853,2.5,7.749,2.5,7.644c0-0.611,0.341-1.069,0.85-1.22c0.508-0.151,1.044,0.045,1.335,0.489
	c0.041,0.061,0.078,0.128,0.109,0.198l1.504,3.258L5.569,5.04C5.51,4.603,5.623,4.169,5.887,3.818
	C6.09,3.547,6.388,3.37,6.725,3.322S7.396,3.36,7.668,3.563c0.354,0.266,0.566,0.558,0.683,0.895l1.526,4.409L9.54,3.641
	c-0.034-0.53,0.162-1.05,0.538-1.426c0.505-0.505,1.306-0.549,1.863-0.103l0.17,0.136c0.39,0.312,0.646,0.753,0.726,1.245
	l0.853,5.283l0.502-5.193c0.052-0.534,0.322-1.033,0.742-1.369l0.104-0.083c0.569-0.455,1.39-0.411,1.906,0.106
	C17.302,2.595,17.5,3.072,17.5,3.58v6.376c0.026,0.114,0.303,1.285,1.158,1.57c0.22,0.073,0.733,0.245,1.971,2.605
	c0.442,0.844,0.42,1.861-0.059,2.722l-1.944,3.477C18.549,20.418,16.679,22.5,12.5,22.5z M6.96,19.801
	C7.224,20.268,8.738,21.5,12.5,21.5c3.45,0,5.102-1.55,5.343-1.796l1.854-3.338c0.314-0.564,0.332-1.227,0.047-1.771
	c-1.001-1.909-1.395-2.116-1.41-2.124c-1.344-0.447-1.746-2.013-1.812-2.322L16.5,9.956V3.58c0-0.24-0.094-0.466-0.264-0.635
	c-0.155-0.156-0.402-0.169-0.575-0.032l-0.104,0.083c-0.209,0.167-0.345,0.417-0.37,0.684l-0.664,6.862
	c-0.038,0.403-0.374,0.708-0.78,0.708c-0.389,0-0.715-0.278-0.774-0.662l-1.12-6.938c-0.039-0.246-0.167-0.466-0.362-0.622
	l-0.17-0.136c-0.161-0.127-0.388-0.114-0.531,0.029c-0.172,0.172-0.262,0.411-0.247,0.654l0.441,6.842
	c0.014,0.214-0.062,0.427-0.209,0.584c-0.375,0.397-1.13,0.239-1.309-0.278L7.406,4.785c-0.051-0.148-0.145-0.277-0.27-0.371
	S6.938,4.3,6.866,4.312C6.793,4.322,6.73,4.36,6.687,4.418c-0.105,0.14-0.15,0.312-0.126,0.487l0.989,7.234L7.176,12.28
	c-0.554,0.21-1.106-0.02-1.325-0.493L3.885,7.528C3.78,7.357,3.685,7.366,3.635,7.382C3.584,7.397,3.5,7.441,3.5,7.563
	c0,0.118,0.003,0.155,0.011,0.19l0.979,4.898L6.96,19.801z M13.955,10.43v0.002C13.955,10.431,13.955,10.43,13.955,10.43z"/>
</svg>






