<?xml version="1.0" encoding="iso-8859-1"?>
<svg version="1.1" id="&#x56FE;&#x5C42;_1" xmlns="http://www.w3.org/2000/svg" xmlns:xlink="http://www.w3.org/1999/xlink" x="0px"
	 y="0px" viewBox="0 0 24 24" style="enable-background:new 0 0 24 24;" xml:space="preserve">
<path style="fill:#333333;" d="M12.872,22.5h-0.447c-2.784,0-5.356-1.39-6.881-3.718l-1.097-1.675
	C3.53,15.708,3.802,13.84,5.078,12.76l1.144-0.968L6.25,3.625C6.25,2.453,7.203,1.5,8.375,1.5c0.545,0,1.043,0.207,1.42,0.545
	C10.166,1.42,10.847,1,11.625,1c0.778,0,1.46,0.42,1.83,1.045C13.831,1.707,14.33,1.5,14.875,1.5C16.047,1.5,17,2.453,17,3.625
	v0.198C17.326,3.618,17.712,3.5,18.125,3.5c1.172,0,2.125,0.953,2.125,2.125v9.529c0,1.473-0.441,2.896-1.278,4.117
	C17.59,21.293,15.31,22.5,12.872,22.5z M8.375,2.5c-0.62,0-1.125,0.505-1.125,1.125v8.105c0,0.318-0.14,0.619-0.382,0.825
	l-1.145,0.968c-0.891,0.754-1.08,2.059-0.44,3.036l1.097,1.674c1.34,2.046,3.6,3.267,6.045,3.267h0.447
	c2.107,0,4.079-1.044,5.274-2.793c0.722-1.055,1.104-2.283,1.104-3.553V5.625c0-0.62-0.505-1.125-1.125-1.125S17,5.005,17,5.625h-1
	v-2c0-0.62-0.505-1.125-1.125-1.125S13.75,3.005,13.75,3.625h-1v-0.5C12.75,2.505,12.245,2,11.625,2S10.5,2.505,10.5,3.125v0.5h-1
	C9.5,3.005,8.995,2.5,8.375,2.5z"/>
</svg>






