<?xml version="1.0" encoding="iso-8859-1"?>
<svg version="1.1" id="&#x56FE;&#x5C42;_1" xmlns="http://www.w3.org/2000/svg" xmlns:xlink="http://www.w3.org/1999/xlink" x="0px"
	 y="0px" viewBox="0 0 24 24" style="enable-background:new 0 0 24 24;" xml:space="preserve">
<path style="fill:#333333;" d="M20,21.5H4c-0.827,0-1.5-0.673-1.5-1.5V4c0-0.827,0.673-1.5,1.5-1.5h16c0.827,0,1.5,0.673,1.5,1.5v16
	C21.5,20.827,20.827,21.5,20,21.5z M4,3.5C3.724,3.5,3.5,3.724,3.5,4v16c0,0.275,0.224,0.5,0.5,0.5h16c0.275,0,0.5-0.225,0.5-0.5V4
	c0-0.276-0.225-0.5-0.5-0.5H4z"/>
<rect x="3" y="9.029" style="fill:#333333;" width="18" height="1"/>
<rect x="2.144" y="4.75" transform="matrix(0.7474 -0.6644 0.6644 0.7474 -2.0909 5.0005)" style="fill:#333333;" width="6.773" height="1"/>
<rect x="15.138" y="6.752" transform="matrix(0.7437 -0.6685 0.6685 0.7437 -0.1066 14.2252)" style="fill:#333333;" width="6.725" height="0.999"/>
<rect x="4.761" y="5.656" transform="matrix(0.7474 -0.6644 0.6644 0.7474 -1.6873 7.874)" style="fill:#333333;" width="9.5" height="1"/>
<rect x="9.761" y="5.656" transform="matrix(0.7474 -0.6644 0.6644 0.7474 -0.4244 11.1958)" style="fill:#333333;" width="9.5" height="1"/>
</svg>






