<?xml version="1.0" encoding="iso-8859-1"?>
<svg version="1.1" id="&#x56FE;&#x5C42;_1" xmlns="http://www.w3.org/2000/svg" xmlns:xlink="http://www.w3.org/1999/xlink" x="0px"
	 y="0px" viewBox="0 0 24 24" style="enable-background:new 0 0 24 24;" xml:space="preserve">
<path style="fill:#333333;" d="M20,21.5H4c-0.827,0-1.5-0.673-1.5-1.5V4c0-0.827,0.673-1.5,1.5-1.5h16c0.827,0,1.5,0.673,1.5,1.5v16
	C21.5,20.827,20.827,21.5,20,21.5z M4,3.5C3.724,3.5,3.5,3.724,3.5,4v16c0,0.275,0.224,0.5,0.5,0.5h16c0.275,0,0.5-0.225,0.5-0.5V4
	c0-0.276-0.225-0.5-0.5-0.5H4z"/>
<rect x="2.144" y="4.75" transform="matrix(0.7474 -0.6644 0.6644 0.7474 -2.0909 5.0005)" style="fill:#333333;" width="6.773" height="1"/>
<rect x="1.827" y="8.5" transform="matrix(0.7344 -0.6787 0.6787 0.7344 -4.4485 6.6325)" style="fill:#333333;" width="8.846" height="1"/>
<rect x="1.827" y="13" transform="matrix(0.7344 -0.6787 0.6787 0.7344 -7.5027 7.8278)" style="fill:#333333;" width="8.846" height="1"/>
<rect x="1.827" y="17.5" transform="matrix(0.7344 -0.6787 0.6787 0.7344 -10.557 9.023)" style="fill:#333333;" width="8.846" height="1"/>
<rect x="9" y="3" style="fill:#333333;" width="1" height="18"/>
</svg>






