<?xml version="1.0" encoding="iso-8859-1"?>
<svg version="1.1" id="&#x56FE;&#x5C42;_1" xmlns="http://www.w3.org/2000/svg" xmlns:xlink="http://www.w3.org/1999/xlink" x="0px"
	 y="0px" viewBox="0 0 24 24" style="enable-background:new 0 0 24 24;" xml:space="preserve">
<path style="fill:#333333;" d="M11,11h-1V6c0-0.276-0.224-0.5-0.5-0.5H8C7.724,5.5,7.5,5.724,7.5,6v4.5h-1V6
	c0-0.827,0.673-1.5,1.5-1.5h1.5C10.327,4.5,11,5.173,11,6V11z"/>
<path style="fill:#333333;" d="M14.5,11h-1V7c0-0.827,0.673-1.5,1.5-1.5h1.5C17.327,5.5,18,6.173,18,7v3.5h-1V7
	c0-0.276-0.225-0.5-0.5-0.5H15c-0.275,0-0.5,0.224-0.5,0.5V11z"/>
<path style="fill:#333333;" d="M14.5,11h-1V3c0-0.276-0.225-0.5-0.5-0.5h-1.5C11.224,2.5,11,2.724,11,3v8h-1V3
	c0-0.827,0.673-1.5,1.5-1.5H13c0.827,0,1.5,0.673,1.5,1.5V11z"/>
<path style="fill:#333333;" d="M18.507,22.5H5.493L3.008,9.091L3.79,8.593C3.824,8.617,7.231,11,12,11
	c4.784,0,8.176-2.383,8.209-2.407l0.782,0.498L18.507,22.5z M6.325,21.5h11.35l2.13-11.494C18.396,10.773,15.583,12,12,12
	c-3.583,0-6.396-1.227-7.805-1.994L6.325,21.5z"/>
<path style="fill:#333333;" d="M12,18.5c-1.995,0-3.5-0.859-3.5-2s1.505-2,3.5-2s3.5,0.859,3.5,2S13.995,18.5,12,18.5z M12,15.5
	c-1.526,0-2.5,0.592-2.5,1s0.974,1,2.5,1c1.526,0,2.5-0.592,2.5-1S13.526,15.5,12,15.5z"/>
</svg>






