<?xml version="1.0" encoding="iso-8859-1"?>
<svg version="1.1" id="&#x56FE;&#x5C42;_1" xmlns="http://www.w3.org/2000/svg" xmlns:xlink="http://www.w3.org/1999/xlink" x="0px"
	 y="0px" viewBox="0 0 24 24" style="enable-background:new 0 0 24 24;" xml:space="preserve">
<path style="fill:#333333;" d="M19,12.728l-7-2.692l-7,2.692V5.5h14V12.728z M12,8.964l6,2.308V6.5H6v4.772L12,8.964z"/>
<path style="fill:#333333;" d="M15,6.5H9v-3c0-1.103,0.897-2,2-2h2c1.103,0,2,0.897,2,2V6.5z M10,5.5h4v-2c0-0.551-0.448-1-1-1h-2
	c-0.551,0-1,0.449-1,1V5.5z"/>
<polygon style="fill:#333333;" points="18.475,22.158 17.525,21.842 20.375,13.294 12,10.037 3.625,13.294 6.474,21.842 
	5.526,22.158 2.375,12.706 12,8.963 21.625,12.706 "/>
<path style="fill:#333333;" d="M18,22.5c-1.32,0-2.244-0.264-3.138-0.52C13.997,21.733,13.18,21.5,12,21.5
	c-1.18,0-1.997,0.233-2.863,0.48C8.244,22.236,7.32,22.5,6,22.5c-1.751,0-4.098-0.998-4.197-1.04l0.394-0.92
	C2.219,20.55,4.456,21.5,6,21.5c1.18,0,1.997-0.233,2.863-0.48C9.756,20.764,10.68,20.5,12,20.5c1.32,0,2.244,0.264,3.138,0.52
	C16.003,21.267,16.82,21.5,18,21.5c1.544,0,3.78-0.95,3.803-0.96l0.395,0.92C22.098,21.502,19.751,22.5,18,22.5z"/>
<rect x="11.5" y="9.5" style="fill:#333333;" width="1" height="11.5"/>
</svg>






