<?xml version="1.0" encoding="iso-8859-1"?>
<svg version="1.1" id="&#x56FE;&#x5C42;_1" xmlns="http://www.w3.org/2000/svg" xmlns:xlink="http://www.w3.org/1999/xlink" x="0px"
	 y="0px" viewBox="0 0 24 24" style="enable-background:new 0 0 24 24;" xml:space="preserve">
<path style="fill:#333333;" d="M11.75,20.5c-5.651,0-10.25-3.234-10.25-7.21c0-0.942,0.25-1.852,0.743-2.71
	c-0.131-0.156-0.247-0.325-0.345-0.505c-1.004-1.833-0.021-4.42,2.193-5.767C5.323,3.56,6.723,3.316,7.93,3.639
	c0.907,0.243,1.638,0.8,2.059,1.568l0,0c0.161,0.293,0.274,0.609,0.337,0.942c1.102-0.106,2.243-0.087,3.336,0.056
	c0.061-0.354,0.177-0.688,0.348-0.999c0.421-0.768,1.152-1.325,2.06-1.568c1.208-0.322,2.606-0.079,3.838,0.669
	c2.215,1.347,3.198,3.934,2.193,5.767c-0.175,0.319-0.398,0.599-0.668,0.836C21.81,11.673,22,12.471,22,13.29
	C22,17.266,17.402,20.5,11.75,20.5z M6.838,4.499c-0.732,0-1.509,0.228-2.227,0.664C2.848,6.235,2.024,8.223,2.775,9.594
	C2.888,9.8,3.034,9.985,3.208,10.143l0.318,0.288l-0.237,0.358C2.766,11.58,2.5,12.421,2.5,13.29c0,3.424,4.149,6.21,9.25,6.21
	c5.101,0,9.25-2.786,9.25-6.21c0-0.779-0.215-1.542-0.64-2.264l-0.242-0.412l0.399-0.261c0.3-0.195,0.537-0.451,0.707-0.76
	c0.752-1.371-0.072-3.358-1.836-4.431c-1-0.608-2.115-0.812-3.06-0.558c-0.65,0.174-1.148,0.548-1.441,1.083
	c-0.18,0.327-0.272,0.695-0.275,1.096l-0.005,0.587l-0.579-0.099c-1.323-0.226-2.744-0.251-4.076-0.073L9.405,7.272L9.387,6.72
	C9.374,6.344,9.282,5.997,9.112,5.688l0,0C8.819,5.153,8.321,4.779,7.671,4.605C7.405,4.534,7.125,4.499,6.838,4.499z"/>
<circle style="fill:#333333;" cx="6" cy="8.5" r="1"/>
<circle style="fill:#333333;" cx="10.078" cy="14.288" r="1"/>
<circle style="fill:#333333;" cx="14.078" cy="14.288" r="1"/>
<circle style="fill:#333333;" cx="18" cy="8.5" r="1"/>
</svg>






