<?xml version="1.0" encoding="iso-8859-1"?>
<svg version="1.1" id="&#x56FE;&#x5C42;_1" xmlns="http://www.w3.org/2000/svg" xmlns:xlink="http://www.w3.org/1999/xlink" x="0px"
	 y="0px" viewBox="0 0 24 24" style="enable-background:new 0 0 24 24;" xml:space="preserve">
<path style="fill:#333333;" d="M13.55,18.497l-0.1-0.994c3.244-0.323,3.899-2.056,4.031-2.785c0.119-0.661,0.509-1.215,1.042-1.48
	c1.825-0.909,2.002-2.275,1.977-3.224c0.025-2.972-2.737-4.615-4.484-4.956c-0.512-0.1-0.964-0.398-1.241-0.817
	C13.757,2.698,12.223,2.5,11,2.5c-4.114,0-4.849,3.689-4.955,4.429C5.969,7.461,5.662,7.935,5.201,8.228
	C3.623,9.233,3.5,10.964,3.5,11.471c0,1.754,0.699,2.9,2.137,3.504c1.257,0.526,2.781,0.533,3.779,0.525L9.5,16l-0.083,0.5
	c-1.033-0.001-2.725,0.001-4.167-0.604c-1.825-0.766-2.75-2.255-2.75-4.426c0-0.635,0.156-2.807,2.164-4.086
	c0.21-0.134,0.357-0.357,0.391-0.597C5.181,5.904,6.06,1.5,11,1.5c1.358,0,3.314,0.227,4.608,2.189
	c0.13,0.197,0.349,0.338,0.599,0.387c2.062,0.403,5.324,2.369,5.293,5.928c0.051,1.872-0.801,3.266-2.53,4.127
	c-0.248,0.124-0.441,0.417-0.504,0.764C18.332,15.639,17.581,18.096,13.55,18.497z M9.5,16.5V16V16.5z"/>
<path style="fill:#333333;" d="M14.533,22.5H7.155l0.406-0.74c2.146-3.91,2.088-6.261,1.662-7.543
	c-0.392-1.18-1.131-1.625-1.431-1.762l0.137-0.95l7-1l0.477,0.787c-3.156,4.386-1.687,8.73-0.468,10.415L14.533,22.5z M8.829,21.5
	h4.81c-1.108-2.081-1.982-5.901,0.34-9.849l-4.716,0.674c0.339,0.365,0.677,0.875,0.91,1.576
	C10.632,15.285,10.744,17.703,8.829,21.5z"/>
</svg>






