<?xml version="1.0" encoding="iso-8859-1"?>
<svg version="1.1" id="&#x56FE;&#x5C42;_1" xmlns="http://www.w3.org/2000/svg" xmlns:xlink="http://www.w3.org/1999/xlink" x="0px"
	 y="0px" viewBox="0 0 24 24" style="enable-background:new 0 0 24 24;" xml:space="preserve">
<polygon style="fill:#333333;" points="21.5,9 20.5,9 20.5,3.5 15,3.5 15,2.5 21.5,2.5 "/>
<polygon style="fill:#333333;" points="3.5,9 2.5,9 2.5,2.5 9,2.5 9,3.5 3.5,3.5 "/>
<polygon style="fill:#333333;" points="21.5,21.5 15,21.5 15,20.5 20.5,20.5 20.5,15 21.5,15 "/>
<polygon style="fill:#333333;" points="9,21.5 2.5,21.5 2.5,15 3.5,15 3.5,20.5 9,20.5 "/>
<rect x="13.154" y="5.75" transform="matrix(0.7071 -0.7071 0.7071 0.7071 0.7794 14.3817)" style="fill:#333333;" width="9.192" height="1"/>
<rect x="1.654" y="17.25" transform="matrix(0.7071 -0.7071 0.7071 0.7071 -10.7206 9.6183)" style="fill:#333333;" width="9.192" height="1"/>
</svg>






