<?xml version="1.0" encoding="iso-8859-1"?>
<svg version="1.1" id="&#x56FE;&#x5C42;_1" xmlns="http://www.w3.org/2000/svg" xmlns:xlink="http://www.w3.org/1999/xlink" x="0px"
	 y="0px" viewBox="0 0 24 24" style="enable-background:new 0 0 24 24;" xml:space="preserve">
<path style="fill:#333333;" d="M8,20.5H3c-0.827,0-1.5-0.673-1.5-1.5V5c0-0.827,0.673-1.5,1.5-1.5h18c0.827,0,1.5,0.673,1.5,1.5v3
	h-1V5c0-0.276-0.225-0.5-0.5-0.5H3C2.724,4.5,2.5,4.724,2.5,5v14c0,0.275,0.224,0.5,0.5,0.5h5V20.5z"/>
<path style="fill:#333333;" d="M21,20.5h-8c-0.827,0-1.5-0.673-1.5-1.5v-6c0-0.827,0.673-1.5,1.5-1.5h8c0.827,0,1.5,0.673,1.5,1.5v6
	C22.5,19.827,21.827,20.5,21,20.5z M13,12.5c-0.275,0-0.5,0.225-0.5,0.5v6c0,0.275,0.225,0.5,0.5,0.5h8c0.275,0,0.5-0.225,0.5-0.5
	v-6c0-0.275-0.225-0.5-0.5-0.5H13z"/>
</svg>






