<?xml version="1.0" encoding="utf-8"?>
<svg version="1.1" id="&#x56FE;&#x5C42;_1" xmlns="http://www.w3.org/2000/svg" xmlns:xlink="http://www.w3.org/1999/xlink" x="0px" y="0px"
	 viewBox="0 0 24 24" style="enable-background:new 0 0 24 24;" xml:space="preserve">
<style type="text/css">
	.st0{fill:#333333;}
</style>
<path class="st0" d="M17,19H4c-1.1,0-2-0.9-2-2V4c0-1.1,0.9-2,2-2h13c1.1,0,2,0.9,2,2v13C19,18.1,18.1,19,17,19z M4,3
	C3.4,3,3,3.4,3,4v13c0,0.6,0.4,1,1,1h13c0.6,0,1-0.4,1-1V4c0-0.6-0.4-1-1-1H4z"/>
<path class="st0" d="M21,22.5H6.5v-1H21c0.3,0,0.5-0.2,0.5-0.5V6.5h1V21C22.5,21.8,21.8,22.5,21,22.5z"/>
<polygon class="st0" points="9.5,13.7 6.2,10.6 6.8,9.9 9.5,12.3 14.1,7.5 14.9,8.2 "/>
</svg>





