<?xml version="1.0" encoding="iso-8859-1"?>
<svg version="1.1" id="&#x56FE;&#x5C42;_1" xmlns="http://www.w3.org/2000/svg" xmlns:xlink="http://www.w3.org/1999/xlink" x="0px"
	 y="0px" viewBox="0 0 24 24" style="enable-background:new 0 0 24 24;" xml:space="preserve">
<path style="fill:#333333;" d="M7,8C3.916,8,1.5,6.682,1.5,5S3.916,2,7,2s5.5,1.318,5.5,3S10.084,8,7,8z M7,3
	C4.348,3,2.5,4.054,2.5,5S4.348,7,7,7s4.5-1.054,4.5-2S9.652,3,7,3z"/>
<path style="fill:#333333;" d="M7,11.5c-3.084,0-5.5-1.318-5.5-3V5h1v3.5c0,0.946,1.848,2,4.5,2s4.5-1.054,4.5-2V5h1v3.5
	C12.5,10.182,10.084,11.5,7,11.5z"/>
<path style="fill:#333333;" d="M7,15c-3.084,0-5.5-1.317-5.5-3V8.5h1V12c0,0.946,1.848,2,4.5,2s4.5-1.054,4.5-2V8.5h1V12
	C12.5,13.683,10.084,15,7,15z"/>
<path style="fill:#333333;" d="M7,18.5c-3.084,0-5.5-1.317-5.5-3V12h1v3.5c0,0.946,1.848,2,4.5,2s4.5-1.054,4.5-2V12h1v3.5
	C12.5,17.183,10.084,18.5,7,18.5z"/>
<path style="fill:#333333;" d="M7,22c-3.084,0-5.5-1.317-5.5-3v-3.5h1V19c0,0.946,1.848,2,4.5,2s4.5-1.054,4.5-2v-3.5h1V19
	C12.5,20.683,10.084,22,7,22z"/>
<path style="fill:#333333;" d="M17,15c-3.084,0-5.5-1.317-5.5-3c0-1.682,2.416-3,5.5-3s5.5,1.318,5.5,3C22.5,13.683,20.084,15,17,15
	z M17,10c-2.652,0-4.5,1.054-4.5,2c0,0.946,1.848,2,4.5,2s4.5-1.054,4.5-2C21.5,11.054,19.652,10,17,10z"/>
<path style="fill:#333333;" d="M17,18.5c-3.084,0-5.5-1.317-5.5-3V12h1v3.5c0,0.946,1.848,2,4.5,2s4.5-1.054,4.5-2V12h1v3.5
	C22.5,17.183,20.084,18.5,17,18.5z"/>
<path style="fill:#333333;" d="M17,22c-3.084,0-5.5-1.317-5.5-3v-3.5h1V19c0,0.946,1.848,2,4.5,2s4.5-1.054,4.5-2v-3.5h1V19
	C22.5,20.683,20.084,22,17,22z"/>
</svg>






