<?xml version="1.0" encoding="iso-8859-1"?>
<svg version="1.1" id="&#x56FE;&#x5C42;_1" xmlns="http://www.w3.org/2000/svg" xmlns:xlink="http://www.w3.org/1999/xlink" x="0px"
	 y="0px" viewBox="0 0 24 24" style="enable-background:new 0 0 24 24;" xml:space="preserve">
<path style="fill:#333333;" d="M15.863,22.5H8.136l-0.112-0.346c-0.085-0.261-2.075-6.438-1.519-10.227l0,0
	c0.622-4.236,4.925-9.521,5.108-9.745L12,1.712l0.386,0.471c0.184,0.223,4.486,5.508,5.109,9.745
	c0.555,3.789-1.435,9.966-1.52,10.227L15.863,22.5z M8.868,21.5h6.264c0.408-1.353,1.823-6.358,1.373-9.428
	C16.027,8.82,13.071,4.711,12,3.311c-1.071,1.401-4.028,5.513-4.505,8.762C7.044,15.142,8.459,20.147,8.868,21.5z"/>
<rect x="9" y="6.5" style="fill:#333333;" width="6" height="1"/>
<rect x="7.5" y="9.5" style="fill:#333333;" width="9" height="1"/>
<rect x="7" y="12.5" style="fill:#333333;" width="10" height="1"/>
<rect x="7.5" y="15.5" style="fill:#333333;" width="9" height="1"/>
<rect x="8" y="18.5" style="fill:#333333;" width="8" height="1"/>
<rect x="2" y="21.5" style="fill:#333333;" width="20" height="1"/>
<rect x="11.5" y="2" style="fill:#333333;" width="1" height="1"/>
</svg>






