<?xml version="1.0" encoding="iso-8859-1"?>
<svg version="1.1" id="&#x56FE;&#x5C42;_1" xmlns="http://www.w3.org/2000/svg" xmlns:xlink="http://www.w3.org/1999/xlink" x="0px"
	 y="0px" viewBox="0 0 24 24" style="enable-background:new 0 0 24 24;" xml:space="preserve">
<path style="fill:#333333;" d="M14.5,22.5h-5V3.793l2.5-2.5l2.5,2.5V22.5z M10.5,21.5h3V4.207l-1.5-1.5l-1.5,1.5V21.5z"/>
<path style="fill:#333333;" d="M10.5,22.5h-5V9.793l4.146-4.146L10.5,6V22.5z M6.5,21.5h3V7.207l-3,3V21.5z"/>
<path style="fill:#333333;" d="M6.5,22.5h-5v-5.227l4.171-3.649L6.5,14V22.5z M2.5,21.5h3v-6.398l-3,2.625V21.5z"/>
<path style="fill:#333333;" d="M18.5,22.5h-5V6l0.854-0.354L18.5,9.793V22.5z M14.5,21.5h3V10.207l-3-3V21.5z"/>
<path style="fill:#333333;" d="M22.5,22.5h-5V14l0.815-0.388l4.185,3.399V22.5z M18.5,21.5h3v-4.012l-3-2.438V21.5z"/>
</svg>






