<?xml version="1.0" encoding="iso-8859-1"?>
<svg version="1.1" id="&#x56FE;&#x5C42;_1" xmlns="http://www.w3.org/2000/svg" xmlns:xlink="http://www.w3.org/1999/xlink" x="0px"
	 y="0px" viewBox="0 0 24 24" style="enable-background:new 0 0 24 24;" xml:space="preserve">
<rect x="2" y="21.5" style="fill:#333333;" width="20" height="1"/>
<path style="fill:#333333;" d="M12.25,5.5C11.508,5.5,5,5.444,5,3.5s6.508-2,7.25-2s7.25,0.056,7.25,2S12.992,5.5,12.25,5.5z
	 M6.035,3.5c0.396,0.386,2.633,1,6.215,1s5.819-0.614,6.216-1c-0.396-0.386-2.634-1-6.216-1S6.431,3.114,6.035,3.5z"/>
<path style="fill:#333333;" d="M10.493,22.083l-0.986-0.166c0.01-0.061,1.015-6.083,0.498-9.849
	c-0.406-2.95-2.437-7.312-2.458-7.356l0.905-0.424c0.086,0.184,2.117,4.546,2.542,7.644C11.534,15.851,10.536,21.831,10.493,22.083z
	"/>
<path style="fill:#333333;" d="M13.506,22.074c-0.038-0.252-0.926-6.229-0.388-10.142c0.425-3.098,2.456-7.46,2.542-7.644
	l0.906,0.424c-0.021,0.044-2.053,4.409-2.458,7.356c-0.518,3.771,0.377,9.797,0.386,9.857L13.506,22.074z"/>
</svg>






