<?xml version="1.0" encoding="iso-8859-1"?>
<svg version="1.1" id="&#x56FE;&#x5C42;_1" xmlns="http://www.w3.org/2000/svg" xmlns:xlink="http://www.w3.org/1999/xlink" x="0px"
	 y="0px" viewBox="0 0 24 24" style="enable-background:new 0 0 24 24;" xml:space="preserve">
<path style="fill:#333333;" d="M19,21.5H5c-1.93,0-3.5-1.57-3.5-3.5s1.57-3.5,3.5-3.5h14c1.93,0,3.5,1.57,3.5,3.5
	S20.93,21.5,19,21.5z M5,15.5c-1.378,0-2.5,1.121-2.5,2.5s1.122,2.5,2.5,2.5h14c1.379,0,2.5-1.121,2.5-2.5s-1.121-2.5-2.5-2.5H5z"/>
<path style="fill:#333333;" d="M18,11.5c-2.481,0-4.5-2.019-4.5-4.5s2.019-4.5,4.5-4.5s4.5,2.019,4.5,4.5S20.481,11.5,18,11.5z
	 M18,3.5c-1.93,0-3.5,1.57-3.5,3.5s1.57,3.5,3.5,3.5s3.5-1.57,3.5-3.5S19.93,3.5,18,3.5z"/>
<path style="fill:#333333;" d="M6.5,12.207L1.293,7L6.5,1.793L11.707,7L6.5,12.207z M2.707,7L6.5,10.793L10.293,7L6.5,3.207L2.707,7
	z"/>
</svg>






