<?xml version="1.0" encoding="iso-8859-1"?>
<svg version="1.1" id="&#x56FE;&#x5C42;_1" xmlns="http://www.w3.org/2000/svg" xmlns:xlink="http://www.w3.org/1999/xlink" x="0px"
	 y="0px" viewBox="0 0 24 24" style="enable-background:new 0 0 24 24;" xml:space="preserve">
<path style="fill:#333333;" d="M18,22.5H6c-0.827,0-1.5-0.673-1.5-1.5V3c0-0.827,0.673-1.5,1.5-1.5h12c0.827,0,1.5,0.673,1.5,1.5v18
	C19.5,21.827,18.827,22.5,18,22.5z M6,2.5C5.724,2.5,5.5,2.724,5.5,3v18c0,0.275,0.224,0.5,0.5,0.5h12c0.275,0,0.5-0.225,0.5-0.5V3
	c0-0.276-0.225-0.5-0.5-0.5H6z"/>
<path style="fill:#333333;" d="M16.5,11.5h-9v-6h9V11.5z M8.5,10.5h7v-4h-7V10.5z"/>
<rect x="8" y="15.5" style="fill:#333333;" width="4" height="1"/>
<rect x="9.5" y="14" style="fill:#333333;" width="1" height="4"/>
<path style="fill:#333333;" d="M14.5,16.5L14.5,16.5c0.552,0,1,0.448,1,1l0,0c0,0.552-0.448,1-1,1l0,0c-0.552,0-1-0.448-1-1l0,0
	C13.5,16.948,13.948,16.5,14.5,16.5z"/>
<path style="fill:#333333;" d="M16,13L16,13c0.552,0,1,0.448,1,1l0,0c0,0.552-0.448,1-1,1l0,0c-0.552,0-1-0.448-1-1l0,0
	C15,13.448,15.448,13,16,13z"/>
</svg>






