<?xml version="1.0" encoding="iso-8859-1"?>
<svg version="1.1" id="&#x56FE;&#x5C42;_1" xmlns="http://www.w3.org/2000/svg" xmlns:xlink="http://www.w3.org/1999/xlink" x="0px"
	 y="0px" viewBox="0 0 24 24" style="enable-background:new 0 0 24 24;" xml:space="preserve">
<path style="fill:#333333;" d="M12,10.207l-2.5-2.5V1.5h5v6.207L12,10.207z M10.5,7.293l1.5,1.5l1.5-1.5V2.5h-3V7.293z"/>
<path style="fill:#333333;" d="M14.5,22.5h-5v-6.207l2.5-2.5l2.5,2.5V22.5z M10.5,21.5h3v-4.793l-1.5-1.5l-1.5,1.5V21.5z"/>
<path style="fill:#333333;" d="M22.5,14.5h-6.207l-2.5-2.5l2.5-2.5H22.5V14.5z M16.707,13.5H21.5v-3h-4.793l-1.5,1.5L16.707,13.5z"
	/>
<path style="fill:#333333;" d="M7.707,14.5H1.5v-5h6.207l2.5,2.5L7.707,14.5z M2.5,13.5h4.793l1.5-1.5l-1.5-1.5H2.5V13.5z"/>
</svg>






