<?xml version="1.0" encoding="iso-8859-1"?>
<svg version="1.1" id="&#x56FE;&#x5C42;_1" xmlns="http://www.w3.org/2000/svg" xmlns:xlink="http://www.w3.org/1999/xlink" x="0px"
	 y="0px" viewBox="0 0 24 24" style="enable-background:new 0 0 24 24;" xml:space="preserve">
<path style="fill:#333333;" d="M22.5,22.5h-9v-9h9V22.5z M14.5,21.5h7v-7h-7V21.5z"/>
<path style="fill:#333333;" d="M11.855,10.5H1.145l4.919-8.745h0.871L11.855,10.5z M2.855,9.5h7.29L6.5,3.02L2.855,9.5z"/>
<path style="fill:#333333;" d="M18,10.5c-2.481,0-4.5-2.019-4.5-4.5s2.019-4.5,4.5-4.5s4.5,2.019,4.5,4.5S20.481,10.5,18,10.5z
	 M18,2.5c-1.93,0-3.5,1.57-3.5,3.5s1.57,3.5,3.5,3.5s3.5-1.57,3.5-3.5S19.93,2.5,18,2.5z"/>
<rect x="5.5" y="12.343" transform="matrix(0.7071 -0.7071 0.7071 0.7071 -10.9706 9.5147)" style="fill:#333333;" width="1" height="11.314"/>
<rect x="0.343" y="17.5" transform="matrix(0.7071 -0.7071 0.7071 0.7071 -10.9706 9.5147)" style="fill:#333333;" width="11.314" height="1"/>
</svg>






