<?xml version="1.0" encoding="iso-8859-1"?>
<svg version="1.1" id="&#x56FE;&#x5C42;_1" xmlns="http://www.w3.org/2000/svg" xmlns:xlink="http://www.w3.org/1999/xlink" x="0px"
	 y="0px" viewBox="0 0 24 24" style="enable-background:new 0 0 24 24;" xml:space="preserve">
<path style="fill:#333333;" d="M12.25,23C6.322,23,1.5,18.178,1.5,12.25S6.322,1.5,12.25,1.5c2.739,0,5.349,1.031,7.348,2.903
	l0.378,0.354l-7.271,7.246l7.454,7.544l-0.355,0.352C17.779,21.898,15.097,23,12.25,23z M12.25,2.5c-5.376,0-9.75,4.374-9.75,9.75
	S6.874,22,12.25,22c2.414,0,4.698-0.873,6.486-2.471l-7.442-7.532l7.232-7.208C16.771,3.309,14.562,2.5,12.25,2.5z"/>
<path style="fill:#333333;" d="M20,14.5c-1.379,0-2.5-1.121-2.5-2.5c0-1.378,1.121-2.5,2.5-2.5s2.5,1.122,2.5,2.5
	C22.5,13.379,21.379,14.5,20,14.5z M20,10.5c-0.827,0-1.5,0.673-1.5,1.5s0.673,1.5,1.5,1.5s1.5-0.673,1.5-1.5S20.827,10.5,20,10.5z"
	/>
<rect x="8" y="6.5" style="fill:#333333;" width="1" height="4"/>
<rect x="6.5" y="8" style="fill:#333333;" width="4" height="1"/>
</svg>






