<?xml version="1.0" encoding="iso-8859-1"?>
<svg version="1.1" id="&#x56FE;&#x5C42;_1" xmlns="http://www.w3.org/2000/svg" xmlns:xlink="http://www.w3.org/1999/xlink" x="0px"
	 y="0px" viewBox="0 0 24 24" style="enable-background:new 0 0 24 24;" xml:space="preserve">
<path style="fill:#333333;" d="M11.25,21.5c-1.392,0-2.714-0.597-3.723-1.68C6.556,18.778,6,17.386,6,16
	c0-2.087,1-3.883,2.743-4.929C9.954,10.345,11,9.717,11,8h1c0,2.283-1.457,3.157-2.743,3.929C8.414,12.435,7,13.636,7,16
	c0,1.136,0.458,2.28,1.258,3.139c0.818,0.878,1.88,1.361,2.992,1.361c1.145,0,2.23-0.523,2.979-1.436
	c0.702-0.855,0.986-1.938,0.781-2.967c-0.179-0.895-0.482-1.252-0.834-1.666C13.598,13.752,13,13.049,13,10.5h1
	c0,2.182,0.435,2.692,0.938,3.284c0.386,0.454,0.823,0.969,1.053,2.118c0.265,1.324-0.096,2.708-0.988,3.797
	C14.063,20.844,12.695,21.5,11.25,21.5z"/>
<path style="fill:#333333;" d="M12.02,21.5l-0.04-1c2.728-0.108,4.792-0.882,5.968-2.236c1.114-1.281,1.108-2.674,1.055-3.214
	c-0.214-2.132-2.131-3.029-2.507-3.05l0.004-1c0.748,0,3.222,1.188,3.497,3.95c0.142,1.414-0.33,2.86-1.294,3.97
	C17.754,20.013,15.823,21.348,12.02,21.5z"/>
<path style="fill:#333333;" d="M8,20.5c-4.465,0-6.5-2.851-6.5-5.5c0-3.131,4.229-5.924,5.276-6.447C7.543,8.17,8,7.402,8,6.5v-2
	C8,3.533,8.533,3,9.5,3h4.5c0.813,0,1.5,0.687,1.5,1.5V6c0,0.77,0.461,1.441,1.266,1.841c0.37,0.185,0.759,0.361,1.157,0.523
	c1.713,0.701,4.577,1.873,4.577,5.135c0,2.77-1.915,5-3.5,5v-1c0.987,0,2.5-1.792,2.5-4c0-2.591-2.286-3.526-3.955-4.209
	c-0.423-0.173-0.835-0.359-1.226-0.555C15.182,8.169,14.501,7.146,14.501,6V4.5c0-0.231-0.219-0.5-0.5-0.5H9.5
	C9.084,4,9,4.084,9,4.5v2c0,1.289-0.664,2.391-1.776,2.947C6.447,9.836,2.5,12.363,2.5,15c0,2.24,1.701,4.5,5.5,4.5V20.5z"/>
</svg>






