<?xml version="1.0" encoding="iso-8859-1"?>
<svg version="1.1" id="&#x56FE;&#x5C42;_1" xmlns="http://www.w3.org/2000/svg" xmlns:xlink="http://www.w3.org/1999/xlink" x="0px"
	 y="0px" viewBox="0 0 24 24" style="enable-background:new 0 0 24 24;" xml:space="preserve">
<path style="fill:#333333;" d="M3.384,8.999L3.145,8.046c0.757-0.349,7.42-3.412,8.25-3.635h0c1.08-0.289,2.187,0.343,2.472,1.408
	c0.285,1.066-0.359,2.167-1.437,2.456C11.592,8.5,4.222,8.949,3.384,8.999z M11.654,5.377C11.23,5.491,8.57,6.673,6.024,7.829
	c2.775-0.185,5.734-0.409,6.148-0.52c0.545-0.146,0.872-0.698,0.729-1.231C12.759,5.546,12.197,5.232,11.654,5.377L11.654,5.377z"/>
<path style="fill:#333333;" d="M11.957,19.777c-0.178,0-0.356-0.023-0.533-0.07c-0.833-0.224-7.499-3.393-8.256-3.754l0.252-0.95
	c0.837,0.062,8.205,0.616,9.039,0.839c0.521,0.14,0.957,0.472,1.229,0.934c0.273,0.465,0.348,1.006,0.209,1.523
	c-0.139,0.517-0.473,0.948-0.942,1.214C12.646,19.688,12.304,19.777,11.957,19.777z M6.051,16.21c2.546,1.195,5.21,2.418,5.632,2.53
	c0.265,0.07,0.541,0.037,0.778-0.098c0.234-0.132,0.4-0.347,0.469-0.603c0.069-0.258,0.032-0.526-0.104-0.758
	c-0.138-0.234-0.36-0.403-0.626-0.474C11.78,16.695,8.857,16.436,6.051,16.21z"/>
<path style="fill:#333333;" d="M19,12.502H8v-1h11c1.103,0,2-0.897,2-2s-0.897-2-2-2c-0.635,0-1.219,0.292-1.601,0.8l-0.799-0.601
	c0.572-0.762,1.446-1.2,2.399-1.2c1.654,0,3,1.346,3,3S20.654,12.502,19,12.502z"/>
</svg>






