<?xml version="1.0" encoding="iso-8859-1"?>
<svg version="1.1" id="&#x56FE;&#x5C42;_1" xmlns="http://www.w3.org/2000/svg" xmlns:xlink="http://www.w3.org/1999/xlink" x="0px"
	 y="0px" viewBox="0 0 24 24" style="enable-background:new 0 0 24 24;" xml:space="preserve">
<path style="fill:#333333;" d="M2.561,21.739c-0.697-1.275-1.05-2.87-1.05-4.739c0-2.849,1.509-4.996,3.51-4.996
	c0.516,0,1.087,0.154,1.691,0.318c1.457,0.395,3.108,0.841,4.751-0.549c1.596-1.349,1.182-1.885,0.357-2.952
	c-0.266-0.345-0.542-0.701-0.763-1.119c-0.64-1.208-0.653-2.95-0.042-5.327l0.969,0.249c-0.539,2.095-0.553,3.646-0.042,4.61
	c0.181,0.342,0.43,0.664,0.67,0.975c0.813,1.051,1.825,2.36-0.503,4.327c-2.044,1.728-4.132,1.162-5.658,0.75
	c-0.538-0.146-1.047-0.283-1.43-0.283c-1.234,0-2.51,1.495-2.51,3.996c0,1.7,0.312,3.133,0.928,4.261L2.561,21.739z"/>
<path style="fill:#333333;" d="M6.066,21.745C5.23,20.256,4.872,18.881,5,17.657c0.225-2.147,1.567-2.147,2.008-2.147
	c0.403,0,0.598,0.332,0.985,0.993c0.661,1.128,1.893,3.228,4.073,3.501c3.09,0.389,6.461-1.866,8.07-4.182
	c0.971-1.396,1.728-3.892,1.219-5.765c-0.243-0.895-0.746-1.523-1.494-1.869c-1.379-0.636-1.968-0.365-2.538-0.104
	c-0.524,0.242-1.178,0.541-2.12-0.103C13.946,7.126,13.72,5.29,14.51,2.37l0.965,0.261c-0.45,1.667-0.766,3.805,0.291,4.526
	c0.476,0.323,0.668,0.237,1.141,0.02c0.664-0.306,1.577-0.724,3.373,0.104C21.295,7.749,22,8.618,22.32,9.795
	c0.596,2.189-0.235,4.976-1.363,6.598c-1.776,2.557-5.537,5.049-9.015,4.604c-2.67-0.334-4.063-2.711-4.812-3.987
	c-0.101-0.172-0.22-0.375-0.301-0.494c-0.341,0.024-0.724,0.187-0.835,1.246c-0.106,1.015,0.211,2.189,0.944,3.494L6.066,21.745z"/>
<path style="fill:#333333;" d="M13.779,17.498l-0.08-0.996c0.963-0.078,1.761-0.335,2.372-0.762
	c0.604-0.422,1.021-0.997,1.277-1.756l0.947,0.32c-0.322,0.954-0.878,1.714-1.651,2.255C15.886,17.09,14.922,17.405,13.779,17.498z"
	/>
</svg>






