<?xml version="1.0" encoding="iso-8859-1"?>
<svg version="1.1" id="&#x56FE;&#x5C42;_1" xmlns="http://www.w3.org/2000/svg" xmlns:xlink="http://www.w3.org/1999/xlink" x="0px"
	 y="0px" viewBox="0 0 24 24" style="enable-background:new 0 0 24 24;" xml:space="preserve">
<path style="fill:#333333;" d="M6.5,21.5h-4v-5h4V21.5z M3.5,20.5h2v-3h-2V20.5z"/>
<path style="fill:#333333;" d="M21.5,21.5h-4v-5h4V21.5z M18.5,20.5h2v-3h-2V20.5z"/>
<rect x="11.5" y="7" style="fill:#333333;" width="1" height="1.5"/>
<rect x="11.5" y="3" style="fill:#333333;" width="1" height="1"/>
<rect x="11.5" y="13" style="fill:#333333;" width="1" height="2"/>
<rect x="4" y="3" style="fill:#333333;" width="1" height="14"/>
<rect x="19" y="3" style="fill:#333333;" width="1" height="14"/>
<rect x="11.5" y="19" style="fill:#333333;" width="1" height="2"/>
<path style="fill:#333333;" d="M4.816,15.387L4,15v-5h6l0.316,0.887L4.816,15.387z M5,11v2.945L8.599,11H5z"/>
<path style="fill:#333333;" d="M19.184,15.387l-5.5-4.5L14,10h6v5L19.184,15.387z M15.4,11l3.6,2.945V11H15.4z"/>
<rect x="4.5" y="7" style="fill:#333333;" width="4.5" height="1"/>
<rect x="15" y="7" style="fill:#333333;" width="4.5" height="1"/>
</svg>






