<?xml version="1.0" encoding="iso-8859-1"?>
<svg version="1.1" id="&#x56FE;&#x5C42;_1" xmlns="http://www.w3.org/2000/svg" xmlns:xlink="http://www.w3.org/1999/xlink" x="0px"
	 y="0px" viewBox="0 0 24 24" style="enable-background:new 0 0 24 24;" xml:space="preserve">
<path style="fill:#333333;" d="M20,22H4c-0.827,0-1.5-0.673-1.5-1.5v-15C2.5,4.673,3.173,4,4,4h16c0.827,0,1.5,0.673,1.5,1.5v15
	C21.5,21.327,20.827,22,20,22z M4,5C3.724,5,3.5,5.224,3.5,5.5v15C3.5,20.775,3.724,21,4,21h16c0.275,0,0.5-0.225,0.5-0.5v-15
	C20.5,5.224,20.275,5,20,5H4z"/>
<rect x="7" y="2.5" style="fill:#333333;" width="1" height="2"/>
<rect x="16" y="2.5" style="fill:#333333;" width="1" height="2"/>
<rect x="3" y="8" style="fill:#333333;" width="18" height="1"/>
<rect x="9" y="14.5" style="fill:#333333;" width="6" height="1"/>
<rect x="11.5" y="12" style="fill:#333333;" width="1" height="6"/>
<rect x="2.5" y="5.5" style="fill:#333333;" width="1" height="6"/>
<rect x="20.5" y="5.5" style="fill:#333333;" width="1" height="6"/>
</svg>






