<?xml version="1.0" encoding="iso-8859-1"?>
<svg version="1.1" id="&#x56FE;&#x5C42;_1" xmlns="http://www.w3.org/2000/svg" xmlns:xlink="http://www.w3.org/1999/xlink" x="0px"
	 y="0px" viewBox="0 0 24 24" style="enable-background:new 0 0 24 24;" xml:space="preserve">
<path style="fill:#333333;" d="M11.956,15.224c-1.997,0-4.492-1.183-6.639-3.33c-1.51-1.51-2.602-3.27-3.073-4.954
	c-0.5-1.784-0.252-3.29,0.698-4.239C3.89,1.751,5.396,1.504,7.18,2.004c1.684,0.471,3.443,1.563,4.954,3.073
	c3.243,3.243,4.287,7.28,2.376,9.192l0,0C13.864,14.915,12.975,15.224,11.956,15.224z M5.48,2.751c-0.768,0-1.396,0.221-1.832,0.657
	C2.966,4.091,2.809,5.25,3.207,6.67c0.426,1.521,1.427,3.125,2.817,4.516c2.752,2.75,6.313,3.842,7.779,2.376
	c1.464-1.465,0.376-5.027-2.376-7.778c-1.391-1.391-2.995-2.392-4.516-2.817C6.396,2.823,5.916,2.751,5.48,2.751z"/>
<path style="fill:#333333;" d="M5.478,21.796c-1.036,0-1.908-0.321-2.537-0.95c-1.911-1.911-0.868-5.949,2.375-9.192
	c3.244-3.244,7.281-4.287,9.193-2.376l0,0c1.911,1.912,0.867,5.949-2.376,9.192c-1.511,1.511-3.27,2.602-4.954,3.073
	C6.578,21.712,6.006,21.796,5.478,21.796z M11.977,9.332c-1.721,0-4.034,1.11-5.953,3.028c-1.391,1.391-2.391,2.994-2.817,4.516
	c-0.398,1.421-0.241,2.58,0.442,3.263s1.841,0.84,3.262,0.441c1.521-0.426,3.125-1.427,4.516-2.817
	c2.752-2.752,3.84-6.313,2.376-7.778C13.359,9.542,12.724,9.332,11.977,9.332z"/>
<path style="fill:#333333;" d="M12.044,15.224c-1.019,0-1.907-0.309-2.553-0.954l0,0C7.58,12.358,8.623,8.32,11.866,5.077
	c1.511-1.51,3.27-2.602,4.954-3.073c1.784-0.5,3.289-0.252,4.238,0.697c0.949,0.949,1.197,2.455,0.698,4.239
	c-0.472,1.684-1.563,3.443-3.074,4.954C16.536,14.04,14.04,15.224,12.044,15.224z M10.198,13.562
	c1.465,1.465,5.027,0.375,7.778-2.376c1.392-1.391,2.392-2.995,2.817-4.516c0.398-1.421,0.241-2.58-0.441-3.262
	s-1.84-0.839-3.262-0.441c-1.521,0.426-3.125,1.426-4.517,2.817C9.822,8.536,8.734,12.098,10.198,13.562L10.198,13.562z"/>
<path style="fill:#333333;" d="M18.522,21.796c-0.528,0-1.1-0.084-1.702-0.253c-1.684-0.472-3.443-1.562-4.954-3.073
	c-3.243-3.243-4.287-7.281-2.375-9.192c1.913-1.911,5.95-0.867,9.192,2.376c1.511,1.51,2.603,3.27,3.074,4.953
	c0.499,1.784,0.251,3.29-0.698,4.239C20.431,21.475,19.558,21.796,18.522,21.796z M12.023,9.332c-0.747,0-1.382,0.209-1.826,0.652
	c-1.464,1.464-0.376,5.026,2.375,7.778c1.392,1.391,2.995,2.392,4.517,2.817c1.421,0.398,2.579,0.241,3.262-0.441
	s0.84-1.842,0.441-3.263c-0.426-1.521-1.426-3.125-2.817-4.516C16.057,10.442,13.744,9.332,12.023,9.332z"/>
</svg>






