<?xml version="1.0" encoding="iso-8859-1"?>
<svg version="1.1" id="&#x56FE;&#x5C42;_1" xmlns="http://www.w3.org/2000/svg" xmlns:xlink="http://www.w3.org/1999/xlink" x="0px"
	 y="0px" viewBox="0 0 24 24" style="enable-background:new 0 0 24 24;" xml:space="preserve">
<path style="fill:#333333;" d="M12,22.5c-0.663,0-0.99-0.688-1.278-1.295c-0.116-0.245-0.311-0.655-0.424-0.727
	c-0.081,0.03-0.442,0.347-0.657,0.536c-0.5,0.438-1.068,0.933-1.66,0.688c-0.608-0.252-0.642-1.008-0.672-1.675
	c-0.013-0.273-0.033-0.732-0.112-0.842c-0.001,0-0.001,0-0.002,0c-0.09,0-0.539,0.15-0.807,0.24
	c-0.636,0.213-1.356,0.456-1.813-0.002c-0.462-0.463-0.2-1.186,0.032-1.822c0.098-0.269,0.261-0.718,0.229-0.854
	c-0.075-0.023-0.549-0.045-0.833-0.057c-0.681-0.03-1.453-0.063-1.706-0.672c-0.254-0.613,0.279-1.149,0.795-1.667
	c0.209-0.21,0.559-0.561,0.589-0.702c-0.063-0.033-0.516-0.235-0.786-0.356C2.209,12.987,1.5,12.671,1.5,12
	c0-0.642,0.647-1.002,1.272-1.35c0.254-0.142,0.678-0.377,0.745-0.502c-0.032-0.073-0.349-0.399-0.519-0.574
	C2.551,9.113,2.044,8.59,2.297,7.981S3.324,7.34,4.073,7.309c0.305-0.012,0.815-0.033,0.937-0.118
	C4.985,7.126,4.796,6.683,4.683,6.418C4.41,5.777,4.1,5.052,4.575,4.576c0.429-0.43,1.108-0.294,1.768-0.161
	c0.284,0.057,0.76,0.154,0.886,0.095c0.048-0.073,0.069-0.472,0.08-0.686c0.029-0.568,0.066-1.275,0.672-1.526
	c0.576-0.239,1.141,0.197,1.641,0.581c0.205,0.158,0.586,0.451,0.721,0.454c0.076-0.051,0.27-0.422,0.386-0.644
	C11.02,2.131,11.349,1.5,12,1.5c0.661,0,0.981,0.666,1.239,1.2c0.104,0.217,0.28,0.58,0.383,0.642
	c0.104-0.011,0.508-0.309,0.725-0.468c0.544-0.4,1.108-0.812,1.673-0.577c0.607,0.252,0.642,0.98,0.672,1.622
	c0.012,0.258,0.032,0.69,0.108,0.793c0.08,0.016,0.552-0.116,0.827-0.195c0.664-0.191,1.35-0.389,1.798,0.059
	c0.466,0.467,0.19,1.189-0.053,1.828c-0.103,0.268-0.273,0.715-0.243,0.852c0.074,0.02,0.56,0.041,0.849,0.054
	c0.69,0.029,1.474,0.063,1.726,0.672c0.264,0.635-0.309,1.136-0.727,1.502c-0.17,0.149-0.455,0.398-0.485,0.508
	c0.056,0.082,0.498,0.379,0.762,0.556C21.866,10.958,22.5,11.383,22.5,12c0,0.702-0.789,0.972-1.486,1.208
	c-0.24,0.082-0.621,0.212-0.777,0.315c0.095,0.186,0.418,0.524,0.621,0.737c0.539,0.566,1.097,1.152,0.846,1.759
	c-0.252,0.608-1.034,0.642-1.725,0.672c-0.29,0.013-0.774,0.033-0.891,0.114c0.011,0.076,0.182,0.523,0.284,0.791
	c0.243,0.638,0.519,1.361,0.053,1.828c-0.434,0.434-1.079,0.287-1.647,0.159c-0.227-0.052-0.647-0.148-0.758-0.096
	c-0.085,0.078-0.163,0.509-0.205,0.74c-0.106,0.581-0.227,1.239-0.795,1.475c-0.615,0.255-1.14-0.279-1.56-0.711
	c-0.161-0.166-0.462-0.475-0.583-0.5c-0.075,0.057-0.334,0.488-0.488,0.746C13.017,21.858,12.633,22.5,12,22.5z M10.349,19.492
	c0.059,0,0.117,0.006,0.177,0.018c0.55,0.108,0.83,0.697,1.1,1.267c0.104,0.218,0.269,0.565,0.386,0.695
	c0.146-0.126,0.376-0.509,0.52-0.748c0.343-0.571,0.666-1.111,1.186-1.214c0.576-0.125,1.05,0.362,1.461,0.785
	c0.136,0.14,0.349,0.358,0.479,0.442c0.074-0.143,0.138-0.489,0.174-0.688c0.099-0.542,0.201-1.102,0.636-1.393
	c0.442-0.297,1.021-0.163,1.533-0.048c0.219,0.05,0.628,0.146,0.736,0.096c-0.032-0.054-0.198-0.49-0.298-0.751
	c-0.234-0.615-0.478-1.251-0.156-1.731c0.316-0.473,0.997-0.501,1.654-0.529c0.23-0.01,0.585-0.025,0.776-0.072
	c-0.117-0.186-0.397-0.479-0.578-0.669c-0.524-0.55-1.02-1.069-0.906-1.642c0.116-0.589,0.802-0.822,1.464-1.048
	c0.237-0.081,0.61-0.208,0.773-0.311c-0.128-0.144-0.536-0.417-0.769-0.573c-0.559-0.375-1.087-0.729-1.187-1.232
	c-0.12-0.603,0.395-1.053,0.809-1.415c0.111-0.098,0.278-0.244,0.376-0.354c-0.195-0.044-0.536-0.059-0.76-0.068
	c-0.657-0.028-1.337-0.058-1.652-0.53c-0.322-0.48-0.079-1.116,0.155-1.731c0.083-0.218,0.214-0.56,0.238-0.744
	c-0.186,0.006-0.544,0.109-0.772,0.175c-0.603,0.172-1.226,0.352-1.682,0.047c-0.471-0.315-0.501-0.948-0.529-1.559
	c-0.011-0.219-0.026-0.565-0.078-0.721c-0.166,0.06-0.479,0.29-0.675,0.434c-0.494,0.365-1.009,0.739-1.536,0.636
	c-0.549-0.109-0.822-0.678-1.064-1.18c-0.105-0.218-0.281-0.583-0.385-0.645c-0.025,0.061-0.221,0.437-0.338,0.661
	c-0.271,0.52-0.552,1.057-1.089,1.164C9.987,4.419,9.493,4.039,9.013,3.671C8.802,3.509,8.451,3.239,8.321,3.23
	c0.018,0.052-0.001,0.423-0.013,0.645C8.28,4.416,8.248,5.03,7.778,5.345c-0.436,0.29-1.044,0.168-1.632,0.05
	C5.902,5.346,5.51,5.27,5.333,5.285c0.031,0.182,0.177,0.523,0.27,0.741c0.265,0.62,0.539,1.261,0.21,1.752
	c-0.316,0.473-0.988,0.501-1.699,0.53c-0.248,0.01-0.632,0.026-0.833,0.077c0.095,0.142,0.301,0.354,0.436,0.493
	c0.416,0.429,0.887,0.914,0.774,1.489c-0.105,0.53-0.652,0.834-1.232,1.157c-0.226,0.126-0.583,0.325-0.72,0.461
	c0.153,0.124,0.527,0.291,0.764,0.396c0.643,0.288,1.25,0.56,1.361,1.117c0.115,0.579-0.383,1.078-0.863,1.561
	c-0.158,0.159-0.401,0.402-0.512,0.562c0.188,0.046,0.533,0.062,0.757,0.071c0.648,0.028,1.319,0.058,1.635,0.529
	C6,16.698,5.77,17.332,5.546,17.944c-0.079,0.217-0.202,0.556-0.226,0.741c0.187-0.018,0.529-0.133,0.75-0.207
	c0.609-0.204,1.238-0.415,1.708-0.101c0.472,0.315,0.501,0.972,0.53,1.605c0.01,0.225,0.025,0.575,0.074,0.75
	c0.162-0.087,0.429-0.321,0.6-0.471C9.415,19.883,9.861,19.492,10.349,19.492z"/>
<path style="fill:#333333;" d="M14.5,15c-1.379,0-2.5-1.121-2.5-2.5c0-1.378,1.121-2.5,2.5-2.5s2.5,1.122,2.5,2.5
	C17,13.879,15.879,15,14.5,15z M14.5,11c-0.827,0-1.5,0.673-1.5,1.5s0.673,1.5,1.5,1.5s1.5-0.673,1.5-1.5S15.327,11,14.5,11z"/>
<path style="fill:#333333;" d="M8.25,13c0.69,0,1.25-0.56,1.25-1.25c0-0.69-0.56-1.25-1.25-1.25S7,11.06,7,11.75
	C7,12.441,7.56,13,8.25,13z"/>
</svg>






