<?xml version="1.0" encoding="iso-8859-1"?>
<svg version="1.1" id="&#x56FE;&#x5C42;_1" xmlns="http://www.w3.org/2000/svg" xmlns:xlink="http://www.w3.org/1999/xlink" x="0px"
	 y="0px" viewBox="0 0 24 24" style="enable-background:new 0 0 24 24;" xml:space="preserve">
<path style="fill:#333333;" d="M19.5,21.5h-15c-1.103,0-2-0.897-2-2v-11c0-1.103,0.897-2,2-2h15c1.103,0,2,0.897,2,2v11
	C21.5,20.603,20.603,21.5,19.5,21.5z M4.5,7.5c-0.551,0-1,0.449-1,1v11c0,0.552,0.449,1,1,1h15c0.552,0,1-0.448,1-1v-11
	c0-0.551-0.448-1-1-1H4.5z"/>
<path style="fill:#333333;" d="M19.5,21.5h-15c-1.103,0-2-0.897-2-2v-4h19v4C21.5,20.603,20.603,21.5,19.5,21.5z M3.5,16.5v3
	c0,0.552,0.449,1,1,1h15c0.552,0,1-0.448,1-1v-3H3.5z"/>
<path style="fill:#333333;" d="M9.5,7.5c-1.654,0-3-1.346-3-3s1.346-3,3-3s3,1.346,3,3S11.154,7.5,9.5,7.5z M9.5,2.5
	c-1.103,0-2,0.897-2,2s0.897,2,2,2s2-0.897,2-2S10.603,2.5,9.5,2.5z"/>
<path style="fill:#333333;" d="M14,7.5c-1.379,0-2.5-1.122-2.5-2.5s1.121-2.5,2.5-2.5s2.5,1.122,2.5,2.5S15.379,7.5,14,7.5z M14,3.5
	c-0.827,0-1.5,0.673-1.5,1.5s0.673,1.5,1.5,1.5s1.5-0.673,1.5-1.5S14.827,3.5,14,3.5z"/>
<polygon style="fill:#333333;" points="15.175,10.379 12,7.659 8.825,10.379 8.175,9.621 12,6.341 15.825,9.621 "/>
</svg>






