<?xml version="1.0" encoding="iso-8859-1"?>
<svg version="1.1" id="&#x56FE;&#x5C42;_1" xmlns="http://www.w3.org/2000/svg" xmlns:xlink="http://www.w3.org/1999/xlink" x="0px"
	 y="0px" viewBox="0 0 24 24" style="enable-background:new 0 0 24 24;" xml:space="preserve">
<path style="fill:#333333;" d="M12,8.5c-1.93,0-3.5-1.57-3.5-3.5s1.57-3.5,3.5-3.5s3.5,1.57,3.5,3.5S13.93,8.5,12,8.5z M12,2.5
	c-1.378,0-2.5,1.122-2.5,2.5s1.122,2.5,2.5,2.5c1.379,0,2.5-1.122,2.5-2.5S13.379,2.5,12,2.5z"/>
<polygon style="fill:#333333;" points="14.5,22 13.5,22 13.5,17.5 18.163,17.5 13.316,8.5 10.684,8.5 5.837,17.5 10.5,17.5 10.5,22 
	9.5,22 9.5,18.5 4.163,18.5 10.086,7.5 13.914,7.5 19.837,18.5 14.5,18.5 "/>
</svg>






