<?xml version="1.0" encoding="iso-8859-1"?>
<svg version="1.1" id="&#x56FE;&#x5C42;_1" xmlns="http://www.w3.org/2000/svg" xmlns:xlink="http://www.w3.org/1999/xlink" x="0px"
	 y="0px" viewBox="0 0 24 24" style="enable-background:new 0 0 24 24;" xml:space="preserve">
<path style="fill:#333333;" d="M9.787,15.824c-1.486-0.25-2.745-0.756-3.744-1.504C4.475,13.144,3.5,11.296,3.5,9.5
	c0-1.212,0.437-2.394,1.262-3.417C4.77,6.008,4.77,5.417,4.77,4.987c0-1.497,0.042-2.506,0.612-2.882
	c0.137-0.09,0.426-0.218,0.815-0.05c0.376,0.162,0.741,0.381,1.094,0.593C8.01,3.081,8.689,3.486,9.303,3.333
	c1.861-0.475,3.942-0.439,5.775,0.104c0.434,0.129,1.521-0.472,2.243-0.866c0.347-0.189,0.68-0.372,0.978-0.51
	c0.403-0.188,0.686-0.054,0.816,0.043c0.49,0.362,0.407,1.157,0.218,2.529c-0.069,0.5-0.173,1.254-0.112,1.443
	C20.044,7.053,20.5,8.259,20.5,9.5c0,1.896-0.893,3.698-2.388,4.82c-0.873,0.654-1.997,1.128-3.339,1.407l-0.203-0.979
	c1.197-0.249,2.187-0.663,2.942-1.229c1.244-0.934,1.987-2.436,1.987-4.02c0-1.005-0.376-1.99-1.088-2.847
	c-0.301-0.362-0.23-0.988-0.069-2.155c0.057-0.415,0.144-1.043,0.141-1.413c-0.219,0.111-0.447,0.236-0.682,0.364
	c-1.072,0.586-2.183,1.189-3.007,0.948c-1.664-0.492-3.558-0.525-5.245-0.095C8.529,4.562,7.599,4,6.776,3.505
	c-0.302-0.182-0.59-0.354-0.87-0.485C5.769,3.399,5.77,4.452,5.77,4.987c0,0.999-0.009,1.452-0.229,1.724
	C4.86,7.554,4.5,8.519,4.5,9.5c0,1.488,0.821,3.028,2.143,4.02c0.87,0.651,1.983,1.096,3.31,1.318L9.787,15.824z"/>
<path style="fill:#333333;" d="M9.501,21.505h-1v-4.357c0-0.699,0.336-1.423,0.999-2.152l0.74,0.672
	c-0.49,0.54-0.739,1.038-0.739,1.48V21.505z"/>
<path style="fill:#333333;" d="M15.995,21.505h-1v-4.326c0-0.458-0.242-1.009-0.721-1.638l0.795-0.605
	c0.623,0.817,0.926,1.552,0.926,2.243V21.505z"/>
<path style="fill:#333333;" d="M9.001,19.259H6.913c-1.103,0-2.227-0.933-3.34-2.772c-0.136-0.225-0.337-0.346-0.634-0.383
	l0.123-0.992c0.599,0.074,1.071,0.37,1.366,0.857c1.206,1.992,2.075,2.29,2.485,2.29h2.088V19.259z"/>
</svg>






