<?xml version="1.0" encoding="iso-8859-1"?>
<svg version="1.1" id="&#x56FE;&#x5C42;_1" xmlns="http://www.w3.org/2000/svg" xmlns:xlink="http://www.w3.org/1999/xlink" x="0px"
	 y="0px" viewBox="0 0 24 24" style="enable-background:new 0 0 24 24;" xml:space="preserve">
<path style="fill:#333333;" d="M7.25,16c-2.068,0-3.75-1.683-3.75-3.75c0-2.068,1.682-3.75,3.75-3.75S11,10.182,11,12.25
	C11,14.317,9.318,16,7.25,16z M7.25,9.5c-1.517,0-2.75,1.233-2.75,2.75S5.733,15,7.25,15S10,13.767,10,12.25S8.767,9.5,7.25,9.5z"/>
<path style="fill:#333333;" d="M16.75,16C14.683,16,13,14.317,13,12.25c0-2.068,1.683-3.75,3.75-3.75s3.75,1.682,3.75,3.75
	C20.5,14.317,18.817,16,16.75,16z M16.75,9.5c-1.517,0-2.75,1.233-2.75,2.75S15.233,15,16.75,15s2.75-1.233,2.75-2.75
	S18.267,9.5,16.75,9.5z"/>
<rect x="2" y="11.5" style="fill:#333333;" width="2" height="1"/>
<rect x="20" y="11.5" style="fill:#333333;" width="2" height="1"/>
<path style="fill:#333333;" d="M13.515,10.621C13.313,9.815,12.729,9,12,9s-1.313,0.815-1.515,1.621l-0.97-0.242
	C9.801,9.233,10.701,8,12,8s2.198,1.233,2.485,2.379L13.515,10.621z"/>
</svg>






