<?xml version="1.0" encoding="iso-8859-1"?>
<svg version="1.1" id="&#x56FE;&#x5C42;_1" xmlns="http://www.w3.org/2000/svg" xmlns:xlink="http://www.w3.org/1999/xlink" x="0px"
	 y="0px" viewBox="0 0 24 24" style="enable-background:new 0 0 24 24;" xml:space="preserve">
<path style="fill:#333333;" d="M6,21.5c-2.206,0-4-1.794-4-4s1.794-4,4-4s4,1.794,4,4S8.206,21.5,6,21.5z M6,14.5
	c-1.654,0-3,1.346-3,3s1.346,3,3,3s3-1.346,3-3S7.654,14.5,6,14.5z"/>
<path style="fill:#333333;" d="M18,21.5c-2.206,0-4-1.794-4-4s1.794-4,4-4s4,1.794,4,4S20.206,21.5,18,21.5z M18,14.5
	c-1.654,0-3,1.346-3,3s1.346,3,3,3s3-1.346,3-3S19.654,14.5,18,14.5z"/>
<path style="fill:#333333;" d="M3,17H2V5.441C2,4.69,2,4.236,2.284,3.844C2.565,3.451,2.995,3.308,3.707,3.07l1.635-0.544
	l0.316,0.948L4.026,4.018c-0.523,0.175-0.837,0.279-0.931,0.41C3,4.56,3,4.892,3,5.441V17z"/>
<path style="fill:#333333;" d="M22,17h-1V5.441c0-0.55,0-0.882-0.094-1.013c-0.095-0.13-0.408-0.235-0.928-0.409l-1.637-0.545
	l0.316-0.949l1.633,0.544c0.714,0.239,1.143,0.382,1.426,0.774C22,4.237,22,4.69,22,5.441V17z"/>
<path style="fill:#333333;" d="M15,17h-1c0-1.103-0.897-2-2-2c-1.103,0-2,0.897-2,2H9c0-1.654,1.346-3,3-3S15,15.346,15,17z"/>
</svg>






