<?xml version="1.0" encoding="iso-8859-1"?>
<svg version="1.1" id="&#x56FE;&#x5C42;_1" xmlns="http://www.w3.org/2000/svg" xmlns:xlink="http://www.w3.org/1999/xlink" x="0px"
	 y="0px" viewBox="0 0 24 24" style="enable-background:new 0 0 24 24;" xml:space="preserve">
<path style="fill:#333333;" d="M12.158,19.5c-2.875,0-5.547-1.152-7.522-3.243l0.728-0.688c1.784,1.89,4.197,2.931,6.794,2.931
	c5.151,0,9.342-4.191,9.342-9.342c0-2.597-1.041-5.01-2.931-6.794l0.688-0.728C21.348,3.611,22.5,6.283,22.5,9.158
	C22.5,14.86,17.86,19.5,12.158,19.5z"/>
<path style="fill:#333333;" d="M12,16.5c-4.136,0-7.5-3.364-7.5-7.5S7.864,1.5,12,1.5s7.5,3.364,7.5,7.5S16.136,16.5,12,16.5z
	 M12,2.5C8.416,2.5,5.5,5.416,5.5,9s2.916,6.5,6.5,6.5s6.5-2.916,6.5-6.5S15.584,2.5,12,2.5z"/>
<rect x="11.5" y="19" style="fill:#333333;" width="1" height="3"/>
<rect x="9" y="21.5" style="fill:#333333;" width="6" height="1"/>
</svg>






