<?xml version="1.0" encoding="iso-8859-1"?>
<svg version="1.1" id="&#x56FE;&#x5C42;_1" xmlns="http://www.w3.org/2000/svg" xmlns:xlink="http://www.w3.org/1999/xlink" x="0px"
	 y="0px" viewBox="0 0 24 24" style="enable-background:new 0 0 24 24;" xml:space="preserve">
<path style="fill:#333333;" d="M18.417,21.5H3.5v-14c0-1.408,0.444-6,6.153-6c4.724,0,5.479,1.83,5.816,3.544l0.021,0.108
	c0.146,0.732,0.308,2.393,0.421,3.696c0.715-1.236,1.82-2.729,3.041-2.845c0.976-0.097,1.771,0.212,2.261,0.859
	c0.478,0.63,0.572,1.497,0.253,2.319c-0.466,1.204-2.745,7.124-3.049,7.912V21.5z M4.5,20.5h12.917l0.033-3.68
	c0,0,2.583-6.71,3.084-8.001c0.192-0.497,0.147-1.003-0.118-1.354c-0.273-0.36-0.764-0.521-1.368-0.468
	c-1.06,0.102-2.422,2.423-3.032,3.862l-0.959-0.159c-0.003-0.042-0.306-4.148-0.547-5.353l-0.022-0.111
	C14.261,4.082,13.949,2.5,9.653,2.5C5.002,2.5,4.5,5.997,4.5,7.5V20.5z"/>
</svg>






