<?xml version="1.0" encoding="iso-8859-1"?>
<svg version="1.1" id="&#x56FE;&#x5C42;_1" xmlns="http://www.w3.org/2000/svg" xmlns:xlink="http://www.w3.org/1999/xlink" x="0px"
	 y="0px" viewBox="0 0 24 24" style="enable-background:new 0 0 24 24;" xml:space="preserve">
<g>
	<defs>
		<rect id="SVGID_1_" width="24" height="24"/>
	</defs>
	<clipPath id="SVGID_00000104708470141785164260000010026227488289065127_">
		<use xlink:href="#SVGID_1_"  style="overflow:visible;"/>
	</clipPath>
	<g style="clip-path:url(#SVGID_00000104708470141785164260000010026227488289065127_);">
		<path style="fill:#333333;" d="M9.939,16.939c-1.87,0-3.628-0.729-4.95-2.051l-2.475-2.475l0.707-0.707l2.475,2.475
			c1.133,1.134,2.64,1.758,4.243,1.758c1.603,0,3.109-0.624,4.242-1.758c1.134-1.133,1.758-2.64,1.758-4.242
			c0-1.603-0.624-3.109-1.758-4.243l-2.475-2.475l0.707-0.707l2.475,2.475c1.322,1.322,2.051,3.08,2.051,4.95
			c0,1.87-0.729,3.627-2.051,4.949S11.809,16.939,9.939,16.939z"/>
		
			<rect x="16" y="14.379" transform="matrix(0.7071 -0.7071 0.7071 0.7071 -6.8345 16.5)" style="fill:#333333;" width="1" height="4.243"/>
		<path style="fill:#333333;" d="M4.125,12.722c-0.832,0-1.552-0.25-2.075-0.772c-0.797-0.797-0.985-2.073-0.529-3.593
			c0.424-1.414,1.365-2.9,2.65-4.185l0,0c2.775-2.776,6.191-3.707,7.778-2.121c1.585,1.586,0.654,5.002-2.122,7.778
			C7.967,11.689,5.817,12.722,4.125,12.722z M4.878,4.878L4.878,4.878c-1.17,1.17-2.022,2.507-2.4,3.765
			c-0.345,1.151-0.246,2.074,0.279,2.599c1.149,1.15,4.064,0.178,6.364-2.122c2.3-2.3,3.271-5.214,2.122-6.364
			C10.094,1.609,7.178,2.579,4.878,4.878z"/>
		<path style="fill:#333333;" d="M17.572,21.873c-0.425,0-0.783-0.135-1.047-0.398c-0.425-0.424-0.513-1.093-0.25-1.883
			c0.225-0.674,0.69-1.386,1.311-2.006s1.332-1.086,2.006-1.311c0.79-0.261,1.458-0.175,1.883,0.25
			c0.807,0.806,0.351,2.478-1.061,3.889c-0.62,0.62-1.333,1.086-2.006,1.311C18.109,21.823,17.829,21.873,17.572,21.873z
			 M20.425,17.128c-0.146,0-0.324,0.032-0.517,0.097c-0.521,0.174-1.11,0.562-1.615,1.068l0,0c-0.506,0.505-0.895,1.094-1.068,1.615
			c-0.132,0.394-0.129,0.723,0.008,0.859s0.467,0.14,0.859,0.008c0.521-0.174,1.109-0.562,1.615-1.068s0.895-1.095,1.068-1.615
			c0.132-0.394,0.129-0.723-0.008-0.859C20.698,17.163,20.578,17.128,20.425,17.128z"/>
	</g>
</g>
</svg>






