<?xml version="1.0" encoding="iso-8859-1"?>
<svg version="1.1" id="&#x56FE;&#x5C42;_1" xmlns="http://www.w3.org/2000/svg" xmlns:xlink="http://www.w3.org/1999/xlink" x="0px"
	 y="0px" viewBox="0 0 24 24" style="enable-background:new 0 0 24 24;" xml:space="preserve">
<rect x="6.5" y="21.5" style="fill:#333333;" width="10" height="1"/>
<rect x="11" y="14" style="fill:#333333;" width="1" height="8"/>
<path style="fill:#333333;" d="M11.5,14.5c-2.505,0-4.745-1.399-5.844-3.652C5.221,9.958,5,8.999,5,8
	c0-1.094,0.213-2.245,0.634-3.419C6.24,2.892,7.061,1.753,7.096,1.706L7.245,1.5h8.51l0.149,0.206
	c0.039,0.054,0.961,1.333,1.571,3.194C17.823,5.963,18,7.006,18,8c0,0.889-0.183,1.755-0.542,2.575
	C16.412,12.96,14.073,14.5,11.5,14.5z M7.766,2.5c-0.247,0.382-0.777,1.268-1.19,2.419C6.194,5.984,6,7.021,6,8
	c0,0.846,0.187,1.656,0.554,2.41C7.485,12.315,9.38,13.5,11.5,13.5c2.177,0,4.155-1.306,5.042-3.326C16.846,9.481,17,8.75,17,8
	c0-0.888-0.16-1.826-0.476-2.788c-0.424-1.294-1.022-2.298-1.29-2.712H7.766z"/>
<path style="fill:#333333;" d="M14.172,9.169c-0.967,0-2.003-0.185-2.929-0.74C8.995,7.08,5.729,8.446,5.696,8.46L5.303,7.541
	c0.152-0.065,3.768-1.581,6.454,0.031c2.248,1.348,5.512-0.018,5.546-0.031l0.394,0.919C17.597,8.502,16.011,9.169,14.172,9.169z"/>
<path style="fill:#333333;" d="M17.458,10.575l-0.916-0.401C16.846,9.481,17,8.75,17,8c0-0.888-0.16-1.826-0.476-2.788L17.476,4.9
	C17.823,5.963,18,7.006,18,8C18,8.889,17.817,9.755,17.458,10.575z"/>
<path style="fill:#333333;" d="M5.656,10.848C5.221,9.958,5,8.999,5,8c0-1.095,0.213-2.245,0.634-3.419l0.941,0.338
	C6.194,5.984,6,7.021,6,8c0,0.846,0.187,1.656,0.554,2.41L5.656,10.848z"/>
</svg>






