<?xml version="1.0" encoding="iso-8859-1"?>
<svg version="1.1" id="&#x56FE;&#x5C42;_1" xmlns="http://www.w3.org/2000/svg" xmlns:xlink="http://www.w3.org/1999/xlink" x="0px"
	 y="0px" viewBox="0 0 24 24" style="enable-background:new 0 0 24 24;" xml:space="preserve">
<rect x="6.5" y="21.5" style="fill:#333333;" width="10" height="1"/>
<rect x="11" y="14" style="fill:#333333;" width="1" height="8"/>
<path style="fill:#333333;" d="M11.5,14.5C7.916,14.5,5,11.584,5,8c0-3.374,2.01-6.176,2.096-6.294L7.246,1.5h8.509l0.149,0.206
	C15.99,1.824,18,4.626,18,8C18,11.584,15.084,14.5,11.5,14.5z M7.766,2.5C7.328,3.179,6,5.448,6,8c0,3.033,2.467,5.5,5.5,5.5
	c2.981,0,5.5-2.519,5.5-5.5c0-2.561-1.327-4.823-1.766-5.5H7.766z"/>
<polygon style="fill:#333333;" points="11.974,8.658 11.026,8.342 11.855,5.854 9.855,5.354 11.026,1.842 11.974,2.158 
	11.145,4.646 13.146,5.146 "/>
<rect x="7.5" y="1.5" style="fill:#333333;" width="8" height="1"/>
</svg>






