<?xml version="1.0" encoding="iso-8859-1"?>
<svg version="1.1" id="&#x56FE;&#x5C42;_1" xmlns="http://www.w3.org/2000/svg" xmlns:xlink="http://www.w3.org/1999/xlink" x="0px"
	 y="0px" viewBox="0 0 24 24" style="enable-background:new 0 0 24 24;" xml:space="preserve">
<path style="fill:#333333;" d="M18.192,11.234C17.206,9.368,15.46,8.058,13.4,7.64l-0.581-0.118L15.158,1.5h7.562l-3.617,9.675
	L18.192,11.234z M14.173,6.798c1.766,0.496,3.295,1.577,4.352,3.069L21.279,2.5h-5.438L14.173,6.798z"/>
<path style="fill:#333333;" d="M5.807,11.233l-0.91-0.058L1.279,1.5h7.563l2.338,6.022L10.6,7.64
	C8.54,8.058,6.793,9.368,5.807,11.233z M2.721,2.5l2.755,7.368c1.057-1.492,2.585-2.574,4.352-3.069L8.158,2.5H2.721z"/>
<path style="fill:#333333;" d="M12,22.5c-4.411,0-8-3.589-8-8c0-1.301,0.319-2.592,0.923-3.734C6.05,8.635,8.046,7.138,10.4,6.66
	c1.049-0.212,2.152-0.212,3.199,0c2.354,0.479,4.351,1.975,5.478,4.106C19.681,11.908,20,13.199,20,14.5
	C20,18.911,16.411,22.5,12,22.5z M12,7.5c-0.471,0-0.942,0.047-1.401,0.14C8.54,8.058,6.793,9.368,5.807,11.233
	C5.279,12.232,5,13.361,5,14.5c0,3.859,3.14,7,7,7c3.859,0,7-3.141,7-7c0-1.139-0.279-2.268-0.808-3.266
	C17.206,9.368,15.46,8.058,13.4,7.64C12.942,7.547,12.471,7.5,12,7.5z"/>
<polygon style="fill:#333333;" points="14,18 12,18 12,17.5 12,18 10,18 10,17 11.5,17 11.5,11.694 10.658,11.974 10.342,11.026 
	12.5,10.306 12.5,17 14,17 "/>
</svg>






