<?xml version="1.0" encoding="iso-8859-1"?>
<svg version="1.1" id="&#x56FE;&#x5C42;_1" xmlns="http://www.w3.org/2000/svg" xmlns:xlink="http://www.w3.org/1999/xlink" x="0px"
	 y="0px" viewBox="0 0 24 24" style="enable-background:new 0 0 24 24;" xml:space="preserve">
<path style="fill:#333333;" d="M11,6.5C9.622,6.5,8.5,5.378,8.5,4S9.622,1.5,11,1.5c1.379,0,2.5,1.122,2.5,2.5S12.379,6.5,11,6.5z
	 M11,2.5c-0.827,0-1.5,0.673-1.5,1.5s0.673,1.5,1.5,1.5s1.5-0.673,1.5-1.5S11.827,2.5,11,2.5z"/>
<polygon style="fill:#333333;" points="6,21.5 5,21.5 5,14 8.5,14 8.5,9.5 4,9.5 4,8.5 9.5,8.5 9.5,15 6,15 "/>
<polygon style="fill:#333333;" points="19.645,21.852 12.5,14.636 12.5,8.5 18.091,8.5 18.091,9.5 13.5,9.5 13.5,14.224 
	20.355,21.148 "/>
</svg>






