<?xml version="1.0" encoding="iso-8859-1"?>
<svg version="1.1" id="&#x56FE;&#x5C42;_1" xmlns="http://www.w3.org/2000/svg" xmlns:xlink="http://www.w3.org/1999/xlink" x="0px"
	 y="0px" viewBox="0 0 24 24" style="enable-background:new 0 0 24 24;" xml:space="preserve">
<path style="fill:#333333;" d="M5,22H3.917c-0.784,0-1.427-0.589-1.495-1.37l-0.826-9.5c-0.037-0.417,0.105-0.834,0.388-1.143
	C2.268,9.677,2.671,9.5,3.091,9.5H5c0.827,0,1.5,0.673,1.5,1.5v9.5C6.5,21.327,5.827,22,5,22z M3.091,10.5
	c-0.142,0-0.273,0.058-0.369,0.162s-0.142,0.24-0.129,0.38v0l0.826,9.501C3.441,20.804,3.655,21,3.917,21H5
	c0.276,0,0.5-0.225,0.5-0.5V11c0-0.276-0.224-0.5-0.5-0.5H3.091z"/>
<path style="fill:#333333;" d="M18.493,22H10c-0.827,0-1.5-0.673-1.5-1.5v-9.813c0-0.599,0.363-1.157,0.924-1.422
	c0.744-0.351,2.077-1.081,2.647-2.032c0.764-1.274,0.904-3.681,0.924-4.15C13,2.944,13.003,2.872,13.013,2.8
	c0.057-0.41,0.318-0.702,0.7-0.779c0.882-0.178,2.346,0.924,2.966,1.96c0.375,0.625,0.534,1.457,0.472,2.472
	c-0.047,0.762-0.262,1.479-0.469,2.174l-0.26,0.865h4.757c0.475,0,0.91,0.217,1.196,0.595c0.286,0.378,0.376,0.857,0.247,1.313
	l-2.685,9.507C19.755,21.551,19.161,22,18.493,22z M13.999,3.002c-0.001,0.014-0.001,0.027-0.002,0.041
	c-0.033,0.803-0.202,3.261-1.068,4.705c-0.671,1.119-2.044,1.935-3.078,2.422C9.638,10.27,9.5,10.473,9.5,10.687V20.5
	c0,0.275,0.224,0.5,0.5,0.5h8.493c0.223,0,0.421-0.15,0.481-0.365l2.685-9.506c0.043-0.152,0.014-0.312-0.082-0.438
	c-0.095-0.126-0.24-0.198-0.398-0.198h-6.101l0.634-2.112c0.212-0.709,0.4-1.341,0.44-1.988c0.034-0.557,0.004-1.338-0.331-1.897
	C15.34,3.692,14.379,3.059,13.999,3.002z"/>
</svg>






