<?xml version="1.0" encoding="iso-8859-1"?>
<svg version="1.1" id="&#x56FE;&#x5C42;_1" xmlns="http://www.w3.org/2000/svg" xmlns:xlink="http://www.w3.org/1999/xlink" x="0px"
	 y="0px" viewBox="0 0 24 24" style="enable-background:new 0 0 24 24;" xml:space="preserve">
<path style="fill:#333333;" d="M16.993,22H4c-0.827,0-1.5-0.673-1.5-1.5v-9.906c0-0.549,0.299-1.054,0.782-1.317l3.33-1.816
	c0.996-0.543,1.813-1.355,2.364-2.346l1.329-2.392C10.552,2.277,11.022,2,11.532,2h0.12c0.68,0,1.32,0.265,1.801,0.746
	c0.504,0.503,0.812,1.171,0.871,1.879l0.046,0.551c0.09,1.069,0.013,2.141-0.229,3.185l-0.25,1.082L19.678,9.5
	c0.475,0,0.911,0.217,1.197,0.595s0.376,0.857,0.247,1.313l-2.685,9.499C18.255,21.551,17.661,22,16.993,22z M11.532,3
	c-0.147,0-0.282,0.08-0.353,0.208L9.85,5.6C9.207,6.757,8.252,7.705,7.09,8.339l-3.33,1.816C3.6,10.242,3.5,10.411,3.5,10.594V20.5
	C3.5,20.775,3.724,21,4,21h12.993c0.223,0,0.421-0.149,0.481-0.364l2.685-9.5c0.043-0.152,0.014-0.312-0.082-0.438
	c-0.095-0.126-0.241-0.199-0.399-0.199h-5.74c-0.321,0-0.62-0.144-0.819-0.396c-0.2-0.251-0.273-0.574-0.201-0.887l0.25-1.083
	c0.218-0.942,0.288-1.91,0.207-2.876l-0.046-0.551c-0.039-0.473-0.246-0.918-0.582-1.255C12.454,3.161,12.065,3,11.652,3H11.532z"/>
</svg>






