<?xml version="1.0" encoding="iso-8859-1"?>
<svg version="1.1" id="&#x56FE;&#x5C42;_1" xmlns="http://www.w3.org/2000/svg" xmlns:xlink="http://www.w3.org/1999/xlink" x="0px"
	 y="0px" viewBox="0 0 24 24" style="enable-background:new 0 0 24 24;" xml:space="preserve">
<path style="fill:#333333;" d="M15.754,22.5H9.503c-2.343,0-4.56-1.362-5.928-3.645c-1.553-2.587-1.56-6.397-0.019-9.48l0,0l0,0
	c2.102-4.204,6.431-6.023,9.592-7.352l0.906-0.384c0.805-0.349,1.329-0.005,1.571,0.229c0.777,0.758,0.805,2.507,0.341,3.665
	c-0.279,0.699-0.7,1.432-1.034,1.966h3.32c1.24,0,2.25,1.009,2.25,2.25c0,0.522-0.179,1.004-0.479,1.386
	c0.861,0.315,1.479,1.144,1.479,2.114c0,1.24-1.01,2.25-2.25,2.25h-0.13c0.24,0.357,0.38,0.788,0.38,1.25
	c0,1.121-0.824,2.054-1.898,2.223c0.251,0.363,0.398,0.804,0.398,1.277C18.003,21.49,16.994,22.5,15.754,22.5z M14.711,2.494
	c-0.066,0-0.15,0.017-0.26,0.064l-0.915,0.388c-3.186,1.339-7.15,3.004-9.085,6.877l0,0c-1.395,2.789-1.402,6.213-0.019,8.52
	C6.19,21.272,8.758,21.5,9.503,21.5h6.251c0.688,0,1.249-0.561,1.249-1.25S16.442,19,15.753,19v-1h1.5c0.689,0,1.25-0.561,1.25-1.25
	s-0.561-1.25-1.25-1.25v-1h2c0.689,0,1.25-0.561,1.25-1.25S19.942,12,19.253,12h-1v-1c0.689,0,1.25-0.561,1.25-1.25
	s-0.561-1.25-1.25-1.25h-4.25l-0.407-0.791c0.01-0.013,0.972-1.369,1.443-2.547c0.394-0.984,0.261-2.214-0.111-2.577
	C14.893,2.552,14.833,2.494,14.711,2.494z"/>
</svg>






