<?xml version="1.0" encoding="iso-8859-1"?>
<svg version="1.1" id="&#x56FE;&#x5C42;_1" xmlns="http://www.w3.org/2000/svg" xmlns:xlink="http://www.w3.org/1999/xlink" x="0px"
	 y="0px" viewBox="0 0 24 24" style="enable-background:new 0 0 24 24;" xml:space="preserve">
<g>
	<defs>
		<rect id="SVGID_1_" width="24" height="24"/>
	</defs>
	<clipPath id="SVGID_00000067200488800503560760000015092242071492135847_">
		<use xlink:href="#SVGID_1_"  style="overflow:visible;"/>
	</clipPath>
	<g style="clip-path:url(#SVGID_00000067200488800503560760000015092242071492135847_);">
		<path style="fill:#333333;" d="M17.964,21.845c-1.319,0-2.584-0.749-3.178-2.021L8.87,7.135C8.475,6.288,8.433,5.337,8.753,4.459
			s0.962-1.58,1.81-1.975s1.798-0.437,2.677-0.117c0.878,0.32,1.58,0.963,1.975,1.81l5.917,12.688
			c0.396,0.847,0.437,1.798,0.117,2.676c-0.32,0.879-0.963,1.58-1.811,1.976C18.961,21.739,18.459,21.845,17.964,21.845z
			 M12.04,3.155c-0.36,0-0.719,0.079-1.055,0.235C10.38,3.672,9.921,4.173,9.693,4.801C9.464,5.429,9.494,6.107,9.776,6.712
			l5.916,12.689c0.583,1.249,2.074,1.791,3.323,1.209c0.604-0.282,1.064-0.783,1.292-1.411c0.229-0.627,0.199-1.307-0.083-1.912
			L14.308,4.6c-0.282-0.605-0.783-1.064-1.411-1.293C12.618,3.205,12.329,3.155,12.04,3.155z"/>
		<path style="fill:#333333;" d="M6.036,21.844c-0.495,0-0.997-0.104-1.474-0.327c-1.749-0.815-2.508-2.902-1.692-4.651L8.734,4.289
			L9.64,4.711L3.776,17.287c-0.583,1.25-0.04,2.74,1.209,3.323c1.25,0.585,2.74,0.039,3.322-1.209l2.958-6.345l0.906,0.422
			l-2.958,6.345C8.62,21.096,7.354,21.844,6.036,21.844z"/>
		<path style="fill:#333333;" d="M6.036,21.844c-0.495,0-0.997-0.104-1.474-0.327c-1.749-0.815-2.508-2.902-1.693-4.651
			c0.395-0.848,1.097-1.49,1.975-1.811c0.879-0.317,1.829-0.278,2.676,0.117s1.49,1.097,1.81,1.976
			c0.319,0.878,0.278,1.829-0.117,2.676C8.62,21.096,7.354,21.844,6.036,21.844z M6.042,15.843c-0.288,0-0.577,0.051-0.856,0.152
			c-0.627,0.228-1.128,0.688-1.411,1.292c-0.583,1.25-0.04,2.74,1.209,3.323c1.25,0.585,2.74,0.039,3.322-1.209
			c0.282-0.605,0.312-1.285,0.083-1.912c-0.229-0.628-0.688-1.129-1.293-1.411l0,0C6.762,15.922,6.403,15.843,6.042,15.843z"/>
	</g>
</g>
</svg>






