<?xml version="1.0" encoding="iso-8859-1"?>
<svg version="1.1" id="&#x56FE;&#x5C42;_1" xmlns="http://www.w3.org/2000/svg" xmlns:xlink="http://www.w3.org/1999/xlink" x="0px"
	 y="0px" viewBox="0 0 24 24" style="enable-background:new 0 0 24 24;" xml:space="preserve">
<path style="fill:#333333;" d="M9.5,21H2V3h7.5V21z M3,20h5.5V4H3V20z"/>
<path style="fill:#333333;" d="M20,18h-6.5c-1.103,0-2-0.897-2-2V8c0-1.103,0.897-2,2-2H20c1.103,0,2,0.897,2,2v8
	C22,17.103,21.103,18,20,18z M13.5,7c-0.552,0-1,0.449-1,1v8c0,0.552,0.448,1,1,1H20c0.552,0,1-0.448,1-1V8c0-0.551-0.448-1-1-1
	H13.5z"/>
<path style="fill:#333333;" d="M16.75,14.5c-1.24,0-2.25-1.01-2.25-2.25c0-1.241,1.01-2.25,2.25-2.25S19,11.009,19,12.25
	C19,13.49,17.99,14.5,16.75,14.5z M16.75,11c-0.689,0-1.25,0.561-1.25,1.25s0.561,1.25,1.25,1.25S18,12.939,18,12.25
	S17.439,11,16.75,11z"/>
<rect x="9" y="11.5" style="fill:#333333;" width="3" height="1"/>
<path style="fill:#333333;" d="M5.75,7.5L5.75,7.5C6.44,7.5,7,8.06,7,8.75l0,0C7,9.44,6.44,10,5.75,10l0,0
	C5.06,10,4.5,9.44,4.5,8.75l0,0C4.5,8.06,5.06,7.5,5.75,7.5z"/>
</svg>






