<?xml version="1.0" encoding="iso-8859-1"?>
<svg version="1.1" id="&#x56FE;&#x5C42;_1" xmlns="http://www.w3.org/2000/svg" xmlns:xlink="http://www.w3.org/1999/xlink" x="0px"
	 y="0px" viewBox="0 0 24 24" style="enable-background:new 0 0 24 24;" xml:space="preserve">
<path style="fill:#333333;" d="M19.5,7.5c-1.654,0-3-1.346-3-3s1.346-3,3-3s3,1.346,3,3S21.154,7.5,19.5,7.5z M19.5,2.5
	c-1.103,0-2,0.897-2,2s0.897,2,2,2s2-0.897,2-2S20.603,2.5,19.5,2.5z"/>
<path style="fill:#333333;" d="M4.5,22.5c-1.654,0-3-1.346-3-3s1.346-3,3-3s3,1.346,3,3S6.154,22.5,4.5,22.5z M4.5,17.5
	c-1.103,0-2,0.897-2,2s0.897,2,2,2s2-0.897,2-2S5.603,17.5,4.5,17.5z"/>
<path style="fill:#333333;" d="M7.5,7.5h-6v-6h6V7.5z M2.5,6.5h4v-4h-4V6.5z"/>
<path style="fill:#333333;" d="M22.5,22.5h-6v-6h6V22.5z M17.5,21.5h4v-4h-4V21.5z"/>
<rect x="7" y="4" style="fill:#333333;" width="10" height="1"/>
<rect x="7" y="19" style="fill:#333333;" width="10" height="1"/>
<rect x="4" y="7" style="fill:#333333;" width="1" height="10"/>
<rect x="19" y="7" style="fill:#333333;" width="1" height="10"/>
</svg>






