<?xml version="1.0" encoding="iso-8859-1"?>
<svg version="1.1" id="&#x56FE;&#x5C42;_1" xmlns="http://www.w3.org/2000/svg" xmlns:xlink="http://www.w3.org/1999/xlink" x="0px"
	 y="0px" viewBox="0 0 24 24" style="enable-background:new 0 0 24 24;" xml:space="preserve">
<path style="fill:#333333;" d="M7.526,14.521C5.631,13.109,4.5,10.859,4.5,8.5C4.5,4.364,7.864,1,12,1s7.5,3.364,7.5,7.5
	c0,2.354-1.074,4.527-2.946,5.96l-0.607-0.795C17.569,12.424,18.5,10.541,18.5,8.5C18.5,4.916,15.584,2,12,2S5.5,4.916,5.5,8.5
	c0,2.075,0.956,3.977,2.624,5.218L7.526,14.521z"/>
<path style="fill:#333333;" d="M22,22.5H2l-0.402-0.798L12,7.66l10.401,14.042L22,22.5z M2.993,21.5h18.015L12,9.34L2.993,21.5z"/>
</svg>






