<?xml version="1.0" encoding="iso-8859-1"?>
<svg version="1.1" id="&#x56FE;&#x5C42;_1" xmlns="http://www.w3.org/2000/svg" xmlns:xlink="http://www.w3.org/1999/xlink" x="0px"
	 y="0px" viewBox="0 0 24 24" style="enable-background:new 0 0 24 24;" xml:space="preserve">
<path style="fill:#333333;" d="M12,22.5C6.21,22.5,1.5,17.79,1.5,12C1.5,6.21,6.21,1.5,12,1.5c5.79,0,10.5,4.71,10.5,10.5
	C22.5,17.79,17.79,22.5,12,22.5z M12,2.5c-5.238,0-9.5,4.262-9.5,9.5s4.262,9.5,9.5,9.5s9.5-4.262,9.5-9.5S17.238,2.5,12,2.5z"/>
<rect x="15" y="9" style="fill:#333333;" width="1" height="0.5"/>
<rect x="8" y="9" style="fill:#333333;" width="1" height="0.5"/>
<path style="fill:#333333;" d="M14.5,18.5h-5C8.122,18.5,7,17.379,7,16s1.122-2.5,2.5-2.5h5c1.379,0,2.5,1.121,2.5,2.5
	S15.879,18.5,14.5,18.5z M9.5,14.5C8.673,14.5,8,15.173,8,16s0.673,1.5,1.5,1.5h5c0.827,0,1.5-0.673,1.5-1.5s-0.673-1.5-1.5-1.5H9.5
	z"/>
</svg>






