<?xml version="1.0" encoding="iso-8859-1"?>
<svg version="1.1" id="&#x56FE;&#x5C42;_1" xmlns="http://www.w3.org/2000/svg" xmlns:xlink="http://www.w3.org/1999/xlink" x="0px"
	 y="0px" viewBox="0 0 24 24" style="enable-background:new 0 0 24 24;" xml:space="preserve">
<path style="fill:#333333;" d="M13.5,12.5c-1.654,0-3-1.346-3-3s1.346-3,3-3s3,1.346,3,3S15.154,12.5,13.5,12.5z M13.5,7.5
	c-1.103,0-2,0.897-2,2s0.897,2,2,2s2-0.897,2-2S14.603,7.5,13.5,7.5z"/>
<polygon style="fill:#333333;" points="4.47,22.171 3.53,21.829 5.53,16.329 6.158,16.025 10.163,17.36 11.019,14.362 
	11.981,14.638 10.981,18.138 10.342,18.475 6.304,17.128 "/>
<path style="fill:#333333;" d="M17.505,22.5h-5.29c-0.691,0-1.289-0.469-1.455-1.14l-0.747-3.248l0.975-0.225l0.745,3.24
	c0.053,0.216,0.252,0.372,0.482,0.372h5.29V22.5z"/>
<polygon style="fill:#333333;" points="11.324,14.968 3.324,11.968 3.676,11.032 9.514,13.222 6.646,10.354 6.503,10.055 
	6.003,5.555 6.997,5.445 7.478,9.771 11.854,14.146 "/>
<path style="fill:#333333;" d="M22.5,16h-1c0-12.457-6.71-13.5-13-13.5H6v-1h2.5C13.393,1.5,22.5,1.5,22.5,16z"/>
</svg>






