<?xml version="1.0" encoding="iso-8859-1"?>
<svg version="1.1" id="&#x56FE;&#x5C42;_1" xmlns="http://www.w3.org/2000/svg" xmlns:xlink="http://www.w3.org/1999/xlink" x="0px"
	 y="0px" viewBox="0 0 24 24" style="enable-background:new 0 0 24 24;" xml:space="preserve">
<path style="fill:#333333;" d="M12,11.5c-1.654,0-3-1.346-3-3s1.346-3,3-3s3,1.346,3,3S13.654,11.5,12,11.5z M12,6.5
	c-1.103,0-2,0.897-2,2s0.897,2,2,2c1.103,0,2-0.897,2-2S13.103,6.5,12,6.5z"/>
<polygon style="fill:#333333;" points="3.947,22.224 3.053,21.776 5.553,16.776 6.108,16.512 10.148,17.41 11.019,14.362 
	11.981,14.638 10.981,18.138 10.392,18.488 6.272,17.573 "/>
<polygon style="fill:#333333;" points="17,22.5 11.5,22.5 11.015,22.121 10.015,18.121 10.985,17.879 11.891,21.5 17,21.5 "/>
<polygon style="fill:#333333;" points="11.582,14.993 11.324,14.968 3.324,11.968 3.676,11.032 11.55,13.984 17.286,13.029 
	20.202,10.629 20.837,11.401 17.817,13.886 17.582,13.993 "/>
<path style="fill:#333333;" d="M21.626,7.832c-4.067-4.576-9.008-6.273-15.555-5.337l-0.142-0.99
	c6.906-0.985,12.132,0.813,16.445,5.663L21.626,7.832z"/>
</svg>






