<?xml version="1.0" encoding="iso-8859-1"?>
<svg version="1.1" id="&#x56FE;&#x5C42;_1" xmlns="http://www.w3.org/2000/svg" xmlns:xlink="http://www.w3.org/1999/xlink" x="0px"
	 y="0px" viewBox="0 0 24 24" style="enable-background:new 0 0 24 24;" xml:space="preserve">
<rect x="2.5" y="4" style="fill:#333333;" width="1" height="16"/>
<rect x="11.5" y="4" style="fill:#333333;" width="1" height="16"/>
<rect x="3.5" y="11.5" style="fill:#333333;" width="8" height="1"/>
<path style="fill:#333333;" d="M18.5,20.5c-1.46,0-2.366-0.66-2.87-1.214l0.74-0.672c0.367,0.404,1.035,0.886,2.13,0.886
	c0.602,0,2-0.195,2-2c0-2.257-2.098-2.5-3-2.5l-0.395-0.807l2.872-3.693H16v-1h5l0.395,0.807l-2.933,3.771
	C20.336,14.396,21.5,15.67,21.5,17.5C21.5,19.714,19.884,20.5,18.5,20.5z"/>
</svg>






