<?xml version="1.0" encoding="iso-8859-1"?>
<svg version="1.1" id="&#x56FE;&#x5C42;_1" xmlns="http://www.w3.org/2000/svg" xmlns:xlink="http://www.w3.org/1999/xlink" x="0px"
	 y="0px" viewBox="0 0 24 24" style="enable-background:new 0 0 24 24;" xml:space="preserve">
<path style="fill:#333333;" d="M9.033,22.5c-1.125,0-2.08-0.843-2.219-1.96l-1.187-9.494l0.992-0.124l1.187,9.494
	C7.883,21.034,8.411,21.5,9.033,21.5c0.355,0,0.693-0.152,0.927-0.418c0.235-0.266,0.344-0.62,0.3-0.972l-1.159-9.276l0.992-0.124
	l1.159,9.276c0.08,0.636-0.118,1.276-0.542,1.757C10.286,22.225,9.674,22.5,9.033,22.5z"/>
<path style="fill:#333333;" d="M6.5,11.5c-0.141,0-0.28-0.006-0.418-0.017C3.513,11.27,1.5,9.081,1.5,6.5c0-2.757,2.243-5,5-5
	l0.072,0.005L22.5,3.817v5.358l-12.823,2.09C8.314,11.422,7.253,11.5,6.5,11.5z M6.465,2.5C4.275,2.519,2.5,4.306,2.5,6.5
	c0,2.065,1.609,3.816,3.665,3.986C6.275,10.495,6.387,10.5,6.5,10.5c0.716,0,1.738-0.076,3.04-0.225L21.5,8.325V4.683L6.465,2.5z"/>
<rect x="18" y="4.1" style="fill:#333333;" width="1" height="4.8"/>
<rect x="15.758" y="8.755" transform="matrix(0.9871 -0.1601 0.1601 0.9871 -1.2381 3.1456)" style="fill:#333333;" width="6.283" height="1"/>
<rect x="17.625" y="-0.228" transform="matrix(0.1437 -0.9896 0.9896 0.1437 11.872 21.0948)" style="fill:#333333;" width="1" height="7.831"/>
<path style="fill:#333333;" d="M6.5,8.5c-1.103,0-2-0.897-2-2s0.897-2,2-2s2,0.897,2,2S7.603,8.5,6.5,8.5z M6.5,5.5
	c-0.551,0-1,0.449-1,1s0.449,1,1,1s1-0.449,1-1S7.051,5.5,6.5,5.5z"/>
</svg>






