<?xml version="1.0" encoding="iso-8859-1"?>
<svg version="1.1" id="&#x56FE;&#x5C42;_1" xmlns="http://www.w3.org/2000/svg" xmlns:xlink="http://www.w3.org/1999/xlink" x="0px"
	 y="0px" viewBox="0 0 24 24" style="enable-background:new 0 0 24 24;" xml:space="preserve">
<path style="fill:#333333;" d="M16.603,13.896c-0.208,0-0.417-0.014-0.625-0.04L5.504,12.505C5.218,12.469,5,12.222,5,11.931V6.069
	c0-0.292,0.218-0.538,0.506-0.574l10.47-1.352c1.396-0.18,2.804,0.25,3.86,1.18S21.5,7.593,21.5,9s-0.606,2.748-1.663,3.677
	C18.938,13.467,17.786,13.896,16.603,13.896z M6,11.561l10.105,1.304c1.113,0.145,2.229-0.2,3.071-0.938
	C20.018,11.187,20.5,10.12,20.5,9s-0.482-2.187-1.323-2.926s-1.952-1.084-3.072-0.938L6,6.439V11.561z M5.63,11.513l0.003,0
	C5.633,11.513,5.631,11.513,5.63,11.513z M5.636,6.487l-0.003,0C5.633,6.487,5.634,6.487,5.636,6.487z"/>
<polygon style="fill:#333333;" points="1.5,14.861 1.5,3.138 5.748,5.566 5.252,6.434 2.5,4.862 2.5,13.139 5.252,11.566 
	5.748,12.435 "/>
<path style="fill:#333333;" d="M13.317,22.5c-1.02,0-1.965-0.507-2.528-1.356c-0.563-0.849-0.664-1.916-0.269-2.855l2.519-5.982
	l0.922,0.389l-2.519,5.982c-0.27,0.639-0.204,1.336,0.18,1.914c0.384,0.578,1.002,0.909,1.695,0.909c0.82,0,1.556-0.489,1.875-1.245
	l3.347-7.949l0.922,0.389l-3.347,7.949C15.638,21.771,14.54,22.5,13.317,22.5z"/>
<path style="fill:#333333;" d="M17.5,14c-2.757,0-5-2.243-5-5s2.243-5,5-5s5,2.243,5,5S20.257,14,17.5,14z M17.5,5
	c-2.206,0-4,1.794-4,4s1.794,4,4,4s4-1.794,4-4S19.706,5,17.5,5z"/>
</svg>






