<?xml version="1.0" encoding="iso-8859-1"?>
<svg version="1.1" id="&#x56FE;&#x5C42;_1" xmlns="http://www.w3.org/2000/svg" xmlns:xlink="http://www.w3.org/1999/xlink" x="0px"
	 y="0px" viewBox="0 0 24 24" style="enable-background:new 0 0 24 24;" xml:space="preserve">
<path style="fill:#333333;" d="M10.953,16.883c-0.91,0-1.666-0.274-2.208-0.817l0.707-0.707c0.606,0.605,1.752,0.688,3.146,0.223
	c1.53-0.51,3.176-1.594,4.633-3.051c1.457-1.458,2.541-3.103,3.051-4.633c0.464-1.393,0.383-2.54-0.223-3.145l0.707-0.707
	c0.896,0.896,1.062,2.376,0.464,4.168c-0.558,1.675-1.728,3.459-3.292,5.024c-1.564,1.564-3.349,2.734-5.023,3.292
	C12.206,16.766,11.547,16.883,10.953,16.883z"/>
<rect x="13.548" y="3.191" transform="matrix(0.7074 -0.7069 0.7069 0.7074 1.5019 11.0101)" style="fill:#333333;" width="1" height="1"/>
<rect x="11.073" y="5.666" transform="matrix(0.7071 -0.7071 0.7071 0.7071 -0.9703 9.9895)" style="fill:#333333;" width="1" height="1"/>
<rect x="8.952" y="8.495" transform="matrix(0.7071 -0.7071 0.7071 0.7071 -3.5918 9.3178)" style="fill:#333333;" width="1" height="1"/>
<rect x="8.245" y="12.03" transform="matrix(0.7071 -0.7071 0.7071 0.7071 -6.299 9.8534)" style="fill:#333333;" width="1" height="1"/>
<rect x="17.438" y="2.131" transform="matrix(0.7071 -0.7071 0.7071 0.7071 3.3935 13.4543)" style="fill:#333333;" width="1" height="1"/>
<rect x="17.084" y="6.227" transform="matrix(0.7069 -0.7074 0.7074 0.7069 0.0423 14.5562)" style="fill:#333333;" width="1" height="2"/>
<rect x="14.609" y="8.701" transform="matrix(0.7069 -0.7074 0.7074 0.7069 -2.4335 13.5312)" style="fill:#333333;" width="1" height="2"/>
<rect x="11.78" y="10.823" transform="matrix(0.7072 -0.707 0.707 0.7072 -4.7634 12.1434)" style="fill:#333333;" width="1" height="2"/>
<path style="fill:#333333;" d="M5.209,21.6c-0.512,0-1.024-0.194-1.414-0.584c-0.781-0.78-0.781-2.049,0-2.829l2.829-2.828
	c0.755-0.756,2.073-0.756,2.828,0c0.78,0.78,0.78,2.049,0,2.828l-2.828,2.829C6.233,21.405,5.721,21.6,5.209,21.6z M8.038,15.772
	c-0.267,0-0.518,0.104-0.707,0.293l-2.829,2.828c-0.39,0.391-0.39,1.024,0,1.415c0.39,0.389,1.025,0.389,1.415,0l2.828-2.829
	c0.39-0.39,0.39-1.024,0-1.414l0,0C8.556,15.876,8.305,15.772,8.038,15.772z"/>
</svg>






