<?xml version="1.0" encoding="iso-8859-1"?>
<svg version="1.1" id="&#x56FE;&#x5C42;_1" xmlns="http://www.w3.org/2000/svg" xmlns:xlink="http://www.w3.org/1999/xlink" x="0px"
	 y="0px" viewBox="0 0 24 24" style="enable-background:new 0 0 24 24;" xml:space="preserve">
<g>
	<defs>
		<rect id="SVGID_1_" width="24" height="24"/>
	</defs>
	<clipPath id="SVGID_00000031886826877365491640000017092125085822248888_">
		<use xlink:href="#SVGID_1_"  style="overflow:visible;"/>
	</clipPath>
	<g style="clip-path:url(#SVGID_00000031886826877365491640000017092125085822248888_);">
		<path style="fill:#333333;" d="M2.458,18.011l-0.316-0.949c0.024-0.008,2.433-0.816,4.262-1.808
			c1.793-0.971,2.182-1.286,3.787-5.473c1.449-3.783,5.21-6.91,9.146-7.604l0.174,0.984c-3.046,0.537-6.904,3.106-8.387,6.977
			c-1.655,4.32-2.159,4.866-4.244,5.995C4.973,17.166,2.56,17.977,2.458,18.011z"/>
		<path style="fill:#333333;" d="M12.582,18.562c-0.636,0-1.313-0.239-1.967-0.698c-1.204-0.842-3.723-1.977-5.538-0.882
			l-0.516-0.857c2.109-1.271,4.888-0.298,6.627,0.921c0.516,0.36,1.012,0.546,1.475,0.515c0.419-0.023,0.763-0.224,1.023-0.597
			c0.262-0.372,0.332-0.765,0.211-1.165c-0.13-0.431-0.472-0.849-0.988-1.211c-0.095-0.065-0.217-0.143-0.355-0.229
			c-1.026-0.646-3.427-2.156-2.355-4.6l0.916,0.401c-0.67,1.527,0.606,2.493,1.971,3.352c0.155,0.098,0.291,0.184,0.397,0.257
			c0.701,0.492,1.176,1.094,1.371,1.74c0.212,0.7,0.091,1.401-0.349,2.029s-1.058,0.98-1.787,1.021
			C12.673,18.562,12.628,18.562,12.582,18.562z"/>
		<path style="fill:#333333;" d="M12.851,13.766l-0.947-0.32c1.969-5.805,4.026-7.768,9.572-9.131l0.238,0.971
			C16.813,6.49,14.846,7.885,12.851,13.766z"/>
		<path style="fill:#333333;" d="M8.927,21.338c-0.108-1.703,1.061-4.27,1.111-4.378l0.908,0.418
			c-0.448,0.975-1.09,2.817-1.021,3.896L8.927,21.338z"/>
	</g>
</g>
</svg>






