<?xml version="1.0" encoding="iso-8859-1"?>
<svg version="1.1" id="&#x56FE;&#x5C42;_1" xmlns="http://www.w3.org/2000/svg" xmlns:xlink="http://www.w3.org/1999/xlink" x="0px"
	 y="0px" viewBox="0 0 24 24" style="enable-background:new 0 0 24 24;" xml:space="preserve">
<path style="fill:#333333;" d="M12,14.5c-1.378,0-2.5-1.121-2.5-2.5c0-1.378,1.122-2.5,2.5-2.5c1.379,0,2.5,1.122,2.5,2.5
	C14.5,13.379,13.379,14.5,12,14.5z M12,10.5c-0.827,0-1.5,0.673-1.5,1.5s0.673,1.5,1.5,1.5s1.5-0.673,1.5-1.5S12.827,10.5,12,10.5z"
	/>
<path style="fill:#333333;" d="M7.375,9.021l-0.84-0.543c0.249-0.384,0.538-0.744,0.86-1.067c0.307-0.308,0.646-0.586,1.009-0.828
	l0.554,0.832C8.651,7.621,8.364,7.857,8.104,8.118C7.831,8.392,7.586,8.695,7.375,9.021z"/>
<path style="fill:#333333;" d="M5.607,13.181C5.536,12.794,5.5,12.397,5.5,12c0-0.397,0.036-0.794,0.107-1.18L6.59,11
	c-0.06,0.327-0.09,0.663-0.09,1s0.03,0.673,0.09,0.999L5.607,13.181z"/>
<path style="fill:#333333;" d="M8.405,17.416c-0.365-0.242-0.705-0.521-1.01-0.828c-0.323-0.324-0.612-0.683-0.86-1.066l0.84-0.543
	c0.21,0.325,0.455,0.629,0.729,0.904c0.259,0.26,0.546,0.495,0.855,0.701L8.405,17.416z"/>
<path style="fill:#333333;" d="M12,18.5c-0.429,0-0.859-0.042-1.278-0.126l0.195-0.98c0.709,0.141,1.458,0.14,2.165,0l0.195,0.98
	C12.86,18.458,12.43,18.5,12,18.5z"/>
<path style="fill:#333333;" d="M15.594,17.417l-0.553-0.834c0.307-0.203,0.594-0.438,0.854-0.7c0.273-0.274,0.52-0.579,0.729-0.904
	l0.84,0.543c-0.248,0.384-0.538,0.743-0.86,1.066C16.296,16.897,15.956,17.176,15.594,17.417z"/>
<path style="fill:#333333;" d="M18.394,13.18L17.409,13c0.061-0.329,0.091-0.666,0.091-1s-0.03-0.671-0.091-1l0.984-0.18
	c0.07,0.389,0.106,0.786,0.106,1.18C18.5,12.395,18.464,12.791,18.394,13.18z"/>
<path style="fill:#333333;" d="M16.625,9.022c-0.211-0.327-0.456-0.631-0.729-0.904c-0.262-0.263-0.55-0.499-0.854-0.701
	l0.553-0.833c0.361,0.239,0.7,0.518,1.01,0.828c0.322,0.323,0.612,0.682,0.861,1.066L16.625,9.022z"/>
<path style="fill:#333333;" d="M10.917,6.606l-0.195-0.98c0.837-0.167,1.722-0.167,2.555,0l-0.195,0.98
	C12.375,6.465,11.626,6.465,10.917,6.606z"/>
<path style="fill:#333333;" d="M10.821,22.435c-0.394-0.044-0.786-0.11-1.165-0.197c-0.364-0.083-0.72-0.185-1.069-0.305
	l0.325-0.945c0.315,0.108,0.638,0.2,0.967,0.275c0.344,0.079,0.696,0.138,1.053,0.178L10.821,22.435z M13.179,22.435l-0.111-0.994
	c0.357-0.04,0.708-0.099,1.053-0.178c0.329-0.075,0.652-0.167,0.967-0.275l0.326,0.945c-0.35,0.12-0.706,0.222-1.07,0.305
	C13.965,22.324,13.573,22.391,13.179,22.435z M18.222,20.459l-0.594-0.805c0.227-0.167,0.445-0.343,0.655-0.528
	c0.235-0.209,0.46-0.427,0.674-0.656l0.732,0.68c-0.235,0.255-0.483,0.496-0.744,0.726C18.714,20.079,18.472,20.274,18.222,20.459z
	 M5.778,20.459c-0.25-0.185-0.491-0.379-0.724-0.584c-0.26-0.23-0.508-0.472-0.744-0.726l0.733-0.68
	c0.213,0.23,0.438,0.448,0.673,0.656c0.21,0.185,0.429,0.361,0.655,0.528L5.778,20.459z M21.319,16.842l-0.887-0.463
	c0.138-0.265,0.265-0.537,0.377-0.816c0.103-0.255,0.196-0.517,0.277-0.783l0.957,0.289c-0.089,0.296-0.192,0.585-0.307,0.868
	C21.611,16.246,21.473,16.548,21.319,16.842z M2.68,16.841c-0.152-0.293-0.292-0.595-0.417-0.903
	c-0.114-0.282-0.217-0.572-0.307-0.867l0.956-0.293c0.082,0.268,0.174,0.528,0.278,0.784c0.113,0.28,0.239,0.553,0.377,0.818
	L2.68,16.841z M22.5,12h-1c0-0.32-0.016-0.637-0.047-0.95c-0.032-0.323-0.08-0.64-0.144-0.951l0.98-0.198
	c0.069,0.344,0.123,0.695,0.158,1.05C22.482,11.295,22.5,11.646,22.5,12z M2.5,12h-1c0-0.354,0.018-0.704,0.052-1.049
	C1.587,10.595,1.64,10.244,1.71,9.9l0.979,0.2c-0.063,0.311-0.111,0.628-0.143,0.949C2.516,11.362,2.5,11.679,2.5,12z M20.433,7.621
	c-0.124-0.237-0.256-0.468-0.398-0.692c-0.158-0.251-0.327-0.492-0.507-0.725l0.791-0.611c0.199,0.257,0.386,0.525,0.561,0.802
	c0.157,0.248,0.305,0.503,0.44,0.766L20.433,7.621z M3.567,7.621L2.68,7.16c0.137-0.263,0.284-0.518,0.441-0.766
	c0.175-0.277,0.362-0.544,0.562-0.802l0.791,0.611c-0.18,0.233-0.349,0.475-0.507,0.724C3.824,7.152,3.69,7.383,3.567,7.621z
	 M6.372,4.346L5.779,3.541c0.279-0.206,0.569-0.397,0.868-0.575C6.97,2.773,7.304,2.599,7.648,2.441l0.415,0.91
	c-0.311,0.142-0.614,0.3-0.906,0.474C6.887,3.986,6.625,4.16,6.372,4.346z M17.628,4.346c-0.252-0.186-0.515-0.36-0.786-0.521
	c-0.292-0.173-0.594-0.331-0.905-0.473l0.414-0.91c0.345,0.157,0.68,0.332,1.002,0.523c0.3,0.178,0.59,0.371,0.869,0.576
	L17.628,4.346z M10.933,2.56l-0.112-0.994c0.774-0.087,1.585-0.087,2.358,0L13.067,2.56C12.366,2.48,11.633,2.48,10.933,2.56z"/>
</svg>






