<?xml version="1.0" encoding="iso-8859-1"?>
<svg version="1.1" id="&#x56FE;&#x5C42;_1" xmlns="http://www.w3.org/2000/svg" xmlns:xlink="http://www.w3.org/1999/xlink" x="0px"
	 y="0px" viewBox="0 0 24 24" style="enable-background:new 0 0 24 24;" xml:space="preserve">
<path style="fill:#333333;" d="M22.5,11.5h-21V11c0-5.238,4.71-9.5,10.5-9.5c5.79,0,10.5,4.262,10.5,9.5V11.5z M2.516,10.5h18.967
	c-0.29-4.455-4.433-8-9.483-8S2.807,6.045,2.516,10.5z"/>
<path style="fill:#333333;" d="M22.5,22.5h-21v-4h21V22.5z M2.5,21.5h19v-2h-19V21.5z"/>
<polygon style="fill:#333333;" points="19.311,16.592 15.637,14.57 12,16.57 8.364,14.57 4.688,16.592 1.704,14.403 2.296,13.597 
	4.766,15.408 8.364,13.43 12,15.43 15.637,13.43 19.234,15.408 21.704,13.597 22.296,14.403 "/>
</svg>






