<?xml version="1.0" encoding="iso-8859-1"?>
<svg version="1.1" id="&#x56FE;&#x5C42;_1" xmlns="http://www.w3.org/2000/svg" xmlns:xlink="http://www.w3.org/1999/xlink" x="0px"
	 y="0px" viewBox="0 0 24 24" style="enable-background:new 0 0 24 24;" xml:space="preserve">
<path style="fill:#333333;" d="M7.5,12.5h-5V7c0-5.437,4.455-5.5,4.5-5.5h0.5V12.5z M3.5,11.5h3V2.56c-0.97,0.192-3,1.005-3,4.44
	V11.5z"/>
<path style="fill:#333333;" d="M21.5,8.5h-15v-4h15V8.5z M7.5,7.5h13v-2h-13V7.5z"/>
<path style="fill:#333333;" d="M16.193,22.5H5.806l1-3H2.5v-5h19V15c0,1.557-0.731,4.5-3.5,4.5h-2.807L16.193,22.5z M7.194,21.5
	h7.613l-1-3H18c1.913,0,2.362-2.029,2.468-3H3.5v3h4.694L7.194,21.5z"/>
</svg>






