<?xml version="1.0" encoding="iso-8859-1"?>
<svg version="1.1" id="&#x56FE;&#x5C42;_1" xmlns="http://www.w3.org/2000/svg" xmlns:xlink="http://www.w3.org/1999/xlink" x="0px"
	 y="0px" viewBox="0 0 24 24" style="enable-background:new 0 0 24 24;" xml:space="preserve">
<path style="fill:#333333;" d="M6,22.5H1.5v-11H6V22.5z M2.5,21.5H5v-9H2.5V21.5z"/>
<path style="fill:#333333;" d="M18,9.812c-1.09,0-2.032-0.619-2.46-1.616c-0.847-1.977,1.776-5.163,2.078-5.52L18,2.226l0.382,0.451
	c0.302,0.356,2.925,3.543,2.078,5.52C20.032,9.193,19.09,9.812,18,9.812z M18,3.803c-0.921,1.227-1.94,3.066-1.54,4
	c0.318,0.744,1.005,1.009,1.54,1.009s1.222-0.265,1.54-1.009C19.94,6.87,18.921,5.03,18,3.803z"/>
<path style="fill:#333333;" d="M15.5,21.75c-2.748,0-5.109-0.454-7.006-0.819C7.291,20.7,6.252,20.5,5.5,20.5H5v-6h0.5
	c2.056,0,2.665-0.427,3.436-0.967c0.474-0.332,1.011-0.709,1.906-1.008c1.552-0.518,2.967-0.406,3.787,0.294
	c0.513,0.438,0.73,1.064,0.614,1.763c-0.147,0.888-0.896,1.726-1.609,2.343c1.581-0.176,2.118-0.654,2.943-1.389
	c0.318-0.284,0.672-0.598,1.123-0.937c1.31-0.982,2.76-1.271,3.785-0.76c0.645,0.322,1.015,0.928,1.015,1.66
	C22.5,17.222,20.348,21.75,15.5,21.75z M6,19.521c0.758,0.059,1.664,0.232,2.683,0.429c1.855,0.356,4.165,0.801,6.817,0.801
	c4.195,0,6-3.984,6-5.25c0-0.354-0.155-0.612-0.462-0.766c-0.552-0.275-1.613-0.178-2.738,0.666
	c-0.425,0.318-0.757,0.615-1.058,0.882C16.081,17.316,15.313,18,12,18l-0.257-0.929c0.64-0.385,2.34-1.613,2.514-2.653
	c0.059-0.354-0.031-0.628-0.277-0.838c-0.534-0.457-1.644-0.499-2.821-0.105c-0.757,0.252-1.19,0.556-1.648,0.877
	c-0.78,0.547-1.52,1.066-3.51,1.14V19.521z"/>
</svg>






