<?xml version="1.0" encoding="iso-8859-1"?>
<svg version="1.1" id="&#x56FE;&#x5C42;_1" xmlns="http://www.w3.org/2000/svg" xmlns:xlink="http://www.w3.org/1999/xlink" x="0px"
	 y="0px" viewBox="0 0 24 24" style="enable-background:new 0 0 24 24;" xml:space="preserve">
<path style="fill:#333333;" d="M14.008,22.5H8.25c-2.653,0-5.246-3.796-5.246-6c0-1.522,0.506-2.641,1.504-3.322l0.564,0.826
	c-0.719,0.491-1.069,1.308-1.069,2.496c0,1.738,2.249,5,4.246,5h5.757c1.957,0,3.04-1.756,3.04-2.97V12.3
	c0-0.619-0.504-1.125-1.123-1.126c-0.002,0-0.003,0-0.004,0c-0.297,0-0.576,0.115-0.787,0.325c-0.212,0.21-0.328,0.491-0.329,0.789
	l-1,0.055c0.001-0.622,0.223-1.153,0.624-1.552c0.399-0.397,0.929-0.616,1.491-0.616c0.003,0,0.005,0,0.008,0
	c1.169,0.003,2.12,0.957,2.12,2.126v6.23C18.048,20.447,16.425,22.5,14.008,22.5z"/>
<path style="fill:#333333;" d="M5.991,14.723h-1V3.831c0-1.163,0.946-2.108,2.108-2.108c1.163,0,2.109,0.946,2.109,2.108v7.993h-1
	V3.831c0-0.611-0.498-1.108-1.109-1.108S5.991,3.22,5.991,3.831V14.723z"/>
<path style="fill:#333333;" d="M12.012,12.214h-1v-2.31c0-0.498-0.405-0.902-0.902-0.902c-0.498,0-0.902,0.405-0.902,0.902V12h-1
	V9.904c0-1.049,0.854-1.902,1.902-1.902s1.902,0.854,1.902,1.902V12.214z"/>
<path style="fill:#333333;" d="M14.805,12.502h-1v-1.598c0-0.498-0.405-0.902-0.902-0.902S12,10.406,12,10.904v1.425h-1v-1.425
	c0-1.049,0.854-1.902,1.902-1.902s1.902,0.854,1.902,1.902V12.502z"/>
<rect x="5.5" y="3.5" style="fill:#333333;" width="15" height="1"/>
<polygon style="fill:#333333;" points="18.335,6.622 17.665,5.878 19.753,4 17.665,2.122 18.335,1.378 21.247,4 "/>
</svg>






