<?xml version="1.0" encoding="iso-8859-1"?>
<svg version="1.1" id="&#x56FE;&#x5C42;_1" xmlns="http://www.w3.org/2000/svg" xmlns:xlink="http://www.w3.org/1999/xlink" x="0px"
	 y="0px" viewBox="0 0 24 24" style="enable-background:new 0 0 24 24;" xml:space="preserve">
<path style="fill:#333333;" d="M12,22.5C6.21,22.5,1.5,17.79,1.5,12C1.5,6.21,6.21,1.5,12,1.5c5.79,0,10.5,4.71,10.5,10.5
	C22.5,17.79,17.79,22.5,12,22.5z M12,2.5c-5.238,0-9.5,4.262-9.5,9.5s4.262,9.5,9.5,9.5s9.5-4.262,9.5-9.5S17.238,2.5,12,2.5z"/>
<path style="fill:#333333;" d="M12.396,12H8.5V6h3.896C14.107,6,15.5,7.346,15.5,9S14.107,12,12.396,12z M9.5,11h2.896
	c1.16,0,2.104-0.897,2.104-2s-0.944-2-2.104-2H9.5V11z"/>
<path style="fill:#333333;" d="M13.415,18H8.5v-7h4.915c1.701,0,3.085,1.57,3.085,3.5S15.116,18,13.415,18z M9.5,17h3.915
	c1.149,0,2.085-1.121,2.085-2.5S14.564,12,13.415,12H9.5V17z"/>
</svg>






