<?xml version="1.0" encoding="iso-8859-1"?>
<svg version="1.1" id="&#x56FE;&#x5C42;_1" xmlns="http://www.w3.org/2000/svg" xmlns:xlink="http://www.w3.org/1999/xlink" x="0px"
	 y="0px" viewBox="0 0 24 24" style="enable-background:new 0 0 24 24;" xml:space="preserve">
<path style="fill:#333333;" d="M18,8.5H6.5V7c0-1.93,1.57-3.5,3.5-3.5h4.5C16.43,3.5,18,5.07,18,7V8.5z M7.5,7.5H17V7
	c0-1.378-1.121-2.5-2.5-2.5H10C8.622,4.5,7.5,5.622,7.5,7V7.5z"/>
<path style="fill:#333333;" d="M21,20.5H3c-0.827,0-1.5-0.673-1.5-1.5v-7.141l10.378,2.595c0.079,0.021,0.163,0.021,0.242,0
	l10.38-2.595V19C22.5,19.827,21.827,20.5,21,20.5z M2.5,13.141V19c0,0.275,0.224,0.5,0.5,0.5h18c0.275,0,0.5-0.225,0.5-0.5v-5.859
	l-9.137,2.284c-0.237,0.059-0.49,0.059-0.728,0L2.5,13.141z"/>
<path style="fill:#333333;" d="M22.5,13.5h-1V9c0-0.276-0.225-0.5-0.5-0.5H3C2.724,8.5,2.5,8.724,2.5,9v4.5h-1V9
	c0-0.827,0.673-1.5,1.5-1.5h18c0.827,0,1.5,0.673,1.5,1.5V13.5z"/>
<path style="fill:#333333;" d="M13.25,11.5c0,0.69-0.56,1.25-1.25,1.25s-1.25-0.56-1.25-1.25s0.56-1.25,1.25-1.25
	S13.25,10.81,13.25,11.5z"/>
</svg>






