<?xml version="1.0" encoding="iso-8859-1"?>
<svg version="1.1" id="&#x56FE;&#x5C42;_1" xmlns="http://www.w3.org/2000/svg" xmlns:xlink="http://www.w3.org/1999/xlink" x="0px"
	 y="0px" viewBox="0 0 24 24" style="enable-background:new 0 0 24 24;" xml:space="preserve">
<polygon style="fill:#333333;" points="21.5,22.5 2.5,22.5 2.5,9 3.5,9 3.5,21.5 20.5,21.5 20.5,9 21.5,9 "/>
<path style="fill:#333333;" d="M21.5,9.5h-19v-8h19V9.5z M3.5,8.5h17v-6h-17V8.5z"/>
<rect x="7.5" y="13.5" style="fill:#333333;" width="1" height="4"/>
<rect x="6" y="15" style="fill:#333333;" width="4" height="1"/>
<path style="fill:#333333;" d="M16,18c-1.379,0-2.5-1.121-2.5-2.5S14.621,13,16,13s2.5,1.121,2.5,2.5S17.379,18,16,18z M16,14
	c-0.827,0-1.5,0.673-1.5,1.5S15.173,17,16,17s1.5-0.673,1.5-1.5S16.827,14,16,14z"/>
</svg>






