<?xml version="1.0" encoding="iso-8859-1"?>
<svg version="1.1" id="&#x56FE;&#x5C42;_1" xmlns="http://www.w3.org/2000/svg" xmlns:xlink="http://www.w3.org/1999/xlink" x="0px"
	 y="0px" viewBox="0 0 24 24" style="enable-background:new 0 0 24 24;" xml:space="preserve">
<path style="fill:#333333;" d="M21,22.5H9v-4h12V22.5z M10,21.5h10v-2H10V21.5z"/>
<path style="fill:#333333;" d="M21,19.5H9.28l-0.148-0.162c-3.306-3.613-5.146-5.644-5.624-6.207
	c-0.471-0.554-0.604-1.167-0.367-1.681c0.201-0.434,0.734-0.952,2.135-0.952c1.173,0,2.017,0.852,2.762,1.604
	c0.337,0.341,0.663,0.67,0.967,0.863c0.002-1.068,0.003-3.675-0.003-9.462C9.001,2.399,9.897,1.501,11,1.5
	c1.105,0,2.004,0.898,2.004,2.002v3.575c3.757,0.57,5.751,0.877,6.091,0.938C19.802,8.142,21,8.816,21,10.534V19.5z M9.72,18.5H20
	v-7.966C20,9.231,19.028,9.02,18.918,9c-0.339-0.061-2.521-0.396-6.489-0.999l-0.425-0.064V3.502c0-0.552-0.45-1.002-1.002-1.002
	c-0.552,0-1.001,0.45-1,1.001c0.011,10.371,0.011,10.371-0.191,10.531l-0.136,0.108H9.5c-0.85,0-1.522-0.679-2.172-1.335
	c-0.637-0.643-1.295-1.308-2.051-1.308c-0.779,0-1.148,0.2-1.228,0.372c-0.065,0.141,0.02,0.376,0.221,0.614
	C4.733,13.03,6.517,14.998,9.72,18.5z"/>
</svg>






