<?xml version="1.0" encoding="iso-8859-1"?>
<svg version="1.1" id="&#x56FE;&#x5C42;_1" xmlns="http://www.w3.org/2000/svg" xmlns:xlink="http://www.w3.org/1999/xlink" x="0px"
	 y="0px" viewBox="0 0 24 24" style="enable-background:new 0 0 24 24;" xml:space="preserve">
<path style="fill:#333333;" d="M22.5,21h-4V9h4V21z M19.5,20h2V10h-2V20z"/>
<path style="fill:#333333;" d="M19.5,21h-9.466c-1.718,0-2.392-1.199-2.519-1.908c-0.061-0.342-0.368-2.335-0.937-6.088H3.502
	c-1.104,0-2.002-0.898-2.002-2.002c0-0.536,0.209-1.038,0.587-1.416C2.465,9.209,2.967,9.002,3.5,9.002c0.001,0,0.002,0,0.002,0
	c5.015,0.004,8.186,0.007,9.468,0.003c-0.192-0.309-0.522-0.642-0.864-0.986c-0.748-0.753-1.595-1.607-1.595-2.779
	c0-1.404,0.518-1.938,0.953-2.138c0.514-0.237,1.127-0.104,1.682,0.368c0.577,0.491,2.603,2.344,6.194,5.664l0.16,0.148V21z
	 M3.5,10.002c-0.267,0-0.518,0.104-0.706,0.292C2.604,10.483,2.5,10.734,2.5,11.001c0,0.553,0.45,1.003,1.002,1.003h3.937
	l0.064,0.425c0.601,3.964,0.936,6.146,0.997,6.487C8.52,19.026,8.731,20,10.034,20H18.5V9.719c-3.434-3.174-5.453-5.02-6.003-5.488
	c-0.237-0.202-0.473-0.289-0.614-0.222c-0.172,0.079-0.372,0.449-0.372,1.23c0,0.76,0.664,1.429,1.305,2.075
	c0.652,0.657,1.327,1.337,1.327,2.186v0.19l-0.127,0.142c-0.159,0.18-0.162,0.18-10.515,0.169C3.501,10.002,3.5,10.002,3.5,10.002z"
	/>
</svg>






