<?xml version="1.0" encoding="iso-8859-1"?>
<svg version="1.1" id="&#x56FE;&#x5C42;_1" xmlns="http://www.w3.org/2000/svg" xmlns:xlink="http://www.w3.org/1999/xlink" x="0px"
	 y="0px" viewBox="0 0 24 24" style="enable-background:new 0 0 24 24;" xml:space="preserve">
<rect x="11.5" y="2" style="fill:#333333;" width="1" height="3.5"/>
<polygon style="fill:#333333;" points="15,8.5 14,8.5 14,6 10,6 10,8.5 9,8.5 9,5 15,5 "/>
<path style="fill:#333333;" d="M8,4H7c0-1.542,1.111-2.5,2.9-2.5h5.6v1H9.9C9.19,2.5,8,2.695,8,4z"/>
<path style="fill:#333333;" d="M12,22.5H9.5c-2.757,0-5-2.243-5-5V13c0-2.757,2.243-5,5-5h5c2.757,0,5,2.243,5,5v0.488h-1V13
	c0-2.206-1.794-4-4-4h-5c-2.206,0-4,1.794-4,4v4.5c0,2.206,1.794,4,4,4H12V22.5z"/>
<path style="fill:#333333;" d="M17.75,22.5c-1.517,0-2.75-1.173-2.75-2.615C15,18.634,16.541,16,17.75,16s2.75,2.634,2.75,3.885
	C20.5,21.327,19.267,22.5,17.75,22.5z M17.743,17C17.296,17.062,16,18.91,16,19.885c0,0.891,0.785,1.615,1.75,1.615
	s1.75-0.725,1.75-1.615C19.5,18.91,18.204,17.062,17.743,17z"/>
</svg>






