<?xml version="1.0" encoding="iso-8859-1"?>
<svg version="1.1" id="&#x56FE;&#x5C42;_1" xmlns="http://www.w3.org/2000/svg" xmlns:xlink="http://www.w3.org/1999/xlink" x="0px"
	 y="0px" viewBox="0 0 24 24" style="enable-background:new 0 0 24 24;" xml:space="preserve">
<path style="fill:#333333;" d="M21,20.5H9v-1h12c0.275,0,0.5-0.225,0.5-0.5V6c0-0.276-0.225-0.5-0.5-0.5H9v-1h12
	c0.827,0,1.5,0.673,1.5,1.5v13C22.5,19.827,21.827,20.5,21,20.5z"/>
<path style="fill:#333333;" d="M9.5,20.5H3c-0.827,0-1.5-0.673-1.5-1.5V6c0-0.827,0.673-1.5,1.5-1.5h6.5V20.5z M3,5.5
	C2.724,5.5,2.5,5.724,2.5,6v13c0,0.275,0.224,0.5,0.5,0.5h5.5v-14H3z"/>
<rect x="5" y="8.5" style="fill:#333333;" width="1" height="2"/>
<rect x="10.298" y="11.75" transform="matrix(0.5766 -0.817 0.817 0.5766 -3.4459 17.8504)" style="fill:#333333;" width="10.404" height="1"/>
<path style="fill:#333333;" d="M5.5,12.5L5.5,12.5c0.552,0,1,0.448,1,1l0,0c0,0.552-0.448,1-1,1l0,0c-0.552,0-1-0.448-1-1l0,0
	C4.5,12.948,4.948,12.5,5.5,12.5z"/>
<path style="fill:#333333;" d="M5.5,15.5L5.5,15.5c0.552,0,1,0.448,1,1l0,0c0,0.552-0.448,1-1,1l0,0c-0.552,0-1-0.448-1-1l0,0
	C4.5,15.948,4.948,15.5,5.5,15.5z"/>
</svg>






