<?xml version="1.0" encoding="iso-8859-1"?>
<svg version="1.1" id="&#x56FE;&#x5C42;_1" xmlns="http://www.w3.org/2000/svg" xmlns:xlink="http://www.w3.org/1999/xlink" x="0px"
	 y="0px" viewBox="0 0 24 24" style="enable-background:new 0 0 24 24;" xml:space="preserve">
<path style="fill:#333333;" d="M12,22.5C6.21,22.5,1.5,17.79,1.5,12C1.5,6.21,6.21,1.5,12,1.5c5.79,0,10.5,4.71,10.5,10.5
	C22.5,17.79,17.79,22.5,12,22.5z M12,2.5c-5.238,0-9.5,4.262-9.5,9.5s4.262,9.5,9.5,9.5s9.5-4.262,9.5-9.5S17.238,2.5,12,2.5z"/>
<path style="fill:#333333;" d="M15.764,12H8.143l-0.116-0.337c-0.359-1.045-0.329-2.954,1.28-3.624l0,0
	c0.636-0.265,1.324-0.415,1.931-0.548c0.999-0.218,1.653-0.386,1.653-0.73s0.187-0.62,0.485-0.72
	c0.647-0.213,1.628,0.518,2.261,1.356c1.076,1.428,1.18,3.067,0.274,4.386L15.764,12z M8.892,11h6.331
	c0.503-0.901,0.295-1.765,0.015-2.349c-0.391-0.816-1.022-1.357-1.383-1.561c-0.213,0.9-1.324,1.143-2.403,1.378
	c-0.593,0.129-1.207,0.264-1.759,0.494l0,0C8.794,9.336,8.791,10.4,8.892,11z"/>
<path style="fill:#333333;" d="M18,16H6v-5h12V16z M7,15h10v-3H7V15z"/>
</svg>






