<?xml version="1.0" encoding="iso-8859-1"?>
<svg version="1.1" id="&#x56FE;&#x5C42;_1" xmlns="http://www.w3.org/2000/svg" xmlns:xlink="http://www.w3.org/1999/xlink" x="0px"
	 y="0px" viewBox="0 0 24 24" style="enable-background:new 0 0 24 24;" xml:space="preserve">
<path style="fill:#333333;" d="M12,22.5C6.21,22.5,1.5,17.79,1.5,12C1.5,6.21,6.21,1.5,12,1.5c5.79,0,10.5,4.71,10.5,10.5
	C22.5,17.79,17.79,22.5,12,22.5z M12,2.5c-5.238,0-9.5,4.262-9.5,9.5s4.262,9.5,9.5,9.5s9.5-4.262,9.5-9.5S17.238,2.5,12,2.5z"/>
<rect x="3.458" y="10.5" transform="matrix(0.4141 -0.9102 0.9102 0.4141 -4.4465 15.0921)" style="fill:#333333;" width="12.083" height="1"/>
<rect x="9" y="12.5" style="fill:#333333;" width="6" height="1"/>
<rect x="14" y="4.958" transform="matrix(0.9104 -0.4138 0.4138 0.9104 -3.2521 6.9861)" style="fill:#333333;" width="1" height="12.083"/>
</svg>






