<?xml version="1.0" encoding="iso-8859-1"?>
<svg version="1.1" id="&#x56FE;&#x5C42;_1" xmlns="http://www.w3.org/2000/svg" xmlns:xlink="http://www.w3.org/1999/xlink" x="0px"
	 y="0px" viewBox="0 0 24 24" style="enable-background:new 0 0 24 24;" xml:space="preserve">
<path style="fill:#333333;" d="M15.026,5.5h-12v-4h12V5.5z M4.026,4.5h10v-2h-10V4.5z"/>
<path style="fill:#333333;" d="M13.027,22.5c-1.106,0-2.005-0.898-2.005-2.002v-3.575c-3.815-0.579-5.754-0.877-6.09-0.938
	c-0.708-0.127-1.906-0.801-1.906-2.52V4.5h11.72l0.149,0.163c3.244,3.544,5.136,5.632,5.623,6.206
	c0.472,0.555,0.605,1.167,0.367,1.682c-0.201,0.434-0.734,0.951-2.136,0.951c-1.173,0-2.017-0.852-2.762-1.604
	c-0.337-0.341-0.663-0.669-0.967-0.863c-0.002,1.025-0.003,3.542,0.003,9.461C15.025,21.601,14.13,22.499,13.027,22.5z M4.026,5.5
	v7.965c0,1.304,0.972,1.516,1.083,1.535c0.334,0.06,2.457,0.387,6.489,0.998l0.425,0.064v4.435c0,0.553,0.449,1.002,1.002,1.002
	c0.268,0,0.519-0.104,0.708-0.294c0.188-0.188,0.292-0.44,0.292-0.707c-0.011-10.364-0.011-10.364,0.183-10.524l0.139-0.115h0.181
	c0.85,0,1.522,0.679,2.173,1.335c0.637,0.643,1.295,1.308,2.051,1.308c0.779,0,1.148-0.2,1.229-0.371
	c0.064-0.142-0.02-0.377-0.222-0.615c-0.473-0.556-2.306-2.579-5.45-6.016H4.026z"/>
</svg>






