<?xml version="1.0" encoding="iso-8859-1"?>
<svg version="1.1" id="&#x56FE;&#x5C42;_1" xmlns="http://www.w3.org/2000/svg" xmlns:xlink="http://www.w3.org/1999/xlink" x="0px"
	 y="0px" viewBox="0 0 24 24" style="enable-background:new 0 0 24 24;" xml:space="preserve">
<path style="fill:#333333;" d="M12,22.5C6.21,22.5,1.5,17.79,1.5,12C1.5,6.21,6.21,1.5,12,1.5c5.79,0,10.5,4.71,10.5,10.5
	C22.5,17.79,17.79,22.5,12,22.5z M12,2.5c-5.238,0-9.5,4.262-9.5,9.5s4.262,9.5,9.5,9.5s9.5-4.262,9.5-9.5S17.238,2.5,12,2.5z"/>
<path style="fill:#333333;" d="M11.958,18c-2.484,0-5.197-2.056-5.439-5.496c-0.238-3.378,1.936-6.224,4.948-6.48
	c2.63-0.231,4.301,1.177,4.983,2.565l-0.898,0.44c-0.185-0.376-1.252-2.247-4-2.009c-2.502,0.213-4.237,2.54-4.036,5.414
	C7.717,15.292,9.932,17,11.958,17c2.37,0,3.568-1.878,3.618-1.958l0.851,0.524C16.365,15.666,14.898,18,11.958,18z"/>
</svg>






