<?xml version="1.0" encoding="iso-8859-1"?>
<svg version="1.1" id="&#x56FE;&#x5C42;_1" xmlns="http://www.w3.org/2000/svg" xmlns:xlink="http://www.w3.org/1999/xlink" x="0px"
	 y="0px" viewBox="0 0 24 24" style="enable-background:new 0 0 24 24;" xml:space="preserve">
<path style="fill:#333333;" d="M5.513,20.986h-4v-12h4V20.986z M2.513,19.986h2v-10h-2V19.986z"/>
<path style="fill:#333333;" d="M13.479,20.987H4.513V9.267l0.163-0.148C8.28,5.819,10.31,3.98,10.881,3.495
	c0.554-0.472,1.167-0.604,1.682-0.367c0.435,0.201,0.952,0.734,0.952,2.135c0,1.173-0.853,2.017-1.604,2.762
	c-0.341,0.337-0.669,0.663-0.863,0.966c1.286,0.004,4.453,0.002,9.461-0.003c0.001,0,0.002,0,0.003,0c1.103,0,2,0.896,2.001,1.998
	c0,1.105-0.898,2.004-2.003,2.004h-3.574c-0.399,2.633-0.861,5.659-0.938,6.09C15.871,19.789,15.197,20.987,13.479,20.987z
	 M5.513,19.987h7.966c1.275,0,1.502-0.901,1.534-1.082c0.044-0.245,0.253-1.569,0.999-6.489l0.064-0.425h4.434
	c0.553,0,1.003-0.45,1.003-1.002c0-0.267-0.104-0.519-0.294-0.708c-0.189-0.188-0.44-0.292-0.707-0.292c-0.001,0-0.001,0-0.001,0
	C10.138,10,10.14,10,9.981,9.797L9.873,9.661V9.487c0-0.85,0.679-1.522,1.335-2.172c0.643-0.637,1.308-1.296,1.308-2.052
	c0-0.779-0.2-1.148-0.372-1.228c-0.139-0.064-0.376,0.019-0.615,0.221c-0.546,0.463-2.569,2.297-6.016,5.45V19.987z"/>
</svg>






