<?xml version="1.0" encoding="iso-8859-1"?>
<svg version="1.1" id="&#x56FE;&#x5C42;_1" xmlns="http://www.w3.org/2000/svg" xmlns:xlink="http://www.w3.org/1999/xlink" x="0px"
	 y="0px" viewBox="0 0 24 24" style="enable-background:new 0 0 24 24;" xml:space="preserve">
<path style="fill:#333333;" d="M18,22.5H6v-7.691l-4.083-2.041l2.15-8.599L8.871,1.5h6.259l4.803,2.668l2.149,8.599L18,14.809V22.5z
	 M7,21.5h10v-7.309l3.918-1.959l-1.851-7.401L14.87,2.5H9.129L4.933,4.832l-1.85,7.401L7,14.191V21.5z"/>
<rect x="10" y="1.602" transform="matrix(0.8682 -0.4961 0.4961 0.8682 -0.9112 5.8189)" style="fill:#333333;" width="1" height="6.047"/>
<polygon style="fill:#333333;" points="6.898,14.802 6.102,14.198 11.602,6.948 14.565,1.752 15.435,2.248 12.435,7.498 "/>
</svg>






