<?xml version="1.0" encoding="iso-8859-1"?>
<svg version="1.1" id="&#x56FE;&#x5C42;_1" xmlns="http://www.w3.org/2000/svg" xmlns:xlink="http://www.w3.org/1999/xlink" x="0px"
	 y="0px" viewBox="0 0 24 24" style="enable-background:new 0 0 24 24;" xml:space="preserve">
<path style="fill:#333333;" d="M20.455,16.5H18.5v-1h1.955c0.576,0,1.045-0.469,1.045-1.045c0-0.398-0.222-0.756-0.578-0.935
	L12,9.059l-8.922,4.461C2.721,13.698,2.5,14.057,2.5,14.455c0,0.576,0.469,1.045,1.045,1.045H5.5v1H3.545
	c-1.127,0-2.045-0.917-2.045-2.045c0-0.779,0.433-1.48,1.13-1.829L12,7.941l9.369,4.685c0.697,0.349,1.131,1.05,1.131,1.829
	C22.5,15.583,21.583,16.5,20.455,16.5z"/>
<path style="fill:#333333;" d="M19,22.5H5v-8h14V22.5z M6,21.5h12v-6H6V21.5z"/>
<path style="fill:#333333;" d="M12.431,8.754l-0.861-0.508C12.315,6.979,13.5,4.705,13.5,4c0-0.827-0.673-1.5-1.5-1.5
	S10.5,3.173,10.5,4h-1c0-1.378,1.122-2.5,2.5-2.5c1.379,0,2.5,1.122,2.5,2.5C14.5,5.181,12.776,8.167,12.431,8.754z"/>
</svg>






