<?xml version="1.0" encoding="iso-8859-1"?>
<svg version="1.1" id="&#x56FE;&#x5C42;_1" xmlns="http://www.w3.org/2000/svg" xmlns:xlink="http://www.w3.org/1999/xlink" x="0px"
	 y="0px" viewBox="0 0 24 24" style="enable-background:new 0 0 24 24;" xml:space="preserve">
<path style="fill:#333333;" d="M12.001,23.027l-0.158-0.053C6.255,21.113,2.5,15.905,2.5,10.014V4.253l9.504-2.774L21.5,4.253v5.764
	c0,5.889-3.754,11.096-9.341,12.958L12.001,23.027z M3.5,5.003v5.011c0,5.404,3.409,10.188,8.501,11.958
	c5.091-1.77,8.499-6.553,8.499-11.955V5.003l-8.496-2.482L3.5,5.003z"/>
<rect x="7.922" y="11.533" transform="matrix(0.7071 -0.7071 0.7071 0.7071 -5.0166 11.9542)" style="fill:#333333;" width="8" height="1"/>
<rect x="11.422" y="8.033" transform="matrix(0.7071 -0.7071 0.7071 0.7071 -5.0166 11.9534)" style="fill:#333333;" width="1" height="8"/>
</svg>






