<?xml version="1.0" encoding="iso-8859-1"?>
<svg version="1.1" id="&#x56FE;&#x5C42;_1" xmlns="http://www.w3.org/2000/svg" xmlns:xlink="http://www.w3.org/1999/xlink" x="0px"
	 y="0px" viewBox="0 0 24 24" style="enable-background:new 0 0 24 24;" xml:space="preserve">
<path style="fill:#333333;" d="M20,16.5H4V8c0-2.481,2.019-4.5,4.5-4.5h7C17.981,3.5,20,5.519,20,8V16.5z M5,15.5h14V8
	c0-1.93-1.57-3.5-3.5-3.5h-7C6.57,4.5,5,6.07,5,8V15.5z"/>
<path style="fill:#333333;" d="M21,20.5H3c-0.827,0-1.5-0.673-1.5-1.5v-2c0-0.827,0.673-1.5,1.5-1.5h18c0.827,0,1.5,0.673,1.5,1.5v2
	C22.5,19.827,21.827,20.5,21,20.5z M3,16.5c-0.276,0-0.5,0.225-0.5,0.5v2c0,0.275,0.224,0.5,0.5,0.5h18c0.275,0,0.5-0.225,0.5-0.5
	v-2c0-0.275-0.225-0.5-0.5-0.5H3z"/>
<rect x="4.5" y="10.5" style="fill:#333333;" width="4" height="1"/>
<rect x="15.5" y="10.5" style="fill:#333333;" width="4" height="1"/>
</svg>






