<?xml version="1.0" encoding="iso-8859-1"?>
<svg version="1.1" id="&#x56FE;&#x5C42;_1" xmlns="http://www.w3.org/2000/svg" xmlns:xlink="http://www.w3.org/1999/xlink" x="0px"
	 y="0px" viewBox="0 0 24 24" style="enable-background:new 0 0 24 24;" xml:space="preserve">
<path style="fill:#333333;" d="M18.5,17.5h-13c-0.753,0-1.421-0.586-1.589-1.393c-0.256-1.231-1.012-1.965-1.602-2.363
	C1.802,13.4,1.5,12.869,1.5,12.323V8c0-0.827,0.673-1.5,1.5-1.5h18c0.827,0,1.5,0.673,1.5,1.5v4.323c0,0.547-0.303,1.077-0.81,1.421
	c-0.59,0.398-1.346,1.133-1.603,2.363C19.921,16.914,19.253,17.5,18.5,17.5z M3,7.5C2.724,7.5,2.5,7.724,2.5,8v4.323
	c0,0.211,0.142,0.438,0.37,0.593c0.607,0.411,1.679,1.346,2.021,2.988C4.952,16.2,5.181,16.5,5.5,16.5h13
	c0.318,0,0.548-0.3,0.609-0.596c0.341-1.642,1.412-2.577,2.021-2.988c0.229-0.154,0.37-0.382,0.37-0.593V8
	c0-0.276-0.225-0.5-0.5-0.5H3z"/>
<rect x="7" y="13.5" style="fill:#333333;" width="10" height="1"/>
<rect x="6.5" y="12.5" style="fill:#333333;" width="1" height="1.5"/>
<rect x="10" y="12.5" style="fill:#333333;" width="1" height="1.5"/>
<rect x="13" y="12.5" style="fill:#333333;" width="1" height="1.5"/>
<rect x="16.5" y="12.5" style="fill:#333333;" width="1" height="1.5"/>
<rect x="5.5" y="9.5" style="fill:#333333;" width="1" height="1"/>
<rect x="9.5" y="9.5" style="fill:#333333;" width="1" height="1"/>
<rect x="13.5" y="9.5" style="fill:#333333;" width="1" height="1"/>
<rect x="17.5" y="9.5" style="fill:#333333;" width="1" height="1"/>
</svg>






