<?xml version="1.0" encoding="iso-8859-1"?>
<svg version="1.1" id="&#x56FE;&#x5C42;_1" xmlns="http://www.w3.org/2000/svg" xmlns:xlink="http://www.w3.org/1999/xlink" x="0px"
	 y="0px" viewBox="0 0 24 24" style="enable-background:new 0 0 24 24;" xml:space="preserve">
<path style="fill:none;" d="M18,16c2.209,0,4-1.791,4-4s-1.791-4-4-4"/>
<path style="fill:#333333;" d="M18,16.5v-1c1.93,0,3.5-1.57,3.5-3.5S19.93,8.5,18,8.5v-1c2.481,0,4.5,2.019,4.5,4.5
	S20.481,16.5,18,16.5z"/>
<path style="fill:none;" d="M6,8c-2.209,0-4,1.791-4,4s1.791,4,4,4"/>
<path style="fill:#333333;" d="M6,16.5c-2.481,0-4.5-2.019-4.5-4.5S3.519,7.5,6,7.5v1c-1.93,0-3.5,1.57-3.5,3.5s1.57,3.5,3.5,3.5
	V16.5z"/>
<path style="fill:#333333;" d="M12,22.5v-1c3.032,0,5.5-2.468,5.5-5.5V8c0-3.033-2.468-5.5-5.5-5.5C8.967,2.5,6.5,4.967,6.5,8v8h-1
	V8c0-3.584,2.916-6.5,6.5-6.5s6.5,2.916,6.5,6.5v8C18.5,19.584,15.584,22.5,12,22.5z"/>
</svg>






