<?xml version="1.0" encoding="iso-8859-1"?>
<svg version="1.1" id="&#x56FE;&#x5C42;_1" xmlns="http://www.w3.org/2000/svg" xmlns:xlink="http://www.w3.org/1999/xlink" x="0px"
	 y="0px" viewBox="0 0 24 24" style="enable-background:new 0 0 24 24;" xml:space="preserve">
<path style="fill:#333333;" d="M5.816,21.811C4.344,19.952,3.5,17.652,3.5,15.5C3.5,10.813,7.313,7,12,7c4.687,0,8.5,3.813,8.5,8.5
	c0,2.15-0.844,4.451-2.316,6.311L17.4,21.189c1.334-1.686,2.1-3.76,2.1-5.689c0-4.136-3.364-7.5-7.5-7.5s-7.5,3.364-7.5,7.5
	c0,1.931,0.766,4.005,2.101,5.689L5.816,21.811z"/>
<path style="fill:#333333;" d="M17.118,9.586L16.45,6.582l4.706-4.445l0.829,0.484l-1.577,6.307L17.118,9.586z M17.55,6.918
	l0.332,1.495l1.71-0.342l1.009-4.034L17.55,6.918z"/>
<path style="fill:#333333;" d="M6.882,9.586l-3.29-0.658L2.015,2.621l0.828-0.484L7.55,6.582L6.882,9.586z M4.408,8.072l1.71,0.342
	L6.45,6.918L3.4,4.038L4.408,8.072z"/>
</svg>






