<?xml version="1.0" encoding="iso-8859-1"?>
<svg version="1.1" id="&#x56FE;&#x5C42;_1" xmlns="http://www.w3.org/2000/svg" xmlns:xlink="http://www.w3.org/1999/xlink" x="0px"
	 y="0px" viewBox="0 0 24 24" style="enable-background:new 0 0 24 24;" xml:space="preserve">
<path style="fill:#333333;" d="M9,14.5c-1.103,0-2-0.897-2-2v-5h4v5C11,13.603,10.103,14.5,9,14.5z M8,8.5v4c0,0.552,0.449,1,1,1
	s1-0.448,1-1v-4H8z"/>
<polygon style="fill:#333333;" points="9.5,19.5 6,19.5 6,18.5 8.5,18.5 8.5,14 9.5,14 "/>
<path style="fill:#333333;" d="M11,8.5H5.5C4.088,8.5,2,7.388,2,5c0-2.191,1.652-3.5,3.25-3.5H11V8.5z M5.25,2.5
	C4.38,2.5,3,3.179,3,5c0,1.706,1.492,2.5,2.5,2.5H10v-5H5.25z"/>
<path style="fill:#333333;" d="M18.5,11.5H13v-7h5.75C20.348,4.5,22,5.809,22,8C22,10.388,19.911,11.5,18.5,11.5z M14,10.5h4.5
	c1.008,0,2.5-0.794,2.5-2.5c0-1.821-1.38-2.5-2.25-2.5H14V10.5z"/>
<path style="fill:#333333;" d="M15,17.5c-1.103,0-2-0.897-2-2v-5h4v5C17,16.603,16.103,17.5,15,17.5z M14,11.5v4
	c0,0.552,0.448,1,1,1s1-0.448,1-1v-4H14z"/>
<polygon style="fill:#333333;" points="18,22.5 14.5,22.5 14.5,17 15.5,17 15.5,21.5 18,21.5 "/>
</svg>






