<?xml version="1.0" encoding="iso-8859-1"?>
<svg version="1.1" id="&#x56FE;&#x5C42;_1" xmlns="http://www.w3.org/2000/svg" xmlns:xlink="http://www.w3.org/1999/xlink" x="0px"
	 y="0px" viewBox="0 0 24 24" style="enable-background:new 0 0 24 24;" xml:space="preserve">
<path style="fill:none;" d="M2,14c0-0.552,0.448-1,1-1h2v6H3c-0.552,0-1-0.448-1-1V14z"/>
<path style="fill:none;" d="M19,13h2c0.552,0,1,0.448,1,1v4c0,0.552-0.448,1-1,1h-2V13z"/>
<path style="fill:#333333;" d="M21,19.5h-2.5V12c0-3.584-2.916-6.5-6.5-6.5S5.5,8.416,5.5,12v7.5H3c-0.827,0-1.5-0.673-1.5-1.5v-4
	c0-0.827,0.673-1.5,1.5-1.5h1.5V12c0-4.136,3.364-7.5,7.5-7.5s7.5,3.364,7.5,7.5v0.5H21c0.827,0,1.5,0.673,1.5,1.5v4
	C22.5,18.827,21.827,19.5,21,19.5z M19.5,18.5H21c0.275,0,0.5-0.225,0.5-0.5v-4c0-0.275-0.225-0.5-0.5-0.5h-1.5V18.5z M3,13.5
	c-0.276,0-0.5,0.225-0.5,0.5v4c0,0.275,0.224,0.5,0.5,0.5h1.5v-5H3z"/>
<polygon style="fill:#333333;" points="13.475,19.158 12.525,19.158 11,14.581 10.36,16.5 8,16.5 8,15.5 9.64,15.5 10.526,12.842 
	11.474,12.842 13,17.419 13.64,15.5 16,15.5 16,16.5 14.36,16.5 "/>
</svg>






