<?xml version="1.0" encoding="iso-8859-1"?>
<svg version="1.1" id="&#x56FE;&#x5C42;_1" xmlns="http://www.w3.org/2000/svg" xmlns:xlink="http://www.w3.org/1999/xlink" x="0px"
	 y="0px" viewBox="0 0 24 24" style="enable-background:new 0 0 24 24;" xml:space="preserve">
<path style="fill:#333333;" d="M21.5,15h-1v-2.77c0-4.814-3.813-8.73-8.5-8.73c-4.687,0-8.5,3.917-8.5,8.73V15h-1v-2.77
	C2.5,6.865,6.762,2.5,12,2.5s9.5,4.365,9.5,9.73V15z"/>
<path style="fill:#333333;" d="M21.5,21.5H19c-1.379,0-2.5-1.121-2.5-2.5v-3c0-1.379,1.121-2.5,2.5-2.5h2.5V21.5z M19,14.5
	c-0.827,0-1.5,0.673-1.5,1.5v3c0,0.827,0.673,1.5,1.5,1.5h1.5v-6H19z"/>
<path style="fill:#333333;" d="M21,16h1c0.552,0,1,0.448,1,1v1c0,0.552-0.448,1-1,1h-1V16z"/>
<path style="fill:#333333;" d="M3,16H2c-0.552,0-1,0.448-1,1v1c0,0.552,0.448,1,1,1h1V16z"/>
<path style="fill:#333333;" d="M5,21.5H2.5v-8H5c1.378,0,2.5,1.121,2.5,2.5v3C7.5,20.379,6.378,21.5,5,21.5z M3.5,20.5H5
	c0.827,0,1.5-0.673,1.5-1.5v-3c0-0.827-0.673-1.5-1.5-1.5H3.5V20.5z"/>
</svg>






