<?xml version="1.0" encoding="iso-8859-1"?>
<svg version="1.1" id="&#x56FE;&#x5C42;_1" xmlns="http://www.w3.org/2000/svg" xmlns:xlink="http://www.w3.org/1999/xlink" x="0px"
	 y="0px" viewBox="0 0 24 24" style="enable-background:new 0 0 24 24;" xml:space="preserve">
<path style="fill:#333333;" d="M16.731,22.5H7.268L4.5,19.229V8.737L7.27,5.5h9.46l2.77,3.237v10.493L16.731,22.5z M7.732,21.5
	h8.537l2.231-2.638V9.106L16.27,6.5H7.73L5.5,9.106v9.756L7.732,21.5z"/>
<rect x="9.5" y="9.5" style="fill:#333333;" width="5" height="1"/>
<path style="fill:#333333;" d="M17,6h-1V3.5c0-0.551-0.448-1-1-1H9c-0.551,0-1,0.449-1,1V6H7V3.5c0-1.103,0.897-2,2-2h6
	c1.103,0,2,0.897,2,2V6z"/>
<path style="fill:#333333;" d="M12,19c-1.654,0-3-1.346-3-3s1.346-3,3-3s3,1.346,3,3S13.654,19,12,19z M12,14c-1.103,0-2,0.897-2,2
	s0.897,2,2,2c1.103,0,2-0.897,2-2S13.103,14,12,14z"/>
</svg>






