<?xml version="1.0" encoding="iso-8859-1"?>
<svg version="1.1" id="&#x56FE;&#x5C42;_1" xmlns="http://www.w3.org/2000/svg" xmlns:xlink="http://www.w3.org/1999/xlink" x="0px"
	 y="0px" viewBox="0 0 24 24" style="enable-background:new 0 0 24 24;" xml:space="preserve">
<path style="fill:#333333;" d="M19.5,21.5h-15c-1.103,0-2-0.897-2-2v-15c0-1.103,0.897-2,2-2h15c1.103,0,2,0.897,2,2v15
	C21.5,20.603,20.603,21.5,19.5,21.5z M4.5,3.5c-0.551,0-1,0.449-1,1v15c0,0.552,0.449,1,1,1h15c0.552,0,1-0.448,1-1v-15
	c0-0.551-0.448-1-1-1H4.5z"/>
<path style="fill:#333333;" d="M15,11.525l-0.153-0.05C13.646,11.088,11.5,9.462,11.5,7.602c0-1.159,0.965-2.102,2.15-2.102
	c0.496,0,0.972,0.168,1.35,0.466C15.378,5.668,15.854,5.5,16.35,5.5c1.186,0,2.15,0.943,2.15,2.102c0,1.86-2.146,3.486-3.347,3.874
	L15,11.525z M13.65,6.5c-0.635,0-1.15,0.494-1.15,1.102c0,1.264,1.568,2.491,2.5,2.866c0.932-0.375,2.5-1.602,2.5-2.866
	c0-0.608-0.516-1.102-1.15-1.102c-0.376,0-0.729,0.177-0.945,0.475L15,7.532l-0.404-0.557C14.38,6.677,14.026,6.5,13.65,6.5z"/>
</svg>






