<?xml version="1.0" encoding="iso-8859-1"?>
<svg version="1.1" id="&#x56FE;&#x5C42;_1" xmlns="http://www.w3.org/2000/svg" xmlns:xlink="http://www.w3.org/1999/xlink" x="0px"
	 y="0px" viewBox="0 0 24 24" style="enable-background:new 0 0 24 24;" xml:space="preserve">
<path style="fill:#333333;" d="M7.5,21.5h-3c-1.103,0-2-0.897-2-2v-3h1v3c0,0.552,0.449,1,1,1h3V21.5z"/>
<path style="fill:#333333;" d="M19.5,21.5h-3v-1h3c0.552,0,1-0.448,1-1v-3h1v3C21.5,20.603,20.603,21.5,19.5,21.5z"/>
<path style="fill:#333333;" d="M21.5,7.5h-1v-3c0-0.551-0.448-1-1-1h-3v-1h3c1.103,0,2,0.897,2,2V7.5z"/>
<path style="fill:#333333;" d="M3.5,7.5h-1v-3c0-1.103,0.897-2,2-2h3v1h-3c-0.551,0-1,0.449-1,1V7.5z"/>
<path style="fill:#333333;" d="M12,17.707l-5.354-5.354C5.983,11.69,5.685,10.42,6.6,9.2c0.878-1.17,2.666-1.29,3.677-0.616
	c0.215,0.144,0.393,0.287,0.557,0.42C11.229,9.324,11.445,9.5,12,9.5s0.771-0.176,1.166-0.496c0.164-0.133,0.341-0.276,0.557-0.42
	c1.012-0.675,2.8-0.555,3.678,0.616c0.914,1.22,0.617,2.49-0.047,3.153L12,17.707z M8.789,9.172C8.284,9.172,7.737,9.35,7.4,9.8
	c-0.557,0.743-0.415,1.479-0.046,1.847L12,16.293l4.646-4.646c0.368-0.368,0.511-1.104-0.047-1.847
	c-0.58-0.774-1.781-0.744-2.322-0.384c-0.187,0.125-0.339,0.249-0.481,0.365C13.36,10.134,12.909,10.5,12,10.5
	c-0.91,0-1.36-0.366-1.796-0.719c-0.142-0.116-0.295-0.24-0.481-0.365C9.496,9.265,9.153,9.172,8.789,9.172z"/>
</svg>






