<?xml version="1.0" encoding="iso-8859-1"?>
<svg version="1.1" id="&#x56FE;&#x5C42;_1" xmlns="http://www.w3.org/2000/svg" xmlns:xlink="http://www.w3.org/1999/xlink" x="0px"
	 y="0px" viewBox="0 0 24 24" style="enable-background:new 0 0 24 24;" xml:space="preserve">
<path style="fill:#333333;" d="M10.501,23.001c-2.916,0-5.143-2.285-6.62-6.791c-0.943-2.879-0.623-6.203,0.699-7.259
	C5.14,8.503,6.285,8.004,7.658,9.694l-0.775,0.631c-0.953-1.172-1.443-0.78-1.678-0.593c-0.877,0.701-1.231,3.547-0.373,6.167
	c1.327,4.049,3.234,6.102,5.669,6.102c2.402,0,3.374-1.948,4.402-4.011c0.313-0.628,0.608-1.222,0.949-1.758
	c1.39-2.195,2.052-4.169,0.764-6.662l0.889-0.459c1.595,3.087,0.555,5.504-0.808,7.656c-0.313,0.493-0.598,1.064-0.899,1.668
	C14.731,20.576,13.521,23.001,10.501,23.001z"/>
<path style="fill:#333333;" d="M5.082,9.293c-0.85-1.295-1.516-2.299-1.997-3.014c-0.462-0.685-0.267-1.573,0.473-2.16
	C4.213,3.6,5.215,3.441,5.867,4.144C6.456,4.78,7.246,5.725,8.216,6.953L7.431,7.572C6.478,6.365,5.705,5.44,5.133,4.824
	C4.85,4.516,4.385,4.74,4.179,4.903C4.125,4.946,3.655,5.335,3.915,5.721c0.483,0.716,1.15,1.725,2.003,3.023L5.082,9.293z"/>
<path style="fill:#333333;" d="M7.013,12.86C6.759,9.68,6.981,7.636,7.692,6.612c0.932-1.341,2.685-2.111,4.81-2.111
	c1.13,0,2.167,0.479,3.083,1.423l-0.717,0.696c-0.731-0.753-1.505-1.119-2.366-1.119c-0.848,0-2.935,0.164-3.988,1.681
	C8.125,7.743,7.722,9.169,8.01,12.78L7.013,12.86z"/>
<path style="fill:#333333;" d="M12.354,14.428c-0.801,0-1.739-0.594-2.035-0.854c-0.191-0.168-0.639-0.635-0.664-1.341
	c-0.013-0.359,0.087-0.903,0.638-1.461c0.561-0.569,0.557-0.659,0.537-1.162c-0.005-0.12-0.01-0.253-0.01-0.408
	c0-1.403,5.294-4.304,7.768-4.553c0.933-0.049,2.048,0.315,2.394,1.519c0.186,0.644,0.112,1.267-0.204,1.757
	C20.526,8.312,20,8.805,18.912,8.96c-1.359,0.195-2.389,0.889-3.134,1.473c-0.709,0.554-2.083,2.373-2.331,3.21
	c-0.11,0.37-0.368,0.632-0.726,0.735C12.604,14.412,12.48,14.428,12.354,14.428z M18.783,5.643c-0.044,0-0.083,0.001-0.117,0.003
	c-2.5,0.253-6.618,2.928-6.853,3.607c0.006,0.088,0.011,0.208,0.016,0.316c0.03,0.729-0.037,1.106-0.824,1.904
	c-0.241,0.245-0.359,0.488-0.351,0.723c0.012,0.326,0.251,0.561,0.325,0.625c0.329,0.289,1.155,0.685,1.466,0.596
	c0.361-1.128,1.843-3.088,2.718-3.772c0.843-0.66,2.015-1.447,3.608-1.675c0.566-0.081,0.97-0.284,1.166-0.588
	c0.202-0.312,0.156-0.681,0.083-0.937l0,0C19.818,5.747,19.157,5.643,18.783,5.643z"/>
<rect x="11.004" y="2" style="fill:#333333;" width="1" height="2.631"/>
<path style="fill:#333333;" d="M9.762,5.67c-1.782-2.24-2.819-2.868-3.375-3l0.231-0.973c1.046,0.249,2.33,1.345,3.925,3.35
	L9.762,5.67z"/>
<rect x="7.703" y="1.998" transform="matrix(0.2363 -0.9717 0.9717 0.2363 4.2547 10.4092)" style="fill:#333333;" width="2.093" height="1"/>
<path style="fill:#333333;" d="M18.48,8.812C17.895,8.2,17.519,7.63,17.332,7.07c-0.192-0.58-0.194-1.202-0.006-1.852l0.961,0.28
	c-0.134,0.457-0.136,0.867-0.006,1.255c0.137,0.411,0.446,0.87,0.922,1.365L18.48,8.812z"/>
</svg>






