<?xml version="1.0" encoding="iso-8859-1"?>
<svg version="1.1" id="&#x56FE;&#x5C42;_1" xmlns="http://www.w3.org/2000/svg" xmlns:xlink="http://www.w3.org/1999/xlink" x="0px"
	 y="0px" viewBox="0 0 24 24" style="enable-background:new 0 0 24 24;" xml:space="preserve">
<path style="fill:#333333;" d="M12,21.189l-0.158-0.052C8.13,19.904,1.5,14.793,1.5,9c0-3.309,2.691-6,6-6
	c1.729,0,3.368,0.749,4.5,2.031C13.133,3.749,14.771,3,16.5,3c3.309,0,6,2.691,6,6c0,0.892-0.162,1.811-0.48,2.732l-0.945-0.327
	C21.356,10.589,21.5,9.78,21.5,9c0-2.757-2.243-5-5-5c-1.625,0-3.154,0.794-4.091,2.125L12,6.706l-0.409-0.581
	C10.655,4.794,9.125,4,7.5,4c-2.757,0-5,2.243-5,5c0,5.158,6.095,9.92,9.5,11.134c1.076-0.384,2.394-1.119,3.644-2.037l0.592,0.807
	c-1.413,1.037-2.861,1.831-4.078,2.234L12,21.189z"/>
<polygon style="fill:#333333;" points="18.901,16.798 18.032,16.676 16.853,13.53 15.75,15 13.5,15 13.5,14 15.25,14 16.6,12.2 
	17.468,12.324 18.646,15.464 19.729,14 22,14 22,15 20.233,15 "/>
</svg>






