<?xml version="1.0" encoding="iso-8859-1"?>
<svg version="1.1" id="&#x56FE;&#x5C42;_1" xmlns="http://www.w3.org/2000/svg" xmlns:xlink="http://www.w3.org/1999/xlink" x="0px"
	 y="0px" viewBox="0 0 24 24" style="enable-background:new 0 0 24 24;" xml:space="preserve">
<path style="fill:#333333;" d="M12,13.53l-0.167-0.059C9.56,12.665,5.5,9.32,5.5,5.525C5.5,2.929,6.625,1.5,8.667,1.5
	c1.144,0,2.543,1.197,3.333,2.124C12.791,2.697,14.19,1.5,15.333,1.5c1.953,0,3.167,1.542,3.167,4.025
	c0,3.794-4.06,7.14-6.333,7.947L12,13.53z M8.667,2.5C8.131,2.5,6.5,2.5,6.5,5.525c0,3.188,3.489,6.135,5.5,6.941
	c2.011-0.806,5.5-3.753,5.5-6.941c0-0.709-0.156-3.025-2.167-3.025c-0.842,0-2.326,1.326-2.916,2.22L12,5.353L11.583,4.72
	C10.993,3.826,9.509,2.5,8.667,2.5z"/>
<path style="fill:#333333;" d="M9.067,22.495l-0.135-0.99C11.38,21.17,14,20.284,14,19.5c0-0.484-1.176-0.778-2.121-1.015
	C10.529,18.147,9,17.766,9,16.5c0-2.257,2.113-3.585,2.76-3.938l0.479,0.877C11.714,13.726,10,14.794,10,16.5
	c0,0.484,1.176,0.778,2.121,1.015C13.471,17.853,15,18.234,15,19.5C15,21.528,10.459,22.306,9.067,22.495z"/>
</svg>






