<?xml version="1.0" encoding="iso-8859-1"?>
<svg version="1.1" id="&#x56FE;&#x5C42;_1" xmlns="http://www.w3.org/2000/svg" xmlns:xlink="http://www.w3.org/1999/xlink" x="0px"
	 y="0px" viewBox="0 0 24 24" style="enable-background:new 0 0 24 24;" xml:space="preserve">
<path style="fill:#333333;" d="M9.172,19.156c-0.384,0-0.768-0.146-1.061-0.438l-2.829-2.829c-0.585-0.585-0.585-1.536,0-2.121
	l8.486-8.485c0.563-0.566,1.554-0.566,2.121,0l2.828,2.829c0.283,0.283,0.439,0.66,0.439,1.061c0,0.401-0.156,0.778-0.439,1.061
	l-8.485,8.485C9.94,19.01,9.556,19.156,9.172,19.156z M5.99,14.475c-0.195,0.195-0.195,0.512,0,0.707l2.829,2.829
	c0.195,0.195,0.512,0.195,0.707,0l8.485-8.486c0.095-0.094,0.146-0.22,0.146-0.354c0-0.133-0.052-0.259-0.146-0.354l-2.828-2.829
	c-0.189-0.188-0.518-0.188-0.707,0L5.99,14.475z"/>
<rect x="2.783" y="18.218" transform="matrix(0.7071 -0.7071 0.7071 0.7071 -11.6883 9.2176)" style="fill:#333333;" width="5" height="1"/>
<rect x="16.219" y="4.783" transform="matrix(0.7071 -0.7071 0.7071 0.7071 1.7473 14.7834)" style="fill:#333333;" width="5" height="1"/>
<rect x="9.025" y="11.475" transform="matrix(0.7071 -0.7071 0.7071 0.7071 -7.4454 10.9758)" style="fill:#333333;" width="1" height="6"/>
<rect x="11.5" y="9" transform="matrix(0.7071 -0.7071 0.7071 0.7071 -4.9704 11.999)" style="fill:#333333;" width="1" height="6"/>
<rect x="13.975" y="6.525" transform="matrix(0.7071 -0.7071 0.7071 0.7071 -2.496 13.024)" style="fill:#333333;" width="1" height="6"/>
<rect x="4.879" y="9.379" transform="matrix(0.7071 -0.7071 0.7071 0.7071 -4.0919 9.8787)" style="fill:#333333;" width="10" height="1"/>
<rect x="9.121" y="13.622" transform="matrix(0.7071 -0.7071 0.7071 0.7071 -5.8494 14.1216)" style="fill:#333333;" width="10" height="1"/>
</svg>






