<?xml version="1.0" encoding="iso-8859-1"?>
<svg version="1.1" id="&#x56FE;&#x5C42;_1" xmlns="http://www.w3.org/2000/svg" xmlns:xlink="http://www.w3.org/1999/xlink" x="0px"
	 y="0px" viewBox="0 0 24 24" style="enable-background:new 0 0 24 24;" xml:space="preserve">
<path style="fill:#333333;" d="M19.061,17H7.5v-1h11.561c0.068,0,0.131-0.013,0.181-0.038c1.393-0.701,2.259-2.121,2.259-3.705
	c0-2.276-1.815-4.128-4.046-4.128c-0.642,0-1.256,0.149-1.824,0.442l-0.554,0.285l-0.159-0.601c-0.742-2.8-3.25-4.755-6.099-4.755
	C5.334,3.5,2.5,6.39,2.5,9.942h-1C1.5,5.839,4.783,2.5,8.818,2.5c3.109,0,5.867,2.005,6.895,4.943
	c0.556-0.207,1.147-0.314,1.741-0.314c2.782,0,5.046,2.301,5.046,5.128c0,1.965-1.077,3.727-2.811,4.599
	C19.501,16.95,19.283,17,19.061,17z"/>
<path style="fill:#333333;" d="M7.5,21H6c-1.378,0-2.5-1.121-2.5-2.5S4.622,16,6,16h1.5v1H6c-0.827,0-1.5,0.673-1.5,1.5
	S5.173,20,6,20h1.5V21z"/>
<path style="fill:#333333;" d="M11,13.5H9.5C8.122,13.5,7,12.379,7,11c0-1.378,1.122-2.5,2.5-2.5H11v1H9.5C8.673,9.5,8,10.173,8,11
	s0.673,1.5,1.5,1.5H11V13.5z"/>
<rect x="9.5" y="12.5" style="fill:#333333;" width="6.5" height="1"/>
</svg>






