<?xml version="1.0" encoding="iso-8859-1"?>
<svg version="1.1" id="&#x56FE;&#x5C42;_1" xmlns="http://www.w3.org/2000/svg" xmlns:xlink="http://www.w3.org/1999/xlink" x="0px"
	 y="0px" viewBox="0 0 24 24" style="enable-background:new 0 0 24 24;" xml:space="preserve">
<path style="fill:#333333;" d="M12.479,13.581L5.681,7.383l1.614-3.315l3.935-0.921l6.145,4.868l1.357,4.371L12.479,13.581z
	 M6.908,7.148l5.875,5.356l4.662-0.891l-0.934-3.007l-5.523-4.375L7.986,4.934L6.908,7.148z"/>
<rect x="9.942" y="3.212" transform="matrix(0.6506 -0.7594 0.7594 0.6506 -1.5923 10.3402)" style="fill:#333333;" width="1" height="7.378"/>
<polygon style="fill:#333333;" points="13.126,13.119 12.138,12.967 12.802,8.646 16.844,7.821 17.043,8.801 13.685,9.487 "/>
<polygon style="fill:#333333;" points="7.638,20.73 1.412,14.63 2.918,10.885 5.901,10.19 6.127,11.164 3.652,11.74 2.588,14.384 
	7.962,19.648 12.99,18.669 12.021,15.665 12.972,15.358 14.289,19.435 "/>
<rect x="5.463" y="10.159" transform="matrix(0.6871 -0.7265 0.7265 0.6871 -8.1935 8.6647)" style="fill:#333333;" width="1" height="7.373"/>
<polygon style="fill:#333333;" points="8.287,20.051 7.315,19.814 8.337,15.62 12.423,15.026 12.567,16.017 9.149,16.513 "/>
<path style="fill:#333333;" d="M16.42,19.023l0.57-4.631l4.001-0.889l1.258,4.382L16.42,19.023z M17.896,15.215l-0.316,2.562
	l3.407-0.665l-0.697-2.429L17.896,15.215z"/>
</svg>






