<?xml version="1.0" encoding="iso-8859-1"?>
<svg version="1.1" id="&#x56FE;&#x5C42;_1" xmlns="http://www.w3.org/2000/svg" xmlns:xlink="http://www.w3.org/1999/xlink" x="0px"
	 y="0px" viewBox="0 0 24 24" style="enable-background:new 0 0 24 24;" xml:space="preserve">
<path style="fill:#333333;" d="M15.505,20c-2.206,0-4-1.794-4-4L11.5,12.5H2L1.5,12C1.5,6.21,6.21,1.5,12,1.5
	c5.79,0,10.5,4.71,10.5,10.5c0,1.463-0.293,2.876-0.872,4.2l-0.458,0.3h-1.696C19.227,18.471,17.541,20,15.505,20z M2.513,11.5H12
	l0.5,0.5l0.005,4c0,1.655,1.346,3.001,3,3.001s3-1.346,3-3l0.5-0.5h1.832c0.44-1.109,0.663-2.285,0.663-3.5
	c0-5.238-4.262-9.5-9.5-9.5C6.93,2.5,2.774,6.493,2.513,11.5z"/>
<path style="fill:#333333;" d="M15.5,17c0.55,0,1-0.45,1-1c0-0.55-0.45-1-1-1c-0.55,0-1,0.45-1,1C14.5,16.55,14.95,17,15.5,17z"/>
<path style="fill:#333333;" d="M6.792,22.454c-1.875-0.861-3.036-2.511-4.158-4.105l0.258-0.837l9-2l0.217,0.977l-8.266,1.837
	c0.924,1.292,1.839,2.436,3.137,3.108l5.769-3.365l0.504,0.863l-6,3.5L6.792,22.454z"/>
</svg>






