<?xml version="1.0" encoding="iso-8859-1"?>
<svg version="1.1" id="&#x56FE;&#x5C42;_1" xmlns="http://www.w3.org/2000/svg" xmlns:xlink="http://www.w3.org/1999/xlink" x="0px"
	 y="0px" viewBox="0 0 24 24" style="enable-background:new 0 0 24 24;" xml:space="preserve">
<path style="fill:#333333;" d="M12,22.5c-2.804,0-5.441-1.092-7.425-3.075C2.592,17.441,1.5,14.805,1.5,12
	c0-2.804,1.092-5.441,3.075-7.425C6.559,2.592,9.196,1.5,12,1.5c2.805,0,5.441,1.092,7.425,3.075C21.408,6.559,22.5,9.196,22.5,12
	c0,2.805-1.092,5.441-3.075,7.425S14.805,22.5,12,22.5z M12,2.5c-2.537,0-4.923,0.988-6.718,2.782C3.488,7.077,2.5,9.463,2.5,12
	c0,2.538,0.988,4.924,2.782,6.718C7.077,20.512,9.463,21.5,12,21.5c2.538,0,4.924-0.988,6.718-2.782S21.5,14.538,21.5,12
	c0-2.537-0.988-4.923-2.782-6.718C16.924,3.488,14.538,2.5,12,2.5z"/>
<path style="fill:#333333;" d="M12.5,14.312h-1v-2.5H12c1.379,0,2.5-1.122,2.5-2.5s-1.121-2.5-2.5-2.5c-1.378,0-2.5,1.122-2.5,2.5
	h-1c0-1.93,1.57-3.5,3.5-3.5s3.5,1.57,3.5,3.5c0,1.76-1.306,3.221-3,3.465V14.312z"/>
<path style="fill-rule:evenodd;clip-rule:evenodd;fill:#333333;" d="M12,18.812c0.69,0,1.25-0.56,1.25-1.25
	c0-0.69-0.56-1.25-1.25-1.25s-1.25,0.56-1.25,1.25C10.75,18.253,11.31,18.812,12,18.812z"/>
</svg>






