<?xml version="1.0" encoding="iso-8859-1"?>
<svg version="1.1" id="&#x56FE;&#x5C42;_1" xmlns="http://www.w3.org/2000/svg" xmlns:xlink="http://www.w3.org/1999/xlink" x="0px"
	 y="0px" viewBox="0 0 24 24" style="enable-background:new 0 0 24 24;" xml:space="preserve">
<path style="fill:#333333;" d="M12,22.357c-0.25,0-0.5-0.063-0.729-0.189l-8-4.444C2.795,17.458,2.5,16.955,2.5,16.411V7.588
	c0-0.544,0.295-1.047,0.771-1.311l8-4.444c0.456-0.254,1-0.254,1.457,0l8,4.444C21.204,6.542,21.5,7.044,21.5,7.588v8.823
	c0,0.544-0.296,1.047-0.771,1.312l-8,4.445C12.5,22.294,12.25,22.357,12,22.357z M12,2.644c-0.083,0-0.167,0.021-0.243,0.063
	l-8,4.444C3.599,7.239,3.5,7.407,3.5,7.588v8.823c0,0.182,0.099,0.35,0.257,0.438l8,4.443c0.152,0.086,0.332,0.085,0.485,0.001
	l8-4.445c0.159-0.088,0.258-0.256,0.258-0.438V7.588c0-0.181-0.099-0.349-0.258-0.437l-8-4.444C12.167,2.665,12.083,2.644,12,2.644z
	"/>
</svg>






