<?xml version="1.0" encoding="iso-8859-1"?>
<svg version="1.1" id="&#x56FE;&#x5C42;_1" xmlns="http://www.w3.org/2000/svg" xmlns:xlink="http://www.w3.org/1999/xlink" x="0px"
	 y="0px" viewBox="0 0 24 24" style="enable-background:new 0 0 24 24;" xml:space="preserve">
<rect x="3.5" y="6.5" style="fill:#333333;" width="17" height="1"/>
<rect x="-0.871" y="9" transform="matrix(0.4923 -0.8704 0.8704 0.4923 -4.3345 11.5682)" style="fill:#333333;" width="17.241" height="1"/>
<rect x="15.75" y="0.879" transform="matrix(0.87 -0.493 0.493 0.87 -2.5715 9.2469)" style="fill:#333333;" width="0.999" height="17.241"/>
<rect x="3.5" y="16.5" style="fill:#333333;" width="17" height="1"/>
<rect x="7.629" y="14" transform="matrix(0.4926 -0.8703 0.8703 0.4926 -4.3732 21.4999)" style="fill:#333333;" width="17.241" height="0.999"/>
<rect x="7.25" y="5.88" transform="matrix(0.87 -0.493 0.493 0.87 -6.1415 5.7057)" style="fill:#333333;" width="1" height="17.241"/>
<path style="fill:#333333;" d="M12,22.58l-9-5.294V6.714l9-5.294l9,5.294v10.572L12,22.58z M4,16.714l8,4.706l8-4.706V7.286L12,2.58
	L4,7.286V16.714z"/>
</svg>






