<?xml version="1.0" encoding="iso-8859-1"?>
<svg version="1.1" id="&#x56FE;&#x5C42;_1" xmlns="http://www.w3.org/2000/svg" xmlns:xlink="http://www.w3.org/1999/xlink" x="0px"
	 y="0px" viewBox="0 0 24 24" style="enable-background:new 0 0 24 24;" xml:space="preserve">
<path style="fill:#333333;" d="M15,22.5H9v-5.304l-4.593,2.651l-3-5.195L6,12L1.407,9.348l3-5.196L9,6.804V1.5h6v5.304l4.593-2.652
	l3,5.196L18,12l4.593,2.652l-3,5.195L15,17.196V22.5z M10,21.5h4v-5.17l0.75-0.433l4.478,2.585l2-3.465L16,12l5.228-3.018l-2-3.464
	L14.75,8.103L14,7.67V2.5h-4v5.17L9.25,8.103L4.773,5.518l-2,3.464L8,12l-5.227,3.018l2,3.465l4.477-2.585L10,16.33V21.5z"/>
</svg>






