<?xml version="1.0" encoding="iso-8859-1"?>
<svg version="1.1" id="&#x56FE;&#x5C42;_1" xmlns="http://www.w3.org/2000/svg" xmlns:xlink="http://www.w3.org/1999/xlink" x="0px"
	 y="0px" viewBox="0 0 24 24" style="enable-background:new 0 0 24 24;" xml:space="preserve">
<path style="fill:#333333;" d="M18.5,22H8.738c-0.213,0-0.417-0.112-0.532-0.294l-4.701-7.579c-0.66-1.063-0.438-2.476,0.517-3.285
	c0.575-0.488,1.329-0.695,2.074-0.568c0.743,0.126,1.388,0.571,1.77,1.222l0.3,0.511V4.288c0-0.593,0.26-1.151,0.715-1.533
	c0.453-0.38,1.047-0.541,1.633-0.437l8.333,1.471C19.805,3.958,20.5,4.786,20.5,5.758V20C20.5,21.103,19.603,22,18.5,22z M8.945,21
	H18.5c0.552,0,1-0.448,1-1V5.758c0-0.486-0.348-0.9-0.826-0.985L10.34,3.303c-0.292-0.051-0.59,0.028-0.816,0.219
	c-0.227,0.19-0.357,0.47-0.357,0.767v9.558l-0.931,0.253l-1.231-2.098c-0.232-0.395-0.624-0.665-1.075-0.742
	c-0.453-0.078-0.911,0.049-1.26,0.345c-0.58,0.491-0.715,1.35-0.314,1.995L8.945,21z"/>
</svg>






