<?xml version="1.0" encoding="iso-8859-1"?>
<svg version="1.1" id="&#x56FE;&#x5C42;_1" xmlns="http://www.w3.org/2000/svg" xmlns:xlink="http://www.w3.org/1999/xlink" x="0px"
	 y="0px" viewBox="0 0 24 24" style="enable-background:new 0 0 24 24;" xml:space="preserve">
<path style="fill:#333333;" d="M12.783,20.5H1.5v-2.796l0.259-0.143c1.162-0.638,4.831-2.883,6.462-3.977l0.257-0.173l0.269,0.153
	c0.837,0.479,1.581,0.598,2.27,0.364c1.606-0.544,2.624-2.961,3.113-4.124l0,0c0.918-2.183,2.887-4.09,4.324-5.482
	c0.253-0.245,0.486-0.471,0.69-0.676l0.276-0.279l0.465,0.279C20.602,4.063,22.5,5.168,22.5,7.5c0,2.018-0.72,3.84-1.751,4.434
	l-2.955,2.071c-1.274,0.892-2.325,2.02-3.125,3.352L12.783,20.5z M2.5,19.5h9.717l1.595-2.657c0.872-1.454,2.019-2.685,3.408-3.657
	l2.993-2.095C20.77,10.768,21.5,9.464,21.5,7.5c0-1.595-1.223-2.453-1.922-2.874c-0.134,0.132-0.277,0.271-0.427,0.416
	c-1.376,1.333-3.26,3.158-4.099,5.152l0,0c-0.588,1.396-1.682,3.995-3.714,4.683c-0.882,0.3-1.826,0.199-2.811-0.295
	c-1.629,1.074-4.709,2.961-6.028,3.711V19.5z"/>
<rect x="21" y="10.5" style="fill:#333333;" width="1" height="9.5"/>
</svg>






