<?xml version="1.0" encoding="iso-8859-1"?>
<svg version="1.1" id="&#x56FE;&#x5C42;_1" xmlns="http://www.w3.org/2000/svg" xmlns:xlink="http://www.w3.org/1999/xlink" x="0px"
	 y="0px" viewBox="0 0 24 24" style="enable-background:new 0 0 24 24;" xml:space="preserve">
<path style="fill:#333333;" d="M15.5,19.5h-7C6.019,19.5,4,17.481,4,15v-5h1v5c0,1.93,1.57,3.5,3.5,3.5h7c1.93,0,3.5-1.57,3.5-3.5
	v-5h1v5C20,17.481,17.981,19.5,15.5,19.5z"/>
<rect x="16.5" y="19" style="fill:#333333;" width="1" height="2"/>
<rect x="6.5" y="19" style="fill:#333333;" width="1" height="2"/>
<rect x="10" y="21.5" style="fill:#333333;" width="4" height="1"/>
<path style="fill:#333333;" d="M20,10.5H4V8.181C4,6.254,7.188,1.5,12,1.5s8,4.754,8,6.681V10.5z M5,9.5h14V8.181
	C19,6.765,16.173,2.5,12,2.5c-4.173,0-7,4.265-7,5.681V9.5z"/>
<g>
	<path style="fill:#333333;" d="M10.25,16c0,0.414-0.336,0.75-0.75,0.75S8.75,16.414,8.75,16s0.336-0.75,0.75-0.75
		S10.25,15.586,10.25,16z"/>
	<path style="fill:#333333;" d="M9.5,17c-0.551,0-1-0.448-1-1s0.449-1,1-1s1,0.448,1,1S10.051,17,9.5,17z M9.5,15.5
		C9.224,15.5,9,15.725,9,16s0.224,0.5,0.5,0.5S10,16.275,10,16S9.776,15.5,9.5,15.5z"/>
</g>
<g>
	<path style="fill:#333333;" d="M15.25,16c0,0.414-0.336,0.75-0.75,0.75s-0.75-0.336-0.75-0.75s0.336-0.75,0.75-0.75
		S15.25,15.586,15.25,16z"/>
	<path style="fill:#333333;" d="M14.5,17c-0.552,0-1-0.448-1-1s0.448-1,1-1s1,0.448,1,1S15.052,17,14.5,17z M14.5,15.5
		c-0.275,0-0.5,0.225-0.5,0.5s0.225,0.5,0.5,0.5S15,16.275,15,16S14.775,15.5,14.5,15.5z"/>
</g>
<rect x="11" y="5" style="fill:#333333;" width="2" height="1"/>
</svg>






