<?xml version="1.0" encoding="iso-8859-1"?>
<svg version="1.1" id="&#x56FE;&#x5C42;_1" xmlns="http://www.w3.org/2000/svg" xmlns:xlink="http://www.w3.org/1999/xlink" x="0px"
	 y="0px" viewBox="0 0 24 24" style="enable-background:new 0 0 24 24;" xml:space="preserve">
<path style="fill:#333333;" d="M17.5,22h-11C4.57,22,3,20.43,3,18.5v-3C3,13.57,4.57,12,6.5,12h11c1.93,0,3.5,1.57,3.5,3.5v3
	C21,20.43,19.43,22,17.5,22z M6.5,13C5.122,13,4,14.121,4,15.5v3C4,19.879,5.122,21,6.5,21h11c1.379,0,2.5-1.121,2.5-2.5v-3
	c0-1.379-1.121-2.5-2.5-2.5H6.5z"/>
<path style="fill:#333333;" d="M8.5,19c-1.103,0-2-0.897-2-2s0.897-2,2-2s2,0.897,2,2S9.603,19,8.5,19z M8.5,16
	c-0.551,0-1,0.448-1,1s0.449,1,1,1s1-0.448,1-1S9.051,16,8.5,16z"/>
<path style="fill:#333333;" d="M15.5,19c-1.103,0-2-0.897-2-2s0.897-2,2-2s2,0.897,2,2S16.603,19,15.5,19z M15.5,16
	c-0.552,0-1,0.448-1,1s0.448,1,1,1s1-0.448,1-1S16.052,16,15.5,16z"/>
<path style="fill:#333333;" d="M19,13H5V9.5C5,7.57,6.57,6,8.5,6h7C17.43,6,19,7.57,19,9.5V13z M6,12h12V9.5
	C18,8.122,16.879,7,15.5,7h-7C7.122,7,6,8.122,6,9.5V12z"/>
<circle style="fill:#333333;" cx="10" cy="9.5" r="1"/>
<circle style="fill:#333333;" cx="14" cy="9.5" r="1"/>
<path style="fill:#333333;" d="M11,7H7V4c0-1.103,0.897-2,2-2s2,0.897,2,2V7z M8,6h2V4c0-0.551-0.449-1-1-1S8,3.449,8,4V6z"/>
<path style="fill:#333333;" d="M17,7h-4V4c0-1.103,0.897-2,2-2s2,0.897,2,2V7z M14,6h2V4c0-0.551-0.448-1-1-1s-1,0.449-1,1V6z"/>
</svg>






