<?xml version="1.0" encoding="iso-8859-1"?>
<svg version="1.1" id="&#x56FE;&#x5C42;_1" xmlns="http://www.w3.org/2000/svg" xmlns:xlink="http://www.w3.org/1999/xlink" x="0px"
	 y="0px" viewBox="0 0 24 24" style="enable-background:new 0 0 24 24;" xml:space="preserve">
<polygon style="fill:#333333;" points="6.545,7.5 2.409,7.5 2.409,3.364 3.409,3.364 3.409,6.5 6.545,6.5 "/>
<path style="fill:#333333;" d="M12,22.5C6.21,22.5,1.5,17.79,1.5,12h1c0,5.238,4.262,9.5,9.5,9.5s9.5-4.262,9.5-9.5
	S17.238,2.5,12,2.5c-3.381,0-6.534,1.82-8.229,4.75L2.906,6.749C4.779,3.511,8.264,1.5,12,1.5c5.79,0,10.5,4.71,10.5,10.5
	C22.5,17.79,17.79,22.5,12,22.5z"/>
<polygon style="fill:#333333;" points="15.888,16.598 11.502,12.212 11.503,6 12.503,6 12.502,11.798 16.595,15.891 "/>
</svg>






