<?xml version="1.0" encoding="iso-8859-1"?>
<svg version="1.1" id="&#x56FE;&#x5C42;_1" xmlns="http://www.w3.org/2000/svg" xmlns:xlink="http://www.w3.org/1999/xlink" x="0px"
	 y="0px" viewBox="0 0 24 24" style="enable-background:new 0 0 24 24;" xml:space="preserve">
<path style="fill:#333333;" d="M12,21.5H4.5c-1.103,0-2-0.897-2-2v-15c0-1.103,0.897-2,2-2h15c1.103,0,2,0.897,2,2V12h-1V4.5
	c0-0.551-0.448-1-1-1h-15c-0.551,0-1,0.449-1,1v15c0,0.552,0.449,1,1,1H12V21.5z"/>
<path style="fill:#333333;" d="M16,19.5c-1.93,0-3.5-1.57-3.5-3.5s1.57-3.5,3.5-3.5s3.5,1.57,3.5,3.5S17.93,19.5,16,19.5z M16,13.5
	c-1.379,0-2.5,1.121-2.5,2.5s1.121,2.5,2.5,2.5s2.5-1.121,2.5-2.5S17.379,13.5,16,13.5z"/>
<rect x="19.25" y="17.399" transform="matrix(0.6247 -0.7809 0.7809 0.6247 -7.4242 22.553)" style="fill:#333333;" width="1" height="3.202"/>
<rect x="7" y="7.5" style="fill:#333333;" width="10" height="1"/>
<rect x="7" y="11.5" style="fill:#333333;" width="4" height="1"/>
</svg>






