<?xml version="1.0" encoding="iso-8859-1"?>
<svg version="1.1" id="&#x56FE;&#x5C42;_1" xmlns="http://www.w3.org/2000/svg" xmlns:xlink="http://www.w3.org/1999/xlink" x="0px"
	 y="0px" viewBox="0 0 24 24" style="enable-background:new 0 0 24 24;" xml:space="preserve">
<path style="fill:#333333;" d="M6.001,22.272c-0.881,0-1.74-0.335-2.387-0.938C2.906,20.676,2.5,19.743,2.5,18.775V18
	c0-1.103,0.897-2,2-2h9.635c0.238,0,0.44-0.165,0.492-0.4l2.884-13.703L18,1.5h3l0.489,0.603l-3.535,16.781
	c-0.318,1.52-1.623,2.659-3.173,2.771L6.25,22.264C6.167,22.27,6.084,22.272,6.001,22.272z M4.5,17c-0.551,0-1,0.448-1,1v0.775
	c0,0.701,0.283,1.351,0.795,1.827c0.514,0.478,1.183,0.719,1.884,0.663l8.531-0.609c1.106-0.079,2.038-0.893,2.266-1.979L20.384,2.5
	h-1.979l-2.801,13.308C15.452,16.511,14.849,17,14.135,17H4.5z"/>
<path style="fill:#333333;" d="M7.5,8.5C5.264,8.5,3,7.813,3,6.5c0-2.626,9-2.626,9,0C12,7.813,9.736,8.5,7.5,8.5z M7.5,5.5
	C5.227,5.5,4,6.21,4,6.5s1.227,1,3.5,1s3.5-0.71,3.5-1S9.773,5.5,7.5,5.5z"/>
<path style="fill:#333333;" d="M7.5,11.5c-2.236,0-4.5-0.687-4.5-2v-3h1v3c0,0.29,1.227,1,3.5,1s3.5-0.71,3.5-1v-3h1v3
	C12,10.813,9.736,11.5,7.5,11.5z"/>
</svg>






