<?xml version="1.0" encoding="iso-8859-1"?>
<svg version="1.1" id="&#x56FE;&#x5C42;_1" xmlns="http://www.w3.org/2000/svg" xmlns:xlink="http://www.w3.org/1999/xlink" x="0px"
	 y="0px" viewBox="0 0 24 24" style="enable-background:new 0 0 24 24;" xml:space="preserve">
<path style="fill:#333333;" d="M14,18c-1.733,0-3.135-0.473-4.372-0.89C8.656,16.783,7.817,16.5,7,16.5H2v-1h5
	c0.981,0,1.936,0.322,2.947,0.663C11.168,16.574,12.431,17,14,17c2.604,0,5.813-2.521,7.146-3.854
	c0.553-0.553,0.64-0.979,0.594-1.088C21.73,12.034,21.649,12,21.5,12c-0.697,0-5.406,0.892-8.402,1.49l-0.13,0.026l-3.126-1.042
	l0.316-0.949l2.874,0.958C14.242,12.242,20.523,11,21.5,11c0.562,0,0.986,0.247,1.164,0.676c0.251,0.605-0.052,1.418-0.811,2.177
	C21.685,14.022,17.665,18,14,18z"/>
<path style="fill:#333333;" d="M13.277,13.416l-0.555-0.832c0.542-0.363,1.343-1.089,1.425-1.566
	c0.015-0.09,0.001-0.153-0.048-0.218C13.507,10.009,8.933,8,7,8c-1.692,0-3.561,1.268-4.646,2.354L1.646,9.646
	C2.926,8.367,5.004,7,7,7c2.056,0,7.003,2.004,7.9,3.2c0.214,0.285,0.294,0.626,0.232,0.987
	C14.946,12.275,13.447,13.303,13.277,13.416z"/>
</svg>






