<?xml version="1.0" encoding="iso-8859-1"?>
<svg version="1.1" id="&#x56FE;&#x5C42;_1" xmlns="http://www.w3.org/2000/svg" xmlns:xlink="http://www.w3.org/1999/xlink" x="0px"
	 y="0px" viewBox="0 0 24 24" style="enable-background:new 0 0 24 24;" xml:space="preserve">
<path style="fill:#333333;" d="M15.722,11.698c-0.287,0-0.568-0.083-0.814-0.243l-4.049-2.629c-0.112-0.072-0.246-0.099-0.376-0.069
	l-1.551,0.33L8.723,8.107l1.551-0.33c0.39-0.081,0.792-0.009,1.128,0.208l4.051,2.63c0.112,0.074,0.245,0.099,0.376,0.07
	l3.508-0.746c0.13-0.027,0.242-0.104,0.314-0.216c0.073-0.112,0.098-0.246,0.069-0.376L19.409,7.88
	c-0.027-0.131-0.104-0.243-0.216-0.315c-0.111-0.072-0.243-0.098-0.376-0.07l-2.042,0.434c-0.392,0.081-0.791,0.009-1.128-0.209
	l-4.05-2.63c-0.11-0.073-0.248-0.098-0.376-0.069L2.334,6.909L2.126,5.931l8.887-1.889c0.386-0.081,0.797-0.006,1.129,0.209
	l4.05,2.63c0.111,0.073,0.246,0.098,0.375,0.07l2.042-0.434C19,6.434,19.401,6.508,19.737,6.726c0.337,0.219,0.567,0.555,0.65,0.947
	l0.312,1.467c0.083,0.392,0.009,0.792-0.209,1.128c-0.218,0.336-0.554,0.567-0.946,0.651l-3.508,0.746
	C15.932,11.687,15.826,11.698,15.722,11.698z"/>
<path style="fill:#333333;" d="M12.672,18.991c-0.287,0-0.568-0.083-0.814-0.243l-4.05-2.63c-0.11-0.071-0.248-0.095-0.377-0.069
	l-2.039,0.434c-0.394,0.084-0.793,0.01-1.129-0.209c-0.336-0.218-0.567-0.554-0.65-0.946L3.3,13.859
	c-0.083-0.392-0.009-0.793,0.21-1.129c0.218-0.336,0.555-0.566,0.946-0.649l3.507-0.746c0.392-0.082,0.792-0.009,1.129,0.209
	l4.049,2.63c0.112,0.072,0.247,0.099,0.378,0.069l1.549-0.33l0.209,0.979l-1.551,0.33c-0.396,0.079-0.795,0.008-1.13-0.21
	l-4.049-2.63c-0.111-0.072-0.245-0.095-0.376-0.069L4.664,13.06c-0.131,0.027-0.243,0.104-0.315,0.216
	c-0.073,0.112-0.098,0.246-0.07,0.377l0.312,1.468c0.027,0.13,0.104,0.242,0.216,0.314c0.112,0.073,0.247,0.099,0.376,0.069
	l2.041-0.434c0.387-0.082,0.799-0.005,1.129,0.21l4.05,2.63c0.111,0.072,0.245,0.099,0.376,0.069l8.888-1.889l0.207,0.979
	l-8.888,1.889C12.881,18.979,12.776,18.991,12.672,18.991z"/>
</svg>






