<?xml version="1.0" encoding="iso-8859-1"?>
<svg version="1.1" id="&#x56FE;&#x5C42;_1" xmlns="http://www.w3.org/2000/svg" xmlns:xlink="http://www.w3.org/1999/xlink" x="0px"
	 y="0px" viewBox="0 0 24 24" style="enable-background:new 0 0 24 24;" xml:space="preserve">
<path style="fill:#333333;" d="M14,22.5c-1.733,0-3.135-0.473-4.372-0.89C8.656,21.283,7.817,21,7,21H2v-1h5
	c0.981,0,1.936,0.322,2.947,0.663C11.168,21.074,12.431,21.5,14,21.5c2.604,0,5.813-2.521,7.146-3.854
	c0.553-0.553,0.64-0.979,0.594-1.088c-0.01-0.024-0.091-0.059-0.24-0.059c-0.697,0-5.406,0.892-8.402,1.49l-0.13,0.026l-3.126-1.042
	l0.316-0.949l2.874,0.958c1.21-0.241,7.491-1.483,8.468-1.483c0.562,0,0.986,0.246,1.164,0.676c0.251,0.605-0.052,1.419-0.811,2.178
	C21.685,18.522,17.665,22.5,14,22.5z"/>
<path style="fill:#333333;" d="M13.277,17.916l-0.555-0.832c0.542-0.363,1.343-1.089,1.425-1.566
	c0.015-0.089,0.001-0.152-0.048-0.218c-0.593-0.79-5.167-2.8-7.1-2.8c-1.692,0-3.561,1.268-4.646,2.354l-0.707-0.707
	C2.926,12.867,5.004,11.5,7,11.5c2.056,0,7.003,2.004,7.9,3.2c0.214,0.285,0.294,0.627,0.232,0.987
	C14.946,16.775,13.447,17.803,13.277,17.916z"/>
<path style="fill:#333333;" d="M19.5,11h-5c-1.103,0-2-0.897-2-2s0.897-2,2-2h5c1.103,0,2,0.897,2,2S20.603,11,19.5,11z M14.5,8
	c-0.552,0-1,0.449-1,1s0.448,1,1,1h5c0.552,0,1-0.449,1-1s-0.448-1-1-1H14.5z"/>
<rect x="13" y="4" style="fill:#333333;" width="8" height="1"/>
</svg>






