<?xml version="1.0" encoding="iso-8859-1"?>
<svg version="1.1" id="&#x56FE;&#x5C42;_1" xmlns="http://www.w3.org/2000/svg" xmlns:xlink="http://www.w3.org/1999/xlink" x="0px"
	 y="0px" viewBox="0 0 24 24" style="enable-background:new 0 0 24 24;" xml:space="preserve">
<path style="fill:#333333;" d="M19,22c-0.226,0-5.576-0.006-9.071-0.505C6.54,21.011,2.5,20.012,2.5,18
	c0-0.504,0.192-0.946,0.554-1.28c0.923-0.847,2.652-0.749,2.988-0.718c0.138-0.003,0.368,0.014,0.616,0.033
	c0.567,0.045,1.425,0.112,1.719-0.16C8.43,15.826,8.5,15.734,8.5,15.5c0-0.917-3.027-1.873-4.542-2.002l0.085-0.996
	C4.891,12.574,9.5,13.434,9.5,15.5c0,0.464-0.149,0.837-0.444,1.109c-0.615,0.568-1.646,0.486-2.476,0.423
	C6.364,17.015,6.169,16.997,6.003,17c-0.591-0.049-1.761-0.014-2.272,0.457C3.573,17.602,3.5,17.774,3.5,18
	c0,0.755,2.056,1.86,6.571,2.505C13.495,20.994,18.945,21,19,21V22z"/>
<rect x="3.379" y="8" transform="matrix(0.7071 -0.7071 0.7071 0.7071 -4.3995 6.3787)" style="fill:#333333;" width="4.243" height="1"/>
<polygon style="fill:#333333;" points="20.646,5.354 18.793,3.5 14,3.5 14,2.5 19.207,2.5 21.354,4.646 "/>
<path style="fill:#333333;" d="M18,10.5H9.793L6.646,7.354L7,6.5h8.207l3.146,3.146L18,10.5z M10.207,9.5h6.586l-2-2H8.207
	L10.207,9.5z"/>
<rect x="20.5" y="8" style="fill:#333333;" width="1" height="3"/>
<rect x="12.5" y="13" style="fill:#333333;" width="1" height="2"/>
<rect x="15.5" y="13" style="fill:#333333;" width="1" height="4"/>
</svg>






