<?xml version="1.0" encoding="iso-8859-1"?>
<svg version="1.1" id="&#x56FE;&#x5C42;_1" xmlns="http://www.w3.org/2000/svg" xmlns:xlink="http://www.w3.org/1999/xlink" x="0px"
	 y="0px" viewBox="0 0 24 24" style="enable-background:new 0 0 24 24;" xml:space="preserve">
<path style="fill:#333333;" d="M6.134,8.095c-0.553,0-1.105-0.21-1.526-0.631c-0.841-0.842-0.841-2.21,0-3.051l2.345-2.345
	c0.842-0.842,2.21-0.842,3.052,0c0.841,0.841,0.841,2.21,0,3.052L7.66,7.464C7.239,7.885,6.687,8.095,6.134,8.095z M8.479,2.437
	c-0.296,0-0.593,0.113-0.819,0.338L5.315,5.12c-0.451,0.451-0.451,1.186,0,1.637c0.438,0.438,1.2,0.438,1.638,0l2.345-2.344
	c0.452-0.452,0.452-1.186,0-1.638C9.072,2.549,8.775,2.437,8.479,2.437z"/>
<path style="fill:#333333;" d="M10.433,13.176c-0.576,0-1.118-0.225-1.525-0.632c-0.841-0.841-0.841-2.21,0-3.051l3.126-3.126
	c0.843-0.843,2.211-0.841,3.052,0c0.842,0.841,0.842,2.21,0,3.052l-3.126,3.126C11.551,12.951,11.009,13.176,10.433,13.176z
	 M12.74,7.073L9.614,10.2c-0.451,0.451-0.451,1.186,0,1.637c0.438,0.438,1.2,0.438,1.637,0l3.126-3.126
	c0.451-0.452,0.451-1.186,0-1.638C13.927,6.622,13.192,6.621,12.74,7.073L12.74,7.073z"/>
<path style="fill:#333333;" d="M19.711,19.506c-0.447,0-0.869-0.153-1.184-0.468l-6.885-6.885l0.708-0.707l6.885,6.885
	c0.312,0.312,0.95,0.202,1.396-0.242c0.23-0.23,0.381-0.523,0.413-0.805c0.017-0.141,0.016-0.404-0.171-0.591l-6.886-6.885
	l0.707-0.707l6.886,6.885c0.354,0.354,0.521,0.868,0.458,1.412c-0.06,0.509-0.308,1.006-0.7,1.397
	C20.869,19.265,20.271,19.506,19.711,19.506z"/>
<path style="fill:#333333;" d="M6.916,12.003c-0.553,0-1.105-0.21-1.526-0.631c-0.841-0.841-0.841-2.21,0-3.051l5.471-5.471
	c0.842-0.84,2.208-0.841,3.051,0c0.842,0.841,0.842,2.21,0,3.052l-5.471,5.471C8.021,11.792,7.468,12.003,6.916,12.003z
	 M11.568,3.556L6.097,9.027c-0.451,0.451-0.451,1.186,0,1.637c0.451,0.451,1.187,0.451,1.638,0l5.471-5.471
	c0.451-0.452,0.451-1.186,0-1.638C12.753,3.104,12.019,3.106,11.568,3.556L11.568,3.556z"/>
<path style="fill:#333333;" d="M8.585,22.571c-1.393,0-2.457-0.666-2.997-1.874c-0.646-1.444-0.377-3.439,0.611-4.543
	c0.817-0.912,0.902-2.403,0.252-4.43l0.952-0.306c0.767,2.389,0.612,4.208-0.459,5.404c-0.733,0.817-0.932,2.373-0.443,3.467
	c0.261,0.585,0.835,1.282,2.083,1.282c1.496,0,2.264-0.98,2.467-1.82c0.197-0.813-0.015-1.989-1.26-2.63l0.457-0.889
	c1.427,0.733,2.14,2.242,1.775,3.754C11.644,21.557,10.294,22.571,8.585,22.571z"/>
</svg>






