<?xml version="1.0" encoding="iso-8859-1"?>
<svg version="1.1" id="&#x56FE;&#x5C42;_1" xmlns="http://www.w3.org/2000/svg" xmlns:xlink="http://www.w3.org/1999/xlink" x="0px"
	 y="0px" viewBox="0 0 24 24" style="enable-background:new 0 0 24 24;" xml:space="preserve">
<path style="fill:#333333;" d="M4.238,8.433c-0.375,0-0.75-0.14-1.041-0.42l-0.36-0.347C2.242,7.092,2.225,6.141,2.799,5.545
	l2.43-2.519C5.804,2.432,6.754,2.415,7.35,2.988l0.36,0.347C8.305,3.91,8.322,4.861,7.748,5.457l-2.43,2.519
	C5.023,8.28,4.631,8.433,4.238,8.433z M3.519,6.239L3.519,6.239C3.327,6.438,3.333,6.755,3.531,6.946l0.36,0.347
	C4.09,7.486,4.407,7.479,4.599,7.281l2.43-2.519C7.22,4.564,7.214,4.247,7.016,4.055l-0.36-0.347
	c-0.096-0.092-0.209-0.15-0.356-0.14C6.166,3.57,6.042,3.625,5.949,3.721L3.519,6.239z"/>
<path style="fill:#333333;" d="M11.434,15.376c-0.375,0-0.75-0.139-1.041-0.42l-0.359-0.346c-0.595-0.575-0.612-1.526-0.039-2.121
	l2.431-2.52c0.576-0.595,1.526-0.611,2.12-0.038l0.36,0.348c0.595,0.574,0.611,1.526,0.037,2.121l-2.43,2.518
	C12.22,15.223,11.827,15.376,11.434,15.376z M10.715,13.183L10.715,13.183c-0.191,0.199-0.186,0.517,0.013,0.708l0.359,0.346
	c0.199,0.192,0.516,0.187,0.708-0.013l2.43-2.518c0.191-0.198,0.186-0.516-0.014-0.707l-0.359-0.348
	c-0.197-0.189-0.514-0.185-0.707,0.013L10.715,13.183z"/>
<path style="fill:#333333;" d="M4.995,11.248c-0.375,0-0.75-0.139-1.041-0.419l-0.36-0.347C3.306,10.204,3.143,9.83,3.136,9.429
	c-0.007-0.4,0.142-0.78,0.42-1.068l4.513-4.678c0.575-0.595,1.526-0.611,2.121-0.038l0.36,0.347
	c0.595,0.574,0.612,1.525,0.038,2.121l-4.513,4.678C5.781,11.095,5.388,11.248,4.995,11.248z M4.276,9.055L4.276,9.055
	c-0.093,0.096-0.143,0.223-0.14,0.356c0.002,0.133,0.057,0.258,0.153,0.351l0.36,0.347c0.198,0.191,0.515,0.187,0.707-0.013
	l4.513-4.678c0.093-0.096,0.143-0.223,0.14-0.356S9.952,4.805,9.856,4.712l-0.36-0.347C9.297,4.172,8.979,4.178,8.789,4.377
	L4.276,9.055z"/>
<path style="fill:#333333;" d="M8.594,14.72c-0.375,0-0.75-0.139-1.041-0.42l-0.359-0.346c-0.595-0.575-0.612-1.526-0.039-2.122
	l4.514-4.678c0.278-0.288,0.652-0.451,1.052-0.458c0.393-0.009,0.779,0.142,1.069,0.42l0.359,0.348
	c0.288,0.278,0.45,0.651,0.458,1.052c0.007,0.4-0.143,0.78-0.421,1.068l-4.513,4.678C9.38,14.566,8.987,14.72,8.594,14.72z
	 M7.875,12.526L7.875,12.526c-0.191,0.199-0.186,0.517,0.013,0.708l0.359,0.346c0.199,0.192,0.516,0.187,0.708-0.013l4.514-4.677
	c0.093-0.096,0.143-0.223,0.14-0.356c-0.002-0.134-0.057-0.258-0.152-0.351l-0.36-0.348c-0.096-0.092-0.228-0.127-0.355-0.14
	c-0.134,0.002-0.259,0.057-0.351,0.152L7.875,12.526z"/>
<path style="fill:#333333;" d="M5.406,14.423c-0.375,0-0.75-0.139-1.041-0.42l-0.359-0.346c-0.595-0.575-0.612-1.526-0.039-2.122
	l7.291-7.556c0.576-0.596,1.528-0.611,2.121-0.038l0.36,0.347c0.289,0.278,0.451,0.652,0.458,1.053
	c0.007,0.4-0.143,0.78-0.421,1.068l-7.29,7.556C6.191,14.27,5.799,14.423,5.406,14.423z M4.687,12.23
	c-0.191,0.198-0.186,0.516,0.013,0.707l0.359,0.346c0.199,0.191,0.517,0.187,0.708-0.013l7.291-7.555
	c0.093-0.096,0.143-0.223,0.141-0.356c-0.003-0.134-0.057-0.258-0.152-0.351l-0.36-0.347c-0.199-0.19-0.516-0.185-0.708,0.013
	L4.687,12.23z"/>
<path style="fill:#333333;" d="M19.718,21.869l-7.924-7.645l2.778-2.879l7.923,7.645L19.718,21.869z M13.208,14.199l6.484,6.256
	l1.389-1.439l-6.483-6.256L13.208,14.199z"/>
<path style="fill:#333333;" d="M8.5,22.5c-1.378,0-2.5-1.065-2.5-2.375c0-1.177,1.782-3.098,2.139-3.471L8.5,16.276l0.361,0.378
	C9.218,17.027,11,18.948,11,20.125C11,21.435,9.878,22.5,8.5,22.5z M8.5,17.742C7.799,18.544,7,19.644,7,20.125
	C7,20.883,7.673,21.5,8.5,21.5s1.5-0.617,1.5-1.375C10,19.644,9.201,18.544,8.5,17.742z"/>
</svg>






