<?xml version="1.0" encoding="iso-8859-1"?>
<svg version="1.1" id="&#x56FE;&#x5C42;_1" xmlns="http://www.w3.org/2000/svg" xmlns:xlink="http://www.w3.org/1999/xlink" x="0px"
	 y="0px" viewBox="0 0 24 24" style="enable-background:new 0 0 24 24;" xml:space="preserve">
<path style="fill:#333333;" d="M2.5,12.5h-1V9.149C1.5,3.931,5.976,1.5,9,1.5v1c-2.036,0-6.5,1.674-6.5,6.649V12.5z"/>
<rect x="17" y="15" style="fill:#333333;" width="1" height="7"/>
<path style="fill:#333333;" d="M19.302,16.777c-0.704,0-1.343-0.373-1.73-1.021c-1.386-2.308-4.372-2.502-5.313-2.392
	c-2.564,0.445-3.463-1.398-3.727-2.211l0.951-0.309c0.278,0.858,0.957,1.815,2.631,1.531c1.206-0.151,4.648,0.091,6.315,2.865
	c0.221,0.368,0.562,0.565,0.953,0.532c0.772-0.062,1.578-0.955,2.154-2.391l0.928,0.373c-1.002,2.494-2.312,2.959-3.003,3.014
	C19.408,16.775,19.354,16.777,19.302,16.777z"/>
<path style="fill:#333333;" d="M5.5,22h-1V8.971c0-2.556,1.349-3.363,2.074-3.797l0.16-0.097c1.891-0.947,3.428-0.327,4.003-0.016
	c0.756,0.407,1.595,1.312,1.631,1.351l1.022,1.276l-0.781,0.625l-1-1.25l0,0c-0.002,0-0.746-0.798-1.347-1.122
	c-0.438-0.235-1.609-0.708-3.04,0.006L7.087,6.032C6.417,6.433,5.5,6.982,5.5,8.971V22z"/>
<path style="fill:#333333;" d="M14,22h-1v-1.5c0-1.103-0.897-2-2-2c-1.103,0-2,0.897-2,2V22H8v-1.5c0-1.654,1.346-3,3-3s3,1.346,3,3
	V22z"/>
</svg>






