<?xml version="1.0" encoding="iso-8859-1"?>
<svg version="1.1" id="&#x56FE;&#x5C42;_1" xmlns="http://www.w3.org/2000/svg" xmlns:xlink="http://www.w3.org/1999/xlink" x="0px"
	 y="0px" viewBox="0 0 24 24" style="enable-background:new 0 0 24 24;" xml:space="preserve">
<polygon style="fill:#333333;" points="22.738,11 1.262,11 3.662,5 8,5 8,6 4.338,6 2.738,10 21.262,10 19.661,6 16,6 16,5 
	20.339,5 "/>
<path style="fill:#333333;" d="M20.5,22h-17V10h17V22z M4.5,21h15V11h-15V21z"/>
<path style="fill:#333333;" d="M16.5,11h-9V2h9V11z M8.5,10h7V3h-7V10z"/>
<path style="fill:#333333;" d="M12.5,22h-5v-8h5V22z M8.5,21h3v-6h-3V21z"/>
<path style="fill:#333333;" d="M16.5,22h-5v-8h5V22z M12.5,21h3v-6h-3V21z"/>
<rect x="10.5" y="6" style="fill:#333333;" width="3" height="1"/>
<rect x="6" y="21" style="fill:#333333;" width="12" height="1"/>
<rect x="11.5" y="5" style="fill:#333333;" width="1" height="3"/>
</svg>






