<?xml version="1.0" encoding="iso-8859-1"?>
<svg version="1.1" id="&#x56FE;&#x5C42;_1" xmlns="http://www.w3.org/2000/svg" xmlns:xlink="http://www.w3.org/1999/xlink" x="0px"
	 y="0px" viewBox="0 0 24 24" style="enable-background:new 0 0 24 24;" xml:space="preserve">
<path style="fill:#333333;" d="M19,22.5H5v-9.707l7-7l7,7V22.5z M6,21.5h12v-8.293l-6-6l-6,6V21.5z"/>
<path style="fill:#333333;" d="M1.793,10.793c-0.391,0.391-0.391,1.024,0,1.414c0.391,0.391,1.024,0.391,1.414,0L1.793,10.793z
	 M12,2l0.707-0.707C12.52,1.105,12.265,1,12,1s-0.52,0.105-0.707,0.293L12,2z M20.793,12.207c0.39,0.391,1.024,0.391,1.414,0
	c0.391-0.391,0.391-1.024,0-1.414L20.793,12.207z M3.207,12.207l9.5-9.5l-1.414-1.414l-9.5,9.5L3.207,12.207z M11.293,2.707l9.5,9.5
	l1.414-1.414l-9.5-9.5L11.293,2.707z"/>
<rect x="9.5" y="15" style="fill:#333333;" width="5" height="1"/>
<rect x="11.5" y="13" style="fill:#333333;" width="1" height="5"/>
</svg>






