<?xml version="1.0" encoding="iso-8859-1"?>
<svg version="1.1" id="&#x56FE;&#x5C42;_1" xmlns="http://www.w3.org/2000/svg" xmlns:xlink="http://www.w3.org/1999/xlink" x="0px"
	 y="0px" viewBox="0 0 24 24" style="enable-background:new 0 0 24 24;" xml:space="preserve">
<path style="fill:#333333;" d="M12,18.5c-3.624,0-8-4.159-8-9.324C4,4.8,7.439,1.5,12,1.5s8,3.3,8,7.676
	C20,14.341,15.623,18.5,12,18.5z M12,2.5c-3.991,0-7,2.87-7,6.676c0,4.483,3.849,8.324,7,8.324c3.151,0,7-3.841,7-8.324
	C19,5.37,15.99,2.5,12,2.5z"/>
<path style="fill:#333333;" d="M12.862,18.345l-0.725-0.689C13.812,15.895,15.5,12.844,15.5,10c0-2.891-1.688-5.926-3.359-7.652
	l0.719-0.696C14.539,3.386,16.5,6.612,16.5,10C16.5,13.12,14.673,16.439,12.862,18.345z"/>
<path style="fill:#333333;" d="M11.153,18.359C8.832,16.119,7.5,13.072,7.5,10c0-3.161,1.298-6.131,3.656-8.363l0.688,0.727
	C9.688,4.405,8.5,7.117,8.5,10c0,2.803,1.22,5.587,3.347,7.641L11.153,18.359z"/>
<path style="fill:#333333;" d="M13.452,8.736c-1.35,0-2.48-0.223-2.551-0.237l0.197-0.98c0.023,0.005,2.445,0.479,4.277,0.006
	c1.859-0.481,3.337-1.434,3.352-1.444l0.547,0.838c-0.065,0.042-1.624,1.051-3.648,1.574C14.921,8.675,14.156,8.736,13.452,8.736z"
	/>
<path style="fill:#333333;" d="M11.75,12.563c-0.781,0-1.821-0.066-2.871-0.328c-2.03-0.508-4.499-1.736-4.603-1.788l0.447-0.895
	c0.024,0.012,2.476,1.231,4.397,1.712c1.887,0.472,3.798,0.241,3.816,0.239l0.125,0.992C13.02,12.501,12.507,12.563,11.75,12.563z"
	/>
<path style="fill:none;" d="M9,17.5l0.7,3.548c0,0,1.363,0.952,2.3,0.952s2.3-0.952,2.3-0.952l0.697-3.533L12,18L9,17.5z"/>
<path style="fill:#333333;" d="M12,22.5c-1.064,0-2.434-0.936-2.586-1.042l-0.165-0.116L8.37,16.888l3.631,0.605l3.626-0.587
	l-0.876,4.436l-0.165,0.116C14.434,21.564,13.064,22.5,12,22.5z M10.15,20.747c0.438,0.28,1.294,0.753,1.85,0.753
	c0.552,0,1.42-0.48,1.85-0.753l0.518-2.624l-2.368,0.384L9.63,18.112L10.15,20.747z"/>
</svg>






