<?xml version="1.0" encoding="iso-8859-1"?>
<svg version="1.1" id="&#x56FE;&#x5C42;_1" xmlns="http://www.w3.org/2000/svg" xmlns:xlink="http://www.w3.org/1999/xlink" x="0px"
	 y="0px" viewBox="0 0 24 24" style="enable-background:new 0 0 24 24;" xml:space="preserve">
<path style="fill:#333333;" d="M12,18.5c-5.636,0-9-3.552-9-9.5V8.5h18V9C21,14.948,17.636,18.5,12,18.5z M4.01,9.5
	c0.108,2.755,1.208,8,7.99,8c6.783,0,7.882-5.245,7.99-8H4.01z"/>
<polygon style="fill:#333333;" points="17.693,22.5 6.306,22.5 8.026,17.342 8.974,17.658 7.694,21.5 16.307,21.5 15.025,17.658 
	15.975,17.342 "/>
<polygon style="fill:#333333;" points="14.002,9.04 13.482,2.5 10.518,2.5 9.999,9.04 9.001,8.96 9.594,1.5 14.406,1.5 14.998,8.96 
	"/>
<path style="fill:#333333;" d="M8.967,14.499c-0.074-0.005-0.74-0.064-1.321-0.646s-0.641-1.247-0.646-1.32l0.998-0.073
	C8,12.476,8.037,12.83,8.354,13.146c0.317,0.317,0.676,0.354,0.679,0.354L8.967,14.499z"/>
</svg>






