<?xml version="1.0" encoding="iso-8859-1"?>
<svg version="1.1" id="&#x56FE;&#x5C42;_1" xmlns="http://www.w3.org/2000/svg" xmlns:xlink="http://www.w3.org/1999/xlink" x="0px"
	 y="0px" viewBox="0 0 24 24" style="enable-background:new 0 0 24 24;" xml:space="preserve">
<path style="fill:none;" d="M6.5,13.5c0,0,10,0,10-6V22h-10V13.5z"/>
<path style="fill:#333333;" d="M17,22.5H6V13h0.5c0.095,0,9.5-0.07,9.5-5.5V7c0-2.481-2.019-4.5-4.5-4.5S7,4.519,7,7H6
	c0-3.033,2.467-5.5,5.5-5.5C14.532,1.5,17,3.967,17,7V22.5z M7,21.5h9V10.578c-2.191,2.893-7.354,3.341-9,3.41V21.5z"/>
<rect x="11" y="15.379" transform="matrix(0.7071 -0.7071 0.7071 0.7071 -9.0061 13.2574)" style="fill:#333333;" width="1" height="4.243"/>
<rect x="9.379" y="17" transform="matrix(0.7071 -0.7071 0.7071 0.7071 -9.0061 13.2574)" style="fill:#333333;" width="4.243" height="1"/>
</svg>






