<?xml version="1.0" encoding="iso-8859-1"?>
<svg version="1.1" id="&#x56FE;&#x5C42;_1" xmlns="http://www.w3.org/2000/svg" xmlns:xlink="http://www.w3.org/1999/xlink" x="0px"
	 y="0px" viewBox="0 0 24 24" style="enable-background:new 0 0 24 24;" xml:space="preserve">
<rect x="2" y="1.5" style="fill:#333333;" width="20" height="1"/>
<path style="fill:#333333;" d="M19,22.5H5c-0.827,0-1.5-0.673-1.5-1.5V3c0-0.827,0.673-1.5,1.5-1.5h14c0.827,0,1.5,0.673,1.5,1.5v18
	C20.5,21.827,19.827,22.5,19,22.5z M5,2.5C4.724,2.5,4.5,2.724,4.5,3v18c0,0.275,0.224,0.5,0.5,0.5h14c0.275,0,0.5-0.225,0.5-0.5V3
	c0-0.276-0.225-0.5-0.5-0.5H5z"/>
<path style="fill:#333333;" d="M14.5,22.5h-5v-7h5V22.5z M10.5,21.5h3v-5h-3V21.5z"/>
<rect x="7.5" y="5.5" style="fill:#333333;" width="1" height="1"/>
<rect x="7.5" y="8.5" style="fill:#333333;" width="1" height="1"/>
<rect x="11.5" y="5.5" style="fill:#333333;" width="1" height="1"/>
<rect x="11.5" y="8.5" style="fill:#333333;" width="1" height="1"/>
<rect x="15.5" y="5.5" style="fill:#333333;" width="1" height="1"/>
<rect x="15.5" y="8.5" style="fill:#333333;" width="1" height="1"/>
<rect x="2" y="21.5" style="fill:#333333;" width="20" height="1"/>
<path style="fill:#333333;" d="M15,16.5h-1v-1h0.939c-0.281-1.146-1.524-2-2.939-2s-2.658,0.853-2.939,2H10v1H9
	c-0.296,0-0.571-0.128-0.754-0.35c-0.171-0.208-0.24-0.479-0.189-0.743C8.385,13.723,10.043,12.5,12,12.5s3.615,1.223,3.943,2.907
	c0.051,0.265-0.018,0.535-0.189,0.743C15.57,16.372,15.296,16.5,15,16.5z"/>
</svg>






