<?xml version="1.0" encoding="iso-8859-1"?>
<svg version="1.1" id="&#x56FE;&#x5C42;_1" xmlns="http://www.w3.org/2000/svg" xmlns:xlink="http://www.w3.org/1999/xlink" x="0px"
	 y="0px" viewBox="0 0 24 24" style="enable-background:new 0 0 24 24;" xml:space="preserve">
<rect x="3.5" y="1.5" style="fill:#333333;" width="17" height="1"/>
<rect x="3.5" y="21.5" style="fill:#333333;" width="17" height="1"/>
<path style="fill:#333333;" d="M19.11,22.5H4.89l0.12-0.598c1.399-7,3.685-10.402,6.986-10.402c0.002,0,0.003,0,0.005,0
	c3.304,0.003,5.59,3.405,6.989,10.402L19.11,22.5z M6.114,21.5h11.771c-1.279-5.971-3.258-8.997-5.886-9c-0.001,0-0.002,0-0.003,0
	C9.37,12.5,7.393,15.527,6.114,21.5z"/>
<path style="fill:#333333;" d="M12.004,12.5c-0.001,0-0.003,0-0.004,0C8.696,12.497,6.41,9.094,5.01,2.098L4.89,1.5h14.219
	L18.99,2.098C17.592,9.097,15.306,12.5,12.004,12.5z M6.114,2.5c1.279,5.971,3.258,8.998,5.887,9c0.001,0,0.002,0,0.003,0
	c2.626,0,4.604-3.027,5.882-9H6.114z"/>
</svg>






