<?xml version="1.0" encoding="iso-8859-1"?>
<svg version="1.1" id="&#x56FE;&#x5C42;_1" xmlns="http://www.w3.org/2000/svg" xmlns:xlink="http://www.w3.org/1999/xlink" x="0px"
	 y="0px" viewBox="0 0 24 24" style="enable-background:new 0 0 24 24;" xml:space="preserve">
<rect x="4" y="1.5" style="fill:#333333;" width="16" height="1"/>
<rect x="4" y="21.5" style="fill:#333333;" width="16" height="1"/>
<polygon style="fill:#333333;" points="10.128,13.335 5.5,8.192 5.5,2 6.5,2 6.5,7.808 10.872,12.665 "/>
<polygon style="fill:#333333;" points="18.5,22 17.5,22 17.5,14.966 13.156,10.863 13.844,10.137 18.5,14.534 "/>
<polygon style="fill:#333333;" points="6.5,22 5.5,22 5.5,14.793 8.896,11.396 9.604,12.104 6.5,15.207 "/>
<polygon style="fill:#333333;" points="15.128,12.077 14.372,11.422 17.5,7.813 17.5,2 18.5,2 18.5,8.187 "/>
<rect x="9" y="16" style="fill:#333333;" width="0.5" height="1"/>
<rect x="14.25" y="16.25" transform="matrix(0.7071 -0.7071 0.7071 0.7071 -7.3471 15.2626)" style="fill:#333333;" width="1" height="0.5"/>
<rect x="12" y="18.5" style="fill:#333333;" width="0.5" height="1"/>
</svg>






