<?xml version="1.0" encoding="iso-8859-1"?>
<svg version="1.1" id="&#x56FE;&#x5C42;_1" xmlns="http://www.w3.org/2000/svg" xmlns:xlink="http://www.w3.org/1999/xlink" x="0px"
	 y="0px" viewBox="0 0 24 24" style="enable-background:new 0 0 24 24;" xml:space="preserve">
<path style="fill:#333333;" d="M12,21.899c-0.214,0-0.429-0.047-0.629-0.139l-5.558-2.565c-0.484-0.224-0.815-0.691-0.865-1.222
	L3.604,3.64C3.565,3.221,3.705,2.802,3.989,2.49S4.677,2,5.098,2h13.803c0.421,0,0.825,0.179,1.109,0.49
	c0.283,0.312,0.424,0.73,0.385,1.15l-1.344,14.334c-0.05,0.53-0.381,0.998-0.864,1.222l-5.559,2.565
	C12.429,21.854,12.215,21.899,12,21.899z M5.098,3c-0.143,0-0.274,0.058-0.37,0.164C4.632,3.269,4.587,3.405,4.6,3.546L5.944,17.88
	c0.016,0.177,0.127,0.333,0.288,0.407l5.558,2.565c0.134,0.062,0.286,0.062,0.418,0l5.559-2.565c0.161-0.074,0.271-0.23,0.288-0.407
	l1.344-14.333c0.014-0.142-0.032-0.278-0.128-0.383C19.176,3.058,19.044,3,18.901,3H5.098z"/>
<polygon style="fill:#333333;" points="12,18.059 8.53,16.324 8.252,13.55 9.248,13.45 9.47,15.676 12,16.941 14.527,15.678 
	14.952,11 8.052,11 7.441,5.5 16,5.5 16,6.5 8.559,6.5 8.948,10 16.048,10 15.473,16.322 "/>
</svg>






