<?xml version="1.0" encoding="iso-8859-1"?>
<svg version="1.1" id="&#x56FE;&#x5C42;_1" xmlns="http://www.w3.org/2000/svg" xmlns:xlink="http://www.w3.org/1999/xlink" x="0px"
	 y="0px" viewBox="0 0 24 24" style="enable-background:new 0 0 24 24;" xml:space="preserve">
<path style="fill:#333333;" d="M22.5,21.5h-21V14h21V21.5z M2.5,20.5h19V15h-19V20.5z"/>
<polygon style="fill:#333333;" points="2.489,14.603 1.511,14.397 4.113,2 19.917,2 22.489,14.398 21.511,14.602 19.103,3 4.925,3 
	"/>
<path style="fill:#333333;" d="M9.5,11.5c-1.654,0-3-1.346-3-3s1.346-3,3-3v1c-1.103,0-2,0.897-2,2s0.897,2,2,2V11.5z"/>
<path style="fill:#333333;" d="M14.5,11.5v-1c1.103,0,2-0.897,2-2s-0.897-2-2-2v-1c1.654,0,3,1.346,3,3S16.154,11.5,14.5,11.5z"/>
<rect x="10" y="8" style="fill:#333333;" width="4" height="1"/>
</svg>






