<?xml version="1.0" encoding="iso-8859-1"?>
<svg version="1.1" id="&#x56FE;&#x5C42;_1" xmlns="http://www.w3.org/2000/svg" xmlns:xlink="http://www.w3.org/1999/xlink" x="0px"
	 y="0px" viewBox="0 0 24 24" style="enable-background:new 0 0 24 24;" xml:space="preserve">
<path style="fill:#333333;" d="M22.5,14.5h-21v-12h21V14.5z M2.5,13.5h19v-10h-19V13.5z"/>
<polygon style="fill:#333333;" points="22.5,18.5 1.5,18.5 1.5,14 2.5,14 2.5,17.5 21.5,17.5 21.5,14 22.5,14 "/>
<path style="fill:#333333;" d="M6.545,9H5.455C5.203,9,5,9.203,5,9.455v1.091C5,10.797,5.203,11,5.455,11h1.091
	C6.797,11,7,10.797,7,10.545V9.455C7,9.203,6.797,9,6.545,9z"/>
<path style="fill:#333333;" d="M6.545,6H5.455C5.203,6,5,6.203,5,6.455v1.091C5,7.797,5.203,8,5.455,8h1.091
	C6.797,8,7,7.797,7,7.545V6.455C7,6.203,6.797,6,6.545,6z"/>
<path style="fill:#333333;" d="M10.545,9H9.455C9.203,9,9,9.203,9,9.455v1.091C9,10.797,9.203,11,9.455,11h1.091
	C10.797,11,11,10.797,11,10.545V9.455C11,9.203,10.797,9,10.545,9z"/>
<path style="fill:#333333;" d="M10.545,6H9.455C9.203,6,9,6.203,9,6.455v1.091C9,7.797,9.203,8,9.455,8h1.091
	C10.797,8,11,7.797,11,7.545V6.455C11,6.203,10.797,6,10.545,6z"/>
<path style="fill:#333333;" d="M14.545,9h-1.091C13.203,9,13,9.203,13,9.455v1.091C13,10.797,13.203,11,13.455,11h1.091
	C14.797,11,15,10.797,15,10.545V9.455C15,9.203,14.797,9,14.545,9z"/>
<path style="fill:#333333;" d="M14.545,6h-1.091C13.203,6,13,6.203,13,6.455v1.091C13,7.797,13.203,8,13.455,8h1.091
	C14.797,8,15,7.797,15,7.545V6.455C15,6.203,14.797,6,14.545,6z"/>
<path style="fill:#333333;" d="M18.545,6h-1.091C17.204,6,17,6.203,17,6.455v1.091C17,7.797,17.204,8,17.455,8h1.091
	C18.796,8,19,7.797,19,7.545V6.455C19,6.203,18.796,6,18.545,6z"/>
<polygon style="fill:#333333;" points="16,21.5 8,21.5 7.611,20.686 10.034,17.686 10.812,18.314 9.047,20.5 14.953,20.5 
	13.188,18.314 13.966,17.686 16.389,20.686 "/>
</svg>






