<?xml version="1.0" encoding="iso-8859-1"?>
<svg version="1.1" id="&#x56FE;&#x5C42;_1" xmlns="http://www.w3.org/2000/svg" xmlns:xlink="http://www.w3.org/1999/xlink" x="0px"
	 y="0px" viewBox="0 0 24 24" style="enable-background:new 0 0 24 24;" xml:space="preserve">
<polygon style="fill:#333333;" points="12.447,21.724 11.553,21.724 10.053,18.724 7.204,11.432 8.136,11.068 10.966,18.318 
	12,20.383 13.053,18.276 15.864,11.068 16.796,11.432 13.966,18.682 "/>
<rect x="9.5" y="15.5" style="fill:#333333;" width="5" height="1"/>
<path style="fill:#333333;" d="M16.463,12.054l-0.21-0.119C16.236,11.925,14.569,11,12,11c-2.569,0-4.236,0.925-4.253,0.935
	l-0.209,0.118l-0.224-0.088C7.199,11.918,4.5,10.806,4.5,8c0-2.42,2.348-3.576,3.11-3.887C8.095,2.92,9.509,1,12,1
	s3.905,1.92,4.39,3.113C17.151,4.424,19.5,5.58,19.5,8c0,2.806-2.699,3.918-2.814,3.964L16.463,12.054z M12,10
	c2.295,0,3.924,0.663,4.511,0.944C17.051,10.668,18.5,9.763,18.5,8c0-2.104-2.633-3.017-2.659-3.026l-0.234-0.079l-0.08-0.236
	C15.489,4.551,14.594,2,12,2C9.407,2,8.511,4.551,8.474,4.659l-0.08,0.234L8.159,4.974C8.132,4.983,5.5,5.896,5.5,8
	c0,1.763,1.449,2.668,1.99,2.944C8.077,10.663,9.705,10,12,10z"/>
</svg>






