<?xml version="1.0" encoding="iso-8859-1"?>
<svg version="1.1" id="&#x56FE;&#x5C42;_1" xmlns="http://www.w3.org/2000/svg" xmlns:xlink="http://www.w3.org/1999/xlink" x="0px"
	 y="0px" viewBox="0 0 24 24" style="enable-background:new 0 0 24 24;" xml:space="preserve">
<path style="fill:#333333;" d="M17.557,16.5H6.443l1.607-15h7.898L17.557,16.5z M7.557,15.5h8.887l-1.393-13H8.949L7.557,15.5z"/>
<path style="fill:#333333;" d="M12,22.5c-1.103,0-2-0.897-2-2V16h1v4.5c0,0.552,0.449,1,1,1c0.552,0,1-0.448,1-1V16h1v4.5
	C14,21.603,13.103,22.5,12,22.5z"/>
<path style="fill:#333333;" d="M10,8.327c-0.853,0-1.705-0.324-2.354-0.973l0.707-0.707c0.908,0.908,2.385,0.908,3.293,0
	c1.297-1.298,3.41-1.298,4.707,0l-0.707,0.707c-0.908-0.908-2.385-0.908-3.293,0C11.705,8.002,10.853,8.327,10,8.327z"/>
<path style="fill:#333333;" d="M9.868,12.634c-0.098,0-0.197-0.004-0.295-0.012c-0.976-0.08-1.851-0.545-2.463-1.31l0.781-0.625
	c0.438,0.548,1.064,0.881,1.763,0.938c0.696,0.057,1.37-0.169,1.892-0.639l0.24-0.216c0.729-0.656,1.674-0.968,2.643-0.893
	c0.977,0.08,1.852,0.545,2.463,1.31l-0.781,0.625c-0.438-0.548-1.063-0.881-1.763-0.938c-0.703-0.058-1.371,0.169-1.892,0.639
	l-0.24,0.216C11.561,12.318,10.736,12.634,9.868,12.634z"/>
</svg>






