<?xml version="1.0" encoding="iso-8859-1"?>
<svg version="1.1" id="&#x56FE;&#x5C42;_1" xmlns="http://www.w3.org/2000/svg" xmlns:xlink="http://www.w3.org/1999/xlink" x="0px"
	 y="0px" viewBox="0 0 24 24" style="enable-background:new 0 0 24 24;" xml:space="preserve">
<path style="fill:#333333;" d="M16.865,16.5h-9.73c-0.35,0-0.635-0.285-0.635-0.635V7c0-3.033,2.467-5.5,5.5-5.5
	c3.032,0,5.5,2.467,5.5,5.5v8.865C17.5,16.215,17.215,16.5,16.865,16.5z M7.5,15.5h9V7c0-2.481-2.019-4.5-4.5-4.5S7.5,4.519,7.5,7
	V15.5z"/>
<path style="fill:#333333;" d="M12,22.5c-1.103,0-2-0.897-2-2V16h1v4.5c0,0.552,0.449,1,1,1c0.552,0,1-0.448,1-1V16h1v4.5
	C14,21.603,13.103,22.5,12,22.5z"/>
<path style="fill:#333333;" d="M9.5,9.534c-1.033,0-2.067-0.394-2.854-1.18l0.707-0.707c1.146,1.146,3.146,1.146,4.293,0
	c1.574-1.573,4.133-1.573,5.707,0l-0.707,0.707c-1.146-1.146-3.146-1.146-4.293,0C11.567,9.14,10.533,9.534,9.5,9.534z"/>
</svg>






