<?xml version="1.0" encoding="iso-8859-1"?>
<svg version="1.1" id="&#x56FE;&#x5C42;_1" xmlns="http://www.w3.org/2000/svg" xmlns:xlink="http://www.w3.org/1999/xlink" x="0px"
	 y="0px" viewBox="0 0 24 24" style="enable-background:new 0 0 24 24;" xml:space="preserve">
<g>
	<defs>
		<rect id="SVGID_1_" width="24" height="24"/>
	</defs>
	<clipPath id="SVGID_00000129194512837899125450000004951655921117438858_">
		<use xlink:href="#SVGID_1_"  style="overflow:visible;"/>
	</clipPath>
	<g style="clip-path:url(#SVGID_00000129194512837899125450000004951655921117438858_);">
		<path style="fill:#333333;" d="M5.772,20.89L2.18,17.297L9.334,6.067l7.595,7.596L5.772,20.89z M3.454,17.158l2.453,2.452
			l9.44-6.115l-5.839-5.84L3.454,17.158z"/>
		<path style="fill:#333333;" d="M16.045,14.164L8.803,6.923L8.802,6.718C8.799,6.349,9,5.62,9.772,5.227
			c0.103-0.049,0.353-0.166,0.991-0.108c0.708-1.257,1.78-1.723,3.071-1.328c0.771-0.801,2.174-1.147,3.333-0.773
			c0.743,0.24,1.067,0.643,1.328,0.967c0.159,0.198,0.274,0.341,0.47,0.437c0.04,0.021,0.16,0.079,0.348-0.001
			c0.198-0.085,0.325-0.257,0.343-0.311l-0.005-0.07c-0.003-0.364-0.007-0.861,0.351-1.14c0.108-0.085,0.344-0.212,0.688-0.124
			c0.633,0.17,0.904,0.822,1.159,1.89c0.19,0.803,0.074,1.94-0.615,2.673c-0.308,0.327-0.794,0.522-1.209,0.657
			c0.137,0.602,0.249,1.581-0.284,2.114c-0.491,0.491-0.886,0.62-1.265,0.732c-0.029,1.389-0.205,2.888-2.17,3.271L16.045,14.164z
			 M9.838,6.543l6.527,6.527c1.035-0.311,1.099-1.144,1.114-2.523l0.004-0.352l0.334-0.197c0.118-0.041,0.228-0.073,0.332-0.104
			c0.346-0.102,0.555-0.163,0.884-0.492c0.202-0.202,0.077-1.084-0.094-1.579l-0.169-0.488l0.643-0.199
			c0.309-0.091,0.883-0.261,1.092-0.483c0.413-0.439,0.499-1.216,0.371-1.756c-0.086-0.358-0.162-0.605-0.226-0.776v0.04
			c-0.005,0.431-0.367,0.845-0.725,1.065c-0.45,0.276-0.962,0.309-1.402,0.094c-0.395-0.194-0.614-0.467-0.808-0.708
			c-0.222-0.276-0.397-0.494-0.855-0.643c-0.875-0.281-2.016,0.041-2.444,0.688L14.188,5l-0.38-0.157
			c-1.063-0.437-1.773-0.121-2.307,1.028l-0.16,0.343l-0.374-0.061c-0.482-0.077-0.711-0.046-0.758-0.027
			C9.983,6.241,9.883,6.413,9.838,6.543z"/>
		<path style="fill:#333333;" d="M18.014,8.538c-0.852,0-1.651-0.392-2.443-1.185l0.707-0.707c0.975,0.977,1.791,1.135,2.907,0.566
			l0.453,0.892C19.07,8.393,18.532,8.538,18.014,8.538z"/>
	</g>
</g>
</svg>






