<?xml version="1.0" encoding="iso-8859-1"?>
<svg version="1.1" id="&#x56FE;&#x5C42;_1" xmlns="http://www.w3.org/2000/svg" xmlns:xlink="http://www.w3.org/1999/xlink" x="0px"
	 y="0px" viewBox="0 0 24 24" style="enable-background:new 0 0 24 24;" xml:space="preserve">
<path style="fill:#333333;" d="M19,22.5H5c-0.827,0-1.5-0.673-1.5-1.5V3c0-0.827,0.673-1.5,1.5-1.5h14c0.827,0,1.5,0.673,1.5,1.5v18
	C20.5,21.827,19.827,22.5,19,22.5z M5,2.5C4.724,2.5,4.5,2.724,4.5,3v18c0,0.275,0.224,0.5,0.5,0.5h14c0.275,0,0.5-0.225,0.5-0.5V3
	c0-0.276-0.225-0.5-0.5-0.5H5z"/>
<path style="fill:#333333;" d="M12,10c-1.378,0-2.5-1.122-2.5-2.5S10.622,5,12,5c1.379,0,2.5,1.122,2.5,2.5S13.379,10,12,10z M12,6
	c-0.827,0-1.5,0.673-1.5,1.5S11.173,9,12,9s1.5-0.673,1.5-1.5S12.827,6,12,6z"/>
<path style="fill:#333333;" d="M15.5,12.5h-1c0-1.378-1.121-2.5-2.5-2.5c-1.378,0-2.5,1.122-2.5,2.5h-1C8.5,10.57,10.07,9,12,9
	S15.5,10.57,15.5,12.5z"/>
<rect x="9" y="15" style="fill:#333333;" width="6" height="1"/>
<rect x="9" y="18" style="fill:#333333;" width="3.5" height="1"/>
</svg>






