<?xml version="1.0" encoding="iso-8859-1"?>
<svg version="1.1" id="&#x56FE;&#x5C42;_1" xmlns="http://www.w3.org/2000/svg" xmlns:xlink="http://www.w3.org/1999/xlink" x="0px"
	 y="0px" viewBox="0 0 24 24" style="enable-background:new 0 0 24 24;" xml:space="preserve">
<path style="fill:#333333;" d="M21,20.5H3c-0.827,0-1.5-0.673-1.5-1.5V5c0-0.827,0.673-1.5,1.5-1.5h18c0.827,0,1.5,0.673,1.5,1.5v14
	C22.5,19.827,21.827,20.5,21,20.5z M3,4.5C2.724,4.5,2.5,4.724,2.5,5v14c0,0.275,0.224,0.5,0.5,0.5h18c0.275,0,0.5-0.225,0.5-0.5V5
	c0-0.276-0.225-0.5-0.5-0.5H3z"/>
<path style="fill:#333333;" d="M8.5,13C7.122,13,6,11.878,6,10.5S7.122,8,8.5,8S11,9.122,11,10.5S9.878,13,8.5,13z M8.5,9
	C7.673,9,7,9.673,7,10.5S7.673,12,8.5,12s1.5-0.673,1.5-1.5S9.327,9,8.5,9z"/>
<path style="fill:#333333;" d="M12,15.5h-1c0-1.379-1.122-2.5-2.5-2.5S6,14.121,6,15.5H5C5,13.57,6.57,12,8.5,12S12,13.57,12,15.5z"
	/>
<rect x="14" y="9.5" style="fill:#333333;" width="4" height="1"/>
<rect x="15" y="13.5" style="fill:#333333;" width="3" height="1"/>
</svg>






