<?xml version="1.0" encoding="iso-8859-1"?>
<svg version="1.1" id="&#x56FE;&#x5C42;_1" xmlns="http://www.w3.org/2000/svg" xmlns:xlink="http://www.w3.org/1999/xlink" x="0px"
	 y="0px" viewBox="0 0 24 24" style="enable-background:new 0 0 24 24;" xml:space="preserve">
<rect x="11.5" y="2" style="fill:#333333;" width="1" height="7.5"/>
<rect x="5.815" y="9" transform="matrix(0.9702 -0.2423 0.2423 0.9702 -1.9443 3.1908)" style="fill:#333333;" width="12.369" height="1"/>
<rect x="11.969" y="11" transform="matrix(0.4957 -0.8685 0.8685 0.4957 -1.9191 19.695)" style="fill:#333333;" width="8.062" height="1.001"/>
<rect x="19.5" y="7.469" transform="matrix(0.8682 -0.4961 0.4961 0.8682 -3.0705 11.438)" style="fill:#333333;" width="1.001" height="8.062"/>
<rect x="7.5" y="10.469" transform="matrix(0.8682 -0.4961 0.4961 0.8682 -6.14 5.8796)" style="fill:#333333;" width="1" height="8.062"/>
<rect x="-0.031" y="14" transform="matrix(0.4961 -0.8682 0.8682 0.4961 -10.5741 10.779)" style="fill:#333333;" width="8.062" height="1"/>
<path style="fill:#333333;" d="M6,22.5c-2.481,0-4.5-2.019-4.5-4.5v-0.5h9V18C10.5,20.481,8.481,22.5,6,22.5z M2.536,18.5
	c0.243,1.694,1.704,3,3.464,3s3.221-1.306,3.464-3H2.536z"/>
<path style="fill:#333333;" d="M18,19.5c-2.481,0-4.5-2.019-4.5-4.5v-0.5h9V15C22.5,17.481,20.481,19.5,18,19.5z M14.535,15.5
	c0.244,1.694,1.705,3,3.465,3s3.221-1.306,3.465-3H14.535z"/>
</svg>






