<?xml version="1.0" encoding="iso-8859-1"?>
<svg version="1.1" id="&#x56FE;&#x5C42;_1" xmlns="http://www.w3.org/2000/svg" xmlns:xlink="http://www.w3.org/1999/xlink" x="0px"
	 y="0px" viewBox="0 0 24 24" style="enable-background:new 0 0 24 24;" xml:space="preserve">
<path style="fill:#333333;" d="M7,9C5.622,9,4.5,7.878,4.5,6.5S5.622,4,7,4s2.5,1.122,2.5,2.5S8.378,9,7,9z M7,5
	C6.173,5,5.5,5.673,5.5,6.5S6.173,8,7,8s1.5-0.673,1.5-1.5S7.827,5,7,5z"/>
<path style="fill:#333333;" d="M16.5,9C15.121,9,14,7.878,14,6.5S15.121,4,16.5,4S19,5.122,19,6.5S17.879,9,16.5,9z M16.5,5
	C15.673,5,15,5.673,15,6.5S15.673,8,16.5,8S18,7.327,18,6.5S17.327,5,16.5,5z"/>
<rect x="2" y="6" style="fill:#333333;" width="3" height="1"/>
<rect x="9" y="6" style="fill:#333333;" width="5.5" height="1"/>
<rect x="18.5" y="6" style="fill:#333333;" width="3.5" height="1"/>
<polygon style="fill:#333333;" points="4.646,20.854 1.293,17.5 4.646,14.146 5.354,14.854 2.707,17.5 5.354,20.146 "/>
<rect x="2" y="17" style="fill:#333333;" width="20" height="1"/>
</svg>






