<?xml version="1.0" encoding="iso-8859-1"?>
<svg version="1.1" id="&#x56FE;&#x5C42;_1" xmlns="http://www.w3.org/2000/svg" xmlns:xlink="http://www.w3.org/1999/xlink" x="0px"
	 y="0px" viewBox="0 0 24 24" style="enable-background:new 0 0 24 24;" xml:space="preserve">
<path style="fill:#333333;" d="M9.5,12.5c-1.654,0-3-1.346-3-3v-5c0-1.654,1.346-3,3-3s3,1.346,3,3v5
	C12.5,11.154,11.154,12.5,9.5,12.5z M9.5,2.5c-1.103,0-2,0.897-2,2v5c0,1.103,0.897,2,2,2s2-0.897,2-2v-5
	C11.5,3.397,10.603,2.5,9.5,2.5z"/>
<path style="fill:#333333;" d="M18.5,12.5c-1.654,0-3-1.346-3-3v-5c0-1.654,1.346-3,3-3s3,1.346,3,3v5
	C21.5,11.154,20.154,12.5,18.5,12.5z M18.5,2.5c-1.103,0-2,0.897-2,2v5c0,1.103,0.897,2,2,2s2-0.897,2-2v-5
	C20.5,3.397,19.603,2.5,18.5,2.5z"/>
<polygon style="fill:#333333;" points="18.354,22.354 17.646,21.646 20.293,19 17.646,16.354 18.354,15.646 21.707,19 "/>
<rect x="3" y="11.5" style="fill:#333333;" width="0.5" height="1"/>
<rect x="9.5" y="18.5" style="fill:#333333;" width="11.5" height="1"/>
</svg>






