<?xml version="1.0" encoding="iso-8859-1"?>
<svg version="1.1" id="&#x56FE;&#x5C42;_1" xmlns="http://www.w3.org/2000/svg" xmlns:xlink="http://www.w3.org/1999/xlink" x="0px"
	 y="0px" viewBox="0 0 24 24" style="enable-background:new 0 0 24 24;" xml:space="preserve">
<path style="fill:#333333;" d="M11.5,22C6.262,22,2,17.738,2,12.5S6.262,3,11.5,3v1C6.813,4,3,7.813,3,12.5
	c0,4.687,3.813,8.5,8.5,8.5c4.687,0,8.5-3.813,8.5-8.5h1C21,17.738,16.738,22,11.5,22z"/>
<path style="fill:#333333;" d="M6,14.75v-1c4.132,0,5.733-0.221,9.105-4.557l0.789,0.614C12.365,14.345,10.482,14.75,6,14.75z"/>
<polygon style="fill:#333333;" points="16,13.5 15,13.5 15,10 11.5,10 11.5,9 16,9 "/>
<rect x="15" y="2.5" style="fill:#333333;" width="1" height="2.25"/>
<rect x="19.5" y="8" style="fill:#333333;" width="2.25" height="1"/>
<rect x="18.097" y="3.972" transform="matrix(0.7071 -0.7071 0.7071 0.7071 2.541 15.0788)" style="fill:#333333;" width="2.75" height="1"/>
</svg>






