<?xml version="1.0" encoding="iso-8859-1"?>
<svg version="1.1" id="&#x56FE;&#x5C42;_1" xmlns="http://www.w3.org/2000/svg" xmlns:xlink="http://www.w3.org/1999/xlink" x="0px"
	 y="0px" viewBox="0 0 24 24" style="enable-background:new 0 0 24 24;" xml:space="preserve">
<path style="fill:#333333;" d="M12,22.5c-2.804,0-5.441-1.092-7.425-3.075C2.592,17.441,1.5,14.805,1.5,12
	c0-2.804,1.092-5.441,3.075-7.425C6.559,2.592,9.196,1.5,12,1.5c2.805,0,5.441,1.092,7.425,3.075C21.408,6.559,22.5,9.196,22.5,12
	c0,2.805-1.092,5.441-3.075,7.425S14.805,22.5,12,22.5z M12,2.5c-2.537,0-4.923,0.988-6.718,2.782C3.488,7.077,2.5,9.463,2.5,12
	c0,2.538,0.988,4.924,2.782,6.718C7.077,20.512,9.463,21.5,12,21.5c2.538,0,4.924-0.988,6.718-2.782S21.5,14.538,21.5,12
	c0-2.537-0.988-4.923-2.782-6.718C16.924,3.488,14.538,2.5,12,2.5z"/>
<path style="fill:#333333;" d="M16.597,7.404C15.368,6.176,13.735,5.5,12,5.5c-1.736,0-3.369,0.676-4.596,1.904L6.697,6.697
	C8.113,5.28,9.997,4.5,12,4.5c2.003,0,3.886,0.78,5.304,2.197L16.597,7.404z"/>
</svg>






