<?xml version="1.0" encoding="iso-8859-1"?>
<svg version="1.1" id="&#x56FE;&#x5C42;_1" xmlns="http://www.w3.org/2000/svg" xmlns:xlink="http://www.w3.org/1999/xlink" x="0px"
	 y="0px" viewBox="0 0 24 24" style="enable-background:new 0 0 24 24;" xml:space="preserve">
<path style="fill:#333333;" d="M12,22H3.5C2.673,22,2,21.327,2,20.5V9h20v7.5h-1V10H3v10.5C3,20.775,3.224,21,3.5,21H12V22z"/>
<path style="fill:#333333;" d="M22,10H2V5c0-0.827,0.673-1.5,1.5-1.5h17C21.327,3.5,22,4.173,22,5V10z M3,9h18V5
	c0-0.276-0.225-0.5-0.5-0.5h-17C3.224,4.5,3,4.724,3,5V9z"/>
<rect x="7.5" y="2.5" style="fill:#333333;" width="1" height="4"/>
<rect x="15.5" y="2.5" style="fill:#333333;" width="1" height="4"/>
<path style="fill:#333333;" d="M15,20c-2.206,0-4-1.794-4-4s1.794-4,4-4s4,1.794,4,4S17.206,20,15,20z M15,13c-1.654,0-3,1.346-3,3
	s1.346,3,3,3s3-1.346,3-3S16.654,13,15,13z"/>
<rect x="19" y="17.797" transform="matrix(0.6402 -0.7682 0.7682 0.6402 -8.156 22.0867)" style="fill:#333333;" width="1" height="3.905"/>
</svg>






