<?xml version="1.0" encoding="iso-8859-1"?>
<svg version="1.1" id="&#x56FE;&#x5C42;_1" xmlns="http://www.w3.org/2000/svg" xmlns:xlink="http://www.w3.org/1999/xlink" x="0px"
	 y="0px" viewBox="0 0 24 24" style="enable-background:new 0 0 24 24;" xml:space="preserve">
<path style="fill:#333333;" d="M4.5,6.5C3.122,6.5,2,5.378,2,4s1.122-2.5,2.5-2.5S7,2.622,7,4S5.878,6.5,4.5,6.5z M4.5,2.5
	C3.673,2.5,3,3.173,3,4s0.673,1.5,1.5,1.5S6,4.827,6,4S5.327,2.5,4.5,2.5z"/>
<path style="fill:#333333;" d="M7,22H2V8.5h5V22z M3,21h3V9.5H3V21z"/>
<path style="fill:#333333;" d="M22,22h-4.5v-7.5c0-0.715-0.534-1.75-1.5-1.75c-1.036,0-1.5,0.879-1.5,1.75V22H10v-8.25
	c0-1.832,2.061-5.25,6-5.25s6,3.418,6,5.25V22z M18.5,21H21v-7.25c0-1.21-1.487-4.25-5-4.25s-5,3.04-5,4.25V21h2.5v-6.5
	c0-1.594,1.052-2.75,2.5-2.75c1.495,0,2.5,1.422,2.5,2.75V21z"/>
</svg>






