<?xml version="1.0" encoding="iso-8859-1"?>
<svg version="1.1" id="&#x56FE;&#x5C42;_1" xmlns="http://www.w3.org/2000/svg" xmlns:xlink="http://www.w3.org/1999/xlink" x="0px"
	 y="0px" viewBox="0 0 24 24" style="enable-background:new 0 0 24 24;" xml:space="preserve">
<path style="fill:#333333;" d="M21,20.5H3c-0.827,0-1.5-0.673-1.5-1.5V5c0-0.827,0.673-1.5,1.5-1.5h18c0.827,0,1.5,0.673,1.5,1.5v14
	C22.5,19.827,21.827,20.5,21,20.5z M3,4.5C2.724,4.5,2.5,4.724,2.5,5v14c0,0.275,0.224,0.5,0.5,0.5h18c0.275,0,0.5-0.225,0.5-0.5V5
	c0-0.276-0.225-0.5-0.5-0.5H3z"/>
<path style="fill:#333333;" d="M22.5,8.5h-21V5c0-0.827,0.673-1.5,1.5-1.5h18c0.827,0,1.5,0.673,1.5,1.5V8.5z M2.5,7.5h19V5
	c0-0.276-0.225-0.5-0.5-0.5H3C2.724,4.5,2.5,4.724,2.5,5V7.5z"/>
<rect x="9.205" y="13.75" transform="matrix(0.1797 -0.9837 0.9837 0.1797 -4.1749 23.4932)" style="fill:#333333;" width="5.59" height="1"/>
<polygon style="fill:#333333;" points="15.854,17.354 15.146,16.646 17.76,14.033 15.18,11.884 15.82,11.116 19.24,13.967 "/>
<polygon style="fill:#333333;" points="8.146,17.354 4.759,13.967 8.18,11.116 8.82,11.884 6.241,14.033 8.854,16.646 "/>
</svg>






