<?xml version="1.0" encoding="iso-8859-1"?>
<svg version="1.1" id="&#x56FE;&#x5C42;_1" xmlns="http://www.w3.org/2000/svg" xmlns:xlink="http://www.w3.org/1999/xlink" x="0px"
	 y="0px" viewBox="0 0 24 24" style="enable-background:new 0 0 24 24;" xml:space="preserve">
<polygon style="fill:#333333;" points="3.687,6.082 2.897,5.469 5.588,2 18.412,2 21.096,5.47 20.305,6.081 17.922,3 6.079,3 "/>
<path style="fill:#333333;" d="M19.5,22h-15c-1.103,0-2-0.897-2-2V6.5C2.5,5.673,3.173,5,4,5h16c0.827,0,1.5,0.673,1.5,1.5V20
	C21.5,21.103,20.603,22,19.5,22z M4,6C3.724,6,3.5,6.224,3.5,6.5V20c0,0.552,0.449,1,1,1h15c0.552,0,1-0.448,1-1V6.5
	C20.5,6.224,20.275,6,20,6H4z"/>
<polygon style="fill:#333333;" points="12,18.207 7.646,13.854 8.354,13.146 12,16.793 15.646,13.146 16.354,13.854 "/>
<rect x="11.496" y="9.5" style="fill:#333333;" width="1" height="8"/>
</svg>






