<?xml version="1.0" encoding="iso-8859-1"?>
<svg version="1.1" id="&#x56FE;&#x5C42;_1" xmlns="http://www.w3.org/2000/svg" xmlns:xlink="http://www.w3.org/1999/xlink" x="0px"
	 y="0px" viewBox="0 0 24 24" style="enable-background:new 0 0 24 24;" xml:space="preserve">
<path style="fill:#333333;" d="M17,21.5H7c-2.481,0-4.5-2.019-4.5-4.5V7c0-2.481,2.019-4.5,4.5-4.5h10c2.481,0,4.5,2.019,4.5,4.5v10
	C21.5,19.481,19.481,21.5,17,21.5z M7,3.5C5.07,3.5,3.5,5.07,3.5,7v10c0,1.93,1.57,3.5,3.5,3.5h10c1.93,0,3.5-1.57,3.5-3.5V7
	c0-1.93-1.57-3.5-3.5-3.5H7z"/>
<path style="fill:#333333;" d="M12,16.5c-2.481,0-4.5-2.019-4.5-4.5S9.519,7.5,12,7.5s4.5,2.019,4.5,4.5S14.481,16.5,12,16.5z
	 M12,8.5c-1.93,0-3.5,1.57-3.5,3.5s1.57,3.5,3.5,3.5s3.5-1.57,3.5-3.5S13.93,8.5,12,8.5z"/>
<path style="fill:#333333;" d="M17.5,7.5c0.552,0,1-0.448,1-1s-0.448-1-1-1s-1,0.448-1,1S16.948,7.5,17.5,7.5z"/>
</svg>






