<?xml version="1.0" encoding="iso-8859-1"?>
<svg version="1.1" id="&#x56FE;&#x5C42;_1" xmlns="http://www.w3.org/2000/svg" xmlns:xlink="http://www.w3.org/1999/xlink" x="0px"
	 y="0px" viewBox="0 0 24 24" style="enable-background:new 0 0 24 24;" xml:space="preserve">
<path style="fill:#333333;" d="M20,16h-4.5v-1H20c0.275,0,0.5-0.225,0.5-0.5V4c0-0.276-0.225-0.5-0.5-0.5H9.5C9.224,3.5,9,3.724,9,4
	v4.5H8V4c0-0.827,0.673-1.5,1.5-1.5H20c0.827,0,1.5,0.673,1.5,1.5v10.5C21.5,15.327,20.827,16,20,16z"/>
<path style="fill:#333333;" d="M14.5,21.5H4c-0.827,0-1.5-0.673-1.5-1.5V9.5C2.5,8.673,3.173,8,4,8h4.5v1H4
	C3.724,9,3.5,9.224,3.5,9.5V20c0,0.275,0.224,0.5,0.5,0.5h10.5c0.275,0,0.5-0.225,0.5-0.5v-4.5h1V20
	C16,20.827,15.327,21.5,14.5,21.5z"/>
<path style="fill:#333333;" d="M14.5,16h-5C8.673,16,8,15.327,8,14.5v-5C8,8.673,8.673,8,9.5,8h5C15.327,8,16,8.673,16,9.5v5
	C16,15.327,15.327,16,14.5,16z M9.5,9C9.224,9,9,9.224,9,9.5v5C9,14.775,9.224,15,9.5,15h5c0.275,0,0.5-0.225,0.5-0.5v-5
	C15,9.224,14.775,9,14.5,9H9.5z"/>
</svg>






