<?xml version="1.0" encoding="iso-8859-1"?>
<svg version="1.1" id="&#x56FE;&#x5C42;_1" xmlns="http://www.w3.org/2000/svg" xmlns:xlink="http://www.w3.org/1999/xlink" x="0px"
	 y="0px" viewBox="0 0 24 24" style="enable-background:new 0 0 24 24;" xml:space="preserve">
<path style="fill:#333333;" d="M20,21.5H4c-0.827,0-1.5-0.673-1.5-1.5V4c0-0.827,0.673-1.5,1.5-1.5h16c0.827,0,1.5,0.673,1.5,1.5v16
	C21.5,20.827,20.827,21.5,20,21.5z M4,3.5C3.724,3.5,3.5,3.724,3.5,4v16c0,0.275,0.224,0.5,0.5,0.5h16c0.275,0,0.5-0.225,0.5-0.5V4
	c0-0.276-0.225-0.5-0.5-0.5H4z"/>
<path style="fill:#333333;" d="M21.5,10.5h-8v-8H20c0.827,0,1.5,0.673,1.5,1.5V10.5z M14.5,9.5h6V4c0-0.276-0.225-0.5-0.5-0.5h-5.5
	V9.5z"/>
<polygon style="fill:#333333;" points="10,18 6.5,18 6.5,17.5 6,17.5 6,14 7,14 7,16.293 11.146,12.146 11.854,12.854 7.707,17 
	10,17 "/>
</svg>






