<?xml version="1.0" encoding="iso-8859-1"?>
<svg version="1.1" id="&#x56FE;&#x5C42;_1" xmlns="http://www.w3.org/2000/svg" xmlns:xlink="http://www.w3.org/1999/xlink" x="0px"
	 y="0px" viewBox="0 0 24 24" style="enable-background:new 0 0 24 24;" xml:space="preserve">
<path style="fill:#333333;" d="M12,22.5C6.21,22.5,1.5,17.79,1.5,12C1.5,6.21,6.21,1.5,12,1.5c5.79,0,10.5,4.71,10.5,10.5
	C22.5,17.79,17.79,22.5,12,22.5z M12,2.5c-5.238,0-9.5,4.262-9.5,9.5s4.262,9.5,9.5,9.5s9.5-4.262,9.5-9.5S17.238,2.5,12,2.5z"/>
<path style="fill:#333333;" d="M4.701,16.387c-0.543,0-1.173-0.144-1.887-0.43l0.372-0.928c1.115,0.445,1.897,0.479,2.319,0.095
	c0.25-0.229,0.304-0.842,0.356-1.435c0.083-0.938,0.177-2.002,1.076-2.492c0.814-0.444,1.667,0.108,2.492,0.642
	c0.979,0.634,1.667,1.025,2.303,0.668c0.611-0.341,0.564-0.977,0.438-1.986c-0.111-0.885-0.237-1.888,0.516-2.542
	c0.64-0.556,1.339-0.605,1.901-0.645c0.688-0.048,0.874-0.061,0.969-0.668c0.094-0.596-0.023-0.665-0.409-0.895
	c-0.391-0.232-0.979-0.583-1.159-1.58c-0.245-1.359-0.261-2.129,0.354-2.305l0.275,0.962c0.141-0.041,0.215-0.146,0.229-0.192
	c-0.008,0.025-0.069,0.277,0.126,1.358c0.099,0.548,0.345,0.694,0.687,0.897c0.457,0.272,1.083,0.645,0.886,1.908
	c-0.218,1.395-1.183,1.462-1.888,1.512c-0.477,0.034-0.928,0.065-1.314,0.402c-0.326,0.284-0.286,0.818-0.18,1.663
	c0.128,1.023,0.288,2.296-0.942,2.984c-1.208,0.674-2.387-0.089-3.334-0.702c-0.58-0.375-1.181-0.762-1.47-0.604
	c-0.429,0.233-0.492,0.947-0.559,1.702c-0.069,0.784-0.141,1.595-0.679,2.085C5.796,16.212,5.302,16.387,4.701,16.387z"/>
<path style="fill:#333333;" d="M14.153,22.024c-1.072-1.097-1.452-2.164-1.132-3.175c0.265-0.83,0.642-1.174,0.944-1.45
	c0.187-0.171,0.31-0.283,0.39-0.499c0.049-0.131,0.04-0.326,0.031-0.552c-0.028-0.676-0.07-1.696,1.463-2.5
	c1.411-0.742,3.199-0.008,5.464,2.244l-0.705,0.709c-1.298-1.29-3.097-2.694-4.294-2.068c-0.973,0.511-0.953,0.979-0.929,1.574
	c0.013,0.306,0.025,0.621-0.093,0.94c-0.164,0.443-0.424,0.681-0.653,0.89c-0.259,0.236-0.482,0.44-0.665,1.015
	c-0.203,0.64,0.089,1.351,0.894,2.173L14.153,22.024z"/>
</svg>






