<?xml version="1.0" encoding="iso-8859-1"?>
<svg version="1.1" id="&#x56FE;&#x5C42;_1" xmlns="http://www.w3.org/2000/svg" xmlns:xlink="http://www.w3.org/1999/xlink" x="0px"
	 y="0px" viewBox="0 0 24 24" style="enable-background:new 0 0 24 24;" xml:space="preserve">
<path style="fill:#333333;" d="M20.5,22.5h-17v-21h12.229L20.5,7.065V22.5z M4.5,21.5h15V7.435L15.271,2.5H4.5V21.5z"/>
<path style="fill:#333333;" d="M12,18c-3.033,0-5.5-2.468-5.5-5.5C6.5,9.467,8.967,7,12,7c1.41,0,2.751,0.533,3.776,1.501
	C16.872,9.536,17.5,10.994,17.5,12.5C17.5,15.532,15.032,18,12,18z M12,8c-2.481,0-4.5,2.019-4.5,4.5S9.519,17,12,17
	s4.5-2.019,4.5-4.5c0-1.25-0.501-2.413-1.411-3.272C14.251,8.436,13.154,8,12,8z"/>
<rect x="11.5" y="7.55" transform="matrix(0.7071 -0.7071 0.7071 0.7071 -5.3241 12.1464)" style="fill:#333333;" width="1" height="9.899"/>
<path style="fill:#333333;" d="M12,18v-1c2.481,0,4.5-2.019,4.5-4.5h1C17.5,15.532,15.032,18,12,18z M7.5,12.5h-1
	C6.5,9.467,8.967,7,12,7v1C9.519,8,7.5,10.019,7.5,12.5z"/>
</svg>






