<?xml version="1.0" encoding="iso-8859-1"?>
<svg version="1.1" id="&#x56FE;&#x5C42;_1" xmlns="http://www.w3.org/2000/svg" xmlns:xlink="http://www.w3.org/1999/xlink" x="0px"
	 y="0px" viewBox="0 0 24 24" style="enable-background:new 0 0 24 24;" xml:space="preserve">
<path style="fill:#333333;" d="M21.5,12.27l-1-0.038c0.009-0.25,0.146-6.161-5.913-8.259c-6.048-2.094-9.523,3.08-9.668,3.301
	L4.081,6.727c0.04-0.061,4.048-6.05,10.832-3.7C21.686,5.372,21.502,12.2,21.5,12.27z"/>
<path style="fill:#333333;" d="M12.303,21.592c-0.823,0-1.715-0.108-2.678-0.357C2.582,19.408,2.5,12.074,2.5,12l1,0
	c0.001,0.27,0.091,6.637,6.375,8.266c6.279,1.633,9.07-3.295,9.186-3.506l0.877,0.479C19.911,17.29,17.496,21.592,12.303,21.592z"/>
<rect x="20.5" y="4" style="fill:#333333;" width="1" height="8"/>
<rect x="2.5" y="12" style="fill:#333333;" width="1" height="8"/>
<path style="fill:#333333;" d="M13.5,14.5h-7v-5h7V14.5z M7.5,13.5h5v-3h-5V13.5z"/>
<polygon style="fill:#333333;" points="16.723,14.416 15.5,13.601 15.5,10.399 16.723,9.584 17.5,10 17.5,14 "/>
</svg>






