<?xml version="1.0" encoding="iso-8859-1"?>
<svg version="1.1" id="&#x56FE;&#x5C42;_1" xmlns="http://www.w3.org/2000/svg" xmlns:xlink="http://www.w3.org/1999/xlink" x="0px"
	 y="0px" viewBox="0 0 24 24" style="enable-background:new 0 0 24 24;" xml:space="preserve">
<polygon style="fill:#333333;" points="7,22.5 1.5,22.5 1.5,17 2.5,17 2.5,21.5 7,21.5 "/>
<polygon style="fill:#333333;" points="22.5,22.5 17,22.5 17,21.5 21.5,21.5 21.5,17 22.5,17 "/>
<polygon style="fill:#333333;" points="22.5,7 21.5,7 21.5,2.5 17,2.5 17,1.5 22.5,1.5 "/>
<polygon style="fill:#333333;" points="2.5,7 1.5,7 1.5,1.5 7,1.5 7,2.5 2.5,2.5 "/>
<path style="fill:#333333;" d="M12,19c-2.676,0-4.286-1.579-4.354-1.646l0.706-0.708C8.366,16.659,9.752,18,12,18
	c2.247,0,3.634-1.341,3.647-1.354l0.706,0.708C16.286,17.421,14.677,19,12,19z"/>
<path style="fill:#333333;" d="M10,14H9.5v-1H10c0.729,0,1.5-0.771,1.5-1.5V7h1v4.5C12.5,12.785,11.285,14,10,14z"/>
<rect x="16.5" y="7" style="fill:#333333;" width="1" height="1"/>
<rect x="6.5" y="7" style="fill:#333333;" width="1" height="1"/>
</svg>






