<?xml version="1.0" encoding="iso-8859-1"?>
<svg version="1.1" id="&#x56FE;&#x5C42;_1" xmlns="http://www.w3.org/2000/svg" xmlns:xlink="http://www.w3.org/1999/xlink" x="0px"
	 y="0px" viewBox="0 0 24 24" style="enable-background:new 0 0 24 24;" xml:space="preserve">
<path style="fill:#333333;" d="M22.566,20.5H1.5V20c0-4.687,3.813-8.5,8.5-8.5h11.441L22.566,20.5z M2.517,19.5h18.917l-0.875-7H10
	C6.033,12.5,2.775,15.597,2.517,19.5z"/>
<polygon style="fill:#333333;" points="20.504,12.062 19.559,4.5 8,4.5 8,3.5 20.441,3.5 21.496,11.938 "/>
<path style="fill:#333333;" d="M12,17c-2.757,0-5-2.243-5-5s2.243-5,5-5s5,2.243,5,5S14.757,17,12,17z M12,8c-2.206,0-4,1.794-4,4
	c0,2.206,1.794,4,4,4c2.206,0,4-1.794,4-4C16,9.794,14.206,8,12,8z"/>
<rect x="11.5" y="10.586" transform="matrix(0.7071 -0.7071 0.7071 0.7071 -4.9706 12)" style="fill:#333333;" width="1" height="2.828"/>
<rect x="10.586" y="11.5" transform="matrix(0.7071 -0.7071 0.7071 0.7071 -4.9706 12)" style="fill:#333333;" width="2.828" height="1"/>
</svg>






