<?xml version="1.0" encoding="iso-8859-1"?>
<svg version="1.1" id="&#x56FE;&#x5C42;_1" xmlns="http://www.w3.org/2000/svg" xmlns:xlink="http://www.w3.org/1999/xlink" x="0px"
	 y="0px" viewBox="0 0 24 24" style="enable-background:new 0 0 24 24;" xml:space="preserve">
<path style="fill:#333333;" d="M18.5,18.5h-14v-13h14V18.5z M5.5,17.5h12v-11h-12V17.5z"/>
<path style="fill:#333333;" d="M11.5,14.5C10.122,14.5,9,13.379,9,12c0-1.378,1.122-2.5,2.5-2.5c1.379,0,2.5,1.122,2.5,2.5
	C14,13.379,12.879,14.5,11.5,14.5z M11.5,10.5c-0.827,0-1.5,0.673-1.5,1.5s0.673,1.5,1.5,1.5S13,12.827,13,12S12.327,10.5,11.5,10.5
	z"/>
<path style="fill:#333333;" d="M15.013,6.003l-0.804-3.5L8.82,2.5L8,6.003L7,6c0-0.075,0.008-0.15,0.025-0.222L7.829,2.28
	C7.935,1.82,8.342,1.5,8.82,1.5h5.371c0.479,0,0.886,0.32,0.992,0.779l0.804,3.5L15.013,6.003z"/>
<path style="fill:#333333;" d="M14.191,22.5H8.82c-0.478,0-0.886-0.32-0.992-0.779l-0.804-3.5C7.009,18.151,7,18.076,7,18
	l0.999-0.007l0.804,3.503l5.388,0.004l0.821-3.504l0.975,0.225l-0.804,3.5C15.077,22.18,14.67,22.5,14.191,22.5z"/>
<rect x="19" y="8" style="fill:#333333;" width="1" height="2"/>
</svg>






