<?xml version="1.0" encoding="iso-8859-1"?>
<svg version="1.1" id="&#x56FE;&#x5C42;_1" xmlns="http://www.w3.org/2000/svg" xmlns:xlink="http://www.w3.org/1999/xlink" x="0px"
	 y="0px" viewBox="0 0 24 24" style="enable-background:new 0 0 24 24;" xml:space="preserve">
<path style="fill:#333333;" d="M12,22.5C6.21,22.5,1.5,17.79,1.5,12C1.5,6.21,6.21,1.5,12,1.5c5.79,0,10.5,4.71,10.5,10.5
	C22.5,17.79,17.79,22.5,12,22.5z M12,2.5c-5.238,0-9.5,4.262-9.5,9.5s4.262,9.5,9.5,9.5s9.5-4.262,9.5-9.5S17.238,2.5,12,2.5z"/>
<path style="fill:#333333;" d="M12,17c-1.043-0.131-2.5-1.566-2.5-5c0-3.451,1.493-4.757,2.375-4.984l0.097-0.025l0.099,0.015
	C12.911,7.127,14.5,8.327,14.5,12C14.5,15.643,12.967,17,12,17z M12.021,8.021C11.516,8.242,10.5,9.253,10.5,12
	c0,2.9,1.146,3.95,1.564,4.004C12.331,16,13.5,15.042,13.5,12C13.5,9.107,12.445,8.184,12.021,8.021z"/>
<path style="fill:#333333;" d="M12,17c-2.762,0-3.878-0.625-5.205-1.938c-1.077-1.066-1.57-3.13-1.277-4.195l0.091-0.331
	l0.341-0.034c2.264-0.225,3.744-0.008,4.401,0.642l-0.704,0.71c-0.297-0.294-1.293-0.54-3.212-0.392
	c-0.036,0.797,0.326,2.159,1.063,2.888C8.672,15.514,9.558,16,12,16V17z"/>
<path style="fill:#333333;" d="M12,17v-1c0.91,0,2.906-0.294,3.948-1.406c0.961-1.025,1.146-2.342,1.103-3.134
	c-1.946-0.159-2.523,0.209-2.686,0.382l-0.73-0.684c0.615-0.657,1.896-0.872,3.918-0.655l0.37,0.04l0.068,0.366
	c0.172,0.918,0.089,2.872-1.312,4.369C15.083,16.98,12.125,17,12,17z"/>
</svg>






