<?xml version="1.0" encoding="iso-8859-1"?>
<svg version="1.1" id="&#x56FE;&#x5C42;_1" xmlns="http://www.w3.org/2000/svg" xmlns:xlink="http://www.w3.org/1999/xlink" x="0px"
	 y="0px" viewBox="0 0 24 24" style="enable-background:new 0 0 24 24;" xml:space="preserve">
<g>
	<defs>
		<rect id="SVGID_1_" width="24" height="24"/>
	</defs>
	<clipPath id="SVGID_00000176731114198862036240000010441090863254022528_">
		<use xlink:href="#SVGID_1_"  style="overflow:visible;"/>
	</clipPath>
	<g style="clip-path:url(#SVGID_00000176731114198862036240000010441090863254022528_);">
		<path style="fill:#333333;" d="M12,20.5c-4.411,0-8-3.589-8-8s3.589-8,8-8s8,3.589,8,8S16.411,20.5,12,20.5z M12,5.5
			c-3.86,0-7,3.14-7,7c0,3.859,3.14,7,7,7c3.859,0,7-3.141,7-7C19,8.64,15.859,5.5,12,5.5z"/>
		<path style="fill:#333333;" d="M6.39,12.942c-0.722,0-1.454-0.139-2.128-0.503l0.476-0.879c1.704,0.92,4.221-0.066,5.108-0.658
			c0.67-0.447,0.618-0.668,0.53-1.035c-0.05-0.208-0.112-0.468-0.042-0.751c0.091-0.368,0.318-0.613,0.501-0.811
			c0.214-0.231,0.327-0.364,0.346-0.619c0.055-0.758-0.744-1.37-1.424-1.75l0.487-0.873c1.692,0.945,1.986,1.987,1.934,2.695
			c-0.045,0.617-0.372,0.969-0.61,1.227c-0.146,0.157-0.236,0.259-0.264,0.37c-0.012,0.047,0.019,0.175,0.044,0.278
			c0.147,0.613,0.207,1.331-0.947,2.1C9.791,12.141,8.124,12.942,6.39,12.942z"/>
		<path style="fill:#333333;" d="M3.871,18.949c-0.245,0-0.475-0.021-0.689-0.063c-0.724-0.146-1.284-0.54-1.618-1.143
			c-1.171-2.109,1.367-4.938,2.92-5.917l0.533,0.846c-1.512,0.952-3.312,3.266-2.579,4.584c0.193,0.349,0.501,0.561,0.94,0.648
			c1.838,0.369,5.6-1.47,9.812-4.798c4.106-3.244,6.304-7.688,7.099-9.567l-1.66,0.442l-0.258-0.966l2.614-0.697l0.604,0.641
			C21.5,3.226,19.363,9.505,13.81,13.893C9.688,17.149,6.131,18.949,3.871,18.949z"/>
		<path style="fill:#333333;" d="M13.497,20.051l-0.994-0.101c0.011-0.11,0.291-2.718,2.172-4.33C16.544,14.019,18.9,14,19,14
			l0.001,1c-0.021,0-2.095,0.024-3.676,1.38C13.755,17.727,13.5,20.027,13.497,20.051z"/>
	</g>
</g>
</svg>






