<?xml version="1.0" encoding="iso-8859-1"?>
<svg version="1.1" id="&#x56FE;&#x5C42;_1" xmlns="http://www.w3.org/2000/svg" xmlns:xlink="http://www.w3.org/1999/xlink" x="0px"
	 y="0px" viewBox="0 0 24 24" style="enable-background:new 0 0 24 24;" xml:space="preserve">
<path style="fill:#333333;" d="M22.5,22h-21v-6h21V22z M2.5,21h19v-4h-19V21z"/>
<path style="fill:#333333;" d="M19.5,17h-7v-4.5h7V17z M13.5,16h5v-2.5h-5V16z"/>
<path style="fill:#333333;" d="M9,7.5c-1.654,0-3-1.346-3-3s1.346-3,3-3s3,1.346,3,3S10.654,7.5,9,7.5z M9,2.5c-1.103,0-2,0.897-2,2
	s0.897,2,2,2s2-0.897,2-2S10.103,2.5,9,2.5z"/>
<rect x="1.188" y="11.25" transform="matrix(0.3457 -0.9384 0.9384 0.3457 -6.9361 13.5532)" style="fill:#333333;" width="10.124" height="1"/>
</svg>






