<?xml version="1.0" encoding="iso-8859-1"?>
<svg version="1.1" id="&#x56FE;&#x5C42;_1" xmlns="http://www.w3.org/2000/svg" xmlns:xlink="http://www.w3.org/1999/xlink" x="0px"
	 y="0px" viewBox="0 0 24 24" style="enable-background:new 0 0 24 24;" xml:space="preserve">
<path style="fill:#333333;" d="M16.057,22.5H7.943l-0.99-11h10.094L16.057,22.5z M8.857,21.5h6.286l0.811-9H8.047L8.857,21.5z"/>
<path style="fill:#333333;" d="M17,12.5H7c-1.103,0-2-0.897-2-2s0.897-2,2-2h10c1.103,0,2,0.897,2,2S18.103,12.5,17,12.5z M7,9.5
	c-0.551,0-1,0.449-1,1s0.449,1,1,1h10c0.552,0,1-0.449,1-1s-0.448-1-1-1H7z"/>
<path style="fill:#333333;" d="M17.5,9.5h-11V9c0-3.033,2.467-5.5,5.5-5.5c3.032,0,5.5,2.467,5.5,5.5V9.5z M7.528,8.5h8.945
	c-0.25-2.247-2.16-4-4.473-4S7.777,6.253,7.528,8.5z"/>
<rect x="12.382" y="2.5" transform="matrix(0.4472 -0.8944 0.8944 0.4472 4.7793 13.7331)" style="fill:#333333;" width="2.236" height="1"/>
</svg>






