<?xml version="1.0" encoding="iso-8859-1"?>
<svg version="1.1" id="&#x56FE;&#x5C42;_1" xmlns="http://www.w3.org/2000/svg" xmlns:xlink="http://www.w3.org/1999/xlink" x="0px"
	 y="0px" viewBox="0 0 24 24" style="enable-background:new 0 0 24 24;" xml:space="preserve">
<polygon style="fill:#333333;" points="5.848,22.273 5.01,21.727 9.5,14.836 9.5,10.357 3.675,5.38 4.325,4.62 10.5,9.896 
	10.5,15.133 "/>
<polygon style="fill:#333333;" points="18.152,22.273 13.5,15.133 13.5,9.896 19.675,4.62 20.325,5.38 14.5,10.357 14.5,14.836 
	18.99,21.727 "/>
<path style="fill:#333333;" d="M12,6.5c-1.378,0-2.5-1.122-2.5-2.5s1.122-2.5,2.5-2.5c1.379,0,2.5,1.122,2.5,2.5S13.379,6.5,12,6.5z
	 M12,2.5c-0.827,0-1.5,0.673-1.5,1.5s0.673,1.5,1.5,1.5s1.5-0.673,1.5-1.5S12.827,2.5,12,2.5z"/>
</svg>






