<?xml version="1.0" encoding="iso-8859-1"?>
<svg version="1.1" id="&#x56FE;&#x5C42;_1" xmlns="http://www.w3.org/2000/svg" xmlns:xlink="http://www.w3.org/1999/xlink" x="0px"
	 y="0px" viewBox="0 0 24 24" style="enable-background:new 0 0 24 24;" xml:space="preserve">
<path style="fill:#333333;" d="M21.442,22.286H2.83v-4.409h18.612V22.286z M3.81,21.306h16.652v-2.448H3.81V21.306z"/>
<path style="fill:#333333;" d="M5.767,17.917l-0.977-0.078l0.633-7.957c0.021-0.261-0.066-0.523-0.237-0.72L1.971,5.464l0.37-0.811
	h16.126l1.015,13.188l-0.977,0.074L17.561,5.633H3.416l2.51,2.886C6.269,8.913,6.442,9.438,6.4,9.96L5.767,17.917z"/>
<rect x="10.667" y="8.571" style="fill:#333333;" width="2.449" height="0.979"/>
<rect x="10.667" y="11.51" style="fill:#333333;" width="2.449" height="0.98"/>
<rect x="10.667" y="14.448" style="fill:#333333;" width="2.449" height="0.98"/>
<polygon style="fill:#333333;" points="22.422,13.47 18.993,13.47 18.993,12.489 21.441,12.489 21.441,5.633 18.014,5.633 
	18.014,4.653 22.422,4.653 "/>
<polygon style="fill:#333333;" points="14.586,4.653 13.605,4.653 13.605,2.694 10.177,2.694 10.177,4.653 9.197,4.653 9.197,1.714 
	14.586,1.714 "/>
</svg>






