<?xml version="1.0" encoding="iso-8859-1"?>
<svg version="1.1" id="&#x56FE;&#x5C42;_1" xmlns="http://www.w3.org/2000/svg" xmlns:xlink="http://www.w3.org/1999/xlink" x="0px"
	 y="0px" viewBox="0 0 24 24" style="enable-background:new 0 0 24 24;" xml:space="preserve">
<g>
	<defs>
		<rect id="SVGID_1_" width="24" height="24"/>
	</defs>
	<clipPath id="SVGID_00000154428269595673585050000013068281625066636687_">
		<use xlink:href="#SVGID_1_"  style="overflow:visible;"/>
	</clipPath>
	<g style="clip-path:url(#SVGID_00000154428269595673585050000013068281625066636687_);">
		<path style="fill:#333333;" d="M7.5,21C5.019,21,3,18.981,3,16.5S5.019,12,7.5,12s4.5,2.019,4.5,4.5S9.981,21,7.5,21z M7.5,13
			C5.57,13,4,14.57,4,16.5S5.57,20,7.5,20s3.5-1.57,3.5-3.5S9.43,13,7.5,13z"/>
		
			<rect x="15.625" y="7.289" transform="matrix(0.6783 -0.7348 0.7348 0.6783 -1.7929 14.905)" style="fill:#333333;" width="0.999" height="4.423"/>
		
			<rect x="7.876" y="7.75" transform="matrix(0.6664 -0.7456 0.7456 0.6664 -1.3975 13.3764)" style="fill:#333333;" width="12.748" height="1"/>
		
			<rect x="18.75" y="4.737" transform="matrix(0.6805 -0.7328 0.7328 0.6805 0.9302 16.3831)" style="fill:#333333;" width="0.999" height="4.776"/>
	</g>
</g>
</svg>






