<?xml version="1.0" encoding="iso-8859-1"?>
<svg version="1.1" id="&#x56FE;&#x5C42;_1" xmlns="http://www.w3.org/2000/svg" xmlns:xlink="http://www.w3.org/1999/xlink" x="0px"
	 y="0px" viewBox="0 0 24 24" style="enable-background:new 0 0 24 24;" xml:space="preserve">
<path style="fill:#333333;" d="M7.944,21.122c-1.447,0-2.862-0.571-3.902-1.621c-2.066-2.128-2.037-5.557,0.063-7.646
	c2.098-2.087,5.541-2.117,7.675-0.065l0.004,0.002c1.396,1.371,1.951,3.393,1.448,5.28c-0.505,1.886-1.994,3.368-3.888,3.868
	C8.882,21.062,8.412,21.122,7.944,21.122z M7.977,11.269c-1.15,0-2.299,0.433-3.167,1.296c-1.713,1.705-1.738,4.503-0.054,6.236
	c1.121,1.132,2.783,1.579,4.333,1.173c1.548-0.409,2.766-1.62,3.177-3.159c0.41-1.538-0.042-3.188-1.18-4.306
	C10.224,11.681,9.1,11.269,7.977,11.269z"/>
<rect x="9.74" y="7.25" transform="matrix(0.7071 -0.7071 0.7071 0.7071 -0.867 13.4069)" style="fill:#333333;" width="12.021" height="1"/>
<path style="fill:#333333;" d="M17.867,11.855L14.443,8.45l3.876-3.855L21.742,8L17.867,11.855z M15.861,8.45l2.006,1.995L20.324,8
	l-2.005-1.995L15.861,8.45z"/>
</svg>






