<?xml version="1.0" encoding="iso-8859-1"?>
<svg version="1.1" id="&#x56FE;&#x5C42;_1" xmlns="http://www.w3.org/2000/svg" xmlns:xlink="http://www.w3.org/1999/xlink" x="0px"
	 y="0px" viewBox="0 0 24 24" style="enable-background:new 0 0 24 24;" xml:space="preserve">
<path style="fill:#333333;" d="M12,22.5C6.21,22.5,1.5,17.79,1.5,12C1.5,6.21,6.21,1.5,12,1.5c5.79,0,10.5,4.71,10.5,10.5
	C22.5,17.79,17.79,22.5,12,22.5z M12,2.5c-5.238,0-9.5,4.262-9.5,9.5s4.262,9.5,9.5,9.5s9.5-4.262,9.5-9.5S17.238,2.5,12,2.5z"/>
<path style="fill:#333333;" d="M14.566,16.5H9.434l0.536-4.291C9.35,11.643,9,10.853,9,10c0-1.654,1.346-3,3-3s3,1.346,3,3
	c0,0.853-0.351,1.643-0.97,2.209L14.566,16.5z M10.566,15.5h2.867l-0.466-3.726L13.2,11.6c0.508-0.382,0.8-0.965,0.8-1.6
	c0-1.103-0.897-2-2-2c-1.103,0-2,0.897-2,2c0,0.635,0.292,1.218,0.8,1.6l0.232,0.174L10.566,15.5z"/>
</svg>






