<?xml version="1.0" encoding="iso-8859-1"?>
<svg version="1.1" id="&#x56FE;&#x5C42;_1" xmlns="http://www.w3.org/2000/svg" xmlns:xlink="http://www.w3.org/1999/xlink" x="0px"
	 y="0px" viewBox="0 0 24 24" style="enable-background:new 0 0 24 24;" xml:space="preserve">
<path style="fill:#333333;" d="M21.5,21.5h-19v-19h19V21.5z M3.5,20.5h17v-17h-17V20.5z"/>
<path style="fill:#333333;" d="M12,18.5c-3.584,0-6.5-2.916-6.5-6.5S8.416,5.5,12,5.5s6.5,2.916,6.5,6.5S15.584,18.5,12,18.5z
	 M12,6.5c-3.033,0-5.5,2.467-5.5,5.5c0,3.032,2.467,5.5,5.5,5.5c3.032,0,5.5-2.468,5.5-5.5C17.5,8.967,15.032,6.5,12,6.5z"/>
<rect x="11.5" y="-2.142" transform="matrix(0.7071 -0.7071 0.7071 0.7071 -4.9706 12)" style="fill:#333333;" width="1" height="28.284"/>
<rect x="-2.142" y="11.5" transform="matrix(0.7071 -0.7071 0.7071 0.7071 -4.9706 12)" style="fill:#333333;" width="28.284" height="1"/>
</svg>






