<?xml version="1.0" encoding="iso-8859-1"?>
<svg version="1.1" id="&#x56FE;&#x5C42;_1" xmlns="http://www.w3.org/2000/svg" xmlns:xlink="http://www.w3.org/1999/xlink" x="0px"
	 y="0px" viewBox="0 0 24 24" style="enable-background:new 0 0 24 24;" xml:space="preserve">
<path style="fill:#333333;" d="M9,22.75c-1.242,0-2.5-0.944-2.5-2.75v-5h1v5c0,1.209,0.753,1.75,1.5,1.75s1.5-0.541,1.5-1.75v-5h1v5
	C11.5,21.806,10.242,22.75,9,22.75z"/>
<rect x="7" y="18" style="fill:#333333;" width="4" height="1"/>
<path style="fill:#333333;" d="M16.934,15.5H6.5V3c0-0.827,0.673-1.5,1.5-1.5h8.317c0.282,0,0.539,0.08,0.743,0.232
	c0.592,0.442,2.014,1.833,2.436,5.206c0.403,3.22-0.722,6.442-1.224,7.678C18.054,15.153,17.528,15.5,16.934,15.5z M7.5,14.5h9.434
	c0.187,0,0.349-0.103,0.413-0.261c0.473-1.163,1.531-4.19,1.157-7.177c-0.385-3.075-1.66-4.244-2.041-4.528
	C16.434,2.512,16.382,2.5,16.317,2.5H8C7.724,2.5,7.5,2.724,7.5,3V14.5z"/>
<circle style="fill:#333333;" cx="11" cy="5" r="1"/>
</svg>






