<?xml version="1.0" encoding="iso-8859-1"?>
<svg version="1.1" id="&#x56FE;&#x5C42;_1" xmlns="http://www.w3.org/2000/svg" xmlns:xlink="http://www.w3.org/1999/xlink" x="0px"
	 y="0px" viewBox="0 0 24 24" style="enable-background:new 0 0 24 24;" xml:space="preserve">
<rect x="6.5" y="2" style="fill:#333333;" width="1" height="20"/>
<path style="fill:#333333;" d="M7,10.5c-1.21,0-3.5-0.627-3.5-3v-5h1v5c0,1.977,2.398,2,2.5,2c0.101,0,2.5-0.035,2.5-2v-5h1v5
	C10.5,9.873,8.21,10.5,7,10.5z"/>
<path style="fill:none;" d="M15,6c0-4,4-4,4-4v8.5h-4V6z"/>
<path style="fill:#333333;" d="M19.5,22h-1V11h-4V6c0-3.56,2.943-4.5,4.5-4.5h0.5V22z M15.5,10h3V2.546
	c-0.971,0.148-3,0.779-3,3.454V10z"/>
</svg>






