<?xml version="1.0" encoding="iso-8859-1"?>
<svg version="1.1" id="&#x56FE;&#x5C42;_1" xmlns="http://www.w3.org/2000/svg" xmlns:xlink="http://www.w3.org/1999/xlink" x="0px"
	 y="0px" viewBox="0 0 24 24" style="enable-background:new 0 0 24 24;" xml:space="preserve">
<path style="fill:#333333;" d="M12,21c-4.411,0-8-3.589-8-8s3.589-8,8-8s8,3.589,8,8S16.411,21,12,21z M12,6c-3.86,0-7,3.14-7,7
	c0,3.859,3.14,7,7,7c3.859,0,7-3.141,7-7C19,9.14,15.859,6,12,6z"/>
<path style="fill:#333333;" d="M12,18c-1.103,0-2-0.995-2-2.219c0-1.021,1.298-3.524,1.558-4.015h0.883
	C12.702,12.257,14,14.76,14,15.781C14,17.005,13.103,18,12,18z M12,13.11c-0.502,1.042-1,2.234-1,2.671C11,16.453,11.449,17,12,17
	c0.552,0,1-0.547,1-1.219C13,15.345,12.502,14.152,12,13.11z"/>
<circle style="fill:#333333;" cx="8.52" cy="11.747" r="1"/>
<circle style="fill:#333333;" cx="15.52" cy="11.747" r="1"/>
<path style="fill:#333333;" d="M2.617,12.286L2.393,11.67C1.047,7.962,1.369,5.089,2.355,4.269c0.593-0.61,1.525-0.875,2.655-0.73
	c1.564,0.199,3.361,1.196,3.923,2.176L8.066,6.212C7.744,5.651,6.344,4.716,4.884,4.53C4.32,4.458,3.542,4.482,3.032,5.002
	C2.635,5.336,2.025,7.287,3.12,10.706l1.591-1.125l0.577,0.816L2.617,12.286z"/>
<path style="fill:#333333;" d="M21.383,12.286l-2.671-1.888l0.576-0.816l1.592,1.124c1.096-3.419,0.487-5.368,0.125-5.669
	c-0.546-0.555-1.323-0.576-1.889-0.507c-1.46,0.186-2.86,1.121-3.183,1.683l-0.867-0.498c0.562-0.98,2.359-1.977,3.923-2.176
	c1.134-0.146,2.062,0.121,2.693,0.765c0.948,0.786,1.27,3.659-0.076,7.367L21.383,12.286z"/>
</svg>






