<?xml version="1.0" encoding="iso-8859-1"?>
<svg version="1.1" id="&#x56FE;&#x5C42;_1" xmlns="http://www.w3.org/2000/svg" xmlns:xlink="http://www.w3.org/1999/xlink" x="0px"
	 y="0px" viewBox="0 0 24 24" style="enable-background:new 0 0 24 24;" xml:space="preserve">
<rect x="8.5" y="8" style="fill:#333333;" width="9" height="1"/>
<rect x="7.5" y="12.5" style="fill:#333333;" width="9" height="1"/>
<rect x="6" y="17" style="fill:#333333;" width="9" height="1"/>
<path style="fill:#333333;" d="M4.978,21.647l-0.955-0.295L9.674,3.058C9.869,2.425,10.445,2,11.107,2h7.081
	c0.472,0,0.906,0.215,1.192,0.59c0.286,0.375,0.379,0.852,0.254,1.307l-4.87,17.736L13.8,21.367l4.87-17.735
	c0.042-0.152,0.011-0.311-0.084-0.436C18.49,3.072,18.346,3,18.188,3h-7.081c-0.221,0-0.413,0.142-0.478,0.353L4.978,21.647z"/>
<rect x="9" y="8.917" transform="matrix(0.9864 -0.1644 0.1644 0.9864 -2.3367 1.7659)" style="fill:#333333;" width="1" height="12.166"/>
<rect x="18" y="8.917" transform="matrix(0.9864 -0.1644 0.1644 0.9864 -2.2143 3.2455)" style="fill:#333333;" width="1" height="12.166"/>
</svg>






