<?xml version="1.0" encoding="iso-8859-1"?>
<svg version="1.1" id="&#x56FE;&#x5C42;_1" xmlns="http://www.w3.org/2000/svg" xmlns:xlink="http://www.w3.org/1999/xlink" x="0px"
	 y="0px" viewBox="0 0 24 24" style="enable-background:new 0 0 24 24;" xml:space="preserve">
<path style="fill:#333333;" d="M11,11H6.5V4.75c0-1.241,1.009-2.25,2.25-2.25S11,3.509,11,4.75V11z M7.5,10H10V4.75
	C10,4.061,9.439,3.5,8.75,3.5S7.5,4.061,7.5,4.75V10z"/>
<path style="fill:#333333;" d="M17.5,11H13V4.75c0-1.241,1.01-2.25,2.25-2.25s2.25,1.009,2.25,2.25V11z M14,10h2.5V4.75
	c0-0.689-0.561-1.25-1.25-1.25S14,4.061,14,4.75V10z"/>
<path style="fill:#333333;" d="M15.5,21.5h-7v-5h7V21.5z M9.5,20.5h5v-3h-5V20.5z"/>
<path style="fill:#333333;" d="M15,17.5H9c-2.481,0-4.5-2.019-4.5-4.5v-2c0-0.551,0.449-1,1-1h13c0.552,0,1,0.449,1,1v2
	C19.5,15.481,17.481,17.5,15,17.5z M5.5,11v2c0,1.93,1.57,3.5,3.5,3.5h6c1.93,0,3.5-1.57,3.5-3.5v-2H5.5z"/>
</svg>






