<?xml version="1.0" encoding="iso-8859-1"?>
<svg version="1.1" id="&#x56FE;&#x5C42;_1" xmlns="http://www.w3.org/2000/svg" xmlns:xlink="http://www.w3.org/1999/xlink" x="0px"
	 y="0px" viewBox="0 0 24 24" style="enable-background:new 0 0 24 24;" xml:space="preserve">
<path style="fill:#333333;" d="M18.25,22.5c-0.128,0-12.75-0.129-12.75-3c0-2,2.906-2,4-2c0.195-0.024,0.501-0.031,0.831-0.038
	c1.639-0.033,2.419-0.186,2.419-0.962c0-1.095-3.807-2-5.75-2v-1c0.885,0,6.75,0.56,6.75,3c0,1.894-2.128,1.937-3.399,1.962
	c-0.297,0.006-0.572,0.011-0.796,0.035C8.68,18.5,6.5,18.5,6.5,19.5c0,1.065,7.323,2,11.75,2V22.5z"/>
<path style="fill:#333333;" d="M3.006,18.014c-0.005-0.188-0.119-4.643,0.78-8.396C4.754,5.577,7.175,1.5,10.402,1.5
	C13.649,1.5,16,5.084,16,7.5h-1c0-1.967-1.975-5-4.598-5c-2.668,0-4.796,3.81-5.644,7.35c-0.868,3.624-0.754,8.092-0.752,8.137
	L3.006,18.014z"/>
<path style="fill:#333333;" d="M19.5,16.52c-0.001-0.024-0.103-2.495-0.487-4.156C18.637,10.737,17.647,9,16,9
	c-2.051,0-2.5,2.166-2.5,3h-1c0-1.608,0.932-4,3.5-4c2.233,0,3.524,2.137,3.987,4.137c0.406,1.755,0.508,4.238,0.513,4.344
	L19.5,16.52z"/>
</svg>






