<?xml version="1.0" encoding="iso-8859-1"?>
<svg version="1.1" id="&#x56FE;&#x5C42;_1" xmlns="http://www.w3.org/2000/svg" xmlns:xlink="http://www.w3.org/1999/xlink" x="0px"
	 y="0px" viewBox="0 0 24 24" style="enable-background:new 0 0 24 24;" xml:space="preserve">
<rect x="2.5" y="21" style="fill:#333333;" width="19" height="1"/>
<path style="fill:#333333;" d="M20,18c-2.018,0-16.504-4.509-18.149-5.022L1.5,12.867V6.995H2c0.988,0,2.787,2.362,3.288,3.049
	L10,10.901v-9.21l2.915,1.458l2.894,9.415l4.299,0.948C21.633,13.893,22.5,14.799,22.5,16C22.5,17.233,21.542,18,20,18z M2.5,12.132
	C7.173,13.587,18.462,17,20,17c0.685,0,1.5-0.174,1.5-1c0-0.917-0.882-1.33-1.621-1.515l-4.855-1.07l-2.938-9.563L11,3.309v8.79
	l-6.303-1.146L4.58,10.771C4.09,10.012,3.136,8.934,2.5,8.368V12.132z"/>
</svg>






