<?xml version="1.0" encoding="iso-8859-1"?>
<svg version="1.1" id="&#x56FE;&#x5C42;_1" xmlns="http://www.w3.org/2000/svg" xmlns:xlink="http://www.w3.org/1999/xlink" x="0px"
	 y="0px" viewBox="0 0 24 24" style="enable-background:new 0 0 24 24;" xml:space="preserve">
<path style="fill:#333333;" d="M20.5,16.5h-17v-11c0-1.103,0.897-2,2-2h13c1.103,0,2,0.897,2,2V16.5z M4.5,15.5h15v-10
	c0-0.551-0.448-1-1-1h-13c-0.551,0-1,0.449-1,1V15.5z"/>
<path style="fill:#333333;" d="M19,20.5H5c-1.93,0-3.5-1.57-3.5-3.5v-1.5h21V17C22.5,18.93,20.93,20.5,19,20.5z M2.5,16.5V17
	c0,1.379,1.122,2.5,2.5,2.5h14c1.379,0,2.5-1.121,2.5-2.5v-0.5H2.5z"/>
</svg>






