<?xml version="1.0" encoding="iso-8859-1"?>
<svg version="1.1" id="&#x56FE;&#x5C42;_1" xmlns="http://www.w3.org/2000/svg" xmlns:xlink="http://www.w3.org/1999/xlink" x="0px"
	 y="0px" viewBox="0 0 24 24" style="enable-background:new 0 0 24 24;" xml:space="preserve">
<path style="fill:#333333;" d="M20.5,16.5h-17C2.673,16.5,2,15.827,2,15V5c0-0.827,0.673-1.5,1.5-1.5h17C21.327,3.5,22,4.173,22,5
	v10C22,15.827,21.327,16.5,20.5,16.5z M3.5,4.5C3.224,4.5,3,4.724,3,5v10c0,0.275,0.224,0.5,0.5,0.5h17c0.275,0,0.5-0.225,0.5-0.5V5
	c0-0.276-0.225-0.5-0.5-0.5H3.5z"/>
<rect x="2" y="19.5" style="fill:#333333;" width="20" height="1"/>
<rect x="11" y="6.5" style="fill:#333333;" width="2" height="1"/>
</svg>






