<?xml version="1.0" encoding="iso-8859-1"?>
<svg version="1.1" id="&#x56FE;&#x5C42;_1" xmlns="http://www.w3.org/2000/svg" xmlns:xlink="http://www.w3.org/1999/xlink" x="0px"
	 y="0px" viewBox="0 0 24 24" style="enable-background:new 0 0 24 24;" xml:space="preserve">
<g>
	<defs>
		<rect id="SVGID_1_" width="24" height="24"/>
	</defs>
	<clipPath id="SVGID_00000010288076006500016040000015206798260434535353_">
		<use xlink:href="#SVGID_1_"  style="overflow:visible;"/>
	</clipPath>
	<g style="clip-path:url(#SVGID_00000010288076006500016040000015206798260434535353_);">
		<path style="fill:#333333;" d="M15.423,23.243l-5.182-5.183l0.02-4.337l-4.483-0.127L0.801,8.621l19.896-5.938l0.622,0.621
			L15.423,23.243z M11.243,17.648l3.698,3.698l5.157-17.442L2.693,9.099l3.509,3.509l5.062,0.143L11.243,17.648z"/>
		<path style="fill-rule:evenodd;clip-rule:evenodd;fill:#333333;" d="M13.768,7.445c-0.781,0.781-0.781,2.047,0,2.828
			c0.781,0.781,2.047,0.781,2.828,0c0.781-0.781,0.781-2.047,0-2.828C15.815,6.664,14.549,6.664,13.768,7.445z"/>
		
			<rect x="14.01" y="5.531" transform="matrix(0.7071 -0.7071 0.7071 0.7071 1.0103 14.5017)" style="fill:#333333;" width="8.001" height="1"/>
	</g>
</g>
</svg>






