<?xml version="1.0" encoding="iso-8859-1"?>
<svg version="1.1" id="&#x56FE;&#x5C42;_1" xmlns="http://www.w3.org/2000/svg" xmlns:xlink="http://www.w3.org/1999/xlink" x="0px"
	 y="0px" viewBox="0 0 24 24" style="enable-background:new 0 0 24 24;" xml:space="preserve">
<path style="fill:#333333;" d="M12,10.03L1.833,6.428l0.003-0.944L12,1.971l10.163,3.513l0.004,0.944L12,10.03z M3.514,5.963
	L12,8.97l8.486-3.007L12,3.029L3.514,5.963z"/>
<polygon style="fill:#333333;" points="12,14.029 1.835,10.472 2.165,9.528 12,12.971 21.835,9.528 22.165,10.472 "/>
<polygon style="fill:#333333;" points="12,18.029 1.835,14.472 2.165,13.528 12,16.971 21.835,13.528 22.165,14.472 "/>
<polygon style="fill:#333333;" points="12,22.029 1.835,18.472 2.165,17.528 12,20.971 21.835,17.528 22.165,18.472 "/>
</svg>






