<?xml version="1.0" encoding="iso-8859-1"?>
<svg version="1.1" id="&#x56FE;&#x5C42;_1" xmlns="http://www.w3.org/2000/svg" xmlns:xlink="http://www.w3.org/1999/xlink" x="0px"
	 y="0px" viewBox="0 0 24 24" style="enable-background:new 0 0 24 24;" xml:space="preserve">
<path style="fill:#333333;" d="M12.022,22.539l-0.19-0.068C11.764,22.446,5,19.948,5,12s6.764-10.447,6.833-10.471l0.19-0.068
	l0.185,0.084C12.274,1.576,19,4.715,19,12c0,7.284-6.726,10.425-6.793,10.455L12.022,22.539z M11.976,2.547
	C10.915,2.992,6,5.412,6,12c0,6.587,4.913,9.007,5.976,9.453C13.003,20.913,18,17.979,18,12C18,6.006,13.004,3.084,11.976,2.547z"/>
<rect x="11.482" y="16.25" transform="matrix(0.7071 -0.7071 0.7071 0.7071 -7.9632 14.2751)" style="fill:#333333;" width="3.536" height="1"/>
<rect x="10.25" y="11.482" transform="matrix(0.7071 -0.7071 0.7071 0.7071 -6.2206 11.4822)" style="fill:#333333;" width="1" height="3.536"/>
<rect x="11.482" y="9.75" transform="matrix(0.7071 -0.7071 0.7071 0.7071 -3.367 12.3713)" style="fill:#333333;" width="3.536" height="1"/>
<rect x="11.5" y="7" style="fill:#333333;" width="1" height="15"/>
</svg>






