<?xml version="1.0" encoding="iso-8859-1"?>
<svg version="1.1" id="&#x56FE;&#x5C42;_1" xmlns="http://www.w3.org/2000/svg" xmlns:xlink="http://www.w3.org/1999/xlink" x="0px"
	 y="0px" viewBox="0 0 24 24" style="enable-background:new 0 0 24 24;" xml:space="preserve">
<path style="fill:#333333;" d="M11.387,19.466c-0.329,0-0.625-0.023-0.881-0.056c-2.289-0.293-3.913-1.599-4.454-2.688
	c-0.988-1.99-1.138-3.765-0.444-5.272c0.737-1.603,2.476-2.854,4.77-3.435l0,0c4.279-1.083,8.847-4.487,10.274-5.874L21.5,2.5
	c0,7.686-1.963,11.994-3.123,13.328C15.754,18.846,13.113,19.466,11.387,19.466z M20.485,3.63c-2.249,1.878-6.305,4.454-9.863,5.354
	c-0.946,0.239-3.239,0.999-4.106,2.883c-0.561,1.22-0.416,2.703,0.431,4.409c0.44,0.886,1.847,1.905,3.685,2.141
	c1.708,0.224,4.312-0.166,6.99-3.246C18.566,14.087,20.307,10.328,20.485,3.63z"/>
<path style="fill:#333333;" d="M3.49,21.601L2.51,21.399c0.23-1.118,1.312-3.569,3.759-4.843l0.462,0.887
	C4.618,18.543,3.687,20.644,3.49,21.601z"/>
</svg>






