<?xml version="1.0" encoding="iso-8859-1"?>
<svg version="1.1" id="&#x56FE;&#x5C42;_1" xmlns="http://www.w3.org/2000/svg" xmlns:xlink="http://www.w3.org/1999/xlink" x="0px"
	 y="0px" viewBox="0 0 24 24" style="enable-background:new 0 0 24 24;" xml:space="preserve">
<path style="fill:#333333;" d="M12,18.5c-3.86,0-7-2.943-7-6.561c0-3.512,6.373-10.015,6.644-10.291L12,1.288l0.356,0.361
	C12.627,1.924,19,8.428,19,11.939C19,15.557,15.859,18.5,12,18.5z M12,2.719c-1.958,2.057-6,6.803-6,9.221
	c0,3.066,2.691,5.561,6,5.561s6-2.494,6-5.561C18,9.521,13.958,4.776,12,2.719z"/>
<rect x="11.5" y="2" style="fill:#333333;" width="1" height="16"/>
<rect x="11.5" y="18" style="fill:#333333;" width="1" height="4"/>
<path style="fill:#333333;" d="M12,18.5c-3.86,0-7-2.943-7-6.561h1c0,3.066,2.691,5.561,6,5.561s6-2.494,6-5.561h1
	C19,15.557,15.859,18.5,12,18.5z"/>
<path style="fill:#333333;" d="M19,11.939h-1c0-2.418-4.042-7.164-6-9.221c-1.958,2.057-6,6.803-6,9.221H5
	c0-3.512,6.373-10.015,6.644-10.291L12,1.288l0.356,0.361C12.627,1.924,19,8.428,19,11.939z"/>
</svg>






