<?xml version="1.0" encoding="iso-8859-1"?>
<svg version="1.1" id="&#x56FE;&#x5C42;_1" xmlns="http://www.w3.org/2000/svg" xmlns:xlink="http://www.w3.org/1999/xlink" x="0px"
	 y="0px" viewBox="0 0 24 24" style="enable-background:new 0 0 24 24;" xml:space="preserve">
<path style="fill:#333333;" d="M21.5,15.5h-19V12c0-0.827,0.673-1.5,1.5-1.5h16c0.827,0,1.5,0.673,1.5,1.5V15.5z M3.5,14.5h17V12
	c0-0.276-0.225-0.5-0.5-0.5H4c-0.276,0-0.5,0.224-0.5,0.5V14.5z"/>
<rect x="9" y="15" style="fill:#333333;" width="1" height="7"/>
<rect x="14" y="15" style="fill:#333333;" width="1" height="7"/>
<path style="fill:#333333;" d="M19.5,11.5h-15V9c0-4.136,3.364-7.5,7.5-7.5s7.5,3.364,7.5,7.5V11.5z M5.5,10.5h13V9
	c0-3.584-2.916-6.5-6.5-6.5S5.5,5.416,5.5,9V10.5z"/>
<path style="fill:#333333;" d="M12,8.5c-1.103,0-2-0.897-2-2s0.897-2,2-2c1.103,0,2,0.897,2,2S13.103,8.5,12,8.5z M12,5.5
	c-0.551,0-1,0.449-1,1s0.449,1,1,1c0.552,0,1-0.449,1-1S12.552,5.5,12,5.5z"/>
</svg>






