<?xml version="1.0" encoding="iso-8859-1"?>
<svg version="1.1" id="&#x56FE;&#x5C42;_1" xmlns="http://www.w3.org/2000/svg" xmlns:xlink="http://www.w3.org/1999/xlink" x="0px"
	 y="0px" viewBox="0 0 24 24" style="enable-background:new 0 0 24 24;" xml:space="preserve">
<path style="fill:#333333;" d="M10.216,12.412C9.395,11.846,9.149,10.358,8.808,8.3C8.719,7.765,8.626,7.2,8.516,6.625
	C8.111,4.5,7.218,4.5,6.5,4.5v-1c0.792,0,2.438,0,2.998,2.937c0.111,0.584,0.206,1.157,0.296,1.7
	c0.254,1.537,0.518,3.126,0.989,3.452L10.216,12.412z"/>
<path style="fill:#333333;" d="M17.499,20.5c-0.791,0-2.438,0-2.997-2.937c-0.111-0.584-0.206-1.156-0.296-1.698
	c-0.255-1.538-0.518-3.128-0.99-3.453l0.568-0.824c0.821,0.566,1.067,2.054,1.408,4.114c0.089,0.534,0.183,1.099,0.292,1.674
	c0.404,2.124,1.297,2.124,2.015,2.124V20.5z"/>
<path style="fill:#333333;" d="M6.501,20.5v-1c0.717,0,1.61,0,2.015-2.124c0.11-0.576,0.203-1.141,0.292-1.676
	c0.341-2.059,0.587-3.546,1.408-4.112l0.567,0.824c-0.472,0.324-0.735,1.914-0.989,3.451c-0.09,0.543-0.185,1.116-0.296,1.7
	C8.939,20.5,7.292,20.5,6.501,20.5z"/>
<path style="fill:#333333;" d="M13.784,12.412l-0.568-0.824c0.473-0.325,0.735-1.916,0.99-3.453c0.09-0.542,0.185-1.115,0.296-1.698
	C15.061,3.5,16.708,3.5,17.5,3.5v1c-0.718,0-1.611,0-2.016,2.124c-0.109,0.576-0.203,1.14-0.292,1.674
	C14.852,10.358,14.605,11.846,13.784,12.412z"/>
<circle style="fill:#333333;" cx="10.5" cy="12" r="2"/>
<circle style="fill:#333333;" cx="13.5" cy="12" r="2"/>
<rect x="6.5" y="11.5" style="fill:#333333;" width="4" height="1"/>
<rect x="13.5" y="11.5" style="fill:#333333;" width="4" height="1"/>
<rect x="2.5" y="11.5" style="fill:#333333;" width="1" height="1"/>
<rect x="20.5" y="11.5" style="fill:#333333;" width="1" height="1"/>
<rect x="2.5" y="3.5" style="fill:#333333;" width="1" height="1"/>
<rect x="20.5" y="3.5" style="fill:#333333;" width="1" height="1"/>
<rect x="2.5" y="19.5" style="fill:#333333;" width="1" height="1"/>
<rect x="20.5" y="19.5" style="fill:#333333;" width="1" height="1"/>
</svg>






