<?xml version="1.0" encoding="iso-8859-1"?>
<svg version="1.1" id="&#x56FE;&#x5C42;_1" xmlns="http://www.w3.org/2000/svg" xmlns:xlink="http://www.w3.org/1999/xlink" x="0px"
	 y="0px" viewBox="0 0 24 24" style="enable-background:new 0 0 24 24;" xml:space="preserve">
<path style="fill:#333333;" d="M19.736,12.425c-1.056-0.655-3.371-3.102-3.939-5.791c-0.404-1.909-1.689-2.12-2.793-2.134l-0.008-1
	c2.088,0.027,3.365,0.969,3.779,2.927c0.518,2.446,2.676,4.644,3.488,5.148L19.736,12.425z"/>
<path style="fill:#333333;" d="M13,20.5v-1c1.159,0,2.398-0.254,2.797-2.134c0.568-2.689,2.884-5.136,3.939-5.791l0.527,0.85
	c-0.812,0.504-2.971,2.702-3.488,5.148C16.155,20.5,13.78,20.5,13,20.5z"/>
<circle style="fill:#333333;" cx="20" cy="12" r="2"/>
<rect x="13" y="11.5" style="fill:#333333;" width="7" height="1"/>
<rect x="3" y="11.5" style="fill:#333333;" width="6" height="1"/>
<rect x="3" y="3.5" style="fill:#333333;" width="6" height="1"/>
<rect x="3" y="19.5" style="fill:#333333;" width="6" height="1"/>
</svg>






