<?xml version="1.0" encoding="iso-8859-1"?>
<svg version="1.1" id="&#x56FE;&#x5C42;_1" xmlns="http://www.w3.org/2000/svg" xmlns:xlink="http://www.w3.org/1999/xlink" x="0px"
	 y="0px" viewBox="0 0 24 24" style="enable-background:new 0 0 24 24;" xml:space="preserve">
<path style="fill:#333333;" d="M12,22.5c-0.566,0-0.917-0.592-1.257-1.165c-0.127-0.214-0.34-0.572-0.44-0.642
	C7.712,19.765,5.5,16.235,5.5,13c0-3.182,2.141-6.649,4.703-7.659L12,3.228l1.797,2.113C16.359,6.351,18.5,9.818,18.5,13
	c0,3.235-2.212,6.765-4.831,7.707c-0.071,0.055-0.284,0.414-0.412,0.628C12.917,21.907,12.565,22.5,12,22.5z M12,4.772l-1.206,1.417
	l-0.125,0.045C8.656,6.959,6.5,9.851,6.5,13s2.156,6.041,4.169,6.766c0.388,0.14,0.641,0.566,0.933,1.059
	c0.109,0.184,0.275,0.464,0.397,0.609c0.122-0.146,0.289-0.426,0.397-0.609c0.293-0.493,0.545-0.919,0.933-1.059
	c2.014-0.725,4.17-3.616,4.17-6.766s-2.156-6.041-4.169-6.766l-0.126-0.045L12,4.772z"/>
<path style="fill:#333333;" d="M14.808,6.026c-0.271,0-0.523-0.02-0.746-0.048c-0.397-0.051-0.736-0.273-0.931-0.61
	c-0.195-0.337-0.218-0.742-0.062-1.111c0.292-0.698,0.838-1.645,1.779-2.189c0.942-0.543,2.037-0.542,2.787-0.447l0,0
	c0.397,0.051,0.736,0.273,0.931,0.61c0.195,0.337,0.218,0.742,0.062,1.111c-0.292,0.699-0.839,1.646-1.78,2.189
	C16.187,5.913,15.448,6.026,14.808,6.026z M16.886,2.571c-0.497,0-1.057,0.083-1.538,0.362c-0.7,0.404-1.124,1.153-1.357,1.709
	c-0.033,0.081-0.031,0.161,0.006,0.226c0.038,0.065,0.106,0.107,0.192,0.118c0.601,0.077,1.46,0.083,2.159-0.321
	c0.7-0.404,1.125-1.153,1.358-1.709c0.033-0.081,0.031-0.161-0.006-0.226c-0.038-0.065-0.106-0.107-0.192-0.118l0,0
	C17.321,2.588,17.11,2.571,16.886,2.571z"/>
</svg>






