<?xml version="1.0" encoding="iso-8859-1"?>
<svg version="1.1" id="&#x56FE;&#x5C42;_1" xmlns="http://www.w3.org/2000/svg" xmlns:xlink="http://www.w3.org/1999/xlink" x="0px"
	 y="0px" viewBox="0 0 24 24" style="enable-background:new 0 0 24 24;" xml:space="preserve">
<path style="fill:none;" d="M7,5c0,1.105-0.895,2-2,2C3.895,7,3,6.105,3,5c0-1.105,0.895-2,2-2C6.105,3,7,3.895,7,5z"/>
<path style="fill:#333333;" d="M5.5,10h-1V7.45c-1.14-0.232-2-1.242-2-2.45c0-1.378,1.122-2.5,2.5-2.5c1.208,0,2.217,0.86,2.45,2H10
	v1H7.45C7.25,6.478,6.478,7.25,5.5,7.45V10z M5,7V6.5c0.827,0,1.5-0.673,1.5-1.5H7H6.5c0-0.827-0.673-1.5-1.5-1.5S3.5,4.173,3.5,5
	S4.173,6.5,5,6.5V7z"/>
<path style="fill:none;" d="M7,19c0-1.105-0.895-2-2-2c-1.105,0-2,0.895-2,2s0.895,2,2,2C6.105,21,7,20.105,7,19z"/>
<path style="fill:#333333;" d="M5,21.5c-1.378,0-2.5-1.121-2.5-2.5c0-1.207,0.86-2.218,2-2.45V14h1v2.55
	c0.978,0.2,1.75,0.972,1.95,1.95H10v1H7.45C7.217,20.64,6.208,21.5,5,21.5z M5,17v0.5c-0.827,0-1.5,0.673-1.5,1.5s0.673,1.5,1.5,1.5
	s1.5-0.673,1.5-1.5S5.827,17.5,5,17.5V17z"/>
<path style="fill:none;" d="M17,19c0-1.105,0.895-2,2-2s2,0.895,2,2s-0.895,2-2,2S17,20.105,17,19z"/>
<path style="fill:#333333;" d="M19,21.5c-1.207,0-2.218-0.86-2.45-2H14v-1h2.55c0.2-0.979,0.972-1.75,1.95-1.95V14h1v2.55
	c1.14,0.232,2,1.243,2,2.45C21.5,20.379,20.379,21.5,19,21.5z M17.5,19c0,0.827,0.673,1.5,1.5,1.5s1.5-0.673,1.5-1.5
	s-0.673-1.5-1.5-1.5S17.5,18.173,17.5,19z"/>
<path style="fill:none;" d="M17,5c0,1.105,0.895,2,2,2s2-0.895,2-2c0-1.105-0.895-2-2-2S17,3.895,17,5z"/>
<path style="fill:#333333;" d="M19.5,10h-1V7.45c-0.979-0.199-1.75-0.972-1.95-1.95H14v-1h2.55c0.232-1.14,1.243-2,2.45-2
	c1.379,0,2.5,1.122,2.5,2.5c0,1.208-0.86,2.217-2,2.45V10z M17,5h0.5c0,0.827,0.673,1.5,1.5,1.5s1.5-0.673,1.5-1.5
	S19.827,3.5,19,3.5S17.5,4.173,17.5,5H17z"/>
<rect x="8.5" y="11.5" style="fill:#333333;" width="7" height="1"/>
<rect x="11.5" y="8.5" style="fill:#333333;" width="1" height="7"/>
</svg>






