<?xml version="1.0" encoding="iso-8859-1"?>
<svg version="1.1" id="&#x56FE;&#x5C42;_1" xmlns="http://www.w3.org/2000/svg" xmlns:xlink="http://www.w3.org/1999/xlink" x="0px"
	 y="0px" viewBox="0 0 24 24" style="enable-background:new 0 0 24 24;" xml:space="preserve">
<path style="fill:#333333;" d="M6.5,17C4.57,17,3,15.43,3,13.5S4.57,10,6.5,10s3.5,1.57,3.5,3.5S8.43,17,6.5,17z M6.5,11
	C5.122,11,4,12.121,4,13.5S5.122,16,6.5,16S9,14.879,9,13.5S7.878,11,6.5,11z"/>
<path style="fill:#333333;" d="M17.742,21.999c-0.427,0-0.839-0.079-1.186-0.24c-1.143-0.531-1.925-1.379-2.324-2.521
	c-0.727-2.071,0.032-4.54,0.596-5.672l0.792-1.782c0.154-0.316,0.558-1.187,0.661-1.62c0.601-2.495,0.417-4.379-0.545-5.601
	C14.625,3.152,12.753,3,12,3c-4.86,0-5,6.732-5,7.5H6C6,7.343,7.264,2,12,2c0.899,0,3.14,0.189,4.521,1.944
	c1.162,1.475,1.408,3.646,0.732,6.454c-0.148,0.618-0.669,1.689-0.728,1.809l-0.794,1.785c-0.469,0.943-1.174,3.155-0.557,4.915
	c0.308,0.877,0.914,1.532,1.803,1.945c0.421,0.195,1.193,0.225,1.856-0.1c0.423-0.208,0.971-0.648,1.178-1.562l0.975,0.221
	c-0.293,1.3-1.093,1.935-1.712,2.239C18.805,21.882,18.263,21.999,17.742,21.999z"/>
</svg>






