<?xml version="1.0" encoding="iso-8859-1"?>
<svg version="1.1" id="&#x56FE;&#x5C42;_1" xmlns="http://www.w3.org/2000/svg" xmlns:xlink="http://www.w3.org/1999/xlink" x="0px"
	 y="0px" viewBox="0 0 24 24" style="enable-background:new 0 0 24 24;" xml:space="preserve">
<rect x="2.5" y="4" style="fill:#333333;" width="1" height="16"/>
<rect x="11.5" y="4" style="fill:#333333;" width="1" height="16"/>
<rect x="3.5" y="11.5" style="fill:#333333;" width="8" height="1"/>
<path style="fill:#333333;" d="M18.5,15c-1.379,0-2.5-1.121-2.5-2.5c0-1.378,1.121-2.5,2.5-2.5s2.5,1.122,2.5,2.5
	C21,13.879,19.879,15,18.5,15z M18.5,11c-0.827,0-1.5,0.673-1.5,1.5s0.673,1.5,1.5,1.5s1.5-0.673,1.5-1.5S19.327,11,18.5,11z"/>
<path style="fill:#333333;" d="M18.5,20.5c-1.654,0-3-1.346-3-3s1.346-3,3-3s3,1.346,3,3S20.154,20.5,18.5,20.5z M18.5,15.5
	c-1.103,0-2,0.897-2,2s0.897,2,2,2s2-0.897,2-2S19.603,15.5,18.5,15.5z"/>
</svg>






