<?xml version="1.0" encoding="iso-8859-1"?>
<svg version="1.1" id="&#x56FE;&#x5C42;_1" xmlns="http://www.w3.org/2000/svg" xmlns:xlink="http://www.w3.org/1999/xlink" x="0px"
	 y="0px" viewBox="0 0 24 24" style="enable-background:new 0 0 24 24;" xml:space="preserve">
<rect x="2.5" y="4" style="fill:#333333;" width="1" height="16"/>
<rect x="11.5" y="4" style="fill:#333333;" width="1" height="16"/>
<rect x="3.5" y="11.5" style="fill:#333333;" width="8" height="1"/>
<path style="fill:#333333;" d="M18.25,16.5c-1.792,0-3.25-1.458-3.25-3.25S16.458,10,18.25,10s3.25,1.458,3.25,3.25
	S20.042,16.5,18.25,16.5z M18.25,11C17.01,11,16,12.01,16,13.25s1.01,2.25,2.25,2.25s2.25-1.01,2.25-2.25S19.49,11,18.25,11z"/>
<path style="fill:#333333;" d="M18.25,20.5c-1.494,0-2.667-0.848-3.219-2.325l0.938-0.35c0.285,0.764,0.912,1.675,2.281,1.675
	c1.24,0,2.25-1.121,2.25-2.5v-3.5h1V17C21.5,18.93,20.042,20.5,18.25,20.5z"/>
</svg>






