<?xml version="1.0" encoding="iso-8859-1"?>
<svg version="1.1" id="&#x56FE;&#x5C42;_1" xmlns="http://www.w3.org/2000/svg" xmlns:xlink="http://www.w3.org/1999/xlink" x="0px"
	 y="0px" viewBox="0 0 24 24" style="enable-background:new 0 0 24 24;" xml:space="preserve">
<rect x="2.5" y="4" style="fill:#333333;" width="1" height="16"/>
<rect x="11.5" y="4" style="fill:#333333;" width="1" height="16"/>
<rect x="3.5" y="11.5" style="fill:#333333;" width="8" height="1"/>
<path style="fill:#333333;" d="M18,20.5c-1.843,0-2.5-1.289-2.5-2.496h1c0,0.683,0.26,1.496,1.5,1.496c1.477,0,2-0.72,2-2.75
	c0-2.423-0.758-2.75-1.5-2.75c-1.351,0-2.229,0.436-2.237,0.44l-0.232-0.424H15.5v-4.012H20v1h-3.5v2.28
	c0.78-0.22,1.77-0.285,2-0.285c1.659,0,2.5,1.262,2.5,3.75C21,18.359,20.689,20.5,18,20.5z"/>
</svg>






