<?xml version="1.0" encoding="iso-8859-1"?>
<svg version="1.1" id="&#x56FE;&#x5C42;_1" xmlns="http://www.w3.org/2000/svg" xmlns:xlink="http://www.w3.org/1999/xlink" x="0px"
	 y="0px" viewBox="0 0 24 24" style="enable-background:new 0 0 24 24;" xml:space="preserve">
<rect x="2.5" y="4" style="fill:#333333;" width="1" height="16"/>
<rect x="11.5" y="4" style="fill:#333333;" width="1" height="16"/>
<rect x="3.5" y="11.5" style="fill:#333333;" width="8" height="1"/>
<path style="fill:#333333;" d="M18.25,20.5c-1.792,0-3.25-1.458-3.25-3.25S16.458,14,18.25,14s3.25,1.458,3.25,3.25
	S20.042,20.5,18.25,20.5z M18.25,15C17.01,15,16,16.01,16,17.25s1.01,2.25,2.25,2.25s2.25-1.01,2.25-2.25S19.49,15,18.25,15z"/>
<path style="fill:#333333;" d="M16,17h-1v-3.5c0-1.93,1.458-3.5,3.25-3.5c1.335,0,2.519,0.861,3.017,2.194l-0.938,0.35
	C19.979,11.606,19.163,11,18.25,11C17.01,11,16,12.121,16,13.5V17z"/>
</svg>






