<?xml version="1.0" encoding="iso-8859-1"?>
<svg version="1.1" id="&#x56FE;&#x5C42;_1" xmlns="http://www.w3.org/2000/svg" xmlns:xlink="http://www.w3.org/1999/xlink" x="0px"
	 y="0px" viewBox="0 0 24 24" style="enable-background:new 0 0 24 24;" xml:space="preserve">
<path style="fill:#333333;" d="M16.915,22.635L2.426,18.752l1.04-3.882l0.966,0.26l-0.781,2.915l12.557,3.365l1.752-6.54l0.967,0.26
	L16.915,22.635z M20.534,9.129l-0.967-0.259l0.782-2.916L7.792,2.59L6.04,9.129L5.074,8.871l2.011-7.505l14.489,3.882L20.534,9.129z
	"/>
<path style="fill:#333333;" d="M19,12.5h-1v-1h1V12.5z M15,12.5h-1v-1h1V12.5z M11,12.5h-1v-1h1V12.5z M7,12.5H6v-1h1V12.5z M3,12.5
	H2v-1h1V12.5z"/>
</svg>






