<?xml version="1.0" encoding="iso-8859-1"?>
<svg version="1.1" id="&#x56FE;&#x5C42;_1" xmlns="http://www.w3.org/2000/svg" xmlns:xlink="http://www.w3.org/1999/xlink" x="0px"
	 y="0px" viewBox="0 0 24 24" style="enable-background:new 0 0 24 24;" xml:space="preserve">
<rect x="2" y="19" style="fill:#333333;" width="20" height="1"/>
<rect x="2" y="13" style="fill:#333333;" width="5.75" height="1"/>
<rect x="16.25" y="13" style="fill:#333333;" width="5.75" height="1"/>
<path style="fill:#333333;" d="M7.373,13.819c-0.074-0.088-0.145-0.18-0.213-0.273c-0.066-0.09-0.129-0.181-0.189-0.273
	C6.336,12.299,6,11.167,6,10c0-3.309,2.691-6,6-6s6,2.691,6,6c0,1.167-0.336,2.298-0.971,3.273
	c-0.061,0.092-0.123,0.182-0.188,0.271c-0.069,0.095-0.14,0.186-0.212,0.272l-0.773-0.633c0.061-0.075,0.121-0.152,0.179-0.229
	c0.053-0.073,0.105-0.149,0.157-0.229C16.721,11.915,17,10.972,17,10c0-2.757-2.243-5-5-5s-5,2.243-5,5
	c0,0.973,0.28,1.916,0.809,2.727c0.05,0.078,0.103,0.153,0.157,0.229c0.056,0.075,0.115,0.151,0.176,0.226L7.373,13.819z"/>
</svg>






