<?xml version="1.0" encoding="iso-8859-1"?>
<svg version="1.1" id="&#x56FE;&#x5C42;_1" xmlns="http://www.w3.org/2000/svg" xmlns:xlink="http://www.w3.org/1999/xlink" x="0px"
	 y="0px" viewBox="0 0 24 24" style="enable-background:new 0 0 24 24;" xml:space="preserve">
<path style="fill:#333333;" d="M12,22.495c-2.689,0-5.378-1.023-7.425-3.07c-4.094-4.094-4.094-10.755,0-14.85
	c4.094-4.093,10.756-4.094,14.85,0c4.094,4.094,4.094,10.756,0,14.85C17.378,21.472,14.688,22.495,12,22.495z M12,2.504
	c-2.433,0-4.865,0.926-6.718,2.778c-3.704,3.704-3.704,9.731,0,13.436c3.705,3.704,9.73,3.704,13.436,0
	c3.704-3.704,3.704-9.731,0-13.436C16.866,3.431,14.433,2.504,12,2.504z M12,18.5c-1.736,0-3.369-0.677-4.596-1.904
	S5.5,13.736,5.5,12s0.676-3.369,1.904-4.596S10.264,5.5,12,5.5s3.368,0.676,4.596,1.904l0,0l0,0C17.823,8.631,18.5,10.264,18.5,12
	s-0.677,3.368-1.904,4.596S13.736,18.5,12,18.5z M12,6.5c-1.469,0-2.85,0.572-3.889,1.611S6.5,10.531,6.5,12
	c0,1.469,0.572,2.85,1.611,3.889S10.531,17.5,12,17.5c1.469,0,2.85-0.572,3.889-1.611S17.5,13.469,17.5,12
	c0-1.469-0.572-2.85-1.611-3.889l0,0C14.85,7.072,13.469,6.5,12,6.5z"/>
<rect x="17.157" y="15.656" transform="matrix(0.7071 -0.7071 0.7071 0.7071 -7.3137 17.6567)" style="fill:#333333;" width="1" height="4.001"/>
<rect x="4.343" y="17.157" transform="matrix(0.7071 -0.7071 0.7071 0.7071 -10.6274 9.6567)" style="fill:#333333;" width="4.001" height="1"/>
<rect x="5.843" y="4.343" transform="matrix(0.7071 -0.7071 0.7071 0.7071 -2.6274 6.343)" style="fill:#333333;" width="1" height="4"/>
<rect x="15.656" y="5.843" transform="matrix(0.7071 -0.7071 0.7071 0.7071 0.6863 14.343)" style="fill:#333333;" width="4.001" height="1"/>
<path style="fill:#333333;" d="M12,18.5c-1.736,0-3.369-0.677-4.596-1.904S5.5,13.736,5.5,12s0.676-3.369,1.904-4.596
	S10.264,5.5,12,5.5s3.368,0.676,4.596,1.904S18.5,10.264,18.5,12s-0.677,3.368-1.904,4.596l0,0l0,0
	C15.368,17.823,13.736,18.5,12,18.5z M12,6.5c-1.469,0-2.85,0.572-3.889,1.611S6.5,10.531,6.5,12c0,1.469,0.572,2.85,1.611,3.889
	S10.531,17.5,12,17.5c1.469,0,2.85-0.572,3.889-1.611l0,0C16.928,14.85,17.5,13.469,17.5,12c0-1.469-0.572-2.85-1.611-3.889
	S13.469,6.5,12,6.5z"/>
</svg>






