<?xml version="1.0" encoding="iso-8859-1"?>
<svg version="1.1" id="&#x56FE;&#x5C42;_1" xmlns="http://www.w3.org/2000/svg" xmlns:xlink="http://www.w3.org/1999/xlink" x="0px"
	 y="0px" viewBox="0 0 24 24" style="enable-background:new 0 0 24 24;" xml:space="preserve">
<path style="fill:#333333;" d="M17.326,7.958L9.029,4.29C8.812,4.194,8.554,4.264,8.417,4.46L6.089,7.787L5.27,7.213l2.328-3.326
	c0.41-0.585,1.183-0.801,1.835-0.512l8.297,3.667L17.326,7.958z"/>
<path style="fill:#333333;" d="M21.5,21h-19c-0.551,0-1-0.448-1-1V8c0-0.551,0.449-1,1-1h19c0.552,0,1,0.449,1,1v12
	C22.5,20.552,22.052,21,21.5,21z M2.5,8v12h19V8H2.5z"/>
<polygon style="fill:#333333;" points="11.606,16.728 9.055,11.727 9.945,11.273 12.043,15.382 14.051,11.28 14.949,11.72 
	12.501,16.72 "/>
</svg>






