<?xml version="1.0" encoding="iso-8859-1"?>
<svg version="1.1" id="&#x56FE;&#x5C42;_1" xmlns="http://www.w3.org/2000/svg" xmlns:xlink="http://www.w3.org/1999/xlink" x="0px"
	 y="0px" viewBox="0 0 24 24" style="enable-background:new 0 0 24 24;" xml:space="preserve">
<rect x="3" y="21.5" style="fill:#333333;" width="18" height="1"/>
<rect x="8.5" y="9.5" style="fill:#333333;" width="7" height="1"/>
<path style="fill:#333333;" d="M16.566,22.5H7.434l1.625-13h5.883L16.566,22.5z M8.566,21.5h6.867l-1.375-11H9.941L8.566,21.5z"/>
<polygon style="fill:#333333;" points="13.917,10.5 10.083,10.5 9.008,4.589 9.992,4.411 10.917,9.5 13.083,9.5 14.008,4.411 
	14.992,4.589 "/>
<polygon style="fill:#333333;" points="15.646,6.354 12,2.707 8.354,6.354 7.646,5.646 12,1.293 16.354,5.646 "/>
<rect x="18.189" y="2.25" transform="matrix(0.7071 -0.7071 0.7071 0.7071 3.6937 14.4173)" style="fill:#333333;" width="2.121" height="1"/>
<rect x="4.25" y="1.689" transform="matrix(0.7071 -0.7071 0.7071 0.7071 -0.5533 4.1642)" style="fill:#333333;" width="1" height="2.121"/>
<rect x="18.75" y="9.189" transform="matrix(0.7071 -0.7071 0.7071 0.7071 -1.6097 16.614)" style="fill:#333333;" width="1" height="2.121"/>
<rect x="3.689" y="9.75" transform="matrix(0.7071 -0.7071 0.7071 0.7071 -5.8566 6.3609)" style="fill:#333333;" width="2.121" height="1"/>
<rect x="19" y="6" style="fill:#333333;" width="2" height="1"/>
<rect x="3" y="6" style="fill:#333333;" width="2" height="1"/>
<rect x="9" y="13.5" style="fill:#333333;" width="6" height="1"/>
<rect x="8.5" y="17.5" style="fill:#333333;" width="7" height="1"/>
<rect x="14.75" y="9.953" transform="matrix(0.9923 -0.124 0.124 0.9923 -1.8667 2.015)" style="fill:#333333;" width="1" height="12.093"/>
<rect x="2.703" y="15.5" transform="matrix(0.125 -0.9922 0.9922 0.125 -8.2182 22.6814)" style="fill:#333333;" width="12.093" height="1"/>
</svg>






