<?xml version="1.0" encoding="iso-8859-1"?>
<svg version="1.1" id="&#x56FE;&#x5C42;_1" xmlns="http://www.w3.org/2000/svg" xmlns:xlink="http://www.w3.org/1999/xlink" x="0px"
	 y="0px" viewBox="0 0 24 24" style="enable-background:new 0 0 24 24;" xml:space="preserve">
<path style="fill:#333333;" d="M15.095,22.5h-6.19c-0.774,0-1.416-0.581-1.492-1.351l-0.9-9c-0.01-0.101-0.01-0.198,0-0.296
	l0.9-9.002C7.489,2.081,8.13,1.5,8.905,1.5h6.19c0.774,0,1.416,0.581,1.492,1.351l0.9,9c0.011,0.099,0.011,0.2,0,0.3l-0.9,8.999
	C16.511,21.919,15.869,22.5,15.095,22.5z M8.905,2.5c-0.258,0-0.472,0.193-0.497,0.45l-0.9,9c-0.003,0.032-0.003,0.067,0,0.102
	l0.9,8.998c0.025,0.257,0.239,0.45,0.497,0.45h6.19c0.258,0,0.472-0.193,0.498-0.45l0.9-9l-0.9-9.1
	c-0.026-0.257-0.24-0.45-0.498-0.45H8.905z"/>
<rect x="7" y="11.5" style="fill:#333333;" width="10" height="1"/>
<rect x="11.5" y="2" style="fill:#333333;" width="1" height="20"/>
<rect x="10" y="1.5" style="fill:#333333;" width="4" height="1"/>
<rect x="10" y="21.5" style="fill:#333333;" width="4" height="1"/>
<path style="fill:#333333;" d="M7.002,17.05l-0.49-4.9c-0.01-0.101-0.01-0.198,0-0.296l0.49-4.903l0.995,0.1l-0.49,4.9
	c-0.003,0.032-0.003,0.067,0,0.102l0.49,4.898L7.002,17.05z"/>
<path style="fill:#333333;" d="M16.997,17.05l-0.994-0.1l0.49-4.9l-0.49-5l0.994-0.1l0.49,4.9c0.011,0.099,0.011,0.2,0,0.3
	L16.997,17.05z"/>
</svg>






