<?xml version="1.0" encoding="iso-8859-1"?>
<svg version="1.1" id="&#x56FE;&#x5C42;_1" xmlns="http://www.w3.org/2000/svg" xmlns:xlink="http://www.w3.org/1999/xlink" x="0px"
	 y="0px" viewBox="0 0 24 24" style="enable-background:new 0 0 24 24;" xml:space="preserve">
<path style="fill:#333333;" d="M18,18h-8c-2.481,0-4.5-2.019-4.5-4.5S7.519,9,10,9h5v1h-5c-1.93,0-3.5,1.57-3.5,3.5S8.07,17,10,17h8
	c1.93,0,3.5-1.57,3.5-3.5c0-0.854-0.311-1.676-0.875-2.315l0.75-0.661c0.726,0.822,1.125,1.879,1.125,2.977
	C22.5,15.981,20.481,18,18,18z"/>
<path style="fill:#333333;" d="M14,14H9v-1h5c1.93,0,3.5-1.57,3.5-3.5S15.93,6,14,6H6C4.07,6,2.5,7.57,2.5,9.5
	c0,0.854,0.311,1.676,0.875,2.314l-0.749,0.662C1.899,11.655,1.5,10.598,1.5,9.5C1.5,7.019,3.519,5,6,5h8c2.481,0,4.5,2.019,4.5,4.5
	S16.481,14,14,14z"/>
</svg>






