<?xml version="1.0" encoding="iso-8859-1"?>
<svg version="1.1" id="&#x56FE;&#x5C42;_1" xmlns="http://www.w3.org/2000/svg" xmlns:xlink="http://www.w3.org/1999/xlink" x="0px"
	 y="0px" viewBox="0 0 24 24" style="enable-background:new 0 0 24 24;" xml:space="preserve">
<polygon style="fill:#333333;" points="16.5,6 15.5,6 15.5,2.5 8.5,2.5 8.5,6 7.5,6 7.5,1.5 16.5,1.5 "/>
<polygon style="fill:#333333;" points="16.5,22.5 7.5,22.5 7.5,18 8.5,18 8.5,21.5 15.5,21.5 15.5,18 16.5,18 "/>
<rect x="2" y="11.5" style="fill:#333333;" width="7" height="1"/>
<rect x="15" y="11.5" style="fill:#333333;" width="7" height="1"/>
<rect x="11.5" y="7" style="fill:#333333;" width="1" height="10"/>
<polygon style="fill:#333333;" points="19.854,14.854 19.146,14.146 21.293,12 19.146,9.854 19.854,9.146 22.707,12 "/>
<polygon style="fill:#333333;" points="4.146,14.854 1.293,12 4.146,9.146 4.854,9.854 2.707,12 4.854,14.146 "/>
</svg>






