<?xml version="1.0" encoding="iso-8859-1"?>
<svg version="1.1" id="&#x56FE;&#x5C42;_1" xmlns="http://www.w3.org/2000/svg" xmlns:xlink="http://www.w3.org/1999/xlink" x="0px"
	 y="0px" viewBox="0 0 24 24" style="enable-background:new 0 0 24 24;" xml:space="preserve">
<path style="fill:#333333;" d="M21,16.5h-2v-1h2c0.275,0,0.5-0.225,0.5-0.5V8c0-0.276-0.225-0.5-0.5-0.5h-7.5v-1H21
	c0.827,0,1.5,0.673,1.5,1.5v7C22.5,15.827,21.827,16.5,21,16.5z"/>
<path style="fill:#333333;" d="M10.5,16.5H3c-0.827,0-1.5-0.673-1.5-1.5V8c0-0.827,0.673-1.5,1.5-1.5h2.5v1H3
	C2.724,7.5,2.5,7.724,2.5,8v7c0,0.275,0.224,0.5,0.5,0.5h7.5V16.5z"/>
<rect x="11.5" y="1.638" transform="matrix(0.8619 -0.507 0.507 0.8619 -4.174 7.6721)" style="fill:#333333;" width="1" height="19.723"/>
<rect x="16" y="11" style="fill:#333333;" width="2" height="1"/>
<rect x="6" y="11" style="fill:#333333;" width="2" height="1"/>
</svg>






