<?xml version="1.0" encoding="iso-8859-1"?>
<svg version="1.1" id="&#x56FE;&#x5C42;_1" xmlns="http://www.w3.org/2000/svg" xmlns:xlink="http://www.w3.org/1999/xlink" x="0px"
	 y="0px" viewBox="0 0 24 24" style="enable-background:new 0 0 24 24;" xml:space="preserve">
<path style="fill:#333333;" d="M18,17v-1c1.308,0,3.5-0.455,3.5-3.5c0-3.743-3.891-4.234-4.057-4.253l-0.331-0.039L17.02,7.887
	C16.658,6.622,15.525,4.5,12,4.5c-3.372,0-4.405,1.988-5.019,4.137L6.877,9H6.5c-0.845,0-4,0.636-4,3.75C2.5,15.684,4.948,16,6,16v1
	c-2.175,0-4.5-1.116-4.5-4.25c0-3.562,3.216-4.564,4.617-4.725C6.592,6.44,7.735,3.5,12,3.5c4.014,0,5.418,2.462,5.885,3.81
	C18.991,7.537,22.5,8.569,22.5,12.5C22.5,15.317,20.817,17,18,17z"/>
<rect x="8.464" y="16" transform="matrix(0.7071 -0.7071 0.7071 0.7071 -8.1525 13.318)" style="fill:#333333;" width="7.071" height="1"/>
<rect x="11.5" y="12.964" transform="matrix(0.7071 -0.7071 0.7071 0.7071 -8.1525 13.318)" style="fill:#333333;" width="1" height="7.071"/>
</svg>






