<?xml version="1.0" encoding="iso-8859-1"?>
<svg version="1.1" id="&#x56FE;&#x5C42;_1" xmlns="http://www.w3.org/2000/svg" xmlns:xlink="http://www.w3.org/1999/xlink" x="0px"
	 y="0px" viewBox="0 0 24 24" style="enable-background:new 0 0 24 24;" xml:space="preserve">
<rect x="9" y="11.5" style="fill:#333333;" width="6.5" height="1"/>
<path style="fill:#333333;" d="M21,17H3c-0.827,0-1.5-0.673-1.5-1.5v-7C1.5,7.673,2.173,7,3,7h18c0.827,0,1.5,0.673,1.5,1.5v7
	C22.5,16.327,21.827,17,21,17z M3,8C2.724,8,2.5,8.224,2.5,8.5v7C2.5,15.775,2.724,16,3,16h18c0.275,0,0.5-0.225,0.5-0.5v-7
	C21.5,8.224,21.275,8,21,8H3z"/>
</svg>






