<?xml version="1.0" encoding="iso-8859-1"?>
<svg version="1.1" id="&#x56FE;&#x5C42;_1" xmlns="http://www.w3.org/2000/svg" xmlns:xlink="http://www.w3.org/1999/xlink" x="0px"
	 y="0px" viewBox="0 0 24 24" style="enable-background:new 0 0 24 24;" xml:space="preserve">
<path style="fill:#333333;" d="M15.89,13.146c-0.384,0-0.769-0.146-1.061-0.438l-3.536-3.536c-0.283-0.283-0.439-0.66-0.439-1.061
	c0-0.4,0.156-0.777,0.439-1.061l4.95-4.95c0.584-0.585,1.537-0.585,2.121,0l3.535,3.536c0.283,0.283,0.439,0.66,0.439,1.061
	c0,0.4-0.156,0.777-0.439,1.061l-4.949,4.95C16.658,12.999,16.273,13.146,15.89,13.146z M17.304,2.662
	c-0.128,0-0.256,0.048-0.354,0.146l-4.949,4.95c-0.095,0.095-0.147,0.22-0.147,0.354c0,0.134,0.052,0.259,0.146,0.353L15.536,12
	c0.195,0.195,0.512,0.195,0.707,0l4.949-4.95c0.095-0.095,0.146-0.22,0.146-0.354c0-0.134-0.052-0.259-0.146-0.353l-3.535-3.536
	C17.56,2.71,17.432,2.662,17.304,2.662z"/>
<path style="fill:#333333;" d="M6.697,22.339c-0.401,0-0.778-0.156-1.061-0.439l-3.535-3.535c-0.284-0.283-0.44-0.661-0.439-1.062
	c0-0.401,0.156-0.777,0.44-1.06l4.949-4.95c0.585-0.585,1.536-0.585,2.121,0l3.535,3.535c0.585,0.585,0.585,1.537,0,2.122
	l-4.949,4.949C7.475,22.183,7.098,22.339,6.697,22.339z M8.111,11.854c-0.128,0-0.256,0.048-0.354,0.146l-4.95,4.95
	c-0.095,0.095-0.146,0.22-0.146,0.353c0,0.134,0.052,0.26,0.146,0.354l3.536,3.535c0.189,0.189,0.518,0.19,0.707,0L12,16.243
	c0.195-0.195,0.195-0.513,0-0.708L8.465,12C8.367,11.902,8.239,11.854,8.111,11.854z"/>
<rect x="7.001" y="11.5" transform="matrix(0.7071 -0.7071 0.7071 0.7071 -4.9702 12.0003)" style="fill:#333333;" width="10" height="1"/>
</svg>






