<?xml version="1.0" encoding="iso-8859-1"?>
<svg version="1.1" id="&#x56FE;&#x5C42;_1" xmlns="http://www.w3.org/2000/svg" xmlns:xlink="http://www.w3.org/1999/xlink" x="0px"
	 y="0px" viewBox="0 0 24 24" style="enable-background:new 0 0 24 24;" xml:space="preserve">
<polygon style="fill:#333333;" points="16.5,6 15.5,6 15.5,2.5 8.5,2.5 8.5,6 7.5,6 7.5,1.5 16.5,1.5 "/>
<polygon style="fill:#333333;" points="16.5,22.5 7.5,22.5 7.5,18 8.5,18 8.5,21.5 15.5,21.5 15.5,18 16.5,18 "/>
<rect x="2" y="11.5" style="fill:#333333;" width="7" height="1"/>
<rect x="15" y="11.5" style="fill:#333333;" width="7" height="1"/>
<rect x="11.5" y="7" style="fill:#333333;" width="1" height="10"/>
<polygon style="fill:#333333;" points="6.854,14.854 6.146,14.146 8.293,12 6.146,9.854 6.854,9.146 9.707,12 "/>
<polygon style="fill:#333333;" points="17.146,14.854 14.293,12 17.146,9.146 17.854,9.854 15.707,12 17.854,14.146 "/>
</svg>






