<?xml version="1.0" encoding="iso-8859-1"?>
<svg version="1.1" id="&#x56FE;&#x5C42;_1" xmlns="http://www.w3.org/2000/svg" xmlns:xlink="http://www.w3.org/1999/xlink" x="0px"
	 y="0px" viewBox="0 0 24 24" style="enable-background:new 0 0 24 24;" xml:space="preserve">
<path style="fill:#333333;" d="M8.111,20.387c-1.28,0-2.561-0.487-3.535-1.462c-1.949-1.949-1.949-5.122,0-7.071L12,4.429
	l0.707,0.707l-7.424,7.424c-1.559,1.56-1.559,4.098,0,5.657c1.56,1.559,4.098,1.559,5.657,0l8.839-8.839
	c0.473-0.472,0.732-1.1,0.732-1.768c0-0.667-0.26-1.295-0.732-1.768c-0.976-0.976-2.562-0.975-3.536,0l-8.838,8.838
	c-0.39,0.391-0.39,1.024,0,1.415c0.378,0.377,1.036,0.377,1.415,0l7.425-7.425l0.707,0.707l-7.425,7.425
	c-0.78,0.778-2.048,0.78-2.829,0c-0.78-0.78-0.78-2.049,0-2.829l8.838-8.838c1.365-1.363,3.584-1.364,4.95,0
	c0.661,0.661,1.025,1.54,1.025,2.475c0,0.935-0.364,1.814-1.025,2.475l-8.839,8.839C10.672,19.899,9.392,20.387,8.111,20.387z"/>
</svg>






