<?xml version="1.0" encoding="iso-8859-1"?>
<svg version="1.1" id="&#x56FE;&#x5C42;_1" xmlns="http://www.w3.org/2000/svg" xmlns:xlink="http://www.w3.org/1999/xlink" x="0px"
	 y="0px" viewBox="0 0 24 24" style="enable-background:new 0 0 24 24;" xml:space="preserve">
<path style="fill:#333333;" d="M10.391,22.5H5.609l-0.094-0.379c-0.01-0.04-1.015-4.093-1.513-9.071C3.506,8.082,3.5,6.083,3.5,6
	V5.5h9V6c0,0.083-0.006,2.082-0.502,7.05c-0.498,4.979-1.502,9.031-1.513,9.071L10.391,22.5z M6.396,21.5h3.209
	c0.256-1.108,0.995-4.52,1.398-8.55c0.354-3.542,0.457-5.582,0.486-6.45H4.512c0.029,0.868,0.132,2.908,0.486,6.45
	C5.4,16.98,6.14,20.392,6.396,21.5z"/>
<path style="fill:#333333;" d="M19.5,22.5h-4l-0.15-0.2c-0.032-0.043-0.805-1.083-1.324-2.642C13.506,18.099,13.5,17.044,13.5,17
	v-0.5h8V17c0,0.044-0.006,1.099-0.525,2.658c-0.52,1.559-1.292,2.599-1.324,2.642L19.5,22.5z M16.013,21.5h2.975
	c0.229-0.351,0.697-1.135,1.038-2.158c0.263-0.787,0.38-1.43,0.433-1.842h-5.916c0.053,0.412,0.17,1.055,0.433,1.842
	C15.315,20.365,15.784,21.149,16.013,21.5z"/>
<rect x="17" y="6.5" style="fill:#333333;" width="1" height="10.5"/>
<path style="fill:#333333;" d="M18.86,7H16.14l-1.333-4h5.387L18.86,7z M16.86,6h1.279l0.667-2h-2.613L16.86,6z"/>
<path style="fill:#333333;" d="M11,6.5H5v-4h6V6.5z M6,5.5h4v-2H6V5.5z"/>
</svg>






