<?xml version="1.0" encoding="iso-8859-1"?>
<svg version="1.1" id="&#x56FE;&#x5C42;_1" xmlns="http://www.w3.org/2000/svg" xmlns:xlink="http://www.w3.org/1999/xlink" x="0px"
	 y="0px" viewBox="0 0 24 24" style="enable-background:new 0 0 24 24;" xml:space="preserve">
<path style="fill:#333333;" d="M11.5,16.264L3.328,6.827L3.706,6h15.588l0.378,0.827L11.5,16.264z M4.8,7l6.7,7.736L18.199,7H4.8z"
	/>
<rect x="11" y="16" style="fill:#333333;" width="1" height="5"/>
<rect x="8.5" y="21.5" style="fill:#333333;" width="6" height="1"/>
<rect x="8" y="11" style="fill:#333333;" width="7" height="1"/>
<path style="fill:#333333;" d="M19,9.5h-1.5v-1H19c1.379,0,2.5-1.122,2.5-2.5S20.379,3.5,19,3.5S16.5,4.622,16.5,6
	c0,0.143,0.013,0.283,0.034,0.42l-0.986,0.16C15.517,6.392,15.5,6.198,15.5,6c0-1.93,1.57-3.5,3.5-3.5s3.5,1.57,3.5,3.5
	S20.93,9.5,19,9.5z"/>
<rect x="7.134" y="7.776" transform="matrix(0.7559 -0.6547 0.6547 0.7559 -5.3616 7.691)" style="fill:#333333;" width="1" height="6.519"/>
<rect x="11.946" y="10.609" transform="matrix(0.6545 -0.7561 0.7561 0.6545 -3.112 15.4084)" style="fill:#333333;" width="6.713" height="1"/>
</svg>






