<?xml version="1.0" encoding="iso-8859-1"?>
<svg version="1.1" id="&#x56FE;&#x5C42;_1" xmlns="http://www.w3.org/2000/svg" xmlns:xlink="http://www.w3.org/1999/xlink" x="0px"
	 y="0px" viewBox="0 0 24 24" style="enable-background:new 0 0 24 24;" xml:space="preserve">
<rect x="10" y="4.5" style="fill:#333333;" width="12" height="1"/>
<rect x="10" y="11.5" style="fill:#333333;" width="12" height="1"/>
<rect x="10" y="18.5" style="fill:#333333;" width="12" height="1"/>
<polygon style="fill:#333333;" points="5.146,6.854 4,5.707 2.854,6.854 2.146,6.146 3.293,5 2.146,3.854 2.854,3.146 4,4.293 
	5.146,3.146 5.854,3.854 4.707,5 5.854,6.146 "/>
<path style="fill:#333333;" d="M4,14.5c-1.378,0-2.5-1.121-2.5-2.5c0-1.378,1.122-2.5,2.5-2.5s2.5,1.122,2.5,2.5
	C6.5,13.379,5.378,14.5,4,14.5z M4,10.5c-0.827,0-1.5,0.673-1.5,1.5s0.673,1.5,1.5,1.5s1.5-0.673,1.5-1.5S4.827,10.5,4,10.5z"/>
<path style="fill:#333333;" d="M4,21.5c-1.378,0-2.5-1.121-2.5-2.5s1.122-2.5,2.5-2.5s2.5,1.121,2.5,2.5S5.378,21.5,4,21.5z M4,17.5
	c-0.827,0-1.5,0.673-1.5,1.5s0.673,1.5,1.5,1.5s1.5-0.673,1.5-1.5S4.827,17.5,4,17.5z"/>
</svg>






