<?xml version="1.0" encoding="iso-8859-1"?>
<svg version="1.1" id="&#x56FE;&#x5C42;_1" xmlns="http://www.w3.org/2000/svg" xmlns:xlink="http://www.w3.org/1999/xlink" x="0px"
	 y="0px" viewBox="0 0 24 24" style="enable-background:new 0 0 24 24;" xml:space="preserve">
<path style="fill:none;" d="M10,12h12H10z"/>
<rect x="10" y="11.5" style="fill:#333333;" width="12" height="1"/>
<path style="fill:none;" d="M10,19h12H10z"/>
<rect x="10" y="18.5" style="fill:#333333;" width="12" height="1"/>
<path style="fill:none;" d="M10,5h12H10z"/>
<rect x="10" y="4.5" style="fill:#333333;" width="12" height="1"/>
<path style="fill:#333333;" d="M6.5,21.5h-5v-5h5V21.5z M2.5,20.5h3v-3h-3V20.5z"/>
<path style="fill:#333333;" d="M6.5,14.5h-5v-5h5V14.5z M2.5,13.5h3v-3h-3V13.5z"/>
<path style="fill:#333333;" d="M6.5,7.5h-5v-5h5V7.5z M2.5,6.5h3v-3h-3V6.5z"/>
</svg>






