<?xml version="1.0" encoding="iso-8859-1"?>
<svg version="1.1" id="&#x56FE;&#x5C42;_1" xmlns="http://www.w3.org/2000/svg" xmlns:xlink="http://www.w3.org/1999/xlink" x="0px"
	 y="0px" viewBox="0 0 24 24" style="enable-background:new 0 0 24 24;" xml:space="preserve">
<rect x="10" y="4" style="fill:#333333;" width="11" height="1"/>
<rect x="10" y="9" style="fill:#333333;" width="11" height="1"/>
<rect x="10" y="14" style="fill:#333333;" width="11" height="1"/>
<rect x="10" y="19" style="fill:#333333;" width="11" height="1"/>
<polygon style="fill:#333333;" points="6,20 2.5,20 2.5,18.793 5.5,15.793 5.5,15 3,15 3,14 6.5,14 6.5,16.207 3.707,19 6,19 "/>
<polygon style="fill:#333333;" points="5.5,10 3.5,10 3.5,9 4,9 4,5.707 3.854,5.854 3.146,5.146 4.146,4.146 5,4.5 5,9 5.5,9 "/>
</svg>






