<?xml version="1.0" encoding="iso-8859-1"?>
<svg version="1.1" id="&#x56FE;&#x5C42;_1" xmlns="http://www.w3.org/2000/svg" xmlns:xlink="http://www.w3.org/1999/xlink" x="0px"
	 y="0px" viewBox="0 0 24 24" style="enable-background:new 0 0 24 24;" xml:space="preserve">
<rect x="10" y="4" style="fill:#333333;" width="11" height="1"/>
<rect x="10" y="9" style="fill:#333333;" width="11" height="1"/>
<rect x="10" y="14" style="fill:#333333;" width="11" height="1"/>
<rect x="10" y="19" style="fill:#333333;" width="11" height="1"/>
<polygon style="fill:#333333;" points="6,20 3,20 2.571,19.243 5.117,15 3,15 3,14 6,14 6.429,14.757 3.883,19 6,19 "/>
<path style="fill:none;" d="M5.5,4.5l-2,0L3.15,8h2.7L5.5,4.5z"/>
<path style="fill:#333333;" d="M5.502,9.55L5.397,8.5H3.603L3.498,9.55l-0.995-0.1l0.15-1.5L3.15,8L2.652,7.95L3.047,4h2.905
	l0.395,3.95L5.85,8l0.498-0.05l0.15,1.5L5.502,9.55z M3.703,7.5h1.595L5.047,5H3.953L3.703,7.5z"/>
</svg>






