<?xml version="1.0" encoding="iso-8859-1"?>
<svg version="1.1" id="&#x56FE;&#x5C42;_1" xmlns="http://www.w3.org/2000/svg" xmlns:xlink="http://www.w3.org/1999/xlink" x="0px"
	 y="0px" viewBox="0 0 24 24" style="enable-background:new 0 0 24 24;" xml:space="preserve">
<path style="fill:#333333;" d="M17.5,6.5h-9v-4h9V6.5z M9.5,5.5h7v-2h-7V5.5z"/>
<path style="fill:#333333;" d="M19.5,14h-11v-4h11V14z M9.5,13h9v-2h-9V13z"/>
<path style="fill:#333333;" d="M22.5,21.5h-14v-4h14V21.5z M9.5,20.5h12v-2h-12V20.5z"/>
<path style="fill:#333333;" d="M4,6C3.173,6,2.5,5.327,2.5,4.5S3.173,3,4,3s1.5,0.673,1.5,1.5S4.827,6,4,6z M4,4
	C3.724,4,3.5,4.224,3.5,4.5S3.724,5,4,5s0.5-0.224,0.5-0.5S4.276,4,4,4z"/>
<path style="fill:#333333;" d="M4,13.5c-0.827,0-1.5-0.673-1.5-1.5s0.673-1.5,1.5-1.5s1.5,0.673,1.5,1.5S4.827,13.5,4,13.5z M4,11.5
	c-0.276,0-0.5,0.224-0.5,0.5c0,0.275,0.224,0.5,0.5,0.5s0.5-0.225,0.5-0.5C4.5,11.724,4.276,11.5,4,11.5z"/>
<path style="fill:#333333;" d="M4,21c-0.827,0-1.5-0.673-1.5-1.5S3.173,18,4,18s1.5,0.673,1.5,1.5S4.827,21,4,21z M4,19
	c-0.276,0-0.5,0.225-0.5,0.5S3.724,20,4,20s0.5-0.225,0.5-0.5S4.276,19,4,19z"/>
</svg>






