<?xml version="1.0" encoding="iso-8859-1"?>
<svg version="1.1" id="&#x56FE;&#x5C42;_1" xmlns="http://www.w3.org/2000/svg" xmlns:xlink="http://www.w3.org/1999/xlink" x="0px"
	 y="0px" viewBox="0 0 24 24" style="enable-background:new 0 0 24 24;" xml:space="preserve">
<path style="fill:#333333;" d="M4,14.5c-1.378,0-2.5-1.121-2.5-2.5c0-1.378,1.122-2.5,2.5-2.5s2.5,1.122,2.5,2.5
	C6.5,13.379,5.378,14.5,4,14.5z M4,10.5c-0.827,0-1.5,0.673-1.5,1.5s0.673,1.5,1.5,1.5s1.5-0.673,1.5-1.5S4.827,10.5,4,10.5z"/>
<path style="fill:#333333;" d="M4,6.5C3.173,6.5,2.5,5.827,2.5,5S3.173,3.5,4,3.5S5.5,4.173,5.5,5S4.827,6.5,4,6.5z M4,4.5
	C3.724,4.5,3.5,4.724,3.5,5S3.724,5.5,4,5.5S4.5,5.276,4.5,5S4.276,4.5,4,4.5z"/>
<path style="fill:#333333;" d="M4,20.5c-0.827,0-1.5-0.673-1.5-1.5s0.673-1.5,1.5-1.5s1.5,0.673,1.5,1.5S4.827,20.5,4,20.5z M4,18.5
	c-0.276,0-0.5,0.225-0.5,0.5s0.224,0.5,0.5,0.5s0.5-0.225,0.5-0.5S4.276,18.5,4,18.5z"/>
<rect x="10" y="11.5" style="fill:#333333;" width="12" height="1"/>
<rect x="10" y="18.5" style="fill:#333333;" width="12" height="1"/>
<rect x="10" y="4.5" style="fill:#333333;" width="12" height="1"/>
</svg>






