<?xml version="1.0" encoding="iso-8859-1"?>
<svg version="1.1" id="&#x56FE;&#x5C42;_1" xmlns="http://www.w3.org/2000/svg" xmlns:xlink="http://www.w3.org/1999/xlink" x="0px"
	 y="0px" viewBox="0 0 24 24" style="enable-background:new 0 0 24 24;" xml:space="preserve">
<path style="fill:#333333;" d="M4,7.5C2.622,7.5,1.5,6.378,1.5,5S2.622,2.5,4,2.5S6.5,3.622,6.5,5S5.378,7.5,4,7.5z M4,3.5
	C3.173,3.5,2.5,4.173,2.5,5S3.173,6.5,4,6.5S5.5,5.827,5.5,5S4.827,3.5,4,3.5z"/>
<path style="fill:#333333;" d="M4,13.5c-0.827,0-1.5-0.673-1.5-1.5s0.673-1.5,1.5-1.5s1.5,0.673,1.5,1.5S4.827,13.5,4,13.5z M4,11.5
	c-0.276,0-0.5,0.224-0.5,0.5c0,0.275,0.224,0.5,0.5,0.5s0.5-0.225,0.5-0.5C4.5,11.724,4.276,11.5,4,11.5z"/>
<path style="fill:#333333;" d="M4,20.5c-0.827,0-1.5-0.673-1.5-1.5s0.673-1.5,1.5-1.5s1.5,0.673,1.5,1.5S4.827,20.5,4,20.5z M4,18.5
	c-0.276,0-0.5,0.225-0.5,0.5s0.224,0.5,0.5,0.5s0.5-0.225,0.5-0.5S4.276,18.5,4,18.5z"/>
<rect x="10" y="11.5" style="fill:#333333;" width="12" height="1"/>
<rect x="10" y="18.5" style="fill:#333333;" width="12" height="1"/>
<rect x="10" y="4.5" style="fill:#333333;" width="12" height="1"/>
</svg>






