<?xml version="1.0" encoding="iso-8859-1"?>
<svg version="1.1" id="&#x56FE;&#x5C42;_1" xmlns="http://www.w3.org/2000/svg" xmlns:xlink="http://www.w3.org/1999/xlink" x="0px"
	 y="0px" viewBox="0 0 24 24" style="enable-background:new 0 0 24 24;" xml:space="preserve">
<path style="fill:#333333;" d="M4.5,21.5C3.122,21.5,2,20.379,2,19s1.122-2.5,2.5-2.5S7,17.621,7,19S5.878,21.5,4.5,21.5z M4.5,17.5
	C3.673,17.5,3,18.173,3,19s0.673,1.5,1.5,1.5S6,19.827,6,19S5.327,17.5,4.5,17.5z"/>
<path style="fill:#333333;" d="M4.5,7.5C3.122,7.5,2,6.378,2,5s1.122-2.5,2.5-2.5S7,3.622,7,5S5.878,7.5,4.5,7.5z M4.5,3.5
	C3.673,3.5,3,4.173,3,5s0.673,1.5,1.5,1.5S6,5.827,6,5S5.327,3.5,4.5,3.5z"/>
<path style="fill:#333333;" d="M4.5,14.5C3.122,14.5,2,13.379,2,12c0-1.378,1.122-2.5,2.5-2.5S7,10.622,7,12
	C7,13.379,5.878,14.5,4.5,14.5z M4.5,10.5C3.673,10.5,3,11.173,3,12s0.673,1.5,1.5,1.5S6,12.827,6,12S5.327,10.5,4.5,10.5z"/>
<rect x="10.5" y="11.5" style="fill:#333333;" width="11" height="1"/>
<rect x="10.5" y="18.5" style="fill:#333333;" width="11" height="1"/>
<rect x="10.5" y="4.5" style="fill:#333333;" width="11" height="1"/>
</svg>






