<?xml version="1.0" encoding="iso-8859-1"?>
<svg version="1.1" id="&#x56FE;&#x5C42;_1" xmlns="http://www.w3.org/2000/svg" xmlns:xlink="http://www.w3.org/1999/xlink" x="0px"
	 y="0px" viewBox="0 0 24 24" style="enable-background:new 0 0 24 24;" xml:space="preserve">
<path style="fill:#333333;" d="M12,22.5C6.21,22.5,1.5,17.79,1.5,12h1c0,5.238,4.262,9.5,9.5,9.5s9.5-4.262,9.5-9.5
	S17.238,2.5,12,2.5v-1c5.79,0,10.5,4.71,10.5,10.5C22.5,17.79,17.79,22.5,12,22.5z"/>
<path style="fill:#333333;" d="M12,18.5c-3.584,0-6.5-2.916-6.5-6.5S8.416,5.5,12,5.5s6.5,2.916,6.5,6.5h-1
	c0-3.033-2.468-5.5-5.5-5.5c-3.033,0-5.5,2.467-5.5,5.5c0,3.032,2.467,5.5,5.5,5.5V18.5z"/>
</svg>






