<?xml version="1.0" encoding="iso-8859-1"?>
<svg version="1.1" id="&#x56FE;&#x5C42;_1" xmlns="http://www.w3.org/2000/svg" xmlns:xlink="http://www.w3.org/1999/xlink" x="0px"
	 y="0px" viewBox="0 0 24 24" style="enable-background:new 0 0 24 24;" xml:space="preserve">
<path style="fill:#333333;" d="M12,22.641l-0.312-0.25C11.374,22.14,4,16.164,4,9.5c0-4.411,3.589-8,8-8s8,3.589,8,8
	c0,6.664-7.374,12.64-7.688,12.891L12,22.641z M12,2.5c-3.86,0-7,3.14-7,7c0,5.438,5.602,10.634,7,11.846
	c1.397-1.212,7-6.408,7-11.846C19,5.64,15.859,2.5,12,2.5z"/>
<path style="fill:#333333;" d="M12,13c-1.93,0-3.5-1.57-3.5-3.5S10.07,6,12,6s3.5,1.57,3.5,3.5S13.93,13,12,13z M12,7
	c-1.378,0-2.5,1.122-2.5,2.5S10.622,12,12,12c1.379,0,2.5-1.122,2.5-2.5S13.379,7,12,7z"/>
</svg>






