<?xml version="1.0" encoding="iso-8859-1"?>
<svg version="1.1" id="&#x56FE;&#x5C42;_1" xmlns="http://www.w3.org/2000/svg" xmlns:xlink="http://www.w3.org/1999/xlink" x="0px"
	 y="0px" viewBox="0 0 24 24" style="enable-background:new 0 0 24 24;" xml:space="preserve">
<path style="fill:#333333;" d="M12,10.5c-2.481,0-4.5-2.019-4.5-4.5S9.519,1.5,12,1.5s4.5,2.019,4.5,4.5S14.481,10.5,12,10.5z
	 M12,2.5c-1.93,0-3.5,1.57-3.5,3.5s1.57,3.5,3.5,3.5s3.5-1.57,3.5-3.5S13.93,2.5,12,2.5z"/>
<rect x="11.5" y="10" style="fill:#333333;" width="1" height="9"/>
<polygon style="fill:#333333;" points="22,22.5 2,22.5 1.584,21.723 5.732,15.5 8,15.5 8,16.5 6.268,16.5 2.934,21.5 21.065,21.5 
	17.732,16.5 16,16.5 16,15.5 18.268,15.5 22.416,21.723 "/>
</svg>






