<?xml version="1.0" encoding="iso-8859-1"?>
<svg version="1.1" id="&#x56FE;&#x5C42;_1" xmlns="http://www.w3.org/2000/svg" xmlns:xlink="http://www.w3.org/1999/xlink" x="0px"
	 y="0px" viewBox="0 0 24 24" style="enable-background:new 0 0 24 24;" xml:space="preserve">
<path style="fill:#333333;" d="M12,22c-5.218,0-10.5-1.202-10.5-3.5c0-1.056,1.136-1.955,3.285-2.6l0.287,0.957
	C3.174,17.428,2.5,18.099,2.5,18.5c0,1.044,3.614,2.5,9.5,2.5s9.5-1.456,9.5-2.5c0-0.401-0.674-1.072-2.572-1.643l0.287-0.957
	c2.149,0.645,3.285,1.544,3.285,2.6C22.5,20.798,17.218,22,12,22z"/>
<path style="fill:#333333;" d="M12,18.098l-0.273-0.179C11.452,17.739,5,13.464,5,8.341C5,4.569,8.14,1.5,12,1.5
	c3.859,0,7,3.069,7,6.841c0,5.123-6.452,9.398-6.727,9.578L12,18.098z M12,2.5c-3.309,0-6,2.62-6,5.841c0,4.029,4.791,7.691,6,8.552
	c1.208-0.861,6-4.528,6-8.552C18,5.12,15.309,2.5,12,2.5z"/>
<path style="fill:#333333;" d="M12,11.5c-1.654,0-3-1.346-3-3s1.346-3,3-3s3,1.346,3,3S13.654,11.5,12,11.5z M12,6.5
	c-1.103,0-2,0.897-2,2s0.897,2,2,2c1.103,0,2-0.897,2-2S13.103,6.5,12,6.5z"/>
</svg>






