<?xml version="1.0" encoding="iso-8859-1"?>
<svg version="1.1" id="&#x56FE;&#x5C42;_1" xmlns="http://www.w3.org/2000/svg" xmlns:xlink="http://www.w3.org/1999/xlink" x="0px"
	 y="0px" viewBox="0 0 24 24" style="enable-background:new 0 0 24 24;" xml:space="preserve">
<path style="fill:#333333;" d="M12,22.5c-4.136,0-7.5-3.364-7.5-7.5S7.864,7.5,12,7.5s7.5,3.364,7.5,7.5S16.136,22.5,12,22.5z
	 M12,8.5c-3.584,0-6.5,2.916-6.5,6.5s2.916,6.5,6.5,6.5s6.5-2.916,6.5-6.5S15.584,8.5,12,8.5z"/>
<path style="fill:#333333;" d="M16,9h-1V5.5c0-1.654-1.346-3-3-3s-3,1.346-3,3V9H8V5.5c0-2.206,1.794-4,4-4c2.206,0,4,1.794,4,4V9z"
	/>
<rect x="11.5" y="13" style="fill:#333333;" width="1" height="4"/>
</svg>






