<?xml version="1.0" encoding="iso-8859-1"?>
<svg version="1.1" id="&#x56FE;&#x5C42;_1" xmlns="http://www.w3.org/2000/svg" xmlns:xlink="http://www.w3.org/1999/xlink" x="0px"
	 y="0px" viewBox="0 0 24 24" style="enable-background:new 0 0 24 24;" xml:space="preserve">
<path style="fill:#333333;" d="M20,22.5H4c-0.827,0-1.5-0.673-1.5-1.5v-9c0-0.827,0.673-1.5,1.5-1.5h16c0.827,0,1.5,0.673,1.5,1.5v9
	C21.5,21.827,20.827,22.5,20,22.5z M4,11.5c-0.276,0-0.5,0.224-0.5,0.5v9c0,0.275,0.224,0.5,0.5,0.5h16c0.275,0,0.5-0.225,0.5-0.5
	v-9c0-0.276-0.225-0.5-0.5-0.5H4z"/>
<path style="fill:#333333;" d="M17.5,11h-1V7c0-2.481-2.019-4.5-4.5-4.5S7.5,4.519,7.5,7v4h-1V7c0-3.033,2.467-5.5,5.5-5.5
	c3.032,0,5.5,2.467,5.5,5.5V11z"/>
<rect x="11.5" y="15" style="fill:#333333;" width="1" height="3"/>
</svg>






