<?xml version="1.0" encoding="iso-8859-1"?>
<svg version="1.1" id="&#x56FE;&#x5C42;_1" xmlns="http://www.w3.org/2000/svg" xmlns:xlink="http://www.w3.org/1999/xlink" x="0px"
	 y="0px" viewBox="0 0 24 24" style="enable-background:new 0 0 24 24;" xml:space="preserve">
<path style="fill:#333333;" d="M19.5,17.5h-15c-1.103,0-2-0.897-2-2v-11c0-1.103,0.897-2,2-2H12v1H4.5c-0.551,0-1,0.449-1,1v11
	c0,0.552,0.449,1,1,1h15c0.552,0,1-0.448,1-1v-2h1v2C21.5,16.603,20.603,17.5,19.5,17.5z"/>
<rect x="11.5" y="17" style="fill:#333333;" width="1" height="4"/>
<path style="fill:#333333;" d="M19.5,10.5h-3c-1.103,0-2-0.897-2-2v-1c0-1.103,0.897-2,2-2h3c1.103,0,2,0.897,2,2v1
	C21.5,9.603,20.603,10.5,19.5,10.5z M16.5,6.5c-0.552,0-1,0.449-1,1v1c0,0.551,0.448,1,1,1h3c0.552,0,1-0.449,1-1v-1
	c0-0.551-0.448-1-1-1H16.5z"/>
<path style="fill:#333333;" d="M20,6.5h-4v-2c0-1.103,0.897-2,2-2s2,0.897,2,2V6.5z M17,5.5h2v-1c0-0.551-0.448-1-1-1s-1,0.449-1,1
	V5.5z"/>
<rect x="7" y="20.5" style="fill:#333333;" width="10" height="1"/>
</svg>






