<?xml version="1.0" encoding="iso-8859-1"?>
<svg version="1.1" id="&#x56FE;&#x5C42;_1" xmlns="http://www.w3.org/2000/svg" xmlns:xlink="http://www.w3.org/1999/xlink" x="0px"
	 y="0px" viewBox="0 0 24 24" style="enable-background:new 0 0 24 24;" xml:space="preserve">
<path style="fill:#333333;" d="M12,20.5H3.5c-1.103,0-2-0.897-2-2v-13c0-1.103,0.897-2,2-2h17c1.103,0,2,0.897,2,2v6.029h-1V5.5
	c0-0.551-0.448-1-1-1h-17c-0.551,0-1,0.449-1,1v13c0,0.552,0.449,1,1,1H12V20.5z"/>
<path style="fill:#333333;" d="M22.5,10.5h-21v-5c0-1.103,0.897-2,2-2h17c1.103,0,2,0.897,2,2V10.5z M2.5,9.5h19v-4
	c0-0.551-0.448-1-1-1h-17c-0.551,0-1,0.449-1,1V9.5z"/>
<path style="fill:#333333;" d="M20.5,21h-3c-1.103,0-2-0.897-2-2v-1c0-1.103,0.897-2,2-2h3c1.103,0,2,0.897,2,2v1
	C22.5,20.103,21.603,21,20.5,21z M17.5,17c-0.552,0-1,0.448-1,1v1c0,0.552,0.448,1,1,1h3c0.552,0,1-0.448,1-1v-1
	c0-0.552-0.448-1-1-1H17.5z"/>
<path style="fill:#333333;" d="M21,17h-4v-2c0-1.103,0.897-2,2-2s2,0.897,2,2V17z M18,16h2v-1c0-0.552-0.448-1-1-1s-1,0.448-1,1V16z
	"/>
<circle style="fill:#333333;" cx="5" cy="7" r="1"/>
<circle style="fill:#333333;" cx="8" cy="7" r="1"/>
</svg>






