<?xml version="1.0" encoding="iso-8859-1"?>
<svg version="1.1" id="&#x56FE;&#x5C42;_1" xmlns="http://www.w3.org/2000/svg" xmlns:xlink="http://www.w3.org/1999/xlink" x="0px"
	 y="0px" viewBox="0 0 24 24" style="enable-background:new 0 0 24 24;" xml:space="preserve">
<path style="fill:#333333;" d="M13,19.5c-0.129,0-0.26-0.003-0.385-0.013c-2.113-0.091-4.117-0.972-5.625-2.479
	c-0.812-0.812-1.44-1.758-1.868-2.812C4.709,13.18,4.5,12.104,4.5,10.999c0-1.105,0.209-2.181,0.623-3.198
	c0.427-1.053,1.056-2,1.868-2.812C7.803,4.177,8.75,3.549,9.803,3.123c2.033-0.826,4.359-0.826,6.396,0
	c1.054,0.427,1.999,1.055,2.812,1.867c0.946,0.944,1.638,2.062,2.057,3.322c0.399,1.2,0.526,2.5,0.367,3.759
	c-0.073,0.563-0.198,1.111-0.373,1.631c-0.559,1.65-1.297,2.727-2.633,3.839h-0.001C16.906,18.805,14.979,19.5,13,19.5z M13,3.5
	c-0.976,0-1.924,0.185-2.822,0.549C9.25,4.425,8.415,4.979,7.697,5.697C6.98,6.414,6.426,7.249,6.049,8.178
	C5.685,9.075,5.5,10.024,5.5,10.999c0,0.976,0.185,1.925,0.549,2.82c0.376,0.931,0.931,1.765,1.648,2.481
	c1.331,1.33,3.099,2.107,4.979,2.188C12.793,18.499,12.896,18.5,13,18.5c1.746,0,3.446-0.614,4.788-1.729
	c1.195-0.995,1.825-1.913,2.325-3.389c0.153-0.457,0.264-0.94,0.328-1.438c0.141-1.111,0.028-2.258-0.324-3.317
	c-0.369-1.111-0.979-2.097-1.814-2.93c-0.717-0.717-1.552-1.271-2.48-1.648C14.925,3.685,13.976,3.5,13,3.5z"/>
<path style="fill:#333333;" d="M11.951,16.5c-0.143,0-0.284-0.004-0.432-0.014c-1.221-0.084-2.786-0.312-4.081-1.346
	c-1.139-0.907-1.974-2.113-2.415-3.488l0.952-0.306c0.38,1.186,1.102,2.227,2.085,3.012c0.854,0.681,1.908,1.019,3.524,1.129
	c1.358,0.087,2.664-0.349,3.675-1.229c1.021-0.888,1.635-2.117,1.729-3.462c0.074-1.073-0.273-2.109-0.978-2.917
	c-0.705-0.811-1.684-1.298-2.754-1.373c-1.783-0.122-3.286,1.205-3.408,2.96c-0.047,0.672,0.171,1.323,0.615,1.833
	c0.444,0.51,1.059,0.817,1.732,0.864c0.537,0.04,1.048-0.136,1.45-0.484c0.403-0.35,0.646-0.835,0.682-1.366
	c0.03-0.419-0.105-0.824-0.382-1.144c-0.275-0.317-0.658-0.508-1.077-0.536c-0.698-0.055-1.271,0.466-1.319,1.144l-0.997-0.07
	c0.086-1.229,1.174-2.165,2.386-2.071c0.686,0.046,1.312,0.358,1.764,0.879c0.452,0.522,0.673,1.186,0.624,1.869
	c-0.056,0.796-0.419,1.525-1.023,2.05c-0.605,0.526-1.372,0.783-2.177,0.728c-0.938-0.065-1.796-0.494-2.416-1.206
	c-0.619-0.712-0.924-1.621-0.858-2.56c0.162-2.304,2.159-4.045,4.475-3.888c1.337,0.093,2.559,0.702,3.438,1.714
	c0.88,1.008,1.313,2.302,1.222,3.643c-0.114,1.613-0.85,3.085-2.071,4.147C14.816,15.973,13.408,16.5,11.951,16.5z"/>
<rect x="2.084" y="18.621" transform="matrix(0.6858 -0.7278 0.7278 0.6858 -12.3453 9.6468)" style="fill:#333333;" width="5.831" height="1"/>
</svg>






