<?xml version="1.0" encoding="iso-8859-1"?>
<svg version="1.1" id="&#x56FE;&#x5C42;_1" xmlns="http://www.w3.org/2000/svg" xmlns:xlink="http://www.w3.org/1999/xlink" x="0px"
	 y="0px" viewBox="0 0 24 24" style="enable-background:new 0 0 24 24;" xml:space="preserve">
<path style="fill:#333333;" d="M15,19H8c-3.584,0-6.5-2.916-6.5-6.5S4.416,6,8,6h14v1H8c-3.033,0-5.5,2.467-5.5,5.5
	C2.5,15.532,4.967,18,8,18h7c1.999,0,3.858-0.9,5.101-2.472c0.47-0.593,0.828-1.255,1.065-1.967c0.11-0.33,0.195-0.676,0.253-1.026
	l0.986,0.16c-0.065,0.403-0.163,0.802-0.29,1.183c-0.274,0.822-0.688,1.587-1.23,2.271C19.452,17.961,17.307,19,15,19z"/>
<polygon style="fill:#333333;" points="19.354,9.854 18.646,9.146 21.293,6.5 18.646,3.854 19.354,3.146 22.707,6.5 "/>
</svg>






