<?xml version="1.0" encoding="iso-8859-1"?>
<svg version="1.1" id="&#x56FE;&#x5C42;_1" xmlns="http://www.w3.org/2000/svg" xmlns:xlink="http://www.w3.org/1999/xlink" x="0px"
	 y="0px" viewBox="0 0 24 24" style="enable-background:new 0 0 24 24;" xml:space="preserve">
<path style="fill:#333333;" d="M14.004,8.059c-0.198-1.677-1.44-3.502-2.077-4.343c-1.591,1.499-1.885,3.846-1.929,4.33L9.002,7.955
	c0.055-0.594,0.44-3.641,2.696-5.353l0.382-0.291l0.306,0.371c0.545,0.662,2.345,2.997,2.61,5.259L14.004,8.059z"/>
<path style="fill:#333333;" d="M12.325,21.584l-0.534-0.091c-2.41-0.414-5.766-2.011-7.957-5.25C1.505,12.8,0.911,8.309,2.071,2.896
	l0.106-0.496l0.494,0.113c3.858,0.883,10.852,5.893,9.703,18.532L12.325,21.584z M2.943,3.621c-0.956,4.905-0.378,8.961,1.72,12.063
	c1.856,2.743,4.613,4.204,6.761,4.714C12.224,9.38,6.514,4.72,2.943,3.621z"/>
<path style="fill:#333333;" d="M11.675,21.584l-0.049-0.539c-1.148-12.64,5.845-17.649,9.703-18.532l0.494-0.113l0.106,0.496
	c1.159,5.413,0.565,9.904-1.765,13.349c-2.191,3.238-5.547,4.835-7.956,5.249L11.675,21.584z M21.057,3.621
	c-3.571,1.099-9.28,5.76-8.48,16.777c2.147-0.51,4.904-1.971,6.761-4.714C21.436,12.582,22.013,8.525,21.057,3.621z"/>
</svg>






