<?xml version="1.0" encoding="iso-8859-1"?>
<svg version="1.1" id="&#x56FE;&#x5C42;_1" xmlns="http://www.w3.org/2000/svg" xmlns:xlink="http://www.w3.org/1999/xlink" x="0px"
	 y="0px" viewBox="0 0 24 24" style="enable-background:new 0 0 24 24;" xml:space="preserve">
<path style="fill:#333333;" d="M12,21.19l-0.158-0.053C8.13,19.904,1.5,14.793,1.5,9c0-3.309,2.691-6,6-6
	c1.729,0,3.368,0.749,4.5,2.031C13.133,3.749,14.771,3,16.5,3c3.309,0,6,2.691,6,6c0,5.793-6.631,10.904-10.343,12.138L12,21.19z
	 M7.5,4c-2.757,0-5,2.243-5,5c0,5.158,6.095,9.92,9.5,11.134C15.404,18.92,21.5,14.158,21.5,9c0-2.757-2.243-5-5-5
	c-1.625,0-3.154,0.794-4.091,2.125L12,6.706l-0.409-0.581C10.655,4.794,9.125,4,7.5,4z"/>
<rect x="9" y="11.5" style="fill:#333333;" width="6" height="1"/>
<rect x="11.5" y="9" style="fill:#333333;" width="1" height="6"/>
</svg>






