<?xml version="1.0" encoding="iso-8859-1"?>
<svg version="1.1" id="&#x56FE;&#x5C42;_1" xmlns="http://www.w3.org/2000/svg" xmlns:xlink="http://www.w3.org/1999/xlink" x="0px"
	 y="0px" viewBox="0 0 24 24" style="enable-background:new 0 0 24 24;" xml:space="preserve">
<path style="fill:#333333;" d="M3.5,11.5h-1c0-0.995,1.186-3.195,3.927-3.775c2.446-0.518,4.644-2.676,5.148-3.489l0.85,0.527
	c-0.655,1.056-3.102,3.371-5.791,3.94C4.284,9.201,3.5,11.048,3.5,11.5z"/>
<path style="fill:#333333;" d="M21.5,11.504l-1-0.008c0.004-0.45-0.771-2.292-3.134-2.792c-2.689-0.569-5.137-2.885-5.791-3.94
	l0.85-0.527c0.504,0.813,2.702,2.971,5.148,3.489C20.33,8.309,21.508,10.51,21.5,11.504z"/>
<circle style="fill:#333333;" cx="12" cy="4.5" r="2"/>
<rect x="11.5" y="4.5" style="fill:#333333;" width="1" height="7"/>
<rect x="2.5" y="16" style="fill:#333333;" width="3" height="1"/>
<rect x="2.5" y="20" style="fill:#333333;" width="3" height="1"/>
<rect x="18.5" y="16" style="fill:#333333;" width="3" height="1"/>
<rect x="18.5" y="20" style="fill:#333333;" width="3" height="1"/>
<rect x="10.5" y="16" style="fill:#333333;" width="3" height="1"/>
<rect x="10.5" y="20" style="fill:#333333;" width="3" height="1"/>
</svg>






