<?xml version="1.0" encoding="iso-8859-1"?>
<svg version="1.1" id="&#x56FE;&#x5C42;_1" xmlns="http://www.w3.org/2000/svg" xmlns:xlink="http://www.w3.org/1999/xlink" x="0px"
	 y="0px" viewBox="0 0 24 24" style="enable-background:new 0 0 24 24;" xml:space="preserve">
<path style="fill:#333333;" d="M19,20.5H5c-0.827,0-1.5-0.673-1.5-1.5V8c0-0.827,0.673-1.5,1.5-1.5h14c0.827,0,1.5,0.673,1.5,1.5v11
	C20.5,19.827,19.827,20.5,19,20.5z M5,7.5C4.724,7.5,4.5,7.724,4.5,8v11c0,0.275,0.224,0.5,0.5,0.5h14c0.275,0,0.5-0.225,0.5-0.5V8
	c0-0.276-0.225-0.5-0.5-0.5H5z"/>
<rect x="9.5" y="11.5" style="fill:#333333;" width="1" height="4"/>
<rect x="7" y="20" style="fill:#333333;" width="1" height="2"/>
<rect x="16" y="20" style="fill:#333333;" width="1" height="2"/>
<rect x="13.5" y="11.5" style="fill:#333333;" width="1" height="4"/>
<rect x="9.5" y="1.5" style="fill:#333333;" width="5" height="1"/>
<rect x="11.5" y="2" style="fill:#333333;" width="1" height="5"/>
</svg>






