<?xml version="1.0" encoding="iso-8859-1"?>
<svg version="1.1" id="&#x56FE;&#x5C42;_1" xmlns="http://www.w3.org/2000/svg" xmlns:xlink="http://www.w3.org/1999/xlink" x="0px"
	 y="0px" viewBox="0 0 24 24" style="enable-background:new 0 0 24 24;" xml:space="preserve">
<path style="fill:#333333;" d="M3.249,20.92c-0.113,0-0.225-0.01-0.335-0.03c-0.219-0.04-0.538-0.173-0.81-0.574
	c-0.73-1.076-0.805-3.66-0.195-6.744c0.809-4.085,3.563-6.962,5.494-6.787c1.974,0.169,2.157,3.292,2.218,4.317l-0.998,0.059
	c-0.125-2.118-0.588-3.318-1.306-3.38c-1.274-0.111-3.683,2.223-4.426,5.984c-0.624,3.154-0.416,5.315,0.041,5.99
	c0.059,0.087,0.121,0.144,0.165,0.152c0.429,0.079,1.118-0.227,1.671-0.474c0.512-0.228,0.955-0.425,1.34-0.425
	c0.162,0,0.41,0.025,0.7,0.057c0.405,0.044,1.639,0.179,1.862-0.021l-0.022-4.01h1v4.052c0,0.277-0.107,0.521-0.31,0.702
	C8.827,20.249,7.84,20.186,6.7,20.06c-0.245-0.026-0.455-0.051-0.592-0.051c-0.173,0-0.595,0.188-0.934,0.339
	C4.567,20.618,3.89,20.92,3.249,20.92z"/>
<path style="fill:#333333;" d="M20.688,20.92c-0.641,0-1.318-0.302-1.927-0.572c-0.338-0.151-0.759-0.339-0.932-0.339
	c-0.137,0-0.347,0.024-0.592,0.051c-1.143,0.124-2.126,0.19-2.639-0.271c-0.202-0.182-0.31-0.425-0.31-0.702v-4.052h1v4.052
	c0.201,0.156,1.435,0.023,1.84-0.021c0.29-0.031,0.539-0.057,0.7-0.057c0.386,0,0.827,0.197,1.339,0.425
	c0.553,0.246,1.232,0.553,1.671,0.474c0.045-0.009,0.106-0.065,0.166-0.152c0.457-0.675,0.665-2.837,0.041-5.99
	c-0.744-3.761-3.15-6.094-4.427-5.984c-0.723,0.062-1.188,1.281-1.309,3.433l-0.998-0.057c0.059-1.039,0.236-4.202,2.221-4.373
	c1.908-0.167,4.686,2.701,5.493,6.787c0.61,3.083,0.536,5.668-0.194,6.744c-0.271,0.401-0.59,0.534-0.81,0.574
	C20.912,20.91,20.8,20.92,20.688,20.92z"/>
<path style="fill:#333333;" d="M7.41,12.174v-1c2.345,0,2.362-0.893,2.368-1.229V2.5h1v7.455
	C10.758,10.973,10.158,12.174,7.41,12.174z"/>
<path style="fill:#333333;" d="M16.514,12.174c-2.749,0-3.349-1.202-3.367-2.209V2.5h1v7.455c0.006,0.327,0.022,1.219,2.367,1.219
	V12.174z"/>
<path style="fill:#333333;" d="M16.515,15.535c-1.897,0-3.413-0.423-4.514-1.259c-1.095,0.836-2.606,1.259-4.501,1.259v-1
	c1.839,0,3.239-0.43,4.162-1.277l0.337-0.31l0.338,0.309c0.93,0.849,2.335,1.278,4.178,1.278V15.535z"/>
</svg>






