<?xml version="1.0" encoding="iso-8859-1"?>
<svg version="1.1" id="&#x56FE;&#x5C42;_1" xmlns="http://www.w3.org/2000/svg" xmlns:xlink="http://www.w3.org/1999/xlink" x="0px"
	 y="0px" viewBox="0 0 24 24" style="enable-background:new 0 0 24 24;" xml:space="preserve">
<path style="fill:#333333;" d="M21,20.5H3c-0.827,0-1.5-0.673-1.5-1.5V5c0-0.827,0.673-1.5,1.5-1.5h18c0.827,0,1.5,0.673,1.5,1.5v14
	C22.5,19.827,21.827,20.5,21,20.5z M3,4.5C2.724,4.5,2.5,4.724,2.5,5v14c0,0.275,0.224,0.5,0.5,0.5h18c0.275,0,0.5-0.225,0.5-0.5V5
	c0-0.276-0.225-0.5-0.5-0.5H3z"/>
<path style="fill:#333333;" d="M13.501,20.033L13.032,13h-2.966l-0.062-0.43c-0.516-3.613,1.943-8.584,2.048-8.794l0.895,0.447
	C12.924,4.27,10.723,8.723,10.95,12h3.018l0.531,7.967L13.501,20.033z"/>
<rect x="11" y="19.5" style="fill:#333333;" width="6" height="1"/>
<rect x="9" y="3.5" style="fill:#333333;" width="6" height="1"/>
<rect x="16.5" y="8" style="fill:#333333;" width="1" height="1"/>
<rect x="6.5" y="8" style="fill:#333333;" width="1" height="1"/>
<path style="fill:#333333;" d="M12,16.5c-3.525,0-5.7-1.528-5.791-1.594l0.581-0.813C6.81,14.106,8.813,15.5,12,15.5
	c3.187,0,5.19-1.394,5.21-1.407l0.581,0.813C17.7,14.972,15.524,16.5,12,16.5z"/>
</svg>






