<?xml version="1.0" encoding="iso-8859-1"?>
<svg version="1.1" id="&#x56FE;&#x5C42;_1" xmlns="http://www.w3.org/2000/svg" xmlns:xlink="http://www.w3.org/1999/xlink" x="0px"
	 y="0px" viewBox="0 0 24 24" style="enable-background:new 0 0 24 24;" xml:space="preserve">
<path style="fill:#333333;" d="M12,22c-5.514,0-10-4.262-10-9.5V12h12.707L16,13.293L17.293,12H22v0.5C22,17.738,17.514,22,12,22z
	 M3.016,13c0.275,4.455,4.2,8,8.984,8c4.785,0,8.71-3.545,8.984-8h-3.277L16,14.707L14.293,13H3.016z"/>
<path style="fill:#333333;" d="M20.967,12.574l-0.988-0.148c0.033-0.222,0.021-0.467,0.009-0.726
	c-0.008-0.149-0.015-0.299-0.015-0.45c0-4.395-3.609-8.25-7.724-8.25C10.51,3,8.585,3.559,7.313,4.413
	C7.447,4.757,7.516,5.126,7.516,5.5c0,1.707-1.452,3.077-3.148,2.996c-0.222,0.83-0.34,1.977-0.34,2.754
	c0,0.151-0.007,0.301-0.015,0.451C4,11.96,3.988,12.204,4.022,12.426l-0.989,0.148C2.985,12.255,3,11.948,3.015,11.651
	c0.006-0.133,0.013-0.267,0.013-0.401c0-1.013,0.177-2.531,0.516-3.472L3.691,7.37l0.425,0.088C4.25,7.486,4.387,7.5,4.524,7.5
	c1.098,0,1.992-0.897,1.992-2c0-0.352-0.092-0.697-0.265-0.999L6.035,4.126l0.34-0.268C7.812,2.729,10.117,2,12.249,2
	c4.729,0,8.724,4.236,8.724,9.25c0,0.134,0.007,0.268,0.014,0.401C21,11.948,21.016,12.255,20.967,12.574z"/>
<rect x="3" y="15" style="fill:#333333;" width="5" height="1"/>
</svg>






