<?xml version="1.0" encoding="iso-8859-1"?>
<svg version="1.1" id="&#x56FE;&#x5C42;_1" xmlns="http://www.w3.org/2000/svg" xmlns:xlink="http://www.w3.org/1999/xlink" x="0px"
	 y="0px" viewBox="0 0 24 24" style="enable-background:new 0 0 24 24;" xml:space="preserve">
<path style="fill:#333333;" d="M12,22.5c-2.159,0-4.232-0.65-5.997-1.88l0,0c-1.027-0.716-1.91-1.6-2.624-2.624l0,0
	C2.15,16.23,1.5,14.157,1.5,12C1.5,6.21,6.21,1.5,12,1.5c5.79,0,10.5,4.71,10.5,10.5C22.5,17.79,17.79,22.5,12,22.5z M7.079,20.128
	C8.56,21.027,10.249,21.5,12,21.5c5.238,0,9.5-4.262,9.5-9.5S17.238,2.5,12,2.5S2.5,6.762,2.5,12c0,1.75,0.473,3.439,1.372,4.921
	L10,10.793L13.207,14l-2.354,2.354L10.5,16l0.354,0.354L7.079,20.128z M4.445,17.761c0.516,0.676,1.117,1.276,1.793,1.793L9.793,16
	L8,14.207L4.445,17.761z M8.707,13.5l1.793,1.793L11.793,14L10,12.207L8.707,13.5z"/>
<polygon style="fill:#333333;" points="10,8 9,8 9,7.5 8.5,7.5 8.5,6.5 9,6.5 9,6 10,6 10,6.5 10.5,6.5 10.5,7.5 10,7.5 "/>
<polygon style="fill:#333333;" points="16,10 15,10 15,9 14,9 14,8 15,8 15,7 16,7 16,8 17,8 17,9 16,9 "/>
<polygon style="fill:#333333;" points="17.5,15.5 16.5,15.5 16.5,15 16,15 16,14 16.5,14 16.5,13.5 17.5,13.5 17.5,14 18,14 18,15 
	17.5,15 "/>
</svg>






