<?xml version="1.0" encoding="iso-8859-1"?>
<svg version="1.1" id="&#x56FE;&#x5C42;_1" xmlns="http://www.w3.org/2000/svg" xmlns:xlink="http://www.w3.org/1999/xlink" x="0px"
	 y="0px" viewBox="0 0 24 24" style="enable-background:new 0 0 24 24;" xml:space="preserve">
<path style="fill:#333333;" d="M12,22c-7.381,0-10-2.693-10-5c0-2.147,2.283-3.263,3.499-3.82c-0.01-1.044-0.069-2.891-0.244-4.109
	c-0.14-0.983-0.277-1.63-0.422-2.314C4.724,6.245,4.615,5.733,4.507,5.082l0.986-0.164c0.106,0.634,0.211,1.133,0.317,1.631
	C5.953,7.22,6.1,7.913,6.245,8.929C6.447,10.34,6.5,12.536,6.5,13.5v0.32l-0.461,0.212C4.977,14.517,3,15.42,3,17
	c0,1.927,2.816,4,9,4s9-2.073,9-4c0-1.37-2.308-2.659-3.197-3.04L17.5,13.83V13.5c0-0.113,0.003-2.806,0.255-4.571
	c0.146-1.017,0.292-1.709,0.435-2.38c0.105-0.499,0.212-0.997,0.317-1.631l0.986,0.164c-0.108,0.651-0.217,1.163-0.325,1.675
	c-0.146,0.684-0.282,1.331-0.423,2.314c-0.192,1.349-0.234,3.339-0.243,4.109C19.442,13.632,22,15.04,22,17
	C22,19.307,19.381,22,12,22z"/>
<path style="fill:#333333;" d="M11.75,18v-1c5.75,0,5.75-2.022,5.75-3.5h1C18.5,15.837,17.683,18,11.75,18z"/>
<path style="fill:#333333;" d="M12,8C8.364,8,4.5,6.949,4.5,5S8.364,2,12,2s7.5,1.051,7.5,3S15.636,8,12,8z M12,3
	C8.032,3,5.5,4.185,5.5,5S8.032,7,12,7s6.5-1.185,6.5-2S15.968,3,12,3z"/>
</svg>






