<?xml version="1.0" encoding="iso-8859-1"?>
<svg version="1.1" id="&#x56FE;&#x5C42;_1" xmlns="http://www.w3.org/2000/svg" xmlns:xlink="http://www.w3.org/1999/xlink" x="0px"
	 y="0px" viewBox="0 0 24 24" style="enable-background:new 0 0 24 24;" xml:space="preserve">
<path style="fill:#333333;" d="M15.5,16h-1v-3h1V16z M19.597,14.304l-2.122-2.121l0.707-0.708l2.122,2.122L19.597,14.304z
	 M10.404,14.304l-0.707-0.707l2.122-2.122l0.707,0.708L10.404,14.304z M22,9.5h-3v-1h3V9.5z M11,9.5H8v-1h3V9.5z M18.182,6.525
	l-0.707-0.707l2.122-2.121l0.707,0.707L18.182,6.525z M11.818,6.525L9.697,4.404l0.707-0.707l2.122,2.121L11.818,6.525z M15.5,5h-1
	V2h1V5z"/>
<rect x="0.283" y="14.717" transform="matrix(0.7071 -0.7071 0.7071 0.7071 -8.1879 10.6672)" style="fill:#333333;" width="17" height="1"/>
</svg>






