<?xml version="1.0" encoding="iso-8859-1"?>
<svg version="1.1" id="&#x56FE;&#x5C42;_1" xmlns="http://www.w3.org/2000/svg" xmlns:xlink="http://www.w3.org/1999/xlink" x="0px"
	 y="0px" viewBox="0 0 24 24" style="enable-background:new 0 0 24 24;" xml:space="preserve">
<path style="fill:#333333;" d="M12,22.5c-5.238,0-9.5-4.262-9.5-9.5V5h1v8c0,4.687,3.813,8.5,8.5,8.5c4.687,0,8.5-3.813,8.5-8.5V5h1
	v8C21.5,18.238,17.238,22.5,12,22.5z M12,18.5c-3.033,0-5.5-2.468-5.5-5.5V5h1v8c0,2.481,2.019,4.5,4.5,4.5s4.5-2.019,4.5-4.5V5h1v8
	C17.5,16.032,15.032,18.5,12,18.5z"/>
<path style="fill:#333333;" d="M7.5,5.5h-5v-4h5V5.5z M3.5,4.5h3v-2h-3V4.5z"/>
<path style="fill:#333333;" d="M21.5,5.5h-5v-4h5V5.5z M17.5,4.5h3v-2h-3V4.5z"/>
</svg>






