<?xml version="1.0" encoding="iso-8859-1"?>
<svg version="1.1" id="&#x56FE;&#x5C42;_1" xmlns="http://www.w3.org/2000/svg" xmlns:xlink="http://www.w3.org/1999/xlink" x="0px"
	 y="0px" viewBox="0 0 24 24" style="enable-background:new 0 0 24 24;" xml:space="preserve">
<path style="fill:#333333;" d="M21,21.5H3c-0.827,0-1.5-0.714-1.5-1.591V9l0.772-0.419L12,14.903l9.728-6.323L22.5,9v10.909
	C22.5,20.786,21.827,21.5,21,21.5z M2.5,9.921v9.988C2.5,20.235,2.724,20.5,3,20.5h18c0.275,0,0.5-0.265,0.5-0.591V9.921L12,16.097
	L2.5,9.921z"/>
<polygon style="fill:#333333;" points="21.716,9.304 12,2.607 2.284,9.304 1.716,8.48 12,1.393 22.284,8.48 "/>
</svg>






