<?xml version="1.0" encoding="iso-8859-1"?>
<svg version="1.1" id="&#x56FE;&#x5C42;_1" xmlns="http://www.w3.org/2000/svg" xmlns:xlink="http://www.w3.org/1999/xlink" x="0px"
	 y="0px" viewBox="0 0 24 24" style="enable-background:new 0 0 24 24;" xml:space="preserve">
<path style="fill:#333333;" d="M21,22H3c-0.827,0-1.5-0.714-1.5-1.591V12l0.772-0.419L12,17.903l9.728-6.323L22.5,12v8.409
	C22.5,21.286,21.827,22,21,22z M2.5,12.921v7.488C2.5,20.735,2.724,21,3,21h18c0.275,0,0.5-0.265,0.5-0.591v-7.488L12,19.097
	L2.5,12.921z"/>
<path style="fill:#333333;" d="M21.716,12.304l-5-3.446l0.568-0.823l5,3.446L21.716,12.304z M2.284,12.304L1.716,11.48l5-3.446
	l0.567,0.823L2.284,12.304z"/>
<path style="fill:#333333;" d="M12,18.808c-0.284,0-0.569-0.081-0.818-0.243l-4-2.6C6.755,15.687,6.5,15.217,6.5,14.707V2h11v12.707
	c0,0.51-0.255,0.98-0.683,1.258l-4,2.6C12.569,18.727,12.285,18.808,12,18.808z M7.5,3v11.707c0,0.17,0.085,0.327,0.228,0.42l4,2.6
	c0.166,0.107,0.38,0.107,0.544,0l4.001-2.6c0.143-0.093,0.228-0.25,0.228-0.42V3H7.5z"/>
<rect x="10" y="6" style="fill:#333333;" width="2" height="1"/>
<rect x="10" y="9" style="fill:#333333;" width="4" height="1"/>
</svg>






