<?xml version="1.0" encoding="iso-8859-1"?>
<svg version="1.1" id="&#x56FE;&#x5C42;_1" xmlns="http://www.w3.org/2000/svg" xmlns:xlink="http://www.w3.org/1999/xlink" x="0px"
	 y="0px" viewBox="0 0 24 24" style="enable-background:new 0 0 24 24;" xml:space="preserve">
<path style="fill:#333333;" d="M12,22.5C6.21,22.5,1.5,17.79,1.5,12C1.5,6.21,6.21,1.5,12,1.5v1c-5.238,0-9.5,4.262-9.5,9.5
	s4.262,9.5,9.5,9.5s9.5-4.262,9.5-9.5h1C22.5,17.79,17.79,22.5,12,22.5z"/>
<polygon style="fill:#333333;" points="18.846,6.17 18.805,6.14 18.765,6.169 17.995,5.61 18.011,5.563 17.97,5.534 18.329,4.581 
	19.346,4.629 19.64,5.533 19.6,5.562 19.615,5.61 "/>
<path style="fill:#333333;" d="M12,18c-3.271,0-4.401-2.184-4.447-2.276l0.893-0.45C8.482,15.344,9.371,17,12,17
	c2.63,0,3.518-1.656,3.555-1.727l0.893,0.45C16.4,15.816,15.271,18,12,18z"/>
<path style="fill:#333333;" d="M8.5,13c-1.103,0-2-0.897-2-2c0-1.103,0.897-2,2-2s2,0.897,2,2C10.5,12.103,9.603,13,8.5,13z M8.5,10
	c-0.551,0-1,0.449-1,1s0.449,1,1,1s1-0.449,1-1S9.051,10,8.5,10z"/>
<path style="fill:#333333;" d="M15.5,13c-1.103,0-2-0.897-2-2c0-1.103,0.897-2,2-2s2,0.897,2,2C17.5,12.103,16.603,13,15.5,13z
	 M15.5,10c-0.552,0-1,0.449-1,1s0.448,1,1,1s1-0.449,1-1S16.052,10,15.5,10z"/>
</svg>






