<?xml version="1.0" encoding="iso-8859-1"?>
<svg version="1.1" id="&#x56FE;&#x5C42;_1" xmlns="http://www.w3.org/2000/svg" xmlns:xlink="http://www.w3.org/1999/xlink" x="0px"
	 y="0px" viewBox="0 0 24 24" style="enable-background:new 0 0 24 24;" xml:space="preserve">
<polygon style="fill:#333333;" points="21.476,7.524 20.476,7.524 20.476,3.524 16.476,3.524 16.476,2.524 21.476,2.524 "/>
<path style="fill:#333333;" d="M10.156,21.551c-2.003,0-3.887-0.78-5.303-2.197c-2.924-2.924-2.924-7.682,0-10.606
	c2.925-2.924,7.684-2.923,10.607,0c1.416,1.417,2.196,3.3,2.196,5.303s-0.78,3.887-2.196,5.303
	C14.043,20.771,12.159,21.551,10.156,21.551z M10.156,7.554c-1.665,0-3.329,0.634-4.596,1.901c-2.534,2.534-2.534,6.658,0,9.192l0,0
	c1.228,1.228,2.86,1.904,4.596,1.904c1.736,0,3.368-0.677,4.597-1.904c1.228-1.228,1.903-2.859,1.903-4.596
	s-0.676-3.368-1.903-4.596C13.485,8.188,11.821,7.554,10.156,7.554z"/>
<rect x="13.97" y="6.012" transform="matrix(0.7071 -0.7071 0.7071 0.7071 0.5172 14.2731)" style="fill:#333333;" width="7.037" height="1"/>
</svg>






