<?xml version="1.0" encoding="iso-8859-1"?>
<svg version="1.1" id="&#x56FE;&#x5C42;_1" xmlns="http://www.w3.org/2000/svg" xmlns:xlink="http://www.w3.org/1999/xlink" x="0px"
	 y="0px" viewBox="0 0 24 24" style="enable-background:new 0 0 24 24;" xml:space="preserve">
<path style="fill:#333333;" d="M20,22H4c-0.827,0-1.5-0.673-1.5-1.5V5.8h19v14.7C21.5,21.327,20.827,22,20,22z M3.5,6.8v13.7
	C3.5,20.775,3.724,21,4,21h16c0.275,0,0.5-0.225,0.5-0.5V6.8H3.5z"/>
<polygon style="fill:#333333;" points="3.401,6.599 2.599,6.001 5.583,2 18.418,2 21.4,6.001 20.6,6.599 17.916,3 6.084,3 "/>
<path style="fill:#333333;" d="M12,13.9c-2.359,0-4.278-1.929-4.278-4.3h1c0,1.82,1.47,3.3,3.278,3.3s3.277-1.48,3.277-3.3h1
	C16.277,11.971,14.358,13.9,12,13.9z"/>
</svg>






