<?xml version="1.0" encoding="iso-8859-1"?>
<svg version="1.1" id="&#x56FE;&#x5C42;_1" xmlns="http://www.w3.org/2000/svg" xmlns:xlink="http://www.w3.org/1999/xlink" x="0px"
	 y="0px" viewBox="0 0 24 24" style="enable-background:new 0 0 24 24;" xml:space="preserve">
<path style="fill:#333333;" d="M21,22.5H3c-0.827,0-1.5-0.673-1.5-1.5V3c0-0.827,0.673-1.5,1.5-1.5h18c0.827,0,1.5,0.673,1.5,1.5v18
	C22.5,21.827,21.827,22.5,21,22.5z M3,2.5C2.724,2.5,2.5,2.724,2.5,3v18c0,0.275,0.224,0.5,0.5,0.5h18c0.275,0,0.5-0.225,0.5-0.5V3
	c0-0.276-0.225-0.5-0.5-0.5H3z"/>
<rect x="4.567" y="8" transform="matrix(0.9418 -0.3361 0.3361 0.9418 -2.1587 4.5275)" style="fill:#333333;" width="14.866" height="1"/>
<path style="fill:#333333;" d="M5.168,14.971l-0.336-0.941l0.942-0.336l0.336,0.941L5.168,14.971z M8.935,13.625l-0.336-0.941
	l0.941-0.336l0.336,0.941L8.935,13.625z M12.702,12.28l-0.336-0.942l0.941-0.336l0.336,0.941L12.702,12.28z M16.469,10.935
	l-0.336-0.941l0.941-0.336l0.336,0.941L16.469,10.935z"/>
<rect x="4.567" y="15" transform="matrix(0.9418 -0.3361 0.3361 0.9418 -4.5113 4.9347)" style="fill:#333333;" width="14.866" height="1"/>
<rect x="6.75" y="5.364" transform="matrix(0.9363 -0.3511 0.3511 0.9363 -2.1718 3.0232)" style="fill:#333333;" width="1" height="4.272"/>
<rect x="17.25" y="13.864" transform="matrix(0.9363 -0.3511 0.3511 0.9363 -4.4878 7.2512)" style="fill:#333333;" width="0.999" height="4.272"/>
</svg>






