<?xml version="1.0" encoding="iso-8859-1"?>
<svg version="1.1" id="&#x56FE;&#x5C42;_1" xmlns="http://www.w3.org/2000/svg" xmlns:xlink="http://www.w3.org/1999/xlink" x="0px"
	 y="0px" viewBox="0 0 24 24" style="enable-background:new 0 0 24 24;" xml:space="preserve">
<rect x="5" y="3" style="fill:#333333;" width="1" height="18"/>
<path style="fill:#333333;" d="M19.5,17l-3.697-0.04l-3.405-1.46H5V4l7.697,0.041L16.103,5.5H19.5C20.327,5.5,21,6.173,21,7v8.5
	C21,16.327,20.327,17,19.5,17z M16.103,16H19.5c0.275,0,0.5-0.225,0.5-0.5V7c0-0.276-0.225-0.5-0.5-0.5l-3.697-0.041L12.397,5H6v9.5
	l6.697,0.04L16.103,16z"/>
<rect x="3.5" y="20.5" style="fill:#333333;" width="4" height="1"/>
</svg>






