<?xml version="1.0" encoding="iso-8859-1"?>
<svg version="1.1" id="&#x56FE;&#x5C42;_1" xmlns="http://www.w3.org/2000/svg" xmlns:xlink="http://www.w3.org/1999/xlink" x="0px"
	 y="0px" viewBox="0 0 24 24" style="enable-background:new 0 0 24 24;" xml:space="preserve">
<path style="fill:#333333;" d="M22.5,10.5h-21v-5c0-1.103,0.897-2,2-2h17c1.103,0,2,0.897,2,2V10.5z M2.5,9.5h19v-4
	c0-0.551-0.448-1-1-1h-17c-0.551,0-1,0.449-1,1V9.5z"/>
<polygon style="fill:#333333;" points="2.412,19.866 1.701,19.163 8.135,12.663 11.449,15.837 15.474,12.319 18.044,14.825 
	17.347,15.542 15.437,13.681 11.418,17.192 8.153,14.065 "/>
<path style="fill:#333333;" d="M20.5,20.5H6v-1h14.5c0.552,0,1-0.448,1-1V9h1v9.5C22.5,19.603,21.603,20.5,20.5,20.5z"/>
<rect x="9.556" y="6.5" style="fill:#333333;" width="9" height="1"/>
<rect x="5.555" y="6.5" style="fill:#333333;" width="1" height="1"/>
<rect x="1.5" y="9" style="fill:#333333;" width="1" height="4.5"/>
</svg>






