<?xml version="1.0" encoding="iso-8859-1"?>
<svg version="1.1" id="&#x56FE;&#x5C42;_1" xmlns="http://www.w3.org/2000/svg" xmlns:xlink="http://www.w3.org/1999/xlink" x="0px"
	 y="0px" viewBox="0 0 24 24" style="enable-background:new 0 0 24 24;" xml:space="preserve">
<path style="fill:#333333;" d="M12,22.5c-1.267,0-2.496-0.271-3.654-0.805c-1.157-0.533-2.194-1.304-3.081-2.29l0.743-0.668
	c0.796,0.884,1.723,1.573,2.756,2.05c2.053,0.945,4.419,0.945,6.472,0c1.032-0.476,1.96-1.166,2.756-2.051l0.744,0.67
	c-0.888,0.985-1.925,1.756-3.082,2.289C14.496,22.229,13.267,22.5,12,22.5z M3.215,16.002C2.74,14.732,2.5,13.387,2.5,12
	s0.24-2.733,0.715-4.002l0.937,0.35C3.719,9.504,3.5,10.733,3.5,12s0.219,2.495,0.651,3.652L3.215,16.002z M20.786,16.002
	l-0.938-0.35C20.281,14.493,20.5,13.265,20.5,12c0-1.265-0.219-2.494-0.651-3.653l0.938-0.35C21.26,9.269,21.5,10.615,21.5,12
	S21.26,14.73,20.786,16.002z M17.992,5.263c-0.796-0.884-1.724-1.574-2.756-2.05C14.21,2.74,13.121,2.5,12,2.5
	c-2.261,0-4.389,0.981-5.992,2.763L5.265,4.594C7.06,2.599,9.452,1.5,12,1.5c1.267,0,2.496,0.271,3.654,0.805
	c1.157,0.533,2.194,1.304,3.082,2.29L17.992,5.263z"/>
<path style="fill:#333333;" d="M9,12c-1.103,0-2-0.897-2-2s0.897-2,2-2s2,0.897,2,2S10.103,12,9,12z M9,9c-0.551,0-1,0.449-1,1
	s0.449,1,1,1s1-0.449,1-1S9.551,9,9,9z"/>
<path style="fill:#333333;" d="M15,12c-1.103,0-2-0.897-2-2s0.897-2,2-2s2,0.897,2,2S16.103,12,15,12z M15,9c-0.552,0-1,0.449-1,1
	s0.448,1,1,1s1-0.449,1-1S15.552,9,15,9z"/>
<path style="fill:#333333;" d="M12,18c-1.682,0-3-0.879-3-2s1.318-2,3-2c1.683,0,3,0.879,3,2S13.683,18,12,18z M12,15
	c-1.145,0-2,0.528-2,1s0.855,1,2,1s2-0.528,2-1S13.145,15,12,15z"/>
</svg>






