<?xml version="1.0" encoding="iso-8859-1"?>
<svg version="1.1" id="&#x56FE;&#x5C42;_1" xmlns="http://www.w3.org/2000/svg" xmlns:xlink="http://www.w3.org/1999/xlink" x="0px"
	 y="0px" viewBox="0 0 24 24" style="enable-background:new 0 0 24 24;" xml:space="preserve">
<path style="fill:#333333;" d="M12,22.5C6.21,22.5,1.5,17.79,1.5,12C1.5,6.21,6.21,1.5,12,1.5c5.79,0,10.5,4.71,10.5,10.5
	C22.5,17.79,17.79,22.5,12,22.5z M12,2.5c-5.238,0-9.5,4.262-9.5,9.5s4.262,9.5,9.5,9.5s9.5-4.262,9.5-9.5S17.238,2.5,12,2.5z"/>
<path style="fill:#333333;" d="M15.325,21.839C11.243,20.313,8.5,16.36,8.5,12c0-4.36,2.743-8.313,6.825-9.838l0.35,0.937
	C11.981,4.478,9.5,8.056,9.5,12c0,3.945,2.481,7.522,6.175,8.901L15.325,21.839z"/>
<rect x="7.995" y="7.25" transform="matrix(0.8254 -0.5646 0.5646 0.8254 -1.9744 9.1163)" style="fill:#333333;" width="11.511" height="1"/>
<rect x="8.343" y="10.25" transform="matrix(0.8261 -0.5635 0.5635 0.8261 -3.4493 10.3208)" style="fill:#333333;" width="13.314" height="1"/>
<rect x="9.798" y="13.25" transform="matrix(0.8141 -0.5808 0.5808 0.8141 -4.9642 11.9942)" style="fill:#333333;" width="12.903" height="1"/>
<rect x="12.048" y="16.5" transform="matrix(0.817 -0.5766 0.5766 0.817 -6.6459 13.0571)" style="fill:#333333;" width="10.404" height="0.999"/>
</svg>






