<?xml version="1.0" encoding="iso-8859-1"?>
<svg version="1.1" id="&#x56FE;&#x5C42;_1" xmlns="http://www.w3.org/2000/svg" xmlns:xlink="http://www.w3.org/1999/xlink" x="0px"
	 y="0px" viewBox="0 0 24 24" style="enable-background:new 0 0 24 24;" xml:space="preserve">
<path style="fill:#333333;" d="M15.5,20.5h-7c-3.86,0-7-3.141-7-7V12c0-3.033,2.467-5.5,5.5-5.5h10c3.032,0,5.5,2.467,5.5,5.5v1.5
	C22.5,17.359,19.359,20.5,15.5,20.5z M7,7.5c-2.481,0-4.5,2.019-4.5,4.5v1.5c0,3.309,2.691,6,6,6h7c3.309,0,6-2.691,6-6V12
	c0-2.481-2.019-4.5-4.5-4.5H7z"/>
<rect x="9" y="13" style="fill:#333333;" width="6" height="1"/>
<rect x="11.5" y="10.5" style="fill:#333333;" width="1" height="6"/>
<path style="fill:#333333;" d="M2.5,12.521h-1V6.007c0-1.425,1.159-2.584,2.584-2.584c0.667,0,1.301,0.254,1.785,0.715
	c0.85,0.812,1.467,1.715,1.834,2.685L6.768,7.177C6.454,6.348,5.919,5.569,5.178,4.862C4.882,4.579,4.493,4.423,4.084,4.423
	C3.21,4.423,2.5,5.134,2.5,6.007V12.521z"/>
<path style="fill:#333333;" d="M22.5,12.521h-1V6.383c0-0.959-0.78-1.739-1.739-1.739c-0.537,0-1.035,0.242-1.367,0.665
	c-0.518,0.659-1.014,1.32-1.486,1.982l-0.814-0.582c0.482-0.674,0.986-1.346,1.514-2.018c0.523-0.666,1.309-1.047,2.154-1.047
	c1.511,0,2.739,1.229,2.739,2.739V12.521z"/>
</svg>






