<?xml version="1.0" encoding="iso-8859-1"?>
<svg version="1.1" id="&#x56FE;&#x5C42;_1" xmlns="http://www.w3.org/2000/svg" xmlns:xlink="http://www.w3.org/1999/xlink" x="0px"
	 y="0px" viewBox="0 0 24 24" style="enable-background:new 0 0 24 24;" xml:space="preserve">
<path style="fill:#333333;" d="M20,22H4c-1.103,0-2-0.897-2-2V4c0-1.103,0.897-2,2-2h16c1.103,0,2,0.897,2,2v16
	C22,21.103,21.103,22,20,22z M4,3C3.449,3,3,3.449,3,4v16c0,0.552,0.449,1,1,1h16c0.552,0,1-0.448,1-1V4c0-0.551-0.448-1-1-1H4z"/>
<path style="fill:#333333;" d="M15.5,12h-1V7.826C14.5,7.458,14.051,6.5,12,6.5S9.5,7.458,9.5,7.826V12h-1V7.826
	C8.5,7.021,9.231,5.5,12,5.5s3.5,1.521,3.5,2.326V12z"/>
<polygon style="fill:#333333;" points="16.5,15.5 7.5,15.5 7.5,12 8.5,12 8.5,14.5 15.5,14.5 15.5,12 16.5,12 "/>
<polygon style="fill:#333333;" points="18.5,12.5 5.5,12.5 5.5,10 6.5,10 6.5,11.5 17.5,11.5 17.5,10 18.5,10 "/>
<rect x="9" y="17.5" style="fill:#333333;" width="6" height="1"/>
<rect x="11.5" y="15" style="fill:#333333;" width="1" height="3"/>
</svg>






