<?xml version="1.0" encoding="iso-8859-1"?>
<svg version="1.1" id="&#x56FE;&#x5C42;_1" xmlns="http://www.w3.org/2000/svg" xmlns:xlink="http://www.w3.org/1999/xlink" x="0px"
	 y="0px" viewBox="0 0 24 24" style="enable-background:new 0 0 24 24;" xml:space="preserve">
<path style="fill:#333333;" d="M22.5,12h-16V8.5C6.5,7.673,7.173,7,8,7h13c0.827,0,1.5,0.673,1.5,1.5V12z M7.5,11h14V8.5
	C21.5,8.224,21.275,8,21,8H8C7.724,8,7.5,8.224,7.5,8.5V11z"/>
<rect x="5.39" y="14.5" transform="matrix(0.6508 -0.7593 0.7593 0.6508 -7.8968 12.8307)" style="fill:#333333;" width="9.22" height="1"/>
<rect x="18.5" y="10.39" transform="matrix(0.7593 -0.6508 0.6508 0.7593 -5.1877 15.9762)" style="fill:#333333;" width="1" height="9.22"/>
<rect x="3" y="11" style="fill:#333333;" width="4" height="1"/>
<rect x="9.5" y="15" style="fill:#333333;" width="10" height="1"/>
<rect x="2.5" y="6.5" style="fill:#333333;" width="1" height="5"/>
<rect x="6.5" y="11.5" style="fill:#333333;" width="1" height="8.5"/>
<rect x="21.5" y="11.5" style="fill:#333333;" width="1" height="8.5"/>
<rect x="2.5" y="4.919" transform="matrix(0.3162 -0.9487 0.9487 0.3162 -4.1151 7.2906)" style="fill:#333333;" width="1" height="3.162"/>
</svg>






