<?xml version="1.0" encoding="iso-8859-1"?>
<svg version="1.1" id="&#x56FE;&#x5C42;_1" xmlns="http://www.w3.org/2000/svg" xmlns:xlink="http://www.w3.org/1999/xlink" x="0px"
	 y="0px" viewBox="0 0 24 24" style="enable-background:new 0 0 24 24;" xml:space="preserve">
<polygon style="fill:#333333;" points="22,22.5 1.5,22.5 1.5,2 2.5,2 2.5,21.5 22,21.5 "/>
<path style="fill:#333333;" d="M21.506,19.077C20.785,14.467,17.941,2.5,13.5,2.5c-4.441,0-7.285,11.967-8.006,16.577l-0.988-0.154
	C4.617,18.211,7.3,1.5,13.5,1.5s8.883,16.711,8.994,17.423L21.506,19.077z"/>
<path style="fill:#333333;" d="M22,2.5h-1v-1h1V2.5z M18,2.5h-1v-1h1V2.5z M14,2.5h-1v-1h1V2.5z M10,2.5H9v-1h1V2.5z M6,2.5H5v-1h1
	V2.5z"/>
</svg>






