<?xml version="1.0" encoding="iso-8859-1"?>
<svg version="1.1" id="&#x56FE;&#x5C42;_1" xmlns="http://www.w3.org/2000/svg" xmlns:xlink="http://www.w3.org/1999/xlink" x="0px"
	 y="0px" viewBox="0 0 24 24" style="enable-background:new 0 0 24 24;" xml:space="preserve">
<path style="fill:#333333;" d="M22.5,21.5h-21v-5h21V21.5z M2.5,20.5h19v-3h-19V20.5z"/>
<path style="fill:#333333;" d="M21,17.5H3V13h18V17.5z M4,16.5h16V14H4V16.5z"/>
<path style="fill:#333333;" d="M19.5,14h-15v-4h15V14z M5.5,13h13v-2h-13V13z"/>
<path style="fill:#333333;" d="M18,11H6V7h12V11z M7,10h10V8H7V10z"/>
<path style="fill:#333333;" d="M14.5,8h-5V3h5V8z M10.5,7h3V4h-3V7z"/>
<rect x="1.585" y="13.75" transform="matrix(0.2167 -0.9762 0.9762 0.2167 -7.2535 19.4597)" style="fill:#333333;" width="13.829" height="1"/>
<rect x="15" y="7.335" transform="matrix(0.9762 -0.2169 0.2169 0.9762 -2.7222 3.7018)" style="fill:#333333;" width="1" height="13.829"/>
</svg>






