<?xml version="1.0" encoding="iso-8859-1"?>
<svg version="1.1" id="&#x56FE;&#x5C42;_1" xmlns="http://www.w3.org/2000/svg" xmlns:xlink="http://www.w3.org/1999/xlink" x="0px"
	 y="0px" viewBox="0 0 24 24" style="enable-background:new 0 0 24 24;" xml:space="preserve">
<path style="fill:#333333;" d="M12,22.5C6.21,22.5,1.5,17.79,1.5,12C1.5,6.21,6.21,1.5,12,1.5c5.79,0,10.5,4.71,10.5,10.5
	C22.5,17.79,17.79,22.5,12,22.5z M12,2.5c-5.238,0-9.5,4.262-9.5,9.5s4.262,9.5,9.5,9.5s9.5-4.262,9.5-9.5S17.238,2.5,12,2.5z"/>
<path style="fill:#333333;" d="M12,12c-1.654,0-3-1.346-3-3s1.346-3,3-3s3,1.346,3,3S13.654,12,12,12z M12,7c-1.103,0-2,0.897-2,2
	s0.897,2,2,2c1.103,0,2-0.897,2-2S13.103,7,12,7z"/>
<path style="fill:#333333;" d="M5.51,19.199l-0.998-0.066C4.702,16.255,7.112,14,10,14h4c2.882,0,5.292,2.25,5.487,5.121
	l-0.998,0.068C18.33,16.84,16.357,15,14,15h-4C7.637,15,5.665,16.845,5.51,19.199z"/>
</svg>






