<?xml version="1.0" encoding="iso-8859-1"?>
<svg version="1.1" id="&#x56FE;&#x5C42;_1" xmlns="http://www.w3.org/2000/svg" xmlns:xlink="http://www.w3.org/1999/xlink" x="0px"
	 y="0px" viewBox="0 0 24 24" style="enable-background:new 0 0 24 24;" xml:space="preserve">
<polygon style="fill:#333333;" points="21.468,10.5 18,10.5 18,9.5 20.597,9.5 21.426,3.5 18,3.5 18,2.5 22.574,2.5 "/>
<path style="fill:#333333;" d="M17,21.5H5.5C4.672,21.5,4,20.827,4,20V8.25c0-0.314-0.148-0.621-0.405-0.841
	c-1.79-1.536-2.523-2.785-2.179-3.714C1.713,2.891,2.722,2.5,4.5,2.5h14V20C18.5,20.827,17.827,21.5,17,21.5z M4.5,3.5
	c-1.435,0-2.049,0.28-2.146,0.542C2.215,4.414,2.747,5.364,4.245,6.649C4.725,7.06,5,7.644,5,8.25V20c0,0.275,0.224,0.5,0.5,0.5H17
	c0.275,0,0.5-0.225,0.5-0.5V3.5H4.5z"/>
<rect x="13" y="7" style="fill:#333333;" width="2" height="1"/>
<rect x="13" y="11" style="fill:#333333;" width="2" height="1"/>
<rect x="13" y="15" style="fill:#333333;" width="2" height="1"/>
</svg>






