<?xml version="1.0" encoding="iso-8859-1"?>
<svg version="1.1" id="&#x56FE;&#x5C42;_1" xmlns="http://www.w3.org/2000/svg" xmlns:xlink="http://www.w3.org/1999/xlink" x="0px"
	 y="0px" viewBox="0 0 24 24" style="enable-background:new 0 0 24 24;" xml:space="preserve">
<rect x="5" y="2.095" transform="matrix(0.7682 -0.6402 0.6402 0.7682 -2.5663 4.9117)" style="fill:#333333;" width="1.001" height="7.81"/>
<rect x="14.595" y="5.5" transform="matrix(0.6408 -0.7677 0.7677 0.6408 2.0395 16.3586)" style="fill:#333333;" width="7.81" height="1"/>
<rect x="11" y="4.5" transform="matrix(0.3845 -0.9231 0.9231 0.3845 4.1555 16.2323)" style="fill:#333333;" width="6.5" height="1.001"/>
<rect x="9.25" y="1.75" transform="matrix(0.9231 -0.3846 0.3846 0.9231 -1.1731 4.1346)" style="fill:#333333;" width="1" height="6.5"/>
<path style="fill:#333333;" d="M12,22.5c-4.136,0-7.5-3.364-7.5-7.5S7.864,7.5,12,7.5s7.5,3.364,7.5,7.5S16.136,22.5,12,22.5z
	 M12,8.5c-3.584,0-6.5,2.916-6.5,6.5s2.916,6.5,6.5,6.5s6.5-2.916,6.5-6.5S15.584,8.5,12,8.5z"/>
<path style="fill:#333333;" d="M12,19c-2.206,0-4-1.794-4-4s1.794-4,4-4c2.206,0,4,1.794,4,4S14.206,19,12,19z M12,12
	c-1.654,0-3,1.346-3,3s1.346,3,3,3s3-1.346,3-3S13.654,12,12,12z"/>
</svg>






