<?xml version="1.0" encoding="iso-8859-1"?>
<svg version="1.1" id="&#x56FE;&#x5C42;_1" xmlns="http://www.w3.org/2000/svg" xmlns:xlink="http://www.w3.org/1999/xlink" x="0px"
	 y="0px" viewBox="0 0 24 24" style="enable-background:new 0 0 24 24;" xml:space="preserve">
<path style="fill:#333333;" d="M17,22.5H7c-0.827,0-1.5-0.673-1.5-1.5V6c0-0.827,0.673-1.5,1.5-1.5h10c0.827,0,1.5,0.673,1.5,1.5v15
	C18.5,21.827,17.827,22.5,17,22.5z M7,5.5C6.724,5.5,6.5,5.724,6.5,6v15c0,0.275,0.224,0.5,0.5,0.5h10c0.275,0,0.5-0.225,0.5-0.5V6
	c0-0.276-0.225-0.5-0.5-0.5H7z"/>
<rect x="6" y="8.5" style="fill:#333333;" width="12" height="1"/>
<rect x="5.5" y="7.5" style="fill:#333333;" width="1" height="3"/>
<rect x="17.5" y="7.5" style="fill:#333333;" width="1" height="3"/>
<path style="fill:#333333;" d="M16.5,5.5h-9v-4h9V5.5z M8.5,4.5h7v-2h-7V4.5z"/>
<rect x="10" y="15" style="fill:#333333;" width="4" height="1"/>
<rect x="11.5" y="13.5" style="fill:#333333;" width="1" height="4"/>
</svg>






