<?xml version="1.0" encoding="iso-8859-1"?>
<svg version="1.1" id="&#x56FE;&#x5C42;_1" xmlns="http://www.w3.org/2000/svg" xmlns:xlink="http://www.w3.org/1999/xlink" x="0px"
	 y="0px" viewBox="0 0 24 24" style="enable-background:new 0 0 24 24;" xml:space="preserve">
<path style="fill:#333333;" d="M16,19H3.5c-1.103,0-2-0.897-2-2v-1.749l20.284-9.702l0.432,0.902L2.5,15.882V17c0,0.552,0.449,1,1,1
	H16c0.552,0,1-0.448,1-1v-0.934h1V17C18,18.103,17.103,19,16,19z"/>
<path style="fill:#333333;" d="M21.784,18.451L1.5,8.749V7c0-1.103,0.897-2,2-2H16c1.103,0,2,0.897,2,2v0.934h-1V7
	c0-0.551-0.448-1-1-1H3.5c-0.551,0-1,0.449-1,1v1.119l19.716,9.43L21.784,18.451z"/>
</svg>






