<?xml version="1.0" encoding="iso-8859-1"?>
<svg version="1.1" id="&#x56FE;&#x5C42;_1" xmlns="http://www.w3.org/2000/svg" xmlns:xlink="http://www.w3.org/1999/xlink" x="0px"
	 y="0px" viewBox="0 0 24 24" style="enable-background:new 0 0 24 24;" xml:space="preserve">
<path style="fill:#333333;" d="M14.5,8h-8C5.122,8,4,6.878,4,5.5v-1C4,3.122,5.122,2,6.5,2h8C15.879,2,17,3.122,17,4.5v1
	C17,6.878,15.879,8,14.5,8z M6.5,3C5.673,3,5,3.673,5,4.5v1C5,6.327,5.673,7,6.5,7h8C15.327,7,16,6.327,16,5.5v-1
	C16,3.673,15.327,3,14.5,3H6.5z"/>
<rect x="10" y="2.5" style="fill:#333333;" width="1" height="4"/>
<rect x="7" y="2.5" style="fill:#333333;" width="1" height="4"/>
<rect x="13" y="2.5" style="fill:#333333;" width="1" height="4"/>
<path style="fill:#333333;" d="M13.5,20.5H4c-0.827,0-1.5-0.673-1.5-1.5V8.5C2.5,7.673,3.173,7,4,7h13c0.827,0,1.5,0.673,1.5,1.5V13
	h-1V8.5C17.5,8.224,17.275,8,17,8H4C3.724,8,3.5,8.224,3.5,8.5V19c0,0.275,0.224,0.5,0.5,0.5h9.5V20.5z"/>
<polygon style="fill:#333333;" points="19,18.5 16.5,18.5 16.5,16 17.5,16 17.5,17.5 19,17.5 "/>
<path style="fill:#333333;" d="M17.5,22.5c-2.757,0-5-2.243-5-5s2.243-5,5-5s5,2.243,5,5S20.257,22.5,17.5,22.5z M17.5,13.5
	c-2.206,0-4,1.794-4,4s1.794,4,4,4s4-1.794,4-4S19.706,13.5,17.5,13.5z"/>
<rect x="6.5" y="2" style="fill:#333333;" width="8" height="1"/>
<rect x="6.5" y="7" style="fill:#333333;" width="8" height="1"/>
</svg>






