<?xml version="1.0" encoding="iso-8859-1"?>
<svg version="1.1" id="&#x56FE;&#x5C42;_1" xmlns="http://www.w3.org/2000/svg" xmlns:xlink="http://www.w3.org/1999/xlink" x="0px"
	 y="0px" viewBox="0 0 24 24" style="enable-background:new 0 0 24 24;" xml:space="preserve">
<path style="fill:#333333;" d="M20,21.5H4c-1.103,0-2-0.897-2-2v-10c0-1.103,0.897-2,2-2h16c1.103,0,2,0.897,2,2v10
	C22,20.603,21.103,21.5,20,21.5z M4,8.5c-0.551,0-1,0.449-1,1v10c0,0.552,0.449,1,1,1h16c0.552,0,1-0.448,1-1v-10
	c0-0.551-0.448-1-1-1H4z"/>
<path style="fill:#333333;" d="M9.5,4h5V2h-5V4z M15,4.5V8h2V4.5H15z M9,8V4.5H7V8H9z M14.5,4C14.776,4,15,4.224,15,4.5h2
	C17,3.119,15.881,2,14.5,2V4z M9.5,2C8.119,2,7,3.119,7,4.5h2C9,4.224,9.224,4,9.5,4V2z"/>
<rect x="9" y="14" style="fill:#333333;" width="6" height="1"/>
<rect x="11.5" y="11.5" style="fill:#333333;" width="1" height="6"/>
</svg>






