<?xml version="1.0" encoding="iso-8859-1"?>
<svg version="1.1" id="&#x56FE;&#x5C42;_1" xmlns="http://www.w3.org/2000/svg" xmlns:xlink="http://www.w3.org/1999/xlink" x="0px"
	 y="0px" viewBox="0 0 24 24" style="enable-background:new 0 0 24 24;" xml:space="preserve">
<path style="fill:#333333;" d="M19,22.5H5c-0.827,0-1.5-0.673-1.5-1.5V3c0-0.827,0.673-1.5,1.5-1.5h10.094
	c0.394,0,0.766,0.151,1.047,0.426l3.905,3.804C20.335,6.011,20.5,6.403,20.5,6.805V21C20.5,21.827,19.827,22.5,19,22.5z M5,2.5
	C4.724,2.5,4.5,2.724,4.5,3v18c0,0.275,0.224,0.5,0.5,0.5h14c0.275,0,0.5-0.225,0.5-0.5V6.805c0-0.134-0.056-0.264-0.151-0.358
	l-3.906-3.804C15.349,2.55,15.225,2.5,15.094,2.5H5z"/>
<rect x="4" y="10" style="fill:#333333;" width="16" height="1"/>
<rect x="15" y="14" style="fill:#333333;" width="5" height="1"/>
<rect x="15" y="17.5" style="fill:#333333;" width="5" height="1"/>
<rect x="14.5" y="10.5" style="fill:#333333;" width="1" height="11.5"/>
<rect x="8.5" y="10.5" style="fill:#333333;" width="1" height="11.5"/>
<rect x="4" y="16" style="fill:#333333;" width="5" height="1"/>
</svg>






