<?xml version="1.0" encoding="iso-8859-1"?>
<svg version="1.1" id="&#x56FE;&#x5C42;_1" xmlns="http://www.w3.org/2000/svg" xmlns:xlink="http://www.w3.org/1999/xlink" x="0px"
	 y="0px" viewBox="0 0 24 24" style="enable-background:new 0 0 24 24;" xml:space="preserve">
<path style="fill:#333333;" d="M19.5,21.5h-15c-1.103,0-2-0.897-2-2v-15c0-1.103,0.897-2,2-2h10.668
	c0.534,0,1.036,0.208,1.414,0.586l4.332,4.332C21.292,7.796,21.5,8.298,21.5,8.832V19.5C21.5,20.603,20.603,21.5,19.5,21.5z
	 M4.5,3.5c-0.551,0-1,0.449-1,1v15c0,0.552,0.449,1,1,1h15c0.552,0,1-0.448,1-1V8.832c0-0.267-0.104-0.519-0.293-0.708l-4.332-4.331
	C15.686,3.604,15.435,3.5,15.168,3.5H4.5z"/>
<path style="fill:#333333;" d="M17.5,21.5h-11v-7c0-1.103,0.897-2,2-2h7c1.103,0,2,0.897,2,2V21.5z M7.5,20.5h9v-6
	c0-0.552-0.448-1-1-1h-7c-0.551,0-1,0.448-1,1V20.5z"/>
<path style="fill:#333333;" d="M14.5,8.5h-6c-1.103,0-2-0.897-2-2V3h1v3.5c0,0.551,0.449,1,1,1h6V8.5z"/>
</svg>






