<?xml version="1.0" encoding="iso-8859-1"?>
<svg version="1.1" id="&#x56FE;&#x5C42;_1" xmlns="http://www.w3.org/2000/svg" xmlns:xlink="http://www.w3.org/1999/xlink" x="0px"
	 y="0px" viewBox="0 0 24 24" style="enable-background:new 0 0 24 24;" xml:space="preserve">
<path style="fill:#333333;" d="M20,20.5H4c-0.827,0-1.5-0.673-1.5-1.5V9.553c0-0.297,0.087-0.585,0.252-0.832l3.035-4.553
	C6.066,3.75,6.533,3.5,7.035,3.5H20c0.827,0,1.5,0.673,1.5,1.5v14C21.5,19.827,20.827,20.5,20,20.5z M7.035,4.5
	c-0.167,0-0.323,0.083-0.416,0.223L3.584,9.275C3.529,9.358,3.5,9.454,3.5,9.553V19c0,0.275,0.224,0.5,0.5,0.5h16
	c0.275,0,0.5-0.225,0.5-0.5V5c0-0.276-0.225-0.5-0.5-0.5H7.035z"/>
<rect x="8.5" y="4" style="fill:#333333;" width="1" height="4"/>
<rect x="11.5" y="4" style="fill:#333333;" width="1" height="4"/>
<rect x="14.5" y="4" style="fill:#333333;" width="1" height="4"/>
<rect x="17.5" y="4" style="fill:#333333;" width="1" height="4"/>
<path style="fill:#333333;" d="M17,20.5H7v-7h10V20.5z M8,19.5h8v-5H8V19.5z"/>
</svg>






