<?xml version="1.0" encoding="iso-8859-1"?>
<svg version="1.1" id="&#x56FE;&#x5C42;_1" xmlns="http://www.w3.org/2000/svg" xmlns:xlink="http://www.w3.org/1999/xlink" x="0px"
	 y="0px" viewBox="0 0 24 24" style="enable-background:new 0 0 24 24;" xml:space="preserve">
<path style="fill:#333333;" d="M9.778,19.864c-0.401,0-0.778-0.156-1.061-0.439l-6.364-6.364c-0.585-0.585-0.585-1.536,0-2.121
	L8.01,5.283c0.585-0.585,1.537-0.584,2.122,0l6.364,6.364c0.584,0.585,0.584,1.536,0,2.121l-5.657,5.657
	C10.556,19.708,10.179,19.864,9.778,19.864z M9.071,5.844c-0.128,0-0.256,0.048-0.354,0.146l-5.657,5.657
	c-0.195,0.195-0.195,0.512,0,0.707l6.364,6.364c0.188,0.189,0.517,0.189,0.707,0l5.657-5.657c0.194-0.194,0.194-0.513,0-0.707
	L9.425,5.99C9.327,5.892,9.199,5.844,9.071,5.844z"/>
<path style="fill:#333333;" d="M15.071,19.156c-0.384,0-0.769-0.146-1.061-0.438l-5.657-5.657c-0.585-0.585-0.585-1.536,0-2.121
	l5.657-5.657c0.584-0.585,1.537-0.585,2.121,0l5.656,5.657c0.585,0.585,0.585,1.536,0,2.121l-5.656,5.657
	C15.84,19.01,15.455,19.156,15.071,19.156z M9.061,11.646c-0.195,0.195-0.195,0.512,0,0.707l5.657,5.657
	c0.195,0.195,0.512,0.195,0.707,0l5.656-5.657c0.195-0.195,0.195-0.512,0-0.707L15.425,5.99c-0.195-0.194-0.512-0.195-0.707,0
	L9.061,11.646z"/>
</svg>






