<?xml version="1.0" encoding="iso-8859-1"?>
<svg version="1.1" id="&#x56FE;&#x5C42;_1" xmlns="http://www.w3.org/2000/svg" xmlns:xlink="http://www.w3.org/1999/xlink" x="0px"
	 y="0px" viewBox="0 0 24 24" style="enable-background:new 0 0 24 24;" xml:space="preserve">
<polygon style="fill:#333333;" points="5,21.809 5,19 1.5,19 1.5,3 22.5,3 22.5,9 21.5,9 21.5,4 2.5,4 2.5,18 6,18 6,20.191 
	10.382,18 12.75,18 12.75,19 10.618,19 "/>
<rect x="6" y="7" style="fill:#333333;" width="3" height="1"/>
<rect x="6" y="10" style="fill:#333333;" width="6" height="1"/>
<rect x="18.5" y="11.257" transform="matrix(0.7071 -0.7071 0.7071 0.7071 -5.3952 17.9749)" style="fill:#333333;" width="1" height="8.485"/>
<rect x="14.757" y="15" transform="matrix(0.7071 -0.7071 0.7071 0.7071 -5.3952 17.9749)" style="fill:#333333;" width="8.485" height="1"/>
</svg>






