<?xml version="1.0" encoding="iso-8859-1"?>
<svg version="1.1" id="&#x56FE;&#x5C42;_1" xmlns="http://www.w3.org/2000/svg" xmlns:xlink="http://www.w3.org/1999/xlink" x="0px"
	 y="0px" viewBox="0 0 24 24" style="enable-background:new 0 0 24 24;" xml:space="preserve">
<polygon style="fill:#333333;" points="5,21.809 5,19 1.5,19 1.5,3 22.5,3 22.5,9 21.5,9 21.5,4 2.5,4 2.5,18 6,18 6,20.191 
	10.382,18 12.75,18 12.75,19 10.618,19 "/>
<path style="fill:#333333;" d="M18,19.586l-0.261-0.159C17.587,19.334,14,17.096,14,12.6c0-0.315,0-0.903,3.854-2.078L18,10.478
	l0.146,0.044C22,11.696,22,12.284,22,12.6c0,4.496-3.587,6.734-3.739,6.827L18,19.586z M15.001,12.733
	c0.06,3.177,2.235,5.084,2.999,5.657c0.764-0.573,2.939-2.48,2.999-5.657c-0.354-0.28-1.756-0.823-2.999-1.21
	C16.757,11.911,15.355,12.453,15.001,12.733z"/>
<rect x="6" y="7" style="fill:#333333;" width="3" height="1"/>
<rect x="6" y="10" style="fill:#333333;" width="6" height="1"/>
</svg>






