<?xml version="1.0" encoding="iso-8859-1"?>
<svg version="1.1" id="&#x56FE;&#x5C42;_1" xmlns="http://www.w3.org/2000/svg" xmlns:xlink="http://www.w3.org/1999/xlink" x="0px"
	 y="0px" viewBox="0 0 24 24" style="enable-background:new 0 0 24 24;" xml:space="preserve">
<path style="fill:#333333;" d="M5,21.809V19H1.5V3h21v16H10.618L5,21.809z M2.5,18H6v2.191L10.382,18H21.5V4h-19V18z"/>
<rect x="15" y="8" style="fill:#333333;" width="1" height="0.5"/>
<rect x="8" y="8" style="fill:#333333;" width="1" height="0.5"/>
<path style="fill:#333333;" d="M12,15c-2.777,0-3.901-2.184-3.947-2.276l0.895-0.447C8.982,12.345,9.855,14,12,14
	c2.145,0,3.018-1.655,3.054-1.726l0.894,0.449C15.9,12.816,14.777,15,12,15z"/>
</svg>






