<?xml version="1.0" encoding="iso-8859-1"?>
<svg version="1.1" id="&#x56FE;&#x5C42;_1" xmlns="http://www.w3.org/2000/svg" xmlns:xlink="http://www.w3.org/1999/xlink" x="0px"
	 y="0px" viewBox="0 0 24 24" style="enable-background:new 0 0 24 24;" xml:space="preserve">
<polygon style="fill:#333333;" points="5,21.809 5,19 1.5,19 1.5,3 22.5,3 22.5,9 21.5,9 21.5,4 2.5,4 2.5,18 6,18 6,20.191 
	10.382,18 12.75,18 12.75,19 10.618,19 "/>
<path style="fill:#333333;" d="M17,17.5c-1.93,0-3.5-1.57-3.5-3.5s1.57-3.5,3.5-3.5s3.5,1.57,3.5,3.5S18.93,17.5,17,17.5z M17,11.5
	c-1.379,0-2.5,1.121-2.5,2.5s1.121,2.5,2.5,2.5s2.5-1.121,2.5-2.5S18.379,11.5,17,11.5z"/>
<rect x="20.25" y="15.399" transform="matrix(0.6247 -0.7809 0.7809 0.6247 -5.4872 22.5832)" style="fill:#333333;" width="1" height="3.202"/>
<rect x="6" y="7" style="fill:#333333;" width="3" height="1"/>
<rect x="6" y="10" style="fill:#333333;" width="6" height="1"/>
</svg>






