<?xml version="1.0" encoding="iso-8859-1"?>
<svg version="1.1" id="&#x56FE;&#x5C42;_1" xmlns="http://www.w3.org/2000/svg" xmlns:xlink="http://www.w3.org/1999/xlink" x="0px"
	 y="0px" viewBox="0 0 24 24" style="enable-background:new 0 0 24 24;" xml:space="preserve">
<path style="fill:#333333;" d="M19.5,21.5h-15c-1.103,0-2-0.897-2-2v-15c0-1.103,0.897-2,2-2h15c1.103,0,2,0.897,2,2v15
	C21.5,20.603,20.603,21.5,19.5,21.5z M4.5,3.5c-0.551,0-1,0.449-1,1v15c0,0.552,0.449,1,1,1h15c0.552,0,1-0.448,1-1v-15
	c0-0.551-0.448-1-1-1H4.5z"/>
<path style="fill:#333333;" d="M7.686,17.464L7.046,16.79l0.566-1.223c0.18-0.389,0.09-0.897-0.239-1.362
	C6.802,13.398,6.5,12.463,6.5,11.5c0-2.757,2.467-5,5.5-5c3.032,0,5.5,2.243,5.5,5c0,2.083-1.443,3.968-3.591,4.69
	C13.297,16.396,12.654,16.5,12,16.5C10.122,16.5,7.709,17.455,7.686,17.464z M12,7.5c-2.481,0-4.5,1.794-4.5,4
	c0,0.755,0.238,1.49,0.689,2.127c0.539,0.761,0.663,1.643,0.331,2.36l-0.071,0.154C9.392,15.849,10.772,15.5,12,15.5
	c0.546,0,1.082-0.087,1.591-0.257c1.74-0.586,2.909-2.09,2.909-3.743C16.5,9.294,14.481,7.5,12,7.5z"/>
</svg>






