<?xml version="1.0" encoding="iso-8859-1"?>
<svg version="1.1" id="&#x56FE;&#x5C42;_1" xmlns="http://www.w3.org/2000/svg" xmlns:xlink="http://www.w3.org/1999/xlink" x="0px"
	 y="0px" viewBox="0 0 24 24" style="enable-background:new 0 0 24 24;" xml:space="preserve">
<polygon style="fill:#333333;" points="5,21.809 5,19 1.5,19 1.5,3 22.5,3 22.5,9 21.5,9 21.5,4 2.5,4 2.5,18 6,18 6,20.191 
	10.382,18 12.75,18 12.75,19 10.618,19 "/>
<path style="fill:#333333;" d="M22.5,18h-8v-5h8V18z M15.5,17h6v-3h-6V17z"/>
<path style="fill:#333333;" d="M20.5,13.5h-1V12c0-0.551-0.448-1-1-1s-1,0.449-1,1v1.5h-1V12c0-1.103,0.897-2,2-2s2,0.897,2,2V13.5z
	"/>
<rect x="6" y="7" style="fill:#333333;" width="3" height="1"/>
<rect x="6" y="10" style="fill:#333333;" width="6" height="1"/>
</svg>






