<?xml version="1.0" encoding="iso-8859-1"?>
<svg version="1.1" id="&#x56FE;&#x5C42;_1" xmlns="http://www.w3.org/2000/svg" xmlns:xlink="http://www.w3.org/1999/xlink" x="0px"
	 y="0px" viewBox="0 0 24 24" style="enable-background:new 0 0 24 24;" xml:space="preserve">
<path style="fill:#333333;" d="M13.284,22.411l-0.568-0.822c2.035-1.409,3.133-2.82,3.261-4.196c0.127-1.357-0.26-2.333-1.182-2.984
	l0.576-0.816c1.224,0.862,1.762,2.173,1.602,3.895C16.815,19.169,15.574,20.826,13.284,22.411z"/>
<path style="fill:#333333;" d="M13.828,14.611c-1.517,0-2.75-1.233-2.75-2.75s1.234-2.75,2.75-2.75s2.75,1.233,2.75,2.75
	S15.345,14.611,13.828,14.611z M13.828,10.111c-0.965,0-1.751,0.785-1.751,1.75s0.786,1.75,1.751,1.75s1.75-0.785,1.75-1.75
	S14.793,10.111,13.828,10.111z"/>
<polygon style="fill:#333333;" points="9.391,16.998 4.086,11.692 13.985,1.793 19.289,7.096 15.842,10.543 15.135,9.836 
	17.875,7.096 13.985,3.207 5.5,11.692 9.387,15.58 11.789,13.148 12.5,13.852 "/>
<rect x="4.744" y="13.24" transform="matrix(0.6988 -0.7154 0.7154 0.6988 -9.8569 8.5678)" style="fill:#333333;" width="1" height="5.495"/>
<rect x="3" y="21.5" style="fill:#333333;" width="18" height="1"/>
</svg>






