<?xml version="1.0" encoding="iso-8859-1"?>
<svg version="1.1" id="&#x56FE;&#x5C42;_1" xmlns="http://www.w3.org/2000/svg" xmlns:xlink="http://www.w3.org/1999/xlink" x="0px"
	 y="0px" viewBox="0 0 24 24" style="enable-background:new 0 0 24 24;" xml:space="preserve">
<path style="fill:#333333;" d="M20.5,17.5h-17C2.673,17.5,2,16.827,2,16V6c0-0.827,0.673-1.5,1.5-1.5h17C21.327,4.5,22,5.173,22,6
	v10C22,16.827,21.327,17.5,20.5,17.5z M3.5,5.5C3.224,5.5,3,5.724,3,6v10c0,0.275,0.224,0.5,0.5,0.5h17c0.275,0,0.5-0.225,0.5-0.5V6
	c0-0.276-0.225-0.5-0.5-0.5H3.5z"/>
<rect x="10" y="9" style="fill:#333333;" width="2" height="1"/>
<rect x="6.5" y="12" style="fill:#333333;" width="11" height="1"/>
<rect x="5.5" y="17" style="fill:#333333;" width="1" height="2"/>
<rect x="9.5" y="17" style="fill:#333333;" width="1" height="2"/>
<rect x="13.5" y="17" style="fill:#333333;" width="1" height="2"/>
<rect x="17.5" y="17" style="fill:#333333;" width="1" height="2"/>
<path style="fill:#333333;" d="M7.5,9.5c0,0.552-0.448,1-1,1s-1-0.448-1-1s0.448-1,1-1S7.5,8.948,7.5,9.5z"/>
</svg>






