<?xml version="1.0" encoding="iso-8859-1"?>
<svg version="1.1" id="&#x56FE;&#x5C42;_1" xmlns="http://www.w3.org/2000/svg" xmlns:xlink="http://www.w3.org/1999/xlink" x="0px"
	 y="0px" viewBox="0 0 24 24" style="enable-background:new 0 0 24 24;" xml:space="preserve">
<path style="fill:none;" d="M22,13c0,1.32-0.365,2.554-1,3.608c-0.59,0.979-1.413,1.802-2.392,2.392c-1.054,0.635-2.288,1-3.608,1
	s-2.554-0.365-3.608-1C9.36,17.775,8,15.546,8,13s1.36-4.775,3.392-6C12.446,6.365,13.68,6,15,6s2.554,0.365,3.608,1
	C19.587,7.59,20.41,8.413,21,9.392C21.635,10.446,22,11.68,22,13z"/>
<path style="fill:none;" d="M2,7v12h9.392C9.36,17.775,8,15.546,8,13s1.36-4.775,3.392-6H2z"/>
<path style="fill:#333333;" d="M15,20.5c-1.317,0-2.608-0.346-3.744-1H1.5v-13h9.756c2.271-1.31,5.216-1.31,7.488,0H21.5v2.756
	c0.654,1.134,1,2.425,1,3.744c0,1.317-0.346,2.608-1,3.744V19.5h-2.756C17.608,20.154,16.317,20.5,15,20.5z M11.65,18.571
	c2.016,1.215,4.684,1.215,6.699,0l0.243,0.404l-0.243-0.404c0.907-0.546,1.676-1.314,2.222-2.222l0.404,0.243l-0.404-0.243
	C21.179,15.342,21.5,14.183,21.5,13c0-1.184-0.321-2.342-0.929-3.349l0.419-0.252L20.571,9.65c-0.546-0.907-1.314-1.675-2.222-2.222
	c-2.016-1.215-4.682-1.215-6.699,0l0,0C9.678,8.617,8.5,10.7,8.5,13C8.5,15.301,9.678,17.384,11.65,18.571L11.393,19L11.65,18.571z
	 M20.099,18.5H20.5v-0.401C20.371,18.237,20.237,18.371,20.099,18.5z M2.5,18.5h7.396C8.375,17.098,7.5,15.13,7.5,13
	c0-2.129,0.875-4.097,2.396-5.5H2.5V18.5z M20.098,7.5c0.14,0.129,0.273,0.263,0.402,0.402V7.5H20.098z"/>
<path style="fill:#333333;" d="M9,7.5H3.5V4H9V7.5z M4.5,6.5H8V5H4.5V6.5z"/>
<rect x="4.5" y="11" style="fill:#333333;" width="1" height="4"/>
<path style="fill:#333333;" d="M15,16.5v-1c1.379,0,2.5-1.121,2.5-2.5h1C18.5,14.93,16.93,16.5,15,16.5z M12.5,13h-1
	c0-1.93,1.57-3.5,3.5-3.5v1C13.621,10.5,12.5,11.622,12.5,13z"/>
</svg>






