<?xml version="1.0" encoding="iso-8859-1"?>
<svg version="1.1" id="&#x56FE;&#x5C42;_1" xmlns="http://www.w3.org/2000/svg" xmlns:xlink="http://www.w3.org/1999/xlink" x="0px"
	 y="0px" viewBox="0 0 24 24" style="enable-background:new 0 0 24 24;" xml:space="preserve">
<path style="fill:#333333;" d="M18.5,22H5c-0.827,0-1.5-0.673-1.5-1.5v-2.74l2.5-2V14.5H3.5v-2.181l2.5-3V3.5C6,2.673,6.673,2,7.5,2
	h11C19.327,2,20,2.673,20,3.5v17C20,21.327,19.327,22,18.5,22z M4.5,18.24v2.26C4.5,20.775,4.724,21,5,21h13.5
	c0.275,0,0.5-0.225,0.5-0.5v-17C19,3.224,18.775,3,18.5,3h-11C7.224,3,7,3.224,7,3.5v6.181l-2.5,3V13.5H7v2.74L4.5,18.24z"/>
<rect x="15.5" y="5.5" style="fill:#333333;" width="1" height="2"/>
<rect x="9.5" y="5.5" style="fill:#333333;" width="1" height="2"/>
<rect x="12.5" y="5.5" style="fill:#333333;" width="1" height="2"/>
</svg>






