<?xml version="1.0" encoding="iso-8859-1"?>
<svg version="1.1" id="&#x56FE;&#x5C42;_1" xmlns="http://www.w3.org/2000/svg" xmlns:xlink="http://www.w3.org/1999/xlink" x="0px"
	 y="0px" viewBox="0 0 24 24" style="enable-background:new 0 0 24 24;" xml:space="preserve">
<path style="fill:#333333;" d="M14.934,17.928c-0.554,0-1.112-0.155-1.611-0.473l-6.091-3.876l0.229-0.92
	c0.021-0.002,2.14-0.188,3.575-1.624s1.622-3.554,1.624-3.575l0.92-0.229l3.876,6.091c0.759,1.193,0.59,2.725-0.409,3.724
	C16.465,17.627,15.703,17.928,14.934,17.928z M8.817,13.402l5.042,3.209c0.796,0.505,1.815,0.393,2.479-0.272
	c0.665-0.665,0.777-1.686,0.272-2.479l-3.209-5.042c-0.247,0.858-0.729,1.996-1.66,2.926C10.813,12.673,9.675,13.155,8.817,13.402z"
	/>
<path style="fill:#333333;" d="M7.5,13.5c-3.309,0-6-2.691-6-6s2.691-6,6-6s6,2.691,6,6S10.809,13.5,7.5,13.5z M7.5,2.5
	c-2.757,0-5,2.243-5,5s2.243,5,5,5s5-2.243,5-5S10.257,2.5,7.5,2.5z"/>
<rect x="0.778" y="7.279" transform="matrix(0.7071 -0.7071 0.7071 0.7071 -3.2221 7.7782)" style="fill:#333333;" width="14" height="1"/>
<polygon style="fill:#333333;" points="21,21 16.5,21 16.5,20 19.793,20 16.646,16.854 17.354,16.146 21.354,20.146 "/>
</svg>






