<?xml version="1.0" encoding="iso-8859-1"?>
<svg version="1.1" id="&#x56FE;&#x5C42;_1" xmlns="http://www.w3.org/2000/svg" xmlns:xlink="http://www.w3.org/1999/xlink" x="0px"
	 y="0px" viewBox="0 0 24 24" style="enable-background:new 0 0 24 24;" xml:space="preserve">
<path style="fill:#333333;" d="M8.425,15.557C8.424,15.557,8.424,15.557,8.425,15.557c-0.268,0-0.519-0.104-0.708-0.293
	l-3.485-3.485c-0.223-0.223-0.223-0.585,0-0.808l6.844-6.844c1.268-1.266,3.328-1.268,4.597,0c1.267,1.267,1.267,3.329,0,4.596
	L14.854,9.54l-0.707-0.707l0.818-0.818c0.877-0.877,0.877-2.305,0-3.182c-0.878-0.878-2.307-0.876-3.183,0l-6.541,6.541l3.182,3.183
	l2.408-2.409l0.707,0.707l-2.408,2.409C8.943,15.452,8.692,15.557,8.425,15.557z"/>
<path style="fill:#333333;" d="M16.557,6.425l-3.183-3.182l1.237-1.237c0.878-0.879,2.307-0.877,3.183,0
	c0.425,0.425,0.659,0.99,0.659,1.591s-0.234,1.166-0.659,1.591L16.557,6.425z M14.788,3.243l1.769,1.768l0.53-0.531
	c0.236-0.236,0.366-0.55,0.366-0.884s-0.13-0.647-0.366-0.884c-0.487-0.486-1.279-0.488-1.769,0L14.788,3.243z"/>
<path style="fill:#333333;" d="M5.596,17.385l-3.182-3.182l2.828-2.828l3.182,3.182L5.596,17.385z M3.829,14.203l1.768,1.768
	l1.415-1.414l-1.768-1.768L3.829,14.203z"/>
<path style="fill:#333333;" d="M13.021,13.77c-0.704,0-1.408-0.268-1.944-0.804c-1.072-1.072-1.072-2.817,0-3.89
	c1.04-1.04,2.853-1.038,3.889,0c1.072,1.072,1.072,2.817,0,3.89C14.429,13.502,13.725,13.77,13.021,13.77z M13.021,9.271
	c-0.467,0-0.906,0.182-1.237,0.512c-0.682,0.683-0.682,1.793,0,2.476c0.682,0.682,1.793,0.682,2.475,0
	c0.683-0.683,0.683-1.793,0-2.476l0,0C13.928,9.453,13.488,9.271,13.021,9.271z"/>
<rect x="5.682" y="8.682" transform="matrix(0.7071 -0.7071 0.7071 0.7071 -7.5104 8.2317)" style="fill:#333333;" width="1" height="9"/>
<rect x="5" y="21.5" style="fill:#333333;" width="16" height="1"/>
<path style="fill:#333333;" d="M15.804,22.397l-0.607-0.795l0.3-0.227C16.892,20.325,19,18.738,19,16c0-2.779-1.816-4.5-3.5-4.5v-1
	c2.164,0,4.5,2.103,4.5,5.5c0,3.237-2.442,5.076-3.902,6.175L15.804,22.397z"/>
</svg>






