<?xml version="1.0" encoding="iso-8859-1"?>
<svg version="1.1" id="&#x56FE;&#x5C42;_1" xmlns="http://www.w3.org/2000/svg" xmlns:xlink="http://www.w3.org/1999/xlink" x="0px"
	 y="0px" viewBox="0 0 24 24" style="enable-background:new 0 0 24 24;" xml:space="preserve">
<path style="fill:#333333;" d="M12,16.5c-2.481,0-4.5-2.019-4.5-4.5V6c0-2.481,2.019-4.5,4.5-4.5s4.5,2.019,4.5,4.5v6
	C16.5,14.481,14.481,16.5,12,16.5z M12,2.5c-1.93,0-3.5,1.57-3.5,3.5v6c0,1.93,1.57,3.5,3.5,3.5s3.5-1.57,3.5-3.5V6
	C15.5,4.07,13.93,2.5,12,2.5z"/>
<path style="fill:#333333;" d="M12,19.5c-4.136,0-7.5-3.364-7.5-7.5v-1.5h1V12c0,3.584,2.916,6.5,6.5,6.5s6.5-2.916,6.5-6.5v-1.5h1
	V12C19.5,16.136,16.136,19.5,12,19.5z"/>
<rect x="11.5" y="2.5" style="fill:#333333;" width="1" height="3"/>
<rect x="8" y="7.5" style="fill:#333333;" width="2.5" height="1"/>
<rect x="13.5" y="7.5" style="fill:#333333;" width="2.5" height="1"/>
<rect x="8" y="10.5" style="fill:#333333;" width="2.5" height="1"/>
<rect x="13.5" y="10.5" style="fill:#333333;" width="2.5" height="1"/>
<rect x="11.5" y="19" style="fill:#333333;" width="1" height="3"/>
<rect x="8" y="21.5" style="fill:#333333;" width="8" height="1"/>
</svg>






