<?xml version="1.0" encoding="iso-8859-1"?>
<svg version="1.1" id="&#x56FE;&#x5C42;_1" xmlns="http://www.w3.org/2000/svg" xmlns:xlink="http://www.w3.org/1999/xlink" x="0px"
	 y="0px" viewBox="0 0 24 24" style="enable-background:new 0 0 24 24;" xml:space="preserve">
<path style="fill:#333333;" d="M15.84,22.5H9.895c-2.574,0-5.4-3.141-5.4-6c0-1.954,1.004-3.166,2.903-3.505l0.176,0.984
	c-1.418,0.253-2.079,1.054-2.079,2.521c0,2.29,2.385,5,4.4,5h5.945c2.031,0,3.155-1.756,3.155-2.97v-6.525c0-0.551-0.448-1-1-1
	c-0.553,0-1,0.446-1,0.995h-1c0-1.1,0.896-1.995,1.996-1.995c1.106,0,2.004,0.897,2.004,2v6.525
	C19.995,20.447,18.325,22.5,15.84,22.5z"/>
<path style="fill:#333333;" d="M7.986,15.021h-1v-4.514c0-1.104,0.898-2.001,2.001-2.001c1.105,0,2.004,0.9,2.004,2.004v2.002h-1
	V10.51c0-0.554-0.45-1.004-1.003-1.004c-0.553,0-1.002,0.449-1.002,1.001V15.021z"/>
<path style="fill:#333333;" d="M14.007,12.004h-1V3.508C13.007,2.952,12.555,2.5,12,2.5c-0.556,0-1.008,0.452-1.008,1.008v8.496h-1
	V3.508C9.992,2.401,10.893,1.5,12,1.5s2.007,0.901,2.007,2.008V12.004z"/>
<path style="fill:#333333;" d="M16.995,12.002h-1v-1.5c0-0.551-0.448-1-1-1s-1,0.449-1,1v1.356h-1v-1.356c0-1.103,0.897-2,2-2
	s2,0.897,2,2V12.002z"/>
</svg>






