<?xml version="1.0" encoding="iso-8859-1"?>
<svg version="1.1" id="&#x56FE;&#x5C42;_1" xmlns="http://www.w3.org/2000/svg" xmlns:xlink="http://www.w3.org/1999/xlink" x="0px"
	 y="0px" viewBox="0 0 24 24" style="enable-background:new 0 0 24 24;" xml:space="preserve">
<path style="fill:#333333;" d="M16.5,22.5h-14v-12h14V22.5z M3.5,21.5h12v-10h-12V21.5z"/>
<polygon style="fill:#333333;" points="12.5,19 11.5,19 11.5,15.381 9.5,17.781 7.5,15.381 7.5,19 6.5,19 6.5,14 7.384,13.68 
	9.5,16.219 11.616,13.68 12.5,14 "/>
<rect x="17.5" y="3.595" transform="matrix(0.6402 -0.7682 0.7682 0.6402 0.715 16.5266)" style="fill:#333333;" width="1.001" height="7.81"/>
<path style="fill:#333333;" d="M9.5,6.61V2.59l6-1.2v4.02L9.5,6.61z M10.5,3.41v1.98l4-0.8V2.61L10.5,3.41z"/>
<path style="fill:#333333;" d="M15.5,22.672V10.59l6-1.2v11.482L15.5,22.672z M16.5,11.41v9.918l4-1.2V10.61L16.5,11.41z"/>
<path style="fill:#333333;" d="M16,11.5H3l-0.298-0.901l7.05-5.229l6.561,5.24L16,11.5z M4.513,10.5h10.06L9.729,6.631L4.513,10.5z"
	/>
</svg>






