<?xml version="1.0" encoding="iso-8859-1"?>
<svg version="1.1" id="&#x56FE;&#x5C42;_1" xmlns="http://www.w3.org/2000/svg" xmlns:xlink="http://www.w3.org/1999/xlink" x="0px"
	 y="0px" viewBox="0 0 24 24" style="enable-background:new 0 0 24 24;" xml:space="preserve">
<path style="fill:#333333;" d="M17,22.5H7c-0.827,0-1.5-0.673-1.5-1.5V9.787c0-0.281,0.079-0.556,0.228-0.794L8.223,5h7.555
	l2.494,3.992C18.421,9.229,18.5,9.505,18.5,9.787V21C18.5,21.827,17.827,22.5,17,22.5z M8.777,6L6.576,9.522
	C6.526,9.601,6.5,9.693,6.5,9.787V21c0,0.275,0.224,0.5,0.5,0.5h10c0.275,0,0.5-0.225,0.5-0.5V9.787
	c0-0.094-0.026-0.185-0.076-0.264L15.223,6H8.777z"/>
<polygon style="fill:#333333;" points="15,16.5 14,16.5 14,13.381 12,15.781 10,13.381 10,16.5 9,16.5 9,12 9.884,11.68 12,14.219 
	14.116,11.68 15,12 "/>
<path style="fill:#333333;" d="M16,6H8V1.5h8V6z M9,5h6V2.5H9V5z"/>
</svg>






