<?xml version="1.0" encoding="iso-8859-1"?>
<svg version="1.1" id="&#x56FE;&#x5C42;_1" xmlns="http://www.w3.org/2000/svg" xmlns:xlink="http://www.w3.org/1999/xlink" x="0px"
	 y="0px" viewBox="0 0 24 24" style="enable-background:new 0 0 24 24;" xml:space="preserve">
<polygon style="fill:#333333;" points="22,22.5 1.5,22.5 1.5,2 2.5,2 2.5,21.5 22,21.5 "/>
<path style="fill:#333333;" d="M13.5,19.5c-6.2,0-8.883-16.711-8.994-17.423l0.988-0.154C6.215,6.534,9.059,18.5,13.5,18.5
	c4.441,0,7.285-11.966,8.006-16.577l0.988,0.154C22.383,2.789,19.7,19.5,13.5,19.5z"/>
<path style="fill:#333333;" d="M22,19.5h-1v-1h1V19.5z M18,19.5h-1v-1h1V19.5z M14,19.5h-1v-1h1V19.5z M10,19.5H9v-1h1V19.5z
	 M6,19.5H5v-1h1V19.5z"/>
</svg>






