<?xml version="1.0" encoding="iso-8859-1"?>
<svg version="1.1" id="&#x56FE;&#x5C42;_1" xmlns="http://www.w3.org/2000/svg" xmlns:xlink="http://www.w3.org/1999/xlink" x="0px"
	 y="0px" viewBox="0 0 24 24" style="enable-background:new 0 0 24 24;" xml:space="preserve">
<path style="fill:#333333;" d="M4,14.5c-1.378,0-2.5-1.121-2.5-2.5c0-1.378,1.122-2.5,2.5-2.5s2.5,1.122,2.5,2.5
	C6.5,13.379,5.378,14.5,4,14.5z M4,10.5c-0.827,0-1.5,0.673-1.5,1.5s0.673,1.5,1.5,1.5s1.5-0.673,1.5-1.5S4.827,10.5,4,10.5z"/>
<path style="fill:#333333;" d="M21,4.5c-0.827,0-1.5-0.673-1.5-1.5s0.673-1.5,1.5-1.5s1.5,0.673,1.5,1.5S21.827,4.5,21,4.5z M21,2.5
	c-0.275,0-0.5,0.224-0.5,0.5s0.225,0.5,0.5,0.5s0.5-0.224,0.5-0.5S21.275,2.5,21,2.5z"/>
<path style="fill:#333333;" d="M21,13.5c-0.827,0-1.5-0.673-1.5-1.5s0.673-1.5,1.5-1.5s1.5,0.673,1.5,1.5S21.827,13.5,21,13.5z
	 M21,11.5c-0.275,0-0.5,0.224-0.5,0.5c0,0.275,0.225,0.5,0.5,0.5s0.5-0.225,0.5-0.5C21.5,11.724,21.275,11.5,21,11.5z"/>
<path style="fill:#333333;" d="M21,22.5c-0.827,0-1.5-0.673-1.5-1.5s0.673-1.5,1.5-1.5s1.5,0.673,1.5,1.5S21.827,22.5,21,22.5z
	 M21,20.5c-0.275,0-0.5,0.225-0.5,0.5s0.225,0.5,0.5,0.5s0.5-0.225,0.5-0.5S21.275,20.5,21,20.5z"/>
<polygon style="fill:#333333;" points="16,21.5 9.5,21.5 9.5,2.5 16,2.5 16,3.5 10.5,3.5 10.5,20.5 16,20.5 "/>
<rect x="6" y="11.5" style="fill:#333333;" width="10" height="1"/>
</svg>






