<?xml version="1.0" encoding="iso-8859-1"?>
<svg version="1.1" id="&#x56FE;&#x5C42;_1" xmlns="http://www.w3.org/2000/svg" xmlns:xlink="http://www.w3.org/1999/xlink" x="0px"
	 y="0px" viewBox="0 0 24 24" style="enable-background:new 0 0 24 24;" xml:space="preserve">
<path style="fill:#333333;" d="M13.5,22h-10C2.673,22,2,21.327,2,20.5v-10C2,9.673,2.673,9,3.5,9h5C9.327,9,10,9.673,10,10.5v3
	c0,0.275,0.224,0.5,0.5,0.5h3c0.827,0,1.5,0.673,1.5,1.5v5C15,21.327,14.327,22,13.5,22z M3.5,10C3.224,10,3,10.224,3,10.5v10
	C3,20.775,3.224,21,3.5,21h10c0.275,0,0.5-0.225,0.5-0.5v-5c0-0.275-0.225-0.5-0.5-0.5h-3C9.673,15,9,14.327,9,13.5v-3
	C9,10.224,8.776,10,8.5,10H3.5z"/>
<path style="fill:#333333;" d="M20.5,15h-10C9.673,15,9,14.327,9,13.5v-10C9,2.673,9.673,2,10.5,2h10C21.327,2,22,2.673,22,3.5v10
	C22,14.327,21.327,15,20.5,15z M10.5,3C10.224,3,10,3.224,10,3.5v10c0,0.275,0.224,0.5,0.5,0.5h10c0.275,0,0.5-0.225,0.5-0.5v-10
	C21,3.224,20.775,3,20.5,3H10.5z"/>
</svg>






