<?xml version="1.0" encoding="iso-8859-1"?>
<svg version="1.1" id="&#x56FE;&#x5C42;_1" xmlns="http://www.w3.org/2000/svg" xmlns:xlink="http://www.w3.org/1999/xlink" x="0px"
	 y="0px" viewBox="0 0 24 24" style="enable-background:new 0 0 24 24;" xml:space="preserve">
<path style="fill:#333333;" d="M12,15.5c-3.86,0-7-3.141-7-7c0-3.86,3.14-7,7-7c3.859,0,7,3.14,7,7C19,12.359,15.859,15.5,12,15.5z
	 M12,2.5c-3.309,0-6,2.691-6,6s2.691,6,6,6s6-2.691,6-6S15.309,2.5,12,2.5z"/>
<path style="fill:#333333;" d="M12,18c-5.238,0-9.5-4.262-9.5-9.5h1c0,4.687,3.813,8.5,8.5,8.5c4.687,0,8.5-3.813,8.5-8.5h1
	C21.5,13.738,17.238,18,12,18z"/>
<rect x="19" y="8" style="fill:#333333;" width="2" height="1"/>
<rect x="3" y="8" style="fill:#333333;" width="2" height="1"/>
<rect x="9" y="21.5" style="fill:#333333;" width="6" height="1"/>
<rect x="11.5" y="18" style="fill:#333333;" width="1" height="4"/>
</svg>






