<?xml version="1.0" encoding="iso-8859-1"?>
<svg version="1.1" id="&#x56FE;&#x5C42;_1" xmlns="http://www.w3.org/2000/svg" xmlns:xlink="http://www.w3.org/1999/xlink" x="0px"
	 y="0px" viewBox="0 0 24 24" style="enable-background:new 0 0 24 24;" xml:space="preserve">
<path style="fill:#333333;" d="M17,22.5H7c-2.078,0-4-0.303-4-2.5v-3.5h6.391l0.5,2h4.719l0.5-2H21V20
	C21,22.197,19.077,22.5,17,22.5z M4,17.5V20c0,0.85,0.221,1.5,3,1.5h10c2.779,0,3-0.65,3-1.5v-2.5h-4.109l-0.5,2H9.109l-0.5-2H4z"/>
<path style="fill:#333333;" d="M18.418,17.274l-0.836-0.549l0.304-0.458C18.877,14.785,20,13.104,20,10.927
	C20,6.123,16.561,2.5,12,2.5s-8,3.623-8,8.427c0,2.177,1.123,3.858,2.114,5.34l0.304,0.458l-0.836,0.549l-0.3-0.451
	C4.266,15.302,3,13.407,3,10.927C3,5.553,6.869,1.5,12,1.5s9,4.053,9,9.427c0,2.48-1.266,4.375-2.282,5.896L18.418,17.274z"/>
</svg>






