<?xml version="1.0" encoding="iso-8859-1"?>
<svg version="1.1" id="&#x56FE;&#x5C42;_1" xmlns="http://www.w3.org/2000/svg" xmlns:xlink="http://www.w3.org/1999/xlink" x="0px"
	 y="0px" viewBox="0 0 24 24" style="enable-background:new 0 0 24 24;" xml:space="preserve">
<path style="fill:#333333;" d="M10,15.5c-3.584,0-6.5-2.916-6.5-6.5S6.416,2.5,10,2.5v1C6.967,3.5,4.5,5.967,4.5,9
	c0,3.032,2.467,5.5,5.5,5.5V15.5z"/>
<path style="fill:#333333;" d="M10,11.5c-1.378,0-2.5-1.122-2.5-2.5S8.622,6.5,10,6.5v1C9.173,7.5,8.5,8.173,8.5,9
	s0.673,1.5,1.5,1.5V11.5z"/>
<path style="fill:#333333;" d="M14,17.5v-1c0.827,0,1.5-0.673,1.5-1.5s-0.673-1.5-1.5-1.5v-1c1.379,0,2.5,1.121,2.5,2.5
	S15.379,17.5,14,17.5z"/>
<path style="fill:#333333;" d="M14,21.5v-1c3.032,0,5.5-2.468,5.5-5.5c0-3.033-2.468-5.5-5.5-5.5v-1c3.584,0,6.5,2.916,6.5,6.5
	S17.584,21.5,14,21.5z"/>
</svg>






