<?xml version="1.0" encoding="iso-8859-1"?>
<svg version="1.1" id="&#x56FE;&#x5C42;_1" xmlns="http://www.w3.org/2000/svg" xmlns:xlink="http://www.w3.org/1999/xlink" x="0px"
	 y="0px" viewBox="0 0 24 24" style="enable-background:new 0 0 24 24;" xml:space="preserve">
<path style="fill:#333333;" d="M12,15.932L7.907,9.5L12,3.069L16.093,9.5L12,15.932z M9.093,9.5L12,14.068L14.907,9.5L12,4.931
	L9.093,9.5z"/>
<path style="fill:#333333;" d="M22,20.5h-6.935l-3.481-5.223L12,14.5h6.935l3.481,5.223L22,20.5z M15.601,19.5h5.465l-2.666-4
	h-5.465L15.601,19.5z"/>
<path style="fill:#333333;" d="M8.934,20.5H2l-0.416-0.777L5.066,14.5H12l0.416,0.777L8.934,20.5z M2.934,19.5h5.465l2.667-4H5.601
	L2.934,19.5z"/>
</svg>






