<?xml version="1.0" encoding="iso-8859-1"?>
<svg version="1.1" id="&#x56FE;&#x5C42;_1" xmlns="http://www.w3.org/2000/svg" xmlns:xlink="http://www.w3.org/1999/xlink" x="0px"
	 y="0px" viewBox="0 0 24 24" style="enable-background:new 0 0 24 24;" xml:space="preserve">
<path style="fill:#333333;" d="M5.439,9.389L3.318,7.268c-0.283-0.283-0.439-0.66-0.439-1.061c0-0.4,0.156-0.777,0.439-1.061
	l2.829-2.829c0.585-0.584,1.537-0.584,2.121,0l2.121,2.122L9.682,5.146L7.561,3.025c-0.195-0.194-0.513-0.195-0.707,0L4.025,5.854
	c-0.094,0.095-0.146,0.22-0.146,0.354c0,0.134,0.052,0.259,0.146,0.353l2.122,2.122L5.439,9.389z"/>
<path style="fill:#333333;" d="M17.293,21.62c-0.384,0-0.769-0.146-1.061-0.438l-2.122-2.121l0.707-0.707l2.122,2.121
	c0.195,0.195,0.512,0.195,0.707,0l2.828-2.828c0.195-0.195,0.195-0.512,0-0.707l-2.121-2.121l0.707-0.707l2.121,2.121
	c0.585,0.585,0.585,1.536,0,2.121l-2.828,2.828C18.062,21.474,17.677,21.62,17.293,21.62z"/>
<path style="fill:#333333;" d="M6.697,21.631c-0.384,0-0.769-0.146-1.061-0.438l-2.828-2.828c-0.284-0.283-0.44-0.661-0.439-1.062
	c0-0.401,0.156-0.777,0.44-1.06L16.242,2.808c0.585-0.585,1.535-0.586,2.122,0l2.828,2.829c0.585,0.585,0.585,1.536,0,2.121
	L7.757,21.192C7.465,21.485,7.081,21.631,6.697,21.631z M17.303,3.368c-0.128,0-0.256,0.049-0.354,0.146L3.515,16.95
	c-0.095,0.095-0.146,0.22-0.146,0.353c0,0.134,0.052,0.26,0.146,0.354l2.828,2.828c0.196,0.195,0.513,0.195,0.708,0L20.485,7.05
	c0.195-0.195,0.195-0.512,0-0.707l-2.828-2.829C17.56,3.417,17.432,3.368,17.303,3.368z"/>
<circle style="fill:#333333;" cx="12" cy="12" r="1"/>
<circle style="fill:#333333;" cx="10" cy="14" r="1"/>
<circle style="fill:#333333;" cx="14" cy="10" r="1"/>
</svg>






