<?xml version="1.0" encoding="iso-8859-1"?>
<svg version="1.1" id="&#x56FE;&#x5C42;_1" xmlns="http://www.w3.org/2000/svg" xmlns:xlink="http://www.w3.org/1999/xlink" x="0px"
	 y="0px" viewBox="0 0 24 24" style="enable-background:new 0 0 24 24;" xml:space="preserve">
<path style="fill:#333333;" d="M21,20H3c-0.827,0-1.5-0.673-1.5-1.5v-13C1.5,4.673,2.173,4,3,4h18c0.827,0,1.5,0.673,1.5,1.5v13
	C22.5,19.327,21.827,20,21,20z M3,5C2.724,5,2.5,5.224,2.5,5.5v13C2.5,18.775,2.724,19,3,19h18c0.275,0,0.5-0.225,0.5-0.5v-13
	C21.5,5.224,21.275,5,21,5H3z"/>
<rect x="7.5" y="4.5" style="fill:#333333;" width="1" height="15"/>
<rect x="6" y="4" style="fill:#333333;" width="4" height="1"/>
<rect x="6" y="19" style="fill:#333333;" width="4" height="1"/>
<rect x="10.05" y="11.5" transform="matrix(0.7071 -0.7071 0.7071 0.7071 -4.0919 14.1213)" style="fill:#333333;" width="9.899" height="1"/>
<rect x="11.5" y="8.293" transform="matrix(0.7071 -0.7071 0.7071 0.7071 -2.8492 11.1213)" style="fill:#333333;" width="1" height="1.414"/>
<rect x="17.5" y="14.293" transform="matrix(0.7071 -0.7071 0.7071 0.7071 -5.3345 17.1213)" style="fill:#333333;" width="1" height="1.414"/>
</svg>






