<?xml version="1.0" encoding="iso-8859-1"?>
<svg version="1.1" id="&#x56FE;&#x5C42;_1" xmlns="http://www.w3.org/2000/svg" xmlns:xlink="http://www.w3.org/1999/xlink" x="0px"
	 y="0px" viewBox="0 0 24 24" style="enable-background:new 0 0 24 24;" xml:space="preserve">
<path style="fill:#333333;" d="M20.5,17.5h-17C2.673,17.5,2,16.827,2,16V4c0-0.827,0.673-1.5,1.5-1.5h17C21.327,2.5,22,3.173,22,4
	v12C22,16.827,21.327,17.5,20.5,17.5z M3.5,3.5C3.224,3.5,3,3.724,3,4v12c0,0.275,0.224,0.5,0.5,0.5h17c0.275,0,0.5-0.225,0.5-0.5V4
	c0-0.276-0.225-0.5-0.5-0.5H3.5z"/>
<path style="fill:#333333;" d="M20.5,17.5h-17C2.673,17.5,2,16.827,2,16v-3c0-0.827,0.673-1.5,1.5-1.5h17c0.827,0,1.5,0.673,1.5,1.5
	v3C22,16.827,21.327,17.5,20.5,17.5z M3.5,12.5C3.224,12.5,3,12.725,3,13v3c0,0.275,0.224,0.5,0.5,0.5h17c0.275,0,0.5-0.225,0.5-0.5
	v-3c0-0.275-0.225-0.5-0.5-0.5H3.5z"/>
<rect x="8.399" y="6.75" transform="matrix(0.6247 -0.7809 0.7809 0.6247 -1.9082 10.5296)" style="fill:#333333;" width="3.202" height="1"/>
<rect x="12" y="7.5" transform="matrix(0.5994 -0.8005 0.8005 0.5994 -1.0955 13.8112)" style="fill:#333333;" width="2.5" height="1"/>
<circle style="fill:#333333;" cx="12" cy="14.5" r="1"/>
<polygon style="fill:#333333;" points="17.722,21.5 6.278,21.5 8.032,16.824 8.968,17.176 7.722,20.5 16.278,20.5 15.032,17.176 
	15.968,16.824 "/>
</svg>






