<?xml version="1.0" encoding="iso-8859-1"?>
<svg version="1.1" id="&#x56FE;&#x5C42;_1" xmlns="http://www.w3.org/2000/svg" xmlns:xlink="http://www.w3.org/1999/xlink" x="0px"
	 y="0px" viewBox="0 0 24 24" style="enable-background:new 0 0 24 24;" xml:space="preserve">
<path style="fill:#333333;" d="M2.5,22h-1V7c0.269-2.975,1.585-4.261,2.644-4.824C5.786,1.301,7.78,1.602,9.026,2.285l0.178,0.098
	l0.06,0.195c0.383,1.261,0.683,2.172,1.05,2.41c0.94,0.496,1.508,1.178,1.651,2.005c0.165,0.953-0.305,1.871-0.8,2.413L10.427,8.73
	c0.32-0.35,0.657-0.97,0.554-1.567c-0.088-0.506-0.482-0.948-1.172-1.313c-0.675-0.435-1-1.343-1.439-2.778
	C7.378,2.597,5.844,2.403,4.613,3.059C3.391,3.709,2.679,5.05,2.498,7.045L2.5,22z"/>
<path style="fill:#333333;" d="M18.627,22.555c-0.055,0-0.109-0.001-0.165-0.003c-1.338-0.057-2.485-0.787-2.925-1.862
	c-1.946-5.271-5.046-6.93-7.208-7.72l0.343-0.939c3.683,1.346,6.234,4.06,7.797,8.297c0.281,0.688,1.102,1.186,2.035,1.226
	c0.576,0.015,1.947-0.104,2.801-1.78c0.195-0.382,0.214-0.892,0.052-1.362c-0.17-0.492-0.615-1.191-1.776-1.731
	c-1.185-0.551-2.071-1.851-2.062-3.022c0.008-0.929,0.551-1.679,1.528-2.113c0.665-0.219,2.225-0.454,3.394,1.72l-0.881,0.475
	c-0.411-0.765-1.122-1.603-2.154-1.262c-0.567,0.255-0.882,0.661-0.887,1.189c-0.007,0.778,0.659,1.724,1.483,2.107
	c1.479,0.687,2.067,1.636,2.3,2.312c0.253,0.733,0.214,1.515-0.106,2.144C21.447,21.694,20.122,22.555,18.627,22.555z"/>
<path style="fill:#333333;" d="M7.999,22.041l-0.997-0.082c0.148-1.816,0.86-3.192,2.117-4.09c1.717-1.228,4.038-1.228,5.504-0.854
	l-0.246,0.969c-1.359-0.345-3.331-0.263-4.677,0.698C8.694,19.401,8.122,20.531,7.999,22.041z"/>
</svg>






