<?xml version="1.0" encoding="iso-8859-1"?>
<svg version="1.1" id="&#x56FE;&#x5C42;_1" xmlns="http://www.w3.org/2000/svg" xmlns:xlink="http://www.w3.org/1999/xlink" x="0px"
	 y="0px" viewBox="0 0 24 24" style="enable-background:new 0 0 24 24;" xml:space="preserve">
<path style="fill:#333333;" d="M6.157,10.732C5.721,9.898,5.5,9.003,5.5,8.069C5.5,4.723,8.416,2,12,2s6.5,2.723,6.5,6.069
	c0,0.933-0.221,1.829-0.656,2.662l-0.887-0.463c0.36-0.689,0.543-1.429,0.543-2.199C17.5,5.274,15.032,3,12,3
	C8.967,3,6.5,5.274,6.5,8.069c0,0.771,0.183,1.51,0.543,2.199L6.157,10.732z"/>
<path style="fill:#333333;" d="M12,22c-4.411,0-8-2.916-8-6.5S7.589,9,12,9s8,2.916,8,6.5S16.411,22,12,22z M12,10
	c-3.86,0-7,2.468-7,5.5S8.14,21,12,21c3.859,0,7-2.468,7-5.5S15.859,10,12,10z"/>
<path style="fill:#333333;" d="M11.986,18.777c-1.379,0-2.773-0.536-3.839-1.603l0.707-0.707c1.7,1.699,4.415,1.75,6.052,0.116
	l0.707,0.707C14.619,18.283,13.31,18.777,11.986,18.777z"/>
<path style="fill:#333333;" d="M6,12c-1.93,0-3.5-1.346-3.5-3S4.07,6,6,6v1C4.622,7,3.5,7.897,3.5,9s1.122,2,2.5,2V12z"/>
<path style="fill:#333333;" d="M18,12v-1c1.379,0,2.5-0.897,2.5-2S19.379,7,18,7V6c1.93,0,3.5,1.346,3.5,3S19.93,12,18,12z"/>
<circle style="fill:#333333;" cx="10" cy="7" r="1"/>
<circle style="fill:#333333;" cx="14" cy="7" r="1"/>
</svg>






