<?xml version="1.0" encoding="iso-8859-1"?>
<svg version="1.1" id="&#x56FE;&#x5C42;_1" xmlns="http://www.w3.org/2000/svg" xmlns:xlink="http://www.w3.org/1999/xlink" x="0px"
	 y="0px" viewBox="0 0 24 24" style="enable-background:new 0 0 24 24;" xml:space="preserve">
<path style="fill:#333333;" d="M12,22.5C6.21,22.5,1.5,17.79,1.5,12C1.5,6.21,6.21,1.5,12,1.5c0.716,0,1.432,0.073,2.127,0.216
	l0.025,0.974c-2.579,0.672-4.379,3.005-4.379,5.674c0,3.233,2.63,5.864,5.864,5.864c2.669,0,5.002-1.801,5.675-4.38l0.973,0.025
	C22.428,10.566,22.5,11.282,22.5,12C22.5,17.79,17.79,22.5,12,22.5z M12,2.5c-5.238,0-9.5,4.262-9.5,9.5s4.262,9.5,9.5,9.5
	s9.5-4.262,9.5-9.5c0-0.021,0-0.042,0-0.062c-1.222,2.003-3.423,3.29-5.863,3.29c-3.785,0-6.864-3.079-6.864-6.864
	c0-2.441,1.288-4.643,3.291-5.864C12.043,2.5,12.021,2.5,12,2.5z"/>
</svg>






