<?xml version="1.0" encoding="iso-8859-1"?>
<svg version="1.1" id="&#x56FE;&#x5C42;_1" xmlns="http://www.w3.org/2000/svg" xmlns:xlink="http://www.w3.org/1999/xlink" x="0px"
	 y="0px" viewBox="0 0 24 24" style="enable-background:new 0 0 24 24;" xml:space="preserve">
<path style="fill:#333333;" d="M12,22.5C6.21,22.5,1.5,17.79,1.5,12C1.5,6.21,6.21,1.5,12,1.5c5.79,0,10.5,4.71,10.5,10.5
	C22.5,17.79,17.79,22.5,12,22.5z M12,2.5c-5.238,0-9.5,4.262-9.5,9.5s4.262,9.5,9.5,9.5s9.5-4.262,9.5-9.5S17.238,2.5,12,2.5z"/>
<path style="fill-rule:evenodd;clip-rule:evenodd;fill:#333333;" d="M10.75,7c0,0.69,0.56,1.25,1.25,1.25S13.25,7.69,13.25,7
	S12.69,5.75,12,5.75S10.75,6.31,10.75,7z M10.75,12c0,0.69,0.56,1.25,1.25,1.25s1.25-0.56,1.25-1.25s-0.56-1.25-1.25-1.25
	S10.75,11.31,10.75,12z M12,18.25c-0.69,0-1.25-0.56-1.25-1.25s0.56-1.25,1.25-1.25s1.25,0.56,1.25,1.25S12.69,18.25,12,18.25z"/>
</svg>






