<?xml version="1.0" encoding="iso-8859-1"?>
<svg version="1.1" id="&#x56FE;&#x5C42;_1" xmlns="http://www.w3.org/2000/svg" xmlns:xlink="http://www.w3.org/1999/xlink" x="0px"
	 y="0px" viewBox="0 0 24 24" style="enable-background:new 0 0 24 24;" xml:space="preserve">
<path style="fill:#333333;" d="M9,10.5H3c-0.827,0-1.5-0.673-1.5-1.5V3c0-0.827,0.673-1.5,1.5-1.5h6c0.827,0,1.5,0.673,1.5,1.5v6
	C10.5,9.827,9.827,10.5,9,10.5z M3,2.5C2.724,2.5,2.5,2.724,2.5,3v6c0,0.276,0.224,0.5,0.5,0.5h6c0.276,0,0.5-0.224,0.5-0.5V3
	c0-0.276-0.224-0.5-0.5-0.5H3z"/>
<path style="fill:#333333;" d="M9,22.5H3c-0.827,0-1.5-0.673-1.5-1.5v-6c0-0.827,0.673-1.5,1.5-1.5h6c0.827,0,1.5,0.673,1.5,1.5v6
	C10.5,21.827,9.827,22.5,9,22.5z M3,14.5c-0.276,0-0.5,0.225-0.5,0.5v6c0,0.275,0.224,0.5,0.5,0.5h6c0.276,0,0.5-0.225,0.5-0.5v-6
	c0-0.275-0.224-0.5-0.5-0.5H3z"/>
<path style="fill:#333333;" d="M21,10.5h-6c-0.827,0-1.5-0.673-1.5-1.5V3c0-0.827,0.673-1.5,1.5-1.5h6c0.827,0,1.5,0.673,1.5,1.5v6
	C22.5,9.827,21.827,10.5,21,10.5z M15,2.5c-0.275,0-0.5,0.224-0.5,0.5v6c0,0.276,0.225,0.5,0.5,0.5h6c0.275,0,0.5-0.224,0.5-0.5V3
	c0-0.276-0.225-0.5-0.5-0.5H15z"/>
<rect x="14" y="13.5" style="fill:#333333;" width="8" height="1"/>
<rect x="18" y="17.5" style="fill:#333333;" width="4" height="1"/>
<rect x="14" y="21.5" style="fill:#333333;" width="8" height="1"/>
</svg>






