<?xml version="1.0" encoding="iso-8859-1"?>
<svg version="1.1" id="&#x56FE;&#x5C42;_1" xmlns="http://www.w3.org/2000/svg" xmlns:xlink="http://www.w3.org/1999/xlink" x="0px"
	 y="0px" viewBox="0 0 24 24" style="enable-background:new 0 0 24 24;" xml:space="preserve">
<rect x="4.5" y="3" style="fill:#333333;" width="6" height="1"/>
<rect x="13.5" y="3" style="fill:#333333;" width="6" height="1"/>
<path style="fill:#333333;" d="M16,18.5h-1.5v-1H16c0.552,0,1-0.448,1-1V12c0-1.93-1.57-3.5-3.5-3.5h-3C8.57,8.5,7,10.07,7,12v4.5
	c0,0.552,0.449,1,1,1h1.5v1H8c-1.103,0-2-0.897-2-2V12c0-2.481,2.019-4.5,4.5-4.5h3c2.481,0,4.5,2.019,4.5,4.5v4.5
	C18,17.603,17.103,18.5,16,18.5z"/>
<path style="fill:#333333;" d="M12,5.5c-1.103,0-2-0.897-2-2s0.897-2,2-2c1.103,0,2,0.897,2,2S13.103,5.5,12,5.5z M12,2.5
	c-0.551,0-1,0.449-1,1s0.449,1,1,1c0.552,0,1-0.449,1-1S12.552,2.5,12,2.5z"/>
<path style="fill:#333333;" d="M13.7,19.5h-3.4c-0.717,0-1.3-0.583-1.3-1.3v-0.7c0-1.654,1.346-3,3-3s3,1.346,3,3v0.7
	C15,18.917,14.417,19.5,13.7,19.5z M12,15.5c-1.103,0-2,0.897-2,2v0.7c0,0.165,0.134,0.3,0.3,0.3h3.4c0.165,0,0.3-0.135,0.3-0.3
	v-0.7C14,16.397,13.103,15.5,12,15.5z"/>
<path style="fill:#333333;" d="M12,22.5c-1.103,0-2-0.897-2-2V19h1v1.5c0,0.552,0.449,1,1,1c0.552,0,1-0.448,1-1V19h1v1.5
	C14,21.603,13.103,22.5,12,22.5z"/>
</svg>






