<?xml version="1.0" encoding="iso-8859-1"?>
<svg version="1.1" id="&#x56FE;&#x5C42;_1" xmlns="http://www.w3.org/2000/svg" xmlns:xlink="http://www.w3.org/1999/xlink" x="0px"
	 y="0px" viewBox="0 0 24 24" style="enable-background:new 0 0 24 24;" xml:space="preserve">
<path style="fill:#333333;" d="M9.5,18h-8v-0.5C1.5,13.312,4.089,8,7,8h0.401l1.087,4.892l-0.977,0.217L6.61,9.053
	C4.733,9.548,2.694,13.47,2.513,17H9.5V18z"/>
<path style="fill:#333333;" d="M14.5,17.5h-1c0-1.508,0.345-2.555,1.086-3.295c0.815-0.813,2.062-1.189,3.915-1.205l-0.002,1
	c-0.005,0-0.011,0-0.017,0c-1.531,0-2.575,0.299-3.189,0.912C14.752,15.452,14.5,16.274,14.5,17.5z"/>
<path style="fill:#333333;" d="M20.618,17.648c-0.285,0-0.572-0.066-0.842-0.201c-0.822-0.411-0.997-1.536-1.198-2.84
	c-0.121-0.779-0.258-1.663-0.546-2.432c-0.619-1.65-2.037-2.826-3.891-3.228c-2.221-0.481-4.631,0.249-6.288,1.905l-0.707-0.707
	c1.895-1.894,4.658-2.727,7.206-2.176c2.193,0.475,3.875,1.879,4.615,3.854c0.325,0.865,0.47,1.803,0.599,2.631
	c0.146,0.942,0.297,1.917,0.657,2.098c0.298,0.149,0.642,0.119,0.899-0.077c0.446-0.341,0.588-1.109,0.387-2.108l0.98-0.197
	c0.382,1.9-0.312,2.758-0.76,3.101C21.403,17.521,21.014,17.648,20.618,17.648z"/>
</svg>






