<?xml version="1.0" encoding="iso-8859-1"?>
<svg version="1.1" id="&#x56FE;&#x5C42;_1" xmlns="http://www.w3.org/2000/svg" xmlns:xlink="http://www.w3.org/1999/xlink" x="0px"
	 y="0px" viewBox="0 0 24 24" style="enable-background:new 0 0 24 24;" xml:space="preserve">
<path style="fill:#333333;" d="M12,22.5c-3.584,0-6.5-2.916-6.5-6.5V7.5h13V16C18.5,19.584,15.584,22.5,12,22.5z M6.5,8.5V16
	c0,3.032,2.467,5.5,5.5,5.5c3.032,0,5.5-2.468,5.5-5.5V8.5H6.5z"/>
<path style="fill:#333333;" d="M18.5,8.5h-7v-7H12c3.584,0,6.5,2.916,6.5,6.5V8.5z M12.5,7.5h4.978
	c-0.238-2.635-2.343-4.739-4.978-4.978V7.5z"/>
<path style="fill:#333333;" d="M12.5,8.5h-7V8c0-3.584,2.916-6.5,6.5-6.5h0.5V8.5z M6.522,7.5H11.5V2.522
	C8.865,2.761,6.761,4.865,6.522,7.5z"/>
</svg>






