<?xml version="1.0" encoding="iso-8859-1"?>
<svg version="1.1" id="&#x56FE;&#x5C42;_1" xmlns="http://www.w3.org/2000/svg" xmlns:xlink="http://www.w3.org/1999/xlink" x="0px"
	 y="0px" viewBox="0 0 24 24" style="enable-background:new 0 0 24 24;" xml:space="preserve">
<path style="fill:#333333;" d="M12,22.5c-3.584,0-6.5-2.916-6.5-6.5v-4c0-3.584,2.916-6.5,6.5-6.5s6.5,2.916,6.5,6.5v4
	C18.5,19.584,15.584,22.5,12,22.5z M12,6.5c-3.033,0-5.5,2.467-5.5,5.5v4c0,3.032,2.467,5.5,5.5,5.5c3.032,0,5.5-2.468,5.5-5.5v-4
	C17.5,8.967,15.032,6.5,12,6.5z"/>
<path style="fill:#333333;" d="M18.5,13h-13v-1c0-3.584,2.916-6.5,6.5-6.5s6.5,2.916,6.5,6.5V13z M6.5,12h11
	c0-3.033-2.468-5.5-5.5-5.5C8.967,6.5,6.5,8.967,6.5,12z"/>
<path style="fill:#333333;" d="M12.5,12.5h-1V6c0-2.86,1.458-4.5,4-4.5c3.108,0,4.5,2.511,4.5,5h-1c0-0.668-0.169-4-3.5-4
	c-1.99,0-3,1.178-3,3.5V12.5z"/>
</svg>






