<?xml version="1.0" encoding="iso-8859-1"?>
<svg version="1.1" id="&#x56FE;&#x5C42;_1" xmlns="http://www.w3.org/2000/svg" xmlns:xlink="http://www.w3.org/1999/xlink" x="0px"
	 y="0px" viewBox="0 0 24 24" style="enable-background:new 0 0 24 24;" xml:space="preserve">
<path style="fill:#333333;" d="M12,17.5c-5.148,0-10.144-4.937-10.354-5.146l-0.29-0.29l0.228-0.341C1.906,11.239,4.796,7,7,7
	c1.243,0,2.469,0.359,3.454,0.647C11.073,7.829,11.658,8,12,8c0.343,0,0.927-0.171,1.546-0.353C14.531,7.359,15.757,7,17,7
	c2.204,0,5.094,4.239,5.416,4.723l0.228,0.341l-0.29,0.29C22.144,12.563,17.147,17.5,12,17.5z M2.654,11.93
	C3.788,12.969,7.944,16.5,12,16.5c4.062,0,8.213-3.531,9.346-4.57C20.186,10.281,18.176,8,17,8c-1.1,0-2.201,0.323-3.173,0.607
	C13.107,8.818,12.486,9,12,9c-0.486,0-1.107-0.182-1.827-0.393C9.201,8.323,8.1,8,7,8C5.823,8,3.814,10.281,2.654,11.93z"/>
<rect x="2" y="11.5" style="fill:#333333;" width="20" height="1"/>
</svg>






