<?xml version="1.0" encoding="iso-8859-1"?>
<svg version="1.1" id="&#x56FE;&#x5C42;_1" xmlns="http://www.w3.org/2000/svg" xmlns:xlink="http://www.w3.org/1999/xlink" x="0px"
	 y="0px" viewBox="0 0 24 24" style="enable-background:new 0 0 24 24;" xml:space="preserve">
<path style="fill:#333333;" d="M18.9,21.707l-2.022-2.021l-1.062,1.592l-0.906-0.18l-1.548-7.735l7.735,1.548l0.18,0.906
	l-1.592,1.062l2.021,2.022L18.9,21.707z M16.722,18.115l2.179,2.178l1.393-1.393l-2.178-2.179l1.603-1.067l-5.08-1.017l1.017,5.08
	L16.722,18.115z"/>
<path style="fill:#333333;" d="M10.5,21.5H4c-0.827,0-1.5-0.673-1.5-1.5V4c0-0.827,0.673-1.5,1.5-1.5h16c0.827,0,1.5,0.673,1.5,1.5
	v7h-1V4c0-0.276-0.225-0.5-0.5-0.5H4C3.724,3.5,3.5,3.724,3.5,4v16c0,0.275,0.224,0.5,0.5,0.5h6.5V21.5z"/>
</svg>






