<?xml version="1.0" encoding="iso-8859-1"?>
<svg version="1.1" id="&#x56FE;&#x5C42;_1" xmlns="http://www.w3.org/2000/svg" xmlns:xlink="http://www.w3.org/1999/xlink" x="0px"
	 y="0px" viewBox="0 0 24 24" style="enable-background:new 0 0 24 24;" xml:space="preserve">
<path style="fill:#333333;" d="M12,22.5C6.21,22.5,1.5,17.79,1.5,12C1.5,6.21,6.21,1.5,12,1.5c5.79,0,10.5,4.71,10.5,10.5
	C22.5,17.79,17.79,22.5,12,22.5z M12,2.5c-5.238,0-9.5,4.262-9.5,9.5s4.262,9.5,9.5,9.5s9.5-4.262,9.5-9.5S17.238,2.5,12,2.5z"/>
<path style="fill:#333333;" d="M12,9.5c-1.103,0-2-0.897-2-2s0.897-2,2-2c1.103,0,2,0.897,2,2S13.103,9.5,12,9.5z M12,6.5
	c-0.551,0-1,0.449-1,1s0.449,1,1,1c0.552,0,1-0.449,1-1S12.552,6.5,12,6.5z"/>
<path style="fill:#333333;" d="M12,18.5c-1.103,0-2-0.897-2-2s0.897-2,2-2c1.103,0,2,0.897,2,2S13.103,18.5,12,18.5z M12,15.5
	c-0.551,0-1,0.448-1,1s0.449,1,1,1c0.552,0,1-0.448,1-1S12.552,15.5,12,15.5z"/>
<path style="fill:#333333;" d="M7.5,14c-1.103,0-2-0.897-2-2c0-1.103,0.897-2,2-2s2,0.897,2,2C9.5,13.103,8.603,14,7.5,14z M7.5,11
	c-0.551,0-1,0.449-1,1c0,0.552,0.449,1,1,1s1-0.448,1-1C8.5,11.449,8.051,11,7.5,11z"/>
<path style="fill:#333333;" d="M16.5,14c-1.103,0-2-0.897-2-2c0-1.103,0.897-2,2-2s2,0.897,2,2C18.5,13.103,17.603,14,16.5,14z
	 M16.5,11c-0.552,0-1,0.449-1,1c0,0.552,0.448,1,1,1s1-0.448,1-1C17.5,11.449,17.052,11,16.5,11z"/>
<rect x="12" y="21.5" style="fill:#333333;" width="10" height="1"/>
</svg>






