<?xml version="1.0" encoding="iso-8859-1"?>
<svg version="1.1" id="&#x56FE;&#x5C42;_1" xmlns="http://www.w3.org/2000/svg" xmlns:xlink="http://www.w3.org/1999/xlink" x="0px"
	 y="0px" viewBox="0 0 24 24" style="enable-background:new 0 0 24 24;" xml:space="preserve">
<path style="fill:#333333;" d="M22.5,21.5h-21v-14h21V21.5z M2.5,20.5h19v-12h-19V20.5z"/>
<path style="fill:#333333;" d="M22.5,8.5h-21v-6h21V8.5z M2.5,7.5h19v-4h-19V7.5z"/>
<rect x="13.5" y="2.807" transform="matrix(0.9285 -0.3714 0.3714 0.9285 -1.0413 5.5928)" style="fill:#333333;" width="0.999" height="5.385"/>
<rect x="9.5" y="2.807" transform="matrix(0.9285 -0.3714 0.3714 0.9285 -1.3274 4.1073)" style="fill:#333333;" width="1" height="5.385"/>
<rect x="5.5" y="2.807" transform="matrix(0.9285 -0.3714 0.3714 0.9285 -1.6135 2.6217)" style="fill:#333333;" width="1" height="5.385"/>
<rect x="17.5" y="2.807" transform="matrix(0.9285 -0.3714 0.3714 0.9285 -0.7552 7.0784)" style="fill:#333333;" width="0.999" height="5.385"/>
<rect x="6" y="11.5" style="fill:#333333;" width="12" height="1"/>
<rect x="6" y="15.5" style="fill:#333333;" width="6" height="1"/>
</svg>






