<?xml version="1.0" encoding="iso-8859-1"?>
<svg version="1.1" id="&#x56FE;&#x5C42;_1" xmlns="http://www.w3.org/2000/svg" xmlns:xlink="http://www.w3.org/1999/xlink" x="0px"
	 y="0px" viewBox="0 0 24 24" style="enable-background:new 0 0 24 24;" xml:space="preserve">
<path style="fill:#333333;" d="M12,15.5c-1.93,0-3.5-1.57-3.5-3.5V5c0-1.93,1.57-3.5,3.5-3.5s3.5,1.57,3.5,3.5v7
	C15.5,13.93,13.93,15.5,12,15.5z M12,2.5c-1.378,0-2.5,1.122-2.5,2.5v7c0,1.379,1.122,2.5,2.5,2.5c1.379,0,2.5-1.121,2.5-2.5V5
	C14.5,3.622,13.379,2.5,12,2.5z"/>
<path style="fill:#333333;" d="M12,15.5c-0.935,0-1.814-0.364-2.475-1.025C8.864,13.814,8.5,12.936,8.5,12
	c0-0.935,0.364-1.814,1.025-2.475l4.949-4.95c1.365-1.364,3.585-1.366,4.95,0c1.364,1.365,1.364,3.584,0,4.949l-4.95,4.95
	C13.814,15.136,12.936,15.5,12,15.5z M16.95,4.552c-0.641,0-1.281,0.244-1.769,0.731l-4.949,4.95C9.76,10.705,9.5,11.333,9.5,12
	c0,0.668,0.26,1.296,0.732,1.768c0.945,0.945,2.593,0.945,3.535,0l4.95-4.95c0.975-0.975,0.975-2.561,0-3.535
	C18.23,4.795,17.59,4.552,16.95,4.552z"/>
<path style="fill:#333333;" d="M19,15.5h-7c-1.93,0-3.5-1.57-3.5-3.5s1.57-3.5,3.5-3.5h7c1.93,0,3.5,1.57,3.5,3.5
	S20.93,15.5,19,15.5z M12,9.5c-1.378,0-2.5,1.122-2.5,2.5c0,1.379,1.122,2.5,2.5,2.5h7c1.379,0,2.5-1.121,2.5-2.5
	c0-1.378-1.121-2.5-2.5-2.5H12z"/>
<path style="fill:#333333;" d="M16.949,20.447c-0.896,0-1.792-0.341-2.475-1.022l-4.95-4.95C8.864,13.814,8.5,12.936,8.5,12
	c0-0.935,0.364-1.813,1.025-2.475c1.322-1.323,3.63-1.322,4.95,0l4.95,4.949c1.363,1.365,1.363,3.585,0,4.95
	C18.742,20.106,17.846,20.447,16.949,20.447z M15.182,18.718c0.974,0.974,2.561,0.976,3.536,0c0.974-0.975,0.974-2.562,0-3.536
	l-4.95-4.949c-0.943-0.944-2.591-0.944-3.536,0C9.76,10.705,9.5,11.333,9.5,12c0,0.668,0.26,1.296,0.732,1.768L15.182,18.718z"/>
<path style="fill:#333333;" d="M12,22.5c-1.93,0-3.5-1.57-3.5-3.5v-7c0-1.93,1.57-3.5,3.5-3.5s3.5,1.57,3.5,3.5v7
	C15.5,20.93,13.93,22.5,12,22.5z M12,9.5c-1.378,0-2.5,1.122-2.5,2.5v7c0,1.379,1.122,2.5,2.5,2.5c1.379,0,2.5-1.121,2.5-2.5v-7
	C14.5,10.622,13.379,9.5,12,9.5z"/>
<path style="fill:#333333;" d="M7.05,20.448c-0.896,0-1.792-0.342-2.475-1.023c-1.365-1.365-1.365-3.585,0-4.95l4.95-4.949
	c1.322-1.323,3.63-1.321,4.949,0C15.136,10.186,15.5,11.065,15.5,12c0,0.936-0.364,1.814-1.025,2.475l-4.95,4.95
	C8.843,20.106,7.946,20.448,7.05,20.448z M5.283,15.182c-0.975,0.975-0.975,2.562,0,3.536c0.975,0.975,2.561,0.975,3.535,0
	l4.95-4.95C14.24,13.296,14.5,12.668,14.5,12c0-0.667-0.26-1.295-0.732-1.768c-0.942-0.943-2.59-0.944-3.535,0L5.283,15.182z"/>
<path style="fill:#333333;" d="M12,15.5H5c-1.93,0-3.5-1.57-3.5-3.5S3.07,8.5,5,8.5h7c1.93,0,3.5,1.57,3.5,3.5S13.93,15.5,12,15.5z
	 M5,9.5c-1.378,0-2.5,1.122-2.5,2.5c0,1.379,1.122,2.5,2.5,2.5h7c1.379,0,2.5-1.121,2.5-2.5c0-1.378-1.121-2.5-2.5-2.5H5z"/>
<path style="fill:#333333;" d="M12,15.5c-0.935,0-1.814-0.364-2.475-1.025l-4.95-4.949C3.915,8.864,3.55,7.985,3.55,7.05
	s0.364-1.814,1.025-2.475c1.321-1.322,3.627-1.322,4.95,0l4.949,4.95C15.136,10.186,15.5,11.065,15.5,12
	c0,0.936-0.364,1.814-1.025,2.475C13.814,15.136,12.936,15.5,12,15.5z M7.05,4.55c-0.667,0-1.295,0.26-1.768,0.732
	S4.55,6.383,4.55,7.05c0,0.668,0.26,1.296,0.732,1.768l4.95,4.949c0.945,0.945,2.593,0.945,3.535,0
	C14.24,13.296,14.5,12.668,14.5,12c0-0.667-0.26-1.295-0.732-1.768l-4.949-4.95C8.346,4.811,7.718,4.55,7.05,4.55z"/>
</svg>






