<?xml version="1.0" encoding="iso-8859-1"?>
<svg version="1.1" id="&#x56FE;&#x5C42;_1" xmlns="http://www.w3.org/2000/svg" xmlns:xlink="http://www.w3.org/1999/xlink" x="0px"
	 y="0px" viewBox="0 0 24 24" style="enable-background:new 0 0 24 24;" xml:space="preserve">
<path style="fill:#333333;" d="M12,22.5C6.21,22.5,1.5,17.79,1.5,12C1.5,6.21,6.21,1.5,12,1.5c5.79,0,10.5,4.71,10.5,10.5
	C22.5,17.79,17.79,22.5,12,22.5z M12,2.5c-5.238,0-9.5,4.262-9.5,9.5s4.262,9.5,9.5,9.5s9.5-4.262,9.5-9.5S17.238,2.5,12,2.5z"/>
<path style="fill:#333333;" d="M12,18.5c-4.974,0-9.302-3.533-10.291-8.4L2.69,9.9c0.894,4.403,4.81,7.6,9.31,7.6
	c4.5,0,8.416-3.196,9.31-7.6l0.98,0.199C21.302,14.967,16.974,18.5,12,18.5z"/>
<path style="fill:#333333;" d="M12,14.5c-4.176,0-7.954-2.473-9.626-6.3L3.29,7.8c1.513,3.463,4.932,5.7,8.71,5.7
	s7.197-2.237,8.71-5.7l0.916,0.4C19.954,12.027,16.176,14.5,12,14.5z"/>
<path style="fill:#333333;" d="M12,10.5c-3.334,0-6.396-1.531-8.4-4.2l0.8-0.601C6.213,8.115,8.984,9.5,12,9.5
	c3.015,0,5.787-1.385,7.608-3.801l0.799,0.602C18.396,8.97,15.331,10.5,12,10.5z"/>
<path style="fill:#333333;" d="M12,6.5c-2.294,0-4.473-0.726-6.301-2.1l0.601-0.8C7.954,4.843,9.925,5.5,12,5.5s4.046-0.657,5.7-1.9
	l0.602,0.8C16.472,5.774,14.293,6.5,12,6.5z"/>
</svg>






