<?xml version="1.0" encoding="iso-8859-1"?>
<svg version="1.1" id="&#x56FE;&#x5C42;_1" xmlns="http://www.w3.org/2000/svg" xmlns:xlink="http://www.w3.org/1999/xlink" x="0px"
	 y="0px" viewBox="0 0 24 24" style="enable-background:new 0 0 24 24;" xml:space="preserve">
<path style="fill:#333333;" d="M12,8c-1.654,0-3-1.346-3-3s1.346-3,3-3s3,1.346,3,3S13.654,8,12,8z M12,3c-1.103,0-2,0.897-2,2
	s0.897,2,2,2c1.103,0,2-0.897,2-2S13.103,3,12,3z"/>
<rect x="11.5" y="7.5" style="fill:#333333;" width="1" height="4"/>
<polygon style="fill:#333333;" points="21,16.5 20,16.5 20,12.006 9.5,12 9.5,16.5 8.5,16.5 8.5,11 21,11.007 "/>
<rect x="20" y="20.5" style="fill:#333333;" width="1" height="0.5"/>
<rect x="3" y="20.5" style="fill:#333333;" width="1" height="0.5"/>
<rect x="8.5" y="20.5" style="fill:#333333;" width="1" height="0.5"/>
<rect x="14.5" y="20.5" style="fill:#333333;" width="1" height="0.5"/>
</svg>






