<?xml version="1.0" encoding="iso-8859-1"?>
<svg version="1.1" id="&#x56FE;&#x5C42;_1" xmlns="http://www.w3.org/2000/svg" xmlns:xlink="http://www.w3.org/1999/xlink" x="0px"
	 y="0px" viewBox="0 0 24 24" style="enable-background:new 0 0 24 24;" xml:space="preserve">
<path style="fill:#333333;" d="M21,18.5H3c-0.827,0-1.5-0.673-1.5-1.5V4c0-0.827,0.673-1.5,1.5-1.5h18c0.827,0,1.5,0.673,1.5,1.5v13
	C22.5,17.827,21.827,18.5,21,18.5z M3,3.5C2.724,3.5,2.5,3.724,2.5,4v13c0,0.275,0.224,0.5,0.5,0.5h18c0.275,0,0.5-0.225,0.5-0.5V4
	c0-0.276-0.225-0.5-0.5-0.5H3z"/>
<rect x="10" y="20.5" style="fill:#333333;" width="4" height="1"/>
<rect x="17" y="20.5" style="fill:#333333;" width="1" height="1"/>
<rect x="2" y="20.5" style="fill:#333333;" width="1" height="1"/>
<rect x="21" y="20.5" style="fill:#333333;" width="1" height="1"/>
<rect x="6" y="20.5" style="fill:#333333;" width="1" height="1"/>
</svg>






