<?xml version="1.0" encoding="iso-8859-1"?>
<svg version="1.1" id="&#x56FE;&#x5C42;_1" xmlns="http://www.w3.org/2000/svg" xmlns:xlink="http://www.w3.org/1999/xlink" x="0px"
	 y="0px" viewBox="0 0 24 24" style="enable-background:new 0 0 24 24;" xml:space="preserve">
<path style="fill:none;" d="M10.685,18c0.725-2.625,3.26-4.5,6.18-4.19c2.78,0.295,4.99,2.64,5.13,5.43
	c0.035,0.735-0.065,1.44-0.28,2.095c-0.13,0.4-0.52,0.665-0.945,0.665H5.879c-2.524,0-4.417-2.309-3.922-4.784L5,2h6l2,3.5
	L8.715,8.565L7.5,7"/>
<path style="fill:#333333;" d="M20.77,22.5H5.879c-1.354,0-2.622-0.601-3.48-1.647c-0.858-1.047-1.198-2.408-0.932-3.734L4.51,1.902
	L5,1.5h6l0.434,0.252l2,3.5l-0.144,0.655L9.006,8.972l-0.686-0.1L7.105,7.307l0.79-0.613l0.92,1.185l3.527-2.522L10.71,2.5h-5.3
	L2.447,17.313c-0.207,1.032,0.058,2.091,0.725,2.905C3.84,21.033,4.827,21.5,5.879,21.5h14.89c0.216,0,0.409-0.131,0.47-0.319
	c0.202-0.615,0.288-1.26,0.257-1.917c-0.128-2.555-2.142-4.687-4.684-4.957c-2.568-0.272-4.957,1.335-5.646,3.826l-0.964-0.266
	c0.819-2.965,3.653-4.879,6.715-4.555c3.027,0.322,5.424,2.859,5.576,5.902c0.038,0.78-0.064,1.546-0.304,2.276
	C21.994,22.094,21.423,22.5,20.77,22.5z"/>
<rect x="9.359" y="8.414" transform="matrix(0.9654 -0.2609 0.2609 0.9654 -2.9935 3.0151)" style="fill:#333333;" width="1.001" height="8.738"/>
</svg>






