<?xml version="1.0" encoding="iso-8859-1"?>
<svg version="1.1" id="&#x56FE;&#x5C42;_1" xmlns="http://www.w3.org/2000/svg" xmlns:xlink="http://www.w3.org/1999/xlink" x="0px"
	 y="0px" viewBox="0 0 24 24" style="enable-background:new 0 0 24 24;" xml:space="preserve">
<path style="fill:#333333;" d="M12,22.5C6.21,22.5,1.5,17.79,1.5,12C1.5,6.21,6.21,1.5,12,1.5c5.79,0,10.5,4.71,10.5,10.5
	C22.5,17.79,17.79,22.5,12,22.5z M12,2.5c-5.238,0-9.5,4.262-9.5,9.5s4.262,9.5,9.5,9.5s9.5-4.262,9.5-9.5S17.238,2.5,12,2.5z"/>
<rect x="12.5" y="7" style="fill:#333333;" width="1" height="7"/>
<path style="fill:#333333;" d="M10.84,17H9.16c-1.467,0-2.66-1.047-2.66-2.333v-0.334C6.5,13.047,7.693,12,9.16,12h4.34v2.667
	C13.5,15.953,12.307,17,10.84,17z M9.16,13c-0.916,0-1.66,0.598-1.66,1.333v0.334C7.5,15.402,8.245,16,9.16,16h1.68
	c0.916,0,1.66-0.598,1.66-1.333V13H9.16z"/>
<rect x="14" y="5.729" transform="matrix(0.1644 -0.9864 0.9864 0.1644 4.9649 20.3608)" style="fill:#333333;" width="1" height="3.041"/>
</svg>






