<?xml version="1.0" encoding="iso-8859-1"?>
<svg version="1.1" id="&#x56FE;&#x5C42;_1" xmlns="http://www.w3.org/2000/svg" xmlns:xlink="http://www.w3.org/1999/xlink" x="0px"
	 y="0px" viewBox="0 0 24 24" style="enable-background:new 0 0 24 24;" xml:space="preserve">
<rect x="14" y="3" style="fill:#333333;" width="1" height="14.5"/>
<path style="fill:#333333;" d="M11.98,21.5h-1.96C8.355,21.5,7,20.146,7,18.48V18.02C7,16.354,8.355,15,10.02,15H15v3.48
	C15,20.146,13.646,21.5,11.98,21.5z M10.02,16C8.906,16,8,16.906,8,18.02v0.461c0,1.113,0.906,2.02,2.02,2.02h1.96
	c1.114,0,2.02-0.906,2.02-2.02V16H10.02z"/>
<path style="fill:#333333;" d="M21.441,9.193L14,7.429V2.37l7.441,1.741V9.193z M15,6.638l5.441,1.291V4.903L15,3.63V6.638z"/>
<rect x="3" y="3.5" style="fill:#333333;" width="7" height="1"/>
<rect x="3" y="7.5" style="fill:#333333;" width="7" height="1"/>
<rect x="3" y="11.5" style="fill:#333333;" width="5" height="1"/>
</svg>






