<?xml version="1.0" encoding="iso-8859-1"?>
<svg version="1.1" id="&#x56FE;&#x5C42;_1" xmlns="http://www.w3.org/2000/svg" xmlns:xlink="http://www.w3.org/1999/xlink" x="0px"
	 y="0px" viewBox="0 0 24 24" style="enable-background:new 0 0 24 24;" xml:space="preserve">
<rect x="11.5" y="3" style="fill:#333333;" width="1" height="14.5"/>
<path style="fill:#333333;" d="M9.48,21.5H7.52c-1.665,0-3.02-1.354-3.02-3.02V18.02C4.5,16.354,5.855,15,7.52,15h4.98v3.48
	C12.5,20.146,11.145,21.5,9.48,21.5z M7.52,16c-1.114,0-2.02,0.906-2.02,2.02v0.461c0,1.113,0.906,2.02,2.02,2.02h1.96
	c1.114,0,2.02-0.906,2.02-2.02V16H7.52z"/>
<path style="fill:#333333;" d="M18.941,9.193L11.5,7.429V2.37l7.441,1.741V9.193z M12.5,6.638l5.441,1.291V4.903L12.5,3.63V6.638z"
	/>
</svg>






