<?xml version="1.0" encoding="iso-8859-1"?>
<svg version="1.1" id="&#x56FE;&#x5C42;_1" xmlns="http://www.w3.org/2000/svg" xmlns:xlink="http://www.w3.org/1999/xlink" x="0px"
	 y="0px" viewBox="0 0 24 24" style="enable-background:new 0 0 24 24;" xml:space="preserve">
<path style="fill:#333333;" d="M18.7,19.5h-1.95c-1.24,0-2.25-1.01-2.25-2.25S15.51,15,16.75,15H21v2.2
	C21,18.469,19.969,19.5,18.7,19.5z M16.75,16c-0.689,0-1.25,0.561-1.25,1.25s0.561,1.25,1.25,1.25h1.95c0.717,0,1.3-0.583,1.3-1.3
	V16H16.75z"/>
<path style="fill:#333333;" d="M6.2,21.5H4.75c-1.241,0-2.25-1.01-2.25-2.25S3.509,17,4.75,17H8.5v2.2
	C8.5,20.469,7.468,21.5,6.2,21.5z M4.75,18c-0.689,0-1.25,0.561-1.25,1.25s0.561,1.25,1.25,1.25H6.2c0.717,0,1.3-0.583,1.3-1.3V18
	H4.75z"/>
<rect x="7.827" y="7.042" transform="matrix(0.9731 -0.2306 0.2306 0.9731 -1.355 3.4887)" style="fill:#333333;" width="12.846" height="1"/>
<polygon style="fill:#333333;" points="8.5,19 7.5,19 7.5,4.606 21,1.366 21,16.847 20,16.847 20,2.634 8.5,5.394 "/>
</svg>






