<?xml version="1.0" encoding="iso-8859-1"?>
<svg version="1.1" id="&#x56FE;&#x5C42;_1" xmlns="http://www.w3.org/2000/svg" xmlns:xlink="http://www.w3.org/1999/xlink" x="0px"
	 y="0px" viewBox="0 0 24 24" style="enable-background:new 0 0 24 24;" xml:space="preserve">
<path style="fill:#333333;" d="M12,22.5C6.21,22.5,1.5,17.79,1.5,12C1.5,6.21,6.21,1.5,12,1.5c5.79,0,10.5,4.71,10.5,10.5
	C22.5,17.79,17.79,22.5,12,22.5z M12,2.5c-5.238,0-9.5,4.262-9.5,9.5s4.262,9.5,9.5,9.5s9.5-4.262,9.5-9.5S17.238,2.5,12,2.5z"/>
<path style="fill:#333333;" d="M15,17.5h-0.5c-1.819,0-3.187-1.851-3.635-2.545H9.05c-0.579,0-1.05-0.474-1.05-1.056v-3.841
	c0-0.582,0.471-1.056,1.05-1.056h1.817C11.316,8.319,12.683,6.5,14.5,6.5H15V17.5z M9.05,10.003L9,13.899l2.436,0.056l0.144,0.255
	c0.012,0.021,1.052,1.834,2.42,2.219V7.57c-1.37,0.378-2.41,2.162-2.422,2.182l-0.144,0.251L9.05,10.003z"/>
</svg>






