<?xml version="1.0" encoding="iso-8859-1"?>
<svg version="1.1" id="&#x56FE;&#x5C42;_1" xmlns="http://www.w3.org/2000/svg" xmlns:xlink="http://www.w3.org/1999/xlink" x="0px"
	 y="0px" viewBox="0 0 24 24" style="enable-background:new 0 0 24 24;" xml:space="preserve">
<path style="fill:#333333;" d="M19,22.5H5c-0.827,0-1.5-0.673-1.5-1.5V11c0-0.827,0.673-1.5,1.5-1.5h14c0.827,0,1.5,0.673,1.5,1.5
	v10C20.5,21.827,19.827,22.5,19,22.5z M5,10.5c-0.276,0-0.5,0.224-0.5,0.5v10c0,0.275,0.224,0.5,0.5,0.5h14
	c0.275,0,0.5-0.225,0.5-0.5V11c0-0.276-0.225-0.5-0.5-0.5H5z"/>
<path style="fill:#333333;" d="M16,10.5H8v-9h8V10.5z M9,9.5h6v-7H9V9.5z"/>
<path style="fill:#333333;" d="M14.11,19H9.89l0.7-3.5h2.82L14.11,19z M11.11,18h1.78l-0.3-1.5h-1.18L11.11,18z"/>
<rect x="11.5" y="10" style="fill:#333333;" width="1" height="6"/>
<rect x="8.5" y="9.5" style="fill:#333333;" width="7" height="1"/>
</svg>






