<?xml version="1.0" encoding="iso-8859-1"?>
<svg version="1.1" id="&#x56FE;&#x5C42;_1" xmlns="http://www.w3.org/2000/svg" xmlns:xlink="http://www.w3.org/1999/xlink" x="0px"
	 y="0px" viewBox="0 0 24 24" style="enable-background:new 0 0 24 24;" xml:space="preserve">
<path style="fill:#333333;" d="M13.943,11.5h-3.886c-0.41,0-0.808-0.171-1.089-0.469c-0.282-0.298-0.431-0.704-0.408-1.114l0.389-7
	C8.993,2.122,9.65,1.5,10.446,1.5h3.108c0.796,0,1.454,0.622,1.498,1.417l0.389,7c0.023,0.409-0.125,0.815-0.407,1.114
	S14.354,11.5,13.943,11.5z M10.446,2.5c-0.265,0-0.484,0.208-0.499,0.472l-0.389,7c-0.007,0.139,0.041,0.271,0.136,0.372
	C9.79,10.444,9.918,10.5,10.057,10.5h3.886c0.139,0,0.268-0.056,0.363-0.157c0.095-0.101,0.144-0.232,0.136-0.371l-0.389-7
	c-0.015-0.265-0.234-0.472-0.5-0.472H10.446z"/>
<path style="fill:#333333;" d="M17,22.5H7c-1.103,0-2-0.897-2-2V14c0-1.93,1.57-3.5,3.5-3.5h7c1.93,0,3.5,1.57,3.5,3.5v6.5
	C19,21.603,18.103,22.5,17,22.5z M8.5,11.5C7.122,11.5,6,12.621,6,14v6.5c0,0.552,0.449,1,1,1h10c0.552,0,1-0.448,1-1V14
	c0-1.379-1.121-2.5-2.5-2.5H8.5z"/>
<circle style="fill:#333333;" cx="12" cy="16.5" r="1.5"/>
</svg>






