<?xml version="1.0" encoding="iso-8859-1"?>
<svg version="1.1" id="&#x56FE;&#x5C42;_1" xmlns="http://www.w3.org/2000/svg" xmlns:xlink="http://www.w3.org/1999/xlink" x="0px"
	 y="0px" viewBox="0 0 24 24" style="enable-background:new 0 0 24 24;" xml:space="preserve">
<path style="fill:#333333;" d="M6.642,22.004c-0.674,0-1.391-0.189-2.046-0.563c-1.286-0.734-2.054-2.002-2.054-3.39
	c0-1.823,1.72-4.428,3.238-6.726c0.802-1.214,1.559-2.36,1.753-2.972c0.365-1.155,0.521-3.29,0.461-6.344l1-0.02
	C9.056,5.198,8.89,7.378,8.485,8.655C8.25,9.4,7.492,10.548,6.614,11.876c-1.369,2.073-3.073,4.652-3.073,6.174
	c0,1.477,1.084,2.255,1.55,2.521c0.885,0.507,1.886,0.58,2.55,0.188L8.15,21.62C7.714,21.877,7.192,22.004,6.642,22.004z"/>
<path style="fill:#333333;" d="M17.703,21.989c-0.524,0-1.018-0.122-1.436-0.369l0.508-0.861c0.625,0.37,1.592,0.288,2.462-0.211
	c1.091-0.623,1.742-1.707,1.742-2.901c0-1.669-1.737-4.041-3.133-5.947c-0.899-1.228-1.676-2.288-1.915-3.044
	c-0.405-1.278-0.546-3.461-0.431-6.673l1,0.036c-0.11,3.053,0.02,5.184,0.384,6.335c0.189,0.599,0.957,1.646,1.769,2.755
	c1.559,2.129,3.326,4.542,3.326,6.538c0,1.558-0.84,2.967-2.246,3.771C19.067,21.796,18.361,21.989,17.703,21.989z"/>
<path style="fill:#333333;" d="M12.004,20.5c-1.641,0-2.365-1.069-2.894-1.851c-0.227-0.335-0.441-0.651-0.682-0.836
	c-0.293-0.227-0.787-0.47-1.677,0.038l-0.495-0.869c1.297-0.739,2.229-0.388,2.783,0.038c0.368,0.283,0.638,0.683,0.899,1.068
	c0.513,0.757,0.957,1.411,2.066,1.411c1.144,0,1.931-0.821,2.625-1.545c0.383-0.4,0.745-0.777,1.142-0.982
	c0.796-0.414,1.621-0.413,2.451-0.004l-0.443,0.896c-0.541-0.269-1.033-0.271-1.549-0.004c-0.249,0.128-0.555,0.447-0.879,0.785
	C14.601,19.429,13.574,20.5,12.004,20.5z"/>
<path style="fill:#333333;" d="M9.207,14.251l-0.997-0.078c0.034-0.429,0.083-0.841,0.34-1.539c0.33-0.892,0.768-1.408,1.227-1.901
	l0.732,0.681c-0.401,0.432-0.755,0.849-1.021,1.566C9.274,13.56,9.235,13.886,9.207,14.251z"/>
</svg>






