<?xml version="1.0" encoding="iso-8859-1"?>
<svg version="1.1" id="&#x56FE;&#x5C42;_1" xmlns="http://www.w3.org/2000/svg" xmlns:xlink="http://www.w3.org/1999/xlink" x="0px"
	 y="0px" viewBox="0 0 24 24" style="enable-background:new 0 0 24 24;" xml:space="preserve">
<path style="fill:#333333;" d="M12,14c-3.117,0-5.467-2.364-5.467-5.5l-0.04-6.046L9.43,4.803L12,1.719l2.57,3.084l2.93-2.344V8.5
	C17.5,11.584,15.084,14,12,14z M7.507,4.546l0.026,3.951C7.533,11.065,9.453,13,12,13c2.565,0,4.5-1.935,4.5-4.5V4.541l-2.07,1.656
	L12,3.281L9.571,6.197L7.507,4.546z"/>
<path style="fill:#333333;" d="M10.982,22.429c-1.31,0-3.132-1.13-4.542-2.54c-1.885-1.885-3.27-4.508-2.122-5.656
	c1.147-1.146,3.771,0.234,5.657,2.121c1.885,1.886,3.27,4.51,2.122,5.657l0,0C11.807,22.3,11.424,22.429,10.982,22.429z
	 M5.451,14.808c-0.193,0-0.338,0.045-0.425,0.132c-0.432,0.433,0.179,2.3,2.122,4.242c1.941,1.941,3.81,2.555,4.243,2.122
	c0.432-0.433-0.179-2.301-2.122-4.243C7.717,15.51,6.214,14.808,5.451,14.808z"/>
<path style="fill:#333333;" d="M13.175,22.257c-0.441,0-0.825-0.129-1.114-0.418l0,0c-1.148-1.148,0.236-3.771,2.122-5.657
	c1.884-1.884,4.506-3.271,5.656-2.121c1.147,1.147-0.236,3.771-2.121,5.657C16.308,21.127,14.484,22.257,13.175,22.257z
	 M12.768,21.132c0.432,0.432,2.301-0.18,4.243-2.121c1.942-1.943,2.554-3.811,2.121-4.243c-0.432-0.431-2.3,0.18-4.242,2.121
	C12.947,18.831,12.336,20.699,12.768,21.132z"/>
</svg>






