<?xml version="1.0" encoding="iso-8859-1"?>
<svg version="1.1" id="&#x56FE;&#x5C42;_1" xmlns="http://www.w3.org/2000/svg" xmlns:xlink="http://www.w3.org/1999/xlink" x="0px"
	 y="0px" viewBox="0 0 24 24" style="enable-background:new 0 0 24 24;" xml:space="preserve">
<g>
	<defs>
		<rect id="SVGID_1_" width="24" height="24"/>
	</defs>
	<clipPath id="SVGID_00000127016262495775796210000008414912248254196100_">
		<use xlink:href="#SVGID_1_"  style="overflow:visible;"/>
	</clipPath>
	<g style="clip-path:url(#SVGID_00000127016262495775796210000008414912248254196100_);">
		
			<rect x="15.5" y="3.05" transform="matrix(0.7071 -0.7071 0.7071 0.7071 -0.9706 13.6569)" style="fill:#333333;" width="1" height="9.899"/>
		
			<rect x="18.25" y="0.654" transform="matrix(0.7071 -0.7071 0.7071 0.7071 1.7794 14.7959)" style="fill:#333333;" width="1" height="9.192"/>
		
			<rect x="16.981" y="7.75" transform="matrix(0.7071 -0.7071 0.7071 0.7071 -0.3418 15.6738)" style="fill:#333333;" width="3.536" height="1"/>
		
			<rect x="13.981" y="4.75" transform="matrix(0.7071 -0.7071 0.7071 0.7071 0.9008 12.6738)" style="fill:#333333;" width="3.536" height="1"/>
		
			<rect x="2.482" y="19.25" transform="matrix(0.7071 -0.7071 0.7071 0.7071 -12.7206 8.7898)" style="fill:#333333;" width="3.536" height="1"/>
		<path style="fill:#333333;" d="M4.934,19.066l0.588-5.296L14,5.293L18.707,10l-8.478,8.478L4.934,19.066z M6.478,14.229
			l-0.412,3.704l3.705-0.411L17.293,10L14,6.707L6.478,14.229z"/>
	</g>
</g>
</svg>






