<?xml version="1.0" encoding="iso-8859-1"?>
<svg version="1.1" id="&#x56FE;&#x5C42;_1" xmlns="http://www.w3.org/2000/svg" xmlns:xlink="http://www.w3.org/1999/xlink" x="0px"
	 y="0px" viewBox="0 0 24 24" style="enable-background:new 0 0 24 24;" xml:space="preserve">
<polygon style="fill:#333333;" points="8.5,15.5 1.5,15.5 1.5,1.5 15.5,1.5 15.5,8.5 14.5,8.5 14.5,2.5 2.5,2.5 2.5,14.5 8.5,14.5 
	"/>
<path style="fill:#333333;" d="M22,22H8V8h14V22z M9,21h12V9H9V21z"/>
<polygon style="fill:#333333;" points="14.354,17.854 13.646,17.146 15.293,15.5 8.5,15.5 8.5,14.5 15.293,14.5 13.646,12.854 
	14.354,12.146 16.854,14.646 16.5,15 16.854,15.354 "/>
<rect x="8" y="8.5" style="fill:#333333;" width="1" height="13"/>
</svg>






