<?xml version="1.0" encoding="iso-8859-1"?>
<svg version="1.1" id="&#x56FE;&#x5C42;_1" xmlns="http://www.w3.org/2000/svg" xmlns:xlink="http://www.w3.org/1999/xlink" x="0px"
	 y="0px" viewBox="0 0 24 24" style="enable-background:new 0 0 24 24;" xml:space="preserve">
<path style="fill:#333333;" d="M3.417,21.742l-0.875-0.484l3.224-5.812l0.352,0.062c2.354,0.42,4.334,0.196,5.885-0.662
	c2.412-1.338,3.224-3.933,3.013-5.266c-0.099-0.625-0.461-1.208-0.811-1.77c-0.493-0.794-1.004-1.616-0.646-2.498
	c0.218-0.539,0.7-0.932,1.459-1.184C14.681,3.467,13.689,2,12.521,2c-1.019,0-1.67,0.376-2.051,1.185L2.934,16.405l-0.869-0.496
	L9.583,2.724C10.106,1.608,11.128,1,12.521,1c1.754,0,2.938,1.855,3.313,2.536l1.738,0.259L17.507,4.79
	c-2.328,0.038-2.893,0.579-3.021,0.897c-0.155,0.383,0.111,0.858,0.568,1.595c0.384,0.617,0.818,1.316,0.949,2.141
	c0.311,1.965-0.92,4.857-3.517,6.297c-1.675,0.928-3.756,1.209-6.191,0.83L3.417,21.742z"/>
<path style="fill:#333333;" d="M7.5,13.988l-0.466-0.741c1.309-2.359,2.144-3.831,2.555-4.498c0.441-0.719,1.524-0.983,2.364-0.577
	c0.728,0.352,1.307,1.271,0.751,2.792C12.03,12.81,10.279,13.827,7.5,13.988z M11.1,8.982c-0.277,0-0.546,0.106-0.66,0.29
	c-0.347,0.564-1.042,1.782-2.067,3.624c1.82-0.271,2.934-1.021,3.392-2.275c0.166-0.454,0.354-1.258-0.247-1.548
	C11.391,9.011,11.244,8.982,11.1,8.982z"/>
<path style="fill:#333333;" d="M18.401,17.716c-0.799,0-1.546-0.278-2.231-0.835l-0.291-0.236l0.144-0.345
	c0.631-1.513,1.585-2.447,2.835-2.778c1.245-0.329,2.394-0.125,3.418,0.605l0.33,0.234l-0.161,0.372
	c-0.619,1.428-1.562,2.36-2.804,2.771C19.216,17.646,18.802,17.716,18.401,17.716z M17.108,16.326
	c0.673,0.425,1.402,0.499,2.218,0.229c0.861-0.285,1.524-0.888,2.018-1.835c-0.684-0.371-1.417-0.447-2.23-0.232
	C18.263,14.713,17.604,15.315,17.108,16.326z"/>
<path style="fill:#333333;" d="M17.969,21.008c-0.506,0-1.041-0.079-1.604-0.238c-1.799-0.509-2.927-1.544-3.353-3.078l-0.12-0.432
	l0.416-0.167c1.371-0.547,2.637-0.743,3.764-0.583c1.178,0.168,2.429,1.039,3.824,2.664l0.312,0.364l-0.35,0.327
	C20.045,20.626,19.077,21.008,17.969,21.008z M14.126,17.855c0.409,0.95,1.234,1.591,2.51,1.951c1.265,0.357,2.305,0.24,3.162-0.363
	c-1.076-1.173-2.039-1.825-2.867-1.943C16.1,17.383,15.157,17.502,14.126,17.855z"/>
</svg>






