<?xml version="1.0" encoding="iso-8859-1"?>
<svg version="1.1" id="&#x56FE;&#x5C42;_1" xmlns="http://www.w3.org/2000/svg" xmlns:xlink="http://www.w3.org/1999/xlink" x="0px"
	 y="0px" viewBox="0 0 24 24" style="enable-background:new 0 0 24 24;" xml:space="preserve">
<path style="fill:#333333;" d="M6.5,21.5h-5v-5h5V21.5z M2.5,20.5h3v-3h-3V20.5z"/>
<path style="fill:#333333;" d="M20.5,9.5h-17v-7h17V9.5z M4.5,8.5h15v-5h-15V8.5z"/>
<rect x="11.5" y="9" style="fill:#333333;" width="1" height="8"/>
<polygon style="fill:#333333;" points="20.5,17 19.5,17 19.5,13.5 4.5,13.5 4.5,17 3.5,17 3.5,12.5 20.5,12.5 "/>
<path style="fill:#333333;" d="M22.5,21.5h-5v-5h5V21.5z M18.5,20.5h3v-3h-3V20.5z"/>
<path style="fill:#333333;" d="M14.5,21.5h-5v-5h5V21.5z M10.5,20.5h3v-3h-3V20.5z"/>
<rect x="7" y="5.5" style="fill:#333333;" width="1" height="1"/>
</svg>






