<?xml version="1.0" encoding="iso-8859-1"?>
<svg version="1.1" id="&#x56FE;&#x5C42;_1" xmlns="http://www.w3.org/2000/svg" xmlns:xlink="http://www.w3.org/1999/xlink" x="0px"
	 y="0px" viewBox="0 0 24 24" style="enable-background:new 0 0 24 24;" xml:space="preserve">
<path style="fill:#333333;" d="M20.546,18.567l-0.574-0.818c1.472-1.034,2.095-2.882,1.552-4.598
	c-0.503-1.588-2.07-2.614-3.993-2.614c-0.001,0-0.002,0-0.004,0h-1.548l-0.097-0.375c-0.702-2.737-3.061-4.793-5.867-5.116
	C7.203,4.718,4.444,6.188,3.138,8.694c-1.306,2.505-0.926,5.611,0.947,7.727l-0.749,0.662c-2.145-2.424-2.581-5.981-1.084-8.851
	c1.496-2.871,4.664-4.552,7.877-4.18c3.086,0.355,5.698,2.539,6.615,5.485h0.782c0.001,0,0.003,0,0.005,0
	c2.367,0,4.309,1.299,4.945,3.312C23.152,14.982,22.377,17.28,20.546,18.567z"/>
<path style="fill:#333333;" d="M17.5,21h-11v-4h11V21z M7.5,20h9v-2h-9V20z"/>
<rect x="11" y="13.5" style="fill:#333333;" width="6" height="1"/>
<rect x="7" y="13.5" style="fill:#333333;" width="1" height="1"/>
</svg>






