<?xml version="1.0" encoding="iso-8859-1"?>
<svg version="1.1" id="&#x56FE;&#x5C42;_1" xmlns="http://www.w3.org/2000/svg" xmlns:xlink="http://www.w3.org/1999/xlink" x="0px"
	 y="0px" viewBox="0 0 24 24" style="enable-background:new 0 0 24 24;" xml:space="preserve">
<path style="fill:#333333;" d="M10.25,17c-0.827,0-1.268-0.736-1.622-1.327c-0.208-0.347-0.442-0.739-0.672-0.834
	c-0.255-0.106-0.703,0.001-1.137,0.102c-0.698,0.165-1.488,0.351-2.049-0.21c-0.561-0.561-0.375-1.355-0.21-2.058
	c0.102-0.437,0.208-0.888,0.102-1.142c-0.095-0.229-0.487-0.461-0.833-0.666C3.237,10.514,2.5,10.078,2.5,9.25
	c0-0.815,0.702-1.287,1.32-1.703c0.348-0.234,0.742-0.5,0.841-0.738c0.104-0.252,0-0.667-0.102-1.069
	C4.402,5.113,4.207,4.333,4.77,3.77c0.577-0.576,1.402-0.305,2.066-0.086c0.412,0.136,0.882,0.291,1.12,0.191
	c0.221-0.092,0.458-0.53,0.668-0.917C8.975,2.308,9.412,1.5,10.25,1.5c0.837,0,1.24,0.74,1.565,1.334
	c0.188,0.344,0.401,0.735,0.624,0.827c0.257,0.107,0.748-0.004,1.184-0.103c0.727-0.164,1.551-0.348,2.108,0.211
	c0.56,0.561,0.374,1.359,0.21,2.064c-0.102,0.439-0.208,0.894-0.102,1.149c0.095,0.228,0.486,0.458,0.832,0.66
	C17.264,7.99,18,8.421,18,9.25c0,0.816-0.663,1.256-1.195,1.61c-0.321,0.213-0.653,0.434-0.752,0.671
	c-0.111,0.269-0.048,0.719,0.013,1.155c0.1,0.702,0.211,1.498-0.335,2.045c-0.564,0.563-1.344,0.367-1.969,0.21
	c-0.402-0.103-0.819-0.208-1.069-0.102c-0.239,0.099-0.505,0.493-0.739,0.841C11.537,16.299,11.064,17,10.25,17z M7.687,13.796
	c0.224,0,0.444,0.033,0.652,0.119c0.534,0.222,0.859,0.765,1.146,1.243C9.733,15.572,9.99,16,10.25,16
	c0.282,0,0.583-0.446,0.874-0.879c0.329-0.487,0.668-0.991,1.185-1.206c0.556-0.232,1.162-0.079,1.697,0.056
	c0.518,0.129,0.867,0.202,1.018,0.053c0.193-0.193,0.122-0.705,0.052-1.199c-0.079-0.567-0.162-1.155,0.054-1.676
	c0.215-0.519,0.697-0.839,1.122-1.121C16.717,9.718,17,9.511,17,9.25c0-0.256-0.424-0.504-0.834-0.744
	c-0.481-0.282-1.027-0.602-1.251-1.14c-0.229-0.551-0.08-1.193,0.052-1.759c0.104-0.452,0.224-0.963,0.057-1.13
	c-0.171-0.172-0.73-0.044-1.182,0.058c-0.608,0.136-1.237,0.277-1.786,0.051c-0.548-0.228-0.851-0.782-1.119-1.272
	C10.669,2.822,10.476,2.5,10.25,2.5c-0.242,0-0.521,0.518-0.747,0.933c-0.302,0.56-0.615,1.138-1.165,1.366
	C7.758,5.04,7.102,4.824,6.523,4.634C6.119,4.501,5.618,4.337,5.477,4.477C5.326,4.628,5.4,4.979,5.53,5.495
	c0.134,0.534,0.287,1.139,0.056,1.696C5.371,7.708,4.867,8.048,4.378,8.376C3.947,8.667,3.5,8.968,3.5,9.25
	c0,0.258,0.426,0.511,0.838,0.754c0.48,0.285,1.025,0.607,1.248,1.144c0.229,0.552,0.08,1.19-0.052,1.752
	c-0.105,0.448-0.224,0.956-0.056,1.123c0.167,0.168,0.67,0.048,1.113-0.056C6.939,13.885,7.318,13.796,7.687,13.796z"/>
<path style="fill:#333333;" d="M10,11.5c-1.378,0-2.5-1.122-2.5-2.5S8.622,6.5,10,6.5s2.5,1.122,2.5,2.5S11.378,11.5,10,11.5z
	 M10,7.5C9.173,7.5,8.5,8.173,8.5,9s0.673,1.5,1.5,1.5s1.5-0.673,1.5-1.5S10.827,7.5,10,7.5z"/>
<path style="fill:#333333;" d="M11.21,22.504c-0.691,0-1.404-0.233-2.125-0.702c-1.519-0.984-1.942-3.238-1.293-6.89l0.984,0.176
	c-0.562,3.167-0.276,5.144,0.853,5.875c1.266,0.822,2.397,0.695,3.462-0.386c0.121-0.123,0.29-0.319,0.496-0.559
	c1.069-1.239,3.06-3.547,4.95-3.547c0.907,0,1.673,0.342,2.215,0.989c0.667,0.798,0.835,1.88,0.706,2.6
	c-0.152,0.845-0.559,1.484-1.208,1.9l-0.539-0.842c0.411-0.264,0.661-0.668,0.763-1.235c0.085-0.475-0.031-1.234-0.489-1.781
	c-0.35-0.419-0.837-0.631-1.447-0.631c-1.433,0-3.297,2.161-4.192,3.2c-0.225,0.26-0.409,0.473-0.541,0.606
	C13.001,22.094,12.125,22.504,11.21,22.504z"/>
</svg>






