<?xml version="1.0" encoding="iso-8859-1"?>
<svg version="1.1" id="&#x56FE;&#x5C42;_1" xmlns="http://www.w3.org/2000/svg" xmlns:xlink="http://www.w3.org/1999/xlink" x="0px"
	 y="0px" viewBox="0 0 24 24" style="enable-background:new 0 0 24 24;" xml:space="preserve">
<path style="fill:#333333;" d="M9.5,21.5h-5c-1.103,0-2-0.897-2-2v-15c0-1.103,0.897-2,2-2h15c1.103,0,2,0.897,2,2v5h-1v-5
	c0-0.551-0.448-1-1-1h-15c-0.551,0-1,0.449-1,1v15c0,0.552,0.449,1,1,1h5V21.5z"/>
<polygon style="fill:#333333;" points="17.354,20.354 16.646,19.646 20.293,16 16.646,12.354 17.354,11.646 21.707,16 "/>
<rect x="12" y="15.5" style="fill:#333333;" width="9" height="1"/>
</svg>






