<?xml version="1.0" encoding="iso-8859-1"?>
<svg version="1.1" id="&#x56FE;&#x5C42;_1" xmlns="http://www.w3.org/2000/svg" xmlns:xlink="http://www.w3.org/1999/xlink" x="0px"
	 y="0px" viewBox="0 0 24 24" style="enable-background:new 0 0 24 24;" xml:space="preserve">
<path style="fill:#333333;" d="M9.541,21c-0.014,0-0.028,0-0.042,0c-3.169-0.01-6.115-1.51-7.816-2.911L1.5,17.939V8.5h1v8.964
	C4.09,18.711,6.706,19.991,9.501,20c0.013,0,0.026,0,0.039,0c2.581,0,4.751-0.779,6.635-2.381c1.852-1.574,2.488-3.463,3.049-5.13
	c0.435-1.291,0.85-2.523,1.771-3.378c-1.377-0.505-3.544-0.694-6.614,2.916C12.774,13.916,10.63,15,8.5,15v-1
	c1.837,0,3.702-0.955,5.119-2.621c4.153-4.884,7.09-3.527,8.499-2.875l0.121,0.935c-1.143,0.623-1.551,1.835-2.066,3.37
	c-0.573,1.701-1.286,3.818-3.349,5.572C14.751,20.144,12.369,21,9.541,21z"/>
<path style="fill:#333333;" d="M2.824,7.933c-0.313-0.455-0.935-0.57-1.391-0.258s-0.57,0.935-0.258,1.391L2.824,7.933z
	 M18.001,17.865c0.478-0.277,0.641-0.889,0.364-1.367c-0.277-0.478-0.889-0.641-1.367-0.364L18.001,17.865z M1.176,9.067
	c1.446,2.103,4.224,5.005,7.267,7.045c1.524,1.021,3.165,1.861,4.781,2.254c1.623,0.395,3.298,0.355,4.777-0.501l-1.002-1.731
	c-0.896,0.519-2.002,0.604-3.302,0.288c-1.306-0.318-2.727-1.025-4.141-1.972c-2.831-1.898-5.429-4.62-6.733-6.517L1.176,9.067z"/>
<path style="fill:#333333;" d="M13.053,12.224c-1.456-2.912-3.919-5.071-5.898-6.806C6.485,4.831,5.907,4.324,5.441,3.851L5.797,3
	h8.192l0.143,0.128c1.882,1.697,2.879,4.421,3.14,5.216l-0.949,0.312C15.842,7.193,14.881,5.229,13.601,4H7.06
	c0.235,0.21,0.487,0.431,0.754,0.666c1.937,1.698,4.589,4.023,6.133,7.111L13.053,12.224z"/>
</svg>






