<?xml version="1.0" encoding="iso-8859-1"?>
<svg version="1.1" id="&#x56FE;&#x5C42;_1" xmlns="http://www.w3.org/2000/svg" xmlns:xlink="http://www.w3.org/1999/xlink" x="0px"
	 y="0px" viewBox="0 0 24 24" style="enable-background:new 0 0 24 24;" xml:space="preserve">
<path style="fill:#333333;" d="M19.5,21.5h-15c-1.103,0-2-0.897-2-2v-15c0-1.103,0.897-2,2-2h15c1.103,0,2,0.897,2,2v15
	C21.5,20.603,20.603,21.5,19.5,21.5z M4.5,3.5c-0.551,0-1,0.449-1,1v15c0,0.552,0.449,1,1,1h15c0.552,0,1-0.448,1-1v-15
	c0-0.551-0.448-1-1-1H4.5z"/>
<path style="fill:#333333;" d="M15.675,14.88L9.348,9.456c-0.191-0.164-0.477-0.16-0.663,0.012l-5.347,4.9l-0.676-0.736L8.009,8.73
	c0.56-0.512,1.414-0.527,1.99-0.033l6.327,5.423L15.675,14.88z"/>
<path style="fill:#333333;" d="M20.7,12.4l-3.306-2.48c-0.199-0.15-0.479-0.128-0.654,0.046l-2.387,2.387l-0.707-0.707l2.387-2.387
	c0.524-0.524,1.367-0.584,1.961-0.139L21.3,11.6L20.7,12.4z"/>
<rect x="2.5" y="10" style="fill:#333333;" width="1" height="5"/>
<rect x="20.5" y="10" style="fill:#333333;" width="1" height="5"/>
</svg>






