<?xml version="1.0" encoding="iso-8859-1"?>
<svg version="1.1" id="&#x56FE;&#x5C42;_1" xmlns="http://www.w3.org/2000/svg" xmlns:xlink="http://www.w3.org/1999/xlink" x="0px"
	 y="0px" viewBox="0 0 24 24" style="enable-background:new 0 0 24 24;" xml:space="preserve">
<path style="fill:#333333;" d="M20.5,16h-2v-1h2c0.275,0,0.5-0.225,0.5-0.5v-11C21,3.224,20.775,3,20.5,3h-10
	C10.224,3,10,3.224,10,3.5V5H9V3.5C9,2.673,9.673,2,10.5,2h10C21.327,2,22,2.673,22,3.5v11C22,15.327,21.327,16,20.5,16z"/>
<path style="fill:#333333;" d="M13.5,21.5h-10C2.673,21.5,2,20.827,2,20V10c0-0.827,0.673-1.5,1.5-1.5h10c0.827,0,1.5,0.673,1.5,1.5
	v10C15,20.827,14.327,21.5,13.5,21.5z M3.5,9.5C3.224,9.5,3,9.724,3,10v10c0,0.275,0.224,0.5,0.5,0.5h10c0.275,0,0.5-0.225,0.5-0.5
	V10c0-0.276-0.225-0.5-0.5-0.5H3.5z"/>
<rect x="8" y="12.5" style="fill:#333333;" width="1" height="5"/>
<rect x="6" y="14.5" style="fill:#333333;" width="5" height="1"/>
</svg>






