<?xml version="1.0" encoding="iso-8859-1"?>
<svg version="1.1" id="&#x56FE;&#x5C42;_1" xmlns="http://www.w3.org/2000/svg" xmlns:xlink="http://www.w3.org/1999/xlink" x="0px"
	 y="0px" viewBox="0 0 24 24" style="enable-background:new 0 0 24 24;" xml:space="preserve">
<rect x="10.25" y="17.984" transform="matrix(0.9923 -0.124 0.124 0.9923 -2.3977 1.4878)" style="fill:#333333;" width="1" height="4.031"/>
<path style="fill:#333333;" d="M21.5,22.5H11l-0.376-0.829l3.352-3.831L12.434,5.5H21.5V22.5z M12.102,21.5H20.5v-15h-6.934
	l1.458,11.66L12.102,21.5z"/>
<rect x="14" y="13.5" style="fill:#333333;" width="2.5" height="1"/>
<rect x="13.5" y="9.5" style="fill:#333333;" width="3" height="1"/>
<path style="fill:#333333;" d="M15.066,18.5H2.5v-17h10.441L15.066,18.5z M3.5,17.5h10.434l-1.875-15H3.5V17.5z"/>
<rect x="6" y="5.5" style="fill:#333333;" width="3.5" height="1"/>
<rect x="6" y="9.5" style="fill:#333333;" width="4" height="1"/>
<rect x="6" y="13.5" style="fill:#333333;" width="4.5" height="1"/>
</svg>






