<?xml version="1.0" encoding="iso-8859-1"?>
<svg version="1.1" id="&#x56FE;&#x5C42;_1" xmlns="http://www.w3.org/2000/svg" xmlns:xlink="http://www.w3.org/1999/xlink" x="0px"
	 y="0px" viewBox="0 0 24 24" style="enable-background:new 0 0 24 24;" xml:space="preserve">
<path style="fill:#333333;" d="M14.308,20.839L13.44,20.5v-4.916c-1.524-0.198-3.143-0.116-4.819,0.239
	c-1.775,0.377-3.873,2.029-6.234,4.911l-0.884-0.367c0.351-3.459,1.692-6.393,3.987-8.718c2.192-2.222,4.865-3.416,7.951-3.553V3.5
	l0.858-0.349l8.391,8.612L14.308,20.839z M11.784,14.479c0.763,0,1.51,0.06,2.238,0.179l0.419,0.068v4.495l6.87-7.44l-6.87-7.052
	v4.35l-0.496,0.004c-3.022,0.024-5.627,1.123-7.743,3.268c-1.745,1.769-2.896,3.92-3.436,6.414c2.072-2.269,3.929-3.556,5.648-3.921
	C9.563,14.602,10.69,14.479,11.784,14.479z"/>
</svg>






