<?xml version="1.0" encoding="iso-8859-1"?>
<svg version="1.1" id="&#x56FE;&#x5C42;_1" xmlns="http://www.w3.org/2000/svg" xmlns:xlink="http://www.w3.org/1999/xlink" x="0px"
	 y="0px" viewBox="0 0 24 24" style="enable-background:new 0 0 24 24;" xml:space="preserve">
<path style="fill:#333333;" d="M19.5,21.5h-15c-1.103,0-2-0.897-2-2v-15c0-1.103,0.897-2,2-2h15c1.103,0,2,0.897,2,2v15
	C21.5,20.603,20.603,21.5,19.5,21.5z M4.5,3.5c-0.551,0-1,0.449-1,1v15c0,0.552,0.449,1,1,1h15c0.552,0,1-0.448,1-1v-15
	c0-0.551-0.448-1-1-1H4.5z"/>
<path style="fill:#333333;" d="M12.25,13C10.458,13,9,11.542,9,9.75s1.458-3.25,3.25-3.25s3.25,1.458,3.25,3.25S14.042,13,12.25,13z
	 M12.25,7.5C11.009,7.5,10,8.509,10,9.75S11.009,12,12.25,12c1.24,0,2.25-1.009,2.25-2.25S13.49,7.5,12.25,7.5z"/>
<path style="fill:#333333;" d="M12.25,17c-1.494,0-2.667-0.848-3.218-2.325l0.937-0.35C10.253,15.089,10.881,16,12.25,16
	c1.24,0,2.25-1.121,2.25-2.5V10h1v3.5C15.5,15.43,14.042,17,12.25,17z"/>
</svg>






