<?xml version="1.0" encoding="iso-8859-1"?>
<svg version="1.1" id="&#x56FE;&#x5C42;_1" xmlns="http://www.w3.org/2000/svg" xmlns:xlink="http://www.w3.org/1999/xlink" x="0px"
	 y="0px" viewBox="0 0 24 24" style="enable-background:new 0 0 24 24;" xml:space="preserve">
<path style="fill:#333333;" d="M10.5,21.5H9c-2.963,0-4.45,0-5.475-1.025C2.5,19.449,2.5,17.962,2.5,15V9
	c0-2.963,0-4.45,1.025-5.475C4.55,2.5,6.037,2.5,9,2.5h1.5V21.5z M9,3.5c-2.687,0-4.036,0-4.768,0.732C3.5,4.964,3.5,6.313,3.5,9v6
	c0,2.687,0,4.035,0.732,4.768C4.964,20.5,6.313,20.5,9,20.5h0.5v-17H9z"/>
<path style="fill:#333333;" d="M15,21.5h-1.5v-19H15c2.962,0,4.449,0,5.475,1.025C21.5,4.55,21.5,6.037,21.5,9v6
	c0,2.962,0,4.449-1.025,5.475S17.962,21.5,15,21.5z M14.5,20.5H15c2.687,0,4.035,0,4.768-0.732S20.5,17.687,20.5,15V9
	c0-2.687,0-4.036-0.732-4.768C19.035,3.5,17.687,3.5,15,3.5h-0.5V20.5z"/>
<rect x="17" y="6.5" style="fill:#333333;" width="1" height="1"/>
<rect x="6" y="16.5" style="fill:#333333;" width="1" height="1"/>
</svg>






