<?xml version="1.0" encoding="iso-8859-1"?>
<svg version="1.1" id="&#x56FE;&#x5C42;_1" xmlns="http://www.w3.org/2000/svg" xmlns:xlink="http://www.w3.org/1999/xlink" x="0px"
	 y="0px" viewBox="0 0 24 24" style="enable-background:new 0 0 24 24;" xml:space="preserve">
<path style="fill:#333333;" d="M12,22.5C6.21,22.5,1.5,17.79,1.5,12C1.5,6.21,6.21,1.5,12,1.5c5.79,0,10.5,4.71,10.5,10.5
	C22.5,17.79,17.79,22.5,12,22.5z M12,2.5c-5.238,0-9.5,4.262-9.5,9.5s4.262,9.5,9.5,9.5s9.5-4.262,9.5-9.5S17.238,2.5,12,2.5z"/>
<path style="fill:#333333;" d="M8.111,8.111L7.404,7.404C8.631,6.176,10.264,5.5,12,5.5c1.737,0,3.369,0.676,4.596,1.904
	l-0.707,0.707C14.851,7.072,13.47,6.5,12,6.5C10.531,6.5,9.15,7.072,8.111,8.111z"/>
<path style="fill:#333333;" d="M17.5,16.5h-11v-5h11V16.5z M7.5,15.5h9v-3h-9V15.5z"/>
<rect x="5.832" y="18.179" transform="matrix(0.0039 -1 1 0.0039 -10.2006 27.1169)" style="fill:#333333;" width="5.357" height="1"/>
<rect x="12.832" y="18.179" transform="matrix(0.0039 -1 1 0.0039 -3.2279 34.1169)" style="fill:#333333;" width="5.357" height="1"/>
</svg>






