<?xml version="1.0" encoding="iso-8859-1"?>
<svg version="1.1" id="&#x56FE;&#x5C42;_1" xmlns="http://www.w3.org/2000/svg" xmlns:xlink="http://www.w3.org/1999/xlink" x="0px"
	 y="0px" viewBox="0 0 24 24" style="enable-background:new 0 0 24 24;" xml:space="preserve">
<path style="fill:#333333;" d="M12.5,21h-1v-7.5h1V21z M21,12.5h-7.5v-1H21V12.5z"/>
<path style="fill:#333333;" d="M12,14c-1.103,0-2-0.897-2-2c0-1.103,0.897-2,2-2c1.103,0,2,0.897,2,2C14,13.103,13.103,14,12,14z
	 M12,11c-0.551,0-1,0.449-1,1c0,0.552,0.449,1,1,1c0.552,0,1-0.448,1-1C13,11.449,12.552,11,12,11z"/>
<path style="fill:#333333;" d="M3.5,21h-1v-9c0-5.238,4.262-9.5,9.5-9.5h9v1h-9c-4.687,0-8.5,3.813-8.5,8.5V21z"/>
</svg>






