<?xml version="1.0" encoding="iso-8859-1"?>
<svg version="1.1" id="&#x56FE;&#x5C42;_1" xmlns="http://www.w3.org/2000/svg" xmlns:xlink="http://www.w3.org/1999/xlink" x="0px"
	 y="0px" viewBox="0 0 24 24" style="enable-background:new 0 0 24 24;" xml:space="preserve">
<path style="fill:#333333;" d="M20,22.5H6c-0.827,0-1.5-0.673-1.5-1.5V3c0-0.827,0.673-1.5,1.5-1.5h14c0.827,0,1.5,0.673,1.5,1.5v18
	C21.5,21.827,20.827,22.5,20,22.5z M6,2.5C5.724,2.5,5.5,2.724,5.5,3v18c0,0.275,0.224,0.5,0.5,0.5h14c0.275,0,0.5-0.225,0.5-0.5V3
	c0-0.276-0.225-0.5-0.5-0.5H6z"/>
<rect x="16.5" y="3" style="fill:#333333;" width="1" height="18"/>
<rect x="3" y="6.5" style="fill:#333333;" width="4" height="1"/>
<rect x="3" y="11.5" style="fill:#333333;" width="4" height="1"/>
<rect x="3" y="16.5" style="fill:#333333;" width="4" height="1"/>
<rect x="13.5" y="1.5" style="fill:#333333;" width="6" height="1"/>
<rect x="13.5" y="21.5" style="fill:#333333;" width="6" height="1"/>
</svg>






