<?xml version="1.0" encoding="iso-8859-1"?>
<svg version="1.1" id="&#x56FE;&#x5C42;_1" xmlns="http://www.w3.org/2000/svg" xmlns:xlink="http://www.w3.org/1999/xlink" x="0px"
	 y="0px" viewBox="0 0 24 24" style="enable-background:new 0 0 24 24;" xml:space="preserve">
<path style="fill:#333333;" d="M19.5,22.5h-14c-0.551,0-1-0.448-1-1v-17c0-0.551,0.449-1,1-1H9v1H5.5v17h14v-17H16v-1h3.5
	c0.552,0,1,0.449,1,1v17C20.5,22.052,20.052,22.5,19.5,22.5z"/>
<path style="fill:#333333;" d="M15.5,7.5h-6c-0.551,0-1-0.449-1-1v-3h2V3c0-1.103,0.897-2,2-2c1.103,0,2,0.897,2,2v0.5h2v3
	C16.5,7.051,16.052,7.5,15.5,7.5z M9,6.5l0.5,0.001c0,0,0-0.001,0-0.001H9z M9.5,6.5h6v-2h-1.976L13.5,3c0-0.551-0.448-1-1-1
	c-0.551,0-1,0.449-1,1v1.475L10.975,4.5H9.5V6.5z"/>
</svg>






