<?xml version="1.0" encoding="iso-8859-1"?>
<svg version="1.1" id="&#x56FE;&#x5C42;_1" xmlns="http://www.w3.org/2000/svg" xmlns:xlink="http://www.w3.org/1999/xlink" x="0px"
	 y="0px" viewBox="0 0 24 24" style="enable-background:new 0 0 24 24;" xml:space="preserve">
<rect x="2" y="21.5" style="fill:#333333;" width="20" height="1"/>
<rect x="6" y="6.5" style="fill:#333333;" width="12" height="1"/>
<path style="fill:#333333;" d="M20.553,22.5H3.448l0.499-4.995c0.041-0.406,0.127-0.808,0.255-1.192l1.667-5.001
	c0.093-0.279,0.159-0.57,0.196-0.865L6.559,6.5h10.883l0.493,3.947c0.037,0.292,0.103,0.583,0.196,0.866l1.667,5
	c0.129,0.387,0.215,0.787,0.255,1.192L20.553,22.5z M4.552,21.5h14.895l-0.389-3.896c-0.034-0.331-0.104-0.659-0.21-0.976
	l-1.667-5.001c-0.114-0.345-0.194-0.7-0.239-1.057L16.559,7.5H7.441l-0.384,3.071c-0.045,0.36-0.126,0.716-0.24,1.058l-1.667,5
	c-0.105,0.315-0.175,0.644-0.208,0.976L4.552,21.5z"/>
<path style="fill:#333333;" d="M12.354,4.354l-0.707-0.707l0.414-0.414C12.533,2.76,13.16,2.5,13.828,2.5h0.344
	c0.395,0,0.781-0.16,1.061-0.439l0.414-0.414l0.707,0.707l-0.414,0.414C15.467,3.24,14.84,3.5,14.172,3.5h-0.344
	c-0.395,0-0.781,0.16-1.061,0.439L12.354,4.354z"/>
<path style="fill:#333333;" d="M10.44,19.185c-0.506-0.215-0.956-0.525-1.335-0.925C8.393,17.514,8,16.533,8,15.5h1
	c0,0.774,0.294,1.51,0.829,2.07c0.286,0.299,0.623,0.533,1.002,0.694L10.44,19.185z"/>
<path style="fill:#333333;" d="M13.56,19.185l-0.391-0.92c0.38-0.161,0.717-0.396,1.002-0.694C14.706,17.011,15,16.275,15,15.5h1
	c0,1.033-0.393,2.014-1.105,2.761C14.516,18.658,14.066,18.97,13.56,19.185z"/>
<path style="fill:#333333;" d="M9.829,13.431l-0.724-0.691C9.868,11.94,10.896,11.5,12,11.5c1.104,0,2.133,0.44,2.896,1.24
	l-0.725,0.689C13.028,12.23,10.974,12.229,9.829,13.431z"/>
<circle style="fill:#333333;" cx="12" cy="15.5" r="1"/>
</svg>






