<?xml version="1.0" encoding="iso-8859-1"?>
<svg version="1.1" id="&#x56FE;&#x5C42;_1" xmlns="http://www.w3.org/2000/svg" xmlns:xlink="http://www.w3.org/1999/xlink" x="0px"
	 y="0px" viewBox="0 0 24 24" style="enable-background:new 0 0 24 24;" xml:space="preserve">
<path style="fill:#333333;" d="M18.395,6.977c-0.177,0-0.324-0.045-0.428-0.151l-0.142-0.139c-1.084-1.066-1.442-1.524-1.295-1.972
	l0.043-0.131l0.104-0.09c0.441-0.383,1.1-1.084,1.492-1.502c0.143-0.152,0.257-0.273,0.325-0.342l0.269-0.272l0.332,0.188
	c0.731,0.412,2.464,1.402,2.746,1.688c0.175,0.178,0.208,0.446,0.084,0.683c-0.047,0.09-0.116,0.178-0.217,0.277
	C21.685,5.235,19.484,6.977,18.395,6.977z M18.672,6.116l0.007,0.007C18.676,6.121,18.674,6.119,18.672,6.116z M17.608,4.997
	c0.137,0.174,0.405,0.471,0.917,0.975C19.009,5.82,20.2,5.14,20.768,4.709c-0.401-0.253-1.078-0.656-1.825-1.082
	c-0.014,0.016-0.029,0.032-0.044,0.048C18.544,4.052,18.042,4.587,17.608,4.997z"/>
<path style="fill:#333333;" d="M9.828,22.248c-2.196,0-4.221-0.835-5.638-2.377c-1.25-1.361-1.933-3.188-1.922-5.142l0.003-0.626
	l0.61,0.142c0.088,0.021,0.182,0.031,0.278,0.031c0.693,0,1.257-0.563,1.257-1.257c0-0.592-0.419-1.109-0.997-1.23l-0.604-0.126
	l0.249-0.565c0.529-1.201,1.289-2.287,2.259-3.228l0.846,0.314l0.028,0.227c0.146,1.081,1.042,1.914,2.13,1.98
	c1.274,0.078,2.398,0.897,2.864,2.087l0.045,0.115c0.3,0.768,0.96,1.336,1.766,1.52l0.841,0.19c0.732,0.166,1.345,0.678,1.638,1.369
	c0.354,0.835,1.32,1.281,2.195,1.016l0.567,0.745c-0.491,0.779-1.09,1.495-1.779,2.128c-1.378,1.267-3.034,2.129-4.789,2.493
	C11.053,22.185,10.434,22.248,9.828,22.248z M3.284,15.273c0.1,1.508,0.663,2.854,1.642,3.922c1.567,1.705,4.015,2.408,6.545,1.881
	c1.579-0.328,3.071-1.106,4.317-2.251c0.364-0.335,0.701-0.696,1.007-1.079c-0.968-0.119-1.834-0.737-2.234-1.683
	c-0.169-0.396-0.52-0.689-0.938-0.785l-0.842-0.19c-1.129-0.257-2.054-1.053-2.476-2.131l-0.045-0.115
	c-0.324-0.827-1.106-1.398-1.994-1.452c-1.312-0.081-2.43-0.936-2.879-2.127c-0.463,0.544-0.858,1.133-1.179,1.759
	c0.725,0.383,1.208,1.147,1.208,1.998C5.416,14.222,4.471,15.208,3.284,15.273z"/>
<path style="fill:#333333;" d="M17.151,17.768c-0.357,0-0.716-0.069-1.059-0.207c-0.698-0.279-1.242-0.811-1.532-1.496
	c-0.169-0.397-0.52-0.69-0.938-0.786l-0.842-0.19c-1.129-0.257-2.054-1.054-2.475-2.131l-0.045-0.113
	c-0.324-0.829-1.107-1.399-1.994-1.454c-1.564-0.096-2.851-1.292-3.06-2.845L5.191,8.429C5.052,7.401,5.378,6.378,6.086,5.622
	l0.126-0.135c1.187-1.268,2.792-2.06,4.52-2.23l0.703-0.069c1.312-0.131,2.658,0.057,3.889,0.54c1.43,0.561,2.678,1.503,3.607,2.723
	l0.126,0.165c1.099,1.44,1.739,3.156,1.854,4.962l0.054,0.846c0.024,0.397,0.006,0.798-0.055,1.191l-0.104,0.665
	c-0.224,1.431-1.196,2.678-2.538,3.254C17.909,17.689,17.531,17.768,17.151,17.768z M6.942,6.17L6.816,6.305
	C6.315,6.841,6.083,7.566,6.182,8.294l0.016,0.115c0.146,1.083,1.042,1.916,2.13,1.982c1.274,0.079,2.398,0.897,2.864,2.086
	l0.045,0.114c0.3,0.77,0.96,1.338,1.766,1.521l0.841,0.19c0.732,0.165,1.345,0.678,1.638,1.37c0.187,0.438,0.536,0.779,0.984,0.959
	c0.459,0.183,0.957,0.178,1.407-0.016c1.029-0.442,1.774-1.396,1.945-2.491l0.104-0.665c0.05-0.32,0.065-0.648,0.045-0.974
	l-0.054-0.845c-0.103-1.608-0.674-3.136-1.651-4.419l-0.126-0.165c-0.819-1.075-1.918-1.905-3.178-2.399
	c-1.084-0.425-2.273-0.588-3.425-0.476L10.83,4.252C9.344,4.399,7.963,5.08,6.942,6.17z"/>
</svg>






