<?xml version="1.0" encoding="iso-8859-1"?>
<svg version="1.1" id="&#x56FE;&#x5C42;_1" xmlns="http://www.w3.org/2000/svg" xmlns:xlink="http://www.w3.org/1999/xlink" x="0px"
	 y="0px" viewBox="0 0 24 24" style="enable-background:new 0 0 24 24;" xml:space="preserve">
<path style="fill:#333333;" d="M15.575,22h-7.15c-0.405,0-0.798-0.167-1.08-0.458L2.42,16.438C2.149,16.156,2,15.787,2,15.396V8.604
	c0-0.391,0.149-0.76,0.42-1.042l4.925-5.104C7.626,2.167,8.02,2,8.425,2h7.15c0.405,0,0.799,0.167,1.079,0.458l4.925,5.104
	C21.851,7.844,22,8.213,22,8.604v6.792c0,0.391-0.149,0.76-0.42,1.041l-4.926,5.104C16.374,21.833,15.98,22,15.575,22z
	 M8.065,20.847C8.159,20.944,8.29,21,8.425,21h7.15c0.135,0,0.267-0.056,0.36-0.153l4.925-5.104C20.95,15.65,21,15.526,21,15.396
	V8.604c0-0.13-0.05-0.254-0.141-0.348l-4.924-5.103C15.842,3.056,15.71,3,15.575,3h-7.15C8.29,3,8.159,3.056,8.065,3.153L3.14,8.256
	C3.05,8.35,3,8.474,3,8.604v6.792c0,0.13,0.05,0.254,0.14,0.348L8.065,20.847z"/>
</svg>






