<?xml version="1.0" encoding="iso-8859-1"?>
<svg version="1.1" id="&#x56FE;&#x5C42;_1" xmlns="http://www.w3.org/2000/svg" xmlns:xlink="http://www.w3.org/1999/xlink" x="0px"
	 y="0px" viewBox="0 0 24 24" style="enable-background:new 0 0 24 24;" xml:space="preserve">
<path style="fill:#333333;" d="M19.5,21.5h-15v-19h15V21.5z M5.5,20.5h13v-17h-13V20.5z"/>
<path style="fill:#333333;" d="M11.887,15.5c-0.848,0-1.676-0.566-2.111-1.444c-0.417-0.843-0.362-1.745,0.147-2.414
	c0.683-0.897,1.217-2.159,1.503-2.836l0.862-0.103c0.542,0.731,1.699,2.538,2.078,3.534c0.254,0.67,0.142,1.43-0.311,2.086
	C13.556,15.049,12.725,15.5,11.887,15.5z M11.987,10.023c-0.317,0.695-0.747,1.54-1.268,2.224l0,0
	c-0.274,0.36-0.292,0.87-0.047,1.365c0.263,0.531,0.751,0.888,1.215,0.888c0.513,0,1.029-0.286,1.346-0.746
	c0.263-0.381,0.335-0.804,0.198-1.162C13.182,11.934,12.519,10.83,11.987,10.023z"/>
<rect x="3" y="2.5" style="fill:#333333;" width="18" height="1"/>
<rect x="3" y="20.5" style="fill:#333333;" width="18" height="1"/>
<rect x="3" y="11.5" style="fill:#333333;" width="2" height="1"/>
<rect x="19" y="11.5" style="fill:#333333;" width="2" height="1"/>
</svg>






