<?xml version="1.0" encoding="iso-8859-1"?>
<svg version="1.1" id="&#x56FE;&#x5C42;_1" xmlns="http://www.w3.org/2000/svg" xmlns:xlink="http://www.w3.org/1999/xlink" x="0px"
	 y="0px" viewBox="0 0 24 24" style="enable-background:new 0 0 24 24;" xml:space="preserve">
<path style="fill:#333333;" d="M21,21H3c-0.827,0-1.5-0.673-1.5-1.5v-15C1.5,3.673,2.173,3,3,3h18c0.827,0,1.5,0.673,1.5,1.5v15
	C22.5,20.327,21.827,21,21,21z M3,4C2.724,4,2.5,4.224,2.5,4.5v15C2.5,19.775,2.724,20,3,20h18c0.275,0,0.5-0.225,0.5-0.5v-15
	C21.5,4.224,21.275,4,21,4H3z"/>
<polygon style="fill:#333333;" points="8.5,15 7.5,15 7.5,9.917 6.271,10.71 5.729,9.87 7.729,8.58 8.5,9 "/>
<polygon style="fill:#333333;" points="18,15 17,15 17,9.917 15.771,10.71 15.229,9.87 17.229,8.58 18,9 "/>
<rect x="11.5" y="10" style="fill:#333333;" width="1" height="0.5"/>
<rect x="11.5" y="13.5" style="fill:#333333;" width="1" height="0.5"/>
</svg>






