<?xml version="1.0" encoding="iso-8859-1"?>
<svg version="1.1" id="&#x56FE;&#x5C42;_1" xmlns="http://www.w3.org/2000/svg" xmlns:xlink="http://www.w3.org/1999/xlink" x="0px"
	 y="0px" viewBox="0 0 24 24" style="enable-background:new 0 0 24 24;" xml:space="preserve">
<path style="fill:#333333;" d="M11.5,22.5c-4.191,0-6.024-1.431-6.447-2.276L5.046,20.21l-2.03-4.398
	c-0.652-1.415-0.099-3.118,1.261-3.877l5.628-3.146c0.69-0.385,1.543-0.328,2.176,0.146l0.514,0.386l0.595-5.747
	c0.054-0.529,0.323-1.023,0.739-1.355l0.109-0.087c0.569-0.455,1.389-0.411,1.906,0.106C16.302,2.595,16.5,3.072,16.5,3.58v11.13
	l1.688-1.351c0.822-0.657,2.023-0.585,3.215,0.195c0.214,0.141,0.357,0.357,0.402,0.61c0.048,0.262-0.018,0.537-0.179,0.756
	l-3.974,5.376C17.549,20.418,15.679,22.5,11.5,22.5z M5.95,19.782C6.184,20.234,7.687,21.5,11.5,21.5
	c3.729,0,5.357-1.811,5.374-1.829l3.947-5.344c-0.271-0.135-1.318-0.742-2.009-0.187l-1.688,1.351
	c-0.304,0.242-0.708,0.286-1.059,0.12c-0.35-0.169-0.566-0.514-0.566-0.901V3.58c0-0.24-0.094-0.466-0.264-0.635
	c-0.155-0.156-0.403-0.169-0.575-0.032l-0.109,0.087c-0.207,0.166-0.342,0.413-0.369,0.677l-0.595,5.747
	c-0.037,0.363-0.26,0.667-0.594,0.813c-0.334,0.146-0.708,0.104-1-0.116L11.48,9.735c-0.316-0.237-0.743-0.266-1.088-0.073
	l-5.628,3.146c-0.907,0.506-1.275,1.642-0.84,2.585L5.95,19.782z"/>
</svg>






