<?xml version="1.0" encoding="iso-8859-1"?>
<svg version="1.1" id="&#x56FE;&#x5C42;_1" xmlns="http://www.w3.org/2000/svg" xmlns:xlink="http://www.w3.org/1999/xlink" x="0px"
	 y="0px" viewBox="0 0 24 24" style="enable-background:new 0 0 24 24;" xml:space="preserve">
<path style="fill:#333333;" d="M13.5,22.5h-3c-2.28,0-4-1.72-4-4V11H3.128L1.419,5.304l0.287-0.208C2.705,4.37,6.398,2,12,2
	c3.749,0,7.207,1.038,10.276,3.083l0.309,0.205L20.872,11H17.5v7.5C17.5,20.78,15.78,22.5,13.5,22.5z M3.872,10H7.5v8.5
	c0,1.71,1.29,3,3,3h3c1.71,0,3-1.29,3-3V10h3.628l1.286-4.286C18.588,3.913,15.423,3,12,3C7.144,3,3.826,4.866,2.583,5.703L3.872,10
	z"/>
<path style="fill:#333333;" d="M13,22h-1c0-5.438,4.95-5.5,5-5.5l0.002,1C16.838,17.501,13,17.575,13,22z"/>
<path style="fill:#333333;" d="M12,22h-1c0-4.449-3.837-4.5-4-4.5v-1C7.05,16.5,12,16.562,12,22z"/>
<path style="fill:#333333;" d="M12,7c-1.93,0-3.5-1.57-3.5-3.5c0-0.297,0.037-0.591,0.111-0.875l0.968,0.25
	C9.526,3.077,9.5,3.288,9.5,3.5C9.5,4.878,10.622,6,12,6c1.379,0,2.5-1.122,2.5-2.5c0-0.211-0.026-0.421-0.079-0.625l0.969-0.249
	c0.073,0.286,0.11,0.58,0.11,0.875C15.5,5.43,13.93,7,12,7z"/>
<path style="fill:#333333;" d="M6.136,3.968L5.81,3.022c3.931-1.355,8.44-1.358,12.354,0l-0.328,0.944
	C14.133,2.682,9.854,2.685,6.136,3.968z"/>
<rect x="6.5" y="15.5" style="fill:#333333;" width="1" height="3"/>
<rect x="16.5" y="15.5" style="fill:#333333;" width="1" height="3"/>
<rect x="10.5" y="21.5" style="fill:#333333;" width="3" height="1"/>
</svg>






