<?xml version="1.0" encoding="iso-8859-1"?>
<svg version="1.1" id="&#x56FE;&#x5C42;_1" xmlns="http://www.w3.org/2000/svg" xmlns:xlink="http://www.w3.org/1999/xlink" x="0px"
	 y="0px" viewBox="0 0 24 24" style="enable-background:new 0 0 24 24;" xml:space="preserve">
<path style="fill:#333333;" d="M21.5,9h-1V4.5c0-0.551-0.448-1-1-1h-15c-0.551,0-1,0.449-1,1V9h-1V4.5c0-1.103,0.897-2,2-2h15
	c1.103,0,2,0.897,2,2V9z"/>
<rect x="9.077" y="9.25" transform="matrix(0.6782 -0.7349 0.7349 0.6782 -2.8207 13.0584)" style="fill:#333333;" width="8.846" height="1"/>
<rect x="13.5" y="10.086" transform="matrix(0.7071 -0.7071 0.7071 0.7071 -4.0312 13.2678)" style="fill:#333333;" width="1" height="2.828"/>
<rect x="16" y="7.586" transform="matrix(0.7071 -0.7071 0.7071 0.7071 -1.5312 14.3033)" style="fill:#333333;" width="1" height="2.828"/>
<path style="fill:#333333;" d="M19.5,21.5h-15c-1.103,0-2-0.897-2-2V15h1v4.5c0,0.552,0.449,1,1,1h15c0.552,0,1-0.448,1-1V15h1v4.5
	C21.5,20.603,20.603,21.5,19.5,21.5z"/>
<path style="fill:#333333;" d="M9,18c-1.654,0-3-1.346-3-3s1.346-3,3-3s3,1.346,3,3S10.654,18,9,18z M9,13c-1.103,0-2,0.897-2,2
	s0.897,2,2,2s2-0.897,2-2S10.103,13,9,13z"/>
</svg>






