<?xml version="1.0" encoding="iso-8859-1"?>
<svg version="1.1" id="&#x56FE;&#x5C42;_1" xmlns="http://www.w3.org/2000/svg" xmlns:xlink="http://www.w3.org/1999/xlink" x="0px"
	 y="0px" viewBox="0 0 24 24" style="enable-background:new 0 0 24 24;" xml:space="preserve">
<path style="fill:#333333;" d="M20.42,20.5h-4.102c-0.71,0-1.329-0.506-1.471-1.202l-1.578-7.812l-0.211-2.109
	c-0.052-0.535,0.188-1.061,0.626-1.371l6.404-4.545c0.339-0.24,0.762-0.32,1.164-0.219c0.401,0.101,0.737,0.37,0.922,0.74
	c0.256,0.51,0.181,1.121-0.19,1.555L20.88,6.826l-2.617,3.491c-0.112,0.149-0.132,0.347-0.053,0.515l3.565,7.526
	c0.222,0.467,0.188,1.007-0.088,1.443C21.411,20.239,20.938,20.5,20.42,20.5z M20.906,4.199c-0.069,0-0.154,0.017-0.239,0.078
	l-6.404,4.545c-0.146,0.104-0.226,0.278-0.208,0.457l0.203,2.059l1.57,7.762c0.047,0.231,0.253,0.4,0.49,0.4h4.102
	c0.175,0,0.329-0.085,0.423-0.232c0.093-0.147,0.104-0.323,0.028-0.481l-3.565-7.527c-0.238-0.505-0.178-1.096,0.156-1.542L20.1,6.2
	l1.125-1.314c0.109-0.127,0.131-0.306,0.056-0.457c-0.074-0.149-0.201-0.2-0.271-0.218C20.983,4.206,20.948,4.199,20.906,4.199z"/>
<rect x="13.93" y="10.5" transform="matrix(0.9614 -0.2752 0.2752 0.9614 -2.4193 4.7598)" style="fill:#333333;" width="3.64" height="1.001"/>
<path style="fill:#333333;" d="M7.661,20.5H3.58c-0.517,0-0.991-0.261-1.268-0.698c-0.276-0.437-0.31-0.977-0.088-1.443l3.558-7.512
	c0.082-0.173,0.059-0.374-0.06-0.524L3.107,7.004l-1.083-1.24C1.646,5.33,1.57,4.717,1.832,4.203
	C2.016,3.84,2.349,3.575,2.744,3.476c0.395-0.1,0.813-0.021,1.147,0.212l6.363,4.454c0.485,0.339,0.726,0.934,0.613,1.515
	l-0.376,1.939l-1.353,7.666C9.011,19.979,8.39,20.5,7.661,20.5z M3.087,4.434c-0.041,0-0.076,0.006-0.101,0.012
	c-0.067,0.017-0.19,0.066-0.263,0.209C2.647,4.804,2.669,4.981,2.779,5.107l1.098,1.259l2.632,3.337
	c0.355,0.451,0.423,1.053,0.177,1.571l-3.558,7.512c-0.075,0.158-0.064,0.333,0.03,0.481C3.251,19.415,3.405,19.5,3.58,19.5h4.081
	c0.243,0,0.45-0.174,0.493-0.413l1.732-9.621c0.038-0.193-0.043-0.392-0.205-0.505L3.318,4.507C3.236,4.45,3.154,4.434,3.087,4.434z
	"/>
<rect x="7.75" y="9.18" transform="matrix(0.2747 -0.9615 0.9615 0.2747 -4.5932 15.9106)" style="fill:#333333;" width="1" height="3.64"/>
</svg>






