<?xml version="1.0" encoding="iso-8859-1"?>
<svg version="1.1" id="&#x56FE;&#x5C42;_1" xmlns="http://www.w3.org/2000/svg" xmlns:xlink="http://www.w3.org/1999/xlink" x="0px"
	 y="0px" viewBox="0 0 24 24" style="enable-background:new 0 0 24 24;" xml:space="preserve">
<path style="fill:#333333;" d="M13.206,19.205l-0.943-0.095l-1.169-5.143l-5.635-0.47l-0.217-0.926l4.949-2.991L9.011,4.105
	l0.821-0.479l4.229,3.758l4.703-2.761l0.707,0.641l-2.361,5.108l4.223,3.753l-0.374,0.872l-5.647-0.471L13.206,19.205z M7.079,12.63
	l4.827,0.402l1,4.401l1.783-3.961l4.857,0.404l-3.656-3.25l2.002-4.333l-3.953,2.321L10.311,5.39l1.007,4.679L7.079,12.63z"/>
<rect x="2.443" y="16.755" transform="matrix(0.7066 -0.7076 0.7076 0.7066 -9.9358 10.5461)" style="fill:#333333;" width="10.614" height="1.001"/>
</svg>






