<?xml version="1.0" encoding="iso-8859-1"?>
<svg version="1.1" id="&#x56FE;&#x5C42;_1" xmlns="http://www.w3.org/2000/svg" xmlns:xlink="http://www.w3.org/1999/xlink" x="0px"
	 y="0px" viewBox="0 0 24 24" style="enable-background:new 0 0 24 24;" xml:space="preserve">
<g>
	<defs>
		<rect id="SVGID_1_" width="24" height="24"/>
	</defs>
	<clipPath id="SVGID_00000080189977640786869380000014165886774764608144_">
		<use xlink:href="#SVGID_1_"  style="overflow:visible;"/>
	</clipPath>
	<g style="clip-path:url(#SVGID_00000080189977640786869380000014165886774764608144_);">
		<path style="fill:#333333;" d="M9.651,20.995c-2.817,0-5.634-1.072-7.778-3.217l-0.354-0.354L17.075,1.868l0.354,0.354
			c4.289,4.289,4.289,11.268,0,15.557C15.284,19.923,12.468,20.995,9.651,20.995z M2.942,17.416c3.92,3.552,10,3.437,13.78-0.345
			c3.78-3.78,3.896-9.86,0.345-13.78L2.942,17.416z"/>
		
			<rect x="12.863" y="8.462" transform="matrix(0.7071 -0.7071 0.7071 0.7071 -5.7823 13.4652)" style="fill:#333333;" width="1" height="10.5"/>
		<rect x="9.151" y="10" style="fill:#333333;" width="1" height="10.606"/>
		
			<rect x="14.277" y="5.047" transform="matrix(0.0345 -0.9994 0.9994 0.0345 4.0971 24.5944)" style="fill:#333333;" width="1" height="10.259"/>
		<path style="fill:#333333;" d="M9.702,20.983c-0.872,0-1.752-0.104-2.627-0.314l0.235-0.973c3.418,0.825,6.947-0.161,9.434-2.647
			c2.485-2.485,3.476-6.012,2.646-9.433l0.973-0.235c0.911,3.762-0.178,7.641-2.912,10.375
			C15.353,19.854,12.579,20.983,9.702,20.983z"/>
		
			<rect x="6.297" y="9.854" transform="matrix(0.7071 -0.7071 0.7071 0.7071 -4.598 9.6065)" style="fill:#333333;" width="6" height="1"/>
	</g>
</g>
</svg>






