<?xml version="1.0" encoding="iso-8859-1"?>
<svg version="1.1" id="&#x56FE;&#x5C42;_1" xmlns="http://www.w3.org/2000/svg" xmlns:xlink="http://www.w3.org/1999/xlink" x="0px"
	 y="0px" viewBox="0 0 24 24" style="enable-background:new 0 0 24 24;" xml:space="preserve">
<path style="fill:#333333;" d="M12,22.5c-5.383,0-9-3.817-9-9.5c0-1.879,0.548-3.695,1.583-5.253
	c1.408-2.118,3.284-1.988,5.454-1.835c1.249,0.087,2.678,0.087,3.926,0c2.174-0.15,4.047-0.281,5.453,1.835
	C20.452,9.306,21,11.122,21,13C21,18.683,17.383,22.5,12,22.5z M8.442,6.835c-1.275,0-2.229,0.267-3.026,1.465
	C4.49,9.694,4,11.319,4,13c0,5.163,3.14,8.5,8,8.5c4.859,0,8-3.337,8-8.5c0-1.68-0.49-3.306-1.416-4.7
	c-1.086-1.633-2.464-1.537-4.551-1.391c-1.283,0.089-2.783,0.089-4.066,0C9.412,6.87,8.906,6.835,8.442,6.835z"/>
<polygon style="fill:#333333;" points="13.4,6.8 12.6,6.2 13.5,5 12.793,5 12,4.207 11.207,5 10.5,5 11.4,6.2 10.6,6.8 9.1,4.8 
	9.5,4 10.793,4 12,2.793 13.207,4 14.5,4 14.9,4.8 "/>
<circle style="fill:#333333;" cx="9" cy="10" r="1"/>
<circle style="fill:#333333;" cx="7.5" cy="13.5" r="1"/>
<circle style="fill:#333333;" cx="10.5" cy="12.5" r="1"/>
<circle style="fill:#333333;" cx="9" cy="16" r="1"/>
</svg>






