<?xml version="1.0" encoding="iso-8859-1"?>
<svg version="1.1" id="&#x56FE;&#x5C42;_1" xmlns="http://www.w3.org/2000/svg" xmlns:xlink="http://www.w3.org/1999/xlink" x="0px"
	 y="0px" viewBox="0 0 24 24" style="enable-background:new 0 0 24 24;" xml:space="preserve">
<rect x="4" y="2" style="fill:#333333;" width="1" height="4.5"/>
<rect x="3" y="6" style="fill:#333333;" width="3" height="1"/>
<rect x="3" y="13" style="fill:#333333;" width="3" height="1"/>
<path style="fill:#333333;" d="M3.248,13.935l-0.497-0.868c0.832-0.477,2.221-1.529,2.408-2.325
	c0.042-0.179,0.019-0.322-0.076-0.464c-0.183-0.274-0.382-0.418-0.608-0.441c-0.441-0.044-0.974,0.369-1.122,0.517L2.646,9.646
	c0.093-0.093,0.927-0.903,1.928-0.805c0.369,0.037,0.9,0.219,1.342,0.881c0.247,0.371,0.322,0.803,0.217,1.25
	C5.785,12.448,3.507,13.786,3.248,13.935z"/>
<path style="fill:#333333;" d="M4.473,22.092c-0.354,0-0.703-0.094-1.034-0.282c-0.525-0.301-0.823-0.733-0.855-0.782l0.832-0.555
	c0.122,0.178,0.788,1.041,1.807,0.361c0.284-0.189,0.433-0.386,0.443-0.586c0.02-0.364-0.378-0.774-0.486-0.864L4.719,19
	l0.461-0.384c0.131-0.112,0.507-0.514,0.486-0.866c-0.012-0.199-0.161-0.396-0.443-0.584c-1.054-0.703-1.732,0.251-1.807,0.361
	l-0.832-0.555c0.032-0.049,0.331-0.481,0.855-0.782c0.737-0.42,1.567-0.37,2.338,0.144c0.698,0.465,0.868,0.999,0.887,1.364
	C6.693,18.234,6.429,18.695,6.188,19c0.242,0.305,0.506,0.766,0.477,1.302c-0.02,0.365-0.189,0.899-0.887,1.364
	C5.352,21.949,4.909,22.092,4.473,22.092z"/>
<rect x="4.5" y="18.5" style="fill:#333333;" width="1" height="1"/>
<rect x="2.849" y="2" transform="matrix(0.8321 -0.5547 0.5547 0.8321 -0.7569 2.5)" style="fill:#333333;" width="1.803" height="1"/>
<rect x="10.5" y="11.5" style="fill:#333333;" width="11" height="1"/>
<rect x="10.5" y="18.5" style="fill:#333333;" width="11" height="1"/>
<rect x="10.5" y="4.5" style="fill:#333333;" width="11" height="1"/>
</svg>






