<?xml version="1.0" encoding="iso-8859-1"?>
<svg version="1.1" id="&#x56FE;&#x5C42;_1" xmlns="http://www.w3.org/2000/svg" xmlns:xlink="http://www.w3.org/1999/xlink" x="0px"
	 y="0px" viewBox="0 0 24 24" style="enable-background:new 0 0 24 24;" xml:space="preserve">
<path style="fill:#333333;" d="M7.85,22.048c-0.338,0-0.657-0.109-0.935-0.324c-0.347-0.293-0.96-0.812-0.916-9.474
	C3.488,10.371,2.911,9.697,2.29,8.445C1.85,7.558,1.86,5.314,2.876,3.676C3.69,2.364,4.978,1.671,6.6,1.671
	c2.584,0,4.676,1.331,6.232,3.959c0.562-1.896,1.372-3.073,2.459-3.582c0.903-0.424,2.269-0.823,3.648-0.32
	c1.143,0.418,2.065,1.375,2.744,2.846c1.111,2.407-0.296,4.993-4.183,7.69v9.235l-0.769,0.422l-5.072-3.234
	c-1.411,2.104-2.54,3.168-3.536,3.338C8.032,22.04,7.94,22.048,7.85,22.048z M6.6,2.671c-1.276,0-2.243,0.516-2.874,1.532
	C2.891,5.55,2.901,7.428,3.185,8.001c0.52,1.048,0.966,1.629,3.614,3.598l0.203,0.151L7,12.003c-0.049,7.609,0.415,8.78,0.558,8.957
	c0.1,0.074,0.233,0.107,0.398,0.079c0.418-0.071,1.381-0.597,3.137-3.311l0.27-0.417l5.137,3.275v-8.852l0.219-0.148
	c3.587-2.435,4.952-4.653,4.056-6.594c-0.562-1.22-1.296-2.002-2.18-2.325c-1.053-0.384-2.149-0.056-2.881,0.286
	c-0.995,0.467-1.744,1.869-2.226,4.169l-0.941,0.11C11.105,4.163,9.16,2.671,6.6,2.671z"/>
<rect x="13" y="12.5" style="fill:#333333;" width="1" height="3"/>
</svg>






