<?xml version="1.0" encoding="iso-8859-1"?>
<svg version="1.1" id="&#x56FE;&#x5C42;_1" xmlns="http://www.w3.org/2000/svg" xmlns:xlink="http://www.w3.org/1999/xlink" x="0px"
	 y="0px" viewBox="0 0 24 24" style="enable-background:new 0 0 24 24;" xml:space="preserve">
<path style="fill:#333333;" d="M12.106,22.691c-0.384,0-0.768-0.146-1.061-0.438l-9.192-9.192c-0.585-0.585-0.585-1.536,0-2.121
	l9.192-9.192c0.584-0.584,1.536-0.585,2.121,0l9.192,9.192c0.585,0.585,0.585,1.536,0,2.121l-9.192,9.192
	C12.875,22.545,12.49,22.691,12.106,22.691z M12.106,2.308c-0.128,0-0.256,0.048-0.354,0.146l-9.192,9.192
	c-0.195,0.195-0.195,0.512,0,0.707l9.192,9.192c0.195,0.195,0.512,0.195,0.707,0l9.192-9.192c0.195-0.195,0.195-0.512,0-0.707
	L12.46,2.454C12.362,2.356,12.234,2.308,12.106,2.308z"/>
<rect x="9" y="11.5" style="fill:#333333;" width="6" height="1"/>
<rect x="11.5" y="9" style="fill:#333333;" width="1" height="6"/>
</svg>






