<?xml version="1.0" encoding="iso-8859-1"?>
<svg version="1.1" id="&#x56FE;&#x5C42;_1" xmlns="http://www.w3.org/2000/svg" xmlns:xlink="http://www.w3.org/1999/xlink" x="0px"
	 y="0px" viewBox="0 0 24 24" style="enable-background:new 0 0 24 24;" xml:space="preserve">
<path style="fill:#333333;" d="M22,21.5H1.235L8.542,4.8l0.919,0.008l4.487,10.768l1.577-4.733l0.903-0.099l6,10L22,21.5z
	 M2.765,20.5h18.353l-4.986-8.311l-1.656,4.969l-0.937,0.034L8.989,6.273L2.765,20.5z"/>
<path style="fill:#333333;" d="M18.5,7.5c-1.654,0-3-1.346-3-3s1.346-3,3-3s3,1.346,3,3S20.154,7.5,18.5,7.5z M18.5,2.5
	c-1.103,0-2,0.897-2,2s0.897,2,2,2s2-0.897,2-2S19.603,2.5,18.5,2.5z"/>
</svg>






