<?xml version="1.0" encoding="iso-8859-1"?>
<svg version="1.1" id="&#x56FE;&#x5C42;_1" xmlns="http://www.w3.org/2000/svg" xmlns:xlink="http://www.w3.org/1999/xlink" x="0px"
	 y="0px" viewBox="0 0 24 24" style="enable-background:new 0 0 24 24;" xml:space="preserve">
<path style="fill:#333333;" d="M10.388,21.582C7.637,20.949,4.9,18.676,3.067,15.5c-1.383-2.396-2.077-5.007-1.953-7.352
	c0.128-2.424,1.11-4.286,2.765-5.241c2.326-1.342,5.524-0.611,8.346,1.906l-0.666,0.746C9.07,3.338,6.318,2.652,4.379,3.773
	C3.027,4.554,2.222,6.126,2.112,8.201C1.999,10.355,2.645,12.77,3.933,15c1.672,2.896,4.231,5.045,6.679,5.607L10.388,21.582z"/>
<path style="fill:#333333;" d="M12.027,21.744c-0.899,0-1.754-0.209-2.519-0.651C6.166,19.163,5.801,13.514,8.696,8.5l0,0
	c1.384-2.396,3.298-4.302,5.391-5.367c2.163-1.101,4.267-1.182,5.921-0.226c3.343,1.93,3.707,7.579,0.812,12.593
	C18.588,19.366,15.059,21.744,12.027,21.744z M9.562,9L9.562,9c-2.619,4.536-2.418,9.573,0.446,11.228
	c2.866,1.654,7.328-0.691,9.947-5.228c2.618-4.537,2.418-9.573-0.447-11.227c-1.354-0.782-3.117-0.689-4.968,0.251
	C12.618,5.002,10.85,6.77,9.562,9z"/>
</svg>






