<?xml version="1.0" encoding="iso-8859-1"?>
<svg version="1.1" id="&#x56FE;&#x5C42;_1" xmlns="http://www.w3.org/2000/svg" xmlns:xlink="http://www.w3.org/1999/xlink" x="0px"
	 y="0px" viewBox="0 0 24 24" style="enable-background:new 0 0 24 24;" xml:space="preserve">
<path style="fill:#333333;" d="M11.832,21.756c-1.067,0-2.212-0.297-3.374-0.889C6.365,19.803,4.45,17.896,3.067,15.5
	c-1.383-2.396-2.077-5.007-1.953-7.352c0.128-2.424,1.11-4.286,2.765-5.241c1.655-0.955,3.757-0.875,5.922,0.226
	c2.092,1.065,4.007,2.971,5.39,5.367c1.384,2.396,2.078,5.007,1.954,7.352c-0.128,2.425-1.11,4.286-2.766,5.241
	C13.613,21.535,12.751,21.756,11.832,21.756z M6.428,3.246c-0.747,0-1.44,0.175-2.049,0.527C3.027,4.554,2.222,6.126,2.112,8.201
	C1.999,10.355,2.645,12.77,3.933,15c1.288,2.23,3.055,3.998,4.978,4.977c1.852,0.942,3.617,1.031,4.968,0.251
	c1.353-0.781,2.157-2.354,2.267-4.428c0.114-2.154-0.533-4.569-1.82-6.8l0,0c-1.288-2.23-3.056-3.998-4.979-4.976
	C8.33,3.506,7.339,3.246,6.428,3.246z"/>
<path style="fill:#333333;" d="M12.027,21.744c-0.899,0-1.754-0.209-2.519-0.651C6.166,19.163,5.801,13.514,8.696,8.5l0,0
	c1.384-2.396,3.298-4.302,5.391-5.367c2.163-1.101,4.267-1.182,5.921-0.226c3.343,1.93,3.707,7.579,0.812,12.593
	C18.588,19.366,15.059,21.744,12.027,21.744z M9.562,9L9.562,9c-2.619,4.536-2.418,9.573,0.446,11.228
	c2.866,1.654,7.328-0.691,9.947-5.228c2.618-4.537,2.418-9.573-0.447-11.227c-1.354-0.782-3.117-0.689-4.968,0.251
	C12.618,5.002,10.85,6.77,9.562,9z"/>
<path style="fill:#333333;" d="M12.016,21.75l-0.032-1c0.696-0.022,1.334-0.198,1.896-0.522c1.353-0.781,2.157-2.354,2.267-4.428
	c0.114-2.154-0.533-4.569-1.82-6.8c-0.771-1.337-1.707-2.5-2.781-3.455l0.665-0.747c1.154,1.026,2.157,2.272,2.982,3.702
	c1.383,2.396,2.077,5.007,1.953,7.352c-0.128,2.425-1.11,4.286-2.766,5.241C13.674,21.501,12.878,21.722,12.016,21.75z"/>
</svg>






