<?xml version="1.0" encoding="iso-8859-1"?>
<svg version="1.1" id="&#x56FE;&#x5C42;_1" xmlns="http://www.w3.org/2000/svg" xmlns:xlink="http://www.w3.org/1999/xlink" x="0px"
	 y="0px" viewBox="0 0 24 24" style="enable-background:new 0 0 24 24;" xml:space="preserve">
<path style="fill:#333333;" d="M21,18.5H3c-0.827,0-1.5-0.673-1.5-1.5V5c0-0.827,0.673-1.5,1.5-1.5h18c0.827,0,1.5,0.673,1.5,1.5v12
	C22.5,17.827,21.827,18.5,21,18.5z M3,4.5C2.724,4.5,2.5,4.724,2.5,5v12c0,0.275,0.224,0.5,0.5,0.5h18c0.275,0,0.5-0.225,0.5-0.5V5
	c0-0.276-0.225-0.5-0.5-0.5H3z"/>
<path style="fill:#333333;" d="M13.5,14.5h-7c-0.551,0-1-0.448-1-1v-5c0-0.551,0.449-1,1-1h7c0.552,0,1,0.449,1,1v5
	C14.5,14.052,14.052,14.5,13.5,14.5z M6.5,8.5v5h7v-5H6.5z M6.5,8L6.499,8.5c0,0,0.001,0,0.001,0V8z"/>
<circle style="fill:#333333;" cx="18.5" cy="7.5" r="1"/>
<rect x="18" y="10.5" style="fill:#333333;" width="1" height="1"/>
<rect x="18" y="14" style="fill:#333333;" width="1" height="1"/>
<rect x="5.5" y="18" style="fill:#333333;" width="1" height="3"/>
<rect x="17.5" y="18" style="fill:#333333;" width="1" height="3"/>
</svg>






