<?xml version="1.0" encoding="iso-8859-1"?>
<svg version="1.1" id="&#x56FE;&#x5C42;_1" xmlns="http://www.w3.org/2000/svg" xmlns:xlink="http://www.w3.org/1999/xlink" x="0px"
	 y="0px" viewBox="0 0 24 24" style="enable-background:new 0 0 24 24;" xml:space="preserve">
<path style="fill:#333333;" d="M17,17H7V7h10V17z M8,16h8V8H8V16z"/>
<polygon style="fill:#333333;" points="6,21.5 5,21.5 5,19 2.5,19 2.5,18 6,18 "/>
<polygon style="fill:#333333;" points="19,21.5 18,21.5 18,18 21.5,18 21.5,19 19,19 "/>
<polygon style="fill:#333333;" points="6,6 2.5,6 2.5,5 5,5 5,2.5 6,2.5 "/>
<polygon style="fill:#333333;" points="21.5,6 18,6 18,2.5 19,2.5 19,5 21.5,5 "/>
</svg>






