<?xml version="1.0" encoding="iso-8859-1"?>
<svg version="1.1" id="&#x56FE;&#x5C42;_1" xmlns="http://www.w3.org/2000/svg" xmlns:xlink="http://www.w3.org/1999/xlink" x="0px"
	 y="0px" viewBox="0 0 24 24" style="enable-background:new 0 0 24 24;" xml:space="preserve">
<path style="fill:#333333;" d="M12,21c-5.498,0-9.97-3.665-9.97-8.169c0-0.734,0.118-1.461,0.352-2.162
	C2.107,9.635,1.734,7.818,1.604,7.022C1.26,4.243,1.861,3.352,2.426,3.091c0.381-0.178,0.833-0.087,1.121,0.225L3.59,3.371
	C4.75,5.048,6.271,5.646,7.02,5.75c3.017-1.424,6.944-1.424,9.959,0c0.749-0.104,2.27-0.702,3.431-2.38
	c0.33-0.366,0.78-0.457,1.164-0.279c0.564,0.261,1.166,1.152,0.825,3.912c-0.134,0.815-0.507,2.632-0.782,3.667
	c0.234,0.701,0.353,1.428,0.353,2.162C21.97,17.335,17.497,21,12,21z M2.82,4.014C2.676,4.131,2.338,4.815,2.593,6.88
	c0.147,0.891,0.544,2.773,0.794,3.672l0.042,0.153l-0.054,0.15c-0.229,0.639-0.346,1.304-0.346,1.976C3.03,16.784,7.054,20,12,20
	c4.946,0,8.97-3.216,8.97-7.169c0-0.672-0.116-1.336-0.346-1.976l-0.054-0.15l0.043-0.153c0.249-0.899,0.646-2.782,0.797-3.692
	c0.269-2.182-0.134-2.814-0.257-2.862c-1.362,2.026-3.306,2.696-4.227,2.763l-0.135,0.01l-0.121-0.059
	c-2.808-1.374-6.536-1.374-9.342,0L7.208,6.771l-0.135-0.01C6.163,6.694,4.256,6.04,2.82,4.014z"/>
<path style="fill:#333333;" d="M12.476,17.655h-0.951C11.367,17.173,11,16.008,11,15.625c0-0.62,0.449-1.125,1-1.125
	c0.552,0,1,0.505,1,1.125C13,16.008,12.633,17.173,12.476,17.655z"/>
<path style="fill:#333333;" d="M8.5,13.5C7.122,13.5,6,12.379,6,11c0-1.378,1.122-2.5,2.5-2.5S11,9.622,11,11
	C11,12.379,9.878,13.5,8.5,13.5z M8.5,9.5C7.673,9.5,7,10.173,7,11s0.673,1.5,1.5,1.5S10,11.827,10,11S9.327,9.5,8.5,9.5z"/>
<path style="fill:#333333;" d="M15.5,13.5c-1.379,0-2.5-1.121-2.5-2.5c0-1.378,1.121-2.5,2.5-2.5S18,9.622,18,11
	C18,12.379,16.879,13.5,15.5,13.5z M15.5,9.5c-0.827,0-1.5,0.673-1.5,1.5s0.673,1.5,1.5,1.5S17,11.827,17,11S16.327,9.5,15.5,9.5z"
	/>
</svg>






