<?xml version="1.0" encoding="iso-8859-1"?>
<svg version="1.1" id="&#x56FE;&#x5C42;_1" xmlns="http://www.w3.org/2000/svg" xmlns:xlink="http://www.w3.org/1999/xlink" x="0px"
	 y="0px" viewBox="0 0 24 24" style="enable-background:new 0 0 24 24;" xml:space="preserve">
<g>
	<defs>
		<rect id="SVGID_1_" width="24" height="24"/>
	</defs>
	<clipPath id="SVGID_00000052070868172492994420000018355758967957093514_">
		<use xlink:href="#SVGID_1_"  style="overflow:visible;"/>
	</clipPath>
	<g style="clip-path:url(#SVGID_00000052070868172492994420000018355758967957093514_);">
		<path style="fill:#333333;" d="M15.682,11.146l-0.707-0.707l2.256-2.256l0.278,0.075c0.862,0.231,1.787-0.019,2.415-0.647
			c0.473-0.472,0.732-1.1,0.732-1.768c0-0.667-0.26-1.295-0.732-1.768c-0.942-0.944-2.589-0.945-3.535,0
			c-0.629,0.629-0.877,1.555-0.647,2.416l0.074,0.279l-2.255,2.255l-0.707-0.707l1.857-1.858c-0.198-1.119,0.16-2.281,0.971-3.091
			c1.323-1.323,3.63-1.321,4.949,0c0.661,0.661,1.025,1.54,1.025,2.475c0,0.935-0.364,1.814-1.025,2.475
			c-0.81,0.81-1.97,1.167-3.091,0.971L15.682,11.146z"/>
		<path style="fill:#333333;" d="M18.744,18.69l-5.896-4.11l-2.18,1.452l-2.877-2.878l1.454-2.18L5.312,5.253l2.592-2.592
			l13.436,13.435L18.744,18.69z M12.859,13.369l5.77,4.022l1.296-1.296L7.903,4.075L6.606,5.372l3.846,5.593l-1.375,2.062
			l1.718,1.718L12.859,13.369z"/>
		<path style="fill:#333333;" d="M8.257,21.24c-1.409,0-2.817-0.536-3.889-1.608c-1.039-1.039-1.611-2.42-1.611-3.89
			c0-1.469,0.572-2.851,1.611-3.889c1.42-1.42,3.5-1.954,5.432-1.391l-0.28,0.96c-1.576-0.458-3.281-0.024-4.444,1.138
			c-0.85,0.85-1.318,1.979-1.318,3.182s0.468,2.332,1.318,3.183c1.754,1.754,4.609,1.753,6.364,0
			c1.162-1.162,1.598-2.865,1.138-4.445l0.961-0.279c0.562,1.931,0.028,4.012-1.393,5.432C11.074,20.704,9.665,21.239,8.257,21.24z"
			/>
	</g>
</g>
</svg>






