<?xml version="1.0" encoding="iso-8859-1"?>
<svg version="1.1" id="&#x56FE;&#x5C42;_1" xmlns="http://www.w3.org/2000/svg" xmlns:xlink="http://www.w3.org/1999/xlink" x="0px"
	 y="0px" viewBox="0 0 24 24" style="enable-background:new 0 0 24 24;" xml:space="preserve">
<path style="fill:#333333;" d="M16.554,11.5l-9.159-0.011c-0.039-0.008-0.961-0.209-1.542-0.458c-0.458-0.197-1.09-0.59-1.117-0.606
	L4.978,9.5c0.285-0.013,1.128-0.084,1.602-0.256c0.756-0.275,1.736-1.234,2.05-1.581L8.778,7.5h6.443l0.148,0.164
	c0.315,0.347,1.298,1.306,2.051,1.581c0.475,0.173,1.316,0.243,1.602,0.256l0.242,0.924c-0.026,0.017-0.659,0.41-1.117,0.606
	c-0.581,0.249-1.503,0.45-1.542,0.458L16.554,11.5z M7.555,10.5h8.891c0.136-0.031,0.522-0.122,0.887-0.236
	c-0.088-0.024-0.174-0.05-0.253-0.08c-0.922-0.335-1.917-1.295-2.294-1.684h-5.57c-0.377,0.389-1.373,1.349-2.294,1.684
	c-0.08,0.029-0.164,0.056-0.252,0.08C7.002,10.368,7.365,10.458,7.555,10.5z"/>
<path style="fill:#333333;" d="M12,17.5H7c-0.132-0.015-1.317-0.213-1.976-0.461c-0.517-0.193-1.233-0.584-1.264-0.601L3.98,15.5
	c0.012,0,1.198-0.049,1.868-0.263c1.052-0.335,2.283-1.575,2.295-1.588L8.291,13.5h7.418l0.147,0.149
	c0.013,0.013,1.243,1.253,2.295,1.588c0.558,0.178,1.537,0.25,1.868,0.263l0.22,0.938c-0.03,0.017-0.747,0.407-1.264,0.601
	c-0.658,0.248-1.844,0.446-1.894,0.454L12,17.5z M5.899,16.261c0.552,0.141,1.174,0.244,1.182,0.246l9.916-0.007
	c-0.008-0.004,0.575-0.104,1.104-0.239c-0.089-0.021-0.174-0.045-0.254-0.07c-1.054-0.336-2.153-1.312-2.551-1.69H8.703
	c-0.398,0.378-1.498,1.354-2.551,1.69C6.072,16.216,5.987,16.239,5.899,16.261z"/>
<path style="fill:#333333;" d="M14.595,5.5L9.317,5.465C9.252,5.44,8.671,5.209,8.332,4.993C8.081,4.834,7.696,4.54,7.696,4.54
	l0.115-0.86c0.002-0.001,0.603-0.246,0.979-0.42c1.179-0.544,2.92-1.668,2.938-1.68L12,1.404l0.271,0.176
	c0.018,0.012,1.76,1.137,2.938,1.68c0.378,0.174,0.978,0.419,0.98,0.42l0.114,0.86c0,0-0.385,0.294-0.635,0.453
	c-0.341,0.216-0.921,0.447-0.986,0.472L14.595,5.5z M9.597,4.5h4.806c0.144-0.059,0.373-0.159,0.559-0.254
	c-0.061-0.026-0.118-0.053-0.171-0.077C13.822,3.722,12.551,2.94,12,2.593c-0.551,0.347-1.823,1.129-2.791,1.576l0,0
	c-0.054,0.024-0.111,0.05-0.171,0.077C9.224,4.341,9.453,4.441,9.597,4.5z"/>
<rect x="10" y="5" style="fill:#333333;" width="1" height="3"/>
<rect x="13" y="5" style="fill:#333333;" width="1" height="3"/>
<rect x="9" y="11" style="fill:#333333;" width="1" height="3"/>
<rect x="14" y="11" style="fill:#333333;" width="1" height="3"/>
<polygon style="fill:#333333;" points="16.5,22.5 7.5,22.5 7.5,17 8.5,17 8.5,21.5 15.5,21.5 15.5,17 16.5,17 "/>
</svg>






