<?xml version="1.0" encoding="iso-8859-1"?>
<svg version="1.1" id="&#x56FE;&#x5C42;_1" xmlns="http://www.w3.org/2000/svg" xmlns:xlink="http://www.w3.org/1999/xlink" x="0px"
	 y="0px" viewBox="0 0 24 24" style="enable-background:new 0 0 24 24;" xml:space="preserve">
<path style="fill:#333333;" d="M12,22.5c-5.322,0-8.5-3.552-8.5-9.5C3.5,7.077,8.289,1.5,12,1.5c3.712,0,8.5,5.577,8.5,11.5
	C20.5,18.948,17.322,22.5,12,22.5z M12,2.5C8.794,2.5,4.5,7.691,4.5,13c0,5.402,2.733,8.5,7.5,8.5s7.5-3.098,7.5-8.5
	C19.5,7.691,15.205,2.5,12,2.5z"/>
<path style="fill:#333333;" d="M10.5,19c0.828,0,1.5-0.672,1.5-1.5S11.328,16,10.5,16S9,16.672,9,17.5S9.672,19,10.5,19z"/>
<path style="fill-rule:evenodd;clip-rule:evenodd;fill:#333333;" d="M8,14.834c0.552,0,1-0.448,1-1c0-0.552-0.448-1-1-1
	s-1,0.448-1,1C7,14.386,7.448,14.834,8,14.834z"/>
</svg>






