<?xml version="1.0" encoding="iso-8859-1"?>
<svg version="1.1" id="&#x56FE;&#x5C42;_1" xmlns="http://www.w3.org/2000/svg" xmlns:xlink="http://www.w3.org/1999/xlink" x="0px"
	 y="0px" viewBox="0 0 24 24" style="enable-background:new 0 0 24 24;" xml:space="preserve">
<path style="fill:#333333;" d="M20,19.5H4c-1.103,0-2-0.897-2-2v-11c0-1.103,0.897-2,2-2h16c1.103,0,2,0.897,2,2v11
	C22,18.603,21.103,19.5,20,19.5z M4,5.5c-0.551,0-1,0.449-1,1v11c0,0.552,0.449,1,1,1h16c0.552,0,1-0.448,1-1v-11
	c0-0.551-0.448-1-1-1H4z"/>
<rect x="6" y="8.5" style="fill:#333333;" width="1" height="3.5"/>
<path style="fill:#333333;" d="M7.5,15.5L7.5,15.5c0,0.552-0.448,1-1,1l0,0c-0.552,0-1-0.448-1-1l0,0c0-0.552,0.448-1,1-1l0,0
	C7.052,14.5,7.5,14.948,7.5,15.5z"/>
</svg>






