<?xml version="1.0" encoding="iso-8859-1"?>
<svg version="1.1" id="&#x56FE;&#x5C42;_1" xmlns="http://www.w3.org/2000/svg" xmlns:xlink="http://www.w3.org/1999/xlink" x="0px"
	 y="0px" viewBox="0 0 24 24" style="enable-background:new 0 0 24 24;" xml:space="preserve">
<rect x="9.47" y="10.28" transform="matrix(0.7071 -0.7071 0.7071 0.7071 -6.824 11.0856)" style="fill:#333333;" width="1" height="7"/>
<path style="fill:#333333;" d="M5.727,22.021c-1.024,0-2.048-0.39-2.828-1.169c-1.56-1.56-1.56-4.098,0-5.657l4.242-4.243
	l0.707,0.707l-4.242,4.243c-1.17,1.17-1.17,3.073,0,4.243c1.168,1.168,3.072,1.169,4.243,0l4.242-4.243l0.707,0.707l-4.242,4.243
	C7.776,21.631,6.751,22.021,5.727,22.021z"/>
<rect x="4.934" y="16.815" transform="matrix(0.7071 -0.7071 0.7071 0.7071 -10.3594 9.6212)" style="fill:#333333;" width="3" height="1"/>
<path style="fill:#333333;" d="M12.331,16.849l-5.43-5.43l3.393-7.862c0.349-0.809,1.012-1.397,1.818-1.614
	c0.756-0.203,1.525-0.053,2.168,0.423c1.281,0.949,4.535,3.531,7.066,7.006c0.474,0.651,0.624,1.468,0.412,2.244
	c-0.23,0.839-0.836,1.526-1.661,1.882L12.331,16.849z M8.088,11.191l4.469,4.47L19.7,12.58c0.537-0.232,0.945-0.691,1.093-1.229
	c0.133-0.487,0.042-0.981-0.256-1.391c-2.519-3.458-5.882-6.072-6.854-6.791c-0.392-0.291-0.858-0.382-1.312-0.261
	c-0.51,0.137-0.932,0.518-1.16,1.044L8.088,11.191z"/>
</svg>






