<?xml version="1.0" encoding="iso-8859-1"?>
<svg version="1.1" id="&#x56FE;&#x5C42;_1" xmlns="http://www.w3.org/2000/svg" xmlns:xlink="http://www.w3.org/1999/xlink" x="0px"
	 y="0px" viewBox="0 0 24 24" style="enable-background:new 0 0 24 24;" xml:space="preserve">
<path style="fill:#333333;" d="M17.305,18.5h-7.93c-0.222,0-0.434-0.095-0.582-0.261L3.937,12.8
	c-0.438-0.49-0.652-1.121-0.603-1.776c0.048-0.655,0.353-1.247,0.857-1.667c0.5-0.417,1.132-0.611,1.777-0.544
	c0.595,0.06,1.133,0.332,1.532,0.77V4.497c0-1.101,0.896-1.998,1.996-2c0.416,0.011,0.79,0.118,1.118,0.338
	C10.888,2.058,11.63,1.5,12.5,1.5c0.846,0,1.57,0.527,1.862,1.271c0.323-0.225,0.715-0.356,1.138-0.356
	c1.079,0,1.961,0.858,1.999,1.928c0.294-0.171,0.637-0.269,1.001-0.269c1.103,0,2,0.897,2,2v6.841c0,1.184-0.368,2.316-1.064,3.273
	l-1.416,1.948C17.854,18.363,17.587,18.5,17.305,18.5z M9.474,17.5h7.771l1.382-1.9c0.571-0.785,0.873-1.714,0.873-2.686V6.073
	c0-0.551-0.448-1-1-1s-1,0.449-1,1h-1V4.415c0-0.551-0.448-1-1-1s-1,0.449-1,1h-1V3.5c0-0.551-0.448-1-1-1c-0.551,0-1,0.449-1,1
	v0.997h-1c0-0.268-0.104-0.519-0.294-0.708C10.018,3.601,9.767,3.497,9.5,3.497c0,0-0.001,0-0.002,0c-0.55,0.001-0.998,0.45-0.998,1
	V11l-0.89,0.312l-0.789-0.986C6.583,10.03,6.245,9.846,5.868,9.808C5.492,9.77,5.122,9.882,4.831,10.125
	c-0.294,0.246-0.472,0.591-0.5,0.973c-0.028,0.382,0.097,0.75,0.352,1.036L9.474,17.5z"/>
<path style="fill:#333333;" d="M17,22.5h-7c-0.551,0-1-0.448-1-1v-3c0-0.552,0.449-1,1-1h7c0.552,0,1,0.448,1,1v3
	C18,22.052,17.552,22.5,17,22.5z M10,18.5v3h7v-3H10z M10,18l-0.001,0.5c0,0,0.001,0,0.001,0V18z"/>
</svg>






