<?xml version="1.0" encoding="iso-8859-1"?>
<svg version="1.1" id="&#x56FE;&#x5C42;_1" xmlns="http://www.w3.org/2000/svg" xmlns:xlink="http://www.w3.org/1999/xlink" x="0px"
	 y="0px" viewBox="0 0 24 24" style="enable-background:new 0 0 24 24;" xml:space="preserve">
<path style="fill:#333333;" d="M12,22.5c-5.238,0-9.5-4.037-9.5-9c0-4.962,4.262-9,9.5-9s9.5,4.038,9.5,9
	C21.5,18.463,17.238,22.5,12,22.5z M12,5.5c-4.687,0-8.5,3.589-8.5,8s3.813,8,8.5,8c4.687,0,8.5-3.589,8.5-8S16.687,5.5,12,5.5z"/>
<path style="fill:#333333;" d="M8.243,14.79c-0.143,0-0.285-0.018-0.423-0.056c-1.064-0.285-1.641-1.601-1.285-2.932
	c0.357-1.332,1.513-2.183,2.579-1.897c0.535,0.143,0.975,0.558,1.208,1.137c0.216,0.538,0.244,1.175,0.077,1.795
	c-0.166,0.619-0.508,1.158-0.964,1.517C9.07,14.64,8.652,14.79,8.243,14.79z M8.686,10.849c-0.481,0-0.997,0.51-1.186,1.212
	c-0.21,0.785,0.055,1.567,0.578,1.708c0.313,0.079,0.596-0.091,0.738-0.202c0.283-0.222,0.507-0.582,0.616-0.988
	s0.095-0.831-0.039-1.164c-0.067-0.167-0.227-0.46-0.539-0.544C8.799,10.856,8.743,10.849,8.686,10.849z"/>
<path style="fill:#333333;" d="M15.691,14.79c-0.41,0-0.828-0.15-1.192-0.436c-0.456-0.358-0.798-0.896-0.965-1.517
	c-0.166-0.62-0.139-1.258,0.077-1.795c0.233-0.58,0.674-0.994,1.209-1.137c0.533-0.146,1.122-0.005,1.613,0.381
	c0.456,0.358,0.799,0.896,0.965,1.517c0.356,1.33-0.22,2.646-1.284,2.932C15.976,14.771,15.834,14.79,15.691,14.79z M15.246,10.849
	c-0.054,0-0.11,0.007-0.167,0.022h-0.001c-0.312,0.083-0.472,0.376-0.538,0.544c-0.134,0.333-0.148,0.758-0.039,1.163
	c0.108,0.407,0.333,0.768,0.616,0.989c0.142,0.111,0.428,0.286,0.737,0.201c0.523-0.14,0.788-0.922,0.577-1.707
	c-0.108-0.407-0.333-0.767-0.615-0.989C15.701,10.982,15.49,10.849,15.246,10.849z"/>
<path style="fill:#333333;" d="M20.854,10.853l-0.707-0.707c1.412-1.412,1.481-3.639,0.156-4.964
	c-0.638-0.637-1.635-0.985-2.706-0.939c-1.077,0.04-2.077,0.445-2.743,1.111l-0.707-0.707c0.842-0.842,2.086-1.354,3.413-1.403
	c1.369-0.052,2.617,0.399,3.45,1.232C22.726,6.189,22.655,9.051,20.854,10.853z"/>
<path style="fill:#333333;" d="M3.146,10.853C1.34,9.047,1.263,6.186,2.975,4.475C4.698,2.75,8.042,2.833,9.854,4.646L9.146,5.353
	C7.725,3.931,5.018,3.846,3.682,5.182C2.36,6.503,2.438,8.73,3.854,10.146L3.146,10.853z"/>
<path style="fill:#333333;" d="M11.264,19.001c-0.135,0-0.268-0.017-0.4-0.049c-0.685-0.172-1.136-0.77-1.331-1.271l0.933-0.361
	c0.099,0.257,0.326,0.584,0.641,0.662c0.364,0.095,0.781-0.183,1.067-0.43l0.326-0.281l0.326,0.281
	c0.285,0.247,0.705,0.523,1.067,0.43c0.313-0.078,0.541-0.405,0.64-0.662l0.934,0.361c-0.194,0.502-0.646,1.1-1.331,1.271
	c-0.526,0.128-1.074,0-1.636-0.389C12.079,18.854,11.666,19.001,11.264,19.001z"/>
</svg>






