<?xml version="1.0" encoding="iso-8859-1"?>
<svg version="1.1" id="&#x56FE;&#x5C42;_1" xmlns="http://www.w3.org/2000/svg" xmlns:xlink="http://www.w3.org/1999/xlink" x="0px"
	 y="0px" viewBox="0 0 24 24" style="enable-background:new 0 0 24 24;" xml:space="preserve">
<path style="fill:#333333;" d="M1.5,19.27V4.731l0.703,0.312C2.247,5.062,6.678,7,12,7c5.332,0,9.753-1.938,9.797-1.957L22.5,4.73
	v14.538l-0.703-0.312C21.753,18.938,17.322,17,12,17c-5.332,0-9.753,1.938-9.797,1.957L1.5,19.27z M12,16
	c4.332,0,8.01,1.197,9.5,1.76V6.24C20.01,6.803,16.332,8,12,8C7.668,8,3.99,6.803,2.5,6.24v11.52C3.99,17.197,7.668,16,12,16z"/>
</svg>






