<?xml version="1.0" encoding="iso-8859-1"?>
<svg version="1.1" id="&#x56FE;&#x5C42;_1" xmlns="http://www.w3.org/2000/svg" xmlns:xlink="http://www.w3.org/1999/xlink" x="0px"
	 y="0px" viewBox="0 0 24 24" style="enable-background:new 0 0 24 24;" xml:space="preserve">
<path style="fill:#333333;" d="M13.689,21.5h-3.378l-0.142-0.125C9.815,21.062,1.5,13.655,1.5,7.5V7.293l0.146-0.146
	C3.508,5.285,4.005,2.925,4.01,2.901l0.151-0.743l0.625,0.431C4.81,2.606,7.244,4.25,12,4.25c4.756,0,7.19-1.644,7.215-1.661
	l0.547-0.378l0.213,0.631c0.01,0.029,0.981,2.907,2.379,4.305L22.5,7.293V7.5c0,6.155-8.315,13.562-8.669,13.875L13.689,21.5z
	 M10.692,20.5h2.615c1.073-0.983,8.017-7.54,8.189-12.802c-1.096-1.184-1.9-3.034-2.262-3.966C18.222,4.261,15.816,5.25,12,5.25
	c-3.758,0-6.148-0.959-7.188-1.493C4.531,4.642,3.871,6.266,2.503,7.7C2.678,12.966,9.619,19.518,10.692,20.5z"/>
<path style="fill:#333333;" d="M14,21h-1c0-0.25,0.023-6.174,2.065-9.748c2.103-3.679,6.686-4.228,6.879-4.249l0.111,0.994
	c-0.042,0.005-4.275,0.521-6.121,3.751C14.022,15.094,14,20.941,14,21z"/>
<path style="fill:#333333;" d="M10,21c0-0.059-0.024-5.91-1.934-9.252C6.213,8.506,1.987,8.001,1.945,7.997l0.11-0.994
	c0.194,0.021,4.777,0.57,6.879,4.249C10.977,14.826,11,20.75,11,21H10z"/>
</svg>






