<?xml version="1.0" encoding="iso-8859-1"?>
<svg version="1.1" id="&#x56FE;&#x5C42;_1" xmlns="http://www.w3.org/2000/svg" xmlns:xlink="http://www.w3.org/1999/xlink" x="0px"
	 y="0px" viewBox="0 0 24 24" style="enable-background:new 0 0 24 24;" xml:space="preserve">
<path style="fill:#333333;" d="M6.011,20.47c-1.029,0-2.172-0.367-3.203-1.398c-1.294-1.293-1.466-2.661-1.382-3.581
	c0.104-1.138,0.619-2.021,1.029-2.43L12,3.515c1.624-1.625,5.505-2.274,8.132,0.354c2.629,2.629,1.978,6.508,0.354,8.132
	l-7.071,7.071l-0.707-0.707l7.071-7.071c1.142-1.142,2-4.363-0.354-6.718c-2.355-2.353-5.574-1.494-6.718-0.354l-9.545,9.546
	c-0.219,0.219-0.655,0.879-0.74,1.813c-0.064,0.707,0.073,1.764,1.093,2.783c1.888,1.887,4.029,0.92,4.596,0.354l9.192-9.192
	c0.499-0.499,0.877-1.951,0-2.829c-0.875-0.876-2.328-0.498-2.828,0l-6.718,6.717l-0.707-0.707l6.718-6.718
	c0.865-0.865,2.947-1.295,4.242,0c1.295,1.295,0.865,3.378,0,4.243l-9.192,9.192C8.285,19.959,7.227,20.47,6.011,20.47z"/>
</svg>






