<?xml version="1.0" encoding="iso-8859-1"?>
<svg version="1.1" id="&#x56FE;&#x5C42;_1" xmlns="http://www.w3.org/2000/svg" xmlns:xlink="http://www.w3.org/1999/xlink" x="0px"
	 y="0px" viewBox="0 0 24 24" style="enable-background:new 0 0 24 24;" xml:space="preserve">
<path style="fill:#333333;" d="M6.16,21.899l-4.612-9.685l0.573-0.7l10.796,2.699L6.16,21.899z M2.907,12.742l3.504,7.358
	l4.671-5.314L2.907,12.742z"/>
<path style="fill:#333333;" d="M17.839,21.899l-6.756-7.686l10.796-2.699l0.572,0.7L17.839,21.899z M12.917,14.786l4.672,5.314
	l3.504-7.358L12.917,14.786z"/>
<path style="fill:#333333;" d="M17.5,21.5h-11l-0.382-0.823L12,13.726l5.882,6.951L17.5,21.5z M7.578,20.5h8.844L12,15.274
	L7.578,20.5z"/>
<polygon style="fill:#333333;" points="17.562,13.239 12,3.044 6.439,13.239 5.561,12.761 11.561,1.761 12.438,1.761 18.438,12.761 
	"/>
</svg>






