<?xml version="1.0" encoding="iso-8859-1"?>
<svg version="1.1" id="&#x56FE;&#x5C42;_1" xmlns="http://www.w3.org/2000/svg" xmlns:xlink="http://www.w3.org/1999/xlink" x="0px"
	 y="0px" viewBox="0 0 24 24" style="enable-background:new 0 0 24 24;" xml:space="preserve">
<path style="fill:#333333;" d="M16.265,20.5H3.36c-0.482,0-0.923-0.223-1.209-0.611c-0.285-0.389-0.367-0.876-0.223-1.336l4.375-14
	C6.5,3.923,7.076,3.5,7.735,3.5H20.64c0.482,0,0.923,0.223,1.209,0.612c0.286,0.388,0.367,0.875,0.224,1.335l-4.375,14
	C17.5,20.077,16.924,20.5,16.265,20.5z M7.735,4.5c-0.22,0-0.412,0.141-0.478,0.351L2.883,18.852
	c-0.048,0.153-0.021,0.315,0.075,0.444C3.053,19.426,3.2,19.5,3.36,19.5h12.904c0.22,0,0.412-0.142,0.478-0.352l4.375-13.999
	c0.048-0.153,0.021-0.316-0.074-0.445C20.947,4.574,20.801,4.5,20.64,4.5H7.735z"/>
</svg>






