<?xml version="1.0" encoding="iso-8859-1"?>
<svg version="1.1" id="&#x56FE;&#x5C42;_1" xmlns="http://www.w3.org/2000/svg" xmlns:xlink="http://www.w3.org/1999/xlink" x="0px"
	 y="0px" viewBox="0 0 24 24" style="enable-background:new 0 0 24 24;" xml:space="preserve">
<rect x="12" y="4" style="fill:#333333;" width="9" height="1"/>
<rect x="12" y="9" style="fill:#333333;" width="9" height="1"/>
<rect x="3" y="14" style="fill:#333333;" width="18" height="1"/>
<rect x="3" y="19" style="fill:#333333;" width="18" height="1"/>
<path style="fill:#333333;" d="M3.5,10.119c-0.168,0-0.337-0.044-0.493-0.132C2.689,9.807,2.5,9.482,2.5,9.117V4.883
	c0-0.365,0.189-0.69,0.507-0.87c0.319-0.181,0.695-0.175,1.007,0.013l3.528,2.117C7.847,6.325,8.028,6.646,8.028,7
	S7.847,7.675,7.542,7.857L4.015,9.974C3.854,10.07,3.677,10.119,3.5,10.119z M3.5,4.883v4.233L7.028,7L3.5,4.883z"/>
</svg>






