<?xml version="1.0" encoding="iso-8859-1"?>
<svg version="1.1" id="&#x56FE;&#x5C42;_1" xmlns="http://www.w3.org/2000/svg" xmlns:xlink="http://www.w3.org/1999/xlink" x="0px"
	 y="0px" viewBox="0 0 24 24" style="enable-background:new 0 0 24 24;" xml:space="preserve">
<path style="fill:#333333;" d="M22,13h-1c-1.656,0-2.913-1.84-4.243-3.788C15.342,7.141,13.88,5,12,5
	c-1.879,0-3.342,2.141-4.756,4.212C5.913,11.16,4.656,13,3,13H2v-1h1c1.128,0,2.24-1.628,3.418-3.352C7.906,6.469,9.592,4,12,4
	c2.407,0,4.094,2.469,5.582,4.648C18.76,10.372,19.872,12,21,12h1V13z"/>
<rect x="1.5" y="16.5" style="fill:#333333;" width="1" height="3"/>
<rect x="11.5" y="16.5" style="fill:#333333;" width="1" height="3"/>
<rect x="21.5" y="16.5" style="fill:#333333;" width="1" height="3"/>
<rect x="2" y="17.5" style="fill:#333333;" width="20" height="1"/>
</svg>






