<?xml version="1.0" encoding="iso-8859-1"?>
<svg version="1.1" id="&#x56FE;&#x5C42;_1" xmlns="http://www.w3.org/2000/svg" xmlns:xlink="http://www.w3.org/1999/xlink" x="0px"
	 y="0px" viewBox="0 0 24 24" style="enable-background:new 0 0 24 24;" xml:space="preserve">
<rect x="3" y="4" style="fill:#333333;" width="18" height="1"/>
<rect x="3" y="9" style="fill:#333333;" width="18" height="1"/>
<rect x="3" y="14" style="fill:#333333;" width="9" height="1"/>
<rect x="3" y="19" style="fill:#333333;" width="5" height="1"/>
<path style="fill:#333333;" d="M13.646,21.854l-2-2L12,19.5l-0.354-0.354l2-2l0.707,0.707L13.207,19H18.5c1.103,0,2-0.897,2-2
	s-0.897-2-2-2H16v-1h2.5c1.654,0,3,1.346,3,3s-1.346,3-3,3h-5.293l1.146,1.146L13.646,21.854z"/>
</svg>






