<?xml version="1.0" encoding="iso-8859-1"?>
<svg version="1.1" id="&#x56FE;&#x5C42;_1" xmlns="http://www.w3.org/2000/svg" xmlns:xlink="http://www.w3.org/1999/xlink" x="0px"
	 y="0px" viewBox="0 0 24 24" style="enable-background:new 0 0 24 24;" xml:space="preserve">
<rect x="12" y="4" style="fill:#333333;" width="9" height="1"/>
<rect x="12" y="9" style="fill:#333333;" width="9" height="1"/>
<rect x="3" y="14" style="fill:#333333;" width="18" height="1"/>
<rect x="3" y="19" style="fill:#333333;" width="18" height="1"/>
<path style="fill:none;" d="M5.5,4.5l-2,4h4L5.5,4.5z"/>
<path style="fill:#333333;" d="M7.553,9.724L7.191,9H3.809L3.447,9.724L2.553,9.276l0.5-1L3.5,8.5L3.053,8.276l2-4h0.895l2,4
	L7.5,8.5l0.447-0.224l0.5,1L7.553,9.724z M4.309,8h2.382L5.5,5.618L4.309,8z"/>
</svg>






