<?xml version="1.0" encoding="iso-8859-1"?>
<svg version="1.1" id="&#x56FE;&#x5C42;_1" xmlns="http://www.w3.org/2000/svg" xmlns:xlink="http://www.w3.org/1999/xlink" x="0px"
	 y="0px" viewBox="0 0 24 24" style="enable-background:new 0 0 24 24;" xml:space="preserve">
<path style="fill:#333333;" d="M8.39,12.681L8.039,12.38c-1.724-1.478-2.53-1.698-2.857-1.698c-0.327,0-1.132,0.221-2.856,1.698
	L1.5,12C1.5,6.21,6.21,1.5,12,1.5c5.79,0,10.5,4.71,10.5,10.5l-0.825,0.38c-1.724-1.478-2.529-1.698-2.856-1.698
	s-1.133,0.221-2.856,1.698l-0.352,0.301l-0.327-0.327c-2.222-2.219-4.348-2.218-6.566,0L8.39,12.681z M12,9.682
	c1.229,0,2.458,0.554,3.658,1.647c1.365-1.122,2.376-1.647,3.16-1.647c0.677,0,1.522,0.391,2.618,1.22
	C20.891,6.178,16.867,2.5,12,2.5c-4.867,0-8.891,3.678-9.437,8.401c1.097-0.829,1.942-1.22,2.619-1.22
	c0.785,0,1.795,0.525,3.161,1.647C9.542,10.235,10.77,9.682,12,9.682z"/>
<polygon style="fill:#333333;" points="11.646,22.354 1.646,12.354 2.354,11.646 10.76,20.053 7.894,12.171 8.833,11.829 
	12.47,21.829 "/>
<polygon style="fill:#333333;" points="12.354,22.354 11.53,21.829 15.167,11.829 16.106,12.171 13.24,20.053 21.646,11.646 
	22.354,12.354 "/>
</svg>






