<?xml version="1.0" encoding="iso-8859-1"?>
<svg version="1.1" id="&#x56FE;&#x5C42;_1" xmlns="http://www.w3.org/2000/svg" xmlns:xlink="http://www.w3.org/1999/xlink" x="0px"
	 y="0px" viewBox="0 0 24 24" style="enable-background:new 0 0 24 24;" xml:space="preserve">
<path style="fill:#333333;" d="M19.5,22.5H6.812c-2.229,0-3.312-1.309-3.312-4v-17H10v1H4.5v16c0,2.637,1.111,3,2.312,3H18.5v-6h1
	V22.5z"/>
<path style="fill:#333333;" d="M16.5,13.5c-2.757,0-5-2.243-5-5s2.243-5,5-5s5,2.243,5,5S19.257,13.5,16.5,13.5z M16.5,4.5
	c-2.206,0-4,1.794-4,4s1.794,4,4,4s4-1.794,4-4S18.706,4.5,16.5,4.5z"/>
<rect x="10.5" y="8" style="fill:#333333;" width="1" height="1"/>
<rect x="21.5" y="8" style="fill:#333333;" width="1" height="1"/>
<path style="fill:#333333;" d="M16.007,4.082c-0.055-0.331-0.457-1.262-1.645-1.601l0.275-0.962
	c1.625,0.464,2.252,1.772,2.355,2.399L16.007,4.082z"/>
<path style="fill:#333333;" d="M16.998,4.042l-0.996-0.084c0.055-0.655,0.38-1.895,1.25-2.392l0.496,0.868
	C17.277,2.703,17.038,3.563,16.998,4.042z"/>
<circle style="fill:#333333;" cx="18" cy="8" r="1"/>
<circle style="fill:#333333;" cx="15" cy="8" r="1"/>
<rect x="4" y="17.5" style="fill:#333333;" width="15" height="1"/>
</svg>






