<?xml version="1.0" encoding="iso-8859-1"?>
<svg version="1.1" id="&#x56FE;&#x5C42;_1" xmlns="http://www.w3.org/2000/svg" xmlns:xlink="http://www.w3.org/1999/xlink" x="0px"
	 y="0px" viewBox="0 0 24 24" style="enable-background:new 0 0 24 24;" xml:space="preserve">
<path style="fill:#333333;" d="M12,22.625L11.7,22.4c-0.335-0.252-8.2-6.228-8.2-12.9c0-4.411,3.813-8,8.5-8
	c4.687,0,8.5,3.589,8.5,8c0,6.673-7.865,12.648-8.2,12.9L12,22.625z M12,2.5c-4.136,0-7.5,3.14-7.5,7
	c0,5.471,6.067,10.703,7.5,11.863c1.434-1.16,7.5-6.393,7.5-11.863C19.5,5.64,16.136,2.5,12,2.5z"/>
<rect x="10" y="7" style="fill:#333333;" width="1" height="8"/>
<path style="fill:#333333;" d="M13.5,11.5H10v-5h3.5C14.879,6.5,16,7.622,16,9S14.879,11.5,13.5,11.5z M11,10.5h2.5
	c0.827,0,1.5-0.673,1.5-1.5s-0.673-1.5-1.5-1.5H11V10.5z"/>
</svg>






