<?xml version="1.0" encoding="iso-8859-1"?>
<svg version="1.1" id="&#x56FE;&#x5C42;_1" xmlns="http://www.w3.org/2000/svg" xmlns:xlink="http://www.w3.org/1999/xlink" x="0px"
	 y="0px" viewBox="0 0 24 24" style="enable-background:new 0 0 24 24;" xml:space="preserve">
<path style="fill:#333333;" d="M19.5,22.5h-15v-18h15V22.5z M5.5,21.5h13v-16h-13V21.5z"/>
<polygon style="fill:#333333;" points="5.131,5.482 4.869,4.518 16.5,1.345 16.5,5 15.5,5 15.5,2.655 "/>
<path style="fill:#333333;" d="M12,14.5c-1.378,0-2.5-1.121-2.5-2.5c0-1.378,1.122-2.5,2.5-2.5c1.379,0,2.5,1.122,2.5,2.5
	C14.5,13.379,13.379,14.5,12,14.5z M12,10.5c-0.827,0-1.5,0.673-1.5,1.5s0.673,1.5,1.5,1.5s1.5-0.673,1.5-1.5S12.827,10.5,12,10.5z"
	/>
<rect x="10" y="16.5" style="fill:#333333;" width="4" height="1"/>
</svg>






