<?xml version="1.0" encoding="iso-8859-1"?>
<svg version="1.1" id="&#x56FE;&#x5C42;_1" xmlns="http://www.w3.org/2000/svg" xmlns:xlink="http://www.w3.org/1999/xlink" x="0px"
	 y="0px" viewBox="0 0 24 24" style="enable-background:new 0 0 24 24;" xml:space="preserve">
<path style="fill:#333333;" d="M6.5,20.5h-2C3.673,20.5,3,19.827,3,19V3c0-0.827,0.673-1.5,1.5-1.5h10C15.327,1.5,16,2.173,16,3v2
	h-1V3c0-0.276-0.225-0.5-0.5-0.5h-10C4.224,2.5,4,2.724,4,3v16c0,0.275,0.224,0.5,0.5,0.5h2V20.5z"/>
<path style="fill:#333333;" d="M19.5,22.5h-12C6.673,22.5,6,21.827,6,21V6c0-0.827,0.673-1.5,1.5-1.5h12C20.327,4.5,21,5.173,21,6
	v15C21,21.827,20.327,22.5,19.5,22.5z M7.5,5.5C7.224,5.5,7,5.724,7,6v15c0,0.275,0.224,0.5,0.5,0.5h12c0.275,0,0.5-0.225,0.5-0.5V6
	c0-0.276-0.225-0.5-0.5-0.5H7.5z"/>
<path style="fill:#333333;" d="M13.5,18C11.019,18,9,15.981,9,13.5S11.019,9,13.5,9s4.5,2.019,4.5,4.5S15.981,18,13.5,18z M13.5,10
	c-1.93,0-3.5,1.57-3.5,3.5s1.57,3.5,3.5,3.5s3.5-1.57,3.5-3.5S15.43,10,13.5,10z"/>
<path style="fill:#333333;" d="M13.584,17.777c-0.464-0.695-0.088-2.775,1.116-3.678c1.157-0.868,2.812-0.606,2.882-0.593
	l-0.163,0.986c-0.012-0.002-1.306-0.201-2.119,0.407c-0.787,0.59-1.017,2.038-0.878,2.332L13.584,17.777z"/>
<path style="fill:#333333;" d="M10,16v-1c0.729,0,1.5-0.771,1.5-1.5h1C12.5,14.785,11.285,16,10,16z"/>
<path style="fill:#333333;" d="M14,12.5v-1c0.979,0,1-1.44,1-1.501L16,10C16,10.865,15.582,12.5,14,12.5z"/>
</svg>






