<?xml version="1.0" encoding="iso-8859-1"?>
<svg version="1.1" id="&#x56FE;&#x5C42;_1" xmlns="http://www.w3.org/2000/svg" xmlns:xlink="http://www.w3.org/1999/xlink" x="0px"
	 y="0px" viewBox="0 0 24 24" style="enable-background:new 0 0 24 24;" xml:space="preserve">
<path style="fill:#333333;" d="M21.5,8.5h-6v-6h6V8.5z M16.5,7.5h4v-4h-4V7.5z"/>
<path style="fill:#333333;" d="M21.5,21.5h-6v-6h6V21.5z M16.5,20.5h4v-4h-4V20.5z"/>
<path style="fill:#333333;" d="M8.5,21.5h-6v-6h6V21.5z M3.5,20.5h4v-4h-4V20.5z"/>
<path style="fill:#333333;" d="M8.5,8.5h-6v-6h6V8.5z M3.5,7.5h4v-4h-4V7.5z"/>
<rect x="4" y="11.5" style="fill:#333333;" width="11" height="1"/>
<rect x="19" y="11.5" style="fill:#333333;" width="1" height="1"/>
<rect x="11.5" y="18.5" style="fill:#333333;" width="1" height="1"/>
<rect x="11.5" y="8.5" style="fill:#333333;" width="1" height="7"/>
<rect x="11.5" y="4" style="fill:#333333;" width="1" height="1"/>
</svg>






