<?xml version="1.0" encoding="iso-8859-1"?>
<svg version="1.1" id="&#x56FE;&#x5C42;_1" xmlns="http://www.w3.org/2000/svg" xmlns:xlink="http://www.w3.org/1999/xlink" x="0px"
	 y="0px" viewBox="0 0 24 24" style="enable-background:new 0 0 24 24;" xml:space="preserve">
<path style="fill:#333333;" d="M13.438,22H7.913l2.661-16.5h5.941C20.001,5.5,22,7.14,22,10c0,2.859-1.999,4.5-5.484,4.5h-2.078
	L13.438,22z M9.087,21h3.476l1-7.5h2.953C18.562,13.5,21,12.893,21,10s-2.438-3.5-4.484-3.5h-5.09L9.087,21z"/>
<path style="fill:#333333;" d="M9,18.5H4.413L7.074,2h5.941C16.501,2,18.5,3.64,18.5,6.5S16.501,11,13.016,11H10.5v-1h2.516
	c2.046,0,4.484-0.607,4.484-3.5S15.062,3,13.016,3h-5.09L5.587,17.5H9V18.5z"/>
</svg>






