<?xml version="1.0" encoding="iso-8859-1"?>
<svg version="1.1" id="&#x56FE;&#x5C42;_1" xmlns="http://www.w3.org/2000/svg" xmlns:xlink="http://www.w3.org/1999/xlink" x="0px"
	 y="0px" viewBox="0 0 24 24" style="enable-background:new 0 0 24 24;" xml:space="preserve">
<path style="fill:#333333;" d="M12.147,22.026l-0.384-0.162c-1.394-0.585-3.989-1.674-6.796-4.218
	c-2.754-2.497-3.652-7.514-0.302-11.264c2.562-2.864,6.808-1.901,8.869-0.923c1.057-0.328,3.302-0.581,4.836,0.458
	c1.924,1.305,4.554,4.876,2.211,9.983c-1.969,4.291-7.234,5.82-8.271,6.083L12.147,22.026z M9.252,5.494
	c-1.372,0-2.792,0.382-3.84,1.555l0,0c-2.942,3.292-2.173,7.68,0.228,9.857c2.68,2.429,5.172,3.474,6.51,4.035l0.075,0.032
	c1.249-0.34,5.753-1.795,7.448-5.49c2.063-4.499-0.2-7.609-1.863-8.737c-1.312-0.89-3.386-0.563-4.132-0.279l-0.207,0.079
	l-0.197-0.101C12.506,6.055,10.915,5.494,9.252,5.494z"/>
<path style="fill:#333333;" d="M9.078,15.113c-0.036-0.151-0.083-0.32-0.134-0.507c-0.329-1.195-0.881-3.196,0.167-5.443
	c1.134-2.432,3.209-3.241,4.207-3.629l0.363,0.932c-0.943,0.368-2.699,1.052-3.664,3.121C9.125,11.5,9.597,13.21,9.909,14.341
	c0.055,0.2,0.105,0.383,0.143,0.546L9.078,15.113z"/>
<path style="fill:#333333;" d="M12.245,5.321l-0.99-0.142c0.029-0.205,0.089-0.406,0.154-0.615c0.12-0.388,0.224-0.723,0.106-1.193
	c-0.125-0.502-0.567-0.703-1.025-0.846c-0.1-0.031-0.173-0.058-0.214-0.079l0.428-0.903c0.471,0.147,1.502,0.468,1.781,1.585
	c0.185,0.74,0.016,1.29-0.121,1.73C12.315,5.016,12.267,5.167,12.245,5.321z"/>
<path style="fill:#333333;" d="M14.424,6.167c-0.069,0-0.137-0.001-0.201-0.004l0,0c-0.375-0.013-0.72-0.185-0.945-0.473
	c-0.227-0.288-0.312-0.665-0.235-1.032c0.152-0.725,0.505-1.722,1.314-2.355c0.809-0.635,1.863-0.744,2.601-0.713
	c0.376,0.013,0.72,0.186,0.946,0.474c0.226,0.289,0.312,0.665,0.234,1.032c-0.151,0.723-0.502,1.719-1.314,2.355
	C16.084,6.031,15.145,6.167,14.424,6.167z M16.756,2.586c-0.555,0-1.264,0.097-1.782,0.504c-0.573,0.449-0.835,1.212-0.953,1.774
	c-0.017,0.079-0.001,0.153,0.043,0.209c0.044,0.056,0.112,0.088,0.192,0.091h0.001c0.562,0.019,1.375-0.05,1.949-0.5
	c0.575-0.45,0.836-1.213,0.953-1.773c0.017-0.079,0.001-0.153-0.043-0.21c-0.044-0.056-0.113-0.089-0.193-0.092
	C16.869,2.587,16.813,2.586,16.756,2.586z"/>
</svg>






