<?xml version="1.0" encoding="iso-8859-1"?>
<svg version="1.1" id="&#x56FE;&#x5C42;_1" xmlns="http://www.w3.org/2000/svg" xmlns:xlink="http://www.w3.org/1999/xlink" x="0px"
	 y="0px" viewBox="0 0 24 24" style="enable-background:new 0 0 24 24;" xml:space="preserve">
<path style="fill:#333333;" d="M12,20c-1.93,0-3.5-1.57-3.5-3.5S10.07,13,12,13s3.5,1.57,3.5,3.5S13.93,20,12,20z M12,14
	c-1.378,0-2.5,1.121-2.5,2.5S10.622,19,12,19c1.379,0,2.5-1.121,2.5-2.5S13.379,14,12,14z"/>
<path style="fill:#333333;" d="M12,8.5c-1.103,0-2-0.897-2-2s0.897-2,2-2c1.103,0,2,0.897,2,2S13.103,8.5,12,8.5z M12,5.5
	c-0.551,0-1,0.449-1,1s0.449,1,1,1c0.552,0,1-0.449,1-1S12.552,5.5,12,5.5z"/>
<rect x="11.5" y="20" style="fill:#333333;" width="1" height="2"/>
<rect x="7.459" y="10.5" transform="matrix(0.1641 -0.9864 0.9864 0.1641 -2.0738 19.5528)" style="fill:#333333;" width="6.083" height="1"/>
<rect x="13" y="7.959" transform="matrix(0.9864 -0.1644 0.1644 0.9864 -1.6247 2.3691)" style="fill:#333333;" width="1" height="6.083"/>
<rect x="6.846" y="19.75" transform="matrix(0.3945 -0.9189 0.9189 0.3945 -13.3095 20.3015)" style="fill:#333333;" width="3.808" height="1"/>
<rect x="14.75" y="18.346" transform="matrix(0.9191 -0.3939 0.3939 0.9191 -6.7438 7.6446)" style="fill:#333333;" width="1.001" height="3.808"/>
<rect x="11.5" y="2" style="fill:#333333;" width="1" height="3"/>
</svg>






