<?xml version="1.0" encoding="iso-8859-1"?>
<svg version="1.1" id="&#x56FE;&#x5C42;_1" xmlns="http://www.w3.org/2000/svg" xmlns:xlink="http://www.w3.org/1999/xlink" x="0px"
	 y="0px" viewBox="0 0 24 24" style="enable-background:new 0 0 24 24;" xml:space="preserve">
<path style="fill:#333333;" d="M9.161,21.152c-1.138,0-2.271-0.429-3.141-1.273l-0.595-0.578c-1.798-1.745-2.172-4.477-0.91-6.642
	l1.843-3.161l1.506-3.332C8.598,4.547,10.222,3.5,12,3.5s3.401,1.047,4.136,2.667l1.53,3.377l1.819,3.116
	c1.263,2.165,0.889,4.896-0.909,6.642l-0.595,0.578c-1.638,1.59-4.209,1.703-5.981,0.267C11.169,20.819,10.164,21.152,9.161,21.152z
	 M8.775,6.58l-1.53,3.377l-1.866,3.207c-1.031,1.767-0.726,3.996,0.742,5.421l0.595,0.578c1.273,1.236,3.273,1.325,4.653,0.207
	c0.366-0.299,0.896-0.297,1.262,0c1.376,1.118,3.379,1.029,4.653-0.207l0.595-0.578c1.468-1.425,1.773-3.654,0.743-5.421
	l-1.843-3.161L15.226,6.58C14.652,5.316,13.387,4.5,12,4.5S9.347,5.316,8.775,6.58L8.775,6.58z"/>
<path style="fill:#333333;" d="M12.485,5.871l-0.971-0.241c0.061-0.246,0.18-1.039,0-1.758c-0.17-0.68-0.827-1.292-1.065-1.472
	l0.6-0.8c0.424,0.318,1.203,1.103,1.436,2.028C12.706,4.511,12.589,5.453,12.485,5.871z"/>
<circle style="fill:#333333;" cx="8" cy="14" r="1"/>
<circle style="fill:#333333;" cx="9" cy="17" r="1"/>
<circle style="fill:#333333;" cx="11.5" cy="15" r="1"/>
</svg>






