<?xml version="1.0" encoding="iso-8859-1"?>
<svg version="1.1" id="&#x56FE;&#x5C42;_1" xmlns="http://www.w3.org/2000/svg" xmlns:xlink="http://www.w3.org/1999/xlink" x="0px"
	 y="0px" viewBox="0 0 24 24" style="enable-background:new 0 0 24 24;" xml:space="preserve">
<g>
	<defs>
		<rect id="SVGID_1_" width="24" height="24"/>
	</defs>
	<clipPath id="SVGID_00000088105886216312893810000012453793566021073541_">
		<use xlink:href="#SVGID_1_"  style="overflow:visible;"/>
	</clipPath>
	<g style="clip-path:url(#SVGID_00000088105886216312893810000012453793566021073541_);">
		<path style="fill:#333333;" d="M13.08,22.503c-0.037,0-0.074-0.002-0.111-0.004c-0.656-0.041-1.297-0.412-1.852-1.072
			c-1.332-1.585-1.95-4.452-1.614-7.482c0.511-4.6,3.491-8.122,3.617-8.27l0.352-0.41l0.382,0.382C14.002,5.795,17.5,9.346,17.5,14
			c0,3.582-1.334,6.438-2.656,7.68C14.27,22.22,13.662,22.503,13.08,22.503z M13.527,6.778c-0.789,1.066-2.655,3.899-3.03,7.277
			c-0.368,3.311,0.516,5.693,1.385,6.728c0.375,0.446,0.772,0.694,1.149,0.718c0.32,0.018,0.729-0.174,1.128-0.55
			C15.287,19.893,16.5,17.266,16.5,14C16.5,10.64,14.406,7.815,13.527,6.778z"/>
		<path style="fill:#333333;" d="M21.475,12.158l-0.949-0.316c0.008-0.022,0.734-2.232,0.977-4.888
			c0.112-1.222,0.012-3.333-1.074-3.491c-0.368-0.054-0.834,0.051-1.292,0.26c0.653,0.717,1.082,1.615,0.844,2.418
			c-0.268,0.902-0.913,1.47-1.684,1.483c-0.009,0-0.018,0-0.026,0c-0.775,0-1.441-0.56-1.744-1.467
			c-0.224-0.673-0.028-1.425,0.552-2.118c0.118-0.142,0.249-0.277,0.39-0.404c-0.666-0.399-1.307-0.5-1.695-0.248
			c-1.309,0.846-1.781,2.711-1.786,2.73l-0.972-0.237c0.022-0.092,0.567-2.268,2.215-3.333c0.807-0.52,1.989-0.34,3.108,0.464
			c0.743-0.418,1.574-0.636,2.235-0.539c1.705,0.249,2.112,2.525,1.926,4.571C22.244,9.821,21.506,12.063,21.475,12.158z
			 M18.27,4.264c-0.157,0.129-0.302,0.27-0.426,0.418c-0.202,0.241-0.519,0.712-0.369,1.159c0.162,0.489,0.449,0.76,0.805,0.783
			c0.318-0.005,0.603-0.299,0.741-0.767C19.139,5.458,18.823,4.819,18.27,4.264z"/>
		<path style="fill:#333333;" d="M3.503,18.596c-0.005,0-0.009,0-0.014,0c-0.791-0.003-1.437-0.269-1.868-0.77
			c-1.467-1.704,0.082-5.736,3.525-9.18c3.628-3.628,8.215-3.165,8.409-3.144L14,5.552V6c0,0.171-0.041,4.235-3.624,8.329
			C8.038,17.002,5.469,18.596,3.503,18.596z M12.925,6.478c-1.243,0-4.469,0.274-7.071,2.876c-3.579,3.579-4.317,6.842-3.475,7.82
			c0.301,0.35,0.777,0.428,1.124,0.422c1.301,0,3.588-1.03,6.121-3.925c2.634-3.011,3.213-6.046,3.341-7.193
			C12.951,6.478,12.938,6.478,12.925,6.478z"/>
		<circle style="fill:#333333;" cx="13.622" cy="13.704" r="1.25"/>
		<circle style="fill:#333333;" cx="13.122" cy="17.204" r="1.25"/>
	</g>
</g>
</svg>






