<?xml version="1.0" encoding="iso-8859-1"?>
<svg version="1.1" id="&#x56FE;&#x5C42;_1" xmlns="http://www.w3.org/2000/svg" xmlns:xlink="http://www.w3.org/1999/xlink" x="0px"
	 y="0px" viewBox="0 0 24 24" style="enable-background:new 0 0 24 24;" xml:space="preserve">
<g>
	<defs>
		<rect id="SVGID_1_" width="24" height="24"/>
	</defs>
	<clipPath id="SVGID_00000100358442336137453160000015082107673856181134_">
		<use xlink:href="#SVGID_1_"  style="overflow:visible;"/>
	</clipPath>
	<g style="clip-path:url(#SVGID_00000100358442336137453160000015082107673856181134_);">
		
			<rect x="17" y="3.671" transform="matrix(0.7071 -0.7071 0.7071 0.7071 0.5298 14.278)" style="fill:#333333;" width="1" height="5.657"/>
		<path style="fill:#333333;" d="M2.362,21.637l1.178-5.884L18,1.293L22.707,6L8.246,20.46L2.362,21.637z M4.46,16.245l-0.824,4.116
			l4.116-0.823L21.293,6L18,2.707L4.46,16.245z"/>
		
			<rect x="17" y="3.671" transform="matrix(0.7071 -0.7071 0.7071 0.7071 0.5298 14.278)" style="fill:#333333;" width="1" height="5.657"/>
		
			<rect x="5.75" y="15.274" transform="matrix(0.7071 -0.7071 0.7071 0.7071 -10.72 9.6176)" style="fill:#333333;" width="1" height="4.95"/>
		
			<rect x="4.222" y="11.499" transform="matrix(0.7071 -0.7071 0.7071 0.7071 -4.9701 11.9996)" style="fill:#333333;" width="15.556" height="1"/>
	</g>
</g>
</svg>






