<?xml version="1.0" encoding="iso-8859-1"?>
<svg version="1.1" id="&#x56FE;&#x5C42;_1" xmlns="http://www.w3.org/2000/svg" xmlns:xlink="http://www.w3.org/1999/xlink" x="0px"
	 y="0px" viewBox="0 0 24 24" style="enable-background:new 0 0 24 24;" xml:space="preserve">
<path style="fill:#333333;" d="M12.001,22.527l-0.158-0.053C6.08,20.555,2.5,15.78,2.5,10.014V4.253l9.504-2.774L21.5,4.253v5.764
	c0,5.765-3.579,10.539-9.341,12.458L12.001,22.527z M3.5,5.003v5.011c0,5.269,3.252,9.645,8.501,11.458
	c5.247-1.812,8.499-6.188,8.499-11.455V5.003l-8.496-2.482L3.5,5.003z"/>
<path style="fill:#333333;" d="M12,12c-1.654,0-3-1.346-3-3s1.346-3,3-3s3,1.346,3,3S13.654,12,12,12z M12,7c-1.103,0-2,0.897-2,2
	s0.897,2,2,2c1.103,0,2-0.897,2-2S13.103,7,12,7z"/>
<path style="fill:#333333;" d="M16.5,15.5h-1c0-1.93-1.57-3.5-3.5-3.5s-3.5,1.57-3.5,3.5h-1c0-2.481,2.019-4.5,4.5-4.5
	S16.5,13.019,16.5,15.5z"/>
</svg>






