<?xml version="1.0" encoding="iso-8859-1"?>
<svg version="1.1" id="&#x56FE;&#x5C42;_1" xmlns="http://www.w3.org/2000/svg" xmlns:xlink="http://www.w3.org/1999/xlink" x="0px"
	 y="0px" viewBox="0 0 24 24" style="enable-background:new 0 0 24 24;" xml:space="preserve">
<path style="fill:#333333;" d="M12,10.5c-2.206,0-4-1.794-4-4s1.794-4,4-4c2.206,0,4,1.794,4,4S14.206,10.5,12,10.5z M12,3.5
	c-1.654,0-3,1.346-3,3s1.346,3,3,3s3-1.346,3-3S13.654,3.5,12,3.5z"/>
<path style="fill:#333333;" d="M21.5,21.5h-19v-1.1c0-2.317,0-3.48,0.49-4.443c0.435-0.853,1.115-1.532,1.967-1.967
	C5.919,13.5,7.083,13.5,9.4,13.5h5.2c2.317,0,3.48,0,4.443,0.49c0.853,0.435,1.532,1.114,1.967,1.966
	c0.49,0.964,0.49,2.127,0.49,4.444V21.5z M3.5,20.5h17v-0.1c0-2.157,0-3.24-0.381-3.99c-0.338-0.662-0.867-1.191-1.53-1.529
	C17.84,14.5,16.757,14.5,14.6,14.5H9.4c-2.158,0-3.24,0-3.989,0.381c-0.663,0.338-1.192,0.867-1.53,1.53
	C3.5,17.16,3.5,18.243,3.5,20.4V20.5z"/>
</svg>






