<?xml version="1.0" encoding="iso-8859-1"?>
<svg version="1.1" id="&#x56FE;&#x5C42;_1" xmlns="http://www.w3.org/2000/svg" xmlns:xlink="http://www.w3.org/1999/xlink" x="0px"
	 y="0px" viewBox="0 0 24 24" style="enable-background:new 0 0 24 24;" xml:space="preserve">
<path style="fill:#333333;" d="M12,9.5c-2.206,0-4-1.794-4-4s1.794-4,4-4c2.206,0,4,1.794,4,4S14.206,9.5,12,9.5z M12,2.5
	c-1.654,0-3,1.346-3,3s1.346,3,3,3s3-1.346,3-3S13.654,2.5,12,2.5z"/>
<path style="fill:#333333;" d="M2.5,20.5h-1c0-4.687,4.262-8.5,9.5-8.5v1C6.313,13,2.5,16.364,2.5,20.5z"/>
<path style="fill:#333333;" d="M17.5,21.586l-0.261-0.159C17.087,21.334,13.5,19.096,13.5,14.6c0-0.315,0-0.903,3.854-2.078
	l0.146-0.044l0.146,0.044C21.5,13.696,21.5,14.284,21.5,14.6c0,4.496-3.587,6.734-3.739,6.827L17.5,21.586z M14.501,14.733
	c0.06,3.177,2.235,5.084,2.999,5.657c0.764-0.573,2.939-2.48,2.999-5.657c-0.354-0.28-1.756-0.823-2.999-1.21
	C16.257,13.91,14.855,14.453,14.501,14.733z"/>
</svg>






