<?xml version="1.0" encoding="iso-8859-1"?>
<svg version="1.1" id="&#x56FE;&#x5C42;_1" xmlns="http://www.w3.org/2000/svg" xmlns:xlink="http://www.w3.org/1999/xlink" x="0px"
	 y="0px" viewBox="0 0 24 24" style="enable-background:new 0 0 24 24;" xml:space="preserve">
<path style="fill:#333333;" d="M9.5,10.5c-2.206,0-4-1.794-4-4s1.794-4,4-4s4,1.794,4,4S11.706,10.5,9.5,10.5z M9.5,3.5
	c-1.654,0-3,1.346-3,3s1.346,3,3,3s3-1.346,3-3S11.154,3.5,9.5,3.5z"/>
<rect x="18" y="15" style="fill:#333333;" width="1" height="5"/>
<polygon style="fill:#333333;" points="18.5,20.707 16.146,18.354 16.854,17.646 18.5,19.293 20.146,17.646 20.854,18.354 "/>
<path style="fill:#333333;" d="M13.5,21.5h-11v-1.1c0-2.317,0-3.48,0.49-4.443c0.435-0.853,1.115-1.532,1.967-1.967
	C5.919,13.5,7.083,13.5,9.4,13.5h4.1v1H9.4c-2.158,0-3.24,0-3.989,0.381c-0.663,0.338-1.192,0.867-1.53,1.53
	C3.5,17.16,3.5,18.243,3.5,20.4v0.1h10V21.5z"/>
</svg>






