<?xml version="1.0" encoding="iso-8859-1"?>
<svg version="1.1" id="&#x56FE;&#x5C42;_1" xmlns="http://www.w3.org/2000/svg" xmlns:xlink="http://www.w3.org/1999/xlink" x="0px"
	 y="0px" viewBox="0 0 24 24" style="enable-background:new 0 0 24 24;" xml:space="preserve">
<path style="fill:#333333;" d="M12,10.5c-2.206,0-4-1.794-4-4s1.794-4,4-4c2.206,0,4,1.794,4,4S14.206,10.5,12,10.5z M12,3.5
	c-1.654,0-3,1.346-3,3s1.346,3,3,3s3-1.346,3-3S13.654,3.5,12,3.5z"/>
<path style="fill:#333333;" d="M5.938,9.928C4.725,9.197,4,7.916,4,6.5c0-1.307,0.641-2.534,1.714-3.283l0.572,0.82
	C5.481,4.599,5,5.52,5,6.5c0,1.062,0.543,2.023,1.454,2.572L5.938,9.928z"/>
<path style="fill:#333333;" d="M18.286,9.783l-0.572-0.82C18.52,8.401,19,7.48,19,6.5s-0.48-1.901-1.286-2.462l0.572-0.82
	C19.359,3.965,20,5.192,20,6.5S19.359,9.035,18.286,9.783z"/>
<path style="fill:#333333;" d="M18.5,21.5h-13V20c0-1.928,0-2.896,0.343-3.722c0.459-1.11,1.324-1.975,2.435-2.436
	C9.105,13.5,10.073,13.5,12,13.5c1.928,0,2.896,0,3.722,0.343c1.11,0.46,1.976,1.325,2.436,2.436C18.5,17.104,18.5,18.072,18.5,20
	V21.5z M6.5,20.5h11V20c0-1.795,0-2.696-0.267-3.339c-0.357-0.864-1.03-1.537-1.895-1.895C14.696,14.5,13.795,14.5,12,14.5
	s-2.696,0-3.339,0.267c-0.864,0.358-1.537,1.031-1.894,1.895C6.5,17.304,6.5,18.205,6.5,20V20.5z"/>
<path style="fill:#333333;" d="M22.5,21h-1v-0.6c0-2.157,0-3.24-0.381-3.989c-0.339-0.663-0.867-1.192-1.53-1.529l0.453-0.891
	c0.853,0.433,1.533,1.113,1.968,1.966c0.49,0.963,0.49,2.126,0.49,4.443V21z"/>
<path style="fill:#333333;" d="M2.5,21h-1v-0.6c0-2.317,0-3.48,0.491-4.443c0.434-0.853,1.114-1.532,1.967-1.966l0.453,0.891
	c-0.663,0.338-1.191,0.866-1.529,1.529C2.5,17.16,2.5,18.243,2.5,20.4V21z"/>
</svg>






