<?xml version="1.0" encoding="iso-8859-1"?>
<svg version="1.1" id="&#x56FE;&#x5C42;_1" xmlns="http://www.w3.org/2000/svg" xmlns:xlink="http://www.w3.org/1999/xlink" x="0px"
	 y="0px" viewBox="0 0 24 24" style="enable-background:new 0 0 24 24;" xml:space="preserve">
<path style="fill:#333333;" d="M9.5,10.5c-2.206,0-4-1.794-4-4s1.794-4,4-4s4,1.794,4,4S11.706,10.5,9.5,10.5z M9.5,3.5
	c-1.654,0-3,1.346-3,3s1.346,3,3,3s3-1.346,3-3S11.154,3.5,9.5,3.5z"/>
<path style="fill:#333333;" d="M17.5,21.5h-16v-1.1c0-2.317,0-3.48,0.49-4.443c0.435-0.853,1.115-1.532,1.967-1.967
	C4.919,13.5,6.083,13.5,8.4,13.5h2.2c2.317,0,3.48,0,4.443,0.49c0.853,0.435,1.532,1.114,1.967,1.966
	c0.49,0.964,0.49,2.127,0.49,4.444V21.5z M2.5,20.5h14v-0.1c0-2.157,0-3.24-0.381-3.99c-0.338-0.662-0.867-1.191-1.53-1.529
	C13.84,14.5,12.758,14.5,10.6,14.5H8.4c-2.158,0-3.24,0-3.989,0.381c-0.663,0.338-1.192,0.867-1.53,1.53
	C2.5,17.16,2.5,18.243,2.5,20.4V20.5z"/>
<path style="fill:none;" d="M16,9.5h6H16z"/>
<rect x="16" y="9" style="fill:#333333;" width="6" height="1"/>
</svg>






