<?xml version="1.0" encoding="iso-8859-1"?>
<svg version="1.1" id="&#x56FE;&#x5C42;_1" xmlns="http://www.w3.org/2000/svg" xmlns:xlink="http://www.w3.org/1999/xlink" x="0px"
	 y="0px" viewBox="0 0 24 24" style="enable-background:new 0 0 24 24;" xml:space="preserve">
<path style="fill:#333333;" d="M12,22.207L9.293,19.5H1.5v-16h21v16h-7.793L12,22.207z M2.5,18.5h7.207L12,20.793l2.293-2.293H21.5
	v-14h-19V18.5z"/>
<path style="fill:#333333;" d="M12,12.5c-1.654,0-3-1.346-3-3s1.346-3,3-3s3,1.346,3,3S13.654,12.5,12,12.5z M12,7.5
	c-1.103,0-2,0.897-2,2s0.897,2,2,2c1.103,0,2-0.897,2-2S13.103,7.5,12,7.5z"/>
<path style="fill:#333333;" d="M17,16h-1c0-1.93-1.794-3.5-4-3.5c-2.206,0-4,1.57-4,3.5H7c0-2.481,2.243-4.5,5-4.5S17,13.519,17,16z
	"/>
</svg>






