<?xml version="1.0" encoding="iso-8859-1"?>
<svg version="1.1" id="&#x56FE;&#x5C42;_1" xmlns="http://www.w3.org/2000/svg" xmlns:xlink="http://www.w3.org/1999/xlink" x="0px"
	 y="0px" viewBox="0 0 24 24" style="enable-background:new 0 0 24 24;" xml:space="preserve">
<path style="fill:#333333;" d="M5.5,8.5c-1.654,0-3-1.346-3-3s1.346-3,3-3s3,1.346,3,3S7.154,8.5,5.5,8.5z M5.5,3.5
	c-1.103,0-2,0.897-2,2s0.897,2,2,2s2-0.897,2-2S6.603,3.5,5.5,3.5z"/>
<path style="fill:#333333;" d="M18.5,21.5c-1.654,0-3-1.346-3-3s1.346-3,3-3s3,1.346,3,3S20.154,21.5,18.5,21.5z M18.5,16.5
	c-1.103,0-2,0.897-2,2s0.897,2,2,2s2-0.897,2-2S19.603,16.5,18.5,16.5z"/>
<rect x="-0.728" y="11.5" transform="matrix(0.7071 -0.7071 0.7071 0.7071 -4.9706 12)" style="fill:#333333;" width="25.456" height="1"/>
</svg>






