<?xml version="1.0" encoding="iso-8859-1"?>
<svg version="1.1" id="&#x56FE;&#x5C42;_1" xmlns="http://www.w3.org/2000/svg" xmlns:xlink="http://www.w3.org/1999/xlink" x="0px"
	 y="0px" viewBox="0 0 24 24" style="enable-background:new 0 0 24 24;" xml:space="preserve">
<path style="fill:#333333;" d="M12,22.5C6.21,22.5,1.5,17.79,1.5,12C1.5,6.21,6.21,1.5,12,1.5v1c-5.238,0-9.5,4.262-9.5,9.5
	s4.262,9.5,9.5,9.5s9.5-4.262,9.5-9.5c0-1.261-0.242-2.484-0.721-3.636c-0.12-0.289-0.254-0.57-0.399-0.844l0.883-0.471
	c0.161,0.302,0.309,0.612,0.44,0.931C22.231,9.255,22.5,10.607,22.5,12C22.5,17.79,17.79,22.5,12,22.5z"/>
<path style="fill:#333333;" d="M17.5,5.5c-1.379,0-2.5-0.897-2.5-2s1.121-2,2.5-2s2.5,0.897,2.5,2S18.879,5.5,17.5,5.5z M17.5,2.5
	c-0.813,0-1.5,0.458-1.5,1s0.687,1,1.5,1s1.5-0.458,1.5-1S18.313,2.5,17.5,2.5z"/>
<path style="fill:#333333;" d="M12,16c-2.206,0-4-1.794-4-4c0-2.206,1.794-4,4-4c2.206,0,4,1.794,4,4C16,14.206,14.206,16,12,16z
	 M12,9c-1.654,0-3,1.346-3,3s1.346,3,3,3s3-1.346,3-3S13.654,9,12,9z"/>
<rect x="15" y="3.25" style="fill:#333333;" width="1" height="8.75"/>
</svg>






