<?xml version="1.0" encoding="iso-8859-1"?>
<svg version="1.1" id="&#x56FE;&#x5C42;_1" xmlns="http://www.w3.org/2000/svg" xmlns:xlink="http://www.w3.org/1999/xlink" x="0px"
	 y="0px" viewBox="0 0 24 24" style="enable-background:new 0 0 24 24;" xml:space="preserve">
<path style="fill:#333333;" d="M14.5,7.5h-5c-1.103,0-2-0.897-2-2v-2c0-1.103,0.897-2,2-2h5c1.103,0,2,0.897,2,2v2
	C16.5,6.603,15.603,7.5,14.5,7.5z M9.5,2.5c-0.551,0-1,0.449-1,1v2c0,0.551,0.449,1,1,1h5c0.552,0,1-0.449,1-1v-2
	c0-0.551-0.448-1-1-1H9.5z"/>
<path style="fill:#333333;" d="M15,22.5H9c-3.584,0-6.5-2.916-6.5-6.5S5.416,9.5,9,9.5h6c3.584,0,6.5,2.916,6.5,6.5
	S18.584,22.5,15,22.5z M9,10.5c-3.033,0-5.5,2.468-5.5,5.5s2.467,5.5,5.5,5.5h6c3.032,0,5.5-2.468,5.5-5.5s-2.468-5.5-5.5-5.5H9z"/>
<path style="fill:#333333;" d="M17.794,17.859c-1.826,0-3.851-0.68-5.524-1.241l-0.428-0.144c-3.188-1.063-7.221-1.229-8.449,0.335
	L2.607,16.19c1.898-2.41,7.078-1.488,9.551-0.665l0.431,0.145c2.82,0.946,6.334,2.127,8.021,0.018l0.781,0.625
	C20.471,17.463,19.189,17.859,17.794,17.859z"/>
<path style="fill:#333333;" d="M12.5,4.5C12.5,4.776,12.276,5,12,5s-0.5-0.224-0.5-0.5C11.5,4.224,11.724,4,12,4
	S12.5,4.224,12.5,4.5z"/>
</svg>






