<?xml version="1.0" encoding="iso-8859-1"?>
<svg version="1.1" id="&#x56FE;&#x5C42;_1" xmlns="http://www.w3.org/2000/svg" xmlns:xlink="http://www.w3.org/1999/xlink" x="0px"
	 y="0px" viewBox="0 0 24 24" style="enable-background:new 0 0 24 24;" xml:space="preserve">
<path style="fill:#333333;" d="M20.5,21h-17C2.673,21,2,20.327,2,19.5v-10C2,8.673,2.673,8,3.5,8h17C21.327,8,22,8.673,22,9.5v10
	C22,20.327,21.327,21,20.5,21z M3.5,9C3.224,9,3,9.224,3,9.5v10C3,19.775,3.224,20,3.5,20h17c0.275,0,0.5-0.225,0.5-0.5v-10
	C21,9.224,20.775,9,20.5,9H3.5z"/>
<path style="fill:#333333;" d="M17.5,9h-11V3h11V9z M7.5,8h9V4h-9V8z"/>
<path style="fill:#333333;" d="M15.5,17h-7v-5h7V17z M9.5,16h5v-3h-5V16z"/>
<rect x="15" y="14" style="fill:#333333;" width="6.5" height="1"/>
<rect x="2.5" y="14" style="fill:#333333;" width="6.5" height="1"/>
<rect x="2" y="12" style="fill:#333333;" width="1" height="5"/>
<rect x="21" y="12" style="fill:#333333;" width="1" height="5"/>
</svg>






