<?xml version="1.0" encoding="iso-8859-1"?>
<svg version="1.1" id="&#x56FE;&#x5C42;_1" xmlns="http://www.w3.org/2000/svg" xmlns:xlink="http://www.w3.org/1999/xlink" x="0px"
	 y="0px" viewBox="0 0 24 24" style="enable-background:new 0 0 24 24;" xml:space="preserve">
<path style="fill:#333333;" d="M3.554,22.226c-1.029-2.035-1.551-3.793-1.551-5.224c0-2.115,0.506-3.798,1.593-5.295
	c0.294-0.405,0.65-0.771,1.027-1.158c0.924-0.949,1.879-1.931,1.879-3.546c0-1.503-0.949-3.057-2.822-4.619L4.32,1.616
	c2.111,1.76,3.181,3.572,3.181,5.386c0,2.021-1.199,3.253-2.163,4.244c-0.351,0.36-0.682,0.701-0.934,1.048
	c-0.957,1.318-1.402,2.814-1.402,4.708c0,1.272,0.486,2.878,1.444,4.772L3.554,22.226z"/>
<path style="fill:#333333;" d="M20.448,22.226l-0.893-0.451c0.958-1.895,1.443-3.5,1.443-4.772c0-1.895-0.445-3.391-1.401-4.708
	c-0.252-0.347-0.583-0.688-0.935-1.048c-0.964-0.99-2.163-2.223-2.163-4.244c0-1.814,1.07-3.627,3.182-5.387l0.641,0.769
	C18.449,3.945,17.5,5.499,17.5,7.002c0,1.615,0.956,2.597,1.88,3.546c0.377,0.387,0.733,0.753,1.026,1.158
	c1.087,1.497,1.593,3.179,1.593,5.295C21.999,18.432,21.478,20.189,20.448,22.226z"/>
<path style="fill:#333333;" d="M12.5,22.001l-1-0.002c0.003-2.479,0.003-3.986,0-4.518c-0.003-0.64-0.574-1.319-1.607-1.917
	C9.156,15.14,8.2,14.979,7.049,15.089l-0.095-0.996c1.361-0.13,2.518,0.074,3.438,0.606c1.735,1.002,2.104,2.063,2.107,2.776
	C12.503,18.009,12.503,19.518,12.5,22.001z"/>
<path style="fill:#333333;" d="M12.504,17.481l-1-0.006c0.003-0.714,0.372-1.774,2.107-2.776c0.919-0.532,2.074-0.735,3.438-0.606
	l-0.096,0.996c-1.149-0.112-2.106,0.05-2.843,0.476C13.078,16.161,12.507,16.842,12.504,17.481z"/>
</svg>






