<?xml version="1.0" encoding="iso-8859-1"?>
<svg version="1.1" id="&#x56FE;&#x5C42;_1" xmlns="http://www.w3.org/2000/svg" xmlns:xlink="http://www.w3.org/1999/xlink" x="0px"
	 y="0px" viewBox="0 0 24 24" style="enable-background:new 0 0 24 24;" xml:space="preserve">
<path style="fill:#333333;" d="M12,9.5c-2.206,0-4-1.794-4-4s1.794-4,4-4c2.206,0,4,1.794,4,4S14.206,9.5,12,9.5z M12,2.5
	c-1.654,0-3,1.346-3,3s1.346,3,3,3s3-1.346,3-3S13.654,2.5,12,2.5z"/>
<path style="fill:#333333;" d="M2.5,20.5h-1c0-4.687,4.262-8.5,9.5-8.5v1C6.313,13,2.5,16.364,2.5,20.5z"/>
<path style="fill:#333333;" d="M17.5,21.536l-0.181-0.07c-1.371-0.531-3.819-2.73-3.819-5.223c0-1.513,1.088-2.743,2.425-2.743
	c0.585,0,1.142,0.237,1.575,0.656c0.434-0.419,0.99-0.656,1.575-0.656c1.337,0,2.425,1.23,2.425,2.743
	c0,2.492-2.448,4.691-3.819,5.223L17.5,21.536z M15.925,14.5c-0.786,0-1.425,0.782-1.425,1.743c0,1.873,1.884,3.67,3,4.212
	c1.116-0.542,3-2.339,3-4.212c0-0.961-0.639-1.743-1.425-1.743c-0.448,0-0.878,0.267-1.147,0.712L17.5,15.919l-0.428-0.707
	C16.803,14.767,16.373,14.5,15.925,14.5z"/>
</svg>






