<?xml version="1.0" encoding="iso-8859-1"?>
<svg version="1.1" id="&#x56FE;&#x5C42;_1" xmlns="http://www.w3.org/2000/svg" xmlns:xlink="http://www.w3.org/1999/xlink" x="0px"
	 y="0px" viewBox="0 0 24 24" style="enable-background:new 0 0 24 24;" xml:space="preserve">
<path style="fill:#333333;" d="M1.5,22.61V16H2H1.5V8H2H1.5V1.39L8.598,2.81L8.5,3.3l0.098-0.49L22.5,5.59V10H22h0.5v4H22h0.5v4.41
	L8.598,21.19L8.5,20.7l0.098,0.49L1.5,22.61z M2.5,16.452v4.938l5.5-1.1v-4.388L2.5,16.452z M9,15.803v4.287l6-1.2v-3.688L9,15.803z
	 M15.5,19.3L15.5,19.3z M16,15.103v3.587l5.5-1.1v-3.037L16,15.103z M2.5,8.553v6.895l5.5-0.55V9.103L2.5,8.553z M9,9.203v5.595
	l6-0.601V9.803L9,9.203z M16,9.902v4.195l5.5-0.55v-3.095L16,9.902z M16,8.897l5.5,0.55V6.41L16,5.31V8.897z M9,8.197l6,0.6V5.11
	l-6-1.2V8.197z M2.5,7.547L8,8.098V3.71l-5.5-1.1V7.547z M15.5,4.7L15.5,4.7z"/>
</svg>






