<?xml version="1.0" encoding="iso-8859-1"?>
<svg version="1.1" id="&#x56FE;&#x5C42;_1" xmlns="http://www.w3.org/2000/svg" xmlns:xlink="http://www.w3.org/1999/xlink" x="0px"
	 y="0px" viewBox="0 0 24 24" style="enable-background:new 0 0 24 24;" xml:space="preserve">
<path style="fill:#333333;" d="M21.5,21.5h-19V10.793L5.793,7.5h8.984l4.5-5H21.5V21.5z M3.5,20.5h17v-17h-0.777l-4.5,5H6.207
	L3.5,11.207V20.5z"/>
<polygon style="fill:#333333;" points="6.354,8.354 5.646,7.646 10.793,2.5 20,2.5 20,3.5 11.207,3.5 "/>
<path style="fill:#333333;" d="M11.887,18c-0.848,0-1.676-0.566-2.111-1.444c-0.417-0.843-0.362-1.745,0.147-2.414
	c0.683-0.896,1.217-2.159,1.503-2.836l0.862-0.103c0.541,0.731,1.698,2.538,2.078,3.534c0.254,0.67,0.142,1.43-0.311,2.086
	C13.556,17.549,12.725,18,11.887,18z M11.986,12.524c-0.317,0.694-0.747,1.539-1.267,2.223l0,0c-0.274,0.36-0.292,0.87-0.047,1.365
	C10.936,16.644,11.424,17,11.887,17c0.513,0,1.029-0.286,1.346-0.746c0.263-0.381,0.335-0.804,0.198-1.162
	C13.186,14.444,12.518,13.331,11.986,12.524z"/>
<rect x="1.275" y="5.25" transform="matrix(0.7071 -0.7071 0.7071 0.7071 -2.9675 4.3358)" style="fill:#333333;" width="4.95" height="1"/>
</svg>






