<?xml version="1.0" encoding="iso-8859-1"?>
<svg version="1.1" id="&#x56FE;&#x5C42;_1" xmlns="http://www.w3.org/2000/svg" xmlns:xlink="http://www.w3.org/1999/xlink" x="0px"
	 y="0px" viewBox="0 0 24 24" style="enable-background:new 0 0 24 24;" xml:space="preserve">
<path style="fill:#333333;" d="M19,22.5H5c-0.827,0-1.5-0.673-1.5-1.5v-6.5h17V21C20.5,21.827,19.827,22.5,19,22.5z M4.5,15.5V21
	c0,0.275,0.224,0.5,0.5,0.5h14c0.275,0,0.5-0.225,0.5-0.5v-5.5H4.5z"/>
<path style="fill:#333333;" d="M20.5,15h-1V3c0-0.276-0.225-0.5-0.5-0.5H5C4.724,2.5,4.5,2.724,4.5,3v12h-1V3
	c0-0.827,0.673-1.5,1.5-1.5h14c0.827,0,1.5,0.673,1.5,1.5V15z"/>
<rect x="11" y="18" style="fill:#333333;" width="2" height="1"/>
</svg>






