<?xml version="1.0" encoding="iso-8859-1"?>
<svg version="1.1" id="&#x56FE;&#x5C42;_1" xmlns="http://www.w3.org/2000/svg" xmlns:xlink="http://www.w3.org/1999/xlink" x="0px"
	 y="0px" viewBox="0 0 24 24" style="enable-background:new 0 0 24 24;" xml:space="preserve">
<path style="fill:#333333;" d="M18.57,20.692c-0.251,0-0.505-0.041-0.754-0.125c-2.772-0.937-6.6-2.573-9.083-5.058
	c-2.485-2.484-4.122-6.311-5.057-9.083C3.434,5.71,3.546,4.95,3.982,4.342c0.449-0.626,1.189-1,1.979-1h2.536
	c0.544,0,1.047,0.296,1.312,0.772l1.223,2.204c0.24,0.433,0.251,0.956,0.03,1.398L9.967,9.91c0.118,0.438,0.535,1.711,1.595,2.771
	c1.06,1.06,2.329,1.473,2.765,1.59l2.193-1.097c0.444-0.221,0.97-0.209,1.4,0.031l2.21,1.228c0.476,0.265,0.771,0.767,0.771,1.312
	v2.536c0,0.79-0.374,1.53-1,1.98C19.504,20.546,19.042,20.692,18.57,20.692z M5.962,4.343c-0.476,0-0.901,0.212-1.167,0.583
	C4.548,5.269,4.486,5.699,4.624,6.107c0.901,2.671,2.469,6.348,4.817,8.695c2.347,2.348,6.024,3.915,8.696,4.817
	c0.407,0.138,0.838,0.074,1.181-0.171c0.37-0.267,0.583-0.691,0.583-1.168v-2.536c0-0.182-0.099-0.349-0.257-0.437l-2.21-1.229
	c-0.145-0.083-0.319-0.084-0.468-0.011l-2.507,1.253l-0.166-0.031c-0.078-0.015-1.919-0.382-3.438-1.902
	c-1.52-1.52-1.893-3.365-1.908-3.443L8.914,9.779l1.254-2.509c0.074-0.147,0.07-0.322-0.01-0.466L8.936,4.6
	C8.847,4.441,8.68,4.343,8.498,4.343H5.962z"/>
</svg>






