<?xml version="1.0" encoding="iso-8859-1"?>
<svg version="1.1" id="&#x56FE;&#x5C42;_1" xmlns="http://www.w3.org/2000/svg" xmlns:xlink="http://www.w3.org/1999/xlink" x="0px"
	 y="0px" viewBox="0 0 24 24" style="enable-background:new 0 0 24 24;" xml:space="preserve">
<path style="fill:#333333;" d="M19.5,21.5h-15c-1.103,0-2-0.897-2-2v-15c0-1.103,0.897-2,2-2h15c1.103,0,2,0.897,2,2v15
	C21.5,20.603,20.603,21.5,19.5,21.5z M4.5,3.5c-0.551,0-1,0.449-1,1v15c0,0.552,0.449,1,1,1h15c0.552,0,1-0.448,1-1v-15
	c0-0.551-0.448-1-1-1H4.5z"/>
<path style="fill:#333333;" d="M12,18.5c-3.309,0-6-2.691-6-6s2.691-6,6-6s6,2.691,6,6S15.309,18.5,12,18.5z M12,7.5
	c-2.757,0-5,2.243-5,5s2.243,5,5,5s5-2.243,5-5S14.757,7.5,12,7.5z"/>
<path style="fill:#333333;" d="M12,11.5L12,11.5c0.552,0,1,0.448,1,1l0,0c0,0.552-0.448,1-1,1l0,0c-0.552,0-1-0.448-1-1l0,0
	C11,11.948,11.448,11.5,12,11.5z"/>
<path style="fill:#333333;" d="M18,17L18,17c0.552,0,1,0.448,1,1l0,0c0,0.552-0.448,1-1,1l0,0c-0.552,0-1-0.448-1-1l0,0
	C17,17.448,17.448,17,18,17z"/>
<rect x="13.172" y="7.5" transform="matrix(0.7071 -0.7071 0.7071 0.7071 -0.9706 13.6569)" style="fill:#333333;" width="5.657" height="1"/>
</svg>






