<?xml version="1.0" encoding="iso-8859-1"?>
<svg version="1.1" id="&#x56FE;&#x5C42;_1" xmlns="http://www.w3.org/2000/svg" xmlns:xlink="http://www.w3.org/1999/xlink" x="0px"
	 y="0px" viewBox="0 0 24 24" style="enable-background:new 0 0 24 24;" xml:space="preserve">
<path style="fill:#333333;" d="M17.26,21.746c-0.251,0-0.505-0.041-0.754-0.125c-2.771-0.935-6.597-2.57-9.083-5.057
	c-2.484-2.483-4.121-6.311-5.057-9.083c-0.242-0.718-0.13-1.478,0.307-2.085c0.449-0.625,1.189-0.999,1.979-0.999h2.537
	c0.544,0,1.047,0.296,1.311,0.772l1.223,2.204c0.241,0.434,0.252,0.957,0.03,1.399l-1.096,2.192
	c0.118,0.438,0.535,1.711,1.595,2.772c1.06,1.06,2.329,1.473,2.766,1.589l2.193-1.097c0.442-0.221,0.967-0.208,1.399,0.03
	l2.21,1.229c0.476,0.266,0.771,0.768,0.771,1.312v2.537c0,0.79-0.373,1.53-0.999,1.979C18.194,21.6,17.732,21.746,17.26,21.746z
	 M4.651,5.397c-0.476,0-0.901,0.212-1.167,0.583C3.238,6.322,3.176,6.753,3.313,7.162c0.902,2.671,2.47,6.349,4.817,8.696
	c2.473,2.473,6.51,4.079,8.696,4.816c0.408,0.138,0.838,0.075,1.182-0.171c0.37-0.266,0.582-0.691,0.582-1.167v-2.537
	c0-0.182-0.099-0.349-0.257-0.438l-2.21-1.228c-0.145-0.08-0.319-0.083-0.466-0.011l-2.508,1.255l-0.166-0.032
	c-0.078-0.015-1.919-0.383-3.439-1.902C8.024,12.923,7.651,11.078,7.636,11l-0.033-0.167l1.254-2.509
	c0.074-0.147,0.07-0.322-0.01-0.466L7.625,5.654C7.537,5.496,7.369,5.397,7.188,5.397H4.651z"/>
<polygon style="fill:#333333;" points="17.854,11.354 17.146,10.646 20.793,7 17.146,3.354 17.854,2.646 22.207,7 "/>
<rect x="13.5" y="6.504" style="fill:#333333;" width="8" height="1"/>
</svg>






