<?xml version="1.0" encoding="iso-8859-1"?>
<svg version="1.1" id="&#x56FE;&#x5C42;_1" xmlns="http://www.w3.org/2000/svg" xmlns:xlink="http://www.w3.org/1999/xlink" x="0px"
	 y="0px" viewBox="0 0 24 24" style="enable-background:new 0 0 24 24;" xml:space="preserve">
<path style="fill:#333333;" d="M20,22H4c-1.103,0-2-0.897-2-2V4c0-1.103,0.897-2,2-2h16c1.103,0,2,0.897,2,2v16
	C22,21.103,21.103,22,20,22z M4,3C3.449,3,3,3.449,3,4v16c0,0.552,0.449,1,1,1h16c0.552,0,1-0.448,1-1V4c0-0.551-0.448-1-1-1H4z"/>
<path style="fill:#333333;" d="M10,18.5H5v-13h5V18.5z M6,17.5h3v-11H6V17.5z"/>
<path style="fill:#333333;" d="M19,9.5h-7v-4h7V9.5z M13,8.5h5v-2h-5V8.5z"/>
<circle style="fill:#333333;" cx="12.5" cy="12" r="1"/>
<circle style="fill:#333333;" cx="12.5" cy="15" r="1"/>
<circle style="fill:#333333;" cx="12.5" cy="18" r="1"/>
<circle style="fill:#333333;" cx="15.5" cy="12" r="1"/>
<circle style="fill:#333333;" cx="15.5" cy="15" r="1"/>
<circle style="fill:#333333;" cx="15.5" cy="18" r="1"/>
<circle style="fill:#333333;" cx="18.5" cy="12" r="1"/>
<circle style="fill:#333333;" cx="18.5" cy="15" r="1"/>
<circle style="fill:#333333;" cx="18.5" cy="18" r="1"/>
</svg>






