<?xml version="1.0" encoding="iso-8859-1"?>
<svg version="1.1" id="&#x56FE;&#x5C42;_1" xmlns="http://www.w3.org/2000/svg" xmlns:xlink="http://www.w3.org/1999/xlink" x="0px"
	 y="0px" viewBox="0 0 24 24" style="enable-background:new 0 0 24 24;" xml:space="preserve">
<path style="fill:#333333;" d="M17.76,21.746c-0.251,0-0.505-0.041-0.754-0.125c-2.772-0.937-6.6-2.573-9.083-5.057
	c-2.484-2.483-4.121-6.311-5.057-9.083c-0.242-0.718-0.13-1.478,0.307-2.085c0.449-0.625,1.189-0.999,1.979-0.999h2.537
	c0.544,0,1.047,0.296,1.311,0.772l1.223,2.204c0.241,0.434,0.252,0.957,0.03,1.399l-1.096,2.192
	c0.118,0.438,0.535,1.711,1.595,2.772c1.06,1.06,2.329,1.473,2.766,1.589l2.193-1.097c0.442-0.221,0.966-0.208,1.399,0.03
	l2.21,1.229c0.476,0.266,0.771,0.768,0.771,1.312v2.537c0,0.79-0.373,1.53-0.999,1.979C18.694,21.6,18.232,21.746,17.76,21.746z
	 M5.151,5.397c-0.476,0-0.901,0.212-1.167,0.583C3.738,6.322,3.676,6.753,3.813,7.162c0.902,2.671,2.47,6.349,4.817,8.696
	c2.347,2.347,6.024,3.914,8.696,4.816c0.409,0.138,0.838,0.075,1.182-0.171c0.37-0.266,0.582-0.691,0.582-1.167v-2.537
	c0-0.182-0.099-0.349-0.257-0.438l-2.21-1.228c-0.145-0.08-0.319-0.083-0.466-0.011l-2.508,1.255l-0.166-0.032
	c-0.078-0.015-1.919-0.383-3.439-1.902C8.524,12.923,8.151,11.078,8.136,11l-0.033-0.167l1.254-2.509
	c0.074-0.147,0.07-0.322-0.01-0.466L8.125,5.654C8.037,5.496,7.869,5.397,7.688,5.397H5.151z"/>
<rect x="13.241" y="6.375" transform="matrix(0.7206 -0.6933 0.6933 0.7206 0.1921 14.2267)" style="fill:#333333;" width="9.017" height="1"/>
<polygon style="fill:#333333;" points="21,10.5 14,10.5 14,3.5 15,3.5 15,9.5 21,9.5 "/>
</svg>






