<?xml version="1.0" encoding="iso-8859-1"?>
<svg version="1.1" id="&#x56FE;&#x5C42;_1" xmlns="http://www.w3.org/2000/svg" xmlns:xlink="http://www.w3.org/1999/xlink" x="0px"
	 y="0px" viewBox="0 0 24 24" style="enable-background:new 0 0 24 24;" xml:space="preserve">
<path style="fill:#333333;" d="M18.568,20.692c-0.251,0-0.505-0.042-0.754-0.126c-1.865-0.629-4.574-1.707-6.887-3.271l0.561-0.828
	c2.22,1.502,4.84,2.543,6.646,3.152c0.405,0.137,0.84,0.075,1.183-0.172c0.371-0.266,0.583-0.69,0.583-1.166v-2.536
	c0-0.182-0.098-0.35-0.256-0.437l-2.211-1.229c-0.145-0.08-0.319-0.083-0.468-0.01l-2.507,1.253l-0.166-0.031
	c-0.02-0.004-0.495-0.097-1.149-0.375l0.391-0.92c0.344,0.146,0.627,0.231,0.792,0.275l2.193-1.097
	c0.444-0.221,0.97-0.209,1.4,0.031l2.21,1.228c0.475,0.264,0.771,0.767,0.771,1.312v2.536c0,0.79-0.374,1.529-1,1.979
	C19.503,20.545,19.041,20.692,18.568,20.692z M6.754,13.022C5.29,10.771,4.272,8.193,3.677,6.428
	c-0.242-0.717-0.13-1.477,0.306-2.085c0.449-0.626,1.189-1,1.979-1h2.536c0.544,0,1.047,0.296,1.312,0.772l1.223,2.204
	c0.24,0.433,0.251,0.956,0.03,1.398L9.966,9.911c0.038,0.142,0.107,0.373,0.22,0.653l-0.929,0.371
	c-0.229-0.571-0.308-0.973-0.311-0.99L8.915,9.779l1.254-2.509c0.074-0.147,0.07-0.322-0.01-0.466L8.936,4.6
	C8.847,4.441,8.68,4.343,8.498,4.343H5.962c-0.476,0-0.901,0.212-1.167,0.583C4.549,5.269,4.486,5.7,4.624,6.108
	c0.577,1.711,1.561,4.205,2.968,6.369L6.754,13.022z"/>
<rect x="0.686" y="11.5" transform="matrix(0.7071 -0.7071 0.7071 0.7071 -4.9706 12)" style="fill:#333333;" width="22.627" height="1"/>
</svg>






