<?xml version="1.0" encoding="utf-8"?>
<svg version="1.1" id="&#x56FE;&#x5C42;_1" xmlns="http://www.w3.org/2000/svg" xmlns:xlink="http://www.w3.org/1999/xlink" x="0px" y="0px"
	 viewBox="0 0 24 24" style="enable-background:new 0 0 24 24;" xml:space="preserve">
<style type="text/css">
	.st0{fill:#333333;}
</style>
<path class="st0" d="M18.1,21.2c-0.3,0-0.5,0-0.8-0.1c-2.8-0.9-6.6-2.6-9.1-5.1c-2.5-2.5-4.1-6.3-5.1-9.1C2.9,6.2,3,5.4,3.5,4.8
	c0.4-0.6,1.2-1,2-1H8c0.5,0,1,0.3,1.3,0.8l1.2,2.2c0.2,0.4,0.3,1,0,1.4l-1.1,2.2c0.1,0.4,0.5,1.7,1.6,2.8s2.3,1.5,2.8,1.6l2.2-1.1
	c0.4-0.2,1-0.2,1.4,0l2.2,1.2c0.5,0.3,0.8,0.8,0.8,1.3v2.5c0,0.8-0.4,1.5-1,2C19,21,18.5,21.2,18.1,21.2z M5.5,4.8
	C5,4.8,4.6,5.1,4.3,5.4C4,5.8,4,6.2,4.1,6.6C5,9.3,6.6,13,8.9,15.3c2.3,2.3,6,3.9,8.7,4.8c0.4,0.1,0.8,0.1,1.2-0.2
	c0.4-0.3,0.6-0.7,0.6-1.2v-2.5c0-0.2-0.1-0.3-0.3-0.4l-2.2-1.2c-0.1-0.1-0.3-0.1-0.5,0L14,15.8l-0.2,0c-0.1,0-1.9-0.4-3.4-1.9
	c-1.5-1.5-1.9-3.4-1.9-3.4l0-0.2l1.3-2.5c0.1-0.1,0.1-0.3,0-0.5L8.4,5.1C8.3,4.9,8.2,4.8,8,4.8H5.5z"/>
<rect x="14.1" y="6.3" transform="matrix(0.7071 -0.7071 0.7071 0.7071 0.2793 14.1745)" class="st0" width="6.4" height="1"/>
<rect x="16.7" y="3.6" transform="matrix(0.7071 -0.7071 0.7071 0.7071 0.2793 14.1745)" class="st0" width="1" height="6.4"/>
</svg>





