<?xml version="1.0" encoding="iso-8859-1"?>
<svg version="1.1" id="&#x56FE;&#x5C42;_1" xmlns="http://www.w3.org/2000/svg" xmlns:xlink="http://www.w3.org/1999/xlink" x="0px"
	 y="0px" viewBox="0 0 24 24" style="enable-background:new 0 0 24 24;" xml:space="preserve">
<path style="fill:#333333;" d="M19.5,21.5h-15c-1.103,0-2-0.897-2-2v-15c0-1.103,0.897-2,2-2h15c1.103,0,2,0.897,2,2v15
	C21.5,20.603,20.603,21.5,19.5,21.5z M4.5,3.5c-0.551,0-1,0.449-1,1v15c0,0.552,0.449,1,1,1h15c0.552,0,1-0.448,1-1v-15
	c0-0.551-0.448-1-1-1H4.5z"/>
<path style="fill:#333333;" d="M15.881,17.5c-0.174,0-0.351-0.028-0.523-0.087c-1.714-0.578-4.083-1.592-5.631-3.14
	c-1.546-1.546-2.561-3.916-3.14-5.631C6.418,8.144,6.497,7.615,6.8,7.192C7.112,6.759,7.623,6.5,8.169,6.5H9.72
	c0.403,0,0.776,0.219,0.972,0.572L11.44,8.42c0.178,0.32,0.187,0.708,0.022,1.037l-0.446,1.1c0.056,0.275,0.253,1.006,0.837,1.59
	c0.582,0.582,1.311,0.779,1.589,0.837l1.132-0.465c0.292-0.148,0.682-0.142,1.003,0.039l1.352,0.75
	c0.353,0.197,0.571,0.569,0.571,0.972v1.552c0,0.546-0.259,1.058-0.693,1.369C16.53,17.398,16.209,17.5,15.881,17.5z M8.169,7.5
	c-0.228,0-0.431,0.1-0.556,0.275C7.546,7.868,7.447,8.063,7.534,8.323c0.446,1.322,1.417,3.76,2.899,5.244
	c1.485,1.485,3.923,2.454,5.244,2.899c0.259,0.088,0.454-0.011,0.547-0.078c0.175-0.126,0.275-0.329,0.275-0.557v-1.552
	c0-0.04-0.022-0.077-0.058-0.098l-1.352-0.75c-0.034-0.019-0.07-0.019-0.103-0.004l-1.417,0.583l-0.127-0.014
	c-0.053-0.006-1.312-0.157-2.298-1.144c-0.987-0.986-1.137-2.245-1.144-2.298l-0.014-0.126l0.563-1.385
	c0.033-0.068,0.032-0.107,0.014-0.139L9.818,7.558C9.798,7.522,9.761,7.5,9.72,7.5H8.169z"/>
</svg>






