<?xml version="1.0" encoding="iso-8859-1"?>
<svg version="1.1" id="&#x56FE;&#x5C42;_1" xmlns="http://www.w3.org/2000/svg" xmlns:xlink="http://www.w3.org/1999/xlink" x="0px"
	 y="0px" viewBox="0 0 24 24" style="enable-background:new 0 0 24 24;" xml:space="preserve">
<g>
	<defs>
		<rect id="SVGID_1_" width="24" height="24"/>
	</defs>
	<clipPath id="SVGID_00000173122255433241461750000005534619402787518117_">
		<use xlink:href="#SVGID_1_"  style="overflow:visible;"/>
	</clipPath>
	<g style="clip-path:url(#SVGID_00000173122255433241461750000005534619402787518117_);">
		<path style="fill:#333333;" d="M11.5,18.5H4c-0.827,0-1.5-0.673-1.5-1.5V3c0-0.827,0.673-1.5,1.5-1.5h12
			c0.827,0,1.5,0.673,1.5,1.5v3.5h-1V3c0-0.276-0.225-0.5-0.5-0.5H4C3.724,2.5,3.5,2.724,3.5,3v14c0,0.275,0.224,0.5,0.5,0.5h7.5
			V18.5z"/>
		<path style="fill:#333333;" d="M20.564,22.245c-2.073-3.685-3.048-8.165-3.064-14.09c-0.635-0.903-1.52-1.642-1.988-1.89
			c0.072,0.998,0.469,2.596,0.474,2.613l0.021,0.082l-0.524,5.765l-1.626,1.626l-0.306-0.635c-0.42-0.872-1.665-3.26-2.374-3.826
			c-0.231-0.186-0.331-0.125-0.369-0.103c-0.222,0.133-0.404,0.641-0.316,1.122c0.163,0.887,0.524,1.488,1.333,2.22
			c0.379,0.344,0.362,0.88,0.343,1.501c-0.036,1.139-0.085,2.698,2.081,3.936l-0.496,0.869c-2.688-1.536-2.623-3.602-2.584-4.836
			c0.009-0.275,0.021-0.653-0.031-0.747c-0.949-0.855-1.426-1.661-1.628-2.762c-0.16-0.868,0.178-1.797,0.786-2.161
			c0.466-0.278,1.016-0.213,1.507,0.181c0.773,0.618,1.814,2.526,2.336,3.545l0.381-0.381l0.476-5.236
			C14.897,8.638,14.5,6.941,14.5,6c0-0.394,0.198-0.689,0.529-0.789c0.948-0.292,2.683,1.456,3.387,2.512L18.5,7.849V8
			c0,5.823,0.933,10.194,2.936,13.755L20.564,22.245z"/>
		<polygon style="fill:#333333;" points="10,14 5.691,14 10.053,5.276 10.924,5.235 12.924,8.435 12.076,8.965 10.548,6.521 
			7.309,13 10,13 		"/>
		<polygon style="fill:#333333;" points="3.439,11.239 2.561,10.761 5.943,4.56 8.907,8.709 8.093,9.291 6.057,6.44 		"/>
	</g>
</g>
</svg>






