<?xml version="1.0" encoding="iso-8859-1"?>
<svg version="1.1" id="&#x56FE;&#x5C42;_1" xmlns="http://www.w3.org/2000/svg" xmlns:xlink="http://www.w3.org/1999/xlink" x="0px"
	 y="0px" viewBox="0 0 24 24" style="enable-background:new 0 0 24 24;" xml:space="preserve">
<path style="fill:#333333;" d="M12,22.5C6.21,22.5,1.5,17.79,1.5,12C1.5,6.21,6.21,1.5,12,1.5c5.79,0,10.5,4.71,10.5,10.5
	C22.5,17.79,17.79,22.5,12,22.5z M12,2.5c-5.238,0-9.5,4.262-9.5,9.5s4.262,9.5,9.5,9.5s9.5-4.262,9.5-9.5S17.238,2.5,12,2.5z"/>
<polygon style="fill:#333333;" points="16.185,20.888 8.556,14.689 4.874,18.832 4.126,18.168 8.444,13.311 16.815,20.112 "/>
<path style="fill:#333333;" d="M9,11c-1.378,0-2.5-1.122-2.5-2.5S7.622,6,9,6s2.5,1.122,2.5,2.5S10.378,11,9,11z M9,7
	C8.173,7,7.5,7.673,7.5,8.5S8.173,10,9,10s1.5-0.673,1.5-1.5S9.827,7,9,7z"/>
<polygon style="fill:#333333;" points="12.391,16.812 11.609,16.188 15.922,10.797 21.312,15.109 20.688,15.891 16.078,12.203 "/>
</svg>






