<?xml version="1.0" encoding="iso-8859-1"?>
<svg version="1.1" id="&#x56FE;&#x5C42;_1" xmlns="http://www.w3.org/2000/svg" xmlns:xlink="http://www.w3.org/1999/xlink" x="0px"
	 y="0px" viewBox="0 0 24 24" style="enable-background:new 0 0 24 24;" xml:space="preserve">
<path style="fill:#333333;" d="M20.5,20.5h-17C2.673,20.5,2,19.827,2,19V5c0-0.827,0.673-1.5,1.5-1.5h17C21.327,3.5,22,4.173,22,5
	v14C22,19.827,21.327,20.5,20.5,20.5z M3.5,4.5C3.224,4.5,3,4.724,3,5v14c0,0.275,0.224,0.5,0.5,0.5h17c0.275,0,0.5-0.225,0.5-0.5V5
	c0-0.276-0.225-0.5-0.5-0.5H3.5z"/>
<path style="fill:#333333;" d="M7.25,9.5C6.561,9.5,6,8.939,6,8.25S6.561,7,7.25,7S8.5,7.561,8.5,8.25S7.939,9.5,7.25,9.5z M7.25,8
	C7.112,8,7,8.112,7,8.25c0,0.275,0.5,0.275,0.5,0C7.5,8.112,7.388,8,7.25,8z"/>
<path style="fill:#333333;" d="M20.5,20.5h-17C2.673,20.5,2,19.827,2,19v-2.207l5.463-5.463l2.472,1.978l2.993-3.492L22,16.753V19
	C22,19.827,21.327,20.5,20.5,20.5z M3,17.207V19c0,0.275,0.224,0.5,0.5,0.5h17c0.275,0,0.5-0.225,0.5-0.5v-1.753l-7.928-6.062
	l-3.007,3.508L7.537,12.67L3,17.207z"/>
</svg>






