<?xml version="1.0" encoding="iso-8859-1"?>
<svg version="1.1" id="&#x56FE;&#x5C42;_1" xmlns="http://www.w3.org/2000/svg" xmlns:xlink="http://www.w3.org/1999/xlink" x="0px"
	 y="0px" viewBox="0 0 24 24" style="enable-background:new 0 0 24 24;" xml:space="preserve">
<path style="fill:#333333;" d="M19.5,21.5h-15c-1.103,0-2-0.897-2-2v-15c0-1.103,0.897-2,2-2h15c1.103,0,2,0.897,2,2v15
	C21.5,20.603,20.603,21.5,19.5,21.5z M4.5,3.5c-0.551,0-1,0.449-1,1v15c0,0.552,0.449,1,1,1h15c0.552,0,1-0.448,1-1v-15
	c0-0.551-0.448-1-1-1H4.5z"/>
<path style="fill:#333333;" d="M9,12c-1.654,0-3-1.346-3-3s1.346-3,3-3s3,1.346,3,3S10.654,12,9,12z M9,7C7.897,7,7,7.897,7,9
	s0.897,2,2,2s2-0.897,2-2S10.103,7,9,7z"/>
<polygon style="fill:#333333;" points="20.664,18.37 15.498,13.674 10.508,18.165 6.979,15.141 3.3,17.9 2.7,17.1 7.021,13.859 
	10.492,16.835 15.502,12.326 21.336,17.63 "/>
</svg>






