<?xml version="1.0" encoding="iso-8859-1"?>
<svg version="1.1" id="&#x56FE;&#x5C42;_1" xmlns="http://www.w3.org/2000/svg" xmlns:xlink="http://www.w3.org/1999/xlink" x="0px"
	 y="0px" viewBox="0 0 24 24" style="enable-background:new 0 0 24 24;" xml:space="preserve">
<path style="fill:#333333;" d="M17,18.5H4c-0.827,0-1.5-0.673-1.5-1.5V4c0-0.827,0.673-1.5,1.5-1.5h13c0.827,0,1.5,0.673,1.5,1.5v13
	C18.5,17.827,17.827,18.5,17,18.5z M4,3.5C3.724,3.5,3.5,3.724,3.5,4v13c0,0.275,0.224,0.5,0.5,0.5h13c0.275,0,0.5-0.225,0.5-0.5V4
	c0-0.276-0.225-0.5-0.5-0.5H4z"/>
<path style="fill:#333333;" d="M19.5,21.5H6v-1h13.5c0.552,0,1-0.448,1-1V6h1v13.5C21.5,20.603,20.603,21.5,19.5,21.5z"/>
<path style="fill:#333333;" d="M12.664,13.87L7.829,9.475C7.639,9.302,7.351,9.3,7.16,9.471l-3.828,3.403l-0.664-0.748l3.828-3.402
	c0.575-0.511,1.437-0.505,2.005,0.011l4.834,4.396L12.664,13.87z"/>
<path style="fill:#333333;" d="M17.7,12.4l-3.367-2.526c-0.188-0.139-0.441-0.132-0.62,0.016l-2.393,1.994l-0.641-0.769l2.393-1.994
	c0.54-0.447,1.303-0.465,1.86-0.047L18.3,11.6L17.7,12.4z"/>
<rect x="2.5" y="9.5" style="fill:#333333;" width="1" height="4"/>
<rect x="17.5" y="9.5" style="fill:#333333;" width="1" height="4"/>
</svg>






