<?xml version="1.0" encoding="iso-8859-1"?>
<svg version="1.1" id="&#x56FE;&#x5C42;_1" xmlns="http://www.w3.org/2000/svg" xmlns:xlink="http://www.w3.org/1999/xlink" x="0px"
	 y="0px" viewBox="0 0 24 24" style="enable-background:new 0 0 24 24;" xml:space="preserve">
<path style="fill:#333333;" d="M19.5,21.5h-15c-1.103,0-2-0.897-2-2v-15c0-1.103,0.897-2,2-2h15c1.103,0,2,0.897,2,2v15
	C21.5,20.603,20.603,21.5,19.5,21.5z M4.5,3.5c-0.551,0-1,0.449-1,1v15c0,0.552,0.449,1,1,1h15c0.552,0,1-0.448,1-1v-15
	c0-0.551-0.448-1-1-1H4.5z"/>
<path style="fill:#333333;" d="M9,12c-1.654,0-3-1.346-3-3s1.346-3,3-3s3,1.346,3,3S10.654,12,9,12z M9,7C7.897,7,7,7.897,7,9
	s0.897,2,2,2s2-0.897,2-2S10.103,7,9,7z"/>
<path style="fill:#333333;" d="M19.084,21.5H8l-0.4-0.799l5.896-7.891c0.286-0.384,0.722-0.603,1.199-0.603
	c0.009,0,0.017,0,0.024,0.001c0.488,0.007,0.929,0.241,1.208,0.642l4.388,6.291c0.32,0.461,0.358,1.056,0.099,1.553
	C20.154,21.191,19.645,21.5,19.084,21.5z M8.998,20.5h10.086c0.189,0,0.355-0.101,0.443-0.269c0.088-0.169,0.075-0.362-0.033-0.518
	l-4.388-6.291c-0.093-0.134-0.24-0.212-0.403-0.215c-0.155,0.017-0.31,0.071-0.407,0.2L8.998,20.5z"/>
</svg>






