<?xml version="1.0" encoding="iso-8859-1"?>
<svg version="1.1" id="&#x56FE;&#x5C42;_1" xmlns="http://www.w3.org/2000/svg" xmlns:xlink="http://www.w3.org/1999/xlink" x="0px"
	 y="0px" viewBox="0 0 24 24" style="enable-background:new 0 0 24 24;" xml:space="preserve">
<path style="fill:#333333;" d="M12,22.5C6.21,22.5,1.5,17.79,1.5,12C1.5,6.21,6.21,1.5,12,1.5c5.79,0,10.5,4.71,10.5,10.5
	C22.5,17.79,17.79,22.5,12,22.5z M12,2.5c-5.238,0-9.5,4.262-9.5,9.5s4.262,9.5,9.5,9.5s9.5-4.262,9.5-9.5S17.238,2.5,12,2.5z"/>
<path style="fill:#333333;" d="M19.312,19.553L11.5,12.217V1.5H12c2.054,0,4.048,0.596,5.765,1.724
	c1.716,1.127,3.055,2.719,3.872,4.605c0.815,1.886,1.06,3.953,0.707,5.976c-0.354,2.022-1.283,3.884-2.689,5.382L19.312,19.553z
	 M12.5,11.784l6.758,6.346c1.087-1.286,1.811-2.831,2.102-4.496c0.318-1.831,0.098-3.701-0.641-5.407
	c-0.739-1.706-1.95-3.147-3.503-4.167c-1.414-0.929-3.035-1.459-4.716-1.547V11.784z"/>
</svg>






