<?xml version="1.0" encoding="iso-8859-1"?>
<svg version="1.1" id="&#x56FE;&#x5C42;_1" xmlns="http://www.w3.org/2000/svg" xmlns:xlink="http://www.w3.org/1999/xlink" x="0px"
	 y="0px" viewBox="0 0 24 24" style="enable-background:new 0 0 24 24;" xml:space="preserve">
<path style="fill:#333333;" d="M12,22.5C6.21,22.5,1.5,17.79,1.5,12C1.5,6.21,6.21,1.5,12,1.5c5.79,0,10.5,4.71,10.5,10.5
	C22.5,17.79,17.79,22.5,12,22.5z M12,2.5c-5.238,0-9.5,4.262-9.5,9.5s4.262,9.5,9.5,9.5s9.5-4.262,9.5-9.5S17.238,2.5,12,2.5z"/>
<path style="fill:#333333;" d="M12.342,12.364L11.5,12V1.5H12c1.443,0,2.846,0.291,4.17,0.863c1.324,0.574,2.497,1.397,3.484,2.449
	l0.343,0.364L12.342,12.364z M12.5,2.513v8.332l6.074-5.703c-0.816-0.784-1.757-1.408-2.801-1.86
	C14.729,2.829,13.63,2.572,12.5,2.513z"/>
</svg>






