<?xml version="1.0" encoding="iso-8859-1"?>
<svg version="1.1" id="&#x56FE;&#x5C42;_1" xmlns="http://www.w3.org/2000/svg" xmlns:xlink="http://www.w3.org/1999/xlink" x="0px"
	 y="0px" viewBox="0 0 24 24" style="enable-background:new 0 0 24 24;" xml:space="preserve">
<path style="fill:#333333;" d="M12,22.5C6.21,22.5,1.5,17.79,1.5,12C1.5,6.21,6.21,1.5,12,1.5c5.79,0,10.5,4.71,10.5,10.5
	C22.5,17.79,17.79,22.5,12,22.5z M12,2.5c-5.238,0-9.5,4.262-9.5,9.5s4.262,9.5,9.5,9.5s9.5-4.262,9.5-9.5S17.238,2.5,12,2.5z"/>
<path style="fill:#333333;" d="M11.995,22.498c-0.957,0-1.915-0.13-2.845-0.392c-2.317-0.654-4.356-2.1-5.741-4.069
	s-2.053-4.378-1.883-6.778c0.17-2.402,1.171-4.692,2.82-6.446l0.342-0.364l6.812,6.396V1.5H12c2.408,0,4.763,0.837,6.629,2.357
	c1.868,1.52,3.165,3.656,3.652,6.014c0.489,2.357,0.146,4.832-0.964,6.969c-1.109,2.137-2.938,3.84-5.147,4.797
	C14.847,22.209,13.422,22.498,11.995,22.498z M4.742,5.871c-1.293,1.532-2.076,3.452-2.219,5.458
	c-0.154,2.173,0.451,4.351,1.704,6.134c1.252,1.781,3.097,3.089,5.194,3.681c2.097,0.591,4.353,0.439,6.352-0.425
	c1.998-0.865,3.652-2.407,4.657-4.34c1.004-1.933,1.313-4.172,0.872-6.305s-1.615-4.065-3.305-5.441
	c-1.56-1.27-3.495-2.013-5.498-2.12V12l-0.842,0.364L4.742,5.871z"/>
</svg>






