<?xml version="1.0" encoding="iso-8859-1"?>
<svg version="1.1" id="&#x56FE;&#x5C42;_1" xmlns="http://www.w3.org/2000/svg" xmlns:xlink="http://www.w3.org/1999/xlink" x="0px"
	 y="0px" viewBox="0 0 24 24" style="enable-background:new 0 0 24 24;" xml:space="preserve">
<path style="fill:#333333;" d="M12,22.5C6.21,22.5,1.5,17.79,1.5,12C1.5,6.21,6.21,1.5,12,1.5c5.79,0,10.5,4.71,10.5,10.5
	C22.5,17.79,17.79,22.5,12,22.5z M12,2.5c-5.238,0-9.5,4.262-9.5,9.5s4.262,9.5,9.5,9.5s9.5-4.262,9.5-9.5S17.238,2.5,12,2.5z"/>
<path style="fill:#333333;" d="M12.001,22.499c-0.934,0-1.869-0.124-2.771-0.371c-1.646-0.451-3.173-1.306-4.417-2.474l-0.364-0.342
	l7.052-7.51V1.5H12c1.706,0,3.405,0.422,4.913,1.22c1.508,0.799,2.812,1.967,3.771,3.377c0.96,1.413,1.566,3.055,1.753,4.75
	c0.187,1.697-0.046,3.431-0.674,5.017s-1.646,3.011-2.943,4.119c-1.299,1.108-2.865,1.891-4.528,2.263
	C13.539,22.415,12.771,22.499,12.001,22.499z M5.871,19.258c1.052,0.887,2.294,1.542,3.623,1.905
	c1.491,0.408,3.075,0.445,4.579,0.107c1.506-0.336,2.923-1.044,4.098-2.046c1.174-1.004,2.095-2.292,2.663-3.728
	c0.567-1.435,0.778-3.005,0.609-4.54c-0.169-1.534-0.717-3.02-1.585-4.298c-0.868-1.276-2.048-2.333-3.412-3.056
	C15.229,2.96,13.874,2.586,12.5,2.513v9.685L5.871,19.258z"/>
</svg>






