<?xml version="1.0" encoding="iso-8859-1"?>
<svg version="1.1" id="&#x56FE;&#x5C42;_1" xmlns="http://www.w3.org/2000/svg" xmlns:xlink="http://www.w3.org/1999/xlink" x="0px"
	 y="0px" viewBox="0 0 24 24" style="enable-background:new 0 0 24 24;" xml:space="preserve">
<path style="fill:#333333;" d="M12,22.5C6.21,22.5,1.5,17.79,1.5,12C1.5,6.21,6.21,1.5,12,1.5c5.79,0,10.5,4.71,10.5,10.5
	C22.5,17.79,17.79,22.5,12,22.5z M12,2.5c-5.238,0-9.5,4.262-9.5,9.5s4.262,9.5,9.5,9.5s9.5-4.262,9.5-9.5S17.238,2.5,12,2.5z"/>
<path style="fill:#333333;" d="M22.5,12.5h-11v-11H12c1.385,0,2.737,0.269,4.019,0.799c1.279,0.53,2.426,1.296,3.406,2.276
	c0.979,0.979,1.745,2.125,2.276,3.407C22.231,9.263,22.5,10.615,22.5,12V12.5z M12.5,11.5h8.987
	c-0.057-1.079-0.295-2.131-0.71-3.135c-0.48-1.159-1.174-2.196-2.06-3.083c-0.887-0.887-1.924-1.58-3.082-2.059
	c-1.005-0.416-2.058-0.654-3.136-0.71V11.5z"/>
</svg>






