<?xml version="1.0" encoding="iso-8859-1"?>
<svg version="1.1" id="&#x56FE;&#x5C42;_1" xmlns="http://www.w3.org/2000/svg" xmlns:xlink="http://www.w3.org/1999/xlink" x="0px"
	 y="0px" viewBox="0 0 24 24" style="enable-background:new 0 0 24 24;" xml:space="preserve">
<path style="fill:#333333;" d="M5.068,19.752c-1.002-1.714-1.794-3.845-2.372-5.401c-0.264-0.709-0.491-1.321-0.644-1.627
	c-1.2-3.18,0.759-5.97,2.312-6.82l0.888-2.768l0.571,0.482C6.543,4.228,7.152,5.748,7.41,6.61l3.09,1.03v4.092l-0.177,0.15
	c-0.5,0.423-2.548,1.802-3.696,2.102l-0.253-0.967c0.837-0.219,2.476-1.271,3.126-1.759V8.36L6.583,7.388L6.515,7.123
	c-0.147-0.58-0.476-1.436-0.831-2.061l-0.5,1.56L4.979,6.714c-1.005,0.447-3.08,2.772-2.011,5.61
	c0.156,0.306,0.381,0.911,0.666,1.679c0.565,1.521,1.34,3.605,2.298,5.245L5.068,19.752z"/>
<path style="fill:#333333;" d="M17,19.5h-1c0-1.28,0.258-2.953,0.985-3.454c1.925-1.326,2.103-4.291,1.991-4.795
	c-0.218-1.39-0.828-2.443-1.821-3.161c-1.521-1.102-3.687-1.224-5.073-0.994l-0.164-0.986c1.655-0.273,4.052-0.11,5.823,1.17
	c1.217,0.88,1.963,2.154,2.218,3.786c0.156,0.708-0.042,4.174-2.405,5.803C17.391,16.986,17,17.91,17,19.5z"/>
<path style="fill:#333333;" d="M13.5,20h-1c0-0.827-0.673-1.5-1.5-1.5S9.5,19.173,9.5,20h-1c0-1.379,1.122-2.5,2.5-2.5
	C12.379,17.5,13.5,18.621,13.5,20z"/>
<path style="fill:#333333;" d="M20.541,13.018c-0.102,0-0.203-0.008-0.305-0.023c-0.534-0.083-0.987-0.379-1.184-0.771l0.895-0.447
	c0.035,0.07,0.2,0.192,0.442,0.229c0.188,0.03,0.543,0.027,0.866-0.304c0.153-0.157,0.336-0.606,0.278-1.039
	c-0.043-0.323-0.203-0.562-0.49-0.733l0.51-0.86c0.553,0.328,0.889,0.833,0.972,1.462c0.104,0.787-0.214,1.52-0.553,1.868
	C21.581,12.801,21.072,13.018,20.541,13.018z"/>
</svg>






