<?xml version="1.0" encoding="iso-8859-1"?>
<svg version="1.1" id="&#x56FE;&#x5C42;_1" xmlns="http://www.w3.org/2000/svg" xmlns:xlink="http://www.w3.org/1999/xlink" x="0px"
	 y="0px" viewBox="0 0 24 24" style="enable-background:new 0 0 24 24;" xml:space="preserve">
<path style="fill:#333333;" d="M6.567,13.251c-0.475-0.819-1.321-3.014,1.062-5.705c0.664-0.627,1.528-1.439,3.103-1.863
	c0.707-0.341,1.187-0.787,1.344-1.296c0.141-0.458,0.024-1.007-0.346-1.633l0.696-0.678C13.383,2.676,15,4.675,15,8.367h-1
	c0-1.772-0.417-3.081-0.898-3.978c-0.017,0.099-0.04,0.197-0.07,0.293c-0.242,0.79-0.901,1.441-1.956,1.938
	C9.659,7.008,8.932,7.691,8.348,8.241c-1.851,2.092-1.37,3.724-0.916,4.508L6.567,13.251z"/>
<path style="fill:#333333;" d="M19.586,22.001c-0.092,0-0.186-0.006-0.28-0.016c-0.104-0.003-1.092-0.102-1.428-2.128
	c-0.328-0.029-1.467,0.031-4.413,1.588c-1.381,0.655-4.484,1.205-6.497-1.347C6.037,18.772,3.83,17.377,2,17.377H1.423l0.082-0.571
	c0.174-1.209,0.912-2.894,2.419-3.662c1.067-0.544,2.306-0.534,3.69,0.03c0.208-1.479,1.602-3.618,5.999-4.789
	c0.638-0.182,2.572-1.274,3.752-4.079l0.955,0.115c0.457,2.867,0.422,9.038-2.982,11.87c-0.03,0.03-0.051,0.082-0.05,0.095
	c0.007,0.052,0.229,0.301,1.11,0.487c-0.011-0.003,1.205-0.084,3.853-3.23c0.453-0.38,0.913-0.447,1.296-0.242
	c0.847,0.448,1.12,2.03,0.861,4.977c-0.025,0.344-0.214,2.139-1.352,3.087C20.629,21.82,20.136,22.001,19.586,22.001z
	 M17.753,18.849c0.195,0,0.366,0.022,0.513,0.068c0.302,0.094,0.446,0.268,0.514,0.397l0.054,0.167
	c0.145,1.101,0.475,1.472,0.579,1.515c0.388,0.038,0.717-0.06,1.004-0.3c0.687-0.573,0.949-1.778,0.995-2.4
	c0.316-3.599-0.328-4.011-0.335-4.013c-0.006,0-0.055,0.011-0.127,0.069c-2.331,2.784-3.993,3.638-4.748,3.501
	c-1.104-0.233-1.715-0.624-1.876-1.195c-0.109-0.387,0.021-0.804,0.35-1.114c2.549-2.122,2.991-6.404,2.827-9.335
	c-1.254,1.991-2.837,2.916-3.623,3.14c-4.862,1.294-5.448,3.691-5.265,4.505l-0.721,0.553c-1.383-0.731-2.565-0.855-3.515-0.373
	c-1.002,0.511-1.537,1.575-1.767,2.381c2.061,0.249,4.179,1.689,5.158,3.087c1.605,2.033,4.136,1.578,5.247,1.05
	C15.139,19.431,16.76,18.849,17.753,18.849z"/>
<circle style="fill:#333333;" cx="6" cy="15.706" r="1"/>
</svg>






