<?xml version="1.0" encoding="iso-8859-1"?>
<svg version="1.1" id="&#x56FE;&#x5C42;_1" xmlns="http://www.w3.org/2000/svg" xmlns:xlink="http://www.w3.org/1999/xlink" x="0px"
	 y="0px" viewBox="0 0 24 24" style="enable-background:new 0 0 24 24;" xml:space="preserve">
<path style="fill:#333333;" d="M8.371,20.804c-0.169,0-0.34-0.008-0.511-0.022c-1.53-0.134-2.916-0.855-3.903-2.032
	s-1.458-2.667-1.323-4.197c0.134-1.53,0.855-2.917,2.032-3.903l7.277-6.106c1.177-0.988,2.669-1.457,4.197-1.324
	c1.53,0.134,2.917,0.855,3.903,2.032c0.987,1.176,1.458,2.667,1.324,4.197c-0.134,1.53-0.855,2.916-2.032,3.903l-7.277,6.106
	C11.012,20.334,9.719,20.804,8.371,20.804z M15.631,4.196c-1.114,0-2.183,0.387-3.046,1.111l-7.277,6.107
	c-0.972,0.815-1.568,1.96-1.679,3.224c-0.111,1.264,0.277,2.495,1.093,3.468c0.815,0.972,1.96,1.567,3.225,1.679
	c1.26,0.104,2.495-0.278,3.467-1.094l7.278-6.106c0.972-0.815,1.567-1.96,1.679-3.225c0.11-1.264-0.278-2.495-1.094-3.467
	c-0.815-0.972-1.961-1.568-3.225-1.679C15.911,4.202,15.771,4.196,15.631,4.196z"/>
<rect x="10.779" y="10.409" transform="matrix(0.7661 -0.6428 0.6428 0.7661 -5.4862 10.2064)" style="fill:#333333;" width="1" height="4.463"/>
</svg>






