<?xml version="1.0" encoding="iso-8859-1"?>
<svg version="1.1" id="&#x56FE;&#x5C42;_1" xmlns="http://www.w3.org/2000/svg" xmlns:xlink="http://www.w3.org/1999/xlink" x="0px"
	 y="0px" viewBox="0 0 24 24" style="enable-background:new 0 0 24 24;" xml:space="preserve">
<g>
	<defs>
		<rect id="SVGID_1_" width="24" height="24"/>
	</defs>
	<clipPath id="SVGID_00000070823417517051216820000016676734349021809338_">
		<use xlink:href="#SVGID_1_"  style="overflow:visible;"/>
	</clipPath>
	<g style="clip-path:url(#SVGID_00000070823417517051216820000016676734349021809338_);">
		<path style="fill:#333333;" d="M3.519,21.181l-0.7-0.698l5.743-7.81L4.641,8.752l0.354-0.354c1.347-1.348,3.007-1.537,4.938-0.563
			l5.832-3.233l-0.311-2.137l0.849-0.425l5.657,5.657l-0.425,0.849l-2.133-0.306l-3.244,5.839c0.666,1.439,1.118,3.25-0.557,4.927
			l-0.354,0.354l-3.938-3.938L3.519,21.181z M6.079,8.775l3.798,3.798L5.584,18.41l5.823-4.306l3.818,3.817
			c0.731-0.964,0.697-2.057-0.079-3.642l-0.114-0.234l3.831-6.895l1.328,0.191l-3.53-3.53l0.193,1.331L9.94,8.975L9.699,8.842
			C8.242,8.042,7.077,8.019,6.079,8.775z"/>
	</g>
</g>
</svg>






