<?xml version="1.0" encoding="iso-8859-1"?>
<svg version="1.1" id="&#x56FE;&#x5C42;_1" xmlns="http://www.w3.org/2000/svg" xmlns:xlink="http://www.w3.org/1999/xlink" x="0px"
	 y="0px" viewBox="0 0 24 24" style="enable-background:new 0 0 24 24;" xml:space="preserve">
<path style="fill:#333333;" d="M13.604,7.604l-0.707-0.707C13,6.785,13,6.102,13,5.5c0-1.184-0.652-2.24-1.054-2.779
	C11.417,3.239,10.5,4.311,10.5,5.5c0,0.75,0,1.293,0.104,1.396L9.896,7.604C9.5,7.207,9.5,6.708,9.5,5.5
	c0-2.152,2.102-3.823,2.191-3.894l0.356-0.279l0.313,0.327C12.428,1.724,14,3.391,14,5.5C14,6.601,14,7.207,13.604,7.604z"/>
<path style="fill:#333333;" d="M8.038,8.692C7.477,7.339,6.074,5.573,5.195,4.896l0.212-0.888c3.433-0.646,5.827,1.883,6.478,2.673
	l-0.771,0.637c-0.491-0.595-2.12-2.331-4.445-2.41c0.866,0.923,1.814,2.247,2.292,3.4L8.038,8.692z"/>
<path style="fill:#333333;" d="M15.44,8.237L14.56,7.763c0.552-1.025,1.46-2.094,2.238-2.862c-2.382,0.066-3.938,1.808-4.403,2.405
	l-0.79-0.613c0.621-0.799,2.923-3.354,6.487-2.685l0.213,0.888C17.57,5.461,16.152,6.914,15.44,8.237z"/>
<path style="fill:#333333;" d="M12,22.626c-2.105,0-4.21-0.409-5.299-1.226c-1.176-0.882-1.713-1.78-1.958-2.379
	c-0.255-0.625-0.259-1.279-0.242-1.896c0.06-2.052,0.483-5.818,2.646-7.979C7.454,8.839,7.75,8.562,8.032,8.312l0,0
	c2.337-2.067,5.601-2.067,7.937,0c0.282,0.249,0.577,0.526,0.885,0.834c2.162,2.162,2.585,5.922,2.645,7.971
	c0.019,0.621,0.016,1.281-0.244,1.914c-0.244,0.595-0.781,1.489-1.954,2.369C16.21,22.217,14.105,22.626,12,22.626z M8.694,9.062
	L8.694,9.062c-0.268,0.237-0.548,0.5-0.839,0.792c-1.99,1.99-2.309,5.769-2.353,7.302c-0.015,0.509-0.014,1.044,0.167,1.488
	C5.865,19.126,6.308,19.855,7.3,20.6c1.801,1.353,7.599,1.351,9.4,0c0.99-0.742,1.432-1.47,1.628-1.948
	c0.186-0.451,0.186-0.99,0.17-1.504c-0.044-1.531-0.362-5.305-2.352-7.294c-0.292-0.292-0.571-0.555-0.84-0.792
	C13.36,7.34,10.643,7.339,8.694,9.062z"/>
<rect x="4.823" y="11.25" transform="matrix(0.8861 -0.4635 0.4635 0.8861 -4.2219 6.3215)" style="fill:#333333;" width="11.853" height="1.001"/>
<rect x="12.75" y="5.823" transform="matrix(0.4641 -0.8858 0.8858 0.4641 -3.307 18.0343)" style="fill:#333333;" width="1.001" height="11.853"/>
<rect x="11" y="10.054" transform="matrix(0.5039 -0.8638 0.8638 0.5039 -8.9788 18.3676)" style="fill:#333333;" width="1" height="13.892"/>
<rect x="5.554" y="16.5" transform="matrix(0.8636 -0.5041 0.5041 0.8636 -6.8654 8.6196)" style="fill:#333333;" width="13.892" height="1"/>
</svg>






