<?xml version="1.0" encoding="iso-8859-1"?>
<svg version="1.1" id="&#x56FE;&#x5C42;_1" xmlns="http://www.w3.org/2000/svg" xmlns:xlink="http://www.w3.org/1999/xlink" x="0px"
	 y="0px" viewBox="0 0 24 24" style="enable-background:new 0 0 24 24;" xml:space="preserve">
<path style="fill:#333333;" d="M11,11H5.5l-0.431-0.753l5-8.5L11,2V11z M6.374,10H10V3.836L6.374,10z"/>
<path style="fill:#333333;" d="M13.931,22.254L13,22v-9h5.5l0.431,0.754L13.931,22.254z M14,14v6.164L17.626,14H14z"/>
<path style="fill:#333333;" d="M22,11h-9V5.5l0.754-0.431l8.5,5L22,11z M14,10h6.164L14,6.374V10z"/>
<path style="fill:#333333;" d="M10.247,18.931l-8.5-5L2,13h9v5.5L10.247,18.931z M3.836,14L10,17.626V14H3.836z"/>
</svg>






