<?xml version="1.0" encoding="iso-8859-1"?>
<svg version="1.1" id="&#x56FE;&#x5C42;_1" xmlns="http://www.w3.org/2000/svg" xmlns:xlink="http://www.w3.org/1999/xlink" x="0px"
	 y="0px" viewBox="0 0 24 24" style="enable-background:new 0 0 24 24;" xml:space="preserve">
<rect x="2" y="11.5" style="fill:#333333;" width="20" height="1"/>
<path style="fill:#333333;" d="M5.427,20.761l-0.854-0.521C4.603,20.191,7.5,15.405,7.5,12c0-3.406-2.897-8.191-2.927-8.239
	l0.854-0.521C5.552,3.445,8.5,8.312,8.5,12C8.5,15.688,5.552,20.556,5.427,20.761z"/>
<path style="fill:#333333;" d="M18.571,20.758C18.446,20.55,15.5,15.618,15.5,12c0-3.617,2.946-8.55,3.071-8.758l0.857,0.516
	C19.399,3.807,16.5,8.662,16.5,12c0,3.339,2.899,8.193,2.929,8.242L18.571,20.758z"/>
</svg>






