<?xml version="1.0" encoding="iso-8859-1"?>
<svg version="1.1" id="&#x56FE;&#x5C42;_1" xmlns="http://www.w3.org/2000/svg" xmlns:xlink="http://www.w3.org/1999/xlink" x="0px"
	 y="0px" viewBox="0 0 24 24" style="enable-background:new 0 0 24 24;" xml:space="preserve">
<path style="fill:#333333;" d="M21,22.5H3c-0.827,0-1.5-0.673-1.5-1.5l0-18c0-0.827,0.673-1.5,1.5-1.5h18c0.827,0,1.5,0.673,1.5,1.5
	v18C22.5,21.827,21.827,22.5,21,22.5z M3,2.5C2.724,2.5,2.5,2.724,2.5,3l0,18c0,0.275,0.224,0.5,0.5,0.5h18
	c0.275,0,0.5-0.225,0.5-0.5V3c0-0.276-0.225-0.5-0.5-0.5H3z"/>
<polygon style="fill:#333333;" points="17.25,17.504 10.004,17.504 10.004,16.504 16.25,16.504 16.25,10.004 17.25,10.004 "/>
<polygon style="fill:#333333;" points="11.896,19.604 9.293,17 11.896,14.396 12.604,15.104 10.707,17 12.604,18.896 "/>
<polygon style="fill:#333333;" points="18.646,12.604 16.75,10.707 14.854,12.604 14.146,11.896 16.75,9.293 19.354,11.896 "/>
<rect x="6.5" y="2" style="fill:#333333;" width="1" height="20"/>
<rect x="2" y="6.51" style="fill:#333333;" width="20" height="1"/>
<rect x="4" y="1.5" style="fill:#333333;" width="10" height="1"/>
<rect x="4" y="21.5" style="fill:#333333;" width="10" height="1"/>
<rect x="21.5" y="4" style="fill:#333333;" width="1" height="5"/>
<rect x="1.5" y="4" style="fill:#333333;" width="1" height="5"/>
</svg>






