<?xml version="1.0" encoding="iso-8859-1"?>
<svg version="1.1" id="&#x56FE;&#x5C42;_1" xmlns="http://www.w3.org/2000/svg" xmlns:xlink="http://www.w3.org/1999/xlink" x="0px"
	 y="0px" viewBox="0 0 24 24" style="enable-background:new 0 0 24 24;" xml:space="preserve">
<path style="fill:#333333;" d="M12,20.5c-4.687,0-8.5-3.813-8.5-8.5c0-4.687,3.813-8.5,8.5-8.5c4.687,0,8.5,3.813,8.5,8.5
	C20.5,16.687,16.687,20.5,12,20.5z M12,4.5c-4.136,0-7.5,3.364-7.5,7.5s3.364,7.5,7.5,7.5s7.5-3.364,7.5-7.5S16.136,4.5,12,4.5z"/>
<path style="fill:#333333;" d="M6.546,17.8c-0.476,0-0.934-0.019-1.371-0.057c-2.427-0.212-3.948-1.017-4.283-2.267
	c-0.351-1.31,0.658-2.831,2.84-4.285l0.555,0.832c-1.745,1.163-2.653,2.356-2.429,3.193c0.212,0.791,1.484,1.362,3.404,1.53
	c2.147,0.189,4.86-0.121,7.643-0.867c2.784-0.745,5.288-1.836,7.054-3.071c1.579-1.104,2.395-2.236,2.183-3.026
	c-0.212-0.79-1.483-1.362-3.403-1.529l0.088-0.996c2.426,0.211,3.946,1.017,4.282,2.267c0.335,1.25-0.58,2.708-2.576,4.104
	c-1.858,1.301-4.475,2.443-7.367,3.219C10.831,17.472,8.533,17.8,6.546,17.8z"/>
</svg>






