<?xml version="1.0" encoding="iso-8859-1"?>
<svg version="1.1" id="&#x56FE;&#x5C42;_1" xmlns="http://www.w3.org/2000/svg" xmlns:xlink="http://www.w3.org/1999/xlink" x="0px"
	 y="0px" viewBox="0 0 24 24" style="enable-background:new 0 0 24 24;" xml:space="preserve">
<path style="fill:#333333;" d="M20.5,22h-17C2.673,22,2,21.327,2,20.5V9h20v11.5C22,21.327,21.327,22,20.5,22z M3,10v10.5
	C3,20.775,3.224,21,3.5,21h17c0.275,0,0.5-0.225,0.5-0.5V10H3z"/>
<path style="fill:#333333;" d="M22,10H2V5c0-0.827,0.673-1.5,1.5-1.5h17C21.327,3.5,22,4.173,22,5V10z M3,9h18V5
	c0-0.276-0.225-0.5-0.5-0.5h-17C3.224,4.5,3,4.724,3,5V9z"/>
<polygon style="fill:#333333;" points="11,19.207 7.646,15.854 8.354,15.146 11,17.793 16.646,12.146 17.354,12.854 "/>
<rect x="7.5" y="2.5" style="fill:#333333;" width="1" height="4"/>
<rect x="15.5" y="2.5" style="fill:#333333;" width="1" height="4"/>
</svg>






