<?xml version="1.0" encoding="iso-8859-1"?>
<svg version="1.1" id="&#x56FE;&#x5C42;_1" xmlns="http://www.w3.org/2000/svg" xmlns:xlink="http://www.w3.org/1999/xlink" x="0px"
	 y="0px" viewBox="0 0 24 24" style="enable-background:new 0 0 24 24;" xml:space="preserve">
<path style="fill:#333333;" d="M16.122,22.336c-1.693-1.867-2.206-3.053-1.662-3.843l0.116-0.17l0.202-0.038
	c4.152-0.791,6.722-4.48,6.722-7.446c0-3.224-2.254-8.339-8.301-8.339c-4.006,0-6.256,1.726-6.878,5.276L6.277,8.022L6.055,8.136
	C4.138,9.11,3.224,9.627,2.79,9.897c0.614,0.342,1.886,1.05,1.397,2.291c-0.118,0.298-0.282,0.641-0.458,1.008
	c-0.522,1.086-1.237,2.572-0.729,3.28c0.321,0.447,1.033,0.541,1.858,0.648c0.903,0.118,1.926,0.252,2.755,0.91
	c1.063,0.844,1.866,2.129,2.384,3.818L9.04,22.146c-0.458-1.492-1.147-2.612-2.05-3.328c-0.612-0.485-1.452-0.596-2.264-0.702
	C3.76,17.99,2.76,17.859,2.186,17.059c-0.853-1.189-0.024-2.912,0.641-4.296c0.165-0.343,0.319-0.663,0.429-0.941
	c0.127-0.323-0.104-0.579-0.955-1.051c-0.418-0.232-0.72-0.4-0.789-0.741L1.466,9.803L1.63,9.54
	c0.124-0.158,0.352-0.449,3.751-2.184C6.156,3.47,8.785,1.5,13.199,1.5c6.775,0,9.301,5.729,9.301,9.339
	c0,3.83-3.157,7.451-7.241,8.368c0.011,0.265,0.229,0.941,1.604,2.457L16.122,22.336z"/>
<path style="fill:#333333;" d="M14.261,19.99c-0.716-1.527-1.187-2.795-1.397-3.768c-0.205-0.945,0.408-1.548,0.948-2.08
	c0.529-0.521,1.029-1.013,1.029-1.864c0-0.674-0.707-0.994-1.859-1.459c-1.135-0.458-2.42-0.977-2.934-2.233
	c-0.63-1.544-0.639-3.698-0.025-6.402l0.976,0.222c-0.568,2.5-0.576,4.452-0.025,5.803c0.354,0.865,1.385,1.281,2.382,1.684
	c1.165,0.47,2.485,1.003,2.485,2.386c0,1.271-0.736,1.995-1.327,2.577c-0.541,0.532-0.754,0.785-0.674,1.155
	c0.195,0.898,0.642,2.095,1.327,3.556L14.261,19.99z"/>
<path style="fill:#333333;" d="M8.5,15.775l-0.001-1c0.009,0,0.955-0.034,1.622-0.724c0.43-0.444,0.639-0.952,0.639-1.552h1
	c0,0.86-0.31,1.616-0.92,2.247C9.857,15.764,8.514,15.775,8.5,15.775z"/>
</svg>






