<?xml version="1.0" encoding="iso-8859-1"?>
<svg version="1.1" id="&#x56FE;&#x5C42;_1" xmlns="http://www.w3.org/2000/svg" xmlns:xlink="http://www.w3.org/1999/xlink" x="0px"
	 y="0px" viewBox="0 0 24 24" style="enable-background:new 0 0 24 24;" xml:space="preserve">
<path style="fill:#333333;" d="M12,22.5C6.21,22.5,1.5,17.79,1.5,12C1.5,6.21,6.21,1.5,12,1.5c5.79,0,10.5,4.71,10.5,10.5
	c0,1.858-2.112,2.289-3.977,2.67c-1.272,0.26-2.588,0.528-3.149,1.162c-0.672,0.758-0.78,1.959-0.886,3.12
	C14.338,20.615,14.167,22.5,12,22.5z M12,2.5c-5.238,0-9.5,4.262-9.5,9.5s4.262,9.5,9.5,9.5c1.14,0,1.322-0.764,1.492-2.639
	c0.114-1.26,0.244-2.688,1.134-3.692c0.782-0.884,2.265-1.187,3.698-1.479C20.242,13.298,21.5,12.969,21.5,12
	C21.5,6.762,17.238,2.5,12,2.5z"/>
<path style="fill:#333333;" d="M14,9c-1.103,0-2-0.897-2-2s0.897-2,2-2s2,0.897,2,2S15.103,9,14,9z M14,6c-0.552,0-1,0.449-1,1
	s0.448,1,1,1s1-0.449,1-1S14.552,6,14,6z"/>
<path style="fill:#333333;" d="M8,11c-1.103,0-2-0.897-2-2s0.897-2,2-2s2,0.897,2,2S9.103,11,8,11z M8,8C7.449,8,7,8.449,7,9
	s0.449,1,1,1s1-0.449,1-1S8.551,8,8,8z"/>
<path style="fill:#333333;" d="M8.5,17.5c-1.103,0-2-0.897-2-2s0.897-2,2-2s2,0.897,2,2S9.603,17.5,8.5,17.5z M8.5,14.5
	c-0.551,0-1,0.448-1,1s0.449,1,1,1s1-0.448,1-1S9.051,14.5,8.5,14.5z"/>
</svg>






