<?xml version="1.0" encoding="iso-8859-1"?>
<svg version="1.1" id="&#x56FE;&#x5C42;_1" xmlns="http://www.w3.org/2000/svg" xmlns:xlink="http://www.w3.org/1999/xlink" x="0px"
	 y="0px" viewBox="0 0 24 24" style="enable-background:new 0 0 24 24;" xml:space="preserve">
<path style="fill:#333333;" d="M2.5,12.5h-1C1.5,8.916,4.416,6,8,6h14v1H8C4.967,7,2.5,9.467,2.5,12.5z"/>
<polygon style="fill:#333333;" points="19.354,9.854 18.646,9.146 21.293,6.5 18.646,3.854 19.354,3.146 22.707,6.5 "/>
<path style="fill:#333333;" d="M16,18H2v-1h14c3.032,0,5.5-2.468,5.5-5.5h1C22.5,15.084,19.584,18,16,18z"/>
<polygon style="fill:#333333;" points="4.646,20.854 1.293,17.5 4.646,14.146 5.354,14.854 2.707,17.5 5.354,20.146 "/>
</svg>






