<?xml version="1.0" encoding="iso-8859-1"?>
<svg version="1.1" id="&#x56FE;&#x5C42;_1" xmlns="http://www.w3.org/2000/svg" xmlns:xlink="http://www.w3.org/1999/xlink" x="0px"
	 y="0px" viewBox="0 0 24 24" style="enable-background:new 0 0 24 24;" xml:space="preserve">
<path style="fill:#333333;" d="M16,8.5c-1.654,0-3-1.346-3-3s1.346-3,3-3s3,1.346,3,3S17.654,8.5,16,8.5z M16,3.5
	c-1.103,0-2,0.897-2,2s0.897,2,2,2s2-0.897,2-2S17.103,3.5,16,3.5z"/>
<path style="fill:#333333;" d="M11.623,20.484l-0.246-0.969l4.055-1.03l-4.255-3.604l-0.124-0.605l1.748-3.496l-4.675-1.68
	C7.752,8.966,7.452,8.695,7.279,8.337L5.06,4.238l0.88-0.476l2.23,4.12c0.069,0.143,0.167,0.231,0.294,0.277l5.205,1.87l0.278,0.694
	l-1.824,3.648l3.965,3.356c0.287,0.253,0.406,0.633,0.316,0.997c-0.09,0.362-0.37,0.643-0.731,0.73L11.623,20.484z"/>
<path style="fill:#333333;" d="M2.667,21.472l-0.334-0.943l5.13-1.82c0.049-0.02,0.113-0.068,0.169-0.135l3.476-4.384l0.783,0.621
	l-3.485,4.395c-0.171,0.204-0.373,0.353-0.593,0.439L2.667,21.472z"/>
<path style="fill:#333333;" d="M20.575,15.765l-1.98-3.18c-0.061-0.097-0.166-0.175-0.287-0.211l-4.943-1.393l0.271-0.963
	l4.95,1.395c0.361,0.108,0.663,0.334,0.856,0.639l1.982,3.183L20.575,15.765z"/>
<path style="fill:#333333;" d="M9,4c0.828,0,1.5-0.672,1.5-1.5S9.828,1,9,1S7.5,1.672,7.5,2.5S8.172,4,9,4z"/>
</svg>






