<?xml version="1.0" encoding="iso-8859-1"?>
<svg version="1.1" id="&#x56FE;&#x5C42;_1" xmlns="http://www.w3.org/2000/svg" xmlns:xlink="http://www.w3.org/1999/xlink" x="0px"
	 y="0px" viewBox="0 0 24 24" style="enable-background:new 0 0 24 24;" xml:space="preserve">
<path style="fill:#333333;" d="M22.5,16h-21V2h21V16z M2.5,15h19V3h-19V15z"/>
<path style="fill:#333333;" d="M11.277,11.416L10.5,11V7l0.777-0.416L14.901,9L11.277,11.416z M11.5,7.934v2.132L13.099,9
	L11.5,7.934z"/>
<rect x="3" y="19.5" style="fill:#333333;" width="2.5" height="1"/>
<rect x="8.5" y="19.5" style="fill:#333333;" width="12.5" height="1"/>
<path style="fill:#333333;" d="M7,22c-1.103,0-2-0.897-2-2s0.897-2,2-2s2,0.897,2,2S8.103,22,7,22z M7,19c-0.551,0-1,0.448-1,1
	s0.449,1,1,1s1-0.448,1-1S7.551,19,7,19z"/>
</svg>






