<?xml version="1.0" encoding="iso-8859-1"?>
<svg version="1.1" id="&#x56FE;&#x5C42;_1" xmlns="http://www.w3.org/2000/svg" xmlns:xlink="http://www.w3.org/1999/xlink" x="0px"
	 y="0px" viewBox="0 0 24 24" style="enable-background:new 0 0 24 24;" xml:space="preserve">
<path style="fill:#333333;" d="M14.5,7.5c-1.654,0-3-1.346-3-3s1.346-3,3-3s3,1.346,3,3S16.154,7.5,14.5,7.5z M14.5,2.5
	c-1.103,0-2,0.897-2,2s0.897,2,2,2s2-0.897,2-2S15.603,2.5,14.5,2.5z"/>
<path style="fill:#333333;" d="M20.5,12c0.828,0,1.5-0.672,1.5-1.5S21.328,9,20.5,9S19,9.672,19,10.5S19.672,12,20.5,12z"/>
<path style="fill:#333333;" d="M5.878,18.973c-0.213,0-0.426-0.046-0.627-0.139l-3.437-1.369l0.37-0.93l3.46,1.38
	c0.167,0.076,0.33,0.07,0.469-0.003c0.139-0.074,0.233-0.206,0.258-0.361l1.138-5.649l0.98,0.197l-1.135,5.63
	c-0.072,0.448-0.354,0.843-0.771,1.065C6.363,18.913,6.121,18.973,5.878,18.973z"/>
<path style="fill:#333333;" d="M12.027,22.176l-0.936-0.352l1.786-4.765c0.08-0.21,0.008-0.448-0.174-0.582l-4.764-3.484
	c-0.245-0.178-0.396-0.453-0.412-0.754c-0.017-0.3,0.102-0.589,0.325-0.793l2.42-2.215c0.533-0.481,1.333-0.521,1.905-0.098
	l7.127,5.47l-0.609,0.793l-7.12-5.465c-0.185-0.136-0.453-0.122-0.631,0.04l-2.417,2.212l4.768,3.488
	c0.544,0.4,0.756,1.116,0.517,1.741L12.027,22.176z"/>
</svg>






