<?xml version="1.0" encoding="iso-8859-1"?>
<svg version="1.1" id="&#x56FE;&#x5C42;_1" xmlns="http://www.w3.org/2000/svg" xmlns:xlink="http://www.w3.org/1999/xlink" x="0px"
	 y="0px" viewBox="0 0 24 24" style="enable-background:new 0 0 24 24;" xml:space="preserve">
<path style="fill:#333333;" d="M12,22.5C6.21,22.5,1.5,17.79,1.5,12C1.5,6.21,6.21,1.5,12,1.5c5.79,0,10.5,4.71,10.5,10.5h-1
	c0-5.238-4.262-9.5-9.5-9.5S2.5,6.762,2.5,12s4.262,9.5,9.5,9.5V22.5z"/>
<rect x="18" y="15.672" transform="matrix(0.7071 -0.7071 0.7071 0.7071 -7.663 18.5)" style="fill:#333333;" width="1" height="5.657"/>
<rect x="15.672" y="18" transform="matrix(0.7071 -0.7071 0.7071 0.7071 -7.663 18.5)" style="fill:#333333;" width="5.657" height="1"/>
<path style="fill:#333333;" d="M9.5,16.33V7.67L17,12L9.5,16.33z M10.5,9.402v5.195L15,12L10.5,9.402z"/>
</svg>






