<?xml version="1.0" encoding="iso-8859-1"?>
<svg version="1.1" id="&#x56FE;&#x5C42;_1" xmlns="http://www.w3.org/2000/svg" xmlns:xlink="http://www.w3.org/1999/xlink" x="0px"
	 y="0px" viewBox="0 0 24 24" style="enable-background:new 0 0 24 24;" xml:space="preserve">
<path style="fill:#333333;" d="M13.84,22.074c-1.516,0-3.061-0.376-4.563-1.127c-2.705-1.353-5.411-5.2-7.205-8.19
	C1.141,11.206,1.724,9.73,2.715,8.956c0.933-0.728,2.469-0.98,3.638,0.19L7.5,10.293V3.75c0-1.241,1.009-2.25,2.25-2.25
	S12,2.509,12,3.75v2.38c0.357-0.24,0.788-0.38,1.25-0.38c0.898,0,1.676,0.529,2.036,1.292C15.68,6.705,16.191,6.5,16.75,6.5
	C17.99,6.5,19,7.509,19,8.749V9.38C19.357,9.14,19.788,9,20.25,9c1.24,0,2.25,1.009,2.25,2.25v4.372
	c0,0.729-0.188,1.389-0.544,1.909c-0.559,0.819-1.785,2.354-3.717,3.407C16.853,21.695,15.361,22.074,13.84,22.074z M4.463,9.339
	c-0.417,0-0.818,0.16-1.132,0.405c-0.597,0.466-1.061,1.4-0.401,2.499c1.726,2.875,4.305,6.564,6.794,7.81
	c2.749,1.375,5.527,1.377,8.037,0.009c1.747-0.954,2.86-2.348,3.369-3.094c0.246-0.359,0.37-0.812,0.37-1.346V11.25
	c0-0.689-0.561-1.25-1.25-1.25S19,10.561,19,11.25h-1V8.749C18,8.061,17.439,7.5,16.75,7.5S15.5,8.061,15.5,8.75h-1V8
	c0-0.689-0.561-1.25-1.25-1.25S12,7.311,12,8h-1V3.75c0-0.689-0.561-1.25-1.25-1.25S8.5,3.061,8.5,3.75v7.75l-0.854,0.354l-2-2
	C5.281,9.488,4.865,9.339,4.463,9.339z"/>
</svg>






