<?xml version="1.0" encoding="iso-8859-1"?>
<svg version="1.1" id="&#x56FE;&#x5C42;_1" xmlns="http://www.w3.org/2000/svg" xmlns:xlink="http://www.w3.org/1999/xlink" x="0px"
	 y="0px" viewBox="0 0 24 24" style="enable-background:new 0 0 24 24;" xml:space="preserve">
<path style="fill:#333333;" d="M18.5,22.5H8.738c-0.213,0-0.417-0.112-0.532-0.294l-4.701-7.579
	c-0.66-1.063-0.438-2.476,0.517-3.285c0.575-0.488,1.329-0.695,2.074-0.568c0.743,0.126,1.388,0.571,1.77,1.222l0.3,0.511V3.971
	c0-1.363,1.108-2.471,2.471-2.471c1.362,0,2.471,1.108,2.471,2.471v4.664l5.853,0.237C19.824,8.901,20.5,9.6,20.5,10.464V20.5
	C20.5,21.603,19.603,22.5,18.5,22.5z M8.945,21.5H18.5c0.552,0,1-0.448,1-1V10.464c0-0.321-0.251-0.582-0.572-0.592l-5.811-0.194
	c-0.565-0.019-1.009-0.477-1.009-1.042V3.971c0-0.811-0.66-1.471-1.471-1.471S9.167,3.16,9.167,3.971v10.375l-0.931,0.253
	l-1.231-2.098c-0.232-0.395-0.624-0.665-1.075-0.742c-0.453-0.079-0.911,0.049-1.26,0.345c-0.58,0.491-0.715,1.35-0.314,1.995
	L8.945,21.5z"/>
</svg>






