<?xml version="1.0" encoding="iso-8859-1"?>
<svg version="1.1" id="&#x56FE;&#x5C42;_1" xmlns="http://www.w3.org/2000/svg" xmlns:xlink="http://www.w3.org/1999/xlink" x="0px"
	 y="0px" viewBox="0 0 24 24" style="enable-background:new 0 0 24 24;" xml:space="preserve">
<path style="fill:#333333;" d="M17.391,22.5H6.609l-3.75-15h18.281L17.391,22.5z M7.391,21.5h9.219l3.25-13H4.141L7.391,21.5z"/>
<rect x="9.5" y="8" style="fill:#333333;" width="1" height="14"/>
<rect x="13.5" y="8" style="fill:#333333;" width="1" height="14"/>
<path style="fill:#333333;" d="M18.013,8.5h-3.025l-0.142-0.125C14.309,7.9,14,7.217,14,6.5C14,5.122,15.121,4,16.5,4
	S19,5.122,19,6.5c0,0.717-0.309,1.4-0.846,1.875L18.013,8.5z M15.382,7.5h2.236C17.862,7.227,18,6.871,18,6.5
	C18,5.673,17.327,5,16.5,5S15,5.673,15,6.5C15,6.871,15.138,7.227,15.382,7.5z"/>
<path style="fill:#333333;" d="M13.513,8.5h-3.024l-0.142-0.125C9.809,7.901,9.5,7.217,9.5,6.5C9.5,5.122,10.622,4,12,4
	c1.379,0,2.5,1.122,2.5,2.5c0,0.717-0.309,1.4-0.846,1.875L13.513,8.5z M10.882,7.5h2.236c0.244-0.273,0.382-0.629,0.382-1
	C13.5,5.673,12.827,5,12,5s-1.5,0.673-1.5,1.5C10.5,6.871,10.638,7.227,10.882,7.5z"/>
<path style="fill:#333333;" d="M9.012,8.5H5.988L5.847,8.375C5.309,7.901,5,7.217,5,6.5C5,5.122,6.122,4,7.5,4S10,5.122,10,6.5
	c0,0.717-0.309,1.401-0.847,1.875L9.012,8.5z M6.382,7.5h2.236C8.862,7.227,9,6.871,9,6.5C9,5.673,8.327,5,7.5,5S6,5.673,6,6.5
	C6,6.871,6.138,7.227,6.382,7.5z"/>
<path style="fill:#333333;" d="M11.921,4.625l-0.969-0.249C10.984,4.253,11,4.127,11,4c0-0.827-0.673-1.5-1.5-1.5S8,3.173,8,4
	c0,0.127,0.016,0.253,0.047,0.375L7.079,4.625C7.026,4.421,7,4.211,7,4c0-1.378,1.122-2.5,2.5-2.5S12,2.622,12,4
	C12,4.211,11.974,4.421,11.921,4.625z"/>
<path style="fill:#333333;" d="M16.92,4.627l-0.967-0.254C15.984,4.254,16,4.129,16,4c0-0.827-0.673-1.5-1.5-1.5S13,3.173,13,4
	c0,0.129,0.016,0.254,0.047,0.373L12.08,4.627C12.027,4.425,12,4.214,12,4c0-1.378,1.121-2.5,2.5-2.5S17,2.622,17,4
	C17,4.214,16.973,4.425,16.92,4.627z"/>
<rect x="8" y="7.5" style="fill:#333333;" width="8" height="1"/>
<rect x="8" y="21.5" style="fill:#333333;" width="8" height="1"/>
</svg>






