<?xml version="1.0" encoding="iso-8859-1"?>
<svg version="1.1" id="&#x56FE;&#x5C42;_1" xmlns="http://www.w3.org/2000/svg" xmlns:xlink="http://www.w3.org/1999/xlink" x="0px"
	 y="0px" viewBox="0 0 24 24" style="enable-background:new 0 0 24 24;" xml:space="preserve">
<path style="fill:#333333;" d="M14.896,22.5H8.104c-0.857,0-1.329,0-1.741-0.329c-0.411-0.33-0.52-0.818-0.7-1.628L2.876,8h17.247
	l-2.787,12.542c-0.179,0.81-0.287,1.298-0.7,1.629C16.226,22.5,15.753,22.5,14.896,22.5z M4.124,9L6.64,20.325
	c0.132,0.596,0.212,0.955,0.349,1.065C7.126,21.5,7.495,21.5,8.104,21.5h6.791c0.61,0,0.979,0,1.114-0.109
	c0.139-0.111,0.218-0.47,0.35-1.065L18.877,9H4.124z"/>
<rect x="6.995" y="14.75" transform="matrix(0.0371 -0.9993 0.9993 0.0371 -1.9994 28.425)" style="fill:#333333;" width="13.509" height="1.001"/>
<rect x="8.75" y="8.495" transform="matrix(0.9993 -0.037 0.037 0.9993 -0.5581 0.3528)" style="fill:#333333;" width="1" height="13.509"/>
<rect x="7.5" y="21.5" style="fill:#333333;" width="8" height="1"/>
<rect x="7.5" y="8" style="fill:#333333;" width="8" height="1"/>
<path style="fill:#333333;" d="M17.947,8.724l-0.896-0.446C17.059,8.265,17.652,7.037,17.1,6.3c-0.584-0.779-1.593-0.8-1.603-0.8
	l-0.494-0.006L15,5c-0.001-0.057-0.024-1.451-1.138-1.769c-1.096-0.315-1.9,0.972-1.934,1.026L11.691,4.65l-0.414-0.203
	C10.92,4.271,9.855,3.88,9.224,4.197C8.527,4.545,8.5,5.74,8.5,5.751L8.496,6.335L7.919,6.243C7.57,6.187,6.565,6.142,6.104,6.604
	C5.67,7.038,5.87,8.029,5.974,8.342L5.026,8.658c-0.062-0.184-0.571-1.82,0.371-2.762c0.62-0.62,1.573-0.697,2.156-0.688
	c0.1-0.585,0.389-1.489,1.224-1.906c0.878-0.438,1.97-0.142,2.552,0.08c0.446-0.554,1.437-1.504,2.81-1.113
	c1.34,0.383,1.716,1.607,1.821,2.28C16.473,4.642,17.31,4.913,17.9,5.7C18.825,6.933,17.983,8.651,17.947,8.724z"/>
</svg>






