<?xml version="1.0" encoding="iso-8859-1"?>
<svg version="1.1" id="&#x56FE;&#x5C42;_1" xmlns="http://www.w3.org/2000/svg" xmlns:xlink="http://www.w3.org/1999/xlink" x="0px"
	 y="0px" viewBox="0 0 24 24" style="enable-background:new 0 0 24 24;" xml:space="preserve">
<path style="fill:#333333;" d="M20.5,22h-17c-1.103,0-2-0.897-2-2V10c0-1.103,0.897-2,2-2h2.643c0.983,0,1.763,0.727,2.333,1.359
	C8.945,9.88,9.937,10.5,12,10.5s3.056-0.62,3.524-1.141C16.094,8.727,16.875,8,17.857,8H20.5c1.103,0,2,0.897,2,2v10
	C22.5,21.103,21.603,22,20.5,22z M3.5,9c-0.551,0-1,0.449-1,1v10c0,0.552,0.449,1,1,1h17c0.552,0,1-0.448,1-1V10
	c0-0.551-0.448-1-1-1h-2.643c-0.595,0-1.192,0.587-1.591,1.028C15.662,10.7,14.432,11.5,12,11.5s-3.663-0.8-4.267-1.472
	C7.335,9.587,6.737,9,6.143,9H3.5z"/>
<path style="fill:#333333;" d="M12,11.5c-2.804,0-5-1.318-5-3h1c0,0.946,1.643,2,4,2s4-1.054,4-2h1C17,10.182,14.804,11.5,12,11.5z"
	/>
<path style="fill:#333333;" d="M12,8C9.196,8,7,6.682,7,5s2.196-3,5-3s5,1.318,5,3S14.804,8,12,8z M12,3C9.643,3,8,4.054,8,5
	s1.643,2,4,2s4-1.054,4-2S14.357,3,12,3z"/>
<rect x="16" y="5" style="fill:#333333;" width="1" height="3.5"/>
<rect x="7" y="5" style="fill:#333333;" width="1" height="3.5"/>
<ellipse style="fill:#333333;" cx="13.5" cy="5" rx="1" ry="0.5"/>
<ellipse style="fill:#333333;" cx="10.5" cy="5" rx="1" ry="0.5"/>
</svg>






