<?xml version="1.0" encoding="iso-8859-1"?>
<svg version="1.1" id="&#x56FE;&#x5C42;_1" xmlns="http://www.w3.org/2000/svg" xmlns:xlink="http://www.w3.org/1999/xlink" x="0px"
	 y="0px" viewBox="0 0 24 24" style="enable-background:new 0 0 24 24;" xml:space="preserve">
<path style="fill:#333333;" d="M16.757,22.429l-0.514-0.857c2.83-1.692,4.372-4.143,4.713-7.491
	c0.335-3.299-1.203-5.879-4.705-7.887L16,6.049V2h1v3.473c3.651,2.18,5.316,5.109,4.95,8.709
	C21.581,17.814,19.833,20.59,16.757,22.429z"/>
<path style="fill:#333333;" d="M11.028,20.5c-0.79,0-1.718-0.461-2.826-1.401C4.261,15.754,2,13.116,2,11.863
	c0-0.978,1.392-6.528,2.121-8.185c0.539-1.227,1.441-1.957,2.681-2.17l0.17,0.985C6.07,2.648,5.438,3.167,5.036,4.08
	C4.322,5.703,3,11.097,3,11.863c0,0.419,1.051,2.401,5.85,6.474c1.26,1.069,1.964,1.215,2.34,1.149
	c0.261-0.047,0.476-0.227,0.657-0.55c0.38-0.677,0.051-1.099-1.13-2.024c-0.779-0.611-4.666-3.74-4.666-5.356
	c0-0.489,0.208-1.705,2.006-6.585l0.938,0.346c-1.607,4.362-1.944,5.8-1.944,6.239c0,0.583,1.637,2.495,4.283,4.569
	c0.949,0.744,2.25,1.763,1.384,3.302c-0.332,0.591-0.787,0.942-1.352,1.044C11.256,20.49,11.144,20.5,11.028,20.5z"/>
<path style="fill:#333333;" d="M5.017,22.101c-0.679-2.522-1.155-5.072-1.414-7.578l0.995-0.104c0.253,2.453,0.719,4.95,1.385,7.422
	L5.017,22.101z"/>
<path style="fill:#333333;" d="M18.693,14.301l-0.99-0.139c0.085-0.606,0.022-1.297-0.186-2.052
	c-0.195-0.709-0.618-1.273-1.294-1.722l0.553-0.833c0.873,0.58,1.447,1.35,1.706,2.29C18.726,12.732,18.797,13.558,18.693,14.301z"
	/>
</svg>






