<?xml version="1.0" encoding="iso-8859-1"?>
<svg version="1.1" id="&#x56FE;&#x5C42;_1" xmlns="http://www.w3.org/2000/svg" xmlns:xlink="http://www.w3.org/1999/xlink" x="0px"
	 y="0px" viewBox="0 0 24 24" style="enable-background:new 0 0 24 24;" xml:space="preserve">
<path style="fill:#333333;" d="M13.852,22.589c-0.943,0-1.921-0.207-3.027-0.62l0,0c-2.522-0.943-4.58-4.104-5.582-5.904
	c-0.535-0.962-0.28-2.175,0.606-2.885C6.788,12.431,8.127,12.483,9,13.295V8.75C9,7.785,9.785,7,10.75,7s1.75,0.785,1.75,1.75v1.419
	C12.728,10.061,12.981,10,13.25,10c0.777,0,1.438,0.509,1.665,1.212C15.164,11.077,15.448,11,15.75,11
	c0.777,0,1.438,0.509,1.665,1.212C17.664,12.077,17.948,12,18.25,12c0.965,0,1.75,0.785,1.75,1.75v3.934
	c0,0.678-0.184,1.297-0.532,1.79c-0.599,0.849-1.564,1.969-2.771,2.486C15.718,22.379,14.802,22.589,13.852,22.589z M7.358,13.65
	c-0.312,0-0.624,0.103-0.884,0.311c-0.504,0.403-0.654,1.084-0.357,1.617c0.935,1.68,2.836,4.622,5.059,5.453l0,0
	c1.978,0.74,3.416,0.743,5.127,0.009c1.044-0.446,1.919-1.534,2.349-2.143C18.879,18.573,19,18.154,19,17.684V13.75
	c0-0.413-0.337-0.75-0.75-0.75s-0.75,0.337-0.75,0.75h-1v-1c0-0.413-0.337-0.75-0.75-0.75S15,12.337,15,12.75h-1v-1
	c0-0.414-0.337-0.75-0.75-0.75s-0.75,0.336-0.75,0.75h-1v-3C11.5,8.336,11.164,8,10.75,8S10,8.336,10,8.75v5.75l-0.854,0.354
	l-0.788-0.788C8.083,13.79,7.721,13.65,7.358,13.65z"/>
<path style="fill:#333333;" d="M6.327,7.688c-0.074-0.182-0.136-0.37-0.186-0.563C6.048,6.758,6,6.379,6,6
	c0-2.481,2.019-4.5,4.5-4.5S15,3.519,15,6h-1c0-1.93-1.57-3.5-3.5-3.5S7,4.07,7,6c0,0.291,0.036,0.58,0.106,0.86l0.159,0.484
	L6.327,7.688z"/>
</svg>






