<?xml version="1.0" encoding="iso-8859-1"?>
<svg version="1.1" id="&#x56FE;&#x5C42;_1" xmlns="http://www.w3.org/2000/svg" xmlns:xlink="http://www.w3.org/1999/xlink" x="0px"
	 y="0px" viewBox="0 0 24 24" style="enable-background:new 0 0 24 24;" xml:space="preserve">
<path style="fill:#333333;" d="M19,21.5H5c-0.827,0-1.5-0.673-1.5-1.5V4c0-0.827,0.673-1.5,1.5-1.5h9v6h6.5V20
	C20.5,20.827,19.827,21.5,19,21.5z M5,3.5C4.724,3.5,4.5,3.724,4.5,4v16c0,0.275,0.224,0.5,0.5,0.5h14c0.275,0,0.5-0.225,0.5-0.5
	V9.5H13v-6H5z"/>
<rect x="16.25" y="1.577" transform="matrix(0.6783 -0.7348 0.7348 0.6783 0.98 14.2383)" style="fill:#333333;" width="0.999" height="8.846"/>
<polygon style="fill:#333333;" points="20,9.541 13.012,9.541 13.012,3 14.012,3 14.012,8.541 20,8.541 "/>
<rect x="7" y="14.5" style="fill:#333333;" width="6" height="1"/>
<rect x="9.5" y="12" style="fill:#333333;" width="1" height="6"/>
</svg>






