<?xml version="1.0" encoding="iso-8859-1"?>
<svg version="1.1" id="&#x56FE;&#x5C42;_1" xmlns="http://www.w3.org/2000/svg" xmlns:xlink="http://www.w3.org/1999/xlink" x="0px"
	 y="0px" viewBox="0 0 24 24" style="enable-background:new 0 0 24 24;" xml:space="preserve">
<path style="fill:#333333;" d="M20.5,18h-17C2.673,18,2,17.327,2,16.5v-12C2,3.673,2.673,3,3.5,3h17C21.327,3,22,3.673,22,4.5v12
	C22,17.327,21.327,18,20.5,18z M3.5,4C3.224,4,3,4.224,3,4.5v12C3,16.775,3.224,17,3.5,17h17c0.275,0,0.5-0.225,0.5-0.5v-12
	C21,4.224,20.775,4,20.5,4H3.5z"/>
<rect x="6.5" y="7" style="fill:#333333;" width="1" height="7"/>
<rect x="16.5" y="7" style="fill:#333333;" width="1" height="7"/>
<rect x="11.5" y="8.5" style="fill:#333333;" width="1" height="4"/>
<rect x="10" y="10" style="fill:#333333;" width="4" height="1"/>
<rect x="2" y="20" style="fill:#333333;" width="20" height="1"/>
</svg>






