<?xml version="1.0" encoding="iso-8859-1"?>
<svg version="1.1" id="&#x56FE;&#x5C42;_1" xmlns="http://www.w3.org/2000/svg" xmlns:xlink="http://www.w3.org/1999/xlink" x="0px"
	 y="0px" viewBox="0 0 24 24" style="enable-background:new 0 0 24 24;" xml:space="preserve">
<path style="fill:#333333;" d="M12,12.5c-3.135,0-6.017-0.888-7.905-2.436c-0.675-0.553-1.193-1.17-1.538-1.833l0.887-0.462
	c0.283,0.542,0.715,1.055,1.285,1.522C6.416,10.674,9.134,11.5,12,11.5c2.865,0,5.583-0.826,7.272-2.209
	c0.569-0.467,1.001-0.979,1.284-1.522l0.887,0.462c-0.346,0.664-0.862,1.281-1.538,1.833C18.017,11.612,15.135,12.5,12,12.5z"/>
<rect x="14.506" y="11.932" transform="matrix(0.9659 -0.259 0.259 0.9659 -3.0967 4.3629)" style="fill:#333333;" width="1.001" height="4"/>
<rect x="19.591" y="10.091" transform="matrix(0.7071 -0.7071 0.7071 0.7071 -2.665 17.7477)" style="fill:#333333;" width="1" height="4"/>
<rect x="1.914" y="11.591" transform="matrix(0.7071 -0.7071 0.7071 0.7071 -7.403 6.3092)" style="fill:#333333;" width="4" height="1"/>
<rect x="6.981" y="13.432" transform="matrix(0.2579 -0.9662 0.9662 0.2579 -6.7956 19.0165)" style="fill:#333333;" width="4.001" height="1"/>
</svg>






