<?xml version="1.0" encoding="iso-8859-1"?>
<svg version="1.1" id="&#x56FE;&#x5C42;_1" xmlns="http://www.w3.org/2000/svg" xmlns:xlink="http://www.w3.org/1999/xlink" x="0px"
	 y="0px" viewBox="0 0 24 24" style="enable-background:new 0 0 24 24;" xml:space="preserve">
<path style="fill:#333333;" d="M12,18.5c-5.708,0-10.212-5.948-10.401-6.201L1.376,12l0.223-0.299
	c0.047-0.063,1.176-1.565,3.011-3.086l0.638,0.77C3.98,10.436,3.052,11.497,2.639,12C3.619,13.187,7.49,17.5,12,17.5
	c0.61,0,1.242-0.08,1.879-0.239l0.242,0.971C13.405,18.409,12.691,18.5,12,18.5z M19.391,15.385l-0.639-0.77
	c1.269-1.051,2.195-2.112,2.609-2.614C20.382,10.814,16.51,6.5,12,6.5c-0.608,0-1.235,0.079-1.863,0.235L9.896,5.765
	C10.603,5.589,11.311,5.5,12,5.5c5.708,0,10.212,5.948,10.4,6.201L22.624,12L22.4,12.299C22.354,12.362,21.225,13.864,19.391,15.385
	z"/>
<path style="fill:#333333;" d="M12,15c-1.654,0-3-1.346-3-3c0-0.753,0.28-1.473,0.789-2.027l0.736,0.676
	C10.187,11.018,10,11.498,10,12c0,1.103,0.897,2,2,2c0.526,0,1.023-0.203,1.4-0.572l0.699,0.715C13.536,14.695,12.79,15,12,15z"/>
<rect x="11.5" y="-0.728" transform="matrix(0.7071 -0.7071 0.7071 0.7071 -4.9706 12)" style="fill:#333333;" width="1" height="25.456"/>
</svg>






