<?xml version="1.0" encoding="iso-8859-1"?>
<svg version="1.1" id="&#x56FE;&#x5C42;_1" xmlns="http://www.w3.org/2000/svg" xmlns:xlink="http://www.w3.org/1999/xlink" x="0px"
	 y="0px" viewBox="0 0 24 24" style="enable-background:new 0 0 24 24;" xml:space="preserve">
<path style="fill:#333333;" d="M19.5,10h-1V4c0-0.276-0.225-0.5-0.5-0.5H6C5.724,3.5,5.5,3.724,5.5,4v6h-1V4
	c0-0.827,0.673-1.5,1.5-1.5h12c0.827,0,1.5,0.673,1.5,1.5V10z"/>
<path style="fill:#333333;" d="M20,21.5H4c-0.827,0-1.5-0.673-1.5-1.5v-9c0-0.827,0.673-1.5,1.5-1.5h16c0.827,0,1.5,0.673,1.5,1.5v9
	C21.5,20.827,20.827,21.5,20,21.5z M4,10.5c-0.276,0-0.5,0.224-0.5,0.5v9c0,0.275,0.224,0.5,0.5,0.5h16c0.275,0,0.5-0.225,0.5-0.5
	v-9c0-0.276-0.225-0.5-0.5-0.5H4z"/>
<path style="fill:#333333;" d="M18,21.5H9.5v-5H18V21.5z M10.5,20.5H17v-3h-6.5V20.5z"/>
<rect x="6" y="12.5" style="fill:#333333;" width="1.5" height="1"/>
</svg>






