<?xml version="1.0" encoding="iso-8859-1"?>
<svg version="1.1" id="&#x56FE;&#x5C42;_1" xmlns="http://www.w3.org/2000/svg" xmlns:xlink="http://www.w3.org/1999/xlink" x="0px"
	 y="0px" viewBox="0 0 24 24" style="enable-background:new 0 0 24 24;" xml:space="preserve">
<path style="fill:#333333;" d="M21,17h-5v-1h5c0.275,0,0.5-0.225,0.5-0.5v-8C21.5,7.224,21.275,7,21,7h-5V6h5
	c0.827,0,1.5,0.673,1.5,1.5v8C22.5,16.327,21.827,17,21,17z"/>
<path style="fill:#333333;" d="M8,17H3c-0.827,0-1.5-0.673-1.5-1.5v-8C1.5,6.673,2.173,6,3,6h5v1H3C2.724,7,2.5,7.224,2.5,7.5v8
	C2.5,15.775,2.724,16,3,16h5V17z"/>
<polygon style="fill:#333333;" points="18.5,10 5.5,10 5.5,6.5 6.5,6.5 6.5,9 17.5,9 17.5,6.5 18.5,6.5 "/>
<polygon style="fill:#333333;" points="16.5,6.5 15.5,6.5 15.5,3 8.5,3 8.5,6.5 7.5,6.5 7.5,2 16.5,2 "/>
<polygon style="fill:#333333;" points="16.5,22 7.5,22 7.5,14.5 8.5,14.5 8.5,21 15.5,21 15.5,14.5 16.5,14.5 "/>
<rect x="11" y="17" style="fill:#333333;" width="2" height="1"/>
<rect x="6.5" y="13" style="fill:#333333;" width="11" height="1"/>
</svg>






