<?xml version="1.0" encoding="iso-8859-1"?>
<svg version="1.1" id="&#x56FE;&#x5C42;_1" xmlns="http://www.w3.org/2000/svg" xmlns:xlink="http://www.w3.org/1999/xlink" x="0px"
	 y="0px" viewBox="0 0 24 24" style="enable-background:new 0 0 24 24;" xml:space="preserve">
<path style="fill:#333333;" d="M9.5,7h-6c-0.551,0-1-0.449-1-1V2h1v4h6V2h1v4C10.5,6.551,10.051,7,9.5,7z"/>
<rect x="3" y="3" style="fill:#333333;" width="7" height="1"/>
<polygon style="fill:#333333;" points="14,22.5 2.5,22.5 2.5,10.5 14,10.5 14,11.5 3.5,11.5 3.5,21.5 14,21.5 "/>
<rect x="7.5" y="6.5" style="fill:#333333;" width="1" height="15.5"/>
<rect x="4.5" y="6.5" style="fill:#333333;" width="1" height="4.5"/>
<rect x="6" y="2" style="fill:#333333;" width="1" height="1.5"/>
<rect x="13" y="6.5" style="fill:#333333;" width="1" height="1.5"/>
<rect x="17" y="6.5" style="fill:#333333;" width="1" height="1.5"/>
<rect x="21" y="6.5" style="fill:#333333;" width="1" height="1.5"/>
<path style="fill:#333333;" d="M22,22.5h-9v-15h9V22.5z M14,21.5h7v-13h-7V21.5z"/>
<rect x="17" y="17" style="fill:#333333;" width="1" height="5"/>
<rect x="15.5" y="21.5" style="fill:#333333;" width="4" height="1"/>
</svg>






