<?xml version="1.0" encoding="iso-8859-1"?>
<svg version="1.1" id="&#x56FE;&#x5C42;_1" xmlns="http://www.w3.org/2000/svg" xmlns:xlink="http://www.w3.org/1999/xlink" x="0px"
	 y="0px" viewBox="0 0 24 24" style="enable-background:new 0 0 24 24;" xml:space="preserve">
<path style="fill:#333333;" d="M21,17.5H3c-0.827,0-1.5-0.673-1.5-1.5V6c0-0.827,0.673-1.5,1.5-1.5h18c0.827,0,1.5,0.673,1.5,1.5v10
	C22.5,16.827,21.827,17.5,21,17.5z M3,5.5C2.724,5.5,2.5,5.724,2.5,6v10c0,0.275,0.224,0.5,0.5,0.5h18c0.275,0,0.5-0.225,0.5-0.5V6
	c0-0.276-0.225-0.5-0.5-0.5H3z"/>
<rect x="6" y="9" style="fill:#333333;" width="3" height="1"/>
<rect x="6" y="12" style="fill:#333333;" width="2" height="1"/>
<rect x="6.5" y="17" style="fill:#333333;" width="1" height="3"/>
<rect x="16.5" y="17" style="fill:#333333;" width="1" height="3"/>
<path style="fill:#333333;" d="M15.5,14c-1.654,0-3-1.346-3-3s1.346-3,3-3s3,1.346,3,3S17.154,14,15.5,14z M15.5,9
	c-1.103,0-2,0.897-2,2c0,1.103,0.897,2,2,2s2-0.897,2-2C17.5,9.897,16.603,9,15.5,9z"/>
</svg>






