<?xml version="1.0" encoding="iso-8859-1"?>
<svg version="1.1" id="&#x56FE;&#x5C42;_1" xmlns="http://www.w3.org/2000/svg" xmlns:xlink="http://www.w3.org/1999/xlink" x="0px"
	 y="0px" viewBox="0 0 24 24" style="enable-background:new 0 0 24 24;" xml:space="preserve">
<polygon style="fill:#333333;" points="22.5,16.5 1.5,16.5 1.5,7.5 12,7.5 12,8.5 2.5,8.5 2.5,15.5 21.5,15.5 21.5,8.5 19,8.5 
	19,7.5 22.5,7.5 "/>
<path style="fill:#333333;" d="M6.5,19.5h-4v-4h4V19.5z M3.5,18.5h2v-2h-2V18.5z"/>
<path style="fill:#333333;" d="M21.5,19.5h-4v-4h4V19.5z M18.5,18.5h2v-2h-2V18.5z"/>
<rect x="5" y="11.5" style="fill:#333333;" width="4" height="1"/>
<path style="fill:#333333;" d="M15.5,12c-2.206,0-4-1.794-4-4s1.794-4,4-4s4,1.794,4,4S17.706,12,15.5,12z M15.5,5
	c-1.654,0-3,1.346-3,3s1.346,3,3,3s3-1.346,3-3S17.154,5,15.5,5z"/>
<circle style="fill:#333333;" cx="15.5" cy="8" r="1.5"/>
</svg>






