<?xml version="1.0" encoding="iso-8859-1"?>
<svg version="1.1" id="&#x56FE;&#x5C42;_1" xmlns="http://www.w3.org/2000/svg" xmlns:xlink="http://www.w3.org/1999/xlink" x="0px"
	 y="0px" viewBox="0 0 24 24" style="enable-background:new 0 0 24 24;" xml:space="preserve">
<polygon style="fill:#333333;" points="11,10.5 10,10.5 10,5.5 5.5,5.5 5.5,10.5 4.5,10.5 4.5,4.5 11,4.5 "/>
<path style="fill:#333333;" d="M21,19H3c-0.827,0-1.5-0.673-1.5-1.5v-6C1.5,10.673,2.173,10,3,10h18c0.827,0,1.5,0.673,1.5,1.5v6
	C22.5,18.327,21.827,19,21,19z M3,11c-0.276,0-0.5,0.224-0.5,0.5v6C2.5,17.775,2.724,18,3,18h18c0.275,0,0.5-0.225,0.5-0.5v-6
	c0-0.276-0.225-0.5-0.5-0.5H3z"/>
<path style="fill:#333333;" d="M8,13.5L8,13.5c0.552,0,1,0.448,1,1l0,0c0,0.552-0.448,1-1,1l0,0c-0.552,0-1-0.448-1-1l0,0
	C7,13.948,7.448,13.5,8,13.5z"/>
<rect x="14" y="14" style="fill:#333333;" width="4" height="1"/>
</svg>






