<?xml version="1.0" encoding="iso-8859-1"?>
<svg version="1.1" id="&#x56FE;&#x5C42;_1" xmlns="http://www.w3.org/2000/svg" xmlns:xlink="http://www.w3.org/1999/xlink" x="0px"
	 y="0px" viewBox="0 0 24 24" style="enable-background:new 0 0 24 24;" xml:space="preserve">
<g>
	<defs>
		<rect id="SVGID_1_" width="24" height="24"/>
	</defs>
	<clipPath id="SVGID_00000103248981485439268880000013590480906224577665_">
		<use xlink:href="#SVGID_1_"  style="overflow:visible;"/>
	</clipPath>
	<g style="clip-path:url(#SVGID_00000103248981485439268880000013590480906224577665_);">
		<path style="fill:#333333;" d="M20.66,20.5H3.34c-0.542,0-1.028-0.28-1.299-0.75c-0.271-0.469-0.271-1.03,0-1.5l8.66-15
			C10.972,2.78,11.458,2.5,12,2.5c0,0,0,0,0.001,0c0.542,0,1.027,0.281,1.298,0.75l8.66,15c0.271,0.47,0.271,1.03,0,1.5
			S21.202,20.5,20.66,20.5z M11.567,3.75l-8.66,15c-0.13,0.226-0.043,0.425,0,0.5S3.079,19.5,3.34,19.5h17.32
			c0.261,0,0.39-0.175,0.433-0.25c0.044-0.075,0.131-0.274,0-0.5l-8.659-15C12.303,3.524,12.087,3.5,12,3.5l0,0
			C11.913,3.5,11.697,3.524,11.567,3.75L11.567,3.75z"/>
		
			<rect x="6.362" y="14" transform="matrix(0.5079 -0.8614 0.8614 0.5079 -6.2161 18.1191)" style="fill:#333333;" width="12.777" height="1"/>
		
			<rect x="14.368" y="16.75" transform="matrix(0.479 -0.8778 0.8778 0.479 -6.0247 24.3493)" style="fill:#333333;" width="6.265" height="0.999"/>
	</g>
</g>
</svg>






