<?xml version="1.0" encoding="iso-8859-1"?>
<svg version="1.1" id="&#x56FE;&#x5C42;_1" xmlns="http://www.w3.org/2000/svg" xmlns:xlink="http://www.w3.org/1999/xlink" x="0px"
	 y="0px" viewBox="0 0 24 24" style="enable-background:new 0 0 24 24;" xml:space="preserve">
<path style="fill:#333333;" d="M21.5,12.5h-19V12c0-4.962,4.262-9,9.5-9s9.5,4.038,9.5,9V12.5z M3.517,11.5h16.967
	C20.208,7.321,16.509,4,12,4C7.492,4,3.792,7.321,3.517,11.5z"/>
<path style="fill:#333333;" d="M9.25,22.5C7.458,22.5,6,21.052,6,19.272h1C7,20.501,8.009,21.5,9.25,21.5s2.25-0.999,2.25-2.228
	v-7.269h1v7.269C12.5,21.052,11.042,22.5,9.25,22.5z"/>
<rect x="11.5" y="2" style="fill:#333333;" width="1" height="1.5"/>
</svg>






