<?xml version="1.0" encoding="iso-8859-1"?>
<svg version="1.1" id="&#x56FE;&#x5C42;_1" xmlns="http://www.w3.org/2000/svg" xmlns:xlink="http://www.w3.org/1999/xlink" x="0px"
	 y="0px" viewBox="0 0 24 24" style="enable-background:new 0 0 24 24;" xml:space="preserve">
<path style="fill:#333333;" d="M7.5,7.5C6.122,7.5,5,6.378,5,5s1.122-2.5,2.5-2.5S10,3.622,10,5S8.878,7.5,7.5,7.5z M7.5,3.5
	C6.673,3.5,6,4.173,6,5s0.673,1.5,1.5,1.5S9,5.827,9,5S8.327,3.5,7.5,3.5z"/>
<path style="fill:#333333;" d="M16.5,7.5C15.121,7.5,14,6.378,14,5s1.121-2.5,2.5-2.5S19,3.622,19,5S17.879,7.5,16.5,7.5z M16.5,3.5
	C15.673,3.5,15,4.173,15,5s0.673,1.5,1.5,1.5S18,5.827,18,5S17.327,3.5,16.5,3.5z"/>
<path style="fill:#333333;" d="M9.457,21.5H5.543l-1.091-12h6.095L9.457,21.5z M6.457,20.5h2.087l0.909-10H5.547L6.457,20.5z"/>
<path style="fill:#333333;" d="M18.457,21.5h-3.914l-0.5-5.5h-1.642l1.182-6.5h5.834l1.182,6.5h-1.642L18.457,21.5z M15.457,20.5
	h2.086l0.5-5.5h1.358l-0.818-4.5h-4.166L13.599,15h1.358L15.457,20.5z"/>
</svg>






