<?xml version="1.0" encoding="iso-8859-1"?>
<svg version="1.1" id="&#x56FE;&#x5C42;_1" xmlns="http://www.w3.org/2000/svg" xmlns:xlink="http://www.w3.org/1999/xlink" x="0px"
	 y="0px" viewBox="0 0 24 24" style="enable-background:new 0 0 24 24;" xml:space="preserve">
<path style="fill:#333333;" d="M18.5,22.5c-1.379,0-2.5-1.121-2.5-2.5s1.121-2.5,2.5-2.5S21,18.621,21,20S19.879,22.5,18.5,22.5z
	 M18.5,18.5c-0.827,0-1.5,0.673-1.5,1.5s0.673,1.5,1.5,1.5S20,20.827,20,20S19.327,18.5,18.5,18.5z"/>
<path style="fill:#333333;" d="M5.5,6.5C4.122,6.5,3,5.378,3,4s1.122-2.5,2.5-2.5S8,2.622,8,4S6.878,6.5,5.5,6.5z M5.5,2.5
	C4.673,2.5,4,3.173,4,4s0.673,1.5,1.5,1.5S7,4.827,7,4S6.327,2.5,5.5,2.5z"/>
<path style="fill:#333333;" d="M5.5,22.5C4.122,22.5,3,21.379,3,20s1.122-2.5,2.5-2.5S8,18.621,8,20S6.878,22.5,5.5,22.5z M5.5,18.5
	C4.673,18.5,4,19.173,4,20s0.673,1.5,1.5,1.5S7,20.827,7,20S6.327,18.5,5.5,18.5z"/>
<rect x="5" y="6" style="fill:#333333;" width="1" height="12"/>
<path style="fill:#333333;" d="M19,18h-1V7c0-0.827-0.673-1.5-1.5-1.5H12v-1h4.5C17.879,4.5,19,5.622,19,7V18z"/>
<polygon style="fill:#333333;" points="14.646,8.354 11.293,5 14.646,1.646 15.354,2.354 12.707,5 15.354,7.646 "/>
</svg>






