<?xml version="1.0" encoding="iso-8859-1"?>
<svg version="1.1" id="&#x56FE;&#x5C42;_1" xmlns="http://www.w3.org/2000/svg" xmlns:xlink="http://www.w3.org/1999/xlink" x="0px"
	 y="0px" viewBox="0 0 24 24" style="enable-background:new 0 0 24 24;" xml:space="preserve">
<path style="fill:#333333;" d="M15.5,20.5h-7c-3.86,0-7-3.141-7-7c0-3.86,3.14-7,7-7h7c3.859,0,7,3.14,7,7
	C22.5,17.359,19.359,20.5,15.5,20.5z M8.5,7.5c-3.309,0-6,2.691-6,6s2.691,6,6,6h7c3.309,0,6-2.691,6-6s-2.691-6-6-6H8.5z"/>
<path style="fill:#333333;" d="M12,20.5c-2.523,0-4.5-3.075-4.5-7c0-3.925,1.977-7,4.5-7s4.5,3.075,4.5,7
	C16.5,17.425,14.523,20.5,12,20.5z M12,7.5c-1.897,0-3.5,2.748-3.5,6c0,3.252,1.603,6,3.5,6c1.897,0,3.5-2.748,3.5-6
	C15.5,10.248,13.897,7.5,12,7.5z"/>
<path style="fill:#333333;" d="M12.5,7h-1V4.5c0-1.103,0.897-2,2-2H15v1h-1.5c-0.552,0-1,0.449-1,1V7z"/>
</svg>






