<?xml version="1.0" encoding="iso-8859-1"?>
<svg version="1.1" id="&#x56FE;&#x5C42;_1" xmlns="http://www.w3.org/2000/svg" xmlns:xlink="http://www.w3.org/1999/xlink" x="0px"
	 y="0px" viewBox="0 0 24 24" style="enable-background:new 0 0 24 24;" xml:space="preserve">
<path style="fill:#333333;" d="M5.697,20.959l-0.395-0.918c2.131-0.916,4.172-1.418,6.065-1.49c1.876-0.065,4.318,0.252,7.25,0.963
	l-0.236,0.973c-2.841-0.689-5.181-1.007-6.975-0.936C9.636,19.618,7.715,20.092,5.697,20.959z"/>
<path style="fill:#333333;" d="M11.024,22.04c-0.386-4.755-0.22-8.513,0.493-11.17l0.965,0.26c-0.683,2.545-0.838,6.189-0.462,10.83
	L11.024,22.04z"/>
<path style="fill:#333333;" d="M16.15,13.571c-1.435,0-2.917-0.524-4.435-1.572l-0.289-0.2l0.09-0.34
	c0.839-3.176,2.368-5.106,4.544-5.736c2.133-0.617,4.219-0.332,6.195,0.849l0.243,0.145L22.5,7c0.011,2.634-1.15,4.592-3.45,5.819
	C18.109,13.32,17.141,13.571,16.15,13.571z M12.578,11.373c2.147,1.386,4.112,1.571,6.001,0.564
	c1.891-1.009,2.847-2.532,2.917-4.648c-1.674-0.925-3.362-1.122-5.158-0.604C14.599,7.188,13.335,8.765,12.578,11.373z"/>
<path style="fill:#333333;" d="M8.709,12.105c-1.806,0-3.377-0.577-4.697-1.729C1.94,8.567,1.144,5.887,1.647,2.409l0.045-0.317
	L2,2.001c2.889-0.855,5.472-0.499,7.679,1.055c2.238,1.575,3.151,4.286,2.714,8.059l-0.037,0.32l-0.307,0.099
	C10.861,11.915,9.747,12.105,8.709,12.105z M2.594,2.873c-0.368,3,0.312,5.211,2.076,6.751c1.758,1.533,3.973,1.878,6.764,1.053
	c0.314-3.252-0.45-5.48-2.33-6.804C7.208,2.54,5.076,2.211,2.594,2.873z"/>
</svg>






