<?xml version="1.0" encoding="iso-8859-1"?>
<svg version="1.1" id="&#x56FE;&#x5C42;_1" xmlns="http://www.w3.org/2000/svg" xmlns:xlink="http://www.w3.org/1999/xlink" x="0px"
	 y="0px" viewBox="0 0 24 24" style="enable-background:new 0 0 24 24;" xml:space="preserve">
<path style="fill:#333333;" d="M12.485,22.121h-0.97L9.609,14.5H4.5V14c0-1.988,2.431-3.854,3.073-4.312l1.846-5.999L7.7,2.4L8,1.5
	h8l0.3,0.9l-1.719,1.289l1.84,5.98C17.645,10.415,19.5,11.893,19.5,14v0.5h-5.109L12.485,22.121z M5.576,13.5h4.815L12,19.938
	l1.609-6.438h4.84c-0.311-1.517-1.954-2.632-2.701-3.068l-0.169-0.098l-2.16-7.022L14.5,2.5h-5l1.082,0.811l-2.156,7.006
	l-0.148,0.099C7.595,10.873,5.948,12.216,5.576,13.5z"/>
</svg>






