<?xml version="1.0" encoding="iso-8859-1"?>
<svg version="1.1" id="&#x56FE;&#x5C42;_1" xmlns="http://www.w3.org/2000/svg" xmlns:xlink="http://www.w3.org/1999/xlink" x="0px"
	 y="0px" viewBox="0 0 24 24" style="enable-background:new 0 0 24 24;" xml:space="preserve">
<path style="fill:#333333;" d="M17.5,22.5h-16v-5H4c1.378,0,2.5-1.121,2.5-2.5S5.378,12.5,4,12.5H1.5v-7H6V5
	c0-1.93,1.57-3.5,3.5-3.5S13,3.07,13,5v0.5h4.5v6H19c1.93,0,3.5,1.57,3.5,3.5s-1.57,3.5-3.5,3.5h-1.5V22.5z M2.5,21.5h14v-4H19
	c1.379,0,2.5-1.121,2.5-2.5s-1.121-2.5-2.5-2.5h-2.5v-6H12V5c0-1.378-1.122-2.5-2.5-2.5S7,3.622,7,5v1.5H2.5v5H4
	c1.93,0,3.5,1.57,3.5,3.5S5.93,18.5,4,18.5H2.5V21.5z"/>
</svg>






