<?xml version="1.0" encoding="iso-8859-1"?>
<svg version="1.1" id="&#x56FE;&#x5C42;_1" xmlns="http://www.w3.org/2000/svg" xmlns:xlink="http://www.w3.org/1999/xlink" x="0px"
	 y="0px" viewBox="0 0 24 24" style="enable-background:new 0 0 24 24;" xml:space="preserve">
<path style="fill:#333333;" d="M5,15H4V7.813c0-0.884,0.452-1.684,1.208-2.141s1.676-0.483,2.457-0.072l6.568,3.457l-0.465,0.885
	L7.199,6.485C6.729,6.239,6.18,6.254,5.725,6.528C5.271,6.803,5,7.283,5,7.813V15z"/>
<polygon style="fill:#333333;" points="4.807,15.395 4.193,14.605 8.5,11.255 8.5,7 9.5,7 9.5,11.745 "/>
<polygon style="fill:#333333;" points="14.3,9.9 13.7,9.1 17.053,6.585 10.058,3.088 5.807,6.395 5.193,5.605 9.942,1.912 
	18.947,6.415 "/>
<path style="fill:#333333;" d="M17.501,18.69c-0.397,0-0.797-0.097-1.165-0.291l-6.569-3.457l0.466-0.885l6.568,3.457
	c0.469,0.245,1.019,0.23,1.475-0.043C18.729,17.197,19,16.718,19,16.188V9h1v7.188c0,0.884-0.451,1.684-1.208,2.14
	C18.393,18.568,17.947,18.69,17.501,18.69z"/>
<polygon style="fill:#333333;" points="15.5,17 14.5,17 14.5,12.256 19.193,8.605 19.807,9.395 15.5,12.744 "/>
<polygon style="fill:#333333;" points="14.059,22.088 5.053,17.585 9.7,14.1 10.3,14.9 6.947,17.415 13.941,20.912 18.193,17.605 
	18.807,18.395 "/>
</svg>






