<?xml version="1.0" encoding="iso-8859-1"?>
<svg version="1.1" id="&#x56FE;&#x5C42;_1" xmlns="http://www.w3.org/2000/svg" xmlns:xlink="http://www.w3.org/1999/xlink" x="0px"
	 y="0px" viewBox="0 0 24 24" style="enable-background:new 0 0 24 24;" xml:space="preserve">
<path style="fill:#333333;" d="M19.706,20.5H3.5c-1.103,0-2-0.897-2-2v-13c0-1.103,0.897-2,2-2h10.519
	c0.795,0,1.514,0.47,1.833,1.198l5.688,13c0.271,0.62,0.212,1.329-0.158,1.896C21.01,20.161,20.384,20.5,19.706,20.5z M3.5,4.5
	c-0.551,0-1,0.449-1,1v13c0,0.552,0.449,1,1,1h16.206c0.344,0,0.649-0.165,0.838-0.453c0.188-0.287,0.217-0.633,0.079-0.948
	l-5.688-13C14.776,4.735,14.416,4.5,14.019,4.5H3.5z"/>
</svg>






