<?xml version="1.0" encoding="iso-8859-1"?>
<svg version="1.1" id="&#x56FE;&#x5C42;_1" xmlns="http://www.w3.org/2000/svg" xmlns:xlink="http://www.w3.org/1999/xlink" x="0px"
	 y="0px" viewBox="0 0 24 24" style="enable-background:new 0 0 24 24;" xml:space="preserve">
<path style="fill-rule:evenodd;clip-rule:evenodd;fill:#333333;" d="M9.427,4.558C5.661,6.976,3.57,9.791,3.151,13.001
	C2.5,18,6.97,20.447,9.235,18.248s0.907-4.989-0.733-5.751C6.862,11.734,5.859,12,6.034,10.981c0.175-1.019,2.508-3.845,4.558-5.161
	c0.136-0.116,0.188-0.34,0.057-0.51c-0.086-0.112-0.255-0.332-0.507-0.659C9.922,4.364,9.711,4.375,9.427,4.558z"/>
<path style="fill-rule:evenodd;clip-rule:evenodd;fill:#333333;" d="M19.339,4.558c-3.765,2.418-5.857,5.233-6.275,8.443
	c-0.651,4.999,3.819,7.445,6.084,5.247s0.907-4.989-0.733-5.751c-1.64-0.763-2.643-0.497-2.468-1.516
	c0.175-1.019,2.508-3.845,4.558-5.161c0.136-0.116,0.188-0.34,0.057-0.51c-0.086-0.112-0.255-0.332-0.507-0.659
	C19.835,4.364,19.624,4.375,19.339,4.558z"/>
</svg>






