<?xml version="1.0" encoding="iso-8859-1"?>
<svg version="1.1" id="&#x56FE;&#x5C42;_1" xmlns="http://www.w3.org/2000/svg" xmlns:xlink="http://www.w3.org/1999/xlink" x="0px"
	 y="0px" viewBox="0 0 24 24" style="enable-background:new 0 0 24 24;" xml:space="preserve">
<path style="fill:#333333;" d="M3.5,22h-1V12c0.057-0.586,0.435-3.228,2.733-5.06L3.646,5.354C2.93,4.479,2.897,3.116,3.539,2.213
	c0.31-0.435,1.233-1.374,3.132-0.683c0.88,0.436,1.403,1.008,1.91,1.562C8.747,3.274,8.917,3.46,9.104,3.646l3.436,3.749
	c0.42,0.572,1.2,1.638,0.958,3.884l-0.994-0.107c0.2-1.861-0.407-2.69-0.771-3.186c-0.056-0.077-0.106-0.146-0.148-0.209l-3.2-3.437
	C8.199,4.157,8.019,3.959,7.843,3.767c-0.485-0.531-0.905-0.989-1.566-1.32C5.435,2.144,4.733,2.259,4.354,2.792
	C3.974,3.329,3.988,4.195,4.388,4.684l2.397,2.394L6.277,7.416c-2.362,1.575-2.73,4.136-2.78,4.634L3.5,22z"/>
<path style="fill:#333333;" d="M17.515,22.121c-0.076-0.304-0.167-0.688-0.268-1.108c-0.222-0.934-0.498-2.096-0.727-2.871
	C15.08,14.304,10.065,13,8,13v-1c2.376,0,7.818,1.424,9.468,5.824c0.248,0.836,0.527,2.012,0.753,2.957
	c0.099,0.416,0.189,0.796,0.265,1.098L17.515,22.121z"/>
<path style="fill:#333333;" d="M9.5,22h-1c0-1.243,0.521-3.15,1.988-4.435c1.367-1.198,3.243-1.646,5.579-1.336l-0.133,0.992
	c-2.034-0.276-3.646,0.096-4.787,1.096C9.931,19.381,9.5,20.966,9.5,22z"/>
<circle style="fill:#333333;" cx="20.25" cy="20.726" r="1"/>
</svg>






