<?xml version="1.0" encoding="iso-8859-1"?>
<svg version="1.1" id="&#x56FE;&#x5C42;_1" xmlns="http://www.w3.org/2000/svg" xmlns:xlink="http://www.w3.org/1999/xlink" x="0px"
	 y="0px" viewBox="0 0 24 24" style="enable-background:new 0 0 24 24;" xml:space="preserve">
<path style="fill:#333333;" d="M12,22.5C6.21,22.5,1.5,17.79,1.5,12C1.5,6.21,6.21,1.5,12,1.5c5.79,0,10.5,4.71,10.5,10.5
	C22.5,17.79,17.79,22.5,12,22.5z M12,2.5c-5.238,0-9.5,4.262-9.5,9.5s4.262,9.5,9.5,9.5s9.5-4.262,9.5-9.5S17.238,2.5,12,2.5z"/>
<path style="fill:#333333;" d="M12,17.5c-3.033,0-5.5-2.468-5.5-5.5c0-3.033,2.467-5.5,5.5-5.5c3.032,0,5.5,2.467,5.5,5.5
	C17.5,15.032,15.032,17.5,12,17.5z M12,7.5c-2.481,0-4.5,2.019-4.5,4.5s2.019,4.5,4.5,4.5s4.5-2.019,4.5-4.5S14.481,7.5,12,7.5z"/>
<rect x="11.5" y="2" style="fill:#333333;" width="1" height="20"/>
<rect x="2" y="11.502" style="fill:#333333;" width="7" height="1"/>
<rect x="2" y="11.504" style="fill:#333333;" width="20" height="1"/>
</svg>






