<?xml version="1.0" encoding="iso-8859-1"?>
<svg version="1.1" id="&#x56FE;&#x5C42;_1" xmlns="http://www.w3.org/2000/svg" xmlns:xlink="http://www.w3.org/1999/xlink" x="0px"
	 y="0px" viewBox="0 0 24 24" style="enable-background:new 0 0 24 24;" xml:space="preserve">
<rect x="11.5" y="2" style="fill:#333333;" width="1" height="8.5"/>
<path style="fill:#333333;" d="M12,22.5C6.21,22.5,1.5,17.79,1.5,12C1.5,6.21,6.21,1.5,12,1.5v1c-5.238,0-9.5,4.262-9.5,9.5
	s4.262,9.5,9.5,9.5s9.5-4.262,9.5-9.5c0-2.134-0.691-4.15-1.998-5.829l0.789-0.614C21.736,7.414,22.5,9.642,22.5,12
	C22.5,17.79,17.79,22.5,12,22.5z"/>
<path style="fill:#333333;" d="M12,18c-3.309,0-6-2.691-6-6s2.691-6,6-6v1c-2.757,0-5,2.243-5,5s2.243,5,5,5s5-2.243,5-5
	c0-1.124-0.363-2.185-1.052-3.068l0.789-0.614C17.563,9.378,18,10.652,18,12C18,15.309,15.309,18,12,18z"/>
<path style="fill:#333333;" d="M12,14c-1.103,0-2-0.897-2-2c0-1.103,0.897-2,2-2c1.103,0,2,0.897,2,2C14,13.103,13.103,14,12,14z
	 M12,11c-0.551,0-1,0.449-1,1c0,0.552,0.449,1,1,1c0.552,0,1-0.448,1-1C13,11.449,12.552,11,12,11z"/>
</svg>






