<?xml version="1.0" encoding="iso-8859-1"?>
<svg version="1.1" id="&#x56FE;&#x5C42;_1" xmlns="http://www.w3.org/2000/svg" xmlns:xlink="http://www.w3.org/1999/xlink" x="0px"
	 y="0px" viewBox="0 0 24 24" style="enable-background:new 0 0 24 24;" xml:space="preserve">
<path style="fill:#333333;" d="M20.5,21.5h-17C2.673,21.5,2,20.827,2,20V8c0-0.827,0.673-1.5,1.5-1.5h17C21.327,6.5,22,7.173,22,8
	v12C22,20.827,21.327,21.5,20.5,21.5z M3.5,7.5C3.224,7.5,3,7.724,3,8v12c0,0.275,0.224,0.5,0.5,0.5h17c0.275,0,0.5-0.225,0.5-0.5V8
	c0-0.276-0.225-0.5-0.5-0.5H3.5z"/>
<rect x="16" y="10.5" style="fill:#333333;" width="2" height="1"/>
<rect x="16" y="13.5" style="fill:#333333;" width="2" height="1"/>
<rect x="16" y="16.5" style="fill:#333333;" width="2" height="1"/>
<path style="fill:#333333;" d="M9,18c-2.206,0-4-1.794-4-4c0-2.206,1.794-4,4-4s4,1.794,4,4C13,16.206,11.206,18,9,18z M9,11
	c-1.654,0-3,1.346-3,3s1.346,3,3,3s3-1.346,3-3S10.654,11,9,11z"/>
<polygon style="fill:#333333;" points="19.5,7 18.5,7 18.5,3.5 5.5,3.5 5.5,7 4.5,7 4.5,2.5 19.5,2.5 "/>
</svg>






