<?xml version="1.0" encoding="iso-8859-1"?>
<svg version="1.1" id="&#x56FE;&#x5C42;_1" xmlns="http://www.w3.org/2000/svg" xmlns:xlink="http://www.w3.org/1999/xlink" x="0px"
	 y="0px" viewBox="0 0 24 24" style="enable-background:new 0 0 24 24;" xml:space="preserve">
<path style="fill:#333333;" d="M12.002,13.5c0.828,0,1.5-0.672,1.5-1.5s-0.672-1.5-1.5-1.5c-0.828,0-1.5,0.672-1.5,1.5
	S11.174,13.5,12.002,13.5z"/>
<path style="fill:#333333;" d="M12,22.5c-2.068,0-4.069-0.603-5.787-1.741l-0.415-0.275l3.581-5.439l0.418,0.277
	c1.308,0.868,3.101,0.868,4.407,0l0.418-0.277l3.581,5.439l-0.415,0.275C16.069,21.897,14.068,22.5,12,22.5z M7.188,20.189
	c2.911,1.72,6.713,1.72,9.624,0l-2.487-3.778c-1.427,0.751-3.22,0.753-4.648,0L7.188,20.189z M22.452,13.102l-6.486-0.39
	l0.027-0.497C15.997,12.134,16,12.054,16,11.972c0-1.529-0.848-2.905-2.212-3.59l-0.445-0.224l2.906-5.83l0.448,0.225
	C20.276,4.352,22.5,7.96,22.5,11.972c0,0.212-0.006,0.422-0.019,0.63L22.452,13.102z M16.996,11.771l4.504,0.271
	c0-0.023,0-0.047,0-0.07c0-3.463-1.83-6.594-4.81-8.288l-2.019,4.05C16.063,8.612,16.932,10.109,16.996,11.771z M1.548,13.102
	l-0.029-0.5C1.506,12.394,1.5,12.184,1.5,11.972c0-4.011,2.223-7.621,5.802-9.418L7.75,2.328l2.907,5.83l-0.445,0.224
	C8.848,9.066,8,10.442,8,11.972c0,0.081,0.002,0.161,0.007,0.24l0.03,0.499L1.548,13.102z M7.309,3.684
	C4.33,5.377,2.5,8.509,2.5,11.972c0,0.023,0,0.047,0,0.07l4.503-0.271c0.064-1.663,0.932-3.159,2.324-4.038L7.309,3.684z"/>
</svg>






