<?xml version="1.0" encoding="iso-8859-1"?>
<svg version="1.1" id="&#x56FE;&#x5C42;_1" xmlns="http://www.w3.org/2000/svg" xmlns:xlink="http://www.w3.org/1999/xlink" x="0px"
	 y="0px" viewBox="0 0 24 24" style="enable-background:new 0 0 24 24;" xml:space="preserve">
<path style="fill:#333333;" d="M12,22.681l-0.339-0.313C11.389,22.116,5,16.166,5,11.6c0-3.915,3.14-7.1,7-7.1
	c3.859,0,7,3.185,7,7.1c0,4.566-6.389,10.516-6.661,10.767L12,22.681z M12,5.5c-3.309,0-6,2.736-6,6.1c0,3.571,4.685,8.417,6,9.707
	c1.315-1.29,6-6.139,6-9.707C18,8.236,15.309,5.5,12,5.5z"/>
<rect x="11.5" y="2" style="fill:#333333;" width="1" height="3"/>
<rect x="9.5" y="2.149" transform="matrix(0.7809 -0.6247 0.6247 0.7809 -0.1513 7.0687)" style="fill:#333333;" width="1" height="3.202"/>
<rect x="12.399" y="3.25" transform="matrix(0.6247 -0.7809 0.7809 0.6247 2.326 12.3396)" style="fill:#333333;" width="3.202" height="1"/>
<rect x="6" y="9.5" style="fill:#333333;" width="4" height="1"/>
<rect x="14.5" y="13" style="fill:#333333;" width="3.5" height="1"/>
<rect x="8" y="16.5" style="fill:#333333;" width="3" height="1"/>
<path style="fill:#333333;" d="M9.627,20.267C7.516,17.9,5,14.476,5,11.6c0-1.618,0.523-3.142,1.512-4.408L7.3,7.808
	C6.449,8.896,6,10.208,6,11.6c0,1.998,1.553,4.839,4.373,8L9.627,20.267z"/>
<path style="fill:#333333;" d="M17.397,16.258l-0.855-0.516C17.51,14.138,18,12.744,18,11.6h1
	C19,12.929,18.461,14.496,17.397,16.258z"/>
</svg>






