<?xml version="1.0" encoding="iso-8859-1"?>
<svg version="1.1" id="&#x56FE;&#x5C42;_1" xmlns="http://www.w3.org/2000/svg" xmlns:xlink="http://www.w3.org/1999/xlink" x="0px"
	 y="0px" viewBox="0 0 24 24" style="enable-background:new 0 0 24 24;" xml:space="preserve">
<path style="fill:#333333;" d="M17,22.5H7c-0.827,0-1.5-0.673-1.5-1.499V10.844C5.5,7.227,8.294,4.5,12,4.5
	c3.706,0,6.5,2.727,6.5,6.344v10.157C18.5,21.827,17.827,22.5,17,22.5z M12,5.5c-3.136,0-5.5,2.297-5.5,5.344v10.157
	C6.5,21.276,6.724,21.5,7,21.5h10c0.275,0,0.5-0.224,0.5-0.499V10.844C17.5,7.797,15.136,5.5,12,5.5z"/>
<path style="fill:#333333;" d="M12,14c-1.378,0-2.5-1.121-2.5-2.5C9.5,10.122,10.622,9,12,9c1.379,0,2.5,1.122,2.5,2.5
	C14.5,12.879,13.379,14,12,14z M12,10c-0.827,0-1.5,0.673-1.5,1.5S11.173,13,12,13s1.5-0.673,1.5-1.5S12.827,10,12,10z"/>
<rect x="9" y="16.5" style="fill:#333333;" width="1" height="1"/>
<rect x="13" y="18.5" style="fill:#333333;" width="2" height="1"/>
<rect x="5.5" y="2" style="fill:#333333;" width="1" height="8"/>
</svg>






