<?xml version="1.0" encoding="iso-8859-1"?>
<svg version="1.1" id="&#x56FE;&#x5C42;_1" xmlns="http://www.w3.org/2000/svg" xmlns:xlink="http://www.w3.org/1999/xlink" x="0px"
	 y="0px" viewBox="0 0 24 24" style="enable-background:new 0 0 24 24;" xml:space="preserve">
<path style="fill:#333333;" d="M20.5,21h-17C2.673,21,2,20.327,2,19.5v-12C2,6.673,2.673,6,3.5,6h17C21.327,6,22,6.673,22,7.5v12
	C22,20.327,21.327,21,20.5,21z M3.5,7C3.224,7,3,7.224,3,7.5v12C3,19.775,3.224,20,3.5,20h17c0.275,0,0.5-0.225,0.5-0.5v-12
	C21,7.224,20.775,7,20.5,7H3.5z"/>
<path style="fill:#333333;" d="M9,17.5c-1.93,0-3.5-1.57-3.5-3.5s1.57-3.5,3.5-3.5s3.5,1.57,3.5,3.5S10.93,17.5,9,17.5z M9,11.5
	c-1.378,0-2.5,1.121-2.5,2.5s1.122,2.5,2.5,2.5s2.5-1.121,2.5-2.5S10.378,11.5,9,11.5z"/>
<rect x="15" y="11.5" style="fill:#333333;" width="3" height="1"/>
<rect x="15" y="15.5" style="fill:#333333;" width="3" height="1"/>
<rect x="2.969" y="3.75" transform="matrix(0.8944 -0.4472 0.4472 0.8944 -1.0561 4.0264)" style="fill:#333333;" width="10.062" height="1"/>
</svg>






