<?xml version="1.0" encoding="iso-8859-1"?>
<svg version="1.1" id="&#x56FE;&#x5C42;_1" xmlns="http://www.w3.org/2000/svg" xmlns:xlink="http://www.w3.org/1999/xlink" x="0px"
	 y="0px" viewBox="0 0 24 24" style="enable-background:new 0 0 24 24;" xml:space="preserve">
<path style="fill:#333333;" d="M17,16.5H7c-0.827,0-1.5-0.673-1.5-1.5V3c0-0.827,0.673-1.5,1.5-1.5h10c0.827,0,1.5,0.673,1.5,1.5v12
	C18.5,15.827,17.827,16.5,17,16.5z M7,2.5C6.724,2.5,6.5,2.724,6.5,3v12c0,0.275,0.224,0.5,0.5,0.5h10c0.275,0,0.5-0.225,0.5-0.5V3
	c0-0.276-0.225-0.5-0.5-0.5H7z"/>
<circle style="fill:#333333;" cx="9" cy="13" r="1"/>
<circle style="fill:#333333;" cx="15" cy="13" r="1"/>
<rect x="6" y="9.5" style="fill:#333333;" width="12" height="1"/>
<rect x="10.5" y="18.5" style="fill:#333333;" width="3" height="1"/>
<rect x="9" y="21.5" style="fill:#333333;" width="6" height="1"/>
<rect x="3.646" y="18.5" transform="matrix(0.4472 -0.8944 0.8944 0.4472 -13.1246 16.7639)" style="fill:#333333;" width="6.708" height="1"/>
<rect x="16.5" y="15.646" transform="matrix(0.8944 -0.4472 0.4472 0.8944 -6.7023 9.6085)" style="fill:#333333;" width="1" height="6.708"/>
<rect x="17.5" y="7.5" style="fill:#333333;" width="1" height="5"/>
<rect x="5.5" y="7.5" style="fill:#333333;" width="1" height="5"/>
</svg>






