<?xml version="1.0" encoding="iso-8859-1"?>
<svg version="1.1" id="&#x56FE;&#x5C42;_1" xmlns="http://www.w3.org/2000/svg" xmlns:xlink="http://www.w3.org/1999/xlink" x="0px"
	 y="0px" viewBox="0 0 24 24" style="enable-background:new 0 0 24 24;" xml:space="preserve">
<g>
	<defs>
		<rect id="SVGID_1_" width="24" height="24"/>
	</defs>
	<clipPath id="SVGID_00000016759574558727177050000012094490050049243306_">
		<use xlink:href="#SVGID_1_"  style="overflow:visible;"/>
	</clipPath>
	<g style="clip-path:url(#SVGID_00000016759574558727177050000012094490050049243306_);">
		<path style="fill:#333333;" d="M15.033,13.778c-1.362,0-2.73-0.46-3.853-1.401c-2.534-2.126-2.866-5.918-0.739-8.453
			c1.03-1.228,2.477-1.981,4.073-2.121c1.592-0.142,3.152,0.352,4.379,1.381l0,0c2.534,2.126,2.866,5.918,0.74,8.453
			C18.449,13.05,16.746,13.778,15.033,13.778z M15.046,2.781c-0.147,0-0.296,0.006-0.444,0.02c-1.33,0.116-2.536,0.744-3.395,1.767
			c-1.772,2.112-1.496,5.272,0.616,7.044c2.114,1.772,5.272,1.495,7.045-0.616c1.771-2.112,1.495-5.272-0.617-7.044l0,0
			C17.343,3.188,16.219,2.781,15.046,2.781z"/>
		<path style="fill:#333333;" d="M6.201,8.199L5.436,7.556C5.76,7.17,5.733,6.711,5.663,5.994C5.588,5.23,5.503,4.364,6.153,3.59
			c0.883-1.053,1.783-0.676,2.578-0.343c0.568,0.238,1.229,0.487,2.087,0.499l0.011,1c-1.096,0.003-1.86-0.314-2.485-0.576
			C7.522,3.824,7.314,3.762,6.919,4.232c-0.38,0.453-0.325,1.014-0.261,1.664C6.73,6.634,6.812,7.471,6.201,8.199z"/>
		<path style="fill:#333333;" d="M6.07,21.562c-0.671,0-1.354-0.25-1.96-0.759c-1.353-1.136-1.504-2.874-0.37-4.227
			c0.564-0.672,1.302-1.083,1.954-1.445c0.545-0.304,1.06-0.59,1.384-0.976c0.255-0.304,0.607-0.712,0.98-1.143
			c0.748-0.864,1.678-1.939,1.87-2.248l0.85,0.528c-0.217,0.349-0.951,1.204-1.963,2.374c-0.37,0.427-0.719,0.83-0.971,1.131
			c-0.443,0.527-1.064,0.873-1.664,1.207c-0.604,0.336-1.229,0.684-1.674,1.214c-0.792,0.945-0.698,2.025,0.247,2.818
			c0.929,0.779,2.036,0.684,2.818-0.247c0.444-0.53,0.678-1.205,0.904-1.857c0.225-0.65,0.458-1.322,0.901-1.85l2.893-3.447
			l0.766,0.643l-2.893,3.447c-0.324,0.387-0.517,0.944-0.722,1.534c-0.244,0.704-0.52,1.502-1.083,2.173
			C7.709,21.181,6.898,21.562,6.07,21.562z"/>
		<path style="fill:#333333;" d="M5.618,11.668c-0.454,0-0.91-0.153-1.284-0.466C3.49,10.493,3.379,9.229,4.088,8.384
			c0.343-0.409,0.826-0.661,1.358-0.707c0.533-0.048,1.051,0.117,1.46,0.46c0.409,0.343,0.66,0.826,0.707,1.357
			c0.047,0.532-0.117,1.051-0.46,1.46C6.757,11.426,6.189,11.668,5.618,11.668z M5.622,8.669c-0.03,0-0.06,0.001-0.089,0.004
			C5.267,8.697,5.025,8.822,4.854,9.027C4.5,9.449,4.555,10.082,4.977,10.436c0.422,0.354,1.055,0.298,1.409-0.124
			c0.171-0.205,0.253-0.464,0.23-0.73S6.467,9.075,6.263,8.903h0C6.081,8.751,5.856,8.669,5.622,8.669z"/>
		<path style="fill:#333333;" d="M14.228,20.854c-0.47,0-0.919-0.163-1.282-0.468c-0.845-0.71-0.955-1.974-0.246-2.817
			c0.343-0.409,0.825-0.66,1.357-0.707c0.535-0.056,1.051,0.117,1.46,0.46l0,0c0.409,0.344,0.66,0.826,0.707,1.357
			c0.047,0.532-0.117,1.051-0.461,1.46c-0.343,0.409-0.825,0.66-1.357,0.707C14.346,20.852,14.286,20.854,14.228,20.854z
			 M14.232,17.854c-0.286,0-0.569,0.122-0.768,0.357c-0.354,0.422-0.299,1.054,0.124,1.409c0.423,0.354,1.054,0.298,1.408-0.124
			c0.172-0.205,0.254-0.464,0.23-0.729c-0.023-0.267-0.149-0.508-0.354-0.68C14.687,17.931,14.459,17.854,14.232,17.854z"/>
		<path style="fill:#333333;" d="M15.661,17.888l-0.93-0.367c0.474-1.198,1.695-1.008,2.592-0.864
			c0.559,0.088,1.138,0.181,1.403-0.033c0.495-0.396,0.034-2.038-0.271-3.125c-0.133-0.473-0.259-0.925-0.338-1.317l0.98-0.197
			c0.074,0.371,0.195,0.798,0.32,1.244c0.443,1.578,0.945,3.366-0.066,4.177c-0.609,0.487-1.446,0.354-2.185,0.239
			C16.155,17.486,15.816,17.497,15.661,17.888z"/>
	</g>
</g>
</svg>






