<?xml version="1.0" encoding="iso-8859-1"?>
<svg version="1.1" id="&#x56FE;&#x5C42;_1" xmlns="http://www.w3.org/2000/svg" xmlns:xlink="http://www.w3.org/1999/xlink" x="0px"
	 y="0px" viewBox="0 0 24 24" style="enable-background:new 0 0 24 24;" xml:space="preserve">
<g>
	<defs>
		<rect id="SVGID_1_" width="24" height="24"/>
	</defs>
	<clipPath id="SVGID_00000001662952861278849180000004506657458806872236_">
		<use xlink:href="#SVGID_1_"  style="overflow:visible;"/>
	</clipPath>
	<g style="clip-path:url(#SVGID_00000001662952861278849180000004506657458806872236_);">
		<path style="fill:#333333;" d="M14.727,14.491c-1.361,0-2.729-0.459-3.852-1.4c-1.228-1.03-1.981-2.477-2.121-4.073
			s0.351-3.152,1.381-4.38c1.03-1.228,2.477-1.981,4.073-2.121c1.591-0.142,3.151,0.352,4.379,1.381l0,0
			c2.534,2.126,2.866,5.918,0.74,8.452C18.143,13.763,16.44,14.491,14.727,14.491z M14.74,3.494c-0.147,0-0.296,0.006-0.444,0.02
			c-1.33,0.116-2.536,0.744-3.395,1.767c-1.772,2.112-1.496,5.272,0.616,7.045c2.112,1.772,5.272,1.494,7.045-0.617
			c1.771-2.112,1.495-5.271-0.617-7.044l0,0C17.037,3.902,15.913,3.494,14.74,3.494z"/>
		<path style="fill:#333333;" d="M18.999,12.155c-0.843,0-3.24-0.188-5.553-2.129c-2.808-2.356-3.094-5.283-3.104-5.407l0.996-0.088
			c0.002,0.026,0.274,2.65,2.751,4.729c2.475,2.076,5.111,1.885,5.136,1.888l0.086,0.996C19.288,12.146,19.18,12.155,18.999,12.155z
			"/>
		<path style="fill:#333333;" d="M6.407,21.51c-0.671,0-1.354-0.25-1.959-0.759c-1.353-1.136-1.505-2.874-0.37-4.227
			c0.563-0.671,1.301-1.082,1.952-1.444c0.545-0.304,1.061-0.591,1.385-0.977c0.776-0.926,1.509-1.8,1.691-3.441l0.994,0.11
			c-0.215,1.942-1.081,2.974-1.918,3.972c-0.443,0.528-1.064,0.874-1.665,1.209c-0.604,0.336-1.228,0.684-1.673,1.213
			c-0.792,0.945-0.698,2.025,0.247,2.818c0.932,0.78,2.037,0.683,2.818-0.247c0.445-0.53,0.679-1.205,0.905-1.858
			c0.225-0.649,0.458-1.321,0.9-1.849c0.838-0.999,1.705-2.031,3.579-2.579l0.281,0.959c-1.584,0.464-2.318,1.337-3.094,2.262
			c-0.325,0.388-0.518,0.944-0.722,1.534c-0.244,0.705-0.521,1.503-1.084,2.174C8.046,21.129,7.235,21.51,6.407,21.51z"/>
		<path style="fill:#333333;" d="M19.799,5.566l-0.766-0.643c0.354-0.422,0.299-1.055-0.123-1.409
			c-0.422-0.354-1.055-0.3-1.409,0.124l-0.766-0.643c0.343-0.409,0.825-0.661,1.357-0.707c0.533-0.049,1.051,0.117,1.46,0.46
			C20.396,3.458,20.507,4.722,19.799,5.566z"/>
	</g>
</g>
</svg>






