<?xml version="1.0" encoding="iso-8859-1"?>
<svg version="1.1" id="&#x56FE;&#x5C42;_1" xmlns="http://www.w3.org/2000/svg" xmlns:xlink="http://www.w3.org/1999/xlink" x="0px"
	 y="0px" viewBox="0 0 24 24" style="enable-background:new 0 0 24 24;" xml:space="preserve">
<path style="fill:#333333;" d="M20.5,13h-17C2.673,13,2,12.327,2,11.5v-8C2,2.673,2.673,2,3.5,2h17C21.327,2,22,2.673,22,3.5v8
	C22,12.327,21.327,13,20.5,13z M3.5,3C3.224,3,3,3.224,3,3.5v8C3,11.776,3.224,12,3.5,12h17c0.275,0,0.5-0.224,0.5-0.5v-8
	C21,3.224,20.775,3,20.5,3H3.5z"/>
<rect x="6.5" y="2.5" style="fill:#333333;" width="1" height="10"/>
<rect x="16.5" y="2.5" style="fill:#333333;" width="1" height="10"/>
<rect x="15" y="2" style="fill:#333333;" width="4" height="1"/>
<rect x="2.5" y="5" style="fill:#333333;" width="19" height="1"/>
<rect x="2.5" y="9" style="fill:#333333;" width="19" height="1"/>
<rect x="2" y="4.5" style="fill:#333333;" width="1" height="6"/>
<rect x="21" y="4.5" style="fill:#333333;" width="1" height="6"/>
<rect x="5" y="2" style="fill:#333333;" width="4" height="1"/>
<rect x="15" y="12" style="fill:#333333;" width="4" height="1"/>
<rect x="5" y="12" style="fill:#333333;" width="4" height="1"/>
<path style="fill:#333333;" d="M12,17c-2.481,0-4.5-2.019-4.5-4.5h1c0,1.93,1.57,3.5,3.5,3.5s3.5-1.57,3.5-3.5h1
	C16.5,14.981,14.481,17,12,17z"/>
<polygon style="fill:#333333;" points="14,22 13,22 13,18.5 13.51,15.902 14.49,16.098 13.99,18.598 "/>
<polygon style="fill:#333333;" points="11,22 10,22 10,18.5 9.51,16.098 10.49,15.902 10.99,18.402 "/>
</svg>






