<?xml version="1.0" encoding="iso-8859-1"?>
<svg version="1.1" id="&#x56FE;&#x5C42;_1" xmlns="http://www.w3.org/2000/svg" xmlns:xlink="http://www.w3.org/1999/xlink" x="0px"
	 y="0px" viewBox="0 0 24 24" style="enable-background:new 0 0 24 24;" xml:space="preserve">
<path style="fill:#333333;" d="M12,22.495c-2.689,0-5.378-1.023-7.425-3.07l0,0c-4.094-4.094-4.094-10.755,0-14.85l0.354-0.354
	l14.85,14.85l-0.354,0.354C17.378,21.472,14.688,22.495,12,22.495z M5.282,18.718c3.585,3.585,9.346,3.699,13.073,0.345L4.938,5.645
	C1.583,9.37,1.698,15.132,5.282,18.718L5.282,18.718z"/>
<rect x="12.615" y="10.954" transform="matrix(0.2324 -0.9726 0.9726 0.2324 2.8816 26.5585)" style="fill:#333333;" width="11.305" height="1"/>
<rect x="10.636" y="8.207" transform="matrix(0.7071 -0.7071 0.7071 0.7071 -1.6776 13.364)" style="fill:#333333;" width="9.314" height="1"/>
<rect x="6.895" y="5.233" transform="matrix(0.9724 -0.2333 0.2333 0.9724 -0.9913 3.0858)" style="fill:#333333;" width="11.304" height="1"/>
<path style="fill:#333333;" d="M20,6.5c-0.176,0-0.35-0.018-0.519-0.054c-0.474-0.1-0.906-0.335-1.249-0.679
	c-0.343-0.343-0.578-0.774-0.679-1.248C17.519,4.35,17.5,4.175,17.5,4c0-1.378,1.121-2.5,2.5-2.5s2.5,1.122,2.5,2.5
	S21.379,6.5,20,6.5z M20,2.5c-0.827,0-1.5,0.673-1.5,1.5c0,0.106,0.011,0.211,0.032,0.312c0.061,0.284,0.201,0.543,0.407,0.749
	c0.206,0.207,0.465,0.347,0.749,0.407C19.789,5.489,19.894,5.5,20,5.5c0.827,0,1.5-0.673,1.5-1.5S20.827,2.5,20,2.5z"/>
</svg>






