<?xml version="1.0" encoding="iso-8859-1"?>
<svg version="1.1" id="&#x56FE;&#x5C42;_1" xmlns="http://www.w3.org/2000/svg" xmlns:xlink="http://www.w3.org/1999/xlink" x="0px"
	 y="0px" viewBox="0 0 24 24" style="enable-background:new 0 0 24 24;" xml:space="preserve">
<path style="fill:#333333;" d="M18.212,21.5H5.789c-0.696,0-1.296-0.473-1.459-1.149L1.81,9.85C1.702,9.4,1.804,8.935,2.09,8.571
	S2.806,8,3.269,8h17.463c0.462,0,0.892,0.208,1.178,0.571C22.195,8.934,22.298,9.4,22.19,9.85L19.67,20.351
	C19.508,21.027,18.908,21.5,18.212,21.5z M2.782,9.617l2.52,10.5C5.356,20.343,5.556,20.5,5.789,20.5h12.423
	c0.231,0,0.432-0.157,0.485-0.383l2.521-10.5c0.036-0.15,0.002-0.305-0.094-0.426S20.886,9,20.731,9H3.269
	C3.114,9,2.971,9.069,2.875,9.19C2.78,9.312,2.746,9.467,2.782,9.617L2.782,9.617z"/>
<path style="fill:#333333;" d="M10,9H5V3h5V9z M6,8h3V4H6V8z"/>
<polygon style="fill:#333333;" points="18.708,8.906 12.863,4.697 9.905,8.793 9.095,8.207 12.637,3.303 19.292,8.094 "/>
<rect x="7.5" y="12" style="fill:#333333;" width="4" height="1"/>
</svg>






