<?xml version="1.0" encoding="iso-8859-1"?>
<svg version="1.1" id="&#x56FE;&#x5C42;_1" xmlns="http://www.w3.org/2000/svg" xmlns:xlink="http://www.w3.org/1999/xlink" x="0px"
	 y="0px" viewBox="0 0 24 24" style="enable-background:new 0 0 24 24;" xml:space="preserve">
<path style="fill:#333333;" d="M20.5,21.5h-17C2.673,21.5,2,20.827,2,20V10c0-0.827,0.673-1.5,1.5-1.5h17c0.827,0,1.5,0.673,1.5,1.5
	v10C22,20.827,21.327,21.5,20.5,21.5z M3.5,9.5C3.224,9.5,3,9.724,3,10v10c0,0.275,0.224,0.5,0.5,0.5h17c0.275,0,0.5-0.225,0.5-0.5
	V10c0-0.276-0.225-0.5-0.5-0.5H3.5z"/>
<rect x="4" y="5.5" style="fill:#333333;" width="16" height="1"/>
<rect x="7.5" y="2.5" style="fill:#333333;" width="9" height="1"/>
<rect x="12.5" y="12" style="fill:#333333;" width="1" height="3"/>
<path style="fill:#333333;" d="M11.56,18.5h-1.12c-1.07,0-1.94-0.841-1.94-1.875v-0.25c0-1.034,0.87-1.875,1.94-1.875h3.06v2.125
	C13.5,17.659,12.63,18.5,11.56,18.5z M10.44,15.5c-0.518,0-0.94,0.393-0.94,0.875v0.25c0,0.482,0.422,0.875,0.94,0.875h1.12
	c0.518,0,0.94-0.393,0.94-0.875V15.5H10.44z"/>
<rect x="13.75" y="10.975" transform="matrix(0.1961 -0.9806 0.9806 0.1961 -0.5568 23.8209)" style="fill:#333333;" width="1" height="2.55"/>
</svg>






