<?xml version="1.0" encoding="iso-8859-1"?>
<svg version="1.1" id="&#x56FE;&#x5C42;_1" xmlns="http://www.w3.org/2000/svg" xmlns:xlink="http://www.w3.org/1999/xlink" x="0px"
	 y="0px" viewBox="0 0 24 24" style="enable-background:new 0 0 24 24;" xml:space="preserve">
<path style="fill:#333333;" d="M12,22.522l-0.144-0.044l-10.468-3.14L5.583,4.132L12,1.458l6.417,2.674l4.195,15.207L12,22.522z
	 M2.612,18.661L12,21.478l9.388-2.816L17.583,4.868L12,2.542L6.417,4.868L2.612,18.661z"/>
<rect x="11.5" y="7" style="fill:#333333;" width="1" height="15"/>
<rect x="11.75" y="5.25" transform="matrix(0.923 -0.3848 0.3848 0.923 -1.0576 6.2152)" style="fill:#333333;" width="6.5" height="1"/>
<rect x="8.5" y="2.5" transform="matrix(0.3846 -0.9231 0.9231 0.3846 0.2308 11.8462)" style="fill:#333333;" width="1" height="6.5"/>
<rect x="2.269" y="17" transform="matrix(0.9536 -0.3009 0.3009 0.9536 -4.9304 2.9931)" style="fill:#333333;" width="9.962" height="0.999"/>
<rect x="16.5" y="12.28" transform="matrix(0.2873 -0.9578 0.9578 0.2873 -4.6469 28.7545)" style="fill:#333333;" width="0.999" height="10.44"/>
</svg>






