<?xml version="1.0" encoding="iso-8859-1"?>
<svg version="1.1" id="&#x56FE;&#x5C42;_1" xmlns="http://www.w3.org/2000/svg" xmlns:xlink="http://www.w3.org/1999/xlink" x="0px"
	 y="0px" viewBox="0 0 24 24" style="enable-background:new 0 0 24 24;" xml:space="preserve">
<polygon style="fill:#333333;" points="12,10.707 9.646,8.354 10.354,7.646 12,9.293 13.646,7.646 14.354,8.354 "/>
<polygon style="fill:#333333;" points="18,17.207 15.646,14.854 16.354,14.146 18,15.793 19.646,14.146 20.354,14.854 "/>
<polygon style="fill:#333333;" points="6,17.207 3.646,14.854 4.354,14.146 6,15.793 7.646,14.146 8.354,14.854 "/>
<rect x="11.5" y="2" style="fill:#333333;" width="1" height="8"/>
<path style="fill:#333333;" d="M18.5,16.434h-1V9.818c0-1.378,1.121-2.5,2.5-2.5h2v1h-2c-0.827,0-1.5,0.673-1.5,1.5V16.434z"/>
<path style="fill:#333333;" d="M6.5,16.434h-1V9.818c0-0.827-0.673-1.5-1.5-1.5H2v-1h2c1.378,0,2.5,1.122,2.5,2.5V16.434z"/>
<path style="fill:#333333;" d="M20,22.5H4c-1.378,0-2.5-1.121-2.5-2.5v-2h1v2c0,0.827,0.673,1.5,1.5,1.5h16
	c0.827,0,1.5-0.673,1.5-1.5v-2h1v2C22.5,21.379,21.379,22.5,20,22.5z"/>
</svg>






