<?xml version="1.0" encoding="iso-8859-1"?>
<svg version="1.1" id="&#x56FE;&#x5C42;_1" xmlns="http://www.w3.org/2000/svg" xmlns:xlink="http://www.w3.org/1999/xlink" x="0px"
	 y="0px" viewBox="0 0 24 24" style="enable-background:new 0 0 24 24;" xml:space="preserve">
<path style="fill:#333333;" d="M16.331,10l-3.867-6.697c-0.134-0.231-0.385-0.254-0.44-0.25c-0.088,0.001-0.308,0.029-0.434,0.263
	L8.94,8.237L8.06,7.763l2.65-4.921c0.262-0.486,0.748-0.781,1.299-0.789c0.555,0.014,1.045,0.273,1.32,0.75L17.196,9.5L16.331,10z"
	/>
<path style="fill:#333333;" d="M20.711,20.5H12.5v-1h8.211c0.265,0,0.393-0.179,0.436-0.256s0.129-0.28-0.01-0.507l-3.062-4.976
	l0.852-0.523l3.062,4.976c0.289,0.471,0.3,1.038,0.031,1.52C21.751,20.213,21.262,20.5,20.711,20.5z"/>
<path style="fill:#333333;" d="M8.5,20.5H3.249c-0.545,0-1.032-0.282-1.302-0.756c-0.271-0.473-0.267-1.035,0.009-1.505l4.113-6.993
	l0.862,0.507l-4.114,6.994c-0.133,0.225-0.046,0.425-0.003,0.501C2.857,19.323,2.987,19.5,3.249,19.5H8.5V20.5z"/>
<polygon style="fill:#333333;" points="14.146,22.354 11.793,20 14.146,17.646 14.854,18.354 13.207,20 14.854,21.646 "/>
<polygon style="fill:#333333;" points="17.086,10.445 13.87,9.583 14.13,8.617 16.379,9.22 16.98,6.971 17.947,7.229 "/>
<polygon style="fill:#333333;" points="6.731,14.361 6.128,12.112 3.879,12.716 3.621,11.75 6.835,10.888 7.697,14.104 "/>
</svg>






