<?xml version="1.0" encoding="iso-8859-1"?>
<svg version="1.1" id="&#x56FE;&#x5C42;_1" xmlns="http://www.w3.org/2000/svg" xmlns:xlink="http://www.w3.org/1999/xlink" x="0px"
	 y="0px" viewBox="0 0 24 24" style="enable-background:new 0 0 24 24;" xml:space="preserve">
<path style="fill:#333333;" d="M12,7.518L4,5.384V1.5h16v3.884L12,7.518z M5,4.616l7,1.867l7-1.867V2.5H5V4.616z"/>
<polygon style="fill:#333333;" points="20,22.5 4,22.5 4,8.5 5,8.5 5,21.5 19,21.5 19,8.5 20,8.5 "/>
<polygon style="fill:#333333;" points="12,13.281 9.116,9.82 9.884,9.18 12,11.719 14.116,9.18 14.884,9.82 "/>
<rect x="9" y="15" style="fill:#333333;" width="6" height="1"/>
<rect x="9" y="12" style="fill:#333333;" width="6" height="1"/>
<rect x="11.5" y="12.5" style="fill:#333333;" width="1" height="6"/>
</svg>






