<?xml version="1.0" encoding="iso-8859-1"?>
<svg version="1.1" id="&#x56FE;&#x5C42;_1" xmlns="http://www.w3.org/2000/svg" xmlns:xlink="http://www.w3.org/1999/xlink" x="0px"
	 y="0px" viewBox="0 0 24 24" style="enable-background:new 0 0 24 24;" xml:space="preserve">
<path style="fill:#333333;" d="M20.5,22.5h-17v-21h17V22.5z M4.5,21.5h15v-19h-15V21.5z"/>
<path style="fill:#333333;" d="M14.342,10.911L13.977,9.98c1.836-0.722,3.62-2.395,5.612-5.266l0.822,0.57
	C18.3,8.326,16.371,10.114,14.342,10.911z M9.686,10.854c-2.092-0.821-4.03-2.591-6.097-5.569l0.749-0.653l5.869,5.389L9.686,10.854
	z"/>
<path style="fill:#333333;" d="M12,14c-1.517,0-2.75-1.233-2.75-2.75S10.483,8.5,12,8.5s2.75,1.233,2.75,2.75S13.517,14,12,14z
	 M12,9.5c-0.965,0-1.75,0.785-1.75,1.75S11.035,13,12,13s1.75-0.785,1.75-1.75S12.965,9.5,12,9.5z"/>
</svg>






