<?xml version="1.0" encoding="iso-8859-1"?>
<svg version="1.1" id="&#x56FE;&#x5C42;_1" xmlns="http://www.w3.org/2000/svg" xmlns:xlink="http://www.w3.org/1999/xlink" x="0px"
	 y="0px" viewBox="0 0 24 24" style="enable-background:new 0 0 24 24;" xml:space="preserve">
<path style="fill:#333333;" d="M12,21.5c-5.238,0-9.5-4.262-9.5-9.5S6.762,2.5,12,2.5c2.538,0,4.924,0.988,6.718,2.783
	c0.83,0.83,2.582,2.802,2.656,2.885l-0.748,0.664c-0.018-0.021-1.806-2.034-2.615-2.842C16.405,4.384,14.271,3.5,12,3.5
	c-4.687,0-8.5,3.813-8.5,8.5c0,4.687,3.813,8.5,8.5,8.5c2.27,0,4.404-0.884,6.011-2.489l0.707,0.707
	C16.923,20.512,14.537,21.5,12,21.5z"/>
<polygon style="fill:#333333;" points="21.5,9 16.5,9 16.5,8 20.5,8 20.5,4 21.5,4 "/>
</svg>






