<?xml version="1.0" encoding="iso-8859-1"?>
<svg version="1.1" id="&#x56FE;&#x5C42;_1" xmlns="http://www.w3.org/2000/svg" xmlns:xlink="http://www.w3.org/1999/xlink" x="0px"
	 y="0px" viewBox="0 0 24 24" style="enable-background:new 0 0 24 24;" xml:space="preserve">
<path style="fill:#333333;" d="M19.5,21.5h-15c-1.103,0-2-0.897-2-2v-15c0-1.103,0.897-2,2-2h15c1.103,0,2,0.897,2,2v15
	C21.5,20.603,20.603,21.5,19.5,21.5z M4.5,3.5c-0.551,0-1,0.449-1,1v15c0,0.552,0.449,1,1,1h15c0.552,0,1-0.448,1-1v-15
	c0-0.551-0.448-1-1-1H4.5z"/>
<path style="fill:#333333;" d="M8.5,15H6.207c-0.445,0-0.669,0.539-0.354,0.854l2.293,2.293C8.461,18.461,9,18.238,9,17.793V15.5
	C9,15.224,8.776,15,8.5,15z"/>
<path style="fill:#333333;" d="M15,15.5v2.293c0,0.445,0.539,0.669,0.854,0.354l2.293-2.293C18.461,15.539,18.238,15,17.793,15H15.5
	C15.224,15,15,15.224,15,15.5z"/>
<path style="fill:#333333;" d="M15.5,9h2.293c0.445,0,0.669-0.539,0.354-0.854l-2.293-2.293C15.539,5.539,15,5.762,15,6.207V8.5
	C15,8.776,15.224,9,15.5,9z"/>
<path style="fill:#333333;" d="M9,8.5V6.207c0-0.445-0.539-0.669-0.854-0.354L5.854,8.146C5.539,8.461,5.762,9,6.207,9H8.5
	C8.776,9,9,8.776,9,8.5z"/>
</svg>






