<?xml version="1.0" encoding="iso-8859-1"?>
<svg version="1.1" id="&#x56FE;&#x5C42;_1" xmlns="http://www.w3.org/2000/svg" xmlns:xlink="http://www.w3.org/1999/xlink" x="0px"
	 y="0px" viewBox="0 0 24 24" style="enable-background:new 0 0 24 24;" xml:space="preserve">
<path style="fill:#333333;" d="M11,12.5c-1.654,0-3-1.346-3-3v-5c0-1.654,1.346-3,3-3s3,1.346,3,3v5C14,11.154,12.654,12.5,11,12.5z
	 M11,2.5c-1.103,0-2,0.897-2,2v5c0,1.103,0.897,2,2,2c1.103,0,2-0.897,2-2v-5C13,3.397,12.103,2.5,11,2.5z"/>
<polygon style="fill:#333333;" points="12.146,22.354 8.793,19 12.146,15.646 12.854,16.354 10.207,19 12.854,21.646 "/>
<rect x="4" y="11.5" style="fill:#333333;" width="0.5" height="1"/>
<rect x="9.5" y="18.5" style="fill:#333333;" width="10.5" height="1"/>
</svg>






