<?xml version="1.0" encoding="iso-8859-1"?>
<svg version="1.1" id="&#x56FE;&#x5C42;_1" xmlns="http://www.w3.org/2000/svg" xmlns:xlink="http://www.w3.org/1999/xlink" x="0px"
	 y="0px" viewBox="0 0 24 24" style="enable-background:new 0 0 24 24;" xml:space="preserve">
<path style="fill:#333333;" d="M17.5,20.5h-12C4.673,20.5,4,19.827,4,19V3c0-0.827,0.673-1.5,1.5-1.5h12C18.327,1.5,19,2.173,19,3
	v16C19,19.827,18.327,20.5,17.5,20.5z M5.5,2.5C5.224,2.5,5,2.724,5,3v16c0,0.275,0.224,0.5,0.5,0.5h12c0.275,0,0.5-0.225,0.5-0.5V3
	c0-0.276-0.225-0.5-0.5-0.5H5.5z"/>
<rect x="4.5" y="10.5" style="fill:#333333;" width="14" height="1"/>
<rect x="4" y="10" style="fill:#333333;" width="1" height="2"/>
<rect x="18" y="10" style="fill:#333333;" width="1" height="2"/>
<rect x="7" y="14.5" style="fill:#333333;" width="1" height="2"/>
<rect x="7" y="5.5" style="fill:#333333;" width="1" height="2"/>
<rect x="16" y="20" style="fill:#333333;" width="1" height="2"/>
<rect x="6" y="20" style="fill:#333333;" width="1" height="2"/>
</svg>






