<?xml version="1.0" encoding="iso-8859-1"?>
<svg version="1.1" id="&#x56FE;&#x5C42;_1" xmlns="http://www.w3.org/2000/svg" xmlns:xlink="http://www.w3.org/1999/xlink" x="0px"
	 y="0px" viewBox="0 0 24 24" style="enable-background:new 0 0 24 24;" xml:space="preserve">
<rect x="20.5" y="4" style="fill:#333333;" width="1" height="8"/>
<rect x="2.5" y="12" style="fill:#333333;" width="1" height="8"/>
<path style="fill:#333333;" d="M12,21.5c-5.238,0-9.5-4.262-9.5-9.5h1c0,4.687,3.813,8.5,8.5,8.5c2.214,0,4.311-0.847,5.902-2.384
	l0.695,0.719C16.817,20.554,14.475,21.5,12,21.5z M21.5,12h-1c0-4.687-3.813-8.5-8.5-8.5c-2.327,0-4.5,0.922-6.116,2.597
	l-0.72-0.694C6.971,3.531,9.399,2.5,12,2.5C17.238,2.5,21.5,6.762,21.5,12z"/>
</svg>






