<?xml version="1.0" encoding="iso-8859-1"?>
<svg version="1.1" id="&#x56FE;&#x5C42;_1" xmlns="http://www.w3.org/2000/svg" xmlns:xlink="http://www.w3.org/1999/xlink" x="0px"
	 y="0px" viewBox="0 0 24 24" style="enable-background:new 0 0 24 24;" xml:space="preserve">
<path style="fill:#333333;" d="M12.035,15.657c-0.4,0-0.777-0.156-1.061-0.439l-2.121-2.122c-0.283-0.282-0.439-0.659-0.439-1.06
	c0-0.401,0.156-0.778,0.439-1.061l2.122-2.122c0.283-0.283,0.66-0.439,1.06-0.439c0.001,0,0.001,0,0.001,0
	c0.4,0,0.777,0.156,1.06,0.44l2.122,2.121c0.283,0.283,0.439,0.66,0.439,1.061c0,0.4-0.156,0.777-0.439,1.06l-2.122,2.122
	C12.813,15.501,12.437,15.657,12.035,15.657C12.036,15.657,12.036,15.657,12.035,15.657z M12.035,9.414
	c-0.133,0-0.258,0.052-0.353,0.146l-2.122,2.122c-0.095,0.094-0.146,0.22-0.146,0.354c0,0.133,0.052,0.258,0.146,0.353l2.122,2.122
	c0.188,0.188,0.516,0.19,0.707,0l2.122-2.122c0.095-0.095,0.146-0.22,0.146-0.353c0-0.134-0.052-0.259-0.146-0.354l-2.122-2.122
	C12.294,9.466,12.169,9.414,12.035,9.414L12.035,9.414z"/>
<path style="fill:#333333;" d="M19.612,8.223C18.164,5.31,15.246,3.5,11.996,3.5c-3.208,0-6.1,1.81-7.548,4.723L3.552,7.777
	C5.17,4.522,8.405,2.5,11.996,2.5c3.632,0,6.894,2.022,8.512,5.277L19.612,8.223z"/>
<rect x="3.5" y="4" style="fill:#333333;" width="1" height="4"/>
<rect x="4" y="7.5" style="fill:#333333;" width="3.39" height="1"/>
<path style="fill:#333333;" d="M12.064,21.5c-3.633,0-6.895-2.022-8.512-5.277l0.896-0.445C5.895,18.69,8.813,20.5,12.064,20.5
	c3.208,0,6.1-1.81,7.547-4.723l0.896,0.445C18.89,19.478,15.654,21.5,12.064,21.5z"/>
<rect x="19.56" y="16" style="fill:#333333;" width="1" height="4"/>
<rect x="16.67" y="15.5" style="fill:#333333;" width="3.39" height="1"/>
</svg>






