<?xml version="1.0" encoding="iso-8859-1"?>
<svg version="1.1" id="&#x56FE;&#x5C42;_1" xmlns="http://www.w3.org/2000/svg" xmlns:xlink="http://www.w3.org/1999/xlink" x="0px"
	 y="0px" viewBox="0 0 24 24" style="enable-background:new 0 0 24 24;" xml:space="preserve">
<path style="fill:#333333;" d="M9.505,21.5H4.5c-1.103,0-2-0.897-2-2v-15c0-1.103,0.897-2,2-2h15c1.103,0,2,0.897,2,2v5.015h-1V4.5
	c0-0.551-0.448-1-1-1h-15c-0.551,0-1,0.449-1,1v15c0,0.552,0.449,1,1,1h5.005V21.5z"/>
<path style="fill:#333333;" d="M20.5,21.5h-5.981v-1H20.5v-5.982h1V20.5C21.5,21.052,21.052,21.5,20.5,21.5z"/>
<rect x="9" y="14.018" style="fill:#333333;" width="12" height="1"/>
<polygon style="fill:#333333;" points="11.146,17.854 7.793,14.5 11.146,11.146 11.854,11.854 9.207,14.5 11.854,17.146 "/>
</svg>






