<?xml version="1.0" encoding="iso-8859-1"?>
<svg version="1.1" id="&#x56FE;&#x5C42;_1" xmlns="http://www.w3.org/2000/svg" xmlns:xlink="http://www.w3.org/1999/xlink" x="0px"
	 y="0px" viewBox="0 0 24 24" style="enable-background:new 0 0 24 24;" xml:space="preserve">
<rect x="2" y="17" style="fill:#333333;" width="20" height="1"/>
<path style="fill:#333333;" d="M12.5,16h-1c0-1.93-1.682-3.5-3.75-3.5S4,14.07,4,16H3c0-2.481,2.131-4.5,4.75-4.5
	S12.5,13.519,12.5,16z"/>
<path style="fill:#333333;" d="M21,16h-1c0-5.238-3.589-9.5-8-9.5S4,10.762,4,16H3c0-5.79,4.038-10.5,9-10.5
	C16.963,5.5,21,10.21,21,16z"/>
<path style="fill:#333333;" d="M20.5,19.5c-1.103,0-2-0.897-2-2s0.897-2,2-2s2,0.897,2,2S21.603,19.5,20.5,19.5z M20.5,16.5
	c-0.552,0-1,0.448-1,1s0.448,1,1,1s1-0.448,1-1S21.052,16.5,20.5,16.5z"/>
<path style="fill:#333333;" d="M12,19.5c-1.103,0-2-0.897-2-2s0.897-2,2-2c1.103,0,2,0.897,2,2S13.103,19.5,12,19.5z M12,16.5
	c-0.551,0-1,0.448-1,1s0.449,1,1,1c0.552,0,1-0.448,1-1S12.552,16.5,12,16.5z"/>
<path style="fill:#333333;" d="M3.5,19.5c-1.103,0-2-0.897-2-2s0.897-2,2-2s2,0.897,2,2S4.603,19.5,3.5,19.5z M3.5,16.5
	c-0.551,0-1,0.448-1,1s0.449,1,1,1s1-0.448,1-1S4.051,16.5,3.5,16.5z"/>
</svg>






