<?xml version="1.0" encoding="iso-8859-1"?>
<svg version="1.1" id="&#x56FE;&#x5C42;_1" xmlns="http://www.w3.org/2000/svg" xmlns:xlink="http://www.w3.org/1999/xlink" x="0px"
	 y="0px" viewBox="0 0 24 24" style="enable-background:new 0 0 24 24;" xml:space="preserve">
<path style="fill:none;" d="M12,2C8.134,2,5,5.134,5,9v10h14V9C19,5.134,15.866,2,12,2z"/>
<path style="fill:#333333;" d="M22,19.5H2v-1h2.5V9c0-4.136,3.364-7.5,7.5-7.5s7.5,3.364,7.5,7.5v9.5H22V19.5z M5.5,18.5h13V9
	c0-3.584-2.916-6.5-6.5-6.5S5.5,5.416,5.5,9V18.5z"/>
<path style="fill:#333333;" d="M12,22.5c-1.654,0-3-1.346-3-3v-1h6v1C15,21.154,13.654,22.5,12,22.5z M10,19.5c0,1.103,0.897,2,2,2
	c1.103,0,2-0.897,2-2H10z"/>
<rect x="11.5" y="7.464" transform="matrix(0.7071 -0.7071 0.7071 0.7071 -4.2635 11.7071)" style="fill:#333333;" width="1" height="7.071"/>
<rect x="8.464" y="10.5" transform="matrix(0.7071 -0.7071 0.7071 0.7071 -4.2635 11.7071)" style="fill:#333333;" width="7.071" height="1"/>
</svg>






