<?xml version="1.0" encoding="iso-8859-1"?>
<svg version="1.1" id="&#x56FE;&#x5C42;_1" xmlns="http://www.w3.org/2000/svg" xmlns:xlink="http://www.w3.org/1999/xlink" x="0px"
	 y="0px" viewBox="0 0 24 24" style="enable-background:new 0 0 24 24;" xml:space="preserve">
<path style="fill:#333333;" d="M12,22.5c-3.86,0-7-3.141-7-7V2.723C5,2.048,5.548,1.5,6.223,1.5h11.555
	C18.451,1.5,19,2.048,19,2.723V15.5C19,19.359,15.859,22.5,12,22.5z M6.223,2.5C6.1,2.5,6,2.6,6,2.723V15.5c0,3.309,2.691,6,6,6
	s6-2.691,6-6V2.723C18,2.6,17.9,2.5,17.777,2.5H6.223z"/>
<rect x="8.5" y="7.5" style="fill:#333333;" width="1.5" height="1"/>
<rect x="14" y="7.5" style="fill:#333333;" width="1.5" height="1"/>
<circle style="fill:#333333;" cx="8.5" cy="5" r="1"/>
<path style="fill:#333333;" d="M12,19.5c-2.206,0-4-1.794-4-4s1.794-4,4-4c2.206,0,4,1.794,4,4S14.206,19.5,12,19.5z M12,12.5
	c-1.654,0-3,1.346-3,3s1.346,3,3,3s3-1.346,3-3S13.654,12.5,12,12.5z"/>
</svg>






