<?xml version="1.0" encoding="iso-8859-1"?>
<svg version="1.1" id="&#x56FE;&#x5C42;_1" xmlns="http://www.w3.org/2000/svg" xmlns:xlink="http://www.w3.org/1999/xlink" x="0px"
	 y="0px" viewBox="0 0 24 24" style="enable-background:new 0 0 24 24;" xml:space="preserve">
<path style="fill:#333333;" d="M17.5,22.5h-11C5.673,22.5,5,21.827,5,21V3c0-0.827,0.673-1.5,1.5-1.5h11C18.327,1.5,19,2.173,19,3
	v18C19,21.827,18.327,22.5,17.5,22.5z M6.5,2.5C6.224,2.5,6,2.724,6,3v18c0,0.275,0.224,0.5,0.5,0.5h11c0.275,0,0.5-0.225,0.5-0.5V3
	c0-0.276-0.225-0.5-0.5-0.5H6.5z"/>
<path style="fill:#333333;" d="M12,19.5c-1.378,0-2.5-1.121-2.5-2.5s1.122-2.5,2.5-2.5c1.379,0,2.5,1.121,2.5,2.5
	S13.379,19.5,12,19.5z M12,15.5c-0.827,0-1.5,0.673-1.5,1.5s0.673,1.5,1.5,1.5s1.5-0.673,1.5-1.5S12.827,15.5,12,15.5z"/>
<path style="fill:#333333;" d="M15.5,9.5h-7v-5h7V9.5z M9.5,8.5h5v-3h-5V8.5z"/>
<rect x="11.5" y="11.5" style="fill:#333333;" width="1" height="1"/>
</svg>






