<?xml version="1.0" encoding="iso-8859-1"?>
<svg version="1.1" id="&#x56FE;&#x5C42;_1" xmlns="http://www.w3.org/2000/svg" xmlns:xlink="http://www.w3.org/1999/xlink" x="0px"
	 y="0px" viewBox="0 0 24 24" style="enable-background:new 0 0 24 24;" xml:space="preserve">
<rect x="8.5" y="6.5" style="fill:#333333;" width="6" height="1"/>
<rect x="11" y="7.5" style="fill:#333333;" width="1" height="6.5"/>
<path style="fill:#333333;" d="M10.071,21.5H4c-0.827,0-1.5-0.673-1.5-1.5V3.5C2.5,2.673,3.173,2,4,2h16c0.827,0,1.5,0.673,1.5,1.5
	v4.858h-1V3.5C20.5,3.224,20.275,3,20,3H4C3.724,3,3.5,3.224,3.5,3.5V20c0,0.275,0.224,0.5,0.5,0.5h6.071V21.5z"/>
<path style="fill:#333333;" d="M15.753,21.5H13v-2.662l5.648-7.8l3.042,2.366L15.753,21.5z M14,20.5h1.247l5.062-6.903l-1.458-1.135
	L14,19.162V20.5z"/>
</svg>






