<?xml version="1.0" encoding="iso-8859-1"?>
<svg version="1.1" id="&#x56FE;&#x5C42;_1" xmlns="http://www.w3.org/2000/svg" xmlns:xlink="http://www.w3.org/1999/xlink" x="0px"
	 y="0px" viewBox="0 0 24 24" style="enable-background:new 0 0 24 24;" xml:space="preserve">
<path style="fill:#333333;" d="M12,21.5c-2.537,0-4.923-0.988-6.717-2.782l0.707-0.707C7.596,19.616,9.73,20.5,12,20.5
	c4.687,0,8.5-3.813,8.5-8.5c0-4.687-3.813-8.5-8.5-8.5c-2.271,0-4.405,0.884-6.01,2.49C5.181,6.799,3.392,8.812,3.374,8.832
	L2.626,8.168C2.7,8.084,4.453,6.112,5.283,5.283C7.077,3.488,9.462,2.5,12,2.5c5.238,0,9.5,4.262,9.5,9.5S17.238,21.5,12,21.5z"/>
<polygon style="fill:#333333;" points="7,9 2.5,9 2.5,4.5 3.5,4.5 3.5,8 7,8 "/>
<path style="fill:#333333;" d="M12,16.5c-0.944,0-2-0.642-2-1.5h1c0,0.117,0.426,0.5,1,0.5c0.995,0,1.5-0.505,1.5-1.5
	c0-1.758-0.721-2-1.5-2c-0.727,0-0.853,0.028-1.226,0.272L10,11.855V8.5h4v1h-3v1.578C11.278,11.01,11.578,11,12,11
	c1.141,0,2.5,0.521,2.5,3C14.5,15.843,13.209,16.5,12,16.5z"/>
</svg>






