<?xml version="1.0" encoding="iso-8859-1"?>
<svg version="1.1" id="&#x56FE;&#x5C42;_1" xmlns="http://www.w3.org/2000/svg" xmlns:xlink="http://www.w3.org/1999/xlink" x="0px"
	 y="0px" viewBox="0 0 24 24" style="enable-background:new 0 0 24 24;" xml:space="preserve">
<path style="fill:#333333;" d="M10.757,15.429L10,15V9l0.757-0.429L16.472,12L10.757,15.429z M11,9.883v4.234L14.528,12L11,9.883z"
	/>
<path style="fill:#333333;" d="M12,21.5c-2.537,0-4.923-0.988-6.717-2.782l0.707-0.707C7.596,19.616,9.73,20.5,12,20.5
	c4.687,0,8.5-3.813,8.5-8.5c0-4.687-3.813-8.5-8.5-8.5c-2.271,0-4.405,0.884-6.01,2.49C5.181,6.799,3.392,8.812,3.374,8.832
	L2.626,8.168C2.7,8.084,4.453,6.112,5.283,5.283C7.077,3.488,9.462,2.5,12,2.5c5.238,0,9.5,4.262,9.5,9.5S17.238,21.5,12,21.5z"/>
<polygon style="fill:#333333;" points="7,9 2.5,9 2.5,4.5 3.5,4.5 3.5,8 7,8 "/>
</svg>






