<?xml version="1.0" encoding="iso-8859-1"?>
<svg version="1.1" id="&#x56FE;&#x5C42;_1" xmlns="http://www.w3.org/2000/svg" xmlns:xlink="http://www.w3.org/1999/xlink" x="0px"
	 y="0px" viewBox="0 0 24 24" style="enable-background:new 0 0 24 24;" xml:space="preserve">
<path style="fill:#333333;" d="M18.5,18h-13v-7.5C5.5,6.916,8.416,4,12,4s6.5,2.916,6.5,6.5V18z M6.5,17h11v-6.5
	C17.5,7.467,15.032,5,12,5c-3.033,0-5.5,2.467-5.5,5.5V17z"/>
<rect x="4" y="20.5" style="fill:#333333;" width="16" height="1"/>
<rect x="2.25" y="5.959" transform="matrix(0.3162 -0.9487 0.9487 0.3162 -4.5232 7.2243)" style="fill:#333333;" width="1" height="1.581"/>
<rect x="6.25" y="1.959" transform="matrix(0.9487 -0.3162 0.3162 0.9487 -0.5232 2.2757)" style="fill:#333333;" width="1" height="1.581"/>
<rect x="3.75" y="3.189" transform="matrix(0.7071 -0.7071 0.7071 0.7071 -1.7604 4.25)" style="fill:#333333;" width="1" height="2.121"/>
</svg>






