<?xml version="1.0" encoding="iso-8859-1"?>
<svg version="1.1" id="&#x56FE;&#x5C42;_1" xmlns="http://www.w3.org/2000/svg" xmlns:xlink="http://www.w3.org/1999/xlink" x="0px"
	 y="0px" viewBox="0 0 24 24" style="enable-background:new 0 0 24 24;" xml:space="preserve">
<path style="fill:#333333;" d="M9.171,19.863c-0.384,0-0.768-0.146-1.061-0.438l-3.536-3.536c-0.585-0.585-0.585-1.536,0-2.121
	l1.475-1.475c0.283-0.283,0.66-0.439,1.061-0.439h1.293c0.131,0,0.26-0.053,0.354-0.146l2.95-2.95
	c0.093-0.093,0.146-0.222,0.146-0.354V7.111c0-0.4,0.156-0.777,0.439-1.061l1.475-1.475c0.584-0.584,1.535-0.583,2.121,0
	l3.536,3.536c0.283,0.283,0.439,0.66,0.439,1.061c0,0.401-0.156,0.778-0.439,1.061l-1.476,1.475
	c-0.283,0.283-0.66,0.439-1.061,0.439h-1.293c-0.132,0-0.261,0.054-0.354,0.146l-2.949,2.949c-0.093,0.093-0.146,0.222-0.146,0.354
	v1.293c0,0.4-0.156,0.777-0.439,1.061l-1.475,1.476C9.939,19.717,9.556,19.863,9.171,19.863z M7.111,12.854
	c-0.131,0-0.26,0.054-0.354,0.146l-1.475,1.475c-0.195,0.195-0.195,0.512,0,0.707l3.536,3.536c0.195,0.195,0.512,0.195,0.707,0
	L11,17.242c0.094-0.095,0.146-0.22,0.146-0.354v-1.293c0-0.396,0.16-0.781,0.439-1.061l2.95-2.949
	c0.279-0.279,0.666-0.439,1.061-0.439h1.293c0.134,0,0.259-0.052,0.354-0.146l1.476-1.475c0.095-0.094,0.146-0.22,0.146-0.354
	c0-0.133-0.052-0.259-0.146-0.354l-3.536-3.536c-0.195-0.194-0.512-0.195-0.707,0L13,6.757c-0.093,0.093-0.146,0.222-0.146,0.354
	v1.293c0,0.4-0.156,0.777-0.439,1.061l-2.95,2.95c-0.283,0.283-0.66,0.439-1.061,0.439H7.111z"/>
<rect x="2.855" y="18.394" transform="matrix(0.7071 -0.7071 0.7071 0.7071 -11.8647 9.1442)" style="fill:#333333;" width="4.501" height="1"/>
<rect x="16.645" y="4.606" transform="matrix(0.7071 -0.7071 0.7071 0.7071 1.9238 14.8559)" style="fill:#333333;" width="4.5" height="1"/>
</svg>






