<?xml version="1.0" encoding="iso-8859-1"?>
<svg version="1.1" id="&#x56FE;&#x5C42;_1" xmlns="http://www.w3.org/2000/svg" xmlns:xlink="http://www.w3.org/1999/xlink" x="0px"
	 y="0px" viewBox="0 0 24 24" style="enable-background:new 0 0 24 24;" xml:space="preserve">
<path style="fill:#333333;" d="M22.809,21.5h-7.713l-1.562-7.292c-0.021-0.104-0.033-0.209-0.033-0.313V7.74L9.972,4.908
	C9.658,4.656,9.463,4.296,9.425,3.896C9.386,3.495,9.508,3.104,9.768,2.797c0.458-0.542,1.241-0.683,1.857-0.334l4.803,2.705
	l2.028,7.605c0.009,0.032,0.021,0.064,0.036,0.095L22.809,21.5z M15.904,20.5h5.287l-3.593-7.186
	c-0.045-0.091-0.082-0.186-0.107-0.283l-1.92-7.199l-4.437-2.499c-0.201-0.113-0.455-0.067-0.603,0.109
	c-0.084,0.1-0.125,0.227-0.112,0.357c0.013,0.13,0.076,0.247,0.178,0.329L14.5,7.26v6.634c0,0.034,0.004,0.069,0.012,0.104
	L15.904,20.5z"/>
<rect x="13.938" y="13" transform="matrix(0.9703 -0.2421 0.2421 0.9703 -2.7921 4.2747)" style="fill:#333333;" width="4.123" height="1"/>
<path style="fill:#333333;" d="M8.48,21.5H1.315l3.054-9.531c0.025-0.078,0.056-0.152,0.093-0.225l2.192-4.282l3.643-0.484
	L12.5,8.635v2.734l-0.85,1.421c-0.226,0.377-0.604,0.636-1.038,0.709c-0.431,0.073-0.875-0.046-1.212-0.328l-0.033-0.027
	c-0.21-0.176-0.364-0.402-0.452-0.652L8.48,14.553V21.5z M2.686,20.5H7.48l0.011-6.104L8.355,10.5h1.747l-0.263,1.401
	c-0.033,0.177,0.032,0.359,0.169,0.475l0.029,0.024c0.119,0.099,0.263,0.136,0.408,0.112c0.147-0.024,0.27-0.108,0.346-0.236
	l0.708-1.184V9.134l-1.477-1.112L7.306,8.384l-1.954,3.814L2.686,20.5z"/>
<rect x="6" y="11.573" transform="matrix(0.4472 -0.8944 0.8944 0.4472 -8.258 13.1382)" style="fill:#333333;" width="1" height="3.354"/>
</svg>






