<?xml version="1.0" encoding="iso-8859-1"?>
<svg version="1.1" id="&#x56FE;&#x5C42;_1" xmlns="http://www.w3.org/2000/svg" xmlns:xlink="http://www.w3.org/1999/xlink" x="0px"
	 y="0px" viewBox="0 0 24 24" style="enable-background:new 0 0 24 24;" xml:space="preserve">
<path style="fill:#333333;" d="M18,7h-1c0-2.481-2.243-4.5-5-4.5S7,4.519,7,7H6c0-3.033,2.691-5.5,6-5.5S18,3.967,18,7z"/>
<path style="fill:#333333;" d="M19.5,15.5H15c-0.827,0-1.5-0.673-1.5-1.5c0-0.275-0.225-0.5-0.5-0.5h-2c-0.276,0-0.5,0.225-0.5,0.5
	c0,0.827-0.673,1.5-1.5,1.5H4.5C3.673,15.5,3,14.827,3,14V8c0-0.827,0.673-1.5,1.5-1.5h15C20.327,6.5,21,7.173,21,8v6
	C21,14.827,20.327,15.5,19.5,15.5z M11,12.5h2c0.827,0,1.5,0.673,1.5,1.5c0,0.275,0.225,0.5,0.5,0.5h4.5c0.275,0,0.5-0.225,0.5-0.5
	V8c0-0.276-0.225-0.5-0.5-0.5h-15C4.224,7.5,4,7.724,4,8v6c0,0.275,0.224,0.5,0.5,0.5H9c0.276,0,0.5-0.225,0.5-0.5
	C9.5,13.173,10.173,12.5,11,12.5z"/>
<polygon style="fill:#333333;" points="19.5,22.5 4.5,22.5 4.5,15 5.5,15 5.5,21.5 18.5,21.5 18.5,15 19.5,15 "/>
<path style="fill:#333333;" d="M14.5,16.5h-5v-4h5V16.5z M10.5,15.5h3v-2h-3V15.5z"/>
</svg>






