<?xml version="1.0" encoding="iso-8859-1"?>
<svg version="1.1" id="&#x56FE;&#x5C42;_1" xmlns="http://www.w3.org/2000/svg" xmlns:xlink="http://www.w3.org/1999/xlink" x="0px"
	 y="0px" viewBox="0 0 24 24" style="enable-background:new 0 0 24 24;" xml:space="preserve">
<path style="fill:#333333;" d="M17.309,6.5H6.691l2-4h6.618L17.309,6.5z M8.309,5.5h7.382l-1-2H9.309L8.309,5.5z"/>
<path style="fill:#333333;" d="M20.5,21.5h-17c-1.103,0-2-0.853-2-1.9V7.4c0-1.048,0.897-1.9,2-1.9h17c1.103,0,2,0.852,2,1.9v12.2
	C22.5,20.647,21.603,21.5,20.5,21.5z M3.5,6.5c-0.551,0-1,0.404-1,0.9v12.2c0,0.496,0.449,0.9,1,0.9h17c0.552,0,1-0.404,1-0.9V7.4
	c0-0.496-0.448-0.9-1-0.9H3.5z"/>
<rect x="15.5" y="9.5" style="fill:#333333;" width="1" height="4"/>
<rect x="7.5" y="13.5" style="fill:#333333;" width="1" height="4"/>
<path style="fill:#333333;" d="M12,18c-2.481,0-4.5-2.019-4.5-4.5h1c0,1.93,1.57,3.5,3.5,3.5c0.454,0,0.896-0.086,1.312-0.255
	l0.375,0.928C13.151,17.89,12.583,18,12,18z"/>
<path style="fill:#333333;" d="M16.5,13.5h-1c0-1.93-1.57-3.5-3.5-3.5c-0.454,0-0.896,0.085-1.312,0.254l-0.375-0.927
	C10.849,9.11,11.417,9,12,9C14.481,9,16.5,11.019,16.5,13.5z"/>
</svg>






