<?xml version="1.0" encoding="iso-8859-1"?>
<svg version="1.1" id="&#x56FE;&#x5C42;_1" xmlns="http://www.w3.org/2000/svg" xmlns:xlink="http://www.w3.org/1999/xlink" x="0px"
	 y="0px" viewBox="0 0 24 24" style="enable-background:new 0 0 24 24;" xml:space="preserve">
<path style="fill:#333333;" d="M12,19.5c-5.131,0-9-3.869-9-9V10h18v0.5C21,15.631,17.131,19.5,12,19.5z M4.014,11
	c0.241,4.31,3.593,7.5,7.986,7.5s7.745-3.19,7.986-7.5H4.014z"/>
<path style="fill:#333333;" d="M15.5,10.5h-1c0-2.481-1.906-4.5-4.25-4.5C7.907,6,6,8.019,6,10.5H5C5,7.467,7.355,5,10.25,5
	C13.145,5,15.5,7.467,15.5,10.5z"/>
<path style="fill:#333333;" d="M20,10.5h-1C19,9.122,17.839,8,16.411,8c-0.591,0-1.146,0.187-1.606,0.54l-0.609-0.794
	C14.833,7.258,15.599,7,16.411,7C18.39,7,20,8.57,20,10.5z"/>
<rect x="14.64" y="4.5" transform="matrix(0.2873 -0.9578 0.9578 0.2873 7.5041 20.0858)" style="fill:#333333;" width="5.22" height="0.999"/>
<rect x="17.984" y="6.75" transform="matrix(0.4957 -0.8685 0.8685 0.4957 3.7891 21.0257)" style="fill:#333333;" width="4.031" height="1.001"/>
<polygon style="fill:#333333;" points="16.693,22 7.306,22 8.526,18.342 9.474,18.658 8.694,21 15.307,21 14.525,18.658 
	15.475,18.342 "/>
</svg>






