<?xml version="1.0" encoding="iso-8859-1"?>
<svg version="1.1" id="&#x56FE;&#x5C42;_1" xmlns="http://www.w3.org/2000/svg" xmlns:xlink="http://www.w3.org/1999/xlink" x="0px"
	 y="0px" viewBox="0 0 24 24" style="enable-background:new 0 0 24 24;" xml:space="preserve">
<path style="fill:#333333;" d="M16.5,7.5c-1.654,0-3-1.346-3-3s1.346-3,3-3s3,1.346,3,3S18.154,7.5,16.5,7.5z M16.5,2.5
	c-1.103,0-2,0.897-2,2s0.897,2,2,2s2-0.897,2-2S17.603,2.5,16.5,2.5z"/>
<path style="fill:#333333;" d="M11.5,19.001l-0.005-4.615c0-0.175-0.092-0.338-0.24-0.429l-3.731-2.286
	c-0.298-0.185-0.475-0.503-0.475-0.852c0-0.349,0.177-0.667,0.473-0.85l3.727-2.291c0.613-0.375,1.41-0.262,1.896,0.268l2.668,2.889
	C15.908,10.938,16.047,11,16.186,11H20v1h-3.814c-0.419,0-0.822-0.177-1.107-0.486l-2.67-2.89c-0.164-0.18-0.433-0.219-0.638-0.092
	l-3.724,2.289l3.729,2.283c0.443,0.271,0.719,0.762,0.719,1.281l0.005,4.614L11.5,19.001z"/>
<path style="fill:#333333;" d="M18.25,22.5c-2.344,0-4.25-1.906-4.25-4.25S15.906,14,18.25,14s4.25,1.906,4.25,4.25
	S20.594,22.5,18.25,22.5z M18.25,15C16.458,15,15,16.458,15,18.25s1.458,3.25,3.25,3.25s3.25-1.458,3.25-3.25S20.042,15,18.25,15z"
	/>
<path style="fill:#333333;" d="M5.75,22.5c-2.343,0-4.25-1.906-4.25-4.25S3.407,14,5.75,14S10,15.906,10,18.25S8.093,22.5,5.75,22.5
	z M5.75,15c-1.792,0-3.25,1.458-3.25,3.25s1.458,3.25,3.25,3.25S9,20.042,9,18.25S7.542,15,5.75,15z"/>
</svg>






