<?xml version="1.0" encoding="iso-8859-1"?>
<svg version="1.1" id="&#x56FE;&#x5C42;_1" xmlns="http://www.w3.org/2000/svg" xmlns:xlink="http://www.w3.org/1999/xlink" x="0px"
	 y="0px" viewBox="0 0 24 24" style="enable-background:new 0 0 24 24;" xml:space="preserve">
<path style="fill:#333333;" d="M13.407,20.356c-0.562-0.555-0.553-1.73-0.218-2.547c0.212-0.518,0.544-0.866,0.939-0.999
	c0.223-0.632,0.764-2.306,0.764-3.658c0-1.562-1.781-3.682-3.665-4.363l-0.44-0.159l0.129-0.45c0.143-0.498,0.246-1.329,0.066-1.595
	c-0.165-0.208-1.196-0.612-2.354-0.938v3.404L2.5,11.67v1.941l3.743-0.353l0.094,0.996L1.5,14.709V11.01l6.129-2.618V4.363
	l0.619,0.151c0.917,0.225,3.098,0.822,3.564,1.512c0.374,0.552,0.281,1.442,0.171,1.993c2.126,0.962,3.909,3.262,3.909,5.134
	c0,1.885-0.889,4.183-0.927,4.279l-0.124,0.318H14.5c-0.125,0-0.276,0.172-0.385,0.438c-0.244,0.594-0.172,1.292-0.007,1.455
	L13.407,20.356z"/>
<path style="fill:#333333;" d="M9,15.5c-1.519,0-2.5-0.981-2.5-2.5h1c0,1.305,0.94,1.5,1.5,1.5s1.5-0.195,1.5-1.5h1
	C11.5,14.519,10.519,15.5,9,15.5z"/>
<path style="fill:#333333;" d="M6.79,20.407L6.21,19.593c1.962-1.395,2.047-1.705,2.216-2.324c0.163-0.596,0.022-1.734-0.088-1.949
	c0.03,0.06,0.156,0.181,0.352,0.181v-1l0.459,0.237c0.325,0.427,0.461,1.994,0.242,2.795C9.122,18.52,8.747,19.017,6.79,20.407z"/>
<path style="fill:#333333;" d="M18.5,8.5C17.673,8.5,17,7.827,17,7s0.673-1.5,1.5-1.5S20,6.173,20,7S19.327,8.5,18.5,8.5z M18.5,6.5
	C18.225,6.5,18,6.724,18,7s0.225,0.5,0.5,0.5S19,7.276,19,7S18.775,6.5,18.5,6.5z"/>
<path style="fill:#333333;" d="M18.146,20.104l-1.5-1.5L17,17.75h3.66c0.587-1.681,0.304-4.231-0.104-5.021
	c-0.284-0.551-0.65-1.131-0.9-1.512l-0.69,0.461c-0.303,0.063-0.312,0.1-0.35,0.556c-0.037,0.453-0.093,1.137-0.832,1.645
	c-0.853,0.583-2.831,1.66-4.301,1.621l0.035-1c0.968,0.055,2.639-0.72,3.7-1.446c0.331-0.227,0.366-0.478,0.4-0.9
	c0.036-0.444,0.096-1.176,1.025-1.426l0.829-0.626l0.711,0.112c0.03,0.043,0.751,1.072,1.261,2.058
	c0.584,1.129,0.853,4.293,0.013,6.183L21,18.75h-2.793l0.646,0.646L18.146,20.104z"/>
</svg>






