<?xml version="1.0" encoding="iso-8859-1"?>
<svg version="1.1" id="&#x56FE;&#x5C42;_1" xmlns="http://www.w3.org/2000/svg" xmlns:xlink="http://www.w3.org/1999/xlink" x="0px"
	 y="0px" viewBox="0 0 24 24" style="enable-background:new 0 0 24 24;" xml:space="preserve">
<rect x="2" y="11.5" style="fill:#333333;" width="5" height="1"/>
<path style="fill:#333333;" d="M7.034,12.499l-0.067-0.998c1.489-0.1,4.661-1.166,7.3-3.688c2.918-2.79,5.872-4.055,7.663-4.308
	l0.141,0.99c-1.638,0.231-4.366,1.414-7.112,4.04C12.306,11.07,8.991,12.367,7.034,12.499z"/>
<path style="fill:#333333;" d="M21.966,20.499c-1.958-0.133-5.272-1.43-7.924-3.964c-2.748-2.627-5.475-3.81-7.112-4.04l0.14-0.99
	c1.791,0.252,4.744,1.517,7.664,4.308c2.639,2.522,5.812,3.588,7.301,3.688L21.966,20.499z"/>
</svg>






