<?xml version="1.0" encoding="iso-8859-1"?>
<svg version="1.1" id="&#x56FE;&#x5C42;_1" xmlns="http://www.w3.org/2000/svg" xmlns:xlink="http://www.w3.org/1999/xlink" x="0px"
	 y="0px" viewBox="0 0 24 24" style="enable-background:new 0 0 24 24;" xml:space="preserve">
<path style="fill:#333333;" d="M4.264,12.425l-0.527-0.85c0.875-0.543,2.771-2.8,3.274-5.178c0.406-1.918,1.736-2.891,3.953-2.891
	c0.001,0,0.003,0,0.005,0l0.031,1h-0.032c-0.002,0-0.004,0-0.006,0c-1.179,0-2.58,0.24-2.973,2.098
	C7.42,9.294,5.294,11.786,4.264,12.425z"/>
<path style="fill:#333333;" d="M10.969,20.5c-2.22,0-3.552-0.975-3.958-2.896c-0.503-2.379-2.399-4.636-3.274-5.179l0.527-0.85
	c1.03,0.639,3.156,3.131,3.726,5.821C8.383,19.26,9.788,19.5,10.968,19.5c0.001,0,0.003,0,0.004,0L11,20l-0.027,0.5
	C10.972,20.5,10.971,20.5,10.969,20.5z M11,20.5V20V20.5z"/>
<circle style="fill:#333333;" cx="4" cy="12" r="2"/>
<rect x="4" y="11.5" style="fill:#333333;" width="7" height="1"/>
<rect x="15" y="11.5" style="fill:#333333;" width="6" height="1"/>
<rect x="15" y="3.5" style="fill:#333333;" width="6" height="1"/>
<rect x="15" y="19.501" style="fill:#333333;" width="6" height="1"/>
</svg>






