<?xml version="1.0" encoding="iso-8859-1"?>
<svg version="1.1" id="&#x56FE;&#x5C42;_1" xmlns="http://www.w3.org/2000/svg" xmlns:xlink="http://www.w3.org/1999/xlink" x="0px"
	 y="0px" viewBox="0 0 24 24" style="enable-background:new 0 0 24 24;" xml:space="preserve">
<path style="fill:#333333;" d="M12,10.5c-2.481,0-4.5-2.019-4.5-4.5S9.519,1.5,12,1.5s4.5,2.019,4.5,4.5S14.481,10.5,12,10.5z
	 M12,2.5c-1.93,0-3.5,1.57-3.5,3.5s1.57,3.5,3.5,3.5s3.5-1.57,3.5-3.5S13.93,2.5,12,2.5z"/>
<path style="fill:#333333;" d="M21.5,22h-1c0-4.687-3.813-8.5-8.5-8.5c-4.687,0-8.5,3.813-8.5,8.5h-1c0-5.238,4.262-9.5,9.5-9.5
	S21.5,16.762,21.5,22z"/>
<polygon style="fill:#333333;" points="11,22.707 8.646,20.354 9.354,19.646 11,21.293 14.646,17.646 15.354,18.354 "/>
</svg>






