<?xml version="1.0" encoding="iso-8859-1"?>
<svg version="1.1" id="&#x56FE;&#x5C42;_1" xmlns="http://www.w3.org/2000/svg" xmlns:xlink="http://www.w3.org/1999/xlink" x="0px"
	 y="0px" viewBox="0 0 24 24" style="enable-background:new 0 0 24 24;" xml:space="preserve">
<path style="fill:#333333;" d="M19.716,22H5c-0.827,0-1.5-0.673-1.5-1.5V4.558c0-0.622,0.375-1.17,0.954-1.397
	C5.032,2.934,5.68,3.083,6.102,3.54l14.716,15.942c0.41,0.444,0.515,1.065,0.271,1.619C20.848,21.656,20.32,22,19.716,22z
	 M5.01,4.056c-0.087,0-0.158,0.023-0.192,0.036C4.743,4.121,4.5,4.241,4.5,4.558V20.5C4.5,20.775,4.724,21,5,21h14.716
	c0.304,0,0.428-0.229,0.458-0.3c0.031-0.07,0.115-0.316-0.09-0.54L5.368,4.219C5.249,4.09,5.117,4.056,5.01,4.056z"/>
</svg>






