<?xml version="1.0" encoding="iso-8859-1"?>
<svg version="1.1" id="&#x56FE;&#x5C42;_1" xmlns="http://www.w3.org/2000/svg" xmlns:xlink="http://www.w3.org/1999/xlink" x="0px"
	 y="0px" viewBox="0 0 24 24" style="enable-background:new 0 0 24 24;" xml:space="preserve">
<path style="fill:#333333;" d="M12,6.31c-1.32,0-2.395-1.079-2.395-2.405S10.68,1.5,12,1.5s2.395,1.079,2.395,2.405
	S13.32,6.31,12,6.31z M12,2.5c-0.769,0-1.395,0.63-1.395,1.405S11.231,5.31,12,5.31c0.769,0,1.395-0.63,1.395-1.405
	S12.769,2.5,12,2.5z"/>
<path style="fill:#333333;" d="M4.895,20.596c-1.32,0-2.395-1.079-2.395-2.405s1.074-2.404,2.395-2.404
	c1.321,0,2.395,1.078,2.395,2.404S6.215,20.596,4.895,20.596z M4.895,16.786c-0.769,0-1.395,0.63-1.395,1.404
	s0.625,1.405,1.395,1.405S6.29,18.965,6.29,18.19S5.664,16.786,4.895,16.786z"/>
<path style="fill:#333333;" d="M19.105,20.596c-1.32,0-2.395-1.079-2.395-2.405s1.074-2.404,2.395-2.404S21.5,16.864,21.5,18.19
	S20.426,20.596,19.105,20.596z M19.105,16.786c-0.769,0-1.395,0.63-1.395,1.404s0.626,1.405,1.395,1.405S20.5,18.965,20.5,18.19
	S19.874,16.786,19.105,16.786z"/>
<path style="fill:#333333;" d="M21.458,13.854l-0.996-0.094c0.025-0.266,0.038-0.535,0.038-0.809c0-3.01-1.604-5.832-4.184-7.365
	l0.51-0.859c2.883,1.712,4.674,4.864,4.674,8.225C21.5,13.257,21.485,13.558,21.458,13.854z"/>
<path style="fill:#333333;" d="M12,22.5c-1.284,0-2.53-0.253-3.703-0.753l0.392-0.92c2.098,0.893,4.526,0.893,6.622,0l0.393,0.92
	C14.53,22.247,13.284,22.5,12,22.5z"/>
<path style="fill:#333333;" d="M2.542,13.854C2.514,13.558,2.5,13.257,2.5,12.952c0-3.361,1.791-6.513,4.673-8.225l0.511,0.859
	C5.103,7.12,3.5,9.942,3.5,12.952c0,0.273,0.012,0.543,0.038,0.809L2.542,13.854z"/>
</svg>






