<?xml version="1.0" encoding="iso-8859-1"?>
<svg version="1.1" id="&#x56FE;&#x5C42;_1" xmlns="http://www.w3.org/2000/svg" xmlns:xlink="http://www.w3.org/1999/xlink" x="0px"
	 y="0px" viewBox="0 0 24 24" style="enable-background:new 0 0 24 24;" xml:space="preserve">
<path style="fill:#333333;" d="M6.5,22C4.019,22,2,19.981,2,17.5S4.019,13,6.5,13s4.5,2.019,4.5,4.5S8.981,22,6.5,22z M6.5,14
	C4.57,14,3,15.57,3,17.5S4.57,21,6.5,21s3.5-1.57,3.5-3.5S8.43,14,6.5,14z"/>
<path style="fill:#333333;" d="M17.5,22c-2.481,0-4.5-2.019-4.5-4.5s2.019-4.5,4.5-4.5s4.5,2.019,4.5,4.5S19.981,22,17.5,22z
	 M17.5,14c-1.93,0-3.5,1.57-3.5,3.5s1.57,3.5,3.5,3.5s3.5-1.57,3.5-3.5S19.43,14,17.5,14z"/>
<rect x="3" y="2" style="fill:#333333;" width="18" height="1"/>
<rect x="6" y="2.5" style="fill:#333333;" width="1" height="11"/>
<rect x="17" y="2.5" style="fill:#333333;" width="1" height="11"/>
<rect x="4.5" y="9" style="fill:#333333;" width="4" height="1"/>
<rect x="15.5" y="9" style="fill:#333333;" width="4" height="1"/>
</svg>






