<?xml version="1.0" encoding="iso-8859-1"?>
<svg version="1.1" id="&#x56FE;&#x5C42;_1" xmlns="http://www.w3.org/2000/svg" xmlns:xlink="http://www.w3.org/1999/xlink" x="0px"
	 y="0px" viewBox="0 0 24 24" style="enable-background:new 0 0 24 24;" xml:space="preserve">
<path style="fill:#333333;" d="M12,6.136c-1.278,0-2.318-1.04-2.318-2.318S10.722,1.5,12,1.5s2.318,1.04,2.318,2.318
	S13.278,6.136,12,6.136z M12,2.5c-0.727,0-1.318,0.591-1.318,1.318c0,0.727,0.591,1.318,1.318,1.318
	c0.727,0,1.318-0.591,1.318-1.318C13.318,3.091,12.727,2.5,12,2.5z"/>
<path style="fill:#333333;" d="M12,22.5c-1.278,0-2.318-1.04-2.318-2.318s1.04-2.318,2.318-2.318s2.318,1.04,2.318,2.318
	S13.278,22.5,12,22.5z M12,18.863c-0.727,0-1.318,0.592-1.318,1.318S11.273,21.5,12,21.5c0.727,0,1.318-0.592,1.318-1.318
	S12.727,18.863,12,18.863z"/>
<path style="fill:#333333;" d="M3.818,14.318C2.54,14.318,1.5,13.278,1.5,12s1.04-2.318,2.318-2.318S6.136,10.722,6.136,12
	S5.097,14.318,3.818,14.318z M3.818,10.682C3.091,10.682,2.5,11.273,2.5,12c0,0.727,0.591,1.318,1.318,1.318
	c0.727,0,1.318-0.592,1.318-1.318C5.136,11.273,4.545,10.682,3.818,10.682z"/>
<path style="fill:#333333;" d="M20.182,14.318c-1.278,0-2.318-1.04-2.318-2.318s1.04-2.318,2.318-2.318S22.5,10.722,22.5,12
	S21.46,14.318,20.182,14.318z M20.182,10.682c-0.727,0-1.318,0.591-1.318,1.318c0,0.727,0.592,1.318,1.318,1.318
	S21.5,12.727,21.5,12C21.5,11.273,20.908,10.682,20.182,10.682z"/>
<path style="fill:#333333;" d="M18.497,7.9c-0.607-0.961-1.437-1.79-2.396-2.397l0.533-0.846c1.086,0.686,2.022,1.623,2.709,2.708
	L18.497,7.9z"/>
<path style="fill:#333333;" d="M16.634,19.343l-0.533-0.846c0.96-0.606,1.788-1.436,2.396-2.397l0.846,0.535
	C18.655,17.721,17.719,18.657,16.634,19.343z"/>
<path style="fill:#333333;" d="M7.366,19.343c-1.085-0.687-2.022-1.623-2.708-2.708L5.502,16.1c0.608,0.961,1.437,1.79,2.398,2.397
	L7.366,19.343z"/>
<path style="fill:#333333;" d="M5.503,7.9L4.657,7.366C5.343,6.28,6.28,5.344,7.366,4.657L7.9,5.503
	C6.939,6.11,6.11,6.939,5.503,7.9z"/>
</svg>






