<?xml version="1.0" encoding="iso-8859-1"?>
<svg version="1.1" id="&#x56FE;&#x5C42;_1" xmlns="http://www.w3.org/2000/svg" xmlns:xlink="http://www.w3.org/1999/xlink" x="0px"
	 y="0px" viewBox="0 0 24 24" style="enable-background:new 0 0 24 24;" xml:space="preserve">
<path style="fill:#333333;" d="M17,20c-1.937,0-3.603-0.787-5.213-1.548C10.206,17.705,8.712,17,7,17
	c-2.327,0-4.719,1.415-4.743,1.429l-0.514-0.857C1.85,17.507,4.392,16,7,16c1.937,0,3.603,0.787,5.214,1.548
	C13.795,18.295,15.288,19,17,19c2.327,0,4.719-1.415,4.743-1.429l0.514,0.857C22.15,18.493,19.608,20,17,20z"/>
<path style="fill:#333333;" d="M17,14c-1.937,0-3.603-0.787-5.213-1.548C10.206,11.706,8.712,11,7,11
	c-2.327,0-4.719,1.415-4.743,1.429l-0.514-0.857C1.85,11.507,4.392,10,7,10c1.937,0,3.603,0.787,5.214,1.548
	C13.795,12.295,15.288,13,17,13c2.327,0,4.719-1.415,4.743-1.429l0.514,0.857C22.15,12.493,19.608,14,17,14z"/>
<path style="fill:#333333;" d="M17,8c-1.937,0-3.603-0.787-5.213-1.548C10.206,5.706,8.712,5,7,5C4.673,5,2.281,6.415,2.257,6.429
	L1.743,5.571C1.85,5.507,4.392,4,7,4c1.937,0,3.603,0.787,5.214,1.548C13.795,6.295,15.288,7,17,7c2.327,0,4.719-1.415,4.743-1.429
	l0.514,0.857C22.15,6.493,19.608,8,17,8z"/>
</svg>






