<?xml version="1.0" encoding="iso-8859-1"?>
<svg version="1.1" id="&#x56FE;&#x5C42;_1" xmlns="http://www.w3.org/2000/svg" xmlns:xlink="http://www.w3.org/1999/xlink" x="0px"
	 y="0px" viewBox="0 0 24 24" style="enable-background:new 0 0 24 24;" xml:space="preserve">
<path style="fill:none;" d="M13.5,3h-3L9.875,5.25L9.25,7.5L8,12l-1.25,4.5l-0.625,2.25L5.5,21h13l-0.75-2.7L16,12l-1.25-4.5
	l-0.625-2.25L13.5,3z"/>
<path style="fill:#333333;" d="M21,21.5H3v-1h2.12l5-18h3.76l5,18H21V21.5z M6.158,20.5h11.684l-4.722-17h-2.24L6.158,20.5z"/>
<rect x="6.75" y="16" style="fill:#333333;" width="10.5" height="1"/>
<rect x="8" y="11.5" style="fill:#333333;" width="8" height="1"/>
<rect x="9.25" y="7" style="fill:#333333;" width="5.5" height="1"/>
<rect x="15.438" y="5.003" transform="matrix(0.9635 -0.2676 0.2676 0.9635 -2.5701 4.6952)" style="fill:#333333;" width="0.999" height="13.544"/>
<rect x="0.994" y="11.5" transform="matrix(0.2675 -0.9636 0.9636 0.2675 -5.7027 16.4986)" style="fill:#333333;" width="14.011" height="1"/>
</svg>






