<?xml version="1.0" encoding="iso-8859-1"?>
<svg version="1.1" id="&#x56FE;&#x5C42;_1" xmlns="http://www.w3.org/2000/svg" xmlns:xlink="http://www.w3.org/1999/xlink" x="0px"
	 y="0px" viewBox="0 0 24 24" style="enable-background:new 0 0 24 24;" xml:space="preserve">
<path style="fill:#333333;" d="M22,21.5H2v-4C2,16.673,2.673,16,3.5,16h17c0.827,0,1.5,0.673,1.5,1.5V21.5z M3,20.5h18v-3
	c0-0.275-0.225-0.5-0.5-0.5h-17C3.224,17,3,17.225,3,17.5V20.5z"/>
<polygon style="fill:#333333;" points="21,9.5 16.793,9.5 13.293,6 16.793,2.5 21,2.5 21,3.5 17.207,3.5 14.707,6 17.207,8.5 
	21,8.5 "/>
<path style="fill:#333333;" d="M4,8.5C2.622,8.5,1.5,7.378,1.5,6S2.622,3.5,4,3.5S6.5,4.622,6.5,6S5.378,8.5,4,8.5z M4,4.5
	C3.173,4.5,2.5,5.173,2.5,6S3.173,7.5,4,7.5S5.5,6.827,5.5,6S4.827,4.5,4,4.5z"/>
<rect x="6" y="5.5" style="fill:#333333;" width="8" height="1"/>
<rect x="6.5" y="7.553" transform="matrix(0.9048 -0.4258 0.4258 0.9048 -4.5497 4.1466)" style="fill:#333333;" width="1" height="9.394"/>
</svg>






