<?xml version="1.0" encoding="iso-8859-1"?>
<svg version="1.1" id="&#x56FE;&#x5C42;_1" xmlns="http://www.w3.org/2000/svg" xmlns:xlink="http://www.w3.org/1999/xlink" x="0px"
	 y="0px" viewBox="0 0 24 24" style="enable-background:new 0 0 24 24;" xml:space="preserve">
<path style="fill:#333333;" d="M18.5,22h-13C4.673,22,4,21.327,4,20.5v-11C4,8.673,4.673,8,5.5,8h13C19.327,8,20,8.673,20,9.5v11
	C20,21.327,19.327,22,18.5,22z M5.5,9C5.224,9,5,9.224,5,9.5v11C5,20.775,5.224,21,5.5,21h13c0.275,0,0.5-0.225,0.5-0.5v-11
	C19,9.224,18.775,9,18.5,9H5.5z"/>
<rect x="12.892" y="6" transform="matrix(0.5304 -0.8478 0.8478 0.5304 1.6516 15.9814)" style="fill:#333333;" width="4.717" height="1"/>
<rect x="8.25" y="4.142" transform="matrix(0.848 -0.53 0.53 0.848 -2.115 5.6255)" style="fill:#333333;" width="1" height="4.717"/>
<path style="fill:#333333;" d="M17,5c-0.827,0-1.5-0.673-1.5-1.5S16.173,2,17,2s1.5,0.673,1.5,1.5S17.827,5,17,5z M17,3
	c-0.275,0-0.5,0.224-0.5,0.5S16.725,4,17,4s0.5-0.224,0.5-0.5S17.275,3,17,3z"/>
<path style="fill:#333333;" d="M7,5C6.173,5,5.5,4.327,5.5,3.5S6.173,2,7,2s1.5,0.673,1.5,1.5S7.827,5,7,5z M7,3
	C6.724,3,6.5,3.224,6.5,3.5S6.724,4,7,4s0.5-0.224,0.5-0.5S7.276,3,7,3z"/>
<path style="fill:#333333;" d="M14,16.5h-4c-1.378,0-2.5-1.121-2.5-2.5s1.122-2.5,2.5-2.5h4c1.379,0,2.5,1.121,2.5,2.5
	S15.379,16.5,14,16.5z M10,12.5c-0.827,0-1.5,0.673-1.5,1.5s0.673,1.5,1.5,1.5h4c0.827,0,1.5-0.673,1.5-1.5s-0.673-1.5-1.5-1.5H10z"
	/>
<polygon style="fill:#333333;" points="4.5,17.5 1.5,17.5 1.5,11.5 4.5,11.5 4.5,12.5 2.5,12.5 2.5,16.5 4.5,16.5 "/>
<polygon style="fill:#333333;" points="22.5,17.5 19.5,17.5 19.5,16.5 21.5,16.5 21.5,12.5 19.5,12.5 19.5,11.5 22.5,11.5 "/>
</svg>






