<?xml version="1.0" encoding="iso-8859-1"?>
<svg version="1.1" id="&#x56FE;&#x5C42;_1" xmlns="http://www.w3.org/2000/svg" xmlns:xlink="http://www.w3.org/1999/xlink" x="0px"
	 y="0px" viewBox="0 0 24 24" style="enable-background:new 0 0 24 24;" xml:space="preserve">
<path style="fill:#333333;" d="M18.5,21.5h-13C4.673,21.5,4,20.827,4,20V10c0-0.827,0.673-1.5,1.5-1.5h13c0.827,0,1.5,0.673,1.5,1.5
	v10C20,20.827,19.327,21.5,18.5,21.5z M5.5,9.5C5.224,9.5,5,9.724,5,10v10c0,0.275,0.224,0.5,0.5,0.5h13c0.275,0,0.5-0.225,0.5-0.5
	V10c0-0.276-0.225-0.5-0.5-0.5H5.5z"/>
<circle style="fill:#333333;" cx="8.5" cy="13" r="1"/>
<circle style="fill:#333333;" cx="15.5" cy="13" r="1"/>
<path style="fill:#333333;" d="M10,16c-0.552,0-1,0.448-1,1s0.448,1,1,1V16z M14,18c0.552,0,1-0.448,1-1s-0.448-1-1-1V18z M10,18h4
	v-2h-4V18z"/>
<rect x="11.5" y="5" style="fill:#333333;" width="1" height="4"/>
<rect x="1.5" y="13" style="fill:#333333;" width="1" height="4"/>
<rect x="21.5" y="13" style="fill:#333333;" width="1" height="4"/>
<path style="fill:#333333;" d="M12,5.5c-0.827,0-1.5-0.673-1.5-1.5s0.673-1.5,1.5-1.5s1.5,0.673,1.5,1.5S12.827,5.5,12,5.5z M12,3.5
	c-0.276,0-0.5,0.224-0.5,0.5s0.224,0.5,0.5,0.5c0.275,0,0.5-0.224,0.5-0.5S12.275,3.5,12,3.5z"/>
</svg>






