<?xml version="1.0" encoding="iso-8859-1"?>
<svg version="1.1" id="&#x56FE;&#x5C42;_1" xmlns="http://www.w3.org/2000/svg" xmlns:xlink="http://www.w3.org/1999/xlink" x="0px"
	 y="0px" viewBox="0 0 24 24" style="enable-background:new 0 0 24 24;" xml:space="preserve">
<path style="fill:#333333;" d="M12.226,22.812c-2.286,0-4.413-1.589-5.022-2.197c-0.212-0.212-0.417-0.453-0.605-0.716
	c-0.35-0.488-0.311-1.14,0.095-1.586c0.128-0.142,0.272-0.286,0.429-0.424c-0.277,0.02-0.561-0.044-0.799-0.192
	c-0.343-0.214-0.558-0.572-0.589-0.981c-0.077-1.002,0.009-2.929,1.447-4.571c2.104-2.405,3.858-2.411,4.512-2.395l0.057,1h-0.062
	c-0.575-0.003-1.951-0.009-3.755,2.053c-1.197,1.367-1.268,2.991-1.203,3.837c0.007,0.093,0.048,0.163,0.121,0.208
	c0.086,0.055,0.204,0.06,0.311,0.018c0.423-0.169,0.763-0.335,0.983-0.481c0.402-0.269,0.43-0.474,0.491-0.923
	c0.033-0.243,0.07-0.519,0.177-0.839c0.387-1.158,1.816-1.82,3.192-1.48c1.171,0.293,1.897,1.132,2.104,2.427
	c0.186,1.166-0.531,2.336-1.742,2.847c-1.014,0.425-1.683,0.229-2.457,0.001c-0.289-0.085-0.614-0.182-1.009-0.261
	c-0.384-0.075-0.918,0.226-1.467,0.83c-0.088,0.098-0.097,0.227-0.023,0.33c0.157,0.219,0.325,0.418,0.5,0.593
	c0.465,0.465,2.642,2.142,4.776,1.876c2.019-0.252,3.945-1.755,4.795-3.739c0.755-1.761,0.558-4.266-1.281-5.645l0.6-0.8
	c2.252,1.688,2.51,4.718,1.602,6.839c-0.985,2.3-3.232,4.043-5.591,4.337C12.615,22.801,12.42,22.812,12.226,22.812z M8.804,17.143
	c0.097,0.002,0.195,0.013,0.293,0.032c0.429,0.086,0.782,0.189,1.095,0.282c0.733,0.217,1.103,0.324,1.786,0.036
	c0.917-0.386,1.235-1.188,1.142-1.769c-0.142-0.893-0.585-1.42-1.357-1.612c-0.94-0.236-1.808,0.247-2.001,0.826
	c-0.077,0.23-0.106,0.447-0.134,0.656C9.561,16.088,9.485,16.643,8.804,17.143z"/>
<path style="fill:#333333;" d="M13.05,15.217c-0.726-1.51-3.248-10.28-3.516-11.462c-0.205-0.903,0.222-1.734,1.17-2.278
	c0.22-0.126,0.476-0.155,0.718-0.081c0.254,0.077,0.469,0.259,0.59,0.502l4.936,9.879l-0.895,0.447l-4.936-9.88
	c-0.48,0.324-0.713,0.724-0.607,1.189c0.26,1.147,2.761,9.835,3.441,11.25L13.05,15.217z"/>
<path style="fill:#333333;" d="M17.501,13.524L17.027,3.87c-0.585,0.077-0.975,0.335-1.085,0.803
	c-0.267,1.145-0.436,2.804-0.442,4.329l-1-0.004c0.007-1.595,0.187-3.339,0.469-4.553c0.213-0.909,0.967-1.469,2.069-1.539
	c0.24-0.02,0.48,0.066,0.664,0.23c0.192,0.171,0.311,0.42,0.323,0.684l0.474,9.656L17.501,13.524z"/>
</svg>






