<?xml version="1.0" encoding="iso-8859-1"?>
<svg version="1.1" id="&#x56FE;&#x5C42;_1" xmlns="http://www.w3.org/2000/svg" xmlns:xlink="http://www.w3.org/1999/xlink" x="0px"
	 y="0px" viewBox="0 0 24 24" style="enable-background:new 0 0 24 24;" xml:space="preserve">
<path style="fill:#333333;" d="M13,22.5H6.5c-0.07,0-1.72-0.013-2.854-1.146S2.5,18.81,2.5,18.75V6.391C2.5,5.66,3.043,4.5,4.5,4.5
	c1.467,0,2,1.131,2,1.891V12.5h-1V6.391c0-0.091-0.028-0.891-1-0.891c-0.989,0-1,0.854-1,0.891V18.75
	c0,0.008,0.021,1.064,0.854,1.896C5.189,21.481,6.489,21.5,6.501,21.5H13c0.774,0,2.713-2.593,4.064-4.995l0.082-0.108l3.25-3.25
	c0.562-0.562,0.562-0.98,0-1.543c-0.563-0.563-1.209-0.084-1.543,0.25l-3.5,3.5L14.5,15V3.75c0-0.467-0.13-1.25-1-1.25
	s-1,0.783-1,1.25v8.75h-1V3.75c0-1.038,0.523-2.25,2-2.25s2,1.212,2,2.25v10.043l2.646-2.646c0.975-0.975,2.136-1.073,2.957-0.25
	c0.953,0.954,0.953,2.004,0,2.957l-3.201,3.202C17.135,18.412,14.681,22.5,13,22.5z"/>
<path style="fill:#333333;" d="M7.5,16c-1.103,0-2-0.897-2-2v-3c0-1.103,0.897-2,2-2s2,0.897,2,2v3C9.5,15.103,8.603,16,7.5,16z
	 M7.5,10c-0.551,0-1,0.449-1,1v3c0,0.552,0.449,1,1,1s1-0.448,1-1v-3C8.5,10.449,8.051,10,7.5,10z"/>
<path style="fill:#333333;" d="M10.5,16c-1.103,0-2-0.897-2-2v-3c0-1.103,0.897-2,2-2s2,0.897,2,2v3C12.5,15.103,11.603,16,10.5,16z
	 M10.5,10c-0.551,0-1,0.449-1,1v3c0,0.552,0.449,1,1,1s1-0.448,1-1v-3C11.5,10.449,11.051,10,10.5,10z"/>
</svg>






