<?xml version="1.0" encoding="iso-8859-1"?>
<svg version="1.1" id="&#x56FE;&#x5C42;_1" xmlns="http://www.w3.org/2000/svg" xmlns:xlink="http://www.w3.org/1999/xlink" x="0px"
	 y="0px" viewBox="0 0 24 24" style="enable-background:new 0 0 24 24;" xml:space="preserve">
<path style="fill:#333333;" d="M17,15H6.717l-0.146-0.243C6.507,14.65,5,12.103,5,9V8.5h8.032c0.088-0.81,0.409-2.45,1.588-3.825
	c1.548-1.806,3.092-2.589,3.156-2.622l0.333-0.167L22.5,6.552V9.93l-4.31-1.347c-1.55,2.288-0.714,5.759-0.705,5.795L17.639,15H17z
	 M7.296,14h9.097c-0.206-1.276-0.447-4.232,1.217-6.312l0.214-0.267L21.5,8.57V6.948L17.906,3.13
	c-0.499,0.309-1.517,1.017-2.526,2.195C14.016,6.917,14,8.979,14,9v0.5H6.015C6.135,11.587,6.967,13.37,7.296,14z"/>
<rect x="15.75" y="14.25" transform="matrix(0.9231 -0.3846 0.3846 0.9231 -5.4808 7.5962)" style="fill:#333333;" width="1.001" height="6.5"/>
<rect x="4.5" y="17" transform="matrix(0.3848 -0.923 0.923 0.3848 -11.3847 17.9188)" style="fill:#333333;" width="6.5" height="1"/>
<path style="fill:#333333;" d="M12,22c-7.125,0-10.225-3.018-10.354-3.146l0.706-0.708C2.381,18.174,5.324,21,12,21
	c6.677,0,9.619-2.826,9.647-2.854l0.706,0.708C22.225,18.982,19.125,22,12,22z"/>
<path style="fill:#333333;" d="M6,9H5c0-0.586-0.216-2.5-3-2.5v-1C4.953,5.5,6,7.385,6,9z"/>
</svg>






