<?xml version="1.0" encoding="iso-8859-1"?>
<svg version="1.1" id="&#x56FE;&#x5C42;_1" xmlns="http://www.w3.org/2000/svg" xmlns:xlink="http://www.w3.org/1999/xlink" x="0px"
	 y="0px" viewBox="0 0 24 24" style="enable-background:new 0 0 24 24;" xml:space="preserve">
<path style="fill:#333333;" d="M22,6.5h-8L13.5,6V2L14,1.5h8L22.5,2v4L22,6.5z M14.5,5.5h7v-3h-7V5.5z"/>
<path style="fill:#333333;" d="M21,18.5H4c-1.378,0-2.5-1.121-2.5-2.5v-3c0-2.481,2.019-4.5,4.5-4.5h7.5V6L14,5.5h8L22.5,6v11
	C22.5,17.827,21.827,18.5,21,18.5z M6,9.5c-1.93,0-3.5,1.57-3.5,3.5v3c0,0.827,0.673,1.5,1.5,1.5h17c0.28,0,0.5-0.22,0.5-0.5V6.5h-7
	V9L14,9.5H6z"/>
<rect x="6.5" y="9" style="fill:#333333;" width="1" height="3"/>
<rect x="10" y="9" style="fill:#333333;" width="1" height="3"/>
<rect x="6" y="8.5" style="fill:#333333;" width="5.5" height="1"/>
<path style="fill:#333333;" d="M4.5,22.5C3.122,22.5,2,21.379,2,20s1.122-2.5,2.5-2.5S7,18.621,7,20S5.878,22.5,4.5,22.5z M4.5,18.5
	C3.673,18.5,3,19.173,3,20s0.673,1.5,1.5,1.5S6,20.827,6,20S5.327,18.5,4.5,18.5z"/>
<path style="fill:#333333;" d="M9.665,22.5c-1.378,0-2.5-1.121-2.5-2.5s1.122-2.5,2.5-2.5s2.5,1.121,2.5,2.5S11.043,22.5,9.665,22.5
	z M9.665,18.5c-0.827,0-1.5,0.673-1.5,1.5s0.673,1.5,1.5,1.5s1.5-0.673,1.5-1.5S10.492,18.5,9.665,18.5z"/>
<path style="fill:#333333;" d="M14.835,22.5c-1.379,0-2.5-1.121-2.5-2.5s1.121-2.5,2.5-2.5s2.5,1.121,2.5,2.5
	S16.214,22.5,14.835,22.5z M14.835,18.5c-0.827,0-1.5,0.673-1.5,1.5s0.673,1.5,1.5,1.5s1.5-0.673,1.5-1.5S15.662,18.5,14.835,18.5z"
	/>
<path style="fill:#333333;" d="M20,22.5c-1.379,0-2.5-1.121-2.5-2.5s1.121-2.5,2.5-2.5s2.5,1.121,2.5,2.5S21.379,22.5,20,22.5z
	 M20,18.5c-0.827,0-1.5,0.673-1.5,1.5s0.673,1.5,1.5,1.5s1.5-0.673,1.5-1.5S20.827,18.5,20,18.5z"/>
</svg>






