<?xml version="1.0" encoding="iso-8859-1"?>
<svg version="1.1" id="&#x56FE;&#x5C42;_1" xmlns="http://www.w3.org/2000/svg" xmlns:xlink="http://www.w3.org/1999/xlink" x="0px"
	 y="0px" viewBox="0 0 24 24" style="enable-background:new 0 0 24 24;" xml:space="preserve">
<path style="fill:#333333;" d="M13.5,22.5h-2.997L10.5,22.002c0-0.014-0.019-1.379-0.916-2.725
	c-0.461-0.691-1.193-1.005-1.726-1.146C7.059,17.92,6.5,17.249,6.5,16.501v-5.003C6.5,11.224,6.276,11,6,11H4.244
	c-0.667,0-1.245-0.43-1.437-1.069L1.725,6.323C1.537,5.697,1.781,5.022,2.318,4.681C3.898,3.68,7.257,2,12,2
	c4.399,0,7.672,1.454,9.643,2.673c0.561,0.348,0.816,1.038,0.623,1.68l-1.073,3.578C21.001,10.57,20.424,11,19.756,11H18
	c-0.275,0-0.5,0.224-0.5,0.498v5.003c0,0.748-0.559,1.419-1.358,1.631c-0.532,0.141-1.265,0.454-1.726,1.146
	C13.511,20.636,13.5,21.986,13.5,22V22.5z M11.46,21.5h1.08c0.08-0.61,0.32-1.692,1.044-2.777c0.635-0.952,1.603-1.372,2.302-1.558
	c0.298-0.079,0.614-0.339,0.614-0.664v-5.003C16.5,10.672,17.173,10,18,10h1.756c0.219,0,0.416-0.146,0.479-0.356l1.073-3.578
	c0.062-0.21-0.017-0.433-0.192-0.542C19.256,4.373,16.164,3,12,3C7.509,3,4.342,4.583,2.854,5.526
	c-0.163,0.103-0.231,0.308-0.171,0.51l1.083,3.608C3.829,9.857,4.021,10,4.244,10H6c0.827,0,1.5,0.672,1.5,1.498v5.003
	c0,0.325,0.316,0.585,0.615,0.664c0.7,0.186,1.667,0.605,2.301,1.558C11.139,19.808,11.38,20.89,11.46,21.5z"/>
<path style="fill:#333333;" d="M12,7c-1.93,0-3.5-1.57-3.5-3.5c0-0.297,0.037-0.591,0.111-0.875l0.968,0.25
	C9.526,3.077,9.5,3.288,9.5,3.5C9.5,4.878,10.622,6,12,6c1.379,0,2.5-1.122,2.5-2.5c0-0.211-0.026-0.421-0.079-0.625l0.969-0.249
	c0.073,0.286,0.11,0.58,0.11,0.875C15.5,5.43,13.93,7,12,7z"/>
<path style="fill:#333333;" d="M6.891,3.727L6.609,2.768c3.454-1.018,7.328-1.019,10.762,0l-0.285,0.959
	C13.836,2.762,10.161,2.764,6.891,3.727z"/>
</svg>






