<?xml version="1.0" encoding="iso-8859-1"?>
<svg version="1.1" id="&#x56FE;&#x5C42;_1" xmlns="http://www.w3.org/2000/svg" xmlns:xlink="http://www.w3.org/1999/xlink" x="0px"
	 y="0px" viewBox="0 0 24 24" style="enable-background:new 0 0 24 24;" xml:space="preserve">
<path style="fill:#333333;" d="M21,20h-1v-9c-0.004-0.031-0.519-6.678-3.697-8.041c-1.355-0.581-2.607-0.063-3.419,0.472
	c-0.036,0.024-0.071,0.048-0.107,0.073C14.424,5.138,15.5,7.628,15.5,10c0,3.037-1.374,5-3.5,5s-3.5-1.963-3.5-5
	c0-2.372,1.076-4.862,2.724-6.496c-0.036-0.025-0.071-0.049-0.107-0.073C10.304,2.896,9.052,2.38,7.697,2.959
	c-3.178,1.362-3.693,8.009-3.698,8.076L4,20H3v-9c0.022-0.334,0.566-7.358,4.303-8.959c1.374-0.589,2.924-0.392,4.363,0.556
	C11.779,2.671,11.891,2.75,12,2.832c0.109-0.082,0.221-0.16,0.333-0.235c1.438-0.948,2.985-1.147,4.364-0.556
	c3.736,1.602,4.28,8.625,4.302,8.924L21,20z M12,4.14C10.492,5.583,9.5,7.844,9.5,10c0,1.934,0.657,4,2.5,4c1.843,0,2.5-2.066,2.5-4
	C14.5,7.844,13.508,5.583,12,4.14z"/>
<rect x="2" y="15" style="fill:#333333;" width="3" height="1"/>
<rect x="19" y="15" style="fill:#333333;" width="3" height="1"/>
</svg>






