<?xml version="1.0" encoding="iso-8859-1"?>
<svg version="1.1" id="&#x56FE;&#x5C42;_1" xmlns="http://www.w3.org/2000/svg" xmlns:xlink="http://www.w3.org/1999/xlink" x="0px"
	 y="0px" viewBox="0 0 24 24" style="enable-background:new 0 0 24 24;" xml:space="preserve">
<path style="fill:#333333;" d="M7,7.5H3.338V7h-0.5V3.338h1v2.058C5.815,2.96,8.816,1.5,12,1.5v1c-3.082,0-5.975,1.513-7.747,4H7
	V7.5z"/>
<path style="fill:#333333;" d="M7,21.162H3.338v-1h2.058C2.96,18.186,1.5,15.185,1.5,12h1c0,3.083,1.513,5.976,4,7.747V17h1v3.662H7
	V21.162z"/>
<path style="fill:#333333;" d="M12,22.5v-1c3.083,0,5.976-1.513,7.747-4H17v-1h3.662V17h0.5v3.662h-1v-2.058
	C18.186,21.04,15.185,22.5,12,22.5z"/>
<path style="fill:#333333;" d="M22.5,12h-1c0-3.083-1.513-5.976-4-7.747V7h-1V3.338H17v-0.5h3.662v1h-2.058
	C21.04,5.815,22.5,8.816,22.5,12z"/>
<rect x="9" y="11.5" style="fill:#333333;" width="6" height="1"/>
<rect x="11.5" y="9" style="fill:#333333;" width="1" height="6"/>
</svg>






