<?xml version="1.0" encoding="iso-8859-1"?>
<svg version="1.1" id="&#x56FE;&#x5C42;_1" xmlns="http://www.w3.org/2000/svg" xmlns:xlink="http://www.w3.org/1999/xlink" x="0px"
	 y="0px" viewBox="0 0 24 24" style="enable-background:new 0 0 24 24;" xml:space="preserve">
<polygon style="fill:#333333;" points="18.646,14.354 17,12.707 15.354,14.354 14.646,13.646 17,11.293 19.354,13.646 "/>
<path style="fill:#333333;" d="M12,22.5c-3.084,0-5.5-4.612-5.5-10.5S8.916,1.5,12,1.5c2.233,0,4.224,2.509,5.072,6.393
	l-0.977,0.214C15.363,4.753,13.717,2.5,12,2.5c-2.439,0-4.5,4.351-4.5,9.5s2.061,9.5,4.5,9.5s4.5-4.351,4.5-9.5h1
	C17.5,17.888,15.084,22.5,12,22.5z"/>
</svg>






