<?xml version="1.0" encoding="iso-8859-1"?>
<svg version="1.1" id="&#x56FE;&#x5C42;_1" xmlns="http://www.w3.org/2000/svg" xmlns:xlink="http://www.w3.org/1999/xlink" x="0px"
	 y="0px" viewBox="0 0 24 24" style="enable-background:new 0 0 24 24;" xml:space="preserve">
<path style="fill:#333333;" d="M12,22.5v-1c5.238,0,9.5-4.262,9.5-9.5S17.238,2.5,12,2.5v-1c5.79,0,10.5,4.71,10.5,10.5
	C22.5,17.79,17.79,22.5,12,22.5z"/>
<path style="fill:#333333;" d="M12,22.5c-0.354,0-0.703-0.018-1.046-0.051l0.098-0.996C11.363,21.484,11.68,21.5,12,21.5V22.5z
	 M7.913,21.675c-0.324-0.137-0.639-0.289-0.945-0.457l0.479-0.877c0.277,0.15,0.562,0.289,0.854,0.412L7.913,21.675z M4.47,19.316
	c-0.244-0.251-0.475-0.514-0.692-0.788l0.783-0.621c0.197,0.249,0.407,0.486,0.627,0.714L4.47,19.316z M2.213,15.811
	c-0.126-0.324-0.237-0.657-0.331-0.997l0.964-0.266c0.085,0.307,0.185,0.606,0.299,0.899L2.213,15.811z M2.504,11.728l-1-0.027
	c0.01-0.354,0.037-0.703,0.081-1.046l0.992,0.128C2.537,11.092,2.513,11.408,2.504,11.728z M3.356,8.053L2.447,7.637
	c0.146-0.319,0.308-0.63,0.484-0.932l0.862,0.506C3.634,7.483,3.488,7.764,3.356,8.053z M5.577,5L4.9,4.264
	c0.257-0.236,0.527-0.459,0.806-0.67l0.602,0.799C6.054,4.583,5.81,4.786,5.577,5z M8.808,3.049L8.472,2.108
	C8.799,1.991,9.135,1.89,9.477,1.806l0.239,0.971C9.407,2.853,9.104,2.944,8.808,3.049z"/>
</svg>






