<?xml version="1.0" encoding="iso-8859-1"?>
<svg version="1.1" id="&#x56FE;&#x5C42;_1" xmlns="http://www.w3.org/2000/svg" xmlns:xlink="http://www.w3.org/1999/xlink" x="0px"
	 y="0px" viewBox="0 0 24 24" style="enable-background:new 0 0 24 24;" xml:space="preserve">
<path style="fill:#333333;" d="M21.5,21.5h-16v-10h16V21.5z M6.5,20.5h14v-8h-14V20.5z"/>
<polygon style="fill:#333333;" points="7.5,9 2.5,9 2.5,4 3.5,4 3.5,8 7.5,8 "/>
<path style="fill:#333333;" d="M3.364,8.842L2.636,8.158l1.856-1.975C6.275,3.856,9.023,2.5,12,2.5c2.997,0,5.854,1.44,7.639,3.852
	l-0.803,0.595C17.237,4.789,14.682,3.5,12,3.5c-2.664,0-5.123,1.213-6.747,3.33L3.364,8.842z"/>
</svg>






