<?xml version="1.0" encoding="iso-8859-1"?>
<svg version="1.1" id="&#x56FE;&#x5C42;_1" xmlns="http://www.w3.org/2000/svg" xmlns:xlink="http://www.w3.org/1999/xlink" x="0px"
	 y="0px" viewBox="0 0 24 24" style="enable-background:new 0 0 24 24;" xml:space="preserve">
<path style="fill:#333333;" d="M2.5,12h-1c0-3.184,1.46-6.185,3.896-8.162H3.338v-1H7v0.5h0.5V7h-1V4.253
	C4.013,6.025,2.5,8.918,2.5,12z"/>
<path style="fill:#333333;" d="M12,22.5c-3.184,0-6.185-1.46-8.162-3.896v2.058h-1V17h0.5v-0.5H7v1H4.253
	c1.771,2.487,4.664,4,7.747,4V22.5z"/>
<path style="fill:#333333;" d="M20.662,21.162H17v-0.5h-0.5V17h1v2.747c2.487-1.771,4-4.664,4-7.747h1
	c0,3.185-1.46,6.186-3.896,8.162h2.058V21.162z"/>
<path style="fill:#333333;" d="M20.662,7.5H17v-1h2.746c-1.771-2.487-4.664-4-7.746-4v-1c3.184,0,6.185,1.46,8.162,3.896V3.338h1V7
	h-0.5V7.5z"/>
</svg>






