<?xml version="1.0" encoding="iso-8859-1"?>
<svg version="1.1" id="&#x56FE;&#x5C42;_1" xmlns="http://www.w3.org/2000/svg" xmlns:xlink="http://www.w3.org/1999/xlink" x="0px"
	 y="0px" viewBox="0 0 24 24" style="enable-background:new 0 0 24 24;" xml:space="preserve">
<path style="fill:#333333;" d="M4.036,16.265c-0.368,0.001-0.735-0.086-1.081-0.261c-0.814-0.411-1.385-1.238-1.489-2.158
	c-0.172-1.509,0.525-3.887,0.555-3.988l0.239-0.806l2.315,2.315L17.41,3.468l4.698,1.044l0.155,0.913
	C21.625,5.821,6.604,15.15,5.25,15.933C4.867,16.154,4.452,16.265,4.036,16.265z M2.766,10.973c-0.182,0.783-0.398,1.954-0.307,2.76
	c0.066,0.581,0.438,1.122,0.946,1.379c0.438,0.22,0.915,0.204,1.345-0.044c1.136-0.656,12.424-7.66,15.944-9.845l-3.104-0.69
	L4.426,12.633L2.766,10.973z"/>
<polygon style="fill:#333333;" points="7.146,10.354 3.186,6.393 5.29,5.178 13.053,6.003 12.947,6.997 5.508,6.207 4.814,6.607 
	7.854,9.646 "/>
<polygon style="fill:#333333;" points="14.109,22.312 12.109,19.812 12.5,19 20.5,19 20.5,17.5 21.5,17.5 21.5,20 13.54,20 
	14.891,21.688 "/>
<polygon style="fill:#333333;" points="10,18.5 9,18.5 9,16 16.96,16 15.609,14.312 16.391,13.688 18.391,16.188 18,17 10,17 "/>
</svg>






