<?xml version="1.0" encoding="iso-8859-1"?>
<svg version="1.1" id="&#x56FE;&#x5C42;_1" xmlns="http://www.w3.org/2000/svg" xmlns:xlink="http://www.w3.org/1999/xlink" x="0px"
	 y="0px" viewBox="0 0 24 24" style="enable-background:new 0 0 24 24;" xml:space="preserve">
<path style="fill:#333333;" d="M15.01,8.5c-1.654,0-3-1.346-3-3s1.346-3,3-3s3,1.346,3,3S16.664,8.5,15.01,8.5z M15.01,3.5
	c-1.103,0-2,0.897-2,2s0.897,2,2,2s2-0.897,2-2S16.112,3.5,15.01,3.5z"/>
<rect x="15.559" y="18.25" transform="matrix(0.4743 -0.8803 0.8803 0.4743 -6.3874 26.8029)" style="fill:#333333;" width="7.382" height="1.001"/>
<polygon style="fill:#333333;" points="4.771,20.42 4.071,19.743 10.071,9.743 10.606,9.511 22.106,12.012 21.894,12.988 
	10.744,10.565 6.037,18.41 12.729,14.08 13.438,14.261 16.443,19.761 15.566,20.239 12.819,15.212 "/>
<rect x="2" y="19.5" style="fill:#333333;" width="20" height="1"/>
</svg>






