<?xml version="1.0" encoding="iso-8859-1"?>
<svg version="1.1" id="&#x56FE;&#x5C42;_1" xmlns="http://www.w3.org/2000/svg" xmlns:xlink="http://www.w3.org/1999/xlink" x="0px"
	 y="0px" viewBox="0 0 24 24" style="enable-background:new 0 0 24 24;" xml:space="preserve">
<path style="fill:#333333;" d="M19.627,18.5H4.373c-0.746,0-1.385-0.558-1.487-1.298L1.659,8.203C1.601,7.773,1.73,7.34,2.016,7.014
	C2.3,6.687,2.712,6.5,3.146,6.5h17.709c0.433,0,0.845,0.187,1.13,0.514c0.284,0.326,0.414,0.76,0.355,1.189l-1.227,8.999
	C21.013,17.942,20.374,18.5,19.627,18.5z M3.146,7.5c-0.146,0-0.28,0.061-0.376,0.171C2.672,7.782,2.63,7.922,2.65,8.067v0l1.227,9
	C3.911,17.313,4.124,17.5,4.373,17.5h15.254c0.249,0,0.462-0.186,0.496-0.433l1.227-9c0.02-0.146-0.022-0.286-0.119-0.397
	C21.135,7.561,21.001,7.5,20.854,7.5H3.146z"/>
<rect x="9.5" y="10.5" style="fill:#333333;" width="1" height="1"/>
<rect x="11.5" y="13.5" style="fill:#333333;" width="1" height="1"/>
<rect x="5.5" y="10.5" style="fill:#333333;" width="1" height="1"/>
<rect x="7.5" y="13.5" style="fill:#333333;" width="1" height="1"/>
<rect x="13.5" y="10.5" style="fill:#333333;" width="1" height="1"/>
<rect x="15.5" y="13.5" style="fill:#333333;" width="1" height="1"/>
<rect x="17.5" y="10.5" style="fill:#333333;" width="1" height="1"/>
</svg>






