<?xml version="1.0" encoding="iso-8859-1"?>
<svg version="1.1" id="&#x56FE;&#x5C42;_1" xmlns="http://www.w3.org/2000/svg" xmlns:xlink="http://www.w3.org/1999/xlink" x="0px"
	 y="0px" viewBox="0 0 24 24" style="enable-background:new 0 0 24 24;" xml:space="preserve">
<path style="fill:#333333;" d="M12,20c-4.941,0-9.252-3.237-10.483-7.872v-0.256C2.748,7.237,7.059,4,12,4s9.252,3.237,10.483,7.872
	v0.256C21.252,16.763,16.941,20,12,20z M2.519,12c1.16,4.128,5.039,7,9.481,7c4.442,0,8.321-2.872,9.481-7
	C20.321,7.872,16.442,5,12,5S3.678,7.872,2.519,12z"/>
<rect x="20" y="11.5" style="fill:#333333;" width="2" height="1"/>
<rect x="7" y="11.5" style="fill:#333333;" width="10" height="1"/>
<rect x="2" y="11.5" style="fill:#333333;" width="2" height="1"/>
<rect x="8" y="10" style="fill:#333333;" width="1" height="4"/>
<rect x="15" y="10" style="fill:#333333;" width="1" height="4"/>
<rect x="11.5" y="10" style="fill:#333333;" width="1" height="4"/>
</svg>






