<?xml version="1.0" encoding="iso-8859-1"?>
<svg version="1.1" id="&#x56FE;&#x5C42;_1" xmlns="http://www.w3.org/2000/svg" xmlns:xlink="http://www.w3.org/1999/xlink" x="0px"
	 y="0px" viewBox="0 0 24 24" style="enable-background:new 0 0 24 24;" xml:space="preserve">
<path style="fill:#333333;" d="M22.5,18h-21v-0.5C1.5,10.622,5.72,6,12,6s10.5,4.622,10.5,11.5V18z M2.508,17h18.984
	C21.302,10.907,17.619,7,12,7C6.381,7,2.698,10.907,2.508,17z"/>
<rect x="4.5" y="15.5" style="fill:#333333;" width="1" height="2"/>
<rect x="8" y="15.5" style="fill:#333333;" width="1" height="2"/>
<rect x="11.5" y="15.5" style="fill:#333333;" width="1" height="2"/>
<rect x="15" y="15.5" style="fill:#333333;" width="1" height="2"/>
<rect x="18.5" y="15.5" style="fill:#333333;" width="1" height="2"/>
<path style="fill:#333333;" d="M17.5,13.5h-11V13c0-2.191,2.796-3.5,5.5-3.5c2.703,0,5.5,1.309,5.5,3.5V13.5z M7.59,12.5h8.82
	c-0.448-1.215-2.489-2-4.41-2S8.038,11.285,7.59,12.5z"/>
</svg>






