<?xml version="1.0" encoding="iso-8859-1"?>
<svg version="1.1" id="&#x56FE;&#x5C42;_1" xmlns="http://www.w3.org/2000/svg" xmlns:xlink="http://www.w3.org/1999/xlink" x="0px"
	 y="0px" viewBox="0 0 24 24" style="enable-background:new 0 0 24 24;" xml:space="preserve">
<path style="fill:#333333;" d="M19.5,16h-1V6.5c0-1.71-1.29-3-3-3s-3,1.29-3,3v2h-1v-2c0-2.28,1.72-4,4-4s4,1.72,4,4V16z"/>
<path style="fill:#333333;" d="M8.5,21.5c-2.28,0-4-1.72-4-4V3h1v14.5c0,1.71,1.29,3,3,3s3-1.29,3-3v-9h1v9
	C12.5,19.78,10.78,21.5,8.5,21.5z"/>
<polygon style="fill:#333333;" points="7.146,5.854 5,3.707 2.854,5.854 2.146,5.146 5,2.293 7.854,5.146 "/>
<path style="fill:#333333;" d="M19,21.5c-1.654,0-3-1.346-3-3s1.346-3,3-3s3,1.346,3,3S20.654,21.5,19,21.5z M19,16.5
	c-1.103,0-2,0.897-2,2s0.897,2,2,2s2-0.897,2-2S20.103,16.5,19,16.5z"/>
</svg>






