<?xml version="1.0" encoding="iso-8859-1"?>
<svg version="1.1" id="&#x56FE;&#x5C42;_1" xmlns="http://www.w3.org/2000/svg" xmlns:xlink="http://www.w3.org/1999/xlink" x="0px"
	 y="0px" viewBox="0 0 24 24" style="enable-background:new 0 0 24 24;" xml:space="preserve">
<path style="fill:#333333;" d="M21,19.5H6.5c-2.28,0-4-1.72-4-4s1.72-4,4-4h3v1h-3c-1.71,0-3,1.29-3,3s1.29,3,3,3H21V19.5z"/>
<path style="fill:#333333;" d="M17.5,12.5h-8v-1h8c1.71,0,3-1.29,3-3s-1.29-3-3-3h-9v-1h9c2.28,0,4,1.72,4,4S19.78,12.5,17.5,12.5z"
	/>
<polygon style="fill:#333333;" points="18.854,21.854 18.146,21.146 20.293,19 18.146,16.854 18.854,16.146 21.707,19 "/>
<path style="fill:#333333;" d="M6,8C4.346,8,3,6.654,3,5s1.346-3,3-3s3,1.346,3,3S7.654,8,6,8z M6,3C4.897,3,4,3.897,4,5
	s0.897,2,2,2s2-0.897,2-2S7.103,3,6,3z"/>
</svg>






