<?xml version="1.0" encoding="iso-8859-1"?>
<svg version="1.1" id="&#x56FE;&#x5C42;_1" xmlns="http://www.w3.org/2000/svg" xmlns:xlink="http://www.w3.org/1999/xlink" x="0px"
	 y="0px" viewBox="0 0 24 24" style="enable-background:new 0 0 24 24;" xml:space="preserve">
<path style="fill:#333333;" d="M15,12.5H6.5c-2.28,0-4-1.72-4-4s1.72-4,4-4H16v1H6.5c-1.71,0-3,1.29-3,3s1.29,3,3,3H15V12.5z"/>
<path style="fill:#333333;" d="M17.5,19.5H4v-1h13.5c1.71,0,3-1.29,3-3s-1.29-3-3-3H15v-1h2.5c2.28,0,4,1.72,4,4
	S19.78,19.5,17.5,19.5z"/>
<polygon style="fill:#333333;" points="6.146,21.854 3.293,19 6.146,16.146 6.854,16.854 4.707,19 6.854,21.146 "/>
<path style="fill:#333333;" d="M18.588,8c-1.654,0-3-1.346-3-3s1.346-3,3-3s3,1.346,3,3S20.242,8,18.588,8z M18.588,3
	c-1.103,0-2,0.897-2,2s0.897,2,2,2s2-0.897,2-2S19.69,3,18.588,3z"/>
</svg>






