<?xml version="1.0" encoding="iso-8859-1"?>
<svg version="1.1" id="&#x56FE;&#x5C42;_1" xmlns="http://www.w3.org/2000/svg" xmlns:xlink="http://www.w3.org/1999/xlink" x="0px"
	 y="0px" viewBox="0 0 24 24" style="enable-background:new 0 0 24 24;" xml:space="preserve">
<path style="fill:#333333;" d="M12.001,22.528l-0.163-0.056C6.552,20.653,3,15.568,3,9.819V4.192l9.004-2.714L21,4.192v5.629
	c0,5.748-3.551,10.832-8.836,12.651L12.001,22.528z M4,4.935v4.884c0,5.263,3.208,9.922,8.001,11.651
	C16.793,19.741,20,15.083,20,9.821V4.935l-7.996-2.413L4,4.935z"/>
<path style="fill:#333333;" d="M12,15.5c-2.206,0-4-1.794-4-4c0-2.206,1.794-4,4-4c2.206,0,4,1.794,4,4
	C16,13.706,14.206,15.5,12,15.5z M12,8.5c-1.654,0-3,1.346-3,3s1.346,3,3,3s3-1.346,3-3S13.654,8.5,12,8.5z"/>
<rect x="15.5" y="13.945" transform="matrix(0.7593 -0.6508 0.6508 0.7593 -6.7235 14.3247)" style="fill:#333333;" width="1" height="4.61"/>
<path style="fill:#333333;" d="M12.164,22.473l-0.326-0.945C16.72,19.847,20,15.143,20,9.821h1
	C21,15.569,17.449,20.653,12.164,22.473z"/>
</svg>






