<?xml version="1.0" encoding="iso-8859-1"?>
<svg version="1.1" id="&#x56FE;&#x5C42;_1" xmlns="http://www.w3.org/2000/svg" xmlns:xlink="http://www.w3.org/1999/xlink" x="0px"
	 y="0px" viewBox="0 0 24 24" style="enable-background:new 0 0 24 24;" xml:space="preserve">
<polygon style="fill:#333333;" points="9.5,15.5 5.5,15.5 5.126,14.668 9.126,10.168 9.874,10.832 6.613,14.5 9.5,14.5 "/>
<path style="fill:#333333;" d="M20,15.5H9v-14h0.5C14.799,1.5,20,8.187,20,15V15.5z M10,14.5h8.989
	C18.751,8.693,14.412,2.935,10,2.523V14.5z"/>
<path style="fill:#333333;" d="M15.558,21.5H3.64l-1.333-4H21l0.256,0.93l-4.675,2.788C16.271,21.402,15.918,21.5,15.558,21.5z
	 M4.36,20.5h11.197c0.18,0,0.356-0.049,0.512-0.142l3.116-1.858H3.694L4.36,20.5z"/>
<rect x="9" y="15" style="fill:#333333;" width="1" height="3"/>
<rect x="14.5" y="10" style="fill:#333333;" width="6" height="1"/>
</svg>






