<?xml version="1.0" encoding="iso-8859-1"?>
<svg version="1.1" id="&#x56FE;&#x5C42;_1" xmlns="http://www.w3.org/2000/svg" xmlns:xlink="http://www.w3.org/1999/xlink" x="0px"
	 y="0px" viewBox="0 0 24 24" style="enable-background:new 0 0 24 24;" xml:space="preserve">
<polygon style="fill:#333333;" points="20.447,14.224 19.553,13.776 20.191,12.5 3.809,12.5 4.447,13.776 3.553,14.224 
	2.553,12.224 3,11.5 21,11.5 21.447,12.224 "/>
<path style="fill:#333333;" d="M14,12.5H5l-0.372-0.834l9-10L14.5,2v10L14,12.5z M6.123,11.5H13.5V3.303L6.123,11.5z"/>
<path style="fill:#333333;" d="M19,12.5h-5L13.5,12V5.5l0.896-0.305l5,6.5L19,12.5z M14.5,11.5h3.484L14.5,6.97V11.5z"/>
<path style="fill:#333333;" d="M19.5,18.499c-0.508,0-1.015-0.128-1.488-0.384c-0.652-0.352-1.371-0.352-2.023,0
	c-0.947,0.512-2.029,0.512-2.977,0c-0.652-0.352-1.371-0.352-2.024,0c-0.945,0.512-2.03,0.512-2.976,0
	c-0.653-0.352-1.371-0.352-2.024,0c-0.945,0.512-2.03,0.512-2.976,0l-1.25-0.676l0.476-0.879l1.25,0.676
	c0.652,0.352,1.371,0.352,2.024,0c0.945-0.512,2.03-0.512,2.976,0c0.653,0.352,1.371,0.352,2.024,0c0.945-0.513,2.03-0.511,2.976,0
	c0.652,0.352,1.371,0.352,2.023,0c0.947-0.512,2.029-0.512,2.977,0c0.652,0.352,1.371,0.352,2.023,0l1.251-0.676l0.475,0.879
	l-1.25,0.676C20.515,18.371,20.008,18.499,19.5,18.499z"/>
<path style="fill:#333333;" d="M19.5,21.499c-0.508,0-1.015-0.128-1.488-0.384c-0.652-0.352-1.371-0.352-2.023,0
	c-0.947,0.512-2.029,0.512-2.977,0c-0.652-0.352-1.371-0.352-2.024,0c-0.945,0.512-2.03,0.512-2.976,0
	c-0.653-0.352-1.371-0.352-2.024,0c-0.945,0.512-2.03,0.512-2.976,0l-1.25-0.676l0.476-0.879l1.25,0.676
	c0.652,0.352,1.371,0.352,2.024,0c0.945-0.512,2.03-0.512,2.976,0c0.653,0.352,1.371,0.352,2.024,0c0.945-0.512,2.03-0.512,2.976,0
	c0.652,0.352,1.371,0.352,2.023,0c0.947-0.512,2.029-0.512,2.977,0c0.652,0.352,1.371,0.352,2.023,0l1.251-0.676l0.475,0.879
	l-1.25,0.676C20.515,21.371,20.008,21.499,19.5,21.499z"/>
</svg>






