<?xml version="1.0" encoding="iso-8859-1"?>
<svg version="1.1" id="&#x56FE;&#x5C42;_1" xmlns="http://www.w3.org/2000/svg" xmlns:xlink="http://www.w3.org/1999/xlink" x="0px"
	 y="0px" viewBox="0 0 24 24" style="enable-background:new 0 0 24 24;" xml:space="preserve">
<path style="fill:#333333;" d="M19,20.5H5c-1.378,0-2.5-1.121-2.5-2.5v-7.5h19V18C21.5,19.379,20.379,20.5,19,20.5z M3.5,11.5V18
	c0,0.827,0.673,1.5,1.5,1.5h14c0.827,0,1.5-0.673,1.5-1.5v-6.5H3.5z"/>
<rect x="3" y="14.5" style="fill:#333333;" width="18" height="1"/>
<rect x="2.5" y="13" style="fill:#333333;" width="1" height="4"/>
<rect x="20.5" y="13" style="fill:#333333;" width="1" height="4"/>
<path style="fill:#333333;" d="M21.5,11.5H2.533V11c0-0.141-0.008-0.282-0.016-0.427c-0.048-0.916-0.109-2.055,1.411-3.92
	c1.645-2.017,4.705-5.77,8.361-3.377C12.383,3.336,21.5,9.32,21.5,11V11.5z M3.515,10.5h16.623c-1.21-1.296-5.157-4.27-8.395-6.388
	C9.065,2.36,6.796,4.718,4.704,7.285C3.438,8.838,3.472,9.686,3.515,10.5z"/>
</svg>






