<?xml version="1.0" encoding="iso-8859-1"?>
<svg version="1.1" id="&#x56FE;&#x5C42;_1" xmlns="http://www.w3.org/2000/svg" xmlns:xlink="http://www.w3.org/1999/xlink" x="0px"
	 y="0px" viewBox="0 0 24 24" style="enable-background:new 0 0 24 24;" xml:space="preserve">
<path style="fill:#333333;" d="M7.04,22.085c-0.089,0-0.179-0.003-0.269-0.009c-1.96-0.137-3.41-1.701-3.3-3.563l0.037-0.596
	c0.092-1.437,0.179-2.793-0.151-4.282c-0.278-1.253-0.496-2.558-0.726-3.94C2.526,9.068,2.419,8.43,2.305,7.783
	c-0.367-2.071,0.832-4.1,2.79-4.72L5.45,2.951c1.215-0.386,2.5-0.18,3.526,0.561c1.008,0.729,1.594,1.861,1.609,3.107
	c0.03,2.514-0.009,4.423-0.117,5.674c-0.096,1.114,0.064,2.754,0.477,4.873c0.247,1.27-0.119,2.607-0.978,3.579
	C9.207,21.605,8.151,22.085,7.04,22.085z M5.751,3.904L5.397,4.016C3.916,4.485,3.01,6.03,3.29,7.608
	C3.405,8.259,3.512,8.9,3.617,9.53c0.229,1.369,0.444,2.661,0.716,3.888c0.361,1.628,0.265,3.12,0.173,4.563l-0.037,0.59
	C4.392,19.88,5.434,20.98,6.84,21.078c0.887,0.062,1.763-0.301,2.377-0.995c0.655-0.74,0.934-1.76,0.746-2.726
	c-0.431-2.21-0.596-3.943-0.492-5.15c0.104-1.202,0.143-3.13,0.113-5.577C9.574,5.705,9.138,4.863,8.39,4.322
	C7.623,3.768,6.661,3.616,5.751,3.904L5.751,3.904z"/>
<path style="fill:#333333;" d="M16.552,21.531c-0.304,0-0.609-0.037-0.911-0.112c-1.836-0.456-2.995-2.209-2.64-3.99l0.063-0.317
	c0.26-1.288,0.506-2.504,0.436-4.09c-0.057-1.296-0.022-2.704,0.014-4.195c0.018-0.741,0.036-1.497,0.043-2.259
	c0.021-2.027,1.438-3.762,3.372-4.125l0.385-0.072c1.269-0.241,2.53,0.13,3.46,1.011c0.913,0.865,1.342,2.078,1.178,3.327
	c-0.378,2.864-0.74,4.957-1.077,6.22c-0.27,1.008-0.378,2.466-0.324,4.332c0.038,1.305-0.549,2.575-1.57,3.397
	C18.269,21.23,17.417,21.531,16.552,21.531z M18.064,3.3c-0.188,0-0.377,0.018-0.567,0.053v0l-0.385,0.072
	c-1.465,0.275-2.54,1.601-2.556,3.152c-0.007,0.767-0.025,1.528-0.044,2.273c-0.035,1.474-0.069,2.865-0.013,4.127
	c0.074,1.708-0.183,2.982-0.455,4.332l-0.063,0.314c-0.251,1.257,0.584,2.497,1.9,2.824c0.854,0.212,1.756,0.005,2.471-0.569
	c0.778-0.627,1.227-1.595,1.197-2.589c-0.057-1.963,0.063-3.518,0.357-4.619c0.321-1.205,0.686-3.312,1.052-6.093
	c0.123-0.928-0.195-1.828-0.873-2.47C19.53,3.582,18.814,3.3,18.064,3.3z"/>
<path style="fill:#333333;" d="M9.526,14.658c-0.976-2.926-1.903-5.205-2.57-6.335c-0.699,0.898-2.105,3.054-2.458,6.232
	l-0.994-0.111c0.514-4.621,3.036-7.191,3.144-7.298l0.74,0.037c1.03,1.258,2.376,5.025,3.087,7.159L9.526,14.658z"/>
<path style="fill:#333333;" d="M20.499,15.031l-0.998-0.062c0.185-2.956-1.383-5.97-2.085-7.159
	c-0.101,0.097-0.209,0.198-0.322,0.304C15.999,9.133,14.5,10.53,14.5,12.75h-1c0-2.655,1.752-4.288,2.912-5.368
	c0.292-0.272,0.545-0.508,0.701-0.699l0.799,0.034C18.028,6.886,20.757,10.906,20.499,15.031z"/>
</svg>






