<?xml version="1.0" encoding="iso-8859-1"?>
<svg version="1.1" id="&#x56FE;&#x5C42;_1" xmlns="http://www.w3.org/2000/svg" xmlns:xlink="http://www.w3.org/1999/xlink" x="0px"
	 y="0px" viewBox="0 0 24 24" style="enable-background:new 0 0 24 24;" xml:space="preserve">
<path style="fill:#333333;" d="M18,11.5H2v-1h16c1.93,0,3.5-1.57,3.5-3.5S19.93,3.5,18,3.5S14.5,5.07,14.5,7h-1
	c0-2.481,2.019-4.5,4.5-4.5s4.5,2.019,4.5,4.5S20.481,11.5,18,11.5z"/>
<rect x="2" y="14" style="fill:#333333;" width="3" height="1"/>
<rect x="10.5" y="14" style="fill:#333333;" width="3" height="1"/>
<rect x="19" y="14" style="fill:#333333;" width="3" height="1"/>
<rect x="2" y="17" style="fill:#333333;" width="3" height="1"/>
<rect x="10.5" y="17" style="fill:#333333;" width="3" height="1"/>
<rect x="19" y="17" style="fill:#333333;" width="3" height="1"/>
<rect x="2" y="20.5" style="fill:#333333;" width="6" height="1"/>
<rect x="16" y="20.5" style="fill:#333333;" width="6" height="1"/>
</svg>






