<?xml version="1.0" encoding="iso-8859-1"?>
<svg version="1.1" id="&#x56FE;&#x5C42;_1" xmlns="http://www.w3.org/2000/svg" xmlns:xlink="http://www.w3.org/1999/xlink" x="0px"
	 y="0px" viewBox="0 0 24 24" style="enable-background:new 0 0 24 24;" xml:space="preserve">
<path style="fill:none;" d="M13.5,4c-2.343,2.343-1.982,6.517-1.982,6.517S15.657,10.843,18,8.5s2.003-6.482,2.003-6.482
	S15.843,1.657,13.5,4z"/>
<path style="fill:#333333;" d="M12.068,11.035c-0.338,0-0.553-0.016-0.59-0.019l-0.422-0.033l-0.037-0.422
	c-0.016-0.18-0.353-4.435,2.127-6.914c2.478-2.479,6.722-2.143,6.899-2.127l0.421,0.037l0.034,0.42
	c0.015,0.179,0.331,4.398-2.147,6.877C16.395,10.813,13.346,11.035,12.068,11.035z M15.146,6.182l0.707,0.707l-3.12,3.12
	c1.333-0.084,3.502-0.451,4.913-1.862C19.37,6.423,19.527,3.585,19.52,2.5c-1.108-0.015-3.947,0.135-5.666,1.854
	c-1.419,1.419-1.767,3.619-1.838,4.959L15.146,6.182z"/>
<path style="fill:none;" d="M10,10.5c1.925,1.922,1.486,5.486,1.486,5.486S7.925,16.422,6,14.5
	c-1.925-1.922-1.484-5.486-1.484-5.486S8.075,8.578,10,10.5z"/>
<path style="fill:#333333;" d="M10.591,16.529c-1.264,0-3.495-0.229-4.944-1.676C3.573,12.783,4,9.109,4.02,8.953l0.048-0.387
	l0.387-0.047c0.155-0.021,3.825-0.443,5.898,1.627c2.073,2.071,1.647,5.745,1.628,5.901l-0.047,0.388l-0.388,0.047
	C11.5,16.487,11.135,16.529,10.591,16.529z M4.983,9.481c-0.042,0.943,0.005,3.302,1.37,4.665c1.096,1.095,2.832,1.342,3.962,1.376
	l-2.669-2.669l0.707-0.707l2.67,2.669c-0.033-1.13-0.28-2.867-1.377-3.961C8.278,9.486,5.925,9.438,4.983,9.481z"/>
<rect x="11" y="2" style="fill:#333333;" width="1" height="20"/>
</svg>






