<?xml version="1.0" encoding="iso-8859-1"?>
<svg version="1.1" id="&#x56FE;&#x5C42;_1" xmlns="http://www.w3.org/2000/svg" xmlns:xlink="http://www.w3.org/1999/xlink" x="0px"
	 y="0px" viewBox="0 0 24 24" style="enable-background:new 0 0 24 24;" xml:space="preserve">
<path style="fill:#333333;" d="M19.5,21.5h-15c-1.103,0-2-0.897-2-2v-15c0-1.103,0.897-2,2-2h12.838L21.5,6.386V19.5
	C21.5,20.603,20.603,21.5,19.5,21.5z M4.5,3.5c-0.551,0-1,0.449-1,1v15c0,0.552,0.449,1,1,1h15c0.552,0,1-0.448,1-1V6.82L16.943,3.5
	H4.5z"/>
<path style="fill:none;" d="M12.004,3L12,6.692C12,6.862,11.776,7,11.5,7h-4C7.224,7,7,6.862,7,6.692V3"/>
<path style="fill:#333333;" d="M11.5,7.5h-4c-0.57,0-1-0.347-1-0.808V2.5h6.005L12.5,6.693C12.5,7.153,12.07,7.5,11.5,7.5z
	 M11.5,6.692L11.5,6.692L11.5,6.692z M7.5,6.484l4,0.016l0,0l0.003-3H7.5V6.484z"/>
<rect x="4.5" y="2.5" style="fill:#333333;" width="12.641" height="1"/>
<rect x="7" y="12.5" style="fill:#333333;" width="10" height="1"/>
<rect x="7" y="16.5" style="fill:#333333;" width="5.004" height="1"/>
</svg>






