<?xml version="1.0" encoding="iso-8859-1"?>
<svg version="1.1" id="&#x56FE;&#x5C42;_1" xmlns="http://www.w3.org/2000/svg" xmlns:xlink="http://www.w3.org/1999/xlink" x="0px"
	 y="0px" viewBox="0 0 24 24" style="enable-background:new 0 0 24 24;" xml:space="preserve">
<path style="fill:#333333;" d="M19.65,21.5H4.35c-1.02,0-1.85-0.83-1.85-1.85V4.35c0-1.02,0.83-1.85,1.85-1.85h15.3
	c1.02,0,1.85,0.83,1.85,1.85v15.3C21.5,20.67,20.67,21.5,19.65,21.5z M4.35,3.5C3.881,3.5,3.5,3.881,3.5,4.35v15.3
	c0,0.469,0.381,0.85,0.85,0.85h15.3c0.469,0,0.85-0.381,0.85-0.85V4.35c0-0.469-0.381-0.85-0.85-0.85H4.35z"/>
<path style="fill:#333333;" d="M16.5,12.5H7v-10h9.5V12.5z M8,11.5h7.5v-8H8V11.5z"/>
<rect x="12.5" y="6.5" style="fill:#333333;" width="1" height="2"/>
<rect x="5.499" y="2.5" style="fill:#333333;" width="12.5" height="1"/>
</svg>






