<?xml version="1.0" encoding="iso-8859-1"?>
<svg version="1.1" id="&#x56FE;&#x5C42;_1" xmlns="http://www.w3.org/2000/svg" xmlns:xlink="http://www.w3.org/1999/xlink" x="0px"
	 y="0px" viewBox="0 0 24 24" style="enable-background:new 0 0 24 24;" xml:space="preserve">
<g>
	<defs>
		<rect id="SVGID_1_" width="24" height="24"/>
	</defs>
	<clipPath id="SVGID_00000131356245496472769550000016480001597210944420_">
		<use xlink:href="#SVGID_1_"  style="overflow:visible;"/>
	</clipPath>
	<g style="clip-path:url(#SVGID_00000131356245496472769550000016480001597210944420_);">
		<path style="fill:#333333;" d="M10.437,12.243l-0.874-0.486c0.012-0.021,1.205-2.193,1.44-4.312
			c0.231-2.081-0.456-3.732-0.463-3.749l-0.17-0.4l3.502-2.103l0.121,0.725C14.014,2.042,14.5,4.976,14.5,6.5h-1
			c0-0.997-0.233-2.715-0.38-3.689l-1.51,0.907c0.219,0.677,0.579,2.115,0.387,3.838C11.739,9.878,10.49,12.147,10.437,12.243z"/>
		<path style="fill:#333333;" d="M4.785,22.477c-0.771,0-1.532-0.162-2.084-0.576l0,0c-0.538-0.403-0.85-1.164-0.857-2.087
			c-0.01-1.419,0.682-2.806,1.851-3.709c0.983-0.76,1.515-1.06,2.079-1.378c0.585-0.331,1.191-0.673,2.421-1.622
			c2.311-1.785,8.322-11.276,8.383-11.372l0.295-0.466l3.073,2.39l-6.391,8.513c-0.795,1.06-1.259,2.322-1.75,3.659
			c-0.382,1.042-0.778,2.119-1.348,3.098c-1.062,1.826-2.226,2.517-3.234,3.021C6.616,22.251,5.694,22.477,4.785,22.477z
			 M17.127,2.732c-1.267,1.977-6.153,9.49-8.321,11.164c-1.287,0.994-1.925,1.354-2.541,1.702c-0.531,0.3-1.033,0.583-1.959,1.298
			c-0.924,0.714-1.471,1.802-1.462,2.91C2.848,20.396,3.022,20.892,3.3,21.1l0,0c0.813,0.611,2.631,0.376,3.477-0.047
			c0.918-0.459,1.893-1.041,2.817-2.629c0.525-0.902,0.906-1.938,1.273-2.94c0.494-1.345,1.005-2.736,1.888-3.914l5.8-7.727
			L17.127,2.732z"/>
		<path style="fill:#333333;" d="M11.777,15.416l-0.555-0.832c0.062-0.042,1.549-1.028,3.554-2.031
			c1.593-0.796,4.575-0.99,5.972-1.038l-1.075-2.509c-1.247,0.045-3.811,0.338-4.819,1.347l-0.707-0.707C15.774,8.019,19.828,8,20,8
			h0.33l1.928,4.5H21.5c-0.044,0-4.405,0.012-6.276,0.947C13.277,14.42,11.792,15.406,11.777,15.416z"/>
	</g>
</g>
</svg>






