<?xml version="1.0" encoding="iso-8859-1"?>
<svg version="1.1" id="&#x56FE;&#x5C42;_1" xmlns="http://www.w3.org/2000/svg" xmlns:xlink="http://www.w3.org/1999/xlink" x="0px"
	 y="0px" viewBox="0 0 24 24" style="enable-background:new 0 0 24 24;" xml:space="preserve">
<polygon style="fill:#333333;" points="21.5,9 20.5,9 20.5,3.5 15,3.5 15,2.5 21.5,2.5 "/>
<polygon style="fill:#333333;" points="15.5,15 9,15 9,8.5 10,8.5 10,14 15.5,14 "/>
<rect x="7.118" y="8.25" transform="matrix(0.7071 -0.7071 0.7071 0.7071 -1.7206 13.3462)" style="fill:#333333;" width="16.263" height="1"/>
<path style="fill:#333333;" d="M20,21.5H4c-0.827,0-1.5-0.673-1.5-1.5V4c0-0.827,0.673-1.5,1.5-1.5h7v1H4C3.724,3.5,3.5,3.724,3.5,4
	v16c0,0.275,0.224,0.5,0.5,0.5h16c0.275,0,0.5-0.225,0.5-0.5v-7h1v7C21.5,20.827,20.827,21.5,20,21.5z"/>
</svg>






