<?xml version="1.0" encoding="iso-8859-1"?>
<svg version="1.1" id="&#x56FE;&#x5C42;_1" xmlns="http://www.w3.org/2000/svg" xmlns:xlink="http://www.w3.org/1999/xlink" x="0px"
	 y="0px" viewBox="0 0 24 24" style="enable-background:new 0 0 24 24;" xml:space="preserve">
<polygon style="fill:#333333;" points="22,7.5 15,7.5 15,6.5 21,6.5 21,4.843 14.907,2.5 9.093,2.5 3,4.843 3,6.5 9,6.5 9,7.5 
	2,7.5 2,4.157 9,1.5 15.18,1.533 22,4.157 "/>
<path style="fill:#333333;" d="M15.5,22.5h-7v-21h7V22.5z M9.5,21.5h5v-19h-5V21.5z"/>
<rect x="9" y="5.5" style="fill:#333333;" width="2" height="1"/>
<rect x="9" y="14.5" style="fill:#333333;" width="2.5" height="1"/>
<rect x="9" y="8.5" style="fill:#333333;" width="2.5" height="1"/>
<rect x="9" y="11.5" style="fill:#333333;" width="2" height="1"/>
<rect x="9" y="17.5" style="fill:#333333;" width="2" height="1"/>
<rect x="8.5" y="5" style="fill:#333333;" width="1" height="14"/>
</svg>






