<?xml version="1.0" encoding="iso-8859-1"?>
<svg version="1.1" id="&#x56FE;&#x5C42;_1" xmlns="http://www.w3.org/2000/svg" xmlns:xlink="http://www.w3.org/1999/xlink" x="0px"
	 y="0px" viewBox="0 0 24 24" style="enable-background:new 0 0 24 24;" xml:space="preserve">
<path style="fill:#333333;" d="M20,22H4c-1.103,0-2-0.897-2-2V4c0-1.103,0.897-2,2-2h16c1.103,0,2,0.897,2,2v16
	C22,21.103,21.103,22,20,22z M4,3C3.449,3,3,3.449,3,4v16c0,0.552,0.449,1,1,1h16c0.552,0,1-0.448,1-1V4c0-0.551-0.448-1-1-1H4z"/>
<polygon style="fill:#333333;" points="17.354,13.854 16.646,13.146 17.793,12 16.646,10.854 17.354,10.146 19.207,12 "/>
<polygon style="fill:#333333;" points="6.646,13.854 4.793,12 6.646,10.146 7.354,10.854 6.207,12 7.354,13.146 "/>
<polygon style="fill:#333333;" points="13.146,7.354 12,6.207 10.854,7.354 10.146,6.646 12,4.793 13.854,6.646 "/>
<polygon style="fill:#333333;" points="12,19.207 10.146,17.354 10.854,16.646 12,17.793 13.146,16.646 13.854,17.354 "/>
</svg>






