<?xml version="1.0" encoding="iso-8859-1"?>
<svg version="1.1" id="&#x56FE;&#x5C42;_1" xmlns="http://www.w3.org/2000/svg" xmlns:xlink="http://www.w3.org/1999/xlink" x="0px"
	 y="0px" viewBox="0 0 24 24" style="enable-background:new 0 0 24 24;" xml:space="preserve">
<path style="fill:#333333;" d="M21,22.5H1.5v-6C1.5,15.673,2.173,15,3,15h2.5v-3.268L12,7.399l6.5,4.333V15H21
	c0.827,0,1.5,0.673,1.5,1.5V21C22.5,21.827,21.827,22.5,21,22.5z M2.5,21.5H21c0.275,0,0.5-0.225,0.5-0.5v-4.5
	c0-0.275-0.225-0.5-0.5-0.5h-3.5v-3.732L12,8.601l-5.5,3.667V16H3c-0.276,0-0.5,0.225-0.5,0.5V21.5z"/>
<rect x="11.5" y="3" style="fill:#333333;" width="1" height="5"/>
<path style="fill:#333333;" d="M16.776,7.167c-0.616,0-1.304-0.251-2.054-0.751c-0.705-0.471-1.314-0.659-1.76-0.553
	c-0.362,0.089-0.514,0.357-0.52,0.369L11.5,6V2.882l0.053-0.105c0.034-0.068,0.354-0.667,1.136-0.875
	c0.746-0.196,1.614,0.034,2.589,0.683c0.706,0.471,1.316,0.661,1.76,0.553c0.362-0.089,0.514-0.357,0.52-0.369L18.5,3v3.118
	l-0.053,0.105c-0.034,0.068-0.354,0.667-1.136,0.875C17.14,7.145,16.961,7.167,16.776,7.167z M13.224,4.833
	c0.616,0,1.304,0.251,2.054,0.751c0.706,0.471,1.316,0.66,1.76,0.553c0.241-0.06,0.39-0.199,0.463-0.288V4.039
	c-0.06,0.022-0.122,0.043-0.188,0.061c-0.746,0.197-1.614-0.033-2.589-0.683c-0.705-0.471-1.314-0.661-1.76-0.553
	c-0.241,0.06-0.39,0.199-0.463,0.288v1.811c0.06-0.022,0.122-0.043,0.188-0.061C12.86,4.855,13.039,4.833,13.224,4.833z"/>
<polygon style="fill:#333333;" points="14.5,22 13.5,22 13.5,16 10.5,16 10.5,22 9.5,22 9.5,15 14.5,15 "/>
<rect x="9" y="21.5" style="fill:#333333;" width="6" height="1"/>
</svg>






