<?xml version="1.0" encoding="iso-8859-1"?>
<svg version="1.1" id="&#x56FE;&#x5C42;_1" xmlns="http://www.w3.org/2000/svg" xmlns:xlink="http://www.w3.org/1999/xlink" x="0px"
	 y="0px" viewBox="0 0 24 24" style="enable-background:new 0 0 24 24;" xml:space="preserve">
<path style="fill:#333333;" d="M20,22H4c-1.103,0-2-0.897-2-2V4c0-1.103,0.897-2,2-2h16c1.103,0,2,0.897,2,2v16
	C22,21.103,21.103,22,20,22z M4,3C3.449,3,3,3.449,3,4v16c0,0.552,0.449,1,1,1h16c0.552,0,1-0.448,1-1V4c0-0.551-0.448-1-1-1H4z"/>
<path style="fill:#333333;" d="M9.916,14.777l-0.832-0.555c0.886-1.329,0.886-3.116,0-4.445l0.832-0.555
	C11.023,10.884,11.023,13.116,9.916,14.777z"/>
<polygon style="fill:#333333;" points="17.723,17.416 9.599,12 17.723,6.584 18.277,7.416 11.401,12 18.277,16.584 "/>
<path style="fill:#333333;" d="M8,10.5c-1.378,0-2.5-1.122-2.5-2.5S6.622,5.5,8,5.5s2.5,1.122,2.5,2.5S9.378,10.5,8,10.5z M8,6.5
	C7.173,6.5,6.5,7.173,6.5,8S7.173,9.5,8,9.5S9.5,8.827,9.5,8S8.827,6.5,8,6.5z"/>
<path style="fill:#333333;" d="M8,18.5c-1.378,0-2.5-1.121-2.5-2.5s1.122-2.5,2.5-2.5s2.5,1.121,2.5,2.5S9.378,18.5,8,18.5z M8,14.5
	c-0.827,0-1.5,0.673-1.5,1.5s0.673,1.5,1.5,1.5s1.5-0.673,1.5-1.5S8.827,14.5,8,14.5z"/>
</svg>






