<?xml version="1.0" encoding="iso-8859-1"?>
<svg version="1.1" id="&#x56FE;&#x5C42;_1" xmlns="http://www.w3.org/2000/svg" xmlns:xlink="http://www.w3.org/1999/xlink" x="0px"
	 y="0px" viewBox="0 0 24 24" style="enable-background:new 0 0 24 24;" xml:space="preserve">
<path style="fill:#333333;" d="M8.5,6h-1c0-1.378-1.122-2.5-2.5-2.5S2.5,4.622,2.5,6h-1c0-1.93,1.57-3.5,3.5-3.5S8.5,4.07,8.5,6z"/>
<path style="fill:#333333;" d="M14.5,6h-1c0-1.378-1.121-2.5-2.5-2.5C9.622,3.5,8.5,4.622,8.5,6h-1c0-1.93,1.57-3.5,3.5-3.5
	S14.5,4.07,14.5,6z"/>
<path style="fill:#333333;" d="M17,20.5c-1.93,0-3.5-1.57-3.5-3.5h1c0,1.379,1.121,2.5,2.5,2.5s2.5-1.121,2.5-2.5h1
	C20.5,18.93,18.93,20.5,17,20.5z"/>
<rect x="1.5" y="6" style="fill:#333333;" width="1" height="9"/>
<rect x="7.5" y="6" style="fill:#333333;" width="1" height="9"/>
<rect x="13.5" y="6" style="fill:#333333;" width="1" height="11"/>
<rect x="19.5" y="11.5" style="fill:#333333;" width="1" height="5.5"/>
<polygon style="fill:#333333;" points="21.646,13.854 20,12.207 18.354,13.854 17.646,13.146 20,10.793 22.354,13.146 "/>
</svg>






