<?xml version="1.0" encoding="iso-8859-1"?>
<svg version="1.1" id="&#x56FE;&#x5C42;_1" xmlns="http://www.w3.org/2000/svg" xmlns:xlink="http://www.w3.org/1999/xlink" x="0px"
	 y="0px" viewBox="0 0 24 24" style="enable-background:new 0 0 24 24;" xml:space="preserve">
<path style="fill:#333333;" d="M20.5,20.5h-17c-1.103,0-2-0.897-2-2v-11c0-1.103,0.897-2,2-2h17c1.103,0,2,0.897,2,2v11
	C22.5,19.603,21.603,20.5,20.5,20.5z M3.5,6.5c-0.551,0-1,0.449-1,1v11c0,0.552,0.449,1,1,1h17c0.552,0,1-0.448,1-1v-11
	c0-0.551-0.448-1-1-1H3.5z"/>
<rect x="6.5" y="3" style="fill:#333333;" width="1" height="3"/>
<rect x="16.5" y="3" style="fill:#333333;" width="1" height="3"/>
<polygon style="fill:#333333;" points="8,16.5 7,16.5 7,10.753 5.474,12.346 4.752,11.654 7.14,9.163 8,9.508 "/>
<rect x="11.5" y="6" style="fill:#333333;" width="1" height="14"/>
<path style="fill:#333333;" d="M17,17c-1.313,0-2-2.013-2-4c0-1.988,0.687-4,2-4s2,2.012,2,4C19,14.987,18.313,17,17,17z M17,10
	c-0.353,0-1,1.139-1,3c0,1.861,0.647,3,1,3s1-1.139,1-3C18,11.139,17.353,10,17,10z"/>
<rect x="10.5" y="5.5" style="fill:#333333;" width="3" height="1"/>
<rect x="10.5" y="19.5" style="fill:#333333;" width="3" height="1"/>
</svg>






