<?xml version="1.0" encoding="iso-8859-1"?>
<svg version="1.1" id="&#x56FE;&#x5C42;_1" xmlns="http://www.w3.org/2000/svg" xmlns:xlink="http://www.w3.org/1999/xlink" x="0px"
	 y="0px" viewBox="0 0 24 24" style="enable-background:new 0 0 24 24;" xml:space="preserve">
<path style="fill:#333333;" d="M16.5,22.5h-9v-6.435l1.5-1.75V11.5h6v2.801c0.207,0.228,0.424,0.493,0.639,0.76
	c0.244,0.303,0.487,0.604,0.718,0.839l0.144,0.146V22.5z M8.5,21.5h7v-5.051c-0.207-0.228-0.424-0.493-0.639-0.76
	c-0.244-0.303-0.487-0.604-0.718-0.839L14,14.705V12.5h-4v2.185l-1.5,1.75V21.5z"/>
<path style="fill:#333333;" d="M14,12.5h-4V6.651L8.948,5.074L10.14,1.5h3.721l1.191,3.574L14,6.651V12.5z M11,11.5h2V6.349
	l0.948-1.422L13.14,2.5H10.86l-0.809,2.426L11,6.349V11.5z"/>
</svg>






