<?xml version="1.0" encoding="iso-8859-1"?>
<svg version="1.1" id="&#x56FE;&#x5C42;_1" xmlns="http://www.w3.org/2000/svg" xmlns:xlink="http://www.w3.org/1999/xlink" x="0px"
	 y="0px" viewBox="0 0 24 24" style="enable-background:new 0 0 24 24;" xml:space="preserve">
<polygon style="fill:#333333;" points="22.5,12 21.5,12 21.5,2.5 2.5,2.5 2.5,12 1.5,12 1.5,1.5 22.5,1.5 "/>
<path style="fill:#333333;" d="M5,22.5c-1.93,0-3.5-1.57-3.5-3.5s1.57-3.5,3.5-3.5s3.5,1.57,3.5,3.5S6.93,22.5,5,22.5z M5,16.5
	c-1.378,0-2.5,1.121-2.5,2.5s1.122,2.5,2.5,2.5s2.5-1.121,2.5-2.5S6.378,16.5,5,16.5z"/>
<path style="fill:#333333;" d="M5,22.5c-0.935,0-1.814-0.364-2.475-1.025l0.707-0.707c0.944,0.944,2.591,0.946,3.536,0
	c0.314-0.314,0.988-1.278,2.21-3.028c1.593-2.28,4.26-6.097,8.619-12.035l0.807,0.592c-4.353,5.929-7.015,9.739-8.605,12.017
	c-1.337,1.913-1.947,2.786-2.323,3.162C6.814,22.136,5.935,22.5,5,22.5z"/>
<path style="fill:#333333;" d="M19,22.5c-1.93,0-3.5-1.57-3.5-3.5s1.57-3.5,3.5-3.5s3.5,1.57,3.5,3.5S20.93,22.5,19,22.5z M19,16.5
	c-1.379,0-2.5,1.121-2.5,2.5s1.121,2.5,2.5,2.5s2.5-1.121,2.5-2.5S20.379,16.5,19,16.5z"/>
<path style="fill:#333333;" d="M19,22.5c-0.936,0-1.814-0.364-2.475-1.025c-0.376-0.376-0.986-1.249-2.323-3.162
	c-1.591-2.277-4.253-6.088-8.605-12.017l0.806-0.592c4.359,5.938,7.026,9.755,8.619,12.035c1.224,1.75,1.896,2.714,2.211,3.028
	c0.943,0.945,2.592,0.945,3.535,0l0.707,0.707C20.814,22.136,19.936,22.5,19,22.5z"/>
</svg>






