<?xml version="1.0" encoding="iso-8859-1"?>
<svg version="1.1" id="&#x56FE;&#x5C42;_1" xmlns="http://www.w3.org/2000/svg" xmlns:xlink="http://www.w3.org/1999/xlink" x="0px"
	 y="0px" viewBox="0 0 24 24" style="enable-background:new 0 0 24 24;" xml:space="preserve">
<path style="fill:#333333;" d="M18.5,22h-13C4.673,22,4,21.327,4,20.5v-9h2v-2H4V6.312l3.325-3.8C7.61,2.187,8.021,2,8.454,2H18.5
	C19.327,2,20,2.673,20,3.5v17C20,21.327,19.327,22,18.5,22z M5,12.5v8C5,20.775,5.224,21,5.5,21h13c0.275,0,0.5-0.225,0.5-0.5v-17
	C19,3.224,18.775,3,18.5,3H8.454C8.31,3,8.172,3.062,8.078,3.17L5,6.688V8.5h2v4H5z"/>
<rect x="16" y="5.5" style="fill:#333333;" width="1" height="2"/>
<rect x="10" y="5.5" style="fill:#333333;" width="1" height="2"/>
<rect x="13" y="5.5" style="fill:#333333;" width="1" height="2"/>
</svg>






