<?xml version="1.0" encoding="iso-8859-1"?>
<svg version="1.1" id="&#x56FE;&#x5C42;_1" xmlns="http://www.w3.org/2000/svg" xmlns:xlink="http://www.w3.org/1999/xlink" x="0px"
	 y="0px" viewBox="0 0 24 24" style="enable-background:new 0 0 24 24;" xml:space="preserve">
<path style="fill:#333333;" d="M20.5,22.5h-17C2.673,22.5,2,21.827,2,21v-2.5C2,17.673,2.673,17,3.5,17h17
	c0.827,0,1.5,0.673,1.5,1.5V21C22,21.827,21.327,22.5,20.5,22.5z M3.5,18C3.224,18,3,18.225,3,18.5V21c0,0.275,0.224,0.5,0.5,0.5h17
	c0.275,0,0.5-0.225,0.5-0.5v-2.5c0-0.275-0.225-0.5-0.5-0.5H3.5z"/>
<path style="fill:#333333;" d="M20.5,22.5h-17C2.673,22.5,2,21.827,2,21v-5.5C2,14.673,2.673,14,3.5,14h17
	c0.827,0,1.5,0.673,1.5,1.5V21C22,21.827,21.327,22.5,20.5,22.5z M3.5,15C3.224,15,3,15.225,3,15.5V21c0,0.275,0.224,0.5,0.5,0.5h17
	c0.275,0,0.5-0.225,0.5-0.5v-5.5c0-0.275-0.225-0.5-0.5-0.5H3.5z"/>
<path style="fill:#333333;" d="M17.71,15H6.291l2.62-7.336C9.053,7.267,9.431,7,9.853,7h4.295c0.423,0,0.802,0.268,0.942,0.666
	L17.71,15z M7.709,14h8.581l-2.143-6H9.853L9.381,7.832L9.852,8L7.709,14z"/>
<path style="fill:#333333;" d="M13.8,7.9h-3.6C8.436,7.9,7,6.464,7,4.7c0-1.765,1.436-3.2,3.2-3.2h3.6c1.765,0,3.2,1.436,3.2,3.2
	C17,6.464,15.564,7.9,13.8,7.9z M10.2,2.5C8.987,2.5,8,3.487,8,4.7c0,1.213,0.987,2.2,2.2,2.2h3.6c1.213,0,2.2-0.987,2.2-2.2
	c0-1.213-0.987-2.2-2.2-2.2H10.2z"/>
</svg>






