<?xml version="1.0" encoding="iso-8859-1"?>
<svg version="1.1" id="&#x56FE;&#x5C42;_1" xmlns="http://www.w3.org/2000/svg" xmlns:xlink="http://www.w3.org/1999/xlink" x="0px"
	 y="0px" viewBox="0 0 24 24" style="enable-background:new 0 0 24 24;" xml:space="preserve">
<path style="fill:#333333;" d="M10,21c-3.033,0-5.5-2.468-5.5-5.5c0-2.416,1.547-4.524,3.85-5.248l0.3,0.954
	C6.766,11.798,5.5,13.523,5.5,15.5c0,2.481,2.019,4.5,4.5,4.5c1.429,0,2.741-0.656,3.601-1.8c0.108-0.145,0.207-0.295,0.298-0.45
	l0.865,0.5c-0.11,0.192-0.232,0.376-0.364,0.551C13.351,20.198,11.747,21,10,21z"/>
<path style="fill:#333333;" d="M19.5,21.5h-1V15h-7V7.772l0.68,0.261C15.385,9.266,17.05,9.5,19,9.5v1
	c-1.881,0-3.589-0.217-6.5-1.279V14h7V21.5z"/>
<path style="fill:#333333;" d="M12,6.5c-1.378,0-2.5-1.122-2.5-2.5s1.122-2.5,2.5-2.5c1.379,0,2.5,1.122,2.5,2.5S13.379,6.5,12,6.5z
	 M12,2.5c-0.827,0-1.5,0.673-1.5,1.5s0.673,1.5,1.5,1.5s1.5-0.673,1.5-1.5S12.827,2.5,12,2.5z"/>
</svg>






