<?xml version="1.0" encoding="iso-8859-1"?>
<svg version="1.1" id="&#x56FE;&#x5C42;_1" xmlns="http://www.w3.org/2000/svg" xmlns:xlink="http://www.w3.org/1999/xlink" x="0px"
	 y="0px" viewBox="0 0 24 24" style="enable-background:new 0 0 24 24;" xml:space="preserve">
<path style="fill:#333333;" d="M21.5,13h-1v-2c0-4.687-3.813-8.5-8.5-8.5c-4.687,0-8.5,3.813-8.5,8.5v2h-1v-2
	c0-5.238,4.262-9.5,9.5-9.5s9.5,4.262,9.5,9.5V13z"/>
<path style="fill:#333333;" d="M16.5,13.5h-1V6c0-1.93-1.57-3.5-3.5-3.5S8.5,4.07,8.5,6v7.5h-1V6c0-2.481,2.019-4.5,4.5-4.5
	s4.5,2.019,4.5,4.5V13.5z"/>
<path style="fill:#333333;" d="M15,22.5c-1.93,0-3.5-1.57-3.5-3.5v-7h1v7c0,1.379,1.121,2.5,2.5,2.5s2.5-1.121,2.5-2.5v-1.444h1V19
	C18.5,20.93,16.93,22.5,15,22.5z"/>
<rect x="6" y="11.5" style="fill:#333333;" width="15" height="1"/>
</svg>






