<?xml version="1.0" encoding="iso-8859-1"?>
<svg version="1.1" id="&#x56FE;&#x5C42;_1" xmlns="http://www.w3.org/2000/svg" xmlns:xlink="http://www.w3.org/1999/xlink" x="0px"
	 y="0px" viewBox="0 0 24 24" style="enable-background:new 0 0 24 24;" xml:space="preserve">
<rect x="11.5" y="13" style="fill:#333333;" width="1" height="8"/>
<path style="fill:#333333;" d="M12.908,14.456c-0.344,0-0.669-0.126-0.928-0.361C11.675,13.818,11.5,13.419,11.5,13V8.814
	c0-0.18,0.033-0.36,0.096-0.523c1.583-4.099,5.317-4.708,8.393-4.781c0.398-0.009,0.8,0.151,1.081,0.444
	c0.278,0.288,0.424,0.682,0.399,1.08c-0.465,7.806-6.046,9.185-8.424,9.416C13,14.453,12.954,14.456,12.908,14.456z M20.024,4.509
	c-0.004,0-0.008,0-0.012,0c-2.937,0.069-6.121,0.616-7.483,4.142C12.51,8.701,12.5,8.757,12.5,8.814V13
	c0,0.138,0.056,0.267,0.151,0.354c0.059,0.053,0.164,0.116,0.298,0.1c2.123-0.205,7.104-1.443,7.522-8.479v0
	c0.007-0.122-0.036-0.237-0.121-0.326C20.265,4.558,20.149,4.509,20.024,4.509z"/>
<path style="fill:#333333;" d="M11.046,13.43c-0.048,0-0.096-0.003-0.144-0.008c-7.328-0.736-8.337-5.418-8.398-9.415
	C2.498,3.596,2.665,3.2,2.961,2.92c0.293-0.276,0.683-0.411,1.074-0.382c5.856,0.43,7.969,4.293,8.333,5.063
	C12.456,7.786,12.5,7.988,12.5,8.203v3.752c0,0.42-0.178,0.822-0.488,1.103C11.746,13.298,11.4,13.43,11.046,13.43z M3.931,3.534
	c-0.105,0-0.205,0.04-0.284,0.114C3.555,3.735,3.502,3.861,3.504,3.992c0.058,3.804,0.993,7.781,7.499,8.436
	c0.125,0.01,0.245-0.027,0.339-0.112c0.101-0.091,0.158-0.223,0.158-0.36V8.203c0-0.065-0.012-0.126-0.035-0.175
	c-0.891-1.884-3.39-4.192-7.502-4.494l0,0C3.952,3.534,3.941,3.534,3.931,3.534z"/>
</svg>






