<?xml version="1.0" encoding="iso-8859-1"?>
<svg version="1.1" id="&#x56FE;&#x5C42;_1" xmlns="http://www.w3.org/2000/svg" xmlns:xlink="http://www.w3.org/1999/xlink" x="0px"
	 y="0px" viewBox="0 0 24 24" style="enable-background:new 0 0 24 24;" xml:space="preserve">
<path style="fill:#333333;" d="M6.5,6.5h-5v-5h5V6.5z M2.5,5.5h3v-3h-3V5.5z"/>
<path style="fill:#333333;" d="M22.5,22.5h-5v-5h5V22.5z M18.5,21.5h3v-3h-3V21.5z"/>
<path style="fill:#333333;" d="M6.5,22.5h-5v-5h5V22.5z M2.5,21.5h3v-3h-3V21.5z"/>
<path style="fill:#333333;" d="M22.5,6.5h-5v-5h5V6.5z M18.5,5.5h3v-3h-3V5.5z"/>
<rect x="3.5" y="6" style="fill:#333333;" width="1" height="12"/>
<rect x="19.5" y="6" style="fill:#333333;" width="1" height="12"/>
<rect x="6" y="3.5" style="fill:#333333;" width="12" height="1"/>
<rect x="6" y="19.5" style="fill:#333333;" width="12" height="1"/>
</svg>






