<?xml version="1.0" encoding="iso-8859-1"?>
<svg version="1.1" id="&#x56FE;&#x5C42;_1" xmlns="http://www.w3.org/2000/svg" xmlns:xlink="http://www.w3.org/1999/xlink" x="0px"
	 y="0px" viewBox="0 0 24 24" style="enable-background:new 0 0 24 24;" xml:space="preserve">
<path style="fill:#333333;" d="M6.5,6.5h-5v-5h5V6.5z M2.5,5.5h3v-3h-3V5.5z"/>
<path style="fill:#333333;" d="M22.5,22.5h-5v-5h5V22.5z M18.5,21.5h3v-3h-3V21.5z"/>
<path style="fill:#333333;" d="M6.5,22.5h-5v-5h5V22.5z M2.5,21.5h3v-3h-3V21.5z"/>
<path style="fill:#333333;" d="M22.5,6.5h-5v-5h5V6.5z M18.5,5.5h3v-3h-3V5.5z"/>
<path style="fill:#333333;" d="M4.5,18h-1v-0.5h1V18z M4.5,15h-1v-0.5h1V15z M4.5,12h-1v-0.5h1V12z M4.5,9h-1V8.5h1V9z"/>
<path style="fill:#333333;" d="M20.5,18h-1v-0.5h1V18z M20.5,15h-1v-0.5h1V15z M20.5,12h-1v-0.5h1V12z M20.5,9h-1V8.5h1V9z"/>
<path style="fill:#333333;" d="M15.5,4.5H15v-1h0.5V4.5z M12.5,4.5H12v-1h0.5V4.5z M9.5,4.5H9v-1h0.5V4.5z M6.5,4.5H6v-1h0.5V4.5z"
	/>
<path style="fill:#333333;" d="M15.5,20.5H15v-1h0.5V20.5z M12.5,20.5H12v-1h0.5V20.5z M9.5,20.5H9v-1h0.5V20.5z M6.5,20.5H6v-1h0.5
	V20.5z"/>
</svg>






