<?xml version="1.0" encoding="iso-8859-1"?>
<svg version="1.1" id="&#x56FE;&#x5C42;_1" xmlns="http://www.w3.org/2000/svg" xmlns:xlink="http://www.w3.org/1999/xlink" x="0px"
	 y="0px" viewBox="0 0 24 24" style="enable-background:new 0 0 24 24;" xml:space="preserve">
<g>
	<defs>
		<rect id="SVGID_1_" width="24" height="24"/>
	</defs>
	<clipPath id="SVGID_00000166662024058009838710000004128443461103325063_">
		<use xlink:href="#SVGID_1_"  style="overflow:visible;"/>
	</clipPath>
	<g style="clip-path:url(#SVGID_00000166662024058009838710000004128443461103325063_);">
		<path style="fill:#333333;" d="M18.938,15.379l-0.105-0.994c0.081-0.01,2.018-0.252,2.084-2.137
			c0.012-0.337-0.075-0.68-0.225-1.003c-0.089,0.088-0.18,0.171-0.27,0.248c-0.91,0.773-1.909,1.039-2.606,0.699
			c-0.325-0.159-0.863-0.595-0.814-1.728c0.083-1.9,1.285-1.995,1.66-1.987c0.672,0.026,1.437,0.45,2.057,1.082
			c0.438-0.808,0.659-1.843,0.317-2.979c-0.405-1.345-1.119-2.266-2.121-2.737c-1.342-0.631-2.999-0.358-4.103,0.107l-0.389-0.921
			c1.303-0.548,3.277-0.862,4.917-0.092c1.27,0.597,2.162,1.726,2.652,3.354c0.484,1.609,0.073,3.057-0.617,4.112
			c0.35,0.578,0.563,1.231,0.541,1.88C21.838,14.491,19.934,15.273,18.938,15.379z M18.581,9.475c-0.171,0-0.539,0.065-0.58,1.031
			c-0.011,0.242,0.008,0.667,0.254,0.787c0.271,0.131,0.88-0.019,1.52-0.563c0.118-0.1,0.234-0.212,0.349-0.336
			c-0.476-0.532-1.068-0.901-1.501-0.917C18.61,9.476,18.596,9.475,18.581,9.475z"/>
		<path style="fill:#333333;" d="M5.489,13.219c-0.519,0-1.024-0.27-1.302-0.75l-2-3.464C1.774,8.289,2.021,7.37,2.737,6.956
			l9.526-5.5c0.718-0.413,1.636-0.166,2.049,0.549l2,3.464c0.201,0.347,0.254,0.751,0.15,1.138c-0.104,0.387-0.353,0.71-0.699,0.911
			l-9.526,5.5C6.001,13.154,5.744,13.219,5.489,13.219z M3.237,7.822C2.998,7.959,2.916,8.266,3.054,8.505l2,3.464
			c0.137,0.238,0.443,0.319,0.683,0.184l9.526-5.5c0.116-0.067,0.198-0.175,0.233-0.304c0.034-0.129,0.017-0.264-0.05-0.379
			l-2-3.464c-0.139-0.239-0.447-0.322-0.684-0.183L3.237,7.822z"/>
		
			<rect x="12.125" y="9.333" transform="matrix(0.866 -0.5001 0.5001 0.866 -4.8501 8.0663)" style="fill:#333333;" width="1" height="7.5"/>
		<path style="fill:#333333;" d="M16.253,21.362c-0.174,0-0.349-0.023-0.521-0.069c-0.516-0.138-0.947-0.469-1.214-0.932l-1-1.732
			c-0.268-0.462-0.339-1-0.201-1.517c0.139-0.517,0.47-0.948,0.933-1.215l0,0l0,0l0,0c0.957-0.553,2.181-0.223,2.731,0.731l1,1.732
			c0.552,0.955,0.223,2.181-0.731,2.731C16.941,21.271,16.6,21.362,16.253,21.362z M15.248,16.629c-0.174,0-0.344,0.045-0.498,0.134
			l0,0c-0.231,0.134-0.397,0.35-0.467,0.608c-0.068,0.258-0.033,0.526,0.101,0.757l1,1.733c0.276,0.477,0.886,0.641,1.366,0.366
			c0.478-0.276,0.642-0.889,0.366-1.366l-1-1.732c-0.134-0.231-0.35-0.396-0.607-0.466C15.422,16.641,15.335,16.629,15.248,16.629z"
			/>
		
			<rect x="5.5" y="2.84" transform="matrix(0.8661 -0.4999 0.4999 0.8661 -0.7322 3.9466)" style="fill:#333333;" width="3" height="1"/>
		
			<rect x="10.75" y="11.933" transform="matrix(0.8658 -0.5003 0.5003 0.8658 -4.5771 7.7972)" style="fill:#333333;" width="3" height="1"/>
	</g>
</g>
</svg>






