<?xml version="1.0" encoding="iso-8859-1"?>
<svg version="1.1" id="&#x56FE;&#x5C42;_1" xmlns="http://www.w3.org/2000/svg" xmlns:xlink="http://www.w3.org/1999/xlink" x="0px"
	 y="0px" viewBox="0 0 24 24" style="enable-background:new 0 0 24 24;" xml:space="preserve">
<path style="fill:#333333;" d="M21.184,20.5H2.816C2.09,20.5,1.5,19.909,1.5,19.184V4.816C1.5,4.09,2.09,3.5,2.816,3.5h18.367
	c0.726,0,1.316,0.59,1.316,1.316v14.367C22.5,19.909,21.909,20.5,21.184,20.5z M2.816,4.5C2.642,4.5,2.5,4.642,2.5,4.816v14.367
	c0,0.175,0.142,0.316,0.316,0.316h18.367c0.175,0,0.316-0.142,0.316-0.316V4.816c0-0.174-0.142-0.316-0.316-0.316H2.816z"/>
<path style="fill:#333333;" d="M6.208,15.759c-0.615,0-1.204-0.336-1.622-0.952l0.827-0.561c0.291,0.429,0.669,0.598,1.048,0.467
	c0.355-0.125,0.715-0.541,0.665-1.156c-0.041-0.501-0.375-0.764-0.917-1.149c-0.558-0.397-1.251-0.893-1.333-1.882
	C4.795,9.546,5.341,8.649,6.205,8.344c0.813-0.287,1.66,0.038,2.209,0.849L7.586,9.755c-0.292-0.43-0.675-0.601-1.049-0.468
	c-0.356,0.125-0.716,0.541-0.665,1.156c0.041,0.501,0.375,0.763,0.917,1.149c0.558,0.398,1.251,0.893,1.333,1.882
	c0.081,0.979-0.466,1.877-1.329,2.182C6.6,15.725,6.402,15.759,6.208,15.759z"/>
<polygon style="fill:#333333;" points="13,16 10.5,16 10.5,8.5 13,8.5 13,9.5 11.5,9.5 11.5,15 13,15 "/>
<rect x="11" y="12" style="fill:#333333;" width="2" height="1"/>
<path style="fill:#333333;" d="M17.5,16c-1.103,0-2-0.897-2-2v-3.5c0-1.103,0.897-2,2-2s2,0.897,2,2V14
	C19.5,15.103,18.603,16,17.5,16z M17.5,9.5c-0.552,0-1,0.449-1,1V14c0,0.552,0.448,1,1,1s1-0.448,1-1v-3.5
	C18.5,9.949,18.052,9.5,17.5,9.5z"/>
</svg>






