<?xml version="1.0" encoding="iso-8859-1"?>
<svg version="1.1" id="&#x56FE;&#x5C42;_1" xmlns="http://www.w3.org/2000/svg" xmlns:xlink="http://www.w3.org/1999/xlink" x="0px"
	 y="0px" viewBox="0 0 24 24" style="enable-background:new 0 0 24 24;" xml:space="preserve">
<path style="fill:#333333;" d="M14.5,7.5c-1.654,0-3-1.346-3-3s1.346-3,3-3s3,1.346,3,3S16.154,7.5,14.5,7.5z M14.5,2.5
	c-1.103,0-2,0.897-2,2s0.897,2,2,2s2-0.897,2-2S15.603,2.5,14.5,2.5z"/>
<path style="fill:#333333;" d="M15.181,22.158l-1.67-5.02c-0.033-0.095-0.09-0.178-0.163-0.234l-3.803-3.013l-0.13-0.628l2.145-4
	l0.881,0.473l-1.947,3.632l3.473,2.75c0.221,0.171,0.392,0.413,0.491,0.696l1.673,5.027L15.181,22.158z"/>
<path style="fill:#333333;" d="M5.166,20.777l-0.832-0.555c0.246-0.369,0.632-0.832,1.08-1.367c0.482-0.578,1.029-1.233,1.429-1.817
	l2.599-3.819l0.827,0.562l-2.6,3.82c-0.427,0.625-0.99,1.3-1.487,1.895C5.771,19.988,5.382,20.453,5.166,20.777z"/>
<path style="fill:#333333;" d="M17.537,12.55c-0.275,0-0.54-0.068-0.771-0.198l-1.643-0.96c-1.951-1.143-4.078-1.927-6.321-2.33
	L7.538,8.838L6.433,10.75l-0.866-0.5l1.28-2.215l0.52-0.242l1.61,0.285c2.361,0.424,4.598,1.248,6.651,2.451l1.634,0.955
	c0.075,0.042,0.171,0.066,0.269,0.066l3.463-0.05l0.014,1L17.537,12.55z"/>
<path style="fill:#333333;" d="M5.446,15.971l-4.053-2.34l2.75-4.763l4.053,2.34L5.446,15.971z M2.759,13.266l2.32,1.34l1.75-3.031
	l-2.32-1.34L2.759,13.266z"/>
</svg>






