<?xml version="1.0" encoding="iso-8859-1"?>
<svg version="1.1" id="&#x56FE;&#x5C42;_1" xmlns="http://www.w3.org/2000/svg" xmlns:xlink="http://www.w3.org/1999/xlink" x="0px"
	 y="0px" viewBox="0 0 24 24" style="enable-background:new 0 0 24 24;" xml:space="preserve">
<path style="fill:#333333;" d="M14.531,22.205l-0.149-0.467C14.05,20.698,13.093,20,12,20c-1.092,0-2.049,0.698-2.382,1.738
	l-0.149,0.467L9,22.065C7.27,21.55,5.691,20.587,4.434,19.28l-0.312-0.324l0.29-0.345C4.791,18.161,5,17.589,5,17
	c0-1.379-1.122-2.5-2.5-2.5c-0.083,0-0.166,0.004-0.247,0.012l-0.449,0.045l-0.09-0.441C1.572,13.425,1.5,12.713,1.5,12
	c0-1.075,0.162-2.135,0.481-3.15l0.114-0.363L2.476,8.5l0,0C3.879,8.5,5,7.378,5,6c0-0.387-0.086-0.759-0.256-1.104L4.58,4.562
	l0.272-0.253c1.229-1.144,2.73-1.984,4.341-2.43l0.393-0.109l0.186,0.364C10.201,2.977,11.055,3.5,12,3.5
	c0.945,0,1.799-0.523,2.229-1.366l0.186-0.364l0.394,0.109c1.61,0.446,3.111,1.286,4.341,2.43l0.272,0.254l-0.165,0.333
	C19.086,5.241,19,5.612,19,6c0,1.378,1.121,2.5,2.5,2.5h0.367l0.151,0.35C22.338,9.865,22.5,10.925,22.5,12
	c0,0.71-0.071,1.422-0.213,2.114l-0.091,0.442l-0.449-0.045C21.666,14.504,21.584,14.5,21.5,14.5c-1.379,0-2.5,1.121-2.5,2.5
	c0,0.589,0.209,1.161,0.588,1.611l0.291,0.345l-0.312,0.324c-1.257,1.307-2.835,2.27-4.565,2.785L14.531,22.205z M5.451,18.882
	c0.975,0.929,2.137,1.641,3.401,2.085C9.432,19.772,10.641,19,12,19c1.359,0,2.569,0.772,3.147,1.967
	c1.265-0.444,2.427-1.157,3.401-2.085C18.192,18.322,18,17.669,18,17c0-1.891,1.507-3.436,3.382-3.498
	C21.46,13.007,21.5,12.503,21.5,12c0-0.858-0.113-1.705-0.338-2.522C19.364,9.286,18,7.799,18,6c0-0.413,0.069-0.812,0.208-1.191
	c-0.965-0.833-2.095-1.468-3.303-1.856C14.26,3.917,13.181,4.5,12,4.5S9.74,3.917,9.094,2.953C7.886,3.341,6.757,3.976,5.792,4.809
	C5.93,5.189,6,5.588,6,6c0,1.816-1.391,3.314-3.164,3.484C2.613,10.299,2.5,11.144,2.5,12c0,0.505,0.04,1.008,0.118,1.502
	C4.494,13.564,6,15.109,6,17C6,17.669,5.808,18.322,5.451,18.882z"/>
<path style="fill:#333333;" d="M12,16c-2.206,0-4-1.794-4-4c0-2.206,1.794-4,4-4c2.206,0,4,1.794,4,4C16,14.206,14.206,16,12,16z
	 M12,9c-1.654,0-3,1.346-3,3s1.346,3,3,3s3-1.346,3-3S13.654,9,12,9z"/>
</svg>






