<?xml version="1.0" encoding="iso-8859-1"?>
<svg version="1.1" id="&#x56FE;&#x5C42;_1" xmlns="http://www.w3.org/2000/svg" xmlns:xlink="http://www.w3.org/1999/xlink" x="0px"
	 y="0px" viewBox="0 0 24 24" style="enable-background:new 0 0 24 24;" xml:space="preserve">
<path style="fill:#333333;" d="M12,20.5H3.5c-1.103,0-2-0.897-2-2v-13c0-1.103,0.897-2,2-2h17c1.103,0,2,0.897,2,2v6.029h-1V5.5
	c0-0.551-0.448-1-1-1h-17c-0.551,0-1,0.449-1,1v13c0,0.552,0.449,1,1,1H12V20.5z"/>
<path style="fill:#333333;" d="M22.5,10.5h-21v-5c0-1.103,0.897-2,2-2h17c1.103,0,2,0.897,2,2V10.5z M2.5,9.5h19v-4
	c0-0.551-0.448-1-1-1h-17c-0.551,0-1,0.449-1,1V9.5z"/>
<circle style="fill:#333333;" cx="5" cy="7" r="1"/>
<circle style="fill:#333333;" cx="8" cy="7" r="1"/>
<path style="fill:#333333;" d="M18.5,19c-1.103,0-2-0.897-2-2s0.897-2,2-2s2,0.897,2,2S19.603,19,18.5,19z M18.5,16
	c-0.552,0-1,0.448-1,1s0.448,1,1,1s1-0.448,1-1S19.052,16,18.5,16z"/>
<rect x="18" y="18.5" style="fill:#333333;" width="1" height="2"/>
<rect x="18" y="13.5" style="fill:#333333;" width="1" height="2"/>
<rect x="15.335" y="17.75" transform="matrix(0.8658 -0.5003 0.5003 0.8658 -6.9396 10.6217)" style="fill:#333333;" width="2" height="0.999"/>
<rect x="19.665" y="15.25" transform="matrix(0.8658 -0.5003 0.5003 0.8658 -5.1077 12.4528)" style="fill:#333333;" width="2" height="0.999"/>
<rect x="15.835" y="14.75" transform="matrix(0.4999 -0.8661 0.8661 0.4999 -5.4718 22.0235)" style="fill:#333333;" width="0.999" height="2"/>
<rect x="20.165" y="17.25" transform="matrix(0.4999 -0.8661 0.8661 0.4999 -5.4716 27.0239)" style="fill:#333333;" width="0.999" height="2"/>
</svg>






