<?xml version="1.0" encoding="iso-8859-1"?>
<svg version="1.1" id="&#x56FE;&#x5C42;_1" xmlns="http://www.w3.org/2000/svg" xmlns:xlink="http://www.w3.org/1999/xlink" x="0px"
	 y="0px" viewBox="0 0 24 24" style="enable-background:new 0 0 24 24;" xml:space="preserve">
<path style="fill:#333333;" d="M13.863,22.5h-3.727v-2.484c-0.882-0.204-1.715-0.549-2.486-1.031l-1.757,1.758l-2.635-2.636
	l1.757-1.758c-0.481-0.77-0.827-1.603-1.031-2.485H1.5v-3.727h2.484C4.188,9.253,4.534,8.42,5.015,7.65L3.258,5.893l2.635-2.635
	L7.65,5.015c0.77-0.481,1.603-0.827,2.486-1.031V1.5h3.727v2.484c0.883,0.204,1.716,0.549,2.485,1.031l1.758-1.757l2.636,2.635
	L18.984,7.65c0.482,0.771,0.827,1.604,1.031,2.486H22.5v3.727h-2.484c-0.204,0.883-0.549,1.716-1.031,2.485l1.758,1.758
	l-2.636,2.636l-1.758-1.758c-0.77,0.482-1.603,0.827-2.485,1.031V22.5z M11.136,21.5h1.727v-2.312l0.412-0.073
	c1.03-0.184,1.99-0.581,2.853-1.183l0.344-0.239l1.635,1.635l1.222-1.222l-1.635-1.635l0.239-0.344
	c0.602-0.862,0.999-1.822,1.183-2.853l0.073-0.412H21.5v-1.727h-2.312l-0.073-0.412c-0.184-1.031-0.581-1.99-1.183-2.853
	l-0.239-0.344l1.635-1.635l-1.222-1.221l-1.635,1.635l-0.344-0.24c-0.861-0.601-1.821-0.999-2.853-1.183l-0.412-0.073V2.5h-1.727
	v2.312l-0.412,0.073C9.692,5.068,8.733,5.466,7.872,6.067l-0.344,0.24L5.893,4.672L4.672,5.893l1.635,1.635l-0.24,0.344
	c-0.601,0.861-0.999,1.821-1.183,2.853l-0.073,0.412H2.5v1.727h2.312l0.073,0.412c0.184,1.031,0.582,1.991,1.183,2.853l0.24,0.344
	l-1.635,1.635l1.221,1.222l1.635-1.635l0.344,0.239c0.862,0.602,1.822,0.999,2.853,1.183l0.412,0.073V21.5z"/>
<path style="fill:#333333;" d="M12,15c-1.654,0-3-1.346-3-3s1.346-3,3-3s3,1.346,3,3S13.654,15,12,15z M12,10c-1.103,0-2,0.897-2,2
	c0,1.103,0.897,2,2,2c1.103,0,2-0.897,2-2C14,10.897,13.103,10,12,10z"/>
</svg>






