<?xml version="1.0" encoding="iso-8859-1"?>
<svg version="1.1" id="&#x56FE;&#x5C42;_1" xmlns="http://www.w3.org/2000/svg" xmlns:xlink="http://www.w3.org/1999/xlink" x="0px"
	 y="0px" viewBox="0 0 24 24" style="enable-background:new 0 0 24 24;" xml:space="preserve">
<path style="fill:#333333;" d="M19.5,17.5h-15c-1.103,0-2-0.897-2-2v-11c0-1.103,0.897-2,2-2H12v1H4.5c-0.551,0-1,0.449-1,1v11
	c0,0.552,0.449,1,1,1h15c0.552,0,1-0.448,1-1V13h1v2.5C21.5,16.603,20.603,17.5,19.5,17.5z"/>
<rect x="11.5" y="17" style="fill:#333333;" width="1" height="4"/>
<rect x="7" y="20.5" style="fill:#333333;" width="10" height="1"/>
<path style="fill:#333333;" d="M18.5,8.5c-1.103,0-2-0.897-2-2s0.897-2,2-2s2,0.897,2,2S19.603,8.5,18.5,8.5z M18.5,5.5
	c-0.552,0-1,0.449-1,1s0.448,1,1,1s1-0.449,1-1S19.052,5.5,18.5,5.5z"/>
<rect x="18" y="8" style="fill:#333333;" width="1" height="2"/>
<rect x="18" y="3" style="fill:#333333;" width="1" height="2"/>
<rect x="15.335" y="7.25" transform="matrix(0.8661 -0.4999 0.4999 0.8661 -1.6867 9.2041)" style="fill:#333333;" width="2" height="1"/>
<rect x="19.665" y="4.75" transform="matrix(0.8661 -0.4999 0.4999 0.8661 0.1431 11.034)" style="fill:#333333;" width="2" height="1"/>
<rect x="15.835" y="4.25" transform="matrix(0.4999 -0.8661 0.8661 0.4999 3.6219 16.7727)" style="fill:#333333;" width="1" height="2"/>
<rect x="20.165" y="6.75" transform="matrix(0.4999 -0.8661 0.8661 0.4999 3.6221 21.773)" style="fill:#333333;" width="1" height="2"/>
</svg>






