<?xml version="1.0" encoding="iso-8859-1"?>
<svg version="1.1" id="&#x56FE;&#x5C42;_1" xmlns="http://www.w3.org/2000/svg" xmlns:xlink="http://www.w3.org/1999/xlink" x="0px"
	 y="0px" viewBox="0 0 24 24" style="enable-background:new 0 0 24 24;" xml:space="preserve">
<polygon style="fill:#333333;" points="2.379,19.325 1.621,18.675 3.341,16.667 1.341,14.333 3.341,12 1.341,9.667 3.341,7.333 
	1.62,5.325 2.38,4.675 4.659,7.333 2.659,9.667 4.659,12 2.659,14.333 4.659,16.667 "/>
<polygon style="fill:#333333;" points="21.62,19.325 19.342,16.667 21.342,14.333 19.342,12 21.342,9.667 19.342,7.333 21.62,4.675 
	22.38,5.325 20.658,7.333 22.658,9.667 20.658,12 22.658,14.333 20.658,16.667 22.38,18.675 "/>
<path style="fill:#333333;" d="M17.5,21.5h-11v-19h11V21.5z M7.5,20.5h9v-17h-9V20.5z"/>
<rect x="11" y="17" style="fill:#333333;" width="2" height="1"/>
</svg>






