<?xml version="1.0" encoding="iso-8859-1"?>
<svg version="1.1" id="&#x56FE;&#x5C42;_1" xmlns="http://www.w3.org/2000/svg" xmlns:xlink="http://www.w3.org/1999/xlink" x="0px"
	 y="0px" viewBox="0 0 24 24" style="enable-background:new 0 0 24 24;" xml:space="preserve">
<path style="fill:#333333;" d="M17.5,8.5c-1.654,0-3-1.346-3-3s1.346-3,3-3s3,1.346,3,3S19.154,8.5,17.5,8.5z M17.5,3.5
	c-1.103,0-2,0.897-2,2s0.897,2,2,2s2-0.897,2-2S18.603,3.5,17.5,3.5z"/>
<path style="fill:#333333;" d="M6.5,15c-1.654,0-3-1.346-3-3s1.346-3,3-3s3,1.346,3,3S8.154,15,6.5,15z M6.5,10
	c-1.103,0-2,0.897-2,2c0,1.103,0.897,2,2,2s2-0.897,2-2C8.5,10.897,7.603,10,6.5,10z"/>
<rect x="8.134" y="8.205" transform="matrix(0.8552 -0.5184 0.5184 0.8552 -2.7981 7.3955)" style="fill:#333333;" width="7.402" height="1"/>
<rect x="11.505" y="11.379" transform="matrix(0.5087 -0.861 0.861 0.5087 -7.234 17.8295)" style="fill:#333333;" width="1" height="7.748"/>
<path style="fill:#333333;" d="M17.5,21.5c-1.654,0-3-1.346-3-3s1.346-3,3-3s3,1.346,3,3S19.154,21.5,17.5,21.5z M17.5,16.5
	c-1.103,0-2,0.897-2,2s0.897,2,2,2s2-0.897,2-2S18.603,16.5,17.5,16.5z"/>
</svg>






