<?xml version="1.0" encoding="iso-8859-1"?>
<svg version="1.1" id="&#x56FE;&#x5C42;_1" xmlns="http://www.w3.org/2000/svg" xmlns:xlink="http://www.w3.org/1999/xlink" x="0px"
	 y="0px" viewBox="0 0 24 24" style="enable-background:new 0 0 24 24;" xml:space="preserve">
<path style="fill:#333333;" d="M19.158,21.182l-0.682-0.73c1.921-1.793,3.023-4.326,3.023-6.951C21.5,8.262,17.238,4,12,4
	s-9.5,4.262-9.5,9.5c0,2.625,1.102,5.158,3.023,6.951l-0.682,0.73C2.718,19.201,1.5,16.401,1.5,13.5C1.5,7.71,6.21,3,12,3
	c5.79,0,10.5,4.71,10.5,10.5C22.5,16.401,21.282,19.201,19.158,21.182z"/>
<path style="fill:#333333;" d="M7.228,18.622C5.812,17.302,5,15.436,5,13.5c0-3.86,3.14-7,7-7c3.859,0,7,3.14,7,7
	c0,1.935-0.812,3.802-2.228,5.121l-0.682-0.73C17.304,16.759,18,15.158,18,13.5c0-3.309-2.691-6-6-6s-6,2.691-6,6
	c0,1.658,0.696,3.259,1.91,4.39L7.228,18.622z"/>
<path style="fill:#333333;" d="M14.386,16.062l-0.682-0.732c0.514-0.478,0.796-1.128,0.796-1.829c0-1.379-1.121-2.5-2.5-2.5
	c-1.378,0-2.5,1.121-2.5,2.5c0,0.691,0.29,1.358,0.795,1.83l-0.682,0.73C8.906,15.401,8.5,14.468,8.5,13.5c0-1.93,1.57-3.5,3.5-3.5
	s3.5,1.57,3.5,3.5C15.5,14.468,15.094,15.401,14.386,16.062z"/>
</svg>






