<?xml version="1.0" encoding="iso-8859-1"?>
<svg version="1.1" id="&#x56FE;&#x5C42;_1" xmlns="http://www.w3.org/2000/svg" xmlns:xlink="http://www.w3.org/1999/xlink" x="0px"
	 y="0px" viewBox="0 0 24 24" style="enable-background:new 0 0 24 24;" xml:space="preserve">
<path style="fill:#333333;" d="M6.757,20.74c-0.896,0-1.792-0.341-2.475-1.022c-1.365-1.365-1.365-3.585,0-4.95l5.756-5.756
	c0.335-0.335,0.88-0.335,1.215,0l3.734,3.735c0.162,0.16,0.252,0.376,0.252,0.605c0,0.23-0.089,0.446-0.252,0.609l-5.756,5.757
	C8.55,20.399,7.654,20.74,6.757,20.74z M10.646,9.818L4.99,15.475c-0.975,0.975-0.975,2.562,0,3.536
	c0.975,0.975,2.561,0.975,3.536,0l5.656-5.657L10.646,9.818z M14.282,13.454L14.282,13.454L14.282,13.454z"/>
<path style="fill:#333333;" d="M16.656,13.843c-1.736,0-3.368-0.676-4.596-1.904c-2.534-2.534-2.534-6.658,0-9.192l0.392-0.392
	c0.355-0.357,0.979-0.357,1.339,0l7.854,7.854c0.368,0.37,0.368,0.97,0.001,1.338l-0.393,0.392
	C20.025,13.167,18.394,13.843,16.656,13.843z M13.084,3.062l-0.316,0.392c-2.145,2.145-2.145,5.633,0,7.778
	c1.039,1.039,2.42,1.611,3.889,1.611c1.47,0,2.851-0.572,3.89-1.611l0.354-0.354L13.084,3.062z"/>
<rect x="9.086" y="13.914" transform="matrix(0.7071 -0.7071 0.7071 0.7071 -7.3846 11.0001)" style="fill:#333333;" width="1" height="1"/>
<rect x="14.036" y="8.464" transform="matrix(0.7069 -0.7074 0.7074 0.7069 -2.4337 13.0562)" style="fill:#333333;" width="1" height="2"/>
</svg>






