<?xml version="1.0" encoding="iso-8859-1"?>
<svg version="1.1" id="&#x56FE;&#x5C42;_1" xmlns="http://www.w3.org/2000/svg" xmlns:xlink="http://www.w3.org/1999/xlink" x="0px"
	 y="0px" viewBox="0 0 24 24" style="enable-background:new 0 0 24 24;" xml:space="preserve">
<path style="fill:#333333;" d="M16,22.5H8c-0.827,0-1.5-0.673-1.5-1.5V9.5C6.5,8.673,7.173,8,8,8h8c0.827,0,1.5,0.673,1.5,1.5V21
	C17.5,21.827,16.827,22.5,16,22.5z M8,9C7.724,9,7.5,9.224,7.5,9.5V21c0,0.275,0.224,0.5,0.5,0.5h8c0.275,0,0.5-0.225,0.5-0.5V9.5
	C16.5,9.224,16.275,9,16,9H8z"/>
<path style="fill:#333333;" d="M15,9H9V5.5h6V9z M10,8h4V6.5h-4V8z"/>
<path style="fill:#333333;" d="M15,6h-1V4h3.5V2.5h-4c-2.322,0-3.5,0.673-3.5,2V6H9V4.5c0-1.935,1.598-3,4.5-3h5V5H15V6z"/>
</svg>






