<?xml version="1.0" encoding="iso-8859-1"?>
<svg version="1.1" id="&#x56FE;&#x5C42;_1" xmlns="http://www.w3.org/2000/svg" xmlns:xlink="http://www.w3.org/1999/xlink" x="0px"
	 y="0px" viewBox="0 0 24 24" style="enable-background:new 0 0 24 24;" xml:space="preserve">
<path style="fill:#333333;" d="M18.5,7.5h-13V2.688l2.742-1.239l2.094,0.997l1.76-1.024l1.76,1.024l2.104-1.001L18.5,2.7V7.5z
	 M6.5,6.5h11V3.321l-1.548-0.765l-2.143,1.02l-1.713-0.997l-1.713,0.997L8.231,2.551L6.5,3.333V6.5z"/>
<path style="fill:#333333;" d="M12,22.625c-1.688,0-3.267-0.541-4.445-1.522C6.21,19.982,5.5,18.391,5.5,16.5V7h1v9.5
	c0,3.521,2.851,5.125,5.5,5.125c2.649,0,5.5-1.604,5.5-5.125V7h1v9.5C18.5,20.521,15.23,22.625,12,22.625z"/>
<rect x="10" y="17" style="fill:#333333;" width="4" height="1"/>
<path style="fill:#333333;" d="M12,15c-1.378,0-2.5-1.121-2.5-2.5c0-1.378,1.122-2.5,2.5-2.5c1.379,0,2.5,1.122,2.5,2.5
	C14.5,13.879,13.379,15,12,15z M12,11c-0.827,0-1.5,0.673-1.5,1.5S11.173,14,12,14s1.5-0.673,1.5-1.5S12.827,11,12,11z"/>
</svg>






