<?xml version="1.0" encoding="iso-8859-1"?>
<svg version="1.1" id="&#x56FE;&#x5C42;_1" xmlns="http://www.w3.org/2000/svg" xmlns:xlink="http://www.w3.org/1999/xlink" x="0px"
	 y="0px" viewBox="0 0 24 24" style="enable-background:new 0 0 24 24;" xml:space="preserve">
<path style="fill:#333333;" d="M11.4,12.3l-0.8-0.6l1.251-1.668l-5.22-5.694C5.428,3.135,4.819,2.941,4.037,2.999
	C3.4,3.13,2.922,3.482,2.677,4.038C2.299,4.892,2.524,6.069,2.929,6.743L2.071,7.257c-0.53-0.884-0.853-2.395-0.309-3.624
	c0.265-0.599,0.851-1.366,2.14-1.624c1.26-0.098,2.147,0.332,3.452,1.637l5.796,6.322L11.4,12.3z"/>
<path style="fill:#333333;" d="M7,21H6v-2.291c-1.41-1.418-2.204-2.894-2.493-4.627C3.03,9.323,6.392,7.032,9.415,6.507l0.171,0.985
	C8.645,7.656,3.976,8.735,4.498,13.95c0.258,1.541,1.006,2.884,2.351,4.191L7,18.289V21z"/>
<path style="fill:#333333;" d="M20,21h-1v-2.187l0.122-0.141c2.556-2.946,2.589-5.4,2.399-6.028
	c-0.757-3.378-4.894-3.859-6.971-3.647l-0.102-0.995c2.393-0.242,7.14,0.363,8.039,4.388c0.343,1.131-0.036,3.893-2.488,6.794V21z"
	/>
<path style="fill:#333333;" d="M17,21h-1c0-1.718-1.555-2.5-3-2.5c-1.445,0-3,0.782-3,2.5H9c0-2.298,2.012-3.5,4-3.5
	C14.987,17.5,17,18.702,17,21z"/>
</svg>






