<?xml version="1.0" encoding="iso-8859-1"?>
<svg version="1.1" id="&#x56FE;&#x5C42;_1" xmlns="http://www.w3.org/2000/svg" xmlns:xlink="http://www.w3.org/1999/xlink" x="0px"
	 y="0px" viewBox="0 0 24 24" style="enable-background:new 0 0 24 24;" xml:space="preserve">
<path style="fill:#333333;" d="M18.674,17.5H5.325L2.346,9.89L12,6.47l9.654,3.42L18.674,17.5z M6.008,16.5h11.984l2.354-6.013
	L12,7.53l-8.346,2.957L6.008,16.5z"/>
<path style="fill:#333333;" d="M17.999,9.656L12,7.53L6,9.655V3.5h12L17.999,9.656z M12,6.47l4.999,1.771L17,4.5H7v3.74L12,6.47z"/>
<rect x="11.5" y="2" style="fill:#333333;" width="1" height="2"/>
<rect x="11.5" y="8" style="fill:#333333;" width="1" height="4"/>
<polygon style="fill:#333333;" points="17.25,22.76 15.5,20.76 13.75,22.76 12,20.76 10.25,22.76 8.5,20.76 6.75,22.76 
	4.624,20.329 5.376,19.671 6.75,21.24 8.5,19.24 10.25,21.24 12,19.24 13.75,21.24 15.5,19.24 17.25,21.24 18.624,19.671 
	19.376,20.329 "/>
</svg>






