<?xml version="1.0" encoding="iso-8859-1"?>
<svg version="1.1" id="&#x56FE;&#x5C42;_1" xmlns="http://www.w3.org/2000/svg" xmlns:xlink="http://www.w3.org/1999/xlink" x="0px"
	 y="0px" viewBox="0 0 24 24" style="enable-background:new 0 0 24 24;" xml:space="preserve">
<path style="fill:#333333;" d="M17.5,21.5h-11c-1.103,0-2-0.897-2-2v-12c0-1.103,0.897-2,2-2h11c1.103,0,2,0.897,2,2v12
	C19.5,20.603,18.603,21.5,17.5,21.5z M6.5,6.5c-0.551,0-1,0.449-1,1v12c0,0.552,0.449,1,1,1h11c0.552,0,1-0.448,1-1v-12
	c0-0.551-0.448-1-1-1H6.5z"/>
<path style="fill:#333333;" d="M15.5,9h-1V5c0-1.378-1.121-2.5-2.5-2.5c-1.378,0-2.5,1.122-2.5,2.5v4h-1V5c0-1.93,1.57-3.5,3.5-3.5
	s3.5,1.57,3.5,3.5V9z"/>
</svg>






