<?xml version="1.0" encoding="iso-8859-1"?>
<svg version="1.1" id="&#x56FE;&#x5C42;_1" xmlns="http://www.w3.org/2000/svg" xmlns:xlink="http://www.w3.org/1999/xlink" x="0px"
	 y="0px" viewBox="0 0 24 24" style="enable-background:new 0 0 24 24;" xml:space="preserve">
<polygon style="fill:#333333;" points="18.05,12.5 8.665,12.5 5.165,4 2.5,4 2.5,3 5.835,3 9.335,11.5 17.45,11.5 21.06,4.764 
	21.94,5.236 "/>
<rect x="10.5" y="5.5" style="fill:#333333;" width="6" height="1"/>
<rect x="13" y="3" style="fill:#333333;" width="1" height="6"/>
<polygon style="fill:#333333;" points="20,15.5 7,15.5 6.584,14.723 8.584,11.723 9.416,12.277 7.934,14.5 20,14.5 "/>
<path style="fill:#333333;" d="M9.5,21.5c-1.103,0-2-0.897-2-2s0.897-2,2-2s2,0.897,2,2S10.603,21.5,9.5,21.5z M9.5,18.5
	c-0.551,0-1,0.448-1,1s0.449,1,1,1s1-0.448,1-1S10.051,18.5,9.5,18.5z"/>
<path style="fill:#333333;" d="M17.5,21.5c-1.103,0-2-0.897-2-2s0.897-2,2-2s2,0.897,2,2S18.603,21.5,17.5,21.5z M17.5,18.5
	c-0.552,0-1,0.448-1,1s0.448,1,1,1s1-0.448,1-1S18.052,18.5,17.5,18.5z"/>
</svg>






