<?xml version="1.0" encoding="iso-8859-1"?>
<svg version="1.1" id="&#x56FE;&#x5C42;_1" xmlns="http://www.w3.org/2000/svg" xmlns:xlink="http://www.w3.org/1999/xlink" x="0px"
	 y="0px" viewBox="0 0 24 24" style="enable-background:new 0 0 24 24;" xml:space="preserve">
<path style="fill:#333333;" d="M19.826,22H4.174L1.913,8h20.174L19.826,22z M5.026,21h13.949l1.938-12H3.087L5.026,21z"/>
<path style="fill:#333333;" d="M18,8.5h-1C17,5.467,14.757,3,12,3S7,5.467,7,8.5H6C6,4.916,8.691,2,12,2S18,4.916,18,8.5z"/>
<circle style="fill:#333333;" cx="8.5" cy="13" r="1"/>
<path style="fill:#333333;" d="M12,18.5c-2.242,0-3.369-1.652-3.416-1.723l0.831-0.557C9.45,16.272,10.307,17.5,12,17.5
	s2.55-1.228,2.585-1.279l0.831,0.557C15.369,16.848,14.242,18.5,12,18.5z"/>
<circle style="fill:#333333;" cx="15.5" cy="13" r="1"/>
</svg>






