<?xml version="1.0" encoding="iso-8859-1"?>
<svg version="1.1" id="&#x56FE;&#x5C42;_1" xmlns="http://www.w3.org/2000/svg" xmlns:xlink="http://www.w3.org/1999/xlink" x="0px"
	 y="0px" viewBox="0 0 24 24" style="enable-background:new 0 0 24 24;" xml:space="preserve">
<path style="fill:none;" d="M19.5,16h-13L4,6h18L19.5,16z"/>
<path style="fill:#333333;" d="M19.891,16.5H6.109l-3.25-13H1.5v-1h2.141l0.75,3h18.25L19.891,16.5z M6.891,15.5h12.219l2.25-9
	H4.641L6.891,15.5z"/>
<path style="fill:#333333;" d="M6.5,21.5c-1.103,0-2-0.897-2-2s0.897-2,2-2s2,0.897,2,2S7.603,21.5,6.5,21.5z M6.5,18.5
	c-0.551,0-1,0.448-1,1s0.449,1,1,1s1-0.448,1-1S7.051,18.5,6.5,18.5z"/>
<path style="fill:#333333;" d="M19.5,21.5c-1.103,0-2-0.897-2-2s0.897-2,2-2s2,0.897,2,2S20.603,21.5,19.5,21.5z M19.5,18.5
	c-0.552,0-1,0.448-1,1s0.448,1,1,1s1-0.448,1-1S20.052,18.5,19.5,18.5z"/>
<rect x="11" y="10.5" style="fill:#333333;" width="4" height="1"/>
</svg>






