<?xml version="1.0" encoding="iso-8859-1"?>
<svg version="1.1" id="&#x56FE;&#x5C42;_1" xmlns="http://www.w3.org/2000/svg" xmlns:xlink="http://www.w3.org/1999/xlink" x="0px"
	 y="0px" viewBox="0 0 24 24" style="enable-background:new 0 0 24 24;" xml:space="preserve">
<path style="fill:#333333;" d="M12,22.5c-8.265,0-9.908-4.645-9.974-4.842l-0.048-0.143L5.552,4.241L8.293,1.5h7.414l2.741,2.741
	l0.034,0.129l3.539,13.146l-0.047,0.143C21.908,17.855,20.266,22.5,12,22.5z M3.026,17.47C3.338,18.183,5.163,21.5,12,21.5
	c6.831,0,8.658-3.312,8.974-4.03L17.552,4.759L15.293,2.5H8.707L6.448,4.759L3.026,17.47z"/>
<rect x="3.377" y="16.5" transform="matrix(0.2423 -0.9702 0.9702 0.2423 -10.8107 20.1573)" style="fill:#333333;" width="8.246" height="1"/>
<path style="fill:#333333;" d="M12,22.5c-8.265,0-9.908-4.645-9.974-4.842l0.948-0.319C3.032,17.509,4.501,21.5,12,21.5V22.5z"/>
</svg>






