<?xml version="1.0" encoding="iso-8859-1"?>
<svg version="1.1" id="&#x56FE;&#x5C42;_1" xmlns="http://www.w3.org/2000/svg" xmlns:xlink="http://www.w3.org/1999/xlink" x="0px"
	 y="0px" viewBox="0 0 24 24" style="enable-background:new 0 0 24 24;" xml:space="preserve">
<path style="fill:#333333;" d="M14,11.5H4V10c0-1.962,2.196-3.5,5-3.5s5,1.538,5,3.5V11.5z M5,10.5h8V10c0-1.355-1.832-2.5-4-2.5
	S5,8.645,5,10V10.5z"/>
<path style="fill:#333333;" d="M21.5,22h-1V6.25c0-2.068-2.468-3.75-5.5-3.75c-3.033,0-5.5,1.682-5.5,3.75V7h-1V6.25
	c0-2.619,2.916-4.75,6.5-4.75s6.5,2.131,6.5,4.75V22z"/>
<rect x="8.5" y="14" style="fill:#333333;" width="1" height="0.5"/>
<rect x="4.75" y="13.751" transform="matrix(0.3419 -0.9397 0.9397 0.3419 -10.1012 14.0769)" style="fill:#333333;" width="0.5" height="1"/>
<rect x="1.75" y="21.251" transform="matrix(0.3419 -0.9397 0.9397 0.3419 -19.1235 16.1935)" style="fill:#333333;" width="0.5" height="1"/>
<rect x="8.5" y="21.5" style="fill:#333333;" width="1" height="0.5"/>
<rect x="8.5" y="17.5" style="fill:#333333;" width="1" height="1"/>
<rect x="3" y="17.5" transform="matrix(0.3419 -0.9397 0.9397 0.3419 -14.6119 15.1349)" style="fill:#333333;" width="1" height="1"/>
</svg>






