<?xml version="1.0" encoding="iso-8859-1"?>
<svg version="1.1" id="&#x56FE;&#x5C42;_1" xmlns="http://www.w3.org/2000/svg" xmlns:xlink="http://www.w3.org/1999/xlink" x="0px"
	 y="0px" viewBox="0 0 24 24" style="enable-background:new 0 0 24 24;" xml:space="preserve">
<path style="fill:#333333;" d="M12.267,22.666c-3.229,0-5.901-1.094-8.12-3.312c-3.271-3.271-3.661-7.255-1.043-10.658
	c2.21-2.873,5.55-3.525,6.521-3.657C9.853,5.007,10.081,5,10.312,5H20v0.5c0,0.11-0.019,2.726-1.646,4.354
	C16.79,11.417,15.16,12,14.5,12c-0.597,0-5.108,0.526-6.188,1.391c-0.383,0.306-1.027,0.947-1.046,1.804
	c-0.015,0.65,0.343,1.3,1.063,1.93c1.938,1.695,5.227,2.314,7.485,1.412c2.289-0.916,3.725-3.731,3.738-3.76l0.911,0.038l2.19,5.475
	l-0.479,0.179c-0.166,0.062-4.092,1.525-7.605,2.027C13.772,22.609,13.005,22.666,12.267,22.666z M10.312,6
	c-0.186,0-0.37,0.004-0.554,0.029C8.883,6.148,5.874,6.734,3.896,9.305c-2.283,2.968-1.925,6.46,0.958,9.342
	c2.523,2.522,5.562,3.434,9.576,2.858c2.704-0.386,5.754-1.395,6.913-1.801l-1.43-3.576c-0.672,1.021-1.953,2.627-3.728,3.336
	c-2.577,1.032-6.318,0.334-8.515-1.588c-0.953-0.834-1.426-1.743-1.405-2.703c0.021-0.937,0.526-1.847,1.421-2.563
	C9.14,11.448,14.172,11,14.5,11c0.345,0,1.732-0.439,3.146-1.854C18.597,8.196,18.88,6.755,18.965,6H10.312z"/>
<rect x="11" y="5.146" transform="matrix(0.8944 -0.4472 0.4472 0.8944 -2.5872 6.0403)" style="fill:#333333;" width="1" height="6.708"/>
<path style="fill:#333333;" d="M20,5.5h-1c0-1.654-1.346-3-3-3H9v-1h7C18.206,1.5,20,3.294,20,5.5z"/>
<circle style="fill:#333333;" cx="15" cy="8" r="1"/>
</svg>






