<?xml version="1.0" encoding="iso-8859-1"?>
<svg version="1.1" id="&#x56FE;&#x5C42;_1" xmlns="http://www.w3.org/2000/svg" xmlns:xlink="http://www.w3.org/1999/xlink" x="0px"
	 y="0px" viewBox="0 0 24 24" style="enable-background:new 0 0 24 24;" xml:space="preserve">
<polygon style="fill:#333333;" points="20.354,20.854 19.646,20.146 21.293,18.5 19.646,16.854 20.354,16.146 22.707,18.5 "/>
<polygon style="fill:#333333;" points="20.354,7.854 19.646,7.146 21.293,5.5 19.646,3.854 20.354,3.146 22.707,5.5 "/>
<path style="fill:#333333;" d="M22,19h-3.5c-3.859,0-7-3.141-7-7c0-3.86,3.141-7,7-7H22v1h-3.5c-3.309,0-6,2.691-6,6s2.691,6,6,6H22
	V19z"/>
<path style="fill:#333333;" d="M5.5,19H2v-1h3.5c3.309,0,6-2.691,6-6s-2.691-6-6-6H2V5h3.5c3.86,0,7,3.14,7,7
	C12.5,15.859,9.36,19,5.5,19z"/>
</svg>






