<?xml version="1.0" encoding="iso-8859-1"?>
<svg version="1.1" id="&#x56FE;&#x5C42;_1" xmlns="http://www.w3.org/2000/svg" xmlns:xlink="http://www.w3.org/1999/xlink" x="0px"
	 y="0px" viewBox="0 0 24 24" style="enable-background:new 0 0 24 24;" xml:space="preserve">
<path style="fill:#333333;" d="M17.309,6.5H6.691l2-4h6.618L17.309,6.5z M8.309,5.5h7.382l-1-2H9.309L8.309,5.5z"/>
<path style="fill:#333333;" d="M20.5,21.5h-17c-1.103,0-2-0.853-2-1.9V7.4c0-1.048,0.897-1.9,2-1.9h17c1.103,0,2,0.852,2,1.9v12.2
	C22.5,20.647,21.603,21.5,20.5,21.5z M3.5,6.5c-0.551,0-1,0.404-1,0.9v12.2c0,0.496,0.449,0.9,1,0.9h17c0.552,0,1-0.404,1-0.9V7.4
	c0-0.496-0.448-0.9-1-0.9H3.5z"/>
<path style="fill:#333333;" d="M9.52,17.5l-0.039-1c2.408-0.093,4.52-0.768,4.52-1.444c0-0.493-1.182-0.814-2.131-1.073
	C10.524,13.616,9,13.201,9,11.944c0-2.166,4.469-2.422,4.979-2.444l0.043,0.999C12.079,10.583,10,11.184,10,11.944
	c0,0.493,1.182,0.814,2.132,1.073C13.476,13.384,15,13.799,15,15.056C15,17.18,10.435,17.464,9.52,17.5z"/>
</svg>






