<?xml version="1.0" encoding="iso-8859-1"?>
<svg version="1.1" id="&#x56FE;&#x5C42;_1" xmlns="http://www.w3.org/2000/svg" xmlns:xlink="http://www.w3.org/1999/xlink" x="0px"
	 y="0px" viewBox="0 0 24 24" style="enable-background:new 0 0 24 24;" xml:space="preserve">
<rect x="10.5" y="5.013" transform="matrix(0.3163 -0.9487 0.9487 0.3163 -6.2346 20.3498)" style="fill:#333333;" width="1" height="18.974"/>
<path style="fill:#333333;" d="M6,10c-1.103,0-2-0.897-2-2s0.897-2,2-2s2,0.897,2,2S7.103,10,6,10z M6,7C5.449,7,5,7.449,5,8
	s0.449,1,1,1s1-0.449,1-1S6.551,7,6,7z"/>
<path style="fill:#333333;" d="M15,18.5H9v-5.205l6,2.101V18.5z M10,17.5h4v-1.396l-4-1.399V17.5z"/>
<path style="fill:#333333;" d="M20.478,17.647l-0.955-0.295l1.587-5.157c0.154-0.501-0.109-1.041-0.6-1.228l-8.716-3.32
	l-2.325,6.277l-0.938-0.348l2.675-7.223l9.659,3.68c0.981,0.374,1.509,1.453,1.199,2.458L20.478,17.647z"/>
</svg>






