<?xml version="1.0" encoding="iso-8859-1"?>
<svg version="1.1" id="&#x56FE;&#x5C42;_1" xmlns="http://www.w3.org/2000/svg" xmlns:xlink="http://www.w3.org/1999/xlink" x="0px"
	 y="0px" viewBox="0 0 24 24" style="enable-background:new 0 0 24 24;" xml:space="preserve">
<path style="fill:#333333;" d="M19.425,19.425l-0.707-0.707C20.512,16.924,21.5,14.538,21.5,12c0-2.537-0.988-4.923-2.782-6.718
	l0.707-0.707C21.408,6.559,22.5,9.196,22.5,12C22.5,14.805,21.408,17.441,19.425,19.425z"/>
<path style="fill:#333333;" d="M4.575,19.425C2.592,17.441,1.5,14.805,1.5,12c0-2.804,1.092-5.441,3.075-7.425l0.707,0.707
	C3.488,7.077,2.5,9.463,2.5,12c0,2.538,0.988,4.924,2.782,6.718L4.575,19.425z"/>
<path style="fill:#333333;" d="M7.197,17.304C5.78,15.886,5,14.003,5,12c0-2.003,0.78-3.887,2.197-5.303l0.707,0.707
	C6.676,8.631,6,10.264,6,12c0,1.735,0.676,3.368,1.904,4.597L7.197,17.304z"/>
<path style="fill:#333333;" d="M16.803,17.304l-0.707-0.707C17.323,15.368,18,13.736,18,12c0-1.737-0.676-3.369-1.904-4.596
	l0.707-0.707C18.22,8.112,19,9.996,19,12C19,14.003,18.22,15.887,16.803,17.304z"/>
<rect x="11.5" y="17" style="fill:#333333;" width="1" height="5"/>
<rect x="11.5" y="2" style="fill:#333333;" width="1" height="5"/>
<path style="fill:#333333;" d="M12,13.5c0.828,0,1.5-0.672,1.5-1.5s-0.672-1.5-1.5-1.5s-1.5,0.672-1.5,1.5S11.172,13.5,12,13.5z"/>
</svg>






