<?xml version="1.0" encoding="iso-8859-1"?>
<svg version="1.1" id="&#x56FE;&#x5C42;_1" xmlns="http://www.w3.org/2000/svg" xmlns:xlink="http://www.w3.org/1999/xlink" x="0px"
	 y="0px" viewBox="0 0 24 24" style="enable-background:new 0 0 24 24;" xml:space="preserve">
<polygon style="fill:#333333;" points="17.51,22.098 13.59,2.5 10.41,2.5 6.49,22.098 5.51,21.902 9.59,1.5 14.41,1.5 18.49,21.902 
	"/>
<rect x="7.5" y="4.5" style="fill:#333333;" width="9" height="1"/>
<rect x="6" y="12.5" style="fill:#333333;" width="12" height="1"/>
<rect x="12" y="10.669" transform="matrix(0.5145 -0.8575 0.8575 0.5145 -8.0798 18.7299)" style="fill:#333333;" width="1" height="11.662"/>
<rect x="6.132" y="16" transform="matrix(0.8455 -0.534 0.534 0.8455 -6.9957 8.8247)" style="fill:#333333;" width="11.236" height="1"/>
<rect x="5.947" y="8.75" transform="matrix(0.7071 -0.7071 0.7071 0.7071 -3.2457 10.6642)" style="fill:#333333;" width="10.607" height="1"/>
<rect x="12.25" y="3.947" transform="matrix(0.7071 -0.7071 0.7071 0.7071 -2.8063 11.7249)" style="fill:#333333;" width="1" height="10.607"/>
</svg>






