<?xml version="1.0" encoding="iso-8859-1"?>
<svg version="1.1" id="&#x56FE;&#x5C42;_1" xmlns="http://www.w3.org/2000/svg" xmlns:xlink="http://www.w3.org/1999/xlink" x="0px"
	 y="0px" viewBox="0 0 24 24" style="enable-background:new 0 0 24 24;" xml:space="preserve">
<path style="fill:#333333;" d="M19.425,19.425l-0.707-0.707c3.704-3.704,3.704-9.731,0-13.436c-3.704-3.704-9.73-3.704-13.436,0
	c-3.704,3.704-3.704,9.731,0,13.436l-0.707,0.707c-4.094-4.094-4.094-10.755,0-14.85c4.094-4.093,10.756-4.094,14.85,0
	C23.519,8.669,23.519,15.331,19.425,19.425z M16.596,16.596l-0.707-0.707C16.928,14.85,17.5,13.469,17.5,12
	c0-1.469-0.572-2.85-1.611-3.889S13.469,6.5,12,6.5c-1.469,0-2.85,0.572-3.889,1.611S6.5,10.531,6.5,12
	c0,1.469,0.572,2.85,1.611,3.889l-0.707,0.707C6.176,15.368,5.5,13.736,5.5,12s0.676-3.369,1.904-4.596S10.264,5.5,12,5.5
	s3.368,0.676,4.596,1.904S18.5,10.264,18.5,12S17.823,15.368,16.596,16.596z"/>
<path style="fill:none;" d="M14,12c0,1.105-0.895,2-2,2s-2-0.895-2-2s0.895-2,2-2S14,10.895,14,12z"/>
<path style="fill:#333333;" d="M14,22.5h-2V22v0.5h-2v-1h1.5v-7.05c-1.14-0.232-2-1.243-2-2.45c0-1.378,1.122-2.5,2.5-2.5
	c1.379,0,2.5,1.122,2.5,2.5c0,1.207-0.86,2.218-2,2.45v7.05H14V22.5z M12,10.5c-0.827,0-1.5,0.673-1.5,1.5s0.673,1.5,1.5,1.5
	s1.5-0.673,1.5-1.5S12.827,10.5,12,10.5z"/>
</svg>






