<?xml version="1.0" encoding="iso-8859-1"?>
<svg version="1.1" id="&#x56FE;&#x5C42;_1" xmlns="http://www.w3.org/2000/svg" xmlns:xlink="http://www.w3.org/1999/xlink" x="0px"
	 y="0px" viewBox="0 0 24 24" style="enable-background:new 0 0 24 24;" xml:space="preserve">
<path style="fill:#333333;" d="M12.436,15.807c-0.424,0-0.851-0.037-1.277-0.112c-1.911-0.337-3.576-1.398-4.689-2.987
	C5.357,11.118,4.93,9.19,5.267,7.279S6.665,3.703,8.254,2.59l0.409-0.287l8.333,11.9l-0.409,0.286
	C15.352,15.355,13.912,15.807,12.436,15.807z M8.429,3.712C7.28,4.659,6.513,5.97,6.251,7.453c-0.291,1.647,0.078,3.31,1.038,4.68
	c0.959,1.371,2.396,2.286,4.043,2.576c1.481,0.264,2.977-0.012,4.259-0.767L8.429,3.712z"/>
<rect x="10.5" y="15.5" style="fill:#333333;" width="1" height="5.5"/>
<polygon style="fill:#333333;" points="21,21.5 2.262,21.5 6.036,12.064 6.964,12.436 3.738,20.5 21,20.5 "/>
<rect x="11.6" y="5.25" transform="matrix(0.8063 -0.5915 0.5915 0.8063 -0.2534 10.7263)" style="fill:#333333;" width="9.301" height="1"/>
<polygon style="fill:#333333;" points="16.976,13.905 16.024,13.595 19.312,3.5 8.5,3.5 8.5,2.5 20.688,2.5 "/>
</svg>






