<?xml version="1.0" encoding="iso-8859-1"?>
<svg version="1.1" id="&#x56FE;&#x5C42;_1" xmlns="http://www.w3.org/2000/svg" xmlns:xlink="http://www.w3.org/1999/xlink" x="0px"
	 y="0px" viewBox="0 0 24 24" style="enable-background:new 0 0 24 24;" xml:space="preserve">
<path style="fill:#333333;" d="M19,22.5H5c-0.827,0-1.5-0.673-1.5-1.5V3c0-0.827,0.673-1.5,1.5-1.5h9.113
	c0.373,0,0.731,0.139,1.009,0.39l4.887,4.442c0.312,0.284,0.491,0.688,0.491,1.11V21C20.5,21.827,19.827,22.5,19,22.5z M5,2.5
	C4.724,2.5,4.5,2.724,4.5,3v18c0,0.275,0.224,0.5,0.5,0.5h14c0.275,0,0.5-0.225,0.5-0.5V7.442c0-0.14-0.06-0.275-0.164-0.37
	L14.45,2.63c-0.093-0.084-0.213-0.13-0.337-0.13H5z"/>
<circle style="fill:#333333;" cx="8.5" cy="7" r="1.5"/>
<path style="fill:#333333;" d="M16.5,19h-9v-8h9V19z M8.5,18h7v-6h-7V18z"/>
</svg>






