<?xml version="1.0" encoding="iso-8859-1"?>
<svg version="1.1" id="&#x56FE;&#x5C42;_1" xmlns="http://www.w3.org/2000/svg" xmlns:xlink="http://www.w3.org/1999/xlink" x="0px"
	 y="0px" viewBox="0 0 24 24" style="enable-background:new 0 0 24 24;" xml:space="preserve">
<path style="fill:#333333;" d="M20.5,12h-17V6c0-1.103,0.897-2,2-2h13c1.103,0,2,0.897,2,2V12z M4.5,11h15V6c0-0.551-0.448-1-1-1
	h-13c-0.551,0-1,0.449-1,1V11z"/>
<rect x="2.5" y="17.5" style="fill:#333333;" width="1" height="2"/>
<rect x="20.5" y="17.5" style="fill:#333333;" width="1" height="2"/>
<path style="fill:#333333;" d="M16.5,12h-9v-1.5c0-1.103,0.897-2,2-2h5c1.103,0,2,0.897,2,2V12z M8.5,11h7v-0.5c0-0.551-0.448-1-1-1
	h-5c-0.551,0-1,0.449-1,1V11z"/>
<path style="fill:#333333;" d="M22.5,18h-21v-5c0-1.103,0.897-2,2-2h17c1.103,0,2,0.897,2,2V18z M2.5,17h19v-4c0-0.552-0.448-1-1-1
	h-17c-0.551,0-1,0.448-1,1V17z"/>
</svg>






