<?xml version="1.0" encoding="iso-8859-1"?>
<svg version="1.1" id="&#x56FE;&#x5C42;_1" xmlns="http://www.w3.org/2000/svg" xmlns:xlink="http://www.w3.org/1999/xlink" x="0px"
	 y="0px" viewBox="0 0 24 24" style="enable-background:new 0 0 24 24;" xml:space="preserve">
<path style="fill:#333333;" d="M17.449,22.5H6.809l-1.875-15h14.123L17.449,22.5z M7.691,21.5h8.859l1.393-13H6.066L7.691,21.5z"/>
<rect x="11" y="1.919" transform="matrix(0.9487 -0.3162 0.3162 0.9487 -0.5166 3.8163)" style="fill:#333333;" width="1" height="3.162"/>
<rect x="3" y="7.5" style="fill:#333333;" width="18" height="1"/>
<path style="fill:#333333;" d="M18.541,16.999c-0.351,0-0.596-0.037-0.62-0.042l0.157-0.987c0.011,0.002,1.202,0.18,1.906-0.355
	c0.29-0.222,0.454-0.538,0.503-0.969c0.049-0.428-0.039-0.761-0.266-1.017c-0.455-0.511-1.4-0.627-1.726-0.629l0.001-1
	c0.065,0,1.619,0.011,2.468,0.961c0.424,0.474,0.598,1.078,0.517,1.797c-0.08,0.708-0.382,1.265-0.896,1.655
	C19.941,16.902,19.104,16.999,18.541,16.999z"/>
<path style="fill:#333333;" d="M5.459,16.999c-0.563,0-1.4-0.097-2.045-0.587c-0.514-0.39-0.815-0.946-0.895-1.654
	c-0.081-0.718,0.092-1.323,0.516-1.797C3.883,12.011,5.437,12,5.502,12l0.001,1c-0.326,0.002-1.271,0.118-1.725,0.629
	c-0.228,0.256-0.314,0.589-0.266,1.017c0.048,0.431,0.213,0.747,0.503,0.969c0.701,0.535,1.893,0.356,1.906,0.355l0.158,0.987
	C6.054,16.962,5.81,16.999,5.459,16.999z"/>
<path style="fill:#333333;" d="M19,8.5H5v-4h14V8.5z M6,7.5h12v-2H6V7.5z"/>
</svg>






