<?xml version="1.0" encoding="iso-8859-1"?>
<svg version="1.1" id="&#x56FE;&#x5C42;_1" xmlns="http://www.w3.org/2000/svg" xmlns:xlink="http://www.w3.org/1999/xlink" x="0px"
	 y="0px" viewBox="0 0 24 24" style="enable-background:new 0 0 24 24;" xml:space="preserve">
<rect x="18.428" y="10" style="fill:#333333;" width="1" height="4"/>
<rect x="13.464" y="17.5" transform="matrix(0.8658 -0.5003 0.5003 0.8658 -6.9313 10.1526)" style="fill:#333333;" width="4" height="0.999"/>
<rect x="8.036" y="16" transform="matrix(0.5 -0.866 0.866 0.5 -11.3206 16.3915)" style="fill:#333333;" width="0.999" height="4"/>
<rect x="4.572" y="10" style="fill:#333333;" width="1" height="4"/>
<rect x="6.536" y="5.5" transform="matrix(0.8661 -0.4999 0.4999 0.8661 -1.8564 5.0707)" style="fill:#333333;" width="4" height="1"/>
<rect x="14.964" y="4" transform="matrix(0.5 -0.866 0.866 0.5 2.5357 16.3921)" style="fill:#333333;" width="1" height="4"/>
<path style="fill:#333333;" d="M12,22.5c-1.378,0-2.5-1.121-2.5-2.5s1.122-2.5,2.5-2.5c1.379,0,2.5,1.121,2.5,2.5
	S13.379,22.5,12,22.5z M12,18.5c-0.827,0-1.5,0.673-1.5,1.5s0.673,1.5,1.5,1.5s1.5-0.673,1.5-1.5S12.827,18.5,12,18.5z"/>
<path style="fill:#333333;" d="M12,6.5c-1.378,0-2.5-1.122-2.5-2.5s1.122-2.5,2.5-2.5c1.379,0,2.5,1.122,2.5,2.5S13.379,6.5,12,6.5z
	 M12,2.5c-0.827,0-1.5,0.673-1.5,1.5s0.673,1.5,1.5,1.5s1.5-0.673,1.5-1.5S12.827,2.5,12,2.5z"/>
<path style="fill:#333333;" d="M12,14.5c-1.378,0-2.5-1.121-2.5-2.5c0-1.378,1.122-2.5,2.5-2.5c1.379,0,2.5,1.122,2.5,2.5
	C14.5,13.379,13.379,14.5,12,14.5z M12,10.5c-0.827,0-1.5,0.673-1.5,1.5s0.673,1.5,1.5,1.5s1.5-0.673,1.5-1.5S12.827,10.5,12,10.5z"
	/>
<path style="fill:#333333;" d="M19,10.5c-1.379,0-2.5-1.122-2.5-2.5s1.121-2.5,2.5-2.5s2.5,1.122,2.5,2.5S20.379,10.5,19,10.5z
	 M19,6.5c-0.827,0-1.5,0.673-1.5,1.5s0.673,1.5,1.5,1.5s1.5-0.673,1.5-1.5S19.827,6.5,19,6.5z"/>
<path style="fill:#333333;" d="M19,18.5c-1.379,0-2.5-1.121-2.5-2.5s1.121-2.5,2.5-2.5s2.5,1.121,2.5,2.5S20.379,18.5,19,18.5z
	 M19,14.5c-0.827,0-1.5,0.673-1.5,1.5s0.673,1.5,1.5,1.5s1.5-0.673,1.5-1.5S19.827,14.5,19,14.5z"/>
<path style="fill:#333333;" d="M5,10.5c-1.378,0-2.5-1.122-2.5-2.5S3.622,5.5,5,5.5S7.5,6.622,7.5,8S6.378,10.5,5,10.5z M5,6.5
	C4.173,6.5,3.5,7.173,3.5,8S4.173,9.5,5,9.5S6.5,8.827,6.5,8S5.827,6.5,5,6.5z"/>
<path style="fill:#333333;" d="M5,18.5c-1.378,0-2.5-1.121-2.5-2.5s1.122-2.5,2.5-2.5s2.5,1.121,2.5,2.5S6.378,18.5,5,18.5z M5,14.5
	c-0.827,0-1.5,0.673-1.5,1.5s0.673,1.5,1.5,1.5s1.5-0.673,1.5-1.5S5.827,14.5,5,14.5z"/>
</svg>






