<?xml version="1.0" encoding="iso-8859-1"?>
<svg version="1.1" id="&#x56FE;&#x5C42;_1" xmlns="http://www.w3.org/2000/svg" xmlns:xlink="http://www.w3.org/1999/xlink" x="0px"
	 y="0px" viewBox="0 0 24 24" style="enable-background:new 0 0 24 24;" xml:space="preserve">
<path style="fill:#333333;" d="M19.5,21.5h-15c-1.103,0-2-0.897-2-2v-15c0-1.103,0.897-2,2-2h15c1.103,0,2,0.897,2,2v15
	C21.5,20.603,20.603,21.5,19.5,21.5z M4.5,3.5c-0.551,0-1,0.449-1,1v15c0,0.552,0.449,1,1,1h15c0.552,0,1-0.448,1-1v-15
	c0-0.551-0.448-1-1-1H4.5z"/>
<path style="fill:#333333;" d="M12.25,17C10.458,17,9,15.542,9,13.75s1.458-3.25,3.25-3.25s3.25,1.458,3.25,3.25S14.042,17,12.25,17
	z M12.25,11.5c-1.241,0-2.25,1.01-2.25,2.25S11.009,16,12.25,16c1.24,0,2.25-1.01,2.25-2.25S13.49,11.5,12.25,11.5z"/>
<path style="fill:#333333;" d="M10,13.5H9V10c0-1.93,1.458-3.5,3.25-3.5c1.335,0,2.519,0.861,3.017,2.195l-0.938,0.35
	C13.979,8.106,13.163,7.5,12.25,7.5C11.009,7.5,10,8.622,10,10V13.5z"/>
</svg>






