<?xml version="1.0" encoding="iso-8859-1"?>
<svg version="1.1" id="&#x56FE;&#x5C42;_1" xmlns="http://www.w3.org/2000/svg" xmlns:xlink="http://www.w3.org/1999/xlink" x="0px"
	 y="0px" viewBox="0 0 24 24" style="enable-background:new 0 0 24 24;" xml:space="preserve">
<path style="fill:#333333;" d="M13.84,22.074c-1.516,0-3.061-0.376-4.564-1.127l0,0c-2.703-1.352-5.41-5.2-7.205-8.19
	C1.14,11.206,1.723,9.73,2.714,8.956c0.933-0.728,2.47-0.979,3.639,0.19L7.5,10.293V8.75c0-1.241,1.009-2.25,2.25-2.25
	c0.559,0,1.07,0.205,1.464,0.542c0.36-0.763,1.138-1.292,2.036-1.292s1.676,0.529,2.036,1.292C16.005,6.426,17.211,6.351,18,6.88
	V3.75c0-1.241,1.01-2.25,2.25-2.25s2.25,1.009,2.25,2.25v10.733c0,1.236-0.271,2.284-0.808,3.116
	c-0.662,1.025-1.799,2.437-3.453,3.339C16.853,21.695,15.361,22.074,13.84,22.074z M9.723,20.053c2.75,1.375,5.53,1.377,8.038,0.009
	c1.47-0.803,2.492-2.076,3.092-3.004c0.43-0.667,0.647-1.533,0.647-2.574V3.75c0-0.689-0.561-1.25-1.25-1.25S19,3.061,19,3.75v5h-1
	c0-0.689-0.561-1.25-1.25-1.25S15.5,8.061,15.5,8.75h-1V8c0-0.689-0.561-1.25-1.25-1.25S12,7.311,12,8v0.75h-1
	c0-0.689-0.561-1.25-1.25-1.25S8.5,8.061,8.5,8.75v2.75l-0.854,0.354l-2-2C4.902,9.109,3.948,9.263,3.33,9.744
	c-0.597,0.466-1.061,1.4-0.401,2.499C4.655,15.119,7.235,18.809,9.723,20.053L9.723,20.053z"/>
</svg>






