<?xml version="1.0" encoding="iso-8859-1"?>
<svg version="1.1" id="&#x56FE;&#x5C42;_1" xmlns="http://www.w3.org/2000/svg" xmlns:xlink="http://www.w3.org/1999/xlink" x="0px"
	 y="0px" viewBox="0 0 24 24" style="enable-background:new 0 0 24 24;" xml:space="preserve">
<path style="fill:#333333;" d="M22,20.41H2l-0.242-0.938l16.27-9l0.242-0.062H22l0.5,0.5v9L22,20.41z M3.937,19.41H21.5v-8h-3.102
	L3.937,19.41z"/>
<polygon style="fill:#333333;" points="3.323,10.848 1.707,10.049 2.15,9.152 3.527,9.833 11.723,5.1 11.822,3.568 12.82,3.633 
	12.704,5.432 12.455,5.833 3.795,10.833 "/>
<path style="fill:#333333;" d="M6.165,12.44c0.828,0,1.5-0.672,1.5-1.5c0-0.828-0.672-1.5-1.5-1.5c-0.828,0-1.5,0.672-1.5,1.5
	C4.665,11.768,5.337,12.44,6.165,12.44z"/>
<path style="fill:#333333;" d="M11.725,9.44c0.828,0,1.5-0.672,1.5-1.5c0-0.828-0.672-1.5-1.5-1.5c-0.828,0-1.5,0.672-1.5,1.5
	C10.225,8.768,10.897,9.44,11.725,9.44z"/>
</svg>






