<?xml version="1.0" encoding="iso-8859-1"?>
<svg version="1.1" id="&#x56FE;&#x5C42;_1" xmlns="http://www.w3.org/2000/svg" xmlns:xlink="http://www.w3.org/1999/xlink" x="0px"
	 y="0px" viewBox="0 0 24 24" style="enable-background:new 0 0 24 24;" xml:space="preserve">
<path style="fill:#333333;" d="M22,6.5h-8L13.5,6V2L14,1.5h8L22.5,2v4L22,6.5z M14.5,5.5h7v-3h-7V5.5z"/>
<path style="fill:#333333;" d="M21,18.5H4c-1.378,0-2.5-1.121-2.5-2.5v-3c0-2.481,2.019-4.5,4.5-4.5h7.5V6L14,5.5h8L22.5,6v11
	C22.5,17.827,21.827,18.5,21,18.5z M6,9.5c-1.93,0-3.5,1.57-3.5,3.5v3c0,0.827,0.673,1.5,1.5,1.5h17c0.28,0,0.5-0.22,0.5-0.5V6.5h-7
	V9L14,9.5H6z"/>
<rect x="6.5" y="9" style="fill:#333333;" width="1" height="3"/>
<rect x="10" y="9" style="fill:#333333;" width="1" height="3"/>
<rect x="6.5" y="18" style="fill:#333333;" width="1" height="4"/>
<rect x="17.5" y="18" style="fill:#333333;" width="1" height="4"/>
<rect x="6" y="8.5" style="fill:#333333;" width="5.5" height="1"/>
<path style="fill:#333333;" d="M22,22.5H3c-0.827,0-1.5-0.673-1.5-1.5v-0.685h1V21c0,0.275,0.224,0.5,0.5,0.5h19V22.5z"/>
</svg>






