<?xml version="1.0" encoding="iso-8859-1"?>
<svg version="1.1" id="&#x56FE;&#x5C42;_1" xmlns="http://www.w3.org/2000/svg" xmlns:xlink="http://www.w3.org/1999/xlink" x="0px"
	 y="0px" viewBox="0 0 24 24" style="enable-background:new 0 0 24 24;" xml:space="preserve">
<path style="fill:#333333;" d="M12,7.5c-1.654,0-3-1.346-3-3s1.346-3,3-3s3,1.346,3,3S13.654,7.5,12,7.5z M12,2.5
	c-1.103,0-2,0.897-2,2s0.897,2,2,2c1.103,0,2-0.897,2-2S13.103,2.5,12,2.5z"/>
<polygon style="fill:#333333;" points="13.012,22.108 12.044,17.751 9.146,14.854 9.021,14.356 10.521,9.356 11.32,9.116 
	14.181,11.5 17,11.5 17,12.5 14,12.5 13.68,12.384 11.261,10.369 10.065,14.357 12.854,17.146 12.988,17.392 13.988,21.892 "/>
<polygon style="fill:#333333;" points="4.82,22.384 4.18,21.616 7.083,19.197 8.036,16.814 8.964,17.186 7.964,19.686 7.82,19.884 
	"/>
<polygon style="fill:#333333;" points="19.5,22.5 2.5,22.5 2.5,21.5 19.243,21.5 21.593,18.209 22.407,18.791 19.907,22.291 "/>
<rect x="16.5" y="12" style="fill:#333333;" width="1" height="10"/>
</svg>






