<?xml version="1.0" encoding="iso-8859-1"?>
<svg version="1.1" id="&#x56FE;&#x5C42;_1" xmlns="http://www.w3.org/2000/svg" xmlns:xlink="http://www.w3.org/1999/xlink" x="0px"
	 y="0px" viewBox="0 0 24 24" style="enable-background:new 0 0 24 24;" xml:space="preserve">
<path style="fill:#333333;" d="M19.109,22.5H4.89l1.811-4.478C4.376,16.303,3,13.571,3,10.636C3,5.599,7.038,1.5,12,1.5
	c4.963,0,9,4.099,9,9.136c0,2.935-1.376,5.667-3.701,7.386L19.109,22.5z M6.374,21.5h11.253l-1.556-3.846l0.336-0.227
	C18.657,15.914,20,13.376,20,10.636C20,6.15,16.411,2.5,12,2.5s-8,3.65-8,8.136c0,2.74,1.343,5.278,3.593,6.792l0.336,0.227
	L6.374,21.5z"/>
<rect x="9.5" y="19" style="fill:#333333;" width="1" height="3"/>
<rect x="13.5" y="19" style="fill:#333333;" width="1" height="3"/>
<path style="fill:#333333;" d="M8.5,12c-1.103,0-2-0.897-2-2s0.897-2,2-2s2,0.897,2,2S9.603,12,8.5,12z M8.5,9c-0.551,0-1,0.449-1,1
	s0.449,1,1,1s1-0.449,1-1S9.051,9,8.5,9z"/>
<path style="fill:#333333;" d="M15.5,12c-1.103,0-2-0.897-2-2s0.897-2,2-2s2,0.897,2,2S16.603,12,15.5,12z M15.5,9
	c-0.552,0-1,0.449-1,1s0.448,1,1,1s1-0.449,1-1S16.052,9,15.5,9z"/>
<rect x="12" y="21.5" style="fill:#333333;" width="4" height="1"/>
<rect x="8" y="21.5" style="fill:#333333;" width="4" height="1"/>
</svg>






