<?xml version="1.0" encoding="iso-8859-1"?>
<svg version="1.1" id="&#x56FE;&#x5C42;_1" xmlns="http://www.w3.org/2000/svg" xmlns:xlink="http://www.w3.org/1999/xlink" x="0px"
	 y="0px" viewBox="0 0 24 24" style="enable-background:new 0 0 24 24;" xml:space="preserve">
<path style="fill:#333333;" d="M12,21.5c-5.238,0-9.5-4.262-9.5-9.5c0-3.794,2.251-7.219,5.734-8.724l0.674,0.612
	C8.637,4.729,8.5,5.608,8.5,6.5c0,4.687,3.813,8.5,8.5,8.5c1.171,0,2.305-0.233,3.369-0.693l0.674,0.612
	C19.773,18.855,16.139,21.5,12,21.5z M7.674,4.681C5.108,6.197,3.5,8.966,3.5,12c0,4.687,3.813,8.5,8.5,8.5
	c3.341,0,6.314-1.926,7.698-4.888C18.828,15.87,17.924,16,17,16c-5.238,0-9.5-4.262-9.5-9.5C7.5,5.886,7.559,5.277,7.674,4.681z"/>
<polygon style="fill:#333333;" points="20.5,9.5 15.5,9.5 15.188,8.609 19.074,5.5 15.83,5.5 15.83,4.5 20.5,4.5 20.812,5.391 
	16.926,8.5 20.5,8.5 "/>
</svg>






