<?xml version="1.0" encoding="iso-8859-1"?>
<svg version="1.1" id="&#x56FE;&#x5C42;_1" xmlns="http://www.w3.org/2000/svg" xmlns:xlink="http://www.w3.org/1999/xlink" x="0px"
	 y="0px" viewBox="0 0 24 24" style="enable-background:new 0 0 24 24;" xml:space="preserve">
<polygon style="fill:#333333;" points="12.5,12.5 3.5,12.5 3.138,11.655 10.905,3.5 3.5,3.5 3.5,2.5 12.071,2.5 12.434,3.345 
	4.667,11.5 12.5,11.5 "/>
<polygon style="fill:#333333;" points="20.5,15 14.5,15 14.12,14.175 19.413,8 14.5,8 14.5,7 20.5,7 20.88,7.825 15.587,14 20.5,14 
	"/>
<polygon style="fill:#333333;" points="12.5,21.5 7.5,21.5 7.129,20.665 10.897,16.5 7.5,16.5 7.5,15.5 12.023,15.5 12.395,16.335 
	8.626,20.5 12.5,20.5 "/>
</svg>






