<?xml version="1.0" encoding="iso-8859-1"?>
<svg version="1.1" id="&#x56FE;&#x5C42;_1" xmlns="http://www.w3.org/2000/svg" xmlns:xlink="http://www.w3.org/1999/xlink" x="0px"
	 y="0px" viewBox="0 0 24 24" style="enable-background:new 0 0 24 24;" xml:space="preserve">
<rect x="1.5" y="6" style="fill:#333333;" width="1" height="12"/>
<rect x="21.5" y="14.5" style="fill:#333333;" width="1" height="3.5"/>
<rect x="2" y="14" style="fill:#333333;" width="20" height="1"/>
<path style="fill:#333333;" d="M22.5,15h-12V7.5h10c1.103,0,2,0.897,2,2V15z M11.5,14h10V9.5c0-0.551-0.448-1-1-1h-9V14z"/>
<path style="fill:#333333;" d="M6.5,12c-1.103,0-2-0.897-2-2s0.897-2,2-2s2,0.897,2,2S7.603,12,6.5,12z M6.5,9c-0.551,0-1,0.449-1,1
	s0.449,1,1,1s1-0.449,1-1S7.051,9,6.5,9z"/>
</svg>






