<?xml version="1.0" encoding="iso-8859-1"?>
<svg version="1.1" id="&#x56FE;&#x5C42;_1" xmlns="http://www.w3.org/2000/svg" xmlns:xlink="http://www.w3.org/1999/xlink" x="0px"
	 y="0px" viewBox="0 0 24 24" style="enable-background:new 0 0 24 24;" xml:space="preserve">
<path style="fill:#333333;" d="M22.5,18h-21v-4h21V18z M2.5,17h19v-2h-19V17z"/>
<path style="fill:#333333;" d="M15.5,15h-14v-0.5c0-0.068,0.018-1.691,1.6-3.8l0,0c2.559-3.411,7.578-3.963,9.47-3.695
	c2.013,0.288,2.93,2.013,2.93,3.495V15z M2.575,14H14.5v-3.5c0-0.82-0.437-2.271-2.07-2.505C10.963,7.787,6.238,8.183,3.9,11.3
	C3.029,12.462,2.699,13.44,2.575,14z"/>
</svg>






