<?xml version="1.0" encoding="iso-8859-1"?>
<svg version="1.1" id="&#x56FE;&#x5C42;_1" xmlns="http://www.w3.org/2000/svg" xmlns:xlink="http://www.w3.org/1999/xlink" x="0px"
	 y="0px" viewBox="0 0 24 24" style="enable-background:new 0 0 24 24;" xml:space="preserve">
<path style="fill:#333333;" d="M12,23c-1.807,0-4.864-2.316-4.864-11c0-8.683,3.057-11,4.864-11c2.244,0,4.864,2.881,4.864,11
	S14.244,23,12,23z M12,2c-1.336,0-3.864,2.09-3.864,10S10.664,22,12,22c1.436,0,3.864-2.106,3.864-10C15.864,4.106,13.436,2,12,2z"
	/>
<path style="fill:#333333;" d="M5.649,19.335c-0.608,0-1.111-0.074-1.523-0.185c-0.917-0.246-1.63-0.744-2.007-1.402
	c-0.249-0.434-2.151-4.402,7.448-9.991c5.489-3.196,8.649-3.331,10.333-2.877c0.912,0.245,1.615,0.731,1.981,1.371
	c1.121,1.957-0.157,5.747-7.447,9.991C10.291,18.654,7.49,19.335,5.649,19.335z M18.348,5.693c-1.589,0-4.22,0.566-8.278,2.928
	c-7.133,4.153-7.752,7.461-7.083,8.63c0.141,0.246,0.51,0.694,1.397,0.933c1.21,0.323,4.057,0.39,9.545-2.806
	c7.12-4.145,7.803-7.375,7.084-8.63c-0.135-0.236-0.493-0.667-1.373-0.902C19.324,5.762,18.898,5.693,18.348,5.693z"/>
<path style="fill:#333333;" d="M18.352,19.335c-1.841,0-4.642-0.68-8.785-3.093c-7.29-4.243-8.568-8.034-7.448-9.991
	c0.367-0.64,1.071-1.127,1.982-1.371c1.684-0.451,4.842-0.319,10.333,2.877c9.6,5.589,7.696,9.557,7.447,9.992
	c-0.376,0.657-1.089,1.155-2.006,1.401C19.463,19.261,18.959,19.335,18.352,19.335z M5.652,5.693c-0.551,0-0.976,0.068-1.292,0.153
	c-0.88,0.236-1.238,0.667-1.373,0.902c-0.719,1.255-0.036,4.485,7.083,8.63c5.49,3.195,8.336,3.127,9.546,2.806
	c0.888-0.238,1.256-0.687,1.397-0.933c0.669-1.169,0.051-4.477-7.084-8.63C9.872,6.259,7.241,5.693,5.652,5.693z"/>
</svg>






