<?xml version="1.0" encoding="iso-8859-1"?>
<svg version="1.1" id="&#x56FE;&#x5C42;_1" xmlns="http://www.w3.org/2000/svg" xmlns:xlink="http://www.w3.org/1999/xlink" x="0px"
	 y="0px" viewBox="0 0 24 24" style="enable-background:new 0 0 24 24;" xml:space="preserve">
<path style="fill:#333333;" d="M12,22.5C6.21,22.5,1.5,17.79,1.5,12C1.5,6.21,6.21,1.5,12,1.5c5.79,0,10.5,4.71,10.5,10.5
	C22.5,17.79,17.79,22.5,12,22.5z M12,2.5c-5.238,0-9.5,4.262-9.5,9.5s4.262,9.5,9.5,9.5s9.5-4.262,9.5-9.5S17.238,2.5,12,2.5z"/>
<path style="fill:#333333;" d="M12,18c-2.777,0-3.901-2.184-3.947-2.276l0.895-0.447C8.982,15.345,9.855,17,12,17
	c2.145,0,3.018-1.655,3.054-1.726l0.894,0.449C15.9,15.816,14.777,18,12,18z"/>
<path style="fill:#333333;" d="M10.015,10.623C10.011,10.606,9.588,9,8.5,9s-1.511,1.606-1.515,1.623l-0.97-0.244
	C6.039,10.282,6.631,8,8.5,8s2.461,2.282,2.485,2.379L10.015,10.623z"/>
<path style="fill:#333333;" d="M17.016,10.623C17.011,10.606,16.588,9,15.5,9s-1.511,1.606-1.516,1.623l-0.97-0.244
	C13.039,10.282,13.631,8,15.5,8s2.461,2.282,2.485,2.379L17.016,10.623z"/>
</svg>






