<?xml version="1.0" encoding="iso-8859-1"?>
<svg version="1.1" id="&#x56FE;&#x5C42;_1" xmlns="http://www.w3.org/2000/svg" xmlns:xlink="http://www.w3.org/1999/xlink" x="0px"
	 y="0px" viewBox="0 0 24 24" style="enable-background:new 0 0 24 24;" xml:space="preserve">
<rect x="3.5" y="8.764" transform="matrix(0.4472 -0.8944 0.8944 0.4472 -7.6276 9.6584)" style="fill:#333333;" width="1" height="4.472"/>
<rect x="3.5" y="9" style="fill:#333333;" width="1" height="2"/>
<rect x="19.5" y="9" style="fill:#333333;" width="1" height="2"/>
<path style="fill:#333333;" d="M12,8.5c-1.93,0-3.5-1.57-3.5-3.5s1.57-3.5,3.5-3.5s3.5,1.57,3.5,3.5S13.93,8.5,12,8.5z M12,2.5
	c-1.378,0-2.5,1.122-2.5,2.5s1.122,2.5,2.5,2.5c1.379,0,2.5-1.122,2.5-2.5S13.379,2.5,12,2.5z"/>
<path style="fill:#333333;" d="M12,22.5c-3.86,0-7-3.364-7-7.5s3.14-7.5,7-7.5c3.859,0,7,3.364,7,7.5S15.859,22.5,12,22.5z M12,8.5
	c-3.309,0-6,2.916-6,6.5s2.691,6.5,6,6.5s6-2.916,6-6.5S15.309,8.5,12,8.5z"/>
<circle style="fill:#333333;" cx="12" cy="13" r="1"/>
<circle style="fill:#333333;" cx="12" cy="15.5" r="1"/>
<circle style="fill:#333333;" cx="12" cy="18" r="1"/>
<rect x="17.764" y="10.5" transform="matrix(0.8944 -0.4472 0.4472 0.8944 -2.8079 10.1056)" style="fill:#333333;" width="4.472" height="1"/>
</svg>






