<?xml version="1.0" encoding="iso-8859-1"?>
<svg version="1.1" id="&#x56FE;&#x5C42;_1" xmlns="http://www.w3.org/2000/svg" xmlns:xlink="http://www.w3.org/1999/xlink" x="0px"
	 y="0px" viewBox="0 0 24 24" style="enable-background:new 0 0 24 24;" xml:space="preserve">
<rect x="11.5" y="2" style="fill:#333333;" width="1" height="20"/>
<rect x="11.523" y="2" transform="matrix(0.5 -0.866 0.866 0.5 -4.381 16.412)" style="fill:#333333;" width="1" height="20"/>
<rect x="2.023" y="11.5" transform="matrix(0.8658 -0.5003 0.5003 0.8658 -4.3939 7.6142)" style="fill:#333333;" width="19.955" height="1"/>
<polygon style="fill:#333333;" points="3.108,10.988 2.892,10.012 6.851,9.132 5.526,5.158 6.474,4.842 8.15,9.868 "/>
<polygon style="fill:#333333;" points="6.474,19.158 5.526,18.842 6.851,14.868 2.892,13.988 3.108,13.012 8.15,14.132 "/>
<polygon style="fill:#333333;" points="20.892,10.988 15.851,9.868 17.525,4.842 18.475,5.158 17.149,9.132 21.108,10.012 "/>
<polygon style="fill:#333333;" points="17.525,19.158 15.851,14.132 20.892,13.012 21.108,13.988 17.149,14.868 18.475,18.842 "/>
<polygon style="fill:#333333;" points="12,7.207 8.646,3.854 9.354,3.146 12,5.793 14.646,3.146 15.354,3.854 "/>
<polygon style="fill:#333333;" points="14.646,20.854 12,18.207 9.354,20.854 8.646,20.146 12,16.793 15.354,20.146 "/>
</svg>






