<?xml version="1.0" encoding="iso-8859-1"?>
<svg version="1.1" id="&#x56FE;&#x5C42;_1" xmlns="http://www.w3.org/2000/svg" xmlns:xlink="http://www.w3.org/1999/xlink" x="0px"
	 y="0px" viewBox="0 0 24 24" style="enable-background:new 0 0 24 24;" xml:space="preserve">
<path style="fill:#333333;" d="M11,22.5c-4.687,0-8.5-3.364-8.5-7.5S6.313,7.5,11,7.5c4.687,0,8.5,3.364,8.5,7.5
	S15.687,22.5,11,22.5z M11,8.5c-4.136,0-7.5,2.916-7.5,6.5s3.364,6.5,7.5,6.5s7.5-2.916,7.5-6.5S15.136,8.5,11,8.5z"/>
<path style="fill:#333333;" d="M15.015,14.621c-0.419-1.676-1.48-2.051-2.076-2.125l0.123-0.992
	c0.685,0.085,2.339,0.535,2.924,2.875L15.015,14.621z"/>
<path style="fill:#333333;" d="M4,6.5C2.622,6.5,1.5,5.378,1.5,4S2.622,1.5,4,1.5S6.5,2.622,6.5,4S5.378,6.5,4,6.5z M4,2.5
	C3.173,2.5,2.5,3.173,2.5,4S3.173,5.5,4,5.5S5.5,4.827,5.5,4S4.827,2.5,4,2.5z"/>
<path style="fill:#333333;" d="M20.5,8.5c-1.103,0-2-0.897-2-2s0.897-2,2-2s2,0.897,2,2S21.603,8.5,20.5,8.5z M20.5,5.5
	c-0.552,0-1,0.449-1,1s0.448,1,1,1s1-0.449,1-1S21.052,5.5,20.5,5.5z"/>
</svg>






