<?xml version="1.0" encoding="iso-8859-1"?>
<svg version="1.1" id="&#x56FE;&#x5C42;_1" xmlns="http://www.w3.org/2000/svg" xmlns:xlink="http://www.w3.org/1999/xlink" x="0px"
	 y="0px" viewBox="0 0 24 24" style="enable-background:new 0 0 24 24;" xml:space="preserve">
<path style="fill:#333333;" d="M14.5,7.5c-1.654,0-3-1.346-3-3s1.346-3,3-3s3,1.346,3,3S16.154,7.5,14.5,7.5z M14.5,2.5
	c-1.103,0-2,0.897-2,2s0.897,2,2,2s2-0.897,2-2S15.603,2.5,14.5,2.5z"/>
<path style="fill:#333333;" d="M9.5,23c0.828,0,1.5-0.672,1.5-1.5S10.328,20,9.5,20S8,20.672,8,21.5S8.672,23,9.5,23z"/>
<path style="fill:#333333;" d="M15.021,22.145l-1.515-5.02c-0.029-0.081-0.086-0.164-0.159-0.221l-3.666-3.019l-0.122-0.624
	l2.19-4.045l0.879,0.477l-1.994,3.683l3.337,2.748c0.214,0.165,0.385,0.407,0.484,0.69l1.521,5.041L15.021,22.145z"/>
<path style="fill:#333333;" d="M6.423,18.258c-0.196,0-0.394-0.038-0.582-0.117l-4.033-1.679l0.385-0.924l4.035,1.68
	c0.221,0.096,0.48,0.019,0.615-0.18l2.751-3.83l0.812,0.584l-2.745,3.82C7.379,18.024,6.908,18.258,6.423,18.258z"/>
<path style="fill:#333333;" d="M21,12.5h-3.5c-0.271,0-0.535-0.069-0.767-0.2l-1.604-0.904c-1.958-1.147-4.084-1.931-6.328-2.333
	L7.193,8.777c-0.11-0.019-0.231,0-0.332,0.056l-3.133,1.612l-0.457-0.89l3.12-1.605C6.68,7.792,7.03,7.732,7.368,7.793l1.609,0.285
	c2.361,0.424,4.598,1.248,6.651,2.451l1.598,0.9c0.082,0.046,0.177,0.071,0.274,0.071H21V12.5z"/>
</svg>






