<?xml version="1.0" encoding="iso-8859-1"?>
<svg version="1.1" id="&#x56FE;&#x5C42;_1" xmlns="http://www.w3.org/2000/svg" xmlns:xlink="http://www.w3.org/1999/xlink" x="0px"
	 y="0px" viewBox="0 0 24 24" style="enable-background:new 0 0 24 24;" xml:space="preserve">
<path style="fill:#333333;" d="M11.99,22.501c-1.635,0-3.258-0.387-4.757-1.15c-2.5-1.273-4.353-3.442-5.218-6.108
	s-0.642-5.511,0.63-8.009c1.273-2.5,3.443-4.353,6.11-5.219c2.667-0.866,5.509-0.642,8.009,0.63c2.5,1.273,4.354,3.443,5.219,6.11
	c0.865,2.667,0.642,5.511-0.63,8.009c-1.273,2.5-3.443,4.354-6.11,5.219C14.176,22.329,13.08,22.501,11.99,22.501z M12.008,2.496
	c-0.987,0-1.979,0.155-2.945,0.469l0,0C6.65,3.749,4.687,5.425,3.535,7.687c-1.151,2.261-1.354,4.834-0.57,7.247
	c0.783,2.411,2.46,4.374,4.721,5.526c2.261,1.151,4.835,1.354,7.247,0.571c2.413-0.783,4.376-2.46,5.527-4.722
	c1.151-2.26,1.354-4.833,0.57-7.247s-2.46-4.376-4.722-5.528C14.954,2.845,13.486,2.496,12.008,2.496z"/>
<path style="fill:#333333;" d="M15,17H9l-0.474-0.342l-2-6l0.162-0.549l5-4h0.625l5,4l0.162,0.549l-2,6L15,17z M9.36,16h5.279
	l1.775-5.327L12,7.14l-4.416,3.533L9.36,16z"/>
<rect x="16.878" y="9.25" transform="matrix(0.9486 -0.3165 0.3165 0.9486 -2.0964 6.5943)" style="fill:#333333;" width="4.743" height="1"/>
<rect x="16" y="15.945" transform="matrix(0.7593 -0.6508 0.6508 0.7593 -7.9047 15.1316)" style="fill:#333333;" width="1" height="4.61"/>
<rect x="5.195" y="17.75" transform="matrix(0.6508 -0.7593 0.7593 0.6508 -11.2374 12.0675)" style="fill:#333333;" width="4.61" height="0.999"/>
<rect x="4.25" y="7.378" transform="matrix(0.3162 -0.9487 0.9487 0.3162 -6.0017 11.173)" style="fill:#333333;" width="1" height="4.743"/>
<rect x="11.5" y="2" style="fill:#333333;" width="1" height="4.5"/>
</svg>






