<?xml version="1.0" encoding="iso-8859-1"?>
<svg version="1.1" id="&#x56FE;&#x5C42;_1" xmlns="http://www.w3.org/2000/svg" xmlns:xlink="http://www.w3.org/1999/xlink" x="0px"
	 y="0px" viewBox="0 0 24 24" style="enable-background:new 0 0 24 24;" xml:space="preserve">
<path style="fill:#333333;" d="M16.146,17.854c-0.708-0.708-2.917-3.272-1.61-6.539C15.661,8.5,18.483,8.5,20,8.5v1
	c-1.458,0-3.661,0-4.536,2.186c-1.079,2.698,0.791,4.862,1.39,5.461L16.146,17.854z"/>
<rect x="9" y="4.5" style="fill:#333333;" width="11" height="1"/>
<path style="fill:#333333;" d="M8.413,22.452c-1.306,0-2.62-0.452-3.766-1.599c-1.525-1.524-1.817-3.14-1.794-4.226
	c0.032-1.514,0.691-2.97,1.809-3.996C6.207,11.214,7.938,9.794,8.5,9.337V3c0-0.827,0.673-1.5,1.5-1.5h9c0.827,0,1.5,0.673,1.5,1.5
	v9.144c0,1.864-0.885,3.646-2.366,4.769c-1.856,1.408-4.291,3.244-5.344,3.995C11.545,21.797,9.984,22.452,8.413,22.452z M10,2.5
	C9.725,2.5,9.5,2.724,9.5,3v6.816l-0.188,0.15c-0.021,0.017-2.134,1.712-3.974,3.402c-0.918,0.843-1.46,2.039-1.486,3.281
	c-0.027,1.278,0.492,2.487,1.501,3.497c2.689,2.69,6.183,0.428,6.855-0.054c1.098-0.783,3.805-2.828,5.321-3.978
	c1.233-0.935,1.97-2.419,1.97-3.972V3c0-0.276-0.225-0.5-0.5-0.5H10z"/>
</svg>






