<?xml version="1.0" encoding="iso-8859-1"?>
<svg version="1.1" id="&#x56FE;&#x5C42;_1" xmlns="http://www.w3.org/2000/svg" xmlns:xlink="http://www.w3.org/1999/xlink" x="0px"
	 y="0px" viewBox="0 0 24 24" style="enable-background:new 0 0 24 24;" xml:space="preserve">
<path style="fill:#333333;" d="M6.5,18h-5v-8h5V18z M2.5,17h3v-6h-3V17z"/>
<path style="fill:#333333;" d="M22.5,18h-5v-8h5V18z M18.5,17h3v-6h-3V17z"/>
<path style="fill:#333333;" d="M18.5,18h-13v-5h13V18z M6.5,17h11v-3h-11V17z"/>
<polygon style="fill:#333333;" points="20.5,10 19.5,10 19.5,4.5 4.5,4.5 4.5,10 3.5,10 3.5,3.5 20.5,3.5 "/>
<rect x="3.5" y="18" style="fill:#333333;" width="1" height="2"/>
<rect x="19.5" y="18" style="fill:#333333;" width="1" height="2"/>
</svg>






