<?xml version="1.0" encoding="iso-8859-1"?>
<svg version="1.1" id="&#x56FE;&#x5C42;_1" xmlns="http://www.w3.org/2000/svg" xmlns:xlink="http://www.w3.org/1999/xlink" x="0px"
	 y="0px" viewBox="0 0 24 24" style="enable-background:new 0 0 24 24;" xml:space="preserve">
<path style="fill:#333333;" d="M21,16.5H3c-0.827,0-1.5-0.673-1.5-1.5V5c0-0.827,0.673-1.5,1.5-1.5h18c0.827,0,1.5,0.673,1.5,1.5v10
	C22.5,15.827,21.827,16.5,21,16.5z M3,4.5C2.724,4.5,2.5,4.724,2.5,5v10c0,0.275,0.224,0.5,0.5,0.5h18c0.275,0,0.5-0.225,0.5-0.5V5
	c0-0.276-0.225-0.5-0.5-0.5H3z"/>
<rect x="14.5" y="4" style="fill:#333333;" width="1" height="12"/>
<rect x="8.5" y="4" style="fill:#333333;" width="1" height="12"/>
<rect x="3" y="9.5" style="fill:#333333;" width="18" height="1"/>
<rect x="11.5" y="16" style="fill:#333333;" width="1" height="4.5"/>
<rect x="8.5" y="20" style="fill:#333333;" width="7" height="1"/>
</svg>






