<?xml version="1.0" encoding="iso-8859-1"?>
<svg version="1.1" id="&#x56FE;&#x5C42;_1" xmlns="http://www.w3.org/2000/svg" xmlns:xlink="http://www.w3.org/1999/xlink" x="0px"
	 y="0px" viewBox="0 0 24 24" style="enable-background:new 0 0 24 24;" xml:space="preserve">
<path style="fill:#333333;" d="M8,21.5H4.5v-7H8c1.93,0,3.5,1.57,3.5,3.5S9.93,21.5,8,21.5z M5.5,20.5H8c1.378,0,2.5-1.121,2.5-2.5
	S9.378,15.5,8,15.5H5.5V20.5z"/>
<rect x="4.5" y="14" style="fill:#333333;" width="1" height="8"/>
<rect x="2" y="15.5" style="fill:#333333;" width="3" height="1"/>
<rect x="2" y="18.5" style="fill:#333333;" width="3" height="1"/>
<path style="fill:#333333;" d="M15,18.5h-4v-1h4c0.275,0,0.5-0.225,0.5-0.5v-5.5h1V17C16.5,17.827,15.827,18.5,15,18.5z"/>
<rect x="15.5" y="2" style="fill:#333333;" width="1" height="3.5"/>
<rect x="12" y="3.5" transform="matrix(0.7071 -0.7071 0.7071 0.7071 0.1256 10.3033)" style="fill:#333333;" width="1" height="3"/>
<rect x="11" y="11" transform="matrix(0.7071 -0.7071 0.7071 0.7071 -4.4706 12.2071)" style="fill:#333333;" width="3" height="1"/>
<rect x="18" y="4.5" transform="matrix(0.7071 -0.7071 0.7071 0.7071 2.1759 15.253)" style="fill:#333333;" width="3" height="1"/>
<rect x="19" y="10" transform="matrix(0.7071 -0.7071 0.7071 0.7071 -2.4203 17.1569)" style="fill:#333333;" width="1" height="3"/>
<path style="fill:#333333;" d="M16,12c-1.93,0-3.5-1.57-3.5-3.5S14.07,5,16,5s3.5,1.57,3.5,3.5S17.93,12,16,12z M16,6
	c-1.379,0-2.5,1.122-2.5,2.5S14.621,11,16,11s2.5-1.122,2.5-2.5S17.379,6,16,6z"/>
<rect x="10" y="8" style="fill:#333333;" width="3" height="1"/>
<rect x="19" y="8" style="fill:#333333;" width="3" height="1"/>
</svg>






