<?xml version="1.0" encoding="iso-8859-1"?>
<svg version="1.1" id="&#x56FE;&#x5C42;_1" xmlns="http://www.w3.org/2000/svg" xmlns:xlink="http://www.w3.org/1999/xlink" x="0px"
	 y="0px" viewBox="0 0 24 24" style="enable-background:new 0 0 24 24;" xml:space="preserve">
<path style="fill:#333333;" d="M12,20.5c-0.429,0-10.5-0.028-10.5-2.5c0-0.384,0-1.534,4.604-2.155l2.364-8.791l-1.415-2.83
	l0.605-0.698L13.881,5.6l3.978,10.24C22.5,16.459,22.5,17.615,22.5,18C22.5,20.472,12.429,20.5,12,20.5z M8.487,4.856l1.045,2.09
	l-2.637,9.807l-0.334,0.041c-3.168,0.391-4.015,1.021-4.062,1.211C2.717,18.522,6.082,19.5,12,19.5s9.283-0.978,9.504-1.524
	c-0.05-0.16-0.896-0.791-4.065-1.182l-0.296-0.036L13.119,6.4L8.487,4.856z"/>
</svg>






