<?xml version="1.0" encoding="iso-8859-1"?>
<svg version="1.1" id="&#x56FE;&#x5C42;_1" xmlns="http://www.w3.org/2000/svg" xmlns:xlink="http://www.w3.org/1999/xlink" x="0px"
	 y="0px" viewBox="0 0 24 24" style="enable-background:new 0 0 24 24;" xml:space="preserve">
<path style="fill:#333333;" d="M21.5,7h-1V6c0-1.378-1.121-2.5-2.5-2.5H6C4.622,3.5,3.5,4.622,3.5,6v1h-1V6c0-1.93,1.57-3.5,3.5-3.5
	h12c1.93,0,3.5,1.57,3.5,3.5V7z"/>
<rect x="15.5" y="9" style="fill:#333333;" width="1" height="6"/>
<rect x="19.5" y="10" style="fill:#333333;" width="1" height="4"/>
<rect x="11.5" y="7.5" style="fill:#333333;" width="1" height="9"/>
<rect x="7.5" y="9" style="fill:#333333;" width="1" height="6"/>
<rect x="3.5" y="10" style="fill:#333333;" width="1" height="4"/>
<path style="fill:#333333;" d="M18,21.5H6c-1.93,0-3.5-1.57-3.5-3.5v-1h1v1c0,1.379,1.122,2.5,2.5,2.5h12c1.379,0,2.5-1.121,2.5-2.5
	v-1h1v1C21.5,19.93,19.93,21.5,18,21.5z"/>
</svg>






