<?xml version="1.0" encoding="iso-8859-1"?>
<svg version="1.1" id="&#x56FE;&#x5C42;_1" xmlns="http://www.w3.org/2000/svg" xmlns:xlink="http://www.w3.org/1999/xlink" x="0px"
	 y="0px" viewBox="0 0 24 24" style="enable-background:new 0 0 24 24;" xml:space="preserve">
<path style="fill:#333333;" d="M19,22.5H5c-0.827,0-1.5-0.673-1.5-1.5V3c0-0.827,0.673-1.5,1.5-1.5h14c0.827,0,1.5,0.673,1.5,1.5v18
	C20.5,21.827,19.827,22.5,19,22.5z M5,2.5C4.724,2.5,4.5,2.724,4.5,3v18c0,0.275,0.224,0.5,0.5,0.5h14c0.275,0,0.5-0.225,0.5-0.5V3
	c0-0.276-0.225-0.5-0.5-0.5H5z"/>
<path style="fill:#333333;" d="M12,10.5c-1.654,0-3-1.346-3-3s1.346-3,3-3s3,1.346,3,3S13.654,10.5,12,10.5z M12,5.5
	c-1.103,0-2,0.897-2,2s0.897,2,2,2c1.103,0,2-0.897,2-2S13.103,5.5,12,5.5z"/>
<circle style="fill:#333333;" cx="7" cy="5" r="1"/>
<circle style="fill:#333333;" cx="7" cy="19" r="1"/>
<circle style="fill:#333333;" cx="17" cy="5" r="1"/>
<circle style="fill:#333333;" cx="17" cy="19" r="1"/>
<path style="fill:#333333;" d="M12,19.5c-1.93,0-3.5-1.57-3.5-3.5s1.57-3.5,3.5-3.5s3.5,1.57,3.5,3.5S13.93,19.5,12,19.5z M12,13.5
	c-1.378,0-2.5,1.121-2.5,2.5s1.122,2.5,2.5,2.5c1.379,0,2.5-1.121,2.5-2.5S13.379,13.5,12,13.5z"/>
</svg>






