<?xml version="1.0" encoding="iso-8859-1"?>
<svg version="1.1" id="&#x56FE;&#x5C42;_1" xmlns="http://www.w3.org/2000/svg" xmlns:xlink="http://www.w3.org/1999/xlink" x="0px"
	 y="0px" viewBox="0 0 24 24" style="enable-background:new 0 0 24 24;" xml:space="preserve">
<path style="fill:#333333;" d="M11.5,20.5h-8c-1.103,0-2-0.897-2-2v-13c0-1.103,0.897-2,2-2h17c1.103,0,2,0.897,2,2v7.441h-1V5.5
	c0-0.551-0.448-1-1-1h-17c-0.551,0-1,0.449-1,1v13c0,0.552,0.449,1,1,1h8V20.5z"/>
<path style="fill:#333333;" d="M22.5,10.5h-21v-5c0-1.103,0.897-2,2-2h17c1.103,0,2,0.897,2,2V10.5z M2.5,9.5h19v-4
	c0-0.551-0.448-1-1-1h-17c-0.551,0-1,0.449-1,1V9.5z"/>
<polygon style="fill:#333333;" points="16.646,20.854 14.293,18.5 16.646,16.146 17.354,16.854 15.707,18.5 17.354,20.146 "/>
<polygon style="fill:#333333;" points="20.354,20.854 19.646,20.146 21.293,18.5 19.646,16.854 20.354,16.146 22.707,18.5 "/>
<circle style="fill:#333333;" cx="5" cy="7" r="1"/>
<circle style="fill:#333333;" cx="8" cy="7" r="1"/>
</svg>






