<?xml version="1.0" encoding="iso-8859-1"?>
<svg version="1.1" id="&#x56FE;&#x5C42;_1" xmlns="http://www.w3.org/2000/svg" xmlns:xlink="http://www.w3.org/1999/xlink" x="0px"
	 y="0px" viewBox="0 0 24 24" style="enable-background:new 0 0 24 24;" xml:space="preserve">
<path style="fill:#333333;" d="M18.198,21.5H5.802c-0.708,0-1.311-0.483-1.464-1.175l-1.556-7c-0.099-0.446,0.008-0.907,0.294-1.264
	C3.363,11.705,3.79,11.5,4.247,11.5h15.506c0.458,0,0.884,0.205,1.171,0.562c0.286,0.356,0.393,0.817,0.294,1.264l-1.556,7
	C19.509,21.017,18.906,21.5,18.198,21.5z M3.759,13.108l1.556,7c0.051,0.23,0.251,0.392,0.488,0.392h12.396
	c0.236,0,0.437-0.161,0.487-0.392l1.556-7c0.033-0.148-0.003-0.303-0.098-0.421c-0.096-0.119-0.238-0.188-0.391-0.188H4.247
	c-0.152,0-0.294,0.068-0.39,0.188C3.761,12.806,3.726,12.96,3.759,13.108L3.759,13.108z"/>
<path style="fill:#333333;" d="M11.887,8.5c-0.848,0-1.676-0.566-2.11-1.444C9.359,6.214,9.414,5.311,9.923,4.642l0,0
	c0.683-0.897,1.217-2.159,1.503-2.836l0.862-0.103c0.542,0.731,1.699,2.539,2.078,3.534c0.254,0.669,0.142,1.429-0.311,2.085
	C13.556,8.048,12.725,8.5,11.887,8.5z M10.719,5.247L10.719,5.247c-0.274,0.36-0.292,0.871-0.046,1.365
	C10.936,7.143,11.424,7.5,11.887,7.5c0.513,0,1.029-0.286,1.346-0.746c0.263-0.38,0.335-0.804,0.198-1.162
	c-0.25-0.659-0.913-1.762-1.445-2.569C11.67,3.718,11.24,4.562,10.719,5.247z"/>
<rect x="11.5" y="8" style="fill:#333333;" width="1" height="4"/>
</svg>






