<?xml version="1.0" encoding="iso-8859-1"?>
<svg version="1.1" id="&#x56FE;&#x5C42;_1" xmlns="http://www.w3.org/2000/svg" xmlns:xlink="http://www.w3.org/1999/xlink" x="0px"
	 y="0px" viewBox="0 0 24 24" style="enable-background:new 0 0 24 24;" xml:space="preserve">
<path style="fill:#333333;" d="M21.5,21.5h-1V3c0-0.276-0.225-0.5-0.5-0.5h-3.5C16.225,2.5,16,2.724,16,3v9h-1V3
	c0-0.827,0.673-1.5,1.5-1.5H20c0.827,0,1.5,0.673,1.5,1.5V21.5z"/>
<path style="fill:#333333;" d="M21.5,22.5h-19V20c0-5.238,4.262-9.5,9.5-9.5s9.5,4.262,9.5,9.5V22.5z M3.5,21.5h17V20
	c0-4.687-3.813-8.5-8.5-8.5c-4.687,0-8.5,3.813-8.5,8.5V21.5z"/>
<rect x="3.5" y="4" style="fill:#333333;" width="1" height="11.5"/>
<rect x="7.5" y="7" style="fill:#333333;" width="1" height="5"/>
<rect x="15.5" y="6.5" style="fill:#333333;" width="5.5" height="1"/>
<path style="fill:#333333;" d="M16,21h-1v-1.5c0-4.715-1.581-8-3-8s-3,3.285-3,8V21H8v-1.5c0-5.131,1.72-9,4-9s4,3.869,4,9V21z"/>
<rect x="2" y="21.5" style="fill:#333333;" width="20" height="1"/>
<path style="fill:#333333;" d="M20.452,17.998C20.4,17.993,15.263,17.5,12,17.5c-3.263,0-8.4,0.493-8.452,0.498l-0.096-0.996
	C3.504,16.997,8.689,16.5,12,16.5c3.311,0,8.496,0.497,8.548,0.502L20.452,17.998z"/>
</svg>






