<?xml version="1.0" encoding="iso-8859-1"?>
<svg version="1.1" id="&#x56FE;&#x5C42;_1" xmlns="http://www.w3.org/2000/svg" xmlns:xlink="http://www.w3.org/1999/xlink" x="0px"
	 y="0px" viewBox="0 0 24 24" style="enable-background:new 0 0 24 24;" xml:space="preserve">
<path style="fill:#333333;" d="M4.864,21.999c-0.733,0-1.466-0.277-2.024-0.832C2.298,20.63,2,19.914,2,19.153
	s0.298-1.477,0.84-2.014l6.045-6.003c-0.295-0.765-0.444-1.571-0.444-2.402C8.442,5.021,11.483,2,15.221,2
	c1.036,0,2.031,0.227,2.956,0.673l0.637,0.307l-2.103,2.088c-0.352,0.349-0.545,0.812-0.545,1.305s0.193,0.957,0.545,1.306
	c0.727,0.722,1.912,0.721,2.639,0l1.982-1.967l0.267,0.735C21.865,7.179,22,7.948,22,8.734c0,3.713-3.041,6.734-6.779,6.734
	c-0.762,0-1.508-0.124-2.221-0.37l-6.113,6.068C6.33,21.722,5.596,21.999,4.864,21.999z M15.221,3c-3.187,0-5.779,2.572-5.779,5.734
	c0,0.807,0.165,1.587,0.491,2.317l0.141,0.315l-6.529,6.482C3.193,18.197,3,18.661,3,19.153s0.193,0.956,0.544,1.305
	c0.728,0.723,1.911,0.724,2.638,0l6.572-6.525l0.305,0.122c0.688,0.274,1.415,0.414,2.161,0.414c3.187,0,5.779-2.572,5.779-5.734
	c0-0.395-0.04-0.785-0.119-1.167l-0.826,0.82c-1.115,1.106-2.932,1.108-4.049,0c-0.541-0.539-0.84-1.254-0.84-2.016
	c0-0.761,0.299-1.476,0.84-2.014L17.072,3.3C16.479,3.101,15.859,3,15.221,3z"/>
</svg>






