<?xml version="1.0" encoding="iso-8859-1"?>
<svg version="1.1" id="&#x56FE;&#x5C42;_1" xmlns="http://www.w3.org/2000/svg" xmlns:xlink="http://www.w3.org/1999/xlink" x="0px"
	 y="0px" viewBox="0 0 24 24" style="enable-background:new 0 0 24 24;" xml:space="preserve">
<path style="fill:#333333;" d="M19,23.5H5c-0.827,0-1.5-0.673-1.5-1.5V2c0-0.827,0.673-1.5,1.5-1.5h14c0.827,0,1.5,0.673,1.5,1.5v20
	C20.5,22.827,19.827,23.5,19,23.5z M5,1.5C4.724,1.5,4.5,1.724,4.5,2v20c0,0.275,0.224,0.5,0.5,0.5h14c0.275,0,0.5-0.225,0.5-0.5V2
	c0-0.276-0.225-0.5-0.5-0.5H5z"/>
<path style="fill:#333333;" d="M12,19.5c-1.93,0-3.5-1.57-3.5-3.5s1.57-3.5,3.5-3.5s3.5,1.57,3.5,3.5S13.93,19.5,12,19.5z M12,13.5
	c-1.378,0-2.5,1.121-2.5,2.5s1.122,2.5,2.5,2.5c1.379,0,2.5-1.121,2.5-2.5S13.379,13.5,12,13.5z"/>
<path style="fill:#333333;" d="M12,9.5c-1.378,0-2.5-1.122-2.5-2.5s1.122-2.5,2.5-2.5c1.379,0,2.5,1.122,2.5,2.5S13.379,9.5,12,9.5z
	 M12,5.5c-0.827,0-1.5,0.673-1.5,1.5s0.673,1.5,1.5,1.5s1.5-0.673,1.5-1.5S12.827,5.5,12,5.5z"/>
</svg>






