<?xml version="1.0" encoding="iso-8859-1"?>
<svg version="1.1" id="&#x56FE;&#x5C42;_1" xmlns="http://www.w3.org/2000/svg" xmlns:xlink="http://www.w3.org/1999/xlink" x="0px"
	 y="0px" viewBox="0 0 24 24" style="enable-background:new 0 0 24 24;" xml:space="preserve">
<g>
	<defs>
		<rect id="SVGID_1_" width="24" height="24"/>
	</defs>
	<clipPath id="SVGID_00000093895893757414229500000010130574250519066025_">
		<use xlink:href="#SVGID_1_"  style="overflow:visible;"/>
	</clipPath>
	<g style="clip-path:url(#SVGID_00000093895893757414229500000010130574250519066025_);">
		<path style="fill:#333333;" d="M12.503,15.122c-0.574,0-1.215-0.234-1.867-0.689c-0.346-0.243-0.588-0.538-0.823-0.824
			c-0.261-0.317-0.53-0.646-0.981-0.962l0,0c-0.417-0.291-0.683-0.349-0.965-0.41c-0.325-0.07-0.694-0.15-1.137-0.543
			c-0.789-0.701-1.067-1.177-1.145-1.962C5.504,8.898,6.312,7.564,7.832,5.394c2.138-3.053,6.475-4.653,8.599-3.167
			c1.024,0.717,1.602,2.205,1.583,4.082c-0.019,1.823-0.598,3.683-1.591,5.1c-0.175,0.25-0.344,0.5-0.51,0.746
			c-0.835,1.236-1.624,2.404-2.721,2.84C12.978,15.079,12.746,15.122,12.503,15.122z M9.405,11.828
			c0.563,0.394,0.892,0.794,1.181,1.146c0.209,0.256,0.39,0.476,0.624,0.64c0.623,0.436,1.227,0.604,1.613,0.451
			c0.811-0.321,1.515-1.365,2.261-2.47c0.17-0.25,0.343-0.506,0.521-0.76c0.879-1.256,1.393-2.91,1.409-4.536
			c0.015-1.519-0.418-2.735-1.157-3.252c-1.508-1.059-5.276,0.167-7.205,2.92c-0.638,0.911-2.131,3.044-2.07,3.666
			c0.048,0.485,0.172,0.743,0.813,1.312c0.247,0.219,0.412,0.255,0.685,0.314C8.412,11.331,8.825,11.421,9.405,11.828L9.405,11.828z
			"/>
		<path style="fill:#333333;" d="M7.524,16.617c-0.615,0-1.19-0.207-1.724-0.622c-0.614-0.477-0.955-1.06-1.013-1.73
			c-0.086-0.998,0.454-2.124,1.651-3.442l0.74,0.672c-0.986,1.085-1.455,1.989-1.395,2.684c0.033,0.388,0.24,0.724,0.63,1.027
			c0.396,0.308,1.601,1.245,4.243-1.452l0.715,0.699C9.96,15.895,8.673,16.617,7.524,16.617z"/>
		<path style="fill:#333333;" d="M8.32,22.513c-0.088,0-0.177-0.003-0.266-0.009c-1.314-0.082-2.453-0.748-3.205-1.875
			c-1.119-1.674-0.815-3.475,0.901-5.353l0.738,0.674c-1.385,1.516-1.649,2.864-0.808,4.124c0.575,0.861,1.44,1.37,2.436,1.432
			c0.988,0.066,1.948-0.328,2.567-1.042c0.2-0.23,0.424-0.509,0.67-0.814c1.607-1.994,4.033-5.007,6.874-4.203
			c1.886,0.537,2.49,1.948,2.434,2.994c-0.063,1.198-0.894,2.169-2.017,2.362l-0.17-0.986c0.661-0.113,1.149-0.701,1.188-1.429
			c0.049-0.921-0.59-1.661-1.709-1.979c-2.199-0.623-4.38,2.079-5.822,3.868c-0.255,0.316-0.487,0.604-0.693,0.842
			C10.674,22.003,9.523,22.513,8.32,22.513z"/>
	</g>
</g>
</svg>






