<?xml version="1.0" encoding="iso-8859-1"?>
<svg version="1.1" id="&#x56FE;&#x5C42;_1" xmlns="http://www.w3.org/2000/svg" xmlns:xlink="http://www.w3.org/1999/xlink" x="0px"
	 y="0px" viewBox="0 0 24 24" style="enable-background:new 0 0 24 24;" xml:space="preserve">
<path style="fill:#333333;" d="M12,16.5c-5.888,0-10.5-1.977-10.5-4.5S6.112,7.5,12,7.5S22.5,9.477,22.5,12S17.888,16.5,12,16.5z
	 M12,8.5c-5.599,0-9.5,1.845-9.5,3.5s3.901,3.5,9.5,3.5s9.5-1.845,9.5-3.5S17.599,8.5,12,8.5z"/>
<path style="fill:#333333;" d="M12,22.5c-2.523,0-4.5-4.612-4.5-10.5S9.477,1.5,12,1.5s4.5,4.612,4.5,10.5S14.523,22.5,12,22.5z
	 M12,2.5c-1.655,0-3.5,3.901-3.5,9.5s1.845,9.5,3.5,9.5s3.5-3.901,3.5-9.5S13.655,2.5,12,2.5z"/>
<path style="fill:#333333;" d="M12,22.5C6.21,22.5,1.5,17.79,1.5,12C1.5,6.21,6.21,1.5,12,1.5c5.79,0,10.5,4.71,10.5,10.5
	C22.5,17.79,17.79,22.5,12,22.5z M12,2.5c-5.238,0-9.5,4.262-9.5,9.5s4.262,9.5,9.5,9.5s9.5-4.262,9.5-9.5S17.238,2.5,12,2.5z"/>
</svg>






