<?xml version="1.0" encoding="iso-8859-1"?>
<svg version="1.1" id="&#x56FE;&#x5C42;_1" xmlns="http://www.w3.org/2000/svg" xmlns:xlink="http://www.w3.org/1999/xlink" x="0px"
	 y="0px" viewBox="0 0 24 24" style="enable-background:new 0 0 24 24;" xml:space="preserve">
<path style="fill:#333333;" d="M12.227,22.812c-2.289,0-4.415-1.59-5.023-2.198C6.989,20.4,6.786,20.16,6.598,19.899
	c-0.349-0.487-0.311-1.14,0.095-1.587c0.128-0.141,0.272-0.286,0.429-0.424c-0.286,0.024-0.562-0.045-0.799-0.192
	c-0.343-0.214-0.557-0.571-0.588-0.98c-0.077-1.002,0.009-2.929,1.447-4.572c0.598-0.683,1.217-1.228,1.841-1.62l0.532,0.847
	c-0.542,0.34-1.087,0.822-1.62,1.431c-1.197,1.368-1.268,2.992-1.203,3.838c0.007,0.093,0.047,0.162,0.121,0.208
	c0.086,0.054,0.202,0.062,0.312,0.017c0.422-0.168,0.762-0.334,0.982-0.48c0.402-0.269,0.43-0.474,0.491-0.924
	c0.033-0.243,0.07-0.519,0.177-0.838c0.387-1.161,1.822-1.825,3.191-1.48c1.281,0.32,2.109,1.303,2.109,2.504
	c0,1.273-0.653,2.309-1.749,2.769c-1.013,0.427-1.682,0.229-2.454,0.002c-0.289-0.085-0.614-0.182-1.01-0.261
	c-0.382-0.079-0.919,0.225-1.467,0.829c-0.088,0.098-0.098,0.228-0.023,0.331c0.155,0.217,0.324,0.416,0.5,0.592
	c0.464,0.465,2.61,2.141,4.777,1.877c2.017-0.252,3.943-1.755,4.794-3.739c0.799-1.863,0.225-4.353-1.307-5.666l0.65-0.759
	c1.875,1.607,2.553,4.539,1.576,6.819c-0.986,2.3-3.232,4.043-5.591,4.337C12.615,22.801,12.42,22.812,12.227,22.812z M8.804,17.143
	c0.097,0.002,0.195,0.013,0.293,0.032c0.43,0.086,0.783,0.189,1.097,0.282c0.733,0.215,1.101,0.326,1.784,0.035
	c0.989-0.415,1.137-1.335,1.137-1.847c0-0.578-0.355-1.284-1.352-1.533c-0.939-0.239-1.808,0.247-2.001,0.826
	c-0.077,0.23-0.106,0.447-0.135,0.656C9.56,16.088,9.485,16.643,8.804,17.143z"/>
<path style="fill:#333333;" d="M16.053,12.224l-4.936-9.88c-0.48,0.324-0.713,0.724-0.607,1.189
	c0.264,1.166,1.757,6.328,2.441,7.751l-0.902,0.433c-0.756-1.576-2.277-6.917-2.514-7.962c-0.205-0.903,0.222-1.733,1.17-2.278
	c0.219-0.125,0.475-0.154,0.717-0.082c0.254,0.077,0.469,0.26,0.59,0.502l4.936,9.879L16.053,12.224z"/>
<path style="fill:#333333;" d="M9.635,11.841c-1.144-1.22-2.673-3.389-3.267-4.406c-0.47-0.806-0.307-1.732,0.448-2.541
	c0.167-0.179,0.395-0.282,0.641-0.289c0.258-0.015,0.512,0.091,0.702,0.271l3.435,3.26l-0.688,0.726l-3.435-3.26
	C7.097,6.06,6.991,6.516,7.233,6.931c0.569,0.977,2.037,3.058,3.132,4.227L9.635,11.841z"/>
</svg>






