<?xml version="1.0" encoding="iso-8859-1"?>
<svg version="1.1" id="&#x56FE;&#x5C42;_1" xmlns="http://www.w3.org/2000/svg" xmlns:xlink="http://www.w3.org/1999/xlink" x="0px"
	 y="0px" viewBox="0 0 24 24" style="enable-background:new 0 0 24 24;" xml:space="preserve">
<path style="fill:#333333;" d="M22,7.5h-8L13.5,7V3L14,2.5h8L22.5,3v4L22,7.5z M14.5,6.5h7v-3h-7V6.5z"/>
<path style="fill:#333333;" d="M21,19.5H4c-1.378,0-2.5-1.121-2.5-2.5v-3c0-2.481,2.019-4.5,4.5-4.5h7.5V7L14,6.5h8L22.5,7v11
	C22.5,18.827,21.827,19.5,21,19.5z M6,10.5c-1.93,0-3.5,1.57-3.5,3.5v3c0,0.827,0.673,1.5,1.5,1.5h17c0.28,0,0.5-0.22,0.5-0.5V7.5
	h-7V10L14,10.5H6z"/>
<rect x="6.5" y="10" style="fill:#333333;" width="1" height="3"/>
<rect x="10" y="10" style="fill:#333333;" width="1" height="3"/>
<rect x="7" y="19" style="fill:#333333;" width="1" height="2"/>
<rect x="3.5" y="19" style="fill:#333333;" width="1" height="2"/>
<rect x="10.5" y="19" style="fill:#333333;" width="1" height="2"/>
<rect x="16.5" y="19" style="fill:#333333;" width="1" height="2"/>
<rect x="20" y="19" style="fill:#333333;" width="1" height="2"/>
<rect x="6" y="9.5" style="fill:#333333;" width="5.5" height="1"/>
</svg>






