<?xml version="1.0" encoding="iso-8859-1"?>
<svg version="1.1" id="&#x56FE;&#x5C42;_1" xmlns="http://www.w3.org/2000/svg" xmlns:xlink="http://www.w3.org/1999/xlink" x="0px"
	 y="0px" viewBox="0 0 24 24" style="enable-background:new 0 0 24 24;" xml:space="preserve">
<path style="fill:#333333;" d="M9.5,22.5h-7c-0.551,0-1-0.448-1-1V17h1v4.5h7v-19h-7V7h-1V2.5c0-0.551,0.449-1,1-1h7
	c0.551,0,1,0.449,1,1v19C10.5,22.052,10.051,22.5,9.5,22.5z"/>
<path style="fill:#333333;" d="M21.5,22.5h-7c-0.552,0-1-0.448-1-1v-19c0-0.551,0.448-1,1-1h7c0.552,0,1,0.449,1,1V7h-1V2.5h-7v19h7
	V17h1v4.5C22.5,22.052,22.052,22.5,21.5,22.5z"/>
<rect x="14" y="11.503" style="fill:#333333;" width="8" height="1"/>
<rect x="2" y="11.503" style="fill:#333333;" width="8" height="1"/>
<polygon style="fill:#333333;" points="19.967,14.742 19.26,14.035 21.293,12.003 19.26,9.969 19.967,9.262 22.707,12.003 "/>
<polygon style="fill:#333333;" points="4.024,14.746 1.284,12.007 4.024,9.267 4.731,9.974 2.698,12.007 4.731,14.039 "/>
</svg>






