<?xml version="1.0" encoding="iso-8859-1"?>
<svg version="1.1" id="&#x56FE;&#x5C42;_1" xmlns="http://www.w3.org/2000/svg" xmlns:xlink="http://www.w3.org/1999/xlink" x="0px"
	 y="0px" viewBox="0 0 24 24" style="enable-background:new 0 0 24 24;" xml:space="preserve">
<path style="fill:#333333;" d="M7,22H6v-7c0-2.481,2.019-4.5,4.5-4.5h8v1h-8C8.57,11.5,7,13.07,7,15V22z"/>
<path style="fill:#333333;" d="M18.5,7.472c-1.654,0-3-1.346-3-3s1.346-3,3-3s3,1.346,3,3S20.154,7.472,18.5,7.472z M18.5,2.472
	c-1.103,0-2,0.897-2,2s0.897,2,2,2s2-0.897,2-2S19.603,2.472,18.5,2.472z"/>
<rect x="18" y="7" style="fill:#333333;" width="1" height="14.5"/>
<polygon style="fill:#333333;" points="18.5,22.707 15.646,19.854 16.354,19.146 18.5,21.293 20.646,19.146 21.354,19.854 "/>
<polygon style="fill:#333333;" points="6.5,22.707 3.646,19.854 4.354,19.146 6.5,21.293 8.646,19.146 9.354,19.854 "/>
</svg>






