<?xml version="1.0" encoding="iso-8859-1"?>
<svg version="1.1" id="&#x56FE;&#x5C42;_1" xmlns="http://www.w3.org/2000/svg" xmlns:xlink="http://www.w3.org/1999/xlink" x="0px"
	 y="0px" viewBox="0 0 24 24" style="enable-background:new 0 0 24 24;" xml:space="preserve">
<path style="fill:#333333;" d="M12,12.5c-3.033,0-5.5-2.467-5.5-5.5S8.967,1.5,12,1.5c3.032,0,5.5,2.467,5.5,5.5
	S15.032,12.5,12,12.5z M12,2.5C9.519,2.5,7.5,4.519,7.5,7s2.019,4.5,4.5,4.5s4.5-2.019,4.5-4.5S14.481,2.5,12,2.5z"/>
<rect x="11.5" y="12" style="fill:#333333;" width="1" height="6"/>
<path style="fill:#333333;" d="M12,22.5c-1.103,0-2-0.897-2-2v-1c0-1.103,0.897-2,2-2c1.103,0,2,0.897,2,2v1
	C14,21.603,13.103,22.5,12,22.5z M12,18.5c-0.551,0-1,0.448-1,1v1c0,0.552,0.449,1,1,1c0.552,0,1-0.448,1-1v-1
	C13,18.948,12.552,18.5,12,18.5z"/>
</svg>






