<?xml version="1.0" encoding="iso-8859-1"?>
<svg version="1.1" id="&#x56FE;&#x5C42;_1" xmlns="http://www.w3.org/2000/svg" xmlns:xlink="http://www.w3.org/1999/xlink" x="0px"
	 y="0px" viewBox="0 0 24 24" style="enable-background:new 0 0 24 24;" xml:space="preserve">
<path style="fill:#333333;" d="M18,8c-1.654,0-3-1.346-3-3s1.346-3,3-3s3,1.346,3,3S19.654,8,18,8z M18,3c-1.103,0-2,0.897-2,2
	s0.897,2,2,2s2-0.897,2-2S19.103,3,18,3z"/>
<polygon style="fill:#333333;" points="12.403,22.299 11.604,21.699 14.781,17.467 9.131,13.747 14.537,9.718 9.971,7.539 
	6.164,8.857 5.836,7.912 10.032,6.459 16.463,9.529 10.872,13.696 16.219,17.217 "/>
<polygon style="fill:#333333;" points="19.08,12.163 17.421,11.261 17.899,10.382 18.922,10.939 21.657,8.369 22.343,9.097 "/>
<polygon style="fill:#333333;" points="2.247,20.935 1.757,20.062 6.604,17.344 8.026,15.47 8.823,16.075 7.184,18.165 "/>
</svg>






