<?xml version="1.0" encoding="iso-8859-1"?>
<svg version="1.1" id="&#x56FE;&#x5C42;_1" xmlns="http://www.w3.org/2000/svg" xmlns:xlink="http://www.w3.org/1999/xlink" x="0px"
	 y="0px" viewBox="0 0 24 24" style="enable-background:new 0 0 24 24;" xml:space="preserve">
<path style="fill:#333333;" d="M19.5,19h-1V3c0-0.276-0.225-0.5-0.5-0.5H6C5.724,2.5,5.5,2.724,5.5,3v16h-1V3
	c0-0.827,0.673-1.5,1.5-1.5h12c0.827,0,1.5,0.673,1.5,1.5V19z"/>
<rect x="11.5" y="6.5" style="fill:#333333;" width="1" height="1"/>
<rect x="11.5" y="10.5" style="fill:#333333;" width="1" height="1"/>
<path style="fill:#333333;" d="M16,22.5H8c-1.93,0-3.5-1.57-3.5-3.5s1.57-3.5,3.5-3.5h8c1.93,0,3.5,1.57,3.5,3.5S17.93,22.5,16,22.5
	z M8,16.5c-1.378,0-2.5,1.121-2.5,2.5s1.122,2.5,2.5,2.5h8c1.379,0,2.5-1.121,2.5-2.5s-1.121-2.5-2.5-2.5H8z"/>
<rect x="8" y="19.5" style="fill:#333333;" width="1" height="2.5"/>
<rect x="10.5" y="19.5" style="fill:#333333;" width="1" height="2.5"/>
<rect x="13" y="19.5" style="fill:#333333;" width="1" height="2.5"/>
<circle style="fill:#333333;" cx="16" cy="19" r="1"/>
<rect x="7.5" y="21.5" style="fill:#333333;" width="7" height="1"/>
</svg>






