<?xml version="1.0" encoding="iso-8859-1"?>
<svg version="1.1" id="&#x56FE;&#x5C42;_1" xmlns="http://www.w3.org/2000/svg" xmlns:xlink="http://www.w3.org/1999/xlink" x="0px"
	 y="0px" viewBox="0 0 24 24" style="enable-background:new 0 0 24 24;" xml:space="preserve">
<path style="fill:#333333;" d="M10,21.5c-3.033,0-5.5-2.468-5.5-5.5c0-2.416,1.547-4.524,3.85-5.248l0.3,0.954
	C6.766,12.298,5.5,14.023,5.5,16c0,2.481,2.019,4.5,4.5,4.5c1.429,0,2.741-0.656,3.601-1.8c0.108-0.145,0.207-0.295,0.298-0.45
	l0.865,0.5c-0.11,0.192-0.232,0.376-0.364,0.551C13.351,20.698,11.747,21.5,10,21.5z"/>
<polygon style="fill:#333333;" points="19,22 18,22 18,15.5 10.691,15.5 14.191,8.5 9.5,8.5 8.9,9.3 8.1,8.7 9,7.5 15.809,7.5 
	12.309,14.5 19,14.5 "/>
<path style="fill:#333333;" d="M17,6.5c-1.379,0-2.5-1.122-2.5-2.5s1.121-2.5,2.5-2.5s2.5,1.122,2.5,2.5S18.379,6.5,17,6.5z M17,2.5
	c-0.827,0-1.5,0.673-1.5,1.5s0.673,1.5,1.5,1.5s1.5-0.673,1.5-1.5S17.827,2.5,17,2.5z"/>
</svg>






