<?xml version="1.0" encoding="iso-8859-1"?>
<svg version="1.1" id="&#x56FE;&#x5C42;_1" xmlns="http://www.w3.org/2000/svg" xmlns:xlink="http://www.w3.org/1999/xlink" x="0px"
	 y="0px" viewBox="0 0 24 24" style="enable-background:new 0 0 24 24;" xml:space="preserve">
<polygon style="fill:#333333;" points="21.5,22 2.5,22 2.5,17 15.5,17 15.5,18 3.5,18 3.5,21 20.5,21 20.5,17.5 21.5,17.5 "/>
<polygon style="fill:#333333;" points="14.706,14.059 2.148,9.489 3.858,4.79 19.363,10.434 19.021,11.373 4.456,6.071 3.429,8.891 
	15.048,13.119 "/>
<path style="fill:#333333;" d="M11.759,8.706l-0.484-0.155L3.542,5.684l1.253-3.381l0.522,0.138l4.758,1.764
	c1.625,0.603,2.457,2.414,1.854,4.039L11.759,8.706z M4.828,5.094l6.281,2.329c0.124-0.965-0.429-1.927-1.381-2.28L5.404,3.54
	L4.828,5.094z"/>
<path style="fill:#333333;" d="M7.224,14.069c-0.115,0-0.231-0.021-0.343-0.062l-3.288-1.197c-0.25-0.09-0.451-0.273-0.564-0.516
	c-0.114-0.242-0.125-0.515-0.034-0.766L3.679,9.65l0.939,0.342l-0.684,1.879l3.289,1.197l0.685-1.879l0.939,0.342L8.163,13.41
	c-0.091,0.251-0.275,0.452-0.517,0.564C7.512,14.037,7.368,14.069,7.224,14.069z"/>
<path style="fill:#333333;" d="M18,19c-2.206,0-4-1.794-4-4s1.794-4,4-4s4,1.794,4,4S20.206,19,18,19z M18,12c-1.654,0-3,1.346-3,3
	s1.346,3,3,3s3-1.346,3-3S19.654,12,18,12z"/>
</svg>






