<?xml version="1.0" encoding="iso-8859-1"?>
<svg version="1.1" id="&#x56FE;&#x5C42;_1" xmlns="http://www.w3.org/2000/svg" xmlns:xlink="http://www.w3.org/1999/xlink" x="0px"
	 y="0px" viewBox="0 0 24 24" style="enable-background:new 0 0 24 24;" xml:space="preserve">
<path style="fill:#333333;" d="M18.339,17.5H6.859l-1.5-6h15.379L18.339,17.5z M7.641,16.5h10.021l1.601-4H6.641L7.641,16.5z"/>
<polygon style="fill:#333333;" points="5.543,12.203 3.675,8 1.75,8 1.75,7 4.325,7 6.457,11.797 "/>
<path style="fill:#333333;" d="M10,22.5c-1.103,0-2-0.897-2-2s0.897-2,2-2s2,0.897,2,2S11.103,22.5,10,22.5z M10,19.5
	c-0.551,0-1,0.448-1,1s0.449,1,1,1s1-0.448,1-1S10.551,19.5,10,19.5z"/>
<path style="fill:#333333;" d="M15.5,22.5c-1.103,0-2-0.897-2-2s0.897-2,2-2s2,0.897,2,2S16.603,22.5,15.5,22.5z M15.5,19.5
	c-0.552,0-1,0.448-1,1s0.448,1,1,1s1-0.448,1-1S16.052,19.5,15.5,19.5z"/>
<path style="fill:#333333;" d="M20.327,12.5h-6.694l-2.737-8.757l0.38-0.19c1.109-0.554,4.487-2.245,7.827,1.094
	c3.204,3.204,1.373,7.511,1.354,7.554L20.327,12.5z M14.367,11.5h5.287c0.317-0.938,1.037-3.852-1.258-6.146
	c-2.333-2.333-4.552-1.883-6.29-1.09L14.367,11.5z"/>
</svg>






