<?xml version="1.0" encoding="iso-8859-1"?>
<svg version="1.1" id="&#x56FE;&#x5C42;_1" xmlns="http://www.w3.org/2000/svg" xmlns:xlink="http://www.w3.org/1999/xlink" x="0px"
	 y="0px" viewBox="0 0 24 24" style="enable-background:new 0 0 24 24;" xml:space="preserve">
<path style="fill:#333333;" d="M8,16.5c-4.069,0-6.5-3.051-6.5-6V3h3.026V2h1v1h4.947V2h1v1H14.5v7.5
	C14.5,13.449,12.068,16.5,8,16.5z M2.5,4v6.5c0,2.424,1.928,5,5.5,5s5.5-2.576,5.5-5V4h-2.026v1h-1V4H5.526v1h-1V4H2.5z"/>
<path style="fill:#333333;" d="M20,12c-1.379,0-2.5-1.122-2.5-2.5S18.621,7,20,7s2.5,1.122,2.5,2.5S21.379,12,20,12z M20,8
	c-0.827,0-1.5,0.673-1.5,1.5S19.173,11,20,11s1.5-0.673,1.5-1.5S20.827,8,20,8z"/>
<path style="fill:#333333;" d="M14,22.5c-3.584,0-6.5-2.916-6.5-6.5h1c0,3.032,2.467,5.5,5.5,5.5c3.032,0,5.5-2.468,5.5-5.5v-4.5h1
	V16C20.5,19.584,17.584,22.5,14,22.5z"/>
</svg>






