<?xml version="1.0" encoding="iso-8859-1"?>
<svg version="1.1" id="&#x56FE;&#x5C42;_1" xmlns="http://www.w3.org/2000/svg" xmlns:xlink="http://www.w3.org/1999/xlink" x="0px"
	 y="0px" viewBox="0 0 24 24" style="enable-background:new 0 0 24 24;" xml:space="preserve">
<path style="fill:#333333;" d="M12,22.5C6.21,22.5,1.5,17.79,1.5,12C1.5,6.21,6.21,1.5,12,1.5h0.729l-0.262,0.68
	C12.4,2.353,10.876,6.439,13.866,9.66c2.998,3.229,7.948,1.874,7.997,1.859l0.636-0.18L22.5,12C22.5,17.79,17.79,22.5,12,22.5z
	 M11.317,2.524C6.396,2.875,2.5,6.991,2.5,12c0,5.238,4.262,9.5,9.5,9.5c5.026,0,9.154-3.925,9.479-8.87
	c-1.571,0.294-5.588,0.68-8.346-2.29C10.456,7.457,10.941,3.992,11.317,2.524z"/>
<rect x="16.5" y="-0.071" transform="matrix(0.7071 -0.7071 0.7071 0.7071 0.0294 14.0711)" style="fill:#333333;" width="1" height="14.142"/>
</svg>






