<?xml version="1.0" encoding="iso-8859-1"?>
<svg version="1.1" id="&#x56FE;&#x5C42;_1" xmlns="http://www.w3.org/2000/svg" xmlns:xlink="http://www.w3.org/1999/xlink" x="0px"
	 y="0px" viewBox="0 0 24 24" style="enable-background:new 0 0 24 24;" xml:space="preserve">
<path style="fill:#333333;" d="M12,22.5c-4.962,0-9-4.037-9-9c0-4.962,4.038-9,9-9c4.963,0,9,4.038,9,9
	C21,18.463,16.963,22.5,12,22.5z M12,5.5c-4.411,0-8,3.589-8,8s3.589,8,8,8s8-3.589,8-8S16.411,5.5,12,5.5z"/>
<rect x="8.5" y="1.5" style="fill:#333333;" width="7" height="1"/>
<rect x="17.189" y="5.25" transform="matrix(0.7071 -0.7071 0.7071 0.7071 1.2794 14.5888)" style="fill:#333333;" width="2.121" height="1"/>
<rect x="11.5" y="9" style="fill:#333333;" width="1" height="4.5"/>
</svg>






