<?xml version="1.0" encoding="iso-8859-1"?>
<svg version="1.1" id="&#x56FE;&#x5C42;_1" xmlns="http://www.w3.org/2000/svg" xmlns:xlink="http://www.w3.org/1999/xlink" x="0px"
	 y="0px" viewBox="0 0 24 24" style="enable-background:new 0 0 24 24;" xml:space="preserve">
<path style="fill:#333333;" d="M17.034,6.612H7.238V1.714h9.796V6.612z M8.218,5.633h7.836V2.694H8.218V5.633z"/>
<path style="fill:#333333;" d="M18.993,22.286H5.279c-0.81,0-1.469-0.659-1.469-1.47V3.184c0-0.81,0.659-1.469,1.469-1.469h2.248
	v0.979H5.279c-0.27,0-0.49,0.22-0.49,0.49v17.633c0,0.271,0.22,0.489,0.49,0.489h13.714c0.27,0,0.489-0.219,0.489-0.489V3.184
	c0-0.27-0.22-0.49-0.489-0.49h-2.247V1.714h2.247c0.811,0,1.47,0.659,1.47,1.469v17.633C20.463,21.627,19.804,22.286,18.993,22.286z
	"/>
<polygon style="fill:#333333;" points="11.013,18.226 10.321,17.532 13.404,14.45 9.687,14.45 9.341,13.613 13.259,9.695 
	13.952,10.387 10.869,13.47 14.587,13.47 14.934,14.307 "/>
</svg>






