<?xml version="1.0" encoding="iso-8859-1"?>
<svg version="1.1" id="&#x56FE;&#x5C42;_1" xmlns="http://www.w3.org/2000/svg" xmlns:xlink="http://www.w3.org/1999/xlink" x="0px"
	 y="0px" viewBox="0 0 24 24" style="enable-background:new 0 0 24 24;" xml:space="preserve">
<path style="fill:#333333;" d="M3.137,21.563c-0.714,0-1.349-0.514-1.477-1.24l-0.173-0.984c-0.144-0.813,0.401-1.594,1.216-1.738h0
	l16.742-2.951c0.396-0.07,0.792,0.019,1.12,0.247c0.329,0.23,0.548,0.574,0.617,0.969l0.174,0.985
	c0.069,0.395-0.019,0.793-0.249,1.121c-0.229,0.328-0.573,0.547-0.968,0.616L3.397,21.54C3.31,21.556,3.223,21.563,3.137,21.563z
	 M2.877,18.585L2.877,18.585c-0.272,0.049-0.454,0.309-0.406,0.58l0.173,0.984c0.048,0.271,0.304,0.449,0.58,0.406l16.741-2.952
	c0.132-0.023,0.246-0.097,0.323-0.206c0.076-0.109,0.105-0.242,0.083-0.373l-0.174-0.985c-0.023-0.132-0.097-0.246-0.206-0.323
	c-0.108-0.075-0.243-0.104-0.372-0.082L2.877,18.585z"/>
<rect x="20.5" y="17.586" transform="matrix(0.7071 -0.7071 0.7071 0.7071 -7.2843 20.4142)" style="fill:#333333;" width="1" height="2.828"/>
<path style="fill:#333333;" d="M11.071,14.021L4.354,7.303C2.793,5.743,2.793,4.881,2.793,4.121c0-0.802,0.682-2.189,0.76-2.345
	l0.31-0.621l10.037,10.037L11.071,14.021z M4.157,2.864C3.967,3.327,3.793,3.84,3.793,4.121c0,0.648,0,1.208,1.268,2.475l6.011,6.01
	l1.414-1.414L4.157,2.864z"/>
<rect x="10.25" y="-0.796" transform="matrix(0.7071 -0.7071 0.7071 0.7071 -3.0386 10.1642)" style="fill:#333333;" width="1" height="19.092"/>
</svg>






