<?xml version="1.0" encoding="iso-8859-1"?>
<svg version="1.1" id="&#x56FE;&#x5C42;_1" xmlns="http://www.w3.org/2000/svg" xmlns:xlink="http://www.w3.org/1999/xlink" x="0px"
	 y="0px" viewBox="0 0 24 24" style="enable-background:new 0 0 24 24;" xml:space="preserve">
<path style="fill:#333333;" d="M12,6.5c-1.378,0-2.5-1.122-2.5-2.5s1.122-2.5,2.5-2.5c1.379,0,2.5,1.122,2.5,2.5S13.379,6.5,12,6.5z
	 M12,2.5c-0.827,0-1.5,0.673-1.5,1.5s0.673,1.5,1.5,1.5s1.5-0.673,1.5-1.5S12.827,2.5,12,2.5z"/>
<polygon style="fill:#333333;" points="15,22 14,22 14,8.555 20.188,3.609 20.812,4.391 15,9.036 "/>
<polygon style="fill:#333333;" points="3.855,20.853 3.145,20.147 9,14.252 9,9.876 5.31,12.056 4.801,11.194 9.246,8.569 10,9 
	10,14.664 "/>
</svg>






