<?xml version="1.0" encoding="iso-8859-1"?>
<svg version="1.1" id="&#x56FE;&#x5C42;_1" xmlns="http://www.w3.org/2000/svg" xmlns:xlink="http://www.w3.org/1999/xlink" x="0px"
	 y="0px" viewBox="0 0 24 24" style="enable-background:new 0 0 24 24;" xml:space="preserve">
<g>
	<defs>
		<rect id="SVGID_1_" width="24" height="24"/>
	</defs>
	<clipPath id="SVGID_00000111901726189497376160000015922588109719931012_">
		<use xlink:href="#SVGID_1_"  style="overflow:visible;"/>
	</clipPath>
	<g style="clip-path:url(#SVGID_00000111901726189497376160000015922588109719931012_);">
		<path style="fill:#333333;" d="M20,21.5H4c-0.827,0-1.5-0.673-1.5-1.5V4c0-0.827,0.673-1.5,1.5-1.5h7.5v1H4
			C3.725,3.5,3.5,3.724,3.5,4v16c0,0.275,0.224,0.5,0.5,0.5h16c0.275,0,0.5-0.225,0.5-0.5v-7.5h1V20
			C21.5,20.827,20.827,21.5,20,21.5z"/>
		<rect x="11.501" y="8" style="fill:#333333;" width="1" height="4"/>
		<rect x="20.5" y="3" style="fill:#333333;" width="1" height="4"/>
		<rect x="12.001" y="11.5" style="fill:#333333;" width="4" height="1"/>
		
			<rect x="10.136" y="7" transform="matrix(0.7074 -0.7069 0.7069 0.7074 -0.4725 13.858)" style="fill:#333333;" width="12.728" height="1"/>
		<rect x="17" y="2.5" style="fill:#333333;" width="4" height="1"/>
	</g>
</g>
</svg>






