<?xml version="1.0" encoding="iso-8859-1"?>
<svg version="1.1" id="&#x56FE;&#x5C42;_1" xmlns="http://www.w3.org/2000/svg" xmlns:xlink="http://www.w3.org/1999/xlink" x="0px"
	 y="0px" viewBox="0 0 24 24" style="enable-background:new 0 0 24 24;" xml:space="preserve">
<rect x="2.5" y="11.5" style="fill:#333333;" width="19" height="1"/>
<path style="fill:#333333;" d="M12,22.5c-5.329,0-6.474-4.335-6.485-4.379l0.97-0.244C6.523,18.025,7.471,21.5,12,21.5
	c2.141,0,4.023-1.48,4.38-3.444c0.412-2.274-1.291-4.363-4.556-5.588l0.352-0.936c3.754,1.408,5.693,3.914,5.188,6.702
	C16.923,20.666,14.616,22.5,12,22.5z"/>
<path style="fill:#333333;" d="M7.386,9.273c-1.1-1.687-1.253-3.624-0.41-5.18C7.868,2.445,9.7,1.5,12,1.5
	c4.791,0,6.452,4.281,6.468,4.324l-0.936,0.353C17.476,6.026,16.086,2.5,12,2.5c-1.922,0-3.433,0.754-4.145,2.069
	C7.189,5.798,7.327,7.352,8.224,8.727L7.386,9.273z"/>
<path style="fill:#333333;" d="M12,22.5c-4.26,0-6.36-4.102-6.447-4.276l0.894-0.448C6.466,17.812,8.365,21.5,12,21.5
	c1.779,0,3.287-0.823,4.034-2.202c0.683-1.26,0.589-2.727-0.258-4.024l0.838-0.547c1.037,1.592,1.149,3.479,0.299,5.048
	C15.989,21.481,14.152,22.5,12,22.5z"/>
</svg>






