<?xml version="1.0" encoding="iso-8859-1"?>
<svg version="1.1" id="&#x56FE;&#x5C42;_1" xmlns="http://www.w3.org/2000/svg" xmlns:xlink="http://www.w3.org/1999/xlink" x="0px"
	 y="0px" viewBox="0 0 24 24" style="enable-background:new 0 0 24 24;" xml:space="preserve">
<path style="fill:#333333;" d="M20.5,22.5h-17c-1.103,0-2-0.897-2-2v-17c0-1.103,0.897-2,2-2h17c1.103,0,2,0.897,2,2v17
	C22.5,21.603,21.603,22.5,20.5,22.5z M3.5,2.5c-0.551,0-1,0.449-1,1v17c0,0.552,0.449,1,1,1h17c0.552,0,1-0.448,1-1v-17
	c0-0.551-0.448-1-1-1H3.5z"/>
<path style="fill:#333333;" d="M6,7c0.552,0,1-0.448,1-1S6.552,5,6,5S5,5.448,5,6S5.448,7,6,7z"/>
<path style="fill:#333333;" d="M6,19c0.552,0,1-0.448,1-1s-0.448-1-1-1s-1,0.448-1,1S5.448,19,6,19z"/>
<path style="fill:#333333;" d="M18,7c0.552,0,1-0.448,1-1s-0.448-1-1-1s-1,0.448-1,1S17.448,7,18,7z"/>
<path style="fill:#333333;" d="M18,19c0.552,0,1-0.448,1-1s-0.448-1-1-1s-1,0.448-1,1S17.448,19,18,19z"/>
<path style="fill:#333333;" d="M12,17c-2.757,0-5-2.243-5-5s2.243-5,5-5s5,2.243,5,5S14.757,17,12,17z M12,8c-2.206,0-4,1.794-4,4
	c0,2.206,1.794,4,4,4c2.206,0,4-1.794,4-4C16,9.794,14.206,8,12,8z"/>
</svg>






