<?xml version="1.0" encoding="iso-8859-1"?>
<svg version="1.1" id="&#x56FE;&#x5C42;_1" xmlns="http://www.w3.org/2000/svg" xmlns:xlink="http://www.w3.org/1999/xlink" x="0px"
	 y="0px" viewBox="0 0 24 24" style="enable-background:new 0 0 24 24;" xml:space="preserve">
<path style="fill:#333333;" d="M20.5,22H9c-0.827,0-1.5-0.673-1.5-1.5V16h1v4.5C8.5,20.775,8.724,21,9,21h11.5
	c0.275,0,0.5-0.225,0.5-0.5V9c0-0.276-0.225-0.5-0.5-0.5H16v-1h4.5C21.327,7.5,22,8.173,22,9v11.5C22,21.327,21.327,22,20.5,22z"/>
<path style="fill:#333333;" d="M15,16.5H3.5C2.673,16.5,2,15.827,2,15V3.5C2,2.673,2.673,2,3.5,2H15c0.827,0,1.5,0.673,1.5,1.5V15
	C16.5,15.827,15.827,16.5,15,16.5z M3.5,3C3.224,3,3,3.224,3,3.5V15c0,0.275,0.224,0.5,0.5,0.5H15c0.275,0,0.5-0.225,0.5-0.5V3.5
	C15.5,3.224,15.275,3,15,3H3.5z"/>
<rect x="0.974" y="5.5" transform="matrix(0.6808 -0.7325 0.7325 0.6808 -2.5594 6.1275)" style="fill:#333333;" width="9.552" height="1"/>
<rect x="-0.139" y="8" transform="matrix(0.6757 -0.7372 0.7372 0.6757 -3.6716 8.6543)" style="fill:#333333;" width="16.279" height="1"/>
<rect x="3.567" y="10" transform="matrix(0.6721 -0.7405 0.7405 0.6721 -4.1679 11.5882)" style="fill:#333333;" width="14.866" height="1"/>
<rect x="9.783" y="12.75" transform="matrix(0.6721 -0.7405 0.7405 0.6721 -5.3844 14.3412)" style="fill:#333333;" width="7.433" height="1"/>
</svg>






