<?xml version="1.0" encoding="iso-8859-1"?>
<svg version="1.1" id="&#x56FE;&#x5C42;_1" xmlns="http://www.w3.org/2000/svg" xmlns:xlink="http://www.w3.org/1999/xlink" x="0px"
	 y="0px" viewBox="0 0 24 24" style="enable-background:new 0 0 24 24;" xml:space="preserve">
<path style="fill:#333333;" d="M20.5,22H9c-0.827,0-1.5-0.673-1.5-1.5V9c0-0.827,0.673-1.5,1.5-1.5h11.5C21.327,7.5,22,8.173,22,9
	v11.5C22,21.327,21.327,22,20.5,22z M9,8.5C8.724,8.5,8.5,8.724,8.5,9v11.5C8.5,20.775,8.724,21,9,21h11.5
	c0.275,0,0.5-0.225,0.5-0.5V9c0-0.276-0.225-0.5-0.5-0.5H9z"/>
<path style="fill:#333333;" d="M8,16.5H3.5C2.673,16.5,2,15.827,2,15V3.5C2,2.673,2.673,2,3.5,2H15c0.827,0,1.5,0.673,1.5,1.5V8h-1
	V3.5C15.5,3.224,15.275,3,15,3H3.5C3.224,3,3,3.224,3,3.5V15c0,0.275,0.224,0.5,0.5,0.5H8V16.5z"/>
<rect x="6.474" y="11" transform="matrix(0.6802 -0.733 0.733 0.6802 -4.8321 11.9237)" style="fill:#333333;" width="9.552" height="1"/>
<rect x="5.361" y="13.5" transform="matrix(0.6757 -0.7372 0.7372 0.6757 -5.9424 14.4926)" style="fill:#333333;" width="16.279" height="1"/>
<rect x="9.067" y="15.5" transform="matrix(0.6721 -0.7405 0.7405 0.6721 -6.437 17.4643)" style="fill:#333333;" width="14.866" height="1"/>
<rect x="15.283" y="18.25" transform="matrix(0.6721 -0.7405 0.7405 0.6721 -7.6535 20.2173)" style="fill:#333333;" width="7.433" height="1"/>
</svg>






