<?xml version="1.0" encoding="iso-8859-1"?>
<svg version="1.1" id="&#x56FE;&#x5C42;_1" xmlns="http://www.w3.org/2000/svg" xmlns:xlink="http://www.w3.org/1999/xlink" x="0px"
	 y="0px" viewBox="0 0 24 24" style="enable-background:new 0 0 24 24;" xml:space="preserve">
<path style="fill:#333333;" d="M19,16.5H5c-0.827,0-1.5-0.673-1.5-1.5V4c0-0.827,0.673-1.5,1.5-1.5h14c0.827,0,1.5,0.673,1.5,1.5v11
	C20.5,15.827,19.827,16.5,19,16.5z M5,3.5C4.724,3.5,4.5,3.724,4.5,4v11c0,0.275,0.224,0.5,0.5,0.5h14c0.275,0,0.5-0.225,0.5-0.5V4
	c0-0.276-0.225-0.5-0.5-0.5H5z"/>
<circle style="fill:#333333;" cx="7" cy="13.5" r="1"/>
<circle style="fill:#333333;" cx="17" cy="13.5" r="1"/>
<path style="fill:#333333;" d="M17.5,11.5h-11v-6h11V11.5z M7.5,10.5h9v-4h-9V10.5z"/>
<rect x="17.5" y="15.24" transform="matrix(0.7474 -0.6644 0.6644 0.7474 -7.578 16.5683)" style="fill:#333333;" width="1" height="6.021"/>
<rect x="3.068" y="17.75" transform="matrix(0.7071 -0.7071 0.7071 0.7071 -11.0741 9.7647)" style="fill:#333333;" width="6.364" height="1"/>
</svg>






