<?xml version="1.0" encoding="iso-8859-1"?>
<svg version="1.1" id="&#x56FE;&#x5C42;_1" xmlns="http://www.w3.org/2000/svg" xmlns:xlink="http://www.w3.org/1999/xlink" x="0px"
	 y="0px" viewBox="0 0 24 24" style="enable-background:new 0 0 24 24;" xml:space="preserve">
<path style="fill:#333333;" d="M12,22.619l-2.789-2.035l-3.453,0.007l-1.061-3.285L1.9,15.281L2.974,12L1.9,8.718l2.797-2.023
	l1.061-3.286l3.453,0.006L12,1.381l2.789,2.034l3.452-0.006l1.062,3.286L22.1,8.718L21.026,12l1.073,3.281l-2.797,2.024
	l-1.062,3.285l-3.452-0.007L12,22.619z M9.536,19.584L12,21.381l2.465-1.797l3.05,0.005l0.937-2.902l2.471-1.788L19.974,12
	l0.948-2.899l-2.471-1.788L17.515,4.41l-3.05,0.006L12,2.619L9.536,4.417L6.486,4.41L5.549,7.313L3.078,9.101L4.026,12l-0.948,2.898
	l2.471,1.788l0.937,2.902L9.536,19.584z"/>
<polygon style="fill:#333333;" points="11,15.207 8.146,12.354 8.854,11.646 11,13.793 15.646,9.146 16.354,9.854 "/>
</svg>






