<?xml version="1.0" encoding="iso-8859-1"?>
<svg version="1.1" id="&#x56FE;&#x5C42;_1" xmlns="http://www.w3.org/2000/svg" xmlns:xlink="http://www.w3.org/1999/xlink" x="0px"
	 y="0px" viewBox="0 0 24 24" style="enable-background:new 0 0 24 24;" xml:space="preserve">
<path style="fill:#333333;" d="M18.5,10.5h-13V5c0-0.827,0.673-1.5,1.5-1.5h10c0.827,0,1.5,0.673,1.5,1.5V10.5z M6.5,9.5h11V5
	c0-0.276-0.225-0.5-0.5-0.5H7C6.724,4.5,6.5,4.724,6.5,5V9.5z"/>
<path style="fill:#333333;" d="M18.2,20.5c-0.958,0-2.051-0.351-3.434-0.795c-0.725-0.233-1.521-0.489-2.396-0.722l0.258-0.967
	c0.892,0.237,1.704,0.499,2.444,0.736c1.247,0.4,2.325,0.747,3.127,0.747c1.881,0,2.568-1.057,3.07-1.828
	c0.125-0.191,0.236-0.361,0.345-0.491l0.77,0.639c-0.087,0.105-0.176,0.243-0.276,0.398C21.553,19.071,20.623,20.5,18.2,20.5z"/>
<path style="fill:#333333;" d="M6,20.5c-2.528,0-3.502-1.422-4.084-2.271c-0.106-0.155-0.2-0.294-0.292-0.399l-0.252-0.288
	l0.212-0.318c0.03-0.045,2.975-4.479,3.942-7.381L5.64,9.5H18.36l0.114,0.342c0.968,2.903,3.912,7.336,3.941,7.381l-0.693,0.693
	c-1.686-1.122-6.182,0.193-9.796,1.253C9.487,19.883,7.38,20.5,6,20.5z M2.612,17.479c0.042,0.059,0.084,0.12,0.128,0.185
	C3.271,18.438,3.999,19.5,6,19.5c1.236,0,3.378-0.627,5.645-1.291c3.376-0.989,6.847-2.005,9.157-1.653
	c-0.919-1.479-2.408-4.017-3.156-6.056H6.354C5.409,13.08,3.275,16.457,2.612,17.479z"/>
</svg>






