<?xml version="1.0" encoding="iso-8859-1"?>
<svg version="1.1" id="&#x56FE;&#x5C42;_1" xmlns="http://www.w3.org/2000/svg" xmlns:xlink="http://www.w3.org/1999/xlink" x="0px"
	 y="0px" viewBox="0 0 24 24" style="enable-background:new 0 0 24 24;" xml:space="preserve">
<path style="fill:#333333;" d="M15.392,12.782v-1c1.594,0,2.891-1.297,2.891-2.891S16.985,6,15.392,6
	c-1.41,0-2.608,1.007-2.85,2.395l-0.985-0.171C11.881,6.356,13.493,5,15.392,5c2.146,0,3.891,1.746,3.891,3.891
	S17.537,12.782,15.392,12.782z"/>
<path style="fill:#333333;" d="M16.5,3.5c0.552,0,1-0.448,1-1s-0.448-1-1-1c-0.552,0-1,0.448-1,1S15.948,3.5,16.5,3.5z"/>
<path style="fill:#333333;" d="M21,6c0.552,0,1-0.448,1-1c0-0.552-0.448-1-1-1s-1,0.448-1,1C20,5.552,20.448,6,21,6z"/>
<path style="fill:#333333;" d="M22,10.5c0.552,0,1-0.448,1-1s-0.448-1-1-1s-1,0.448-1,1S21.448,10.5,22,10.5z"/>
<path style="fill:#333333;" d="M11,5c0.552,0,1-0.448,1-1s-0.448-1-1-1s-1,0.448-1,1S10.448,5,11,5z"/>
<path style="fill:#333333;" d="M19.476,21.457l-0.406-0.914c1.477-0.656,2.431-2.143,2.431-3.786c0-2.276-1.815-4.129-4.046-4.129
	c-0.642,0-1.256,0.149-1.824,0.443l-0.553,0.286l-0.16-0.603C14.175,9.956,11.667,8,8.818,8C5.334,8,2.5,10.89,2.5,14.442
	c0,2.047,0.922,3.927,2.531,5.157l-0.607,0.795C2.565,18.973,1.5,16.804,1.5,14.442C1.5,10.339,4.783,7,8.818,7
	c3.109,0,5.867,2.005,6.895,4.943c0.555-0.207,1.147-0.315,1.741-0.315c2.782,0,5.046,2.301,5.046,5.129
	C22.5,18.795,21.312,20.64,19.476,21.457z"/>
<path style="fill:#333333;" d="M6.525,16.975C5.864,16.313,5.5,15.435,5.5,14.5C5.5,12.57,7.07,11,9,11
	c0.935,0,1.814,0.364,2.475,1.025l-0.707,0.707C10.295,12.26,9.668,12,9,12c-1.378,0-2.5,1.121-2.5,2.5
	c0,0.668,0.26,1.295,0.732,1.768L6.525,16.975z"/>
</svg>






