<?xml version="1.0" encoding="iso-8859-1"?>
<svg version="1.1" id="&#x56FE;&#x5C42;_1" xmlns="http://www.w3.org/2000/svg" xmlns:xlink="http://www.w3.org/1999/xlink" x="0px"
	 y="0px" viewBox="0 0 24 24" style="enable-background:new 0 0 24 24;" xml:space="preserve">
<rect x="2" y="11.5" style="fill:#333333;" width="1.5" height="1"/>
<rect x="5" y="4.793" transform="matrix(0.7071 -0.7071 0.7071 0.7071 -2.2782 5.5)" style="fill:#333333;" width="1" height="1.414"/>
<rect x="11.5" y="2" style="fill:#333333;" width="1" height="1.5"/>
<path style="fill:#333333;" d="M15.183,16.486l-0.58-0.814C15.791,14.827,16.5,13.455,16.5,12c0-2.481-2.019-4.5-4.5-4.5
	S7.5,9.519,7.5,12h-1c0-3.033,2.467-5.5,5.5-5.5c3.032,0,5.5,2.467,5.5,5.5C17.5,13.778,16.634,15.455,15.183,16.486z"/>
<rect x="17.793" y="5" transform="matrix(0.7071 -0.7071 0.7071 0.7071 1.5294 14.6924)" style="fill:#333333;" width="1.414" height="1"/>
<rect x="20.5" y="11.5" style="fill:#333333;" width="1.5" height="1"/>
<rect x="18.086" y="18.013" transform="matrix(0.7075 -0.7067 0.7067 0.7075 -7.6987 18.5697)" style="fill:#333333;" width="1" height="1.146"/>
<path style="fill:#333333;" d="M5.213,21.536c-0.594,0-1.199-0.009-1.81-0.021C3.037,21.507,2.729,21.5,2.5,21.5v-1
	c0.234,0,0.549,0.007,0.924,0.015c2.157,0.046,8.725,0.187,9.085-1.612c0.021-0.107,0.031-0.275-0.135-0.497
	c-0.367-0.489-1.281-0.852-1.918-0.907l-0.409-0.031C8.721,17.374,6.5,17.217,6.5,15.5c0-2,3.952-2,5.25-2v1
	c-4.131,0-4.25,0.897-4.25,1c0,0.725,1.293,0.876,2.618,0.97l0.425,0.032c0.711,0.062,1.999,0.46,2.631,1.304
	c0.297,0.396,0.405,0.842,0.315,1.292C13.086,21.119,9.452,21.536,5.213,21.536z"/>
</svg>






