<?xml version="1.0" encoding="iso-8859-1"?>
<svg version="1.1" id="&#x56FE;&#x5C42;_1" xmlns="http://www.w3.org/2000/svg" xmlns:xlink="http://www.w3.org/1999/xlink" x="0px"
	 y="0px" viewBox="0 0 24 24" style="enable-background:new 0 0 24 24;" xml:space="preserve">
<path style="fill:#333333;" d="M17.337,17.5H1.663L9.06,3.763H9.94L17.337,17.5z M3.337,16.5h12.326L9.5,5.055L3.337,16.5z"/>
<polygon style="fill:#333333;" points="21.5,17.5 16,17.5 16,16.5 20.584,16.5 16.948,10.844 14.884,13.32 14.116,12.68 
	17.052,9.156 21.921,16.729 "/>
<rect x="5" y="20" style="fill:#333333;" width="14" height="1"/>
<path style="fill:#333333;" d="M19,7c-1.103,0-2-0.897-2-2s0.897-2,2-2s2,0.897,2,2S20.103,7,19,7z M19,4c-0.552,0-1,0.449-1,1
	s0.448,1,1,1s1-0.449,1-1S19.552,4,19,4z"/>
</svg>






