<?xml version="1.0" encoding="iso-8859-1"?>
<svg version="1.1" id="&#x56FE;&#x5C42;_1" xmlns="http://www.w3.org/2000/svg" xmlns:xlink="http://www.w3.org/1999/xlink" x="0px"
	 y="0px" viewBox="0 0 24 24" style="enable-background:new 0 0 24 24;" xml:space="preserve">
<polygon style="fill:#333333;" points="10.003,19 2.5,19 2.5,18 9.003,18 9.003,13.138 10.003,13.138 "/>
<path style="fill:#333333;" d="M20.629,15.084l-4-1.071l2.501-4.507l2.793,0.748L20.629,15.084z M18.125,13.378l1.797,0.481
	l0.776-2.898l-1.072-0.287L18.125,13.378z"/>
<path style="fill:#333333;" d="M16.725,15.591L1.888,11.615l2.07-7.728l17.091,4.58l-1.243,1.882l-1.991,3.588L16.725,15.591z
	 M3.112,10.908l13.175,3.53l0.673-1.019l2.001-3.605l0.488-0.741L4.665,5.112L3.112,10.908z"/>
</svg>






