<?xml version="1.0" encoding="iso-8859-1"?>
<svg version="1.1" id="&#x56FE;&#x5C42;_1" xmlns="http://www.w3.org/2000/svg" xmlns:xlink="http://www.w3.org/1999/xlink" x="0px"
	 y="0px" viewBox="0 0 24 24" style="enable-background:new 0 0 24 24;" xml:space="preserve">
<rect x="2.5" y="13" style="fill:#333333;" width="1" height="8"/>
<polygon style="fill:#333333;" points="6.768,17 3,17 3,16 6.232,16 8.084,13.223 8.916,13.777 "/>
<path style="fill:#333333;" d="M17.015,19.407c-0.194,0-0.389-0.056-0.556-0.167L3.223,10.416l0.555-0.832l13.236,8.824l4.729-2.837
	l0.514,0.857l-4.729,2.837C17.371,19.36,17.192,19.407,17.015,19.407z"/>
<path style="fill:#333333;" d="M16.507,15.403c-0.193,0-0.387-0.056-0.555-0.167L3.262,6.775C3.001,6.602,2.84,6.324,2.819,6.012
	C2.797,5.7,2.919,5.403,3.153,5.196l3.729-3.315c0.336-0.299,0.835-0.336,1.213-0.089l13.532,8.865
	c0.285,0.187,0.454,0.502,0.451,0.843c-0.002,0.341-0.175,0.654-0.463,0.837l-4.572,2.909C16.88,15.352,16.693,15.403,16.507,15.403
	z M3.816,5.943l12.689,8.46l4.572-2.91L7.546,2.628L3.816,5.943z"/>
</svg>






