<?xml version="1.0" encoding="iso-8859-1"?>
<svg version="1.1" id="&#x56FE;&#x5C42;_1" xmlns="http://www.w3.org/2000/svg" xmlns:xlink="http://www.w3.org/1999/xlink" x="0px"
	 y="0px" viewBox="0 0 24 24" style="enable-background:new 0 0 24 24;" xml:space="preserve">
<path style="fill:#333333;" d="M18.5,13.5h-1V4c0-1.378,1.121-2.5,2.5-2.5h2v1h-2c-0.827,0-1.5,0.673-1.5,1.5V13.5z"/>
<path style="fill:#333333;" d="M5.5,13.5h-1V4c0-1.378,1.122-2.5,2.5-2.5h2v1H7C6.173,2.5,5.5,3.173,5.5,4V13.5z"/>
<rect x="5" y="5.5" style="fill:#333333;" width="13" height="1"/>
<rect x="5" y="9.5" style="fill:#333333;" width="13" height="1"/>
<path style="fill:#333333;" d="M19.5,18.499c-0.508,0-1.015-0.128-1.488-0.384c-0.652-0.352-1.371-0.352-2.023,0
	c-0.947,0.512-2.029,0.512-2.977,0c-0.652-0.352-1.371-0.352-2.024,0c-0.945,0.512-2.03,0.512-2.976,0
	c-0.653-0.352-1.371-0.352-2.024,0c-0.945,0.512-2.03,0.512-2.976,0l-1.25-0.676l0.476-0.879l1.25,0.676
	c0.652,0.352,1.371,0.352,2.024,0c0.945-0.512,2.03-0.512,2.976,0c0.653,0.352,1.371,0.352,2.024,0c0.945-0.513,2.03-0.511,2.976,0
	c0.652,0.352,1.371,0.352,2.023,0c0.947-0.512,2.029-0.512,2.977,0c0.652,0.352,1.371,0.352,2.023,0l1.251-0.676l0.475,0.879
	l-1.25,0.676C20.515,18.371,20.008,18.499,19.5,18.499z"/>
<path style="fill:#333333;" d="M19.5,21.499c-0.508,0-1.015-0.128-1.488-0.384c-0.652-0.352-1.371-0.352-2.023,0
	c-0.947,0.512-2.029,0.512-2.977,0c-0.652-0.352-1.371-0.352-2.024,0c-0.945,0.512-2.03,0.512-2.976,0
	c-0.653-0.352-1.371-0.352-2.024,0c-0.945,0.512-2.03,0.512-2.976,0l-1.25-0.676l0.476-0.879l1.25,0.676
	c0.652,0.352,1.371,0.352,2.024,0c0.945-0.512,2.03-0.512,2.976,0c0.653,0.352,1.371,0.352,2.024,0c0.945-0.512,2.03-0.512,2.976,0
	c0.652,0.352,1.371,0.352,2.023,0c0.947-0.512,2.029-0.512,2.977,0c0.652,0.352,1.371,0.352,2.023,0l1.251-0.676l0.475,0.879
	l-1.25,0.676C20.515,21.371,20.008,21.499,19.5,21.499z"/>
</svg>






