<?xml version="1.0" encoding="iso-8859-1"?>
<svg version="1.1" id="&#x56FE;&#x5C42;_1" xmlns="http://www.w3.org/2000/svg" xmlns:xlink="http://www.w3.org/1999/xlink" x="0px"
	 y="0px" viewBox="0 0 24 24" style="enable-background:new 0 0 24 24;" xml:space="preserve">
<path style="fill:#333333;" d="M14.2,17.042l-0.4-0.916c1.044-0.456,1.87-1.282,2.326-2.326l0.916,0.4
	C16.485,15.476,15.476,16.485,14.2,17.042z"/>
<path style="fill:#333333;" d="M9.8,17.042c-1.275-0.557-2.285-1.566-2.842-2.842l0.916-0.4c0.456,1.044,1.282,1.87,2.326,2.326
	L9.8,17.042z"/>
<path style="fill:#333333;" d="M7.874,10.2L6.958,9.8C7.515,8.524,8.524,7.515,9.8,6.958l0.4,0.916
	C9.156,8.33,8.33,9.156,7.874,10.2z"/>
<path style="fill:#333333;" d="M16.126,10.2C15.67,9.156,14.844,8.33,13.8,7.874l0.4-0.916c1.275,0.557,2.285,1.566,2.842,2.842
	L16.126,10.2z"/>
<path style="fill:#333333;" d="M15.167,20.96l-0.334-0.943c2.398-0.848,4.336-2.785,5.184-5.184l0.943,0.334
	C19.998,17.887,17.887,19.998,15.167,20.96z"/>
<path style="fill:#333333;" d="M8.833,20.96c-2.68-0.948-4.846-3.113-5.792-5.793l0.942-0.334c0.848,2.398,2.785,4.336,5.183,5.184
	L8.833,20.96z"/>
<path style="fill:#333333;" d="M3.983,9.167L3.041,8.833c0.947-2.68,3.112-4.846,5.792-5.792l0.333,0.942
	C6.769,4.831,4.831,6.769,3.983,9.167z"/>
<path style="fill:#333333;" d="M20.017,9.167c-0.848-2.398-2.785-4.335-5.184-5.183l0.334-0.942c2.68,0.947,4.845,3.112,5.793,5.792
	L20.017,9.167z"/>
<path style="fill:#333333;" d="M13.5,9h-3l-0.479-0.356l-1.5-5l0.063-0.421l1-1.5L10,1.5h4l0.416,0.223l1,1.5l0.062,0.421l-1.5,5
	L13.5,9z M10.872,8h2.256l1.325-4.418L13.732,2.5h-3.465L9.546,3.582L10.872,8z"/>
<path style="fill:#333333;" d="M3.644,15.479l-0.421-0.062l-1.5-1L1.5,14v-4l0.223-0.416l1.5-1l0.421-0.063l5,1.5L9,10.5v3
	l-0.356,0.479L3.644,15.479z M2.5,13.732l1.082,0.721L8,13.128v-2.256L3.582,9.546L2.5,10.268V13.732z"/>
<path style="fill:#333333;" d="M14,22.5h-4l-0.416-0.223l-1-1.5l-0.063-0.421l1.5-5L10.5,15h3l0.479,0.356l1.5,5l-0.062,0.421
	l-1,1.5L14,22.5z M10.268,21.5h3.465l0.721-1.082L13.128,16h-2.256l-1.326,4.418L10.268,21.5z"/>
<path style="fill:#333333;" d="M20.356,15.479l-5-1.5L15,13.5v-3l0.356-0.479l5-1.5l0.441,0.077
	c0.258,0.191,0.487,0.334,0.717,0.478c0.251,0.156,0.501,0.313,0.783,0.522L22.5,10v4l-0.202,0.401
	c-0.282,0.209-0.532,0.366-0.783,0.522c-0.229,0.144-0.459,0.286-0.717,0.478L20.356,15.479z M16,13.128l4.408,1.322
	c0.201-0.14,0.389-0.257,0.577-0.374c0.168-0.105,0.336-0.21,0.515-0.333v-3.486c-0.179-0.124-0.347-0.229-0.515-0.333
	c-0.188-0.117-0.376-0.235-0.577-0.375L16,10.872V13.128z"/>
</svg>






