<?xml version="1.0" encoding="iso-8859-1"?>
<svg version="1.1" id="&#x56FE;&#x5C42;_1" xmlns="http://www.w3.org/2000/svg" xmlns:xlink="http://www.w3.org/1999/xlink" x="0px"
	 y="0px" viewBox="0 0 24 24" style="enable-background:new 0 0 24 24;" xml:space="preserve">
<path style="fill:#333333;" d="M11.326,13.995c-0.633,0-1.305-0.283-1.965-0.846L2.69,7.893L3.31,7.107l6.686,5.269
	c0.848,0.723,1.571,0.806,2.166,0.256c0.269-0.247,0.401-0.505,0.407-0.79c0.01-0.453-0.31-0.876-0.422-0.989L8.2,7.9l0.6-0.8l4,3
	c0.327,0.319,0.784,0.988,0.769,1.763c-0.012,0.555-0.264,1.076-0.729,1.505C12.384,13.786,11.869,13.995,11.326,13.995z"/>
<polygon style="fill:#333333;" points="18.664,9.37 13.307,4.5 2,4.5 2,3.5 13.693,3.5 19.336,8.63 "/>
<rect x="4.5" y="16.005" style="fill:#333333;" width="17.5" height="1"/>
<polygon style="fill:#333333;" points="22.5,20.5 4,20.5 4,9 5,9 5,19.5 21.5,19.5 21.5,9.5 11,9.5 11,8.5 22.5,8.5 "/>
</svg>






