<?xml version="1.0" encoding="iso-8859-1"?>
<svg version="1.1" id="&#x56FE;&#x5C42;_1" xmlns="http://www.w3.org/2000/svg" xmlns:xlink="http://www.w3.org/1999/xlink" x="0px"
	 y="0px" viewBox="0 0 24 24" style="enable-background:new 0 0 24 24;" xml:space="preserve">
<path style="fill:#333333;" d="M18,10.5H6c-2.481,0-4.5-2.019-4.5-4.5S3.519,1.5,6,1.5h12c2.481,0,4.5,2.019,4.5,4.5
	S20.481,10.5,18,10.5z M6,2.5C4.07,2.5,2.5,4.07,2.5,6S4.07,9.5,6,9.5h12c1.93,0,3.5-1.57,3.5-3.5S19.93,2.5,18,2.5H6z"/>
<path style="fill:#333333;" d="M18,22.5H6c-2.481,0-4.5-2.019-4.5-4.5s2.019-4.5,4.5-4.5h12c2.481,0,4.5,2.019,4.5,4.5
	S20.481,22.5,18,22.5z M6,14.5c-1.93,0-3.5,1.57-3.5,3.5s1.57,3.5,3.5,3.5h12c1.93,0,3.5-1.57,3.5-3.5s-1.57-3.5-3.5-3.5H6z"/>
<path style="fill:#333333;" d="M18,7.5c-0.827,0-1.5-0.673-1.5-1.5s0.673-1.5,1.5-1.5s1.5,0.673,1.5,1.5S18.827,7.5,18,7.5z M18,5.5
	c-0.275,0-0.5,0.224-0.5,0.5s0.225,0.5,0.5,0.5s0.5-0.224,0.5-0.5S18.275,5.5,18,5.5z"/>
<path style="fill:#333333;" d="M6,19.5c-0.827,0-1.5-0.673-1.5-1.5s0.673-1.5,1.5-1.5s1.5,0.673,1.5,1.5S6.827,19.5,6,19.5z M6,17.5
	c-0.276,0-0.5,0.225-0.5,0.5s0.224,0.5,0.5,0.5s0.5-0.225,0.5-0.5S6.276,17.5,6,17.5z"/>
</svg>






