<?xml version="1.0" encoding="iso-8859-1"?>
<svg version="1.1" id="&#x56FE;&#x5C42;_1" xmlns="http://www.w3.org/2000/svg" xmlns:xlink="http://www.w3.org/1999/xlink" x="0px"
	 y="0px" viewBox="0 0 24 24" style="enable-background:new 0 0 24 24;" xml:space="preserve">
<path style="fill:#333333;" d="M22.497,14H11V1.5h11.5L22.497,14z M12,13h9.497L21.5,2.5H12V13z"/>
<path style="fill:#333333;" d="M15.503,22.5H9.329c-0.712,0-2.043-0.181-2.955-1.393C5.796,20.337,5.502,19.292,5.502,18v-5.5h1V18
	c0,1.07,0.226,1.914,0.671,2.506c0.65,0.865,1.629,0.994,2.155,0.994h6.174V22.5z"/>
<polygon style="fill:#333333;" points="9.653,16.854 6.002,13.207 2.354,16.854 1.646,16.146 6.002,11.793 10.36,16.146 "/>
<rect x="15" y="9" style="fill:#333333;" width="3.5" height="1"/>
<rect x="15" y="5.5" style="fill:#333333;" width="3.5" height="1"/>
</svg>






