<?xml version="1.0" encoding="iso-8859-1"?>
<svg version="1.1" id="&#x56FE;&#x5C42;_1" xmlns="http://www.w3.org/2000/svg" xmlns:xlink="http://www.w3.org/1999/xlink" x="0px"
	 y="0px" viewBox="0 0 24 24" style="enable-background:new 0 0 24 24;" xml:space="preserve">
<polygon style="fill:#333333;" points="22.497,14 10.497,14 10.497,1.5 14.816,1.5 14.816,2.5 11.497,2.5 11.497,13 21.497,13 
	21.497,10.481 22.497,10.481 "/>
<polygon style="fill:#333333;" points="16.787,9.425 14.152,6.86 14.85,6.143 16.777,8.02 22.146,2.646 22.854,3.354 "/>
<path style="fill:#333333;" d="M15.003,22.5H8.829c-0.712,0-2.043-0.181-2.955-1.393C5.296,20.337,5.002,19.292,5.002,18v-5.5h1V18
	c0,1.07,0.226,1.914,0.671,2.506c0.65,0.865,1.629,0.994,2.155,0.994h6.174V22.5z"/>
<polygon style="fill:#333333;" points="9.153,16.854 5.502,13.207 1.854,16.854 1.146,16.146 5.502,11.793 9.86,16.146 "/>
</svg>






