<?xml version="1.0" encoding="iso-8859-1"?>
<svg version="1.1" id="&#x56FE;&#x5C42;_1" xmlns="http://www.w3.org/2000/svg" xmlns:xlink="http://www.w3.org/1999/xlink" x="0px"
	 y="0px" viewBox="0 0 24 24" style="enable-background:new 0 0 24 24;" xml:space="preserve">
<path style="fill:#333333;" d="M9.5,21.5H7c-2.481,0-4.5-2.019-4.5-4.5V6c0-2.481,2.019-4.5,4.5-4.5h2.5C10.327,1.5,11,2.173,11,3
	v17C11,20.827,10.327,21.5,9.5,21.5z M7,2.5C5.07,2.5,3.5,4.07,3.5,6v11c0,1.93,1.57,3.5,3.5,3.5h2.5c0.276,0,0.5-0.225,0.5-0.5V3
	c0-0.276-0.224-0.5-0.5-0.5H7z"/>
<path style="fill:#333333;" d="M17,22.5h-3c-0.827,0-1.5-0.673-1.5-1.5V4c0-0.827,0.673-1.5,1.5-1.5h3c2.481,0,4.5,2.019,4.5,4.5v11
	C21.5,20.481,19.481,22.5,17,22.5z M14,3.5c-0.275,0-0.5,0.224-0.5,0.5v17c0,0.275,0.225,0.5,0.5,0.5h3c1.93,0,3.5-1.57,3.5-3.5V7
	c0-1.93-1.57-3.5-3.5-3.5H14z"/>
<path style="fill:#333333;" d="M6.75,15L6.75,15C7.44,15,8,15.56,8,16.25l0,0c0,0.69-0.56,1.25-1.25,1.25l0,0
	c-0.69,0-1.25-0.56-1.25-1.25l0,0C5.5,15.56,6.06,15,6.75,15z"/>
<path style="fill:#333333;" d="M17,7L17,7c0.69,0,1.25,0.56,1.25,1.25l0,0c0,0.69-0.56,1.25-1.25,1.25l0,0
	c-0.69,0-1.25-0.56-1.25-1.25l0,0C15.75,7.56,16.31,7,17,7z"/>
<rect x="6" y="8" style="fill:#333333;" width="1.5" height="1"/>
<rect x="16.5" y="14" style="fill:#333333;" width="1" height="3"/>
<rect x="15.5" y="15" style="fill:#333333;" width="3" height="1"/>
</svg>






