<?xml version="1.0" encoding="iso-8859-1"?>
<svg version="1.1" id="&#x56FE;&#x5C42;_1" xmlns="http://www.w3.org/2000/svg" xmlns:xlink="http://www.w3.org/1999/xlink" x="0px"
	 y="0px" viewBox="0 0 24 24" style="enable-background:new 0 0 24 24;" xml:space="preserve">
<path style="fill:#333333;" d="M20,19.5h-5v-1h5c0.727,0,1.207,0,1.354-0.146S21.5,17.727,21.5,17V7c0-0.727,0-1.207-0.146-1.354
	S20.727,5.5,20,5.5h-5v-1h5c1.045,0,1.621,0,2.061,0.439S22.5,5.955,22.5,7v10c0,1.045,0,1.621-0.439,2.061S21.045,19.5,20,19.5z"/>
<path style="fill:#333333;" d="M9,19.5H4c-1.045,0-1.621,0-2.061-0.439S1.5,18.045,1.5,17V7c0-1.045,0-1.621,0.439-2.061
	S2.955,4.5,4,4.5h5v1H4c-0.727,0-1.207,0-1.354,0.146S2.5,6.273,2.5,7v10c0,0.727,0,1.207,0.146,1.354S3.273,18.5,4,18.5h5V19.5z"/>
<rect x="11.5" y="3" style="fill:#333333;" width="1" height="18"/>
</svg>






