<?xml version="1.0" encoding="iso-8859-1"?>
<svg version="1.1" id="&#x56FE;&#x5C42;_1" xmlns="http://www.w3.org/2000/svg" xmlns:xlink="http://www.w3.org/1999/xlink" x="0px"
	 y="0px" viewBox="0 0 24 24" style="enable-background:new 0 0 24 24;" xml:space="preserve">
<path style="fill:#333333;" d="M9,10.5H4c-0.827,0-1.5-0.673-1.5-1.5V4c0-0.827,0.673-1.5,1.5-1.5h5c0.827,0,1.5,0.673,1.5,1.5v5
	C10.5,9.827,9.827,10.5,9,10.5z M4,3.5C3.724,3.5,3.5,3.724,3.5,4v5c0,0.276,0.224,0.5,0.5,0.5h5c0.276,0,0.5-0.224,0.5-0.5V4
	c0-0.276-0.224-0.5-0.5-0.5H4z"/>
<path style="fill:#333333;" d="M9,21.5H4c-0.827,0-1.5-0.673-1.5-1.5v-5c0-0.827,0.673-1.5,1.5-1.5h5c0.827,0,1.5,0.673,1.5,1.5v5
	C10.5,20.827,9.827,21.5,9,21.5z M4,14.5c-0.276,0-0.5,0.225-0.5,0.5v5c0,0.275,0.224,0.5,0.5,0.5h5c0.276,0,0.5-0.225,0.5-0.5v-5
	c0-0.275-0.224-0.5-0.5-0.5H4z"/>
<path style="fill:#333333;" d="M17.5,10.5c-2.206,0-4-1.794-4-4s1.794-4,4-4s4,1.794,4,4S19.706,10.5,17.5,10.5z M17.5,3.5
	c-1.654,0-3,1.346-3,3s1.346,3,3,3s3-1.346,3-3S19.154,3.5,17.5,3.5z"/>
<path style="fill:#333333;" d="M20,21.5h-5c-0.827,0-1.5-0.673-1.5-1.5v-5c0-0.827,0.673-1.5,1.5-1.5h5c0.827,0,1.5,0.673,1.5,1.5v5
	C21.5,20.827,20.827,21.5,20,21.5z M15,14.5c-0.275,0-0.5,0.225-0.5,0.5v5c0,0.275,0.225,0.5,0.5,0.5h5c0.275,0,0.5-0.225,0.5-0.5
	v-5c0-0.275-0.225-0.5-0.5-0.5H15z"/>
</svg>






