<?xml version="1.0" encoding="iso-8859-1"?>
<svg version="1.1" id="&#x56FE;&#x5C42;_1" xmlns="http://www.w3.org/2000/svg" xmlns:xlink="http://www.w3.org/1999/xlink" x="0px"
	 y="0px" viewBox="0 0 24 24" style="enable-background:new 0 0 24 24;" xml:space="preserve">
<path style="fill:#333333;" d="M15.726,8.98c-1.654,0-3-1.346-3-3s1.346-3,3-3s3,1.346,3,3S17.38,8.98,15.726,8.98z M15.726,3.98
	c-1.103,0-2,0.897-2,2s0.897,2,2,2s2-0.897,2-2S16.828,3.98,15.726,3.98z"/>
<polygon style="fill:#333333;" points="17.508,17.09 16.623,12.221 11.707,14.455 11.388,14.487 4.888,12.987 5.112,12.013 
	11.447,13.475 16.793,11.045 17.492,11.411 18.492,16.91 "/>
<rect x="2" y="20.015" style="fill:#333333;" width="20" height="1"/>
<circle style="fill:#333333;" cx="4.5" cy="12.5" r="2.5"/>
<circle style="fill:#333333;" cx="3" cy="8.5" r="1"/>
<polygon style="fill:#333333;" points="14.658,17.475 14.342,16.525 20.811,14.369 16.743,11.929 17.257,11.071 22.257,14.071 
	22.158,14.975 "/>
</svg>






