<?xml version="1.0" encoding="iso-8859-1"?>
<svg version="1.1" id="&#x56FE;&#x5C42;_1" xmlns="http://www.w3.org/2000/svg" xmlns:xlink="http://www.w3.org/1999/xlink" x="0px"
	 y="0px" viewBox="0 0 24 24" style="enable-background:new 0 0 24 24;" xml:space="preserve">
<path style="fill:#333333;" d="M18,22.5H4c-1.103,0-2-0.897-2-2v-17c0-1.103,0.897-2,2-2h12c1.103,0,2,0.897,2,2V22.5z M4,2.5
	c-0.551,0-1,0.449-1,1v17c0,0.552,0.449,1,1,1h13v-18c0-0.551-0.448-1-1-1H4z"/>
<path style="fill:#333333;" d="M20,22.5h-3V12c0-0.827,0.673-1.5,1.5-1.5h2c0.827,0,1.5,0.673,1.5,1.5v8.5
	C22,21.603,21.103,22.5,20,22.5z M18,21.5h2c0.552,0,1-0.448,1-1V12c0-0.276-0.225-0.5-0.5-0.5h-2c-0.275,0-0.5,0.224-0.5,0.5V21.5z
	"/>
<rect x="5.5" y="5.5" style="fill:#333333;" width="4" height="1"/>
<rect x="5.5" y="9" style="fill:#333333;" width="6" height="1"/>
</svg>






