<?xml version="1.0" encoding="iso-8859-1"?>
<svg version="1.1" id="&#x56FE;&#x5C42;_1" xmlns="http://www.w3.org/2000/svg" xmlns:xlink="http://www.w3.org/1999/xlink" x="0px"
	 y="0px" viewBox="0 0 24 24" style="enable-background:new 0 0 24 24;" xml:space="preserve">
<path style="fill:#333333;" d="M13.358,22.104c-0.615,0-1.193-0.24-1.627-0.675L3.5,13.207V3.5h9.707l8.231,8.231
	c0.89,0.895,0.89,2.35,0.001,3.243l-6.454,6.454C14.55,21.864,13.973,22.104,13.358,22.104z M4.5,12.793l7.938,7.929
	c0.492,0.492,1.348,0.492,1.84,0l6.453-6.453c0.501-0.505,0.501-1.326-0.001-1.831L12.793,4.5H4.5V12.793z"/>
<path style="fill-rule:evenodd;clip-rule:evenodd;fill:#333333;" d="M9.25,10.5c0.69,0,1.25-0.56,1.25-1.25S9.94,8,9.25,8
	S8,8.56,8,9.25S8.56,10.5,9.25,10.5z"/>
</svg>






