<?xml version="1.0" encoding="iso-8859-1"?>
<svg version="1.1" id="&#x56FE;&#x5C42;_1" xmlns="http://www.w3.org/2000/svg" xmlns:xlink="http://www.w3.org/1999/xlink" x="0px"
	 y="0px" viewBox="0 0 24 24" style="enable-background:new 0 0 24 24;" xml:space="preserve">
<path style="fill:#333333;" d="M3.5,22h-1v-7c0-0.827,0.673-1.5,1.5-1.5h4v1H4c-0.276,0-0.5,0.225-0.5,0.5V22z"/>
<path style="fill:#333333;" d="M21.5,22h-1v-7c0-0.275-0.225-0.5-0.5-0.5h-4v-1h4c0.827,0,1.5,0.673,1.5,1.5V22z"/>
<path style="fill:#333333;" d="M14.221,12.5H9.778l-0.149-0.163c-0.285-0.313-2.764-3.115-2.102-5.002
	c0.326-0.928,0.952-1.537,1.557-2.125c0.182-0.177,0.368-0.358,0.55-0.552c0.781-0.83,1.968-1.97,2.018-2.018L12,2.307l0.346,0.332
	c0.05,0.048,1.237,1.188,2.019,2.018c0.183,0.194,0.368,0.375,0.551,0.553c0.605,0.588,1.23,1.197,1.557,2.124
	c0.663,1.888-1.817,4.689-2.102,5.003L14.221,12.5z M10.225,11.5h3.55c0.908-1.051,2.088-2.884,1.754-3.834
	c-0.248-0.706-0.74-1.185-1.311-1.739c-0.192-0.188-0.389-0.379-0.582-0.584C13.126,4.8,12.417,4.103,12,3.696
	c-0.417,0.406-1.125,1.104-1.636,1.646c-0.193,0.205-0.389,0.396-0.582,0.583c-0.57,0.555-1.063,1.034-1.311,1.74
	C8.138,8.616,9.317,10.449,10.225,11.5z"/>
<rect x="2" y="21.5" style="fill:#333333;" width="20" height="1"/>
<path style="fill:#333333;" d="M16.5,22.5h-9v-11h9V22.5z M8.5,21.5h7v-9h-7V21.5z"/>
<rect x="11.5" y="17" style="fill:#333333;" width="1" height="5"/>
<rect x="11.5" y="2" style="fill:#333333;" width="1" height="1.5"/>
<rect x="4.5" y="12" style="fill:#333333;" width="1" height="2"/>
<rect x="18.5" y="12" style="fill:#333333;" width="1" height="2"/>
<rect x="10" y="21.5" style="fill:#333333;" width="4" height="1"/>
</svg>






