<?xml version="1.0" encoding="iso-8859-1"?>
<svg version="1.1" id="&#x56FE;&#x5C42;_1" xmlns="http://www.w3.org/2000/svg" xmlns:xlink="http://www.w3.org/1999/xlink" x="0px"
	 y="0px" viewBox="0 0 24 24" style="enable-background:new 0 0 24 24;" xml:space="preserve">
<g>
	<defs>
		<rect id="SVGID_1_" width="24" height="24"/>
	</defs>
	<clipPath id="SVGID_00000121255680909309661740000006223655341604347790_">
		<use xlink:href="#SVGID_1_"  style="overflow:visible;"/>
	</clipPath>
	<g style="clip-path:url(#SVGID_00000121255680909309661740000006223655341604347790_);">
		<rect x="2.499" y="19.994" style="fill:#333333;" width="19" height="1"/>
		<path style="fill:#333333;" d="M4.011,16.2l-2.741-4.746l0.433-0.25c0.796-0.461,3.31,0.584,4.051,0.91l4.098-1.466L5.599,3.282
			l3.079-0.185l6.644,6.178l3.847-1.218c1.998-0.573,2.836,0.439,3.103,0.901c0.58,1.004,0.164,2.078-1.087,2.801
			C19.566,12.693,5.92,15.771,4.37,16.12L4.011,16.2z M2.833,12.159l1.677,2.904c6.036-1.36,15.073-3.534,16.173-4.169
			c0.53-0.307,1.087-0.805,0.723-1.436c-0.411-0.71-1.289-0.634-1.948-0.444l-4.39,1.389L8.311,4.121L7.274,4.184l4.043,7.002
			l-5.619,2.012l-0.193-0.1C4.798,12.735,3.602,12.33,2.833,12.159z"/>
	</g>
</g>
</svg>






