<?xml version="1.0" encoding="iso-8859-1"?>
<svg version="1.1" id="&#x56FE;&#x5C42;_1" xmlns="http://www.w3.org/2000/svg" xmlns:xlink="http://www.w3.org/1999/xlink" x="0px"
	 y="0px" viewBox="0 0 24 24" style="enable-background:new 0 0 24 24;" xml:space="preserve">
<path style="fill:#333333;" d="M6.217,17.215c-0.466,0-0.927-0.163-1.297-0.479l-3.885-3.312l2.568-0.983
	c0.421-0.162,0.892-0.176,1.324-0.038l1.639,0.523c0.252,0.08,0.52,0.059,0.757-0.061l11.131-5.649C18.733,7.075,19.046,7,19.358,7
	h3.45l-1.138,2.276c-0.192,0.385-0.511,0.703-0.895,0.895l-4.553,2.276l-0.447-0.895l4.553-2.276
	c0.192-0.096,0.351-0.255,0.447-0.448L21.191,8h-1.833c-0.156,0-0.312,0.038-0.452,0.108L7.775,13.758
	c-0.472,0.239-1.01,0.282-1.514,0.122l-1.639-0.523c-0.215-0.07-0.45-0.062-0.662,0.019l-0.995,0.382l2.603,2.218
	c0.306,0.261,0.736,0.313,1.096,0.134l4.112-2.056l0.447,0.895l-4.112,2.056C6.828,17.146,6.521,17.215,6.217,17.215z"/>
<polygon style="fill:#333333;" points="11.942,20.734 11.053,20.724 8.329,15.276 10.777,14.053 11.224,14.947 9.671,15.724 
	11.513,19.407 15.559,11.766 16.441,12.234 "/>
<polygon style="fill:#333333;" points="8.063,12.743 5.563,8.243 6.121,7.515 14.121,9.515 13.879,10.485 6.997,8.765 8.937,12.257 
	"/>
</svg>






