<?xml version="1.0" encoding="iso-8859-1"?>
<svg version="1.1" id="&#x56FE;&#x5C42;_1" xmlns="http://www.w3.org/2000/svg" xmlns:xlink="http://www.w3.org/1999/xlink" x="0px"
	 y="0px" viewBox="0 0 24 24" style="enable-background:new 0 0 24 24;" xml:space="preserve">
<path style="fill:#333333;" d="M12,0c6.627,0,12,5.373,12,12s-5.373,12-12,12S0,18.627,0,12S5.373,0,12,0z M12,2.182
	c-5.422,0-9.818,4.396-9.818,9.818S6.578,21.818,12,21.818s9.818-4.396,9.818-9.818S17.422,2.182,12,2.182z M9.564,5.809
	l1.818,0.372c-0.05,0.35-0.168,0.746-0.354,1.188c0.594-0.214,1.163-0.372,1.706-0.473c1.194-0.223,2.121-0.35,3.041-0.35
	c0.92,0,1.627,0.009,2.524,0.718c0.558,0.441,0.902,1.021,1.031,1.739l0.024,0.156v6.336c0,0.423-0.113,0.86-0.338,1.31
	c-0.211,0.422-0.618,0.661-1.22,0.716l-0.123,0.009h-3.77c-0.241-0.705-0.241-1.121,0-1.248c0.362-0.191,1.751,0.321,2.362,0
	c0.38-0.2,0.573-0.572,0.58-1.117l-0.001-0.119v-5.98c0-0.927-0.567-1.567-2.313-1.472C13.581,7.646,12.475,7.881,11.21,8.3
	l0.411,0.125l0.496,0.169v0.163c0,0.276,0.205,0.505,0.472,0.541l0.063,0.005l3.649,0.07v1.004h-2.728v1.25H16.3v0.776h-2.757
	l0.03,2.437c0.257,0.02,0.511-0.033,0.761-0.157c0.168-0.083,0.299-0.204,0.393-0.362l-0.182-0.36c0,0,0-0.001-0.001-0.001
	c-0.126-0.25-0.041-0.55,0.187-0.701l0.055-0.032l0.627-0.316c0.025-0.012,0.051-0.023,0.077-0.032
	c0.266-0.086,0.55,0.043,0.664,0.291l0.023,0.059l0.372,1.147c0.074,0.227-0.01,0.473-0.199,0.61l-0.054,0.035l-0.45,0.251
	c-0.006,0.003-0.013,0.007-0.019,0.01c-0.25,0.126-0.55,0.043-0.701-0.185l-0.032-0.055l-0.007-0.012
	c-0.276,0.299-0.537,0.529-0.784,0.688c-0.408,0.264-0.849,0.479-1.357,0.513l-0.14,0.005h-2.627c-0.213,0-0.599-0.138-0.996-0.518
	c-0.242-0.232-0.39-0.594-0.442-1.086l-0.012-0.137v-1.371h2.078c0.017,0.593,0.072,1.05,0.166,1.371
	c0.088,0.3,0.321,0.419,0.699,0.359l0.083-0.016v-2.437H8.727v-0.776h3.027v-1.25h-0.579l-0.918,1.148l-0.999-0.632
	c0.614-0.693,0.99-1.141,1.127-1.346s0.137-0.557,0-1.057l0.023,0.091L10.389,8.59c-0.354,0.535-0.823,1.053-1.406,1.555
	l-0.191,0.161L7.538,9.068c0.571-0.443,0.988-0.855,1.253-1.236C9.056,7.451,9.314,6.777,9.564,5.809z M5.716,8.894l1.788,1.681
	c0.649,0.61,0.859,1.549,0.542,2.373l-0.044,0.107l-1.855,4.154l-2.044-1.42l2.601-2.754c0.035-0.037,0.067-0.076,0.096-0.117
	c0.331-0.467,0.244-1.105-0.187-1.466l-0.071-0.055l-1.857-1.319L5.716,8.894z M6.818,5.455c0.753,0,1.364,0.611,1.364,1.364
	c0,0.753-0.61,1.364-1.364,1.364c-0.753,0-1.364-0.61-1.364-1.364C5.455,6.065,6.065,5.455,6.818,5.455z"/>
</svg>






