<?xml version="1.0" encoding="iso-8859-1"?>
<svg version="1.1" id="&#x56FE;&#x5C42;_1" xmlns="http://www.w3.org/2000/svg" xmlns:xlink="http://www.w3.org/1999/xlink" x="0px"
	 y="0px" viewBox="0 0 24 24" style="enable-background:new 0 0 24 24;" xml:space="preserve">
<path style="fill:#333333;" d="M4,9.5H3V6c0-1.103,0.897-2,2-2s2,0.897,2,2v1.5H6V6c0-0.551-0.449-1-1-1S4,5.449,4,6V9.5z"/>
<path style="fill:#333333;" d="M14.5,20h-13v-6.5C1.5,9.916,4.416,7,8,7s6.5,2.916,6.5,6.5V20z M2.5,19h11v-5.5
	C13.5,10.467,11.033,8,8,8s-5.5,2.467-5.5,5.5V19z"/>
<path style="fill:#333333;" d="M22.5,20h-9v-7h9V20z M14.5,19h7v-5h-7V19z"/>
<path style="fill:#333333;" d="M8,16c-1.378,0-2.5-1.121-2.5-2.5S6.622,11,8,11s2.5,1.121,2.5,2.5S9.378,16,8,16z M8,12
	c-0.827,0-1.5,0.673-1.5,1.5S7.173,15,8,15s1.5-0.673,1.5-1.5S8.827,12,8,12z"/>
<rect x="19" y="13.5" style="fill:#333333;" width="1" height="2"/>
<rect x="16" y="13.5" style="fill:#333333;" width="1" height="2"/>
<rect x="15" y="13" style="fill:#333333;" width="6" height="1"/>
</svg>






