<?xml version="1.0" encoding="iso-8859-1"?>
<svg version="1.1" id="&#x56FE;&#x5C42;_1" xmlns="http://www.w3.org/2000/svg" xmlns:xlink="http://www.w3.org/1999/xlink" x="0px"
	 y="0px" viewBox="0 0 24 24" style="enable-background:new 0 0 24 24;" xml:space="preserve">
<path style="fill:#333333;" d="M21,19.5H3c-0.827,0-1.5-0.673-1.5-1.5V6c0-0.827,0.673-1.5,1.5-1.5h18c0.827,0,1.5,0.673,1.5,1.5v12
	C22.5,18.827,21.827,19.5,21,19.5z M3,5.5C2.724,5.5,2.5,5.724,2.5,6v12c0,0.275,0.224,0.5,0.5,0.5h18c0.275,0,0.5-0.225,0.5-0.5V6
	c0-0.276-0.225-0.5-0.5-0.5H3z"/>
<path style="fill:#333333;" d="M16.031,8.5H7.968c-0.446,0-0.867-0.197-1.152-0.54l-0.833-1C5.606,6.508,5.527,5.896,5.777,5.364
	S6.547,4.5,7.135,4.5h9.73c0.588,0,1.108,0.331,1.358,0.864c0.249,0.533,0.17,1.145-0.207,1.597l-0.833,1
	C16.897,8.303,16.478,8.5,16.031,8.5z M7.135,5.5c-0.295,0-0.421,0.22-0.453,0.288C6.651,5.855,6.562,6.093,6.751,6.32l0.833,1
	C7.68,7.435,7.819,7.5,7.968,7.5h8.063c0.148,0,0.289-0.066,0.385-0.18l0.833-1c0.188-0.227,0.101-0.465,0.068-0.533
	C17.286,5.72,17.16,5.5,16.865,5.5H7.135z"/>
<rect x="3" y="4.5" style="fill:#333333;" width="18" height="1"/>
<path style="fill:#333333;" d="M16.5,16c-1.379,0-2.5-1.121-2.5-2.5s1.121-2.5,2.5-2.5s2.5,1.121,2.5,2.5S17.879,16,16.5,16z
	 M16.5,12c-0.827,0-1.5,0.673-1.5,1.5s0.673,1.5,1.5,1.5s1.5-0.673,1.5-1.5S17.327,12,16.5,12z"/>
<path style="fill:#333333;" d="M7.5,16C6.122,16,5,14.879,5,13.5S6.122,11,7.5,11s2.5,1.121,2.5,2.5S8.878,16,7.5,16z M7.5,12
	C6.673,12,6,12.673,6,13.5S6.673,15,7.5,15S9,14.327,9,13.5S8.327,12,7.5,12z"/>
</svg>






