<?xml version="1.0" encoding="iso-8859-1"?>
<svg version="1.1" id="&#x56FE;&#x5C42;_1" xmlns="http://www.w3.org/2000/svg" xmlns:xlink="http://www.w3.org/1999/xlink" x="0px"
	 y="0px" viewBox="0 0 24 24" style="enable-background:new 0 0 24 24;" xml:space="preserve">
<path style="fill:#333333;" d="M12,21c-4.962,0-9-4.037-9-9c0-4.962,4.038-9,9-9c4.963,0,9,4.038,9,9C21,16.963,16.963,21,12,21z
	 M12,4c-4.411,0-8,3.589-8,8s3.589,8,8,8s8-3.589,8-8S16.411,4,12,4z"/>
<path style="fill:#333333;" d="M12,16.5c-2.481,0-4.5-2.019-4.5-4.5S9.519,7.5,12,7.5s4.5,2.019,4.5,4.5S14.481,16.5,12,16.5z
	 M12,8.5c-1.93,0-3.5,1.57-3.5,3.5s1.57,3.5,3.5,3.5s3.5-1.57,3.5-3.5S13.93,8.5,12,8.5z"/>
<rect x="2" y="11.5" style="fill:#333333;" width="20" height="1"/>
<rect x="11.5" y="2" style="fill:#333333;" width="1" height="20"/>
</svg>






