<?xml version="1.0" encoding="iso-8859-1"?>
<svg version="1.1" id="&#x56FE;&#x5C42;_1" xmlns="http://www.w3.org/2000/svg" xmlns:xlink="http://www.w3.org/1999/xlink" x="0px"
	 y="0px" viewBox="0 0 24 24" style="enable-background:new 0 0 24 24;" xml:space="preserve">
<path style="fill:#333333;" d="M12,15.5c-1.93,0-3.5-1.57-3.5-3.5c0-1.341,0.782-2.582,1.993-3.16l0.431,0.902
	C10.059,10.156,9.5,11.042,9.5,12c0,1.379,1.122,2.5,2.5,2.5c0.958,0,1.844-0.56,2.258-1.425l0.902,0.432
	C14.581,14.718,13.341,15.5,12,15.5z"/>
<path style="fill:#333333;" d="M12,19c-3.86,0-7-3.141-7-7c0-3.86,3.14-7,7-7c0.79,0,1.564,0.13,2.304,0.388l-0.328,0.944
	C13.342,6.112,12.678,6,12,6c-3.309,0-6,2.691-6,6s2.691,6,6,6s6-2.691,6-6c0-0.677-0.112-1.342-0.333-1.975l0.944-0.329
	C18.869,10.435,19,11.21,19,12C19,15.859,15.859,19,12,19z"/>
<path style="fill:#333333;" d="M12,22.5C6.21,22.5,1.5,17.79,1.5,12C1.5,6.21,6.21,1.5,12,1.5c1.754,0,3.491,0.442,5.023,1.277
	l-0.479,0.878C15.159,2.899,13.587,2.5,12,2.5c-5.238,0-9.5,4.262-9.5,9.5s4.262,9.5,9.5,9.5s9.5-4.262,9.5-9.5
	c0-1.588-0.399-3.16-1.154-4.544l0.877-0.479C22.059,8.508,22.5,10.245,22.5,12C22.5,17.79,17.79,22.5,12,22.5z"/>
<rect x="9.929" y="6.5" transform="matrix(0.7071 -0.7071 0.7071 0.7071 0.0294 14.0711)" style="fill:#333333;" width="14.142" height="1"/>
</svg>






