<?xml version="1.0" encoding="iso-8859-1"?>
<svg version="1.1" id="&#x56FE;&#x5C42;_1" xmlns="http://www.w3.org/2000/svg" xmlns:xlink="http://www.w3.org/1999/xlink" x="0px"
	 y="0px" viewBox="0 0 24 24" style="enable-background:new 0 0 24 24;" xml:space="preserve">
<path style="fill:#333333;" d="M11.944,20.444c-4.687,0-8.5-3.813-8.5-8.5c0-4.687,3.813-8.5,8.5-8.5c4.687,0,8.5,3.813,8.5,8.5
	C20.444,16.631,16.631,20.444,11.944,20.444z M11.944,4.444c-4.136,0-7.5,3.364-7.5,7.5s3.364,7.5,7.5,7.5s7.5-3.364,7.5-7.5
	S16.08,4.444,11.944,4.444z"/>
<path style="fill:#333333;" d="M11.944,16.444c-2.481,0-4.5-2.019-4.5-4.5s2.019-4.5,4.5-4.5s4.5,2.019,4.5,4.5
	S14.426,16.444,11.944,16.444z M11.944,8.444c-1.93,0-3.5,1.57-3.5,3.5s1.57,3.5,3.5,3.5s3.5-1.57,3.5-3.5
	S13.874,8.444,11.944,8.444z"/>
<path style="fill:#333333;" d="M11.944,12.944c0.55,0,1-0.45,1-1s-0.45-1-1-1s-1,0.45-1,1S11.394,12.944,11.944,12.944z"/>
<rect x="11.444" y="1.944" style="fill:#333333;" width="1" height="2"/>
<rect x="17.444" y="18.179" transform="matrix(0.8682 -0.4961 0.4961 0.8682 -7.6549 11.5636)" style="fill:#333333;" width="1.001" height="4.031"/>
<rect x="3.929" y="19.694" transform="matrix(0.4961 -0.8682 0.8682 0.4961 -14.5385 15.3363)" style="fill:#333333;" width="4.031" height="1"/>
</svg>






