<?xml version="1.0" encoding="iso-8859-1"?>
<svg version="1.1" id="&#x56FE;&#x5C42;_1" xmlns="http://www.w3.org/2000/svg" xmlns:xlink="http://www.w3.org/1999/xlink" x="0px"
	 y="0px" viewBox="0 0 24 24" style="enable-background:new 0 0 24 24;" xml:space="preserve">
<path style="fill:#333333;" d="M17.502,22C16.122,22,15,20.879,15,19.5H9C9,20.879,7.878,22,6.5,22S4,20.879,4,19.5H3.5
	c-1.103,0-2-0.897-2-2v-3.646c0-1.334,0.742-2.534,1.936-3.131l0.146-0.073l1.093-3.745C4.934,5.794,5.935,5,7.103,5h9.844
	c1.18,0,2.183,0.804,2.44,1.955l1.036,3.698l0.142,0.071c1.193,0.597,1.935,1.796,1.935,3.131V17.5c0,1.103-0.897,2-2,2h-0.498
	C20.002,20.879,18.881,22,17.502,22z M8,18.5h8v1c0,0.827,0.674,1.5,1.502,1.5c0.827,0,1.5-0.673,1.5-1.5v-1H20.5
	c0.552,0,1-0.448,1-1v-3.646c0-0.953-0.529-1.811-1.382-2.236l-0.538-0.269l-1.162-4.15C18.257,6.482,17.655,6,16.947,6H7.103
	C6.402,6,5.801,6.477,5.642,7.159l-1.223,4.192l-0.537,0.268C3.03,12.045,2.5,12.901,2.5,13.854V17.5c0,0.552,0.449,1,1,1H5v1
	C5,20.327,5.673,21,6.5,21C7.327,21,8,20.327,8,19.5V18.5z"/>
<path style="fill:#333333;" d="M6.75,16.5C7.44,16.5,8,15.94,8,15.25S7.44,14,6.75,14S5.5,14.56,5.5,15.25S6.06,16.5,6.75,16.5z"/>
<path style="fill:#333333;" d="M17.25,16.5c0.69,0,1.25-0.56,1.25-1.25S17.94,14,17.25,14S16,14.56,16,15.25S16.56,16.5,17.25,16.5z
	"/>
<path style="fill:#333333;" d="M15.609,6H8.39l0.615-3.076C9.112,2.389,9.565,2,10.082,2h3.837c0.516,0,0.968,0.388,1.076,0.923
	L15.609,6z M9.61,5h4.781l-0.376-1.88C14,3.046,13.953,3,13.919,3h-3.837C10.047,3,10,3.046,9.986,3.12L9.61,5z"/>
<rect x="7.5" y="11" style="fill:#333333;" width="9" height="1"/>
</svg>






