<?xml version="1.0" encoding="iso-8859-1"?>
<svg version="1.1" id="&#x56FE;&#x5C42;_1" xmlns="http://www.w3.org/2000/svg" xmlns:xlink="http://www.w3.org/1999/xlink" x="0px"
	 y="0px" viewBox="0 0 24 24" style="enable-background:new 0 0 24 24;" xml:space="preserve">
<path style="fill:#333333;" d="M10,21.5c-5.771,0-9.5-4.514-9.5-11.5V9.5h19V10C19.5,16.986,15.771,21.5,10,21.5z M1.507,10.5
	c0.144,4.926,2.431,10,8.493,10s8.35-5.074,8.493-10H1.507z"/>
<rect x="9.5" y="3" style="fill:#333333;" width="1" height="4"/>
<rect x="14.5" y="5" style="fill:#333333;" width="1" height="2"/>
<rect x="4.5" y="5" style="fill:#333333;" width="1" height="2"/>
<path style="fill:#333333;" d="M19.5,16c-0.533,0-1.052-0.069-1.541-0.207l-0.527-0.148l0.196-0.512
	c0.473-1.234,0.757-2.626,0.844-4.136l0.024-0.428l0.427-0.041C19.111,10.51,19.304,10.5,19.5,10.5c2.243,0,4,1.208,4,2.75
	S21.743,16,19.5,16z M18.757,14.944C18.998,14.981,19.247,15,19.5,15c1.626,0,3-0.802,3-1.75c0-0.96-1.401-1.795-3.062-1.75
	C19.336,12.729,19.107,13.884,18.757,14.944z"/>
</svg>






