<?xml version="1.0" encoding="iso-8859-1"?>
<svg version="1.1" id="&#x56FE;&#x5C42;_1" xmlns="http://www.w3.org/2000/svg" xmlns:xlink="http://www.w3.org/1999/xlink" x="0px"
	 y="0px" viewBox="0 0 24 24" style="enable-background:new 0 0 24 24;" xml:space="preserve">
<path style="fill:#333333;" d="M11.5,21.5C7.916,21.5,5,18.584,5,15V9.083C5,8.762,5.262,8.5,5.583,8.5h11.833
	C17.738,8.5,18,8.762,18,9.083V15C18,18.584,15.084,21.5,11.5,21.5z M6,9.5V15c0,3.032,2.467,5.5,5.5,5.5c3.032,0,5.5-2.468,5.5-5.5
	V9.5H6z"/>
<path style="fill:#333333;" d="M17.5,15.5v-1c1.379,0,2.5-1.121,2.5-2.5c0-1.378-1.121-2.5-2.5-2.5v-1c1.93,0,3.5,1.57,3.5,3.5
	S19.43,15.5,17.5,15.5z"/>
<rect x="5" y="4" style="fill:#333333;" width="1" height="1.5"/>
<rect x="17" y="4" style="fill:#333333;" width="1" height="1.5"/>
<rect x="11" y="2.5" style="fill:#333333;" width="1" height="3"/>
</svg>






