<?xml version="1.0" encoding="iso-8859-1"?>
<svg version="1.1" id="&#x56FE;&#x5C42;_1" xmlns="http://www.w3.org/2000/svg" xmlns:xlink="http://www.w3.org/1999/xlink" x="0px"
	 y="0px" viewBox="0 0 24 24" style="enable-background:new 0 0 24 24;" xml:space="preserve">
<path style="fill:#333333;" d="M19.848,13H3.154l0.175-0.634C4.368,8.618,7.729,6,11.5,6s7.132,2.618,8.171,6.366L19.848,13z
	 M4.498,12h14.006c-1.102-2.975-3.896-5-7.003-5C8.392,7,5.599,9.025,4.498,12z"/>
<path style="fill:#333333;" d="M17.53,21H5.471l-0.149-0.163C3.825,19.199,3,17.054,3,14.796c0-0.825,0.11-1.643,0.329-2.43
	L3.431,12h16.14l0.102,0.366c0.219,0.787,0.329,1.604,0.329,2.43c0,2.257-0.825,4.402-2.322,6.041L17.53,21z M5.916,20h11.169
	c1.237-1.432,1.916-3.271,1.916-5.204c0-0.607-0.067-1.21-0.2-1.796h-14.6C4.068,13.586,4,14.188,4,14.796
	C4,16.729,4.679,18.568,5.916,20z"/>
<path style="fill:#333333;" d="M14,6.5h-1v-1C13,4.673,12.327,4,11.5,4S10,4.673,10,5.5v1H9v-1C9,4.122,10.122,3,11.5,3
	C12.879,3,14,4.122,14,5.5V6.5z"/>
<path style="fill:#333333;" d="M3.468,14.499c-0.053-0.004-1.306-0.103-1.927-1.552c-0.622-1.45-0.055-2.509,0.445-3.444
	c0.199-0.372,0.404-0.755,0.54-1.162c0.279-0.837-0.284-1.486-0.644-1.799C1.64,6.332,1.501,6.037,1.5,5.734v-0.31
	c0-0.52,0.396-0.941,0.902-0.96C2.959,4.445,3.999,4.499,4.8,5.1c1.116,0.836,1.633,3.042,1.688,3.292L5.513,8.609
	C5.384,8.032,4.897,6.422,4.2,5.9C3.644,5.482,2.853,5.448,2.44,5.462l0.06,0.27c0.479,0.438,1.454,1.486,0.974,2.926
	C3.312,9.145,3.086,9.567,2.868,9.976c-0.469,0.876-0.84,1.569-0.408,2.577c0.373,0.869,1.053,0.946,1.082,0.949L3.468,14.499z"/>
<rect x="4.5" y="20" style="fill:#333333;" width="14" height="1"/>
<path style="fill:#333333;" d="M19.5,13v-1c1.103,0,2-0.897,2-2s-0.897-2-2-2c-0.796,0-1.516,0.471-1.834,1.2L16.75,8.8
	C17.228,7.707,18.307,7,19.5,7c1.654,0,3,1.346,3,3S21.154,13,19.5,13z"/>
</svg>






