<?xml version="1.0" encoding="iso-8859-1"?>
<svg version="1.1" id="&#x56FE;&#x5C42;_1" xmlns="http://www.w3.org/2000/svg" xmlns:xlink="http://www.w3.org/1999/xlink" x="0px"
	 y="0px" viewBox="0 0 24 24" style="enable-background:new 0 0 24 24;" xml:space="preserve">
<path style="fill:#333333;" d="M16.5,22c-1.288,0-2.153-1.927-3.326-4.866c-0.364-0.914-0.849-2.127-1.15-2.533
	c-0.35,0.428-0.945,1.797-1.393,2.827C9.394,20.272,8.565,22,7.5,22c-1.692,0-2.653-1.669-3.025-5.251
	c-0.172-1.661-0.467-2.681-0.956-4.369c-0.164-0.565-0.495-1.194-0.845-1.861C2.122,9.468,1.551,8.381,1.5,7.299
	C1.438,5.948,1.905,4.653,2.816,3.653c0.911-1,2.156-1.585,3.507-1.648C6.401,2.001,6.479,2,6.559,2h0.443
	C8.272,2.182,9.057,2.601,9.75,2.97c0.704,0.375,1.312,0.699,2.25,0.699c0.939,0,1.547-0.324,2.251-0.699
	c0.692-0.369,1.478-0.787,2.675-0.964L17.25,2c2.895,0,5.25,2.355,5.25,5.25v0.313c0,0.972-0.562,1.959-1.106,2.915
	c-0.363,0.638-0.738,1.297-0.913,1.902c-0.481,1.664-0.798,2.972-0.892,4.352C19.256,21.62,17.141,22,16.5,22z M12.031,13.513
	c0.743,0,1.173,0.997,2.071,3.251C14.693,18.244,15.793,21,16.5,21c0.828,0,1.873-1.136,2.091-4.337
	c0.1-1.469,0.43-2.834,0.929-4.561c0.208-0.719,0.613-1.431,1.005-2.119C21.026,9.102,21.5,8.27,21.5,7.563V7.25
	C21.5,4.907,19.594,3,17.25,3h-0.251c-0.953,0.146-1.626,0.505-2.277,0.853C13.968,4.254,13.189,4.669,12,4.669
	c-1.189,0-1.968-0.415-2.721-0.816C8.628,3.505,7.955,3.146,6.928,2.995l-0.557,0.01c-1.085,0.05-2.085,0.52-2.816,1.322
	C2.824,5.129,2.449,6.168,2.5,7.252C2.54,8.113,3.058,9.1,3.56,10.054c0.375,0.712,0.729,1.386,0.92,2.049
	c0.504,1.742,0.808,2.794,0.99,4.543C5.921,21,7.109,21,7.5,21c0.527-0.093,1.624-2.616,2.213-3.972
	C10.773,14.591,11.273,13.513,12.031,13.513z"/>
<rect x="11.37" y="3.225" transform="matrix(0.3068 -0.9518 0.9518 0.3068 1.0298 16.5405)" style="fill:#333333;" width="1" height="8.677"/>
<rect x="7.532" y="7.063" transform="matrix(0.9519 -0.3065 0.3065 0.9519 -1.7469 4.003)" style="fill:#333333;" width="8.678" height="1"/>
</svg>






