<?xml version="1.0" encoding="iso-8859-1"?>
<svg version="1.1" id="&#x56FE;&#x5C42;_1" xmlns="http://www.w3.org/2000/svg" xmlns:xlink="http://www.w3.org/1999/xlink" x="0px"
	 y="0px" viewBox="0 0 24 24" style="enable-background:new 0 0 24 24;" xml:space="preserve">
<path style="fill:#333333;" d="M20.71,3.654c0,0,1.943-0.757,1.781,1.082c-0.054,0.758-0.54,3.409-0.917,6.276l-1.295,8.495
	c0,0-0.108,1.244-1.079,1.461c-0.971,0.216-2.428-0.757-2.698-0.974c-0.216-0.162-4.047-2.597-5.396-3.788
	c-0.378-0.325-0.809-0.974,0.054-1.731l5.666-5.411c0.648-0.649,1.295-2.164-1.403-0.325l-7.555,5.14c0,0-0.863,0.541-2.482,0.054
	l-3.508-1.082c0,0-1.295-0.812,0.917-1.623C8.19,8.686,14.828,6.089,20.71,3.654z"/>
</svg>






