<?xml version="1.0" encoding="iso-8859-1"?>
<svg version="1.1" id="&#x56FE;&#x5C42;_1" xmlns="http://www.w3.org/2000/svg" xmlns:xlink="http://www.w3.org/1999/xlink" x="0px"
	 y="0px" viewBox="0 0 24 24" style="enable-background:new 0 0 24 24;" xml:space="preserve">
<path style="fill:#333333;" d="M6,22c-1.93,0-3.5-1.57-3.5-3.5v-13C2.5,3.57,4.07,2,6,2s3.5,1.57,3.5,3.5v13C9.5,20.43,7.93,22,6,22
	z M6,3C4.622,3,3.5,4.122,3.5,5.5v13C3.5,19.879,4.622,21,6,21s2.5-1.121,2.5-2.5v-13C8.5,4.122,7.378,3,6,3z"/>
<path style="fill:#333333;" d="M18,22c-1.93,0-3.5-1.57-3.5-3.5v-13C14.5,3.57,16.07,2,18,2s3.5,1.57,3.5,3.5v13
	C21.5,20.43,19.93,22,18,22z M18,3c-1.379,0-2.5,1.122-2.5,2.5v13c0,1.379,1.121,2.5,2.5,2.5s2.5-1.121,2.5-2.5v-13
	C20.5,4.122,19.379,3,18,3z"/>
<path style="fill:#333333;" d="M6,22c-1.93,0-3.5-1.57-3.5-3.5S4.07,15,6,15s3.5,1.57,3.5,3.5S7.93,22,6,22z M6,16
	c-1.378,0-2.5,1.121-2.5,2.5S4.622,21,6,21s2.5-1.121,2.5-2.5S7.378,16,6,16z"/>
<path style="fill:#333333;" d="M18,22c-1.93,0-3.5-1.57-3.5-3.5S16.07,15,18,15s3.5,1.57,3.5,3.5S19.93,22,18,22z M18,16
	c-1.379,0-2.5,1.121-2.5,2.5S16.621,21,18,21s2.5-1.121,2.5-2.5S19.379,16,18,16z"/>
<path style="fill:#333333;" d="M15.5,10.5h-1C14.5,9.122,13.379,8,12,8c-1.378,0-2.5,1.122-2.5,2.5h-1C8.5,8.57,10.07,7,12,7
	S15.5,8.57,15.5,10.5z"/>
<path style="fill:#333333;" d="M15.5,15.5h-1c0-1.379-1.121-2.5-2.5-2.5c-1.378,0-2.5,1.121-2.5,2.5h-1c0-1.93,1.57-3.5,3.5-3.5
	S15.5,13.57,15.5,15.5z"/>
</svg>






