<?xml version="1.0" encoding="iso-8859-1"?>
<svg version="1.1" id="&#x56FE;&#x5C42;_1" xmlns="http://www.w3.org/2000/svg" xmlns:xlink="http://www.w3.org/1999/xlink" x="0px"
	 y="0px" viewBox="0 0 24 24" style="enable-background:new 0 0 24 24;" xml:space="preserve">
<path style="fill:#333333;" d="M12,22.5C6.21,22.5,1.5,17.79,1.5,12C1.5,6.21,6.21,1.5,12,1.5c5.79,0,10.5,4.71,10.5,10.5
	C22.5,17.79,17.79,22.5,12,22.5z M12,2.5c-5.238,0-9.5,4.262-9.5,9.5s4.262,9.5,9.5,9.5s9.5-4.262,9.5-9.5S17.238,2.5,12,2.5z"/>
<path style="fill:#333333;" d="M2,12.504v-1c3.284,0,5.7-0.79,7.182-2.346c1.49-1.566,2.27-3.977,2.318-7.165l1,0.015
	c-0.052,3.448-0.925,6.086-2.593,7.84C8.229,11.61,5.568,12.504,2,12.504z"/>
<path style="fill:#333333;" d="M11.501,22.006c-0.042-3.454,0.858-6.072,2.676-7.779c1.818-1.708,4.452-2.454,7.842-2.223
	l-0.068,0.998c-3.096-0.217-5.48,0.444-7.089,1.953c-1.604,1.508-2.399,3.876-2.36,7.039L11.501,22.006z"/>
</svg>






