<?xml version="1.0" encoding="iso-8859-1"?>
<svg version="1.1" id="&#x56FE;&#x5C42;_1" xmlns="http://www.w3.org/2000/svg" xmlns:xlink="http://www.w3.org/1999/xlink" x="0px"
	 y="0px" viewBox="0 0 24 24" style="enable-background:new 0 0 24 24;" xml:space="preserve">
<path style="fill:#333333;" d="M20.5,21.5h-17C2.673,21.5,2,20.827,2,20v-8h1v8c0,0.275,0.224,0.5,0.5,0.5h17
	c0.275,0,0.5-0.225,0.5-0.5v-8h1v8C22,20.827,21.327,21.5,20.5,21.5z"/>
<rect x="2.5" y="15" style="fill:#333333;" width="19" height="1"/>
<path style="fill:#333333;" d="M16.5,11.5h-1C15.5,9.57,13.93,8,12,8s-3.5,1.57-3.5,3.5h-1C7.5,9.019,9.519,7,12,7
	S16.5,9.019,16.5,11.5z"/>
<rect x="11.5" y="3" style="fill:#333333;" width="1" height="1"/>
<rect x="16.854" y="4.854" transform="matrix(0.7071 -0.7071 0.7071 0.7071 1.2972 13.8388)" style="fill:#333333;" width="1" height="1"/>
<rect x="5.854" y="4.854" transform="matrix(0.7071 -0.7071 0.7071 0.7071 -1.9246 6.0606)" style="fill:#333333;" width="1" height="1"/>
</svg>






