<?xml version="1.0" encoding="iso-8859-1"?>
<svg version="1.1" id="&#x56FE;&#x5C42;_1" xmlns="http://www.w3.org/2000/svg" xmlns:xlink="http://www.w3.org/1999/xlink" x="0px"
	 y="0px" viewBox="0 0 24 24" style="enable-background:new 0 0 24 24;" xml:space="preserve">
<path style="fill:#333333;" d="M20,22.5H4c-1.378,0-2.5-1.121-2.5-2.5V4c0-1.378,1.122-2.5,2.5-2.5h16c1.379,0,2.5,1.122,2.5,2.5v16
	C22.5,21.379,21.379,22.5,20,22.5z M4,2.5C3.173,2.5,2.5,3.173,2.5,4v16c0,0.827,0.673,1.5,1.5,1.5h16c0.827,0,1.5-0.673,1.5-1.5V4
	c0-0.827-0.673-1.5-1.5-1.5H4z"/>
<rect x="5.5" y="6" style="fill:#333333;" width="1" height="4"/>
<rect x="13.5" y="14" style="fill:#333333;" width="1" height="4"/>
<rect x="9.5" y="6" style="fill:#333333;" width="1" height="4"/>
<rect x="14" y="5.5" style="fill:#333333;" width="4" height="1"/>
<rect x="6" y="13.5" style="fill:#333333;" width="4" height="1"/>
<rect x="14" y="9.5" style="fill:#333333;" width="4" height="1"/>
<rect x="6" y="17.5" style="fill:#333333;" width="4" height="1"/>
<rect x="17.5" y="14" style="fill:#333333;" width="1" height="4"/>
</svg>






