<?xml version="1.0" encoding="iso-8859-1"?>
<svg version="1.1" id="&#x56FE;&#x5C42;_1" xmlns="http://www.w3.org/2000/svg" xmlns:xlink="http://www.w3.org/1999/xlink" x="0px"
	 y="0px" viewBox="0 0 24 24" style="enable-background:new 0 0 24 24;" xml:space="preserve">
<path style="fill:#333333;" d="M12,12.5H5v-11h7c3.024,0,5.484,2.467,5.484,5.5S15.024,12.5,12,12.5z M6,11.5h6
	c2.473,0,4.484-2.019,4.484-4.5S14.473,2.5,12,2.5H6V11.5z"/>
<path style="fill:#333333;" d="M14.016,22.5H5v-11h9.016c3.024,0,5.484,2.468,5.484,5.5S17.04,22.5,14.016,22.5z M6,21.5h8.016
	c2.473,0,4.484-2.019,4.484-4.5s-2.012-4.5-4.484-4.5H6V21.5z"/>
</svg>






