<?xml version="1.0" encoding="iso-8859-1"?>
<svg version="1.1" id="&#x56FE;&#x5C42;_1" xmlns="http://www.w3.org/2000/svg" xmlns:xlink="http://www.w3.org/1999/xlink" x="0px"
	 y="0px" viewBox="0 0 24 24" style="enable-background:new 0 0 24 24;" xml:space="preserve">
<polygon style="fill:#333333;" points="21.5,8 20.5,8 20.5,3.5 16,3.5 16,2.5 21.5,2.5 "/>
<path style="fill:#333333;" d="M15.042,16.2L14.079,14H9.921l-0.963,2.2l-0.916-0.4l1.094-2.5l0.458,0.2l-0.458-0.2l2.406-5.5h0.916
	l2.406,5.5l-0.458,0.2l0.458-0.2l1.094,2.5L15.042,16.2z M10.358,13h3.283L12,9.248L10.358,13z"/>
<polygon style="fill:#333333;" points="3.5,8 2.5,8 2.5,2.5 8,2.5 8,3.5 3.5,3.5 "/>
<polygon style="fill:#333333;" points="21.5,21.5 16,21.5 16,20.5 20.5,20.5 20.5,16 21.5,16 "/>
<polygon style="fill:#333333;" points="8,21.5 2.5,21.5 2.5,16 3.5,16 3.5,20.5 8,20.5 "/>
</svg>






