<?xml version="1.0" encoding="iso-8859-1"?>
<svg version="1.1" id="&#x56FE;&#x5C42;_1" xmlns="http://www.w3.org/2000/svg" xmlns:xlink="http://www.w3.org/1999/xlink" x="0px"
	 y="0px" viewBox="0 0 24 24" style="enable-background:new 0 0 24 24;" xml:space="preserve">
<path style="fill:#333333;" d="M20.593,18.291l-4.738-6.632c-2.552,1.371-5.155,1.371-7.709,0l-4.739,6.632L2.5,18V4
	c0-0.827,0.673-1.5,1.5-1.5h16c0.827,0,1.5,0.673,1.5,1.5v14L20.593,18.291z M16.14,10.338l4.36,6.103V4c0-0.276-0.225-0.5-0.5-0.5
	H4C3.724,3.5,3.5,3.724,3.5,4v12.44l4.36-6.103l0.395,0.235c2.5,1.486,4.994,1.484,7.489,0L16.14,10.338z"/>
<rect x="3" y="20.5" style="fill:#333333;" width="18" height="1"/>
</svg>






