<?xml version="1.0" encoding="iso-8859-1"?>
<svg version="1.1" id="&#x56FE;&#x5C42;_1" xmlns="http://www.w3.org/2000/svg" xmlns:xlink="http://www.w3.org/1999/xlink" x="0px"
	 y="0px" viewBox="0 0 24 24" style="enable-background:new 0 0 24 24;" xml:space="preserve">
<path style="fill:#333333;" d="M12,22.5c-2.757,0-5-2.243-5-5c0-1.807,0.95-3.438,2.5-4.331V5c0-0.957,0-3.5,2.5-3.5
	s2.5,2.543,2.5,3.5v8.169c1.55,0.893,2.5,2.524,2.5,4.331C17,20.257,14.757,22.5,12,22.5z M12,2.5c-1.249,0-1.5,0.957-1.5,2.5v8.777
	l-0.277,0.139C8.852,14.597,8,15.97,8,17.5c0,2.206,1.794,4,4,4c2.206,0,4-1.794,4-4c0-1.529-0.852-2.903-2.223-3.585L13.5,13.777V5
	C13.5,3.457,13.249,2.5,12,2.5z"/>
</svg>






