<?xml version="1.0" encoding="iso-8859-1"?>
<svg version="1.1" id="&#x56FE;&#x5C42;_1" xmlns="http://www.w3.org/2000/svg" xmlns:xlink="http://www.w3.org/1999/xlink" x="0px"
	 y="0px" viewBox="0 0 24 24" style="enable-background:new 0 0 24 24;" xml:space="preserve">
<path style="fill:#333333;" d="M12,19c-7.374,0-7.498-3.352-7.5-3.494V7h15v8.5C19.498,15.648,19.373,19,12,19z M5.5,15.487
	C5.51,15.596,5.822,18,12,18c6.289,0,6.499-2.491,6.5-2.517V8h-13V15.487z"/>
<rect x="11.5" y="2" style="fill:#333333;" width="1" height="3"/>
<rect x="7.5" y="2.5" style="fill:#333333;" width="1" height="2"/>
<rect x="15.5" y="2.5" style="fill:#333333;" width="1" height="2"/>
<path style="fill:#333333;" d="M16,22H8c-0.827,0-1.5-0.673-1.5-1.5V18h1v2.5C7.5,20.775,7.724,21,8,21h8c0.275,0,0.5-0.225,0.5-0.5
	V18h1v2.5C17.5,21.327,16.827,22,16,22z"/>
</svg>






