<?xml version="1.0" encoding="iso-8859-1"?>
<svg version="1.1" id="&#x56FE;&#x5C42;_1" xmlns="http://www.w3.org/2000/svg" xmlns:xlink="http://www.w3.org/1999/xlink" x="0px"
	 y="0px" viewBox="0 0 24 24" style="enable-background:new 0 0 24 24;" xml:space="preserve">
<path style="fill:#333333;" d="M12,22.5c-3.033,0-5.5-2.468-5.5-5.5c0-1.661,0.726-3.193,2-4.243V5c0-1.93,1.57-3.5,3.5-3.5
	s3.5,1.57,3.5,3.5v7.757c1.274,1.05,2,2.582,2,4.243C17.5,20.032,15.032,22.5,12,22.5z M12,2.5c-1.378,0-2.5,1.122-2.5,2.5v8.25
	l-0.2,0.149C8.156,14.259,7.5,15.571,7.5,17c0,2.481,2.019,4.5,4.5,4.5s4.5-2.019,4.5-4.5c0-1.429-0.656-2.741-1.8-3.601l-0.2-0.149
	V5C14.5,3.622,13.379,2.5,12,2.5z"/>
<rect x="11.5" y="8.5" style="fill:#333333;" width="1" height="6.5"/>
<path style="fill:#333333;" d="M12,19.5c-1.378,0-2.5-1.121-2.5-2.5s1.122-2.5,2.5-2.5c1.379,0,2.5,1.121,2.5,2.5
	S13.379,19.5,12,19.5z M12,15.5c-0.827,0-1.5,0.673-1.5,1.5s0.673,1.5,1.5,1.5s1.5-0.673,1.5-1.5S12.827,15.5,12,15.5z"/>
</svg>






