<?xml version="1.0" encoding="iso-8859-1"?>
<svg version="1.1" id="&#x56FE;&#x5C42;_1" xmlns="http://www.w3.org/2000/svg" xmlns:xlink="http://www.w3.org/1999/xlink" x="0px"
	 y="0px" viewBox="0 0 24 24" style="enable-background:new 0 0 24 24;" xml:space="preserve">
<path style="fill:#333333;" d="M14.434,22H6.087l-1.048-5.44C3.4,14.949,2.5,12.804,2.5,10.5C2.5,5.813,6.313,2,11,2
	c4.644,0,8.429,3.742,8.499,8.369l2.771,4.988L19.5,15.91V19h-2l-2.577-0.424L14.434,22z M6.913,21h6.653l0.511-3.577l3.505,0.584
	l0.918-0.005V15.09l2.23-0.445l-2.23-4.015V10.5C18.5,6.364,15.136,3,11,3s-7.5,3.364-7.5,7.5c0,2.081,0.833,4.016,2.344,5.446
	l0.117,0.11L6.913,21z"/>
<path style="fill:#333333;" d="M11.5,13.5h-1v-2H11c1.103,0,2-0.897,2-2s-0.897-2-2-2c-1.103,0-2,0.897-2,2H8c0-1.654,1.346-3,3-3
	s3,1.346,3,3c0,1.484-1.083,2.72-2.5,2.958V13.5z"/>
<rect x="10.5" y="16.5" style="fill:#333333;" width="1" height="0.5"/>
</svg>






