<?xml version="1.0" encoding="iso-8859-1"?>
<svg version="1.1" id="&#x56FE;&#x5C42;_1" xmlns="http://www.w3.org/2000/svg" xmlns:xlink="http://www.w3.org/1999/xlink" x="0px"
	 y="0px" viewBox="0 0 24 24" style="enable-background:new 0 0 24 24;" xml:space="preserve">
<path style="fill:none;" d="M8.5,3.5L12,9.562l2.995,5.188H2.005L8.5,3.5z"/>
<path style="fill:none;" d="M15.5,3.5l6.495,11.25H9.005L12,9.562L15.5,3.5z"/>
<path style="fill:none;" d="M5.505,20.75h12.99l-3.5-6h-5.99L5.505,20.75z"/>
<path style="fill:#333333;" d="M18.495,21.25H5.505l-0.432-0.752l3.062-5.248H1.139L8.5,2.5L12,8.562L15.5,2.5l7.361,12.75h-6.996
	l3.062,5.248L18.495,21.25z M6.375,20.25h11.25l-2.917-5H9.292L6.375,20.25z M15.284,14.25h5.845L15.5,4.5l-2.923,5.062
	L15.284,14.25z M9.871,14.25h4.258L12,10.562L9.871,14.25z M2.871,14.25h5.845l2.707-4.688L8.5,4.5L2.871,14.25z"/>
</svg>






