<?xml version="1.0" encoding="iso-8859-1"?>
<svg version="1.1" id="&#x56FE;&#x5C42;_1" xmlns="http://www.w3.org/2000/svg" xmlns:xlink="http://www.w3.org/1999/xlink" x="0px"
	 y="0px" viewBox="0 0 24 24" style="enable-background:new 0 0 24 24;" xml:space="preserve">
<path style="fill:#333333;" d="M19.5,21.5h-15c-1.103,0-2-0.897-2-2v-15c0-1.103,0.897-2,2-2h15c1.103,0,2,0.897,2,2v15
	C21.5,20.603,20.603,21.5,19.5,21.5z M4.5,3.5c-0.551,0-1,0.449-1,1v15c0,0.552,0.449,1,1,1h15c0.552,0,1-0.448,1-1v-15
	c0-0.551-0.448-1-1-1H4.5z"/>
<path style="fill:#333333;" d="M12,17.5c-1.46,0-2.367-0.66-2.87-1.214l0.74-0.672C10.238,16.019,10.906,16.5,12,16.5
	c0.602,0,2-0.195,2-2c0-2.257-2.098-2.5-3-2.5l-0.395-0.807L13.478,7.5H9.5v-1h5l0.395,0.807l-2.933,3.771
	C13.836,11.396,15,12.67,15,14.5C15,16.714,13.384,17.5,12,17.5z"/>
</svg>






