<?xml version="1.0" encoding="iso-8859-1"?>
<svg version="1.1" id="&#x56FE;&#x5C42;_1" xmlns="http://www.w3.org/2000/svg" xmlns:xlink="http://www.w3.org/1999/xlink" x="0px"
	 y="0px" viewBox="0 0 24 24" style="enable-background:new 0 0 24 24;" xml:space="preserve">
<path style="fill:#333333;" d="M7,23.083l-5.5-3.3v-6.566l5.5-3.3l5.5,3.3v6.566L7,23.083z M2.5,19.217l4.5,2.7l4.5-2.7v-5.434
	l-4.5-2.7l-4.5,2.7V19.217z"/>
<path style="fill:#333333;" d="M17,23.083l-5.5-3.3v-6.566l5.5-3.3l5.5,3.3v6.566L17,23.083z M12.5,19.217l4.5,2.7l4.5-2.7v-5.434
	l-4.5-2.7l-4.5,2.7V19.217z"/>
<path style="fill:#333333;" d="M12,14.083l-5.5-3.3V4.217l5.5-3.3l5.5,3.3v6.566L12,14.083z M7.5,10.217l4.5,2.7l4.5-2.7V4.783
	l-4.5-2.7l-4.5,2.7V10.217z"/>
</svg>






