<?xml version="1.0" encoding="iso-8859-1"?>
<svg version="1.1" id="&#x56FE;&#x5C42;_1" xmlns="http://www.w3.org/2000/svg" xmlns:xlink="http://www.w3.org/1999/xlink" x="0px"
	 y="0px" viewBox="0 0 24 24" style="enable-background:new 0 0 24 24;" xml:space="preserve">
<path style="fill:#333333;" d="M11.5,22.5c-4.191,0-6.024-1.431-6.447-2.276L5.046,20.21l-2.104-4.559
	c-0.623-1.35-0.177-2.929,1.06-3.754l0.952-0.634c0.135-0.09,0.288-0.145,0.444-0.162L4.569,5.04
	C4.51,4.603,4.623,4.169,4.887,3.818C5.09,3.547,5.388,3.37,5.725,3.322C6.062,3.274,6.396,3.36,6.668,3.563
	c0.354,0.266,0.566,0.558,0.683,0.895l1.526,4.409L8.54,3.641c-0.034-0.53,0.162-1.05,0.538-1.426
	c0.504-0.505,1.306-0.549,1.863-0.103l0.17,0.136C11.499,2.559,11.756,3,11.836,3.491l0.853,5.284l0.502-5.193
	c0.052-0.534,0.322-1.033,0.742-1.369l0.104-0.083c0.569-0.455,1.389-0.411,1.906,0.106C16.302,2.595,16.5,3.072,16.5,3.58v6.376
	c0.026,0.114,0.303,1.285,1.158,1.57c0.22,0.073,0.733,0.245,1.971,2.605c0.442,0.844,0.42,1.861-0.059,2.722l-1.944,3.477
	C17.549,20.418,15.679,22.5,11.5,22.5z M5.95,19.782C6.184,20.234,7.687,21.5,11.5,21.5c3.45,0,5.102-1.55,5.343-1.796l1.854-3.338
	c0.314-0.564,0.332-1.227,0.047-1.771c-1.001-1.909-1.395-2.116-1.41-2.124c-1.344-0.447-1.746-2.013-1.812-2.322L15.5,9.956V3.58
	c0-0.24-0.094-0.466-0.264-0.635c-0.155-0.156-0.403-0.169-0.575-0.032l-0.104,0.083c-0.209,0.167-0.345,0.417-0.37,0.684
	l-0.664,6.862c-0.038,0.403-0.374,0.708-0.78,0.708c-0.389,0-0.715-0.278-0.774-0.662l-1.119-6.938
	c-0.04-0.246-0.168-0.466-0.363-0.622l-0.17-0.136c-0.16-0.127-0.388-0.114-0.531,0.029C9.612,3.095,9.522,3.333,9.538,3.577
	l0.441,6.842c0.014,0.214-0.062,0.427-0.209,0.584c-0.375,0.397-1.129,0.239-1.309-0.278L6.406,4.785
	c-0.051-0.148-0.145-0.277-0.27-0.371C6.01,4.32,5.937,4.3,5.866,4.312C5.793,4.322,5.73,4.36,5.687,4.418
	c-0.105,0.14-0.15,0.312-0.126,0.487l0.936,6.839l-0.761,0.492l-0.226-0.142l-0.952,0.635c-0.825,0.55-1.122,1.603-0.707,2.502
	L5.95,19.782z M12.955,10.43v0.002C12.955,10.431,12.955,10.43,12.955,10.43z"/>
</svg>






