<?xml version="1.0" encoding="iso-8859-1"?>
<svg version="1.1" id="&#x56FE;&#x5C42;_1" xmlns="http://www.w3.org/2000/svg" xmlns:xlink="http://www.w3.org/1999/xlink" x="0px"
	 y="0px" viewBox="0 0 24 24" style="enable-background:new 0 0 24 24;" xml:space="preserve">
<path style="fill:#333333;" d="M12.872,22.5h-0.447c-2.784,0-5.356-1.39-6.881-3.718l-1.097-1.675
	C3.53,15.708,3.802,13.84,5.078,12.76l1.144-0.968L6.25,3.625C6.25,2.453,7.203,1.5,8.375,1.5c0.545,0,1.043,0.207,1.42,0.545
	C10.166,1.42,10.847,1,11.625,1c0.778,0,1.46,0.42,1.83,1.045C13.831,1.707,14.33,1.5,14.875,1.5C16.047,1.5,17,2.453,17,3.625
	v5.448c0.326-0.205,0.712-0.323,1.125-0.323c1.172,0,2.125,0.953,2.125,2.125v5.109c0,0.93-0.277,1.826-0.802,2.593l-0.486,0.711
	C17.585,21.3,15.309,22.5,12.872,22.5z M8.375,2.5c-0.62,0-1.125,0.505-1.125,1.125v8.105c0,0.318-0.14,0.619-0.382,0.825
	l-1.145,0.968c-0.891,0.754-1.08,2.059-0.44,3.036l1.097,1.674c1.34,2.046,3.6,3.267,6.045,3.267h0.447
	c2.106,0,4.074-1.038,5.264-2.776l0.486-0.711c0.411-0.6,0.628-1.302,0.628-2.028v-5.109c0-0.62-0.505-1.125-1.125-1.125
	S17,10.255,17,10.875h-1v-7.25c0-0.62-0.505-1.125-1.125-1.125S13.75,3.005,13.75,3.625h-1v-0.5C12.75,2.505,12.245,2,11.625,2
	S10.5,2.505,10.5,3.125v0.5h-1C9.5,3.005,8.995,2.5,8.375,2.5z"/>
</svg>






