<?xml version="1.0" encoding="iso-8859-1"?>
<svg version="1.1" id="&#x56FE;&#x5C42;_1" xmlns="http://www.w3.org/2000/svg" xmlns:xlink="http://www.w3.org/1999/xlink" x="0px"
	 y="0px" viewBox="0 0 24 24" style="enable-background:new 0 0 24 24;" xml:space="preserve">
<path style="fill:#333333;" d="M13.215,21.5H12.89c-1.765,0-3.2-1.436-3.2-3.2v-3.1h-4.9c-0.649,0.006-1.312-0.28-1.756-0.791
	c-0.444-0.51-0.64-1.187-0.538-1.854l1.242-8.1C3.907,3.336,4.882,2.5,6.011,2.5c0.009,0,0.018,0,0.026,0h10.952l-0.043,10.604
	L13.215,21.5z M10.189,14.2h0.5v4.1c0,1.106,0.821,2.024,1.885,2.178l3.415-7.684V3.5H6.032C5.433,3.486,4.822,3.967,4.726,4.605
	l-1.242,8.101c-0.057,0.377,0.054,0.759,0.305,1.047c0.251,0.289,0.604,0.452,0.996,0.447H10.189z"/>
<path style="fill:#333333;" d="M18.925,13.5c-0.014,0-0.027,0-0.041,0H15.99v-11h2.902c1.281-0.051,2.418,0.937,2.593,2.233
	L21.49,11.1C21.308,12.482,20.188,13.5,18.925,13.5z M16.99,12.5h1.902c0.749-0.022,1.491-0.645,1.603-1.467L20.49,4.8
	c-0.103-0.727-0.801-1.347-1.589-1.3H16.99V12.5z"/>
</svg>






