<?xml version="1.0" encoding="iso-8859-1"?>
<svg version="1.1" id="&#x56FE;&#x5C42;_1" xmlns="http://www.w3.org/2000/svg" xmlns:xlink="http://www.w3.org/1999/xlink" x="0px"
	 y="0px" viewBox="0 0 24 24" style="enable-background:new 0 0 24 24;" xml:space="preserve">
<path style="fill:#333333;" d="M17.978,21.5c-0.009,0-0.017,0-0.025,0H7l0.043-10.603L10.775,2.5H11.1c1.764,0,3.2,1.436,3.2,3.2
	v3.1h4.9c0.644-0.01,1.312,0.281,1.756,0.791s0.64,1.186,0.538,1.854l-1.242,8.101C20.084,20.663,19.108,21.5,17.978,21.5z M8,20.5
	h9.958c0.635-0.024,1.209-0.468,1.306-1.104l1.242-8.101c0.057-0.377-0.054-0.76-0.304-1.048c-0.251-0.288-0.613-0.471-0.996-0.447
	H13.3V5.7c0-1.106-0.82-2.024-1.885-2.177L8,11.206V20.5z"/>
<path style="fill:#333333;" d="M5.052,21.5c-1.28,0.001-2.375-0.952-2.547-2.234L2.5,12.899c0.184-1.398,1.337-2.417,2.606-2.399H8
	v11H5.097C5.082,21.5,5.067,21.5,5.052,21.5z M5.074,11.5c-0.767,0-1.468,0.652-1.578,1.467L3.5,19.199
	c0.103,0.728,0.786,1.296,1.588,1.301H7v-9H5.097C5.089,11.5,5.082,11.5,5.074,11.5z"/>
</svg>






