<?xml version="1.0" encoding="iso-8859-1"?>
<svg version="1.1" id="&#x56FE;&#x5C42;_1" xmlns="http://www.w3.org/2000/svg" xmlns:xlink="http://www.w3.org/1999/xlink" x="0px"
	 y="0px" viewBox="0 0 24 24" style="enable-background:new 0 0 24 24;" xml:space="preserve">
<path style="fill:#333333;" d="M18.5,20.5h-13c-0.756,0-1.41-0.569-1.591-1.385c-0.233-1.051-0.884-1.602-1.389-1.878
	c-0.629-0.344-1.02-0.94-1.02-1.557V13c0-0.827,0.673-1.5,1.5-1.5h18c0.827,0,1.5,0.673,1.5,1.5v2.681
	c0,0.616-0.391,1.213-1.02,1.557c-0.505,0.276-1.155,0.827-1.389,1.878C19.91,19.931,19.256,20.5,18.5,20.5z M3,12.5
	c-0.276,0-0.5,0.225-0.5,0.5v2.681c0,0.3,0.269,0.554,0.5,0.68c0.687,0.376,1.57,1.121,1.886,2.538
	C4.952,19.197,5.184,19.5,5.5,19.5h13c0.316,0,0.549-0.303,0.615-0.602c0.314-1.417,1.198-2.162,1.885-2.538
	c0.23-0.126,0.5-0.38,0.5-0.68V13c0-0.275-0.225-0.5-0.5-0.5H3z"/>
<rect x="7" y="15" style="fill:#333333;" width="10" height="1"/>
<polygon style="fill:#333333;" points="11.879,9.325 11.121,8.675 13.413,6 9.5,6 9.121,5.175 12.12,1.675 12.88,2.325 10.587,5 
	14.5,5 14.88,5.825 "/>
</svg>






