<?xml version="1.0" encoding="iso-8859-1"?>
<svg version="1.1" id="&#x56FE;&#x5C42;_1" xmlns="http://www.w3.org/2000/svg" xmlns:xlink="http://www.w3.org/1999/xlink" x="0px"
	 y="0px" viewBox="0 0 24 24" style="enable-background:new 0 0 24 24;" xml:space="preserve">
<path style="fill:#333333;" d="M19.476,16.957l-0.406-0.914c1.477-0.656,2.431-2.143,2.431-3.786c0-2.276-1.815-4.128-4.046-4.128
	c-0.642,0-1.256,0.149-1.824,0.442l-0.554,0.285l-0.159-0.601c-0.742-2.8-3.25-4.755-6.099-4.755C5.334,3.5,2.5,6.39,2.5,9.942
	c0,2.047,0.922,3.927,2.531,5.157l-0.607,0.795C2.565,14.473,1.5,12.304,1.5,9.942C1.5,5.839,4.783,2.5,8.818,2.5
	c3.109,0,5.867,2.005,6.895,4.943c0.556-0.207,1.147-0.314,1.741-0.314c2.782,0,5.046,2.301,5.046,5.128
	C22.5,14.295,21.312,16.14,19.476,16.957z"/>
<rect x="7" y="11.5" transform="matrix(0.7071 -0.7071 0.7071 0.7071 -6.1421 9.1716)" style="fill:#333333;" width="2" height="1"/>
<polygon style="fill:#333333;" points="10.854,20.354 10.146,19.647 13.294,16.501 9.5,16.501 9.146,15.647 13.146,11.646 
	13.854,12.354 10.707,15.501 14.502,15.501 14.855,16.354 "/>
<rect x="15" y="19.5" transform="matrix(0.7071 -0.7071 0.7071 0.7071 -9.4558 17.1716)" style="fill:#333333;" width="2" height="1"/>
</svg>






