<?xml version="1.0" encoding="iso-8859-1"?>
<svg version="1.1" id="&#x56FE;&#x5C42;_1" xmlns="http://www.w3.org/2000/svg" xmlns:xlink="http://www.w3.org/1999/xlink" x="0px"
	 y="0px" viewBox="0 0 24 24" style="enable-background:new 0 0 24 24;" xml:space="preserve">
<path style="fill:#333333;" d="M10.643,21.827l-0.864-0.448l1.19-4.771l-3.119-0.446L9.895,9.5h5.222l0.416,0.777l-2.254,3.391
	l3.63,0.91L10.643,21.827z M9.149,15.338l3.059,0.438l-0.951,3.812l3.834-4.436l-3.429-0.859l2.522-3.793h-3.55L9.149,15.338z"/>
<path style="fill:#333333;" d="M19.476,16.457l-0.406-0.914c1.477-0.656,2.431-2.143,2.431-3.786c0-2.276-1.815-4.128-4.046-4.128
	c-0.642,0-1.256,0.149-1.824,0.442l-0.554,0.285l-0.159-0.602C14.175,4.955,11.667,3,8.818,3C5.334,3,2.5,5.89,2.5,9.442
	c0,2.047,0.922,3.927,2.531,5.157l-0.607,0.795C2.565,13.973,1.5,11.804,1.5,9.442C1.5,5.339,4.783,2,8.818,2
	c3.109,0,5.867,2.005,6.895,4.943c0.556-0.207,1.147-0.314,1.741-0.314c2.782,0,5.046,2.301,5.046,5.128
	C22.5,13.795,21.312,15.64,19.476,16.457z"/>
</svg>






