<?xml version="1.0" encoding="iso-8859-1"?>
<svg version="1.1" id="&#x56FE;&#x5C42;_1" xmlns="http://www.w3.org/2000/svg" xmlns:xlink="http://www.w3.org/1999/xlink" x="0px"
	 y="0px" viewBox="0 0 24 24" style="enable-background:new 0 0 24 24;" xml:space="preserve">
<path style="fill:#333333;" d="M22.5,20.5H11.09l-0.081-0.402C10.992,20.015,10.549,18,8.5,18c-2.066,0-2.493,2.013-2.51,2.098
	L5.91,20.5H1.5v-17h4.41L5.99,3.902C6.008,3.986,6.451,6,8.5,6c2.066,0,2.493-2.012,2.51-2.098L11.09,3.5H22.5V20.5z M11.881,19.5
	H21.5v-15h-9.619C11.529,5.537,10.521,7,8.5,7S5.471,5.537,5.119,4.5H2.5v15h2.619C5.471,18.464,6.479,17,8.5,17
	S11.529,18.464,11.881,19.5z"/>
<rect x="8" y="9.5" style="fill:#333333;" width="1" height="1"/>
<rect x="8" y="13.5" style="fill:#333333;" width="1" height="1"/>
<rect x="12.5" y="10" style="fill:#333333;" width="5.5" height="1"/>
<rect x="12.5" y="13" style="fill:#333333;" width="5.5" height="1"/>
</svg>






