<?xml version="1.0" encoding="iso-8859-1"?>
<svg version="1.1" id="&#x56FE;&#x5C42;_1" xmlns="http://www.w3.org/2000/svg" xmlns:xlink="http://www.w3.org/1999/xlink" x="0px"
	 y="0px" viewBox="0 0 24 24" style="enable-background:new 0 0 24 24;" xml:space="preserve">
<path style="fill:#333333;" d="M21,17.5h-4V17c0-0.737-0.748-1.5-2-1.5v-1c1.477,0,2.672,0.846,2.942,2H20v-14h-2.064
	c-0.266,1.036-1.339,2-2.936,2s-2.67-0.964-2.936-2H10V9H9V1.5h4V2c0,0.721,0.765,1.5,2,1.5s2-0.779,2-1.5V1.5h4V17.5z"/>
<path style="fill:#333333;" d="M15.5,22.5h-4V22c0-0.737-0.748-1.5-2-1.5s-2,0.763-2,1.5v0.5h-4v-16h4V7c0,0.721,0.765,1.5,2,1.5
	s2-0.779,2-1.5V6.5h4V22.5z M12.442,21.5H14.5v-14h-2.064c-0.266,1.036-1.338,2-2.936,2s-2.67-0.964-2.936-2H4.5v14h2.058
	c0.271-1.154,1.466-2,2.942-2S12.172,20.346,12.442,21.5z"/>
<circle style="fill:#333333;" cx="7" cy="12" r="1"/>
<circle style="fill:#333333;" cx="9.5" cy="12" r="1"/>
<circle style="fill:#333333;" cx="12" cy="12" r="1"/>
</svg>






