<?xml version="1.0" encoding="iso-8859-1"?>
<svg version="1.1" id="&#x56FE;&#x5C42;_1" xmlns="http://www.w3.org/2000/svg" xmlns:xlink="http://www.w3.org/1999/xlink" x="0px"
	 y="0px" viewBox="0 0 24 24" style="enable-background:new 0 0 24 24;" xml:space="preserve">
<path style="fill:#333333;" d="M16.593,22.5h-3.77c-2.354,0-4.596-1.129-5.998-3.021l-2.132-2.879
	c-0.482-0.649-0.525-1.52-0.108-2.215c0.319-0.531,0.854-0.878,1.468-0.954c0.526-0.061,1.036,0.075,1.447,0.388V8
	c0-1.103,0.897-2,2-2s2,0.897,2,2v0.774C11.798,8.6,12.144,8.5,12.513,8.5c1.11,0,2.014,0.903,2.014,2.013v1.712
	c0.291-0.167,0.628-0.263,0.986-0.263c0.732,0,1.374,0.398,1.719,0.989c0.344-0.282,0.784-0.452,1.263-0.452
	c1.099,0,1.994,0.894,1.995,1.991l0.006,4.101c0.002,1.043-0.403,2.024-1.141,2.763C18.617,22.094,17.637,22.5,16.593,22.5z
	 M6.299,14.417c-0.041,0-0.083,0.002-0.124,0.007c-0.307,0.038-0.574,0.212-0.732,0.477c-0.208,0.347-0.187,0.78,0.054,1.104
	l2.133,2.879c1.214,1.639,3.155,2.616,5.194,2.616h3.77c0.776,0,1.506-0.303,2.054-0.852c0.549-0.55,0.85-1.279,0.849-2.055
	l-0.006-4.101c-0.001-0.548-0.447-0.993-0.995-0.993S17.5,13.946,17.5,14.494V15h-1v-1.051c0-0.544-0.443-0.986-0.987-0.986
	s-0.986,0.442-0.986,0.986V14.5h-1v-3.987c0-0.559-0.455-1.013-1.014-1.013S11.5,9.955,11.5,10.513v3.424h-1V8c0-0.551-0.449-1-1-1
	s-1,0.449-1,1v7l-0.854,0.354l-0.645-0.646C6.812,14.52,6.562,14.417,6.299,14.417z"/>
<rect x="15.5" y="2" style="fill:#333333;" width="1" height="4"/>
<path style="fill:#333333;" d="M21.5,10.5H14v-1h6.5V8.45c-0.489-0.098-0.943-0.338-1.293-0.691
	c-0.461-0.466-0.701-1.076-0.694-1.764C18.528,4.6,19.476,3.758,20.5,3.551V2.5h-17v1.052C4.534,3.77,5.473,4.648,5.487,5.995
	c0.007,0.688-0.233,1.297-0.694,1.764C4.443,8.112,3.989,8.352,3.5,8.45V9.5H8v1H2.5v-3H3c0.408,0,0.802-0.162,1.082-0.445
	c0.269-0.272,0.409-0.635,0.405-1.05C4.477,5.027,3.713,4.5,3,4.5H2.5v-3h19v3H21c-0.713,0-1.477,0.528-1.487,1.505
	c-0.004,0.415,0.136,0.778,0.405,1.05C20.197,7.338,20.592,7.5,21,7.5h0.5V10.5z"/>
</svg>






