<?xml version="1.0" encoding="iso-8859-1"?>
<svg version="1.1" id="&#x56FE;&#x5C42;_1" xmlns="http://www.w3.org/2000/svg" xmlns:xlink="http://www.w3.org/1999/xlink" x="0px"
	 y="0px" viewBox="0 0 24 24" style="enable-background:new 0 0 24 24;" xml:space="preserve">
<path style="fill:#333333;" d="M20.5,21.5h-17C2.673,21.5,2,20.827,2,20V9c0-0.827,0.673-1.5,1.5-1.5h17C21.327,7.5,22,8.173,22,9
	v11C22,20.827,21.327,21.5,20.5,21.5z M3.5,8.5C3.224,8.5,3,8.724,3,9v11c0,0.275,0.224,0.5,0.5,0.5h17c0.275,0,0.5-0.225,0.5-0.5V9
	c0-0.276-0.225-0.5-0.5-0.5H3.5z"/>
<polygon style="fill:#333333;" points="4.716,8.451 4.284,7.549 16.244,1.829 18.955,7.793 18.045,8.207 15.756,3.171 "/>
<circle style="fill:#333333;" cx="6.5" cy="11.5" r="1"/>
<circle style="fill:#333333;" cx="6.5" cy="14.5" r="1"/>
<circle style="fill:#333333;" cx="6.5" cy="17.5" r="1"/>
<polygon style="fill:#333333;" points="12.72,18 10.5,18 10.5,17 12.28,17 17.632,11.162 18.368,11.838 "/>
<rect x="12" y="14" style="fill:#333333;" width="3" height="1"/>
</svg>






