<?xml version="1.0" encoding="iso-8859-1"?>
<svg version="1.1" id="&#x56FE;&#x5C42;_1" xmlns="http://www.w3.org/2000/svg" xmlns:xlink="http://www.w3.org/1999/xlink" x="0px"
	 y="0px" viewBox="0 0 24 24" style="enable-background:new 0 0 24 24;" xml:space="preserve">
<polygon style="fill:#333333;" points="4.686,8.464 4.314,7.536 17.278,2.35 19.464,7.814 18.536,8.186 16.722,3.65 "/>
<path style="fill:#333333;" d="M22.5,20.5h-21v-4H2c1.204,0,2.5-0.782,2.5-2.5S3.204,11.5,2,11.5H1.5v-4h21v4H22
	c-1.212,0-2.5,0.788-2.5,2.25c0,1.549,1.344,2.75,2.5,2.75h0.5V20.5z M2.5,19.5h19v-2.044c-1.624-0.286-3-1.924-3-3.706
	c0-1.904,1.467-3.018,3-3.217V8.5h-19v2.033c1.561,0.208,3,1.39,3,3.467s-1.439,3.259-3,3.467V19.5z"/>
<rect x="8.5" y="12.192" style="fill:#333333;" width="3" height="1"/>
<rect x="8.5" y="15.192" style="fill:#333333;" width="7" height="1"/>
</svg>






