<?xml version="1.0" encoding="iso-8859-1"?>
<svg version="1.1" id="&#x56FE;&#x5C42;_1" xmlns="http://www.w3.org/2000/svg" xmlns:xlink="http://www.w3.org/1999/xlink" x="0px"
	 y="0px" viewBox="0 0 24 24" style="enable-background:new 0 0 24 24;" xml:space="preserve">
<path style="fill:#333333;" d="M3.5,22h-1V7.5c0-0.807,0.49-2.624,2.28-4.083L3.866,2.32L4.25,1.5c0.963,0,2.885,0.318,4.188,1.489
	c1.498-0.059,4.344,0.469,5.348,2.067c0.348,0.553,0.612,1.469-0.104,2.695C13.102,8.623,12.125,9,10.5,9V8
	c1.609,0,2.093-0.416,2.334-0.777c0.361-0.621,0.4-1.164,0.104-1.634C12.222,4.448,9.701,3.88,8.29,3.999L8.06,4.017L7.896,3.854
	C7.248,3.205,6.283,2.826,5.435,2.641l0.797,0.957L5.787,3.91C3.911,5.223,3.5,6.947,3.5,7.5V22z"/>
<path style="fill:#333333;" d="M17.625,21.728c-0.725,0-1.319-0.204-1.774-0.609C15.31,20.638,15,19.865,15,19
	c0-4.288-3.855-6.5-5.5-6.5v-1c2.206,0,6.5,2.647,6.5,7.5c0,0.274,0.05,0.957,0.516,1.371c0.334,0.298,0.838,0.411,1.494,0.333
	c1.378-0.16,2.448-1.198,3.016-2.923l0.949,0.312c-0.695,2.116-2.062,3.396-3.85,3.604C17.952,21.718,17.785,21.728,17.625,21.728z"
	/>
<path style="fill:#333333;" d="M9,22H8c0-1.173,0.396-5,5.5-5H15v1h-1.5C9.584,18,9,20.506,9,22z"/>
</svg>






