<?xml version="1.0" encoding="iso-8859-1"?>
<svg version="1.1" id="&#x56FE;&#x5C42;_1" xmlns="http://www.w3.org/2000/svg" xmlns:xlink="http://www.w3.org/1999/xlink" x="0px"
	 y="0px" viewBox="0 0 24 24" style="enable-background:new 0 0 24 24;" xml:space="preserve">
<path style="fill:#333333;" d="M9.989,22.083c-2.518,0-4.534-1.03-5.677-2.9c-1.187-1.941-1.274-4.631-0.218-6.692
	c1.241-2.421,3.468-3.572,6.609-3.42l0.476,0.023v4.125h-0.5c-1.114,0-1.776,0.142-2.215,0.473c-0.816,0.617-0.938,1.437-0.938,1.87
	c0,0.737,0.677,2.184,2.241,2.184c0.607,0,1.122-0.21,1.53-0.623c0.43-0.436,0.704-1.092,0.696-1.67
	c-0.011-0.776-0.011-5.162,0-13.036l0-0.5h4.557l0.001,0.5c0.001,0.603,0.001,0.995-0.019,1.25h0.019
	c0,1.565,2.027,2.552,2.259,2.659c0.519,0.242,1.149,0.408,1.874,0.496l0.44,0.053v4.144l-0.461,0.036
	c-0.189,0.015-0.561,0.003-1.741-0.219c-0.728-0.137-1.557-0.47-2.518-1.014v5.624C16.405,17.911,15.054,22.083,9.989,22.083z
	 M10.155,10.057c-2.481,0-4.175,0.948-5.171,2.89c-0.903,1.762-0.83,4.059,0.182,5.714c0.675,1.105,2.06,2.422,4.824,2.422
	c5.264,0,5.416-5.061,5.416-5.638V8.938l0.768-0.422c1.17,0.741,2.157,1.191,2.936,1.337c0.469,0.088,0.793,0.14,1.017,0.169V7.75
	c-0.65-0.11-1.232-0.284-1.736-0.518c-0.474-0.22-2.837-1.426-2.837-3.566l0.001-0.474c0-0.082,0-0.173,0-0.276h-2.561
	c-0.01,7.555-0.01,11.767,0.001,12.522c0.012,0.846-0.366,1.76-0.984,2.387c-0.594,0.602-1.369,0.92-2.241,0.92
	c-2.115,0-3.241-1.849-3.241-3.184c0-0.619,0.173-1.79,1.334-2.667c0.545-0.412,1.254-0.619,2.318-0.665v-2.172
	C10.171,10.057,10.163,10.057,10.155,10.057z"/>
</svg>






