<?xml version="1.0" encoding="iso-8859-1"?>
<svg version="1.1" id="&#x56FE;&#x5C42;_1" xmlns="http://www.w3.org/2000/svg" xmlns:xlink="http://www.w3.org/1999/xlink" x="0px"
	 y="0px" viewBox="0 0 24 24" style="enable-background:new 0 0 24 24;" xml:space="preserve">
<path style="fill:#333333;" d="M12,22.5c-4.687,0-8.5-3.813-8.5-8.5c0-4.687,3.813-8.5,8.5-8.5c4.687,0,8.5,3.813,8.5,8.5
	C20.5,18.687,16.687,22.5,12,22.5z M12,6.5c-4.136,0-7.5,3.364-7.5,7.5s3.364,7.5,7.5,7.5s7.5-3.364,7.5-7.5S16.136,6.5,12,6.5z"/>
<rect x="10" y="1.5" style="fill:#333333;" width="4" height="1"/>
<rect x="11.5" y="2" style="fill:#333333;" width="1" height="4"/>
<rect x="17.189" y="6.75" transform="matrix(0.7071 -0.7071 0.7071 0.7071 0.2188 15.0282)" style="fill:#333333;" width="2.121" height="1"/>
<rect x="11.5" y="11" style="fill:#333333;" width="1" height="3"/>
<rect x="9" y="13.5" style="fill:#333333;" width="3" height="1"/>
</svg>






