<?xml version="1.0" encoding="iso-8859-1"?>
<svg version="1.1" id="&#x56FE;&#x5C42;_1" xmlns="http://www.w3.org/2000/svg" xmlns:xlink="http://www.w3.org/1999/xlink" x="0px"
	 y="0px" viewBox="0 0 24 24" style="enable-background:new 0 0 24 24;" xml:space="preserve">
<polygon style="fill:#333333;" points="13,19 1.5,19 1.5,4 22.5,4 22.5,17.5 21.5,17.5 21.5,5 2.5,5 2.5,18 13,18 "/>
<path style="fill:#333333;" d="M17.5,22.5c-2.757,0-5-2.243-5-5s2.243-5,5-5s5,2.243,5,5S20.257,22.5,17.5,22.5z M17.5,13.5
	c-2.206,0-4,1.794-4,4s1.794,4,4,4s4-1.794,4-4S19.706,13.5,17.5,13.5z"/>
<polygon style="fill:#333333;" points="19,18.5 16.5,18.5 16.5,16 17.5,16 17.5,17.5 19,17.5 "/>
<polygon style="fill:#333333;" points="12,11.596 1.728,4.919 2.272,4.081 12,10.404 21.728,4.081 22.272,4.919 "/>
</svg>






