<?xml version="1.0" encoding="iso-8859-1"?>
<svg version="1.1" id="&#x56FE;&#x5C42;_1" xmlns="http://www.w3.org/2000/svg" xmlns:xlink="http://www.w3.org/1999/xlink" x="0px"
	 y="0px" viewBox="0 0 24 24" style="enable-background:new 0 0 24 24;" xml:space="preserve">
<g>
	<defs>
		<rect id="SVGID_1_" width="24" height="24"/>
	</defs>
	<clipPath id="SVGID_00000096739759283903154810000004218047940010613400_">
		<use xlink:href="#SVGID_1_"  style="overflow:visible;"/>
	</clipPath>
	<g style="clip-path:url(#SVGID_00000096739759283903154810000004218047940010613400_);">
		<path style="fill:#333333;" d="M8.5,8.5C7.122,8.5,6,7.378,6,6s1.122-2.5,2.5-2.5S11,4.622,11,6S9.878,8.5,8.5,8.5z M8.5,4.5
			C7.673,4.5,7,5.173,7,6s0.673,1.5,1.5,1.5S10,6.827,10,6S9.327,4.5,8.5,4.5z"/>
		<path style="fill:#333333;" d="M17.5,14.5c-1.379,0-2.5-1.121-2.5-2.5c0-1.378,1.121-2.5,2.5-2.5S20,10.622,20,12
			C20,13.379,18.879,14.5,17.5,14.5z M17.5,10.5c-0.827,0-1.5,0.673-1.5,1.5s0.673,1.5,1.5,1.5S19,12.827,19,12
			S18.327,10.5,17.5,10.5z"/>
		<path style="fill:#333333;" d="M8.5,20.5C7.122,20.5,6,19.379,6,18s1.122-2.5,2.5-2.5S11,16.621,11,18S9.878,20.5,8.5,20.5z
			 M8.5,16.5C7.673,16.5,7,17.173,7,18s0.673,1.5,1.5,1.5S10,18.827,10,18S9.327,16.5,8.5,16.5z"/>
		<rect x="2" y="17.5" style="fill:#333333;" width="4.5" height="1"/>
		<rect x="10.5" y="17.5" style="fill:#333333;" width="11.5" height="1"/>
		<rect x="2" y="5.5" style="fill:#333333;" width="4.5" height="1"/>
		<rect x="10.5" y="5.5" style="fill:#333333;" width="11.5" height="1"/>
		<rect x="1.5" y="2" style="fill:#333333;" width="1" height="20"/>
		<rect x="2" y="11.5" style="fill:#333333;" width="13.5" height="1"/>
		<rect x="19.5" y="11.5" style="fill:#333333;" width="2.5" height="1"/>
	</g>
</g>
</svg>






