<?xml version="1.0" encoding="iso-8859-1"?>
<svg version="1.1" id="&#x56FE;&#x5C42;_1" xmlns="http://www.w3.org/2000/svg" xmlns:xlink="http://www.w3.org/1999/xlink" x="0px"
	 y="0px" viewBox="0 0 24 24" style="enable-background:new 0 0 24 24;" xml:space="preserve">
<path style="fill:#333333;" d="M14.971,17.967l-6.028-0.033C5.687,16.678,3.5,13.49,3.5,10c0-4.687,3.813-8.5,8.5-8.5
	c4.687,0,8.5,3.813,8.5,8.5c0,3.49-2.188,6.678-5.442,7.934L14.971,17.967z M9.217,16.967h5.566C17.608,15.837,19.5,13.049,19.5,10
	c0-4.136-3.364-7.5-7.5-7.5S4.5,5.864,4.5,10C4.5,13.049,6.392,15.837,9.217,16.967z"/>
<path style="fill:#333333;" d="M14.04,22.5H9.96c-0.516,0-0.954-0.402-0.996-0.917l-0.34-4.074l0.996-0.084L9.96,21.5h4.08
	l0.34-4.075l0.996,0.084l-0.34,4.075C14.994,22.098,14.556,22.5,14.04,22.5z"/>
<polygon style="fill:#333333;" points="15.5,12.309 12,10.559 8.5,12.309 8.5,8.5 9.5,8.5 9.5,10.691 12,9.441 14.5,10.691 
	14.5,8.5 15.5,8.5 "/>
</svg>






