<?xml version="1.0" encoding="iso-8859-1"?>
<svg version="1.1" id="&#x56FE;&#x5C42;_1" xmlns="http://www.w3.org/2000/svg" xmlns:xlink="http://www.w3.org/1999/xlink" x="0px"
	 y="0px" viewBox="0 0 24 24" style="enable-background:new 0 0 24 24;" xml:space="preserve">
<path style="fill:#333333;" d="M12,5.5C4.875,5.5,1.775,2.482,1.646,2.354l0.706-0.708C2.381,1.674,5.324,4.5,12,4.5
	c6.677,0,9.619-2.826,9.647-2.855l0.706,0.708C22.225,2.482,19.125,5.5,12,5.5z"/>
<rect x="11.5" y="5" style="fill:#333333;" width="1" height="3"/>
<path style="fill:#333333;" d="M15,22.5c-2.523,0-4.5-3.294-4.5-7.5c0-4.206,1.977-7.5,4.5-7.5s4.5,3.294,4.5,7.5
	C19.5,19.206,17.523,22.5,15,22.5z M15,8.5c-1.897,0-3.5,2.977-3.5,6.5s1.603,6.5,3.5,6.5s3.5-2.977,3.5-6.5S16.897,8.5,15,8.5z"/>
<path style="fill:#333333;" d="M15,18.5c-1.141,0-2-1.505-2-3.5s0.859-3.5,2-3.5s2,1.505,2,3.5S16.141,18.5,15,18.5z M15,12.5
	c-0.408,0-1,0.974-1,2.5s0.592,2.5,1,2.5s1-0.974,1-2.5S15.408,12.5,15,12.5z"/>
<path style="fill:#333333;" d="M9,22.5c-2.523,0-4.5-3.294-4.5-7.5c0-4.206,1.977-7.5,4.5-7.5v1c-1.897,0-3.5,2.977-3.5,6.5
	s1.603,6.5,3.5,6.5V22.5z"/>
<rect x="9" y="7.5" style="fill:#333333;" width="6" height="1"/>
<rect x="9" y="21.5" style="fill:#333333;" width="6" height="1"/>
<rect x="5" y="14" style="fill:#333333;" width="6" height="1"/>
<rect x="6" y="10.5" style="fill:#333333;" width="5.5" height="1"/>
<rect x="6" y="18" style="fill:#333333;" width="5.5" height="1"/>
</svg>






