<?xml version="1.0" encoding="iso-8859-1"?>
<svg version="1.1" id="&#x56FE;&#x5C42;_1" xmlns="http://www.w3.org/2000/svg" xmlns:xlink="http://www.w3.org/1999/xlink" x="0px"
	 y="0px" viewBox="0 0 24 24" style="enable-background:new 0 0 24 24;" xml:space="preserve">
<path style="fill:#333333;" d="M14.499,11.5h-5v-7h5V11.5z M10.5,10.5h3v-5h-3V10.5z"/>
<polygon style="fill:#333333;" points="18.849,22.5 5.15,22.5 8.063,17.257 8.937,17.743 6.85,21.5 17.149,21.5 15.062,17.743 
	15.938,17.257 "/>
<path style="fill:#333333;" d="M17.499,11h-1V2.5h-9V11h-1V2.5c0-0.551,0.449-1,1-1h9c0.552,0,1,0.449,1,1V11z"/>
<path style="fill:#333333;" d="M12,18.5c-1.217,0-2.601-0.25-4.115-0.742c-2.631-0.858-4.625-3.275-5.333-6.467
	c-0.043-0.193,0.003-0.393,0.127-0.547C2.803,10.589,2.988,10.5,3.186,10.5h17.627c0.197,0,0.382,0.088,0.506,0.242
	c0.124,0.154,0.171,0.354,0.128,0.547c-0.71,3.194-2.704,5.611-5.333,6.469C14.602,18.25,13.218,18.5,12,18.5z M3.632,11.5
	c0.705,2.63,2.388,4.598,4.563,5.307C9.608,17.267,10.888,17.5,12,17.5c1.112,0,2.392-0.233,3.804-0.693
	c2.175-0.708,3.857-2.676,4.562-5.307H3.632z"/>
</svg>






