<?xml version="1.0" encoding="iso-8859-1"?>
<svg version="1.1" id="&#x56FE;&#x5C42;_1" xmlns="http://www.w3.org/2000/svg" xmlns:xlink="http://www.w3.org/1999/xlink" x="0px"
	 y="0px" viewBox="0 0 24 24" style="enable-background:new 0 0 24 24;" xml:space="preserve">
<path style="fill:#333333;" d="M12,22.5c-5.79,0-10.5-3.925-10.5-8.75c0-3.2,2.025-6.153,5.285-7.709l0.222-0.106L9,6.942v2.381
	l2.75-0.846l2.685,0.826L14.22,6.935l2.276-0.986l0.196,0.082C20.274,7.522,22.5,10.48,22.5,13.75C22.5,18.575,17.79,22.5,12,22.5z
	 M6.997,7.051C4.217,8.463,2.5,11.011,2.5,13.75c0,4.273,4.262,7.75,9.5,7.75s9.5-3.477,9.5-7.75c0-2.844-1.864-5.341-4.999-6.713
	L15.28,7.565l0.285,3.132L11.75,9.523L8,10.677V7.558L6.997,7.051z"/>
<path style="fill:#333333;" d="M15.574,10.968L11.75,9.534l-3.824,1.434l-0.657-0.604l0.824-2.922L5.208,5.36l0.247-0.903
	l4.124-0.376l2.172-2.918l2.172,2.918l4.124,0.376l0.247,0.903l-2.886,2.082l0.824,2.922L15.574,10.968z M6.876,5.332l2.369,1.709
	L8.499,9.685l3.251-1.219l3.251,1.219l-0.746-2.644l2.369-1.709l-3.237-0.295L11.75,2.837l-1.637,2.199L6.876,5.332z"/>
</svg>






