<?xml version="1.0" encoding="iso-8859-1"?>
<svg version="1.1" id="&#x56FE;&#x5C42;_1" xmlns="http://www.w3.org/2000/svg" xmlns:xlink="http://www.w3.org/1999/xlink" x="0px"
	 y="0px" viewBox="0 0 24 24" style="enable-background:new 0 0 24 24;" xml:space="preserve">
<path style="fill:#333333;" d="M4.5,22.707L1.293,19.5l8.795-8.795C9.703,9.861,9.5,8.933,9.5,8c0-3.584,2.916-6.5,6.5-6.5
	c1.058,0,2.108,0.26,3.039,0.753l0.599,0.317L15.707,6.5L17.5,8.293l3.931-3.93l0.316,0.598C22.24,5.89,22.5,6.941,22.5,8
	c0,3.584-2.916,6.5-6.5,6.5c-0.934,0-1.861-0.202-2.705-0.588L4.5,22.707z M2.707,19.5L4.5,21.293l8.602-8.602l0.326,0.172
	C14.227,13.286,15.092,13.5,16,13.5c3.032,0,5.5-2.467,5.5-5.5c0-0.664-0.121-1.324-0.353-1.94L17.5,9.707L14.293,6.5l3.648-3.648
	C17.324,2.618,16.674,2.5,16,2.5c-3.032,0-5.5,2.467-5.5,5.5c0,0.896,0.22,1.785,0.637,2.571l0.173,0.326L2.707,19.5z"/>
</svg>






