<?xml version="1.0" encoding="iso-8859-1"?>
<svg version="1.1" id="&#x56FE;&#x5C42;_1" xmlns="http://www.w3.org/2000/svg" xmlns:xlink="http://www.w3.org/1999/xlink" x="0px"
	 y="0px" viewBox="0 0 24 24" style="enable-background:new 0 0 24 24;" xml:space="preserve">
<path style="fill:#333333;" d="M12.719,20.819c-0.071,0-0.144-0.008-0.215-0.022l-4.543-0.966c-0.264-0.056-0.492-0.212-0.64-0.439
	c-0.148-0.228-0.199-0.499-0.143-0.765l1.935-9.104L5.059,8.662C4.511,8.544,4.16,8.004,4.276,7.457l0.966-4.544
	C5.359,2.365,5.9,2.017,6.447,2.129l14.641,3.112c0.547,0.116,0.898,0.656,0.783,1.204l-0.966,4.545
	c-0.118,0.548-0.667,0.892-1.205,0.783l-4.055-0.862l-1.936,9.104c-0.056,0.264-0.212,0.492-0.439,0.64
	C13.104,20.764,12.913,20.819,12.719,20.819z M6.239,3.108L5.254,7.664l4.303,0.931c0.437,0.093,0.677,0.462,0.585,0.898
	l-1.985,9.341l4.555,0.984l2.005-9.35c0.095-0.444,0.473-0.677,0.938-0.578l4.253,0.904l0.985-4.556L6.239,3.108z M9.348,9.573
	L9.348,9.573L9.348,9.573z"/>
</svg>






