<?xml version="1.0" encoding="iso-8859-1"?>
<svg version="1.1" id="&#x56FE;&#x5C42;_1" xmlns="http://www.w3.org/2000/svg" xmlns:xlink="http://www.w3.org/1999/xlink" x="0px"
	 y="0px" viewBox="0 0 24 24" style="enable-background:new 0 0 24 24;" xml:space="preserve">
<path style="fill:#333333;" d="M12,22.5c-1.393,0-2.745-0.269-4.02-0.797c-0.601-0.249-1.185-0.559-1.736-0.92
	c-0.187,0.001-0.847,0.08-3.112,0.699l-0.614-0.614c0.619-2.267,0.698-2.926,0.699-3.112c-0.36-0.548-0.669-1.132-0.92-1.736
	C1.768,14.743,1.5,13.391,1.5,12C1.5,6.21,6.21,1.5,12,1.5c5.79,0,10.5,4.71,10.5,10.5C22.5,17.79,17.79,22.5,12,22.5z
	 M6.287,19.781c0.257,0,0.345,0.059,0.435,0.118c0.521,0.349,1.073,0.645,1.643,0.88C9.516,21.258,10.739,21.5,12,21.5
	c5.238,0,9.5-4.262,9.5-9.5S17.238,2.5,12,2.5S2.5,6.762,2.5,12c0,1.259,0.243,2.482,0.721,3.637
	c0.238,0.573,0.533,1.125,0.879,1.641c0.145,0.217,0.282,0.422-0.393,3.016C5.224,19.897,5.924,19.781,6.287,19.781z"/>
<rect x="8.302" y="9.41" style="fill:#333333;" width="8.39" height="1"/>
<rect x="6" y="11.5" transform="matrix(0.1739 -0.9848 0.9848 0.1739 -3.3952 19.9527)" style="fill:#333333;" width="8.389" height="1"/>
<rect x="9.501" y="11.5" transform="matrix(0.1739 -0.9848 0.9848 0.1739 -0.5034 23.3999)" style="fill:#333333;" width="8.389" height="1"/>
<rect x="7.302" y="13.5" style="fill:#333333;" width="8.39" height="1"/>
</svg>






