<?xml version="1.0" encoding="iso-8859-1"?>
<svg version="1.1" id="&#x56FE;&#x5C42;_1" xmlns="http://www.w3.org/2000/svg" xmlns:xlink="http://www.w3.org/1999/xlink" x="0px"
	 y="0px" viewBox="0 0 24 24" style="enable-background:new 0 0 24 24;" xml:space="preserve">
<path style="fill:#333333;" d="M13.5,22.5h-3L10,22v-5l0.5-0.5h3L14,17v5L13.5,22.5z M11,21.5h2v-4h-2V21.5z"/>
<path style="fill:#333333;" d="M15.5,17.5h-7l-0.468-0.324l-1.5-4L7,12.5h10l0.468,0.676l-1.5,4L15.5,17.5z M8.847,16.5h6.307
	l1.125-3H7.722L8.847,16.5z"/>
<path style="fill:#333333;" d="M13.5,13.5h-4c-1.553,0-2.68-1.216-2.68-2.89c0-1.399,2.006-5.386,2.234-5.836l0.897,0.011
	c0.001,0.001,0.225,0.472,0.533,1.085c1.053-2.055,2.542-4.07,2.615-4.167l0.839,0.056c0.332,0.6,3.242,5.914,3.242,7.857
	C17.18,11.83,15.598,13.5,13.5,13.5z M9.499,6.135C8.722,7.76,7.82,9.883,7.82,10.61c0,1.113,0.691,1.89,1.68,1.89h4
	c1.527,0,2.68-1.24,2.68-2.885c0-1.25-1.727-4.765-2.737-6.671C12.8,3.872,11.635,5.64,10.958,7.199l-0.902,0.032
	C9.856,6.849,9.663,6.464,9.499,6.135z"/>
</svg>






