<?xml version="1.0" encoding="iso-8859-1"?>
<svg version="1.1" id="&#x56FE;&#x5C42;_1" xmlns="http://www.w3.org/2000/svg" xmlns:xlink="http://www.w3.org/1999/xlink" x="0px"
	 y="0px" viewBox="0 0 24 24" style="enable-background:new 0 0 24 24;" xml:space="preserve">
<path style="fill:#333333;" d="M18.5,18.5h-13C4.673,18.5,4,17.827,4,17v-6h16v6C20,17.827,19.327,18.5,18.5,18.5z M5,12v5
	c0,0.275,0.224,0.5,0.5,0.5h13c0.275,0,0.5-0.225,0.5-0.5v-5H5z"/>
<path style="fill:#333333;" d="M20,12H4V4c0-0.827,0.673-1.5,1.5-1.5h13C19.327,2.5,20,3.173,20,4V12z M5,11h14V4
	c0-0.276-0.225-0.5-0.5-0.5h-13C5.224,3.5,5,3.724,5,4V11z"/>
<path style="fill:#333333;" d="M7.5,21.5c-1.103,0-2-0.897-2-2v-2h4v2C9.5,20.603,8.603,21.5,7.5,21.5z M6.5,18.5v1
	c0,0.552,0.449,1,1,1s1-0.448,1-1v-1H6.5z"/>
<path style="fill:#333333;" d="M16.5,21.5c-1.103,0-2-0.897-2-2v-2h4v2C18.5,20.603,17.603,21.5,16.5,21.5z M15.5,18.5v1
	c0,0.552,0.448,1,1,1s1-0.448,1-1v-1H15.5z"/>
<rect x="2.5" y="6" style="fill:#333333;" width="1" height="2"/>
<rect x="20.5" y="6" style="fill:#333333;" width="1" height="2"/>
<circle style="fill:#333333;" cx="7.5" cy="15" r="1"/>
<circle style="fill:#333333;" cx="16.5" cy="15" r="1"/>
<rect x="9.887" y="5" transform="matrix(0.669 -0.7432 0.7432 0.669 0.2977 11.6684)" style="fill:#333333;" width="6.727" height="1"/>
<rect x="15.797" y="4.5" transform="matrix(0.6408 -0.7677 0.7677 0.6408 2.5378 15.4236)" style="fill:#333333;" width="3.905" height="1"/>
</svg>






