<?xml version="1.0" encoding="iso-8859-1"?>
<svg version="1.1" id="&#x56FE;&#x5C42;_1" xmlns="http://www.w3.org/2000/svg" xmlns:xlink="http://www.w3.org/1999/xlink" x="0px"
	 y="0px" viewBox="0 0 24 24" style="enable-background:new 0 0 24 24;" xml:space="preserve">
<g>
	<defs>
		<rect id="SVGID_1_" width="24" height="24"/>
	</defs>
	<clipPath id="SVGID_00000073702159966343157650000010384863642463271098_">
		<use xlink:href="#SVGID_1_"  style="overflow:visible;"/>
	</clipPath>
	<g style="clip-path:url(#SVGID_00000073702159966343157650000010384863642463271098_);">
		<rect x="2" y="21.5" style="fill:#333333;" width="20" height="1"/>
		<path style="fill:#333333;" d="M14.384,22.5H4.84l5.437-19.374l8.688,2.328L14.384,22.5z M6.16,21.5h7.457L17.74,6.161
			l-6.768-1.813L6.16,21.5z"/>
		
			<rect x="13.989" y="-0.228" transform="matrix(0.2588 -0.9659 0.9659 0.2588 6.1283 17.5321)" style="fill:#333333;" width="1" height="10"/>
		
			<rect x="12.435" y="5.568" transform="matrix(0.2589 -0.9659 0.9659 0.2589 -0.6217 20.3262)" style="fill:#333333;" width="1" height="10"/>
		
			<rect x="12" y="9" transform="matrix(0.2586 -0.966 0.966 0.2586 0.4616 19.6014)" style="fill:#333333;" width="2" height="1.001"/>
		
			<rect x="10.882" y="11.364" transform="matrix(0.2589 -0.9659 0.9659 0.2589 -7.3704 23.1215)" style="fill:#333333;" width="1.001" height="10"/>
		
			<rect x="10.5" y="14.5" transform="matrix(0.2597 -0.9657 0.9657 0.2597 -5.972 22.2095)" style="fill:#333333;" width="2" height="1"/>
		<path style="fill:#333333;" d="M16.552,5.808c-0.087,0-0.175-0.012-0.262-0.035l-3.863-1.035
			c-0.532-0.142-0.849-0.691-0.707-1.225l0.259-0.966c0.069-0.258,0.234-0.474,0.466-0.607c0.23-0.135,0.503-0.169,0.759-0.1
			l3.863,1.035c0.258,0.069,0.474,0.234,0.607,0.465s0.169,0.501,0.101,0.759l-0.261,0.966c-0.068,0.257-0.233,0.473-0.465,0.606
			C16.896,5.762,16.725,5.808,16.552,5.808z M12.945,2.806l-0.259,0.966l3.863,1.035l0.26-0.966L12.945,2.806z M13.074,2.323
			l-0.131,0.483h0.001c0,0,0,0,0.001,0L13.074,2.323z"/>
		
			<rect x="9" y="20" transform="matrix(0.2597 -0.9657 0.9657 0.2597 -12.3938 24.8324)" style="fill:#333333;" width="2" height="1"/>
	</g>
</g>
</svg>






