<?xml version="1.0" encoding="iso-8859-1"?>
<svg version="1.1" id="&#x56FE;&#x5C42;_1" xmlns="http://www.w3.org/2000/svg" xmlns:xlink="http://www.w3.org/1999/xlink" x="0px"
	 y="0px" viewBox="0 0 24 24" style="enable-background:new 0 0 24 24;" xml:space="preserve">
<path style="fill:#333333;" d="M18,13.5H2L1.5,13V9L2,8.5h16L18.5,9v4L18,13.5z M2.5,12.5h15v-3h-15V12.5z"/>
<path style="fill:#333333;" d="M20,22.5H8c-1.378,0-2.5-1.121-2.5-2.5v-1.5H4c-1.378,0-2.5-1.121-2.5-2.5V4
	c0-1.378,1.122-2.5,2.5-2.5h16c1.379,0,2.5,1.122,2.5,2.5v16C22.5,21.379,21.379,22.5,20,22.5z M6.5,18.5V20
	c0,0.827,0.673,1.5,1.5,1.5h12c0.827,0,1.5-0.673,1.5-1.5V4c0-0.827-0.673-1.5-1.5-1.5H4C3.173,2.5,2.5,3.173,2.5,4v12
	c0,0.827,0.673,1.5,1.5,1.5h12c0.827,0,1.5-0.673,1.5-1.5V6h1v10c0,1.379-1.121,2.5-2.5,2.5H6.5z"/>
</svg>






