<?xml version="1.0" encoding="iso-8859-1"?>
<svg version="1.1" id="&#x56FE;&#x5C42;_1" xmlns="http://www.w3.org/2000/svg" xmlns:xlink="http://www.w3.org/1999/xlink" x="0px"
	 y="0px" viewBox="0 0 24 24" style="enable-background:new 0 0 24 24;" xml:space="preserve">
<polygon style="fill:#333333;" points="10.5,7.25 9.5,7.25 9.5,1.5 14.5,1.5 14.5,6.75 13.5,6.75 13.5,2.5 10.5,2.5 "/>
<polygon style="fill:#333333;" points="7.5,12.5 6.5,12.5 6.5,7.289 17.5,5.935 17.5,11.5 16.5,11.5 16.5,7.065 7.5,8.173 "/>
<polygon style="fill:#333333;" points="6,17.5 5,17.5 5,12.555 19,10.939 19,16 18,16 18,12.061 6,13.445 "/>
<path style="fill:#333333;" d="M20.5,22.5h-17v-4.941l17-2.125V22.5z M4.5,21.5h15v-4.934l-15,1.875V21.5z"/>
</svg>






