<?xml version="1.0" encoding="iso-8859-1"?>
<svg version="1.1" id="&#x56FE;&#x5C42;_1" xmlns="http://www.w3.org/2000/svg" xmlns:xlink="http://www.w3.org/1999/xlink" x="0px"
	 y="0px" viewBox="0 0 24 24" style="enable-background:new 0 0 24 24;" xml:space="preserve">
<path style="fill:#333333;" d="M17.475,22.5H7.502v-2.328c-0.189-0.112-0.371-0.231-0.558-0.355
	c-0.543-0.363-1.053-0.782-1.515-1.245C3.54,16.682,2.5,14.171,2.5,11.5c0-5.514,4.486-10,10-10c5.514,0,10,4.486,10,10
	c0,2.67-1.04,5.182-2.929,7.071c-0.462,0.462-0.972,0.881-1.515,1.244c-0.188,0.125-0.379,0.244-0.574,0.356
	c0.005,0.635-0.004,1.832-0.004,1.832L17.475,22.5z M8.502,21.5h7.979c0.003-0.539,0.006-1.355-0.003-1.604l-0.01-0.312l0.275-0.146
	c0.261-0.139,0.513-0.291,0.757-0.454c0.488-0.327,0.947-0.704,1.363-1.12c1.699-1.7,2.636-3.961,2.636-6.364c0-4.962-4.037-9-9-9
	c-4.962,0-9,4.038-9,9c0,2.403,0.936,4.664,2.636,6.364c0.417,0.417,0.875,0.794,1.363,1.12c0.244,0.163,0.478,0.315,0.738,0.454
	l0.265,0.142V21.5z"/>
<path style="fill:#333333;" d="M9,14c-1.378,0-2.5-1.121-2.5-2.5C6.5,10.122,7.622,9,9,9h0.207l2.293,2.293V11.5
	C11.5,12.879,10.378,14,9,14z M8.806,10.013C8.07,10.108,7.5,10.739,7.5,11.5C7.5,12.327,8.173,13,9,13
	c0.761,0,1.392-0.57,1.487-1.306L8.806,10.013z"/>
<path style="fill:#333333;" d="M16,14c-1.379,0-2.5-1.121-2.5-2.5v-0.207L15.793,9H16c1.379,0,2.5,1.122,2.5,2.5
	C18.5,12.879,17.379,14,16,14z M14.513,11.694C14.608,12.43,15.239,13,16,13c0.827,0,1.5-0.673,1.5-1.5
	c0-0.761-0.57-1.392-1.306-1.487L14.513,11.694z"/>
<polygon style="fill:#333333;" points="11.357,17.35 10.643,16.65 12.455,14.799 14.344,16.585 13.656,17.312 12.482,16.201 "/>
</svg>






