<?xml version="1.0" encoding="iso-8859-1"?>
<svg version="1.1" id="&#x56FE;&#x5C42;_1" xmlns="http://www.w3.org/2000/svg" xmlns:xlink="http://www.w3.org/1999/xlink" x="0px"
	 y="0px" viewBox="0 0 24 24" style="enable-background:new 0 0 24 24;" xml:space="preserve">
<path style="fill:#333333;" d="M12,21.5c-5.238,0-9.5-4.262-9.5-9.5S6.762,2.5,12,2.5v1c-4.687,0-8.5,3.813-8.5,8.5
	c0,4.687,3.813,8.5,8.5,8.5c4.687,0,8.5-3.813,8.5-8.5h1C21.5,17.238,17.238,21.5,12,21.5z"/>
<path style="fill:#333333;" d="M12,17c-2.757,0-5-2.243-5-5s2.243-5,5-5v1c-2.206,0-4,1.794-4,4c0,2.206,1.794,4,4,4
	c2.206,0,4-1.794,4-4h1C17,14.757,14.757,17,12,17z"/>
<rect x="11.347" y="9.924" transform="matrix(0.7071 -0.7071 0.7071 0.7071 -3.3945 12.6521)" style="fill:#333333;" width="4.457" height="1"/>
<path style="fill:#333333;" d="M18.521,9.35h-3.871V5.507l2.848-2.86L18.352,3v2.65H21l0.354,0.853L18.521,9.35z M15.649,8.35h2.455
	l1.692-1.7h-2.445V4.21L15.649,5.92V8.35z"/>
</svg>






