<?xml version="1.0" encoding="iso-8859-1"?>
<svg version="1.1" id="&#x56FE;&#x5C42;_1" xmlns="http://www.w3.org/2000/svg" xmlns:xlink="http://www.w3.org/1999/xlink" x="0px"
	 y="0px" viewBox="0 0 24 24" style="enable-background:new 0 0 24 24;" xml:space="preserve">
<path style="fill:#333333;" d="M15.463,22H8.59l-0.058-0.435c-0.229-1.728-0.54-1.951-0.553-1.96C4.047,17.996,1.5,14.224,1.5,10
	V9.5h21V10c0,4.277-2.71,8.179-6.743,9.71l0,0c0.014,0-0.232,0.263-0.279,1.806L15.463,22z M9.46,21h5.041
	c0.088-1.347,0.365-2.021,0.9-2.226c3.49-1.324,5.884-4.608,6.085-8.274H2.513c0.191,3.611,2.446,6.789,5.854,8.185
	C8.902,18.903,9.236,19.604,9.46,21z"/>
<path style="fill:#333333;" d="M8.702,16.432c-0.458-0.349-0.85-0.734-1.164-1.146c-0.331-0.433-0.599-0.98-0.795-1.63L7.7,13.367
	c0.162,0.533,0.374,0.975,0.632,1.312c0.261,0.341,0.589,0.663,0.977,0.958L8.702,16.432z"/>
<path style="fill:#333333;" d="M13.058,10.231l-0.9-0.436c1.876-3.874,2.98-6.158,3.309-6.851c0.608-1.279,1.902-1.76,3.221-1.196
	c0.586,0.25,1.053,0.747,1.281,1.362c0.222,0.6,0.199,1.247-0.062,1.777c-0.255,0.517-1.119,2.295-2.593,5.333l-0.9-0.437
	c1.476-3.041,2.342-4.821,2.597-5.338c0.14-0.284,0.147-0.644,0.02-0.987c-0.135-0.365-0.396-0.646-0.735-0.79
	c-0.636-0.273-1.479-0.232-1.924,0.705C16.04,4.067,14.936,6.353,13.058,10.231z"/>
</svg>






