<?xml version="1.0" encoding="iso-8859-1"?>
<svg version="1.1" id="&#x56FE;&#x5C42;_1" xmlns="http://www.w3.org/2000/svg" xmlns:xlink="http://www.w3.org/1999/xlink" x="0px"
	 y="0px" viewBox="0 0 24 24" style="enable-background:new 0 0 24 24;" xml:space="preserve">
<path style="fill:#333333;" d="M20.545,21.208L19.536,19h-5.072l-1.009,2.208l-0.91-0.416l1.142-2.496l2.855-6.497h0.916
	l3.997,8.993L20.545,21.208z M14.908,18h4.184L17,13.242L14.908,18z"/>
<rect x="7.75" y="2.959" transform="matrix(0.9487 -0.3162 0.3162 0.9487 -0.7625 2.8013)" style="fill:#333333;" width="1" height="1.581"/>
<rect x="3" y="5" style="fill:#333333;" width="11" height="1"/>
<path style="fill:#333333;" d="M13.821,16.467c-0.151-0.058-3.728-1.438-5.997-3.203c-2.339-1.818-3.267-4.992-3.306-5.126
	L5.48,7.862c0.009,0.03,0.881,2.998,2.958,4.612c2.15,1.672,5.705,3.045,5.74,3.059L13.821,16.467z"/>
<path style="fill:#333333;" d="M3.225,16.446l-0.449-0.893c0.036-0.019,3.585-1.817,5.736-4.013c2.107-2.15,2.992-6.108,3-6.147
	l0.977,0.213c-0.037,0.173-0.952,4.277-3.263,6.635C6.957,14.557,3.376,16.371,3.225,16.446z"/>
</svg>






