<?xml version="1.0" encoding="iso-8859-1"?>
<svg version="1.1" id="&#x56FE;&#x5C42;_1" xmlns="http://www.w3.org/2000/svg" xmlns:xlink="http://www.w3.org/1999/xlink" x="0px"
	 y="0px" viewBox="0 0 24 24" style="enable-background:new 0 0 24 24;" xml:space="preserve">
<path style="fill:#333333;" d="M21,17.5H10c-0.827,0-1.5-0.673-1.5-1.5V5c0-0.827,0.673-1.5,1.5-1.5h11c0.827,0,1.5,0.673,1.5,1.5
	v11C22.5,16.827,21.827,17.5,21,17.5z M10,4.5C9.724,4.5,9.5,4.724,9.5,5v11c0,0.275,0.224,0.5,0.5,0.5h11
	c0.275,0,0.5-0.225,0.5-0.5V5c0-0.276-0.225-0.5-0.5-0.5H10z"/>
<path style="fill:#333333;" d="M9.5,17.5h-8v-4.488L5.305,9.5H9.5V17.5z M2.5,16.5h6v-6H5.695L2.5,13.449V16.5z"/>
<path style="fill:#333333;" d="M7,20.5c-1.378,0-2.5-1.121-2.5-2.5h1c0,0.827,0.673,1.5,1.5,1.5s1.5-0.673,1.5-1.5h1
	C9.5,19.379,8.378,20.5,7,20.5z"/>
<path style="fill:#333333;" d="M18,20.5c-1.379,0-2.5-1.121-2.5-2.5h1c0,0.827,0.673,1.5,1.5,1.5s1.5-0.673,1.5-1.5h1
	C20.5,19.379,19.379,20.5,18,20.5z"/>
</svg>






