<?xml version="1.0" encoding="iso-8859-1"?>
<svg version="1.1" id="&#x56FE;&#x5C42;_1" xmlns="http://www.w3.org/2000/svg" xmlns:xlink="http://www.w3.org/1999/xlink" x="0px"
	 y="0px" viewBox="0 0 24 24" style="enable-background:new 0 0 24 24;" xml:space="preserve">
<path style="fill:#333333;" d="M20.5,15.5h-11c-1.103,0-2-0.897-2-2v-6c0-1.103,0.897-2,2-2h11c1.103,0,2,0.897,2,2v6
	C22.5,14.603,21.603,15.5,20.5,15.5z M9.5,6.5c-0.551,0-1,0.449-1,1v6c0,0.552,0.449,1,1,1h11c0.552,0,1-0.448,1-1v-6
	c0-0.551-0.448-1-1-1H9.5z"/>
<rect x="11.5" y="9" style="fill:#333333;" width="1" height="3"/>
<rect x="17.5" y="9" style="fill:#333333;" width="1" height="3"/>
<polygon style="fill:#333333;" points="18.5,6 17.5,6 17.5,3.5 12.5,3.5 12.5,6 11.5,6 11.5,2.5 18.5,2.5 "/>
<path style="fill:#333333;" d="M22,18.5H6c-0.827,0-1.5-0.673-1.5-1.5V5.5C4.5,5.224,4.276,5,4,5H2V4h2c0.827,0,1.5,0.673,1.5,1.5
	V17c0,0.275,0.224,0.5,0.5,0.5h16V18.5z"/>
<path style="fill:#333333;" d="M9.5,21.5c-1.103,0-2-0.897-2-2v-2h4v2C11.5,20.603,10.603,21.5,9.5,21.5z M8.5,18.5v1
	c0,0.552,0.449,1,1,1s1-0.448,1-1v-1H8.5z"/>
<path style="fill:#333333;" d="M18.5,21.5c-1.103,0-2-0.897-2-2v-2h4v2C20.5,20.603,19.603,21.5,18.5,21.5z M17.5,18.5v1
	c0,0.552,0.448,1,1,1s1-0.448,1-1v-1H17.5z"/>
</svg>






