<?xml version="1.0" encoding="iso-8859-1"?>
<svg version="1.1" id="&#x56FE;&#x5C42;_1" xmlns="http://www.w3.org/2000/svg" xmlns:xlink="http://www.w3.org/1999/xlink" x="0px"
	 y="0px" viewBox="0 0 24 24" style="enable-background:new 0 0 24 24;" xml:space="preserve">
<path style="fill:#333333;" d="M15.042,16.2L14.079,14H9.921l-0.963,2.2l-0.916-0.4l1.094-2.5l0.458,0.2l-0.458-0.2l2.406-5.5h0.916
	l2.406,5.5l-0.458,0.2l0.458-0.2l1.094,2.5L15.042,16.2z M10.358,13h3.283L12,9.248L10.358,13z"/>
<path style="fill:#333333;" d="M1.338,10.748L1.51,9.9C2.499,5.033,6.826,1.5,11.8,1.5c4.975,0,9.303,3.533,10.29,8.4l-0.98,0.199
	c-0.893-4.404-4.809-7.6-9.31-7.6c-4.201,0-7.892,2.785-9.092,6.737l2.134-0.711l0.316,0.948L1.338,10.748z"/>
<path style="fill:#333333;" d="M11.8,22.5c-4.974,0-9.301-3.533-10.29-8.4L2.49,13.9c0.894,4.403,4.809,7.6,9.31,7.6
	c4.184,0,7.861-2.761,9.076-6.686l-1.696,0.652l-0.359-0.934l2.6-1l0.67,0.566C21.103,18.967,16.774,22.5,11.8,22.5z"/>
</svg>






