<?xml version="1.0" encoding="iso-8859-1"?>
<svg version="1.1" id="&#x56FE;&#x5C42;_1" xmlns="http://www.w3.org/2000/svg" xmlns:xlink="http://www.w3.org/1999/xlink" x="0px"
	 y="0px" viewBox="0 0 24 24" style="enable-background:new 0 0 24 24;" xml:space="preserve">
<path style="fill:#333333;" d="M19.96,20.5H4.041c-0.643,0-1.231-0.297-1.612-0.815c-0.381-0.518-0.489-1.167-0.297-1.781l4.062-13
	C6.456,4.064,7.223,3.5,8.103,3.5h7.794c0.879,0,1.646,0.564,1.909,1.403l4.062,13c0.191,0.614,0.083,1.264-0.298,1.781
	C21.19,20.203,20.603,20.5,19.96,20.5z M8.103,4.5c-0.44,0-0.824,0.282-0.955,0.702l-4.062,13c-0.096,0.307-0.042,0.631,0.149,0.89
	c0.19,0.26,0.484,0.408,0.806,0.408H19.96c0.321,0,0.615-0.148,0.806-0.407c0.19-0.26,0.244-0.584,0.148-0.891l-4.062-13
	C16.721,4.782,16.337,4.5,15.897,4.5H8.103z"/>
</svg>






