<?xml version="1.0" encoding="iso-8859-1"?>
<svg version="1.1" id="&#x56FE;&#x5C42;_1" xmlns="http://www.w3.org/2000/svg" xmlns:xlink="http://www.w3.org/1999/xlink" x="0px"
	 y="0px" viewBox="0 0 24 24" style="enable-background:new 0 0 24 24;" xml:space="preserve">
<g>
	<defs>
		<rect id="SVGID_1_" width="24" height="24"/>
	</defs>
	<clipPath id="SVGID_00000172417194284409959880000014311047694806608806_">
		<use xlink:href="#SVGID_1_"  style="overflow:visible;"/>
	</clipPath>
	<g style="clip-path:url(#SVGID_00000172417194284409959880000014311047694806608806_);">
		<path style="fill:#333333;" d="M11.674,22.213c-0.401,0-0.778-0.156-1.061-0.439l-8.485-8.485
			c-0.283-0.282-0.439-0.659-0.439-1.06c0-0.401,0.156-0.778,0.439-1.062l9.192-9.192c0.585-0.584,1.537-0.585,2.121,0l8.485,8.485
			c0.283,0.283,0.439,0.66,0.439,1.061c0,0.4-0.156,0.777-0.439,1.06l-9.192,9.192C12.451,22.057,12.074,22.213,11.674,22.213z
			 M12.381,2.536c-0.128,0-0.256,0.048-0.354,0.146l-9.192,9.192c-0.095,0.095-0.146,0.22-0.146,0.354
			c0,0.133,0.052,0.258,0.146,0.353l8.486,8.485c0.188,0.189,0.518,0.19,0.707,0l9.192-9.192c0.095-0.094,0.146-0.22,0.146-0.353
			c0-0.134-0.052-0.259-0.146-0.353l-8.485-8.486C12.637,2.584,12.509,2.536,12.381,2.536z"/>
		<polygon style="fill:#333333;" points="19.452,8.692 18.745,7.985 20.513,6.217 17.685,3.389 15.916,5.157 15.209,4.45 
			17.685,1.975 21.927,6.217 		"/>
		<rect x="9" y="10" style="fill:#333333;" width="6" height="1"/>
		<rect x="9" y="13" style="fill:#333333;" width="2" height="1"/>
		<rect x="14" y="13" style="fill:#333333;" width="1" height="1"/>
	</g>
</g>
</svg>






