<?xml version="1.0" encoding="iso-8859-1"?>
<svg version="1.1" id="&#x56FE;&#x5C42;_1" xmlns="http://www.w3.org/2000/svg" xmlns:xlink="http://www.w3.org/1999/xlink" x="0px"
	 y="0px" viewBox="0 0 24 24" style="enable-background:new 0 0 24 24;" xml:space="preserve">
<path style="fill:#333333;" d="M19.875,22.5H4.655c-1.74,0-3.155-1.415-3.155-3.155v-2.71c0-0.431,0.185-0.842,0.508-1.127
	c0.323-0.284,0.75-0.419,1.179-0.364l17.009,2.125c1.314,0.167,2.304,1.288,2.304,2.606C22.5,21.322,21.322,22.5,19.875,22.5z
	 M3,16.132c-0.121,0-0.236,0.044-0.33,0.126c-0.109,0.097-0.17,0.23-0.17,0.377v2.71c0,1.188,0.967,2.155,2.155,2.155h15.22
	c0.896,0,1.625-0.729,1.625-1.625c0-0.816-0.614-1.511-1.429-1.614L3.063,16.136C3.042,16.133,3.021,16.132,3,16.132z"/>
<polygon style="fill:#333333;" points="7.541,16.197 1.541,2.197 2,1.5 5.215,1.5 5.215,2.5 2.758,2.5 8.459,15.803 "/>
<rect x="2" y="13" transform="matrix(0.5998 -0.8001 0.8001 0.5998 -9.0009 9.0026)" style="fill:#333333;" width="5" height="1"/>
<rect x="4.5" y="7" style="fill:#333333;" width="8" height="1"/>
</svg>






