<?xml version="1.0" encoding="iso-8859-1"?>
<svg version="1.1" id="&#x56FE;&#x5C42;_1" xmlns="http://www.w3.org/2000/svg" xmlns:xlink="http://www.w3.org/1999/xlink" x="0px"
	 y="0px" viewBox="0 0 24 24" style="enable-background:new 0 0 24 24;" xml:space="preserve">
<path style="fill:#333333;" d="M15,7.5c-1.654,0-3-1.346-3-3s1.346-3,3-3s3,1.346,3,3S16.654,7.5,15,7.5z M15,2.5
	c-1.103,0-2,0.897-2,2s0.897,2,2,2s2-0.897,2-2S16.103,2.5,15,2.5z"/>
<polygon style="fill:#333333;" points="15.02,19.138 14.061,15.782 10.675,12.88 10.553,12.276 11.804,9.773 8.597,8.57 
	5.82,10.884 5.18,10.116 8.18,7.616 8.676,7.532 12.676,9.032 12.947,9.724 11.622,12.374 14.825,15.12 14.98,15.362 15.98,18.862 
	"/>
<polygon style="fill:#333333;" points="8.438,16.996 4.438,16.496 4.562,15.504 8.245,15.964 10.576,12.235 11.424,12.765 
	8.924,16.765 "/>
<polygon style="fill:#333333;" points="20,22.5 3,22.5 3,21.5 19.675,21.5 21.543,17.297 22.457,17.703 20.457,22.203 "/>
<polygon style="fill:#333333;" points="16.658,12.475 16.235,12.424 12.235,9.924 12.765,9.076 16.565,11.451 19.342,10.526 
	19.658,11.474 "/>
</svg>






