<?xml version="1.0" encoding="iso-8859-1"?>
<svg version="1.1" id="&#x56FE;&#x5C42;_1" xmlns="http://www.w3.org/2000/svg" xmlns:xlink="http://www.w3.org/1999/xlink" x="0px"
	 y="0px" viewBox="0 0 24 24" style="enable-background:new 0 0 24 24;" xml:space="preserve">
<rect x="3.5" y="19.5" style="fill:#333333;" width="1" height="2.5"/>
<rect x="19.5" y="19.5" style="fill:#333333;" width="1" height="2.5"/>
<polygon style="fill:#333333;" points="18.468,15.676 17.532,15.324 20.442,7.564 18.584,4.777 19.416,4.223 21.558,7.436 "/>
<rect x="15.464" y="4" transform="matrix(0.7071 -0.7071 0.7071 0.7071 2.383 14.753)" style="fill:#333333;" width="7.071" height="1"/>
<path style="fill:#333333;" d="M20,20H4c-1.378,0-2.5-1.121-2.5-2.5S2.622,15,4,15h16c1.379,0,2.5,1.121,2.5,2.5S21.379,20,20,20z
	 M4,16c-0.827,0-1.5,0.673-1.5,1.5S3.173,19,4,19h16c0.827,0,1.5-0.673,1.5-1.5S20.827,16,20,16H4z"/>
</svg>






