<?xml version="1.0" encoding="iso-8859-1"?>
<svg version="1.1" id="&#x56FE;&#x5C42;_1" xmlns="http://www.w3.org/2000/svg" xmlns:xlink="http://www.w3.org/1999/xlink" x="0px"
	 y="0px" viewBox="0 0 24 24" style="enable-background:new 0 0 24 24;" xml:space="preserve">
<path style="fill:#333333;" d="M12,18.5c-4.411,0-8-3.813-8-8.5c0-4.687,3.589-8.5,8-8.5s8,3.813,8,8.5
	C20,14.687,16.411,18.5,12,18.5z M12,2.5c-3.86,0-7,3.364-7,7.5s3.14,7.5,7,7.5c3.859,0,7-3.364,7-7.5S15.859,2.5,12,2.5z"/>
<rect x="11.5" y="7" style="fill:#333333;" width="1" height="11"/>
<path style="fill:#333333;" d="M12,18.5c-1.118,0-2.198-0.24-3.211-0.713l0.423-0.906c1.761,0.822,3.815,0.822,5.578,0l0.422,0.906
	C14.197,18.26,13.117,18.5,12,18.5z"/>
<rect x="11.5" y="18" style="fill:#333333;" width="1" height="4"/>
<rect x="11.379" y="9" transform="matrix(0.7071 -0.7071 0.7071 0.7071 -2.7635 12.3284)" style="fill:#333333;" width="4.243" height="1"/>
<rect x="10" y="10.879" transform="matrix(0.7071 -0.7071 0.7071 0.7071 -6.117 11.2322)" style="fill:#333333;" width="1" height="4.243"/>
</svg>






