<?xml version="1.0" encoding="iso-8859-1"?>
<svg version="1.1" id="&#x56FE;&#x5C42;_1" xmlns="http://www.w3.org/2000/svg" xmlns:xlink="http://www.w3.org/1999/xlink" x="0px"
	 y="0px" viewBox="0 0 24 24" style="enable-background:new 0 0 24 24;" xml:space="preserve">
<path style="fill:#333333;" d="M17.5,16.5h-11c-2.757,0-5-2.243-5-5c0-2.616,2.019-4.769,4.58-4.982C6.55,3.628,9.022,1.5,12,1.5
	c2.979,0,5.45,2.128,5.921,5.019C20.491,6.743,22.5,8.891,22.5,11.5C22.5,14.257,20.257,16.5,17.5,16.5z M6.5,7.5
	c-2.206,0-4,1.794-4,4c0,2.206,1.794,4,4,4h11c2.206,0,4-1.794,4-4c0-2.206-1.794-4-4-4h-0.457l-0.063-0.455
	C16.746,4.454,14.605,2.5,12,2.5S7.254,4.454,7.021,7.045L6.979,7.5H6.5z"/>
<rect x="11.482" y="12.25" transform="matrix(0.7071 -0.7071 0.7071 0.7071 -5.1348 13.1036)" style="fill:#333333;" width="3.536" height="1"/>
<rect x="10" y="8.879" transform="matrix(0.7071 -0.7071 0.7071 0.7071 -4.7028 10.6464)" style="fill:#333333;" width="1" height="4.243"/>
<rect x="11.5" y="9" style="fill:#333333;" width="1" height="13"/>
</svg>






