<?xml version="1.0" encoding="iso-8859-1"?>
<svg version="1.1" id="&#x56FE;&#x5C42;_1" xmlns="http://www.w3.org/2000/svg" xmlns:xlink="http://www.w3.org/1999/xlink" x="0px"
	 y="0px" viewBox="0 0 24 24" style="enable-background:new 0 0 24 24;" xml:space="preserve">
<rect x="2" y="21.5" style="fill:#333333;" width="20" height="1"/>
<path style="fill:#333333;" d="M6.5,19.5h-5v-7.141l5,1.25V19.5z M2.5,18.5h3v-4.109l-3-0.75V18.5z"/>
<path style="fill:#333333;" d="M14.5,19.5h-5v-7.809l5-2.5V19.5z M10.5,18.5h3v-7.691l-3,1.5V18.5z"/>
<path style="fill:#333333;" d="M22.5,19.5h-5V7.691l5-2.5V19.5z M18.5,18.5h3V6.809l-3,1.5V18.5z"/>
<polygon style="fill:#333333;" points="6.058,10.53 1.879,9.485 2.121,8.515 5.942,9.47 19.882,2.5 17,2.5 17,1.5 22,1.5 
	22.224,2.447 "/>
</svg>






