<?xml version="1.0" encoding="iso-8859-1"?>
<svg version="1.1" id="&#x56FE;&#x5C42;_1" xmlns="http://www.w3.org/2000/svg" xmlns:xlink="http://www.w3.org/1999/xlink" x="0px"
	 y="0px" viewBox="0 0 24 24" style="enable-background:new 0 0 24 24;" xml:space="preserve">
<path style="fill:#333333;" d="M21.266,21.5H2.734c-0.542,0-1.028-0.28-1.299-0.751c-0.271-0.47-0.271-1.031,0.001-1.501
	l9.266-16.004C10.973,2.775,11.458,2.496,12,2.496c0.542,0,1.027,0.28,1.298,0.749l9.266,16.004
	c0.272,0.471,0.272,1.032,0.001,1.502C22.294,21.22,21.809,21.5,21.266,21.5z M12,3.496c-0.087,0-0.302,0.024-0.433,0.25
	L2.302,19.75c-0.13,0.226-0.044,0.425,0,0.5s0.172,0.25,0.433,0.25h18.531c0.261,0,0.39-0.175,0.433-0.25
	c0.044-0.075,0.131-0.274,0-0.501L12.433,3.745C12.303,3.52,12.087,3.496,12,3.496z"/>
</svg>






