<?xml version="1.0" encoding="iso-8859-1"?>
<svg version="1.1" id="&#x56FE;&#x5C42;_1" xmlns="http://www.w3.org/2000/svg" xmlns:xlink="http://www.w3.org/1999/xlink" x="0px"
	 y="0px" viewBox="0 0 24 24" style="enable-background:new 0 0 24 24;" xml:space="preserve">
<path style="fill:#333333;" d="M22,22.5H1.5V2l0.854-0.354l20,20L22,22.5z M2.5,21.5h18.293L2.5,3.207V21.5z"/>
<path style="fill:none;" d="M6.5,17.5h6l-6-6V17.5z"/>
<path style="fill:none;" d="M6.5,17.5h6l-6-6V17.5z"/>
<path style="fill:none;" d="M6.5,17.5h6l-6-6V17.5z"/>
<path style="fill:none;" d="M6.5,17.5h6l-6-6V17.5z"/>
<path style="fill:#333333;" d="M12.5,18H6v-6.5l0.854-0.354l6,6L12.5,18z M7,17h4.293L7,12.707V17z"/>
<path style="fill:#333333;" d="M12.5,18H6v-6.5l0.854-0.354l6,6L12.5,18z M7,17h4.293L7,12.707V17z"/>
<path style="fill:#333333;" d="M12.5,18H6v-6.5l0.854-0.354l6,6L12.5,18z M7,17h4.293L7,12.707V17z"/>
<path style="fill:#333333;" d="M12.5,18H6v-6.5l0.854-0.354l6,6L12.5,18z M7,17h4.293L7,12.707V17z"/>
<rect x="14.5" y="20.5" style="fill:#333333;" width="1" height="1.5"/>
<rect x="11.5" y="20.5" style="fill:#333333;" width="1" height="1.5"/>
<rect x="8.5" y="20.5" style="fill:#333333;" width="1" height="1.5"/>
<rect x="5.5" y="20.5" style="fill:#333333;" width="1" height="1.5"/>
<rect x="2" y="17.5" style="fill:#333333;" width="1.5" height="1"/>
<rect x="2" y="14.5" style="fill:#333333;" width="1.5" height="1"/>
<rect x="2" y="11.5" style="fill:#333333;" width="1.5" height="1"/>
<rect x="2" y="8.5" style="fill:#333333;" width="1.5" height="1"/>
</svg>






