<?xml version="1.0" encoding="iso-8859-1"?>
<svg version="1.1" id="&#x56FE;&#x5C42;_1" xmlns="http://www.w3.org/2000/svg" xmlns:xlink="http://www.w3.org/1999/xlink" x="0px"
	 y="0px" viewBox="0 0 24 24" style="enable-background:new 0 0 24 24;" xml:space="preserve">
<path style="fill:#333333;" d="M10.5,22h-8v-8h8V22z M3.5,21h6v-6h-6V21z"/>
<path style="fill:#333333;" d="M17,11H7l-0.431-0.753L12,1.014l5.431,9.233L17,11z M7.874,10h8.252L12,2.986L7.874,10z"/>
<path style="fill:#333333;" d="M18,22.5c-2.481,0-4.5-2.019-4.5-4.5s2.019-4.5,4.5-4.5s4.5,2.019,4.5,4.5S20.481,22.5,18,22.5z
	 M18,14.5c-1.93,0-3.5,1.57-3.5,3.5s1.57,3.5,3.5,3.5s3.5-1.57,3.5-3.5S19.93,14.5,18,14.5z"/>
</svg>






