<?xml version="1.0" encoding="iso-8859-1"?>
<svg version="1.1" id="&#x56FE;&#x5C42;_1" xmlns="http://www.w3.org/2000/svg" xmlns:xlink="http://www.w3.org/1999/xlink" x="0px"
	 y="0px" viewBox="0 0 24 24" style="enable-background:new 0 0 24 24;" xml:space="preserve">
<path style="fill:#333333;" d="M6,20c-1.378,0-2.5-1.121-2.5-2.5S4.622,15,6,15s2.5,1.121,2.5,2.5S7.378,20,6,20z M6,16
	c-0.827,0-1.5,0.673-1.5,1.5S5.173,19,6,19s1.5-0.673,1.5-1.5S6.827,16,6,16z"/>
<path style="fill:#333333;" d="M17.5,20c-1.379,0-2.5-1.121-2.5-2.5s1.121-2.5,2.5-2.5s2.5,1.121,2.5,2.5S18.879,20,17.5,20z
	 M17.5,16c-0.827,0-1.5,0.673-1.5,1.5s0.673,1.5,1.5,1.5s1.5-0.673,1.5-1.5S18.327,16,17.5,16z"/>
<polygon style="fill:#333333;" points="16,18 8,18 8,17 15,17 15,6 1.5,6 1.5,17 4,17 4,18 0.5,18 0.5,5 16,5 "/>
<polygon style="fill:#333333;" points="23.5,18 19.905,18 19.905,17 22.5,17 22.5,13.418 19.537,9.5 16,9.5 16,17.5 15,17.5 15,8.5 
	20.035,8.5 23.5,13.082 "/>
</svg>






