<?xml version="1.0" encoding="iso-8859-1"?>
<svg version="1.1" id="&#x56FE;&#x5C42;_1" xmlns="http://www.w3.org/2000/svg" xmlns:xlink="http://www.w3.org/1999/xlink" x="0px"
	 y="0px" viewBox="0 0 24 24" style="enable-background:new 0 0 24 24;" xml:space="preserve">
<path style="fill:#333333;" d="M17.5,21.5c-1.103,0-2-0.897-2-2v-6h4v6C19.5,20.603,18.603,21.5,17.5,21.5z M16.5,14.5v5
	c0,0.552,0.448,1,1,1s1-0.448,1-1v-5H16.5z"/>
<path style="fill:#333333;" d="M19.5,14.5H14v-1h5.5c0.552,0,1-0.448,1-1v-5c0-0.551-0.448-1-1-1h-5v-1h5c1.103,0,2,0.897,2,2v5
	C21.5,13.603,20.603,14.5,19.5,14.5z"/>
<path style="fill:#333333;" d="M7,13.5H6c-1.93,0-3.5-1.57-3.5-3.5S4.07,6.5,6,6.5h1v1H6c-1.378,0-2.5,1.122-2.5,2.5
	s1.122,2.5,2.5,2.5h1V13.5z"/>
<path style="fill:#333333;" d="M8.75,17H7.099C6.769,17,6.5,16.731,6.5,16.4V3.099C6.5,2.769,6.769,2.5,7.099,2.5H8.75
	C12.748,2.5,16,5.752,16,9.75C16,13.748,12.748,17,8.75,17z M7.5,16h1.25C12.196,16,15,13.196,15,9.75S12.196,3.5,8.75,3.5H7.5V16z"
	/>
</svg>






