<?xml version="1.0" encoding="iso-8859-1"?>
<svg version="1.1" id="&#x56FE;&#x5C42;_1" xmlns="http://www.w3.org/2000/svg" xmlns:xlink="http://www.w3.org/1999/xlink" x="0px"
	 y="0px" viewBox="0 0 24 24" style="enable-background:new 0 0 24 24;" xml:space="preserve">
<path style="fill:#333333;" d="M20.5,11.5h-1V6c0-1.654-1.346-3-3-3s-3,1.346-3,3v0.5h-1V6c0-2.206,1.794-4,4-4s4,1.794,4,4V11.5z"
	/>
<path style="fill:#333333;" d="M16,19H8c-2.481,0-4.5-2.019-4.5-4.5V11h17v3.5C20.5,16.981,18.481,19,16,19z M4.5,12v2.5
	C4.5,16.43,6.07,18,8,18h8c1.93,0,3.5-1.57,3.5-3.5V12H4.5z"/>
<rect x="2.5" y="11" style="fill:#333333;" width="19" height="1"/>
<rect x="5.697" y="19.5" transform="matrix(0.5547 -0.8321 0.8321 0.5547 -13.3013 15.1464)" style="fill:#333333;" width="3.606" height="1"/>
<rect x="16" y="18.197" transform="matrix(0.8321 -0.5547 0.5547 0.8321 -8.3228 12.5115)" style="fill:#333333;" width="1" height="3.606"/>
</svg>






