<?xml version="1.0" encoding="iso-8859-1"?>
<svg version="1.1" id="&#x56FE;&#x5C42;_1" xmlns="http://www.w3.org/2000/svg" xmlns:xlink="http://www.w3.org/1999/xlink" x="0px"
	 y="0px" viewBox="0 0 24 24" style="enable-background:new 0 0 24 24;" xml:space="preserve">
<path style="fill:#333333;" d="M22,20H2V4h10v4H6v8h12v-2.5h4V20z M3,19h18v-4.5h-2V17H5V7h6V5H3V19z"/>
<path style="fill:#333333;" d="M22,11.5h-0.5c-4.416,0-7.5-2.878-7.5-7V4h4v0.5c0,2.047,1.112,3,3.5,3H22V11.5z M15.018,5
	c0.221,3.16,2.551,5.298,5.982,5.486v-2C18.021,8.316,17.157,6.612,17.021,5H15.018z"/>
</svg>






