<?xml version="1.0" encoding="iso-8859-1"?>
<svg version="1.1" id="&#x56FE;&#x5C42;_1" xmlns="http://www.w3.org/2000/svg" xmlns:xlink="http://www.w3.org/1999/xlink" x="0px"
	 y="0px" viewBox="0 0 24 24" style="enable-background:new 0 0 24 24;" xml:space="preserve">
<path style="fill:#333333;" d="M19.777,22.5H4.223l-2.646-4.235L2,17.5h20l0.424,0.765L19.777,22.5z M4.777,21.5h14.445l1.875-3
	H2.902L4.777,21.5z"/>
<path style="fill:#333333;" d="M19,18.5H5V15c0-2.269,0.698-4.036,2.076-5.252c2.143-1.891,5.244-1.838,6.198-1.771
	c1.209-1.466,2.655-1.792,4.003-0.894c0.638,0.425,1.031,1.016,1.139,1.708c0.126,0.81-0.145,1.753-0.747,2.643
	C18.178,11.983,19,13.221,19,15.5V18.5z M6,17.5h12v-2c0-2.657-1.229-3.55-1.282-3.587l-0.436-0.306l0.327-0.419
	c0.611-0.764,0.918-1.603,0.818-2.241c-0.065-0.42-0.296-0.757-0.705-1.03C15.769,7.28,14.818,7.576,13.9,8.8l-0.174,0.232
	l-0.288-0.036c-0.036-0.002-3.54-0.409-5.705,1.505C6.583,11.52,6,13.033,6,15V17.5z"/>
<path style="fill:#333333;" d="M9.5,14.5h-1c0-0.037,0.007-0.911,0.584-1.777c0.558-0.836,1.129-1.138,1.192-1.17l0.447,0.895
	L10.5,12l0.229,0.444c-0.004,0.002-0.404,0.22-0.813,0.833C9.511,13.885,9.5,14.494,9.5,14.5z"/>
<rect x="16.297" y="5.5" transform="matrix(0.6408 -0.7677 0.7677 0.6408 1.9497 16.1667)" style="fill:#333333;" width="3.905" height="1"/>
<circle style="fill:#333333;" cx="19.178" cy="3.741" r="1.25"/>
<circle style="fill:#333333;" cx="20.405" cy="4.603" r="1.25"/>
</svg>






