<?xml version="1.0" encoding="iso-8859-1"?>
<svg version="1.1" id="&#x56FE;&#x5C42;_1" xmlns="http://www.w3.org/2000/svg" xmlns:xlink="http://www.w3.org/1999/xlink" x="0px"
	 y="0px" viewBox="0 0 24 24" style="enable-background:new 0 0 24 24;" xml:space="preserve">
<path style="fill:#333333;" d="M12,7.5c-1.654,0-3-1.346-3-3s1.346-3,3-3s3,1.346,3,3S13.654,7.5,12,7.5z M12,2.5
	c-1.103,0-2,0.897-2,2s0.897,2,2,2c1.103,0,2-0.897,2-2S13.103,2.5,12,2.5z"/>
<path style="fill:#333333;" d="M18.5,15h-13v-0.5c0-0.489,0.001-0.734,0.021-0.94c0.21-2.13,1.908-3.828,4.037-4.038
	C9.766,9.501,10.01,9.5,10.5,9.5h3c0.489,0,0.734,0.001,0.94,0.021c2.131,0.21,3.828,1.909,4.038,4.038
	c0.021,0.205,0.021,0.45,0.021,0.94V15z M6.501,14h10.998c-0.002-0.141-0.007-0.246-0.016-0.342
	c-0.163-1.657-1.484-2.978-3.141-3.142c-0.186-0.018-0.397-0.019-0.843-0.017h-3c-0.433,0.003-0.658-0.001-0.844,0.017
	c-1.655,0.164-2.976,1.484-3.14,3.141C6.507,13.753,6.503,13.859,6.501,14z"/>
<path style="fill:#333333;" d="M12,20c-5.888,0-10.5-1.977-10.5-4.5c0-0.646,0.3-1.608,1.729-2.528l0.541,0.84
	C3.191,14.186,2.5,14.781,2.5,15.5c0,1.655,3.901,3.5,9.5,3.5s9.5-1.845,9.5-3.5c0-0.719-0.691-1.314-1.271-1.688l0.541-0.842
	C22.2,13.892,22.5,14.854,22.5,15.5C22.5,18.023,17.888,20,12,20z"/>
<polygon style="fill:#333333;" points="9.854,22.354 9.146,21.646 11.293,19.5 9.146,17.354 9.854,16.646 12.707,19.5 "/>
</svg>






