<?xml version="1.0" encoding="iso-8859-1"?>
<svg version="1.1" id="&#x56FE;&#x5C42;_1" xmlns="http://www.w3.org/2000/svg" xmlns:xlink="http://www.w3.org/1999/xlink" x="0px"
	 y="0px" viewBox="0 0 24 24" style="enable-background:new 0 0 24 24;" xml:space="preserve">
<path style="fill:#333333;" d="M13.352,22.589c-0.943,0-1.921-0.207-3.027-0.62l0,0c-2.522-0.943-4.58-4.104-5.582-5.904
	c-0.535-0.962-0.28-2.175,0.606-2.885c0.939-0.749,2.278-0.696,3.151,0.115V8.75C8.5,7.785,9.285,7,10.25,7S12,7.785,12,8.75v1.419
	C12.228,10.061,12.481,10,12.75,10c0.777,0,1.438,0.509,1.665,1.212C14.664,11.077,14.948,11,15.25,11
	c0.777,0,1.438,0.509,1.665,1.212C17.164,12.077,17.448,12,17.75,12c0.965,0,1.75,0.785,1.75,1.75v3.934
	c0,0.678-0.184,1.297-0.532,1.79c-0.599,0.849-1.564,1.969-2.771,2.486C15.218,22.379,14.302,22.589,13.352,22.589z M6.858,13.65
	c-0.312,0-0.624,0.103-0.884,0.311c-0.504,0.403-0.654,1.084-0.357,1.617c0.935,1.68,2.836,4.622,5.059,5.453l0,0
	c1.978,0.74,3.416,0.743,5.127,0.009c1.044-0.446,1.919-1.534,2.349-2.143c0.228-0.324,0.349-0.743,0.349-1.214V13.75
	c0-0.413-0.337-0.75-0.75-0.75S17,13.337,17,13.75h-1v-1c0-0.413-0.337-0.75-0.75-0.75s-0.75,0.337-0.75,0.75h-1v-1
	c0-0.414-0.337-0.75-0.75-0.75S12,11.336,12,11.75h-1v-3C11,8.336,10.664,8,10.25,8S9.5,8.336,9.5,8.75v5.75l-0.854,0.354
	l-0.788-0.788C7.583,13.79,7.221,13.65,6.858,13.65z"/>
<rect x="6.25" y="4.189" transform="matrix(0.7071 -0.7071 0.7071 0.7071 -1.7353 6.3107)" style="fill:#333333;" width="1" height="2.121"/>
<rect x="9.25" y="1.979" transform="matrix(0.9864 -0.1644 0.1644 0.9864 -0.4427 1.6505)" style="fill:#333333;" width="1" height="3.041"/>
<rect x="12.099" y="4.25" transform="matrix(0.5547 -0.8321 0.8321 0.5547 1.8367 12.9318)" style="fill:#333333;" width="1.803" height="1"/>
</svg>






