<?xml version="1.0" encoding="iso-8859-1"?>
<svg version="1.1" id="&#x56FE;&#x5C42;_1" xmlns="http://www.w3.org/2000/svg" xmlns:xlink="http://www.w3.org/1999/xlink" x="0px"
	 y="0px" viewBox="0 0 24 24" style="enable-background:new 0 0 24 24;" xml:space="preserve">
<path style="fill:#333333;" d="M20.5,21.5h-17C2.673,21.5,2,20.827,2,20V8c0-0.827,0.673-1.5,1.5-1.5h17C21.327,6.5,22,7.173,22,8
	v12C22,20.827,21.327,21.5,20.5,21.5z M3.5,7.5C3.224,7.5,3,7.724,3,8v12c0,0.275,0.224,0.5,0.5,0.5h17c0.275,0,0.5-0.225,0.5-0.5V8
	c0-0.276-0.225-0.5-0.5-0.5H3.5z"/>
<rect x="11.469" y="4.5" transform="matrix(0.8682 -0.4961 0.4961 0.8682 -0.4385 8.3489)" style="fill:#333333;" width="8.062" height="1"/>
<rect x="7.75" y="1.184" transform="matrix(0.5241 -0.8517 0.8517 0.5241 -0.3321 9.4057)" style="fill:#333333;" width="1" height="7.632"/>
<rect x="17" y="10" style="fill:#333333;" width="1" height="3"/>
<path style="fill:#333333;" d="M17.5,16L17.5,16c0.552,0,1,0.448,1,1l0,0c0,0.552-0.448,1-1,1l0,0c-0.552,0-1-0.448-1-1l0,0
	C16.5,16.448,16.948,16,17.5,16z"/>
</svg>






