<?xml version="1.0" encoding="iso-8859-1"?>
<svg version="1.1" id="&#x56FE;&#x5C42;_1" xmlns="http://www.w3.org/2000/svg" xmlns:xlink="http://www.w3.org/1999/xlink" x="0px"
	 y="0px" viewBox="0 0 24 24" style="enable-background:new 0 0 24 24;" xml:space="preserve">
<path style="fill:#333333;" d="M11.045,21.011c-3.308,0-6.634-1.495-8.711-2.65l0.26-0.971c1.304,0.25,2.973-0.113,4.969-1.075
	c-2.069-1.133-3.423-2.504-4.032-4.085C2.518,9.597,2.99,7.234,3.513,5.226l0.91-0.135c1.237,2.017,3.773,5.116,7.058,3.706
	c-0.193-3.384,1.085-5.531,3.458-5.769c1.711-0.173,3.085,0.463,4.085,1.887c0.697,0.141,1.394-0.124,2.137-0.81L22,4.472
	c0,2.056-0.594,2.903-1.071,3.584c-0.118,0.169-0.233,0.33-0.328,0.506l0.001,0.245c0.013,2.548,0.039,7.852-4.927,10.955
	C14.231,20.663,12.641,21.011,11.045,21.011z M4.581,18.374c2.82,1.279,7.239,2.616,10.565,0.539
	c4.493-2.808,4.469-7.553,4.456-10.102L19.601,8.33l0.049-0.102c0.133-0.278,0.299-0.516,0.46-0.746
	c0.337-0.48,0.683-0.973,0.824-1.966c-0.778,0.445-1.567,0.551-2.359,0.315l-0.175-0.052l-0.1-0.152
	c-0.8-1.219-1.862-1.741-3.261-1.604c-2.652,0.266-2.658,3.612-2.537,5.039l0.028,0.336L12.229,9.55
	c-2.773,1.402-5.65,0.319-8.015-2.967c-0.35,1.629-0.488,3.372,0.249,5.287c0.596,1.549,2.081,2.892,4.412,3.99l0.025,0.892
	C7.279,17.631,5.849,18.169,4.581,18.374z"/>
</svg>






