<?xml version="1.0" encoding="iso-8859-1"?>
<svg version="1.1" id="&#x56FE;&#x5C42;_1" xmlns="http://www.w3.org/2000/svg" xmlns:xlink="http://www.w3.org/1999/xlink" x="0px"
	 y="0px" viewBox="0 0 24 24" style="enable-background:new 0 0 24 24;" xml:space="preserve">
<path style="fill:#333333;" d="M22.5,13h-21v-0.5C1.5,6.71,6.21,2,12,2c5.79,0,10.5,4.71,10.5,10.5V13z M2.513,12h18.974
	C21.226,6.993,17.07,3,12,3S2.774,6.993,2.513,12z"/>
<path style="fill:#333333;" d="M12,21.5c-3.033,0-5.5-2.468-5.5-5.5v-0.5h11V16C17.5,19.032,15.032,21.5,12,21.5z M7.528,16.5
	c0.25,2.247,2.16,4,4.472,4s4.223-1.753,4.473-4H7.528z"/>
</svg>






