<?xml version="1.0" encoding="iso-8859-1"?>
<svg version="1.1" id="&#x56FE;&#x5C42;_1" xmlns="http://www.w3.org/2000/svg" xmlns:xlink="http://www.w3.org/1999/xlink" x="0px"
	 y="0px" viewBox="0 0 24 24" style="enable-background:new 0 0 24 24;" xml:space="preserve">
<path style="fill:#333333;" d="M19.5,21.5h-15c-1.103,0-2-0.897-2-2v-15c0-1.103,0.897-2,2-2h15c1.103,0,2,0.897,2,2v15
	C21.5,20.603,20.603,21.5,19.5,21.5z M4.5,3.5c-0.551,0-1,0.449-1,1v15c0,0.552,0.449,1,1,1h15c0.552,0,1-0.448,1-1v-15
	c0-0.551-0.448-1-1-1H4.5z"/>
<path style="fill:#333333;" d="M14.5,17.5H9V17c0-1.442,1.293-2.685,2.543-3.886C12.751,11.954,14,10.754,14,9.5
	c0-1.235-1.038-2-2-2s-2,0.765-2,2H9c0-1.853,1.557-3,3-3c1.442,0,3,1.147,3,3c0,1.68-1.405,3.029-2.764,4.335
	c-0.962,0.925-1.88,1.807-2.154,2.665H14.5V17.5z"/>
</svg>






