<?xml version="1.0" encoding="iso-8859-1"?>
<svg version="1.1" id="&#x56FE;&#x5C42;_1" xmlns="http://www.w3.org/2000/svg" xmlns:xlink="http://www.w3.org/1999/xlink" x="0px"
	 y="0px" viewBox="0 0 24 24" style="enable-background:new 0 0 24 24;" xml:space="preserve">
<path style="fill:#333333;" d="M5.586,21.463c-0.948,0-1.719-0.273-2.266-0.82c-1.063-1.062-1.093-2.977-0.084-5.389
	c0.95-2.271,2.72-4.77,4.984-7.034s4.762-4.034,7.034-4.984c2.41-1.009,4.326-0.979,5.389,0.084l0,0
	c1.063,1.063,1.094,2.977,0.085,5.39c-0.949,2.271-2.72,4.769-4.983,7.034c-2.265,2.264-4.762,4.034-7.034,4.983
	C7.538,21.218,6.483,21.463,5.586,21.463z M18.375,3.5c-0.756,0-1.688,0.22-2.735,0.658c-2.154,0.901-4.538,2.594-6.712,4.769
	S5.06,13.485,4.159,15.64c-0.83,1.983-0.877,3.55-0.131,4.296c0.747,0.748,2.313,0.699,4.297-0.131
	c2.154-0.9,4.538-2.594,6.712-4.768c2.174-2.175,3.867-4.559,4.768-6.712c0.83-1.984,0.878-3.55,0.131-4.297l0,0
	C19.584,3.676,19.049,3.5,18.375,3.5z"/>
<path style="fill:#333333;" d="M18.446,21.463c-0.897,0-1.952-0.245-3.124-0.735c-2.271-0.949-4.77-2.72-7.034-4.983
	C3.432,10.887,1.28,5.43,3.389,3.321c2.108-2.108,7.566,0.042,12.423,4.899c2.264,2.264,4.034,4.762,4.983,7.034
	c1.009,2.412,0.979,4.326-0.085,5.389C20.165,21.189,19.394,21.463,18.446,21.463z M5.667,3.5c-0.681,0-1.219,0.176-1.57,0.527
	c-1.475,1.475,0.142,6.251,4.899,11.009c2.174,2.174,4.558,3.867,6.712,4.768c1.984,0.83,3.549,0.877,4.296,0.131
	s0.699-2.312-0.131-4.296c-0.9-2.154-2.594-4.538-4.768-6.712C11.48,5.303,7.845,3.5,5.667,3.5z"/>
</svg>






