<?xml version="1.0" encoding="iso-8859-1"?>
<svg version="1.1" id="&#x56FE;&#x5C42;_1" xmlns="http://www.w3.org/2000/svg" xmlns:xlink="http://www.w3.org/1999/xlink" x="0px"
	 y="0px" viewBox="0 0 24 24" style="enable-background:new 0 0 24 24;" xml:space="preserve">
<path style="fill:#333333;" d="M15.471,22.5h-5.74c-2.646,0-5.231-3.797-5.231-6c0-1.521,0.505-2.64,1.5-3.321l0.565,0.824
	C5.849,14.494,5.5,15.312,5.5,16.5c0,1.738,2.241,5,4.231,5h5.74c1.95,0,3.029-1.756,3.029-2.97v-6.525c0-0.551-0.448-1-1-1
	c-0.554,0-1,0.446-1,0.995h-1c0-1.1,0.895-1.995,1.995-1.995c1.107,0,2.005,0.897,2.005,2v6.525
	C19.5,20.447,17.881,22.5,15.471,22.5z"/>
<path style="fill:#333333;" d="M7.491,14.723h-1v-9.22c0-1.102,0.896-1.999,1.999-1.999l0.127,0.004
	c1.048,0.066,1.88,0.94,1.88,2.003v6.785h-1V5.511c0-0.554-0.451-1.005-1.004-1.007H8.46c-0.537,0.015-0.97,0.458-0.97,0.999V14.723
	z"/>
<path style="fill:#333333;" d="M13.512,12.004h-1V3.508c0-0.556-0.452-1.008-1.008-1.008s-1.007,0.452-1.007,1.008v8.496h-1V3.508
	c0-1.107,0.9-2.008,2.007-2.008c1.107,0,2.008,0.901,2.008,2.008V12.004z"/>
<path style="fill:#333333;" d="M16.5,12.002h-1v-1.5c0-0.551-0.448-1-1-1s-1,0.449-1,1v1.356h-1v-1.356c0-1.103,0.897-2,2-2
	s2,0.897,2,2V12.002z"/>
</svg>






