<?xml version="1.0" encoding="iso-8859-1"?>
<svg version="1.1" id="&#x56FE;&#x5C42;_1" xmlns="http://www.w3.org/2000/svg" xmlns:xlink="http://www.w3.org/1999/xlink" x="0px"
	 y="0px" viewBox="0 0 24 24" style="enable-background:new 0 0 24 24;" xml:space="preserve">
<path style="fill:#333333;" d="M11.5,22.5c-4.191,0-6.024-1.431-6.447-2.276L5.046,20.21l-2.053-4.449
	c-0.647-1.403-0.132-3.054,1.198-3.84l2.77-1.637c0.646-0.381,1.442-0.373,2.078,0.026l0.343,0.214L8.578,3.688
	c-0.065-0.553,0.123-1.096,0.517-1.49c0.495-0.495,1.28-0.539,1.827-0.102l0.189,0.152c0.388,0.31,0.646,0.751,0.725,1.243
	l0.853,5.284l0.502-5.193c0.052-0.534,0.322-1.033,0.742-1.369l0.104-0.083c0.569-0.455,1.389-0.411,1.906,0.106
	C16.302,2.595,16.5,3.072,16.5,3.58v11.13l1.688-1.351c0.822-0.657,2.023-0.585,3.215,0.195c0.214,0.141,0.357,0.357,0.402,0.61
	c0.048,0.262-0.018,0.537-0.179,0.756l-3.974,5.376C17.549,20.418,15.679,22.5,11.5,22.5z M5.95,19.782
	C6.184,20.234,7.688,21.5,11.5,21.5c3.729,0,5.357-1.811,5.374-1.829l3.947-5.344c-0.271-0.135-1.318-0.742-2.009-0.187
	l-1.688,1.351c-0.304,0.242-0.708,0.286-1.059,0.12c-0.35-0.169-0.566-0.514-0.566-0.901V3.58c0-0.24-0.094-0.466-0.264-0.635
	c-0.155-0.156-0.403-0.169-0.575-0.032l-0.104,0.083c-0.209,0.167-0.345,0.417-0.37,0.684l-0.664,6.862
	c-0.038,0.403-0.374,0.708-0.78,0.708c-0.389,0-0.715-0.278-0.774-0.662l-1.119-6.938c-0.04-0.246-0.168-0.466-0.363-0.622
	l-0.189-0.152c-0.148-0.117-0.36-0.105-0.495,0.028c-0.176,0.176-0.26,0.418-0.231,0.666l0.804,6.836
	c0.045,0.386-0.13,0.755-0.458,0.962c-0.328,0.207-0.736,0.208-1.065,0.002l-0.343-0.214c-0.317-0.199-0.715-0.204-1.039-0.013
	l-2.77,1.637c-0.887,0.524-1.23,1.625-0.798,2.56L5.95,19.782z M12.955,10.43v0.002C12.955,10.431,12.955,10.43,12.955,10.43z"/>
</svg>






