<?xml version="1.0" encoding="iso-8859-1"?>
<svg version="1.1" id="&#x56FE;&#x5C42;_1" xmlns="http://www.w3.org/2000/svg" xmlns:xlink="http://www.w3.org/1999/xlink" x="0px"
	 y="0px" viewBox="0 0 24 24" style="enable-background:new 0 0 24 24;" xml:space="preserve">
<path style="fill:#333333;" d="M21,19.5H3c-0.827,0-1.5-0.673-1.5-1.5V6c0-0.827,0.673-1.5,1.5-1.5h18c0.827,0,1.5,0.673,1.5,1.5v12
	C22.5,18.827,21.827,19.5,21,19.5z M3,5.5C2.724,5.5,2.5,5.724,2.5,6v12c0,0.275,0.224,0.5,0.5,0.5h18c0.275,0,0.5-0.225,0.5-0.5V6
	c0-0.276-0.225-0.5-0.5-0.5H3z"/>
<path style="fill:#333333;" d="M19,19.5H5l-0.354-0.854l2.707-2.707c0.283-0.283,0.66-0.439,1.061-0.439h6.716
	c0.358,0,0.706,0.129,0.978,0.362l3.218,2.758L19,19.5z M6.207,18.5h11.441l-2.192-1.879c-0.091-0.078-0.207-0.121-0.326-0.121
	H8.414c-0.131,0-0.26,0.054-0.354,0.146L6.207,18.5z"/>
<rect x="4.5" y="18.5" style="fill:#333333;" width="15" height="1"/>
<path style="fill:#333333;" d="M7.5,13C6.122,13,5,11.878,5,10.5S6.122,8,7.5,8S10,9.122,10,10.5S8.878,13,7.5,13z M7.5,9
	C6.673,9,6,9.673,6,10.5S6.673,12,7.5,12S9,11.327,9,10.5S8.327,9,7.5,9z"/>
<path style="fill:#333333;" d="M16.5,13c-1.379,0-2.5-1.122-2.5-2.5S15.121,8,16.5,8S19,9.122,19,10.5S17.879,13,16.5,13z M16.5,9
	C15.673,9,15,9.673,15,10.5s0.673,1.5,1.5,1.5s1.5-0.673,1.5-1.5S17.327,9,16.5,9z"/>
<rect x="7.5" y="12" style="fill:#333333;" width="9" height="1"/>
<rect x="7.5" y="8" style="fill:#333333;" width="9" height="1"/>
</svg>






