<?xml version="1.0" encoding="iso-8859-1"?>
<svg version="1.1" id="&#x56FE;&#x5C42;_1" xmlns="http://www.w3.org/2000/svg" xmlns:xlink="http://www.w3.org/1999/xlink" x="0px"
	 y="0px" viewBox="0 0 24 24" style="enable-background:new 0 0 24 24;" xml:space="preserve">
<path style="fill:#333333;" d="M12,22.5c-3.309,0-6-2.691-6-6V7h1v9.5c0,2.757,2.243,5,5,5s5-2.243,5-5V2h1v14.5
	C18,19.809,15.309,22.5,12,22.5z"/>
<polygon style="fill:#333333;" points="19.646,4.854 17.5,2.707 15.354,4.854 14.646,4.146 17.5,1.293 20.354,4.146 "/>
<path style="fill:#333333;" d="M6.5,7.5c-1.654,0-3-1.346-3-3s1.346-3,3-3s3,1.346,3,3S8.154,7.5,6.5,7.5z M6.5,2.5
	c-1.103,0-2,0.897-2,2s0.897,2,2,2s2-0.897,2-2S7.603,2.5,6.5,2.5z"/>
</svg>






