<?xml version="1.0" encoding="iso-8859-1"?>
<svg version="1.1" id="&#x56FE;&#x5C42;_1" xmlns="http://www.w3.org/2000/svg" xmlns:xlink="http://www.w3.org/1999/xlink" x="0px"
	 y="0px" viewBox="0 0 24 24" style="enable-background:new 0 0 24 24;" xml:space="preserve">
<path style="fill:#333333;" d="M16.5,18H2v-1h14.5c2.757,0,5-2.243,5-5s-2.243-5-5-5H7V6h9.5c3.309,0,6,2.691,6,6S19.809,18,16.5,18
	z"/>
<polygon style="fill:#333333;" points="4.146,20.354 1.293,17.5 4.146,14.646 4.854,15.354 2.707,17.5 4.854,19.646 "/>
<path style="fill:#333333;" d="M4.5,9.5c-1.654,0-3-1.346-3-3s1.346-3,3-3s3,1.346,3,3S6.154,9.5,4.5,9.5z M4.5,4.5
	c-1.103,0-2,0.897-2,2s0.897,2,2,2s2-0.897,2-2S5.603,4.5,4.5,4.5z"/>
</svg>






