<?xml version="1.0" encoding="iso-8859-1"?>
<svg version="1.1" id="&#x56FE;&#x5C42;_1" xmlns="http://www.w3.org/2000/svg" xmlns:xlink="http://www.w3.org/1999/xlink" x="0px"
	 y="0px" viewBox="0 0 24 24" style="enable-background:new 0 0 24 24;" xml:space="preserve">
<path style="fill:#333333;" d="M7,22H6V7.5c0-3.309,2.691-6,6-6s6,2.691,6,6V17h-1V7.5c0-2.757-2.243-5-5-5s-5,2.243-5,5V22z"/>
<polygon style="fill:#333333;" points="6.5,22.707 3.646,19.854 4.354,19.146 6.5,21.293 8.646,19.146 9.354,19.854 "/>
<path style="fill:#333333;" d="M17.5,22.5c-1.654,0-3-1.346-3-3s1.346-3,3-3s3,1.346,3,3S19.154,22.5,17.5,22.5z M17.5,17.5
	c-1.103,0-2,0.897-2,2s0.897,2,2,2s2-0.897,2-2S18.603,17.5,17.5,17.5z"/>
</svg>






