<?xml version="1.0" encoding="iso-8859-1"?>
<svg version="1.1" id="&#x56FE;&#x5C42;_1" xmlns="http://www.w3.org/2000/svg" xmlns:xlink="http://www.w3.org/1999/xlink" x="0px"
	 y="0px" viewBox="0 0 24 24" style="enable-background:new 0 0 24 24;" xml:space="preserve">
<path style="fill:#333333;" d="M22,18H7.5c-3.309,0-6-2.691-6-6s2.691-6,6-6H17v1H7.5c-2.757,0-5,2.243-5,5s2.243,5,5,5H22V18z"/>
<polygon style="fill:#333333;" points="19.854,20.354 19.146,19.646 21.293,17.5 19.146,15.354 19.854,14.646 22.707,17.5 "/>
<path style="fill:#333333;" d="M19.5,9.5c-1.654,0-3-1.346-3-3s1.346-3,3-3s3,1.346,3,3S21.154,9.5,19.5,9.5z M19.5,4.5
	c-1.103,0-2,0.897-2,2s0.897,2,2,2s2-0.897,2-2S20.603,4.5,19.5,4.5z"/>
</svg>






