<?xml version="1.0" encoding="iso-8859-1"?>
<svg version="1.1" id="&#x56FE;&#x5C42;_1" xmlns="http://www.w3.org/2000/svg" xmlns:xlink="http://www.w3.org/1999/xlink" x="0px"
	 y="0px" viewBox="0 0 24 24" style="enable-background:new 0 0 24 24;" xml:space="preserve">
<path style="fill:#333333;" d="M11,22.5c-5.238,0-9.5-4.262-9.5-9.5S5.762,3.5,11,3.5s9.5,4.262,9.5,9.5S16.238,22.5,11,22.5z
	 M11,4.5c-4.687,0-8.5,3.813-8.5,8.5c0,4.687,3.813,8.5,8.5,8.5c4.687,0,8.5-3.813,8.5-8.5C19.5,8.313,15.687,4.5,11,4.5z"/>
<path style="fill:#333333;" d="M20.5,5.5c-1.103,0-2-0.897-2-2s0.897-2,2-2s2,0.897,2,2S21.603,5.5,20.5,5.5z M20.5,2.5
	c-0.552,0-1,0.449-1,1s0.448,1,1,1s1-0.449,1-1S21.052,2.5,20.5,2.5z"/>
</svg>






