<?xml version="1.0" encoding="iso-8859-1"?>
<svg version="1.1" id="&#x56FE;&#x5C42;_1" xmlns="http://www.w3.org/2000/svg" xmlns:xlink="http://www.w3.org/1999/xlink" x="0px"
	 y="0px" viewBox="0 0 24 24" style="enable-background:new 0 0 24 24;" xml:space="preserve">
<path style="fill:#333333;" d="M11.5,22.5c-1.834,0-2.5-1.981-2.5-3.312h1c0,0.023,0.041,2.312,1.5,2.312
	c1.392,0,1.5-2.248,1.5-2.938V12h1v6.562C14,21.028,13.065,22.5,11.5,22.5z"/>
<path style="fill:#333333;" d="M22.549,12.5H1.451l0.051-0.547C1.841,8.338,4.471,1.5,12,1.5c7.528,0,10.159,6.838,10.498,10.453
	L22.549,12.5z M2.564,11.5h18.871c-0.507-3.398-2.987-9-9.436-9S3.072,8.102,2.564,11.5z"/>
<polygon style="fill:#333333;" points="11.528,9.735 9.146,7.354 9.854,6.646 11.472,8.265 14.12,5.175 14.88,5.825 "/>
</svg>






