<?xml version="1.0" encoding="iso-8859-1"?>
<svg version="1.1" id="&#x56FE;&#x5C42;_1" xmlns="http://www.w3.org/2000/svg" xmlns:xlink="http://www.w3.org/1999/xlink" x="0px"
	 y="0px" viewBox="0 0 24 24" style="enable-background:new 0 0 24 24;" xml:space="preserve">
<path style="fill:#333333;" d="M22.5,12.5h-21V12C1.5,6.21,6.21,1.5,12,1.5c5.79,0,10.5,4.71,10.5,10.5V12.5z M2.513,11.5h18.974
	c-0.262-5.007-4.417-9-9.487-9S2.774,6.493,2.513,11.5z"/>
<path style="fill:#333333;" d="M14.75,22.506c-1.792,0-3.25-1.449-3.25-3.229V12h1v7.276c0,1.229,1.01,2.229,2.25,2.229
	s2.25-1,2.25-2.229h1C18,21.057,16.542,22.506,14.75,22.506z"/>
</svg>






