<?xml version="1.0" encoding="iso-8859-1"?>
<svg version="1.1" id="&#x56FE;&#x5C42;_1" xmlns="http://www.w3.org/2000/svg" xmlns:xlink="http://www.w3.org/1999/xlink" x="0px"
	 y="0px" viewBox="0 0 24 24" style="enable-background:new 0 0 24 24;" xml:space="preserve">
<path style="fill:#333333;" d="M8.39,14.181L8.039,13.88c-1.724-1.478-2.53-1.698-2.857-1.698c-0.327,0-1.132,0.221-2.856,1.698
	L1.5,13.5C1.5,7.71,6.21,3,12,3c5.79,0,10.5,4.71,10.5,10.5l-0.825,0.38c-1.724-1.478-2.529-1.698-2.856-1.698
	s-1.133,0.221-2.856,1.698l-0.352,0.301l-0.327-0.327c-2.222-2.219-4.348-2.219-6.566,0L8.39,14.181z M12,11.182
	c1.229,0,2.458,0.554,3.658,1.647c1.365-1.122,2.376-1.647,3.16-1.647c0.677,0,1.522,0.391,2.618,1.22C20.891,7.678,16.867,4,12,4
	c-4.867,0-8.891,3.678-9.437,8.401c1.097-0.829,1.942-1.22,2.619-1.22c0.785,0,1.795,0.525,3.161,1.647
	C9.542,11.735,10.77,11.182,12,11.182z"/>
<path style="fill:#333333;" d="M14.75,22.506c-1.792,0-3.25-1.449-3.25-3.229V12h1v7.276c0,1.229,1.01,2.229,2.25,2.229
	s2.25-1,2.25-2.229h1C18,21.057,16.542,22.506,14.75,22.506z"/>
<rect x="11.5" y="1.5" style="fill:#333333;" width="1" height="2"/>
</svg>






