<?xml version="1.0" encoding="iso-8859-1"?>
<svg version="1.1" id="&#x56FE;&#x5C42;_1" xmlns="http://www.w3.org/2000/svg" xmlns:xlink="http://www.w3.org/1999/xlink" x="0px"
	 y="0px" viewBox="0 0 24 24" style="enable-background:new 0 0 24 24;" xml:space="preserve">
<path style="fill:#333333;" d="M6.136,6.136H1.5V1.5h4.636V6.136z M2.5,5.136h2.636V2.5H2.5V5.136z"/>
<path style="fill:#333333;" d="M22.5,22.5h-4.637v-4.637H22.5V22.5z M18.863,21.5H21.5v-2.637h-2.637V21.5z"/>
<path style="fill:#333333;" d="M6.136,16.137H1.5V11.5h4.636V16.137z M2.5,15.137h2.636V12.5H2.5V15.137z"/>
<path style="fill:#333333;" d="M12.5,22.5H7.864v-4.637H12.5V22.5z M8.864,21.5H11.5v-2.637H8.864V21.5z"/>
<path style="fill:#333333;" d="M16.137,6.136H11.5V1.5h4.637V6.136z M12.5,5.136h2.637V2.5H12.5V5.136z"/>
<path style="fill:#333333;" d="M22.5,12.5h-4.637V7.864H22.5V12.5z M18.863,11.5H21.5V8.864h-2.637V11.5z"/>
<rect x="5.636" y="3.318" style="fill:#333333;" width="6.364" height="1"/>
<rect x="12" y="19.682" style="fill:#333333;" width="6.363" height="1"/>
<polygon style="fill:#333333;" points="14.318,14.318 5.636,14.318 5.636,13.318 13.318,13.318 13.318,5.636 14.318,5.636 "/>
<path style="fill:#333333;" d="M10.682,18.363h-1v-4.549h1V18.363z M18.363,10.682h-3.949v-1h3.949V10.682z"/>
<rect x="3.318" y="5.636" style="fill:#333333;" width="1" height="6.364"/>
<rect x="19.682" y="12" style="fill:#333333;" width="1" height="6.363"/>
</svg>






