<?xml version="1.0" encoding="iso-8859-1"?>
<svg version="1.1" id="&#x56FE;&#x5C42;_1" xmlns="http://www.w3.org/2000/svg" xmlns:xlink="http://www.w3.org/1999/xlink" x="0px"
	 y="0px" viewBox="0 0 24 24" style="enable-background:new 0 0 24 24;" xml:space="preserve">
<path style="fill:#333333;" d="M12,19.5c-4.136,0-7.5-3.364-7.5-7.5S7.864,4.5,12,4.5s7.5,3.364,7.5,7.5S16.136,19.5,12,19.5z
	 M12,5.5c-3.584,0-6.5,2.916-6.5,6.5s2.916,6.5,6.5,6.5s6.5-2.916,6.5-6.5S15.584,5.5,12,5.5z"/>
<path style="fill:#333333;" d="M6.829,15.279c-0.531,0-1.072-0.132-1.521-0.317l0.383-0.924c0.585,0.241,1.617,0.417,2.058-0.098
	c0.194-0.227,0.214-0.567,0.235-0.928c0.029-0.503,0.065-1.128,0.665-1.465c0.627-0.351,1.172,0.02,1.57,0.291
	c0.398,0.271,0.772,0.527,1.337,0.427C12.68,12.064,13.5,10.327,13.5,9.5c0-0.32-0.115-0.448-0.324-0.68
	c-0.233-0.259-0.553-0.613-0.594-1.261C12.485,6.03,13.65,5.137,13.7,5.1l0.6,0.8c-0.029,0.023-0.782,0.615-0.72,1.596
	c0.019,0.3,0.139,0.434,0.338,0.654C14.164,8.422,14.5,8.795,14.5,9.5c0,1.104-0.977,3.429-2.766,3.75
	c-0.964,0.176-1.609-0.266-2.078-0.585C9.312,12.43,9.209,12.381,9.14,12.42c-0.11,0.062-0.134,0.255-0.157,0.65
	c-0.027,0.463-0.061,1.038-0.474,1.521C8.079,15.093,7.461,15.279,6.829,15.279z"/>
<path style="fill:#333333;" d="M13.68,18.884l-0.15-0.124C13.023,18.345,12.5,17.915,12.5,17c0-0.794,0.475-0.996,0.759-1.117
	c0.142-0.062,0.265-0.113,0.388-0.236c0.133-0.133,0.183-0.41,0.231-0.678c0.075-0.412,0.168-0.926,0.648-1.166
	c0.804-0.402,2.608,0.351,3.789,1.31l-0.631,0.775c-1.15-0.935-2.448-1.28-2.717-1.188c-0.032,0.045-0.078,0.298-0.105,0.448
	c-0.069,0.38-0.155,0.853-0.509,1.206c-0.259,0.26-0.516,0.369-0.702,0.448c-0.051,0.021-0.118,0.051-0.146,0.068
	C13.509,16.876,13.5,16.917,13.5,17c0,0.425,0.191,0.6,0.664,0.987l0.156,0.129L13.68,18.884z"/>
<circle style="fill:#333333;" cx="12" cy="2" r="1"/>
<circle style="fill:#333333;" cx="12" cy="22" r="1"/>
<circle style="fill:#333333;" cx="22" cy="12" r="1"/>
<circle style="fill:#333333;" cx="19" cy="5" r="1"/>
<circle style="fill:#333333;" cx="5" cy="19" r="1"/>
<circle style="fill:#333333;" cx="2" cy="12" r="1"/>
<circle style="fill:#333333;" cx="5" cy="5" r="1"/>
<circle style="fill:#333333;" cx="19" cy="19" r="1"/>
<path style="fill:#333333;" d="M6.643,17.249C5.261,15.839,4.5,13.975,4.5,12h1c0,1.712,0.66,3.327,1.857,4.55L6.643,17.249z"/>
<path style="fill:#333333;" d="M12,19.5v-1c3.584,0,6.5-2.916,6.5-6.5h1C19.5,16.136,16.136,19.5,12,19.5z"/>
<path style="fill:#333333;" d="M16.55,7.357C15.327,6.16,13.712,5.5,12,5.5v-1c1.975,0,3.839,0.761,5.249,2.143L16.55,7.357z"/>
</svg>






