<?xml version="1.0" encoding="iso-8859-1"?>
<svg version="1.1" id="&#x56FE;&#x5C42;_1" xmlns="http://www.w3.org/2000/svg" xmlns:xlink="http://www.w3.org/1999/xlink" x="0px"
	 y="0px" viewBox="0 0 24 24" style="enable-background:new 0 0 24 24;" xml:space="preserve">
<path style="fill:#333333;" d="M12,21.69l-0.158-0.053C8.13,20.404,1.5,15.293,1.5,9.5c0-3.309,2.691-6,6-6
	c1.729,0,3.368,0.749,4.5,2.031C13.133,4.249,14.771,3.5,16.5,3.5c3.309,0,6,2.691,6,6h-1c0-2.757-2.243-5-5-5
	c-1.625,0-3.154,0.794-4.091,2.125L12,7.206l-0.409-0.581C10.655,5.294,9.125,4.5,7.5,4.5c-2.757,0-5,2.243-5,5
	c0,5.158,6.095,9.92,9.5,11.134c0.535-0.19,1.141-0.473,1.761-0.82l0.488,0.873c-0.736,0.412-1.46,0.741-2.092,0.951L12,21.69z"/>
<rect x="18.699" y="12.891" transform="matrix(0.7773 -0.6291 0.6291 0.7773 -5.5545 15.5571)" style="fill:#333333;" width="1" height="5.467"/>
<rect x="16.466" y="15.125" transform="matrix(0.629 -0.7774 0.7774 0.629 -5.0239 20.7233)" style="fill:#333333;" width="5.467" height="1"/>
</svg>






