<?xml version="1.0" encoding="iso-8859-1"?>
<svg version="1.1" id="&#x56FE;&#x5C42;_1" xmlns="http://www.w3.org/2000/svg" xmlns:xlink="http://www.w3.org/1999/xlink" x="0px"
	 y="0px" viewBox="0 0 24 24" style="enable-background:new 0 0 24 24;" xml:space="preserve">
<path style="fill:#333333;" d="M7.621,13.341L3.732,9.452c-1.625-1.625-1.673-4.22-0.107-5.786c0.761-0.761,1.757-1.162,2.881-1.145
	c1.089,0.023,2.12,0.468,2.904,1.252L13.3,7.662l-0.707,0.707L8.704,4.48C8.103,3.879,7.315,3.539,6.485,3.521
	C5.664,3.51,4.899,3.807,4.332,4.373C3.156,5.549,3.204,7.51,4.439,8.745l3.889,3.889L7.621,13.341z"/>
<path style="fill:#333333;" d="M17.483,21.534c-1.052,0-2.106-0.43-2.962-1.284l-3.889-3.89l0.707-0.707l3.889,3.89
	c1.269,1.266,3.11,1.309,4.381,0.099c0.578-0.553,0.889-1.248,0.897-2.013c0.01-0.841-0.359-1.697-1.014-2.351l-3.889-3.89
	l0.707-0.707l3.889,3.89c0.843,0.843,1.319,1.961,1.307,3.068c-0.012,1.026-0.44,1.993-1.208,2.725
	C19.48,21.146,18.483,21.534,17.483,21.534z"/>
<rect x="9.147" y="8.191" transform="matrix(0.7072 -0.707 0.707 0.7072 -3.9384 9.6215)" style="fill:#333333;" width="1" height="2.75"/>
<rect x="13.684" y="12.728" transform="matrix(0.7071 -0.7071 0.7071 0.7071 -5.8179 14.1603)" style="fill:#333333;" width="1" height="2.75"/>
</svg>






