<?xml version="1.0" encoding="iso-8859-1"?>
<svg version="1.1" id="&#x56FE;&#x5C42;_1" xmlns="http://www.w3.org/2000/svg" xmlns:xlink="http://www.w3.org/1999/xlink" x="0px"
	 y="0px" viewBox="0 0 24 24" style="enable-background:new 0 0 24 24;" xml:space="preserve">
<rect x="3.5" y="9" style="fill:#333333;" width="1" height="4.5"/>
<rect x="2.5" y="13" style="fill:#333333;" width="3" height="1"/>
<rect x="2.5" y="5.5" style="fill:#333333;" width="3" height="1"/>
<path style="fill:#333333;" d="M2.748,6.434L2.251,5.566C3.083,5.09,4.472,4.038,4.66,3.242c0.042-0.179,0.019-0.322-0.076-0.464
	C4.401,2.503,4.202,2.359,3.976,2.336C3.531,2.296,3.001,2.705,2.854,2.854L2.146,2.146c0.093-0.092,0.928-0.899,1.928-0.805
	c0.369,0.037,0.9,0.219,1.342,0.881c0.247,0.371,0.322,0.803,0.217,1.25C5.285,4.948,3.007,6.286,2.748,6.434z"/>
<path style="fill:#333333;" d="M3.974,22.092c-0.354,0-0.703-0.094-1.034-0.282c-0.525-0.301-0.823-0.733-0.855-0.782l0.832-0.555
	c0.122,0.178,0.788,1.041,1.807,0.361c0.284-0.189,0.433-0.386,0.443-0.586c0.02-0.364-0.378-0.774-0.486-0.864L4.219,19
	l0.461-0.384c0.131-0.112,0.507-0.514,0.486-0.866c-0.012-0.199-0.161-0.396-0.443-0.584c-1.054-0.703-1.732,0.251-1.807,0.361
	l-0.832-0.555c0.032-0.049,0.331-0.481,0.855-0.782c0.738-0.42,1.566-0.37,2.338,0.144c0.698,0.465,0.868,0.999,0.887,1.364
	C6.194,18.234,5.93,18.695,5.688,19c0.242,0.305,0.506,0.766,0.477,1.302c-0.02,0.365-0.189,0.899-0.887,1.364
	C4.853,21.949,4.409,22.092,3.974,22.092z"/>
<rect x="4" y="18.5" style="fill:#333333;" width="1" height="1"/>
<rect x="2.349" y="9" transform="matrix(0.8321 -0.5547 0.5547 0.8321 -4.7238 3.3983)" style="fill:#333333;" width="1.803" height="1"/>
<rect x="10" y="11.5" style="fill:#333333;" width="11" height="1"/>
<rect x="10" y="18.5" style="fill:#333333;" width="11" height="1"/>
<rect x="10" y="4.5" style="fill:#333333;" width="11" height="1"/>
</svg>






