<?xml version="1.0" encoding="iso-8859-1"?>
<svg version="1.1" id="&#x56FE;&#x5C42;_1" xmlns="http://www.w3.org/2000/svg" xmlns:xlink="http://www.w3.org/1999/xlink" x="0px"
	 y="0px" viewBox="0 0 24 24" style="enable-background:new 0 0 24 24;" xml:space="preserve">
<path style="fill:#333333;" d="M22.5,22.5h-17v-5h4v-4h4v-4h4v-4h5V22.5z M6.5,21.5h15v-15h-3v4h-4v4h-4v4h-4V21.5z"/>
<rect x="8.068" y="3.75" transform="matrix(0.7071 -0.7071 0.7071 0.7071 0.2898 9.1997)" style="fill:#333333;" width="6.364" height="1"/>
<polygon style="fill:#333333;" points="14,5 13,5 13,2.5 10.5,2.5 10.5,1.5 14,1.5 "/>
<polygon style="fill:#333333;" points="5,14 1.5,14 1.5,10.5 2.5,10.5 2.5,13 5,13 "/>
<rect x="1.068" y="10.75" transform="matrix(0.7071 -0.7071 0.7071 0.7071 -6.7102 6.3003)" style="fill:#333333;" width="6.364" height="1"/>
</svg>






