<?xml version="1.0" encoding="iso-8859-1"?>
<svg version="1.1" id="&#x56FE;&#x5C42;_1" xmlns="http://www.w3.org/2000/svg" xmlns:xlink="http://www.w3.org/1999/xlink" x="0px"
	 y="0px" viewBox="0 0 24 24" style="enable-background:new 0 0 24 24;" xml:space="preserve">
<path style="fill:#333333;" d="M12,22.5C6.21,22.5,1.5,17.79,1.5,12C1.5,6.21,6.21,1.5,12,1.5c5.79,0,10.5,4.71,10.5,10.5
	C22.5,17.79,17.79,22.5,12,22.5z M12,2.5c-5.238,0-9.5,4.262-9.5,9.5s4.262,9.5,9.5,9.5s9.5-4.262,9.5-9.5S17.238,2.5,12,2.5z"/>
<path style="fill:#333333;" d="M12,17.5c-1.701,0-3.251-0.768-4.271-2.026V16.5h-1v-3l0.977-0.149C8.298,15.234,10.023,16.5,12,16.5
	s3.702-1.266,4.295-3.15l0.953,0.301C16.524,15.953,14.415,17.5,12,17.5z"/>
<path style="fill:#333333;" d="M16.295,10.65C15.702,8.766,13.977,7.5,12,7.5s-3.702,1.266-4.294,3.15l-0.954-0.3
	C7.476,8.047,9.584,6.5,12,6.5c1.701,0,3.251,0.768,4.271,2.027V7.5h1v3L16.295,10.65z"/>
</svg>






