<?xml version="1.0" encoding="iso-8859-1"?>
<svg version="1.1" id="&#x56FE;&#x5C42;_1" xmlns="http://www.w3.org/2000/svg" xmlns:xlink="http://www.w3.org/1999/xlink" x="0px"
	 y="0px" viewBox="0 0 24 24" style="enable-background:new 0 0 24 24;" xml:space="preserve">
<path style="fill:#333333;" d="M19.5,17.5h-15c-1.103,0-2-0.897-2-2v-11c0-1.103,0.897-2,2-2h8v1h-8c-0.551,0-1,0.449-1,1v11
	c0,0.552,0.449,1,1,1h15c0.552,0,1-0.448,1-1V12h1v3.5C21.5,16.603,20.603,17.5,19.5,17.5z"/>
<rect x="11.5" y="17" style="fill:#333333;" width="1" height="4"/>
<rect x="7" y="20.5" style="fill:#333333;" width="10" height="1"/>
<rect x="18" y="3" style="fill:#333333;" width="1" height="6"/>
<polygon style="fill:#333333;" points="20.646,5.854 18.5,3.707 16.354,5.854 15.646,5.146 18.5,2.293 21.354,5.146 "/>
</svg>






