<?xml version="1.0" encoding="iso-8859-1"?>
<svg version="1.1" id="&#x56FE;&#x5C42;_1" xmlns="http://www.w3.org/2000/svg" xmlns:xlink="http://www.w3.org/1999/xlink" x="0px"
	 y="0px" viewBox="0 0 24 24" style="enable-background:new 0 0 24 24;" xml:space="preserve">
<path style="fill:#333333;" d="M18.669,17H5.332c-0.694,0-1.328-0.352-1.696-0.94l-1.832-2.93C1.605,12.811,1.5,12.443,1.5,12.069V9
	c0-1.103,0.897-2,2-2h17c1.103,0,2,0.897,2,2v3.069c0,0.374-0.104,0.74-0.303,1.06l-1.833,2.931C19.996,16.648,19.362,17,18.669,17z
	 M3.5,8c-0.551,0-1,0.449-1,1v3.069c0,0.188,0.053,0.371,0.152,0.531l1.831,2.93C4.667,15.824,4.984,16,5.332,16h13.337
	c0.347,0,0.663-0.176,0.848-0.471l1.832-2.929c0.099-0.159,0.151-0.344,0.151-0.531V9c0-0.551-0.448-1-1-1H3.5z"/>
<path style="fill:#333333;" d="M19,12H5V7h14V12z M6,11h12V8H6V11z"/>
<rect x="10" y="10.5" style="fill:#333333;" width="1" height="1"/>
<rect x="13" y="10.5" style="fill:#333333;" width="1" height="1"/>
<rect x="15.5" y="10.5" style="fill:#333333;" width="1" height="1"/>
<rect x="7.5" y="10.5" style="fill:#333333;" width="1" height="1"/>
<rect x="4" y="7" style="fill:#333333;" width="16" height="1"/>
</svg>






