<?xml version="1.0" encoding="iso-8859-1"?>
<svg version="1.1" id="&#x56FE;&#x5C42;_1" xmlns="http://www.w3.org/2000/svg" xmlns:xlink="http://www.w3.org/1999/xlink" x="0px"
	 y="0px" viewBox="0 0 24 24" style="enable-background:new 0 0 24 24;" xml:space="preserve">
<path style="fill:#333333;" d="M20.5,17h-17c-1.103,0-2-0.897-2-2V9c0-1.103,0.897-2,2-2h17c1.103,0,2,0.897,2,2v6
	C22.5,16.103,21.603,17,20.5,17z M3.5,8c-0.551,0-1,0.449-1,1v6c0,0.552,0.449,1,1,1h17c0.552,0,1-0.448,1-1V9c0-0.551-0.448-1-1-1
	H3.5z"/>
<path style="fill:#333333;" d="M19,12H5V7h14V12z M6,11h12V8H6V11z"/>
<rect x="10" y="10.5" style="fill:#333333;" width="1" height="1"/>
<rect x="13" y="10.5" style="fill:#333333;" width="1" height="1"/>
<rect x="15.5" y="10.5" style="fill:#333333;" width="1" height="1"/>
<rect x="7.5" y="10.5" style="fill:#333333;" width="1" height="1"/>
<rect x="4" y="7" style="fill:#333333;" width="16" height="1"/>
</svg>






