<?xml version="1.0" encoding="iso-8859-1"?>
<svg version="1.1" id="&#x56FE;&#x5C42;_1" xmlns="http://www.w3.org/2000/svg" xmlns:xlink="http://www.w3.org/1999/xlink" x="0px"
	 y="0px" viewBox="0 0 24 24" style="enable-background:new 0 0 24 24;" xml:space="preserve">
<path style="fill:#333333;" d="M6,11.5c-1.378,0-2.5-1.122-2.5-2.5S4.622,6.5,6,6.5S8.5,7.622,8.5,9S7.378,11.5,6,11.5z M6,7.5
	C5.173,7.5,4.5,8.173,4.5,9s0.673,1.5,1.5,1.5S7.5,9.827,7.5,9S6.827,7.5,6,7.5z"/>
<path style="fill:#333333;" d="M18,14.5c-1.379,0-2.5-1.121-2.5-2.5c0-1.378,1.121-2.5,2.5-2.5s2.5,1.122,2.5,2.5
	C20.5,13.379,19.379,14.5,18,14.5z M18,10.5c-0.827,0-1.5,0.673-1.5,1.5s0.673,1.5,1.5,1.5s1.5-0.673,1.5-1.5S18.827,10.5,18,10.5z"
	/>
<polygon style="fill:#333333;" points="14.146,4.854 12,2.707 9.854,4.854 9.146,4.146 12,1.293 14.854,4.146 "/>
<polygon style="fill:#333333;" points="12.182,19.886 5.5,14.367 5.5,11 6.5,11 6.5,13.896 12.818,19.114 "/>
<polygon style="fill:#333333;" points="12.282,20.913 11.718,20.087 17.5,16.131 17.5,14 18.5,14 18.5,16.658 "/>
<rect x="11.5" y="2" style="fill:#333333;" width="1" height="19.5"/>
<rect x="10.5" y="21.5" style="fill:#333333;" width="3" height="1"/>
</svg>






