<?xml version="1.0" encoding="iso-8859-1"?>
<svg version="1.1" id="&#x56FE;&#x5C42;_1" xmlns="http://www.w3.org/2000/svg" xmlns:xlink="http://www.w3.org/1999/xlink" x="0px"
	 y="0px" viewBox="0 0 24 24" style="enable-background:new 0 0 24 24;" xml:space="preserve">
<path style="fill:#333333;" d="M12,11.5c-1.93,0-3.5-1.57-3.5-3.5s1.57-3.5,3.5-3.5s3.5,1.57,3.5,3.5S13.93,11.5,12,11.5z M12,5.5
	c-1.378,0-2.5,1.122-2.5,2.5s1.122,2.5,2.5,2.5c1.379,0,2.5-1.122,2.5-2.5S13.379,5.5,12,5.5z"/>
<path style="fill:#333333;" d="M18.5,18h-1c0-3.032-2.468-5.5-5.5-5.5c-3.033,0-5.5,2.468-5.5,5.5h-1c0-3.584,2.916-6.5,6.5-6.5
	S18.5,14.416,18.5,18z"/>
<polygon style="fill:#333333;" points="22.5,6 21.5,6 21.5,2.5 18,2.5 18,1.5 22.5,1.5 "/>
<polygon style="fill:#333333;" points="2.5,6 1.5,6 1.5,1.5 6,1.5 6,2.5 2.5,2.5 "/>
<polygon style="fill:#333333;" points="22.5,22.5 18,22.5 18,21.5 21.5,21.5 21.5,18 22.5,18 "/>
<polygon style="fill:#333333;" points="6,22.5 1.5,22.5 1.5,18 2.5,18 2.5,21.5 6,21.5 "/>
</svg>






