<?xml version="1.0" encoding="iso-8859-1"?>
<svg version="1.1" id="&#x56FE;&#x5C42;_1" xmlns="http://www.w3.org/2000/svg" xmlns:xlink="http://www.w3.org/1999/xlink" x="0px"
	 y="0px" viewBox="0 0 24 24" style="enable-background:new 0 0 24 24;" xml:space="preserve">
<path style="fill:#333333;" d="M7,9.5c-2.206,0-4-1.794-4-4s1.794-4,4-4s4,1.794,4,4S9.206,9.5,7,9.5z M7,2.5c-1.654,0-3,1.346-3,3
	s1.346,3,3,3s3-1.346,3-3S8.654,2.5,7,2.5z"/>
<path style="fill:#333333;" d="M17,9.5c-2.206,0-4-1.794-4-4s1.794-4,4-4s4,1.794,4,4S19.206,9.5,17,9.5z M17,2.5
	c-1.654,0-3,1.346-3,3s1.346,3,3,3s3-1.346,3-3S18.654,2.5,17,2.5z"/>
<path style="fill:#333333;" d="M2.5,22h-1v-4.5c0-3.032,2.113-5.5,4.71-5.5h2.526c2.298,0,3.635,2.162,3.691,2.255l-0.854,0.52
	C11.562,14.756,10.465,13,8.737,13H6.21c-2.046,0-3.71,2.019-3.71,4.5V22z"/>
<path style="fill:#333333;" d="M22.5,22h-1v-4.5c0-2.481-1.688-4.5-3.761-4.5h-2.557c-1.661,0-2.737,1.743-2.748,1.761l-0.426-0.252
	L12,14.514h-0.5c0-0.325,1.442-2.514,3.683-2.514h2.557c2.625,0,4.761,2.468,4.761,5.5V22z"/>
<rect x="5.5" y="19.5" style="fill:#333333;" width="13.5" height="1"/>
<polygon style="fill:#333333;" points="17.507,22.269 16.788,21.573 18.307,20.005 16.793,18.481 17.502,17.776 19.707,19.995 "/>
<polygon style="fill:#333333;" points="6.809,22.26 4.57,19.993 6.812,17.762 7.518,18.471 5.982,19.999 7.521,21.557 "/>
</svg>






