<?xml version="1.0" encoding="iso-8859-1"?>
<svg version="1.1" id="&#x56FE;&#x5C42;_1" xmlns="http://www.w3.org/2000/svg" xmlns:xlink="http://www.w3.org/1999/xlink" x="0px"
	 y="0px" viewBox="0 0 24 24" style="enable-background:new 0 0 24 24;" xml:space="preserve">
<path style="fill:#333333;" d="M12.25,15.25c-2.821,0-3.606-3.403-4.237-6.138C7.5,6.889,7.712,5.106,8.626,3.957
	C9.396,2.99,10.615,2.5,12.25,2.5c1.484,0,2.616,0.442,3.365,1.315c0.95,1.108,1.246,2.878,0.879,5.261
	C15.864,13.173,14.437,15.25,12.25,15.25z M12.25,3.5c-1.315,0-2.271,0.363-2.841,1.08c-0.907,1.14-0.73,2.972-0.421,4.308
	c0.821,3.557,1.551,5.362,3.263,5.362c2.015,0,2.883-2.896,3.256-5.326l0,0c0.32-2.082,0.102-3.581-0.65-4.458
	C14.306,3.825,13.429,3.5,12.25,3.5z"/>
<path style="fill:#333333;" d="M19.982,13.211c-0.189,0-0.385-0.026-0.583-0.08c-0.785-0.211-1.326-0.711-1.523-1.406
	c-0.225-0.79,0.04-1.79,0.644-2.433c0.76-0.81,1.927-1.183,2.961-1.002c-0.111-1.771-0.7-2.452-2.092-2.539
	c-1.273-0.081-2.036,0.155-2.798,0.865l-0.682-0.731c0.965-0.9,1.988-1.228,3.542-1.131c2.554,0.159,3.004,2.114,3.045,3.914
	L22.5,8.668v0.31c0,1.753-0.503,3.186-1.347,3.833C20.807,13.076,20.408,13.211,19.982,13.211z M20.958,9.244
	c-0.615,0-1.269,0.262-1.71,0.732c-0.362,0.387-0.539,1.021-0.41,1.475c0.101,0.354,0.377,0.594,0.821,0.714
	c0.344,0.092,0.634,0.044,0.886-0.149c0.533-0.409,0.893-1.448,0.947-2.701C21.322,9.268,21.142,9.244,20.958,9.244z"/>
<path style="fill:#333333;" d="M4.513,13.211c-0.469,0-0.94-0.164-1.367-0.482C2.146,11.981,1.5,10.519,1.5,9l0.007-0.3
	c0.105-2.303,1.427-3.805,3.502-3.947c1.155-0.077,2.477-0.083,3.569,0.87L7.921,6.377c-0.729-0.636-1.595-0.71-2.844-0.625
	c-1.41,0.096-2.324,1.036-2.532,2.555c1.167-0.191,2.696,0.217,3.366,1.004c0.567,0.664,0.798,1.682,0.563,2.476
	c-0.195,0.657-0.688,1.134-1.388,1.342C4.897,13.184,4.706,13.211,4.513,13.211z M2.513,9.332c0.082,1.076,0.557,2.091,1.232,2.595
	c0.354,0.264,0.708,0.346,1.058,0.242c0.38-0.112,0.614-0.331,0.713-0.667c0.16-0.537-0.069-1.195-0.365-1.542
	C4.681,9.408,3.318,9.115,2.513,9.332z"/>
<rect x="9.5" y="13.5" style="fill:#333333;" width="1" height="8"/>
<rect x="14" y="13.5" style="fill:#333333;" width="1" height="8"/>
</svg>






