<?xml version="1.0" encoding="iso-8859-1"?>
<svg version="1.1" id="&#x56FE;&#x5C42;_1" xmlns="http://www.w3.org/2000/svg" xmlns:xlink="http://www.w3.org/1999/xlink" x="0px"
	 y="0px" viewBox="0 0 24 24" style="enable-background:new 0 0 24 24;" xml:space="preserve">
<path style="fill:#333333;" d="M5.368,12.79l-0.305-0.547c-0.798-1.431-0.531-3.005-0.248-4.123l-2.96,0.493l0.156-0.72
	C2.753,4.47,4.936,2.504,7.999,2.5c0.004,0,0.008,0,0.012,0c1.6,0,3.115,0.555,3.989,0.95C12.874,3.055,14.392,2.5,16,2.5
	c0,0,0.001,0,0.002,0c3.062,0,5.243,1.966,5.986,5.394l0.156,0.72l-2.96-0.493c0.283,1.117,0.55,2.691-0.248,4.123l-0.305,0.546
	l-0.466-0.417c-0.906-0.813-2.606-1.917-4.106-2.891c-0.765-0.497-1.494-0.97-2.06-1.367c-0.565,0.396-1.293,0.87-2.057,1.365
	c-1.501,0.975-3.202,2.079-4.109,2.893L5.368,12.79z M12,6.88l0.295,0.216c0.571,0.418,1.415,0.966,2.309,1.546
	c1.282,0.833,2.708,1.758,3.704,2.545c0.365-1.165,0.02-2.427-0.222-3.305l-0.269-1.003l3.007,0.501
	c-1.014-3.355-3.42-3.88-4.823-3.88c0,0,0,0-0.001,0c-1.553,0-3.038,0.596-3.785,0.952L12,4.554l-0.215-0.102
	C11.038,4.096,9.554,3.5,8.011,3.5c-0.003,0-0.007,0-0.01,0C6.597,3.501,4.189,4.029,3.176,7.38l3.007-0.501L5.914,7.882
	c-0.241,0.877-0.587,2.14-0.222,3.305C6.689,10.4,8.115,9.474,9.398,8.641c0.893-0.579,1.736-1.126,2.307-1.544L12,6.88z"/>
<path style="fill:#333333;" d="M11.514,18.118c-0.916-3.775-0.404-8.659-0.005-10.713l0.982,0.19
	c-0.385,1.98-0.88,6.679-0.005,10.287L11.514,18.118z"/>
<path style="fill:#333333;" d="M18,21.5H6l-0.405-0.793c1.114-1.543,3.878-3.207,6.401-3.207c0.001,0,0.003,0,0.004,0
	c2.648,0.002,3.85,0.747,6.346,3.139L18,21.5z M7.146,20.5h9.584c-1.727-1.55-2.725-1.998-4.731-2c-0.001,0-0.002,0-0.004,0
	C10.163,18.5,8.279,19.502,7.146,20.5z"/>
</svg>






