<?xml version="1.0" encoding="iso-8859-1"?>
<svg version="1.1" id="&#x56FE;&#x5C42;_1" xmlns="http://www.w3.org/2000/svg" xmlns:xlink="http://www.w3.org/1999/xlink" x="0px"
	 y="0px" viewBox="0 0 24 24" style="enable-background:new 0 0 24 24;" xml:space="preserve">
<path style="fill:#333333;" d="M19.5,17h-1V5c0-1.204-0.782-2.5-2.5-2.5S13.5,3.796,13.5,5v6.25h-1V5c0-1.739,1.202-3.5,3.5-3.5
	s3.5,1.761,3.5,3.5V17z"/>
<path style="fill:#333333;" d="M22.566,20.5h-7.133l0.5-4h6.133L22.566,20.5z M16.566,19.5h4.867l-0.25-2h-4.367L16.566,19.5z"/>
<path style="fill:#333333;" d="M12.943,20.5H5v-1h7.5v-7.873C12.5,8.249,9.751,5.5,6.373,5.5C5.064,5.5,4,6.564,4,7.873V14.5H3
	V7.873C3,6.013,4.513,4.5,6.373,4.5c3.93,0,7.127,3.197,7.127,7.127v8.816L12.943,20.5z"/>
<path style="fill:#333333;" d="M5,20.5c-1.93,0-3.5-1.57-3.5-3.5s1.57-3.5,3.5-3.5s3.5,1.57,3.5,3.5S6.93,20.5,5,20.5z M5,14.5
	c-1.378,0-2.5,1.121-2.5,2.5s1.122,2.5,2.5,2.5s2.5-1.121,2.5-2.5S6.378,14.5,5,14.5z"/>
<rect x="6.5" y="5" style="fill:#333333;" width="1" height="9.5"/>
</svg>






