<?xml version="1.0" encoding="iso-8859-1"?>
<svg version="1.1" id="&#x56FE;&#x5C42;_1" xmlns="http://www.w3.org/2000/svg" xmlns:xlink="http://www.w3.org/1999/xlink" x="0px"
	 y="0px" viewBox="0 0 24 24" style="enable-background:new 0 0 24 24;" xml:space="preserve">
<path style="fill:#333333;" d="M19.736,21.5H4.553c-0.759,0-1.399-0.568-1.49-1.322L1.703,8.736
	C1.635,8.169,1.814,7.599,2.193,7.172C2.573,6.745,3.118,6.5,3.689,6.5H5v1H3.689c-0.29,0-0.555,0.119-0.748,0.336
	c-0.193,0.217-0.28,0.495-0.246,0.782l1.36,11.441c0.03,0.251,0.244,0.44,0.497,0.44h15.184c0.259,0,0.474-0.194,0.498-0.451
	l1.108-11.453c0.027-0.284-0.062-0.557-0.255-0.769S20.633,7.5,20.348,7.5H19v-1h1.348c0.562,0,1.103,0.239,1.48,0.655
	s0.564,0.977,0.511,1.537L21.23,20.145C21.155,20.918,20.513,21.5,19.736,21.5z"/>
<rect x="2.5" y="10.5" style="fill:#333333;" width="19" height="1"/>
<rect x="7.5" y="14" style="fill:#333333;" width="9" height="1"/>
<rect x="8.5" y="17.5" style="fill:#333333;" width="7" height="1"/>
<path style="fill:#333333;" d="M16.492,11.5H7.511L7.5,10.733C7.5,6.117,9.477,2.5,12,2.5s4.5,3.617,4.5,8.233L16.492,11.5z
	 M8.502,10.5h6.996c-0.062-3.818-1.639-7-3.498-7S8.564,6.682,8.502,10.5z"/>
</svg>






