<?xml version="1.0" encoding="iso-8859-1"?>
<svg version="1.1" id="&#x56FE;&#x5C42;_1" xmlns="http://www.w3.org/2000/svg" xmlns:xlink="http://www.w3.org/1999/xlink" x="0px"
	 y="0px" viewBox="0 0 24 24" style="enable-background:new 0 0 24 24;" xml:space="preserve">
<rect x="2" y="2" style="fill:#333333;" width="20" height="1"/>
<rect x="2" y="21" style="fill:#333333;" width="20" height="1"/>
<rect x="3.5" y="18" style="fill:#333333;" width="1" height="3.5"/>
<path style="fill:#333333;" d="M6.5,18.5h-5v-5h5V18.5z M2.5,17.5h3v-3h-3V17.5z"/>
<path style="fill:#333333;" d="M14.5,14.5h-5v-5h5V14.5z M10.5,13.5h3v-3h-3V13.5z"/>
<path style="fill:#333333;" d="M22.5,10.5h-5v-5h5V10.5z M18.5,9.5h3v-3h-3V9.5z"/>
<rect x="19.5" y="10" style="fill:#333333;" width="1" height="11.5"/>
<rect x="3.5" y="6" style="fill:#333333;" width="1" height="0.5"/>
<rect x="3.5" y="10" style="fill:#333333;" width="1" height="0.5"/>
<rect x="11" y="6" style="fill:#333333;" width="1" height="0.5"/>
<rect x="11.5" y="14" style="fill:#333333;" width="1" height="7.5"/>
</svg>






