<?xml version="1.0" encoding="iso-8859-1"?>
<svg version="1.1" id="&#x56FE;&#x5C42;_1" xmlns="http://www.w3.org/2000/svg" xmlns:xlink="http://www.w3.org/1999/xlink" x="0px"
	 y="0px" viewBox="0 0 24 24" style="enable-background:new 0 0 24 24;" xml:space="preserve">
<polygon style="fill:#333333;" points="15.5,16.5 14.5,16.5 14.5,2.5 9.5,2.5 9.5,16.484 8.5,16.484 8.5,1.5 15.5,1.5 "/>
<rect x="12.5" y="6.5" style="fill:#333333;" width="2.5" height="1"/>
<rect x="12.5" y="9.5" style="fill:#333333;" width="2.5" height="1"/>
<path style="fill:#333333;" d="M12,22.5c-1.93,0-3.5-1.638-3.5-3.65v-2.853l7,0.038v2.814C15.5,20.862,13.93,22.5,12,22.5z
	 M9.5,17.003v1.847c0,1.462,1.122,2.65,2.5,2.65c1.379,0,2.5-1.188,2.5-2.65v-1.82L9.5,17.003z"/>
</svg>






