<?xml version="1.0" encoding="iso-8859-1"?>
<svg version="1.1" id="&#x56FE;&#x5C42;_1" xmlns="http://www.w3.org/2000/svg" xmlns:xlink="http://www.w3.org/1999/xlink" x="0px"
	 y="0px" viewBox="0 0 24 24" style="enable-background:new 0 0 24 24;" xml:space="preserve">
<g>
	<defs>
		<rect id="SVGID_1_" width="24" height="24"/>
	</defs>
	<clipPath id="SVGID_00000012473708345633034750000016095165155329669784_">
		<use xlink:href="#SVGID_1_"  style="overflow:visible;"/>
	</clipPath>
	<g style="clip-path:url(#SVGID_00000012473708345633034750000016095165155329669784_);">
		<path style="fill:#333333;" d="M9.496,21.559c-2.239,0-4.49-0.806-6.069-2.209C2.184,18.244,1.5,16.878,1.5,15.5
			c0-2.722,1.328-4.611,3.839-5.464c0.326-0.111,0.629-0.198,0.919-0.282c1.043-0.3,1.797-0.517,2.888-1.607
			c0.477-0.477,0.801-1.164,1.145-1.892c0.667-1.416,1.424-3.02,3.551-3.729c1.672-0.558,3.518-0.403,5.062,0.424
			c1.518,0.812,2.61,2.204,3.078,3.919c1.045,3.834-1.962,8.588-3.099,9.952c-2.266,2.72-5.067,4.293-8.325,4.676
			C10.207,21.538,9.851,21.559,9.496,21.559z M15.88,3.196c-0.58,0-1.162,0.092-1.722,0.278c-1.721,0.574-2.324,1.853-2.963,3.207
			c-0.365,0.773-0.742,1.573-1.342,2.172c-1.273,1.273-2.221,1.546-3.318,1.862c-0.275,0.079-0.564,0.162-0.875,0.268
			C3.563,11.695,2.5,13.215,2.5,15.5c0,1.088,0.565,2.189,1.591,3.103c1.623,1.442,4.059,2.17,6.351,1.901
			c2.995-0.353,5.577-1.808,7.675-4.324c1.319-1.584,3.766-5.879,2.901-9.048c-0.395-1.447-1.312-2.619-2.585-3.3
			C17.646,3.41,16.765,3.196,15.88,3.196z"/>
		<path style="fill:#333333;" d="M9.205,12.868c-1.157,0-2.457-0.577-3.599-2.038l0.788-0.616c1.504,1.924,3.222,1.97,4.261,1.164
			c1.202-0.935,1.57-2.978-0.051-5.072l0.791-0.612c2.021,2.612,1.467,5.234-0.126,6.473C10.709,12.603,9.99,12.868,9.205,12.868z"
			/>
		<path style="fill:#333333;" d="M5.661,10.983L5.34,10.036c0.326-0.111,0.629-0.198,0.919-0.282c1.043-0.3,1.797-0.517,2.887-1.607
			c0.477-0.477,0.801-1.165,1.145-1.893c0.667-1.416,1.425-3.02,3.55-3.728l0.316,0.948c-1.72,0.574-2.324,1.853-2.962,3.207
			c-0.365,0.773-0.742,1.573-1.342,2.173c-1.272,1.273-2.22,1.545-3.317,1.861C6.26,10.794,5.972,10.877,5.661,10.983z"/>
	</g>
</g>
</svg>






