<?xml version="1.0" encoding="iso-8859-1"?>
<svg version="1.1" id="&#x56FE;&#x5C42;_1" xmlns="http://www.w3.org/2000/svg" xmlns:xlink="http://www.w3.org/1999/xlink" x="0px"
	 y="0px" viewBox="0 0 24 24" style="enable-background:new 0 0 24 24;" xml:space="preserve">
<path style="fill:#333333;" d="M19,22.5H5c-0.827,0-1.5-0.673-1.5-1.5V3c0-0.827,0.673-1.5,1.5-1.5h10.5v5h5V21
	C20.5,21.827,19.827,22.5,19,22.5z M5,2.5C4.724,2.5,4.5,2.724,4.5,3v18c0,0.275,0.224,0.5,0.5,0.5h14c0.275,0,0.5-0.225,0.5-0.5
	V7.5h-5v-5H5z"/>
<rect x="17" y="0.964" transform="matrix(0.7071 -0.7071 0.7071 0.7071 1.9437 13.6924)" style="fill:#333333;" width="1" height="7.071"/>
<path style="fill:#333333;" d="M14.246,17.5H6.5V10h7.746v1.522l3.254-1.25v6.955l-3.254-1.25V17.5z M7.5,16.5h5.746v-1.978
	l3.254,1.25v-4.045l-3.254,1.25V11H7.5V16.5z"/>
</svg>






