<?xml version="1.0" encoding="iso-8859-1"?>
<svg version="1.1" id="&#x56FE;&#x5C42;_1" xmlns="http://www.w3.org/2000/svg" xmlns:xlink="http://www.w3.org/1999/xlink" x="0px"
	 y="0px" viewBox="0 0 24 24" style="enable-background:new 0 0 24 24;" xml:space="preserve">
<path style="fill:#333333;" d="M19.5,21.5h-15c-1.103,0-2-0.897-2-2v-15c0-1.103,0.897-2,2-2h15c1.103,0,2,0.897,2,2v15
	C21.5,20.603,20.603,21.5,19.5,21.5z M4.5,3.5c-0.551,0-1,0.449-1,1v15c0,0.552,0.449,1,1,1h15c0.552,0,1-0.448,1-1v-15
	c0-0.551-0.448-1-1-1H4.5z"/>
<path style="fill:#333333;" d="M10.5,17.464l-0.75-0.433v-6.062l0.75-0.433l6,3.464L10.5,17.464z M10.75,11.835v4.33L14.5,14
	L10.75,11.835z"/>
<rect x="3" y="7" style="fill:#333333;" width="18" height="1"/>
<rect x="12.296" y="4.75" transform="matrix(0.5547 -0.8321 0.8321 0.5547 2.3112 14.8186)" style="fill:#333333;" width="5.408" height="1"/>
<rect x="6.296" y="4.75" transform="matrix(0.5547 -0.8321 0.8321 0.5547 -0.3606 9.8263)" style="fill:#333333;" width="5.408" height="1"/>
</svg>






