<?xml version="1.0" encoding="iso-8859-1"?>
<svg version="1.1" id="&#x56FE;&#x5C42;_1" xmlns="http://www.w3.org/2000/svg" xmlns:xlink="http://www.w3.org/1999/xlink" x="0px"
	 y="0px" viewBox="0 0 24 24" style="enable-background:new 0 0 24 24;" xml:space="preserve">
<path style="fill:#333333;" d="M17,19H3c-0.827,0-1.5-0.673-1.5-1.5v-11C1.5,5.673,2.173,5,3,5h14c0.827,0,1.5,0.673,1.5,1.5v11
	C18.5,18.327,17.827,19,17,19z M3,6C2.724,6,2.5,6.224,2.5,6.5v11C2.5,17.775,2.724,18,3,18h14c0.275,0,0.5-0.225,0.5-0.5v-11
	C17.5,6.224,17.275,6,17,6H3z"/>
<path style="fill:#333333;" d="M10,15.5c-1.93,0-3.5-1.57-3.5-3.5S8.07,8.5,10,8.5s3.5,1.57,3.5,3.5S11.93,15.5,10,15.5z M10,9.5
	c-1.378,0-2.5,1.122-2.5,2.5c0,1.379,1.122,2.5,2.5,2.5s2.5-1.121,2.5-2.5C12.5,10.622,11.378,9.5,10,9.5z"/>
<polygon style="fill:#333333;" points="22.5,17.309 17.776,14.947 18.224,14.053 21.5,15.691 21.5,8.309 18.224,9.947 17.776,9.053 
	22.5,6.691 "/>
</svg>






