<?xml version="1.0" encoding="iso-8859-1"?>
<svg version="1.1" id="&#x56FE;&#x5C42;_1" xmlns="http://www.w3.org/2000/svg" xmlns:xlink="http://www.w3.org/1999/xlink" x="0px"
	 y="0px" viewBox="0 0 24 24" style="enable-background:new 0 0 24 24;" xml:space="preserve">
<path style="fill:#333333;" d="M3.5,8h-1V4c0-0.827,0.673-1.5,1.5-1.5h4v1H4C3.724,3.5,3.5,3.724,3.5,4V8z"/>
<path style="fill:#333333;" d="M8,21.5H4c-0.827,0-1.5-0.673-1.5-1.5v-4h1v4c0,0.275,0.224,0.5,0.5,0.5h4V21.5z"/>
<path style="fill:#333333;" d="M20,21.5h-4v-1h4c0.275,0,0.5-0.225,0.5-0.5v-4h1v4C21.5,20.827,20.827,21.5,20,21.5z"/>
<path style="fill:#333333;" d="M21.5,8h-1V4c0-0.276-0.225-0.5-0.5-0.5h-4v-1h4c0.827,0,1.5,0.673,1.5,1.5V8z"/>
<path style="fill:#333333;" d="M18,17H6V8.5h3.232l1-1.5h3.535l1,1.5H18V17z M7,16h10V9.5h-2.768l-1-1.5h-2.465l-1,1.5H7V16z"/>
<path style="fill:#333333;" d="M12,14.5c-1.103,0-2-0.897-2-2c0-1.103,0.897-2,2-2c1.103,0,2,0.897,2,2
	C14,13.603,13.103,14.5,12,14.5z M12,11.5c-0.551,0-1,0.449-1,1c0,0.552,0.449,1,1,1c0.552,0,1-0.448,1-1
	C13,11.949,12.552,11.5,12,11.5z"/>
</svg>






