<?xml version="1.0" encoding="iso-8859-1"?>
<svg version="1.1" id="&#x56FE;&#x5C42;_1" xmlns="http://www.w3.org/2000/svg" xmlns:xlink="http://www.w3.org/1999/xlink" x="0px"
	 y="0px" viewBox="0 0 24 24" style="enable-background:new 0 0 24 24;" xml:space="preserve">
<path style="fill:#333333;" d="M12,20.744c-0.287,0-0.56-0.123-0.75-0.338L1.894,9.8c-0.523-0.538-0.535-1.386-0.01-1.956
	L5.89,3.497C6.182,3.181,6.601,3,7.041,3h9.918c0.44,0,0.86,0.181,1.151,0.498l4.006,4.347c0.524,0.568,0.514,1.417-0.027,1.974
	L12.75,20.406C12.56,20.621,12.287,20.744,12,20.744z M2.619,8.522C2.458,8.697,2.461,8.949,2.628,9.121L12,19.744l9.355-10.605
	c0.184-0.189,0.187-0.441,0.025-0.616l-4.007-4.348C17.272,4.063,17.121,4,16.959,4H7.041C6.879,4,6.728,4.064,6.625,4.175
	L2.619,8.522z"/>
<polygon style="fill:#333333;" points="12,15.253 7.626,10.332 8.374,9.668 12,13.747 15.626,9.668 16.374,10.332 "/>
</svg>






