<?xml version="1.0" encoding="iso-8859-1"?>
<svg version="1.1" id="&#x56FE;&#x5C42;_1" xmlns="http://www.w3.org/2000/svg" xmlns:xlink="http://www.w3.org/1999/xlink" x="0px"
	 y="0px" viewBox="0 0 24 24" style="enable-background:new 0 0 24 24;" xml:space="preserve">
<path style="fill:#333333;" d="M12.28,21.914l-0.561-0.828c6.158-4.173,9.024-7.183,8.764-9.202C20.141,9.227,17.646,9,15.116,9
	c-0.007,0-0.013,0-0.02,0L15,8.5L15.097,8c2.067-0.008,5.894-0.002,6.379,3.756C21.798,14.253,18.962,17.386,12.28,21.914z M15,8.5
	V8V8.5z"/>
<path style="fill:#333333;" d="M8,5.5c0,0.552,0.448,1,1,1s1-0.448,1-1H8z M2,5.5c0,0.552,0.448,1,1,1s1-0.448,1-1H2z M4,5.5
	c0-1.105,0.895-2,2-2v-2c-2.209,0-4,1.791-4,4H4z M6,3.5c1.105,0,2,0.895,2,2h2c0-2.209-1.791-4-4-4V3.5z"/>
<path style="fill:#333333;" d="M14,5.5c0,0.552,0.448,1,1,1s1-0.448,1-1H14z M8,5.5c0,0.552,0.448,1,1,1s1-0.448,1-1H8z M10,5.5
	c0-1.105,0.895-2,2-2v-2c-2.209,0-4,1.791-4,4H10z M12,3.5c1.105,0,2,0.895,2,2h2c0-2.209-1.791-4-4-4V3.5z"/>
<rect x="2.5" y="5.5" style="fill:#333333;" width="1" height="9"/>
<rect x="8.5" y="5.5" style="fill:#333333;" width="1" height="9"/>
<path style="fill:#333333;" d="M21,20c-5.655,0-6.5-3.446-6.5-5.5v-9h1v9c0,2.986,1.851,4.5,5.5,4.5V20z"/>
</svg>






