<?xml version="1.0" encoding="iso-8859-1"?>
<svg version="1.1" id="&#x56FE;&#x5C42;_1" xmlns="http://www.w3.org/2000/svg" xmlns:xlink="http://www.w3.org/1999/xlink" x="0px"
	 y="0px" viewBox="0 0 24 24" style="enable-background:new 0 0 24 24;" xml:space="preserve">
<path style="fill:#333333;" d="M21.5,20.5h-6.707l-2.789-2.792L9.207,20.5H2.5c-0.551,0-1-0.448-1-1v-11c0-0.551,0.449-1,1-1h19
	c0.552,0,1,0.449,1,1v11C22.5,20.052,22.052,20.5,21.5,20.5z M15.207,19.5H21.5v-11h-19v11h6.293l3.211-3.206L15.207,19.5z M2.5,8
	L2.499,8.5c0,0,0.001,0,0.001,0V8z"/>
<path style="fill:#333333;" d="M7,16.5c-1.378,0-2.5-1.121-2.5-2.5s1.122-2.5,2.5-2.5s2.5,1.121,2.5,2.5S8.378,16.5,7,16.5z M7,12.5
	c-0.827,0-1.5,0.673-1.5,1.5s0.673,1.5,1.5,1.5s1.5-0.673,1.5-1.5S7.827,12.5,7,12.5z"/>
<path style="fill:#333333;" d="M17,16.5c-1.379,0-2.5-1.121-2.5-2.5s1.121-2.5,2.5-2.5s2.5,1.121,2.5,2.5S18.379,16.5,17,16.5z
	 M17,12.5c-0.827,0-1.5,0.673-1.5,1.5s0.673,1.5,1.5,1.5s1.5-0.673,1.5-1.5S17.827,12.5,17,12.5z"/>
<path style="fill:none;" d="M3,5h18H3z"/>
<rect x="3" y="4.5" style="fill:#333333;" width="18" height="1"/>
</svg>






