<?xml version="1.0" encoding="iso-8859-1"?>
<svg version="1.1" id="&#x56FE;&#x5C42;_1" xmlns="http://www.w3.org/2000/svg" xmlns:xlink="http://www.w3.org/1999/xlink" x="0px"
	 y="0px" viewBox="0 0 24 24" style="enable-background:new 0 0 24 24;" xml:space="preserve">
<path style="fill:#333333;" d="M8,21.5c-3.584,0-6.5-2.916-6.5-6.5h1c0,3.032,2.467,5.5,5.5,5.5c2.933,0,4.54-1.701,5.025-3.158
	l3.997-12.989l0.96,0.016l4.5,16.5l-0.965,0.264L17.471,6.294l-3.493,11.353C13.384,19.431,11.464,21.5,8,21.5z"/>
<rect x="14.27" y="14.5" style="fill:#333333;" width="6.094" height="1"/>
<path style="fill:#333333;" d="M8,18.5c-1.93,0-3.5-1.57-3.5-3.5V7.5C4.5,5.57,6.07,4,8,4s3.5,1.57,3.5,3.5V15
	C11.5,16.93,9.93,18.5,8,18.5z M8,5C6.622,5,5.5,6.122,5.5,7.5V15c0,1.379,1.122,2.5,2.5,2.5s2.5-1.121,2.5-2.5V7.5
	C10.5,6.122,9.378,5,8,5z"/>
</svg>






