<?xml version="1.0" encoding="iso-8859-1"?>
<svg version="1.1" id="&#x56FE;&#x5C42;_1" xmlns="http://www.w3.org/2000/svg" xmlns:xlink="http://www.w3.org/1999/xlink" x="0px"
	 y="0px" viewBox="0 0 24 24" style="enable-background:new 0 0 24 24;" xml:space="preserve">
<path style="fill:#333333;" d="M12,22.5C6.21,22.5,1.5,17.79,1.5,12C1.5,6.21,6.21,1.5,12,1.5c5.79,0,10.5,4.71,10.5,10.5
	C22.5,17.79,17.79,22.5,12,22.5z M12,2.5c-5.238,0-9.5,4.262-9.5,9.5s4.262,9.5,9.5,9.5s9.5-4.262,9.5-9.5S17.238,2.5,12,2.5z"/>
<path style="fill:#333333;" d="M8.5,12.95c0.552,0,1-0.448,1-1c0-0.552-0.448-1-1-1s-1,0.448-1,1C7.5,12.502,7.948,12.95,8.5,12.95z
	"/>
<path style="fill:#333333;" d="M11.328,14.778l-0.707-0.707c0.567-0.566,0.879-1.32,0.879-2.122s-0.312-1.555-0.879-2.122
	l0.707-0.707c0.756,0.756,1.172,1.76,1.172,2.829C12.5,13.019,12.084,14.022,11.328,14.778z"/>
<path style="fill:#333333;" d="M13.803,17.253l-0.707-0.707C14.324,15.318,15,13.687,15,11.95s-0.676-3.369-1.904-4.596l0.707-0.707
	C15.22,8.062,16,9.946,16,11.95C16,13.954,15.22,15.837,13.803,17.253z"/>
</svg>






