<?xml version="1.0" encoding="iso-8859-1"?>
<svg version="1.1" id="&#x56FE;&#x5C42;_1" xmlns="http://www.w3.org/2000/svg" xmlns:xlink="http://www.w3.org/1999/xlink" x="0px"
	 y="0px" viewBox="0 0 24 24" style="enable-background:new 0 0 24 24;" xml:space="preserve">
<path style="fill:#333333;" d="M12,16c-2.206,0-4-1.794-4-4V5.5c0-2.206,1.794-4,4-4c2.206,0,4,1.794,4,4V12
	C16,14.206,14.206,16,12,16z M12,2.5c-1.654,0-3,1.346-3,3V12c0,1.654,1.346,3,3,3s3-1.346,3-3V5.5C15,3.846,13.654,2.5,12,2.5z"/>
<path style="fill:#333333;" d="M12,19.5c-4.411,0-8-3.589-8-8h1c0,3.859,3.14,7,7,7c0.801,0,1.586-0.134,2.333-0.398l0.334,0.943
	C13.812,19.347,12.914,19.5,12,19.5z M19.334,14.7l-0.916-0.4C18.804,13.415,19,12.474,19,11.5h1
	C20,12.612,19.776,13.688,19.334,14.7z"/>
<rect x="11.5" y="19" style="fill:#333333;" width="1" height="3"/>
<rect x="11.5" y="-0.728" transform="matrix(0.7071 -0.7071 0.7071 0.7071 -4.9706 12)" style="fill:#333333;" width="1" height="25.456"/>
</svg>






