<?xml version="1.0" encoding="iso-8859-1"?>
<svg version="1.1" id="&#x56FE;&#x5C42;_1" xmlns="http://www.w3.org/2000/svg" xmlns:xlink="http://www.w3.org/1999/xlink" x="0px"
	 y="0px" viewBox="0 0 24 24" style="enable-background:new 0 0 24 24;" xml:space="preserve">
<path style="fill:#333333;" d="M5.5,16c-2.206,0-4-1.794-4-4c0-2.206,1.794-4,4-4s4,1.794,4,4C9.5,14.206,7.706,16,5.5,16z M5.5,9
	c-1.654,0-3,1.346-3,3s1.346,3,3,3s3-1.346,3-3S7.154,9,5.5,9z"/>
<path style="fill:#333333;" d="M18.5,16c-2.206,0-4-1.794-4-4c0-2.206,1.794-4,4-4s4,1.794,4,4C22.5,14.206,20.706,16,18.5,16z
	 M18.5,9c-1.654,0-3,1.346-3,3s1.346,3,3,3s3-1.346,3-3S20.154,9,18.5,9z"/>
<rect x="6" y="15" style="fill:#333333;" width="12" height="1"/>
</svg>






