<?xml version="1.0" encoding="iso-8859-1"?>
<svg version="1.1" id="&#x56FE;&#x5C42;_1" xmlns="http://www.w3.org/2000/svg" xmlns:xlink="http://www.w3.org/1999/xlink" x="0px"
	 y="0px" viewBox="0 0 24 24" style="enable-background:new 0 0 24 24;" xml:space="preserve">
<path style="fill:#333333;" d="M12,22.5C6.21,22.5,1.5,17.79,1.5,12C1.5,6.21,6.21,1.5,12,1.5c5.79,0,10.5,4.71,10.5,10.5
	C22.5,17.79,17.79,22.5,12,22.5z M12,2.5c-5.238,0-9.5,4.262-9.5,9.5s4.262,9.5,9.5,9.5s9.5-4.262,9.5-9.5S17.238,2.5,12,2.5z"/>
<polygon style="fill:#333333;" points="15.562,18.739 12.703,13.5 11.297,13.5 8.439,18.739 7.534,18.683 3.034,7.182 3.966,6.818 
	8.075,17.318 10.703,12.5 13.297,12.5 15.925,17.318 20.034,6.818 20.966,7.182 16.466,18.683 "/>
<polygon style="fill:#333333;" points="13.32,10 10.68,10 7.546,3.209 8.454,2.791 11.32,9 12.68,9 15.546,2.791 16.454,3.209 "/>
<path style="fill:#333333;" d="M22.5,12h-1c0-2.724-1.173-5.321-3.217-7.125C16.549,3.343,14.317,2.5,12,2.5
	c-2.317,0-4.549,0.843-6.284,2.375C3.672,6.679,2.5,9.276,2.5,12h-1c0-3.01,1.295-5.88,3.554-7.875C6.973,2.432,9.439,1.5,12,1.5
	c2.562,0,5.027,0.932,6.945,2.625C21.204,6.119,22.5,8.989,22.5,12z"/>
</svg>






