<?xml version="1.0" encoding="iso-8859-1"?>
<svg version="1.1" id="&#x56FE;&#x5C42;_1" xmlns="http://www.w3.org/2000/svg" xmlns:xlink="http://www.w3.org/1999/xlink" x="0px"
	 y="0px" viewBox="0 0 24 24" style="enable-background:new 0 0 24 24;" xml:space="preserve">
<path style="fill:#333333;" d="M12.017,22.498c-4.086,0-7.98-2.402-9.679-6.398c-1.097-2.578-1.121-5.431-0.069-8.031
	C3.32,5.469,5.32,3.434,7.9,2.337c2.579-1.097,5.433-1.122,8.034-0.069c2.601,1.052,4.636,3.052,5.729,5.632
	c2.259,5.326-0.236,11.5-5.563,13.762C14.769,22.229,13.382,22.498,12.017,22.498z M11.998,2.497c-1.258,0-2.514,0.254-3.706,0.76
	C5.957,4.25,4.147,6.092,3.196,8.443c-0.952,2.353-0.93,4.933,0.062,7.266c2.051,4.821,7.635,7.082,12.453,5.034l0,0
	c4.819-2.048,7.077-7.634,5.034-12.452c-0.99-2.334-2.831-4.144-5.185-5.096C14.408,2.73,13.202,2.497,11.998,2.497z"/>
<path style="fill:#333333;" d="M11.734,12.424c-3.3-2.07-4.997-5.899-4.224-9.528l0.979,0.208c-0.687,3.22,0.831,6.625,3.776,8.473
	L11.734,12.424z"/>
<path style="fill:#333333;" d="M6.154,20.476l-0.309-0.951c3.26-1.057,5.532-4.088,5.655-7.542l1,0.035
	C12.362,15.891,9.812,19.29,6.154,20.476z"/>
<path style="fill:#333333;" d="M21.675,12.88c-2.7-2.316-6.983-2.043-9.401-0.461l-0.547-0.837c2.722-1.78,7.549-2.077,10.599,0.539
	L21.675,12.88z"/>
<path style="fill:#333333;" d="M8.795,8.403L8.204,7.597c0.061-0.044,6.106-4.39,12.527-1.041l-0.463,0.887
	C14.412,4.386,8.851,8.363,8.795,8.403z"/>
<path style="fill:#333333;" d="M9.814,16.964C9.749,16.938,3.305,14.27,3,7.021L4,6.979c0.277,6.591,5.946,8.959,6.188,9.057
	L9.814,16.964z"/>
<path style="fill:#333333;" d="M12.128,22.437l-0.536-0.844c5.594-3.557,4.919-10.47,4.911-10.539l0.994-0.107
	C17.53,11.255,18.24,18.55,12.128,22.437z"/>
</svg>






