<?xml version="1.0" encoding="iso-8859-1"?>
<svg version="1.1" id="&#x56FE;&#x5C42;_1" xmlns="http://www.w3.org/2000/svg" xmlns:xlink="http://www.w3.org/1999/xlink" x="0px"
	 y="0px" viewBox="0 0 24 24" style="enable-background:new 0 0 24 24;" xml:space="preserve">
<path style="fill:#333333;" d="M12.5,21.5H12c-3.292,0-5.756-3.575-6.383-4.58H3c-0.827,0-1.5-0.673-1.5-1.5V8.505
	c0-0.827,0.673-1.5,1.5-1.5h2.619C6.248,6.016,8.711,2.5,12,2.5h0.5V21.5z M3,8.005c-0.276,0-0.5,0.224-0.5,0.5v6.915
	c0,0.275,0.224,0.5,0.5,0.5h3.19l0.144,0.253c0.023,0.041,2.244,3.883,5.166,4.292V3.535C8.576,3.937,6.355,7.715,6.333,7.756
	L6.188,8.005L3,8.005z"/>
<rect x="16" y="11.5" style="fill:#333333;" width="6" height="1"/>
<rect x="18.5" y="9" style="fill:#333333;" width="1" height="6"/>
</svg>






