<?xml version="1.0" encoding="iso-8859-1"?>
<svg version="1.1" id="&#x56FE;&#x5C42;_1" xmlns="http://www.w3.org/2000/svg" xmlns:xlink="http://www.w3.org/1999/xlink" x="0px"
	 y="0px" viewBox="0 0 24 24" style="enable-background:new 0 0 24 24;" xml:space="preserve">
<path style="fill:#333333;" d="M12.5,21.5H12c-3.292,0-5.756-3.575-6.383-4.58H3c-0.827,0-1.5-0.673-1.5-1.5V8.505
	c0-0.827,0.673-1.5,1.5-1.5h2.619C6.248,6.016,8.711,2.5,12,2.5h0.5V21.5z M3,8.005c-0.276,0-0.5,0.224-0.5,0.5v6.915
	c0,0.275,0.224,0.5,0.5,0.5h3.19l0.144,0.253c0.023,0.041,2.244,3.883,5.166,4.292V3.535C8.576,3.937,6.355,7.715,6.333,7.756
	L6.188,8.005L3,8.005z"/>
<path style="fill:#333333;" d="M16.333,16.873l-0.666-0.746c0.293-0.261,0.559-0.556,0.789-0.875C17.139,14.307,17.5,13.182,17.5,12
	c0-1.192-0.367-2.325-1.062-3.276c-0.228-0.311-0.486-0.597-0.771-0.851l0.666-0.746c0.337,0.301,0.645,0.64,0.912,1.007
	C18.066,9.258,18.5,10.595,18.5,12c0,1.394-0.427,2.721-1.233,3.838C16.993,16.216,16.679,16.563,16.333,16.873z"/>
</svg>






