<?xml version="1.0" encoding="iso-8859-1"?>
<svg version="1.1" id="&#x56FE;&#x5C42;_1" xmlns="http://www.w3.org/2000/svg" xmlns:xlink="http://www.w3.org/1999/xlink" x="0px"
	 y="0px" viewBox="0 0 24 24" style="enable-background:new 0 0 24 24;" xml:space="preserve">
<path style="fill:#333333;" d="M23.5,18.5h-8.707L12,15.707L9.207,18.5H0.5v-13h23V18.5z M15.207,17.5H22.5v-11h-21v11h7.293
	L12,14.293L15.207,17.5z"/>
<path style="fill:#333333;" d="M6.5,14.5C5.122,14.5,4,13.379,4,12c0-1.378,1.122-2.5,2.5-2.5S9,10.622,9,12
	C9,13.379,7.878,14.5,6.5,14.5z M6.5,10.5C5.673,10.5,5,11.173,5,12s0.673,1.5,1.5,1.5S8,12.827,8,12S7.327,10.5,6.5,10.5z"/>
<path style="fill:#333333;" d="M17.5,14.5c-1.379,0-2.5-1.121-2.5-2.5c0-1.378,1.121-2.5,2.5-2.5S20,10.622,20,12
	C20,13.379,18.879,14.5,17.5,14.5z M17.5,10.5c-0.827,0-1.5,0.673-1.5,1.5s0.673,1.5,1.5,1.5S19,12.827,19,12S18.327,10.5,17.5,10.5
	z"/>
</svg>






