<?xml version="1.0" encoding="iso-8859-1"?>
<svg version="1.1" id="&#x56FE;&#x5C42;_1" xmlns="http://www.w3.org/2000/svg" xmlns:xlink="http://www.w3.org/1999/xlink" x="0px"
	 y="0px" viewBox="0 0 24 24" style="enable-background:new 0 0 24 24;" xml:space="preserve">
<path style="fill:#333333;" d="M12.042,16.998c-2.516,0-4.711-0.529-5.764-1.05l0.443-0.896c1.621,0.801,6.546,1.648,10.588-0.014
	l0.381,0.924C15.849,16.721,13.861,16.998,12.042,16.998z"/>
<circle style="fill:#333333;" cx="12" cy="12.706" r="1"/>
<path style="fill:#333333;" d="M4.999,21.532l-0.998-0.064c0.162-2.478,0.894-4.01,1.601-5.493c0.319-0.667,0.648-1.358,0.927-2.136
	c0.317-0.886,0.476-1.84,0.471-2.837C6.983,7.21,4.969,3.459,4.565,2.746l0.87-0.492C5.86,3.005,7.982,6.958,8,10.998
	c0.005,1.113-0.173,2.183-0.53,3.178c-0.295,0.825-0.636,1.54-0.966,2.23C5.807,17.867,5.148,19.248,4.999,21.532z"/>
<path style="fill:#333333;" d="M19.001,21.532c-0.149-2.285-0.809-3.665-1.506-5.127c-0.33-0.69-0.671-1.404-0.966-2.23
	c-0.356-0.996-0.534-2.065-0.529-3.177c0.018-4.04,2.14-7.993,2.564-8.744l0.871,0.492C19.031,3.459,17.017,7.21,17,11.002
	c-0.005,0.996,0.153,1.949,0.471,2.837c0.278,0.777,0.607,1.468,0.927,2.136c0.708,1.482,1.439,3.016,1.602,5.493L19.001,21.532z"/>
<path style="fill:#333333;" d="M4.461,13.193l-0.923-0.386C3.667,12.5,4,11.576,4,11c0-0.865-0.443-1.768-0.448-1.777l0.895-0.447
	C4.47,8.822,5,9.895,5,11C5,11.88,4.517,13.062,4.461,13.193z"/>
<path style="fill:#333333;" d="M19.539,13.193C19.483,13.062,19,11.88,19,11c0-1.105,0.53-2.178,0.553-2.224l0.895,0.447
	C20.443,9.232,20,10.135,20,11c0,0.576,0.333,1.5,0.461,1.808L19.539,13.193z"/>
</svg>






