<?xml version="1.0" encoding="iso-8859-1"?>
<svg version="1.1" id="&#x56FE;&#x5C42;_1" xmlns="http://www.w3.org/2000/svg" xmlns:xlink="http://www.w3.org/1999/xlink" x="0px"
	 y="0px" viewBox="0 0 24 24" style="enable-background:new 0 0 24 24;" xml:space="preserve">
<path style="fill:#333333;" d="M18.197,6.495l-9.207-0.01l-0.25-0.933l7.334-4.234l2.556,4.428L18.197,6.495z M10.854,5.486
	l6.479,0.007L15.71,2.683L10.854,5.486z"/>
<path style="fill:#333333;" d="M21,22.5H3c-0.827,0-1.5-0.673-1.5-1.5V7c0-0.827,0.673-1.5,1.5-1.5h18c0.827,0,1.5,0.673,1.5,1.5v14
	C22.5,21.827,21.827,22.5,21,22.5z M3,6.5C2.724,6.5,2.5,6.724,2.5,7v14c0,0.275,0.224,0.5,0.5,0.5h18c0.275,0,0.5-0.225,0.5-0.5V7
	c0-0.276-0.225-0.5-0.5-0.5H3z"/>
<path style="fill:#333333;" d="M22.5,17h-4.875c-1.723,0-3.125-1.346-3.125-3s1.402-3,3.125-3H22.5V17z M17.625,12
	c-1.172,0-2.125,0.897-2.125,2s0.953,2,2.125,2H21.5v-4H17.625z"/>
<rect x="21.5" y="8.25" style="fill:#333333;" width="1" height="12"/>
</svg>






