<?xml version="1.0" encoding="iso-8859-1"?>
<svg version="1.1" id="&#x56FE;&#x5C42;_1" xmlns="http://www.w3.org/2000/svg" xmlns:xlink="http://www.w3.org/1999/xlink" x="0px"
	 y="0px" viewBox="0 0 24 24" style="enable-background:new 0 0 24 24;" xml:space="preserve">
<path style="fill:#333333;" d="M20.5,20h-17C2.673,20,2,19.327,2,18.5v-11C2,6.673,2.673,6,3.5,6h17C21.327,6,22,6.673,22,7.5v11
	C22,19.327,21.327,20,20.5,20z M3.5,7C3.224,7,3,7.224,3,7.5v11C3,18.775,3.224,19,3.5,19h17c0.275,0,0.5-0.225,0.5-0.5v-11
	C21,7.224,20.775,7,20.5,7H3.5z"/>
<path style="fill:#333333;" d="M22,16H12V9.5h10V16z M13,15h8v-4.5h-8V15z"/>
<rect x="21" y="9" style="fill:#333333;" width="1" height="7.5"/>
<path style="fill:#333333;" d="M16.5,6.5h-1c0-2.43-1.795-2.5-2-2.5H6.25C4.52,4,4.5,5.582,4.5,5.649V6.5h-1V5.649
	C3.5,4.584,4.232,3,6.25,3h7.25C14.538,3,16.5,3.731,16.5,6.5z"/>
<circle style="fill:#333333;" cx="16.75" cy="12.75" r="0.75"/>
</svg>






