<?xml version="1.0" encoding="iso-8859-1"?>
<svg version="1.1" id="&#x56FE;&#x5C42;_1" xmlns="http://www.w3.org/2000/svg" xmlns:xlink="http://www.w3.org/1999/xlink" x="0px"
	 y="0px" viewBox="0 0 24 24" style="enable-background:new 0 0 24 24;" xml:space="preserve">
<path style="fill:#333333;" d="M18,21.5H4.5c-1.103,0-2-0.897-2-2v-15c0-1.103,0.897-2,2-2H18c1.103,0,2,0.897,2,2V8h-1V4.5
	c0-0.551-0.448-1-1-1H4.5c-0.551,0-1,0.449-1,1v15c0,0.552,0.449,1,1,1H18c0.552,0,1-0.448,1-1V16h1v3.5
	C20,20.603,19.103,21.5,18,21.5z"/>
<path style="fill:#333333;" d="M19.5,16.5h-7c-1.103,0-2-0.897-2-2v-5c0-1.103,0.897-2,2-2h7c1.103,0,2,0.897,2,2v5
	C21.5,15.603,20.603,16.5,19.5,16.5z M12.5,8.5c-0.551,0-1,0.449-1,1v5c0,0.552,0.449,1,1,1h7c0.552,0,1-0.448,1-1v-5
	c0-0.551-0.448-1-1-1H12.5z"/>
<circle style="fill:#333333;" cx="15" cy="12" r="1"/>
</svg>






