<?xml version="1.0" encoding="iso-8859-1"?>
<svg version="1.1" id="&#x56FE;&#x5C42;_1" xmlns="http://www.w3.org/2000/svg" xmlns:xlink="http://www.w3.org/1999/xlink" x="0px"
	 y="0px" viewBox="0 0 24 24" style="enable-background:new 0 0 24 24;" xml:space="preserve">
<path style="fill:#333333;" d="M19,22.5H5c-0.827,0-1.5-0.673-1.5-1.5V3c0-0.827,0.673-1.5,1.5-1.5h14c0.827,0,1.5,0.673,1.5,1.5v18
	C20.5,21.827,19.827,22.5,19,22.5z M5,2.5C4.724,2.5,4.5,2.724,4.5,3v18c0,0.275,0.224,0.5,0.5,0.5h14c0.275,0,0.5-0.225,0.5-0.5V3
	c0-0.276-0.225-0.5-0.5-0.5H5z"/>
<path style="fill:#333333;" d="M19,7.5H5C4.173,7.5,3.5,6.827,3.5,6V3c0-0.827,0.673-1.5,1.5-1.5h14c0.827,0,1.5,0.673,1.5,1.5v3
	C20.5,6.827,19.827,7.5,19,7.5z M5,2.5C4.724,2.5,4.5,2.724,4.5,3v3c0,0.276,0.224,0.5,0.5,0.5h14c0.275,0,0.5-0.224,0.5-0.5V3
	c0-0.276-0.225-0.5-0.5-0.5H5z"/>
<circle style="fill:#333333;" cx="7" cy="4.5" r="1"/>
<circle style="fill:#333333;" cx="10" cy="4.5" r="1"/>
<path style="fill:#333333;" d="M12,18.5c-2.206,0-4-1.794-4-4s1.794-4,4-4c2.206,0,4,1.794,4,4S14.206,18.5,12,18.5z M12,11.5
	c-1.654,0-3,1.346-3,3s1.346,3,3,3s3-1.346,3-3S13.654,11.5,12,11.5z"/>
</svg>






