<?xml version="1.0" encoding="iso-8859-1"?>
<svg version="1.1" id="&#x56FE;&#x5C42;_1" xmlns="http://www.w3.org/2000/svg" xmlns:xlink="http://www.w3.org/1999/xlink" x="0px"
	 y="0px" viewBox="0 0 24 24" style="enable-background:new 0 0 24 24;" xml:space="preserve">
<polygon style="fill:#333333;" points="15.87,22.5 8.129,22.5 6.043,15.646 7,15.354 8.871,21.5 15.13,21.5 17,15.354 
	17.957,15.646 "/>
<polygon style="fill:#333333;" points="17,8.646 15.13,2.5 8.871,2.5 7,8.646 6.043,8.354 8.129,1.5 15.87,1.5 17.957,8.354 "/>
<path style="fill:#333333;" d="M12,19c-2.399,0-4.604-1.208-5.899-3.23C5.381,14.645,5,13.341,5,12c0-1.341,0.381-2.645,1.101-3.77
	C7.396,6.208,9.601,5,12,5c2.398,0,4.604,1.208,5.899,3.23C18.619,9.355,19,10.659,19,12c0,1.341-0.381,2.644-1.101,3.77
	C16.604,17.792,14.398,19,12,19z M12,6C9.943,6,8.053,7.035,6.943,8.77C6.326,9.733,6,10.85,6,12c0,1.149,0.326,2.267,0.943,3.23
	C8.053,16.965,9.944,18,12,18c2.056,0,3.946-1.035,5.058-2.77C17.674,14.267,18,13.149,18,12c0-1.15-0.326-2.267-0.942-3.23
	C15.947,7.035,14.057,6,12,6z"/>
<polygon style="fill:#333333;" points="13.646,14.354 11.5,12.207 11.5,8.5 12.5,8.5 12.5,11.793 14.354,13.646 "/>
</svg>






