<?xml version="1.0" encoding="iso-8859-1"?>
<svg version="1.1" id="&#x56FE;&#x5C42;_1" xmlns="http://www.w3.org/2000/svg" xmlns:xlink="http://www.w3.org/1999/xlink" x="0px"
	 y="0px" viewBox="0 0 24 24" style="enable-background:new 0 0 24 24;" xml:space="preserve">
<path style="fill:#333333;" d="M15,7h-1V3c0-0.276-0.225-0.5-0.5-0.5h-3C10.224,2.5,10,2.724,10,3v4H9V3c0-0.827,0.673-1.5,1.5-1.5
	h3C14.327,1.5,15,2.173,15,3V7z"/>
<path style="fill:#333333;" d="M13.5,22.5h-3C9.673,22.5,9,21.827,9,21v-4h1v4c0,0.275,0.224,0.5,0.5,0.5h3
	c0.275,0,0.5-0.225,0.5-0.5v-4h1v4C15,21.827,14.327,22.5,13.5,22.5z"/>
<path style="fill:#333333;" d="M12,18c-3.309,0-6-2.691-6-6s2.691-6,6-6s6,2.691,6,6S15.309,18,12,18z M12,7c-2.757,0-5,2.243-5,5
	s2.243,5,5,5s5-2.243,5-5S14.757,7,12,7z"/>
<rect x="10.5" y="12" style="fill:#333333;" width="2" height="1"/>
<rect x="12" y="10.5" style="fill:#333333;" width="1" height="2"/>
</svg>






