<?xml version="1.0" encoding="iso-8859-1"?>
<svg version="1.1" id="&#x56FE;&#x5C42;_1" xmlns="http://www.w3.org/2000/svg" xmlns:xlink="http://www.w3.org/1999/xlink" x="0px"
	 y="0px" viewBox="0 0 24 24" style="enable-background:new 0 0 24 24;" xml:space="preserve">
<path style="fill:#333333;" d="M12,19.5c-6.132,0-8.711-2.066-8.818-2.154l-0.325-0.268l8.708-15.325h0.869l8.708,15.326
	l-0.325,0.267C20.711,17.434,18.131,19.5,12,19.5z M4.164,16.804C5.016,17.314,7.482,18.5,12,18.5c4.517,0,6.981-1.185,7.836-1.696
	L12,3.012L4.164,16.804z"/>
<circle style="fill:#333333;" cx="12" cy="8.5" r="1"/>
<circle style="fill:#333333;" cx="13.5" cy="11.5" r="1"/>
<circle style="fill:#333333;" cx="10.5" cy="11.5" r="1"/>
<path style="fill:#333333;" d="M12,22.5c-6.132,0-8.711-2.066-8.818-2.154l0.636-0.771C3.84,19.592,6.268,21.5,12,21.5
	c5.731,0,8.16-1.908,8.184-1.928l0.634,0.773C20.711,20.434,18.131,22.5,12,22.5z"/>
</svg>






