<?xml version="1.0" encoding="iso-8859-1"?>
<svg version="1.1" id="&#x56FE;&#x5C42;_1" xmlns="http://www.w3.org/2000/svg" xmlns:xlink="http://www.w3.org/1999/xlink" x="0px"
	 y="0px" viewBox="0 0 24 24" style="enable-background:new 0 0 24 24;" xml:space="preserve">
<path style="fill:#333333;" d="M12,22.5c-4.687,0-8.5-3.813-8.5-8.5c0-6.686,7.881-12.181,8.217-12.412L12,1.393l0.283,0.195
	C12.619,1.819,20.5,7.314,20.5,14C20.5,18.687,16.687,22.5,12,22.5z M12,2.618C10.6,3.661,4.5,8.521,4.5,14
	c0,4.136,3.364,7.5,7.5,7.5s7.5-3.364,7.5-7.5C19.5,8.521,13.4,3.661,12,2.618z"/>
<polygon style="fill:#333333;" points="12.447,18.224 11.553,17.776 13.191,14.5 9.191,14.5 11.553,9.776 12.447,10.224 
	10.809,13.5 14.809,13.5 "/>
</svg>






