<?xml version="1.0" encoding="iso-8859-1"?>
<svg version="1.1" id="&#x56FE;&#x5C42;_1" xmlns="http://www.w3.org/2000/svg" xmlns:xlink="http://www.w3.org/1999/xlink" x="0px"
	 y="0px" viewBox="0 0 24 24" style="enable-background:new 0 0 24 24;" xml:space="preserve">
<path style="fill:#333333;" d="M12,22.5C6.21,22.5,1.5,17.79,1.5,12h1c0,1.103,0.897,2,2,2s2-0.897,2-2h1c0,1.103,0.897,2,2,2
	s2-0.897,2-2h1c0,1.103,0.897,2,2,2s2-0.897,2-2h1c0,1.103,0.897,2,2,2s2-0.897,2-2h1C22.5,17.79,17.79,22.5,12,22.5z M2.832,14.492
	C3.929,18.525,7.624,21.5,12,21.5c4.376,0,8.071-2.975,9.168-7.008C20.691,14.812,20.117,15,19.5,15c-1.042,0-1.962-0.534-2.5-1.344
	C16.462,14.466,15.542,15,14.5,15s-1.962-0.534-2.5-1.344C11.462,14.466,10.542,15,9.5,15S7.538,14.466,7,13.656
	C6.462,14.466,5.542,15,4.5,15C3.883,15,3.309,14.812,2.832,14.492z"/>
<rect x="11.5" y="1.464" transform="matrix(0.7071 -0.7071 0.7071 0.7071 -0.0208 9.9497)" style="fill:#333333;" width="1" height="7.071"/>
<rect x="8.464" y="4.5" transform="matrix(0.7071 -0.7071 0.7071 0.7071 -0.0208 9.9497)" style="fill:#333333;" width="7.071" height="1"/>
</svg>






