<?xml version="1.0" encoding="iso-8859-1"?>
<svg version="1.1" id="&#x56FE;&#x5C42;_1" xmlns="http://www.w3.org/2000/svg" xmlns:xlink="http://www.w3.org/1999/xlink" x="0px"
	 y="0px" viewBox="0 0 24 24" style="enable-background:new 0 0 24 24;" xml:space="preserve">
<path style="fill:#333333;" d="M12,22.5c-4.687,0-8.5-3.486-8.5-7.772c0-4.075,2.75-8.485,8.176-13.108L12,1.343l0.324,0.276
	c5.425,4.624,8.176,9.034,8.176,13.108C20.5,19.014,16.687,22.5,12,22.5z M12,2.66c-4.977,4.32-7.5,8.379-7.5,12.068
	c0,3.734,3.364,6.772,7.5,6.772s7.5-3.038,7.5-6.772C19.5,11.039,16.977,6.98,12,2.66z"/>
<polygon style="fill:#333333;" points="12,12.907 9.067,9.846 9.79,9.154 12,11.462 14.21,9.154 14.933,9.846 "/>
<rect x="9" y="12.579" style="fill:#333333;" width="6" height="1"/>
<rect x="9" y="15.264" style="fill:#333333;" width="6" height="1"/>
<rect x="11.5" y="13.079" style="fill:#333333;" width="1" height="4.921"/>
</svg>






