<?xml version="1.0" encoding="iso-8859-1"?>
<svg version="1.1" id="&#x56FE;&#x5C42;_1" xmlns="http://www.w3.org/2000/svg" xmlns:xlink="http://www.w3.org/1999/xlink" x="0px"
	 y="0px" viewBox="0 0 24 24" style="enable-background:new 0 0 24 24;" xml:space="preserve">
<path style="fill:#333333;" d="M19.5,18.999c-0.508,0-1.015-0.128-1.488-0.384c-0.652-0.352-1.371-0.352-2.023,0
	c-0.947,0.512-2.029,0.512-2.977,0c-0.652-0.352-1.371-0.352-2.024,0c-0.945,0.512-2.03,0.512-2.976,0
	c-0.653-0.352-1.371-0.352-2.024,0c-0.945,0.512-2.03,0.512-2.976,0l-1.25-0.676l0.476-0.879l1.25,0.676
	c0.652,0.352,1.371,0.352,2.024,0c0.945-0.512,2.03-0.512,2.976,0c0.653,0.352,1.371,0.352,2.024,0c0.945-0.512,2.03-0.512,2.976,0
	c0.652,0.352,1.371,0.352,2.023,0c0.947-0.512,2.029-0.512,2.977,0c0.652,0.352,1.371,0.352,2.023,0l1.251-0.676l0.475,0.879
	l-1.25,0.676C20.515,18.871,20.008,18.999,19.5,18.999z"/>
<path style="fill:#333333;" d="M19.5,21.999c-0.508,0-1.015-0.128-1.488-0.384c-0.652-0.352-1.371-0.352-2.023,0
	c-0.947,0.512-2.029,0.512-2.977,0c-0.652-0.352-1.371-0.352-2.024,0c-0.945,0.512-2.03,0.512-2.976,0
	c-0.653-0.352-1.371-0.352-2.024,0c-0.945,0.512-2.03,0.512-2.976,0l-1.25-0.676l0.476-0.879l1.25,0.676
	c0.652,0.352,1.371,0.352,2.024,0c0.945-0.512,2.03-0.512,2.976,0c0.653,0.352,1.371,0.352,2.024,0c0.945-0.512,2.03-0.512,2.976,0
	c0.652,0.352,1.371,0.352,2.023,0c0.947-0.512,2.029-0.512,2.977,0c0.652,0.352,1.371,0.352,2.023,0l1.251-0.676l0.475,0.879
	l-1.25,0.676C20.515,21.871,20.008,21.999,19.5,21.999z"/>
<path style="fill:#333333;" d="M12.5,9.5c-1.654,0-3-1.346-3-3s1.346-3,3-3s3,1.346,3,3S14.154,9.5,12.5,9.5z M12.5,4.5
	c-1.103,0-2,0.897-2,2s0.897,2,2,2c1.103,0,2-0.897,2-2S13.603,4.5,12.5,4.5z"/>
<rect x="11.75" y="12.469" transform="matrix(0.9702 -0.2423 0.2423 0.9702 -2.9061 3.3707)" style="fill:#333333;" width="1" height="2.061"/>
<polygon style="fill:#333333;" points="21,12.965 11.89,12.952 5.39,11.488 5.078,11.269 1.578,5.769 2.422,5.231 5.811,10.558 
	12.056,11.965 21,11.965 "/>
<path style="fill:#333333;" d="M5.5,5C6.328,5,7,4.328,7,3.5S6.328,2,5.5,2C4.672,2,4,2.672,4,3.5S4.672,5,5.5,5z"/>
</svg>






