<?xml version="1.0" encoding="iso-8859-1"?>
<svg version="1.1" id="&#x56FE;&#x5C42;_1" xmlns="http://www.w3.org/2000/svg" xmlns:xlink="http://www.w3.org/1999/xlink" x="0px"
	 y="0px" viewBox="0 0 24 24" style="enable-background:new 0 0 24 24;" xml:space="preserve">
<path style="fill:#333333;" d="M19.5,18.499c-0.508,0-1.015-0.128-1.488-0.384c-0.652-0.352-1.371-0.352-2.023,0
	c-0.947,0.512-2.029,0.512-2.977,0c-0.652-0.352-1.371-0.352-2.024,0c-0.945,0.512-2.03,0.512-2.976,0
	c-0.653-0.352-1.371-0.352-2.024,0c-0.945,0.512-2.03,0.512-2.976,0l-1.25-0.676l0.476-0.879l1.25,0.676
	c0.652,0.352,1.371,0.352,2.024,0c0.945-0.512,2.03-0.512,2.976,0c0.653,0.352,1.371,0.352,2.024,0c0.945-0.513,2.03-0.511,2.976,0
	c0.652,0.352,1.371,0.352,2.023,0c0.947-0.512,2.029-0.512,2.977,0c0.652,0.352,1.371,0.352,2.023,0l1.251-0.676l0.475,0.879
	l-1.25,0.676C20.515,18.371,20.008,18.499,19.5,18.499z"/>
<path style="fill:#333333;" d="M19.5,21.499c-0.508,0-1.015-0.128-1.488-0.384c-0.652-0.352-1.371-0.352-2.023,0
	c-0.947,0.512-2.029,0.512-2.977,0c-0.652-0.352-1.371-0.352-2.024,0c-0.945,0.512-2.03,0.512-2.976,0
	c-0.653-0.352-1.371-0.352-2.024,0c-0.945,0.512-2.03,0.512-2.976,0l-1.25-0.676l0.476-0.879l1.25,0.676
	c0.652,0.352,1.371,0.352,2.024,0c0.945-0.512,2.03-0.512,2.976,0c0.653,0.352,1.371,0.352,2.024,0c0.945-0.512,2.03-0.512,2.976,0
	c0.652,0.352,1.371,0.352,2.023,0c0.947-0.512,2.029-0.512,2.977,0c0.652,0.352,1.371,0.352,2.023,0l1.251-0.676l0.475,0.879
	l-1.25,0.676C20.515,21.371,20.008,21.499,19.5,21.499z"/>
<path style="fill:#333333;" d="M22.283,14.101l-0.979-0.201c0.389-1.888,0.193-3.826-0.565-5.607
	c-0.99-2.337-2.832-4.147-5.186-5.099c-2.354-0.95-4.933-0.929-7.265,0.064c-4.134,1.756-6.491,6.22-5.604,10.613l-0.98,0.197
	c-0.98-4.856,1.624-9.79,6.193-11.731c2.578-1.095,5.431-1.12,8.03-0.071c2.602,1.051,4.638,3.053,5.731,5.635
	C22.498,9.87,22.714,12.014,22.283,14.101z"/>
<path style="fill:#333333;" d="M11.734,12.424c-3.353-2.1-5.01-5.84-4.223-9.528l0.978,0.209c-0.698,3.272,0.784,6.598,3.777,8.472
	L11.734,12.424z"/>
<path style="fill:#333333;" d="M12.178,14.131l-0.965-0.262c0.167-0.618,0.264-1.253,0.288-1.888l1,0.037
	C12.474,12.729,12.365,13.439,12.178,14.131z"/>
<path style="fill:#333333;" d="M21.665,13.371c-2.481-2.235-6.271-2.609-9.431-0.93l-0.469-0.883
	c3.531-1.876,7.777-1.446,10.57,1.07L21.665,13.371z"/>
<path style="fill:#333333;" d="M9.312,8.39L8.687,7.61c0.056-0.044,5.61-4.41,12.045-1.054l-0.463,0.887
	C14.425,4.394,9.519,8.226,9.312,8.39z"/>
<path style="fill:#333333;" d="M6.131,14.338C4.138,12.158,3.114,9.765,3,7.021L4,6.979c0.103,2.499,1.042,4.685,2.87,6.683
	L6.131,14.338z"/>
<path style="fill:#333333;" d="M17.457,14.105l-0.984-0.172c0.283-1.631,0.186-2.833,0.185-2.846l0.996-0.086
	C17.658,11.055,17.765,12.337,17.457,14.105z"/>
</svg>






