<?xml version="1.0" encoding="iso-8859-1"?>
<svg version="1.1" id="&#x56FE;&#x5C42;_1" xmlns="http://www.w3.org/2000/svg" xmlns:xlink="http://www.w3.org/1999/xlink" x="0px"
	 y="0px" viewBox="0 0 24 24" style="enable-background:new 0 0 24 24;" xml:space="preserve">
<path style="fill:none;" d="M18.499,10.856C18.422,6.504,14.87,3,10.5,3c-4.418,0-8,3.582-8,8c0,2.085,0.798,3.984,2.104,5.408
	l-0.599,3.605l3.557-1.528c1.567,0.521,3.047,0.651,4.438,0.391"/>
<path style="fill:#333333;" d="M4.203,20.472l-0.69-0.541l0.56-3.369C2.734,15.017,2,13.052,2,11c0-4.687,3.813-8.5,8.5-8.5
	c4.604,0,8.417,3.744,8.499,8.347l-1,0.018C17.927,6.804,14.563,3.5,10.5,3.5C6.364,3.5,3,6.864,3,11
	c0,1.883,0.701,3.683,1.973,5.069l0.165,0.18l-0.489,2.943l2.891-1.241l0.181,0.06c1.48,0.491,2.891,0.617,4.188,0.374l0.184,0.982
	c-1.413,0.265-2.928,0.148-4.504-0.349L4.203,20.472z"/>
<path style="fill:#333333;" d="M7.562,10.233c0.621,0,1.125-0.507,1.125-1.133c0-0.626-0.504-1.133-1.125-1.133
	S6.438,8.474,6.438,9.1C6.438,9.726,6.941,10.233,7.562,10.233z"/>
<path style="fill:#333333;" d="M12.062,10.233c0.621,0,1.125-0.507,1.125-1.133c0-0.626-0.504-1.133-1.125-1.133
	S10.938,8.474,10.938,9.1C10.938,9.726,11.441,10.233,12.062,10.233z"/>
<path style="fill:none;" d="M19.381,19.965C18.507,20.615,17.423,21,16.25,21C13.351,21,11,18.649,11,15.75s2.351-5.25,5.25-5.25
	s5.25,2.351,5.25,5.25c0,0.8-0.179,1.558-0.499,2.236"/>
<path style="fill:#333333;" d="M16.25,21.5c-3.171,0-5.75-2.579-5.75-5.75S13.079,10,16.25,10S22,12.579,22,15.75
	c0,0.856-0.184,1.681-0.547,2.45l-0.904-0.428C20.849,17.139,21,16.458,21,15.75c0-2.619-2.131-4.75-4.75-4.75
	s-4.75,2.131-4.75,4.75s2.131,4.75,4.75,4.75c1.03,0,2.009-0.324,2.832-0.937l0.598,0.803C18.683,21.107,17.496,21.5,16.25,21.5z"/>
<path style="fill:none;" d="M21.001,17.986L21.5,21l-2.119-1.035"/>
<polygon style="fill:#333333;" points="21.28,21.449 19.161,20.414 19.601,19.516 20.849,20.125 20.508,18.068 21.494,17.904 
	21.993,20.918 "/>
<path style="fill:#333333;" d="M17.844,15.4C17.378,15.4,17,15.019,17,14.55s0.378-0.85,0.844-0.85s0.844,0.381,0.844,0.85
	S18.31,15.4,17.844,15.4z"/>
<path style="fill:#333333;" d="M14.469,15.4c-0.466,0-0.844-0.381-0.844-0.85s0.378-0.85,0.844-0.85s0.844,0.381,0.844,0.85
	S14.935,15.4,14.469,15.4z"/>
</svg>






