<?xml version="1.0" encoding="iso-8859-1"?>
<svg version="1.1" id="&#x56FE;&#x5C42;_1" xmlns="http://www.w3.org/2000/svg" xmlns:xlink="http://www.w3.org/1999/xlink" x="0px"
	 y="0px" viewBox="0 0 24 24" style="enable-background:new 0 0 24 24;" xml:space="preserve">
<path style="fill:#333333;" d="M12,14c-1.654,0-3-1.346-3-3s1.346-3,3-3s3,1.346,3,3S13.654,14,12,14z M12,9c-1.103,0-2,0.897-2,2
	c0,1.103,0.897,2,2,2c1.103,0,2-0.897,2-2C14,9.897,13.103,9,12,9z"/>
<rect x="2" y="4" style="fill:#333333;" width="20" height="1"/>
<rect x="1.5" y="2" style="fill:#333333;" width="1" height="5"/>
<rect x="21.5" y="2" style="fill:#333333;" width="1" height="5"/>
<polygon style="fill:#333333;" points="11.74,17.428 5.24,13.478 5,13.05 5,4.5 6,4.5 6,12.769 11.999,16.414 18,12.721 18,4.5 
	19,4.5 19,13 18.762,13.426 12.262,17.426 "/>
<rect x="11.5" y="17" style="fill:#333333;" width="1" height="5"/>
</svg>






