<?xml version="1.0" encoding="iso-8859-1"?>
<svg version="1.1" id="&#x56FE;&#x5C42;_1" xmlns="http://www.w3.org/2000/svg" xmlns:xlink="http://www.w3.org/1999/xlink" x="0px"
	 y="0px" viewBox="0 0 24 24" style="enable-background:new 0 0 24 24;" xml:space="preserve">
<path style="fill:#333333;" d="M19,22.5H5c-0.827,0-1.5-0.673-1.5-1.5V8c0-0.827,0.673-1.5,1.5-1.5h14c0.827,0,1.5,0.673,1.5,1.5v13
	C20.5,21.827,19.827,22.5,19,22.5z M5,7.5C4.724,7.5,4.5,7.724,4.5,8v13c0,0.275,0.224,0.5,0.5,0.5h14c0.275,0,0.5-0.225,0.5-0.5V8
	c0-0.276-0.225-0.5-0.5-0.5H5z"/>
<path style="fill:#333333;" d="M16,9h-1V5.5c0-1.654-1.346-3-3-3s-3,1.346-3,3V9H8V5.5c0-2.206,1.794-4,4-4c2.206,0,4,1.794,4,4V9z"
	/>
</svg>






