<?xml version="1.0" encoding="iso-8859-1"?>
<svg version="1.1" id="&#x56FE;&#x5C42;_1" xmlns="http://www.w3.org/2000/svg" xmlns:xlink="http://www.w3.org/1999/xlink" x="0px"
	 y="0px" viewBox="0 0 24 24" style="enable-background:new 0 0 24 24;" xml:space="preserve">
<path style="fill:#333333;" d="M12,22.5C6.21,22.5,1.5,17.79,1.5,12C1.5,6.21,6.21,1.5,12,1.5c5.79,0,10.5,4.71,10.5,10.5
	C22.5,17.79,17.79,22.5,12,22.5z M12,2.5c-5.238,0-9.5,4.262-9.5,9.5s4.262,9.5,9.5,9.5s9.5-4.262,9.5-9.5S17.238,2.5,12,2.5z"/>
<path style="fill:#333333;" d="M9.501,17.501c-0.196,0-0.392-0.02-0.587-0.059c-0.583-0.116-1.115-0.4-1.536-0.821
	s-0.705-0.952-0.821-1.536S6.5,13.901,6.729,13.352c0.228-0.55,0.61-1.015,1.105-1.347C8.328,11.675,8.904,11.5,9.5,11.5v1
	c-0.397,0-0.781,0.116-1.111,0.337c-0.33,0.221-0.585,0.531-0.737,0.897s-0.191,0.767-0.114,1.155
	c0.078,0.39,0.267,0.743,0.548,1.024c0.281,0.28,0.635,0.47,1.024,0.548c0.389,0.075,0.788,0.037,1.155-0.114
	c0.367-0.152,0.677-0.407,0.898-0.737c0.22-0.329,0.337-0.714,0.337-1.11v-5c0-0.596,0.175-1.172,0.505-1.667
	c0.332-0.495,0.797-0.877,1.347-1.105c0.55-0.229,1.15-0.289,1.733-0.171c0.584,0.116,1.115,0.4,1.536,0.821
	s0.705,0.952,0.821,1.536c0.116,0.584,0.058,1.183-0.171,1.733c-0.228,0.55-0.61,1.016-1.104,1.346
	C15.672,12.325,15.096,12.5,14.5,12.5v-1c0.396,0,0.781-0.117,1.11-0.337c0.33-0.221,0.585-0.531,0.737-0.898
	s0.191-0.766,0.114-1.155c-0.078-0.389-0.268-0.743-0.548-1.024c-0.281-0.281-0.635-0.47-1.024-0.548
	C14.499,7.461,14.1,7.5,13.734,7.652c-0.366,0.152-0.677,0.407-0.897,0.737C12.616,8.719,12.5,9.103,12.5,9.5v5
	c0,0.596-0.175,1.172-0.506,1.667c-0.331,0.494-0.796,0.877-1.346,1.104C10.281,17.424,9.893,17.501,9.501,17.501z"/>
</svg>






