<?xml version="1.0" encoding="iso-8859-1"?>
<svg version="1.1" id="&#x56FE;&#x5C42;_1" xmlns="http://www.w3.org/2000/svg" xmlns:xlink="http://www.w3.org/1999/xlink" x="0px"
	 y="0px" viewBox="0 0 24 24" style="enable-background:new 0 0 24 24;" xml:space="preserve">
<path style="fill:#333333;" d="M12,22.724l-3.86-4.037l-5.426-1.325L4.279,12L2.713,6.638L8.14,5.313L12,1.276l3.861,4.037
	l5.426,1.325L19.721,12l1.566,5.361l-5.426,1.325L12,22.724z M3.966,16.639l4.694,1.146L12,21.276l3.34-3.492l4.693-1.146L18.68,12
	l1.354-4.638L15.34,6.216L12,2.724L8.66,6.216L3.966,7.362L5.321,12L3.966,16.639z"/>
<path style="fill:#333333;" d="M15.948,18.84L12,16.817L8.051,18.84l-0.223-4.431L4.102,12l3.726-2.409L8.051,5.16L12,7.182
	l3.948-2.022l0.224,4.431L19.898,12l-3.727,2.409L15.948,18.84z M5.943,12L8.8,13.847l0.171,3.397L12,15.694l3.028,1.55l0.171-3.397
	L18.057,12l-2.857-1.847l-0.172-3.398L12,8.305l-3.028-1.55L8.8,10.153L5.943,12z"/>
</svg>






