<?xml version="1.0" encoding="iso-8859-1"?>
<svg version="1.1" id="&#x56FE;&#x5C42;_1" xmlns="http://www.w3.org/2000/svg" xmlns:xlink="http://www.w3.org/1999/xlink" x="0px"
	 y="0px" viewBox="0 0 24 24" style="enable-background:new 0 0 24 24;" xml:space="preserve">
<path style="fill:#333333;" d="M12,21.707L2.293,12L12,2.293L21.707,12L12,21.707z M3.707,12L12,20.293L20.293,12L12,3.707L3.707,12
	z"/>
<rect x="11.5" y="14.5" style="fill:#333333;" width="1" height="6.5"/>
<rect x="3" y="11.5" style="fill:#333333;" width="6.5" height="1"/>
<rect x="11.5" y="3" style="fill:#333333;" width="1" height="6.5"/>
<rect x="14.5" y="11.5" style="fill:#333333;" width="6.5" height="1"/>
<path style="fill:#333333;" d="M12,15c-1.654,0-3-1.346-3-3s1.346-3,3-3s3,1.346,3,3S13.654,15,12,15z M12,10c-1.103,0-2,0.897-2,2
	c0,1.103,0.897,2,2,2c1.103,0,2-0.897,2-2C14,10.897,13.103,10,12,10z"/>
</svg>






