<?xml version="1.0" encoding="iso-8859-1"?>
<svg version="1.1" id="&#x56FE;&#x5C42;_1" xmlns="http://www.w3.org/2000/svg" xmlns:xlink="http://www.w3.org/1999/xlink" x="0px"
	 y="0px" viewBox="0 0 24 24" style="enable-background:new 0 0 24 24;" xml:space="preserve">
<path style="fill:#333333;" d="M10.258,18.008c-2.845,0-5.953-0.727-7.994-2.626c-0.845-0.841-1.078-1.494-0.22-3.091
	c-0.105-1.252,0.19-2.997,1.333-4.328C4.435,6.732,5.996,6.072,8.017,6l0.018,0c1.438,0,4.229,0.598,6.776,4.599
	c0.4,0.629,1.066,1.066,1.738,1.141c0.451,0.051,0.846-0.073,1.117-0.343c0.059-0.06,0.21-0.268,0.194-0.515
	c-0.016-0.234-0.181-0.473-0.489-0.708c-0.83-0.664-1.128-1.844-0.845-3.33l0.915-0.172c0.252,0.402,1.269,0.95,1.931,0.847
	l0.072-0.033c0.667-0.301,1.675-0.756,1.964-1.241l0.885,0.048c0.436,0.955,0.359,4.09-2.315,6c-0.289,1.33-1.781,3.648-4.913,4.934
	C13.806,17.708,12.086,18.008,10.258,18.008z M8.043,7C6.317,7.063,5.003,7.606,4.136,8.615c-0.983,1.145-1.204,2.674-1.083,3.723
	l0.019,0.16l-0.079,0.141c-0.738,1.324-0.561,1.5-0.036,2.022c3.002,2.793,8.849,2.742,11.739,1.635
	c2.729-1.12,4.198-3.262,4.328-4.354l0.026-0.23l0.193-0.128c1.818-1.209,2.252-2.984,2.257-4.054
	c-0.499,0.351-1.111,0.627-1.645,0.868L19.618,8.49c-0.697,0.138-1.548-0.117-2.193-0.518c0.018,0.636,0.21,1.131,0.562,1.413
	c0.539,0.412,0.835,0.896,0.87,1.431c0.048,0.717-0.396,1.199-0.485,1.288c-0.491,0.49-1.177,0.716-1.933,0.63
	c-0.98-0.108-1.905-0.706-2.473-1.598C11.682,7.545,9.278,7.002,8.043,7z"/>
<path style="fill:#333333;" d="M5.362,14.828c-1.159,0-2.246-0.204-2.954-0.337l0.185-0.982c1.292,0.243,3.98,0.749,5.618-0.417
	l0.579,0.816C7.79,14.617,6.539,14.828,5.362,14.828z"/>
<circle style="fill:#333333;" cx="6" cy="10" r="1"/>
</svg>






