<?xml version="1.0" encoding="iso-8859-1"?>
<svg version="1.1" id="&#x56FE;&#x5C42;_1" xmlns="http://www.w3.org/2000/svg" xmlns:xlink="http://www.w3.org/1999/xlink" x="0px"
	 y="0px" viewBox="0 0 24 24" style="enable-background:new 0 0 24 24;" xml:space="preserve">
<path style="fill:#333333;" d="M9,22.5c-3.584,0-6.5-2.916-6.5-6.5c0-2.533,1.488-4.853,3.792-5.911l0.417,0.909
	C4.759,11.893,3.5,13.856,3.5,16c0,3.032,2.467,5.5,5.5,5.5c2.511,0,4.701-1.696,5.326-4.125l0.969,0.25
	C14.556,20.495,11.967,22.5,9,22.5z"/>
<polygon style="fill:#333333;" points="20.5,20.5 18.618,20.5 17.125,15.026 9.556,15.53 8.503,6.055 9.497,5.945 10.444,14.47 
	17.875,13.974 19.382,19.5 20.5,19.5 "/>
<path style="fill:#333333;" d="M9,6.5C7.622,6.5,6.5,5.378,6.5,4S7.622,1.5,9,1.5s2.5,1.122,2.5,2.5S10.378,6.5,9,6.5z M9,2.5
	C8.173,2.5,7.5,3.173,7.5,4S8.173,5.5,9,5.5s1.5-0.673,1.5-1.5S9.827,2.5,9,2.5z"/>
<rect x="12.5" y="9.5" style="fill:#333333;" width="4" height="1"/>
</svg>






