<?xml version="1.0" encoding="iso-8859-1"?>
<svg version="1.1" id="&#x56FE;&#x5C42;_1" xmlns="http://www.w3.org/2000/svg" xmlns:xlink="http://www.w3.org/1999/xlink" x="0px"
	 y="0px" viewBox="0 0 24 24" style="enable-background:new 0 0 24 24;" xml:space="preserve">
<path style="fill:#333333;" d="M12,15c-1.654,0-3-1.346-3-3s1.346-3,3-3s3,1.346,3,3S13.654,15,12,15z M12,10c-1.103,0-2,0.897-2,2
	c0,1.103,0.897,2,2,2c1.103,0,2-0.897,2-2C14,10.897,13.103,10,12,10z"/>
<path style="fill:#333333;" d="M11.75,22.5C8.028,22.5,5,19.472,5,15.75S8.028,9,11.75,9v1C8.58,10,6,12.579,6,15.75
	s2.58,5.75,5.75,5.75V22.5z"/>
<path style="fill:#333333;" d="M15.75,18.5C12.028,18.5,9,15.472,9,11.75h1c0,3.171,2.579,5.75,5.75,5.75s5.75-2.579,5.75-5.75h1
	C22.5,15.472,19.472,18.5,15.75,18.5z"/>
<path style="fill:#333333;" d="M11.75,15v-1c3.171,0,5.75-2.58,5.75-5.75S14.921,2.5,11.75,2.5v-1c3.722,0,6.75,3.028,6.75,6.75
	S15.472,15,11.75,15z"/>
<path style="fill:#333333;" d="M15,11.75h-1C14,8.58,11.42,6,8.25,6S2.5,8.58,2.5,11.75h-1C1.5,8.028,4.528,5,8.25,5
	S15,8.028,15,11.75z"/>
</svg>






