<?xml version="1.0" encoding="iso-8859-1"?>
<svg version="1.1" id="&#x56FE;&#x5C42;_1" xmlns="http://www.w3.org/2000/svg" xmlns:xlink="http://www.w3.org/1999/xlink" x="0px"
	 y="0px" viewBox="0 0 24 24" style="enable-background:new 0 0 24 24;" xml:space="preserve">
<path style="fill:#333333;" d="M13.5,19c-3.86,0-7-3.141-7-7c0-0.686,0.098-1.355,0.291-2H2L1.5,9.5v-4L2,5h11.5c3.859,0,7,3.14,7,7
	C20.5,15.859,17.359,19,13.5,19z M2.5,9h5l0.461,0.693C7.655,10.422,7.5,11.199,7.5,12c0,3.309,2.691,6,6,6s6-2.691,6-6
	s-2.691-6-6-6h-11V9z"/>
<rect x="13" y="5.5" style="fill:#333333;" width="1" height="3"/>
<rect x="20" y="11.5" style="fill:#333333;" width="2" height="1"/>
</svg>






