<?xml version="1.0" encoding="iso-8859-1"?>
<svg version="1.1" id="&#x56FE;&#x5C42;_1" xmlns="http://www.w3.org/2000/svg" xmlns:xlink="http://www.w3.org/1999/xlink" x="0px"
	 y="0px" viewBox="0 0 24 24" style="enable-background:new 0 0 24 24;" xml:space="preserve">
<path style="fill:#333333;" d="M2.344,9.846L1.656,9.119C1.96,8.831,2.274,8.558,2.595,8.3c5.83-4.678,14.319-4.326,19.749,0.82
	l-0.688,0.726C16.587,5.043,8.662,4.712,3.222,9.08C2.921,9.321,2.628,9.576,2.344,9.846z"/>
<path style="fill:#333333;" d="M18.646,13.253c-3.664-3.664-9.628-3.664-13.293,0l-0.707-0.707c4.055-4.055,10.652-4.055,14.707,0
	L18.646,13.253z"/>
<path style="fill:#333333;" d="M15.646,16.511C14.673,15.536,13.378,15,12,15c-1.377,0-2.672,0.536-3.646,1.511l-0.707-0.707
	C8.809,14.641,10.355,14,12,14s3.19,0.641,4.354,1.804L15.646,16.511z"/>
<path style="fill-rule:evenodd;clip-rule:evenodd;fill:#333333;" d="M12,20c0.69,0,1.25-0.56,1.25-1.25S12.69,17.5,12,17.5
	s-1.25,0.56-1.25,1.25S11.31,20,12,20z"/>
</svg>






