<?xml version="1.0" encoding="iso-8859-1"?>
<svg version="1.1" id="&#x56FE;&#x5C42;_1" xmlns="http://www.w3.org/2000/svg" xmlns:xlink="http://www.w3.org/1999/xlink" x="0px"
	 y="0px" viewBox="0 0 24 24" style="enable-background:new 0 0 24 24;" xml:space="preserve">
<rect x="11.5" y="15" style="fill:#333333;" width="1" height="7"/>
<path style="fill:#333333;" d="M23.35,19H22.5c-0.247,0-5.959-0.045-10.5-3.84C7.459,18.955,1.747,19,1.5,19H0.691l0.362-0.724
	c0.104-0.207,2.555-5.008,7.95-7.123c0.085-6.367,2.508-9.348,2.613-9.474L12,1.219l0.384,0.461c0.105,0.126,2.535,3.116,2.614,9.5
	c5.384,2.56,7.836,6.891,7.939,7.077L23.35,19z M12,2.896c-0.675,1.133-2,3.951-2,8.604v0.35l-0.329,0.12
	c-3.951,1.437-6.323,4.522-7.26,5.972c1.812-0.178,5.976-0.898,9.257-3.815L12,13.831l0.332,0.295
	c3.256,2.895,7.365,3.627,9.203,3.812c-0.981-1.379-3.348-4.212-7.242-5.982L14,11.822V11.5C14,6.847,12.675,4.029,12,2.896z"/>
<circle style="fill:#333333;" cx="12" cy="12" r="1"/>
</svg>






