<?xml version="1.0" encoding="iso-8859-1"?>
<svg version="1.1" id="&#x56FE;&#x5C42;_1" xmlns="http://www.w3.org/2000/svg" xmlns:xlink="http://www.w3.org/1999/xlink" x="0px"
	 y="0px" viewBox="0 0 24 24" style="enable-background:new 0 0 24 24;" xml:space="preserve">
<path style="fill:#333333;" d="M5.5,12.5V6.767l6.15-5.15l0.821,0.382l0.031,10.498L5.5,12.5z M6.5,7.233V11.5l4.999-0.003
	l-0.025-8.428L6.5,7.233z"/>
<path style="fill:#333333;" d="M11.504,12.502L11.5,5.5h5.734l5.15,6.15l-0.382,0.821L11.504,12.502z M12.5,6.5l0.004,4.999
	l8.428-0.025L16.767,6.5H12.5z"/>
<path style="fill:#333333;" d="M12.351,22.384l-0.821-0.382l-0.031-10.498L18.5,11.5v5.734L12.351,22.384z M12.502,12.504
	l0.024,8.428l4.974-4.165V12.5L12.502,12.504z"/>
<path style="fill:#333333;" d="M12.5,18.5H6.767l-5.15-6.149l0.382-0.821l10.498-0.031L12.5,18.5z M7.233,17.5H11.5l-0.003-4.998
	l-8.428,0.024L7.233,17.5z"/>
</svg>






