<?xml version="1.0" encoding="iso-8859-1"?>
<svg version="1.1" id="&#x56FE;&#x5C42;_1" xmlns="http://www.w3.org/2000/svg" xmlns:xlink="http://www.w3.org/1999/xlink" x="0px"
	 y="0px" viewBox="0 0 24 24" style="enable-background:new 0 0 24 24;" xml:space="preserve">
<path style="fill:#333333;" d="M6,13H5c-1.378,0-2.5-1.122-2.5-2.5S3.622,8,5,8h1v1H5c-0.827,0-1.5,0.673-1.5,1.5S4.173,12,5,12h1
	V13z"/>
<path style="fill:#333333;" d="M11,21H9.5C8.122,21,7,19.879,7,18.5S8.122,16,9.5,16H11v1H9.5C8.673,17,8,17.673,8,18.5
	S8.673,20,9.5,20H11V21z"/>
<path style="fill:#333333;" d="M13.5,8H12c-1.378,0-2.5-1.122-2.5-2.5S10.622,3,12,3h1.5v1H12c-0.827,0-1.5,0.673-1.5,1.5
	S11.173,7,12,7h1.5V8z"/>
<rect x="12" y="7" style="fill:#333333;" width="8" height="1"/>
<rect x="6" y="12" style="fill:#333333;" width="15" height="1"/>
<rect x="11" y="16" style="fill:#333333;" width="6" height="1"/>
</svg>






