<?xml version="1.0" encoding="iso-8859-1"?>
<svg version="1.1" id="&#x56FE;&#x5C42;_1" xmlns="http://www.w3.org/2000/svg" xmlns:xlink="http://www.w3.org/1999/xlink" x="0px"
	 y="0px" viewBox="0 0 24 24" style="enable-background:new 0 0 24 24;" xml:space="preserve">
<path style="fill:#333333;" d="M12,12.5h-0.5v-11H12c3.032,0,5.5,2.467,5.5,5.5S15.032,12.5,12,12.5z M12.5,2.528v8.944
	c2.247-0.25,4-2.16,4-4.472S14.747,2.777,12.5,2.528z"/>
<path style="fill:#333333;" d="M17,17.5c-3.032,0-5.5-2.468-5.5-5.5v-0.5h11V12C22.5,15.032,20.032,17.5,17,17.5z M12.527,12.5
	c0.25,2.247,2.16,4,4.473,4s4.223-1.753,4.473-4H12.527z"/>
<path style="fill:#333333;" d="M12.5,12.5h-11V12c0-3.033,2.467-5.5,5.5-5.5s5.5,2.467,5.5,5.5V12.5z M2.528,11.5h8.944
	c-0.25-2.247-2.16-4-4.472-4S2.777,9.253,2.528,11.5z"/>
<path style="fill:#333333;" d="M12.5,22.5H12c-3.033,0-5.5-2.468-5.5-5.5s2.467-5.5,5.5-5.5h0.5V22.5z M11.5,12.527
	c-2.247,0.25-4,2.16-4,4.473s1.753,4.223,4,4.473V12.527z"/>
</svg>






