<?xml version="1.0" encoding="iso-8859-1"?>
<svg version="1.1" id="&#x56FE;&#x5C42;_1" xmlns="http://www.w3.org/2000/svg" xmlns:xlink="http://www.w3.org/1999/xlink" x="0px"
	 y="0px" viewBox="0 0 24 24" style="enable-background:new 0 0 24 24;" xml:space="preserve">
<path style="fill:#333333;" d="M18,22.5H3.401l0.585-3.219l0.983,0.18L4.599,21.5H18V22.5z M19.054,19.59l-1.7-9.348l0.984-0.179
	l1.7,9.347L19.054,19.59z M5.81,14.84l-0.983-0.18l1.468-8.072l0.983,0.179L5.81,14.84z M16.767,7.013l-0.214-1.177L13.342,4.23
	c-0.84-0.42-1.844-0.42-2.684,0L8.914,5.102L8.467,4.208l1.744-0.872c1.12-0.56,2.457-0.56,3.578,0l3.658,1.829l0.304,1.669
	L16.767,7.013z"/>
<path style="fill:#333333;" d="M17,11.292c-0.256,0-0.512-0.098-0.707-0.292L15,9.707c-0.39-0.39-0.39-1.024,0-1.414L19.293,4
	c0.391-0.39,1.023-0.39,1.414,0L22,5.293c0.39,0.39,0.39,1.024,0,1.414L17.707,11C17.512,11.195,17.256,11.292,17,11.292z M20,4.707
	L15.707,9L17,10.293L21.293,6L20,4.707z"/>
<rect x="13.086" y="9" transform="matrix(0.7071 -0.7071 0.7071 0.7071 -2.4706 13.0355)" style="fill:#333333;" width="2.828" height="1"/>
<path style="fill:#333333;" d="M18,22.292c-0.256,0-0.512-0.097-0.707-0.292L13,17.707c-0.39-0.39-0.39-1.024,0-1.414L14.293,15
	c0.391-0.391,1.023-0.391,1.414,0L20,19.293c0.39,0.39,0.39,1.024,0,1.414L18.707,22C18.512,22.195,18.256,22.292,18,22.292z
	 M15,15.707L13.707,17L18,21.293L19.293,20L15,15.707z"/>
<rect x="14" y="13.086" transform="matrix(0.7071 -0.7071 0.7071 0.7071 -6.0061 14.5)" style="fill:#333333;" width="1" height="2.828"/>
<path style="fill:#333333;" d="M4,20.292c-0.256,0-0.512-0.097-0.707-0.292L2,18.707c-0.39-0.39-0.39-1.024,0-1.414L6.293,13
	c0.39-0.391,1.024-0.391,1.414,0L9,14.293c0.39,0.39,0.39,1.024,0,1.414L4.707,20C4.512,20.195,4.256,20.292,4,20.292z M7,13.707
	L2.707,18L4,19.293L8.293,15L7,13.707z"/>
<rect x="8.086" y="14" transform="matrix(0.7071 -0.7071 0.7071 0.7071 -7.4706 10.9645)" style="fill:#333333;" width="2.828" height="1"/>
<path style="fill:#333333;" d="M9,9.292C8.744,9.292,8.488,9.195,8.293,9L4,4.707c-0.39-0.39-0.39-1.024,0-1.414L5.293,2
	c0.39-0.39,1.024-0.39,1.414,0L11,6.293c0.39,0.39,0.39,1.024,0,1.414L9.707,9C9.512,9.195,9.256,9.292,9,9.292z M4.707,4L9,8.293
	L10.293,7L6,2.707L4.707,4z"/>
<rect x="9" y="8.086" transform="matrix(0.7071 -0.7071 0.7071 0.7071 -3.935 9.5)" style="fill:#333333;" width="1" height="2.828"/>
<path style="fill:#333333;" d="M12,14.5c-1.378,0-2.5-1.121-2.5-2.5c0-1.378,1.122-2.5,2.5-2.5c1.379,0,2.5,1.122,2.5,2.5
	C14.5,13.379,13.379,14.5,12,14.5z M12,10.5c-0.827,0-1.5,0.673-1.5,1.5s0.673,1.5,1.5,1.5s1.5-0.673,1.5-1.5S12.827,10.5,12,10.5z"
	/>
</svg>






