<?xml version="1.0" encoding="iso-8859-1"?>
<svg version="1.1" id="&#x56FE;&#x5C42;_1" xmlns="http://www.w3.org/2000/svg" xmlns:xlink="http://www.w3.org/1999/xlink" x="0px"
	 y="0px" viewBox="0 0 24 24" style="enable-background:new 0 0 24 24;" xml:space="preserve">
<path style="fill:#333333;" d="M10.344,11.206H2.875V5.093l7.469-0.996V11.206z M3.875,10.206h5.469V5.24L3.875,5.969V10.206z"/>
<path style="fill:#333333;" d="M21.125,11.206h-9.194V3.982l9.194-1.175V11.206z M12.931,10.206h7.194V3.943l-7.194,0.919V10.206z"
	/>
<path style="fill:#333333;" d="M21.125,21.214l-9.194-1.506v-6.495l9.194,0.216V21.214z M12.931,18.858l7.194,1.178v-5.631
	l-7.194-0.169V18.858z"/>
<path style="fill:#333333;" d="M10.344,19.492l-7.469-1.26v-5.45l7.469,0.179V19.492z M3.875,17.387l5.469,0.922v-4.371
	l-5.469-0.132V17.387z"/>
</svg>






