<?xml version="1.0" encoding="iso-8859-1"?>
<svg version="1.1" id="&#x56FE;&#x5C42;_1" xmlns="http://www.w3.org/2000/svg" xmlns:xlink="http://www.w3.org/1999/xlink" x="0px"
	 y="0px" viewBox="0 0 24 24" style="enable-background:new 0 0 24 24;" xml:space="preserve">
<path style="fill:#333333;" d="M12,7.5c-1.654,0-3-1.346-3-3s1.346-3,3-3s3,1.346,3,3S13.654,7.5,12,7.5z M12,2.5
	c-1.103,0-2,0.897-2,2s0.897,2,2,2c1.103,0,2-0.897,2-2S13.103,2.5,12,2.5z"/>
<path style="fill:#333333;" d="M16.5,22.5h-9L7,22v-3.5H4L3.5,18c0-4.607,3.893-8.5,8.5-8.5c2.243,0,4.371,0.894,5.993,2.518
	c1.619,1.621,2.51,3.746,2.507,5.983L20,18.5h-3V22L16.5,22.5z M8,21.5h8V18l0.5-0.5h2.983c-0.119-1.785-0.889-3.466-2.197-4.775
	C15.853,11.29,13.976,10.5,12,10.5c-3.897,0-7.215,3.157-7.482,7H7.5L8,18V21.5z"/>
<rect x="7" y="11.5" style="fill:#333333;" width="1" height="6.5"/>
<rect x="16" y="11.5" style="fill:#333333;" width="1" height="6.5"/>
<rect x="11.5" y="10" style="fill:#333333;" width="1" height="12"/>
</svg>






