<?xml version="1.0" encoding="iso-8859-1"?>
<svg version="1.1" id="&#x56FE;&#x5C42;_1" xmlns="http://www.w3.org/2000/svg" xmlns:xlink="http://www.w3.org/1999/xlink" x="0px"
	 y="0px" viewBox="0 0 24 24" style="enable-background:new 0 0 24 24;" xml:space="preserve">
<path style="fill:#333333;" d="M16.596,12.596l-0.707-0.707C16.928,10.85,17.5,9.469,17.5,8c0-3.033-2.468-5.5-5.5-5.5
	C8.967,2.5,6.5,4.967,6.5,8c0,1.469,0.572,2.85,1.611,3.889l-0.707,0.707C6.176,11.369,5.5,9.736,5.5,8c0-3.584,2.916-6.5,6.5-6.5
	s6.5,2.916,6.5,6.5C18.5,9.736,17.823,11.368,16.596,12.596z"/>
<polygon style="fill:#333333;" points="20.51,22.098 20.048,19.789 15.052,16.155 12,19.207 8.949,16.155 3.952,19.789 3.49,22.098 
	2.51,21.902 3.048,19.211 9.051,14.845 12,17.793 14.948,14.845 20.952,19.211 21.49,21.902 "/>
<path style="fill:#333333;" d="M17.644,11.113l-0.967-0.258c0.272-1.02-0.643-1.714-1.603-2.339l-0.219-0.143
	c-0.313-0.211-1.119-0.348-1.829-0.469c-0.734-0.125-1.429-0.243-1.885-0.467c-0.618-0.302-0.974-0.954-1.261-1.478
	C9.763,5.744,9.585,5.419,9.494,5.359C9.23,5.245,8.776,5.048,7.91,6.287c-0.6,0.857-0.907,2.277-0.913,4.218l-1-0.003
	c0.007-2.18,0.364-3.746,1.094-4.789c0.911-1.302,1.805-1.706,2.812-1.267c0.381,0.166,0.601,0.567,0.856,1.033
	c0.23,0.421,0.491,0.897,0.823,1.06c0.327,0.16,0.98,0.271,1.612,0.379c0.889,0.151,1.729,0.294,2.221,0.625l0.205,0.135
	C16.433,8.207,18.125,9.308,17.644,11.113z"/>
</svg>






