<?xml version="1.0" encoding="iso-8859-1"?>
<svg version="1.1" id="&#x56FE;&#x5C42;_1" xmlns="http://www.w3.org/2000/svg" xmlns:xlink="http://www.w3.org/1999/xlink" x="0px"
	 y="0px" viewBox="0 0 24 24" style="enable-background:new 0 0 24 24;" xml:space="preserve">
<path style="fill:#333333;" d="M21.045,22.5H2.956c-0.516,0-0.944-0.41-0.955-0.914c-0.016-0.855,0.224-1.588,0.711-2.177
	c0.399-0.483,0.959-0.865,1.712-1.169c0.634-0.256,1.34-0.43,1.952-0.573l0.402-0.092c0.505-0.115,0.998-0.228,1.467-0.367
	c0.344-0.102,0.546-0.325,0.656-0.726c0.051-0.187,0.111-0.436,0.167-0.696c-1.821-0.468-3.186-1.362-4.034-2.058L4.53,13.315
	l0.529-0.38c1.265-0.907,1.077-1.944,0.926-2.777l-0.05-0.294c-0.416-2.787-0.105-4.806,0.923-6
	c0.784-0.909,1.811-1.149,2.588-1.178c2.17-1.553,3.777-1.304,4.749-0.815c1.71,0.861,2.814,3.21,2.814,5.986
	c0.088,2.802,1.318,3.98,1.979,4.613l0.417,0.399l-0.447,0.362c-1.333,1.043-2.703,1.811-4.079,2.284
	c0.067,0.354,0.153,0.72,0.221,0.966c0.109,0.4,0.312,0.624,0.655,0.726c0.471,0.14,0.963,0.252,1.467,0.367l0.399,0.092
	c0.616,0.144,1.323,0.318,1.956,0.573c0.753,0.304,1.312,0.687,1.712,1.169c0.487,0.589,0.727,1.321,0.71,2.176
	C21.99,22.089,21.562,22.5,21.045,22.5z M6.147,13.324c0.846,0.609,2.06,1.277,3.602,1.593l0.474,0.098l-0.082,0.477
	c-0.075,0.439-0.188,0.935-0.276,1.255c-0.203,0.74-0.652,1.219-1.336,1.421C8.04,18.312,7.526,18.431,7,18.55l-0.4,0.092
	c-0.572,0.134-1.233,0.297-1.802,0.526c-0.595,0.239-1.025,0.526-1.315,0.878C3.146,20.452,2.989,20.949,3,21.565L21.045,21.5
	c-0.034-0.551-0.191-1.048-0.526-1.454c-0.291-0.351-0.721-0.638-1.316-0.878c-0.566-0.229-1.229-0.392-1.806-0.526L17,18.55
	c-0.526-0.119-1.04-0.237-1.529-0.383c-0.683-0.202-1.132-0.68-1.336-1.42c-0.103-0.376-0.245-1.006-0.315-1.503l-0.06-0.426
	l0.41-0.123c1.244-0.375,2.493-1.016,3.72-1.908c-0.768-0.811-1.797-2.239-1.881-4.914c0-2.417-0.889-4.416-2.265-5.108
	c-1.061-0.535-2.388-0.25-3.833,0.821L9.778,3.685H9.613c-0.849,0-1.521,0.28-1.997,0.833c-0.818,0.95-1.058,2.748-0.691,5.2
	L6.969,9.98C7.109,10.757,7.358,12.131,6.147,13.324z"/>
</svg>






