<?xml version="1.0" encoding="iso-8859-1"?>
<svg version="1.1" id="&#x56FE;&#x5C42;_1" xmlns="http://www.w3.org/2000/svg" xmlns:xlink="http://www.w3.org/1999/xlink" x="0px"
	 y="0px" viewBox="0 0 24 24" style="enable-background:new 0 0 24 24;" xml:space="preserve">
<path style="fill:#333333;" d="M17.5,22.5h-11V16H2.337L5.599,4.585l0.28-0.07c1.771-0.443,3.179-2.75,3.192-2.773L9.217,1.5
	l5.571,0l0.145,0.25c0.015,0.024,1.414,2.41,3.165,2.76l0.3,0.06L21.663,16H17.5V22.5z M7.5,21.5h9V15h3.837l-2.738-9.585
	C15.919,4.913,14.65,3.16,14.222,2.5H9.773c-0.43,0.639-1.697,2.339-3.368,2.902L3.663,15H7.5V21.5z"/>
<polygon style="fill:#333333;" points="12.471,9.168 11.529,9.168 9.029,2.168 9.971,1.832 12,7.513 14.029,1.832 14.971,2.168 "/>
<rect x="11.5" y="9" style="fill:#333333;" width="1" height="13"/>
</svg>






