<?xml version="1.0" encoding="iso-8859-1"?>
<svg version="1.1" id="&#x56FE;&#x5C42;_1" xmlns="http://www.w3.org/2000/svg" xmlns:xlink="http://www.w3.org/1999/xlink" x="0px"
	 y="0px" viewBox="0 0 24 24" style="enable-background:new 0 0 24 24;" xml:space="preserve">
<path style="fill:#333333;" d="M21,22.5H3c-0.827,0-1.5-0.673-1.5-1.5v-3c0-0.827,0.673-1.5,1.5-1.5h18c0.827,0,1.5,0.673,1.5,1.5v3
	C22.5,21.827,21.827,22.5,21,22.5z M3,17.5c-0.276,0-0.5,0.225-0.5,0.5v3c0,0.275,0.224,0.5,0.5,0.5h18c0.275,0,0.5-0.225,0.5-0.5
	v-3c0-0.275-0.225-0.5-0.5-0.5H3z"/>
<rect x="7" y="13" style="fill:#333333;" width="1" height="4"/>
<rect x="11.5" y="13" style="fill:#333333;" width="1" height="4"/>
<rect x="16" y="13" style="fill:#333333;" width="1" height="4"/>
<path style="fill:#333333;" d="M12,6.5c-1.378,0-2.5-1.122-2.5-2.5s1.122-2.5,2.5-2.5c1.379,0,2.5,1.122,2.5,2.5S13.379,6.5,12,6.5z
	 M12,2.5c-0.827,0-1.5,0.673-1.5,1.5s0.673,1.5,1.5,1.5s1.5-0.673,1.5-1.5S12.827,2.5,12,2.5z"/>
<path style="fill:#333333;" d="M20.5,17h-1c0-4.889-0.853-10.5-7.5-10.5S4.5,12.111,4.5,17h-1c0-3.146,0-11.5,8.5-11.5
	S20.5,13.854,20.5,17z"/>
</svg>






