<?xml version="1.0" encoding="iso-8859-1"?>
<svg version="1.1" id="&#x56FE;&#x5C42;_1" xmlns="http://www.w3.org/2000/svg" xmlns:xlink="http://www.w3.org/1999/xlink" x="0px"
	 y="0px" viewBox="0 0 24 24" style="enable-background:new 0 0 24 24;" xml:space="preserve">
<path style="fill:#333333;" d="M19.5,21.5h-15c-1.103,0-2-0.897-2-2v-15c0-1.103,0.897-2,2-2h15c1.103,0,2,0.897,2,2v15
	C21.5,20.603,20.603,21.5,19.5,21.5z M4.5,3.5c-0.551,0-1,0.449-1,1v15c0,0.552,0.449,1,1,1h15c0.552,0,1-0.448,1-1v-15
	c0-0.551-0.448-1-1-1H4.5z"/>
<polygon style="fill:#333333;" points="14.546,16.21 12,10.693 9.454,16.21 8.515,16.121 6.515,8.121 7.485,7.879 9.141,14.502 
	11.546,9.291 12.454,9.291 14.859,14.502 16.515,7.879 17.485,8.121 15.485,16.121 "/>
</svg>






