<?xml version="1.0" encoding="iso-8859-1"?>
<svg version="1.1" id="&#x56FE;&#x5C42;_1" xmlns="http://www.w3.org/2000/svg" xmlns:xlink="http://www.w3.org/1999/xlink" x="0px"
	 y="0px" viewBox="0 0 24 24" style="enable-background:new 0 0 24 24;" xml:space="preserve">
<path style="fill:#333333;" d="M12,12.5c-2.481,0-4.5-2.019-4.5-4.5h1c0,1.93,1.57,3.5,3.5,3.5s3.5-1.57,3.5-3.5h1
	C16.5,10.481,14.481,12.5,12,12.5z"/>
<path style="fill:#333333;" d="M16.5,8.5h-9V8c0-2.481,2.019-4.5,4.5-4.5s4.5,2.019,4.5,4.5V8.5z M8.536,7.5h6.929
	c-0.244-1.694-1.705-3-3.465-3C10.24,4.5,8.779,5.806,8.536,7.5z"/>
<rect x="6" y="7.5" style="fill:#333333;" width="12" height="1"/>
<rect x="11.5" y="2" style="fill:#333333;" width="1" height="2"/>
<path style="fill:#333333;" d="M21,22H3v-0.5c0-4.687,4.038-8.5,9-8.5c4.963,0,9,3.813,9,8.5V22z M4.018,21h15.965
	c-0.275-3.903-3.751-7-7.982-7C7.768,14,4.293,17.097,4.018,21z"/>
<rect x="8.5" y="17" style="fill:#333333;" width="1" height="2"/>
<rect x="14.5" y="17" style="fill:#333333;" width="1" height="2"/>
</svg>






