<?xml version="1.0" encoding="iso-8859-1"?>
<svg version="1.1" id="&#x56FE;&#x5C42;_1" xmlns="http://www.w3.org/2000/svg" xmlns:xlink="http://www.w3.org/1999/xlink" x="0px"
	 y="0px" viewBox="0 0 24 24" style="enable-background:new 0 0 24 24;" xml:space="preserve">
<path style="fill:#333333;" d="M12,22.5C6.21,22.5,1.5,17.79,1.5,12C1.5,6.21,6.21,1.5,12,1.5c5.79,0,10.5,4.71,10.5,10.5
	C22.5,17.79,17.79,22.5,12,22.5z M12,2.5c-5.238,0-9.5,4.262-9.5,9.5s4.262,9.5,9.5,9.5s9.5-4.262,9.5-9.5S17.238,2.5,12,2.5z"/>
<path style="fill:#333333;" d="M7.864,13.434c-0.158,0-0.312-0.021-0.46-0.062c-0.847-0.237-1.278-1.07-1.659-1.805
	c-0.22-0.424-0.447-0.863-0.689-1.036c-0.562-0.398-1.517-0.283-2.842,0.342L1.787,9.968c1.699-0.802,2.958-0.885,3.848-0.253
	c0.44,0.313,0.724,0.861,0.999,1.391c0.301,0.581,0.612,1.182,1.041,1.302c0.271,0.078,0.641-0.025,1.096-0.303
	c0.562-0.342,0.637-0.549,0.647-0.604c0.027-0.157-0.203-0.445-0.426-0.723C8.5,10.165,7.828,9.327,8.266,8.081
	c0.464-1.319,1.495-1.519,2.248-1.665c0.767-0.149,1.152-0.223,1.243-1.087c0.032-0.304-0.039-0.532-0.223-0.718
	c-0.42-0.425-1.617-0.867-4.928-0.554L6.511,3.062c3.015-0.283,4.889-0.006,5.733,0.846c0.394,0.398,0.568,0.926,0.506,1.526
	c-0.167,1.6-1.253,1.811-2.046,1.965C9.924,7.549,9.47,7.671,9.209,8.413c-0.237,0.673,0.054,1.106,0.562,1.739
	c0.362,0.452,0.736,0.919,0.63,1.522c-0.082,0.464-0.435,0.873-1.112,1.285C8.768,13.276,8.297,13.434,7.864,13.434z"/>
<path style="fill:#333333;" d="M15.437,21.752l-0.859-0.51c1.358-2.288,1.644-3.455,1.644-4.031c0-0.361-0.338-0.664-0.889-1.128
	c-0.747-0.629-1.77-1.49-1.909-3.107c-0.056-0.643,0.123-1.182,0.529-1.603c1.055-1.092,3.372-0.973,4.488-0.916
	c0.165,0.008,0.299,0.016,0.389,0.016c0.065-0.026,0.228-0.299,0.195-0.679C19,9.495,18.858,9.116,18.325,9.009
	c-0.591-0.119-0.998-0.002-1.43,0.121c-0.586,0.167-1.25,0.356-2.146-0.183c-0.315-0.189-0.506-0.488-0.537-0.84
	c-0.057-0.632,0.286-1.714,3.459-4.483l0.658,0.753c-2.966,2.589-3.139,3.442-3.121,3.642c0.582,0.388,0.897,0.297,1.413,0.149
	c0.478-0.137,1.072-0.307,1.901-0.14c1.152,0.232,1.582,1.208,1.495,2.072c-0.08,0.808-0.569,1.372-1.188,1.372
	c-0.102,0-0.253-0.007-0.439-0.017c-0.892-0.047-2.98-0.153-3.719,0.612c-0.202,0.21-0.282,0.471-0.252,0.822
	c0.104,1.205,0.843,1.827,1.557,2.429c0.612,0.515,1.245,1.048,1.245,1.893C17.221,18.246,16.637,19.731,15.437,21.752z"/>
<path style="fill:#333333;" d="M11.445,22.181l-0.883-0.471c0.419-0.786,0.632-1.488,0.632-2.088c0-0.248-0.102-0.327-0.68-0.529
	c-0.333-0.117-0.71-0.249-0.985-0.536c-0.292-0.307-0.347-0.716-0.399-1.112c-0.083-0.617-0.154-1.15-0.97-1.511
	C7.361,15.58,6.051,15.77,4.268,16.49c-0.227,0.092-0.565,0.235-1.016,0.431l-0.399-0.916c0.461-0.201,0.808-0.349,1.04-0.442
	c2.075-0.838,3.602-1.017,4.671-0.543c1.329,0.586,1.466,1.613,1.557,2.293c0.029,0.215,0.064,0.482,0.132,0.554
	c0.108,0.113,0.354,0.199,0.592,0.282c0.537,0.188,1.349,0.473,1.349,1.474C12.193,20.388,11.942,21.248,11.445,22.181z"/>
</svg>






