<?xml version="1.0" encoding="iso-8859-1"?>
<svg version="1.1" id="&#x56FE;&#x5C42;_1" xmlns="http://www.w3.org/2000/svg" xmlns:xlink="http://www.w3.org/1999/xlink" x="0px"
	 y="0px" viewBox="0 0 24 24" style="enable-background:new 0 0 24 24;" xml:space="preserve">
<path style="fill:#333333;" d="M22.5,21.5h-21V9.74L12,2.39l10.5,7.35V21.5z M2.5,20.5h19V10.26L12,3.61l-9.5,6.65V20.5z"/>
<path style="fill:#333333;" d="M17.304,13.696c-0.701-0.7-1.521-1.247-2.434-1.625c-1.831-0.759-3.911-0.759-5.74,0
	c-0.914,0.378-1.732,0.925-2.433,1.625L5.99,12.989c0.794-0.794,1.722-1.413,2.757-1.842c2.075-0.858,4.431-0.858,6.506,0
	c1.035,0.428,1.963,1.048,2.758,1.842L17.304,13.696z"/>
<path style="fill:#333333;" d="M9.525,16.525l-0.708-0.707c0.419-0.419,0.911-0.748,1.46-0.976c1.098-0.455,2.345-0.455,3.444,0
	c0.551,0.229,1.042,0.557,1.461,0.976l-0.709,0.707c-0.324-0.326-0.706-0.581-1.135-0.759c-0.854-0.354-1.825-0.354-2.678,0
	C10.233,15.944,9.851,16.199,9.525,16.525z"/>
</svg>






