<?xml version="1.0" encoding="iso-8859-1"?>
<svg version="1.1" id="&#x56FE;&#x5C42;_1" xmlns="http://www.w3.org/2000/svg" xmlns:xlink="http://www.w3.org/1999/xlink" x="0px"
	 y="0px" viewBox="0 0 24 24" style="enable-background:new 0 0 24 24;" xml:space="preserve">
<path style="fill:#333333;" d="M12,21.667c-1.451,0-2.634-1.084-2.94-2.131c-0.055-0.19-0.104-0.424-0.156-0.685
	c-0.174-0.859-0.39-1.928-1.171-2.629c-0.609-0.546-1.415-0.737-2.195-0.922c-0.548-0.13-1.065-0.252-1.483-0.497
	C3.161,14.281,2.333,13.579,2.333,12c0-5.33,4.336-9.667,9.667-9.667S21.667,6.67,21.667,12S17.33,21.667,12,21.667z M12,3.333
	c-4.779,0-8.667,3.888-8.667,8.667c0,1.028,0.431,1.476,1.226,1.94c0.289,0.17,0.736,0.275,1.208,0.388
	c0.817,0.193,1.833,0.434,2.632,1.15c1.028,0.922,1.302,2.277,1.483,3.175c0.047,0.229,0.087,0.435,0.136,0.603
	c0.173,0.592,0.957,1.411,1.98,1.411c4.779,0,8.667-3.888,8.667-8.667C20.667,7.221,16.779,3.333,12,3.333z"/>
<path style="fill:#333333;" d="M11.122,15.775c-0.937,0-1.778-0.65-1.984-1.599c-0.185-0.854-0.279-1.729-0.279-2.6
	c0-0.944,0.148-1.784,0.441-2.496v0c0.35-0.849,1.23-1.359,2.141-1.238c0.759,0.1,1.539,0.393,2.319,0.871
	c0.706,0.432,1.396,0.929,2.05,1.478l0.076,0.067c0.816,0.754,0.867,2.04,0.108,2.861c-0.569,0.615-1.191,1.131-1.851,1.534
	c-0.702,0.43-1.535,0.782-2.477,1.047l-0.112,0.028C11.41,15.76,11.265,15.775,11.122,15.775z M10.226,9.46L10.226,9.46
	c-0.243,0.591-0.366,1.303-0.366,2.116c0,0.799,0.086,1.603,0.256,2.389c0.12,0.554,0.667,0.906,1.222,0.787
	c0.912-0.255,1.661-0.57,2.285-0.953c0.58-0.354,1.132-0.812,1.638-1.359c0.385-0.416,0.359-1.068-0.057-1.452
	c-0.652-0.549-1.301-1.017-1.965-1.423c-0.66-0.404-1.309-0.651-1.929-0.732C10.853,8.773,10.403,9.03,10.226,9.46z"/>
</svg>






