<?xml version="1.0" encoding="iso-8859-1"?>
<svg version="1.1" id="&#x56FE;&#x5C42;_1" xmlns="http://www.w3.org/2000/svg" xmlns:xlink="http://www.w3.org/1999/xlink" x="0px"
	 y="0px" viewBox="0 0 24 24" style="enable-background:new 0 0 24 24;" xml:space="preserve">
<path style="fill:#333333;" d="M7.778,19.5L4.089,5.509C4.073,5.451,4.08,5.389,4.11,5.336c0.029-0.053,0.078-0.091,0.136-0.108
	C4.277,5.217,4.31,5.214,4.343,5.219c0.033,0.005,0.063,0.019,0.089,0.04l16.804,13.836c0.042,0.039,0.069,0.092,0.075,0.15
	c0.006,0.057-0.009,0.115-0.043,0.162c-0.015,0.029-0.037,0.053-0.064,0.069c-0.028,0.017-0.059,0.025-0.091,0.025H7.778z"/>
<path style="fill:#333333;" d="M22.49,4.79c0.016-0.058,0.009-0.12-0.02-0.172c-0.029-0.052-0.078-0.091-0.135-0.108
	c-0.031-0.01-0.065-0.012-0.098-0.007c-0.033,0.005-0.064,0.018-0.09,0.038l-9.058,6.245l6.497,5.34L22.49,4.79z"/>
<path style="fill:#333333;" d="M1.094,19.094c-0.046,0.036-0.078,0.087-0.089,0.144c-0.011,0.057-0.002,0.117,0.027,0.167
	c0.021,0.03,0.049,0.054,0.082,0.07c0.033,0.016,0.069,0.024,0.105,0.024H6.53l-0.906-3.529L1.094,19.094z"/>
</svg>






