<?xml version="1.0" encoding="iso-8859-1"?>
<svg version="1.1" id="&#x56FE;&#x5C42;_1" xmlns="http://www.w3.org/2000/svg" xmlns:xlink="http://www.w3.org/1999/xlink" x="0px"
	 y="0px" viewBox="0 0 24 24" style="enable-background:new 0 0 24 24;" xml:space="preserve">
<path style="fill:#333333;" d="M12.121,22.471c-1.47,0-2.98-0.342-4.345-1.023C5.098,20.108,3,17.166,3,14.75
	c0-1.564,2.145-2.6,3.422-3.078L5.298,4.029C5.204,3.394,5.389,2.751,5.808,2.265C6.227,1.779,6.835,1.5,7.477,1.5
	c1.123,0,2.064,0.842,2.189,1.958l0.156,1.41l0.094-1.78C9.978,1.917,10.945,1,12.117,1c0.621,0,1.217,0.264,1.634,0.725
	s0.621,1.08,0.559,1.699l-0.366,3.661C14.11,7.029,14.289,7,14.474,7c1.188,0,2.187,0.824,2.455,1.93
	C17.3,8.66,17.757,8.5,18.25,8.5c1.24,0,2.25,1.009,2.25,2.25v5.324c0,0.4-0.05,0.721-0.158,1.007
	c-0.362,0.96-1.376,2.8-4.094,4.354l0,0C15.04,22.125,13.601,22.471,12.121,22.471z M7.477,2.5c-0.351,0-0.683,0.152-0.911,0.418
	C6.337,3.183,6.235,3.534,6.288,3.88l1.144,7.623c0.071,0.472-0.206,0.937-0.659,1.106C5.088,13.238,4,14.079,4,14.75
	c0,2.035,1.895,4.639,4.224,5.803c2.448,1.225,5.402,1.229,7.528,0.013l0,0c2.537-1.449,3.4-3.166,3.654-3.837
	c0.063-0.17,0.094-0.378,0.094-0.654V10.75c0-0.689-0.561-1.25-1.25-1.25S17,10.061,17,10.75h-1V9.527C16,8.685,15.315,8,14.474,8
	c-0.354,0-0.646,0.265-0.684,0.616v0c0,0,0,0,0,0.001l-0.994-0.101l0.52-5.193c0.034-0.343-0.074-0.672-0.306-0.928
	C12.778,2.141,12.462,2,12.117,2c-0.641,0-1.169,0.501-1.203,1.141L10.5,11.026l-0.997,0.029L8.671,3.569
	C8.604,2.96,8.09,2.5,7.477,2.5z"/>
</svg>






