<?xml version="1.0" encoding="iso-8859-1"?>
<svg version="1.1" id="&#x56FE;&#x5C42;_1" xmlns="http://www.w3.org/2000/svg" xmlns:xlink="http://www.w3.org/1999/xlink" x="0px"
	 y="0px" viewBox="0 0 24 24" style="enable-background:new 0 0 24 24;" xml:space="preserve">
<path style="fill:#333333;" d="M11.999,19.5c-1.977,0-4.178-0.078-6.542-0.233c-1.741-0.114-3.111-1.458-3.259-3.197
	c-0.132-1.561-0.199-2.942-0.199-4.107c0-1.151,0.065-2.515,0.195-4.052c0.146-1.738,1.57-3.115,3.313-3.203l0,0
	C8.271,4.57,10.455,4.5,11.999,4.5c1.534,0,3.72,0.07,6.494,0.208c1.744,0.087,3.169,1.465,3.313,3.205
	c0.128,1.523,0.192,2.886,0.192,4.05c0,1.174-0.066,2.556-0.197,4.106c-0.144,1.711-1.544,3.086-3.259,3.198
	C16.178,19.422,13.976,19.5,11.999,19.5z M5.557,5.707C4.312,5.769,3.294,6.752,3.19,7.994c-0.126,1.509-0.191,2.844-0.191,3.968
	c0,1.137,0.066,2.491,0.195,4.023c0.105,1.242,1.084,2.202,2.328,2.283c2.343,0.153,4.522,0.231,6.477,0.231
	c1.955,0,4.135-0.078,6.479-0.231c1.224-0.08,2.225-1.062,2.327-2.284c0.128-1.522,0.193-2.876,0.193-4.022
	c0-1.136-0.063-2.47-0.188-3.967c-0.104-1.242-1.121-2.226-2.367-2.289C15.686,5.569,13.517,5.5,11.999,5.5
	C10.471,5.5,8.304,5.569,5.557,5.707L5.557,5.707z"/>
<path style="fill:#333333;" d="M10.929,15.132c-0.512,0-0.929-0.417-0.929-0.929V9.805c0-0.185,0.054-0.364,0.157-0.517
	c0.286-0.425,0.865-0.539,1.289-0.254l3.3,2.218c0.103,0.07,0.188,0.157,0.256,0.259c0.137,0.206,0.186,0.454,0.136,0.697
	c-0.05,0.244-0.191,0.453-0.398,0.59l-3.298,2.18C11.286,15.079,11.109,15.132,10.929,15.132z M11,9.938v4.146l3.104-2.064L11,9.938
	z"/>
</svg>






