<?xml version="1.0" encoding="iso-8859-1"?>
<svg version="1.1" id="&#x56FE;&#x5C42;_1" xmlns="http://www.w3.org/2000/svg" xmlns:xlink="http://www.w3.org/1999/xlink" x="0px"
	 y="0px" viewBox="0 0 24 24" style="enable-background:new 0 0 24 24;" xml:space="preserve">
<path style="fill:#333333;" d="M12,19.5c-3.616,0-7.219-0.768-9.044-1.225C2.099,18.06,1.5,17.282,1.5,16.384V7.616
	c0-0.898,0.599-1.676,1.456-1.891C4.781,5.268,8.384,4.5,12,4.5c3.615,0,7.219,0.768,9.044,1.225
	C21.901,5.941,22.5,6.719,22.5,7.616v8.768c0,0.898-0.599,1.676-1.455,1.892C19.219,18.732,15.615,19.5,12,19.5z M12,5.5
	c-3.509,0-7.02,0.749-8.801,1.195C2.788,6.798,2.5,7.177,2.5,7.616v8.768c0,0.439,0.288,0.818,0.699,0.921
	C4.98,17.751,8.491,18.5,12,18.5c3.509,0,7.021-0.749,8.802-1.195c0.411-0.103,0.698-0.481,0.698-0.921V7.616
	c0-0.439-0.287-0.818-0.699-0.921C19.021,6.249,15.509,5.5,12,5.5z"/>
<path style="fill:#333333;" d="M11,15.54c-0.157,0-0.315-0.037-0.461-0.113C10.207,15.255,10,14.914,10,14.54V9.46
	c0-0.375,0.206-0.714,0.539-0.887c0.332-0.171,0.729-0.146,1.035,0.068l3.628,2.54c0.268,0.188,0.427,0.494,0.426,0.82
	c0,0.326-0.16,0.632-0.427,0.818l-3.627,2.539C11.402,15.479,11.202,15.54,11,15.54z M11,9.46v5.079L14.628,12L11,9.46z"/>
</svg>






