<?xml version="1.0" encoding="iso-8859-1"?>
<svg version="1.1" id="&#x56FE;&#x5C42;_1" xmlns="http://www.w3.org/2000/svg" xmlns:xlink="http://www.w3.org/1999/xlink" x="0px"
	 y="0px" viewBox="0 0 24 24" style="enable-background:new 0 0 24 24;" xml:space="preserve">
<path style="fill:#333333;" d="M21.5,22h-19c-0.551,0-1-0.448-1-1V6.838c0-0.412,0.247-0.775,0.629-0.928L12,1.961l9.871,3.949
	C22.253,6.062,22.5,6.426,22.5,6.838V21C22.5,21.552,22.052,22,21.5,22z M2.314,6.375L2.5,6.838V21h19V6.838l-9.5-3.8l-9.5,3.8
	L2.314,6.375z"/>
<rect x="11.5" y="11" style="fill:#333333;" width="1" height="5"/>
<path style="fill:#333333;" d="M16.5,14c-1.103,0-2-0.785-2-1.75v-1.1c0-0.358,0.292-0.65,0.65-0.65h1.35c1.103,0,2,0.785,2,1.75
	S17.603,14,16.5,14z M15.5,11.5v0.75c0,0.406,0.458,0.75,1,0.75s1-0.344,1-0.75c0-0.407-0.458-0.75-1-0.75H15.5z"/>
<rect x="14.5" y="11" style="fill:#333333;" width="1" height="5"/>
<polygon style="fill:#333333;" points="9.002,16.5 6,16.5 5.571,15.742 8.119,11.5 6,11.5 6,10.5 9.002,10.5 9.431,11.257 
	6.883,15.5 9.002,15.5 "/>
</svg>






