<?xml version="1.0" encoding="iso-8859-1"?>
<svg version="1.1" id="&#x56FE;&#x5C42;_1" xmlns="http://www.w3.org/2000/svg" xmlns:xlink="http://www.w3.org/1999/xlink" x="0px"
	 y="0px" viewBox="0 0 24 24" style="enable-background:new 0 0 24 24;" xml:space="preserve">
<path style="fill:#333333;" d="M12.852,22.589c-0.944,0-1.921-0.207-3.027-0.62l0,0c-2.522-0.943-4.58-4.104-5.582-5.904
	c-0.535-0.962-0.28-2.175,0.606-2.885C5.788,12.431,7.127,12.483,8,13.295V10.25C8,9.285,8.785,8.5,9.75,8.5
	c0.268,0,0.522,0.061,0.75,0.169V8.25c0-0.965,0.785-1.75,1.75-1.75S14,7.285,14,8.25v2.419c0.228-0.108,0.481-0.169,0.75-0.169
	c0.938,0,1.706,0.742,1.748,1.67C16.726,12.061,16.981,12,17.25,12c0.965,0,1.75,0.785,1.75,1.75v3.934
	c0,0.678-0.184,1.297-0.532,1.79c-0.599,0.849-1.564,1.969-2.771,2.486C14.718,22.379,13.802,22.589,12.852,22.589z M6.358,13.65
	c-0.312,0-0.624,0.103-0.884,0.311c-0.504,0.403-0.654,1.084-0.357,1.617c0.935,1.68,2.836,4.622,5.059,5.453l0,0
	c1.978,0.74,3.416,0.743,5.127,0.009c1.044-0.446,1.919-1.534,2.349-2.143C17.879,18.573,18,18.154,18,17.684V13.75
	c0-0.413-0.337-0.75-0.75-0.75s-0.75,0.337-0.75,0.75h-1v-1.5c0-0.414-0.337-0.75-0.75-0.75S14,11.836,14,12.25h-1v-4
	c0-0.414-0.337-0.75-0.75-0.75c-0.414,0-0.75,0.336-0.75,0.75v2h-1c0-0.414-0.336-0.75-0.75-0.75S9,9.836,9,10.25v4.25l-0.854,0.354
	l-0.788-0.788C7.083,13.79,6.721,13.65,6.358,13.65z"/>
<rect x="6.5" y="3.5" style="fill:#333333;" width="11" height="1"/>
<polygon style="fill:#333333;" points="8.146,6.354 5.793,4 8.146,1.646 8.854,2.354 7.207,4 8.854,5.646 "/>
<polygon style="fill:#333333;" points="15.854,6.354 15.146,5.646 16.793,4 15.146,2.354 15.854,1.646 18.207,4 "/>
</svg>






