<?xml version="1.0" encoding="iso-8859-1"?>
<svg version="1.1" id="&#x56FE;&#x5C42;_1" xmlns="http://www.w3.org/2000/svg" xmlns:xlink="http://www.w3.org/1999/xlink" x="0px"
	 y="0px" viewBox="0 0 24 24" style="enable-background:new 0 0 24 24;" xml:space="preserve">
<path style="fill:#333333;" d="M10.5,19.5c-4.962,0-9-4.037-9-9c0-4.962,4.038-9,9-9c4.963,0,9,4.038,9,9
	C19.5,15.463,15.463,19.5,10.5,19.5z M10.5,2.5c-4.411,0-8,3.589-8,8s3.589,8,8,8s8-3.589,8-8S14.911,2.5,10.5,2.5z"/>
<rect x="10" y="7.5" style="fill:#333333;" width="1" height="6"/>
<rect x="7.508" y="10.004" style="fill:#333333;" width="5.992" height="1"/>
<rect x="18.232" y="15.732" transform="matrix(0.707 -0.7072 0.7072 0.707 -7.7594 18.7351)" style="fill:#333333;" width="1" height="6"/>
</svg>






