<?xml version="1.0" encoding="iso-8859-1"?>
<svg version="1.1" id="&#x56FE;&#x5C42;_1" xmlns="http://www.w3.org/2000/svg" xmlns:xlink="http://www.w3.org/1999/xlink" x="0px"
	 y="0px" viewBox="0 0 24 24" style="enable-background:new 0 0 24 24;" xml:space="preserve">
<path style="fill:#333333;" d="M1.25,21.508c-0.021-1.903,0.15-3.568,0.509-4.946c0.217-0.833,0.764-1.691,1.397-2.685
	c1.019-1.598,2.173-3.408,2.173-5.495c0-2.234-0.63-3.991-1.925-5.369l1.093-1.027c1.547,1.646,2.332,3.798,2.332,6.396
	c0,2.524-1.335,4.619-2.408,6.301c-0.541,0.85-1.053,1.651-1.209,2.255c-0.325,1.25-0.48,2.782-0.461,4.554L1.25,21.508z"/>
<path style="fill:#333333;" d="M22.328,21.509l-1.5-0.018c0.02-1.77-0.136-3.302-0.461-4.552c-0.157-0.604-0.669-1.407-1.21-2.257
	c-1.072-1.683-2.407-3.776-2.407-6.3c0-2.598,0.784-4.75,2.331-6.396l1.094,1.027C18.88,4.392,18.25,6.147,18.25,8.382
	c0,2.086,1.154,3.897,2.172,5.495c0.634,0.993,1.181,1.852,1.396,2.685C22.178,17.94,22.35,19.605,22.328,21.509z"/>
<path style="fill:#333333;" d="M12.011,19.266c-2.795,0-5.921-1.081-9.29-3.214l0.803-1.268c3.125,1.979,5.98,2.981,8.487,2.981
	c2.495,0,5.193-0.997,8.021-2.963l0.857,1.231C17.805,18.179,14.818,19.266,12.011,19.266z"/>
<path style="fill:#333333;" d="M12,15.5c0.69,0,1.25-0.56,1.25-1.25S12.69,13,12,13s-1.25,0.56-1.25,1.25S11.31,15.5,12,15.5z"/>
</svg>






