<?xml version="1.0" encoding="iso-8859-1"?>
<svg version="1.1" id="&#x56FE;&#x5C42;_1" xmlns="http://www.w3.org/2000/svg" xmlns:xlink="http://www.w3.org/1999/xlink" x="0px"
	 y="0px" viewBox="0 0 24 24" style="enable-background:new 0 0 24 24;" xml:space="preserve">
<rect x="17" y="16.75" style="fill:#333333;" width="4" height="1.5"/>
<rect x="13.5" y="20.25" style="fill:#333333;" width="2" height="1.5"/>
<path style="fill:#333333;" d="M22,14.25H6c-1.406,0-3.309-2.931-4.658-5.389L0.733,7.75h3.539l3,2.5h12l3.209,2.674L22,14.25z
	 M3.298,9.25c1.115,1.846,2.296,3.376,2.747,3.505l13.884-0.004l-1.2-1.001h-12l-3-2.5H3.298z"/>
<polygon style="fill:#333333;" points="14.567,11.613 9.082,7.75 10.202,10.737 8.798,11.263 6.918,6.25 9.568,6.25 15.433,10.387 
	"/>
<polygon style="fill:#333333;" points="8.896,20.25 5.938,20.25 8.427,13.249 9.84,13.751 8.062,18.75 8.304,18.75 14.487,12.953 
	15.513,14.047 "/>
<path style="fill:#333333;" d="M19.5,7.25h-5l-0.238-1.461c0.373-0.125,0.803-0.331,0.986-0.466
	c-0.007-0.553-0.001-1.535,0.917-1.993c0.399-0.201,0.864-0.229,1.253-0.196C17.695,2.42,18.34,1.75,19.511,1.75
	c0.878,0,1.676,0.425,2.189,1.167c0.556,0.803,0.699,1.84,0.374,2.704C21.591,6.907,20.229,7.25,19.5,7.25z M16.719,5.75H19.5
	c0.004,0,0.932-0.022,1.17-0.657c0.15-0.399,0.068-0.93-0.203-1.323c-0.164-0.237-0.464-0.521-0.956-0.521
	c-0.612,0-0.752,0.413-0.761,0.759l-0.025,0.989l-0.945-0.281c-0.305-0.091-0.769-0.132-0.944-0.046
	c-0.095,0.047-0.089,0.465-0.087,0.667L16.75,5.5C16.75,5.585,16.739,5.668,16.719,5.75z"/>
</svg>






