<?xml version="1.0" encoding="iso-8859-1"?>
<svg version="1.1" id="&#x56FE;&#x5C42;_1" xmlns="http://www.w3.org/2000/svg" xmlns:xlink="http://www.w3.org/1999/xlink" x="0px"
	 y="0px" viewBox="0 0 24 24" style="enable-background:new 0 0 24 24;" xml:space="preserve">
<path style="fill:#333333;" d="M12,22.839L1.25,17.464V6.537L12,1.162l10.75,5.375v10.927L12,22.839z M2.75,16.536L12,21.161
	l9.25-4.625V7.463L12,2.838L2.75,7.463V16.536z"/>
<rect x="6.25" y="3.91" transform="matrix(0.4472 -0.8944 0.8944 0.4472 -4.6276 11.5124)" style="fill:#333333;" width="1.5" height="11.18"/>
<rect x="11.25" y="12" style="fill:#333333;" width="1.5" height="10"/>
<rect x="11.41" y="8.75" transform="matrix(0.8946 -0.447 0.447 0.8946 -2.4535 8.5999)" style="fill:#333333;" width="11.181" height="1.5"/>
<rect x="6.41" y="6.25" transform="matrix(0.8944 -0.4472 0.4472 0.8944 -1.8636 6.1056)" style="fill:#333333;" width="11.18" height="1.5"/>
</svg>






