<?xml version="1.0" encoding="iso-8859-1"?>
<svg version="1.1" id="&#x56FE;&#x5C42;_1" xmlns="http://www.w3.org/2000/svg" xmlns:xlink="http://www.w3.org/1999/xlink" x="0px"
	 y="0px" viewBox="0 0 24 24" style="enable-background:new 0 0 24 24;" xml:space="preserve">
<path style="fill:#333333;" d="M12,22.75C6.072,22.75,1.25,17.928,1.25,12S6.072,1.25,12,1.25S22.75,6.072,22.75,12
	S17.928,22.75,12,22.75z M12,2.75c-5.101,0-9.25,4.149-9.25,9.25s4.149,9.25,9.25,9.25s9.25-4.149,9.25-9.25S17.101,2.75,12,2.75z"
	/>
<rect x="17.5" y="17.189" transform="matrix(0.7071 -0.7071 0.7071 0.7071 -7.5594 18.25)" style="fill:#333333;" width="1.5" height="2.121"/>
<rect x="5" y="4.689" transform="matrix(0.7071 -0.7071 0.7071 0.7071 -2.3817 5.75)" style="fill:#333333;" width="1.5" height="2.121"/>
<path style="fill:none;" d="M10.571,14L9,8.5L7.429,14H10.571z"/>
<path style="fill:#333333;" d="M10.279,15.706l-0.273-0.956H7.995l-0.273,0.956l-1.442-0.412l2-7h1.442l2,7L10.279,15.706z
	 M8.423,13.25h1.154L9,11.23L8.423,13.25z"/>
<path style="fill:#333333;" d="M13.5,16.25h-0.75v-8.5h0.75c2.975,0,4.75,1.589,4.75,4.25S16.475,16.25,13.5,16.25z M14.25,9.295
	v5.41c1.27-0.162,2.5-0.809,2.5-2.705C16.75,10.103,15.52,9.457,14.25,9.295z"/>
</svg>






