<?xml version="1.0" encoding="iso-8859-1"?>
<svg version="1.1" id="&#x56FE;&#x5C42;_1" xmlns="http://www.w3.org/2000/svg" xmlns:xlink="http://www.w3.org/1999/xlink" x="0px"
	 y="0px" viewBox="0 0 24 24" style="enable-background:new 0 0 24 24;" xml:space="preserve">
<rect x="11.25" y="8" style="fill:#333333;" width="1.5" height="8"/>
<rect x="20.25" y="10.5" style="fill:#333333;" width="1.5" height="3"/>
<rect x="2.25" y="10.5" style="fill:#333333;" width="1.5" height="3"/>
<path style="fill:#333333;" d="M3.75,7h-1.5V4c0-0.965,0.785-1.75,1.75-1.75h3v1.5H4C3.862,3.75,3.75,3.862,3.75,4V7z"/>
<path style="fill:#333333;" d="M21.75,7h-1.5V4c0-0.138-0.112-0.25-0.25-0.25h-3v-1.5h3c0.965,0,1.75,0.785,1.75,1.75V7z"/>
<path style="fill:#333333;" d="M20,21.75h-3v-1.5h3c0.138,0,0.25-0.112,0.25-0.25v-3h1.5v3C21.75,20.965,20.965,21.75,20,21.75z"/>
<path style="fill:#333333;" d="M7,21.75H4c-0.965,0-1.75-0.785-1.75-1.75v-3h1.5v3c0,0.138,0.112,0.25,0.25,0.25h3V21.75z"/>
<rect x="10.5" y="2.25" style="fill:#333333;" width="3" height="1.5"/>
<rect x="8" y="11.25" style="fill:#333333;" width="8" height="1.5"/>
<rect x="10.5" y="20.25" style="fill:#333333;" width="3" height="1.5"/>
</svg>






