<?xml version="1.0" encoding="iso-8859-1"?>
<svg version="1.1" id="&#x56FE;&#x5C42;_1" xmlns="http://www.w3.org/2000/svg" xmlns:xlink="http://www.w3.org/1999/xlink" x="0px"
	 y="0px" viewBox="0 0 24 24" style="enable-background:new 0 0 24 24;" xml:space="preserve">
<path style="fill:#333333;" d="M18,21.75H4c-0.965,0-1.75-0.785-1.75-1.75V6c0-0.965,0.785-1.75,1.75-1.75h9.182v1.5H4
	C3.862,5.75,3.75,5.862,3.75,6v14c0,0.138,0.112,0.25,0.25,0.25h14c0.138,0,0.25-0.112,0.25-0.25v-9.5h1.5V20
	C19.75,20.965,18.965,21.75,18,21.75z"/>
<path style="fill:#333333;" d="M17.455,16.266H4.504l4.414-5.909l1.452,1.452l1.845-2.901L17.455,16.266z M7.497,14.766h7.048
	l-2.26-3.173l-1.654,2.599l-1.548-1.549L7.497,14.766z"/>
<rect x="17" y="4.25" style="fill:#333333;" width="4" height="1.5"/>
<rect x="18.247" y="2.897" style="fill:#333333;" width="1.5" height="4"/>
</svg>






