<?xml version="1.0" encoding="iso-8859-1"?>
<svg version="1.1" id="&#x56FE;&#x5C42;_1" xmlns="http://www.w3.org/2000/svg" xmlns:xlink="http://www.w3.org/1999/xlink" x="0px"
	 y="0px" viewBox="0 0 24 24" style="enable-background:new 0 0 24 24;" xml:space="preserve">
<path style="fill:#333333;" d="M12,22.25C6.348,22.25,1.75,17.652,1.75,12C1.75,6.348,6.348,1.75,12,1.75
	c1.693,0,3.373,0.422,4.855,1.221l-0.711,1.32C14.879,3.61,13.446,3.25,12,3.25c-4.825,0-8.75,3.925-8.75,8.75
	c0,4.825,3.925,8.75,8.75,8.75c1.287,0,2.526-0.272,3.684-0.811l0.633,1.359C14.96,21.93,13.508,22.25,12,22.25z"/>
<rect x="15.5" y="14.25" style="fill:#333333;" width="6" height="1.5"/>
<polygon style="fill:#333333;" points="10.986,15.547 6.97,11.53 8.03,10.47 11.014,13.453 19.984,4.956 21.016,6.044 "/>
<rect x="17.75" y="12" style="fill:#333333;" width="1.5" height="6"/>
</svg>






