<?xml version="1.0" encoding="iso-8859-1"?>
<svg version="1.1" id="&#x56FE;&#x5C42;_1" xmlns="http://www.w3.org/2000/svg" xmlns:xlink="http://www.w3.org/1999/xlink" x="0px"
	 y="0px" viewBox="0 0 24 24" style="enable-background:new 0 0 24 24;" xml:space="preserve">
<polygon style="fill:#333333;" points="9,18.25 4.25,18.25 4.25,14 5.75,14 5.75,16.75 9,16.75 "/>
<path style="fill:#333333;" d="M21.75,21.75H8.25v-8.5h13.5V21.75z M9.75,20.25h10.5v-5.5H9.75V20.25z"/>
<rect x="2.25" y="6.25" style="fill:#333333;" width="1.5" height="0.5"/>
<rect x="2.25" y="9.5" style="fill:#333333;" width="1.5" height="0.5"/>
<rect x="2.25" y="3" style="fill:#333333;" width="1.5" height="0.5"/>
<rect x="15.25" y="6.25" style="fill:#333333;" width="1.5" height="0.5"/>
<rect x="15.25" y="9.5" style="fill:#333333;" width="1.5" height="0.5"/>
<rect x="15.25" y="3" style="fill:#333333;" width="1.5" height="0.5"/>
<rect x="15.5" y="9.25" style="fill:#333333;" width="0.5" height="1.5"/>
<rect x="3" y="9.25" style="fill:#333333;" width="0.5" height="1.5"/>
<rect x="3" y="2.25" style="fill:#333333;" width="0.5" height="1.5"/>
<rect x="6" y="2.25" style="fill:#333333;" width="0.5" height="1.5"/>
<rect x="9.25" y="2.25" style="fill:#333333;" width="0.5" height="1.5"/>
<rect x="9.25" y="9.25" style="fill:#333333;" width="0.5" height="1.5"/>
<rect x="12.5" y="2.25" style="fill:#333333;" width="0.5" height="1.5"/>
<rect x="6" y="9.25" style="fill:#333333;" width="0.5" height="1.5"/>
<rect x="12.5" y="9.25" style="fill:#333333;" width="0.5" height="1.5"/>
<rect x="15.5" y="2.25" style="fill:#333333;" width="0.5" height="1.5"/>
</svg>






