<?xml version="1.0" encoding="iso-8859-1"?>
<svg version="1.1" id="&#x56FE;&#x5C42;_1" xmlns="http://www.w3.org/2000/svg" xmlns:xlink="http://www.w3.org/1999/xlink" x="0px"
	 y="0px" viewBox="0 0 24 24" style="enable-background:new 0 0 24 24;" xml:space="preserve">
<polygon style="fill:#333333;" points="20.75,22.75 3.25,22.75 3.25,18 4.75,18 4.75,21.25 19.25,21.25 19.25,2.75 4.75,2.75 
	4.75,6 3.25,6 3.25,1.25 20.75,1.25 "/>
<rect x="3" y="14.25" style="fill:#333333;" width="2" height="1.5"/>
<rect x="3" y="11.25" style="fill:#333333;" width="2" height="1.5"/>
<rect x="3" y="8.25" style="fill:#333333;" width="2" height="1.5"/>
<path style="fill:#333333;" d="M12,11.25c-1.517,0-2.75-1.233-2.75-2.75S10.483,5.75,12,5.75s2.75,1.233,2.75,2.75
	S13.517,11.25,12,11.25z M12,7.25c-0.689,0-1.25,0.561-1.25,1.25S11.311,9.75,12,9.75s1.25-0.561,1.25-1.25S12.689,7.25,12,7.25z"/>
<path style="fill:#333333;" d="M16.75,17.5h-1.5c0-1.792-1.458-3.25-3.25-3.25s-3.25,1.458-3.25,3.25h-1.5
	c0-2.619,2.131-4.75,4.75-4.75S16.75,14.881,16.75,17.5z"/>
</svg>






