<?xml version="1.0" encoding="iso-8859-1"?>
<svg version="1.1" id="&#x56FE;&#x5C42;_1" xmlns="http://www.w3.org/2000/svg" xmlns:xlink="http://www.w3.org/1999/xlink" x="0px"
	 y="0px" viewBox="0 0 24 24" style="enable-background:new 0 0 24 24;" xml:space="preserve">
<path style="fill:none;" d="M7,14.5h14v6H7v-3V14.5z"/>
<path style="fill:none;" d="M7,3.5h14v6H7v-3V3.5z"/>
<path style="fill:#333333;" d="M21.75,21.25H6.25v-3h-4V5.75h4v-3h15.5v7.5H6.25v-3h-2.5v9.5h2.5v-3h15.5V21.25z M7.75,19.75h12.5
	v-4.5H7.75V19.75z M7.75,8.75h12.5v-4.5H7.75V8.75z"/>
<polygon style="fill:#333333;" points="7,18.25 2.25,18.25 2.25,5.75 7,5.75 7,7.25 3.75,7.25 3.75,16.75 7,16.75 "/>
<path style="fill:#333333;" d="M21.75,21.25H6.25v-7.5h15.5V21.25z M7.75,19.75h12.5v-4.5H7.75V19.75z"/>
<path style="fill:#333333;" d="M21.75,10.25H6.25v-7.5h15.5V10.25z M7.75,8.75h12.5v-4.5H7.75V8.75z"/>
</svg>






