<?xml version="1.0" encoding="iso-8859-1"?>
<svg version="1.1" id="&#x56FE;&#x5C42;_1" xmlns="http://www.w3.org/2000/svg" xmlns:xlink="http://www.w3.org/1999/xlink" x="0px"
	 y="0px" viewBox="0 0 24 24" style="enable-background:new 0 0 24 24;" xml:space="preserve">
<path style="fill:#333333;" d="M20,22.25H4c-1.241,0-2.25-1.01-2.25-2.25V4c0-1.241,1.009-2.25,2.25-2.25h16
	c1.24,0,2.25,1.009,2.25,2.25v16C22.25,21.24,21.24,22.25,20,22.25z M4,3.25C3.586,3.25,3.25,3.586,3.25,4v16
	c0,0.413,0.336,0.75,0.75,0.75h16c0.413,0,0.75-0.337,0.75-0.75V4c0-0.414-0.337-0.75-0.75-0.75H4z"/>
<rect x="3.515" y="11.25" transform="matrix(0.7071 -0.7071 0.7071 0.7071 -4.9706 12)" style="fill:#333333;" width="16.971" height="1.5"/>
<rect x="6" y="7.25" style="fill:#333333;" width="4" height="1.5"/>
<rect x="13.5" y="15.75" style="fill:#333333;" width="4" height="1.5"/>
<rect x="7.25" y="6" style="fill:#333333;" width="1.5" height="4"/>
</svg>






