<?xml version="1.0" encoding="iso-8859-1"?>
<svg version="1.1" id="&#x56FE;&#x5C42;_1" xmlns="http://www.w3.org/2000/svg" xmlns:xlink="http://www.w3.org/1999/xlink" x="0px"
	 y="0px" viewBox="0 0 24 24" style="enable-background:new 0 0 24 24;" xml:space="preserve">
<path style="fill:#333333;" d="M19.5,21.75h-15c-1.241,0-2.25-1.01-2.25-2.25v-15c0-1.241,1.009-2.25,2.25-2.25h15
	c1.24,0,2.25,1.009,2.25,2.25v15C21.75,20.74,20.74,21.75,19.5,21.75z M4.5,3.75c-0.414,0-0.75,0.336-0.75,0.75v15
	c0,0.413,0.336,0.75,0.75,0.75h15c0.413,0,0.75-0.337,0.75-0.75v-15c0-0.414-0.337-0.75-0.75-0.75H4.5z"/>
<rect x="6.25" y="7.5" style="fill:#333333;" width="1.5" height="9"/>
<path style="fill:#333333;" d="M8,13.25H6.25v-6.5H8c2.701,0,4.25,1.185,4.25,3.25S10.701,13.25,8,13.25z M7.75,11.75H8
	c2.75,0,2.75-1.317,2.75-1.75s0-1.75-2.75-1.75H7.75V11.75z"/>
<path style="fill:#333333;" d="M14.39,17.251c-0.232,0-0.396-0.012-0.452-0.017l0.123-1.494c0.485,0.033,1.622-0.01,2.047-0.401
	c0.102-0.094,0.143-0.193,0.143-0.345c0-0.302-0.194-0.451-1.037-0.802c-0.782-0.324-1.963-0.814-1.963-2.187
	c0-0.59,0.208-1.103,0.601-1.483c0.861-0.834,2.363-0.786,2.998-0.765L17,9.762v1.5l-0.199-0.005
	c-0.37-0.01-1.502-0.049-1.907,0.343c-0.066,0.065-0.144,0.17-0.144,0.405c0,0.302,0.194,0.451,1.037,0.802
	c0.782,0.324,1.963,0.814,1.963,2.187c0,0.57-0.217,1.071-0.628,1.449C16.357,17.147,15.077,17.251,14.39,17.251z"/>
</svg>






