<?xml version="1.0" encoding="iso-8859-1"?>
<svg version="1.1" id="&#x56FE;&#x5C42;_1" xmlns="http://www.w3.org/2000/svg" xmlns:xlink="http://www.w3.org/1999/xlink" x="0px"
	 y="0px" viewBox="0 0 24 24" style="enable-background:new 0 0 24 24;" xml:space="preserve">
<path style="fill:#333333;" d="M19.5,21.75h-15c-1.241,0-2.25-1.01-2.25-2.25v-15c0-1.241,1.009-2.25,2.25-2.25h5v1.5h-5
	c-0.414,0-0.75,0.336-0.75,0.75v15c0,0.413,0.336,0.75,0.75,0.75h15c0.413,0,0.75-0.337,0.75-0.75v-5h1.5v5
	C21.75,20.74,20.74,21.75,19.5,21.75z"/>
<polygon style="fill:#333333;" points="10.526,15.448 8.289,8.737 9.711,8.263 11.474,13.552 16.763,11.789 17.237,13.212 "/>
<path style="fill:#333333;" d="M11.711,14.737l-1.423-0.475c2.608-7.824,4.258-9.389,9.433-11.459l0.557,1.393
	C15.628,6.057,14.179,7.335,11.711,14.737z"/>
</svg>






