<?xml version="1.0" encoding="iso-8859-1"?>
<svg version="1.1" id="&#x56FE;&#x5C42;_1" xmlns="http://www.w3.org/2000/svg" xmlns:xlink="http://www.w3.org/1999/xlink" x="0px"
	 y="0px" viewBox="0 0 24 24" style="enable-background:new 0 0 24 24;" xml:space="preserve">
<path style="fill:#333333;" d="M19.5,21.75h-15c-1.241,0-2.25-1.01-2.25-2.25v-15c0-1.241,1.009-2.25,2.25-2.25h15
	c1.24,0,2.25,1.009,2.25,2.25v2.438h-1.5V4.5c0-0.414-0.337-0.75-0.75-0.75h-15c-0.414,0-0.75,0.336-0.75,0.75v15
	c0,0.413,0.336,0.75,0.75,0.75h15c0.413,0,0.75-0.337,0.75-0.75v-2.156h1.5V19.5C21.75,20.74,20.74,21.75,19.5,21.75z"/>
<rect x="12" y="11.25" style="fill:#333333;" width="9" height="1.5"/>
<polygon style="fill:#333333;" points="14.47,15.53 10.939,12 14.47,8.47 15.53,9.53 13.061,12 15.53,14.47 "/>
</svg>






