<?xml version="1.0" encoding="iso-8859-1"?>
<svg version="1.1" id="&#x56FE;&#x5C42;_1" xmlns="http://www.w3.org/2000/svg" xmlns:xlink="http://www.w3.org/1999/xlink" x="0px"
	 y="0px" viewBox="0 0 24 24" style="enable-background:new 0 0 24 24;" xml:space="preserve">
<g>
	<defs>
		<rect id="SVGID_1_" width="24" height="24"/>
	</defs>
	<clipPath id="SVGID_00000097493183467598074540000002657625020658112142_">
		<use xlink:href="#SVGID_1_"  style="overflow:visible;"/>
	</clipPath>
	<g style="clip-path:url(#SVGID_00000097493183467598074540000002657625020658112142_);">
		<polygon style="fill:#333333;" points="13.328,23.046 0.954,10.671 9.97,1.656 11.03,2.716 3.075,10.671 13.328,20.925 
			21.283,12.97 22.344,14.03 		"/>
		
			<rect x="3.086" y="8.507" transform="matrix(0.7071 -0.7071 0.7071 0.7071 -3.8846 9.1359)" style="fill:#333333;" width="12" height="1.5"/>
		
			<rect x="5.914" y="11.336" transform="matrix(0.7071 -0.7071 0.7071 0.7071 -5.0561 11.9644)" style="fill:#333333;" width="12" height="1.5"/>
		
			<rect x="8.743" y="14.164" transform="matrix(0.7071 -0.7071 0.7071 0.7071 -6.2276 14.7928)" style="fill:#333333;" width="12" height="1.5"/>
		<path style="fill:#333333;" d="M8.025,21.985l-1.466-1.467l-2.309-0.77L3.48,17.44l-1.465-1.466l3.182-3.182l6.01,6.01
			L8.025,21.985z M5.436,18.563l1.934,0.645l0.656,0.656l1.061-1.062l-3.889-3.889l-1.061,1.061l0.656,0.655L5.436,18.563z"/>
	</g>
</g>
</svg>






