<?xml version="1.0" encoding="iso-8859-1"?>
<svg version="1.1" id="&#x56FE;&#x5C42;_1" xmlns="http://www.w3.org/2000/svg" xmlns:xlink="http://www.w3.org/1999/xlink" x="0px"
	 y="0px" viewBox="0 0 24 24" style="enable-background:new 0 0 24 24;" xml:space="preserve">
<path style="fill:#333333;" d="M19,22.75H5c-0.965,0-1.75-0.785-1.75-1.75V3c0-0.965,0.785-1.75,1.75-1.75h14
	c0.965,0,1.75,0.785,1.75,1.75v18C20.75,21.965,19.965,22.75,19,22.75z M5,2.75C4.862,2.75,4.75,2.862,4.75,3v18
	c0,0.138,0.112,0.25,0.25,0.25h14c0.138,0,0.25-0.112,0.25-0.25V3c0-0.138-0.112-0.25-0.25-0.25H5z"/>
<path style="fill:#333333;" d="M12.002,10.561L10.25,9.003l-1.752,1.557L7.25,10V1.25h6V10L12.002,10.561z M10.25,6.997l1.5,1.333
	V2.75h-3v5.58L10.25,6.997z"/>
<rect x="8" y="13.25" style="fill:#333333;" width="5" height="1.5"/>
<rect x="8" y="16.25" style="fill:#333333;" width="8" height="1.5"/>
</svg>






