<?xml version="1.0" encoding="iso-8859-1"?>
<svg version="1.1" id="&#x56FE;&#x5C42;_1" xmlns="http://www.w3.org/2000/svg" xmlns:xlink="http://www.w3.org/1999/xlink" x="0px"
	 y="0px" viewBox="0 0 24 24" style="enable-background:new 0 0 24 24;" xml:space="preserve">
<path style="fill:#333333;" d="M12,22.75C6.072,22.75,1.25,17.928,1.25,12S6.072,1.25,12,1.25S22.75,6.072,22.75,12
	S17.928,22.75,12,22.75z M12,2.75c-5.101,0-9.25,4.149-9.25,9.25s4.149,9.25,9.25,9.25s9.25-4.149,9.25-9.25S17.101,2.75,12,2.75z"
	/>
<path style="fill:none;" d="M12,18.5V22V18.5z"/>
<rect x="11.25" y="18.5" style="fill:#333333;" width="1.5" height="3.5"/>
<path style="fill:none;" d="M18,12h4H18z"/>
<rect x="18" y="11.25" style="fill:#333333;" width="4" height="1.5"/>
<path style="fill:none;" d="M2,12h3.5H2z"/>
<rect x="2" y="11.25" style="fill:#333333;" width="3.5" height="1.5"/>
<path style="fill:none;" d="M12,5.5V2V5.5z"/>
<rect x="11.25" y="2" style="fill:#333333;" width="1.5" height="3.5"/>
</svg>






