<?xml version="1.0" encoding="iso-8859-1"?>
<svg version="1.1" id="&#x56FE;&#x5C42;_1" xmlns="http://www.w3.org/2000/svg" xmlns:xlink="http://www.w3.org/1999/xlink" x="0px"
	 y="0px" viewBox="0 0 24 24" style="enable-background:new 0 0 24 24;" xml:space="preserve">
<rect x="2" y="21.25" style="fill:#333333;" width="20" height="1.5"/>
<path style="fill:#333333;" d="M21.25,22h-1.5v-3.64c0-2.581-2.546-2.61-2.654-2.61H14v-1.5h3.096c1.67,0,4.154,1.095,4.154,4.11V22
	z"/>
<polygon style="fill:#333333;" points="18.183,15.311 16.817,14.689 19.175,9.502 16.319,3.314 17.681,2.686 20.825,9.498 "/>
<rect x="14.307" y="2.25" transform="matrix(0.9286 -0.3712 0.3712 0.9286 0.1009 6.5241)" style="fill:#333333;" width="5.385" height="1.5"/>
<path style="fill:#333333;" d="M10,19.75c-2.619,0-4.75-2.131-4.75-4.75s2.131-4.75,4.75-4.75s4.75,2.131,4.75,4.75
	S12.619,19.75,10,19.75z M10,11.75c-1.792,0-3.25,1.458-3.25,3.25s1.458,3.25,3.25,3.25s3.25-1.458,3.25-3.25S11.792,11.75,10,11.75
	z"/>
<rect x="10" y="14.25" style="fill:#333333;" width="4" height="1.5"/>
<rect x="8" y="5.9" transform="matrix(0.7894 -0.6139 0.6139 0.7894 -3.5288 7.2151)" style="fill:#333333;" width="1.5" height="5.701"/>
<rect x="5" y="5.75" style="fill:#333333;" width="4" height="1.5"/>
<path style="fill:#333333;" d="M10,19.75v-1.5c1.792,0,3.25-1.458,3.25-3.25s-1.458-3.25-3.25-3.25v-1.5
	c2.619,0,4.75,2.131,4.75,4.75S12.619,19.75,10,19.75z"/>
</svg>






