<?xml version="1.0" encoding="iso-8859-1"?>
<svg version="1.1" id="&#x56FE;&#x5C42;_1" xmlns="http://www.w3.org/2000/svg" xmlns:xlink="http://www.w3.org/1999/xlink" x="0px"
	 y="0px" viewBox="0 0 24 24" style="enable-background:new 0 0 24 24;" xml:space="preserve">
<path style="fill:#333333;" d="M15.736,22.702L12,21.301l-3.737,1.401l-0.899-1.1l2.386-3.817v-3.071l-8,4v-3.565L9.5,8.689v-3.42
	c0-2.375,1.385-3.604,2.203-3.958L12,1.183l0.297,0.128C13.115,1.664,14.5,2.895,14.5,5.269v3.42l7.75,6.459v3.565l-8-4v3.071
	l2.386,3.817L15.736,22.702z M12,19.699l2.191,0.821l-1.441-2.306v-5.929l8,4v-0.435L13,9.391V5.269c0-1.302-0.577-2.054-1-2.393
	c-0.423,0.338-1,1.091-1,2.393v4.123l-7.75,6.46v0.435l8-4v5.929l-1.441,2.306L12,19.699z"/>
</svg>






