<?xml version="1.0" encoding="iso-8859-1"?>
<svg version="1.1" id="&#x56FE;&#x5C42;_1" xmlns="http://www.w3.org/2000/svg" xmlns:xlink="http://www.w3.org/1999/xlink" x="0px"
	 y="0px" viewBox="0 0 24 24" style="enable-background:new 0 0 24 24;" xml:space="preserve">
<path style="fill:#333333;" d="M12,22.917c-5.468,0-9.917-4.449-9.917-9.917S6.532,3.083,12,3.083c5.468,0,9.917,4.449,9.917,9.917
	S17.468,22.917,12,22.917z M12,4.583c-4.641,0-8.417,3.775-8.417,8.417c0,4.642,3.776,8.417,8.417,8.417
	c4.642,0,8.417-3.775,8.417-8.417C20.417,8.359,16.642,4.583,12,4.583z"/>
<polygon style="fill:#333333;" points="15.235,17.598 11.129,13.492 11.13,7.677 12.63,7.677 12.629,12.871 16.296,16.537 "/>
<rect x="1.599" y="2.5" transform="matrix(0.8137 -0.5813 0.5813 0.8137 -1.1906 2.7854)" style="fill:#333333;" width="4.301" height="1.5"/>
<rect x="19.5" y="1.099" transform="matrix(0.5812 -0.8137 0.8137 0.5812 5.8353 17.8391)" style="fill:#333333;" width="1.5" height="4.301"/>
</svg>






