<?xml version="1.0" encoding="iso-8859-1"?>
<svg version="1.1" id="&#x56FE;&#x5C42;_1" xmlns="http://www.w3.org/2000/svg" xmlns:xlink="http://www.w3.org/1999/xlink" x="0px"
	 y="0px" viewBox="0 0 24 24" style="enable-background:new 0 0 24 24;" xml:space="preserve">
<path style="fill:#333333;" d="M17.75,21.25H6.25V12.5c0-3.17,2.58-5.75,5.75-5.75c3.171,0,5.75,2.58,5.75,5.75V21.25z M7.75,19.75
	h8.5V12.5c0-2.343-1.906-4.25-4.25-4.25c-2.343,0-4.25,1.907-4.25,4.25V19.75z"/>
<rect x="11.25" y="2.5" style="fill:#333333;" width="1.5" height="1.5"/>
<rect x="16.714" y="4.489" transform="matrix(0.6433 -0.7657 0.7657 0.6433 2.2193 15.2401)" style="fill:#333333;" width="1.5" height="1.5"/>
<rect x="19.62" y="9.524" transform="matrix(0.9849 -0.1732 0.1732 0.9849 -1.4713 3.6824)" style="fill:#333333;" width="1.5" height="1.5"/>
<rect x="2.879" y="9.524" transform="matrix(0.1738 -0.9848 0.9848 0.1738 -7.1192 12.0618)" style="fill:#333333;" width="1.5" height="1.5"/>
<rect x="5.787" y="4.489" transform="matrix(0.7658 -0.6431 0.6431 0.7658 -1.8379 5.4302)" style="fill:#333333;" width="1.5" height="1.5"/>
<rect x="3" y="19.75" style="fill:#333333;" width="18.5" height="1.5"/>
</svg>






