<?xml version="1.0" encoding="iso-8859-1"?>
<svg version="1.1" id="&#x56FE;&#x5C42;_1" xmlns="http://www.w3.org/2000/svg" xmlns:xlink="http://www.w3.org/1999/xlink" x="0px"
	 y="0px" viewBox="0 0 24 24" style="enable-background:new 0 0 24 24;" xml:space="preserve">
<path style="fill:#333333;" d="M9,10.75H4c-0.965,0-1.75-0.785-1.75-1.75V4c0-0.965,0.785-1.75,1.75-1.75h5
	c0.965,0,1.75,0.785,1.75,1.75v5C10.75,9.965,9.965,10.75,9,10.75z M4,3.75C3.862,3.75,3.75,3.862,3.75,4v5
	c0,0.138,0.112,0.25,0.25,0.25h5c0.138,0,0.25-0.112,0.25-0.25V4c0-0.138-0.112-0.25-0.25-0.25H4z"/>
<path style="fill:#333333;" d="M9,21.75H4c-0.965,0-1.75-0.785-1.75-1.75v-5c0-0.965,0.785-1.75,1.75-1.75h5
	c0.965,0,1.75,0.785,1.75,1.75v5C10.75,20.965,9.965,21.75,9,21.75z M4,14.75c-0.138,0-0.25,0.112-0.25,0.25v5
	c0,0.138,0.112,0.25,0.25,0.25h5c0.138,0,0.25-0.112,0.25-0.25v-5c0-0.138-0.112-0.25-0.25-0.25H4z"/>
<path style="fill:#333333;" d="M20,10.75h-5c-0.965,0-1.75-0.785-1.75-1.75V4c0-0.965,0.785-1.75,1.75-1.75h5
	c0.965,0,1.75,0.785,1.75,1.75v5C21.75,9.965,20.965,10.75,20,10.75z M15,3.75c-0.138,0-0.25,0.112-0.25,0.25v5
	c0,0.138,0.112,0.25,0.25,0.25h5c0.138,0,0.25-0.112,0.25-0.25V4c0-0.138-0.112-0.25-0.25-0.25H15z"/>
<path style="fill:#333333;" d="M20,21.75h-5c-0.965,0-1.75-0.785-1.75-1.75v-5c0-0.965,0.785-1.75,1.75-1.75h5
	c0.965,0,1.75,0.785,1.75,1.75v5C21.75,20.965,20.965,21.75,20,21.75z M15,14.75c-0.138,0-0.25,0.112-0.25,0.25v5
	c0,0.138,0.112,0.25,0.25,0.25h5c0.138,0,0.25-0.112,0.25-0.25v-5c0-0.138-0.112-0.25-0.25-0.25H15z"/>
</svg>






