<?xml version="1.0" encoding="iso-8859-1"?>
<svg version="1.1" id="&#x56FE;&#x5C42;_1" xmlns="http://www.w3.org/2000/svg" xmlns:xlink="http://www.w3.org/1999/xlink" x="0px"
	 y="0px" viewBox="0 0 24 24" style="enable-background:new 0 0 24 24;" xml:space="preserve">
<path style="fill:#333333;" d="M21,18.25h-2v-1.5h2c0.138,0,0.25-0.112,0.25-0.25v-3.449c0-0.314-0.198-0.598-0.493-0.705
	l-3.526-1.282c-0.885-0.321-1.48-1.171-1.48-2.114V5.5c0-0.138-0.112-0.25-0.25-0.25H3c-0.138,0-0.25,0.112-0.25,0.25v11
	c0,0.138,0.112,0.25,0.25,0.25h2v1.5H3c-0.965,0-1.75-0.785-1.75-1.75v-11c0-0.965,0.785-1.75,1.75-1.75h12.5
	c0.965,0,1.75,0.785,1.75,1.75v3.449c0,0.314,0.198,0.598,0.493,0.705l3.526,1.283c0.885,0.321,1.48,1.171,1.48,2.114V16.5
	C22.75,17.465,21.965,18.25,21,18.25z"/>
<rect x="9" y="16.75" style="fill:#333333;" width="6" height="1.5"/>
<rect x="6" y="8.75" style="fill:#333333;" width="4" height="1.5"/>
<rect x="7.25" y="7.5" style="fill:#333333;" width="1.5" height="4"/>
<path style="fill:#333333;" d="M7,20.25c-1.517,0-2.75-1.233-2.75-2.75S5.483,14.75,7,14.75s2.75,1.233,2.75,2.75
	S8.517,20.25,7,20.25z M7,16.25c-0.689,0-1.25,0.561-1.25,1.25S6.311,18.75,7,18.75s1.25-0.561,1.25-1.25S7.689,16.25,7,16.25z"/>
<path style="fill:#333333;" d="M17,20.25c-1.517,0-2.75-1.233-2.75-2.75s1.233-2.75,2.75-2.75s2.75,1.233,2.75,2.75
	S18.517,20.25,17,20.25z M17,16.25c-0.689,0-1.25,0.561-1.25,1.25s0.561,1.25,1.25,1.25s1.25-0.561,1.25-1.25S17.689,16.25,17,16.25
	z"/>
</svg>






