<?xml version="1.0" encoding="iso-8859-1"?>
<svg version="1.1" id="&#x56FE;&#x5C42;_1" xmlns="http://www.w3.org/2000/svg" xmlns:xlink="http://www.w3.org/1999/xlink" x="0px"
	 y="0px" viewBox="0 0 24 24" style="enable-background:new 0 0 24 24;" xml:space="preserve">
<path style="fill:#333333;" d="M20.75,17.5h-1.5c0-4.42-3.512-11.75-7.25-11.75S4.75,13.08,4.75,17.5h-1.5
	c0-4.654,3.608-13.25,8.75-13.25S20.75,12.846,20.75,17.5z"/>
<path style="fill:#333333;" d="M6.75,22.25h-5.5v-5.5h5.5V22.25z M2.75,20.75h2.5v-2.5h-2.5V20.75z"/>
<path style="fill:#333333;" d="M6.75,7.75h-5.5v-5.5h5.5V7.75z M2.75,6.25h2.5v-2.5h-2.5V6.25z"/>
<path style="fill:#333333;" d="M22.75,22.25h-5.5v-5.5h5.5V22.25z M18.75,20.75h2.5v-2.5h-2.5V20.75z"/>
<path style="fill:#333333;" d="M22.75,7.75h-5.5v-5.5h5.5V7.75z M18.75,6.25h2.5v-2.5h-2.5V6.25z"/>
<rect x="6" y="4.25" style="fill:#333333;" width="12" height="1.5"/>
</svg>






