<?xml version="1.0" encoding="iso-8859-1"?>
<svg version="1.1" id="&#x56FE;&#x5C42;_1" xmlns="http://www.w3.org/2000/svg" xmlns:xlink="http://www.w3.org/1999/xlink" x="0px"
	 y="0px" viewBox="0 0 24 24" style="enable-background:new 0 0 24 24;" xml:space="preserve">
<path style="fill:#333333;" d="M12,22.75C6.072,22.75,1.25,17.928,1.25,12v-0.75H5v1.5H2.78c0.383,4.751,4.372,8.5,9.22,8.5
	c4.848,0,8.837-3.749,9.22-8.5H19v-1.5h3.75V12C22.75,17.928,17.928,22.75,12,22.75z"/>
<rect x="11.25" y="7" style="fill:#333333;" width="1.5" height="15"/>
<path style="fill:#333333;" d="M12,7.75c-1.792,0-3.25-1.458-3.25-3.25S10.208,1.25,12,1.25s3.25,1.458,3.25,3.25
	S13.792,7.75,12,7.75z M12,2.75c-0.965,0-1.75,0.785-1.75,1.75S11.035,6.25,12,6.25s1.75-0.785,1.75-1.75S12.965,2.75,12,2.75z"/>
</svg>






