<?xml version="1.0" encoding="iso-8859-1"?>
<svg version="1.1" id="&#x56FE;&#x5C42;_1" xmlns="http://www.w3.org/2000/svg" xmlns:xlink="http://www.w3.org/1999/xlink" x="0px"
	 y="0px" viewBox="0 0 24 24" style="enable-background:new 0 0 24 24;" xml:space="preserve">
<path style="fill:#333333;" d="M21.75,19h-1.5c0-4.366-3.528-9.25-8.25-9.25S3.75,14.634,3.75,19h-1.5
	c0-5.074,4.169-10.75,9.75-10.75C17.58,8.25,21.75,13.926,21.75,19z"/>
<rect x="5" y="6.25" style="fill:#333333;" width="5" height="1.5"/>
<rect x="14" y="6.25" style="fill:#333333;" width="5" height="1.5"/>
<path style="fill:#333333;" d="M3.5,9.25C2.259,9.25,1.25,8.241,1.25,7S2.259,4.75,3.5,4.75S5.75,5.759,5.75,7S4.741,9.25,3.5,9.25z
	 M3.5,6.25C3.086,6.25,2.75,6.586,2.75,7S3.086,7.75,3.5,7.75S4.25,7.414,4.25,7S3.914,6.25,3.5,6.25z"/>
<path style="fill:#333333;" d="M20.5,9.25c-1.24,0-2.25-1.009-2.25-2.25s1.01-2.25,2.25-2.25S22.75,5.759,22.75,7
	S21.74,9.25,20.5,9.25z M20.5,6.25c-0.413,0-0.75,0.336-0.75,0.75s0.337,0.75,0.75,0.75S21.25,7.414,21.25,7S20.913,6.25,20.5,6.25z
	"/>
<path style="fill:#333333;" d="M12,9.75c-1.517,0-2.75-1.233-2.75-2.75S10.483,4.25,12,4.25S14.75,5.483,14.75,7
	S13.517,9.75,12,9.75z M12,5.75c-0.689,0-1.25,0.561-1.25,1.25S11.311,8.25,12,8.25S13.25,7.689,13.25,7S12.689,5.75,12,5.75z"/>
</svg>






