<?xml version="1.0" encoding="iso-8859-1"?>
<svg version="1.1" id="&#x56FE;&#x5C42;_1" xmlns="http://www.w3.org/2000/svg" xmlns:xlink="http://www.w3.org/1999/xlink" x="0px"
	 y="0px" viewBox="0 0 24 24" style="enable-background:new 0 0 24 24;" xml:space="preserve">
<rect x="7" y="3.25" style="fill:#333333;" width="10" height="1.5"/>
<rect x="7" y="3.25" style="fill:#333333;" width="10" height="1.5"/>
<rect x="7" y="19.25" style="fill:#333333;" width="10" height="1.5"/>
<path style="fill:#333333;" d="M21,6.75h-2c-0.965,0-1.75-0.785-1.75-1.75V3c0-0.965,0.785-1.75,1.75-1.75h2
	c0.965,0,1.75,0.785,1.75,1.75v2C22.75,5.965,21.965,6.75,21,6.75z M19,2.75c-0.138,0-0.25,0.112-0.25,0.25v2
	c0,0.138,0.112,0.25,0.25,0.25h2c0.138,0,0.25-0.112,0.25-0.25V3c0-0.138-0.112-0.25-0.25-0.25H19z"/>
<path style="fill:#333333;" d="M5,6.75H3C2.035,6.75,1.25,5.965,1.25,5V3c0-0.965,0.785-1.75,1.75-1.75h2
	c0.965,0,1.75,0.785,1.75,1.75v2C6.75,5.965,5.965,6.75,5,6.75z M3,2.75C2.862,2.75,2.75,2.862,2.75,3v2
	c0,0.138,0.112,0.25,0.25,0.25h2c0.138,0,0.25-0.112,0.25-0.25V3c0-0.138-0.112-0.25-0.25-0.25H3z"/>
<path style="fill:#333333;" d="M21,22.75h-2c-0.965,0-1.75-0.785-1.75-1.75v-2c0-0.965,0.785-1.75,1.75-1.75h2
	c0.965,0,1.75,0.785,1.75,1.75v2C22.75,21.965,21.965,22.75,21,22.75z M19,18.75c-0.138,0-0.25,0.112-0.25,0.25v2
	c0,0.138,0.112,0.25,0.25,0.25h2c0.138,0,0.25-0.112,0.25-0.25v-2c0-0.138-0.112-0.25-0.25-0.25H19z"/>
<path style="fill:#333333;" d="M5,22.75H3c-0.965,0-1.75-0.785-1.75-1.75v-2c0-0.965,0.785-1.75,1.75-1.75h2
	c0.965,0,1.75,0.785,1.75,1.75v2C6.75,21.965,5.965,22.75,5,22.75z M3,18.75c-0.138,0-0.25,0.112-0.25,0.25v2
	c0,0.138,0.112,0.25,0.25,0.25h2c0.138,0,0.25-0.112,0.25-0.25v-2c0-0.138-0.112-0.25-0.25-0.25H3z"/>
<rect x="19.25" y="7" style="fill:#333333;" width="1.5" height="10"/>
<rect x="3.25" y="7" style="fill:#333333;" width="1.5" height="10"/>
</svg>






