<?xml version="1.0" encoding="iso-8859-1"?>
<svg version="1.1" id="&#x56FE;&#x5C42;_1" xmlns="http://www.w3.org/2000/svg" xmlns:xlink="http://www.w3.org/1999/xlink" x="0px"
	 y="0px" viewBox="0 0 24 24" style="enable-background:new 0 0 24 24;" xml:space="preserve">
<path style="fill:#333333;" d="M22.778,18.75H1.221l0.082-0.824C1.851,12.41,6.45,8.25,12,8.25c5.551,0,10.149,4.16,10.696,9.676
	L22.778,18.75z M2.915,17.25h18.17c-0.819-4.329-4.589-7.5-9.085-7.5C7.505,9.75,3.735,12.92,2.915,17.25z"/>
<rect x="5.25" y="6.234" transform="matrix(0.8682 -0.4961 0.4961 0.8682 -3.3026 4.0638)" style="fill:#333333;" width="1.5" height="4.031"/>
<rect x="15.484" y="7.5" transform="matrix(0.496 -0.8683 0.8683 0.496 1.6564 19.3537)" style="fill:#333333;" width="4.031" height="1.5"/>
<circle style="fill:#333333;" cx="7.5" cy="14.5" r="1"/>
<circle style="fill:#333333;" cx="16.5" cy="14.5" r="1"/>
</svg>






