<?xml version="1.0" encoding="iso-8859-1"?>
<svg version="1.1" id="&#x56FE;&#x5C42;_1" xmlns="http://www.w3.org/2000/svg" xmlns:xlink="http://www.w3.org/1999/xlink" x="0px"
	 y="0px" viewBox="0 0 24 24" style="enable-background:new 0 0 24 24;" xml:space="preserve">
<path style="fill:#333333;" d="M12.847,21.751c-0.276,0-0.56-0.001-0.853-0.003h-0.002C3.047,21.656,1.25,20.767,1.25,19.36
	C1.25,17.26,9.427,8.251,12,8.251c2.573,0,10.75,9.008,10.75,11.109c0,0.257-0.075,0.639-0.437,0.996
	C21.654,21.011,19.968,21.751,12.847,21.751z M12.006,20.248c8.129,0.053,9.146-0.799,9.266-0.973
	c-0.161-1.452-7.5-9.524-9.271-9.524c-1.62,0-8.7,7.731-9.226,9.521C3.104,19.514,4.675,20.173,12.006,20.248L12.006,20.248z"/>
<rect x="8.213" y="15.166" transform="matrix(0.6408 -0.7677 0.7677 0.6408 -8.7612 13.1072)" style="fill:#333333;" width="2.825" height="1.5"/>
<path style="fill:#333333;" d="M12.25,5.5c0.69,0,1.25-0.56,1.25-1.25C13.5,3.56,12.94,3,12.25,3S11,3.56,11,4.25
	C11,4.94,11.56,5.5,12.25,5.5z"/>
<path style="fill:#333333;" d="M17,8c0.552,0,1-0.448,1-1c0-0.552-0.448-1-1-1s-1,0.448-1,1C16,7.552,16.448,8,17,8z"/>
<path style="fill:#333333;" d="M6,10.5c0.552,0,1-0.448,1-1c0-0.552-0.448-1-1-1s-1,0.448-1,1C5,10.052,5.448,10.5,6,10.5z"/>
<path style="fill:#333333;" d="M8.75,7.5c0.414,0,0.75-0.336,0.75-0.75C9.5,6.336,9.164,6,8.75,6S8,6.336,8,6.75
	C8,7.164,8.336,7.5,8.75,7.5z"/>
</svg>






