<?xml version="1.0" encoding="iso-8859-1"?>
<svg version="1.1" id="&#x56FE;&#x5C42;_1" xmlns="http://www.w3.org/2000/svg" xmlns:xlink="http://www.w3.org/1999/xlink" x="0px"
	 y="0px" viewBox="0 0 24 24" style="enable-background:new 0 0 24 24;" xml:space="preserve">
<path style="fill:#333333;" d="M17,13.561L10.439,7l2.03-2.03c1.107-1.108,4.272-2.289,6.561,0c2.29,2.29,1.108,5.453,0,6.561
	L17,13.561z M12.561,7L17,11.439l0.97-0.97c0.47-0.47,1.665-2.775,0-4.439c-1.664-1.664-3.969-0.469-4.439,0L12.561,7z"/>
<rect x="17.982" y="3.5" transform="matrix(0.7071 -0.7071 0.7071 0.7071 2.7794 15.2102)" style="fill:#333333;" width="3.536" height="1.5"/>
<path style="fill:#333333;" d="M8.098,20.341c-1.052,0-2.167-0.35-3.128-1.311c-2.29-2.29-1.108-5.452,0-6.561L7,10.439L13.561,17
	l-2.03,2.03C10.887,19.673,9.553,20.341,8.098,20.341z M7,12.561l-0.97,0.97c-0.47,0.47-1.665,2.774,0,4.439
	c1.665,1.665,3.97,0.471,4.439,0l0.97-0.97L7,12.561z"/>
<rect x="11.086" y="14.25" transform="matrix(0.7071 -0.7071 0.7071 0.7071 -6.9454 13.2322)" style="fill:#333333;" width="2.828" height="1.5"/>
<rect x="2.482" y="19" transform="matrix(0.7071 -0.7071 0.7071 0.7071 -12.7206 8.7898)" style="fill:#333333;" width="3.536" height="1.5"/>
<rect x="7.586" y="10.75" transform="matrix(0.7071 -0.7071 0.7071 0.7071 -5.4957 9.7322)" style="fill:#333333;" width="2.828" height="1.5"/>
</svg>






