<?xml version="1.0" encoding="iso-8859-1"?>
<svg version="1.1" id="&#x56FE;&#x5C42;_1" xmlns="http://www.w3.org/2000/svg" xmlns:xlink="http://www.w3.org/1999/xlink" x="0px"
	 y="0px" viewBox="0 0 24 24" style="enable-background:new 0 0 24 24;" xml:space="preserve">
<path style="fill:#333333;" d="M19.5,21.75h-15c-1.241,0-2.25-1.01-2.25-2.25v-15c0-1.241,1.009-2.25,2.25-2.25h15
	c1.24,0,2.25,1.009,2.25,2.25v15C21.75,20.74,20.74,21.75,19.5,21.75z M4.5,3.75c-0.414,0-0.75,0.336-0.75,0.75v15
	c0,0.413,0.336,0.75,0.75,0.75h15c0.413,0,0.75-0.337,0.75-0.75v-15c0-0.414-0.337-0.75-0.75-0.75H4.5z"/>
<rect x="7.374" y="9.531" transform="matrix(0.5091 -0.8607 0.8607 0.5091 -3.0735 15.1734)" style="fill:#333333;" width="8.784" height="1.5"/>
<rect x="7.304" y="16.406" transform="matrix(0.5091 -0.8607 0.8607 0.5091 -10.985 15.0516)" style="fill:#333333;" width="0.799" height="1.5"/>
<rect x="6" y="13.75" style="fill:#333333;" width="5.5" height="1.5"/>
<rect x="15" y="13.75" style="fill:#333333;" width="3" height="1.5"/>
<rect x="9.844" y="6.181" transform="matrix(0.8437 -0.5369 0.5369 0.8437 -2.7562 6.9724)" style="fill:#333333;" width="1.5" height="4.075"/>
<rect x="14.219" y="12.242" transform="matrix(0.8437 -0.5369 0.5369 0.8437 -5.7633 10.3961)" style="fill:#333333;" width="1.5" height="5.704"/>
</svg>






