<?xml version="1.0" encoding="iso-8859-1"?>
<svg version="1.1" id="&#x56FE;&#x5C42;_1" xmlns="http://www.w3.org/2000/svg" xmlns:xlink="http://www.w3.org/1999/xlink" x="0px"
	 y="0px" viewBox="0 0 24 24" style="enable-background:new 0 0 24 24;" xml:space="preserve">
<polygon style="fill:#333333;" points="20.77,21.75 3.27,21.75 3.27,11 4.77,11 4.77,20.25 19.27,20.25 19.27,11 20.77,11 "/>
<path style="fill:#333333;" d="M18.283,11.75c-1.229,0-2.322-0.591-3.009-1.503c-0.685,0.912-1.775,1.503-3.001,1.503h-0.51
	c-1.226,0-2.316-0.591-3.001-1.503c-0.687,0.912-1.779,1.503-3.008,1.503c-1.249,0-2.417-0.616-3.124-1.646
	C1.928,9.078,1.775,7.775,2.222,6.618L3.909,2.25h16.223l1.686,4.366c0.447,1.157,0.294,2.46-0.409,3.486
	C20.701,11.134,19.532,11.75,18.283,11.75z M14.523,8h1.5c0,1.241,1.014,2.25,2.26,2.25c0.766,0,1.454-0.363,1.888-0.996
	c0.431-0.627,0.521-1.392,0.248-2.097L19.103,3.75H4.937L3.621,7.159c-0.273,0.706-0.183,1.47,0.247,2.096
	c0.434,0.632,1.121,0.995,1.886,0.995C7,10.25,8.014,9.241,8.014,8h1.5c0,1.241,1.009,2.25,2.25,2.25h0.51
	C13.514,10.25,14.523,9.241,14.523,8z"/>
</svg>






