<?xml version="1.0" encoding="iso-8859-1"?>
<svg version="1.1" id="&#x56FE;&#x5C42;_1" xmlns="http://www.w3.org/2000/svg" xmlns:xlink="http://www.w3.org/1999/xlink" x="0px"
	 y="0px" viewBox="0 0 24 24" style="enable-background:new 0 0 24 24;" xml:space="preserve">
<path style="fill:#333333;" d="M16,22.694c-1.663,0-3.261-0.61-4.5-1.719l1-1.117c0.964,0.861,2.207,1.336,3.5,1.336
	c2.895,0,5.25-2.355,5.25-5.25c0-2.265-1.442-4.267-3.59-4.982l0.475-1.423c2.761,0.919,4.615,3.494,4.615,6.405
	C22.75,19.666,19.722,22.694,16,22.694z"/>
<path style="fill:#333333;" d="M8,22.694c-3.722,0-6.75-3.028-6.75-6.75c0-2.922,1.863-5.499,4.637-6.412l0.47,1.425
	c-2.157,0.71-3.606,2.715-3.606,4.987c0,2.895,2.355,5.25,5.25,5.25s5.25-2.355,5.25-5.25c0-0.661-0.122-1.308-0.362-1.921
	l1.396-0.547c0.309,0.788,0.466,1.618,0.466,2.468C14.75,19.666,11.722,22.694,8,22.694z"/>
<path style="fill:#333333;" d="M12,14.694c-3.722,0-6.75-3.028-6.75-6.75c0-3.722,3.028-6.75,6.75-6.75
	c3.722,0,6.75,3.028,6.75,6.75C18.75,11.667,15.722,14.694,12,14.694z M12,2.694c-2.895,0-5.25,2.355-5.25,5.25
	c0,2.895,2.355,5.25,5.25,5.25c2.895,0,5.25-2.355,5.25-5.25C17.25,5.05,14.895,2.694,12,2.694z"/>
</svg>






