<?xml version="1.0" encoding="iso-8859-1"?>
<svg version="1.1" id="&#x56FE;&#x5C42;_1" xmlns="http://www.w3.org/2000/svg" xmlns:xlink="http://www.w3.org/1999/xlink" x="0px"
	 y="0px" viewBox="0 0 24 24" style="enable-background:new 0 0 24 24;" xml:space="preserve">
<path style="fill:#333333;" d="M17.25,10.75c-2.206,0-4-1.794-4-4s1.794-4,4-4s4,1.794,4,4S19.456,10.75,17.25,10.75z M17.25,4.25
	c-1.379,0-2.5,1.122-2.5,2.5s1.121,2.5,2.5,2.5s2.5-1.122,2.5-2.5S18.629,4.25,17.25,4.25z"/>
<path style="fill:#333333;" d="M17.25,21.25c-2.206,0-4-1.794-4-4s1.794-4,4-4s4,1.794,4,4S19.456,21.25,17.25,21.25z M17.25,14.75
	c-1.379,0-2.5,1.121-2.5,2.5s1.121,2.5,2.5,2.5s2.5-1.121,2.5-2.5S18.629,14.75,17.25,14.75z"/>
<path style="fill:#333333;" d="M6.75,10.75c-2.206,0-4-1.794-4-4s1.794-4,4-4s4,1.794,4,4S8.956,10.75,6.75,10.75z M6.75,4.25
	c-1.378,0-2.5,1.122-2.5,2.5s1.122,2.5,2.5,2.5s2.5-1.122,2.5-2.5S8.128,4.25,6.75,4.25z"/>
<path style="fill:#333333;" d="M6.75,21.25c-2.206,0-4-1.794-4-4s1.794-4,4-4s4,1.794,4,4S8.956,21.25,6.75,21.25z M6.75,14.75
	c-1.378,0-2.5,1.121-2.5,2.5s1.122,2.5,2.5,2.5s2.5-1.121,2.5-2.5S8.128,14.75,6.75,14.75z"/>
</svg>






