<?xml version="1.0" encoding="iso-8859-1"?>
<svg version="1.1" id="&#x56FE;&#x5C42;_1" xmlns="http://www.w3.org/2000/svg" xmlns:xlink="http://www.w3.org/1999/xlink" x="0px"
	 y="0px" viewBox="0 0 24 24" style="enable-background:new 0 0 24 24;" xml:space="preserve">
<path style="fill:#333333;" d="M15.259,22.179c-0.366,0-0.718-0.061-1.055-0.136c-0.341-0.076-0.618-0.229-0.887-0.378
	C12.94,21.457,12.584,21.26,12,21.26c-0.599,0-0.957,0.2-1.335,0.411c-0.259,0.146-0.528,0.295-0.854,0.37
	c-0.611,0.141-1.417,0.257-2.24-0.104c-1.217-0.537-1.937-1.241-2.82-2.178c-1.683-1.783-2.501-4.153-2.501-7.244
	c0-2.835,0.677-4.762,2.129-6.063c1.272-1.14,2.22-1.438,3.746-1.185c0.751,0.125,1.472,0.569,2.168,0.999
	c0.626,0.386,1.274,0.786,1.71,0.786c0.349,0,0.738-0.305,1.189-0.659c0.572-0.448,1.284-1.006,2.238-1.129
	c1.724-0.224,2.624,0.039,4.009,1.165c1.597,1.299,2.31,3.176,2.31,6.086c0,3.154-0.809,5.545-2.473,7.31
	c-0.877,0.929-1.624,1.571-2.849,2.112C16.024,22.114,15.634,22.179,15.259,22.179z M7.202,6.68c-0.608,0-1.076,0.222-1.821,0.889
	c-0.759,0.68-1.63,1.856-1.63,4.946c0,2.69,0.684,4.723,2.092,6.215c0.81,0.857,1.37,1.409,2.335,1.834
	c0.333,0.147,0.709,0.152,1.296,0.017c0.119-0.027,0.277-0.116,0.46-0.219c0.455-0.254,1.077-0.602,2.066-0.602
	c0.971,0,1.59,0.343,2.043,0.592c0.191,0.106,0.357,0.198,0.487,0.227c0.61,0.137,0.961,0.133,1.293-0.015
	c0.998-0.439,1.601-0.961,2.362-1.769c1.39-1.473,2.064-3.527,2.064-6.28c0-3.097-0.938-4.257-1.757-4.922
	c-1.056-0.86-1.565-1.008-2.87-0.842c-0.545,0.07-1.011,0.436-1.505,0.823c-0.585,0.458-1.248,0.978-2.114,0.978
	c-0.862,0-1.693-0.513-2.498-1.009C8.933,7.188,8.34,6.823,7.88,6.747C7.627,6.705,7.407,6.68,7.202,6.68z"/>
<path style="fill:#333333;" d="M12.751,7.877l-1.492-0.151c0.542-5.352,3.425-6.476,5.747-6.476h0.542l0.17,0.514
	c0.307,0.927,0.387,1.844,0.236,2.725c-0.075,0.438-0.284,1.009-0.64,1.747l-1.352-0.649c0.36-0.751,0.479-1.149,0.513-1.351
	c0.08-0.469,0.067-0.958-0.036-1.46C14.927,2.923,13.163,3.804,12.751,7.877z"/>
<path style="fill:#333333;" d="M7.509,17.297c-0.579-0.498-0.96-1.196-1.131-2.075c-0.156-0.808-0.156-1.605,0.001-2.373l1.47,0.302
	c-0.118,0.572-0.117,1.173,0.001,1.785c0.106,0.547,0.314,0.947,0.637,1.225L7.509,17.297z"/>
</svg>






