<?xml version="1.0" encoding="iso-8859-1"?>
<svg version="1.1" id="&#x56FE;&#x5C42;_1" xmlns="http://www.w3.org/2000/svg" xmlns:xlink="http://www.w3.org/1999/xlink" x="0px"
	 y="0px" viewBox="0 0 24 24" style="enable-background:new 0 0 24 24;" xml:space="preserve">
<path style="fill:#333333;" d="M11.956,5.659c0.041-1.116,0.354-2.096,0.933-2.915c0.582-0.823,1.543-1.408,2.859-1.74
	c0.009,0.041,0.018,0.081,0.027,0.121v0.212c0,0.481-0.117,1.032-0.347,1.638c-0.241,0.587-0.618,1.14-1.119,1.638
	c-0.468,0.439-0.901,0.73-1.284,0.862c-0.126,0.038-0.3,0.075-0.509,0.108C12.33,5.613,12.143,5.638,11.956,5.659z"/>
<path style="fill:#333333;" d="M15.774,22c-0.58,0-1.205-0.211-1.868-0.436c-0.61-0.206-1.241-0.419-1.731-0.419
	c-0.461,0-0.976,0.191-1.52,0.394C10.046,21.766,9.416,22,8.755,22c-1.359,0-2.217-1.015-2.584-1.448l0.493-0.578l-0.567,0.49
	C5.151,19.371,2.954,16.359,2.954,12c0-4.917,3.212-6.75,5.236-6.75c0.916,0,1.665,0.393,2.327,0.74
	c0.589,0.308,1.097,0.575,1.658,0.575c0.553,0,1.092-0.258,1.716-0.557C14.634,5.653,15.477,5.25,16.5,5.25
	c1.348,0,2.53,0.649,3.515,1.931l0.422,0.549l-0.514,0.464c-1.125,1.018-1.672,2.263-1.672,3.806c0,2.227,1.636,3.2,2.251,3.566
	l0.527,0.314l-0.203,0.579c-0.445,1.266-1.732,3.447-2.504,4.244C17.65,21.399,17.069,22,15.774,22z M12.175,19.646
	c0.736,0,1.521,0.265,2.212,0.498c0.519,0.176,1.055,0.356,1.388,0.356c0.631,0,0.84-0.188,1.47-0.839
	c0.485-0.501,1.429-2.012,1.943-3.151c-0.951-0.654-2.437-2.006-2.437-4.51c0-1.709,0.553-3.186,1.645-4.397
	C17.818,7.03,17.193,6.75,16.5,6.75c-0.684,0-1.305,0.297-1.962,0.611c-0.723,0.346-1.471,0.703-2.363,0.703
	c-0.93,0-1.687-0.396-2.354-0.746C9.239,7.013,8.736,6.75,8.19,6.75c-0.969,0-3.736,0.964-3.736,5.25
	c0,3.855,1.942,6.518,2.777,7.482l0.085,0.101c0.271,0.32,0.775,0.917,1.438,0.917c0.391,0,0.87-0.178,1.377-0.367
	C10.747,19.904,11.443,19.646,12.175,19.646z"/>
</svg>






