<?xml version="1.0" encoding="iso-8859-1"?>
<svg version="1.1" id="&#x56FE;&#x5C42;_1" xmlns="http://www.w3.org/2000/svg" xmlns:xlink="http://www.w3.org/1999/xlink" x="0px"
	 y="0px" viewBox="0 0 24 24" style="enable-background:new 0 0 24 24;" xml:space="preserve">
<path style="fill:#333333;" d="M20.47,21.53l-4.5-4.5l1.061-1.061l4.5,4.5L20.47,21.53z M6.97,8.03l-4.5-4.5L3.53,2.47l4.5,4.5
	L6.97,8.03z"/>
<path style="fill:#333333;" d="M3.53,21.53L2.47,20.47l4.5-4.5L8.03,17.03L3.53,21.53z M17.03,8.03L15.97,6.97l4.5-4.5L21.53,3.53
	L17.03,8.03z"/>
<path style="fill:#333333;" d="M12,15.25c-1.792,0-3.25-1.458-3.25-3.25S10.208,8.75,12,8.75s3.25,1.458,3.25,3.25
	S13.792,15.25,12,15.25z M12,10.25c-0.965,0-1.75,0.785-1.75,1.75s0.785,1.75,1.75,1.75s1.75-0.785,1.75-1.75S12.965,10.25,12,10.25
	z"/>
</svg>






