<?xml version="1.0" encoding="iso-8859-1"?>
<svg version="1.1" id="&#x56FE;&#x5C42;_1" xmlns="http://www.w3.org/2000/svg" xmlns:xlink="http://www.w3.org/1999/xlink" x="0px"
	 y="0px" viewBox="0 0 24 24" style="enable-background:new 0 0 24 24;" xml:space="preserve">
<path style="fill:#333333;" d="M20.75,22.75h-6.5V14.5c0-1.24-1.01-2.25-2.25-2.25c-1.241,0-2.25,1.01-2.25,2.25v8.25h-6.5V7.25
	h17.5V22.75z M15.75,21.25h3.5V8.75H4.75v12.5h3.5V14.5c0-2.067,1.682-3.75,3.75-3.75c2.067,0,3.75,1.683,3.75,3.75V21.25z"/>
<path style="fill:#333333;" d="M20,8.75H4c-1.241,0-2.25-1.009-2.25-2.25V4.25h20.5V6.5C22.25,7.741,21.24,8.75,20,8.75z M3.25,5.75
	V6.5c0,0.414,0.336,0.75,0.75,0.75h16c0.413,0,0.75-0.336,0.75-0.75V5.75H3.25z"/>
<rect x="2.5" y="1.25" style="fill:#333333;" width="19" height="1.5"/>
<rect x="3.25" y="2" style="fill:#333333;" width="1.5" height="2.5"/>
<rect x="19.25" y="2" style="fill:#333333;" width="1.5" height="2.5"/>
<rect x="4" y="13.25" style="fill:#333333;" width="5" height="1.5"/>
<rect x="15" y="13.25" style="fill:#333333;" width="5" height="1.5"/>
</svg>






