<?xml version="1.0" encoding="iso-8859-1"?>
<svg version="1.1" id="&#x56FE;&#x5C42;_1" xmlns="http://www.w3.org/2000/svg" xmlns:xlink="http://www.w3.org/1999/xlink" x="0px"
	 y="0px" viewBox="0 0 24 24" style="enable-background:new 0 0 24 24;" xml:space="preserve">
<g>
	<defs>
		<rect id="SVGID_1_" width="24" height="24"/>
	</defs>
	<clipPath id="SVGID_00000086682050348174621710000016197045520935807147_">
		<use xlink:href="#SVGID_1_"  style="overflow:visible;"/>
	</clipPath>
	<g style="clip-path:url(#SVGID_00000086682050348174621710000016197045520935807147_);">
		<path style="fill:#333333;" d="M20.278,22.695l-0.787-0.157c-0.662-0.133-1.233-0.56-1.608-1.203
			c-0.467-0.801-0.579-1.839-0.294-2.708c0.928-2.829,0.202-6.57-0.152-8.047c-0.055-0.229-0.243-0.41-0.492-0.473l-1.131-0.283
			c-0.808-0.202-1.435-0.829-1.638-1.636l-0.282-1.132c-0.062-0.249-0.243-0.438-0.473-0.492c-1.478-0.354-5.22-1.078-8.047-0.152
			C4.502,6.695,3.466,6.584,2.665,6.117C2.022,5.742,1.595,5.171,1.462,4.51L1.305,3.723l1.471-0.294l0.157,0.787
			C2.994,4.517,3.231,4.711,3.42,4.821c0.429,0.25,1.025,0.317,1.485,0.166c3.078-1.008,6.875-0.358,8.865,0.118
			c0.775,0.186,1.38,0.794,1.578,1.587l0.282,1.132c0.067,0.269,0.277,0.478,0.546,0.545l1.131,0.283
			c0.794,0.198,1.401,0.803,1.588,1.578c0.478,1.989,1.128,5.786,0.119,8.865c-0.151,0.461-0.085,1.057,0.164,1.485
			c0.11,0.188,0.305,0.427,0.606,0.487l0.786,0.157L20.278,22.695z"/>
		
			<rect x="10.25" y="2.186" transform="matrix(0.7071 -0.7071 0.7071 0.7071 -6.3241 11.7322)" style="fill:#333333;" width="1.5" height="22.627"/>
		
			<rect x="2.79" y="9.5" transform="matrix(0.7071 -0.7071 0.7071 0.7071 -3.2206 12.7249)" style="fill:#333333;" width="21.92" height="1.5"/>
	</g>
</g>
</svg>






