<?xml version="1.0" encoding="iso-8859-1"?>
<svg version="1.1" id="&#x56FE;&#x5C42;_1" xmlns="http://www.w3.org/2000/svg" xmlns:xlink="http://www.w3.org/1999/xlink" x="0px"
	 y="0px" viewBox="0 0 24 24" style="enable-background:new 0 0 24 24;" xml:space="preserve">
<path style="fill:#333333;" d="M6.5,21.75v-1.5c4.549,0,8.25-3.701,8.25-8.25S11.049,3.75,6.5,3.75v-1.5
	c5.376,0,9.75,4.374,9.75,9.75S11.876,21.75,6.5,21.75z"/>
<path style="fill:#333333;" d="M4.5,14.25c-1.241,0-2.25-1.01-2.25-2.25c0-1.241,1.009-2.25,2.25-2.25S6.75,10.759,6.75,12
	C6.75,13.24,5.741,14.25,4.5,14.25z M4.5,11.25c-0.414,0-0.75,0.336-0.75,0.75c0,0.413,0.336,0.75,0.75,0.75S5.25,12.413,5.25,12
	C5.25,11.586,4.914,11.25,4.5,11.25z"/>
<rect x="6" y="11.25" style="fill:#333333;" width="15" height="1.5"/>
<polygon style="fill:#333333;" points="19.53,14.53 18.47,13.47 19.939,12 18.47,10.53 19.53,9.47 22.061,12 "/>
</svg>






