<?xml version="1.0" encoding="iso-8859-1"?>
<svg version="1.1" id="&#x56FE;&#x5C42;_1" xmlns="http://www.w3.org/2000/svg" xmlns:xlink="http://www.w3.org/1999/xlink" x="0px"
	 y="0px" viewBox="0 0 24 24" style="enable-background:new 0 0 24 24;" xml:space="preserve">
<path style="fill:#333333;" d="M22.75,21.75H1.25v-8.782l4.512,2.538l2.932-4.398l3.07,1.023l3.654-4.176l3,2.5l3.018-3.449
	L22.75,7.5V21.75z M2.75,20.25h18.5V9.496l-2.668,3.049l-3-2.5l-3.346,3.824l-2.93-0.977l-3.068,4.602L2.75,15.532V20.25z"/>
<polygon style="fill:#333333;" points="2.75,14.25 1.25,14.25 1.25,8.5 2.488,7.931 5.354,10.388 8.001,6.537 11.087,8.08 
	15.435,3.477 18.199,5.74 21.47,2.47 22.75,3 22.75,7.75 21.25,7.75 21.25,4.811 18.301,7.76 15.565,5.523 11.413,9.92 8.499,8.463 
	5.646,12.612 2.75,10.131 "/>
</svg>






