<?xml version="1.0" encoding="iso-8859-1"?>
<svg version="1.1" id="&#x56FE;&#x5C42;_1" xmlns="http://www.w3.org/2000/svg" xmlns:xlink="http://www.w3.org/1999/xlink" x="0px"
	 y="0px" viewBox="0 0 24 24" style="enable-background:new 0 0 24 24;" xml:space="preserve">
<path style="fill:#333333;" d="M12.335,18.671h-0.67l-10-5v-1.342l10-5h0.67l10,5v1.342L12.335,18.671z M3.677,13L12,17.161
	L20.323,13L12,8.838L3.677,13z"/>
<path style="fill:#333333;" d="M12.335,14.171h-0.67l-10-5V7.829l10-5h0.67l10,5v1.342L12.335,14.171z M3.677,8.5L12,12.661
	L20.323,8.5L12,4.338L3.677,8.5z"/>
<path style="fill:#333333;" d="M12.335,22.671h-0.67l-10-5L1.25,17v-4l1.085-0.671L12,17.161l9.665-4.832L22.75,13v4l-0.415,0.671
	L12.335,22.671z M2.75,16.536L12,21.161l9.25-4.625v-2.322l-8.915,4.457h-0.67L2.75,14.214V16.536z"/>
<rect x="21.25" y="7" style="fill:#333333;" width="1.5" height="6"/>
<rect x="1.25" y="7" style="fill:#333333;" width="1.5" height="6"/>
<rect x="11.25" y="12" style="fill:#333333;" width="1.5" height="6"/>
<rect x="11.25" y="2" style="fill:#333333;" width="1.5" height="6"/>
</svg>






