<?xml version="1.0" encoding="iso-8859-1"?>
<svg version="1.1" id="&#x56FE;&#x5C42;_1" xmlns="http://www.w3.org/2000/svg" xmlns:xlink="http://www.w3.org/1999/xlink" x="0px"
	 y="0px" viewBox="0 0 24 24" style="enable-background:new 0 0 24 24;" xml:space="preserve">
<path style="fill:#333333;" d="M20.5,22.75h-17c-1.241,0-2.25-1.01-2.25-2.25v-17c0-1.241,1.009-2.25,2.25-2.25h17
	c1.24,0,2.25,1.009,2.25,2.25v17C22.75,21.74,21.74,22.75,20.5,22.75z M3.5,2.75c-0.414,0-0.75,0.336-0.75,0.75v17
	c0,0.413,0.336,0.75,0.75,0.75h17c0.413,0,0.75-0.337,0.75-0.75v-17c0-0.414-0.337-0.75-0.75-0.75H3.5z"/>
<rect x="5" y="6.25" style="fill:#333333;" width="4" height="1.5"/>
<rect x="5" y="6.25" style="fill:#333333;" width="4" height="1.5"/>
<rect x="4.879" y="16.25" transform="matrix(0.7071 -0.7071 0.7071 0.7071 -9.9706 9.9289)" style="fill:#333333;" width="4.243" height="1.5"/>
<rect x="6.25" y="5" style="fill:#333333;" width="1.5" height="4"/>
<rect x="6.25" y="14.879" transform="matrix(0.7071 -0.7071 0.7071 0.7071 -9.9706 9.9289)" style="fill:#333333;" width="1.5" height="4.243"/>
<rect x="15" y="6.25" style="fill:#333333;" width="4" height="1.5"/>
<rect x="15" y="14.75" style="fill:#333333;" width="4" height="1.5"/>
<rect x="15" y="17.75" style="fill:#333333;" width="4" height="1.5"/>
<rect x="11.25" y="2" style="fill:#333333;" width="1.5" height="20"/>
<rect x="2" y="11.25" style="fill:#333333;" width="20" height="1.5"/>
<rect x="9" y="1.25" style="fill:#333333;" width="6" height="1.5"/>
<rect x="9" y="21.25" style="fill:#333333;" width="6" height="1.5"/>
<rect x="1.25" y="10" style="fill:#333333;" width="1.5" height="4"/>
<rect x="21.25" y="10" style="fill:#333333;" width="1.5" height="4"/>
</svg>






