<?xml version="1.0" encoding="iso-8859-1"?>
<svg version="1.1" id="&#x56FE;&#x5C42;_1" xmlns="http://www.w3.org/2000/svg" xmlns:xlink="http://www.w3.org/1999/xlink" x="0px"
	 y="0px" viewBox="0 0 24 24" style="enable-background:new 0 0 24 24;" xml:space="preserve">
<path style="fill:none;" d="M7,2h10v10H7V2z"/>
<path style="fill:none;" d="M2,12h10v10H2V12z"/>
<path style="fill:none;" d="M12,12h10v10H12V12z"/>
<path style="fill:#333333;" d="M22.75,22.75H1.25v-11.5h5v-10h11.5v10h5V22.75z M12.75,21.25h8.5v-8.5h-8.5V21.25z M2.75,21.25h8.5
	v-8.5h-8.5V21.25z M7.75,11.25h8.5v-8.5h-8.5V11.25z"/>
<rect x="11.25" y="5" style="fill:#333333;" width="1.5" height="4"/>
<polygon style="fill:#333333;" points="13.47,7.53 12,6.061 10.53,7.53 9.47,6.47 12,3.939 14.53,6.47 "/>
<rect x="5" y="16.25" style="fill:#333333;" width="4" height="1.5"/>
<polygon style="fill:#333333;" points="6.47,19.53 3.939,17 6.47,14.47 7.53,15.53 6.061,17 7.53,18.47 "/>
<rect x="15" y="16.25" style="fill:#333333;" width="4" height="1.5"/>
<polygon style="fill:#333333;" points="17.53,19.53 16.47,18.47 17.939,17 16.47,15.53 17.53,14.47 20.061,17 "/>
</svg>






