<?xml version="1.0" encoding="iso-8859-1"?>
<svg version="1.1" id="&#x56FE;&#x5C42;_1" xmlns="http://www.w3.org/2000/svg" xmlns:xlink="http://www.w3.org/1999/xlink" x="0px"
	 y="0px" viewBox="0 0 24 24" style="enable-background:new 0 0 24 24;" xml:space="preserve">
<path style="fill:#333333;" d="M8,7.75C6.483,7.75,5.25,6.517,5.25,5S6.483,2.25,8,2.25S10.75,3.483,10.75,5S9.517,7.75,8,7.75z
	 M8,3.75C7.311,3.75,6.75,4.311,6.75,5S7.311,6.25,8,6.25S9.25,5.689,9.25,5S8.689,3.75,8,3.75z"/>
<path style="fill:#333333;" d="M14,19.75H6.5c-2.423,0-4.25-1.827-4.25-4.25s1.827-4.25,4.25-4.25H10v1.5H6.5
	c-1.619,0-2.75,1.131-2.75,2.75s1.131,2.75,2.75,2.75H14V19.75z"/>
<path style="fill:#333333;" d="M17.5,12.75H10v-1.5h7.5c1.619,0,2.75-1.131,2.75-2.75s-1.131-2.75-2.75-2.75H10v-1.5h7.5
	c2.423,0,4.25,1.827,4.25,4.25S19.923,12.75,17.5,12.75z"/>
<rect x="3" y="4.25" style="fill:#333333;" width="3" height="1.5"/>
<rect x="18" y="18.25" style="fill:#333333;" width="3" height="1.5"/>
<path style="fill:#333333;" d="M16,21.75c-1.517,0-2.75-1.233-2.75-2.75s1.233-2.75,2.75-2.75s2.75,1.233,2.75,2.75
	S17.517,21.75,16,21.75z M16,17.75c-0.689,0-1.25,0.561-1.25,1.25s0.561,1.25,1.25,1.25s1.25-0.561,1.25-1.25S16.689,17.75,16,17.75
	z"/>
</svg>






