<?xml version="1.0" encoding="iso-8859-1"?>
<svg version="1.1" id="&#x56FE;&#x5C42;_1" xmlns="http://www.w3.org/2000/svg" xmlns:xlink="http://www.w3.org/1999/xlink" x="0px"
	 y="0px" viewBox="0 0 24 24" style="enable-background:new 0 0 24 24;" xml:space="preserve">
<path style="fill:#333333;" d="M19.5,21.75h-15c-1.241,0-2.25-1.01-2.25-2.25v-15c0-1.241,1.009-2.25,2.25-2.25h15
	c1.24,0,2.25,1.009,2.25,2.25v15C21.75,20.74,20.74,21.75,19.5,21.75z M4.5,3.75c-0.414,0-0.75,0.336-0.75,0.75v15
	c0,0.413,0.336,0.75,0.75,0.75h15c0.413,0,0.75-0.337,0.75-0.75v-15c0-0.414-0.337-0.75-0.75-0.75H4.5z"/>
<rect x="11.25" y="8" style="fill:#333333;" width="1.5" height="8"/>
<rect x="11.25" y="8" transform="matrix(0.5736 -0.8191 0.8191 0.5736 -4.7127 14.946)" style="fill:#333333;" width="1.5" height="7.999"/>
<rect x="8" y="11.25" transform="matrix(0.8191 -0.5736 0.5736 0.8191 -4.7128 9.0543)" style="fill:#333333;" width="7.999" height="1.5"/>
</svg>






