<?xml version="1.0" encoding="iso-8859-1"?>
<svg version="1.1" id="&#x56FE;&#x5C42;_1" xmlns="http://www.w3.org/2000/svg" xmlns:xlink="http://www.w3.org/1999/xlink" x="0px"
	 y="0px" viewBox="0 0 24 24" style="enable-background:new 0 0 24 24;" xml:space="preserve">
<path style="fill:#333333;" d="M12,22.75C6.072,22.75,1.25,17.928,1.25,12S6.072,1.25,12,1.25S22.75,6.072,22.75,12h-1.5
	c0-5.101-4.149-9.25-9.25-9.25S2.75,6.899,2.75,12s4.149,9.25,9.25,9.25c2.217,0,4.361-0.796,6.037-2.242l0.98,1.137
	C17.068,21.824,14.576,22.75,12,22.75z"/>
<path style="fill:#333333;" d="M12,16.75c-2.619,0-4.75-2.131-4.75-4.75S9.381,7.25,12,7.25s4.75,2.131,4.75,4.75
	S14.619,16.75,12,16.75z M12,8.75c-1.792,0-3.25,1.458-3.25,3.25s1.458,3.25,3.25,3.25s3.25-1.458,3.25-3.25S13.792,8.75,12,8.75z"
	/>
<path style="fill:#333333;" d="M19,15.75c-2.067,0-3.75-1.683-3.75-3.75h1.5c0,1.24,1.01,2.25,2.25,2.25s2.25-1.01,2.25-2.25h1.5
	C22.75,14.067,21.067,15.75,19,15.75z"/>
<rect x="15.25" y="8" style="fill:#333333;" width="1.5" height="4.5"/>
</svg>






