<?xml version="1.0" encoding="iso-8859-1"?>
<svg version="1.1" id="&#x56FE;&#x5C42;_1" xmlns="http://www.w3.org/2000/svg" xmlns:xlink="http://www.w3.org/1999/xlink" x="0px"
	 y="0px" viewBox="0 0 24 24" style="enable-background:new 0 0 24 24;" xml:space="preserve">
<path style="fill:#333333;" d="M20.75,18.75H3.25l0.003-4.729c0.001-0.689,0.562-1.25,1.25-1.25h4.702
	c0.008-0.173,0.008-0.403,0.008-0.616c-0.03-0.092-0.292-0.375-0.483-0.582C7.993,10.78,6.761,9.451,6.761,6.926
	c0-3.816,2.789-5.176,5.399-5.176c3.229,0,5.158,1.935,5.158,5.176c0,2.428-1.121,3.629-1.863,4.423
	c-0.296,0.316-0.575,0.616-0.575,0.79c0,0.23,0,0.454,0.004,0.632H19.5c0.689,0,1.25,0.561,1.25,1.25V18.75z M4.75,17.25h14.5
	v-2.979h-4.729c-1.141,0-1.141-0.895-1.141-2.132c0-0.766,0.498-1.299,0.979-1.814c0.685-0.732,1.46-1.562,1.46-3.399
	c0-3.039-1.989-3.676-3.658-3.676c-1.172,0-3.899,0.358-3.899,3.676c0,1.937,0.869,2.875,1.567,3.628
	c0.454,0.49,0.883,0.953,0.883,1.585c0,0.548,0,0.934-0.081,1.247c-0.144,0.554-0.565,0.885-1.127,0.885H4.752L4.75,17.25z"/>
<rect x="4" y="20.25" style="fill:#333333;" width="16" height="1.5"/>
</svg>






