<?xml version="1.0" encoding="iso-8859-1"?>
<svg version="1.1" id="&#x56FE;&#x5C42;_1" xmlns="http://www.w3.org/2000/svg" xmlns:xlink="http://www.w3.org/1999/xlink" x="0px"
	 y="0px" viewBox="0 0 24 24" style="enable-background:new 0 0 24 24;" xml:space="preserve">
<path style="fill:#333333;" d="M20.75,22.75H3.25V1.25h12.595l4.905,5.723V22.75z M4.75,21.25h14.5V7.527L15.155,2.75H4.75V21.25z"
	/>
<polygon style="fill:#333333;" points="13.75,15.75 12.25,15.75 12.25,8.019 15.667,6.328 16.333,7.672 13.75,8.95 "/>
<path style="fill:#333333;" d="M10.25,19.25c-1.93,0-3.5-1.57-3.5-3.5s1.57-3.5,3.5-3.5s3.5,1.57,3.5,3.5S12.18,19.25,10.25,19.25z
	 M10.25,13.75c-1.103,0-2,0.897-2,2s0.897,2,2,2s2-0.897,2-2S11.353,13.75,10.25,13.75z"/>
</svg>






