<?xml version="1.0" encoding="iso-8859-1"?>
<svg version="1.1" id="&#x56FE;&#x5C42;_1" xmlns="http://www.w3.org/2000/svg" xmlns:xlink="http://www.w3.org/1999/xlink" x="0px"
	 y="0px" viewBox="0 0 24 24" style="enable-background:new 0 0 24 24;" xml:space="preserve">
<path style="fill:#333333;" d="M21.102,22.25H2.897c-0.632,0-1.146-0.509-1.146-1.135v-0.462c-0.012-0.2-0.01-1.058,0.551-1.994
	c0.351-0.586,0.85-1.086,1.482-1.487c0.732-0.462,1.643-0.786,2.707-0.966c0.056-0.008,0.759-0.103,1.46-0.283
	c0.497-0.127,0.771-0.238,0.912-0.308c-0.002-0.098-0.008-0.24-0.027-0.441c-0.106-1.171-0.72-1.846-1.312-2.499
	c-0.215-0.236-0.415-0.461-0.571-0.679C6.258,11.02,6.163,9.951,6.15,9.746C6.149,9.242,6.315,8.912,6.493,8.688
	C6.355,7.767,6.355,6.596,6.497,5.782c0.053-1.206,1.064-2.143,1.266-2.318c0.008-0.006,0.016-0.013,0.023-0.02
	C7.759,3.292,7.751,3.112,7.791,2.914C7.893,2.396,8.289,2.001,8.85,1.857c0.228-0.06,0.454-0.071,0.588-0.077
	c0.508-0.026,1.053-0.048,1.607-0.007c3.918,0.292,5.368,1.749,5.521,1.914c0.393,0.455,0.666,0.985,0.833,1.597
	c0.054,0.195,0.087,0.36,0.106,0.517c0.137,0.768,0.114,1.576,0.085,2.113c-0.013,0.234-0.036,0.476-0.073,0.749
	c0.1,0.128,0.19,0.28,0.254,0.476c0.055,0.172,0.08,0.349,0.08,0.544c-0.007,0.163-0.082,1.298-0.804,2.312
	c-0.154,0.215-0.351,0.435-0.562,0.667c-0.604,0.667-1.217,1.342-1.323,2.512c-0.019,0.2-0.025,0.344-0.026,0.441
	c0.141,0.07,0.416,0.182,0.916,0.31c0.677,0.173,1.341,0.266,1.414,0.275c1.118,0.2,2.038,0.533,2.767,0.996
	c0.634,0.399,1.132,0.899,1.481,1.484c0.554,0.93,0.547,1.784,0.531,2.023l0.002,0.411C22.247,21.741,21.733,22.25,21.102,22.25z
	 M3.252,21.114L3.252,21.114C3.252,21.114,3.252,21.114,3.252,21.114z M3.251,20.75h17.496v-0.094
	c0.005-0.104,0.027-0.622-0.322-1.208c-0.227-0.38-0.562-0.712-0.994-0.985c-0.565-0.358-1.304-0.621-2.196-0.781
	c-0.052-0.007-0.796-0.109-1.554-0.304c-1.18-0.301-1.802-0.659-1.958-1.126l-0.058-0.179c-0.041-0.213-0.04-0.561,0.003-1.034
	c0.151-1.671,1.043-2.653,1.694-3.371c0.18-0.198,0.34-0.372,0.463-0.544c0.479-0.674,0.526-1.471,0.526-1.479
	C16.337,9.58,16.3,9.542,16.267,9.507l-0.093-0.102c-0.15-0.146-0.224-0.403-0.176-0.717c0.05-0.325,0.079-0.598,0.094-0.857
	c0.025-0.463,0.046-1.154-0.069-1.807c-0.018-0.13-0.039-0.228-0.071-0.345c-0.109-0.401-0.274-0.726-0.505-0.994l0,0
	c-0.002,0-1.17-1.167-4.513-1.416c-0.469-0.036-0.939-0.017-1.421,0.009C9.45,3.281,9.371,3.285,9.302,3.294l0.072,0.164
	L9.242,4.072C9.1,4.292,8.912,4.46,8.73,4.61l0,0c0,0-0.711,0.625-0.746,1.336C7.85,6.754,7.865,7.905,8.008,8.657
	c0.019,0.095,0.071,0.36-0.062,0.634L7.881,9.422L7.772,9.52c-0.04,0.036-0.106,0.095-0.116,0.115
	C7.649,9.689,7.7,10.459,8.174,11.125c0.125,0.174,0.288,0.352,0.46,0.541c0.653,0.72,1.544,1.703,1.697,3.373
	c0.043,0.474,0.043,0.821,0.002,1.035l-0.058,0.179c-0.154,0.471-0.765,0.82-1.952,1.124c-0.771,0.198-1.525,0.302-1.608,0.312
	c-0.842,0.143-1.567,0.396-2.129,0.752c-0.432,0.273-0.768,0.606-0.997,0.988c-0.365,0.61-0.34,1.162-0.339,1.185V20.75z
	 M17.277,8.393C17.285,8.4,17.292,8.408,17.3,8.416C17.293,8.408,17.285,8.4,17.277,8.393z"/>
</svg>






