<?xml version="1.0" encoding="iso-8859-1"?>
<svg version="1.1" id="&#x56FE;&#x5C42;_1" xmlns="http://www.w3.org/2000/svg" xmlns:xlink="http://www.w3.org/1999/xlink" x="0px"
	 y="0px" viewBox="0 0 24 24" style="enable-background:new 0 0 24 24;" xml:space="preserve">
<polygon style="fill:#333333;" points="22,22.75 1.25,22.75 1.25,2 2.75,2 2.75,21.25 22,21.25 "/>
<path style="fill:#333333;" d="M21.259,19.116C20.547,14.563,17.765,2.75,13.5,2.75S6.453,14.563,5.741,19.116l-1.482-0.232
	C4.541,17.079,7.196,1.25,13.5,1.25s8.959,15.829,9.241,17.634L21.259,19.116z"/>
<path style="fill:#333333;" d="M22,12.75h-1v-1.5h1V12.75z M18,12.75h-1v-1.5h1V12.75z M14,12.75h-1v-1.5h1V12.75z M10,12.75H9v-1.5
	h1V12.75z M6,12.75H5v-1.5h1V12.75z"/>
</svg>






