<?xml version="1.0" encoding="iso-8859-1"?>
<svg version="1.1" id="&#x56FE;&#x5C42;_1" xmlns="http://www.w3.org/2000/svg" xmlns:xlink="http://www.w3.org/1999/xlink" x="0px"
	 y="0px" viewBox="0 0 24 24" style="enable-background:new 0 0 24 24;" xml:space="preserve">
<path style="fill:#333333;" d="M18.311,15.75H16.25v-1.5h1.439l2.5-2.5H5.5c-0.163,0-0.319,0.052-0.451,0.15l-1.634,1.226
	l2.061,1.043c0.105,0.053,0.223,0.081,0.339,0.081H6.5v1.5H5.816c-0.352,0-0.703-0.084-1.017-0.243l-4.214-2.133L4.15,10.7
	c0.388-0.29,0.867-0.45,1.35-0.45H22l0.53,1.28L18.311,15.75z"/>
<path style="fill:#333333;" d="M9.5,17.75H8.75v-4.5H9.5c2.288,0,4.75,0.704,4.75,2.25S11.788,17.75,9.5,17.75z M10.25,14.777v1.445
	c1.422-0.106,2.256-0.499,2.468-0.723C12.506,15.276,11.672,14.884,10.25,14.777z"/>
<path style="fill:#333333;" d="M19.058,11.75H11l-0.305-1.436l4.373-1.943l3.121-3.121h2.818L19.058,11.75z M14.534,10.25h3.408
	l1.05-3.5h-0.182l-3.006,2.936L14.534,10.25z"/>
</svg>






