<?xml version="1.0" encoding="iso-8859-1"?>
<svg version="1.1" id="&#x56FE;&#x5C42;_1" xmlns="http://www.w3.org/2000/svg" xmlns:xlink="http://www.w3.org/1999/xlink" x="0px"
	 y="0px" viewBox="0 0 24 24" style="enable-background:new 0 0 24 24;" xml:space="preserve">
<path style="fill:#333333;" d="M12.048,21.453c-0.728,0-1.464-0.071-2.195-0.218c-2.951-0.59-5.501-2.357-6.996-4.85l1.286-0.771
	c1.278,2.13,3.466,3.643,6.004,4.15c2.475,0.493,5.122-0.028,6.903-1.364c2.731-2.049,3.7-5.536,3.7-7.9
	c0-2.439-0.996-5.016-1.374-5.584c-0.272-0.408-0.859-0.636-1.062-0.689l0.367-1.454c0.132,0.033,1.3,0.348,1.942,1.312
	c0.584,0.875,1.626,3.768,1.626,6.416c0,2.84-1.13,6.723-4.3,9.1C16.341,20.808,14.234,21.453,12.048,21.453z"/>
<path style="fill:#333333;" d="M8.5,18.75c-3.155,0-5.266-1.069-6.643-3.364C0.195,12.615,0.875,9.406,3.55,7.4
	c1.359-1.019,2.795-1.112,4.183-1.202c0.883-0.057,1.717-0.111,2.508-0.402c1.292-0.476,2.307-1.255,3.203-1.941
	c0.969-0.743,1.885-1.445,2.95-1.598c1.093-0.154,2.086,0.096,2.796,0.711C19.873,3.562,20.25,4.461,20.25,5.5
	c0,1.896-1.031,6.842-4.22,10.03C13.712,17.848,11.601,18.75,8.5,18.75z M17.015,3.712c-0.131,0-0.268,0.01-0.408,0.03
	c-0.678,0.097-1.406,0.655-2.25,1.303c-0.98,0.751-2.092,1.604-3.597,2.158l0,0C9.765,7.57,8.781,7.634,7.83,7.695
	C6.554,7.778,5.452,7.849,4.45,8.6c-2.091,1.568-2.592,3.873-1.307,6.014C4.237,16.438,5.889,17.25,8.5,17.25
	c2.723,0,4.416-0.728,6.47-2.78c2.828-2.829,3.78-7.344,3.78-8.97c0-0.606-0.188-1.09-0.544-1.398
	C17.911,3.846,17.497,3.712,17.015,3.712z"/>
<path style="fill:#333333;" d="M10.411,14.25c-1.074,0-1.86-0.431-2.338-1.279c-0.596-1.058-0.352-2.283,0.606-3.049
	c0.514-0.411,1.072-0.45,1.479-0.478c0.213-0.015,0.397-0.027,0.541-0.084h0c0.283-0.111,0.523-0.307,0.754-0.496
	c0.316-0.259,0.644-0.526,1.091-0.594C13,8.198,13.428,8.313,13.747,8.588c0.324,0.279,0.503,0.695,0.503,1.171
	c0,0.751-0.36,2.326-1.326,3.356C12.168,13.921,11.44,14.25,10.411,14.25z M11.247,10.757c-0.358,0.141-0.706,0.165-0.986,0.184
	c-0.326,0.022-0.503,0.04-0.645,0.153c-0.386,0.308-0.472,0.724-0.237,1.141c0.174,0.31,0.417,0.516,1.032,0.516
	c0.605,0,0.95-0.16,1.419-0.661c0.693-0.739,0.92-1.984,0.92-2.33c-0.038,0.013-0.217,0.16-0.348,0.267
	C12.111,10.264,11.749,10.56,11.247,10.757L11.247,10.757z"/>
</svg>






