<?xml version="1.0" encoding="iso-8859-1"?>
<svg version="1.1" id="&#x56FE;&#x5C42;_1" xmlns="http://www.w3.org/2000/svg" xmlns:xlink="http://www.w3.org/1999/xlink" x="0px"
	 y="0px" viewBox="0 0 24 24" style="enable-background:new 0 0 24 24;" xml:space="preserve">
<path style="fill:#333333;" d="M12,22.75c-3.851,0-7.75-2.49-7.75-7.25c0-2.458,0.912-3.978,1.794-5.448
	c0.271-0.453,0.543-0.905,0.785-1.387c0.229-0.458,0.345-1.21,0.466-2.005C7.626,4.505,8.125,1.25,12,1.25
	c3.914,0,4.377,3.278,4.716,5.672c0.123,0.872,0.239,1.696,0.48,2.299c0.346,0.865,0.758,1.542,1.156,2.196
	c0.719,1.18,1.397,2.295,1.397,4.083C19.75,20.26,15.852,22.75,12,22.75z M12,2.75c-2.414,0-2.827,1.562-3.222,4.136
	c-0.141,0.916-0.273,1.78-0.607,2.449c-0.259,0.518-0.549,1.003-0.84,1.488C6.518,12.178,5.75,13.458,5.75,15.5
	c0,3.95,3.24,5.75,6.25,5.75c3.01,0,6.25-1.8,6.25-5.75c0-1.366-0.521-2.221-1.179-3.303c-0.41-0.674-0.875-1.438-1.268-2.419
	c-0.309-0.771-0.438-1.682-0.573-2.646C14.845,4.405,14.436,2.75,12,2.75z"/>
<path style="fill:#333333;" d="M12,18.75c-2.068,0-3.75-1.683-3.75-3.75c0-2.081,1.638-4.5,3.75-4.5c2.112,0,3.75,2.419,3.75,4.5
	C15.75,17.067,14.067,18.75,12,18.75z M12,12c-1.159,0-2.25,1.69-2.25,3c0,1.24,1.009,2.25,2.25,2.25c1.24,0,2.25-1.01,2.25-2.25
	C14.25,13.69,13.159,12,12,12z"/>
</svg>






