<?xml version="1.0" encoding="iso-8859-1"?>
<svg version="1.1" id="&#x56FE;&#x5C42;_1" xmlns="http://www.w3.org/2000/svg" xmlns:xlink="http://www.w3.org/1999/xlink" x="0px"
	 y="0px" viewBox="0 0 24 24" style="enable-background:new 0 0 24 24;" xml:space="preserve">
<path style="fill:#333333;" d="M15,21.75H5c-1.792,0-3.25-1.458-3.25-3.25v-13c0-1.792,1.458-3.25,3.25-3.25h7v1.5H5
	c-0.965,0-1.75,0.785-1.75,1.75v13c0,0.965,0.785,1.75,1.75,1.75h10V21.75z"/>
<polygon style="fill:#333333;" points="2.729,14.715 2.271,13.285 8.75,11.214 8.75,3 10.25,3 10.25,12.31 "/>
<rect x="11.75" y="9.838" transform="matrix(0.3162 -0.9487 0.9487 0.3162 -3.7858 20.7477)" style="fill:#333333;" width="1.501" height="6.324"/>
<rect x="17.75" y="9" style="fill:#333333;" width="1.5" height="12"/>
<path style="fill:#333333;" d="M18.5,9.75c-0.937,0-1.82-0.254-2.489-0.716c-0.812-0.562-1.261-1.403-1.261-2.367
	c0-3.606,2.404-5.417,3.75-5.417s3.75,1.81,3.75,5.417C22.25,8.691,20.363,9.75,18.5,9.75z M18.5,2.75
	c-0.542,0-2.25,1.178-2.25,3.917c0,1.252,1.472,1.583,2.25,1.583s2.25-0.331,2.25-1.583C20.75,3.928,19.042,2.75,18.5,2.75z"/>
</svg>






