<?xml version="1.0" encoding="iso-8859-1"?>
<svg version="1.1" id="&#x56FE;&#x5C42;_1" xmlns="http://www.w3.org/2000/svg" xmlns:xlink="http://www.w3.org/1999/xlink" x="0px"
	 y="0px" viewBox="0 0 24 24" style="enable-background:new 0 0 24 24;" xml:space="preserve">
<path style="fill:#333333;" d="M17.145,23.049c-0.394,0-0.82-0.089-1.252-0.268c-1.449-0.601-3.143-2.344-3.143-5.281V12
	c0-0.757-0.794-1.033-1.329-1.033c-0.334,0-0.645,0.097-0.851,0.266C10.355,11.409,10.25,11.66,10.25,12v8.75
	c0,0.804-0.466,2-1.75,2c-2.447,0-4.75-7.465-4.75-13.25c0-6.229,2.231-7.829,2.915-8.171L6.823,1.25h10.529l0.225,0.27
	c0.51,0.612,2.174,2.853,2.174,5.98c0,4.133-0.8,6.544-1.384,8.305c-0.344,1.039-0.616,1.859-0.616,2.695
	c0,0.426,0.306,0.872,0.601,1.303c0.442,0.646,1.182,1.726,0.18,2.728C18.188,22.873,17.699,23.049,17.145,23.049z M11.421,9.467
	c1.372,0,2.829,0.888,2.829,2.533v5.5c0,2.197,1.194,3.472,2.217,3.896c0.518,0.215,0.905,0.171,1.003,0.074
	c0.067-0.199-0.198-0.587-0.356-0.819c-0.385-0.562-0.863-1.261-0.863-2.15c0-1.078,0.321-2.046,0.693-3.168
	c0.582-1.756,1.307-3.941,1.307-7.832c0-2.281-1.057-4.001-1.614-4.75H7.201C6.418,3.276,5.25,5.188,5.25,9.5
	c0,6.078,2.335,11.453,3.288,11.754C8.735,21.25,8.75,20.755,8.75,20.75V12c0-0.784,0.309-1.469,0.871-1.928
	C10.097,9.682,10.736,9.467,11.421,9.467z"/>
<rect x="5" y="5.25" style="fill:#333333;" width="13.5" height="1.5"/>
<path style="fill:#333333;" d="M5.336,7.571L3.843,7.429c0.139-1.457,0.431-2.711,0.87-3.727L6.09,4.297
	C5.713,5.169,5.459,6.271,5.336,7.571z"/>
<path style="fill:#333333;" d="M19.75,7.5h-1.5c0-0.917-0.173-1.837-0.514-2.733l1.402-0.533C19.544,5.301,19.75,6.4,19.75,7.5z"/>
</svg>






