<?xml version="1.0" encoding="iso-8859-1"?>
<svg version="1.1" id="&#x56FE;&#x5C42;_1" xmlns="http://www.w3.org/2000/svg" xmlns:xlink="http://www.w3.org/1999/xlink" x="0px"
	 y="0px" viewBox="0 0 24 24" style="enable-background:new 0 0 24 24;" xml:space="preserve">
<path style="fill:#333333;" d="M9.362,22.747c-0.667,0-1.267-0.128-1.754-0.39c-0.773-0.415-1.235-1.123-1.335-2.048
	c-0.177-1.642,0.74-2.276,1.477-2.786c0.536-0.37,1.042-0.72,1.374-1.49c0.23-0.533-0.043-0.902-0.823-1.744
	c-0.841-0.909-1.994-2.154-1.531-4.152C7.076,8.813,8.109,7.83,9.604,7.439c2.448-0.641,5.452,0.33,7.304,2.361
	c1.141,1.25,1.585,3.139,1.22,5.182c-0.504,2.822-2.463,5.366-5.24,6.805C11.663,22.421,10.426,22.747,9.362,22.747z M11.147,8.75
	c-0.418,0-0.812,0.048-1.164,0.14C9.31,9.066,8.46,9.484,8.23,10.475c-0.283,1.224,0.391,1.952,1.171,2.794
	c0.774,0.837,1.738,1.877,1.099,3.357c-0.502,1.166-1.309,1.724-1.898,2.131c-0.669,0.463-0.92,0.636-0.839,1.392
	c0.046,0.427,0.222,0.708,0.554,0.887c0.809,0.435,2.369,0.201,3.88-0.581c2.365-1.226,4.03-3.369,4.453-5.736
	c0.278-1.558-0.04-3.018-0.851-3.907C14.495,9.381,12.663,8.75,11.147,8.75z"/>
<ellipse transform="matrix(0.6428 -0.766 0.766 0.6428 0.9839 15.6453)" style="fill:#333333;" cx="17.268" cy="6.768" rx="1.5" ry="1"/>
<ellipse transform="matrix(0.4226 -0.9063 0.9063 0.4226 3.6771 16.375)" style="fill:#333333;" cx="14.69" cy="5.302" rx="1.5" ry="1"/>
<ellipse transform="matrix(0.1045 -0.9945 0.9945 0.1045 5.6932 15.9257)" style="fill:#333333;" cx="11.69" cy="4.801" rx="1.5" ry="1"/>
<path style="fill:#333333;" d="M7.291,6.698c-0.411,0-0.831-0.128-1.213-0.378c-0.53-0.346-0.954-0.896-1.191-1.55
	C4.358,3.321,4.874,1.848,6.059,1.416h0c0.595-0.217,1.274-0.121,1.863,0.265c0.53,0.346,0.954,0.897,1.191,1.55
	c0.238,0.653,0.268,1.347,0.083,1.953c-0.204,0.674-0.662,1.184-1.257,1.4C7.732,6.66,7.512,6.698,7.291,6.698z M6.573,2.825
	L6.573,2.825C6.24,2.947,6.05,3.584,6.295,4.257c0.126,0.345,0.345,0.64,0.602,0.807c0.112,0.073,0.33,0.184,0.53,0.111
	c0.202-0.073,0.296-0.298,0.335-0.426C7.852,4.456,7.83,4.089,7.705,3.744c-0.126-0.346-0.345-0.64-0.602-0.808
	C6.991,2.863,6.773,2.751,6.573,2.825z"/>
<ellipse transform="matrix(0.766 -0.6428 0.6428 0.766 -1.1281 14.4363)" style="fill:#333333;" cx="19.268" cy="8.768" rx="1.5" ry="1"/>
</svg>






