<?xml version="1.0" encoding="iso-8859-1"?>
<svg version="1.1" id="&#x56FE;&#x5C42;_1" xmlns="http://www.w3.org/2000/svg" xmlns:xlink="http://www.w3.org/1999/xlink" x="0px"
	 y="0px" viewBox="0 0 24 24" style="enable-background:new 0 0 24 24;" xml:space="preserve">
<path style="fill:#333333;" d="M12,22.55c-4.777,0-8.47-3.852-9.649-7.657c-0.034-0.077-0.308-0.253-0.471-0.357
	c-0.609-0.392-1.63-1.046-1.63-2.635c0-1.574,0.977-2.238,1.624-2.677C2.076,9.086,2.354,8.897,2.385,8.8
	C3.594,5.048,7.285,1.25,12,1.25c4.712,0,8.403,3.795,9.613,7.543c0.033,0.103,0.316,0.299,0.522,0.442
	c0.643,0.445,1.614,1.117,1.614,2.664c0,1.568-1.017,2.214-1.624,2.6c-0.169,0.107-0.425,0.271-0.464,0.348
	C20.499,18.673,16.806,22.55,12,22.55z M12,2.75c-3.998,0-7.145,3.275-8.188,6.51c-0.189,0.588-0.671,0.916-1.096,1.204
	C2.099,10.883,1.75,11.156,1.75,11.9c0,0.734,0.34,0.988,0.94,1.373c0.426,0.274,0.91,0.584,1.093,1.176
	C4.8,17.729,7.949,21.05,12,21.05c4.076,0,7.225-3.342,8.229-6.643c0.181-0.594,0.665-0.901,1.093-1.173
	c0.593-0.377,0.929-0.625,0.929-1.334c0-0.726-0.35-1.003-0.968-1.431c-0.425-0.294-0.907-0.628-1.097-1.214
	C19.143,6.022,15.995,2.75,12,2.75z"/>
<path style="fill:#333333;" d="M20.186,9.254C19.143,6.022,15.995,2.75,12,2.75v-1.5c4.712,0,8.403,3.795,9.613,7.543L20.186,9.254z
	"/>
<g>
	<path style="fill:#333333;" d="M9.55,10.8c0,0.413-0.112,0.776-0.28,1.028C9.101,12.082,8.894,12.2,8.7,12.2
		S8.3,12.082,8.13,11.828c-0.168-0.252-0.28-0.615-0.28-1.028s0.112-0.776,0.28-1.028C8.3,9.518,8.506,9.4,8.7,9.4
		s0.401,0.118,0.57,0.372C9.438,10.024,9.55,10.387,9.55,10.8z"/>
	<path style="fill:#333333;" d="M8.7,12.45c-0.294,0-0.57-0.172-0.778-0.483C7.714,11.654,7.6,11.24,7.6,10.8
		s0.114-0.855,0.322-1.167c0.415-0.622,1.14-0.623,1.556,0C9.686,9.945,9.8,10.359,9.8,10.8s-0.114,0.854-0.322,1.167
		C9.27,12.278,8.994,12.45,8.7,12.45z M8.7,9.65c-0.12,0-0.251,0.095-0.362,0.261C8.187,10.138,8.1,10.462,8.1,10.8
		s0.087,0.662,0.238,0.89c0.221,0.332,0.503,0.333,0.724,0C9.213,11.462,9.3,11.138,9.3,10.8s-0.087-0.662-0.238-0.889
		C8.952,9.745,8.819,9.65,8.7,9.65z"/>
</g>
<g>
	<path style="fill:#333333;" d="M16.15,10.8c0,0.413-0.112,0.776-0.28,1.028C15.7,12.082,15.494,12.2,15.3,12.2
		s-0.401-0.118-0.57-0.372c-0.168-0.252-0.28-0.615-0.28-1.028s0.112-0.776,0.28-1.028C14.899,9.518,15.106,9.4,15.3,9.4
		s0.401,0.118,0.57,0.372C16.038,10.024,16.15,10.387,16.15,10.8z"/>
	<path style="fill:#333333;" d="M15.3,12.45c-0.294,0-0.57-0.172-0.777-0.483C14.314,11.654,14.2,11.24,14.2,10.8
		s0.114-0.855,0.322-1.167c0.414-0.623,1.137-0.625,1.556,0C16.286,9.945,16.4,10.359,16.4,10.8s-0.114,0.854-0.322,1.167
		C15.869,12.278,15.593,12.45,15.3,12.45z M15.3,9.65c-0.119,0-0.251,0.095-0.361,0.261C14.787,10.138,14.7,10.462,14.7,10.8
		s0.087,0.662,0.238,0.89c0.221,0.332,0.503,0.332,0.724,0c0.151-0.227,0.238-0.551,0.238-0.889s-0.087-0.662-0.238-0.889
		C15.552,9.745,15.419,9.65,15.3,9.65z"/>
</g>
<path style="fill-rule:evenodd;clip-rule:evenodd;fill:#333333;" d="M9.249,15.875c0.965,0.65,1.884,0.975,2.756,0.975
	c0.871,0,1.734-0.324,2.59-0.973"/>
<path style="fill:#333333;" d="M12.005,17.6c-1.021,0-2.089-0.371-3.175-1.103l0.838-1.244c1.649,1.111,3.021,1.128,4.474,0.026
	l0.906,1.195C14.062,17.221,13.039,17.6,12.005,17.6z"/>
<path style="fill:#333333;" d="M11.736,6.599c-0.098,0-0.196-0.001-0.297-0.002l0.025-1.5c1.84,0.034,2.711-0.263,3.121-0.516
	c0.312-0.192,0.654-0.522,0.535-1.378l1.486-0.206c0.221,1.6-0.549,2.438-1.234,2.861C14.565,6.356,13.374,6.599,11.736,6.599z"/>
</svg>






