<?xml version="1.0" encoding="iso-8859-1"?>
<svg version="1.1" id="&#x56FE;&#x5C42;_1" xmlns="http://www.w3.org/2000/svg" xmlns:xlink="http://www.w3.org/1999/xlink" x="0px"
	 y="0px" viewBox="0 0 24 24" style="enable-background:new 0 0 24 24;" xml:space="preserve">
<path style="fill:#333333;" d="M12,22.75c-5.376,0-9.75-4.374-9.75-9.75S6.624,3.25,12,3.25s9.75,4.374,9.75,9.75
	S17.376,22.75,12,22.75z M12,4.75c-4.549,0-8.25,3.701-8.25,8.25s3.701,8.25,8.25,8.25s8.25-3.701,8.25-8.25S16.549,4.75,12,4.75z"
	/>
<path style="fill:#333333;" d="M11.272,4.182C11.213,3.946,10.582,2.75,9,2.75v-1.5c2.332,0,3.519,1.73,3.728,2.568L11.272,4.182z"
	/>
<path style="fill:#333333;" d="M12.747,4.063l-1.495-0.126c0.017-0.194,0.193-1.913,1.375-2.588l0.744,1.303
	C13.025,2.849,12.786,3.598,12.747,4.063z"/>
<path style="fill:#333333;" d="M12,19.25c-2.93,0-4.122-2.316-4.171-2.415l1.342-0.67c0.031,0.06,0.846,1.585,2.829,1.585
	c1.983,0,2.798-1.525,2.832-1.591l1.339,0.676C16.121,16.934,14.93,19.25,12,19.25z"/>
<path style="fill:#333333;" d="M14.248,18.054l-1.496-0.107c0.07-0.984,0.44-4.196,2.248-4.196c0.506,0,0.929,0.207,1.189,0.584
	c0.557,0.802,0.15,2.062,0.013,2.43l-1.405-0.525c0.116-0.313,0.188-0.714,0.177-0.935C14.672,15.602,14.334,16.866,14.248,18.054z"
	/>
<rect x="14.5" y="9.75" style="fill:#333333;" width="2" height="1.5"/>
<rect x="7.75" y="9.5" style="fill:#333333;" width="1.5" height="2"/>
<rect x="1.25" y="12" style="fill:#333333;" width="1.5" height="2"/>
<rect x="21.25" y="12" style="fill:#333333;" width="1.5" height="2"/>
</svg>






