<?xml version="1.0" encoding="iso-8859-1"?>
<svg version="1.1" id="&#x56FE;&#x5C42;_1" xmlns="http://www.w3.org/2000/svg" xmlns:xlink="http://www.w3.org/1999/xlink" x="0px"
	 y="0px" viewBox="0 0 24 24" style="enable-background:new 0 0 24 24;" xml:space="preserve">
<path style="fill:#333333;" d="M12,8.25c-1.792,0-3.25-1.458-3.25-3.25S10.208,1.75,12,1.75S15.25,3.208,15.25,5
	S13.792,8.25,12,8.25z M12,3.25c-0.965,0-1.75,0.785-1.75,1.75S11.035,6.75,12,6.75S13.75,5.965,13.75,5S12.965,3.25,12,3.25z"/>
<path style="fill:#333333;" d="M12.25,19.75c-2.451,0-3.049-1.266-3.628-2.49c-0.206-0.436-0.419-0.886-0.732-1.324
	c-1.088-1.522-3.02-2.614-3.654-2.974l-0.411-0.233L2.152,3.531l3.905-1.562l0.178,0.883C6.249,2.921,7.677,9.75,12,9.75
	c4.323,0,5.751-6.829,5.765-6.898l0.178-0.882l3.905,1.561l-1.686,9.271l-0.398,0.149c-0.465,0.174-2.435,1.79-3.12,2.934
	c-0.145,0.24-0.267,0.522-0.396,0.816C15.713,17.916,14.905,19.75,12.25,19.75z M5.175,11.771c0.893,0.51,2.752,1.637,3.935,3.293
	c0.391,0.547,0.644,1.082,0.867,1.554c0.53,1.12,0.771,1.632,2.272,1.632c1.677,0,2.116-0.997,2.625-2.152
	c0.146-0.333,0.299-0.678,0.481-0.983c0.715-1.19,2.473-2.753,3.471-3.357l1.325-7.288L19.02,4.016
	c-0.594,2.1-2.508,7.234-7.02,7.234S5.574,6.116,4.98,4.016L3.848,4.469L5.175,11.771z"/>
<path style="fill:#333333;" d="M21.25,21.75h-4V21c0-2.521-2.052-3.805-2.139-3.858l0.774-1.285
	c0.108,0.065,2.458,1.508,2.818,4.394h1.01c-0.342-3.463-2.969-5.031-3.089-5.101l0.747-1.301C17.53,13.939,21.25,16.121,21.25,21
	V21.75z"/>
<path style="fill:#333333;" d="M7.25,21.75h-4V21c0-4.879,3.72-7.061,3.878-7.151l0.744,1.303L7.5,14.5l0.375,0.649
	c-0.119,0.069-2.747,1.638-3.088,5.101h1.01c0.36-2.886,2.71-4.328,2.818-4.394l0.771,1.287C9.301,17.195,7.25,18.479,7.25,21V21.75
	z"/>
</svg>






