<?xml version="1.0" encoding="iso-8859-1"?>
<svg version="1.1" id="&#x56FE;&#x5C42;_1" xmlns="http://www.w3.org/2000/svg" xmlns:xlink="http://www.w3.org/1999/xlink" x="0px"
	 y="0px" viewBox="0 0 24 24" style="enable-background:new 0 0 24 24;" xml:space="preserve">
<path style="fill:#333333;" d="M16,19.25c-0.825,0-1.802-0.346-2.835-0.713C12.072,18.15,10.943,17.75,10,17.75
	c-0.876,0-1.66,0.282-2.418,0.556c-0.851,0.306-1.654,0.595-2.479,0.43C3.366,18.388,2.75,17.045,2.75,16
	c0-1.55,0.864-2.552,2.568-2.978c1.197-0.299,4.199,0.095,5.638,0.507c0.183,0.052,0.354,0.104,0.518,0.154
	c1.028,0.317,1.211,0.321,1.496,0.036c0.191-0.191,0.192-0.338,0.008-1.049c-0.106-0.411-0.228-0.876-0.228-1.421
	c0-1.862,1.716-2.833,2.851-3.476c0.273-0.155,0.553-0.313,0.734-0.443c-0.084-0.104-0.204-0.232-0.294-0.328
	C15.602,6.531,15,5.887,15,5c0-2.494,4.881-3.55,5.859-3.737l1.103-0.21l-3.234,15.628C18.489,17.636,17.646,19.25,16,19.25z
	 M10,16.25c1.201,0,2.511,0.464,3.666,0.874c0.908,0.321,1.767,0.626,2.334,0.626c0.837,0,1.232-1.293,1.271-1.424l2.758-13.331
	C18.194,3.497,16.5,4.325,16.5,5c0,0.295,0.339,0.659,0.638,0.979c0.422,0.452,1.3,1.394,0.393,2.301
	c-0.288,0.288-0.706,0.524-1.19,0.799c-1.185,0.67-2.09,1.256-2.09,2.171c0,0.353,0.087,0.689,0.18,1.044
	c0.182,0.699,0.43,1.657-0.399,2.486c-0.963,0.963-1.997,0.645-2.998,0.338c-0.154-0.048-0.316-0.098-0.489-0.147
	c-1.46-0.417-4.095-0.683-4.862-0.493C4.638,14.738,4.25,15.151,4.25,16c0,0.243,0.083,1.052,1.147,1.265
	c0.416,0.082,1-0.127,1.676-0.371C7.912,16.592,8.862,16.25,10,16.25z"/>
<polygon style="fill:#333333;" points="20.5,22.75 2.918,22.75 4.798,17.736 6.202,18.264 5.082,21.25 19,21.25 16.9,18.45 
	18.1,17.55 21.1,21.55 "/>
</svg>






