<?xml version="1.0" encoding="iso-8859-1"?>
<svg version="1.1" id="&#x56FE;&#x5C42;_1" xmlns="http://www.w3.org/2000/svg" xmlns:xlink="http://www.w3.org/1999/xlink" x="0px"
	 y="0px" viewBox="0 0 24 24" style="enable-background:new 0 0 24 24;" xml:space="preserve">
<path style="fill:#333333;" d="M20.5,17.75h-17c-0.965,0-1.75-0.785-1.75-1.75V6c0-0.965,0.785-1.75,1.75-1.75H8v1.5H3.5
	C3.362,5.75,3.25,5.862,3.25,6v10c0,0.138,0.112,0.25,0.25,0.25h17c0.138,0,0.25-0.112,0.25-0.25v-3h1.5v3
	C22.25,16.965,21.465,17.75,20.5,17.75z"/>
<rect x="2" y="19.25" style="fill:#333333;" width="20" height="1.5"/>
<path style="fill:#333333;" d="M15,13.75c-2.895,0-5.25-2.355-5.25-5.25S12.105,3.25,15,3.25s5.25,2.355,5.25,5.25
	S17.895,13.75,15,13.75z M15,4.75c-2.067,0-3.75,1.682-3.75,3.75s1.683,3.75,3.75,3.75s3.75-1.682,3.75-3.75S17.067,4.75,15,4.75z"
	/>
<rect x="8.75" y="8" style="fill:#333333;" width="1.5" height="1"/>
<rect x="19.75" y="8" style="fill:#333333;" width="1.5" height="1"/>
<path style="fill:#333333;" d="M14.26,4.123c-0.047-0.287-0.403-1.099-1.466-1.402l0.412-1.442c1.742,0.498,2.412,1.867,2.534,2.598
	L14.26,4.123z"/>
<path style="fill:#333333;" d="M15.747,4.063l-1.494-0.126c0.016-0.194,0.193-1.913,1.375-2.588l0.744,1.303
	C16.025,2.849,15.786,3.598,15.747,4.063z"/>
<circle style="fill:#333333;" cx="16.5" cy="8" r="1"/>
<circle style="fill:#333333;" cx="13.5" cy="8" r="1"/>
</svg>






