<?xml version="1.0" encoding="iso-8859-1"?>
<svg version="1.1" id="&#x56FE;&#x5C42;_1" xmlns="http://www.w3.org/2000/svg" xmlns:xlink="http://www.w3.org/1999/xlink" x="0px"
	 y="0px" viewBox="0 0 24 24" style="enable-background:new 0 0 24 24;" xml:space="preserve">
<polygon style="fill:#333333;" points="21.665,9.671 12.004,4.841 2.592,9.667 1.908,8.333 11.996,3.159 22.335,8.329 "/>
<rect x="11.25" y="2" style="fill:#333333;" width="1.5" height="7"/>
<rect x="4.25" y="8" style="fill:#333333;" width="1.5" height="7"/>
<path style="fill:#333333;" d="M5,21.75c-2.068,0-3.75-1.683-3.75-3.75S2.932,14.25,5,14.25S8.75,15.933,8.75,18
	S7.068,21.75,5,21.75z M5,15.75c-1.241,0-2.25,1.01-2.25,2.25S3.759,20.25,5,20.25S7.25,19.24,7.25,18S6.241,15.75,5,15.75z"/>
<rect x="18.25" y="8" style="fill:#333333;" width="1.5" height="7"/>
<path style="fill:#333333;" d="M19,22.061L14.939,18L19,13.939L23.061,18L19,22.061z M17.061,18L19,19.939L20.939,18L19,16.061
	L17.061,18z"/>
<polygon style="fill:#333333;" points="15.25,11.5 13.75,11.5 13.75,9.75 10.25,9.75 10.25,11.5 8.75,11.5 8.75,8.25 15.25,8.25 "/>
</svg>






