<?xml version="1.0" encoding="iso-8859-1"?>
<svg version="1.1" id="&#x56FE;&#x5C42;_1" xmlns="http://www.w3.org/2000/svg" xmlns:xlink="http://www.w3.org/1999/xlink" x="0px"
	 y="0px" viewBox="0 0 24 24" style="enable-background:new 0 0 24 24;" xml:space="preserve">
<path style="fill:#333333;" d="M12,21.25c-3.292,0-5.652-1.291-6.514-1.846C5.025,19.107,4.75,18.59,4.75,18.02V10.5h1.5v7.52
	c0,0.045,0.013,0.101,0.048,0.123C7.049,18.626,9.106,19.75,12,19.75s4.951-1.124,5.701-1.607c0.036-0.022,0.049-0.078,0.049-0.123
	V10.5h1.5v7.52c0,0.571-0.275,1.089-0.737,1.386C17.651,19.959,15.292,21.25,12,21.25z"/>
<rect x="20.75" y="12" style="fill:#333333;" width="1.5" height="4"/>
<path style="fill:#333333;" d="M12,14.348L2.151,9.164V7.836L12,2.652l9.85,5.184v1.327L12,14.348z M4.11,8.5L12,12.652L19.89,8.5
	L12,4.348L4.11,8.5z"/>
</svg>






