<?xml version="1.0" encoding="iso-8859-1"?>
<svg version="1.1" id="&#x56FE;&#x5C42;_1" xmlns="http://www.w3.org/2000/svg" xmlns:xlink="http://www.w3.org/1999/xlink" x="0px"
	 y="0px" viewBox="0 0 24 24" style="enable-background:new 0 0 24 24;" xml:space="preserve">
<path style="fill:#333333;" d="M12,9.773L1.818,7.228V5.772L12,3.227l10.182,2.545v1.455L12,9.773z M5.092,6.5L12,8.227L18.907,6.5
	L12,4.773L5.092,6.5z"/>
<path style="fill:#333333;" d="M12,15.25c-3.173,0-5.779-1.557-5.889-1.623L5.75,13.408V8h1.5v4.538
	C8.013,12.925,9.889,13.75,12,13.75c2.11,0,3.987-0.825,4.75-1.212V8h1.5v5.408l-0.361,0.219C17.779,13.693,15.173,15.25,12,15.25z"
	/>
<rect x="2.75" y="7" style="fill:#333333;" width="1.5" height="11"/>
<path style="fill:#333333;" d="M5.75,20.75h-4.5v-4.5h4.5V20.75z M2.75,19.25h1.5v-1.5h-1.5V19.25z"/>
</svg>






