<?xml version="1.0" encoding="iso-8859-1"?>
<svg version="1.1" id="&#x56FE;&#x5C42;_1" xmlns="http://www.w3.org/2000/svg" xmlns:xlink="http://www.w3.org/1999/xlink" x="0px"
	 y="0px" viewBox="0 0 24 24" style="enable-background:new 0 0 24 24;" xml:space="preserve">
<path style="fill-rule:evenodd;clip-rule:evenodd;fill:#333333;" d="M18.5,18.5c1.105,0,2-0.895,2-2c0-0.736-0.667-1.736-2-3
	c-1.333,1.264-2,2.264-2,3C16.5,17.605,17.395,18.5,18.5,18.5z"/>
<rect x="10.561" y="2.386" transform="matrix(0.7072 -0.707 0.707 0.7072 0.741 9.0613)" style="fill:#333333;" width="1.5" height="2.5"/>
<path style="fill:#333333;" d="M9.72,18.662l-6.717-6.717l8.838-8.839l6.718,6.717L9.72,18.662z M5.124,11.945l4.596,4.596
	l6.718-6.718l-4.597-4.596L5.124,11.945z"/>
<rect x="9.49" y="6.967" transform="matrix(0.3124 -0.9499 0.9499 0.3124 -3.8177 17.5873)" style="fill:#333333;" width="1.5" height="8.927"/>
<rect x="2" y="20.75" style="fill:#333333;" width="20" height="1.5"/>
</svg>






