<?xml version="1.0" encoding="iso-8859-1"?>
<svg version="1.1" id="&#x56FE;&#x5C42;_1" xmlns="http://www.w3.org/2000/svg" xmlns:xlink="http://www.w3.org/1999/xlink" x="0px"
	 y="0px" viewBox="0 0 24 24" style="enable-background:new 0 0 24 24;" xml:space="preserve">
<path style="fill:#333333;" d="M9.508,21.009l-8.542-9.25l8.556-8.782L10.809,3.5v4.359c3.05,0.189,5.698,1.403,7.879,3.614
	c2.335,2.367,3.701,5.35,4.058,8.869l-1.326,0.552c-2.324-2.837-4.374-4.461-6.094-4.826c-1.568-0.333-3.086-0.421-4.517-0.262V20.5
	L9.508,21.009z M3.034,11.786l6.275,6.796v-4.067l0.629-0.104c1.799-0.295,3.717-0.232,5.7,0.189c1.585,0.336,3.272,1.422,5.121,3.3
	c-0.596-2.061-1.646-3.861-3.139-5.374c-2.097-2.125-4.572-3.169-7.567-3.193L9.309,9.328V5.345L3.034,11.786z"/>
</svg>






