<?xml version="1.0" encoding="iso-8859-1"?>
<svg version="1.1" id="&#x56FE;&#x5C42;_1" xmlns="http://www.w3.org/2000/svg" xmlns:xlink="http://www.w3.org/1999/xlink" x="0px"
	 y="0px" viewBox="0 0 24 24" style="enable-background:new 0 0 24 24;" xml:space="preserve">
<polygon style="fill:#333333;" points="7.25,7 5.75,7 5.75,1.25 10.25,1.25 10.25,4.778 8.75,4.778 8.75,2.75 7.25,2.75 "/>
<polygon style="fill:#333333;" points="18.25,7 16.75,7 16.75,2.75 15.25,2.75 15.25,4.778 13.75,4.778 13.75,1.25 18.25,1.25 "/>
<path style="fill:#333333;" d="M16.5,22.75h-9c-1.517,0-2.75-1.233-2.75-2.75V10c0-3.17,2.58-5.75,5.75-5.75h3
	c3.171,0,5.75,2.58,5.75,5.75v10C19.25,21.517,18.017,22.75,16.5,22.75z M10.5,5.75c-2.343,0-4.25,1.907-4.25,4.25v10
	c0,0.689,0.561,1.25,1.25,1.25h9c0.689,0,1.25-0.561,1.25-1.25V10c0-2.343-1.906-4.25-4.25-4.25H10.5z"/>
<polygon style="fill:#333333;" points="5.5,20.25 1.75,20.25 1.75,13.75 5.5,13.75 5.5,15.25 3.25,15.25 3.25,18.75 5.5,18.75 "/>
<polygon style="fill:#333333;" points="22.25,20.25 18.5,20.25 18.5,18.75 20.75,18.75 20.75,15.25 18.5,15.25 18.5,13.75 
	22.25,13.75 "/>
<rect x="13.25" y="11.5" style="fill:#333333;" width="1.5" height="2"/>
<rect x="8.5" y="10.75" style="fill:#333333;" width="7" height="1.5"/>
</svg>






