<?xml version="1.0" encoding="iso-8859-1"?>
<svg version="1.1" id="&#x56FE;&#x5C42;_1" xmlns="http://www.w3.org/2000/svg" xmlns:xlink="http://www.w3.org/1999/xlink" x="0px"
	 y="0px" viewBox="0 0 24 24" style="enable-background:new 0 0 24 24;" xml:space="preserve">
<path style="fill:#333333;" d="M11.652,22.25h-0.12c-0.601,0-1.155-0.326-1.446-0.852l-1.329-2.392
	c-0.527-0.949-1.311-1.727-2.266-2.248l-3.33-1.816C2.6,14.637,2.25,14.048,2.25,13.406V3.5c0-0.965,0.785-1.75,1.75-1.75h12.993
	c0.779,0,1.472,0.523,1.685,1.273v0l2.685,9.5c0.15,0.531,0.046,1.09-0.288,1.531c-0.333,0.441-0.843,0.694-1.396,0.694h-5.485
	l0.192,0.833c0.247,1.069,0.326,2.167,0.234,3.262l-0.046,0.552c-0.062,0.767-0.398,1.489-0.943,2.034
	C13.102,21.959,12.399,22.25,11.652,22.25z M4,3.25c-0.138,0-0.25,0.112-0.25,0.25v9.906c0,0.092,0.05,0.176,0.129,0.219
	l3.331,1.817c1.204,0.657,2.193,1.638,2.858,2.836l1.329,2.393c0.027,0.049,0.079,0.079,0.135,0.079h0.12
	c0.347,0,0.672-0.135,0.917-0.38c0.294-0.295,0.476-0.685,0.51-1.098l0.046-0.553c0.078-0.939,0.011-1.881-0.201-2.799l-0.25-1.082
	c-0.09-0.388,0.001-0.788,0.248-1.1c0.248-0.311,0.618-0.489,1.016-0.489h5.74c0.109,0,0.172-0.062,0.2-0.1s0.07-0.114,0.041-0.218
	l-2.685-9.5c-0.03-0.107-0.13-0.182-0.241-0.182H4z"/>
</svg>






