<?xml version="1.0" encoding="iso-8859-1"?>
<svg version="1.1" id="&#x56FE;&#x5C42;_1" xmlns="http://www.w3.org/2000/svg" xmlns:xlink="http://www.w3.org/1999/xlink" x="0px"
	 y="0px" viewBox="0 0 24 24" style="enable-background:new 0 0 24 24;" xml:space="preserve">
<path style="fill:#333333;" d="M5,15.25H3.087c-0.488,0-0.958-0.206-1.288-0.565s-0.497-0.844-0.456-1.33l0.833-10
	C2.251,2.455,3.017,1.75,3.92,1.75H5c0.965,0,1.75,0.785,1.75,1.75v10C6.75,14.465,5.965,15.25,5,15.25z M3.92,3.25
	c-0.131,0-0.238,0.099-0.249,0.229l-0.833,10c-0.008,0.095,0.037,0.159,0.065,0.189s0.088,0.081,0.184,0.081H5
	c0.138,0,0.25-0.112,0.25-0.25v-10c0-0.138-0.112-0.25-0.25-0.25H3.92z"/>
<path style="fill:#333333;" d="M13.926,22.25c-0.09,0-0.178-0.009-0.263-0.026c-0.491-0.1-0.826-0.47-0.898-0.989
	c-0.011-0.081-0.015-0.163-0.017-0.244c-0.058-1.33-0.323-3.147-0.891-4.095c-0.393-0.655-1.318-1.359-2.539-1.934
	c-0.649-0.308-1.068-0.954-1.068-1.649V3.5c0-0.965,0.785-1.75,1.75-1.75h8.493c0.779,0,1.472,0.523,1.685,1.273l2.685,9.509
	c0.15,0.531,0.046,1.09-0.288,1.531c-0.333,0.441-0.842,0.694-1.396,0.694h-4.421l0.151,0.502c0.224,0.751,0.442,1.481,0.491,2.271
	c0.064,1.066-0.105,1.947-0.507,2.616C16.331,21.086,14.991,22.25,13.926,22.25z M10,3.25c-0.138,0-0.25,0.112-0.25,0.25v9.812
	c0,0.116,0.083,0.233,0.208,0.293c1.063,0.5,2.48,1.344,3.185,2.519c0.821,1.37,1.035,3.595,1.09,4.521
	c0.41-0.209,1.037-0.707,1.373-1.269c0.239-0.399,0.342-1.005,0.296-1.753c-0.037-0.617-0.222-1.235-0.418-1.89l-0.742-2.476h6.437
	c0.108,0,0.171-0.062,0.199-0.1c0.028-0.036,0.07-0.114,0.041-0.218l-2.685-9.509c-0.03-0.106-0.13-0.182-0.241-0.182H10z"/>
</svg>






