<?xml version="1.0" encoding="iso-8859-1"?>
<svg version="1.1" id="&#x56FE;&#x5C42;_1" xmlns="http://www.w3.org/2000/svg" xmlns:xlink="http://www.w3.org/1999/xlink" x="0px"
	 y="0px" viewBox="0 0 24 24" style="enable-background:new 0 0 24 24;" xml:space="preserve">
<path style="fill:#333333;" d="M14.391,22.845c-0.229,0-0.468-0.054-0.706-0.164l-0.274-0.127c-2.999-1.386-7.106-3.284-9.122-7.848
	c-1.386-3.135-1.376-7.015,0.023-9.655C5.573,2.671,7.638,1.25,9.835,1.25h5.322c1.378,0,2.499,1.122,2.499,2.5
	c0,0.419-0.104,0.815-0.287,1.163c0.942,0.358,1.613,1.271,1.613,2.338c0,0.375-0.083,0.731-0.231,1.051
	c1.139,0.233,1.999,1.243,1.999,2.45c0,0.93-0.511,1.743-1.266,2.174c0.242,0.384,0.382,0.839,0.382,1.326
	c0,1.379-1.121,2.5-2.5,2.5h-2.263c0.258,0.492,0.541,1.083,0.742,1.652c0.466,1.319,0.378,3.267-0.496,4.062
	C15.073,22.717,14.742,22.845,14.391,22.845z M9.835,2.75c-0.611,0-2.721,0.217-4.199,3.003C4.441,8.009,4.45,11.363,5.66,14.101
	l0,0c1.787,4.045,5.442,5.734,8.379,7.091l0.276,0.128c0.267-0.138,0.47-1.415,0.116-2.415c-0.408-1.153-1.245-2.489-1.254-2.503
	l0.635-1.149h3.554c0.552,0,1-0.448,1-1s-0.448-1-1-1v-1.5h0.884c0.552,0,1-0.449,1-1c0-0.551-0.448-1-1-1h-1.768v-1.5
	c0.552,0,1-0.449,1-1s-0.448-1-1-1h-1.326v-1.5c0.552,0,1-0.449,1-1c0-0.552-0.448-1-0.999-1H9.835z"/>
</svg>






