<?xml version="1.0" encoding="iso-8859-1"?>
<svg version="1.1" id="&#x56FE;&#x5C42;_1" xmlns="http://www.w3.org/2000/svg" xmlns:xlink="http://www.w3.org/1999/xlink" x="0px"
	 y="0px" viewBox="0 0 24 24" style="enable-background:new 0 0 24 24;" xml:space="preserve">
<path style="fill:#333333;" d="M9.75,22.75c-1.654,0-3-1.346-3-3l0.021-0.178l2.5-10.25L10,8.75h2l0.75,0.75v10.25
	C12.75,21.404,11.404,22.75,9.75,22.75z M8.252,19.831c0.042,0.79,0.698,1.419,1.498,1.419c0.827,0,1.5-0.673,1.5-1.5v-9.5h-0.661
	L8.252,19.831z"/>
<path style="fill:#333333;" d="M5.25,22.75c-0.12,0-0.232-0.007-0.345-0.02c-0.874-0.103-1.632-0.607-2.084-1.386
	c-0.475-0.817-0.539-1.822-0.17-2.688l4.677-9.488L8,8.75h2v1.5H8.466l-4.453,9.032c-0.167,0.395-0.134,0.898,0.104,1.31
	c0.125,0.215,0.415,0.585,0.96,0.648c0.055,0.007,0.112,0.01,0.172,0.01c0.827,0,1.5-0.673,1.5-1.5h1.5
	C8.25,21.404,6.904,22.75,5.25,22.75z"/>
<path style="fill:#333333;" d="M14.25,22.75c-1.654,0-3-1.346-3-3V9.5L12,8.75h2l0.729,0.572L17.25,19.75
	C17.25,21.404,15.904,22.75,14.25,22.75z M12.75,10.25v9.5c0,0.827,0.673,1.5,1.5,1.5c0.8,0,1.455-0.629,1.498-1.419l-2.337-9.581
	H12.75z"/>
<path style="fill:#333333;" d="M18.75,22.75c-1.654,0-3-1.346-3-3h1.5c0,0.827,0.673,1.5,1.5,1.5c0.061,0,0.117-0.003,0.174-0.01
	c0.543-0.063,0.834-0.434,0.959-0.648c0.238-0.411,0.271-0.915,0.087-1.349l-4.437-8.993H14v-1.5h2l0.673,0.418l4.66,9.45
	c0.386,0.904,0.321,1.909-0.153,2.728c-0.452,0.777-1.211,1.282-2.083,1.385C18.982,22.743,18.869,22.75,18.75,22.75z"/>
<path style="fill:#333333;" d="M15.97,7.25H8.03L7.285,6.59C7.262,6.396,7.25,6.201,7.25,6c0-2.619,2.131-4.75,4.75-4.75
	S16.75,3.381,16.75,6c0,0.201-0.012,0.397-0.036,0.592L15.97,7.25z M8.759,5.75h6.481c-0.128-1.676-1.532-3-3.24-3
	S8.888,4.074,8.759,5.75z"/>
</svg>






