<?xml version="1.0" encoding="iso-8859-1"?>
<svg version="1.1" id="&#x56FE;&#x5C42;_1" xmlns="http://www.w3.org/2000/svg" xmlns:xlink="http://www.w3.org/1999/xlink" x="0px"
	 y="0px" viewBox="0 0 24 24" style="enable-background:new 0 0 24 24;" xml:space="preserve">
<path style="fill:#333333;" d="M13.5,20.75H5c-0.965,0-1.75-0.785-1.75-1.75V7c0-0.965,0.785-1.75,1.75-1.75h12
	c0.965,0,1.75,0.785,1.75,1.75v6h-1.5V7c0-0.138-0.112-0.25-0.25-0.25H5C4.862,6.75,4.75,6.862,4.75,7v12
	c0,0.138,0.112,0.25,0.25,0.25h8.5V20.75z"/>
<rect x="7.25" y="6" style="fill:#333333;" width="1.5" height="14"/>
<rect x="13.25" y="6" style="fill:#333333;" width="1.5" height="8.5"/>
<path style="fill:#333333;" d="M14.75,6h-1.5V3c0-0.138-0.112-0.25-0.25-0.25H9C8.862,2.75,8.75,2.862,8.75,3v3h-1.5V3
	c0-0.965,0.785-1.75,1.75-1.75h4c0.965,0,1.75,0.785,1.75,1.75V6z"/>
<path style="fill:#333333;" d="M17.5,22.75c-2.895,0-5.25-2.355-5.25-5.25s2.355-5.25,5.25-5.25s5.25,2.355,5.25,5.25
	S20.395,22.75,17.5,22.75z M17.5,13.75c-2.067,0-3.75,1.683-3.75,3.75s1.683,3.75,3.75,3.75s3.75-1.683,3.75-3.75
	S19.567,13.75,17.5,13.75z"/>
<polygon style="fill:#333333;" points="19,18.75 16.25,18.75 16.25,16 17.75,16 17.75,17.25 19,17.25 "/>
<rect x="5.75" y="20" style="fill:#333333;" width="1.5" height="2"/>
</svg>






