<?xml version="1.0" encoding="iso-8859-1"?>
<svg version="1.1" id="&#x56FE;&#x5C42;_1" xmlns="http://www.w3.org/2000/svg" xmlns:xlink="http://www.w3.org/1999/xlink" x="0px"
	 y="0px" viewBox="0 0 24 24" style="enable-background:new 0 0 24 24;" xml:space="preserve">
<path style="fill:#333333;" d="M6.756,13.205l-1.003-0.637l-0.5-5.5l0.452-0.757c3.707-1.588,8.883-1.589,12.591,0l0.451,0.757
	l-0.5,5.5l-1.003,0.637C13.862,11.978,10.138,11.979,6.756,13.205z M6.797,7.489l0.364,4.002c3.152-0.942,6.525-0.941,9.677,0
	l0.363-4.002C14.099,6.34,9.902,6.34,6.797,7.489z"/>
<rect x="10.5" y="8.792" transform="matrix(0.8575 -0.5145 0.5145 0.8575 -3.6704 7.2488)" style="fill:#333333;" width="1.5" height="2.916"/>
<path style="fill:#333333;" d="M19.5,21.75h-15c-1.241,0-2.25-1.01-2.25-2.25v-15c0-1.241,1.009-2.25,2.25-2.25h15
	c1.24,0,2.25,1.009,2.25,2.25v15C21.75,20.74,20.74,21.75,19.5,21.75z M4.5,3.75c-0.414,0-0.75,0.336-0.75,0.75v15
	c0,0.413,0.336,0.75,0.75,0.75h15c0.413,0,0.75-0.337,0.75-0.75v-15c0-0.414-0.337-0.75-0.75-0.75H4.5z"/>
<path style="fill:#333333;" d="M9.616,12.469l-0.232-1.482c1.736-0.273,3.496-0.273,5.232,0l-0.232,1.482
	C12.802,12.218,11.198,12.219,9.616,12.469z"/>
</svg>






