<?xml version="1.0" encoding="iso-8859-1"?>
<svg version="1.1" id="&#x56FE;&#x5C42;_1" xmlns="http://www.w3.org/2000/svg" xmlns:xlink="http://www.w3.org/1999/xlink" x="0px"
	 y="0px" viewBox="0 0 24 24" style="enable-background:new 0 0 24 24;" xml:space="preserve">
<polygon style="fill:#333333;" points="7.357,11.386 5,7.458 2.643,11.386 1.357,10.614 5,4.542 8.643,10.614 "/>
<path style="fill:#333333;" d="M5,14.75c-2.068,0-3.75-1.683-3.75-3.75v-0.75h7.5V11C8.75,13.067,7.068,14.75,5,14.75z M2.878,11.75
	c0.31,0.873,1.144,1.5,2.122,1.5s1.812-0.627,2.122-1.5H2.878z"/>
<polygon style="fill:#333333;" points="21.356,11.386 19,7.458 16.644,11.386 15.356,10.614 19,4.542 22.644,10.614 "/>
<path style="fill:#333333;" d="M19,14.75c-2.067,0-3.75-1.683-3.75-3.75v-0.75h7.5V11C22.75,13.067,21.067,14.75,19,14.75z
	 M16.879,11.75c0.31,0.873,1.144,1.5,2.121,1.5s1.812-0.627,2.121-1.5H16.879z"/>
<rect x="11.25" y="3" style="fill:#333333;" width="1.5" height="18"/>
<rect x="5" y="5.25" style="fill:#333333;" width="14" height="1.5"/>
<rect x="5" y="5.25" style="fill:#333333;" width="14" height="1.5"/>
<rect x="5" y="20.25" style="fill:#333333;" width="14" height="1.5"/>
</svg>






