<?xml version="1.0" encoding="iso-8859-1"?>
<svg version="1.1" id="&#x56FE;&#x5C42;_1" xmlns="http://www.w3.org/2000/svg" xmlns:xlink="http://www.w3.org/1999/xlink" x="0px"
	 y="0px" viewBox="0 0 24 24" style="enable-background:new 0 0 24 24;" xml:space="preserve">
<g>
	<defs>
		<rect id="SVGID_1_" width="24" height="24"/>
	</defs>
	<clipPath id="SVGID_00000142870341721335224470000015272912379836789950_">
		<use xlink:href="#SVGID_1_"  style="overflow:visible;"/>
	</clipPath>
	<g style="clip-path:url(#SVGID_00000142870341721335224470000015272912379836789950_);">
		<path style="fill:#333333;" d="M7.762,16.712c-1.647-0.55-3.347-1.792-4.132-3.021c-0.18-0.281-0.262-0.619-0.239-0.976
			l0.123-1.874c0.03-0.455,0.307-0.86,0.723-1.058c0.422-0.201,0.919-0.158,1.296,0.111C7.19,11.074,8.636,11.75,9.5,11.75
			c3.465,0,6.073-1.282,7.342-3.609l1.316,0.719C16.614,11.69,13.539,13.25,9.5,13.25c-1.403,0-3.175-0.99-4.515-1.909l-0.096,1.473
			c0.604,1.004,2.041,2.038,3.349,2.474L7.762,16.712z"/>
		<path style="fill:#333333;" d="M10.38,22.512c-4.214,0-7.658-1.937-8.577-4.233l-0.044-0.157L1.195,14.66l1.113-0.771
			c2.25,1.289,4.941,1.777,7.577,1.37c5.231-0.805,7.365-4.211,7.365-11.759V2.615l4.5,0.75v4.554l0.416,1.891
			c0.531,2.365,0.015,4.916-1.455,7.178c-1.747,2.688-4.574,4.65-7.563,5.248l0,0C12.201,22.425,11.273,22.512,10.38,22.512z
			 M3.226,17.793c0.933,2.146,5.075,3.882,9.627,2.972l0,0c2.562-0.513,5.092-2.273,6.601-4.595
			c1.248-1.921,1.691-4.063,1.249-6.035L20.25,8V4.635l-1.509-0.251c-0.113,5.334-1.376,11.242-8.627,12.357
			c-2.462,0.377-4.969,0.065-7.204-0.883L3.226,17.793z"/>
	</g>
</g>
</svg>






