<?xml version="1.0" encoding="iso-8859-1"?>
<svg version="1.1" id="&#x56FE;&#x5C42;_1" xmlns="http://www.w3.org/2000/svg" xmlns:xlink="http://www.w3.org/1999/xlink" x="0px"
	 y="0px" viewBox="0 0 24 24" style="enable-background:new 0 0 24 24;" xml:space="preserve">
<path style="fill:#333333;" d="M21,15.25h-1v-1.5h1c0.138,0,0.25-0.112,0.25-0.25v-9c0-0.138-0.112-0.25-0.25-0.25H8
	c-0.138,0-0.25,0.112-0.25,0.25v2h-1.5v-2c0-0.965,0.785-1.75,1.75-1.75h13c0.965,0,1.75,0.785,1.75,1.75v9
	C22.75,14.465,21.965,15.25,21,15.25z"/>
<path style="fill:#333333;" d="M16,21.25H3c-0.965,0-1.75-0.785-1.75-1.75v-9c0-0.965,0.785-1.75,1.75-1.75h13
	c0.965,0,1.75,0.785,1.75,1.75v9C17.75,20.465,16.965,21.25,16,21.25z M3,10.25c-0.138,0-0.25,0.112-0.25,0.25v9
	c0,0.138,0.112,0.25,0.25,0.25h13c0.138,0,0.25-0.112,0.25-0.25v-9c0-0.138-0.112-0.25-0.25-0.25H3z"/>
<rect x="2" y="13.25" style="fill:#333333;" width="15" height="1.5"/>
<rect x="16.25" y="11.5" style="fill:#333333;" width="1.5" height="6"/>
<rect x="1.25" y="11.5" style="fill:#333333;" width="1.5" height="6"/>
<rect x="5.5" y="16.25" style="fill:#333333;" width="4" height="1.5"/>
<rect x="12.5" y="16.25" style="fill:#333333;" width="1" height="1.5"/>
</svg>






