<?xml version="1.0" encoding="iso-8859-1"?>
<svg version="1.1" id="&#x56FE;&#x5C42;_1" xmlns="http://www.w3.org/2000/svg" xmlns:xlink="http://www.w3.org/1999/xlink" x="0px"
	 y="0px" viewBox="0 0 24 24" style="enable-background:new 0 0 24 24;" xml:space="preserve">
<path style="fill:#333333;" d="M22,12.75h-7L14.25,12c0-1.241-1.01-2.25-2.25-2.25c-1.241,0-2.25,1.009-2.25,2.25L9,12.75H2L1.25,12
	C1.25,6.072,6.072,1.25,12,1.25S22.75,6.072,22.75,12L22,12.75z M15.675,11.25h5.545c-0.383-4.751-4.372-8.5-9.22-8.5
	c-4.848,0-8.837,3.749-9.22,8.5h5.545c0.349-1.709,1.864-3,3.675-3C13.811,8.25,15.326,9.541,15.675,11.25z"/>
<path style="fill:#333333;" d="M12,22.75C6.072,22.75,1.25,17.928,1.25,12L2,11.25h7v1.5H2.78c0.383,4.751,4.372,8.5,9.22,8.5
	c4.848,0,8.837-3.749,9.22-8.5H15v-1.5h7L22.75,12C22.75,17.928,17.928,22.75,12,22.75z"/>
<path style="fill:#333333;" d="M12,15.75c-2.068,0-3.75-1.683-3.75-3.75c0-2.068,1.682-3.75,3.75-3.75c2.067,0,3.75,1.682,3.75,3.75
	C15.75,14.067,14.067,15.75,12,15.75z M12,9.75c-1.241,0-2.25,1.009-2.25,2.25c0,1.24,1.009,2.25,2.25,2.25
	c1.24,0,2.25-1.01,2.25-2.25C14.25,10.759,13.24,9.75,12,9.75z"/>
</svg>






