<?xml version="1.0" encoding="iso-8859-1"?>
<svg version="1.1" id="&#x56FE;&#x5C42;_1" xmlns="http://www.w3.org/2000/svg" xmlns:xlink="http://www.w3.org/1999/xlink" x="0px"
	 y="0px" viewBox="0 0 24 24" style="enable-background:new 0 0 24 24;" xml:space="preserve">
<path style="fill:#333333;" d="M14.898,22.75H8.102l-0.528-1.282c0.776-0.771,1.826-2.205,1.731-2.979
	c-0.016-0.129-0.065-0.28-0.314-0.429c-0.992-0.471-1.696-1.23-2.029-2.225c-0.657-1.957,0.427-4.09,0.474-4.181l0.209-0.405h7.709
	l0.21,0.405c0.047,0.09,1.131,2.224,0.474,4.181c-0.333,0.994-1.037,1.754-2.091,2.258c-0.217,0.098-0.235,0.187-0.247,0.245
	c-0.144,0.698,0.959,2.294,1.75,3.152L14.898,22.75z M9.717,21.25h3.62c-0.65-0.932-1.316-2.187-1.106-3.212
	c0.084-0.411,0.341-0.971,1.087-1.306c0.664-0.317,1.094-0.768,1.297-1.368c0.319-0.943,0.01-2.036-0.209-2.614h-5.81
	c-0.218,0.577-0.529,1.671-0.209,2.615c0.203,0.6,0.633,1.05,1.313,1.375c0.659,0.391,1.016,0.921,1.095,1.568
	C10.916,19.305,10.318,20.415,9.717,21.25z"/>
<path style="fill:#333333;" d="M15.464,12.75H7.537L3.662,5l0.167-0.335C3.899,4.525,5.604,1.25,11.5,1.25s7.602,3.275,7.671,3.415
	L19.339,5L15.464,12.75z M8.463,11.25h6.073l3.101-6.201C17.115,4.368,15.46,2.75,11.5,2.75S5.885,4.368,5.363,5.049L8.463,11.25z"
	/>
<rect x="9.959" y="8.25" transform="matrix(0.1643 -0.9864 0.9864 0.1643 1.9861 20.3441)" style="fill:#333333;" width="6.082" height="1.501"/>
<rect x="9.25" y="5.959" transform="matrix(0.9864 -0.1644 0.1644 0.9864 -1.3436 1.7666)" style="fill:#333333;" width="1.5" height="6.083"/>
</svg>






