<?xml version="1.0" encoding="iso-8859-1"?>
<svg version="1.1" id="&#x56FE;&#x5C42;_1" xmlns="http://www.w3.org/2000/svg" xmlns:xlink="http://www.w3.org/1999/xlink" x="0px"
	 y="0px" viewBox="0 0 24 24" style="enable-background:new 0 0 24 24;" xml:space="preserve">
<path style="fill:#333333;" d="M8,6.75C6.483,6.75,5.25,5.517,5.25,4S6.483,1.25,8,1.25S10.75,2.483,10.75,4S9.517,6.75,8,6.75z
	 M8,2.75C7.311,2.75,6.75,3.311,6.75,4S7.311,5.25,8,5.25S9.25,4.689,9.25,4S8.689,2.75,8,2.75z"/>
<path style="fill:#333333;" d="M8,15.75c-1.517,0-2.75-1.233-2.75-2.75S6.483,10.25,8,10.25s2.75,1.233,2.75,2.75
	S9.517,15.75,8,15.75z M8,11.75c-0.689,0-1.25,0.561-1.25,1.25S7.311,14.25,8,14.25S9.25,13.689,9.25,13S8.689,11.75,8,11.75z"/>
<rect x="7.25" y="15.5" style="fill:#333333;" width="1.5" height="6.5"/>
<path style="fill:#333333;" d="M16,6.75c-1.517,0-2.75-1.233-2.75-2.75S14.483,1.25,16,1.25S18.75,2.483,18.75,4
	S17.517,6.75,16,6.75z M16,2.75c-0.689,0-1.25,0.561-1.25,1.25S15.311,5.25,16,5.25S17.25,4.689,17.25,4S16.689,2.75,16,2.75z"/>
<path style="fill:#333333;" d="M16,15.75c-1.517,0-2.75-1.233-2.75-2.75s1.233-2.75,2.75-2.75s2.75,1.233,2.75,2.75
	S17.517,15.75,16,15.75z M16,11.75c-0.689,0-1.25,0.561-1.25,1.25s0.561,1.25,1.25,1.25s1.25-0.561,1.25-1.25S16.689,11.75,16,11.75
	z"/>
<rect x="15.25" y="15.5" style="fill:#333333;" width="1.5" height="6.5"/>
<rect x="6.5" y="7.75" style="fill:#333333;" width="3" height="1.5"/>
<rect x="14.5" y="7.75" style="fill:#333333;" width="3" height="1.5"/>
<rect x="6.5" y="17.25" style="fill:#333333;" width="3" height="1.5"/>
<rect x="14.5" y="17.25" style="fill:#333333;" width="3" height="1.5"/>
<rect x="7.25" y="7" style="fill:#333333;" width="1.5" height="3"/>
<rect x="15.25" y="7" style="fill:#333333;" width="1.5" height="3"/>
</svg>






