<?xml version="1.0" encoding="iso-8859-1"?>
<svg version="1.1" id="&#x56FE;&#x5C42;_1" xmlns="http://www.w3.org/2000/svg" xmlns:xlink="http://www.w3.org/1999/xlink" x="0px"
	 y="0px" viewBox="0 0 24 24" style="enable-background:new 0 0 24 24;" xml:space="preserve">
<path style="fill:#333333;" d="M12,22.75c-4.153,0-5.25-3.107-5.25-4.75v-5.76l-2.5-3.5V3.25h15.5v5.49l-2.5,3.5V18
	C17.25,19.643,16.152,22.75,12,22.75z M5.75,8.26l2.5,3.5V18c0.003,0.329,0.139,3.25,3.75,3.25c3.611,0,3.746-2.921,3.75-3.254
	V11.76l2.5-3.5V4.75H5.75V8.26z"/>
<rect x="6.75" y="2" style="fill:#333333;" width="1.5" height="3"/>
<rect x="9.75" y="2" style="fill:#333333;" width="1.5" height="3"/>
<rect x="12.75" y="2" style="fill:#333333;" width="1.5" height="3"/>
<path style="fill:#333333;" d="M12,19.75c-1.241,0-2.25-1.01-2.25-2.25v-2c0-1.24,1.009-2.25,2.25-2.25c1.24,0,2.25,1.01,2.25,2.25
	v2C14.25,18.74,13.24,19.75,12,19.75z M12,14.75c-0.414,0-0.75,0.337-0.75,0.75v2c0,0.413,0.336,0.75,0.75,0.75
	c0.413,0,0.75-0.337,0.75-0.75v-2C12.75,15.087,12.413,14.75,12,14.75z"/>
<rect x="5" y="7.75" style="fill:#333333;" width="14" height="1.5"/>
<rect x="15.75" y="2" style="fill:#333333;" width="1.5" height="3"/>
</svg>






