<?xml version="1.0" encoding="iso-8859-1"?>
<svg version="1.1" id="&#x56FE;&#x5C42;_1" xmlns="http://www.w3.org/2000/svg" xmlns:xlink="http://www.w3.org/1999/xlink" x="0px"
	 y="0px" viewBox="0 0 24 24" style="enable-background:new 0 0 24 24;" xml:space="preserve">
<path style="fill:#333333;" d="M20,22.25c-1.24,0-2.25-1.01-2.25-2.25s1.01-2.25,2.25-2.25s2.25,1.01,2.25,2.25
	S21.24,22.25,20,22.25z M20,19.25c-0.413,0-0.75,0.337-0.75,0.75s0.337,0.75,0.75,0.75s0.75-0.337,0.75-0.75S20.413,19.25,20,19.25z
	"/>
<path style="fill:#333333;" d="M18.312,19.359c-7.922-5.694-14-10.471-14.061-10.519C4.008,8.626,2.175,6.945,2.119,5.056
	C2.095,4.271,2.39,3.55,2.97,2.97c0.58-0.58,1.291-0.874,2.086-0.851c1.889,0.056,3.57,1.889,3.756,2.098l0.026,0.031
	c0.05,0.063,5.075,6.39,10.523,14.068L18.312,19.359z M4.967,3.618C4.61,3.618,4.311,3.75,4.03,4.03
	C3.738,4.322,3.607,4.633,3.618,5.009C3.647,6.065,4.78,7.303,5.214,7.691c0.021,0.015,4.225,3.319,10.192,7.702
	C11.277,9.746,7.923,5.509,7.678,5.2C7.276,4.756,6.053,3.647,5.009,3.618C4.995,3.618,4.981,3.618,4.967,3.618z"/>
</svg>






