<?xml version="1.0" encoding="iso-8859-1"?>
<svg version="1.1" id="&#x56FE;&#x5C42;_1" xmlns="http://www.w3.org/2000/svg" xmlns:xlink="http://www.w3.org/1999/xlink" x="0px"
	 y="0px" viewBox="0 0 24 24" style="enable-background:new 0 0 24 24;" xml:space="preserve">
<path style="fill:#333333;" d="M22.75,18.75H5.25V15c0-4.825,3.925-8.75,8.75-8.75c4.825,0,8.75,3.925,8.75,8.75V18.75z M6.75,17.25
	h14.5V15c0-3.998-3.252-7.25-7.25-7.25c-3.998,0-7.25,3.252-7.25,7.25V17.25z"/>
<path style="fill:#333333;" d="M10.279,18.206C9.81,16.564,9.74,10.118,11.727,7.484C12.496,6.464,13.388,6.25,14,6.25
	c0.783,0,1.494,0.337,2.057,0.974c2.193,2.485,1.882,9.312,1.688,10.869l-1.488-0.186c0.264-2.112,0.258-7.899-1.323-9.691
	C14.651,7.898,14.355,7.75,14,7.75c-0.255,0-0.645,0.066-1.075,0.638c-1.553,2.058-1.6,8.019-1.204,9.406L10.279,18.206z"/>
<path style="fill:#333333;" d="M15.5,21.75h-12c-1.241,0-2.25-1.01-2.25-2.25s1.009-2.25,2.25-2.25h12c1.24,0,2.25,1.01,2.25,2.25
	S16.74,21.75,15.5,21.75z M3.5,18.75c-0.414,0-0.75,0.337-0.75,0.75s0.336,0.75,0.75,0.75h12c0.413,0,0.75-0.337,0.75-0.75
	s-0.337-0.75-0.75-0.75H3.5z"/>
<path style="fill:#333333;" d="M14,7.75c-1.517,0-2.75-1.233-2.75-2.75S12.483,2.25,14,2.25S16.75,3.483,16.75,5
	S15.517,7.75,14,7.75z M14,3.75c-0.689,0-1.25,0.561-1.25,1.25S13.311,6.25,14,6.25S15.25,5.689,15.25,5S14.689,3.75,14,3.75z"/>
</svg>






