<?xml version="1.0" encoding="iso-8859-1"?>
<svg version="1.1" id="&#x56FE;&#x5C42;_1" xmlns="http://www.w3.org/2000/svg" xmlns:xlink="http://www.w3.org/1999/xlink" x="0px"
	 y="0px" viewBox="0 0 24 24" style="enable-background:new 0 0 24 24;" xml:space="preserve">
<path style="fill:#333333;" d="M12,22.75C6.072,22.75,1.25,17.928,1.25,12S6.072,1.25,12,1.25S22.75,6.072,22.75,12
	S17.928,22.75,12,22.75z M12,2.75c-5.101,0-9.25,4.149-9.25,9.25s4.149,9.25,9.25,9.25s9.25-4.149,9.25-9.25S17.101,2.75,12,2.75z"
	/>
<path style="fill:#333333;" d="M4.761,18.933l-0.976-1.139C5.75,16.11,6.705,14.215,6.705,12S5.75,7.89,3.785,6.206l0.977-1.139
	C7.046,7.026,8.205,9.358,8.205,12C8.205,14.643,7.046,16.975,4.761,18.933z"/>
<path style="fill:#333333;" d="M19.239,18.933c-2.285-1.958-3.444-4.291-3.444-6.933c0-2.641,1.159-4.974,3.444-6.933l0.977,1.139
	C18.25,7.891,17.295,9.786,17.295,12c0,2.215,0.955,4.11,2.921,5.794L19.239,18.933z"/>
</svg>






