<?xml version="1.0" encoding="iso-8859-1"?>
<svg version="1.1" id="&#x56FE;&#x5C42;_1" xmlns="http://www.w3.org/2000/svg" xmlns:xlink="http://www.w3.org/1999/xlink" x="0px"
	 y="0px" viewBox="0 0 24 24" style="enable-background:new 0 0 24 24;" xml:space="preserve">
<path style="fill:#333333;" d="M20,22.75H4c-0.965,0-1.75-0.785-1.75-1.75v-9.52c0-0.517,0.228-1.011,0.625-1.355
	C4.16,9.011,5.062,7.941,5.289,7.263C5.518,6.575,5.68,5.014,5.734,2.979C5.76,2.025,6.552,1.25,7.5,1.25h2.25V2
	c0,1.241,1.009,2.25,2.25,2.25c1.24,0,2.25-1.009,2.25-2.25V1.25h2.25c0.948,0,1.74,0.776,1.766,1.729
	c0.054,2.035,0.217,3.596,0.446,4.284c0.226,0.677,1.128,1.747,2.412,2.862c0.398,0.345,0.626,0.839,0.626,1.355V21
	C21.75,21.965,20.965,22.75,20,22.75z M7.5,2.75c-0.143,0-0.262,0.121-0.267,0.27C7.192,4.581,7.068,6.667,6.711,7.737
	c-0.427,1.282-1.971,2.756-2.854,3.521C3.79,11.317,3.75,11.399,3.75,11.48V21c0,0.138,0.112,0.25,0.25,0.25h16
	c0.138,0,0.25-0.112,0.25-0.25v-9.52c0-0.082-0.04-0.163-0.108-0.223c-1.078-0.935-2.447-2.305-2.854-3.521
	c-0.356-1.069-0.48-3.156-0.522-4.718C16.762,2.871,16.643,2.75,16.5,2.75h-0.825c-0.349,1.709-1.864,3-3.675,3
	c-1.811,0-3.326-1.291-3.675-3H7.5z"/>
<path style="fill:#333333;" d="M17.25,18.75h-4.5v-7.5h4.5V18.75z M14.25,17.25h1.5v-4.5h-1.5V17.25z"/>
<polygon style="fill:#333333;" points="11.25,18.75 7.5,18.75 7.5,17.25 9.75,17.25 9.75,12.75 7.5,12.75 7.5,11.25 11.25,11.25 "/>
<rect x="7.5" y="14.25" style="fill:#333333;" width="3" height="1.5"/>
</svg>






