<?xml version="1.0" encoding="iso-8859-1"?>
<svg version="1.1" id="&#x56FE;&#x5C42;_1" xmlns="http://www.w3.org/2000/svg" xmlns:xlink="http://www.w3.org/1999/xlink" x="0px"
	 y="0px" viewBox="0 0 24 24" style="enable-background:new 0 0 24 24;" xml:space="preserve">
<path style="fill:none;" d="M9,12c0-3.312,2.688-6,6-6s6,2.688,6,6"/>
<path style="fill:#333333;" d="M21.75,12h-1.5c0-2.895-2.355-5.25-5.25-5.25S9.75,9.105,9.75,12h-1.5c0-3.722,3.028-6.75,6.75-6.75
	C18.722,5.25,21.75,8.278,21.75,12z"/>
<path style="fill:#333333;" d="M6,18.75H2L1.25,18V2L2,1.25h4L6.75,2v16L6,18.75z M2.75,17.25h2.5V2.75h-2.5V17.25z"/>
<rect x="6" y="11.25" style="fill:#333333;" width="16" height="1.5"/>
<path style="fill:#333333;" d="M10.703,22.262l-1.405-0.523c0.912-2.447,0.914-4.94,0.006-7.21l-0.989-2.224l1.371-0.609l1,2.25
	C11.745,16.593,11.747,19.46,10.703,22.262z"/>
<path style="fill:#333333;" d="M18.798,22.263c-1.048-2.796-1.046-5.663,0.006-8.291l1.011-2.276l1.371,0.609l-1,2.25
	c-0.899,2.249-0.897,4.742,0.017,7.183L18.798,22.263z"/>
<rect x="10.61" y="15.25" style="fill:#333333;" width="8.28" height="1.5"/>
<rect x="10.845" y="19.25" style="fill:#333333;" width="7.815" height="1.5"/>
<rect x="14" y="12" style="fill:#333333;" width="1.5" height="8"/>
</svg>






