<?xml version="1.0" encoding="iso-8859-1"?>
<svg version="1.1" id="&#x56FE;&#x5C42;_1" xmlns="http://www.w3.org/2000/svg" xmlns:xlink="http://www.w3.org/1999/xlink" x="0px"
	 y="0px" viewBox="0 0 24 24" style="enable-background:new 0 0 24 24;" xml:space="preserve">
<path style="fill:#333333;" d="M12.75,21h-1.5c0-1.368-0.695-4.311-1.162-5.954c-0.229-0.628-0.536-1.049-0.804-1.073
	c-0.466-0.044-1.275,0.724-1.877,1.742l-1.393-0.319c-0.086-1.028-0.37-2.345-1.229-2.772c-0.73-0.36-1.741-0.018-2.384,0.388
	l-1.15-0.659c0.204-5.913,4.83-8.526,7.248-9.083l0.513,1.397c-0.495,0.256-0.547,0.58-0.547,0.583
	C8.419,5.697,8.5,6.008,8.707,6.262c0.197,0.241,0.479,0.406,0.757,0.515C9.65,5.817,10,4.593,10.089,4.284l1.457,0.067l0.121,0.624
	h0.667l0.121-0.625l1.457-0.066c0.09,0.31,0.438,1.534,0.625,2.493c0.277-0.109,0.561-0.274,0.757-0.515
	c0.208-0.254,0.289-0.565,0.247-0.95c-0.004-0.066-0.056-0.39-0.552-0.646l0.513-1.397c2.418,0.556,7.045,3.169,7.249,9.083
	l-1.15,0.659c-0.644-0.405-1.654-0.751-2.385-0.388c-0.859,0.428-1.143,1.744-1.229,2.772l-1.393,0.319
	c-0.602-1.018-1.416-1.788-1.877-1.742c-0.268,0.024-0.574,0.445-0.82,1.124C13.445,16.689,12.75,19.632,12.75,21z M9.249,12.471
	c0.058,0,0.116,0.003,0.175,0.008c0.912,0.086,1.616,0.794,2.091,2.106c0.027,0.094,0.242,0.852,0.485,1.854
	c0.24-0.99,0.449-1.73,0.469-1.803c0.492-1.363,1.196-2.072,2.108-2.157c0.854-0.071,1.64,0.448,2.233,1.056
	c0.341-1.094,0.922-1.849,1.736-2.254c0.822-0.409,1.748-0.37,2.578-0.121c-0.505-2.938-2.37-4.734-4.072-5.679
	c0.013,0.62-0.19,1.232-0.598,1.731c-0.651,0.797-1.708,1.159-2.479,1.231l-0.82,0.077V7.696c0-0.199-0.088-0.662-0.219-1.221
	h-1.872c-0.13,0.559-0.22,1.025-0.22,1.221V8.52l-0.82-0.077C9.253,8.37,8.197,8.008,7.545,7.211
	C7.149,6.726,6.946,6.132,6.95,5.479C5.248,6.424,3.38,8.22,2.875,11.16c0.829-0.249,1.756-0.289,2.578,0.121
	c0.814,0.405,1.396,1.16,1.737,2.254C7.743,12.969,8.455,12.471,9.249,12.471z"/>
</svg>






