<?xml version="1.0" encoding="iso-8859-1"?>
<svg version="1.1" id="&#x56FE;&#x5C42;_1" xmlns="http://www.w3.org/2000/svg" xmlns:xlink="http://www.w3.org/1999/xlink" x="0px"
	 y="0px" viewBox="0 0 24 24" style="enable-background:new 0 0 24 24;" xml:space="preserve">
<path style="fill:#333333;" d="M19,17.75H3c-0.965,0-1.75-0.785-1.75-1.75V8c0-0.965,0.785-1.75,1.75-1.75h16
	c0.965,0,1.75,0.785,1.75,1.75v8C20.75,16.965,19.965,17.75,19,17.75z M3,7.75C2.862,7.75,2.75,7.862,2.75,8v8
	c0,0.138,0.112,0.25,0.25,0.25h16c0.138,0,0.25-0.112,0.25-0.25V8c0-0.138-0.112-0.25-0.25-0.25H3z"/>
<path style="fill:#333333;" d="M21,10h1c0.552,0,1,0.448,1,1v2c0,0.552-0.448,1-1,1h-1V10z"/>
<rect x="5.75" y="10.5" style="fill:#333333;" width="1.5" height="3"/>
<rect x="8.75" y="10.5" style="fill:#333333;" width="1.5" height="3"/>
</svg>






