<?xml version="1.0" encoding="iso-8859-1"?>
<svg version="1.1" id="&#x56FE;&#x5C42;_1" xmlns="http://www.w3.org/2000/svg" xmlns:xlink="http://www.w3.org/1999/xlink" x="0px"
	 y="0px" viewBox="0 0 24 24" style="enable-background:new 0 0 24 24;" xml:space="preserve">
<path style="fill:#333333;" d="M16,22.75H8c-0.965,0-1.75-0.785-1.75-1.75V5c0-0.965,0.785-1.75,1.75-1.75h8
	c0.965,0,1.75,0.785,1.75,1.75v16C17.75,21.965,16.965,22.75,16,22.75z M8,4.75C7.862,4.75,7.75,4.862,7.75,5v16
	c0,0.138,0.112,0.25,0.25,0.25h8c0.138,0,0.25-0.112,0.25-0.25V5c0-0.138-0.112-0.25-0.25-0.25H8z"/>
<path style="fill:#333333;" d="M10,3V2c0-0.552,0.448-1,1-1h2c0.552,0,1,0.448,1,1v1H10z"/>
<polygon style="fill:#333333;" points="12.171,18.335 10.829,17.665 12.6,14.123 10.182,14.728 9.329,13.665 11.829,8.665 
	13.171,9.335 11.4,12.877 13.818,12.272 14.671,13.335 "/>
</svg>






