<?xml version="1.0" encoding="iso-8859-1"?>
<svg version="1.1" id="&#x56FE;&#x5C42;_1" xmlns="http://www.w3.org/2000/svg" xmlns:xlink="http://www.w3.org/1999/xlink" x="0px"
	 y="0px" viewBox="0 0 24 24" style="enable-background:new 0 0 24 24;" xml:space="preserve">
<path style="fill:#333333;" d="M22.189,15.507L1.422,9.942l0.194-0.725c1.181-4.407,5.03-7.598,9.578-7.94
	c1.206-0.09,2.413,0.024,3.588,0.339c1.022,0.274,1.993,0.693,2.886,1.246c3.994,2.476,5.933,7.377,4.716,11.92L22.189,15.507z
	 M7.365,9.981l13.734,3.68c0.669-3.693-0.998-7.526-4.221-9.524c-0.768-0.475-1.604-0.836-2.484-1.072
	c-1.014-0.271-2.053-0.37-3.087-0.292C7.644,3.048,4.509,5.471,3.289,8.889L7.365,9.981z"/>
<path style="fill:#333333;" d="M8.876,11.087l-1.48-0.243c0.018-0.109,0.455-2.687,2.158-4.964c1.673-2.237,4.505-4.09,4.625-4.168
	l0.817,1.258c-0.027,0.018-2.73,1.789-4.242,3.809C9.279,8.752,8.88,11.064,8.876,11.087z"/>
<path style="fill:#333333;" d="M16.565,13.3l-1.403-0.528c0.009-0.022,0.818-2.224,0.526-4.671c-0.299-2.506-1.754-5.391-1.769-5.42
	L15.257,2c0.065,0.127,1.59,3.148,1.922,5.922C17.515,10.746,16.604,13.197,16.565,13.3z"/>
<rect x="11.25" y="2" transform="matrix(0.2588 -0.9659 0.9659 0.2588 -2.6967 20.4851)" style="fill:#333333;" width="1.5" height="20"/>
<rect x="2" y="21.25" style="fill:#333333;" width="20" height="1.5"/>
<rect x="5.44" y="16.25" transform="matrix(0.2656 -0.9641 0.9641 0.2656 -8.5864 22.7285)" style="fill:#333333;" width="10.371" height="1.5"/>
<path style="fill:#333333;" d="M16.877,4.137c-0.767-0.475-1.602-0.836-2.483-1.072c-1.014-0.271-2.053-0.37-3.087-0.292
	l-0.112-1.496c1.206-0.09,2.413,0.024,3.588,0.339c1.023,0.274,1.994,0.693,2.886,1.247L16.877,4.137z"/>
</svg>






