<?xml version="1.0" encoding="iso-8859-1"?>
<svg version="1.1" id="&#x56FE;&#x5C42;_1" xmlns="http://www.w3.org/2000/svg" xmlns:xlink="http://www.w3.org/1999/xlink" x="0px"
	 y="0px" viewBox="0 0 24 24" style="enable-background:new 0 0 24 24;" xml:space="preserve">
<path style="fill:#333333;" d="M12,22.25c-5.285,0-9.75-4.236-9.75-9.25c0-1.253,0.408-2.403,0.837-3.333
	C2.21,8.75,1.75,7.676,1.75,6.53c0-2.636,2.131-4.78,4.75-4.78c1.663,0,3.125,0.91,3.936,2.413c1.005-0.144,2.122-0.145,3.128,0
	C14.376,2.66,15.838,1.75,17.5,1.75c2.619,0,4.75,2.131,4.75,4.75c0,1.145-0.471,2.251-1.338,3.165
	c0.43,0.93,0.838,2.08,0.838,3.335C21.75,18.014,17.285,22.25,12,22.25z M6.5,3.25c-1.762,0-3.25,1.502-3.25,3.28
	c0,0.881,0.417,1.69,1.241,2.403l0.441,0.381L4.67,9.836C4.215,10.745,3.75,11.831,3.75,13c0,4.201,3.778,7.75,8.25,7.75
	c4.472,0,8.25-3.549,8.25-7.75c0-1.17-0.465-2.256-0.921-3.164l-0.261-0.521l0.441-0.382c0.565-0.489,1.24-1.309,1.24-2.433
	c0-1.792-1.458-3.25-3.25-3.25c-1.251,0-2.299,0.758-2.803,2.027l-0.233,0.586l-0.617-0.129c-1.134-0.236-2.562-0.236-3.693,0
	L9.536,5.863L9.303,5.277C8.799,4.008,7.751,3.25,6.5,3.25z"/>
<circle style="fill:#333333;" cx="10" cy="9.5" r="1"/>
<circle style="fill:#333333;" cx="14" cy="9.5" r="1"/>
<circle style="fill:#333333;" cx="12" cy="13" r="1.5"/>
<rect x="11.25" y="13" style="fill:#333333;" width="1.5" height="4"/>
<path style="fill:#333333;" d="M12,18.112c-0.904,0-1.809-0.36-2.53-1.082l1.061-1.061c0.852,0.852,2.088,0.851,2.939,0l1.061,1.061
	C13.81,17.751,12.904,18.112,12,18.112z"/>
</svg>






