<?xml version="1.0" encoding="iso-8859-1"?>
<svg version="1.1" id="&#x56FE;&#x5C42;_1" xmlns="http://www.w3.org/2000/svg" xmlns:xlink="http://www.w3.org/1999/xlink" x="0px"
	 y="0px" viewBox="0 0 24 24" style="enable-background:new 0 0 24 24;" xml:space="preserve">
<path style="fill:#333333;" d="M21.75,22h-1.5V11c0-4.549-3.701-8.25-8.25-8.25S3.75,6.451,3.75,11v11h-1.5V11
	c0-5.376,4.374-9.75,9.75-9.75s9.75,4.374,9.75,9.75V22z"/>
<path style="fill:#333333;" d="M12,22.25c-3.224,0-5.75-4.722-5.75-10.75v-0.75h11.5v0.75C17.75,17.528,15.225,22.25,12,22.25z
	 M7.764,12.25c0.188,5.116,2.278,8.5,4.236,8.5c1.958,0,4.049-3.384,4.236-8.5H7.764z"/>
</svg>






