<?xml version="1.0" encoding="iso-8859-1"?>
<svg version="1.1" id="&#x56FE;&#x5C42;_1" xmlns="http://www.w3.org/2000/svg" xmlns:xlink="http://www.w3.org/1999/xlink" x="0px"
	 y="0px" viewBox="0 0 24 24" style="enable-background:new 0 0 24 24;" xml:space="preserve">
<rect x="8.5" y="16.25" style="fill:#333333;" width="7" height="1.5"/>
<rect x="8" y="12.75" style="fill:#333333;" width="8" height="1.5"/>
<path style="fill:#333333;" d="M17.5,10.75h-11c-1.517,0-2.75-1.233-2.75-2.75V4c0-1.517,1.233-2.75,2.75-2.75h11
	c1.517,0,2.75,1.233,2.75,2.75v4C20.25,9.517,19.017,10.75,17.5,10.75z M6.5,2.75C5.811,2.75,5.25,3.311,5.25,4v4
	c0,0.689,0.561,1.25,1.25,1.25h11c0.689,0,1.25-0.561,1.25-1.25V4c0-0.689-0.561-1.25-1.25-1.25H6.5z"/>
<polygon style="fill:#333333;" points="15.109,22.75 8.89,22.75 6.266,10.153 7.734,9.847 10.11,21.25 13.891,21.25 16.266,9.847 
	17.734,10.153 "/>
<rect x="8.5" y="5.25" style="fill:#333333;" width="6.5" height="1.5"/>
</svg>






