<?xml version="1.0" encoding="iso-8859-1"?>
<svg version="1.1" id="&#x56FE;&#x5C42;_1" xmlns="http://www.w3.org/2000/svg" xmlns:xlink="http://www.w3.org/1999/xlink" x="0px"
	 y="0px" viewBox="0 0 24 24" style="enable-background:new 0 0 24 24;" xml:space="preserve">
<path style="fill:#333333;" d="M22.75,21.75H1.25V8.25h21.5V21.75z M2.75,20.25h18.5V9.75H2.75V20.25z"/>
<rect x="11" y="11.25" style="fill:#333333;" width="2" height="1.5"/>
<rect x="2" y="14.25" style="fill:#333333;" width="20" height="1.5"/>
<rect x="11" y="17.25" style="fill:#333333;" width="2" height="1.5"/>
<rect x="3.25" y="21" style="fill:#333333;" width="1.5" height="2"/>
<rect x="19.25" y="21" style="fill:#333333;" width="1.5" height="2"/>
<rect x="11.25" y="5" style="fill:#333333;" width="1.5" height="4"/>
<path style="fill:#333333;" d="M16.75,5.75h-9.5V5c0-2.619,2.131-4.75,4.75-4.75S16.75,2.381,16.75,5V5.75z M8.837,4.25h6.326
	c-0.34-1.432-1.629-2.5-3.163-2.5S9.177,2.818,8.837,4.25z"/>
<rect x="21.25" y="13" style="fill:#333333;" width="1.5" height="4"/>
<rect x="1.25" y="13" style="fill:#333333;" width="1.5" height="4"/>
</svg>






