<?xml version="1.0" encoding="iso-8859-1"?>
<svg version="1.1" id="&#x56FE;&#x5C42;_1" xmlns="http://www.w3.org/2000/svg" xmlns:xlink="http://www.w3.org/1999/xlink" x="0px"
	 y="0px" viewBox="0 0 24 24" style="enable-background:new 0 0 24 24;" xml:space="preserve">
<path style="fill:#333333;" d="M12,22.75c-2.497,0-3.75-5.387-3.75-8.402c0-2.26,1.682-4.098,3.75-4.098
	c2.067,0,3.75,1.838,3.75,4.098C15.75,17.363,14.497,22.75,12,22.75z M12,11.75c-1.241,0-2.25,1.165-2.25,2.598
	c0,3.423,1.443,6.902,2.25,6.902s2.25-3.479,2.25-6.902C14.25,12.915,13.24,11.75,12,11.75z"/>
<path style="fill:#333333;" d="M5.739,14.25c-1.614,0-3.489-1.42-3.489-3.25c0-1.831,1.875-3.25,3.489-3.25
	c1.487,0,5.011,1.261,5.011,3.25C10.75,12.988,7.227,14.25,5.739,14.25z M5.739,9.25C4.862,9.25,3.75,10.074,3.75,11
	s1.112,1.75,1.989,1.75c1.178,0,3.511-1.063,3.511-1.75S6.917,9.25,5.739,9.25z"/>
<path style="fill:#333333;" d="M18.261,14.25c-1.487,0-5.011-1.262-5.011-3.25c0-1.989,3.523-3.25,5.011-3.25
	c1.613,0,3.489,1.419,3.489,3.25C21.75,12.83,19.874,14.25,18.261,14.25z M18.261,9.25c-1.179,0-3.511,1.063-3.511,1.75
	s2.332,1.75,3.511,1.75c0.877,0,1.989-0.824,1.989-1.75S19.138,9.25,18.261,9.25z"/>
<path style="fill:#333333;" d="M12,11.75c-1.792,0-3.25-1.458-3.25-3.25V7c0-1.792,1.458-3.25,3.25-3.25S15.25,5.208,15.25,7v1.5
	C15.25,10.292,13.792,11.75,12,11.75z M12,5.25c-0.965,0-1.75,0.785-1.75,1.75v1.5c0,0.965,0.785,1.75,1.75,1.75
	s1.75-0.785,1.75-1.75V7C13.75,6.035,12.965,5.25,12,5.25z"/>
<path style="fill:#333333;" d="M14.75,5h-1.5c0-2.068,1.683-3.75,3.75-3.75v1.5C15.76,2.75,14.75,3.759,14.75,5z"/>
<path style="fill:#333333;" d="M11.25,5h-1.5c0-1.241-1.233-2.25-2.75-2.25v-1.5C9.343,1.25,11.25,2.932,11.25,5z"/>
</svg>






