<?xml version="1.0" encoding="iso-8859-1"?>
<svg version="1.1" id="&#x56FE;&#x5C42;_1" xmlns="http://www.w3.org/2000/svg" xmlns:xlink="http://www.w3.org/1999/xlink" x="0px"
	 y="0px" viewBox="0 0 24 24" style="enable-background:new 0 0 24 24;" xml:space="preserve">
<path style="fill:#333333;" d="M18.25,22.75H5.75V10.5c0-0.965,0.785-1.75,1.75-1.75h1.25v1.5H7.5c-0.138,0-0.25,0.112-0.25,0.25
	v10.75h9.5V10.5c0-0.138-0.112-0.25-0.25-0.25h-3.75v-1.5h3.75c0.965,0,1.75,0.785,1.75,1.75V22.75z"/>
<path style="fill:#333333;" d="M10.75,16.75c-1.103,0-2-0.897-2-2v-4.5h-1.5c-1.93,0-3.5-1.57-3.5-3.5s1.57-3.5,3.5-3.5h0.74
	c0.453-0.892,1.528-2,3.51-2c1.982,0,3.057,1.108,3.51,2h1.74c1.93,0,3.5,1.57,3.5,3.5s-1.57,3.5-3.5,3.5h-4v4.5
	C12.75,15.853,11.853,16.75,10.75,16.75z M7.25,4.75c-1.103,0-2,0.897-2,2s0.897,2,2,2h3v6c0,0.275,0.224,0.5,0.5,0.5
	s0.5-0.225,0.5-0.5v-6h5.5c1.103,0,2-0.897,2-2s-0.897-2-2-2h-2.836l-0.142-0.568C13.734,4.043,13.325,2.75,11.5,2.75
	c-1.893,0-2.269,1.417-2.272,1.432L9.085,4.75H7.25z"/>
<path style="fill:#333333;" d="M19,16.75h-1.5v-1.5H19c0.689,0,1.25-0.561,1.25-1.25v-2.5c0-0.138-0.112-0.25-0.25-0.25h-2.5v-1.5
	H20c0.965,0,1.75,0.785,1.75,1.75V14C21.75,15.517,20.517,16.75,19,16.75z"/>
</svg>






