<?xml version="1.0" encoding="iso-8859-1"?>
<svg version="1.1" id="&#x56FE;&#x5C42;_1" xmlns="http://www.w3.org/2000/svg" xmlns:xlink="http://www.w3.org/1999/xlink" x="0px"
	 y="0px" viewBox="0 0 24 24" style="enable-background:new 0 0 24 24;" xml:space="preserve">
<path style="fill:#333333;" d="M6,12.75H1.25v-8.5H6c2.886,0,4.75,1.668,4.75,4.25S8.886,12.75,6,12.75z M2.75,11.25H6
	c2.035,0,3.25-1.028,3.25-2.75S8.035,5.75,6,5.75H2.75V11.25z"/>
<path style="fill:#333333;" d="M6.516,20.75H1.25v-9.5h5.266c3.18,0,5.234,1.864,5.234,4.75S9.695,20.75,6.516,20.75z M2.75,19.25
	h3.766c2.373,0,3.734-1.185,3.734-3.25s-1.361-3.25-3.734-3.25H2.75V19.25z"/>
<path style="fill:#333333;" d="M18,20.75c-2.797,0-4.75-2.159-4.75-5.25s1.953-5.25,4.75-5.25c3.281,0,4.75,2.637,4.75,5.25v0.75
	h-7.944c0.237,1.59,1.251,3,3.194,3c2.031,0,2.848-1.126,2.881-1.174l1.243,0.84C22.074,18.991,20.868,20.75,18,20.75z
	 M14.806,14.75h6.387c-0.166-1.137-0.804-3-3.192-3C16.057,11.75,15.043,13.16,14.806,14.75z"/>
<rect x="15" y="6.75" style="fill:#333333;" width="6" height="1.5"/>
</svg>






