<?xml version="1.0" encoding="iso-8859-1"?>
<svg version="1.1" id="&#x56FE;&#x5C42;_1" xmlns="http://www.w3.org/2000/svg" xmlns:xlink="http://www.w3.org/1999/xlink" x="0px"
	 y="0px" viewBox="0 0 24 24" style="enable-background:new 0 0 24 24;" xml:space="preserve">
<path style="fill:#333333;" d="M10,18.75c-4.825,0-8.75-3.925-8.75-8.75c0-4.825,3.925-8.75,8.75-8.75c4.825,0,8.75,3.925,8.75,8.75
	C18.75,14.825,14.825,18.75,10,18.75z M10,2.75c-3.998,0-7.25,3.252-7.25,7.25c0,3.998,3.252,7.25,7.25,7.25
	c3.998,0,7.25-3.252,7.25-7.25C17.25,6.002,13.998,2.75,10,2.75z"/>
<path style="fill:none;" d="M22,9v1h-1V9H22z"/>
<path style="fill:#333333;" d="M14.54,20.84l-0.58-1.383c3.821-1.603,6.29-5.314,6.29-9.457V8.25h2.5v2.5h-1.023
	C21.446,15.192,18.688,19.102,14.54,20.84z"/>
<polygon style="fill:#333333;" points="16.154,22.75 3.846,22.75 6.314,17.195 7.686,17.805 6.154,21.25 13.846,21.25 
	12.314,17.805 13.686,17.195 "/>
<path style="fill:#333333;" d="M10,12.75c-1.517,0-2.75-1.233-2.75-2.75S8.483,7.25,10,7.25s2.75,1.233,2.75,2.75
	S11.517,12.75,10,12.75z M10,8.75c-0.689,0-1.25,0.561-1.25,1.25s0.561,1.25,1.25,1.25s1.25-0.561,1.25-1.25S10.689,8.75,10,8.75z"
	/>
<path style="fill:#333333;" d="M5.75,10h-1.5c0-3.17,2.58-5.75,5.75-5.75v1.5C7.657,5.75,5.75,7.657,5.75,10z"/>
</svg>






