<?xml version="1.0" encoding="iso-8859-1"?>
<svg version="1.1" id="&#x56FE;&#x5C42;_1" xmlns="http://www.w3.org/2000/svg" xmlns:xlink="http://www.w3.org/1999/xlink" x="0px"
	 y="0px" viewBox="0 0 24 24" style="enable-background:new 0 0 24 24;" xml:space="preserve">
<polygon style="fill:#333333;" points="5.636,22.96 1.04,18.364 4.752,14.651 5.813,15.712 3.161,18.364 5.636,20.839 8.288,18.188 
	9.348,19.248 "/>
<polygon style="fill:#333333;" points="15.005,13.591 13.944,12.53 20.839,5.636 18.364,3.161 11.47,10.056 10.409,8.995 
	18.364,1.04 22.96,5.636 "/>
<path style="fill:#333333;" d="M9.879,20.114c-0.467,0-0.907-0.182-1.237-0.513l-4.243-4.243c-0.331-0.33-0.513-0.77-0.513-1.237
	s0.182-0.907,0.513-1.237l4.243-4.243c0.683-0.681,1.792-0.682,2.475,0l4.243,4.243c0.683,0.683,0.683,1.792,0,2.475l-4.243,4.243
	C10.786,19.932,10.347,20.114,9.879,20.114z M9.879,9.629c-0.064,0-0.128,0.024-0.177,0.073l-4.242,4.242
	c-0.097,0.098-0.097,0.256,0,0.354l4.243,4.243c0.128,0.127,0.226,0.127,0.353,0l4.244-4.243c0.098-0.098,0.098-0.256,0-0.354
	l-4.243-4.243C10.007,9.653,9.943,9.629,9.879,9.629z"/>
<rect x="8.44" y="12.311" transform="matrix(0.7071 -0.7071 0.7071 0.7071 -6.0311 11.5607)" style="fill:#333333;" width="4.999" height="1.5"/>
<rect x="16.907" y="3.843" transform="matrix(0.7072 -0.7071 0.7071 0.7072 0.6859 14.3422)" style="fill:#333333;" width="1.5" height="5"/>
<rect x="14.432" y="6.318" transform="matrix(0.7072 -0.7071 0.7071 0.7072 -1.7891 13.3166)" style="fill:#333333;" width="1.5" height="5"/>
<rect x="9.836" y="9.415" transform="matrix(0.7072 -0.707 0.707 0.7072 -6.3848 11.413)" style="fill:#333333;" width="1.5" height="8"/>
</svg>






