<?xml version="1.0" encoding="iso-8859-1"?>
<svg version="1.1" id="&#x56FE;&#x5C42;_1" xmlns="http://www.w3.org/2000/svg" xmlns:xlink="http://www.w3.org/1999/xlink" x="0px"
	 y="0px" viewBox="0 0 24 24" style="enable-background:new 0 0 24 24;" xml:space="preserve">
<path style="fill:#333333;" d="M11.75,22.75c-4.094,0-8.5-2.112-8.5-6.75V8c0-3.307,2.428-5.826,4.712-6.518
	c1.177-0.357,2.172-0.132,2.662,0.602c0.816,1.224,0.085,2.138-0.449,2.805C9.72,5.456,9.25,6.043,9.25,7
	c0,1.776,1.729,2.25,2.75,2.25S14.75,8.776,14.75,7c0-0.939-0.562-1.5-1.155-2.095c-0.621-0.621-1.56-1.56-0.719-2.821
	c0.51-0.763,1.557-0.973,2.87-0.574C18.172,2.244,20.75,4.769,20.75,8v8C20.75,20.663,16.229,22.75,11.75,22.75z M9.013,2.813
	c-0.159,0-0.366,0.029-0.616,0.104C6.883,3.376,4.75,5.256,4.75,8v8c0,4.152,4.579,5.25,7,5.25c2.785,0,7.5-1.105,7.5-5.25V8
	c0-2.813-2.416-4.594-3.938-5.055c-0.767-0.231-1.138-0.102-1.188-0.029c-0.125,0.188-0.159,0.238,0.531,0.929
	C15.328,4.518,16.25,5.439,16.25,7c0,2.462-2.138,3.75-4.25,3.75c-2.112,0-4.25-1.288-4.25-3.75c0-1.484,0.725-2.389,1.254-3.049
	c0.58-0.724,0.544-0.777,0.372-1.035C9.338,2.859,9.213,2.813,9.013,2.813z"/>
<path style="fill:#333333;" d="M12,19.561L8.439,16L12,12.439L15.561,16L12,19.561z M10.561,16L12,17.439L13.439,16L12,14.561
	L10.561,16z"/>
</svg>






