<?xml version="1.0" encoding="iso-8859-1"?>
<svg version="1.1" id="&#x56FE;&#x5C42;_1" xmlns="http://www.w3.org/2000/svg" xmlns:xlink="http://www.w3.org/1999/xlink" x="0px"
	 y="0px" viewBox="0 0 24 24" style="enable-background:new 0 0 24 24;" xml:space="preserve">
<path style="fill:#333333;" d="M5.25,21.75c-2.757,0-5-2.243-5-5s2.243-5,5-5s5,2.243,5,5S8.007,21.75,5.25,21.75z M5.25,13.25
	c-1.93,0-3.5,1.57-3.5,3.5s1.57,3.5,3.5,3.5s3.5-1.57,3.5-3.5S7.18,13.25,5.25,13.25z"/>
<path style="fill:#333333;" d="M18.5,21.75c-2.895,0-5.25-2.355-5.25-5.25s2.355-5.25,5.25-5.25s5.25,2.355,5.25,5.25
	S21.395,21.75,18.5,21.75z M18.5,12.75c-2.067,0-3.75,1.683-3.75,3.75s1.683,3.75,3.75,3.75s3.75-1.683,3.75-3.75
	S20.567,12.75,18.5,12.75z"/>
<polygon style="fill:#333333;" points="17.788,16.737 13.458,3.75 9.499,3.75 9.499,2.25 14.54,2.25 19.212,16.263 "/>
<path style="fill:none;" d="M5.529,16.5l10.312-8.118L5.529,16.5z"/>
<rect x="4.123" y="11.691" transform="matrix(0.7855 -0.6188 0.6188 0.7855 -5.4071 9.2797)" style="fill:#333333;" width="13.124" height="1.5"/>
<polygon style="fill:#333333;" points="20.6,8.25 15.841,8.25 15.841,6.75 19.555,6.75 20.297,4.74 21.703,5.26 "/>
<rect x="4" y="7.237" style="fill:#333333;" width="3.5" height="1.5"/>
<rect x="7.568" y="7.875" transform="matrix(0.9541 -0.2996 0.2996 0.9541 -2.7951 2.979)" style="fill:#333333;" width="1.5" height="5.462"/>
</svg>






