<?xml version="1.0" encoding="iso-8859-1"?>
<svg version="1.1" id="&#x56FE;&#x5C42;_1" xmlns="http://www.w3.org/2000/svg" xmlns:xlink="http://www.w3.org/1999/xlink" x="0px"
	 y="0px" viewBox="0 0 24 24" style="enable-background:new 0 0 24 24;" xml:space="preserve">
<path style="fill:#333333;" d="M11.822,19.269c-2.336,0-4.751-0.712-6.842-2.729c-2.695-2.598-3.665-6.163-3.705-6.313L1.176,9.855
	l2.763-3.354c1.022-1.148,3.604-2.744,6.059-0.562L11.53,7.47c0.412,0.411,1.377,1.376,4.107-0.126l4.558-2.029
	c1.157-0.376,1.704,0.065,1.933,0.361c0.549,0.71,0.694,2.088-2.086,6.751l0.811-0.162c0.709-0.136,1.558,0.033,1.879,0.719
	c0.504,1.081-0.762,2.285-1.758,3.098C19.366,17.304,15.701,19.269,11.822,19.269z M2.836,10.2c0.305,0.917,1.264,3.409,3.185,5.26
	c4.806,4.634,11.755,1.168,14.025-0.558c0.702-0.572,1.026-0.955,1.175-1.178c-0.025,0.003-0.052,0.007-0.079,0.012l-2.494,0.499
	l-0.781-1.137c2.933-4.627,3.102-6.08,3.076-6.434c-0.051,0.006-0.122,0.021-0.213,0.05l-4.425,1.972
	c-2.445,1.348-4.372,1.308-5.835-0.155l-1.5-1.5C7.083,5.354,5.226,7.316,5.068,7.489L2.836,10.2z"/>
<circle style="fill:#333333;" cx="7" cy="10" r="1"/>
</svg>






