<?xml version="1.0" encoding="iso-8859-1"?>
<svg version="1.1" id="&#x56FE;&#x5C42;_1" xmlns="http://www.w3.org/2000/svg" xmlns:xlink="http://www.w3.org/1999/xlink" x="0px"
	 y="0px" viewBox="0 0 24 24" style="enable-background:new 0 0 24 24;" xml:space="preserve">
<path style="fill:none;" d="M4,20h16v-8H4V20z"/>
<path style="fill:#333333;" d="M22,20.75H2v-1.5h1.25v-8h17.5v8H22V20.75z M4.75,19.25h14.5v-6.5H4.75V19.25z"/>
<polygon style="fill:#333333;" points="16,17.839 14,16.839 12,17.839 10,16.839 8,17.839 6,16.839 4.335,17.671 3.665,16.329 
	6,15.161 8,16.161 10,15.161 12,16.161 14,15.161 16,16.161 18,15.161 20.335,16.329 19.665,17.671 18,16.839 "/>
<rect x="15.25" y="7.5" style="fill:#333333;" width="1.5" height="4.5"/>
<rect x="11.25" y="7.5" style="fill:#333333;" width="1.5" height="4.5"/>
<rect x="7.25" y="7.5" style="fill:#333333;" width="1.5" height="4.5"/>
<rect x="15.25" y="4" style="fill:#333333;" width="1.5" height="1"/>
<rect x="11.25" y="4" style="fill:#333333;" width="1.5" height="1"/>
<rect x="7.25" y="4" style="fill:#333333;" width="1.5" height="1"/>
<rect x="3.25" y="12" style="fill:#333333;" width="1.5" height="8"/>
<rect x="19.25" y="12" style="fill:#333333;" width="1.5" height="8"/>
</svg>






