<?xml version="1.0" encoding="iso-8859-1"?>
<svg version="1.1" id="&#x56FE;&#x5C42;_1" xmlns="http://www.w3.org/2000/svg" xmlns:xlink="http://www.w3.org/1999/xlink" x="0px"
	 y="0px" viewBox="0 0 24 24" style="enable-background:new 0 0 24 24;" xml:space="preserve">
<path style="fill:#333333;" d="M12,22.75C6.072,22.75,1.25,17.928,1.25,12S6.072,1.25,12,1.25S22.75,6.072,22.75,12
	S17.928,22.75,12,22.75z M12,2.75c-5.101,0-9.25,4.149-9.25,9.25s4.149,9.25,9.25,9.25s9.25-4.149,9.25-9.25S17.101,2.75,12,2.75z"
	/>
<path style="fill:none;" d="M10,8h2.5h1c1.105,0,2,0.895,2,2s-0.895,2-2,2H10V8z"/>
<path style="fill:#333333;" d="M13.5,12.75H9.25v-4H8v-1.5h1.25V6h1.5v1.25h1V6h1.5v1.25h0.25c1.517,0,2.75,1.233,2.75,2.75
	S15.017,12.75,13.5,12.75z M10.75,11.25h2.75c0.689,0,1.25-0.561,1.25-1.25s-0.561-1.25-1.25-1.25h-1V8v0.75h-1.75V11.25z"/>
<path style="fill:none;" d="M10,12h4.5c1.105,0,2,0.895,2,2s-0.895,2-2,2h-2H10V12z"/>
<path style="fill:#333333;" d="M13.25,18h-1.5v-1.25h-1V18h-1.5v-1.25H8v-1.5h1.25v-4h5.25c1.517,0,2.75,1.233,2.75,2.75
	s-1.233,2.75-2.75,2.75h-1.25V18z M12.5,16v-0.75h2c0.689,0,1.25-0.561,1.25-1.25s-0.561-1.25-1.25-1.25h-3.75v2.5h1.75V16z"/>
</svg>






