<?xml version="1.0" encoding="iso-8859-1"?>
<svg version="1.1" id="&#x56FE;&#x5C42;_1" xmlns="http://www.w3.org/2000/svg" xmlns:xlink="http://www.w3.org/1999/xlink" x="0px"
	 y="0px" viewBox="0 0 24 24" style="enable-background:new 0 0 24 24;" xml:space="preserve">
<path style="fill:#333333;" d="M7.703,21.75H3.661c-0.62,0-1.18-0.317-1.5-0.848c-0.319-0.53-0.336-1.174-0.046-1.722l3.657-6.908
	l2.081-9.665C8.021,1.821,8.728,1.25,9.532,1.25c0.947,0,1.718,0.771,1.718,1.718v9.389c0,0.166-0.024,0.331-0.071,0.492
	l-0.219,0.749L9.409,20.39C9.226,21.19,8.524,21.75,7.703,21.75z M9.532,2.75c-0.102,0-0.191,0.072-0.213,0.172l-2.057,9.599
	c-0.034,0.157-0.089,0.308-0.163,0.449l-3.66,6.912c-0.058,0.109-0.021,0.201,0.007,0.246c0.027,0.045,0.091,0.121,0.214,0.121
	h4.042c0.118,0,0.218-0.08,0.244-0.194l1.803-7.699V2.968C9.75,2.848,9.652,2.75,9.532,2.75z"/>
<rect x="7.5" y="11.346" transform="matrix(0.3939 -0.9191 0.9191 0.3939 -7.1785 15.6135)" style="fill:#333333;" width="1.5" height="3.808"/>
<path style="fill:#333333;" d="M20.339,21.75h-4.042c-0.82,0-1.521-0.559-1.706-1.359l-1.771-7.542
	c-0.047-0.164-0.07-0.328-0.07-0.492V2.968c0-0.947,0.771-1.718,1.718-1.718c0.805,0,1.511,0.571,1.68,1.358l2.057,9.599
	l3.682,6.975c0.289,0.547,0.271,1.19-0.048,1.722C21.519,21.434,20.958,21.75,20.339,21.75z M14.468,2.75
	c-0.12,0-0.218,0.098-0.218,0.218v9.389c0,0.024,0.004,0.049,0.011,0.074l0.219,0.745l1.574,6.88
	c0.026,0.114,0.126,0.194,0.243,0.194h4.042c0.123,0,0.188-0.076,0.214-0.121c0.027-0.045,0.064-0.137,0.007-0.246l-3.657-6.909
	c-0.074-0.138-0.13-0.291-0.164-0.45l-2.058-9.601C14.659,2.822,14.569,2.75,14.468,2.75z"/>
<rect x="13.846" y="12.5" transform="matrix(0.9189 -0.3944 0.3944 0.9189 -3.949 7.2857)" style="fill:#333333;" width="3.808" height="1.501"/>
</svg>






