<?xml version="1.0" encoding="iso-8859-1"?>
<svg version="1.1" id="&#x56FE;&#x5C42;_1" xmlns="http://www.w3.org/2000/svg" xmlns:xlink="http://www.w3.org/1999/xlink" x="0px"
	 y="0px" viewBox="0 0 24 24" style="enable-background:new 0 0 24 24;" xml:space="preserve">
<path style="fill:#333333;" d="M9.75,9.75h-7.5v-7.5h7.5V9.75z M3.75,8.25h4.5v-4.5h-4.5V8.25z"/>
<path style="fill:#333333;" d="M15.75,9.75h-7.5v-7.5h7.5V9.75z M9.75,8.25h4.5v-4.5h-4.5V8.25z"/>
<path style="fill:#333333;" d="M15.75,15.75h-7.5v-7.5h7.5V15.75z M9.75,14.25h4.5v-4.5h-4.5V14.25z"/>
<path style="fill:#333333;" d="M15.75,21.75h-7.5v-7.5h7.5V21.75z M9.75,20.25h4.5v-4.5h-4.5V20.25z"/>
<path style="fill:#333333;" d="M21.75,9.75h-7.5v-7.5h7.5V9.75z M15.75,8.25h4.5v-4.5h-4.5V8.25z"/>
</svg>






