<?xml version="1.0" encoding="iso-8859-1"?>
<svg version="1.1" id="&#x56FE;&#x5C42;_1" xmlns="http://www.w3.org/2000/svg" xmlns:xlink="http://www.w3.org/1999/xlink" x="0px"
	 y="0px" viewBox="0 0 24 24" style="enable-background:new 0 0 24 24;" xml:space="preserve">
<path style="fill:#333333;" d="M10.75,10.75h-8.5v-8.5h8.5V10.75z M3.75,9.25h5.5v-5.5h-5.5V9.25z"/>
<path style="fill:#333333;" d="M10.75,21.75h-8.5v-8.5h8.5V21.75z M3.75,20.25h5.5v-5.5h-5.5V20.25z"/>
<path style="fill:#333333;" d="M21.75,10.75h-8.5v-8.5h8.5V10.75z M14.75,9.25h5.5v-5.5h-5.5V9.25z"/>
<polygon style="fill:#333333;" points="20.47,21.53 14.75,15.811 14.75,21 13.25,21 13.25,14 14,14 14,13.25 21,13.25 21,14.75 
	15.811,14.75 21.53,20.47 "/>
</svg>






