<?xml version="1.0" encoding="iso-8859-1"?>
<svg version="1.1" id="&#x56FE;&#x5C42;_1" xmlns="http://www.w3.org/2000/svg" xmlns:xlink="http://www.w3.org/1999/xlink" x="0px"
	 y="0px" viewBox="0 0 24 24" style="enable-background:new 0 0 24 24;" xml:space="preserve">
<path style="fill:#333333;" d="M12,21.86l-6.868-3.863l0.735-1.307L12,20.14l6.132-3.449l0.736,1.307L12,21.86z M20.75,15h-1.5
	V7.938l-5.868-3.3l0.736-1.308l6.632,3.731V15z M4.75,15h-1.5V7.062l6.632-3.731l0.735,1.308l-5.868,3.3V15z"/>
<path style="fill:#333333;" d="M12,16.368l-3.75-2.188V9.819L12,7.632l3.75,2.188v4.361L12,16.368z M9.75,13.319L12,14.632
	l2.25-1.312v-2.639L12,9.368l-2.25,1.312V13.319z"/>
<rect x="11.25" y="5" style="fill:#333333;" width="1.5" height="3.5"/>
<rect x="16" y="12.484" transform="matrix(0.4961 -0.8682 0.8682 0.4961 -4.1499 21.8491)" style="fill:#333333;" width="1.5" height="4.031"/>
<rect x="5.234" y="13.75" transform="matrix(0.8683 -0.496 0.496 0.8683 -6.2373 5.5053)" style="fill:#333333;" width="4.031" height="1.5"/>
<path style="fill:#333333;" d="M12,5.75c-1.241,0-2.25-1.009-2.25-2.25S10.759,1.25,12,1.25c1.24,0,2.25,1.009,2.25,2.25
	S13.24,5.75,12,5.75z M12,2.75c-0.414,0-0.75,0.336-0.75,0.75S11.586,4.25,12,4.25c0.413,0,0.75-0.336,0.75-0.75
	S12.413,2.75,12,2.75z"/>
<path style="fill:#333333;" d="M4,18.75c-1.241,0-2.25-1.01-2.25-2.25S2.759,14.25,4,14.25s2.25,1.01,2.25,2.25S5.241,18.75,4,18.75
	z M4,15.75c-0.414,0-0.75,0.337-0.75,0.75S3.586,17.25,4,17.25s0.75-0.337,0.75-0.75S4.414,15.75,4,15.75z"/>
<path style="fill:#333333;" d="M20,18.75c-1.24,0-2.25-1.01-2.25-2.25s1.01-2.25,2.25-2.25s2.25,1.01,2.25,2.25
	S21.24,18.75,20,18.75z M20,15.75c-0.413,0-0.75,0.337-0.75,0.75s0.337,0.75,0.75,0.75s0.75-0.337,0.75-0.75S20.413,15.75,20,15.75z
	"/>
</svg>






