<?xml version="1.0" encoding="iso-8859-1"?>
<svg version="1.1" id="&#x56FE;&#x5C42;_1" xmlns="http://www.w3.org/2000/svg" xmlns:xlink="http://www.w3.org/1999/xlink" x="0px"
	 y="0px" viewBox="0 0 24 24" style="enable-background:new 0 0 24 24;" xml:space="preserve">
<rect x="5.25" y="14.595" transform="matrix(0.6402 -0.7682 0.7682 0.6402 -12.0532 11.2659)" style="fill:#333333;" width="1.5" height="7.81"/>
<rect x="14.095" y="17.75" transform="matrix(0.768 -0.6404 0.6404 0.768 -7.6723 15.8198)" style="fill:#333333;" width="7.81" height="1.5"/>
<rect x="11.25" y="16" style="fill:#333333;" width="1.5" height="6"/>
<path style="fill:#333333;" d="M12,16.75c-3.968,0-8.25-3.154-8.25-8.25c0-1.452,0.499-3.582,0.52-3.672l0.157-0.667l3.808,0.544
	L12,0.939l3.766,3.765l3.807-0.544l0.157,0.667c0.021,0.09,0.521,2.221,0.521,3.672C20.25,13.596,15.968,16.75,12,16.75z
	 M5.587,5.841C5.446,6.551,5.25,7.681,5.25,8.5c0,4.656,3.947,6.75,6.75,6.75s6.75-2.094,6.75-6.75c0-0.819-0.195-1.949-0.337-2.659
	l-3.179,0.454L12,3.061L8.765,6.295L5.587,5.841z"/>
</svg>






