<?xml version="1.0" encoding="iso-8859-1"?>
<svg version="1.1" id="&#x56FE;&#x5C42;_1" xmlns="http://www.w3.org/2000/svg" xmlns:xlink="http://www.w3.org/1999/xlink" x="0px"
	 y="0px" viewBox="0 0 24 24" style="enable-background:new 0 0 24 24;" xml:space="preserve">
<path style="fill:#333333;" d="M8.502,21.748c-0.406,0-0.766-0.054-1.051-0.135c-1.498-0.438-2.092-1.332-2.328-2.006
	c-0.492-1.407,0.107-2.993,0.639-4.002c-2.326-0.577-3.43-1.571-3.953-2.354c-0.486-0.727-0.668-1.561-0.499-2.287
	C1.586,9.592,2.281,8.591,3.37,8.01C4.675,7.314,6.322,7.375,7.72,7.733C7.608,5.855,8.003,4.407,8.901,3.42
	c0.717-0.79,1.752-1.236,2.775-1.165l0,0c1.509,0.088,2.71,0.706,3.476,1.786c0.767,1.082,1.002,2.518,0.919,3.744
	c2.331-0.511,3.835-0.086,4.721,0.408c0.936,0.521,1.632,1.379,1.862,2.294c0.234,1.234,0.008,2.302-0.645,3.133
	c-0.631,0.802-1.577,1.288-2.499,1.539c1.04,1.569,1.414,2.976,1.11,4.188c-0.226,0.902-0.853,1.651-1.676,2.002
	c-3.034,0.84-5.066-0.576-6.137-1.993C11.499,21.221,9.774,21.748,8.502,21.748z M5.741,8.976c-0.61,0-1.193,0.105-1.666,0.357
	c-0.684,0.365-1.109,1.002-1.299,1.949c-0.062,0.269-0.017,0.691,0.28,1.136c0.611,0.913,2.039,1.598,4.02,1.925l1.179,0.195
	l-0.689,0.977C6.832,16.56,6.196,18.13,6.54,19.112c0.176,0.504,0.61,0.85,1.327,1.06c0.916,0.26,2.994,0.048,4.259-2.621
	l1.37,0.034c0.479,1.154,2.137,3.132,4.957,2.352c0.053-0.03,0.547-0.287,0.714-0.952c0.24-0.96-0.316-2.344-1.566-3.895l0.545-1.22
	c0.914-0.048,2.099-0.43,2.686-1.178c0.389-0.493,0.506-1.109,0.359-1.883c-0.091-0.359-0.443-0.925-1.128-1.306
	c-0.764-0.426-2.199-0.768-4.691,0.023l-0.948-0.922c0.237-0.824,0.312-2.557-0.493-3.696c-0.5-0.706-1.287-1.094-2.339-1.156h0
	c-0.215-0.011-0.963,0-1.578,0.676C9.263,5.252,9.028,6.728,9.333,8.697L8.305,9.504C7.553,9.193,6.618,8.976,5.741,8.976z"/>
<rect x="9.899" y="13.5" transform="matrix(0.625 -0.7806 0.7806 0.625 -6.8114 14.3207)" style="fill:#333333;" width="3.202" height="1.5"/>
<rect x="10.25" y="11.229" transform="matrix(0.1644 -0.9864 0.9864 0.1644 -3.3848 21.5047)" style="fill:#333333;" width="1.501" height="3.041"/>
<rect x="11.5" y="9.482" transform="matrix(0.99 -0.1414 0.1414 0.99 -1.4677 1.8452)" style="fill:#333333;" width="1.5" height="3.536"/>
<rect x="12.419" y="11.75" transform="matrix(0.9487 -0.3162 0.3162 0.9487 -3.2345 5.0687)" style="fill:#333333;" width="3.162" height="1.501"/>
<rect x="13" y="12.399" transform="matrix(0.6247 -0.7809 0.7809 0.6247 -5.7717 15.9912)" style="fill:#333333;" width="1.501" height="3.202"/>
</svg>






