<?xml version="1.0" encoding="iso-8859-1"?>
<svg version="1.1" id="&#x56FE;&#x5C42;_1" xmlns="http://www.w3.org/2000/svg" xmlns:xlink="http://www.w3.org/1999/xlink" x="0px"
	 y="0px" viewBox="0 0 24 24" style="enable-background:new 0 0 24 24;" xml:space="preserve">
<path style="fill:#333333;" d="M20.5,7.75h-17C2.535,7.75,1.75,6.965,1.75,6V4c0-0.965,0.785-1.75,1.75-1.75h17
	c0.965,0,1.75,0.785,1.75,1.75v2C22.25,6.965,21.465,7.75,20.5,7.75z M3.5,3.75C3.362,3.75,3.25,3.862,3.25,4v2
	c0,0.138,0.112,0.25,0.25,0.25h17c0.138,0,0.25-0.112,0.25-0.25V4c0-0.138-0.112-0.25-0.25-0.25H3.5z"/>
<path style="fill:#333333;" d="M19,21.75H5c-0.965,0-1.75-0.785-1.75-1.75V7h1.5v13c0,0.138,0.112,0.25,0.25,0.25h14
	c0.138,0,0.25-0.112,0.25-0.25V7h1.5v13C20.75,20.965,19.965,21.75,19,21.75z"/>
<path style="fill:#333333;" d="M12,18.75c-2.343,0-4.25-1.892-4.25-4.217c0-1.325,0.535-2.176,1.052-2.999
	c0.342-0.544,0.665-1.059,0.862-1.743L9.9,8.973l0.783,0.339c1.27,0.55,1.92,1.6,2.254,2.54c0.395-0.359,0.911-0.682,1.574-0.846
	l0.848-0.21l0.08,0.869c0.062,0.673,0.254,1.1,0.439,1.513c0.183,0.404,0.371,0.822,0.371,1.355C16.25,16.858,14.344,18.75,12,18.75
	z M10.756,11.129c-0.214,0.455-0.459,0.844-0.685,1.204c-0.459,0.73-0.822,1.308-0.822,2.2c0,1.498,1.233,2.717,2.75,2.717
	s2.75-1.219,2.75-2.717c0-0.201-0.086-0.402-0.238-0.739c-0.118-0.263-0.263-0.583-0.379-0.986c-0.627,0.456-0.872,1.133-0.886,1.17
	l-1.459-0.244C11.788,13.716,11.763,12.076,10.756,11.129z"/>
</svg>






