<?xml version="1.0" encoding="iso-8859-1"?>
<svg version="1.1" id="&#x56FE;&#x5C42;_1" xmlns="http://www.w3.org/2000/svg" xmlns:xlink="http://www.w3.org/1999/xlink" x="0px"
	 y="0px" viewBox="0 0 24 24" style="enable-background:new 0 0 24 24;" xml:space="preserve">
<path style="fill:#333333;" d="M4.75,20h-1.5V5c0-2.068,1.772-3.75,3.95-3.75h13.55v17.5H7.2C4.75,18.75,4.75,19.04,4.75,20z
	 M7.2,2.75C5.849,2.75,4.75,3.759,4.75,5v12.515c0.666-0.229,1.512-0.265,2.45-0.265h12.05V2.75H7.2z"/>
<path style="fill:#333333;" d="M20.75,22.75H6c-1.517,0-2.75-1.233-2.75-2.75S4.483,17.25,6,17.25h14.75V22.75z M6,18.75
	c-0.689,0-1.25,0.561-1.25,1.25S5.311,21.25,6,21.25h13.25v-2.5H6z"/>
</svg>






