<?xml version="1.0" encoding="iso-8859-1"?>
<svg version="1.1" id="&#x56FE;&#x5C42;_1" xmlns="http://www.w3.org/2000/svg" xmlns:xlink="http://www.w3.org/1999/xlink" x="0px"
	 y="0px" viewBox="0 0 24 24" style="enable-background:new 0 0 24 24;" xml:space="preserve">
<path style="fill:#333333;" d="M12.75,21h-1.5c0-1.24-1.009-2.25-2.25-2.25H1.75v-16H8c2.619,0,4.75,2.131,4.75,4.75V21z
	 M3.25,17.25H9c0.843,0,1.623,0.28,2.25,0.752V7.5c0-1.792-1.458-3.25-3.25-3.25H3.25V17.25z"/>
<path style="fill:#333333;" d="M12.75,21h-1.5V7.5c0-2.619,2.131-4.75,4.75-4.75h6.25v16H15C13.76,18.75,12.75,19.76,12.75,21z
	 M16,4.25c-1.792,0-3.25,1.458-3.25,3.25v10.502c0.627-0.472,1.406-0.752,2.25-0.752h5.75v-13H16z"/>
</svg>






