<?xml version="1.0" encoding="iso-8859-1"?>
<svg version="1.1" id="&#x56FE;&#x5C42;_1" xmlns="http://www.w3.org/2000/svg" xmlns:xlink="http://www.w3.org/1999/xlink" x="0px"
	 y="0px" viewBox="0 0 24 24" style="enable-background:new 0 0 24 24;" xml:space="preserve">
<path style="fill:#333333;" d="M19.677,10.75H2.5L2.165,9.329C2.225,9.298,3.75,8.483,3.75,6.5S2.225,3.702,2.16,3.668L2.5,2.25
	h17.177l0.158,0.079C19.934,2.378,22.25,3.57,22.25,6.5s-2.316,4.122-2.415,4.171L19.677,10.75z M4.407,9.25h14.891
	c0.383-0.248,1.452-1.09,1.452-2.75c0-1.657-1.065-2.499-1.453-2.75H4.407C4.868,4.406,5.25,5.31,5.25,6.5S4.868,8.594,4.407,9.25z"
	/>
<path style="fill:#333333;" d="M21.5,21.75H4.323l-0.158-0.079C4.066,21.621,1.75,20.43,1.75,17.5s2.316-4.121,2.415-4.171
	l0.158-0.079H21.5l0.341,1.418c-0.065,0.034-1.591,0.849-1.591,2.832s1.525,2.798,1.591,2.832L21.5,21.75z M4.703,20.25h14.89
	c-0.461-0.656-0.843-1.56-0.843-2.75s0.382-2.094,0.843-2.75H4.703C4.319,14.998,3.25,15.84,3.25,17.5
	C3.25,19.157,4.315,19.998,4.703,20.25z"/>
</svg>






