<?xml version="1.0" encoding="iso-8859-1"?>
<svg version="1.1" id="&#x56FE;&#x5C42;_1" xmlns="http://www.w3.org/2000/svg" xmlns:xlink="http://www.w3.org/1999/xlink" x="0px"
	 y="0px" viewBox="0 0 24 24" style="enable-background:new 0 0 24 24;" xml:space="preserve">
<path style="fill:#333333;" d="M21.25,21.75H5c-1.241,0-2.25-1.01-2.25-2.25v-15c0-1.241,1.009-2.25,2.25-2.25h16.25V21.75z M5,3.75
	c-0.414,0-0.75,0.336-0.75,0.75v15c0,0.413,0.336,0.75,0.75,0.75h14.75V3.75H5z"/>
<rect x="3.5" y="16.25" style="fill:#333333;" width="17" height="1.5"/>
<rect x="2.75" y="15" style="fill:#333333;" width="1.5" height="4"/>
<rect x="19.75" y="15" style="fill:#333333;" width="1.5" height="4"/>
<path style="fill:#333333;" d="M12.031,13.586L10,11.96l-2.031,1.625L6.75,13V2.25h6.5V13L12.031,13.586z M10,10.04l1.75,1.4V3.75
	h-3.5v7.689L10,10.04z"/>
<rect x="5.5" y="2.25" style="fill:#333333;" width="9" height="1.5"/>
</svg>






