<?xml version="1.0" encoding="iso-8859-1"?>
<svg version="1.1" id="&#x56FE;&#x5C42;_1" xmlns="http://www.w3.org/2000/svg" xmlns:xlink="http://www.w3.org/1999/xlink" x="0px"
	 y="0px" viewBox="0 0 24 24" style="enable-background:new 0 0 24 24;" xml:space="preserve">
<path style="fill:#333333;" d="M4.25,18.5h-1.5v-13c0-2.068,1.682-3.75,3.75-3.75h11.75v14.5H6.5C5.259,16.25,4.25,17.26,4.25,18.5z
	 M6.5,3.25c-1.241,0-2.25,1.009-2.25,2.25v10.002C4.877,15.03,5.657,14.75,6.5,14.75h10.25V3.25H6.5z"/>
<path style="fill:#333333;" d="M21.25,22.25H6.5c-2.068,0-3.75-1.683-3.75-3.75s1.682-3.75,3.75-3.75h11v1.5h-11
	c-1.241,0-2.25,1.01-2.25,2.25s1.009,2.25,2.25,2.25h13.25V3.5h1.5V22.25z"/>
<rect x="7" y="17.75" style="fill:#333333;" width="10" height="1.5"/>
</svg>






