<?xml version="1.0" encoding="iso-8859-1"?>
<svg version="1.1" id="&#x56FE;&#x5C42;_1" xmlns="http://www.w3.org/2000/svg" xmlns:xlink="http://www.w3.org/1999/xlink" x="0px"
	 y="0px" viewBox="0 0 24 24" style="enable-background:new 0 0 24 24;" xml:space="preserve">
<path style="fill:#333333;" d="M19.5,8.169c-0.756,0-1.512-0.202-2.187-0.607L17,7.375l-0.313,0.188c-1.348,0.81-3.023,0.81-4.373,0
	L12,7.375l-0.313,0.188c-1.35,0.81-3.025,0.809-4.373,0L7,7.375L6.687,7.562c-1.349,0.81-3.025,0.809-4.373,0L1.25,6.925V1.75h21.5
	v5.175l-1.063,0.638C21.013,7.967,20.256,8.169,19.5,8.169z M17,5.625l1.085,0.651c0.873,0.523,1.957,0.523,2.83,0l0.335-0.201V3.25
	H2.75v2.825l0.335,0.201c0.873,0.523,1.957,0.523,2.83,0L7,5.625l1.085,0.651c0.873,0.523,1.957,0.523,2.83,0L12,5.625l1.085,0.651
	c0.873,0.523,1.957,0.523,2.83,0L17,5.625z"/>
<path style="fill:#333333;" d="M21.75,22.25H2.25v-10.5h19.5V22.25z M3.75,20.75h16.5v-7.5H3.75V20.75z"/>
<rect x="3.75" y="8" style="fill:#333333;" width="1.5" height="4.5"/>
<rect x="18.75" y="8" style="fill:#333333;" width="1.5" height="4.5"/>
</svg>






