<?xml version="1.0" encoding="iso-8859-1"?>
<svg version="1.1" id="&#x56FE;&#x5C42;_1" xmlns="http://www.w3.org/2000/svg" xmlns:xlink="http://www.w3.org/1999/xlink" x="0px"
	 y="0px" viewBox="0 0 24 24" style="enable-background:new 0 0 24 24;" xml:space="preserve">
<path style="fill:#333333;" d="M18.75,22.75H5.25V8.25h13.5V22.75z M6.75,21.25h10.5V9.75H6.75V21.25z"/>
<path style="fill:#333333;" d="M17.689,9.75H6.311l1.024-3.11c0.372-1.13,1.422-1.89,2.612-1.89h4.105c1.19,0,2.24,0.76,2.612,1.891
	L17.689,9.75z M8.384,8.25h7.231L15.24,7.109c-0.169-0.514-0.646-0.859-1.188-0.859H9.947c-0.541,0-1.019,0.345-1.188,0.859
	L8.384,8.25z"/>
<path style="fill:#333333;" d="M14.25,5.5h-1.5v-2c0-0.414-0.337-0.75-0.75-0.75c-0.414,0-0.75,0.336-0.75,0.75v2h-1.5v-2
	c0-1.241,1.009-2.25,2.25-2.25c1.24,0,2.25,1.009,2.25,2.25V5.5z"/>
<rect x="8.5" y="13" style="fill:#333333;" width="1.5" height="5"/>
</svg>






