<?xml version="1.0" encoding="iso-8859-1"?>
<svg version="1.1" id="&#x56FE;&#x5C42;_1" xmlns="http://www.w3.org/2000/svg" xmlns:xlink="http://www.w3.org/1999/xlink" x="0px"
	 y="0px" viewBox="0 0 24 24" style="enable-background:new 0 0 24 24;" xml:space="preserve">
<path style="fill:#333333;" d="M15.5,22.75h-7c-0.965,0-1.75-0.785-1.75-1.75V10.78c0-1.878,0.951-3.651,2.5-4.695V1.25h5.5v4.834
	c1.549,1.044,2.5,2.817,2.5,4.695V21C17.25,21.965,16.465,22.75,15.5,22.75z M10.75,2.75v3.614c0,0.345-0.184,0.67-0.479,0.848
	C9.024,7.96,8.25,9.327,8.25,10.78V21c0,0.138,0.112,0.25,0.25,0.25h7c0.138,0,0.25-0.112,0.25-0.25V10.78
	c0-1.453-0.773-2.819-2.02-3.567c-0.297-0.178-0.48-0.503-0.48-0.849V2.75H10.75z"/>
<rect x="10" y="4.25" style="fill:#333333;" width="4" height="1.5"/>
<polygon style="fill:#333333;" points="16.5,19.75 11.25,19.75 11.25,10.75 16.5,10.75 16.5,12.25 12.75,12.25 12.75,18.25 
	16.5,18.25 "/>
<rect x="15.75" y="10.5" style="fill:#333333;" width="1.5" height="9.5"/>
<rect x="9.25" y="4" style="fill:#333333;" width="1.5" height="2"/>
<rect x="13.25" y="4" style="fill:#333333;" width="1.5" height="2"/>
</svg>






