<?xml version="1.0" encoding="iso-8859-1"?>
<svg version="1.1" id="&#x56FE;&#x5C42;_1" xmlns="http://www.w3.org/2000/svg" xmlns:xlink="http://www.w3.org/1999/xlink" x="0px"
	 y="0px" viewBox="0 0 24 24" style="enable-background:new 0 0 24 24;" xml:space="preserve">
<path style="fill:#333333;" d="M17.25,22.75H6.75V10.396l3.402-6.146h3.697l3.401,6.146V22.75z M8.25,21.25h7.5V10.784L12.964,5.75
	h-1.928L8.25,10.784V21.25z"/>
<path style="fill:#333333;" d="M14.75,5.75h-5.5v-4.5h5.5V5.75z M10.75,4.25h2.5v-1.5h-2.5V4.25z"/>
<path style="fill:#333333;" d="M12,18.25c-1.241,0-2.25-1.01-2.25-2.25v-3c0-1.241,1.009-2.25,2.25-2.25
	c1.24,0,2.25,1.009,2.25,2.25v3C14.25,17.24,13.24,18.25,12,18.25z M12,12.25c-0.414,0-0.75,0.337-0.75,0.75v3
	c0,0.413,0.336,0.75,0.75,0.75c0.413,0,0.75-0.337,0.75-0.75v-3C12.75,12.587,12.413,12.25,12,12.25z"/>
</svg>






