<?xml version="1.0" encoding="iso-8859-1"?>
<svg version="1.1" id="&#x56FE;&#x5C42;_1" xmlns="http://www.w3.org/2000/svg" xmlns:xlink="http://www.w3.org/1999/xlink" x="0px"
	 y="0px" viewBox="0 0 24 24" style="enable-background:new 0 0 24 24;" xml:space="preserve">
<path style="fill:#333333;" d="M9.385,22.53H6.071l-0.165-0.09c-0.135-0.074-3.321-1.857-3.321-5.542
	c0-3.547,3.486-7.212,3.634-7.367l0.217-0.226H9.02l0.217,0.226c0.148,0.154,3.633,3.82,3.633,7.367c0,3.685-3.185,5.468-3.32,5.542
	L9.385,22.53z M6.463,21.062h2.53c0.55-0.354,2.408-1.728,2.408-4.163c0-2.512-2.309-5.319-3.019-6.123h-1.31
	c-0.71,0.804-3.019,3.611-3.019,6.123C4.054,19.332,5.91,20.706,6.463,21.062z"/>
<path style="fill:#333333;" d="M8.958,10.776H6.497l-0.214-0.355c-0.071-0.118-1.738-2.907-1.738-5.278
	c0-2.524,1.65-3.674,3.184-3.674c1.534,0,3.184,1.15,3.184,3.674c0,2.371-1.668,5.16-1.739,5.278L8.958,10.776z M7.341,9.306h0.772
	c0.414-0.769,1.328-2.64,1.328-4.163c0-2.143-1.539-2.204-1.714-2.204S6.014,3,6.014,5.143C6.014,6.667,6.927,8.538,7.341,9.306z"/>
<path style="fill:#333333;" d="M18.201,22.53h-3.314l-0.165-0.09c-0.136-0.074-3.321-1.857-3.321-5.542
	c0-3.547,3.486-7.212,3.634-7.367l0.217-0.226h2.584l0.217,0.226c0.148,0.154,3.634,3.82,3.634,7.367
	c0,3.685-3.185,5.468-3.32,5.542L18.201,22.53z M15.279,21.062h2.53c0.55-0.354,2.408-1.728,2.408-4.163
	c0-2.512-2.309-5.319-3.02-6.123H15.89c-0.711,0.804-3.02,3.611-3.02,6.123C12.87,19.322,14.736,20.709,15.279,21.062z"/>
<path style="fill:#333333;" d="M17.775,10.776h-2.463l-0.214-0.355c-0.071-0.118-1.738-2.907-1.738-5.278
	c0-2.524,1.65-3.674,3.184-3.674s3.184,1.15,3.184,3.674c0,2.371-1.667,5.16-1.738,5.278L17.775,10.776z M16.157,9.306h0.773
	c0.414-0.769,1.328-2.64,1.328-4.163c0-2.143-1.539-2.204-1.715-2.204S14.829,3,14.829,5.143
	C14.829,6.667,15.743,8.538,16.157,9.306z"/>
</svg>






