<?xml version="1.0" encoding="iso-8859-1"?>
<svg version="1.1" id="&#x56FE;&#x5C42;_1" xmlns="http://www.w3.org/2000/svg" xmlns:xlink="http://www.w3.org/1999/xlink" x="0px"
	 y="0px" viewBox="0 0 24 24" style="enable-background:new 0 0 24 24;" xml:space="preserve">
<path style="fill:#333333;" d="M15.5,22.75h-7c-0.965,0-1.75-0.785-1.75-1.75v-6c0-1.128,0.373-2.247,1.05-3.15l1.8-2.4
	C9.698,9.319,9.75,9.163,9.75,9V1.25h4.5V9c0,0.163,0.052,0.319,0.15,0.451l1.799,2.399c0.678,0.902,1.051,2.021,1.051,3.15v6
	C17.25,21.965,16.465,22.75,15.5,22.75z M11.25,2.75V9c0,0.483-0.16,0.962-0.449,1.349L9,12.75C8.517,13.396,8.25,14.194,8.25,15v6
	c0,0.138,0.112,0.25,0.25,0.25h7c0.138,0,0.25-0.112,0.25-0.25v-6c0-0.807-0.267-1.605-0.75-2.25l-1.8-2.4
	C12.909,9.962,12.75,9.483,12.75,9V2.75H11.25z"/>
<rect x="10.5" y="4.25" style="fill:#333333;" width="3" height="1.5"/>
<rect x="9.75" y="4" style="fill:#333333;" width="1.5" height="2"/>
<rect x="12.75" y="4" style="fill:#333333;" width="1.5" height="2"/>
</svg>






