<?xml version="1.0" encoding="iso-8859-1"?>
<svg version="1.1" id="&#x56FE;&#x5C42;_1" xmlns="http://www.w3.org/2000/svg" xmlns:xlink="http://www.w3.org/1999/xlink" x="0px"
	 y="0px" viewBox="0 0 24 24" style="enable-background:new 0 0 24 24;" xml:space="preserve">
<path style="fill:#333333;" d="M16.75,22.75H7.248l0.007-2.23c-0.224-0.125-0.446-0.262-0.664-0.406
	c-0.534-0.357-1.034-0.768-1.485-1.219C3.264,17.053,2.25,14.604,2.25,12v-0.75h19.5V12c0,2.604-1.014,5.052-2.855,6.895
	c-0.451,0.45-0.946,0.856-1.471,1.209c-0.218,0.146-0.443,0.284-0.674,0.413c0,0.569,0,1.483,0,1.483V22.75z M8.752,21.25h6.498
	c0.001-1.307,0.006-1.321,0.039-1.423l0.099-0.295l0.278-0.139c0.318-0.159,0.629-0.339,0.922-0.536
	c0.445-0.298,0.864-0.643,1.247-1.024c1.379-1.38,2.21-3.163,2.382-5.083H3.783c0.172,1.921,1.003,3.704,2.383,5.084
	c0.382,0.382,0.806,0.729,1.258,1.032c0.298,0.198,0.606,0.377,0.914,0.528l0.419,0.207L8.752,21.25z"/>
<rect x="11.25" y="4" style="fill:#333333;" width="1.5" height="5.004"/>
<rect x="17.25" y="6" style="fill:#333333;" width="1.5" height="3.004"/>
<rect x="5.25" y="6" style="fill:#333333;" width="1.5" height="3.004"/>
<path style="fill:#333333;" d="M18.75,6h-1.5c0-1.517,1.233-2.75,2.75-2.75v1.5C19.311,4.75,18.75,5.311,18.75,6z"/>
<path style="fill:#333333;" d="M12.75,4h-1.5c0-1.517,1.233-2.75,2.75-2.75v1.5C13.311,2.75,12.75,3.311,12.75,4z"/>
<path style="fill:#333333;" d="M6.75,6h-1.5c0-1.517,1.233-2.75,2.75-2.75v1.5C7.311,4.75,6.75,5.311,6.75,6z"/>
</svg>






