<?xml version="1.0" encoding="iso-8859-1"?>
<svg version="1.1" id="&#x56FE;&#x5C42;_1" xmlns="http://www.w3.org/2000/svg" xmlns:xlink="http://www.w3.org/1999/xlink" x="0px"
	 y="0px" viewBox="0 0 24 24" style="enable-background:new 0 0 24 24;" xml:space="preserve">
<path style="fill:#333333;" d="M12,20.25c-5.273,0-9.25-3.977-9.25-9.25v-0.75h18.5V11C21.25,16.273,17.273,20.25,12,20.25z
	 M4.283,11.75c0.354,4.04,3.553,7,7.717,7c4.164,0,7.363-2.96,7.718-7H4.283z"/>
<polygon style="fill:#333333;" points="17.041,22.75 6.959,22.75 8.289,18.763 9.711,19.237 9.041,21.25 14.959,21.25 
	14.288,19.237 15.712,18.763 "/>
<rect x="5.25" y="5" style="fill:#333333;" width="1.5" height="2"/>
<rect x="17.25" y="5" style="fill:#333333;" width="1.5" height="2"/>
<rect x="11.25" y="2.5" style="fill:#333333;" width="1.5" height="4.5"/>
</svg>






