<?xml version="1.0" encoding="iso-8859-1"?>
<svg version="1.1" id="&#x56FE;&#x5C42;_1" xmlns="http://www.w3.org/2000/svg" xmlns:xlink="http://www.w3.org/1999/xlink" x="0px"
	 y="0px" viewBox="0 0 24 24" style="enable-background:new 0 0 24 24;" xml:space="preserve">
<path style="fill:#333333;" d="M12.136,22.53C6.329,22.53,1.605,17.807,1.605,12S6.329,1.469,12.136,1.469S22.666,6.193,22.666,12
	S17.942,22.53,12.136,22.53z M12.136,2.939c-4.997,0-9.061,4.064-9.061,9.061c0,4.996,4.064,9.062,9.061,9.062
	c4.996,0,9.062-4.065,9.062-9.062C21.197,7.003,17.132,2.939,12.136,2.939z"/>
<path style="fill:#333333;" d="M12.136,12.98c0.813,0,1.469-0.656,1.469-1.469c0-0.813-0.656-1.469-1.469-1.469
	c-0.813,0-1.469,0.656-1.469,1.469C10.666,12.323,11.323,12.98,12.136,12.98z"/>
<path style="fill:#333333;" d="M15.564,9.061c0.813,0,1.469-0.656,1.469-1.469s-0.656-1.469-1.469-1.469
	c-0.813,0-1.469,0.656-1.469,1.469S14.751,9.061,15.564,9.061z"/>
<path style="fill:#333333;" d="M8.707,9.061c0.813,0,1.469-0.656,1.469-1.469S9.52,6.122,8.707,6.122
	c-0.813,0-1.469,0.656-1.469,1.469S7.894,9.061,8.707,9.061z"/>
</svg>






