<?xml version="1.0" encoding="iso-8859-1"?>
<svg version="1.1" id="&#x56FE;&#x5C42;_1" xmlns="http://www.w3.org/2000/svg" xmlns:xlink="http://www.w3.org/1999/xlink" x="0px"
	 y="0px" viewBox="0 0 24 24" style="enable-background:new 0 0 24 24;" xml:space="preserve">
<path style="fill:#333333;" d="M20,21.75H4c-0.965,0-1.75-0.785-1.75-1.75V7c0-0.965,0.785-1.75,1.75-1.75h16
	c0.965,0,1.75,0.785,1.75,1.75v13C21.75,20.965,20.965,21.75,20,21.75z M4,6.75C3.862,6.75,3.75,6.862,3.75,7v13
	c0,0.138,0.112,0.25,0.25,0.25h16c0.138,0,0.25-0.112,0.25-0.25V7c0-0.138-0.112-0.25-0.25-0.25H4z"/>
<rect x="8.975" y="11.254" style="fill:#333333;" width="6" height="1.5"/>
<polygon style="fill:#333333;" points="20.436,6.994 17.16,3.25 6.84,3.25 3.564,6.994 2.436,6.006 6.16,1.75 17.84,1.75 
	21.564,6.006 "/>
</svg>






