<?xml version="1.0" encoding="iso-8859-1"?>
<svg version="1.1" id="&#x56FE;&#x5C42;_1" xmlns="http://www.w3.org/2000/svg" xmlns:xlink="http://www.w3.org/1999/xlink" x="0px"
	 y="0px" viewBox="0 0 24 24" style="enable-background:new 0 0 24 24;" xml:space="preserve">
<path style="fill:#333333;" d="M18,18.75H6c-2.068,0-3.75-1.683-3.75-3.75v-4.5c0-1.792,1.458-3.25,3.25-3.25h2
	c1.792,0,3.25,1.458,3.25,3.25s-1.458,3.25-3.25,3.25h-1v-1.5h1c0.965,0,1.75-0.785,1.75-1.75S8.465,8.75,7.5,8.75h-2
	c-0.965,0-1.75,0.785-1.75,1.75V15c0,1.24,1.009,2.25,2.25,2.25h12c1.24,0,2.25-1.01,2.25-2.25v-2c0-0.689-0.561-1.25-1.25-1.25h-7
	v-1.5h7c1.517,0,2.75,1.233,2.75,2.75v2C21.75,17.067,20.067,18.75,18,18.75z"/>
<path style="fill:#333333;" d="M17,22.75H7c-0.965,0-1.75-0.785-1.75-1.75v-3L6,17.25h12L18.75,18v3
	C18.75,21.965,17.965,22.75,17,22.75z M6.75,18.75V21c0,0.138,0.112,0.25,0.25,0.25h10c0.136,0,0.25-0.114,0.25-0.25v-2.25H6.75z"/>
<path style="fill:#333333;" d="M19,11.75H9.95v-1.5H19c1.24,0,2.25-1.009,2.25-2.25V6c0-1.792-1.458-3.25-3.25-3.25H6
	C4.208,2.75,2.75,4.208,2.75,6v2c0,0.643,0.267,1.188,0.404,1.288C3.14,9.277,3.083,9.25,3,9.25v1.5c-1.047,0-1.75-1.422-1.75-2.75
	V6c0-2.619,2.131-4.75,4.75-4.75h12c2.619,0,4.75,2.131,4.75,4.75v2C22.75,10.068,21.067,11.75,19,11.75z"/>
</svg>






