<?xml version="1.0" encoding="iso-8859-1"?>
<svg version="1.1" id="&#x56FE;&#x5C42;_1" xmlns="http://www.w3.org/2000/svg" xmlns:xlink="http://www.w3.org/1999/xlink" x="0px"
	 y="0px" viewBox="0 0 24 24" style="enable-background:new 0 0 24 24;" xml:space="preserve">
<path style="fill:#333333;" d="M18,22.75H8.5c-0.965,0-1.75-0.785-1.75-1.75v-3h1.5v3c0,0.138,0.112,0.25,0.25,0.25H18
	c0.138,0,0.25-0.112,0.25-0.25v-3h1.5v3C19.75,21.965,18.965,22.75,18,22.75z"/>
<path style="fill:#333333;" d="M19.003,18.75H7.5c-3.872,0-6.25-4.223-6.25-7.25v-4L2,6.75h2.75V5c0-2.068,1.682-3.75,3.75-3.75H19
	c2.067,0,3.75,1.682,3.75,3.75v10C22.75,17.067,21.069,18.75,19.003,18.75z M2.75,8.25v3.25c0,2.007,1.631,5.75,4.75,5.75h11.503
	c1.239,0,2.247-1.01,2.247-2.25V5c0-1.241-1.01-2.25-2.25-2.25H8.5C7.259,2.75,6.25,3.759,6.25,5v2.5L5.5,8.25H2.75z"/>
<rect x="4.75" y="7" style="fill:#333333;" width="1.5" height="4"/>
</svg>






