<?xml version="1.0" encoding="iso-8859-1"?>
<svg version="1.1" id="&#x56FE;&#x5C42;_1" xmlns="http://www.w3.org/2000/svg" xmlns:xlink="http://www.w3.org/1999/xlink" x="0px"
	 y="0px" viewBox="0 0 24 24" style="enable-background:new 0 0 24 24;" xml:space="preserve">
<path style="fill:#333333;" d="M12,9.75c-2.343,0-4.25-1.907-4.25-4.25S9.657,1.25,12,1.25c2.344,0,4.25,1.907,4.25,4.25
	S14.344,9.75,12,9.75z M12,2.75c-1.517,0-2.75,1.233-2.75,2.75S10.483,8.25,12,8.25s2.75-1.233,2.75-2.75S13.517,2.75,12,2.75z"/>
<path style="fill:#333333;" d="M13.907,22.75h-3.814L3.371,12.409L4,11.25h16l0.629,1.159L13.907,22.75z M10.907,21.25h2.186
	l5.525-8.5H5.382L10.907,21.25z"/>
</svg>






