<?xml version="1.0" encoding="iso-8859-1"?>
<svg version="1.1" id="&#x56FE;&#x5C42;_1" xmlns="http://www.w3.org/2000/svg" xmlns:xlink="http://www.w3.org/1999/xlink" x="0px"
	 y="0px" viewBox="0 0 24 24" style="enable-background:new 0 0 24 24;" xml:space="preserve">
<path style="fill:#333333;" d="M18.508,17.75H6.665l-1.625-6.5h16.068L18.508,17.75z M7.835,16.25h9.657l1.4-3.5H6.96L7.835,16.25z"
	/>
<polygon style="fill:#333333;" points="5.314,12.305 3.513,8.25 1.75,8.25 1.75,6.75 4.487,6.75 6.686,11.695 "/>
<path style="fill:#333333;" d="M10,22.75c-1.241,0-2.25-1.01-2.25-2.25s1.009-2.25,2.25-2.25s2.25,1.01,2.25,2.25
	S11.241,22.75,10,22.75z M10,19.75c-0.414,0-0.75,0.337-0.75,0.75s0.336,0.75,0.75,0.75s0.75-0.337,0.75-0.75S10.414,19.75,10,19.75
	z"/>
<path style="fill:#333333;" d="M15.5,22.75c-1.24,0-2.25-1.01-2.25-2.25s1.01-2.25,2.25-2.25s2.25,1.01,2.25,2.25
	S16.74,22.75,15.5,22.75z M15.5,19.75c-0.413,0-0.75,0.337-0.75,0.75s0.337,0.75,0.75,0.75s0.75-0.337,0.75-0.75
	S15.913,19.75,15.5,19.75z"/>
<path style="fill:#333333;" d="M20.525,12.75h-4.964L10.46,3.681l0.704-0.352c0.202-0.101,0.423-0.218,0.661-0.343
	C13.218,2.254,15.124,1.25,17,1.25c1.722,0,3.788,2.471,5.59,4.787l0.255,0.327L20.525,12.75z M16.438,11.25h3.036l1.679-4.616
	C20.167,5.376,18.031,2.75,17,2.75c-1.501,0-3.213,0.899-4.466,1.559L16.438,11.25z"/>
<rect x="14.75" y="2.234" transform="matrix(0.8682 -0.4961 0.4961 0.8682 -0.0664 8.2501)" style="fill:#333333;" width="1.5" height="4.031"/>
</svg>






