<?xml version="1.0" encoding="iso-8859-1"?>
<svg version="1.1" id="&#x56FE;&#x5C42;_1" xmlns="http://www.w3.org/2000/svg" xmlns:xlink="http://www.w3.org/1999/xlink" x="0px"
	 y="0px" viewBox="0 0 24 24" style="enable-background:new 0 0 24 24;" xml:space="preserve">
<path style="fill:#333333;" d="M12,8.75C9.932,8.75,8.25,7.068,8.25,5S9.932,1.25,12,1.25c2.067,0,3.75,1.682,3.75,3.75
	S14.067,8.75,12,8.75z M12,2.75c-1.241,0-2.25,1.009-2.25,2.25S10.759,7.25,12,7.25c1.24,0,2.25-1.009,2.25-2.25S13.24,2.75,12,2.75
	z"/>
<path style="fill:#333333;" d="M16.25,22h-1.5v-4.925l2.36-1.416l-1.751-5.691C14.848,9.627,13.393,8.75,12,8.75
	c-1.4,0-2.862,0.887-3.367,1.223l-1.756,5.268L9.25,17.14V22h-1.5v-4.14l-2.627-2.102l2.24-6.718L7.55,8.9
	C7.64,8.833,9.775,7.25,12,7.25s4.36,1.583,4.45,1.65l0.195,0.146l2.244,7.294l-2.64,1.584V22z"/>
</svg>






