<?xml version="1.0" encoding="iso-8859-1"?>
<svg version="1.1" id="&#x56FE;&#x5C42;_1" xmlns="http://www.w3.org/2000/svg" xmlns:xlink="http://www.w3.org/1999/xlink" x="0px"
	 y="0px" viewBox="0 0 24 24" style="enable-background:new 0 0 24 24;" xml:space="preserve">
<path style="fill:#333333;" d="M15.937,22.504c-1.201-1.325-2.479-2.994-1.683-4.152l0.175-0.254l0.303-0.058
	c4.026-0.768,6.519-4.335,6.519-7.201c0-3.127-2.186-8.089-8.051-8.089c-3.864,0-6.034,1.658-6.632,5.069l-0.065,0.37L6.168,8.358
	c-1.5,0.762-2.375,1.239-2.886,1.536c0.684,0.422,1.611,1.184,1.137,2.386c-0.119,0.302-0.286,0.651-0.465,1.024
	c-0.467,0.971-1.173,2.438-0.752,3.026c0.258,0.359,0.92,0.446,1.687,0.546C5.824,17,6.884,17.139,7.767,17.839
	c1.104,0.877,1.935,2.202,2.468,3.941L8.801,22.22c-0.443-1.443-1.104-2.521-1.967-3.205c-0.558-0.443-1.362-0.548-2.14-0.65
	c-1.02-0.133-2.075-0.271-2.711-1.16c-0.939-1.31-0.075-3.106,0.619-4.55c0.162-0.337,0.314-0.651,0.422-0.924
	c0.073-0.186-0.269-0.421-0.844-0.741c-0.44-0.245-0.821-0.456-0.913-0.91L1.198,9.74l0.235-0.354
	c0.152-0.194,0.38-0.486,3.728-2.197C5.986,3.301,8.758,1.25,13.199,1.25c6.958,0,9.551,5.882,9.551,9.589
	c0,3.871-3.125,7.534-7.207,8.557c0.104,0.286,0.433,0.918,1.505,2.1L15.937,22.504z"/>
<path style="fill:#333333;" d="M13.583,13.983c-0.615,0-0.997-0.262-1.216-0.496c-0.396-0.425-0.558-1.05-0.495-1.938
	c-1.052-0.213-1.826-0.574-2.356-1.095C8.792,9.743,8.627,8.602,9.024,7.063l0.008-0.028c0.192-0.642,0.747-1.47,2.297-1.771
	c0.998-0.193,1.415-0.012,1.794,0.366c0.021,0.03,0.067,0.045,0.193,0.045c1.26,0,2.715,0.354,2.921,1.333
	c0.117,0.031,0.326,0.066,0.644,0.066c0.319,0,0.628,0.163,0.916,0.485c0.59,0.66,1.112,1.982,0.948,3.449
	c-0.099,0.887-0.523,1.344-0.862,1.572c-0.493,0.332-1.135,0.429-1.947,0.29c-0.341,0.516-0.968,0.984-2.112,1.102
	C13.74,13.979,13.66,13.983,13.583,13.983z M10.473,7.452C10.23,8.4,10.264,9.086,10.567,9.385c0.393,0.386,1.165,0.661,2.232,0.795
	l0.78,0.098l-0.135,0.775c-0.202,1.157,0.019,1.412,0.021,1.414c0.008,0.005,0.068,0.026,0.204,0.012
	c0.959-0.099,1.07-0.502,1.118-0.675l0.201-0.726l0.725,0.204c0.897,0.253,1.23,0.121,1.33,0.053c0.11-0.074,0.182-0.241,0.21-0.494
	c0.127-1.142-0.347-2.015-0.564-2.271c-1.493-0.051-1.845-0.707-1.914-1.134c-0.198-0.107-0.732-0.262-1.46-0.262
	c-0.673,0-0.998-0.231-1.25-0.48c0.023-0.005-0.089-0.028-0.452,0.042C10.661,6.921,10.517,7.307,10.473,7.452z"/>
<path style="fill:#333333;" d="M13.024,16.45l-1.471-0.293c0.131-0.659,0.548-1.209,1.075-1.905
	c0.158-0.209,0.331-0.437,0.512-0.688c0.476-0.664,1.512-1.325,1.714-1.451l0.791,1.275c-0.548,0.339-1.101,0.79-1.286,1.049
	c-0.189,0.265-0.369,0.502-0.535,0.722C13.413,15.7,13.089,16.129,13.024,16.45z"/>
</svg>






