<?xml version="1.0" encoding="iso-8859-1"?>
<svg version="1.1" id="&#x56FE;&#x5C42;_1" xmlns="http://www.w3.org/2000/svg" xmlns:xlink="http://www.w3.org/1999/xlink" x="0px"
	 y="0px" viewBox="0 0 24 24" style="enable-background:new 0 0 24 24;" xml:space="preserve">
<path style="fill:#333333;" d="M12,20.75c-4.825,0-8.75-3.925-8.75-8.75c0-4.825,3.925-8.75,8.75-8.75c4.825,0,8.75,3.925,8.75,8.75
	C20.75,16.825,16.825,20.75,12,20.75z M12,4.75c-3.998,0-7.25,3.252-7.25,7.25c0,3.998,3.252,7.25,7.25,7.25
	c3.998,0,7.25-3.252,7.25-7.25C19.25,8.002,15.998,4.75,12,4.75z"/>
<path style="fill:#333333;" d="M12,14.75c-1.517,0-2.75-1.233-2.75-2.75S10.483,9.25,12,9.25s2.75,1.233,2.75,2.75
	S13.517,14.75,12,14.75z M12,10.75c-0.689,0-1.25,0.561-1.25,1.25s0.561,1.25,1.25,1.25s1.25-0.561,1.25-1.25S12.689,10.75,12,10.75
	z"/>
<path style="fill:#333333;" d="M22.75,12.75h-5.497V12c0-0.693-0.135-1.37-0.4-2.01c-0.266-0.642-0.648-1.215-1.138-1.705
	c-0.49-0.49-1.064-0.873-1.705-1.139c-0.64-0.266-1.316-0.4-2.01-0.4h-0.75V1.25H12c1.418,0,2.803,0.275,4.114,0.818
	c1.311,0.543,2.483,1.327,3.487,2.33c1.003,1.003,1.787,2.176,2.33,3.488S22.75,10.582,22.75,12V12.75z M18.712,11.25h2.508
	c-0.077-0.958-0.303-1.894-0.674-2.79c-0.468-1.128-1.142-2.138-2.005-3.001c-0.864-0.863-1.873-1.538-3.001-2.005
	c-0.896-0.371-1.832-0.597-2.79-0.674v2.508c0.63,0.07,1.244,0.228,1.834,0.473c0.823,0.341,1.561,0.833,2.191,1.463
	c0.63,0.63,1.122,1.367,1.464,2.191C18.483,10.006,18.642,10.621,18.712,11.25z"/>
</svg>






