<?xml version="1.0" encoding="iso-8859-1"?>
<svg version="1.1" id="&#x56FE;&#x5C42;_1" xmlns="http://www.w3.org/2000/svg" xmlns:xlink="http://www.w3.org/1999/xlink" x="0px"
	 y="0px" viewBox="0 0 24 24" style="enable-background:new 0 0 24 24;" xml:space="preserve">
<path style="fill:#333333;" d="M20,14.75c-1.517,0-2.75-1.233-2.75-2.75S18.483,9.25,20,9.25s2.75,1.233,2.75,2.75
	S21.517,14.75,20,14.75z M20,10.75c-0.689,0-1.25,0.561-1.25,1.25s0.561,1.25,1.25,1.25s1.25-0.561,1.25-1.25S20.689,10.75,20,10.75
	z"/>
<path style="fill:#333333;" d="M4.5,6.75C2.983,6.75,1.75,5.517,1.75,4S2.983,1.25,4.5,1.25S7.25,2.483,7.25,4S6.017,6.75,4.5,6.75z
	 M4.5,2.75C3.811,2.75,3.25,3.311,3.25,4S3.811,5.25,4.5,5.25S5.75,4.689,5.75,4S5.189,2.75,4.5,2.75z"/>
<path style="fill:#333333;" d="M4.5,22.75c-1.517,0-2.75-1.233-2.75-2.75s1.233-2.75,2.75-2.75S7.25,18.483,7.25,20
	S6.017,22.75,4.5,22.75z M4.5,18.75c-0.689,0-1.25,0.561-1.25,1.25s0.561,1.25,1.25,1.25S5.75,20.689,5.75,20S5.189,18.75,4.5,18.75
	z"/>
<polygon style="fill:#333333;" points="5.25,18 3.75,18 3.75,6 5.25,6 5.25,11.254 18,11.254 18,12.754 5.25,12.754 "/>
</svg>






