<?xml version="1.0" encoding="iso-8859-1"?>
<svg version="1.1" id="&#x56FE;&#x5C42;_1" xmlns="http://www.w3.org/2000/svg" xmlns:xlink="http://www.w3.org/1999/xlink" x="0px"
	 y="0px" viewBox="0 0 24 24" style="enable-background:new 0 0 24 24;" xml:space="preserve">
<path style="fill:#333333;" d="M18,6.75c-1.517,0-2.75-1.233-2.75-2.75S16.483,1.25,18,1.25S20.75,2.483,20.75,4
	S19.517,6.75,18,6.75z M18,2.75c-0.689,0-1.25,0.561-1.25,1.25S17.311,5.25,18,5.25S19.25,4.689,19.25,4S18.689,2.75,18,2.75z"/>
<path style="fill:#333333;" d="M7,6.75C5.483,6.75,4.25,5.517,4.25,4S5.483,1.25,7,1.25S9.75,2.483,9.75,4S8.517,6.75,7,6.75z
	 M7,2.75C6.311,2.75,5.75,3.311,5.75,4S6.311,5.25,7,5.25S8.25,4.689,8.25,4S7.689,2.75,7,2.75z"/>
<path style="fill:#333333;" d="M7,22.75c-1.517,0-2.75-1.233-2.75-2.75S5.483,17.25,7,17.25S9.75,18.483,9.75,20
	S8.517,22.75,7,22.75z M7,18.75c-0.689,0-1.25,0.561-1.25,1.25S6.311,21.25,7,21.25S8.25,20.689,8.25,20S7.689,18.75,7,18.75z"/>
<path style="fill:#333333;" d="M7.75,18h-1.5V6h1.5v7.82c1.155-0.91,2.826-1.594,4.466-2.265C14.69,10.543,17.25,9.497,17.25,8V6
	h1.5v2c0,2.503-3.033,3.744-5.966,4.944c-2.475,1.013-5.034,2.06-5.034,3.556V18z"/>
</svg>






