<?xml version="1.0" encoding="iso-8859-1"?>
<svg version="1.1" id="&#x56FE;&#x5C42;_1" xmlns="http://www.w3.org/2000/svg" xmlns:xlink="http://www.w3.org/1999/xlink" x="0px"
	 y="0px" viewBox="0 0 24 24" style="enable-background:new 0 0 24 24;" xml:space="preserve">
<rect x="11.25" y="7.5" style="fill:#333333;" width="1.5" height="9"/>
<path style="fill:#333333;" d="M19.75,8.25H4.25v-4.5h15.5V8.25z M5.75,6.75h12.5v-1.5H5.75V6.75z"/>
<polygon style="fill:#333333;" points="19.432,16.489 16.644,13.25 7.345,13.25 4.569,16.488 3.431,15.512 6.655,11.75 
	17.331,11.75 20.568,15.511 "/>
<path style="fill:#333333;" d="M6.75,21.25h-5.5v-5.5h5.5V21.25z M2.75,19.75h2.5v-2.5h-2.5V19.75z"/>
<path style="fill:#333333;" d="M14.75,21.25h-5.5v-5.5h5.5V21.25z M10.75,19.75h2.5v-2.5h-2.5V19.75z"/>
<path style="fill:#333333;" d="M22.75,21.25h-5.5v-5.5h5.5V21.25z M18.75,19.75h2.5v-2.5h-2.5V19.75z"/>
</svg>






