<?xml version="1.0" encoding="iso-8859-1"?>
<svg version="1.1" id="&#x56FE;&#x5C42;_1" xmlns="http://www.w3.org/2000/svg" xmlns:xlink="http://www.w3.org/1999/xlink" x="0px"
	 y="0px" viewBox="0 0 24 24" style="enable-background:new 0 0 24 24;" xml:space="preserve">
<path style="fill:#333333;" d="M18.042,20.75H5.958c-2.596,0-4.708-2.112-4.708-4.708c0-0.835,0.211-1.55,0.629-2.125
	C2.895,12.514,5.915,9.25,12,9.25c6.084,0,9.105,3.264,10.122,4.667c0.417,0.575,0.628,1.29,0.628,2.125
	C22.75,18.638,20.638,20.75,18.042,20.75z M12,10.75c-5.394,0-8.025,2.83-8.907,4.047C2.865,15.111,2.75,15.53,2.75,16.042
	c0,1.769,1.439,3.208,3.208,3.208h12.083c1.769,0,3.208-1.439,3.208-3.208c0-0.512-0.115-0.931-0.343-1.244
	C20.025,13.58,17.393,10.75,12,10.75z"/>
<rect x="5.25" y="4.5" style="fill:#333333;" width="1.5" height="2"/>
<rect x="6.25" y="11" style="fill:#333333;" width="1.5" height="2"/>
<rect x="17.25" y="4.5" style="fill:#333333;" width="1.5" height="2"/>
<rect x="16.25" y="11" style="fill:#333333;" width="1.5" height="2"/>
<rect x="11.25" y="3.5" style="fill:#333333;" width="1.5" height="3"/>
<rect x="11.25" y="10" style="fill:#333333;" width="1.5" height="4"/>
<path style="fill:#333333;" d="M19.511,13.29c-1.346-1.159-3.74-2.54-7.511-2.54s-6.166,1.381-7.511,2.54l-0.979-1.137
	C5.048,10.829,7.769,9.25,12,9.25c4.23,0,6.952,1.579,8.489,2.903L19.511,13.29z"/>
</svg>






