<?xml version="1.0" encoding="iso-8859-1"?>
<svg version="1.1" id="&#x56FE;&#x5C42;_1" xmlns="http://www.w3.org/2000/svg" xmlns:xlink="http://www.w3.org/1999/xlink" x="0px"
	 y="0px" viewBox="0 0 24 24" style="enable-background:new 0 0 24 24;" xml:space="preserve">
<path style="fill:#333333;" d="M16.162,17.853l-1.324-0.705c0.04-0.075,4.007-7.515,4.991-9.483c0.354-0.708,0.4-1.475,0.136-2.219
	c-0.339-0.952-1.146-1.755-2.272-2.262c-2.089-0.94-4.717-0.382-6.116,1.296c-2.445,2.935-6.412,8.876-6.452,8.936l-1.248-0.832
	c0.164-0.246,4.051-6.068,6.548-9.064c1.845-2.213,5.16-2.929,7.884-1.704c1.503,0.676,2.593,1.787,3.07,3.126
	c0.399,1.122,0.326,2.327-0.207,3.393C20.178,10.321,16.325,17.546,16.162,17.853z"/>
<path style="fill:#333333;" d="M11.24,21.75c-0.325,0-0.651-0.017-0.974-0.033c-0.632-0.03-1.309-0.033-1.943-0.013
	c-1.27,0.048-2.59,0.089-3.681-0.708c-1.52-1.108-2.392-2.713-2.392-4.402c0-3.44,2.878-5.844,7-5.844c3.859,0,7,2.621,7,5.844
	c0,1.772-0.942,3.427-2.586,4.54C12.917,21.64,12.083,21.75,11.24,21.75z M9.25,20.184c0.372,0,0.736,0.018,1.091,0.035
	c1,0.05,1.861,0.094,2.481-0.327c1.226-0.829,1.928-2.031,1.928-3.298c0-2.396-2.468-4.344-5.5-4.344c-2.738,0-5.5,1.343-5.5,4.344
	c0,1.205,0.647,2.368,1.775,3.19c0.673,0.492,1.635,0.459,2.747,0.421C8.591,20.194,8.917,20.184,9.25,20.184z"/>
<path style="fill:#333333;" d="M9.971,18.75c-0.128,0-0.252-0.006-0.374-0.011c-0.113-0.006-0.229-0.011-0.348-0.011l-0.322,0.007
	c-0.503,0.014-1.071,0.032-1.583-0.296c-0.696-0.446-1.096-1.113-1.096-1.831c0-1.389,1.233-2.358,3-2.358c1.682,0,3,1.036,3,2.358
	c0,0.75-0.43,1.437-1.179,1.883C10.709,18.706,10.33,18.75,9.971,18.75z M9.25,17.229c0.141,0,0.279,0.006,0.414,0.012
	c0.263,0.012,0.535,0.022,0.641-0.038c0.133-0.08,0.445-0.298,0.445-0.594c0-0.405-0.642-0.858-1.5-0.858
	c-0.723,0-1.5,0.269-1.5,0.858c0,0.278,0.283,0.49,0.404,0.567c0.123,0.077,0.431,0.068,0.729,0.06
	C9.002,17.232,9.125,17.229,9.25,17.229z"/>
<path style="fill:#333333;" d="M11.337,9.732c-2.02-0.447-3.618-0.015-3.634-0.01l-0.41-1.443c0.079-0.022,1.961-0.546,4.369-0.011
	L11.337,9.732z"/>
<path style="fill:#333333;" d="M10.292,6.191l-0.588-1.38c0.083-0.036,2.069-0.866,4.091,0l-0.592,1.379
	C11.784,5.58,10.307,6.184,10.292,6.191z"/>
</svg>






