<?xml version="1.0" encoding="iso-8859-1"?>
<svg version="1.1" id="&#x56FE;&#x5C42;_1" xmlns="http://www.w3.org/2000/svg" xmlns:xlink="http://www.w3.org/1999/xlink" x="0px"
	 y="0px" viewBox="0 0 24 24" style="enable-background:new 0 0 24 24;" xml:space="preserve">
<path style="fill:#333333;" d="M18.25,22.75H4.75V12.5c0-1.946,2.022-3.076,3-3.508V6.25h7.5v2.742c0.978,0.433,3,1.562,3,3.508
	V22.75z M6.25,21.25h10.5V12.5c0-1.191-1.842-2.073-2.487-2.289l-0.513-0.171V7.75h-4.5v2.289l-0.512,0.172
	C8.713,10.219,6.25,11.09,6.25,12.5V21.25z"/>
<rect x="5.945" y="2.75" transform="matrix(0.7591 -0.651 0.651 0.7591 -0.2909 6.214)" style="fill:#333333;" width="4.61" height="1.5"/>
<rect x="9.25" y="2.945" transform="matrix(0.7593 -0.6508 0.6508 0.7593 -1.0092 7.7718)" style="fill:#333333;" width="1.5" height="4.61"/>
<polygon style="fill:#333333;" points="20.02,10.576 16.75,7.851 16.75,4.75 13,4.75 13,3.25 18.25,3.25 18.25,7.149 20.98,9.424 
	"/>
</svg>






