<?xml version="1.0" encoding="iso-8859-1"?>
<svg version="1.1" id="&#x56FE;&#x5C42;_1" xmlns="http://www.w3.org/2000/svg" xmlns:xlink="http://www.w3.org/1999/xlink" x="0px"
	 y="0px" viewBox="0 0 24 24" style="enable-background:new 0 0 24 24;" xml:space="preserve">
<path style="fill:#333333;" d="M18.5,20.25h-13c-1.517,0-2.75-1.233-2.75-2.75v-4c0-2.619,2.131-4.75,4.75-4.75h9
	c2.619,0,4.75,2.131,4.75,4.75v4C21.25,19.017,20.017,20.25,18.5,20.25z M7.5,10.25c-1.792,0-3.25,1.458-3.25,3.25v4
	c0,0.689,0.561,1.25,1.25,1.25h13c0.689,0,1.25-0.561,1.25-1.25v-4c0-1.792-1.458-3.25-3.25-3.25H7.5z"/>
<path style="fill:#333333;" d="M17.75,9.5h-1.5V5.25H17c0.83,0,1.125-0.539,1.125-1s-0.295-1-1.125-1H7
	c-0.374,0-0.665,0.105-0.863,0.314C5.968,3.741,5.875,3.985,5.875,4.25c0,0.461,0.294,1,1.125,1h0.75V9.5h-1.5V6.662
	C5.016,6.356,4.375,5.297,4.375,4.25c0-0.652,0.24-1.263,0.676-1.72C5.389,2.174,6.002,1.75,7,1.75h10
	c1.724,0,2.625,1.258,2.625,2.5c0,1.047-0.641,2.106-1.875,2.412V9.5z"/>
<rect x="9.793" y="5.25" transform="matrix(0.7071 -0.7071 0.7071 0.7071 -1.1673 9.182)" style="fill:#333333;" width="1.414" height="1.5"/>
<rect x="12.793" y="5.25" transform="matrix(0.7071 -0.7071 0.7071 0.7071 -0.2886 11.3033)" style="fill:#333333;" width="1.414" height="1.5"/>
<path style="fill:#333333;" d="M12,17.25c-1.517,0-2.75-1.233-2.75-2.75s1.233-2.75,2.75-2.75s2.75,1.233,2.75,2.75
	S13.517,17.25,12,17.25z M12,13.25c-0.689,0-1.25,0.561-1.25,1.25s0.561,1.25,1.25,1.25s1.25-0.561,1.25-1.25S12.689,13.25,12,13.25
	z"/>
<rect x="6.75" y="19.5" style="fill:#333333;" width="1.5" height="2"/>
<rect x="15.75" y="19.5" style="fill:#333333;" width="1.5" height="2"/>
</svg>






