<?xml version="1.0" encoding="iso-8859-1"?>
<svg version="1.1" id="&#x56FE;&#x5C42;_1" xmlns="http://www.w3.org/2000/svg" xmlns:xlink="http://www.w3.org/1999/xlink" x="0px"
	 y="0px" viewBox="0 0 24 24" style="enable-background:new 0 0 24 24;" xml:space="preserve">
<path style="fill:#333333;" d="M22.75,17.25h-5.5V16.5c0-2.895-2.355-5.25-5.25-5.25c-2.895,0-5.25,2.355-5.25,5.25v0.75h-5.5V8.959
	l0.514-0.171C2.014,8.705,7.943,6.75,12,6.75c4.058,0,9.986,1.955,10.236,2.038l0.514,0.171V17.25z M18.709,15.75h2.541v-5.701
	C19.728,9.578,15.153,8.25,12,8.25c-3.156,0-7.729,1.328-9.25,1.799v5.701h2.542c0.374-3.37,3.24-6,6.708-6
	C15.469,9.75,18.334,12.38,18.709,15.75z"/>
</svg>






