<?xml version="1.0" encoding="iso-8859-1"?>
<svg version="1.1" id="&#x56FE;&#x5C42;_1" xmlns="http://www.w3.org/2000/svg" xmlns:xlink="http://www.w3.org/1999/xlink" x="0px"
	 y="0px" viewBox="0 0 24 24" style="enable-background:new 0 0 24 24;" xml:space="preserve">
<path style="fill:#333333;" d="M12,12.25c-5.363,0-8.512-5.145-8.643-5.364l1.286-0.772C4.67,6.16,7.496,10.75,12,10.75
	c4.505,0,7.329-4.59,7.357-4.637l1.286,0.772C20.512,7.105,17.363,12.25,12,12.25z"/>
<rect x="3.25" y="5" style="fill:#333333;" width="1.5" height="14"/>
<rect x="19.25" y="5" style="fill:#333333;" width="1.5" height="14"/>
<path style="fill:#333333;" d="M21.944,16.248c-0.061-0.005-6.112-0.45-9.954-0.498c-3.83-0.051-9.893,0.246-9.954,0.249
	l-0.073-1.498c0.062-0.003,6.157-0.303,10.046-0.251c3.888,0.049,9.984,0.497,10.046,0.502L21.944,16.248z"/>
<rect x="7.25" y="10.5" style="fill:#333333;" width="1.5" height="4.5"/>
<rect x="11.25" y="11.5" style="fill:#333333;" width="1.5" height="3.5"/>
<rect x="15.25" y="10.5" style="fill:#333333;" width="1.5" height="4.5"/>
<rect x="1.399" y="7" transform="matrix(0.625 -0.7806 0.7806 0.625 -4.9248 5.248)" style="fill:#333333;" width="3.202" height="1.5"/>
<rect x="20.25" y="6.149" transform="matrix(0.7809 -0.6247 0.6247 0.7809 -0.2396 14.8169)" style="fill:#333333;" width="1.501" height="3.202"/>
</svg>






