<?xml version="1.0" encoding="iso-8859-1"?>
<svg version="1.1" id="&#x56FE;&#x5C42;_1" xmlns="http://www.w3.org/2000/svg" xmlns:xlink="http://www.w3.org/1999/xlink" x="0px"
	 y="0px" viewBox="0 0 24 24" style="enable-background:new 0 0 24 24;" xml:space="preserve">
<path style="fill:#333333;" d="M12.01,18.427c-3.446,0-6.25-2.804-6.25-6.25s2.804-6.25,6.25-6.25c3.446,0,6.25,2.804,6.25,6.25
	S15.456,18.427,12.01,18.427z M12.01,7.427c-2.619,0-4.75,2.131-4.75,4.75s2.131,4.75,4.75,4.75c2.619,0,4.75-2.131,4.75-4.75
	S14.629,7.427,12.01,7.427z"/>
<rect x="17.993" y="4.373" transform="matrix(0.7048 -0.7094 0.7094 0.7048 1.934 14.895)" style="fill:#333333;" width="1.745" height="1.501"/>
<rect x="4.296" y="18.136" transform="matrix(0.7055 -0.7087 0.7087 0.7055 -11.9065 9.1218)" style="fill:#333333;" width="1.452" height="1.501"/>
<rect x="11.25" y="20.677" style="fill:#333333;" width="1.5" height="1.5"/>
<rect x="20" y="10.927" style="fill:#333333;" width="2" height="1.5"/>
<rect x="18.633" y="17.913" transform="matrix(0.7071 -0.7071 0.7071 0.7071 -7.6055 19.208)" style="fill:#333333;" width="1.5" height="1.744"/>
<path style="fill-rule:evenodd;clip-rule:evenodd;fill:#333333;" d="M12.01,8.677c-1.933,0-3.5,1.567-3.5,3.5s1.567,3.5,3.5,3.5"/>
<rect x="2" y="11.427" style="fill:#333333;" width="2" height="1.5"/>
<rect x="4.785" y="4.292" transform="matrix(0.7069 -0.7073 0.7073 0.7069 -1.9269 5.3857)" style="fill:#333333;" width="1.5" height="1.452"/>
<rect x="11.25" y="1.677" style="fill:#333333;" width="1.5" height="2"/>
</svg>






