<?xml version="1.0" encoding="iso-8859-1"?>
<svg version="1.1" id="&#x56FE;&#x5C42;_1" xmlns="http://www.w3.org/2000/svg" xmlns:xlink="http://www.w3.org/1999/xlink" x="0px"
	 y="0px" viewBox="0 0 24 24" style="enable-background:new 0 0 24 24;" xml:space="preserve">
<path style="fill:#333333;" d="M20.5,21.75h-11c-0.689,0-1.25-0.561-1.25-1.25v-11c0-0.689,0.561-1.25,1.25-1.25h11
	c0.689,0,1.25,0.561,1.25,1.25v11C21.75,21.189,21.189,21.75,20.5,21.75z M9.75,20.25h10.5V9.75H9.75V20.25z"/>
<polygon style="fill:#333333;" points="3.75,5.017 2.25,5.017 2.25,2.25 4.984,2.25 4.984,3.75 3.75,3.75 "/>
<polygon style="fill:#333333;" points="4.999,15.75 2.25,15.75 2.25,13.006 3.75,13.006 3.75,14.25 4.999,14.25 "/>
<polygon style="fill:#333333;" points="15.75,5.008 14.25,5.008 14.25,3.75 13.001,3.75 13.001,2.25 15.75,2.25 "/>
<rect x="8.014" y="2.25" style="fill:#333333;" width="1.99" height="1.5"/>
<rect x="2.25" y="8" style="fill:#333333;" width="1.5" height="2"/>
<rect x="14.25" y="8" style="fill:#333333;" width="1.5" height="1.338"/>
<rect x="7.996" y="14.25" style="fill:#333333;" width="1.004" height="1.5"/>
</svg>






