<?xml version="1.0" encoding="iso-8859-1"?>
<svg version="1.1" id="&#x56FE;&#x5C42;_1" xmlns="http://www.w3.org/2000/svg" xmlns:xlink="http://www.w3.org/1999/xlink" x="0px"
	 y="0px" viewBox="0 0 24 24" style="enable-background:new 0 0 24 24;" xml:space="preserve">
<path style="fill:#333333;" d="M12,8.25c-1.792,0-3.25-1.458-3.25-3.25S10.208,1.75,12,1.75S15.25,3.208,15.25,5
	S13.792,8.25,12,8.25z M12,3.25c-0.965,0-1.75,0.785-1.75,1.75S11.035,6.75,12,6.75S13.75,5.965,13.75,5S12.965,3.25,12,3.25z"/>
<rect x="11.25" y="7.5" style="fill:#333333;" width="1.5" height="4"/>
<rect x="14.25" y="11.5" style="fill:#333333;" width="1.5" height="5"/>
<rect x="8.25" y="11.5" style="fill:#333333;" width="1.5" height="5"/>
<polygon style="fill:#333333;" points="21.25,16.5 19.75,16.5 19.75,12.256 4.25,12.25 4.25,16.5 2.75,16.5 2.75,10.75 
	21.25,10.757 "/>
<rect x="19.75" y="20.5" style="fill:#333333;" width="1.5" height="0.5"/>
<rect x="2.75" y="20.5" style="fill:#333333;" width="1.5" height="0.5"/>
<rect x="8.25" y="20.5" style="fill:#333333;" width="1.5" height="0.5"/>
<rect x="14.25" y="20.5" style="fill:#333333;" width="1.5" height="0.5"/>
</svg>






