<?xml version="1.0" encoding="iso-8859-1"?>
<svg version="1.1" id="&#x56FE;&#x5C42;_1" xmlns="http://www.w3.org/2000/svg" xmlns:xlink="http://www.w3.org/1999/xlink" x="0px"
	 y="0px" viewBox="0 0 24 24" style="enable-background:new 0 0 24 24;" xml:space="preserve">
<path style="fill:#333333;" d="M12,15.064c-1.667,0-3.022-1.353-3.022-3.016c0-1.663,1.356-3.016,3.022-3.016
	c1.667,0,3.022,1.353,3.022,3.016C15.022,13.712,13.667,15.064,12,15.064z M12,10.533c-0.839,0-1.522,0.68-1.522,1.516
	s0.683,1.516,1.522,1.516c0.84,0,1.522-0.68,1.522-1.516S12.84,10.533,12,10.533z"/>
<path style="fill:#333333;" d="M7.489,17.049C6.045,15.703,5.25,13.91,5.25,12s0.795-3.703,2.239-5.049l1.022,1.098
	C7.375,9.107,6.75,10.511,6.75,12s0.625,2.893,1.761,3.951L7.489,17.049z"/>
<path style="fill:#333333;" d="M16.512,17.049l-1.023-1.098c1.137-1.059,1.762-2.462,1.762-3.951s-0.625-2.893-1.762-3.951
	l1.023-1.098C17.955,8.297,18.75,10.09,18.75,12S17.955,15.703,16.512,17.049z"/>
<path style="fill:#333333;" d="M4.399,19.629C2.369,17.604,1.25,14.913,1.25,12.05c0-2.864,1.118-5.556,3.149-7.581l1.059,1.062
	C3.712,7.272,2.75,9.587,2.75,12.049c0,2.462,0.962,4.777,2.708,6.518L4.399,19.629z"/>
<path style="fill:#333333;" d="M19.601,19.629l-1.059-1.062c1.746-1.741,2.708-4.056,2.708-6.518c0-2.461-0.962-4.776-2.708-6.518
	l1.059-1.062c2.031,2.025,3.149,4.717,3.149,7.581C22.75,14.913,21.632,17.604,19.601,19.629z"/>
</svg>






