<?xml version="1.0" encoding="iso-8859-1"?>
<svg version="1.1" id="&#x56FE;&#x5C42;_1" xmlns="http://www.w3.org/2000/svg" xmlns:xlink="http://www.w3.org/1999/xlink" x="0px"
	 y="0px" viewBox="0 0 24 24" style="enable-background:new 0 0 24 24;" xml:space="preserve">
<path style="fill:#333333;" d="M22.75,20.75H1.25V5.25h21.5V20.75z M2.75,19.25h18.5V6.75H2.75V19.25z"/>
<path style="fill:#333333;" d="M15.5,16.25c-1.792,0-3.25-1.458-3.25-3.25s1.458-3.25,3.25-3.25s3.25,1.458,3.25,3.25
	S17.292,16.25,15.5,16.25z M15.5,11.25c-0.965,0-1.75,0.785-1.75,1.75s0.785,1.75,1.75,1.75s1.75-0.785,1.75-1.75
	S16.465,11.25,15.5,11.25z"/>
<rect x="6" y="10.25" style="fill:#333333;" width="3" height="1.5"/>
<rect x="6" y="14.25" style="fill:#333333;" width="3" height="1.5"/>
<rect x="3.25" y="20" style="fill:#333333;" width="1.5" height="2"/>
<rect x="19.25" y="20" style="fill:#333333;" width="1.5" height="2"/>
<rect x="3.72" y="3.25" transform="matrix(0.9615 -0.2747 0.2747 0.9615 -0.6756 3.1758)" style="fill:#333333;" width="14.56" height="1.5"/>
</svg>






