<?xml version="1.0" encoding="iso-8859-1"?>
<svg version="1.1" id="&#x56FE;&#x5C42;_1" xmlns="http://www.w3.org/2000/svg" xmlns:xlink="http://www.w3.org/1999/xlink" x="0px"
	 y="0px" viewBox="0 0 24 24" style="enable-background:new 0 0 24 24;" xml:space="preserve">
<path style="fill:#333333;" d="M12,22.75C6.072,22.75,1.25,17.928,1.25,12S6.072,1.25,12,1.25S22.75,6.072,22.75,12
	S17.928,22.75,12,22.75z M12,2.75c-5.101,0-9.25,4.149-9.25,9.25s4.149,9.25,9.25,9.25s9.25-4.149,9.25-9.25S17.101,2.75,12,2.75z"
	/>
<g>
	<path style="fill:#333333;" d="M7.5,16.5l2.25-6.75L16.5,7.5l-2.25,6.75L7.5,16.5z"/>
	<path style="fill:#333333;" d="M7.737,17.212l-0.949-0.949l2.369-7.105l7.105-2.369l0.949,0.949l-2.369,7.105L7.737,17.212z
		 M10.343,10.343l-1.657,4.972l4.971-1.657l1.657-4.971L10.343,10.343z"/>
</g>
<path style="fill-rule:evenodd;clip-rule:evenodd;fill:#333333;" d="M12,13c0.552,0,1-0.448,1-1s-0.448-1-1-1s-1,0.448-1,1
	S11.448,13,12,13z"/>
</svg>






