<?xml version="1.0" encoding="iso-8859-1"?>
<svg version="1.1" id="&#x56FE;&#x5C42;_1" xmlns="http://www.w3.org/2000/svg" xmlns:xlink="http://www.w3.org/1999/xlink" x="0px"
	 y="0px" viewBox="0 0 24 24" style="enable-background:new 0 0 24 24;" xml:space="preserve">
<path style="fill:#333333;" d="M12,22.75C6.072,22.75,1.25,17.928,1.25,12S6.072,1.25,12,1.25S22.75,6.072,22.75,12
	S17.928,22.75,12,22.75z M9.973,21.026c0.652,0.146,1.331,0.224,2.027,0.224c5.101,0,9.25-4.149,9.25-9.25
	c0-1.334-0.284-2.603-0.795-3.75h-4.784c0.974,0.954,1.579,2.282,1.579,3.75c0,1.647-0.763,3.121-1.954,4.084L9.973,21.026z
	 M3.203,9.14C2.909,10.041,2.75,11.002,2.75,12c0,3.801,2.305,7.074,5.59,8.495l3.498-3.248c-1.617-0.049-3.052-0.833-3.982-2.027
	L7.841,15.23L3.203,9.14z M12,8.25c-2.068,0-3.75,1.682-3.75,3.75c0,2.067,1.682,3.75,3.75,3.75c0.871,0,1.673-0.298,2.311-0.798
	l0.002-0.002c0.874-0.687,1.438-1.754,1.438-2.95C15.75,9.932,14.067,8.25,12,8.25z M3.886,7.562l2.901,3.81
	C7.099,8.772,9.318,6.75,12,6.75h7.612c-1.671-2.415-4.46-4-7.612-4C8.507,2.75,5.459,4.696,3.886,7.562z"/>
</svg>






