<?xml version="1.0" encoding="iso-8859-1"?>
<svg version="1.1" id="&#x56FE;&#x5C42;_1" xmlns="http://www.w3.org/2000/svg" xmlns:xlink="http://www.w3.org/1999/xlink" x="0px"
	 y="0px" viewBox="0 0 24 24" style="enable-background:new 0 0 24 24;" xml:space="preserve">
<path style="fill:#333333;" d="M20,21.75H4c-0.965,0-1.75-0.785-1.75-1.75V9h1.5v11c0,0.138,0.112,0.25,0.25,0.25h16
	c0.138,0,0.25-0.112,0.25-0.25V9h1.5v11C21.75,20.965,20.965,21.75,20,21.75z"/>
<path style="fill:#333333;" d="M21.75,9.75H2.25V4c0-0.965,0.785-1.75,1.75-1.75h16c0.965,0,1.75,0.785,1.75,1.75V9.75z M3.75,8.25
	h16.5V4c0-0.138-0.112-0.25-0.25-0.25H4C3.862,3.75,3.75,3.862,3.75,4V8.25z"/>
<path style="fill-rule:evenodd;clip-rule:evenodd;fill:#333333;" d="M6,7c0.552,0,1-0.448,1-1S6.552,5,6,5S5,5.448,5,6S5.448,7,6,7z
	"/>
<path style="fill-rule:evenodd;clip-rule:evenodd;fill:#333333;" d="M9,7c0.552,0,1-0.448,1-1S9.552,5,9,5S8,5.448,8,6S8.448,7,9,7z
	"/>
<path style="fill-rule:evenodd;clip-rule:evenodd;fill:#333333;" d="M12,7c0.552,0,1-0.448,1-1s-0.448-1-1-1s-1,0.448-1,1
	S11.448,7,12,7z"/>
</svg>






