<?xml version="1.0" encoding="iso-8859-1"?>
<svg version="1.1" id="&#x56FE;&#x5C42;_1" xmlns="http://www.w3.org/2000/svg" xmlns:xlink="http://www.w3.org/1999/xlink" x="0px"
	 y="0px" viewBox="0 0 24 24" style="enable-background:new 0 0 24 24;" xml:space="preserve">
<path style="fill:#333333;" d="M17,12.25c-2.895,0-5.25-2.355-5.25-5.25S14.105,1.75,17,1.75S22.25,4.105,22.25,7
	S19.895,12.25,17,12.25z M17,3.25c-2.067,0-3.75,1.682-3.75,3.75s1.683,3.75,3.75,3.75S20.75,9.068,20.75,7S19.067,3.25,17,3.25z"/>
<path style="fill:#333333;" d="M6,16.75c-2.343,0-4.25-1.906-4.25-4.25c0-2.343,1.907-4.25,4.25-4.25s4.25,1.907,4.25,4.25
	C10.25,14.844,8.343,16.75,6,16.75z M6,9.75c-1.517,0-2.75,1.233-2.75,2.75S4.483,15.25,6,15.25s2.75-1.233,2.75-2.75
	S7.517,9.75,6,9.75z"/>
<path style="fill:#333333;" d="M14.5,21.75c-1.792,0-3.25-1.458-3.25-3.25s1.458-3.25,3.25-3.25s3.25,1.458,3.25,3.25
	S16.292,21.75,14.5,21.75z M14.5,16.75c-0.965,0-1.75,0.785-1.75,1.75s0.785,1.75,1.75,1.75s1.75-0.785,1.75-1.75
	S15.465,16.75,14.5,16.75z"/>
</svg>






