<?xml version="1.0" encoding="iso-8859-1"?>
<svg version="1.1" id="&#x56FE;&#x5C42;_1" xmlns="http://www.w3.org/2000/svg" xmlns:xlink="http://www.w3.org/1999/xlink" x="0px"
	 y="0px" viewBox="0 0 24 24" style="enable-background:new 0 0 24 24;" xml:space="preserve">
<path style="fill:#333333;" d="M12,21.75c-6.13,0-7.75-5.069-7.75-7.75V6.25h15.5V14C19.75,16.681,18.13,21.75,12,21.75z M5.75,7.75
	V14c0,0.255,0.071,6.25,6.25,6.25c6.179,0,6.25-5.995,6.25-6.25V7.75H5.75z"/>
<rect x="2.75" y="3.379" transform="matrix(0.7071 -0.7071 0.7071 0.7071 -2.864 4.0858)" style="fill:#333333;" width="1.5" height="4.243"/>
<rect x="18.379" y="4.75" transform="matrix(0.7071 -0.7071 0.7071 0.7071 2.1152 16.1066)" style="fill:#333333;" width="4.243" height="1.5"/>
<rect x="2" y="12.75" style="fill:#333333;" width="3" height="1.5"/>
<rect x="19" y="12.75" style="fill:#333333;" width="3" height="1.5"/>
<rect x="2.879" y="19.75" transform="matrix(0.7071 -0.7071 0.7071 0.7071 -13.0312 9.5398)" style="fill:#333333;" width="4.243" height="1.5"/>
<rect x="18.25" y="18.379" transform="matrix(0.7071 -0.7071 0.7071 0.7071 -8.9307 19.4393)" style="fill:#333333;" width="1.5" height="4.243"/>
<rect x="11.25" y="7" style="fill:#333333;" width="1.5" height="14"/>
<path style="fill:#333333;" d="M12,21.75c-2.02,0-3.709-0.557-5.021-1.654l0.963-1.15c1.035,0.866,2.4,1.305,4.059,1.305
	c1.673,0,3.047-0.443,4.084-1.316l0.967,1.146C15.736,21.188,14.037,21.75,12,21.75z"/>
<path style="fill:#333333;" d="M16.75,7.75h-9.5V6.167C7.25,3.456,9.381,1.25,12,1.25s4.75,2.206,4.75,4.917V7.75z M8.75,6.25h6.5
	V6.167c0-1.884-1.458-3.417-3.25-3.417S8.75,4.283,8.75,6.167V6.25z"/>
</svg>






