<?xml version="1.0" encoding="iso-8859-1"?>
<svg version="1.1" id="&#x56FE;&#x5C42;_1" xmlns="http://www.w3.org/2000/svg" xmlns:xlink="http://www.w3.org/1999/xlink" x="0px"
	 y="0px" viewBox="0 0 24 24" style="enable-background:new 0 0 24 24;" xml:space="preserve">
<path style="fill:#333333;" d="M22.75,22.75H1.25V10.093L12,3.105l10.75,6.987V22.75z M2.75,21.25h18.5V10.907L12,4.895l-9.25,6.013
	V21.25z"/>
<polygon style="fill:#333333;" points="10.75,22 9.25,22 9.25,12.854 6.75,14.416 6.75,22 5.25,22 5.25,13.584 9.603,10.864 
	10.75,11.5 "/>
<polygon style="fill:#333333;" points="18.75,22 17.25,22 17.25,14.416 14.75,12.854 14.75,22 13.25,22 13.25,11.5 14.397,10.864 
	18.75,13.584 "/>
<rect x="4" y="21.25" style="fill:#333333;" width="16.5" height="1.5"/>
</svg>






