<?xml version="1.0" encoding="iso-8859-1"?>
<svg version="1.1" id="&#x56FE;&#x5C42;_1" xmlns="http://www.w3.org/2000/svg" xmlns:xlink="http://www.w3.org/1999/xlink" x="0px"
	 y="0px" viewBox="0 0 24 24" style="enable-background:new 0 0 24 24;" xml:space="preserve">
<polygon style="fill:#333333;" points="21,21.75 2.25,21.75 2.25,3 3.75,3 3.75,20.25 21,20.25 "/>
<path style="fill:#333333;" d="M18.75,20h-1.5V4.5c0-0.102-0.166-0.25-0.427-0.25H9.176C8.92,4.25,8.75,4.4,8.75,4.5V20h-1.5V4.5
	c0-0.965,0.864-1.75,1.926-1.75h7.647c1.062,0,1.927,0.785,1.927,1.75V20z"/>
<rect x="8.5" y="15.305" style="fill:#333333;" width="8.5" height="1.5"/>
<rect x="11" y="8.75" style="fill:#333333;" width="4" height="1.5"/>
<rect x="12.25" y="7" style="fill:#333333;" width="1.5" height="9.054"/>
</svg>






