<?xml version="1.0" encoding="iso-8859-1"?>
<svg version="1.1" id="&#x56FE;&#x5C42;_1" xmlns="http://www.w3.org/2000/svg" xmlns:xlink="http://www.w3.org/1999/xlink" x="0px"
	 y="0px" viewBox="0 0 24 24" style="enable-background:new 0 0 24 24;" xml:space="preserve">
<path style="fill:#333333;" d="M18.5,20.25h-13c-1.241,0-2.25-1.01-2.25-2.25V4c0-1.241,1.009-2.25,2.25-2.25h13
	c1.24,0,2.25,1.009,2.25,2.25v14C20.75,19.24,19.74,20.25,18.5,20.25z M5.5,3.25C5.086,3.25,4.75,3.586,4.75,4v14
	c0,0.413,0.336,0.75,0.75,0.75h13c0.413,0,0.75-0.337,0.75-0.75V4c0-0.414-0.337-0.75-0.75-0.75H5.5z"/>
<rect x="6.25" y="19.5" style="fill:#333333;" width="1.5" height="2"/>
<rect x="16.25" y="19.5" style="fill:#333333;" width="1.5" height="2"/>
<circle style="fill:#333333;" cx="17" cy="16.5" r="1"/>
<circle style="fill:#333333;" cx="7" cy="16.5" r="1"/>
<rect x="4" y="10.75" style="fill:#333333;" width="16" height="1.5"/>
<rect x="3.25" y="10.5" style="fill:#333333;" width="1.5" height="2"/>
<rect x="19.25" y="10.5" style="fill:#333333;" width="1.5" height="2"/>
<rect x="9" y="5.75" style="fill:#333333;" width="6" height="1.5"/>
</svg>






