<?xml version="1.0" encoding="iso-8859-1"?>
<svg version="1.1" id="&#x56FE;&#x5C42;_1" xmlns="http://www.w3.org/2000/svg" xmlns:xlink="http://www.w3.org/1999/xlink" x="0px"
	 y="0px" viewBox="0 0 24 24" style="enable-background:new 0 0 24 24;" xml:space="preserve">
<path style="fill:#333333;" d="M21,20.75H3c-0.965,0-1.75-0.785-1.75-1.75V3c0-0.965,0.785-1.75,1.75-1.75h18
	c0.965,0,1.75,0.785,1.75,1.75v16C22.75,19.965,21.965,20.75,21,20.75z M3,2.75C2.862,2.75,2.75,2.862,2.75,3v16
	c0,0.138,0.112,0.25,0.25,0.25h18c0.138,0,0.25-0.112,0.25-0.25V3c0-0.138-0.112-0.25-0.25-0.25H3z"/>
<path style="fill:#333333;" d="M8.75,22.75h-5.5v-3.5h5.5V22.75z M4.75,21.25h2.5v-0.5h-2.5V21.25z"/>
<path style="fill:#333333;" d="M20.75,22.75h-5.5v-3.5h5.5V22.75z M16.75,21.25h2.5v-0.5h-2.5V21.25z"/>
<rect x="10.5" y="7.25" style="fill:#333333;" width="3" height="1.5"/>
<rect x="5" y="16.25" style="fill:#333333;" width="1" height="1.5"/>
<rect x="9.5" y="16.25" style="fill:#333333;" width="5" height="1.5"/>
<rect x="2" y="11.75" style="fill:#333333;" width="20" height="1.5"/>
<rect x="2" y="4.25" style="fill:#333333;" width="20" height="1.5"/>
<rect x="18" y="16.25" style="fill:#333333;" width="1" height="1.5"/>
<rect x="1.25" y="3" style="fill:#333333;" width="1.5" height="4"/>
<rect x="21.25" y="3" style="fill:#333333;" width="1.5" height="4"/>
<rect x="1.25" y="10.5" style="fill:#333333;" width="1.5" height="4"/>
<rect x="21.25" y="10.5" style="fill:#333333;" width="1.5" height="4"/>
</svg>






