<?xml version="1.0" encoding="iso-8859-1"?>
<svg version="1.1" id="&#x56FE;&#x5C42;_1" xmlns="http://www.w3.org/2000/svg" xmlns:xlink="http://www.w3.org/1999/xlink" x="0px"
	 y="0px" viewBox="0 0 24 24" style="enable-background:new 0 0 24 24;" xml:space="preserve">
<path style="fill:#333333;" d="M16.503,21.75c-1.432,0-2.611-1.099-2.739-2.497h-3.521c-0.128,1.398-1.307,2.497-2.738,2.497
	s-2.61-1.099-2.738-2.497H4.506c-1.241,0-2.25-1.01-2.25-2.25V4.018c0-0.965,0.785-1.75,1.75-1.75H20c0.965,0,1.75,0.785,1.75,1.75
	v12.985c0,1.24-1.01,2.25-2.25,2.25h-0.259C19.113,20.651,17.934,21.75,16.503,21.75z M8.754,17.753h6.498V19
	c0,0.689,0.561,1.25,1.25,1.25s1.251-0.561,1.251-1.25v-1.247H19.5c0.413,0,0.75-0.337,0.75-0.75V4.018
	c0-0.138-0.112-0.25-0.25-0.25H4.006c-0.138,0-0.25,0.112-0.25,0.25v12.985c0,0.413,0.336,0.75,0.75,0.75h1.75v1.248
	c0,0.688,0.561,1.249,1.249,1.249s1.249-0.561,1.249-1.249V17.753z"/>
<rect x="3" y="10.75" style="fill:#333333;" width="18" height="1.5"/>
<path style="fill:#333333;" d="M17.75,12.25H6.25v-6.5h11.5V12.25z M7.75,10.75h8.5v-3.5h-8.5V10.75z"/>
<rect x="7" y="14.25" style="fill:#333333;" width="1" height="1.5"/>
<rect x="16" y="14.25" style="fill:#333333;" width="1" height="1.5"/>
</svg>






