<?xml version="1.0" encoding="iso-8859-1"?>
<svg version="1.1" id="&#x56FE;&#x5C42;_1" xmlns="http://www.w3.org/2000/svg" xmlns:xlink="http://www.w3.org/1999/xlink" x="0px"
	 y="0px" viewBox="0 0 24 24" style="enable-background:new 0 0 24 24;" xml:space="preserve">
<path style="fill:#333333;" d="M7.793,21.179c-1.555,0-3.001-1.105-3.881-2.212c-0.526-0.72-0.718-1.529-0.575-2.366
	c0.119-0.692,0.462-1.361,0.903-1.956c-0.296-0.049-0.556-0.148-0.779-0.3C3.016,14.043,2.75,13.54,2.75,13l0.013-0.14
	c0.339-1.791-0.079-3-0.379-3.432c-1.399-1.788-1.036-3.324-0.433-3.94C2.375,5.006,2.965,4.76,3.619,4.77
	c2.653,0.045,6.58,4.375,8.381,6.542c1.802-2.167,5.729-6.498,8.381-6.542c0.683-0.039,1.264,0.245,1.689,0.744
	c0.569,0.542,0.968,2.099-0.479,3.949c-0.275,0.398-0.693,1.608-0.354,3.398L21.25,13c0,0.54-0.266,1.043-0.711,1.345
	c-0.224,0.15-0.483,0.251-0.779,0.3c0.441,0.595,0.784,1.264,0.902,1.955c0.144,0.837-0.049,1.647-0.557,2.343
	c-0.979,1.234-2.616,2.448-4.339,2.206c-1.444-0.199-2.607-1.329-3.458-3.358l-0.308-0.614l-0.33,0.659
	c-0.83,1.984-1.993,3.114-3.437,3.313C8.086,21.169,7.939,21.179,7.793,21.179z M6.222,12.804l0.702,1.315
	c-0.895,0.612-1.936,1.73-2.108,2.734c-0.075,0.44,0.02,0.834,0.29,1.204c0.653,0.821,1.823,1.762,2.923,1.604
	c1.098-0.151,1.846-1.417,2.279-2.452l1.021-2.045h1.342l1,2c0.455,1.08,1.202,2.346,2.301,2.497
	c1.091,0.162,2.27-0.782,2.941-1.629c0.252-0.346,0.347-0.74,0.271-1.18c-0.172-1.005-1.213-2.122-2.107-2.734l0.702-1.315
	c1.442,0.575,1.875,0.33,1.919,0.299c0.012-0.008,0.036-0.024,0.048-0.062c-0.371-2.079,0.083-3.667,0.639-4.468
	c0.936-1.198,0.705-1.909,0.593-2.035c-0.181-0.207-0.315-0.272-0.57-0.268c-1.732,0.03-5.269,3.493-7.819,6.698L12,13.704
	l-0.587-0.737c-2.551-3.205-6.086-6.668-7.82-6.698C3.373,6.273,3.204,6.331,3.07,6.487L3.022,6.539
	c-0.112,0.13-0.338,0.839,0.569,2c0.581,0.833,1.035,2.422,0.665,4.502c0.011,0.038,0.036,0.055,0.047,0.062
	C4.347,13.134,4.777,13.381,6.222,12.804z"/>
<path style="fill:#333333;" d="M11.269,11.572c-0.197-2.035,1.201-5.625,2.933-7.533c0.776-0.855,1.55-1.289,2.298-1.289v1.5
	c-0.29,0-0.734,0.298-1.188,0.797c-1.444,1.591-2.708,4.752-2.551,6.38L11.269,11.572z"/>
<path style="fill:#333333;" d="M12.73,11.573l-1.493-0.146C11.396,9.8,10.133,6.64,8.688,5.048C8.235,4.548,7.791,4.25,7.5,4.25
	v-1.5c0.749,0,1.522,0.434,2.299,1.29C11.531,5.948,12.928,9.539,12.73,11.573z"/>
</svg>






