<?xml version="1.0" encoding="iso-8859-1"?>
<svg version="1.1" id="&#x56FE;&#x5C42;_1" xmlns="http://www.w3.org/2000/svg" xmlns:xlink="http://www.w3.org/1999/xlink" x="0px"
	 y="0px" viewBox="0 0 24 24" style="enable-background:new 0 0 24 24;" xml:space="preserve">
<path style="fill:#333333;" d="M1.75,20.607V2.392l4,1.6v15.016L1.75,20.607z M3.25,4.608v13.785l1-0.4V5.008L3.25,4.608z"/>
<path style="fill:#333333;" d="M7.25,20.607V10.392l4,1.6v7.016L7.25,20.607z M8.75,12.607v5.785l1-0.4v-4.984L8.75,12.607z"/>
<path style="fill:#333333;" d="M16.75,18.607l-4-1.6V9.992l4-1.6V18.607z M14.25,15.992l1,0.4v-5.785l-1,0.4V15.992z"/>
<path style="fill:#333333;" d="M18.25,20.607V3.392l4,1.6v14.016L18.25,20.607z M19.75,5.608v12.785l1-0.4V6.008L19.75,5.608z"/>
</svg>






