<?xml version="1.0" encoding="iso-8859-1"?>
<svg version="1.1" id="&#x56FE;&#x5C42;_1" xmlns="http://www.w3.org/2000/svg" xmlns:xlink="http://www.w3.org/1999/xlink" x="0px"
	 y="0px" viewBox="0 0 24 24" style="enable-background:new 0 0 24 24;" xml:space="preserve">
<path style="fill:#333333;" d="M12,22.75C6.072,22.75,1.25,17.928,1.25,12S6.072,1.25,12,1.25S22.75,6.072,22.75,12
	S17.928,22.75,12,22.75z M12,2.75c-5.101,0-9.25,4.149-9.25,9.25s4.149,9.25,9.25,9.25s9.25-4.149,9.25-9.25S17.101,2.75,12,2.75z"
	/>
<rect x="10.5" y="11.25" transform="matrix(0.7071 -0.7071 0.7071 0.7071 -4.9706 12)" style="fill:#333333;" width="3" height="1.5"/>
<path style="fill:#333333;" d="M16.772,13.944l-1.061-1.061l0.707-0.707c0.236-0.236,0.366-0.55,0.366-0.884
	s-0.13-0.647-0.366-0.884l-2.828-2.829c-0.488-0.487-1.279-0.487-1.768,0l-0.707,0.707l-1.061-1.061l0.707-0.707
	c1.072-1.072,2.816-1.072,3.889,0l2.828,2.829c0.52,0.519,0.806,1.209,0.806,1.944c0,0.734-0.286,1.425-0.806,1.944L16.772,13.944z"
	/>
<path style="fill:#333333;" d="M11.292,18.284c-0.704,0-1.408-0.268-1.944-0.804L6.52,14.651c-1.072-1.072-1.072-2.816,0-3.889
	l0.707-0.707l1.061,1.061l-0.707,0.707c-0.487,0.487-0.487,1.28,0,1.768l2.828,2.829c0.487,0.486,1.28,0.485,1.768,0l0.707-0.708
	l1.061,1.061l-0.707,0.708C12.701,18.016,11.997,18.284,11.292,18.284z"/>
</svg>






