<?xml version="1.0" encoding="iso-8859-1"?>
<svg version="1.1" id="&#x56FE;&#x5C42;_1" xmlns="http://www.w3.org/2000/svg" xmlns:xlink="http://www.w3.org/1999/xlink" x="0px"
	 y="0px" viewBox="0 0 24 24" style="enable-background:new 0 0 24 24;" xml:space="preserve">
<path style="fill:#333333;" d="M17.36,21.75H6.64c-0.68,0-1.304-0.399-1.589-1.017l-2.539-5.5c-0.215-0.466-0.215-1.001,0-1.467
	l2.539-5.5C5.336,7.649,5.959,7.25,6.64,7.25H17.36c0.68,0,1.303,0.399,1.589,1.016l2.538,5.5c0.216,0.466,0.216,1.001,0,1.468
	l-2.538,5.499C18.663,21.352,18.04,21.75,17.36,21.75z M6.64,8.75c-0.097,0-0.186,0.057-0.227,0.146l-2.539,5.5
	c-0.031,0.066-0.031,0.143,0,0.209l2.539,5.5c0.041,0.089,0.129,0.146,0.227,0.146H17.36c0.098,0,0.187-0.058,0.228-0.146
	l2.538-5.499c0.03-0.066,0.03-0.143,0-0.208l-2.538-5.501c-0.041-0.088-0.13-0.146-0.228-0.146H6.64z"/>
<polygon style="fill:#333333;" points="9.75,17.25 4,17.25 4,15.75 8.25,15.75 8.25,12.25 4.5,12.25 4.5,10.75 9.75,10.75 "/>
<polygon style="fill:#333333;" points="20,16.75 11.75,16.75 11.75,10.75 19.5,10.75 19.5,12.25 13.25,12.25 13.25,15.25 20,15.25 
	"/>
<path style="fill:#333333;" d="M5.034,5.273c-0.671,0-1.042-0.022-1.08-0.024l0.092-1.497c0.023,0,2.31,0.132,6.152-0.3
	c3.829-0.431,8.496-2.138,8.543-2.155l0.519,1.407c-0.198,0.073-4.882,1.787-8.894,2.238C7.921,5.218,6.099,5.273,5.034,5.273z"/>
<polygon style="fill:#333333;" points="12.539,8.592 8.04,5.092 8.96,3.908 12.25,6.466 12.25,4 13.75,4 13.75,8 "/>
<path style="fill:#333333;" d="M3.819,18.064l-1.307-2.831c-0.215-0.466-0.215-1.001,0-1.467l2.114-4.581l1.362,0.629l-2.114,4.581
	c-0.031,0.066-0.031,0.143,0,0.209l1.307,2.831L3.819,18.064z"/>
<path style="fill:#333333;" d="M20.181,18.064l-1.361-0.629l1.307-2.831c0.03-0.066,0.03-0.143,0-0.208l-2.114-4.582l1.361-0.629
	l2.114,4.581c0.216,0.466,0.216,1.001,0,1.468L20.181,18.064z"/>
</svg>






