<?xml version="1.0" encoding="iso-8859-1"?>
<svg version="1.1" id="&#x56FE;&#x5C42;_1" xmlns="http://www.w3.org/2000/svg" xmlns:xlink="http://www.w3.org/1999/xlink" x="0px"
	 y="0px" viewBox="0 0 24 24" style="enable-background:new 0 0 24 24;" xml:space="preserve">
<rect x="4" y="20.75" style="fill:#333333;" width="16" height="1.5"/>
<path style="fill:#333333;" d="M8,15.75c-5.75,0-5.75-5.63-5.75-7.75h1.5c0,3.751,0.723,6.25,4.25,6.25V15.75z"/>
<path style="fill:#333333;" d="M16,17.75v-1.5c4.25,0,4.25-6.962,4.25-9.25h1.5C21.75,9.659,21.75,17.75,16,17.75z"/>
<path style="fill:#333333;" d="M16.75,22.25h-9.5V6.5c0-2.619,2.131-4.75,4.75-4.75s4.75,2.131,4.75,4.75V22.25z M8.75,20.75h6.5
	V6.5c0-1.792-1.458-3.25-3.25-3.25S8.75,4.708,8.75,6.5V20.75z"/>
</svg>






