<?xml version="1.0" encoding="iso-8859-1"?>
<svg version="1.1" id="&#x56FE;&#x5C42;_1" xmlns="http://www.w3.org/2000/svg" xmlns:xlink="http://www.w3.org/1999/xlink" x="0px"
	 y="0px" viewBox="0 0 24 24" style="enable-background:new 0 0 24 24;" xml:space="preserve">
<path style="fill:#333333;" d="M18.5,18.75h-13c-0.965,0-1.75-0.785-1.75-1.75V8c0-0.965,0.785-1.75,1.75-1.75h13
	c0.965,0,1.75,0.785,1.75,1.75v9C20.25,17.965,19.465,18.75,18.5,18.75z M5.5,7.75C5.362,7.75,5.25,7.862,5.25,8v9
	c0,0.138,0.112,0.25,0.25,0.25h13c0.138,0,0.25-0.112,0.25-0.25V8c0-0.138-0.112-0.25-0.25-0.25H5.5z"/>
<rect x="3" y="17.25" style="fill:#333333;" width="18" height="1.5"/>
<rect x="3" y="20.25" style="fill:#333333;" width="18" height="1.5"/>
<polygon style="fill:#333333;" points="17.25,15.25 12.75,15.25 12.75,11.25 11.25,11.25 11.25,13.75 6.75,13.75 6.75,11.25 
	4.5,11.25 4.5,9.75 8.25,9.75 8.25,12.25 9.75,12.25 9.75,9.75 14.25,9.75 14.25,13.75 15.75,13.75 15.75,9.75 19.5,9.75 
	19.5,11.25 17.25,11.25 "/>
<rect x="3.75" y="9.5" style="fill:#333333;" width="1.5" height="2"/>
<rect x="18.75" y="9.5" style="fill:#333333;" width="1.5" height="2"/>
<rect x="15.75" y="4" style="fill:#333333;" width="1.5" height="3"/>
<rect x="11.25" y="2" style="fill:#333333;" width="1.5" height="5"/>
<rect x="6.75" y="4" style="fill:#333333;" width="1.5" height="3"/>
</svg>






