<?xml version="1.0" encoding="iso-8859-1"?>
<svg version="1.1" id="&#x56FE;&#x5C42;_1" xmlns="http://www.w3.org/2000/svg" xmlns:xlink="http://www.w3.org/1999/xlink" x="0px"
	 y="0px" viewBox="0 0 24 24" style="enable-background:new 0 0 24 24;" xml:space="preserve">
<polygon style="fill:#333333;" points="19.5,11.7 4.5,11.7 4.199,10.264 13.198,6.313 13.802,7.687 8.075,10.2 18.03,10.2 
	16.393,7.94 17.607,7.06 20.107,10.51 "/>
<g>
	<circle style="fill:#333333;" cx="15.5" cy="6.5" r="2"/>
	<path style="fill:#333333;" d="M15.5,9.25c-1.517,0-2.75-1.233-2.75-2.75s1.233-2.75,2.75-2.75s2.75,1.233,2.75,2.75
		S17.017,9.25,15.5,9.25z M15.5,5.25c-0.689,0-1.25,0.561-1.25,1.25s0.561,1.25,1.25,1.25s1.25-0.561,1.25-1.25
		S16.189,5.25,15.5,5.25z"/>
</g>
<rect x="15.654" y="2.5" transform="matrix(0.3712 -0.9286 0.9286 0.3712 7.6723 17.8293)" style="fill:#333333;" width="2.693" height="1.5"/>
<path style="fill:#333333;" d="M12,22.25c-6.028,0-10.75-2.416-10.75-5.5c0-1.278,0.778-2.461,2.251-3.422
	c0.281-0.184,0.586-0.356,0.913-0.521l0.671,1.342c-0.274,0.137-0.53,0.282-0.765,0.435c-0.716,0.468-1.57,1.223-1.57,2.166
	c0,1.892,3.799,4,9.25,4s9.25-2.108,9.25-4c0-0.757-0.586-1.544-1.65-2.217l0.801-1.268c1.537,0.972,2.35,2.177,2.35,3.484
	C22.75,19.834,18.028,22.25,12,22.25z"/>
<path style="fill:#333333;" d="M20.25,17.75H3.75v-7.5h16.5V17.75z M5.25,16.25h13.5v-4.5H5.25V16.25z"/>
<rect x="4.5" y="10.25" style="fill:#333333;" width="15.5" height="1.5"/>
</svg>






