<?xml version="1.0" encoding="iso-8859-1"?>
<svg version="1.1" id="&#x56FE;&#x5C42;_1" xmlns="http://www.w3.org/2000/svg" xmlns:xlink="http://www.w3.org/1999/xlink" x="0px"
	 y="0px" viewBox="0 0 24 24" style="enable-background:new 0 0 24 24;" xml:space="preserve">
<path style="fill:#333333;" d="M17.465,21.75H6.535c-0.756,0-1.423-0.482-1.662-1.199l-2.585-7.815l1.424-0.471l2.585,7.814
	c0.034,0.102,0.129,0.171,0.238,0.171h10.93c0.108,0,0.203-0.068,0.237-0.17l2.586-7.815l1.424,0.471l-2.586,7.814
	C18.89,21.268,18.222,21.75,17.465,21.75z"/>
<path style="fill:#333333;" d="M12,15.672c-1.302,0-2.604-0.454-3.643-1.363c-0.734-0.643-1.677-0.997-2.654-0.997H3.158
	c-0.243,0-0.479-0.1-0.648-0.272c-0.169-0.173-0.263-0.411-0.258-0.653c0.087-3.793,2.925-7.053,7.062-8.112L9.5,4.25l5.207,0.029
	c4.055,1.167,6.95,4.5,7.041,8.105c0.005,0.243-0.089,0.48-0.258,0.653c-0.17,0.174-0.406,0.273-0.648,0.273h-2.545
	c-0.978,0-1.92,0.354-2.654,0.997C14.604,15.218,13.302,15.672,12,15.672z M3.797,11.812h1.907c1.341,0,2.634,0.486,3.642,1.368
	c1.513,1.325,3.796,1.324,5.309,0c1.008-0.882,2.302-1.368,3.643-1.368h1.902c-0.364-2.691-2.662-5.121-5.807-6.062H9.596
	C6.446,6.591,4.148,9.023,3.797,11.812z"/>
<path style="fill:#333333;" d="M8.815,5.149C8.772,4.939,8.75,4.722,8.75,4.5c0-1.792,1.458-3.25,3.25-3.25s3.25,1.458,3.25,3.25
	c0,0.222-0.022,0.438-0.064,0.646l-1.471-0.293C13.737,4.739,13.75,4.621,13.75,4.5c0-0.965-0.785-1.75-1.75-1.75
	s-1.75,0.785-1.75,1.75c0,0.121,0.012,0.238,0.035,0.351L8.815,5.149z"/>
</svg>






