<?xml version="1.0" encoding="iso-8859-1"?>
<svg version="1.1" id="&#x56FE;&#x5C42;_1" xmlns="http://www.w3.org/2000/svg" xmlns:xlink="http://www.w3.org/1999/xlink" x="0px"
	 y="0px" viewBox="0 0 24 24" style="enable-background:new 0 0 24 24;" xml:space="preserve">
<path style="fill:#333333;" d="M20.75,15.75h-17V8.465l11.97-5.373l5.03,5.569V15.75z M5.25,14.25h14V9.239l-3.911-4.331L5.25,9.436
	V14.25z"/>
<path style="fill:#333333;" d="M14.688,13c-1.206,0-2.188-0.981-2.188-2.188V9.75h-8v-1.5h9.443L14,9.057v1.755
	c0,0.379,0.309,0.688,0.688,0.688s0.688-0.309,0.688-0.688V8.307l0.807-0.057H20v1.5h-3.125v1.062
	C16.875,12.019,15.894,13,14.688,13z"/>
<path style="fill:#333333;" d="M12,20.75c-6.028,0-10.75-2.416-10.75-5.5c0-1.278,0.778-2.461,2.251-3.422
	c0.281-0.183,0.586-0.357,0.913-0.521l0.671,1.342c-0.274,0.137-0.53,0.282-0.765,0.435c-0.716,0.468-1.57,1.223-1.57,2.166
	c0,1.892,3.799,4,9.25,4s9.25-2.108,9.25-4c0-0.757-0.586-1.544-1.65-2.217l0.801-1.268c1.537,0.972,2.35,2.177,2.35,3.484
	C22.75,18.334,18.028,20.75,12,20.75z"/>
</svg>






