<?xml version="1.0" encoding="iso-8859-1"?>
<svg version="1.1" id="&#x56FE;&#x5C42;_1" xmlns="http://www.w3.org/2000/svg" xmlns:xlink="http://www.w3.org/1999/xlink" x="0px"
	 y="0px" viewBox="0 0 24 24" style="enable-background:new 0 0 24 24;" xml:space="preserve">
<path style="fill:#333333;" d="M17.728,22.75H6.272l-2.757-10h16.969L17.728,22.75z M7.415,21.25h9.17l1.931-7H5.485L7.415,21.25z"
	/>
<path style="fill:#333333;" d="M20.25,14.25H3.75V13.5c0-2.538,1.929-3.96,2.789-4.469C6.788,7.421,8.276,4.75,12,4.75
	s5.212,2.671,5.461,4.281c0.86,0.508,2.789,1.931,2.789,4.469V14.25z M5.338,12.75h13.323c-0.413-1.709-2.141-2.53-2.224-2.568
	L16.003,9.98L16,9.5c0-0.645-0.712-3.25-4-3.25S8,8.855,8,9.5v0.483l-0.439,0.2C7.479,10.22,5.752,11.041,5.338,12.75z"/>
<rect x="3" y="12.75" style="fill:#333333;" width="18" height="1.5"/>
<path style="fill:#333333;" d="M14.75,6h-1.5c0-0.689-0.561-1.25-1.25-1.25S10.75,5.311,10.75,6h-1.5c0-1.517,1.233-2.75,2.75-2.75
	S14.75,4.483,14.75,6z"/>
<rect x="11.586" y="2.25" transform="matrix(0.7071 -0.7071 0.7071 0.7071 1.6863 10.0711)" style="fill:#333333;" width="2.828" height="1.5"/>
<rect x="9.25" y="13.5" style="fill:#333333;" width="1.5" height="8.5"/>
<rect x="13.25" y="13.5" style="fill:#333333;" width="1.5" height="8.5"/>
</svg>






