<?xml version="1.0" encoding="iso-8859-1"?>
<svg version="1.1" id="&#x56FE;&#x5C42;_1" xmlns="http://www.w3.org/2000/svg" xmlns:xlink="http://www.w3.org/1999/xlink" x="0px"
	 y="0px" viewBox="0 0 24 24" style="enable-background:new 0 0 24 24;" xml:space="preserve">
<path style="fill:#333333;" d="M20,22.75H4c-0.965,0-1.75-0.785-1.75-1.75V3c0-0.965,0.785-1.75,1.75-1.75h16
	c0.965,0,1.75,0.785,1.75,1.75v18C21.75,21.965,20.965,22.75,20,22.75z M4,2.75C3.862,2.75,3.75,2.862,3.75,3v18
	c0,0.138,0.112,0.25,0.25,0.25h16c0.138,0,0.25-0.112,0.25-0.25V3c0-0.138-0.112-0.25-0.25-0.25H4z"/>
<path style="fill:#333333;" d="M18.25,10.25H5.75v-6h12.5V10.25z M7.25,8.75h9.5v-3h-9.5V8.75z"/>
<rect x="7" y="13.275" transform="matrix(0.7071 -0.7071 0.7071 0.7071 -8.867 10.0931)" style="fill:#333333;" width="1.5" height="4.95"/>
<rect x="5.275" y="15" transform="matrix(0.7071 -0.7071 0.7071 0.7071 -8.867 10.0931)" style="fill:#333333;" width="4.95" height="1.5"/>
<rect x="14" y="16.75" style="fill:#333333;" width="4" height="1.5"/>
<rect x="14" y="13.75" style="fill:#333333;" width="4" height="1.5"/>
</svg>






