<?xml version="1.0" encoding="iso-8859-1"?>
<svg version="1.1" id="&#x56FE;&#x5C42;_1" xmlns="http://www.w3.org/2000/svg" xmlns:xlink="http://www.w3.org/1999/xlink" x="0px"
	 y="0px" viewBox="0 0 24 24" style="enable-background:new 0 0 24 24;" xml:space="preserve">
<path style="fill:#333333;" d="M21,22.75H3c-0.965,0-1.75-0.785-1.75-1.75V3c0-0.965,0.785-1.75,1.75-1.75h18
	c0.965,0,1.75,0.785,1.75,1.75v18C22.75,21.965,21.965,22.75,21,22.75z M3,2.75C2.862,2.75,2.75,2.862,2.75,3v18
	c0,0.138,0.112,0.25,0.25,0.25h18c0.138,0,0.25-0.112,0.25-0.25V3c0-0.138-0.112-0.25-0.25-0.25H3z"/>
<rect x="2" y="6.25" style="fill:#333333;" width="20" height="1.5"/>
<rect x="1.25" y="5.5" style="fill:#333333;" width="1.5" height="6"/>
<rect x="21.25" y="5.5" style="fill:#333333;" width="1.5" height="6"/>
<path style="fill:#333333;" d="M18.75,18.75h-5.5v-8.5h5.5V18.75z M14.75,17.25h2.5v-5.5h-2.5V17.25z"/>
<polygon style="fill:#333333;" points="10.75,18.75 6,18.75 6,17.25 9.25,17.25 9.25,11.75 6,11.75 6,10.25 10.75,10.25 "/>
<rect x="7" y="13.75" style="fill:#333333;" width="3" height="1.5"/>
</svg>






