<?xml version="1.0" encoding="iso-8859-1"?>
<svg version="1.1" id="&#x56FE;&#x5C42;_1" xmlns="http://www.w3.org/2000/svg" xmlns:xlink="http://www.w3.org/1999/xlink" x="0px"
	 y="0px" viewBox="0 0 24 24" style="enable-background:new 0 0 24 24;" xml:space="preserve">
<path style="fill:#333333;" d="M20,20.75H4c-0.965,0-1.75-0.785-1.75-1.75V8c0-0.965,0.785-1.75,1.75-1.75h16
	c0.965,0,1.75,0.785,1.75,1.75v11C21.75,19.965,20.965,20.75,20,20.75z M4,7.75C3.862,7.75,3.75,7.862,3.75,8v11
	c0,0.138,0.112,0.25,0.25,0.25h16c0.138,0,0.25-0.112,0.25-0.25V8c0-0.138-0.112-0.25-0.25-0.25H4z"/>
<path style="fill:#333333;" d="M12.068,7.75H3.932l1.625-4.5h4.886L12.068,7.75z M6.068,6.25h3.863L9.39,4.75H6.61L6.068,6.25z"/>
<path style="fill:#333333;" d="M14.5,17.75c-2.344,0-4.25-1.906-4.25-4.25c0-2.343,1.906-4.25,4.25-4.25s4.25,1.907,4.25,4.25
	C18.75,15.844,16.844,17.75,14.5,17.75z M14.5,10.75c-1.517,0-2.75,1.233-2.75,2.75s1.233,2.75,2.75,2.75s2.75-1.233,2.75-2.75
	S16.017,10.75,14.5,10.75z"/>
<rect x="17.25" y="5" style="fill:#333333;" width="1.5" height="2"/>
</svg>






