<?xml version="1.0" encoding="iso-8859-1"?>
<svg version="1.1" id="&#x56FE;&#x5C42;_1" xmlns="http://www.w3.org/2000/svg" xmlns:xlink="http://www.w3.org/1999/xlink" x="0px"
	 y="0px" viewBox="0 0 24 24" style="enable-background:new 0 0 24 24;" xml:space="preserve">
<path style="fill:#333333;" d="M12,17.25c-4.273,0-7.75-3.477-7.75-7.75S7.727,1.75,12,1.75s7.75,3.477,7.75,7.75
	S16.273,17.25,12,17.25z M12,3.25c-3.446,0-6.25,2.804-6.25,6.25s2.804,6.25,6.25,6.25s6.25-2.804,6.25-6.25S15.446,3.25,12,3.25z"
	/>
<path style="fill:#333333;" d="M12,13.25c-2.068,0-3.75-1.682-3.75-3.75S9.932,5.75,12,5.75c2.067,0,3.75,1.682,3.75,3.75
	S14.067,13.25,12,13.25z M12,7.25c-1.241,0-2.25,1.009-2.25,2.25s1.009,2.25,2.25,2.25c1.24,0,2.25-1.009,2.25-2.25
	S13.24,7.25,12,7.25z"/>
<polygon style="fill:#333333;" points="19.714,22.25 4.287,22.25 7.829,15.165 9.171,15.835 6.713,20.75 17.286,20.75 
	14.829,15.835 16.171,15.165 "/>
</svg>






