<?xml version="1.0" encoding="iso-8859-1"?>
<svg version="1.1" id="&#x56FE;&#x5C42;_1" xmlns="http://www.w3.org/2000/svg" xmlns:xlink="http://www.w3.org/1999/xlink" x="0px"
	 y="0px" viewBox="0 0 24 24" style="enable-background:new 0 0 24 24;" xml:space="preserve">
<path style="fill:#333333;" d="M12,18.75c-3.722,0-6.75-3.028-6.75-6.75V8c0-3.722,3.028-6.75,6.75-6.75
	c3.722,0,6.75,3.028,6.75,6.75v4C18.75,15.722,15.722,18.75,12,18.75z M12,2.75C9.105,2.75,6.75,5.105,6.75,8v4
	c0,2.895,2.355,5.25,5.25,5.25c2.895,0,5.25-2.355,5.25-5.25V8C17.25,5.105,14.895,2.75,12,2.75z"/>
<rect x="11.25" y="18" style="fill:#333333;" width="1.5" height="4"/>
<rect x="8" y="21.25" style="fill:#333333;" width="8" height="1.5"/>
<path style="fill:#333333;" d="M12,12.25c-2.068,0-3.75-1.682-3.75-3.75S9.932,4.75,12,4.75c2.067,0,3.75,1.682,3.75,3.75
	S14.067,12.25,12,12.25z M12,6.25c-1.241,0-2.25,1.009-2.25,2.25s1.009,2.25,2.25,2.25c1.24,0,2.25-1.009,2.25-2.25
	S13.24,6.25,12,6.25z"/>
<circle style="fill:#333333;" cx="12" cy="14.5" r="1"/>
</svg>






