<?xml version="1.0" encoding="iso-8859-1"?>
<svg version="1.1" id="&#x56FE;&#x5C42;_1" xmlns="http://www.w3.org/2000/svg" xmlns:xlink="http://www.w3.org/1999/xlink" x="0px"
	 y="0px" viewBox="0 0 24 24" style="enable-background:new 0 0 24 24;" xml:space="preserve">
<path style="fill:#333333;" d="M12,19.25c-4.825,0-8.75-3.925-8.75-8.75c0-4.825,3.925-8.75,8.75-8.75c4.825,0,8.75,3.925,8.75,8.75
	C20.75,15.325,16.825,19.25,12,19.25z M12,3.25c-3.998,0-7.25,3.252-7.25,7.25c0,3.998,3.252,7.25,7.25,7.25
	c3.998,0,7.25-3.252,7.25-7.25C19.25,6.502,15.998,3.25,12,3.25z"/>
<path style="fill:#333333;" d="M12,14.75c-2.343,0-4.25-1.906-4.25-4.25c0-2.343,1.907-4.25,4.25-4.25c2.344,0,4.25,1.907,4.25,4.25
	C16.25,12.844,14.344,14.75,12,14.75z M12,7.75c-1.517,0-2.75,1.233-2.75,2.75s1.233,2.75,2.75,2.75s2.75-1.233,2.75-2.75
	S13.517,7.75,12,7.75z"/>
<rect x="8" y="20.75" style="fill:#333333;" width="8" height="1.5"/>
<rect x="11.25" y="18.5" style="fill:#333333;" width="1.5" height="3"/>
</svg>






