<?xml version="1.0" encoding="iso-8859-1"?>
<svg version="1.1" id="&#x56FE;&#x5C42;_1" xmlns="http://www.w3.org/2000/svg" xmlns:xlink="http://www.w3.org/1999/xlink" x="0px"
	 y="0px" viewBox="0 0 24 24" style="enable-background:new 0 0 24 24;" xml:space="preserve">
<polygon style="fill:#333333;" points="22,18.25 19.561,18.25 12,4.782 4.439,18.25 2,18.25 2,16.75 3.561,16.75 11.346,2.883 
	12.654,2.883 20.439,16.75 22,16.75 "/>
<path style="fill:#333333;" d="M15.25,21.25h-6.5V19.5c0-2.663,1.428-4.75,3.25-4.75s3.25,2.087,3.25,4.75V21.25z M10.25,19.75h3.5
	V19.5c0-1.915-0.922-3.25-1.75-3.25c-0.828,0-1.75,1.335-1.75,3.25V19.75z"/>
<rect x="2" y="19.75" style="fill:#333333;" width="20" height="1.5"/>
<path style="fill:#333333;" d="M16.032,12.086C15.392,11.575,13.419,10.25,12,10.25c-1.425,0-3.393,1.325-4.031,1.836l-0.938-1.171
	C7.142,10.826,9.763,8.75,12,8.75s4.858,2.076,4.969,2.165L16.032,12.086z"/>
<polygon style="fill:#333333;" points="19.376,6.416 18.099,4.5 19.376,2.584 20.624,3.416 19.901,4.5 20.624,5.584 "/>
<polygon style="fill:#333333;" points="20.624,6.416 19.376,5.584 20.099,4.5 19.376,3.416 20.624,2.584 21.901,4.5 "/>
<polygon style="fill:#333333;" points="2.829,10.835 2.162,9.5 2.829,8.165 4.171,8.835 3.838,9.5 4.171,10.165 "/>
<polygon style="fill:#333333;" points="4.171,10.835 2.829,10.165 3.162,9.5 2.829,8.835 4.171,8.165 4.838,9.5 "/>
</svg>






