<?xml version="1.0" encoding="iso-8859-1"?>
<svg version="1.1" id="&#x56FE;&#x5C42;_1" xmlns="http://www.w3.org/2000/svg" xmlns:xlink="http://www.w3.org/1999/xlink" x="0px"
	 y="0px" viewBox="0 0 24 24" style="enable-background:new 0 0 24 24;" xml:space="preserve">
<path style="fill:#333333;" d="M12,17.75c-3.17,0-5.75-2.579-5.75-5.75c0-3.17,2.58-5.75,5.75-5.75c3.171,0,5.75,2.58,5.75,5.75
	C17.75,15.171,15.171,17.75,12,17.75z M12,7.75c-2.343,0-4.25,1.907-4.25,4.25c0,2.344,1.907,4.25,4.25,4.25
	c2.344,0,4.25-1.906,4.25-4.25C16.25,9.657,14.344,7.75,12,7.75z"/>
<path style="fill:#333333;" d="M12,14.75c-1.517,0-2.75-1.233-2.75-2.75h1.5c0,0.689,0.561,1.25,1.25,1.25V14.75z"/>
<path style="fill:#333333;" d="M9.229,9.292L1.847,8.226L1.424,6.953l5.467-5.467l1.272,0.423L9.229,9.292z M3.543,6.955
	l3.915,0.565L6.893,3.605L3.543,6.955z"/>
<path style="fill:#333333;" d="M17.109,22.576l-1.272-0.423l-1.066-7.383l7.383,1.066l0.423,1.272L17.109,22.576z M16.542,16.542
	l0.565,3.915l3.35-3.35L16.542,16.542z"/>
</svg>






