<?xml version="1.0" encoding="iso-8859-1"?>
<svg version="1.1" id="&#x56FE;&#x5C42;_1" xmlns="http://www.w3.org/2000/svg" xmlns:xlink="http://www.w3.org/1999/xlink" x="0px"
	 y="0px" viewBox="0 0 24 24" style="enable-background:new 0 0 24 24;" xml:space="preserve">
<path style="fill:#333333;" d="M9.75,5.5h-1.5c0-1.241-1.009-2.25-2.25-2.25S3.75,4.259,3.75,5.5h-1.5c0-2.068,1.682-3.75,3.75-3.75
	S9.75,3.432,9.75,5.5z"/>
<rect x="8.25" y="5.5" style="fill:#333333;" width="1.5" height="9"/>
<path style="fill:#333333;" d="M15.75,5.5h-1.5c0-1.241-1.01-2.25-2.25-2.25c-1.241,0-2.25,1.009-2.25,2.25h-1.5
	c0-2.068,1.682-3.75,3.75-3.75C14.067,1.75,15.75,3.432,15.75,5.5z"/>
<path style="fill:#333333;" d="M11,22.25v-1.5c3.127,0,3.247-2.584,3.25-2.879V5.5h1.5v12.375C15.75,19.389,14.757,22.25,11,22.25z"
	/>
<path style="fill:#333333;" d="M18,18.75c-2.067,0-3.75-1.683-3.75-3.75s1.683-3.75,3.75-3.75s3.75,1.683,3.75,3.75
	S20.067,18.75,18,18.75z M18,12.75c-1.24,0-2.25,1.01-2.25,2.25s1.01,2.25,2.25,2.25s2.25-1.01,2.25-2.25S19.24,12.75,18,12.75z"/>
</svg>






