<?xml version="1.0" encoding="iso-8859-1"?>
<svg version="1.1" id="&#x56FE;&#x5C42;_1" xmlns="http://www.w3.org/2000/svg" xmlns:xlink="http://www.w3.org/1999/xlink" x="0px"
	 y="0px" viewBox="0 0 24 24" style="enable-background:new 0 0 24 24;" xml:space="preserve">
<path style="fill-rule:evenodd;clip-rule:evenodd;fill:#333333;" d="M6.75,16C7.44,16,8,15.44,8,14.75S7.44,13.5,6.75,13.5
	S5.5,14.06,5.5,14.75S6.06,16,6.75,16z"/>
<path style="fill-rule:evenodd;clip-rule:evenodd;fill:#333333;" d="M17.25,16c0.69,0,1.25-0.56,1.25-1.25s-0.56-1.25-1.25-1.25
	S16,14.06,16,14.75S16.56,16,17.25,16z"/>
<path style="fill:#333333;" d="M17.501,21.75c-1.433,0-2.613-1.101-2.739-2.5H9.239c-0.126,1.399-1.307,2.5-2.739,2.5
	c-1.432,0-2.612-1.101-2.738-2.5H3.5c-1.241,0-2.25-1.01-2.25-2.25v-4.646c0-1.43,0.794-2.715,2.074-3.354L3.35,8.987l1.075-4.611
	C4.716,3.124,5.818,2.25,7.103,2.25h9.844c1.298,0,2.401,0.884,2.685,2.15L20.677,9c1.279,0.639,2.073,1.925,2.073,3.354V17
	c0,1.24-1.01,2.25-2.25,2.25h-0.26C20.114,20.649,18.934,21.75,17.501,21.75z M7.75,17.75h8.5V19c0,0.689,0.562,1.25,1.251,1.25
	s1.251-0.561,1.251-1.25v-1.25H20.5c0.413,0,0.75-0.337,0.75-0.75v-4.646c0-0.858-0.477-1.629-1.243-2.013l-0.659-0.33l-1.181-5.285
	c-0.128-0.576-0.63-0.978-1.22-0.978H7.103c-0.584,0-1.085,0.397-1.217,0.966l-1.235,5.299l-0.657,0.327
	c-0.767,0.383-1.244,1.154-1.244,2.012V17c0,0.413,0.336,0.75,0.75,0.75h1.75V19c0,0.689,0.561,1.25,1.25,1.25
	c0.689,0,1.25-0.561,1.25-1.25V17.75z"/>
<path style="fill:#333333;" d="M17.935,11.75H6.065l1.029-4.629C7.273,6.313,7.976,5.75,8.802,5.75h6.396
	c0.826,0,1.528,0.563,1.708,1.371L17.935,11.75z M7.935,10.25h8.13l-0.624-2.804c-0.025-0.115-0.125-0.196-0.243-0.196H8.802
	c-0.118,0-0.218,0.081-0.244,0.196L7.935,10.25z"/>
</svg>






