<?xml version="1.0" encoding="iso-8859-1"?>
<svg version="1.1" id="&#x56FE;&#x5C42;_1" xmlns="http://www.w3.org/2000/svg" xmlns:xlink="http://www.w3.org/1999/xlink" x="0px"
	 y="0px" viewBox="0 0 24 24" style="enable-background:new 0 0 24 24;" xml:space="preserve">
<path style="fill:#333333;" d="M12,21.898l-0.413-0.272c-1.85-1.221-3.417-2.463-4.66-3.692L6.33,17.346l1.052-1.068l0.602,0.591
	c1.079,1.067,2.429,2.153,4.017,3.229c1.586-1.075,2.937-2.161,4.019-3.23l0.354-0.35c1.824-1.791,4.877-4.788,4.877-8.118
	c0-2.564-2.11-4.65-4.704-4.65c-1.581,0-3.048,0.778-3.923,2.083L12,6.759l-0.623-0.927C10.502,4.528,9.036,3.75,7.455,3.75
	C4.86,3.75,2.75,5.836,2.75,8.4c0,0.75,0.158,1.534,0.469,2.33c0.072,0.185,0.151,0.367,0.236,0.547l-1.356,0.64
	c-0.1-0.211-0.192-0.424-0.277-0.641C1.442,10.306,1.25,9.338,1.25,8.4c0-3.391,2.783-6.15,6.205-6.15
	c1.743,0,3.381,0.72,4.545,1.963c1.165-1.244,2.803-1.963,4.546-1.963c3.421,0,6.204,2.759,6.204,6.15
	c0,3.959-3.334,7.233-5.326,9.188l-0.35,0.346c-1.245,1.23-2.813,2.473-4.661,3.692L12,21.898z"/>
<polygon style="fill:#333333;" points="4.526,15.521 3.474,14.451 9.57,8.456 12.792,11.778 17.095,7.384 18.167,8.434 
	12.786,13.927 9.544,10.584 "/>
</svg>






