<?xml version="1.0" encoding="iso-8859-1"?>
<svg version="1.1" id="&#x56FE;&#x5C42;_1" xmlns="http://www.w3.org/2000/svg" xmlns:xlink="http://www.w3.org/1999/xlink" x="0px"
	 y="0px" viewBox="0 0 24 24" style="enable-background:new 0 0 24 24;" xml:space="preserve">
<path style="fill:#333333;" d="M21,19.25H3c-0.965,0-1.75-0.785-1.75-1.75v-12c0-0.965,0.785-1.75,1.75-1.75h18
	c0.965,0,1.75,0.785,1.75,1.75v12C22.75,18.465,21.965,19.25,21,19.25z M3,5.25c-0.138,0-0.25,0.112-0.25,0.25v12
	c0,0.138,0.112,0.25,0.25,0.25h18c0.138,0,0.25-0.112,0.25-0.25v-12c0-0.138-0.112-0.25-0.25-0.25H3z"/>
<path style="fill:#333333;" d="M14.75,15.25h-5.5v-7.5h5.5V15.25z M10.75,13.75h2.5v-4.5h-2.5V13.75z"/>
<polygon style="fill:#333333;" points="22,15.25 17.25,15.25 17.25,7.75 22,7.75 22,9.25 18.75,9.25 18.75,13.75 22,13.75 "/>
<polygon style="fill:#333333;" points="6.75,15.25 2,15.25 2,13.75 5.25,13.75 5.25,9.25 2,9.25 2,7.75 6.75,7.75 "/>
<rect x="1.25" y="6.5" style="fill:#333333;" width="1.5" height="10"/>
<rect x="21.25" y="6.5" style="fill:#333333;" width="1.5" height="10"/>
</svg>






