<?xml version="1.0" encoding="iso-8859-1"?>
<svg version="1.1" id="&#x56FE;&#x5C42;_1" xmlns="http://www.w3.org/2000/svg" xmlns:xlink="http://www.w3.org/1999/xlink" x="0px"
	 y="0px" viewBox="0 0 24 24" style="enable-background:new 0 0 24 24;" xml:space="preserve">
<path style="fill:#333333;" d="M12,22.75c-1.126,0-2.1-0.764-2.368-1.856L7.083,10.52C6.71,9,7.05,7.421,8.016,6.188
	C8.982,4.957,10.434,4.25,12,4.25c1.565,0,3.018,0.707,3.983,1.939C16.95,7.421,17.289,9,16.916,10.521l-2.548,10.373
	C14.1,21.986,13.126,22.75,12,22.75z M8.541,10.162l2.549,10.374c0.103,0.42,0.478,0.714,0.911,0.714
	c0.434,0,0.808-0.294,0.911-0.714l2.548-10.374c0.263-1.07,0.024-2.181-0.655-3.048C14.124,6.248,13.102,5.75,12,5.75
	c-1.102,0-2.124,0.497-2.803,1.364C8.517,7.981,8.277,9.092,8.541,10.162L8.541,10.162z"/>
<rect x="11.25" y="2" style="fill:#333333;" width="1.5" height="2.75"/>
<rect x="13.309" y="2.859" transform="matrix(0.6429 -0.766 0.766 0.6429 2.3677 12.2951)" style="fill:#333333;" width="2.121" height="1.499"/>
<rect x="8.932" y="2.548" transform="matrix(0.766 -0.6429 0.6429 0.766 -0.054 7.0684)" style="fill:#333333;" width="1.5" height="2.121"/>
<rect x="8" y="8.75" style="fill:#333333;" width="3" height="1.5"/>
<rect x="12.5" y="12.25" style="fill:#333333;" width="3" height="1.5"/>
<rect x="9.5" y="16.25" style="fill:#333333;" width="2" height="1.5"/>
</svg>






