<?xml version="1.0" encoding="iso-8859-1"?>
<svg version="1.1" id="&#x56FE;&#x5C42;_1" xmlns="http://www.w3.org/2000/svg" xmlns:xlink="http://www.w3.org/1999/xlink" x="0px"
	 y="0px" viewBox="0 0 24 24" style="enable-background:new 0 0 24 24;" xml:space="preserve">
<path style="fill:#333333;" d="M11.25,19.5h-1.5c0-3.998-3.252-7.25-7.25-7.25v-1.5C7.325,10.75,11.25,14.675,11.25,19.5z"/>
<path style="fill:#333333;" d="M7.25,19.5h-1.5c0-1.792-1.458-3.25-3.25-3.25v-1.5C5.119,14.75,7.25,16.881,7.25,19.5z"/>
<path style="fill-rule:evenodd;clip-rule:evenodd;fill:#333333;" d="M2.75,20.5C3.44,20.5,4,19.94,4,19.25S3.44,18,2.75,18
	S1.5,18.56,1.5,19.25S2.06,20.5,2.75,20.5z"/>
<polygon style="fill:#333333;" points="22.75,20.75 14.386,20.75 14.386,19.25 21.25,19.25 21.25,4.75 2.75,4.75 2.75,8.028 
	1.25,8.028 1.25,3.25 22.75,3.25 "/>
</svg>






