<?xml version="1.0" encoding="iso-8859-1"?>
<svg version="1.1" id="&#x56FE;&#x5C42;_1" xmlns="http://www.w3.org/2000/svg" xmlns:xlink="http://www.w3.org/1999/xlink" x="0px"
	 y="0px" viewBox="0 0 24 24" style="enable-background:new 0 0 24 24;" xml:space="preserve">
<path style="fill:#333333;" d="M9,6.25H2L1.47,4.97l4.03-4.03l4.03,4.03L9,6.25z M3.811,4.75h3.379L5.5,3.061L3.811,4.75z"/>
<path style="fill:#333333;" d="M22,6.25h-7l-0.53-1.28l4.03-4.03l4.03,4.03L22,6.25z M16.811,4.75h3.379L18.5,3.061L16.811,4.75z"/>
<path style="fill:#333333;" d="M22.75,22.75h-8.5V20c0-1.24-1.01-2.25-2.25-2.25c-1.241,0-2.25,1.01-2.25,2.25v2.75h-8.5v-10.5h2
	v-4.5h4.5v4.5h1.5v-2.061L12,7.439l2.75,2.75v2.061h1.5v-4.5h4.5v4.5h2V22.75z M15.75,21.25h5.5v-7.5h-2v-4.5h-1.5v4.5h-4.5v-2.939
	L12,9.561l-1.25,1.25v2.939h-4.5v-4.5h-1.5v4.5h-2v7.5h5.5V20c0-2.067,1.682-3.75,3.75-3.75c2.067,0,3.75,1.683,3.75,3.75V21.25z"/>
<path style="fill:#333333;" d="M8.25,9.25h-5.5v-4.5h5.5V9.25z M4.25,7.75h2.5v-1.5h-2.5V7.75z"/>
<path style="fill:#333333;" d="M21.25,9.25h-5.5v-4.5h5.5V9.25z M17.25,7.75h2.5v-1.5h-2.5V7.75z"/>
</svg>






