<?xml version="1.0" encoding="iso-8859-1"?>
<svg version="1.1" id="&#x56FE;&#x5C42;_1" xmlns="http://www.w3.org/2000/svg" xmlns:xlink="http://www.w3.org/1999/xlink" x="0px"
	 y="0px" viewBox="0 0 24 24" style="enable-background:new 0 0 24 24;" xml:space="preserve">
<path style="fill:#333333;" d="M12,21.75c-5.376,0-9.75-3.925-9.75-8.75h1.5c0,3.998,3.701,7.25,8.25,7.25s8.25-3.252,8.25-7.25h1.5
	C21.75,17.825,17.376,21.75,12,21.75z M16.157,6.737c-2.515-1.292-5.802-1.292-8.314,0L7.157,5.403c2.933-1.509,6.749-1.51,9.686,0
	L16.157,6.737z"/>
<path style="fill:#333333;" d="M3.75,13h-1.5V4.244c0-0.701,0.397-1.313,1.038-1.599C3.928,2.36,4.648,2.474,5.17,2.943l2.832,2.546
	L6.999,6.604L4.167,4.058C4.061,3.963,3.953,3.991,3.898,4.016C3.843,4.041,3.75,4.103,3.75,4.244V13z"/>
<path style="fill:#333333;" d="M21.75,13h-1.5V4.244c0-0.141-0.093-0.204-0.148-0.229c-0.055-0.025-0.164-0.05-0.27,0.042
	l-2.83,2.546l-1.004-1.115l2.831-2.546c0.521-0.468,1.243-0.582,1.883-0.297c0.641,0.286,1.038,0.898,1.038,1.599V13z"/>
<circle style="fill:#333333;" cx="15" cy="11" r="1"/>
<circle style="fill:#333333;" cx="9" cy="11" r="1"/>
<circle style="fill:#333333;" cx="12" cy="14" r="1"/>
<rect x="1.99" y="14.5" transform="matrix(0.9965 -0.0834 0.0834 0.9965 -1.254 0.4699)" style="fill:#333333;" width="6.021" height="1.499"/>
<rect x="3.146" y="18.25" transform="matrix(0.8944 -0.4472 0.4472 0.8944 -7.8108 4.9128)" style="fill:#333333;" width="6.708" height="1.5"/>
<rect x="18.25" y="12.24" transform="matrix(0.083 -0.9965 0.9965 0.083 2.2248 32.9179)" style="fill:#333333;" width="1.499" height="6.021"/>
<rect x="16.75" y="15.646" transform="matrix(0.4472 -0.8944 0.8944 0.4472 -7.3204 26.1554)" style="fill:#333333;" width="1.5" height="6.708"/>
</svg>






