<?xml version="1.0" encoding="iso-8859-1"?>
<svg version="1.1" id="&#x56FE;&#x5C42;_1" xmlns="http://www.w3.org/2000/svg" xmlns:xlink="http://www.w3.org/1999/xlink" x="0px"
	 y="0px" viewBox="0 0 24 24" style="enable-background:new 0 0 24 24;" xml:space="preserve">
<rect x="19.75" y="14.879" transform="matrix(0.7071 -0.7071 0.7071 0.7071 -6.0165 19.4749)" style="fill:#333333;" width="1.5" height="4.243"/>
<path style="fill:#333333;" d="M3.25,22h-1.5V9c0-3.62,1.991-5.822,6.087-6.732l7.056-1.011l0.213,1.485l-7,1
	C3.809,4.7,3.25,7.056,3.25,9V22z"/>
<path style="fill:#333333;" d="M19.75,22h-1.5v-5.5c0-3.213-4.207-3.25-4.25-3.25c-2.654,0-3.924-1.462-4.683-2.335
	c-0.125-0.144-0.239-0.276-0.347-0.384L10.03,9.47c0.13,0.13,0.268,0.288,0.419,0.461c0.704,0.81,1.58,1.819,3.551,1.819
	c1.989,0,5.75,0.993,5.75,4.75V22z"/>
<path style="fill:#333333;" d="M13.25,8h-1.5c0-3.019-1.086-4.25-3.75-4.25v-1.5C11.483,2.25,13.25,4.185,13.25,8z"/>
<path style="fill:#333333;" d="M15.75,22h-1.5c0-1.792-1.458-3.25-3.25-3.25S7.75,20.208,7.75,22h-1.5c0-2.619,2.131-4.75,4.75-4.75
	S15.75,19.381,15.75,22z"/>
</svg>






