<?xml version="1.0" encoding="iso-8859-1"?>
<svg version="1.1" id="&#x56FE;&#x5C42;_1" xmlns="http://www.w3.org/2000/svg" xmlns:xlink="http://www.w3.org/1999/xlink" x="0px"
	 y="0px" viewBox="0 0 24 24" style="enable-background:new 0 0 24 24;" xml:space="preserve">
<path style="fill:#333333;" d="M12,22.75c-3.235,0-5.93-2.427-6.269-5.645L4.986,10.04C4.778,8.056,5.424,6.067,6.759,4.583
	C8.094,3.101,10.004,2.25,12,2.25s3.906,0.851,5.241,2.333s1.981,3.472,1.772,5.457l-0.743,7.065
	C17.931,20.323,15.235,22.75,12,22.75z M6.479,9.883l0.744,7.066C7.48,19.401,9.534,21.25,12,21.25s4.52-1.85,4.778-4.301
	l0.743-7.066c0.165-1.562-0.344-3.128-1.395-4.296C15.074,4.419,13.57,3.75,12,3.75S8.925,4.419,7.874,5.587
	C6.822,6.755,6.314,8.321,6.479,9.883L6.479,9.883z"/>
<path style="fill:#333333;" d="M16.519,16.075c-4.445-3.72-8.293-0.666-9.019-0.017l-1-1.117c0.888-0.794,5.587-4.528,10.982-0.017
	L16.519,16.075z"/>
<circle style="fill:#333333;" cx="9.5" cy="9" r="1"/>
<circle style="fill:#333333;" cx="10.5" cy="17" r="1"/>
<circle style="fill:#333333;" cx="14.5" cy="9" r="1"/>
<circle style="fill:#333333;" cx="13.5" cy="17" r="1"/>
<path style="fill:#333333;" d="M18.624,7.373l-1.248-0.832c0.249-0.374,1.197-1.625,2.942-2.062c0.388-0.097,0.867-0.434,0.963-0.78
	c0.021-0.078,0.087-0.313-0.312-0.712c-0.76-0.757-2.812,0.459-3.961,1.521l-1.018-1.102c1.452-1.34,4.358-3.159,6.039-1.479
	c0.885,0.885,0.816,1.741,0.696,2.173c-0.271,0.977-1.25,1.636-2.045,1.835C19.71,6.177,18.981,6.836,18.624,7.373z"/>
<path style="fill:#333333;" d="M5.424,7.373C5.067,6.836,4.338,6.177,3.366,5.934C2.571,5.735,1.592,5.076,1.321,4.099
	c-0.12-0.432-0.188-1.288,0.696-2.173c1.678-1.682,4.587,0.138,6.04,1.479L7.04,4.508C5.89,3.447,3.834,2.229,3.078,2.987
	C2.68,3.385,2.745,3.621,2.767,3.699c0.096,0.347,0.576,0.683,0.963,0.78c1.745,0.436,2.693,1.688,2.942,2.062L5.424,7.373z"/>
<rect x="5.5" y="12.487" transform="matrix(0.9945 -0.1047 0.1047 0.9945 -1.5228 0.736)" style="fill:#333333;" width="1.5" height="4.776"/>
<rect x="15.362" y="14.125" transform="matrix(0.1041 -0.9946 0.9946 0.1041 1.1074 30.9794)" style="fill:#333333;" width="4.776" height="1.5"/>
</svg>






