<?xml version="1.0" encoding="iso-8859-1"?>
<svg version="1.1" id="&#x56FE;&#x5C42;_1" xmlns="http://www.w3.org/2000/svg" xmlns:xlink="http://www.w3.org/1999/xlink" x="0px"
	 y="0px" viewBox="0 0 24 24" style="enable-background:new 0 0 24 24;" xml:space="preserve">
<path style="fill:#333333;" d="M12,21.75c-5.376,0-9.75-4.374-9.75-9.75S6.624,2.25,12,2.25s9.75,4.374,9.75,9.75
	S17.376,21.75,12,21.75z M12,3.75c-4.549,0-8.25,3.701-8.25,8.25s3.701,8.25,8.25,8.25s8.25-3.701,8.25-8.25S16.549,3.75,12,3.75z"
	/>
<path style="fill:#333333;" d="M7.25,12h-1.5c0-3.446,2.804-6.25,6.25-6.25v1.5C9.381,7.25,7.25,9.381,7.25,12z"/>
<path style="fill:#333333;" d="M12,15.25c-1.792,0-3.25-1.458-3.25-3.25S10.208,8.75,12,8.75s3.25,1.458,3.25,3.25
	S13.792,15.25,12,15.25z M12,10.25c-0.965,0-1.75,0.785-1.75,1.75s0.785,1.75,1.75,1.75s1.75-0.785,1.75-1.75S12.965,10.25,12,10.25
	z"/>
</svg>






