<?xml version="1.0" encoding="iso-8859-1"?>
<svg version="1.1" id="&#x56FE;&#x5C42;_1" xmlns="http://www.w3.org/2000/svg" xmlns:xlink="http://www.w3.org/1999/xlink" x="0px"
	 y="0px" viewBox="0 0 24 24" style="enable-background:new 0 0 24 24;" xml:space="preserve">
<path style="fill:#333333;" d="M16.701,14.83c-0.731,0-1.423-0.201-1.946-0.58c-0.931-0.675-1.366-1.806-1.296-3.361l1.498,0.068
	c-0.047,1.033,0.175,1.713,0.679,2.078c0.296,0.216,0.875,0.392,1.598,0.239c0.802-0.168,1.996-0.778,3.137-2.729
	c0.766-1.311,0.999-2.518,0.675-3.491c-0.256-0.767-0.804-1.21-1.029-1.305c-0.4-0.169-0.787-0.231-1.187-0.189l-0.154-1.492
	C19.315,4,19.966,4.101,20.598,4.367c0.655,0.275,1.487,1.066,1.87,2.213c0.324,0.973,0.448,2.581-0.803,4.722
	c-1.418,2.426-3.024,3.21-4.123,3.44C17.261,14.802,16.978,14.83,16.701,14.83z"/>
<path style="fill:#333333;" d="M20.195,21.63l-1.477-0.26c0.11-0.63-0.072-1.257-0.559-1.917c-0.295-0.4-0.771-0.595-1.323-0.821
	c-0.756-0.309-1.696-0.693-2.207-1.757c-0.767-1.595-0.255-2.709,0.31-3.362l1.135,0.98c-0.276,0.32-0.537,0.807-0.093,1.731
	c0.249,0.518,0.703,0.725,1.423,1.02c0.665,0.271,1.418,0.58,1.963,1.318C20.101,19.557,20.379,20.589,20.195,21.63z"/>
<path style="fill:#333333;" d="M7.466,13.853c-1.682,0-3.03-0.535-3.814-1.583v-0.001C2.295,10.456,2.927,7.851,5.3,5.471
	c0.977-0.979,2.191-1.867,3.609-2.639c0.713-0.389,1.401-0.726,2.044-1.003c3.979-1.718,6.042-1.058,7.072-0.202
	c1.268,1.053,2.186,3.935,0.128,6.773c-0.607,0.837-1.438,1.63-2.469,2.357c-1.372,0.966-2.774,1.727-4.167,2.259
	C10.053,13.576,8.673,13.853,7.466,13.853z M4.853,11.371c0.917,1.224,3.322,1.32,6.129,0.244c1.277-0.488,2.568-1.189,3.839-2.084
	c0.896-0.631,1.607-1.307,2.117-2.01c1.641-2.263,0.774-4.203,0.128-4.74c-0.997-0.831-2.958-0.679-5.519,0.425
	c-0.602,0.26-1.248,0.577-1.921,0.944C8.334,4.852,7.237,5.653,6.362,6.53C4.582,8.315,3.989,10.216,4.853,11.371L4.853,11.371z"/>
<path style="fill:#333333;" d="M13.745,11.456c-1.978-0.715-3.272-1.511-4.327-2.661C8.308,7.584,7.622,6.149,7.381,4.53
	l1.483-0.221c0.199,1.336,0.742,2.472,1.66,3.472c0.892,0.973,1.972,1.628,3.731,2.264L13.745,11.456z"/>
<path style="fill:#333333;" d="M12.312,21.798c-0.795-1.84-1.851-2.734-3.228-2.734c-0.801,0-1.586,0.362-2.346,0.713
	c-1.353,0.624-3.035,1.4-4.653-0.351c-1.666-1.803-0.864-4.314,2.384-7.464l1.044,1.077c-2.55,2.474-3.333,4.28-2.327,5.37
	c0.844,0.912,1.506,0.66,2.923,0.006c0.864-0.398,1.844-0.851,2.975-0.851c2.012,0,3.561,1.225,4.605,3.639L12.312,21.798z"/>
<path style="fill:#333333;" d="M11.518,13.016l-0.536-1.4c1.278-0.49,2.57-1.191,3.839-2.085c0.896-0.631,1.608-1.308,2.117-2.01
	l1.215,0.88c-0.606,0.837-1.438,1.629-2.469,2.356C14.314,11.722,12.912,12.481,11.518,13.016z"/>
<path style="fill:#333333;" d="M6.362,6.53L5.3,5.47c0.977-0.979,2.191-1.867,3.609-2.639c0.713-0.389,1.401-0.726,2.044-1.003
	l0.594,1.377c-0.601,0.26-1.248,0.577-1.921,0.944C8.334,4.852,7.237,5.653,6.362,6.53z"/>
</svg>






