<?xml version="1.0" encoding="iso-8859-1"?>
<svg version="1.1" id="&#x56FE;&#x5C42;_1" xmlns="http://www.w3.org/2000/svg" xmlns:xlink="http://www.w3.org/1999/xlink" x="0px"
	 y="0px" viewBox="0 0 24 24" style="enable-background:new 0 0 24 24;" xml:space="preserve">
<path style="fill:#333333;" d="M21,18.75h-4v-1.5h4c0.138,0,0.25-0.112,0.25-0.25V4c0-0.138-0.112-0.25-0.25-0.25H3
	C2.862,3.75,2.75,3.862,2.75,4v13c0,0.138,0.112,0.25,0.25,0.25h10v1.5H3c-0.965,0-1.75-0.785-1.75-1.75V4
	c0-0.965,0.785-1.75,1.75-1.75h18c0.965,0,1.75,0.785,1.75,1.75v13C22.75,17.965,21.965,18.75,21,18.75z"/>
<rect x="6" y="6.25" style="fill:#333333;" width="12" height="1.5"/>
<rect x="6" y="9.75" style="fill:#333333;" width="3" height="1.5"/>
<rect x="6" y="13.25" style="fill:#333333;" width="2" height="1.5"/>
<path style="fill:#333333;" d="M15,17.25c-2.067,0-3.75-1.683-3.75-3.75c0-2.068,1.683-3.75,3.75-3.75s3.75,1.682,3.75,3.75
	C18.75,15.567,17.067,17.25,15,17.25z M15,11.25c-1.24,0-2.25,1.01-2.25,2.25s1.01,2.25,2.25,2.25s2.25-1.01,2.25-2.25
	S16.24,11.25,15,11.25z"/>
<path style="fill:#333333;" d="M17.75,22.214L15,20.839l-2.75,1.375V15.75l1.347-0.454c0.004,0.003,0.402,0.454,1.403,0.454
	c0.998,0,1.396-0.459,1.411-0.479l1.339,0.465V22.214z M15,19.161l1.25,0.625v-2.722c-0.686,0.221-1.814,0.221-2.5,0.002v2.72
	L15,19.161z"/>
</svg>






