<?xml version="1.0" encoding="iso-8859-1"?>
<svg version="1.1" id="&#x56FE;&#x5C42;_1" xmlns="http://www.w3.org/2000/svg" xmlns:xlink="http://www.w3.org/1999/xlink" x="0px"
	 y="0px" viewBox="0 0 24 24" style="enable-background:new 0 0 24 24;" xml:space="preserve">
<path style="fill:#333333;" d="M12,21.75c-5.376,0-9.75-4.374-9.75-9.75S6.624,2.25,12,2.25v1.5c-4.549,0-8.25,3.701-8.25,8.25
	s3.701,8.25,8.25,8.25V21.75z"/>
<path style="fill:#333333;" d="M12,21.75l-0.345-1.416c0.065-0.035,1.595-0.894,1.595-3.834c0-1.506-0.901-2.746-1.856-4.059
	C10.34,10.992,9.25,9.494,9.25,7.5c0-3.918,2.316-5.122,2.415-5.171l0.158-0.079H12c5.376,0,9.75,4.374,9.75,9.75
	S17.376,21.75,12,21.75z M12.21,3.752c-0.377,0.273-1.46,1.273-1.46,3.748c0,1.506,0.902,2.746,1.856,4.059
	c1.054,1.449,2.144,2.947,2.144,4.941c0,1.585-0.379,2.727-0.837,3.526c3.63-0.865,6.337-4.136,6.337-8.026
	C20.25,7.521,16.662,3.864,12.21,3.752z"/>
<polygon style="fill:#333333;" points="22.75,14.75 21,14.75 21,13.25 21.25,13.25 21.25,10.75 21,10.75 21,9.25 22.75,9.25 "/>
<polygon style="fill:#333333;" points="3,14.75 1.25,14.75 1.25,9.25 3,9.25 3,10.75 2.75,10.75 2.75,13.25 3,13.25 "/>
</svg>






