<?xml version="1.0" encoding="iso-8859-1"?>
<svg version="1.1" id="&#x56FE;&#x5C42;_1" xmlns="http://www.w3.org/2000/svg" xmlns:xlink="http://www.w3.org/1999/xlink" x="0px"
	 y="0px" viewBox="0 0 24 24" style="enable-background:new 0 0 24 24;" xml:space="preserve">
<path style="fill:#333333;" d="M18,15.75H6c-2.068,0-3.75-1.683-3.75-3.75V8.25h19.5V12C21.75,14.067,20.067,15.75,18,15.75z
	 M3.75,9.75V12c0,1.24,1.009,2.25,2.25,2.25h12c1.24,0,2.25-1.01,2.25-2.25V9.75H3.75z"/>
<rect x="4" y="20.25" style="fill:#333333;" width="16" height="1.5"/>
<rect x="4.158" y="17.25" transform="matrix(0.2422 -0.9702 0.9702 0.2422 -11.9701 20.674)" style="fill:#333333;" width="6.185" height="1.5"/>
<rect x="16" y="14.908" transform="matrix(0.9701 -0.2425 0.2425 0.9701 -3.8655 4.5999)" style="fill:#333333;" width="1.5" height="6.185"/>
<polygon style="fill:#333333;" points="14.267,9.157 12.894,2.75 11.106,2.75 9.733,9.157 8.267,8.843 9.894,1.25 14.106,1.25 
	15.733,8.843 "/>
<rect x="18" y="4.75" style="fill:#333333;" width="2" height="1.5"/>
<rect x="4" y="4.75" style="fill:#333333;" width="2" height="1.5"/>
</svg>






