<?xml version="1.0" encoding="iso-8859-1"?>
<svg version="1.1" id="&#x56FE;&#x5C42;_1" xmlns="http://www.w3.org/2000/svg" xmlns:xlink="http://www.w3.org/1999/xlink" x="0px"
	 y="0px" viewBox="0 0 24 24" style="enable-background:new 0 0 24 24;" xml:space="preserve">
<rect x="2.382" y="16" transform="matrix(0.3556 -0.9346 0.9346 0.3556 -10.5 18.2705)" style="fill:#333333;" width="11.236" height="1.5"/>
<rect x="15.25" y="11.132" transform="matrix(0.9345 -0.356 0.356 0.9345 -4.9149 6.7936)" style="fill:#333333;" width="1.5" height="11.236"/>
<rect x="8" y="16.25" style="fill:#333333;" width="8" height="1.5"/>
<path style="fill:#333333;" d="M14.728,12.25H9.273c-1.78,0-3.023-1.165-3.023-2.833V5.25h2V3c0-0.965,0.785-1.75,1.75-1.75h4
	c0.965,0,1.75,0.785,1.75,1.75v2.25h2v4.167C17.75,11.085,16.507,12.25,14.728,12.25z M7.75,6.75v2.667
	c0,0.835,0.569,1.333,1.523,1.333h5.455c0.953,0,1.522-0.499,1.522-1.333V6.75h-2V3c0-0.138-0.112-0.25-0.25-0.25h-4
	C9.862,2.75,9.75,2.862,9.75,3v3.75H7.75z"/>
<rect x="15" y="5.25" style="fill:#333333;" width="4" height="1.5"/>
<rect x="5" y="5.25" style="fill:#333333;" width="4" height="1.5"/>
</svg>






