<?xml version="1.0" encoding="iso-8859-1"?>
<svg version="1.1" id="&#x56FE;&#x5C42;_1" xmlns="http://www.w3.org/2000/svg" xmlns:xlink="http://www.w3.org/1999/xlink" x="0px"
	 y="0px" viewBox="0 0 24 24" style="enable-background:new 0 0 24 24;" xml:space="preserve">
<path style="fill:#333333;" d="M12,22.75C6.072,22.75,1.25,17.928,1.25,12S6.072,1.25,12,1.25h0.75v10h10V12
	C22.75,17.928,17.928,22.75,12,22.75z M11.25,2.78C6.499,3.163,2.75,7.152,2.75,12c0,5.101,4.149,9.25,9.25,9.25
	c4.848,0,8.837-3.749,9.22-8.5h-9.97V2.78z"/>
<path style="fill:#333333;" d="M22.563,9.75H14.25V1.437l0.975,0.306c3.352,1.052,5.98,3.681,7.033,7.033L22.563,9.75z M15.75,8.25
	h4.709c-0.93-2.099-2.61-3.779-4.709-4.709V8.25z"/>
</svg>






