<?xml version="1.0" encoding="iso-8859-1"?>
<svg version="1.1" id="&#x56FE;&#x5C42;_1" xmlns="http://www.w3.org/2000/svg" xmlns:xlink="http://www.w3.org/1999/xlink" x="0px"
	 y="0px" viewBox="0 0 24 24" style="enable-background:new 0 0 24 24;" xml:space="preserve">
<path style="fill:#333333;" d="M7.75,16.75h-5.5v-9.5h5.5V16.75z M3.75,15.25h2.5v-6.5h-2.5V15.25z"/>
<rect x="4.25" y="3" style="fill:#333333;" width="1.5" height="5"/>
<rect x="4.25" y="16" style="fill:#333333;" width="1.5" height="5"/>
<path style="fill:#333333;" d="M21.75,16.75h-5.5v-9.5h5.5V16.75z M17.75,15.25h2.5v-6.5h-2.5V15.25z"/>
<rect x="18.25" y="3" style="fill:#333333;" width="1.5" height="5"/>
<rect x="18.25" y="16" style="fill:#333333;" width="1.5" height="5"/>
<path style="fill:#333333;" d="M14.75,15.75h-5.5v-9.5h5.5V15.75z M10.75,14.25h2.5v-6.5h-2.5V14.25z"/>
<rect x="11.25" y="2" style="fill:#333333;" width="1.5" height="5"/>
<rect x="11.25" y="15" style="fill:#333333;" width="1.5" height="5"/>
</svg>






