<?xml version="1.0" encoding="iso-8859-1"?>
<svg version="1.1" id="&#x56FE;&#x5C42;_1" xmlns="http://www.w3.org/2000/svg" xmlns:xlink="http://www.w3.org/1999/xlink" x="0px"
	 y="0px" viewBox="0 0 24 24" style="enable-background:new 0 0 24 24;" xml:space="preserve">
<path style="fill:#333333;" d="M12,22.75c-0.54,0-1.084-0.041-1.619-0.122C5.175,21.842,1.25,17.272,1.25,12
	c0-5.27,3.923-9.839,9.125-10.628L10.6,2.855C6.125,3.534,2.75,7.465,2.75,12c0,4.537,3.377,8.469,7.855,9.146
	c0.923,0.139,1.876,0.138,2.784,0.001c3.97-0.598,7.16-3.788,7.758-7.758l1.482,0.223c-0.694,4.615-4.402,8.323-9.017,9.018
	C13.085,22.709,12.542,22.75,12,22.75z M21.146,10.609c-0.599-3.968-3.787-7.157-7.755-7.755l0.225-1.483
	c4.611,0.695,8.317,4.402,9.013,9.015L21.146,10.609z"/>
<path style="fill:#333333;" d="M12,16.75c-2.619,0-4.75-2.131-4.75-4.75S9.381,7.25,12,7.25s4.75,2.131,4.75,4.75
	S14.619,16.75,12,16.75z M12,8.75c-1.792,0-3.25,1.458-3.25,3.25s1.458,3.25,3.25,3.25s3.25-1.458,3.25-3.25S13.792,8.75,12,8.75z"
	/>
</svg>






