<?xml version="1.0" encoding="iso-8859-1"?>
<svg version="1.1" id="&#x56FE;&#x5C42;_1" xmlns="http://www.w3.org/2000/svg" xmlns:xlink="http://www.w3.org/1999/xlink" x="0px"
	 y="0px" viewBox="0 0 24 24" style="enable-background:new 0 0 24 24;" xml:space="preserve">
<path style="fill:#333333;" d="M12,22.75C6.072,22.75,1.25,17.928,1.25,12c0-2.872,1.118-5.571,3.148-7.601
	c1.005-1.005,2.179-1.791,3.487-2.333l0.574,1.386c-1.125,0.467-2.135,1.142-3,2.008C3.712,7.207,2.75,9.529,2.75,12
	c0,5.101,4.149,9.25,9.25,9.25c2.471,0,4.794-0.962,6.541-2.709c0.865-0.865,1.54-1.874,2.008-3l1.385,0.574
	c-0.542,1.309-1.327,2.481-2.332,3.486C17.571,21.632,14.872,22.75,12,22.75z"/>
<path style="fill:#333333;" d="M22.75,12.75h-11.5V1.25H12c5.928,0,10.75,4.822,10.75,10.75V12.75z M12.75,11.25h8.47
	c-0.363-4.503-3.966-8.107-8.47-8.47V11.25z"/>
</svg>






