<?xml version="1.0" encoding="iso-8859-1"?>
<svg version="1.1" id="&#x56FE;&#x5C42;_1" xmlns="http://www.w3.org/2000/svg" xmlns:xlink="http://www.w3.org/1999/xlink" x="0px"
	 y="0px" viewBox="0 0 24 24" style="enable-background:new 0 0 24 24;" xml:space="preserve">
<path style="fill:#333333;" d="M12.75,22.25H12C6.348,22.25,1.75,17.652,1.75,12C1.75,6.348,6.348,1.75,12,1.75
	c5.652,0,10.25,4.598,10.25,10.25v0.75H13c-0.138,0-0.25,0.112-0.25,0.25V22.25z M12,3.25c-4.825,0-8.75,3.925-8.75,8.75
	c0,4.572,3.525,8.337,8,8.718V13c0-0.965,0.785-1.75,1.75-1.75h7.718C20.337,6.775,16.572,3.25,12,3.25z"/>
<path style="fill:#333333;" d="M21.75,21.75h-7.5v-7.5h7.5V21.75z M15.75,20.25h4.5v-4.5h-4.5V20.25z"/>
</svg>






