<?xml version="1.0" encoding="iso-8859-1"?>
<svg version="1.1" id="&#x56FE;&#x5C42;_1" xmlns="http://www.w3.org/2000/svg" xmlns:xlink="http://www.w3.org/1999/xlink" x="0px"
	 y="0px" viewBox="0 0 24 24" style="enable-background:new 0 0 24 24;" xml:space="preserve">
<path style="fill:#333333;" d="M20.5,22.75h-17c-1.241,0-2.25-1.01-2.25-2.25v-17c0-1.241,1.009-2.25,2.25-2.25h17
	c1.24,0,2.25,1.009,2.25,2.25v17C22.75,21.74,21.74,22.75,20.5,22.75z M3.5,2.75c-0.414,0-0.75,0.336-0.75,0.75v17
	c0,0.413,0.336,0.75,0.75,0.75h17c0.413,0,0.75-0.337,0.75-0.75v-17c0-0.414-0.337-0.75-0.75-0.75H3.5z"/>
<rect x="11.5" y="7.75" style="fill:#333333;" width="10.5" height="1.5"/>
<rect x="2" y="7.75" style="fill:#333333;" width="4.5" height="1.5"/>
<rect x="17.5" y="14.75" style="fill:#333333;" width="4.5" height="1.5"/>
<rect x="3" y="14.75" style="fill:#333333;" width="9.5" height="1.5"/>
<rect x="7.75" y="10.5" style="fill:#333333;" width="1.5" height="11.5"/>
<rect x="14.75" y="2" style="fill:#333333;" width="1.5" height="11.5"/>
<rect x="14.75" y="17.5" style="fill:#333333;" width="1.5" height="4.5"/>
<rect x="7.75" y="2" style="fill:#333333;" width="1.5" height="4.5"/>
<path style="fill:#333333;" d="M15.5,18.25c-1.517,0-2.75-1.233-2.75-2.75s1.233-2.75,2.75-2.75s2.75,1.233,2.75,2.75
	S17.017,18.25,15.5,18.25z M15.5,14.25c-0.689,0-1.25,0.561-1.25,1.25s0.561,1.25,1.25,1.25s1.25-0.561,1.25-1.25
	S16.189,14.25,15.5,14.25z"/>
<path style="fill:#333333;" d="M8.5,11.25c-1.517,0-2.75-1.233-2.75-2.75S6.983,5.75,8.5,5.75s2.75,1.233,2.75,2.75
	S10.017,11.25,8.5,11.25z M8.5,7.25c-0.689,0-1.25,0.561-1.25,1.25S7.811,9.75,8.5,9.75S9.75,9.189,9.75,8.5S9.189,7.25,8.5,7.25z"
	/>
</svg>






