<?xml version="1.0" encoding="iso-8859-1"?>
<svg version="1.1" id="&#x56FE;&#x5C42;_1" xmlns="http://www.w3.org/2000/svg" xmlns:xlink="http://www.w3.org/1999/xlink" x="0px"
	 y="0px" viewBox="0 0 24 24" style="enable-background:new 0 0 24 24;" xml:space="preserve">
<g>
	<defs>
		<rect id="SVGID_1_" width="24" height="24"/>
	</defs>
	<clipPath id="SVGID_00000034804167404893147830000003837081382893840556_">
		<use xlink:href="#SVGID_1_"  style="overflow:visible;"/>
	</clipPath>
	<g style="clip-path:url(#SVGID_00000034804167404893147830000003837081382893840556_);">
		<path style="fill:#333333;" d="M19.5,21.75h-15c-1.241,0-2.25-1.01-2.25-2.25v-15c0-1.241,1.009-2.25,2.25-2.25H15v1.5H4.5
			c-0.414,0-0.75,0.336-0.75,0.75v15c0,0.413,0.336,0.75,0.75,0.75h15c0.413,0,0.75-0.337,0.75-0.75V10h1.5v9.5
			C21.75,20.74,20.74,21.75,19.5,21.75z"/>
		<polygon style="fill:#333333;" points="13.15,15.08 7.531,10.585 8.469,9.415 12.85,12.92 19.89,3.064 21.11,3.936 		"/>
	</g>
</g>
</svg>






