<?xml version="1.0" encoding="iso-8859-1"?>
<svg version="1.1" id="&#x56FE;&#x5C42;_1" xmlns="http://www.w3.org/2000/svg" xmlns:xlink="http://www.w3.org/1999/xlink" x="0px"
	 y="0px" viewBox="0 0 24 24" style="enable-background:new 0 0 24 24;" xml:space="preserve">
<path style="fill:#333333;" d="M8.687,10.801l-1.374-0.602l3.065-7.006c0.195-0.447,0.572-0.794,1.033-0.953
	c0.46-0.159,0.971-0.118,1.4,0.114l5.544,2.985l-0.711,1.32L12.1,3.675c-0.084-0.045-0.162-0.03-0.2-0.016
	c-0.039,0.013-0.109,0.049-0.148,0.136L8.687,10.801z"/>
<polygon style="fill:#333333;" points="21.75,21.25 12.25,21.25 12.25,18.5 13.75,18.5 13.75,19.75 20.25,19.75 20.25,6.75 
	13.75,6.75 13.75,15.5 12.25,15.5 12.25,5.25 21.75,5.25 "/>
<path style="fill:#333333;" d="M2,22.75v-1.5c2.697,0,3.681-1.003,4.472-1.81c0.469-0.478,0.912-0.929,1.585-1.026
	c0.483-0.07,0.97-0.129,1.451-0.188c1.026-0.125,1.995-0.243,2.865-0.455c1.67-0.407,3.018-0.935,3.52-1.143
	c0.238-0.415,0.323-0.69,0.348-0.84c-0.47-0.003-1.504,0.215-2.406,0.421c-1.49,0.341-3.181,0.728-4.372,0.564
	c-1.353-0.183-1.772-0.832-1.886-1.344c-0.176-0.792,0.339-1.598,0.939-1.983c1.151-0.741,2.403-0.838,3.234-0.798V9.995
	c-2.016,0.612-6.739,2.24-8.674,4.563l-1.152-0.959c2.79-3.352,10.081-5.246,10.391-5.325l0.936-0.239v6.427l-0.932-0.233
	c-0.014-0.002-1.647-0.382-2.991,0.481c-0.154,0.1-0.284,0.315-0.285,0.399c0.004,0.001,0.142,0.115,0.622,0.18
	c0.921,0.125,2.47-0.229,3.836-0.54c1.48-0.338,2.422-0.543,3.079-0.434c0.466,0.075,0.828,0.326,1.02,0.707
	c0.278,0.553,0.169,1.313-0.325,2.263c-0.17,0.326-0.456,0.586-0.807,0.73c-0.534,0.222-1.967,0.782-3.738,1.214
	c-0.957,0.233-2.016,0.362-3.039,0.486c-0.471,0.058-0.946,0.115-1.418,0.184c-0.173,0.025-0.443,0.301-0.729,0.593
	C6.661,21.391,5.327,22.75,2,22.75z"/>
<rect x="16" y="9.75" style="fill:#333333;" width="5" height="1.5"/>
</svg>






