<?xml version="1.0" encoding="iso-8859-1"?>
<svg version="1.1" id="&#x56FE;&#x5C42;_1" xmlns="http://www.w3.org/2000/svg" xmlns:xlink="http://www.w3.org/1999/xlink" x="0px"
	 y="0px" viewBox="0 0 24 24" style="enable-background:new 0 0 24 24;" xml:space="preserve">
<path style="fill:#333333;" d="M20.791,10.196c-0.354-0.611-3.972-2.979-11.075-6.734C9.634,3.418,9.534,3.428,9.457,3.488
	L2.963,8.59L2.037,7.41l6.493-5.101c0.541-0.425,1.283-0.493,1.888-0.174C22.25,8.39,22.25,9.438,22.25,10h-1.5
	C20.75,10.124,20.791,10.195,20.791,10.196z"/>
<path style="fill:#333333;" d="M3.501,21.695c-0.446,0-0.881-0.172-1.206-0.479c-0.347-0.329-0.545-0.792-0.545-1.27V8.826
	C1.75,8.277,2,7.77,2.435,7.433c0.438-0.34,0.996-0.455,1.531-0.315c3.316,0.86,11.511,2.779,15.99,2.022
	c0.572-0.1,1.187,0.071,1.637,0.451c0.418,0.353,0.657,0.857,0.657,1.385v8.075c0,0.931-0.728,1.698-1.657,1.748l-17,0.895
	C3.562,21.695,3.531,21.695,3.501,21.695z M3.52,8.561c-0.078,0-0.135,0.034-0.167,0.058C3.314,8.649,3.25,8.715,3.25,8.826v11.12
	c0,0.093,0.049,0.153,0.078,0.181c0.029,0.028,0.094,0.069,0.186,0.068l17-0.895c0.132-0.007,0.236-0.117,0.236-0.25v-8.075
	c0-0.11-0.068-0.191-0.125-0.239c-0.113-0.097-0.275-0.14-0.419-0.117C15.445,11.424,7,9.455,3.589,8.57
	C3.565,8.564,3.541,8.561,3.52,8.561z"/>
<circle style="fill:#333333;" cx="6" cy="12.5" r="1"/>
<circle style="fill:#333333;" cx="12.5" cy="13.5" r="1"/>
<circle style="fill:#333333;" cx="17" cy="16" r="1"/>
<g>
	<circle style="fill:#333333;" cx="9" cy="16" r="1"/>
	<path style="fill:#333333;" d="M9,17.75c-0.965,0-1.75-0.785-1.75-1.75S8.035,14.25,9,14.25s1.75,0.785,1.75,1.75
		S9.965,17.75,9,17.75z M9,15.75c-0.138,0-0.25,0.112-0.25,0.25c0,0.275,0.5,0.275,0.5,0C9.25,15.862,9.138,15.75,9,15.75z"/>
</g>
</svg>






