<?xml version="1.0" encoding="iso-8859-1"?>
<svg version="1.1" id="&#x56FE;&#x5C42;_1" xmlns="http://www.w3.org/2000/svg" xmlns:xlink="http://www.w3.org/1999/xlink" x="0px"
	 y="0px" viewBox="0 0 24 24" style="enable-background:new 0 0 24 24;" xml:space="preserve">
<path style="fill:#333333;" d="M18.75,21.75H5.25v-5.5h13.5V21.75z M6.75,20.25h10.5v-2.5H6.75V20.25z"/>
<rect x="13.75" y="10" style="fill:#333333;" width="1.5" height="7"/>
<rect x="10.25" y="13" style="fill:#333333;" width="1.5" height="4"/>
<path style="fill:#333333;" d="M18.75,17.75H5.25v-4.854c-0.774-0.572-2.5-2.104-2.5-4.396c0-2.568,2.237-4.009,4.628-4.222
	C7.848,2.874,9.578,1.25,12,1.25c2.417,0,4.146,1.618,4.619,3.02c2.913,0.19,4.631,1.741,4.631,4.23c0,2.292-1.726,3.823-2.5,4.396
	V17.75z M6.75,16.25h10.5v-4.175l0.364-0.218c0.02-0.012,2.136-1.323,2.136-3.357c0-2.273-2.039-2.75-3.75-2.75h-0.75V5
	c0-0.56-1.152-2.25-3.25-2.25C9.903,2.75,8.75,4.44,8.75,5v0.75H8c-1.297,0-3.75,0.575-3.75,2.75c0,2.034,2.116,3.345,2.138,3.358
	l0.36,0.219L6.75,16.25z"/>
</svg>






