<?xml version="1.0" encoding="iso-8859-1"?>
<svg version="1.1" id="&#x56FE;&#x5C42;_1" xmlns="http://www.w3.org/2000/svg" xmlns:xlink="http://www.w3.org/1999/xlink" x="0px"
	 y="0px" viewBox="0 0 24 24" style="enable-background:new 0 0 24 24;" xml:space="preserve">
<path style="fill:#333333;" d="M7,21.75c-2.619,0-4.75-2.131-4.75-4.75S4.381,12.25,7,12.25s4.75,2.131,4.75,4.75
	S9.619,21.75,7,21.75z M7,13.75c-1.792,0-3.25,1.458-3.25,3.25S5.208,20.25,7,20.25s3.25-1.458,3.25-3.25S8.792,13.75,7,13.75z"/>
<path style="fill:#333333;" d="M17.5,22.75c-2.344,0-4.25-1.906-4.25-4.25s1.906-4.25,4.25-4.25s4.25,1.906,4.25,4.25
	S19.844,22.75,17.5,22.75z M17.5,15.75c-1.517,0-2.75,1.233-2.75,2.75s1.233,2.75,2.75,2.75s2.75-1.233,2.75-2.75
	S19.017,15.75,17.5,15.75z"/>
<path style="fill:#333333;" d="M9.696,13.778l-1.393-0.557l0.042-0.105c0.513-1.285,1.215-3.045,3.771-5.524
	c2.04-1.978,5.492-3.104,6.163-3.309l0.439,1.435c-1.695,0.519-4.167,1.603-5.558,2.952c-2.327,2.255-2.935,3.779-3.423,5.003
	L9.696,13.778z"/>
<path style="fill:#333333;" d="M16.304,15.278c-0.556-1.388-1.052-3.212-0.521-6.214c0.438-2.479,1.972-4.344,2.145-4.549
	l1.145,0.97c-0.531,0.627-1.512,2.142-1.812,3.84c-0.465,2.631-0.04,4.204,0.437,5.396L16.304,15.278z"/>
<rect x="17.75" y="0.39" transform="matrix(0.6508 -0.7593 0.7593 0.6508 2.6641 15.7923)" style="fill:#333333;" width="1.5" height="9.22"/>
</svg>






