<?xml version="1.0" encoding="iso-8859-1"?>
<svg version="1.1" id="&#x56FE;&#x5C42;_1" xmlns="http://www.w3.org/2000/svg" xmlns:xlink="http://www.w3.org/1999/xlink" x="0px"
	 y="0px" viewBox="0 0 24 24" style="enable-background:new 0 0 24 24;" xml:space="preserve">
<path style="fill:#333333;" d="M17,7.75H7L6.25,7V2L7,1.25h10L17.75,2v5L17,7.75z M7.75,6.25h8.5v-3.5h-8.5V6.25z"/>
<polygon style="fill:#333333;" points="16.5,19.25 7.5,19.25 6.774,18.311 9.774,6.811 11.226,7.189 8.471,17.75 15.529,17.75 
	12.774,7.189 14.226,6.811 17.226,18.311 "/>
<path style="fill:#333333;" d="M20,22.75H4L3.25,22v-2l0.415-0.671l3-1.5L7,17.75h10l0.335,0.079l3,1.5L20.75,20v2L20,22.75z
	 M4.75,21.25h14.5v-0.786l-2.427-1.214H7.177L4.75,20.464V21.25z"/>
<rect x="6" y="10.76" style="fill:#333333;" width="12" height="1.5"/>
<rect x="9.5" y="2" style="fill:#333333;" width="1.5" height="2"/>
<rect x="13" y="2" style="fill:#333333;" width="1.5" height="2"/>
</svg>






