<?xml version="1.0" encoding="iso-8859-1"?>
<svg version="1.1" id="&#x56FE;&#x5C42;_1" xmlns="http://www.w3.org/2000/svg" xmlns:xlink="http://www.w3.org/1999/xlink" x="0px"
	 y="0px" viewBox="0 0 24 24" style="enable-background:new 0 0 24 24;" xml:space="preserve">
<path style="fill:#333333;" d="M20,22.75H4L3.25,22v-2l0.415-0.671l3-1.5L7,17.75h10l0.335,0.079l3,1.5L20.75,20v2L20,22.75z
	 M4.75,21.25h14.5v-0.786l-2.427-1.214H7.177L4.75,20.464V21.25z"/>
<rect x="7" y="8.75" style="fill:#333333;" width="10" height="1.5"/>
<path style="fill:none;" d="M13.87,9.5l2.63,9h-9l2.63-9"/>
<polygon style="fill:#333333;" points="16.5,19.25 7.5,19.25 6.78,18.29 9.41,9.29 10.85,9.71 8.5,17.75 15.499,17.75 13.15,9.71 
	14.59,9.29 17.22,18.29 "/>
<path style="fill:#333333;" d="M14.133,10.25H9.868l-0.169-0.094C8.188,9.318,7.25,7.726,7.25,6c0-2.619,2.131-4.75,4.75-4.75
	S16.75,3.381,16.75,6c0,1.726-0.938,3.318-2.447,4.156L14.133,10.25z M10.267,8.75h3.466C14.674,8.157,15.25,7.119,15.25,6
	c0-1.792-1.458-3.25-3.25-3.25S8.75,4.208,8.75,6C8.75,7.119,9.327,8.156,10.267,8.75z"/>
</svg>






