<?xml version="1.0" encoding="iso-8859-1"?>
<svg version="1.1" id="&#x56FE;&#x5C42;_1" xmlns="http://www.w3.org/2000/svg" xmlns:xlink="http://www.w3.org/1999/xlink" x="0px"
	 y="0px" viewBox="0 0 24 24" style="enable-background:new 0 0 24 24;" xml:space="preserve">
<path style="fill:#333333;" d="M3.75,18.75h-1.5v-8.714c0-1.255,0.167-2.183,0.511-2.835c0.597-1.133,1.492-1.471,3.254-1.923
	c1.734-0.446,1.734-0.647,1.734-0.953V1.75h1.5v2.574c0,1.547-1.24,1.989-2.86,2.406c-1.789,0.459-2.04,0.673-2.3,1.169
	C3.934,8.192,3.75,8.8,3.75,10.036V18.75z"/>
<path style="fill:#333333;" d="M13.642,17.227l-0.227-1.482c1.307-0.199,2.181-0.72,2.671-1.589
	c0.529-0.938,0.743-2.061,0.638-3.339l1.494-0.124c0.132,1.584-0.146,2.997-0.825,4.2C16.671,16.172,15.408,16.957,13.642,17.227z"
	/>
<path style="fill:#333333;" d="M10.389,17.227c-1.78-0.269-3.051-1.054-3.777-2.333c-0.682-1.203-0.961-2.616-0.83-4.201
	l1.495,0.124c-0.106,1.279,0.109,2.401,0.639,3.337c0.494,0.87,1.376,1.391,2.697,1.591L10.389,17.227z"/>
<path style="fill:#333333;" d="M7.069,22.244l-1.139-0.977c0.551-0.643,0.819-1.312,0.819-2.048v-4.182h1.5v4.182
	C8.25,20.312,7.853,21.33,7.069,22.244z"/>
<path style="fill:#333333;" d="M16.931,22.244c-0.783-0.913-1.181-1.931-1.181-3.024v-4.182h1.5v4.182
	c0,0.735,0.268,1.405,0.819,2.048L16.931,22.244z"/>
<path style="fill:#333333;" d="M21.749,18.75h-1.5v-8.714c0-1.236-0.184-1.844-0.338-2.136c-0.262-0.497-0.513-0.711-2.3-1.17
	C15.99,6.313,14.75,5.872,14.75,4.324V1.75h1.5v2.574c0,0.305,0,0.507,1.734,0.953c1.762,0.453,2.656,0.79,3.254,1.924
	c0.344,0.651,0.511,1.579,0.511,2.835V18.75z"/>
</svg>






