<?xml version="1.0" encoding="iso-8859-1"?>
<svg version="1.1" id="&#x56FE;&#x5C42;_1" xmlns="http://www.w3.org/2000/svg" xmlns:xlink="http://www.w3.org/1999/xlink" x="0px"
	 y="0px" viewBox="0 0 24 24" style="enable-background:new 0 0 24 24;" xml:space="preserve">
<path style="fill:#333333;" d="M9.839,9.177C9.364,8.291,8.768,7.479,8.065,6.761C7.511,6.635,7.035,6.298,6.73,5.813
	s-0.403-1.06-0.276-1.619c0.127-0.559,0.464-1.035,0.949-1.34c0.486-0.305,1.061-0.403,1.619-0.277
	c0.679,0.154,1.238,0.634,1.503,1.264c1.118,0.576,2.309,0.983,3.544,1.211l0.262,0.048c0.87,0.16,1.696,0.472,2.456,0.928
	l0.733,0.439c0.347,0.209,0.675,0.454,0.975,0.728l-1.012,1.106c-0.227-0.207-0.474-0.391-0.734-0.548l-0.733-0.439
	c-0.605-0.364-1.264-0.612-1.956-0.74l-0.262-0.049C12.31,6.253,10.88,5.747,9.549,5.022L9.251,4.859L9.176,4.528
	C9.122,4.287,8.931,4.095,8.689,4.041c-0.17-0.039-0.342-0.008-0.488,0.083C8.056,4.216,7.955,4.359,7.917,4.527
	C7.878,4.695,7.908,4.869,8,5.015S8.234,5.262,8.402,5.3L8.67,5.323L8.95,5.525c0.883,0.863,1.627,1.854,2.211,2.944L9.839,9.177z"
	/>
<path style="fill:#333333;" d="M13.577,20.973c-1.452,0-2.98-0.094-4.092-0.162c-0.549-0.034-0.969-0.061-1.18-0.061
	c-1.18,0-2.479-0.61-3.233-1.134C4.224,19.027,3.25,18.085,3.25,16c0-1.927,1.621-3.748,1.846-3.992l0.045-0.048
	c0.166-0.174,1.766-1.835,3.222-2.829c1.414-0.966,4.56-2.105,5.176-2.324l0.114-0.038c0.422-0.127,2.652-0.705,5.182,0.56
	c2.536,1.268,3.594,2.433,3.905,4.297c0.165,0.992-0.034,2.135-0.23,2.92c-0.166,0.663-0.377,1.292-0.628,1.867
	c-0.266,0.614-0.717,1.481-1.352,2.116l-0.316,0.323c-0.884,0.912-1.443,1.41-3.551,1.879C15.85,20.913,14.737,20.973,13.577,20.973
	z M5.653,12.51l0.549,0.511C5.7,13.561,4.75,14.878,4.75,16c0,1.445,0.608,1.988,1.178,2.384c0.601,0.417,1.602,0.866,2.377,0.866
	c0.227,0,0.68,0.027,1.271,0.063c1.795,0.11,5.137,0.316,6.76-0.046c1.768-0.393,2.091-0.727,2.799-1.458l0.334-0.34
	c0.468-0.468,0.821-1.157,1.036-1.652c0.219-0.501,0.402-1.051,0.549-1.635c0.162-0.646,0.329-1.571,0.205-2.309
	c-0.199-1.197-0.732-2.021-3.095-3.203c-2.066-1.033-3.877-0.527-4.075-0.466c-0.408,0.144-3.594,1.285-4.881,2.165
	c-1.352,0.923-2.928,2.569-2.995,2.639L5.653,12.51z"/>
<path style="fill:#333333;" d="M10.579,18.759c-0.224,0-0.448-0.019-0.672-0.056c-0.988-0.165-1.891-0.62-2.611-1.316L6.927,17.03
	c-0.343-0.331-0.643-0.709-0.889-1.123l-1.087-1.826l-0.343-0.684c-0.496-0.995-1.14-1.9-1.916-2.692
	C2.134,10.577,1.66,10.24,1.356,9.757C1.051,9.272,0.953,8.697,1.08,8.138c0.127-0.559,0.464-1.035,0.949-1.34
	C2.514,6.493,3.09,6.394,3.647,6.521c0.678,0.154,1.238,0.633,1.503,1.264c1.116,0.576,2.307,0.983,3.545,1.211l0.262,0.048
	c0.872,0.161,1.698,0.473,2.456,0.928l0.733,0.44c0.56,0.336,1.06,0.758,1.484,1.253l0.202,0.236
	c0.751,0.875,1.094,2.032,0.94,3.173l-0.013,0.103c-0.106,0.791-0.47,1.539-1.024,2.109l-0.233,0.238
	C12.729,18.32,11.671,18.759,10.579,18.759z M3.172,7.968c-0.294,0-0.562,0.203-0.629,0.502C2.504,8.639,2.534,8.812,2.625,8.958
	s0.235,0.248,0.403,0.286l0.265,0.025l0.282,0.2c0.97,0.948,1.769,2.044,2.375,3.259l0.316,0.635l1.06,1.777
	c0.178,0.3,0.395,0.573,0.643,0.812l0.369,0.356c0.501,0.484,1.128,0.8,1.815,0.914c0.836,0.143,1.686-0.14,2.277-0.745l0.232-0.237
	c0.335-0.345,0.547-0.78,0.611-1.259l0.013-0.103c0.098-0.722-0.118-1.449-0.591-2l-0.202-0.235
	c-0.32-0.374-0.697-0.691-1.119-0.944l-0.733-0.44c-0.604-0.362-1.262-0.611-1.957-0.74l-0.262-0.048
	C6.934,10.196,5.504,9.69,4.175,8.965L3.878,8.803L3.803,8.473C3.748,8.231,3.557,8.039,3.315,7.984
	C3.267,7.973,3.219,7.968,3.172,7.968z"/>
</svg>






