<?xml version="1.0" encoding="iso-8859-1"?>
<svg version="1.1" id="&#x56FE;&#x5C42;_1" xmlns="http://www.w3.org/2000/svg" xmlns:xlink="http://www.w3.org/1999/xlink" x="0px"
	 y="0px" viewBox="0 0 24 24" style="enable-background:new 0 0 24 24;" xml:space="preserve">
<g>
	<defs>
		<rect id="SVGID_1_" width="24" height="24"/>
	</defs>
	<clipPath id="SVGID_00000009553604745449280210000013046591714258244764_">
		<use xlink:href="#SVGID_1_"  style="overflow:visible;"/>
	</clipPath>
	<g style="clip-path:url(#SVGID_00000009553604745449280210000013046591714258244764_);">
		<path style="fill:#333333;" d="M13.345,18.701c-0.795,0-1.666-0.092-2.594-0.277c-2.769-0.554-5.374-1.837-6.968-3.432
			c-2.649-2.649-4.041-6.919,0-10.959c4.04-4.04,8.309-2.649,10.96,0c3.213,3.213,5.067,10.841,2.475,13.435l0,0
			C16.405,18.28,15.05,18.701,13.345,18.701z M9.218,2.987c-1.317,0-2.81,0.541-4.375,2.106c-3.988,3.989-1.329,7.509,0,8.838
			c1.373,1.373,3.75,2.531,6.202,3.021c2.31,0.463,4.318,0.248,5.112-0.546l0,0c1.679-1.68,0.567-8.271-2.475-11.314
			C12.875,4.286,11.257,2.987,9.218,2.987z"/>
		
			<rect x="18" y="16.275" transform="matrix(0.7071 -0.7071 0.7071 0.7071 -7.7665 18.75)" style="fill:#333333;" width="1.5" height="4.95"/>
		<circle style="fill:#333333;" cx="21.097" cy="20.036" r="1.25"/>
		<circle style="fill:#333333;" cx="20.036" cy="21.096" r="1.25"/>
		<circle style="fill:#333333;" cx="8.5" cy="9" r="1"/>
		<circle style="fill:#333333;" cx="6" cy="10.5" r="1"/>
		<circle style="fill:#333333;" cx="8.5" cy="12" r="1"/>
	</g>
</g>
</svg>






