<?xml version="1.0" encoding="iso-8859-1"?>
<svg version="1.1" id="&#x56FE;&#x5C42;_1" xmlns="http://www.w3.org/2000/svg" xmlns:xlink="http://www.w3.org/1999/xlink" x="0px"
	 y="0px" viewBox="0 0 24 24" style="enable-background:new 0 0 24 24;" xml:space="preserve">
<path style="fill:#333333;" d="M14.768,15.663c-0.603-2.715,0.355-7.448,5.469-9.365l0.527,1.404
	c-4.717,1.769-4.87,6.111-4.531,7.635L14.768,15.663z"/>
<rect x="5.75" y="1.697" transform="matrix(0.8321 -0.5547 0.5547 0.8321 -0.8498 4.1934)" style="fill:#333333;" width="1.5" height="3.606"/>
<path style="fill:#333333;" d="M13.671,22.335l-1.342-0.67l1.158-2.316l0.344-0.079c2.901-0.672,4.419-2.812,4.419-3.77h1.5
	c0,1.835-2.088,4.278-5.232,5.143L13.671,22.335z"/>
<path style="fill:#333333;" d="M8.329,22.335l-0.863-1.727c-4.475-1.642-5.669-6.366-5.669-8.683
	c-0.237-2.531,0.39-4.539,1.867-5.901C5.58,4.261,8.52,4.028,10.63,4.398l-0.26,1.478C8.692,5.579,6.195,5.732,4.68,7.128
	c-1.115,1.028-1.582,2.619-1.387,4.729c0.003,2.06,1.035,6.161,4.939,7.43l0.298,0.097l1.141,2.281L8.329,22.335z"/>
<path style="fill:#333333;" d="M20.006,16.25H15.5c-4.016,0-6.114-3.676-6.738-7.116l1.476-0.268c0.25,1.38,1.37,5.884,5.262,5.884
	h2.601c-0.145-1.619,0.408-3.832,3.114-4.944l0.57,1.388c-2.845,1.168-2.154,3.796-2.066,4.092L20.006,16.25z"/>
</svg>






