<?xml version="1.0" encoding="iso-8859-1"?>
<svg version="1.1" id="&#x56FE;&#x5C42;_1" xmlns="http://www.w3.org/2000/svg" xmlns:xlink="http://www.w3.org/1999/xlink" x="0px"
	 y="0px" viewBox="0 0 24 24" style="enable-background:new 0 0 24 24;" xml:space="preserve">
<path style="fill:#333333;" d="M21.75,16h-1.5c0-7.632-2.606-11.25-3.25-11.25c-0.673,0-1.785,1.502-2.329,2.586L14.463,7.75
	l-4.926,0L9.33,7.336C8.785,6.252,7.673,4.75,7,4.75C6.357,4.75,3.75,8.368,3.75,16h-1.5C2.25,8.486,4.753,3.25,7,3.25
	c1.577,0,2.903,2.024,3.45,3h3.1c0.547-0.976,1.873-3,3.45-3C19.247,3.25,21.75,8.486,21.75,16z"/>
<path style="fill:#333333;" d="M21,20.75H3c-0.965,0-1.75-0.785-1.75-1.75v-2c0-0.965,0.785-1.75,1.75-1.75h18
	c0.965,0,1.75,0.785,1.75,1.75v2C22.75,19.965,21.965,20.75,21,20.75z M3,16.75c-0.138,0-0.25,0.112-0.25,0.25v2
	c0,0.138,0.112,0.25,0.25,0.25h18c0.138,0,0.25-0.112,0.25-0.25v-2c0-0.138-0.112-0.25-0.25-0.25H3z"/>
</svg>






