<?xml version="1.0" encoding="iso-8859-1"?>
<svg version="1.1" id="&#x56FE;&#x5C42;_1" xmlns="http://www.w3.org/2000/svg" xmlns:xlink="http://www.w3.org/1999/xlink" x="0px"
	 y="0px" viewBox="0 0 24 24" style="enable-background:new 0 0 24 24;" xml:space="preserve">
<g>
	<defs>
		<rect id="SVGID_1_" width="24" height="24"/>
	</defs>
	<clipPath id="SVGID_00000148622271286469366830000016856762895600199304_">
		<use xlink:href="#SVGID_1_"  style="overflow:visible;"/>
	</clipPath>
	<g style="clip-path:url(#SVGID_00000148622271286469366830000016856762895600199304_);">
		<path style="fill:#333333;" d="M4.508,22.305c-0.391,0-0.778-0.12-1.107-0.354c-0.498-0.353-0.793-0.903-0.81-1.513
			s0.247-1.177,0.724-1.557l1.39-1.104c1.972-1.566,3.39-3.672,4.1-6.088l1.06-3.604c0.462-1.571,1.614-2.781,3.161-3.319
			c1.547-0.537,3.201-0.303,4.539,0.643c1.155,0.817,1.914,2.093,2.081,3.499c0.166,1.407-0.273,2.825-1.206,3.891l-1.565,1.787
			c-2.678,3.058-6.101,5.446-9.897,6.906l-1.779,0.684C4.974,22.262,4.741,22.305,4.508,22.305z M14.682,5.984
			c-0.389,0-0.781,0.065-1.164,0.199c-1.083,0.377-1.891,1.224-2.214,2.325l-1.06,3.605c-0.798,2.715-2.391,5.08-4.606,6.839
			l-1.39,1.104c-0.142,0.113-0.16,0.263-0.158,0.341c0.002,0.078,0.028,0.225,0.177,0.33c0.115,0.081,0.261,0.1,0.392,0.049
			l1.78-0.684c3.57-1.373,6.789-3.619,9.306-6.494l1.565-1.787c0.654-0.747,0.962-1.74,0.845-2.726
			c-0.116-0.985-0.647-1.878-1.458-2.451C16.092,6.205,15.393,5.984,14.682,5.984z"/>
		<path style="fill:#333333;" d="M19.273,8.623l-0.938-1.172c0.26-0.207,0.452-0.484,0.557-0.801
			c0.295-0.898-0.195-1.87-1.093-2.166c-0.436-0.143-0.9-0.109-1.31,0.098c-0.409,0.206-0.714,0.56-0.857,0.995l-1.424-0.469
			c0.269-0.816,0.839-1.479,1.605-1.865c0.766-0.386,1.639-0.453,2.454-0.183c1.684,0.555,2.603,2.376,2.048,4.06
			C20.121,7.714,19.76,8.233,19.273,8.623z"/>
		
			<rect x="18.586" y="2.25" transform="matrix(0.7071 -0.7071 0.7071 0.7071 3.7365 15.0208)" style="fill:#333333;" width="2.828" height="1.5"/>
	</g>
</g>
</svg>






