<?xml version="1.0" encoding="iso-8859-1"?>
<svg version="1.1" id="&#x56FE;&#x5C42;_1" xmlns="http://www.w3.org/2000/svg" xmlns:xlink="http://www.w3.org/1999/xlink" x="0px"
	 y="0px" viewBox="0 0 24 24" style="enable-background:new 0 0 24 24;" xml:space="preserve">
<rect x="2" y="21.25" style="fill:#333333;" width="20" height="1.5"/>
<rect x="6.5" y="6.25" style="fill:#333333;" width="11" height="1.5"/>
<path style="fill:#333333;" d="M18.856,22.75H5.144l2.2-16.5h9.313L18.856,22.75z M6.856,21.25h10.287l-1.8-13.5H8.657L6.856,21.25z
	"/>
<rect x="7.5" y="11.25" style="fill:#333333;" width="9" height="1.5"/>
<rect x="6.5" y="16.25" style="fill:#333333;" width="11" height="1.5"/>
<rect x="16.25" y="6.934" transform="matrix(0.9912 -0.1322 0.1322 0.9912 -1.7673 2.3741)" style="fill:#333333;" width="1.499" height="15.133"/>
<rect x="-0.566" y="13.75" transform="matrix(0.1315 -0.9913 0.9913 0.1315 -8.2945 19.5327)" style="fill:#333333;" width="15.133" height="1.5"/>
<path style="fill:#333333;" d="M12.53,4.53L11.47,3.47l0.414-0.414c0.52-0.52,1.21-0.806,1.944-0.806h0.344
	c0.329,0,0.651-0.133,0.884-0.366L15.47,1.47L16.53,2.53l-0.414,0.414c-0.52,0.52-1.21,0.806-1.944,0.806h-0.344
	c-0.329,0-0.651,0.133-0.884,0.366L12.53,4.53z"/>
</svg>






