<?xml version="1.0" encoding="iso-8859-1"?>
<svg version="1.1" id="&#x56FE;&#x5C42;_1" xmlns="http://www.w3.org/2000/svg" xmlns:xlink="http://www.w3.org/1999/xlink" x="0px"
	 y="0px" viewBox="0 0 24 24" style="enable-background:new 0 0 24 24;" xml:space="preserve">
<path style="fill:#333333;" d="M19.5,21.75h-15c-1.241,0-2.25-1.01-2.25-2.25v-15c0-1.241,1.009-2.25,2.25-2.25h15
	c1.24,0,2.25,1.009,2.25,2.25v15C21.75,20.74,20.74,21.75,19.5,21.75z M4.5,3.75c-0.414,0-0.75,0.336-0.75,0.75v15
	c0,0.413,0.336,0.75,0.75,0.75h15c0.413,0,0.75-0.337,0.75-0.75v-15c0-0.414-0.337-0.75-0.75-0.75H4.5z"/>
<path style="fill:#333333;" d="M8.704,16.25c-1.335,0-2.821-1.372-2.945-3.916C5.641,9.93,6.782,7.968,8.414,7.77
	c1.507-0.178,2.447,0.94,2.796,1.957l-1.419,0.487C9.706,9.965,9.378,9.166,8.594,9.259c-0.713,0.086-1.42,1.313-1.337,3.002
	c0.08,1.624,0.891,2.489,1.447,2.489c0.671,0,1.104-0.938,1.109-0.946l1.377,0.594C10.895,15.086,10.04,16.25,8.704,16.25z"/>
<rect x="12.25" y="9.5" style="fill:#333333;" width="1.5" height="6"/>
<path style="fill:#333333;" d="M18.25,15.5h-1.5v-3.25c0-0.827-0.673-1.5-1.5-1.5s-1.5,0.673-1.5,1.5v3.25h-1.5v-3.25
	c0-1.654,1.346-3,3-3s3,1.346,3,3V15.5z"/>
</svg>






