<?xml version="1.0" encoding="iso-8859-1"?>
<svg version="1.1" id="&#x56FE;&#x5C42;_1" xmlns="http://www.w3.org/2000/svg" xmlns:xlink="http://www.w3.org/1999/xlink" x="0px"
	 y="0px" viewBox="0 0 24 24" style="enable-background:new 0 0 24 24;" xml:space="preserve">
<path style="fill:#333333;" d="M18.582,10.25L5.338,10.232c-0.051-0.011-1.263-0.279-2.052-0.513
	C2.68,9.539,1.748,9.207,1.748,9.207l0.18-1.453c0.41-0.04,1.623-0.198,2.309-0.456C5.207,6.934,6.56,5.834,7,5.441L7.213,5.25
	h9.573L17,5.441c0.439,0.393,1.793,1.493,2.764,1.857c0.687,0.257,1.898,0.416,2.309,0.456l0.18,1.453c0,0-0.932,0.332-1.538,0.512
	c-0.788,0.234-2.001,0.502-2.053,0.514L18.582,10.25z M5.583,8.75h12.834c0.112-0.025,0.332-0.075,0.597-0.138
	c-1.097-0.477-2.305-1.448-2.793-1.862H7.779C7.291,7.164,6.083,8.135,4.986,8.612C5.251,8.675,5.471,8.725,5.583,8.75z"/>
<path style="fill:#333333;" d="M15,6.75H9l-0.6-1.2l3.6-4.8l3.6,4.8L15,6.75z M10.5,5.25h3l-1.5-2L10.5,5.25z"/>
<rect x="4.75" y="9.5" style="fill:#333333;" width="1.5" height="9.5"/>
<rect x="17.75" y="9.5" style="fill:#333333;" width="1.5" height="9.5"/>
<path style="fill:#333333;" d="M21.75,22.75H2.25v-4.5h19.5V22.75z M3.75,21.25h16.5v-1.5H3.75V21.25z"/>
</svg>






