<?xml version="1.0" encoding="iso-8859-1"?>
<svg version="1.1" id="&#x56FE;&#x5C42;_1" xmlns="http://www.w3.org/2000/svg" xmlns:xlink="http://www.w3.org/1999/xlink" x="0px"
	 y="0px" viewBox="0 0 24 24" style="enable-background:new 0 0 24 24;" xml:space="preserve">
<path style="fill:#333333;" d="M21.006,20.75H7c-2.623,0-5.75-1.518-5.75-8.75c0-8.328,4.79-8.75,5.75-8.75h14.006
	c0.962,0,1.744,0.785,1.744,1.75v14C22.75,19.965,21.968,20.75,21.006,20.75z M7,4.75c-0.997,0-4.25,0.523-4.25,7.25
	c0,4.811,1.43,7.25,4.25,7.25h14.006c0.137,0,0.244-0.109,0.244-0.25V5c0-0.14-0.107-0.25-0.244-0.25H7z"/>
<rect x="5.25" y="10" style="fill:#333333;" width="1.5" height="4"/>
</svg>






