<?xml version="1.0" encoding="iso-8859-1"?>
<svg version="1.1" id="&#x56FE;&#x5C42;_1" xmlns="http://www.w3.org/2000/svg" xmlns:xlink="http://www.w3.org/1999/xlink" x="0px"
	 y="0px" viewBox="0 0 24 24" style="enable-background:new 0 0 24 24;" xml:space="preserve">
<path style="fill:#333333;" d="M19.5,17.75h-15l-0.585-1.219l3.368-4.21l-2.617-1.047l4.068-4.068l-2-1L12,0.939l5.267,5.266l-2,1
	l4.122,4.122l-3.065,1.022l3.734,4.148L19.5,17.75z M6.061,16.25h11.756l-4.14-4.6l2.935-0.978l-3.878-3.878l2-1L12,3.061
	L9.266,5.794l2,1l-3.932,3.932l2.383,0.953L6.061,16.25z"/>
<rect x="8.5" y="21.25" style="fill:#333333;" width="7" height="1.5"/>
<rect x="7.738" y="18.75" transform="matrix(0.099 -0.9951 0.9951 0.099 -10.1689 27.7694)" style="fill:#333333;" width="5.025" height="1.5"/>
<rect x="13" y="16.988" transform="matrix(0.995 -0.0995 0.0995 0.995 -1.8721 1.465)" style="fill:#333333;" width="1.5" height="5.025"/>
</svg>






