<?xml version="1.0" encoding="iso-8859-1"?>
<svg version="1.1" id="&#x56FE;&#x5C42;_1" xmlns="http://www.w3.org/2000/svg" xmlns:xlink="http://www.w3.org/1999/xlink" x="0px"
	 y="0px" viewBox="0 0 24 24" style="enable-background:new 0 0 24 24;" xml:space="preserve">
<path style="fill:#333333;" d="M18.25,22.75H5.75V11.668L12,5.986l6.25,5.682V22.75z M7.25,21.25h9.5v-8.918L12,8.014l-4.75,4.318
	V21.25z"/>
<path style="fill:#333333;" d="M7.25,22.75h-4.5v-19l2.25-3l2.25,3V22.75z M4.25,21.25h1.5v-17L5,3.25l-0.75,1V21.25z"/>
<path style="fill:#333333;" d="M21.25,22.75h-4.5v-19l2.25-3l2.25,3V22.75z M18.25,21.25h1.5v-17l-0.75-1l-0.75,1V21.25z"/>
<rect x="11.25" y="12.5" style="fill:#333333;" width="1.5" height="5"/>
<rect x="10" y="13.75" style="fill:#333333;" width="4" height="1.5"/>
</svg>






