<?xml version="1.0" encoding="iso-8859-1"?>
<svg version="1.1" id="&#x56FE;&#x5C42;_1" xmlns="http://www.w3.org/2000/svg" xmlns:xlink="http://www.w3.org/1999/xlink" x="0px"
	 y="0px" viewBox="0 0 24 24" style="enable-background:new 0 0 24 24;" xml:space="preserve">
<rect x="11.25" y="2" style="fill:#333333;" width="1.5" height="6"/>
<rect x="10" y="3.25" style="fill:#333333;" width="4" height="1.5"/>
<path style="fill:#333333;" d="M4.25,22h-1.5v-7c0-0.965,0.785-1.75,1.75-1.75h3v1.5h-3c-0.138,0-0.25,0.112-0.25,0.25V22z"/>
<path style="fill:#333333;" d="M21.25,22h-1.5v-7c0-0.138-0.112-0.25-0.25-0.25h-3v-1.5h3c0.965,0,1.75,0.785,1.75,1.75V22z"/>
<rect x="2" y="21.25" style="fill:#333333;" width="20" height="1.5"/>
<path style="fill:#333333;" d="M17.25,22.75H6.75V11.163L12,6.497l5.25,4.667V22.75z M8.25,21.25h7.5v-9.413L12,8.503l-3.75,3.333
	V21.25z"/>
<rect x="11.25" y="17" style="fill:#333333;" width="1.5" height="5"/>
<rect x="10" y="21.25" style="fill:#333333;" width="4" height="1.5"/>
</svg>






