<?xml version="1.0" encoding="iso-8859-1"?>
<svg version="1.1" id="&#x56FE;&#x5C42;_1" xmlns="http://www.w3.org/2000/svg" xmlns:xlink="http://www.w3.org/1999/xlink" x="0px"
	 y="0px" viewBox="0 0 24 24" style="enable-background:new 0 0 24 24;" xml:space="preserve">
<path style="fill:#333333;" d="M22,22.75H0.939l0.354-1c0.015-0.042,1.5-4.25,1.975-6.411c0.431-1.966,0.485-2.402,0.487-2.42
	l1.492,0.153c-0.007,0.073-0.065,0.542-0.514,2.589c-0.352,1.604-1.199,4.178-1.679,5.589h17.894
	c-0.48-1.411-1.327-3.984-1.68-5.589c-0.449-2.047-0.507-2.516-0.514-2.589l1.492-0.145c0.002,0.009,0.056,0.445,0.486,2.411
	c0.475,2.161,1.96,6.369,1.975,6.411l0.354,1H22z"/>
<path style="fill:#333333;" d="M8.61,22.436l-1.222-0.87c0.023-0.033,2.327-3.338,1.866-7.482l1.491-0.166
	C11.271,18.648,8.719,22.283,8.61,22.436z"/>
<path style="fill:#333333;" d="M15.39,22.436c-0.108-0.152-2.661-3.787-2.135-8.519l1.49,0.166c-0.46,4.145,1.843,7.449,1.866,7.482
	L15.39,22.436z"/>
<path style="fill:#333333;" d="M10,15c-0.595,0-1.046-0.527-1.569-1.137c-0.147-0.172-0.374-0.437-0.523-0.574
	c-0.008,0.003-0.017,0.006-0.026,0.01c-1.462,0.583-2.765,0.656-3.869,0.214l-1.193-0.478L2.136,8.256L2.995,8.25
	c0.037,0,3.717-0.032,5.305-0.473c1.335-0.371,3.328-1.429,3.348-1.439l0.367-0.195l0.359,0.207c0.019,0.01,1.854,1.059,3.093,1.432
	c1.657,0.499,5.486,0.467,5.527,0.468l0.873-0.008l-0.68,4.753l-0.352,0.176C19.851,13.663,18.56,14.25,18,14.25
	c-0.478,0-0.934-0.304-1.416-0.626c-0.157-0.104-0.399-0.267-0.551-0.342c-0.22,0.145-0.615,0.515-0.82,0.707
	C14.672,14.496,14.399,14.75,14,14.75s-0.672-0.254-1.213-0.761c-0.184-0.171-0.518-0.484-0.744-0.653
	c-0.146,0.146-0.342,0.373-0.474,0.527C11.046,14.473,10.595,15,10,15z M10.191,13.54L10.191,13.54L10.191,13.54z M9.809,13.54
	L9.809,13.54L9.809,13.54z M8,11.75c0.595,0,1.046,0.527,1.569,1.137c0.12,0.14,0.291,0.339,0.431,0.483
	c0.14-0.145,0.311-0.344,0.431-0.483c0.523-0.609,0.975-1.137,1.569-1.137c0.55,0,1.051,0.432,1.812,1.144
	c0.059,0.055,0.124,0.116,0.188,0.176c0.064-0.06,0.13-0.121,0.188-0.176C14.949,12.182,15.45,11.75,16,11.75
	c0.478,0,0.934,0.304,1.416,0.626c0.195,0.131,0.523,0.349,0.642,0.379c0.163-0.031,0.993-0.388,1.756-0.754l0.322-2.256
	c-1.303-0.021-3.743-0.118-5.102-0.527c-1.059-0.318-2.41-1.021-3.047-1.367c-0.676,0.343-2.148,1.056-3.287,1.372
	c-1.281,0.355-3.588,0.472-4.838,0.51l0.319,2.232l0.388,0.155c0.744,0.297,1.648,0.227,2.758-0.215
	C7.594,11.799,7.808,11.75,8,11.75z"/>
<rect x="11.25" y="2.5" style="fill:#333333;" width="1.5" height="5"/>
<path style="fill:#333333;" d="M16.776,6.917c-0.666,0-1.4-0.266-2.192-0.793c-0.63-0.42-1.183-0.606-1.552-0.521
	c-0.252,0.058-0.36,0.232-0.372,0.251L11.25,5.5V2.323l0.079-0.158c0.039-0.078,0.407-0.769,1.295-1.005
	c0.817-0.219,1.755,0.024,2.792,0.716c0.63,0.42,1.184,0.607,1.552,0.521c0.252-0.058,0.36-0.232,0.372-0.251L18.75,2.5v3.177
	l-0.079,0.158c-0.039,0.078-0.407,0.769-1.295,1.005C17.183,6.892,16.982,6.917,16.776,6.917z M13.224,4.083
	c0.666,0,1.4,0.266,2.192,0.793c0.63,0.42,1.184,0.608,1.552,0.521c0.13-0.03,0.223-0.091,0.282-0.146V3.87
	c-0.782,0.163-1.682-0.09-2.666-0.746c-0.63-0.42-1.183-0.604-1.552-0.521c-0.13,0.03-0.223,0.091-0.282,0.146v1.38
	C12.903,4.098,13.062,4.083,13.224,4.083z"/>
</svg>






