<?xml version="1.0" encoding="iso-8859-1"?>
<svg version="1.1" id="&#x56FE;&#x5C42;_1" xmlns="http://www.w3.org/2000/svg" xmlns:xlink="http://www.w3.org/1999/xlink" x="0px"
	 y="0px" viewBox="0 0 24 24" style="enable-background:new 0 0 24 24;" xml:space="preserve">
<path style="fill:#333333;" d="M12,6.75c-1.517,0-2.75-1.233-2.75-2.75S10.483,1.25,12,1.25S14.75,2.483,14.75,4
	S13.517,6.75,12,6.75z M12,2.75c-0.689,0-1.25,0.561-1.25,1.25S11.311,5.25,12,5.25S13.25,4.689,13.25,4S12.689,2.75,12,2.75z"/>
<path style="fill:#333333;" d="M12,14.75c-1.517,0-2.75-1.233-2.75-2.75S10.483,9.25,12,9.25s2.75,1.233,2.75,2.75
	S13.517,14.75,12,14.75z M12,10.75c-0.689,0-1.25,0.561-1.25,1.25s0.561,1.25,1.25,1.25s1.25-0.561,1.25-1.25S12.689,10.75,12,10.75
	z"/>
<path style="fill:#333333;" d="M18.934,10.75c-0.951,0-1.878-0.493-2.387-1.375c-0.367-0.636-0.465-1.377-0.275-2.087
	c0.19-0.709,0.646-1.302,1.282-1.669c0.637-0.368,1.379-0.465,2.086-0.275c0.71,0.19,1.303,0.646,1.67,1.282
	c0.367,0.635,0.465,1.376,0.275,2.086c-0.19,0.709-0.646,1.303-1.281,1.67C19.872,10.631,19.399,10.75,18.934,10.75z M18.927,6.75
	c-0.217,0-0.431,0.057-0.623,0.168c-0.289,0.167-0.496,0.437-0.583,0.759c-0.086,0.322-0.042,0.659,0.125,0.948
	c0.345,0.596,1.109,0.801,1.708,0.458c0.289-0.167,0.496-0.437,0.582-0.759c0.087-0.323,0.042-0.66-0.125-0.949
	s-0.437-0.496-0.759-0.583C19.145,6.764,19.035,6.75,18.927,6.75z"/>
<path style="fill:#333333;" d="M18.924,18.751c-0.477,0-0.946-0.124-1.37-0.369c-0.637-0.367-1.092-0.961-1.282-1.67
	c-0.189-0.709-0.092-1.45,0.275-2.087l0,0c0.758-1.312,2.444-1.765,3.757-1.007c1.313,0.76,1.765,2.444,1.006,3.757
	c-0.366,0.636-0.96,1.091-1.67,1.281C19.403,18.72,19.163,18.751,18.924,18.751z M17.846,15.375L17.846,15.375
	c-0.345,0.597-0.139,1.363,0.458,1.708c0.29,0.168,0.629,0.209,0.948,0.125c0.322-0.087,0.592-0.294,0.759-0.583
	c0.345-0.597,0.14-1.363-0.457-1.708C18.955,14.571,18.19,14.778,17.846,15.375z"/>
<path style="fill:#333333;" d="M12,22.75c-1.517,0-2.75-1.233-2.75-2.75s1.233-2.75,2.75-2.75s2.75,1.233,2.75,2.75
	S13.517,22.75,12,22.75z M12,18.75c-0.689,0-1.25,0.561-1.25,1.25s0.561,1.25,1.25,1.25s1.25-0.561,1.25-1.25S12.689,18.75,12,18.75
	z"/>
<path style="fill:#333333;" d="M5.077,18.749c-0.952,0-1.878-0.493-2.386-1.374c-0.758-1.312-0.307-2.998,1.006-3.757
	c1.314-0.758,2.999-0.305,3.756,1.007l0,0c0.758,1.313,0.307,2.998-1.006,3.757C6.015,18.631,5.542,18.749,5.077,18.749z
	 M5.069,14.75c-0.211,0-0.426,0.054-0.623,0.167c-0.596,0.345-0.802,1.111-0.457,1.708c0.344,0.596,1.109,0.803,1.708,0.458
	c0.596-0.345,0.801-1.111,0.457-1.708l0,0C5.923,14.975,5.501,14.75,5.069,14.75z"/>
<path style="fill:#333333;" d="M5.067,10.751c-0.477,0-0.947-0.125-1.371-0.37c-0.636-0.367-1.091-0.96-1.281-1.67
	c-0.19-0.709-0.092-1.45,0.275-2.086s0.96-1.091,1.67-1.281s1.45-0.092,2.086,0.275s1.091,0.96,1.281,1.67
	c0.19,0.709,0.092,1.45-0.275,2.086s-0.96,1.091-1.669,1.281C5.546,10.72,5.306,10.751,5.067,10.751z M5.074,6.75
	c-0.432,0-0.853,0.224-1.084,0.625C3.645,7.972,3.85,8.738,4.447,9.083c0.29,0.167,0.626,0.211,0.948,0.125
	c0.323-0.086,0.592-0.293,0.759-0.583c0.345-0.597,0.139-1.363-0.458-1.708C5.5,6.804,5.286,6.75,5.074,6.75z"/>
</svg>






