<?xml version="1.0" encoding="iso-8859-1"?>
<svg version="1.1" id="&#x56FE;&#x5C42;_1" xmlns="http://www.w3.org/2000/svg" xmlns:xlink="http://www.w3.org/1999/xlink" x="0px"
	 y="0px" viewBox="0 0 24 24" style="enable-background:new 0 0 24 24;" xml:space="preserve">
<path style="fill:#333333;" d="M12,21.25c-0.786,0-1.564-0.11-2.313-0.329l-0.666-0.193l0.141-0.679
	c0.058-0.282,0.088-0.572,0.088-0.863c0-2.344-1.907-4.25-4.25-4.25c-0.116,0-0.23,0.004-0.344,0.014l-0.69,0.055l-0.11-0.684
	C3.786,13.888,3.75,13.443,3.75,13c0-2.606,1.253-5.089,3.353-6.64l0.71-0.525l0.403,0.786C8.947,8.048,10.397,8.935,12,8.935
	s3.053-0.887,3.785-2.314l0.402-0.786l0.71,0.525c2.1,1.551,3.353,4.033,3.353,6.64c0,0.446-0.035,0.891-0.105,1.321l-0.111,0.683
	l-0.688-0.055c-0.114-0.01-0.229-0.014-0.345-0.014c-2.344,0-4.25,1.906-4.25,4.25c0,0.293,0.029,0.583,0.088,0.862l0.142,0.68
	l-0.666,0.193C13.563,21.14,12.785,21.25,12,21.25z M10.733,19.631c0.832,0.157,1.701,0.159,2.534,0
	c-0.011-0.147-0.017-0.296-0.017-0.445c0-3.082,2.438-5.605,5.486-5.744c0.009-0.146,0.014-0.294,0.014-0.441
	c0-1.858-0.779-3.64-2.116-4.908c-1.073,1.464-2.778,2.343-4.634,2.343c-1.856,0-3.561-0.879-4.633-2.343
	C6.029,9.36,5.25,11.142,5.25,13c0,0.147,0.005,0.295,0.014,0.441c3.048,0.139,5.486,2.662,5.486,5.744
	C10.75,19.334,10.744,19.483,10.733,19.631z"/>
<path style="fill:#333333;" d="M12,7.25c-1.517,0-2.75-1.233-2.75-2.75S10.483,1.75,12,1.75s2.75,1.233,2.75,2.75
	S13.517,7.25,12,7.25z M12,3.25c-0.689,0-1.25,0.561-1.25,1.25S11.311,5.75,12,5.75s1.25-0.561,1.25-1.25S12.689,3.25,12,3.25z"/>
<path style="fill:#333333;" d="M4.5,22.25c-1.517,0-2.75-1.233-2.75-2.75s1.233-2.75,2.75-2.75s2.75,1.233,2.75,2.75
	S6.017,22.25,4.5,22.25z M4.5,18.25c-0.689,0-1.25,0.561-1.25,1.25s0.561,1.25,1.25,1.25s1.25-0.561,1.25-1.25
	S5.189,18.25,4.5,18.25z"/>
<path style="fill:#333333;" d="M19.5,22.25c-1.517,0-2.75-1.233-2.75-2.75s1.233-2.75,2.75-2.75s2.75,1.233,2.75,2.75
	S21.017,22.25,19.5,22.25z M19.5,18.25c-0.689,0-1.25,0.561-1.25,1.25s0.561,1.25,1.25,1.25s1.25-0.561,1.25-1.25
	S20.189,18.25,19.5,18.25z"/>
</svg>






