<?xml version="1.0" encoding="iso-8859-1"?>
<svg version="1.1" id="&#x56FE;&#x5C42;_1" xmlns="http://www.w3.org/2000/svg" xmlns:xlink="http://www.w3.org/1999/xlink" x="0px"
	 y="0px" viewBox="0 0 24 24" style="enable-background:new 0 0 24 24;" xml:space="preserve">
<path style="fill:#333333;" d="M20,6.75c-1.517,0-2.75-1.233-2.75-2.75S18.483,1.25,20,1.25S22.75,2.483,22.75,4
	S21.517,6.75,20,6.75z M20,2.75c-0.689,0-1.25,0.561-1.25,1.25S19.311,5.25,20,5.25S21.25,4.689,21.25,4S20.689,2.75,20,2.75z"/>
<path style="fill:#333333;" d="M4,22.75c-1.517,0-2.75-1.233-2.75-2.75S2.483,17.25,4,17.25S6.75,18.483,6.75,20
	S5.517,22.75,4,22.75z M4,18.75c-0.689,0-1.25,0.561-1.25,1.25S3.311,21.25,4,21.25S5.25,20.689,5.25,20S4.689,18.75,4,18.75z"/>
<polygon style="fill:#333333;" points="20.75,20.75 10,20.75 10,19.25 19.25,19.25 19.25,10 20.75,10 "/>
<polygon style="fill:#333333;" points="4.75,14 3.25,14 3.25,3.25 14,3.25 14,4.75 4.75,4.75 "/>
</svg>






