<?xml version="1.0" encoding="iso-8859-1"?>
<svg version="1.1" id="&#x56FE;&#x5C42;_1" xmlns="http://www.w3.org/2000/svg" xmlns:xlink="http://www.w3.org/1999/xlink" x="0px"
	 y="0px" viewBox="0 0 24 24" style="enable-background:new 0 0 24 24;" xml:space="preserve">
<path style="fill:#333333;" d="M20,6.75c-1.517,0-2.75-1.233-2.75-2.75S18.483,1.25,20,1.25S22.75,2.483,22.75,4
	S21.517,6.75,20,6.75z M20,2.75c-0.689,0-1.25,0.561-1.25,1.25S19.311,5.25,20,5.25S21.25,4.689,21.25,4S20.689,2.75,20,2.75z"/>
<path style="fill:#333333;" d="M12,14.75c-1.517,0-2.75-1.233-2.75-2.75S10.483,9.25,12,9.25s2.75,1.233,2.75,2.75
	S13.517,14.75,12,14.75z M12,10.75c-0.689,0-1.25,0.561-1.25,1.25s0.561,1.25,1.25,1.25s1.25-0.561,1.25-1.25S12.689,10.75,12,10.75
	z"/>
<path style="fill:#333333;" d="M20,22.75c-1.517,0-2.75-1.233-2.75-2.75s1.233-2.75,2.75-2.75s2.75,1.233,2.75,2.75
	S21.517,22.75,20,22.75z M20,18.75c-0.689,0-1.25,0.561-1.25,1.25s0.561,1.25,1.25,1.25s1.25-0.561,1.25-1.25S20.689,18.75,20,18.75
	z"/>
<path style="fill:#333333;" d="M4,6.75C2.483,6.75,1.25,5.517,1.25,4S2.483,1.25,4,1.25S6.75,2.483,6.75,4S5.517,6.75,4,6.75z
	 M4,2.75C3.311,2.75,2.75,3.311,2.75,4S3.311,5.25,4,5.25S5.25,4.689,5.25,4S4.689,2.75,4,2.75z"/>
<path style="fill:#333333;" d="M4,22.75c-1.517,0-2.75-1.233-2.75-2.75S2.483,17.25,4,17.25S6.75,18.483,6.75,20
	S5.517,22.75,4,22.75z M4,18.75c-0.689,0-1.25,0.561-1.25,1.25S3.311,21.25,4,21.25S5.25,20.689,5.25,20S4.689,18.75,4,18.75z"/>
<rect x="10" y="19.25" style="fill:#333333;" width="4" height="1.5"/>
<rect x="10" y="3.25" style="fill:#333333;" width="4" height="1.5"/>
<rect x="3.25" y="10" style="fill:#333333;" width="1.5" height="4"/>
<rect x="19.25" y="10" style="fill:#333333;" width="1.5" height="4"/>
</svg>






