<?xml version="1.0" encoding="iso-8859-1"?>
<svg version="1.1" id="&#x56FE;&#x5C42;_1" xmlns="http://www.w3.org/2000/svg" xmlns:xlink="http://www.w3.org/1999/xlink" x="0px"
	 y="0px" viewBox="0 0 24 24" style="enable-background:new 0 0 24 24;" xml:space="preserve">
<path style="fill:#333333;" d="M18.582,9.75L5.338,9.732C5.287,9.721,4.075,9.453,3.287,9.219C2.68,9.039,1.748,8.707,1.748,8.707
	l0.171-1.452c0.875-0.095,1.98-0.285,2.229-0.417C5.065,6.352,7.037,4.91,7.057,4.895L7.254,4.75h8.95l0.176,0.104
	c0.025,0.015,2.521,1.48,3.471,1.983c0.251,0.133,1.355,0.323,2.229,0.417l0.172,1.452c0,0-0.932,0.332-1.538,0.512
	c-0.788,0.234-2.001,0.502-2.053,0.514L18.582,9.75z M5.583,8.25h12.834c0.116-0.026,0.348-0.079,0.624-0.145
	c-0.886-0.477-2.674-1.521-3.245-1.855H7.744C7.222,6.627,5.812,7.632,4.958,8.105C5.235,8.171,5.467,8.224,5.583,8.25z"/>
<path style="fill:#333333;" d="M15,6.25H8.5L7.97,4.97l4.072-4.073l3.527,4.115L15,6.25z M10.311,4.75h3.059l-1.412-1.647
	L10.311,4.75z"/>
<rect x="16.75" y="9" style="fill:#333333;" width="1.5" height="3"/>
<rect x="5.25" y="9" style="fill:#333333;" width="1.5" height="3"/>
<path style="fill:#333333;" d="M22.829,22.75H1.171l1.15-11.5h19.357L22.829,22.75z M2.829,21.25h18.342l-0.85-8.5H3.679
	L2.829,21.25z"/>
<path style="fill:#333333;" d="M14.75,22.75h-5.5V19c0-1.517,1.233-2.75,2.75-2.75s2.75,1.233,2.75,2.75V22.75z M10.75,21.25h2.5V19
	c0-0.689-0.561-1.25-1.25-1.25s-1.25,0.561-1.25,1.25V21.25z"/>
</svg>






