<?xml version="1.0" encoding="iso-8859-1"?>
<svg version="1.1" id="&#x56FE;&#x5C42;_1" xmlns="http://www.w3.org/2000/svg" xmlns:xlink="http://www.w3.org/1999/xlink" x="0px"
	 y="0px" viewBox="0 0 24 24" style="enable-background:new 0 0 24 24;" xml:space="preserve">
<rect x="2" y="20.25" style="fill:#333333;" width="20" height="1.5"/>
<path style="fill:#333333;" d="M9,21.75H5c-0.965,0-1.75-0.785-1.75-1.75v-8c0-0.965,0.785-1.75,1.75-1.75h4
	c0.965,0,1.75,0.785,1.75,1.75v8C10.75,20.965,9.965,21.75,9,21.75z M5,11.75c-0.138,0-0.25,0.112-0.25,0.25v8
	c0,0.138,0.112,0.25,0.25,0.25h4c0.138,0,0.25-0.112,0.25-0.25v-8c0-0.138-0.112-0.25-0.25-0.25H5z"/>
<path style="fill:#333333;" d="M19,21.75h-8c-0.965,0-1.75-0.785-1.75-1.75V3c0-0.965,0.785-1.75,1.75-1.75h8
	c0.965,0,1.75,0.785,1.75,1.75v17C20.75,20.965,19.965,21.75,19,21.75z M11,2.75c-0.138,0-0.25,0.112-0.25,0.25v17
	c0,0.138,0.112,0.25,0.25,0.25h8c0.138,0,0.25-0.112,0.25-0.25V3c0-0.138-0.112-0.25-0.25-0.25H11z"/>
<rect x="14" y="15.254" style="fill:#333333;" width="2" height="1.5"/>
<rect x="6" y="15.254" style="fill:#333333;" width="2" height="1.5"/>
<rect x="14" y="10.754" style="fill:#333333;" width="2" height="1.5"/>
<rect x="14" y="6.254" style="fill:#333333;" width="2" height="1.5"/>
</svg>






