<?xml version="1.0" encoding="iso-8859-1"?>
<svg version="1.1" id="&#x56FE;&#x5C42;_1" xmlns="http://www.w3.org/2000/svg" xmlns:xlink="http://www.w3.org/1999/xlink" x="0px"
	 y="0px" viewBox="0 0 24 24" style="enable-background:new 0 0 24 24;" xml:space="preserve">
<g>
	<defs>
		<rect id="SVGID_1_" width="24" height="24"/>
	</defs>
	<clipPath id="SVGID_00000038405297018430245160000006512037914777243026_">
		<use xlink:href="#SVGID_1_"  style="overflow:visible;"/>
	</clipPath>
	<g style="clip-path:url(#SVGID_00000038405297018430245160000006512037914777243026_);">
		<path style="fill:#333333;" d="M9.508,22.759H7.029c-0.96,0-1.746-0.781-1.75-1.742L5.251,14.68L2.475,7.135
			c-0.263-0.712,0.022-1.504,0.68-1.883C3.898,4.823,4.848,5.08,5.276,5.82l3.969,6.882l0.488,1.138l1.485,6.795
			c0.113,0.521-0.013,1.057-0.347,1.472S10.04,22.759,9.508,22.759z M3.977,6.57L3.882,6.615l2.76,7.458
			c0.071,0.192,0.108,0.395,0.109,0.601l0.028,6.337c0,0.137,0.113,0.248,0.25,0.248h2.479c0.104,0,0.167-0.059,0.195-0.093
			c0.028-0.035,0.072-0.109,0.049-0.211l-1.468-6.721L7.89,13.348L3.977,6.57z"/>
		
			<rect x="5.979" y="13.5" transform="matrix(0.9864 -0.1646 0.1646 0.9864 -2.2434 1.429)" style="fill:#333333;" width="3.041" height="1.501"/>
		<path style="fill:#333333;" d="M16.763,22.76H14.28c-0.543,0-1.046-0.245-1.38-0.674c-0.334-0.428-0.449-0.975-0.317-1.501
			l1.849-7.564c0.037-0.186,0.104-0.364,0.201-0.531l3.845-6.661c0.209-0.362,0.546-0.62,0.949-0.728
			c0.403-0.109,0.824-0.053,1.186,0.156c0.645,0.372,0.938,1.153,0.698,1.857l-2.553,7.489l-0.247,6.471
			C18.477,22.019,17.709,22.76,16.763,22.76z M19.127,6.204l0.649,0.375l-3.845,6.661c-0.015,0.025-0.024,0.05-0.029,0.076
			l-0.167,0.832l-1.697,6.802c-0.025,0.104,0.018,0.179,0.045,0.215c0.028,0.035,0.091,0.096,0.197,0.096h2.482
			c0.135,0,0.244-0.105,0.25-0.241l0.233-6.398c0.005-0.164,0.035-0.334,0.091-0.499l2.554-7.491L19.127,6.204z"/>
		
			<rect x="15.75" y="12.729" transform="matrix(0.1644 -0.9864 0.9864 0.1644 -0.2687 28.1828)" style="fill:#333333;" width="1.501" height="3.041"/>
		
			<rect x="7.625" y="3.171" transform="matrix(0.7526 -0.6585 0.6585 0.7526 -0.8911 6.6284)" style="fill:#333333;" width="1.5" height="2.658"/>
		
			<rect x="11" y="1.979" transform="matrix(0.9864 -0.1644 0.1644 0.9864 -0.4155 1.9793)" style="fill:#333333;" width="1.5" height="3.041"/>
		
			<rect x="14.5" y="3.25" transform="matrix(0.6004 -0.7997 0.7997 0.6004 3.0947 14.1934)" style="fill:#333333;" width="2.5" height="1.5"/>
	</g>
</g>
</svg>






