<?xml version="1.0" encoding="iso-8859-1"?>
<svg version="1.1" id="&#x56FE;&#x5C42;_1" xmlns="http://www.w3.org/2000/svg" xmlns:xlink="http://www.w3.org/1999/xlink" x="0px"
	 y="0px" viewBox="0 0 24 24" style="enable-background:new 0 0 24 24;" xml:space="preserve">
<path style="fill:#333333;" d="M12,11.75c-2.895,0-5.25-2.355-5.25-5.25S9.105,1.25,12,1.25c2.895,0,5.25,2.355,5.25,5.25
	S14.895,11.75,12,11.75z M12,2.75c-2.068,0-3.75,1.682-3.75,3.75s1.682,3.75,3.75,3.75c2.067,0,3.75-1.682,3.75-3.75
	S14.067,2.75,12,2.75z"/>
<path style="fill:#333333;" d="M22.25,22h-1.5c0-3.729-2.98-7.496-4.696-8.162l-4.072,4.521l-0.555-0.657
	C10.353,16.43,8.709,14.648,8,13.885C5.888,14.868,3.25,18.169,3.25,22h-1.5c0-4.541,3.278-8.764,6.22-9.714l0.452-0.146
	l0.325,0.347c0.021,0.021,1.856,1.979,3.267,3.596l3.493-3.878l0.391,0.052C18.554,12.605,22.25,17.581,22.25,22z"/>
<rect x="1" y="21.25" style="fill:#333333;" width="22" height="1.5"/>
</svg>






