<?xml version="1.0" encoding="iso-8859-1"?>
<svg version="1.1" id="&#x56FE;&#x5C42;_1" xmlns="http://www.w3.org/2000/svg" xmlns:xlink="http://www.w3.org/1999/xlink" x="0px"
	 y="0px" viewBox="0 0 24 24" style="enable-background:new 0 0 24 24;" xml:space="preserve">
<path style="fill:#333333;" d="M21.75,22h-1.5v-1.396l-11.5-2.5V7.5c0-0.689-0.561-1.25-1.25-1.25S6.25,6.811,6.25,7.5V22h-1.5V7.5
	c0-1.517,1.233-2.75,2.75-2.75s2.75,1.233,2.75,2.75v9.396l11.5,2.5V22z"/>
<path style="fill:#333333;" d="M9.773,13.323l-0.546-1.397c1.836-0.717,3.023-2.454,3.023-4.426c0-2.619-2.131-4.75-4.75-4.75
	S2.75,4.881,2.75,7.5c0,1.972,1.187,3.709,3.023,4.426l-0.546,1.397C2.811,12.381,1.25,10.095,1.25,7.5
	c0-3.446,2.804-6.25,6.25-6.25s6.25,2.804,6.25,6.25C13.75,10.095,12.188,12.381,9.773,13.323z"/>
</svg>






