<?xml version="1.0" encoding="iso-8859-1"?>
<svg version="1.1" id="&#x56FE;&#x5C42;_1" xmlns="http://www.w3.org/2000/svg" xmlns:xlink="http://www.w3.org/1999/xlink" x="0px"
	 y="0px" viewBox="0 0 24 24" style="enable-background:new 0 0 24 24;" xml:space="preserve">
<path style="fill:#333333;" d="M11.25,13h-1.5V7.5c0-0.414-0.336-0.75-0.75-0.75S8.25,7.086,8.25,7.5V13h-1.5V7.5
	c0-1.241,1.009-2.25,2.25-2.25s2.25,1.009,2.25,2.25V13z"/>
<path style="fill:#333333;" d="M13.75,22.25h-0.5c-3.584,0-6.5-2.916-6.5-6.5V12.5h1.5v3.25c0,2.757,2.243,5,5,5h0.5
	c2.757,0,5-2.243,5-5V12.5h1.5v3.25C20.25,19.334,17.334,22.25,13.75,22.25z"/>
<path style="fill:#333333;" d="M14.25,14.5h-1.5V12c0-0.414-0.337-0.75-0.75-0.75c-0.414,0-0.75,0.336-0.75,0.75v2.5h-1.5V12
	c0-1.241,1.009-2.25,2.25-2.25c1.24,0,2.25,1.009,2.25,2.25V14.5z"/>
<path style="fill:#333333;" d="M17.25,14.5h-1.5V12c0-0.414-0.337-0.75-0.75-0.75s-0.75,0.336-0.75,0.75v2.5h-1.5V12
	c0-1.241,1.01-2.25,2.25-2.25s2.25,1.009,2.25,2.25V14.5z"/>
<path style="fill:#333333;" d="M20.25,14.5h-1.5V12c0-0.414-0.337-0.75-0.75-0.75s-0.75,0.336-0.75,0.75v2.5h-1.5V12
	c0-1.241,1.01-2.25,2.25-2.25s2.25,1.009,2.25,2.25V14.5z"/>
<path style="fill:#333333;" d="M14.75,7.5h-1.5c0-0.438-0.066-0.869-0.196-1.282c-0.142-0.448-0.355-0.866-0.636-1.244
	C11.619,3.895,10.341,3.25,9,3.25c-1.361,0-2.607,0.628-3.418,1.724c-0.28,0.378-0.494,0.797-0.635,1.244
	C4.816,6.631,4.75,7.062,4.75,7.5h-1.5c0-0.592,0.09-1.175,0.266-1.734c0.191-0.605,0.481-1.173,0.86-1.685
	C5.458,2.622,7.186,1.75,9,1.75c1.815,0,3.543,0.872,4.623,2.331c0.38,0.512,0.669,1.079,0.86,1.686
	C14.66,6.325,14.75,6.908,14.75,7.5z"/>
</svg>






