<?xml version="1.0" encoding="iso-8859-1"?>
<svg version="1.1" id="&#x56FE;&#x5C42;_1" xmlns="http://www.w3.org/2000/svg" xmlns:xlink="http://www.w3.org/1999/xlink" x="0px"
	 y="0px" viewBox="0 0 24 24" style="enable-background:new 0 0 24 24;" xml:space="preserve">
<rect x="11.25" y="2" style="fill:#333333;" width="1.5" height="4"/>
<path style="fill:#333333;" d="M18,22.061l-2.884-2.884l-1.492,2.239l-1.359-0.269l-2.221-11.104l11.104,2.221l0.269,1.359
	l-2.239,1.492L22.061,18L18,22.061z M14.884,16.823L18,19.939L19.939,18l-3.116-3.116l2.254-1.504l-7.121-1.424l1.424,7.121
	L14.884,16.823z"/>
<rect x="15.656" y="5.593" transform="matrix(0.7071 -0.7071 0.7071 0.7071 0.6863 14.343)" style="fill:#333333;" width="4.001" height="1.5"/>
<rect x="4.343" y="16.907" transform="matrix(0.7071 -0.7071 0.7071 0.7071 -10.6274 9.6567)" style="fill:#333333;" width="4.001" height="1.5"/>
<rect x="2" y="11.25" style="fill:#333333;" width="4" height="1.5"/>
<rect x="5.593" y="4.343" transform="matrix(0.7072 -0.707 0.707 0.7072 -2.6273 6.3424)" style="fill:#333333;" width="1.5" height="4"/>
</svg>






