<?xml version="1.0" encoding="iso-8859-1"?>
<svg version="1.1" id="&#x56FE;&#x5C42;_1" xmlns="http://www.w3.org/2000/svg" xmlns:xlink="http://www.w3.org/1999/xlink" x="0px"
	 y="0px" viewBox="0 0 24 24" style="enable-background:new 0 0 24 24;" xml:space="preserve">
<path style="fill:#333333;" d="M19,22.75H5c-0.965,0-1.75-0.785-1.75-1.75V4.5c0-0.965,0.785-1.75,1.75-1.75h3.5v1.5H5
	c-0.138,0-0.25,0.112-0.25,0.25V21c0,0.138,0.112,0.25,0.25,0.25h14c0.138,0,0.25-0.112,0.25-0.25V4.5c0-0.138-0.112-0.25-0.25-0.25
	h-3.5v-1.5H19c0.965,0,1.75,0.785,1.75,1.75V21C20.75,21.965,19.965,22.75,19,22.75z"/>
<path style="fill:#333333;" d="M16.25,5.75h-8.5v-4.5h8.5V5.75z M9.25,4.25h5.5v-1.5h-5.5V4.25z"/>
</svg>






