<?xml version="1.0" encoding="iso-8859-1"?>
<svg version="1.1" id="&#x56FE;&#x5C42;_1" xmlns="http://www.w3.org/2000/svg" xmlns:xlink="http://www.w3.org/1999/xlink" x="0px"
	 y="0px" viewBox="0 0 24 24" style="enable-background:new 0 0 24 24;" xml:space="preserve">
<rect x="2" y="21.25" style="fill:#333333;" width="20" height="1.5"/>
<path style="fill:#333333;" d="M20.25,22.75h-7.5v-7.5h7.5V22.75z M14.25,21.25h4.5v-4.5h-4.5V21.25z"/>
<rect x="18.25" y="5" style="fill:#333333;" width="1.5" height="3"/>
<rect x="13.25" y="5" style="fill:#333333;" width="1.5" height="3"/>
<path style="fill:#333333;" d="M19,5.75h-5l-0.576-1.23L16.5,0.829l3.076,3.691L19,5.75z M15.602,4.25h1.797L16.5,3.171L15.602,4.25
	z"/>
<path style="fill:#333333;" d="M5.25,22h-1.5V11c0-0.965,0.785-1.75,1.75-1.75h7v1.5h-7c-0.138,0-0.25,0.112-0.25,0.25V22z"/>
<rect x="7.5" y="13.75" style="fill:#333333;" width="2" height="1.5"/>
<rect x="7.5" y="17.25" style="fill:#333333;" width="2" height="1.5"/>
<path style="fill:#333333;" d="M20,16.75h-7c-0.689,0-1.25-0.561-1.25-1.25v-7c0-0.689,0.561-1.25,1.25-1.25h7
	c0.689,0,1.25,0.561,1.25,1.25v7C21.25,16.189,20.689,16.75,20,16.75z M13.25,15.25h6.5v-6.5h-6.5V15.25z"/>
<circle style="fill:#333333;" cx="16.5" cy="12" r="1.5"/>
<rect x="15.75" y="16" style="fill:#333333;" width="1.5" height="5"/>
</svg>






