<?xml version="1.0" encoding="iso-8859-1"?>
<svg version="1.1" id="&#x56FE;&#x5C42;_1" xmlns="http://www.w3.org/2000/svg" xmlns:xlink="http://www.w3.org/1999/xlink" x="0px"
	 y="0px" viewBox="0 0 24 24" style="enable-background:new 0 0 24 24;" xml:space="preserve">
<path style="fill:#333333;" d="M15,19.75H3l-0.48-1.326c0.021-0.018,2.53-2.244,2.719-8.198l1.499,0.048
	c-0.129,4.079-1.266,6.603-2.161,7.976H15V19.75z M20.52,19.576c-0.133-0.111-3.27-2.809-3.27-10.076c0-2.895-2.355-5.25-5.25-5.25
	c-1.076,0-2.11,0.323-2.99,0.934L8.155,3.952C9.287,3.166,10.617,2.75,12,2.75c3.722,0,6.75,3.028,6.75,6.75
	c0,6.5,2.707,8.904,2.734,8.928L20.52,19.576z"/>
<path style="fill:#333333;" d="M12,22.75c-2.068,0-3.75-1.683-3.75-3.75v-0.75h7.5V19C15.75,21.067,14.067,22.75,12,22.75z
	 M9.878,19.75c0.31,0.873,1.144,1.5,2.122,1.5c0.978,0,1.812-0.627,2.121-1.5H9.878z"/>
<path style="fill-rule:evenodd;clip-rule:evenodd;fill:#333333;" d="M12,1c-1.105,0-2,0.895-2,2h4C14,1.895,13.105,1,12,1z"/>
<rect x="11.25" y="0.002" transform="matrix(0.7452 -0.6668 0.6668 0.7452 -5.4446 11.25)" style="fill:#333333;" width="1.5" height="25.495"/>
</svg>






