<?xml version="1.0" encoding="iso-8859-1"?>
<svg version="1.1" id="&#x56FE;&#x5C42;_1" xmlns="http://www.w3.org/2000/svg" xmlns:xlink="http://www.w3.org/1999/xlink" x="0px"
	 y="0px" viewBox="0 0 24 24" style="enable-background:new 0 0 24 24;" xml:space="preserve">
<path style="fill:#333333;" d="M19.25,22.75H4.75v-3.5h-3.5V8.5c0-1.708,1.062-3.652,2.77-5.076C5.633,2.08,8.689,1.305,8.818,1.272
	L9,1.25l6.182,0.022c0.13,0.032,3.186,0.807,4.799,2.151c1.708,1.424,2.77,3.369,2.77,5.076v10.75h-3.5V22.75z M6.25,21.25h11.5V8.5
	h1.5v9.25h2V8.5c0-1.255-0.875-2.795-2.23-3.924c-1.083-0.903-3.256-1.602-4.114-1.826H9.097C8.612,2.88,6.196,3.563,4.98,4.576
	C3.625,5.705,2.75,7.245,2.75,8.5v9.25h2V8.5h1.5v10H5.5h0.75V21.25z"/>
<path style="fill:#333333;" d="M12,5.75C9.932,5.75,8.25,4.068,8.25,2h1.5c0,1.241,1.009,2.25,2.25,2.25
	c1.24,0,2.25-1.009,2.25-2.25h1.5C15.75,4.068,14.067,5.75,12,5.75z"/>
</svg>






