<?xml version="1.0" encoding="iso-8859-1"?>
<svg version="1.1" id="&#x56FE;&#x5C42;_1" xmlns="http://www.w3.org/2000/svg" xmlns:xlink="http://www.w3.org/1999/xlink" x="0px"
	 y="0px" viewBox="0 0 24 24" style="enable-background:new 0 0 24 24;" xml:space="preserve">
<path style="fill:#333333;" d="M19.25,22.75H4.75v-3.5h-3.5V4.505L8.846,1.25h6.308l7.596,3.255V19.25h-3.5V22.75z M6.25,21.25h11.5
	V10.5h1.5v7.25h2V5.495L14.846,2.75H9.154L2.75,5.495V17.75h2V10.5h1.5v8H5.5h0.75V21.25z"/>
<polygon style="fill:#333333;" points="12.75,22 11.25,22 11.25,9.154 8.311,2.295 9.689,1.705 12,7.096 14.311,1.705 15.689,2.295 
	12.75,9.154 "/>
<rect x="9.692" y="4.75" transform="matrix(0.3938 -0.9192 0.9192 0.3938 3.1277 15.7428)" style="fill:#333333;" width="7.616" height="1.5"/>
<rect x="9.75" y="1.692" transform="matrix(0.9191 -0.3939 0.3939 0.9191 -1.3176 4.5809)" style="fill:#333333;" width="1.5" height="7.616"/>
<polygon style="fill:#333333;" points="11.349,18.872 7.176,11.57 8.159,8.869 6.125,6.072 8.329,1.665 9.671,2.335 7.875,5.928 
	9.841,8.631 8.824,11.43 12.651,18.128 "/>
<polygon style="fill:#333333;" points="12.651,18.872 11.349,18.128 15.177,11.43 14.141,8.581 16.562,5.916 14.364,2.397 
	15.636,1.603 18.438,6.084 15.859,8.919 16.823,11.57 "/>
</svg>






