<?xml version="1.0" encoding="iso-8859-1"?>
<svg version="1.1" id="&#x56FE;&#x5C42;_1" xmlns="http://www.w3.org/2000/svg" xmlns:xlink="http://www.w3.org/1999/xlink" x="0px"
	 y="0px" viewBox="0 0 24 24" style="enable-background:new 0 0 24 24;" xml:space="preserve">
<path style="fill:#333333;" d="M21.844,19.75h-5.818L12,11.252L7.975,19.75H2.157l2.176-18.5h15.334L21.844,19.75z M16.975,18.25
	h3.182l-1.823-15.5H5.667l-1.824,15.5h3.182l4.297-9.071h1.355L16.975,18.25z"/>
<path style="fill:#333333;" d="M21.25,22.75h-4.386l-0.75-4.5h5.136V22.75z M18.136,21.25h1.614v-1.5h-1.864L18.136,21.25z"/>
<path style="fill:#333333;" d="M7.135,22.75H2.75v-4.5h5.135L7.135,22.75z M4.25,21.25h1.615l0.25-1.5H4.25V21.25z"/>
<rect x="12.25" y="1.75" transform="matrix(0.8824 -0.4705 0.4705 0.8824 -0.2944 6.5722)" style="fill:#333333;" width="1.5" height="4.25"/>
<rect x="8.875" y="3.125" transform="matrix(0.4708 -0.8823 0.8823 0.4708 2.403 11.7558)" style="fill:#333333;" width="4.25" height="1.5"/>
</svg>






