<?xml version="1.0" encoding="iso-8859-1"?>
<svg version="1.1" id="&#x56FE;&#x5C42;_1" xmlns="http://www.w3.org/2000/svg" xmlns:xlink="http://www.w3.org/1999/xlink" x="0px"
	 y="0px" viewBox="0 0 24 24" style="enable-background:new 0 0 24 24;" xml:space="preserve">
<path style="fill:#333333;" d="M19.25,22.75H4.75v-3.5h-3.5V11c0-1.708,1.062-3.652,2.77-5.076c1.65-1.375,3.796-1.657,3.887-1.668
	L8.271,4.21L12,7.939l3.729-3.729l0.363,0.045c0.091,0.011,2.237,0.293,3.888,1.668c1.708,1.424,2.77,3.369,2.77,5.076v8.25h-3.5
	V22.75z M6.25,21.25h11.5V11h1.5v6.75h2V11c0-1.255-0.875-2.795-2.23-3.924c-0.958-0.798-2.179-1.142-2.767-1.268L12.75,9.311V13.5
	h-1.5V9.311L7.748,5.808C7.159,5.935,5.938,6.278,4.98,7.076C3.625,8.205,2.75,9.745,2.75,11v6.75h2V11h1.5v7.5H5.5h0.75V21.25z"/>
<path style="fill:#333333;" d="M12,10.061L7.748,5.808C7.159,5.935,5.938,6.278,4.98,7.076L4.218,7.711L2.679,4.25l1.333-3h15.975
	l1.333,3l-1.538,3.461L19.02,7.076c-0.958-0.798-2.179-1.142-2.767-1.268L12,10.061z M8.271,4.21L12,7.939l3.729-3.729l0.363,0.045
	c0.077,0.009,1.621,0.212,3.093,1.104l0.494-1.11l-0.667-1.5H4.987l-0.667,1.5l0.493,1.11c1.472-0.892,3.017-1.095,3.093-1.104
	L8.271,4.21z"/>
</svg>






