<?xml version="1.0" encoding="iso-8859-1"?>
<svg version="1.1" id="&#x56FE;&#x5C42;_1" xmlns="http://www.w3.org/2000/svg" xmlns:xlink="http://www.w3.org/1999/xlink" x="0px"
	 y="0px" viewBox="0 0 24 24" style="enable-background:new 0 0 24 24;" xml:space="preserve">
<path style="fill:none;" d="M13.5,2h-6C5.614,2,4.672,2,4.086,2.586C3.5,3.172,3.5,4.114,3.5,6v16h14v-3.5c0,0,3.5,0,3.5-3v-4
	c0-3-3.5-3-3.5-3V6c0-1.886,0-2.828-0.586-3.414C16.328,2,15.386,2,13.5,2z"/>
<path style="fill:#333333;" d="M18.25,22.75H2.75V6c0-2.024,0-3.14,0.806-3.945C4.36,1.25,5.476,1.25,7.5,1.25h6
	c2.023,0,3.139,0,3.944,0.806C18.25,2.86,18.25,3.976,18.25,6v1.81c1.504,0.23,3.5,1.177,3.5,3.69v4c0,2.514-1.996,3.46-3.5,3.69
	V22.75z M4.25,21.25h12.5v-3.5h0.75c0.279-0.002,2.75-0.082,2.75-2.25v-4c0-1.497-1.178-1.999-2-2.166V13.5h-1.5V6
	c0-1.746-0.015-2.533-0.366-2.883C16.032,2.765,15.246,2.75,13.5,2.75h-6c-1.746,0-2.533,0.015-2.883,0.366
	C4.265,3.467,4.25,4.254,4.25,6V21.25z"/>
<rect x="6.25" y="2" style="fill:#333333;" width="1.5" height="9"/>
<rect x="9.75" y="2" style="fill:#333333;" width="1.5" height="9"/>
<rect x="13.25" y="2" style="fill:#333333;" width="1.5" height="9"/>
<rect x="6" y="1.25" style="fill:#333333;" width="9" height="1.5"/>
</svg>






