<?xml version="1.0" encoding="iso-8859-1"?>
<svg version="1.1" id="&#x56FE;&#x5C42;_1" xmlns="http://www.w3.org/2000/svg" xmlns:xlink="http://www.w3.org/1999/xlink" x="0px"
	 y="0px" viewBox="0 0 24 24" style="enable-background:new 0 0 24 24;" xml:space="preserve">
<path style="fill:#333333;" d="M19.25,22.75H4.75v-3.5h-3.5V8.5c0-1.708,1.062-3.652,2.77-5.076C5.6,2.107,7.65,1.33,7.737,1.298
	L8,1.25l8.264,0.048C16.35,1.33,18.4,2.107,19.98,3.424c1.708,1.424,2.77,3.369,2.77,5.076v10.75h-3.5V22.75z M6.25,21.25h11.5V8.5
	h1.5v9.25h2V8.5c0-1.255-0.875-2.795-2.23-3.924c-1.178-0.981-2.724-1.648-3.162-1.826H8.143C7.704,2.928,6.158,3.595,4.98,4.576
	C3.625,5.705,2.75,7.245,2.75,8.5v9.25h2V8.5h1.5v10H5.5h0.75V21.25z"/>
<rect x="11.25" y="8.5" style="fill:#333333;" width="1.5" height="13.5"/>
<rect x="9.25" y="1.434" transform="matrix(0.8517 -0.5241 0.5241 0.8517 -1.2681 6.0198)" style="fill:#333333;" width="1.5" height="7.632"/>
<rect x="10.184" y="4.5" transform="matrix(0.5241 -0.8516 0.8516 0.5241 2.191 14.4212)" style="fill:#333333;" width="7.632" height="1.5"/>
</svg>






