<?xml version="1.0" encoding="iso-8859-1"?>
<svg version="1.1" id="&#x56FE;&#x5C42;_1" xmlns="http://www.w3.org/2000/svg" xmlns:xlink="http://www.w3.org/1999/xlink" x="0px"
	 y="0px" viewBox="0 0 24 24" style="enable-background:new 0 0 24 24;" xml:space="preserve">
<path style="fill:#333333;" d="M20,22.75H9.689L8,21.061L6.311,22.75H4c-1.076,0-1.725,0-2.237-0.513S1.25,21.075,1.25,20V4
	c0-1.076,0-1.725,0.513-2.237S2.924,1.25,4,1.25h5c1.076,0,1.725,0,2.237,0.513S11.75,2.924,11.75,4v0.263
	c0,2.305,0,3.462,0.555,4.098c0.534,0.612,1.546,0.771,3.986,1.104l0.621,0.085c2.571,0.35,3.988,0.543,4.913,1.604
	c0.925,1.059,0.925,2.489,0.925,5.084V20c0,1.075,0,1.725-0.513,2.237S21.075,22.75,20,22.75z M10.311,21.25H20
	c0.501,0,1.068,0,1.177-0.073C21.25,21.068,21.25,20.501,21.25,20v-3.763c0-2.306,0-3.463-0.555-4.098
	c-0.534-0.612-1.546-0.771-3.986-1.104l-0.621-0.085c-2.571-0.35-3.988-0.543-4.913-1.604c-0.925-1.06-0.925-2.489-0.925-5.084V4
	c0-0.501,0-1.069-0.074-1.177C10.069,2.75,9.501,2.75,9,2.75H4c-0.501,0-1.069,0-1.177,0.074C2.75,2.931,2.75,3.499,2.75,4v16
	c0,0.501,0,1.068,0.074,1.177C2.931,21.25,3.499,21.25,4,21.25h1.689L8,18.939L10.311,21.25z"/>
<rect x="2" y="16.25" style="fill:#333333;" width="20" height="1.5"/>
<rect x="2" y="5" style="fill:#333333;" width="9" height="1.5"/>
<path style="fill:#333333;" d="M7.5,13.75c-1.241,0-2.25-1.01-2.25-2.25c0-1.241,1.009-2.25,2.25-2.25s2.25,1.009,2.25,2.25
	C9.75,12.74,8.741,13.75,7.5,13.75z M7.5,10.75c-0.414,0-0.75,0.336-0.75,0.75s0.336,0.75,0.75,0.75s0.75-0.336,0.75-0.75
	S7.914,10.75,7.5,10.75z"/>
</svg>






