<?xml version="1.0" encoding="iso-8859-1"?>
<svg version="1.1" id="&#x56FE;&#x5C42;_1" xmlns="http://www.w3.org/2000/svg" xmlns:xlink="http://www.w3.org/1999/xlink" x="0px"
	 y="0px" viewBox="0 0 24 24" style="enable-background:new 0 0 24 24;" xml:space="preserve">
<path style="fill:#333333;" d="M19.25,22.75H4.75v-3.5h-3.5V8.644l3.786-3.091L8.387,7.99L12,3.861l3.613,4.129l3.351-2.437
	l3.786,3.091V19.25h-3.5V22.75z M6.25,21.25h11.5V12.5h1.5v5.25h2V9.356l-2.339-1.909l-3.524,2.563L12,6.139L8.613,10.01
	L5.089,7.447L2.75,9.356v8.394h2V12.5h1.5v6H5.5h0.75V21.25z"/>
<path style="fill:none;" d="M8.5,9L12,5l3.5,4L21,5l-1.25-3H4.5L3,5L8.5,9z"/>
<path style="fill:#333333;" d="M15.387,10.01L12,6.139L8.613,10.01L2.045,5.233L4.037,1.25H20.25l1.67,4.008L15.387,10.01z
	 M13.652,5.75l1.961,2.24l4.467-3.249L19.25,2.75H4.963L3.955,4.767L8.387,7.99l1.96-2.24H9.5v-1.5h2.16L12,3.861l0.34,0.389h2.16
	v1.5H13.652z"/>
</svg>






