<?xml version="1.0" encoding="iso-8859-1"?>
<svg version="1.1" id="&#x56FE;&#x5C42;_1" xmlns="http://www.w3.org/2000/svg" xmlns:xlink="http://www.w3.org/1999/xlink" x="0px"
	 y="0px" viewBox="0 0 24 24" style="enable-background:new 0 0 24 24;" xml:space="preserve">
<path style="fill:#333333;" d="M12.921,19.25h-2.512l-0.075-0.666c-0.004-0.039-0.447-3.84-1.911-5.605
	c-1.12-1.349-4.431-2.444-5.612-2.753L2.25,10.08V6.25h19.5v3.83l-0.561,0.146c-1.182,0.309-4.492,1.404-5.612,2.753
	c-1.465,1.766-1.906,5.566-1.911,5.604l-0.074,0.667H12.921z M11.729,17.75h0.541c0.209-1.284,0.801-4.101,2.152-5.729
	c1.332-1.606,4.525-2.696,5.827-3.087V7.75H3.75v1.184c1.302,0.392,4.495,1.481,5.827,3.087
	C10.928,13.649,11.52,16.466,11.729,17.75z"/>
</svg>






