<?xml version="1.0" encoding="iso-8859-1"?>
<svg version="1.1" id="&#x56FE;&#x5C42;_1" xmlns="http://www.w3.org/2000/svg" xmlns:xlink="http://www.w3.org/1999/xlink" x="0px"
	 y="0px" viewBox="0 0 24 24" style="enable-background:new 0 0 24 24;" xml:space="preserve">
<path style="fill:#333333;" d="M22.75,21.75H1.25v-8h21.5V21.75z M2.75,20.25h18.5v-5H2.75V20.25z"/>
<path style="fill:#333333;" d="M17.75,19c0.69,0,1.25-0.56,1.25-1.25s-0.56-1.25-1.25-1.25s-1.25,0.56-1.25,1.25S17.06,19,17.75,19z
	"/>
<polygon style="fill:#333333;" points="2.734,14.654 1.266,14.346 3.91,1.75 20.12,1.75 22.734,14.348 21.266,14.652 18.899,3.25 
	5.128,3.25 "/>
<path style="fill:#333333;" d="M10.488,12.25h-0.64c-1.911,0-3.099-0.956-3.099-2.494c0-1.375,1.235-2.493,2.753-2.493v1.5
	c-0.691,0-1.253,0.445-1.253,0.993c0,0.659,0.538,0.994,1.599,0.994h0.64V12.25z"/>
<path style="fill:#333333;" d="M14.144,12.25h-0.65v-1.5h0.65c1.066,0,1.606-0.334,1.606-0.994c0-0.246,0-0.993-1.246-0.993v-1.5
	c1.668,0,2.746,0.979,2.746,2.493C17.25,11.294,16.06,12.25,14.144,12.25z"/>
<path style="fill:#333333;" d="M15.254,8.013h-1.5c0-1.087-0.672-1.763-1.754-1.763c-1.094,0-1.747,0.659-1.747,1.763h-1.5
	c0-1.921,1.335-3.263,3.247-3.263C13.916,4.75,15.254,6.092,15.254,8.013z"/>
<rect x="10" y="10.75" style="fill:#333333;" width="4" height="1.5"/>
</svg>






