<?xml version="1.0" encoding="iso-8859-1"?>
<svg version="1.1" id="&#x56FE;&#x5C42;_1" xmlns="http://www.w3.org/2000/svg" xmlns:xlink="http://www.w3.org/1999/xlink" x="0px"
	 y="0px" viewBox="0 0 24 24" style="enable-background:new 0 0 24 24;" xml:space="preserve">
<path style="fill:#333333;" d="M19.577,17.186l-0.609-1.371c1.387-0.616,2.282-2.013,2.282-3.558c0-2.139-1.703-3.878-3.796-3.878
	c-0.602,0-1.177,0.14-1.71,0.415l-0.829,0.428l-0.239-0.902c-0.714-2.69-3.122-4.569-5.857-4.569c-3.346,0-6.068,2.778-6.068,6.192
	c0,1.969,0.887,3.776,2.433,4.959l-0.911,1.191c-1.92-1.469-3.021-3.711-3.021-6.15c0-4.242,3.395-7.692,7.568-7.692
	c3.133,0,5.92,1.967,7.045,4.876c0.513-0.164,1.052-0.248,1.591-0.248c2.92,0,5.296,2.413,5.296,5.378
	C22.75,14.394,21.505,16.328,19.577,17.186z"/>
<path style="fill:#333333;" d="M13,21.75c-2.068,0-3.75-1.683-3.75-3.75s1.682-3.75,3.75-3.75c0.253,0,0.508,0.025,0.757,0.076
	l0.04,1.461c-0.51,0.133-0.865,0.595-0.865,1.122c0,0.64,0.52,1.159,1.159,1.159c0.527,0,0.989-0.355,1.122-0.865l1.461,0.04
	c0.051,0.249,0.076,0.504,0.076,0.757C16.75,20.067,15.067,21.75,13,21.75z M11.496,16.328C11.038,16.74,10.75,17.337,10.75,18
	c0,1.24,1.009,2.25,2.25,2.25c0.663,0,1.26-0.288,1.672-0.745c-0.188,0.041-0.383,0.063-0.581,0.063
	c-1.466,0-2.659-1.193-2.659-2.659C11.432,16.711,11.454,16.516,11.496,16.328z"/>
<path style="fill:#333333;" d="M6.349,12.651C5.64,11.944,5.25,11.002,5.25,10c0-2.068,1.682-3.75,3.75-3.75
	c1.002,0,1.944,0.39,2.652,1.099L10.59,8.409C10.166,7.984,9.601,7.75,9,7.75c-1.241,0-2.25,1.009-2.25,2.25
	c0,0.601,0.234,1.166,0.659,1.59L6.349,12.651z"/>
</svg>






