<?xml version="1.0" encoding="iso-8859-1"?>
<svg version="1.1" id="&#x56FE;&#x5C42;_1" xmlns="http://www.w3.org/2000/svg" xmlns:xlink="http://www.w3.org/1999/xlink" x="0px"
	 y="0px" viewBox="0 0 24 24" style="enable-background:new 0 0 24 24;" xml:space="preserve">
<path style="fill:#333333;" d="M18.5,8.75c-1.792,0-3.25-1.458-3.25-3.25s1.458-3.25,3.25-3.25s3.25,1.458,3.25,3.25
	S20.292,8.75,18.5,8.75z M18.5,3.75c-0.965,0-1.75,0.785-1.75,1.75s0.785,1.75,1.75,1.75s1.75-0.785,1.75-1.75
	S19.465,3.75,18.5,3.75z"/>
<path style="fill:#333333;" d="M5.5,21.75c-1.792,0-3.25-1.458-3.25-3.25s1.458-3.25,3.25-3.25s3.25,1.458,3.25,3.25
	S7.292,21.75,5.5,21.75z M5.5,16.75c-0.965,0-1.75,0.785-1.75,1.75s0.785,1.75,1.75,1.75s1.75-0.785,1.75-1.75
	S6.465,16.75,5.5,16.75z"/>
<path style="fill:#333333;" d="M15.252,21.75c-2.204,0-3.998-1.794-3.998-3.998v-11.5c0-1.379-1.123-2.502-2.502-2.502
	S6.25,4.873,6.25,6.252V16h-1.5V6.252c0-2.207,1.795-4.002,4.002-4.002s4.002,1.795,4.002,4.002v11.5
	c0,1.377,1.121,2.498,2.498,2.498s2.498-1.121,2.498-2.498V8h1.5v9.752C19.25,19.956,17.456,21.75,15.252,21.75z"/>
</svg>






