<?xml version="1.0" encoding="iso-8859-1"?>
<svg version="1.1" id="&#x56FE;&#x5C42;_1" xmlns="http://www.w3.org/2000/svg" xmlns:xlink="http://www.w3.org/1999/xlink" x="0px"
	 y="0px" viewBox="0 0 24 24" style="enable-background:new 0 0 24 24;" xml:space="preserve">
<path style="fill:#333333;" d="M12.75,11h-1.5V8.25H12c0.965,0,1.75-0.785,1.75-1.75S12.965,4.75,12,4.75s-1.75,0.785-1.75,1.75
	h-1.5c0-1.792,1.458-3.25,3.25-3.25s3.25,1.458,3.25,3.25c0,1.534-1.068,2.823-2.5,3.163V11z"/>
<path style="fill:#333333;" d="M22.75,18.75H1.25V18c0-2.702,3.153-7.75,10.75-7.75S22.75,15.298,22.75,18V18.75z M2.843,17.25
	h18.314c-0.525-2.247-3.313-5.5-9.157-5.5S3.368,15.003,2.843,17.25z"/>
</svg>






