<?xml version="1.0" encoding="iso-8859-1"?>
<svg version="1.1" id="&#x56FE;&#x5C42;_1" xmlns="http://www.w3.org/2000/svg" xmlns:xlink="http://www.w3.org/1999/xlink" x="0px"
	 y="0px" viewBox="0 0 24 24" style="enable-background:new 0 0 24 24;" xml:space="preserve">
<g>
	<defs>
		<rect id="SVGID_1_" width="24" height="24"/>
	</defs>
	<clipPath id="SVGID_00000036947309298320585530000003883284249006479765_">
		<use xlink:href="#SVGID_1_"  style="overflow:visible;"/>
	</clipPath>
	<g style="clip-path:url(#SVGID_00000036947309298320585530000003883284249006479765_);">
		<polygon style="fill:#333333;" points="10.506,17.486 4.471,7.25 3,7.25 3,5.75 5.329,5.75 10.494,14.514 15.567,5.75 17.9,5.75 
			17.9,7.25 16.433,7.25 		"/>
		<path style="fill:#333333;" d="M15.716,14.294c-1.089,0-2.193-0.271-3.208-0.843l0.734-1.307c2.438,1.368,5.53,0.502,6.902-1.933
			c1.369-2.436,0.503-5.531-1.933-6.901c-2.436-1.372-5.531-0.504-6.901,1.933l-1.308-0.735c1.775-3.155,5.788-4.28,8.944-2.505
			c3.156,1.776,4.279,5.788,2.504,8.944C20.247,13.088,18.014,14.294,15.716,14.294z"/>
		<rect x="8" y="21.25" style="fill:#333333;" width="5" height="1.5"/>
		<rect x="9.75" y="16" style="fill:#333333;" width="1.5" height="6"/>
		<path style="fill:#333333;" d="M12.5,9.25c-0.958,0-1.716-0.455-2.386-0.857C9.539,8.048,9.042,7.75,8.5,7.75
			c-1.154,0-1.965,0.776-1.973,0.784L5.47,7.47C5.52,7.42,6.71,6.25,8.5,6.25c0.958,0,1.716,0.455,2.386,0.857
			C11.461,7.452,11.958,7.75,12.5,7.75c1.285,0,2.159-0.418,2.168-0.422l0.667,1.343C15.288,8.694,14.158,9.25,12.5,9.25z"/>
	</g>
</g>
</svg>






