<?xml version="1.0" encoding="iso-8859-1"?>
<svg version="1.1" id="&#x56FE;&#x5C42;_1" xmlns="http://www.w3.org/2000/svg" xmlns:xlink="http://www.w3.org/1999/xlink" x="0px"
	 y="0px" viewBox="0 0 24 24" style="enable-background:new 0 0 24 24;" xml:space="preserve">
<path style="fill:#333333;" d="M7.75,21.024c-0.006-0.193-0.145-4.77,0.513-8.167c0.663-3.418,2.011-6.086,2.068-6.198l1.336,0.681
	c-0.013,0.026-1.312,2.601-1.932,5.802c-0.626,3.229-0.488,7.788-0.487,7.833L7.75,21.024z"/>
<path style="fill:#333333;" d="M17.859,12.655c-0.106,0-0.214-0.011-0.321-0.033c-0.426-0.09-0.745-0.207-0.977-0.361l0,0
	c-0.438-0.291-0.579-0.731-0.673-1.023c-0.026-0.085-0.068-0.214-0.094-0.249c0.004,0.02-0.131,0.032-0.221,0.04
	c-0.303,0.026-0.765,0.068-1.203-0.223s-0.579-0.731-0.673-1.023c-0.02-0.061-0.046-0.143-0.068-0.198
	c-0.067,0.009-0.163,0.03-0.233,0.046c-0.302,0.067-0.715,0.159-1.147,0.004c-0.263-0.093-0.619-0.315-1.264-1.253
	c-0.316-0.458-0.378-1.026-0.166-1.519c0.204-0.473,0.638-0.802,1.159-0.882c1.208-0.186,3.038-0.148,4.882,1.077
	c2.088,1.387,2.439,3.172,2.464,4.112c0.012,0.444-0.175,0.86-0.512,1.143C18.545,12.536,18.209,12.655,17.859,12.655z
	 M17.405,11.02c0.038,0.021,0.159,0.076,0.439,0.134c-0.04-0.739-0.368-1.886-1.814-2.847c-1.444-0.96-2.88-0.989-3.825-0.844
	c0.424,0.662,0.597,0.78,0.604,0.785c-0.014-0.02,0.151-0.057,0.262-0.081c0.35-0.079,0.882-0.196,1.384,0.136
	c0.438,0.292,0.578,0.731,0.672,1.022c0.027,0.085,0.068,0.214,0.095,0.25c-0.004-0.02,0.131-0.032,0.22-0.04
	c0.304-0.028,0.766-0.068,1.203,0.223c0.439,0.292,0.58,0.732,0.674,1.024C17.343,10.859,17.38,10.974,17.405,11.02z"/>
<path style="fill:#333333;" d="M4.358,10.81c-0.099,0-0.203-0.006-0.31-0.018c-0.391-0.043-0.749-0.247-0.983-0.557
	C2.832,9.924,2.736,9.523,2.803,9.136c0.168-0.972,0.828-2.713,3.369-3.45c2.438-0.71,4.041-0.082,4.778,0.355
	c0.601,0.355,0.85,1.089,0.59,1.746c-0.294,0.746-0.745,1.239-1.303,1.425c-0.64,0.212-1.202,0.075-1.613-0.023
	c-0.086-0.021-0.196-0.047-0.271-0.06c-0.028,0.039-0.06,0.089-0.085,0.127c-0.164,0.254-0.413,0.637-0.916,0.772
	c-0.508,0.135-0.913-0.073-1.181-0.21c-0.065-0.033-0.164-0.083-0.2-0.092c0.053,0.015-0.036,0.133-0.094,0.211
	c-0.12,0.158-0.268,0.355-0.489,0.543C5.13,10.699,4.784,10.81,4.358,10.81z M4.297,9.308c0.126,0.007,0.179-0.009,0.18-0.009
	c0.034-0.042,0.112-0.146,0.202-0.265c0.198-0.263,0.469-0.623,0.994-0.763c0.504-0.134,0.911,0.073,1.181,0.211
	C6.882,8.496,6.917,8.514,6.95,8.53C6.971,8.5,6.992,8.467,7.009,8.44c0.165-0.254,0.414-0.638,0.917-0.773
	c0.375-0.1,0.734-0.014,1.05,0.063c0.299,0.072,0.558,0.134,0.786,0.058c0.062-0.021,0.212-0.151,0.358-0.494
	C9.562,6.985,8.41,6.597,6.59,7.126C4.98,7.593,4.451,8.554,4.297,9.308z"/>
<path style="fill:#333333;" d="M10.25,8.172l0-1.171c0-1.186,1.344-4.046,2.972-4.697c1.598-0.639,4.045-0.209,4.928,1.322
	l0.41,0.711L10.25,8.172z M14.813,3.519c-0.374,0-0.737,0.059-1.035,0.178c-0.542,0.217-1.175,1.093-1.587,1.928l3.967-1.831
	C15.767,3.611,15.282,3.519,14.813,3.519z"/>
<path style="fill:#333333;" d="M11.248,8.071L4.026,3.209l0.309-0.594c0.757-1.454,3.726-1.6,5.916-0.821
	c0.861,0.306,1.482,0.918,1.797,1.771c0.481,1.309,0.131,2.893-0.398,3.81L11.248,8.071z M6.343,2.961l4.308,2.9
	c0.151-0.581,0.181-1.257-0.011-1.778c-0.16-0.434-0.451-0.72-0.891-0.877C8.418,2.734,7.111,2.768,6.343,2.961z"/>
<path style="fill:#333333;" d="M12,22.25c-3.064,0-8.25-0.579-8.25-2.75c0-0.366,0.157-0.905,0.904-1.391l0.817,1.258
	c-0.088,0.057-0.144,0.104-0.18,0.138C5.741,19.987,8.166,20.75,12,20.75c4.038,0,6.513-0.846,6.763-1.318
	C18.75,19.235,17.312,18.25,13,18.25v-1.5c4.54,0,7.25,1.028,7.25,2.75C20.25,21.671,15.064,22.25,12,22.25z"/>
</svg>






