<?xml version="1.0" encoding="iso-8859-1"?>
<svg version="1.1" id="&#x56FE;&#x5C42;_1" xmlns="http://www.w3.org/2000/svg" xmlns:xlink="http://www.w3.org/1999/xlink" x="0px"
	 y="0px" viewBox="0 0 24 24" style="enable-background:new 0 0 24 24;" xml:space="preserve">
<path style="fill:#333333;" d="M19.5,17.75h-15c-1.241,0-2.25-1.01-2.25-2.25v-11c0-1.241,1.009-2.25,2.25-2.25h6v1.5h-6
	c-0.414,0-0.75,0.336-0.75,0.75v11c0,0.413,0.336,0.75,0.75,0.75h15c0.413,0,0.75-0.337,0.75-0.75v-5h1.5v5
	C21.75,16.74,20.74,17.75,19.5,17.75z"/>
<rect x="11.25" y="17" style="fill:#333333;" width="1.5" height="4"/>
<polygon style="fill:#333333;" points="15.47,7.53 12.939,5 15.47,2.47 16.53,3.53 15.061,5 16.53,6.47 "/>
<polygon style="fill:#333333;" points="19.53,7.53 18.47,6.47 19.939,5 18.47,3.53 19.53,2.47 22.061,5 "/>
<rect x="7" y="20.25" style="fill:#333333;" width="10" height="1.5"/>
</svg>






