<?xml version="1.0" encoding="iso-8859-1"?>
<svg version="1.1" id="&#x56FE;&#x5C42;_1" xmlns="http://www.w3.org/2000/svg" xmlns:xlink="http://www.w3.org/1999/xlink" x="0px"
	 y="0px" viewBox="0 0 24 24" style="enable-background:new 0 0 24 24;" xml:space="preserve">
<path style="fill:#333333;" d="M20.75,17.25H3.25V6c0-1.241,1.009-2.25,2.25-2.25H11v1.5H5.5C5.086,5.25,4.75,5.586,4.75,6v9.75
	h14.5V11h1.5V17.25z"/>
<path style="fill:#333333;" d="M19,21.25H5c-2.068,0-3.75-1.683-3.75-3.75v-1.75h21.5v1.75C22.75,19.567,21.067,21.25,19,21.25z
	 M2.75,17.25v0.25c0,1.24,1.009,2.25,2.25,2.25h14c1.24,0,2.25-1.01,2.25-2.25v-0.25H2.75z"/>
<polygon style="fill:#333333;" points="15.97,8.03 13.439,5.5 15.97,2.97 17.03,4.03 15.561,5.5 17.03,6.97 "/>
<polygon style="fill:#333333;" points="20.03,8.03 18.97,6.97 20.439,5.5 18.97,4.03 20.03,2.97 22.561,5.5 "/>
</svg>






