<?xml version="1.0" encoding="iso-8859-1"?>
<svg version="1.1" id="&#x56FE;&#x5C42;_1" xmlns="http://www.w3.org/2000/svg" xmlns:xlink="http://www.w3.org/1999/xlink" x="0px"
	 y="0px" viewBox="0 0 24 24" style="enable-background:new 0 0 24 24;" xml:space="preserve">
<path style="fill:#333333;" d="M8,22.75c-1.618,0-3.25-1.005-3.25-3.25V14c0-0.672-1.211-1.474-2.03-1.804v-1.392
	C3.539,10.474,4.75,9.672,4.75,9V4.5c0-2.245,1.632-3.25,3.25-3.25v1.5c-0.654,0-1.75,0.228-1.75,1.75V9
	c0,1.114-0.869,1.958-1.672,2.5C5.381,12.042,6.25,12.886,6.25,14v5.5c0,1.522,1.096,1.75,1.75,1.75V22.75z"/>
<path style="fill:#333333;" d="M16,22.75v-1.5c0.653,0,1.75-0.228,1.75-1.75V14c0-1.114,0.869-1.958,1.672-2.5
	c-0.803-0.542-1.672-1.386-1.672-2.5V4.5c0-1.522-1.097-1.75-1.75-1.75v-1.5c1.618,0,3.25,1.005,3.25,3.25V9
	c0,0.672,1.211,1.474,2.029,1.804v1.392c-0.818,0.33-2.029,1.132-2.029,1.804v5.5C19.25,21.745,17.618,22.75,16,22.75z"/>
</svg>






