<?xml version="1.0" encoding="iso-8859-1"?>
<svg version="1.1" id="&#x56FE;&#x5C42;_1" xmlns="http://www.w3.org/2000/svg" xmlns:xlink="http://www.w3.org/1999/xlink" x="0px"
	 y="0px" viewBox="0 0 24 24" style="enable-background:new 0 0 24 24;" xml:space="preserve">
<path style="fill:#333333;" d="M18.5,21.75H4v-1.5h14.5c0.413,0,0.75-0.337,0.75-0.75v-15c0-0.414-0.337-0.75-0.75-0.75h-10v-1.5h10
	c1.24,0,2.25,1.009,2.25,2.25v15C20.75,20.74,19.74,21.75,18.5,21.75z"/>
<path style="fill:#333333;" d="M11,18.75c-3.17,0-5.75-2.579-5.75-5.75v-0.75h11.5V13C16.75,16.171,14.171,18.75,11,18.75z
	 M6.816,13.75c0.355,1.987,2.096,3.5,4.184,3.5c2.088,0,3.828-1.513,4.184-3.5H6.816z"/>
<rect x="7.25" y="9" style="fill:#333333;" width="1.5" height="1"/>
<rect x="10.25" y="9" style="fill:#333333;" width="1.5" height="1"/>
<rect x="13.25" y="9" style="fill:#333333;" width="1.5" height="1"/>
</svg>






