<?xml version="1.0" encoding="iso-8859-1"?>
<svg version="1.1" id="&#x56FE;&#x5C42;_1" xmlns="http://www.w3.org/2000/svg" xmlns:xlink="http://www.w3.org/1999/xlink" x="0px"
	 y="0px" viewBox="0 0 24 24" style="enable-background:new 0 0 24 24;" xml:space="preserve">
<path style="fill:#333333;" d="M16.146,22.75H7.854c-0.496,0-0.946-0.294-1.145-0.749L5.312,18.8l1.375-0.6l1.33,3.05h7.965
	l1.33-3.05l1.375,0.6L17.292,22C17.094,22.455,16.644,22.75,16.146,22.75z"/>
<path style="fill:#333333;" d="M17.312,5.8l-1.33-3.05H8.018L6.688,5.8L5.312,5.2L6.708,2c0.199-0.456,0.648-0.75,1.146-0.75h8.293
	c0.498,0,0.948,0.295,1.146,0.752L18.688,5.2L17.312,5.8z M15.917,2.6C15.917,2.601,15.917,2.601,15.917,2.6L15.917,2.6z"/>
<path style="fill:#333333;" d="M17,19.75H7c-0.965,0-1.75-0.785-1.75-1.75V6c0-0.965,0.785-1.75,1.75-1.75h10
	c0.965,0,1.75,0.785,1.75,1.75v12C18.75,18.965,17.965,19.75,17,19.75z M7,5.75C6.862,5.75,6.75,5.862,6.75,6v12
	c0,0.138,0.112,0.25,0.25,0.25h10c0.138,0,0.25-0.112,0.25-0.25V6c0-0.138-0.112-0.25-0.25-0.25H7z"/>
<path style="fill:#333333;" d="M6.617,11.991l-0.234-1.481l3.198-0.505c0.833-0.132,1.604-0.548,2.17-1.171
	c1.071-1.178,2.579-1.802,4.187-1.698l1.858,0.116l-0.094,1.497l-1.858-0.116c-1.141-0.073-2.221,0.371-2.983,1.209
	c-0.795,0.875-1.877,1.459-3.046,1.644L6.617,11.991z"/>
<path style="fill:#333333;" d="M6.284,16.999l-0.068-1.498l2.776-0.126c1.417-0.065,2.708-0.883,3.37-2.135
	c0.717-1.354,1.977-2.356,3.457-2.751l1.737-0.463l0.387,1.449l-1.737,0.463c-1.078,0.288-1.996,1.018-2.518,2.003
	c-0.91,1.72-2.683,2.843-4.628,2.932L6.284,16.999z"/>
<rect x="17.25" y="6" style="fill:#333333;" width="1.5" height="10"/>
<rect x="5.25" y="8" style="fill:#333333;" width="1.5" height="10"/>
</svg>






