<?xml version="1.0" encoding="iso-8859-1"?>
<svg version="1.1" id="&#x56FE;&#x5C42;_1" xmlns="http://www.w3.org/2000/svg" xmlns:xlink="http://www.w3.org/1999/xlink" x="0px"
	 y="0px" viewBox="0 0 24 24" style="enable-background:new 0 0 24 24;" xml:space="preserve">
<path style="fill:#333333;" d="M11,20.75c-5.376,0-9.75-4.374-9.75-9.75S5.624,1.25,11,1.25s9.75,4.374,9.75,9.75h-1.5
	c0-4.549-3.701-8.25-8.25-8.25S2.75,6.451,2.75,11s3.701,8.25,8.25,8.25V20.75z"/>
<path style="fill:#333333;" d="M18,21.805l-0.271-0.105c-1.176-0.454-3.479-2.382-3.479-4.776c0-1.474,1.077-2.673,2.4-2.673
	c0.489,0,0.957,0.165,1.35,0.461c0.393-0.296,0.86-0.461,1.35-0.461c1.323,0,2.4,1.199,2.4,2.673c0,2.395-2.304,4.322-3.479,4.776
	L18,21.805z M16.65,15.75c-0.488,0-0.9,0.537-0.9,1.173c0,1.349,1.337,2.741,2.25,3.249c0.913-0.508,2.25-1.9,2.25-3.249
	c0-0.636-0.412-1.173-0.9-1.173c-0.274,0-0.533,0.166-0.708,0.455L18,17.267l-0.642-1.062C17.184,15.916,16.925,15.75,16.65,15.75z"
	/>
<path style="fill:#333333;" d="M11,14.25c-1.792,0-3.25-1.458-3.25-3.25S9.208,7.75,11,7.75s3.25,1.458,3.25,3.25
	S12.792,14.25,11,14.25z M11,9.25c-0.965,0-1.75,0.785-1.75,1.75s0.785,1.75,1.75,1.75s1.75-0.785,1.75-1.75S11.965,9.25,11,9.25z"
	/>
</svg>






