<?xml version="1.0" encoding="iso-8859-1"?>
<svg version="1.1" id="&#x56FE;&#x5C42;_1" xmlns="http://www.w3.org/2000/svg" xmlns:xlink="http://www.w3.org/1999/xlink" x="0px"
	 y="0px" viewBox="0 0 24 24" style="enable-background:new 0 0 24 24;" xml:space="preserve">
<path style="fill:#333333;" d="M20.75,17.25H3.25V6c0-1.241,1.009-2.25,2.25-2.25h5v1.5h-5C5.086,5.25,4.75,5.586,4.75,6v9.75h14.5
	V11.5h1.5V17.25z"/>
<path style="fill:#333333;" d="M19,21.25H5c-2.068,0-3.75-1.683-3.75-3.75v-1.75h21.5v1.75C22.75,19.567,21.067,21.25,19,21.25z
	 M2.75,17.25v0.25c0,1.24,1.009,2.25,2.25,2.25h14c1.24,0,2.25-1.01,2.25-2.25v-0.25H2.75z"/>
<path style="fill:#333333;" d="M17.5,9.288l-0.23-0.074c-1.188-0.384-3.52-2.035-3.52-4.111c0-1.297,1.077-2.353,2.4-2.353
	c0.486,0,0.956,0.146,1.35,0.408c0.394-0.262,0.863-0.408,1.35-0.408c1.323,0,2.4,1.055,2.4,2.353c0,2.077-2.331,3.728-3.52,4.111
	L17.5,9.288z M16.15,4.25c-0.496,0-0.9,0.382-0.9,0.853c0,1.053,1.366,2.197,2.25,2.594c0.884-0.396,2.25-1.541,2.25-2.594
	c0-0.47-0.404-0.853-0.9-0.853c-0.296,0-0.574,0.139-0.743,0.371L17.5,5.458l-0.606-0.836C16.725,4.389,16.446,4.25,16.15,4.25z"/>
</svg>






