<?xml version="1.0" encoding="iso-8859-1"?>
<svg version="1.1" id="&#x56FE;&#x5C42;_1" xmlns="http://www.w3.org/2000/svg" xmlns:xlink="http://www.w3.org/1999/xlink" x="0px"
	 y="0px" viewBox="0 0 24 24" style="enable-background:new 0 0 24 24;" xml:space="preserve">
<path style="fill:#333333;" d="M19.5,17.75h-15c-1.241,0-2.25-1.01-2.25-2.25v-11c0-1.241,1.009-2.25,2.25-2.25H11v1.5H4.5
	c-0.414,0-0.75,0.336-0.75,0.75v11c0,0.413,0.336,0.75,0.75,0.75h15c0.413,0,0.75-0.337,0.75-0.75V11h1.5v4.5
	C21.75,16.74,20.74,17.75,19.5,17.75z"/>
<rect x="11.25" y="17" style="fill:#333333;" width="1.5" height="4"/>
<rect x="7" y="20.25" style="fill:#333333;" width="10" height="1.5"/>
<path style="fill:#333333;" d="M18,8.788l-0.23-0.074c-1.188-0.384-3.52-2.035-3.52-4.112c0-1.297,1.077-2.352,2.4-2.352
	c0.486,0,0.956,0.146,1.35,0.408c0.394-0.262,0.863-0.408,1.35-0.408c1.323,0,2.4,1.055,2.4,2.352c0,2.077-2.331,3.728-3.52,4.112
	L18,8.788z M16.65,3.75c-0.496,0-0.9,0.382-0.9,0.852c0,1.053,1.366,2.198,2.25,2.594c0.884-0.396,2.25-1.541,2.25-2.594
	c0-0.47-0.404-0.852-0.9-0.852c-0.296,0-0.574,0.139-0.743,0.371L18,4.958l-0.606-0.836C17.225,3.889,16.946,3.75,16.65,3.75z"/>
</svg>






