<?xml version="1.0" encoding="iso-8859-1"?>
<svg version="1.1" id="&#x56FE;&#x5C42;_1" xmlns="http://www.w3.org/2000/svg" xmlns:xlink="http://www.w3.org/1999/xlink" x="0px"
	 y="0px" viewBox="0 0 24 24" style="enable-background:new 0 0 24 24;" xml:space="preserve">
<path style="fill:#333333;" d="M20.75,22.75H3.25V1.25h12.595l4.905,5.723V22.75z M4.75,21.25h14.5V7.527L15.155,2.75H4.75V21.25z"
	/>
<path style="fill:#333333;" d="M9.136,18.103L8.032,17.3l0.653-3.223l-2.423-2.224l0.421-1.298l3.268-0.375l1.366-2.992h1.365
	l1.365,2.992l3.268,0.375l0.422,1.298l-2.423,2.224l0.653,3.223l-1.104,0.803L12,16.484L9.136,18.103z M8.486,11.858l1.838,1.686
	l-0.496,2.444L12,14.762l2.171,1.227l-0.495-2.444l1.837-1.686l-2.477-0.284L12,9.306l-1.036,2.269L8.486,11.858z"/>
</svg>






