<?xml version="1.0" encoding="iso-8859-1"?>
<svg version="1.1" id="&#x56FE;&#x5C42;_1" xmlns="http://www.w3.org/2000/svg" xmlns:xlink="http://www.w3.org/1999/xlink" x="0px"
	 y="0px" viewBox="0 0 24 24" style="enable-background:new 0 0 24 24;" xml:space="preserve">
<path style="fill:#333333;" d="M16,22.75c-1.663,0-3.261-0.61-4.5-1.719l1-1.117c0.964,0.861,2.207,1.336,3.5,1.336
	c2.895,0,5.25-2.355,5.25-5.25c0-2.397-1.619-4.488-3.937-5.084l0.373-1.453C20.668,10.23,22.75,12.918,22.75,16
	C22.75,19.722,19.722,22.75,16,22.75z"/>
<path style="fill:#333333;" d="M8,22.75c-3.722,0-6.75-3.028-6.75-6.75c0-3.082,2.082-5.77,5.063-6.538l0.374,1.453
	C4.369,11.512,2.75,13.603,2.75,16c0,2.895,2.355,5.25,5.25,5.25s5.25-2.355,5.25-5.25c0-0.664-0.122-1.311-0.362-1.921l1.396-0.549
	c0.309,0.785,0.466,1.616,0.466,2.47C14.75,19.722,11.722,22.75,8,22.75z"/>
<path style="fill:#333333;" d="M12,14.75c-3.722,0-6.75-3.028-6.75-6.75S8.278,1.25,12,1.25c3.722,0,6.75,3.028,6.75,6.75
	S15.722,14.75,12,14.75z M12,2.75C9.105,2.75,6.75,5.105,6.75,8s2.355,5.25,5.25,5.25c2.895,0,5.25-2.355,5.25-5.25
	S14.895,2.75,12,2.75z"/>
</svg>






