<?xml version="1.0" encoding="iso-8859-1"?>
<svg version="1.1" id="&#x56FE;&#x5C42;_1" xmlns="http://www.w3.org/2000/svg" xmlns:xlink="http://www.w3.org/1999/xlink" x="0px"
	 y="0px" viewBox="0 0 24 24" style="enable-background:new 0 0 24 24;" xml:space="preserve">
<path style="fill:none;" d="M5,22c1.657,0,3-1.343,3-3v-7.243V2H2v17C2,20.657,3.343,22,5,22z"/>
<path style="fill:#333333;" d="M22.75,22.75H5c-0.002,0-0.005-0.001-0.007,0c-0.002,0-0.003,0-0.005,0l0,0
	c-0.997-0.003-1.934-0.394-2.639-1.099L2.35,21.65c-0.679-0.679-1.1-1.616-1.1-2.65V1.25h7.5v8.697l8.975-9.025l5.328,5.328l-9,9
	h8.697V22.75z M8.053,21.25H21.25v-4.5h-8.697L8.053,21.25z M5,21.25c0.001,0,0.003,0,0.004,0c0.001,0,0.002,0,0.003,0l0,0
	C6.245,21.246,7.25,20.238,7.25,19v-7.243H8H7.25V2.75h-4.5V19c0,1.238,1.005,2.246,2.243,2.25l0,0c0.001,0,0.002,0,0.003,0
	C4.996,21.25,4.998,21.25,5,21.25z M8.75,12.068v6.363l2.962-2.962l0.53,0.53l-0.53-0.53l9.22-9.22L17.75,3.068L8.75,12.068z"/>
<polygon style="fill:#333333;" points="7.652,21.651 6.591,20.591 20.932,6.25 17.742,3.061 8.531,12.287 7.469,11.228 
	17.742,0.939 23.053,6.25 "/>
<polygon style="fill:#333333;" points="22.75,22.75 6.25,22.75 6.25,21.25 21.25,21.25 21.25,16.75 12.242,16.75 12.242,15.25 
	22.75,15.25 "/>
<polygon style="fill:#333333;" points="22.75,22.75 6.25,22.75 6.25,21.25 21.25,21.25 21.25,16.75 12.242,16.75 12.242,15.25 
	22.75,15.25 "/>
<path style="fill:#333333;" d="M5,22.75c-2.068,0-3.75-1.683-3.75-3.75V1.25h7.5V19C8.75,21.067,7.068,22.75,5,22.75z M2.75,2.75V19
	c0,1.24,1.009,2.25,2.25,2.25S7.25,20.24,7.25,19V2.75H2.75z"/>
</svg>






