<?xml version="1.0" encoding="iso-8859-1"?>
<svg version="1.1" id="&#x56FE;&#x5C42;_1" xmlns="http://www.w3.org/2000/svg" xmlns:xlink="http://www.w3.org/1999/xlink" x="0px"
	 y="0px" viewBox="0 0 24 24" style="enable-background:new 0 0 24 24;" xml:space="preserve">
<polygon style="fill:#333333;" points="8.464,22.96 1.57,16.066 2.631,15.006 8.464,20.839 20.839,8.465 15.005,2.631 16.065,1.57 
	22.96,8.465 "/>
<rect x="5.594" y="12.329" transform="matrix(0.7071 -0.7072 0.7072 0.7071 -8.6282 8.8299)" style="fill:#333333;" width="1.5" height="5"/>
<rect x="8.422" y="9.5" transform="matrix(0.7072 -0.7071 0.7071 0.7072 -5.7992 9.9992)" style="fill:#333333;" width="1.5" height="5.001"/>
<rect x="11.25" y="6.672" transform="matrix(0.7072 -0.7071 0.7071 0.7072 -2.9707 11.1706)" style="fill:#333333;" width="1.5" height="5"/>
<rect x="14.078" y="3.844" transform="matrix(0.7072 -0.7071 0.7071 0.7072 -0.1429 12.342)" style="fill:#333333;" width="1.5" height="5"/>
<rect x="3.561" y="12.311" transform="matrix(0.7071 -0.7071 0.7071 0.7071 -5.41 13.0608)" style="fill:#333333;" width="19" height="1.5"/>
</svg>






