<?xml version="1.0" encoding="iso-8859-1"?>
<svg version="1.1" id="&#x56FE;&#x5C42;_1" xmlns="http://www.w3.org/2000/svg" xmlns:xlink="http://www.w3.org/1999/xlink" x="0px"
	 y="0px" viewBox="0 0 24 24" style="enable-background:new 0 0 24 24;" xml:space="preserve">
<path style="fill:#333333;" d="M14.181,21.847c-1.693,0-3.448-0.392-5.016-1.176l0,0c-4.094-2.047-5.843-6.049-7.249-9.264
	c-0.204-0.468-0.401-0.918-0.597-1.342C1.006,9.387,1.094,8.717,1.561,8.226c0.854-0.899,2.724-0.921,3.968-0.422
	C6.11,8.036,6.732,8.364,7.25,8.661V5.75c0-1.378,1.122-2.5,2.5-2.5c0.467,0,0.905,0.129,1.279,0.353
	C11.446,2.8,12.285,2.25,13.25,2.25c1.282,0,2.343,0.971,2.484,2.216c0.311-0.139,0.654-0.216,1.016-0.216
	c1.121,0,2.072,0.742,2.389,1.761c0.335-0.167,0.712-0.261,1.111-0.261c1.379,0,2.5,1.121,2.5,2.499V14.5
	c0,1.849-1.015,4.434-3.864,6.144C17.549,21.445,15.896,21.847,14.181,21.847z M2.634,9.277c0,0-0.003,0.048,0.047,0.158
	c0.2,0.433,0.401,0.893,0.609,1.371c1.309,2.994,2.937,6.719,6.545,8.523l0,0c2.716,1.357,6.043,1.368,8.279,0.027
	c2.312-1.387,3.136-3.418,3.136-4.856V8.249c0-0.551-0.448-0.999-1-0.999s-1,0.449-1,1h-1.5v-1.5c0-0.551-0.448-1-1-1s-1,0.449-1,1
	h-1.5v-2c0-0.551-0.448-1-1-1s-1,0.449-1,1v1h-1.5c0-0.551-0.449-1-1-1s-1,0.449-1,1V10l-1.166,0.624
	C7.57,10.615,6.132,9.661,4.972,9.196C3.964,8.793,2.75,9.04,2.634,9.277L2.634,9.277z"/>
</svg>






