<?xml version="1.0" encoding="iso-8859-1"?>
<svg version="1.1" id="&#x56FE;&#x5C42;_1" xmlns="http://www.w3.org/2000/svg" xmlns:xlink="http://www.w3.org/1999/xlink" x="0px"
	 y="0px" viewBox="0 0 24 24" style="enable-background:new 0 0 24 24;" xml:space="preserve">
<path style="fill:#333333;" d="M19.867,20.75H4.133c-0.502,0-0.98-0.216-1.312-0.592s-0.487-0.878-0.424-1.375l1.75-14
	C4.256,3.909,5.002,3.25,5.883,3.25h12.234c0.881,0,1.627,0.659,1.736,1.533l1.75,14c0.062,0.497-0.092,0.998-0.424,1.374
	C20.848,20.534,20.369,20.75,19.867,20.75z M5.883,4.75c-0.126,0-0.232,0.094-0.248,0.219v0l-1.75,14
	c-0.012,0.098,0.033,0.165,0.061,0.196c0.028,0.032,0.089,0.085,0.188,0.085h15.734c0.099,0,0.16-0.053,0.188-0.085
	c0.028-0.031,0.073-0.099,0.061-0.195l-1.75-14C18.35,4.844,18.243,4.75,18.117,4.75H5.883z"/>
<path style="fill:#333333;" d="M12,11.75c-3.918,0-5.122-2.316-5.171-2.415l1.337-0.681C8.201,8.72,9.059,10.25,12,10.25
	c2.94,0,3.799-1.53,3.834-1.595l1.337,0.681C17.121,9.434,15.919,11.75,12,11.75z"/>
</svg>






