<?xml version="1.0" encoding="iso-8859-1"?>
<svg version="1.1" id="&#x56FE;&#x5C42;_1" xmlns="http://www.w3.org/2000/svg" xmlns:xlink="http://www.w3.org/1999/xlink" x="0px"
	 y="0px" viewBox="0 0 24 24" style="enable-background:new 0 0 24 24;" xml:space="preserve">
<path style="fill:#333333;" d="M18.566,21.75H5.434c-0.569,0-1.089-0.266-1.427-0.729c-0.337-0.463-0.435-1.064-0.261-1.607
	C4.308,17.66,5.25,14.365,5.25,12S4.308,6.34,3.746,4.586l0,0C3.572,4.043,3.669,3.442,4.007,2.979
	C4.345,2.516,4.865,2.25,5.434,2.25h13.133c0.569,0,1.089,0.266,1.428,0.73c0.337,0.463,0.435,1.063,0.26,1.606
	C19.692,6.338,18.75,9.631,18.75,12c0,2.368,0.942,5.661,1.504,7.414c0.175,0.543,0.077,1.144-0.261,1.606
	C19.655,21.484,19.136,21.75,18.566,21.75z M5.434,3.75c-0.115,0-0.184,0.071-0.215,0.113C5.191,3.9,5.133,4,5.174,4.128l0,0
	C5.763,5.965,6.75,9.431,6.75,12c0,2.568-0.987,6.034-1.576,7.871C5.133,20,5.191,20.1,5.219,20.137
	c0.031,0.043,0.1,0.113,0.215,0.113h13.133c0.115,0,0.185-0.071,0.215-0.113c0.027-0.037,0.086-0.137,0.045-0.265
	c-0.589-1.836-1.576-5.3-1.576-7.872c0-2.573,0.987-6.037,1.576-7.872C18.867,4,18.809,3.9,18.781,3.863
	c-0.03-0.042-0.1-0.113-0.215-0.113H5.434z"/>
<path style="fill:#333333;" d="M2.6,16.95l-1.2-0.9c0.517-0.688,0.85-2.278,0.85-4.05c0-1.772-0.333-3.361-0.85-4.05l1.2-0.9
	C3.667,8.473,3.75,11.199,3.75,12C3.75,12.802,3.667,15.527,2.6,16.95z"/>
<rect x="9" y="7" style="fill:#333333;" width="6" height="1.5"/>
<rect x="9" y="11.25" style="fill:#333333;" width="6" height="1.5"/>
<rect x="9" y="15.25" style="fill:#333333;" width="2" height="1.5"/>
<path style="fill:#333333;" d="M21.329,16.835C20.603,15.383,20.25,13.802,20.25,12c0-0.801,0.083-3.527,1.15-4.95l1.199,0.9
	c-0.516,0.688-0.85,2.278-0.85,4.05c0,1.585,0.293,2.908,0.921,4.165L21.329,16.835z"/>
</svg>






