<?xml version="1.0" encoding="iso-8859-1"?>
<svg version="1.1" id="&#x56FE;&#x5C42;_1" xmlns="http://www.w3.org/2000/svg" xmlns:xlink="http://www.w3.org/1999/xlink" x="0px"
	 y="0px" viewBox="0 0 24 24" style="enable-background:new 0 0 24 24;" xml:space="preserve">
<rect x="1.062" y="14.125" transform="matrix(0.3516 -0.9362 0.9362 0.3516 -8.3022 17.764)" style="fill:#333333;" width="15.219" height="1.5"/>
<rect x="14.578" y="7.265" transform="matrix(0.9363 -0.3511 0.3511 0.9363 -4.2469 6.3289)" style="fill:#333333;" width="1.5" height="15.219"/>
<path style="fill:#333333;" d="M12,8.75c-1.517,0-2.75-1.233-2.75-2.75S10.483,3.25,12,3.25S14.75,4.483,14.75,6
	S13.517,8.75,12,8.75z M12,4.75c-0.689,0-1.25,0.561-1.25,1.25S11.311,7.25,12,7.25S13.25,6.689,13.25,6S12.689,4.75,12,4.75z"/>
<path style="fill:#333333;" d="M12,19.25c-2.564,0-5.051-0.733-7.193-2.12l0.815-1.26c3.797,2.459,8.958,2.46,12.754,0l0.815,1.26
	C17.051,18.517,14.563,19.25,12,19.25z"/>
<rect x="11.25" y="2" style="fill:#333333;" width="1.5" height="2"/>
</svg>






