<?xml version="1.0" encoding="iso-8859-1"?>
<svg version="1.1" id="&#x56FE;&#x5C42;_1" xmlns="http://www.w3.org/2000/svg" xmlns:xlink="http://www.w3.org/1999/xlink" x="0px"
	 y="0px" viewBox="0 0 24 24" style="enable-background:new 0 0 24 24;" xml:space="preserve">
<path style="fill:#333333;" d="M18,22.75H6c-0.965,0-1.75-0.785-1.75-1.75V3c0-0.965,0.785-1.75,1.75-1.75h12
	c0.965,0,1.75,0.785,1.75,1.75v18C19.75,21.965,18.965,22.75,18,22.75z M6,2.75C5.862,2.75,5.75,2.862,5.75,3v18
	c0,0.138,0.112,0.25,0.25,0.25h12c0.138,0,0.25-0.112,0.25-0.25V3c0-0.138-0.112-0.25-0.25-0.25H6z"/>
<rect x="8.5" y="5.25" style="fill:#333333;" width="7" height="1.5"/>
<circle style="fill:#333333;" cx="8.5" cy="10.5" r="1"/>
<circle style="fill:#333333;" cx="8.5" cy="13.5" r="1"/>
<circle style="fill:#333333;" cx="8.5" cy="16.5" r="1"/>
<circle style="fill:#333333;" cx="12" cy="10.5" r="1"/>
<circle style="fill:#333333;" cx="12" cy="13.5" r="1"/>
<circle style="fill:#333333;" cx="12" cy="16.5" r="1"/>
<circle style="fill:#333333;" cx="15.5" cy="10.5" r="1"/>
<circle style="fill:#333333;" cx="15.5" cy="13.5" r="1"/>
<circle style="fill:#333333;" cx="15.5" cy="16.5" r="1"/>
</svg>






