<?xml version="1.0" encoding="iso-8859-1"?>
<svg version="1.1" id="&#x56FE;&#x5C42;_1" xmlns="http://www.w3.org/2000/svg" xmlns:xlink="http://www.w3.org/1999/xlink" x="0px"
	 y="0px" viewBox="0 0 24 24" style="enable-background:new 0 0 24 24;" xml:space="preserve">
<path style="fill:#333333;" d="M12,10.061L7.439,5.5L12,0.939L16.561,5.5L12,10.061z M9.561,5.5L12,7.939L14.439,5.5L12,3.061
	L9.561,5.5z"/>
<path style="fill:#333333;" d="M18.5,17.061L13.939,12.5L18.5,7.939l4.561,4.561L18.5,17.061z M16.061,12.5l2.439,2.439l2.439-2.439
	L18.5,10.061L16.061,12.5z"/>
<path style="fill:#333333;" d="M12,23.061L7.439,18.5L12,13.939l4.561,4.561L12,23.061z M9.561,18.5L12,20.939l2.439-2.439
	L12,16.061L9.561,18.5z"/>
<path style="fill:#333333;" d="M5.5,16.561L0.939,12L5.5,7.439L10.061,12L5.5,16.561z M3.061,12L5.5,14.439L7.939,12L5.5,9.561
	L3.061,12z"/>
</svg>






