<?xml version="1.0" encoding="iso-8859-1"?>
<svg version="1.1" id="&#x56FE;&#x5C42;_1" xmlns="http://www.w3.org/2000/svg" xmlns:xlink="http://www.w3.org/1999/xlink" x="0px"
	 y="0px" viewBox="0 0 24 24" style="enable-background:new 0 0 24 24;" xml:space="preserve">
<path style="fill:#333333;" d="M4.898,19.602C2.868,17.571,1.75,14.872,1.75,12c0-2.872,1.118-5.571,3.148-7.601l1.061,1.061
	C4.212,7.207,3.25,9.529,3.25,12s0.962,4.794,2.709,6.541L4.898,19.602z"/>
<path style="fill:#333333;" d="M20.102,19.602l-1.061-1.061c1.747-1.747,2.709-4.07,2.709-6.541s-0.962-4.793-2.709-6.541
	l1.061-1.061c2.03,2.03,3.148,4.729,3.148,7.601C23.25,14.872,22.132,17.571,20.102,19.602z"/>
<path style="fill:#333333;" d="M17.979,17.48l-1.061-1.061C18.1,15.239,18.75,13.669,18.75,12c0-1.67-0.65-3.239-1.831-4.419
	l1.061-1.062c1.464,1.463,2.271,3.41,2.271,5.48C20.25,14.07,19.443,16.017,17.979,17.48z"/>
<path style="fill:#333333;" d="M7.02,17.48C5.556,16.016,4.75,14.069,4.75,12c0-2.07,0.806-4.016,2.27-5.48l1.061,1.061
	C6.9,8.761,6.25,10.331,6.25,12c0,1.669,0.65,3.238,1.831,4.42L7.02,17.48z"/>
<path style="fill:#333333;" d="M12.5,16.886l-0.399-0.251c-0.676-0.426-1.25-0.859-1.706-1.289l-0.119-0.111
	C9.568,14.573,8.25,13.342,8.25,11.8c0-1.406,1.193-2.55,2.659-2.55c0.582,0,1.138,0.182,1.591,0.506
	c0.453-0.325,1.009-0.506,1.591-0.506c1.466,0,2.659,1.144,2.659,2.55c0,1.543-1.319,2.774-2.027,3.437l-0.117,0.109
	c-0.455,0.43-1.029,0.863-1.706,1.289L12.5,16.886z M10.909,10.75c-0.639,0-1.159,0.471-1.159,1.05c0,0.891,0.97,1.797,1.55,2.339
	l0.123,0.115c0.296,0.279,0.657,0.563,1.077,0.85c0.42-0.286,0.781-0.57,1.076-0.849l0.122-0.115
	c0.581-0.542,1.552-1.448,1.552-2.34c0-0.579-0.52-1.05-1.159-1.05c-0.397,0-0.763,0.182-0.978,0.487l-0.613,0.87l-0.613-0.87
	C11.672,10.932,11.307,10.75,10.909,10.75z"/>
</svg>






