<?xml version="1.0" encoding="iso-8859-1"?>
<svg version="1.1" id="&#x56FE;&#x5C42;_1" xmlns="http://www.w3.org/2000/svg" xmlns:xlink="http://www.w3.org/1999/xlink" x="0px"
	 y="0px" viewBox="0 0 24 24" style="enable-background:new 0 0 24 24;" xml:space="preserve">
<path style="fill:#333333;" d="M13.083,22.75c-0.62,0-1.834-0.347-6.101-2.876l-3.832,1.6l-2.195-4.346l6.607-2.431l4.631,2.553
	h1.99v1.5h-2.376l-4.37-2.408l-4.384,1.612l0.807,1.598l3.241-1.354l0.324,0.194c4.441,2.651,5.453,2.857,5.657,2.857
	c0.295-0.015,1.73-0.425,8.576-3.918l0.682,1.336C14.343,22.75,13.492,22.75,13.083,22.75z"/>
<path style="fill:#333333;" d="M15.246,14.244h-4.498l0.001-0.752c0.002-0.837,0.002-1.451,0.002-1.841
	c-0.502-0.232-1.07-0.544-1.464-0.938C8.296,9.72,7.75,8.402,7.75,7c0-2.895,2.355-5.25,5.25-5.25c2.895,0,5.25,2.355,5.25,5.25
	c0,1.402-0.546,2.721-1.538,3.712c-0.392,0.392-0.961,0.705-1.466,0.938V14.244z M12.251,12.744h1.495v-2.086l0.463-0.192
	c0.713-0.295,1.198-0.569,1.442-0.813C16.359,8.943,16.75,8.001,16.75,7c0-2.068-1.683-3.75-3.75-3.75
	c-2.068,0-3.75,1.682-3.75,3.75c0,1.001,0.39,1.943,1.098,2.652c0.247,0.246,0.73,0.52,1.439,0.814l0.454,0.188l0.009,0.491
	C12.252,11.281,12.253,11.814,12.251,12.744z"/>
<rect x="5.896" y="9.5" transform="matrix(0.7071 -0.7071 0.7071 0.7071 -5.4173 7.4216)" style="fill:#333333;" width="0.707" height="1.5"/>
<rect x="19" y="9.896" transform="matrix(0.7071 -0.7071 0.7071 0.7071 -1.4632 16.9675)" style="fill:#333333;" width="1.5" height="0.707"/>
<rect x="6.5" y="1.896" transform="matrix(0.7071 -0.7071 0.7071 0.7071 0.5325 5.7855)" style="fill:#333333;" width="1.5" height="0.707"/>
<rect x="18.396" y="1.5" transform="matrix(0.7071 -0.7071 0.7071 0.7071 3.9008 13.9173)" style="fill:#333333;" width="0.707" height="1.5"/>
<rect x="20" y="5.25" style="fill:#333333;" width="0.5" height="1.5"/>
<rect x="5.5" y="5.25" style="fill:#333333;" width="0.5" height="1.5"/>
</svg>






