<?xml version="1.0" encoding="iso-8859-1"?>
<svg version="1.1" id="&#x56FE;&#x5C42;_1" xmlns="http://www.w3.org/2000/svg" xmlns:xlink="http://www.w3.org/1999/xlink" x="0px"
	 y="0px" viewBox="0 0 24 24" style="enable-background:new 0 0 24 24;" xml:space="preserve">
<path style="fill:#333333;" d="M20.75,22.75H3.25v-11.5h17.5V22.75z M4.75,21.25h14.5v-8.5H4.75V21.25z"/>
<polygon style="fill:#333333;" points="19.25,12 17.75,12 17.75,9.25 6.25,9.25 6.25,12 4.75,12 4.75,7.75 19.25,7.75 "/>
<path style="fill:#333333;" d="M9.051,9.009L7.949,7.991C8.542,7.348,9.25,5.787,9.25,2V1.25H10c1.918,0,5.75,3.077,5.75,7.116h-1.5
	c0-2.696-2.169-4.748-3.515-5.398C10.638,5.907,10.084,7.889,9.051,9.009z"/>
<path style="fill:#333333;" d="M16.75,19.25h-9.5v-4.5h9.5V19.25z M8.75,17.75h6.5v-1.5h-6.5V17.75z"/>
</svg>






