<?xml version="1.0" encoding="iso-8859-1"?>
<svg version="1.1" id="&#x56FE;&#x5C42;_1" xmlns="http://www.w3.org/2000/svg" xmlns:xlink="http://www.w3.org/1999/xlink" x="0px"
	 y="0px" viewBox="0 0 24 24" style="enable-background:new 0 0 24 24;" xml:space="preserve">
<path style="fill:#333333;" d="M12,23.25c-4.845,0-9.75-1.288-9.75-3.75s4.905-3.75,9.75-3.75c4.845,0,9.75,1.288,9.75,3.75
	S16.845,23.25,12,23.25z M12,17.25c-5.338,0-8.25,1.486-8.25,2.25s2.912,2.25,8.25,2.25s8.25-1.486,8.25-2.25S17.338,17.25,12,17.25
	z"/>
<rect x="3" y="18.75" style="fill:#333333;" width="18" height="1.5"/>
<polygon style="fill:#333333;" points="20.333,19.843 12,3.64 3.667,19.843 2.333,19.157 11.333,1.657 12.667,1.657 21.667,19.157 
	"/>
</svg>






