<?xml version="1.0" encoding="iso-8859-1"?>
<svg version="1.1" id="&#x56FE;&#x5C42;_1" xmlns="http://www.w3.org/2000/svg" xmlns:xlink="http://www.w3.org/1999/xlink" x="0px"
	 y="0px" viewBox="0 0 24 24" style="enable-background:new 0 0 24 24;" xml:space="preserve">
<path style="fill:#333333;" d="M12,22.75C6.072,22.75,1.25,17.928,1.25,12S6.072,1.25,12,1.25S22.75,6.072,22.75,12
	S17.928,22.75,12,22.75z M12,2.75c-5.101,0-9.25,4.149-9.25,9.25s4.149,9.25,9.25,9.25s9.25-4.149,9.25-9.25S17.101,2.75,12,2.75z"
	/>
<polygon style="fill:#333333;" points="15.47,12.03 13.439,10 15.47,7.97 16.53,9.03 15.561,10 16.53,10.97 "/>
<polygon style="fill:#333333;" points="8.53,12.03 7.47,10.97 8.439,10 7.47,9.03 8.53,7.97 10.561,10 "/>
<polygon style="fill:#333333;" points="15,18.061 13.5,16.561 12,18.061 10.5,16.561 9,18.061 6.97,16.03 8.03,14.97 9,15.939 
	10.5,14.439 12,15.939 13.5,14.439 15,15.939 15.97,14.97 17.03,16.03 "/>
</svg>






