<?xml version="1.0" encoding="iso-8859-1"?>
<svg version="1.1" id="&#x56FE;&#x5C42;_1" xmlns="http://www.w3.org/2000/svg" xmlns:xlink="http://www.w3.org/1999/xlink" x="0px"
	 y="0px" viewBox="0 0 24 24" style="enable-background:new 0 0 24 24;" xml:space="preserve">
<path style="fill:#333333;" d="M12,23.061L8.689,19.75H4.25v-4.439L0.939,12L4.25,8.689V4.25h4.439L12,0.939l3.311,3.311h4.439
	v4.439L23.061,12l-3.311,3.311v4.439h-4.439L12,23.061z M5.75,18.25h3.561L12,20.939l2.689-2.689h3.561v-3.561L20.939,12
	L18.25,9.311V5.75h-3.561L12,3.061L9.311,5.75H5.75v3.561L3.061,12l2.689,2.689V18.25z"/>
<path style="fill:#333333;" d="M12,15.75c-2.068,0-3.75-1.683-3.75-3.75c0-2.068,1.682-3.75,3.75-3.75c2.067,0,3.75,1.682,3.75,3.75
	C15.75,14.067,14.067,15.75,12,15.75z M12,9.75c-1.241,0-2.25,1.009-2.25,2.25c0,1.24,1.009,2.25,2.25,2.25
	c1.24,0,2.25-1.01,2.25-2.25C14.25,10.759,13.24,9.75,12,9.75z"/>
</svg>






