<?xml version="1.0" encoding="iso-8859-1"?>
<svg version="1.1" id="&#x56FE;&#x5C42;_1" xmlns="http://www.w3.org/2000/svg" xmlns:xlink="http://www.w3.org/1999/xlink" x="0px"
	 y="0px" viewBox="0 0 24 24" style="enable-background:new 0 0 24 24;" xml:space="preserve">
<path style="fill:#333333;" d="M17.997,20.752H3.033v-1.5h14.964c0.133,0,3.253-0.037,3.253-3.26c0-3.151-2.92-3.242-3.253-3.242
	H6.091c-1.946,0-4.841-1.27-4.841-4.766c0-3.734,3.167-4.721,4.841-4.721h14.404v1.5H6.091c-0.342,0-3.341,0.09-3.341,3.221
	c0,3.229,3.205,3.266,3.341,3.266h11.906c1.644,0,4.753,0.991,4.753,4.742C22.75,19.757,19.641,20.752,17.997,20.752z"/>
<polygon style="fill:#333333;" points="3.495,22.533 0.977,20.037 3.487,17.472 4.559,18.521 3.091,20.021 4.551,21.467 "/>
<polygon style="fill:#333333;" points="19.549,6.513 18.494,5.448 19.953,4.002 18.485,2.501 19.558,1.453 22.068,4.019 "/>
</svg>






