<?xml version="1.0" encoding="iso-8859-1"?>
<svg version="1.1" id="&#x56FE;&#x5C42;_1" xmlns="http://www.w3.org/2000/svg" xmlns:xlink="http://www.w3.org/1999/xlink" x="0px"
	 y="0px" viewBox="0 0 24 24" style="enable-background:new 0 0 24 24;" xml:space="preserve">
<polygon style="fill:#333333;" points="20.03,22.53 18.97,21.47 20.939,19.5 18.97,17.53 20.03,16.47 23.061,19.5 "/>
<path style="fill:#333333;" d="M4,6.75C2.483,6.75,1.25,5.517,1.25,4S2.483,1.25,4,1.25S6.75,2.483,6.75,4S5.517,6.75,4,6.75z
	 M4,2.75C3.311,2.75,2.75,3.311,2.75,4S3.311,5.25,4,5.25S5.25,4.689,5.25,4S4.689,2.75,4,2.75z"/>
<path style="fill:#333333;" d="M22,20.25h-8c-1.517,0-2.75-1.233-2.75-2.75V6c0-0.689-0.561-1.25-1.25-1.25H6v-1.5h4
	c1.517,0,2.75,1.233,2.75,2.75v11.5c0,0.689,0.561,1.25,1.25,1.25h8V20.25z"/>
</svg>






