<?xml version="1.0" encoding="iso-8859-1"?>
<svg version="1.1" id="&#x56FE;&#x5C42;_1" xmlns="http://www.w3.org/2000/svg" xmlns:xlink="http://www.w3.org/1999/xlink" x="0px"
	 y="0px" viewBox="0 0 24 24" style="enable-background:new 0 0 24 24;" xml:space="preserve">
<path style="fill:#333333;" d="M17.5,20.75H6v-1.5h11.5c0.792,0,3.75-0.552,3.75-3.25s-2.958-3.25-3.75-3.25h-11
	c-2.18,0-5.25-1.474-5.25-4.75S4.32,3.25,6.5,3.25H18v1.5H6.5C5.708,4.75,2.75,5.302,2.75,8s2.958,3.25,3.75,3.25h11
	c2.18,0,5.25,1.474,5.25,4.75S19.68,20.75,17.5,20.75z"/>
<path style="fill:#333333;" d="M20,6.75c-1.517,0-2.75-1.233-2.75-2.75S18.483,1.25,20,1.25S22.75,2.483,22.75,4
	S21.517,6.75,20,6.75z M20,2.75c-0.689,0-1.25,0.561-1.25,1.25S19.311,5.25,20,5.25S21.25,4.689,21.25,4S20.689,2.75,20,2.75z"/>
<path style="fill:#333333;" d="M4,22.75c-1.517,0-2.75-1.233-2.75-2.75S2.483,17.25,4,17.25S6.75,18.483,6.75,20
	S5.517,22.75,4,22.75z M4,18.75c-0.689,0-1.25,0.561-1.25,1.25S3.311,21.25,4,21.25S5.25,20.689,5.25,20S4.689,18.75,4,18.75z"/>
</svg>






