<?xml version="1.0" encoding="iso-8859-1"?>
<svg version="1.1" id="&#x56FE;&#x5C42;_1" xmlns="http://www.w3.org/2000/svg" xmlns:xlink="http://www.w3.org/1999/xlink" x="0px"
	 y="0px" viewBox="0 0 24 24" style="enable-background:new 0 0 24 24;" xml:space="preserve">
<path style="fill:#333333;" d="M4,6.75C2.483,6.75,1.25,5.517,1.25,4S2.483,1.25,4,1.25S6.75,2.483,6.75,4S5.517,6.75,4,6.75z
	 M4,2.75C3.311,2.75,2.75,3.311,2.75,4S3.311,5.25,4,5.25S5.25,4.689,5.25,4S4.689,2.75,4,2.75z"/>
<path style="fill:#333333;" d="M5,21.75c-2.068,0-3.75-1.683-3.75-3.75S2.932,14.25,5,14.25S8.75,15.933,8.75,18
	S7.068,21.75,5,21.75z M5,15.75c-1.241,0-2.25,1.01-2.25,2.25S3.759,20.25,5,20.25S7.25,19.24,7.25,18S6.241,15.75,5,15.75z"/>
<path style="fill:#333333;" d="M19,22.75c-2.067,0-3.75-1.683-3.75-3.75s1.683-3.75,3.75-3.75s3.75,1.683,3.75,3.75
	S21.067,22.75,19,22.75z M19,16.75c-1.24,0-2.25,1.01-2.25,2.25s1.01,2.25,2.25,2.25s2.25-1.01,2.25-2.25S20.24,16.75,19,16.75z"/>
<path style="fill:#333333;" d="M11,14.75c-2.619,0-4.75-2.131-4.75-4.75S8.381,5.25,11,5.25s4.75,2.131,4.75,4.75
	S13.619,14.75,11,14.75z M11,6.75c-1.792,0-3.25,1.458-3.25,3.25s1.458,3.25,3.25,3.25s3.25-1.458,3.25-3.25S12.792,6.75,11,6.75z"
	/>
<path style="fill:#333333;" d="M17,6.75c-1.517,0-2.75-1.233-2.75-2.75S15.483,1.25,17,1.25S19.75,2.483,19.75,4
	S18.517,6.75,17,6.75z M17,2.75c-0.689,0-1.25,0.561-1.25,1.25S16.311,5.25,17,5.25S18.25,4.689,18.25,4S17.689,2.75,17,2.75z"/>
<rect x="5.75" y="5.086" transform="matrix(0.7071 -0.7071 0.7071 0.7071 -2.6924 6.5)" style="fill:#333333;" width="1.5" height="2.828"/>
<rect x="13.793" y="5.75" transform="matrix(0.7071 -0.7071 0.7071 0.7071 -0.3492 12.1569)" style="fill:#333333;" width="1.414" height="1.5"/>
<rect x="14.75" y="12.474" transform="matrix(0.7809 -0.6247 0.6247 0.7809 -5.8958 12.9423)" style="fill:#333333;" width="1.501" height="4.802"/>
<rect x="6.586" y="13.75" transform="matrix(0.7071 -0.7071 0.7071 0.7071 -7.9099 9.9038)" style="fill:#333333;" width="2.828" height="1.5"/>
</svg>






