<?xml version="1.0" encoding="iso-8859-1"?>
<svg version="1.1" id="&#x56FE;&#x5C42;_1" xmlns="http://www.w3.org/2000/svg" xmlns:xlink="http://www.w3.org/1999/xlink" x="0px"
	 y="0px" viewBox="0 0 24 24" style="enable-background:new 0 0 24 24;" xml:space="preserve">
<path style="fill:#333333;" d="M12,21.75c-5.376,0-9.75-4.374-9.75-9.75h1.5c0,4.549,3.701,8.25,8.25,8.25s8.25-3.701,8.25-8.25h1.5
	C21.75,17.376,17.376,21.75,12,21.75z"/>
<rect x="11.25" y="7" style="fill:#333333;" width="1.5" height="14"/>
<rect x="3" y="11.25" style="fill:#333333;" width="3" height="1.5"/>
<rect x="18" y="11.25" style="fill:#333333;" width="3" height="1.5"/>
<path style="fill:#333333;" d="M12,7.75c-1.517,0-2.75-1.233-2.75-2.75S10.483,2.25,12,2.25S14.75,3.483,14.75,5
	S13.517,7.75,12,7.75z M12,3.75c-0.689,0-1.25,0.561-1.25,1.25S11.311,6.25,12,6.25S13.25,5.689,13.25,5S12.689,3.75,12,3.75z"/>
</svg>






