<?xml version="1.0" encoding="iso-8859-1"?>
<svg version="1.1" id="&#x56FE;&#x5C42;_1" xmlns="http://www.w3.org/2000/svg" xmlns:xlink="http://www.w3.org/1999/xlink" x="0px"
	 y="0px" viewBox="0 0 24 24" style="enable-background:new 0 0 24 24;" xml:space="preserve">
<rect x="2.5" y="11.25" style="fill:#333333;" width="19" height="1.5"/>
<path style="fill:#333333;" d="M14,8.75h-4C9.035,8.75,8.25,7.965,8.25,7V3c0-0.965,0.785-1.75,1.75-1.75h4
	c0.965,0,1.75,0.785,1.75,1.75v4C15.75,7.965,14.965,8.75,14,8.75z M10,2.75C9.862,2.75,9.75,2.862,9.75,3v4
	c0,0.138,0.112,0.25,0.25,0.25h4c0.138,0,0.25-0.112,0.25-0.25V3c0-0.138-0.112-0.25-0.25-0.25H10z"/>
<path style="fill:#333333;" d="M8,22.75H4c-0.965,0-1.75-0.785-1.75-1.75v-4c0-0.965,0.785-1.75,1.75-1.75h4
	c0.965,0,1.75,0.785,1.75,1.75v4C9.75,21.965,8.965,22.75,8,22.75z M4,16.75c-0.138,0-0.25,0.112-0.25,0.25v4
	c0,0.138,0.112,0.25,0.25,0.25h4c0.138,0,0.25-0.112,0.25-0.25v-4c0-0.138-0.112-0.25-0.25-0.25H4z"/>
<path style="fill:#333333;" d="M20,22.75h-4c-0.965,0-1.75-0.785-1.75-1.75v-4c0-0.965,0.785-1.75,1.75-1.75h4
	c0.965,0,1.75,0.785,1.75,1.75v4C21.75,21.965,20.965,22.75,20,22.75z M16,16.75c-0.138,0-0.25,0.112-0.25,0.25v4
	c0,0.138,0.112,0.25,0.25,0.25h4c0.138,0,0.25-0.112,0.25-0.25v-4c0-0.138-0.112-0.25-0.25-0.25H16z"/>
<rect x="11.25" y="8" style="fill:#333333;" width="1.5" height="4"/>
<rect x="17.25" y="12" style="fill:#333333;" width="1.5" height="4"/>
<rect x="5.25" y="12" style="fill:#333333;" width="1.5" height="4"/>
</svg>






