<?xml version="1.0" encoding="iso-8859-1"?>
<svg version="1.1" id="&#x56FE;&#x5C42;_1" xmlns="http://www.w3.org/2000/svg" xmlns:xlink="http://www.w3.org/1999/xlink" x="0px"
	 y="0px" viewBox="0 0 24 24" style="enable-background:new 0 0 24 24;" xml:space="preserve">
<path style="fill:#333333;" d="M19,16.75H5c-0.965,0-1.75-0.785-1.75-1.75V7c0-0.965,0.785-1.75,1.75-1.75h14
	c0.965,0,1.75,0.785,1.75,1.75v8C20.75,15.965,19.965,16.75,19,16.75z M5,6.75C4.862,6.75,4.75,6.862,4.75,7v8
	c0,0.138,0.112,0.25,0.25,0.25h14c0.138,0,0.25-0.112,0.25-0.25V7c0-0.138-0.112-0.25-0.25-0.25H5z"/>
<rect x="7.25" y="6" style="fill:#333333;" width="1.5" height="10"/>
<rect x="15.25" y="6" style="fill:#333333;" width="1.5" height="10"/>
<rect x="14" y="5.25" style="fill:#333333;" width="4" height="1.5"/>
<rect x="6" y="5.25" style="fill:#333333;" width="4" height="1.5"/>
<rect x="6" y="15.25" style="fill:#333333;" width="4" height="1.5"/>
<rect x="14" y="15.25" style="fill:#333333;" width="4" height="1.5"/>
<rect x="2" y="18.25" style="fill:#333333;" width="20" height="1.5"/>
<rect x="8.25" y="19" style="fill:#333333;" width="1.5" height="1"/>
<rect x="5.25" y="19" style="fill:#333333;" width="1.5" height="1"/>
<rect x="2.25" y="19" style="fill:#333333;" width="1.5" height="1"/>
<rect x="11.25" y="19" style="fill:#333333;" width="1.5" height="1"/>
<rect x="14.25" y="19" style="fill:#333333;" width="1.5" height="1"/>
<rect x="17.25" y="19" style="fill:#333333;" width="1.5" height="1"/>
<rect x="20.25" y="19" style="fill:#333333;" width="1.5" height="1"/>
<polygon style="fill:#333333;" points="15.75,6 14.25,6 14.25,3.75 9.75,3.75 9.75,6 8.25,6 8.25,2.25 15.75,2.25 "/>
</svg>






