<?xml version="1.0" encoding="iso-8859-1"?>
<svg version="1.1" id="&#x56FE;&#x5C42;_1" xmlns="http://www.w3.org/2000/svg" xmlns:xlink="http://www.w3.org/1999/xlink" x="0px"
	 y="0px" viewBox="0 0 24 24" style="enable-background:new 0 0 24 24;" xml:space="preserve">
<path style="fill:#333333;" d="M12.75,22.75H12C6.072,22.75,1.25,17.928,1.25,12S6.072,1.25,12,1.25h0.75V22.75z M11.25,2.78
	C6.499,3.163,2.75,7.152,2.75,12c0,4.848,3.749,8.837,8.5,9.22V2.78z"/>
<path style="fill:#333333;" d="M12,22.75h-0.75V1.25H12c5.928,0,10.75,4.822,10.75,10.75S17.928,22.75,12,22.75z M12.75,2.78V21.22
	c4.751-0.383,8.5-4.372,8.5-9.22C21.25,7.152,17.501,3.163,12.75,2.78z"/>
<rect x="4.5" y="17.25" style="fill:#333333;" width="7.5" height="1.5"/>
<rect x="2.5" y="13.25" style="fill:#333333;" width="9.5" height="1.5"/>
<rect x="2.5" y="9.25" style="fill:#333333;" width="9.5" height="1.5"/>
<rect x="4.5" y="5.25" style="fill:#333333;" width="7.5" height="1.5"/>
</svg>






