<?xml version="1.0" encoding="iso-8859-1"?>
<svg version="1.1" id="&#x56FE;&#x5C42;_1" xmlns="http://www.w3.org/2000/svg" xmlns:xlink="http://www.w3.org/1999/xlink" x="0px"
	 y="0px" viewBox="0 0 24 24" style="enable-background:new 0 0 24 24;" xml:space="preserve">
<path style="fill:#333333;" d="M19.75,22.75H4.25V10.474C4.25,7.042,7.727,4.25,12,4.25s7.75,2.792,7.75,6.224V22.75z M5.75,21.25
	h12.5V10.474c0-2.604-2.804-4.724-6.25-4.724s-6.25,2.119-6.25,4.724V21.25z"/>
<path style="fill:#333333;" d="M19.75,11.772L4.25,11.77v-1.296C4.25,7.042,7.727,4.25,12,4.25s7.75,2.792,7.75,6.224V11.772z
	 M5.756,10.27l12.488,0.002C18.104,7.76,15.356,5.75,12,5.75C8.644,5.75,5.897,7.76,5.756,10.27z"/>
<rect x="2" y="10.25" style="fill:#333333;" width="20" height="1.5"/>
<rect x="10.5" y="1.25" style="fill:#333333;" width="3" height="1.5"/>
</svg>






