<?xml version="1.0" encoding="iso-8859-1"?>
<svg version="1.1" id="&#x56FE;&#x5C42;_1" xmlns="http://www.w3.org/2000/svg" xmlns:xlink="http://www.w3.org/1999/xlink" x="0px"
	 y="0px" viewBox="0 0 24 24" style="enable-background:new 0 0 24 24;" xml:space="preserve">
<rect x="3" y="20.25" style="fill:#333333;" width="18" height="1.5"/>
<rect x="3" y="17.25" style="fill:#333333;" width="18" height="1.5"/>
<path style="fill:#333333;" d="M20.25,18.75H3.75V12.5c0-4.549,3.701-8.25,8.25-8.25s8.25,3.701,8.25,8.25V18.75z M5.25,17.25h13.5
	V12.5c0-3.722-3.028-6.75-6.75-6.75c-3.722,0-6.75,3.028-6.75,6.75V17.25z"/>
<rect x="7.75" y="12.5" style="fill:#333333;" width="1.5" height="2"/>
<path style="fill:#333333;" d="M14.75,5h-1.5V4c0-0.689-0.561-1.25-1.25-1.25S10.75,3.311,10.75,4v1h-1.5V4
	c0-1.517,1.233-2.75,2.75-2.75S14.75,2.483,14.75,4V5z"/>
</svg>






