<?xml version="1.0" encoding="iso-8859-1"?>
<svg version="1.1" id="&#x56FE;&#x5C42;_1" xmlns="http://www.w3.org/2000/svg" xmlns:xlink="http://www.w3.org/1999/xlink" x="0px"
	 y="0px" viewBox="0 0 24 24" style="enable-background:new 0 0 24 24;" xml:space="preserve">
<path style="fill:#333333;" d="M13.84,22.325c-1.554,0-3.136-0.385-4.675-1.154c-2.777-1.389-5.595-4.932-7.307-7.785
	c-1.004-1.673-0.339-3.312,0.704-4.127C3.804,8.289,5.436,8.376,6.53,9.47l0.72,0.72V3.75c0-1.378,1.122-2.5,2.5-2.5
	s2.5,1.122,2.5,2.5v2.459C12.557,6.075,12.895,6,13.25,6c0.89,0,1.673,0.467,2.115,1.169c0.674-0.45,1.637-0.538,2.385-0.21V6.75
	c0-1.378,1.121-2.5,2.5-2.5s2.5,1.122,2.5,2.5v8.308c0,1.242-0.316,2.286-0.939,3.104c-0.668,0.873-1.808,2.101-3.451,2.997
	C16.934,21.936,15.402,22.325,13.84,22.325z M4.459,10.092c-0.358,0-0.705,0.138-0.975,0.35c-0.542,0.423-0.916,1.215-0.341,2.173
	c1.53,2.55,4.201,5.969,6.692,7.215c2.669,1.335,5.371,1.341,7.805,0.013c1.412-0.771,2.398-1.835,2.978-2.592
	c0.419-0.549,0.632-1.287,0.632-2.192V6.75c0-0.551-0.448-1-1-1s-1,0.449-1,1v2.5h-1.5c0-0.551-0.448-1-1-1s-1,0.449-1,1h-1.5V8.5
	c0-0.551-0.448-1-1-1s-1,0.449-1,1h-1.5V3.75c0-0.551-0.449-1-1-1s-1,0.449-1,1V12l-1.28,0.53l-2-2
	C5.158,10.219,4.803,10.092,4.459,10.092z"/>
</svg>






