<?xml version="1.0" encoding="iso-8859-1"?>
<svg version="1.1" id="&#x56FE;&#x5C42;_1" xmlns="http://www.w3.org/2000/svg" xmlns:xlink="http://www.w3.org/1999/xlink" x="0px"
	 y="0px" viewBox="0 0 24 24" style="enable-background:new 0 0 24 24;" xml:space="preserve">
<polygon style="fill:#333333;" points="12.53,20.53 12,20 11.47,20.53 0.939,10 8,2.939 12.53,7.47 11.47,8.53 8,5.061 3.061,10 
	12,18.939 17.47,13.47 18.53,14.53 "/>
<path style="fill:#333333;" d="M18,15.061l-4-4l-2.884,2.884l-3.826-2.295L16,2.939L23.061,10L18,15.061z M14,8.939l4,4L20.939,10
	L16,5.061l-6.291,6.291l1.174,0.705L14,8.939z"/>
<rect x="12.5" y="16.189" transform="matrix(0.7071 -0.7071 0.7071 0.7071 -8.3168 14.4216)" style="fill:#333333;" width="1.5" height="2.121"/>
<rect x="14.5" y="14.189" transform="matrix(0.7071 -0.7071 0.7071 0.7071 -6.3168 15.25)" style="fill:#333333;" width="1.5" height="2.121"/>
</svg>






