<?xml version="1.0" encoding="iso-8859-1"?>
<svg version="1.1" id="&#x56FE;&#x5C42;_1" xmlns="http://www.w3.org/2000/svg" xmlns:xlink="http://www.w3.org/1999/xlink" x="0px"
	 y="0px" viewBox="0 0 24 24" style="enable-background:new 0 0 24 24;" xml:space="preserve">
<path style="fill:#333333;" d="M12,22.864l-7.75-4.429V9.565L12,5.136l7.75,4.429v8.871L12,22.864z M5.75,17.564L12,21.136
	l6.25-3.571v-7.129L12,6.864l-6.25,3.571V17.564z"/>
<rect x="11.25" y="3" style="fill:#333333;" width="1.5" height="3"/>
<polygon style="fill:#333333;" points="12,14.864 4.628,10.651 5.372,9.349 12,13.136 18.628,9.349 19.372,10.651 "/>
<rect x="19.75" y="17.073" transform="matrix(0.4472 -0.8944 0.8944 0.4472 -5.4384 28.7005)" style="fill:#333333;" width="1.5" height="3.354"/>
<rect x="1.823" y="18" transform="matrix(0.8944 -0.4472 0.4472 0.8944 -8.0157 3.5447)" style="fill:#333333;" width="3.354" height="1.5"/>
<rect x="11.25" y="14" style="fill:#333333;" width="1.5" height="8"/>
<path style="fill:#333333;" d="M12,22.864l-3.872-2.213l0.744-1.303L12,21.136l3.128-1.787l0.744,1.303L12,22.864z M19.75,14h-1.5
	v-3.565l-3.122-1.784l0.744-1.303l3.878,2.216V14z M5.75,14h-1.5V9.565l3.878-2.216l0.744,1.303L5.75,10.435V14z"/>
</svg>






