<?xml version="1.0" encoding="iso-8859-1"?>
<svg version="1.1" id="&#x56FE;&#x5C42;_1" xmlns="http://www.w3.org/2000/svg" xmlns:xlink="http://www.w3.org/1999/xlink" x="0px"
	 y="0px" viewBox="0 0 24 24" style="enable-background:new 0 0 24 24;" xml:space="preserve">
<path style="fill:#333333;" d="M20.094,18.25h-2.336v-1.5h2.336c0.362,0,0.656-0.294,0.656-0.656V3.906
	c0-0.362-0.294-0.656-0.656-0.656H7.906c-0.362,0-0.656,0.294-0.656,0.656v2.31h-1.5v-2.31c0-1.189,0.967-2.156,2.156-2.156h12.188
	c1.188,0,2.156,0.967,2.156,2.156v12.188C22.25,17.282,21.282,18.25,20.094,18.25z"/>
<path style="fill:#333333;" d="M16.094,22.25H3.906c-1.189,0-2.156-0.968-2.156-2.156V7.906c0-1.189,0.967-2.156,2.156-2.156h12.188
	c1.188,0,2.156,0.967,2.156,2.156v12.188C18.25,21.282,17.282,22.25,16.094,22.25z M3.906,7.25c-0.362,0-0.656,0.294-0.656,0.656
	v12.188c0,0.362,0.294,0.656,0.656,0.656h12.188c0.362,0,0.656-0.294,0.656-0.656V7.906c0-0.362-0.294-0.656-0.656-0.656H3.906z"/>
</svg>






