<?xml version="1.0" encoding="iso-8859-1"?>
<svg version="1.1" id="&#x56FE;&#x5C42;_1" xmlns="http://www.w3.org/2000/svg" xmlns:xlink="http://www.w3.org/1999/xlink" x="0px"
	 y="0px" viewBox="0 0 24 24" style="enable-background:new 0 0 24 24;" xml:space="preserve">
<path style="fill:#333333;" d="M20.5,18.75h-1.491v-1.5H20.5c0.413,0,0.75-0.337,0.75-0.75v-13c0-0.414-0.337-0.75-0.75-0.75h-13
	c-0.414,0-0.75,0.336-0.75,0.75v1.463h-1.5V3.5c0-1.241,1.009-2.25,2.25-2.25h13c1.24,0,2.25,1.009,2.25,2.25v13
	C22.75,17.74,21.74,18.75,20.5,18.75z"/>
<path style="fill:#333333;" d="M17.5,22.75h-14c-1.241,0-2.25-1.01-2.25-2.25v-14c0-1.241,1.009-2.25,2.25-2.25h14
	c1.24,0,2.25,1.009,2.25,2.25v14C19.75,21.74,18.74,22.75,17.5,22.75z M3.5,5.75c-0.414,0-0.75,0.336-0.75,0.75v14
	c0,0.413,0.336,0.75,0.75,0.75h14c0.413,0,0.75-0.337,0.75-0.75v-14c0-0.414-0.337-0.75-0.75-0.75H3.5z"/>
<path style="fill:#333333;" d="M14.155,13.026l-1.09-1.029l0.955-1.012c0.222-0.223,0.333-0.501,0.329-0.8
	C14.346,9.879,14.222,9.588,14,9.366c-0.451-0.451-1.172-0.469-1.604-0.036l-2.636,2.745l-1.082-1.04l2.646-2.755
	c1.028-1.028,2.7-1.012,3.736,0.025c0.5,0.5,0.779,1.16,0.789,1.86c0.01,0.708-0.259,1.37-0.754,1.865L14.155,13.026z"/>
<path style="fill:#333333;" d="M7.325,19.225c-0.684,0.001-1.377-0.263-1.905-0.791c-0.494-0.493-0.775-1.194-0.771-1.924
	c0.003-0.722,0.285-1.415,0.771-1.901c0.01-0.01,0.531-0.513,0.783-0.765l1.061,1.061c-0.258,0.258-0.792,0.773-0.792,0.773
	c-0.2,0.2-0.321,0.51-0.323,0.84c-0.001,0.331,0.119,0.643,0.332,0.855c0.453,0.452,1.172,0.468,1.604,0.036l2.608-2.37l1.008,1.111
	l-2.583,2.345C8.633,18.981,7.983,19.225,7.325,19.225z"/>
<path style="fill:#333333;" d="M8.802,14.695c-0.462-0.461-0.741-1.071-0.784-1.717c-0.051-0.751,0.222-1.483,0.748-2.009
	l1.061,1.061c-0.223,0.223-0.333,0.523-0.312,0.848c0.019,0.282,0.142,0.551,0.347,0.755L8.802,14.695z"/>
<path style="fill:#333333;" d="M11.727,16.125l-1.061-1.061c0.207-0.207,0.318-0.485,0.314-0.784
	c-0.004-0.307-0.128-0.598-0.35-0.819l1.061-1.061c0.5,0.499,0.78,1.159,0.79,1.859C12.49,14.968,12.222,15.63,11.727,16.125z"/>
</svg>






