<?xml version="1.0" encoding="iso-8859-1"?>
<svg version="1.1" id="&#x56FE;&#x5C42;_1" xmlns="http://www.w3.org/2000/svg" xmlns:xlink="http://www.w3.org/1999/xlink" x="0px"
	 y="0px" viewBox="0 0 24 24" style="enable-background:new 0 0 24 24;" xml:space="preserve">
<path style="fill:#333333;" d="M12,22.75C6.072,22.75,1.25,17.928,1.25,12S6.072,1.25,12,1.25S22.75,6.072,22.75,12
	S17.928,22.75,12,22.75z M12,2.75c-5.101,0-9.25,4.149-9.25,9.25s4.149,9.25,9.25,9.25s9.25-4.149,9.25-9.25S17.101,2.75,12,2.75z"
	/>
<path style="fill:none;" d="M12,8.5h-2V12h1.5H12c1.5,0,2-1,2-1.75S13.5,8.5,12,8.5z"/>
<path style="fill:#333333;" d="M13.39,15.936l-2.275-3.186H10.75v2.75h-1.5V12H10H9.25V7.75H12c1.89,0,2.75,1.296,2.75,2.5
	c0,0.998-0.591,2.059-1.869,2.393l1.729,2.422L13.39,15.936z M10.75,11.25h0.75V12v-0.75H12c1.16,0,1.25-0.766,1.25-1
	s-0.09-1-1.25-1h-1.25V11.25z"/>
</svg>






