<?xml version="1.0" encoding="iso-8859-1"?>
<svg version="1.1" id="&#x56FE;&#x5C42;_1" xmlns="http://www.w3.org/2000/svg" xmlns:xlink="http://www.w3.org/1999/xlink" x="0px"
	 y="0px" viewBox="0 0 24 24" style="enable-background:new 0 0 24 24;" xml:space="preserve">
<path style="fill:#333333;" d="M6.087,20.979c-0.579-0.382-1.121-0.819-1.612-1.302c-0.466-0.457-0.894-0.961-1.271-1.495
	l1.227-0.863c0.324,0.46,0.692,0.894,1.095,1.288c0.422,0.414,0.889,0.791,1.388,1.12L6.087,20.979z"/>
<path style="fill:#333333;" d="M12,22.75c-0.697,0-1.396-0.067-2.078-0.2l0.287-1.473c1.175,0.23,2.405,0.23,3.582,0l0.287,1.473
	C13.396,22.683,12.697,22.75,12,22.75z"/>
<path style="fill:#333333;" d="M22.508,14.279l-1.467-0.316C21.18,13.321,21.25,12.66,21.25,12c0-0.649-0.067-1.296-0.199-1.924
	l1.467-0.31c0.154,0.729,0.232,1.48,0.232,2.233C22.75,12.767,22.668,13.533,22.508,14.279z"/>
<path style="fill:#333333;" d="M19.569,6.682c-0.322-0.458-0.69-0.891-1.095-1.288c-0.426-0.417-0.893-0.794-1.388-1.121
	l0.826-1.252c0.575,0.379,1.117,0.817,1.611,1.302c0.47,0.461,0.897,0.964,1.271,1.496L19.569,6.682z"/>
<path style="fill:#333333;" d="M13.779,2.921c-1.164-0.227-2.394-0.227-3.559,0L9.935,1.448c1.352-0.263,2.778-0.263,4.132,0
	L13.779,2.921z"/>
<path style="fill:#333333;" d="M4.431,6.682L3.204,5.818C3.58,5.285,4.007,4.782,4.475,4.323c0.494-0.484,1.037-0.922,1.612-1.302
	l0.826,1.252C6.417,4.6,5.95,4.978,5.525,5.394C5.122,5.789,4.754,6.223,4.431,6.682z"/>
<path style="fill:#333333;" d="M17.98,20.876l-0.826-1.252c0.495-0.327,0.962-0.704,1.388-1.121
	c0.403-0.396,0.771-0.828,1.095-1.288l1.227,0.863c-0.375,0.534-0.803,1.037-1.271,1.496C19.099,20.059,18.556,20.496,17.98,20.876z
	"/>
<rect x="2" y="11.25" style="fill:#333333;" width="6" height="1.5"/>
<rect x="4.136" y="16.164" transform="matrix(0.7071 -0.7071 0.7071 0.7071 -9.8847 9.9644)" style="fill:#333333;" width="5.9" height="1.5"/>
<rect x="11.25" y="16" style="fill:#333333;" width="1.5" height="6"/>
<rect x="16.164" y="13.964" transform="matrix(0.7071 -0.7071 0.7071 0.7071 -7.006 16.9141)" style="fill:#333333;" width="1.5" height="5.9"/>
<rect x="16" y="11.25" style="fill:#333333;" width="6" height="1.5"/>
<rect x="13.964" y="6.336" transform="matrix(0.7071 -0.7071 0.7071 0.7071 -0.0563 14.0354)" style="fill:#333333;" width="5.9" height="1.5"/>
<rect x="11.25" y="2" style="fill:#333333;" width="1.5" height="6"/>
<rect x="6.336" y="4.136" transform="matrix(0.7071 -0.7071 0.7071 0.7071 -2.935 7.0857)" style="fill:#333333;" width="1.5" height="5.899"/>
<path style="fill:#333333;" d="M1.482,14.234C1.328,13.503,1.25,12.752,1.25,12c0-0.751,0.078-1.503,0.232-2.233l1.468,0.31
	c-0.133,0.629-0.2,1.276-0.2,1.924c0,0.647,0.067,1.295,0.2,1.924L1.482,14.234z"/>
<path style="fill:#333333;" d="M12,16.75c-2.619,0-4.75-2.131-4.75-4.75S9.381,7.25,12,7.25s4.75,2.131,4.75,4.75
	S14.619,16.75,12,16.75z M12,8.75c-1.792,0-3.25,1.458-3.25,3.25s1.458,3.25,3.25,3.25s3.25-1.458,3.25-3.25S13.792,8.75,12,8.75z"
	/>
</svg>






