<?xml version="1.0" encoding="iso-8859-1"?>
<svg version="1.1" id="&#x56FE;&#x5C42;_1" xmlns="http://www.w3.org/2000/svg" xmlns:xlink="http://www.w3.org/1999/xlink" x="0px"
	 y="0px" viewBox="0 0 24 24" style="enable-background:new 0 0 24 24;" xml:space="preserve">
<g>
	<defs>
		<rect id="SVGID_1_" width="24" height="24"/>
	</defs>
	<clipPath id="SVGID_00000038371460692355876390000008666043061109514162_">
		<use xlink:href="#SVGID_1_"  style="overflow:visible;"/>
	</clipPath>
	<g style="clip-path:url(#SVGID_00000038371460692355876390000008666043061109514162_);">
		<path style="fill:#333333;" d="M11.622,17.548l-4.669-4.67L18.869,2.45c0.604-0.605,1.978-1.134,3.146,0.034
			c1.167,1.167,0.64,2.543,0,3.182L11.622,17.548z M9.146,12.95l2.402,2.402l9.372-10.71c0.267-0.281,0.461-0.67,0.034-1.098
			c-0.479-0.48-0.901-0.158-1.061,0L9.146,12.95z"/>
		
			<rect x="11.896" y="9.854" transform="matrix(0.707 -0.7072 0.7072 0.707 -4.6777 12.4156)" style="fill:#333333;" width="1.5" height="4"/>
		<path style="fill:#333333;" d="M8.691,22.524c-0.931,0-2.932-0.233-4.707-2.009c-2.36-2.359-1.997-5.117-1.98-5.233l0.058-0.401
			l6.147-2.868l4.279,4.278l-2.869,6.147l-0.402,0.057C9.188,22.499,8.998,22.524,8.691,22.524z M3.473,15.877
			c0.009,0.697,0.204,2.21,1.572,3.578c1.368,1.368,2.881,1.563,3.577,1.571l2.062-4.417l-2.792-2.794L3.473,15.877z"/>
		
			<rect x="3.345" y="16.937" transform="matrix(0.9192 -0.3938 0.3938 0.9192 -6.5869 3.2772)" style="fill:#333333;" width="2.692" height="1.5"/>
		
			<rect x="5.846" y="19.589" transform="matrix(0.4467 -0.8947 0.8947 0.4467 -14.5251 17.191)" style="fill:#333333;" width="1.581" height="1.5"/>
		
			<rect x="8.999" y="9.689" transform="matrix(0.7527 -0.6583 0.6583 0.7527 -4.1825 9.7429)" style="fill:#333333;" width="3.759" height="1.5"/>
		
			<rect x="12.182" y="12.871" transform="matrix(0.6587 -0.7524 0.7524 0.6587 -5.4498 15.2284)" style="fill:#333333;" width="3.758" height="1.5"/>
	</g>
</g>
</svg>






