<?xml version="1.0" encoding="iso-8859-1"?>
<svg version="1.1" id="&#x56FE;&#x5C42;_1" xmlns="http://www.w3.org/2000/svg" xmlns:xlink="http://www.w3.org/1999/xlink" x="0px"
	 y="0px" viewBox="0 0 24 24" style="enable-background:new 0 0 24 24;" xml:space="preserve">
<path style="fill:#333333;" d="M22.75,18.75H1.25V5.25h21.5V18.75z M12.75,17.25h8.5V6.75h-8.5V10h-1.5V6.75h-8.5v10.5h8.5V14h1.5
	V17.25z"/>
<path style="fill:#333333;" d="M12,14.75c-1.517,0-2.75-1.233-2.75-2.75S10.483,9.25,12,9.25s2.75,1.233,2.75,2.75
	S13.517,14.75,12,14.75z M12,10.75c-0.689,0-1.25,0.561-1.25,1.25s0.561,1.25,1.25,1.25s1.25-0.561,1.25-1.25S12.689,10.75,12,10.75
	z"/>
<path style="fill:#333333;" d="M3.5,14.75H1.25v-5.5H3.5c1.517,0,2.75,1.233,2.75,2.75S5.017,14.75,3.5,14.75z M2.75,13.25H3.5
	c0.689,0,1.25-0.561,1.25-1.25s-0.561-1.25-1.25-1.25H2.75V13.25z"/>
<path style="fill:#333333;" d="M22.75,14.75H20.5c-1.517,0-2.75-1.233-2.75-2.75s1.233-2.75,2.75-2.75h2.25V14.75z M20.5,10.75
	c-0.689,0-1.25,0.561-1.25,1.25s0.561,1.25,1.25,1.25h0.75v-2.5H20.5z"/>
</svg>






