<?xml version="1.0" encoding="iso-8859-1"?>
<svg version="1.1" id="&#x56FE;&#x5C42;_1" xmlns="http://www.w3.org/2000/svg" xmlns:xlink="http://www.w3.org/1999/xlink" x="0px"
	 y="0px" viewBox="0 0 24 24" style="enable-background:new 0 0 24 24;" xml:space="preserve">
<path style="fill:#333333;" d="M19,20.75H5c-0.965,0-1.75-0.785-1.75-1.75V5c0-0.965,0.785-1.75,1.75-1.75h14
	c0.965,0,1.75,0.785,1.75,1.75v14C20.75,19.965,19.965,20.75,19,20.75z M5,4.75C4.862,4.75,4.75,4.862,4.75,5v14
	c0,0.138,0.112,0.25,0.25,0.25h14c0.138,0,0.25-0.112,0.25-0.25V5c0-0.138-0.112-0.25-0.25-0.25H5z"/>
<path style="fill:#333333;" d="M15.75,15.75h-7.5v-7.5h7.5V15.75z M9.75,14.25h4.5v-4.5h-4.5V14.25z"/>
<path style="fill:none;" d="M7.455,1v3V1z"/>
<rect x="6.705" y="1" style="fill:#333333;" width="1.5" height="3"/>
<path style="fill:none;" d="M7.455,20v3V20z"/>
<rect x="6.705" y="20" style="fill:#333333;" width="1.5" height="3"/>
<path style="fill:none;" d="M12,1v3V1z"/>
<rect x="11.25" y="1" style="fill:#333333;" width="1.5" height="3"/>
<path style="fill:none;" d="M12,20v3V20z"/>
<rect x="11.25" y="20" style="fill:#333333;" width="1.5" height="3"/>
<path style="fill:none;" d="M16.545,1v3V1z"/>
<rect x="15.795" y="1" style="fill:#333333;" width="1.5" height="3"/>
<path style="fill:none;" d="M16.545,20v3V20z"/>
<rect x="15.795" y="20" style="fill:#333333;" width="1.5" height="3"/>
<path style="fill:none;" d="M1,7.455h3H1z"/>
<rect x="1" y="6.705" style="fill:#333333;" width="3" height="1.5"/>
<path style="fill:none;" d="M20,7.455h3H20z"/>
<rect x="20" y="6.705" style="fill:#333333;" width="3" height="1.5"/>
<path style="fill:none;" d="M1,12h3H1z"/>
<rect x="1" y="11.25" style="fill:#333333;" width="3" height="1.5"/>
<path style="fill:none;" d="M20,12h3H20z"/>
<rect x="20" y="11.25" style="fill:#333333;" width="3" height="1.5"/>
<path style="fill:none;" d="M1,16.545h3H1z"/>
<rect x="1" y="15.795" style="fill:#333333;" width="3" height="1.5"/>
<path style="fill:none;" d="M20,16.545h3H20z"/>
<rect x="20" y="15.795" style="fill:#333333;" width="3" height="1.5"/>
</svg>






