<?xml version="1.0" encoding="iso-8859-1"?>
<svg version="1.1" id="&#x56FE;&#x5C42;_1" xmlns="http://www.w3.org/2000/svg" xmlns:xlink="http://www.w3.org/1999/xlink" x="0px"
	 y="0px" viewBox="0 0 24 24" style="enable-background:new 0 0 24 24;" xml:space="preserve">
<path style="fill:#333333;" d="M2.5,9.25H1.75V8.5c0-2.997,0.726-5.024,2.157-6.027c1.211-0.848,2.842-0.908,4.85-0.178l0.375,0.136
	l0.097,0.387c0.317,1.269-0.071,2.806-1.012,4.012C7.354,7.934,5.663,9.25,2.5,9.25z M6.227,3.29c-0.579,0-1.067,0.137-1.459,0.412
	c-0.883,0.619-1.396,2-1.499,4.016c2.06-0.177,3.177-1.059,3.765-1.811C7.648,5.12,7.867,4.229,7.829,3.565
	C7.235,3.381,6.701,3.29,6.227,3.29z"/>
<path style="fill:#333333;" d="M22.25,9.25H21.5c-3.162,0-4.854-1.315-5.716-2.419c-0.941-1.206-1.329-2.743-1.012-4.012
	l0.097-0.387l0.375-0.136c2.006-0.73,3.637-0.671,4.849,0.178c1.432,1.002,2.157,3.03,2.157,6.027V9.25z M16.172,3.565
	c-0.038,0.664,0.18,1.555,0.795,2.343c0.587,0.751,1.704,1.633,3.764,1.81c-0.103-2.017-0.615-3.397-1.498-4.016
	C18.519,3.202,17.489,3.157,16.172,3.565z"/>
<path style="fill:#333333;" d="M15,21.75H9c-3.17,0-5.75-2.579-5.75-5.75S5.83,10.25,9,10.25h6c3.171,0,5.75,2.579,5.75,5.75
	S18.171,21.75,15,21.75z M9,11.75c-2.343,0-4.25,1.906-4.25,4.25S6.657,20.25,9,20.25h6c2.344,0,4.25-1.906,4.25-4.25
	s-1.906-4.25-4.25-4.25H9z"/>
<rect x="12.75" y="9" style="fill:#333333;" width="1.5" height="2"/>
<rect x="9.75" y="9" style="fill:#333333;" width="1.5" height="2"/>
<path style="fill:#333333;" d="M20.45,15.1l-0.9-1.199c1.615-1.212,1.694-3.797,1.238-5.163l1.424-0.475
	C22.78,9.969,22.805,13.334,20.45,15.1z"/>
<path style="fill:#333333;" d="M3.4,14.95c-1.565-2.088-2.228-4.837-1.611-6.688l1.423,0.475C2.824,9.899,3.179,12.155,4.6,14.05
	L3.4,14.95z"/>
<polygon style="fill:#333333;" points="23.154,21.75 15,21.75 15,20.25 20.846,20.25 19.314,16.805 20.686,16.195 "/>
<polygon style="fill:#333333;" points="9,21.75 0.846,21.75 3.314,16.195 4.686,16.805 3.154,20.25 9,20.25 "/>
</svg>






