<?xml version="1.0" encoding="iso-8859-1"?>
<svg version="1.1" id="&#x56FE;&#x5C42;_1" xmlns="http://www.w3.org/2000/svg" xmlns:xlink="http://www.w3.org/1999/xlink" x="0px"
	 y="0px" viewBox="0 0 24 24" style="enable-background:new 0 0 24 24;" xml:space="preserve">
<polygon style="fill:#333333;" points="19.75,7.5 18.25,7.5 18.25,4.25 5.75,4.25 5.75,7.5 4.25,7.5 4.25,2.75 19.75,2.75 "/>
<polygon style="fill:#333333;" points="21.5,21.25 1.75,21.25 1.75,6.75 22.25,6.75 22.25,13.5 20.75,13.5 20.75,8.25 3.25,8.25 
	3.25,19.75 21.5,19.75 "/>
<polygon style="fill:#333333;" points="21.5,17.75 12,17.75 11.39,16.564 13.89,13.064 15.11,13.936 13.457,16.25 21.5,16.25 "/>
<rect x="11" y="9.75" style="fill:#333333;" width="2" height="1.5"/>
<rect x="6" y="9.75" style="fill:#333333;" width="2" height="1.5"/>
</svg>






