<?xml version="1.0" encoding="iso-8859-1"?>
<svg version="1.1" id="&#x56FE;&#x5C42;_1" xmlns="http://www.w3.org/2000/svg" xmlns:xlink="http://www.w3.org/1999/xlink" x="0px"
	 y="0px" viewBox="0 0 24 24" style="enable-background:new 0 0 24 24;" xml:space="preserve">
<g>
	<defs>
		<rect id="SVGID_1_" width="24" height="24"/>
	</defs>
	<clipPath id="SVGID_00000031914731465525510040000003405772607363634110_">
		<use xlink:href="#SVGID_1_"  style="overflow:visible;"/>
	</clipPath>
	<g style="clip-path:url(#SVGID_00000031914731465525510040000003405772607363634110_);">
		<path style="fill:#333333;" d="M6.31,22.012c-0.297,0-0.587-0.082-0.855-0.242c-0.825-0.495-1.44-1.419-1.938-2.908
			c-0.781-2.343-0.768-4.288-0.767-4.37l1.5,0.017c0,0.018-0.007,1.788,0.689,3.879c0.372,1.114,0.792,1.801,1.286,2.096
			c0.056,0.035,0.086,0.035,0.134,0.021c0.227-0.059,0.631-0.418,1.021-1.09c0.42-0.723,1.039-1.536,1.838-2.418l1.111,1.008
			c-0.719,0.793-1.291,1.541-1.652,2.163c-0.401,0.69-1.063,1.562-1.943,1.79C6.592,21.993,6.45,22.012,6.31,22.012z"/>
		<path style="fill:#333333;" d="M18.963,10.046l-1.027-1.093c0.798-0.751,1.532-1.315,2.182-1.677
			c0.667-0.371,0.72-0.576,0.721-0.578c-0.206-0.504-0.753-1.04-1.338-1.308c-0.179-0.082-0.839-0.313-3.124-0.696l0.248-1.479
			c2.728,0.457,3.31,0.724,3.501,0.812c0.934,0.428,1.758,1.255,2.1,2.108c0.252,0.627,0.218,1.562-1.377,2.451
			C20.313,8.885,19.661,9.389,18.963,10.046z"/>
		<path style="fill:#333333;" d="M8.962,18.042c-0.289,0-0.583-0.057-0.865-0.177l-3.987-1.685
			c-1.115-0.472-1.648-1.727-1.213-2.856l0.226-0.585c0.496-1.287,1.418-2.393,2.596-3.113l0.782,1.28
			c-0.898,0.548-1.601,1.391-1.979,2.373l-0.226,0.585c-0.142,0.369,0.032,0.78,0.398,0.936l3.987,1.685
			c0.37,0.156,0.803-0.019,0.962-0.388c0.166-0.386,0.435-0.717,0.779-0.956l1.25-0.869l0.856,1.232l-1.25,0.869
			c-0.114,0.078-0.203,0.188-0.257,0.314C10.659,17.533,9.831,18.042,8.962,18.042z"/>
		<path style="fill:#333333;" d="M15.911,12.763l-1.102-1.018l1.15-1.246c0.232-0.25,0.507-0.444,0.817-0.578
			c0.438-0.188,0.655-0.685,0.496-1.132l-1.427-4.006c-0.109-0.31-0.434-0.484-0.756-0.415l-0.609,0.139
			c-1.146,0.262-2.143,0.941-2.805,1.914l-1.239-0.845c0.876-1.286,2.194-2.185,3.71-2.531l0.609-0.139
			c1.064-0.245,2.138,0.348,2.503,1.373l1.427,4.006c0.424,1.191-0.154,2.515-1.317,3.014c-0.117,0.05-0.221,0.124-0.309,0.218
			L15.911,12.763z"/>
		<path style="fill:#333333;" d="M11.888,15.533c-0.555,0-1.113-0.166-1.594-0.51L6.27,12.149C5.132,11.337,4.821,9.771,5.56,8.583
			c0.833-1.338,1.98-2.482,3.319-3.309c1.175-0.724,2.686-0.439,3.512,0.665l2.966,3.954c0.452,0.603,0.635,1.344,0.515,2.088
			c-0.119,0.743-0.525,1.389-1.143,1.818l-0.119,0.083c-0.095,0.066-0.18,0.145-0.254,0.235l-0.341,0.414
			C13.477,15.188,12.687,15.533,11.888,15.533z M10.274,6.376c-0.208,0-0.417,0.057-0.606,0.173
			C8.524,7.255,7.544,8.233,6.833,9.375c-0.322,0.518-0.187,1.2,0.308,1.553l4.023,2.874c0.534,0.381,1.275,0.282,1.691-0.224
			l0.343-0.417c0.163-0.197,0.349-0.368,0.554-0.511l0.118-0.082c0.281-0.196,0.466-0.49,0.521-0.828
			c0.055-0.338-0.028-0.675-0.234-0.949l-2.966-3.954C10.966,6.537,10.624,6.376,10.274,6.376z"/>
	</g>
</g>
</svg>






