<?xml version="1.0" encoding="iso-8859-1"?>
<svg version="1.1" id="&#x56FE;&#x5C42;_1" xmlns="http://www.w3.org/2000/svg" xmlns:xlink="http://www.w3.org/1999/xlink" x="0px"
	 y="0px" viewBox="0 0 24 24" style="enable-background:new 0 0 24 24;" xml:space="preserve">
<path style="fill:#333333;" d="M12,6.75c-1.517,0-2.75-1.233-2.75-2.75S10.483,1.25,12,1.25S14.75,2.483,14.75,4
	S13.517,6.75,12,6.75z M12,2.75c-0.689,0-1.25,0.561-1.25,1.25S11.311,5.25,12,5.25S13.25,4.689,13.25,4S12.689,2.75,12,2.75z"/>
<path style="fill:#333333;" d="M12,22.75c-1.517,0-2.75-1.233-2.75-2.75s1.233-2.75,2.75-2.75s2.75,1.233,2.75,2.75
	S13.517,22.75,12,22.75z M12,18.75c-0.689,0-1.25,0.561-1.25,1.25s0.561,1.25,1.25,1.25s1.25-0.561,1.25-1.25S12.689,18.75,12,18.75
	z"/>
<path style="fill:#333333;" d="M4,14.75c-1.517,0-2.75-1.233-2.75-2.75S2.483,9.25,4,9.25S6.75,10.483,6.75,12S5.517,14.75,4,14.75z
	 M4,10.75c-0.689,0-1.25,0.561-1.25,1.25S3.311,13.25,4,13.25S5.25,12.689,5.25,12S4.689,10.75,4,10.75z"/>
<path style="fill:#333333;" d="M20,14.75c-1.517,0-2.75-1.233-2.75-2.75S18.483,9.25,20,9.25s2.75,1.233,2.75,2.75
	S21.517,14.75,20,14.75z M20,10.75c-0.689,0-1.25,0.561-1.25,1.25s0.561,1.25,1.25,1.25s1.25-0.561,1.25-1.25S20.689,10.75,20,10.75
	z"/>
<rect x="6" y="11.25" style="fill:#333333;" width="12" height="1.5"/>
<rect x="11.25" y="6" style="fill:#333333;" width="1.5" height="12"/>
<path style="fill:#333333;" d="M16.861,19.275l-0.947-1.153l2.208-2.208l1.153,0.947c-0.316,0.474-0.683,0.92-1.087,1.325
	C17.781,18.593,17.335,18.959,16.861,19.275z M7.138,19.275c-0.474-0.317-0.92-0.684-1.324-1.088
	c-0.404-0.403-0.77-0.85-1.089-1.326l1.153-0.947l2.208,2.208L7.138,19.275z M5.877,8.085L4.724,7.137
	c0.32-0.477,0.687-0.922,1.089-1.325c0.401-0.402,0.847-0.768,1.324-1.088l0.948,1.153L5.877,8.085z M18.029,7.973
	c-0.264-0.394-0.567-0.764-0.902-1.1c-0.335-0.334-0.704-0.638-1.1-0.903l0.834-1.246c0.477,0.319,0.923,0.686,1.326,1.089
	c0.404,0.405,0.771,0.851,1.088,1.325L18.029,7.973z"/>
</svg>






