<?xml version="1.0" encoding="iso-8859-1"?>
<svg version="1.1" id="&#x56FE;&#x5C42;_1" xmlns="http://www.w3.org/2000/svg" xmlns:xlink="http://www.w3.org/1999/xlink" x="0px"
	 y="0px" viewBox="0 0 24 24" style="enable-background:new 0 0 24 24;" xml:space="preserve">
<path style="fill:#333333;" d="M14,22.25h-4c-0.965,0-1.75-0.785-1.75-1.75v-4.75H3.5c-0.965,0-1.75-0.785-1.75-1.75v-4
	c0-0.965,0.785-1.75,1.75-1.75h4.75V3.5c0-0.965,0.785-1.75,1.75-1.75h4c0.965,0,1.75,0.785,1.75,1.75v4.75h4.75
	c0.965,0,1.75,0.785,1.75,1.75v4c0,0.965-0.785,1.75-1.75,1.75h-4.75v4.75C15.75,21.465,14.965,22.25,14,22.25z M3.5,9.75
	c-0.138,0-0.25,0.112-0.25,0.25v4c0,0.138,0.112,0.25,0.25,0.25h6.25v6.25c0,0.138,0.112,0.25,0.25,0.25h4
	c0.138,0,0.25-0.112,0.25-0.25v-6.25h6.25c0.138,0,0.25-0.112,0.25-0.25v-4c0-0.138-0.112-0.25-0.25-0.25h-6.25V3.5
	c0-0.138-0.112-0.25-0.25-0.25h-4c-0.138,0-0.25,0.112-0.25,0.25v6.25H3.5z"/>
</svg>






