<?xml version="1.0" encoding="iso-8859-1"?>
<svg version="1.1" id="&#x56FE;&#x5C42;_1" xmlns="http://www.w3.org/2000/svg" xmlns:xlink="http://www.w3.org/1999/xlink" x="0px"
	 y="0px" viewBox="0 0 24 24" style="enable-background:new 0 0 24 24;" xml:space="preserve">
<path style="fill:#333333;" d="M17.909,15.75c-2.998,0-4.537-1.885-6.32-4.067l-0.341-0.418C9.581,9.224,8.376,7.75,6.091,7.75
	C4.704,7.75,2.75,8.758,2.75,11c0,2.241,1.954,3.25,3.341,3.25c1.513,0,2.254-0.725,3.112-1.563l1.049,1.072
	c-0.955,0.934-2.036,1.991-4.161,1.991c-2.379,0-4.841-1.776-4.841-4.75c0-2.973,2.461-4.75,4.841-4.75
	c2.997,0,4.536,1.884,6.318,4.066l0.342,0.418c1.667,2.042,2.872,3.516,5.158,3.516c1.388,0,3.341-1.009,3.341-3.25
	c0-2.242-1.953-3.25-3.341-3.25c-1.511,0-2.715,1.176-3.111,1.562l-1.05-1.071c0.506-0.494,2.04-1.991,4.161-1.991
	c2.38,0,4.841,1.777,4.841,4.75C22.75,13.974,20.289,15.75,17.909,15.75z"/>
</svg>






