<?xml version="1.0" encoding="iso-8859-1"?>
<svg version="1.1" id="&#x56FE;&#x5C42;_1" xmlns="http://www.w3.org/2000/svg" xmlns:xlink="http://www.w3.org/1999/xlink" x="0px"
	 y="0px" viewBox="0 0 24 24" style="enable-background:new 0 0 24 24;" xml:space="preserve">
<path style="fill:#333333;" d="M18.065,21.75H5.934L2.779,10.706l1.057-0.877l4.329,2.165l3.165-6.329h1.342l3.164,6.329l4.33-2.165
	l1.056,0.877L18.065,21.75z M7.066,20.25h9.869l2.376-8.317l-4.146,2.073L12,7.677l-3.165,6.329l-4.146-2.073L7.066,20.25z"/>
<path style="fill:#333333;" d="M3.5,11.25c-1.241,0-2.25-1.009-2.25-2.25S2.259,6.75,3.5,6.75S5.75,7.759,5.75,9
	S4.741,11.25,3.5,11.25z M3.5,8.25C3.086,8.25,2.75,8.586,2.75,9S3.086,9.75,3.5,9.75S4.25,9.414,4.25,9S3.914,8.25,3.5,8.25z"/>
<path style="fill:#333333;" d="M12,6.75c-1.241,0-2.25-1.009-2.25-2.25S10.759,2.25,12,2.25c1.24,0,2.25,1.009,2.25,2.25
	S13.24,6.75,12,6.75z M12,3.75c-0.414,0-0.75,0.336-0.75,0.75S11.586,5.25,12,5.25c0.413,0,0.75-0.336,0.75-0.75
	S12.413,3.75,12,3.75z"/>
<path style="fill:#333333;" d="M20.5,11.25c-1.24,0-2.25-1.009-2.25-2.25s1.01-2.25,2.25-2.25S22.75,7.759,22.75,9
	S21.74,11.25,20.5,11.25z M20.5,8.25c-0.413,0-0.75,0.336-0.75,0.75s0.337,0.75,0.75,0.75S21.25,9.414,21.25,9
	S20.913,8.25,20.5,8.25z"/>
</svg>






