<?xml version="1.0" encoding="iso-8859-1"?>
<svg version="1.1" id="&#x56FE;&#x5C42;_1" xmlns="http://www.w3.org/2000/svg" xmlns:xlink="http://www.w3.org/1999/xlink" x="0px"
	 y="0px" viewBox="0 0 24 24" style="enable-background:new 0 0 24 24;" xml:space="preserve">
<path style="fill:#333333;" d="M20.104,20.75H3.896L1.267,8.659l1.068-0.83l4.427,2.213L12,2.709l5.238,7.333l4.427-2.213
	l1.067,0.83L20.104,20.75z M5.104,19.25h13.791l2.039-9.378l-4.173,2.086L12,5.291l-4.762,6.667L3.065,9.872L5.104,19.25z"/>
<path style="fill:#333333;" d="M12,17.25c-1.517,0-2.75-1.233-2.75-2.75s1.233-2.75,2.75-2.75s2.75,1.233,2.75,2.75
	S13.517,17.25,12,17.25z M12,13.25c-0.689,0-1.25,0.561-1.25,1.25s0.561,1.25,1.25,1.25s1.25-0.561,1.25-1.25S12.689,13.25,12,13.25
	z"/>
</svg>






