<?xml version="1.0" encoding="iso-8859-1"?>
<svg version="1.1" id="&#x56FE;&#x5C42;_1" xmlns="http://www.w3.org/2000/svg" xmlns:xlink="http://www.w3.org/1999/xlink" x="0px"
	 y="0px" viewBox="0 0 24 24" style="enable-background:new 0 0 24 24;" xml:space="preserve">
<path style="fill:#333333;" d="M12,22.75c-5.376,0-9.75-4.374-9.75-9.75S6.624,3.25,12,3.25s9.75,4.374,9.75,9.75
	S17.376,22.75,12,22.75z M12,4.75c-4.549,0-8.25,3.701-8.25,8.25s3.701,8.25,8.25,8.25s8.25-3.701,8.25-8.25S16.549,4.75,12,4.75z"
	/>
<path style="fill:#333333;" d="M11.272,4.182C11.213,3.946,10.582,2.75,9,2.75v-1.5c2.332,0,3.519,1.73,3.728,2.568L11.272,4.182z"
	/>
<path style="fill:#333333;" d="M12.747,4.063l-1.495-0.126c0.017-0.194,0.193-1.913,1.375-2.588l0.744,1.303
	C13.025,2.849,12.786,3.598,12.747,4.063z"/>
<path style="fill:#333333;" d="M14.832,17.841C14.798,17.775,13.983,16.25,12,16.25c-1.983,0-2.798,1.525-2.832,1.591l-1.339-0.676
	C7.878,17.066,9.07,14.75,12,14.75s4.121,2.316,4.171,2.415L14.832,17.841z"/>
<rect x="14.75" y="8.229" transform="matrix(0.1644 -0.9864 0.9864 0.1644 3.3345 23.4362)" style="fill:#333333;" width="1.5" height="3.041"/>
<rect x="6.979" y="9" transform="matrix(0.9863 -0.1647 0.1647 0.9863 -1.4899 1.5333)" style="fill:#333333;" width="3.041" height="1.5"/>
<rect x="6.75" y="10" style="fill:#333333;" width="1.5" height="2.5"/>
<rect x="15.75" y="10" style="fill:#333333;" width="1.5" height="2.5"/>
<rect x="1.25" y="12" style="fill:#333333;" width="1.5" height="2"/>
<rect x="21.25" y="12" style="fill:#333333;" width="1.5" height="2"/>
</svg>






