<?xml version="1.0" encoding="iso-8859-1"?>
<svg version="1.1" id="&#x56FE;&#x5C42;_1" xmlns="http://www.w3.org/2000/svg" xmlns:xlink="http://www.w3.org/1999/xlink" x="0px"
	 y="0px" viewBox="0 0 24 24" style="enable-background:new 0 0 24 24;" xml:space="preserve">
<path style="fill:#333333;" d="M12,22.87l-9.25-5.441V6.571L12,1.13l9.25,5.441v10.858L12,22.87z M4.25,16.571L12,21.13l7.75-4.559
	V7.429L12,2.87L4.25,7.429V16.571z"/>
<rect x="11.319" y="8.75" transform="matrix(0.862 -0.5069 0.5069 0.862 -2.5731 9.5472)" style="fill:#333333;" width="9.862" height="1.5"/>
<rect x="7" y="4.569" transform="matrix(0.507 -0.8619 0.8619 0.507 -4.3678 11.3632)" style="fill:#333333;" width="1.5" height="9.861"/>
<rect x="11.25" y="12" style="fill:#333333;" width="1.5" height="10"/>
<rect x="15.25" y="9.5" style="fill:#333333;" width="1.5" height="10"/>
<rect x="11.319" y="13.75" transform="matrix(0.862 -0.5069 0.5069 0.862 -5.1075 10.2371)" style="fill:#333333;" width="9.862" height="1.5"/>
<rect x="7" y="9.569" transform="matrix(0.507 -0.8619 0.8619 0.507 -8.6775 13.8281)" style="fill:#333333;" width="1.5" height="9.861"/>
<rect x="7.25" y="9.5" style="fill:#333333;" width="1.5" height="10"/>
<rect x="7.283" y="6.25" transform="matrix(0.8481 -0.5298 0.5298 0.8481 -1.8861 7.4211)" style="fill:#333333;" width="9.434" height="1.5"/>
<rect x="11.25" y="2.283" transform="matrix(0.53 -0.848 0.848 0.53 -0.296 13.466)" style="fill:#333333;" width="1.5" height="9.434"/>
</svg>






