<?xml version="1.0" encoding="iso-8859-1"?>
<svg version="1.1" id="&#x56FE;&#x5C42;_1" xmlns="http://www.w3.org/2000/svg" xmlns:xlink="http://www.w3.org/1999/xlink" x="0px"
	 y="0px" viewBox="0 0 24 24" style="enable-background:new 0 0 24 24;" xml:space="preserve">
<path style="fill:#333333;" d="M12,22.866l-9.41-5.434V6.567L12,1.134l9.41,5.433v10.866L12,22.866z M4.09,16.567L12,21.134
	l7.91-4.566V7.433L12,2.866L4.09,7.433V16.567z"/>
<polygon style="fill:#333333;" points="16.821,15.649 12,12.866 7.179,15.649 6.429,14.351 11.25,11.567 11.25,5.5 12.75,5.5 
	12.75,11.567 17.571,14.351 "/>
<polygon style="fill:#333333;" points="12,19.366 10.218,18.337 10.968,17.038 12,17.634 13.032,17.038 13.782,18.337 "/>
<polygon style="fill:#333333;" points="18.379,10.375 16.879,10.375 16.879,9.183 15.847,8.587 16.597,7.288 18.379,8.317 "/>
<polygon style="fill:#333333;" points="7.121,10.375 5.621,10.375 5.621,8.317 7.403,7.288 8.153,8.587 7.121,9.183 "/>
</svg>






