<?xml version="1.0" encoding="iso-8859-1"?>
<svg version="1.1" id="&#x56FE;&#x5C42;_1" xmlns="http://www.w3.org/2000/svg" xmlns:xlink="http://www.w3.org/1999/xlink" x="0px"
	 y="0px" viewBox="0 0 24 24" style="enable-background:new 0 0 24 24;" xml:space="preserve">
<path style="fill:#333333;" d="M18,22.25H6c-0.965,0-1.75-0.785-1.75-1.75v-8.266c-1.224-0.067-3-0.417-3-2.234
	c0-2.25,2.725-2.25,3.75-2.25h14c1.025,0,3.75,0,3.75,2.25c0,1.817-1.776,2.167-3,2.234V20.5C19.75,21.465,18.965,22.25,18,22.25z
	 M5,9.25c-1.598,0-2.25,0.217-2.25,0.75S3.402,10.75,5,10.75h0.75v9.75c0,0.138,0.112,0.25,0.25,0.25h12
	c0.138,0,0.25-0.112,0.25-0.25v-9.75H19c1.598,0,2.25-0.217,2.25-0.75S20.598,9.25,19,9.25H5z"/>
<path style="fill:#333333;" d="M21.25,8.5h-1.5c0-2.01-1.539-2.994-5.881-3.761l-0.619-0.11V3c0-0.138-0.112-0.25-0.25-0.25h-2
	c-0.138,0-0.25,0.112-0.25,0.25v1.629l-0.62,0.11C5.789,5.506,4.25,6.49,4.25,8.5h-1.5c0-3.453,3.249-4.505,6.5-5.125V3
	c0-0.965,0.785-1.75,1.75-1.75h2c0.965,0,1.75,0.785,1.75,1.75v0.375C18.001,3.995,21.25,5.047,21.25,8.5z"/>
</svg>






