<?xml version="1.0" encoding="iso-8859-1"?>
<svg version="1.1" id="&#x56FE;&#x5C42;_1" xmlns="http://www.w3.org/2000/svg" xmlns:xlink="http://www.w3.org/1999/xlink" x="0px"
	 y="0px" viewBox="0 0 24 24" style="enable-background:new 0 0 24 24;" xml:space="preserve">
<path style="fill:#333333;" d="M14.5,16.75c-7.178,0-8.25-2.663-8.25-4.25V4.25h16.5v8.25C22.75,14.087,21.678,16.75,14.5,16.75z
	 M7.75,5.75v6.75c0,1.748,2.46,2.75,6.75,2.75c4.29,0,6.75-1.002,6.75-2.75V5.75H7.75z"/>
<path style="fill:#333333;" d="M13,13.061l-2.25-2.25V7.25h4.5v3.561L13,13.061z M12.25,10.189l0.75,0.75l0.75-0.75V8.75h-1.5
	V10.189z"/>
<rect x="12.25" y="5" style="fill:#333333;" width="1.5" height="3"/>
<rect x="7.5" y="19.25" style="fill:#333333;" width="14" height="1.5"/>
<path style="fill:#333333;" d="M5.722,12.839c-1.283,0-2.989-0.265-3.434-1.602C1.78,9.71,1.285,7.251,1.265,7.147L1.085,6.25H7v1.5
	H2.926c0.188,0.85,0.489,2.125,0.785,3.013c0.172,0.515,1.82,0.686,3.184,0.494l0.211,1.485C6.879,12.774,6.352,12.839,5.722,12.839
	z"/>
</svg>






