<?xml version="1.0" encoding="iso-8859-1"?>
<svg version="1.1" id="&#x56FE;&#x5C42;_1" xmlns="http://www.w3.org/2000/svg" xmlns:xlink="http://www.w3.org/1999/xlink" x="0px"
	 y="0px" viewBox="0 0 24 24" style="enable-background:new 0 0 24 24;" xml:space="preserve">
<path style="fill:#333333;" d="M10.667,22.53c-3.916,0-7.102-3.186-7.102-7.102V8.577c0-0.678,0.552-1.23,1.23-1.23h11.743
	c0.679,0,1.23,0.552,1.23,1.23v6.852C17.769,19.345,14.583,22.53,10.667,22.53z M5.034,8.816v6.612c0,3.105,2.526,5.633,5.632,5.633
	s5.633-2.527,5.633-5.633V8.816H5.034z"/>
<path style="fill:#333333;" d="M17.769,16.163H3.564v-5.388h14.204V16.163z M5.034,14.694H16.3v-2.449H5.034V14.694z"/>
<rect x="9.932" y="2.204" style="fill:#333333;" width="1.47" height="2.939"/>
<rect x="6.014" y="3.184" style="fill:#333333;" width="1.47" height="0.979"/>
<rect x="13.851" y="3.184" style="fill:#333333;" width="1.469" height="0.979"/>
<path style="fill:#333333;" d="M17.034,17.633v-1.469c1.485,0,2.694-1.209,2.694-2.694s-1.209-2.694-2.694-2.694v-1.47
	c2.296,0,4.163,1.868,4.163,4.164S19.33,17.633,17.034,17.633z"/>
</svg>






