<?xml version="1.0" encoding="iso-8859-1"?>
<svg version="1.1" id="&#x56FE;&#x5C42;_1" xmlns="http://www.w3.org/2000/svg" xmlns:xlink="http://www.w3.org/1999/xlink" x="0px"
	 y="0px" viewBox="0 0 24 24" style="enable-background:new 0 0 24 24;" xml:space="preserve">
<path style="fill:#333333;" d="M19,21.75H5c-2.068,0-3.75-1.683-3.75-3.75v-4c0-2.068,1.682-3.75,3.75-3.75h14
	c2.067,0,3.75,1.682,3.75,3.75v4C22.75,20.067,21.067,21.75,19,21.75z M5,11.75c-1.241,0-2.25,1.01-2.25,2.25v4
	c0,1.24,1.009,2.25,2.25,2.25h14c1.24,0,2.25-1.01,2.25-2.25v-4c0-1.24-1.01-2.25-2.25-2.25H5z"/>
<rect x="2" y="15.25" style="fill:#333333;" width="20" height="1.5"/>
<path style="fill:#333333;" d="M11,11.75H5l-0.687-1.051l3.24-7.4C7.822,2.665,8.452,2.25,9.155,2.25h8.595
	c1.379,0,2.5,1.122,2.5,2.5s-1.121,2.5-2.5,2.5h-6V11L11,11.75z M6.147,10.25h4.103V6.5L11,5.75h6.75c0.552,0,1-0.449,1-1
	s-0.448-1-1-1H9.155c-0.099,0-0.187,0.056-0.224,0.143L6.147,10.25z"/>
</svg>






