<?xml version="1.0" encoding="iso-8859-1"?>
<svg version="1.1" id="&#x56FE;&#x5C42;_1" xmlns="http://www.w3.org/2000/svg" xmlns:xlink="http://www.w3.org/1999/xlink" x="0px"
	 y="0px" viewBox="0 0 24 24" style="enable-background:new 0 0 24 24;" xml:space="preserve">
<path style="fill:#333333;" d="M3.75,10h-1.5c0-4.416,2.334-6.75,6.75-6.75v1.5C5.418,4.75,3.75,6.418,3.75,10z"/>
<path style="fill:#333333;" d="M14,21.75v-1.5c3.582,0,5.25-1.668,5.25-5.25h1.5C20.75,19.416,18.416,21.75,14,21.75z"/>
<path style="fill:#333333;" d="M21.75,11.75h-8.5V9c0-3.17,2.579-5.75,5.75-5.75h2.75V11.75z M14.75,10.25h5.5v-5.5H19
	c-2.344,0-4.25,1.907-4.25,4.25V10.25z"/>
<path style="fill:#333333;" d="M5,21.75H2.25v-8.5h8.5V16C10.75,19.171,8.17,21.75,5,21.75z M3.75,20.25H5
	c2.343,0,4.25-1.906,4.25-4.25v-1.25h-5.5V20.25z"/>
</svg>






