<?xml version="1.0" encoding="iso-8859-1"?>
<svg version="1.1" id="&#x56FE;&#x5C42;_1" xmlns="http://www.w3.org/2000/svg" xmlns:xlink="http://www.w3.org/1999/xlink" x="0px"
	 y="0px" viewBox="0 0 24 24" style="enable-background:new 0 0 24 24;" xml:space="preserve">
<polygon style="fill:#333333;" points="4.25,20.5 2.75,20.5 2.75,16.75 6.5,16.75 6.5,18.25 4.25,18.25 "/>
<polygon style="fill:#333333;" points="20.5,21.25 16.75,21.25 16.75,17.5 18.25,17.5 18.25,19.75 20.5,19.75 "/>
<polygon style="fill:#333333;" points="21.25,7.25 17.5,7.25 17.5,5.75 19.75,5.75 19.75,3.5 21.25,3.5 "/>
<polygon style="fill:#333333;" points="7.25,6.5 5.75,6.5 5.75,4.25 3.5,4.25 3.5,2.75 7.25,2.75 "/>
<path style="fill:#333333;" d="M1.37,13.611C1.291,13.083,1.25,12.54,1.25,12c0-3.624,1.808-6.981,4.837-8.979l0.826,1.252
	C4.306,5.993,2.75,8.881,2.75,12c0,0.466,0.035,0.933,0.104,1.389L1.37,13.611z"/>
<path style="fill:#333333;" d="M12,22.75c-3.624,0-6.981-1.809-8.979-4.837l1.252-0.826C5.993,19.693,8.881,21.25,12,21.25
	c0.465,0,0.933-0.035,1.389-0.104l0.223,1.484C13.081,22.71,12.539,22.75,12,22.75z"/>
<path style="fill:#333333;" d="M17.913,20.979l-0.826-1.252c2.606-1.72,4.163-4.607,4.163-7.727c0-0.465-0.035-0.932-0.104-1.389
	l1.484-0.222c0.079,0.53,0.119,1.072,0.119,1.611C22.75,15.624,20.941,18.98,17.913,20.979z"/>
<path style="fill:#333333;" d="M19.727,6.913C18.007,4.306,15.119,2.75,12,2.75c-0.466,0-0.933,0.035-1.388,0.104L10.388,1.37
	C10.917,1.291,11.46,1.25,12,1.25c3.624,0,6.98,1.808,8.979,4.837L19.727,6.913z"/>
</svg>






