<?xml version="1.0" encoding="iso-8859-1"?>
<svg version="1.1" id="&#x56FE;&#x5C42;_1" xmlns="http://www.w3.org/2000/svg" xmlns:xlink="http://www.w3.org/1999/xlink" x="0px"
	 y="0px" viewBox="0 0 24 24" style="enable-background:new 0 0 24 24;" xml:space="preserve">
<polygon style="fill:#333333;" points="12,10.561 9.47,8.03 10.53,6.97 12,8.439 13.47,6.97 14.53,8.03 "/>
<path style="fill:#333333;" d="M22.75,9.5h-1.5V4c0-0.689-0.561-1.25-1.25-1.25h-6c-0.689,0-1.25,0.561-1.25,1.25v5.5h-1.5V4
	c0-1.517,1.233-2.75,2.75-2.75h6c1.517,0,2.75,1.233,2.75,2.75V9.5z"/>
<polygon style="fill:#333333;" points="13.47,17.03 12,15.561 10.53,17.03 9.47,15.97 12,13.439 14.53,15.97 "/>
<path style="fill:#333333;" d="M10,22.75H4c-1.517,0-2.75-1.233-2.75-2.75v-5.5h1.5V20c0,0.689,0.561,1.25,1.25,1.25h6
	c0.689,0,1.25-0.561,1.25-1.25v-5.5h1.5V20C12.75,21.517,11.517,22.75,10,22.75z"/>
<polygon style="fill:#333333;" points="15.97,14.53 13.439,12 15.97,9.47 17.03,10.53 15.561,12 17.03,13.47 "/>
<path style="fill:#333333;" d="M20,22.75h-5.5v-1.5H20c0.689,0,1.25-0.561,1.25-1.25v-6c0-0.689-0.561-1.25-1.25-1.25h-5.5v-1.5H20
	c1.517,0,2.75,1.233,2.75,2.75v6C22.75,21.517,21.517,22.75,20,22.75z"/>
<polygon style="fill:#333333;" points="8.03,14.53 6.97,13.47 8.439,12 6.97,10.53 8.03,9.47 10.561,12 "/>
<path style="fill:#333333;" d="M9.5,12.75H4c-1.517,0-2.75-1.233-2.75-2.75V4c0-1.517,1.233-2.75,2.75-2.75h5.5v1.5H4
	C3.311,2.75,2.75,3.311,2.75,4v6c0,0.689,0.561,1.25,1.25,1.25h5.5V12.75z"/>
</svg>






