<?xml version="1.0" encoding="iso-8859-1"?>
<svg version="1.1" id="&#x56FE;&#x5C42;_1" xmlns="http://www.w3.org/2000/svg" xmlns:xlink="http://www.w3.org/1999/xlink" x="0px"
	 y="0px" viewBox="0 0 24 24" style="enable-background:new 0 0 24 24;" xml:space="preserve">
<path style="fill:#333333;" d="M17.5,17.75h-2v-1.5h2c2.067,0,3.75-1.683,3.75-3.75c0-2.068-1.683-3.75-3.75-3.75
	c-1.002,0-1.944,0.391-2.653,1.1c-0.618,0.62-1.808,2.414-2.214,3.053c-0.062,0.1-1.562,2.456-2.431,3.321
	C9.21,17.208,7.896,17.75,6.5,17.75c-2.895,0-5.25-2.355-5.25-5.25c0-2.895,2.355-5.25,5.25-5.25h2v1.5h-2
	c-2.068,0-3.75,1.682-3.75,3.75c0,2.067,1.682,3.75,3.75,3.75c0.997,0,1.936-0.388,2.644-1.091c0.623-0.619,1.816-2.42,2.223-3.061
	c0.063-0.1,1.557-2.446,2.419-3.309c0.991-0.993,2.311-1.54,3.714-1.54c2.895,0,5.25,2.355,5.25,5.25
	C22.75,15.395,20.395,17.75,17.5,17.75z"/>
<polygon style="fill:#333333;" points="16.97,19.53 14.439,17 16.97,14.47 18.03,15.53 16.561,17 18.03,18.47 "/>
<polygon style="fill:#333333;" points="7.03,10.53 5.97,9.47 7.439,8 5.97,6.53 7.03,5.47 9.561,8 "/>
</svg>






