<?xml version="1.0" encoding="iso-8859-1"?>
<svg version="1.1" id="&#x56FE;&#x5C42;_1" xmlns="http://www.w3.org/2000/svg" xmlns:xlink="http://www.w3.org/1999/xlink" x="0px"
	 y="0px" viewBox="0 0 24 24" style="enable-background:new 0 0 24 24;" xml:space="preserve">
<path style="fill:#333333;" d="M12,8.75C6.822,8.75,1.25,7.577,1.25,5S6.822,1.25,12,1.25S22.75,2.423,22.75,5S17.178,8.75,12,8.75z
	 M12,2.75C5.897,2.75,2.75,4.327,2.75,5S5.897,7.25,12,7.25c6.103,0,9.25-1.577,9.25-2.25S18.103,2.75,12,2.75z"/>
<path style="fill:#333333;" d="M12,22.75c-5.178,0-10.75-1.174-10.75-3.75S6.822,15.25,12,15.25S22.75,16.424,22.75,19
	S17.178,22.75,12,22.75z M12,16.75c-6.103,0-9.25,1.577-9.25,2.25s3.147,2.25,9.25,2.25c6.103,0,9.25-1.577,9.25-2.25
	S18.103,16.75,12,16.75z"/>
<rect x="21.25" y="5" style="fill:#333333;" width="1.5" height="14"/>
<rect x="1.25" y="5" style="fill:#333333;" width="1.5" height="14"/>
</svg>






