<?xml version="1.0" encoding="iso-8859-1"?>
<svg version="1.1" id="&#x56FE;&#x5C42;_1" xmlns="http://www.w3.org/2000/svg" xmlns:xlink="http://www.w3.org/1999/xlink" x="0px"
	 y="0px" viewBox="0 0 24 24" style="enable-background:new 0 0 24 24;" xml:space="preserve">
<path style="fill:#333333;" d="M9.982,20.75H3.5c-0.965,0-1.75-0.785-1.75-1.75V5c0-0.965,0.785-1.75,1.75-1.75H15l0.644,1.136
	l-1.256,2.093l1.208,1.812l-4.277,2.138l0.516,3.612l-3.417,0.977L9.982,20.75z M3.5,4.75C3.362,4.75,3.25,4.862,3.25,5v14
	c0,0.138,0.112,0.25,0.25,0.25h4.518l-1.437-5.268l3.583-1.023L9.681,9.571l3.723-1.862l-0.792-1.188l1.063-1.771H3.5z"/>
<path style="fill:#333333;" d="M20.5,20.75h-9.066l-1.361-4.765l3.603-1.03l-0.489-3.915l4.234-1.881l-1.309-2.18l2.486-3.729H20.5
	c0.965,0,1.75,0.785,1.75,1.75v14C22.25,19.965,21.465,20.75,20.5,20.75z M12.565,19.25H20.5c0.138,0,0.25-0.112,0.25-0.25V5
	c0-0.138-0.112-0.25-0.25-0.25h-1.099l-1.514,2.271l1.691,2.82l-4.766,2.119l0.511,4.085l-3.397,0.97L12.565,19.25z"/>
<path style="fill:#333333;" d="M7.25,9.75c-0.827,0-1.5-0.673-1.5-1.5s0.673-1.5,1.5-1.5s1.5,0.673,1.5,1.5S8.077,9.75,7.25,9.75z
	 M7.251,8.25c0,0-0.001,0-0.001,0l0,0.75L7.251,8.25z"/>
</svg>






