<?xml version="1.0" encoding="iso-8859-1"?>
<svg version="1.1" id="&#x56FE;&#x5C42;_1" xmlns="http://www.w3.org/2000/svg" xmlns:xlink="http://www.w3.org/1999/xlink" x="0px"
	 y="0px" viewBox="0 0 24 24" style="enable-background:new 0 0 24 24;" xml:space="preserve">
<path style="fill:#333333;" d="M12.002,23.061l-2.949-2.945H3.885v-5.168l-2.946-2.949l2.946-2.945V3.885h5.167l2.949-2.946
	l2.945,2.946h5.168v5.167l2.945,2.945l-2.945,2.949v5.168h-5.168L12.002,23.061z M5.385,18.615h4.289l2.328,2.324l2.324-2.324h4.289
	v-4.289l2.324-2.327l-2.324-2.325V5.385h-4.289l-2.324-2.325L9.674,5.385H5.385v4.289l-2.325,2.325l2.325,2.327V18.615z"/>
<path style="fill:#333333;" d="M12.039,16.581c-0.728,0-1.455-0.172-2.137-0.52C8.595,15.396,7.75,14.194,7.75,13v-0.75H8.5
	c2.692,0,4.25-0.614,4.25-3.75V7.75h0.75c1.211,0,2.378,1.086,2.904,2.703c0.653,2.009,0.079,4.033-1.463,5.154
	C14.053,16.252,13.046,16.581,12.039,16.581z M9.468,13.726c0.229,0.388,0.621,0.748,1.114,1c1.111,0.564,2.413,0.442,3.476-0.332
	c1.223-0.889,1.276-2.379,0.919-3.477c-0.182-0.557-0.475-1.034-0.794-1.333C13.741,13.003,11.179,13.616,9.468,13.726z"/>
</svg>






