<?xml version="1.0" encoding="iso-8859-1"?>
<svg version="1.1" id="&#x56FE;&#x5C42;_1" xmlns="http://www.w3.org/2000/svg" xmlns:xlink="http://www.w3.org/1999/xlink" x="0px"
	 y="0px" viewBox="0 0 24 24" style="enable-background:new 0 0 24 24;" xml:space="preserve">
<path style="fill:#333333;" d="M19.806,21.061H4.467l-0.218-0.236c-1.68-1.821-2.644-4.502-2.644-7.354
	c0-5.807,4.724-10.531,10.53-10.531c5.807,0,10.53,4.725,10.53,10.531c0,2.853-0.963,5.533-2.643,7.354L19.806,21.061z
	 M5.121,19.592h14.031c1.304-1.547,2.046-3.758,2.046-6.122c0-4.997-4.065-9.062-9.062-9.062S3.075,8.473,3.075,13.47
	C3.075,15.834,3.817,18.045,5.121,19.592z"/>
<path style="fill:#333333;" d="M12.136,17.633c-1.485,0-2.694-1.209-2.694-2.694s1.208-2.693,2.694-2.693s2.694,1.208,2.694,2.693
	S13.621,17.633,12.136,17.633z M12.136,13.714c-0.675,0-1.224,0.55-1.224,1.225c0,0.676,0.549,1.226,1.224,1.226
	c0.676,0,1.226-0.55,1.226-1.226C13.361,14.264,12.812,13.714,12.136,13.714z"/>
<rect x="11.401" y="10.041" style="fill:#333333;" width="1.469" height="2.938"/>
<rect x="11.401" y="6.123" style="fill:#333333;" width="1.469" height="0.979"/>
<rect x="4.789" y="13.225" style="fill:#333333;" width="0.979" height="1.469"/>
<rect x="6.36" y="8.918" transform="matrix(0.7074 -0.7069 0.7069 0.7074 -4.5735 7.768)" style="fill:#333333;" width="1.469" height="0.98"/>
<rect x="18.503" y="13.225" style="fill:#333333;" width="0.98" height="1.469"/>
<rect x="16.891" y="8.673" transform="matrix(0.7071 -0.7071 0.7071 0.7071 -1.5615 15.0452)" style="fill:#333333;" width="0.98" height="1.469"/>
</svg>






