<?xml version="1.0" encoding="iso-8859-1"?>
<svg version="1.1" id="&#x56FE;&#x5C42;_1" xmlns="http://www.w3.org/2000/svg" xmlns:xlink="http://www.w3.org/1999/xlink" x="0px"
	 y="0px" viewBox="0 0 24 24" style="enable-background:new 0 0 24 24;" xml:space="preserve">
<path style="fill:#333333;" d="M12,22.75C6.072,22.75,1.25,17.928,1.25,12c0-2.868,1.116-5.565,3.142-7.595
	C6.423,2.371,9.125,1.25,12,1.25c2.875,0,5.577,1.121,7.608,3.155C21.634,6.435,22.75,9.132,22.75,12
	C22.75,17.928,17.928,22.75,12,22.75z M12,2.75c-2.474,0-4.798,0.964-6.546,2.715C3.71,7.211,2.75,9.532,2.75,12
	c0,5.101,4.149,9.25,9.25,9.25s9.25-4.149,9.25-9.25c0-2.467-0.96-4.788-2.704-6.535C16.799,3.714,14.474,2.75,12,2.75z"/>
<rect x="2" y="11.25" style="fill:#333333;" width="2" height="1.5"/>
<rect x="4.955" y="4.611" transform="matrix(0.7071 -0.7071 0.7071 0.7071 -2.372 5.7086)" style="fill:#333333;" width="1.5" height="2.213"/>
<rect x="11.25" y="2" style="fill:#333333;" width="1.5" height="2"/>
<rect x="20" y="11.25" style="fill:#333333;" width="2" height="1.5"/>
<rect x="17.189" y="4.968" transform="matrix(0.7071 -0.7071 0.7071 0.7071 1.3156 14.6111)" style="fill:#333333;" width="2.213" height="1.5"/>
<rect x="11.25" y="10" style="fill:#333333;" width="1.5" height="6"/>
<path style="fill:#333333;" d="M12,22.75c-3.361,0-6.466-1.529-8.521-4.194l-0.525-0.683l0.748-0.427
	c5.031-2.873,11.568-2.873,16.596,0l0.747,0.428l-0.525,0.682C18.467,21.221,15.361,22.75,12,22.75z M5.247,18.322
	C6.993,20.193,9.409,21.25,12,21.25c2.592,0,5.007-1.057,6.753-2.928C14.578,16.261,9.425,16.259,5.247,18.322z"/>
</svg>






