<?xml version="1.0" encoding="iso-8859-1"?>
<svg version="1.1" id="&#x56FE;&#x5C42;_1" xmlns="http://www.w3.org/2000/svg" xmlns:xlink="http://www.w3.org/1999/xlink" x="0px"
	 y="0px" viewBox="0 0 24 24" style="enable-background:new 0 0 24 24;" xml:space="preserve">
<path style="fill:#333333;" d="M20.309,21.309l-1.061-1.061c1.936-1.937,3.002-4.511,3.002-7.248c0-5.652-4.598-10.25-10.25-10.25
	C6.348,2.75,1.75,7.348,1.75,13c0,2.737,1.066,5.312,3.002,7.248l-1.061,1.061C1.472,19.088,0.25,16.138,0.25,13
	C0.25,6.521,5.521,1.25,12,1.25c6.479,0,11.75,5.271,11.75,11.75C23.75,16.138,22.528,19.088,20.309,21.309z"/>
<path style="fill:#333333;" d="M6.52,18.48C5.056,17.016,4.25,15.069,4.25,13c0-4.273,3.477-7.75,7.75-7.75v1.5
	c-3.446,0-6.25,2.804-6.25,6.25c0,1.669,0.65,3.238,1.831,4.42L6.52,18.48z"/>
<rect x="11.25" y="9" style="fill:#333333;" width="1.5" height="4"/>
</svg>






