<?xml version="1.0" encoding="iso-8859-1"?>
<svg version="1.1" id="&#x56FE;&#x5C42;_1" xmlns="http://www.w3.org/2000/svg" xmlns:xlink="http://www.w3.org/1999/xlink" x="0px"
	 y="0px" viewBox="0 0 24 24" style="enable-background:new 0 0 24 24;" xml:space="preserve">
<path style="fill:#333333;" d="M21.308,19.172l-1.188-0.916c1.394-1.806,2.13-3.969,2.13-6.256c0-5.652-4.598-10.25-10.25-10.25
	C6.348,1.75,1.75,6.348,1.75,12c0,2.287,0.736,4.45,2.13,6.256l-1.188,0.916C1.095,17.102,0.25,14.622,0.25,12
	C0.25,5.521,5.521,0.25,12,0.25c6.479,0,11.75,5.271,11.75,11.75C23.75,14.622,22.905,17.102,21.308,19.172z"/>
<path style="fill:#333333;" d="M5.526,16.262C4.691,14.995,4.25,13.521,4.25,12c0-4.273,3.477-7.75,7.75-7.75s7.75,3.477,7.75,7.75
	c0,1.521-0.44,2.995-1.275,4.261l-1.252-0.824c0.672-1.021,1.027-2.209,1.027-3.437c0-3.446-2.804-6.25-6.25-6.25
	S5.75,8.554,5.75,12c0,1.228,0.355,2.415,1.028,3.436L5.526,16.262z"/>
<path style="fill:#333333;" d="M20,23.75H4l-0.53-1.28l8.53-8.53l8.53,8.53L20,23.75z M5.811,22.25h12.379L12,16.061L5.811,22.25z"
	/>
</svg>






