<?xml version="1.0" encoding="iso-8859-1"?>
<svg version="1.1" id="&#x56FE;&#x5C42;_1" xmlns="http://www.w3.org/2000/svg" xmlns:xlink="http://www.w3.org/1999/xlink" x="0px"
	 y="0px" viewBox="0 0 24 24" style="enable-background:new 0 0 24 24;" xml:space="preserve">
<rect x="11.25" y="15" style="fill:#333333;" width="1.5" height="3"/>
<rect x="3" y="19.25" style="fill:#333333;" width="7" height="1.5"/>
<rect x="14" y="19.25" style="fill:#333333;" width="7" height="1.5"/>
<path style="fill:#333333;" d="M12,22.75c-1.517,0-2.75-1.233-2.75-2.75s1.233-2.75,2.75-2.75s2.75,1.233,2.75,2.75
	S13.517,22.75,12,22.75z M12,18.75c-0.689,0-1.25,0.561-1.25,1.25s0.561,1.25,1.25,1.25s1.25-0.561,1.25-1.25S12.689,18.75,12,18.75
	z"/>
<path style="fill:#333333;" d="M12,15.75c-3.998,0-7.25-3.252-7.25-7.25H5.5H4.75c0-3.998,3.252-7.25,7.25-7.25
	c3.998,0,7.25,3.252,7.25,7.25H18.5h0.75C19.25,12.498,15.998,15.75,12,15.75z M6.299,9.25c0.369,2.817,2.785,5,5.701,5
	c2.916,0,5.333-2.183,5.701-5H6.299z M6.299,7.75h11.402c-0.368-2.817-2.785-5-5.701-5C9.083,2.75,6.667,4.933,6.299,7.75z"/>
<path style="fill:#333333;" d="M12,15.75c-2.134,0-3.25-3.647-3.25-7.25c0-3.603,1.116-7.25,3.25-7.25s3.25,3.647,3.25,7.25
	C15.25,12.103,14.134,15.75,12,15.75z M12,2.75c-0.617,0-1.75,2.183-1.75,5.75c0,3.567,1.133,5.75,1.75,5.75s1.75-2.183,1.75-5.75
	C13.75,4.933,12.617,2.75,12,2.75z"/>
<rect x="5.5" y="7.75" style="fill:#333333;" width="13" height="1.5"/>
</svg>






