<?xml version="1.0" encoding="iso-8859-1"?>
<svg version="1.1" id="&#x56FE;&#x5C42;_1" xmlns="http://www.w3.org/2000/svg" xmlns:xlink="http://www.w3.org/1999/xlink" x="0px"
	 y="0px" viewBox="0 0 24 24" style="enable-background:new 0 0 24 24;" xml:space="preserve">
<path style="fill:#333333;" d="M6.5,12.75c-2.609,0-5.25-0.945-5.25-2.75V4h1.5v6c0,0.429,1.46,1.25,3.75,1.25s3.75-0.821,3.75-1.25
	V4h1.5v6C11.75,11.805,9.109,12.75,6.5,12.75z"/>
<path style="fill:#333333;" d="M6.5,9.75C3.891,9.75,1.25,8.805,1.25,7h1.5c0,0.429,1.46,1.25,3.75,1.25S10.25,7.429,10.25,7h1.5
	C11.75,8.805,9.109,9.75,6.5,9.75z"/>
<path style="fill:#333333;" d="M6.5,6.75C3.891,6.75,1.25,5.805,1.25,4c0-3.61,10.5-3.61,10.5,0C11.75,5.805,9.109,6.75,6.5,6.75z
	 M6.5,2.75C4.21,2.75,2.75,3.571,2.75,4S4.21,5.25,6.5,5.25S10.25,4.429,10.25,4S8.79,2.75,6.5,2.75z"/>
<path style="fill:#333333;" d="M21.75,8h-1.5V5c0-0.689-0.561-1.25-1.25-1.25h-3v-1.5h3c1.517,0,2.75,1.233,2.75,2.75V8z"/>
<path style="fill:#333333;" d="M8,21.75H5c-1.517,0-2.75-1.233-2.75-2.75v-3h1.5v3c0,0.689,0.561,1.25,1.25,1.25h3V21.75z"/>
<path style="fill:#333333;" d="M17.5,17.75c-1.792,0-3.25-1.458-3.25-3.25s1.458-3.25,3.25-3.25s3.25,1.458,3.25,3.25
	S19.292,17.75,17.5,17.75z M17.5,12.75c-0.965,0-1.75,0.785-1.75,1.75s0.785,1.75,1.75,1.75s1.75-0.785,1.75-1.75
	S18.465,12.75,17.5,12.75z"/>
<path style="fill:#333333;" d="M22.75,22.75h-10.5V22c0-2.895,2.355-5.25,5.25-5.25s5.25,2.355,5.25,5.25V22.75z M13.825,21.25h7.35
	c-0.349-1.71-1.864-3-3.675-3S14.174,19.54,13.825,21.25z"/>
</svg>






