<?xml version="1.0" encoding="iso-8859-1"?>
<svg version="1.1" id="&#x56FE;&#x5C42;_1" xmlns="http://www.w3.org/2000/svg" xmlns:xlink="http://www.w3.org/1999/xlink" x="0px"
	 y="0px" viewBox="0 0 24 24" style="enable-background:new 0 0 24 24;" xml:space="preserve">
<path style="fill:#333333;" d="M20.5,18.75h-17c-1.241,0-2.25-1.01-2.25-2.25v-12c0-1.241,1.009-2.25,2.25-2.25h17
	c1.24,0,2.25,1.009,2.25,2.25v12C22.75,17.74,21.74,18.75,20.5,18.75z M3.5,3.75c-0.414,0-0.75,0.336-0.75,0.75v12
	c0,0.413,0.336,0.75,0.75,0.75h17c0.413,0,0.75-0.337,0.75-0.75v-12c0-0.414-0.337-0.75-0.75-0.75H3.5z"/>
<rect x="11.25" y="18" style="fill:#333333;" width="1.5" height="3.5"/>
<rect x="6.685" y="9.75" transform="matrix(0.7527 -0.6583 0.6583 0.7527 -3.9452 10.4961)" style="fill:#333333;" width="10.63" height="1.5"/>
<rect x="5" y="20.75" style="fill:#333333;" width="14" height="1.5"/>
<path style="fill:#333333;" d="M7.5,10.75c-1.241,0-2.25-1.009-2.25-2.25S6.259,6.25,7.5,6.25S9.75,7.259,9.75,8.5
	S8.741,10.75,7.5,10.75z M7.5,7.75c-0.414,0-0.75,0.336-0.75,0.75S7.086,9.25,7.5,9.25S8.25,8.914,8.25,8.5S7.914,7.75,7.5,7.75z"/>
<path style="fill:#333333;" d="M16.5,14.75c-1.24,0-2.25-1.01-2.25-2.25c0-1.241,1.01-2.25,2.25-2.25s2.25,1.009,2.25,2.25
	C18.75,13.74,17.74,14.75,16.5,14.75z M16.5,11.75c-0.413,0-0.75,0.337-0.75,0.75s0.337,0.75,0.75,0.75s0.75-0.337,0.75-0.75
	S16.913,11.75,16.5,11.75z"/>
</svg>






