<?xml version="1.0" encoding="iso-8859-1"?>
<svg version="1.1" id="&#x56FE;&#x5C42;_1" xmlns="http://www.w3.org/2000/svg" xmlns:xlink="http://www.w3.org/1999/xlink" x="0px"
	 y="0px" viewBox="0 0 24 24" style="enable-background:new 0 0 24 24;" xml:space="preserve">
<rect x="11.25" y="15" style="fill:#333333;" width="1.5" height="3"/>
<rect x="3" y="19.25" style="fill:#333333;" width="7" height="1.5"/>
<rect x="14" y="19.25" style="fill:#333333;" width="7" height="1.5"/>
<path style="fill:#333333;" d="M12,22.75c-1.517,0-2.75-1.233-2.75-2.75s1.233-2.75,2.75-2.75s2.75,1.233,2.75,2.75
	S13.517,22.75,12,22.75z M12,18.75c-0.689,0-1.25,0.561-1.25,1.25s0.561,1.25,1.25,1.25s1.25-0.561,1.25-1.25S12.689,18.75,12,18.75
	z"/>
<path style="fill:#333333;" d="M12,15.75c-3.974,0-8.25-1.017-8.25-3.25v-8h1.5v8c0,0.508,2.365,1.75,6.75,1.75
	s6.75-1.242,6.75-1.75v-8h1.5v8C20.25,14.733,15.974,15.75,12,15.75z"/>
<path style="fill:#333333;" d="M12,11.75c-3.974,0-8.25-1.017-8.25-3.25h1.5c0,0.508,2.365,1.75,6.75,1.75s6.75-1.242,6.75-1.75h1.5
	C20.25,10.733,15.974,11.75,12,11.75z"/>
<path style="fill:none;" d="M19.5,4.5C19.5,5.881,16.142,7,12,7S4.5,5.881,4.5,4.5C4.5,3.119,7.858,2,12,2S19.5,3.119,19.5,4.5z"/>
<path style="fill:none;" d="M19.5,4.5C19.5,5.881,16.142,7,12,7S4.5,5.881,4.5,4.5C4.5,3.119,7.858,2,12,2S19.5,3.119,19.5,4.5z"/>
<path style="fill:#333333;" d="M12,7.75c-3.974,0-8.25-1.017-8.25-3.25S8.026,1.25,12,1.25s8.25,1.017,8.25,3.25
	S15.974,7.75,12,7.75z M12,2.75c-4.385,0-6.75,1.242-6.75,1.75S7.615,6.25,12,6.25s6.75-1.242,6.75-1.75S16.385,2.75,12,2.75z"/>
<path style="fill:#333333;" d="M12,7.75c-3.974,0-8.25-1.017-8.25-3.25S8.026,1.25,12,1.25s8.25,1.017,8.25,3.25
	S15.974,7.75,12,7.75z M12,2.75c-4.385,0-6.75,1.242-6.75,1.75S7.615,6.25,12,6.25s6.75-1.242,6.75-1.75S16.385,2.75,12,2.75z"/>
</svg>






