<?xml version="1.0" encoding="iso-8859-1"?>
<svg version="1.1" id="&#x56FE;&#x5C42;_1" xmlns="http://www.w3.org/2000/svg" xmlns:xlink="http://www.w3.org/1999/xlink" x="0px"
	 y="0px" viewBox="0 0 24 24" style="enable-background:new 0 0 24 24;" xml:space="preserve">
<path style="fill:#333333;" d="M12,9.25C6.822,9.25,1.25,8.077,1.25,5.5S6.822,1.75,12,1.75S22.75,2.923,22.75,5.5
	S17.178,9.25,12,9.25z M12,3.25c-6.103,0-9.25,1.577-9.25,2.25S5.897,7.75,12,7.75c6.103,0,9.25-1.577,9.25-2.25
	S18.103,3.25,12,3.25z"/>
<path style="fill:#333333;" d="M12,13.75c-5.178,0-10.75-1.174-10.75-3.75c0-1.263,1.364-2.292,3.943-2.975l0.192-0.051l0.192,0.051
	C7.343,7.493,9.624,7.75,12,7.75s4.657-0.257,6.422-0.725l0.192-0.051l0.192,0.051C21.387,7.708,22.75,8.737,22.75,10
	C22.75,12.576,17.178,13.75,12,13.75z M5.39,8.526C3.241,9.125,2.75,9.804,2.75,10c0,0.673,3.147,2.25,9.25,2.25
	c6.103,0,9.25-1.577,9.25-2.25c0-0.196-0.491-0.875-2.641-1.474C14.896,9.461,9.105,9.461,5.39,8.526z"/>
<path style="fill:#333333;" d="M12,18.25c-5.178,0-10.75-1.174-10.75-3.75c0-1.263,1.364-2.292,3.943-2.975l0.384,1.45
	C3.27,13.586,2.75,14.299,2.75,14.5c0,0.673,3.147,2.25,9.25,2.25c6.103,0,9.25-1.577,9.25-2.25c0-0.201-0.52-0.914-2.828-1.525
	l0.385-1.45c2.58,0.683,3.943,1.712,3.943,2.975C22.75,17.076,17.178,18.25,12,18.25z"/>
<path style="fill:#333333;" d="M12,22.75c-5.178,0-10.75-1.174-10.75-3.75c0-1.263,1.364-2.292,3.943-2.975l0.384,1.449
	C3.27,18.086,2.75,18.799,2.75,19c0,0.673,3.147,2.25,9.25,2.25c6.103,0,9.25-1.577,9.25-2.25c0-0.201-0.52-0.914-2.828-1.525
	l0.385-1.449c2.58,0.683,3.943,1.712,3.943,2.975C22.75,21.576,17.178,22.75,12,22.75z"/>
</svg>






