<?xml version="1.0" encoding="iso-8859-1"?>
<svg version="1.1" id="&#x56FE;&#x5C42;_1" xmlns="http://www.w3.org/2000/svg" xmlns:xlink="http://www.w3.org/1999/xlink" x="0px"
	 y="0px" viewBox="0 0 24 24" style="enable-background:new 0 0 24 24;" xml:space="preserve">
<path style="fill:#333333;" d="M17,21.25c-0.994,0-1.974-0.258-2.833-0.745c-1.51-0.857-2.543-2.325-2.834-4.029
	c-0.055-0.317-0.083-0.646-0.083-0.976c0-1.421,0.522-2.785,1.472-3.841C13.811,10.446,15.37,9.75,17,9.75
	c3.171,0,5.75,2.579,5.75,5.75S20.171,21.25,17,21.25z M17,11.25c-1.204,0-2.357,0.514-3.163,1.411
	c-0.701,0.78-1.087,1.789-1.087,2.839c0,0.244,0.021,0.487,0.062,0.722c0.215,1.26,0.979,2.345,2.096,2.979
	c0.634,0.359,1.357,0.55,2.093,0.55c2.344,0,4.25-1.906,4.25-4.25S19.344,11.25,17,11.25z"/>
<path style="fill:#333333;" d="M9.5,21.25c-3.974,0-8.25-1.017-8.25-3.25V6h1.5v12c0,0.508,2.365,1.75,6.75,1.75
	c1.181,0,2.326-0.095,3.345-0.272c-0.785-0.818-1.316-1.856-1.512-3.002c-0.055-0.317-0.083-0.646-0.083-0.976
	c0-1.421,0.522-2.785,1.472-3.841c0.921-1.025,2.177-1.681,3.528-1.859V6h1.5v5.25H17c-1.204,0-2.357,0.514-3.163,1.411
	c-0.701,0.78-1.087,1.789-1.087,2.839c0,0.244,0.021,0.487,0.062,0.722c0.215,1.26,0.979,2.345,2.096,2.979l-0.153,1.37
	C13.305,21.009,11.438,21.25,9.5,21.25z"/>
<path style="fill:#333333;" d="M9.5,9.25C5.526,9.25,1.25,8.233,1.25,6S5.526,2.75,9.5,2.75S17.75,3.767,17.75,6
	S13.474,9.25,9.5,9.25z M9.5,4.25C5.115,4.25,2.75,5.492,2.75,6S5.115,7.75,9.5,7.75S16.25,6.508,16.25,6S13.885,4.25,9.5,4.25z"/>
<path style="fill:#333333;" d="M9.5,17.25c-3.974,0-8.25-1.017-8.25-3.25h1.5c0,0.508,2.365,1.75,6.75,1.75
	c0.849,0,1.684-0.049,2.482-0.145l0.18,1.488C11.304,17.197,10.408,17.25,9.5,17.25z"/>
<path style="fill:#333333;" d="M9.5,13.25c-3.974,0-8.25-1.017-8.25-3.25h1.5c0,0.508,2.365,1.75,6.75,1.75
	c1.282,0,2.54-0.113,3.636-0.326l0.287,1.473C12.233,13.128,10.877,13.25,9.5,13.25z"/>
<path style="fill:#333333;" d="M16.356,20.885C16.28,20.758,14.5,17.749,14.5,15.5s1.78-5.257,1.856-5.384l1.288,0.769
	C17.187,11.652,16,13.978,16,15.5s1.187,3.849,1.645,4.616L16.356,20.885z"/>
<path style="fill:#333333;" d="M17.644,20.885l-1.288-0.769C16.813,19.349,18,17.022,18,15.5s-1.187-3.848-1.645-4.616l1.288-0.769
	C17.72,10.243,19.5,13.251,19.5,15.5S17.72,20.758,17.644,20.885z"/>
<rect x="12" y="14.75" style="fill:#333333;" width="10" height="1.5"/>
</svg>






