<?xml version="1.0" encoding="iso-8859-1"?>
<svg version="1.1" id="&#x56FE;&#x5C42;_1" xmlns="http://www.w3.org/2000/svg" xmlns:xlink="http://www.w3.org/1999/xlink" x="0px"
	 y="0px" viewBox="0 0 24 24" style="enable-background:new 0 0 24 24;" xml:space="preserve">
<path style="fill:#333333;" d="M19.5,21.75h-15c-1.241,0-2.25-1.01-2.25-2.25v-14c0-1.241,1.009-2.25,2.25-2.25H18v1.5H4.5
	c-0.414,0-0.75,0.336-0.75,0.75v14c0,0.413,0.336,0.75,0.75,0.75h15c0.413,0,0.75-0.337,0.75-0.75V9h1.5v10.5
	C21.75,20.74,20.74,21.75,19.5,21.75z"/>
<polygon style="fill:#333333;" points="16.651,6.773 15.591,5.712 17.182,4.122 15.591,2.53 16.651,1.47 19.303,4.122 "/>
<rect x="11.25" y="8.5" style="fill:#333333;" width="1.5" height="8.5"/>
<rect x="15.25" y="12" style="fill:#333333;" width="1.5" height="5"/>
<rect x="7.25" y="12" style="fill:#333333;" width="1.5" height="5"/>
</svg>






