<?xml version="1.0" encoding="iso-8859-1"?>
<svg version="1.1" id="&#x56FE;&#x5C42;_1" xmlns="http://www.w3.org/2000/svg" xmlns:xlink="http://www.w3.org/1999/xlink" x="0px"
	 y="0px" viewBox="0 0 24 24" style="enable-background:new 0 0 24 24;" xml:space="preserve">
<path style="fill:#333333;" d="M12,22.75C6.072,22.75,1.25,17.928,1.25,12S6.072,1.25,12,1.25S22.75,6.072,22.75,12
	S17.928,22.75,12,22.75z M12,2.75c-5.101,0-9.25,4.149-9.25,9.25s4.149,9.25,9.25,9.25s9.25-4.149,9.25-9.25S17.101,2.75,12,2.75z"
	/>
<rect x="2.5" y="11.75" style="fill:#333333;" width="19.5" height="1.5"/>
<path style="fill:#333333;" d="M9.5,10.25c-1.517,0-2.75-1.233-2.75-2.75S7.983,4.75,9.5,4.75s2.75,1.233,2.75,2.75
	S11.017,10.25,9.5,10.25z M9.5,6.25c-0.689,0-1.25,0.561-1.25,1.25S8.811,8.75,9.5,8.75s1.25-0.561,1.25-1.25S10.189,6.25,9.5,6.25z
	"/>
<rect x="15.5" y="14.75" style="fill:#333333;" width="6" height="1.5"/>
<rect x="17" y="7.75" style="fill:#333333;" width="4" height="1.5"/>
<rect x="12.5" y="17.75" style="fill:#333333;" width="7" height="1.5"/>
<path style="fill:#333333;" d="M16.838,21.603l-0.676-1.34c3.139-1.583,5.088-4.75,5.088-8.263c0-2.021-0.64-3.94-1.85-5.55
	L20.6,5.548c1.407,1.873,2.15,4.104,2.15,6.452C22.75,16.083,20.484,19.762,16.838,21.603z"/>
<path style="fill:#333333;" d="M1.588,14.687C1.364,13.813,1.25,12.91,1.25,12c0-0.724,0.072-1.447,0.215-2.149l1.47,0.299
	C2.812,10.754,2.75,11.376,2.75,12c0,0.784,0.098,1.562,0.292,2.313L1.588,14.687z"/>
</svg>






