<?xml version="1.0" encoding="iso-8859-1"?>
<svg version="1.1" id="&#x56FE;&#x5C42;_1" xmlns="http://www.w3.org/2000/svg" xmlns:xlink="http://www.w3.org/1999/xlink" x="0px"
	 y="0px" viewBox="0 0 24 24" style="enable-background:new 0 0 24 24;" xml:space="preserve">
<path style="fill:#333333;" d="M10.028,21.75H2.472c-0.674,0-1.222-0.567-1.222-1.265V3.514c0-0.697,0.548-1.264,1.222-1.264h7.556
	c0.674,0,1.222,0.567,1.222,1.264v2.989h-1.5V3.75h-7v16.5h7v-2.754h1.5v2.989C11.25,21.183,10.702,21.75,10.028,21.75z"/>
<path style="fill:#333333;" d="M21.527,21.75h-7.555c-0.674,0-1.223-0.567-1.223-1.265v-2.989h1.5v2.754h7V3.75h-7v2.753h-1.5V3.514
	c0-0.697,0.549-1.264,1.223-1.264h7.555c0.674,0,1.223,0.567,1.223,1.264v16.971C22.75,21.183,22.201,21.75,21.527,21.75z"/>
<path style="fill:#333333;" d="M6.25,19c0.552,0,1-0.448,1-1s-0.448-1-1-1s-1,0.448-1,1S5.698,19,6.25,19z"/>
<path style="fill:#333333;" d="M17.75,19c0.552,0,1-0.448,1-1s-0.448-1-1-1s-1,0.448-1,1S17.198,19,17.75,19z"/>
<rect x="8" y="11" style="fill:#333333;" width="8" height="1.5"/>
<polygon style="fill:#333333;" points="14.142,14.667 13.081,13.606 14.938,11.75 13.081,9.894 14.142,8.833 17.059,11.75 "/>
</svg>






