<?xml version="1.0" encoding="iso-8859-1"?>
<svg version="1.1" id="&#x56FE;&#x5C42;_1" xmlns="http://www.w3.org/2000/svg" xmlns:xlink="http://www.w3.org/1999/xlink" x="0px"
	 y="0px" viewBox="0 0 24 24" style="enable-background:new 0 0 24 24;" xml:space="preserve">
<path style="fill:#333333;" d="M12,22.75c-3.916,0-6.75-5.525-6.75-9.25c0-4.053,1.076-6.25,6.75-6.25c5.674,0,6.75,2.197,6.75,6.25
	C18.75,17.225,15.916,22.75,12,22.75z M12,8.75c-4.753,0-5.25,1.447-5.25,4.75c0,3.384,2.546,7.75,5.25,7.75s5.25-4.366,5.25-7.75
	C17.25,10.197,16.753,8.75,12,8.75z"/>
<path style="fill:#333333;" d="M18.765,11.658c-0.613,0-1.166-0.212-1.562-0.609c-0.991-0.991-0.759-2.777,0.53-4.066
	c0.579-0.58,1.294-0.969,2.012-1.096c0.805-0.142,1.553,0.064,2.054,0.565c0.991,0.991,0.759,2.777-0.53,4.066l0,0
	c-0.58,0.58-1.295,0.969-2.013,1.096C19.089,11.643,18.925,11.658,18.765,11.658z M20.242,7.342c-0.09,0-0.173,0.01-0.237,0.021
	c-0.411,0.073-0.853,0.32-1.212,0.679c-0.708,0.708-0.864,1.611-0.53,1.945c0.205,0.205,0.546,0.18,0.731,0.149
	c0.412-0.073,0.854-0.32,1.213-0.679l0,0c0.708-0.708,0.864-1.611,0.53-1.945C20.603,7.378,20.411,7.342,20.242,7.342z"/>
<path style="fill:#333333;" d="M5.238,11.662c-0.833,0-1.754-0.393-2.506-1.144C1.444,9.229,1.211,7.443,2.201,6.452
	c0.992-0.991,2.778-0.759,4.066,0.53l0,0c1.289,1.289,1.521,3.075,0.53,4.066C6.385,11.461,5.833,11.662,5.238,11.662z M3.758,7.344
	c-0.209,0-0.384,0.057-0.496,0.168c-0.333,0.334-0.178,1.236,0.53,1.945c0.708,0.707,1.611,0.864,1.945,0.53
	c0.333-0.333,0.178-1.236-0.53-1.945C4.735,7.571,4.177,7.344,3.758,7.344z"/>
<path style="fill:#333333;" d="M12,8.75C8.278,8.75,5.25,5.722,5.25,2h1.5c0,2.895,2.355,5.25,5.25,5.25
	c2.895,0,5.25-2.355,5.25-5.25h1.5C18.75,5.722,15.722,8.75,12,8.75z"/>
<path style="fill:#333333;" d="M12,8.75c-2.103,0-3.75-2.306-3.75-5.25h1.5c0,2.033,1.03,3.75,2.25,3.75s2.25-1.717,2.25-3.75h1.5
	C15.75,6.444,14.103,8.75,12,8.75z"/>
<circle style="fill:#333333;" cx="10" cy="13" r="1"/>
<circle style="fill:#333333;" cx="12" cy="17" r="1"/>
<circle style="fill:#333333;" cx="14" cy="13" r="1"/>
</svg>






