<?xml version="1.0" encoding="iso-8859-1"?>
<svg version="1.1" id="&#x56FE;&#x5C42;_1" xmlns="http://www.w3.org/2000/svg" xmlns:xlink="http://www.w3.org/1999/xlink" x="0px"
	 y="0px" viewBox="0 0 24 24" style="enable-background:new 0 0 24 24;" xml:space="preserve">
<path style="fill:#333333;" d="M11.511,13.708L0.722,9.396V8.004l10.79-4.312l10.79,4.312v1.393L11.511,13.708z M3.021,8.7
	l8.49,3.393l8.49-3.393l-8.49-3.393L3.021,8.7z"/>
<rect x="21.272" y="8.755" style="fill:#333333;" width="1.5" height="4.611"/>
<path style="fill:#333333;" d="M11.511,20.25c-3.594,0-6.152-2.478-6.259-2.583l-0.224-0.22v-6.535h1.5v5.883
	c0.637,0.533,2.561,1.954,4.983,1.954s4.346-1.421,4.983-1.954v-5.883h1.5v6.535l-0.224,0.22
	C17.663,17.772,15.105,20.25,11.511,20.25z"/>
</svg>






