<?xml version="1.0" encoding="iso-8859-1"?>
<svg version="1.1" id="&#x56FE;&#x5C42;_1" xmlns="http://www.w3.org/2000/svg" xmlns:xlink="http://www.w3.org/1999/xlink" x="0px"
	 y="0px" viewBox="0 0 24 24" style="enable-background:new 0 0 24 24;" xml:space="preserve">
<path style="fill:#333333;" d="M21,19.75H9.894c-0.445,0-0.869-0.167-1.194-0.471L0.901,12L8.7,4.721
	C9.025,4.417,9.449,4.25,9.894,4.25H21c0.965,0,1.75,0.785,1.75,1.75v12C22.75,18.965,21.965,19.75,21,19.75z M3.099,12l6.625,6.184
	c0.046,0.043,0.106,0.066,0.17,0.066H21c0.138,0,0.25-0.112,0.25-0.25V6c0-0.138-0.112-0.25-0.25-0.25H9.894
	c-0.063,0-0.124,0.024-0.17,0.067L3.099,12z"/>
<rect x="11.964" y="11.25" transform="matrix(0.7071 -0.7071 0.7071 0.7071 -3.9454 14.4749)" style="fill:#333333;" width="7.071" height="1.5"/>
<rect x="14.75" y="8.464" transform="matrix(0.7071 -0.7071 0.7071 0.7071 -3.9454 14.4749)" style="fill:#333333;" width="1.5" height="7.071"/>
</svg>






