<?xml version="1.0" encoding="iso-8859-1"?>
<svg version="1.1" id="&#x56FE;&#x5C42;_1" xmlns="http://www.w3.org/2000/svg" xmlns:xlink="http://www.w3.org/1999/xlink" x="0px"
	 y="0px" viewBox="0 0 24 24" style="enable-background:new 0 0 24 24;" xml:space="preserve">
<path style="fill:#333333;" d="M14,22.75c-1.774,0-3.197-0.479-4.452-0.902C8.597,21.527,7.776,21.25,7,21.25H2v-1.5h5
	c1.022,0,1.996,0.328,3.027,0.676c1.202,0.405,2.444,0.824,3.973,0.824c2.616,0,5.918-2.729,6.97-3.78
	c0.318-0.318,0.452-0.572,0.503-0.72c-0.767,0.022-5.49,0.918-8.325,1.485l-0.195,0.039l-3.189-1.062l0.475-1.424l2.812,0.938
	c1.617-0.322,7.474-1.476,8.451-1.476c0.668,0,1.177,0.303,1.396,0.83c0.29,0.702-0.033,1.618-0.865,2.45
	C21.858,18.702,17.768,22.75,14,22.75z"/>
<path style="fill:#333333;" d="M13.416,18.124l-0.833-1.247c0.741-0.497,1.346-1.2,1.32-1.427c-0.549-0.728-5.05-2.7-6.903-2.7
	c-1.616,0-3.418,1.229-4.47,2.28L1.47,13.97c1.315-1.314,3.458-2.72,5.53-2.72c2.155,0,7.151,2.035,8.1,3.3
	c0.257,0.342,0.354,0.75,0.279,1.18C15.18,16.896,13.709,17.929,13.416,18.124z"/>
<path style="fill:#333333;" d="M22.75,13h-1.5V5c0-0.138-0.112-0.25-0.25-0.25H9C8.862,4.75,8.75,4.862,8.75,5v4h-1.5V5
	c0-0.965,0.785-1.75,1.75-1.75h12c0.965,0,1.75,0.785,1.75,1.75V13z"/>
<path style="fill:#333333;" d="M18.25,9.25h-6.5v-6h6.5V9.25z M13.25,7.75h3.5v-3h-3.5V7.75z"/>
</svg>






