<?xml version="1.0" encoding="iso-8859-1"?>
<svg version="1.1" id="&#x56FE;&#x5C42;_1" xmlns="http://www.w3.org/2000/svg" xmlns:xlink="http://www.w3.org/1999/xlink" x="0px"
	 y="0px" viewBox="0 0 24 24" style="enable-background:new 0 0 24 24;" xml:space="preserve">
<polygon style="fill:#333333;" points="18.75,22.75 5.25,22.75 5.25,8 6.75,8 6.75,21.25 17.25,21.25 17.25,8 18.75,8 "/>
<polygon style="fill:#333333;" points="12,14.172 8.924,10.48 10.076,9.52 12,11.829 13.924,9.52 15.076,10.48 "/>
<rect x="9" y="15.25" style="fill:#333333;" width="6" height="1.5"/>
<rect x="9" y="12.25" style="fill:#333333;" width="6" height="1.5"/>
<rect x="11.25" y="13" style="fill:#333333;" width="1.5" height="6"/>
<rect x="7" y="4.25" style="fill:#333333;" width="10" height="1.5"/>
<polygon style="fill:#333333;" points="21.75,9.75 18,9.75 18,8.25 20.25,8.25 20.25,2.75 3.75,2.75 3.75,8.25 6,8.25 6,9.75 
	2.25,9.75 2.25,1.25 21.75,1.25 "/>
</svg>






