<?xml version="1.0" encoding="iso-8859-1"?>
<svg version="1.1" id="&#x56FE;&#x5C42;_1" xmlns="http://www.w3.org/2000/svg" xmlns:xlink="http://www.w3.org/1999/xlink" x="0px"
	 y="0px" viewBox="0 0 24 24" style="enable-background:new 0 0 24 24;" xml:space="preserve">
<g>
	<defs>
		<rect id="SVGID_1_" width="24" height="24"/>
	</defs>
	<clipPath id="SVGID_00000024701530127302770130000011831741621574458508_">
		<use xlink:href="#SVGID_1_"  style="overflow:visible;"/>
	</clipPath>
	<g style="clip-path:url(#SVGID_00000024701530127302770130000011831741621574458508_);">
		<path style="fill:#333333;" d="M21.757,20.642c-0.725-0.355-17.769-8.706-19.139-9.497C1.822,10.686,1.336,9.9,1.285,8.991
			C1.229,7.997,1.698,7.006,2.51,6.406c1.261-0.933,3.717-1.53,3.821-1.555l1.226-0.294L6.659,7.909l14.662,7.129l1.481,4.704
			L21.757,20.642z M5.437,6.675C4.714,6.917,3.894,7.249,3.402,7.612c-0.404,0.299-0.647,0.806-0.62,1.293
			c0.016,0.284,0.131,0.678,0.586,0.94c1.089,0.628,13.112,6.537,17.479,8.678l-0.762-2.42L4.89,8.716L5.437,6.675z"/>
		
			<rect x="10.75" y="16.573" transform="matrix(0.4472 -0.8945 0.8945 0.4472 -9.9661 20.3757)" style="fill:#333333;" width="1.5" height="3.354"/>
		<polygon style="fill:#333333;" points="13.763,12.639 12.331,5.004 11.517,4.597 10.231,10.168 8.769,9.832 10.483,2.403 
			13.669,3.996 15.237,12.361 		"/>
	</g>
</g>
</svg>






