<?xml version="1.0" encoding="iso-8859-1"?>
<svg version="1.1" id="&#x56FE;&#x5C42;_1" xmlns="http://www.w3.org/2000/svg" xmlns:xlink="http://www.w3.org/1999/xlink" x="0px"
	 y="0px" viewBox="0 0 24 24" style="enable-background:new 0 0 24 24;" xml:space="preserve">
<path style="fill:#333333;" d="M19.298,13.75H4.702c-0.801,0-1.452-0.651-1.452-1.452V10c0-4.825,3.925-8.75,8.75-8.75
	c4.825,0,8.75,3.925,8.75,8.75v2.298C20.75,13.099,20.099,13.75,19.298,13.75z M4.75,12.25h14.548L19.25,10
	c0-3.998-3.252-7.25-7.25-7.25c-3.998,0-7.25,3.252-7.25,7.25V12.25z"/>
<rect x="11.25" y="13" style="fill:#333333;" width="1.5" height="8"/>
<rect x="6.75" y="13" style="fill:#333333;" width="1.5" height="3"/>
<rect x="7.5" y="20.25" style="fill:#333333;" width="9" height="1.5"/>
</svg>






