<?xml version="1.0" encoding="iso-8859-1"?>
<svg version="1.1" id="&#x56FE;&#x5C42;_1" xmlns="http://www.w3.org/2000/svg" xmlns:xlink="http://www.w3.org/1999/xlink" x="0px"
	 y="0px" viewBox="0 0 24 24" style="enable-background:new 0 0 24 24;" xml:space="preserve">
<rect x="3" y="19.749" style="fill:#333333;" width="18" height="1.5"/>
<rect x="18.75" y="9.5" style="fill:#333333;" width="1.5" height="11"/>
<rect x="15.75" y="5.594" transform="matrix(0.6401 -0.7683 0.7683 0.6401 -1.3604 16.0945)" style="fill:#333333;" width="1.5" height="7.81"/>
<path style="fill:#333333;" d="M13.625,13.539L3.989,7.796l0.356-0.637C5.32,5.417,7.057,4.361,8.967,4.315
	c0.01-0.018,0.02-0.037,0.03-0.055c0.386-0.689,1.051-1.202,1.825-1.409c0.764-0.206,1.553-0.101,2.215,0.294
	c1.371,0.817,1.86,2.7,1.07,4.112c-0.014,0.024-0.027,0.048-0.041,0.072c0.922,1.721,0.908,3.797-0.065,5.537L13.625,13.539z
	 M6.062,7.285l6.95,4.142c0.438-1.246,0.279-2.594-0.468-3.726l-0.319-0.483l0.387-0.431c0.071-0.08,0.134-0.167,0.187-0.261
	c0.397-0.711,0.15-1.688-0.528-2.093c-0.311-0.185-0.687-0.232-1.06-0.133c-0.385,0.103-0.714,0.355-0.903,0.692
	c-0.067,0.121-0.098,0.202-0.128,0.301l-0.174,0.579L9.402,5.826C8.082,5.732,6.88,6.261,6.062,7.285z"/>
</svg>






