<?xml version="1.0" encoding="iso-8859-1"?>
<svg version="1.1" id="&#x56FE;&#x5C42;_1" xmlns="http://www.w3.org/2000/svg" xmlns:xlink="http://www.w3.org/1999/xlink" x="0px"
	 y="0px" viewBox="0 0 24 24" style="enable-background:new 0 0 24 24;" xml:space="preserve">
<path style="fill:#333333;" d="M4.233,20.934c-0.661,0-1.318-0.28-1.775-0.825c-0.819-0.978-0.691-2.438,0.286-3.258L4.5,15.376
	l0.257-2.935l10.212-8.57c1.858-1.558,4.636-1.313,6.193,0.542c1.558,1.857,1.315,4.635-0.541,6.193l-10.213,8.569l-2.934-0.255
	l-1.756,1.473C5.286,20.757,4.758,20.934,4.233,20.934z M6.197,13.191L5.94,16.126l-2.233,1.873c-0.343,0.288-0.388,0.802-0.1,1.145
	c0.288,0.344,0.803,0.39,1.147,0.101l2.231-1.872l2.934,0.255l9.737-8.17c1.224-1.026,1.383-2.856,0.357-4.08
	c-1.026-1.222-2.857-1.384-4.08-0.356L6.197,13.191z"/>
<rect x="14.661" y="3.515" transform="matrix(0.766 -0.6428 0.6428 0.766 -2.3464 12.0725)" style="fill:#333333;" width="1.5" height="11.489"/>
<rect x="8.819" y="12.5" transform="matrix(0.7536 -0.6573 0.6573 0.7536 -6.0684 10.3105)" style="fill:#333333;" width="3.801" height="1.5"/>
</svg>






