<?xml version="1.0" encoding="iso-8859-1"?>
<svg version="1.1" id="&#x56FE;&#x5C42;_1" xmlns="http://www.w3.org/2000/svg" xmlns:xlink="http://www.w3.org/1999/xlink" x="0px"
	 y="0px" viewBox="0 0 24 24" style="enable-background:new 0 0 24 24;" xml:space="preserve">
<path style="fill:#333333;" d="M12.5,22.75c-4.549,0-8.25-3.701-8.25-8.25s3.701-8.25,8.25-8.25s8.25,3.701,8.25,8.25
	S17.049,22.75,12.5,22.75z M12.5,7.75c-3.722,0-6.75,3.028-6.75,6.75c0,3.722,3.028,6.75,6.75,6.75c3.722,0,6.75-3.028,6.75-6.75
	C19.25,10.778,16.222,7.75,12.5,7.75z"/>
<path style="fill:#333333;" d="M12.5,7.988L7.979,4.112l2.146-2.862h4.78l2.112,2.866L12.5,7.988z M10.021,3.888L12.5,6.012
	l2.483-2.128L14.147,2.75h-3.272L10.021,3.888z"/>
</svg>






