<?xml version="1.0" encoding="iso-8859-1"?>
<svg version="1.1" id="&#x56FE;&#x5C42;_1" xmlns="http://www.w3.org/2000/svg" xmlns:xlink="http://www.w3.org/1999/xlink" x="0px"
	 y="0px" viewBox="0 0 24 24" style="enable-background:new 0 0 24 24;" xml:space="preserve">
<path style="fill:#333333;" d="M12,21.989c-0.575,0-1.114-0.283-1.44-0.757L2.011,8.836C1.73,8.43,1.635,7.921,1.748,7.441
	C1.862,6.96,2.175,6.548,2.607,6.31l0,0l8.549-4.702c0.528-0.29,1.159-0.29,1.686,0l8.549,4.702c0.433,0.237,0.746,0.649,0.86,1.13
	c0.113,0.481,0.019,0.99-0.263,1.397L13.44,21.232C13.114,21.706,12.575,21.989,12,21.989z M3.331,7.624
	C3.246,7.671,3.218,7.746,3.208,7.786c-0.009,0.041-0.017,0.12,0.038,0.199l8.548,12.396c0.13,0.188,0.281,0.188,0.412,0
	l8.549-12.396c0.055-0.08,0.047-0.159,0.037-0.2c-0.01-0.04-0.038-0.114-0.123-0.161L12.12,2.922c-0.077-0.042-0.166-0.041-0.241,0
	L3.331,7.624z"/>
</svg>






