<?xml version="1.0" encoding="iso-8859-1"?>
<svg version="1.1" id="&#x56FE;&#x5C42;_1" xmlns="http://www.w3.org/2000/svg" xmlns:xlink="http://www.w3.org/1999/xlink" x="0px"
	 y="0px" viewBox="0 0 24 24" style="enable-background:new 0 0 24 24;" xml:space="preserve">
<path style="fill:#333333;" d="M12,22.601c-0.551,0-1.058-0.252-1.392-0.689l-6.743-8.851c-0.476-0.624-0.476-1.497,0-2.121
	l6.743-8.85c0.668-0.876,2.117-0.876,2.785,0l6.742,8.85c0.475,0.625,0.476,1.496,0,2.121l-6.742,8.85
	C13.059,22.349,12.551,22.601,12,22.601z M12,2.9c-0.046,0-0.133,0.013-0.199,0.099l-6.743,8.85c-0.068,0.089-0.068,0.214,0,0.304
	l6.743,8.85c0.133,0.172,0.268,0.169,0.398-0.001l6.742-8.849c0.067-0.09,0.068-0.215,0-0.304l-6.742-8.85
	C12.134,2.913,12.047,2.9,12,2.9z"/>
</svg>






