<?xml version="1.0" encoding="iso-8859-1"?>
<svg version="1.1" id="&#x56FE;&#x5C42;_1" xmlns="http://www.w3.org/2000/svg" xmlns:xlink="http://www.w3.org/1999/xlink" x="0px"
	 y="0px" viewBox="0 0 24 24" style="enable-background:new 0 0 24 24;" xml:space="preserve">
<path style="fill:#333333;" d="M12,22.172L1.032,9.01L5.64,3.25H18.36l4.607,5.76L12,22.172z M2.968,8.99L12,19.828L21.032,8.99
	L17.64,4.75H6.36L2.968,8.99z"/>
<rect x="2" y="8.25" style="fill:#333333;" width="20" height="1.5"/>
<rect x="9.25" y="8.675" transform="matrix(0.9487 -0.3162 0.3162 0.9487 -4.2302 3.9321)" style="fill:#333333;" width="1.5" height="12.649"/>
<rect x="7.676" y="14.25" transform="matrix(0.3163 -0.9487 0.9487 0.3163 -4.6582 23.5363)" style="fill:#333333;" width="12.649" height="1.501"/>
<polygon style="fill:#333333;" points="12,22.172 1.032,9.01 3.415,6.031 4.585,6.969 2.968,8.99 12,19.828 21.032,8.99 
	19.414,6.969 20.586,6.031 22.968,9.01 "/>
</svg>






