<?xml version="1.0" encoding="iso-8859-1"?>
<svg version="1.1" id="&#x56FE;&#x5C42;_1" xmlns="http://www.w3.org/2000/svg" xmlns:xlink="http://www.w3.org/1999/xlink" x="0px"
	 y="0px" viewBox="0 0 24 24" style="enable-background:new 0 0 24 24;" xml:space="preserve">
<path style="fill:#333333;" d="M17.018,21.385L6.25,14.925V7.72l10,5.607V9.925l-5.75-3.45l6.01-3.339l5.739,3.382v11.441
	L17.018,21.385z M7.75,14.075l9.232,5.54l3.768-2.467V7.375l-4.261-2.511l-2.99,1.661l4.251,2.55v6.812l-10-5.607V14.075z"/>
<polygon style="fill:#333333;" points="7.521,21.388 1.75,17.925 1.75,6.575 7.485,3.134 12.364,5.844 11.636,7.156 7.515,4.866 
	3.25,7.425 3.25,17.075 7.479,19.612 11.584,16.876 12.416,18.124 "/>
</svg>






