<?xml version="1.0" encoding="iso-8859-1"?>
<svg version="1.1" id="&#x56FE;&#x5C42;_1" xmlns="http://www.w3.org/2000/svg" xmlns:xlink="http://www.w3.org/1999/xlink" x="0px"
	 y="0px" viewBox="0 0 24 24" style="enable-background:new 0 0 24 24;" xml:space="preserve">
<path style="fill:#333333;" d="M12,22c-7.712,0-9.75-6.541-9.75-10V2.25h19.5V12C21.75,14.781,19.998,22,12,22z M3.75,3.75V12
	c0,0.347,0.094,8.5,8.25,8.5c8.025,0,8.25-8.415,8.25-8.5V3.75H3.75z"/>
<rect x="3" y="6.25" style="fill:#333333;" width="5" height="1.5"/>
<rect x="16" y="6.25" style="fill:#333333;" width="5" height="1.5"/>
<path style="fill:#333333;" d="M13.25,21h-1.5c0-6.379,3.198-9.75,9.25-9.75v1.5C15.785,12.75,13.25,15.448,13.25,21z"/>
<path style="fill:#333333;" d="M12.25,21h-1.5c0-5.552-2.535-8.25-7.75-8.25v-1.5C9.051,11.25,12.25,14.621,12.25,21z"/>
</svg>






