<?xml version="1.0" encoding="iso-8859-1"?>
<svg version="1.1" id="&#x56FE;&#x5C42;_1" xmlns="http://www.w3.org/2000/svg" xmlns:xlink="http://www.w3.org/1999/xlink" x="0px"
	 y="0px" viewBox="0 0 24 24" style="enable-background:new 0 0 24 24;" xml:space="preserve">
<path style="fill:#333333;" d="M14.5,21.75H4c-0.965,0-1.75-0.785-1.75-1.75V9.5c0-0.965,0.785-1.75,1.75-1.75h3.5
	c0.965,0,1.75,0.785,1.75,1.75v5c0,0.138,0.112,0.25,0.25,0.25h5c0.965,0,1.75,0.785,1.75,1.75V20
	C16.25,20.965,15.465,21.75,14.5,21.75z M4,9.25c-0.138,0-0.25,0.112-0.25,0.25V20c0,0.138,0.112,0.25,0.25,0.25h10.5
	c0.138,0,0.25-0.112,0.25-0.25v-3.5c0-0.138-0.112-0.25-0.25-0.25h-5c-0.965,0-1.75-0.785-1.75-1.75v-5
	c0-0.138-0.112-0.25-0.25-0.25H4z"/>
<path style="fill:#333333;" d="M20,16.25h-3.5c-0.965,0-1.75-0.785-1.75-1.75v-5c0-0.138-0.112-0.25-0.25-0.25h-5
	c-0.965,0-1.75-0.785-1.75-1.75V4c0-0.965,0.785-1.75,1.75-1.75H20c0.965,0,1.75,0.785,1.75,1.75v10.5
	C21.75,15.465,20.965,16.25,20,16.25z M9.5,3.75C9.362,3.75,9.25,3.862,9.25,4v3.5c0,0.138,0.112,0.25,0.25,0.25h5
	c0.965,0,1.75,0.785,1.75,1.75v5c0,0.138,0.112,0.25,0.25,0.25H20c0.138,0,0.25-0.112,0.25-0.25V4c0-0.138-0.112-0.25-0.25-0.25H9.5
	z"/>
</svg>






