<?xml version="1.0" encoding="iso-8859-1"?>
<svg version="1.1" id="&#x56FE;&#x5C42;_1" xmlns="http://www.w3.org/2000/svg" xmlns:xlink="http://www.w3.org/1999/xlink" x="0px"
	 y="0px" viewBox="0 0 24 24" style="enable-background:new 0 0 24 24;" xml:space="preserve">
<path style="fill:#333333;" d="M16,18.25H8c-1.241,0-2.25-1.01-2.25-2.25V8c0-1.241,1.009-2.25,2.25-2.25h8
	c1.24,0,2.25,1.009,2.25,2.25v8C18.25,17.24,17.24,18.25,16,18.25z M8,7.25C7.586,7.25,7.25,7.586,7.25,8v8
	c0,0.413,0.336,0.75,0.75,0.75h8c0.413,0,0.75-0.337,0.75-0.75V8c0-0.414-0.337-0.75-0.75-0.75H8z"/>
<path style="fill:#333333;" d="M13.5,22.75h-3c-0.965,0-1.75-0.785-1.75-1.75v-3.5h1.5V21c0,0.138,0.112,0.25,0.25,0.25h3
	c0.138,0,0.25-0.112,0.25-0.25v-3.5h1.5V21C15.25,21.965,14.465,22.75,13.5,22.75z"/>
<path style="fill:#333333;" d="M15.25,6.5h-1.5V3c0-0.138-0.112-0.25-0.25-0.25h-3c-0.138,0-0.25,0.112-0.25,0.25v3.5h-1.5V3
	c0-0.965,0.785-1.75,1.75-1.75h3c0.965,0,1.75,0.785,1.75,1.75V6.5z"/>
<rect x="17.5" y="9.75" style="fill:#333333;" width="1" height="1.5"/>
<rect x="9.5" y="11.25" style="fill:#333333;" width="1" height="1.5"/>
<rect x="13.5" y="11.25" style="fill:#333333;" width="1" height="1.5"/>
</svg>






