<?xml version="1.0" encoding="iso-8859-1"?>
<svg version="1.1" id="&#x56FE;&#x5C42;_1" xmlns="http://www.w3.org/2000/svg" xmlns:xlink="http://www.w3.org/1999/xlink" x="0px"
	 y="0px" viewBox="0 0 24 24" style="enable-background:new 0 0 24 24;" xml:space="preserve">
<polygon style="fill:#333333;" points="12.75,8 11.25,8 11.25,3.811 10.53,4.53 9.47,3.47 11.47,1.47 12,2 12.53,1.47 14.53,3.47 
	13.47,4.53 12.75,3.811 "/>
<polygon style="fill:#333333;" points="12.53,22.53 12,22 11.47,22.53 9.47,20.53 10.53,19.47 11.25,20.189 11.25,16 12.75,16 
	12.75,20.189 13.47,19.47 14.53,20.53 "/>
<polygon style="fill:#333333;" points="20.53,14.53 19.47,13.47 20.189,12.75 16,12.75 16,11.25 20.189,11.25 19.47,10.53 
	20.53,9.47 22.53,11.47 22,12 22.53,12.53 "/>
<polygon style="fill:#333333;" points="3.47,14.53 1.47,12.53 2,12 1.47,11.47 3.47,9.47 4.53,10.53 3.811,11.25 8,11.25 8,12.75 
	3.811,12.75 4.53,13.47 "/>
<path style="fill:#333333;" d="M12,13.75c-0.965,0-1.75-0.785-1.75-1.75s0.785-1.75,1.75-1.75s1.75,0.785,1.75,1.75
	S12.965,13.75,12,13.75z M12,11.75c-0.138,0-0.25,0.112-0.25,0.25c0,0.275,0.5,0.275,0.5,0C12.25,11.862,12.138,11.75,12,11.75z"/>
</svg>






