<?xml version="1.0" encoding="iso-8859-1"?>
<svg version="1.1" id="&#x56FE;&#x5C42;_1" xmlns="http://www.w3.org/2000/svg" xmlns:xlink="http://www.w3.org/1999/xlink" x="0px"
	 y="0px" viewBox="0 0 24 24" style="enable-background:new 0 0 24 24;" xml:space="preserve">
<polygon style="fill:#333333;" points="12.53,22.53 12,22 11.47,22.53 8.47,19.53 9.53,18.47 11.25,20.189 11.25,12.75 3.811,12.75 
	5.53,14.47 4.47,15.53 1.47,12.53 2,12 1.47,11.47 4.47,8.47 5.53,9.53 3.811,11.25 11.25,11.25 11.25,3.811 9.53,5.53 8.47,4.47 
	11.47,1.47 12,2 12.53,1.47 15.53,4.47 14.47,5.53 12.75,3.811 12.75,11.25 20.189,11.25 18.47,9.53 19.53,8.47 22.53,11.47 22,12 
	22.53,12.53 19.53,15.53 18.47,14.47 20.189,12.75 12.75,12.75 12.75,20.189 14.47,18.47 15.53,19.53 "/>
</svg>






