<?xml version="1.0" encoding="iso-8859-1"?>
<svg version="1.1" id="&#x56FE;&#x5C42;_1" xmlns="http://www.w3.org/2000/svg" xmlns:xlink="http://www.w3.org/1999/xlink" x="0px"
	 y="0px" viewBox="0 0 24 24" style="enable-background:new 0 0 24 24;" xml:space="preserve">
<path style="fill:#333333;" d="M19.5,17.749h-15c-1.241,0-2.25-1.01-2.25-2.25v-11c0-1.241,1.009-2.25,2.25-2.25h7v1.5h-7
	c-0.414,0-0.75,0.336-0.75,0.75v11c0,0.413,0.336,0.75,0.75,0.75h15c0.413,0,0.75-0.337,0.75-0.75v-3.5h1.5v3.5
	C21.75,16.739,20.74,17.749,19.5,17.749z"/>
<rect x="11.25" y="17" style="fill:#333333;" width="1.5" height="4"/>
<path style="fill:#333333;" d="M18,9.75c-2.067,0-3.75-1.682-3.75-3.75S15.933,2.25,18,2.25S21.75,3.932,21.75,6
	S20.067,9.75,18,9.75z M18,3.75c-1.24,0-2.25,1.009-2.25,2.25S16.76,8.25,18,8.25S20.25,7.241,20.25,6S19.24,3.75,18,3.75z"/>
<rect x="17.25" y="3.172" transform="matrix(0.7071 -0.7071 0.7071 0.7071 1.0294 14.4853)" style="fill:#333333;" width="1.5" height="5.657"/>
<rect x="7" y="20.249" style="fill:#333333;" width="10" height="1.5"/>
</svg>






