<?xml version="1.0" encoding="iso-8859-1"?>
<svg version="1.1" id="&#x56FE;&#x5C42;_1" xmlns="http://www.w3.org/2000/svg" xmlns:xlink="http://www.w3.org/1999/xlink" x="0px"
	 y="0px" viewBox="0 0 24 24" style="enable-background:new 0 0 24 24;" xml:space="preserve">
<path style="fill:#333333;" d="M20.75,17.249H3.25V6c0-1.241,1.009-2.25,2.25-2.25h6v1.5h-6C5.086,5.25,4.75,5.586,4.75,6v9.75h14.5
	v-2.75h1.5V17.249z"/>
<path style="fill:#333333;" d="M19,21.249H5c-2.068,0-3.75-1.683-3.75-3.75v-1.75h21.5v1.75C22.75,19.566,21.067,21.249,19,21.249z
	 M2.75,17.249v0.25c0,1.24,1.009,2.25,2.25,2.25h14c1.24,0,2.25-1.01,2.25-2.25v-0.25H2.75z"/>
<path style="fill:#333333;" d="M18,10.25c-2.067,0-3.75-1.682-3.75-3.75S15.933,2.75,18,2.75s3.75,1.682,3.75,3.75
	S20.067,10.25,18,10.25z M18,4.25c-1.24,0-2.25,1.009-2.25,2.25S16.76,8.75,18,8.75s2.25-1.009,2.25-2.25S19.24,4.25,18,4.25z"/>
<rect x="17.25" y="3.672" transform="matrix(0.7071 -0.7071 0.7071 0.7071 0.6759 14.6317)" style="fill:#333333;" width="1.5" height="5.657"/>
</svg>






