<?xml version="1.0" encoding="iso-8859-1"?>
<svg version="1.1" id="&#x56FE;&#x5C42;_1" xmlns="http://www.w3.org/2000/svg" xmlns:xlink="http://www.w3.org/1999/xlink" x="0px"
	 y="0px" viewBox="0 0 24 24" style="enable-background:new 0 0 24 24;" xml:space="preserve">
<path style="fill:#333333;" d="M22,12c0-0.552-0.448-1-1-1s-1,0.448-1,1H22z M12,4c0.552,0,1-0.448,1-1s-0.448-1-1-1V4z M19.5,20
	h-15v2h15V20z M4,19.5v-15H2v15H4z M20,12v7.5h2V12H20z M4.5,4H12V2H4.5V4z M4.5,20C4.224,20,4,19.776,4,19.5H2
	C2,20.88,3.119,22,4.5,22V20z M19.5,22c1.381,0,2.5-1.119,2.5-2.5h-2c0,0.276-0.224,0.5-0.5,0.5V22z M4,4.5C4,4.223,4.224,4,4.5,4V2
	C3.119,2,2,3.119,2,4.5H4z"/>
<path style="fill:#333333;" d="M15.512,18.569l-6.327-5.423c-0.096-0.082-0.238-0.079-0.331,0.005l-5.347,4.901l-1.014-1.105
	l5.347-4.901c0.653-0.598,1.65-0.613,2.321-0.038l6.327,5.423L15.512,18.569z"/>
<path style="fill:#333333;" d="M20.55,16.1l-3.306-2.479c-0.1-0.075-0.241-0.062-0.327,0.023L14.53,16.03L13.47,14.97l2.387-2.387
	c0.612-0.611,1.597-0.682,2.288-0.162L21.45,14.9L20.55,16.1z"/>
<path style="fill:#333333;" d="M18,9.75c-2.067,0-3.75-1.682-3.75-3.75S15.933,2.25,18,2.25S21.75,3.932,21.75,6
	S20.067,9.75,18,9.75z M18,3.75c-1.24,0-2.25,1.009-2.25,2.25S16.76,8.25,18,8.25S20.25,7.241,20.25,6S19.24,3.75,18,3.75z"/>
<rect x="17.25" y="3.172" transform="matrix(0.7071 -0.7071 0.7071 0.7071 1.0294 14.4853)" style="fill:#333333;" width="1.5" height="5.657"/>
</svg>






