<?xml version="1.0" encoding="iso-8859-1"?>
<svg version="1.1" id="&#x56FE;&#x5C42;_1" xmlns="http://www.w3.org/2000/svg" xmlns:xlink="http://www.w3.org/1999/xlink" x="0px"
	 y="0px" viewBox="0 0 24 24" style="enable-background:new 0 0 24 24;" xml:space="preserve">
<path style="fill:#333333;" d="M12,22.75C6.072,22.75,1.25,17.928,1.25,12S6.072,1.25,12,1.25S22.75,6.072,22.75,12
	S17.928,22.75,12,22.75z M12,2.75c-5.101,0-9.25,4.149-9.25,9.25s4.149,9.25,9.25,9.25s9.25-4.149,9.25-9.25S17.101,2.75,12,2.75z"
	/>
<rect x="14.75" y="10.882" transform="matrix(0.4472 -0.8944 0.8944 0.4472 -2.1649 20.4971)" style="fill:#333333;" width="1.5" height="2.236"/>
<rect x="6.882" y="11.25" transform="matrix(0.8944 -0.4472 0.4472 0.8944 -4.522 4.8446)" style="fill:#333333;" width="2.236" height="1.5"/>
<path style="fill:#333333;" d="M14.832,17.841C14.798,17.775,13.983,16.25,12,16.25c-1.983,0-2.798,1.525-2.832,1.591l-1.339-0.676
	C7.878,17.066,9.07,14.75,12,14.75s4.121,2.316,4.171,2.415L14.832,17.841z"/>
</svg>






