<?xml version="1.0" encoding="iso-8859-1"?>
<svg version="1.1" id="&#x56FE;&#x5C42;_1" xmlns="http://www.w3.org/2000/svg" xmlns:xlink="http://www.w3.org/1999/xlink" x="0px"
	 y="0px" viewBox="0 0 24 24" style="enable-background:new 0 0 24 24;" xml:space="preserve">
<path style="fill:#333333;" d="M12.136,22.53c-3.646,0-6.612-2.966-6.612-6.612V8.577c0-0.678,0.552-1.23,1.231-1.23h10.763
	c0.679,0,1.23,0.552,1.23,1.23v7.341C18.748,19.564,15.782,22.53,12.136,22.53z M6.993,8.816v7.102c0,2.836,2.307,5.144,5.143,5.144
	s5.144-2.308,5.144-5.144V8.816H6.993z"/>
<path style="fill:#333333;" d="M17.278,8.816H6.993V1.469h10.285V8.816z M8.463,7.347h7.347V2.939H8.463V7.347z"/>
<rect x="9.932" y="4.653" style="fill:#333333;" width="1.47" height="0.98"/>
<rect x="12.871" y="4.653" style="fill:#333333;" width="1.469" height="0.98"/>
<rect x="6.258" y="15.184" style="fill:#333333;" width="11.755" height="1.469"/>
</svg>






