<?xml version="1.0" encoding="iso-8859-1"?>
<svg version="1.1" id="&#x56FE;&#x5C42;_1" xmlns="http://www.w3.org/2000/svg" xmlns:xlink="http://www.w3.org/1999/xlink" x="0px"
	 y="0px" viewBox="0 0 24 24" style="enable-background:new 0 0 24 24;" xml:space="preserve">
<path style="fill:#333333;" d="M17,18.25H3c-0.965,0-1.75-0.785-1.75-1.75v-9c0-0.965,0.785-1.75,1.75-1.75h14
	c0.965,0,1.75,0.785,1.75,1.75v9C18.75,17.465,17.965,18.25,17,18.25z M3,7.25c-0.138,0-0.25,0.112-0.25,0.25v9
	c0,0.138,0.112,0.25,0.25,0.25h14c0.138,0,0.25-0.112,0.25-0.25v-9c0-0.138-0.112-0.25-0.25-0.25H3z"/>
<path style="fill:#333333;" d="M7.75,18.25h-6.5V5.75h6.5V18.25z M2.75,16.75h3.5v-9.5h-3.5V16.75z"/>
<polygon style="fill:#333333;" points="22.75,15.25 18,15.25 18,13.75 21.25,13.75 21.25,10.25 18,10.25 18,8.75 22.75,8.75 "/>
<circle style="fill:#333333;" cx="15" cy="10.5" r="1"/>
<circle style="fill:#333333;" cx="15" cy="13.5" r="1"/>
</svg>






