<?xml version="1.0" encoding="iso-8859-1"?>
<svg version="1.1" id="&#x56FE;&#x5C42;_1" xmlns="http://www.w3.org/2000/svg" xmlns:xlink="http://www.w3.org/1999/xlink" x="0px"
	 y="0px" viewBox="0 0 24 24" style="enable-background:new 0 0 24 24;" xml:space="preserve">
<path style="fill:#333333;" d="M12,21.78l-0.206-0.06C8.215,20.698,1.25,15.458,1.25,9.5c0-3.446,2.804-6.25,6.25-6.25
	c0.986,0,1.969,0.236,2.841,0.682l0.492,0.251l-0.503,2.92l4.977,2.765l-3.838,3.29l1.175,1.957l-1.287,0.771l-1.826-3.043
	l3.162-2.71L8.67,7.897l0.491-2.849C8.633,4.85,8.077,4.75,7.5,4.75c-2.619,0-4.75,2.131-4.75,4.75c0,4.909,5.876,9.631,9.25,10.716
	c3.373-1.085,9.25-5.807,9.25-10.716c0-2.619-2.131-4.75-4.75-4.75c-0.761,0-1.487,0.174-2.158,0.518l-0.684-1.336
	C14.531,3.486,15.514,3.25,16.5,3.25c3.446,0,6.25,2.804,6.25,6.25c0,5.958-6.965,11.198-10.544,12.221L12,21.78z"/>
</svg>






