<?xml version="1.0" encoding="iso-8859-1"?>
<svg version="1.1" id="&#x56FE;&#x5C42;_1" xmlns="http://www.w3.org/2000/svg" xmlns:xlink="http://www.w3.org/1999/xlink" x="0px"
	 y="0px" viewBox="0 0 24 24" style="enable-background:new 0 0 24 24;" xml:space="preserve">
<path style="fill:#333333;" d="M20,13.75H4c-0.965,0-1.75-0.785-1.75-1.75V4c0-0.965,0.785-1.75,1.75-1.75h16
	c0.965,0,1.75,0.785,1.75,1.75v8C21.75,12.965,20.965,13.75,20,13.75z M4,3.75C3.862,3.75,3.75,3.862,3.75,4v8
	c0,0.138,0.112,0.25,0.25,0.25h16c0.138,0,0.25-0.112,0.25-0.25V4c0-0.138-0.112-0.25-0.25-0.25H4z"/>
<rect x="7" y="5.75" style="fill:#333333;" width="4" height="1.5"/>
<rect x="7" y="8.75" style="fill:#333333;" width="10" height="1.5"/>
<polygon style="fill:#333333;" points="19.439,22.498 16.996,19.75 6.801,19.75 4.582,22.474 3.418,21.526 6.088,18.25 17.67,18.25 
	20.561,21.502 "/>
<rect x="11.25" y="13" style="fill:#333333;" width="1.5" height="9"/>
</svg>






