<?xml version="1.0" encoding="iso-8859-1"?>
<svg version="1.1" id="&#x56FE;&#x5C42;_1" xmlns="http://www.w3.org/2000/svg" xmlns:xlink="http://www.w3.org/1999/xlink" x="0px"
	 y="0px" viewBox="0 0 24 24" style="enable-background:new 0 0 24 24;" xml:space="preserve">
<path style="fill:#333333;" d="M22.75,20.75H1.25V9.5h0.749H1.25V3.25h21.5V20.75z M15.902,19.25h5.348v-3.521
	c-1.294,0.555-3.564,1.208-6.313,0.65C15.054,17.7,15.6,18.755,15.902,19.25z M8.902,19.25h5.318
	c-0.373-0.806-0.767-1.962-0.792-3.29c-0.581-0.206-1.178-0.47-1.787-0.802c-1.201-0.654-2.346-1.004-3.396-1.155
	C7.378,16.365,8.433,18.481,8.902,19.25z M2.75,19.25h4.47c-0.556-1.199-1.155-3.172-0.522-5.338
	c-1.901,0.051-3.327,0.686-3.947,1.018V19.25z M15.008,14.858c3.027,0.691,5.392-0.334,6.242-0.788v-3.341
	c-1.011,0.434-2.605,0.926-4.583,0.856c-0.163,0.287-0.351,0.576-0.567,0.864C15.486,13.268,15.155,14.085,15.008,14.858z
	 M8.987,12.604c1.061,0.208,2.194,0.595,3.372,1.237c0.411,0.224,0.816,0.413,1.213,0.569c0.194-0.925,0.603-1.895,1.328-2.861
	c0.038-0.052,0.076-0.103,0.112-0.155c-1.061-0.207-2.193-0.594-3.372-1.237c-0.411-0.224-0.816-0.413-1.212-0.57
	c-0.195,0.925-0.603,1.895-1.328,2.862C9.061,12.502,9.024,12.553,8.987,12.604z M2.75,9.93v3.34
	c1.011-0.434,2.617-0.937,4.583-0.856c0.162-0.287,0.351-0.576,0.566-0.864c0.614-0.818,0.945-1.635,1.092-2.408
	C5.966,8.451,3.601,9.475,2.75,9.93z M16.78,4.75c0.556,1.199,1.155,3.172,0.522,5.338c1.901-0.051,3.327-0.686,3.947-1.018V4.75
	H16.78z M10.572,8.04c0.582,0.206,1.178,0.47,1.787,0.802c1.2,0.655,2.346,1.004,3.396,1.156c0.867-2.363-0.188-4.479-0.657-5.248
	H9.78C10.154,5.556,10.547,6.711,10.572,8.04z M2.75,4.75v3.521c1.294-0.555,3.562-1.208,6.314-0.65C8.946,6.3,8.4,5.245,8.098,4.75
	H2.75z"/>
</svg>






