<?xml version="1.0" encoding="iso-8859-1"?>
<svg version="1.1" id="&#x56FE;&#x5C42;_1" xmlns="http://www.w3.org/2000/svg" xmlns:xlink="http://www.w3.org/1999/xlink" x="0px"
	 y="0px" viewBox="0 0 24 24" style="enable-background:new 0 0 24 24;" xml:space="preserve">
<path style="fill:#333333;" d="M12,22.75C6.072,22.75,1.25,17.928,1.25,12S6.072,1.25,12,1.25S22.75,6.072,22.75,12
	S17.928,22.75,12,22.75z M12,2.75c-5.101,0-9.25,4.149-9.25,9.25s4.149,9.25,9.25,9.25s9.25-4.149,9.25-9.25S17.101,2.75,12,2.75z"
	/>
<path style="fill:#333333;" d="M16.714,17.25H7.287l0.542-1.085C7.878,16.066,9.07,13.75,12,13.75s4.121,2.316,4.171,2.415
	L16.714,17.25z M10.219,15.75h3.562c-0.438-0.278-1.024-0.5-1.781-0.5C11.244,15.25,10.657,15.472,10.219,15.75z"/>
<polygon style="fill:#333333;" points="15.47,12.03 13.439,10 15.47,7.97 16.53,9.03 15.561,10 16.53,10.97 "/>
<polygon style="fill:#333333;" points="8.53,12.03 7.47,10.97 8.439,10 7.47,9.03 8.53,7.97 10.561,10 "/>
</svg>






