<?xml version="1.0" encoding="iso-8859-1"?>
<svg version="1.1" id="&#x56FE;&#x5C42;_1" xmlns="http://www.w3.org/2000/svg" xmlns:xlink="http://www.w3.org/1999/xlink" x="0px"
	 y="0px" viewBox="0 0 24 24" style="enable-background:new 0 0 24 24;" xml:space="preserve">
<path style="fill:#333333;" d="M12.955,12.75H11.5v-1.5h1.455c2.368,0,4.295-1.907,4.295-4.25c0-2.255-1.784-4.106-4.029-4.242
	l-2.736,2.315H9.516L6.78,2.758C4.535,2.894,2.75,4.745,2.75,7c0,2.343,1.927,4.25,4.295,4.25H8.5v1.5H7.045
	C3.85,12.75,1.25,10.17,1.25,7s2.6-5.75,5.795-5.75l0.484,0.177L10,3.518l2.471-2.09l0.484-0.177c3.195,0,5.795,2.58,5.795,5.75
	S16.15,12.75,12.955,12.75z"/>
<path style="fill:#333333;" d="M13,22.75H7L6.25,22v-4L7,17.25h6L13.75,18v4L13,22.75z M7.75,21.25h4.5v-2.5h-4.5V21.25z"/>
<path style="fill:#333333;" d="M18,20.75h-5v-1.5h5c1.792,0,3.25-1.458,3.25-3.25V7.75H18v-1.5h4L22.75,7v9
	C22.75,18.619,20.619,20.75,18,20.75z"/>
<path style="fill:#333333;" d="M10.61,15.75H9.39c-0.57,0-1.107-0.249-1.476-0.685c-0.366-0.433-0.523-1.002-0.429-1.56l0.61-3.645
	C8.25,8.928,9.051,8.25,10,8.25c0.948,0,1.749,0.678,1.905,1.611l0.61,3.645c0.091,0.563-0.068,1.132-0.438,1.564
	C11.709,15.502,11.175,15.75,10.61,15.75z M10,9.75c-0.212,0-0.391,0.15-0.425,0.358l-0.61,3.646
	c-0.028,0.168,0.047,0.287,0.095,0.343c0.048,0.058,0.155,0.153,0.33,0.153h1.22c0.17,0,0.277-0.096,0.326-0.152
	c0.049-0.057,0.126-0.179,0.099-0.349l-0.609-3.641C10.391,9.901,10.212,9.75,10,9.75z"/>
</svg>






