<?xml version="1.0" encoding="iso-8859-1"?>
<svg version="1.1" id="&#x56FE;&#x5C42;_1" xmlns="http://www.w3.org/2000/svg" xmlns:xlink="http://www.w3.org/1999/xlink" x="0px"
	 y="0px" viewBox="0 0 24 24" style="enable-background:new 0 0 24 24;" xml:space="preserve">
<path style="fill:#333333;" d="M18.75,9.75h-7V9c0-0.606-0.438-1.25-1.25-1.25S9.25,8.394,9.25,9v0.75h-7V5
	c0-1.517,1.278-2.75,2.85-2.75h10.8c1.571,0,2.85,1.233,2.85,2.75V9.75z M13.146,8.25h4.104V5c0-0.689-0.605-1.25-1.35-1.25H5.1
	C4.355,3.75,3.75,4.311,3.75,5v3.25h4.104c0.302-1.074,1.244-2,2.646-2S12.844,7.176,13.146,8.25z"/>
<path style="fill:#333333;" d="M10.5,15.75c-2.269,0-3.25-2.483-3.25-3.75h1.5c0,0.28,0.348,2.25,1.75,2.25s1.75-1.97,1.75-2.25h1.5
	C13.75,13.267,12.769,15.75,10.5,15.75z"/>
<path style="fill:#333333;" d="M18,22.75c-1.863,0-3.75-1.288-3.75-3.75v-1h1.5v1c0,1.555,1.13,2.25,2.25,2.25s2.25-0.695,2.25-2.25
	V3h1.5v16C21.75,21.462,19.863,22.75,18,22.75z"/>
</svg>






