<?xml version="1.0" encoding="iso-8859-1"?>
<svg version="1.1" id="&#x56FE;&#x5C42;_1" xmlns="http://www.w3.org/2000/svg" xmlns:xlink="http://www.w3.org/1999/xlink" x="0px"
	 y="0px" viewBox="0 0 24 24" style="enable-background:new 0 0 24 24;" xml:space="preserve">
<path style="fill:#333333;" d="M19.5,22.75h-14c-0.965,0-1.75-0.785-1.75-1.75V3c0-0.965,0.785-1.75,1.75-1.75h14
	c0.965,0,1.75,0.785,1.75,1.75v18C21.25,21.965,20.465,22.75,19.5,22.75z M5.5,2.75C5.362,2.75,5.25,2.862,5.25,3v18
	c0,0.138,0.112,0.25,0.25,0.25h14c0.138,0,0.25-0.112,0.25-0.25V3c0-0.138-0.112-0.25-0.25-0.25H5.5z"/>
<rect x="8.5" y="14.25" style="fill:#333333;" width="7" height="1.5"/>
<rect x="8.5" y="17.25" style="fill:#333333;" width="3.5" height="1.5"/>
<path style="fill:#333333;" d="M16.25,11.75h-8.5v-6.5h8.5V11.75z M9.25,10.25h5.5v-3.5h-5.5V10.25z"/>
</svg>






