<?xml version="1.0" encoding="iso-8859-1"?>
<svg version="1.1" id="&#x56FE;&#x5C42;_1" xmlns="http://www.w3.org/2000/svg" xmlns:xlink="http://www.w3.org/1999/xlink" x="0px"
	 y="0px" viewBox="0 0 24 24" style="enable-background:new 0 0 24 24;" xml:space="preserve">
<path style="fill:#333333;" d="M19,22.75H5c-0.965,0-1.75-0.785-1.75-1.75V3c0-0.965,0.785-1.75,1.75-1.75h14
	c0.965,0,1.75,0.785,1.75,1.75v18C20.75,21.965,19.965,22.75,19,22.75z M5,2.75C4.862,2.75,4.75,2.862,4.75,3v18
	c0,0.138,0.112,0.25,0.25,0.25h14c0.138,0,0.25-0.112,0.25-0.25V3c0-0.138-0.112-0.25-0.25-0.25H5z"/>
<path style="fill:none;" d="M14,8c0,0.69-0.28,1.315-0.732,1.768C12.815,10.22,12.19,10.5,11.5,10.5C10.119,10.5,9,9.381,9,8
	s1.119-2.5,2.5-2.5S14,6.619,14,8z"/>
<path style="fill:#333333;" d="M14.47,12.03l-1.263-1.263c-0.508,0.315-1.095,0.483-1.707,0.483c-1.792,0-3.25-1.458-3.25-3.25
	s1.458-3.25,3.25-3.25S14.75,6.208,14.75,8c0,0.612-0.168,1.199-0.482,1.707l1.263,1.263L14.47,12.03z M11.5,6.25
	c-0.965,0-1.75,0.785-1.75,1.75s0.785,1.75,1.75,1.75c0.468,0,0.907-0.182,1.237-0.513l0,0C13.068,8.907,13.25,8.467,13.25,8
	C13.25,7.035,12.465,6.25,11.5,6.25z"/>
<rect x="8.5" y="14.25" style="fill:#333333;" width="7" height="1.5"/>
<rect x="8.5" y="17.25" style="fill:#333333;" width="3.5" height="1.5"/>
</svg>






