<?xml version="1.0" encoding="iso-8859-1"?>
<svg version="1.1" id="&#x56FE;&#x5C42;_1" xmlns="http://www.w3.org/2000/svg" xmlns:xlink="http://www.w3.org/1999/xlink" x="0px"
	 y="0px" viewBox="0 0 24 24" style="enable-background:new 0 0 24 24;" xml:space="preserve">
<path style="fill:#333333;" d="M3.75,22h-1.5V9.5c0-2.968,2.142-5.333,7.395-8.16l1.105-0.595V5.75h3.5V9.5h-1.5V7.25h-3.5V3.277
	C4.433,6.072,3.75,7.985,3.75,9.5V22z"/>
<path style="fill:#333333;" d="M17.098,22.694c-0.377,0-0.7-0.058-0.956-0.129c-1.219-0.34-2.198-1.344-2.382-2.442
	c-0.764-4.585-4.212-6.115-6.064-6.938l0.608-1.371c1.96,0.87,6.039,2.68,6.936,8.062c0.063,0.383,0.511,1.022,1.305,1.244
	c1.041,0.284,2.247-0.28,3.386-1.609c0.388-0.416,0.549-0.87,0.452-1.239c-0.132-0.506-0.746-0.959-1.729-1.274l0.457-1.428
	c1.911,0.612,2.536,1.602,2.725,2.324c0.229,0.882-0.058,1.836-0.787,2.617C19.545,22.267,18.124,22.694,17.098,22.694z"/>
<path style="fill:#333333;" d="M9.25,22h-1.5c0-1.329,0.493-2.472,1.425-3.305c1.363-1.218,3.502-1.599,4.909-1.44l-0.168,1.49
	c-0.905-0.103-2.653,0.098-3.742,1.069C9.552,20.369,9.25,21.084,9.25,22z"/>
</svg>






