<?xml version="1.0" encoding="iso-8859-1"?>
<svg version="1.1" id="&#x56FE;&#x5C42;_1" xmlns="http://www.w3.org/2000/svg" xmlns:xlink="http://www.w3.org/1999/xlink" x="0px"
	 y="0px" viewBox="0 0 24 24" style="enable-background:new 0 0 24 24;" xml:space="preserve">
<path style="fill:#333333;" d="M3.754,9.083C3.312,5.102,5.843,2.333,7.231,1.8l0.69-0.265l1.275,3.187L7.804,5.278L7.145,3.631
	C6.25,4.433,4.951,6.265,5.246,8.917L3.754,9.083z"/>
<path style="fill:#333333;" d="M20.245,9.083l-1.49-0.166c0.295-2.651-1.004-4.484-1.899-5.286l-0.659,1.647l-1.393-0.557
	l1.274-3.188L16.77,1.8C18.157,2.334,20.688,5.103,20.245,9.083z"/>
<path style="fill:#333333;" d="M12,22.25c-5.923,0-9.75-3.141-9.75-8c0-4.957,4.169-10.5,9.75-10.5c5.58,0,9.75,5.543,9.75,10.5
	C21.75,19.109,17.923,22.25,12,22.25z M12,5.25c-4.722,0-8.25,4.751-8.25,9c0,4.792,4.262,6.5,8.25,6.5s8.25-1.708,8.25-6.5
	C20.25,10.001,16.722,5.25,12,5.25z"/>
<circle style="fill:#333333;" cx="10" cy="8.5" r="1"/>
<circle style="fill:#333333;" cx="14" cy="8.5" r="1"/>
<path style="fill:#333333;" d="M10.5,16.5c-1.241,0-2.25-1.01-2.25-2.25h1.5c0,0.413,0.336,0.75,0.75,0.75
	c0.357,0,0.469-0.115,0.506-0.153c0.284-0.291,0.263-1.075,0.25-1.543L11.25,13h1.5l0.005,0.263c0.021,0.751,0.051,1.885-0.674,2.63
	C11.689,16.296,11.157,16.5,10.5,16.5z"/>
<path style="fill:#333333;" d="M13.513,16.5c-0.657,0-1.189-0.204-1.581-0.607c-0.725-0.745-0.694-1.879-0.674-2.629L11.263,13h1.5
	l-0.006,0.304c-0.013,0.469-0.034,1.252,0.25,1.543C13.043,14.885,13.155,15,13.513,15c0.413,0,0.75-0.337,0.75-0.75h1.5
	C15.763,15.49,14.753,16.5,13.513,16.5z"/>
<path style="fill:#333333;" d="M12,14.599l-0.352-0.186c-1.398-0.742-1.398-1.341-1.398-1.538c0-0.229,0.084-1.375,1.75-1.375
	c1.666,0,1.75,1.146,1.75,1.375c0,0.197,0,0.796-1.398,1.538L12,14.599z"/>
</svg>






