<?xml version="1.0" encoding="iso-8859-1"?>
<svg version="1.1" id="&#x56FE;&#x5C42;_1" xmlns="http://www.w3.org/2000/svg" xmlns:xlink="http://www.w3.org/1999/xlink" x="0px"
	 y="0px" viewBox="0 0 24 24" style="enable-background:new 0 0 24 24;" xml:space="preserve">
<path style="fill:#333333;" d="M15.835,22.171l-1.054-0.886c0.252-0.843,0.793-2.475,1.351-3.704l-0.02-0.028
	c-1.503-2.076-3.957-5.467-7.252-7.073c-0.364,0.782-0.59,1.372-0.611,1.546l-1.446,0.251L7.5,12l-0.742,0.165
	C6.56,11.677,6.065,10.46,5.825,9.056C5.239,8.853,4.546,8.629,3.993,8.45L3.262,8.211c-0.866-0.316-1.749-0.954-1.688-1.82
	c0.069-1,1.271-1.39,1.981-1.56c0.939-1.32,3.503-4.649,8.395-2.205c0.757-0.48,2.194-1.147,3.886-0.297l1.044,0.523l-0.91,0.731
	c-0.019,0.021-0.25,0.284-0.61,1.592c1.883,1.417,4.676,5.176,4.41,11.463c1.242,0.959,2.98,2.613,2.98,4.36v0.994l-4.176-1.192
	L15.835,22.171z M8.137,8.546l0.642,0.258c4.021,1.614,6.854,5.53,8.548,7.87l0.547,0.753l-0.203,0.407
	c-0.306,0.615-0.625,1.433-0.895,2.189l1.649-0.825l2.437,0.696c-0.505-0.805-1.425-1.647-2.305-2.289l-0.332-0.242l0.025-0.41
	c0.412-6.611-2.844-10.043-4.134-10.808L13.638,5.86l0.135-0.542c0.215-0.864,0.411-1.465,0.59-1.891
	c-0.72-0.076-1.353,0.271-1.926,0.682l-0.384,0.276l-0.415-0.229c-4.153-2.291-6.04,0.381-6.947,1.665l-0.249,0.35L4.158,6.233
	C3.672,6.337,3.387,6.442,3.223,6.52C3.352,6.611,3.54,6.716,3.757,6.795l0.698,0.228c0.708,0.229,1.641,0.531,2.302,0.772
	l0.43,0.157l0.057,0.455c0.061,0.483,0.163,0.955,0.28,1.386c0.093-0.198,0.195-0.407,0.305-0.628L8.137,8.546z"/>
<circle style="fill:#333333;" cx="8" cy="5.5" r="1"/>
</svg>






