<?xml version="1.0" encoding="iso-8859-1"?>
<svg version="1.1" id="&#x56FE;&#x5C42;_1" xmlns="http://www.w3.org/2000/svg" xmlns:xlink="http://www.w3.org/1999/xlink" x="0px"
	 y="0px" viewBox="0 0 24 24" style="enable-background:new 0 0 24 24;" xml:space="preserve">
<path style="fill:#333333;" d="M22.666,14.693H1.605v-0.734c0-5.807,4.724-10.531,10.53-10.531c5.807,0,10.53,4.724,10.53,10.531
	V14.693z M3.104,13.225h18.062c-0.375-4.654-4.282-8.327-9.031-8.327S3.479,8.57,3.104,13.225z"/>
<rect x="11.401" y="2.204" style="fill:#333333;" width="1.469" height="1.959"/>
<path style="fill:#333333;" d="M12.136,19.592c-3.105,0-5.632-2.526-5.632-5.633v-0.734h11.265v0.734
	C17.769,17.065,15.242,19.592,12.136,19.592z M8.038,14.693c0.348,1.947,2.053,3.43,4.098,3.43s3.751-1.482,4.099-3.43H8.038z"/>
<rect x="18.749" y="17.729" transform="matrix(0.8193 -0.5733 0.5733 0.8193 -7.1508 14.5324)" style="fill:#333333;" width="1.468" height="1.766"/>
<rect x="3.906" y="17.878" transform="matrix(0.7071 -0.7071 0.7071 0.7071 -11.7582 8.8378)" style="fill:#333333;" width="1.766" height="1.469"/>
<rect x="16.019" y="19.925" transform="matrix(0.8194 -0.5732 0.5732 0.8194 -8.6764 13.2895)" style="fill:#333333;" width="1.468" height="0.98"/>
<rect x="6.957" y="19.68" transform="matrix(0.7071 -0.7071 0.7071 0.7071 -12.2544 11.2453)" style="fill:#333333;" width="0.98" height="1.469"/>
</svg>






