<?xml version="1.0" encoding="iso-8859-1"?>
<svg version="1.1" id="&#x56FE;&#x5C42;_1" xmlns="http://www.w3.org/2000/svg" xmlns:xlink="http://www.w3.org/1999/xlink" x="0px"
	 y="0px" viewBox="0 0 24 24" style="enable-background:new 0 0 24 24;" xml:space="preserve">
<path style="fill:#333333;" d="M15,22.75H4c-0.965,0-1.75-0.785-1.75-1.75V3c0-0.965,0.785-1.75,1.75-1.75h11
	c0.965,0,1.75,0.785,1.75,1.75v18C16.75,21.965,15.965,22.75,15,22.75z M4,2.75C3.862,2.75,3.75,2.862,3.75,3v18
	c0,0.138,0.112,0.25,0.25,0.25h11c0.138,0,0.25-0.112,0.25-0.25V3c0-0.138-0.112-0.25-0.25-0.25H4z"/>
<rect x="7" y="16.25" style="fill:#333333;" width="5" height="1.5"/>
<path style="fill:#333333;" d="M9.5,11.75c-1.792,0-3.25-1.458-3.25-3.25S7.708,5.25,9.5,5.25c0.9,0,1.735,0.36,2.346,1h9.904v4.5
	h-9.904C11.235,11.39,10.4,11.75,9.5,11.75z M9.5,6.75c-0.965,0-1.75,0.785-1.75,1.75s0.785,1.75,1.75,1.75
	c0.556,0,1.066-0.255,1.4-0.7l0.225-0.3h9.125v-1.5h-9.125L10.9,7.45C10.566,7.005,10.056,6.75,9.5,6.75z"/>
</svg>






