<?xml version="1.0" encoding="iso-8859-1"?>
<svg version="1.1" id="&#x56FE;&#x5C42;_1" xmlns="http://www.w3.org/2000/svg" xmlns:xlink="http://www.w3.org/1999/xlink" x="0px"
	 y="0px" viewBox="0 0 24 24" style="enable-background:new 0 0 24 24;" xml:space="preserve">
<g>
	<path style="fill:#333333;" d="M12,16.5c2.485,0,4.5-2.015,4.5-4.5S14.485,7.5,12,7.5S7.5,9.515,7.5,12S9.515,16.5,12,16.5z"/>
	<path style="fill:#333333;" d="M12,17.25c-2.895,0-5.25-2.355-5.25-5.25c0-2.895,2.355-5.25,5.25-5.25
		c2.895,0,5.25,2.355,5.25,5.25C17.25,14.895,14.895,17.25,12,17.25z M12,8.25c-2.068,0-3.75,1.682-3.75,3.75
		c0,2.067,1.682,3.75,3.75,3.75c2.067,0,3.75-1.683,3.75-3.75C15.75,9.932,14.067,8.25,12,8.25z"/>
</g>
</svg>






