<?xml version="1.0" encoding="iso-8859-1"?>
<svg version="1.1" id="&#x56FE;&#x5C42;_1" xmlns="http://www.w3.org/2000/svg" xmlns:xlink="http://www.w3.org/1999/xlink" x="0px"
	 y="0px" viewBox="0 0 24 24" style="enable-background:new 0 0 24 24;" xml:space="preserve">
<path style="fill:#333333;" d="M20.75,12.25H3.25V6c0-1.241,1.009-2.25,2.25-2.25h13c1.24,0,2.25,1.009,2.25,2.25V12.25z
	 M4.75,10.75h14.5V6c0-0.414-0.337-0.75-0.75-0.75h-13C5.086,5.25,4.75,5.586,4.75,6V10.75z"/>
<rect x="2.25" y="17.5" style="fill:#333333;" width="1.5" height="2"/>
<rect x="20.25" y="17.5" style="fill:#333333;" width="1.5" height="2"/>
<path style="fill:#333333;" d="M12.25,12.25h-7.5V10.5c0-1.241,1.009-2.25,2.25-2.25h3c1.241,0,2.25,1.009,2.25,2.25V12.25z
	 M6.25,10.75h4.5V10.5c0-0.414-0.336-0.75-0.75-0.75H7c-0.414,0-0.75,0.336-0.75,0.75V10.75z"/>
<path style="fill:#333333;" d="M19.25,12.25h-7.5V10.5c0-1.241,1.01-2.25,2.25-2.25h3c1.24,0,2.25,1.009,2.25,2.25V12.25z
	 M13.25,10.75h4.5V10.5c0-0.414-0.337-0.75-0.75-0.75h-3c-0.413,0-0.75,0.336-0.75,0.75V10.75z"/>
<path style="fill:#333333;" d="M22.75,18.25H1.25V13c0-1.241,1.009-2.25,2.25-2.25h17c1.24,0,2.25,1.009,2.25,2.25V18.25z
	 M2.75,16.75h18.5V13c0-0.413-0.337-0.75-0.75-0.75h-17c-0.414,0-0.75,0.337-0.75,0.75V16.75z"/>
</svg>






