<?xml version="1.0" encoding="iso-8859-1"?>
<svg version="1.1" id="&#x56FE;&#x5C42;_1" xmlns="http://www.w3.org/2000/svg" xmlns:xlink="http://www.w3.org/1999/xlink" x="0px"
	 y="0px" viewBox="0 0 24 24" style="enable-background:new 0 0 24 24;" xml:space="preserve">
<path style="fill:#333333;" d="M12,22.25C6.348,22.25,1.75,17.652,1.75,12C1.75,6.348,6.348,1.75,12,1.75
	c5.652,0,10.25,4.598,10.25,10.25C22.25,17.652,17.652,22.25,12,22.25z M12,3.25c-4.825,0-8.75,3.925-8.75,8.75
	c0,4.825,3.925,8.75,8.75,8.75c4.825,0,8.75-3.925,8.75-8.75C20.75,7.175,16.825,3.25,12,3.25z"/>
<path style="fill:#333333;" d="M12,16.25c-2.343,0-4.25-1.906-4.25-4.25c0-2.343,1.907-4.25,4.25-4.25c2.344,0,4.25,1.907,4.25,4.25
	C16.25,14.344,14.344,16.25,12,16.25z M12,9.25c-1.517,0-2.75,1.233-2.75,2.75s1.233,2.75,2.75,2.75s2.75-1.233,2.75-2.75
	S13.517,9.25,12,9.25z"/>
<path style="fill:#333333;" d="M8.013,15.076c-0.637,0-1.465-0.228-2.463-0.977c-0.802-0.599-2.046,0.456-2.059,0.467l-0.984-1.131
	c0.799-0.698,2.528-1.596,3.943-0.535c1.4,1.05,2.018,0.568,2.042,0.548L9.53,14.53C9.495,14.566,8.967,15.076,8.013,15.076z"/>
<path style="fill:#333333;" d="M15.124,14.916l-1.248-0.832c0.506-0.762,2.493-2.599,4.419-1.773
	c1.413,0.605,2.367,0.156,2.511-0.023c-0.016,0.02-0.056,0.096-0.056,0.213h1.5c0,0.416-0.252,0.811-0.708,1.112
	c-0.765,0.505-2.175,0.79-3.838,0.077C16.691,13.256,15.338,14.596,15.124,14.916z"/>
</svg>






