<?xml version="1.0" encoding="iso-8859-1"?>
<svg version="1.1" id="&#x56FE;&#x5C42;_1" xmlns="http://www.w3.org/2000/svg" xmlns:xlink="http://www.w3.org/1999/xlink" x="0px"
	 y="0px" viewBox="0 0 24 24" style="enable-background:new 0 0 24 24;" xml:space="preserve">
<path style="fill:#333333;" d="M7,20.75c-3.17,0-5.75-2.579-5.75-5.75c0-2.676,1.816-4.976,4.416-5.594l0.347,1.459
	C4.091,11.322,2.75,13.022,2.75,15c0,2.344,1.907,4.25,4.25,4.25c0.396,0,0.787-0.054,1.162-0.16l0.409,1.443
	C8.063,20.677,7.535,20.75,7,20.75z"/>
<path style="fill:#333333;" d="M16.866,20.75c-0.534,0-1.062-0.073-1.57-0.217l0.408-1.443c0.375,0.106,0.767,0.16,1.162,0.16
	c2.344,0,4.25-1.906,4.25-4.25c0-1.978-1.342-3.678-3.263-4.135l0.348-1.459c2.6,0.618,4.415,2.918,4.415,5.594
	C22.616,18.171,20.037,20.75,16.866,20.75z"/>
<path style="fill:#333333;" d="M18.75,10h-1.5c0-2.895-2.355-5.25-5.25-5.25c-2.895,0-5.25,2.355-5.25,5.25h-1.5
	c0-3.722,3.028-6.75,6.75-6.75C15.722,3.25,18.75,6.278,18.75,10z"/>
<polygon style="fill:#333333;" points="11.997,19.598 8.001,15.589 9.064,14.53 12.003,17.479 15.037,14.468 16.094,15.532 "/>
<rect x="11.25" y="10" style="fill:#333333;" width="1.5" height="6.77"/>
</svg>






