<?xml version="1.0" encoding="iso-8859-1"?>
<svg version="1.1" id="&#x56FE;&#x5C42;_1" xmlns="http://www.w3.org/2000/svg" xmlns:xlink="http://www.w3.org/1999/xlink" x="0px"
	 y="0px" viewBox="0 0 24 24" style="enable-background:new 0 0 24 24;" xml:space="preserve">
<path style="fill:#333333;" d="M20.69,17.771l-0.863-1.227c1.383-0.972,1.968-2.707,1.458-4.318
	c-0.47-1.482-1.943-2.439-3.755-2.439c-0.001,0-0.002,0-0.003,0h-1.743L15.64,9.224c-0.677-2.637-2.949-4.618-5.654-4.93
	C7.284,3.979,4.618,5.395,3.36,7.81c-1.259,2.414-0.892,5.406,0.912,7.445l-1.123,0.994c-2.213-2.501-2.663-6.171-1.119-9.133
	c1.543-2.962,4.807-4.692,8.128-4.312c3.123,0.359,5.774,2.533,6.768,5.483h0.601c0.002,0,0.003,0,0.005,0
	c2.479,0,4.513,1.368,5.184,3.486C23.424,14.012,22.61,16.422,20.69,17.771z"/>
<rect x="11.252" y="11.5" style="fill:#333333;" width="1.5" height="9"/>
<polygon style="fill:#333333;" points="12,21.561 8.288,17.849 9.348,16.788 12,19.439 14.651,16.788 15.712,17.849 "/>
</svg>






