<?xml version="1.0" encoding="iso-8859-1"?>
<svg version="1.1" id="&#x56FE;&#x5C42;_1" xmlns="http://www.w3.org/2000/svg" xmlns:xlink="http://www.w3.org/1999/xlink" x="0px"
	 y="0px" viewBox="0 0 24 24" style="enable-background:new 0 0 24 24;" xml:space="preserve">
<g>
	<defs>
		<rect id="SVGID_1_" width="24" height="24"/>
	</defs>
	<clipPath id="SVGID_00000121983403150937129850000007850135471610319745_">
		<use xlink:href="#SVGID_1_"  style="overflow:visible;"/>
	</clipPath>
	<g style="clip-path:url(#SVGID_00000121983403150937129850000007850135471610319745_);">
		<path style="fill:#333333;" d="M17.541,21.777l-1.061-1.061l1.87-1.87c0.877-0.877,0.877-2.305,0-3.182
			c-0.878-0.878-2.307-0.876-3.183,0l-1.115,1.115l-1.061-1.061l1.115-1.115c1.462-1.462,3.84-1.463,5.304,0
			c1.462,1.462,1.462,3.841,0,5.303L17.541,21.777z"/>
		<path style="fill:#333333;" d="M9.067,13.28L8.007,12.22l3.272-3.272c0.425-0.425,0.659-0.99,0.659-1.591
			s-0.234-1.166-0.659-1.591c-0.85-0.85-2.333-0.851-3.182,0L4.562,9.301L3.501,8.24l3.536-3.535c1.416-1.417,3.888-1.417,5.303,0
			c0.708,0.708,1.099,1.65,1.099,2.651S13.048,9.3,12.34,10.008L9.067,13.28z"/>
		<path style="fill:#333333;" d="M6.506,22.774c-1.002,0-1.944-0.391-2.652-1.099c-1.462-1.462-1.462-3.842,0-5.304l4.153-4.152
			l1.061,1.061l-4.153,4.152c-0.877,0.877-0.877,2.306,0,3.183c0.849,0.85,2.332,0.85,3.182,0l4.883-4.883l1.061,1.061l-4.883,4.883
			C8.45,22.384,7.508,22.774,6.506,22.774z"/>
		<rect x="5.75" y="2" style="fill:#333333;" width="1.5" height="4"/>
		
			<rect x="18.482" y="13" transform="matrix(0.7071 -0.7071 0.7071 0.7071 -3.7916 18.3462)" style="fill:#333333;" width="3.536" height="1.5"/>
	</g>
</g>
</svg>






