<?xml version="1.0" encoding="iso-8859-1"?>
<svg version="1.1" id="&#x56FE;&#x5C42;_1" xmlns="http://www.w3.org/2000/svg" xmlns:xlink="http://www.w3.org/1999/xlink" x="0px"
	 y="0px" viewBox="0 0 24 24" style="enable-background:new 0 0 24 24;" xml:space="preserve">
<path style="fill:#333333;" d="M12,22.75C6.072,22.75,1.25,17.928,1.25,12c0-2.769,1.05-5.398,2.957-7.404
	C6.257,2.438,9.024,1.25,12,1.25c2.862,0,5.557,1.112,7.585,3.132C21.626,6.415,22.75,9.12,22.75,12
	c0,2.879-1.124,5.585-3.165,7.618C17.556,21.638,14.862,22.75,12,22.75z M12,2.75c-2.561,0-4.942,1.022-6.707,2.879
	C3.653,7.355,2.75,9.618,2.75,12c0,5.101,4.149,9.25,9.25,9.25c2.463,0,4.78-0.957,6.526-2.694c1.757-1.75,2.724-4.078,2.724-6.556
	c0-2.479-0.967-4.806-2.724-6.555C16.781,3.707,14.463,2.75,12,2.75z"/>
<path style="fill:#333333;" d="M5.533,19.521L4.33,18.625c1.351-1.812,4.33-4.545,8.281-6.28c3.16-1.388,6.627-1.219,8.489-1.127
	c0.36,0.018,0.664,0.033,0.899,0.033v1.5c-0.254,0-0.583-0.016-0.973-0.034c-1.86-0.092-4.976-0.242-7.812,1.002
	C9.531,15.336,6.774,17.855,5.533,19.521z"/>
<path style="fill:#333333;" d="M15.799,21.083c-0.078-0.345-0.17-0.916-0.285-1.64c-0.321-2.018-0.807-5.065-1.722-7.697
	C12.625,8.392,9.44,4.845,7.741,3.278l1.018-1.103c0.496,0.458,4.894,4.603,6.449,9.078c0.959,2.757,1.478,6.01,1.787,7.953
	c0.108,0.682,0.193,1.22,0.267,1.544L15.799,21.083z"/>
<path style="fill:#333333;" d="M4.218,11.562c-0.958,0-1.732-0.036-2.186-0.063l0.09-1.497c1.054,0.063,6.472,0.309,9.75-1.091
	c2.792-1.192,5.221-3.283,6.389-4.287l0.32-0.274l0.967,1.146L19.239,5.76c-1.225,1.054-3.773,3.246-6.778,4.53
	C9.979,11.35,6.556,11.562,4.218,11.562z"/>
<path style="fill:#333333;" d="M6.893,21.462c-2.177-1.179-3.895-3.085-4.836-5.369l1.387-0.572c0.81,1.967,2.289,3.607,4.164,4.621
	L6.893,21.462z"/>
<path style="fill:#333333;" d="M2.75,12h-1.5c0-2.769,1.05-5.398,2.957-7.404l1.087,1.033C3.653,7.355,2.75,9.618,2.75,12z"/>
<path style="fill:#333333;" d="M5.293,5.629L4.207,4.596C6.257,2.438,9.024,1.25,12,1.25v1.5C9.439,2.75,7.058,3.772,5.293,5.629z"
	/>
<path style="fill:#333333;" d="M22.072,15.763l-1.404-0.525c0.386-1.034,0.582-2.123,0.582-3.237c0-2.479-0.967-4.806-2.724-6.555
	c-0.819-0.816-1.771-1.464-2.827-1.926l0.602-1.374c1.228,0.536,2.332,1.289,3.284,2.237C21.626,6.415,22.75,9.12,22.75,12
	C22.75,13.294,22.522,14.56,22.072,15.763z"/>
<path style="fill:#333333;" d="M12,22.75v-1.5c2.463,0,4.78-0.957,6.526-2.694l1.059,1.062C17.556,21.638,14.862,22.75,12,22.75z"/>
</svg>






