<?xml version="1.0" encoding="iso-8859-1"?>
<svg version="1.1" id="&#x56FE;&#x5C42;_1" xmlns="http://www.w3.org/2000/svg" xmlns:xlink="http://www.w3.org/1999/xlink" x="0px"
	 y="0px" viewBox="0 0 24 24" style="enable-background:new 0 0 24 24;" xml:space="preserve">
<path style="fill:#333333;" d="M17.47,18.53l-3.5-3.5l1.061-1.061l3.5,3.5L17.47,18.53z M8.97,10.03l-3.5-3.5L6.53,5.47l3.5,3.5
	L8.97,10.03z"/>
<path style="fill:#333333;" d="M6.53,18.53L5.47,17.47l3.5-3.5l1.061,1.061L6.53,18.53z M15.03,10.03L13.97,8.97l3.5-3.5L18.53,6.53
	L15.03,10.03z"/>
<path style="fill:#333333;" d="M15.25,15.25h-6.5v-6.5h6.5V15.25z M10.25,13.75h3.5v-3.5h-3.5V13.75z"/>
<path style="fill:#333333;" d="M18,10.25v-1.5c0.546,0,1.074-0.16,1.527-0.463c0.454-0.303,0.805-0.73,1.013-1.234
	c0.209-0.504,0.264-1.054,0.157-1.589c-0.106-0.535-0.367-1.021-0.753-1.408c-0.386-0.386-0.873-0.646-1.408-0.752
	c-0.535-0.107-1.084-0.053-1.589,0.156c-0.504,0.209-0.931,0.559-1.233,1.013C15.41,4.926,15.25,5.454,15.25,6h-1.5
	c0-0.844,0.248-1.661,0.717-2.361c0.468-0.701,1.128-1.242,1.906-1.565c0.778-0.323,1.626-0.407,2.456-0.242
	c0.827,0.164,1.579,0.566,2.176,1.163c0.598,0.598,0.999,1.351,1.163,2.177c0.164,0.827,0.081,1.676-0.241,2.455
	c-0.323,0.78-0.864,1.439-1.565,1.908C19.661,10.002,18.844,10.25,18,10.25z"/>
<path style="fill:#333333;" d="M17.998,22.25c-0.555,0-1.105-0.108-1.625-0.323c-0.779-0.323-1.438-0.864-1.907-1.565
	c-0.468-0.7-0.716-1.518-0.716-2.361h1.5c0,0.546,0.16,1.074,0.463,1.527c0.304,0.454,0.73,0.805,1.234,1.013
	c0.503,0.209,1.054,0.264,1.589,0.157s1.021-0.367,1.408-0.753c0.386-0.387,0.646-0.873,0.753-1.408s0.052-1.085-0.157-1.589
	c-0.208-0.504-0.559-0.931-1.013-1.233C19.074,15.41,18.546,15.25,18,15.25v-1.5c0.844,0,1.661,0.248,2.361,0.717
	c0.701,0.468,1.242,1.127,1.565,1.906c0.322,0.779,0.405,1.629,0.241,2.456c-0.164,0.826-0.566,1.579-1.163,2.176
	s-1.35,0.999-2.176,1.163C18.553,22.223,18.274,22.25,17.998,22.25z"/>
<path style="fill:#333333;" d="M6.002,22.25c-0.277,0-0.555-0.027-0.831-0.082c-0.826-0.164-1.579-0.565-2.177-1.163
	c-0.597-0.597-0.999-1.349-1.163-2.176s-0.081-1.677,0.242-2.456c0.323-0.778,0.864-1.438,1.565-1.907
	C4.339,13.998,5.156,13.75,6,13.75v1.5c-0.546,0-1.074,0.16-1.527,0.463c-0.454,0.304-0.804,0.73-1.013,1.234
	s-0.263,1.054-0.157,1.589s0.367,1.022,0.752,1.408c0.387,0.386,0.874,0.646,1.408,0.753C6,20.804,6.549,20.75,7.053,20.54
	c0.504-0.208,0.931-0.559,1.234-1.013C8.59,19.074,8.75,18.546,8.75,18h1.5c0,0.844-0.248,1.661-0.716,2.361
	c-0.468,0.701-1.128,1.242-1.908,1.565C7.106,22.142,6.556,22.25,6.002,22.25z"/>
<path style="fill:#333333;" d="M6,10.25c-0.844,0-1.661-0.248-2.361-0.716C2.937,9.064,2.396,8.405,2.074,7.626
	C1.75,6.847,1.667,5.998,1.832,5.171c0.164-0.826,0.566-1.579,1.162-2.176c0.598-0.597,1.351-0.999,2.177-1.163
	C6,1.667,6.848,1.751,7.626,2.074s1.438,0.863,1.907,1.565C10.002,4.339,10.25,5.156,10.25,6h-1.5c0-0.546-0.16-1.074-0.463-1.527
	c-0.304-0.455-0.73-0.805-1.234-1.013C6.548,3.25,5.999,3.198,5.464,3.303C4.929,3.409,4.441,3.669,4.055,4.056
	C3.669,4.441,3.409,4.929,3.303,5.463C3.196,5.999,3.25,6.548,3.459,7.052c0.208,0.504,0.559,0.931,1.013,1.234
	C4.926,8.59,5.454,8.75,6,8.75V10.25z"/>
</svg>






