<?xml version="1.0" encoding="iso-8859-1"?>
<svg version="1.1" id="&#x56FE;&#x5C42;_1" xmlns="http://www.w3.org/2000/svg" xmlns:xlink="http://www.w3.org/1999/xlink" x="0px"
	 y="0px" viewBox="0 0 24 24" style="enable-background:new 0 0 24 24;" xml:space="preserve">
<path style="fill:#333333;" d="M15.25,9h-1.5V8c0-0.965-0.785-1.75-1.75-1.75S10.25,7.035,10.25,8v1h-1.5V8
	c0-1.792,1.458-3.25,3.25-3.25S15.25,6.208,15.25,8V9z"/>
<path style="fill:#333333;" d="M14.977,13.25H9.022l-1.538-5h9.031L14.977,13.25z M10.131,11.75h3.738l0.615-2H9.516L10.131,11.75z"
	/>
<path style="fill:#333333;" d="M6.75,15.25h-5v-5h5V15.25z M3.25,13.75h2v-2h-2V13.75z"/>
<path style="fill:#333333;" d="M22.25,15.25h-5v-5h5V15.25z M18.75,13.75h2v-2h-2V13.75z"/>
<rect x="2" y="3.25" style="fill:#333333;" width="6" height="1.5"/>
<rect x="15.25" y="16.234" transform="matrix(0.8682 -0.4961 0.4961 0.8682 -6.9464 10.3428)" style="fill:#333333;" width="1.5" height="4.031"/>
<rect x="5.984" y="17.5" transform="matrix(0.496 -0.8683 0.8683 0.496 -11.8149 16.1446)" style="fill:#333333;" width="4.031" height="1.5"/>
<rect x="16" y="3.25" style="fill:#333333;" width="6" height="1.5"/>
</svg>






