<?xml version="1.0" encoding="iso-8859-1"?>
<svg version="1.1" id="&#x56FE;&#x5C42;_1" xmlns="http://www.w3.org/2000/svg" xmlns:xlink="http://www.w3.org/1999/xlink" x="0px"
	 y="0px" viewBox="0 0 24 24" style="enable-background:new 0 0 24 24;" xml:space="preserve">
<path style="fill:#333333;" d="M10.5,20.75c-2.337,0-4.534-0.91-6.187-2.562C2.66,16.534,1.75,14.337,1.75,12
	s0.91-4.534,2.563-6.187S8.163,3.25,10.5,3.25s4.534,0.91,6.188,2.563C18.34,7.466,19.25,9.663,19.25,12s-0.91,4.534-2.562,6.188
	C15.034,19.84,12.837,20.75,10.5,20.75z M10.5,4.75c-1.937,0-3.757,0.754-5.126,2.124C4.004,8.243,3.25,10.063,3.25,12
	s0.754,3.757,2.124,5.127c1.37,1.369,3.19,2.123,5.126,2.123c1.937,0,3.757-0.754,5.127-2.123c1.369-1.37,2.123-3.19,2.123-5.127
	c0-1.936-0.754-3.757-2.123-5.126C14.257,5.504,12.437,4.75,10.5,4.75z"/>
<path style="fill:#333333;" d="M18.809,20.309l-1.061-1.061c1.936-1.937,3.002-4.511,3.002-7.248c0-2.738-1.066-5.312-3.002-7.248
	l1.061-1.061c2.22,2.22,3.441,5.17,3.441,8.309C22.25,15.138,21.028,18.088,18.809,20.309z"/>
</svg>






