<?xml version="1.0" encoding="iso-8859-1"?>
<svg version="1.1" id="&#x56FE;&#x5C42;_1" xmlns="http://www.w3.org/2000/svg" xmlns:xlink="http://www.w3.org/1999/xlink" x="0px"
	 y="0px" viewBox="0 0 24 24" style="enable-background:new 0 0 24 24;" xml:space="preserve">
<path style="fill:#333333;" d="M12,22.25c-2.337,0-4.534-0.91-6.187-2.562C4.16,18.034,3.25,15.837,3.25,13.5
	s0.91-4.534,2.563-6.187S9.663,4.75,12,4.75s4.534,0.91,6.188,2.563c1.652,1.653,2.562,3.85,2.562,6.187s-0.91,4.534-2.562,6.188
	C16.534,21.34,14.337,22.25,12,22.25z M12,6.25c-1.937,0-3.757,0.754-5.126,2.124C5.504,9.743,4.75,11.563,4.75,13.5
	s0.754,3.757,2.124,5.127c1.37,1.369,3.19,2.123,5.126,2.123c1.937,0,3.757-0.754,5.127-2.123c1.369-1.37,2.123-3.19,2.123-5.127
	c0-1.936-0.754-3.757-2.123-5.126C15.757,7.004,13.937,6.25,12,6.25z"/>
<path style="fill:#333333;" d="M19.248,6.252C17.312,4.316,14.738,3.25,12,3.25c-2.738,0-5.312,1.066-7.248,3.002L3.692,5.191
	C5.911,2.972,8.862,1.75,12,1.75c3.139,0,6.09,1.222,8.309,3.441L19.248,6.252z"/>
</svg>






