<?xml version="1.0" encoding="iso-8859-1"?>
<svg version="1.1" id="&#x56FE;&#x5C42;_1" xmlns="http://www.w3.org/2000/svg" xmlns:xlink="http://www.w3.org/1999/xlink" x="0px"
	 y="0px" viewBox="0 0 24 24" style="enable-background:new 0 0 24 24;" xml:space="preserve">
<path style="fill:#333333;" d="M5.838,22.39l-4.243-4.242l0.424-1.272l5.939-0.849l-0.848,5.939L5.838,22.39z M3.717,18.147
	l2.121,2.121l0.354-2.475L3.717,18.147z"/>
<path style="fill:#333333;" d="M11.318,19.414c-1.729,0-3.457-0.658-4.773-1.974c-1.275-1.274-1.977-2.97-1.977-4.772
	c0-1.803,0.702-3.499,1.977-4.773l4.949-4.95l1.061,1.061l-4.949,4.95c-0.992,0.992-1.538,2.31-1.538,3.713
	c0,1.402,0.546,2.721,1.538,3.712c2.047,2.047,5.378,2.047,7.425,0l4.949-4.95l1.061,1.061l-4.949,4.949
	C14.775,18.756,13.047,19.414,11.318,19.414z"/>
<path style="fill:#333333;" d="M18.688,13.38c-1.676,0-3.703-0.936-5.425-2.657c-1.226-1.226-2.103-2.669-2.47-4.064
	c-0.405-1.537-0.155-2.856,0.703-3.713c0.857-0.858,2.177-1.106,3.713-0.703c1.396,0.367,2.839,1.245,4.064,2.47l0,0l0,0
	c2.677,2.676,3.453,6.092,1.769,7.778C20.439,13.092,19.618,13.38,18.688,13.38z M13.836,3.554c-0.457,0-0.935,0.106-1.28,0.452
	c-0.627,0.627-0.465,1.692-0.312,2.271c0.301,1.142,1.039,2.344,2.08,3.385c2.188,2.188,4.739,2.688,5.657,1.768
	c0.919-0.92,0.419-3.469-1.769-5.657l0,0c-1.041-1.041-2.243-1.78-3.385-2.08C14.566,3.625,14.208,3.554,13.836,3.554z"/>
<circle style="fill:#333333;" cx="15.03" cy="5.699" r="1"/>
<circle style="fill:#333333;" cx="18.566" cy="9.235" r="1"/>
<circle style="fill:#333333;" cx="15.737" cy="8.528" r="1"/>
</svg>






