<?xml version="1.0" encoding="iso-8859-1"?>
<svg version="1.1" id="&#x56FE;&#x5C42;_1" xmlns="http://www.w3.org/2000/svg" xmlns:xlink="http://www.w3.org/1999/xlink" x="0px"
	 y="0px" viewBox="0 0 24 24" style="enable-background:new 0 0 24 24;" xml:space="preserve">
<path style="fill:#333333;" d="M11.301,22.778c-2.639,0-6.489-1.026-8.161-3.598c-0.772-1.188-1.364-3.199,0.203-6.043
	c0.032-0.078,0.192-0.439,1.838-2.639c0.064-0.085,0.058-0.178,0.049-0.226c-0.018-0.088-0.071-0.164-0.147-0.208
	C1.681,8.064,1.38,7.047,1.281,6.712l1-0.909c0.576,0.232,1.729-0.207,3.084-2.203c1.379-2.364,4.02-2.665,5.894-1.941
	c1.917,0.74,3.58,2.728,2.974,5.5c-0.402,1.559-1.218,2.177-1.813,2.629c-0.44,0.334-0.621,0.483-0.679,0.833
	c0.056,0.245,1.064,1.259,2.692,1.544c1.316,0.229,3.838,0.075,5.918-3.54l1.323,0.042c1.105,2.242,1.518,6.035-0.19,9.064
	c-1.136,2.016-3.691,4.521-9.418,5.015C11.825,22.768,11.569,22.778,11.301,22.778z M3.532,7.198
	c0.487,0.409,1.227,0.937,2.312,1.575C6.287,9.033,6.6,9.473,6.701,9.979c0.1,0.499-0.016,1.017-0.319,1.42
	c-1.459,1.949-1.67,2.347-1.697,2.406c-0.999,1.817-1.086,3.332-0.288,4.559c1.422,2.187,5.286,3.079,7.538,2.89
	c4.073-0.352,6.846-1.783,8.24-4.257c1.146-2.034,1.158-4.481,0.643-6.354c-2.992,3.981-6.595,3.118-7.707,2.72
	c-1.531-0.546-3.051-1.778-2.851-2.984c0.157-0.954,0.764-1.414,1.252-1.784c0.512-0.389,0.996-0.755,1.261-1.782
	c0.438-2.007-0.833-3.281-2.055-3.753C9.373,2.539,7.589,2.742,6.65,4.374L6.622,4.42C5.459,6.14,4.393,6.902,3.532,7.198z"/>
<path style="fill:#333333;" d="M14.14,18.496c-0.265,0-0.533-0.017-0.804-0.052c-2.019-0.26-3.688-1.447-4.446-2.509l1.221-0.871
	c0.55,0.771,1.854,1.691,3.417,1.892c0.893,0.114,2.219,0.029,3.492-1.032l0.961,1.152C16.856,18.013,15.542,18.496,14.14,18.496z"
	/>
<circle style="fill:#333333;" cx="8.5" cy="6" r="1"/>
</svg>






