<?xml version="1.0" encoding="iso-8859-1"?>
<svg version="1.1" id="&#x56FE;&#x5C42;_1" xmlns="http://www.w3.org/2000/svg" xmlns:xlink="http://www.w3.org/1999/xlink" x="0px"
	 y="0px" viewBox="0 0 24 24" style="enable-background:new 0 0 24 24;" xml:space="preserve">
<path style="fill:#333333;" d="M5.5,19.25c-1.241,0-2.25-0.92-2.25-2.05V6.8c0-1.13,1.009-2.05,2.25-2.05S7.75,5.669,7.75,6.8v10.4
	C7.75,18.33,6.741,19.25,5.5,19.25z M5.5,6.25c-0.407,0-0.75,0.252-0.75,0.55v10.4c0,0.298,0.343,0.55,0.75,0.55
	s0.75-0.252,0.75-0.55V6.8C6.25,6.502,5.907,6.25,5.5,6.25z"/>
<path style="fill:#333333;" d="M18.5,19.25c-1.24,0-2.25-0.92-2.25-2.05V6.8c0-1.13,1.01-2.05,2.25-2.05s2.25,0.919,2.25,2.05v10.4
	C20.75,18.33,19.74,19.25,18.5,19.25z M18.5,6.25c-0.406,0-0.75,0.252-0.75,0.55v10.4c0,0.298,0.344,0.55,0.75,0.55
	s0.75-0.252,0.75-0.55V6.8C19.25,6.502,18.906,6.25,18.5,6.25z"/>
<path style="fill:#333333;" d="M2.5,16.75c-1.241,0-2.25-0.935-2.25-2.083V9.333c0-1.149,1.009-2.083,2.25-2.083
	s2.25,0.935,2.25,2.083v5.333C4.75,15.815,3.741,16.75,2.5,16.75z M2.5,8.75c-0.407,0-0.75,0.267-0.75,0.583v5.333
	c0,0.316,0.343,0.583,0.75,0.583s0.75-0.267,0.75-0.583V9.333C3.25,9.017,2.907,8.75,2.5,8.75z"/>
<path style="fill:#333333;" d="M21.5,16.75c-1.24,0-2.25-0.935-2.25-2.083V9.333c0-1.149,1.01-2.083,2.25-2.083
	s2.25,0.935,2.25,2.083v5.333C23.75,15.815,22.74,16.75,21.5,16.75z M21.5,8.75c-0.406,0-0.75,0.267-0.75,0.583v5.333
	c0,0.316,0.344,0.583,0.75,0.583s0.75-0.267,0.75-0.583V9.333C22.25,9.017,21.906,8.75,21.5,8.75z"/>
<path style="fill:#333333;" d="M17.75,14.25H6.25v-4.5h11.5V14.25z M7.75,12.75h8.5v-1.5h-8.5V12.75z"/>
</svg>






