<?xml version="1.0" encoding="iso-8859-1"?>
<svg version="1.1" id="&#x56FE;&#x5C42;_1" xmlns="http://www.w3.org/2000/svg" xmlns:xlink="http://www.w3.org/1999/xlink" x="0px"
	 y="0px" viewBox="0 0 24 24" style="enable-background:new 0 0 24 24;" xml:space="preserve">
<path style="fill:#333333;" d="M20.181,17.75H3.82c-0.832,0-1.553-0.592-1.716-1.407l-0.82-4.099
	c-0.022-0.11-0.034-0.227-0.034-0.343V8c0-0.965,0.785-1.75,1.75-1.75h18c0.965,0,1.75,0.785,1.75,1.75v3.901
	c0,0.115-0.012,0.229-0.033,0.34l-0.82,4.103C21.732,17.158,21.011,17.75,20.181,17.75z M3,7.75C2.862,7.75,2.75,7.862,2.75,8v3.901
	l0.825,4.148c0.023,0.117,0.126,0.201,0.245,0.201h16.361c0.118,0,0.222-0.085,0.245-0.201l0.819-4.099L21.25,8
	c0-0.138-0.112-0.25-0.25-0.25H3z"/>
<rect x="5" y="11.25" style="fill:#333333;" width="3" height="1.5"/>
<rect x="10.5" y="9.75" style="fill:#333333;" width="1" height="1.5"/>
<rect x="10.5" y="12.75" style="fill:#333333;" width="1" height="1.5"/>
<rect x="14" y="9.75" style="fill:#333333;" width="1" height="1.5"/>
<rect x="14" y="12.75" style="fill:#333333;" width="1" height="1.5"/>
<rect x="17.5" y="9.75" style="fill:#333333;" width="1" height="1.5"/>
<rect x="17.5" y="12.75" style="fill:#333333;" width="1" height="1.5"/>
</svg>






