<?xml version="1.0" encoding="iso-8859-1"?>
<svg version="1.1" id="&#x56FE;&#x5C42;_1" xmlns="http://www.w3.org/2000/svg" xmlns:xlink="http://www.w3.org/1999/xlink" x="0px"
	 y="0px" viewBox="0 0 24 24" style="enable-background:new 0 0 24 24;" xml:space="preserve">
<path style="fill:#333333;" d="M12,22.75C6.072,22.75,1.25,17.928,1.25,12S6.072,1.25,12,1.25S22.75,6.072,22.75,12
	S17.928,22.75,12,22.75z M12,2.75c-5.101,0-9.25,4.149-9.25,9.25s4.149,9.25,9.25,9.25s9.25-4.149,9.25-9.25S17.101,2.75,12,2.75z"
	/>
<rect x="2" y="11.25" style="fill:#333333;" width="20" height="1.5"/>
<path style="fill:#333333;" d="M12,22.75c-3.085,0-4.75-5.539-4.75-10.75C7.25,6.789,8.915,1.25,12,1.25
	c3.085,0,4.75,5.539,4.75,10.75C16.75,17.211,15.085,22.75,12,22.75z M12,2.75c-1.534,0-3.25,3.956-3.25,9.25s1.716,9.25,3.25,9.25
	s3.25-3.956,3.25-9.25S13.534,2.75,12,2.75z"/>
<path style="fill:#333333;" d="M12,8.75c-2.871,0-5.571-1.118-7.602-3.148l1.061-1.061C7.207,6.288,9.529,7.25,12,7.25
	s4.794-0.962,6.541-2.709l1.061,1.061C17.571,7.632,14.872,8.75,12,8.75z"/>
<path style="fill:#333333;" d="M5.459,19.459l-1.061-1.061c2.031-2.03,4.73-3.148,7.602-3.148c2.872,0,5.571,1.118,7.602,3.148
	l-1.061,1.061c-1.747-1.747-4.07-2.709-6.541-2.709S7.207,17.712,5.459,19.459z"/>
</svg>






