<?xml version="1.0" encoding="iso-8859-1"?>
<svg version="1.1" id="&#x56FE;&#x5C42;_1" xmlns="http://www.w3.org/2000/svg" xmlns:xlink="http://www.w3.org/1999/xlink" x="0px"
	 y="0px" viewBox="0 0 24 24" style="enable-background:new 0 0 24 24;" xml:space="preserve">
<path style="fill:#333333;" d="M12.231,22.45c-1.212,0-2.498-0.248-3.969-0.738C4.965,20.612,2.75,16.837,2.75,14
	c0-1.677,1.92-2.633,3-3.038V7.5c0-1.378,1.122-2.5,2.5-2.5c0.429,0,0.834,0.109,1.188,0.3c0.375-0.909,1.27-1.55,2.312-1.55
	c1.043,0,1.938,0.642,2.312,1.55c0.646-0.35,1.511-0.388,2.188-0.091V3.75c0-1.378,1.121-2.5,2.5-2.5s2.5,1.122,2.5,2.5v10.366
	c0,1.502-0.401,2.852-1.16,3.905c-1.082,1.5-2.168,2.556-3.229,3.137C15.277,22.024,13.817,22.45,12.231,22.45z M8.25,6.5
	c-0.551,0-1,0.449-1,1v3.751c0,0.467-0.299,0.883-0.745,1.034C5.382,12.665,4.25,13.342,4.25,14c0,2.267,1.843,5.407,4.487,6.288
	c2.983,0.995,4.99,0.876,7.402-0.446l0,0c0.852-0.466,1.797-1.398,2.733-2.697c0.573-0.796,0.877-1.844,0.877-3.028V3.75
	c0-0.551-0.448-1-1-1s-1,0.449-1,1V7.5h-1.5c0-0.551-0.448-1-1-1s-1,0.449-1,1h-1.5V6.25c0-0.551-0.448-1-1-1c-0.551,0-1,0.449-1,1
	V7.5h-1.5C9.25,6.949,8.801,6.5,8.25,6.5z"/>
</svg>






