<?xml version="1.0" encoding="iso-8859-1"?>
<svg version="1.1" id="&#x56FE;&#x5C42;_1" xmlns="http://www.w3.org/2000/svg" xmlns:xlink="http://www.w3.org/1999/xlink" x="0px"
	 y="0px" viewBox="0 0 24 24" style="enable-background:new 0 0 24 24;" xml:space="preserve">
<path style="fill:none;" d="M21.5,4.5v4v7v4H17v-4h4.5v-7H17v-4H21.5z"/>
<path style="fill:none;" d="M2.5,8.5v-4H7v4H2.5v7H7v4H2.5v-4V8.5z"/>
<path style="fill:#333333;" d="M22.25,20.25H17V19.5v0.75h-2v-1.5h1.25v-2.5H15v-1.5h2v0.75v-0.75h3.75v-5.5H17V8.5v0.75h-2v-1.5
	h1.25v-2.5H15v-1.5h2V4.5V3.75h5.25V20.25z M17.75,18.75h3v-2.5h-3V18.75z M17.75,7.75h3v-2.5h-3V7.75z M9,20.25H1.75V3.75H9v1.5
	H7.75v2.5H9v1.5H3.25v5.5H9v1.5H7.75v2.5H9V20.25z M3.25,18.75h3v-2.5h-3V18.75z M3.25,7.75h3v-2.5h-3V7.75z"/>
<rect x="11.25" y="3.5" style="fill:#333333;" width="1.5" height="2"/>
<rect x="11.25" y="8.5" style="fill:#333333;" width="1.5" height="2"/>
<rect x="11.25" y="13.5" style="fill:#333333;" width="1.5" height="2"/>
<rect x="11.25" y="18.5" style="fill:#333333;" width="1.5" height="2"/>
</svg>






