<?xml version="1.0" encoding="iso-8859-1"?>
<svg version="1.1" id="&#x56FE;&#x5C42;_1" xmlns="http://www.w3.org/2000/svg" xmlns:xlink="http://www.w3.org/1999/xlink" x="0px"
	 y="0px" viewBox="0 0 24 24" style="enable-background:new 0 0 24 24;" xml:space="preserve">
<path style="fill:#333333;" d="M12,9.75c-2.343,0-4.25-1.907-4.25-4.25S9.657,1.25,12,1.25c2.344,0,4.25,1.907,4.25,4.25
	S14.344,9.75,12,9.75z M12,2.75c-1.517,0-2.75,1.233-2.75,2.75S10.483,8.25,12,8.25s2.75-1.233,2.75-2.75S13.517,2.75,12,2.75z"/>
<path style="fill:#333333;" d="M2.75,20.5h-1.5c0-4.825,4.374-8.75,9.75-8.75v1.5C6.451,13.25,2.75,16.502,2.75,20.5z"/>
<path style="fill:#333333;" d="M15.811,21.75H12.75v-3.061l5.75-5.75L21.561,16L15.811,21.75z M14.25,20.25h0.939l4.25-4.25
	L18.5,15.061l-4.25,4.25V20.25z"/>
</svg>






