<?xml version="1.0" encoding="iso-8859-1"?>
<svg version="1.1" id="&#x56FE;&#x5C42;_1" xmlns="http://www.w3.org/2000/svg" xmlns:xlink="http://www.w3.org/1999/xlink" x="0px"
	 y="0px" viewBox="0 0 24 24" style="enable-background:new 0 0 24 24;" xml:space="preserve">
<path style="fill:#333333;" d="M18.5,22.75h-14c-0.965,0-1.75-0.785-1.75-1.75V3c0-0.965,0.785-1.75,1.75-1.75h10v1.5h-10
	C4.362,2.75,4.25,2.862,4.25,3v18c0,0.138,0.112,0.25,0.25,0.25h14c0.138,0,0.25-0.112,0.25-0.25V10.002h1.5V21
	C20.25,21.965,19.465,22.75,18.5,22.75z"/>
<rect x="6.5" y="8.25" style="fill:#333333;" width="4" height="1.5"/>
<rect x="6.5" y="13.25" style="fill:#333333;" width="6" height="1.5"/>
<rect x="13.26" y="5.249" transform="matrix(0.7071 -0.7071 0.7071 0.7071 0.8838 14.1322)" style="fill:#333333;" width="8.482" height="1.5"/>
</svg>






