<?xml version="1.0" encoding="iso-8859-1"?>
<svg version="1.1" id="&#x56FE;&#x5C42;_1" xmlns="http://www.w3.org/2000/svg" xmlns:xlink="http://www.w3.org/1999/xlink" x="0px"
	 y="0px" viewBox="0 0 24 24" style="enable-background:new 0 0 24 24;" xml:space="preserve">
<path style="fill:#333333;" d="M20,21.75H4c-0.965,0-1.75-0.785-1.75-1.75V4c0-0.965,0.785-1.75,1.75-1.75h7v1.5H4
	C3.862,3.75,3.75,3.862,3.75,4v16c0,0.138,0.112,0.25,0.25,0.25h16c0.138,0,0.25-0.112,0.25-0.25v-7h1.5v7
	C21.75,20.965,20.965,21.75,20,21.75z"/>
<path style="fill:#333333;" d="M10.969,17.75H6.25v-4.7L17.348,1.939l4.713,4.715L10.969,17.75z M7.75,16.25h2.598l9.591-9.596
	l-2.592-2.593l-9.598,9.61V16.25z"/>
</svg>






