<?xml version="1.0" encoding="iso-8859-1"?>
<svg version="1.1" id="&#x56FE;&#x5C42;_1" xmlns="http://www.w3.org/2000/svg" xmlns:xlink="http://www.w3.org/1999/xlink" x="0px"
	 y="0px" viewBox="0 0 24 24" style="enable-background:new 0 0 24 24;" xml:space="preserve">
<path style="fill:#333333;" d="M19,22.75h-3.25v-1.5H19c0.138,0,0.25-0.112,0.25-0.25v-4.5h1.5V21
	C20.75,21.965,19.965,22.75,19,22.75z"/>
<path style="fill:#333333;" d="M8,22.75H5c-0.965,0-1.75-0.785-1.75-1.75V3c0-0.965,0.785-1.75,1.75-1.75h14
	c0.965,0,1.75,0.785,1.75,1.75v5h-1.5V3c0-0.138-0.112-0.25-0.25-0.25H5C4.862,2.75,4.75,2.862,4.75,3v18
	c0,0.138,0.112,0.25,0.25,0.25h3V22.75z"/>
<rect x="8" y="7.25" style="fill:#333333;" width="7" height="1.5"/>
<rect x="8.995" y="16" transform="matrix(0.629 -0.7774 0.7774 0.629 -7.1782 18.4592)" style="fill:#333333;" width="13.509" height="1.5"/>
<rect x="8" y="11.25" style="fill:#333333;" width="4" height="1.5"/>
</svg>






