<?xml version="1.0" encoding="iso-8859-1"?>
<svg version="1.1" id="&#x56FE;&#x5C42;_1" xmlns="http://www.w3.org/2000/svg" xmlns:xlink="http://www.w3.org/1999/xlink" x="0px"
	 y="0px" viewBox="0 0 24 24" style="enable-background:new 0 0 24 24;" xml:space="preserve">
<path style="fill:#333333;" d="M11.858,21.604l-3.543-5.149l-6.232-0.696l-0.51-1.204l3.824-4.944L4.137,3.499L5.122,2.64
	l5.908,2.094l5.453-3.083l1.119,0.674l-0.174,6.237l4.629,4.209l-0.294,1.274l-6.016,1.763l-2.59,5.684L11.858,21.604z
	 M3.576,14.417l5.586,0.624l3.181,4.622l2.325-5.102l5.392-1.58l-4.15-3.773l0.156-5.598l-4.892,2.766L5.875,4.499l1.13,5.484
	L3.576,14.417z"/>
<rect x="19.339" y="17.195" transform="matrix(0.7055 -0.7087 0.7087 0.7055 -8.2705 20.1304)" style="fill:#333333;" width="1.5" height="5.644"/>
</svg>






