<?xml version="1.0" encoding="iso-8859-1"?>
<svg version="1.1" id="&#x56FE;&#x5C42;_1" xmlns="http://www.w3.org/2000/svg" xmlns:xlink="http://www.w3.org/1999/xlink" x="0px"
	 y="0px" viewBox="0 0 24 24" style="enable-background:new 0 0 24 24;" xml:space="preserve">
<path style="fill:#333333;" d="M19,22.25H5c-0.965,0-1.75-0.785-1.75-1.75v-17c0-0.965,0.785-1.75,1.75-1.75h5v1.5H5
	c-0.138,0-0.25,0.112-0.25,0.25v17c0,0.138,0.112,0.25,0.25,0.25h14c0.138,0,0.25-0.112,0.25-0.25v-8.125h1.5V20.5
	C20.75,21.465,19.965,22.25,19,22.25z"/>
<polygon style="fill:#333333;" points="20.75,8.5 19.25,8.5 19.25,3.25 14,3.25 14,1.75 20.75,1.75 "/>
<rect x="8.636" y="6.75" transform="matrix(0.7071 -0.7071 0.7071 0.7071 -0.9099 12.8033)" style="fill:#333333;" width="12.728" height="1.5"/>
</svg>






