<?xml version="1.0" encoding="iso-8859-1"?>
<svg version="1.1" id="&#x56FE;&#x5C42;_1" xmlns="http://www.w3.org/2000/svg" xmlns:xlink="http://www.w3.org/1999/xlink" x="0px"
	 y="0px" viewBox="0 0 24 24" style="enable-background:new 0 0 24 24;" xml:space="preserve">
<path style="fill:#333333;" d="M19.5,21.75h-15c-1.241,0-2.25-1.01-2.25-2.25v-15c0-1.241,1.009-2.25,2.25-2.25h5v1.5h-5
	c-0.414,0-0.75,0.336-0.75,0.75v15c0,0.413,0.336,0.75,0.75,0.75h15c0.413,0,0.75-0.337,0.75-0.75v-5h1.5v5
	C21.75,20.74,20.74,21.75,19.5,21.75z"/>
<polygon style="fill:#333333;" points="20.288,9.737 18.525,4.449 13.237,6.211 12.763,4.789 19.475,2.551 21.712,9.263 "/>
<path style="fill:#333333;" d="M10.278,15.196l-0.557-1.393c4.65-1.86,6.1-3.139,8.566-10.541l1.424,0.475
	C17.104,11.562,15.453,13.126,10.278,15.196z"/>
</svg>






