<?xml version="1.0" encoding="iso-8859-1"?>
<svg version="1.1" id="&#x56FE;&#x5C42;_1" xmlns="http://www.w3.org/2000/svg" xmlns:xlink="http://www.w3.org/1999/xlink" x="0px"
	 y="0px" viewBox="0 0 24 24" style="enable-background:new 0 0 24 24;" xml:space="preserve">
<path style="fill:#333333;" d="M8.5,18.75c-3.974,0-6.75-3.159-6.75-7.684c0-5.872,3.49-9.816,6.75-9.816s6.75,3.944,6.75,9.816
	C15.25,15.591,12.475,18.75,8.5,18.75z M8.5,2.75c-2.483,0-5.25,3.416-5.25,8.316c0,3.698,2.11,6.184,5.25,6.184
	s5.25-2.485,5.25-6.184C13.75,6.166,10.983,2.75,8.5,2.75z"/>
<path style="fill:#333333;" d="M13.566,22.75c-3.548,0-6.115-1.762-6.7-4.599l1.469-0.303c0.433,2.098,2.438,3.401,5.231,3.401
	c4.625,0,7.184-2.513,7.184-4.25c0-1.811-2.534-3.938-6.306-4.218l0.111-1.496c4.816,0.358,7.694,3.187,7.694,5.714
	C22.25,19.777,18.761,22.75,13.566,22.75z"/>
</svg>






