<?xml version="1.0" encoding="iso-8859-1"?>
<svg version="1.1" id="&#x56FE;&#x5C42;_1" xmlns="http://www.w3.org/2000/svg" xmlns:xlink="http://www.w3.org/1999/xlink" x="0px"
	 y="0px" viewBox="0 0 24 24" style="enable-background:new 0 0 24 24;" xml:space="preserve">
<path style="fill:#333333;" d="M12,17.75c-3.17,0-5.75-2.579-5.75-5.75c0-3.17,2.58-5.75,5.75-5.75c3.171,0,5.75,2.58,5.75,5.75
	C17.75,15.171,15.171,17.75,12,17.75z M12,7.75c-2.343,0-4.25,1.907-4.25,4.25c0,2.344,1.907,4.25,4.25,4.25
	c2.344,0,4.25-1.906,4.25-4.25C16.25,9.657,14.344,7.75,12,7.75z"/>
<path style="fill:#333333;" d="M12,22.75C6.072,22.75,1.25,17.928,1.25,12S6.072,1.25,12,1.25S22.75,6.072,22.75,12
	c0,1.385-0.26,2.732-0.771,4.004c-0.382,0.951-1.237,1.047-1.862,1.118c-0.628,0.07-1.277,0.144-1.958,0.874
	c-0.664,0.712-0.704,1.325-0.743,1.919c-0.042,0.631-0.099,1.494-1.106,1.936C14.949,22.447,13.499,22.75,12,22.75z M12,2.75
	c-5.101,0-9.25,4.149-9.25,9.25s4.149,9.25,9.25,9.25c1.29,0,2.538-0.26,3.708-0.772c0.149-0.066,0.173-0.076,0.211-0.661
	c0.046-0.692,0.114-1.739,1.143-2.843c1.06-1.136,2.159-1.261,2.888-1.343c0.59-0.066,0.604-0.099,0.638-0.186
	c0.44-1.094,0.663-2.253,0.663-3.445C21.25,6.899,17.101,2.75,12,2.75z"/>
<path style="fill:#333333;" d="M11.371,14.739c-0.086-0.016-0.855-0.162-1.401-0.709s-0.694-1.315-0.708-1.401l1.477-0.264
	c0.019,0.101,0.114,0.426,0.292,0.604s0.504,0.273,0.604,0.292L11.371,14.739z"/>
</svg>






