<?xml version="1.0" encoding="iso-8859-1"?>
<svg version="1.1" id="&#x56FE;&#x5C42;_1" xmlns="http://www.w3.org/2000/svg" xmlns:xlink="http://www.w3.org/1999/xlink" x="0px"
	 y="0px" viewBox="0 0 24 24" style="enable-background:new 0 0 24 24;" xml:space="preserve">
<path style="fill:#333333;" d="M7.836,21.748c-1.381,0-2.685-0.375-3.747-1.11c-1.509-1.046-2.339-2.68-2.339-4.6
	c0-3.261,2.348-4.066,4.234-4.714c0.791-0.271,1.537-0.527,2.066-0.924c1.872-1.404,3.807-4.287,3.826-4.316l1.248,0.832
	c-0.085,0.127-2.095,3.125-4.174,4.684c-0.719,0.539-1.614,0.846-2.479,1.143c-1.997,0.685-3.22,1.211-3.221,3.295
	c0,1.414,0.602,2.609,1.694,3.366c1.393,0.967,3.372,1.114,5.293,0.394c3.118-1.169,4.228-3.637,4.494-4.364
	c0.033-0.09,0.06-0.179,0.086-0.267l1.966-6.388l1.434,0.441l-1.94,6.307c-0.06,0.194-0.095,0.309-0.138,0.423
	c-0.32,0.878-1.657,3.858-5.375,5.252C9.789,21.568,8.794,21.748,7.836,21.748z"/>
<path style="fill:#333333;" d="M18.975,12.614L17.14,9.383l-2.452,0.701c-0.661,0.188-1.354-0.196-1.545-0.857L12.45,6.805
	L8.554,7.169L7.822,6.07c0.041-0.076,1.016-1.875,3.298-3.217c2.508-1.474,5.42-0.805,6.766,0.003
	c1.551,0.93,2.593,2.772,2.86,5.056c0.196,1.69-0.361,4.372-0.385,4.485L18.975,12.614z M17.261,7.838
	c0.441,0,0.858,0.234,1.085,0.632L19.215,10c0.069-0.663,0.104-1.366,0.041-1.913c-0.209-1.791-1.01-3.265-2.142-3.943
	C16.039,3.5,13.706,3.074,11.88,4.146c-0.739,0.435-1.316,0.928-1.746,1.369l2.383-0.223c0.612-0.054,1.155,0.324,1.319,0.903
	l0.68,2.377l2.4-0.686C17.03,7.854,17.146,7.838,17.261,7.838z M12.394,6.605c0,0,0,0.001,0,0.001V6.605z"/>
<rect x="17.919" y="2.75" transform="matrix(0.9486 -0.3164 0.3164 0.9486 -0.1055 6.3501)" style="fill:#333333;" width="3.162" height="1.5"/>
</svg>






