<?xml version="1.0" encoding="iso-8859-1"?>
<svg version="1.1" id="&#x56FE;&#x5C42;_1" xmlns="http://www.w3.org/2000/svg" xmlns:xlink="http://www.w3.org/1999/xlink" x="0px"
	 y="0px" viewBox="0 0 24 24" style="enable-background:new 0 0 24 24;" xml:space="preserve">
<path style="fill:#333333;" d="M6.146,22.382l-1.291-0.764C7.874,16.508,9.75,9.757,9.75,4h1.5
	C11.25,10.01,9.294,17.054,6.146,22.382z"/>
<path style="fill:#333333;" d="M17.854,22.382C14.706,17.054,12.75,10.01,12.75,4h1.5c0,5.757,1.876,12.508,4.896,17.618
	L17.854,22.382z"/>
<rect x="2" y="21.25" style="fill:#333333;" width="20" height="1.5"/>
<rect x="7" y="14.25" style="fill:#333333;" width="10" height="1.5"/>
<rect x="8.5" y="9.75" style="fill:#333333;" width="7" height="1.5"/>
<rect x="10" y="3.25" style="fill:#333333;" width="4" height="1.5"/>
<rect x="11.25" y="2" style="fill:#333333;" width="1.5" height="2"/>
<path style="fill:#333333;" d="M9.72,22.209l-1.441-0.417c0.047-0.163,0.48-1.612,1.19-2.322c0.543-0.543,1.22-1.22,2.53-1.22
	s1.987,0.677,2.53,1.22c0.797,0.797,1.159,2.193,1.198,2.351l-1.456,0.36c-0.079-0.314-0.377-1.225-0.803-1.65
	c-0.47-0.47-0.78-0.78-1.47-0.78s-1,0.311-1.47,0.78C10.2,20.861,9.858,21.735,9.72,22.209z"/>
</svg>






