<?xml version="1.0" encoding="iso-8859-1"?>
<svg version="1.1" id="&#x56FE;&#x5C42;_1" xmlns="http://www.w3.org/2000/svg" xmlns:xlink="http://www.w3.org/1999/xlink" x="0px"
	 y="0px" viewBox="0 0 24 24" style="enable-background:new 0 0 24 24;" xml:space="preserve">
<path style="fill:#333333;" d="M17,19.75H7c-0.965,0-1.75-0.785-1.75-1.75v-7c0-0.965,0.785-1.75,1.75-1.75h10
	c0.965,0,1.75,0.785,1.75,1.75v7C18.75,18.965,17.965,19.75,17,19.75z M7,10.75c-0.138,0-0.25,0.112-0.25,0.25v7
	c0,0.138,0.112,0.25,0.25,0.25h10c0.138,0,0.25-0.112,0.25-0.25v-7c0-0.138-0.112-0.25-0.25-0.25H7z"/>
<path style="fill:#333333;" d="M15.75,10h-1.5V7c0-1.554-1.13-2.25-2.25-2.25S9.75,5.446,9.75,7v3h-1.5V7
	c0-2.173,1.577-3.75,3.75-3.75S15.75,4.827,15.75,7V10z"/>
<rect x="11.25" y="14" style="fill:#333333;" width="1.5" height="1"/>
<rect x="2.25" y="9" style="fill:#333333;" width="1.5" height="6"/>
<rect x="20.25" y="9" style="fill:#333333;" width="1.5" height="6"/>
</svg>






