<?xml version="1.0" encoding="iso-8859-1"?>
<svg version="1.1" id="&#x56FE;&#x5C42;_1" xmlns="http://www.w3.org/2000/svg" xmlns:xlink="http://www.w3.org/1999/xlink" x="0px"
	 y="0px" viewBox="0 0 24 24" style="enable-background:new 0 0 24 24;" xml:space="preserve">
<path style="fill:#333333;" d="M15,22.75H4c-0.965,0-1.75-0.785-1.75-1.75V3c0-0.965,0.785-1.75,1.75-1.75h11
	c0.965,0,1.75,0.785,1.75,1.75v18C16.75,21.965,15.965,22.75,15,22.75z M4,2.75C3.862,2.75,3.75,2.862,3.75,3v18
	c0,0.138,0.112,0.25,0.25,0.25h11c0.138,0,0.25-0.112,0.25-0.25V3c0-0.138-0.112-0.25-0.25-0.25H4z"/>
<path style="fill:#333333;" d="M20,19.75h-8c-1.517,0-2.75-1.233-2.75-2.75s1.233-2.75,2.75-2.75h8c1.517,0,2.75,1.233,2.75,2.75
	S21.517,19.75,20,19.75z M12,15.75c-0.689,0-1.25,0.561-1.25,1.25s0.561,1.25,1.25,1.25h8c0.689,0,1.25-0.561,1.25-1.25
	s-0.561-1.25-1.25-1.25H12z"/>
<circle style="fill:#333333;" cx="6" cy="6" r="1"/>
<circle style="fill:#333333;" cx="6" cy="9" r="1"/>
<circle style="fill:#333333;" cx="6" cy="12" r="1"/>
<circle style="fill:#333333;" cx="9.5" cy="6" r="1"/>
<circle style="fill:#333333;" cx="9.5" cy="9" r="1"/>
<circle style="fill:#333333;" cx="9.5" cy="12" r="1"/>
<circle style="fill:#333333;" cx="13" cy="6" r="1"/>
<circle style="fill:#333333;" cx="13" cy="9" r="1"/>
<circle style="fill:#333333;" cx="13" cy="12" r="1"/>
</svg>






