<?xml version="1.0" encoding="iso-8859-1"?>
<svg version="1.1" id="&#x56FE;&#x5C42;_1" xmlns="http://www.w3.org/2000/svg" xmlns:xlink="http://www.w3.org/1999/xlink" x="0px"
	 y="0px" viewBox="0 0 24 24" style="enable-background:new 0 0 24 24;" xml:space="preserve">
<path style="fill:#333333;" d="M17,19.75H7c-0.965,0-1.75-0.785-1.75-1.75v-7c0-0.965,0.785-1.75,1.75-1.75h10
	c0.965,0,1.75,0.785,1.75,1.75v7C18.75,18.965,17.965,19.75,17,19.75z M7,10.75c-0.138,0-0.25,0.112-0.25,0.25v7
	c0,0.138,0.112,0.25,0.25,0.25h10c0.138,0,0.25-0.112,0.25-0.25v-7c0-0.138-0.112-0.25-0.25-0.25H7z"/>
<path style="fill:#333333;" d="M9.75,10h-1.5V7c0-2.173,1.577-3.75,3.75-3.75c1.135,0,2.181,0.459,2.87,1.261
	c0.314,0.365,0.55,0.791,0.699,1.265l-1.432,0.449C14.051,5.947,13.915,5.7,13.734,5.49C13.323,5.013,12.708,4.75,12,4.75
	c-1.12,0-2.25,0.696-2.25,2.25V10z"/>
<rect x="11.25" y="14" style="fill:#333333;" width="1.5" height="1"/>
<rect x="2.25" y="9" style="fill:#333333;" width="1.5" height="6"/>
<rect x="20.25" y="9" style="fill:#333333;" width="1.5" height="6"/>
</svg>






