<?xml version="1.0" encoding="iso-8859-1"?>
<svg version="1.1" id="&#x56FE;&#x5C42;_1" xmlns="http://www.w3.org/2000/svg" xmlns:xlink="http://www.w3.org/1999/xlink" x="0px"
	 y="0px" viewBox="0 0 24 24" style="enable-background:new 0 0 24 24;" xml:space="preserve">
<path style="fill:#333333;" d="M12,22.75C6.072,22.75,1.25,17.928,1.25,12S6.072,1.25,12,1.25S22.75,6.072,22.75,12
	S17.928,22.75,12,22.75z M12,2.75c-5.101,0-9.25,4.149-9.25,9.25s4.149,9.25,9.25,9.25s9.25-4.149,9.25-9.25S17.101,2.75,12,2.75z"
	/>
<polygon style="fill:#333333;" points="13.134,17.802 11.708,17.623 10.403,9.806 8.9,14.816 5.5,14.816 5.5,13.316 7.784,13.316 
	9.894,6.285 11.352,6.376 12.772,14.892 14.482,10.994 16.771,13.316 18.5,13.316 18.5,14.816 16.142,14.816 14.967,13.623 "/>
</svg>






