<?xml version="1.0" encoding="iso-8859-1"?>
<svg version="1.1" id="&#x56FE;&#x5C42;_1" xmlns="http://www.w3.org/2000/svg" xmlns:xlink="http://www.w3.org/1999/xlink" x="0px"
	 y="0px" viewBox="0 0 24 24" style="enable-background:new 0 0 24 24;" xml:space="preserve">
<path style="fill:#333333;" d="M19.558,13.25H9.25v-9.5h10.599c0.762,0,1.495,0.32,2.014,0.877c0.519,0.558,0.784,1.313,0.729,2.073
	l-0.292,4C22.195,12.13,20.991,13.25,19.558,13.25z M10.75,11.75h8.808c0.651,0,1.199-0.509,1.246-1.159l0.292-4
	c0.025-0.35-0.093-0.685-0.332-0.942C20.524,5.392,20.2,5.25,19.849,5.25H10.75V11.75z"/>
<path style="fill:#333333;" d="M15.488,20.25c-0.927,0-1.798-0.453-2.329-1.213c-0.531-0.759-0.659-1.731-0.343-2.603l1.704-4.685
	h6.05l-2.409,6.628C17.754,19.498,16.68,20.25,15.488,20.25z M15.571,13.25l-1.345,3.697c-0.152,0.418-0.094,0.866,0.161,1.229
	c0.255,0.364,0.656,0.573,1.101,0.573c0.563,0,1.07-0.355,1.263-0.884l1.679-4.616H15.571z"/>
<path style="fill:#333333;" d="M10.75,11.75h-4.5v-6.5h4.5V11.75z M7.75,10.25h1.5v-3.5h-1.5V10.25z"/>
<rect x="2" y="7.75" style="fill:#333333;" width="5" height="1.5"/>
</svg>






