<?xml version="1.0" encoding="iso-8859-1"?>
<svg version="1.1" id="&#x56FE;&#x5C42;_1" xmlns="http://www.w3.org/2000/svg" xmlns:xlink="http://www.w3.org/1999/xlink" x="0px"
	 y="0px" viewBox="0 0 24 24" style="enable-background:new 0 0 24 24;" xml:space="preserve">
<g>
	<defs>
		<rect id="SVGID_1_" width="24" height="24"/>
	</defs>
	<clipPath id="SVGID_00000076565091427215866760000006790699060442220193_">
		<use xlink:href="#SVGID_1_"  style="overflow:visible;"/>
	</clipPath>
	<g style="clip-path:url(#SVGID_00000076565091427215866760000006790699060442220193_);">
		<path style="fill:#333333;" d="M8.404,19.844c-0.96,0-1.92-0.365-2.651-1.096c-0.708-0.708-1.099-1.65-1.099-2.652
			c0-1.001,0.39-1.943,1.099-2.651l9.192-9.192c1.463-1.461,3.841-1.463,5.304,0l0,0c0.708,0.708,1.099,1.65,1.099,2.652
			s-0.391,1.943-1.099,2.651l-9.192,9.193C10.324,19.479,9.364,19.844,8.404,19.844z M17.596,4.655
			c-0.576,0-1.152,0.219-1.591,0.658l-9.192,9.192c-0.425,0.425-0.659,0.99-0.659,1.591c0,0.602,0.234,1.167,0.659,1.592
			c0.877,0.877,2.305,0.877,3.182,0l9.192-9.193c0.425-0.425,0.659-0.99,0.659-1.591s-0.234-1.166-0.659-1.591
			C18.749,4.874,18.173,4.655,17.596,4.655z"/>
		
			<rect x="10.25" y="10.672" transform="matrix(0.7071 -0.7071 0.7071 0.7071 -6.3241 11.7322)" style="fill:#333333;" width="1.5" height="5.657"/>
		
			<rect x="2.379" y="19.25" transform="matrix(0.7071 -0.7071 0.7071 0.7071 -12.8241 9.0398)" style="fill:#333333;" width="4.243" height="1.5"/>
		<path style="fill:#333333;" d="M17.5,6.67L17.5,6.67c0.478,0.276,0.642,0.888,0.366,1.366l0,0
			C17.59,8.514,16.978,8.678,16.5,8.402l0,0c-0.478-0.276-0.642-0.888-0.366-1.366l0,0C16.41,6.558,17.022,6.394,17.5,6.67z"/>
	</g>
</g>
</svg>






