<?xml version="1.0" encoding="iso-8859-1"?>
<svg version="1.1" id="&#x56FE;&#x5C42;_1" xmlns="http://www.w3.org/2000/svg" xmlns:xlink="http://www.w3.org/1999/xlink" x="0px"
	 y="0px" viewBox="0 0 24 24" style="enable-background:new 0 0 24 24;" xml:space="preserve">
<path style="fill:#333333;" d="M17.004,20.75h-4.435v-3.109H5.685v3.109H1.25v-9.856c0-1.924,0.664-3.475,1.92-4.485
	C4.565,5.287,6.516,4.99,8.019,5.176c0.091-0.133,0.189-0.263,0.295-0.389c0.787-0.943,1.866-1.528,2.819-1.528
	c0.004,0,0.009,0,0.014,0h3.431c3.629-0.203,5.099,2.794,5.353,4.409l0.009,0.117v6.384c0.012,0.065,0.037,0.166,0.081,0.179
	c0.289,0.078,1.019-0.25,1.322-0.606l1.312,0.369c0.375,2.386-0.362,3.753-2.253,4.179c-0.922,0.206-1.722-0.155-2.4-0.512
	c-0.394-0.206-0.721-0.536-0.997-0.904V20.75z M14.069,19.25h1.435V14.1l0.539-0.457l0.435,0.045
	c0.494,0.095,0.723,0.526,1.068,1.18c0.285,0.538,0.715,1.352,1.152,1.581c0.675,0.354,1.035,0.451,1.373,0.377
	c0.557-0.126,1.059-0.331,1.161-1.219c-0.517,0.227-1.1,0.338-1.635,0.18c-0.632-0.185-1.052-0.717-1.152-1.46l-0.007-0.101V7.853
	c-0.082-0.411-0.768-3.27-3.819-3.095l-3.477,0.001c-0.002,0-0.003,0-0.005,0c-0.425,0-1.102,0.305-1.671,0.988
	c-0.383,0.458-0.986,1.431-0.73,2.786c0.134,0.708,0.595,1.917,2.183,2.058c0.447,0.042,1.573-0.054,2.308-1.77l1.379,0.591
	c-1.154,2.692-3.215,2.725-3.819,2.673c-2.743-0.242-3.391-2.567-3.524-3.273C7.12,8.065,7.15,7.324,7.342,6.626
	C6.278,6.592,5.013,6.851,4.11,7.577c-0.903,0.726-1.36,1.842-1.36,3.316v8.356h1.435v-3.109h9.885V19.25z"/>
<circle style="fill:#333333;" cx="16.5" cy="9.5" r="1"/>
</svg>






