<?xml version="1.0" encoding="iso-8859-1"?>
<svg version="1.1" id="&#x56FE;&#x5C42;_1" xmlns="http://www.w3.org/2000/svg" xmlns:xlink="http://www.w3.org/1999/xlink" x="0px"
	 y="0px" viewBox="0 0 24 24" style="enable-background:new 0 0 24 24;" xml:space="preserve">
<path style="fill:none;" d="M21,20.5v-17H3v17H21z"/>
<path style="fill:#333333;" d="M22,21.25h-1V20.5v0.75H3V20.5v0.75H2v-1.5h0.25V4.25H2v-1.5h20v1.5h-0.25v15.5H22V21.25z
	 M3.75,19.75h16.5V4.25H3.75V19.75z"/>
<rect x="11.25" y="3.5" style="fill:#333333;" width="1.5" height="17"/>
<rect x="15.75" y="10" style="fill:#333333;" width="1.5" height="4"/>
<polygon style="fill:#333333;" points="17.47,12.03 16.5,11.061 15.53,12.03 14.47,10.97 16.5,8.939 18.53,10.97 "/>
<rect x="6.75" y="10" style="fill:#333333;" width="1.5" height="4"/>
<polygon style="fill:#333333;" points="7.5,15.061 5.47,13.03 6.53,11.97 7.5,12.939 8.47,11.97 9.53,13.03 "/>
</svg>






