<?xml version="1.0" encoding="iso-8859-1"?>
<svg version="1.1" id="&#x56FE;&#x5C42;_1" xmlns="http://www.w3.org/2000/svg" xmlns:xlink="http://www.w3.org/1999/xlink" x="0px"
	 y="0px" viewBox="0 0 24 24" style="enable-background:new 0 0 24 24;" xml:space="preserve">
<polygon style="fill:#333333;" points="12,20.25 1.25,20.25 1.25,3.75 22.75,3.75 22.75,12 21.25,12 21.25,5.25 2.75,5.25 
	2.75,18.75 12,18.75 "/>
<polygon style="fill:#333333;" points="12,12.938 1.55,5.1 2.45,3.9 12,11.062 21.55,3.9 22.45,5.1 "/>
<path style="fill:#333333;" d="M22.25,21.25h-7.5v-5.5h7.5V21.25z M16.25,19.75h4.5v-2.5h-4.5V19.75z"/>
<path style="fill:#333333;" d="M20.75,16.5h-1.5V15c0-0.413-0.337-0.75-0.75-0.75s-0.75,0.337-0.75,0.75v1.5h-1.5V15
	c0-1.24,1.01-2.25,2.25-2.25s2.25,1.01,2.25,2.25V16.5z"/>
</svg>






