<?xml version="1.0" encoding="iso-8859-1"?>
<svg version="1.1" id="&#x56FE;&#x5C42;_1" xmlns="http://www.w3.org/2000/svg" xmlns:xlink="http://www.w3.org/1999/xlink" x="0px"
	 y="0px" viewBox="0 0 24 24" style="enable-background:new 0 0 24 24;" xml:space="preserve">
<polygon style="fill:#333333;" points="12,20.25 1.25,20.25 1.25,3.75 22.75,3.75 22.75,12 21.25,12 21.25,5.25 2.75,5.25 
	2.75,18.75 12,18.75 "/>
<path style="fill:#333333;" d="M17.5,20.808l-0.278-0.111c-0.121-0.049-2.972-1.24-2.972-5.696c0-0.353,0-1.008,2.972-2.196
	l0.278-0.111l0.278,0.111C20.75,13.992,20.75,14.647,20.75,15c0,4.456-2.851,5.647-2.972,5.696L17.5,20.808z M15.753,15.216
	c0.062,2.493,1.201,3.559,1.748,3.928c0.542-0.366,1.684-1.431,1.746-3.928c-0.277-0.214-0.998-0.588-1.747-0.904
	C16.751,14.628,16.03,15.002,15.753,15.216z"/>
<polygon style="fill:#333333;" points="12,12.938 1.55,5.1 2.45,3.9 12,11.062 21.55,3.9 22.45,5.1 "/>
</svg>






