<?xml version="1.0" encoding="iso-8859-1"?>
<svg version="1.1" id="&#x56FE;&#x5C42;_1" xmlns="http://www.w3.org/2000/svg" xmlns:xlink="http://www.w3.org/1999/xlink" x="0px"
	 y="0px" viewBox="0 0 24 24" style="enable-background:new 0 0 24 24;" xml:space="preserve">
<polygon style="fill:#333333;" points="13,19.25 1.25,19.25 1.25,3.75 22.75,3.75 22.75,17.5 21.25,17.5 21.25,5.25 2.75,5.25 
	2.75,17.75 13,17.75 "/>
<path style="fill:#333333;" d="M17.5,22.75c-2.895,0-5.25-2.355-5.25-5.25s2.355-5.25,5.25-5.25s5.25,2.355,5.25,5.25
	S20.395,22.75,17.5,22.75z M17.5,13.75c-2.067,0-3.75,1.683-3.75,3.75s1.683,3.75,3.75,3.75s3.75-1.683,3.75-3.75
	S19.567,13.75,17.5,13.75z"/>
<rect x="16.086" y="16.75" transform="matrix(0.7071 -0.7071 0.7071 0.7071 -7.2487 17.5)" style="fill:#333333;" width="2.828" height="1.5"/>
<polygon style="fill:#333333;" points="12,11.895 1.591,5.129 2.409,3.871 12,10.105 21.591,3.871 22.409,5.129 "/>
</svg>






