<?xml version="1.0" encoding="iso-8859-1"?>
<svg version="1.1" id="&#x56FE;&#x5C42;_1" xmlns="http://www.w3.org/2000/svg" xmlns:xlink="http://www.w3.org/1999/xlink" x="0px"
	 y="0px" viewBox="0 0 24 24" style="enable-background:new 0 0 24 24;" xml:space="preserve">
<polygon style="fill:#333333;" points="12,20.25 1.25,20.25 1.25,3.75 22.75,3.75 22.75,12 21.25,12 21.25,5.25 2.75,5.25 
	2.75,18.75 12,18.75 "/>
<polygon style="fill:#333333;" points="12,12.938 1.55,5.1 2.45,3.9 12,11.062 21.55,3.9 22.45,5.1 "/>
<path style="fill:#333333;" d="M20.615,21.25h-4.23l-1.3-6.5h6.83L20.615,21.25z M17.615,19.75h1.77l0.7-3.5h-3.17L17.615,19.75z"/>
<rect x="17.382" y="13.75" transform="matrix(0.4467 -0.8947 0.8947 0.4467 -2.7368 24.5747)" style="fill:#333333;" width="2.236" height="1.5"/>
</svg>






