<?xml version="1.0" encoding="iso-8859-1"?>
<svg version="1.1" id="&#x56FE;&#x5C42;_1" xmlns="http://www.w3.org/2000/svg" xmlns:xlink="http://www.w3.org/1999/xlink" x="0px"
	 y="0px" viewBox="0 0 24 24" style="enable-background:new 0 0 24 24;" xml:space="preserve">
<polygon style="fill:#333333;" points="12,20.25 1.25,20.25 1.25,3.75 22.75,3.75 22.75,12 21.25,12 21.25,5.25 2.75,5.25 
	2.75,18.75 12,18.75 "/>
<path style="fill:#333333;" d="M18,20.25c-1.792,0-3.25-1.458-3.25-3.25s1.458-3.25,3.25-3.25s3.25,1.458,3.25,3.25
	S19.792,20.25,18,20.25z M18,15.25c-0.965,0-1.75,0.785-1.75,1.75s0.785,1.75,1.75,1.75s1.75-0.785,1.75-1.75S18.965,15.25,18,15.25
	z"/>
<rect x="20.25" y="18" transform="matrix(0.6 -0.8 0.8 0.6 -7 24.5)" style="fill:#333333;" width="1.5" height="2.5"/>
<polygon style="fill:#333333;" points="12,12.938 1.55,5.1 2.45,3.9 12,11.062 21.55,3.9 22.45,5.1 "/>
</svg>






