<?xml version="1.0" encoding="iso-8859-1"?>
<svg version="1.1" id="&#x56FE;&#x5C42;_1" xmlns="http://www.w3.org/2000/svg" xmlns:xlink="http://www.w3.org/1999/xlink" x="0px"
	 y="0px" viewBox="0 0 24 24" style="enable-background:new 0 0 24 24;" xml:space="preserve">
<g>
	<defs>
		<rect id="SVGID_1_" width="24" height="24"/>
	</defs>
	<clipPath id="SVGID_00000029020887964205141300000015521478028415032715_">
		<use xlink:href="#SVGID_1_"  style="overflow:visible;"/>
	</clipPath>
	<g style="clip-path:url(#SVGID_00000029020887964205141300000015521478028415032715_);">
		<path style="fill:#333333;" d="M6.312,21.75H4.719c-0.531,0-1.027-0.237-1.361-0.65c-0.333-0.413-0.461-0.948-0.35-1.467
			l0.402-1.87l-0.029-0.033c-0.482-0.542-0.578-1.339-0.235-1.982l0.792-1.489L3.682,5.021C3.669,4.544,3.844,4.093,4.177,3.751
			s0.778-0.53,1.255-0.53h3.661c0.521,0,1.01,0.229,1.343,0.628s0.471,0.922,0.378,1.434l-1.702,9.394l-0.065,3.07l-1.1,2.877
			C7.689,21.298,7.032,21.75,6.312,21.75z M5.432,4.722c-0.092,0-0.152,0.047-0.18,0.076C5.225,4.826,5.179,4.887,5.181,4.979
			l0.267,9.633L4.47,16.452c-0.049,0.092-0.036,0.205,0.033,0.281l0.534,0.604l-0.561,2.61c-0.022,0.102,0.022,0.175,0.05,0.21
			c0.028,0.034,0.091,0.093,0.194,0.093h1.592c0.103,0,0.197-0.064,0.233-0.16l1.051-2.749l0.012-2.626
			c0.001-0.104,0.01-0.203,0.028-0.303l1.703-9.396c0.018-0.1-0.026-0.171-0.054-0.205c-0.028-0.034-0.09-0.09-0.192-0.09H5.432z"/>
		
			<rect x="5.776" y="12.697" transform="matrix(0.0532 -0.9986 0.9986 0.0532 -8.3332 20.2754)" style="fill:#333333;" width="1.5" height="3.671"/>
		<path style="fill:#333333;" d="M19.289,21.75h-1.59c-0.731,0-1.392-0.462-1.644-1.149l-1.093-3.117l-0.012-2.763l-1.707-9.437
			C13.151,4.772,13.29,4.25,13.623,3.85s0.823-0.628,1.344-0.628h3.661c0.477,0,0.922,0.188,1.254,0.53s0.508,0.792,0.495,1.269
			l-0.256,9.237l0.793,1.49c0.34,0.644,0.245,1.439-0.235,1.982l-0.036,0.041l0.365,1.898c0.099,0.516-0.036,1.042-0.37,1.446
			C20.304,21.519,19.812,21.75,19.289,21.75z M16.462,17.346l1.002,2.739c0.036,0.099,0.131,0.165,0.235,0.165h1.59
			c0.103,0,0.165-0.057,0.192-0.091c0.028-0.034,0.073-0.106,0.054-0.208l-0.506-2.622l0.526-0.594
			c0.068-0.078,0.082-0.192,0.033-0.285l-0.978-1.838l0.266-9.634c0.003-0.092-0.043-0.153-0.07-0.181s-0.087-0.076-0.179-0.076
			h-3.661c-0.103,0-0.164,0.056-0.192,0.09s-0.072,0.104-0.054,0.205l1.702,9.394c0.018,0.097,0.028,0.202,0.028,0.308
			L16.462,17.346z"/>
		
			<rect x="15.698" y="13.782" transform="matrix(0.9986 -0.0534 0.0534 0.9986 -0.7507 0.9566)" style="fill:#333333;" width="3.671" height="1.5"/>
	</g>
</g>
</svg>






