<?xml version="1.0" encoding="iso-8859-1"?>
<svg version="1.1" id="&#x56FE;&#x5C42;_1" xmlns="http://www.w3.org/2000/svg" xmlns:xlink="http://www.w3.org/1999/xlink" x="0px"
	 y="0px" viewBox="0 0 24 24" style="enable-background:new 0 0 24 24;" xml:space="preserve">
<path style="fill:#333333;" d="M11.573,22.75c-4.808,0-7.83-2.627-8.291-7.207c-0.353-3.51,2.208-5.948,3.902-7.562
	c0.583-0.555,1.185-1.128,1.303-1.429c0.238-0.604,0.454-1.867,0.132-4.46l1.052-0.776c2.132,0.959,3.645,2.302,4.497,3.992
	c0.676,1.339,0.703,2.85,0.724,3.952c0.005,0.263,0.011,0.585,0.031,0.83c0.336-0.272,1.02-1.006,2.195-2.975l0.567-0.951
	l0.672,0.88c1.587,2.077,2.392,4.784,2.392,8.045C20.75,22.75,14.78,22.75,11.573,22.75z M10.245,3.308
	c0.11,1.653-0.009,2.902-0.361,3.795C9.643,7.711,9.015,8.31,8.219,9.068c-1.571,1.497-3.723,3.546-3.444,6.325
	c0.487,4.841,3.966,5.857,6.798,5.857c4.046,0,7.677-0.471,7.677-6.16c0-2.449-0.492-4.532-1.464-6.207
	c-1.625,2.5-2.488,2.867-3.121,2.867c-1.227,0-1.252-1.365-1.272-2.462c-0.019-1.012-0.041-2.271-0.563-3.304
	C12.3,4.932,11.433,4.036,10.245,3.308z"/>
<path style="fill:#333333;" d="M11.107,19.741c-0.379,0-0.711-0.063-0.957-0.131c-0.998-0.273-2.17-1.117-2.465-2.664
	c-0.332-1.739,0.565-3.589,2.665-5.498l1.248,0.455c0.159,1.18,0.47,2.026,0.923,2.516c1.042,1.126,1.528,2.099,1.486,2.976
	c-0.028,0.577-0.29,1.103-0.758,1.52C12.523,19.561,11.748,19.741,11.107,19.741z M10.404,13.524
	c-1.005,1.151-1.424,2.205-1.246,3.141c0.209,1.095,1.116,1.424,1.389,1.498c0.449,0.125,1.109,0.16,1.704-0.369
	c0.218-0.194,0.252-0.354,0.258-0.472c0.012-0.251-0.113-0.83-1.089-1.884C10.977,14.96,10.641,14.328,10.404,13.524z"/>
</svg>






