<?xml version="1.0" encoding="iso-8859-1"?>
<svg version="1.1" id="&#x56FE;&#x5C42;_1" xmlns="http://www.w3.org/2000/svg" xmlns:xlink="http://www.w3.org/1999/xlink" x="0px"
	 y="0px" viewBox="0 0 24 24" style="enable-background:new 0 0 24 24;" xml:space="preserve">
<path style="fill:none;" d="M8,5c0,1.381-1.119,2.5-2.5,2.5C4.119,7.5,3,6.381,3,5c0-1.381,1.119-2.5,2.5-2.5C6.881,2.5,8,3.619,8,5
	z"/>
<path style="fill:#333333;" d="M5.5,8.25C3.708,8.25,2.25,6.792,2.25,5S3.708,1.75,5.5,1.75c1.534,0,2.823,1.068,3.163,2.5h3.027
	l-0.72-0.72L12.03,2.47l2,2L13.5,5l0.53,0.53l-2,2L10.97,6.47l0.72-0.72H8.663C8.323,7.182,7.034,8.25,5.5,8.25z M5.5,3.25
	C4.535,3.25,3.75,4.035,3.75,5S4.535,6.75,5.5,6.75S7.25,5.965,7.25,5S6.465,3.25,5.5,3.25z"/>
<path style="fill:none;" d="M16,19c0,1.381,1.119,2.5,2.5,2.5S21,20.381,21,19s-1.119-2.5-2.5-2.5S16,17.619,16,19z"/>
<path style="fill:#333333;" d="M18.5,22.25c-1.534,0-2.823-1.068-3.163-2.5h-3.026l0.72,0.72L11.97,21.53l-2-2L10.5,19l-0.53-0.53
	l2-2l1.061,1.061l-0.72,0.72h3.026c0.34-1.432,1.629-2.5,3.163-2.5c1.792,0,3.25,1.458,3.25,3.25S20.292,22.25,18.5,22.25z
	 M18.5,17.25c-0.965,0-1.75,0.785-1.75,1.75s0.785,1.75,1.75,1.75s1.75-0.785,1.75-1.75S19.465,17.25,18.5,17.25z"/>
<path style="fill:none;" d="M16.5,5.5C16.5,6.881,17.619,8,19,8s2.5-1.119,2.5-2.5C21.5,4.119,20.381,3,19,3S16.5,4.119,16.5,5.5z"
	/>
<path style="fill:#333333;" d="M19.53,14.03L19,13.5l-0.53,0.53l-2-2l1.061-1.061l0.72,0.72V8.663c-1.432-0.339-2.5-1.628-2.5-3.163
	c0-1.792,1.458-3.25,3.25-3.25s3.25,1.458,3.25,3.25c0,1.534-1.068,2.823-2.5,3.163v3.027l0.72-0.72l1.061,1.061L19.53,14.03z
	 M19,3.75c-0.965,0-1.75,0.785-1.75,1.75S18.035,7.25,19,7.25s1.75-0.785,1.75-1.75S19.965,3.75,19,3.75z"/>
<path style="fill:none;" d="M2.5,18.5C2.5,17.119,3.619,16,5,16c1.381,0,2.5,1.119,2.5,2.5S6.381,21,5,21
	C3.619,21,2.5,19.881,2.5,18.5z"/>
<path style="fill:#333333;" d="M5,21.75c-1.792,0-3.25-1.458-3.25-3.25c0-1.534,1.068-2.823,2.5-3.163v-3.026l-0.72,0.72L2.47,11.97
	l2-2L5,10.5l0.53-0.53l2,2L6.47,13.03l-0.72-0.72v3.026c1.432,0.34,2.5,1.629,2.5,3.163C8.25,20.292,6.792,21.75,5,21.75z M5,16.75
	c-0.965,0-1.75,0.785-1.75,1.75S4.035,20.25,5,20.25s1.75-0.785,1.75-1.75S5.965,16.75,5,16.75z"/>
</svg>






