<?xml version="1.0" encoding="iso-8859-1"?>
<svg version="1.1" id="&#x56FE;&#x5C42;_1" xmlns="http://www.w3.org/2000/svg" xmlns:xlink="http://www.w3.org/1999/xlink" x="0px"
	 y="0px" viewBox="0 0 24 24" style="enable-background:new 0 0 24 24;" xml:space="preserve">
<path style="fill:#333333;" d="M21.5,20.75H2.75V13.5h1.5v5.75H21.5V20.75z M21.5,12.75H5v-1.5h16.5V12.75z M4.25,10.5h-1.5V3.25
	H21.5v1.5H4.25V10.5z"/>
<path style="fill:#333333;" d="M3.5,14.25c-1.241,0-2.25-1.01-2.25-2.25c0-1.241,1.009-2.25,2.25-2.25S5.75,10.759,5.75,12
	C5.75,13.24,4.741,14.25,3.5,14.25z M3.5,11.25c-0.414,0-0.75,0.336-0.75,0.75c0,0.413,0.336,0.75,0.75,0.75S4.25,12.413,4.25,12
	C4.25,11.586,3.914,11.25,3.5,11.25z"/>
</svg>






