<?xml version="1.0" encoding="iso-8859-1"?>
<svg version="1.1" id="&#x56FE;&#x5C42;_1" xmlns="http://www.w3.org/2000/svg" xmlns:xlink="http://www.w3.org/1999/xlink" x="0px"
	 y="0px" viewBox="0 0 24 24" style="enable-background:new 0 0 24 24;" xml:space="preserve">
<polygon style="fill:#333333;" points="21,20.75 2.25,20.75 2.25,3.25 21,3.25 21,4.75 3.75,4.75 3.75,19.25 21,19.25 "/>
<path style="fill:#333333;" d="M12,14.25c-1.241,0-2.25-1.01-2.25-2.25c0-1.241,1.009-2.25,2.25-2.25c1.24,0,2.25,1.009,2.25,2.25
	C14.25,13.24,13.24,14.25,12,14.25z M12,11.25c-0.414,0-0.75,0.336-0.75,0.75c0,0.413,0.336,0.75,0.75,0.75
	c0.413,0,0.75-0.337,0.75-0.75C12.75,11.586,12.413,11.25,12,11.25z"/>
<rect x="13.5" y="11.25" style="fill:#333333;" width="7.5" height="1.5"/>
</svg>






