<?xml version="1.0" encoding="iso-8859-1"?>
<svg version="1.1" id="&#x56FE;&#x5C42;_1" xmlns="http://www.w3.org/2000/svg" xmlns:xlink="http://www.w3.org/1999/xlink" x="0px"
	 y="0px" viewBox="0 0 24 24" style="enable-background:new 0 0 24 24;" xml:space="preserve">
<path style="fill:#333333;" d="M12,22.75C6.072,22.75,1.25,17.928,1.25,12S6.072,1.25,12,1.25S22.75,6.072,22.75,12
	S17.928,22.75,12,22.75z M12,2.75c-5.101,0-9.25,4.149-9.25,9.25s4.149,9.25,9.25,9.25s9.25-4.149,9.25-9.25S17.101,2.75,12,2.75z"
	/>
<rect x="13.25" y="8" style="fill:#333333;" width="1.5" height="2.5"/>
<rect x="9.25" y="8" style="fill:#333333;" width="1.5" height="2.5"/>
<path style="fill:#333333;" d="M12,16.75c-2.619,0-4.75-2.131-4.75-4.75V9.75h9.5V12C16.75,14.619,14.619,16.75,12,16.75z
	 M8.75,11.25V12c0,1.792,1.458,3.25,3.25,3.25s3.25-1.458,3.25-3.25v-0.75H8.75z"/>
<rect x="11.25" y="16" style="fill:#333333;" width="1.5" height="6"/>
</svg>






