<?xml version="1.0" encoding="iso-8859-1"?>
<svg version="1.1" id="&#x56FE;&#x5C42;_1" xmlns="http://www.w3.org/2000/svg" xmlns:xlink="http://www.w3.org/1999/xlink" x="0px"
	 y="0px" viewBox="0 0 24 24" style="enable-background:new 0 0 24 24;" xml:space="preserve">
<path style="fill:#333333;" d="M20.5,13.75h-17c-0.965,0-1.75-0.785-1.75-1.75V4c0-0.965,0.785-1.75,1.75-1.75h17
	c0.965,0,1.75,0.785,1.75,1.75v8C22.25,12.965,21.465,13.75,20.5,13.75z M3.5,3.75C3.362,3.75,3.25,3.862,3.25,4v8
	c0,0.138,0.112,0.25,0.25,0.25h17c0.138,0,0.25-0.112,0.25-0.25V4c0-0.138-0.112-0.25-0.25-0.25H3.5z"/>
<rect x="5.25" y="13" style="fill:#333333;" width="1.5" height="8"/>
<rect x="6" y="15.75" style="fill:#333333;" width="12" height="1.5"/>
<rect x="4" y="20.25" style="fill:#333333;" width="4" height="1.5"/>
<rect x="16" y="20.25" style="fill:#333333;" width="4" height="1.5"/>
<rect x="17.25" y="13" style="fill:#333333;" width="1.5" height="8"/>
</svg>






