<?xml version="1.0" encoding="iso-8859-1"?>
<svg version="1.1" id="&#x56FE;&#x5C42;_1" xmlns="http://www.w3.org/2000/svg" xmlns:xlink="http://www.w3.org/1999/xlink" x="0px"
	 y="0px" viewBox="0 0 24 24" style="enable-background:new 0 0 24 24;" xml:space="preserve">
<rect x="16" y="2.25" style="fill:#333333;" width="3" height="1.5"/>
<polygon style="fill:#333333;" points="16.75,18.75 9,18.75 9,17.25 15.25,17.25 15.25,14.75 3.75,14.75 3.75,17.25 5,17.25 
	5,18.75 2.25,18.75 2.25,13.25 16.75,13.25 "/>
<polygon style="fill:#333333;" points="22.75,18.75 20.5,18.75 20.5,17.25 21.25,17.25 21.25,12.164 18.769,6.75 16.75,6.75 
	16.75,18 15.25,18 15.25,5.25 19.731,5.25 22.75,11.836 "/>
<path style="fill:#333333;" d="M13.75,11.75H2.894l-1.821-8.5H13.75V11.75z M4.106,10.25h8.144v-5.5H2.928L4.106,10.25z"/>
<path style="fill:#333333;" d="M18.5,21.75c-1.517,0-2.75-1.233-2.75-2.75s1.233-2.75,2.75-2.75s2.75,1.233,2.75,2.75
	S20.017,21.75,18.5,21.75z M18.5,17.75c-0.689,0-1.25,0.561-1.25,1.25s0.561,1.25,1.25,1.25s1.25-0.561,1.25-1.25
	S19.189,17.75,18.5,17.75z"/>
<path style="fill:#333333;" d="M7,21.75c-1.517,0-2.75-1.233-2.75-2.75S5.483,16.25,7,16.25S9.75,17.483,9.75,19
	S8.517,21.75,7,21.75z M7,17.75c-0.689,0-1.25,0.561-1.25,1.25S6.311,20.25,7,20.25S8.25,19.689,8.25,19S7.689,17.75,7,17.75z"/>
</svg>






