<?xml version="1.0" encoding="iso-8859-1"?>
<svg version="1.1" id="&#x56FE;&#x5C42;_1" xmlns="http://www.w3.org/2000/svg" xmlns:xlink="http://www.w3.org/1999/xlink" x="0px"
	 y="0px" viewBox="0 0 24 24" style="enable-background:new 0 0 24 24;" xml:space="preserve">
<path style="fill:#333333;" d="M18.5,8.75c-1.792,0-3.25-1.458-3.25-3.25s1.458-3.25,3.25-3.25s3.25,1.458,3.25,3.25
	S20.292,8.75,18.5,8.75z M18.5,3.75c-0.965,0-1.75,0.785-1.75,1.75s0.785,1.75,1.75,1.75s1.75-0.785,1.75-1.75
	S19.465,3.75,18.5,3.75z"/>
<path style="fill:#333333;" d="M6,6.75C4.483,6.75,3.25,5.517,3.25,4S4.483,1.25,6,1.25S8.75,2.483,8.75,4S7.517,6.75,6,6.75z
	 M6,2.75C5.311,2.75,4.75,3.311,4.75,4S5.311,5.25,6,5.25S7.25,4.689,7.25,4S6.689,2.75,6,2.75z"/>
<path style="fill:#333333;" d="M21.75,21h-1.5v-7c0-1.12-0.541-2.25-1.75-2.25s-1.75,1.13-1.75,2.25v3.352l-3.27,2.725l-0.961-1.152
	l2.73-2.275V14c0-2.173,1.367-3.75,3.25-3.75s3.25,1.577,3.25,3.75V21z"/>
<path style="fill:#333333;" d="M4.75,21h-1.5v-9c0-2.173,1.367-3.75,3.25-3.75S9.75,9.827,9.75,12v1.648l2.73,2.275l-0.96,1.152
	l-3.27-2.725V12c0-1.12-0.541-2.25-1.75-2.25S4.75,10.88,4.75,12V21z"/>
</svg>






