<?xml version="1.0" encoding="iso-8859-1"?>
<svg version="1.1" id="&#x56FE;&#x5C42;_1" xmlns="http://www.w3.org/2000/svg" xmlns:xlink="http://www.w3.org/1999/xlink" x="0px"
	 y="0px" viewBox="0 0 24 24" style="enable-background:new 0 0 24 24;" xml:space="preserve">
<path style="fill:#333333;" d="M21,20.25H3c-0.965,0-1.75-0.785-1.75-1.75v-14c0-0.965,0.785-1.75,1.75-1.75h18
	c0.965,0,1.75,0.785,1.75,1.75v14C22.75,19.465,21.965,20.25,21,20.25z M3,4.25c-0.138,0-0.25,0.112-0.25,0.25v14
	c0,0.138,0.112,0.25,0.25,0.25h18c0.138,0,0.25-0.112,0.25-0.25v-14c0-0.138-0.112-0.25-0.25-0.25H3z"/>
<rect x="6" y="8.75" style="fill:#333333;" width="1" height="1.5"/>
<rect x="10.5" y="8.75" style="fill:#333333;" width="1" height="1.5"/>
<rect x="14.5" y="8.75" style="fill:#333333;" width="3.5" height="1.5"/>
<rect x="6" y="13.25" style="fill:#333333;" width="12" height="1.5"/>
</svg>






