<?xml version="1.0" encoding="iso-8859-1"?>
<svg version="1.1" id="&#x56FE;&#x5C42;_1" xmlns="http://www.w3.org/2000/svg" xmlns:xlink="http://www.w3.org/1999/xlink" x="0px"
	 y="0px" viewBox="0 0 24 24" style="enable-background:new 0 0 24 24;" xml:space="preserve">
<polygon style="fill:#333333;" points="6,16.75 1.25,16.75 1.25,3.25 18.75,3.25 18.75,8 17.25,8 17.25,4.75 2.75,4.75 2.75,15.25 
	6,15.25 "/>
<path style="fill:#333333;" d="M22.75,20.75H5.25V7.25h17.5V20.75z M6.75,19.25h14.5V8.75H6.75V19.25z"/>
<polygon style="fill:#333333;" points="14,14.938 5.55,8.6 6.45,7.4 14,13.062 21.55,7.4 22.45,8.6 "/>
<polygon style="fill:#333333;" points="6.75,15.5 5.25,15.5 5.25,7.25 16,7.25 16,8.75 6.75,8.75 "/>
<polygon style="fill:#333333;" points="22.75,15.5 21.25,15.5 21.25,8.75 12,8.75 12,7.25 22.75,7.25 "/>
</svg>






