<?xml version="1.0" encoding="iso-8859-1"?>
<svg version="1.1" id="&#x56FE;&#x5C42;_1" xmlns="http://www.w3.org/2000/svg" xmlns:xlink="http://www.w3.org/1999/xlink" x="0px"
	 y="0px" viewBox="0 0 24 24" style="enable-background:new 0 0 24 24;" xml:space="preserve">
<rect x="4.75" y="8" style="fill:#333333;" width="1.5" height="13"/>
<rect x="11.25" y="14.5" style="fill:#333333;" width="1.5" height="6.5"/>
<rect x="11.25" y="3" style="fill:#333333;" width="1.5" height="6.5"/>
<rect x="17.75" y="3" style="fill:#333333;" width="1.5" height="13"/>
<path style="fill:#333333;" d="M5.5,8.75c-1.792,0-3.25-1.458-3.25-3.25S3.708,2.25,5.5,2.25S8.75,3.708,8.75,5.5
	S7.292,8.75,5.5,8.75z M5.5,3.75c-0.965,0-1.75,0.785-1.75,1.75S4.535,7.25,5.5,7.25S7.25,6.465,7.25,5.5S6.465,3.75,5.5,3.75z"/>
<path style="fill:#333333;" d="M12,15.25c-1.792,0-3.25-1.458-3.25-3.25S10.208,8.75,12,8.75s3.25,1.458,3.25,3.25
	S13.792,15.25,12,15.25z M12,10.25c-0.965,0-1.75,0.785-1.75,1.75s0.785,1.75,1.75,1.75s1.75-0.785,1.75-1.75S12.965,10.25,12,10.25
	z"/>
<path style="fill:#333333;" d="M18.5,21.75c-1.792,0-3.25-1.458-3.25-3.25s1.458-3.25,3.25-3.25s3.25,1.458,3.25,3.25
	S20.292,21.75,18.5,21.75z M18.5,16.75c-0.965,0-1.75,0.785-1.75,1.75s0.785,1.75,1.75,1.75s1.75-0.785,1.75-1.75
	S19.465,16.75,18.5,16.75z"/>
</svg>






