<?xml version="1.0" encoding="iso-8859-1"?>
<svg version="1.1" id="&#x56FE;&#x5C42;_1" xmlns="http://www.w3.org/2000/svg" xmlns:xlink="http://www.w3.org/1999/xlink" x="0px"
	 y="0px" viewBox="0 0 24 24" style="enable-background:new 0 0 24 24;" xml:space="preserve">
<rect x="6.25" y="7.757" transform="matrix(0.7071 -0.7071 0.7071 0.7071 -6.435 8.4645)" style="fill:#333333;" width="1.5" height="8.485"/>
<rect x="2.757" y="11.25" transform="matrix(0.7071 -0.7071 0.7071 0.7071 -6.435 8.4645)" style="fill:#333333;" width="8.485" height="1.5"/>
<path style="fill:#333333;" d="M17.493,20.565l-0.986-1.131c2.449-2.136,3.743-4.707,3.743-7.435c0-2.728-1.294-5.299-3.743-7.435
	l0.986-1.131C20.238,5.829,21.75,8.871,21.75,12S20.238,18.171,17.493,20.565z"/>
<path style="fill:#333333;" d="M13.941,17.606l-0.883-1.213c1.228-0.893,2.691-2.38,2.691-4.394c0-2.015-1.463-3.501-2.691-4.394
	l0.883-1.213C16.075,7.944,17.25,9.936,17.25,12S16.075,16.055,13.941,17.606z"/>
</svg>






