<?xml version="1.0" encoding="iso-8859-1"?>
<svg version="1.1" id="&#x56FE;&#x5C42;_1" xmlns="http://www.w3.org/2000/svg" xmlns:xlink="http://www.w3.org/1999/xlink" x="0px"
	 y="0px" viewBox="0 0 24 24" style="enable-background:new 0 0 24 24;" xml:space="preserve">
<path style="fill:#333333;" d="M6.811,22.75H1.25v-6h4.939l11-11h5.561v6h-4.939L6.811,22.75z M2.75,21.25h3.439l11-11h4.061v-3
	h-3.439l-11,11H2.75V21.25z"/>
<rect x="8.568" y="3.5" transform="matrix(0.7071 -0.7071 0.7071 0.7071 0.4363 9.5533)" style="fill:#333333;" width="6.364" height="1.5"/>
<polygon style="fill:#333333;" points="14.75,5 13.25,5 13.25,2.75 11,2.75 11,1.25 14.75,1.25 "/>
<rect x="1.568" y="10.5" transform="matrix(0.7071 -0.7071 0.7071 0.7071 -6.5637 6.6538)" style="fill:#333333;" width="6.364" height="1.5"/>
<polygon style="fill:#333333;" points="5.5,14.25 1.75,14.25 1.75,10.5 3.25,10.5 3.25,12.75 5.5,12.75 "/>
</svg>






