<?xml version="1.0" encoding="iso-8859-1"?>
<svg version="1.1" id="&#x56FE;&#x5C42;_1" xmlns="http://www.w3.org/2000/svg" xmlns:xlink="http://www.w3.org/1999/xlink" x="0px"
	 y="0px" viewBox="0 0 24 24" style="enable-background:new 0 0 24 24;" xml:space="preserve">
<path style="fill:#333333;" d="M7,17.75c-1.792,0-3.25-1.458-3.25-3.25S5.208,11.25,7,11.25s3.25,1.458,3.25,3.25
	S8.792,17.75,7,17.75z M7,12.75c-0.965,0-1.75,0.785-1.75,1.75S6.035,16.25,7,16.25s1.75-0.785,1.75-1.75S7.965,12.75,7,12.75z"/>
<path style="fill:#333333;" d="M17,17.75c-1.792,0-3.25-1.458-3.25-3.25s1.458-3.25,3.25-3.25s3.25,1.458,3.25,3.25
	S18.792,17.75,17,17.75z M17,12.75c-0.965,0-1.75,0.785-1.75,1.75s0.785,1.75,1.75,1.75s1.75-0.785,1.75-1.75S17.965,12.75,17,12.75
	z"/>
<path style="fill:#333333;" d="M12,7.75c-1.792,0-3.25-1.458-3.25-3.25S10.208,1.25,12,1.25s3.25,1.458,3.25,3.25
	S13.792,7.75,12,7.75z M12,2.75c-0.965,0-1.75,0.785-1.75,1.75S11.035,6.25,12,6.25s1.75-0.785,1.75-1.75S12.965,2.75,12,2.75z"/>
<path style="fill:#333333;" d="M12.75,22h-1.5c0-2.344-1.907-4.25-4.25-4.25S2.75,19.656,2.75,22h-1.5c0-3.171,2.58-5.75,5.75-5.75
	S12.75,18.829,12.75,22z"/>
<path style="fill:#333333;" d="M22.75,22h-1.5c0-2.344-1.906-4.25-4.25-4.25s-4.25,1.906-4.25,4.25h-1.5
	c0-3.171,2.579-5.75,5.75-5.75S22.75,18.829,22.75,22z"/>
<path style="fill:#333333;" d="M17.75,12h-1.5c0-2.343-1.906-4.25-4.25-4.25c-2.343,0-4.25,1.907-4.25,4.25h-1.5
	c0-3.17,2.58-5.75,5.75-5.75C15.171,6.25,17.75,8.83,17.75,12z"/>
</svg>






