<?xml version="1.0" encoding="iso-8859-1"?>
<svg version="1.1" id="&#x56FE;&#x5C42;_1" xmlns="http://www.w3.org/2000/svg" xmlns:xlink="http://www.w3.org/1999/xlink" x="0px"
	 y="0px" viewBox="0 0 24 24" style="enable-background:new 0 0 24 24;" xml:space="preserve">
<path style="fill:#333333;" d="M20.5,22.25H9c-0.965,0-1.75-0.785-1.75-1.75V9c0-0.965,0.785-1.75,1.75-1.75h11.5
	c0.965,0,1.75,0.785,1.75,1.75v11.5C22.25,21.465,21.465,22.25,20.5,22.25z M9,8.75C8.862,8.75,8.75,8.862,8.75,9v11.5
	c0,0.138,0.112,0.25,0.25,0.25h11.5c0.138,0,0.25-0.112,0.25-0.25V9c0-0.138-0.112-0.25-0.25-0.25H9z"/>
<path style="fill:#333333;" d="M15,16.75H3.5c-0.965,0-1.75-0.785-1.75-1.75V3.5c0-0.965,0.785-1.75,1.75-1.75H15
	c0.965,0,1.75,0.785,1.75,1.75V15C16.75,15.965,15.965,16.75,15,16.75z M3.5,3.25c-0.138,0-0.25,0.112-0.25,0.25V15
	c0,0.138,0.112,0.25,0.25,0.25H15c0.138,0,0.25-0.112,0.25-0.25V3.5c0-0.138-0.112-0.25-0.25-0.25H3.5z"/>
<rect x="7.068" y="17.5" transform="matrix(0.7071 -0.7071 0.7071 0.7071 -9.9025 12.5933)" style="fill:#333333;" width="6.364" height="1.5"/>
<rect x="15.068" y="9.5" transform="matrix(0.7071 -0.7071 0.7071 0.7071 -1.9025 15.9069)" style="fill:#333333;" width="6.364" height="1.5"/>
<rect x="2.569" y="13" transform="matrix(0.7071 -0.7071 0.7071 0.7071 -8.0384 8.0935)" style="fill:#333333;" width="6.364" height="1.5"/>
<rect x="10.569" y="5" transform="matrix(0.7069 -0.7073 0.7073 0.7069 -0.0372 11.4103)" style="fill:#333333;" width="6.363" height="1.5"/>
<rect x="10.032" y="16" transform="matrix(0.7071 -0.7071 0.7071 0.7071 -6.9381 16.75)" style="fill:#333333;" width="13.435" height="1.5"/>
<rect x="0.533" y="6.5" transform="matrix(0.7071 -0.7071 0.7071 0.7071 -3.003 7.2502)" style="fill:#333333;" width="13.435" height="1.5"/>
<rect x="16.068" y="18.5" transform="matrix(0.7071 -0.7071 0.7071 0.7071 -7.9736 19.25)" style="fill:#333333;" width="6.364" height="1.5"/>
<rect x="1.568" y="4" transform="matrix(0.7071 -0.7071 0.7071 0.7071 -1.9675 4.75)" style="fill:#333333;" width="6.364" height="1.5"/>
</svg>






