<?xml version="1.0" encoding="iso-8859-1"?>
<svg version="1.1" id="&#x56FE;&#x5C42;_1" xmlns="http://www.w3.org/2000/svg" xmlns:xlink="http://www.w3.org/1999/xlink" x="0px"
	 y="0px" viewBox="0 0 24 24" style="enable-background:new 0 0 24 24;" xml:space="preserve">
<path style="fill:#333333;" d="M12.106,22.941c-0.448,0-0.896-0.171-1.237-0.512l-9.192-9.192c-0.682-0.683-0.682-1.792,0-2.474
	l9.193-9.193c0.683-0.683,1.793-0.683,2.475,0l9.192,9.192c0.683,0.682,0.683,1.792,0,2.475l-9.192,9.192
	C13.003,22.771,12.555,22.941,12.106,22.941z M12.106,2.558c-0.064,0-0.128,0.024-0.177,0.073l-9.192,9.192
	c-0.097,0.097-0.097,0.256,0,0.354l9.192,9.192c0.098,0.098,0.256,0.098,0.354,0l9.192-9.192c0.098-0.098,0.098-0.256,0-0.354
	l-9.192-9.192C12.234,2.582,12.171,2.558,12.106,2.558z"/>
<rect x="7.786" y="11.253" transform="matrix(0.7084 -0.7058 0.7058 0.7084 -4.9662 11.9847)" style="fill:#333333;" width="8.472" height="1.5"/>
<rect x="11.272" y="7.767" transform="matrix(0.7071 -0.7071 0.7071 0.7071 -4.9663 12.016)" style="fill:#333333;" width="1.5" height="8.471"/>
</svg>






