<?xml version="1.0" encoding="iso-8859-1"?>
<svg version="1.1" id="&#x56FE;&#x5C42;_1" xmlns="http://www.w3.org/2000/svg" xmlns:xlink="http://www.w3.org/1999/xlink" x="0px"
	 y="0px" viewBox="0 0 24 24" style="enable-background:new 0 0 24 24;" xml:space="preserve">
<path style="fill:#333333;" d="M19,21.75H5c-1.517,0-2.75-1.233-2.75-2.75V5c0-1.517,1.233-2.75,2.75-2.75h14
	c1.517,0,2.75,1.233,2.75,2.75v14C21.75,20.517,20.517,21.75,19,21.75z M5,3.75C4.311,3.75,3.75,4.311,3.75,5v14
	c0,0.689,0.561,1.25,1.25,1.25h14c0.689,0,1.25-0.561,1.25-1.25V5c0-0.689-0.561-1.25-1.25-1.25H5z"/>
<rect x="3" y="15.25" style="fill:#333333;" width="18" height="1.5"/>
<polygon style="fill:#333333;" points="12,11.061 9.47,8.53 10.53,7.47 12,8.939 13.47,7.47 14.53,8.53 "/>
<rect x="2.25" y="13" style="fill:#333333;" width="1.5" height="6"/>
<rect x="20.25" y="13" style="fill:#333333;" width="1.5" height="6"/>
</svg>






