<?xml version="1.0" encoding="iso-8859-1"?>
<svg version="1.1" id="&#x56FE;&#x5C42;_1" xmlns="http://www.w3.org/2000/svg" xmlns:xlink="http://www.w3.org/1999/xlink" x="0px"
	 y="0px" viewBox="0 0 24 24" style="enable-background:new 0 0 24 24;" xml:space="preserve">
<rect x="6" y="1.25" style="fill:#333333;" width="12" height="1.5"/>
<polygon style="fill:#333333;" points="6.064,15.327 4.713,14.673 8.259,7.348 8.259,1.25 15.764,1.25 15.764,7.348 19.299,14.674 
	17.947,15.326 14.264,7.691 14.264,2.75 9.759,2.75 9.759,7.691 "/>
<path style="fill:#333333;" d="M19.394,22.75H4.61c-0.358,0-0.717-0.082-1.039-0.237L3.57,22.512
	c-1.184-0.574-1.681-2.004-1.108-3.188l2.633-5.439l0.72,0.499c0.127,0.086,3.188,2.135,5.705,0.04
	c2.719-2.266,6.115-1.018,7.529-0.041l0.163,0.112l2.331,4.831c0.155,0.32,0.237,0.68,0.237,1.037
	C21.78,21.68,20.71,22.75,19.394,22.75z M4.224,21.162c0.12,0.058,0.253,0.088,0.386,0.088h14.783c0.489,0,0.887-0.397,0.887-0.887
	c0-0.132-0.03-0.265-0.088-0.384l-2.152-4.462c-0.674-0.405-3.334-1.796-5.56,0.059c-2.316,1.931-5.117,1.31-6.77,0.48l-1.898,3.921
	C3.6,20.417,3.784,20.948,4.224,21.162z"/>
</svg>






