<?xml version="1.0" encoding="iso-8859-1"?>
<svg version="1.1" id="&#x56FE;&#x5C42;_1" xmlns="http://www.w3.org/2000/svg" xmlns:xlink="http://www.w3.org/1999/xlink" x="0px"
	 y="0px" viewBox="0 0 24 24" style="enable-background:new 0 0 24 24;" xml:space="preserve">
<path style="fill:#333333;" d="M19,22.75H5c-0.965,0-1.75-0.785-1.75-1.75v-5.5h1.5V21c0,0.138,0.112,0.25,0.25,0.25h14
	c0.138,0,0.25-0.112,0.25-0.25v-5.5h1.5V21C20.75,21.965,19.965,22.75,19,22.75z"/>
<path style="fill:#333333;" d="M19,12.75H5c-0.965,0-1.75-0.785-1.75-1.75V8c0-0.965,0.785-1.75,1.75-1.75h14
	c0.965,0,1.75,0.785,1.75,1.75v3C20.75,11.965,19.965,12.75,19,12.75z M5,7.75C4.862,7.75,4.75,7.862,4.75,8v3
	c0,0.138,0.112,0.25,0.25,0.25h14c0.138,0,0.25-0.112,0.25-0.25V8c0-0.138-0.112-0.25-0.25-0.25H5z"/>
<rect x="7.25" y="2" style="fill:#333333;" width="1.5" height="2"/>
<rect x="11.25" y="2" style="fill:#333333;" width="1.5" height="2"/>
<rect x="15.25" y="2" style="fill:#333333;" width="1.5" height="2"/>
<rect x="8" y="16.25" style="fill:#333333;" width="8" height="1.5"/>
</svg>






