<?xml version="1.0" encoding="iso-8859-1"?>
<svg version="1.1" id="&#x56FE;&#x5C42;_1" xmlns="http://www.w3.org/2000/svg" xmlns:xlink="http://www.w3.org/1999/xlink" x="0px"
	 y="0px" viewBox="0 0 24 24" style="enable-background:new 0 0 24 24;" xml:space="preserve">
<path style="fill:#333333;" d="M12,20.75c-5.269,0-9.41-5.063-9.584-5.279L2.037,15l0.379-0.471C2.59,14.313,6.731,9.25,12,9.25
	c5.269,0,9.41,5.063,9.584,5.279L21.963,15l-0.379,0.471C21.41,15.687,17.269,20.75,12,20.75z M4.001,15
	c1.115,1.195,4.324,4.25,7.999,4.25c3.675,0,6.884-3.055,7.998-4.25c-1.114-1.195-4.323-4.25-7.998-4.25
	C8.326,10.75,5.117,13.805,4.001,15z"/>
<path style="fill:#333333;" d="M12,17.75c-1.517,0-2.75-1.233-2.75-2.75s1.233-2.75,2.75-2.75s2.75,1.233,2.75,2.75
	S13.517,17.75,12,17.75z M12,13.75c-0.689,0-1.25,0.561-1.25,1.25s0.561,1.25,1.25,1.25s1.25-0.561,1.25-1.25S12.689,13.75,12,13.75
	z"/>
<path style="fill:#333333;" d="M3.71,9.822c-0.498,0-0.982-0.277-1.316-0.787C1.751,8.052,1.81,6.432,3.02,5.424
	C4.683,4.038,10.306,2.25,14,2.25c3.394,0,5.781,2.149,7.063,3.304c0.156,0.14,0.297,0.268,0.425,0.377l-0.823,1.24
	c-1.006-0.503-4.297-1.489-6.483-0.943c-2.396,0.6-8.907,2.974-9.846,3.443C4.132,9.772,3.92,9.822,3.71,9.822z M14,3.75
	c-3.418,0-8.744,1.763-10.02,2.826C3.484,6.989,3.463,7.491,3.494,7.754c0.043,0.358,0.209,0.549,0.261,0.575
	c0.943-0.517,7.569-2.933,10.063-3.557c1.113-0.279,2.43-0.242,3.669-0.056C16.506,4.165,15.343,3.75,14,3.75z"/>
</svg>






