<?xml version="1.0" encoding="iso-8859-1"?>
<svg version="1.1" id="&#x56FE;&#x5C42;_1" xmlns="http://www.w3.org/2000/svg" xmlns:xlink="http://www.w3.org/1999/xlink" x="0px"
	 y="0px" viewBox="0 0 24 24" style="enable-background:new 0 0 24 24;" xml:space="preserve">
<path style="fill:#333333;" d="M12,21.25c-5.159,0-9.75-4.334-9.75-7.75S6.841,5.75,12,5.75s9.75,4.334,9.75,7.75
	S17.159,21.25,12,21.25z M12,7.25c-4.554,0-8.25,3.782-8.25,6.25c0,2.468,3.696,6.25,8.25,6.25c4.554,0,8.25-3.782,8.25-6.25
	C20.25,11.032,16.554,7.25,12,7.25z"/>
<path style="fill:#333333;" d="M12,17.25c-2.068,0-3.75-1.683-3.75-3.75c0-2.068,1.682-3.75,3.75-3.75c2.067,0,3.75,1.682,3.75,3.75
	C15.75,15.567,14.067,17.25,12,17.25z M12,11.25c-1.241,0-2.25,1.01-2.25,2.25s1.009,2.25,2.25,2.25c1.24,0,2.25-1.01,2.25-2.25
	S13.24,11.25,12,11.25z"/>
<rect x="6.53" y="5.424" transform="matrix(0.8129 -0.5825 0.5825 0.8129 -2.4457 5.4642)" style="fill:#333333;" width="1.501" height="2.227"/>
<rect x="16.051" y="6.011" transform="matrix(0.5823 -0.8129 0.8129 0.5823 1.6729 16.7768)" style="fill:#333333;" width="2.227" height="1.499"/>
<rect x="11.255" y="3.5" style="fill:#333333;" width="1.5" height="3"/>
</svg>






