<?xml version="1.0" encoding="iso-8859-1"?>
<svg version="1.1" id="&#x56FE;&#x5C42;_1" xmlns="http://www.w3.org/2000/svg" xmlns:xlink="http://www.w3.org/1999/xlink" x="0px"
	 y="0px" viewBox="0 0 24 24" style="enable-background:new 0 0 24 24;" xml:space="preserve">
<path style="fill:#333333;" d="M19.5,21.75h-15c-1.241,0-2.25-1.01-2.25-2.25v-15c0-1.241,1.009-2.25,2.25-2.25h15
	c1.24,0,2.25,1.009,2.25,2.25v15C21.75,20.74,20.74,21.75,19.5,21.75z M4.5,3.75c-0.414,0-0.75,0.336-0.75,0.75v15
	c0,0.413,0.336,0.75,0.75,0.75h15c0.413,0,0.75-0.337,0.75-0.75v-15c0-0.414-0.337-0.75-0.75-0.75H4.5z"/>
<path style="fill:#333333;" d="M14.777,16.75c-1.535,0-2.527-0.954-2.527-2.432h1.5c0,0.645,0.316,0.932,1.027,0.932
	c0.884,0,1.473-0.298,1.473-1.75c0-2-0.626-2-1-2c-1.048,0-1.784,0.547-1.791,0.553l-1.209-0.593V7.25H17v1.5h-3.25v1.502
	C14.168,10.11,14.677,10,15.25,10c1.659,0,2.5,1.178,2.5,3.5C17.75,15.565,16.667,16.75,14.777,16.75z"/>
<polygon style="fill:#333333;" points="7.75,16 6.25,16 6.25,7.25 10.5,7.25 10.5,8.75 7.75,8.75 "/>
<rect x="7" y="11.25" style="fill:#333333;" width="3.5" height="1.5"/>
</svg>






