<?xml version="1.0" encoding="iso-8859-1"?>
<svg version="1.1" id="&#x56FE;&#x5C42;_1" xmlns="http://www.w3.org/2000/svg" xmlns:xlink="http://www.w3.org/1999/xlink" x="0px"
	 y="0px" viewBox="0 0 24 24" style="enable-background:new 0 0 24 24;" xml:space="preserve">
<path style="fill:#333333;" d="M19.5,21.75h-15c-1.241,0-2.25-1.01-2.25-2.25v-15c0-1.241,1.009-2.25,2.25-2.25h15
	c1.24,0,2.25,1.009,2.25,2.25v15C21.75,20.74,20.74,21.75,19.5,21.75z M4.5,3.75c-0.414,0-0.75,0.336-0.75,0.75v15
	c0,0.413,0.336,0.75,0.75,0.75h15c0.413,0,0.75-0.337,0.75-0.75v-15c0-0.414-0.337-0.75-0.75-0.75H4.5z"/>
<path style="fill:#333333;" d="M15,12.75c-1.517,0-2.75-1.233-2.75-2.75S13.483,7.25,15,7.25s2.75,1.233,2.75,2.75
	S16.517,12.75,15,12.75z M15,8.75c-0.689,0-1.25,0.561-1.25,1.25s0.561,1.25,1.25,1.25s1.25-0.561,1.25-1.25S15.689,8.75,15,8.75z"
	/>
<path style="fill:#333333;" d="M14.924,16.75c-1.168,0-2.199-0.758-2.628-1.931l1.408-0.516c0.211,0.575,0.689,0.946,1.22,0.946
	c0.641,0,1.326-0.328,1.326-1.25v-4h1.5v4C17.75,15.594,16.562,16.75,14.924,16.75z"/>
<polygon style="fill:#333333;" points="7.75,16 6.25,16 6.25,7.25 10.5,7.25 10.5,8.75 7.75,8.75 "/>
<rect x="7" y="11.25" style="fill:#333333;" width="3.5" height="1.5"/>
</svg>






