<?xml version="1.0" encoding="iso-8859-1"?>
<svg version="1.1" id="&#x56FE;&#x5C42;_1" xmlns="http://www.w3.org/2000/svg" xmlns:xlink="http://www.w3.org/1999/xlink" x="0px"
	 y="0px" viewBox="0 0 24 24" style="enable-background:new 0 0 24 24;" xml:space="preserve">
<path style="fill:#333333;" d="M14.76,22.25H8.873v-6.968H5.25V9.984h3.585l0.037-2.866L8.866,6.481
	C8.853,5.23,9.329,4.049,10.204,3.155c0.876-0.894,2.047-1.393,3.298-1.405h5.248v5.3h-3.757c-0.129,0-0.233,0.104-0.233,0.233
	v2.701h4.114l-0.814,5.298h-3.3V22.25z M10.373,20.75h2.887v-6.968h3.513l0.354-2.298H13.26V7.283c0-0.956,0.777-1.733,1.733-1.733
	h2.257v-2.3h-3.7c-1.788,0.018-3.202,1.46-3.184,3.216l0.007,0.654l-0.057,4.364H6.75v2.298h3.623V20.75z"/>
</svg>






