<?xml version="1.0" encoding="iso-8859-1"?>
<svg version="1.1" id="&#x56FE;&#x5C42;_1" xmlns="http://www.w3.org/2000/svg" xmlns:xlink="http://www.w3.org/1999/xlink" x="0px"
	 y="0px" viewBox="0 0 24 24" style="enable-background:new 0 0 24 24;" xml:space="preserve">
<path style="fill:#333333;" d="M21.944,23.75H2.056c-0.996,0-1.806-0.812-1.806-1.812V2.062c0-0.999,0.81-1.812,1.806-1.812h19.889
	c0.996,0,1.806,0.812,1.806,1.812v19.877C23.75,22.938,22.94,23.75,21.944,23.75z M2.056,1.75c-0.168,0-0.306,0.14-0.306,0.312
	v19.877c0,0.172,0.137,0.312,0.306,0.312h19.889c0.169,0,0.306-0.14,0.306-0.312V2.062c0-0.172-0.137-0.312-0.306-0.312H2.056z"/>
<path style="fill-rule:evenodd;clip-rule:evenodd;fill:#333333;" d="M19.331,8.943h-2.177h-0.257c-0.675,0-1.222,0.547-1.222,1.222
	v2.445h3.657l-0.536,3.665h-3.121V23h-4.021v-6.724h-3.32v-3.665h3.277l0.043-3.479l-0.012-1.247
	c-0.017-1.761,1.397-3.202,3.158-3.219c0.01,0,0.02,0,0.031,0h4.501V8.943z"/>
</svg>






