<?xml version="1.0" encoding="iso-8859-1"?>
<svg version="1.1" id="&#x56FE;&#x5C42;_1" xmlns="http://www.w3.org/2000/svg" xmlns:xlink="http://www.w3.org/1999/xlink" x="0px"
	 y="0px" viewBox="0 0 24 24" style="enable-background:new 0 0 24 24;" xml:space="preserve">
<path style="fill:#333333;" d="M20.5,22.25h-4v-1.5h4c0.138,0,0.25-0.112,0.25-0.25v-4h1.5v4C22.25,21.465,21.465,22.25,20.5,22.25z
	 M7.5,22.25h-4c-0.965,0-1.75-0.785-1.75-1.75v-4h1.5v4c0,0.138,0.112,0.25,0.25,0.25h4V22.25z M22.25,7.5h-1.5v-4
	c0-0.138-0.112-0.25-0.25-0.25h-4v-1.5h4c0.965,0,1.75,0.785,1.75,1.75V7.5z M3.25,7.5h-1.5v-4c0-0.965,0.785-1.75,1.75-1.75h4v1.5
	h-4c-0.138,0-0.25,0.112-0.25,0.25V7.5z"/>
<path style="fill:#333333;" d="M12,19.75c-3.722,0-6.75-3.477-6.75-7.75S8.278,4.25,12,4.25c3.722,0,6.75,3.477,6.75,7.75
	S15.722,19.75,12,19.75z M12,5.75c-2.895,0-5.25,2.804-5.25,6.25s2.355,6.25,5.25,6.25c2.895,0,5.25-2.804,5.25-6.25
	S14.895,5.75,12,5.75z"/>
<rect x="3" y="11.25" style="fill:#333333;" width="18" height="1.5"/>
<path style="fill:#333333;" d="M12,16.506c-0.837,0-1.648-0.286-2.411-0.851l0.892-1.205c1.02,0.754,2.024,0.747,3.108-0.012
	l0.859,1.229C13.653,16.224,12.829,16.506,12,16.506z"/>
</svg>






