<?xml version="1.0" encoding="iso-8859-1"?>
<svg version="1.1" id="&#x56FE;&#x5C42;_1" xmlns="http://www.w3.org/2000/svg" xmlns:xlink="http://www.w3.org/1999/xlink" x="0px"
	 y="0px" viewBox="0 0 24 24" style="enable-background:new 0 0 24 24;" xml:space="preserve">
<path style="fill:#333333;" d="M12,18.75c-4.348,0-8.75-1.288-8.75-3.75s4.402-3.75,8.75-3.75c4.349,0,8.75,1.288,8.75,3.75
	S16.349,18.75,12,18.75z M12,12.75c-4.358,0-7.25,1.354-7.25,2.25s2.892,2.25,7.25,2.25s7.25-1.354,7.25-2.25S16.358,12.75,12,12.75
	z"/>
<path style="fill:#333333;" d="M12,12.75c-4.907,0-8.75-2.526-8.75-5.75S7.093,1.25,12,1.25c4.906,0,8.75,2.526,8.75,5.75
	S16.906,12.75,12,12.75z M12,2.75C8.07,2.75,4.75,4.696,4.75,7s3.32,4.25,7.25,4.25S19.25,9.304,19.25,7S15.93,2.75,12,2.75z"/>
<rect x="8.792" y="5" transform="matrix(0.8576 -0.5144 0.5144 0.8576 -1.4977 6.0917)" style="fill:#333333;" width="2.915" height="1.5"/>
<rect x="12.292" y="7" transform="matrix(0.8576 -0.5144 0.5144 0.8576 -2.0279 8.177)" style="fill:#333333;" width="2.915" height="1.5"/>
<path style="fill:#333333;" d="M12,22.75c-4.348,0-8.75-1.288-8.75-3.75h1.5c0,0.896,2.892,2.25,7.25,2.25s7.25-1.354,7.25-2.25h1.5
	C20.75,21.462,16.349,22.75,12,22.75z"/>
<rect x="19.25" y="15" style="fill:#333333;" width="1.5" height="4"/>
<rect x="3.25" y="15" style="fill:#333333;" width="1.5" height="4"/>
<ellipse style="fill:#333333;" cx="12" cy="15" rx="3.5" ry="1"/>
</svg>






