<?xml version="1.0" encoding="iso-8859-1"?>
<svg version="1.1" id="&#x56FE;&#x5C42;_1" xmlns="http://www.w3.org/2000/svg" xmlns:xlink="http://www.w3.org/1999/xlink" x="0px"
	 y="0px" viewBox="0 0 24 24" style="enable-background:new 0 0 24 24;" xml:space="preserve">
<path style="fill:#333333;" d="M12,20.75c-2.36,0-5.343-2.018-6.911-3.221C4.556,17.12,4.25,16.49,4.25,15.802V7.557
	c0-0.948,0.6-1.8,1.493-2.119l5.5-1.965c0.488-0.174,1.026-0.175,1.515,0l5.499,1.964c0.894,0.32,1.493,1.171,1.493,2.119v8.245
	c0,0.688-0.306,1.317-0.839,1.728C17.343,18.732,14.36,20.75,12,20.75z M12,4.843c-0.085,0-0.17,0.015-0.252,0.043l-5.5,1.964
	C5.95,6.957,5.75,7.241,5.75,7.557v8.245c0,0.219,0.092,0.415,0.252,0.538c2.375,1.822,4.618,2.91,5.998,2.91
	s3.622-1.088,5.998-2.91c0.16-0.123,0.252-0.319,0.252-0.538V7.557c0-0.316-0.2-0.6-0.498-0.707l-5.499-1.964
	C12.171,4.857,12.086,4.843,12,4.843z"/>
<path style="fill:#333333;" d="M5,14.75c-2.068,0-3.75-1.895-3.75-4.224C1.25,8.444,2.617,7.25,5,7.25v1.5
	c-1.983,0-2.25,0.898-2.25,1.776c0,1.502,1.009,2.724,2.25,2.724V14.75z"/>
<path style="fill:#333333;" d="M19,14.75v-1.5c1.24,0,2.25-1.222,2.25-2.724c0-0.878-0.268-1.776-2.25-1.776v-1.5
	c2.383,0,3.75,1.194,3.75,3.276C22.75,12.855,21.067,14.75,19,14.75z"/>
<polygon style="fill:#333333;" points="15.665,13.171 12,11.338 8.335,13.171 7.665,11.829 12,9.662 16.335,11.829 "/>
<polygon style="fill:#333333;" points="14.222,16.196 12,15.308 9.778,16.196 9.222,14.804 12,13.692 14.778,14.804 "/>
</svg>






