<?xml version="1.0" encoding="iso-8859-1"?>
<svg version="1.1" id="&#x56FE;&#x5C42;_1" xmlns="http://www.w3.org/2000/svg" xmlns:xlink="http://www.w3.org/1999/xlink" x="0px"
	 y="0px" viewBox="0 0 24 24" style="enable-background:new 0 0 24 24;" xml:space="preserve">
<polygon style="fill:#333333;" points="17.25,22.75 6.75,22.75 6.75,17 8.25,17 8.25,21.25 15.75,21.25 15.75,17 17.25,17 "/>
<path style="fill:#333333;" d="M17.046,17.75H6.909L3.897,5.702C3.656,4.91,3.646,3.679,4.369,2.706
	C4.862,2.042,5.891,1.25,7.993,1.25h7.975c0.007,0,0.014,0,0.02,0c1.642,0,2.843,0.468,3.57,1.391
	c0.938,1.188,0.682,2.639,0.58,3.056c-0.616,2.548-2.923,11.403-2.946,11.493L17.046,17.75z M8.08,16.25h7.806
	c0.52-1.996,2.271-8.744,2.795-10.906c0.124-0.516,0.111-1.252-0.301-1.774c-0.429-0.544-1.233-0.82-2.392-0.82
	c-0.007,0-0.013,0-0.019,0H7.993c-1.17,0-2.006,0.294-2.419,0.85C5.183,4.126,5.198,4.825,5.342,5.303L8.08,16.25z"/>
<path style="fill:#333333;" d="M12.037,13.456c-1.093,0-2.159-0.713-2.653-1.775c-0.428-0.92-0.321-1.899,0.286-2.619
	c0.764-0.907,1.388-2.24,1.688-2.88l0.504-1.079l0.755,0.921c0.629,0.767,1.974,2.665,2.417,3.715
	c0.304,0.721,0.205,1.546-0.271,2.264C14.169,12.899,13.124,13.456,12.037,13.456z M12.175,7.925
	c-0.353,0.678-0.811,1.455-1.358,2.104l0,0c-0.307,0.364-0.177,0.795-0.073,1.02c0.245,0.526,0.788,0.907,1.293,0.907
	c0.582,0,1.161-0.307,1.477-0.782c0.113-0.171,0.282-0.509,0.138-0.851C13.411,9.752,12.764,8.75,12.175,7.925z"/>
</svg>






