<?xml version="1.0" encoding="iso-8859-1"?>
<svg version="1.1" id="&#x56FE;&#x5C42;_1" xmlns="http://www.w3.org/2000/svg" xmlns:xlink="http://www.w3.org/1999/xlink" x="0px"
	 y="0px" viewBox="0 0 24 24" style="enable-background:new 0 0 24 24;" xml:space="preserve">
<path style="fill:#333333;" d="M19,21.25H5c-1.241,0-2.25-1.01-2.25-2.25V5c0-1.241,1.009-2.25,2.25-2.25h14
	c1.24,0,2.25,1.009,2.25,2.25v14C21.25,20.24,20.24,21.25,19,21.25z M5,4.25C4.586,4.25,4.25,4.586,4.25,5v14
	c0,0.413,0.336,0.75,0.75,0.75h14c0.413,0,0.75-0.337,0.75-0.75V5c0-0.414-0.337-0.75-0.75-0.75H5z"/>
<path style="fill:#333333;" d="M20.05,13.6l-3.306-2.479c-0.098-0.074-0.238-0.064-0.327,0.022L14.03,13.53L12.97,12.47l2.387-2.387
	c0.611-0.612,1.594-0.681,2.288-0.163l3.306,2.48L20.05,13.6z"/>
<rect x="2.533" y="10.75" transform="matrix(0.7399 -0.6728 0.6728 0.7399 -6.1109 7.1965)" style="fill:#333333;" width="7.433" height="1.5"/>
<rect x="11.25" y="-0.728" transform="matrix(0.7071 -0.7071 0.7071 0.7071 -4.9706 12)" style="fill:#333333;" width="1.5" height="25.456"/>
</svg>






