<?xml version="1.0" encoding="iso-8859-1"?>
<svg version="1.1" id="&#x56FE;&#x5C42;_1" xmlns="http://www.w3.org/2000/svg" xmlns:xlink="http://www.w3.org/1999/xlink" x="0px"
	 y="0px" viewBox="0 0 24 24" style="enable-background:new 0 0 24 24;" xml:space="preserve">
<path style="fill:#333333;" d="M2.745,14.091l-1.489-0.182c0.478-3.901,3.351-5.061,3.473-5.108l0.544,1.398L5,9.5l0.277,0.697
	C5.189,10.233,3.109,11.111,2.745,14.091z"/>
<path style="fill:#333333;" d="M21.256,14.091c-0.365-2.979-2.444-3.858-2.533-3.894l0.549-1.396
	c0.122,0.048,2.995,1.208,3.473,5.108L21.256,14.091z"/>
<path style="fill:#333333;" d="M11.266,13.151c-0.492-2.388-2.369-2.903-2.449-2.924l0.36-1.457c0.117,0.029,2.87,0.734,3.557,4.078
	L11.266,13.151z"/>
<path style="fill:#333333;" d="M12.734,13.151l-1.469-0.303c0.688-3.343,3.441-4.049,3.558-4.078l0.354,1.458L15,9.5l0.183,0.728
	C15.104,10.248,13.226,10.763,12.734,13.151z"/>
<path style="fill:#333333;" d="M7.709,20.243l-1.419-0.486c1.031-3.008,3.474-3.477,3.578-3.495l0.264,1.477L10,17l0.139,0.737
	C10.07,17.751,8.444,18.1,7.709,20.243z"/>
<path style="fill:#333333;" d="M16.291,20.243c-0.736-2.144-2.361-2.492-2.431-2.506l0.271-1.476
	c0.104,0.019,2.546,0.487,3.577,3.495L16.291,20.243z"/>
<path style="fill:#333333;" d="M12,18.75c-1.792,0-3.25-1.458-3.25-3.25s1.458-3.25,3.25-3.25s3.25,1.458,3.25,3.25
	S13.792,18.75,12,18.75z M12,13.75c-0.965,0-1.75,0.785-1.75,1.75s0.785,1.75,1.75,1.75s1.75-0.785,1.75-1.75S12.965,13.75,12,13.75
	z"/>
<path style="fill:#333333;" d="M17,10.75c-2.067,0-3.75-1.682-3.75-3.75S14.933,3.25,17,3.25S20.75,4.932,20.75,7
	S19.067,10.75,17,10.75z M17,4.75c-1.24,0-2.25,1.009-2.25,2.25S15.76,9.25,17,9.25S19.25,8.241,19.25,7S18.24,4.75,17,4.75z"/>
<path style="fill:#333333;" d="M7,10.75c-2.068,0-3.75-1.682-3.75-3.75S4.932,3.25,7,3.25S10.75,4.932,10.75,7S9.068,10.75,7,10.75z
	 M7,4.75C5.759,4.75,4.75,5.759,4.75,7S5.759,9.25,7,9.25S9.25,8.241,9.25,7S8.241,4.75,7,4.75z"/>
</svg>






