<?xml version="1.0" encoding="iso-8859-1"?>
<svg version="1.1" id="&#x56FE;&#x5C42;_1" xmlns="http://www.w3.org/2000/svg" xmlns:xlink="http://www.w3.org/1999/xlink" x="0px"
	 y="0px" viewBox="0 0 24 24" style="enable-background:new 0 0 24 24;" xml:space="preserve">
<path style="fill:#333333;" d="M12.278,22.698c-0.705,0-1.409-0.268-1.944-0.804l-4.95-4.95c-1.072-1.072-1.072-2.816,0-3.889
	l5.657-5.657c0.682-0.682,1.791-0.682,2.475,0l5.657,5.658c1.071,1.072,1.071,2.816,0,3.889l-4.95,4.95
	C13.687,22.43,12.982,22.698,12.278,22.698z M12.278,8.386c-0.064,0-0.128,0.024-0.177,0.073l-5.657,5.657
	c-0.487,0.487-0.487,1.28,0,1.768l4.95,4.95c0.487,0.486,1.282,0.486,1.768,0l4.95-4.95c0.486-0.487,0.486-1.28,0-1.768
	l-5.657-5.657C12.406,8.411,12.343,8.386,12.278,8.386z"/>
<path style="fill:#333333;" d="M15.842,9.996l-1.127-0.99c0.022-0.026,2.271-2.583,3.085-3.589c0.27-0.333,0.817-1.174,0.093-1.799
	c-0.208-0.18-0.527-0.395-0.836-0.364c-0.256,0.021-0.524,0.195-0.797,0.518c-0.913,1.083-3.2,3.648-3.2,3.648l-1.12-0.998
	c0.001-0.001,2.268-2.544,3.173-3.617c0.541-0.641,1.154-0.993,1.824-1.046c0.647-0.047,1.324,0.198,1.936,0.724
	c1.138,0.982,1.175,2.541,0.093,3.878C18.132,7.39,15.935,9.89,15.842,9.996z"/>
<path style="fill:#333333;" d="M9.158,9.995c-0.093-0.106-2.29-2.606-3.124-3.636C4.952,5.022,4.989,3.464,6.127,2.481
	c0.609-0.525,1.278-0.772,1.936-0.724c0.67,0.053,1.284,0.405,1.824,1.046c0.905,1.073,3.172,3.616,3.173,3.617l-1.12,0.998
	c0,0-2.287-2.565-3.2-3.648C8.467,3.447,8.199,3.272,7.944,3.252C7.631,3.225,7.316,3.437,7.107,3.617
	C6.383,4.242,6.931,5.083,7.2,5.416c0.815,1.006,3.062,3.563,3.085,3.589L9.158,9.995z"/>
</svg>






