<?xml version="1.0" encoding="iso-8859-1"?>
<svg version="1.1" id="&#x56FE;&#x5C42;_1" xmlns="http://www.w3.org/2000/svg" xmlns:xlink="http://www.w3.org/1999/xlink" x="0px"
	 y="0px" viewBox="0 0 24 24" style="enable-background:new 0 0 24 24;" xml:space="preserve">
<g>
	<defs>
		<rect id="SVGID_1_" width="24" height="24"/>
	</defs>
	<clipPath id="SVGID_00000062152897198374139300000016194912379608028081_">
		<use xlink:href="#SVGID_1_"  style="overflow:visible;"/>
	</clipPath>
	<g style="clip-path:url(#SVGID_00000062152897198374139300000016194912379608028081_);">
		<path style="fill:#333333;" d="M14.239,17.622c-1.984,0-3.969-0.756-5.48-2.267c-1.464-1.464-2.27-3.411-2.27-5.48
			c0-2.07,0.806-4.016,2.27-5.48s3.411-2.27,5.48-2.27c2.07,0,4.017,0.806,5.48,2.27l0,0l0,0c3.021,3.021,3.021,7.938,0,10.96
			C18.209,16.866,16.225,17.622,14.239,17.622z M14.239,3.625c-1.669,0-3.239,0.65-4.419,1.831s-1.831,2.75-1.831,4.419
			c0,1.669,0.65,3.239,1.831,4.419c2.439,2.437,6.403,2.436,8.839,0c2.437-2.437,2.437-6.402,0-8.839l0,0
			C17.479,4.275,15.909,3.625,14.239,3.625z"/>
		
			<rect x="1.55" y="17.2" transform="matrix(0.7071 -0.7071 0.7071 0.7071 -10.9203 9.5354)" style="fill:#333333;" width="9" height="1.5"/>
		
			<rect x="5.654" y="13.096" transform="matrix(0.7071 -0.7071 0.7071 0.7071 -10.5668 9.682)" style="fill:#333333;" width="1.5" height="9"/>
	</g>
</g>
</svg>






