<?xml version="1.0" encoding="iso-8859-1"?>
<svg version="1.1" id="&#x56FE;&#x5C42;_1" xmlns="http://www.w3.org/2000/svg" xmlns:xlink="http://www.w3.org/1999/xlink" x="0px"
	 y="0px" viewBox="0 0 24 24" style="enable-background:new 0 0 24 24;" xml:space="preserve">
<rect x="1.593" y="15.75" transform="matrix(0.5637 -0.826 0.826 0.5637 -10.0292 14.0138)" style="fill:#333333;" width="13.314" height="1.5"/>
<rect x="15" y="9.843" transform="matrix(0.8263 -0.5633 0.5633 0.8263 -6.5579 11.7387)" style="fill:#333333;" width="1.501" height="13.313"/>
<path style="fill:#333333;" d="M3.822,12.099C3.774,11.737,3.75,11.367,3.75,11c0-1.147,0.231-2.257,0.687-3.3
	c0.043-0.101,0.09-0.201,0.139-0.301l1.349,0.656C5.885,8.135,5.848,8.216,5.812,8.298C5.439,9.152,5.25,10.061,5.25,11
	c0,0.305,0.02,0.606,0.06,0.901L3.822,12.099z"/>
<path style="fill:#333333;" d="M10.351,19.085c-2.249-0.456-4.222-1.849-5.415-3.821l1.283-0.775
	c0.976,1.613,2.591,2.753,4.429,3.126L10.351,19.085z"/>
<path style="fill:#333333;" d="M13.649,19.085l-0.299-1.471c1.861-0.377,3.486-1.535,4.459-3.177l1.291,0.766
	C17.912,17.208,15.925,18.623,13.649,19.085z"/>
<path style="fill:#333333;" d="M20.177,12.1L18.69,11.9c0.039-0.295,0.06-0.598,0.06-0.9c0-1.033-0.227-2.024-0.675-2.946
	l1.35-0.655C19.973,8.526,20.25,9.738,20.25,11C20.25,11.369,20.226,11.739,20.177,12.1z"/>
<path style="fill:#333333;" d="M16.5,5.969c-0.894-0.799-1.982-1.347-3.149-1.584l0.299-1.47c1.428,0.29,2.76,0.959,3.851,1.936
	L16.5,5.969z"/>
<path style="fill:#333333;" d="M7.223,6.231L6.163,5.17c0.109-0.109,0.221-0.216,0.336-0.319c1.093-0.978,2.424-1.647,3.852-1.937
	l0.299,1.47C9.482,4.622,8.394,5.169,7.5,5.969C7.406,6.053,7.313,6.141,7.223,6.231z"/>
<path style="fill:#333333;" d="M5,15.75c-1.241,0-2.25-1.01-2.25-2.25S3.759,11.25,5,11.25s2.25,1.01,2.25,2.25S6.241,15.75,5,15.75
	z M5,12.75c-0.414,0-0.75,0.337-0.75,0.75S4.586,14.25,5,14.25s0.75-0.337,0.75-0.75S5.414,12.75,5,12.75z"/>
<path style="fill:#333333;" d="M12,20.75c-1.241,0-2.25-1.01-2.25-2.25s1.009-2.25,2.25-2.25c1.24,0,2.25,1.01,2.25,2.25
	S13.24,20.75,12,20.75z M12,17.75c-0.414,0-0.75,0.337-0.75,0.75s0.336,0.75,0.75,0.75c0.413,0,0.75-0.337,0.75-0.75
	S12.413,17.75,12,17.75z"/>
<path style="fill:#333333;" d="M12,5.75c-1.241,0-2.25-1.009-2.25-2.25S10.759,1.25,12,1.25c1.24,0,2.25,1.009,2.25,2.25
	S13.24,5.75,12,5.75z M12,2.75c-0.414,0-0.75,0.336-0.75,0.75S11.586,4.25,12,4.25c0.413,0,0.75-0.336,0.75-0.75
	S12.413,2.75,12,2.75z"/>
<path style="fill:#333333;" d="M6,8.75c-1.241,0-2.25-1.009-2.25-2.25S4.759,4.25,6,4.25S8.25,5.259,8.25,6.5S7.241,8.75,6,8.75z
	 M6,5.75c-0.414,0-0.75,0.336-0.75,0.75S5.586,7.25,6,7.25S6.75,6.914,6.75,6.5S6.414,5.75,6,5.75z"/>
<path style="fill:#333333;" d="M18,8.75c-1.24,0-2.25-1.009-2.25-2.25S16.76,4.25,18,4.25s2.25,1.009,2.25,2.25S19.24,8.75,18,8.75z
	 M18,5.75c-0.413,0-0.75,0.336-0.75,0.75S17.587,7.25,18,7.25s0.75-0.336,0.75-0.75S18.413,5.75,18,5.75z"/>
<path style="fill:#333333;" d="M19,15.75c-1.24,0-2.25-1.01-2.25-2.25s1.01-2.25,2.25-2.25s2.25,1.01,2.25,2.25
	S20.24,15.75,19,15.75z M19,12.75c-0.413,0-0.75,0.337-0.75,0.75s0.337,0.75,0.75,0.75s0.75-0.337,0.75-0.75S19.413,12.75,19,12.75z
	"/>
<circle style="fill:#333333;" cx="12" cy="11" r="2"/>
<rect x="3" y="21.25" style="fill:#333333;" width="4" height="1.5"/>
<rect x="17" y="21.25" style="fill:#333333;" width="4" height="1.5"/>
</svg>






