<?xml version="1.0" encoding="iso-8859-1"?>
<svg version="1.1" id="&#x56FE;&#x5C42;_1" xmlns="http://www.w3.org/2000/svg" xmlns:xlink="http://www.w3.org/1999/xlink" x="0px"
	 y="0px" viewBox="0 0 24 24" style="enable-background:new 0 0 24 24;" xml:space="preserve">
<path style="fill:#333333;" d="M12,22.75C6.072,22.75,1.25,17.928,1.25,12S6.072,1.25,12,1.25S22.75,6.072,22.75,12
	S17.928,22.75,12,22.75z M12,2.75c-5.101,0-9.25,4.149-9.25,9.25s4.149,9.25,9.25,9.25s9.25-4.149,9.25-9.25S17.101,2.75,12,2.75z"
	/>
<path style="fill:#333333;" d="M7,21.528l-0.375-0.217C3.31,19.395,1.25,15.826,1.25,12c0-3.826,2.06-7.394,5.375-9.312L7,2.471
	l0.375,0.217C10.69,4.606,12.75,8.174,12.75,12c0,3.826-2.06,7.395-5.375,9.312L7,21.528z M7,4.216C4.368,5.912,2.75,8.855,2.75,12
	c0,3.146,1.618,6.088,4.25,7.783c2.632-1.695,4.25-4.638,4.25-7.783C11.25,8.855,9.632,5.912,7,4.216z"/>
</svg>






