<?xml version="1.0" encoding="iso-8859-1"?>
<svg version="1.1" id="&#x56FE;&#x5C42;_1" xmlns="http://www.w3.org/2000/svg" xmlns:xlink="http://www.w3.org/1999/xlink" x="0px"
	 y="0px" viewBox="0 0 24 24" style="enable-background:new 0 0 24 24;" xml:space="preserve">
<polygon style="fill:#333333;" points="12,23.061 0.939,12 12,0.939 22.53,11.47 21.47,12.53 12,3.061 3.061,12 12,20.939 
	16.97,15.97 18.03,17.03 "/>
<path style="fill:#333333;" d="M20.164,22.348l-1.329-0.695c0.692-1.326,2.11-5.146,0.385-6.872c-1.86-1.86-6.537-2.098-8.19-2.031
	l-0.06-1.499c0.27-0.007,6.609-0.231,9.31,2.469C23.138,16.577,20.287,22.113,20.164,22.348z"/>
<polygon style="fill:#333333;" points="12.47,14.53 9.939,12 12.47,9.47 13.53,10.53 12.061,12 13.53,13.47 "/>
</svg>






