<?xml version="1.0" encoding="iso-8859-1"?>
<svg version="1.1" id="&#x56FE;&#x5C42;_1" xmlns="http://www.w3.org/2000/svg" xmlns:xlink="http://www.w3.org/1999/xlink" x="0px"
	 y="0px" viewBox="0 0 24 24" style="enable-background:new 0 0 24 24;" xml:space="preserve">
<path style="fill:#333333;" d="M12,10.561L7.439,6L12,1.439L16.561,6L12,10.561z M9.561,6L12,8.439L14.439,6L12,3.561L9.561,6z"/>
<path style="fill:#333333;" d="M12,22.561L7.439,18L12,13.439L16.561,18L12,22.561z M9.561,18L12,20.439L14.439,18L12,15.561
	L9.561,18z"/>
<path style="fill:#333333;" d="M18,16.561L13.439,12L18,7.439L22.561,12L18,16.561z M15.561,12L18,14.439L20.439,12L18,9.561
	L15.561,12z"/>
<path style="fill:#333333;" d="M6,16.561L1.439,12L6,7.439L10.561,12L6,16.561z M3.561,12L6,14.439L8.439,12L6,9.561L3.561,12z"/>
</svg>






