<?xml version="1.0" encoding="iso-8859-1"?>
<svg version="1.1" id="&#x56FE;&#x5C42;_1" xmlns="http://www.w3.org/2000/svg" xmlns:xlink="http://www.w3.org/1999/xlink" x="0px"
	 y="0px" viewBox="0 0 24 24" style="enable-background:new 0 0 24 24;" xml:space="preserve">
<path style="fill:#333333;" d="M19.5,21.75h-15c-1.241,0-2.25-1.01-2.25-2.25v-15c0-1.241,1.009-2.25,2.25-2.25h15
	c1.24,0,2.25,1.009,2.25,2.25v15C21.75,20.74,20.74,21.75,19.5,21.75z M4.5,3.75c-0.414,0-0.75,0.336-0.75,0.75v15
	c0,0.413,0.336,0.75,0.75,0.75h15c0.413,0,0.75-0.337,0.75-0.75v-15c0-0.414-0.337-0.75-0.75-0.75H4.5z"/>
<path style="fill:#333333;" d="M12.75,11.25H10.5c-1.241,0-2.25-1.009-2.25-2.25s1.009-2.25,2.25-2.25h2.25V11.25z M10.5,8.25
	c-0.414,0-0.75,0.336-0.75,0.75s0.336,0.75,0.75,0.75h0.75v-1.5H10.5z"/>
<path style="fill:#333333;" d="M12.75,14.25H10.5c-1.241,0-2.25-1.01-2.25-2.25c0-1.241,1.009-2.25,2.25-2.25h2.25V14.25z
	 M10.5,11.25c-0.414,0-0.75,0.336-0.75,0.75c0,0.413,0.336,0.75,0.75,0.75h0.75v-1.5H10.5z"/>
<path style="fill:#333333;" d="M10.5,17.25c-1.241,0-2.25-1.01-2.25-2.25s1.009-2.25,2.25-2.25h2.25V15
	C12.75,16.24,11.741,17.25,10.5,17.25z M10.5,14.25c-0.414,0-0.75,0.337-0.75,0.75s0.336,0.75,0.75,0.75s0.75-0.337,0.75-0.75v-0.75
	H10.5z"/>
<path style="fill:#333333;" d="M13.5,11.25h-2.25v-4.5h2.25c1.24,0,2.25,1.009,2.25,2.25S14.74,11.25,13.5,11.25z M12.75,9.75h0.75
	c0.413,0,0.75-0.336,0.75-0.75s-0.337-0.75-0.75-0.75h-0.75V9.75z"/>
<path style="fill:#333333;" d="M13.5,14.25c-1.24,0-2.25-1.01-2.25-2.25c0-1.241,1.01-2.25,2.25-2.25s2.25,1.009,2.25,2.25
	C15.75,13.24,14.74,14.25,13.5,14.25z M13.5,11.25c-0.413,0-0.75,0.336-0.75,0.75c0,0.413,0.337,0.75,0.75,0.75
	s0.75-0.337,0.75-0.75C14.25,11.586,13.913,11.25,13.5,11.25z"/>
</svg>






