<?xml version="1.0" encoding="iso-8859-1"?>
<svg version="1.1" id="&#x56FE;&#x5C42;_1" xmlns="http://www.w3.org/2000/svg" xmlns:xlink="http://www.w3.org/1999/xlink" x="0px"
	 y="0px" viewBox="0 0 24 24" style="enable-background:new 0 0 24 24;" xml:space="preserve">
<path style="fill:#333333;" d="M19,22.75H5c-0.965,0-1.75-0.785-1.75-1.75V3c0-0.965,0.785-1.75,1.75-1.75h10.75v5h5V21
	C20.75,21.965,19.965,22.75,19,22.75z M5,2.75C4.862,2.75,4.75,2.862,4.75,3v18c0,0.138,0.112,0.25,0.25,0.25h14
	c0.138,0,0.25-0.112,0.25-0.25V7.75h-5v-5H5z"/>
<rect x="16.75" y="0.964" transform="matrix(0.7071 -0.7071 0.7071 0.7071 1.9437 13.6924)" style="fill:#333333;" width="1.5" height="7.071"/>
<path style="fill:#333333;" d="M12,14.75c-1.517,0-2.75-1.233-2.75-2.75S10.483,9.25,12,9.25s2.75,1.233,2.75,2.75
	S13.517,14.75,12,14.75z M12,10.75c-0.689,0-1.25,0.561-1.25,1.25s0.561,1.25,1.25,1.25s1.25-0.561,1.25-1.25S12.689,10.75,12,10.75
	z"/>
<path style="fill:#333333;" d="M16.75,18h-1.5c0-1.792-1.458-3.25-3.25-3.25S8.75,16.208,8.75,18h-1.5c0-2.619,2.131-4.75,4.75-4.75
	S16.75,15.381,16.75,18z"/>
</svg>






