<?xml version="1.0" encoding="iso-8859-1"?>
<svg version="1.1" id="&#x56FE;&#x5C42;_1" xmlns="http://www.w3.org/2000/svg" xmlns:xlink="http://www.w3.org/1999/xlink" x="0px"
	 y="0px" viewBox="0 0 24 24" style="enable-background:new 0 0 24 24;" xml:space="preserve">
<path style="fill:#333333;" d="M11,22.75H5c-0.965,0-1.75-0.785-1.75-1.75V3c0-0.965,0.785-1.75,1.75-1.75h10.834l4.916,5.462V11.5
	h-1.5V7.288L15.166,2.75H5C4.862,2.75,4.75,2.862,4.75,3v18c0,0.138,0.112,0.25,0.25,0.25h6V22.75z"/>
<path style="fill:#333333;" d="M19.276,22.294L17,21.008l-2.276,1.286l-1.104-0.803l0.521-2.562l-1.926-1.767l0.422-1.298
	l2.597-0.298l1.085-2.378h1.365l1.085,2.378l2.597,0.298l0.422,1.298l-1.926,1.767l0.521,2.562L19.276,22.294z M17,19.285
	l1.584,0.895l-0.362-1.782l1.34-1.229l-1.806-0.207L17,15.306l-0.756,1.655l-1.806,0.207l1.34,1.229l-0.362,1.782L17,19.285z"/>
<polygon style="fill:#333333;" points="20,7.75 14.25,7.75 14.25,2 15.75,2 15.75,6.25 20,6.25 "/>
</svg>






