<?xml version="1.0" encoding="iso-8859-1"?>
<svg version="1.1" id="&#x56FE;&#x5C42;_1" xmlns="http://www.w3.org/2000/svg" xmlns:xlink="http://www.w3.org/1999/xlink" x="0px"
	 y="0px" viewBox="0 0 24 24" style="enable-background:new 0 0 24 24;" xml:space="preserve">
<path style="fill:#333333;" d="M19,22.75H5c-0.965,0-1.75-0.785-1.75-1.75V3c0-0.965,0.785-1.75,1.75-1.75h10.75v5h5V21
	C20.75,21.965,19.965,22.75,19,22.75z M5,2.75C4.862,2.75,4.75,2.862,4.75,3v18c0,0.138,0.112,0.25,0.25,0.25h14
	c0.138,0,0.25-0.112,0.25-0.25V7.75h-5v-5H5z"/>
<rect x="16.75" y="0.964" transform="matrix(0.7071 -0.7071 0.7071 0.7071 1.9437 13.6924)" style="fill:#333333;" width="1.5" height="7.071"/>
<path style="fill:#333333;" d="M12,18.305l-0.271-0.105c-1.428-0.553-3.979-2.85-3.979-5.456c0-1.65,1.2-2.993,2.675-2.993
	C11,9.75,11.549,9.955,12,10.322c0.451-0.367,1-0.572,1.575-0.572c1.475,0,2.675,1.343,2.675,2.993c0,2.606-2.551,4.902-3.979,5.456
	L12,18.305z M10.425,11.25c-0.648,0-1.175,0.67-1.175,1.493c0,1.715,1.681,3.365,2.75,3.932c1.069-0.566,2.75-2.218,2.75-3.932
	c0-0.823-0.527-1.493-1.175-1.493c-0.366,0-0.706,0.215-0.934,0.591L12,12.903l-0.642-1.062
	C11.131,11.465,10.791,11.25,10.425,11.25z"/>
</svg>






