<?xml version="1.0" encoding="iso-8859-1"?>
<svg version="1.1" id="&#x56FE;&#x5C42;_1" xmlns="http://www.w3.org/2000/svg" xmlns:xlink="http://www.w3.org/1999/xlink" x="0px"
	 y="0px" viewBox="0 0 24 24" style="enable-background:new 0 0 24 24;" xml:space="preserve">
<path style="fill:#333333;" d="M19,22.75H5c-0.965,0-1.75-0.785-1.75-1.75V3c0-0.965,0.785-1.75,1.75-1.75h10.75v5h5V21
	C20.75,21.965,19.965,22.75,19,22.75z M5,2.75C4.862,2.75,4.75,2.862,4.75,3v18c0,0.138,0.112,0.25,0.25,0.25h14
	c0.138,0,0.25-0.112,0.25-0.25V7.75h-5v-5H5z"/>
<rect x="16.75" y="0.964" transform="matrix(0.7071 -0.7071 0.7071 0.7071 1.9437 13.6924)" style="fill:#333333;" width="1.5" height="7.071"/>
<path style="fill:#333333;" d="M12,18.878l-0.391-0.237C11.452,18.544,7.75,16.234,7.75,11.6c0-0.434,0-1.089,4.031-2.317L12,9.216
	l0.219,0.067c4.031,1.228,4.031,1.884,4.031,2.317c0,4.634-3.702,6.944-3.859,7.041L12,18.878z M9.255,11.864
	C9.362,14.707,11.18,16.44,12,17.081c0.819-0.64,2.638-2.373,2.745-5.217c-0.442-0.273-1.659-0.737-2.745-1.079
	C10.914,11.127,9.697,11.591,9.255,11.864z"/>
</svg>






