<?xml version="1.0" encoding="iso-8859-1"?>
<svg version="1.1" id="&#x56FE;&#x5C42;_1" xmlns="http://www.w3.org/2000/svg" xmlns:xlink="http://www.w3.org/1999/xlink" x="0px"
	 y="0px" viewBox="0 0 24 24" style="enable-background:new 0 0 24 24;" xml:space="preserve">
<path style="fill:#333333;" d="M19,22.75H5c-0.965,0-1.75-0.785-1.75-1.75V3c0-0.965,0.785-1.75,1.75-1.75h10.75v5h5V21
	C20.75,21.965,19.965,22.75,19,22.75z M5,2.75C4.862,2.75,4.75,2.862,4.75,3v18c0,0.138,0.112,0.25,0.25,0.25h14
	c0.138,0,0.25-0.112,0.25-0.25V7.75h-5v-5H5z"/>
<rect x="16.75" y="0.964" transform="matrix(0.7071 -0.7071 0.7071 0.7071 1.9437 13.6924)" style="fill:#333333;" width="1.5" height="7.071"/>
<path style="fill:#333333;" d="M12,17.75c-2.853,0-5.031-3.196-5.123-3.332L6.597,14l0.281-0.418C6.969,13.446,9.147,10.25,12,10.25
	s5.031,3.196,5.123,3.332L17.403,14l-0.28,0.418C17.031,14.554,14.853,17.75,12,17.75z M8.439,14c0.609,0.751,2.016,2.25,3.561,2.25
	c1.544,0,2.952-1.499,3.561-2.25c-0.608-0.751-2.017-2.25-3.561-2.25C10.456,11.75,9.048,13.249,8.439,14z"/>
<path style="fill:#333333;" d="M12,15c0.552,0,1-0.448,1-1s-0.448-1-1-1s-1,0.448-1,1S11.448,15,12,15z"/>
</svg>






