<?xml version="1.0" encoding="iso-8859-1"?>
<svg version="1.1" id="&#x56FE;&#x5C42;_1" xmlns="http://www.w3.org/2000/svg" xmlns:xlink="http://www.w3.org/1999/xlink" x="0px"
	 y="0px" viewBox="0 0 24 24" style="enable-background:new 0 0 24 24;" xml:space="preserve">
<polygon style="fill:#333333;" points="19.75,22.75 4.25,22.75 4.25,19 5.75,19 5.75,21.25 18.25,21.25 18.25,19 19.75,19 "/>
<polygon style="fill:#333333;" points="19.75,10 18.25,10 18.25,7.263 14.64,2.75 5.75,2.75 5.75,10 4.25,10 4.25,1.25 15.36,1.25 
	19.75,6.737 "/>
<polygon style="fill:#333333;" points="19,7.75 13.25,7.75 13.25,2 14.75,2 14.75,6.25 19,6.25 "/>
<path style="fill:#333333;" d="M21,19.75H3c-0.965,0-1.75-0.785-1.75-1.75v-7c0-0.965,0.785-1.75,1.75-1.75h18
	c0.965,0,1.75,0.785,1.75,1.75v7C22.75,18.965,21.965,19.75,21,19.75z M3,10.75c-0.138,0-0.25,0.112-0.25,0.25v7
	c0,0.138,0.112,0.25,0.25,0.25h18c0.138,0,0.25-0.112,0.25-0.25v-7c0-0.138-0.112-0.25-0.25-0.25H3z"/>
<rect x="9.75" y="12.5" style="fill:#333333;" width="1.5" height="4"/>
<rect x="4.25" y="12.5" style="fill:#333333;" width="1.5" height="4"/>
<polygon style="fill:#333333;" points="16.75,16.5 15.25,16.5 15.25,11.75 18.5,11.75 18.5,13.25 16.75,13.25 "/>
<rect x="16" y="14.25" style="fill:#333333;" width="2.5" height="1.5"/>
<path style="fill:#333333;" d="M6.75,15.75H5v-1.5h1.75c0.276,0,0.5-0.225,0.5-0.5s-0.224-0.5-0.5-0.5H5v-1.5h1.75
	c1.103,0,2,0.897,2,2S7.853,15.75,6.75,15.75z"/>
<path style="fill:#333333;" d="M11.5,17.25h-1v-1.5h1c0.689,0,1.25-0.561,1.25-1.25s-0.561-1.25-1.25-1.25h-1v-1.5h1
	c1.517,0,2.75,1.233,2.75,2.75S13.017,17.25,11.5,17.25z"/>
<rect x="8" y="5.25" style="fill:#333333;" width="2" height="1.5"/>
</svg>






