<?xml version="1.0" encoding="iso-8859-1"?>
<svg version="1.1" id="&#x56FE;&#x5C42;_1" xmlns="http://www.w3.org/2000/svg" xmlns:xlink="http://www.w3.org/1999/xlink" x="0px"
	 y="0px" viewBox="0 0 24 24" style="enable-background:new 0 0 24 24;" xml:space="preserve">
<polygon style="fill:#333333;" points="19.75,21.25 12.5,21.25 12.5,19.75 18.25,19.75 18.25,17 19.75,17 "/>
<polygon style="fill:#333333;" points="19.75,7 18.25,7 18.25,4.25 12.5,4.25 12.5,2.75 19.75,2.75 "/>
<polygon style="fill:#333333;" points="13.25,23.065 4.25,19.837 4.25,17 5.75,17 5.75,18.782 11.75,20.935 11.75,17.122 
	13.25,17.122 "/>
<polygon style="fill:#333333;" points="13.25,6.986 11.75,6.986 11.75,3.066 5.75,5.218 5.75,6.986 4.25,6.986 4.25,4.163 
	13.25,0.934 "/>
<path style="fill:#333333;" d="M21,17.75H3c-0.965,0-1.75-0.785-1.75-1.75V8c0-0.965,0.785-1.75,1.75-1.75h18
	c0.965,0,1.75,0.785,1.75,1.75v8C22.75,16.965,21.965,17.75,21,17.75z M3,7.75C2.862,7.75,2.75,7.862,2.75,8v8
	c0,0.138,0.112,0.25,0.25,0.25h18c0.138,0,0.25-0.112,0.25-0.25V8c0-0.138-0.112-0.25-0.25-0.25H3z"/>
<rect x="4.25" y="9.5" style="fill:#333333;" width="1.5" height="5"/>
<rect x="9.75" y="9.5" style="fill:#333333;" width="1.5" height="5"/>
<rect x="16.75" y="10" style="fill:#333333;" width="1.5" height="4"/>
<rect x="16" y="9.25" style="fill:#333333;" width="3" height="1.5"/>
<path style="fill:#333333;" d="M6.5,13.25H5v-1.5h1.5c0.414,0,0.75-0.336,0.75-0.75s-0.336-0.75-0.75-0.75H5v-1.5h1.5
	c1.241,0,2.25,1.009,2.25,2.25C8.75,12.24,7.741,13.25,6.5,13.25z"/>
<path style="fill:#333333;" d="M12,13.25h-1.5v-1.5H12c0.413,0,0.75-0.336,0.75-0.75s-0.337-0.75-0.75-0.75h-1.5v-1.5H12
	c1.24,0,2.25,1.009,2.25,2.25C14.25,12.24,13.24,13.25,12,13.25z"/>
</svg>






