<?xml version="1.0" encoding="iso-8859-1"?>
<svg version="1.1" id="&#x56FE;&#x5C42;_1" xmlns="http://www.w3.org/2000/svg" xmlns:xlink="http://www.w3.org/1999/xlink" x="0px"
	 y="0px" viewBox="0 0 24 24" style="enable-background:new 0 0 24 24;" xml:space="preserve">
<path style="fill:#333333;" d="M19,22.75H5c-0.965,0-1.75-0.785-1.75-1.75V3c0-0.965,0.785-1.75,1.75-1.75h10.311l5.439,5.439V21
	C20.75,21.965,19.965,22.75,19,22.75z M5,2.75C4.862,2.75,4.75,2.862,4.75,3v18c0,0.138,0.112,0.25,0.25,0.25h14
	c0.138,0,0.25-0.112,0.25-0.25V7.311L14.689,2.75H5z"/>
<polygon style="fill:#333333;" points="13.833,17.335 12.004,13.677 10.175,17.335 8.771,17.157 7.271,10.157 8.737,9.843 
	9.789,14.752 11.333,11.665 12.675,11.665 14.219,14.752 15.271,9.843 16.737,10.157 15.237,17.157 "/>
</svg>






