<?xml version="1.0" encoding="iso-8859-1"?>
<svg version="1.1" id="&#x56FE;&#x5C42;_1" xmlns="http://www.w3.org/2000/svg" xmlns:xlink="http://www.w3.org/1999/xlink" x="0px"
	 y="0px" viewBox="0 0 24 24" style="enable-background:new 0 0 24 24;" xml:space="preserve">
<path style="fill:#333333;" d="M10,22.75H5c-0.965,0-1.75-0.785-1.75-1.75V3c0-0.965,0.785-1.75,1.75-1.75h10.834l4.916,5.462V11.5
	h-1.5V7.288L15.166,2.75H5C4.862,2.75,4.75,2.862,4.75,3v18c0,0.138,0.112,0.25,0.25,0.25h5V22.75z"/>
<path style="fill:#333333;" d="M17,18.75c-1.517,0-2.75-1.233-2.75-2.75s1.233-2.75,2.75-2.75s2.75,1.233,2.75,2.75
	S18.517,18.75,17,18.75z M17,14.75c-0.689,0-1.25,0.561-1.25,1.25s0.561,1.25,1.25,1.25s1.25-0.561,1.25-1.25S17.689,14.75,17,14.75
	z"/>
<path style="fill:#333333;" d="M21.75,22h-1.5c0-1.792-1.458-3.25-3.25-3.25s-3.25,1.458-3.25,3.25h-1.5
	c0-2.619,2.131-4.75,4.75-4.75S21.75,19.381,21.75,22z"/>
<polygon style="fill:#333333;" points="20,7.75 14.25,7.75 14.25,2 15.75,2 15.75,6.25 20,6.25 "/>
</svg>






