<?xml version="1.0" encoding="iso-8859-1"?>
<svg version="1.1" id="&#x56FE;&#x5C42;_1" xmlns="http://www.w3.org/2000/svg" xmlns:xlink="http://www.w3.org/1999/xlink" x="0px"
	 y="0px" viewBox="0 0 24 24" style="enable-background:new 0 0 24 24;" xml:space="preserve">
<path style="fill:#333333;" d="M13,22.75H5c-0.965,0-1.75-0.785-1.75-1.75V3c0-0.965,0.785-1.75,1.75-1.75h14
	c0.965,0,1.75,0.785,1.75,1.75v7.421h-1.5V3c0-0.138-0.112-0.25-0.25-0.25H5C4.862,2.75,4.75,2.862,4.75,3v18
	c0,0.138,0.112,0.25,0.25,0.25h8V22.75z"/>
<rect x="7" y="7.75" style="fill:#333333;" width="3" height="1.5"/>
<rect x="14" y="7.75" style="fill:#333333;" width="3" height="1.5"/>
<rect x="7" y="13.25" style="fill:#333333;" width="3" height="1.5"/>
<rect x="7" y="16.25" style="fill:#333333;" width="3" height="1.5"/>
<rect x="7.75" y="7" style="fill:#333333;" width="1.5" height="3"/>
<rect x="19.175" y="18.425" transform="matrix(0.7071 -0.7071 0.7071 0.7071 -8.2531 19.9248)" style="fill:#333333;" width="1.5" height="3"/>
<path style="fill:#333333;" d="M16.742,20.49c-0.96,0-1.92-0.365-2.651-1.096c-1.461-1.462-1.461-3.842,0-5.304
	c1.462-1.46,3.84-1.462,5.304,0l0,0c1.461,1.462,1.461,3.842,0,5.304C18.663,20.125,17.703,20.49,16.742,20.49z M16.743,14.494
	c-0.577,0-1.153,0.219-1.592,0.657c-0.877,0.877-0.877,2.306,0,3.183c0.877,0.878,2.306,0.876,3.183,0
	c0.877-0.877,0.877-2.305,0-3.183C17.896,14.713,17.319,14.494,16.743,14.494z"/>
</svg>






