<?xml version="1.0" encoding="iso-8859-1"?>
<svg version="1.1" id="&#x56FE;&#x5C42;_1" xmlns="http://www.w3.org/2000/svg" xmlns:xlink="http://www.w3.org/1999/xlink" x="0px"
	 y="0px" viewBox="0 0 24 24" style="enable-background:new 0 0 24 24;" xml:space="preserve">
<path style="fill:#333333;" d="M19,22.75H5c-0.965,0-1.75-0.785-1.75-1.75V3c0-0.965,0.785-1.75,1.75-1.75h10.75v5h5V21
	C20.75,21.965,19.965,22.75,19,22.75z M5,2.75C4.862,2.75,4.75,2.862,4.75,3v18c0,0.138,0.112,0.25,0.25,0.25h14
	c0.138,0,0.25-0.112,0.25-0.25V7.75h-5v-5H5z"/>
<rect x="16.75" y="0.964" transform="matrix(0.7071 -0.7071 0.7071 0.7071 1.9437 13.6924)" style="fill:#333333;" width="1.5" height="7.071"/>
<path style="fill:#333333;" d="M12,16.75c-1.792,0-3.25-1.458-3.25-3.25s1.458-3.25,3.25-3.25s3.25,1.458,3.25,3.25
	S13.792,16.75,12,16.75z M12,11.75c-0.965,0-1.75,0.785-1.75,1.75s0.785,1.75,1.75,1.75s1.75-0.785,1.75-1.75S12.965,11.75,12,11.75
	z"/>
<rect x="11.25" y="9.5" style="fill:#333333;" width="1.5" height="1.5"/>
<rect x="11.25" y="16" style="fill:#333333;" width="1.5" height="1.5"/>
<rect x="13.634" y="10.28" transform="matrix(0.7071 -0.7071 0.7071 0.7071 -3.5867 13.4016)" style="fill:#333333;" width="1.5" height="1.5"/>
<rect x="8.634" y="15.28" transform="matrix(0.7071 -0.7071 0.7071 0.7071 -8.5867 11.3305)" style="fill:#333333;" width="1.5" height="1.5"/>
<rect x="8.78" y="10.28" transform="matrix(0.7071 -0.7071 0.7071 0.7071 -5.0082 9.9696)" style="fill:#333333;" width="1.5" height="1.5"/>
<rect x="13.78" y="15.28" transform="matrix(0.7071 -0.7071 0.7071 0.7071 -7.0793 14.9696)" style="fill:#333333;" width="1.5" height="1.5"/>
<rect x="8" y="12.75" style="fill:#333333;" width="1.5" height="1.5"/>
<rect x="14.5" y="12.75" style="fill:#333333;" width="1.5" height="1.5"/>
</svg>






