<?xml version="1.0" encoding="iso-8859-1"?>
<svg version="1.1" id="&#x56FE;&#x5C42;_1" xmlns="http://www.w3.org/2000/svg" xmlns:xlink="http://www.w3.org/1999/xlink" x="0px"
	 y="0px" viewBox="0 0 24 24" style="enable-background:new 0 0 24 24;" xml:space="preserve">
<path style="fill:#333333;" d="M11,22.75H5c-0.965,0-1.75-0.785-1.75-1.75V3c0-0.965,0.785-1.75,1.75-1.75h10.834l4.916,5.462V11.5
	h-1.5V7.288L15.166,2.75H5C4.862,2.75,4.75,2.862,4.75,3v18c0,0.138,0.112,0.25,0.25,0.25h6V22.75z"/>
<path style="fill:#333333;" d="M17,21.25c-1.792,0-3.25-1.458-3.25-3.25s1.458-3.25,3.25-3.25s3.25,1.458,3.25,3.25
	S18.792,21.25,17,21.25z M17,16.25c-0.965,0-1.75,0.785-1.75,1.75s0.785,1.75,1.75,1.75s1.75-0.785,1.75-1.75S17.965,16.25,17,16.25
	z"/>
<rect x="16.25" y="14" style="fill:#333333;" width="1.5" height="1.5"/>
<rect x="16.25" y="20.5" style="fill:#333333;" width="1.5" height="1.5"/>
<rect x="18.634" y="14.78" transform="matrix(0.7071 -0.7071 0.7071 0.7071 -5.3042 18.2551)" style="fill:#333333;" width="1.5" height="1.5"/>
<rect x="13.634" y="19.78" transform="matrix(0.7071 -0.7071 0.7071 0.7071 -10.3042 16.1841)" style="fill:#333333;" width="1.5" height="1.5"/>
<rect x="13.78" y="14.78" transform="matrix(0.7071 -0.7071 0.7071 0.7071 -6.7257 14.8232)" style="fill:#333333;" width="1.5" height="1.5"/>
<rect x="18.78" y="19.78" transform="matrix(0.7071 -0.7071 0.7071 0.7071 -8.7968 19.8232)" style="fill:#333333;" width="1.5" height="1.5"/>
<rect x="13" y="17.25" style="fill:#333333;" width="1.5" height="1.5"/>
<rect x="19.5" y="17.25" style="fill:#333333;" width="1.5" height="1.5"/>
<polygon style="fill:#333333;" points="20,7.75 14.25,7.75 14.25,2 15.75,2 15.75,6.25 20,6.25 "/>
</svg>






