<?xml version="1.0" encoding="iso-8859-1"?>
<svg version="1.1" id="&#x56FE;&#x5C42;_1" xmlns="http://www.w3.org/2000/svg" xmlns:xlink="http://www.w3.org/1999/xlink" x="0px"
	 y="0px" viewBox="0 0 24 24" style="enable-background:new 0 0 24 24;" xml:space="preserve">
<path style="fill:#333333;" d="M11,22.75H5c-0.965,0-1.75-0.785-1.75-1.75V3c0-0.965,0.785-1.75,1.75-1.75h10.834l4.916,5.462V11.5
	h-1.5V7.288L15.166,2.75H5C4.862,2.75,4.75,2.862,4.75,3v18c0,0.138,0.112,0.25,0.25,0.25h6V22.75z"/>
<path style="fill:#333333;" d="M21.75,21.75h-8.5v-5.5h8.5V21.75z M14.75,20.25h5.5v-2.5h-5.5V20.25z"/>
<path style="fill:#333333;" d="M19.75,17h-1.5v-1.5c0-0.413-0.337-0.75-0.75-0.75s-0.75,0.337-0.75,0.75V17h-1.5v-1.5
	c0-1.24,1.01-2.25,2.25-2.25s2.25,1.01,2.25,2.25V17z"/>
<polygon style="fill:#333333;" points="20,7.75 14.25,7.75 14.25,2 15.75,2 15.75,6.25 20,6.25 "/>
</svg>






