<?xml version="1.0" encoding="iso-8859-1"?>
<svg version="1.1" id="&#x56FE;&#x5C42;_1" xmlns="http://www.w3.org/2000/svg" xmlns:xlink="http://www.w3.org/1999/xlink" x="0px"
	 y="0px" viewBox="0 0 24 24" style="enable-background:new 0 0 24 24;" xml:space="preserve">
<path style="fill:#333333;" d="M11,22.75H5c-0.965,0-1.75-0.785-1.75-1.75V3c0-0.965,0.785-1.75,1.75-1.75h10.834l4.916,5.462V11.5
	h-1.5V7.288L15.166,2.75H5C4.862,2.75,4.75,2.862,4.75,3v18c0,0.138,0.112,0.25,0.25,0.25h6V22.75z"/>
<path style="fill:#333333;" d="M16.5,21.25c-2.853,0-5.031-3.196-5.123-3.332L11.097,17.5l0.281-0.418
	c0.091-0.136,2.27-3.332,5.123-3.332s5.031,3.196,5.123,3.332l0.28,0.418l-0.28,0.418C21.531,18.054,19.353,21.25,16.5,21.25z
	 M12.939,17.5c0.608,0.751,2.017,2.25,3.561,2.25s2.952-1.499,3.561-2.25c-0.608-0.751-2.017-2.25-3.561-2.25
	S13.548,16.749,12.939,17.5z"/>
<path style="fill:#333333;" d="M16.5,18.5c0.552,0,1-0.448,1-1s-0.448-1-1-1c-0.552,0-1,0.448-1,1S15.948,18.5,16.5,18.5z"/>
<polygon style="fill:#333333;" points="20,7.75 14.25,7.75 14.25,2 15.75,2 15.75,6.25 20,6.25 "/>
</svg>






