<?xml version="1.0" encoding="iso-8859-1"?>
<svg version="1.1" id="&#x56FE;&#x5C42;_1" xmlns="http://www.w3.org/2000/svg" xmlns:xlink="http://www.w3.org/1999/xlink" x="0px"
	 y="0px" viewBox="0 0 24 24" style="enable-background:new 0 0 24 24;" xml:space="preserve">
<path style="fill:#333333;" d="M19,22.75H5c-0.965,0-1.75-0.785-1.75-1.75V3c0-0.965,0.785-1.75,1.75-1.75h10.75v5h5V21
	C20.75,21.965,19.965,22.75,19,22.75z M5,2.75C4.862,2.75,4.75,2.862,4.75,3v18c0,0.138,0.112,0.25,0.25,0.25h14
	c0.138,0,0.25-0.112,0.25-0.25V7.75h-5v-5H5z"/>
<rect x="16.75" y="0.964" transform="matrix(0.7071 -0.7071 0.7071 0.7071 1.9437 13.6924)" style="fill:#333333;" width="1.5" height="7.071"/>
<path style="fill:#333333;" d="M14.276,18.294L12,17.008l-2.276,1.286L8.62,17.491l0.519-2.562l-1.926-1.768l0.421-1.298
	l2.597-0.297l1.086-2.378h1.365l1.085,2.378l2.597,0.297l0.422,1.298l-1.926,1.767l0.521,2.562L14.276,18.294z M9.438,13.168
	l1.34,1.229l-0.361,1.783L12,15.285l1.584,0.895l-0.362-1.782l1.34-1.229l-1.806-0.207L12,11.306l-0.755,1.655L9.438,13.168z"/>
</svg>






