<?xml version="1.0" encoding="iso-8859-1"?>
<svg version="1.1" id="&#x56FE;&#x5C42;_1" xmlns="http://www.w3.org/2000/svg" xmlns:xlink="http://www.w3.org/1999/xlink" x="0px"
	 y="0px" viewBox="0 0 24 24" style="enable-background:new 0 0 24 24;" xml:space="preserve">
<path style="fill:#333333;" d="M11,22.75H5c-0.965,0-1.75-0.785-1.75-1.75V3c0-0.965,0.785-1.75,1.75-1.75h10.834l4.916,5.462V11.5
	h-1.5V7.288L15.166,2.75H5C4.862,2.75,4.75,2.862,4.75,3v18c0,0.138,0.112,0.25,0.25,0.25h6V22.75z"/>
<path style="fill:#333333;" d="M17,22.878l-0.391-0.237c-0.157-0.097-3.859-2.406-3.859-7.041c0-0.434,0-1.089,4.031-2.317
	L17,13.216l0.219,0.066c4.031,1.229,4.031,1.884,4.031,2.317c0,4.635-3.702,6.944-3.859,7.041L17,22.878z M14.255,15.864
	c0.107,2.843,1.925,4.576,2.745,5.217c0.819-0.64,2.638-2.373,2.745-5.217c-0.442-0.273-1.659-0.736-2.745-1.079
	C15.914,15.128,14.697,15.591,14.255,15.864z"/>
<polygon style="fill:#333333;" points="20,7.75 14.25,7.75 14.25,2 15.75,2 15.75,6.25 20,6.25 "/>
</svg>






