<?xml version="1.0" encoding="iso-8859-1"?>
<svg version="1.1" id="&#x56FE;&#x5C42;_1" xmlns="http://www.w3.org/2000/svg" xmlns:xlink="http://www.w3.org/1999/xlink" x="0px"
	 y="0px" viewBox="0 0 24 24" style="enable-background:new 0 0 24 24;" xml:space="preserve">
<path style="fill:#333333;" d="M19,22.75H5c-0.965,0-1.75-0.785-1.75-1.75V3c0-0.965,0.785-1.75,1.75-1.75h10.75v5h5V21
	C20.75,21.965,19.965,22.75,19,22.75z M5,2.75C4.862,2.75,4.75,2.862,4.75,3v18c0,0.138,0.112,0.25,0.25,0.25h14
	c0.138,0,0.25-0.112,0.25-0.25V7.75h-5v-5H5z"/>
<rect x="16.75" y="0.964" transform="matrix(0.7071 -0.7071 0.7071 0.7071 1.9437 13.6924)" style="fill:#333333;" width="1.5" height="7.071"/>
<path style="fill:#333333;" d="M12,15.25c-1.564,0-3.052-0.768-3.98-2.053c-0.324-0.447-0.572-0.944-0.736-1.476l1.434-0.442
	c0.116,0.375,0.29,0.724,0.518,1.039C9.892,13.229,10.9,13.75,12,13.75c1.1,0,2.107-0.521,2.766-1.432
	c0.229-0.315,0.402-0.665,0.518-1.039l1.434,0.441c-0.163,0.531-0.411,1.028-0.736,1.478C15.052,14.482,13.563,15.25,12,15.25z"/>
<rect x="9.502" y="14.75" transform="matrix(0.259 -0.9659 0.9659 0.259 -7.1894 21.6284)" style="fill:#333333;" width="2" height="1.5"/>
<rect x="12.752" y="14.5" transform="matrix(0.9659 -0.2588 0.2588 0.9659 -3.5516 4.0227)" style="fill:#333333;" width="1.5" height="2"/>
<rect x="15.134" y="13.384" transform="matrix(0.7071 -0.7071 0.7071 0.7071 -5.5186 15.4444)" style="fill:#333333;" width="1.5" height="2"/>
<rect x="7.207" y="13.548" transform="matrix(0.7071 -0.7071 0.7071 0.7071 -7.7063 9.991)" style="fill:#333333;" width="2" height="1.5"/>
</svg>






