<?xml version="1.0" encoding="iso-8859-1"?>
<svg version="1.1" id="&#x56FE;&#x5C42;_1" xmlns="http://www.w3.org/2000/svg" xmlns:xlink="http://www.w3.org/1999/xlink" x="0px"
	 y="0px" viewBox="0 0 24 24" style="enable-background:new 0 0 24 24;" xml:space="preserve">
<path style="fill:#333333;" d="M11,22.75H5c-0.965,0-1.75-0.785-1.75-1.75V3c0-0.965,0.785-1.75,1.75-1.75h10.834l4.916,5.462V11.5
	h-1.5V7.288L15.166,2.75H5C4.862,2.75,4.75,2.862,4.75,3v18c0,0.138,0.112,0.25,0.25,0.25h6V22.75z"/>
<path style="fill:#333333;" d="M17,22.805l-0.271-0.105c-1.428-0.554-3.979-2.85-3.979-5.456c0-1.65,1.2-2.993,2.675-2.993
	c0.575,0,1.124,0.205,1.575,0.572c0.451-0.367,1-0.572,1.575-0.572c1.475,0,2.675,1.343,2.675,2.993
	c0,2.606-2.551,4.902-3.979,5.456L17,22.805z M15.425,15.75c-0.647,0-1.175,0.67-1.175,1.493c0,1.714,1.681,3.365,2.75,3.932
	c1.069-0.566,2.75-2.218,2.75-3.932c0-0.823-0.527-1.493-1.175-1.493c-0.366,0-0.706,0.216-0.934,0.592L17,17.402l-0.642-1.061
	C16.131,15.966,15.791,15.75,15.425,15.75z"/>
<polygon style="fill:#333333;" points="20,7.75 14.25,7.75 14.25,2 15.75,2 15.75,6.25 20,6.25 "/>
</svg>






