<?xml version="1.0" encoding="iso-8859-1"?>
<svg version="1.1" id="&#x56FE;&#x5C42;_1" xmlns="http://www.w3.org/2000/svg" xmlns:xlink="http://www.w3.org/1999/xlink" x="0px"
	 y="0px" viewBox="0 0 24 24" style="enable-background:new 0 0 24 24;" xml:space="preserve">
<polygon style="fill:#333333;" points="19.75,22.75 4.25,22.75 4.25,19 5.75,19 5.75,21.25 18.25,21.25 18.25,19 19.75,19 "/>
<polygon style="fill:#333333;" points="19.75,10 18.25,10 18.25,7.263 14.64,2.75 5.75,2.75 5.75,10 4.25,10 4.25,1.25 15.36,1.25 
	19.75,6.737 "/>
<polygon style="fill:#333333;" points="19,7.75 13.25,7.75 13.25,2 14.75,2 14.75,6.25 19,6.25 "/>
<rect x="8" y="5.25" style="fill:#333333;" width="2" height="1.5"/>
<path style="fill:#333333;" d="M21,19.75H3c-0.965,0-1.75-0.785-1.75-1.75v-7c0-0.965,0.785-1.75,1.75-1.75h18
	c0.965,0,1.75,0.785,1.75,1.75v7C22.75,18.965,21.965,19.75,21,19.75z M3,10.75c-0.138,0-0.25,0.112-0.25,0.25v7
	c0,0.138,0.112,0.25,0.25,0.25h18c0.138,0,0.25-0.112,0.25-0.25v-7c0-0.138-0.112-0.25-0.25-0.25H3z"/>
<polygon style="fill:#333333;" points="8.5,17.25 5.5,17.25 4.9,16.05 7,13.25 5.5,13.25 5.5,11.75 8.5,11.75 9.1,12.95 7,15.75 
	8.5,15.75 "/>
<rect x="11.25" y="12.5" style="fill:#333333;" width="1.5" height="4"/>
<rect x="14.75" y="12.5" style="fill:#333333;" width="1.5" height="4"/>
<path style="fill:#333333;" d="M17.25,15.75H15.5v-1.5h1.75c0.275,0,0.5-0.225,0.5-0.5s-0.225-0.5-0.5-0.5H15.5v-1.5h1.75
	c1.103,0,2,0.897,2,2S18.353,15.75,17.25,15.75z"/>
</svg>






