<?xml version="1.0" encoding="iso-8859-1"?>
<svg version="1.1" id="&#x56FE;&#x5C42;_1" xmlns="http://www.w3.org/2000/svg" xmlns:xlink="http://www.w3.org/1999/xlink" x="0px"
	 y="0px" viewBox="0 0 24 24" style="enable-background:new 0 0 24 24;" xml:space="preserve">
<path style="fill:#333333;" d="M19,22.75H5c-0.965,0-1.75-0.785-1.75-1.75V3c0-0.965,0.785-1.75,1.75-1.75h10.311l5.439,5.439V21
	C20.75,21.965,19.965,22.75,19,22.75z M5,2.75C4.862,2.75,4.75,2.862,4.75,3v18c0,0.138,0.112,0.25,0.25,0.25h14
	c0.138,0,0.25-0.112,0.25-0.25V7.311L14.689,2.75H5z"/>
<polygon style="fill:#333333;" points="14.5,17.75 8.75,17.75 8.75,8.25 14.5,8.25 14.5,9.75 10.25,9.75 10.25,16.25 14.5,16.25 "/>
<rect x="9.5" y="12.25" style="fill:#333333;" width="5" height="1.5"/>
</svg>






