<?xml version="1.0" encoding="iso-8859-1"?>
<svg version="1.1" id="&#x56FE;&#x5C42;_1" xmlns="http://www.w3.org/2000/svg" xmlns:xlink="http://www.w3.org/1999/xlink" x="0px"
	 y="0px" viewBox="0 0 24 24" style="enable-background:new 0 0 24 24;" xml:space="preserve">
<polygon style="fill:#333333;" points="19.75,22.75 4.25,22.75 4.25,19 5.75,19 5.75,21.25 18.25,21.25 18.25,19 19.75,19 "/>
<polygon style="fill:#333333;" points="19.75,10 18.25,10 18.25,7.263 14.64,2.75 5.75,2.75 5.75,10 4.25,10 4.25,1.25 15.36,1.25 
	19.75,6.737 "/>
<polygon style="fill:#333333;" points="19,7.75 13.25,7.75 13.25,2 14.75,2 14.75,6.25 19,6.25 "/>
<rect x="8" y="5.25" style="fill:#333333;" width="2" height="1.5"/>
<path style="fill:#333333;" d="M21,19.75H3c-0.965,0-1.75-0.785-1.75-1.75v-7c0-0.965,0.785-1.75,1.75-1.75h18
	c0.965,0,1.75,0.785,1.75,1.75v7C22.75,18.965,21.965,19.75,21,19.75z M3,10.75c-0.138,0-0.25,0.112-0.25,0.25v7
	c0,0.138,0.112,0.25,0.25,0.25h18c0.138,0,0.25-0.112,0.25-0.25v-7c0-0.138-0.112-0.25-0.25-0.25H3z"/>
<rect x="4.25" y="12.5" style="fill:#333333;" width="1.5" height="4"/>
<path style="fill:#333333;" d="M6,17.25H5v-1.5h1c0.689,0,1.25-0.561,1.25-1.25S6.689,13.25,6,13.25H5v-1.5h1
	c1.517,0,2.75,1.233,2.75,2.75S7.517,17.25,6,17.25z"/>
<path style="fill:#333333;" d="M12,17.25c-1.262,0-2.25-1.208-2.25-2.75s0.988-2.75,2.25-2.75s2.25,1.208,2.25,2.75
	S13.262,17.25,12,17.25z M12,13.25c-0.354,0-0.75,0.534-0.75,1.25s0.396,1.25,0.75,1.25c0.354,0,0.75-0.534,0.75-1.25
	S12.354,13.25,12,13.25z"/>
<path style="fill:#333333;" d="M19,17.25h-1c-1.517,0-2.75-1.233-2.75-2.75s1.233-2.75,2.75-2.75h1v1.5h-1
	c-0.689,0-1.25,0.561-1.25,1.25s0.561,1.25,1.25,1.25h1V17.25z"/>
</svg>






