<?xml version="1.0" encoding="iso-8859-1"?>
<svg version="1.1" id="&#x56FE;&#x5C42;_1" xmlns="http://www.w3.org/2000/svg" xmlns:xlink="http://www.w3.org/1999/xlink" x="0px"
	 y="0px" viewBox="0 0 24 24" style="enable-background:new 0 0 24 24;" xml:space="preserve">
<path style="fill:#333333;" d="M19.5,21.75h-15c-1.241,0-2.25-1.01-2.25-2.25v-15c0-1.241,1.009-2.25,2.25-2.25h15
	c1.24,0,2.25,1.009,2.25,2.25v15C21.75,20.74,20.74,21.75,19.5,21.75z M4.5,3.75c-0.414,0-0.75,0.336-0.75,0.75v15
	c0,0.413,0.336,0.75,0.75,0.75h15c0.413,0,0.75-0.337,0.75-0.75v-15c0-0.414-0.337-0.75-0.75-0.75H4.5z"/>
<path style="fill:#333333;" d="M17.75,17.75H6.25V6.25h11.5V17.75z M7.75,16.25h8.5v-8.5h-8.5V16.25z"/>
<rect x="10.361" y="13.5" transform="matrix(0.7071 -0.7071 0.7071 0.7071 -5.9025 14.25)" style="fill:#333333;" width="7.778" height="1.5"/>
<rect x="5.861" y="9" transform="matrix(0.7071 -0.7071 0.7071 0.7071 -4.0386 9.75)" style="fill:#333333;" width="7.778" height="1.5"/>
<rect x="4.929" y="11.25" transform="matrix(0.7071 -0.7071 0.7071 0.7071 -4.9706 12)" style="fill:#333333;" width="14.142" height="1.5"/>
<polygon style="fill:#333333;" points="13,17.75 6.25,17.75 6.25,11 7.75,11 7.75,16.25 13,16.25 "/>
<polygon style="fill:#333333;" points="17.75,13 16.25,13 16.25,7.75 11,7.75 11,6.25 17.75,6.25 "/>
</svg>






