<?xml version="1.0" encoding="iso-8859-1"?>
<svg version="1.1" id="&#x56FE;&#x5C42;_1" xmlns="http://www.w3.org/2000/svg" xmlns:xlink="http://www.w3.org/1999/xlink" x="0px"
	 y="0px" viewBox="0 0 24 24" style="enable-background:new 0 0 24 24;" xml:space="preserve">
<g>
	<path style="fill:#333333;" d="M12.245,4.199C12.123,4.179,12.137,4,12.26,4h7.49C19.888,4,20,4.112,20,4.25v7.49
		c0,0.123-0.179,0.137-0.199,0.016l-0.983-6.158c-0.034-0.213-0.201-0.381-0.415-0.415L12.245,4.199z"/>
	<path style="fill:#333333;" d="M19.897,12.59c-0.417,0-0.77-0.297-0.837-0.715l-0.955-5.98l-5.98-0.955
		c-0.442-0.071-0.748-0.461-0.712-0.907c0.036-0.446,0.4-0.782,0.847-0.782h7.49c0.552,0,1,0.449,1,1v7.49
		c0,0.448-0.336,0.812-0.782,0.847C19.944,12.589,19.921,12.59,19.897,12.59z M19.164,4.75c0.03,0.027,0.059,0.056,0.086,0.086V4.75
		H19.164z"/>
</g>
<g>
	<path style="fill:#333333;" d="M3.244,13.199C3.123,13.179,3.137,13,3.26,13h7.49c0.138,0,0.25,0.112,0.25,0.25v7.49
		c0,0.123-0.179,0.137-0.199,0.016l-0.984-6.158c-0.034-0.213-0.201-0.381-0.415-0.415L3.244,13.199z"/>
	<path style="fill:#333333;" d="M10.897,21.59c-0.416,0-0.769-0.297-0.836-0.715l-0.955-5.98l-5.98-0.955
		c-0.442-0.07-0.748-0.461-0.712-0.907s0.4-0.782,0.847-0.782h7.49c0.551,0,1,0.448,1,1v7.49c0,0.447-0.336,0.812-0.782,0.847
		C10.944,21.589,10.921,21.59,10.897,21.59z M10.164,13.75c0.03,0.027,0.059,0.056,0.086,0.086V13.75H10.164z M3.364,12.459
		L3.364,12.459L3.364,12.459L3.364,12.459z"/>
</g>
<g>
	<path style="fill:#333333;" d="M7.745,8.699C7.623,8.679,7.637,8.5,7.76,8.5h7.49c0.138,0,0.25,0.112,0.25,0.25v7.49
		c0,0.123-0.179,0.137-0.199,0.016l-0.926-5.801c-0.068-0.427-0.403-0.762-0.83-0.83L7.745,8.699z"/>
	<path style="fill:#333333;" d="M15.397,17.09c-0.416,0-0.77-0.297-0.837-0.715l-0.926-5.802c-0.018-0.107-0.102-0.19-0.208-0.208
		L7.625,9.439C7.184,9.368,6.877,8.979,6.913,8.532C6.949,8.086,7.313,7.75,7.76,7.75h7.49c0.552,0,1,0.449,1,1v7.49
		c0,0.447-0.336,0.812-0.782,0.847C15.444,17.089,15.421,17.09,15.397,17.09z M14.486,9.25c0.097,0.078,0.186,0.167,0.264,0.264
		V9.25H14.486z"/>
</g>
</svg>






