<?xml version="1.0" encoding="iso-8859-1"?>
<svg version="1.1" id="&#x56FE;&#x5C42;_1" xmlns="http://www.w3.org/2000/svg" xmlns:xlink="http://www.w3.org/1999/xlink" x="0px"
	 y="0px" viewBox="0 0 24 24" style="enable-background:new 0 0 24 24;" xml:space="preserve">
<path style="fill:#333333;" d="M20.5,18.75h-1.491v-1.5H20.5c0.413,0,0.75-0.337,0.75-0.75v-13c0-0.414-0.337-0.75-0.75-0.75h-13
	c-0.414,0-0.75,0.336-0.75,0.75v1.463h-1.5V3.5c0-1.241,1.009-2.25,2.25-2.25h13c1.24,0,2.25,1.009,2.25,2.25v13
	C22.75,17.74,21.74,18.75,20.5,18.75z"/>
<path style="fill:#333333;" d="M17.5,22.75h-14c-1.241,0-2.25-1.01-2.25-2.25v-14c0-1.241,1.009-2.25,2.25-2.25h14
	c1.24,0,2.25,1.009,2.25,2.25v14C19.75,21.74,18.74,22.75,17.5,22.75z M3.5,5.75c-0.414,0-0.75,0.336-0.75,0.75v14
	c0,0.413,0.336,0.75,0.75,0.75h14c0.413,0,0.75-0.337,0.75-0.75v-14c0-0.414-0.337-0.75-0.75-0.75H3.5z"/>
<polygon style="fill:#333333;" points="10.5,12.561 6.97,9.03 8.03,7.97 10.5,10.439 12.97,7.97 14.03,9.03 "/>
<rect x="7" y="11.75" style="fill:#333333;" width="7" height="1.5"/>
<rect x="7" y="14.75" style="fill:#333333;" width="7" height="1.5"/>
<rect x="9.75" y="12.5" style="fill:#333333;" width="1.5" height="5.5"/>
</svg>






