<?xml version="1.0" encoding="iso-8859-1"?>
<svg version="1.1" id="&#x56FE;&#x5C42;_1" xmlns="http://www.w3.org/2000/svg" xmlns:xlink="http://www.w3.org/1999/xlink" x="0px"
	 y="0px" viewBox="0 0 24 24" style="enable-background:new 0 0 24 24;" xml:space="preserve">
<path style="fill:#333333;" d="M16.967,22.75H7.01c-1.811,0-3.49-0.847-4.492-2.265c-0.935-1.323-1.156-2.97-0.607-4.518
	c1.366-3.854,3.055-6.971,5.021-9.264L7.277,6.3l0.496,0.194c1.901,0.744,4.208,0.756,4.231,0.756c0.021,0,2.324-0.012,4.222-0.756
	l0.496-0.195l0.347,0.405c1.946,2.271,3.629,5.381,5.003,9.244c0.551,1.553,0.33,3.204-0.607,4.532
	C20.462,21.901,18.78,22.75,16.967,22.75z M7.741,8.075c-1.707,2.113-3.191,4.935-4.417,8.394c-0.39,1.099-0.241,2.218,0.418,3.151
	c0.721,1.021,1.943,1.63,3.267,1.63h9.957c1.326,0,2.55-0.611,3.272-1.635c0.662-0.938,0.812-2.062,0.419-3.165
	c-1.231-3.466-2.711-6.28-4.399-8.375c-2.029,0.666-4.158,0.674-4.255,0.674C11.907,8.75,9.773,8.742,7.741,8.075z"/>
<rect x="9" y="13.25" style="fill:#333333;" width="6" height="1.5"/>
<rect x="9" y="16.25" style="fill:#333333;" width="6" height="1.5"/>
<rect x="11.255" y="14" style="fill:#333333;" width="1.5" height="5"/>
<polygon style="fill:#333333;" points="12,15.061 8.47,11.53 9.53,10.47 12,12.939 14.47,10.47 15.53,11.53 "/>
<path style="fill:#333333;" d="M12,8.75C7.867,8.75,4.75,7.138,4.75,5S7.867,1.25,12,1.25c4.133,0,7.25,1.612,7.25,3.75
	S16.133,8.75,12,8.75z M12,2.75C8.438,2.75,6.25,4.061,6.25,5S8.438,7.25,12,7.25S17.75,5.939,17.75,5S15.562,2.75,12,2.75z"/>
</svg>






