<?xml version="1.0" encoding="iso-8859-1"?>
<svg version="1.1" id="&#x56FE;&#x5C42;_1" xmlns="http://www.w3.org/2000/svg" xmlns:xlink="http://www.w3.org/1999/xlink" x="0px"
	 y="0px" viewBox="0 0 24 24" style="enable-background:new 0 0 24 24;" xml:space="preserve">
<path style="fill:#333333;" d="M12,22.75C6.072,22.75,1.25,17.928,1.25,12S6.072,1.25,12,1.25S22.75,6.072,22.75,12
	S17.928,22.75,12,22.75z M12,2.75c-5.101,0-9.25,4.149-9.25,9.25s4.149,9.25,9.25,9.25s9.25-4.149,9.25-9.25S17.101,2.75,12,2.75z"
	/>
<path style="fill:#333333;" d="M12,15.87c-0.448,0-0.896-0.171-1.237-0.512l-2.122-2.121c-0.682-0.683-0.682-1.793,0-2.475
	l2.122-2.122c0.683-0.683,1.793-0.683,2.475,0l2.121,2.122c0.33,0.33,0.513,0.77,0.513,1.237c0,0.467-0.182,0.907-0.513,1.237
	l-2.121,2.121C12.896,15.699,12.448,15.87,12,15.87z M12,9.628c-0.064,0-0.128,0.024-0.177,0.073l-2.122,2.122
	c-0.097,0.098-0.097,0.256,0,0.354l2.121,2.121c0.098,0.098,0.257,0.098,0.354,0l2.121-2.121c0.063-0.063,0.073-0.139,0.073-0.177
	c0-0.039-0.01-0.113-0.073-0.176l-2.121-2.122C12.128,9.653,12.064,9.628,12,9.628z"/>
</svg>






