<?xml version="1.0" encoding="iso-8859-1"?>
<svg version="1.1" id="&#x56FE;&#x5C42;_1" xmlns="http://www.w3.org/2000/svg" xmlns:xlink="http://www.w3.org/1999/xlink" x="0px"
	 y="0px" viewBox="0 0 24 24" style="enable-background:new 0 0 24 24;" xml:space="preserve">
<path style="fill:#333333;" d="M11.9,17.75c-1.439,0-2.822-0.519-3.895-1.46l0.989-1.127c0.799,0.701,1.831,1.087,2.905,1.087
	c2.399,0,4.35-1.906,4.35-4.25c0-2.343-1.951-4.25-4.35-4.25v-1.5c3.226,0,5.85,2.58,5.85,5.75
	C17.75,15.171,15.126,17.75,11.9,17.75z"/>
<path style="fill:#333333;" d="M12,22.75c-2.81,0-5.469-1.078-7.486-3.035C2.409,17.672,1.25,14.933,1.25,12
	c0-2.785,1.061-5.425,2.986-7.436l1.083,1.038C3.663,7.332,2.75,9.604,2.75,12c0,2.523,0.998,4.881,2.809,6.639
	C7.294,20.322,9.582,21.25,12,21.25c5.101,0,9.25-4.149,9.25-9.25S17.101,2.75,12,2.75v-1.5c5.928,0,10.75,4.822,10.75,10.75
	S17.928,22.75,12,22.75z"/>
<polygon style="fill:#333333;" points="5.574,19.699 4.498,18.654 10.936,12.02 4.259,5.625 5.296,4.542 13.064,11.98 "/>
</svg>






