<?xml version="1.0" encoding="iso-8859-1"?>
<svg version="1.1" id="&#x56FE;&#x5C42;_1" xmlns="http://www.w3.org/2000/svg" xmlns:xlink="http://www.w3.org/1999/xlink" x="0px"
	 y="0px" viewBox="0 0 24 24" style="enable-background:new 0 0 24 24;" xml:space="preserve">
<rect x="2" y="2.75" style="fill:#333333;" width="20" height="1.5"/>
<rect x="2" y="10.75" style="fill:#333333;" width="5.5" height="1.5"/>
<rect x="2" y="18.75" style="fill:#333333;" width="5.5" height="1.5"/>
<path style="fill:#333333;" d="M15.75,17.75c-2.757,0-5-2.243-5-5s2.243-5,5-5s5,2.243,5,5S18.507,17.75,15.75,17.75z M15.75,9.25
	c-1.93,0-3.5,1.57-3.5,3.5s1.57,3.5,3.5,3.5s3.5-1.57,3.5-3.5S17.68,9.25,15.75,9.25z"/>
<rect x="19.5" y="15.279" transform="matrix(0.7097 -0.7045 0.7045 0.7097 -6.6352 19.4243)" style="fill:#333333;" width="1.5" height="4.968"/>
</svg>






