<?xml version="1.0" encoding="iso-8859-1"?>
<svg version="1.1" id="&#x56FE;&#x5C42;_1" xmlns="http://www.w3.org/2000/svg" xmlns:xlink="http://www.w3.org/1999/xlink" x="0px"
	 y="0px" viewBox="0 0 24 24" style="enable-background:new 0 0 24 24;" xml:space="preserve">
<path style="fill:#333333;" d="M16.25,22h-1.5V11c0-1.241-1.01-2.25-2.25-2.25c-1.241,0-2.25,1.009-2.25,2.25v11h-1.5V11
	c0-2.068,1.682-3.75,3.75-3.75c2.067,0,3.75,1.682,3.75,3.75V22z"/>
<path style="fill:#333333;" d="M19.25,22h-1.5V11c0-2.895-2.355-5.25-5.25-5.25c-2.895,0-5.25,2.355-5.25,5.25v11h-1.5V11
	c0-3.722,3.028-6.75,6.75-6.75c3.722,0,6.75,3.028,6.75,6.75V22z"/>
<path style="fill:#333333;" d="M22.25,22h-1.5V11c0-4.549-3.701-8.25-8.25-8.25S4.25,6.451,4.25,11v11h-1.5V11
	c0-5.376,4.374-9.75,9.75-9.75s9.75,4.374,9.75,9.75V22z"/>
<rect x="11.75" y="11" style="fill:#333333;" width="1.5" height="11"/>
</svg>






