<?xml version="1.0" encoding="iso-8859-1"?>
<svg version="1.1" id="&#x56FE;&#x5C42;_1" xmlns="http://www.w3.org/2000/svg" xmlns:xlink="http://www.w3.org/1999/xlink" x="0px"
	 y="0px" viewBox="0 0 24 24" style="enable-background:new 0 0 24 24;" xml:space="preserve">
<path style="fill:#333333;" d="M12,22.75C6.072,22.75,1.25,17.928,1.25,12S6.072,1.25,12,1.25v1.5c-5.101,0-9.25,4.149-9.25,9.25
	s4.149,9.25,9.25,9.25s9.25-4.149,9.25-9.25h1.5C22.75,17.928,17.928,22.75,12,22.75z"/>
<polygon style="fill:#333333;" points="19.009,6.725 19,6.719 18.991,6.725 17.838,5.886 17.841,5.877 17.833,5.871 18.287,4.504 
	19.727,4.514 20.167,5.871 20.159,5.877 20.162,5.886 "/>
<path style="fill:#333333;" d="M12,19.25c-2.068,0-3.75-1.683-3.75-3.75v-6c0-2.068,1.682-3.75,3.75-3.75
	c2.067,0,3.75,1.682,3.75,3.75v6C15.75,17.567,14.067,19.25,12,19.25z M12,7.25c-1.241,0-2.25,1.009-2.25,2.25v6
	c0,1.24,1.009,2.25,2.25,2.25c1.24,0,2.25-1.01,2.25-2.25v-6C14.25,8.259,13.24,7.25,12,7.25z"/>
<path style="fill:#333333;" d="M7.25,20.393h-1.5V15.5c0-2.415,1.922-3.75,3.25-3.75v1.5c-0.628,0-1.75,0.752-1.75,2.25V20.393z"/>
<path style="fill:#333333;" d="M18.25,20.25h-1.5V15.5c0-1.498-1.122-2.25-1.75-2.25v-1.5c1.328,0,3.25,1.335,3.25,3.75V20.25z"/>
</svg>






