<?xml version="1.0" encoding="iso-8859-1"?>
<svg version="1.1" id="&#x56FE;&#x5C42;_1" xmlns="http://www.w3.org/2000/svg" xmlns:xlink="http://www.w3.org/1999/xlink" x="0px"
	 y="0px" viewBox="0 0 24 24" style="enable-background:new 0 0 24 24;" xml:space="preserve">
<path style="fill:#333333;" d="M20.689,6.554C18.361,4.262,15.261,3,11.959,3c-3.281,0-6.368,1.249-8.69,3.515L2.221,5.442
	C4.826,2.9,8.284,1.5,11.959,1.5c3.698,0,7.172,1.415,9.783,3.985L20.689,6.554z"/>
<path style="fill:#333333;" d="M2.583,14.737v-0.029c0-5.192,4.225-9.416,9.417-9.416v1.5c-4.365,0-7.917,3.551-7.917,7.916
	L2.583,14.737z"/>
<path style="fill:#333333;" d="M19.917,14.715c0-3.104-1.822-5.934-4.643-7.217l0.621-1.365c3.354,1.526,5.521,4.892,5.521,8.575
	L19.917,14.715z"/>
<path style="fill:#333333;" d="M17.625,18.5h-1.5v-3.792c0-2.274-1.851-4.125-4.125-4.125s-4.125,1.851-4.125,4.125V18.5h-1.5
	v-3.792c0-3.102,2.523-5.625,5.625-5.625s5.625,2.523,5.625,5.625V18.5z"/>
<path style="fill:#333333;" d="M8.943,22.479l-0.359-1.457c0.623-0.153,1.042-0.86,1.042-1.424V15.25
	c0-1.31,1.065-2.375,2.375-2.375s2.375,1.065,2.375,2.375v4.348h-1.5V15.25c0-0.482-0.393-0.875-0.875-0.875
	s-0.875,0.393-0.875,0.875v4.348C11.125,20.749,10.309,22.141,8.943,22.479z"/>
</svg>






