<?xml version="1.0" encoding="iso-8859-1"?>
<svg version="1.1" id="&#x56FE;&#x5C42;_1" xmlns="http://www.w3.org/2000/svg" xmlns:xlink="http://www.w3.org/1999/xlink" x="0px"
	 y="0px" viewBox="0 0 24 24" style="enable-background:new 0 0 24 24;" xml:space="preserve">
<path style="fill:#333333;" d="M15.75,21.5h-1.5V11c0-1.241-1.01-2.25-2.25-2.25c-1.241,0-2.25,1.009-2.25,2.25v10.5h-1.5V11
	c0-2.068,1.682-3.75,3.75-3.75c2.067,0,3.75,1.682,3.75,3.75V21.5z"/>
<path style="fill:#333333;" d="M18.75,20h-1.5v-9c0-2.895-2.355-5.25-5.25-5.25c-2.895,0-5.25,2.355-5.25,5.25v9h-1.5v-9
	c0-3.722,3.028-6.75,6.75-6.75c3.722,0,6.75,3.028,6.75,6.75V20z"/>
<path style="fill:#333333;" d="M21.75,17.5h-1.5V11c0-4.549-3.701-8.25-8.25-8.25S3.75,6.451,3.75,11v6.5h-1.5V11
	c0-5.376,4.374-9.75,9.75-9.75s9.75,4.374,9.75,9.75V17.5z"/>
<rect x="11.25" y="15.5" style="fill:#333333;" width="1.5" height="6.5"/>
<rect x="11.25" y="10.938" style="fill:#333333;" width="1.5" height="1.375"/>
</svg>






