<?xml version="1.0" encoding="iso-8859-1"?>
<svg version="1.1" id="&#x56FE;&#x5C42;_1" xmlns="http://www.w3.org/2000/svg" xmlns:xlink="http://www.w3.org/1999/xlink" x="0px"
	 y="0px" viewBox="0 0 24 24" style="enable-background:new 0 0 24 24;" xml:space="preserve">
<path style="fill:#333333;" d="M15,22.75H9c-0.965,0-1.75-0.785-1.75-1.75V9c0-2.619,2.131-4.75,4.75-4.75S16.75,6.381,16.75,9v12
	C16.75,21.965,15.965,22.75,15,22.75z M12,5.75c-1.792,0-3.25,1.458-3.25,3.25v12c0,0.138,0.112,0.25,0.25,0.25h6
	c0.138,0,0.25-0.112,0.25-0.25V9C15.25,7.208,13.792,5.75,12,5.75z"/>
<rect x="11.25" y="12" style="fill:#333333;" width="1.5" height="5"/>
<path style="fill:#333333;" d="M15.25,5.25h-6v-3.5h6V5.25z M10.75,3.75h3v-0.5h-3V3.75z"/>
<path style="fill:#333333;" d="M19.75,5.838l-6-0.667V1.829l6-0.667V5.838z M15.25,3.829l3,0.333V2.838l-3,0.333V3.829z"/>
<path style="fill:#333333;" d="M4.75,9h-1.5c0-0.264-0.004-0.516-0.007-0.756C3.219,6.632,3.199,5.24,4.47,3.97
	c1.306-1.305,3.377-1.261,4.894-1.229C9.586,2.746,9.8,2.75,10,2.75v1.5c-0.21,0-0.434-0.005-0.668-0.01
	C8.02,4.215,6.383,4.178,5.53,5.03C4.741,5.819,4.719,6.579,4.743,8.222C4.746,8.47,4.75,8.729,4.75,9z"/>
</svg>






