<?xml version="1.0" encoding="iso-8859-1"?>
<svg version="1.1" id="&#x56FE;&#x5C42;_1" xmlns="http://www.w3.org/2000/svg" xmlns:xlink="http://www.w3.org/1999/xlink" x="0px"
	 y="0px" viewBox="0 0 24 24" style="enable-background:new 0 0 24 24;" xml:space="preserve">
<path style="fill:#333333;" d="M11.75,22.75h-9.5V10c0-2.619,2.131-4.75,4.75-4.75s4.75,2.131,4.75,4.75V22.75z M3.75,21.25h6.5V10
	c0-1.792-1.458-3.25-3.25-3.25S3.75,8.208,3.75,10V21.25z"/>
<path style="fill:none;" d="M15,22h6l-3-9L15,22z"/>
<path style="fill:#333333;" d="M22.041,22.75h-8.082l3.291-9.872V12c0-3.56,0-5.346-0.952-6.298C15.347,4.75,13.56,4.75,10,4.75H9
	v-1.5h1c3.974,0,5.968,0,7.358,1.391C18.75,6.033,18.75,8.027,18.75,12v0.878L22.041,22.75z M16.041,21.25h3.918L18,15.372
	L16.041,21.25z M5,4.75H3v-1.5h2V4.75z"/>
<path style="fill:#333333;" d="M7,6.75C5.483,6.75,4.25,5.517,4.25,4S5.483,1.25,7,1.25S9.75,2.483,9.75,4S8.517,6.75,7,6.75z
	 M7,2.75C6.311,2.75,5.75,3.311,5.75,4S6.311,5.25,7,5.25S8.25,4.689,8.25,4S7.689,2.75,7,2.75z"/>
</svg>






