<?xml version="1.0" encoding="iso-8859-1"?>
<svg version="1.1" id="&#x56FE;&#x5C42;_1" xmlns="http://www.w3.org/2000/svg" xmlns:xlink="http://www.w3.org/1999/xlink" x="0px"
	 y="0px" viewBox="0 0 24 24" style="enable-background:new 0 0 24 24;" xml:space="preserve">
<path style="fill:#333333;" d="M11.5,17.75c-3.998,0-7.25-3.252-7.25-7.25c0-2.294,0.942-3.807,1.853-5.271
	c0.631-1.015,1.285-2.064,1.676-3.436l0.236-0.825l0.786,0.344c2.631,1.151,3.706,3.592,4.146,5.417
	c0.712-0.887,1.796-1.814,3.372-2.208l0.85-0.212l0.079,0.872c0.125,1.373,0.521,2.263,0.872,3.048
	c0.324,0.726,0.631,1.412,0.631,2.27C18.75,14.498,15.498,17.75,11.5,17.75z M8.929,3.082c-0.442,1.155-1.025,2.093-1.553,2.94
	C6.503,7.424,5.75,8.635,5.75,10.5c0,3.171,2.58,5.75,5.75,5.75c3.171,0,5.75-2.579,5.75-5.75c0-0.538-0.21-1.008-0.5-1.659
	c-0.3-0.671-0.657-1.472-0.866-2.581c-1.944,0.906-2.665,2.956-2.673,2.979L11.75,9.001C11.75,8.957,11.701,4.9,8.929,3.082z"/>
<rect x="10.75" y="11.754" transform="matrix(0.2425 -0.9701 0.9701 0.2425 -10.692 26.3061)" style="fill:#333333;" width="1.5" height="16.492"/>
<rect x="3.254" y="19.25" transform="matrix(0.9701 -0.2428 0.2428 0.9701 -4.5126 3.3914)" style="fill:#333333;" width="16.492" height="1.5"/>
</svg>






