<?xml version="1.0" encoding="iso-8859-1"?>
<svg version="1.1" id="&#x56FE;&#x5C42;_1" xmlns="http://www.w3.org/2000/svg" xmlns:xlink="http://www.w3.org/1999/xlink" x="0px"
	 y="0px" viewBox="0 0 24 24" style="enable-background:new 0 0 24 24;" xml:space="preserve">
<path style="fill:#333333;" d="M12,22.75c-4.626,0-8.25-3.532-8.25-8.041c0-1.623,0.294-2.925,0.875-3.87
	c0.529-0.86,0.899-1.257,1.367-1.76c0.144-0.155,0.302-0.325,0.484-0.529l0.312-0.346c0.493-0.543,0.61-0.672,1.091-1.577
	C8.402,5.647,8.843,3.528,8.843,2l1.225-0.581l0.47,0.376c1.042,0.825,2.469,1.956,3.59,3.599c0.854,1.25,1.523,3.013,1.897,4.248
	c0.36-0.445,0.71-1.093,0.82-2.017l1.396-0.282c0.621,1.089,0.756,1.351,1.348,3.126c0.609,1.834,0.66,3.021,0.66,4.08
	C20.25,19.071,16.549,22.75,12,22.75z M10.245,3.483c-0.165,1.363-0.528,2.886-1.041,3.849C8.66,8.357,8.471,8.584,7.899,9.213
	L7.596,9.55C7.406,9.763,7.24,9.94,7.09,10.102c-0.459,0.493-0.736,0.791-1.188,1.524C5.47,12.329,5.25,13.367,5.25,14.709
	c0,3.668,2.965,6.541,6.75,6.541c3.722,0,6.75-3.006,6.75-6.701c0-0.975-0.045-1.984-0.584-3.607
	c-0.174-0.522-0.304-0.9-0.417-1.203c-0.548,1.047-1.302,1.609-1.62,1.847l-1.273-0.545c-0.04-0.28-0.805-3.101-1.966-4.802
	C12.102,5.085,11.105,4.187,10.245,3.483z"/>
</svg>






