<?xml version="1.0" encoding="iso-8859-1"?>
<svg version="1.1" id="&#x56FE;&#x5C42;_1" xmlns="http://www.w3.org/2000/svg" xmlns:xlink="http://www.w3.org/1999/xlink" x="0px"
	 y="0px" viewBox="0 0 24 24" style="enable-background:new 0 0 24 24;" xml:space="preserve">
<path style="fill:#333333;" d="M3.228,21.715l-0.935-0.963L7.03,7.241l9.854,10.125L3.228,21.715z M7.644,10.022l-3.438,9.807
	l9.911-3.156L7.644,10.022z"/>
<path style="fill:#333333;" d="M12.03,10.03L10.97,8.97l2.5-2.5c1.47-1.47,0.814-2.125,0.5-2.439L15.03,2.97
	c0.758,0.758,1.701,2.358-0.5,4.561L12.03,10.03z"/>
<path style="fill:#333333;" d="M15.03,13.03L13.97,11.97l2.5-2.5c1.953-1.954,4.105-1.954,6.061,0L21.47,10.53
	c-1.381-1.38-2.559-1.38-3.939,0L15.03,13.03z"/>
<path style="fill:#333333;" d="M10,3.5c0.552,0,1-0.448,1-1s-0.448-1-1-1s-1,0.448-1,1S9.448,3.5,10,3.5z"/>
<path style="fill:#333333;" d="M21,3c0.552,0,1-0.448,1-1s-0.448-1-1-1s-1,0.448-1,1S20.448,3,21,3z"/>
<path style="fill:#333333;" d="M21,14.5c0.552,0,1-0.448,1-1s-0.448-1-1-1s-1,0.448-1,1S20.448,14.5,21,14.5z"/>
<path style="fill:#333333;" d="M19.5,19c0.552,0,1-0.448,1-1s-0.448-1-1-1s-1,0.448-1,1S18.948,19,19.5,19z"/>
</svg>






