<?xml version="1.0" encoding="iso-8859-1"?>
<svg version="1.1" id="&#x56FE;&#x5C42;_1" xmlns="http://www.w3.org/2000/svg" xmlns:xlink="http://www.w3.org/1999/xlink" x="0px"
	 y="0px" viewBox="0 0 24 24" style="enable-background:new 0 0 24 24;" xml:space="preserve">
<path style="fill:#333333;" d="M19,20.75H5c-0.965,0-1.75-0.785-1.75-1.75v-9h1.5v9c0,0.138,0.112,0.25,0.25,0.25h14
	c0.138,0,0.25-0.112,0.25-0.25v-9h1.5v9C20.75,19.965,19.965,20.75,19,20.75z"/>
<path style="fill:#333333;" d="M22.25,10.75H1.75v-4.5h20.5V10.75z M3.25,9.25h17.5v-1.5H3.25V9.25z"/>
<path style="fill:#333333;" d="M16.25,7.75h-8.5v-4.5h8.5V7.75z M9.25,6.25h5.5v-1.5h-5.5V6.25z"/>
<rect x="10" y="14.25" style="fill:#333333;" width="4" height="1.5"/>
<rect x="11.25" y="13" style="fill:#333333;" width="1.5" height="4"/>
</svg>






