<?xml version="1.0" encoding="iso-8859-1"?>
<svg version="1.1" id="&#x56FE;&#x5C42;_1" xmlns="http://www.w3.org/2000/svg" xmlns:xlink="http://www.w3.org/1999/xlink" x="0px"
	 y="0px" viewBox="0 0 24 24" style="enable-background:new 0 0 24 24;" xml:space="preserve">
<path style="fill:#333333;" d="M10.823,22.665c-0.29,0-0.579-0.02-0.863-0.059c-2.596-0.36-4.557-2.826-5.04-3.662
	c-0.159-0.277-0.299-0.574-0.417-0.885c-0.254-0.672-0.007-1.415,0.601-1.807c0.025-0.017,0.051-0.032,0.076-0.048
	c-0.118-0.072-0.227-0.161-0.323-0.264c-0.331-0.354-0.468-0.833-0.377-1.315c0.193-1.026,0.798-2.938,2.688-4.203
	C9.919,8.58,11.781,9.089,12.48,9.28l-0.335,1.463l-0.06-0.017c-0.521-0.142-1.903-0.518-4.083,0.943
	c-1.434,0.96-1.899,2.438-2.048,3.234c0.637-0.031,0.945-0.11,1.106-0.164c0.352-0.119,0.392-0.216,0.563-0.625
	c0.094-0.225,0.211-0.504,0.41-0.805c0.744-1.127,2.447-1.432,3.796-0.686c1.258,0.699,1.851,1.974,1.51,3.248
	c-0.354,1.314-1.216,2.121-2.565,2.396c-1.186,0.243-1.858-0.184-2.567-0.635c-0.257-0.164-0.544-0.348-0.906-0.527
	c-0.26-0.128-0.792,0.026-1.386,0.408c0.079,0.247,0.187,0.478,0.304,0.681c0.296,0.512,1.929,2.646,3.946,2.925
	c1.934,0.274,4.086-0.649,5.367-2.278c1.105-1.404,1.244-3.462,0.362-5.371l1.361-0.629c1.12,2.423,0.912,5.078-0.545,6.928
	C15.298,21.565,13.017,22.665,10.823,22.665z M8.159,15.86c0.33,0.175,0.605,0.349,0.854,0.508c0.614,0.392,0.868,0.554,1.461,0.432
	c0.799-0.164,1.21-0.545,1.417-1.315c0.125-0.467-0.017-1.12-0.789-1.548c-0.706-0.395-1.541-0.218-1.816,0.199
	c-0.121,0.184-0.198,0.366-0.278,0.559C8.849,15.072,8.662,15.52,8.159,15.86z"/>
<path style="fill:#333333;" d="M12,14.922c-0.321-1.703-0.542-10.672-0.498-11.796c0.04-1.044,0.736-1.821,1.911-2.13
	c0.308-0.083,0.63-0.035,0.904,0.133c0.282,0.173,0.484,0.461,0.556,0.791l2.384,11.133l-1.467,0.314L13.475,2.559
	C13.016,2.773,13.005,3.073,13,3.184c-0.045,1.164,0.194,9.98,0.474,11.46L12,14.922z"/>
</svg>






