<?xml version="1.0" encoding="iso-8859-1"?>
<svg version="1.1" id="&#x56FE;&#x5C42;_1" xmlns="http://www.w3.org/2000/svg" xmlns:xlink="http://www.w3.org/1999/xlink" x="0px"
	 y="0px" viewBox="0 0 24 24" style="enable-background:new 0 0 24 24;" xml:space="preserve">
<path style="fill:#333333;" d="M19.5,18.25h-8.218c-0.418,0-0.828-0.116-1.183-0.336l-4.493-2.776L6,13.75h13.5
	c1.24,0,2.25,1.01,2.25,2.25S20.74,18.25,19.5,18.25z M8.641,15.25l2.248,1.389c0.118,0.073,0.254,0.111,0.394,0.111H19.5
	c0.413,0,0.75-0.337,0.75-0.75s-0.337-0.75-0.75-0.75H8.641z"/>
<path style="fill:#333333;" d="M15,6.25c-0.965,0-1.75-0.785-1.75-1.75S14.035,2.75,15,2.75s1.75,0.785,1.75,1.75
	S15.965,6.25,15,6.25z M15,4.25c-0.138,0-0.25,0.112-0.25,0.25c0,0.275,0.5,0.275,0.5,0C15.25,4.362,15.138,4.25,15,4.25z"/>
<path style="fill:#333333;" d="M17.45,16.6l-0.9-1.199c1.632-1.224,0.882-4.134,0.534-4.806c-0.298-0.575-0.786-1.285-1.103-1.726
	C15.919,8.908,15.85,8.961,15.78,9.03c-0.368,0.368-0.702,0.762-1.021,1.137c-0.91,1.071-1.771,2.083-3.01,2.083
	c-1.409,0-3.175-0.986-3.372-1.099l0.744-1.303c0.44,0.25,1.771,0.901,2.628,0.901c0.546,0,1.188-0.755,1.867-1.555
	c0.344-0.404,0.705-0.828,1.103-1.226c0.699-0.7,1.469-0.72,1.555-0.72l0.597,0.296c0.042,0.055,1.021,1.347,1.545,2.359
	C19.01,11.054,19.885,14.774,17.45,16.6z"/>
<path style="fill:#333333;" d="M3.75,14h-1.5V5c0-0.48,0.2-0.943,0.547-1.269c0.342-0.32,0.785-0.479,1.253-0.449
	C7.189,3.49,8.769,4.76,10.586,7.031L9.415,7.969C7.763,5.904,6.582,4.954,3.951,4.78C3.897,4.777,3.859,4.793,3.822,4.827
	C3.776,4.87,3.75,4.933,3.75,5V14z"/>
<path style="fill:#333333;" d="M21,22.25c-1.161,0-1.673-0.301-2.176-0.664c-0.291-0.209-0.467-0.336-1.074-0.336
	c-0.559,0-0.634,0.088-0.783,0.263c-0.319,0.373-0.715,0.737-1.717,0.737c-0.986,0-1.474-0.359-1.829-0.621
	c-0.31-0.229-0.514-0.379-1.171-0.379c-0.612,0-0.77,0.126-1.031,0.336c-0.351,0.28-0.831,0.664-1.969,0.664
	c-1.102,0-1.569-0.34-1.988-0.719C7.042,21.332,6.951,21.25,6.5,21.25c-0.446,0-0.553,0.088-0.788,0.28
	C5.25,21.909,4.733,22.25,3.5,22.25v-1.5c0.798,0,0.993-0.159,1.261-0.38c0.319-0.262,0.756-0.62,1.739-0.62
	c0.95,0,1.379,0.316,1.769,0.669c0.228,0.206,0.366,0.331,0.981,0.331c0.612,0,0.77-0.126,1.031-0.336
	c0.351-0.28,0.831-0.664,1.969-0.664c1.151,0,1.677,0.388,2.062,0.672c0.287,0.211,0.445,0.328,0.938,0.328
	c0.395,0,0.434-0.045,0.577-0.213c0.341-0.398,0.77-0.787,1.923-0.787c1.092,0,1.568,0.344,1.951,0.619
	c0.307,0.222,0.527,0.381,1.299,0.381V22.25z"/>
</svg>






