<?xml version="1.0" encoding="iso-8859-1"?>
<svg version="1.1" id="&#x56FE;&#x5C42;_1" xmlns="http://www.w3.org/2000/svg" xmlns:xlink="http://www.w3.org/1999/xlink" x="0px"
	 y="0px" viewBox="0 0 24 24" style="enable-background:new 0 0 24 24;" xml:space="preserve">
<g>
	<defs>
		<rect id="SVGID_1_" width="24" height="24"/>
	</defs>
	<clipPath id="SVGID_00000041284849536907233530000013308597170466003868_">
		<use xlink:href="#SVGID_1_"  style="overflow:visible;"/>
	</clipPath>
	<g style="clip-path:url(#SVGID_00000041284849536907233530000013308597170466003868_);">
		<path style="fill:#333333;" d="M6.38,21.959c-0.794,0-1.497-0.715-2.095-2.133c-1.677-0.707-2.37-1.561-2.061-2.539
			c0.502-1.589,3.773-2.061,5.647-1.593l0.437,0.109l0.109,0.437c0.469,1.875-0.004,5.145-1.593,5.647
			C6.674,21.936,6.525,21.959,6.38,21.959z M3.658,17.736c0.036,0,0.275,0.353,1.473,0.813l0.312,0.12l0.12,0.311
			c0.503,1.31,0.878,1.474,0.882,1.475c0.285-0.166,0.827-1.835,0.607-3.394C5.508,16.841,3.852,17.381,3.658,17.736
			C3.658,17.736,3.658,17.736,3.658,17.736z"/>
		<path style="fill:#333333;" d="M8.142,10.117c-1.359-0.397-3-1.19-3.524-2.227C4.368,7.4,4.428,6.989,4.521,6.731
			c0.649-1.785,4.774-2.358,6.697-2.358c0.008,0,0.017,0,0.025,0l-0.004,1.5C8.463,5.817,6.104,6.771,5.932,7.244
			c0.059,0.163,0.886,0.923,2.63,1.433L8.142,10.117z"/>
		<path style="fill:#333333;" d="M16.92,19.672c-0.203,0-0.438-0.046-0.696-0.176c-1.037-0.525-1.83-2.165-2.228-3.525l1.439-0.42
			c0.51,1.744,1.271,2.571,1.502,2.622c0.404-0.164,1.309-2.523,1.302-5.3l1.5-0.004c0.005,1.912-0.565,6.069-2.358,6.722
			C17.26,19.635,17.103,19.672,16.92,19.672z"/>
		<path style="fill:#333333;" d="M6.871,17.226l0.072-0.866c0.03-0.357,0.764-8.793,3.753-11.781
			c3.106-3.107,9.316-1.33,9.579-1.252l0.353,0.104l0.134,0.343c0.101,0.256,2.413,6.323-1.256,9.664l0,0
			C16.019,16.61,8.074,17.149,7.737,17.17L6.871,17.226z M16.058,4.249c-1.545,0-3.219,0.306-4.302,1.39
			C9.67,7.725,8.8,13.388,8.533,15.591c2.125-0.23,7.496-1.019,9.962-3.264l0,0c2.469-2.247,1.384-6.42,0.989-7.656
			C18.86,4.522,17.516,4.249,16.058,4.249z"/>
		<path style="fill:#333333;" d="M18.887,13.628c-0.146-0.023-3.624-0.593-5.717-2.686c-2.093-2.093-2.662-5.569-2.685-5.716
			l1.481-0.235c0.005,0.031,0.521,3.147,2.264,4.891c1.752,1.752,4.859,2.259,4.891,2.264L18.887,13.628z"/>
		<circle style="fill:#333333;" cx="16.883" cy="7.23" r="1"/>
		<path style="fill:#333333;" d="M16.142,15.397l-0.549-1.396c1.24-0.486,2.217-1.05,2.902-1.673
			c0.599-0.545,1.032-1.244,1.288-2.076l1.434,0.44c-0.336,1.092-0.911,2.016-1.712,2.745
			C18.683,14.185,17.552,14.844,16.142,15.397z"/>
		<path style="fill:#333333;" d="M10.402,7.8L9.028,7.2c0.491-1.125,1.052-2.006,1.667-2.622c0.674-0.674,1.548-1.169,2.598-1.471
			l0.414,1.441c-0.803,0.231-1.459,0.598-1.951,1.09C11.274,6.121,10.818,6.848,10.402,7.8z"/>
	</g>
</g>
</svg>






