<?xml version="1.0" encoding="iso-8859-1"?>
<svg version="1.1" id="&#x56FE;&#x5C42;_1" xmlns="http://www.w3.org/2000/svg" xmlns:xlink="http://www.w3.org/1999/xlink" x="0px"
	 y="0px" viewBox="0 0 24 24" style="enable-background:new 0 0 24 24;" xml:space="preserve">
<path style="fill:#333333;" d="M11.473,20.328c-0.413,0-0.789-0.034-1.103-0.09L9.239,20.04l2.029-3.044
	c-1.91-0.618-3.82-2.146-4.746-2.96c-1.407,1.292-3.269,2.25-4.24,2.644l-0.959-1.017c1.762-3.71,0.597-6.919,0.051-7.751L2,6.75
	c1.611,0,3.59,1.487,4.507,2.257c1.176-0.875,3.251-1.82,4.739-2.374L9.915,4.969l0.503-1.214c3.862-0.426,5.879,1.291,6.604,2.6
	c4.156,1.087,5.558,4.422,5.721,5.537l0.021,0.149l-0.038,0.147c-0.647,2.5-3.869,4.447-5.692,4.957
	C15.811,19.665,13.28,20.328,11.473,20.328z M6.467,11.926l0.554,0.534c1.099,1.061,3.672,3.114,5.55,3.293l1.248,0.12l-1.965,2.948
	c1.401-0.085,3.172-0.691,3.952-2.604l0.156-0.384l0.408-0.071c1.39-0.244,4.253-1.953,4.859-3.797
	c-0.217-0.894-1.431-3.465-4.892-4.232l-0.389-0.086l-0.146-0.37c-0.289-0.729-1.424-1.937-3.781-2.074l1.764,2.204L12.71,7.72
	c-1.645,0.481-4.838,1.925-5.666,2.797l-0.519,0.545l-0.544-0.52C5.342,9.93,4.277,9.123,3.317,8.648
	c0.435,1.397,0.706,3.465,0.051,5.818c0.881-0.51,1.863-1.191,2.58-1.973L6.467,11.926z"/>
<circle style="fill:#333333;" cx="18" cy="12" r="1"/>
</svg>






