<?xml version="1.0" encoding="iso-8859-1"?>
<svg version="1.1" id="&#x56FE;&#x5C42;_1" xmlns="http://www.w3.org/2000/svg" xmlns:xlink="http://www.w3.org/1999/xlink" x="0px"
	 y="0px" viewBox="0 0 24 24" style="enable-background:new 0 0 24 24;" xml:space="preserve">
<path style="fill:#333333;" d="M20.5,17.25c-1.546,0-2.25-2.462-2.25-4.75c0-2.288,0.704-4.75,2.25-4.75s2.25,2.462,2.25,4.75
	C22.75,14.788,22.046,17.25,20.5,17.25z M20.5,9.282c-0.261,0.247-0.75,1.338-0.75,3.218s0.489,2.971,0.75,3.218
	c0.261-0.247,0.75-1.338,0.75-3.218S20.761,9.529,20.5,9.282z"/>
<path style="fill:#333333;" d="M3.5,17.25c-1.546,0-2.25-2.462-2.25-4.75c0-2.288,0.704-4.75,2.25-4.75s2.25,2.462,2.25,4.75
	C5.75,14.788,5.046,17.25,3.5,17.25z M3.5,9.282C3.239,9.528,2.75,10.619,2.75,12.5s0.489,2.972,0.75,3.218
	c0.261-0.246,0.75-1.337,0.75-3.218S3.761,9.528,3.5,9.282z"/>
<path style="fill:#333333;" d="M12,22.75c-2.577,0-3.75-5.572-3.75-10.75S9.423,1.25,12,1.25c2.576,0,3.75,5.572,3.75,10.75
	S14.576,22.75,12,22.75z M12,2.75c-0.673,0-2.25,3.147-2.25,9.25c0,6.103,1.577,9.25,2.25,9.25s2.25-3.147,2.25-9.25
	C14.25,5.897,12.673,2.75,12,2.75z"/>
<path style="fill:#333333;" d="M17,20.75c-2.673,0-2.75-7.854-2.75-8.75S14.327,3.25,17,3.25s2.75,7.854,2.75,8.75
	S19.673,20.75,17,20.75z M17,4.804C16.511,5.326,15.75,7.929,15.75,12c0,4.07,0.761,6.674,1.25,7.195
	c0.489-0.521,1.25-3.125,1.25-7.195C18.25,7.929,17.489,5.326,17,4.804z"/>
<path style="fill:#333333;" d="M7,20.75c-2.673,0-2.75-7.854-2.75-8.75S4.327,3.25,7,3.25S9.75,11.104,9.75,12S9.673,20.75,7,20.75z
	 M7,4.804C6.511,5.326,5.75,7.929,5.75,12c0,4.07,0.761,6.674,1.25,7.195C7.489,18.674,8.25,16.07,8.25,12
	C8.25,7.929,7.489,5.326,7,4.804z"/>
</svg>






