<?xml version="1.0" encoding="iso-8859-1"?>
<svg version="1.1" id="&#x56FE;&#x5C42;_1" xmlns="http://www.w3.org/2000/svg" xmlns:xlink="http://www.w3.org/1999/xlink" x="0px"
	 y="0px" viewBox="0 0 24 24" style="enable-background:new 0 0 24 24;" xml:space="preserve">
<path style="fill:#333333;" d="M14.122,22.75h-0.577c-2.771,0-5.402-1.335-7.039-3.571l-3.836-5.243
	c-0.941-1.287-0.679-3.125,0.584-4.097c1.173-0.903,2.851-0.795,3.899,0.254l0.097,0.097V3.625c0-1.31,1.065-2.375,2.375-2.375
	c0.507,0,0.979,0.16,1.365,0.432c0.435-0.566,1.118-0.932,1.885-0.932s1.451,0.366,1.886,0.932c0.386-0.272,0.856-0.432,1.364-0.432
	c1.24,0,2.263,0.956,2.366,2.17c0.273-0.11,0.571-0.17,0.884-0.17c1.31,0,2.375,1.065,2.375,2.375v9.529
	c0,1.523-0.457,2.996-1.321,4.259C19,21.502,16.643,22.75,14.122,22.75z M7.717,18.292c1.355,1.853,3.534,2.958,5.828,2.958h0.577
	c2.024,0,3.919-1.003,5.068-2.684c0.684-0.999,1.06-2.21,1.06-3.412V5.625c0-0.482-0.393-0.875-0.875-0.875S18.5,5.143,18.5,5.625
	H17v-2c0-0.482-0.393-0.875-0.875-0.875S15.25,3.143,15.25,3.625h-1.5v-0.5c0-0.482-0.393-0.875-0.875-0.875S12,2.643,12,3.125v0.5
	h-1.5c0-0.482-0.393-0.875-0.875-0.875S8.75,3.143,8.75,3.625V12l-1.28,0.53l-1.377-1.377c-0.517-0.517-1.344-0.57-1.925-0.125
	c-0.624,0.479-0.752,1.386-0.288,2.021L7.717,18.292z"/>
</svg>






