<?xml version="1.0" encoding="iso-8859-1"?>
<svg version="1.1" id="&#x56FE;&#x5C42;_1" xmlns="http://www.w3.org/2000/svg" xmlns:xlink="http://www.w3.org/1999/xlink" x="0px"
	 y="0px" viewBox="0 0 24 24" style="enable-background:new 0 0 24 24;" xml:space="preserve">
<path style="fill:#333333;" d="M11.5,22.75c-4.033,0-6.114-1.301-6.671-2.415l-0.038-0.091l-2.526-7.347L1.286,8.001
	C1.262,7.887,1.25,7.766,1.25,7.644c0-0.722,0.413-1.277,1.028-1.46C2.891,6,3.542,6.238,3.894,6.776
	c0.046,0.07,0.09,0.149,0.127,0.23l0.802,1.738L4.321,5.074C4.253,4.571,4.383,4.072,4.687,3.668c0.243-0.325,0.6-0.536,1.003-0.593
	c0.4-0.056,0.803,0.045,1.128,0.289c0.394,0.296,0.637,0.629,0.77,1.014l0.921,2.662L8.291,3.657
	c-0.039-0.602,0.184-1.192,0.61-1.619c0.595-0.595,1.539-0.647,2.196-0.122l0.17,0.136c0.437,0.35,0.727,0.846,0.816,1.398
	l0.543,3.37l0.316-3.262c0.058-0.601,0.362-1.162,0.834-1.54l0.104-0.083C14.549,1.4,15.512,1.452,16.12,2.06
	c0.406,0.405,0.63,0.945,0.63,1.52v9.296l1.851-1.189c0.444-0.286,0.958-0.437,1.486-0.437h1.035c0.447,0,0.863,0.242,1.085,0.631
	c0.223,0.39,0.219,0.871-0.01,1.256l-4.383,7.357C17.733,20.586,15.791,22.75,11.5,22.75z M6.188,19.696
	c0.232,0.375,1.654,1.554,5.312,1.554c3.306,0,4.887-1.441,5.147-1.703l4.035-6.797h-0.596c-0.24,0-0.474,0.068-0.676,0.198
	l-2.235,1.438c-0.385,0.247-0.875,0.264-1.274,0.046c-0.402-0.22-0.651-0.641-0.651-1.098V3.58c0-0.173-0.067-0.336-0.19-0.458
	c-0.064-0.066-0.17-0.071-0.242-0.014L14.713,3.19c-0.157,0.125-0.259,0.312-0.278,0.513l-0.664,6.862
	c-0.05,0.532-0.492,0.935-1.028,0.935c-0.513,0-0.942-0.367-1.021-0.873l-1.119-6.936c-0.03-0.184-0.126-0.35-0.272-0.467
	l-0.17-0.136c-0.06-0.047-0.145-0.043-0.198,0.011C9.84,3.221,9.776,3.389,9.788,3.561l0.441,6.842
	c0.019,0.282-0.082,0.564-0.276,0.771c-0.494,0.527-1.491,0.316-1.727-0.367L6.17,4.867C6.135,4.766,6.071,4.678,5.985,4.614
	l-0.1-0.045C5.821,4.656,5.793,4.763,5.808,4.872l1.017,7.432l-0.56,0.211c-0.677,0.252-1.367-0.03-1.64-0.622L2.805,7.952
	l0.92,4.602L6.188,19.696z M8.732,10.499c0,0,0,0.001,0,0.002V10.499z M12.278,10.42c0,0.001-0.001,0.002-0.001,0.002L12.278,10.42z
	 M13.201,10.387l0.001,0.004C13.202,10.39,13.202,10.389,13.201,10.387z"/>
</svg>






