<?xml version="1.0" encoding="iso-8859-1"?>
<svg version="1.1" id="&#x56FE;&#x5C42;_1" xmlns="http://www.w3.org/2000/svg" xmlns:xlink="http://www.w3.org/1999/xlink" x="0px"
	 y="0px" viewBox="0 0 24 24" style="enable-background:new 0 0 24 24;" xml:space="preserve">
<path style="fill:#333333;" d="M22.75,22.75H1.25v-2.397l3.493-3.573l14.495-0.019l3.512,3.592V22.75z M2.75,21.25h18.5v-0.286
	l-2.643-2.703L5.375,18.279L2.75,20.964V21.25z"/>
<polygon style="fill:#333333;" points="5.588,18.062 4.516,17.013 8.25,13.194 8.25,2.25 15.75,2.25 15.75,13.194 19.473,17.001 
	18.4,18.05 14.25,13.806 14.25,3.75 9.75,3.75 9.75,13.806 "/>
<rect x="5.5" y="16.75" style="fill:#333333;" width="13" height="1.5"/>
<rect x="12" y="6.25" style="fill:#333333;" width="3" height="1.5"/>
<rect x="12" y="9.25" style="fill:#333333;" width="3" height="1.5"/>
</svg>






