<?xml version="1.0" encoding="iso-8859-1"?>
<svg version="1.1" id="&#x56FE;&#x5C42;_1" xmlns="http://www.w3.org/2000/svg" xmlns:xlink="http://www.w3.org/1999/xlink" x="0px"
	 y="0px" viewBox="0 0 24 24" style="enable-background:new 0 0 24 24;" xml:space="preserve">
<path style="fill:#333333;" d="M22.25,12.5h-1.5c0-4.549-3.813-8.25-8.5-8.25c-4.687,0-8.5,3.701-8.5,8.25h-1.5
	c0-5.376,4.486-9.75,10-9.75C17.764,2.75,22.25,7.124,22.25,12.5z"/>
<path style="fill:#333333;" d="M22,21.25H4c-1.006,0-1.863-0.429-2.353-1.175c-0.477-0.728-0.534-1.641-0.157-2.506
	c0.629-1.445,2.399-3.058,2.474-3.125l1.237,0.399l0.406,1.907l12.643,0.01l4.199,3.139L22,21.25z M4.025,16.522
	c-0.457,0.513-0.932,1.125-1.159,1.646c-0.171,0.393-0.158,0.788,0.037,1.084c0.21,0.32,0.6,0.497,1.098,0.497h15.743l-1.993-1.489
	L4.393,18.249L4.025,16.522z"/>
<polygon style="fill:#333333;" points="13.995,18.055 8.71,13.25 8.415,13.25 9.235,17.353 7.765,17.647 6.585,11.75 9.29,11.75 
	15.005,16.945 "/>
</svg>






