<?xml version="1.0" encoding="iso-8859-1"?>
<svg version="1.1" id="&#x56FE;&#x5C42;_1" xmlns="http://www.w3.org/2000/svg" xmlns:xlink="http://www.w3.org/1999/xlink" x="0px"
	 y="0px" viewBox="0 0 24 24" style="enable-background:new 0 0 24 24;" xml:space="preserve">
<path style="fill:#333333;" d="M12.501,22.315l-0.295-0.126c-2.518-1.078-4.342-2.491-5.578-4.32l1.243-0.84
	c1.021,1.513,2.538,2.71,4.629,3.651c4.127-1.861,6.113-4.794,6.242-9.203l1.5,0.044c-0.15,5.095-2.586,8.584-7.447,10.667
	L12.501,22.315z"/>
<path style="fill:#333333;" d="M5.199,14.693c-0.298-1.114-0.449-2.353-0.449-3.679V4.608l7.753-2.91l7.747,2.91V9.5h-1.5V5.647
	l-6.247-2.346L6.25,5.647v5.367c0,1.196,0.134,2.304,0.398,3.292L5.199,14.693z"/>
<path style="fill:#333333;" d="M3.858,19.616c-0.48,0-0.941-0.123-1.351-0.368c-0.761-0.457-1.219-1.266-1.257-2.219
	c-0.064-1.623,0.855-3.912,0.895-4.009l0.245-0.604l0.633,0.159c0.407,0.103,0.692,0.468,1.21,1.131
	c0.18,0.229,0.375,0.479,0.562,0.695l12.609-6.19l4.758,1.057l0.176,1.401C21.7,10.992,6.692,18.584,5.238,19.286
	C4.782,19.506,4.312,19.616,3.858,19.616z M3.138,14.739c-0.215,0.723-0.414,1.592-0.388,2.23c0.018,0.445,0.206,0.798,0.53,0.992
	c0.354,0.213,0.831,0.203,1.306-0.027c1.137-0.549,11.01-5.537,15.204-7.657l-2.196-0.488L4.505,16.215l-0.378-0.346
	C3.788,15.559,3.446,15.133,3.138,14.739z M2.487,13.955L2.487,13.955L2.487,13.955z"/>
<polygon style="fill:#333333;" points="9.329,12.835 7.493,9.165 9.442,8.19 14.237,9.789 13.763,11.211 9.557,9.81 9.506,9.835 
	10.67,12.165 "/>
</svg>






