<?xml version="1.0" encoding="iso-8859-1"?>
<svg version="1.1" id="&#x56FE;&#x5C42;_1" xmlns="http://www.w3.org/2000/svg" xmlns:xlink="http://www.w3.org/1999/xlink" x="0px"
	 y="0px" viewBox="0 0 24 24" style="enable-background:new 0 0 24 24;" xml:space="preserve">
<path style="fill:#333333;" d="M18.75,14.25H5.25v-9.5h2.787l1-2h5.927l1,2h2.786V14.25z M6.75,12.75h10.5v-6.5h-2.214l-1-2H9.963
	l-1,2H6.75V12.75z"/>
<path style="fill:#333333;" d="M12,11.75c-1.517,0-2.75-1.233-2.75-2.75S10.483,6.25,12,6.25S14.75,7.483,14.75,9
	S13.517,11.75,12,11.75z M12,7.75c-0.689,0-1.25,0.561-1.25,1.25s0.561,1.25,1.25,1.25S13.25,9.689,13.25,9S12.689,7.75,12,7.75z"/>
<path style="fill:#333333;" d="M10.53,21.53L9.47,20.47l0.792-0.791C5.088,19.246,1.25,16.907,1.25,14
	c0-0.87,0.352-1.732,1.017-2.494l1.13,0.987C2.968,12.984,2.75,13.491,2.75,14c0,1.808,2.883,3.728,7.35,4.16l-0.63-0.63
	l1.061-1.061l2,2L12,19l0.53,0.53L10.53,21.53z"/>
<path style="fill:#333333;" d="M16.16,19.316l-0.32-1.465c3.236-0.707,5.41-2.255,5.41-3.852c0-0.509-0.218-1.016-0.646-1.507
	l1.129-0.987C22.398,12.268,22.75,13.13,22.75,14C22.75,16.392,20.225,18.429,16.16,19.316z"/>
</svg>






