<?xml version="1.0" encoding="iso-8859-1"?>
<svg version="1.1" id="&#x56FE;&#x5C42;_1" xmlns="http://www.w3.org/2000/svg" xmlns:xlink="http://www.w3.org/1999/xlink" x="0px"
	 y="0px" viewBox="0 0 24 24" style="enable-background:new 0 0 24 24;" xml:space="preserve">
<path style="fill:#333333;" d="M11.823,22.665c-0.29,0-0.579-0.02-0.863-0.059c-2.593-0.358-4.556-2.826-5.04-3.662
	c-0.158-0.273-0.298-0.571-0.417-0.885c-0.253-0.673-0.006-1.416,0.601-1.807c0.025-0.017,0.051-0.032,0.076-0.048
	c-0.118-0.072-0.227-0.16-0.323-0.263c-0.331-0.354-0.468-0.834-0.378-1.315c0.193-1.027,0.798-2.938,2.688-4.204
	c2.131-1.428,3.701-1.004,4.739-0.724l0.275,0.073l-0.363,1.455l-0.304-0.08c-0.913-0.247-1.948-0.526-3.512,0.522
	c-1.434,0.96-1.899,2.438-2.048,3.234c0.638-0.031,0.945-0.11,1.106-0.164c0.352-0.119,0.393-0.217,0.564-0.625
	c0.094-0.225,0.211-0.504,0.409-0.805c0.744-1.127,2.447-1.434,3.796-0.685c1.258,0.698,1.851,1.973,1.51,3.247
	c-0.354,1.315-1.217,2.122-2.565,2.397c-1.188,0.237-1.857-0.184-2.566-0.636c-0.256-0.163-0.544-0.348-0.906-0.527
	c-0.263-0.131-0.794,0.026-1.385,0.408c0.08,0.253,0.185,0.477,0.302,0.68c0.297,0.513,1.932,2.647,3.946,2.926
	c1.931,0.272,4.086-0.647,5.369-2.277c1.104-1.404,1.243-3.463,0.362-5.372l1.361-0.629c1.119,2.424,0.91,5.078-0.545,6.929
	C16.298,21.566,14.017,22.665,11.823,22.665z M9.159,15.86c0.331,0.175,0.606,0.35,0.855,0.508c0.614,0.392,0.867,0.552,1.46,0.432
	c0.799-0.163,1.209-0.545,1.417-1.315c0.125-0.467-0.017-1.12-0.789-1.548c-0.705-0.395-1.54-0.218-1.816,0.199
	c-0.121,0.184-0.197,0.365-0.278,0.558C9.85,15.071,9.662,15.519,9.159,15.86z"/>
<path style="fill:#333333;" d="M12.999,14.922c-0.17-0.904-1.022-6.007-1.205-7.101c-0.465-0.566-1.692-2.066-1.918-2.405
	C9.19,4.386,9.261,3.127,10.07,1.961c0.197-0.283,0.506-0.463,0.848-0.494c0.352-0.034,0.708,0.098,0.966,0.356l4.794,4.794
	l1.573,6.414l-1.457,0.357l-1.474-6.006l-4.223-4.224c-0.263,0.525-0.254,1.004,0.026,1.426c0.162,0.244,1.286,1.625,1.956,2.439
	l0.128,0.155l0.033,0.198c0.01,0.063,1.048,6.291,1.232,7.268L12.999,14.922z"/>
</svg>






