<?xml version="1.0" encoding="iso-8859-1"?>
<svg version="1.1" id="&#x56FE;&#x5C42;_1" xmlns="http://www.w3.org/2000/svg" xmlns:xlink="http://www.w3.org/1999/xlink" x="0px"
	 y="0px" viewBox="0 0 24 24" style="enable-background:new 0 0 24 24;" xml:space="preserve">
<path style="fill:#333333;" d="M12,20.75c-5.928,0-10.75-3.925-10.75-8.75c0-4.825,4.822-8.75,10.75-8.75S22.75,7.175,22.75,12
	C22.75,16.825,17.928,20.75,12,20.75z M12,4.75c-5.101,0-9.25,3.252-9.25,7.25c0,3.998,4.149,7.25,9.25,7.25s9.25-3.252,9.25-7.25
	C21.25,8.002,17.101,4.75,12,4.75z"/>
<path style="fill:#333333;" d="M12,14.75c-3.224,0-5.75-1.647-5.75-3.75c0-2.103,2.526-3.75,5.75-3.75c3.225,0,5.75,1.647,5.75,3.75
	C17.75,13.103,15.225,14.75,12,14.75z M12,8.75c-2.504,0-4.25,1.186-4.25,2.25s1.746,2.25,4.25,2.25c2.505,0,4.25-1.186,4.25-2.25
	S14.505,8.75,12,8.75z"/>
<rect x="11.25" y="4" style="fill:#333333;" width="1.5" height="4"/>
<path style="fill:#333333;" d="M16.625,9.414l-1.252-0.826C15.436,8.493,16.938,6.25,19.5,6.25v1.5
	C17.757,7.75,16.637,9.397,16.625,9.414z"/>
<path style="fill:#333333;" d="M7.332,9.34C7.298,9.275,6.483,7.75,4.5,7.75v-1.5c2.93,0,4.122,2.316,4.171,2.415L7.332,9.34z"/>
<path style="fill:#333333;" d="M6.243,18.106l-1.485-0.213c0.56-3.913,3.865-5.059,4.005-5.105l0.475,1.424L9,13.5l0.241,0.71
	C9.136,14.246,6.667,15.131,6.243,18.106z"/>
<path style="fill:#333333;" d="M17.752,18.054c-0.209-2.926-2.863-3.802-2.976-3.838l0.444-1.433
	c0.152,0.047,3.744,1.196,4.027,5.163L17.752,18.054z"/>
</svg>






