<?xml version="1.0" encoding="iso-8859-1"?>
<svg version="1.1" id="&#x56FE;&#x5C42;_1" xmlns="http://www.w3.org/2000/svg" xmlns:xlink="http://www.w3.org/1999/xlink" x="0px"
	 y="0px" viewBox="0 0 24 24" style="enable-background:new 0 0 24 24;" xml:space="preserve">
<path style="fill:#333333;" d="M19.5,21.75h-15c-1.241,0-2.25-1.01-2.25-2.25v-15c0-1.241,1.009-2.25,2.25-2.25h15
	c1.24,0,2.25,1.009,2.25,2.25v15C21.75,20.74,20.74,21.75,19.5,21.75z M4.5,3.75c-0.414,0-0.75,0.336-0.75,0.75v15
	c0,0.413,0.336,0.75,0.75,0.75h15c0.413,0,0.75-0.337,0.75-0.75v-15c0-0.414-0.337-0.75-0.75-0.75H4.5z"/>
<rect x="0.722" y="7.75" transform="matrix(0.7071 -0.7071 0.7071 0.7071 -3.5208 8.5)" style="fill:#333333;" width="15.556" height="1.5"/>
<rect x="7.722" y="14.75" transform="matrix(0.7071 -0.7071 0.7071 0.7071 -6.4203 15.5)" style="fill:#333333;" width="15.556" height="1.5"/>
<rect x="0.686" y="11.25" transform="matrix(0.7071 -0.7071 0.7071 0.7071 -4.9706 12)" style="fill:#333333;" width="22.627" height="1.5"/>
<rect x="7" y="10.275" transform="matrix(0.7071 -0.7071 0.7071 0.7071 -6.7457 9.2145)" style="fill:#333333;" width="1.5" height="4.95"/>
<rect x="15.5" y="8.775" transform="matrix(0.7071 -0.7071 0.7071 0.7071 -3.1954 14.7855)" style="fill:#333333;" width="1.5" height="4.95"/>
</svg>






