<?xml version="1.0" encoding="iso-8859-1"?>
<svg version="1.1" id="&#x56FE;&#x5C42;_1" xmlns="http://www.w3.org/2000/svg" xmlns:xlink="http://www.w3.org/1999/xlink" x="0px"
	 y="0px" viewBox="0 0 24 24" style="enable-background:new 0 0 24 24;" xml:space="preserve">
<path style="fill:#333333;" d="M12,13.75c-1.517,0-2.75-1.233-2.75-2.75S10.483,8.25,12,8.25s2.75,1.233,2.75,2.75
	S13.517,13.75,12,13.75z M12,9.75c-0.689,0-1.25,0.561-1.25,1.25s0.561,1.25,1.25,1.25s1.25-0.561,1.25-1.25S12.689,9.75,12,9.75z"
	/>
<path style="fill:#333333;" d="M12,23.25c-0.543,0-1.049-0.221-1.388-0.606c-0.584-0.661-1.344-5.555-0.413-6.612l0,0
	c0.875-0.992,2.727-0.992,3.602,0c0.932,1.057,0.172,5.951-0.413,6.613C13.05,23.029,12.544,23.25,12,23.25L12,23.25z
	 M11.348,16.998c-0.29,0.656,0.081,4.062,0.434,4.713c0.02,0.005,0.378,0.062,0.48-0.058c0.272-0.524,0.713-4.02,0.382-4.675
	C12.411,16.732,11.66,16.677,11.348,16.998z M11.357,16.979L11.357,16.979z"/>
<path style="fill:#333333;" d="M15.959,15.837l-0.951-1.16C16.115,13.77,16.75,12.43,16.75,11c0-2.619-2.131-4.75-4.75-4.75
	S7.25,8.381,7.25,11c0,1.43,0.635,2.77,1.742,3.677l-0.951,1.16C6.585,14.644,5.75,12.881,5.75,11c0-3.446,2.804-6.25,6.25-6.25
	s6.25,2.804,6.25,6.25C18.25,12.881,17.415,14.645,15.959,15.837z"/>
<path style="fill:#333333;" d="M16.294,19.756l-0.662-1.346c2.849-1.399,4.618-4.239,4.618-7.41c0-4.549-3.701-8.25-8.25-8.25
	S3.75,6.451,3.75,11c0,3.171,1.77,6.011,4.618,7.41l-0.661,1.346C4.341,18.103,2.25,14.747,2.25,11c0-5.376,4.374-9.75,9.75-9.75
	s9.75,4.374,9.75,9.75C21.75,14.747,19.659,18.103,16.294,19.756z"/>
</svg>






