<?xml version="1.0" encoding="iso-8859-1"?>
<svg version="1.1" id="&#x56FE;&#x5C42;_1" xmlns="http://www.w3.org/2000/svg" xmlns:xlink="http://www.w3.org/1999/xlink" x="0px"
	 y="0px" viewBox="0 0 24 24" style="enable-background:new 0 0 24 24;" xml:space="preserve">
<path style="fill:#333333;" d="M11,21.75H3.5c-0.965,0-1.75-0.785-1.75-1.75V4c0-0.965,0.785-1.75,1.75-1.75h6.351l2.5,3H20.5
	c0.965,0,1.75,0.785,1.75,1.75v4.5h-1.5V7c0-0.138-0.112-0.25-0.25-0.25h-8.851l-2.5-3H3.5C3.362,3.75,3.25,3.862,3.25,4v16
	c0,0.138,0.112,0.25,0.25,0.25H11V21.75z"/>
<path style="fill:#333333;" d="M19.482,21.39L17.5,20.27l-1.982,1.12l-1.104-0.803l0.453-2.23l-1.678-1.54l0.422-1.298l2.262-0.26
	l0.945-2.07h1.365l0.945,2.07l2.262,0.26l0.422,1.298l-1.678,1.54l0.453,2.23L19.482,21.39z M17.5,18.547l1.29,0.729l-0.295-1.452
	l1.092-1.002l-1.472-0.168L17.5,15.307l-0.615,1.347l-1.472,0.168l1.092,1.002l-0.295,1.452L17.5,18.547z"/>
</svg>






