<?xml version="1.0" encoding="iso-8859-1"?>
<svg version="1.1" id="&#x56FE;&#x5C42;_1" xmlns="http://www.w3.org/2000/svg" xmlns:xlink="http://www.w3.org/1999/xlink" x="0px"
	 y="0px" viewBox="0 0 24 24" style="enable-background:new 0 0 24 24;" xml:space="preserve">
<path style="fill:#333333;" d="M11,21.75H3.5c-0.965,0-1.75-0.785-1.75-1.75V4c0-0.965,0.785-1.75,1.75-1.75h6.351l2.5,3H20.5
	c0.965,0,1.75,0.785,1.75,1.75v4.5h-1.5V7c0-0.138-0.112-0.25-0.25-0.25h-8.851l-2.5-3H3.5C3.362,3.75,3.25,3.862,3.25,4v16
	c0,0.138,0.112,0.25,0.25,0.25H11V21.75z"/>
<rect x="13.5" y="14.75" style="fill:#333333;" width="7" height="1.5"/>
<rect x="13.5" y="17.75" style="fill:#333333;" width="7" height="1.5"/>
<rect x="18.5" y="12.482" transform="matrix(0.7071 -0.7071 0.7071 0.7071 -4.4381 17.7855)" style="fill:#333333;" width="1.5" height="3.536"/>
<rect x="14" y="17.982" transform="matrix(0.7071 -0.7071 0.7071 0.7071 -9.6452 16.2145)" style="fill:#333333;" width="1.5" height="3.536"/>
</svg>






