<?xml version="1.0" encoding="iso-8859-1"?>
<svg version="1.1" id="&#x56FE;&#x5C42;_1" xmlns="http://www.w3.org/2000/svg" xmlns:xlink="http://www.w3.org/1999/xlink" x="0px"
	 y="0px" viewBox="0 0 24 24" style="enable-background:new 0 0 24 24;" xml:space="preserve">
<path style="fill:#333333;" d="M11,21.75H3.5c-0.965,0-1.75-0.785-1.75-1.75V4c0-0.965,0.785-1.75,1.75-1.75h6.351l2.5,3H20.5
	c0.965,0,1.75,0.785,1.75,1.75v4.5h-1.5V7c0-0.138-0.112-0.25-0.25-0.25h-8.851l-2.5-3H3.5C3.362,3.75,3.25,3.862,3.25,4v16
	c0,0.138,0.112,0.25,0.25,0.25H11V21.75z"/>
<path style="fill:#333333;" d="M17,21.883l-0.396-0.246c-0.137-0.085-3.354-2.134-3.354-6.236c0-0.43,0-1.019,3.527-2.116L17,13.215
	l0.223,0.069c3.527,1.098,3.527,1.687,3.527,2.116c0,4.103-3.217,6.151-3.354,6.236L17,21.883z M14.757,15.681
	c0.106,2.342,1.53,3.8,2.243,4.388c0.713-0.587,2.138-2.046,2.244-4.389c-0.398-0.232-1.383-0.613-2.244-0.893
	C16.061,15.091,15.134,15.462,14.757,15.681z"/>
</svg>






