<?xml version="1.0" encoding="iso-8859-1"?>
<svg version="1.1" id="&#x56FE;&#x5C42;_1" xmlns="http://www.w3.org/2000/svg" xmlns:xlink="http://www.w3.org/1999/xlink" x="0px"
	 y="0px" viewBox="0 0 24 24" style="enable-background:new 0 0 24 24;" xml:space="preserve">
<path style="fill:#333333;" d="M20.5,21.75h-17c-0.965,0-1.75-0.785-1.75-1.75V4c0-0.965,0.785-1.75,1.75-1.75h6.351l2.5,3H20.5
	c0.965,0,1.75,0.785,1.75,1.75v13C22.25,20.965,21.465,21.75,20.5,21.75z M3.5,3.75C3.362,3.75,3.25,3.862,3.25,4v16
	c0,0.138,0.112,0.25,0.25,0.25h17c0.138,0,0.25-0.112,0.25-0.25V7c0-0.138-0.112-0.25-0.25-0.25h-8.851l-2.5-3H3.5z"/>
<path style="fill:#333333;" d="M12,17.883l-0.396-0.246C11.467,17.552,8.25,15.503,8.25,11.4c0-0.43,0-1.019,3.527-2.116L12,9.214
	l0.223,0.069c3.527,1.098,3.527,1.687,3.527,2.116c0,4.103-3.217,6.152-3.354,6.237L12,17.883z M9.756,11.68
	c0.107,2.342,1.53,3.8,2.244,4.388c0.713-0.587,2.137-2.046,2.244-4.389c-0.398-0.232-1.383-0.613-2.244-0.893
	C11.061,11.091,10.133,11.462,9.756,11.68z"/>
</svg>






