<?xml version="1.0" encoding="iso-8859-1"?>
<svg version="1.1" id="&#x56FE;&#x5C42;_1" xmlns="http://www.w3.org/2000/svg" xmlns:xlink="http://www.w3.org/1999/xlink" x="0px"
	 y="0px" viewBox="0 0 24 24" style="enable-background:new 0 0 24 24;" xml:space="preserve">
<path style="fill:#333333;" d="M8,22.25H3c-0.689,0-1.25-0.561-1.25-1.25V3c0-0.689,0.561-1.25,1.25-1.25h5
	c0.689,0,1.25,0.561,1.25,1.25v18C9.25,21.689,8.689,22.25,8,22.25z M3.25,20.75h4.5V3.25h-4.5V20.75z"/>
<circle style="fill:#333333;" cx="5.5" cy="17.5" r="1"/>
<rect x="4.75" y="5.5" style="fill:#333333;" width="1.5" height="7"/>
<path style="fill:#333333;" d="M15.862,21.145c-0.558,0-1.068-0.376-1.213-0.938L10.9,5.675c-0.084-0.325-0.036-0.663,0.136-0.951
	c0.172-0.289,0.445-0.492,0.771-0.574l5.03-1.258c0.662-0.165,1.344,0.239,1.514,0.901l3.75,14.53
	c0.083,0.326,0.035,0.664-0.137,0.952c-0.171,0.288-0.444,0.491-0.77,0.573l-5.031,1.258C16.062,21.133,15.962,21.145,15.862,21.145
	z M12.415,5.544l3.625,14.047l4.545-1.136L16.96,4.408L12.415,5.544z M12.173,5.605l-0.002,0
	C12.171,5.605,12.172,5.605,12.173,5.605z"/>
<circle style="fill:#333333;" cx="17.5" cy="16" r="1"/>
<rect x="15.375" y="7.923" transform="matrix(0.9701 -0.2426 0.2426 0.9701 -2.0653 4.2248)" style="fill:#333333;" width="1.5" height="5.154"/>
</svg>






