<?xml version="1.0" encoding="iso-8859-1"?>
<svg version="1.1" id="&#x56FE;&#x5C42;_1" xmlns="http://www.w3.org/2000/svg" xmlns:xlink="http://www.w3.org/1999/xlink" x="0px"
	 y="0px" viewBox="0 0 24 24" style="enable-background:new 0 0 24 24;" xml:space="preserve">
<path style="fill:#333333;" d="M20.5,21.75h-17c-0.965,0-1.75-0.785-1.75-1.75V4c0-0.965,0.785-1.75,1.75-1.75h6.351l2.5,3H20.5
	c0.965,0,1.75,0.785,1.75,1.75v13C22.25,20.965,21.465,21.75,20.5,21.75z M3.5,3.75C3.362,3.75,3.25,3.862,3.25,4v16
	c0,0.138,0.112,0.25,0.25,0.25h17c0.138,0,0.25-0.112,0.25-0.25V7c0-0.138-0.112-0.25-0.25-0.25h-8.851l-2.5-3H3.5z"/>
<polygon style="fill:#333333;" points="13.75,15.25 12.25,15.25 12.25,9.895 14.823,9.271 15.177,10.729 13.75,11.074 "/>
<path style="fill:#333333;" d="M11,17.75c-1.517,0-2.75-1.233-2.75-2.75s1.233-2.75,2.75-2.75s2.75,1.233,2.75,2.75
	S12.517,17.75,11,17.75z M11,13.75c-0.689,0-1.25,0.561-1.25,1.25s0.561,1.25,1.25,1.25s1.25-0.561,1.25-1.25S11.689,13.75,11,13.75
	z"/>
</svg>






