<?xml version="1.0" encoding="iso-8859-1"?>
<svg version="1.1" id="&#x56FE;&#x5C42;_1" xmlns="http://www.w3.org/2000/svg" xmlns:xlink="http://www.w3.org/1999/xlink" x="0px"
	 y="0px" viewBox="0 0 24 24" style="enable-background:new 0 0 24 24;" xml:space="preserve">
<path style="fill:#333333;" d="M20.5,22.25h-17c-0.965,0-1.75-0.785-1.75-1.75v-16c0-0.965,0.785-1.75,1.75-1.75h6.351l2.5,3H20.5
	c0.965,0,1.75,0.785,1.75,1.75v13C22.25,21.465,21.465,22.25,20.5,22.25z M3.5,4.25c-0.138,0-0.25,0.112-0.25,0.25v16
	c0,0.138,0.112,0.25,0.25,0.25h17c0.138,0,0.25-0.112,0.25-0.25v-13c0-0.138-0.112-0.25-0.25-0.25h-8.851l-2.5-3H3.5z"/>
<rect x="8.975" y="13.25" style="fill:#333333;" width="6" height="1.5"/>
</svg>






