<?xml version="1.0" encoding="iso-8859-1"?>
<svg version="1.1" id="&#x56FE;&#x5C42;_1" xmlns="http://www.w3.org/2000/svg" xmlns:xlink="http://www.w3.org/1999/xlink" x="0px"
	 y="0px" viewBox="0 0 24 24" style="enable-background:new 0 0 24 24;" xml:space="preserve">
<path style="fill:#333333;" d="M11,21.75H3.5c-0.965,0-1.75-0.785-1.75-1.75V4c0-0.965,0.785-1.75,1.75-1.75h6.351l2.5,3H20.5
	c0.965,0,1.75,0.785,1.75,1.75v4.5h-1.5V7c0-0.138-0.112-0.25-0.25-0.25h-8.851l-2.5-3H3.5C3.362,3.75,3.25,3.862,3.25,4v16
	c0,0.138,0.112,0.25,0.25,0.25H11V21.75z"/>
<path style="fill:#333333;" d="M22.25,21.75h-8.5v-5.5h8.5V21.75z M15.25,20.25h5.5v-2.5h-5.5V20.25z"/>
<path style="fill:#333333;" d="M20.25,17h-1.5v-1.5c0-0.413-0.337-0.75-0.75-0.75s-0.75,0.337-0.75,0.75V17h-1.5v-1.5
	c0-1.24,1.01-2.25,2.25-2.25s2.25,1.01,2.25,2.25V17z"/>
</svg>






