<?xml version="1.0" encoding="iso-8859-1"?>
<svg version="1.1" id="&#x56FE;&#x5C42;_1" xmlns="http://www.w3.org/2000/svg" xmlns:xlink="http://www.w3.org/1999/xlink" x="0px"
	 y="0px" viewBox="0 0 24 24" style="enable-background:new 0 0 24 24;" xml:space="preserve">
<path style="fill:#333333;" d="M11,21.75H3.5c-0.965,0-1.75-0.785-1.75-1.75V4c0-0.965,0.785-1.75,1.75-1.75h6.351l2.5,3H20.5
	c0.965,0,1.75,0.785,1.75,1.75v4.5h-1.5V7c0-0.138-0.112-0.25-0.25-0.25h-8.851l-2.5-3H3.5C3.362,3.75,3.25,3.862,3.25,4v16
	c0,0.138,0.112,0.25,0.25,0.25H11V21.75z"/>
<polygon style="fill:#333333;" points="19.53,20.03 18.47,18.97 20.439,17 18.47,15.03 19.53,13.97 22.561,17 "/>
<polygon style="fill:#333333;" points="14.47,20.03 11.439,17 14.47,13.97 15.53,15.03 13.561,17 15.53,18.97 "/>
</svg>






