<?xml version="1.0" encoding="iso-8859-1"?>
<svg version="1.1" id="&#x56FE;&#x5C42;_1" xmlns="http://www.w3.org/2000/svg" xmlns:xlink="http://www.w3.org/1999/xlink" x="0px"
	 y="0px" viewBox="0 0 24 24" style="enable-background:new 0 0 24 24;" xml:space="preserve">
<path style="fill:#333333;" d="M20.5,21.75h-17c-0.965,0-1.75-0.785-1.75-1.75V4c0-0.965,0.785-1.75,1.75-1.75h6.351l2.5,3H20.5
	c0.965,0,1.75,0.785,1.75,1.75v13C22.25,20.965,21.465,21.75,20.5,21.75z M3.5,3.75C3.362,3.75,3.25,3.862,3.25,4v16
	c0,0.138,0.112,0.25,0.25,0.25h17c0.138,0,0.25-0.112,0.25-0.25V7c0-0.138-0.112-0.25-0.25-0.25h-8.851l-2.5-3H3.5z"/>
<path style="fill:#333333;" d="M12,17.678l-4.465-5.403L9.538,9.75h4.924l2.003,2.524L12,17.678z M9.465,12.255L12,15.322
	l2.535-3.067l-0.798-1.005h-3.475L9.465,12.255z"/>
</svg>






