<?xml version="1.0" encoding="iso-8859-1"?>
<svg version="1.1" id="&#x56FE;&#x5C42;_1" xmlns="http://www.w3.org/2000/svg" xmlns:xlink="http://www.w3.org/1999/xlink" x="0px"
	 y="0px" viewBox="0 0 24 24" style="enable-background:new 0 0 24 24;" xml:space="preserve">
<path style="fill:#333333;" d="M2.728,20.682L1.25,20.5v-16c0-0.965,0.785-1.75,1.75-1.75h6.851l2.5,3h6.398
	c0.965,0,1.75,0.785,1.75,1.75v3.75H5.085L2.728,20.682z M3,4.25c-0.138,0-0.25,0.112-0.25,0.25v9.907L3.915,9.75H19V7.5
	c0-0.138-0.112-0.25-0.25-0.25h-7.101l-2.5-3H3z"/>
<path style="fill:#333333;" d="M20.615,21.25H1.048l2.767-11.5h19.1L20.615,21.25z M2.952,19.75h16.433l1.7-8.5H4.997L2.952,19.75z"
	/>
</svg>






