<?xml version="1.0" encoding="iso-8859-1"?>
<svg version="1.1" id="&#x56FE;&#x5C42;_1" xmlns="http://www.w3.org/2000/svg" xmlns:xlink="http://www.w3.org/1999/xlink" x="0px"
	 y="0px" viewBox="0 0 24 24" style="enable-background:new 0 0 24 24;" xml:space="preserve">
<path style="fill:#333333;" d="M20.5,21.75h-17c-0.965,0-1.75-0.785-1.75-1.75V4c0-0.965,0.785-1.75,1.75-1.75h6.351l2.5,3H20.5
	c0.965,0,1.75,0.785,1.75,1.75v13C22.25,20.965,21.465,21.75,20.5,21.75z M3.5,3.75C3.362,3.75,3.25,3.862,3.25,4v16
	c0,0.138,0.112,0.25,0.25,0.25h17c0.138,0,0.25-0.112,0.25-0.25V7c0-0.138-0.112-0.25-0.25-0.25h-8.851l-2.5-3H3.5z"/>
<path style="fill:#333333;" d="M12.5,17.75c-2.343,0-4.25-1.906-4.25-4.25c0-2.343,1.907-4.25,4.25-4.25
	c2.344,0,4.25,1.907,4.25,4.25C16.75,15.844,14.844,17.75,12.5,17.75z M12.5,10.75c-1.517,0-2.75,1.233-2.75,2.75
	s1.233,2.75,2.75,2.75s2.75-1.233,2.75-2.75S14.017,10.75,12.5,10.75z"/>
<rect x="11.086" y="12.75" transform="matrix(0.7071 -0.7071 0.7071 0.7071 -5.8848 12.7929)" style="fill:#333333;" width="2.828" height="1.5"/>
</svg>






