<?xml version="1.0" encoding="iso-8859-1"?>
<svg version="1.1" id="&#x56FE;&#x5C42;_1" xmlns="http://www.w3.org/2000/svg" xmlns:xlink="http://www.w3.org/1999/xlink" x="0px"
	 y="0px" viewBox="0 0 24 24" style="enable-background:new 0 0 24 24;" xml:space="preserve">
<path style="fill:#333333;" d="M20.5,21.75h-17c-0.965,0-1.75-0.785-1.75-1.75V4c0-0.965,0.785-1.75,1.75-1.75h6.351l2.5,3H20.5
	c0.965,0,1.75,0.785,1.75,1.75v13C22.25,20.965,21.465,21.75,20.5,21.75z M3.5,3.75C3.362,3.75,3.25,3.862,3.25,4v16
	c0,0.138,0.112,0.25,0.25,0.25h17c0.138,0,0.25-0.112,0.25-0.25V7c0-0.138-0.112-0.25-0.25-0.25h-8.851l-2.5-3H3.5z"/>
<path style="fill:#333333;" d="M16.25,17.75h-8.5v-5.5h8.5V17.75z M9.25,16.25h5.5v-2.5h-5.5V16.25z"/>
<path style="fill:#333333;" d="M14.25,13h-1.5v-1.5c0-0.414-0.337-0.75-0.75-0.75c-0.414,0-0.75,0.336-0.75,0.75V13h-1.5v-1.5
	c0-1.241,1.009-2.25,2.25-2.25c1.24,0,2.25,1.009,2.25,2.25V13z"/>
</svg>






