<?xml version="1.0" encoding="iso-8859-1"?>
<svg version="1.1" id="&#x56FE;&#x5C42;_1" xmlns="http://www.w3.org/2000/svg" xmlns:xlink="http://www.w3.org/1999/xlink" x="0px"
	 y="0px" viewBox="0 0 24 24" style="enable-background:new 0 0 24 24;" xml:space="preserve">
<path style="fill:#333333;" d="M11,21.75H3.5c-0.965,0-1.75-0.785-1.75-1.75V4c0-0.965,0.785-1.75,1.75-1.75h6.351l2.5,3H20.5
	c0.965,0,1.75,0.785,1.75,1.75v4.5h-1.5V7c0-0.138-0.112-0.25-0.25-0.25h-8.851l-2.5-3H3.5C3.362,3.75,3.25,3.862,3.25,4v16
	c0,0.138,0.112,0.25,0.25,0.25H11V21.75z"/>
<path style="fill:#333333;" d="M17.5,20.25c-1.517,0-2.75-1.233-2.75-2.75s1.233-2.75,2.75-2.75s2.75,1.233,2.75,2.75
	S19.017,20.25,17.5,20.25z M17.5,16.25c-0.689,0-1.25,0.561-1.25,1.25s0.561,1.25,1.25,1.25s1.25-0.561,1.25-1.25
	S18.189,16.25,17.5,16.25z"/>
<rect x="16.75" y="14" style="fill:#333333;" width="1.5" height="1.5"/>
<rect x="16.75" y="19.5" style="fill:#333333;" width="1.5" height="1.5"/>
<rect x="18.634" y="14.78" transform="matrix(0.7071 -0.7071 0.7071 0.7071 -5.3042 18.2551)" style="fill:#333333;" width="1.5" height="1.5"/>
<rect x="14.634" y="18.78" transform="matrix(0.7071 -0.7071 0.7071 0.7071 -9.3042 16.5983)" style="fill:#333333;" width="1.5" height="1.5"/>
<rect x="14.78" y="14.78" transform="matrix(0.7071 -0.7071 0.7071 0.7071 -6.4328 15.5303)" style="fill:#333333;" width="1.5" height="1.5"/>
<rect x="18.78" y="18.78" transform="matrix(0.7071 -0.7071 0.7071 0.7071 -8.0897 19.5303)" style="fill:#333333;" width="1.5" height="1.5"/>
<rect x="14" y="16.75" style="fill:#333333;" width="1.5" height="1.5"/>
<rect x="19.5" y="16.75" style="fill:#333333;" width="1.5" height="1.5"/>
</svg>






