<?xml version="1.0" encoding="iso-8859-1"?>
<svg version="1.1" id="&#x56FE;&#x5C42;_1" xmlns="http://www.w3.org/2000/svg" xmlns:xlink="http://www.w3.org/1999/xlink" x="0px"
	 y="0px" viewBox="0 0 24 24" style="enable-background:new 0 0 24 24;" xml:space="preserve">
<path style="fill:#333333;" d="M11.417,20.667c-5.101,0-9.25-4.149-9.25-9.25c0-5.101,4.149-9.25,9.25-9.25
	c5.1,0,9.25,4.149,9.25,9.25C20.667,16.518,16.518,20.667,11.417,20.667z M11.417,3.667c-4.273,0-7.75,3.477-7.75,7.75
	c0,4.273,3.477,7.75,7.75,7.75c4.273,0,7.75-3.477,7.75-7.75C19.167,7.144,15.69,3.667,11.417,3.667z"/>
<rect x="18.25" y="16.879" transform="matrix(0.7071 -0.7071 0.7071 0.7071 -7.8701 19)" style="fill:#333333;" width="1.5" height="4.243"/>
<rect x="10.75" y="8.5" style="fill:#333333;" width="1.5" height="7"/>
<rect x="9" y="7.75" style="fill:#333333;" width="5" height="1.5"/>
</svg>






