<?xml version="1.0" encoding="iso-8859-1"?>
<svg version="1.1" id="&#x56FE;&#x5C42;_1" xmlns="http://www.w3.org/2000/svg" xmlns:xlink="http://www.w3.org/1999/xlink" x="0px"
	 y="0px" viewBox="0 0 24 24" style="enable-background:new 0 0 24 24;" xml:space="preserve">
<path style="fill:#333333;" d="M5.182,22.751c-1.108,0-1.917-0.284-2.449-0.859c-1.341-1.447-0.988-2.595-0.773-3.021
	c0.367-0.729,1.161-1.158,1.966-1.07c1.723,0.185,2.319-0.119,2.324-0.123l0.099-0.053c3.734-1.667,3.243-9.789,2.42-13.461
	l1.464-0.328c0.774,3.453,1.695,12.882-3.228,15.139c-0.337,0.194-1.241,0.535-3.24,0.316c-0.166-0.013-0.37,0.064-0.464,0.254
	c-0.154,0.305,0.045,0.801,0.533,1.327c0.367,0.396,1.349,0.483,2.689,0.244l0.132-0.012h3.852c0.589,0,1.989-0.966,3.435-3.626
	c0.747-1.058,2.509-2.775,4.679-2.988c0.535-0.036,1.288-0.287,1.729-0.884c0.418-0.567,0.511-1.371,0.278-2.389
	c-0.627-1.443-1.649-2.89-2.639-4.29c-1.166-1.65-2.269-3.209-2.707-4.719l1.439-0.419c0.369,1.268,1.4,2.727,2.492,4.272
	c1.049,1.483,2.132,3.016,2.818,4.625l0.04,0.12c0.358,1.497,0.186,2.738-0.516,3.689c-0.744,1.01-1.941,1.432-2.813,1.488
	c-1.673,0.165-3.117,1.708-3.531,2.288c-1.452,2.684-3.229,4.332-4.704,4.332H6.719C6.154,22.702,5.642,22.751,5.182,22.751z"/>
</svg>






