<?xml version="1.0" encoding="iso-8859-1"?>
<svg version="1.1" id="&#x56FE;&#x5C42;_1" xmlns="http://www.w3.org/2000/svg" xmlns:xlink="http://www.w3.org/1999/xlink" x="0px"
	 y="0px" viewBox="0 0 24 24" style="enable-background:new 0 0 24 24;" xml:space="preserve">
<rect x="6.25" y="2" style="fill:#333333;" width="1.5" height="20"/>
<path style="fill:#333333;" d="M7,10.75c-1.297,0-3.75-0.679-3.75-3.25v-5h1.5v5c0,1.73,2.158,1.75,2.25,1.75
	C7.228,9.248,9.25,9.184,9.25,7.5v-5h1.5v5C10.75,10.071,8.297,10.75,7,10.75z"/>
<rect x="16.25" y="10" style="fill:#333333;" width="1.5" height="12"/>
<path style="fill:#333333;" d="M17,10.75c-2.067,0-3.75-2.131-3.75-4.75S14.933,1.25,17,1.25S20.75,3.381,20.75,6
	S19.067,10.75,17,10.75z M17,2.75c-1.22,0-2.25,1.488-2.25,3.25S15.78,9.25,17,9.25S19.25,7.762,19.25,6S18.22,2.75,17,2.75z"/>
</svg>






