<?xml version="1.0" encoding="iso-8859-1"?>
<svg version="1.1" id="&#x56FE;&#x5C42;_1" xmlns="http://www.w3.org/2000/svg" xmlns:xlink="http://www.w3.org/1999/xlink" x="0px"
	 y="0px" viewBox="0 0 24 24" style="enable-background:new 0 0 24 24;" xml:space="preserve">
<path style="fill:#333333;" d="M13.5,22.75h-4c-2.966,0-3.75-2.453-3.75-3.75V9.5c0-0.965,0.785-1.75,1.75-1.75h8
	c0.965,0,1.75,0.785,1.75,1.75V19C17.25,20.297,16.466,22.75,13.5,22.75z M7.5,9.25c-0.138,0-0.25,0.112-0.25,0.25V19
	c0.004,0.372,0.133,2.25,2.25,2.25h4c2.117,0,2.246-1.878,2.25-2.254V9.5c0-0.138-0.112-0.25-0.25-0.25H7.5z"/>
<path style="fill:#333333;" d="M14.75,9.25h-6.5v-4h6.5V9.25z M9.75,7.75h3.5v-1h-3.5V7.75z"/>
<path style="fill:#333333;" d="M14.75,6.25h-1.5V5c0-0.939,0.516-1.683,1.18-2.25H12c-1.086,0-2.25,0.703-2.25,1.75V6h-1.5V4.5
	c0-2.007,1.946-3.25,3.75-3.25h5.5l0.207,1.471C16.939,2.942,14.75,3.836,14.75,5V6.25z"/>
</svg>






