<?xml version="1.0" encoding="iso-8859-1"?>
<svg version="1.1" id="&#x56FE;&#x5C42;_1" xmlns="http://www.w3.org/2000/svg" xmlns:xlink="http://www.w3.org/1999/xlink" x="0px"
	 y="0px" viewBox="0 0 24 24" style="enable-background:new 0 0 24 24;" xml:space="preserve">
<polygon style="fill:#333333;" points="12.53,12.53 12,12 11.47,12.53 8.97,10.03 10.03,8.97 11.25,10.189 11.25,4 12.75,4 
	12.75,10.189 13.97,8.97 15.03,10.03 "/>
<polygon style="fill:#333333;" points="12.75,20 11.25,20 11.25,13.811 10.03,15.03 8.97,13.97 11.47,11.47 12,12 12.53,11.47 
	15.03,13.97 13.97,15.03 12.75,13.811 "/>
<path style="fill:#333333;" d="M10,6.75C8.483,6.75,7.25,5.517,7.25,4S8.483,1.25,10,1.25S12.75,2.483,12.75,4S11.517,6.75,10,6.75z
	 M10,2.75C9.311,2.75,8.75,3.311,8.75,4S9.311,5.25,10,5.25S11.25,4.689,11.25,4S10.689,2.75,10,2.75z"/>
<path style="fill:#333333;" d="M4,16.75c-1.517,0-2.75-1.233-2.75-2.75S2.483,11.25,4,11.25S6.75,12.483,6.75,14
	S5.517,16.75,4,16.75z M4,12.75c-0.689,0-1.25,0.561-1.25,1.25S3.311,15.25,4,15.25S5.25,14.689,5.25,14S4.689,12.75,4,12.75z"/>
<rect x="4" y="11.25" style="fill:#333333;" width="16" height="1.5"/>
<path style="fill:#333333;" d="M20,12.75c-1.517,0-2.75-1.233-2.75-2.75S18.483,7.25,20,7.25s2.75,1.233,2.75,2.75
	S21.517,12.75,20,12.75z M20,8.75c-0.689,0-1.25,0.561-1.25,1.25s0.561,1.25,1.25,1.25s1.25-0.561,1.25-1.25S20.689,8.75,20,8.75z"
	/>
<path style="fill:#333333;" d="M14,22.75c-1.517,0-2.75-1.233-2.75-2.75s1.233-2.75,2.75-2.75s2.75,1.233,2.75,2.75
	S15.517,22.75,14,22.75z M14,18.75c-0.689,0-1.25,0.561-1.25,1.25s0.561,1.25,1.25,1.25s1.25-0.561,1.25-1.25S14.689,18.75,14,18.75
	z"/>
</svg>






