<?xml version="1.0" encoding="iso-8859-1"?>
<svg version="1.1" id="&#x56FE;&#x5C42;_1" xmlns="http://www.w3.org/2000/svg" xmlns:xlink="http://www.w3.org/1999/xlink" x="0px"
	 y="0px" viewBox="0 0 24 24" style="enable-background:new 0 0 24 24;" xml:space="preserve">
<polygon style="fill:#333333;" points="10,20.75 3.25,20.75 3.25,14 4.75,14 4.75,19.25 10,19.25 "/>
<polygon style="fill:#333333;" points="20.75,20.75 14,20.75 14,19.25 19.25,19.25 19.25,14 20.75,14 "/>
<polygon style="fill:#333333;" points="20.75,10 19.25,10 19.25,4.75 14,4.75 14,3.25 20.75,3.25 "/>
<polygon style="fill:#333333;" points="4.75,10 3.25,10 3.25,3.25 10,3.25 10,4.75 4.75,4.75 "/>
<path style="fill:#333333;" d="M22.75,14.75h-5.5v-5.5h5.5V14.75z M18.75,13.25h2.5v-2.5h-2.5V13.25z"/>
<path style="fill:#333333;" d="M6.75,14.75h-5.5v-5.5h5.5V14.75z M2.75,13.25h2.5v-2.5h-2.5V13.25z"/>
<path style="fill:#333333;" d="M14.75,22.75h-5.5v-5.5h5.5V22.75z M10.75,21.25h2.5v-2.5h-2.5V21.25z"/>
<path style="fill:#333333;" d="M14.75,6.75h-5.5v-5.5h5.5V6.75z M10.75,5.25h2.5v-2.5h-2.5V5.25z"/>
<rect x="11.25" y="9" style="fill:#333333;" width="1.5" height="6"/>
<rect x="9" y="11.25" style="fill:#333333;" width="6" height="1.5"/>
<rect x="16.25" y="2.757" transform="matrix(0.7071 -0.7071 0.7071 0.7071 0.0294 14.0711)" style="fill:#333333;" width="1.5" height="8.485"/>
<rect x="2.757" y="6.25" transform="matrix(0.7071 -0.7071 0.7071 0.7071 -2.8995 7)" style="fill:#333333;" width="8.485" height="1.5"/>
<rect x="6.25" y="12.757" transform="matrix(0.7071 -0.7071 0.7071 0.7071 -9.9706 9.9289)" style="fill:#333333;" width="1.5" height="8.485"/>
<rect x="13.18" y="16.25" transform="matrix(0.6758 -0.737 0.737 0.6758 -6.9381 18.2247)" style="fill:#333333;" width="8.139" height="1.5"/>
</svg>






