<?xml version="1.0" encoding="iso-8859-1"?>
<svg version="1.1" id="&#x56FE;&#x5C42;_1" xmlns="http://www.w3.org/2000/svg" xmlns:xlink="http://www.w3.org/1999/xlink" x="0px"
	 y="0px" viewBox="0 0 24 24" style="enable-background:new 0 0 24 24;" xml:space="preserve">
<path style="fill:#333333;" d="M5,8.75C2.932,8.75,1.25,7.068,1.25,5S2.932,1.25,5,1.25S8.75,2.932,8.75,5S7.068,8.75,5,8.75z
	 M5,2.75C3.759,2.75,2.75,3.759,2.75,5S3.759,7.25,5,7.25S7.25,6.241,7.25,5S6.241,2.75,5,2.75z"/>
<path style="fill:#333333;" d="M2.935,10.149l-1.47-0.299c0.201-0.99,0.542-1.947,1.013-2.844l1.328,0.697
	C3.4,8.475,3.107,9.298,2.935,10.149z"/>
<path style="fill:#333333;" d="M7.704,3.806L7.007,2.478C7.903,2.006,8.86,1.666,9.851,1.465l0.299,1.47
	C9.298,3.107,8.475,3.4,7.704,3.806z"/>
<path style="fill:#333333;" d="M19,8.75c-2.067,0-3.75-1.682-3.75-3.75S16.933,1.25,19,1.25S22.75,2.932,22.75,5
	S21.067,8.75,19,8.75z M19,2.75c-1.24,0-2.25,1.009-2.25,2.25S17.76,7.25,19,7.25S21.25,6.241,21.25,5S20.24,2.75,19,2.75z"/>
<path style="fill:#333333;" d="M16.296,3.806c-0.771-0.405-1.593-0.698-2.445-0.871l0.299-1.47c0.991,0.201,1.948,0.542,2.844,1.013
	L16.296,3.806z"/>
<path style="fill:#333333;" d="M21.064,10.149C20.893,9.3,20.6,8.477,20.194,7.704l1.328-0.697c0.472,0.899,0.812,1.856,1.013,2.844
	L21.064,10.149z"/>
<path style="fill:#333333;" d="M19,22.75c-2.067,0-3.75-1.683-3.75-3.75s1.683-3.75,3.75-3.75s3.75,1.683,3.75,3.75
	S21.067,22.75,19,22.75z M19,16.75c-1.24,0-2.25,1.01-2.25,2.25s1.01,2.25,2.25,2.25s2.25-1.01,2.25-2.25S20.24,16.75,19,16.75z"/>
<path style="fill:#333333;" d="M21.522,16.993l-1.328-0.697c0.405-0.772,0.698-1.595,0.87-2.444l1.471,0.297
	C22.335,15.138,21.994,16.095,21.522,16.993z"/>
<path style="fill:#333333;" d="M14.148,22.535l-0.297-1.471c0.85-0.172,1.672-0.465,2.444-0.87l0.697,1.328
	C16.095,21.994,15.138,22.335,14.148,22.535z"/>
<path style="fill:#333333;" d="M5,22.75c-2.068,0-3.75-1.683-3.75-3.75S2.932,15.25,5,15.25S8.75,16.933,8.75,19
	S7.068,22.75,5,22.75z M5,16.75c-1.241,0-2.25,1.01-2.25,2.25S3.759,21.25,5,21.25S7.25,20.24,7.25,19S6.241,16.75,5,16.75z"/>
<path style="fill:#333333;" d="M9.851,22.535c-0.988-0.2-1.945-0.541-2.844-1.013l0.697-1.328c0.773,0.405,1.596,0.698,2.445,0.87
	L9.851,22.535z"/>
<path style="fill:#333333;" d="M2.478,16.993c-0.471-0.896-0.812-1.853-1.013-2.844l1.47-0.299c0.173,0.853,0.466,1.675,0.871,2.445
	L2.478,16.993z"/>
<polygon style="fill:#333333;" points="12.75,15 11.25,15 11.25,12.75 9,12.75 9,11.25 11.25,11.25 11.25,9 12.75,9 12.75,11.25 
	15,11.25 15,12.75 12.75,12.75 "/>
</svg>






