<?xml version="1.0" encoding="iso-8859-1"?>
<svg version="1.1" id="&#x56FE;&#x5C42;_1" xmlns="http://www.w3.org/2000/svg" xmlns:xlink="http://www.w3.org/1999/xlink" x="0px"
	 y="0px" viewBox="0 0 24 24" style="enable-background:new 0 0 24 24;" xml:space="preserve">
<path style="fill:#333333;" d="M12.5,22.75c-4.033,0-6.114-1.301-6.671-2.415l-0.038-0.091l-2.526-7.347L2.286,8.001
	C2.262,7.887,2.25,7.766,2.25,7.644c0-0.722,0.413-1.277,1.028-1.46C3.893,6,4.542,6.238,4.894,6.776
	c0.046,0.07,0.09,0.149,0.127,0.23l0.802,1.738L5.321,5.074C5.253,4.571,5.383,4.072,5.687,3.668c0.243-0.325,0.6-0.536,1.003-0.593
	C7.088,3.019,7.493,3.12,7.818,3.363c0.394,0.296,0.637,0.629,0.77,1.014l0.921,2.662L9.291,3.657
	c-0.039-0.602,0.184-1.192,0.61-1.619c0.595-0.595,1.539-0.647,2.196-0.122l0.17,0.136c0.438,0.351,0.728,0.848,0.815,1.4
	l0.544,3.369l0.316-3.263c0.058-0.601,0.362-1.162,0.834-1.54l0.104-0.083C15.549,1.4,16.512,1.452,17.12,2.06
	c0.406,0.405,0.63,0.945,0.63,1.52v6.376c0,0,0,0,0,0c0.008,0,0.258,1.091,0.987,1.333c0.431,0.144,0.984,0.573,2.113,2.726
	c0.481,0.919,0.458,2.025-0.062,2.959l-1.975,3.521C18.733,20.586,16.791,22.75,12.5,22.75z M7.188,19.696
	c0.232,0.375,1.654,1.554,5.312,1.554c3.278,0,4.86-1.417,5.14-1.696l1.839-3.309c0.272-0.491,0.289-1.064,0.044-1.534
	c-0.92-1.754-1.299-2.014-1.314-2.023c-1.427-0.47-1.86-2.153-1.933-2.486L16.25,9.956V3.58c0-0.173-0.067-0.336-0.19-0.458
	c-0.065-0.066-0.17-0.071-0.242-0.014L15.713,3.19c-0.157,0.125-0.259,0.312-0.278,0.513l-0.664,6.862
	c-0.05,0.532-0.492,0.935-1.028,0.935c-0.513,0-0.942-0.367-1.021-0.873l-1.119-6.936c-0.03-0.185-0.126-0.35-0.272-0.467
	l-0.17-0.136c-0.059-0.047-0.145-0.043-0.198,0.011c-0.122,0.122-0.185,0.29-0.174,0.461l0.441,6.842
	c0.019,0.282-0.082,0.564-0.276,0.771c-0.495,0.527-1.49,0.316-1.727-0.367L7.17,4.867C7.135,4.766,7.071,4.678,6.985,4.614
	l-0.1-0.045C6.821,4.656,6.793,4.763,6.808,4.872l1.017,7.432l-0.56,0.211c-0.677,0.252-1.367-0.03-1.64-0.622L3.805,7.952
	l0.92,4.602L7.188,19.696z M9.732,10.499c0,0,0,0.001,0,0.002V10.499z M13.278,10.42c0,0.001-0.001,0.002-0.001,0.002L13.278,10.42z
	 M14.201,10.387l0.001,0.005C14.202,10.39,14.202,10.389,14.201,10.387z"/>
</svg>






