<?xml version="1.0" encoding="iso-8859-1"?>
<svg version="1.1" id="&#x56FE;&#x5C42;_1" xmlns="http://www.w3.org/2000/svg" xmlns:xlink="http://www.w3.org/1999/xlink" x="0px"
	 y="0px" viewBox="0 0 24 24" style="enable-background:new 0 0 24 24;" xml:space="preserve">
<path style="fill:#333333;" d="M20,21.75H4c-0.965,0-1.75-0.785-1.75-1.75V4c0-0.965,0.785-1.75,1.75-1.75h16
	c0.965,0,1.75,0.785,1.75,1.75v16C21.75,20.965,20.965,21.75,20,21.75z M4,3.75C3.862,3.75,3.75,3.862,3.75,4v16
	c0,0.138,0.112,0.25,0.25,0.25h16c0.138,0,0.25-0.112,0.25-0.25V4c0-0.138-0.112-0.25-0.25-0.25H4z"/>
<rect x="2.144" y="4.5" transform="matrix(0.7472 -0.6646 0.6646 0.7472 -2.091 5.0026)" style="fill:#333333;" width="6.773" height="1.5"/>
<rect x="1.273" y="6.75" transform="matrix(0.7436 -0.6687 0.6687 0.7436 -2.9634 7.2731)" style="fill:#333333;" width="13.454" height="1.5"/>
<rect x="0.344" y="9" transform="matrix(0.7317 -0.6816 0.6816 0.7317 -3.8958 9.6021)" style="fill:#333333;" width="19.812" height="1.5"/>
<rect x="1.827" y="17.25" transform="matrix(0.7346 -0.6786 0.6786 0.7346 -10.5549 9.019)" style="fill:#333333;" width="8.846" height="1.5"/>
<rect x="13.561" y="6.963" transform="matrix(0.7349 -0.6782 0.6782 0.7349 -0.575 13.9555)" style="fill:#333333;" width="8" height="1.5"/>
<rect x="8.75" y="10.5" style="fill:#333333;" width="1.5" height="10.5"/>
<rect x="9.5" y="9.75" style="fill:#333333;" width="11.5" height="1.5"/>
</svg>






