<?xml version="1.0" encoding="iso-8859-1"?>
<svg version="1.1" id="&#x56FE;&#x5C42;_1" xmlns="http://www.w3.org/2000/svg" xmlns:xlink="http://www.w3.org/1999/xlink" x="0px"
	 y="0px" viewBox="0 0 24 24" style="enable-background:new 0 0 24 24;" xml:space="preserve">
<path style="fill:#333333;" d="M20,21.75H4c-0.965,0-1.75-0.785-1.75-1.75V4c0-0.965,0.785-1.75,1.75-1.75h16
	c0.965,0,1.75,0.785,1.75,1.75v16C21.75,20.965,20.965,21.75,20,21.75z M4,3.75C3.862,3.75,3.75,3.862,3.75,4v16
	c0,0.138,0.112,0.25,0.25,0.25h16c0.138,0,0.25-0.112,0.25-0.25V4c0-0.138-0.112-0.25-0.25-0.25H4z"/>
<rect x="2.144" y="4.5" transform="matrix(0.7472 -0.6646 0.6646 0.7472 -2.091 5.0026)" style="fill:#333333;" width="6.773" height="1.5"/>
<rect x="1.827" y="8.25" transform="matrix(0.7347 -0.6784 0.6784 0.7347 -4.4473 6.6276)" style="fill:#333333;" width="8.846" height="1.5"/>
<rect x="1.827" y="12.75" transform="matrix(0.7346 -0.6786 0.6786 0.7346 -7.5014 7.8245)" style="fill:#333333;" width="8.846" height="1.5"/>
<rect x="1.827" y="17.25" transform="matrix(0.7346 -0.6786 0.6786 0.7346 -10.5549 9.019)" style="fill:#333333;" width="8.846" height="1.5"/>
<rect x="8.75" y="3" style="fill:#333333;" width="1.5" height="18"/>
</svg>






