<?xml version="1.0" encoding="iso-8859-1"?>
<svg version="1.1" id="&#x56FE;&#x5C42;_1" xmlns="http://www.w3.org/2000/svg" xmlns:xlink="http://www.w3.org/1999/xlink" x="0px"
	 y="0px" viewBox="0 0 24 24" style="enable-background:new 0 0 24 24;" xml:space="preserve">
<path style="fill:#333333;" d="M11.25,11h-1.5V6c0-0.138-0.112-0.25-0.25-0.25H8C7.862,5.75,7.75,5.862,7.75,6v4.5h-1.5V6
	c0-0.965,0.785-1.75,1.75-1.75h1.5c0.965,0,1.75,0.785,1.75,1.75V11z"/>
<path style="fill:#333333;" d="M14.75,11h-1.5V7c0-0.965,0.785-1.75,1.75-1.75h1.5c0.965,0,1.75,0.785,1.75,1.75v3.5h-1.5V7
	c0-0.138-0.112-0.25-0.25-0.25H15c-0.138,0-0.25,0.112-0.25,0.25V11z"/>
<path style="fill:#333333;" d="M14.75,11h-1.5V3c0-0.138-0.112-0.25-0.25-0.25h-1.5c-0.138,0-0.25,0.112-0.25,0.25v8h-1.5V3
	c0-0.965,0.785-1.75,1.75-1.75H13c0.965,0,1.75,0.785,1.75,1.75V11z"/>
<path style="fill:#333333;" d="M18.715,22.75H5.285L2.763,9.137l1.172-0.748C3.968,8.413,7.318,10.75,12,10.75
	c4.705,0,8.031-2.337,8.064-2.36l1.173,0.747L18.715,22.75z M6.533,21.25h10.934l1.999-10.786c-1.54,0.771-4.188,1.786-7.466,1.786
	s-5.926-1.014-7.466-1.786L6.533,21.25z"/>
<path style="fill:#333333;" d="M12,18.75c-2.138,0-3.75-0.968-3.75-2.25s1.612-2.25,3.75-2.25s3.75,0.968,3.75,2.25
	S14.138,18.75,12,18.75z M12,15.75c-1.452,0-2.25,0.563-2.25,0.75s0.798,0.75,2.25,0.75s2.25-0.563,2.25-0.75S13.452,15.75,12,15.75
	z"/>
</svg>






