<?xml version="1.0" encoding="iso-8859-1"?>
<svg version="1.1" id="&#x56FE;&#x5C42;_1" xmlns="http://www.w3.org/2000/svg" xmlns:xlink="http://www.w3.org/1999/xlink" x="0px"
	 y="0px" viewBox="0 0 24 24" style="enable-background:new 0 0 24 24;" xml:space="preserve">
<path style="fill:#333333;" d="M11.75,20.75c-5.79,0-10.5-3.347-10.5-7.46c0-0.933,0.233-1.833,0.693-2.686
	c-0.098-0.129-0.186-0.266-0.265-0.409c-1.068-1.949-0.044-4.686,2.283-6.1c1.289-0.784,2.759-1.039,4.033-0.697
	c0.973,0.26,1.759,0.86,2.214,1.689l0,0c0.138,0.251,0.243,0.517,0.314,0.794c0.974-0.08,1.975-0.065,2.942,0.048
	c0.072-0.295,0.181-0.577,0.327-0.842c0.454-0.829,1.24-1.429,2.214-1.689c1.271-0.342,2.742-0.087,4.032,0.697
	c2.327,1.415,3.351,4.151,2.282,6.1c-0.158,0.289-0.353,0.547-0.582,0.774c0.34,0.746,0.512,1.523,0.512,2.321
	C22.25,17.403,17.54,20.75,11.75,20.75z M6.837,4.748c-0.686,0-1.417,0.216-2.096,0.628C3.118,6.363,2.318,8.24,2.995,9.474
	c0.1,0.182,0.228,0.344,0.381,0.484l0.477,0.433l-0.355,0.537C3.002,11.676,2.75,12.471,2.75,13.29c0,3.286,4.037,5.96,9,5.96
	c4.963,0,9-2.674,9-5.96c0-0.734-0.204-1.454-0.605-2.137l-0.363-0.617l0.6-0.391c0.265-0.172,0.475-0.398,0.625-0.671
	c0.676-1.234-0.124-3.11-1.747-4.098c-0.942-0.572-1.984-0.766-2.865-0.53c-0.406,0.109-0.959,0.364-1.287,0.961
	c-0.159,0.291-0.241,0.619-0.244,0.978l-0.008,0.882l-0.869-0.149c-1.297-0.222-2.691-0.246-4-0.072l-0.821,0.11L9.137,6.728
	c-0.011-0.336-0.093-0.646-0.244-0.92v0C8.565,5.21,8.013,4.955,7.607,4.846C7.361,4.781,7.103,4.748,6.837,4.748z"/>
<circle style="fill:#333333;" cx="6" cy="8.5" r="1"/>
<circle style="fill:#333333;" cx="10.078" cy="14.288" r="1"/>
<circle style="fill:#333333;" cx="14.078" cy="14.288" r="1"/>
<circle style="fill:#333333;" cx="18" cy="8.5" r="1"/>
</svg>






