<?xml version="1.0" encoding="iso-8859-1"?>
<svg version="1.1" id="&#x56FE;&#x5C42;_1" xmlns="http://www.w3.org/2000/svg" xmlns:xlink="http://www.w3.org/1999/xlink" x="0px"
	 y="0px" viewBox="0 0 24 24" style="enable-background:new 0 0 24 24;" xml:space="preserve">
<path style="fill:#333333;" d="M13.574,18.746l-0.148-1.492c3.074-0.307,3.688-1.906,3.81-2.58c0.134-0.739,0.573-1.359,1.177-1.66
	c1.697-0.846,1.862-2.113,1.838-2.994c0.024-2.829-2.614-4.391-4.282-4.717c-0.577-0.113-1.088-0.45-1.402-0.924
	C13.613,2.935,12.16,2.75,11,2.75c-3.81,0-4.566,3.225-4.707,4.214C6.206,7.569,5.857,8.106,5.335,8.438
	C3.864,9.376,3.75,10.997,3.75,11.471c0,1.665,0.63,2.705,1.984,3.272c1.21,0.508,2.695,0.507,3.683,0.507L9.5,16l-0.083,0.75
	c-1.014-0.006-2.774,0.002-4.263-0.623c-1.9-0.797-2.904-2.407-2.904-4.656c0-0.667,0.165-2.95,2.28-4.297
	C4.68,7.078,4.784,6.92,4.808,6.751C5.17,4.214,7.009,1.25,11,1.25c0.816,0,3.299,0,4.817,2.302
	c0.092,0.139,0.256,0.243,0.438,0.279c2.141,0.418,5.526,2.465,5.494,6.175c0.054,1.969-0.844,3.441-2.669,4.349
	c-0.176,0.088-0.321,0.317-0.369,0.585C18.57,15.727,17.78,18.327,13.574,18.746z M9.5,16.75V16V16.75z"/>
<path style="fill:#333333;" d="M14.533,22.75h-7.8l0.609-1.11c2.102-3.832,2.054-6.108,1.644-7.345
	c-0.371-1.116-1.087-1.517-1.297-1.612l0.205-1.425l7-1l0.715,1.181c-3.072,4.269-1.649,8.489-0.468,10.123L14.533,22.75z
	 M9.23,21.25h4.004c-1-2.114-1.663-5.622,0.279-9.28l-3.775,0.54c0.281,0.382,0.51,0.825,0.671,1.312
	C10.869,15.206,10.998,17.583,9.23,21.25z"/>
</svg>






