<?xml version="1.0" encoding="utf-8"?>
<svg version="1.1" id="&#x56FE;&#x5C42;_1" xmlns="http://www.w3.org/2000/svg" xmlns:xlink="http://www.w3.org/1999/xlink" x="0px" y="0px"
	 viewBox="0 0 24 24" style="enable-background:new 0 0 24 24;" xml:space="preserve">
<style type="text/css">
	.st0{fill:#333333;}
</style>
<path class="st0" d="M17,19.2H4c-1.2,0-2.2-1-2.2-2.2V4c0-1.2,1-2.2,2.2-2.2h13c1.2,0,2.2,1,2.2,2.2v13C19.2,18.2,18.2,19.2,17,19.2
	z M4,3.2C3.6,3.2,3.2,3.6,3.2,4v13c0,0.4,0.3,0.8,0.8,0.8h13c0.4,0,0.8-0.3,0.8-0.8V4c0-0.4-0.3-0.8-0.8-0.8H4z"/>
<path class="st0" d="M21,22.8H6.5v-1.5H21c0.1,0,0.2-0.1,0.2-0.2V6.5h1.5V21C22.8,22,22,22.8,21,22.8z"/>
<polygon class="st0" points="9.5,14.1 6,10.8 7,9.7 9.5,12 14,7.3 15,8.4 "/>
</svg>





