<?xml version="1.0" encoding="iso-8859-1"?>
<svg version="1.1" id="&#x56FE;&#x5C42;_1" xmlns="http://www.w3.org/2000/svg" xmlns:xlink="http://www.w3.org/1999/xlink" x="0px"
	 y="0px" viewBox="0 0 24 24" style="enable-background:new 0 0 24 24;" xml:space="preserve">
<path style="fill:#333333;" d="M8,20.75H3c-0.965,0-1.75-0.785-1.75-1.75V5c0-0.965,0.785-1.75,1.75-1.75h18
	c0.965,0,1.75,0.785,1.75,1.75v3h-1.5V5c0-0.138-0.112-0.25-0.25-0.25H3C2.862,4.75,2.75,4.862,2.75,5v14
	c0,0.138,0.112,0.25,0.25,0.25h5V20.75z"/>
<path style="fill:#333333;" d="M21,20.75h-8c-0.965,0-1.75-0.785-1.75-1.75v-6c0-0.965,0.785-1.75,1.75-1.75h8
	c0.965,0,1.75,0.785,1.75,1.75v6C22.75,19.965,21.965,20.75,21,20.75z M13,12.75c-0.138,0-0.25,0.112-0.25,0.25v6
	c0,0.138,0.112,0.25,0.25,0.25h8c0.138,0,0.25-0.112,0.25-0.25v-6c0-0.138-0.112-0.25-0.25-0.25H13z"/>
</svg>






