<?xml version="1.0" encoding="iso-8859-1"?>
<svg version="1.1" id="&#x56FE;&#x5C42;_1" xmlns="http://www.w3.org/2000/svg" xmlns:xlink="http://www.w3.org/1999/xlink" x="0px"
	 y="0px" viewBox="0 0 24 24" style="enable-background:new 0 0 24 24;" xml:space="preserve">
<path style="fill:#333333;" d="M7,8.25C3.722,8.25,1.25,6.853,1.25,5S3.722,1.75,7,1.75S12.75,3.147,12.75,5S10.278,8.25,7,8.25z
	 M7,3.25C4.406,3.25,2.75,4.287,2.75,5S4.406,6.75,7,6.75S11.25,5.713,11.25,5S9.594,3.25,7,3.25z"/>
<path style="fill:#333333;" d="M7,11.75c-3.278,0-5.75-1.397-5.75-3.25V5h1.5v3.5c0,0.713,1.656,1.75,4.25,1.75
	s4.25-1.037,4.25-1.75V5h1.5v3.5C12.75,10.353,10.278,11.75,7,11.75z"/>
<path style="fill:#333333;" d="M7,15.25c-3.278,0-5.75-1.397-5.75-3.25V8.5h1.5V12c0,0.714,1.656,1.75,4.25,1.75
	s4.25-1.036,4.25-1.75V8.5h1.5V12C12.75,13.853,10.278,15.25,7,15.25z"/>
<path style="fill:#333333;" d="M7,18.75c-3.278,0-5.75-1.397-5.75-3.25V12h1.5v3.5c0,0.714,1.656,1.75,4.25,1.75
	s4.25-1.036,4.25-1.75V12h1.5v3.5C12.75,17.353,10.278,18.75,7,18.75z"/>
<path style="fill:#333333;" d="M7,22.25c-3.278,0-5.75-1.397-5.75-3.25v-3.5h1.5V19c0,0.714,1.656,1.75,4.25,1.75
	s4.25-1.036,4.25-1.75v-3.5h1.5V19C12.75,20.853,10.278,22.25,7,22.25z"/>
<path style="fill:#333333;" d="M17,15.25c-3.278,0-5.75-1.397-5.75-3.25c0-1.853,2.472-3.25,5.75-3.25s5.75,1.397,5.75,3.25
	C22.75,13.853,20.278,15.25,17,15.25z M17,10.25c-2.595,0-4.25,1.037-4.25,1.75c0,0.714,1.655,1.75,4.25,1.75s4.25-1.036,4.25-1.75
	C21.25,11.287,19.595,10.25,17,10.25z"/>
<path style="fill:#333333;" d="M17,18.75c-3.278,0-5.75-1.397-5.75-3.25V12h1.5v3.5c0,0.714,1.655,1.75,4.25,1.75
	s4.25-1.036,4.25-1.75V12h1.5v3.5C22.75,17.353,20.278,18.75,17,18.75z"/>
<path style="fill:#333333;" d="M17,22.25c-3.278,0-5.75-1.397-5.75-3.25v-3.5h1.5V19c0,0.714,1.655,1.75,4.25,1.75
	s4.25-1.036,4.25-1.75v-3.5h1.5V19C22.75,20.853,20.278,22.25,17,22.25z"/>
</svg>






