<?xml version="1.0" encoding="iso-8859-1"?>
<svg version="1.1" id="&#x56FE;&#x5C42;_1" xmlns="http://www.w3.org/2000/svg" xmlns:xlink="http://www.w3.org/1999/xlink" x="0px"
	 y="0px" viewBox="0 0 24 24" style="enable-background:new 0 0 24 24;" xml:space="preserve">
<path style="fill:#333333;" d="M16.045,22.75h-8.09l-0.169-0.518c-0.085-0.264-2.093-6.496-1.529-10.341l0,0
	c0.632-4.304,4.978-9.642,5.163-9.867L12,1.317l0.58,0.707c0.185,0.225,4.53,5.562,5.163,9.867
	c0.563,3.845-1.443,10.078-1.529,10.341L16.045,22.75z M9.054,21.25h5.891c0.461-1.554,1.737-6.242,1.312-9.142
	C15.815,9.093,13.187,5.307,12,3.725c-1.186,1.583-3.816,5.373-4.258,8.385C7.316,15.008,8.593,19.696,9.054,21.25z"/>
<rect x="9" y="6.25" style="fill:#333333;" width="6" height="1.5"/>
<rect x="7.5" y="9.25" style="fill:#333333;" width="9" height="1.5"/>
<rect x="7" y="12.25" style="fill:#333333;" width="10" height="1.5"/>
<rect x="7.5" y="15.25" style="fill:#333333;" width="9" height="1.5"/>
<rect x="8" y="18.25" style="fill:#333333;" width="8" height="1.5"/>
<rect x="2" y="21.25" style="fill:#333333;" width="20" height="1.5"/>
<rect x="11.25" y="2" style="fill:#333333;" width="1.5" height="1"/>
</svg>






