<?xml version="1.0" encoding="iso-8859-1"?>
<svg version="1.1" id="&#x56FE;&#x5C42;_1" xmlns="http://www.w3.org/2000/svg" xmlns:xlink="http://www.w3.org/1999/xlink" x="0px"
	 y="0px" viewBox="0 0 24 24" style="enable-background:new 0 0 24 24;" xml:space="preserve">
<rect x="2" y="21.25" style="fill:#333333;" width="20" height="1.5"/>
<path style="fill:#333333;" d="M12.25,5.75c-1.759,0-7.5-0.162-7.5-2.25s5.741-2.25,7.5-2.25c1.76,0,7.5,0.162,7.5,2.25
	S14.01,5.75,12.25,5.75z M6.538,3.5c0.783,0.33,2.75,0.75,5.712,0.75c2.963,0,4.93-0.42,5.713-0.75
	c-0.783-0.33-2.75-0.75-5.713-0.75C9.288,2.75,7.321,3.17,6.538,3.5z"/>
<path style="fill:#333333;" d="M10.739,22.125l-1.479-0.25c0.01-0.061,1.008-6.046,0.496-9.772c-0.4-2.913-2.416-7.241-2.436-7.285
	l1.358-0.636c0.087,0.186,2.133,4.581,2.564,7.716C11.787,15.854,10.783,21.871,10.739,22.125z"/>
<path style="fill:#333333;" d="M13.259,22.111c-0.039-0.254-0.932-6.264-0.389-10.213c0.431-3.135,2.478-7.53,2.564-7.716
	l1.358,0.636c-0.021,0.043-2.037,4.375-2.437,7.284c-0.514,3.734,0.376,9.727,0.385,9.787L13.259,22.111z"/>
</svg>






