<?xml version="1.0" encoding="iso-8859-1"?>
<svg version="1.1" id="&#x56FE;&#x5C42;_1" xmlns="http://www.w3.org/2000/svg" xmlns:xlink="http://www.w3.org/1999/xlink" x="0px"
	 y="0px" viewBox="0 0 24 24" style="enable-background:new 0 0 24 24;" xml:space="preserve">
<path style="fill:#333333;" d="M14.75,22.75h-5.5V3.689L12,0.939l2.75,2.75V22.75z M10.75,21.25h2.5V4.311L12,3.061l-1.25,1.25
	V21.25z"/>
<path style="fill:#333333;" d="M10.75,22.75h-5.5V9.689l4.22-4.22L10.75,6V22.75z M6.75,21.25h2.5V7.811l-2.5,2.5V21.25z"/>
<path style="fill:#333333;" d="M6.75,22.75h-5.5v-5.59l4.256-3.725L6.75,14V22.75z M2.75,21.25h2.5v-5.598l-2.5,2.188V21.25z"/>
<path style="fill:#333333;" d="M18.75,22.75h-5.5V6l1.28-0.53l4.22,4.22V22.75z M14.75,21.25h2.5V10.311l-2.5-2.5V21.25z"/>
<path style="fill:#333333;" d="M22.75,22.75h-5.5V14l1.223-0.582l4.277,3.475V22.75z M18.75,21.25h2.5v-3.643l-2.5-2.031V21.25z"/>
</svg>






