<?xml version="1.0" encoding="iso-8859-1"?>
<svg version="1.1" id="&#x56FE;&#x5C42;_1" xmlns="http://www.w3.org/2000/svg" xmlns:xlink="http://www.w3.org/1999/xlink" x="0px"
	 y="0px" viewBox="0 0 24 24" style="enable-background:new 0 0 24 24;" xml:space="preserve">
<path style="fill:#333333;" d="M12.25,23.25c-6.065,0-11-4.935-11-11s4.935-11,11-11c2.803,0,5.474,1.055,7.519,2.971l0.566,0.531
	l-7.276,7.252l7.454,7.546l-0.533,0.526C17.907,22.123,15.163,23.25,12.25,23.25z M12.25,2.75c-5.238,0-9.5,4.262-9.5,9.5
	s4.262,9.5,9.5,9.5c2.264,0,4.41-0.788,6.121-2.234l-7.429-7.52l7.212-7.189C16.479,3.476,14.41,2.75,12.25,2.75z"/>
<path style="fill:#333333;" d="M20,14.75c-1.517,0-2.75-1.233-2.75-2.75S18.483,9.25,20,9.25s2.75,1.233,2.75,2.75
	S21.517,14.75,20,14.75z M20,10.75c-0.689,0-1.25,0.561-1.25,1.25s0.561,1.25,1.25,1.25s1.25-0.561,1.25-1.25S20.689,10.75,20,10.75
	z"/>
<rect x="7.75" y="6.5" style="fill:#333333;" width="1.5" height="4"/>
<rect x="6.5" y="7.75" style="fill:#333333;" width="4" height="1.5"/>
</svg>






