<?xml version="1.0" encoding="iso-8859-1"?>
<svg version="1.1" id="&#x56FE;&#x5C42;_1" xmlns="http://www.w3.org/2000/svg" xmlns:xlink="http://www.w3.org/1999/xlink" x="0px"
	 y="0px" viewBox="0 0 24 24" style="enable-background:new 0 0 24 24;" xml:space="preserve">
<path style="fill:#333333;" d="M15,21.25H9c-4.273,0-7.75-3.477-7.75-7.75S4.727,5.75,9,5.75h6c4.273,0,7.75,3.477,7.75,7.75
	S19.273,21.25,15,21.25z M9,7.25c-3.446,0-6.25,2.804-6.25,6.25S5.554,19.75,9,19.75h6c3.446,0,6.25-2.804,6.25-6.25
	S18.446,7.25,15,7.25H9z"/>
<circle style="fill:#333333;" cx="15.5" cy="11" r="1"/>
<circle style="fill:#333333;" cx="17.5" cy="13.5" r="1"/>
<rect x="6" y="12.75" style="fill:#333333;" width="5" height="1.5"/>
<rect x="11.25" y="3.5" style="fill:#333333;" width="1.5" height="3"/>
<rect x="7.75" y="11" style="fill:#333333;" width="1.5" height="5"/>
</svg>






