<?xml version="1.0" encoding="iso-8859-1"?>
<svg version="1.1" id="&#x56FE;&#x5C42;_1" xmlns="http://www.w3.org/2000/svg" xmlns:xlink="http://www.w3.org/1999/xlink" x="0px"
	 y="0px" viewBox="0 0 24 24" style="enable-background:new 0 0 24 24;" xml:space="preserve">
<path style="fill:#333333;" d="M19,21.75H5c-2.068,0-3.75-1.683-3.75-3.75S2.932,14.25,5,14.25h14c2.067,0,3.75,1.683,3.75,3.75
	S21.067,21.75,19,21.75z M5,15.75c-1.241,0-2.25,1.01-2.25,2.25S3.759,20.25,5,20.25h14c1.24,0,2.25-1.01,2.25-2.25
	s-1.01-2.25-2.25-2.25H5z"/>
<path style="fill:#333333;" d="M18,11.75c-2.619,0-4.75-2.131-4.75-4.75S15.381,2.25,18,2.25S22.75,4.381,22.75,7
	S20.619,11.75,18,11.75z M18,3.75c-1.792,0-3.25,1.458-3.25,3.25s1.458,3.25,3.25,3.25S21.25,8.792,21.25,7S19.792,3.75,18,3.75z"/>
<path style="fill:#333333;" d="M6.5,12.561L0.939,7L6.5,1.439L12.061,7L6.5,12.561z M3.061,7L6.5,10.439L9.939,7L6.5,3.561L3.061,7z
	"/>
</svg>






