<?xml version="1.0" encoding="iso-8859-1"?>
<svg version="1.1" id="&#x56FE;&#x5C42;_1" xmlns="http://www.w3.org/2000/svg" xmlns:xlink="http://www.w3.org/1999/xlink" x="0px"
	 y="0px" viewBox="0 0 24 24" style="enable-background:new 0 0 24 24;" xml:space="preserve">
<path style="fill:#333333;" d="M16,21.75H8c-3.722,0-6.75-3.028-6.75-6.75c0-3.722,3.028-6.75,6.75-6.75h8
	c3.722,0,6.75,3.028,6.75,6.75C22.75,18.722,19.722,21.75,16,21.75z M8,9.75c-2.895,0-5.25,2.355-5.25,5.25S5.105,20.25,8,20.25h8
	c2.895,0,5.25-2.355,5.25-5.25S18.895,9.75,16,9.75H8z"/>
<rect x="7.25" y="13" style="fill:#333333;" width="1.5" height="4"/>
<rect x="6" y="14.25" style="fill:#333333;" width="4" height="1.5"/>
<polygon style="fill:#333333;" points="12.75,8 11.25,8 11.25,4.107 15.25,4.107 15.25,2 16.75,2 16.75,5.607 12.75,5.607 "/>
<path style="fill:#333333;" d="M16,17.75c-1.517,0-2.75-1.233-2.75-2.75s1.233-2.75,2.75-2.75s2.75,1.233,2.75,2.75
	S17.517,17.75,16,17.75z M16,13.75c-0.689,0-1.25,0.561-1.25,1.25s0.561,1.25,1.25,1.25s1.25-0.561,1.25-1.25S16.689,13.75,16,13.75
	z"/>
</svg>






