<?xml version="1.0" encoding="iso-8859-1"?>
<svg version="1.1" id="&#x56FE;&#x5C42;_1" xmlns="http://www.w3.org/2000/svg" xmlns:xlink="http://www.w3.org/1999/xlink" x="0px"
	 y="0px" viewBox="0 0 24 24" style="enable-background:new 0 0 24 24;" xml:space="preserve">
<path style="fill:#333333;" d="M12,10.561l-2.75-2.75V1.25h5.5v6.561L12,10.561z M10.75,7.189L12,8.439l1.25-1.25V2.75h-2.5V7.189z"
	/>
<path style="fill:#333333;" d="M14.75,22.75h-5.5v-6.561l2.75-2.75l2.75,2.75V22.75z M10.75,21.25h2.5v-4.439L12,15.561l-1.25,1.25
	V21.25z"/>
<path style="fill:#333333;" d="M22.75,14.75h-6.561L13.439,12l2.75-2.75h6.561V14.75z M16.811,13.25h4.439v-2.5h-4.439L15.561,12
	L16.811,13.25z"/>
<path style="fill:#333333;" d="M7.811,14.75H1.25v-5.5h6.561l2.75,2.75L7.811,14.75z M2.75,13.25h4.439L8.439,12l-1.25-1.25H2.75
	V13.25z"/>
</svg>






