<?xml version="1.0" encoding="iso-8859-1"?>
<svg version="1.1" id="&#x56FE;&#x5C42;_1" xmlns="http://www.w3.org/2000/svg" xmlns:xlink="http://www.w3.org/1999/xlink" x="0px"
	 y="0px" viewBox="0 0 24 24" style="enable-background:new 0 0 24 24;" xml:space="preserve">
<path style="fill:#333333;" d="M6,20.75c-2.343,0-4.25-1.906-4.25-4.25v-7h1.5v7c0,1.517,1.233,2.75,2.75,2.75s2.75-1.233,2.75-2.75
	V15h1.5v1.5C10.25,18.844,8.343,20.75,6,20.75z"/>
<path style="fill:#333333;" d="M18,20.75c-2.344,0-4.25-1.906-4.25-4.25V15h1.5v1.5c0,1.517,1.233,2.75,2.75,2.75
	s2.75-1.233,2.75-2.75v-7h1.5v7C22.25,18.844,20.344,20.75,18,20.75z"/>
<path style="fill:#333333;" d="M16,15.75H8c-3.446,0-6.25-2.804-6.25-6.25S4.554,3.25,8,3.25h8c3.446,0,6.25,2.804,6.25,6.25
	S19.446,15.75,16,15.75z M8,4.75c-2.619,0-4.75,2.131-4.75,4.75S5.381,14.25,8,14.25h8c2.619,0,4.75-2.131,4.75-4.75
	S18.619,4.75,16,4.75H8z"/>
<rect x="6.5" y="8.75" style="fill:#333333;" width="4" height="1.5"/>
<rect x="7.75" y="7.5" style="fill:#333333;" width="1.5" height="4"/>
<path style="fill:#333333;" d="M17,7.5L17,7.5c0.552,0,1,0.448,1,1l0,0c0,0.552-0.448,1-1,1l0,0c-0.552,0-1-0.448-1-1l0,0
	C16,7.948,16.448,7.5,17,7.5z"/>
<path style="fill:#333333;" d="M15,10L15,10c0.552,0,1,0.448,1,1l0,0c0,0.552-0.448,1-1,1l0,0c-0.552,0-1-0.448-1-1l0,0
	C14,10.448,14.448,10,15,10z"/>
</svg>






