<?xml version="1.0" encoding="iso-8859-1"?>
<svg version="1.1" id="&#x56FE;&#x5C42;_1" xmlns="http://www.w3.org/2000/svg" xmlns:xlink="http://www.w3.org/1999/xlink" x="0px"
	 y="0px" viewBox="0 0 24 24" style="enable-background:new 0 0 24 24;" xml:space="preserve">
<path style="fill:#333333;" d="M22.75,22.75h-9.5v-9.5h9.5V22.75z M14.75,21.25h6.5v-6.5h-6.5V21.25z"/>
<path style="fill:#333333;" d="M12.282,10.75H0.718l5.128-9.118h1.308L12.282,10.75z M3.282,9.25h6.436L6.5,3.53L3.282,9.25z"/>
<path style="fill:#333333;" d="M18,10.75c-2.619,0-4.75-2.131-4.75-4.75S15.381,1.25,18,1.25S22.75,3.381,22.75,6
	S20.619,10.75,18,10.75z M18,2.75c-1.792,0-3.25,1.458-3.25,3.25S16.208,9.25,18,9.25S21.25,7.792,21.25,6S19.792,2.75,18,2.75z"/>
<rect x="5.25" y="12.343" transform="matrix(0.7071 -0.7071 0.7071 0.7071 -10.9706 9.5147)" style="fill:#333333;" width="1.5" height="11.314"/>
<rect x="0.343" y="17.25" transform="matrix(0.7071 -0.7071 0.7071 0.7071 -10.9706 9.5147)" style="fill:#333333;" width="11.314" height="1.5"/>
</svg>






