<?xml version="1.0" encoding="iso-8859-1"?>
<svg version="1.1" id="&#x56FE;&#x5C42;_1" xmlns="http://www.w3.org/2000/svg" xmlns:xlink="http://www.w3.org/1999/xlink" x="0px"
	 y="0px" viewBox="0 0 24 24" style="enable-background:new 0 0 24 24;" xml:space="preserve">
<path style="fill:#333333;" d="M3.399,9.249l-0.358-1.43c1.238-0.57,7.457-3.426,8.29-3.649v0c1.214-0.322,2.457,0.387,2.779,1.585
	c0.32,1.199-0.404,2.438-1.614,2.762C11.651,8.742,4.77,9.166,3.399,9.249z M11.719,5.618L11.719,5.618
	C11.381,5.709,9.469,6.55,7.39,7.486c2.411-0.169,4.387-0.333,4.717-0.418c0.411-0.11,0.659-0.525,0.553-0.925
	C12.554,5.744,12.133,5.51,11.719,5.618z"/>
<path style="fill:#333333;" d="M11.957,20.027c-0.199,0-0.4-0.026-0.597-0.079c-0.837-0.225-7.06-3.179-8.299-3.77l0.378-1.425
	c1.37,0.103,8.247,0.622,9.086,0.847c0.584,0.157,1.074,0.529,1.379,1.048c0.308,0.523,0.391,1.132,0.234,1.715
	c-0.156,0.582-0.532,1.067-1.06,1.367C12.731,19.927,12.347,20.027,11.957,20.027z M11.747,18.499
	c0.202,0.054,0.411,0.026,0.591-0.073c0.175-0.1,0.3-0.26,0.351-0.45c0.052-0.192,0.023-0.394-0.078-0.567
	c-0.104-0.177-0.272-0.305-0.475-0.358c-0.323-0.085-2.302-0.275-4.72-0.478C9.615,17.596,11.427,18.412,11.747,18.499
	L11.747,18.499z"/>
<path style="fill:#333333;" d="M19,12.752H8v-1.5h11c0.965,0,1.75-0.785,1.75-1.75s-0.785-1.75-1.75-1.75
	c-0.556,0-1.066,0.255-1.4,0.7l-1.199-0.9c0.62-0.826,1.567-1.3,2.6-1.3c1.792,0,3.25,1.458,3.25,3.25S20.792,12.752,19,12.752z"/>
</svg>






