<?xml version="1.0" encoding="iso-8859-1"?>
<svg version="1.1" id="&#x56FE;&#x5C42;_1" xmlns="http://www.w3.org/2000/svg" xmlns:xlink="http://www.w3.org/1999/xlink" x="0px"
	 y="0px" viewBox="0 0 24 24" style="enable-background:new 0 0 24 24;" xml:space="preserve">
<path style="fill:#333333;" d="M2.342,21.859C1.625,20.547,1.261,18.912,1.261,17c0-2.991,1.617-5.246,3.76-5.246
	c0.549,0,1.136,0.159,1.757,0.327c1.466,0.396,2.98,0.806,4.525-0.499c1.414-1.194,1.138-1.551,0.32-2.608
	c-0.26-0.336-0.555-0.718-0.787-1.155c-0.67-1.265-0.69-3.066-0.063-5.506l1.453,0.373c-0.523,2.033-0.544,3.524-0.063,4.431
	c0.171,0.323,0.413,0.636,0.647,0.939c0.832,1.076,1.972,2.55-0.539,4.672c-2.145,1.812-4.307,1.228-5.885,0.8
	c-0.522-0.141-1.015-0.274-1.365-0.274c-1.111,0-2.26,1.401-2.26,3.746c0,1.657,0.302,3.051,0.897,4.141L2.342,21.859z"/>
<path style="fill:#333333;" d="M5.849,21.867c-0.862-1.535-1.231-2.96-1.098-4.236c0.165-1.573,0.924-2.371,2.257-2.371
	c0.546,0,0.792,0.421,1.201,1.117c0.684,1.167,1.83,3.121,3.888,3.379c2.992,0.374,6.266-1.821,7.834-4.076
	c0.939-1.351,1.673-3.757,1.184-5.557c-0.224-0.82-0.68-1.395-1.358-1.707c-1.271-0.587-1.784-0.353-2.328-0.103
	c-0.552,0.252-1.306,0.6-2.365-0.124c-1.355-0.924-1.615-2.849-0.794-5.885l1.447,0.392c-0.607,2.246-0.539,3.756,0.191,4.254
	c0.36,0.247,0.434,0.212,0.895,0c0.67-0.308,1.681-0.772,3.583,0.104c1.084,0.5,1.837,1.425,2.177,2.676
	c0.615,2.263-0.238,5.137-1.398,6.806c-1.865,2.684-5.648,5.157-9.252,4.709c-2.792-0.35-4.28-2.889-4.996-4.108
	c-0.067-0.113-0.142-0.242-0.207-0.347c-0.214,0.066-0.391,0.285-0.465,0.998c-0.101,0.961,0.207,2.087,0.913,3.346L5.849,21.867z"
	/>
<path style="fill:#333333;" d="M13.8,17.747l-0.121-1.494c0.919-0.075,1.676-0.316,2.249-0.718c0.558-0.391,0.945-0.924,1.184-1.631
	l1.422,0.48c-0.34,1.006-0.927,1.807-1.745,2.38C15.992,17.32,14.987,17.651,13.8,17.747z"/>
</svg>






