<?xml version="1.0" encoding="iso-8859-1"?>
<svg version="1.1" id="&#x56FE;&#x5C42;_1" xmlns="http://www.w3.org/2000/svg" xmlns:xlink="http://www.w3.org/1999/xlink" x="0px"
	 y="0px" viewBox="0 0 24 24" style="enable-background:new 0 0 24 24;" xml:space="preserve">
<rect x="5.75" y="5" style="fill:#333333;" width="1.5" height="12.5"/>
<rect x="16.75" y="5" style="fill:#333333;" width="1.5" height="12.5"/>
<rect x="4" y="8.25" style="fill:#333333;" width="16" height="1.5"/>
<rect x="11.25" y="5" style="fill:#333333;" width="1.5" height="4"/>
<path style="fill:#333333;" d="M19.901,5.75H4.099L1.876,2.416l0.691-1.163C2.623,1.258,8.115,1.75,12,1.75s9.378-0.492,9.433-0.497
	l0.691,1.163L19.901,5.75z M4.901,4.25h14.197l0.917-1.376C18.071,3.023,14.669,3.25,12,3.25c-2.669,0-6.071-0.227-8.016-0.376
	L4.901,4.25z"/>
<path style="fill:#333333;" d="M8.75,22.75h-4.5v-6h4.5V22.75z M5.75,21.25h1.5v-3h-1.5V21.25z"/>
<path style="fill:#333333;" d="M19.75,22.75h-4.5v-6h4.5V22.75z M16.75,21.25h1.5v-3h-1.5V21.25z"/>
</svg>






