<?xml version="1.0" encoding="iso-8859-1"?>
<svg version="1.1" id="&#x56FE;&#x5C42;_1" xmlns="http://www.w3.org/2000/svg" xmlns:xlink="http://www.w3.org/1999/xlink" x="0px"
	 y="0px" viewBox="0 0 24 24" style="enable-background:new 0 0 24 24;" xml:space="preserve">
<path style="fill:#333333;" d="M13,21.25c-5.101,0-9.25-4.149-9.25-9.25S7.899,2.75,13,2.75s9.25,4.149,9.25,9.25
	S18.101,21.25,13,21.25z M13,4.25c-4.273,0-7.75,3.477-7.75,7.75s3.477,7.75,7.75,7.75s7.75-3.477,7.75-7.75S17.273,4.25,13,4.25z"
	/>
<path style="fill:#333333;" d="M13,16.25c-2.343,0-4.25-1.906-4.25-4.25c0-2.343,1.907-4.25,4.25-4.25c2.344,0,4.25,1.907,4.25,4.25
	C17.25,14.344,15.344,16.25,13,16.25z M13,9.25c-1.517,0-2.75,1.233-2.75,2.75s1.233,2.75,2.75,2.75s2.75-1.233,2.75-2.75
	S14.517,9.25,13,9.25z"/>
<rect x="2.5" y="19.75" style="fill:#333333;" width="10.5" height="1.5"/>
</svg>






