<?xml version="1.0" encoding="iso-8859-1"?>
<svg version="1.1" id="&#x56FE;&#x5C42;_1" xmlns="http://www.w3.org/2000/svg" xmlns:xlink="http://www.w3.org/1999/xlink" x="0px"
	 y="0px" viewBox="0 0 24 24" style="enable-background:new 0 0 24 24;" xml:space="preserve">
<path style="fill:#333333;" d="M20,22.25H4c-0.965,0-1.75-0.785-1.75-1.75v-15c0-0.965,0.785-1.75,1.75-1.75h16
	c0.965,0,1.75,0.785,1.75,1.75v15C21.75,21.465,20.965,22.25,20,22.25z M4,5.25c-0.138,0-0.25,0.112-0.25,0.25v15
	c0,0.138,0.112,0.25,0.25,0.25h16c0.138,0,0.25-0.112,0.25-0.25v-15c0-0.138-0.112-0.25-0.25-0.25H4z"/>
<rect x="6.75" y="2.5" style="fill:#333333;" width="1.5" height="2"/>
<rect x="15.75" y="2.5" style="fill:#333333;" width="1.5" height="2"/>
<rect x="3" y="7.75" style="fill:#333333;" width="18" height="1.5"/>
<rect x="9" y="14.25" style="fill:#333333;" width="6" height="1.5"/>
<rect x="11.25" y="12" style="fill:#333333;" width="1.5" height="6"/>
<rect x="2.25" y="5.5" style="fill:#333333;" width="1.5" height="6"/>
<rect x="20.25" y="5.5" style="fill:#333333;" width="1.5" height="6"/>
</svg>






