<?xml version="1.0" encoding="iso-8859-1"?>
<svg version="1.1" id="&#x56FE;&#x5C42;_1" xmlns="http://www.w3.org/2000/svg" xmlns:xlink="http://www.w3.org/1999/xlink" x="0px"
	 y="0px" viewBox="0 0 24 24" style="enable-background:new 0 0 24 24;" xml:space="preserve">
<path style="fill:#333333;" d="M11.963,15.467c-2.069,0-4.629-1.203-6.823-3.396C3.6,10.53,2.486,8.732,2.003,7.007
	C1.478,5.132,1.749,3.54,2.765,2.524C3.78,1.508,5.372,1.238,7.248,1.763C8.972,2.246,10.77,3.36,12.311,4.9
	c3.342,3.342,4.386,7.535,2.376,9.546l0,0C13.995,15.137,13.046,15.467,11.963,15.467z M5.479,3.001
	c-0.699,0-1.267,0.197-1.654,0.584c-0.616,0.616-0.75,1.688-0.378,3.018c0.415,1.48,1.393,3.045,2.753,4.407
	c2.657,2.655,6.058,3.742,7.425,2.376c1.368-1.369,0.279-4.769-2.376-7.425C9.889,4.6,8.324,3.622,6.843,3.208
	C6.35,3.069,5.892,3.001,5.479,3.001z"/>
<path style="fill:#333333;" d="M5.477,22.046c-1.102,0-2.035-0.346-2.712-1.023c-1.016-1.016-1.287-2.608-0.762-4.483
	c0.483-1.725,1.597-3.522,3.137-5.062c3.343-3.342,7.537-4.385,9.546-2.376l0,0c2.01,2.011,0.966,6.204-2.376,9.546
	c-1.541,1.54-3.338,2.654-5.063,3.138C6.622,21.959,6.028,22.046,5.477,22.046z M11.961,9.569c-1.64,0-3.886,1.094-5.761,2.968
	c-2.656,2.656-3.744,6.057-2.375,7.425c0.616,0.617,1.687,0.75,3.018,0.378c1.48-0.415,3.045-1.393,4.406-2.754
	c2.656-2.656,3.745-6.056,2.376-7.425C13.224,9.759,12.646,9.569,11.961,9.569z"/>
<path style="fill:#333333;" d="M12.037,15.467c-1.083,0-2.032-0.329-2.723-1.021l0,0c-2.01-2.011-0.967-6.204,2.375-9.546
	c1.54-1.541,3.339-2.654,5.063-3.137c1.875-0.524,3.467-0.254,4.482,0.761c1.017,1.016,1.287,2.608,0.762,4.483
	c-0.482,1.725-1.598,3.523-3.138,5.063C16.666,14.264,14.106,15.467,12.037,15.467z M10.375,13.386
	c1.366,1.366,4.767,0.28,7.424-2.376c1.361-1.361,2.339-2.926,2.754-4.407c0.372-1.33,0.238-2.402-0.378-3.018
	c-0.616-0.615-1.688-0.75-3.018-0.377c-1.48,0.415-3.046,1.393-4.407,2.753C10.094,8.617,9.007,12.017,10.375,13.386L10.375,13.386z
	"/>
<path style="fill:#333333;" d="M18.523,22.046c-0.552,0-1.146-0.087-1.771-0.262c-1.725-0.483-3.522-1.598-5.063-3.138
	c-1.54-1.54-2.654-3.338-3.137-5.062c-0.525-1.875-0.254-3.468,0.762-4.483c1.015-1.016,2.607-1.288,4.483-0.761
	c1.725,0.483,3.522,1.597,5.062,3.137s2.655,3.338,3.138,5.062c0.525,1.875,0.255,3.467-0.762,4.483
	C20.559,21.699,19.626,22.046,18.523,22.046z M12.039,9.569c-0.684,0-1.262,0.19-1.665,0.592c-1.369,1.369-0.281,4.769,2.375,7.425
	c1.361,1.361,2.927,2.339,4.407,2.754c1.327,0.371,2.4,0.239,3.018-0.378c0.616-0.616,0.75-1.688,0.378-3.019
	c-0.415-1.48-1.393-3.045-2.754-4.406C15.924,10.663,13.679,9.569,12.039,9.569z"/>
</svg>






