<?xml version="1.0" encoding="iso-8859-1"?>
<svg version="1.1" id="&#x56FE;&#x5C42;_1" xmlns="http://www.w3.org/2000/svg" xmlns:xlink="http://www.w3.org/1999/xlink" x="0px"
	 y="0px" viewBox="0 0 24 24" style="enable-background:new 0 0 24 24;" xml:space="preserve">
<path style="fill:#333333;" d="M12,22.75c-0.821,0-1.2-0.797-1.504-1.438c-0.065-0.139-0.16-0.339-0.243-0.481
	c-0.142,0.104-0.323,0.263-0.448,0.371c-0.527,0.462-1.184,1.04-1.92,0.731c-0.755-0.312-0.794-1.188-0.826-1.894
	c-0.007-0.155-0.017-0.38-0.039-0.545c-0.169,0.04-0.397,0.116-0.553,0.169c-0.669,0.226-1.501,0.505-2.069-0.062
	c-0.575-0.576-0.271-1.412-0.027-2.084c0.055-0.151,0.135-0.371,0.181-0.538c-0.171-0.021-0.401-0.031-0.561-0.038
	c-0.718-0.032-1.612-0.071-1.925-0.826c-0.318-0.768,0.329-1.417,0.849-1.939c0.114-0.113,0.275-0.275,0.391-0.41
	c-0.157-0.084-0.366-0.178-0.513-0.243C2.105,13.215,1.25,12.833,1.25,12c0-0.789,0.744-1.203,1.401-1.569
	c0.15-0.083,0.369-0.205,0.517-0.306C3.068,10.004,2.921,9.853,2.82,9.748C2.368,9.283,1.75,8.646,2.066,7.885
	C2.38,7.128,3.273,7.092,4.062,7.059c0.168-0.007,0.409-0.017,0.593-0.038C4.6,6.858,4.514,6.658,4.453,6.516
	c-0.29-0.678-0.65-1.521-0.055-2.117c0.525-0.523,1.306-0.367,1.994-0.229c0.181,0.037,0.454,0.091,0.63,0.104
	C7.042,4.138,7.053,3.942,7.06,3.81C7.09,3.206,7.133,2.377,7.885,2.066C8.594,1.772,9.249,2.275,9.774,2.68
	c0.135,0.104,0.336,0.258,0.48,0.345c0.083-0.127,0.185-0.321,0.253-0.452C10.799,2.015,11.198,1.25,12,1.25
	c0.818,0,1.191,0.775,1.465,1.341c0.063,0.132,0.158,0.329,0.235,0.453c0.106-0.083,0.344-0.258,0.498-0.372
	c0.571-0.42,1.22-0.895,1.917-0.606c0.754,0.313,0.795,1.196,0.825,1.841c0.008,0.147,0.018,0.363,0.039,0.518
	c0.172-0.031,0.414-0.101,0.578-0.148c0.666-0.192,1.491-0.429,2.044,0.122c0.581,0.582,0.261,1.42,0.004,2.094
	c-0.057,0.149-0.139,0.362-0.188,0.528c0.175,0.021,0.408,0.032,0.57,0.039c0.728,0.031,1.633,0.07,1.946,0.827
	c0.332,0.8-0.346,1.393-0.793,1.785c-0.092,0.08-0.223,0.195-0.315,0.29c0.138,0.091,0.396,0.264,0.566,0.378
	C22.06,10.787,22.75,11.25,22.75,12c0,0.882-0.918,1.194-1.655,1.445c-0.138,0.047-0.328,0.111-0.484,0.174
	c0.129,0.155,0.304,0.34,0.428,0.47c0.567,0.595,1.21,1.27,0.896,2.026c-0.313,0.756-1.219,0.795-1.945,0.826
	c-0.162,0.007-0.396,0.017-0.571,0.038c0.049,0.166,0.131,0.38,0.188,0.528c0.257,0.674,0.577,1.512-0.003,2.093
	c-0.536,0.535-1.281,0.363-1.881,0.227c-0.156-0.035-0.396-0.09-0.54-0.101c-0.048,0.14-0.093,0.386-0.122,0.547
	c-0.111,0.611-0.25,1.373-0.944,1.661c-0.773,0.318-1.388-0.309-1.834-0.769c-0.094-0.096-0.229-0.234-0.339-0.331
	c-0.11,0.149-0.246,0.377-0.339,0.531C13.215,22.015,12.774,22.75,12,22.75z M10.349,19.242c0.074,0,0.149,0.007,0.226,0.022
	c0.673,0.133,0.994,0.809,1.277,1.404c0.05,0.106,0.118,0.249,0.185,0.375c0.099-0.145,0.204-0.32,0.28-0.448
	c0.355-0.594,0.724-1.207,1.352-1.331c0.716-0.141,1.255,0.411,1.688,0.856c0.049,0.05,0.109,0.112,0.172,0.174
	c0.021-0.102,0.041-0.208,0.056-0.291c0.104-0.565,0.22-1.206,0.743-1.556c0.53-0.355,1.166-0.212,1.728-0.083
	c0.082,0.019,0.188,0.042,0.29,0.062c-0.045-0.134-0.1-0.277-0.141-0.386c-0.245-0.643-0.523-1.371-0.13-1.959
	c0.387-0.578,1.131-0.609,1.851-0.641c0.089-0.004,0.2-0.009,0.312-0.016c-0.099-0.108-0.202-0.218-0.284-0.304
	c-0.545-0.571-1.107-1.163-0.971-1.861c0.146-0.731,0.934-1,1.63-1.236c0.109-0.038,0.252-0.086,0.384-0.136
	c-0.145-0.107-0.312-0.221-0.438-0.304c-0.604-0.405-1.174-0.787-1.293-1.392c-0.145-0.728,0.426-1.246,0.86-1.627
	c-0.072-0.004-0.142-0.007-0.201-0.009c-0.719-0.031-1.463-0.063-1.85-0.64c-0.394-0.588-0.115-1.317,0.13-1.959
	c0.036-0.096,0.083-0.219,0.125-0.338c-0.125,0.032-0.256,0.069-0.356,0.098c-0.627,0.18-1.335,0.384-1.891,0.014
	c-0.575-0.386-0.609-1.113-0.64-1.755c-0.004-0.095-0.01-0.22-0.02-0.337c-0.117,0.079-0.241,0.17-0.335,0.239
	c-0.513,0.377-1.094,0.803-1.733,0.68c-0.671-0.133-0.987-0.79-1.241-1.317c-0.035-0.073-0.08-0.167-0.126-0.256
	c-0.054,0.098-0.108,0.201-0.15,0.28C11.552,3.812,11.23,4.43,10.574,4.56C9.925,4.69,9.36,4.253,8.86,3.869
	C8.779,3.807,8.673,3.725,8.571,3.652C8.565,3.736,8.561,3.82,8.557,3.888c-0.029,0.57-0.066,1.28-0.64,1.665
	C7.395,5.901,6.735,5.768,6.097,5.64C5.98,5.617,5.825,5.585,5.682,5.563c0.049,0.127,0.107,0.262,0.15,0.364
	c0.278,0.65,0.592,1.386,0.188,1.99c-0.388,0.579-1.155,0.61-1.897,0.641c-0.1,0.004-0.227,0.009-0.352,0.018
	c0.044,0.046,0.087,0.09,0.124,0.128c0.436,0.449,0.979,1.008,0.84,1.712c-0.127,0.643-0.751,0.99-1.355,1.326
	c-0.109,0.061-0.255,0.142-0.385,0.222c0.139,0.069,0.293,0.137,0.41,0.19c0.673,0.301,1.369,0.611,1.504,1.296
	c0.141,0.71-0.429,1.282-0.932,1.786c-0.056,0.056-0.123,0.123-0.191,0.193c0.097,0.006,0.192,0.01,0.27,0.014
	c0.678,0.029,1.446,0.063,1.832,0.641c0.389,0.581,0.125,1.307-0.107,1.947c-0.032,0.089-0.074,0.203-0.112,0.316
	c0.114-0.035,0.23-0.074,0.321-0.104c0.636-0.214,1.355-0.455,1.927-0.072c0.577,0.386,0.61,1.139,0.64,1.803
	c0.004,0.089,0.009,0.201,0.017,0.312c0.087-0.073,0.174-0.149,0.243-0.21C9.266,19.682,9.767,19.242,10.349,19.242z M14.064,20.695
	L14.064,20.695L14.064,20.695z"/>
<path style="fill:#333333;" d="M14.5,15.25c-1.517,0-2.75-1.233-2.75-2.75s1.233-2.75,2.75-2.75s2.75,1.233,2.75,2.75
	S16.017,15.25,14.5,15.25z M14.5,11.25c-0.689,0-1.25,0.561-1.25,1.25s0.561,1.25,1.25,1.25s1.25-0.561,1.25-1.25
	S15.189,11.25,14.5,11.25z"/>
<path style="fill:#333333;" d="M8.25,13c0.69,0,1.25-0.56,1.25-1.25c0-0.69-0.56-1.25-1.25-1.25S7,11.06,7,11.75
	C7,12.441,7.56,13,8.25,13z"/>
</svg>






