<?xml version="1.0" encoding="iso-8859-1"?>
<svg version="1.1" id="&#x56FE;&#x5C42;_1" xmlns="http://www.w3.org/2000/svg" xmlns:xlink="http://www.w3.org/1999/xlink" x="0px"
	 y="0px" viewBox="0 0 24 24" style="enable-background:new 0 0 24 24;" xml:space="preserve">
<path style="fill:#333333;" d="M12,23.353l-2-3l-1.883,2.824L6,21.061l-1.47,1.47L3.25,22V10c0-4.825,3.925-8.75,8.75-8.75
	c4.825,0,8.75,3.925,8.75,8.75v12l-1.28,0.53L18,21.061l-2.116,2.116L14,20.353L12,23.353z M14,17.647l2.116,3.176L18,18.939
	l1.25,1.25V10c0-3.998-3.252-7.25-7.25-7.25c-3.998,0-7.25,3.252-7.25,7.25v10.189L6,18.939l1.883,1.884L10,17.647l2,3L14,17.647z"
	/>
<rect x="9.5" y="9.25" style="fill:#333333;" width="1" height="1.5"/>
<rect x="15.5" y="9.25" style="fill:#333333;" width="1" height="1.5"/>
</svg>






