<?xml version="1.0" encoding="iso-8859-1"?>
<svg version="1.1" id="&#x56FE;&#x5C42;_1" xmlns="http://www.w3.org/2000/svg" xmlns:xlink="http://www.w3.org/1999/xlink" x="0px"
	 y="0px" viewBox="0 0 24 24" style="enable-background:new 0 0 24 24;" xml:space="preserve">
<path style="fill:#333333;" d="M19.5,21.75h-15c-1.241,0-2.25-1.01-2.25-2.25v-11c0-1.241,1.009-2.25,2.25-2.25h15
	c1.24,0,2.25,1.009,2.25,2.25v11C21.75,20.74,20.74,21.75,19.5,21.75z M4.5,7.75c-0.414,0-0.75,0.336-0.75,0.75v11
	c0,0.413,0.336,0.75,0.75,0.75h15c0.413,0,0.75-0.337,0.75-0.75v-11c0-0.414-0.337-0.75-0.75-0.75H4.5z"/>
<path style="fill:#333333;" d="M19.5,21.75h-15c-1.241,0-2.25-1.01-2.25-2.25v-4.25h19.5v4.25C21.75,20.74,20.74,21.75,19.5,21.75z
	 M3.75,16.75v2.75c0,0.413,0.336,0.75,0.75,0.75h15c0.413,0,0.75-0.337,0.75-0.75v-2.75H3.75z"/>
<path style="fill:#333333;" d="M9.5,7.75c-1.792,0-3.25-1.458-3.25-3.25S7.708,1.25,9.5,1.25s3.25,1.458,3.25,3.25
	S11.292,7.75,9.5,7.75z M9.5,2.75c-0.965,0-1.75,0.785-1.75,1.75S8.535,6.25,9.5,6.25s1.75-0.785,1.75-1.75S10.465,2.75,9.5,2.75z"
	/>
<path style="fill:#333333;" d="M14,7.75c-1.517,0-2.75-1.233-2.75-2.75S12.483,2.25,14,2.25S16.75,3.483,16.75,5
	S15.517,7.75,14,7.75z M14,3.75c-0.689,0-1.25,0.561-1.25,1.25S13.311,6.25,14,6.25S15.25,5.689,15.25,5S14.689,3.75,14,3.75z"/>
<polygon style="fill:#333333;" points="15.012,10.569 12,7.988 8.988,10.569 8.012,9.431 12,6.012 15.988,9.431 "/>
</svg>






