<?xml version="1.0" encoding="iso-8859-1"?>
<svg version="1.1" id="&#x56FE;&#x5C42;_1" xmlns="http://www.w3.org/2000/svg" xmlns:xlink="http://www.w3.org/1999/xlink" x="0px"
	 y="0px" viewBox="0 0 24 24" style="enable-background:new 0 0 24 24;" xml:space="preserve">
<path style="fill:#333333;" d="M19.5,21.75h-15c-1.241,0-2.25-1.01-2.25-2.25v-15c0-1.241,1.009-2.25,2.25-2.25h15
	c1.24,0,2.25,1.009,2.25,2.25v15C21.75,20.74,20.74,21.75,19.5,21.75z M4.5,3.75c-0.414,0-0.75,0.336-0.75,0.75v15
	c0,0.413,0.336,0.75,0.75,0.75h15c0.413,0,0.75-0.337,0.75-0.75v-15c0-0.414-0.337-0.75-0.75-0.75H4.5z"/>
<rect x="2" y="11.25" style="fill:#333333;" width="20" height="1.5"/>
<rect x="11.25" y="2" style="fill:#333333;" width="1.5" height="20"/>
<rect x="2.25" y="9" style="fill:#333333;" width="1.5" height="6"/>
<rect x="20.25" y="9" style="fill:#333333;" width="1.5" height="6"/>
<rect x="9" y="20.25" style="fill:#333333;" width="6" height="1.5"/>
<rect x="9" y="2.25" style="fill:#333333;" width="6" height="1.5"/>
<path style="fill:#333333;" d="M8.538,17.749c-0.586,0-1.172-0.223-1.618-0.669c-0.433-0.433-0.67-1.008-0.67-1.618
	c0-0.611,0.238-1.187,0.67-1.618c0.436-0.437,2.015-1.236,3.292-1.844c-1.277-0.607-2.855-1.407-3.292-1.843l1.061-1.061
	c0.214,0.21,1.254,0.762,2.466,1.351c-0.588-1.212-1.14-2.251-1.351-2.466l1.061-1.061c0.436,0.436,1.236,2.015,1.843,3.292
	c0.607-1.277,1.407-2.856,1.844-3.292c0.863-0.861,2.371-0.865,3.236,0c0.892,0.893,0.892,2.344,0,3.237
	c-0.437,0.436-2.016,1.236-3.292,1.843c1.276,0.607,2.855,1.407,3.292,1.844l-1.062,1.061c-0.215-0.211-1.254-0.763-2.465-1.351
	c0.588,1.212,1.14,2.251,1.351,2.466l-1.061,1.061c-0.437-0.437-1.236-2.016-1.844-3.292c-0.607,1.276-1.407,2.855-1.843,3.292
	C9.71,17.526,9.124,17.749,8.538,17.749z M10.447,13.553c-1.211,0.589-2.251,1.141-2.465,1.352
	c-0.149,0.149-0.231,0.347-0.231,0.558c0,0.21,0.082,0.408,0.231,0.558c0.308,0.308,0.809,0.307,1.115,0
	C9.307,15.805,9.858,14.766,10.447,13.553z M15.462,7.75c-0.211,0-0.408,0.082-0.558,0.231c-0.211,0.215-0.763,1.254-1.351,2.466
	c1.212-0.588,2.252-1.141,2.467-1.351c0.307-0.307,0.307-0.808-0.001-1.115C15.87,7.832,15.672,7.75,15.462,7.75z"/>
</svg>






