<?xml version="1.0" encoding="iso-8859-1"?>
<svg version="1.1" id="&#x56FE;&#x5C42;_1" xmlns="http://www.w3.org/2000/svg" xmlns:xlink="http://www.w3.org/1999/xlink" x="0px"
	 y="0px" viewBox="0 0 24 24" style="enable-background:new 0 0 24 24;" xml:space="preserve">
<path style="fill:#333333;" d="M12,8.75C9.932,8.75,8.25,7.068,8.25,5S9.932,1.25,12,1.25c2.067,0,3.75,1.682,3.75,3.75
	S14.067,8.75,12,8.75z M12,2.75c-1.241,0-2.25,1.009-2.25,2.25S10.759,7.25,12,7.25c1.24,0,2.25-1.009,2.25-2.25S13.24,2.75,12,2.75
	z"/>
<path style="fill:#333333;" d="M20.256,18.75H3.744l6.193-11.5h4.126L20.256,18.75z M6.256,17.25h11.488l-4.577-8.5h-2.334
	L6.256,17.25z"/>
<rect x="12.75" y="18" style="fill:#333333;" width="1.5" height="4"/>
<rect x="9.75" y="18" style="fill:#333333;" width="1.5" height="4"/>
</svg>






