<?xml version="1.0" encoding="iso-8859-1"?>
<svg version="1.1" id="&#x56FE;&#x5C42;_1" xmlns="http://www.w3.org/2000/svg" xmlns:xlink="http://www.w3.org/1999/xlink" x="0px"
	 y="0px" viewBox="0 0 24 24" style="enable-background:new 0 0 24 24;" xml:space="preserve">
<path style="fill:#333333;" d="M12,8.75C9.932,8.75,8.25,7.068,8.25,5S9.932,1.25,12,1.25c2.067,0,3.75,1.682,3.75,3.75
	S14.067,8.75,12,8.75z M12,2.75c-1.241,0-2.25,1.009-2.25,2.25S10.759,7.25,12,7.25c1.24,0,2.25-1.009,2.25-2.25S13.24,2.75,12,2.75
	z"/>
<polygon style="fill:#333333;" points="14.75,22 13.25,22 13.25,17.25 17.744,17.25 13.167,8.75 10.833,8.75 6.256,17.25 
	10.75,17.25 10.75,22 9.25,22 9.25,18.75 3.744,18.75 9.937,7.25 14.063,7.25 20.256,18.75 14.75,18.75 "/>
</svg>






