<?xml version="1.0" encoding="iso-8859-1"?>
<svg version="1.1" id="&#x56FE;&#x5C42;_1" xmlns="http://www.w3.org/2000/svg" xmlns:xlink="http://www.w3.org/1999/xlink" x="0px"
	 y="0px" viewBox="0 0 24 24" style="enable-background:new 0 0 24 24;" xml:space="preserve">
<path style="fill-rule:evenodd;clip-rule:evenodd;fill:#333333;" d="M12,2C6.477,2,2,6.477,2,12s4.477,10,10,10s10-4.477,10-10
	S17.523,2,12,2z M0,12C0,5.373,5.373,0,12,0s12,5.373,12,12s-5.373,12-12,12S0,18.627,0,12z"/>
<path style="fill-rule:evenodd;clip-rule:evenodd;fill:#333333;" d="M9.592,22.736c-0.097-0.125-0.097-1.237,0-3.337
	c-1.036,0.036-1.69-0.036-1.964-0.216c-0.41-0.269-0.82-1.1-1.184-1.685c-0.364-0.585-1.171-0.678-1.498-0.809
	c-0.326-0.131-0.408-0.664,0.899-0.261c1.307,0.403,1.37,1.502,1.782,1.759c0.412,0.257,1.398,0.145,1.844-0.061
	c0.447-0.206,0.414-0.972,0.493-1.276c0.101-0.283-0.254-0.346-0.262-0.348c-0.436,0-2.727-0.498-3.356-2.717
	c-0.629-2.218,0.181-3.668,0.614-4.292C7.25,9.078,7.224,8.193,6.885,6.837C8.117,6.679,9.067,7.067,9.737,8
	C9.737,8.005,10.614,7.479,12,7.479c1.386,0,1.878,0.429,2.257,0.521c0.379,0.092,0.683-1.633,3.026-1.163
	C16.794,7.798,16.384,9,16.697,9.494c0.313,0.494,1.54,2.064,0.786,4.292c-0.503,1.485-1.491,2.391-2.964,2.717
	c-0.169,0.054-0.253,0.141-0.253,0.261c0,0.18,0.228,0.2,0.557,1.043c0.219,0.562,0.235,2.168,0.048,4.818
	c-0.476,0.121-0.845,0.202-1.11,0.244c-0.469,0.074-0.978,0.115-1.478,0.131c-0.5,0.016-0.674,0.014-1.365-0.05
	C10.458,22.905,10.015,22.834,9.592,22.736z"/>
</svg>






