<?xml version="1.0" encoding="iso-8859-1"?>
<svg version="1.1" id="&#x56FE;&#x5C42;_1" xmlns="http://www.w3.org/2000/svg" xmlns:xlink="http://www.w3.org/1999/xlink" x="0px"
	 y="0px" viewBox="0 0 24 24" style="enable-background:new 0 0 24 24;" xml:space="preserve">
<path style="fill:#333333;" d="M9.746,16.07c-1.525-0.256-2.821-0.778-3.852-1.55C4.263,13.297,3.25,11.374,3.25,9.5
	c0-1.232,0.429-2.432,1.242-3.478C4.52,5.82,4.52,5.344,4.52,4.987c0-1.625,0.048-2.645,0.725-3.091
	c0.31-0.204,0.684-0.229,1.052-0.07C6.688,1.994,7.06,2.218,7.42,2.434c0.673,0.405,1.309,0.79,1.821,0.656
	c1.903-0.485,4.03-0.448,5.908,0.107c0.318,0.098,1.492-0.54,2.053-0.846c0.351-0.192,0.689-0.377,0.991-0.517
	c0.541-0.251,0.928-0.036,1.07,0.069c0.634,0.468,0.501,1.432,0.317,2.765c-0.059,0.419-0.144,1.034-0.126,1.285
	C20.303,7.016,20.75,8.239,20.75,9.5c0,1.975-0.93,3.852-2.487,5.02c-0.903,0.678-2.06,1.166-3.438,1.453l-0.305-1.469
	c1.145-0.238,2.128-0.647,2.843-1.184c1.182-0.887,1.888-2.315,1.888-3.82c0-0.946-0.356-1.875-1.03-2.688
	c-0.368-0.443-0.296-1.11-0.125-2.349c0.037-0.27,0.088-0.638,0.116-0.954c-0.095,0.052-0.191,0.104-0.289,0.158
	c-1.116,0.61-2.268,1.243-3.198,0.968c-1.62-0.479-3.469-0.511-5.112-0.092C8.489,4.83,7.512,4.24,6.647,3.72
	c-0.194-0.117-0.383-0.23-0.565-0.33C6.02,3.843,6.02,4.58,6.02,4.987c0,1.06-0.011,1.543-0.285,1.881
	C5.091,7.667,4.75,8.577,4.75,9.5c0,1.411,0.783,2.875,2.043,3.82c0.837,0.627,1.914,1.055,3.201,1.271L9.746,16.07z"/>
<path style="fill:#333333;" d="M9.751,21.505h-1.5v-4.357c0-0.763,0.358-1.544,1.063-2.32l1.11,1.008
	c-0.447,0.493-0.674,0.935-0.674,1.312V21.505z"/>
<path style="fill:#333333;" d="M16.245,21.505h-1.5v-4.326c0-0.396-0.231-0.91-0.67-1.486l1.193-0.908
	c0.657,0.862,0.977,1.646,0.977,2.395V21.505z"/>
<path style="fill:#333333;" d="M9.001,19.509H6.913c-1.197,0-2.393-0.974-3.554-2.893c-0.071-0.117-0.175-0.23-0.451-0.265
	l0.185-1.488c0.677,0.084,1.213,0.421,1.549,0.976c1.186,1.959,1.983,2.17,2.271,2.17h2.088V19.509z"/>
</svg>






