<?xml version="1.0" encoding="iso-8859-1"?>
<svg version="1.1" id="&#x56FE;&#x5C42;_1" xmlns="http://www.w3.org/2000/svg" xmlns:xlink="http://www.w3.org/1999/xlink" x="0px"
	 y="0px" viewBox="0 0 24 24" style="enable-background:new 0 0 24 24;" xml:space="preserve">
<path style="fill:#333333;" d="M7.25,16.25c-2.206,0-4-1.794-4-4c0-2.206,1.794-4,4-4s4,1.794,4,4
	C11.25,14.456,9.456,16.25,7.25,16.25z M7.25,9.75c-1.378,0-2.5,1.122-2.5,2.5c0,1.379,1.122,2.5,2.5,2.5s2.5-1.121,2.5-2.5
	C9.75,10.872,8.628,9.75,7.25,9.75z"/>
<path style="fill:#333333;" d="M16.75,16.25c-2.206,0-4-1.794-4-4c0-2.206,1.794-4,4-4s4,1.794,4,4
	C20.75,14.456,18.956,16.25,16.75,16.25z M16.75,9.75c-1.379,0-2.5,1.122-2.5,2.5c0,1.379,1.121,2.5,2.5,2.5s2.5-1.121,2.5-2.5
	C19.25,10.872,18.129,9.75,16.75,9.75z"/>
<rect x="2" y="11.25" style="fill:#333333;" width="2" height="1.5"/>
<rect x="20" y="11.25" style="fill:#333333;" width="2" height="1.5"/>
<path style="fill:#333333;" d="M13.272,10.682C13.099,9.988,12.594,9.25,12,9.25s-1.099,0.738-1.272,1.432l-1.455-0.364
	C9.582,9.081,10.567,7.75,12,7.75c1.433,0,2.418,1.331,2.728,2.568L13.272,10.682z"/>
</svg>






