<?xml version="1.0" encoding="iso-8859-1"?>
<svg version="1.1" id="&#x56FE;&#x5C42;_1" xmlns="http://www.w3.org/2000/svg" xmlns:xlink="http://www.w3.org/1999/xlink" x="0px"
	 y="0px" viewBox="0 0 24 24" style="enable-background:new 0 0 24 24;" xml:space="preserve">
<path style="fill:#333333;" d="M6,21.75c-2.343,0-4.25-1.906-4.25-4.25S3.657,13.25,6,13.25s4.25,1.906,4.25,4.25
	S8.343,21.75,6,21.75z M6,14.75c-1.517,0-2.75,1.233-2.75,2.75S4.483,20.25,6,20.25s2.75-1.233,2.75-2.75S7.517,14.75,6,14.75z"/>
<path style="fill:#333333;" d="M18,21.75c-2.344,0-4.25-1.906-4.25-4.25s1.906-4.25,4.25-4.25s4.25,1.906,4.25,4.25
	S20.344,21.75,18,21.75z M18,14.75c-1.517,0-2.75,1.233-2.75,2.75s1.233,2.75,2.75,2.75s2.75-1.233,2.75-2.75S19.517,14.75,18,14.75
	z"/>
<path style="fill:#333333;" d="M3.25,17h-1.5V5.441c0-0.774,0-1.286,0.331-1.744C2.41,3.24,2.895,3.078,3.628,2.833l1.635-0.545
	l0.475,1.423L4.105,4.255c-0.335,0.112-0.75,0.25-0.807,0.318C3.25,4.641,3.25,5.104,3.25,5.441V17z"/>
<path style="fill:#333333;" d="M22.25,17h-1.5V5.441c0-0.338,0-0.801-0.047-0.867s-0.467-0.206-0.804-0.318l-1.637-0.545
	l0.475-1.423l1.633,0.544c0.735,0.246,1.219,0.407,1.55,0.864c0.33,0.459,0.33,0.943,0.33,1.745V17z"/>
<path style="fill:#333333;" d="M15.25,17h-1.5c0-0.965-0.785-1.75-1.75-1.75s-1.75,0.785-1.75,1.75h-1.5
	c0-1.792,1.458-3.25,3.25-3.25S15.25,15.208,15.25,17z"/>
</svg>






