<?xml version="1.0" encoding="iso-8859-1"?>
<svg version="1.1" id="&#x56FE;&#x5C42;_1" xmlns="http://www.w3.org/2000/svg" xmlns:xlink="http://www.w3.org/1999/xlink" x="0px"
	 y="0px" viewBox="0 0 24 24" style="enable-background:new 0 0 24 24;" xml:space="preserve">
<path style="fill:#333333;" d="M6,20.75c-2.343,0-4.25-1.906-4.25-4.25S3.657,12.25,6,12.25s4.25,1.906,4.25,4.25
	S8.343,20.75,6,20.75z M6,13.75c-1.517,0-2.75,1.233-2.75,2.75S4.483,19.25,6,19.25s2.75-1.233,2.75-2.75S7.517,13.75,6,13.75z"/>
<path style="fill:#333333;" d="M15.25,16.5h-1.5c0-1.026-0.304-2.25-1.75-2.25s-1.75,1.224-1.75,2.25h-1.5
	c0-2.313,1.245-3.75,3.25-3.75S15.25,14.187,15.25,16.5z"/>
<path style="fill:#333333;" d="M18,20.75c-2.344,0-4.25-1.906-4.25-4.25s1.906-4.25,4.25-4.25s4.25,1.906,4.25,4.25
	S20.344,20.75,18,20.75z M18,13.75c-1.517,0-2.75,1.233-2.75,2.75s1.233,2.75,2.75,2.75s2.75-1.233,2.75-2.75S19.517,13.75,18,13.75
	z"/>
<path style="fill:#333333;" d="M3.75,11h-1.5V7c0-2.068,1.682-3.75,3.75-3.75h1v1.5H6C4.759,4.75,3.75,5.759,3.75,7V11z"/>
<path style="fill:#333333;" d="M21.75,11h-1.5V7c0-1.241-1.01-2.25-2.25-2.25h-1v-1.5h1c2.067,0,3.75,1.682,3.75,3.75V11z"/>
</svg>






