<?xml version="1.0" encoding="iso-8859-1"?>
<svg version="1.1" id="&#x56FE;&#x5C42;_1" xmlns="http://www.w3.org/2000/svg" xmlns:xlink="http://www.w3.org/1999/xlink" x="0px"
	 y="0px" viewBox="0 0 24 24" style="enable-background:new 0 0 24 24;" xml:space="preserve">
<path style="fill:#333333;" d="M12.158,19.75c-2.945,0-5.681-1.18-7.704-3.322l1.091-1.029c1.736,1.839,4.085,2.852,6.613,2.852
	c5.014,0,9.092-4.079,9.092-9.092c0-2.527-1.013-4.876-2.852-6.612l1.029-1.091c2.143,2.023,3.322,4.758,3.322,7.703
	C22.75,14.998,17.999,19.75,12.158,19.75z"/>
<path style="fill:#333333;" d="M12,16.75c-4.273,0-7.75-3.477-7.75-7.75S7.727,1.25,12,1.25S19.75,4.727,19.75,9
	S16.273,16.75,12,16.75z M12,2.75C8.554,2.75,5.75,5.554,5.75,9s2.804,6.25,6.25,6.25s6.25-2.804,6.25-6.25S15.446,2.75,12,2.75z"/>
<rect x="11.25" y="19" style="fill:#333333;" width="1.5" height="3"/>
<rect x="9" y="21.25" style="fill:#333333;" width="6" height="1.5"/>
</svg>






