<?xml version="1.0" encoding="iso-8859-1"?>
<svg version="1.1" id="&#x56FE;&#x5C42;_1" xmlns="http://www.w3.org/2000/svg" xmlns:xlink="http://www.w3.org/1999/xlink" x="0px"
	 y="0px" viewBox="0 0 24 24" style="enable-background:new 0 0 24 24;" xml:space="preserve">
<path style="fill:#333333;" d="M18.667,21.75H3.25V7.5c0-3.021,1.682-6.25,6.403-6.25c5.325,0,5.804,2.437,6.061,3.746l0.021,0.107
	c0.121,0.604,0.251,1.825,0.356,2.964c0.731-1.111,1.724-2.207,2.837-2.313c1.044-0.1,1.948,0.25,2.483,0.957
	c0.53,0.699,0.638,1.656,0.287,2.561c-0.459,1.184-2.671,6.929-3.032,7.869V21.75z M4.75,20.25h12.417l0.05-3.52
	c0,0,2.584-6.71,3.084-8.001c0.161-0.415,0.129-0.831-0.084-1.113c-0.218-0.288-0.619-0.417-1.146-0.37
	c-0.891,0.085-2.212,2.265-2.825,3.71l-1.438-0.238c-0.003-0.041-0.305-4.132-0.543-5.322l-0.022-0.112
	C14.021,4.156,13.744,2.75,9.653,2.75C5.387,2.75,4.75,5.726,4.75,7.5V20.25z"/>
</svg>






