<?xml version="1.0" encoding="iso-8859-1"?>
<svg version="1.1" id="&#x56FE;&#x5C42;_1" xmlns="http://www.w3.org/2000/svg" xmlns:xlink="http://www.w3.org/1999/xlink" x="0px"
	 y="0px" viewBox="0 0 24 24" style="enable-background:new 0 0 24 24;" xml:space="preserve">
<g>
	<defs>
		<rect id="SVGID_1_" width="24" height="24"/>
	</defs>
	<clipPath id="SVGID_00000114786762972382611680000005462287181400165764_">
		<use xlink:href="#SVGID_1_"  style="overflow:visible;"/>
	</clipPath>
	<g style="clip-path:url(#SVGID_00000114786762972382611680000005462287181400165764_);">
		<path style="fill:#333333;" d="M9.939,17.189c-1.937,0-3.757-0.754-5.126-2.124l-2.475-2.475l1.061-1.061l2.475,2.475
			c1.086,1.086,2.53,1.685,4.066,1.685c1.536,0,2.979-0.599,4.065-1.685s1.685-2.53,1.685-4.065c0-1.536-0.599-2.98-1.685-4.066
			L11.53,3.398l1.061-1.061l2.475,2.475c1.37,1.369,2.124,3.189,2.124,5.126c0,1.937-0.754,3.757-2.124,5.126
			C13.696,16.436,11.876,17.189,9.939,17.189z"/>
		
			<rect x="15.75" y="14.379" transform="matrix(0.7071 -0.7071 0.7071 0.7071 -6.8345 16.5)" style="fill:#333333;" width="1.5" height="4.243"/>
		<path style="fill:#333333;" d="M4.117,12.964c-0.896,0-1.676-0.271-2.243-0.837c-0.866-0.866-1.076-2.23-0.592-3.842
			c0.436-1.453,1.399-2.976,2.713-4.29l0,0c2.874-2.874,6.447-3.806,8.131-2.121c1.686,1.685,0.754,5.257-2.121,8.131
			C8.098,11.912,5.883,12.964,4.117,12.964z M5.055,5.055c-1.142,1.142-1.972,2.441-2.337,3.66c-0.313,1.043-0.234,1.9,0.216,2.351
			c0.92,0.919,3.614,0.273,6.01-2.122c2.396-2.396,3.041-5.09,2.122-6.01C10.147,2.015,7.452,2.659,5.055,5.055L5.055,5.055z"/>
		<path style="fill:#333333;" d="M17.569,22.123c-0.489,0-0.908-0.159-1.222-0.472c-0.494-0.495-0.604-1.254-0.31-2.139
			c0.236-0.71,0.724-1.457,1.371-2.104c0.646-0.647,1.394-1.135,2.104-1.371c0.886-0.293,1.645-0.185,2.139,0.311
			c0.907,0.907,0.451,2.73-1.061,4.242c-0.647,0.647-1.395,1.135-2.104,1.371C18.162,22.069,17.854,22.123,17.569,22.123z
			 M20.423,17.378c-0.098,0-0.241,0.019-0.437,0.084c-0.485,0.161-1.038,0.529-1.517,1.008l0,0
			c-0.479,0.479-0.847,1.031-1.008,1.517c-0.136,0.407-0.071,0.586-0.053,0.604c0.027,0.028,0.233,0.071,0.604-0.053
			c0.485-0.161,1.039-0.529,1.518-1.008c0.479-0.479,0.847-1.032,1.008-1.518c0.136-0.406,0.071-0.585,0.053-0.604
			C20.581,17.399,20.528,17.378,20.423,17.378z"/>
	</g>
</g>
</svg>






