<?xml version="1.0" encoding="iso-8859-1"?>
<svg version="1.1" id="&#x56FE;&#x5C42;_1" xmlns="http://www.w3.org/2000/svg" xmlns:xlink="http://www.w3.org/1999/xlink" x="0px"
	 y="0px" viewBox="0 0 24 24" style="enable-background:new 0 0 24 24;" xml:space="preserve">
<rect x="6.5" y="21.25" style="fill:#333333;" width="10" height="1.5"/>
<rect x="10.75" y="14" style="fill:#333333;" width="1.5" height="8"/>
<path style="fill:#333333;" d="M11.5,14.75c-3.722,0-6.75-3.028-6.75-6.75c0-3.454,2.056-6.321,2.144-6.441L7.118,1.25h8.764
	l0.225,0.309C16.194,1.679,18.25,4.546,18.25,8C18.25,11.722,15.222,14.75,11.5,14.75z M7.903,2.75C7.421,3.522,6.25,5.641,6.25,8
	c0,2.895,2.355,5.25,5.25,5.25c2.846,0,5.25-2.404,5.25-5.25c0-2.371-1.17-4.481-1.652-5.25H7.903z"/>
<polygon style="fill:#333333;" points="12.212,8.737 10.789,8.263 11.532,6.031 9.532,5.531 10.789,1.763 12.212,2.237 
	11.468,4.469 13.468,4.969 "/>
<rect x="7.5" y="1.25" style="fill:#333333;" width="8" height="1.5"/>
</svg>






