<?xml version="1.0" encoding="iso-8859-1"?>
<svg version="1.1" id="&#x56FE;&#x5C42;_1" xmlns="http://www.w3.org/2000/svg" xmlns:xlink="http://www.w3.org/1999/xlink" x="0px"
	 y="0px" viewBox="0 0 24 24" style="enable-background:new 0 0 24 24;" xml:space="preserve">
<rect x="6.5" y="21.25" style="fill:#333333;" width="10" height="1.5"/>
<rect x="10.75" y="14" style="fill:#333333;" width="1.5" height="8"/>
<path style="fill:#333333;" d="M11.5,14.75c-2.602,0-4.927-1.453-6.069-3.792C4.979,10.033,4.75,9.037,4.75,8
	c0-1.124,0.218-2.302,0.649-3.503c0.618-1.723,1.459-2.889,1.495-2.938L7.118,1.25h8.764l0.225,0.309
	c0.04,0.055,0.984,1.365,1.606,3.264C18.069,5.91,18.25,6.979,18.25,8c0,0.924-0.189,1.824-0.563,2.676
	C16.601,13.15,14.172,14.75,11.5,14.75z M7.903,2.75C7.642,3.167,7.179,3.978,6.811,5.003C6.439,6.042,6.25,7.05,6.25,8
	c0,0.807,0.178,1.581,0.529,2.3c0.889,1.819,2.698,2.95,4.721,2.95c2.077,0,3.967-1.247,4.813-3.177
	C16.604,9.413,16.75,8.715,16.75,8c0-0.862-0.155-1.773-0.463-2.71c-0.381-1.161-0.905-2.084-1.19-2.54H7.903z"/>
<path style="fill:#333333;" d="M14.169,9.417c-1.005,0-2.086-0.192-3.055-0.773C8.979,7.361,5.825,8.676,5.794,8.69l-0.59-1.379
	c0.157-0.067,3.885-1.631,6.681,0.046c2.134,1.28,5.288-0.033,5.32-0.047l0.59,1.379C17.692,8.733,16.065,9.417,14.169,9.417z"/>
<path style="fill:#333333;" d="M17.687,10.676l-1.373-0.603C16.604,9.413,16.75,8.715,16.75,8c0-0.862-0.155-1.773-0.463-2.71
	l1.426-0.467C18.069,5.91,18.25,6.979,18.25,8C18.25,8.924,18.061,9.824,17.687,10.676z"/>
<path style="fill:#333333;" d="M5.431,10.958C4.979,10.033,4.75,9.037,4.75,8c0-1.124,0.218-2.302,0.649-3.503l1.412,0.506
	C6.439,6.042,6.25,7.05,6.25,8c0,0.807,0.178,1.581,0.529,2.3L5.431,10.958z"/>
</svg>






