<?xml version="1.0" encoding="iso-8859-1"?>
<svg version="1.1" id="&#x56FE;&#x5C42;_1" xmlns="http://www.w3.org/2000/svg" xmlns:xlink="http://www.w3.org/1999/xlink" x="0px"
	 y="0px" viewBox="0 0 24 24" style="enable-background:new 0 0 24 24;" xml:space="preserve">
<path style="fill:none;" d="M18,16c0-1.777-0.772-3.374-2-4.472C14.939,10.578,13.537,10,12,10s-2.939,0.578-4,1.528
	C6.773,12.626,6,14.223,6,16c0,3.314,2.686,6,6,6S18,19.314,18,16z"/>
<path style="fill:none;" d="M8,2h8v8v1.528C14.939,10.578,13.537,10,12,10s-2.939,0.578-4,1.528V10V2z"/>
<path style="fill:#333333;" d="M12,22.75c-3.722,0-6.75-3.028-6.75-6.75c0-1.804,0.725-3.532,2-4.796v-0.829l-4-3V1.25H8V2V1.25
	h12.75v6.125l-4,3v0.829c1.275,1.264,2,2.992,2,4.796C18.75,19.722,15.722,22.75,12,22.75z M8.007,11.536L8.5,12.087
	C7.388,13.082,6.75,14.508,6.75,16c0,2.895,2.355,5.25,5.25,5.25c2.895,0,5.25-2.355,5.25-5.25c0-1.492-0.638-2.918-1.75-3.913
	l0.492-0.551L15.5,12.087c-0.963-0.862-2.206-1.337-3.5-1.337s-2.537,0.475-3.5,1.337L8.007,11.536z M12,9.25
	c1.146,0,2.262,0.29,3.25,0.833V2.75h-6.5v7.333C9.738,9.54,10.854,9.25,12,9.25z M16.75,2.75V8.5l2.5-1.875V2.75H16.75z
	 M4.75,6.625L7.25,8.5V2.75h-2.5V6.625z"/>
<polygon style="fill:#333333;" points="16.45,10.6 15.55,9.4 19.25,6.625 19.25,2.75 16,2.75 16,1.25 20.75,1.25 20.75,7.375 "/>
<polygon style="fill:#333333;" points="7.55,10.6 3.25,7.375 3.25,1.25 8,1.25 8,2.75 4.75,2.75 4.75,6.625 8.45,9.4 "/>
<path style="fill:#333333;" d="M12,22.75c-3.722,0-6.75-3.028-6.75-6.75c0-1.918,0.82-3.752,2.25-5.031
	C8.738,9.86,10.336,9.25,12,9.25c1.664,0,3.262,0.61,4.5,1.719c1.43,1.279,2.25,3.113,2.25,5.031
	C18.75,19.722,15.722,22.75,12,22.75z M12,10.75c-1.294,0-2.537,0.475-3.5,1.337C7.388,13.082,6.75,14.508,6.75,16
	c0,2.895,2.355,5.25,5.25,5.25c2.895,0,5.25-2.355,5.25-5.25c0-1.492-0.638-2.918-1.75-3.913C14.537,11.225,13.294,10.75,12,10.75z"
	/>
<path style="fill:#333333;" d="M15.5,12.087c-0.963-0.862-2.206-1.337-3.5-1.337s-2.537,0.475-3.5,1.337l-1.25-0.559V1.25h9.5
	v10.278L15.5,12.087z M12,9.25c1.146,0,2.262,0.29,3.25,0.833V2.75h-6.5v7.333C9.738,9.54,10.854,9.25,12,9.25z"/>
<polygon style="fill:#333333;" points="13,19.25 12,19.25 12,18.5 12,19.25 11,19.25 11,17.75 11.25,17.75 11.25,14.5 
	10.665,13.329 12.75,12.286 12.75,17.75 13,17.75 "/>
</svg>






