<?xml version="1.0" encoding="iso-8859-1"?>
<svg version="1.1" id="&#x56FE;&#x5C42;_1" xmlns="http://www.w3.org/2000/svg" xmlns:xlink="http://www.w3.org/1999/xlink" x="0px"
	 y="0px" viewBox="0 0 24 24" style="enable-background:new 0 0 24 24;" xml:space="preserve">
<path style="fill:#333333;" d="M17.972,11.351c-0.951-1.799-2.636-3.062-4.621-3.466l-0.872-0.177l2.508-6.458h8.095l-3.744,10.013
	L17.972,11.351z M14.504,6.636c1.562,0.495,2.931,1.44,3.946,2.716l2.469-6.603h-4.905L14.504,6.636z"/>
<path style="fill:#333333;" d="M6.028,11.351l-1.366-0.088L0.919,1.25h8.094l2.508,6.458l-0.872,0.177
	C8.663,8.289,6.979,9.551,6.028,11.351z M3.081,2.75L5.55,9.353c1.016-1.276,2.384-2.221,3.946-2.716L7.987,2.75H3.081z"/>
<path style="fill:#333333;" d="M12,22.75c-4.549,0-8.25-3.701-8.25-8.25c0-1.342,0.329-2.673,0.952-3.851
	c1.162-2.198,3.22-3.741,5.648-4.234c1.083-0.219,2.22-0.219,3.299,0c2.428,0.493,4.486,2.037,5.648,4.234
	c0.623,1.178,0.952,2.509,0.952,3.851C20.25,19.049,16.549,22.75,12,22.75z M12,7.75c-0.454,0-0.909,0.045-1.351,0.135
	c-1.986,0.404-3.67,1.667-4.621,3.466C5.519,12.313,5.25,13.402,5.25,14.5c0,3.722,3.028,6.75,6.75,6.75
	c3.722,0,6.75-3.028,6.75-6.75c0-1.098-0.27-2.187-0.778-3.149c-0.951-1.799-2.636-3.062-4.621-3.466
	C12.909,7.795,12.454,7.75,12,7.75z"/>
<polygon style="fill:#333333;" points="14,18.25 12,18.25 12,17.5 12,18.25 10,18.25 10,16.75 11.25,16.75 11.25,12.041 
	10.737,12.212 10.263,10.789 12.75,9.959 12.75,16.75 14,16.75 "/>
</svg>






