<?xml version="1.0" encoding="iso-8859-1"?>
<svg version="1.1" id="&#x56FE;&#x5C42;_1" xmlns="http://www.w3.org/2000/svg" xmlns:xlink="http://www.w3.org/1999/xlink" x="0px"
	 y="0px" viewBox="0 0 24 24" style="enable-background:new 0 0 24 24;" xml:space="preserve">
<path style="fill:#333333;" d="M12,22.75c-6.028,0-10.75-2.525-10.75-5.75S5.972,11.25,12,11.25c6.028,0,10.75,2.525,10.75,5.75
	S18.028,22.75,12,22.75z M12,12.75c-5.533,0-9.25,2.197-9.25,4.25s3.717,4.25,9.25,4.25s9.25-2.197,9.25-4.25S17.533,12.75,12,12.75
	z"/>
<path style="fill:#333333;" d="M16,18.75c-0.965,0-1.75-0.785-1.75-1.75s0.785-1.75,1.75-1.75s1.75,0.785,1.75,1.75
	S16.965,18.75,16,18.75z M16,16.75c-0.138,0-0.25,0.112-0.25,0.25c0,0.275,0.5,0.275,0.5,0C16.25,16.862,16.138,16.75,16,16.75z"/>
<path style="fill:none;" d="M12,4.5L6.5,2v5L12,4.5z"/>
<path style="fill:#333333;" d="M7.25,17h-1.5V0.835l6.561,2.982v1.365l-5.061,2.3V17z M7.25,3.165v2.671L10.188,4.5L7.25,3.165z"/>
</svg>






