<?xml version="1.0" encoding="iso-8859-1"?>
<svg version="1.1" id="&#x56FE;&#x5C42;_1" xmlns="http://www.w3.org/2000/svg" xmlns:xlink="http://www.w3.org/1999/xlink" x="0px"
	 y="0px" viewBox="0 0 24 24" style="enable-background:new 0 0 24 24;" xml:space="preserve">
<path style="fill:#333333;" d="M11,6.75C9.483,6.75,8.25,5.517,8.25,4S9.483,1.25,11,1.25S13.75,2.483,13.75,4S12.517,6.75,11,6.75z
	 M11,2.75c-0.689,0-1.25,0.561-1.25,1.25S10.311,5.25,11,5.25S12.25,4.689,12.25,4S11.689,2.75,11,2.75z"/>
<polygon style="fill:#333333;" points="6.25,21.5 4.75,21.5 4.75,13.75 8.25,13.75 8.25,9.75 4,9.75 4,8.25 9.75,8.25 9.75,15.25 
	6.25,15.25 "/>
<polygon style="fill:#333333;" points="19.467,22.027 12.25,14.738 12.25,8.25 18.091,8.25 18.091,9.75 13.75,9.75 13.75,14.121 
	20.533,20.973 "/>
</svg>






