<?xml version="1.0" encoding="iso-8859-1"?>
<svg version="1.1" id="&#x56FE;&#x5C42;_1" xmlns="http://www.w3.org/2000/svg" xmlns:xlink="http://www.w3.org/1999/xlink" x="0px"
	 y="0px" viewBox="0 0 24 24" style="enable-background:new 0 0 24 24;" xml:space="preserve">
<path style="fill:#333333;" d="M15.754,22.75H9.503c-2.432,0-4.729-1.407-6.143-3.766c-1.595-2.657-1.606-6.564-0.028-9.721l0,0l0,0
	c2.143-4.286,6.521-6.126,9.719-7.47l0.904-0.383c0.686-0.295,1.358-0.192,1.844,0.281c0.878,0.854,0.891,2.708,0.399,3.936
	c-0.224,0.559-0.534,1.138-0.822,1.624h2.876c1.379,0,2.5,1.122,2.5,2.5c0,0.467-0.129,0.905-0.353,1.279
	c0.803,0.417,1.353,1.256,1.353,2.221c0,1.282-0.971,2.343-2.216,2.484c0.139,0.311,0.216,0.654,0.216,1.016
	c0,1.121-0.742,2.072-1.761,2.389c0.167,0.335,0.261,0.712,0.261,1.111C18.253,21.629,17.132,22.75,15.754,22.75z M14.701,2.744
	c-0.029,0-0.075,0.01-0.151,0.043l-0.917,0.388c-3.147,1.323-7.064,2.969-8.958,6.758l0,0c-1.358,2.716-1.369,6.043-0.028,8.279
	c1.69,2.818,4.145,3.037,4.856,3.037h6.251c0.551,0,0.999-0.448,0.999-1s-0.448-1-1-1v-1.5h1.5c0.552,0,1-0.448,1-1s-0.448-1-1-1
	v-1.5h2c0.552,0,1-0.448,1-1s-0.448-1-1-1h-1v-1.5c0.552,0,1-0.449,1-1s-0.448-1-1-1h-4.25l-0.61-1.186
	c0.009-0.013,0.954-1.345,1.414-2.495c0.357-0.895,0.224-2.035-0.054-2.305C14.744,2.756,14.732,2.744,14.701,2.744z"/>
</svg>






