<?xml version="1.0" encoding="iso-8859-1"?>
<svg version="1.1" id="&#x56FE;&#x5C42;_1" xmlns="http://www.w3.org/2000/svg" xmlns:xlink="http://www.w3.org/1999/xlink" x="0px"
	 y="0px" viewBox="0 0 24 24" style="enable-background:new 0 0 24 24;" xml:space="preserve">
<path style="fill:#333333;" d="M5,22.25H3.917c-0.915,0-1.665-0.688-1.744-1.598l-0.826-9.501C1.305,10.665,1.47,10.179,1.8,9.818
	S2.601,9.25,3.091,9.25H5c0.965,0,1.75,0.785,1.75,1.75v9.5C6.75,21.465,5.965,22.25,5,22.25z M3.091,10.75
	c-0.096,0-0.157,0.051-0.185,0.081c-0.027,0.03-0.073,0.095-0.064,0.19v0l0.826,9.501c0.011,0.13,0.119,0.228,0.25,0.228H5
	c0.138,0,0.25-0.112,0.25-0.25V11c0-0.138-0.112-0.25-0.25-0.25H3.091z"/>
<path style="fill:#333333;" d="M18.493,22.25H10c-0.965,0-1.75-0.785-1.75-1.75v-9.813c0-0.695,0.419-1.342,1.068-1.648
	c1.222-0.576,2.147-1.281,2.539-1.935c0.568-0.948,0.833-2.765,0.889-4.032c0.004-0.144,0.008-0.226,0.019-0.306
	c0.072-0.52,0.407-0.89,0.898-0.99c1.093-0.224,2.621,1.059,3.23,2.077c0.401,0.668,0.571,1.549,0.507,2.616
	c-0.049,0.79-0.268,1.522-0.479,2.23l-0.163,0.543h4.421c0.554,0,1.062,0.253,1.396,0.694s0.438,1,0.288,1.532l-2.685,9.507
	C19.965,21.727,19.272,22.25,18.493,22.25z M14.233,3.355c-0.054,0.92-0.268,3.149-1.09,4.521c-0.704,1.173-2.121,2.018-3.186,2.52
	c-0.124,0.059-0.208,0.176-0.208,0.292V20.5c0,0.138,0.112,0.25,0.25,0.25h8.493c0.111,0,0.211-0.075,0.241-0.183l2.685-9.507
	c0.029-0.104-0.013-0.182-0.041-0.219s-0.091-0.099-0.199-0.099h-6.437l0.729-2.434c0.208-0.695,0.394-1.313,0.431-1.931
	c0.046-0.748-0.057-1.354-0.296-1.753C15.271,4.062,14.644,3.564,14.233,3.355z"/>
</svg>






