<?xml version="1.0" encoding="iso-8859-1"?>
<svg version="1.1" id="&#x56FE;&#x5C42;_1" xmlns="http://www.w3.org/2000/svg" xmlns:xlink="http://www.w3.org/1999/xlink" x="0px"
	 y="0px" viewBox="0 0 24 24" style="enable-background:new 0 0 24 24;" xml:space="preserve">
<path style="fill:#333333;" d="M16.993,22.25H4c-0.965,0-1.75-0.785-1.75-1.75v-9.906c0-0.641,0.35-1.229,0.912-1.536l3.33-1.816
	c0.954-0.521,1.737-1.298,2.265-2.249l1.329-2.392c0.291-0.525,0.845-0.851,1.446-0.851h0.12c0.748,0,1.45,0.291,1.978,0.819
	c0.545,0.545,0.881,1.268,0.943,2.036l0.046,0.551c0.092,1.095,0.013,2.192-0.234,3.261L14.192,9.25h5.485
	c0.554,0,1.062,0.253,1.396,0.695c0.334,0.441,0.438,0.999,0.288,1.531l-2.685,9.5C18.466,21.726,17.772,22.25,16.993,22.25z
	 M11.532,3.25c-0.056,0-0.107,0.03-0.135,0.079l-1.329,2.393C9.402,6.92,8.414,7.901,7.21,8.558l-3.33,1.816
	c-0.08,0.044-0.13,0.128-0.13,0.22V20.5c0,0.138,0.112,0.25,0.25,0.25h12.993c0.113,0,0.21-0.073,0.241-0.183l2.685-9.5
	c0.029-0.104-0.013-0.182-0.041-0.218c-0.028-0.037-0.092-0.1-0.2-0.1h-5.74c-0.397,0-0.768-0.179-1.016-0.49
	c-0.247-0.311-0.338-0.711-0.248-1.099l0.25-1.083c0.212-0.917,0.279-1.859,0.201-2.799l-0.046-0.552
	c-0.034-0.414-0.216-0.804-0.51-1.099c-0.245-0.245-0.571-0.38-0.917-0.38H11.532z"/>
</svg>






