<?xml version="1.0" encoding="iso-8859-1"?>
<svg version="1.1" id="&#x56FE;&#x5C42;_1" xmlns="http://www.w3.org/2000/svg" xmlns:xlink="http://www.w3.org/1999/xlink" x="0px"
	 y="0px" viewBox="0 0 24 24" style="enable-background:new 0 0 24 24;" xml:space="preserve">
<g>
	<defs>
		<rect id="SVGID_1_" width="24" height="24"/>
	</defs>
	<clipPath id="SVGID_00000044860337781435262390000008017279423533324421_">
		<use xlink:href="#SVGID_1_"  style="overflow:visible;"/>
	</clipPath>
	<g style="clip-path:url(#SVGID_00000044860337781435262390000008017279423533324421_);">
		<path style="fill:#333333;" d="M17.965,22.095c-1.414,0-2.77-0.803-3.405-2.165L8.644,7.241C8.22,6.333,8.175,5.315,8.518,4.374
			c0.342-0.941,1.031-1.693,1.939-2.116c0.906-0.423,1.926-0.468,2.867-0.125s1.693,1.031,2.116,1.939l5.917,12.688
			c0.874,1.875,0.061,4.11-1.813,4.984C19.032,21.981,18.494,22.095,17.965,22.095z M12.04,3.405c-0.324,0-0.646,0.071-0.949,0.212
			c-0.544,0.254-0.958,0.705-1.163,1.27c-0.206,0.565-0.179,1.176,0.075,1.72l5.916,12.688c0.524,1.126,1.866,1.611,2.99,1.089
			c0.545-0.254,0.958-0.705,1.164-1.27c0.205-0.565,0.179-1.176-0.075-1.721L14.081,4.705c-0.254-0.545-0.705-0.958-1.27-1.164
			C12.561,3.45,12.3,3.405,12.04,3.405z"/>
		<path style="fill:#333333;" d="M6.035,22.094c-0.53,0-1.068-0.112-1.579-0.351c-1.874-0.874-2.688-3.109-1.813-4.984L8.507,4.183
			l1.359,0.634L4.002,17.394c-0.524,1.124-0.036,2.466,1.088,2.99c1.124,0.522,2.465,0.036,2.99-1.089l2.958-6.345l1.359,0.635
			L9.44,19.93C8.804,21.292,7.448,22.094,6.035,22.094z"/>
		<path style="fill:#333333;" d="M6.035,22.094c-0.53,0-1.068-0.112-1.579-0.351c-1.874-0.874-2.688-3.109-1.814-4.984
			c0.423-0.907,1.175-1.597,2.116-1.938c0.941-0.343,1.96-0.299,2.867,0.125c0.908,0.423,1.597,1.175,1.939,2.116
			c0.342,0.941,0.298,1.96-0.125,2.868C8.804,21.292,7.448,22.094,6.035,22.094z M6.042,16.093c-0.259,0-0.52,0.045-0.771,0.137
			c-0.564,0.206-1.016,0.619-1.27,1.164c-0.524,1.124-0.036,2.466,1.088,2.99c1.124,0.522,2.465,0.036,2.99-1.089
			c0.524-1.124,0.036-2.466-1.088-2.99l0,0C6.689,16.164,6.367,16.093,6.042,16.093z"/>
	</g>
</g>
</svg>






