<?xml version="1.0" encoding="iso-8859-1"?>
<svg version="1.1" id="&#x56FE;&#x5C42;_1" xmlns="http://www.w3.org/2000/svg" xmlns:xlink="http://www.w3.org/1999/xlink" x="0px"
	 y="0px" viewBox="0 0 24 24" style="enable-background:new 0 0 24 24;" xml:space="preserve">
<path style="fill:#333333;" d="M9.75,21.25h-8V2.75h8V21.25z M3.25,19.75h5V4.25h-5V19.75z"/>
<path style="fill:#333333;" d="M20,18.25h-6.5c-1.24,0-2.25-1.01-2.25-2.25V8c0-1.241,1.01-2.25,2.25-2.25H20
	c1.24,0,2.25,1.009,2.25,2.25v8C22.25,17.24,21.24,18.25,20,18.25z M13.5,7.25c-0.413,0-0.75,0.336-0.75,0.75v8
	c0,0.413,0.337,0.75,0.75,0.75H20c0.413,0,0.75-0.337,0.75-0.75V8c0-0.414-0.337-0.75-0.75-0.75H13.5z"/>
<path style="fill:#333333;" d="M16.75,14.75c-1.379,0-2.5-1.121-2.5-2.5c0-1.378,1.121-2.5,2.5-2.5s2.5,1.122,2.5,2.5
	C19.25,13.629,18.129,14.75,16.75,14.75z M16.75,11.25c-0.552,0-1,0.449-1,1c0,0.552,0.448,1,1,1s1-0.448,1-1
	C17.75,11.699,17.302,11.25,16.75,11.25z"/>
<rect x="9" y="11.25" style="fill:#333333;" width="3" height="1.5"/>
<path style="fill:#333333;" d="M5.75,7.5L5.75,7.5C6.44,7.5,7,8.06,7,8.75l0,0C7,9.44,6.44,10,5.75,10l0,0
	C5.06,10,4.5,9.44,4.5,8.75l0,0C4.5,8.06,5.06,7.5,5.75,7.5z"/>
</svg>






