<?xml version="1.0" encoding="iso-8859-1"?>
<svg version="1.1" id="&#x56FE;&#x5C42;_1" xmlns="http://www.w3.org/2000/svg" xmlns:xlink="http://www.w3.org/1999/xlink" x="0px"
	 y="0px" viewBox="0 0 24 24" style="enable-background:new 0 0 24 24;" xml:space="preserve">
<path style="fill:#333333;" d="M7.377,14.721C5.419,13.263,4.25,10.938,4.25,8.5c0-4.273,3.477-7.75,7.75-7.75s7.75,3.477,7.75,7.75
	c0,2.433-1.109,4.678-3.044,6.158l-0.912-1.191c1.561-1.194,2.456-3.004,2.456-4.967c0-3.446-2.804-6.25-6.25-6.25
	S5.75,5.054,5.75,8.5c0,1.995,0.919,3.824,2.522,5.018L7.377,14.721z"/>
<path style="fill:#333333;" d="M22,22.75H2l-0.603-1.196L12,7.24l10.603,14.314L22,22.75z M3.489,21.25h17.022L12,9.76L3.489,21.25z
	"/>
</svg>






