<?xml version="1.0" encoding="iso-8859-1"?>
<svg version="1.1" id="&#x56FE;&#x5C42;_1" xmlns="http://www.w3.org/2000/svg" xmlns:xlink="http://www.w3.org/1999/xlink" x="0px"
	 y="0px" viewBox="0 0 24 24" style="enable-background:new 0 0 24 24;" xml:space="preserve">
<path style="fill:#333333;" d="M12,7.75c-1.792,0-3.25-1.458-3.25-3.25S10.208,1.25,12,1.25s3.25,1.458,3.25,3.25
	S13.792,7.75,12,7.75z M12,2.75c-0.965,0-1.75,0.785-1.75,1.75S11.035,6.25,12,6.25s1.75-0.785,1.75-1.75S12.965,2.75,12,2.75z"/>
<path style="fill:#333333;" d="M12,22.75c-1.792,0-3.25-1.458-3.25-3.25s1.458-3.25,3.25-3.25s3.25,1.458,3.25,3.25
	S13.792,22.75,12,22.75z M12,17.75c-0.965,0-1.75,0.785-1.75,1.75s0.785,1.75,1.75,1.75s1.75-0.785,1.75-1.75S12.965,17.75,12,17.75
	z"/>
<path style="fill:#333333;" d="M7.75,15.25h-6.5v-6.5h6.5V15.25z M2.75,13.75h3.5v-3.5h-3.5V13.75z"/>
<path style="fill:#333333;" d="M22.75,15.25h-6.5v-6.5h6.5V15.25z M17.75,13.75h3.5v-3.5h-3.5V13.75z"/>
<polygon style="fill:#333333;" points="5.25,9.5 3.75,9.5 3.75,3.75 9.5,3.75 9.5,5.25 5.25,5.25 "/>
<polygon style="fill:#333333;" points="9.5,20.25 3.75,20.25 3.75,14.5 5.25,14.5 5.25,18.75 9.5,18.75 "/>
<polygon style="fill:#333333;" points="20.75,9.5 19.25,9.5 19.25,5.25 14.5,5.25 14.5,3.75 20.75,3.75 "/>
<polygon style="fill:#333333;" points="20.25,20.25 14.5,20.25 14.5,18.75 18.75,18.75 18.75,14.5 20.25,14.5 "/>
</svg>






