<?xml version="1.0" encoding="iso-8859-1"?>
<svg version="1.1" id="&#x56FE;&#x5C42;_1" xmlns="http://www.w3.org/2000/svg" xmlns:xlink="http://www.w3.org/1999/xlink" x="0px"
	 y="0px" viewBox="0 0 24 24" style="enable-background:new 0 0 24 24;" xml:space="preserve">
<path style="fill:#333333;" d="M12,13.061l-5.75-5.75V7c0-3.17,2.58-5.75,5.75-5.75c3.171,0,5.75,2.58,5.75,5.75v0.311L12,13.061z
	 M7.76,6.7l4.24,4.24l4.239-4.24C16.085,4.496,14.242,2.75,12,2.75C9.757,2.75,7.915,4.496,7.76,6.7z"/>
<path style="fill:#333333;" d="M7.311,17.75H7c-3.17,0-5.75-2.579-5.75-5.75c0-3.17,2.58-5.75,5.75-5.75h0.311l5.75,5.75
	L7.311,17.75z M6.7,7.76C4.496,7.915,2.75,9.757,2.75,12c0,2.242,1.746,4.085,3.95,4.239L10.939,12L6.7,7.76z"/>
<path style="fill:#333333;" d="M17,17.75h-0.311L10.939,12l5.75-5.75H17c3.171,0,5.75,2.58,5.75,5.75
	C22.75,15.171,20.171,17.75,17,17.75z M13.061,12l4.239,4.239c2.204-0.154,3.95-1.997,3.95-4.239c0-2.243-1.746-4.085-3.95-4.24
	L13.061,12z"/>
<path style="fill:#333333;" d="M12,22.75c-3.17,0-5.75-2.579-5.75-5.75v-0.311l5.75-5.75l5.75,5.75V17
	C17.75,20.171,15.171,22.75,12,22.75z M7.76,17.3c0.155,2.204,1.997,3.95,4.24,3.95c2.242,0,4.085-1.746,4.239-3.95L12,13.061
	L7.76,17.3z"/>
</svg>






