<?xml version="1.0" encoding="iso-8859-1"?>
<svg version="1.1" id="&#x56FE;&#x5C42;_1" xmlns="http://www.w3.org/2000/svg" xmlns:xlink="http://www.w3.org/1999/xlink" x="0px"
	 y="0px" viewBox="0 0 24 24" style="enable-background:new 0 0 24 24;" xml:space="preserve">
<path style="fill:#333333;" d="M20.48,8.3C19.008,4.929,15.679,2.75,12,2.75S4.992,4.929,3.52,8.3L2.145,7.7
	C3.856,3.782,7.725,1.25,12,1.25c4.275,0,8.144,2.532,9.855,6.45L20.48,8.3z"/>
<path style="fill:#333333;" d="M12.75,22h-1.5c0-2.492-0.977-4.83-2.75-6.581L8.3,15.222L8.279,14.94
	c-0.02-0.264-0.029-0.53-0.029-0.799c0-2.912,1.146-5.639,3.225-7.677L12,5.95l0.525,0.515c2.079,2.039,3.225,4.765,3.225,7.677
	c0,0.269-0.01,0.536-0.029,0.801l-0.021,0.279L15.5,15.419C13.727,17.171,12.75,19.508,12.75,22z M9.759,14.56
	c0.979,1.02,1.734,2.198,2.241,3.478c0.507-1.279,1.262-2.458,2.241-3.478c0.006-0.139,0.009-0.278,0.009-0.418
	c0-2.249-0.794-4.369-2.25-6.048c-1.457,1.679-2.25,3.799-2.25,6.048C9.75,14.281,9.753,14.421,9.759,14.56z"/>
<path style="fill:#333333;" d="M12.75,22.75H12C6.072,22.75,1.25,17.928,1.25,12v-0.75H2c2.847,0,5.529,1.102,7.554,3.103
	c2.061,2.034,3.196,4.751,3.196,7.647V22.75z M2.783,12.782c0.376,4.479,3.957,8.059,8.435,8.435
	c-0.183-2.195-1.131-4.231-2.717-5.798C6.945,13.883,4.938,12.962,2.783,12.782z"/>
<path style="fill:#333333;" d="M12,22.75h-0.75V22c0-2.896,1.135-5.612,3.195-7.647C16.47,12.352,19.153,11.25,22,11.25h0.75V12
	C22.75,17.928,17.928,22.75,12,22.75z M21.217,12.782c-2.155,0.18-4.162,1.101-5.717,2.637c-1.587,1.567-2.535,3.603-2.718,5.798
	C17.261,20.841,20.841,17.261,21.217,12.782z"/>
</svg>






