<?xml version="1.0" encoding="iso-8859-1"?>
<svg version="1.1" id="&#x56FE;&#x5C42;_1" xmlns="http://www.w3.org/2000/svg" xmlns:xlink="http://www.w3.org/1999/xlink" x="0px"
	 y="0px" viewBox="0 0 24 24" style="enable-background:new 0 0 24 24;" xml:space="preserve">
<path style="fill:#333333;" d="M19.65,21.75H4.35c-1.158,0-2.1-0.941-2.1-2.1V4.35c0-1.158,0.942-2.1,2.1-2.1h15.3
	c1.158,0,2.1,0.942,2.1,2.1v15.3C21.75,20.809,20.809,21.75,19.65,21.75z M4.35,3.75c-0.331,0-0.6,0.269-0.6,0.6v15.3
	c0,0.331,0.269,0.6,0.6,0.6h15.3c0.331,0,0.6-0.269,0.6-0.6V4.35c0-0.331-0.269-0.6-0.6-0.6H4.35z"/>
<rect x="6.75" y="3" style="fill:#333333;" width="1.5" height="18"/>
<rect x="3" y="7.75" style="fill:#333333;" width="18" height="1.5"/>
</svg>






