<?xml version="1.0" encoding="iso-8859-1"?>
<svg version="1.1" id="&#x56FE;&#x5C42;_1" xmlns="http://www.w3.org/2000/svg" xmlns:xlink="http://www.w3.org/1999/xlink" x="0px"
	 y="0px" viewBox="0 0 24 24" style="enable-background:new 0 0 24 24;" xml:space="preserve">
<path style="fill:#333333;" d="M12,22.75C6.072,22.75,1.25,17.928,1.25,12S6.072,1.25,12,1.25S22.75,6.072,22.75,12
	S17.928,22.75,12,22.75z M12,2.75c-5.101,0-9.25,4.149-9.25,9.25s4.149,9.25,9.25,9.25s9.25-4.149,9.25-9.25S17.101,2.75,12,2.75z"
	/>
<rect x="14.75" y="9" style="fill:#333333;" width="1.5" height="0.5"/>
<rect x="7.75" y="9" style="fill:#333333;" width="1.5" height="0.5"/>
<path style="fill:#333333;" d="M14.5,18.75h-5c-1.517,0-2.75-1.233-2.75-2.75s1.233-2.75,2.75-2.75h5c1.517,0,2.75,1.233,2.75,2.75
	S16.017,18.75,14.5,18.75z M9.5,14.75c-0.689,0-1.25,0.561-1.25,1.25s0.561,1.25,1.25,1.25h5c0.689,0,1.25-0.561,1.25-1.25
	s-0.561-1.25-1.25-1.25H9.5z"/>
</svg>






