<?xml version="1.0" encoding="iso-8859-1"?>
<svg version="1.1" id="&#x56FE;&#x5C42;_1" xmlns="http://www.w3.org/2000/svg" xmlns:xlink="http://www.w3.org/1999/xlink" x="0px"
	 y="0px" viewBox="0 0 24 24" style="enable-background:new 0 0 24 24;" xml:space="preserve">
<path style="fill:#333333;" d="M12,22.75C6.072,22.75,1.25,17.928,1.25,12S6.072,1.25,12,1.25S22.75,6.072,22.75,12
	S17.928,22.75,12,22.75z M12,2.75c-5.101,0-9.25,4.149-9.25,9.25s4.149,9.25,9.25,9.25s9.25-4.149,9.25-9.25S17.101,2.75,12,2.75z"
	/>
<path style="fill:#333333;" d="M12,18.25c-2.93,0-4.122-2.316-4.171-2.415L7.287,14.75h9.427l-0.543,1.085
	C16.121,15.934,14.93,18.25,12,18.25z M10.219,16.25c0.438,0.278,1.024,0.5,1.781,0.5s1.343-0.222,1.78-0.5H10.219z"/>
<path style="fill:#333333;" d="M9.773,10.685C9.77,10.67,9.377,9.25,8.5,9.25s-1.27,1.42-1.273,1.435l-1.455-0.367
	C6.011,9.364,6.854,7.75,8.5,7.75s2.489,1.614,2.728,2.568L9.773,10.685z"/>
<path style="fill:#333333;" d="M16.773,10.685C16.77,10.67,16.377,9.25,15.5,9.25s-1.27,1.42-1.273,1.435l-1.454-0.367
	C13.011,9.364,13.854,7.75,15.5,7.75s2.489,1.614,2.728,2.568L16.773,10.685z"/>
</svg>






