<?xml version="1.0" encoding="iso-8859-1"?>
<svg version="1.1" id="&#x56FE;&#x5C42;_1" xmlns="http://www.w3.org/2000/svg" xmlns:xlink="http://www.w3.org/1999/xlink" x="0px"
	 y="0px" viewBox="0 0 24 24" style="enable-background:new 0 0 24 24;" xml:space="preserve">
<path style="fill:#333333;" d="M6.75,6.75h-5.5v-5.5h5.5V6.75z M2.75,5.25h2.5v-2.5h-2.5V5.25z"/>
<path style="fill:#333333;" d="M22.75,22.75h-5.5v-5.5h5.5V22.75z M18.75,21.25h2.5v-2.5h-2.5V21.25z"/>
<path style="fill:#333333;" d="M6.75,22.75h-5.5v-5.5h5.5V22.75z M2.75,21.25h2.5v-2.5h-2.5V21.25z"/>
<path style="fill:#333333;" d="M22.75,6.75h-5.5v-5.5h5.5V6.75z M18.75,5.25h2.5v-2.5h-2.5V5.25z"/>
<rect x="3.25" y="6" style="fill:#333333;" width="1.5" height="12"/>
<rect x="19.25" y="6" style="fill:#333333;" width="1.5" height="12"/>
<rect x="6" y="3.25" style="fill:#333333;" width="12" height="1.5"/>
<rect x="6" y="19.25" style="fill:#333333;" width="12" height="1.5"/>
<path style="fill:#333333;" d="M16.75,16.75h-6.3v-3.2h-3.2v-6.3h6.3v3.2h3.2V16.75z M11.95,15.25h3.3v-3.3h-3.2v-3.2h-3.3v3.3h3.2
	V15.25z"/>
</svg>






