<?xml version="1.0" encoding="iso-8859-1"?>
<svg version="1.1" id="&#x56FE;&#x5C42;_1" xmlns="http://www.w3.org/2000/svg" xmlns:xlink="http://www.w3.org/1999/xlink" x="0px"
	 y="0px" viewBox="0 0 24 24" style="enable-background:new 0 0 24 24;" xml:space="preserve">
<path style="fill:#333333;" d="M12,11.75c-1.792,0-3.25-1.458-3.25-3.25S10.208,5.25,12,5.25s3.25,1.458,3.25,3.25
	S13.792,11.75,12,11.75z M12,6.75c-0.965,0-1.75,0.785-1.75,1.75s0.785,1.75,1.75,1.75s1.75-0.785,1.75-1.75S12.965,6.75,12,6.75z"
	/>
<polygon style="fill:#333333;" points="4.171,22.335 2.829,21.665 5.329,16.665 6.163,16.268 9.973,17.114 10.779,14.294 
	12.221,14.706 11.221,18.206 10.337,18.732 6.409,17.859 "/>
<polygon style="fill:#333333;" points="17,22.75 11.5,22.75 10.772,22.182 9.772,18.182 11.228,17.818 12.086,21.25 17,21.25 "/>
<polygon style="fill:#333333;" points="11.624,15.24 11.237,15.202 3.237,12.202 3.763,10.798 11.575,13.728 17.179,12.793 
	20.043,10.436 20.996,11.594 17.977,14.079 17.623,14.24 "/>
<path style="fill:#333333;" d="M21.439,7.998c-4.007-4.507-8.878-6.18-15.333-5.255L5.894,1.257
	c6.998-1.001,12.294,0.826,16.667,5.745L21.439,7.998z"/>
</svg>






