<?xml version="1.0" encoding="iso-8859-1"?>
<svg version="1.1" id="&#x56FE;&#x5C42;_1" xmlns="http://www.w3.org/2000/svg" xmlns:xlink="http://www.w3.org/1999/xlink" x="0px"
	 y="0px" viewBox="0 0 24 24" style="enable-background:new 0 0 24 24;" xml:space="preserve">
<path style="fill:#333333;" d="M13.5,12.75c-1.792,0-3.25-1.458-3.25-3.25s1.458-3.25,3.25-3.25s3.25,1.458,3.25,3.25
	S15.292,12.75,13.5,12.75z M13.5,7.75c-0.965,0-1.75,0.785-1.75,1.75s0.785,1.75,1.75,1.75s1.75-0.785,1.75-1.75
	S14.465,7.75,13.5,7.75z"/>
<polygon style="fill:#333333;" points="4.705,22.256 3.295,21.744 5.295,16.244 6.237,15.788 9.994,17.041 10.779,14.294 
	12.221,14.706 11.221,18.206 10.263,18.712 6.456,17.442 "/>
<path style="fill:#333333;" d="M17.505,22.75h-5.29c-0.806,0-1.504-0.547-1.698-1.33l-0.748-3.252l1.462-0.336l0.745,3.24
	C12,21.17,12.102,21.25,12.215,21.25h5.29V22.75z"/>
<polygon style="fill:#333333;" points="11.237,15.202 3.237,12.202 3.763,10.798 8.521,12.582 6.47,10.53 6.254,10.083 5.754,5.583 
	7.246,5.417 7.716,9.656 12.03,13.97 "/>
<path style="fill:#333333;" d="M22.75,16h-1.5c0-12.227-6.299-13.25-12.75-13.25H6v-1.5h2.5C13.48,1.25,22.75,1.25,22.75,16z"/>
</svg>






