<?xml version="1.0" encoding="iso-8859-1"?>
<svg version="1.1" id="&#x56FE;&#x5C42;_1" xmlns="http://www.w3.org/2000/svg" xmlns:xlink="http://www.w3.org/1999/xlink" x="0px"
	 y="0px" viewBox="0 0 24 24" style="enable-background:new 0 0 24 24;" xml:space="preserve">
<rect x="2.25" y="4" style="fill:#333333;" width="1.5" height="16"/>
<rect x="11.25" y="4" style="fill:#333333;" width="1.5" height="16"/>
<rect x="3.5" y="11.25" style="fill:#333333;" width="8" height="1.5"/>
<path style="fill:#333333;" d="M21,20.75h-5.75V20c0-1.549,1.332-2.828,2.62-4.066c1.17-1.124,2.38-2.286,2.38-3.434
	c0-1.194-1.044-1.75-1.75-1.75s-1.75,0.556-1.75,1.75h-1.5c0-2.007,1.687-3.25,3.25-3.25s3.25,1.243,3.25,3.25
	c0,1.786-1.444,3.174-2.841,4.516c-0.78,0.75-1.58,1.519-1.949,2.234H21V20.75z"/>
</svg>






