<?xml version="1.0" encoding="iso-8859-1"?>
<svg version="1.1" id="&#x56FE;&#x5C42;_1" xmlns="http://www.w3.org/2000/svg" xmlns:xlink="http://www.w3.org/1999/xlink" x="0px"
	 y="0px" viewBox="0 0 24 24" style="enable-background:new 0 0 24 24;" xml:space="preserve">
<rect x="2.25" y="4" style="fill:#333333;" width="1.5" height="16"/>
<rect x="11.25" y="4" style="fill:#333333;" width="1.5" height="16"/>
<rect x="3.5" y="11.25" style="fill:#333333;" width="8" height="1.5"/>
<path style="fill:#333333;" d="M18.5,20.75c-1.552,0-2.518-0.704-3.055-1.295l1.109-1.01c0.334,0.367,0.942,0.805,1.945,0.805
	c0.653,0,1.75-0.228,1.75-1.75c0-2.03-1.923-2.25-2.75-2.25l-0.592-1.211l2.559-3.289H16v-1.5h5l0.592,1.21l-2.687,3.454
	c1.766,0.443,2.845,1.754,2.845,3.586C21.75,19.745,20.118,20.75,18.5,20.75z"/>
</svg>






