<?xml version="1.0" encoding="iso-8859-1"?>
<svg version="1.1" id="&#x56FE;&#x5C42;_1" xmlns="http://www.w3.org/2000/svg" xmlns:xlink="http://www.w3.org/1999/xlink" x="0px"
	 y="0px" viewBox="0 0 24 24" style="enable-background:new 0 0 24 24;" xml:space="preserve">
<g>
	<defs>
		<rect id="SVGID_1_" width="24" height="24"/>
	</defs>
	<clipPath id="SVGID_00000130614069857665754570000012217898522738306723_">
		<use xlink:href="#SVGID_1_"  style="overflow:visible;"/>
	</clipPath>
	<g style="clip-path:url(#SVGID_00000130614069857665754570000012217898522738306723_);">
		<path style="fill:#333333;" d="M2.537,18.247l-0.475-1.422c0.024-0.009,2.414-0.812,4.223-1.791
			c1.758-0.952,2.095-1.227,3.672-5.343c1.479-3.86,5.318-7.052,9.337-7.76l0.26,1.478c-2.976,0.524-6.747,3.036-8.196,6.819
			c-1.6,4.175-2.129,4.919-4.358,6.125C5.073,17.396,2.64,18.213,2.537,18.247z"/>
		<path style="fill:#333333;" d="M12.582,18.812c-0.688,0-1.414-0.255-2.111-0.743c-1.153-0.808-3.56-1.898-5.266-0.873
			l-0.773-1.285c2.213-1.331,5.099-0.331,6.899,0.93c0.463,0.324,0.942,0.505,1.318,0.47c0.343-0.019,0.615-0.179,0.833-0.489
			c0.218-0.312,0.275-0.622,0.176-0.95c-0.112-0.371-0.429-0.754-0.893-1.078c-0.091-0.064-0.21-0.139-0.346-0.224
			c-1.08-0.679-3.609-2.271-2.45-4.911l1.374,0.603c-0.533,1.213,0.323,2.062,1.875,3.039c0.16,0.101,0.299,0.188,0.407,0.265
			c0.748,0.523,1.256,1.171,1.468,1.872c0.231,0.765,0.096,1.562-0.383,2.245c-0.478,0.683-1.181,1.083-1.979,1.127
			C12.683,18.812,12.632,18.812,12.582,18.812z"/>
		<path style="fill:#333333;" d="M13.087,13.847l-1.42-0.482c2.003-5.906,4.099-7.903,9.75-9.293l0.357,1.457
			C16.973,6.708,15.045,8.076,13.087,13.847z"/>
		<path style="fill:#333333;" d="M8.678,21.354c-0.112-1.765,1.082-4.387,1.133-4.498l1.363,0.627
			c-0.438,0.952-1.065,2.743-0.999,3.775L8.678,21.354z"/>
	</g>
</g>
</svg>






