<?xml version="1.0" encoding="iso-8859-1"?>
<svg version="1.1" id="&#x56FE;&#x5C42;_1" xmlns="http://www.w3.org/2000/svg" xmlns:xlink="http://www.w3.org/1999/xlink" x="0px"
	 y="0px" viewBox="0 0 24 24" style="enable-background:new 0 0 24 24;" xml:space="preserve">
<path style="fill:#333333;" d="M10.952,17.133c-0.977,0-1.793-0.3-2.384-0.891l1.061-1.061c0.536,0.536,1.588,0.597,2.89,0.162
	c1.494-0.498,3.104-1.56,4.535-2.99s2.492-3.042,2.99-4.536c0.434-1.3,0.374-2.353-0.162-2.889l1.061-1.061
	c0.967,0.967,1.153,2.538,0.524,4.424c-0.57,1.711-1.761,3.53-3.353,5.122s-3.41,2.782-5.121,3.353
	C12.259,17.012,11.573,17.133,10.952,17.133z"/>
<rect x="13.298" y="3.191" transform="matrix(0.7074 -0.7069 0.7069 0.7074 1.5019 11.0101)" style="fill:#333333;" width="1.5" height="1"/>
<rect x="10.823" y="5.666" transform="matrix(0.7071 -0.7071 0.7071 0.7071 -0.9703 9.9895)" style="fill:#333333;" width="1.5" height="1"/>
<rect x="8.702" y="8.495" transform="matrix(0.7071 -0.7071 0.7071 0.7071 -3.5918 9.3178)" style="fill:#333333;" width="1.5" height="1"/>
<rect x="7.995" y="12.03" transform="matrix(0.7071 -0.7071 0.7071 0.7071 -6.299 9.8534)" style="fill:#333333;" width="1.5" height="1"/>
<rect x="17.188" y="2.131" transform="matrix(0.7071 -0.7071 0.7071 0.7071 3.3935 13.4543)" style="fill:#333333;" width="1.5" height="1"/>
<rect x="16.834" y="6.227" transform="matrix(0.7069 -0.7074 0.7074 0.7069 0.0423 14.5562)" style="fill:#333333;" width="1.5" height="2"/>
<rect x="14.359" y="8.701" transform="matrix(0.7069 -0.7074 0.7074 0.7069 -2.4335 13.5312)" style="fill:#333333;" width="1.5" height="2"/>
<rect x="11.53" y="10.823" transform="matrix(0.7072 -0.707 0.707 0.7072 -4.7634 12.1434)" style="fill:#333333;" width="1.5" height="2"/>
<path style="fill:#333333;" d="M5.209,21.85c-0.576,0-1.152-0.219-1.59-0.656c-0.878-0.878-0.878-2.307,0-3.184l2.829-2.828
	c0.849-0.85,2.332-0.85,3.182,0l0,0c0,0,0,0,0,0c0.877,0.877,0.877,2.305,0,3.182L6.8,21.192C6.361,21.631,5.785,21.85,5.209,21.85z
	 M8.038,16.022c-0.2,0-0.389,0.078-0.53,0.22L4.679,19.07c-0.292,0.293-0.292,0.769,0,1.062c0.293,0.291,0.769,0.292,1.062-0.001
	l2.828-2.828c0.292-0.292,0.292-0.769,0-1.061h0C8.426,16.101,8.238,16.022,8.038,16.022z"/>
</svg>






