<?xml version="1.0" encoding="iso-8859-1"?>
<svg version="1.1" id="&#x56FE;&#x5C42;_1" xmlns="http://www.w3.org/2000/svg" xmlns:xlink="http://www.w3.org/1999/xlink" x="0px"
	 y="0px" viewBox="0 0 24 24" style="enable-background:new 0 0 24 24;" xml:space="preserve">
<path style="fill:#333333;" d="M9.033,22.75c-1.251,0-2.312-0.937-2.467-2.179l-1.187-9.494l1.488-0.187l1.187,9.495
	c0.062,0.493,0.482,0.864,0.979,0.864c0.287,0,0.55-0.118,0.74-0.334c0.19-0.215,0.275-0.49,0.239-0.775l-1.159-9.276l1.488-0.186
	l1.159,9.276c0.089,0.707-0.131,1.42-0.603,1.954S9.746,22.75,9.033,22.75z"/>
<path style="fill:#333333;" d="M6.5,11.75c-0.147,0-0.293-0.006-0.438-0.018C3.363,11.508,1.25,9.21,1.25,6.5
	c0-2.895,2.355-5.25,5.25-5.25l0.108,0.008L22.75,3.601v5.787L9.717,11.512C8.333,11.672,7.263,11.75,6.5,11.75z M6.448,2.75
	C4.404,2.778,2.75,4.45,2.75,6.5c0,1.936,1.509,3.577,3.435,3.737C6.289,10.246,6.394,10.25,6.5,10.25
	c0.706,0,1.719-0.075,3.011-0.223L21.25,8.112V4.899L6.448,2.75z"/>
<rect x="17.75" y="4.1" style="fill:#333333;" width="1.5" height="4.8"/>
<rect x="15.758" y="8.505" transform="matrix(0.9869 -0.1614 0.1614 0.9869 -1.2463 3.1726)" style="fill:#333333;" width="6.283" height="1.5"/>
<rect x="17.375" y="-0.228" transform="matrix(0.1437 -0.9896 0.9896 0.1437 11.872 21.0948)" style="fill:#333333;" width="1.5" height="7.831"/>
<path style="fill:#333333;" d="M6.5,8.75c-1.241,0-2.25-1.009-2.25-2.25S5.259,4.25,6.5,4.25S8.75,5.259,8.75,6.5
	S7.741,8.75,6.5,8.75z M6.5,5.75c-0.414,0-0.75,0.336-0.75,0.75S6.086,7.25,6.5,7.25S7.25,6.914,7.25,6.5S6.914,5.75,6.5,5.75z"/>
</svg>






