<?xml version="1.0" encoding="iso-8859-1"?>
<svg version="1.1" id="&#x56FE;&#x5C42;_1" xmlns="http://www.w3.org/2000/svg" xmlns:xlink="http://www.w3.org/1999/xlink" x="0px"
	 y="0px" viewBox="0 0 24 24" style="enable-background:new 0 0 24 24;" xml:space="preserve">
<path style="fill:#333333;" d="M16.603,14.146c-0.219,0-0.438-0.014-0.657-0.042L5.472,12.753c-0.41-0.052-0.722-0.405-0.722-0.822
	V6.069c0-0.417,0.312-0.771,0.725-0.822l10.47-1.351c1.464-0.188,2.946,0.263,4.057,1.24C21.113,6.112,21.75,7.521,21.75,9
	s-0.637,2.888-1.748,3.864C19.058,13.695,17.847,14.146,16.603,14.146z M6.25,11.34l9.887,1.276
	c1.044,0.138,2.088-0.186,2.875-0.878S20.25,10.048,20.25,9s-0.451-2.046-1.238-2.738c-0.787-0.691-1.83-1.012-2.875-0.878
	L6.25,6.66V11.34z M5.662,11.265l0.005,0C5.665,11.265,5.663,11.265,5.662,11.265z M5.669,6.734l-0.005,0
	C5.666,6.735,5.668,6.734,5.669,6.734z"/>
<polygon style="fill:#333333;" points="1.25,15.292 1.25,2.708 5.872,5.349 5.128,6.651 2.75,5.292 2.75,12.708 5.128,11.349 
	5.872,12.651 "/>
<path style="fill:#333333;" d="M13.317,22.75c-1.104,0-2.126-0.549-2.737-1.468c-0.61-0.919-0.718-2.074-0.29-3.091l2.518-5.982
	l1.383,0.582l-2.519,5.982c-0.236,0.561-0.179,1.172,0.158,1.679s0.878,0.798,1.487,0.798c0.719,0,1.365-0.429,1.645-1.093
	l3.347-7.948l1.383,0.582l-3.347,7.949C15.829,21.961,14.641,22.75,13.317,22.75z"/>
<path style="fill:#333333;" d="M17.5,14.25c-2.895,0-5.25-2.355-5.25-5.25s2.355-5.25,5.25-5.25S22.75,6.105,22.75,9
	S20.395,14.25,17.5,14.25z M17.5,5.25c-2.067,0-3.75,1.682-3.75,3.75s1.683,3.75,3.75,3.75s3.75-1.682,3.75-3.75
	S19.567,5.25,17.5,5.25z"/>
</svg>






