<?xml version="1.0" encoding="iso-8859-1"?>
<svg version="1.1" id="&#x56FE;&#x5C42;_1" xmlns="http://www.w3.org/2000/svg" xmlns:xlink="http://www.w3.org/1999/xlink" x="0px"
	 y="0px" viewBox="0 0 24 24" style="enable-background:new 0 0 24 24;" xml:space="preserve">
<path style="fill:#333333;" d="M12,14.75c-1.517,0-2.75-1.233-2.75-2.75S10.483,9.25,12,9.25s2.75,1.233,2.75,2.75
	S13.517,14.75,12,14.75z M12,10.75c-0.689,0-1.25,0.561-1.25,1.25s0.561,1.25,1.25,1.25s1.25-0.561,1.25-1.25S12.689,10.75,12,10.75
	z"/>
<path style="fill:#333333;" d="M7.585,9.157l-1.26-0.814c0.258-0.399,0.559-0.772,0.893-1.107c0.318-0.32,0.671-0.609,1.048-0.86
	l0.831,1.249C8.804,7.82,8.529,8.045,8.281,8.294C8.021,8.556,7.787,8.846,7.585,9.157z"/>
<path style="fill:#333333;" d="M5.361,13.226C5.287,12.824,5.25,12.412,5.25,12s0.037-0.825,0.111-1.226l1.476,0.271
	C6.779,11.357,6.75,11.678,6.75,12c0,0.321,0.029,0.643,0.086,0.954L5.361,13.226z"/>
<path style="fill:#333333;" d="M8.267,17.624c-0.378-0.252-0.731-0.541-1.048-0.859c-0.335-0.337-0.636-0.71-0.893-1.108
	l1.261-0.812c0.2,0.31,0.434,0.6,0.695,0.862c0.247,0.248,0.521,0.474,0.816,0.67L8.267,17.624z"/>
<path style="fill:#333333;" d="M12,18.75c-0.446,0-0.892-0.044-1.327-0.131l0.293-1.471c0.677,0.135,1.392,0.134,2.066,0
	l0.295,1.471C12.893,18.706,12.446,18.75,12,18.75z"/>
<path style="fill:#333333;" d="M15.732,17.625l-0.83-1.25c0.293-0.194,0.567-0.419,0.816-0.669c0.261-0.262,0.495-0.553,0.696-0.863
	l1.26,0.814c-0.258,0.398-0.559,0.771-0.894,1.107C16.461,17.086,16.108,17.375,15.732,17.625z"/>
<path style="fill:#333333;" d="M18.64,13.225l-1.477-0.27c0.058-0.314,0.087-0.636,0.087-0.955s-0.029-0.641-0.087-0.955l1.477-0.27
	c0.073,0.403,0.11,0.815,0.11,1.225S18.713,12.821,18.64,13.225z"/>
<path style="fill:#333333;" d="M16.415,9.158c-0.201-0.312-0.436-0.603-0.696-0.864c-0.25-0.25-0.524-0.476-0.816-0.669l0.83-1.25
	c0.374,0.249,0.728,0.538,1.049,0.86c0.334,0.335,0.635,0.708,0.894,1.107L16.415,9.158z"/>
<path style="fill:#333333;" d="M10.966,6.852l-0.293-1.471c0.869-0.175,1.785-0.174,2.654,0l-0.295,1.471
	C12.358,6.718,11.643,6.717,10.966,6.852z"/>
<path style="fill:#333333;" d="M10.794,22.683c-0.404-0.045-0.806-0.112-1.193-0.201c-0.373-0.085-0.737-0.189-1.095-0.312
	l0.488-1.418c0.307,0.105,0.621,0.194,0.941,0.268c0.335,0.077,0.677,0.135,1.025,0.174L10.794,22.683z M13.206,22.683l-0.166-1.49
	c0.347-0.039,0.689-0.097,1.023-0.174c0.321-0.073,0.636-0.162,0.942-0.268l0.488,1.418c-0.357,0.123-0.723,0.228-1.096,0.312
	C14.012,22.57,13.61,22.638,13.206,22.683z M18.37,20.66l-0.891-1.207c0.221-0.162,0.434-0.334,0.638-0.515
	c0.23-0.203,0.448-0.415,0.656-0.639l1.1,1.02c-0.241,0.261-0.496,0.508-0.763,0.743C18.874,20.271,18.626,20.471,18.37,20.66z
	 M5.63,20.66c-0.256-0.188-0.502-0.388-0.74-0.598c-0.267-0.236-0.521-0.482-0.762-0.743l1.1-1.02
	c0.208,0.224,0.427,0.437,0.655,0.639c0.204,0.18,0.417,0.352,0.638,0.515L5.63,20.66z M21.541,16.957l-1.33-0.693
	c0.135-0.258,0.257-0.523,0.367-0.795c0.1-0.248,0.19-0.502,0.27-0.762l1.436,0.434c-0.091,0.303-0.197,0.6-0.313,0.89
	C21.841,16.348,21.697,16.656,21.541,16.957z M2.458,16.956c-0.156-0.301-0.299-0.609-0.426-0.926
	c-0.117-0.288-0.223-0.585-0.315-0.888l1.435-0.438c0.08,0.26,0.169,0.514,0.271,0.763c0.11,0.273,0.233,0.539,0.367,0.797
	L2.458,16.956z M22.75,12h-1.5c0-0.312-0.016-0.621-0.046-0.925c-0.031-0.315-0.078-0.624-0.14-0.926l1.471-0.298
	c0.071,0.353,0.126,0.712,0.161,1.076C22.732,11.279,22.75,11.637,22.75,12z M2.75,12h-1.5c0-0.362,0.018-0.721,0.053-1.074
	c0.036-0.364,0.09-0.723,0.162-1.076l1.47,0.3c-0.062,0.303-0.108,0.612-0.14,0.924C2.765,11.379,2.75,11.688,2.75,12z M20.21,7.736
	c-0.119-0.23-0.248-0.455-0.387-0.674c-0.155-0.245-0.319-0.479-0.494-0.706l1.188-0.917c0.204,0.264,0.396,0.538,0.574,0.821
	c0.16,0.253,0.311,0.515,0.451,0.784L20.21,7.736z M3.789,7.736L2.458,7.044c0.14-0.269,0.291-0.53,0.451-0.785
	c0.18-0.284,0.371-0.557,0.575-0.821l1.187,0.917c-0.175,0.227-0.34,0.462-0.494,0.705C4.04,7.279,3.909,7.504,3.789,7.736z
	 M6.52,4.547L5.631,3.339c0.286-0.21,0.582-0.407,0.888-0.589C6.85,2.554,7.192,2.375,7.545,2.214l0.622,1.365
	C7.864,3.717,7.57,3.871,7.285,4.04C7.021,4.197,6.766,4.366,6.52,4.547z M17.479,4.547c-0.245-0.181-0.501-0.35-0.765-0.507
	c-0.284-0.168-0.579-0.322-0.882-0.46l0.621-1.365c0.354,0.161,0.695,0.34,1.026,0.536c0.307,0.182,0.604,0.379,0.89,0.59
	L17.479,4.547z M10.961,2.808l-0.168-1.49c0.792-0.09,1.623-0.09,2.414,0l-0.168,1.49C12.357,2.731,11.643,2.731,10.961,2.808z"/>
</svg>






