<?xml version="1.0" encoding="iso-8859-1"?>
<svg version="1.1" id="&#x56FE;&#x5C42;_1" xmlns="http://www.w3.org/2000/svg" xmlns:xlink="http://www.w3.org/1999/xlink" x="0px"
	 y="0px" viewBox="0 0 24 24" style="enable-background:new 0 0 24 24;" xml:space="preserve">
<path style="fill:#333333;" d="M20.75,11h-1.5v-0.5c0-3.998-3.252-7.25-7.25-7.25c-3.998,0-7.25,3.252-7.25,7.25V11h-1.5v-0.5
	c0-4.825,3.925-8.75,8.75-8.75c4.825,0,8.75,3.925,8.75,8.75V11z"/>
<path style="fill:#333333;" d="M12,21.993c-3.119,0-6.238-0.273-7.335-0.822c-2.07-1.035-1.795-3.363-1.361-4.449l1.393,0.557L4,17
	l0.698,0.275c-0.075,0.191-0.691,1.89,0.638,2.554c1.807,0.902,11.523,0.902,13.33,0c1.366-0.684,0.669-2.475,0.639-2.551
	l1.393-0.557c0.435,1.086,0.709,3.414-1.361,4.449C18.238,21.72,15.119,21.993,12,21.993z"/>
<path style="fill:#333333;" d="M18,18.25H6c-2.343,0-4.25-1.906-4.25-4.25c0-2.343,1.907-4.25,4.25-4.25h12
	c2.344,0,4.25,1.907,4.25,4.25C22.25,16.344,20.344,18.25,18,18.25z M6,11.25c-1.517,0-2.75,1.233-2.75,2.75S4.483,16.75,6,16.75h12
	c1.517,0,2.75-1.233,2.75-2.75s-1.233-2.75-2.75-2.75H6z"/>
<path style="fill:#333333;" d="M5.835,15.171l-0.67-1.342l0.796-0.397c0.955-0.479,2.074-0.525,3.068-0.128l0.212,0.085
	c0.46,0.184,0.979,0.162,1.423-0.06c0.827-0.413,1.794-0.452,2.652-0.11l0.48,0.192c0.427,0.172,0.904,0.148,1.313-0.055
	c0.872-0.436,1.91-0.434,2.778-0.001l0.947,0.474l-0.672,1.342l-0.946-0.474c-0.449-0.225-0.985-0.225-1.437,0
	c-0.793,0.398-1.72,0.436-2.542,0.106l-0.48-0.192c-0.459-0.184-0.978-0.162-1.423,0.06c-0.827,0.413-1.792,0.452-2.652,0.11
	l-0.213-0.085c-0.596-0.239-1.266-0.21-1.839,0.077L5.835,15.171z"/>
<circle style="fill:#333333;" cx="8.5" cy="7.525" r="1.25"/>
<circle style="fill:#333333;" cx="11.875" cy="6.15" r="1.25"/>
</svg>






