<?xml version="1.0" encoding="iso-8859-1"?>
<svg version="1.1" id="&#x56FE;&#x5C42;_1" xmlns="http://www.w3.org/2000/svg" xmlns:xlink="http://www.w3.org/1999/xlink" x="0px"
	 y="0px" viewBox="0 0 24 24" style="enable-background:new 0 0 24 24;" xml:space="preserve">
<path style="fill:#333333;" d="M7.75,12.75h-5.5V7c0-5.684,4.703-5.75,4.75-5.75h0.75V12.75z M3.75,11.25h2.5V2.868
	C5.28,3.142,3.75,4.041,3.75,7V11.25z"/>
<path style="fill:#333333;" d="M21.75,8.75H6.25v-4.5h15.5V8.75z M7.75,7.25h12.5v-1.5H7.75V7.25z"/>
<path style="fill:#333333;" d="M16.541,22.75H5.459l1-3H2.25v-5.5h19.5V15c0,1.643-0.784,4.75-3.75,4.75h-2.459L16.541,22.75z
	 M7.541,21.25h6.918l-1-3H18c1.552,0,2.033-1.538,2.183-2.5H3.75v2.5h4.791L7.541,21.25z"/>
</svg>






