<?xml version="1.0" encoding="iso-8859-1"?>
<svg version="1.1" id="&#x56FE;&#x5C42;_1" xmlns="http://www.w3.org/2000/svg" xmlns:xlink="http://www.w3.org/1999/xlink" x="0px"
	 y="0px" viewBox="0 0 24 24" style="enable-background:new 0 0 24 24;" xml:space="preserve">
<path style="fill:#333333;" d="M12,11.75c-2.895,0-5.25-2.355-5.25-5.25S9.105,1.25,12,1.25c2.895,0,5.25,2.355,5.25,5.25
	S14.895,11.75,12,11.75z M12,2.75c-2.068,0-3.75,1.682-3.75,3.75s1.682,3.75,3.75,3.75c2.067,0,3.75-1.682,3.75-3.75
	S14.067,2.75,12,2.75z"/>
<path style="fill:#333333;" d="M22.75,22h-1.5V3.875c0-0.62-0.505-1.125-1.125-1.125S19,3.254,19,3.875V14
	c0,0.823-0.375,1.259-0.69,1.48c-0.909,0.636-2.367,0.241-3.674-0.23c-1.358-0.489-2.624-0.5-2.637-0.5C6.091,14.75,3,19.47,3,22
	H1.5c0-3.653,3.995-8.75,10.5-8.75c0.062,0,1.529,0.007,3.146,0.59c1.817,0.657,2.237,0.46,2.303,0.412
	C17.474,14.234,17.5,14.142,17.5,14V3.875c0-1.448,1.178-2.625,2.625-2.625s2.625,1.178,2.625,2.625V22z"/>
<rect x="1" y="21.25" style="fill:#333333;" width="22" height="1.5"/>
</svg>






