<?xml version="1.0" encoding="iso-8859-1"?>
<svg version="1.1" id="&#x56FE;&#x5C42;_1" xmlns="http://www.w3.org/2000/svg" xmlns:xlink="http://www.w3.org/1999/xlink" x="0px"
	 y="0px" viewBox="0 0 24 24" style="enable-background:new 0 0 24 24;" xml:space="preserve">
<polygon style="fill:#333333;" points="21.75,22.75 2.25,22.75 2.25,9 3.75,9 3.75,21.25 20.25,21.25 20.25,9 21.75,9 "/>
<path style="fill:#333333;" d="M21.75,9.75H2.25v-8.5h19.5V9.75z M3.75,8.25h16.5v-5.5H3.75V8.25z"/>
<rect x="7.25" y="13.5" style="fill:#333333;" width="1.5" height="4"/>
<rect x="6" y="14.75" style="fill:#333333;" width="4" height="1.5"/>
<path style="fill:#333333;" d="M16,18.25c-1.517,0-2.75-1.233-2.75-2.75s1.233-2.75,2.75-2.75s2.75,1.233,2.75,2.75
	S17.517,18.25,16,18.25z M16,14.25c-0.689,0-1.25,0.561-1.25,1.25s0.561,1.25,1.25,1.25s1.25-0.561,1.25-1.25S16.689,14.25,16,14.25
	z"/>
</svg>






