<?xml version="1.0" encoding="iso-8859-1"?>
<svg version="1.1" id="&#x56FE;&#x5C42;_1" xmlns="http://www.w3.org/2000/svg" xmlns:xlink="http://www.w3.org/1999/xlink" x="0px"
	 y="0px" viewBox="0 0 24 24" style="enable-background:new 0 0 24 24;" xml:space="preserve">
<rect x="11.25" y="2" style="fill:#333333;" width="1.5" height="3.5"/>
<polygon style="fill:#333333;" points="15.25,8.5 13.75,8.5 13.75,6.25 10.25,6.25 10.25,8.5 8.75,8.5 8.75,4.75 15.25,4.75 "/>
<path style="fill:#333333;" d="M8.25,4h-1.5c0-1.67,1.236-2.75,3.15-2.75h5.6v1.5H9.9C8.805,2.75,8.25,3.17,8.25,4z"/>
<path style="fill:#333333;" d="M12,22.75H9.5c-2.895,0-5.25-2.355-5.25-5.25V13c0-2.895,2.355-5.25,5.25-5.25h5
	c2.895,0,5.25,2.355,5.25,5.25v0.488h-1.5V13c0-2.068-1.683-3.75-3.75-3.75h-5c-2.068,0-3.75,1.682-3.75,3.75v4.5
	c0,2.067,1.682,3.75,3.75,3.75H12V22.75z"/>
<path style="fill:#333333;" d="M17.75,22.75c-1.654,0-3-1.285-3-2.865c0-1.401,1.619-4.135,3-4.135s3,2.733,3,4.135
	C20.75,21.465,19.404,22.75,17.75,22.75z M17.75,17.273c-0.488,0.28-1.5,1.817-1.5,2.611c0,0.753,0.673,1.365,1.5,1.365
	s1.5-0.612,1.5-1.365C19.25,19.091,18.238,17.554,17.75,17.273z"/>
</svg>






