<?xml version="1.0" encoding="iso-8859-1"?>
<svg version="1.1" id="&#x56FE;&#x5C42;_1" xmlns="http://www.w3.org/2000/svg" xmlns:xlink="http://www.w3.org/1999/xlink" x="0px"
	 y="0px" viewBox="0 0 24 24" style="enable-background:new 0 0 24 24;" xml:space="preserve">
<path style="fill:#333333;" d="M15.276,5.75h-12.5v-4.5h12.5V5.75z M4.276,4.25h9.5v-1.5h-9.5V4.25z"/>
<path style="fill:#333333;" d="M13.027,22.75c-1.244,0-2.255-1.01-2.255-2.252v-3.36c-3.678-0.558-5.553-0.847-5.884-0.906
	c-0.785-0.141-2.112-0.882-2.112-2.766V4.25h12.08l0.223,0.244c3.247,3.546,5.141,5.637,5.63,6.213
	c0.537,0.632,0.685,1.342,0.403,1.948c-0.231,0.5-0.829,1.097-2.362,1.097c-1.276,0-2.198-0.931-2.939-1.678
	c-0.175-0.177-0.36-0.364-0.54-0.525c-0.001,1.266-0.001,3.838,0.004,8.948C15.276,21.738,14.268,22.749,13.027,22.75z M4.276,5.75
	v7.715c0,1.077,0.73,1.263,0.876,1.289c0.332,0.06,2.453,0.386,6.482,0.997l0.638,0.097v4.649c0,0.415,0.337,0.752,0.752,0.752
	c0.2,0,0.39-0.078,0.531-0.221c0.142-0.142,0.219-0.33,0.219-0.53c-0.011-10.481-0.011-10.481,0.272-10.716l0.209-0.173h0.271
	c0.954,0,1.664,0.716,2.351,1.409c0.601,0.606,1.222,1.233,1.873,1.233c0.724,0,0.975-0.18,1.002-0.228
	c0.002-0.019-0.017-0.147-0.186-0.347c-0.467-0.549-2.272-2.542-5.37-5.927H4.276z"/>
</svg>






