<?xml version="1.0" encoding="iso-8859-1"?>
<svg version="1.1" id="&#x56FE;&#x5C42;_1" xmlns="http://www.w3.org/2000/svg" xmlns:xlink="http://www.w3.org/1999/xlink" x="0px"
	 y="0px" viewBox="0 0 24 24" style="enable-background:new 0 0 24 24;" xml:space="preserve">
<path style="fill:#333333;" d="M12,22.75C6.072,22.75,1.25,17.928,1.25,12S6.072,1.25,12,1.25S22.75,6.072,22.75,12
	S17.928,22.75,12,22.75z M12,2.75c-5.101,0-9.25,4.149-9.25,9.25s4.149,9.25,9.25,9.25s9.25-4.149,9.25-9.25S17.101,2.75,12,2.75z"
	/>
<rect x="3.458" y="10.25" transform="matrix(0.4141 -0.9102 0.9102 0.4141 -4.4465 15.0921)" style="fill:#333333;" width="12.083" height="1.5"/>
<rect x="9" y="12.25" style="fill:#333333;" width="6" height="1.5"/>
<rect x="13.75" y="4.958" transform="matrix(0.9104 -0.4138 0.4138 0.9104 -3.2521 6.9861)" style="fill:#333333;" width="1.5" height="12.083"/>
</svg>






