<?xml version="1.0" encoding="iso-8859-1"?>
<svg version="1.1" id="&#x56FE;&#x5C42;_1" xmlns="http://www.w3.org/2000/svg" xmlns:xlink="http://www.w3.org/1999/xlink" x="0px"
	 y="0px" viewBox="0 0 24 24" style="enable-background:new 0 0 24 24;" xml:space="preserve">
<path style="fill:#333333;" d="M5.763,21.236h-4.5v-12.5h4.5V21.236z M2.763,19.736h1.5v-9.5h-1.5V19.736z"/>
<path style="fill:#333333;" d="M13.479,21.237H4.263V9.157l0.244-0.223c3.607-3.301,5.639-5.142,6.213-5.629
	c0.631-0.536,1.341-0.683,1.949-0.403c0.5,0.231,1.097,0.83,1.097,2.362c0,1.277-0.931,2.199-1.679,2.94
	c-0.177,0.175-0.363,0.36-0.524,0.54c1.514,0.001,4.507,0,8.947-0.004c0.001,0,0.002,0,0.003,0c1.24,0,2.25,1.008,2.251,2.248
	c0,1.244-1.011,2.255-2.253,2.255h-3.359c-0.54,3.559-0.845,5.537-0.907,5.885C16.104,19.91,15.362,21.237,13.479,21.237z
	 M5.763,19.737h7.716c1.076,0,1.262-0.73,1.288-0.877c0.044-0.243,0.252-1.564,0.998-6.481l0.097-0.638h4.648
	c0.415,0,0.753-0.337,0.753-0.752c0-0.2-0.078-0.389-0.221-0.531c-0.142-0.142-0.33-0.219-0.53-0.219h-0.001
	c-10.494,0.01-10.492,0.01-10.727-0.286L9.623,9.748V9.487c0-0.954,0.716-1.664,1.409-2.35c0.606-0.601,1.234-1.222,1.234-1.874
	c0-0.724-0.18-0.974-0.228-1.001c-0.016-0.005-0.145,0.013-0.348,0.186c-0.539,0.458-2.533,2.264-5.927,5.37V19.737z"/>
</svg>






