<?xml version="1.0" encoding="iso-8859-1"?>
<svg version="1.1" id="&#x56FE;&#x5C42;_1" xmlns="http://www.w3.org/2000/svg" xmlns:xlink="http://www.w3.org/1999/xlink" x="0px"
	 y="0px" viewBox="0 0 24 24" style="enable-background:new 0 0 24 24;" xml:space="preserve">
<path style="fill:#333333;" d="M22.75,21.25h-4.5V8.75h4.5V21.25z M19.75,19.75h1.5v-9.5h-1.5V19.75z"/>
<path style="fill:#333333;" d="M19.75,21.25h-9.716c-1.883,0-2.624-1.328-2.765-2.113c-0.061-0.338-0.357-2.265-0.906-5.883H3.502
	c-1.242,0-2.252-1.01-2.252-2.252c0-0.603,0.235-1.167,0.661-1.592C2.335,8.985,2.9,8.752,3.5,8.752c0.001,0,0.002,0,0.003,0
	c4.452,0.004,7.448,0.007,8.962,0.004c-0.164-0.187-0.354-0.378-0.536-0.561c-0.743-0.749-1.668-1.681-1.668-2.956
	c0-1.536,0.597-2.134,1.098-2.365c0.608-0.279,1.318-0.132,1.949,0.405c0.579,0.493,2.608,2.348,6.201,5.67l0.241,0.223V21.25z
	 M3.5,10.252c-0.2,0-0.389,0.078-0.53,0.219s-0.22,0.33-0.22,0.53c0,0.415,0.337,0.752,0.752,0.752h4.151l0.097,0.638
	c0.6,3.961,0.935,6.142,0.996,6.479c0.026,0.147,0.212,0.879,1.289,0.879h8.216V9.828c-3.382-3.126-5.371-4.945-5.915-5.407
	c-0.196-0.167-0.322-0.193-0.352-0.184c-0.042,0.025-0.222,0.276-0.222,1.002c0,0.657,0.626,1.289,1.233,1.899
	c0.688,0.693,1.399,1.411,1.399,2.362v0.286l-0.189,0.213C13.969,10.263,13.973,10.266,3.5,10.252L3.5,10.252z"/>
</svg>






