<?xml version="1.0" encoding="iso-8859-1"?>
<svg version="1.1" id="&#x56FE;&#x5C42;_1" xmlns="http://www.w3.org/2000/svg" xmlns:xlink="http://www.w3.org/1999/xlink" x="0px"
	 y="0px" viewBox="0 0 24 24" style="enable-background:new 0 0 24 24;" xml:space="preserve">
<path style="fill:#333333;" d="M18.25,8.75h-12V7c0-2.068,1.682-3.75,3.75-3.75h4.5c2.067,0,3.75,1.682,3.75,3.75V8.75z M7.75,7.25
	h9V7c0-1.241-1.01-2.25-2.25-2.25H10C8.759,4.75,7.75,5.759,7.75,7V7.25z"/>
<path style="fill:#333333;" d="M21,20.75H3c-0.965,0-1.75-0.785-1.75-1.75v-7.46l10.689,2.672c0.041,0.01,0.081,0.01,0.12,0
	l10.69-2.672V19C22.75,19.965,21.965,20.75,21,20.75z M2.75,13.461V19c0,0.138,0.112,0.25,0.25,0.25h18
	c0.138,0,0.25-0.112,0.25-0.25v-5.539l-8.826,2.206c-0.278,0.07-0.571,0.069-0.85,0L2.75,13.461z"/>
<path style="fill:#333333;" d="M22.75,13.5h-1.5V9c0-0.138-0.112-0.25-0.25-0.25H3C2.862,8.75,2.75,8.862,2.75,9v4.5h-1.5V9
	c0-0.965,0.785-1.75,1.75-1.75h18c0.965,0,1.75,0.785,1.75,1.75V13.5z"/>
<path style="fill:#333333;" d="M13.25,11.5c0,0.69-0.56,1.25-1.25,1.25s-1.25-0.56-1.25-1.25s0.56-1.25,1.25-1.25
	S13.25,10.81,13.25,11.5z"/>
</svg>






