<?xml version="1.0" encoding="iso-8859-1"?>
<svg version="1.1" id="&#x56FE;&#x5C42;_1" xmlns="http://www.w3.org/2000/svg" xmlns:xlink="http://www.w3.org/1999/xlink" x="0px"
	 y="0px" viewBox="0 0 24 24" style="enable-background:new 0 0 24 24;" xml:space="preserve">
<path style="fill:#333333;" d="M21.25,22.75H8.75v-4.5h12.5V22.75z M10.25,21.25h9.5v-1.5h-9.5V21.25z"/>
<path style="fill:#333333;" d="M21.25,19.75H9.17l-0.223-0.244c-3.308-3.614-5.15-5.647-5.63-6.213
	c-0.536-0.632-0.683-1.342-0.403-1.948c0.231-0.5,0.829-1.097,2.362-1.097c1.277,0,2.199,0.93,2.939,1.678
	c0.175,0.178,0.36,0.364,0.54,0.525c0.001-1.303,0.001-3.926-0.004-8.948c0-1.241,1.008-2.251,2.248-2.253
	c1.244,0,2.254,1.01,2.254,2.252v3.36c3.622,0.55,5.55,0.847,5.885,0.907c0.784,0.141,2.111,0.881,2.111,2.765V19.75z M9.83,18.25
	h9.92v-7.716c0-1.077-0.73-1.262-0.877-1.289c-0.336-0.061-2.517-0.396-6.481-0.997l-0.638-0.097v-4.65
	c0-0.415-0.337-0.752-0.752-0.752c-0.414,0-0.75,0.337-0.75,0.751c0.011,10.492,0.011,10.492-0.286,10.727l-0.205,0.162H9.5
	c-0.954,0-1.664-0.717-2.35-1.409c-0.601-0.606-1.222-1.233-1.874-1.233c-0.724,0-0.974,0.179-1.001,0.227
	c-0.002,0.019,0.017,0.148,0.186,0.347C4.918,12.861,6.675,14.802,9.83,18.25z"/>
</svg>






