<?xml version="1.0" encoding="iso-8859-1"?>
<svg version="1.1" id="&#x56FE;&#x5C42;_1" xmlns="http://www.w3.org/2000/svg" xmlns:xlink="http://www.w3.org/1999/xlink" x="0px"
	 y="0px" viewBox="0 0 24 24" style="enable-background:new 0 0 24 24;" xml:space="preserve">
<path style="fill:#333333;" d="M12,22.75C6.072,22.75,1.25,17.928,1.25,12S6.072,1.25,12,1.25S22.75,6.072,22.75,12
	S17.928,22.75,12,22.75z M12,2.75c-5.101,0-9.25,4.149-9.25,9.25s4.149,9.25,9.25,9.25s9.25-4.149,9.25-9.25S17.101,2.75,12,2.75z"
	/>
<path style="fill:#333333;" d="M12.396,12.25H8.25v-6.5h4.146c1.85,0,3.354,1.458,3.354,3.25S14.245,12.25,12.396,12.25z
	 M9.75,10.75h2.646c1.022,0,1.854-0.785,1.854-1.75s-0.832-1.75-1.854-1.75H9.75V10.75z"/>
<path style="fill:#333333;" d="M13.415,18.25H8.25v-7.5h5.165c1.839,0,3.335,1.683,3.335,3.75S15.254,18.25,13.415,18.25z
	 M9.75,16.75h3.665c1.012,0,1.835-1.01,1.835-2.25s-0.823-2.25-1.835-2.25H9.75V16.75z"/>
</svg>






