<?xml version="1.0" encoding="iso-8859-1"?>
<svg version="1.1" id="&#x56FE;&#x5C42;_1" xmlns="http://www.w3.org/2000/svg" xmlns:xlink="http://www.w3.org/1999/xlink" x="0px"
	 y="0px" viewBox="0 0 24 24" style="enable-background:new 0 0 24 24;" xml:space="preserve">
<path style="fill:#333333;" d="M14.008,22.75H8.25c-2.78,0-5.496-3.954-5.496-6.25c0-1.61,0.543-2.797,1.614-3.528l0.846,1.238
	c-0.646,0.441-0.959,1.19-0.959,2.29c0,1.763,2.271,4.75,3.996,4.75h5.757c1.797,0,2.79-1.608,2.79-2.72V12.3
	c0-0.482-0.393-0.875-0.874-0.876c-0.215,0.004-0.449,0.089-0.614,0.252c-0.164,0.164-0.254,0.381-0.255,0.612l-1.5,0.054
	c0.001-0.689,0.249-1.284,0.697-1.729c0.447-0.444,1.039-0.688,1.668-0.688c0.003,0,0.006,0,0.009,0
	c1.306,0.003,2.369,1.069,2.369,2.376v6.23C18.298,20.568,16.574,22.75,14.008,22.75z"/>
<path style="fill:#333333;" d="M6.241,14.723h-1.5V3.831c0-1.3,1.058-2.358,2.358-2.358c1.301,0,2.359,1.058,2.359,2.358v7.993h-1.5
	V3.831c0-0.473-0.385-0.858-0.859-0.858c-0.473,0-0.858,0.385-0.858,0.858V14.723z"/>
<path style="fill:#333333;" d="M12.262,12.214h-1.5v-2.31c0-0.36-0.292-0.652-0.652-0.652c-0.36,0-0.652,0.292-0.652,0.652V12h-1.5
	V9.904c0-1.187,0.965-2.152,2.152-2.152c1.187,0,2.152,0.965,2.152,2.152V12.214z"/>
<path style="fill:#333333;" d="M15.055,12.502h-1.5v-1.598c0-0.36-0.293-0.652-0.652-0.652s-0.652,0.292-0.652,0.652v1.425h-1.5
	v-1.425c0-1.187,0.965-2.152,2.152-2.152c1.187,0,2.152,0.965,2.152,2.152V12.502z"/>
<rect x="5.5" y="3.25" style="fill:#333333;" width="15" height="1.5"/>
<polygon style="fill:#333333;" points="18.502,6.807 17.498,5.693 19.379,4 17.498,2.307 18.502,1.193 21.621,4 "/>
</svg>






