<?xml version="1.0" encoding="iso-8859-1"?>
<svg version="1.1" id="&#x56FE;&#x5C42;_1" xmlns="http://www.w3.org/2000/svg" xmlns:xlink="http://www.w3.org/1999/xlink" x="0px"
	 y="0px" viewBox="0 0 24 24" style="enable-background:new 0 0 24 24;" xml:space="preserve">
<path style="fill:#333333;" d="M12,22.75C6.072,22.75,1.25,17.928,1.25,12S6.072,1.25,12,1.25S22.75,6.072,22.75,12
	S17.928,22.75,12,22.75z M12,2.75c-5.101,0-9.25,4.149-9.25,9.25s4.149,9.25,9.25,9.25s9.25-4.149,9.25-9.25S17.101,2.75,12,2.75z"
	/>
<path style="fill:#333333;" d="M15.895,12.25h-7.93l-0.174-0.506c-0.388-1.131-0.346-3.2,1.421-3.936l0,0
	c0.657-0.273,1.356-0.426,1.974-0.561c0.501-0.109,1.339-0.292,1.458-0.473c-0.002-0.468,0.25-0.835,0.654-0.97
	c0.919-0.31,2.026,0.763,2.539,1.443c1.145,1.518,1.25,3.266,0.281,4.678L15.895,12.25z M9.112,10.75h5.959
	c0.269-0.558,0.278-1.158,0.028-1.791c-0.266-0.674-0.753-1.203-1.117-1.486c-0.401,0.786-1.492,1.024-2.478,1.239
	c-0.582,0.127-1.185,0.258-1.716,0.48C9.138,9.463,9.062,10.216,9.112,10.75z"/>
<path style="fill:#333333;" d="M18.25,16.25H5.75v-5.5h12.5V16.25z M7.25,14.75h9.5v-2.5h-9.5V14.75z"/>
</svg>






