<?xml version="1.0" encoding="iso-8859-1"?>
<svg version="1.1" id="&#x56FE;&#x5C42;_1" xmlns="http://www.w3.org/2000/svg" xmlns:xlink="http://www.w3.org/1999/xlink" x="0px"
	 y="0px" viewBox="0 0 24 24" style="enable-background:new 0 0 24 24;" xml:space="preserve">
<path style="fill:#333333;" d="M6.25,22.75h-5v-11.5h5V22.75z M2.75,21.25h2v-8.5h-2V21.25z"/>
<path style="fill:#333333;" d="M18,10.062c-1.191,0-2.223-0.677-2.689-1.767c-0.888-2.071,1.607-5.178,2.117-5.78L18,1.839
	l0.572,0.677c0.51,0.602,3.005,3.708,2.117,5.78C20.223,9.385,19.191,10.062,18,10.062z M18,4.226
	c-0.85,1.196-1.629,2.736-1.311,3.479c0.23,0.537,0.72,0.858,1.311,0.858s1.08-0.321,1.311-0.858C19.629,6.962,18.85,5.422,18,4.226
	z"/>
<path style="fill:#333333;" d="M15.5,22c-2.771,0-5.146-0.457-7.054-0.823C7.256,20.947,6.229,20.75,5.5,20.75H4.75v-6.5H5.5
	c1.978,0,2.558-0.407,3.292-0.922c0.488-0.342,1.041-0.729,1.971-1.04c1.636-0.544,3.143-0.417,4.029,0.342
	c0.581,0.497,0.829,1.205,0.698,1.993c-0.117,0.7-0.573,1.364-1.103,1.925c0.925-0.221,1.373-0.62,2.023-1.199
	c0.323-0.287,0.681-0.605,1.139-0.948c1.386-1.039,2.938-1.341,4.047-0.784c0.733,0.366,1.153,1.053,1.153,1.884
	C22.75,17.29,20.521,22,15.5,22z M6.25,19.292c0.722,0.073,1.555,0.233,2.479,0.411c1.845,0.355,4.142,0.797,6.771,0.797
	c4.021,0,5.75-3.795,5.75-5c0-0.26-0.103-0.432-0.323-0.542c-0.486-0.243-1.438-0.137-2.477,0.642
	c-0.419,0.314-0.746,0.606-1.042,0.87c-1.277,1.137-2.158,1.78-5.408,1.78l-0.386-1.393c0.719-0.434,2.251-1.61,2.396-2.48
	c0.059-0.347-0.082-0.513-0.192-0.607c-0.385-0.328-1.331-0.475-2.58-0.058c-0.723,0.24-1.141,0.534-1.584,0.845
	c-0.746,0.522-1.513,1.061-3.403,1.172V19.292z"/>
</svg>






