<?xml version="1.0" encoding="iso-8859-1"?>
<svg version="1.1" id="&#x56FE;&#x5C42;_1" xmlns="http://www.w3.org/2000/svg" xmlns:xlink="http://www.w3.org/1999/xlink" x="0px"
	 y="0px" viewBox="0 0 24 24" style="enable-background:new 0 0 24 24;" xml:space="preserve">
<path style="fill:#333333;" d="M12,22.75C6.072,22.75,1.25,17.928,1.25,12S6.072,1.25,12,1.25S22.75,6.072,22.75,12
	S17.928,22.75,12,22.75z M12,2.75c-5.101,0-9.25,4.149-9.25,9.25s4.149,9.25,9.25,9.25s9.25-4.149,9.25-9.25S17.101,2.75,12,2.75z"
	/>
<path style="fill:#333333;" d="M11.958,18.25c-2.598,0-5.437-2.143-5.688-5.729c-0.247-3.516,2.026-6.479,5.176-6.747
	c2.762-0.232,4.511,1.244,5.228,2.704L15.327,9.14c-0.173-0.351-1.172-2.091-3.755-1.87C9.21,7.47,7.573,9.683,7.765,12.416
	c0.191,2.713,2.281,4.334,4.192,4.334c2.223,0,3.358-1.766,3.406-1.841l1.276,0.788C16.575,15.802,15.036,18.25,11.958,18.25z"/>
</svg>






