<?xml version="1.0" encoding="iso-8859-1"?>
<svg version="1.1" id="&#x56FE;&#x5C42;_1" xmlns="http://www.w3.org/2000/svg" xmlns:xlink="http://www.w3.org/1999/xlink" x="0px"
	 y="0px" viewBox="0 0 24 24" style="enable-background:new 0 0 24 24;" xml:space="preserve">
<path style="fill:#333333;" d="M18.25,22.75H5.75v-7.786l-4.124-2.062l2.225-8.899L8.806,1.25h6.389l4.954,2.752l2.225,8.899
	l-4.123,2.062V22.75z M7.25,21.25h9.5v-7.214l3.877-1.938l-1.775-7.101L14.806,2.75H9.194L5.149,4.998l-1.775,7.101l3.876,1.938
	V21.25z"/>
<rect x="9.75" y="1.602" transform="matrix(0.8682 -0.4961 0.4961 0.8682 -0.9112 5.8188)" style="fill:#333333;" width="1.5" height="6.047"/>
<polygon style="fill:#333333;" points="7.098,14.953 5.902,14.047 11.402,6.797 14.349,1.628 15.651,2.372 12.651,7.622 "/>
</svg>






