<?xml version="1.0" encoding="iso-8859-1"?>
<svg version="1.1" id="&#x56FE;&#x5C42;_1" xmlns="http://www.w3.org/2000/svg" xmlns:xlink="http://www.w3.org/1999/xlink" x="0px"
	 y="0px" viewBox="0 0 24 24" style="enable-background:new 0 0 24 24;" xml:space="preserve">
<path style="fill:#333333;" d="M20.703,21.75H3.296c-1.128,0-2.046-0.918-2.046-2.047c0-0.695,0.348-1.336,0.931-1.716l7.776-5.054
	c1.241-0.807,2.845-0.807,4.087,0l7.775,5.054c0.583,0.379,0.931,1.021,0.931,1.716C22.75,20.832,21.832,21.75,20.703,21.75z
	 M12,13.828c-0.427,0-0.854,0.121-1.226,0.363l-7.775,5.054c-0.155,0.102-0.249,0.272-0.249,0.458c0,0.302,0.245,0.547,0.546,0.547
	h17.407c0.302,0,0.547-0.245,0.547-0.547c0-0.186-0.093-0.356-0.248-0.458l-7.776-5.054C12.854,13.949,12.427,13.828,12,13.828z"/>
<path style="fill:#333333;" d="M12.617,12.926l-1.234-0.852C12.573,10.35,14.25,7.48,14.25,6.5c0-1.241-1.01-2.25-2.25-2.25
	c-1.241,0-2.25,1.009-2.25,2.25h-1.5c0-2.068,1.682-3.75,3.75-3.75c2.067,0,3.75,1.682,3.75,3.75
	C15.75,8.299,13.141,12.169,12.617,12.926z"/>
</svg>






