<?xml version="1.0" encoding="iso-8859-1"?>
<svg version="1.1" id="&#x56FE;&#x5C42;_1" xmlns="http://www.w3.org/2000/svg" xmlns:xlink="http://www.w3.org/1999/xlink" x="0px"
	 y="0px" viewBox="0 0 24 24" style="enable-background:new 0 0 24 24;" xml:space="preserve">
<path style="fill:#333333;" d="M20.455,16.75H18.5v-1.5h1.955c0.438,0,0.795-0.356,0.795-0.795c0-0.303-0.169-0.575-0.439-0.711
	L12,9.338l-8.811,4.406C2.918,13.88,2.75,14.152,2.75,14.455c0,0.438,0.356,0.795,0.795,0.795H5.5v1.5H3.545
	c-1.266,0-2.295-1.029-2.295-2.295c0-0.875,0.486-1.661,1.269-2.053L12,7.662l9.48,4.741c0.783,0.392,1.27,1.178,1.27,2.053
	C22.75,15.721,21.721,16.75,20.455,16.75z"/>
<path style="fill:#333333;" d="M19.25,22.75H4.75v-8.5h14.5V22.75z M6.25,21.25h11.5v-5.5H6.25V21.25z"/>
<path style="fill:#333333;" d="M12.646,8.881L11.354,8.12C12.266,6.571,13.25,4.555,13.25,4c0-0.689-0.561-1.25-1.25-1.25
	S10.75,3.311,10.75,4h-1.5c0-1.517,1.233-2.75,2.75-2.75S14.75,2.483,14.75,4C14.75,5.214,13.14,8.043,12.646,8.881z"/>
</svg>






