<?xml version="1.0" encoding="iso-8859-1"?>
<svg version="1.1" id="&#x56FE;&#x5C42;_1" xmlns="http://www.w3.org/2000/svg" xmlns:xlink="http://www.w3.org/1999/xlink" x="0px"
	 y="0px" viewBox="0 0 24 24" style="enable-background:new 0 0 24 24;" xml:space="preserve">
<path style="fill:#333333;" d="M20.25,16.75H3.75V8c0-2.619,2.131-4.75,4.75-4.75h7c2.619,0,4.75,2.131,4.75,4.75V16.75z
	 M5.25,15.25h13.5V8c0-1.792-1.458-3.25-3.25-3.25h-7C6.708,4.75,5.25,6.208,5.25,8V15.25z"/>
<path style="fill:#333333;" d="M21,20.75H3c-0.965,0-1.75-0.785-1.75-1.75v-2c0-0.965,0.785-1.75,1.75-1.75h18
	c0.965,0,1.75,0.785,1.75,1.75v2C22.75,19.965,21.965,20.75,21,20.75z M3,16.75c-0.138,0-0.25,0.112-0.25,0.25v2
	c0,0.138,0.112,0.25,0.25,0.25h18c0.138,0,0.25-0.112,0.25-0.25v-2c0-0.138-0.112-0.25-0.25-0.25H3z"/>
<rect x="4.5" y="10.25" style="fill:#333333;" width="4" height="1.5"/>
<rect x="15.5" y="10.25" style="fill:#333333;" width="4" height="1.5"/>
</svg>






