<?xml version="1.0" encoding="iso-8859-1"?>
<svg version="1.1" id="&#x56FE;&#x5C42;_1" xmlns="http://www.w3.org/2000/svg" xmlns:xlink="http://www.w3.org/1999/xlink" x="0px"
	 y="0px" viewBox="0 0 24 24" style="enable-background:new 0 0 24 24;" xml:space="preserve">
<path style="fill:#333333;" d="M18.5,17.75h-13c-0.871,0-1.642-0.669-1.833-1.592c-0.239-1.149-0.946-1.834-1.497-2.207
	c-0.576-0.391-0.919-0.999-0.919-1.628V8c0-0.965,0.785-1.75,1.75-1.75h18c0.965,0,1.75,0.785,1.75,1.75v4.323
	c0,0.63-0.344,1.238-0.919,1.628c-0.552,0.373-1.259,1.059-1.498,2.207C20.142,17.081,19.371,17.75,18.5,17.75z M3,7.75
	C2.862,7.75,2.75,7.862,2.75,8v4.323c0,0.125,0.104,0.28,0.26,0.386c0.639,0.432,1.765,1.415,2.125,3.145
	C5.176,16.049,5.323,16.25,5.5,16.25h13c0.177,0,0.324-0.201,0.364-0.396c0.359-1.729,1.486-2.712,2.126-3.145
	c0.155-0.105,0.26-0.261,0.26-0.386V8c0-0.138-0.112-0.25-0.25-0.25H3z"/>
<rect x="7" y="13.25" style="fill:#333333;" width="10" height="1.5"/>
<rect x="6.25" y="12.5" style="fill:#333333;" width="1.5" height="1.5"/>
<rect x="9.75" y="12.5" style="fill:#333333;" width="1.5" height="1.5"/>
<rect x="12.75" y="12.5" style="fill:#333333;" width="1.5" height="1.5"/>
<rect x="16.25" y="12.5" style="fill:#333333;" width="1.5" height="1.5"/>
<rect x="5.5" y="9.25" style="fill:#333333;" width="1" height="1.5"/>
<rect x="9.5" y="9.25" style="fill:#333333;" width="1" height="1.5"/>
<rect x="13.5" y="9.25" style="fill:#333333;" width="1" height="1.5"/>
<rect x="17.5" y="9.25" style="fill:#333333;" width="1" height="1.5"/>
</svg>






