<?xml version="1.0" encoding="iso-8859-1"?>
<svg version="1.1" id="&#x56FE;&#x5C42;_1" xmlns="http://www.w3.org/2000/svg" xmlns:xlink="http://www.w3.org/1999/xlink" x="0px"
	 y="0px" viewBox="0 0 24 24" style="enable-background:new 0 0 24 24;" xml:space="preserve">
<path style="fill:#333333;" d="M12,22.75C6.072,22.75,1.25,17.928,1.25,12S6.072,1.25,12,1.25S22.75,6.072,22.75,12
	S17.928,22.75,12,22.75z M12,2.75c-5.101,0-9.25,4.149-9.25,9.25s4.149,9.25,9.25,9.25s9.25-4.149,9.25-9.25S17.101,2.75,12,2.75z"
	/>
<path style="fill:#333333;" d="M15.25,21.5h-1.5c0-0.965-0.785-1.75-1.75-1.75s-1.75,0.785-1.75,1.75h-1.5
	c0-1.792,1.458-3.25,3.25-3.25S15.25,19.708,15.25,21.5z"/>
<path style="fill:#333333;" d="M12,22.75c-1.597,0-3.134-0.342-4.569-1.017l0.638-1.357c2.467,1.159,5.395,1.159,7.862,0
	l0.639,1.357C15.134,22.408,13.597,22.75,12,22.75z"/>
<circle style="fill:#333333;" cx="7.5" cy="7.5" r="1.5"/>
<circle style="fill:#333333;" cx="5.5" cy="11.5" r="1.5"/>
<circle style="fill:#333333;" cx="12" cy="5.5" r="1.5"/>
<circle style="fill:#333333;" cx="16.5" cy="7.5" r="1.5"/>
<circle style="fill:#333333;" cx="18.5" cy="11.5" r="1.5"/>
</svg>






