<?xml version="1.0" encoding="iso-8859-1"?>
<svg version="1.1" id="&#x56FE;&#x5C42;_1" xmlns="http://www.w3.org/2000/svg" xmlns:xlink="http://www.w3.org/1999/xlink" x="0px"
	 y="0px" viewBox="0 0 24 24" style="enable-background:new 0 0 24 24;" xml:space="preserve">
<path style="fill:#333333;" d="M21.75,15h-1.5v-2.77c0-4.676-3.701-8.48-8.25-8.48s-8.25,3.804-8.25,8.48V15h-1.5v-2.77
	c0-5.503,4.374-9.98,9.75-9.98s9.75,4.477,9.75,9.98V15z"/>
<path style="fill:#333333;" d="M21.75,21.75H19c-1.517,0-2.75-1.233-2.75-2.75v-3c0-1.517,1.233-2.75,2.75-2.75h2.75V21.75z
	 M19,14.75c-0.689,0-1.25,0.561-1.25,1.25v3c0,0.689,0.561,1.25,1.25,1.25h1.25v-5.5H19z"/>
<path style="fill:#333333;" d="M21,16h1c0.552,0,1,0.448,1,1v1c0,0.552-0.448,1-1,1h-1V16z"/>
<path style="fill:#333333;" d="M3,16H2c-0.552,0-1,0.448-1,1v1c0,0.552,0.448,1,1,1h1V16z"/>
<path style="fill:#333333;" d="M5,21.75H2.25v-8.5H5c1.517,0,2.75,1.233,2.75,2.75v3C7.75,20.517,6.517,21.75,5,21.75z M3.75,20.25
	H5c0.689,0,1.25-0.561,1.25-1.25v-3c0-0.689-0.561-1.25-1.25-1.25H3.75V20.25z"/>
</svg>






