<?xml version="1.0" encoding="iso-8859-1"?>
<svg version="1.1" id="&#x56FE;&#x5C42;_1" xmlns="http://www.w3.org/2000/svg" xmlns:xlink="http://www.w3.org/1999/xlink" x="0px"
	 y="0px" viewBox="0 0 24 24" style="enable-background:new 0 0 24 24;" xml:space="preserve">
<path style="fill:#333333;" d="M5.621,21.966C4.735,20.848,3.25,18.521,3.25,15.5c0-4.825,3.925-8.75,8.75-8.75
	c4.825,0,8.75,3.925,8.75,8.75c0,3.021-1.484,5.348-2.37,6.466l-1.176-0.932c1.3-1.643,2.046-3.66,2.046-5.534
	c0-3.998-3.252-7.25-7.25-7.25c-3.998,0-7.25,3.252-7.25,7.25c0,1.875,0.746,3.893,2.046,5.534L5.621,21.966z"/>
<path style="fill:#333333;" d="M16.927,9.879l-0.751-3.382l4.81-4.542l1.242,0.728l-1.615,6.46L16.927,9.879z M17.824,7.003
	l0.249,1.118l1.314-0.263l0.763-3.051L17.824,7.003z"/>
<path style="fill:#333333;" d="M7.073,9.879L3.388,9.143l-1.615-6.46l1.243-0.728l4.81,4.542L7.073,9.879z M4.612,7.857l1.315,0.263
	l0.248-1.118L3.85,4.806L4.612,7.857z"/>
</svg>






