<?xml version="1.0" encoding="iso-8859-1"?>
<svg version="1.1" id="&#x56FE;&#x5C42;_1" xmlns="http://www.w3.org/2000/svg" xmlns:xlink="http://www.w3.org/1999/xlink" x="0px"
	 y="0px" viewBox="0 0 24 24" style="enable-background:new 0 0 24 24;" xml:space="preserve">
<path style="fill:#333333;" d="M9,14.75c-1.241,0-2.25-1.01-2.25-2.25V7.25h4.5v5.25C11.25,13.74,10.241,14.75,9,14.75z M8.25,8.75
	v3.75c0,0.413,0.336,0.75,0.75,0.75s0.75-0.337,0.75-0.75V8.75H8.25z"/>
<polygon style="fill:#333333;" points="9.75,19.75 6,19.75 6,18.25 8.25,18.25 8.25,14 9.75,14 "/>
<path style="fill:#333333;" d="M11.25,8.75H5.5C3.696,8.75,1.75,7.316,1.75,5c0-2.347,1.78-3.75,3.5-3.75h6V8.75z M5.25,2.75
	c-0.773,0-2,0.611-2,2.25c0,1.535,1.343,2.25,2.25,2.25h4.25v-4.5H5.25z"/>
<path style="fill:#333333;" d="M18.5,11.75h-5.75v-7.5h6c1.721,0,3.5,1.403,3.5,3.75C22.25,10.316,20.304,11.75,18.5,11.75z
	 M14.25,10.25h4.25c0.907,0,2.25-0.715,2.25-2.25c0-1.639-1.227-2.25-2-2.25h-4.5V10.25z"/>
<path style="fill:#333333;" d="M15,17.75c-1.24,0-2.25-1.01-2.25-2.25v-5.25h4.5v5.25C17.25,16.74,16.24,17.75,15,17.75z
	 M14.25,11.75v3.75c0,0.413,0.337,0.75,0.75,0.75s0.75-0.337,0.75-0.75v-3.75H14.25z"/>
<polygon style="fill:#333333;" points="18,22.75 14.25,22.75 14.25,17 15.75,17 15.75,21.25 18,21.25 "/>
</svg>






