<?xml version="1.0" encoding="iso-8859-1"?>
<svg version="1.1" id="&#x56FE;&#x5C42;_1" xmlns="http://www.w3.org/2000/svg" xmlns:xlink="http://www.w3.org/1999/xlink" x="0px"
	 y="0px" viewBox="0 0 24 24" style="enable-background:new 0 0 24 24;" xml:space="preserve">
<path style="fill:none;" d="M18,16c2.209,0,4-1.791,4-4s-1.791-4-4-4"/>
<path style="fill:#333333;" d="M18,16.75v-1.5c1.792,0,3.25-1.458,3.25-3.25S19.792,8.75,18,8.75v-1.5c2.619,0,4.75,2.131,4.75,4.75
	S20.619,16.75,18,16.75z"/>
<path style="fill:none;" d="M6,8c-2.209,0-4,1.791-4,4s1.791,4,4,4"/>
<path style="fill:#333333;" d="M6,16.75c-2.619,0-4.75-2.131-4.75-4.75S3.381,7.25,6,7.25v1.5c-1.792,0-3.25,1.458-3.25,3.25
	S4.208,15.25,6,15.25V16.75z"/>
<path style="fill:#333333;" d="M12,22.75v-1.5c2.895,0,5.25-2.355,5.25-5.25V8c0-2.895-2.355-5.25-5.25-5.25
	C9.105,2.75,6.75,5.105,6.75,8v8h-1.5V8c0-3.722,3.028-6.75,6.75-6.75c3.722,0,6.75,3.028,6.75,6.75v8
	C18.75,19.722,15.722,22.75,12,22.75z"/>
</svg>






