<?xml version="1.0" encoding="iso-8859-1"?>
<svg version="1.1" id="&#x56FE;&#x5C42;_1" xmlns="http://www.w3.org/2000/svg" xmlns:xlink="http://www.w3.org/1999/xlink" x="0px"
	 y="0px" viewBox="0 0 24 24" style="enable-background:new 0 0 24 24;" xml:space="preserve">
<path style="fill:#333333;" d="M19.5,21.75h-15c-1.241,0-2.25-1.01-2.25-2.25v-15c0-1.241,1.009-2.25,2.25-2.25h15
	c1.24,0,2.25,1.009,2.25,2.25v15C21.75,20.74,20.74,21.75,19.5,21.75z M4.5,3.75c-0.414,0-0.75,0.336-0.75,0.75v15
	c0,0.413,0.336,0.75,0.75,0.75h15c0.413,0,0.75-0.337,0.75-0.75v-15c0-0.414-0.337-0.75-0.75-0.75H4.5z"/>
<path style="fill:#333333;" d="M15,11.788l-0.23-0.074c-1.188-0.384-3.52-2.035-3.52-4.112c0-1.297,1.077-2.352,2.4-2.352
	c0.486,0,0.956,0.146,1.35,0.408c0.394-0.262,0.863-0.408,1.35-0.408c1.323,0,2.4,1.055,2.4,2.352c0,2.077-2.331,3.728-3.52,4.112
	L15,11.788z M13.65,6.75c-0.496,0-0.9,0.382-0.9,0.852c0,1.053,1.366,2.198,2.25,2.594c0.884-0.396,2.25-1.541,2.25-2.594
	c0-0.47-0.404-0.852-0.9-0.852c-0.296,0-0.574,0.139-0.743,0.371L15,7.958l-0.606-0.836C14.225,6.889,13.946,6.75,13.65,6.75z"/>
</svg>






