<?xml version="1.0" encoding="iso-8859-1"?>
<svg version="1.1" id="&#x56FE;&#x5C42;_1" xmlns="http://www.w3.org/2000/svg" xmlns:xlink="http://www.w3.org/1999/xlink" x="0px"
	 y="0px" viewBox="0 0 24 24" style="enable-background:new 0 0 24 24;" xml:space="preserve">
<path style="fill:#333333;" d="M16.848,22.75H7.152L4.25,19.32V8.644L7.155,5.25h9.691l2.904,3.394V19.32L16.848,22.75z
	 M7.848,21.25h8.305l2.098-2.479V9.199L16.154,6.75H7.845L5.75,9.199v9.573L7.848,21.25z"/>
<rect x="9.5" y="9.25" style="fill:#333333;" width="5" height="1.5"/>
<path style="fill:#333333;" d="M17.25,6h-1.5V3.5c0-0.414-0.337-0.75-0.75-0.75H9c-0.414,0-0.75,0.336-0.75,0.75V6h-1.5V3.5
	c0-1.241,1.009-2.25,2.25-2.25h6c1.24,0,2.25,1.009,2.25,2.25V6z"/>
<path style="fill:#333333;" d="M12,19.25c-1.792,0-3.25-1.458-3.25-3.25s1.458-3.25,3.25-3.25s3.25,1.458,3.25,3.25
	S13.792,19.25,12,19.25z M12,14.25c-0.965,0-1.75,0.785-1.75,1.75s0.785,1.75,1.75,1.75s1.75-0.785,1.75-1.75S12.965,14.25,12,14.25
	z"/>
</svg>






