<?xml version="1.0" encoding="iso-8859-1"?>
<svg version="1.1" id="&#x56FE;&#x5C42;_1" xmlns="http://www.w3.org/2000/svg" xmlns:xlink="http://www.w3.org/1999/xlink" x="0px"
	 y="0px" viewBox="0 0 24 24" style="enable-background:new 0 0 24 24;" xml:space="preserve">
<path style="fill:#333333;" d="M10.501,23.251c-3.036,0-5.343-2.343-6.857-6.963c-0.989-3.02-0.639-6.399,0.781-7.533
	c0.51-0.407,1.862-1.146,3.428,0.781l-1.164,0.946c-0.797-0.98-1.129-0.715-1.327-0.555c-0.701,0.56-1.175,3.197-0.292,5.894
	c1.29,3.935,3.117,5.93,5.432,5.93c2.247,0,3.186-1.881,4.179-3.873c0.302-0.605,0.614-1.232,0.961-1.779
	c1.345-2.123,1.987-4.025,0.754-6.413l1.332-0.688c1.658,3.208,0.517,5.796-0.818,7.904c-0.306,0.482-0.588,1.048-0.887,1.646
	C14.977,20.644,13.677,23.251,10.501,23.251z"/>
<path style="fill:#333333;" d="M4.873,9.43c-0.85-1.293-1.514-2.297-1.995-3.011C2.34,5.621,2.556,4.595,3.403,3.923
	c0.868-0.689,1.981-0.667,2.647,0.05c0.594,0.641,1.389,1.591,2.362,2.824l-1.178,0.93C6.286,6.525,5.517,5.605,4.95,4.994
	C4.8,4.832,4.494,4.973,4.334,5.099C4.32,5.11,3.986,5.379,4.122,5.581c0.483,0.717,1.151,1.726,2.005,3.026L4.873,9.43z"/>
<path style="fill:#333333;" d="M6.764,12.88C6.502,9.595,6.731,7.558,7.487,6.47c0.979-1.41,2.807-2.218,5.015-2.218
	c1.2,0,2.298,0.504,3.263,1.499l-1.076,1.045c-0.682-0.702-1.396-1.043-2.187-1.043c-0.809,0-2.796,0.153-3.783,1.574
	c-0.299,0.431-0.757,1.711-0.46,5.436L6.764,12.88z"/>
<path style="fill:#333333;" d="M12.354,14.678c-0.937,0-1.962-0.707-2.2-0.916c-0.456-0.399-0.729-0.954-0.749-1.52
	c-0.015-0.408,0.096-1.024,0.71-1.646c0.484-0.491,0.483-0.519,0.465-0.976c-0.005-0.123-0.01-0.259-0.01-0.417
	c0-1.673,5.549-4.555,7.992-4.802c0.998-0.062,2.272,0.353,2.659,1.698c0.205,0.714,0.122,1.411-0.234,1.962
	c-0.278,0.43-0.857,0.978-2.038,1.147c-1.301,0.186-2.295,0.858-3.017,1.422c-0.729,0.57-2.029,2.356-2.245,3.084
	c-0.135,0.456-0.453,0.777-0.896,0.905C12.649,14.659,12.503,14.678,12.354,14.678z M12.07,9.304
	c0.002,0.094,0.005,0.178,0.008,0.256c0.032,0.79-0.043,1.226-0.896,2.09c-0.19,0.193-0.284,0.375-0.278,0.539
	c0.006,0.18,0.128,0.349,0.239,0.446c0.272,0.238,0.861,0.511,1.141,0.543c0.393-1.129,1.852-3.047,2.724-3.729
	c0.867-0.679,2.075-1.489,3.728-1.726c0.485-0.07,0.838-0.239,0.991-0.477c0.15-0.232,0.112-0.526,0.053-0.732l0,0
	c-0.174-0.605-0.824-0.632-1.099-0.619C16.376,6.129,12.555,8.549,12.07,9.304z"/>
<rect x="10.754" y="2" style="fill:#333333;" width="1.5" height="2.631"/>
<path style="fill:#333333;" d="M9.566,5.826C7.737,3.527,6.753,3.015,6.33,2.914l0.348-1.459c1.118,0.266,2.409,1.358,4.063,3.438
	L9.566,5.826z"/>
<rect x="7.703" y="1.748" transform="matrix(0.2364 -0.9717 0.9717 0.2364 4.2541 10.4088)" style="fill:#333333;" width="2.093" height="1.5"/>
<path style="fill:#333333;" d="M18.301,8.984c-0.613-0.639-1.007-1.239-1.206-1.835c-0.209-0.629-0.212-1.302-0.008-2l1.439,0.42
	c-0.118,0.406-0.121,0.768-0.008,1.106c0.125,0.375,0.416,0.803,0.864,1.271L18.301,8.984z"/>
</svg>






