<?xml version="1.0" encoding="iso-8859-1"?>
<svg version="1.1" id="&#x56FE;&#x5C42;_1" xmlns="http://www.w3.org/2000/svg" xmlns:xlink="http://www.w3.org/1999/xlink" x="0px"
	 y="0px" viewBox="0 0 24 24" style="enable-background:new 0 0 24 24;" xml:space="preserve">
<path style="fill:#333333;" d="M12,21.453l-0.236-0.078C7.99,20.121,1.25,14.913,1.25,9c0-3.446,2.804-6.25,6.25-6.25
	c1.708,0,3.331,0.702,4.5,1.913c1.169-1.211,2.792-1.913,4.5-1.913c3.446,0,6.25,2.804,6.25,6.25c0,0.92-0.166,1.867-0.494,2.814
	l-1.418-0.491C21.111,10.534,21.25,9.752,21.25,9c0-2.619-2.131-4.75-4.75-4.75c-1.544,0-2.997,0.754-3.887,2.019L12,7.14
	l-0.613-0.871C10.497,5.004,9.044,4.25,7.5,4.25C4.881,4.25,2.75,6.381,2.75,9c0,5.001,5.891,9.63,9.25,10.868
	c1.038-0.384,2.296-1.093,3.496-1.973l0.887,1.209c-1.434,1.053-2.906,1.858-4.146,2.271L12,21.453z"/>
<polygon style="fill:#333333;" points="19.103,16.946 17.798,16.764 16.778,14.045 15.875,15.25 13.5,15.25 13.5,13.75 
	15.125,13.75 16.4,12.05 17.702,12.236 18.718,14.945 19.604,13.75 22,13.75 22,15.25 20.359,15.25 "/>
</svg>






