<?xml version="1.0" encoding="iso-8859-1"?>
<svg version="1.1" id="&#x56FE;&#x5C42;_1" xmlns="http://www.w3.org/2000/svg" xmlns:xlink="http://www.w3.org/1999/xlink" x="0px"
	 y="0px" viewBox="0 0 24 24" style="enable-background:new 0 0 24 24;" xml:space="preserve">
<path style="fill:#333333;" d="M12,13.796l-0.251-0.089C9.417,12.879,5.25,9.438,5.25,5.525c0-2.717,1.245-4.275,3.417-4.275
	c1.149,0,2.484,1.061,3.333,1.994c0.851-0.933,2.185-1.994,3.333-1.994c2.076,0,3.417,1.678,3.417,4.275
	c0,3.912-4.167,7.354-6.499,8.182L12,13.796z M8.667,2.75c-0.524,0-1.917,0-1.917,2.775c0,2.982,3.327,5.848,5.25,6.669
	c1.923-0.822,5.25-3.688,5.25-6.669c0-0.834-0.187-2.775-1.917-2.775c-0.678,0-2.1,1.187-2.707,2.107L12,5.807l-0.625-0.95
	C10.767,3.937,9.345,2.75,8.667,2.75z"/>
<path style="fill:#333333;" d="M9.102,22.743l-0.203-1.486c2.613-0.357,4.852-1.265,4.852-1.757c0-0.289-1.354-0.628-1.932-0.772
	C10.38,18.368,8.75,17.961,8.75,16.5c0-2.395,2.212-3.788,2.891-4.158l0.719,1.316c-0.495,0.271-2.109,1.273-2.109,2.842
	c0,0.289,1.354,0.628,1.932,0.772c1.438,0.359,3.068,0.767,3.068,2.228C15.25,21.67,10.95,22.491,9.102,22.743z"/>
</svg>






