<?xml version="1.0" encoding="iso-8859-1"?>
<svg version="1.1" id="&#x56FE;&#x5C42;_1" xmlns="http://www.w3.org/2000/svg" xmlns:xlink="http://www.w3.org/1999/xlink" x="0px"
	 y="0px" viewBox="0 0 24 24" style="enable-background:new 0 0 24 24;" xml:space="preserve">
<path style="fill:#333333;" d="M9.172,19.406c-0.448,0-0.896-0.171-1.237-0.512l-2.829-2.829c-0.682-0.683-0.682-1.792,0-2.475
	l8.486-8.485c0.66-0.659,1.812-0.661,2.475,0l2.828,2.829c0.331,0.331,0.513,0.77,0.513,1.237c0,0.468-0.183,0.907-0.513,1.238
	l-8.485,8.485C10.068,19.235,9.62,19.406,9.172,19.406z M6.167,14.651c-0.097,0.098-0.097,0.256,0,0.354l2.829,2.829
	c0.128,0.127,0.226,0.127,0.354,0l8.485-8.486c0.063-0.064,0.073-0.138,0.073-0.177s-0.01-0.113-0.073-0.177l-2.828-2.829
	c-0.129-0.128-0.228-0.125-0.354,0L6.167,14.651z"/>
<rect x="2.783" y="17.968" transform="matrix(0.7071 -0.7071 0.7071 0.7071 -11.6883 9.2176)" style="fill:#333333;" width="5" height="1.5"/>
<rect x="16.219" y="4.533" transform="matrix(0.7071 -0.7071 0.7071 0.7071 1.7473 14.7834)" style="fill:#333333;" width="5" height="1.5"/>
<rect x="8.775" y="11.475" transform="matrix(0.7071 -0.7071 0.7071 0.7071 -7.4454 10.9758)" style="fill:#333333;" width="1.5" height="6"/>
<rect x="11.25" y="9" transform="matrix(0.7071 -0.7071 0.7071 0.7071 -4.9704 11.999)" style="fill:#333333;" width="1.5" height="6"/>
<rect x="13.725" y="6.525" transform="matrix(0.7071 -0.7071 0.7071 0.7071 -2.496 13.024)" style="fill:#333333;" width="1.5" height="6"/>
<rect x="4.879" y="9.129" transform="matrix(0.7071 -0.7071 0.7071 0.7071 -4.0919 9.8787)" style="fill:#333333;" width="10" height="1.5"/>
<rect x="9.121" y="13.372" transform="matrix(0.7071 -0.7071 0.7071 0.7071 -5.8494 14.1216)" style="fill:#333333;" width="10" height="1.5"/>
</svg>






