<?xml version="1.0" encoding="iso-8859-1"?>
<svg version="1.1" id="&#x56FE;&#x5C42;_1" xmlns="http://www.w3.org/2000/svg" xmlns:xlink="http://www.w3.org/1999/xlink" x="0px"
	 y="0px" viewBox="0 0 24 24" style="enable-background:new 0 0 24 24;" xml:space="preserve">
<path style="fill:#333333;" d="M19.061,17.25H7.5v-1.5h11.561c1.376-0.67,2.189-2.004,2.189-3.493c0-2.139-1.703-3.878-3.796-3.878
	c-0.602,0-1.177,0.14-1.71,0.415l-0.829,0.428l-0.239-0.902c-0.714-2.69-3.122-4.569-5.857-4.569c-3.346,0-6.068,2.778-6.068,6.192
	h-1.5c0-4.242,3.395-7.692,7.568-7.692c3.133,0,5.92,1.967,7.045,4.876c0.513-0.164,1.052-0.248,1.591-0.248
	c2.92,0,5.296,2.413,5.296,5.378c0,2.06-1.13,3.907-2.948,4.822C19.578,17.191,19.322,17.25,19.061,17.25z"/>
<path style="fill:#333333;" d="M7.5,21.25H6c-1.517,0-2.75-1.233-2.75-2.75S4.483,15.75,6,15.75h1.5v1.5H6
	c-0.689,0-1.25,0.561-1.25,1.25S5.311,19.75,6,19.75h1.5V21.25z"/>
<path style="fill:#333333;" d="M11,13.75H9.5c-1.517,0-2.75-1.233-2.75-2.75S7.983,8.25,9.5,8.25H11v1.5H9.5
	c-0.689,0-1.25,0.561-1.25,1.25s0.561,1.25,1.25,1.25H11V13.75z"/>
<rect x="9.5" y="12.25" style="fill:#333333;" width="6.5" height="1.5"/>
</svg>






