<?xml version="1.0" encoding="iso-8859-1"?>
<svg version="1.1" id="&#x56FE;&#x5C42;_1" xmlns="http://www.w3.org/2000/svg" xmlns:xlink="http://www.w3.org/1999/xlink" x="0px"
	 y="0px" viewBox="0 0 24 24" style="enable-background:new 0 0 24 24;" xml:space="preserve">
<path style="fill:#333333;" d="M12.403,13.85L5.375,7.442l1.748-3.59l4.168-0.976l6.3,4.991l1.463,4.712L12.403,13.85z M7.214,7.089
	l5.644,5.147l4.266-0.815l-0.828-2.666l-5.368-4.252L8.159,5.15L7.214,7.089z"/>
<rect x="9.692" y="3.212" transform="matrix(0.6507 -0.7594 0.7594 0.6507 -1.5924 10.3397)" style="fill:#333333;" width="1.5" height="7.378"/>
<polygon style="fill:#333333;" points="13.373,13.157 11.891,12.929 12.581,8.436 16.793,7.576 17.094,9.046 13.905,9.697 "/>
<polygon style="fill:#333333;" points="7.557,21.001 1.117,14.691 2.735,10.67 5.844,9.946 6.184,11.407 3.835,11.955 2.883,14.322 
	8.043,19.378 12.666,18.478 11.782,15.742 13.21,15.281 14.613,19.626 "/>
<rect x="5.214" y="10.159" transform="matrix(0.6871 -0.7265 0.7265 0.6871 -8.1935 8.6647)" style="fill:#333333;" width="1.5" height="7.373"/>
<polygon style="fill:#333333;" points="8.529,20.11 7.072,19.755 8.134,15.396 12.388,14.779 12.603,16.264 9.352,16.736 "/>
<path style="fill:#333333;" d="M16.129,19.335l0.635-5.148l4.403-0.978l1.397,4.869L16.129,19.335z M18.123,15.421l-0.252,2.045
	l2.801-0.546l-0.558-1.941L18.123,15.421z"/>
</svg>






