<?xml version="1.0" encoding="iso-8859-1"?>
<svg version="1.1" id="&#x56FE;&#x5C42;_1" xmlns="http://www.w3.org/2000/svg" xmlns:xlink="http://www.w3.org/1999/xlink" x="0px"
	 y="0px" viewBox="0 0 24 24" style="enable-background:new 0 0 24 24;" xml:space="preserve">
<path style="fill:#333333;" d="M12,22.75c-2.871,0-5.571-1.118-7.602-3.148C2.368,17.571,1.25,14.872,1.25,12
	c0-2.871,1.118-5.571,3.148-7.602C6.429,2.368,9.129,1.25,12,1.25c2.872,0,5.571,1.118,7.602,3.148
	c2.03,2.031,3.148,4.73,3.148,7.602c0,2.872-1.118,5.571-3.148,7.602S14.872,22.75,12,22.75z M12,2.75
	c-2.471,0-4.793,0.962-6.541,2.709C3.712,7.207,2.75,9.529,2.75,12s0.962,4.794,2.709,6.541C7.207,20.288,9.529,21.25,12,21.25
	s4.794-0.962,6.541-2.709S21.25,14.471,21.25,12s-0.962-4.793-2.709-6.541C16.794,3.712,14.471,2.75,12,2.75z"/>
<path style="fill:#333333;" d="M12.75,14.312h-1.5v-2.75H12c1.24,0,2.25-1.009,2.25-2.25s-1.01-2.25-2.25-2.25
	c-1.241,0-2.25,1.009-2.25,2.25h-1.5c0-2.068,1.682-3.75,3.75-3.75c2.067,0,3.75,1.682,3.75,3.75c0,1.811-1.29,3.326-3,3.675V14.312
	z"/>
<path style="fill-rule:evenodd;clip-rule:evenodd;fill:#333333;" d="M12,18.812c0.69,0,1.25-0.56,1.25-1.25
	c0-0.69-0.56-1.25-1.25-1.25s-1.25,0.56-1.25,1.25C10.75,18.253,11.31,18.812,12,18.812z"/>
</svg>






