<?xml version="1.0" encoding="iso-8859-1"?>
<svg version="1.1" id="&#x56FE;&#x5C42;_1" xmlns="http://www.w3.org/2000/svg" xmlns:xlink="http://www.w3.org/1999/xlink" x="0px"
	 y="0px" viewBox="0 0 24 24" style="enable-background:new 0 0 24 24;" xml:space="preserve">
<rect x="3.5" y="6.25" style="fill:#333333;" width="17" height="1.5"/>
<rect x="-0.87" y="8.75" transform="matrix(0.4935 -0.8698 0.8698 0.4935 -4.3371 11.5527)" style="fill:#333333;" width="17.241" height="1.5"/>
<rect x="15.5" y="0.88" transform="matrix(0.87 -0.493 0.493 0.87 -2.5715 9.246)" style="fill:#333333;" width="1.5" height="17.241"/>
<rect x="3.5" y="16.25" style="fill:#333333;" width="17" height="1.5"/>
<rect x="7.63" y="13.75" transform="matrix(0.4935 -0.8698 0.8698 0.4935 -4.3805 21.4783)" style="fill:#333333;" width="17.241" height="1.5"/>
<rect x="7" y="5.88" transform="matrix(0.87 -0.493 0.493 0.87 -6.1412 5.7053)" style="fill:#333333;" width="1.5" height="17.241"/>
<path style="fill:#333333;" d="M12,22.87l-9.25-5.441V6.571L12,1.13l9.25,5.441v10.858L12,22.87z M4.25,16.571L12,21.13l7.75-4.559
	V7.429L12,2.87L4.25,7.429V16.571z"/>
</svg>






