<?xml version="1.0" encoding="iso-8859-1"?>
<svg version="1.1" id="&#x56FE;&#x5C42;_1" xmlns="http://www.w3.org/2000/svg" xmlns:xlink="http://www.w3.org/1999/xlink" x="0px"
	 y="0px" viewBox="0 0 24 24" style="enable-background:new 0 0 24 24;" xml:space="preserve">
<path style="fill:#333333;" d="M12,22.608c-0.292,0-0.584-0.074-0.85-0.223l-8-4.444c-0.555-0.309-0.9-0.896-0.9-1.53V7.588
	c0-0.635,0.345-1.221,0.9-1.53l8-4.444c0.532-0.296,1.167-0.295,1.701,0l7.999,4.444c0.556,0.309,0.9,0.895,0.9,1.53v8.823
	c0,0.635-0.345,1.221-0.899,1.53l-8.001,4.444C12.584,22.534,12.292,22.608,12,22.608z M12,2.894c-0.042,0-0.083,0.01-0.122,0.032
	l-8,4.444C3.799,7.414,3.75,7.498,3.75,7.588v8.823c0,0.091,0.049,0.176,0.129,0.22l8,4.444c0.076,0.04,0.167,0.041,0.242,0
	l8.001-4.444c0.079-0.045,0.129-0.129,0.129-0.22V7.588c0-0.09-0.05-0.174-0.129-0.218l-8-4.444C12.083,2.904,12.041,2.894,12,2.894
	z"/>
</svg>






