<?xml version="1.0" encoding="iso-8859-1"?>
<svg version="1.1" id="&#x56FE;&#x5C42;_1" xmlns="http://www.w3.org/2000/svg" xmlns:xlink="http://www.w3.org/1999/xlink" x="0px"
	 y="0px" viewBox="0 0 24 24" style="enable-background:new 0 0 24 24;" xml:space="preserve">
<path style="fill:#333333;" d="M18.5,22.25H8.738c-0.303,0-0.581-0.153-0.743-0.41l-4.702-7.581
	c-0.725-1.168-0.481-2.719,0.568-3.608c0.631-0.535,1.459-0.763,2.278-0.624c0.717,0.122,1.35,0.514,1.778,1.091v-6.83
	c0-0.667,0.293-1.295,0.804-1.724c0.511-0.429,1.18-0.609,1.837-0.492l8.333,1.471c1.077,0.19,1.859,1.122,1.859,2.216V20
	C20.75,21.24,19.74,22.25,18.5,22.25z M9.084,20.75H18.5c0.413,0,0.75-0.337,0.75-0.75V5.758c0-0.365-0.261-0.675-0.619-0.738
	l-8.334-1.471C9.994,3.494,9.785,3.63,9.685,3.713c-0.1,0.084-0.268,0.271-0.268,0.575v9.558l-1.397,0.38l-1.231-2.098
	c-0.194-0.331-0.523-0.558-0.901-0.623c-0.376-0.062-0.763,0.042-1.057,0.29c-0.486,0.412-0.599,1.131-0.263,1.672L9.084,20.75z"/>
</svg>






