<?xml version="1.0" encoding="iso-8859-1"?>
<svg version="1.1" id="&#x56FE;&#x5C42;_1" xmlns="http://www.w3.org/2000/svg" xmlns:xlink="http://www.w3.org/1999/xlink" x="0px"
	 y="0px" viewBox="0 0 24 24" style="enable-background:new 0 0 24 24;" xml:space="preserve">
<path style="fill:#333333;" d="M15.5,19.75h-7c-2.619,0-4.75-2.131-4.75-4.75v-5h1.5v5c0,1.792,1.458,3.25,3.25,3.25h7
	c1.792,0,3.25-1.458,3.25-3.25v-5h1.5v5C20.25,17.619,18.119,19.75,15.5,19.75z"/>
<rect x="16.25" y="19" style="fill:#333333;" width="1.5" height="2"/>
<rect x="6.25" y="19" style="fill:#333333;" width="1.5" height="2"/>
<rect x="10" y="21.25" style="fill:#333333;" width="4" height="1.5"/>
<path style="fill:#333333;" d="M20.25,10.75H3.75V8.181C3.75,6.182,7.038,1.25,12,1.25s8.25,4.932,8.25,6.931V10.75z M5.25,9.25
	h13.5V8.181c0-1.354-2.726-5.431-6.75-5.431c-4.024,0-6.75,4.077-6.75,5.431V9.25z"/>
<g>
	<path style="fill:#333333;" d="M10.25,16c0,0.414-0.336,0.75-0.75,0.75S8.75,16.414,8.75,16s0.336-0.75,0.75-0.75
		S10.25,15.586,10.25,16z"/>
	<path style="fill:#333333;" d="M9.5,17c-0.551,0-1-0.448-1-1s0.449-1,1-1s1,0.448,1,1S10.051,17,9.5,17z M9.5,15.5
		C9.224,15.5,9,15.725,9,16s0.224,0.5,0.5,0.5S10,16.275,10,16S9.776,15.5,9.5,15.5z"/>
</g>
<g>
	<path style="fill:#333333;" d="M15.25,16c0,0.414-0.336,0.75-0.75,0.75s-0.75-0.336-0.75-0.75s0.336-0.75,0.75-0.75
		S15.25,15.586,15.25,16z"/>
	<path style="fill:#333333;" d="M14.5,17c-0.552,0-1-0.448-1-1s0.448-1,1-1s1,0.448,1,1S15.052,17,14.5,17z M14.5,15.5
		c-0.275,0-0.5,0.225-0.5,0.5s0.225,0.5,0.5,0.5S15,16.275,15,16S14.775,15.5,14.5,15.5z"/>
</g>
<rect x="11" y="4.75" style="fill:#333333;" width="2" height="1.5"/>
</svg>






