<?xml version="1.0" encoding="iso-8859-1"?>
<svg version="1.1" id="&#x56FE;&#x5C42;_1" xmlns="http://www.w3.org/2000/svg" xmlns:xlink="http://www.w3.org/1999/xlink" x="0px"
	 y="0px" viewBox="0 0 24 24" style="enable-background:new 0 0 24 24;" xml:space="preserve">
<path style="fill:#333333;" d="M17.5,22.25h-11c-2.068,0-3.75-1.683-3.75-3.75v-3c0-2.067,1.682-3.75,3.75-3.75h11
	c2.067,0,3.75,1.683,3.75,3.75v3C21.25,20.567,19.567,22.25,17.5,22.25z M6.5,13.25c-1.241,0-2.25,1.01-2.25,2.25v3
	c0,1.24,1.009,2.25,2.25,2.25h11c1.24,0,2.25-1.01,2.25-2.25v-3c0-1.24-1.01-2.25-2.25-2.25H6.5z"/>
<path style="fill:#333333;" d="M8.5,19.25c-1.241,0-2.25-1.01-2.25-2.25s1.009-2.25,2.25-2.25s2.25,1.01,2.25,2.25
	S9.741,19.25,8.5,19.25z M8.5,16.25c-0.414,0-0.75,0.337-0.75,0.75s0.336,0.75,0.75,0.75S9.25,17.413,9.25,17S8.914,16.25,8.5,16.25
	z"/>
<path style="fill:#333333;" d="M15.5,19.25c-1.24,0-2.25-1.01-2.25-2.25s1.01-2.25,2.25-2.25s2.25,1.01,2.25,2.25
	S16.74,19.25,15.5,19.25z M15.5,16.25c-0.413,0-0.75,0.337-0.75,0.75s0.337,0.75,0.75,0.75s0.75-0.337,0.75-0.75
	S15.913,16.25,15.5,16.25z"/>
<path style="fill:#333333;" d="M19.25,13.25H4.75V9.5c0-2.068,1.682-3.75,3.75-3.75h7c2.067,0,3.75,1.682,3.75,3.75V13.25z
	 M6.25,11.75h11.5V9.5c0-1.241-1.01-2.25-2.25-2.25h-7c-1.241,0-2.25,1.009-2.25,2.25V11.75z"/>
<circle style="fill:#333333;" cx="10" cy="9.5" r="1"/>
<circle style="fill:#333333;" cx="14" cy="9.5" r="1"/>
<path style="fill:#333333;" d="M11.25,7.25h-4.5V4c0-1.241,1.009-2.25,2.25-2.25S11.25,2.759,11.25,4V7.25z M8.25,5.75h1.5V4
	c0-0.414-0.336-0.75-0.75-0.75S8.25,3.586,8.25,4V5.75z"/>
<path style="fill:#333333;" d="M17.25,7.25h-4.5V4c0-1.241,1.01-2.25,2.25-2.25S17.25,2.759,17.25,4V7.25z M14.25,5.75h1.5V4
	c0-0.414-0.337-0.75-0.75-0.75S14.25,3.586,14.25,4V5.75z"/>
</svg>






