<?xml version="1.0" encoding="iso-8859-1"?>
<svg version="1.1" id="&#x56FE;&#x5C42;_1" xmlns="http://www.w3.org/2000/svg" xmlns:xlink="http://www.w3.org/1999/xlink" x="0px"
	 y="0px" viewBox="0 0 24 24" style="enable-background:new 0 0 24 24;" xml:space="preserve">
<path style="fill:#333333;" d="M15.721,11.948c-0.335,0-0.663-0.097-0.949-0.284l-4.049-2.629C10.667,8.998,10.599,8.987,10.535,9
	L8.983,9.33L8.671,7.863l1.551-0.33c0.456-0.098,0.923-0.011,1.315,0.243l4.051,2.631c0.057,0.036,0.126,0.048,0.188,0.035
	l3.508-0.746c0.088-0.019,0.137-0.076,0.157-0.108c0.021-0.032,0.054-0.1,0.035-0.188l-0.312-1.468
	c-0.019-0.088-0.076-0.137-0.108-0.158s-0.101-0.052-0.188-0.035l-2.041,0.434c-0.456,0.097-0.925,0.011-1.316-0.244l-4.05-2.63
	c-0.054-0.035-0.121-0.048-0.188-0.035L2.386,7.153L2.075,5.687l8.887-1.889c0.451-0.096,0.929-0.007,1.316,0.243l4.05,2.63
	c0.056,0.036,0.127,0.047,0.188,0.035l2.041-0.434c0.458-0.099,0.925-0.012,1.317,0.244c0.392,0.255,0.661,0.647,0.758,1.104
	l0.312,1.467c0.098,0.457,0.011,0.924-0.243,1.316c-0.255,0.392-0.646,0.662-1.104,0.759l-3.508,0.746
	C15.966,11.935,15.843,11.948,15.721,11.948z"/>
<path style="fill:#333333;" d="M12.671,19.241c-0.335,0-0.662-0.097-0.949-0.283l-4.05-2.63c-0.055-0.036-0.125-0.045-0.189-0.035
	l-2.039,0.434c-0.455,0.099-0.925,0.012-1.317-0.243s-0.661-0.646-0.758-1.104l-0.312-1.468c-0.098-0.458-0.011-0.926,0.245-1.318
	c0.254-0.392,0.647-0.661,1.104-0.757l3.507-0.745c0.455-0.099,0.924-0.012,1.316,0.244l4.049,2.63
	c0.056,0.037,0.126,0.051,0.19,0.034l1.549-0.329l0.312,1.467l-1.551,0.33c-0.458,0.098-0.926,0.01-1.317-0.244l-4.05-2.63
	c-0.055-0.036-0.122-0.048-0.188-0.034l-3.508,0.745c-0.088,0.019-0.137,0.076-0.158,0.108s-0.054,0.1-0.035,0.188l0.312,1.468
	c0.019,0.088,0.076,0.137,0.108,0.157c0.032,0.021,0.1,0.053,0.188,0.035l2.041-0.434c0.454-0.098,0.932-0.006,1.317,0.244
	l4.049,2.63c0.056,0.036,0.123,0.047,0.188,0.035l8.887-1.889l0.312,1.467l-8.888,1.889C12.916,19.229,12.793,19.241,12.671,19.241z
	"/>
</svg>






