<?xml version="1.0" encoding="iso-8859-1"?>
<svg version="1.1" id="&#x56FE;&#x5C42;_1" xmlns="http://www.w3.org/2000/svg" xmlns:xlink="http://www.w3.org/1999/xlink" x="0px"
	 y="0px" viewBox="0 0 24 24" style="enable-background:new 0 0 24 24;" xml:space="preserve">
<path style="fill:#333333;" d="M14,18.25c-1.774,0-3.197-0.479-4.452-0.902C8.597,17.027,7.776,16.75,7,16.75H2v-1.5h5
	c1.022,0,1.996,0.328,3.027,0.676c1.202,0.405,2.444,0.824,3.973,0.824c2.616,0,5.918-2.729,6.97-3.78
	c0.318-0.318,0.452-0.572,0.503-0.72c-0.767,0.022-5.49,0.918-8.325,1.485l-0.195,0.039l-3.189-1.062l0.475-1.423l2.812,0.937
	c1.617-0.322,7.474-1.476,8.451-1.476c0.668,0,1.177,0.303,1.396,0.831c0.29,0.702-0.033,1.618-0.865,2.45
	C21.858,14.202,17.768,18.25,14,18.25z"/>
<path style="fill:#333333;" d="M13.416,13.624l-0.833-1.247c0.741-0.498,1.346-1.2,1.32-1.427c-0.549-0.728-5.05-2.7-6.903-2.7
	c-1.616,0-3.418,1.229-4.47,2.28L1.47,9.47C2.785,8.155,4.928,6.75,7,6.75c2.155,0,7.151,2.036,8.1,3.3
	c0.257,0.342,0.354,0.75,0.279,1.18C15.18,12.396,13.709,13.429,13.416,13.624z"/>
</svg>






