<?xml version="1.0" encoding="iso-8859-1"?>
<svg version="1.1" id="&#x56FE;&#x5C42;_1" xmlns="http://www.w3.org/2000/svg" xmlns:xlink="http://www.w3.org/1999/xlink" x="0px"
	 y="0px" viewBox="0 0 24 24" style="enable-background:new 0 0 24 24;" xml:space="preserve">
<path style="fill:#333333;" d="M19,22.25c-0.227,0-5.594-0.006-9.106-0.508C4.822,21.018,2.25,19.759,2.25,18
	c0-0.576,0.22-1.082,0.635-1.464c1.001-0.918,2.824-0.812,3.179-0.783c0.122-0.006,0.358,0.013,0.614,0.033
	c0.428,0.033,1.315,0.104,1.529-0.095C8.246,15.656,8.25,15.546,8.25,15.5c0-0.629-2.649-1.611-4.313-1.753l0.127-1.494
	c0.057,0.005,5.688,0.689,5.687,3.247c0,0.668-0.285,1.071-0.524,1.293c-0.696,0.642-1.788,0.557-2.665,0.488
	c-0.209-0.017-0.421-0.036-0.556-0.031c-0.783-0.062-1.738,0.054-2.105,0.391C3.793,17.738,3.75,17.843,3.75,18
	c0,0.44,1.554,1.571,6.356,2.258c3.406,0.486,8.839,0.492,8.894,0.492V22.25z"/>
<rect x="3.379" y="7.75" transform="matrix(0.7071 -0.7071 0.7071 0.7071 -4.3995 6.3787)" style="fill:#333333;" width="4.243" height="1.5"/>
<polygon style="fill:#333333;" points="20.47,5.53 18.689,3.75 14,3.75 14,2.25 19.311,2.25 21.53,4.47 "/>
<path style="fill:#333333;" d="M18,10.75H9.689L6.47,7.53L7,6.25h8.311l3.22,3.22L18,10.75z M10.311,9.25h5.879l-1.5-1.5H8.811
	L10.311,9.25z"/>
<rect x="20.25" y="8" style="fill:#333333;" width="1.5" height="3"/>
<rect x="12.25" y="13" style="fill:#333333;" width="1.5" height="2"/>
<rect x="15.25" y="13" style="fill:#333333;" width="1.5" height="4"/>
</svg>






