<?xml version="1.0" encoding="iso-8859-1"?>
<svg version="1.1" id="&#x56FE;&#x5C42;_1" xmlns="http://www.w3.org/2000/svg" xmlns:xlink="http://www.w3.org/1999/xlink" x="0px"
	 y="0px" viewBox="0 0 24 24" style="enable-background:new 0 0 24 24;" xml:space="preserve">
<path style="fill:#333333;" d="M6.134,8.345c-0.617,0-1.233-0.234-1.703-0.704c-0.938-0.939-0.938-2.466,0-3.405l2.345-2.345
	c0.938-0.939,2.467-0.939,3.405,0c0.939,0.939,0.939,2.466,0,3.405L7.836,7.641C7.367,8.11,6.75,8.345,6.134,8.345z M8.479,2.686
	c-0.232,0-0.465,0.089-0.642,0.266L5.492,5.296c-0.354,0.354-0.354,0.93,0,1.284c0.354,0.354,0.929,0.354,1.284,0l2.345-2.344
	c0.354-0.354,0.354-0.93,0-1.284C8.943,2.775,8.711,2.686,8.479,2.686z"/>
<path style="fill:#333333;" d="M10.433,13.426c-0.643,0-1.248-0.25-1.703-0.705c-0.938-0.938-0.938-2.466,0-3.405l3.126-3.126
	c0.94-0.94,2.466-0.938,3.405,0c0.938,0.939,0.938,2.466,0,3.405l-3.126,3.126C11.681,13.176,11.076,13.426,10.433,13.426z
	 M12.917,7.25l-3.126,3.126c-0.354,0.354-0.354,0.93,0,1.284c0.343,0.343,0.941,0.342,1.284,0l3.126-3.126
	c0.354-0.354,0.354-0.93,0-1.284C13.848,6.897,13.271,6.896,12.917,7.25L12.917,7.25z"/>
<path style="fill:#333333;" d="M19.71,19.755c-0.511,0-0.997-0.178-1.359-0.54l-6.885-6.885l1.061-1.061l6.885,6.885
	c0.188,0.188,0.673,0.125,1.042-0.242c0.191-0.191,0.315-0.431,0.342-0.656c0.011-0.096,0.013-0.273-0.1-0.386L13.81,9.985
	l1.061-1.061l6.886,6.885c0.408,0.407,0.601,0.997,0.529,1.617c-0.065,0.565-0.339,1.114-0.771,1.546
	C20.997,19.489,20.335,19.755,19.71,19.755z"/>
<path style="fill:#333333;" d="M6.916,12.253c-0.617,0-1.233-0.235-1.703-0.705c-0.938-0.939-0.938-2.466,0-3.405l5.472-5.472
	c0.939-0.937,2.465-0.937,3.405,0c0.938,0.939,0.938,2.467,0,3.406l-5.471,5.471C8.149,12.018,7.532,12.253,6.916,12.253z
	 M11.745,3.733L6.273,9.204c-0.354,0.354-0.354,0.93,0,1.284c0.354,0.354,0.929,0.354,1.284,0l5.471-5.471
	c0.354-0.354,0.354-0.93,0-1.284C12.675,3.379,12.098,3.379,11.745,3.733z"/>
<path style="fill:#333333;" d="M8.585,22.821c-1.476,0-2.651-0.737-3.225-2.022c-0.683-1.527-0.396-3.641,0.653-4.811
	c0.754-0.843,0.821-2.251,0.2-4.188l1.429-0.458c0.795,2.48,0.624,4.379-0.511,5.646c-0.662,0.739-0.845,2.204-0.401,3.199
	c0.336,0.752,0.96,1.134,1.855,1.134c1.349,0,2.034-0.842,2.224-1.629c0.175-0.725-0.016-1.775-1.131-2.349l0.686-1.334
	c1.532,0.787,2.296,2.409,1.903,4.035C11.933,21.427,10.665,22.821,8.585,22.821z"/>
</svg>






