<?xml version="1.0" encoding="iso-8859-1"?>
<svg version="1.1" id="&#x56FE;&#x5C42;_1" xmlns="http://www.w3.org/2000/svg" xmlns:xlink="http://www.w3.org/1999/xlink" x="0px"
	 y="0px" viewBox="0 0 24 24" style="enable-background:new 0 0 24 24;" xml:space="preserve">
<path style="fill:#333333;" d="M4.238,8.683c-0.438,0-0.876-0.163-1.215-0.49L2.664,7.846c-0.695-0.669-0.715-1.78-0.045-2.474l0,0
	l2.43-2.519c0.67-0.693,1.78-0.713,2.474-0.044l0.36,0.348c0.694,0.67,0.714,1.78,0.045,2.474L5.498,8.149
	C5.154,8.504,4.696,8.683,4.238,8.683z M3.698,6.413C3.603,6.512,3.605,6.671,3.705,6.766l0.36,0.348
	c0.1,0.096,0.258,0.093,0.354-0.007l2.43-2.518c0.095-0.1,0.092-0.258-0.007-0.354L6.482,3.888c-0.1-0.095-0.257-0.092-0.354,0.006
	L3.698,6.413z"/>
<path style="fill:#333333;" d="M11.434,15.626c-0.438,0-0.876-0.162-1.215-0.49L9.86,14.79c-0.694-0.671-0.714-1.78-0.045-2.475h0
	l2.43-2.519c0.673-0.696,1.781-0.712,2.475-0.045l0.36,0.348c0.694,0.67,0.714,1.781,0.043,2.474l-2.429,2.519
	C12.351,15.447,11.893,15.626,11.434,15.626z M10.895,13.356c-0.095,0.1-0.092,0.258,0.007,0.354l0.359,0.346
	c0.099,0.097,0.258,0.095,0.354-0.006l2.429-2.519c0.062-0.065,0.071-0.14,0.07-0.178s-0.012-0.113-0.076-0.176l-0.36-0.347
	c-0.097-0.095-0.256-0.092-0.354,0.007L10.895,13.356z"/>
<path style="fill:#333333;" d="M4.995,11.498c-0.438,0-0.875-0.163-1.214-0.489l-0.36-0.348c-0.695-0.669-0.715-1.78-0.045-2.474h0
	L7.89,3.509c0.669-0.696,1.781-0.714,2.475-0.044l0.359,0.347c0.694,0.669,0.714,1.779,0.045,2.474l-4.514,4.678
	C5.912,11.319,5.454,11.498,4.995,11.498z M4.456,9.228L4.456,9.228c-0.063,0.065-0.071,0.14-0.07,0.178
	C4.387,9.445,4.397,9.52,4.462,9.582l0.36,0.348c0.101,0.095,0.258,0.094,0.354-0.007l4.513-4.677c0.062-0.065,0.07-0.14,0.07-0.178
	C9.758,5.028,9.747,4.954,9.683,4.892l-0.36-0.348C9.222,4.448,9.063,4.452,8.969,4.551L4.456,9.228z"/>
<path style="fill:#333333;" d="M8.594,14.97c-0.438,0-0.876-0.162-1.215-0.49L7.02,14.134c-0.694-0.671-0.714-1.78-0.045-2.475l0,0
	l4.514-4.678c0.324-0.336,0.76-0.526,1.227-0.535c0.012,0,0.022,0,0.033,0c0.456,0,0.886,0.173,1.214,0.491l0.36,0.347
	c0.336,0.324,0.525,0.76,0.534,1.228c0.009,0.468-0.166,0.911-0.491,1.247l-4.513,4.677C9.511,14.791,9.052,14.97,8.594,14.97z
	 M8.055,12.7L8.055,12.7c-0.096,0.1-0.093,0.258,0.006,0.354L8.42,13.4c0.099,0.097,0.258,0.094,0.354-0.006l4.513-4.678
	c0.062-0.064,0.071-0.139,0.07-0.178s-0.012-0.113-0.076-0.175l-0.36-0.348c-0.064-0.063-0.145-0.07-0.178-0.07
	c-0.038,0-0.112,0.011-0.175,0.076L8.055,12.7z"/>
<path style="fill:#333333;" d="M5.406,14.673c-0.438,0-0.876-0.162-1.215-0.49l-0.359-0.346c-0.694-0.671-0.714-1.78-0.045-2.475
	l0,0l7.291-7.556c0.671-0.695,1.781-0.712,2.474-0.044l0.36,0.347c0.337,0.325,0.526,0.761,0.534,1.229
	c0.009,0.467-0.166,0.91-0.491,1.246l-7.29,7.555C6.323,14.494,5.864,14.673,5.406,14.673z M4.867,12.403L4.867,12.403
	c-0.096,0.1-0.093,0.258,0.006,0.354l0.359,0.346c0.1,0.097,0.257,0.094,0.354-0.006l7.29-7.556c0.063-0.065,0.071-0.14,0.071-0.179
	c-0.001-0.038-0.012-0.112-0.076-0.174l-0.36-0.347c-0.1-0.096-0.257-0.092-0.354,0.006L4.867,12.403z"/>
<path style="fill:#333333;" d="M19.724,22.223L11.44,14.23l3.126-3.238l8.282,7.992L19.724,22.223z M13.562,14.193l6.125,5.908
	l1.041-1.08l-6.124-5.908L13.562,14.193z"/>
<path style="fill:#333333;" d="M8.5,22.75c-1.517,0-2.75-1.178-2.75-2.625c0-1.24,1.69-3.103,2.208-3.644L8.5,15.915l0.542,0.566
	c0.518,0.541,2.208,2.403,2.208,3.644C11.25,21.572,10.017,22.75,8.5,22.75z M8.5,18.123c-0.708,0.84-1.25,1.688-1.25,2.002
	c0,0.62,0.561,1.125,1.25,1.125s1.25-0.505,1.25-1.125C9.75,19.812,9.208,18.963,8.5,18.123z"/>
</svg>






