<?xml version="1.0" encoding="iso-8859-1"?>
<svg version="1.1" id="&#x56FE;&#x5C42;_1" xmlns="http://www.w3.org/2000/svg" xmlns:xlink="http://www.w3.org/1999/xlink" x="0px"
	 y="0px" viewBox="0 0 24 24" style="enable-background:new 0 0 24 24;" xml:space="preserve">
<path style="fill:#333333;" d="M2.75,12.5h-1.5V9.149C1.25,3.76,5.875,1.25,9,1.25v1.5c-1.958,0-6.25,1.611-6.25,6.399V12.5z"/>
<rect x="16.75" y="15" style="fill:#333333;" width="1.5" height="7"/>
<path style="fill:#333333;" d="M19.301,17.027c-0.793,0-1.51-0.417-1.944-1.142c-1.317-2.194-4.18-2.381-5.068-2.271
	c-1.897,0.327-3.403-0.561-3.995-2.383l1.427-0.463c0.361,1.112,1.154,1.576,2.35,1.361c1.804-0.221,5.021,0.4,6.572,2.984
	c0.102,0.167,0.327,0.452,0.72,0.41c0.521-0.041,1.306-0.649,1.941-2.233l1.393,0.559c-1.053,2.62-2.466,3.111-3.215,3.171
	C19.421,17.025,19.36,17.027,19.301,17.027z"/>
<path style="fill:#333333;" d="M5.75,22h-1.5V8.971c0-2.697,1.483-3.585,2.195-4.012l0.156-0.095
	c2.016-1.012,3.644-0.354,4.255-0.024c0.779,0.419,1.604,1.302,1.696,1.401l1.034,1.29l-1.172,0.938l-1-1.25
	c-0.168-0.179-0.797-0.803-1.27-1.058C9.74,5.942,8.658,5.508,7.335,6.171l-0.12,0.076C6.563,6.637,5.75,7.124,5.75,8.971V22z"/>
<path style="fill:#333333;" d="M14.25,22h-1.5v-1.5c0-0.965-0.785-1.75-1.75-1.75s-1.75,0.785-1.75,1.75V22h-1.5v-1.5
	c0-1.792,1.458-3.25,3.25-3.25s3.25,1.458,3.25,3.25V22z"/>
</svg>






