<?xml version="1.0" encoding="iso-8859-1"?>
<svg version="1.1" id="&#x56FE;&#x5C42;_1" xmlns="http://www.w3.org/2000/svg" xmlns:xlink="http://www.w3.org/1999/xlink" x="0px"
	 y="0px" viewBox="0 0 24 24" style="enable-background:new 0 0 24 24;" xml:space="preserve">
<polygon style="fill:#333333;" points="23.107,11.25 0.892,11.25 3.492,4.75 8,4.75 8,6.25 4.508,6.25 3.108,9.75 20.893,9.75 
	19.492,6.25 16,6.25 16,4.75 20.508,4.75 "/>
<path style="fill:#333333;" d="M20.75,22.25H3.25V9.75h17.5V22.25z M4.75,20.75h14.5v-9.5H4.75V20.75z"/>
<path style="fill:#333333;" d="M16.75,11.25h-9.5v-9.5h9.5V11.25z M8.75,9.75h6.5v-6.5h-6.5V9.75z"/>
<path style="fill:#333333;" d="M12.75,22.25h-5.5v-8.5h5.5V22.25z M8.75,20.75h2.5v-5.5h-2.5V20.75z"/>
<path style="fill:#333333;" d="M16.75,22.25h-5.5v-8.5h5.5V22.25z M12.75,20.75h2.5v-5.5h-2.5V20.75z"/>
<rect x="10.5" y="5.75" style="fill:#333333;" width="3" height="1.5"/>
<rect x="6" y="20.75" style="fill:#333333;" width="12" height="1.5"/>
<rect x="11.25" y="5" style="fill:#333333;" width="1.5" height="3"/>
</svg>






