<?xml version="1.0" encoding="iso-8859-1"?>
<svg version="1.1" id="&#x56FE;&#x5C42;_1" xmlns="http://www.w3.org/2000/svg" xmlns:xlink="http://www.w3.org/1999/xlink" x="0px"
	 y="0px" viewBox="0 0 24 24" style="enable-background:new 0 0 24 24;" xml:space="preserve">
<path style="fill:#333333;" d="M14.75,21.75H3c-0.965,0-1.75-0.785-1.75-1.75V4c0-0.965,0.785-1.75,1.75-1.75h10
	c0.965,0,1.75,0.785,1.75,1.75V21.75z M3,3.75C2.862,3.75,2.75,3.862,2.75,4v16c0,0.138,0.112,0.25,0.25,0.25h10.25V4
	c0-0.138-0.112-0.25-0.25-0.25H3z"/>
<path style="fill:#333333;" d="M11.25,21h-1.5v-4.5c0-0.413-0.336-0.75-0.75-0.75H7c-0.414,0-0.75,0.337-0.75,0.75V21h-1.5v-4.5
	c0-1.24,1.009-2.25,2.25-2.25h2c1.241,0,2.25,1.01,2.25,2.25V21z"/>
<path style="fill:#333333;" d="M21,21.75h-7.75v-10.5H21c0.965,0,1.75,0.785,1.75,1.75v7C22.75,20.965,21.965,21.75,21,21.75z
	 M14.75,20.25H21c0.138,0,0.25-0.112,0.25-0.25v-7c0-0.138-0.112-0.25-0.25-0.25h-6.25V20.25z"/>
<rect x="6" y="8.25" style="fill:#333333;" width="4" height="1.5"/>
<rect x="17" y="14.25" style="fill:#333333;" width="2" height="1.5"/>
<rect x="17" y="17.25" style="fill:#333333;" width="2" height="1.5"/>
<rect x="7.25" y="7" style="fill:#333333;" width="1.5" height="4"/>
<rect x="3.5" y="20.25" style="fill:#333333;" width="9" height="1.5"/>
</svg>






