<?xml version="1.0" encoding="iso-8859-1"?>
<svg version="1.1" id="&#x56FE;&#x5C42;_1" xmlns="http://www.w3.org/2000/svg" xmlns:xlink="http://www.w3.org/1999/xlink" x="0px"
	 y="0px" viewBox="0 0 24 24" style="enable-background:new 0 0 24 24;" xml:space="preserve">
<path style="fill:#333333;" d="M12,18.75c-3.737,0-8.25-4.271-8.25-9.574C3.75,4.657,7.297,1.25,12,1.25s8.25,3.407,8.25,7.926
	C20.25,14.479,15.736,18.75,12,18.75z M12,2.75c-3.848,0-6.75,2.763-6.75,6.426c0,4.349,3.711,8.074,6.75,8.074
	c3.038,0,6.75-3.726,6.75-8.074C18.75,5.513,15.848,2.75,12,2.75z"/>
<path style="fill:#333333;" d="M13.044,18.517l-1.087-1.033c1.639-1.726,3.293-4.708,3.293-7.483c0-2.821-1.651-5.789-3.289-7.478
	l1.078-1.044C14.751,3.245,16.75,6.538,16.75,10C16.75,13.188,14.889,16.575,13.044,18.517z"/>
<path style="fill:#333333;" d="M10.979,18.54C8.609,16.253,7.25,13.14,7.25,10c0-3.23,1.326-6.265,3.734-8.544l1.031,1.089
	C9.91,4.539,8.75,7.186,8.75,10c0,2.735,1.192,5.454,3.271,7.46L10.979,18.54z"/>
<path style="fill:#333333;" d="M13.453,8.985c-1.379,0-2.529-0.226-2.602-0.241l0.295-1.471c0.024,0.004,2.394,0.467,4.166,0.009
	c1.816-0.47,3.264-1.402,3.278-1.411l0.819,1.256c-0.067,0.044-1.659,1.074-3.723,1.607C14.962,8.923,14.176,8.985,13.453,8.985z"/>
<path style="fill:#333333;" d="M11.751,12.813c-0.798,0-1.861-0.067-2.933-0.336c-2.056-0.514-4.548-1.754-4.653-1.807l0.671-1.342
	c0.024,0.012,2.452,1.22,4.347,1.693c1.842,0.461,3.706,0.235,3.725,0.233l0.186,1.488C13.05,12.75,12.524,12.813,11.751,12.813z"/>
<path style="fill:none;" d="M9,17.5l0.7,3.548c0,0,1.363,0.952,2.3,0.952s2.3-0.952,2.3-0.952l0.697-3.533L12,18L9,17.5z"/>
<path style="fill:#333333;" d="M12,22.75c-1.141,0-2.57-0.977-2.729-1.088l-0.248-0.173l-0.969-4.907l3.948,0.658l3.939-0.639
	l-0.964,4.888l-0.248,0.173C14.57,21.773,13.141,22.75,12,22.75z M10.375,20.594c0.504,0.312,1.217,0.656,1.625,0.656
	c0.438,0,1.169-0.376,1.625-0.657l0.428-2.165l-2.055,0.332l-2.052-0.342L10.375,20.594z"/>
</svg>






