<?xml version="1.0" encoding="iso-8859-1"?>
<svg version="1.1" id="&#x56FE;&#x5C42;_1" xmlns="http://www.w3.org/2000/svg" xmlns:xlink="http://www.w3.org/1999/xlink" x="0px"
	 y="0px" viewBox="0 0 24 24" style="enable-background:new 0 0 24 24;" xml:space="preserve">
<rect x="11.25" y="2" style="fill:#333333;" width="1.5" height="3.5"/>
<rect x="15.25" y="3.5" style="fill:#333333;" width="1.5" height="2"/>
<rect x="7.25" y="3.5" style="fill:#333333;" width="1.5" height="2"/>
<path style="fill:#333333;" d="M12,17.25c-2.087,0-4.11-0.485-5.85-1.404c-3.068-1.62-4.9-4.366-4.9-7.346V7.75h21.5V8.5
	c0,2.979-1.832,5.726-4.899,7.346C16.11,16.765,14.087,17.25,12,17.25z M2.8,9.25c0.282,2.124,1.751,4.055,4.05,5.27
	c3.051,1.609,7.25,1.609,10.299,0c2.3-1.215,3.77-3.146,4.051-5.27H2.8z"/>
<rect x="5.233" y="18.75" style="fill:#333333;" width="13.533" height="1.5"/>
<rect x="1.948" y="17.841" transform="matrix(0.2812 -0.9596 0.9596 0.2812 -13.8877 18.6405)" style="fill:#333333;" width="7.105" height="1.5"/>
<rect x="17.75" y="15.039" transform="matrix(0.9596 -0.2815 0.2815 0.9596 -4.4854 5.9597)" style="fill:#333333;" width="1.5" height="7.105"/>
<rect x="10" y="11.75" style="fill:#333333;" width="4" height="1.5"/>
</svg>






