<?xml version="1.0" encoding="iso-8859-1"?>
<svg version="1.1" id="&#x56FE;&#x5C42;_1" xmlns="http://www.w3.org/2000/svg" xmlns:xlink="http://www.w3.org/1999/xlink" x="0px"
	 y="0px" viewBox="0 0 24 24" style="enable-background:new 0 0 24 24;" xml:space="preserve">
<path style="fill:#333333;" d="M12,18.75c-5.792,0-9.25-3.645-9.25-9.75V8.25h18.5V9C21.25,15.105,17.792,18.75,12,18.75z
	 M4.273,9.75c0.166,2.73,1.367,7.5,7.727,7.5c6.36,0,7.562-4.77,7.728-7.5H4.273z"/>
<polygon style="fill:#333333;" points="18.041,22.75 5.959,22.75 7.789,17.263 9.211,17.737 8.041,21.25 15.959,21.25 
	14.788,17.737 16.212,17.263 "/>
<polygon style="fill:#333333;" points="13.752,9.06 13.252,2.75 10.749,2.75 10.248,9.06 8.752,8.94 9.363,1.25 14.637,1.25 
	15.248,8.94 "/>
<path style="fill:#333333;" d="M8.951,14.748c-0.083-0.005-0.835-0.072-1.481-0.718c-0.646-0.646-0.712-1.397-0.718-1.481
	l1.496-0.114c0.001,0.012,0.036,0.287,0.283,0.535c0.241,0.241,0.516,0.281,0.519,0.282L8.951,14.748z"/>
</svg>






