<?xml version="1.0" encoding="iso-8859-1"?>
<svg version="1.1" id="&#x56FE;&#x5C42;_1" xmlns="http://www.w3.org/2000/svg" xmlns:xlink="http://www.w3.org/1999/xlink" x="0px"
	 y="0px" viewBox="0 0 24 24" style="enable-background:new 0 0 24 24;" xml:space="preserve">
<path style="fill:none;" d="M6.5,13.5c0,0,10,0,10-6V22h-10V13.5z"/>
<path style="fill:#333333;" d="M17.25,22.75H5.75v-9.999L6.5,12.75c0.093,0,9.25-0.07,9.25-5.25V7c0-2.343-1.906-4.25-4.25-4.25
	C9.157,2.75,7.25,4.657,7.25,7h-1.5c0-3.17,2.58-5.75,5.75-5.75c3.171,0,5.75,2.58,5.75,5.75V22.75z M7.25,21.25h8.5v-9.998
	c-2.329,2.392-6.731,2.876-8.5,2.974V21.25z"/>
<rect x="10.75" y="15.379" transform="matrix(0.7071 -0.7071 0.7071 0.7071 -9.0061 13.2574)" style="fill:#333333;" width="1.5" height="4.243"/>
<rect x="9.379" y="16.75" transform="matrix(0.7071 -0.7071 0.7071 0.7071 -9.0061 13.2574)" style="fill:#333333;" width="4.243" height="1.5"/>
</svg>






