<?xml version="1.0" encoding="iso-8859-1"?>
<svg version="1.1" id="&#x56FE;&#x5C42;_1" xmlns="http://www.w3.org/2000/svg" xmlns:xlink="http://www.w3.org/1999/xlink" x="0px"
	 y="0px" viewBox="0 0 24 24" style="enable-background:new 0 0 24 24;" xml:space="preserve">
<path style="fill:none;" d="M6.5,13.5c0,0,10,0,10-6V22h-10V13.5z"/>
<path style="fill:#333333;" d="M17.25,22.75H5.75v-9.999L6.5,12.75c0.093,0,9.25-0.07,9.25-5.25V7c0-2.343-1.906-4.25-4.25-4.25
	C9.157,2.75,7.25,4.657,7.25,7h-1.5c0-3.17,2.58-5.75,5.75-5.75c3.171,0,5.75,2.58,5.75,5.75V22.75z M7.25,21.25h8.5v-9.998
	c-2.329,2.392-6.731,2.876-8.5,2.974V21.25z"/>
<polygon style="fill:#333333;" points="11,19.561 8.97,17.53 10.03,16.47 11,17.439 12.97,15.47 14.03,16.53 "/>
</svg>






