<?xml version="1.0" encoding="iso-8859-1"?>
<svg version="1.1" id="&#x56FE;&#x5C42;_1" xmlns="http://www.w3.org/2000/svg" xmlns:xlink="http://www.w3.org/1999/xlink" x="0px"
	 y="0px" viewBox="0 0 24 24" style="enable-background:new 0 0 24 24;" xml:space="preserve">
<rect x="2" y="1.25" style="fill:#333333;" width="20" height="1.5"/>
<path style="fill:#333333;" d="M19,22.75H5c-0.965,0-1.75-0.785-1.75-1.75V3c0-0.965,0.785-1.75,1.75-1.75h14
	c0.965,0,1.75,0.785,1.75,1.75v18C20.75,21.965,19.965,22.75,19,22.75z M5,2.75C4.862,2.75,4.75,2.862,4.75,3v18
	c0,0.138,0.112,0.25,0.25,0.25h14c0.138,0,0.25-0.112,0.25-0.25V3c0-0.138-0.112-0.25-0.25-0.25H5z"/>
<path style="fill:#333333;" d="M14.75,22.75h-5.5v-7.5h5.5V22.75z M10.75,21.25h2.5v-4.5h-2.5V21.25z"/>
<rect x="7.5" y="5.25" style="fill:#333333;" width="1" height="1.5"/>
<rect x="7.5" y="8.25" style="fill:#333333;" width="1" height="1.5"/>
<rect x="11.5" y="5.25" style="fill:#333333;" width="1" height="1.5"/>
<rect x="11.5" y="8.25" style="fill:#333333;" width="1" height="1.5"/>
<rect x="15.5" y="5.25" style="fill:#333333;" width="1" height="1.5"/>
<rect x="15.5" y="8.25" style="fill:#333333;" width="1" height="1.5"/>
<rect x="2" y="21.25" style="fill:#333333;" width="20" height="1.5"/>
<path style="fill:#333333;" d="M15,16.75h-1v-1.5h0.592c-0.384-0.878-1.423-1.5-2.592-1.5s-2.208,0.622-2.592,1.5H10v1.5H9
	c-0.371,0-0.716-0.161-0.947-0.44c-0.219-0.267-0.307-0.612-0.242-0.949c0.351-1.803,2.112-3.11,4.188-3.11s3.838,1.308,4.188,3.109
	c0.065,0.338-0.022,0.684-0.241,0.95C15.716,16.589,15.371,16.75,15,16.75z"/>
</svg>






