<?xml version="1.0" encoding="iso-8859-1"?>
<svg version="1.1" id="&#x56FE;&#x5C42;_1" xmlns="http://www.w3.org/2000/svg" xmlns:xlink="http://www.w3.org/1999/xlink" x="0px"
	 y="0px" viewBox="0 0 24 24" style="enable-background:new 0 0 24 24;" xml:space="preserve">
<rect x="4" y="1.25" style="fill:#333333;" width="16" height="1.5"/>
<rect x="4" y="21.25" style="fill:#333333;" width="16" height="1.5"/>
<polygon style="fill:#333333;" points="9.942,13.502 5.25,8.288 5.25,2 6.75,2 6.75,7.712 11.058,12.498 "/>
<polygon style="fill:#333333;" points="18.75,22 17.25,22 17.25,15.073 12.985,11.045 14.015,9.955 18.75,14.427 "/>
<polygon style="fill:#333333;" points="6.75,22 5.25,22 5.25,14.689 8.72,11.22 9.78,12.28 6.75,15.311 "/>
<polygon style="fill:#333333;" points="15.316,12.241 14.184,11.259 17.25,7.72 17.25,2 18.75,2 18.75,8.28 "/>
<rect x="9" y="15.75" style="fill:#333333;" width="0.5" height="1.5"/>
<rect x="14" y="16.25" transform="matrix(0.7071 -0.7071 0.7071 0.7071 -7.3471 15.2626)" style="fill:#333333;" width="1.5" height="0.5"/>
<rect x="12" y="18.25" style="fill:#333333;" width="0.5" height="1.5"/>
</svg>






