<?xml version="1.0" encoding="iso-8859-1"?>
<svg version="1.1" id="&#x56FE;&#x5C42;_1" xmlns="http://www.w3.org/2000/svg" xmlns:xlink="http://www.w3.org/1999/xlink" x="0px"
	 y="0px" viewBox="0 0 24 24" style="enable-background:new 0 0 24 24;" xml:space="preserve">
<path style="fill:#333333;" d="M12,22.149c-0.25,0-0.501-0.054-0.734-0.162l-5.557-2.565c-0.564-0.26-0.951-0.807-1.009-1.425
	L3.356,3.663C3.31,3.174,3.473,2.686,3.804,2.322C4.135,1.958,4.606,1.75,5.098,1.75h13.803c0.491,0,0.963,0.208,1.294,0.571
	c0.331,0.363,0.494,0.852,0.449,1.342l-1.344,14.334c-0.059,0.618-0.444,1.164-1.009,1.425l-5.559,2.565
	C12.501,22.096,12.25,22.149,12,22.149z M5.098,3.25c-0.096,0-0.157,0.051-0.185,0.082C4.885,3.362,4.84,3.428,4.849,3.523
	l1.344,14.333c0.008,0.089,0.063,0.167,0.145,0.204l5.558,2.565c0.066,0.031,0.144,0.031,0.208,0l5.56-2.565
	c0.08-0.037,0.136-0.115,0.144-0.204L19.15,3.523c0.009-0.096-0.036-0.161-0.063-0.192c-0.028-0.03-0.089-0.082-0.186-0.082H5.098z"
	/>
<polygon style="fill:#333333;" points="12,18.339 8.295,16.486 8.004,13.574 9.496,13.426 9.705,15.514 12,16.661 14.291,15.516 
	14.679,11.25 7.829,11.25 7.162,5.25 16,5.25 16,6.75 8.838,6.75 9.171,9.75 16.321,9.75 15.709,16.484 "/>
</svg>






