<?xml version="1.0" encoding="iso-8859-1"?>
<svg version="1.1" id="&#x56FE;&#x5C42;_1" xmlns="http://www.w3.org/2000/svg" xmlns:xlink="http://www.w3.org/1999/xlink" x="0px"
	 y="0px" viewBox="0 0 24 24" style="enable-background:new 0 0 24 24;" xml:space="preserve">
<path style="fill:#333333;" d="M22.75,21.75H1.25v-8h21.5V21.75z M2.75,20.25h18.5v-5H2.75V20.25z"/>
<polygon style="fill:#333333;" points="2.734,14.654 1.266,14.346 3.91,1.75 20.12,1.75 22.734,14.348 21.266,14.652 18.899,3.25 
	5.128,3.25 "/>
<path style="fill:#333333;" d="M9.5,11.75c-1.792,0-3.25-1.458-3.25-3.25S7.708,5.25,9.5,5.25v1.5c-0.965,0-1.75,0.785-1.75,1.75
	s0.785,1.75,1.75,1.75V11.75z"/>
<path style="fill:#333333;" d="M14.5,11.75v-1.5c0.965,0,1.75-0.785,1.75-1.75s-0.785-1.75-1.75-1.75v-1.5
	c1.792,0,3.25,1.458,3.25,3.25S16.292,11.75,14.5,11.75z"/>
<rect x="10" y="7.75" style="fill:#333333;" width="4" height="1.5"/>
</svg>






