<?xml version="1.0" encoding="iso-8859-1"?>
<svg version="1.1" id="&#x56FE;&#x5C42;_1" xmlns="http://www.w3.org/2000/svg" xmlns:xlink="http://www.w3.org/1999/xlink" x="0px"
	 y="0px" viewBox="0 0 24 24" style="enable-background:new 0 0 24 24;" xml:space="preserve">
<path style="fill:#333333;" d="M12,22.25c-1.498,0-2.143-1.807-2.211-2.013L6.518,8.25h10.964l-3.259,11.947
	C14.143,20.443,13.497,22.25,12,22.25z M8.482,9.75l2.742,10.053c0.128,0.371,0.497,0.947,0.776,0.947
	c0.302,0,0.674-0.643,0.788-0.987l2.73-10.013H8.482z"/>
<path style="fill:#333333;" d="M18.75,9.75H5.25V9c0-4.491,2.839-7.75,6.75-7.75S18.75,4.509,18.75,9V9.75z M6.782,8.25h10.436
	c-0.283-3.229-2.39-5.5-5.218-5.5C9.172,2.75,7.065,5.021,6.782,8.25z"/>
</svg>






