<?xml version="1.0" encoding="iso-8859-1"?>
<svg version="1.1" id="&#x56FE;&#x5C42;_1" xmlns="http://www.w3.org/2000/svg" xmlns:xlink="http://www.w3.org/1999/xlink" x="0px"
	 y="0px" viewBox="0 0 24 24" style="enable-background:new 0 0 24 24;" xml:space="preserve">
<path style="fill:#333333;" d="M17.835,16.75H6.166l1.661-15.5h8.348L17.835,16.75z M7.834,15.25h8.331l-1.339-12.5H9.174
	L7.834,15.25z"/>
<path style="fill:#333333;" d="M12,22.75c-1.241,0-2.25-1.01-2.25-2.25V16h1.5v4.5c0,0.413,0.336,0.75,0.75,0.75
	c0.413,0,0.75-0.337,0.75-0.75V16h1.5v4.5C14.25,21.74,13.24,22.75,12,22.75z"/>
<path style="fill:#333333;" d="M10,8.577c-0.917,0-1.833-0.349-2.53-1.046L8.53,6.47c0.811,0.811,2.129,0.811,2.939,0
	c1.395-1.396,3.666-1.396,5.061,0L15.47,7.53c-0.811-0.811-2.129-0.811-2.939,0C11.833,8.228,10.917,8.577,10,8.577z"/>
<path style="fill:#333333;" d="M9.868,12.884c-0.105,0-0.21-0.004-0.316-0.013c-1.045-0.085-1.982-0.584-2.637-1.402l1.171-0.938
	c0.395,0.494,0.959,0.793,1.588,0.845c0.628,0.053,1.235-0.152,1.705-0.575l0.239-0.216c0.78-0.703,1.784-1.044,2.831-0.956
	c1.046,0.085,1.982,0.583,2.638,1.403l-1.172,0.937c-0.395-0.493-0.958-0.793-1.588-0.844c-0.642-0.053-1.235,0.153-1.704,0.575
	l-0.239,0.216C11.681,12.546,10.798,12.884,9.868,12.884z"/>
</svg>






