<?xml version="1.0" encoding="iso-8859-1"?>
<svg version="1.1" id="&#x56FE;&#x5C42;_1" xmlns="http://www.w3.org/2000/svg" xmlns:xlink="http://www.w3.org/1999/xlink" x="0px"
	 y="0px" viewBox="0 0 24 24" style="enable-background:new 0 0 24 24;" xml:space="preserve">
<g>
	<defs>
		<rect id="SVGID_1_" width="24" height="24"/>
	</defs>
	<clipPath id="SVGID_00000008870293745098373930000006717814018173597600_">
		<use xlink:href="#SVGID_1_"  style="overflow:visible;"/>
	</clipPath>
	<g style="clip-path:url(#SVGID_00000008870293745098373930000006717814018173597600_);">
		<path style="fill:#333333;" d="M5.738,21.209l-3.877-3.877L9.291,5.67l8.033,8.034L5.738,21.209z M3.773,17.123l2.168,2.168
			l9.012-5.837L9.552,8.052L3.773,17.123z"/>
		<path style="fill:#333333;" d="M15.962,14.435L8.554,7.027L8.552,6.72C8.549,6.293,8.778,5.452,9.659,5.003
			c0.115-0.054,0.372-0.174,0.967-0.145c0.74-1.207,1.848-1.684,3.137-1.347c0.853-0.788,2.288-1.116,3.48-0.732
			c0.814,0.263,1.18,0.717,1.446,1.049c0.157,0.196,0.246,0.301,0.385,0.37c0.1,0.048,0.262-0.076,0.325-0.15V4.041
			c-0.003-0.392-0.008-0.985,0.446-1.339c0.25-0.194,0.571-0.254,0.905-0.169c0.756,0.204,1.062,0.914,1.34,2.074
			c0.206,0.868,0.077,2.102-0.677,2.902c-0.284,0.303-0.679,0.498-1.1,0.649c0.122,0.66,0.156,1.573-0.398,2.127
			c-0.457,0.458-0.849,0.629-1.197,0.742c-0.047,1.338-0.317,2.931-2.366,3.331L15.962,14.435z M10.139,6.491l6.294,6.293
			c0.704-0.271,0.781-0.877,0.797-2.239l0.006-0.529l0.501-0.254c0.122-0.042,0.234-0.076,0.343-0.107
			c0.324-0.096,0.489-0.144,0.768-0.42c0.095-0.176,0.022-0.84-0.145-1.331l-0.248-0.73l0.888-0.278
			c0.224-0.066,0.818-0.242,0.981-0.415c0.349-0.371,0.42-1.063,0.31-1.527c-0.003-0.012-0.006-0.024-0.009-0.036
			c-0.162,0.221-0.373,0.401-0.567,0.521C19.533,5.76,18.936,5.8,18.414,5.544c-0.444-0.219-0.693-0.528-0.894-0.776
			c-0.211-0.263-0.35-0.436-0.737-0.561C16.02,3.96,14.991,4.24,14.624,4.794L14.283,5.31l-0.57-0.236
			c-0.933-0.385-1.509-0.124-1.985,0.902L11.489,6.49l-0.561-0.091c-0.395-0.063-0.598-0.047-0.643-0.036
			C10.22,6.398,10.173,6.443,10.139,6.491z"/>
		<path style="fill:#333333;" d="M18.02,8.784c-0.92,0-1.789-0.417-2.626-1.254l1.061-1.061c0.894,0.894,1.603,1.035,2.617,0.52
			l0.68,1.337C19.152,8.631,18.576,8.784,18.02,8.784z"/>
	</g>
</g>
</svg>






