<?xml version="1.0" encoding="iso-8859-1"?>
<svg version="1.1" id="&#x56FE;&#x5C42;_1" xmlns="http://www.w3.org/2000/svg" xmlns:xlink="http://www.w3.org/1999/xlink" x="0px"
	 y="0px" viewBox="0 0 24 24" style="enable-background:new 0 0 24 24;" xml:space="preserve">
<path style="fill:#333333;" d="M21,20.75H3c-0.965,0-1.75-0.785-1.75-1.75V5c0-0.965,0.785-1.75,1.75-1.75h18
	c0.965,0,1.75,0.785,1.75,1.75v14C22.75,19.965,21.965,20.75,21,20.75z M3,4.75C2.862,4.75,2.75,4.862,2.75,5v14
	c0,0.138,0.112,0.25,0.25,0.25h18c0.138,0,0.25-0.112,0.25-0.25V5c0-0.138-0.112-0.25-0.25-0.25H3z"/>
<path style="fill:#333333;" d="M8.5,13.25c-1.517,0-2.75-1.233-2.75-2.75S6.983,7.75,8.5,7.75s2.75,1.233,2.75,2.75
	S10.017,13.25,8.5,13.25z M8.5,9.25c-0.689,0-1.25,0.561-1.25,1.25s0.561,1.25,1.25,1.25s1.25-0.561,1.25-1.25S9.189,9.25,8.5,9.25z
	"/>
<path style="fill:#333333;" d="M12.25,15.5h-1.5c0-1.24-1.009-2.25-2.25-2.25s-2.25,1.01-2.25,2.25h-1.5
	c0-2.067,1.682-3.75,3.75-3.75S12.25,13.433,12.25,15.5z"/>
<rect x="14" y="9.25" style="fill:#333333;" width="4" height="1.5"/>
<rect x="15" y="13.25" style="fill:#333333;" width="3" height="1.5"/>
</svg>






