<?xml version="1.0" encoding="iso-8859-1"?>
<svg version="1.1" id="&#x56FE;&#x5C42;_1" xmlns="http://www.w3.org/2000/svg" xmlns:xlink="http://www.w3.org/1999/xlink" x="0px"
	 y="0px" viewBox="0 0 24 24" style="enable-background:new 0 0 24 24;" xml:space="preserve">
<path style="fill:#333333;" d="M19,22.75H5c-0.965,0-1.75-0.785-1.75-1.75V3c0-0.965,0.785-1.75,1.75-1.75h14
	c0.965,0,1.75,0.785,1.75,1.75v18C20.75,21.965,19.965,22.75,19,22.75z M5,2.75C4.862,2.75,4.75,2.862,4.75,3v18
	c0,0.138,0.112,0.25,0.25,0.25h14c0.138,0,0.25-0.112,0.25-0.25V3c0-0.138-0.112-0.25-0.25-0.25H5z"/>
<path style="fill:#333333;" d="M12,10.25c-1.517,0-2.75-1.233-2.75-2.75S10.483,4.75,12,4.75s2.75,1.233,2.75,2.75
	S13.517,10.25,12,10.25z M12,6.25c-0.689,0-1.25,0.561-1.25,1.25S11.311,8.75,12,8.75s1.25-0.561,1.25-1.25S12.689,6.25,12,6.25z"/>
<path style="fill:#333333;" d="M15.75,12.5h-1.5c0-1.241-1.01-2.25-2.25-2.25c-1.241,0-2.25,1.009-2.25,2.25h-1.5
	c0-2.068,1.682-3.75,3.75-3.75C14.067,8.75,15.75,10.432,15.75,12.5z"/>
<rect x="9" y="14.75" style="fill:#333333;" width="6" height="1.5"/>
<rect x="9" y="17.75" style="fill:#333333;" width="3.5" height="1.5"/>
</svg>






