<?xml version="1.0" encoding="iso-8859-1"?>
<svg version="1.1" id="&#x56FE;&#x5C42;_1" xmlns="http://www.w3.org/2000/svg" xmlns:xlink="http://www.w3.org/1999/xlink" x="0px"
	 y="0px" viewBox="0 0 24 24" style="enable-background:new 0 0 24 24;" xml:space="preserve">
<rect x="11.25" y="2" style="fill:#333333;" width="1.5" height="7.5"/>
<rect x="5.815" y="8.75" transform="matrix(0.9701 -0.2428 0.2428 0.9701 -1.9478 3.1985)" style="fill:#333333;" width="12.369" height="1.5"/>
<rect x="11.969" y="10.75" transform="matrix(0.496 -0.8683 0.8683 0.496 -1.9217 19.6892)" style="fill:#333333;" width="8.062" height="1.5"/>
<rect x="19.25" y="7.469" transform="matrix(0.8682 -0.4961 0.4961 0.8682 -3.0705 11.438)" style="fill:#333333;" width="1.5" height="8.062"/>
<rect x="7.25" y="10.469" transform="matrix(0.8682 -0.4961 0.4961 0.8682 -6.14 5.8796)" style="fill:#333333;" width="1.5" height="8.062"/>
<rect x="-0.031" y="13.75" transform="matrix(0.496 -0.8683 0.8683 0.496 -10.5747 10.7813)" style="fill:#333333;" width="8.062" height="1.5"/>
<path style="fill:#333333;" d="M6,22.75c-2.619,0-4.75-2.131-4.75-4.75v-0.75h9.5V18C10.75,20.619,8.619,22.75,6,22.75z
	 M2.837,18.75c0.339,1.432,1.628,2.5,3.163,2.5s2.823-1.068,3.163-2.5H2.837z"/>
<path style="fill:#333333;" d="M18,19.75c-2.619,0-4.75-2.131-4.75-4.75v-0.75h9.5V15C22.75,17.619,20.619,19.75,18,19.75z
	 M14.837,15.75c0.34,1.432,1.629,2.5,3.163,2.5s2.823-1.068,3.163-2.5H14.837z"/>
</svg>






