<?xml version="1.0" encoding="iso-8859-1"?>
<svg version="1.1" id="&#x56FE;&#x5C42;_1" xmlns="http://www.w3.org/2000/svg" xmlns:xlink="http://www.w3.org/1999/xlink" x="0px"
	 y="0px" viewBox="0 0 24 24" style="enable-background:new 0 0 24 24;" xml:space="preserve">
<path style="fill:#333333;" d="M18.75,20h-1.5c0-3.171-2.355-5.75-5.25-5.75c-2.895,0-5.25,2.579-5.25,5.75h-1.5
	c0-3.998,3.028-7.25,6.75-7.25C15.722,12.75,18.75,16.002,18.75,20z"/>
<path style="fill:#333333;" d="M13.343,21.173c-0.662,0-1.293-0.197-1.793-0.573c-0.663-0.497-0.963-1.209-1.204-1.78
	c-0.074-0.177-0.178-0.424-0.263-0.561c-0.077,0.094-0.171,0.233-0.241,0.337c-0.224,0.332-0.502,0.745-0.927,1.028
	C8.17,20.121,7.198,20,6.565,19.663C6.047,19.386,5.75,18.962,5.75,18.5h1.5c0-0.122-0.049-0.202-0.066-0.22
	c0.11,0.117,0.629,0.278,0.9,0.096c0.178-0.119,0.35-0.373,0.515-0.618c0.326-0.483,0.87-1.298,1.854-1.017
	c0.732,0.205,1.021,0.891,1.276,1.496c0.188,0.446,0.382,0.909,0.721,1.163c0.319,0.238,0.793,0.326,1.263,0.236
	c0.49-0.097,0.907-0.378,1.144-0.772c0.275-0.458,0.253-0.676,0.223-0.978c-0.037-0.364-0.087-0.862,0.338-1.467
	c0.605-0.859,1.513-0.811,1.94-0.579l-0.715,1.318c0.081,0.036,0.047,0.06,0.001,0.124c-0.104,0.146-0.099,0.188-0.072,0.453
	c0.041,0.404,0.103,1.015-0.428,1.899c-0.455,0.759-1.236,1.295-2.142,1.473C13.781,21.151,13.561,21.173,13.343,21.173z"/>
<rect x="11.5" y="9.75" style="fill:#333333;" width="1" height="1.5"/>
<rect x="15.75" y="11" transform="matrix(0.5307 -0.8476 0.8476 0.5307 -2.0036 19.3817)" style="fill:#333333;" width="1.5" height="1"/>
<rect x="7" y="10.75" transform="matrix(0.848 -0.53 0.53 0.848 -4.9549 5.7225)" style="fill:#333333;" width="1" height="1.5"/>
<rect x="19.029" y="14" transform="matrix(0.8658 -0.5003 0.5003 0.8658 -4.6011 11.8419)" style="fill:#333333;" width="1.5" height="0.999"/>
<rect x="3.78" y="13.75" transform="matrix(0.5001 -0.866 0.866 0.5001 -10.4175 10.955)" style="fill:#333333;" width="0.999" height="1.5"/>
<rect x="20.249" y="18.5" transform="matrix(0.9945 -0.1045 0.1045 0.9945 -1.8711 2.2992)" style="fill:#333333;" width="1.5" height="1"/>
<rect x="2" y="18.25" transform="matrix(0.1041 -0.9946 0.9946 0.1041 -16.6575 19.5072)" style="fill:#333333;" width="1" height="1.5"/>
<rect x="4.261" y="6.25" transform="matrix(0.9718 -0.2356 0.2356 0.9718 -1.2904 3.2015)" style="fill:#333333;" width="16.978" height="1.5"/>
<path style="fill:#333333;" d="M8.187,8.852l-3.307-4.63l3.107-1.554l6.828,3.151l-0.133,1.409L8.187,8.852z M7.121,4.778
	l1.693,2.37l3.439-0.86l-4.24-1.957L7.121,4.778z"/>
<rect x="3" y="6.75" transform="matrix(0.8 -0.6 0.6 0.8 -4.05 3.85)" style="fill:#333333;" width="1.5" height="2.5"/>
</svg>






