<?xml version="1.0" encoding="iso-8859-1"?>
<svg version="1.1" id="&#x56FE;&#x5C42;_1" xmlns="http://www.w3.org/2000/svg" xmlns:xlink="http://www.w3.org/1999/xlink" x="0px"
	 y="0px" viewBox="0 0 24 24" style="enable-background:new 0 0 24 24;" xml:space="preserve">
<path style="fill:#333333;" d="M19.5,21.75h-15c-1.241,0-2.25-1.01-2.25-2.25v-15c0-1.241,1.009-2.25,2.25-2.25h15
	c1.24,0,2.25,1.009,2.25,2.25v15C21.75,20.74,20.74,21.75,19.5,21.75z M4.5,3.75c-0.414,0-0.75,0.336-0.75,0.75v15
	c0,0.413,0.336,0.75,0.75,0.75h15c0.413,0,0.75-0.337,0.75-0.75v-15c0-0.414-0.337-0.75-0.75-0.75H4.5z"/>
<polygon style="fill:#333333;" points="15.964,18.25 8.037,18.25 7.037,16.25 2,16.25 2,14.75 7.963,14.75 8.963,16.75 
	15.036,16.75 16.036,14.75 22,14.75 22,16.25 16.964,16.25 "/>
<rect x="20.25" y="13" style="fill:#333333;" width="1.5" height="5"/>
<rect x="2.25" y="13" style="fill:#333333;" width="1.5" height="5"/>
<rect x="8.5" y="6.75" style="fill:#333333;" width="7" height="1.5"/>
<rect x="8.5" y="10.75" style="fill:#333333;" width="7" height="1.5"/>
</svg>






