<?xml version="1.0" encoding="iso-8859-1"?>
<svg version="1.1" id="&#x56FE;&#x5C42;_1" xmlns="http://www.w3.org/2000/svg" xmlns:xlink="http://www.w3.org/1999/xlink" x="0px"
	 y="0px" viewBox="0 0 24 24" style="enable-background:new 0 0 24 24;" xml:space="preserve">
<polygon style="fill:#333333;" points="16.97,19.53 13.939,16.5 16.97,13.47 18.03,14.53 16.061,16.5 18.03,18.47 "/>
<polygon style="fill:#333333;" points="20.97,19.53 17.939,16.5 20.97,13.47 22.03,14.53 20.061,16.5 22.03,18.47 "/>
<path style="fill:#333333;" d="M14.235,21.25H3.5c-0.965,0-1.75-0.785-1.75-1.75v-15c0-0.965,0.785-1.75,1.75-1.75h17
	c0.965,0,1.75,0.785,1.75,1.75V11h-1.5V4.5c0-0.138-0.112-0.25-0.25-0.25h-17c-0.138,0-0.25,0.112-0.25,0.25v15
	c0,0.138,0.112,0.25,0.25,0.25h10.735V21.25z"/>
<polygon style="fill:#333333;" points="9,11.671 5.924,7.98 7.076,7.02 9,9.329 10.924,7.02 12.076,7.98 "/>
<rect x="6" y="12.75" style="fill:#333333;" width="6" height="1.5"/>
<rect x="6" y="9.75" style="fill:#333333;" width="6" height="1.5"/>
<rect x="8.25" y="10.5" style="fill:#333333;" width="1.5" height="6"/>
</svg>






