<?xml version="1.0" encoding="iso-8859-1"?>
<svg version="1.1" id="&#x56FE;&#x5C42;_1" xmlns="http://www.w3.org/2000/svg" xmlns:xlink="http://www.w3.org/1999/xlink" x="0px"
	 y="0px" viewBox="0 0 24 24" style="enable-background:new 0 0 24 24;" xml:space="preserve">
<rect x="15.5" y="16.25" style="fill:#333333;" width="6" height="1.5"/>
<path style="fill:#333333;" d="M14.235,21.25H4c-1.241,0-2.25-1.01-2.25-2.25V5c0-1.241,1.009-2.25,2.25-2.25h16
	c1.24,0,2.25,1.009,2.25,2.25v8h-1.5V5c0-0.414-0.337-0.75-0.75-0.75H4C3.586,4.25,3.25,4.586,3.25,5v14
	c0,0.413,0.336,0.75,0.75,0.75h10.235V21.25z"/>
<polygon style="fill:#333333;" points="17.47,20.03 14.439,17 17.47,13.97 18.53,15.03 16.561,17 18.53,18.97 "/>
<polygon style="fill:#333333;" points="10,11.671 6.924,7.98 8.076,7.02 10,9.329 11.924,7.02 13.076,7.98 "/>
<rect x="7" y="12.75" style="fill:#333333;" width="6" height="1.5"/>
<rect x="7" y="9.75" style="fill:#333333;" width="6" height="1.5"/>
<rect x="9.25" y="10.5" style="fill:#333333;" width="1.5" height="6"/>
</svg>






