<?xml version="1.0" encoding="iso-8859-1"?>
<svg version="1.1" id="&#x56FE;&#x5C42;_1" xmlns="http://www.w3.org/2000/svg" xmlns:xlink="http://www.w3.org/1999/xlink" x="0px"
	 y="0px" viewBox="0 0 24 24" style="enable-background:new 0 0 24 24;" xml:space="preserve">
<path style="fill:#333333;" d="M9.5,12.75c-1.792,0-3.25-1.458-3.25-3.25v-5c0-1.792,1.458-3.25,3.25-3.25s3.25,1.458,3.25,3.25v5
	C12.75,11.292,11.292,12.75,9.5,12.75z M9.5,2.75c-0.965,0-1.75,0.785-1.75,1.75v5c0,0.965,0.785,1.75,1.75,1.75
	s1.75-0.785,1.75-1.75v-5C11.25,3.535,10.465,2.75,9.5,2.75z"/>
<path style="fill:#333333;" d="M18.5,12.75c-1.792,0-3.25-1.458-3.25-3.25v-5c0-1.792,1.458-3.25,3.25-3.25s3.25,1.458,3.25,3.25v5
	C21.75,11.292,20.292,12.75,18.5,12.75z M18.5,2.75c-0.965,0-1.75,0.785-1.75,1.75v5c0,0.965,0.785,1.75,1.75,1.75
	s1.75-0.785,1.75-1.75v-5C20.25,3.535,19.465,2.75,18.5,2.75z"/>
<polygon style="fill:#333333;" points="18.53,22.53 17.47,21.47 19.939,19 17.47,16.53 18.53,15.47 22.061,19 "/>
<rect x="3" y="11.25" style="fill:#333333;" width="0.5" height="1.5"/>
<rect x="9.5" y="18.25" style="fill:#333333;" width="11.5" height="1.5"/>
</svg>






