<?xml version="1.0" encoding="iso-8859-1"?>
<svg version="1.1" id="&#x56FE;&#x5C42;_1" xmlns="http://www.w3.org/2000/svg" xmlns:xlink="http://www.w3.org/1999/xlink" x="0px"
	 y="0px" viewBox="0 0 24 24" style="enable-background:new 0 0 24 24;" xml:space="preserve">
<path style="fill:#333333;" d="M11.5,22.25c-5.376,0-9.75-4.374-9.75-9.75s4.374-9.75,9.75-9.75v1.5c-4.549,0-8.25,3.701-8.25,8.25
	s3.701,8.25,8.25,8.25s8.25-3.701,8.25-8.25h1.5C21.25,17.876,16.876,22.25,11.5,22.25z"/>
<path style="fill:#333333;" d="M6,15v-1.5c4.132,0,5.597-0.203,8.908-4.46l1.184,0.921C12.493,14.587,10.572,15,6,15z"/>
<polygon style="fill:#333333;" points="16.25,13.5 14.75,13.5 14.75,10.25 11.5,10.25 11.5,8.75 16.25,8.75 "/>
<rect x="14.75" y="2.5" style="fill:#333333;" width="1.5" height="2.25"/>
<rect x="19.5" y="7.75" style="fill:#333333;" width="2.25" height="1.5"/>
<rect x="18.097" y="3.722" transform="matrix(0.7071 -0.7071 0.7071 0.7071 2.541 15.0788)" style="fill:#333333;" width="2.75" height="1.5"/>
</svg>






