<?xml version="1.0" encoding="iso-8859-1"?>
<svg version="1.1" id="&#x56FE;&#x5C42;_1" xmlns="http://www.w3.org/2000/svg" xmlns:xlink="http://www.w3.org/1999/xlink" x="0px"
	 y="0px" viewBox="0 0 24 24" style="enable-background:new 0 0 24 24;" xml:space="preserve">
<path style="fill:#333333;" d="M15.471,22.25h-5.74c-2.772,0-5.481-3.954-5.481-6.25c0-1.609,0.542-2.796,1.609-3.528l0.848,1.238
	C6.063,14.15,5.75,14.899,5.75,16c0,1.763,2.263,4.75,3.981,4.75h5.74c1.79,0,2.779-1.608,2.779-2.72v-6.525
	c0-0.414-0.337-0.75-0.75-0.75c-0.416,0-0.75,0.334-0.75,0.745h-1.5c0-1.238,1.007-2.245,2.245-2.245
	c1.245,0,2.255,1.009,2.255,2.25v6.525C19.75,20.068,18.03,22.25,15.471,22.25z"/>
<path style="fill:#333333;" d="M7.741,14.223h-1.5V4.003c0-1.24,1.009-2.249,2.249-2.249l0.195,0.009
	c1.153,0.099,2.062,1.071,2.062,2.249v7.785h-1.5V4.011c0-0.417-0.339-0.756-0.755-0.757H8.464C8.063,3.268,7.741,3.598,7.741,4.003
	V14.223z"/>
<path style="fill:#333333;" d="M13.762,11.504h-1.5V9.508c0-0.418-0.34-0.758-0.758-0.758c-0.417,0-0.757,0.34-0.757,0.758v1.996
	h-1.5V9.508c0-1.245,1.013-2.258,2.257-2.258c1.245,0,2.258,1.013,2.258,2.258V11.504z"/>
<path style="fill:#333333;" d="M16.75,11.501h-1.5v-1.5c0-0.414-0.337-0.75-0.75-0.75s-0.75,0.336-0.75,0.75v1.356h-1.5v-1.356
	c0-1.241,1.01-2.25,2.25-2.25s2.25,1.009,2.25,2.25V11.501z"/>
</svg>






