<?xml version="1.0" encoding="iso-8859-1"?>
<svg version="1.1" id="&#x56FE;&#x5C42;_1" xmlns="http://www.w3.org/2000/svg" xmlns:xlink="http://www.w3.org/1999/xlink" x="0px"
	 y="0px" viewBox="0 0 24 24" style="enable-background:new 0 0 24 24;" xml:space="preserve">
<path style="fill:#333333;" d="M12,22.75c-2.871,0-5.571-1.118-7.602-3.148C2.368,17.571,1.25,14.872,1.25,12
	c0-2.871,1.118-5.571,3.148-7.602C6.429,2.368,9.129,1.25,12,1.25c2.872,0,5.571,1.118,7.602,3.148
	c2.03,2.031,3.148,4.73,3.148,7.602c0,2.872-1.118,5.571-3.148,7.602S14.872,22.75,12,22.75z M12,2.75
	c-2.471,0-4.793,0.962-6.541,2.709C3.712,7.207,2.75,9.529,2.75,12s0.962,4.794,2.709,6.541C7.207,20.288,9.529,21.25,12,21.25
	s4.794-0.962,6.541-2.709S21.25,14.471,21.25,12s-0.962-4.793-2.709-6.541C16.794,3.712,14.471,2.75,12,2.75z"/>
<path style="fill-rule:evenodd;clip-rule:evenodd;fill:#333333;" d="M12,5.5c0.69,0,1.25,0.56,1.25,1.25S12.69,8,12,8
	s-1.25-0.56-1.25-1.25S11.31,5.5,12,5.5z"/>
<polygon style="fill:#333333;" points="13,17 11.5,17 11.5,10.75 11.25,10.75 11.25,9.25 13,9.25 "/>
<rect x="10.5" y="16.25" style="fill:#333333;" width="3.5" height="1.5"/>
</svg>






