<?xml version="1.0" encoding="iso-8859-1"?>
<svg version="1.1" id="&#x56FE;&#x5C42;_1" xmlns="http://www.w3.org/2000/svg" xmlns:xlink="http://www.w3.org/1999/xlink" x="0px"
	 y="0px" viewBox="0 0 24 24" style="enable-background:new 0 0 24 24;" xml:space="preserve">
<path style="fill:#333333;" d="M12,22.75c-2.871,0-5.571-1.118-7.602-3.148C2.368,17.571,1.25,14.872,1.25,12
	c0-2.871,1.118-5.571,3.148-7.602C6.429,2.368,9.129,1.25,12,1.25c2.872,0,5.571,1.118,7.602,3.148
	c2.03,2.031,3.148,4.73,3.148,7.602c0,2.872-1.118,5.571-3.148,7.602S14.872,22.75,12,22.75z M12,2.75
	c-2.471,0-4.793,0.962-6.541,2.709C3.712,7.207,2.75,9.529,2.75,12s0.962,4.794,2.709,6.541C7.207,20.288,9.529,21.25,12,21.25
	s4.794-0.962,6.541-2.709S21.25,14.471,21.25,12s-0.962-4.793-2.709-6.541C16.794,3.712,14.471,2.75,12,2.75z"/>
<path style="fill:#333333;" d="M16.42,7.581C15.238,6.4,13.669,5.75,12,5.75c-1.669,0-3.239,0.65-4.419,1.831L6.52,6.52
	C7.984,5.056,9.93,4.25,12,4.25c2.069,0,4.016,0.806,5.48,2.27L16.42,7.581z"/>
</svg>






