<?xml version="1.0" encoding="iso-8859-1"?>
<svg version="1.1" id="&#x56FE;&#x5C42;_1" xmlns="http://www.w3.org/2000/svg" xmlns:xlink="http://www.w3.org/1999/xlink" x="0px"
	 y="0px" viewBox="0 0 24 24" style="enable-background:new 0 0 24 24;" xml:space="preserve">
<path style="fill:#333333;" d="M12,22.25H3.5c-0.965,0-1.75-0.785-1.75-1.75V8.75h20.5v7.75h-1.5v-6.25H3.25V20.5
	c0,0.138,0.112,0.25,0.25,0.25H12V22.25z"/>
<path style="fill:#333333;" d="M22.25,10.25H1.75V5c0-0.965,0.785-1.75,1.75-1.75h17c0.965,0,1.75,0.785,1.75,1.75V10.25z
	 M3.25,8.75h17.5V5c0-0.138-0.112-0.25-0.25-0.25h-17C3.362,4.75,3.25,4.862,3.25,5V8.75z"/>
<rect x="7.25" y="2.5" style="fill:#333333;" width="1.5" height="4"/>
<rect x="15.25" y="2.5" style="fill:#333333;" width="1.5" height="4"/>
<path style="fill:#333333;" d="M15,20.25c-2.344,0-4.25-1.906-4.25-4.25s1.906-4.25,4.25-4.25s4.25,1.906,4.25,4.25
	S17.344,20.25,15,20.25z M15,13.25c-1.517,0-2.75,1.233-2.75,2.75s1.233,2.75,2.75,2.75s2.75-1.233,2.75-2.75S16.517,13.25,15,13.25
	z"/>
<rect x="18.75" y="17.797" transform="matrix(0.6402 -0.7682 0.7682 0.6402 -8.156 22.0867)" style="fill:#333333;" width="1.5" height="3.905"/>
</svg>






