<?xml version="1.0" encoding="iso-8859-1"?>
<svg version="1.1" id="&#x56FE;&#x5C42;_1" xmlns="http://www.w3.org/2000/svg" xmlns:xlink="http://www.w3.org/1999/xlink" x="0px"
	 y="0px" viewBox="0 0 24 24" style="enable-background:new 0 0 24 24;" xml:space="preserve">
<path style="fill:#333333;" d="M21,20.75H3c-0.965,0-1.75-0.785-1.75-1.75V5c0-0.965,0.785-1.75,1.75-1.75h18
	c0.965,0,1.75,0.785,1.75,1.75v14C22.75,19.965,21.965,20.75,21,20.75z M3,4.75C2.862,4.75,2.75,4.862,2.75,5v14
	c0,0.138,0.112,0.25,0.25,0.25h18c0.138,0,0.25-0.112,0.25-0.25V5c0-0.138-0.112-0.25-0.25-0.25H3z"/>
<path style="fill:#333333;" d="M22.75,8.75H1.25V5c0-0.965,0.785-1.75,1.75-1.75h18c0.965,0,1.75,0.785,1.75,1.75V8.75z M2.75,7.25
	h18.5V5c0-0.138-0.112-0.25-0.25-0.25H3C2.862,4.75,2.75,4.862,2.75,5V7.25z"/>
<rect x="9.205" y="13.5" transform="matrix(0.1784 -0.984 0.984 0.1784 -4.1617 23.516)" style="fill:#333333;" width="5.59" height="1.5"/>
<polygon style="fill:#333333;" points="16.03,17.53 14.97,16.47 17.389,14.051 15.02,12.076 15.98,10.924 19.611,13.949 "/>
<polygon style="fill:#333333;" points="7.97,17.53 4.389,13.949 8.02,10.924 8.98,12.076 6.611,14.051 9.03,16.47 "/>
</svg>






