<?xml version="1.0" encoding="iso-8859-1"?>
<svg version="1.1" id="&#x56FE;&#x5C42;_1" xmlns="http://www.w3.org/2000/svg" xmlns:xlink="http://www.w3.org/1999/xlink" x="0px"
	 y="0px" viewBox="0 0 24 24" style="enable-background:new 0 0 24 24;" xml:space="preserve">
<path style="fill:#333333;" d="M4.5,6.75C2.983,6.75,1.75,5.517,1.75,4S2.983,1.25,4.5,1.25S7.25,2.483,7.25,4S6.017,6.75,4.5,6.75z
	 M4.5,2.75C3.811,2.75,3.25,3.311,3.25,4S3.811,5.25,4.5,5.25S5.75,4.689,5.75,4S5.189,2.75,4.5,2.75z"/>
<path style="fill:#333333;" d="M7.25,22.25h-5.5v-14h5.5V22.25z M3.25,20.75h2.5v-11h-2.5V20.75z"/>
<path style="fill:#333333;" d="M22.25,22.25h-5V14.5c0-0.626-0.476-1.5-1.25-1.5c-0.923,0-1.25,0.808-1.25,1.5v7.75h-5v-8.5
	c0-1.974,2.088-5.5,6.25-5.5c4.161,0,6.25,3.526,6.25,5.5V22.25z M18.75,20.75h2v-7c0-1.102-1.461-4-4.75-4s-4.75,2.898-4.75,4v7h2
	V14.5c0-1.738,1.156-3,2.75-3c1.645,0,2.75,1.551,2.75,3V20.75z"/>
</svg>






