<?xml version="1.0" encoding="iso-8859-1"?>
<svg version="1.1" id="&#x56FE;&#x5C42;_1" xmlns="http://www.w3.org/2000/svg" xmlns:xlink="http://www.w3.org/1999/xlink" x="0px"
	 y="0px" viewBox="0 0 24 24" style="enable-background:new 0 0 24 24;" xml:space="preserve">
<path style="fill:#333333;" d="M17,21.75H7c-2.619,0-4.75-2.131-4.75-4.75V7c0-2.619,2.131-4.75,4.75-4.75h10
	c2.619,0,4.75,2.131,4.75,4.75v10C21.75,19.619,19.619,21.75,17,21.75z M7,3.75C5.208,3.75,3.75,5.208,3.75,7v10
	c0,1.792,1.458,3.25,3.25,3.25h10c1.792,0,3.25-1.458,3.25-3.25V7c0-1.792-1.458-3.25-3.25-3.25H7z"/>
<path style="fill:#333333;" d="M12,16.75c-2.619,0-4.75-2.131-4.75-4.75S9.381,7.25,12,7.25s4.75,2.131,4.75,4.75
	S14.619,16.75,12,16.75z M12,8.75c-1.792,0-3.25,1.458-3.25,3.25s1.458,3.25,3.25,3.25s3.25-1.458,3.25-3.25S13.792,8.75,12,8.75z"
	/>
<path style="fill:#333333;" d="M17.5,7.5c0.552,0,1-0.448,1-1s-0.448-1-1-1s-1,0.448-1,1S16.948,7.5,17.5,7.5z"/>
</svg>






