<?xml version="1.0" encoding="iso-8859-1"?>
<svg version="1.1" id="&#x56FE;&#x5C42;_1" xmlns="http://www.w3.org/2000/svg" xmlns:xlink="http://www.w3.org/1999/xlink" x="0px"
	 y="0px" viewBox="0 0 24 24" style="enable-background:new 0 0 24 24;" xml:space="preserve">
<polygon style="fill:#333333;" points="3.885,6.235 2.699,5.315 5.466,1.75 18.535,1.75 21.294,5.316 20.106,6.234 17.799,3.25 
	6.201,3.25 "/>
<path style="fill:#333333;" d="M19.5,22.25h-15c-1.241,0-2.25-1.01-2.25-2.25V6.5c0-0.965,0.785-1.75,1.75-1.75h16
	c0.965,0,1.75,0.785,1.75,1.75V20C21.75,21.24,20.74,22.25,19.5,22.25z M4,6.25c-0.138,0-0.25,0.112-0.25,0.25V20
	c0,0.413,0.336,0.75,0.75,0.75h15c0.413,0,0.75-0.337,0.75-0.75V6.5c0-0.138-0.112-0.25-0.25-0.25H4z"/>
<polygon style="fill:#333333;" points="12,18.561 7.47,14.03 8.53,12.97 12,16.439 15.47,12.97 16.53,14.03 "/>
<rect x="11.246" y="9.5" style="fill:#333333;" width="1.5" height="8"/>
</svg>






