<?xml version="1.0" encoding="iso-8859-1"?>
<svg version="1.1" id="&#x56FE;&#x5C42;_1" xmlns="http://www.w3.org/2000/svg" xmlns:xlink="http://www.w3.org/1999/xlink" x="0px"
	 y="0px" viewBox="0 0 24 24" style="enable-background:new 0 0 24 24;" xml:space="preserve">
<path style="fill:#333333;" d="M20.5,22.25H9c-0.965,0-1.75-0.785-1.75-1.75V9c0-0.965,0.785-1.75,1.75-1.75h11.5
	c0.965,0,1.75,0.785,1.75,1.75v11.5C22.25,21.465,21.465,22.25,20.5,22.25z M9,8.75C8.862,8.75,8.75,8.862,8.75,9v11.5
	c0,0.138,0.112,0.25,0.25,0.25h11.5c0.138,0,0.25-0.112,0.25-0.25V9c0-0.138-0.112-0.25-0.25-0.25H9z"/>
<path style="fill:#333333;" d="M15,16.75H3.5c-0.965,0-1.75-0.785-1.75-1.75V3.5c0-0.965,0.785-1.75,1.75-1.75H15
	c0.965,0,1.75,0.785,1.75,1.75V15C16.75,15.965,15.965,16.75,15,16.75z M3.5,3.25c-0.138,0-0.25,0.112-0.25,0.25V15
	c0,0.138,0.112,0.25,0.25,0.25H15c0.138,0,0.25-0.112,0.25-0.25V3.5c0-0.138-0.112-0.25-0.25-0.25H3.5z"/>
<rect x="6.861" y="10" transform="matrix(0.7071 -0.7071 0.7071 0.7071 -4.4528 10.75)" style="fill:#333333;" width="7.778" height="1.5"/>
<rect x="9.361" y="12.5" transform="matrix(0.7071 -0.7071 0.7071 0.7071 -5.4883 13.25)" style="fill:#333333;" width="7.778" height="1.5"/>
</svg>






