<?xml version="1.0" encoding="iso-8859-1"?>
<svg version="1.1" id="&#x56FE;&#x5C42;_1" xmlns="http://www.w3.org/2000/svg" xmlns:xlink="http://www.w3.org/1999/xlink" x="0px"
	 y="0px" viewBox="0 0 24 24" style="enable-background:new 0 0 24 24;" xml:space="preserve">
<path style="fill:#333333;" d="M12,22.75C6.072,22.75,1.25,17.928,1.25,12S6.072,1.25,12,1.25S22.75,6.072,22.75,12
	S17.928,22.75,12,22.75z M12,2.75c-5.101,0-9.25,4.149-9.25,9.25s4.149,9.25,9.25,9.25s9.25-4.149,9.25-9.25S17.101,2.75,12,2.75z"
	/>
<path style="fill:#333333;" d="M4.705,16.637c-0.577,0-1.239-0.149-1.983-0.447l0.558-1.393c0.702,0.281,1.627,0.535,2.058,0.142
	c0.178-0.162,0.234-0.803,0.276-1.271c0.084-0.952,0.188-2.136,1.206-2.69c0.944-0.514,1.902,0.105,2.747,0.652
	c0.903,0.585,1.534,0.949,2.045,0.66c0.426-0.237,0.452-0.623,0.312-1.736c-0.113-0.9-0.253-2.02,0.6-2.762
	c0.702-0.611,1.479-0.666,2.048-0.705c0.676-0.047,0.676-0.047,0.739-0.458c0.067-0.429,0.067-0.429-0.29-0.641
	c-0.403-0.24-1.078-0.641-1.277-1.75c-0.176-0.979-0.417-2.318,0.532-2.59l0.412,1.442c0.263-0.075,0.385-0.283,0.402-0.372
	c-0.005,0.025-0.046,0.28,0.13,1.254c0.078,0.435,0.242,0.532,0.567,0.727c0.46,0.273,1.229,0.731,1.006,2.162
	c-0.248,1.591-1.418,1.673-2.117,1.722c-0.453,0.032-0.845,0.06-1.168,0.341c-0.232,0.202-0.188,0.703-0.096,1.443
	c0.13,1.04,0.309,2.464-1.069,3.234c-1.334,0.747-2.64-0.095-3.591-0.711c-0.343-0.222-1.06-0.688-1.214-0.594
	c-0.312,0.17-0.374,0.879-0.429,1.505c-0.073,0.831-0.149,1.691-0.759,2.247C5.916,16.44,5.367,16.637,4.705,16.637z"/>
<path style="fill:#333333;" d="M13.975,22.199c-1.142-1.168-1.542-2.32-1.191-3.425c0.285-0.895,0.706-1.279,1.014-1.561
	c0.188-0.172,0.268-0.247,0.324-0.4c0.031-0.084,0.023-0.272,0.016-0.455c-0.028-0.693-0.076-1.854,1.597-2.731
	c1.525-0.798,3.406-0.048,5.757,2.288l-1.059,1.064c-1.238-1.232-2.937-2.579-4.001-2.024c-0.832,0.437-0.819,0.758-0.795,1.342
	c0.013,0.315,0.027,0.672-0.108,1.038c-0.186,0.5-0.481,0.771-0.719,0.987c-0.242,0.221-0.433,0.396-0.596,0.906
	c-0.17,0.535,0.11,1.182,0.834,1.922L13.975,22.199z"/>
</svg>






