<?xml version="1.0" encoding="iso-8859-1"?>
<svg version="1.1" id="&#x56FE;&#x5C42;_1" xmlns="http://www.w3.org/2000/svg" xmlns:xlink="http://www.w3.org/1999/xlink" x="0px"
	 y="0px" viewBox="0 0 24 24" style="enable-background:new 0 0 24 24;" xml:space="preserve">
<path style="fill:#333333;" d="M20,21.75H4c-0.965,0-1.75-0.785-1.75-1.75V4c0-0.965,0.785-1.75,1.75-1.75h16
	c0.965,0,1.75,0.785,1.75,1.75v16C21.75,20.965,20.965,21.75,20,21.75z M4,3.75C3.862,3.75,3.75,3.862,3.75,4v16
	c0,0.138,0.112,0.25,0.25,0.25h16c0.138,0,0.25-0.112,0.25-0.25V4c0-0.138-0.112-0.25-0.25-0.25H4z"/>
<path style="fill:#333333;" d="M21.75,10.75h-8.5v-8.5H20c0.965,0,1.75,0.785,1.75,1.75V10.75z M14.75,9.25h5.5V4
	c0-0.138-0.112-0.25-0.25-0.25h-5.25V9.25z"/>
<polygon style="fill:#333333;" points="7.03,18.03 5.97,16.97 9.689,13.25 8,13.25 8,11.75 11.5,11.75 11.5,12.5 12.25,12.5 
	12.25,16 10.75,16 10.75,14.311 "/>
</svg>






