<?xml version="1.0" encoding="iso-8859-1"?>
<svg version="1.1" id="&#x56FE;&#x5C42;_1" xmlns="http://www.w3.org/2000/svg" xmlns:xlink="http://www.w3.org/1999/xlink" x="0px"
	 y="0px" viewBox="0 0 24 24" style="enable-background:new 0 0 24 24;" xml:space="preserve">
<path style="fill:#333333;" d="M12.002,23.061l-2.949-2.945H3.885v-5.168l-2.946-2.949l2.946-2.945V3.885h5.167l2.949-2.946
	l2.945,2.946h5.168v5.167l2.945,2.945l-2.945,2.949v5.168h-5.168L12.002,23.061z M5.385,18.615h4.289l2.328,2.324l2.324-2.324h4.289
	v-4.289l2.324-2.327l-2.324-2.325V5.385h-4.289l-2.324-2.325L9.674,5.385H5.385v4.289l-2.325,2.325l2.325,2.327V18.615z"/>
<path style="fill:#333333;" d="M12.085,16.723l-0.17-1.49c1.59-0.181,2.835-1.601,2.835-3.232c0-1.626-1.249-3.056-2.843-3.256
	l0.186-1.488C14.463,7.552,16.25,9.592,16.25,12C16.25,14.422,14.459,16.452,12.085,16.723z"/>
</svg>






