<?xml version="1.0" encoding="iso-8859-1"?>
<svg version="1.1" id="&#x56FE;&#x5C42;_1" xmlns="http://www.w3.org/2000/svg" xmlns:xlink="http://www.w3.org/1999/xlink" x="0px"
	 y="0px" viewBox="0 0 24 24" style="enable-background:new 0 0 24 24;" xml:space="preserve">
<path style="fill:#333333;" d="M21.75,9h-1.5V4.5c0-0.414-0.337-0.75-0.75-0.75h-15c-0.414,0-0.75,0.336-0.75,0.75V9h-1.5V4.5
	c0-1.241,1.009-2.25,2.25-2.25h15c1.24,0,2.25,1.009,2.25,2.25V9z"/>
<rect x="15.25" y="12" style="fill:#333333;" width="1.5" height="3.5"/>
<rect x="11.25" y="7.5" style="fill:#333333;" width="1.5" height="8"/>
<rect x="7.25" y="9.5" style="fill:#333333;" width="1.5" height="6"/>
<path style="fill:#333333;" d="M19.5,21.75h-15c-1.241,0-2.25-1.01-2.25-2.25V15h1.5v4.5c0,0.413,0.336,0.75,0.75,0.75h15
	c0.413,0,0.75-0.337,0.75-0.75V15h1.5v4.5C21.75,20.74,20.74,21.75,19.5,21.75z"/>
</svg>






