<?xml version="1.0" encoding="iso-8859-1"?>
<svg version="1.1" id="&#x56FE;&#x5C42;_1" xmlns="http://www.w3.org/2000/svg" xmlns:xlink="http://www.w3.org/1999/xlink" x="0px"
	 y="0px" viewBox="0 0 24 24" style="enable-background:new 0 0 24 24;" xml:space="preserve">
<path style="fill:#333333;" d="M20.75,22.75H3.25V1.25h12.595l4.905,5.723V22.75z M4.75,21.25h14.5V7.527L15.155,2.75H4.75V21.25z"
	/>
<path style="fill:#333333;" d="M12,18.25c-3.17,0-5.75-2.579-5.75-5.75c0-3.17,2.58-5.75,5.75-5.75c1.475,0,2.876,0.557,3.947,1.569
	c1.146,1.083,1.803,2.606,1.803,4.181C17.75,15.671,15.171,18.25,12,18.25z M12,8.25c-2.343,0-4.25,1.907-4.25,4.25
	c0,2.344,1.907,4.25,4.25,4.25c2.344,0,4.25-1.906,4.25-4.25c0-1.181-0.474-2.279-1.332-3.091C14.126,8.662,13.09,8.25,12,8.25z"/>
<rect x="11.25" y="7.55" transform="matrix(0.7071 -0.7071 0.7071 0.7071 -5.3241 12.1464)" style="fill:#333333;" width="1.5" height="9.899"/>
<path style="fill:#333333;" d="M12,18.25v-1.5c2.344,0,4.25-1.906,4.25-4.25h1.5C17.75,15.671,15.171,18.25,12,18.25z M7.75,12.5
	h-1.5c0-3.17,2.58-5.75,5.75-5.75v1.5C9.657,8.25,7.75,10.157,7.75,12.5z"/>
</svg>






