<?xml version="1.0" encoding="iso-8859-1"?>
<svg version="1.1" id="&#x56FE;&#x5C42;_1" xmlns="http://www.w3.org/2000/svg" xmlns:xlink="http://www.w3.org/1999/xlink" x="0px"
	 y="0px" viewBox="0 0 24 24" style="enable-background:new 0 0 24 24;" xml:space="preserve">
<polygon style="fill:#333333;" points="7,22.75 1.25,22.75 1.25,17 2.75,17 2.75,21.25 7,21.25 "/>
<polygon style="fill:#333333;" points="22.75,22.75 17,22.75 17,21.25 21.25,21.25 21.25,17 22.75,17 "/>
<polygon style="fill:#333333;" points="22.75,7 21.25,7 21.25,2.75 17,2.75 17,1.25 22.75,1.25 "/>
<polygon style="fill:#333333;" points="2.75,7 1.25,7 1.25,1.25 7,1.25 7,2.75 2.75,2.75 "/>
<path style="fill:#333333;" d="M12,19.25c-2.779,0-4.46-1.649-4.53-1.72l1.058-1.063C8.541,16.479,9.864,17.75,12,17.75
	c2.137,0,3.459-1.271,3.473-1.283l1.058,1.063C16.46,17.601,14.778,19.25,12,19.25z"/>
<path style="fill:#333333;" d="M10,14.25H9.5v-1.5H10c0.584,0,1.25-0.666,1.25-1.25V7h1.5v4.5C12.75,12.913,11.414,14.25,10,14.25z"
	/>
<rect x="16.25" y="7" style="fill:#333333;" width="1.5" height="1"/>
<rect x="6.25" y="7" style="fill:#333333;" width="1.5" height="1"/>
</svg>






