<?xml version="1.0" encoding="iso-8859-1"?>
<svg version="1.1" id="&#x56FE;&#x5C42;_1" xmlns="http://www.w3.org/2000/svg" xmlns:xlink="http://www.w3.org/1999/xlink" x="0px"
	 y="0px" viewBox="0 0 24 24" style="enable-background:new 0 0 24 24;" xml:space="preserve">
<path style="fill:#333333;" d="M20.5,20.75h-17c-0.965,0-1.75-0.785-1.75-1.75V6c0-0.965,0.785-1.75,1.75-1.75h17
	c0.965,0,1.75,0.785,1.75,1.75v13C22.25,19.965,21.465,20.75,20.5,20.75z M3.5,5.75C3.362,5.75,3.25,5.862,3.25,6v13
	c0,0.138,0.112,0.25,0.25,0.25h17c0.138,0,0.25-0.112,0.25-0.25V6c0-0.138-0.112-0.25-0.25-0.25H3.5z"/>
<rect x="4.75" y="11.5" style="fill:#333333;" width="1.5" height="2"/>
</svg>






