<?xml version="1.0" encoding="iso-8859-1"?>
<svg version="1.1" id="&#x56FE;&#x5C42;_1" xmlns="http://www.w3.org/2000/svg" xmlns:xlink="http://www.w3.org/1999/xlink" x="0px"
	 y="0px" viewBox="0 0 24 24" style="enable-background:new 0 0 24 24;" xml:space="preserve">
<path style="fill:#333333;" d="M18.5,22.25h-13c-0.965,0-1.75-0.785-1.75-1.75v-17c0-0.965,0.785-1.75,1.75-1.75h13
	c0.965,0,1.75,0.785,1.75,1.75v17C20.25,21.465,19.465,22.25,18.5,22.25z M5.5,3.25c-0.138,0-0.25,0.112-0.25,0.25v17
	c0,0.138,0.112,0.25,0.25,0.25h13c0.138,0,0.25-0.112,0.25-0.25v-17c0-0.138-0.112-0.25-0.25-0.25H5.5z"/>
<rect x="11" y="17.25" style="fill:#333333;" width="2" height="1.5"/>
</svg>






