<?xml version="1.0" encoding="iso-8859-1"?>
<svg version="1.1" id="&#x56FE;&#x5C42;_1" xmlns="http://www.w3.org/2000/svg" xmlns:xlink="http://www.w3.org/1999/xlink" x="0px"
	 y="0px" viewBox="0 0 24 24" style="enable-background:new 0 0 24 24;" xml:space="preserve">
<path style="fill:#333333;" d="M22.75,20.75H1.25v-6.935l0.498-0.178c0.79-0.282,1.32-1.041,1.32-1.888
	c0-0.847-0.531-1.605-1.32-1.887L1.25,9.686V2.75h21.5v6.936l-0.498,0.178c-0.79,0.281-1.32,1.04-1.32,1.887
	c0,0.848,0.53,1.605,1.32,1.888l0.498,0.178V20.75z M2.75,19.25h18.5v-4.423c-1.106-0.605-1.818-1.782-1.818-3.077
	s0.712-2.472,1.818-3.077V4.25H2.75v4.424c1.106,0.605,1.818,1.782,1.818,3.076c0,1.294-0.712,2.472-1.818,3.077V19.25z"/>
<rect x="5.75" y="9" style="fill:#333333;" width="1.5" height="5.5"/>
<rect x="8.25" y="9" style="fill:#333333;" width="1.5" height="5.5"/>
<path style="fill:#333333;" d="M10.5,12.75H8.25v-4.5h2.25c1.241,0,2.25,1.009,2.25,2.25S11.741,12.75,10.5,12.75z M9.75,11.25h0.75
	c0.414,0,0.75-0.336,0.75-0.75s-0.336-0.75-0.75-0.75H9.75V11.25z"/>
<path style="fill:#333333;" d="M16,15.25c-1.262,0-2.25-1.428-2.25-3.25S14.738,8.75,16,8.75s2.25,1.428,2.25,3.25
	S17.262,15.25,16,15.25z M16,10.25c-0.265,0-0.75,0.665-0.75,1.75c0,1.086,0.485,1.75,0.75,1.75s0.75-0.664,0.75-1.75
	C16.75,10.915,16.265,10.25,16,10.25z"/>
</svg>






