<?xml version="1.0" encoding="iso-8859-1"?>
<svg version="1.1" id="&#x56FE;&#x5C42;_1" xmlns="http://www.w3.org/2000/svg" xmlns:xlink="http://www.w3.org/1999/xlink" x="0px"
	 y="0px" viewBox="0 0 24 24" style="enable-background:new 0 0 24 24;" xml:space="preserve">
<path style="fill:#333333;" d="M22.85,20.75H1.25V20c0-4.825,3.925-8.75,8.75-8.75h11.662L22.85,20.75z M2.789,19.25H21.15
	l-0.812-6.5H10C6.255,12.75,3.165,15.604,2.789,19.25z"/>
<polygon style="fill:#333333;" points="20.256,12.093 19.338,4.75 8,4.75 8,3.25 20.662,3.25 21.744,11.907 "/>
<path style="fill:#333333;" d="M12,17.25c-2.895,0-5.25-2.355-5.25-5.25c0-2.895,2.355-5.25,5.25-5.25c2.895,0,5.25,2.355,5.25,5.25
	C17.25,14.895,14.895,17.25,12,17.25z M12,8.25c-2.068,0-3.75,1.682-3.75,3.75c0,2.067,1.682,3.75,3.75,3.75
	c2.067,0,3.75-1.683,3.75-3.75C15.75,9.932,14.067,8.25,12,8.25z"/>
<rect x="11.25" y="10.586" transform="matrix(0.7071 -0.7071 0.7071 0.7071 -4.9706 12)" style="fill:#333333;" width="1.5" height="2.828"/>
<rect x="10.586" y="11.25" transform="matrix(0.7071 -0.7071 0.7071 0.7071 -4.9706 12)" style="fill:#333333;" width="2.828" height="1.5"/>
</svg>






