<?xml version="1.0" encoding="iso-8859-1"?>
<svg version="1.1" id="&#x56FE;&#x5C42;_1" xmlns="http://www.w3.org/2000/svg" xmlns:xlink="http://www.w3.org/1999/xlink" x="0px"
	 y="0px" viewBox="0 0 24 24" style="enable-background:new 0 0 24 24;" xml:space="preserve">
<path style="fill:#333333;" d="M18.75,18.75H4.25V5.25h14.5V18.75z M5.75,17.25h11.5V6.75H5.75V17.25z"/>
<path style="fill:#333333;" d="M11.5,14.75c-1.517,0-2.75-1.233-2.75-2.75s1.233-2.75,2.75-2.75s2.75,1.233,2.75,2.75
	S13.017,14.75,11.5,14.75z M11.5,10.75c-0.689,0-1.25,0.561-1.25,1.25s0.561,1.25,1.25,1.25s1.25-0.561,1.25-1.25
	S12.189,10.75,11.5,10.75z"/>
<path style="fill:#333333;" d="M14.769,6.06l-0.76-3.31H9.003l-0.76,3.31L6.75,6c0-0.094,0.011-0.188,0.032-0.278l0.803-3.498
	C7.717,1.65,8.225,1.25,8.82,1.25h5.371c0.596,0,1.104,0.4,1.235,0.973l0.805,3.5L14.769,6.06z"/>
<path style="fill:#333333;" d="M14.191,22.75H8.82c-0.595,0-1.103-0.4-1.235-0.973l-0.804-3.501C6.761,18.19,6.75,18.096,6.75,18
	h1.5c0-0.02-0.002-0.039-0.007-0.06l0.76,3.31h5.006l0.76-3.31l1.463,0.336l-0.804,3.5C15.295,22.35,14.787,22.75,14.191,22.75z"/>
<rect x="18.75" y="8" style="fill:#333333;" width="1.5" height="2"/>
</svg>






