<?xml version="1.0" encoding="iso-8859-1"?>
<svg version="1.1" id="&#x56FE;&#x5C42;_1" xmlns="http://www.w3.org/2000/svg" xmlns:xlink="http://www.w3.org/1999/xlink" x="0px"
	 y="0px" viewBox="0 0 24 24" style="enable-background:new 0 0 24 24;" xml:space="preserve">
<path style="fill:#333333;" d="M16.5,18.75h-9c-0.965,0-1.75-0.785-1.75-1.75V7c0-0.965,0.785-1.75,1.75-1.75h9
	c0.965,0,1.75,0.785,1.75,1.75v10C18.25,17.965,17.465,18.75,16.5,18.75z M7.5,6.75C7.362,6.75,7.25,6.862,7.25,7v10
	c0,0.138,0.112,0.25,0.25,0.25h9c0.138,0,0.25-0.112,0.25-0.25V7c0-0.138-0.112-0.25-0.25-0.25H7.5z"/>
<rect x="11.25" y="6" style="fill:#333333;" width="1.5" height="3"/>
<rect x="10.5" y="5.25" style="fill:#333333;" width="3" height="1.5"/>
<rect x="11.25" y="15" style="fill:#333333;" width="1.5" height="3"/>
<rect x="10.5" y="17.25" style="fill:#333333;" width="3" height="1.5"/>
<rect x="14.5" y="11.234" transform="matrix(0.9999 -0.0104 0.0104 0.9999 -0.124 0.1673)" style="fill:#333333;" width="3" height="1.5"/>
<rect x="16.75" y="10.5" style="fill:#333333;" width="1.5" height="3"/>
<rect x="6.5" y="11.267" transform="matrix(0.9999 -0.0111 0.0111 0.9999 -0.1325 0.0893)" style="fill:#333333;" width="3" height="1.5"/>
<rect x="5.75" y="10.5" style="fill:#333333;" width="1.5" height="3"/>
<polygon style="fill:#333333;" points="16.25,6 14.75,6 14.75,2.75 9.25,2.75 9.25,6 7.75,6 7.75,1.25 16.25,1.25 "/>
<path style="fill:#333333;" d="M15,22.75H9c-0.689,0-1.25-0.561-1.25-1.25V18h1.5v3.25h5.5V18h1.5v3.5
	C16.25,22.189,15.689,22.75,15,22.75z"/>
<rect x="2.75" y="10" style="fill:#333333;" width="1.5" height="4"/>
<rect x="19.75" y="10" style="fill:#333333;" width="1.5" height="4"/>
</svg>






