<?xml version="1.0" encoding="iso-8859-1"?>
<svg version="1.1" id="&#x56FE;&#x5C42;_1" xmlns="http://www.w3.org/2000/svg" xmlns:xlink="http://www.w3.org/1999/xlink" x="0px"
	 y="0px" viewBox="0 0 24 24" style="enable-background:new 0 0 24 24;" xml:space="preserve">
<path style="fill:#333333;" d="M13,21.75c-2.15,0-4.217-0.876-5.82-2.468l1.057-1.064c1.32,1.311,3.011,2.032,4.763,2.032
	c3.998,0,7.25-3.701,7.25-8.25S16.998,3.75,13,3.75c-1.752,0-3.443,0.722-4.763,2.032L7.18,4.718C8.783,3.126,10.85,2.25,13,2.25
	c4.825,0,8.75,4.374,8.75,9.75S17.825,21.75,13,21.75z"/>
<path style="fill:#333333;" d="M7,19.75H4c-0.965,0-1.75-0.785-1.75-1.75V6c0-0.965,0.785-1.75,1.75-1.75h3
	c0.965,0,1.75,0.785,1.75,1.75v12C8.75,18.965,7.965,19.75,7,19.75z M4,5.75C3.862,5.75,3.75,5.862,3.75,6v12
	c0,0.138,0.112,0.25,0.25,0.25h3c0.138,0,0.25-0.112,0.25-0.25V6c0-0.138-0.112-0.25-0.25-0.25H4z"/>
<path style="fill:#333333;" d="M6.5,10L6.5,10c0,0.552-0.448,1-1,1l0,0c-0.552,0-1-0.448-1-1l0,0c0-0.552,0.448-1,1-1l0,0
	C6.052,9,6.5,9.448,6.5,10z"/>
<path style="fill:#333333;" d="M6.5,13.5L6.5,13.5c0,0.552-0.448,1-1,1l0,0c-0.552,0-1-0.448-1-1l0,0c0-0.552,0.448-1,1-1l0,0
	C6.052,12.5,6.5,12.948,6.5,13.5z"/>
</svg>






