<?xml version="1.0" encoding="iso-8859-1"?>
<svg version="1.1" id="&#x56FE;&#x5C42;_1" xmlns="http://www.w3.org/2000/svg" xmlns:xlink="http://www.w3.org/1999/xlink" x="0px"
	 y="0px" viewBox="0 0 24 24" style="enable-background:new 0 0 24 24;" xml:space="preserve">
<path style="fill:#333333;" d="M12,22.75C6.072,22.75,1.25,17.928,1.25,12S6.072,1.25,12,1.25S22.75,6.072,22.75,12
	S17.928,22.75,12,22.75z M12,2.75c-5.101,0-9.25,4.149-9.25,9.25s4.149,9.25,9.25,9.25s9.25-4.149,9.25-9.25S17.101,2.75,12,2.75z"
	/>
<path style="fill:#333333;" d="M12,17.25c-1.163-0.145-2.75-1.655-2.75-5.25c0-3.604,1.611-4.981,2.563-5.226l0.146-0.038
	l0.149,0.021C13.089,6.9,14.75,8.164,14.75,12C14.75,15.824,13.063,17.25,12,17.25z M12.026,8.297
	C11.575,8.564,10.75,9.554,10.75,12c0,2.633,0.961,3.566,1.279,3.73c0.299-0.149,1.221-1.055,1.221-3.73
	C13.25,9.46,12.415,8.521,12.026,8.297z"/>
<path style="fill:#333333;" d="M12,17.25c-2.849,0-4.005-0.648-5.381-2.01c-1.153-1.143-1.66-3.286-1.342-4.439l0.137-0.497
	l0.513-0.051c2.343-0.229,3.89,0.009,4.601,0.714l-1.056,1.066c-0.192-0.191-0.99-0.45-2.79-0.337
	c0.032,0.753,0.383,1.874,0.992,2.478C8.756,15.245,9.536,15.75,12,15.75V17.25z"/>
<path style="fill:#333333;" d="M12,17.25v-1.5c0.873,0,2.783-0.277,3.766-1.327c0.831-0.887,1.03-2.01,1.037-2.73
	c-1.743-0.108-2.182,0.242-2.255,0.32l-1.096-1.025c0.674-0.718,2.028-0.958,4.128-0.733l0.555,0.059l0.103,0.548
	c0.181,0.965,0.094,3.017-1.376,4.586C15.528,16.87,13.179,17.25,12,17.25z"/>
</svg>






