<?xml version="1.0" encoding="iso-8859-1"?>
<svg version="1.1" id="&#x56FE;&#x5C42;_1" xmlns="http://www.w3.org/2000/svg" xmlns:xlink="http://www.w3.org/1999/xlink" x="0px"
	 y="0px" viewBox="0 0 24 24" style="enable-background:new 0 0 24 24;" xml:space="preserve">
<path style="fill:#333333;" d="M18.441,22H5.556C3.596,22,2,20.404,2,18.441V5.556C2,3.596,3.596,2,5.556,2h12.885
	c1.96,0,3.556,1.596,3.556,3.556v12.885C22,20.404,20.404,22,18.441,22z M5.556,2.151c-1.877,0-3.405,1.528-3.405,3.405v12.885
	c0,1.879,1.528,3.407,3.407,3.407h12.885c1.879,0,3.407-1.528,3.407-3.407V5.556c0-1.879-1.528-3.407-3.407-3.407H5.556V2.151z"/>
<path style="fill-rule:evenodd;clip-rule:evenodd;fill:#333333;" d="M2,18.444l20-1.046V5.556L2,6.603V18.444z M12.481,9.277
	L12.481,9.277L12.481,9.277c0,0,0.467,0.339,0.518,0.373c0.333,0.229,0.774,0.532,1.458,0.847c-0.63,0.193-1.355,0.384-2.191,0.568
	v1.157c1.596-0.343,2.846-0.732,3.833-1.126c0.975,0.282,2.236,0.539,3.89,0.723v-1.157c-0.857-0.099-1.597-0.219-2.237-0.351
	c0.925-0.525,1.456-1.008,1.807-1.341V8.793l0.002,0V7.708l-0.002,0v0l-0.262,0.014l-4.487,0.235l-1.162-0.481L12.481,9.277z
	 M14.255,9.071l3.737-0.196c-0.41,0.299-0.989,0.652-1.857,1.02C15.27,9.618,14.684,9.327,14.255,9.071z M8.356,8.024L9.585,7.96
	c-0.031,2.311-0.074,3.694-0.41,4.779l2.548-0.134v1.085l-3.054,0.159c-0.488,0.784-1.246,1.523-2.434,2.57l-1.937,0.102
	c0.072-0.061,0.141-0.121,0.208-0.179l0,0l0.037-0.032c1.194-1.035,2.015-1.747,2.571-2.381l-3.114,0.162V13.01l3.859-0.202
	C8.29,11.823,8.324,10.449,8.356,8.024z M7.451,8.733v1.21L4.715,9.694V8.486L7.451,8.733z M4.715,10.532v1.21l2.736,0.249v-1.21
	L4.715,10.532z M15.491,13.493l-3.225,0.169v-1.085l3.225-0.169v-0.617l1.259-0.064v0.615l3.24-0.17v1.085l-3.24,0.17v2.445
	l-1.259,0.066V13.493z M10.53,14.295l-1.485,0.077l1.193,1.841l1.485-0.077L10.53,14.295z M17.323,13.939l1.483-0.077L20,15.703
	l-1.483,0.077L17.323,13.939z M14.949,14.062l-1.485,0.079l-1.193,1.965l1.485-0.077L14.949,14.062z"/>
</svg>






