<?xml version="1.0" encoding="iso-8859-1"?>
<svg version="1.1" id="&#x56FE;&#x5C42;_1" xmlns="http://www.w3.org/2000/svg" xmlns:xlink="http://www.w3.org/1999/xlink" x="0px"
	 y="0px" viewBox="0 0 24 24" style="enable-background:new 0 0 24 24;" xml:space="preserve">
<g>
	<defs>
		<rect id="SVGID_1_" width="24" height="24"/>
	</defs>
	<clipPath id="SVGID_00000102518781230658657020000015211694953857651331_">
		<use xlink:href="#SVGID_1_"  style="overflow:visible;"/>
	</clipPath>
	<g style="clip-path:url(#SVGID_00000102518781230658657020000015211694953857651331_);">
		<path style="fill:#333333;" d="M12,20.75c-4.549,0-8.25-3.701-8.25-8.25S7.451,4.25,12,4.25s8.25,3.701,8.25,8.25
			S16.549,20.75,12,20.75z M12,5.75c-3.722,0-6.75,3.028-6.75,6.75c0,3.722,3.028,6.75,6.75,6.75c3.722,0,6.75-3.028,6.75-6.75
			C18.75,8.778,15.722,5.75,12,5.75z"/>
		<path style="fill:#333333;" d="M6.383,13.189c-0.758,0-1.529-0.146-2.239-0.529l0.713-1.32c1.604,0.867,4.003-0.081,4.851-0.646
			c0.525-0.35,0.502-0.447,0.425-0.768c-0.054-0.223-0.126-0.527-0.042-0.87c0.106-0.431,0.369-0.714,0.561-0.92
			c0.202-0.218,0.268-0.302,0.28-0.468c0.048-0.659-0.792-1.23-1.297-1.513l0.731-1.31c1.807,1.009,2.119,2.151,2.061,2.932
			C12.375,8.482,12,8.887,11.75,9.155c-0.094,0.101-0.19,0.206-0.204,0.26l0,0c0.006,0,0.028,0.092,0.044,0.16
			c0.179,0.746,0.175,1.548-1.052,2.366C9.908,12.363,8.185,13.189,6.383,13.189z"/>
		<path style="fill:#333333;" d="M3.857,19.198c-0.258,0-0.5-0.022-0.725-0.067c-0.798-0.16-1.416-0.598-1.788-1.267
			c-1.267-2.281,1.333-5.195,3.006-6.249l0.799,1.27c-1.448,0.912-3.133,3.099-2.493,4.251c0.158,0.284,0.402,0.45,0.771,0.524
			c1.392,0.275,4.642-0.824,9.608-4.749c3.751-2.963,5.893-6.943,6.817-8.996l-1.159,0.309l-0.387-1.449l2.614-0.697l0.905,0.961
			c-0.09,0.268-2.25,6.615-7.861,11.049C9.799,17.38,6.183,19.198,3.857,19.198z"/>
		<path style="fill:#333333;" d="M13.746,20.076l-1.492-0.15c0.012-0.114,0.302-2.818,2.258-4.495
			C16.45,13.77,18.896,13.75,19,13.75v1.5c-0.018,0-2.005,0.027-3.512,1.319C13.996,17.848,13.748,20.055,13.746,20.076z"/>
	</g>
</g>
</svg>






