<?xml version="1.0" encoding="iso-8859-1"?>
<svg version="1.1" id="&#x56FE;&#x5C42;_1" xmlns="http://www.w3.org/2000/svg" xmlns:xlink="http://www.w3.org/1999/xlink" x="0px"
	 y="0px" viewBox="0 0 24 24" style="enable-background:new 0 0 24 24;" xml:space="preserve">
<path style="fill:#333333;" d="M22.75,22.25H1.25v-6.5h21.5V22.25z M2.75,20.75h18.5v-3.5H2.75V20.75z"/>
<path style="fill:#333333;" d="M19.75,17.25h-7.5v-5h7.5V17.25z M13.75,15.75h4.5v-2h-4.5V15.75z"/>
<path style="fill:#333333;" d="M9,7.75c-1.792,0-3.25-1.458-3.25-3.25S7.208,1.25,9,1.25s3.25,1.458,3.25,3.25S10.792,7.75,9,7.75z
	 M9,2.75c-0.965,0-1.75,0.785-1.75,1.75S8.035,6.25,9,6.25s1.75-0.785,1.75-1.75S9.965,2.75,9,2.75z"/>
<rect x="1.188" y="11" transform="matrix(0.3463 -0.9381 0.9381 0.3463 -6.9374 13.5437)" style="fill:#333333;" width="10.124" height="1.5"/>
</svg>






