<?xml version="1.0" encoding="iso-8859-1"?>
<svg version="1.1" id="&#x56FE;&#x5C42;_1" xmlns="http://www.w3.org/2000/svg" xmlns:xlink="http://www.w3.org/1999/xlink" x="0px"
	 y="0px" viewBox="0 0 24 24" style="enable-background:new 0 0 24 24;" xml:space="preserve">
<polygon style="fill:#333333;" points="6.057,22.409 4.8,21.591 9.25,14.762 9.25,10.473 3.513,5.57 4.487,4.43 10.75,9.781 
	10.75,15.207 "/>
<polygon style="fill:#333333;" points="17.943,22.409 13.25,15.207 13.25,9.781 19.513,4.43 20.487,5.57 14.75,10.473 14.75,14.762 
	19.199,21.591 "/>
<path style="fill:#333333;" d="M12,6.75c-1.517,0-2.75-1.233-2.75-2.75S10.483,1.25,12,1.25S14.75,2.483,14.75,4
	S13.517,6.75,12,6.75z M12,2.75c-0.689,0-1.25,0.561-1.25,1.25S11.311,5.25,12,5.25S13.25,4.689,13.25,4S12.689,2.75,12,2.75z"/>
</svg>






