<?xml version="1.0" encoding="iso-8859-1"?>
<svg version="1.1" id="&#x56FE;&#x5C42;_1" xmlns="http://www.w3.org/2000/svg" xmlns:xlink="http://www.w3.org/1999/xlink" x="0px"
	 y="0px" viewBox="0 0 24 24" style="enable-background:new 0 0 24 24;" xml:space="preserve">
<path style="fill:#333333;" d="M15.198,21.75H6.222l-0.211-0.182C5.857,21.437,2.25,18.284,2.25,14s3.607-7.437,3.761-7.568
	L6.222,6.25h8.961l0.163,0.084c0.18,0.093,4.404,2.344,4.404,7.565c0,5.203-4.2,7.651-4.379,7.753L15.198,21.75z M6.795,20.25h7.992
	c0.704-0.46,3.463-2.509,3.463-6.351c0-3.836-2.76-5.735-3.448-6.149H6.795C6.094,8.43,3.75,10.934,3.75,14S6.094,19.57,6.795,20.25
	z"/>
<path style="fill:#333333;" d="M7.508,15.805c-1.435,0-3.007-0.286-4.823-1.124l0.629-1.361c3.332,1.537,5.592,0.984,8.211,0.345
	c2.233-0.546,4.542-1.112,7.644-0.395l-0.338,1.461c-2.757-0.637-4.793-0.139-6.949,0.391C10.496,15.46,9.084,15.805,7.508,15.805z"
	/>
<path style="fill:#333333;" d="M22.75,15h-1.5c0-4.486-1.164-6.601-1.613-7.25H15.5v-1.5h4.811l0.22,0.22
	C20.621,6.56,22.75,8.761,22.75,15z"/>
<path style="fill:#333333;" d="M16.122,7.75H6.037L3.829,3.335l0.757-1.081l12.299,1.426L16.122,7.75z M6.963,6.25h7.915
	l0.236-1.264L5.791,3.905L6.963,6.25z"/>
</svg>






