<?xml version="1.0" encoding="iso-8859-1"?>
<svg version="1.1" id="&#x56FE;&#x5C42;_1" xmlns="http://www.w3.org/2000/svg" xmlns:xlink="http://www.w3.org/1999/xlink" x="0px"
	 y="0px" viewBox="0 0 24 24" style="enable-background:new 0 0 24 24;" xml:space="preserve">
<path style="fill:#333333;" d="M21.687,22.53H2.585v-4.897h19.102V22.53z M4.055,21.062h16.163v-1.96H4.055V21.062z"/>
<path style="fill:#333333;" d="M6.011,17.937l-1.465-0.117L5.18,9.863C5.195,9.667,5.13,9.47,5.002,9.323L1.786,5.625L2.34,4.408
	h16.354l1.031,13.413l-1.465,0.113L17.333,5.878H3.953l2.157,2.48c0.386,0.443,0.581,1.034,0.534,1.621L6.011,17.937z"/>
<rect x="10.667" y="8.326" style="fill:#333333;" width="2.449" height="1.47"/>
<rect x="10.667" y="11.265" style="fill:#333333;" width="2.449" height="1.469"/>
<rect x="10.667" y="14.204" style="fill:#333333;" width="2.449" height="1.469"/>
<polygon style="fill:#333333;" points="22.666,13.714 18.993,13.714 18.993,12.245 21.197,12.245 21.197,5.878 18.014,5.878 
	18.014,4.408 22.666,4.408 "/>
<polygon style="fill:#333333;" points="14.83,4.653 13.361,4.653 13.361,2.939 10.422,2.939 10.422,4.653 8.952,4.653 8.952,1.469 
	14.83,1.469 "/>
</svg>






