<?xml version="1.0" encoding="iso-8859-1"?>
<svg version="1.1" id="&#x56FE;&#x5C42;_1" xmlns="http://www.w3.org/2000/svg" xmlns:xlink="http://www.w3.org/1999/xlink" x="0px"
	 y="0px" viewBox="0 0 24 24" style="enable-background:new 0 0 24 24;" xml:space="preserve">
<g>
	<defs>
		<rect id="SVGID_1_" width="24" height="24"/>
	</defs>
	<clipPath id="SVGID_00000016039452514137457650000002914758372031445951_">
		<use xlink:href="#SVGID_1_"  style="overflow:visible;"/>
	</clipPath>
	<g style="clip-path:url(#SVGID_00000016039452514137457650000002914758372031445951_);">
		<path style="fill:#333333;" d="M7.5,21.25c-2.619,0-4.75-2.131-4.75-4.75s2.131-4.75,4.75-4.75s4.75,2.131,4.75,4.75
			S10.119,21.25,7.5,21.25z M7.5,13.25c-1.792,0-3.25,1.458-3.25,3.25s1.458,3.25,3.25,3.25s3.25-1.458,3.25-3.25
			S9.292,13.25,7.5,13.25z"/>
		
			<rect x="15.5" y="7.195" transform="matrix(0.6508 -0.7593 0.7593 0.6508 -1.5383 15.6554)" style="fill:#333333;" width="1.5" height="4.61"/>
		<polygon style="fill:#333333;" points="10.561,13.498 9.439,12.502 17.929,2.951 21.988,6.431 21.012,7.569 18.071,5.049 		"/>
	</g>
</g>
</svg>






