<?xml version="1.0" encoding="iso-8859-1"?>
<svg version="1.1" id="&#x56FE;&#x5C42;_1" xmlns="http://www.w3.org/2000/svg" xmlns:xlink="http://www.w3.org/1999/xlink" x="0px"
	 y="0px" viewBox="0 0 24 24" style="enable-background:new 0 0 24 24;" xml:space="preserve">
<path style="fill:#333333;" d="M7.945,21.372c-1.513,0-2.993-0.598-4.081-1.694c-2.163-2.229-2.132-5.814,0.064-8
	c2.193-2.183,5.793-2.213,8.024-0.068l0.007,0.004c1.46,1.433,2.041,3.549,1.514,5.522c-0.527,1.972-2.085,3.522-4.066,4.046
	C8.925,21.31,8.433,21.372,7.945,21.372z M7.977,11.518c-1.086,0-2.171,0.409-2.991,1.224c-1.617,1.608-1.64,4.249-0.051,5.885
	c1.057,1.066,2.624,1.491,4.09,1.104c1.461-0.386,2.611-1.528,3-2.981c0.387-1.451-0.04-3.008-1.113-4.062
	C10.097,11.907,9.037,11.518,7.977,11.518z"/>
<rect x="9.74" y="7" transform="matrix(0.7071 -0.7071 0.7071 0.7071 -0.867 13.4069)" style="fill:#333333;" width="12.021" height="1.5"/>
<path style="fill:#333333;" d="M17.867,12.208L14.089,8.45l4.23-4.208L22.097,8L17.867,12.208z M16.216,8.45l1.651,1.642L19.97,8
	l-1.65-1.642L16.216,8.45z"/>
</svg>






