<?xml version="1.0" encoding="iso-8859-1"?>
<svg version="1.1" id="&#x56FE;&#x5C42;_1" xmlns="http://www.w3.org/2000/svg" xmlns:xlink="http://www.w3.org/1999/xlink" x="0px"
	 y="0px" viewBox="0 0 24 24" style="enable-background:new 0 0 24 24;" xml:space="preserve">
<path style="fill:#333333;" d="M21,21.75H3c-0.965,0-1.75-0.785-1.75-1.75V10c0-0.965,0.785-1.75,1.75-1.75h18
	c0.965,0,1.75,0.785,1.75,1.75v10C22.75,20.965,21.965,21.75,21,21.75z M3,9.75c-0.138,0-0.25,0.112-0.25,0.25v10
	c0,0.138,0.112,0.25,0.25,0.25h18c0.138,0,0.25-0.112,0.25-0.25V10c0-0.138-0.112-0.25-0.25-0.25H3z"/>
<circle style="fill:#333333;" cx="7" cy="12" r="1"/>
<circle style="fill:#333333;" cx="8" cy="15" r="1"/>
<circle style="fill:#333333;" cx="5" cy="15" r="1"/>
<circle style="fill:#333333;" cx="10" cy="12" r="1"/>
<circle style="fill:#333333;" cx="11" cy="15" r="1"/>
<circle style="fill:#333333;" cx="13" cy="12" r="1"/>
<circle style="fill:#333333;" cx="14" cy="15" r="1"/>
<circle style="fill:#333333;" cx="16" cy="12" r="1"/>
<circle style="fill:#333333;" cx="17" cy="15" r="1"/>
<circle style="fill:#333333;" cx="19" cy="12" r="1"/>
<rect x="8.5" y="17.25" style="fill:#333333;" width="7" height="1.5"/>
<path style="fill:#333333;" d="M17.25,9h-1.5V6.562c0-0.689,0.561-1.25,1.25-1.25h2.25V3h1.5v2.562c0,0.689-0.561,1.25-1.25,1.25
	h-2.25V9z"/>
</svg>






