<?xml version="1.0" encoding="iso-8859-1"?>
<svg version="1.1" id="&#x56FE;&#x5C42;_1" xmlns="http://www.w3.org/2000/svg" xmlns:xlink="http://www.w3.org/1999/xlink" x="0px"
	 y="0px" viewBox="0 0 24 24" style="enable-background:new 0 0 24 24;" xml:space="preserve">
<path style="fill:#333333;" d="M21.75,21.75H2.25V2.25h19.5V21.75z M3.75,20.25h16.5V3.75H3.75V20.25z"/>
<path style="fill:#333333;" d="M12,18.75c-3.722,0-6.75-3.028-6.75-6.75c0-3.722,3.028-6.75,6.75-6.75c3.722,0,6.75,3.028,6.75,6.75
	C18.75,15.722,15.722,18.75,12,18.75z M12,6.75c-2.895,0-5.25,2.355-5.25,5.25c0,2.895,2.355,5.25,5.25,5.25
	c2.895,0,5.25-2.355,5.25-5.25C17.25,9.105,14.895,6.75,12,6.75z"/>
<rect x="11.25" y="-2.142" transform="matrix(0.7071 -0.7071 0.7071 0.7071 -4.9706 12)" style="fill:#333333;" width="1.5" height="28.284"/>
<rect x="-2.142" y="11.25" transform="matrix(0.7071 -0.7071 0.7071 0.7071 -4.9706 12)" style="fill:#333333;" width="28.284" height="1.5"/>
</svg>






