<?xml version="1.0" encoding="iso-8859-1"?>
<svg version="1.1" id="&#x56FE;&#x5C42;_1" xmlns="http://www.w3.org/2000/svg" xmlns:xlink="http://www.w3.org/1999/xlink" x="0px"
	 y="0px" viewBox="0 0 24 24" style="enable-background:new 0 0 24 24;" xml:space="preserve">
<rect x="6.25" y="2" style="fill:#333333;" width="1.5" height="20"/>
<path style="fill:#333333;" d="M7,10.75c-1.297,0-3.75-0.679-3.75-3.25v-5h1.5v5c0,1.73,2.158,1.75,2.25,1.75
	C7.228,9.248,9.25,9.184,9.25,7.5v-5h1.5v5C10.75,10.071,8.297,10.75,7,10.75z"/>
<path style="fill:none;" d="M15,6c0-4,4-4,4-4v8.5h-4V6z"/>
<path style="fill:#333333;" d="M19.75,22h-1.5V11.25h-4V6c0-3.757,3.107-4.75,4.75-4.75h0.75V22z M15.75,9.75h2.5V2.839
	c-0.97,0.207-2.5,0.894-2.5,3.161V9.75z"/>
</svg>






