<?xml version="1.0" encoding="iso-8859-1"?>
<svg version="1.1" id="&#x56FE;&#x5C42;_1" xmlns="http://www.w3.org/2000/svg" xmlns:xlink="http://www.w3.org/1999/xlink" x="0px"
	 y="0px" viewBox="0 0 24 24" style="enable-background:new 0 0 24 24;" xml:space="preserve">
<path style="fill:#333333;" d="M12,21.25c-4.549,0-8.25-3.701-8.25-8.25S7.451,4.75,12,4.75s8.25,3.701,8.25,8.25
	S16.549,21.25,12,21.25z M12,6.25c-3.722,0-6.75,3.028-6.75,6.75c0,3.722,3.028,6.75,6.75,6.75c3.722,0,6.75-3.028,6.75-6.75
	C18.75,9.278,15.722,6.25,12,6.25z"/>
<path style="fill:#333333;" d="M12,18.25c-1.241,0-2.25-1.107-2.25-2.469c0-1.054,1.215-3.43,1.587-4.132h1.326
	c0.372,0.703,1.587,3.079,1.587,4.132C14.25,17.143,13.24,18.25,12,18.25z M12,13.694c-0.421,0.916-0.75,1.771-0.75,2.087
	c0,0.525,0.343,0.969,0.75,0.969c0.406,0,0.75-0.443,0.75-0.969C12.75,15.466,12.421,14.61,12,13.694z"/>
<circle style="fill:#333333;" cx="8.52" cy="11.747" r="1"/>
<circle style="fill:#333333;" cx="15.52" cy="11.747" r="1"/>
<path style="fill:#333333;" d="M2.494,12.68l-0.335-0.924C0.773,7.94,1.144,4.952,2.195,4.077C2.827,3.425,3.833,3.136,5.042,3.29
	c1.631,0.208,3.512,1.261,4.108,2.3L7.85,6.337C7.56,5.831,6.216,4.952,4.853,4.778C4.344,4.713,3.649,4.73,3.211,5.177
	c-0.32,0.285-0.868,2.037,0.047,5.125l1.309-0.925l0.866,1.225L2.494,12.68z"/>
<path style="fill:#333333;" d="M21.507,12.68l-2.939-2.077l0.865-1.225l1.31,0.925c0.915-3.088,0.372-4.836,0.103-5.074
	c-0.492-0.499-1.19-0.517-1.697-0.451c-1.363,0.174-2.707,1.053-2.997,1.559L14.85,5.59c0.597-1.039,2.478-2.092,4.108-2.3
	c1.209-0.153,2.215,0.135,2.903,0.838c0.995,0.823,1.365,3.812-0.02,7.627L21.507,12.68z"/>
</svg>






