<?xml version="1.0" encoding="iso-8859-1"?>
<svg version="1.1" id="&#x56FE;&#x5C42;_1" xmlns="http://www.w3.org/2000/svg" xmlns:xlink="http://www.w3.org/1999/xlink" x="0px"
	 y="0px" viewBox="0 0 24 24" style="enable-background:new 0 0 24 24;" xml:space="preserve">
<rect x="8.5" y="7.75" style="fill:#333333;" width="9" height="1.5"/>
<rect x="7.5" y="12.25" style="fill:#333333;" width="9" height="1.5"/>
<rect x="6" y="16.75" style="fill:#333333;" width="9" height="1.5"/>
<path style="fill:#333333;" d="M5.217,21.722l-1.434-0.443L9.435,2.984c0.228-0.738,0.9-1.234,1.672-1.234h7.081
	c0.551,0,1.058,0.251,1.392,0.689s0.441,0.994,0.296,1.524l-4.87,17.735l-1.447-0.396l4.87-17.736
	c0.029-0.104-0.014-0.181-0.042-0.218c-0.027-0.037-0.091-0.098-0.198-0.098h-7.081c-0.11,0-0.207,0.071-0.239,0.176L5.217,21.722z"
	/>
<rect x="8.75" y="8.917" transform="matrix(0.9864 -0.1644 0.1644 0.9864 -2.3368 1.766)" style="fill:#333333;" width="1.5" height="12.166"/>
<rect x="17.75" y="8.917" transform="matrix(0.9864 -0.1644 0.1644 0.9864 -2.2143 3.2456)" style="fill:#333333;" width="1.501" height="12.166"/>
</svg>






