<?xml version="1.0" encoding="iso-8859-1"?>
<svg version="1.1" id="&#x56FE;&#x5C42;_1" xmlns="http://www.w3.org/2000/svg" xmlns:xlink="http://www.w3.org/1999/xlink" x="0px"
	 y="0px" viewBox="0 0 24 24" style="enable-background:new 0 0 24 24;" xml:space="preserve">
<path style="fill:#333333;" d="M11.25,11.25h-5v-6.5c0-1.378,1.122-2.5,2.5-2.5s2.5,1.122,2.5,2.5V11.25z M7.75,9.75h2v-5
	c0-0.551-0.449-1-1-1s-1,0.449-1,1V9.75z"/>
<path style="fill:#333333;" d="M17.75,11.25h-5v-6.5c0-1.378,1.121-2.5,2.5-2.5s2.5,1.122,2.5,2.5V11.25z M14.25,9.75h2v-5
	c0-0.551-0.448-1-1-1s-1,0.449-1,1V9.75z"/>
<path style="fill:#333333;" d="M15.75,21.75h-7.5v-5.5h7.5V21.75z M9.75,20.25h4.5v-2.5h-4.5V20.25z"/>
<path style="fill:#333333;" d="M15,17.75H9c-2.619,0-4.75-2.131-4.75-4.75v-2c0-0.689,0.561-1.25,1.25-1.25h13
	c0.689,0,1.25,0.561,1.25,1.25v2C19.75,15.619,17.619,17.75,15,17.75z M5.75,11.25V13c0,1.792,1.458,3.25,3.25,3.25h6
	c1.792,0,3.25-1.458,3.25-3.25v-1.75H5.75z"/>
</svg>






