<?xml version="1.0" encoding="iso-8859-1"?>
<svg version="1.1" id="&#x56FE;&#x5C42;_1" xmlns="http://www.w3.org/2000/svg" xmlns:xlink="http://www.w3.org/1999/xlink" x="0px"
	 y="0px" viewBox="0 0 24 24" style="enable-background:new 0 0 24 24;" xml:space="preserve">
<path style="fill:#333333;" d="M18.25,22.75c-0.13,0-13-0.037-13-3.25c0-2.25,3.087-2.25,4.25-2.25
	c0.174-0.023,0.487-0.031,0.825-0.038c1.667-0.033,2.175-0.2,2.175-0.712c0-0.772-3.41-1.75-5.5-1.75v-1.5c1.088,0,7,0.6,7,3.25
	c0,2.139-2.371,2.187-3.645,2.212c-0.288,0.006-0.556,0.01-0.774,0.033C7.227,18.75,6.75,19.158,6.75,19.5
	c0.524,0.921,7.44,1.75,11.5,1.75V22.75z"/>
<path style="fill:#333333;" d="M2.757,18.021c-0.005-0.189-0.121-4.677,0.786-8.463C4.534,5.423,7.039,1.25,10.402,1.25
	c3.393,0,5.848,3.733,5.848,6.25h-1.5c0-1.668-1.793-4.75-4.348-4.75c-2.42,0-4.549,3.601-5.4,7.158
	c-0.86,3.59-0.747,8.026-0.746,8.07L2.757,18.021z"/>
<path style="fill:#333333;" d="M19.251,16.529c-0.001-0.024-0.103-2.473-0.481-4.11C18.646,11.89,17.938,9.25,16,9.25
	c-2.225,0-2.25,2.723-2.25,2.75h-1.5c0-1.708,0.999-4.25,3.75-4.25c2.38,0,3.746,2.237,4.23,4.331
	c0.412,1.776,0.515,4.283,0.519,4.39L19.251,16.529z"/>
</svg>






