<?xml version="1.0" encoding="iso-8859-1"?>
<svg version="1.1" id="&#x56FE;&#x5C42;_1" xmlns="http://www.w3.org/2000/svg" xmlns:xlink="http://www.w3.org/1999/xlink" x="0px"
	 y="0px" viewBox="0 0 24 24" style="enable-background:new 0 0 24 24;" xml:space="preserve">
<rect x="2.5" y="20.75" style="fill:#333333;" width="19" height="1.5"/>
<path style="fill:#333333;" d="M20,18.25c-2.055,0-16.575-4.519-18.224-5.034L1.25,13.052V6.745H2c1.087,0,2.845,2.269,3.432,3.071
	l4.318,0.785V1.287l3.373,1.686l2.882,9.378l4.156,0.917C22.5,13.852,22.75,15.373,22.75,16C22.75,17.367,21.671,18.25,20,18.25z
	 M2.75,11.948C9.146,13.938,18.654,16.75,20,16.75c0.829,0,1.25-0.252,1.25-0.75c0-0.756-0.778-1.109-1.432-1.272l-4.991-1.1
	l-2.95-9.601L11.25,3.713v8.685L4.546,11.18L4.37,10.907c-0.377-0.584-1.052-1.383-1.62-1.958V11.948z"/>
</svg>






