<?xml version="1.0" encoding="iso-8859-1"?>
<svg version="1.1" id="&#x56FE;&#x5C42;_1" xmlns="http://www.w3.org/2000/svg" xmlns:xlink="http://www.w3.org/1999/xlink" x="0px"
	 y="0px" viewBox="0 0 24 24" style="enable-background:new 0 0 24 24;" xml:space="preserve">
<path style="fill:#333333;" d="M20.5,16.75h-17c-0.965,0-1.75-0.785-1.75-1.75V5c0-0.965,0.785-1.75,1.75-1.75h17
	c0.965,0,1.75,0.785,1.75,1.75v10C22.25,15.965,21.465,16.75,20.5,16.75z M3.5,4.75C3.362,4.75,3.25,4.862,3.25,5v10
	c0,0.138,0.112,0.25,0.25,0.25h17c0.138,0,0.25-0.112,0.25-0.25V5c0-0.138-0.112-0.25-0.25-0.25H3.5z"/>
<rect x="2" y="19.25" style="fill:#333333;" width="20" height="1.5"/>
<rect x="11" y="6.25" style="fill:#333333;" width="2" height="1.5"/>
</svg>






