<?xml version="1.0" encoding="iso-8859-1"?>
<svg version="1.1" id="&#x56FE;&#x5C42;_1" xmlns="http://www.w3.org/2000/svg" xmlns:xlink="http://www.w3.org/1999/xlink" x="0px"
	 y="0px" viewBox="0 0 24 24" style="enable-background:new 0 0 24 24;" xml:space="preserve">
<g>
	<defs>
		<rect id="SVGID_1_" width="24" height="24"/>
	</defs>
	<clipPath id="SVGID_00000152951097141969890380000003689384253952723877_">
		<use xlink:href="#SVGID_1_"  style="overflow:visible;"/>
	</clipPath>
	<g style="clip-path:url(#SVGID_00000152951097141969890380000003689384253952723877_);">
		<path style="fill:#333333;" d="M15.543,23.717L9.99,18.164l0.019-4.197L5.67,13.844L0.328,8.501l20.296-6.059l0.934,0.932
			L15.543,23.717z M11.493,17.545l3.327,3.328l4.907-16.598L3.167,9.219l3.143,3.143l5.207,0.146L11.493,17.545z"/>
		<path style="fill-rule:evenodd;clip-rule:evenodd;fill:#333333;" d="M13.768,7.445c-0.781,0.781-0.781,2.047,0,2.828
			c0.781,0.781,2.047,0.781,2.828,0c0.781-0.781,0.781-2.047,0-2.828C15.815,6.664,14.549,6.664,13.768,7.445z"/>
		
			<rect x="14.01" y="5.281" transform="matrix(0.7071 -0.7071 0.7071 0.7071 1.0103 14.5017)" style="fill:#333333;" width="8.001" height="1.5"/>
	</g>
</g>
</svg>






