<?xml version="1.0" encoding="iso-8859-1"?>
<svg version="1.1" id="&#x56FE;&#x5C42;_1" xmlns="http://www.w3.org/2000/svg" xmlns:xlink="http://www.w3.org/1999/xlink" x="0px"
	 y="0px" viewBox="0 0 24 24" style="enable-background:new 0 0 24 24;" xml:space="preserve">
<path style="fill-rule:evenodd;clip-rule:evenodd;fill:#333333;" d="M20.536,2.997L1.655,8.259l4.537,4.647L10.4,12.98l4.841-4.72
	c-0.128-0.262-0.192-0.482-0.192-0.659c0-0.397,0.156-0.711,0.398-0.934c0.415-0.382,0.914-0.439,1.497-0.171L20.536,2.997z"/>
<path style="fill-rule:evenodd;clip-rule:evenodd;fill:#333333;" d="M21.051,3.364l-5.262,18.88l-4.647-4.537L11.068,13.5
	l4.687-4.759c0.254,0.182,0.531,0.264,0.832,0.248c0.451-0.025,0.743-0.298,0.879-0.458c0.137-0.16,0.297-0.428,0.284-0.824
	c-0.009-0.265-0.096-0.509-0.261-0.732L21.051,3.364z"/>
</svg>






