<?xml version="1.0" encoding="iso-8859-1"?>
<svg version="1.1" id="&#x56FE;&#x5C42;_1" xmlns="http://www.w3.org/2000/svg" xmlns:xlink="http://www.w3.org/1999/xlink" x="0px"
	 y="0px" viewBox="0 0 24 24" style="enable-background:new 0 0 24 24;" xml:space="preserve">
<rect x="3" y="3.25" style="fill:#333333;" width="2" height="1.5"/>
<rect x="7" y="7.25" style="fill:#333333;" width="2" height="1.5"/>
<rect x="7.25" y="3" style="fill:#333333;" width="1.5" height="2"/>
<rect x="3.25" y="7" style="fill:#333333;" width="1.5" height="2"/>
<rect x="11" y="3.25" style="fill:#333333;" width="2" height="1.5"/>
<rect x="15" y="7.25" style="fill:#333333;" width="2" height="1.5"/>
<rect x="15.25" y="3" style="fill:#333333;" width="1.5" height="2"/>
<rect x="11.25" y="7" style="fill:#333333;" width="1.5" height="2"/>
<rect x="19" y="3.25" style="fill:#333333;" width="2" height="1.5"/>
<rect x="19.25" y="7" style="fill:#333333;" width="1.5" height="2"/>
<rect x="3" y="11.25" style="fill:#333333;" width="2" height="1.5"/>
<rect x="7" y="15.25" style="fill:#333333;" width="2" height="1.5"/>
<rect x="7.25" y="11" style="fill:#333333;" width="1.5" height="2"/>
<rect x="3.25" y="15" style="fill:#333333;" width="1.5" height="2"/>
<rect x="11" y="11.25" style="fill:#333333;" width="2" height="1.5"/>
<rect x="15" y="15.25" style="fill:#333333;" width="2" height="1.5"/>
<rect x="15.25" y="11" style="fill:#333333;" width="1.5" height="2"/>
<rect x="11.25" y="15" style="fill:#333333;" width="1.5" height="2"/>
<rect x="19" y="11.25" style="fill:#333333;" width="2" height="1.5"/>
<rect x="19.25" y="15" style="fill:#333333;" width="1.5" height="2"/>
<rect x="3" y="19.25" style="fill:#333333;" width="2" height="1.5"/>
<rect x="7.25" y="19" style="fill:#333333;" width="1.5" height="2"/>
<rect x="11" y="19.25" style="fill:#333333;" width="2" height="1.5"/>
<rect x="15.25" y="19" style="fill:#333333;" width="1.5" height="2"/>
<rect x="19" y="19.25" style="fill:#333333;" width="2" height="1.5"/>
</svg>






