<?xml version="1.0" encoding="iso-8859-1"?>
<svg version="1.1" id="&#x56FE;&#x5C42;_1" xmlns="http://www.w3.org/2000/svg" xmlns:xlink="http://www.w3.org/1999/xlink" x="0px"
	 y="0px" viewBox="0 0 24 24" style="enable-background:new 0 0 24 24;" xml:space="preserve">
<path style="fill:#333333;" d="M12,10.296L1.75,6.664l0.005-1.416L12,1.707l10.245,3.542l0.005,1.416L12,10.296z M4.271,5.966
	L12,8.704l7.729-2.738L12,3.293L4.271,5.966z"/>
<polygon style="fill:#333333;" points="12,14.295 1.752,10.708 2.248,9.292 12,12.705 21.752,9.292 22.248,10.708 "/>
<polygon style="fill:#333333;" points="12,18.295 1.752,14.708 2.248,13.292 12,16.705 21.752,13.292 22.248,14.708 "/>
<polygon style="fill:#333333;" points="12,22.295 1.752,18.708 2.248,17.292 12,20.705 21.752,17.292 22.248,18.708 "/>
</svg>






