<?xml version="1.0" encoding="iso-8859-1"?>
<svg version="1.1" id="&#x56FE;&#x5C42;_1" xmlns="http://www.w3.org/2000/svg" xmlns:xlink="http://www.w3.org/1999/xlink" x="0px"
	 y="0px" viewBox="0 0 24 24" style="enable-background:new 0 0 24 24;" xml:space="preserve">
<path style="fill:#333333;" d="M12.034,22.809l-0.286-0.102C11.679,22.682,4.75,20.123,4.75,12c0-8.123,6.929-10.682,6.999-10.707
	l0.286-0.102l0.276,0.125C12.594,1.446,19.25,4.556,19.25,12s-6.656,10.554-6.939,10.683L12.034,22.809z M11.965,2.824
	C10.756,3.358,6.25,5.77,6.25,12c0,6.234,4.513,8.646,5.718,9.178c1.206-0.64,5.782-3.443,5.782-9.178
	C17.75,6.319,13.151,3.465,11.965,2.824z"/>
<rect x="11.482" y="16" transform="matrix(0.7071 -0.7071 0.7071 0.7071 -7.9632 14.2751)" style="fill:#333333;" width="3.536" height="1.5"/>
<rect x="10" y="11.482" transform="matrix(0.7071 -0.7071 0.7071 0.7071 -6.2206 11.4822)" style="fill:#333333;" width="1.5" height="3.536"/>
<rect x="11.482" y="9.5" transform="matrix(0.7071 -0.7071 0.7071 0.7071 -3.367 12.3713)" style="fill:#333333;" width="3.536" height="1.5"/>
<rect x="11.25" y="7" style="fill:#333333;" width="1.5" height="15"/>
</svg>






