<?xml version="1.0" encoding="iso-8859-1"?>
<svg version="1.1" id="&#x56FE;&#x5C42;_1" xmlns="http://www.w3.org/2000/svg" xmlns:xlink="http://www.w3.org/1999/xlink" x="0px"
	 y="0px" viewBox="0 0 24 24" style="enable-background:new 0 0 24 24;" xml:space="preserve">
<path style="fill:#333333;" d="M14.757,22.272c-1.923,0-6.829-0.358-9.821-3.778C1.292,14.33,1.25,2.501,1.25,2V1.281l0.719-0.03
	C2.471,1.231,14.285,0.776,18.45,3.9c4.296,3.222,3.338,11.823,3.295,12.188l-1.49-0.175c0.01-0.081,0.901-8.109-2.705-10.813
	C14.358,2.706,5.394,2.682,2.763,2.73c0.068,2.624,0.506,11.581,3.302,14.775c3.215,3.675,9.316,3.253,9.378,3.246l0.115,1.496
	C15.504,22.252,15.215,22.272,14.757,22.272z"/>
<path style="fill:#333333;" d="M21.548,22.599c-0.23-0.175-5.686-4.312-9.104-8.096C8.989,10.678,7.377,6.951,7.31,6.794
	l1.379-0.589c0.016,0.036,1.589,3.663,4.867,7.292c3.322,3.678,8.84,7.862,8.896,7.904L21.548,22.599z"/>
<rect x="9.99" y="10" transform="matrix(0.0768 -0.997 0.997 0.0768 1.5142 23.1353)" style="fill:#333333;" width="6.519" height="1.501"/>
<rect x="9.75" y="11.238" transform="matrix(0.0995 -0.995 0.995 0.0995 -4.2265 22.8299)" style="fill:#333333;" width="1.5" height="5.025"/>
</svg>






