<?xml version="1.0" encoding="iso-8859-1"?>
<svg version="1.1" id="&#x56FE;&#x5C42;_1" xmlns="http://www.w3.org/2000/svg" xmlns:xlink="http://www.w3.org/1999/xlink" x="0px"
	 y="0px" viewBox="0 0 24 24" style="enable-background:new 0 0 24 24;" xml:space="preserve">
<path style="fill:#333333;" d="M11.388,19.716c-0.342,0-0.648-0.023-0.914-0.058c-2.379-0.305-4.076-1.678-4.646-2.824
	c-1.023-2.062-1.174-3.908-0.447-5.488c0.769-1.671,2.568-2.974,4.935-3.573l0,0c4.231-1.07,8.75-4.438,10.162-5.811L21.75,2.5
	c0,7.76-2.001,12.132-3.184,13.492C15.881,19.08,13.166,19.716,11.388,19.716z M20.217,4.17c-2.334,1.854-6.154,4.202-9.533,5.057
	c-0.911,0.23-3.119,0.959-3.94,2.746c-0.528,1.147-0.384,2.559,0.428,4.193c0.4,0.806,1.76,1.782,3.493,2.004
	c1.653,0.211,4.165-0.166,6.769-3.162C18.331,13.976,19.966,10.452,20.217,4.17z"/>
<path style="fill:#333333;" d="M3.734,21.651l-1.469-0.303c0.238-1.158,1.358-3.697,3.888-5.014l0.692,1.33
	C4.742,18.761,3.887,20.914,3.734,21.651z"/>
</svg>






