<?xml version="1.0" encoding="iso-8859-1"?>
<svg version="1.1" id="&#x56FE;&#x5C42;_1" xmlns="http://www.w3.org/2000/svg" xmlns:xlink="http://www.w3.org/1999/xlink" x="0px"
	 y="0px" viewBox="0 0 24 24" style="enable-background:new 0 0 24 24;" xml:space="preserve">
<path style="fill:#333333;" d="M19.604,12.638c-1.086-0.674-3.468-3.19-4.052-5.952c-0.364-1.72-1.485-1.923-2.547-1.936l-0.012-1.5
	c2.219,0.019,3.582,1.034,4.025,3.125c0.495,2.339,2.615,4.516,3.376,4.987L19.604,12.638z"/>
<path style="fill:#333333;" d="M13,20.75v-1.5c1.112,0,2.192-0.234,2.553-1.936c0.584-2.762,2.966-5.278,4.052-5.952l0.791,1.275
	c-0.761,0.472-2.881,2.647-3.376,4.987C16.58,19.698,15.229,20.75,13,20.75z"/>
<circle style="fill:#333333;" cx="20" cy="12" r="2"/>
<rect x="13" y="11.25" style="fill:#333333;" width="7" height="1.5"/>
<rect x="3" y="11.25" style="fill:#333333;" width="6" height="1.5"/>
<rect x="3" y="3.25" style="fill:#333333;" width="6" height="1.5"/>
<rect x="3" y="19.25" style="fill:#333333;" width="6" height="1.5"/>
</svg>






