<?xml version="1.0" encoding="iso-8859-1"?>
<svg version="1.1" id="&#x56FE;&#x5C42;_1" xmlns="http://www.w3.org/2000/svg" xmlns:xlink="http://www.w3.org/1999/xlink" x="0px"
	 y="0px" viewBox="0 0 24 24" style="enable-background:new 0 0 24 24;" xml:space="preserve">
<path style="fill:#333333;" d="M10.074,12.617c-0.909-0.626-1.162-2.157-1.513-4.276C8.473,7.808,8.38,7.245,8.271,6.671
	C7.904,4.75,7.159,4.75,6.5,4.75v-1.5c0.792,0,2.645,0,3.244,3.14c0.112,0.586,0.207,1.161,0.297,1.706
	c0.223,1.346,0.5,3.021,0.885,3.286L10.074,12.617z"/>
<path style="fill:#333333;" d="M17.499,20.75c-0.792,0-2.646,0-3.242-3.141c-0.112-0.585-0.207-1.159-0.297-1.703
	c-0.224-1.348-0.501-3.023-0.886-3.289l0.852-1.235c0.908,0.626,1.162,2.159,1.514,4.279c0.088,0.533,0.182,1.095,0.29,1.668
	c0.366,1.921,1.111,1.921,1.77,1.921V20.75z"/>
<path style="fill:#333333;" d="M6.501,20.75v-1.5c0.658,0,1.403,0,1.77-1.921c0.109-0.574,0.203-1.137,0.291-1.67
	c0.351-2.119,0.604-3.65,1.513-4.277l0.852,1.235c-0.384,0.265-0.662,1.94-0.885,3.287c-0.09,0.545-0.185,1.119-0.297,1.706
	C9.146,20.75,7.292,20.75,6.501,20.75z"/>
<path style="fill:#333333;" d="M13.926,12.617l-0.852-1.235c0.385-0.265,0.662-1.941,0.886-3.288
	c0.09-0.544,0.185-1.118,0.297-1.704C14.854,3.25,16.708,3.25,17.5,3.25v1.5c-0.658,0-1.404,0-1.771,1.921
	c-0.108,0.574-0.202,1.135-0.29,1.668C15.088,10.459,14.835,11.991,13.926,12.617z"/>
<circle style="fill:#333333;" cx="10.5" cy="12" r="2"/>
<circle style="fill:#333333;" cx="13.5" cy="12" r="2"/>
<rect x="6.5" y="11.25" style="fill:#333333;" width="4" height="1.5"/>
<rect x="13.5" y="11.25" style="fill:#333333;" width="4" height="1.5"/>
<rect x="2.5" y="11.25" style="fill:#333333;" width="1" height="1.5"/>
<rect x="20.5" y="11.25" style="fill:#333333;" width="1" height="1.5"/>
<rect x="2.5" y="3.25" style="fill:#333333;" width="1" height="1.5"/>
<rect x="20.5" y="3.25" style="fill:#333333;" width="1" height="1.5"/>
<rect x="2.5" y="19.25" style="fill:#333333;" width="1" height="1.5"/>
<rect x="20.5" y="19.25" style="fill:#333333;" width="1" height="1.5"/>
</svg>






