<?xml version="1.0" encoding="iso-8859-1"?>
<svg version="1.1" id="&#x56FE;&#x5C42;_1" xmlns="http://www.w3.org/2000/svg" xmlns:xlink="http://www.w3.org/1999/xlink" x="0px"
	 y="0px" viewBox="0 0 24 24" style="enable-background:new 0 0 24 24;" xml:space="preserve">
<path style="fill:#333333;" d="M12,22.75c-0.708,0-1.114-0.684-1.472-1.287c-0.101-0.17-0.264-0.444-0.355-0.548
	C7.451,19.887,5.25,16.357,5.25,13c0-3.308,2.137-6.783,4.803-7.868L12,2.842l1.947,2.29C16.613,6.217,18.75,9.692,18.75,13
	c0,3.357-2.201,6.887-4.922,7.915c-0.092,0.104-0.255,0.378-0.355,0.548C13.114,22.066,12.708,22.75,12,22.75z M12,5.158
	l-1.058,1.244l-0.188,0.067C8.86,7.151,6.75,10.001,6.75,13s2.11,5.849,4.004,6.53c0.473,0.171,0.76,0.654,1.064,1.167
	c0.051,0.086,0.116,0.196,0.182,0.301c0.065-0.104,0.132-0.216,0.183-0.301c0.304-0.513,0.591-0.996,1.062-1.166
	C15.14,18.849,17.25,15.999,17.25,13s-2.11-5.849-4.004-6.531l-0.188-0.067L12,5.158z M10.147,20.89L10.147,20.89L10.147,20.89z"/>
<path style="fill:#333333;" d="M14.807,6.276c-0.281,0-0.545-0.021-0.776-0.05c-0.476-0.061-0.883-0.328-1.116-0.733
	c-0.234-0.405-0.262-0.891-0.076-1.333c0.307-0.733,0.883-1.73,1.885-2.309c1.001-0.577,2.155-0.578,2.943-0.479
	c0.476,0.061,0.883,0.328,1.116,0.733c0.234,0.405,0.262,0.891,0.076,1.333c-0.307,0.734-0.884,1.731-1.886,2.309
	C16.267,6.156,15.484,6.276,14.807,6.276z M16.884,2.821c-0.46,0-0.975,0.076-1.411,0.328c-0.64,0.37-1.033,1.068-1.251,1.589
	c0.558,0.071,1.363,0.079,2.001-0.29c0.64-0.369,1.034-1.067,1.252-1.589C17.298,2.837,17.097,2.821,16.884,2.821z"/>
</svg>






