<?xml version="1.0" encoding="iso-8859-1"?>
<svg version="1.1" id="&#x56FE;&#x5C42;_1" xmlns="http://www.w3.org/2000/svg" xmlns:xlink="http://www.w3.org/1999/xlink" x="0px"
	 y="0px" viewBox="0 0 24 24" style="enable-background:new 0 0 24 24;" xml:space="preserve">
<path style="fill:none;" d="M7,5c0,1.105-0.895,2-2,2C3.895,7,3,6.105,3,5c0-1.105,0.895-2,2-2C6.105,3,7,3.895,7,5z"/>
<path style="fill:#333333;" d="M5.75,10h-1.5V7.646c-1.153-0.327-2-1.39-2-2.646c0-1.517,1.233-2.75,2.75-2.75
	c1.256,0,2.319,0.847,2.646,2H10v1.5H7.646C7.387,6.665,6.665,7.387,5.75,7.646V10z M5,7V6.25c0.689,0,1.25-0.561,1.25-1.25H7H6.25
	c0-0.689-0.561-1.25-1.25-1.25S3.75,4.311,3.75,5S4.311,6.25,5,6.25V7z"/>
<path style="fill:none;" d="M7,19c0-1.105-0.895-2-2-2c-1.105,0-2,0.895-2,2s0.895,2,2,2C6.105,21,7,20.105,7,19z"/>
<path style="fill:#333333;" d="M5,21.75c-1.517,0-2.75-1.233-2.75-2.75c0-1.257,0.847-2.318,2-2.646V14h1.5v2.354
	c0.915,0.26,1.637,0.982,1.896,1.896H10v1.5H7.646C7.319,20.903,6.256,21.75,5,21.75z M5,17v0.75c-0.689,0-1.25,0.561-1.25,1.25
	S4.311,20.25,5,20.25S6.25,19.689,6.25,19S5.689,17.75,5,17.75V17z"/>
<path style="fill:none;" d="M17,19c0-1.105,0.895-2,2-2s2,0.895,2,2s-0.895,2-2,2S17,20.105,17,19z"/>
<path style="fill:#333333;" d="M19,21.75c-1.257,0-2.318-0.847-2.646-2H14v-1.5h2.354c0.26-0.914,0.982-1.637,1.896-1.896V14h1.5
	v2.354c1.153,0.328,2,1.39,2,2.646C21.75,20.517,20.517,21.75,19,21.75z M17.75,19c0,0.689,0.561,1.25,1.25,1.25
	s1.25-0.561,1.25-1.25s-0.561-1.25-1.25-1.25S17.75,18.311,17.75,19z"/>
<path style="fill:none;" d="M17,5c0,1.105,0.895,2,2,2s2-0.895,2-2c0-1.105-0.895-2-2-2S17,3.895,17,5z"/>
<path style="fill:#333333;" d="M19.75,10h-1.5V7.646c-0.914-0.259-1.637-0.981-1.896-1.896H14v-1.5h2.354
	c0.328-1.153,1.39-2,2.646-2c1.517,0,2.75,1.233,2.75,2.75c0,1.256-0.847,2.319-2,2.646V10z M17,5h0.75
	c0,0.689,0.561,1.25,1.25,1.25S20.25,5.689,20.25,5S19.689,3.75,19,3.75S17.75,4.311,17.75,5H17z"/>
<rect x="8.5" y="11.25" style="fill:#333333;" width="7" height="1.5"/>
<rect x="11.25" y="8.5" style="fill:#333333;" width="1.5" height="7"/>
</svg>






