<?xml version="1.0" encoding="iso-8859-1"?>
<svg version="1.1" id="&#x56FE;&#x5C42;_1" xmlns="http://www.w3.org/2000/svg" xmlns:xlink="http://www.w3.org/1999/xlink" x="0px"
	 y="0px" viewBox="0 0 24 24" style="enable-background:new 0 0 24 24;" xml:space="preserve">
<path style="fill:#333333;" d="M6.5,17.25c-2.068,0-3.75-1.683-3.75-3.75c0-2.068,1.682-3.75,3.75-3.75s3.75,1.682,3.75,3.75
	C10.25,15.567,8.568,17.25,6.5,17.25z M6.5,11.25c-1.241,0-2.25,1.01-2.25,2.25s1.009,2.25,2.25,2.25s2.25-1.01,2.25-2.25
	S7.741,11.25,6.5,11.25z"/>
<path style="fill:#333333;" d="M17.745,22.253c-0.462,0-0.909-0.089-1.294-0.268c-1.206-0.561-2.032-1.457-2.455-2.664
	c-0.753-2.15,0.027-4.699,0.607-5.866l0.788-1.772c0.211-0.432,0.56-1.212,0.646-1.577c0.582-2.417,0.414-4.23-0.498-5.388
	C14.496,3.393,12.717,3.25,12,3.25c-4.617,0-4.75,6.508-4.75,7.25h-1.5c0-3.25,1.316-8.75,6.25-8.75c0.936,0,3.268,0.199,4.718,2.04
	c1.212,1.538,1.474,3.781,0.779,6.667c-0.154,0.644-0.687,1.738-0.746,1.861l-0.79,1.776c-0.457,0.92-1.139,3.05-0.549,4.731
	c0.288,0.822,0.835,1.411,1.672,1.801c0.367,0.17,1.048,0.193,1.641-0.098c0.544-0.268,0.896-0.736,1.044-1.393l1.463,0.33
	c-0.246,1.09-0.901,1.945-1.846,2.408C18.875,22.126,18.3,22.253,17.745,22.253z"/>
</svg>






