<?xml version="1.0" encoding="iso-8859-1"?>
<svg version="1.1" id="&#x56FE;&#x5C42;_1" xmlns="http://www.w3.org/2000/svg" xmlns:xlink="http://www.w3.org/1999/xlink" x="0px"
	 y="0px" viewBox="0 0 24 24" style="enable-background:new 0 0 24 24;" xml:space="preserve">
<rect x="2.25" y="4" style="fill:#333333;" width="1.5" height="16"/>
<rect x="11.25" y="4" style="fill:#333333;" width="1.5" height="16"/>
<rect x="3.5" y="11.25" style="fill:#333333;" width="8" height="1.5"/>
<path style="fill:#333333;" d="M18,20.75c-1.671,0-2.75-1.078-2.75-2.746h1.5c0,1.117,0.714,1.246,1.25,1.246
	c1.161,0,1.75-0.387,1.75-2.5c0-2.5-0.845-2.5-1.25-2.5c-1.281,0-2.111,0.406-2.119,0.411l-0.339-0.645H15.25V9.755H20v1.5h-3.25
	v1.706c0.844-0.19,1.733-0.211,1.75-0.211c1.825,0,2.75,1.346,2.75,4C21.25,17.844,21.25,20.75,18,20.75z"/>
</svg>






