<?xml version="1.0" encoding="iso-8859-1"?>
<svg version="1.1" id="&#x56FE;&#x5C42;_1" xmlns="http://www.w3.org/2000/svg" xmlns:xlink="http://www.w3.org/1999/xlink" x="0px"
	 y="0px" viewBox="0 0 24 24" style="enable-background:new 0 0 24 24;" xml:space="preserve">
<rect x="2.25" y="4" style="fill:#333333;" width="1.5" height="16"/>
<rect x="11.25" y="4" style="fill:#333333;" width="1.5" height="16"/>
<rect x="3.5" y="11.25" style="fill:#333333;" width="8" height="1.5"/>
<path style="fill:#333333;" d="M18.25,20.75c-1.93,0-3.5-1.57-3.5-3.5s1.57-3.5,3.5-3.5s3.5,1.57,3.5,3.5S20.18,20.75,18.25,20.75z
	 M18.25,15.25c-1.103,0-2,0.897-2,2s0.897,2,2,2s2-0.897,2-2S19.353,15.25,18.25,15.25z"/>
<path style="fill:#333333;" d="M16.25,17h-1.5v-3.5c0-2.068,1.57-3.75,3.5-3.75c1.44,0,2.716,0.925,3.251,2.356l-1.406,0.525
	c-0.312-0.839-1.037-1.382-1.845-1.382c-1.103,0-2,1.01-2,2.25V17z"/>
</svg>






