<?xml version="1.0" encoding="iso-8859-1"?>
<svg version="1.1" id="&#x56FE;&#x5C42;_1" xmlns="http://www.w3.org/2000/svg" xmlns:xlink="http://www.w3.org/1999/xlink" x="0px"
	 y="0px" viewBox="0 0 24 24" style="enable-background:new 0 0 24 24;" xml:space="preserve">
<rect x="2.25" y="4" style="fill:#333333;" width="1.5" height="16"/>
<rect x="11.25" y="4" style="fill:#333333;" width="1.5" height="16"/>
<rect x="3.5" y="11.25" style="fill:#333333;" width="8" height="1.5"/>
<path style="fill:#333333;" d="M18.5,15.25c-1.517,0-2.75-1.233-2.75-2.75s1.233-2.75,2.75-2.75s2.75,1.233,2.75,2.75
	S20.017,15.25,18.5,15.25z M18.5,11.25c-0.689,0-1.25,0.561-1.25,1.25s0.561,1.25,1.25,1.25s1.25-0.561,1.25-1.25
	S19.189,11.25,18.5,11.25z"/>
<path style="fill:#333333;" d="M18.5,20.75c-1.792,0-3.25-1.458-3.25-3.25s1.458-3.25,3.25-3.25s3.25,1.458,3.25,3.25
	S20.292,20.75,18.5,20.75z M18.5,15.75c-0.965,0-1.75,0.785-1.75,1.75s0.785,1.75,1.75,1.75s1.75-0.785,1.75-1.75
	S19.465,15.75,18.5,15.75z"/>
</svg>






