<?xml version="1.0" encoding="iso-8859-1"?>
<svg version="1.1" id="&#x56FE;&#x5C42;_1" xmlns="http://www.w3.org/2000/svg" xmlns:xlink="http://www.w3.org/1999/xlink" x="0px"
	 y="0px" viewBox="0 0 24 24" style="enable-background:new 0 0 24 24;" xml:space="preserve">
<rect x="2" y="18.75" style="fill:#333333;" width="20" height="1.5"/>
<rect x="2" y="12.75" style="fill:#333333;" width="5.75" height="1.5"/>
<rect x="16.25" y="12.75" style="fill:#333333;" width="5.75" height="1.5"/>
<path style="fill:#333333;" d="M7.181,13.979c-0.077-0.093-0.151-0.188-0.222-0.285c-0.069-0.095-0.135-0.189-0.198-0.286
	C6.1,12.396,5.75,11.216,5.75,10c0-3.446,2.804-6.25,6.25-6.25s6.25,2.804,6.25,6.25c0,1.215-0.35,2.395-1.012,3.409
	c-0.062,0.097-0.127,0.189-0.194,0.281c-0.072,0.1-0.146,0.193-0.221,0.285l-1.16-0.951c0.059-0.07,0.115-0.145,0.17-0.219
	c0.05-0.068,0.101-0.142,0.15-0.217c0.501-0.77,0.767-1.665,0.767-2.589c0-2.619-2.131-4.75-4.75-4.75S7.25,7.381,7.25,10
	c0,0.924,0.266,1.82,0.768,2.59c0.048,0.075,0.098,0.146,0.149,0.217c0.053,0.072,0.109,0.145,0.167,0.214L7.181,13.979z"/>
</svg>






