<?xml version="1.0" encoding="iso-8859-1"?>
<svg version="1.1" id="&#x56FE;&#x5C42;_1" xmlns="http://www.w3.org/2000/svg" xmlns:xlink="http://www.w3.org/1999/xlink" x="0px"
	 y="0px" viewBox="0 0 24 24" style="enable-background:new 0 0 24 24;" xml:space="preserve">
<path style="fill:#333333;" d="M12,22.745c-2.753,0-5.506-1.048-7.602-3.144c-4.191-4.191-4.191-11.012,0-15.203
	c4.191-4.191,11.012-4.191,15.203,0s4.191,11.012,0,15.203C17.506,21.697,14.753,22.745,12,22.745z M12,2.754
	c-2.369,0-4.737,0.901-6.541,2.705c-3.606,3.607-3.606,9.476,0,13.082c3.606,3.605,9.476,3.607,13.082,0
	c3.606-3.606,3.606-9.475,0-13.082C16.738,3.656,14.368,2.754,12,2.754z M12,18.75c-1.803,0-3.498-0.702-4.773-1.978
	C5.952,15.498,5.25,13.803,5.25,12c0-1.803,0.702-3.498,1.977-4.773S10.197,5.25,12,5.25c1.803,0,3.498,0.702,4.772,1.977l0,0l0,0
	c1.275,1.275,1.978,2.97,1.978,4.773c0,1.803-0.702,3.498-1.978,4.772C15.498,18.048,13.803,18.75,12,18.75z M12,6.75
	c-1.402,0-2.721,0.546-3.712,1.538S6.75,10.598,6.75,12s0.546,2.721,1.538,3.712c0.992,0.992,2.31,1.538,3.712,1.538
	s2.721-0.546,3.712-1.538c0.992-0.991,1.538-2.31,1.538-3.712s-0.546-2.721-1.538-3.712l0,0C14.721,7.296,13.402,6.75,12,6.75z"/>
<rect x="16.907" y="15.656" transform="matrix(0.7071 -0.7071 0.7071 0.7071 -7.3137 17.6567)" style="fill:#333333;" width="1.5" height="4.001"/>
<rect x="4.343" y="16.907" transform="matrix(0.7071 -0.7071 0.7071 0.7071 -10.6274 9.6567)" style="fill:#333333;" width="4.001" height="1.5"/>
<rect x="5.593" y="4.343" transform="matrix(0.7071 -0.7071 0.7071 0.7071 -2.6274 6.343)" style="fill:#333333;" width="1.5" height="4"/>
<rect x="15.656" y="5.593" transform="matrix(0.7071 -0.7071 0.7071 0.7071 0.6863 14.343)" style="fill:#333333;" width="4.001" height="1.5"/>
<path style="fill:#333333;" d="M12,18.75c-1.803,0-3.498-0.702-4.773-1.978C5.952,15.498,5.25,13.803,5.25,12
	c0-1.803,0.702-3.498,1.977-4.773S10.197,5.25,12,5.25c1.803,0,3.498,0.702,4.772,1.977c1.275,1.275,1.978,2.97,1.978,4.773
	c0,1.803-0.702,3.498-1.978,4.772l0,0l0,0C15.498,18.048,13.803,18.75,12,18.75z M12,6.75c-1.402,0-2.721,0.546-3.712,1.538
	S6.75,10.598,6.75,12s0.546,2.721,1.538,3.712c0.992,0.992,2.31,1.538,3.712,1.538s2.721-0.546,3.712-1.538l0,0
	c0.992-0.991,1.538-2.31,1.538-3.712s-0.546-2.721-1.538-3.712C14.721,7.296,13.402,6.75,12,6.75z"/>
</svg>






