<?xml version="1.0" encoding="iso-8859-1"?>
<svg version="1.1" id="&#x56FE;&#x5C42;_1" xmlns="http://www.w3.org/2000/svg" xmlns:xlink="http://www.w3.org/1999/xlink" x="0px"
	 y="0px" viewBox="0 0 24 24" style="enable-background:new 0 0 24 24;" xml:space="preserve">
<rect x="3" y="21.25" style="fill:#333333;" width="18" height="1.5"/>
<rect x="8.5" y="9.25" style="fill:#333333;" width="7" height="1.5"/>
<path style="fill:#333333;" d="M16.85,22.75H7.15l1.688-13.5h6.324L16.85,22.75z M8.85,21.25h6.301l-1.312-10.5h-3.676L8.85,21.25z"
	/>
<polygon style="fill:#333333;" points="14.126,10.75 9.874,10.75 8.762,4.634 10.238,4.366 11.126,9.25 12.874,9.25 13.762,4.366 
	15.238,4.634 "/>
<polygon style="fill:#333333;" points="15.47,6.53 12,3.061 8.53,6.53 7.47,5.47 12,0.939 16.53,5.47 "/>
<rect x="18.189" y="2" transform="matrix(0.7071 -0.7071 0.7071 0.7071 3.6937 14.4173)" style="fill:#333333;" width="2.121" height="1.5"/>
<rect x="4" y="1.689" transform="matrix(0.7071 -0.7071 0.7071 0.7071 -0.5533 4.1642)" style="fill:#333333;" width="1.5" height="2.121"/>
<rect x="18.5" y="9.189" transform="matrix(0.7071 -0.7071 0.7071 0.7071 -1.6097 16.614)" style="fill:#333333;" width="1.5" height="2.121"/>
<rect x="3.689" y="9.5" transform="matrix(0.7071 -0.7071 0.7071 0.7071 -5.8566 6.3609)" style="fill:#333333;" width="2.121" height="1.5"/>
<rect x="19" y="5.75" style="fill:#333333;" width="2" height="1.5"/>
<rect x="3" y="5.75" style="fill:#333333;" width="2" height="1.5"/>
<rect x="9" y="13.25" style="fill:#333333;" width="6" height="1.5"/>
<rect x="8.5" y="17.25" style="fill:#333333;" width="7" height="1.5"/>
<rect x="14.5" y="9.953" transform="matrix(0.9923 -0.124 0.124 0.9923 -1.8669 2.0152)" style="fill:#333333;" width="1.5" height="12.093"/>
<rect x="2.703" y="15.25" transform="matrix(0.1237 -0.9923 0.9923 0.1237 -8.2096 22.7034)" style="fill:#333333;" width="12.093" height="1.5"/>
</svg>






