<?xml version="1.0" encoding="iso-8859-1"?>
<svg version="1.1" id="&#x56FE;&#x5C42;_1" xmlns="http://www.w3.org/2000/svg" xmlns:xlink="http://www.w3.org/1999/xlink" x="0px"
	 y="0px" viewBox="0 0 24 24" style="enable-background:new 0 0 24 24;" xml:space="preserve">
<path style="fill:#333333;" d="M17.226,8.186L8.928,4.519C8.818,4.47,8.691,4.506,8.623,4.604L6.294,7.93L5.065,7.07l2.328-3.326
	C7.871,3.06,8.771,2.809,9.535,3.146l8.297,3.667L17.226,8.186z"/>
<path style="fill:#333333;" d="M21.5,21.25h-19c-0.689,0-1.25-0.561-1.25-1.25V8c0-0.689,0.561-1.25,1.25-1.25h19
	c0.689,0,1.25,0.561,1.25,1.25v12C22.75,20.689,22.189,21.25,21.5,21.25z M2.75,19.75h18.5V8.25H2.75V19.75z"/>
<polygon style="fill:#333333;" points="11.384,16.841 8.832,11.841 10.168,11.159 12.038,14.823 13.826,11.17 15.174,11.83 
	12.726,16.83 "/>
</svg>






