<?xml version="1.0" encoding="iso-8859-1"?>
<svg version="1.1" id="&#x56FE;&#x5C42;_1" xmlns="http://www.w3.org/2000/svg" xmlns:xlink="http://www.w3.org/1999/xlink" x="0px"
	 y="0px" viewBox="0 0 24 24" style="enable-background:new 0 0 24 24;" xml:space="preserve">
<path style="fill:#333333;" d="M15.095,22.75h-6.19c-0.903,0-1.651-0.678-1.741-1.576l-0.9-9c-0.011-0.117-0.011-0.231,0-0.345
	l0.901-9.003C7.253,1.928,8.001,1.25,8.905,1.25h6.19c0.903,0,1.652,0.678,1.741,1.576l0.9,9c0.012,0.115,0.012,0.234,0,0.351
	l-0.9,8.997C16.747,22.072,15.998,22.75,15.095,22.75z M8.905,2.75c-0.129,0-0.235,0.097-0.249,0.225l-0.9,9l0.9,9.05
	c0.013,0.128,0.12,0.225,0.249,0.225h6.19c0.129,0,0.236-0.097,0.249-0.225l0.9-9l-0.9-9.05c-0.013-0.128-0.12-0.225-0.249-0.225
	H8.905z"/>
<rect x="7" y="11.25" style="fill:#333333;" width="10" height="1.5"/>
<rect x="11.25" y="2" style="fill:#333333;" width="1.5" height="20"/>
<rect x="10" y="1.25" style="fill:#333333;" width="4" height="1.5"/>
<rect x="10" y="21.25" style="fill:#333333;" width="4" height="1.5"/>
<path style="fill:#333333;" d="M6.754,17.074l-0.49-4.9c-0.011-0.117-0.011-0.231,0-0.345l0.491-4.904l1.492,0.149l-0.49,4.9
	l0.49,4.951L6.754,17.074z"/>
<path style="fill:#333333;" d="M17.246,17.074l-1.492-0.148l0.49-4.9l-0.49-4.951l1.492-0.149l0.49,4.9
	c0.012,0.115,0.012,0.234,0,0.351L17.246,17.074z"/>
</svg>






