<?xml version="1.0" encoding="iso-8859-1"?>
<svg version="1.1" id="&#x56FE;&#x5C42;_1" xmlns="http://www.w3.org/2000/svg" xmlns:xlink="http://www.w3.org/1999/xlink" x="0px"
	 y="0px" viewBox="0 0 24 24" style="enable-background:new 0 0 24 24;" xml:space="preserve">
<path style="fill:#333333;" d="M21,16.75h-2v-1.5h2c0.138,0,0.25-0.112,0.25-0.25V8c0-0.138-0.112-0.25-0.25-0.25h-7.5v-1.5H21
	c0.965,0,1.75,0.785,1.75,1.75v7C22.75,15.965,21.965,16.75,21,16.75z"/>
<path style="fill:#333333;" d="M10.5,16.75H3c-0.965,0-1.75-0.785-1.75-1.75V8c0-0.965,0.785-1.75,1.75-1.75h2.5v1.5H3
	C2.862,7.75,2.75,7.862,2.75,8v7c0,0.138,0.112,0.25,0.25,0.25h7.5V16.75z"/>
<rect x="11.25" y="1.638" transform="matrix(0.8619 -0.507 0.507 0.8619 -4.174 7.6722)" style="fill:#333333;" width="1.5" height="19.723"/>
<rect x="16" y="10.75" style="fill:#333333;" width="2" height="1.5"/>
<rect x="6" y="10.75" style="fill:#333333;" width="2" height="1.5"/>
</svg>






