<?xml version="1.0" encoding="iso-8859-1"?>
<svg version="1.1" id="&#x56FE;&#x5C42;_1" xmlns="http://www.w3.org/2000/svg" xmlns:xlink="http://www.w3.org/1999/xlink" x="0px"
	 y="0px" viewBox="0 0 24 24" style="enable-background:new 0 0 24 24;" xml:space="preserve">
<path style="fill:#333333;" d="M18,17.25v-1.5c1.214,0,3.25-0.422,3.25-3.25c0-3.514-3.679-3.986-3.835-4.005l-0.496-0.058
	l-0.14-0.481C16.437,6.759,15.361,4.75,12,4.75c-3.207,0-4.192,1.901-4.779,3.956L7.066,9.25H6.5c-0.038,0-3.75,0.206-3.75,3.5
	c0,2.708,2.273,3,3.25,3v1.5c-2.191,0-4.75-1.179-4.75-4.5c0-3.395,2.856-4.726,4.679-4.961C6.435,6.183,7.723,3.25,12,3.25
	c4.03,0,5.532,2.4,6.068,3.832c1.851,0.377,4.682,1.855,4.682,5.418C22.75,16.002,20.296,17.25,18,17.25z"/>
<rect x="8.464" y="15.75" transform="matrix(0.7071 -0.7071 0.7071 0.7071 -8.1525 13.318)" style="fill:#333333;" width="7.071" height="1.5"/>
<rect x="11.25" y="12.964" transform="matrix(0.7071 -0.7071 0.7071 0.7071 -8.1525 13.318)" style="fill:#333333;" width="1.5" height="7.071"/>
</svg>






