<?xml version="1.0" encoding="iso-8859-1"?>
<svg version="1.1" id="&#x56FE;&#x5C42;_1" xmlns="http://www.w3.org/2000/svg" xmlns:xlink="http://www.w3.org/1999/xlink" x="0px"
	 y="0px" viewBox="0 0 24 24" style="enable-background:new 0 0 24 24;" xml:space="preserve">
<polygon style="fill:#333333;" points="16.75,6 15.25,6 15.25,2.75 8.75,2.75 8.75,6 7.25,6 7.25,1.25 16.75,1.25 "/>
<polygon style="fill:#333333;" points="16.75,22.75 7.25,22.75 7.25,18 8.75,18 8.75,21.25 15.25,21.25 15.25,18 16.75,18 "/>
<rect x="2" y="11.25" style="fill:#333333;" width="7" height="1.5"/>
<rect x="15" y="11.25" style="fill:#333333;" width="7" height="1.5"/>
<rect x="11.25" y="7" style="fill:#333333;" width="1.5" height="10"/>
<polygon style="fill:#333333;" points="20.03,15.03 18.97,13.97 20.939,12 18.97,10.03 20.03,8.97 23.061,12 "/>
<polygon style="fill:#333333;" points="3.97,15.03 0.939,12 3.97,8.97 5.03,10.03 3.061,12 5.03,13.97 "/>
</svg>






