<?xml version="1.0" encoding="iso-8859-1"?>
<svg version="1.1" id="&#x56FE;&#x5C42;_1" xmlns="http://www.w3.org/2000/svg" xmlns:xlink="http://www.w3.org/1999/xlink" x="0px"
	 y="0px" viewBox="0 0 24 24" style="enable-background:new 0 0 24 24;" xml:space="preserve">
<path style="fill:#333333;" d="M15.89,13.396c-0.448,0-0.896-0.171-1.237-0.512l-3.536-3.536c-0.331-0.33-0.513-0.77-0.513-1.237
	c0-0.467,0.182-0.907,0.513-1.237l4.95-4.95c0.682-0.683,1.793-0.683,2.475,0l3.535,3.536c0.33,0.33,0.513,0.77,0.513,1.237
	c0,0.467-0.182,0.907-0.513,1.237l-4.949,4.95C16.786,13.225,16.338,13.396,15.89,13.396z M17.304,2.911
	c-0.064,0-0.128,0.024-0.177,0.073l-4.949,4.95c-0.064,0.064-0.074,0.138-0.074,0.177s0.01,0.113,0.073,0.176l3.536,3.536
	c0.098,0.098,0.256,0.098,0.354,0l4.949-4.95c0.063-0.064,0.073-0.138,0.073-0.177s-0.01-0.113-0.073-0.176L17.48,2.984
	C17.432,2.936,17.368,2.911,17.304,2.911z"/>
<path style="fill:#333333;" d="M6.697,22.589c-0.468,0-0.907-0.183-1.238-0.513l-3.535-3.535c-0.331-0.331-0.513-0.771-0.513-1.239
	c0-0.467,0.183-0.906,0.513-1.236l4.949-4.949c0.683-0.683,1.792-0.683,2.475,0l3.535,3.535c0.683,0.683,0.683,1.793,0,2.476
	l-4.949,4.949C7.604,22.407,7.165,22.589,6.697,22.589z M8.111,12.104c-0.064,0-0.128,0.024-0.177,0.073l-4.95,4.95
	c-0.064,0.063-0.073,0.138-0.073,0.176c0,0.039,0.009,0.114,0.073,0.178l3.536,3.535c0.128,0.127,0.226,0.127,0.354,0l4.949-4.949
	c0.098-0.098,0.098-0.257,0-0.354l-3.535-3.535C8.239,12.128,8.175,12.104,8.111,12.104z"/>
<rect x="7.001" y="11.25" transform="matrix(0.7071 -0.7071 0.7071 0.7071 -4.9702 12.0003)" style="fill:#333333;" width="10" height="1.5"/>
</svg>






