<?xml version="1.0" encoding="iso-8859-1"?>
<svg version="1.1" id="&#x56FE;&#x5C42;_1" xmlns="http://www.w3.org/2000/svg" xmlns:xlink="http://www.w3.org/1999/xlink" x="0px"
	 y="0px" viewBox="0 0 24 24" style="enable-background:new 0 0 24 24;" xml:space="preserve">
<path style="fill:#333333;" d="M18,18.25h-8c-2.619,0-4.75-2.131-4.75-4.75S7.381,8.75,10,8.75h5v1.5h-5
	c-1.792,0-3.25,1.458-3.25,3.25s1.458,3.25,3.25,3.25h8c1.792,0,3.25-1.458,3.25-3.25c0-0.793-0.288-1.556-0.812-2.15l1.125-0.992
	c0.766,0.868,1.188,1.984,1.188,3.142C22.75,16.119,20.619,18.25,18,18.25z"/>
<path style="fill:#333333;" d="M14,14.25H9v-1.5h5c1.792,0,3.25-1.458,3.25-3.25S15.792,6.25,14,6.25H6
	c-1.792,0-3.25,1.458-3.25,3.25c0,0.793,0.289,1.556,0.812,2.149l-1.124,0.994C1.672,11.775,1.25,10.659,1.25,9.5
	c0-2.619,2.131-4.75,4.75-4.75h8c2.619,0,4.75,2.131,4.75,4.75S16.619,14.25,14,14.25z"/>
</svg>






