<?xml version="1.0" encoding="iso-8859-1"?>
<svg version="1.1" id="&#x56FE;&#x5C42;_1" xmlns="http://www.w3.org/2000/svg" xmlns:xlink="http://www.w3.org/1999/xlink" x="0px"
	 y="0px" viewBox="0 0 24 24" style="enable-background:new 0 0 24 24;" xml:space="preserve">
<path style="fill:#333333;" d="M21,17.25h-5v-1.5h5c0.138,0,0.25-0.112,0.25-0.25v-7c0-0.138-0.112-0.25-0.25-0.25h-5v-1.5h5
	c0.965,0,1.75,0.785,1.75,1.75v7C22.75,16.465,21.965,17.25,21,17.25z"/>
<path style="fill:#333333;" d="M8.5,17.25H3c-0.965,0-1.75-0.785-1.75-1.75v-7c0-0.965,0.785-1.75,1.75-1.75h5.5v1.5H3
	c-0.138,0-0.25,0.112-0.25,0.25v7c0,0.138,0.112,0.25,0.25,0.25h5.5V17.25z"/>
<rect x="11.25" y="3" style="fill:#333333;" width="1.5" height="18"/>
<rect x="6" y="11.25" style="fill:#333333;" width="2" height="1.5"/>
<rect x="16" y="11.25" style="fill:#333333;" width="2" height="1.5"/>
</svg>






