<?xml version="1.0" encoding="iso-8859-1"?>
<svg version="1.1" id="&#x56FE;&#x5C42;_1" xmlns="http://www.w3.org/2000/svg" xmlns:xlink="http://www.w3.org/1999/xlink" x="0px"
	 y="0px" viewBox="0 0 24 24" style="enable-background:new 0 0 24 24;" xml:space="preserve">
<path style="fill:#333333;" d="M7.038,13.064L3.07,9.097C2.282,8.309,1.856,7.254,1.872,6.128c0.015-1.119,0.464-2.176,1.264-2.976
	c0.8-0.8,1.857-1.249,2.976-1.264c1.149-0.025,2.181,0.41,2.969,1.199l4.57,4.57L12.59,8.717l-4.57-4.57
	c-0.5-0.499-1.163-0.788-1.889-0.759C5.406,3.397,4.718,3.69,4.196,4.212C3.674,4.734,3.381,5.422,3.371,6.148
	C3.362,6.866,3.631,7.537,4.13,8.036l3.968,3.968L7.038,13.064z"/>
<path style="fill:#333333;" d="M17.85,22.148c-1.104,0-2.136-0.425-2.91-1.199l-4.57-4.57l1.061-1.061l4.57,4.57
	c0.499,0.5,1.173,0.758,1.888,0.76c0.726-0.01,1.413-0.303,1.936-0.825c1.072-1.072,1.102-2.788,0.065-3.824l-3.968-3.967
	l1.061-1.061l3.968,3.967c1.621,1.621,1.592,4.288-0.065,5.945c-0.8,0.8-1.857,1.249-2.976,1.265
	C17.889,22.148,17.869,22.148,17.85,22.148z"/>
<path style="fill:#333333;" d="M13.585,13.601l-1.061-1.061c0.522-0.522,0.815-1.209,0.825-1.935c0.01-0.718-0.261-1.389-0.76-1.888
	l1.061-1.061c0.788,0.788,1.214,1.842,1.199,2.969C14.834,11.744,14.385,12.801,13.585,13.601z"/>
<path style="fill:#333333;" d="M10.304,16.313c-0.788-0.787-1.213-1.842-1.198-2.969c0.015-1.119,0.464-2.176,1.264-2.976
	l1.061,1.061c-0.522,0.522-0.815,1.209-0.825,1.936c-0.009,0.718,0.26,1.389,0.759,1.888L10.304,16.313z"/>
</svg>






