<?xml version="1.0" encoding="iso-8859-1"?>
<svg version="1.1" id="&#x56FE;&#x5C42;_1" xmlns="http://www.w3.org/2000/svg" xmlns:xlink="http://www.w3.org/1999/xlink" x="0px"
	 y="0px" viewBox="0 0 24 24" style="enable-background:new 0 0 24 24;" xml:space="preserve">
<path style="fill:#333333;" d="M8.111,20.637c-1.344,0-2.688-0.512-3.712-1.535c-2.046-2.047-2.046-5.378,0-7.425l7.424-7.424
	l1.061,1.061l-7.424,7.424c-1.462,1.462-1.462,3.842,0,5.304c1.462,1.461,3.841,1.461,5.303,0l8.839-8.839
	c0.425-0.425,0.659-0.99,0.659-1.591c0-0.601-0.234-1.166-0.659-1.591c-0.876-0.876-2.305-0.877-3.183,0l-8.838,8.838
	c-0.292,0.293-0.292,0.769,0,1.062c0.284,0.284,0.778,0.283,1.061,0l7.425-7.425l1.061,1.061L9.702,16.98
	c-0.877,0.878-2.306,0.876-3.182,0c-0.877-0.877-0.877-2.306,0-3.183l8.838-8.838c1.462-1.461,3.84-1.463,5.304,0
	c0.708,0.708,1.099,1.65,1.099,2.651c0,1.002-0.391,1.944-1.099,2.652l-8.839,8.839C10.8,20.125,9.456,20.637,8.111,20.637z"/>
</svg>






