<?xml version="1.0" encoding="iso-8859-1"?>
<svg version="1.1" id="&#x56FE;&#x5C42;_1" xmlns="http://www.w3.org/2000/svg" xmlns:xlink="http://www.w3.org/1999/xlink" x="0px"
	 y="0px" viewBox="0 0 24 24" style="enable-background:new 0 0 24 24;" xml:space="preserve">
<path style="fill:#333333;" d="M12.5,16.75c-3.062,0-6.191-2.546-7.112-3.845l-0.53-0.748l0.838-0.371
	c0.419-0.186,2.214-1.476,2.66-2.225C8.844,8.74,9.739,8.25,10.75,8.25c0.661,0,1.271,0.209,1.752,0.584
	c0.432-0.332,0.97-0.532,1.565-0.572c1.066-0.07,2.105,0.382,2.77,1.216c1.091,1.368,2.093,2.142,2.467,2.308l0.879,0.39
	l-0.591,0.757C18.893,13.828,16.317,16.75,12.5,16.75z M7.145,12.65c1.141,1.135,3.371,2.6,5.355,2.6
	c2.511,0,4.406-1.587,5.368-2.611c-0.607-0.461-1.381-1.193-2.204-2.226c-0.353-0.442-0.926-0.689-1.496-0.655
	c-0.452,0.03-0.825,0.239-1.024,0.572l-0.646,1.079l-0.643-1.08c-0.432-0.726-1.779-0.726-2.211,0
	C9.179,11.11,8.003,12.063,7.145,12.65z"/>
<path style="fill:#333333;" d="M12.332,13.748c-2.939,0-5.292-0.276-6.479-0.513l0.293-1.471c1.922,0.382,7.057,0.872,12.739-0.006
	l0.229,1.482C16.7,13.614,14.374,13.748,12.332,13.748z"/>
<path style="fill:#333333;" d="M12,22.75C6.072,22.75,1.25,17.928,1.25,12S6.072,1.25,12,1.25v1.5c-5.101,0-9.25,4.149-9.25,9.25
	s4.149,9.25,9.25,9.25s9.25-4.149,9.25-9.25h1.5C22.75,17.928,17.928,22.75,12,22.75z"/>
<polygon style="fill:#333333;" points="19.509,6.225 19.5,6.219 19.491,6.225 18.338,5.386 18.341,5.377 18.333,5.371 18.787,4.004 
	20.227,4.014 20.667,5.371 20.659,5.377 20.662,5.386 "/>
<path style="fill:#333333;" d="M17.318,15.11l-0.873-1.221c0.59-0.422,1.068-0.871,1.424-1.251c-0.281-0.214-0.584-0.476-0.89-0.771
	l1.041-1.079c0.648,0.625,1.112,0.921,1.284,0.998l0.877,0.39l-0.59,0.757C19.229,13.398,18.45,14.301,17.318,15.11z"/>
<path style="fill:#333333;" d="M8.634,15.608c-1.521-0.85-2.727-1.97-3.246-2.703l-0.53-0.748l0.838-0.371
	c0.204-0.09,1.081-0.658,1.854-1.346l0.998,1.12c-0.442,0.394-0.957,0.787-1.399,1.089c0.542,0.534,1.337,1.158,2.217,1.65
	L8.634,15.608z"/>
</svg>






