<?xml version="1.0" encoding="iso-8859-1"?>
<svg version="1.1" id="&#x56FE;&#x5C42;_1" xmlns="http://www.w3.org/2000/svg" xmlns:xlink="http://www.w3.org/1999/xlink" x="0px"
	 y="0px" viewBox="0 0 24 24" style="enable-background:new 0 0 24 24;" xml:space="preserve">
<path style="fill:#333333;" d="M10.585,22.75H5.415l-0.142-0.568c-0.042-0.165-1.019-4.11-1.519-9.107
	C3.256,8.095,3.25,6.083,3.25,6V5.25h9.5V6c0,0.083-0.006,2.095-0.504,7.074c-0.5,4.997-1.477,8.942-1.519,9.107L10.585,22.75z
	 M6.595,21.25h2.811c0.287-1.269,0.968-4.52,1.349-8.324c0.322-3.223,0.435-5.198,0.475-6.176H4.771
	c0.04,0.978,0.152,2.953,0.475,6.176C5.627,16.73,6.308,19.981,6.595,21.25z"/>
<path style="fill:#333333;" d="M19.625,22.75h-4.25l-0.225-0.3c-0.034-0.045-0.829-1.116-1.362-2.713
	C13.256,18.14,13.25,17.046,13.25,17v-0.75h8.5V17c0,0.046-0.006,1.14-0.538,2.737c-0.533,1.597-1.328,2.668-1.362,2.713
	L19.625,22.75z M16.149,21.25h2.701c0.237-0.378,0.638-1.088,0.938-1.987c0.203-0.607,0.316-1.126,0.381-1.513h-5.338
	c0.064,0.387,0.178,0.905,0.381,1.513C15.512,20.162,15.912,20.872,16.149,21.25z"/>
<rect x="16.75" y="6.5" style="fill:#333333;" width="1.5" height="10.5"/>
<path style="fill:#333333;" d="M19.041,7.25h-3.082l-1.5-4.5h6.082L19.041,7.25z M17.041,5.75h0.918l0.5-1.5h-1.918L17.041,5.75z"/>
<path style="fill:#333333;" d="M11.25,6.75h-6.5v-4.5h6.5V6.75z M6.25,5.25h3.5v-1.5h-3.5V5.25z"/>
</svg>






