<?xml version="1.0" encoding="iso-8859-1"?>
<svg version="1.1" id="&#x56FE;&#x5C42;_1" xmlns="http://www.w3.org/2000/svg" xmlns:xlink="http://www.w3.org/1999/xlink" x="0px"
	 y="0px" viewBox="0 0 24 24" style="enable-background:new 0 0 24 24;" xml:space="preserve">
<path style="fill:#333333;" d="M16.889,10.793l-3.182-3.182L19.718,1.6l1.237,1.238c1.071,1.072,1.071,2.816,0,3.889L16.889,10.793z
	 M15.828,7.611l1.061,1.061l3.006-3.005c0.487-0.487,0.487-1.28,0-1.768l-0.177-0.177L15.828,7.611z"/>
<path style="fill:#333333;" d="M11.939,17.156l-4.596-4.596l6.717-6.717l4.596,4.596L11.939,17.156z M9.464,12.561l2.475,2.475
	l4.596-4.596l-2.475-2.475L9.464,12.561z"/>
<path style="fill:#333333;" d="M7.697,22.813l-6.01-6.01l6.01-6.011l6.01,6.011L7.697,22.813z M3.808,16.804l3.889,3.889
	l3.889-3.889l-3.889-3.89L3.808,16.804z"/>
</svg>






