<?xml version="1.0" encoding="iso-8859-1"?>
<svg version="1.1" id="&#x56FE;&#x5C42;_1" xmlns="http://www.w3.org/2000/svg" xmlns:xlink="http://www.w3.org/1999/xlink" x="0px"
	 y="0px" viewBox="0 0 24 24" style="enable-background:new 0 0 24 24;" xml:space="preserve">
<path style="fill:#333333;" d="M11.5,16.646L3.139,6.991L3.706,5.75h15.588l0.567,1.241L11.5,16.646z M5.347,7.25l6.152,7.104
	l6.153-7.104H5.347z"/>
<rect x="10.75" y="16" style="fill:#333333;" width="1.5" height="5"/>
<rect x="8.5" y="21.25" style="fill:#333333;" width="6" height="1.5"/>
<rect x="8" y="10.75" style="fill:#333333;" width="7" height="1.5"/>
<path style="fill:#333333;" d="M19,9.75h-1.5v-1.5H19c1.24,0,2.25-1.009,2.25-2.25S20.24,3.75,19,3.75S16.75,4.759,16.75,6
	c0,0.129,0.012,0.256,0.031,0.38l-1.48,0.24C15.268,6.418,15.25,6.211,15.25,6c0-2.068,1.683-3.75,3.75-3.75S22.75,3.932,22.75,6
	S21.067,9.75,19,9.75z"/>
<rect x="6.883" y="7.776" transform="matrix(0.7559 -0.6547 0.6547 0.7559 -5.3616 7.691)" style="fill:#333333;" width="1.5" height="6.519"/>
<rect x="11.946" y="10.359" transform="matrix(0.6545 -0.756 0.756 0.6545 -3.1123 15.4072)" style="fill:#333333;" width="6.713" height="1.501"/>
</svg>






