<?xml version="1.0" encoding="iso-8859-1"?>
<svg version="1.1" id="&#x56FE;&#x5C42;_1" xmlns="http://www.w3.org/2000/svg" xmlns:xlink="http://www.w3.org/1999/xlink" x="0px"
	 y="0px" viewBox="0 0 24 24" style="enable-background:new 0 0 24 24;" xml:space="preserve">
<path style="fill:none;" d="M10,12h12H10z"/>
<rect x="10" y="11.25" style="fill:#333333;" width="12" height="1.5"/>
<path style="fill:none;" d="M10,19h12H10z"/>
<rect x="10" y="18.25" style="fill:#333333;" width="12" height="1.5"/>
<path style="fill:none;" d="M10,5h12H10z"/>
<rect x="10" y="4.25" style="fill:#333333;" width="12" height="1.5"/>
<path style="fill:#333333;" d="M6.75,21.75h-5.5v-5.5h5.5V21.75z M2.75,20.25h2.5v-2.5h-2.5V20.25z"/>
<path style="fill:#333333;" d="M6.75,14.75h-5.5v-5.5h5.5V14.75z M2.75,13.25h2.5v-2.5h-2.5V13.25z"/>
<path style="fill:#333333;" d="M6.75,7.75h-5.5v-5.5h5.5V7.75z M2.75,6.25h2.5v-2.5h-2.5V6.25z"/>
</svg>






