<?xml version="1.0" encoding="iso-8859-1"?>
<svg version="1.1" id="&#x56FE;&#x5C42;_1" xmlns="http://www.w3.org/2000/svg" xmlns:xlink="http://www.w3.org/1999/xlink" x="0px"
	 y="0px" viewBox="0 0 24 24" style="enable-background:new 0 0 24 24;" xml:space="preserve">
<rect x="10" y="3.75" style="fill:#333333;" width="11" height="1.5"/>
<rect x="10" y="8.75" style="fill:#333333;" width="11" height="1.5"/>
<rect x="10" y="13.75" style="fill:#333333;" width="11" height="1.5"/>
<rect x="10" y="18.75" style="fill:#333333;" width="11" height="1.5"/>
<polygon style="fill:#333333;" points="6,20.25 3,20.25 2.357,19.114 4.675,15.25 3,15.25 3,13.75 6,13.75 6.643,14.886 
	4.325,18.75 6,18.75 "/>
<path style="fill:none;" d="M5.5,4.5l-2,0L3.15,8h2.7L5.5,4.5z"/>
<path style="fill:#333333;" d="M5.254,9.575L5.171,8.75H3.829L3.746,9.575L2.254,9.425l0.15-1.5L3.15,8L2.404,7.925L2.821,3.75
	h3.357l0.417,4.175L5.85,8l0.746-0.075l0.15,1.5L5.254,9.575z M3.979,7.25h1.043l-0.2-2H4.179L3.979,7.25z"/>
</svg>






