<?xml version="1.0" encoding="iso-8859-1"?>
<svg version="1.1" id="&#x56FE;&#x5C42;_1" xmlns="http://www.w3.org/2000/svg" xmlns:xlink="http://www.w3.org/1999/xlink" x="0px"
	 y="0px" viewBox="0 0 24 24" style="enable-background:new 0 0 24 24;" xml:space="preserve">
<rect x="10" y="3.75" style="fill:#333333;" width="11" height="1.5"/>
<rect x="10" y="8.75" style="fill:#333333;" width="11" height="1.5"/>
<rect x="10" y="13.75" style="fill:#333333;" width="11" height="1.5"/>
<rect x="10" y="18.75" style="fill:#333333;" width="11" height="1.5"/>
<polygon style="fill:#333333;" points="6,20.25 2.25,20.25 2.25,18.689 5.25,15.689 5.25,15.25 3,15.25 3,13.75 6.75,13.75 
	6.75,16.311 4.311,18.75 6,18.75 "/>
<polygon style="fill:#333333;" points="5.5,10.25 3.5,10.25 3.5,8.75 3.75,8.75 3.75,5.75 2.97,4.97 3.97,3.97 5.25,4.5 5.25,8.75 
	5.5,8.75 "/>
</svg>






