<?xml version="1.0" encoding="iso-8859-1"?>
<svg version="1.1" id="&#x56FE;&#x5C42;_1" xmlns="http://www.w3.org/2000/svg" xmlns:xlink="http://www.w3.org/1999/xlink" x="0px"
	 y="0px" viewBox="0 0 24 24" style="enable-background:new 0 0 24 24;" xml:space="preserve">
<rect x="10" y="4.25" style="fill:#333333;" width="12" height="1.5"/>
<rect x="10" y="11.25" style="fill:#333333;" width="12" height="1.5"/>
<rect x="10" y="18.25" style="fill:#333333;" width="12" height="1.5"/>
<path style="fill:#333333;" d="M4,14.75c-1.517,0-2.75-1.233-2.75-2.75S2.483,9.25,4,9.25S6.75,10.483,6.75,12S5.517,14.75,4,14.75z
	 M4,10.75c-0.689,0-1.25,0.561-1.25,1.25S3.311,13.25,4,13.25S5.25,12.689,5.25,12S4.689,10.75,4,10.75z"/>
<path style="fill:#333333;" d="M4,21.75c-1.517,0-2.75-1.233-2.75-2.75S2.483,16.25,4,16.25S6.75,17.483,6.75,19
	S5.517,21.75,4,21.75z M4,17.75c-0.689,0-1.25,0.561-1.25,1.25S3.311,20.25,4,20.25S5.25,19.689,5.25,19S4.689,17.75,4,17.75z"/>
<polygon style="fill:#333333;" points="3.5,7.561 1.47,5.53 2.53,4.47 3.5,5.439 5.97,2.97 7.03,4.03 "/>
</svg>






