<?xml version="1.0" encoding="iso-8859-1"?>
<svg version="1.1" id="&#x56FE;&#x5C42;_1" xmlns="http://www.w3.org/2000/svg" xmlns:xlink="http://www.w3.org/1999/xlink" x="0px"
	 y="0px" viewBox="0 0 24 24" style="enable-background:new 0 0 24 24;" xml:space="preserve">
<path style="fill:#333333;" d="M17.75,6.75h-9.5v-4.5h9.5V6.75z M9.75,5.25h6.5v-1.5h-6.5V5.25z"/>
<path style="fill:#333333;" d="M19.75,14.25H8.25v-4.5h11.5V14.25z M9.75,12.75h8.5v-1.5h-8.5V12.75z"/>
<path style="fill:#333333;" d="M22.75,21.75H8.25v-4.5h14.5V21.75z M9.75,20.25h11.5v-1.5H9.75V20.25z"/>
<path style="fill:#333333;" d="M4,6.25c-0.965,0-1.75-0.785-1.75-1.75S3.035,2.75,4,2.75S5.75,3.535,5.75,4.5S4.965,6.25,4,6.25z
	 M4,4.25c-0.138,0-0.25,0.112-0.25,0.25c0,0.275,0.5,0.275,0.5,0C4.25,4.362,4.138,4.25,4,4.25z"/>
<path style="fill:#333333;" d="M4,13.75c-0.965,0-1.75-0.785-1.75-1.75S3.035,10.25,4,10.25S5.75,11.035,5.75,12
	S4.965,13.75,4,13.75z M4,11.75c-0.138,0-0.25,0.112-0.25,0.25c0,0.275,0.5,0.275,0.5,0C4.25,11.862,4.138,11.75,4,11.75z"/>
<path style="fill:#333333;" d="M4,21.25c-0.965,0-1.75-0.785-1.75-1.75S3.035,17.75,4,17.75s1.75,0.785,1.75,1.75
	S4.965,21.25,4,21.25z M4,19.25c-0.138,0-0.25,0.112-0.25,0.25c0,0.275,0.5,0.275,0.5,0C4.25,19.362,4.138,19.25,4,19.25z"/>
</svg>






