<?xml version="1.0" encoding="iso-8859-1"?>
<svg version="1.1" id="&#x56FE;&#x5C42;_1" xmlns="http://www.w3.org/2000/svg" xmlns:xlink="http://www.w3.org/1999/xlink" x="0px"
	 y="0px" viewBox="0 0 24 24" style="enable-background:new 0 0 24 24;" xml:space="preserve">
<path style="fill:#333333;" d="M20.5,21.75h-17c-1.241,0-2.25-1.01-2.25-2.25v-15c0-1.241,1.009-2.25,2.25-2.25h17
	c1.24,0,2.25,1.009,2.25,2.25v15C22.75,20.74,21.74,21.75,20.5,21.75z M3.5,3.75c-0.414,0-0.75,0.336-0.75,0.75v15
	c0,0.413,0.336,0.75,0.75,0.75h17c0.413,0,0.75-0.337,0.75-0.75v-15c0-0.414-0.337-0.75-0.75-0.75H3.5z"/>
<rect x="2" y="6.25" style="fill:#333333;" width="20" height="1.5"/>
<rect x="10" y="11.25" style="fill:#333333;" width="8" height="1.5"/>
<rect x="10" y="15.25" style="fill:#333333;" width="8" height="1.5"/>
<rect x="6" y="11.25" style="fill:#333333;" width="1" height="1.5"/>
<rect x="6" y="15.25" style="fill:#333333;" width="1" height="1.5"/>
</svg>






