<?xml version="1.0" encoding="iso-8859-1"?>
<svg version="1.1" id="&#x56FE;&#x5C42;_1" xmlns="http://www.w3.org/2000/svg" xmlns:xlink="http://www.w3.org/1999/xlink" x="0px"
	 y="0px" viewBox="0 0 24 24" style="enable-background:new 0 0 24 24;" xml:space="preserve">
<path style="fill:#333333;" d="M4,21.75c-1.517,0-2.75-1.233-2.75-2.75S2.483,16.25,4,16.25S6.75,17.483,6.75,19
	S5.517,21.75,4,21.75z M4,17.75c-0.689,0-1.25,0.561-1.25,1.25S3.311,20.25,4,20.25S5.25,19.689,5.25,19S4.689,17.75,4,17.75z"/>
<path style="fill:#333333;" d="M4,6.75C3.035,6.75,2.25,5.965,2.25,5S3.035,3.25,4,3.25S5.75,4.035,5.75,5S4.965,6.75,4,6.75z
	 M4,4.75C3.862,4.75,3.75,4.862,3.75,5c0,0.275,0.5,0.275,0.5,0C4.25,4.862,4.138,4.75,4,4.75z"/>
<path style="fill:#333333;" d="M4,13.75c-0.965,0-1.75-0.785-1.75-1.75S3.035,10.25,4,10.25S5.75,11.035,5.75,12
	S4.965,13.75,4,13.75z M4,11.75c-0.138,0-0.25,0.112-0.25,0.25c0,0.275,0.5,0.275,0.5,0C4.25,11.862,4.138,11.75,4,11.75z"/>
<rect x="10" y="11.25" style="fill:#333333;" width="12" height="1.5"/>
<rect x="10" y="18.25" style="fill:#333333;" width="12" height="1.5"/>
<rect x="10" y="4.25" style="fill:#333333;" width="12" height="1.5"/>
</svg>






