<?xml version="1.0" encoding="iso-8859-1"?>
<svg version="1.1" id="&#x56FE;&#x5C42;_1" xmlns="http://www.w3.org/2000/svg" xmlns:xlink="http://www.w3.org/1999/xlink" x="0px"
	 y="0px" viewBox="0 0 24 24" style="enable-background:new 0 0 24 24;" xml:space="preserve">
<path style="fill:#333333;" d="M4,7.75C2.483,7.75,1.25,6.517,1.25,5S2.483,2.25,4,2.25S6.75,3.483,6.75,5S5.517,7.75,4,7.75z
	 M4,3.75C3.311,3.75,2.75,4.311,2.75,5S3.311,6.25,4,6.25S5.25,5.689,5.25,5S4.689,3.75,4,3.75z"/>
<path style="fill:#333333;" d="M4,13.75c-0.965,0-1.75-0.785-1.75-1.75S3.035,10.25,4,10.25S5.75,11.035,5.75,12
	S4.965,13.75,4,13.75z M4,11.75c-0.138,0-0.25,0.112-0.25,0.25c0,0.275,0.5,0.275,0.5,0C4.25,11.862,4.138,11.75,4,11.75z"/>
<path style="fill:#333333;" d="M4,20.75c-0.965,0-1.75-0.785-1.75-1.75S3.035,17.25,4,17.25S5.75,18.035,5.75,19
	S4.965,20.75,4,20.75z M4,18.75c-0.138,0-0.25,0.112-0.25,0.25c0,0.275,0.5,0.275,0.5,0C4.25,18.862,4.138,18.75,4,18.75z"/>
<rect x="10" y="11.25" style="fill:#333333;" width="12" height="1.5"/>
<rect x="10" y="18.25" style="fill:#333333;" width="12" height="1.5"/>
<rect x="10" y="4.25" style="fill:#333333;" width="12" height="1.5"/>
</svg>






