<?xml version="1.0" encoding="iso-8859-1"?>
<svg version="1.1" id="&#x56FE;&#x5C42;_1" xmlns="http://www.w3.org/2000/svg" xmlns:xlink="http://www.w3.org/1999/xlink" x="0px"
	 y="0px" viewBox="0 0 24 24" style="enable-background:new 0 0 24 24;" xml:space="preserve">
<path style="fill:#333333;" d="M12,22.75C6.072,22.75,1.25,17.928,1.25,12h1.5c0,5.101,4.149,9.25,9.25,9.25s9.25-4.149,9.25-9.25
	S17.101,2.75,12,2.75v-1.5c5.928,0,10.75,4.822,10.75,10.75S17.928,22.75,12,22.75z"/>
<path style="fill:#333333;" d="M12,18.75c-3.722,0-6.75-3.028-6.75-6.75c0-3.722,3.028-6.75,6.75-6.75c3.722,0,6.75,3.028,6.75,6.75
	h-1.5c0-2.895-2.355-5.25-5.25-5.25c-2.895,0-5.25,2.355-5.25,5.25c0,2.895,2.355,5.25,5.25,5.25V18.75z"/>
</svg>






