<?xml version="1.0" encoding="iso-8859-1"?>
<svg version="1.1" id="&#x56FE;&#x5C42;_1" xmlns="http://www.w3.org/2000/svg" xmlns:xlink="http://www.w3.org/1999/xlink" x="0px"
	 y="0px" viewBox="0 0 24 24" style="enable-background:new 0 0 24 24;" xml:space="preserve">
<path style="fill:#333333;" d="M12,22.961l-0.469-0.375C11.214,22.331,3.75,16.282,3.75,9.5c0-4.549,3.701-8.25,8.25-8.25
	s8.25,3.701,8.25,8.25c0,6.782-7.464,12.831-7.781,13.086L12,22.961z M12,2.75c-3.722,0-6.75,3.028-6.75,6.75
	c0,5.143,5.149,10.098,6.75,11.514c1.601-1.416,6.75-6.371,6.75-11.514C18.75,5.778,15.722,2.75,12,2.75z"/>
<path style="fill:#333333;" d="M12,13.25c-2.068,0-3.75-1.682-3.75-3.75S9.932,5.75,12,5.75c2.067,0,3.75,1.682,3.75,3.75
	S14.067,13.25,12,13.25z M12,7.25c-1.241,0-2.25,1.009-2.25,2.25s1.009,2.25,2.25,2.25c1.24,0,2.25-1.009,2.25-2.25
	S13.24,7.25,12,7.25z"/>
</svg>






