<?xml version="1.0" encoding="iso-8859-1"?>
<svg version="1.1" id="&#x56FE;&#x5C42;_1" xmlns="http://www.w3.org/2000/svg" xmlns:xlink="http://www.w3.org/1999/xlink" x="0px"
	 y="0px" viewBox="0 0 24 24" style="enable-background:new 0 0 24 24;" xml:space="preserve">
<path style="fill:#333333;" d="M12,10.75c-2.619,0-4.75-2.131-4.75-4.75S9.381,1.25,12,1.25S16.75,3.381,16.75,6
	S14.619,10.75,12,10.75z M12,2.75c-1.792,0-3.25,1.458-3.25,3.25S10.208,9.25,12,9.25S15.25,7.792,15.25,6S13.792,2.75,12,2.75z"/>
<rect x="11.25" y="10" style="fill:#333333;" width="1.5" height="9"/>
<polygon style="fill:#333333;" points="22,22.75 2,22.75 1.376,21.584 5.599,15.25 8,15.25 8,16.75 6.401,16.75 3.401,21.25 
	20.599,21.25 17.599,16.75 16,16.75 16,15.25 18.401,15.25 22.624,21.584 "/>
</svg>






