<?xml version="1.0" encoding="iso-8859-1"?>
<svg version="1.1" id="&#x56FE;&#x5C42;_1" xmlns="http://www.w3.org/2000/svg" xmlns:xlink="http://www.w3.org/1999/xlink" x="0px"
	 y="0px" viewBox="0 0 24 24" style="enable-background:new 0 0 24 24;" xml:space="preserve">
<path style="fill:#333333;" d="M12,22.25c-5.178,0-10.75-1.174-10.75-3.75c0-0.821,0.601-1.98,3.463-2.84l0.431,1.438
	C3.4,17.621,2.75,18.235,2.75,18.5c0,0.673,3.147,2.25,9.25,2.25c6.103,0,9.25-1.577,9.25-2.25c0-0.265-0.65-0.879-2.395-1.402
	l0.432-1.438c2.862,0.859,3.463,2.019,3.463,2.84C22.75,21.076,17.178,22.25,12,22.25z"/>
<path style="fill:#333333;" d="M12,18.396l-0.41-0.268c-0.279-0.183-6.84-4.53-6.84-9.787c0-3.91,3.252-7.091,7.25-7.091
	c3.998,0,7.25,3.181,7.25,7.091c0,5.257-6.561,9.604-6.84,9.787L12,18.396z M12,2.75c-3.17,0-5.75,2.508-5.75,5.591
	c0,3.771,4.371,7.243,5.75,8.243c1.377-1.002,5.75-4.48,5.75-8.243C17.75,5.258,15.171,2.75,12,2.75z"/>
<path style="fill:#333333;" d="M12,11.75c-1.792,0-3.25-1.458-3.25-3.25S10.208,5.25,12,5.25s3.25,1.458,3.25,3.25
	S13.792,11.75,12,11.75z M12,6.75c-0.965,0-1.75,0.785-1.75,1.75s0.785,1.75,1.75,1.75s1.75-0.785,1.75-1.75S12.965,6.75,12,6.75z"
	/>
</svg>






