<?xml version="1.0" encoding="iso-8859-1"?>
<svg version="1.1" id="&#x56FE;&#x5C42;_1" xmlns="http://www.w3.org/2000/svg" xmlns:xlink="http://www.w3.org/1999/xlink" x="0px"
	 y="0px" viewBox="0 0 24 24" style="enable-background:new 0 0 24 24;" xml:space="preserve">
<path style="fill:#333333;" d="M12,22.75c-4.273,0-7.75-3.477-7.75-7.75S7.727,7.25,12,7.25s7.75,3.477,7.75,7.75
	S16.273,22.75,12,22.75z M12,8.75c-3.446,0-6.25,2.804-6.25,6.25s2.804,6.25,6.25,6.25s6.25-2.804,6.25-6.25S15.446,8.75,12,8.75z"
	/>
<path style="fill:#333333;" d="M16.25,9h-1.5V5.5c0-1.517-1.233-2.75-2.75-2.75S9.25,3.983,9.25,5.5V9h-1.5V5.5
	c0-2.343,1.907-4.25,4.25-4.25c2.344,0,4.25,1.907,4.25,4.25V9z"/>
<rect x="11.25" y="13" style="fill:#333333;" width="1.5" height="4"/>
</svg>






