<?xml version="1.0" encoding="iso-8859-1"?>
<svg version="1.1" id="&#x56FE;&#x5C42;_1" xmlns="http://www.w3.org/2000/svg" xmlns:xlink="http://www.w3.org/1999/xlink" x="0px"
	 y="0px" viewBox="0 0 24 24" style="enable-background:new 0 0 24 24;" xml:space="preserve">
<path style="fill:#333333;" d="M22,13c0-0.552-0.448-1-1-1s-1,0.448-1,1H22z M12,4c0.552,0,1-0.448,1-1s-0.448-1-1-1V4z M19.5,20
	h-15v2h15V20z M4,19.5v-15H2v15H4z M20,13v6.5h2V13H20z M4.5,4H12V2H4.5V4z M4.5,20C4.224,20,4,19.776,4,19.5H2
	C2,20.881,3.119,22,4.5,22V20z M19.5,22c1.381,0,2.5-1.119,2.5-2.5h-2c0,0.276-0.224,0.5-0.5,0.5V22z M4,4.5C4,4.224,4.224,4,4.5,4
	V2C3.119,2,2,3.119,2,4.5H4z"/>
<path style="fill:#333333;" d="M15.512,18.569l-6.327-5.423c-0.096-0.082-0.238-0.079-0.331,0.005l-5.347,4.901l-1.014-1.105
	l5.347-4.901c0.653-0.598,1.65-0.613,2.321-0.038l6.327,5.423L15.512,18.569z"/>
<path style="fill:#333333;" d="M20.55,16.1l-3.306-2.479c-0.1-0.075-0.241-0.062-0.327,0.023L14.53,16.03L13.47,14.97l2.387-2.387
	c0.612-0.611,1.597-0.682,2.288-0.162L21.45,14.9L20.55,16.1z"/>
<path style="fill:#333333;" d="M19.5,10.75h-3c-1.24,0-2.25-1.009-2.25-2.25v-1c0-1.241,1.01-2.25,2.25-2.25h3
	c1.24,0,2.25,1.009,2.25,2.25v1C21.75,9.741,20.74,10.75,19.5,10.75z M16.5,6.75c-0.413,0-0.75,0.336-0.75,0.75v1
	c0,0.414,0.337,0.75,0.75,0.75h3c0.413,0,0.75-0.336,0.75-0.75v-1c0-0.414-0.337-0.75-0.75-0.75H16.5z"/>
<path style="fill:none;" d="M18,3c0.828,0,1.5,0.672,1.5,1.5V6h-3V4.5C16.5,3.672,17.172,3,18,3z"/>
<path style="fill:#333333;" d="M19.5,6v1c0.552,0,1-0.448,1-1H19.5z M16.5,6h-1c0,0.552,0.448,1,1,1V6z M18.5,4.5V6h2V4.5H18.5z
	 M19.5,5h-3v2h3V5z M17.5,6V4.5h-2V6H17.5z M17.5,4.5C17.5,4.224,17.724,4,18,4V2c-1.381,0-2.5,1.119-2.5,2.5H17.5z M20.5,4.5
	C20.5,3.119,19.381,2,18,2v2c0.276,0,0.5,0.224,0.5,0.5H20.5z"/>
</svg>






