<?xml version="1.0" encoding="iso-8859-1"?>
<svg version="1.1" id="&#x56FE;&#x5C42;_1" xmlns="http://www.w3.org/2000/svg" xmlns:xlink="http://www.w3.org/1999/xlink" x="0px"
	 y="0px" viewBox="0 0 24 24" style="enable-background:new 0 0 24 24;" xml:space="preserve">
<path style="fill:#333333;" d="M20.75,17.25H3.25V6c0-1.241,1.009-2.25,2.25-2.25H12v1.5H5.5C5.086,5.25,4.75,5.586,4.75,6v9.75
	h14.5V14h1.5V17.25z"/>
<path style="fill:#333333;" d="M19,21.25H5c-2.068,0-3.75-1.683-3.75-3.75v-1.75h21.5v1.75C22.75,19.567,21.067,21.25,19,21.25z
	 M2.75,17.25v0.25c0,1.24,1.009,2.25,2.25,2.25h14c1.24,0,2.25-1.01,2.25-2.25v-0.25H2.75z"/>
<path style="fill:#333333;" d="M19.5,11.25h-3c-1.24,0-2.25-1.009-2.25-2.25V8c0-1.241,1.01-2.25,2.25-2.25h3
	c1.24,0,2.25,1.009,2.25,2.25v1C21.75,10.241,20.74,11.25,19.5,11.25z M16.5,7.25c-0.413,0-0.75,0.336-0.75,0.75v1
	c0,0.414,0.337,0.75,0.75,0.75h3c0.413,0,0.75-0.336,0.75-0.75V8c0-0.414-0.337-0.75-0.75-0.75H16.5z"/>
<path style="fill:#333333;" d="M20.25,7.25h-4.5V5c0-1.241,1.01-2.25,2.25-2.25S20.25,3.759,20.25,5V7.25z M17.25,5.75h1.5V5
	c0-0.414-0.337-0.75-0.75-0.75S17.25,4.586,17.25,5V5.75z"/>
</svg>






