<?xml version="1.0" encoding="iso-8859-1"?>
<svg version="1.1" id="&#x56FE;&#x5C42;_1" xmlns="http://www.w3.org/2000/svg" xmlns:xlink="http://www.w3.org/1999/xlink" x="0px"
	 y="0px" viewBox="0 0 24 24" style="enable-background:new 0 0 24 24;" xml:space="preserve">
<path style="fill:#333333;" d="M13,19.75c-0.136,0-0.272-0.003-0.404-0.013c-2.167-0.094-4.23-1.001-5.782-2.553
	c-0.836-0.835-1.483-1.81-1.923-2.896c-0.425-1.045-0.641-2.152-0.641-3.29c0-1.137,0.216-2.245,0.641-3.292
	c0.439-1.084,1.086-2.059,1.922-2.895C7.65,3.977,8.625,3.33,9.708,2.891c2.095-0.849,4.491-0.85,6.583,0
	c1.085,0.439,2.059,1.086,2.895,1.922c0.974,0.971,1.686,2.122,2.117,3.42c0.41,1.235,0.541,2.573,0.378,3.869
	c-0.075,0.58-0.204,1.145-0.384,1.68c-0.575,1.698-1.335,2.806-2.711,3.95v0.001C17.021,19.034,15.037,19.75,13,19.75z M13,3.75
	c-0.942,0-1.86,0.179-2.728,0.531C9.375,4.645,8.568,5.18,7.874,5.874c-0.693,0.693-1.229,1.5-1.593,2.398
	C5.929,9.139,5.75,10.056,5.75,10.999s0.179,1.86,0.531,2.727c0.364,0.899,0.9,1.706,1.593,2.398
	c1.286,1.285,2.996,2.037,4.812,2.116c0.119,0.009,0.217,0.01,0.313,0.01c1.688,0,3.332-0.594,4.628-1.671
	c1.156-0.962,1.766-1.85,2.249-3.276c0.147-0.44,0.255-0.909,0.316-1.39c0.136-1.073,0.027-2.183-0.313-3.206
	c-0.356-1.075-0.946-2.027-1.753-2.833c-0.694-0.693-1.501-1.229-2.398-1.593C14.86,3.929,13.942,3.75,13,3.75z"/>
<path style="fill:#333333;" d="M11.951,16.75c-0.148,0-0.295-0.005-0.448-0.015c-1.258-0.086-2.872-0.323-4.221-1.399
	c-1.177-0.938-2.041-2.186-2.497-3.607l1.429-0.458c0.365,1.139,1.058,2.139,2.003,2.892c0.811,0.647,1.824,0.969,3.386,1.076
	c1.299,0.086,2.52-0.32,3.494-1.168c0.97-0.844,1.554-2.013,1.645-3.292c0.069-1.006-0.256-1.978-0.917-2.734
	c-0.662-0.761-1.579-1.218-2.583-1.288c-1.597-0.114-3.028,1.111-3.142,2.729c-0.042,0.606,0.154,1.192,0.555,1.652
	c0.4,0.46,0.954,0.736,1.56,0.779c0.466,0.036,0.917-0.118,1.271-0.424c0.352-0.306,0.563-0.73,0.596-1.195
	c0.025-0.353-0.089-0.694-0.322-0.962c-0.23-0.267-0.553-0.427-0.904-0.451c-0.543-0.037-1.015,0.371-1.053,0.913l-1.496-0.105
	c0.096-1.367,1.277-2.408,2.653-2.303c0.752,0.051,1.439,0.394,1.935,0.965c0.496,0.572,0.739,1.3,0.685,2.051
	c-0.06,0.862-0.453,1.651-1.108,2.222c-0.655,0.568-1.491,0.851-2.358,0.787c-1.005-0.07-1.924-0.528-2.587-1.29
	c-0.664-0.763-0.99-1.736-0.919-2.742c0.171-2.442,2.278-4.293,4.742-4.12c1.403,0.097,2.686,0.736,3.609,1.799
	c0.924,1.059,1.379,2.417,1.282,3.824c-0.118,1.679-0.884,3.212-2.156,4.319C14.936,16.2,13.469,16.75,11.951,16.75z"/>
<rect x="2.084" y="18.371" transform="matrix(0.6863 -0.7273 0.7273 0.6863 -12.3387 9.6347)" style="fill:#333333;" width="5.831" height="1.5"/>
</svg>






