<?xml version="1.0" encoding="iso-8859-1"?>
<svg version="1.1" id="&#x56FE;&#x5C42;_1" xmlns="http://www.w3.org/2000/svg" xmlns:xlink="http://www.w3.org/1999/xlink" x="0px"
	 y="0px" viewBox="0 0 24 24" style="enable-background:new 0 0 24 24;" xml:space="preserve">
<path style="fill:#333333;" d="M16.25,22.75h-8.5v-5h8.5V22.75z M9.25,21.25h5.5v-2h-5.5V21.25z"/>
<path style="fill:#333333;" d="M15.994,19.25H8.005l-0.195-0.454c-0.063-0.147-1.549-3.655-2.056-8.213
	C5.256,6.093,5.25,2.041,5.25,2V1.25h13.5V2c0,0.041-0.006,4.093-0.505,8.583c-0.506,4.558-1.993,8.065-2.056,8.213L15.994,19.25z
	 M9.01,17.75h5.98c0.405-1.072,1.386-3.923,1.765-7.333c0.363-3.275,0.46-6.308,0.486-7.667H6.759
	c0.026,1.36,0.123,4.395,0.486,7.667C7.625,13.827,8.604,16.678,9.01,17.75z"/>
<path style="fill:#333333;" d="M11.887,14.75c-0.942,0-1.858-0.621-2.334-1.583c-0.461-0.93-0.396-1.931,0.172-2.677l0,0
	c0.664-0.872,1.189-2.115,1.472-2.783l1.294-0.154c0.549,0.742,1.724,2.577,2.11,3.594c0.284,0.748,0.161,1.591-0.338,2.316
	C13.716,14.257,12.806,14.75,11.887,14.75z M12.021,9.537c-0.296,0.613-0.668,1.29-1.104,1.861v0
	c-0.319,0.419-0.097,0.95-0.021,1.102c0.219,0.441,0.626,0.749,0.991,0.749c0.432,0,0.87-0.244,1.14-0.638
	c0.215-0.312,0.277-0.651,0.171-0.931C13.003,11.167,12.503,10.296,12.021,9.537z"/>
<rect x="6.5" y="4.25" style="fill:#333333;" width="11" height="1.5"/>
</svg>






