<?xml version="1.0" encoding="iso-8859-1"?>
<svg version="1.1" id="&#x56FE;&#x5C42;_1" xmlns="http://www.w3.org/2000/svg" xmlns:xlink="http://www.w3.org/1999/xlink" x="0px"
	 y="0px" viewBox="0 0 24 24" style="enable-background:new 0 0 24 24;" xml:space="preserve">
<path style="fill:#333333;" d="M13.755,8.088c-0.174-1.481-1.204-3.097-1.855-3.991c-1.352,1.438-1.612,3.525-1.652,3.971
	L8.753,7.932c0.056-0.612,0.454-3.753,2.793-5.529l0.575-0.436l0.458,0.556c0.556,0.675,2.392,3.059,2.666,5.389L13.755,8.088z"/>
<path style="fill:#333333;" d="M12.55,21.877l-0.801-0.138c-2.46-0.423-5.886-2.052-8.121-5.355
	c-2.37-3.503-2.976-8.059-1.802-13.541l0.159-0.744l0.742,0.17c3.932,0.899,11.06,5.986,9.896,18.798L12.55,21.877z M3.136,3.946
	C2.268,8.659,2.85,12.558,4.87,15.543c1.735,2.564,4.271,3.982,6.324,4.538C11.844,9.701,6.609,5.155,3.136,3.946z"/>
<path style="fill:#333333;" d="M11.451,21.877l-0.074-0.81C10.213,8.255,17.342,3.168,21.273,2.269l0.741-0.17l0.159,0.744
	c1.174,5.482,0.567,10.038-1.802,13.541c-2.235,3.304-5.661,4.933-8.121,5.355L11.451,21.877z M20.864,3.946
	c-3.473,1.208-8.707,5.756-8.059,16.135c2.053-0.556,4.589-1.974,6.324-4.538C21.149,12.558,21.732,8.659,20.864,3.946z"/>
</svg>






