<?xml version="1.0" encoding="iso-8859-1"?>
<svg version="1.1" id="&#x56FE;&#x5C42;_1" xmlns="http://www.w3.org/2000/svg" xmlns:xlink="http://www.w3.org/1999/xlink" x="0px"
	 y="0px" viewBox="0 0 24 24" style="enable-background:new 0 0 24 24;" xml:space="preserve">
<path style="fill:#333333;" d="M12,22.75C6.072,22.75,1.25,17.928,1.25,12S6.072,1.25,12,1.25S22.75,6.072,22.75,12
	S17.928,22.75,12,22.75z M12,2.75c-5.101,0-9.25,4.149-9.25,9.25s4.149,9.25,9.25,9.25s9.25-4.149,9.25-9.25S17.101,2.75,12,2.75z"
	/>
<path style="fill:#333333;" d="M14.832,17.841C14.798,17.775,13.983,16.25,12,16.25c-1.983,0-2.798,1.525-2.832,1.591l-1.339-0.676
	C7.878,17.066,9.07,14.75,12,14.75s4.121,2.316,4.171,2.415L14.832,17.841z"/>
<rect x="15" y="6.982" transform="matrix(0.1414 -0.9899 0.9899 0.1414 4.8606 23.1043)" style="fill:#333333;" width="1.501" height="3.536"/>
<rect x="15.75" y="9" style="fill:#333333;" width="1.5" height="4.5"/>
<rect x="6.482" y="8" transform="matrix(0.99 -0.1412 0.1412 0.99 -1.1531 1.2529)" style="fill:#333333;" width="3.536" height="1.5"/>
<rect x="6.75" y="9" style="fill:#333333;" width="1.5" height="4.5"/>
</svg>






