<?xml version="1.0" encoding="iso-8859-1"?>
<svg version="1.1" id="&#x56FE;&#x5C42;_1" xmlns="http://www.w3.org/2000/svg" xmlns:xlink="http://www.w3.org/1999/xlink" x="0px"
	 y="0px" viewBox="0 0 24 24" style="enable-background:new 0 0 24 24;" xml:space="preserve">
<path style="fill:#333333;" d="M12,21.453l-0.236-0.078C7.99,20.121,1.25,14.913,1.25,9c0-3.446,2.804-6.25,6.25-6.25
	c1.708,0,3.331,0.702,4.5,1.913c1.169-1.211,2.792-1.913,4.5-1.913c3.446,0,6.25,2.804,6.25,6.25c0,5.913-6.74,11.121-10.514,12.375
	L12,21.453z M7.5,4.25C4.881,4.25,2.75,6.381,2.75,9c0,5.001,5.891,9.63,9.25,10.868C15.359,18.63,21.25,14.001,21.25,9
	c0-2.619-2.131-4.75-4.75-4.75c-1.544,0-2.997,0.754-3.887,2.019L12,7.14l-0.613-0.871C10.497,5.004,9.044,4.25,7.5,4.25z"/>
<rect x="9" y="11.25" style="fill:#333333;" width="6" height="1.5"/>
<rect x="11.25" y="9" style="fill:#333333;" width="1.5" height="6"/>
</svg>






