<?xml version="1.0" encoding="iso-8859-1"?>
<svg version="1.1" id="&#x56FE;&#x5C42;_1" xmlns="http://www.w3.org/2000/svg" xmlns:xlink="http://www.w3.org/1999/xlink" x="0px"
	 y="0px" viewBox="0 0 24 24" style="enable-background:new 0 0 24 24;" xml:space="preserve">
<path style="fill:#333333;" d="M3.75,11.5h-1.5c0-1.097,1.21-3.402,4.125-4.02c2.339-0.495,4.516-2.616,4.987-3.376l1.275,0.791
	c-0.674,1.086-3.19,3.468-5.952,4.053C4.516,9.407,3.75,11.107,3.75,11.5z"/>
<path style="fill:#333333;" d="M21.75,11.506l-1.5-0.012c0.003-0.391-0.755-2.084-2.936-2.546c-2.762-0.585-5.278-2.967-5.952-4.053
	l1.275-0.791c0.472,0.76,2.647,2.881,4.987,3.376C20.521,8.094,21.758,10.443,21.75,11.506z"/>
<circle style="fill:#333333;" cx="12" cy="4.5" r="2"/>
<rect x="11.25" y="4.5" style="fill:#333333;" width="1.5" height="7"/>
<rect x="2.5" y="15.75" style="fill:#333333;" width="3" height="1.5"/>
<rect x="2.5" y="19.75" style="fill:#333333;" width="3" height="1.5"/>
<rect x="18.5" y="15.75" style="fill:#333333;" width="3" height="1.5"/>
<rect x="18.5" y="19.75" style="fill:#333333;" width="3" height="1.5"/>
<rect x="10.5" y="15.75" style="fill:#333333;" width="3" height="1.5"/>
<rect x="10.5" y="19.75" style="fill:#333333;" width="3" height="1.5"/>
</svg>






