<?xml version="1.0" encoding="iso-8859-1"?>
<svg version="1.1" id="&#x56FE;&#x5C42;_1" xmlns="http://www.w3.org/2000/svg" xmlns:xlink="http://www.w3.org/1999/xlink" x="0px"
	 y="0px" viewBox="0 0 24 24" style="enable-background:new 0 0 24 24;" xml:space="preserve">
<path style="fill:#333333;" d="M21,20.75H3c-0.965,0-1.75-0.785-1.75-1.75V5c0-0.965,0.785-1.75,1.75-1.75h18
	c0.965,0,1.75,0.785,1.75,1.75v14C22.75,19.965,21.965,20.75,21,20.75z M3,4.75C2.862,4.75,2.75,4.862,2.75,5v14
	c0,0.138,0.112,0.25,0.25,0.25h18c0.138,0,0.25-0.112,0.25-0.25V5c0-0.138-0.112-0.25-0.25-0.25H3z"/>
<path style="fill:#333333;" d="M13.252,20.05l-0.454-6.8H9.85l-0.092-0.644c-0.527-3.69,1.965-8.729,2.072-8.942l1.342,0.67
	c-0.022,0.045-2.093,4.235-1.984,7.415h3.014l0.547,8.2L13.252,20.05z"/>
<rect x="11" y="19.25" style="fill:#333333;" width="6" height="1.5"/>
<rect x="9" y="3.25" style="fill:#333333;" width="6" height="1.5"/>
<rect x="16.25" y="8" style="fill:#333333;" width="1.5" height="1"/>
<rect x="6.25" y="8" style="fill:#333333;" width="1.5" height="1"/>
<path style="fill:#333333;" d="M12,16.75c-3.604,0-5.843-1.573-5.937-1.641l0.871-1.221C6.954,13.902,8.902,15.25,12,15.25
	c3.098,0,5.047-1.348,5.065-1.361l0.871,1.222C17.843,15.177,15.604,16.75,12,16.75z"/>
</svg>






