<?xml version="1.0" encoding="iso-8859-1"?>
<svg version="1.1" id="&#x56FE;&#x5C42;_1" xmlns="http://www.w3.org/2000/svg" xmlns:xlink="http://www.w3.org/1999/xlink" x="0px"
	 y="0px" viewBox="0 0 24 24" style="enable-background:new 0 0 24 24;" xml:space="preserve">
<path style="fill:#333333;" d="M12,22.75c-2.21,0-4.333-0.666-6.139-1.925c-1.052-0.733-1.956-1.637-2.687-2.687l0,0
	C1.916,16.332,1.25,14.209,1.25,12C1.25,6.072,6.072,1.25,12,1.25S22.75,6.072,22.75,12S17.928,22.75,12,22.75z M7.485,20.075
	C8.858,20.847,10.402,21.25,12,21.25c5.101,0,9.25-4.149,9.25-9.25S17.101,2.75,12,2.75S2.75,6.899,2.75,12
	c0,1.597,0.404,3.141,1.174,4.515L10,10.439L13.561,14l-2.53,2.53L10.5,16l0.53,0.53L7.485,20.075z M4.779,17.781
	c0.425,0.531,0.907,1.013,1.439,1.439L9.439,16L8,14.561L4.779,17.781z M3.79,17.71l-0.037,0.026L3.79,17.71z M9.061,13.5
	l1.439,1.439L11.439,14L10,12.561L9.061,13.5z"/>
<polygon style="fill:#333333;" points="10.25,8 8.75,8 8.75,7.75 8.5,7.75 8.5,6.25 8.75,6.25 8.75,6 10.25,6 10.25,6.25 10.5,6.25 
	10.5,7.75 10.25,7.75 "/>
<polygon style="fill:#333333;" points="16.25,10 14.75,10 14.75,9.25 14,9.25 14,7.75 14.75,7.75 14.75,7 16.25,7 16.25,7.75 
	17,7.75 17,9.25 16.25,9.25 "/>
<polygon style="fill:#333333;" points="17.75,15.5 16.25,15.5 16.25,15.25 16,15.25 16,13.75 16.25,13.75 16.25,13.5 17.75,13.5 
	17.75,13.75 18,13.75 18,15.25 17.75,15.25 "/>
</svg>






