<?xml version="1.0" encoding="iso-8859-1"?>
<svg version="1.1" id="&#x56FE;&#x5C42;_1" xmlns="http://www.w3.org/2000/svg" xmlns:xlink="http://www.w3.org/1999/xlink" x="0px"
	 y="0px" viewBox="0 0 24 24" style="enable-background:new 0 0 24 24;" xml:space="preserve">
<path style="fill:#333333;" d="M15.75,16h-1.5v-3h1.5V16z M19.42,14.48l-2.122-2.121l1.061-1.061l2.122,2.122L19.42,14.48z
	 M10.581,14.48L9.52,13.42l2.122-2.122l1.061,1.061L10.581,14.48z M22,9.75h-3v-1.5h3V9.75z M11,9.75H8v-1.5h3V9.75z M18.358,6.702
	l-1.061-1.061L19.42,3.52l1.061,1.061L18.358,6.702z M11.642,6.702L9.52,4.581l1.061-1.061l2.122,2.121L11.642,6.702z M15.75,5h-1.5
	V2h1.5V5z"/>
<rect x="0.283" y="14.467" transform="matrix(0.7071 -0.7071 0.7071 0.7071 -8.1879 10.6672)" style="fill:#333333;" width="17" height="1.5"/>
</svg>






