<?xml version="1.0" encoding="iso-8859-1"?>
<svg version="1.1" id="&#x56FE;&#x5C42;_1" xmlns="http://www.w3.org/2000/svg" xmlns:xlink="http://www.w3.org/1999/xlink" x="0px"
	 y="0px" viewBox="0 0 24 24" style="enable-background:new 0 0 24 24;" xml:space="preserve">
<path style="fill:#333333;" d="M12,22.25c-7.565,0-10.25-2.828-10.25-5.25c0-2.218,2.204-3.379,3.497-3.979
	c-0.015-1.057-0.075-2.77-0.239-3.915C4.868,8.131,4.732,7.489,4.588,6.809C4.479,6.294,4.37,5.779,4.26,5.124L5.74,4.876
	c0.105,0.63,0.21,1.126,0.315,1.621c0.143,0.674,0.291,1.372,0.438,2.396C6.696,10.318,6.75,12.529,6.75,13.5v0.479l-0.607,0.28
	C5.132,14.721,3.25,15.58,3.25,17c0,1.806,2.738,3.75,8.75,3.75s8.75-1.944,8.75-3.75c0-1.138-2.052-2.385-3.046-2.811l-0.454-0.195
	V13.5c0-0.114,0.003-2.824,0.258-4.606c0.146-1.025,0.294-1.722,0.438-2.396c0.104-0.495,0.21-0.991,0.314-1.621l1.48,0.247
	c-0.109,0.655-0.219,1.17-0.328,1.685c-0.145,0.68-0.28,1.322-0.42,2.297c-0.179,1.251-0.226,3.068-0.238,3.919
	c1.07,0.535,3.496,1.97,3.496,3.975C22.25,19.422,19.565,22.25,12,22.25z"/>
<path style="fill:#333333;" d="M11.75,18.25v-1.5c5.5,0,5.5-1.802,5.5-3.25h1.5C18.75,15.967,17.902,18.25,11.75,18.25z"/>
<path style="fill:#333333;" d="M12,8.25C8.149,8.25,4.25,7.134,4.25,5S8.149,1.75,12,1.75c3.852,0,7.75,1.116,7.75,3.25
	S15.852,8.25,12,8.25z M12,3.25C7.876,3.25,5.75,4.477,5.75,5S7.876,6.75,12,6.75c4.124,0,6.25-1.227,6.25-1.75S16.124,3.25,12,3.25
	z"/>
</svg>






