<?xml version="1.0" encoding="iso-8859-1"?>
<svg version="1.1" id="&#x56FE;&#x5C42;_1" xmlns="http://www.w3.org/2000/svg" xmlns:xlink="http://www.w3.org/1999/xlink" x="0px"
	 y="0px" viewBox="0 0 24 24" style="enable-background:new 0 0 24 24;" xml:space="preserve">
<path style="fill:#333333;" d="M21,21.75H3c-0.965,0-1.75-0.826-1.75-1.841V9l1.159-0.629L12,14.605l9.591-6.234L22.75,9v10.909
	C22.75,20.924,21.965,21.75,21,21.75z M2.75,10.382v9.527c0,0.182,0.117,0.341,0.25,0.341h18c0.136,0,0.25-0.156,0.25-0.341v-9.527
	L12,16.395L2.75,10.382z"/>
<polygon style="fill:#333333;" points="21.574,9.51 12,2.911 2.426,9.51 1.574,8.274 12,1.089 22.426,8.274 "/>
</svg>






