<?xml version="1.0" encoding="iso-8859-1"?>
<svg version="1.1" id="&#x56FE;&#x5C42;_1" xmlns="http://www.w3.org/2000/svg" xmlns:xlink="http://www.w3.org/1999/xlink" x="0px"
	 y="0px" viewBox="0 0 24 24" style="enable-background:new 0 0 24 24;" xml:space="preserve">
<polygon style="fill:#333333;" points="22.75,21.75 1.25,21.75 1.25,8.25 5,8.25 5,9.75 2.75,9.75 2.75,20.25 21.25,20.25 
	21.25,9.75 19,9.75 19,8.25 22.75,8.25 "/>
<path style="fill:none;" d="M19,3H5v8.25l7,5.25l7-5.25V3z"/>
<path style="fill:#333333;" d="M12,17.438L4.55,11.85L5,11.25l-0.45,0.6l-3-2.25l0.9-1.2l1.8,1.35v-7.5h15.5v7.5l1.8-1.35l0.9,1.2
	l-3,2.25L19,11.25l0.45,0.6L12,17.438z M5.75,10.875L12,15.562l6.25-4.688V3.75H5.75V10.875z"/>
<polygon style="fill:#333333;" points="12.53,12.53 12,12 11.47,12.53 8.97,10.03 10.03,8.97 11.25,10.189 11.25,6.5 12.75,6.5 
	12.75,10.189 13.97,8.97 15.03,10.03 "/>
</svg>






