<?xml version="1.0" encoding="iso-8859-1"?>
<svg version="1.1" id="&#x56FE;&#x5C42;_1" xmlns="http://www.w3.org/2000/svg" xmlns:xlink="http://www.w3.org/1999/xlink" x="0px"
	 y="0px" viewBox="0 0 24 24" style="enable-background:new 0 0 24 24;" xml:space="preserve">
<path style="fill:#333333;" d="M21,22.25H3c-0.965,0-1.75-0.826-1.75-1.841V12l1.159-0.629L12,17.605l9.591-6.234L22.75,12v8.409
	C22.75,21.424,21.965,22.25,21,22.25z M2.75,13.382v7.027c0,0.182,0.117,0.341,0.25,0.341h18c0.136,0,0.25-0.156,0.25-0.341v-7.027
	L12,19.395L2.75,13.382z"/>
<path style="fill:#333333;" d="M21.574,12.51l-5-3.446l0.852-1.235l5,3.446L21.574,12.51z M2.426,12.51l-0.852-1.235l5-3.446
	l0.852,1.235L2.426,12.51z"/>
<path style="fill:#333333;" d="M12,19.058c-0.332,0-0.664-0.095-0.954-0.283l-4-2.6c-0.499-0.324-0.796-0.873-0.796-1.468V1.75h11.5
	v12.957c0,0.595-0.298,1.144-0.797,1.468l-3.999,2.6C12.664,18.963,12.332,19.058,12,19.058z M7.75,3.25v11.457
	c0,0.085,0.042,0.164,0.114,0.21l4,2.6c0.083,0.055,0.19,0.052,0.272,0.001l4-2.601c0.072-0.046,0.114-0.125,0.114-0.21V3.25H7.75z"
	/>
<rect x="10" y="5.75" style="fill:#333333;" width="2" height="1.5"/>
<rect x="10" y="8.75" style="fill:#333333;" width="4" height="1.5"/>
</svg>






