<?xml version="1.0" encoding="iso-8859-1"?>
<svg version="1.1" id="&#x56FE;&#x5C42;_1" xmlns="http://www.w3.org/2000/svg" xmlns:xlink="http://www.w3.org/1999/xlink" x="0px"
	 y="0px" viewBox="0 0 24 24" style="enable-background:new 0 0 24 24;" xml:space="preserve">
<polygon style="fill:#333333;" points="21.726,7.524 20.226,7.524 20.226,3.774 16.476,3.774 16.476,2.274 21.726,2.274 "/>
<path style="fill:#333333;" d="M10.156,21.801c-2.07,0-4.016-0.807-5.48-2.271l0,0l0,0c-3.021-3.021-3.021-7.938,0-10.959
	s7.939-3.021,10.96,0c1.464,1.464,2.27,3.41,2.27,5.48c0,2.07-0.806,4.016-2.27,5.479S12.227,21.801,10.156,21.801z M10.156,7.804
	c-1.601,0-3.201,0.609-4.419,1.828c-2.437,2.437-2.437,6.402,0,8.838l0,0c1.181,1.181,2.75,1.831,4.419,1.831s3.239-0.65,4.42-1.831
	c1.18-1.181,1.83-2.75,1.83-4.419s-0.65-3.239-1.83-4.419C13.357,8.413,11.757,7.804,10.156,7.804z"/>
<rect x="13.97" y="5.762" transform="matrix(0.7071 -0.7071 0.7071 0.7071 0.5172 14.2731)" style="fill:#333333;" width="7.037" height="1.5"/>
</svg>






