<?xml version="1.0" encoding="iso-8859-1"?>
<svg version="1.1" id="&#x56FE;&#x5C42;_1" xmlns="http://www.w3.org/2000/svg" xmlns:xlink="http://www.w3.org/1999/xlink" x="0px"
	 y="0px" viewBox="0 0 24 24" style="enable-background:new 0 0 24 24;" xml:space="preserve">
<path style="fill:#333333;" d="M20,22.25H4c-0.965,0-1.75-0.785-1.75-1.75V5.55h19.5V20.5C21.75,21.465,20.965,22.25,20,22.25z
	 M3.75,7.05V20.5c0,0.138,0.112,0.25,0.25,0.25h16c0.138,0,0.25-0.112,0.25-0.25V7.05H3.75z"/>
<polygon style="fill:#333333;" points="3.601,6.748 2.399,5.852 5.457,1.75 18.543,1.75 21.602,5.852 20.398,6.748 17.791,3.25 
	6.21,3.25 "/>
<path style="fill:#333333;" d="M12,14.15c-2.497,0-4.528-2.041-4.528-4.55h1.5c0,1.682,1.358,3.05,3.028,3.05
	c1.669,0,3.027-1.368,3.027-3.05h1.5C16.527,12.109,14.496,14.15,12,14.15z"/>
</svg>






