<?xml version="1.0" encoding="iso-8859-1"?>
<svg version="1.1" id="&#x56FE;&#x5C42;_1" xmlns="http://www.w3.org/2000/svg" xmlns:xlink="http://www.w3.org/1999/xlink" x="0px"
	 y="0px" viewBox="0 0 24 24" style="enable-background:new 0 0 24 24;" xml:space="preserve">
<path style="fill:#333333;" d="M21,21.25H3c-0.965,0-1.75-0.785-1.75-1.75v-15c0-0.965,0.785-1.75,1.75-1.75h18
	c0.965,0,1.75,0.785,1.75,1.75v15C22.75,20.465,21.965,21.25,21,21.25z M3,4.25c-0.138,0-0.25,0.112-0.25,0.25v15
	c0,0.138,0.112,0.25,0.25,0.25h18c0.138,0,0.25-0.112,0.25-0.25v-15c0-0.138-0.112-0.25-0.25-0.25H3z"/>
<polygon style="fill:#333333;" points="18.376,15.416 15.75,11.477 15.75,15 14.25,15 14.25,9 15.624,8.584 18.25,12.522 18.25,9 
	19.75,9 19.75,15 "/>
<polygon style="fill:#333333;" points="8.376,15.416 5.75,11.477 5.75,15 4.25,15 4.25,9 5.624,8.584 8.25,12.522 8.25,9 9.75,9 
	9.75,15 "/>
<rect x="11.25" y="10" style="fill:#333333;" width="1.5" height="0.5"/>
<rect x="11.25" y="13.5" style="fill:#333333;" width="1.5" height="0.5"/>
</svg>






