<?xml version="1.0" encoding="iso-8859-1"?>
<svg version="1.1" id="&#x56FE;&#x5C42;_1" xmlns="http://www.w3.org/2000/svg" xmlns:xlink="http://www.w3.org/1999/xlink" x="0px"
	 y="0px" viewBox="0 0 24 24" style="enable-background:new 0 0 24 24;" xml:space="preserve">
<path style="fill:#333333;" d="M22.75,22.172l-7.262-3.351l-7,3L1.25,18.479V1.828l7.261,3.352l7-3L22.75,5.52V22.172z M2.75,17.521
	l5.761,2.658l7-3l5.738,2.649V6.48l-5.762-2.659l-7,3L2.75,4.172V17.521z"/>
<rect x="14.75" y="3" style="fill:#333333;" width="1.5" height="15"/>
<rect x="7.75" y="6" style="fill:#333333;" width="1.5" height="15"/>
<polygon style="fill:#333333;" points="8.489,6.821 4.936,5.181 5.564,3.819 8.511,5.179 15.512,2.179 19.064,3.819 18.436,5.181 
	15.488,3.821 "/>
<polygon style="fill:#333333;" points="8.489,21.821 4.936,20.181 5.564,18.819 8.511,20.179 15.512,17.179 19.064,18.819 
	18.436,20.181 15.488,18.821 "/>
</svg>






