<?xml version="1.0" encoding="iso-8859-1"?>
<svg version="1.1" id="&#x56FE;&#x5C42;_1" xmlns="http://www.w3.org/2000/svg" xmlns:xlink="http://www.w3.org/1999/xlink" x="0px"
	 y="0px" viewBox="0 0 24 24" style="enable-background:new 0 0 24 24;" xml:space="preserve">
<path style="fill:#333333;" d="M21,22.75H3c-0.965,0-1.75-0.785-1.75-1.75V3c0-0.965,0.785-1.75,1.75-1.75h18
	c0.965,0,1.75,0.785,1.75,1.75v18C22.75,21.965,21.965,22.75,21,22.75z M3,2.75C2.862,2.75,2.75,2.862,2.75,3v18
	c0,0.138,0.112,0.25,0.25,0.25h18c0.138,0,0.25-0.112,0.25-0.25V3c0-0.138-0.112-0.25-0.25-0.25H3z"/>
<rect x="4.567" y="7.75" transform="matrix(0.9417 -0.3365 0.3365 0.9417 -2.1603 4.5331)" style="fill:#333333;" width="14.866" height="1.5"/>
<path style="fill:#333333;" d="M5.252,15.206l-0.504-1.412l0.942-0.336l0.504,1.412L5.252,15.206z M9.019,13.86l-0.504-1.412
	l0.941-0.336l0.504,1.412L9.019,13.86z M12.786,12.516l-0.504-1.413l0.941-0.336l0.504,1.413L12.786,12.516z M16.553,11.17
	l-0.504-1.412l0.941-0.336l0.504,1.412L16.553,11.17z"/>
<rect x="4.567" y="14.75" transform="matrix(0.9416 -0.3367 0.3367 0.9416 -4.5178 4.9448)" style="fill:#333333;" width="14.866" height="1.499"/>
<rect x="6.5" y="5.364" transform="matrix(0.9363 -0.3511 0.3511 0.9363 -2.1718 3.0232)" style="fill:#333333;" width="1.5" height="4.272"/>
<rect x="17" y="13.864" transform="matrix(0.9363 -0.3511 0.3511 0.9363 -4.4878 7.2512)" style="fill:#333333;" width="1.5" height="4.272"/>
</svg>






