<?xml version="1.0" encoding="iso-8859-1"?>
<svg version="1.1" id="&#x56FE;&#x5C42;_1" xmlns="http://www.w3.org/2000/svg" xmlns:xlink="http://www.w3.org/1999/xlink" x="0px"
	 y="0px" viewBox="0 0 24 24" style="enable-background:new 0 0 24 24;" xml:space="preserve">
<path style="fill:#333333;" d="M19.65,21.75H4.35c-1.158,0-2.1-0.941-2.1-2.1V4.35c0-1.158,0.942-2.1,2.1-2.1h15.3
	c1.158,0,2.1,0.942,2.1,2.1v15.3C21.75,20.809,20.809,21.75,19.65,21.75z M4.35,3.75c-0.331,0-0.6,0.269-0.6,0.6v15.3
	c0,0.331,0.269,0.6,0.6,0.6h15.3c0.331,0,0.6-0.269,0.6-0.6V4.35c0-0.331-0.269-0.6-0.6-0.6H4.35z"/>
<rect x="14.346" y="13.5" transform="matrix(0.9189 -0.3944 0.3944 0.9189 -4.3029 7.5639)" style="fill:#333333;" width="3.808" height="1.501"/>
<rect x="6.846" y="16.5" transform="matrix(0.9192 -0.3938 0.3938 0.9192 -6.0866 4.8403)" style="fill:#333333;" width="3.808" height="1.5"/>
<path style="fill:#333333;" d="M8,15.819l-0.617-0.893C5.936,12.832,5.75,11.995,5.75,11.5c0-1.241,1.009-2.25,2.25-2.25
	s2.25,1.009,2.25,2.25c0,0.495-0.186,1.332-1.633,3.427L8,15.819z M8,10.75c-0.414,0-0.75,0.336-0.75,0.75
	c0,0.081,0.043,0.483,0.75,1.633c0.707-1.149,0.75-1.552,0.75-1.633C8.75,11.086,8.414,10.75,8,10.75z"/>
<path style="fill:#333333;" d="M16,12.319l-0.617-0.893C13.936,9.331,13.75,8.495,13.75,8c0-1.241,1.01-2.25,2.25-2.25
	S18.25,6.759,18.25,8c0,0.495-0.186,1.331-1.633,3.426L16,12.319z M16,7.25c-0.413,0-0.75,0.336-0.75,0.75
	c0,0.081,0.043,0.483,0.75,1.633c0.707-1.15,0.75-1.552,0.75-1.633C16.75,7.586,16.413,7.25,16,7.25z"/>
</svg>






