<?xml version="1.0" encoding="iso-8859-1"?>
<svg version="1.1" id="&#x56FE;&#x5C42;_1" xmlns="http://www.w3.org/2000/svg" xmlns:xlink="http://www.w3.org/1999/xlink" x="0px"
	 y="0px" viewBox="0 0 24 24" style="enable-background:new 0 0 24 24;" xml:space="preserve">
<path style="fill-rule:evenodd;clip-rule:evenodd;fill:#333333;" d="M12,1.5l0.174,0.001C17.863,1.595,22.5,6.234,22.5,12.037
	l-0.001,0.175C22.404,17.918,17.709,22.5,12,22.5l-0.174-0.001C6.137,22.406,1.5,17.766,1.5,12.037C1.5,6.175,6.232,1.5,12,1.5z
	 M19.19,12.694l-8.656,2.168c-0.082,0.021-0.164,0.03-0.245,0.03l-0.094-0.004c-0.218-0.021-0.421-0.112-0.58-0.256L8.77,17.571
	l-0.011,0.065c-0.105,0.758,0.78,1.378,1.7,0.909l7.992-4.547l0.096-0.057C19.101,13.591,19.315,13.129,19.19,12.694z M8.99,6.389
	C8.385,5.925,7.411,6.382,7.357,7.41l-0.058,9.194c-0.004,0.721,0.296,1.177,0.76,1.293l2.45-8.58l0.027-0.082
	c0.111-0.293,0.349-0.508,0.632-0.598L9.045,6.435L8.99,6.389z M10.531,5.64C9.95,5.334,9.443,5.38,9.129,5.706l6.206,6.412
	c0.242,0.25,0.328,0.594,0.26,0.911l2.968-0.738l0.068-0.025c0.704-0.292,0.796-1.364-0.068-1.924l-7.933-4.648L10.531,5.64z"/>
</svg>






