<?xml version="1.0" encoding="iso-8859-1"?>
<svg version="1.1" id="&#x56FE;&#x5C42;_1" xmlns="http://www.w3.org/2000/svg" xmlns:xlink="http://www.w3.org/1999/xlink" x="0px"
	 y="0px" viewBox="0 0 24 24" style="enable-background:new 0 0 24 24;" xml:space="preserve">
<path style="fill:#333333;" d="M12,22.75c-1.303,0-2.568-0.278-3.759-0.828c-1.188-0.547-2.252-1.338-3.163-2.349l1.115-1.004
	c0.773,0.859,1.673,1.529,2.675,1.99c1.985,0.916,4.275,0.915,6.263,0.001c1.001-0.462,1.901-1.132,2.675-1.991l1.115,1.004
	c-0.911,1.011-1.975,1.802-3.163,2.349C14.567,22.472,13.303,22.75,12,22.75z M2.98,16.09C2.496,14.792,2.25,13.416,2.25,12
	c0-1.417,0.246-2.793,0.73-4.09l1.405,0.525C3.964,9.563,3.75,10.763,3.75,12c0,1.236,0.214,2.436,0.636,3.564L2.98,16.09z
	 M21.021,16.089l-1.406-0.523c0.422-1.131,0.636-2.331,0.636-3.565c0-1.235-0.214-2.435-0.636-3.565l1.406-0.524
	c0.484,1.299,0.729,2.675,0.729,4.09C21.75,13.414,21.505,14.79,21.021,16.089z M17.807,5.431c-0.773-0.859-1.674-1.529-2.675-1.991
	C14.138,2.982,13.085,2.75,12,2.75c-2.189,0-4.251,0.952-5.806,2.68L5.079,4.427C6.922,2.378,9.38,1.25,12,1.25
	c1.303,0,2.567,0.278,3.759,0.828c1.188,0.547,2.252,1.338,3.163,2.349L17.807,5.431z"/>
<path style="fill:#333333;" d="M9,12.25c-1.241,0-2.25-1.009-2.25-2.25S7.759,7.75,9,7.75s2.25,1.009,2.25,2.25
	S10.241,12.25,9,12.25z M9,9.25c-0.414,0-0.75,0.336-0.75,0.75S8.586,10.75,9,10.75S9.75,10.414,9.75,10S9.414,9.25,9,9.25z"/>
<path style="fill:#333333;" d="M15,12.25c-1.24,0-2.25-1.009-2.25-2.25S13.76,7.75,15,7.75s2.25,1.009,2.25,2.25
	S16.24,12.25,15,12.25z M15,9.25c-0.413,0-0.75,0.336-0.75,0.75s0.337,0.75,0.75,0.75s0.75-0.336,0.75-0.75S15.413,9.25,15,9.25z"/>
<path style="fill:#333333;" d="M12,18.25c-1.822,0-3.25-0.988-3.25-2.25s1.428-2.25,3.25-2.25s3.25,0.988,3.25,2.25
	S13.822,18.25,12,18.25z M12,15.25c-1.085,0-1.75,0.485-1.75,0.75s0.665,0.75,1.75,0.75c1.086,0,1.75-0.485,1.75-0.75
	S13.086,15.25,12,15.25z"/>
</svg>






