<?xml version="1.0" encoding="iso-8859-1"?>
<svg version="1.1" id="&#x56FE;&#x5C42;_1" xmlns="http://www.w3.org/2000/svg" xmlns:xlink="http://www.w3.org/1999/xlink" x="0px"
	 y="0px" viewBox="0 0 24 24" style="enable-background:new 0 0 24 24;" xml:space="preserve">
<path style="fill:#333333;" d="M12,22.75C6.072,22.75,1.25,17.928,1.25,12S6.072,1.25,12,1.25S22.75,6.072,22.75,12
	S17.928,22.75,12,22.75z M12,2.75c-5.101,0-9.25,4.149-9.25,9.25s4.149,9.25,9.25,9.25s9.25-4.149,9.25-9.25S17.101,2.75,12,2.75z"
	/>
<path style="fill:#333333;" d="M15.237,22.072C11.058,20.512,8.25,16.464,8.25,12c0-4.463,2.808-8.511,6.987-10.073l0.525,1.405
	C12.166,4.676,9.75,8.159,9.75,12s2.416,7.324,6.013,8.668L15.237,22.072z"/>
<rect x="7.995" y="7" transform="matrix(0.8255 -0.5644 0.5644 0.8255 -1.9747 9.1134)" style="fill:#333333;" width="11.511" height="1.5"/>
<rect x="8.343" y="10" transform="matrix(0.8265 -0.5629 0.5629 0.8265 -3.4491 10.3091)" style="fill:#333333;" width="13.314" height="1.5"/>
<rect x="9.798" y="13" transform="matrix(0.8137 -0.5813 0.5813 0.8137 -4.9653 12.0079)" style="fill:#333333;" width="12.903" height="1.5"/>
<rect x="12.048" y="16.25" transform="matrix(0.8167 -0.577 0.577 0.8167 -6.648 13.0698)" style="fill:#333333;" width="10.404" height="1.499"/>
</svg>






