<?xml version="1.0" encoding="iso-8859-1"?>
<svg version="1.1" id="&#x56FE;&#x5C42;_1" xmlns="http://www.w3.org/2000/svg" xmlns:xlink="http://www.w3.org/1999/xlink" x="0px"
	 y="0px" viewBox="0 0 24 24" style="enable-background:new 0 0 24 24;" xml:space="preserve">
<path style="fill:#333333;" d="M15.5,20.75h-7c-3.998,0-7.25-3.252-7.25-7.25V12c0-3.17,2.58-5.75,5.75-5.75h10
	c3.171,0,5.75,2.58,5.75,5.75v1.5C22.75,17.498,19.498,20.75,15.5,20.75z M7,7.75c-2.343,0-4.25,1.907-4.25,4.25v1.5
	c0,3.171,2.58,5.75,5.75,5.75h7c3.171,0,5.75-2.579,5.75-5.75V12c0-2.343-1.906-4.25-4.25-4.25H7z"/>
<rect x="9" y="12.75" style="fill:#333333;" width="6" height="1.5"/>
<rect x="11.25" y="10.5" style="fill:#333333;" width="1.5" height="6"/>
<path style="fill:#333333;" d="M2.75,12.521h-1.5V6.007c0-1.563,1.271-2.834,2.834-2.834c0.732,0,1.427,0.279,1.958,0.785
	c0.877,0.837,1.515,1.772,1.895,2.777L6.534,7.266C6.233,6.472,5.719,5.724,5.005,5.042c-0.25-0.238-0.577-0.37-0.921-0.37
	c-0.735,0-1.334,0.599-1.334,1.334V12.521z"/>
<path style="fill:#333333;" d="M22.75,12.521h-1.5V6.383c0-0.821-0.668-1.489-1.489-1.489c-0.46,0-0.887,0.208-1.171,0.569
	c-0.516,0.656-1.009,1.314-1.479,1.973L15.89,6.564c0.484-0.677,0.991-1.353,1.521-2.027c0.57-0.727,1.428-1.143,2.351-1.143
	c1.648,0,2.989,1.341,2.989,2.989V12.521z"/>
</svg>






