<?xml version="1.0" encoding="iso-8859-1"?>
<svg version="1.1" id="&#x56FE;&#x5C42;_1" xmlns="http://www.w3.org/2000/svg" xmlns:xlink="http://www.w3.org/1999/xlink" x="0px"
	 y="0px" viewBox="0 0 24 24" style="enable-background:new 0 0 24 24;" xml:space="preserve">
<path style="fill:#333333;" d="M20,22.25H4c-1.241,0-2.25-1.01-2.25-2.25V4c0-1.241,1.009-2.25,2.25-2.25h16
	c1.24,0,2.25,1.009,2.25,2.25v16C22.25,21.24,21.24,22.25,20,22.25z M4,3.25C3.586,3.25,3.25,3.586,3.25,4v16
	c0,0.413,0.336,0.75,0.75,0.75h16c0.413,0,0.75-0.337,0.75-0.75V4c0-0.414-0.337-0.75-0.75-0.75H4z"/>
<path style="fill:#333333;" d="M15.75,12h-1.5V7.826c0-0.279-0.413-1.076-2.25-1.076c-1.836,0-2.25,0.797-2.25,1.076V12h-1.5V7.826
	C8.25,6.935,9.034,5.25,12,5.25c2.966,0,3.75,1.685,3.75,2.576V12z"/>
<polygon style="fill:#333333;" points="16.75,15.75 7.25,15.75 7.25,12 8.75,12 8.75,14.25 15.25,14.25 15.25,12 16.75,12 "/>
<polygon style="fill:#333333;" points="18.75,12.75 5.25,12.75 5.25,10 6.75,10 6.75,11.25 17.25,11.25 17.25,10 18.75,10 "/>
<rect x="9" y="17.25" style="fill:#333333;" width="6" height="1.5"/>
<rect x="11.25" y="15" style="fill:#333333;" width="1.5" height="3"/>
</svg>






