<?xml version="1.0" encoding="iso-8859-1"?>
<svg version="1.1" id="&#x56FE;&#x5C42;_1" xmlns="http://www.w3.org/2000/svg" xmlns:xlink="http://www.w3.org/1999/xlink" x="0px"
	 y="0px" viewBox="0 0 24 24" style="enable-background:new 0 0 24 24;" xml:space="preserve">
<path style="fill:#333333;" d="M22.75,12.25H6.25V8.5c0-0.965,0.785-1.75,1.75-1.75h13c0.965,0,1.75,0.785,1.75,1.75V12.25z
	 M7.75,10.75h13.5V8.5c0-0.138-0.112-0.25-0.25-0.25H8c-0.138,0-0.25,0.112-0.25,0.25V10.75z"/>
<rect x="5.39" y="14.25" transform="matrix(0.651 -0.7591 0.7591 0.651 -7.8961 12.8256)" style="fill:#333333;" width="9.22" height="1.5"/>
<rect x="18.25" y="10.39" transform="matrix(0.7593 -0.6508 0.6508 0.7593 -5.1877 15.9762)" style="fill:#333333;" width="1.5" height="9.22"/>
<rect x="3" y="10.75" style="fill:#333333;" width="4" height="1.5"/>
<rect x="9.5" y="14.75" style="fill:#333333;" width="10" height="1.5"/>
<rect x="2.25" y="6.5" style="fill:#333333;" width="1.5" height="5"/>
<rect x="6.25" y="11.5" style="fill:#333333;" width="1.5" height="8.5"/>
<rect x="21.25" y="11.5" style="fill:#333333;" width="1.5" height="8.5"/>
<rect x="2.25" y="4.919" transform="matrix(0.3162 -0.9487 0.9487 0.3162 -4.1151 7.2906)" style="fill:#333333;" width="1.5" height="3.162"/>
</svg>






