<?xml version="1.0" encoding="iso-8859-1"?>
<svg version="1.1" id="&#x56FE;&#x5C42;_1" xmlns="http://www.w3.org/2000/svg" xmlns:xlink="http://www.w3.org/1999/xlink" x="0px"
	 y="0px" viewBox="0 0 24 24" style="enable-background:new 0 0 24 24;" xml:space="preserve">
<path style="fill:#333333;" d="M17.25,14h-1.5V7.826c0-0.862-1.163-2.076-3.75-2.076c-2.586,0-3.75,1.214-3.75,2.076V14h-1.5V7.826
	C6.75,6.049,8.553,4.25,12,4.25c3.446,0,5.25,1.799,5.25,3.576V14z"/>
<path style="fill:#333333;" d="M18.75,17.75H5.25v-4.5h13.5V17.75z M6.75,16.25h10.5v-1.5H6.75V16.25z"/>
<rect x="10" y="1.25" style="fill:#333333;" width="4" height="1.5"/>
<polygon style="fill:#333333;" points="20.75,14.75 3.25,14.75 3.25,8 4.75,8 4.75,13.25 19.25,13.25 19.25,8 20.75,8 "/>
<rect x="8.5" y="20.75" style="fill:#333333;" width="7" height="1.5"/>
<rect x="11.25" y="17" style="fill:#333333;" width="1.5" height="4.5"/>
<rect x="11.25" y="2" style="fill:#333333;" width="1.5" height="3"/>
</svg>






