<?xml version="1.0" encoding="iso-8859-1"?>
<svg version="1.1" id="&#x56FE;&#x5C42;_1" xmlns="http://www.w3.org/2000/svg" xmlns:xlink="http://www.w3.org/1999/xlink" x="0px"
	 y="0px" viewBox="0 0 24 24" style="enable-background:new 0 0 24 24;" xml:space="preserve">
<path style="fill:#333333;" d="M19.75,19h-1.5V3c0-0.138-0.112-0.25-0.25-0.25H6C5.862,2.75,5.75,2.862,5.75,3v16h-1.5V3
	c0-0.965,0.785-1.75,1.75-1.75h12c0.965,0,1.75,0.785,1.75,1.75V19z"/>
<path style="fill:#333333;" d="M16,22.75H8c-2.068,0-3.75-1.683-3.75-3.75S5.932,15.25,8,15.25h8c2.067,0,3.75,1.683,3.75,3.75
	S18.067,22.75,16,22.75z M8,16.75c-1.241,0-2.25,1.01-2.25,2.25S6.759,21.25,8,21.25h8c1.24,0,2.25-1.01,2.25-2.25
	s-1.01-2.25-2.25-2.25H8z"/>
<path style="fill:#333333;" d="M15.073,12.25H8.927L7.276,6.197L8.53,5.47L10,6.939l2-2l2,2l1.47-1.47l1.254,0.728L15.073,12.25z
	 M10.073,10.75h3.854l0.606-2.223L14,9.061l-2-2l-2,2L9.467,8.527L10.073,10.75z"/>
<circle style="fill:#333333;" cx="16" cy="19" r="1"/>
</svg>






