<?xml version="1.0" encoding="iso-8859-1"?>
<svg version="1.1" id="&#x56FE;&#x5C42;_1" xmlns="http://www.w3.org/2000/svg" xmlns:xlink="http://www.w3.org/1999/xlink" x="0px"
	 y="0px" viewBox="0 0 24 24" style="enable-background:new 0 0 24 24;" xml:space="preserve">
<path style="fill:#333333;" d="M20.25,7.5h-1.5V4.782c0-0.343-0.027-0.398-0.046-0.436c-0.073-0.071-0.117-0.096-0.406-0.096H5.702
	c-0.289,0-0.332,0.024-0.35,0.035C5.278,4.382,5.25,4.438,5.25,4.782V7.5h-1.5V4.782c0-0.516,0.054-0.805,0.205-1.106
	C4.103,3.38,4.329,3.141,4.609,2.982C4.908,2.811,5.194,2.75,5.702,2.75h12.596c0.507,0,0.793,0.061,1.094,0.232
	c0.28,0.159,0.506,0.399,0.653,0.692c0.151,0.304,0.205,0.593,0.205,1.107V7.5z"/>
<path style="fill:#333333;" d="M22.25,21.25H1.75V6.75h20.5V21.25z M3.25,19.75h17.5V8.25H3.25V19.75z"/>
<path style="fill-rule:evenodd;clip-rule:evenodd;fill:#333333;" d="M6.5,13C7.328,13,8,12.328,8,11.5S7.328,10,6.5,10
	S5,10.672,5,11.5S5.672,13,6.5,13z"/>
<polygon style="fill:#333333;" points="20.723,20.776 13.093,14.544 10.098,18.038 7.582,16.025 3.34,20.699 2.229,19.691 
	7.418,13.975 9.902,15.962 12.907,12.456 21.672,19.614 "/>
</svg>






