<?xml version="1.0" encoding="iso-8859-1"?>
<svg version="1.1" id="&#x56FE;&#x5C42;_1" xmlns="http://www.w3.org/2000/svg" xmlns:xlink="http://www.w3.org/1999/xlink" x="0px"
	 y="0px" viewBox="0 0 24 24" style="enable-background:new 0 0 24 24;" xml:space="preserve">
<path style="fill:#333333;" d="M14.478,22.75h-4.477c-2.518,0-4.371-1.13-5.358-3.267c-0.452-0.976-0.893-2.086-0.893-3.962
	c0-2.114,2.144-4.268,4.249-4.268h1.252V3.5c0-1.241,1.009-2.25,2.25-2.25c1.244,0.003,2.249,1.013,2.246,2.252l-0.02,8.314
	c0.499,0.391,0.854,0.958,0.972,1.605c0.19,0.023,0.31,0.002,0.363-0.037c0.093-0.066,0.202-0.332,0.202-0.858l-0.008-4.524
	c0-1.242,1.007-2.25,2.245-2.25c0.604,0.001,1.167,0.236,1.591,0.661c0.423,0.425,0.655,0.989,0.654,1.589
	c-0.007,3.75-0.008,6.582-0.004,8.496c0.004,1.888-0.659,3.638-1.82,4.802C16.976,22.248,15.784,22.75,14.478,22.75z M7.999,12.754
	c-1.284,0-2.749,1.475-2.749,2.768c0,1.575,0.341,2.441,0.754,3.333c0.735,1.59,2.08,2.396,3.997,2.396h4.477
	c0.899,0,1.724-0.35,2.384-1.01c0.881-0.884,1.385-2.246,1.382-3.738c-0.004-1.916-0.003-4.75,0.004-8.503
	c0-0.199-0.077-0.386-0.217-0.527c-0.141-0.141-0.328-0.219-0.526-0.219c-0.413,0-0.747,0.334-0.747,0.745l0.008,4.528
	c0,0.983-0.278,1.682-0.826,2.076c-0.376,0.272-0.848,0.372-1.399,0.311c-0.399,0.953-1.342,1.624-2.438,1.624l-1.413,0.117
	l0.486,1.025L9.82,18.321l-1.416-2.985l3.636-0.297c0.69-0.003,1.202-0.515,1.202-1.144c0-0.63-0.512-1.142-1.141-1.142H7.999z
	 M10.751,11.254h1.351c0.043,0,0.085,0.001,0.128,0.003l0.018-7.759c0-0.199-0.077-0.387-0.217-0.528
	c-0.141-0.141-0.328-0.219-0.528-0.22c-0.415,0-0.751,0.336-0.751,0.75V11.254z"/>
<path style="fill:#333333;" d="M10.753,12h-1.5V5.004c0-0.414-0.337-0.751-0.751-0.752c0,0,0,0-0.001,0
	C8.088,4.252,7.753,4.588,7.753,5v7h-1.5V5c0-1.24,1.008-2.248,2.248-2.248c1.243,0.002,2.252,1.012,2.252,2.252V12z"/>
<path style="fill:#333333;" d="M16.754,10.01h-1.5v-0.5c0-0.414-0.337-0.75-0.75-0.75s-0.75,0.336-0.75,0.75v0.5h-1.5v-0.5
	c0-1.241,1.01-2.25,2.25-2.25s2.25,1.009,2.25,2.25V10.01z"/>
</svg>






