<?xml version="1.0" encoding="iso-8859-1"?>
<svg version="1.1" id="&#x56FE;&#x5C42;_1" xmlns="http://www.w3.org/2000/svg" xmlns:xlink="http://www.w3.org/1999/xlink" x="0px"
	 y="0px" viewBox="0 0 24 24" style="enable-background:new 0 0 24 24;" xml:space="preserve">
<rect x="4.75" y="2.095" transform="matrix(0.7682 -0.6402 0.6402 0.7682 -2.5663 4.9117)" style="fill:#333333;" width="1.5" height="7.81"/>
<rect x="14.595" y="5.25" transform="matrix(0.6401 -0.7683 0.7683 0.6401 2.049 16.3737)" style="fill:#333333;" width="7.81" height="1.5"/>
<rect x="11" y="4.25" transform="matrix(0.3847 -0.923 0.923 0.3847 4.1527 16.2298)" style="fill:#333333;" width="6.5" height="1.5"/>
<rect x="9" y="1.75" transform="matrix(0.9231 -0.3846 0.3846 0.9231 -1.1731 4.1346)" style="fill:#333333;" width="1.5" height="6.5"/>
<path style="fill:#333333;" d="M12,22.75c-4.273,0-7.75-3.477-7.75-7.75S7.727,7.25,12,7.25s7.75,3.477,7.75,7.75
	S16.273,22.75,12,22.75z M12,8.75c-3.446,0-6.25,2.804-6.25,6.25s2.804,6.25,6.25,6.25s6.25-2.804,6.25-6.25S15.446,8.75,12,8.75z"
	/>
<path style="fill:#333333;" d="M12,19.25c-2.343,0-4.25-1.906-4.25-4.25s1.907-4.25,4.25-4.25c2.344,0,4.25,1.906,4.25,4.25
	S14.344,19.25,12,19.25z M12,12.25c-1.517,0-2.75,1.233-2.75,2.75s1.233,2.75,2.75,2.75s2.75-1.233,2.75-2.75S13.517,12.25,12,12.25
	z"/>
</svg>






