<?xml version="1.0" encoding="iso-8859-1"?>
<svg version="1.1" id="&#x56FE;&#x5C42;_1" xmlns="http://www.w3.org/2000/svg" xmlns:xlink="http://www.w3.org/1999/xlink" x="0px"
	 y="0px" viewBox="0 0 24 24" style="enable-background:new 0 0 24 24;" xml:space="preserve">
<path style="fill:#333333;" d="M18.5,18.75h-9c-1.241,0-2.25-1.01-2.25-2.25v-9c0-1.241,1.009-2.25,2.25-2.25h9
	c1.24,0,2.25,1.009,2.25,2.25v9C20.75,17.74,19.74,18.75,18.5,18.75z M9.5,6.75c-0.414,0-0.75,0.336-0.75,0.75v9
	c0,0.413,0.336,0.75,0.75,0.75h9c0.413,0,0.75-0.337,0.75-0.75v-9c0-0.414-0.337-0.75-0.75-0.75H9.5z"/>
<rect x="3.25" y="2" style="fill:#333333;" width="1.5" height="20"/>
<rect x="4" y="8.75" style="fill:#333333;" width="4" height="1.5"/>
<rect x="4" y="13.75" style="fill:#333333;" width="4" height="1.5"/>
<rect x="11" y="11.25" style="fill:#333333;" width="6" height="1.5"/>
<rect x="13.25" y="9" style="fill:#333333;" width="1.5" height="6"/>
</svg>






