<?xml version="1.0" encoding="iso-8859-1"?>
<svg version="1.1" id="&#x56FE;&#x5C42;_1" xmlns="http://www.w3.org/2000/svg" xmlns:xlink="http://www.w3.org/1999/xlink" x="0px"
	 y="0px" viewBox="0 0 24 24" style="enable-background:new 0 0 24 24;" xml:space="preserve">
<path style="fill:#333333;" d="M11.5,21.75h-7c-0.965,0-1.75-0.785-1.75-1.75V4c0-0.965,0.785-1.75,1.75-1.75h14
	c0.965,0,1.75,0.785,1.75,1.75v5.75h-1.5V4c0-0.138-0.112-0.25-0.25-0.25h-14C4.362,3.75,4.25,3.862,4.25,4v16
	c0,0.138,0.112,0.25,0.25,0.25h7V21.75z"/>
<path style="fill:#333333;" d="M16.5,21.391l-0.405-0.26c-0.763-0.489-1.413-0.991-1.933-1.49l-0.134-0.128
	c-0.853-0.812-2.278-2.171-2.278-3.913c0-1.571,1.315-2.85,2.932-2.85c0.67,0,1.308,0.221,1.818,0.613
	c0.511-0.393,1.148-0.613,1.818-0.613c1.616,0,2.932,1.278,2.932,2.85c0,1.742-1.426,3.102-2.278,3.913l-0.134,0.128
	c-0.52,0.499-1.17,1.001-1.933,1.49L16.5,21.391z M14.682,14.25c-0.789,0-1.432,0.605-1.432,1.35c0,1.1,1.135,2.181,1.813,2.827
	l0.138,0.132c0.357,0.344,0.793,0.693,1.299,1.041c0.506-0.348,0.941-0.697,1.299-1.041l0.138-0.132
	c0.679-0.646,1.813-1.728,1.813-2.827c0-0.744-0.643-1.35-1.432-1.35c-0.486,0-0.936,0.229-1.201,0.615L16.5,15.758l-0.617-0.893
	C15.617,14.479,15.168,14.25,14.682,14.25z"/>
<rect x="7.5" y="6.25" style="fill:#333333;" width="8" height="1.5"/>
</svg>






