<?xml version="1.0" encoding="iso-8859-1"?>
<svg version="1.1" id="&#x56FE;&#x5C42;_1" xmlns="http://www.w3.org/2000/svg" xmlns:xlink="http://www.w3.org/1999/xlink" x="0px"
	 y="0px" viewBox="0 0 24 24" style="enable-background:new 0 0 24 24;" xml:space="preserve">
<path style="fill:#333333;" d="M16,5.75H8c-1.241,0-2.25-1.009-2.25-2.25S6.759,1.25,8,1.25h8c1.24,0,2.25,1.009,2.25,2.25
	S17.24,5.75,16,5.75z M8,2.75c-0.414,0-0.75,0.336-0.75,0.75S7.586,4.25,8,4.25h8c0.413,0,0.75-0.336,0.75-0.75S16.413,2.75,16,2.75
	H8z"/>
<path style="fill:#333333;" d="M18.5,22.75h-13c-1.241,0-2.25-1.01-2.25-2.25v-8.238c0-0.51,0.176-1.011,0.496-1.409l2.22-2.762
	C6.395,7.557,7.034,7.25,7.719,7.25h8.562c0.687,0,1.325,0.307,1.754,0.841l2.219,2.761c0.32,0.399,0.496,0.899,0.496,1.41V20.5
	C20.75,21.74,19.74,22.75,18.5,22.75z M7.719,8.75c-0.228,0-0.441,0.102-0.584,0.28h0l-2.219,2.761
	c-0.106,0.133-0.165,0.3-0.165,0.47V20.5c0,0.413,0.336,0.75,0.75,0.75h13c0.413,0,0.75-0.337,0.75-0.75v-8.238
	c0-0.17-0.059-0.337-0.166-0.471L16.865,9.03c-0.143-0.178-0.355-0.28-0.584-0.28H7.719z"/>
<rect x="9" y="14.25" style="fill:#333333;" width="6" height="1.5"/>
<rect x="11.25" y="12" style="fill:#333333;" width="1.5" height="6"/>
</svg>






