<?xml version="1.0" encoding="iso-8859-1"?>
<svg version="1.1" id="&#x56FE;&#x5C42;_1" xmlns="http://www.w3.org/2000/svg" xmlns:xlink="http://www.w3.org/1999/xlink" x="0px"
	 y="0px" viewBox="0 0 24 24" style="enable-background:new 0 0 24 24;" xml:space="preserve">
<path style="fill:#333333;" d="M14.5,8.25h-8c-1.517,0-2.75-1.233-2.75-2.75v-1c0-1.517,1.233-2.75,2.75-2.75h8
	c1.517,0,2.75,1.233,2.75,2.75v1C17.25,7.017,16.017,8.25,14.5,8.25z M6.5,3.25c-0.689,0-1.25,0.561-1.25,1.25v1
	c0,0.689,0.561,1.25,1.25,1.25h8c0.689,0,1.25-0.561,1.25-1.25v-1c0-0.689-0.561-1.25-1.25-1.25H6.5z"/>
<rect x="9.75" y="2.5" style="fill:#333333;" width="1.5" height="4"/>
<rect x="6.75" y="2.5" style="fill:#333333;" width="1.5" height="4"/>
<rect x="12.75" y="2.5" style="fill:#333333;" width="1.5" height="4"/>
<path style="fill:#333333;" d="M13.5,20.75H4c-0.965,0-1.75-0.785-1.75-1.75V8.5c0-0.965,0.785-1.75,1.75-1.75h13
	c0.965,0,1.75,0.785,1.75,1.75V13h-1.5V8.5c0-0.138-0.112-0.25-0.25-0.25H4c-0.138,0-0.25,0.112-0.25,0.25V19
	c0,0.138,0.112,0.25,0.25,0.25h9.5V20.75z"/>
<polygon style="fill:#333333;" points="19,18.75 16.25,18.75 16.25,16 17.75,16 17.75,17.25 19,17.25 "/>
<path style="fill:#333333;" d="M17.5,22.75c-2.895,0-5.25-2.355-5.25-5.25s2.355-5.25,5.25-5.25s5.25,2.355,5.25,5.25
	S20.395,22.75,17.5,22.75z M17.5,13.75c-2.067,0-3.75,1.683-3.75,3.75s1.683,3.75,3.75,3.75s3.75-1.683,3.75-3.75
	S19.567,13.75,17.5,13.75z"/>
<rect x="6.5" y="1.75" style="fill:#333333;" width="8" height="1.5"/>
<rect x="6.5" y="6.75" style="fill:#333333;" width="8" height="1.5"/>
</svg>






