<?xml version="1.0" encoding="iso-8859-1"?>
<svg version="1.1" id="&#x56FE;&#x5C42;_1" xmlns="http://www.w3.org/2000/svg" xmlns:xlink="http://www.w3.org/1999/xlink" x="0px"
	 y="0px" viewBox="0 0 24 24" style="enable-background:new 0 0 24 24;" xml:space="preserve">
<path style="fill:#333333;" d="M17,22.75H7c-0.965,0-1.75-0.785-1.75-1.75V6c0-0.965,0.785-1.75,1.75-1.75h10
	c0.965,0,1.75,0.785,1.75,1.75v15C18.75,21.965,17.965,22.75,17,22.75z M7,5.75C6.862,5.75,6.75,5.862,6.75,6v15
	c0,0.138,0.112,0.25,0.25,0.25h10c0.138,0,0.25-0.112,0.25-0.25V6c0-0.138-0.112-0.25-0.25-0.25H7z"/>
<rect x="6" y="8.25" style="fill:#333333;" width="12" height="1.5"/>
<rect x="5.25" y="7.5" style="fill:#333333;" width="1.5" height="3"/>
<rect x="17.25" y="7.5" style="fill:#333333;" width="1.5" height="3"/>
<path style="fill:#333333;" d="M16.75,5.75h-9.5v-4.5h9.5V5.75z M8.75,4.25h6.5v-1.5h-6.5V4.25z"/>
<rect x="10" y="14.75" style="fill:#333333;" width="4" height="1.5"/>
<rect x="11.25" y="13.5" style="fill:#333333;" width="1.5" height="4"/>
</svg>






