<?xml version="1.0" encoding="iso-8859-1"?>
<svg version="1.1" id="&#x56FE;&#x5C42;_1" xmlns="http://www.w3.org/2000/svg" xmlns:xlink="http://www.w3.org/1999/xlink" x="0px"
	 y="0px" viewBox="0 0 24 24" style="enable-background:new 0 0 24 24;" xml:space="preserve">
<path style="fill:#333333;" d="M22.25,21.75H1.75v-8.5h20.5V21.75z M3.25,20.25h17.5v-5.5H3.25V20.25z"/>
<path style="fill:#333333;" d="M22.25,10.75H1.75v-8.5h20.5V10.75z M3.25,9.25h17.5v-5.5H3.25V9.25z"/>
<path style="fill:#333333;" d="M6.5,5.5L6.5,5.5c0.552,0,1,0.448,1,1l0,0c0,0.552-0.448,1-1,1l0,0c-0.552,0-1-0.448-1-1l0,0
	C5.5,5.948,5.948,5.5,6.5,5.5z"/>
<path style="fill:#333333;" d="M6.5,16.5L6.5,16.5c0.552,0,1,0.448,1,1l0,0c0,0.552-0.448,1-1,1l0,0c-0.552,0-1-0.448-1-1l0,0
	C5.5,16.948,5.948,16.5,6.5,16.5z"/>
<path style="fill:#333333;" d="M10.5,5.5L10.5,5.5c0.552,0,1,0.448,1,1l0,0c0,0.552-0.448,1-1,1l0,0c-0.552,0-1-0.448-1-1l0,0
	C9.5,5.948,9.948,5.5,10.5,5.5z"/>
<path style="fill:#333333;" d="M10.5,16.5L10.5,16.5c0.552,0,1,0.448,1,1l0,0c0,0.552-0.448,1-1,1l0,0c-0.552,0-1-0.448-1-1l0,0
	C9.5,16.948,9.948,16.5,10.5,16.5z"/>
<rect x="15.5" y="5.75" style="fill:#333333;" width="2" height="1.5"/>
<rect x="15.5" y="16.75" style="fill:#333333;" width="2" height="1.5"/>
</svg>






