<?xml version="1.0" encoding="iso-8859-1"?>
<svg version="1.1" id="&#x56FE;&#x5C42;_1" xmlns="http://www.w3.org/2000/svg" xmlns:xlink="http://www.w3.org/1999/xlink" x="0px"
	 y="0px" viewBox="0 0 24 24" style="enable-background:new 0 0 24 24;" xml:space="preserve">
<path style="fill:#333333;" d="M19,22.75H5c-0.965,0-1.75-0.785-1.75-1.75V3c0-0.965,0.785-1.75,1.75-1.75h10.094
	c0.459,0,0.893,0.177,1.222,0.497l3.905,3.804c0.336,0.328,0.529,0.785,0.529,1.253V21C20.75,21.965,19.965,22.75,19,22.75z M5,2.75
	C4.862,2.75,4.75,2.862,4.75,3v18c0,0.138,0.112,0.25,0.25,0.25h14c0.138,0,0.25-0.112,0.25-0.25V6.805
	c0-0.067-0.027-0.132-0.076-0.179l-3.906-3.805c-0.047-0.046-0.108-0.071-0.174-0.071H5z"/>
<rect x="4" y="9.75" style="fill:#333333;" width="16" height="1.5"/>
<rect x="15" y="13.75" style="fill:#333333;" width="5" height="1.5"/>
<rect x="15" y="17.25" style="fill:#333333;" width="5" height="1.5"/>
<rect x="14.25" y="10.5" style="fill:#333333;" width="1.5" height="11.5"/>
<rect x="8.25" y="10.5" style="fill:#333333;" width="1.5" height="11.5"/>
<rect x="4" y="15.75" style="fill:#333333;" width="5" height="1.5"/>
</svg>






