<?xml version="1.0" encoding="iso-8859-1"?>
<svg version="1.1" id="&#x56FE;&#x5C42;_1" xmlns="http://www.w3.org/2000/svg" xmlns:xlink="http://www.w3.org/1999/xlink" x="0px"
	 y="0px" viewBox="0 0 24 24" style="enable-background:new 0 0 24 24;" xml:space="preserve">
<path style="fill:#333333;" d="M20,20.75H4c-0.965,0-1.75-0.785-1.75-1.75V9.553c0-0.347,0.102-0.682,0.294-0.971l3.035-4.553
	C5.904,3.542,6.449,3.25,7.035,3.25H20c0.965,0,1.75,0.785,1.75,1.75v14C21.75,19.965,20.965,20.75,20,20.75z M7.035,4.75
	c-0.084,0-0.162,0.042-0.208,0.111L3.792,9.414C3.765,9.455,3.75,9.504,3.75,9.553V19c0,0.138,0.112,0.25,0.25,0.25h16
	c0.138,0,0.25-0.112,0.25-0.25V5c0-0.138-0.112-0.25-0.25-0.25H7.035z"/>
<rect x="8.25" y="4" style="fill:#333333;" width="1.5" height="4"/>
<rect x="11.25" y="4" style="fill:#333333;" width="1.5" height="4"/>
<rect x="14.25" y="4" style="fill:#333333;" width="1.5" height="4"/>
<rect x="17.25" y="4" style="fill:#333333;" width="1.5" height="4"/>
<path style="fill:#333333;" d="M17.25,20.75H6.75v-7.5h10.5V20.75z M8.25,19.25h7.5v-4.5h-7.5V19.25z"/>
</svg>






