<?xml version="1.0" encoding="iso-8859-1"?>
<svg version="1.1" id="&#x56FE;&#x5C42;_1" xmlns="http://www.w3.org/2000/svg" xmlns:xlink="http://www.w3.org/1999/xlink" x="0px"
	 y="0px" viewBox="0 0 24 24" style="enable-background:new 0 0 24 24;" xml:space="preserve">
<path style="fill:#333333;" d="M9.778,20.114c-0.468,0-0.907-0.183-1.238-0.513l-6.364-6.364c-0.682-0.683-0.682-1.792,0-2.475
	l5.657-5.657c0.683-0.682,1.792-0.682,2.475,0l6.364,6.364c0.681,0.683,0.681,1.792,0.001,2.474l-5.658,5.658
	C10.685,19.933,10.246,20.114,9.778,20.114z M9.071,6.093c-0.039,0-0.113,0.01-0.177,0.073l-5.657,5.657
	C3.174,11.887,3.164,11.961,3.164,12c0,0.039,0.01,0.113,0.073,0.177l6.364,6.364c0.128,0.127,0.226,0.127,0.354,0l5.657-5.657
	c0.097-0.098,0.097-0.256-0.001-0.354L9.248,6.167C9.184,6.103,9.11,6.093,9.071,6.093z"/>
<path style="fill:#333333;" d="M15.071,19.406c-0.448,0-0.896-0.171-1.237-0.512l-5.657-5.657c-0.682-0.683-0.682-1.792,0-2.475
	l5.657-5.657c0.682-0.683,1.793-0.683,2.475,0l5.656,5.657c0.683,0.682,0.683,1.792,0,2.475l-5.656,5.657
	C15.968,19.235,15.52,19.406,15.071,19.406z M9.237,11.823C9.173,11.887,9.164,11.961,9.164,12c0,0.039,0.009,0.113,0.073,0.177
	l5.657,5.657c0.127,0.127,0.227,0.127,0.354,0l5.656-5.657c0.098-0.098,0.098-0.256,0-0.354l-5.656-5.657
	c-0.098-0.098-0.256-0.098-0.354,0L9.237,11.823z"/>
</svg>






