<?xml version="1.0" encoding="iso-8859-1"?>
<svg version="1.1" id="&#x56FE;&#x5C42;_1" xmlns="http://www.w3.org/2000/svg" xmlns:xlink="http://www.w3.org/1999/xlink" x="0px"
	 y="0px" viewBox="0 0 24 24" style="enable-background:new 0 0 24 24;" xml:space="preserve">
<path style="fill:#333333;" d="M19.5,21.75h-15c-1.241,0-2.25-1.01-2.25-2.25v-15c0-1.241,1.009-2.25,2.25-2.25h15
	c1.24,0,2.25,1.009,2.25,2.25v15C21.75,20.74,20.74,21.75,19.5,21.75z M4.5,3.75c-0.414,0-0.75,0.336-0.75,0.75v15
	c0,0.413,0.336,0.75,0.75,0.75h15c0.413,0,0.75-0.337,0.75-0.75v-15c0-0.414-0.337-0.75-0.75-0.75H4.5z"/>
<path style="fill:#333333;" d="M7.778,17.696l-0.959-1.012l0.566-1.223c0.167-0.359-0.002-0.811-0.216-1.112
	C6.568,13.5,6.25,12.515,6.25,11.5c0-2.895,2.58-5.25,5.75-5.25c3.171,0,5.75,2.355,5.75,5.25c0,2.19-1.512,4.171-3.761,4.928
	C13.351,16.642,12.682,16.75,12,16.75C10.172,16.75,7.802,17.688,7.778,17.696z M12,7.75c-2.343,0-4.25,1.682-4.25,3.75
	c0,0.703,0.222,1.389,0.643,1.982c0.511,0.721,0.679,1.547,0.477,2.274C9.784,15.5,10.945,15.25,12,15.25
	c0.52,0,1.028-0.082,1.512-0.244c1.638-0.551,2.738-1.96,2.738-3.506C16.25,9.432,14.344,7.75,12,7.75z"/>
</svg>






