<?xml version="1.0" encoding="iso-8859-1"?>
<svg version="1.1" id="&#x56FE;&#x5C42;_1" xmlns="http://www.w3.org/2000/svg" xmlns:xlink="http://www.w3.org/1999/xlink" x="0px"
	 y="0px" viewBox="0 0 24 24" style="enable-background:new 0 0 24 24;" xml:space="preserve">
<path style="fill:#333333;" d="M4.75,22.214V19.25h-3.5V2.75h21.5v16.5H10.677L4.75,22.214z M2.75,17.75h3.5v2.036l4.073-2.036
	H21.25V4.25H2.75V17.75z"/>
<rect x="14.75" y="8" style="fill:#333333;" width="1.5" height="0.5"/>
<rect x="7.75" y="8" style="fill:#333333;" width="1.5" height="0.5"/>
<path style="fill:#333333;" d="M12,15.25c-2.93,0-4.122-2.316-4.171-2.415l1.342-0.67c0.031,0.06,0.846,1.585,2.829,1.585
	c1.983,0,2.798-1.525,2.832-1.591l1.339,0.676C16.121,12.934,14.93,15.25,12,15.25z"/>
</svg>






