<?xml version="1.0" encoding="iso-8859-1"?>
<svg version="1.1" id="&#x56FE;&#x5C42;_1" xmlns="http://www.w3.org/2000/svg" xmlns:xlink="http://www.w3.org/1999/xlink" x="0px"
	 y="0px" viewBox="0 0 24 24" style="enable-background:new 0 0 24 24;" xml:space="preserve">
<path style="fill:#333333;" d="M19.5,21.75h-15c-1.241,0-2.25-1.01-2.25-2.25v-15c0-1.241,1.009-2.25,2.25-2.25h15
	c1.24,0,2.25,1.009,2.25,2.25v15C21.75,20.74,20.74,21.75,19.5,21.75z M4.5,3.75c-0.414,0-0.75,0.336-0.75,0.75v15
	c0,0.413,0.336,0.75,0.75,0.75h15c0.413,0,0.75-0.337,0.75-0.75v-15c0-0.414-0.337-0.75-0.75-0.75H4.5z"/>
<path style="fill:#333333;" d="M12.5,17.25H6.75V11.5c0-3.17,2.58-5.75,5.75-5.75c3.171,0,5.75,2.58,5.75,5.75
	C18.25,14.671,15.671,17.25,12.5,17.25z M8.25,15.75h4.25c2.344,0,4.25-1.906,4.25-4.25c0-2.343-1.906-4.25-4.25-4.25
	c-2.343,0-4.25,1.907-4.25,4.25V15.75z"/>
<rect x="11" y="9.75" style="fill:#333333;" width="3" height="1.5"/>
<rect x="11" y="12.75" style="fill:#333333;" width="1" height="1.5"/>
</svg>






