<?xml version="1.0" encoding="iso-8859-1"?>
<svg version="1.1" id="&#x56FE;&#x5C42;_1" xmlns="http://www.w3.org/2000/svg" xmlns:xlink="http://www.w3.org/1999/xlink" x="0px"
	 y="0px" viewBox="0 0 24 24" style="enable-background:new 0 0 24 24;" xml:space="preserve">
<polygon style="fill:#333333;" points="4.75,22.214 4.75,19.25 1.25,19.25 1.25,2.75 22.75,2.75 22.75,9 21.25,9 21.25,4.25 
	2.75,4.25 2.75,17.75 6.25,17.75 6.25,19.786 10.323,17.75 12.75,17.75 12.75,19.25 10.677,19.25 "/>
<path style="fill:#333333;" d="M22.75,18.25h-8.5v-5.5h8.5V18.25z M15.75,16.75h5.5v-2.5h-5.5V16.75z"/>
<path style="fill:#333333;" d="M20.75,13.5h-1.5V12c0-0.414-0.337-0.75-0.75-0.75s-0.75,0.336-0.75,0.75v1.5h-1.5V12
	c0-1.241,1.01-2.25,2.25-2.25s2.25,1.009,2.25,2.25V13.5z"/>
<rect x="6" y="6.75" style="fill:#333333;" width="3" height="1.5"/>
<rect x="6" y="9.75" style="fill:#333333;" width="6" height="1.5"/>
</svg>






