<?xml version="1.0" encoding="iso-8859-1"?>
<svg version="1.1" id="&#x56FE;&#x5C42;_1" xmlns="http://www.w3.org/2000/svg" xmlns:xlink="http://www.w3.org/1999/xlink" x="0px"
	 y="0px" viewBox="0 0 24 24" style="enable-background:new 0 0 24 24;" xml:space="preserve">
<polygon style="fill:#333333;" points="4.75,22.214 4.75,19.25 1.25,19.25 1.25,2.75 22.75,2.75 22.75,9 21.25,9 21.25,4.25 
	2.75,4.25 2.75,17.75 6.25,17.75 6.25,19.786 10.323,17.75 12.75,17.75 12.75,19.25 10.677,19.25 "/>
<path style="fill:#333333;" d="M18,19.878l-0.391-0.237c-0.157-0.097-3.859-2.406-3.859-7.041c0-0.434,0-1.089,4.031-2.317
	L18,10.216l0.219,0.067c4.031,1.228,4.031,1.883,4.031,2.317c0,4.635-3.702,6.944-3.859,7.041L18,19.878z M15.255,12.864
	c0.107,2.843,1.925,4.576,2.745,5.217c0.819-0.64,2.638-2.373,2.745-5.217c-0.442-0.273-1.659-0.736-2.745-1.079
	C16.914,12.128,15.697,12.591,15.255,12.864z"/>
<rect x="6" y="6.75" style="fill:#333333;" width="3" height="1.5"/>
<rect x="6" y="9.75" style="fill:#333333;" width="6" height="1.5"/>
</svg>






