<?xml version="1.0" encoding="iso-8859-1"?>
<svg version="1.1" id="&#x56FE;&#x5C42;_1" xmlns="http://www.w3.org/2000/svg" xmlns:xlink="http://www.w3.org/1999/xlink" x="0px"
	 y="0px" viewBox="0 0 24 24" style="enable-background:new 0 0 24 24;" xml:space="preserve">
<polygon style="fill:#333333;" points="4.75,22.214 4.75,19.25 1.25,19.25 1.25,2.75 22.75,2.75 22.75,9 21.25,9 21.25,4.25 
	2.75,4.25 2.75,17.75 6.25,17.75 6.25,19.786 10.323,17.75 12.75,17.75 12.75,19.25 10.677,19.25 "/>
<path style="fill:#333333;" d="M17,17.75c-2.067,0-3.75-1.683-3.75-3.75c0-2.068,1.683-3.75,3.75-3.75s3.75,1.682,3.75,3.75
	C20.75,16.067,19.067,17.75,17,17.75z M17,11.75c-1.24,0-2.25,1.01-2.25,2.25s1.01,2.25,2.25,2.25s2.25-1.01,2.25-2.25
	S18.24,11.75,17,11.75z"/>
<rect x="20" y="15.399" transform="matrix(0.6247 -0.7809 0.7809 0.6247 -5.4872 22.5832)" style="fill:#333333;" width="1.501" height="3.202"/>
<rect x="6" y="6.75" style="fill:#333333;" width="3" height="1.5"/>
<rect x="6" y="9.75" style="fill:#333333;" width="6" height="1.5"/>
</svg>






