<?xml version="1.0" encoding="iso-8859-1"?>
<svg version="1.1" id="&#x56FE;&#x5C42;_1" xmlns="http://www.w3.org/2000/svg" xmlns:xlink="http://www.w3.org/1999/xlink" x="0px"
	 y="0px" viewBox="0 0 24 24" style="enable-background:new 0 0 24 24;" xml:space="preserve">
<path style="fill:#333333;" d="M18.5,22.25H5c-0.965,0-1.75-0.785-1.75-1.75v-2.86l2.5-2v-0.89h-2.5v-2.521l2.5-3V3.5
	c0-0.965,0.785-1.75,1.75-1.75h11c0.965,0,1.75,0.785,1.75,1.75v17C20.25,21.465,19.465,22.25,18.5,22.25z M4.75,18.36v2.14
	c0,0.138,0.112,0.25,0.25,0.25h13.5c0.138,0,0.25-0.112,0.25-0.25v-17c0-0.138-0.112-0.25-0.25-0.25h-11
	c-0.138,0-0.25,0.112-0.25,0.25v6.271l-2.5,3v0.479h2.5v3.11L4.75,18.36z"/>
<rect x="15.25" y="5.5" style="fill:#333333;" width="1.5" height="2"/>
<rect x="9.25" y="5.5" style="fill:#333333;" width="1.5" height="2"/>
<rect x="12.25" y="5.5" style="fill:#333333;" width="1.5" height="2"/>
</svg>






