<?xml version="1.0" encoding="iso-8859-1"?>
<svg version="1.1" id="&#x56FE;&#x5C42;_1" xmlns="http://www.w3.org/2000/svg" xmlns:xlink="http://www.w3.org/1999/xlink" x="0px"
	 y="0px" viewBox="0 0 24 24" style="enable-background:new 0 0 24 24;" xml:space="preserve">
<path style="fill:#333333;" d="M8.425,15.807C8.424,15.807,8.424,15.807,8.425,15.807c-0.335,0-0.649-0.131-0.884-0.367
	l-3.485-3.484c-0.32-0.32-0.32-0.841,0-1.162l6.844-6.844c1.364-1.363,3.585-1.365,4.95,0c1.364,1.364,1.364,3.584,0,4.95
	l-0.818,0.818l-1.061-1.062l0.818-0.817c0.779-0.779,0.779-2.048,0-2.828c-0.78-0.78-2.051-0.779-2.829,0l-6.364,6.364l2.829,2.829
	l2.231-2.232l1.062,1.061L9.309,15.44C9.073,15.677,8.759,15.807,8.425,15.807z"/>
<path style="fill:#333333;" d="M16.557,6.778l-3.536-3.536l1.414-1.414c0.975-0.976,2.562-0.975,3.536,0
	c0.473,0.472,0.732,1.1,0.732,1.768s-0.26,1.296-0.732,1.768L16.557,6.778z M15.142,3.243l1.415,1.415l0.354-0.354
	c0.189-0.189,0.293-0.44,0.293-0.707S17.1,3.078,16.91,2.89c-0.38-0.38-1.036-0.378-1.415,0L15.142,3.243z"/>
<path style="fill:#333333;" d="M5.596,17.738l-3.535-3.535l3.182-3.182l3.536,3.535L5.596,17.738z M4.182,14.203l1.414,1.414
	l1.061-1.061l-1.415-1.414L4.182,14.203z"/>
<path style="fill:#333333;" d="M13.021,14.02c-0.768,0-1.536-0.292-2.121-0.877c-1.169-1.17-1.169-3.073,0-4.243
	c1.135-1.133,3.11-1.132,4.242,0l0,0l0,0c1.17,1.17,1.17,3.073,0,4.243C14.558,13.728,13.789,14.02,13.021,14.02z M13.021,9.521
	c-0.4,0-0.777,0.156-1.061,0.439c-0.584,0.585-0.584,1.537,0,2.122c0.587,0.585,1.537,0.583,2.121,0
	c0.585-0.585,0.585-1.537,0-2.122l0,0C13.798,9.677,13.422,9.521,13.021,9.521z"/>
<rect x="5.432" y="8.682" transform="matrix(0.7071 -0.7071 0.7071 0.7071 -7.5104 8.2317)" style="fill:#333333;" width="1.5" height="9"/>
<rect x="5" y="21.25" style="fill:#333333;" width="16" height="1.5"/>
<path style="fill:#333333;" d="M15.955,22.596l-0.91-1.191l0.301-0.229c1.437-1.081,3.404-2.562,3.404-5.176
	c0-2.625-1.687-4.25-3.25-4.25v-1.5c2.284,0,4.75,2.198,4.75,5.75c0,3.361-2.505,5.248-4.002,6.375L15.955,22.596z"/>
</svg>






