<?xml version="1.0" encoding="iso-8859-1"?>
<svg version="1.1" id="&#x56FE;&#x5C42;_1" xmlns="http://www.w3.org/2000/svg" xmlns:xlink="http://www.w3.org/1999/xlink" x="0px"
	 y="0px" viewBox="0 0 24 24" style="enable-background:new 0 0 24 24;" xml:space="preserve">
<path style="fill:#333333;" d="M20.5,17.75h-17c-0.965,0-1.75-0.785-1.75-1.75V6c0-0.965,0.785-1.75,1.75-1.75h17
	c0.965,0,1.75,0.785,1.75,1.75v10C22.25,16.965,21.465,17.75,20.5,17.75z M3.5,5.75C3.362,5.75,3.25,5.862,3.25,6v10
	c0,0.138,0.112,0.25,0.25,0.25h17c0.138,0,0.25-0.112,0.25-0.25V6c0-0.138-0.112-0.25-0.25-0.25H3.5z"/>
<rect x="10" y="8.75" style="fill:#333333;" width="2" height="1.5"/>
<rect x="6.5" y="11.75" style="fill:#333333;" width="11" height="1.5"/>
<rect x="5.25" y="17" style="fill:#333333;" width="1.5" height="2"/>
<rect x="9.25" y="17" style="fill:#333333;" width="1.5" height="2"/>
<rect x="13.25" y="17" style="fill:#333333;" width="1.5" height="2"/>
<rect x="17.25" y="17" style="fill:#333333;" width="1.5" height="2"/>
<path style="fill:#333333;" d="M7.5,9.5c0,0.552-0.448,1-1,1s-1-0.448-1-1s0.448-1,1-1S7.5,8.948,7.5,9.5z"/>
</svg>






