<?xml version="1.0" encoding="iso-8859-1"?>
<svg version="1.1" id="&#x56FE;&#x5C42;_1" xmlns="http://www.w3.org/2000/svg" xmlns:xlink="http://www.w3.org/1999/xlink" x="0px"
	 y="0px" viewBox="0 0 24 24" style="enable-background:new 0 0 24 24;" xml:space="preserve">
<path style="fill:none;" d="M22,13c0,1.32-0.365,2.554-1,3.608c-0.59,0.979-1.413,1.802-2.392,2.392c-1.054,0.635-2.288,1-3.608,1
	s-2.554-0.365-3.608-1C9.36,17.775,8,15.546,8,13s1.36-4.775,3.392-6C12.446,6.365,13.68,6,15,6s2.554,0.365,3.608,1
	C19.587,7.59,20.41,8.413,21,9.392C21.635,10.446,22,11.68,22,13z"/>
<path style="fill:none;" d="M2,7v12h9.392C9.36,17.775,8,15.546,8,13s1.36-4.775,3.392-6H2z"/>
<path style="fill:#333333;" d="M15,20.75c-1.339,0-2.651-0.345-3.81-1H1.25V6.25h9.94c2.318-1.31,5.302-1.31,7.621,0h2.939v2.94
	c0.655,1.158,1,2.471,1,3.81c0,1.339-0.345,2.651-1,3.811v2.939h-2.939C17.651,20.405,16.339,20.75,15,20.75z M11.78,18.357
	c1.939,1.168,4.501,1.168,6.441,0L18.607,19l-0.387-0.643c0.872-0.525,1.611-1.265,2.137-2.137L21,16.607l-0.643-0.387
	c0.584-0.97,0.893-2.083,0.893-3.221c0-1.138-0.309-2.251-0.893-3.22L21,9.393l-0.643,0.387c-0.525-0.872-1.264-1.611-2.137-2.137
	l0,0c-1.939-1.168-4.502-1.168-6.441,0C9.883,8.786,8.75,10.788,8.75,13S9.882,17.215,11.78,18.357L11.393,19L11.78,18.357z
	 M2.75,18.25h6.554C8.006,16.835,7.25,14.958,7.25,13c0-1.989,0.739-3.842,2.042-5.25H2.75V18.25z M11.393,7l0.021,0.036L11.393,7z"
	/>
<path style="fill:#333333;" d="M9.25,7.75h-6v-4h6V7.75z M4.75,6.25h3v-1h-3V6.25z"/>
<rect x="4.25" y="11" style="fill:#333333;" width="1.5" height="4"/>
<path style="fill:#333333;" d="M15,16.75v-1.5c1.24,0,2.25-1.01,2.25-2.25h1.5C18.75,15.067,17.067,16.75,15,16.75z M12.75,13h-1.5
	c0-2.068,1.683-3.75,3.75-3.75v1.5C13.76,10.75,12.75,11.759,12.75,13z"/>
</svg>






