<?xml version="1.0" encoding="iso-8859-1"?>
<svg version="1.1" id="&#x56FE;&#x5C42;_1" xmlns="http://www.w3.org/2000/svg" xmlns:xlink="http://www.w3.org/1999/xlink" x="0px"
	 y="0px" viewBox="0 0 24 24" style="enable-background:new 0 0 24 24;" xml:space="preserve">
<path style="fill:#333333;" d="M14.934,18.178c-0.6,0-1.204-0.168-1.745-0.512L7.097,13.79l0.344-1.374l0-0.007
	c0.021-0.001,2.052-0.184,3.418-1.55c1.367-1.366,1.549-3.398,1.55-3.418l1.381-0.343l3.876,6.091
	c0.821,1.293,0.64,2.951-0.443,4.034C16.593,17.853,15.768,18.178,14.934,18.178z M9.397,13.476l4.596,2.925
	c0.695,0.44,1.586,0.344,2.169-0.238c0.582-0.582,0.68-1.474,0.238-2.169l-2.925-4.596c-0.289,0.801-0.768,1.733-1.556,2.522
	S10.198,13.187,9.397,13.476z"/>
<path style="fill:#333333;" d="M7.5,13.75c-3.446,0-6.25-2.804-6.25-6.25S4.054,1.25,7.5,1.25s6.25,2.804,6.25,6.25
	S10.946,13.75,7.5,13.75z M7.5,2.75c-2.619,0-4.75,2.131-4.75,4.75s2.131,4.75,4.75,4.75s4.75-2.131,4.75-4.75S10.119,2.75,7.5,2.75
	z"/>
<rect x="0.778" y="7.029" transform="matrix(0.7071 -0.7071 0.7071 0.7071 -3.2221 7.7782)" style="fill:#333333;" width="14" height="1.5"/>
<polygon style="fill:#333333;" points="21,21.25 16.5,21.25 16.5,19.75 19.189,19.75 16.47,17.03 17.53,15.97 21.53,19.97 "/>
</svg>






