<?xml version="1.0" encoding="iso-8859-1"?>
<svg version="1.1" id="&#x56FE;&#x5C42;_1" xmlns="http://www.w3.org/2000/svg" xmlns:xlink="http://www.w3.org/1999/xlink" x="0px"
	 y="0px" viewBox="0 0 24 24" style="enable-background:new 0 0 24 24;" xml:space="preserve">
<path style="fill:#333333;" d="M13.427,22.616l-0.854-1.232c1.972-1.365,3.033-2.716,3.154-4.014
	c0.118-1.261-0.234-2.163-1.077-2.757l0.865-1.227c1.302,0.919,1.875,2.306,1.706,4.122C17.057,19.27,15.78,20.988,13.427,22.616z"
	/>
<path style="fill:#333333;" d="M13.828,14.861c-1.654,0-3-1.346-3-3s1.346-3,3-3s3,1.346,3,3S15.482,14.861,13.828,14.861z
	 M13.828,10.361c-0.827,0-1.501,0.673-1.501,1.5s0.674,1.5,1.501,1.5s1.5-0.673,1.5-1.5S14.655,10.361,13.828,10.361z"/>
<polygon style="fill:#333333;" points="9.393,17.353 3.732,11.692 13.985,1.439 19.643,7.096 16.019,10.72 14.958,9.659 
	17.521,7.096 13.985,3.561 5.854,11.692 9.386,15.226 11.611,12.973 12.678,14.027 "/>
<rect x="4.495" y="13.24" transform="matrix(0.6988 -0.7154 0.7154 0.6988 -9.8569 8.5678)" style="fill:#333333;" width="1.499" height="5.495"/>
<rect x="3" y="21.25" style="fill:#333333;" width="18" height="1.5"/>
</svg>






