<?xml version="1.0" encoding="iso-8859-1"?>
<svg version="1.1" id="&#x56FE;&#x5C42;_1" xmlns="http://www.w3.org/2000/svg" xmlns:xlink="http://www.w3.org/1999/xlink" x="0px"
	 y="0px" viewBox="0 0 24 24" style="enable-background:new 0 0 24 24;" xml:space="preserve">
<path style="fill:#333333;" d="M15.84,22.75H9.895c-2.746,0-5.65-3.213-5.65-6.25c0-2.062,1.104-3.394,3.109-3.751l0.264,1.477
	c-1.295,0.23-1.873,0.933-1.873,2.274c0,2.175,2.25,4.75,4.15,4.75h5.945c1.871,0,2.905-1.608,2.905-2.72v-6.525
	c0-0.414-0.337-0.75-0.75-0.75c-0.415,0-0.75,0.334-0.75,0.745h-1.5c0-1.238,1.008-2.245,2.246-2.245
	c1.244,0,2.254,1.009,2.254,2.25v6.525C20.245,20.568,18.475,22.75,15.84,22.75z"/>
<path style="fill:#333333;" d="M8.236,15.021h-1.5v-4.514c0-1.241,1.01-2.251,2.251-2.251c1.243,0.001,2.254,1.012,2.254,2.254
	v2.002h-1.5V10.51c0-0.416-0.338-0.754-0.753-0.754c-0.415,0-0.752,0.337-0.752,0.751V15.021z"/>
<path style="fill:#333333;" d="M14.257,12.004h-1.5V3.508c0-0.418-0.34-0.758-0.757-0.758c-0.418,0-0.758,0.34-0.758,0.758v8.496
	h-1.5V3.508c0-1.245,1.013-2.258,2.258-2.258c1.245,0,2.257,1.013,2.257,2.258V12.004z"/>
<path style="fill:#333333;" d="M17.245,12.002h-1.5v-1.5c0-0.414-0.337-0.75-0.75-0.75s-0.75,0.336-0.75,0.75v1.356h-1.5v-1.356
	c0-1.241,1.01-2.25,2.25-2.25s2.25,1.009,2.25,2.25V12.002z"/>
</svg>






