<?xml version="1.0" encoding="iso-8859-1"?>
<svg version="1.1" id="&#x56FE;&#x5C42;_1" xmlns="http://www.w3.org/2000/svg" xmlns:xlink="http://www.w3.org/1999/xlink" x="0px"
	 y="0px" viewBox="0 0 24 24" style="enable-background:new 0 0 24 24;" xml:space="preserve">
<path style="fill:#333333;" d="M16.75,22.75H2.25v-12.5h14.5V22.75z M3.75,21.25h11.5v-9.5H3.75V21.25z"/>
<polygon style="fill:#333333;" points="12.75,19 11.25,19 11.25,16.071 9.5,18.172 7.75,16.071 7.75,19 6.25,19 6.25,14 
	7.576,13.52 9.5,15.828 11.424,13.52 12.75,14 "/>
<rect x="17.25" y="3.595" transform="matrix(0.6402 -0.7682 0.7682 0.6402 0.715 16.5266)" style="fill:#333333;" width="1.5" height="7.81"/>
<path style="fill:#333333;" d="M9.25,6.915v-4.53l6.5-1.3v4.53L9.25,6.915z M10.75,3.615v1.47l3.5-0.7v-1.47L10.75,3.615z"/>
<path style="fill:#333333;" d="M15.25,23.008V10.385l6.5-1.3v11.973L15.25,23.008z M16.75,11.615v9.377l3.5-1.05v-9.027
	L16.75,11.615z"/>
<path style="fill:#333333;" d="M16,11.75H3l-0.447-1.353l7.205-5.344l6.71,5.36L16,11.75z M5.27,10.25h8.589L9.724,6.946L5.27,10.25
	z"/>
</svg>






