<?xml version="1.0" encoding="iso-8859-1"?>
<svg version="1.1" id="&#x56FE;&#x5C42;_1" xmlns="http://www.w3.org/2000/svg" xmlns:xlink="http://www.w3.org/1999/xlink" x="0px"
	 y="0px" viewBox="0 0 24 24" style="enable-background:new 0 0 24 24;" xml:space="preserve">
<path style="fill:#333333;" d="M17,22.75H7c-0.965,0-1.75-0.785-1.75-1.75V9.787c0-0.328,0.092-0.649,0.266-0.927L8.084,4.75h7.832
	l2.567,4.109c0.174,0.277,0.267,0.598,0.267,0.927V21C18.75,21.965,17.965,22.75,17,22.75z M8.916,6.25L6.788,9.654
	C6.763,9.694,6.75,9.74,6.75,9.787V21c0,0.138,0.112,0.25,0.25,0.25h10c0.138,0,0.25-0.112,0.25-0.25V9.787
	c0-0.046-0.013-0.092-0.037-0.131L15.084,6.25H8.916z"/>
<polygon style="fill:#333333;" points="15.25,16.5 13.75,16.5 13.75,14.071 12,16.172 10.25,14.071 10.25,16.5 8.75,16.5 8.75,12 
	10.076,11.52 12,13.828 13.924,11.52 15.25,12 "/>
<path style="fill:#333333;" d="M16.25,6.25h-8.5v-5h8.5V6.25z M9.25,4.75h5.5v-2h-5.5V4.75z"/>
</svg>






