<?xml version="1.0" encoding="iso-8859-1"?>
<svg version="1.1" id="&#x56FE;&#x5C42;_1" xmlns="http://www.w3.org/2000/svg" xmlns:xlink="http://www.w3.org/1999/xlink" x="0px"
	 y="0px" viewBox="0 0 24 24" style="enable-background:new 0 0 24 24;" xml:space="preserve">
<polygon style="fill:#333333;" points="22,22.75 1.25,22.75 1.25,2 2.75,2 2.75,21.25 22,21.25 "/>
<path style="fill:#333333;" d="M13.5,19.75c-6.304,0-8.959-15.829-9.241-17.634l1.482-0.231C6.453,6.436,9.235,18.25,13.5,18.25
	s7.047-11.814,7.759-16.366l1.482,0.231C22.459,3.921,19.804,19.75,13.5,19.75z"/>
<path style="fill:#333333;" d="M22,19.75h-1v-1.5h1V19.75z M18,19.75h-1v-1.5h1V19.75z M14,19.75h-1v-1.5h1V19.75z M10,19.75H9v-1.5
	h1V19.75z M6,19.75H5v-1.5h1V19.75z"/>
</svg>






