<?xml version="1.0" encoding="iso-8859-1"?>
<svg version="1.1" id="&#x56FE;&#x5C42;_1" xmlns="http://www.w3.org/2000/svg" xmlns:xlink="http://www.w3.org/1999/xlink" x="0px"
	 y="0px" viewBox="0 0 24 24" style="enable-background:new 0 0 24 24;" xml:space="preserve">
<path style="fill:#333333;" d="M4,14.75c-1.517,0-2.75-1.233-2.75-2.75S2.483,9.25,4,9.25S6.75,10.483,6.75,12S5.517,14.75,4,14.75z
	 M4,10.75c-0.689,0-1.25,0.561-1.25,1.25S3.311,13.25,4,13.25S5.25,12.689,5.25,12S4.689,10.75,4,10.75z"/>
<path style="fill:#333333;" d="M21,4.75c-0.965,0-1.75-0.785-1.75-1.75S20.035,1.25,21,1.25S22.75,2.035,22.75,3
	S21.965,4.75,21,4.75z M21,2.75c-0.138,0-0.25,0.112-0.25,0.25c0,0.275,0.5,0.275,0.5,0C21.25,2.862,21.138,2.75,21,2.75z"/>
<path style="fill:#333333;" d="M21,13.75c-0.965,0-1.75-0.785-1.75-1.75s0.785-1.75,1.75-1.75s1.75,0.785,1.75,1.75
	S21.965,13.75,21,13.75z M21,11.75c-0.138,0-0.25,0.112-0.25,0.25c0,0.275,0.5,0.275,0.5,0C21.25,11.862,21.138,11.75,21,11.75z"/>
<path style="fill:#333333;" d="M21,22.75c-0.965,0-1.75-0.785-1.75-1.75s0.785-1.75,1.75-1.75s1.75,0.785,1.75,1.75
	S21.965,22.75,21,22.75z M21,20.75c-0.138,0-0.25,0.112-0.25,0.25c0,0.275,0.5,0.275,0.5,0C21.25,20.862,21.138,20.75,21,20.75z"/>
<polygon style="fill:#333333;" points="16,21.75 9.25,21.75 9.25,2.25 16,2.25 16,3.75 10.75,3.75 10.75,20.25 16,20.25 "/>
<rect x="6" y="11.25" style="fill:#333333;" width="10" height="1.5"/>
</svg>






