<?xml version="1.0" encoding="iso-8859-1"?>
<svg version="1.1" id="&#x56FE;&#x5C42;_1" xmlns="http://www.w3.org/2000/svg" xmlns:xlink="http://www.w3.org/1999/xlink" x="0px"
	 y="0px" viewBox="0 0 24 24" style="enable-background:new 0 0 24 24;" xml:space="preserve">
<path style="fill:#333333;" d="M13.5,22.25h-10c-0.965,0-1.75-0.785-1.75-1.75v-10c0-0.965,0.785-1.75,1.75-1.75h10
	c0.965,0,1.75,0.785,1.75,1.75v10C15.25,21.465,14.465,22.25,13.5,22.25z M3.5,10.25c-0.138,0-0.25,0.112-0.25,0.25v10
	c0,0.138,0.112,0.25,0.25,0.25h10c0.138,0,0.25-0.112,0.25-0.25v-10c0-0.138-0.112-0.25-0.25-0.25H3.5z"/>
<path style="fill:#333333;" d="M20.5,15.25h-5c-0.965,0-1.75-0.785-1.75-1.75v-3c0-0.138-0.112-0.25-0.25-0.25h-3
	c-0.965,0-1.75-0.785-1.75-1.75v-5c0-0.965,0.785-1.75,1.75-1.75h10c0.965,0,1.75,0.785,1.75,1.75v10
	C22.25,14.465,21.465,15.25,20.5,15.25z M10.5,3.25c-0.138,0-0.25,0.112-0.25,0.25v5c0,0.138,0.112,0.25,0.25,0.25h3
	c0.965,0,1.75,0.785,1.75,1.75v3c0,0.138,0.112,0.25,0.25,0.25h5c0.138,0,0.25-0.112,0.25-0.25v-10c0-0.138-0.112-0.25-0.25-0.25
	H10.5z"/>
</svg>






