<?xml version="1.0" encoding="iso-8859-1"?>
<svg version="1.1" id="&#x56FE;&#x5C42;_1" xmlns="http://www.w3.org/2000/svg" xmlns:xlink="http://www.w3.org/1999/xlink" x="0px"
	 y="0px" viewBox="0 0 24 24" style="enable-background:new 0 0 24 24;" xml:space="preserve">
<path style="fill:#333333;" d="M12,15.75c-3.998,0-7.25-3.252-7.25-7.25c0-3.998,3.252-7.25,7.25-7.25c3.998,0,7.25,3.252,7.25,7.25
	C19.25,12.498,15.998,15.75,12,15.75z M12,2.75c-3.17,0-5.75,2.58-5.75,5.75s2.58,5.75,5.75,5.75c3.171,0,5.75-2.58,5.75-5.75
	S15.171,2.75,12,2.75z"/>
<path style="fill:#333333;" d="M12,18.25c-5.376,0-9.75-4.374-9.75-9.75h1.5c0,4.549,3.701,8.25,8.25,8.25s8.25-3.701,8.25-8.25h1.5
	C21.75,13.876,17.376,18.25,12,18.25z"/>
<rect x="19" y="7.75" style="fill:#333333;" width="2" height="1.5"/>
<rect x="3" y="7.75" style="fill:#333333;" width="2" height="1.5"/>
<rect x="9" y="21.25" style="fill:#333333;" width="6" height="1.5"/>
<rect x="11.25" y="18" style="fill:#333333;" width="1.5" height="4"/>
</svg>






