<?xml version="1.0" encoding="iso-8859-1"?>
<svg version="1.1" id="&#x56FE;&#x5C42;_1" xmlns="http://www.w3.org/2000/svg" xmlns:xlink="http://www.w3.org/1999/xlink" x="0px"
	 y="0px" viewBox="0 0 24 24" style="enable-background:new 0 0 24 24;" xml:space="preserve">
<path style="fill:#333333;" d="M17,22.75H7c-1.379,0-4.25,0-4.25-2.75v-3.75h6.835l0.5,2h4.329l0.5-2h6.336V20
	C21.25,22.75,18.38,22.75,17,22.75z M4.25,17.75V20c0,0.614,0,1.25,2.75,1.25h10c2.75,0,2.75-0.636,2.75-1.25v-2.25h-3.664l-0.5,2
	H8.915l-0.5-2H4.25z"/>
<path style="fill:#333333;" d="M18.627,17.411l-1.254-0.822l0.306-0.46c0.971-1.453,2.071-3.101,2.071-5.202
	c0-4.662-3.332-8.177-7.75-8.177c-4.418,0-7.75,3.516-7.75,8.177c0,2.101,1.101,3.749,2.072,5.202l0.305,0.46l-1.254,0.822
	l-0.299-0.449c-1.035-1.55-2.324-3.479-2.324-6.035C2.75,5.41,6.727,1.25,12,1.25s9.25,4.16,9.25,9.677
	c0,2.556-1.289,4.485-2.324,6.035L18.627,17.411z"/>
</svg>






