<?xml version="1.0" encoding="iso-8859-1"?>
<svg version="1.1" id="&#x56FE;&#x5C42;_1" xmlns="http://www.w3.org/2000/svg" xmlns:xlink="http://www.w3.org/1999/xlink" x="0px"
	 y="0px" viewBox="0 0 24 24" style="enable-background:new 0 0 24 24;" xml:space="preserve">
<path style="fill:#333333;" d="M10,15.75c-3.722,0-6.75-3.028-6.75-6.75c0-3.722,3.028-6.75,6.75-6.75v1.5
	C7.105,3.75,4.75,6.105,4.75,9s2.355,5.25,5.25,5.25V15.75z"/>
<path style="fill:#333333;" d="M10,11.75c-1.517,0-2.75-1.233-2.75-2.75S8.483,6.25,10,6.25v1.5C9.311,7.75,8.75,8.311,8.75,9
	s0.561,1.25,1.25,1.25V11.75z"/>
<path style="fill:#333333;" d="M14,17.75v-1.5c0.689,0,1.25-0.561,1.25-1.25s-0.561-1.25-1.25-1.25v-1.5
	c1.517,0,2.75,1.233,2.75,2.75S15.517,17.75,14,17.75z"/>
<path style="fill:#333333;" d="M14,21.75v-1.5c2.895,0,5.25-2.355,5.25-5.25S16.895,9.75,14,9.75v-1.5c3.722,0,6.75,3.028,6.75,6.75
	C20.75,18.722,17.722,21.75,14,21.75z"/>
</svg>






