<?xml version="1.0" encoding="iso-8859-1"?>
<svg version="1.1" id="&#x56FE;&#x5C42;_1" xmlns="http://www.w3.org/2000/svg" xmlns:xlink="http://www.w3.org/1999/xlink" x="0px"
	 y="0px" viewBox="0 0 24 24" style="enable-background:new 0 0 24 24;" xml:space="preserve">
<path style="fill:#333333;" d="M12,16.396L7.611,9.5L12,2.603L16.389,9.5L12,16.396z M9.389,9.5L12,13.603L14.611,9.5L12,5.397
	L9.389,9.5z"/>
<path style="fill:#333333;" d="M22,20.75h-7.068l-3.556-5.334L12,14.25h7.068l3.556,5.334L22,20.75z M15.734,19.25h4.864l-2.333-3.5
	h-4.864L15.734,19.25z"/>
<path style="fill:#333333;" d="M9.068,20.75H2l-0.624-1.166l3.556-5.334H12l0.624,1.166L9.068,20.75z M3.401,19.25h4.864l2.333-3.5
	H5.735L3.401,19.25z"/>
</svg>






