<?xml version="1.0" encoding="iso-8859-1"?>
<svg version="1.1" id="&#x56FE;&#x5C42;_1" xmlns="http://www.w3.org/2000/svg" xmlns:xlink="http://www.w3.org/1999/xlink" x="0px"
	 y="0px" viewBox="0 0 24 24" style="enable-background:new 0 0 24 24;" xml:space="preserve">
<path style="fill:#333333;" d="M5.263,9.566L3.141,7.444c-0.331-0.33-0.513-0.77-0.513-1.237c0-0.467,0.182-0.907,0.513-1.237
	L5.97,2.141c0.684-0.682,1.793-0.68,2.474,0l2.122,2.122L9.505,5.323L7.384,3.202c-0.098-0.097-0.255-0.097-0.354,0L4.202,6.03
	C4.138,6.094,4.128,6.168,4.128,6.207S4.138,6.32,4.201,6.383l2.122,2.122L5.263,9.566z"/>
<path style="fill:#333333;" d="M17.293,21.87c-0.448,0-0.896-0.171-1.237-0.512l-2.122-2.121l1.061-1.061l2.122,2.121
	c0.098,0.098,0.256,0.098,0.354,0l2.828-2.828c0.098-0.098,0.098-0.256,0-0.354l-2.121-2.121l1.061-1.061l2.121,2.121
	c0.683,0.683,0.683,1.792,0,2.475l-2.828,2.828C18.189,21.699,17.741,21.87,17.293,21.87z"/>
<path style="fill:#333333;" d="M6.696,21.882c-0.467,0-0.907-0.182-1.237-0.513l-2.828-2.828C2.3,18.21,2.118,17.771,2.118,17.303
	s0.183-0.907,0.513-1.237L16.065,2.631c0.682-0.682,1.794-0.683,2.476,0l2.828,2.829c0.331,0.331,0.513,0.77,0.513,1.237
	S21.7,7.604,21.369,7.934L7.934,21.369C7.604,21.7,7.164,21.882,6.696,21.882z M17.304,3.618c-0.064,0-0.129,0.024-0.178,0.073
	L3.691,17.127c-0.064,0.063-0.073,0.138-0.073,0.176c0,0.039,0.009,0.114,0.073,0.178l2.828,2.828c0.097,0.097,0.255,0.099,0.354,0
	L20.309,6.874c0.098-0.098,0.098-0.256,0-0.354L17.48,3.691C17.432,3.643,17.367,3.618,17.304,3.618z"/>
<circle style="fill:#333333;" cx="12" cy="12" r="1"/>
<circle style="fill:#333333;" cx="10" cy="14" r="1"/>
<circle style="fill:#333333;" cx="14" cy="10" r="1"/>
</svg>






