<?xml version="1.0" encoding="iso-8859-1"?>
<svg version="1.1" id="&#x56FE;&#x5C42;_1" xmlns="http://www.w3.org/2000/svg" xmlns:xlink="http://www.w3.org/1999/xlink" x="0px"
	 y="0px" viewBox="0 0 24 24" style="enable-background:new 0 0 24 24;" xml:space="preserve">
<path style="fill:#333333;" d="M12,17.75c-4.549,0-8.25-3.701-8.25-8.25S7.451,1.25,12,1.25s8.25,3.701,8.25,8.25
	S16.549,17.75,12,17.75z M12,2.75c-3.722,0-6.75,3.028-6.75,6.75c0,3.722,3.028,6.75,6.75,6.75c3.722,0,6.75-3.028,6.75-6.75
	C18.75,5.778,15.722,2.75,12,2.75z"/>
<path style="fill:#333333;" d="M12,13.25c-2.068,0-3.75-1.682-3.75-3.75S9.932,5.75,12,5.75c2.067,0,3.75,1.682,3.75,3.75
	S14.067,13.25,12,13.25z M12,7.25c-1.241,0-2.25,1.009-2.25,2.25s1.009,2.25,2.25,2.25c1.24,0,2.25-1.009,2.25-2.25
	S13.24,7.25,12,7.25z"/>
<path style="fill:#333333;" d="M17.047,22.75H6.956l2.189-6.5h5.693L17.047,22.75z M9.044,21.25h5.909l-1.188-3.5h-3.542
	L9.044,21.25z"/>
<rect x="6" y="21.25" style="fill:#333333;" width="12" height="1.5"/>
</svg>






