<?xml version="1.0" encoding="iso-8859-1"?>
<svg version="1.1" id="&#x56FE;&#x5C42;_1" xmlns="http://www.w3.org/2000/svg" xmlns:xlink="http://www.w3.org/1999/xlink" x="0px"
	 y="0px" viewBox="0 0 24 24" style="enable-background:new 0 0 24 24;" xml:space="preserve">
<path style="fill:#333333;" d="M12,22.75c-2.832,0-5.504-1.091-7.525-3.073c-0.993-0.973-1.776-2.109-2.331-3.377l1.375-0.6
	c0.476,1.09,1.151,2.068,2.005,2.906C7.264,20.312,9.563,21.25,12,21.25c4.848,0,8.837-3.749,9.22-8.5h-4.11l-3.002-4.288
	l-3.937,7.873l-1.307,0.062L6.584,12.75H1.25V12C1.25,6.072,6.072,1.25,12,1.25c2.975,0,5.743,1.188,7.794,3.346
	c0.921,0.969,1.644,2.083,2.149,3.312l-1.387,0.571c-0.436-1.057-1.058-2.016-1.851-2.85C16.941,3.772,14.56,2.75,12,2.75
	c-4.848,0-8.837,3.749-9.22,8.5h4.635l2.012,3.219l4.465-8.931l3.998,5.712h4.859V12C22.75,17.928,17.928,22.75,12,22.75z"/>
</svg>






