<?xml version="1.0" encoding="iso-8859-1"?>
<svg version="1.1" id="&#x56FE;&#x5C42;_1" xmlns="http://www.w3.org/2000/svg" xmlns:xlink="http://www.w3.org/1999/xlink" x="0px"
	 y="0px" viewBox="0 0 24 24" style="enable-background:new 0 0 24 24;" xml:space="preserve">
<path style="fill:#333333;" d="M20.5,17.75h-17c-0.965,0-1.75-0.785-1.75-1.75V4c0-0.965,0.785-1.75,1.75-1.75h17
	c0.965,0,1.75,0.785,1.75,1.75v12C22.25,16.965,21.465,17.75,20.5,17.75z M3.5,3.75C3.362,3.75,3.25,3.862,3.25,4v12
	c0,0.138,0.112,0.25,0.25,0.25h17c0.138,0,0.25-0.112,0.25-0.25V4c0-0.138-0.112-0.25-0.25-0.25H3.5z"/>
<path style="fill:#333333;" d="M20.5,17.75h-17c-0.965,0-1.75-0.785-1.75-1.75v-3c0-0.965,0.785-1.75,1.75-1.75h17
	c0.965,0,1.75,0.785,1.75,1.75v3C22.25,16.965,21.465,17.75,20.5,17.75z M3.5,12.75c-0.138,0-0.25,0.112-0.25,0.25v3
	c0,0.138,0.112,0.25,0.25,0.25h17c0.138,0,0.25-0.112,0.25-0.25v-3c0-0.138-0.112-0.25-0.25-0.25H3.5z"/>
<rect x="8.399" y="6.5" transform="matrix(0.625 -0.7806 0.7806 0.625 -1.9096 10.5248)" style="fill:#333333;" width="3.202" height="1.5"/>
<rect x="12" y="7.25" transform="matrix(0.6003 -0.7998 0.7998 0.6003 -1.1019 13.7952)" style="fill:#333333;" width="2.5" height="1.5"/>
<circle style="fill:#333333;" cx="12" cy="14.5" r="1"/>
<polygon style="fill:#333333;" points="18.082,21.75 5.918,21.75 7.798,16.736 9.202,17.264 8.082,20.25 15.918,20.25 
	14.798,17.264 16.202,16.736 "/>
</svg>






