<?xml version="1.0" encoding="iso-8859-1"?>
<svg version="1.1" id="&#x56FE;&#x5C42;_1" xmlns="http://www.w3.org/2000/svg" xmlns:xlink="http://www.w3.org/1999/xlink" x="0px"
	 y="0px" viewBox="0 0 24 24" style="enable-background:new 0 0 24 24;" xml:space="preserve">
<path style="fill:#333333;" d="M2.75,22h-1.5V7c0.28-3.109,1.664-4.453,2.776-5.045C5.751,1.036,7.841,1.35,9.146,2.066l0.268,0.147
	l0.089,0.292c0.28,0.921,0.628,2.066,0.947,2.273c1.251,0.659,1.654,1.548,1.762,2.171c0.181,1.042-0.327,2.039-0.862,2.625
	l-1.106-1.013c0.282-0.308,0.579-0.848,0.491-1.356C10.661,6.779,10.31,6.397,9.691,6.07C8.946,5.591,8.603,4.679,8.163,3.251
	C7.229,2.839,5.845,2.686,4.73,3.279C3.587,3.887,2.92,5.162,2.747,7.068L2.75,22z"/>
<path style="fill:#333333;" d="M18.628,22.805c-0.059,0-0.117-0.001-0.177-0.004c-1.435-0.06-2.67-0.852-3.146-2.018
	c-1.913-5.182-4.947-6.806-7.063-7.579l0.515-1.409c3.756,1.373,6.355,4.134,7.946,8.445c0.242,0.591,0.974,1.027,1.812,1.062
	c0.501,0.02,1.777-0.096,2.567-1.644c0.165-0.323,0.179-0.76,0.038-1.168c-0.154-0.446-0.564-1.083-1.646-1.586
	c-1.269-0.589-2.217-1.987-2.206-3.251c0.005-0.598,0.229-1.697,1.677-2.34c1.483-0.487,2.843,0.208,3.715,1.83l-1.32,0.711
	c-0.366-0.68-0.989-1.428-1.857-1.143c-0.708,0.319-0.712,0.797-0.714,0.954c-0.006,0.678,0.607,1.538,1.339,1.879
	c1.559,0.724,2.182,1.735,2.431,2.457c0.275,0.797,0.231,1.649-0.12,2.338C21.626,21.894,20.218,22.805,18.628,22.805z"/>
<path style="fill:#333333;" d="M8.248,22.061l-1.495-0.121c0.154-1.894,0.901-3.332,2.221-4.274
	c1.787-1.276,4.195-1.277,5.711-0.892l-0.369,1.453c-1.305-0.33-3.19-0.255-4.471,0.659C8.902,19.56,8.364,20.628,8.248,22.061z"/>
</svg>






