<?xml version="1.0" encoding="iso-8859-1"?>
<svg version="1.1" id="&#x56FE;&#x5C42;_1" xmlns="http://www.w3.org/2000/svg" xmlns:xlink="http://www.w3.org/1999/xlink" x="0px"
	 y="0px" viewBox="0 0 24 24" style="enable-background:new 0 0 24 24;" xml:space="preserve">
<path style="fill:#333333;" d="M5.936,10.848C5.48,9.979,5.25,9.043,5.25,8.069C5.25,4.585,8.278,1.75,12,1.75
	c3.722,0,6.75,2.835,6.75,6.319c0,0.974-0.23,1.908-0.685,2.778l-1.33-0.694C17.077,9.5,17.25,8.799,17.25,8.069
	c0-2.657-2.355-4.819-5.25-4.819c-2.895,0-5.25,2.162-5.25,4.819c0,0.729,0.173,1.43,0.515,2.083L5.936,10.848z"/>
<path style="fill:#333333;" d="M12,22.25c-4.549,0-8.25-3.028-8.25-6.75c0-3.722,3.701-6.75,8.25-6.75s8.25,3.028,8.25,6.75
	C20.25,19.222,16.549,22.25,12,22.25z M12,10.25c-3.722,0-6.75,2.355-6.75,5.25s3.028,5.25,6.75,5.25c3.722,0,6.75-2.355,6.75-5.25
	S15.722,10.25,12,10.25z"/>
<path style="fill:#333333;" d="M11.986,19.026c-1.443,0-2.901-0.56-4.016-1.675l1.061-1.061c1.603,1.603,4.159,1.655,5.698,0.116
	l1.061,1.061C14.748,18.509,13.374,19.026,11.986,19.026z"/>
<path style="fill:#333333;" d="M6,12.25c-2.068,0-3.75-1.458-3.75-3.25S3.932,5.75,6,5.75v1.5C4.759,7.25,3.75,8.035,3.75,9
	S4.759,10.75,6,10.75V12.25z"/>
<path style="fill:#333333;" d="M18,12.25v-1.5c1.24,0,2.25-0.785,2.25-1.75S19.24,7.25,18,7.25v-1.5c2.067,0,3.75,1.458,3.75,3.25
	S20.067,12.25,18,12.25z"/>
<circle style="fill:#333333;" cx="10" cy="7" r="1"/>
<circle style="fill:#333333;" cx="14" cy="7" r="1"/>
</svg>






