<?xml version="1.0" encoding="iso-8859-1"?>
<svg version="1.1" id="&#x56FE;&#x5C42;_1" xmlns="http://www.w3.org/2000/svg" xmlns:xlink="http://www.w3.org/1999/xlink" x="0px"
	 y="0px" viewBox="0 0 24 24" style="enable-background:new 0 0 24 24;" xml:space="preserve">
<path style="fill:#333333;" d="M12,22.75C6.072,22.75,1.25,17.928,1.25,12S6.072,1.25,12,1.25c0.733,0,1.466,0.074,2.178,0.221
	l0.038,1.46c-2.469,0.644-4.193,2.877-4.193,5.433c0,3.095,2.518,5.614,5.614,5.614c2.555,0,4.789-1.725,5.433-4.193l1.46,0.038
	c0.146,0.71,0.221,1.443,0.221,2.178C22.75,17.928,17.928,22.75,12,22.75z M11.223,2.782C6.484,3.179,2.75,7.161,2.75,12
	c0,5.101,4.149,9.25,9.25,9.25c4.838,0,8.821-3.733,9.218-8.472c-1.318,1.665-3.354,2.699-5.581,2.699
	c-3.922,0-7.114-3.191-7.114-7.114C8.523,6.136,9.558,4.101,11.223,2.782z"/>
</svg>






