<?xml version="1.0" encoding="iso-8859-1"?>
<svg version="1.1" id="&#x56FE;&#x5C42;_1" xmlns="http://www.w3.org/2000/svg" xmlns:xlink="http://www.w3.org/1999/xlink" x="0px"
	 y="0px" viewBox="0 0 24 24" style="enable-background:new 0 0 24 24;" xml:space="preserve">
<path style="fill:#333333;" d="M12,22.75C6.072,22.75,1.25,17.928,1.25,12S6.072,1.25,12,1.25S22.75,6.072,22.75,12
	S17.928,22.75,12,22.75z M12,2.75c-5.101,0-9.25,4.149-9.25,9.25s4.149,9.25,9.25,9.25s9.25-4.149,9.25-9.25S17.101,2.75,12,2.75z"
	/>
<path style="fill-rule:evenodd;clip-rule:evenodd;fill:#333333;" d="M10.75,7c0,0.69,0.56,1.25,1.25,1.25S13.25,7.69,13.25,7
	S12.69,5.75,12,5.75S10.75,6.31,10.75,7z M10.75,12c0,0.69,0.56,1.25,1.25,1.25s1.25-0.56,1.25-1.25s-0.56-1.25-1.25-1.25
	S10.75,11.31,10.75,12z M12,18.25c-0.69,0-1.25-0.56-1.25-1.25s0.56-1.25,1.25-1.25s1.25,0.56,1.25,1.25S12.69,18.25,12,18.25z"/>
</svg>






