<?xml version="1.0" encoding="iso-8859-1"?>
<svg version="1.1" id="&#x56FE;&#x5C42;_1" xmlns="http://www.w3.org/2000/svg" xmlns:xlink="http://www.w3.org/1999/xlink" x="0px"
	 y="0px" viewBox="0 0 24 24" style="enable-background:new 0 0 24 24;" xml:space="preserve">
<rect x="4.5" y="2.75" style="fill:#333333;" width="6" height="1.5"/>
<rect x="13.5" y="2.75" style="fill:#333333;" width="6" height="1.5"/>
<path style="fill:#333333;" d="M16,18.75h-1.5v-1.5H16c0.413,0,0.75-0.337,0.75-0.75V12c0-1.792-1.458-3.25-3.25-3.25h-3
	c-1.792,0-3.25,1.458-3.25,3.25v4.5c0,0.413,0.336,0.75,0.75,0.75h1.5v1.5H8c-1.241,0-2.25-1.01-2.25-2.25V12
	c0-2.619,2.131-4.75,4.75-4.75h3c2.619,0,4.75,2.131,4.75,4.75v4.5C18.25,17.74,17.24,18.75,16,18.75z"/>
<path style="fill:#333333;" d="M12,5.75c-1.241,0-2.25-1.009-2.25-2.25S10.759,1.25,12,1.25c1.24,0,2.25,1.009,2.25,2.25
	S13.24,5.75,12,5.75z M12,2.75c-0.414,0-0.75,0.336-0.75,0.75S11.586,4.25,12,4.25c0.413,0,0.75-0.336,0.75-0.75
	S12.413,2.75,12,2.75z"/>
<path style="fill:#333333;" d="M13.7,19.75h-3.4c-0.854,0-1.55-0.695-1.55-1.55v-0.7c0-1.792,1.458-3.25,3.25-3.25
	s3.25,1.458,3.25,3.25v0.7C15.25,19.055,14.555,19.75,13.7,19.75z M12,15.75c-0.965,0-1.75,0.785-1.75,1.75v0.7l3.45,0.05l0.05-0.75
	C13.75,16.535,12.965,15.75,12,15.75z"/>
<path style="fill:#333333;" d="M12,22.75c-1.241,0-2.25-1.01-2.25-2.25V19h1.5v1.5c0,0.413,0.336,0.75,0.75,0.75
	c0.413,0,0.75-0.337,0.75-0.75V19h1.5v1.5C14.25,21.74,13.24,22.75,12,22.75z"/>
</svg>






