<?xml version="1.0" encoding="iso-8859-1"?>
<svg version="1.1" id="&#x56FE;&#x5C42;_1" xmlns="http://www.w3.org/2000/svg" xmlns:xlink="http://www.w3.org/1999/xlink" x="0px"
	 y="0px" viewBox="0 0 24 24" style="enable-background:new 0 0 24 24;" xml:space="preserve">
<path style="fill:#333333;" d="M9.5,18.25H1.25V17.5c0-4.298,2.707-9.75,5.75-9.75h0.602l1.13,5.087l-1.464,0.326L6.427,9.377
	c-1.641,0.704-3.396,4.208-3.646,7.373H9.5V18.25z"/>
<path style="fill:#333333;" d="M14.75,17.5h-1.5c0-1.579,0.368-2.682,1.16-3.473c0.86-0.859,2.193-1.277,4.073-1.277
	c0.006,0,0.012,0,0.018,0l-0.002,1.5c-1.474-0.038-2.461,0.272-3.029,0.839C14.979,15.579,14.75,16.346,14.75,17.5z"/>
<path style="fill:#333333;" d="M20.618,17.898c-0.322,0-0.648-0.075-0.953-0.228c-0.938-0.469-1.122-1.653-1.334-3.024
	c-0.125-0.806-0.254-1.639-0.533-2.383c-0.588-1.569-1.94-2.688-3.709-3.071c-2.142-0.464-4.461,0.24-6.059,1.838L6.97,9.97
	c1.954-1.954,4.803-2.814,7.437-2.243c2.277,0.493,4.025,1.955,4.796,4.01c0.334,0.889,0.48,1.84,0.611,2.679
	c0.104,0.67,0.277,1.791,0.521,1.913c0.214,0.105,0.456,0.086,0.636-0.052c0.362-0.277,0.473-0.973,0.294-1.861l1.471-0.295
	c0.408,2.033-0.359,2.971-0.854,3.348C21.511,17.753,21.067,17.898,20.618,17.898z"/>
</svg>






