<?xml version="1.0" encoding="iso-8859-1"?>
<svg version="1.1" id="&#x56FE;&#x5C42;_1" xmlns="http://www.w3.org/2000/svg" xmlns:xlink="http://www.w3.org/1999/xlink" x="0px"
	 y="0px" viewBox="0 0 24 24" style="enable-background:new 0 0 24 24;" xml:space="preserve">
<path style="fill:#333333;" d="M12,22.75c-3.722,0-6.75-3.028-6.75-6.75v-4c0-3.722,3.028-6.75,6.75-6.75
	c3.722,0,6.75,3.028,6.75,6.75v4C18.75,19.722,15.722,22.75,12,22.75z M12,6.75c-2.895,0-5.25,2.355-5.25,5.25v4
	c0,2.895,2.355,5.25,5.25,5.25c2.895,0,5.25-2.355,5.25-5.25v-4C17.25,9.105,14.895,6.75,12,6.75z"/>
<path style="fill:#333333;" d="M18.75,13.25H5.25V12c0-3.722,3.028-6.75,6.75-6.75c3.722,0,6.75,3.028,6.75,6.75V13.25z
	 M6.756,11.75h10.488c-0.131-2.779-2.433-5-5.244-5C9.189,6.75,6.887,8.971,6.756,11.75z"/>
<path style="fill:#333333;" d="M12.75,12.5h-1.5V6c0-3.019,1.549-4.75,4.25-4.75c3.281,0,4.75,2.637,4.75,5.25h-1.5
	c0-0.626-0.156-3.75-3.25-3.75c-0.68,0-2.75,0-2.75,3.25V12.5z"/>
</svg>






