<?xml version="1.0" encoding="iso-8859-1"?>
<svg version="1.1" id="&#x56FE;&#x5C42;_1" xmlns="http://www.w3.org/2000/svg" xmlns:xlink="http://www.w3.org/1999/xlink" x="0px"
	 y="0px" viewBox="0 0 24 24" style="enable-background:new 0 0 24 24;" xml:space="preserve">
<path style="fill:#333333;" d="M12,17.75c-5.25,0-10.317-5.007-10.53-5.22l-0.435-0.435l0.341-0.512C1.914,10.777,4.714,6.75,7,6.75
	c1.279,0,2.524,0.365,3.524,0.658C11.125,7.583,11.693,7.75,12,7.75s0.874-0.167,1.476-0.342c1-0.293,2.245-0.658,3.524-0.658
	c2.285,0,5.086,4.027,5.624,4.834l0.341,0.512L22.53,12.53C22.317,12.743,17.25,17.75,12,17.75z M2.987,11.894
	C4.296,13.064,8.206,16.25,12,16.25c3.803,0,7.707-3.185,9.014-4.355C19.818,10.235,17.993,8.25,17,8.25
	c-1.064,0-2.147,0.317-3.103,0.597C13.159,9.063,12.521,9.25,12,9.25c-0.522,0-1.159-0.187-1.897-0.403
	C9.147,8.567,8.064,8.25,7,8.25C6.018,8.25,4.164,10.266,2.987,11.894z"/>
<rect x="2" y="11.25" style="fill:#333333;" width="20" height="1.5"/>
</svg>






