<?xml version="1.0" encoding="iso-8859-1"?>
<svg version="1.1" id="&#x56FE;&#x5C42;_1" xmlns="http://www.w3.org/2000/svg" xmlns:xlink="http://www.w3.org/1999/xlink" x="0px"
	 y="0px" viewBox="0 0 24 24" style="enable-background:new 0 0 24 24;" xml:space="preserve">
<path style="fill:#333333;" d="M18.9,22.061l-1.983-1.983l-0.893,1.339l-1.359-0.269l-1.621-8.104l8.104,1.621l0.269,1.359
	l-1.339,0.893l1.983,1.983L18.9,22.061z M16.683,17.724l2.218,2.216l1.039-1.039l-2.216-2.218l1.354-0.902l-4.121-0.824l0.824,4.121
	L16.683,17.724z"/>
<path style="fill:#333333;" d="M10.5,21.75H4c-0.965,0-1.75-0.785-1.75-1.75V4c0-0.965,0.785-1.75,1.75-1.75h16
	c0.965,0,1.75,0.785,1.75,1.75v7h-1.5V4c0-0.138-0.112-0.25-0.25-0.25H4C3.862,3.75,3.75,3.862,3.75,4v16
	c0,0.138,0.112,0.25,0.25,0.25h6.5V21.75z"/>
</svg>






