<?xml version="1.0" encoding="iso-8859-1"?>
<svg version="1.1" id="&#x56FE;&#x5C42;_1" xmlns="http://www.w3.org/2000/svg" xmlns:xlink="http://www.w3.org/1999/xlink" x="0px"
	 y="0px" viewBox="0 0 24 24" style="enable-background:new 0 0 24 24;" xml:space="preserve">
<polygon style="fill:#333333;" points="12,9.061 9.47,6.53 10.53,5.47 12,6.939 13.47,5.47 14.53,6.53 "/>
<rect x="11.25" y="2" style="fill:#333333;" width="1.5" height="6"/>
<polygon style="fill:#333333;" points="13.47,18.53 12,17.061 10.53,18.53 9.47,17.47 12,14.939 14.53,17.47 "/>
<rect x="11.25" y="16" style="fill:#333333;" width="1.5" height="6"/>
<polygon style="fill:#333333;" points="17.47,14.53 14.939,12 17.47,9.47 18.53,10.53 17.061,12 18.53,13.47 "/>
<rect x="16" y="11.25" style="fill:#333333;" width="6" height="1.5"/>
<polygon style="fill:#333333;" points="6.53,14.53 5.47,13.47 6.939,12 5.47,10.53 6.53,9.47 9.061,12 "/>
<rect x="2" y="11.25" style="fill:#333333;" width="6" height="1.5"/>
<path style="fill:#333333;" d="M12,13.75c-0.965,0-1.75-0.785-1.75-1.75s0.785-1.75,1.75-1.75s1.75,0.785,1.75,1.75
	S12.965,13.75,12,13.75z M12,11.75c-0.138,0-0.25,0.112-0.25,0.25c0,0.275,0.5,0.275,0.5,0C12.25,11.862,12.138,11.75,12,11.75z"/>
</svg>






