<?xml version="1.0" encoding="iso-8859-1"?>
<svg version="1.1" id="&#x56FE;&#x5C42;_1" xmlns="http://www.w3.org/2000/svg" xmlns:xlink="http://www.w3.org/1999/xlink" x="0px"
	 y="0px" viewBox="0 0 24 24" style="enable-background:new 0 0 24 24;" xml:space="preserve">
<path style="fill:#333333;" d="M11.5,21.75h-7c-1.241,0-2.25-1.01-2.25-2.25v-7c0-1.241,1.009-2.25,2.25-2.25h7
	c1.24,0,2.25,1.009,2.25,2.25v7C13.75,20.74,12.74,21.75,11.5,21.75z M4.5,11.75c-0.414,0-0.75,0.337-0.75,0.75v7
	c0,0.413,0.336,0.75,0.75,0.75h7c0.414,0,0.75-0.337,0.75-0.75v-7c0-0.413-0.336-0.75-0.75-0.75H4.5z"/>
<polygon style="fill:#333333;" points="21.75,9 20.25,9 20.25,3.75 15,3.75 15,2.25 21.75,2.25 "/>
<g>
	<circle style="fill:#333333;" cx="17" cy="21" r="0.75"/>
	<path style="fill:#333333;" d="M17,22c-0.552,0-1-0.448-1-1s0.448-1,1-1s1,0.448,1,1S17.552,22,17,22z M17,20.5
		c-0.275,0-0.5,0.225-0.5,0.5s0.225,0.5,0.5,0.5s0.5-0.225,0.5-0.5S17.275,20.5,17,20.5z"/>
</g>
<g>
	<circle style="fill:#333333;" cx="3" cy="7" r="0.75"/>
	<path style="fill:#333333;" d="M3,8C2.449,8,2,7.551,2,7s0.449-1,1-1s1,0.449,1,1S3.551,8,3,8z M3,6.5C2.724,6.5,2.5,6.724,2.5,7
		S2.724,7.5,3,7.5S3.5,7.276,3.5,7S3.276,6.5,3,6.5z"/>
</g>
<g>
	<circle style="fill:#333333;" cx="21" cy="21" r="0.75"/>
	<path style="fill:#333333;" d="M21,22c-0.552,0-1-0.448-1-1s0.448-1,1-1s1,0.448,1,1S21.552,22,21,22z M21,20.5
		c-0.275,0-0.5,0.225-0.5,0.5s0.225,0.5,0.5,0.5s0.5-0.225,0.5-0.5S21.275,20.5,21,20.5z"/>
</g>
<g>
	<circle style="fill:#333333;" cx="3" cy="3" r="0.75"/>
	<path style="fill:#333333;" d="M3,4C2.449,4,2,3.551,2,3s0.449-1,1-1s1,0.449,1,1S3.551,4,3,4z M3,2.5C2.724,2.5,2.5,2.724,2.5,3
		S2.724,3.5,3,3.5S3.5,3.276,3.5,3S3.276,2.5,3,2.5z"/>
</g>
<g>
	<circle style="fill:#333333;" cx="21" cy="17" r="0.75"/>
	<path style="fill:#333333;" d="M21,18c-0.552,0-1-0.448-1-1s0.448-1,1-1s1,0.448,1,1S21.552,18,21,18z M21,16.5
		c-0.275,0-0.5,0.225-0.5,0.5s0.225,0.5,0.5,0.5s0.5-0.225,0.5-0.5S21.275,16.5,21,16.5z"/>
</g>
<g>
	<circle style="fill:#333333;" cx="7" cy="3" r="0.75"/>
	<path style="fill:#333333;" d="M7,4C6.449,4,6,3.551,6,3s0.449-1,1-1s1,0.449,1,1S7.551,4,7,4z M7,2.5C6.724,2.5,6.5,2.724,6.5,3
		S6.724,3.5,7,3.5S7.5,3.276,7.5,3S7.276,2.5,7,2.5z"/>
</g>
<g>
	<circle style="fill:#333333;" cx="21" cy="13" r="0.75"/>
	<path style="fill:#333333;" d="M21,14c-0.552,0-1-0.448-1-1s0.448-1,1-1s1,0.448,1,1S21.552,14,21,14z M21,12.5
		c-0.275,0-0.5,0.225-0.5,0.5s0.225,0.5,0.5,0.5s0.5-0.225,0.5-0.5S21.275,12.5,21,12.5z"/>
</g>
<g>
	<circle style="fill:#333333;" cx="11" cy="3" r="0.75"/>
	<path style="fill:#333333;" d="M11,4c-0.551,0-1-0.449-1-1s0.449-1,1-1s1,0.449,1,1S11.551,4,11,4z M11,2.5
		c-0.276,0-0.5,0.224-0.5,0.5s0.224,0.5,0.5,0.5s0.5-0.224,0.5-0.5S11.276,2.5,11,2.5z"/>
</g>
<path style="fill:#333333;" d="M12.025,19.08l-4.591-3.756c-0.268-0.218-0.648-0.226-0.925-0.02L3.45,17.6L2.55,16.4l3.06-2.295
	c0.831-0.624,1.971-0.599,2.775,0.058l4.59,3.757L12.025,19.08z"/>
<rect x="13.757" y="5.25" transform="matrix(0.7071 -0.7071 0.7071 0.7071 1.0294 14.4853)" style="fill:#333333;" width="8.485" height="1.5"/>
</svg>






