<?xml version="1.0" encoding="iso-8859-1"?>
<svg version="1.1" id="&#x56FE;&#x5C42;_1" xmlns="http://www.w3.org/2000/svg" xmlns:xlink="http://www.w3.org/1999/xlink" x="0px"
	 y="0px" viewBox="0 0 24 24" style="enable-background:new 0 0 24 24;" xml:space="preserve">
<path style="fill:#333333;" d="M12,22.75C6.072,22.75,1.25,17.928,1.25,12S6.072,1.25,12,1.25S22.75,6.072,22.75,12
	S17.928,22.75,12,22.75z M12,2.75c-5.101,0-9.25,4.149-9.25,9.25s4.149,9.25,9.25,9.25s9.25-4.149,9.25-9.25S17.101,2.75,12,2.75z"
	/>
<path style="fill:#333333;" d="M12,9.75c-1.241,0-2.25-1.009-2.25-2.25S10.759,5.25,12,5.25c1.24,0,2.25,1.009,2.25,2.25
	S13.24,9.75,12,9.75z M12,6.75c-0.414,0-0.75,0.336-0.75,0.75S11.586,8.25,12,8.25c0.413,0,0.75-0.336,0.75-0.75
	S12.413,6.75,12,6.75z"/>
<path style="fill:#333333;" d="M12,18.75c-1.241,0-2.25-1.01-2.25-2.25s1.009-2.25,2.25-2.25c1.24,0,2.25,1.01,2.25,2.25
	S13.24,18.75,12,18.75z M12,15.75c-0.414,0-0.75,0.337-0.75,0.75s0.336,0.75,0.75,0.75c0.413,0,0.75-0.337,0.75-0.75
	S12.413,15.75,12,15.75z"/>
<path style="fill:#333333;" d="M7.5,14.25c-1.241,0-2.25-1.01-2.25-2.25c0-1.241,1.009-2.25,2.25-2.25S9.75,10.759,9.75,12
	C9.75,13.24,8.741,14.25,7.5,14.25z M7.5,11.25c-0.414,0-0.75,0.336-0.75,0.75c0,0.413,0.336,0.75,0.75,0.75S8.25,12.413,8.25,12
	C8.25,11.586,7.914,11.25,7.5,11.25z"/>
<path style="fill:#333333;" d="M16.5,14.25c-1.24,0-2.25-1.01-2.25-2.25c0-1.241,1.01-2.25,2.25-2.25s2.25,1.009,2.25,2.25
	C18.75,13.24,17.74,14.25,16.5,14.25z M16.5,11.25c-0.413,0-0.75,0.336-0.75,0.75c0,0.413,0.337,0.75,0.75,0.75
	s0.75-0.337,0.75-0.75C17.25,11.586,16.913,11.25,16.5,11.25z"/>
<rect x="12" y="21.25" style="fill:#333333;" width="10" height="1.5"/>
</svg>






