<?xml version="1.0" encoding="iso-8859-1"?>
<svg version="1.1" id="&#x56FE;&#x5C42;_1" xmlns="http://www.w3.org/2000/svg" xmlns:xlink="http://www.w3.org/1999/xlink" x="0px"
	 y="0px" viewBox="0 0 24 24" style="enable-background:new 0 0 24 24;" xml:space="preserve">
<path style="fill:#333333;" d="M22.75,21.75H1.25V7.25h21.5V21.75z M2.75,20.25h18.5V8.75H2.75V20.25z"/>
<path style="fill:#333333;" d="M22.75,8.75H1.25v-6.5h21.5V8.75z M2.75,7.25h18.5v-3.5H2.75V7.25z"/>
<rect x="13.25" y="2.807" transform="matrix(0.9285 -0.3714 0.3714 0.9285 -1.0413 5.5928)" style="fill:#333333;" width="1.5" height="5.385"/>
<rect x="9.25" y="2.807" transform="matrix(0.9285 -0.3714 0.3714 0.9285 -1.3274 4.1073)" style="fill:#333333;" width="1.5" height="5.385"/>
<rect x="5.25" y="2.807" transform="matrix(0.9285 -0.3714 0.3714 0.9285 -1.6135 2.6217)" style="fill:#333333;" width="1.5" height="5.385"/>
<rect x="17.25" y="2.807" transform="matrix(0.9285 -0.3714 0.3714 0.9285 -0.7552 7.0784)" style="fill:#333333;" width="1.5" height="5.385"/>
<rect x="6" y="11.25" style="fill:#333333;" width="12" height="1.5"/>
<rect x="6" y="15.25" style="fill:#333333;" width="6" height="1.5"/>
</svg>






