<?xml version="1.0" encoding="iso-8859-1"?>
<svg version="1.1" id="&#x56FE;&#x5C42;_1" xmlns="http://www.w3.org/2000/svg" xmlns:xlink="http://www.w3.org/1999/xlink" x="0px"
	 y="0px" viewBox="0 0 24 24" style="enable-background:new 0 0 24 24;" xml:space="preserve">
<path style="fill:#333333;" d="M12,22.75C6.072,22.75,1.25,17.928,1.25,12S6.072,1.25,12,1.25S22.75,6.072,22.75,12
	S17.928,22.75,12,22.75z M12,2.75c-5.101,0-9.25,4.149-9.25,9.25s4.149,9.25,9.25,9.25s9.25-4.149,9.25-9.25S17.101,2.75,12,2.75z"
	/>
<path style="fill:#333333;" d="M12,18.75c-5.093,0-9.523-3.617-10.535-8.601l1.47-0.299C3.805,14.138,7.618,17.25,12,17.25
	c4.382,0,8.194-3.112,9.064-7.399l1.471,0.299C21.522,15.133,17.093,18.75,12,18.75z"/>
<path style="fill:#333333;" d="M12,14.75c-4.275,0-8.144-2.531-9.855-6.45L3.52,7.7c1.473,3.372,4.802,5.55,8.48,5.55
	s7.008-2.179,8.48-5.55L21.855,8.3C20.144,12.219,16.275,14.75,12,14.75z"/>
<path style="fill:#333333;" d="M12,10.75c-3.413,0-6.548-1.567-8.6-4.3l1.199-0.9C6.366,7.901,9.063,9.25,12,9.25
	c2.935,0,5.636-1.349,7.409-3.702l1.197,0.903C18.547,9.183,15.41,10.75,12,10.75z"/>
<path style="fill:#333333;" d="M12,6.75c-2.348,0-4.579-0.744-6.452-2.15L6.45,3.4C8.06,4.61,9.979,5.25,12,5.25
	s3.939-0.64,5.551-1.85l0.9,1.199C16.579,6.006,14.348,6.75,12,6.75z"/>
</svg>






