<?xml version="1.0" encoding="iso-8859-1"?>
<svg version="1.1" id="&#x56FE;&#x5C42;_1" xmlns="http://www.w3.org/2000/svg" xmlns:xlink="http://www.w3.org/1999/xlink" x="0px"
	 y="0px" viewBox="0 0 24 24" style="enable-background:new 0 0 24 24;" xml:space="preserve">
<path style="fill:none;" d="M10.685,18c0.725-2.625,3.26-4.5,6.18-4.19c2.78,0.295,4.99,2.64,5.13,5.43
	c0.035,0.735-0.065,1.44-0.28,2.095c-0.13,0.4-0.52,0.665-0.945,0.665H5.879c-2.524,0-4.417-2.309-3.922-4.784L5,2h6l2,3.5
	L8.715,8.565L7.5,7"/>
<path style="fill:#333333;" d="M20.77,22.75H5.879c-1.429,0-2.768-0.634-3.674-1.738C1.3,19.906,0.941,18.47,1.222,17.068
	L4.265,1.853L5,1.25h6l0.651,0.378l2,3.5L13.437,6.11L9.151,9.175l-1.029-0.15L6.908,7.46l1.185-0.92l0.773,0.995l3.147-2.251
	L10.565,2.75h-4.95L2.692,17.363c-0.192,0.958,0.054,1.941,0.673,2.697c0.62,0.756,1.536,1.189,2.514,1.189h14.89
	c0.106,0,0.204-0.062,0.231-0.146c0.193-0.587,0.275-1.201,0.245-1.827c-0.122-2.433-2.039-4.463-4.46-4.721
	c-2.462-0.265-4.723,1.271-5.378,3.644l-1.446-0.398c0.852-3.084,3.781-5.064,6.982-4.737c3.148,0.336,5.642,2.975,5.8,6.14
	c0.039,0.811-0.067,1.606-0.316,2.365C22.198,22.274,21.532,22.75,20.77,22.75z"/>
<rect x="9.11" y="8.414" transform="matrix(0.9654 -0.2609 0.2609 0.9654 -2.9937 3.0154)" style="fill:#333333;" width="1.5" height="8.738"/>
</svg>






