<?xml version="1.0" encoding="iso-8859-1"?>
<svg version="1.1" id="&#x56FE;&#x5C42;_1" xmlns="http://www.w3.org/2000/svg" xmlns:xlink="http://www.w3.org/1999/xlink" x="0px"
	 y="0px" viewBox="0 0 24 24" style="enable-background:new 0 0 24 24;" xml:space="preserve">
<rect x="2" y="21.25" style="fill:#333333;" width="20" height="1.5"/>
<path style="fill:#333333;" d="M20.75,7.25H3.25V3.159l0.432-0.202C3.832,2.887,7.386,1.25,12,1.25c4.613,0,8.169,1.637,8.317,1.707
	l0.433,0.202V7.25z M4.75,5.75h14.5V4.135C18.205,3.723,15.38,2.75,12,2.75c-3.392,0-6.208,0.972-7.25,1.384V5.75z"/>
<rect x="4.25" y="6.5" style="fill:#333333;" width="1.5" height="12.5"/>
<rect x="7.75" y="6.5" style="fill:#333333;" width="1.5" height="12.5"/>
<rect x="11.25" y="6.5" style="fill:#333333;" width="1.5" height="12.5"/>
<rect x="14.75" y="6.5" style="fill:#333333;" width="1.5" height="12.5"/>
<rect x="18.25" y="6.5" style="fill:#333333;" width="1.5" height="12.5"/>
<path style="fill:#333333;" d="M21.25,22.75H2.75v-4.5h18.5V22.75z M4.25,21.25h15.5v-1.5H4.25V21.25z"/>
</svg>






