<?xml version="1.0" encoding="iso-8859-1"?>
<svg version="1.1" id="&#x56FE;&#x5C42;_1" xmlns="http://www.w3.org/2000/svg" xmlns:xlink="http://www.w3.org/1999/xlink" x="0px"
	 y="0px" viewBox="0 0 24 24" style="enable-background:new 0 0 24 24;" xml:space="preserve">
<path style="fill:#333333;" d="M18.7,19.75h-1.95c-1.379,0-2.5-1.121-2.5-2.5s1.121-2.5,2.5-2.5h4.5v2.45
	C21.25,18.606,20.106,19.75,18.7,19.75z M16.75,16.25c-0.552,0-1,0.448-1,1s0.448,1,1,1h1.95c0.579,0,1.05-0.471,1.05-1.05v-0.95
	H16.75z"/>
<path style="fill:#333333;" d="M6.2,21.75H4.75c-1.378,0-2.5-1.121-2.5-2.5s1.122-2.5,2.5-2.5h4v2.45
	C8.75,20.606,7.606,21.75,6.2,21.75z M4.75,18.25c-0.551,0-1,0.448-1,1s0.449,1,1,1H6.2c0.579,0,1.05-0.471,1.05-1.05v-0.95H4.75z"
	/>
<rect x="7.827" y="6.792" transform="matrix(0.9731 -0.2304 0.2304 0.9731 -1.3544 3.4864)" style="fill:#333333;" width="12.846" height="1.5"/>
<polygon style="fill:#333333;" points="8.75,19 7.25,19 7.25,4.409 21.25,1.049 21.25,16.847 19.75,16.847 19.75,2.951 8.75,5.591 
	"/>
</svg>






