<?xml version="1.0" encoding="iso-8859-1"?>
<svg version="1.1" id="&#x56FE;&#x5C42;_1" xmlns="http://www.w3.org/2000/svg" xmlns:xlink="http://www.w3.org/1999/xlink" x="0px"
	 y="0px" viewBox="0 0 24 24" style="enable-background:new 0 0 24 24;" xml:space="preserve">
<rect x="11.25" y="3" style="fill:#333333;" width="1.5" height="14.5"/>
<path style="fill:#333333;" d="M9.48,21.75H7.52c-1.803,0-3.27-1.467-3.27-3.27V18.02c0-1.803,1.467-3.27,3.27-3.27h5.23v3.73
	C12.75,20.283,11.283,21.75,9.48,21.75z M7.52,16.25c-0.976,0-1.77,0.794-1.77,1.77v0.461c0,0.976,0.794,1.77,1.77,1.77h1.96
	c0.976,0,1.77-0.794,1.77-1.77v-2.23H7.52z"/>
<path style="fill:#333333;" d="M19.191,9.509L11.25,7.626V2.054l7.941,1.858V9.509z M12.75,6.44l4.941,1.171v-2.51L12.75,3.946V6.44
	z"/>
</svg>






