<?xml version="1.0" encoding="iso-8859-1"?>
<svg version="1.1" id="&#x56FE;&#x5C42;_1" xmlns="http://www.w3.org/2000/svg" xmlns:xlink="http://www.w3.org/1999/xlink" x="0px"
	 y="0px" viewBox="0 0 24 24" style="enable-background:new 0 0 24 24;" xml:space="preserve">
<rect x="2.5" y="20.25" style="fill:#333333;" width="2.5" height="1.5"/>
<rect x="2.5" y="17.25" style="fill:#333333;" width="2.5" height="1.5"/>
<rect x="2.5" y="14.25" style="fill:#333333;" width="2.5" height="1.5"/>
<rect x="2.5" y="11.25" style="fill:#333333;" width="2.5" height="1.5"/>
<rect x="8" y="20.25" style="fill:#333333;" width="2.5" height="1.5"/>
<rect x="8" y="17.25" style="fill:#333333;" width="2.5" height="1.5"/>
<rect x="8" y="14.25" style="fill:#333333;" width="2.5" height="1.5"/>
<rect x="8" y="11.25" style="fill:#333333;" width="2.5" height="1.5"/>
<rect x="8" y="8.25" style="fill:#333333;" width="2.5" height="1.5"/>
<rect x="8" y="5.25" style="fill:#333333;" width="2.5" height="1.5"/>
<rect x="8" y="2.25" style="fill:#333333;" width="2.5" height="1.5"/>
<rect x="13.5" y="20.25" style="fill:#333333;" width="2.5" height="1.5"/>
<rect x="19" y="20.25" style="fill:#333333;" width="2.5" height="1.5"/>
<rect x="13.5" y="17.25" style="fill:#333333;" width="2.5" height="1.5"/>
<rect x="19" y="17.25" style="fill:#333333;" width="2.5" height="1.5"/>
<rect x="13.5" y="14.25" style="fill:#333333;" width="2.5" height="1.5"/>
<rect x="19" y="14.25" style="fill:#333333;" width="2.5" height="1.5"/>
<rect x="19" y="11.25" style="fill:#333333;" width="2.5" height="1.5"/>
<rect x="19" y="8.25" style="fill:#333333;" width="2.5" height="1.5"/>
</svg>






