<?xml version="1.0" encoding="iso-8859-1"?>
<svg version="1.1" id="&#x56FE;&#x5C42;_1" xmlns="http://www.w3.org/2000/svg" xmlns:xlink="http://www.w3.org/1999/xlink" x="0px"
	 y="0px" viewBox="0 0 24 24" style="enable-background:new 0 0 24 24;" xml:space="preserve">
<path style="fill:#333333;" d="M12,22.75C6.072,22.75,1.25,17.928,1.25,12S6.072,1.25,12,1.25S22.75,6.072,22.75,12
	S17.928,22.75,12,22.75z M12,2.75c-5.101,0-9.25,4.149-9.25,9.25s4.149,9.25,9.25,9.25s9.25-4.149,9.25-9.25S17.101,2.75,12,2.75z"
	/>
<rect x="12.25" y="7" style="fill:#333333;" width="1.5" height="7"/>
<path style="fill:#333333;" d="M10.84,17.25H9.16c-1.604,0-2.91-1.159-2.91-2.583v-0.334c0-1.424,1.306-2.583,2.91-2.583h4.59v2.917
	C13.75,16.091,12.444,17.25,10.84,17.25z M9.16,13.25c-0.764,0-1.41,0.496-1.41,1.083v0.334c0,0.587,0.646,1.083,1.41,1.083h1.68
	c0.764,0,1.41-0.496,1.41-1.083V13.25H9.16z"/>
<rect x="13.75" y="5.729" transform="matrix(0.1644 -0.9864 0.9864 0.1644 4.9649 20.3608)" style="fill:#333333;" width="1.5" height="3.041"/>
</svg>






