<?xml version="1.0" encoding="iso-8859-1"?>
<svg version="1.1" id="&#x56FE;&#x5C42;_1" xmlns="http://www.w3.org/2000/svg" xmlns:xlink="http://www.w3.org/1999/xlink" x="0px"
	 y="0px" viewBox="0 0 24 24" style="enable-background:new 0 0 24 24;" xml:space="preserve">
<path style="fill:#333333;" d="M12,22.75C6.072,22.75,1.25,17.928,1.25,12S6.072,1.25,12,1.25S22.75,6.072,22.75,12
	S17.928,22.75,12,22.75z M12,2.75c-5.101,0-9.25,4.149-9.25,9.25s4.149,9.25,9.25,9.25s9.25-4.149,9.25-9.25S17.101,2.75,12,2.75z"
	/>
<path style="fill:#333333;" d="M15.25,17.75H14.5c-1.844,0-3.233-1.749-3.769-2.545H9.05c-0.717,0-1.3-0.586-1.3-1.306v-3.841
	c0-0.72,0.583-1.306,1.3-1.306h1.685C11.272,7.969,12.66,6.25,14.5,6.25h0.75V17.75z M9.25,13.705h2.332l0.216,0.381
	c0.27,0.476,1.043,1.549,1.952,1.979V7.931c-0.911,0.423-1.686,1.479-1.955,1.946l-0.216,0.375L9.25,10.253V13.705z"/>
</svg>






