<?xml version="1.0" encoding="iso-8859-1"?>
<svg version="1.1" id="&#x56FE;&#x5C42;_1" xmlns="http://www.w3.org/2000/svg" xmlns:xlink="http://www.w3.org/1999/xlink" x="0px"
	 y="0px" viewBox="0 0 24 24" style="enable-background:new 0 0 24 24;" xml:space="preserve">
<path style="fill:#333333;" d="M13.943,11.75h-3.886c-0.479,0-0.942-0.199-1.271-0.547c-0.329-0.348-0.503-0.822-0.477-1.3l0.389-7
	C8.75,1.976,9.518,1.25,10.446,1.25h3.108c0.929,0,1.696,0.726,1.748,1.653l0.389,7c0.026,0.478-0.146,0.951-0.476,1.299
	S14.422,11.75,13.943,11.75z M10.446,2.75c-0.132,0-0.242,0.104-0.249,0.236l-0.389,7c-0.005,0.094,0.041,0.157,0.068,0.186
	c0.028,0.029,0.088,0.078,0.182,0.078h3.886c0.094,0,0.153-0.049,0.182-0.078c0.027-0.029,0.073-0.092,0.067-0.186l-0.389-7
	c-0.007-0.132-0.117-0.236-0.25-0.236H10.446z"/>
<path style="fill:#333333;" d="M17,22.75H7c-1.241,0-2.25-1.01-2.25-2.25V14c0-2.068,1.682-3.75,3.75-3.75h7
	c2.067,0,3.75,1.682,3.75,3.75v6.5C19.25,21.74,18.24,22.75,17,22.75z M8.5,11.75c-1.241,0-2.25,1.01-2.25,2.25v6.5
	c0,0.413,0.336,0.75,0.75,0.75h10c0.413,0,0.75-0.337,0.75-0.75V14c0-1.24-1.01-2.25-2.25-2.25H8.5z"/>
<circle style="fill:#333333;" cx="12" cy="16.5" r="1.5"/>
</svg>






