<?xml version="1.0" encoding="iso-8859-1"?>
<svg version="1.1" id="&#x56FE;&#x5C42;_1" xmlns="http://www.w3.org/2000/svg" xmlns:xlink="http://www.w3.org/1999/xlink" x="0px"
	 y="0px" viewBox="0 0 24 24" style="enable-background:new 0 0 24 24;" xml:space="preserve">
<path style="fill:#333333;" d="M6.642,22.253c-0.717,0-1.477-0.2-2.17-0.596c-1.366-0.779-2.181-2.128-2.181-3.606
	c0-1.898,1.742-4.536,3.28-6.863c0.792-1.199,1.54-2.331,1.723-2.91c0.357-1.129,0.508-3.236,0.45-6.263l1.5-0.029
	c0.062,3.236-0.107,5.442-0.52,6.745c-0.246,0.778-0.977,1.884-1.901,3.284c-1.279,1.937-3.031,4.589-3.031,6.036
	c0,1.346,0.996,2.06,1.424,2.304c0.796,0.454,1.721,0.53,2.299,0.189l0.763,1.291C7.803,22.115,7.237,22.253,6.642,22.253z"/>
<path style="fill:#333333;" d="M17.703,22.238c-0.569,0-1.106-0.134-1.562-0.403l0.762-1.291c0.55,0.323,1.416,0.241,2.211-0.213
	c1.012-0.578,1.616-1.581,1.616-2.685c0-1.588-1.71-3.923-3.085-5.799c-0.949-1.297-1.7-2.322-1.951-3.117
	c-0.414-1.306-0.559-3.516-0.442-6.757l1.5,0.054c-0.109,3.024,0.017,5.127,0.372,6.251c0.178,0.56,0.933,1.591,1.732,2.683
	c1.581,2.159,3.374,4.607,3.374,6.686c0,1.648-0.887,3.139-2.372,3.987C19.154,22.035,18.404,22.238,17.703,22.238z"/>
<path style="fill:#333333;" d="M12.004,20.75c-1.773,0-2.541-1.133-3.101-1.96c-0.215-0.318-0.418-0.618-0.627-0.778
	c-0.257-0.199-0.649-0.37-1.401,0.057l-0.742-1.303c1.417-0.809,2.445-0.415,3.059,0.057c0.4,0.309,0.682,0.724,0.954,1.126
	c0.547,0.808,0.929,1.302,1.859,1.302c1.037,0,1.753-0.746,2.444-1.469c0.398-0.415,0.774-0.807,1.208-1.03
	c0.857-0.445,1.783-0.446,2.676-0.007l-0.664,1.346c-0.467-0.23-0.888-0.231-1.323-0.007c-0.213,0.109-0.505,0.414-0.813,0.736
	C14.75,19.635,13.681,20.75,12.004,20.75z"/>
<path style="fill:#333333;" d="M9.456,14.271L7.96,14.153c0.034-0.432,0.086-0.878,0.355-1.606c0.345-0.934,0.82-1.492,1.278-1.985
	l1.099,1.021c-0.396,0.426-0.719,0.806-0.969,1.483C9.52,13.617,9.484,13.913,9.456,14.271z"/>
</svg>






