<?xml version="1.0" encoding="iso-8859-1"?>
<svg version="1.1" id="&#x56FE;&#x5C42;_1" xmlns="http://www.w3.org/2000/svg" xmlns:xlink="http://www.w3.org/1999/xlink" x="0px"
	 y="0px" viewBox="0 0 24 24" style="enable-background:new 0 0 24 24;" xml:space="preserve">
<path style="fill:#333333;" d="M12,14.25c-3.259,0-5.717-2.472-5.717-5.75L6.24,1.932l3.155,2.523L12,1.329l2.605,3.126l3.145-2.516
	V8.5C17.75,11.724,15.225,14.25,12,14.25z M7.76,5.068l0.022,3.427c0,2.428,1.813,4.255,4.217,4.255c2.423,0,4.25-1.827,4.25-4.25
	V5.061l-1.855,1.484L12,3.671L9.606,6.545L7.76,5.068z"/>
<path style="fill:#333333;" d="M10.981,22.681c-1.387,0-3.238-1.136-4.718-2.615c-2.021-2.02-3.398-4.732-2.122-6.01
	c1.274-1.279,3.99,0.101,6.01,2.121c2.02,2.021,3.398,4.734,2.122,6.011l0,0C11.932,22.529,11.487,22.681,10.981,22.681z
	 M5.43,15.058c-0.113,0-0.19,0.021-0.228,0.059c-0.227,0.228,0.15,1.917,2.122,3.889c1.971,1.972,3.662,2.349,3.889,2.122
	c0.227-0.228-0.15-1.918-2.122-3.89C7.446,15.592,5.997,15.058,5.43,15.058z"/>
<path style="fill:#333333;" d="M13.177,22.509c-0.507,0-0.951-0.151-1.293-0.493l0,0c-1.276-1.277,0.102-3.99,2.122-6.011
	s4.733-3.397,6.01-2.121s-0.101,3.989-2.121,6.011C16.414,21.374,14.562,22.509,13.177,22.509z M12.944,20.955
	c0.23,0.226,1.918-0.149,3.89-2.121c1.972-1.973,2.348-3.662,2.121-3.89c-0.23-0.228-1.918,0.149-3.889,2.121
	C13.095,19.037,12.718,20.728,12.944,20.955L12.944,20.955z"/>
</svg>






