<?xml version="1.0" encoding="iso-8859-1"?>
<svg version="1.1" id="&#x56FE;&#x5C42;_1" xmlns="http://www.w3.org/2000/svg" xmlns:xlink="http://www.w3.org/1999/xlink" x="0px"
	 y="0px" viewBox="0 0 24 24" style="enable-background:new 0 0 24 24;" xml:space="preserve">
<g>
	<defs>
		<rect id="SVGID_1_" width="24" height="24"/>
	</defs>
	<clipPath id="SVGID_00000146479179253786634590000009016929539245020600_">
		<use xlink:href="#SVGID_1_"  style="overflow:visible;"/>
	</clipPath>
	<g style="clip-path:url(#SVGID_00000146479179253786634590000009016929539245020600_);">
		
			<rect x="15.25" y="3.05" transform="matrix(0.7071 -0.7071 0.7071 0.7071 -0.9706 13.6569)" style="fill:#333333;" width="1.5" height="9.899"/>
		
			<rect x="18" y="0.654" transform="matrix(0.7071 -0.7071 0.7071 0.7071 1.7794 14.7959)" style="fill:#333333;" width="1.5" height="9.192"/>
		
			<rect x="16.981" y="7.5" transform="matrix(0.7071 -0.7071 0.7071 0.7071 -0.3418 15.6738)" style="fill:#333333;" width="3.536" height="1.5"/>
		
			<rect x="13.981" y="4.5" transform="matrix(0.7071 -0.7071 0.7071 0.7071 0.9008 12.6738)" style="fill:#333333;" width="3.536" height="1.5"/>
		
			<rect x="2.482" y="19" transform="matrix(0.7071 -0.7071 0.7071 0.7071 -12.7206 8.7898)" style="fill:#333333;" width="3.536" height="1.5"/>
		<path style="fill:#333333;" d="M4.651,19.349l0.633-5.693L14,4.939L19.061,10l-8.716,8.717L4.651,19.349z M6.716,14.345
			l-0.367,3.307l3.307-0.368L16.939,10L14,7.061L6.716,14.345z"/>
	</g>
</g>
</svg>






