<?xml version="1.0" encoding="iso-8859-1"?>
<svg version="1.1" id="&#x56FE;&#x5C42;_1" xmlns="http://www.w3.org/2000/svg" xmlns:xlink="http://www.w3.org/1999/xlink" x="0px"
	 y="0px" viewBox="0 0 24 24" style="enable-background:new 0 0 24 24;" xml:space="preserve">
<path style="fill:#333333;" d="M3.635,21.863l-1.312-0.727l3.31-5.97l0.528,0.095c2.297,0.408,4.222,0.196,5.719-0.635
	c2.208-1.224,3.095-3.695,2.887-5.008c-0.091-0.576-0.438-1.136-0.775-1.677c-0.502-0.808-1.071-1.724-0.666-2.724
	c0.218-0.538,0.659-0.944,1.334-1.222c-0.396-0.676-1.22-1.746-2.14-1.746c-0.923,0-1.486,0.321-1.825,1.041L3.151,16.528
	l-1.303-0.742L9.366,2.6c0.559-1.192,1.659-1.85,3.155-1.85c1.795,0,3.017,1.77,3.471,2.557l1.618,0.242L17.512,5.04
	c-1.852,0.03-2.658,0.403-2.795,0.742c-0.119,0.292,0.206,0.815,0.55,1.369c0.396,0.637,0.844,1.359,0.983,2.234
	c0.323,2.05-0.95,5.061-3.642,6.555c-1.684,0.935-3.761,1.234-6.179,0.885L3.635,21.863z"/>
<path style="fill:#333333;" d="M7.515,14.238l-0.699-1.113c1.311-2.362,2.148-3.836,2.561-4.507c0.506-0.822,1.734-1.13,2.687-0.67
	c0.825,0.399,1.489,1.424,0.876,3.102C12.228,12.998,10.403,14.07,7.515,14.238z M11.105,9.232c-0.205,0-0.394,0.078-0.452,0.172
	c-0.315,0.513-0.92,1.57-1.804,3.151c1.418-0.312,2.3-0.979,2.68-2.02c0.137-0.374,0.303-1.032-0.121-1.237
	C11.313,9.251,11.207,9.232,11.105,9.232z"/>
<path style="fill:#333333;" d="M18.413,17.962c-0.86,0-1.675-0.298-2.401-0.887l-0.436-0.354l0.216-0.518
	c0.662-1.589,1.672-2.572,3.002-2.924c1.318-0.351,2.538-0.132,3.627,0.644l0.494,0.352l-0.241,0.557
	c-0.648,1.497-1.643,2.476-2.954,2.91C19.276,17.889,18.839,17.962,18.413,17.962z M17.44,16.229
	c0.553,0.283,1.139,0.311,1.807,0.09c0.727-0.24,1.304-0.729,1.75-1.488c-0.562-0.241-1.163-0.273-1.82-0.101
	C18.46,14.92,17.888,15.412,17.44,16.229z"/>
<path style="fill:#333333;" d="M17.974,21.259c-0.529,0-1.089-0.083-1.678-0.249c-1.888-0.534-3.074-1.628-3.525-3.251l-0.18-0.648
	l0.624-0.249c1.413-0.563,2.724-0.766,3.892-0.599c1.24,0.176,2.542,1.075,3.979,2.749l0.468,0.545l-0.524,0.491
	C20.167,20.854,19.144,21.259,17.974,21.259z M14.478,18.004c0.412,0.743,1.146,1.257,2.227,1.562
	c1.064,0.298,1.956,0.245,2.703-0.173c-0.944-0.98-1.805-1.546-2.512-1.646C16.174,17.646,15.364,17.731,14.478,18.004z"/>
</svg>






