<?xml version="1.0" encoding="iso-8859-1"?>
<svg version="1.1" id="&#x56FE;&#x5C42;_1" xmlns="http://www.w3.org/2000/svg" xmlns:xlink="http://www.w3.org/1999/xlink" x="0px"
	 y="0px" viewBox="0 0 24 24" style="enable-background:new 0 0 24 24;" xml:space="preserve">
<polygon style="fill:#333333;" points="8.5,15.75 1.25,15.75 1.25,1.25 15.75,1.25 15.75,8.5 14.25,8.5 14.25,2.75 2.75,2.75 
	2.75,14.25 8.5,14.25 "/>
<path style="fill:#333333;" d="M22.25,22.25H7.75V7.75h14.5V22.25z M9.25,20.75h11.5V9.25H9.25V20.75z"/>
<polygon style="fill:#333333;" points="14.53,18.03 13.47,16.97 14.689,15.75 8.5,15.75 8.5,14.25 14.689,14.25 13.47,13.03 
	14.53,11.97 17.03,14.47 16.5,15 17.03,15.53 "/>
<rect x="7.75" y="8.5" style="fill:#333333;" width="1.5" height="13"/>
</svg>






