<?xml version="1.0" encoding="iso-8859-1"?>
<svg version="1.1" id="&#x56FE;&#x5C42;_1" xmlns="http://www.w3.org/2000/svg" xmlns:xlink="http://www.w3.org/1999/xlink" x="0px"
	 y="0px" viewBox="0 0 24 24" style="enable-background:new 0 0 24 24;" xml:space="preserve">
<path style="fill:#333333;" d="M6.75,21.75h-5.5v-5.5h5.5V21.75z M2.75,20.25h2.5v-2.5h-2.5V20.25z"/>
<path style="fill:#333333;" d="M20.75,9.75H3.25v-7.5h17.5V9.75z M4.75,8.25h14.5v-4.5H4.75V8.25z"/>
<rect x="11.25" y="9" style="fill:#333333;" width="1.5" height="8"/>
<polygon style="fill:#333333;" points="20.75,17 19.25,17 19.25,13.75 4.75,13.75 4.75,17 3.25,17 3.25,12.25 20.75,12.25 "/>
<path style="fill:#333333;" d="M22.75,21.75h-5.5v-5.5h5.5V21.75z M18.75,20.25h2.5v-2.5h-2.5V20.25z"/>
<path style="fill:#333333;" d="M14.75,21.75h-5.5v-5.5h5.5V21.75z M10.75,20.25h2.5v-2.5h-2.5V20.25z"/>
<rect x="7" y="5.25" style="fill:#333333;" width="1" height="1.5"/>
</svg>






