<?xml version="1.0" encoding="iso-8859-1"?>
<svg version="1.1" id="&#x56FE;&#x5C42;_1" xmlns="http://www.w3.org/2000/svg" xmlns:xlink="http://www.w3.org/1999/xlink" x="0px"
	 y="0px" viewBox="0 0 24 24" style="enable-background:new 0 0 24 24;" xml:space="preserve">
<path style="fill:#333333;" d="M10.25,17.25c-0.969,0-1.47-0.838-1.836-1.449c-0.16-0.266-0.4-0.668-0.554-0.731
	c-0.179-0.073-0.644,0.035-0.983,0.115c-0.723,0.169-1.624,0.382-2.283-0.277c-0.659-0.659-0.447-1.564-0.277-2.291
	c0.08-0.342,0.189-0.81,0.115-0.99c-0.063-0.151-0.464-0.389-0.729-0.546C3.089,10.717,2.25,10.221,2.25,9.25
	c0-0.948,0.793-1.482,1.431-1.911c0.287-0.193,0.68-0.458,0.75-0.626C4.503,6.538,4.4,6.129,4.318,5.8
	C4.154,5.149,3.929,4.257,4.593,3.593c0.684-0.686,1.629-0.375,2.321-0.147C7.211,3.544,7.707,3.705,7.86,3.644
	c0.141-0.061,0.403-0.545,0.543-0.805C8.767,2.168,9.263,1.25,10.25,1.25c0.985,0,1.447,0.847,1.784,1.464
	c0.144,0.262,0.359,0.658,0.5,0.716c0.183,0.077,0.674-0.035,1.033-0.115c0.75-0.169,1.684-0.379,2.34,0.278
	c0.658,0.659,0.446,1.567,0.277,2.297c-0.08,0.344-0.19,0.816-0.115,0.997c0.062,0.15,0.463,0.385,0.729,0.54
	c0.612,0.359,1.452,0.85,1.452,1.823c0,0.95-0.756,1.452-1.308,1.818c-0.276,0.184-0.59,0.392-0.659,0.559
	c-0.085,0.206-0.023,0.641,0.03,1.023c0.102,0.723,0.228,1.622-0.406,2.257c-0.663,0.663-1.556,0.438-2.207,0.275
	c-0.329-0.083-0.737-0.186-0.912-0.113c-0.17,0.07-0.435,0.463-0.627,0.75C11.731,16.457,11.198,17.25,10.25,17.25z M7.688,13.545
	c0.251,0,0.503,0.038,0.748,0.14c0.61,0.253,0.958,0.833,1.265,1.346c0.129,0.215,0.431,0.72,0.55,0.72
	c0.149,0,0.499-0.519,0.667-0.768c0.333-0.495,0.709-1.055,1.296-1.298c0.636-0.267,1.311-0.093,1.854,0.043
	c0.236,0.06,0.674,0.168,0.781,0.119c0.104-0.105,0.023-0.679-0.02-0.987c-0.081-0.573-0.172-1.223,0.069-1.807
	c0.245-0.589,0.761-0.932,1.216-1.234C16.396,9.63,16.75,9.396,16.75,9.25c0-0.112-0.516-0.415-0.71-0.528
	c-0.516-0.302-1.101-0.644-1.355-1.26c-0.261-0.625-0.102-1.309,0.038-1.911c0.063-0.271,0.181-0.777,0.119-0.904
	c-0.122-0.053-0.656,0.067-0.945,0.132c-0.616,0.139-1.314,0.296-1.937,0.038c-0.629-0.261-0.955-0.857-1.242-1.383
	c-0.122-0.223-0.349-0.638-0.466-0.684c-0.125,0.058-0.387,0.542-0.528,0.803C9.415,4.122,9.066,4.768,8.435,5.03
	c-0.667,0.275-1.37,0.045-1.99-0.159c-0.26-0.085-0.693-0.232-0.829-0.194C5.603,4.762,5.713,5.199,5.772,5.434
	c0.137,0.543,0.307,1.219,0.044,1.853C5.573,7.874,5.013,8.251,4.518,8.584C4.269,8.751,3.75,9.101,3.75,9.25
	c0,0.116,0.52,0.423,0.715,0.54c0.514,0.304,1.097,0.649,1.351,1.262c0.259,0.626,0.101,1.307-0.04,1.906
	c-0.062,0.269-0.18,0.77-0.118,0.895c0.115,0.051,0.608-0.065,0.875-0.129C6.897,13.638,7.292,13.545,7.688,13.545z"/>
<path style="fill:#333333;" d="M10,11.75c-1.517,0-2.75-1.233-2.75-2.75S8.483,6.25,10,6.25S12.75,7.483,12.75,9
	S11.517,11.75,10,11.75z M10,7.75C9.311,7.75,8.75,8.311,8.75,9s0.561,1.25,1.25,1.25S11.25,9.689,11.25,9S10.689,7.75,10,7.75z"/>
<path style="fill:#333333;" d="M11.205,22.746c-0.739,0.001-1.5-0.243-2.255-0.734c-1.612-1.045-2.071-3.382-1.403-7.143
	l1.477,0.262c-0.536,3.017-0.279,4.96,0.743,5.623c1.166,0.757,2.166,0.645,3.148-0.353c0.118-0.12,0.283-0.312,0.484-0.546
	c1.517-1.759,3.289-3.634,5.14-3.634c0.983,0,1.816,0.373,2.406,1.079c0.719,0.859,0.9,2.027,0.761,2.804
	c-0.165,0.917-0.608,1.612-1.319,2.067l-0.809-1.264c0.354-0.227,0.562-0.566,0.651-1.069c0.078-0.432-0.047-1.112-0.435-1.576
	c-0.301-0.359-0.723-0.541-1.256-0.541c-1.318,0-3.132,2.103-4.003,3.113c-0.229,0.266-0.418,0.482-0.553,0.619
	C13.136,22.313,12.189,22.746,11.205,22.746z"/>
</svg>






