<?xml version="1.0" encoding="iso-8859-1"?>
<svg version="1.1" id="&#x56FE;&#x5C42;_1" xmlns="http://www.w3.org/2000/svg" xmlns:xlink="http://www.w3.org/1999/xlink" x="0px"
	 y="0px" viewBox="0 0 24 24" style="enable-background:new 0 0 24 24;" xml:space="preserve">
<path style="fill:#333333;" d="M19.5,17.75h-15c-1.241,0-2.25-1.01-2.25-2.25v-11c0-1.241,1.009-2.25,2.25-2.25h15
	c1.24,0,2.25,1.009,2.25,2.25v11C21.75,16.74,20.74,17.75,19.5,17.75z M4.5,3.75c-0.414,0-0.75,0.336-0.75,0.75v11
	c0,0.413,0.336,0.75,0.75,0.75h15c0.413,0,0.75-0.337,0.75-0.75v-11c0-0.414-0.337-0.75-0.75-0.75H4.5z"/>
<rect x="7" y="20.25" style="fill:#333333;" width="10" height="1.5"/>
<rect x="11.25" y="17" style="fill:#333333;" width="1.5" height="4"/>
</svg>






