<?xml version="1.0" encoding="iso-8859-1"?>
<svg version="1.1" id="&#x56FE;&#x5C42;_1" xmlns="http://www.w3.org/2000/svg" xmlns:xlink="http://www.w3.org/1999/xlink" x="0px"
	 y="0px" viewBox="0 0 24 24" style="enable-background:new 0 0 24 24;" xml:space="preserve">
<path style="fill:#333333;" d="M19.5,21.75h-15c-1.241,0-2.25-1.01-2.25-2.25v-15c0-1.241,1.009-2.25,2.25-2.25h15
	c1.24,0,2.25,1.009,2.25,2.25v15C21.75,20.74,20.74,21.75,19.5,21.75z M4.5,3.75c-0.414,0-0.75,0.336-0.75,0.75v15
	c0,0.413,0.336,0.75,0.75,0.75h15c0.413,0,0.75-0.337,0.75-0.75v-15c0-0.414-0.337-0.75-0.75-0.75H4.5z"/>
<path style="fill:#333333;" d="M15.512,15.069L9.185,9.646c-0.096-0.083-0.238-0.08-0.331,0.006l-5.347,4.901l-1.014-1.105
	L7.84,8.546c0.652-0.599,1.65-0.615,2.321-0.039l6.327,5.423L15.512,15.069z"/>
<path style="fill:#333333;" d="M20.55,12.6l-3.306-2.479c-0.098-0.075-0.238-0.064-0.327,0.022L14.53,12.53L13.47,11.47l2.387-2.387
	c0.612-0.612,1.594-0.682,2.288-0.163L21.45,11.4L20.55,12.6z"/>
<rect x="2.25" y="10" style="fill:#333333;" width="1.5" height="5"/>
<rect x="20.25" y="10" style="fill:#333333;" width="1.5" height="5"/>
</svg>






