<?xml version="1.0" encoding="iso-8859-1"?>
<svg version="1.1" id="&#x56FE;&#x5C42;_1" xmlns="http://www.w3.org/2000/svg" xmlns:xlink="http://www.w3.org/1999/xlink" x="0px"
	 y="0px" viewBox="0 0 24 24" style="enable-background:new 0 0 24 24;" xml:space="preserve">
<path style="fill:#333333;" d="M9.542,21.25c-0.015,0-0.029,0-0.044,0c-3.234-0.01-6.24-1.539-7.975-2.968L1.25,18.057V8.5h1.5
	v8.841c1.564,1.197,4.075,2.401,6.752,2.409c0.013,0,0.025,0,0.038,0c2.519,0,4.636-0.76,6.474-2.321
	c1.798-1.529,2.423-3.384,2.973-5.02c0.398-1.182,0.78-2.317,1.543-3.182c-1.317-0.356-3.27-0.2-5.959,2.962
	c-1.654,1.945-3.867,3.061-6.071,3.061v-1.5c1.763,0,3.56-0.923,4.929-2.533c4.276-5.03,7.442-3.564,8.795-2.94l0.136,1.381
	c-1.057,0.577-1.451,1.748-1.95,3.229c-0.582,1.73-1.308,3.885-3.424,5.684C14.866,20.374,12.431,21.25,9.542,21.25z"/>
<path style="fill:#333333;" d="M2.824,7.933c-0.313-0.455-0.935-0.57-1.391-0.258s-0.57,0.935-0.258,1.391L2.824,7.933z
	 M18.001,17.865c0.478-0.277,0.641-0.889,0.364-1.367c-0.277-0.478-0.889-0.641-1.367-0.364L18.001,17.865z M1.176,9.067
	c1.446,2.103,4.224,5.005,7.267,7.045c1.524,1.021,3.165,1.861,4.781,2.254c1.623,0.395,3.298,0.355,4.777-0.501l-1.002-1.731
	c-0.896,0.519-2.002,0.604-3.302,0.288c-1.306-0.318-2.727-1.025-4.141-1.972c-2.831-1.898-5.429-4.62-6.733-6.517L1.176,9.067z"/>
<path style="fill:#333333;" d="M12.829,12.335C11.395,9.467,8.953,7.326,6.99,5.605c-0.673-0.59-1.254-1.1-1.727-1.579L5.797,2.75
	h8.288l0.214,0.193c1.929,1.738,2.945,4.514,3.211,5.323l-1.426,0.468c-0.461-1.407-1.373-3.283-2.585-4.484H7.72
	C7.804,4.324,7.891,4.4,7.979,4.478c1.953,1.711,4.627,4.056,6.192,7.187L12.829,12.335z"/>
</svg>






