<?xml version="1.0" encoding="iso-8859-1"?>
<svg version="1.1" id="&#x56FE;&#x5C42;_1" xmlns="http://www.w3.org/2000/svg" xmlns:xlink="http://www.w3.org/1999/xlink" x="0px"
	 y="0px" viewBox="0 0 24 24" style="enable-background:new 0 0 24 24;" xml:space="preserve">
<path style="fill:#333333;" d="M9.5,21.75h-5c-1.241,0-2.25-1.01-2.25-2.25v-15c0-1.241,1.009-2.25,2.25-2.25h15
	c1.24,0,2.25,1.009,2.25,2.25v5h-1.5v-5c0-0.414-0.337-0.75-0.75-0.75h-15c-0.414,0-0.75,0.336-0.75,0.75v15
	c0,0.413,0.336,0.75,0.75,0.75h5V21.75z"/>
<polygon style="fill:#333333;" points="17.53,20.53 16.47,19.47 19.939,16 16.47,12.53 17.53,11.47 22.061,16 "/>
<rect x="12" y="15.25" style="fill:#333333;" width="9" height="1.5"/>
</svg>






