<?xml version="1.0" encoding="iso-8859-1"?>
<svg version="1.1" id="&#x56FE;&#x5C42;_1" xmlns="http://www.w3.org/2000/svg" xmlns:xlink="http://www.w3.org/1999/xlink" x="0px"
	 y="0px" viewBox="0 0 24 24" style="enable-background:new 0 0 24 24;" xml:space="preserve">
<path style="fill:#333333;" d="M20.5,16.25h-2v-1.5h2c0.138,0,0.25-0.112,0.25-0.25v-11c0-0.138-0.112-0.25-0.25-0.25h-10
	c-0.138,0-0.25,0.112-0.25,0.25V5h-1.5V3.5c0-0.965,0.785-1.75,1.75-1.75h10c0.965,0,1.75,0.785,1.75,1.75v11
	C22.25,15.465,21.465,16.25,20.5,16.25z"/>
<path style="fill:#333333;" d="M13.5,21.75h-10c-0.965,0-1.75-0.785-1.75-1.75V10c0-0.965,0.785-1.75,1.75-1.75h10
	c0.965,0,1.75,0.785,1.75,1.75v10C15.25,20.965,14.465,21.75,13.5,21.75z M3.5,9.75c-0.138,0-0.25,0.112-0.25,0.25v10
	c0,0.138,0.112,0.25,0.25,0.25h10c0.138,0,0.25-0.112,0.25-0.25V10c0-0.138-0.112-0.25-0.25-0.25H3.5z"/>
<rect x="7.75" y="12.5" style="fill:#333333;" width="1.5" height="5"/>
<rect x="6" y="14.25" style="fill:#333333;" width="5" height="1.5"/>
</svg>






