<?xml version="1.0" encoding="iso-8859-1"?>
<svg version="1.1" id="&#x56FE;&#x5C42;_1" xmlns="http://www.w3.org/2000/svg" xmlns:xlink="http://www.w3.org/1999/xlink" x="0px"
	 y="0px" viewBox="0 0 24 24" style="enable-background:new 0 0 24 24;" xml:space="preserve">
<rect x="10" y="17.984" transform="matrix(0.9923 -0.124 0.124 0.9923 -2.3977 1.4878)" style="fill:#333333;" width="1.5" height="4.031"/>
<path style="fill:#333333;" d="M21.75,22.75H11l-0.564-1.244l3.278-3.747L12.15,5.25h9.6V22.75z M12.652,21.25h7.598V6.75h-6.4
	l1.437,11.491L12.652,21.25z"/>
<rect x="14" y="13.25" style="fill:#333333;" width="2.5" height="1.5"/>
<rect x="13.5" y="9.25" style="fill:#333333;" width="3" height="1.5"/>
<path style="fill:#333333;" d="M15.35,18.75H2.25V1.25h10.912L15.35,18.75z M3.75,17.25h9.9l-1.812-14.5H3.75V17.25z"/>
<rect x="6" y="5.25" style="fill:#333333;" width="3.5" height="1.5"/>
<rect x="6" y="9.25" style="fill:#333333;" width="4" height="1.5"/>
<rect x="6" y="13.25" style="fill:#333333;" width="4.5" height="1.5"/>
</svg>






