<?xml version="1.0" encoding="iso-8859-1"?>
<svg version="1.1" id="&#x56FE;&#x5C42;_1" xmlns="http://www.w3.org/2000/svg" xmlns:xlink="http://www.w3.org/1999/xlink" x="0px"
	 y="0px" viewBox="0 0 24 24" style="enable-background:new 0 0 24 24;" xml:space="preserve">
<path style="fill:#333333;" d="M14.491,21.009L13.19,20.5v-4.694c-1.434-0.158-2.948-0.071-4.518,0.262
	c-1.718,0.365-3.769,1.989-6.093,4.826l-1.326-0.552c0.357-3.518,1.722-6.501,4.058-8.869c2.182-2.211,4.829-3.424,7.879-3.614V3.5
	l1.287-0.523l8.556,8.782L14.491,21.009z M11.784,14.229c0.777,0,1.538,0.061,2.278,0.182l0.629,0.104v4.067l6.276-6.796
	L14.69,5.345v3.983l-0.744,0.006c-2.995,0.023-5.47,1.068-7.567,3.193C4.886,14.04,3.836,15.84,3.241,17.9
	c1.849-1.878,3.537-2.964,5.121-3.3C9.529,14.354,10.673,14.229,11.784,14.229z"/>
</svg>






