<?xml version="1.0" encoding="iso-8859-1"?>
<svg version="1.1" id="&#x56FE;&#x5C42;_1" xmlns="http://www.w3.org/2000/svg" xmlns:xlink="http://www.w3.org/1999/xlink" x="0px"
	 y="0px" viewBox="0 0 24 24" style="enable-background:new 0 0 24 24;" xml:space="preserve">
<rect x="12.343" y="15.25" transform="matrix(0.7071 -0.7071 0.7071 0.7071 -6.6274 16)" style="fill:#333333;" width="7.314" height="1.5"/>
<rect x="4.343" y="15.25" transform="matrix(0.7071 -0.7071 0.7071 0.7071 -8.9706 10.3431)" style="fill:#333333;" width="7.314" height="1.5"/>
<rect x="12.343" y="7.25" transform="matrix(0.7071 -0.7071 0.7071 0.7071 -0.9706 13.6569)" style="fill:#333333;" width="7.314" height="1.5"/>
<rect x="4.343" y="7.25" transform="matrix(0.7071 -0.7071 0.7071 0.7071 -3.3137 8)" style="fill:#333333;" width="7.314" height="1.5"/>
<path style="fill:#333333;" d="M4,6.75C2.483,6.75,1.25,5.517,1.25,4S2.483,1.25,4,1.25S6.75,2.483,6.75,4S5.517,6.75,4,6.75z
	 M4,2.75C3.311,2.75,2.75,3.311,2.75,4S3.311,5.25,4,5.25S5.25,4.689,5.25,4S4.689,2.75,4,2.75z"/>
<path style="fill:#333333;" d="M12,6.75c-1.517,0-2.75-1.233-2.75-2.75S10.483,1.25,12,1.25S14.75,2.483,14.75,4
	S13.517,6.75,12,6.75z M12,2.75c-0.689,0-1.25,0.561-1.25,1.25S11.311,5.25,12,5.25S13.25,4.689,13.25,4S12.689,2.75,12,2.75z"/>
<path style="fill:#333333;" d="M20,6.75c-1.517,0-2.75-1.233-2.75-2.75S18.483,1.25,20,1.25S22.75,2.483,22.75,4
	S21.517,6.75,20,6.75z M20,2.75c-0.689,0-1.25,0.561-1.25,1.25S19.311,5.25,20,5.25S21.25,4.689,21.25,4S20.689,2.75,20,2.75z"/>
<path style="fill:#333333;" d="M20,14.75c-1.517,0-2.75-1.233-2.75-2.75S18.483,9.25,20,9.25s2.75,1.233,2.75,2.75
	S21.517,14.75,20,14.75z M20,10.75c-0.689,0-1.25,0.561-1.25,1.25s0.561,1.25,1.25,1.25s1.25-0.561,1.25-1.25S20.689,10.75,20,10.75
	z"/>
<path style="fill:#333333;" d="M20,22.75c-1.517,0-2.75-1.233-2.75-2.75s1.233-2.75,2.75-2.75s2.75,1.233,2.75,2.75
	S21.517,22.75,20,22.75z M20,18.75c-0.689,0-1.25,0.561-1.25,1.25s0.561,1.25,1.25,1.25s1.25-0.561,1.25-1.25S20.689,18.75,20,18.75
	z"/>
<path style="fill:#333333;" d="M12,22.75c-1.517,0-2.75-1.233-2.75-2.75s1.233-2.75,2.75-2.75s2.75,1.233,2.75,2.75
	S13.517,22.75,12,22.75z M12,18.75c-0.689,0-1.25,0.561-1.25,1.25s0.561,1.25,1.25,1.25s1.25-0.561,1.25-1.25S12.689,18.75,12,18.75
	z"/>
<path style="fill:#333333;" d="M4,22.75c-1.517,0-2.75-1.233-2.75-2.75S2.483,17.25,4,17.25S6.75,18.483,6.75,20
	S5.517,22.75,4,22.75z M4,18.75c-0.689,0-1.25,0.561-1.25,1.25S3.311,21.25,4,21.25S5.25,20.689,5.25,20S4.689,18.75,4,18.75z"/>
<path style="fill:#333333;" d="M4,14.75c-1.517,0-2.75-1.233-2.75-2.75S2.483,9.25,4,9.25S6.75,10.483,6.75,12S5.517,14.75,4,14.75z
	 M4,10.75c-0.689,0-1.25,0.561-1.25,1.25S3.311,13.25,4,13.25S5.25,12.689,5.25,12S4.689,10.75,4,10.75z"/>
<path style="fill:#333333;" d="M12,14.75c-1.517,0-2.75-1.233-2.75-2.75S10.483,9.25,12,9.25s2.75,1.233,2.75,2.75
	S13.517,14.75,12,14.75z M12,10.75c-0.689,0-1.25,0.561-1.25,1.25s0.561,1.25,1.25,1.25s1.25-0.561,1.25-1.25S12.689,10.75,12,10.75
	z"/>
</svg>






