<?xml version="1.0" encoding="iso-8859-1"?>
<svg version="1.1" id="&#x56FE;&#x5C42;_1" xmlns="http://www.w3.org/2000/svg" xmlns:xlink="http://www.w3.org/1999/xlink" x="0px"
	 y="0px" viewBox="0 0 24 24" style="enable-background:new 0 0 24 24;" xml:space="preserve">
<path style="fill:#333333;" d="M10.75,21.75H9c-2.936,0-4.553,0-5.651-1.099C2.25,19.553,2.25,17.936,2.25,15V9
	c0-2.936,0-4.553,1.099-5.651C4.447,2.25,6.064,2.25,9,2.25h1.75V21.75z M9,3.75c-2.618,0-3.932,0-4.591,0.659
	C3.75,5.068,3.75,6.382,3.75,9v6c0,2.617,0,3.932,0.659,4.591C5.068,20.25,6.382,20.25,9,20.25h0.25V3.75H9z"/>
<path style="fill:#333333;" d="M15,21.75h-1.75V2.25H15c2.936,0,4.553,0,5.651,1.099C21.75,4.447,21.75,6.064,21.75,9v6
	c0,2.936,0,4.553-1.099,5.651S17.936,21.75,15,21.75z M14.75,20.25H15c2.617,0,3.932,0,4.591-0.659S20.25,17.617,20.25,15V9
	c0-2.618,0-3.932-0.659-4.591C18.932,3.75,17.617,3.75,15,3.75h-0.25V20.25z"/>
<rect x="16.75" y="6.5" style="fill:#333333;" width="1.5" height="1"/>
<rect x="5.75" y="16.5" style="fill:#333333;" width="1.5" height="1"/>
</svg>






