<?xml version="1.0" encoding="iso-8859-1"?>
<svg version="1.1" id="&#x56FE;&#x5C42;_1" xmlns="http://www.w3.org/2000/svg" xmlns:xlink="http://www.w3.org/1999/xlink" x="0px"
	 y="0px" viewBox="0 0 24 24" style="enable-background:new 0 0 24 24;" xml:space="preserve">
<path style="fill:#333333;" d="M17.714,6.75H6.287l2.25-4.5h6.927L17.714,6.75z M8.713,5.25h6.573l-0.75-1.5H9.463L8.713,5.25z"/>
<path style="fill:#333333;" d="M20.5,21.75h-17c-1.241,0-2.25-0.965-2.25-2.15V7.4c0-1.186,1.009-2.15,2.25-2.15h17
	c1.24,0,2.25,0.964,2.25,2.15v12.2C22.75,20.785,21.74,21.75,20.5,21.75z M3.5,6.75c-0.414,0-0.75,0.292-0.75,0.65v12.2
	c0,0.358,0.336,0.65,0.75,0.65h17c0.413,0,0.75-0.292,0.75-0.65V7.4c0-0.358-0.337-0.65-0.75-0.65H3.5z"/>
<rect x="7.969" y="12.75" transform="matrix(0.496 -0.8683 0.8683 0.496 -5.6743 17.2239)" style="fill:#333333;" width="8.062" height="1.5"/>
<path style="fill:#333333;" d="M12,18.25c-2.619,0-4.75-2.131-4.75-4.75S9.381,8.75,12,8.75s4.75,2.131,4.75,4.75
	S14.619,18.25,12,18.25z M12,10.25c-1.792,0-3.25,1.458-3.25,3.25s1.458,3.25,3.25,3.25s3.25-1.458,3.25-3.25S13.792,10.25,12,10.25
	z"/>
</svg>






