<?xml version="1.0" encoding="iso-8859-1"?>
<svg version="1.1" id="&#x56FE;&#x5C42;_1" xmlns="http://www.w3.org/2000/svg" xmlns:xlink="http://www.w3.org/1999/xlink" x="0px"
	 y="0px" viewBox="0 0 24 24" style="enable-background:new 0 0 24 24;" xml:space="preserve">
<path style="fill:#333333;" d="M19.5,22.75h-14c-0.689,0-1.25-0.561-1.25-1.25v-17c0-0.689,0.561-1.25,1.25-1.25H9v1.5H5.75v16.5
	h13.5V4.75H16v-1.5h3.5c0.689,0,1.25,0.561,1.25,1.25v17C20.75,22.189,20.189,22.75,19.5,22.75z"/>
<path style="fill:#333333;" d="M15.5,7.75h-6c-0.689,0-1.25-0.561-1.25-1.25V3.25h2V3c0-1.241,1.009-2.25,2.25-2.25
	c1.24,0,2.25,1.009,2.25,2.25v0.25h2V6.5C16.75,7.189,16.189,7.75,15.5,7.75z M9.75,6.25h5.5v-1.5h-1.976L13.25,3
	c0-0.414-0.337-0.75-0.75-0.75S11.75,2.586,11.75,3v1.725l-2,0.025V6.25z"/>
</svg>






