<?xml version="1.0" encoding="iso-8859-1"?>
<svg version="1.1" id="&#x56FE;&#x5C42;_1" xmlns="http://www.w3.org/2000/svg" xmlns:xlink="http://www.w3.org/1999/xlink" x="0px"
	 y="0px" viewBox="0 0 24 24" style="enable-background:new 0 0 24 24;" xml:space="preserve">
<rect x="2" y="21.25" style="fill:#333333;" width="20" height="1.5"/>
<rect x="6" y="6.25" style="fill:#333333;" width="12" height="1.5"/>
<path style="fill:#333333;" d="M20.829,22.75H3.171l0.527-5.27c0.042-0.425,0.132-0.845,0.267-1.247l1.667-5.001
	c0.088-0.264,0.15-0.539,0.186-0.817L6.338,6.25h11.324l0.521,4.166c0.035,0.275,0.097,0.551,0.186,0.818l1.667,5
	c0.134,0.404,0.224,0.823,0.267,1.246L20.829,22.75z M4.829,21.25h14.342l-0.361-3.621c-0.031-0.312-0.099-0.622-0.198-0.921
	l-1.667-5.001c-0.119-0.361-0.203-0.732-0.25-1.105L16.338,7.75H7.662l-0.356,2.852c-0.047,0.377-0.132,0.749-0.251,1.106l-1.667,5
	c-0.099,0.298-0.166,0.607-0.197,0.922L4.829,21.25z"/>
<path style="fill:#333333;" d="M12.53,4.53L11.47,3.47l0.414-0.414c0.52-0.52,1.21-0.806,1.944-0.806h0.344
	c0.329,0,0.651-0.133,0.884-0.366L15.47,1.47L16.53,2.53l-0.414,0.414c-0.52,0.52-1.21,0.806-1.944,0.806h-0.344
	c-0.329,0-0.651,0.133-0.884,0.366L12.53,4.53z"/>
<path style="fill:#333333;" d="M10.343,19.415c-0.538-0.229-1.015-0.559-1.419-0.982C8.167,17.64,7.75,16.598,7.75,15.5h1.5
	c0,0.71,0.27,1.384,0.759,1.897c0.262,0.274,0.571,0.489,0.919,0.637L10.343,19.415z"/>
<path style="fill:#333333;" d="M13.657,19.415l-0.586-1.381c0.349-0.147,0.657-0.362,0.919-0.636c0.49-0.514,0.76-1.188,0.76-1.898
	h1.5c0,1.099-0.417,2.14-1.175,2.933C14.673,18.855,14.195,19.187,13.657,19.415z"/>
<path style="fill:#333333;" d="M10.009,13.603l-1.085-1.035c0.811-0.85,1.903-1.317,3.076-1.317c1.174,0,2.267,0.468,3.076,1.317
	l-1.086,1.035C12.943,12.504,11.06,12.502,10.009,13.603z"/>
<circle style="fill:#333333;" cx="12" cy="15.5" r="1"/>
</svg>






