<?xml version="1.0" encoding="iso-8859-1"?>
<svg version="1.1" id="&#x56FE;&#x5C42;_1" xmlns="http://www.w3.org/2000/svg" xmlns:xlink="http://www.w3.org/1999/xlink" x="0px"
	 y="0px" viewBox="0 0 24 24" style="enable-background:new 0 0 24 24;" xml:space="preserve">
<path style="fill:#333333;" d="M17.729,19.538c-0.192,0-0.385-0.043-0.562-0.127C16.259,18.978,14.379,18.25,12,18.25
	c-2.38,0-4.259,0.728-5.167,1.161c-0.319,0.152-0.693,0.169-1.026,0.041c-0.33-0.125-0.586-0.371-0.721-0.692l-3.663-8.699
	c-0.185-0.439-0.106-0.93,0.205-1.28C2.573,7.717,6.116,4.25,12,4.25c5.887,0,9.428,3.468,10.373,4.53
	c0.312,0.351,0.39,0.841,0.205,1.281l-3.663,8.699c-0.136,0.321-0.392,0.567-0.722,0.692C18.044,19.51,17.887,19.538,17.729,19.538z
	 M12,16.75c2.517,0,4.538,0.726,5.621,1.218l3.507-8.328C20.131,8.567,17.03,5.75,12,5.75c-5.027,0-8.129,2.816-9.127,3.89
	l3.506,8.328C7.461,17.476,9.482,16.75,12,16.75z"/>
<rect x="10" y="11.251" style="fill:#333333;" width="4" height="1.5"/>
<rect x="11.25" y="10" style="fill:#333333;" width="1.5" height="4"/>
</svg>






