<?xml version="1.0" encoding="iso-8859-1"?>
<svg version="1.1" id="&#x56FE;&#x5C42;_1" xmlns="http://www.w3.org/2000/svg" xmlns:xlink="http://www.w3.org/1999/xlink" x="0px"
	 y="0px" viewBox="0 0 24 24" style="enable-background:new 0 0 24 24;" xml:space="preserve">
<path style="fill:#333333;" d="M18.387,7.219c-0.24,0-0.446-0.064-0.599-0.218L17.65,6.864c-1.099-1.081-1.559-1.618-1.358-2.228
	l0.065-0.196l0.155-0.135c0.432-0.375,1.084-1.07,1.475-1.485c0.144-0.154,0.26-0.277,0.328-0.347l0.403-0.408l0.499,0.281
	c1.124,0.633,2.522,1.448,2.801,1.73c0.253,0.257,0.304,0.639,0.128,0.975c-0.06,0.113-0.144,0.221-0.263,0.339
	C21.859,5.414,19.654,7.219,18.387,7.219z M18.846,5.937l0.011,0.011C18.853,5.944,18.85,5.94,18.846,5.937z M17.949,5.016
	c0.134,0.152,0.336,0.366,0.639,0.666c0.428-0.172,1.196-0.604,1.728-0.96c-0.354-0.214-0.82-0.489-1.325-0.779
	C18.69,4.262,18.308,4.666,17.949,5.016z"/>
<path style="fill:#333333;" d="M9.827,22.498c-2.265,0-4.356-0.863-5.821-2.457c-1.293-1.409-2-3.296-1.988-5.312l0.005-0.939
	l0.915,0.213c0.07,0.017,0.144,0.024,0.221,0.024c0.555,0,1.007-0.452,1.007-1.007c0-0.475-0.335-0.889-0.798-0.985l-0.906-0.189
	l0.373-0.847c0.542-1.231,1.321-2.343,2.314-3.307l1.269,0.471L5.775,8.336l0.01,0.011l0.644-0.086l0.016,0.117
	c0.13,0.962,0.928,1.705,1.898,1.764c1.371,0.084,2.581,0.965,3.082,2.245l0.045,0.116c0.27,0.69,0.864,1.201,1.587,1.366
	l0.841,0.19c0.811,0.184,1.488,0.75,1.813,1.516c0.305,0.719,1.138,1.1,1.893,0.874l0.852,1.118
	c-0.503,0.797-1.116,1.53-1.821,2.179c-1.412,1.297-3.109,2.18-4.908,2.554C11.086,22.433,10.45,22.498,9.827,22.498z M3.554,15.495
	c0.137,1.354,0.668,2.563,1.557,3.53c1.507,1.641,3.865,2.316,6.31,1.806c1.534-0.318,2.986-1.076,4.198-2.19
	c0.253-0.231,0.491-0.476,0.715-0.731c-0.875-0.238-1.627-0.86-2.003-1.748c-0.137-0.322-0.423-0.562-0.764-0.639l-0.841-0.19
	c-1.211-0.275-2.202-1.129-2.654-2.283l-0.045-0.116c-0.288-0.737-0.985-1.245-1.776-1.293c-1.267-0.078-2.364-0.826-2.926-1.904
	c-0.295,0.378-0.557,0.777-0.785,1.194c0.684,0.454,1.126,1.233,1.126,2.091C5.666,14.268,4.749,15.306,3.554,15.495z"/>
<path style="fill:#333333;" d="M17.151,18.018c-0.389,0-0.779-0.075-1.152-0.225c-0.76-0.305-1.353-0.884-1.669-1.631
	c-0.137-0.323-0.423-0.562-0.764-0.64l-0.841-0.19c-1.211-0.275-2.203-1.129-2.653-2.284l-0.044-0.112
	c-0.289-0.739-0.986-1.248-1.777-1.296c-1.682-0.103-3.067-1.391-3.292-3.062L4.943,8.463C4.794,7.36,5.145,6.263,5.903,5.452
	l0.126-0.135c1.229-1.312,2.89-2.132,4.678-2.308l0.703-0.069c1.352-0.131,2.737,0.059,4.005,0.556
	c1.472,0.578,2.757,1.548,3.715,2.805l0.125,0.165c1.129,1.48,1.787,3.243,1.905,5.098l0.054,0.846
	c0.026,0.416,0.007,0.835-0.057,1.246l-0.104,0.665c-0.237,1.516-1.267,2.836-2.687,3.446
	C17.977,17.934,17.564,18.018,17.151,18.018z M7.125,6.342L6.999,6.476c-0.45,0.481-0.658,1.131-0.57,1.785l0.016,0.114
	c0.13,0.965,0.928,1.708,1.897,1.767c1.372,0.084,2.581,0.966,3.081,2.245l0.045,0.113c0.271,0.693,0.864,1.204,1.589,1.369
	l0.84,0.19c0.811,0.184,1.488,0.75,1.813,1.517c0.16,0.377,0.461,0.67,0.847,0.825c0.396,0.156,0.827,0.153,1.216-0.014
	c0.951-0.408,1.639-1.29,1.797-2.301l0.104-0.664c0.047-0.303,0.062-0.613,0.042-0.92l-0.053-0.845
	c-0.1-1.559-0.653-3.04-1.602-4.283L17.938,7.21c-0.792-1.039-1.854-1.84-3.071-2.318c-1.046-0.41-2.189-0.57-3.309-0.459
	l-0.703,0.069C9.428,4.642,8.104,5.295,7.125,6.342L7.125,6.342z"/>
</svg>






