<?xml version="1.0" encoding="iso-8859-1"?>
<svg version="1.1" id="&#x56FE;&#x5C42;_1" xmlns="http://www.w3.org/2000/svg" xmlns:xlink="http://www.w3.org/1999/xlink" x="0px"
	 y="0px" viewBox="0 0 24 24" style="enable-background:new 0 0 24 24;" xml:space="preserve">
<path style="fill:#333333;" d="M15.575,22.25h-7.15c-0.472,0-0.932-0.195-1.259-0.535l-4.925-5.104
	c-0.317-0.328-0.491-0.76-0.491-1.215V8.604c0-0.456,0.174-0.887,0.49-1.215l4.925-5.104C7.493,1.945,7.953,1.75,8.425,1.75h7.15
	c0.473,0,0.932,0.195,1.26,0.535l4.925,5.104c0.316,0.329,0.49,0.76,0.49,1.216v6.792c0,0.455-0.174,0.887-0.49,1.215l-4.925,5.104
	C16.507,22.055,16.048,22.25,15.575,22.25z M8.245,20.674c0.047,0.048,0.113,0.076,0.18,0.076h7.15c0.067,0,0.133-0.028,0.18-0.076
	l4.925-5.104c0.045-0.047,0.07-0.108,0.07-0.174V8.604c0-0.065-0.025-0.127-0.07-0.174l-4.925-5.103
	c-0.047-0.049-0.112-0.077-0.18-0.077h-7.15c-0.067,0-0.133,0.028-0.18,0.077L3.32,8.43C3.275,8.477,3.25,8.539,3.25,8.604v6.792
	c0,0.065,0.025,0.127,0.07,0.174L8.245,20.674z"/>
</svg>






