<?xml version="1.0" encoding="iso-8859-1"?>
<svg version="1.1" id="&#x56FE;&#x5C42;_1" xmlns="http://www.w3.org/2000/svg" xmlns:xlink="http://www.w3.org/1999/xlink" x="0px"
	 y="0px" viewBox="0 0 24 24" style="enable-background:new 0 0 24 24;" xml:space="preserve">
<rect x="4.75" y="1.957" transform="matrix(0.7035 -0.7107 0.7107 0.7035 -2.2602 5.5319)" style="fill:#333333;" width="1.501" height="7.036"/>
<rect x="1.982" y="17.725" transform="matrix(0.7107 -0.7035 0.7035 0.7107 -11.4063 9.2146)" style="fill:#333333;" width="7.036" height="1.501"/>
<rect x="17.775" y="14.975" transform="matrix(0.7072 -0.707 0.707 0.7072 -7.6379 18.5081)" style="fill:#333333;" width="1.5" height="7"/>
<rect x="14.975" y="4.725" transform="matrix(0.7071 -0.7071 0.7071 0.7071 1.5399 14.6674)" style="fill:#333333;" width="7" height="1.5"/>
<polygon style="fill:#333333;" points="20.5,8.75 15.25,8.75 15.25,3.5 16.75,3.5 16.75,7.25 20.5,7.25 "/>
<polygon style="fill:#333333;" points="8.75,8.75 3.5,8.75 3.5,7.25 7.25,7.25 7.25,3.5 8.75,3.5 "/>
<polygon style="fill:#333333;" points="8.75,20.5 7.25,20.5 7.25,16.75 3.5,16.75 3.5,15.25 8.75,15.25 "/>
<polygon style="fill:#333333;" points="16.75,20.5 15.25,20.5 15.25,15.25 20.45,15.25 20.45,16.75 16.75,16.75 "/>
</svg>






