<?xml version="1.0" encoding="iso-8859-1"?>
<svg version="1.1" id="&#x56FE;&#x5C42;_1" xmlns="http://www.w3.org/2000/svg" xmlns:xlink="http://www.w3.org/1999/xlink" x="0px"
	 y="0px" viewBox="0 0 24 24" style="enable-background:new 0 0 24 24;" xml:space="preserve">
<path style="fill:#333333;" d="M19.75,21.75H4.25V2.25h15.5V21.75z M5.75,20.25h12.5V3.75H5.75V20.25z"/>
<path style="fill:#333333;" d="M11.887,15.75c-0.942,0-1.858-0.621-2.334-1.583c-0.461-0.93-0.396-1.931,0.172-2.677l0,0
	c0.664-0.872,1.189-2.115,1.472-2.783l1.294-0.154c0.549,0.742,1.724,2.577,2.11,3.594c0.284,0.748,0.161,1.592-0.338,2.316
	C13.715,15.257,12.806,15.75,11.887,15.75z M12.021,10.537c-0.296,0.613-0.668,1.29-1.104,1.861l0,0
	c-0.319,0.419-0.097,0.95-0.021,1.103c0.219,0.441,0.626,0.749,0.991,0.749c0.432,0,0.869-0.244,1.14-0.638
	c0.215-0.312,0.277-0.651,0.171-0.932C13.003,12.167,12.503,11.296,12.021,10.537z"/>
<rect x="3" y="2.25" style="fill:#333333;" width="18" height="1.5"/>
<rect x="3" y="20.25" style="fill:#333333;" width="18" height="1.5"/>
<rect x="3" y="11.25" style="fill:#333333;" width="2" height="1.5"/>
<rect x="19" y="11.25" style="fill:#333333;" width="2" height="1.5"/>
</svg>






