<?xml version="1.0" encoding="iso-8859-1"?>
<svg version="1.1" id="&#x56FE;&#x5C42;_1" xmlns="http://www.w3.org/2000/svg" xmlns:xlink="http://www.w3.org/1999/xlink" x="0px"
	 y="0px" viewBox="0 0 24 24" style="enable-background:new 0 0 24 24;" xml:space="preserve">
<path style="fill:#333333;" d="M12.23,23.062c-2.374,0-4.574-1.642-5.204-2.271c-0.225-0.226-0.437-0.477-0.631-0.747
	c-0.42-0.584-0.373-1.365,0.113-1.9c0.02-0.022,0.041-0.044,0.061-0.066c-0.132-0.039-0.26-0.095-0.378-0.169
	c-0.412-0.257-0.669-0.685-0.707-1.175c-0.08-1.041,0.01-3.043,1.508-4.755v0c1.488-1.701,3.231-2.563,5.179-2.563
	c0.913,0,3.626,0.411,5.191,2.289c1.709,2.05,2.194,4.668,1.268,6.833c-1.02,2.379-3.346,4.183-5.789,4.487
	C12.638,23.05,12.434,23.062,12.23,23.062z M8.775,18.394c-0.291,0-0.723,0.281-1.156,0.76c0.142,0.222,0.301,0.411,0.469,0.579
	c0.419,0.417,2.542,2.055,4.568,1.804c1.933-0.241,3.779-1.684,4.596-3.589c0.704-1.644,0.305-3.668-1.041-5.282
	c-1.211-1.453-3.494-1.75-4.039-1.75c-1.497,0-2.859,0.69-4.05,2.051c-1.137,1.3-1.203,2.847-1.141,3.653
	c0.497-0.149,0.82-0.308,1.026-0.444c0.308-0.206,0.322-0.31,0.382-0.749c0.033-0.241,0.073-0.542,0.188-0.884
	c0.431-1.29,2.149-2.133,3.605-1.771c1.611,0.402,2.183,1.8,2.183,2.874c0,1.376-0.711,2.497-1.901,2.999
	c-1.096,0.458-1.838,0.242-2.624,0.01c-0.283-0.083-0.6-0.178-0.987-0.255C8.828,18.396,8.802,18.394,8.775,18.394z M9.357,16.975
	c0.345,0.077,0.639,0.164,0.906,0.242c0.719,0.213,1.015,0.3,1.618,0.046c0.855-0.36,0.983-1.167,0.983-1.616
	c0-0.271-0.075-1.177-1.046-1.419c-0.82-0.204-1.668,0.338-1.819,0.79c-0.069,0.209-0.096,0.404-0.124,0.611
	C9.82,16.034,9.755,16.515,9.357,16.975z"/>
<path style="fill:#333333;" d="M15.325,11.915L6.12,4.875C5.886,5.342,6.07,5.588,6.138,5.678c0.598,0.797,3.019,2.951,4.5,4.204
	l-0.969,1.146c-0.156-0.132-3.824-3.241-4.731-4.449c-0.629-0.84-0.576-1.886,0.147-2.87c0.187-0.253,0.461-0.417,0.773-0.461
	C6.178,3.199,6.514,3.289,6.777,3.49l9.46,7.234L15.325,11.915z"/>
<path style="fill:#333333;" d="M16.841,13.358l-5.776-10.62c-0.404,0.331-0.336,0.63-0.312,0.739
	c0.204,0.897,0.999,2.538,1.638,3.856l0.285,0.592l-1.352,0.649l-0.283-0.587C10.333,6.528,9.532,4.875,9.29,3.81
	c-0.232-1.023,0.244-1.956,1.306-2.56c0.273-0.155,0.59-0.193,0.894-0.106c0.312,0.089,0.582,0.307,0.739,0.598l5.93,10.9
	L16.841,13.358z"/>
<path style="fill:#333333;" d="M17.251,14.035L16.791,4.2c-0.51,0.121-0.579,0.419-0.604,0.529
	c-0.263,1.128-0.431,2.767-0.437,4.274l-1.5-0.006c0.007-1.612,0.189-3.378,0.476-4.608c0.238-1.022,1.075-1.653,2.295-1.732
	c0.312-0.015,0.614,0.084,0.849,0.294c0.242,0.216,0.39,0.53,0.405,0.86l0.475,10.154L17.251,14.035z"/>
</svg>






