<?xml version="1.0" encoding="iso-8859-1"?>
<svg version="1.1" id="&#x56FE;&#x5C42;_1" xmlns="http://www.w3.org/2000/svg" xmlns:xlink="http://www.w3.org/1999/xlink" x="0px"
	 y="0px" viewBox="0 0 24 24" style="enable-background:new 0 0 24 24;" xml:space="preserve">
<path style="fill:#333333;" d="M12,22.75c-3.826,0-7.394-2.06-9.312-5.374l0.649-1.126H7.5v1.5H4.754
	c1.741,2.187,4.411,3.5,7.246,3.5c2.018,0,3.937-0.638,5.551-1.843l0.898,1.201C16.573,22.01,14.344,22.75,12,22.75z"/>
<path style="fill:#333333;" d="M20.662,18.499l-2.671-4.624l1.299-0.75l1.314,2.275c0.425-1.077,0.646-2.231,0.646-3.4
	c0-3.679-2.179-7.008-5.55-8.48l0.6-1.375c3.919,1.712,6.45,5.58,6.45,9.855c0,1.89-0.497,3.748-1.438,5.375L20.662,18.499z"/>
<path style="fill:#333333;" d="M1.303,13.074C1.268,12.721,1.25,12.363,1.25,12C1.25,6.072,6.072,1.25,12,1.25l0.649,1.125
	l-2.021,3.5L9.33,5.125l1.314-2.276C6.184,3.507,2.75,7.36,2.75,12c0,0.312,0.015,0.621,0.045,0.926L1.303,13.074z"/>
<path style="fill:#333333;" d="M12,15.75c-2.068,0-3.75-1.683-3.75-3.75c0-2.068,1.682-3.75,3.75-3.75c2.067,0,3.75,1.682,3.75,3.75
	C15.75,14.067,14.067,15.75,12,15.75z M12,9.75c-1.241,0-2.25,1.009-2.25,2.25c0,1.24,1.009,2.25,2.25,2.25
	c1.24,0,2.25-1.01,2.25-2.25C14.25,10.759,13.24,9.75,12,9.75z"/>
</svg>






