<?xml version="1.0" encoding="iso-8859-1"?>
<svg version="1.1" id="&#x56FE;&#x5C42;_1" xmlns="http://www.w3.org/2000/svg" xmlns:xlink="http://www.w3.org/1999/xlink" x="0px"
	 y="0px" viewBox="0 0 24 24" style="enable-background:new 0 0 24 24;" xml:space="preserve">
<path style="fill:#333333;" d="M21,21.25H3c-0.965,0-1.75-0.785-1.75-1.75v-15c0-0.965,0.785-1.75,1.75-1.75h18
	c0.965,0,1.75,0.785,1.75,1.75v15C22.75,20.465,21.965,21.25,21,21.25z M3,4.25c-0.138,0-0.25,0.112-0.25,0.25v15
	c0,0.138,0.112,0.25,0.25,0.25h18c0.138,0,0.25-0.112,0.25-0.25v-15c0-0.138-0.112-0.25-0.25-0.25H3z"/>
<polygon style="fill:#333333;" points="8.75,15 7.25,15 7.25,10.376 6.407,10.92 5.593,9.66 7.593,8.37 8.75,9 "/>
<polygon style="fill:#333333;" points="18.25,15 16.75,15 16.75,10.376 15.906,10.92 15.094,9.66 17.094,8.37 18.25,9 "/>
<rect x="11.25" y="10" style="fill:#333333;" width="1.5" height="0.5"/>
<rect x="11.25" y="13.5" style="fill:#333333;" width="1.5" height="0.5"/>
</svg>






