<?xml version="1.0" encoding="iso-8859-1"?>
<svg version="1.1" id="&#x56FE;&#x5C42;_1" xmlns="http://www.w3.org/2000/svg" xmlns:xlink="http://www.w3.org/1999/xlink" x="0px"
	 y="0px" viewBox="0 0 24 24" style="enable-background:new 0 0 24 24;" xml:space="preserve">
<path style="fill:#333333;" d="M12.872,22.75h-0.447c-2.868,0-5.519-1.433-7.09-3.831l-1.098-1.675
	c-0.985-1.505-0.693-3.515,0.679-4.675L6,11.652V3.625C6,2.315,7.065,1.25,8.375,1.25s2.375,1.065,2.375,2.375v2.292
	c0.271-0.108,0.566-0.167,0.875-0.167c0.842,0,1.583,0.44,2.005,1.103C13.992,6.629,14.419,6.5,14.875,6.5
	c1.24,0,2.263,0.956,2.366,2.17c0.273-0.11,0.571-0.17,0.884-0.17c1.31,0,2.375,1.065,2.375,2.375v5.109
	c0,0.98-0.293,1.926-0.846,2.734l-0.486,0.711C17.745,21.509,15.392,22.75,12.872,22.75z M8.375,2.75
	C7.893,2.75,7.5,3.143,7.5,3.625v8.105c0,0.393-0.172,0.763-0.471,1.016l-1.144,0.968c-0.794,0.673-0.964,1.837-0.393,2.708
	l1.098,1.675c1.293,1.975,3.475,3.153,5.835,3.153h0.447c2.024,0,3.915-0.997,5.058-2.668l0.486-0.711
	C18.798,17.313,19,16.661,19,15.984v-5.109C19,10.393,18.607,10,18.125,10s-0.875,0.393-0.875,0.875h-1.5v-2
	C15.75,8.393,15.357,8,14.875,8S14,8.393,14,8.875h-1.5v-0.75c0-0.482-0.393-0.875-0.875-0.875S10.75,7.643,10.75,8.125h-1.5v-4.5
	C9.25,3.143,8.857,2.75,8.375,2.75z"/>
</svg>






