<?xml version="1.0" encoding="iso-8859-1"?>
<svg version="1.1" id="&#x56FE;&#x5C42;_1" xmlns="http://www.w3.org/2000/svg" xmlns:xlink="http://www.w3.org/1999/xlink" x="0px"
	 y="0px" viewBox="0 0 24 24" style="enable-background:new 0 0 24 24;" xml:space="preserve">
<path style="fill:#333333;" d="M11.5,22.75c-4.033,0-6.114-1.301-6.671-2.415l-0.01-0.021l-2.03-4.398
	c-0.707-1.532-0.107-3.377,1.366-4.2l5.628-3.146c0.775-0.433,1.737-0.369,2.447,0.164l0.161,0.12l0.549-5.308
	c0.062-0.595,0.364-1.15,0.832-1.525l0.109-0.087C14.549,1.4,15.512,1.452,16.12,2.06c0.406,0.405,0.63,0.945,0.63,1.52V14.19
	l1.281-1.026c0.909-0.728,2.221-0.662,3.508,0.182c0.272,0.179,0.454,0.454,0.512,0.775c0.06,0.329-0.022,0.674-0.224,0.947
	l-3.974,5.377C17.733,20.586,15.791,22.75,11.5,22.75z M6.175,19.672c0.184,0.346,1.586,1.578,5.325,1.578
	c3.618,0,5.17-1.727,5.186-1.744l3.747-5.072c-0.396-0.208-1.034-0.441-1.464-0.098l-1.688,1.351
	c-0.381,0.302-0.889,0.359-1.323,0.149c-0.437-0.21-0.708-0.642-0.708-1.126V3.58c0-0.173-0.067-0.336-0.19-0.458
	c-0.064-0.066-0.17-0.071-0.242-0.014l-0.109,0.087c-0.155,0.124-0.256,0.309-0.276,0.507l-0.595,5.748
	c-0.046,0.447-0.331,0.837-0.743,1.017c-0.41,0.182-0.892,0.125-1.25-0.145L11.33,9.935c-0.236-0.177-0.557-0.2-0.816-0.055
	l-5.628,3.145c-0.793,0.443-1.116,1.437-0.735,2.262L6.175,19.672z"/>
</svg>






