<?xml version="1.0" encoding="iso-8859-1"?>
<svg version="1.1" id="&#x56FE;&#x5C42;_1" xmlns="http://www.w3.org/2000/svg" xmlns:xlink="http://www.w3.org/1999/xlink" x="0px"
	 y="0px" viewBox="0 0 24 24" style="enable-background:new 0 0 24 24;" xml:space="preserve">
<path style="fill:#333333;" d="M13.5,22.75h-3c-2.423,0-4.25-1.827-4.25-4.25v-7.25H2.942L1.129,5.206l0.43-0.312
	C2.573,4.156,6.323,1.75,12,1.75c3.8,0,7.304,1.052,10.415,3.125l0.462,0.308l-1.819,6.066H17.75v7.25
	C17.75,20.923,15.923,22.75,13.5,22.75z M4.058,9.75H7.75v8.75c0,1.594,1.157,2.75,2.75,2.75h3c1.594,0,2.75-1.156,2.75-2.75V9.75
	h3.692l1.177-3.925C18.376,4.116,15.311,3.25,12,3.25c-4.602,0-7.798,1.696-9.125,2.559L4.058,9.75z"/>
<path style="fill:#333333;" d="M13.25,22h-1.5c0-4.548,3.435-5.75,5.25-5.75l0.003,1.5C16.619,17.754,13.25,17.902,13.25,22z"/>
<path style="fill:#333333;" d="M12.25,22h-1.5c0-4.202-3.597-4.25-3.75-4.25v-1.5C8.816,16.25,12.25,17.452,12.25,22z"/>
<path style="fill:#333333;" d="M12,7.25c-2.068,0-3.75-1.682-3.75-3.75c0-0.318,0.04-0.633,0.119-0.938l1.452,0.376
	C9.774,3.12,9.75,3.309,9.75,3.5c0,1.241,1.009,2.25,2.25,2.25c1.24,0,2.25-1.009,2.25-2.25c0-0.19-0.024-0.379-0.071-0.563
	l1.453-0.373C15.71,2.869,15.75,3.185,15.75,3.5C15.75,5.568,14.067,7.25,12,7.25z"/>
<path style="fill:#333333;" d="M6.218,4.204L5.729,2.786c3.983-1.374,8.55-1.377,12.518,0l-0.492,1.417
	C14.104,2.936,9.883,2.939,6.218,4.204z"/>
<rect x="6.25" y="15.5" style="fill:#333333;" width="1.5" height="3"/>
<rect x="16.25" y="15.5" style="fill:#333333;" width="1.5" height="3"/>
<rect x="10.5" y="21.25" style="fill:#333333;" width="3" height="1.5"/>
</svg>






