<?xml version="1.0" encoding="iso-8859-1"?>
<svg version="1.1" id="&#x56FE;&#x5C42;_1" xmlns="http://www.w3.org/2000/svg" xmlns:xlink="http://www.w3.org/1999/xlink" x="0px"
	 y="0px" viewBox="0 0 24 24" style="enable-background:new 0 0 24 24;" xml:space="preserve">
<path style="fill:#333333;" d="M12,21.75H4.5c-1.241,0-2.25-1.01-2.25-2.25v-15c0-1.241,1.009-2.25,2.25-2.25h15
	c1.24,0,2.25,1.009,2.25,2.25V12h-1.5V4.5c0-0.414-0.337-0.75-0.75-0.75h-15c-0.414,0-0.75,0.336-0.75,0.75v15
	c0,0.413,0.336,0.75,0.75,0.75H12V21.75z"/>
<rect x="18.775" y="16.5" style="fill:#333333;" width="1.5" height="5"/>
<rect x="17" y="18.225" style="fill:#333333;" width="5" height="1.5"/>
<path style="fill:#333333;" d="M12,12.25c-1.792,0-3.25-1.458-3.25-3.25S10.208,5.75,12,5.75S15.25,7.208,15.25,9
	S13.792,12.25,12,12.25z M12,7.25c-0.965,0-1.75,0.785-1.75,1.75s0.785,1.75,1.75,1.75S13.75,9.965,13.75,9S12.965,7.25,12,7.25z"/>
<path style="fill:#333333;" d="M17.25,15.5h-1.5c0-1.792-1.683-3.25-3.75-3.25c-2.068,0-3.75,1.458-3.75,3.25h-1.5
	c0-2.619,2.355-4.75,5.25-4.75C14.895,10.75,17.25,12.881,17.25,15.5z"/>
</svg>






