<?xml version="1.0" encoding="iso-8859-1"?>
<svg version="1.1" id="&#x56FE;&#x5C42;_1" xmlns="http://www.w3.org/2000/svg" xmlns:xlink="http://www.w3.org/1999/xlink" x="0px"
	 y="0px" viewBox="0 0 24 24" style="enable-background:new 0 0 24 24;" xml:space="preserve">
<path style="fill:#333333;" d="M20.42,20.75h-4.102c-0.829,0-1.55-0.59-1.716-1.402l-1.578-7.812l-0.214-2.134
	c-0.062-0.624,0.218-1.236,0.729-1.599l6.404-4.545C20.342,2.975,20.841,2.88,21.313,3c0.472,0.118,0.867,0.436,1.085,0.872
	c0.301,0.6,0.213,1.318-0.224,1.828l-1.105,1.289l-2.607,3.479c-0.056,0.075-0.065,0.173-0.025,0.258l3.564,7.525
	c0.259,0.545,0.221,1.175-0.103,1.685C21.576,20.445,21.023,20.75,20.42,20.75z M20.907,4.449c-0.028,0-0.062,0.008-0.096,0.031
	l-6.404,4.545c-0.073,0.052-0.113,0.139-0.104,0.229l0.203,2.059l1.567,7.737c0.023,0.115,0.127,0.2,0.245,0.2h4.102
	c0.12,0,0.184-0.073,0.211-0.116s0.066-0.132,0.015-0.24l-3.565-7.527c-0.278-0.59-0.208-1.279,0.183-1.8L19.9,6.05l1.135-1.326
	c0.043-0.05,0.052-0.122,0.021-0.182c-0.028-0.057-0.074-0.079-0.107-0.087C20.937,4.452,20.923,4.449,20.907,4.449z"/>
<rect x="13.93" y="10.25" transform="matrix(0.9615 -0.2748 0.2748 0.9615 -2.4165 4.7517)" style="fill:#333333;" width="3.64" height="1.5"/>
<path style="fill:#333333;" d="M7.661,20.75H3.58c-0.603,0-1.156-0.305-1.479-0.814s-0.361-1.139-0.103-1.685l3.558-7.512
	c0.041-0.086,0.03-0.187-0.03-0.262L2.911,7.159l-1.075-1.23C1.391,5.417,1.301,4.695,1.609,4.089
	C1.826,3.662,2.218,3.35,2.683,3.234c0.464-0.118,0.958-0.026,1.351,0.249l6.364,4.454c0.565,0.396,0.846,1.089,0.715,1.767
	l-0.376,1.939l-1.352,7.661C9.236,20.142,8.512,20.75,7.661,20.75z M3.086,4.684c-0.015,0-0.028,0.002-0.04,0.005
	c-0.031,0.008-0.075,0.028-0.101,0.08C2.917,4.826,2.925,4.895,2.967,4.943l1.098,1.259l2.64,3.347
	c0.414,0.526,0.494,1.228,0.207,1.833l-3.558,7.512c-0.051,0.107-0.013,0.196,0.015,0.24C3.396,19.177,3.46,19.25,3.58,19.25h4.081
	c0.122,0,0.225-0.087,0.246-0.207L9.64,9.418c0.019-0.097-0.021-0.195-0.103-0.252L3.174,4.712C3.144,4.69,3.113,4.684,3.086,4.684z
	"/>
<rect x="7.5" y="9.18" transform="matrix(0.2746 -0.9616 0.9616 0.2746 -4.5925 15.9122)" style="fill:#333333;" width="1.5" height="3.64"/>
</svg>






