<?xml version="1.0" encoding="iso-8859-1"?>
<svg version="1.1" id="&#x56FE;&#x5C42;_1" xmlns="http://www.w3.org/2000/svg" xmlns:xlink="http://www.w3.org/1999/xlink" x="0px"
	 y="0px" viewBox="0 0 24 24" style="enable-background:new 0 0 24 24;" xml:space="preserve">
<path style="fill:#333333;" d="M21.75,9h-1.5V4.5c0-0.414-0.337-0.75-0.75-0.75h-15c-0.414,0-0.75,0.336-0.75,0.75V9h-1.5V4.5
	c0-1.241,1.009-2.25,2.25-2.25h15c1.24,0,2.25,1.009,2.25,2.25V9z"/>
<rect x="9.077" y="9" transform="matrix(0.6782 -0.7349 0.7349 0.6782 -2.8209 13.0578)" style="fill:#333333;" width="8.846" height="1.5"/>
<rect x="13.25" y="10.086" transform="matrix(0.7071 -0.7071 0.7071 0.7071 -4.0312 13.2678)" style="fill:#333333;" width="1.5" height="2.828"/>
<rect x="15.75" y="7.586" transform="matrix(0.7071 -0.7071 0.7071 0.7071 -1.5312 14.3033)" style="fill:#333333;" width="1.5" height="2.828"/>
<path style="fill:#333333;" d="M19.5,21.75h-15c-1.241,0-2.25-1.01-2.25-2.25V15h1.5v4.5c0,0.413,0.336,0.75,0.75,0.75h15
	c0.413,0,0.75-0.337,0.75-0.75V15h1.5v4.5C21.75,20.74,20.74,21.75,19.5,21.75z"/>
<path style="fill:#333333;" d="M9,18.25c-1.792,0-3.25-1.458-3.25-3.25S7.208,11.75,9,11.75s3.25,1.458,3.25,3.25
	S10.792,18.25,9,18.25z M9,13.25c-0.965,0-1.75,0.785-1.75,1.75S8.035,16.75,9,16.75s1.75-0.785,1.75-1.75S9.965,13.25,9,13.25z"/>
</svg>






