<?xml version="1.0" encoding="iso-8859-1"?>
<svg version="1.1" id="&#x56FE;&#x5C42;_1" xmlns="http://www.w3.org/2000/svg" xmlns:xlink="http://www.w3.org/1999/xlink" x="0px"
	 y="0px" viewBox="0 0 24 24" style="enable-background:new 0 0 24 24;" xml:space="preserve">
<path style="fill:#333333;" d="M13.434,19.308l-1.415-0.142l-1.128-4.964l-5.453-0.455l-0.325-1.389l4.796-2.899L8.767,4.158
	l1.231-0.718l4.093,3.638l4.546-2.669l1.061,0.961l-2.283,4.94l4.084,3.63l-0.561,1.308l-5.472-0.456L13.434,19.308z M7.869,12.444
	l4.241,0.354l0.876,3.853l1.549-3.441l4.286,0.356l-3.234-2.875l1.745-3.777l-3.422,2.009l-3.193-2.838L11.6,10.19L7.869,12.444z"/>
<rect x="2.443" y="16.505" transform="matrix(0.7068 -0.7074 0.7074 0.7068 -9.9342 10.542)" style="fill:#333333;" width="10.613" height="1.5"/>
</svg>






