<?xml version="1.0" encoding="iso-8859-1"?>
<svg version="1.1" id="&#x56FE;&#x5C42;_1" xmlns="http://www.w3.org/2000/svg" xmlns:xlink="http://www.w3.org/1999/xlink" x="0px"
	 y="0px" viewBox="0 0 24 24" style="enable-background:new 0 0 24 24;" xml:space="preserve">
<g>
	<defs>
		<rect id="SVGID_1_" width="24" height="24"/>
	</defs>
	<clipPath id="SVGID_00000031898549401455677250000012394217279789951917_">
		<use xlink:href="#SVGID_1_"  style="overflow:visible;"/>
	</clipPath>
	<g style="clip-path:url(#SVGID_00000031898549401455677250000012394217279789951917_);">
		<path style="fill:#333333;" d="M9.65,21.245c-2.881,0-5.762-1.097-7.955-3.29l-0.53-0.53l15.91-15.91l0.53,0.53
			c4.387,4.386,4.387,11.523,0,15.91C15.412,20.148,12.531,21.245,9.65,21.245z M3.307,17.404c3.826,3.282,9.615,3.112,13.238-0.51
			c3.623-3.623,3.793-9.412,0.51-13.238L3.307,17.404z"/>
		
			<rect x="12.613" y="8.462" transform="matrix(0.7071 -0.7071 0.7071 0.7071 -5.7823 13.4652)" style="fill:#333333;" width="1.5" height="10.5"/>
		<rect x="8.901" y="10" style="fill:#333333;" width="1.5" height="10.606"/>
		
			<rect x="14.027" y="5.047" transform="matrix(0.0345 -0.9994 0.9994 0.0345 4.0972 24.5944)" style="fill:#333333;" width="1.5" height="10.259"/>
		<path style="fill:#333333;" d="M9.703,21.233c-0.892,0.001-1.792-0.105-2.687-0.322l0.353-1.457
			c3.337,0.806,6.774-0.158,9.198-2.582s3.389-5.862,2.581-9.197l1.457-0.354c0.933,3.848-0.181,7.815-2.978,10.611
			C15.481,20.079,12.646,21.233,9.703,21.233z"/>
		
			<rect x="6.297" y="9.604" transform="matrix(0.7071 -0.7071 0.7071 0.7071 -4.598 9.6065)" style="fill:#333333;" width="6" height="1.5"/>
	</g>
</g>
</svg>






