<?xml version="1.0" encoding="iso-8859-1"?>
<svg version="1.1" id="&#x56FE;&#x5C42;_1" xmlns="http://www.w3.org/2000/svg" xmlns:xlink="http://www.w3.org/1999/xlink" x="0px"
	 y="0px" viewBox="0 0 24 24" style="enable-background:new 0 0 24 24;" xml:space="preserve">
<path style="fill:#333333;" d="M19,22.75H5c-0.965,0-1.75-0.785-1.75-1.75V4.5c0-0.965,0.785-1.75,1.75-1.75h4.25v1.5h5.5v-1.5H19
	c0.965,0,1.75,0.785,1.75,1.75V21C20.75,21.965,19.965,22.75,19,22.75z M5,4.25c-0.138,0-0.25,0.112-0.25,0.25V21
	c0,0.138,0.112,0.25,0.25,0.25h14c0.138,0,0.25-0.112,0.25-0.25V4.5c0-0.138-0.112-0.25-0.25-0.25h-2.75v1.5h-8.5v-1.5H5z"/>
<path style="fill:#333333;" d="M16.25,5.75h-8.5v-4.5h8.5V5.75z M9.25,4.25h5.5v-1.5h-5.5V4.25z"/>
<polygon style="fill:#333333;" points="11.03,18.031 9.97,16.971 12.69,14.251 9.5,14.251 8.97,12.971 12.97,8.97 14.03,10.03 
	11.311,12.751 14.502,12.751 15.032,14.031 "/>
</svg>






