<?xml version="1.0" encoding="iso-8859-1"?>
<svg version="1.1" id="&#x56FE;&#x5C42;_1" xmlns="http://www.w3.org/2000/svg" xmlns:xlink="http://www.w3.org/1999/xlink" x="0px"
	 y="0px" viewBox="0 0 24 24" style="enable-background:new 0 0 24 24;" xml:space="preserve">
<rect x="3.75" y="2" style="fill:#333333;" width="1.5" height="4.5"/>
<rect x="3" y="5.75" style="fill:#333333;" width="3" height="1.5"/>
<rect x="3" y="12.75" style="fill:#333333;" width="3" height="1.5"/>
<path style="fill:#333333;" d="M3.372,14.151l-0.745-1.303c0.854-0.489,2.129-1.485,2.289-2.164c0.03-0.128,0.007-0.198-0.041-0.269
	c-0.206-0.309-0.371-0.325-0.425-0.331C4.118,10.055,3.66,10.4,3.53,10.53L2.47,9.47c0.101-0.101,1.025-0.986,2.129-0.877
	C5.021,8.635,5.628,8.84,6.124,9.584c0.287,0.43,0.374,0.93,0.252,1.445C6.011,12.575,3.81,13.901,3.372,14.151z"/>
<path style="fill:#333333;" d="M4.474,22.344c-0.396,0-0.787-0.105-1.158-0.317c-0.575-0.328-0.904-0.807-0.939-0.86l1.248-0.832
	c0.178,0.257,0.685,0.81,1.46,0.292c0.121-0.08,0.324-0.238,0.333-0.391c0.012-0.225-0.275-0.558-0.396-0.659L4.329,19l0.691-0.576
	c0.171-0.147,0.408-0.462,0.396-0.66c-0.009-0.152-0.212-0.31-0.332-0.39c-0.834-0.557-1.362,0.146-1.46,0.292l-1.248-0.832
	c0.036-0.054,0.365-0.532,0.939-0.86c0.824-0.47,1.748-0.416,2.601,0.152c0.784,0.522,0.976,1.137,0.998,1.56
	c0.028,0.523-0.186,0.98-0.417,1.314c0.231,0.334,0.445,0.791,0.417,1.314c-0.022,0.423-0.214,1.037-0.998,1.56
	C5.447,22.187,4.957,22.344,4.474,22.344z"/>
<rect x="4.5" y="18.25" style="fill:#333333;" width="1" height="1.5"/>
<rect x="2.849" y="1.75" transform="matrix(0.8321 -0.5547 0.5547 0.8321 -0.7569 2.5)" style="fill:#333333;" width="1.803" height="1.5"/>
<rect x="10.5" y="11.25" style="fill:#333333;" width="11" height="1.5"/>
<rect x="10.5" y="18.25" style="fill:#333333;" width="11" height="1.5"/>
<rect x="10.5" y="4.25" style="fill:#333333;" width="11" height="1.5"/>
</svg>






