<?xml version="1.0" encoding="iso-8859-1"?>
<svg version="1.1" id="&#x56FE;&#x5C42;_1" xmlns="http://www.w3.org/2000/svg" xmlns:xlink="http://www.w3.org/1999/xlink" x="0px"
	 y="0px" viewBox="0 0 24 24" style="enable-background:new 0 0 24 24;" xml:space="preserve">
<path style="fill:#333333;" d="M7.848,22.299c-0.393,0-0.764-0.128-1.086-0.378c-0.435-0.366-1.052-0.889-1.013-9.547
	c-2.45-1.841-3.06-2.562-3.683-3.817c-0.456-0.92-0.505-3.233,0.599-5.012C3.265,2.576,4.436,1.421,6.6,1.421
	c2.523,0,4.589,1.216,6.16,3.619c0.576-1.667,1.377-2.727,2.425-3.218c0.949-0.443,2.384-0.861,3.841-0.329
	c1.207,0.441,2.178,1.443,2.885,2.976c1.159,2.51-0.24,5.175-4.159,7.924v9.105l-1.153,0.633l-4.866-3.104
	c-1.391,2.031-2.532,3.066-3.564,3.242C8.059,22.289,7.953,22.299,7.848,22.299z M7.739,20.773c0.053,0.027,0.104,0.033,0.176,0.019
	c0.304-0.052,1.202-0.467,2.969-3.199l0.405-0.626l4.962,3.164v-8.528l0.329-0.223c3.47-2.355,4.806-4.469,3.969-6.282
	c-0.534-1.158-1.22-1.896-2.039-2.195c-0.972-0.356-2-0.045-2.688,0.278c-0.908,0.425-1.63,1.806-2.087,3.994l-1.413,0.165
	C10.924,4.366,9.053,2.921,6.6,2.921c-1.184,0-2.079,0.476-2.661,1.414C3.111,5.669,3.193,7.454,3.409,7.89
	c0.5,1.008,0.936,1.572,3.539,3.508l0.305,0.227l-0.002,0.38C7.205,18.956,7.586,20.454,7.739,20.773z"/>
<rect x="12.75" y="12.5" style="fill:#333333;" width="1.5" height="3"/>
</svg>






