<?xml version="1.0" encoding="iso-8859-1"?>
<svg version="1.1" id="&#x56FE;&#x5C42;_1" xmlns="http://www.w3.org/2000/svg" xmlns:xlink="http://www.w3.org/1999/xlink" x="0px"
	 y="0px" viewBox="0 0 24 24" style="enable-background:new 0 0 24 24;" xml:space="preserve">
<path style="fill:#333333;" d="M17.5,15.75h-11c-2.068,0-3.75-1.683-3.75-3.75V4.5h1.5V12c0,1.24,1.009,2.25,2.25,2.25h11
	c1.24,0,2.25-1.01,2.25-2.25V4.5h1.5V12C21.25,14.067,19.567,15.75,17.5,15.75z"/>
<path style="fill:#333333;" d="M17.5,8.75h-11C4.432,8.75,2.75,7.068,2.75,5S4.432,1.25,6.5,1.25h11c2.067,0,3.75,1.682,3.75,3.75
	S19.567,8.75,17.5,8.75z M6.5,2.75C5.259,2.75,4.25,3.759,4.25,5S5.259,7.25,6.5,7.25h11c1.24,0,2.25-1.009,2.25-2.25
	s-1.01-2.25-2.25-2.25H6.5z"/>
<circle style="fill:#333333;" cx="7.5" cy="5" r="1"/>
<circle style="fill:#333333;" cx="10.5" cy="5" r="1"/>
<circle style="fill:#333333;" cx="13.5" cy="5" r="1"/>
<circle style="fill:#333333;" cx="16.5" cy="5" r="1"/>
<rect x="8.75" y="15" style="fill:#333333;" width="1.5" height="7"/>
<rect x="13.75" y="15" style="fill:#333333;" width="1.5" height="7"/>
</svg>






