<?xml version="1.0" encoding="iso-8859-1"?>
<svg version="1.1" id="&#x56FE;&#x5C42;_1" xmlns="http://www.w3.org/2000/svg" xmlns:xlink="http://www.w3.org/1999/xlink" x="0px"
	 y="0px" viewBox="0 0 24 24" style="enable-background:new 0 0 24 24;" xml:space="preserve">
<path style="fill:#333333;" d="M22,21.75H0.853l7.46-17.051l1.379,0.012l4.229,10.151l1.366-4.1l1.355-0.148l6,10L22,21.75z
	 M3.147,20.25h17.529l-4.479-7.466l-1.484,4.453l-1.404,0.051L8.983,6.91L3.147,20.25z"/>
<path style="fill:#333333;" d="M18.5,7.75c-1.792,0-3.25-1.458-3.25-3.25s1.458-3.25,3.25-3.25s3.25,1.458,3.25,3.25
	S20.292,7.75,18.5,7.75z M18.5,2.75c-0.965,0-1.75,0.785-1.75,1.75s0.785,1.75,1.75,1.75s1.75-0.785,1.75-1.75
	S19.465,2.75,18.5,2.75z"/>
</svg>






