<?xml version="1.0" encoding="iso-8859-1"?>
<svg version="1.1" id="&#x56FE;&#x5C42;_1" xmlns="http://www.w3.org/2000/svg" xmlns:xlink="http://www.w3.org/1999/xlink" x="0px"
	 y="0px" viewBox="0 0 24 24" style="enable-background:new 0 0 24 24;" xml:space="preserve">
<path style="fill:#333333;" d="M7,20.25c-1.517,0-2.75-1.233-2.75-2.75S5.483,14.75,7,14.75s2.75,1.233,2.75,2.75
	S8.517,20.25,7,20.25z M7,16.25c-0.689,0-1.25,0.561-1.25,1.25S6.311,18.75,7,18.75s1.25-0.561,1.25-1.25S7.689,16.25,7,16.25z"/>
<path style="fill:#333333;" d="M16.5,20.25c-1.517,0-2.75-1.233-2.75-2.75s1.233-2.75,2.75-2.75s2.75,1.233,2.75,2.75
	S18.017,20.25,16.5,20.25z M16.5,16.25c-0.689,0-1.25,0.561-1.25,1.25s0.561,1.25,1.25,1.25s1.25-0.561,1.25-1.25
	S17.189,16.25,16.5,16.25z"/>
<rect x="2" y="16.75" style="fill:#333333;" width="3" height="1.5"/>
<rect x="9" y="16.75" style="fill:#333333;" width="5.5" height="1.5"/>
<rect x="18.5" y="16.75" style="fill:#333333;" width="3.5" height="1.5"/>
<polygon style="fill:#333333;" points="19.53,10.03 18.47,8.97 20.939,6.5 18.47,4.03 19.53,2.97 23.061,6.5 "/>
<rect x="2" y="5.75" style="fill:#333333;" width="20" height="1.5"/>
</svg>






