<?xml version="1.0" encoding="iso-8859-1"?>
<svg version="1.1" id="&#x56FE;&#x5C42;_1" xmlns="http://www.w3.org/2000/svg" xmlns:xlink="http://www.w3.org/1999/xlink" x="0px"
	 y="0px" viewBox="0 0 24 24" style="enable-background:new 0 0 24 24;" xml:space="preserve">
<path style="fill:#333333;" d="M11.832,22.007c-1.106,0-2.289-0.307-3.488-0.917c-2.135-1.087-4.086-3.027-5.493-5.465
	c-1.407-2.438-2.113-5.097-1.986-7.49c0.132-2.512,1.159-4.445,2.89-5.444c1.731-0.999,3.919-0.92,6.16,0.219
	C12.049,3.997,14,5.938,15.407,8.375l0,0c1.407,2.438,2.113,5.098,1.986,7.49c-0.132,2.512-1.158,4.445-2.89,5.444
	C13.698,21.774,12.794,22.007,11.832,22.007z M6.429,3.496c-0.704,0-1.354,0.164-1.925,0.493C3.228,4.726,2.467,6.227,2.362,8.214
	c-0.111,2.106,0.524,4.472,1.788,6.661s2.995,3.922,4.875,4.879c1.773,0.901,3.452,0.993,4.729,0.257
	c1.276-0.737,2.037-2.237,2.143-4.225c0.11-2.106-0.524-4.472-1.788-6.661l0,0c-1.264-2.189-2.995-3.921-4.875-4.878
	C8.252,3.748,7.3,3.496,6.429,3.496z"/>
<path style="fill:#333333;" d="M12.019,21.991c-0.939,0-1.834-0.22-2.635-0.682c-3.462-1.999-3.867-7.801-0.904-12.935l0,0
	c1.407-2.438,3.358-4.378,5.493-5.465c2.242-1.142,4.429-1.218,6.16-0.219c3.462,1.999,3.868,7.801,0.904,12.935
	C18.759,19.571,15.143,21.991,12.019,21.991z M9.778,9.125c-2.55,4.417-2.391,9.301,0.355,10.886
	c2.748,1.588,7.055-0.719,9.605-5.136c2.55-4.417,2.391-9.301-0.355-10.886c-1.275-0.736-2.955-0.646-4.729,0.257
	C12.773,5.204,11.042,6.936,9.778,9.125L9.778,9.125z"/>
<path style="fill:#333333;" d="M12.023,22l-0.048-1.5c0.654-0.021,1.253-0.186,1.778-0.489c1.276-0.737,2.037-2.237,2.143-4.225
	c0.11-2.106-0.524-4.472-1.788-6.661c-0.747-1.295-1.691-2.469-2.73-3.393l0.997-1.121c1.174,1.044,2.194,2.311,3.032,3.764
	c1.407,2.437,2.113,5.097,1.986,7.49c-0.132,2.512-1.158,4.445-2.89,5.444C13.763,21.738,12.928,21.971,12.023,22z"/>
</svg>






