<?xml version="1.0" encoding="iso-8859-1"?>
<svg version="1.1" id="&#x56FE;&#x5C42;_1" xmlns="http://www.w3.org/2000/svg" xmlns:xlink="http://www.w3.org/1999/xlink" x="0px"
	 y="0px" viewBox="0 0 24 24" style="enable-background:new 0 0 24 24;" xml:space="preserve">
<path style="fill:#333333;" d="M10.332,21.825c-2.817-0.647-5.614-2.965-7.481-6.2c-1.407-2.438-2.113-5.097-1.986-7.49
	c0.132-2.512,1.159-4.445,2.89-5.444c2.423-1.398,5.732-0.656,8.638,1.936l-0.999,1.119C8.986,3.598,6.347,2.925,4.504,3.989
	C3.228,4.726,2.467,6.227,2.362,8.214c-0.111,2.106,0.524,4.472,1.788,6.661c1.639,2.838,4.136,4.941,6.519,5.489L10.332,21.825z"/>
<path style="fill:#333333;" d="M12.019,21.991c-0.939,0-1.834-0.22-2.635-0.682c-3.462-1.999-3.867-7.801-0.904-12.935l0,0
	c1.407-2.438,3.358-4.378,5.493-5.465c2.242-1.142,4.429-1.218,6.16-0.219c3.462,1.999,3.868,7.801,0.904,12.935
	C18.759,19.571,15.143,21.991,12.019,21.991z M9.778,9.125c-2.55,4.417-2.391,9.301,0.355,10.886
	c2.748,1.588,7.055-0.719,9.605-5.136c2.55-4.417,2.391-9.301-0.355-10.886c-1.275-0.736-2.955-0.646-4.729,0.257
	C12.773,5.204,11.042,6.936,9.778,9.125L9.778,9.125z"/>
</svg>






