<?xml version="1.0" encoding="iso-8859-1"?>
<svg version="1.1" id="&#x56FE;&#x5C42;_1" xmlns="http://www.w3.org/2000/svg" xmlns:xlink="http://www.w3.org/1999/xlink" x="0px"
	 y="0px" viewBox="0 0 24 24" style="enable-background:new 0 0 24 24;" xml:space="preserve">
<path style="fill:#333333;" d="M21,18.75H3c-0.965,0-1.75-0.785-1.75-1.75V5c0-0.965,0.785-1.75,1.75-1.75h18
	c0.965,0,1.75,0.785,1.75,1.75v12C22.75,17.965,21.965,18.75,21,18.75z M3,4.75C2.862,4.75,2.75,4.862,2.75,5v12
	c0,0.138,0.112,0.25,0.25,0.25h18c0.138,0,0.25-0.112,0.25-0.25V5c0-0.138-0.112-0.25-0.25-0.25H3z"/>
<path style="fill:#333333;" d="M13.5,14.75h-7c-0.689,0-1.25-0.561-1.25-1.25v-5c0-0.689,0.561-1.25,1.25-1.25h7
	c0.689,0,1.25,0.561,1.25,1.25v5C14.75,14.189,14.189,14.75,13.5,14.75z M6.75,13.25h6.5v-4.5h-6.5V13.25z"/>
<circle style="fill:#333333;" cx="18.5" cy="7.5" r="1"/>
<rect x="18" y="10.25" style="fill:#333333;" width="1" height="1.5"/>
<rect x="18" y="13.75" style="fill:#333333;" width="1" height="1.5"/>
<rect x="5.25" y="18" style="fill:#333333;" width="1.5" height="3"/>
<rect x="17.25" y="18" style="fill:#333333;" width="1.5" height="3"/>
</svg>






