<?xml version="1.0" encoding="iso-8859-1"?>
<svg version="1.1" id="&#x56FE;&#x5C42;_1" xmlns="http://www.w3.org/2000/svg" xmlns:xlink="http://www.w3.org/1999/xlink" x="0px"
	 y="0px" viewBox="0 0 24 24" style="enable-background:new 0 0 24 24;" xml:space="preserve">
<path style="fill:#333333;" d="M17.25,17.25H6.75V6.75h10.5V17.25z M8.25,15.75h7.5v-7.5h-7.5V15.75z"/>
<polygon style="fill:#333333;" points="6.25,21.5 4.75,21.5 4.75,19.25 2.5,19.25 2.5,17.75 6.25,17.75 "/>
<polygon style="fill:#333333;" points="19.25,21.5 17.75,21.5 17.75,17.75 21.5,17.75 21.5,19.25 19.25,19.25 "/>
<polygon style="fill:#333333;" points="6.25,6.25 2.5,6.25 2.5,4.75 4.75,4.75 4.75,2.5 6.25,2.5 "/>
<polygon style="fill:#333333;" points="21.5,6.25 17.75,6.25 17.75,2.5 19.25,2.5 19.25,4.75 21.5,4.75 "/>
</svg>






