<?xml version="1.0" encoding="iso-8859-1"?>
<svg version="1.1" id="&#x56FE;&#x5C42;_1" xmlns="http://www.w3.org/2000/svg" xmlns:xlink="http://www.w3.org/1999/xlink" x="0px"
	 y="0px" viewBox="0 0 24 24" style="enable-background:new 0 0 24 24;" xml:space="preserve">
<path style="fill:#333333;" d="M12,21.25c-5.635,0-10.22-3.776-10.22-8.419c0-0.736,0.115-1.465,0.341-2.17
	C1.858,9.651,1.501,7.94,1.356,7.063c-0.292-2.366,0.034-3.769,0.964-4.2c0.481-0.224,1.048-0.11,1.41,0.283l0.065,0.082
	c1.077,1.558,2.462,2.141,3.187,2.264c3.05-1.414,6.984-1.414,10.034,0c0.726-0.123,2.11-0.706,3.188-2.264l0.065-0.081
	c0.36-0.393,0.928-0.507,1.409-0.283c0.932,0.431,1.257,1.833,0.969,4.169c-0.148,0.905-0.505,2.617-0.77,3.628
	c0.227,0.705,0.342,1.434,0.342,2.17C22.22,17.474,17.635,21.25,12,21.25z M2.864,4.489C2.768,4.828,2.677,5.52,2.841,6.85
	c0.145,0.875,0.539,2.745,0.787,3.636l0.064,0.229L3.611,10.94c-0.22,0.612-0.331,1.249-0.331,1.891c0,3.815,3.912,6.919,8.72,6.919
	c4.808,0,8.72-3.104,8.72-6.919c0-0.643-0.111-1.279-0.331-1.891l-0.08-0.225l0.063-0.229c0.248-0.892,0.643-2.761,0.791-3.666
	c0.161-1.31,0.07-1.995-0.026-2.331c-1.359,1.726-3.077,2.439-4.191,2.521l-0.202,0.015l-0.183-0.089
	c-2.738-1.34-6.383-1.34-9.122,0L7.256,7.025L7.054,7.01C5.94,6.929,4.223,6.215,2.864,4.489z"/>
<path style="fill:#333333;" d="M12.713,17.733h-1.426c-0.245-0.75-0.537-1.725-0.537-2.108c0-0.758,0.561-1.375,1.25-1.375
	s1.25,0.617,1.25,1.375C13.25,16.009,12.958,16.983,12.713,17.733z"/>
<path style="fill:#333333;" d="M8.5,13.75c-1.517,0-2.75-1.233-2.75-2.75S6.983,8.25,8.5,8.25s2.75,1.233,2.75,2.75
	S10.017,13.75,8.5,13.75z M8.5,9.75c-0.689,0-1.25,0.561-1.25,1.25s0.561,1.25,1.25,1.25S9.75,11.689,9.75,11S9.189,9.75,8.5,9.75z"
	/>
<path style="fill:#333333;" d="M15.5,13.75c-1.517,0-2.75-1.233-2.75-2.75s1.233-2.75,2.75-2.75s2.75,1.233,2.75,2.75
	S17.017,13.75,15.5,13.75z M15.5,9.75c-0.689,0-1.25,0.561-1.25,1.25s0.561,1.25,1.25,1.25s1.25-0.561,1.25-1.25
	S16.189,9.75,15.5,9.75z"/>
</svg>






