<?xml version="1.0" encoding="iso-8859-1"?>
<svg version="1.1" id="&#x56FE;&#x5C42;_1" xmlns="http://www.w3.org/2000/svg" xmlns:xlink="http://www.w3.org/1999/xlink" x="0px"
	 y="0px" viewBox="0 0 24 24" style="enable-background:new 0 0 24 24;" xml:space="preserve">
<g>
	<defs>
		<rect id="SVGID_1_" width="24" height="24"/>
	</defs>
	<clipPath id="SVGID_00000020361116732089253830000000888549505090402981_">
		<use xlink:href="#SVGID_1_"  style="overflow:visible;"/>
	</clipPath>
	<g style="clip-path:url(#SVGID_00000020361116732089253830000000888549505090402981_);">
		<path style="fill:#333333;" d="M15.858,11.323l-1.061-1.061l2.357-2.357l0.418,0.111C18.349,8.223,19.181,8,19.747,7.434
			c0.425-0.425,0.659-0.99,0.659-1.591c0-0.601-0.234-1.166-0.659-1.591c-0.85-0.849-2.331-0.85-3.182,0
			c-0.566,0.566-0.789,1.399-0.583,2.175l0.111,0.417l-2.356,2.357l-1.061-1.061l1.768-1.768c-0.164-1.158,0.224-2.345,1.061-3.182
			c1.416-1.417,3.887-1.416,5.303,0c0.708,0.708,1.099,1.65,1.099,2.651c0,1.002-0.391,1.944-1.099,2.652
			c-0.838,0.837-2.03,1.224-3.181,1.061L15.858,11.323z"/>
		<path style="fill:#333333;" d="M18.772,19.016l-5.929-4.134l-2.208,1.472l-3.167-3.167l1.474-2.21L4.987,5.223l2.916-2.916
			l13.789,13.788L18.772,19.016z M12.863,13.067l5.737,3.999l0.971-0.971L7.903,4.429L6.931,5.402l3.823,5.562l-1.354,2.032
			l1.428,1.429L12.863,13.067z"/>
		<path style="fill:#333333;" d="M8.257,21.489c-1.473,0.001-2.945-0.56-4.066-1.681c-1.086-1.086-1.684-2.53-1.684-4.066
			s0.598-2.979,1.684-4.065c1.485-1.485,3.66-2.043,5.678-1.455l-0.42,1.44c-1.492-0.437-3.101-0.023-4.198,1.075
			c-0.803,0.803-1.245,1.87-1.245,3.005c0,1.136,0.442,2.203,1.245,3.006c1.658,1.656,4.354,1.656,6.01,0
			c1.097-1.098,1.509-2.706,1.076-4.198l1.439-0.42c0.588,2.019,0.03,4.194-1.455,5.679C11.202,20.93,9.729,21.489,8.257,21.489z"/>
	</g>
</g>
</svg>






