<?xml version="1.0" encoding="iso-8859-1"?>
<svg version="1.1" id="&#x56FE;&#x5C42;_1" xmlns="http://www.w3.org/2000/svg" xmlns:xlink="http://www.w3.org/1999/xlink" x="0px"
	 y="0px" viewBox="0 0 24 24" style="enable-background:new 0 0 24 24;" xml:space="preserve">
<path style="fill:#333333;" d="M12,22.75c-5.397,0-8.75-3.736-8.75-9.75C3.25,7.29,7.748,1.25,12,1.25c4.252,0,8.75,6.04,8.75,11.75
	C20.75,19.014,17.397,22.75,12,22.75z M12,2.75C8.901,2.75,4.75,7.818,4.75,13c0,5.243,2.643,8.25,7.25,8.25s7.25-3.007,7.25-8.25
	C19.25,7.818,15.099,2.75,12,2.75z"/>
<path style="fill:#333333;" d="M10.5,19c0.828,0,1.5-0.672,1.5-1.5S11.328,16,10.5,16S9,16.672,9,17.5S9.672,19,10.5,19z"/>
<path style="fill-rule:evenodd;clip-rule:evenodd;fill:#333333;" d="M8,14.834c0.552,0,1-0.448,1-1c0-0.552-0.448-1-1-1
	s-1,0.448-1,1C7,14.386,7.448,14.834,8,14.834z"/>
</svg>






