<?xml version="1.0" encoding="iso-8859-1"?>
<svg version="1.1" id="&#x56FE;&#x5C42;_1" xmlns="http://www.w3.org/2000/svg" xmlns:xlink="http://www.w3.org/1999/xlink" x="0px"
	 y="0px" viewBox="0 0 24 24" style="enable-background:new 0 0 24 24;" xml:space="preserve">
<rect x="9.22" y="10.28" transform="matrix(0.7071 -0.7071 0.7071 0.7071 -6.824 11.0856)" style="fill:#333333;" width="1.5" height="7"/>
<path style="fill:#333333;" d="M5.727,22.271c-1.088,0-2.176-0.414-3.005-1.242c-1.657-1.657-1.657-4.354,0-6.011l4.242-4.243
	l1.061,1.061l-4.242,4.243c-1.072,1.072-1.072,2.817,0,3.89c1.073,1.072,2.817,1.072,3.889,0l4.242-4.243l1.061,1.061l-4.242,4.243
	C7.904,21.856,6.815,22.271,5.727,22.271z"/>
<rect x="4.934" y="16.566" transform="matrix(0.7071 -0.7071 0.7071 0.7071 -10.3594 9.6212)" style="fill:#333333;" width="3" height="1.5"/>
<path style="fill:#333333;" d="M12.274,17.146l-5.67-5.67l3.459-8.018c0.379-0.879,1.102-1.519,1.983-1.756
	c0.82-0.22,1.686-0.051,2.381,0.463c1.291,0.956,4.568,3.557,7.12,7.06c0.519,0.712,0.683,1.608,0.451,2.457
	c-0.25,0.913-0.907,1.659-1.804,2.046L12.274,17.146z M8.385,11.135l4.229,4.229l6.987-3.014c0.468-0.202,0.823-0.6,0.95-1.065
	c0.113-0.413,0.036-0.831-0.217-1.178c-2.497-3.428-5.836-6.023-6.8-6.737c-0.329-0.243-0.719-0.322-1.099-0.22
	c-0.436,0.117-0.799,0.446-0.996,0.902L8.385,11.135z"/>
</svg>






