<?xml version="1.0" encoding="iso-8859-1"?>
<svg version="1.1" id="&#x56FE;&#x5C42;_1" xmlns="http://www.w3.org/2000/svg" xmlns:xlink="http://www.w3.org/1999/xlink" x="0px"
	 y="0px" viewBox="0 0 24 24" style="enable-background:new 0 0 24 24;" xml:space="preserve">
<path style="fill:#333333;" d="M17.305,18.75h-7.93c-0.292,0-0.572-0.125-0.768-0.344h0L3.75,12.967
	c-0.483-0.542-0.72-1.238-0.666-1.961c0.053-0.723,0.39-1.377,0.947-1.841c0.551-0.46,1.248-0.675,1.963-0.601
	C6.454,8.61,6.883,8.771,7.25,9.03V4.497c0-1.238,1.007-2.248,2.246-2.25c0.002,0,0.004,0,0.005,0c0.351,0,0.689,0.08,0.995,0.231
	C10.869,1.75,11.627,1.25,12.5,1.25c0.848,0,1.587,0.471,1.971,1.164c0.309-0.159,0.658-0.25,1.029-0.25
	c1.088,0,1.998,0.776,2.205,1.804c0.248-0.094,0.516-0.145,0.795-0.145c1.24,0,2.25,1.009,2.25,2.25v6.841
	c0,1.237-0.385,2.42-1.112,3.421l-1.416,1.948C18.01,18.575,17.667,18.75,17.305,18.75z M9.586,17.25h7.532l1.307-1.798
	c0.54-0.742,0.825-1.62,0.825-2.538V6.073c0-0.414-0.337-0.75-0.75-0.75s-0.75,0.336-0.75,0.75h-1.5V4.415
	c0-0.414-0.337-0.75-0.75-0.75s-0.75,0.336-0.75,0.75h-1.5V3.5c0-0.414-0.337-0.75-0.75-0.75s-0.75,0.336-0.75,0.75v0.997h-1.5
	c0-0.201-0.078-0.389-0.22-0.531C9.888,3.825,9.7,3.747,9.5,3.747c0,0-0.001,0-0.001,0c-0.413,0-0.749,0.337-0.749,0.75V11
	l-1.335,0.469l-0.789-0.986c-0.195-0.244-0.473-0.395-0.783-0.426c-0.312-0.035-0.612,0.061-0.852,0.261
	c-0.242,0.202-0.388,0.485-0.411,0.799c-0.023,0.314,0.079,0.616,0.289,0.851L9.586,17.25z"/>
<path style="fill:#333333;" d="M17,22.75h-7c-0.689,0-1.25-0.561-1.25-1.25v-3c0-0.689,0.561-1.25,1.25-1.25h7
	c0.689,0,1.25,0.561,1.25,1.25v3C18.25,22.189,17.689,22.75,17,22.75z M10.25,21.25h6.5v-2.5h-6.5V21.25z"/>
</svg>






