<?xml version="1.0" encoding="iso-8859-1"?>
<svg version="1.1" id="&#x56FE;&#x5C42;_1" xmlns="http://www.w3.org/2000/svg" xmlns:xlink="http://www.w3.org/1999/xlink" x="0px"
	 y="0px" viewBox="0 0 24 24" style="enable-background:new 0 0 24 24;" xml:space="preserve">
<path style="fill:#333333;" d="M12,22.75c-5.376,0-9.75-4.149-9.75-9.25S6.624,4.25,12,4.25s9.75,4.149,9.75,9.25
	S17.376,22.75,12,22.75z M12,5.75c-4.549,0-8.25,3.477-8.25,7.75s3.701,7.75,8.25,7.75s8.25-3.477,8.25-7.75S16.549,5.75,12,5.75z"
	/>
<path style="fill:#333333;" d="M8.243,15.04c-0.165,0-0.329-0.021-0.488-0.063c-1.218-0.327-1.86-1.75-1.462-3.239
	c0.4-1.489,1.669-2.397,2.885-2.074c0.612,0.164,1.113,0.632,1.375,1.286c0.236,0.588,0.267,1.281,0.087,1.953
	s-0.553,1.257-1.052,1.648C9.179,14.872,8.708,15.04,8.243,15.04z M8.691,11.1c-0.336,0-0.781,0.399-0.949,1.026
	c-0.185,0.69,0.06,1.31,0.401,1.401c0.205,0.058,0.413-0.074,0.519-0.156c0.241-0.189,0.434-0.502,0.529-0.857
	c0.095-0.354,0.084-0.721-0.03-1.006c-0.049-0.124-0.164-0.34-0.371-0.395C8.759,11.104,8.726,11.1,8.691,11.1z"/>
<path style="fill:#333333;" d="M15.69,15.04c-0.465,0-0.937-0.168-1.346-0.489c-0.498-0.392-0.871-0.977-1.052-1.648
	c-0.18-0.672-0.149-1.365,0.087-1.953c0.262-0.653,0.764-1.122,1.375-1.286c0.615-0.164,1.279-0.008,1.833,0.426
	c0.499,0.391,0.872,0.977,1.052,1.648c0.399,1.489-0.242,2.912-1.461,3.239C16.019,15.02,15.855,15.04,15.69,15.04z M15.247,11.099
	c-0.034,0-0.069,0.004-0.104,0.014l0,0c-0.208,0.055-0.322,0.271-0.372,0.395c-0.114,0.285-0.125,0.651-0.029,1.006
	c0.095,0.355,0.288,0.668,0.529,0.857c0.104,0.082,0.311,0.217,0.519,0.156c0.342-0.092,0.586-0.711,0.4-1.401
	c-0.095-0.355-0.287-0.667-0.528-0.856C15.574,11.201,15.417,11.099,15.247,11.099z"/>
<path style="fill:#333333;" d="M21.03,11.03L19.97,9.969c1.314-1.314,1.385-3.383,0.156-4.611c-0.588-0.588-1.516-0.903-2.52-0.867
	c-1.001,0.038-1.964,0.425-2.576,1.038L13.97,4.469c0.886-0.886,2.191-1.425,3.58-1.477c1.414-0.048,2.754,0.422,3.637,1.305
	C22.999,6.11,22.93,9.13,21.03,11.03z"/>
<path style="fill:#333333;" d="M2.97,11.03c-1.903-1.903-1.98-4.923-0.172-6.732c1.814-1.814,5.33-1.732,7.232,0.171L8.97,5.53
	C7.66,4.22,5.081,4.136,3.858,5.358C2.635,6.582,2.712,8.65,4.03,9.969L2.97,11.03z"/>
<path style="fill:#333333;" d="M11.254,19.249c-0.169,0-0.32-0.022-0.451-0.055C9.825,18.95,9.406,18.043,9.3,17.771l1.399-0.541
	c0.081,0.209,0.262,0.458,0.468,0.51c0.202,0.049,0.502-0.082,0.842-0.376l0.49-0.423l0.49,0.422
	c0.341,0.295,0.643,0.429,0.843,0.377c0.206-0.052,0.387-0.301,0.468-0.51l1.398,0.541c-0.104,0.272-0.524,1.18-1.503,1.424
	c-0.396,0.099-0.989,0.104-1.696-0.333C12.024,19.155,11.602,19.249,11.254,19.249z"/>
</svg>






