<?xml version="1.0" encoding="iso-8859-1"?>
<svg version="1.1" id="&#x56FE;&#x5C42;_1" xmlns="http://www.w3.org/2000/svg" xmlns:xlink="http://www.w3.org/1999/xlink" x="0px"
	 y="0px" viewBox="0 0 24 24" style="enable-background:new 0 0 24 24;" xml:space="preserve">
<path style="fill:#333333;" d="M1.25,19.654V4.348l1.054,0.467C2.348,4.834,6.736,6.75,12,6.75c5.279,0,9.651-1.916,9.695-1.936
	l1.055-0.469v15.307l-1.054-0.467c-0.044-0.02-4.432-1.936-9.696-1.936c-5.28,0-9.652,1.916-9.695,1.936L1.25,19.654z M12,15.75
	c4.069,0,7.57,1.048,9.25,1.651V6.599C19.57,7.202,16.069,8.25,12,8.25c-4.07,0-7.571-1.048-9.25-1.651v10.803
	C4.429,16.798,7.93,15.75,12,15.75z"/>
</svg>






