<?xml version="1.0" encoding="iso-8859-1"?>
<svg version="1.1" id="&#x56FE;&#x5C42;_1" xmlns="http://www.w3.org/2000/svg" xmlns:xlink="http://www.w3.org/1999/xlink" x="0px"
	 y="0px" viewBox="0 0 24 24" style="enable-background:new 0 0 24 24;" xml:space="preserve">
<path style="fill:#333333;" d="M13.783,21.75h-3.567l-0.212-0.188C9.646,21.247,1.25,13.767,1.25,7.5V7.189l0.22-0.22
	C3.274,5.166,3.76,2.874,3.765,2.851l0.229-1.119L4.93,2.386C4.951,2.4,7.336,4,12,4c4.663,0,7.049-1.6,7.072-1.616l0.82-0.563
	l0.318,0.942c0.01,0.028,0.965,2.852,2.319,4.207l0.22,0.22V7.5c0,6.267-8.396,13.747-8.754,14.062L13.783,21.75z M10.79,20.25h2.42
	c1.254-1.157,7.786-7.419,8.033-12.46c-0.994-1.112-1.743-2.734-2.14-3.713C17.946,4.636,15.578,5.5,12,5.5
	c-3.516,0-5.863-0.834-7.042-1.394c-0.324,0.928-0.98,2.379-2.201,3.688C3.008,12.841,9.537,19.094,10.79,20.25z"/>
<path style="fill:#333333;" d="M14.25,21h-1.5c0-0.253,0.023-6.241,2.099-9.872c2.164-3.788,6.869-4.351,7.068-4.374l0.167,1.491
	c-0.041,0.005-4.152,0.511-5.933,3.627C14.271,15.161,14.25,20.942,14.25,21z"/>
<path style="fill:#333333;" d="M9.75,21c0-0.058-0.025-5.845-1.901-9.128C6.059,8.74,1.958,8.25,1.917,8.246l0.166-1.491
	c0.199,0.022,4.904,0.586,7.068,4.374c2.075,3.631,2.099,9.619,2.099,9.872H9.75z"/>
</svg>






