<?xml version="1.0" encoding="iso-8859-1"?>
<svg version="1.1" id="&#x56FE;&#x5C42;_1" xmlns="http://www.w3.org/2000/svg" xmlns:xlink="http://www.w3.org/1999/xlink" x="0px"
	 y="0px" viewBox="0 0 24 24" style="enable-background:new 0 0 24 24;" xml:space="preserve">
<path style="fill:#333333;" d="M6.004,20.718c-1.086,0-2.289-0.386-3.373-1.47c-1.362-1.361-1.543-2.808-1.454-3.78
	c0.109-1.205,0.661-2.146,1.101-2.584l9.545-9.546c0.892-0.892,2.319-1.453,3.82-1.501c1.77-0.049,3.413,0.602,4.665,1.854
	c2.846,2.846,2.016,6.824,0.354,8.485l-7.071,7.071l-1.061-1.061l7.071-7.071c1.078-1.079,1.883-4.127-0.354-6.364
	c-2.236-2.235-5.284-1.432-6.364-0.354l-9.545,9.546c-0.229,0.229-0.595,0.858-0.667,1.659c-0.086,0.951,0.257,1.82,1.021,2.584
	c1.899,1.899,3.922,0.674,4.243,0.354l9.192-9.192c0.196-0.196,0.41-0.629,0.444-1.155c0.021-0.307-0.01-0.886-0.444-1.32
	c-0.435-0.434-1.011-0.464-1.32-0.445c-0.525,0.035-0.958,0.249-1.154,0.445l-6.718,6.717L6.874,12.53l6.718-6.718
	c0.496-0.496,1.287-0.825,2.115-0.88c0.965-0.059,1.848,0.248,2.48,0.881c1.403,1.403,0.938,3.659,0,4.596l-9.192,9.192
	C8.426,20.171,7.297,20.718,6.004,20.718z"/>
</svg>






