<?xml version="1.0" encoding="iso-8859-1"?>
<svg version="1.1" id="&#x56FE;&#x5C42;_1" xmlns="http://www.w3.org/2000/svg" xmlns:xlink="http://www.w3.org/1999/xlink" x="0px"
	 y="0px" viewBox="0 0 24 24" style="enable-background:new 0 0 24 24;" xml:space="preserve">
<path style="fill:#333333;" d="M19.5,21.25h-15c-1.792,0-3.25-1.458-3.25-3.25V6c0-1.792,1.458-3.25,3.25-3.25h15
	c1.792,0,3.25,1.458,3.25,3.25v12C22.75,19.792,21.292,21.25,19.5,21.25z M4.5,4.25C3.535,4.25,2.75,5.035,2.75,6v12
	c0,0.965,0.785,1.75,1.75,1.75h15c0.965,0,1.75-0.785,1.75-1.75V6c0-0.965-0.785-1.75-1.75-1.75H4.5z"/>
<polygon style="fill:#333333;" points="12,11.561 8.47,8.03 9.53,6.97 12,9.439 14.47,6.97 15.53,8.03 "/>
<rect x="8.5" y="10.75" style="fill:#333333;" width="7" height="1.5"/>
<rect x="8.5" y="13.75" style="fill:#333333;" width="7" height="1.5"/>
<rect x="11.25" y="11.5" style="fill:#333333;" width="1.5" height="5.5"/>
</svg>






