<?xml version="1.0" encoding="iso-8859-1"?>
<svg version="1.1" id="&#x56FE;&#x5C42;_1" xmlns="http://www.w3.org/2000/svg" xmlns:xlink="http://www.w3.org/1999/xlink" x="0px"
	 y="0px" viewBox="0 0 24 24" style="enable-background:new 0 0 24 24;" xml:space="preserve">
<path style="fill:#333333;" d="M6.098,22.35L1.323,12.322l0.859-1.05l11.194,2.799L6.098,22.35z M3.361,13.113l3.113,6.537
	l4.15-4.722L3.361,13.113z"/>
<path style="fill:#333333;" d="M17.901,22.35l-7.277-8.278l11.194-2.799l0.858,1.05L17.901,22.35z M13.376,14.929l4.15,4.722
	l3.112-6.537L13.376,14.929z"/>
<path style="fill:#333333;" d="M17.5,21.75h-11l-0.573-1.234L12,13.339l6.072,7.177L17.5,21.75z M8.117,20.25h7.766L12,15.661
	L8.117,20.25z"/>
<polygon style="fill:#333333;" points="17.342,13.359 12,3.566 6.658,13.359 5.342,12.641 11.342,1.641 12.658,1.641 18.658,12.641 
	"/>
</svg>






