<?xml version="1.0" encoding="iso-8859-1"?>
<svg version="1.1" id="&#x56FE;&#x5C42;_1" xmlns="http://www.w3.org/2000/svg" xmlns:xlink="http://www.w3.org/1999/xlink" x="0px"
	 y="0px" viewBox="0 0 24 24" style="enable-background:new 0 0 24 24;" xml:space="preserve">
<rect x="12" y="3.75" style="fill:#333333;" width="9" height="1.5"/>
<rect x="12" y="8.75" style="fill:#333333;" width="9" height="1.5"/>
<rect x="3" y="13.75" style="fill:#333333;" width="18" height="1.5"/>
<rect x="3" y="18.75" style="fill:#333333;" width="18" height="1.5"/>
<path style="fill:none;" d="M5.5,4.5l-2,4h4L5.5,4.5z"/>
<path style="fill:#333333;" d="M7.329,9.835L7.037,9.25H3.963L3.671,9.835L2.329,9.165l0.5-1L3.5,8.5L2.829,8.165l2-4h1.342l2,4
	L7.5,8.5l0.671-0.335l0.5,1L7.329,9.835z M4.713,7.75h1.573L5.5,6.177L4.713,7.75z"/>
</svg>






