<?xml version="1.0" encoding="iso-8859-1"?>
<svg version="1.1" id="&#x56FE;&#x5C42;_1" xmlns="http://www.w3.org/2000/svg" xmlns:xlink="http://www.w3.org/1999/xlink" x="0px"
	 y="0px" viewBox="0 0 24 24" style="enable-background:new 0 0 24 24;" xml:space="preserve">
<rect x="3" y="3.75" style="fill:#333333;" width="18" height="1.5"/>
<rect x="3" y="8.75" style="fill:#333333;" width="18" height="1.5"/>
<rect x="3" y="13.75" style="fill:#333333;" width="9" height="1.5"/>
<rect x="3" y="18.75" style="fill:#333333;" width="5" height="1.5"/>
<path style="fill:#333333;" d="M13.47,22.03l-2-2L12,19.5l-0.53-0.53l2-2l1.061,1.061l-0.72,0.72H18.5c0.965,0,1.75-0.785,1.75-1.75
	s-0.785-1.75-1.75-1.75H16v-1.5h2.5c1.792,0,3.25,1.458,3.25,3.25s-1.458,3.25-3.25,3.25h-4.689l0.72,0.72L13.47,22.03z"/>
</svg>






