<?xml version="1.0" encoding="iso-8859-1"?>
<svg version="1.1" id="&#x56FE;&#x5C42;_1" xmlns="http://www.w3.org/2000/svg" xmlns:xlink="http://www.w3.org/1999/xlink" x="0px"
	 y="0px" viewBox="0 0 24 24" style="enable-background:new 0 0 24 24;" xml:space="preserve">
<path style="fill:#333333;" d="M8.403,13.021l-0.527-0.452c-1.725-1.478-2.458-1.638-2.694-1.638s-0.969,0.16-2.693,1.638L1.25,12
	C1.25,6.072,6.072,1.25,12,1.25S22.75,6.072,22.75,12l-1.238,0.569c-1.725-1.478-2.458-1.638-2.693-1.638s-0.969,0.16-2.693,1.638
	l-0.527,0.452l-0.491-0.491c-2.123-2.121-4.09-2.121-6.212,0L8.403,13.021z M12,9.432c1.238,0,2.469,0.527,3.666,1.569
	c1.331-1.068,2.342-1.569,3.152-1.569c0.625,0,1.368,0.297,2.285,0.923C20.325,6.036,16.539,2.75,12,2.75s-8.325,3.286-9.104,7.604
	c0.917-0.625,1.661-0.923,2.285-0.923c0.811,0,1.822,0.501,3.153,1.569C9.531,9.959,10.761,9.432,12,9.432z"/>
<polygon style="fill:#333333;" points="11.47,22.53 1.47,12.53 2.53,11.47 10.14,19.079 7.659,12.256 9.069,11.744 12.705,21.744 
	"/>
<polygon style="fill:#333333;" points="12.53,22.53 11.295,21.744 14.932,11.744 16.342,12.256 13.86,19.079 21.47,11.47 
	22.53,12.53 "/>
</svg>






