<?xml version="1.0" encoding="iso-8859-1"?>
<svg version="1.1" id="&#x56FE;&#x5C42;_1" xmlns="http://www.w3.org/2000/svg" xmlns:xlink="http://www.w3.org/1999/xlink" x="0px"
	 y="0px" viewBox="0 0 24 24" style="enable-background:new 0 0 24 24;" xml:space="preserve">
<path style="fill:#333333;" d="M16.265,20.75H3.36c-0.563,0-1.077-0.26-1.41-0.714c-0.333-0.453-0.428-1.021-0.26-1.558l4.375-14
	c0.229-0.734,0.9-1.228,1.67-1.228H20.64c0.562,0,1.077,0.26,1.41,0.713c0.334,0.454,0.429,1.021,0.261,1.559l-4.375,14
	C17.705,20.257,17.034,20.75,16.265,20.75z M7.735,4.75c-0.11,0-0.206,0.07-0.239,0.175l-4.375,14
	c-0.033,0.104,0.009,0.185,0.037,0.223S3.25,19.25,3.36,19.25h12.904c0.11,0,0.206-0.071,0.239-0.176l4.375-14
	c0.033-0.105-0.01-0.185-0.037-0.223C20.813,4.814,20.75,4.75,20.64,4.75H7.735z"/>
</svg>






