<?xml version="1.0" encoding="iso-8859-1"?>
<svg version="1.1" id="&#x56FE;&#x5C42;_1" xmlns="http://www.w3.org/2000/svg" xmlns:xlink="http://www.w3.org/1999/xlink" x="0px"
	 y="0px" viewBox="0 0 24 24" style="enable-background:new 0 0 24 24;" xml:space="preserve">
<rect x="12" y="3.75" style="fill:#333333;" width="9" height="1.5"/>
<rect x="12" y="8.75" style="fill:#333333;" width="9" height="1.5"/>
<rect x="3" y="13.75" style="fill:#333333;" width="18" height="1.5"/>
<rect x="3" y="18.75" style="fill:#333333;" width="18" height="1.5"/>
<path style="fill:#333333;" d="M3.5,10.366c-0.212,0-0.425-0.054-0.616-0.162C2.493,9.983,2.25,9.566,2.25,9.117V4.883
	c0-0.45,0.243-0.867,0.634-1.088C3.276,3.575,3.758,3.58,4.144,3.812l3.527,2.117C8.051,6.156,8.278,6.557,8.278,7
	S8.051,7.844,7.671,8.072l-3.528,2.117C3.946,10.307,3.723,10.366,3.5,10.366z M3.75,5.325v3.351L6.542,7L3.75,5.325z"/>
</svg>






