<?xml version="1.0" encoding="iso-8859-1"?>
<svg version="1.1" id="&#x56FE;&#x5C42;_1" xmlns="http://www.w3.org/2000/svg" xmlns:xlink="http://www.w3.org/1999/xlink" x="0px"
	 y="0px" viewBox="0 0 24 24" style="enable-background:new 0 0 24 24;" xml:space="preserve">
<path style="fill:#333333;" d="M22,13.25h-1c-1.788,0-3.081-1.893-4.45-3.897C15.172,7.336,13.748,5.25,12,5.25
	c-1.748,0-3.172,2.086-4.55,4.103C6.081,11.357,4.788,13.25,3,13.25H2v-1.5h1c0.996,0,2.123-1.648,3.211-3.243
	C7.734,6.277,9.46,3.75,12,3.75c2.54,0,4.266,2.527,5.789,4.757c1.089,1.595,2.215,3.243,3.211,3.243h1V13.25z"/>
<rect x="1.25" y="16.5" style="fill:#333333;" width="1.5" height="3"/>
<rect x="11.25" y="16.5" style="fill:#333333;" width="1.5" height="3"/>
<rect x="21.25" y="16.5" style="fill:#333333;" width="1.5" height="3"/>
<rect x="2" y="17.25" style="fill:#333333;" width="20" height="1.5"/>
</svg>






