<?xml version="1.0" encoding="iso-8859-1"?>
<svg version="1.1" id="&#x56FE;&#x5C42;_1" xmlns="http://www.w3.org/2000/svg" xmlns:xlink="http://www.w3.org/1999/xlink" x="0px"
	 y="0px" viewBox="0 0 24 24" style="enable-background:new 0 0 24 24;" xml:space="preserve">
<path style="fill:#333333;" d="M19.75,22.75H6.812c-2.364,0-3.562-1.43-3.562-4.25V1.25H10v1.5H4.75V18.5
	c0,2.29,0.789,2.75,2.062,2.75H18.25V15.5h1.5V22.75z"/>
<path style="fill:#333333;" d="M16.5,13.75c-2.895,0-5.25-2.355-5.25-5.25s2.355-5.25,5.25-5.25s5.25,2.355,5.25,5.25
	S19.395,13.75,16.5,13.75z M16.5,4.75c-2.067,0-3.75,1.682-3.75,3.75s1.683,3.75,3.75,3.75s3.75-1.682,3.75-3.75
	S18.567,4.75,16.5,4.75z"/>
<rect x="10.25" y="8" style="fill:#333333;" width="1.5" height="1"/>
<rect x="21.25" y="8" style="fill:#333333;" width="1.5" height="1"/>
<path style="fill:#333333;" d="M15.76,4.123c-0.047-0.287-0.403-1.099-1.466-1.402l0.412-1.442c1.742,0.498,2.412,1.867,2.534,2.598
	L15.76,4.123z"/>
<path style="fill:#333333;" d="M17.247,4.063l-1.494-0.126c0.016-0.194,0.193-1.913,1.375-2.588l0.744,1.303
	C17.525,2.849,17.286,3.598,17.247,4.063z"/>
<circle style="fill:#333333;" cx="18" cy="8" r="1"/>
<circle style="fill:#333333;" cx="15" cy="8" r="1"/>
<rect x="4" y="17.25" style="fill:#333333;" width="15" height="1.5"/>
</svg>






