<?xml version="1.0" encoding="iso-8859-1"?>
<svg version="1.1" id="&#x56FE;&#x5C42;_1" xmlns="http://www.w3.org/2000/svg" xmlns:xlink="http://www.w3.org/1999/xlink" x="0px"
	 y="0px" viewBox="0 0 24 24" style="enable-background:new 0 0 24 24;" xml:space="preserve">
<path style="fill:#333333;" d="M12.063,14.75c-1.911,0-5.264-2.853-5.806-6.644C5.979,6.158,6.425,4.395,7.512,3.141
	c1.058-1.22,2.674-1.891,4.551-1.891c1.951,0,3.507,0.593,4.498,1.716c1.06,1.201,1.458,2.926,1.183,5.127
	C17.19,12.525,13.804,14.75,12.063,14.75z M12.063,2.75c-1.457,0-2.639,0.475-3.418,1.374c-0.798,0.92-1.119,2.259-0.903,3.77
	c0.442,3.094,3.26,5.356,4.321,5.356c0.971,0,3.729-1.643,4.192-5.343c0.22-1.755-0.056-3.083-0.819-3.948
	C14.729,3.157,13.594,2.75,12.063,2.75z"/>
<path style="fill:#333333;" d="M9.59,22.744L9.41,21.256c2.301-0.28,4.655-1.011,4.844-1.504c-0.168-0.126-1.27-0.285-1.86-0.37
	c-1.4-0.203-3.144-0.454-3.144-1.882c0-1.903,1.709-3.587,2.923-4.175l0.654,1.35c-0.849,0.411-2.077,1.654-2.077,2.825
	c0.165,0.152,1.266,0.312,1.857,0.396c1.4,0.202,3.143,0.454,3.143,1.881C15.75,21.709,11.891,22.466,9.59,22.744z"/>
</svg>






