<?xml version="1.0" encoding="iso-8859-1"?>
<svg version="1.1" id="&#x56FE;&#x5C42;_1" xmlns="http://www.w3.org/2000/svg" xmlns:xlink="http://www.w3.org/1999/xlink" x="0px"
	 y="0px" viewBox="0 0 24 24" style="enable-background:new 0 0 24 24;" xml:space="preserve">
<path style="fill:#333333;" d="M6.5,20.75h-2c-0.965,0-1.75-0.785-1.75-1.75V3c0-0.965,0.785-1.75,1.75-1.75h10
	c0.965,0,1.75,0.785,1.75,1.75v2h-1.5V3c0-0.138-0.112-0.25-0.25-0.25h-10C4.362,2.75,4.25,2.862,4.25,3v16
	c0,0.138,0.112,0.25,0.25,0.25h2V20.75z"/>
<path style="fill:#333333;" d="M19.5,22.75h-12c-0.965,0-1.75-0.785-1.75-1.75V6c0-0.965,0.785-1.75,1.75-1.75h12
	c0.965,0,1.75,0.785,1.75,1.75v15C21.25,21.965,20.465,22.75,19.5,22.75z M7.5,5.75C7.362,5.75,7.25,5.862,7.25,6v15
	c0,0.138,0.112,0.25,0.25,0.25h12c0.138,0,0.25-0.112,0.25-0.25V6c0-0.138-0.112-0.25-0.25-0.25H7.5z"/>
<path style="fill:#333333;" d="M13.5,18.25c-2.619,0-4.75-2.131-4.75-4.75s2.131-4.75,4.75-4.75s4.75,2.131,4.75,4.75
	S16.119,18.25,13.5,18.25z M13.5,10.25c-1.792,0-3.25,1.458-3.25,3.25s1.458,3.25,3.25,3.25s3.25-1.458,3.25-3.25
	S15.292,10.25,13.5,10.25z"/>
<path style="fill:#333333;" d="M13.376,17.916c-0.576-0.863-0.066-3.087,1.174-4.017c1.222-0.914,2.887-0.669,3.073-0.64
	l-0.243,1.48c-0.332-0.051-1.328-0.091-1.93,0.359c-0.681,0.51-0.884,1.761-0.795,2.044L13.376,17.916z"/>
<path style="fill:#333333;" d="M10,16.25v-1.5c0.584,0,1.25-0.666,1.25-1.25h1.5C12.75,14.913,11.414,16.25,10,16.25z"/>
<path style="fill:#333333;" d="M14,12.75v-1.5c0.729,0,0.749-1.202,0.75-1.253L16.25,10C16.25,10.951,15.779,12.75,14,12.75z"/>
</svg>






