<?xml version="1.0" encoding="iso-8859-1"?>
<svg version="1.1" id="&#x56FE;&#x5C42;_1" xmlns="http://www.w3.org/2000/svg" xmlns:xlink="http://www.w3.org/1999/xlink" x="0px"
	 y="0px" viewBox="0 0 24 24" style="enable-background:new 0 0 24 24;" xml:space="preserve">
<path style="fill:#333333;" d="M19.75,22.75H4.25V4.25h15.5V22.75z M5.75,21.25h12.5V5.75H5.75V21.25z"/>
<polygon style="fill:#333333;" points="5.197,5.724 4.803,4.276 16.75,1.018 16.75,5 15.25,5 15.25,2.982 "/>
<path style="fill:#333333;" d="M12,14.75c-1.517,0-2.75-1.233-2.75-2.75S10.483,9.25,12,9.25s2.75,1.233,2.75,2.75
	S13.517,14.75,12,14.75z M12,10.75c-0.689,0-1.25,0.561-1.25,1.25s0.561,1.25,1.25,1.25s1.25-0.561,1.25-1.25S12.689,10.75,12,10.75
	z"/>
<rect x="10" y="16.25" style="fill:#333333;" width="4" height="1.5"/>
</svg>






