<?xml version="1.0" encoding="iso-8859-1"?>
<svg version="1.1" id="&#x56FE;&#x5C42;_1" xmlns="http://www.w3.org/2000/svg" xmlns:xlink="http://www.w3.org/1999/xlink" x="0px"
	 y="0px" viewBox="0 0 24 24" style="enable-background:new 0 0 24 24;" xml:space="preserve">
<path style="fill:#333333;" d="M21.75,8.75h-6.5v-6.5h6.5V8.75z M16.75,7.25h3.5v-3.5h-3.5V7.25z"/>
<path style="fill:#333333;" d="M21.75,21.75h-6.5v-6.5h6.5V21.75z M16.75,20.25h3.5v-3.5h-3.5V20.25z"/>
<path style="fill:#333333;" d="M8.75,21.75h-6.5v-6.5h6.5V21.75z M3.75,20.25h3.5v-3.5h-3.5V20.25z"/>
<path style="fill:#333333;" d="M8.75,8.75h-6.5v-6.5h6.5V8.75z M3.75,7.25h3.5v-3.5h-3.5V7.25z"/>
<rect x="4" y="11.25" style="fill:#333333;" width="11" height="1.5"/>
<rect x="19" y="11.25" style="fill:#333333;" width="1" height="1.5"/>
<rect x="11.25" y="18.5" style="fill:#333333;" width="1.5" height="1"/>
<rect x="11.25" y="8.5" style="fill:#333333;" width="1.5" height="7"/>
<rect x="11.25" y="4" style="fill:#333333;" width="1.5" height="1"/>
</svg>






