<?xml version="1.0" encoding="iso-8859-1"?>
<svg version="1.1" id="&#x56FE;&#x5C42;_1" xmlns="http://www.w3.org/2000/svg" xmlns:xlink="http://www.w3.org/1999/xlink" x="0px"
	 y="0px" viewBox="0 0 24 24" style="enable-background:new 0 0 24 24;" xml:space="preserve">
<path style="fill:#333333;" d="M13.656,22.25H7.619l2.742-17h6.154c3.645,0,5.734,1.731,5.734,4.75s-2.09,4.75-5.734,4.75h-1.859
	L13.656,22.25z M9.381,20.75h2.963l1-7.5h3.172c2.81,0,4.234-1.094,4.234-3.25c0-2.157-1.425-3.25-4.234-3.25h-4.877L9.381,20.75z"
	/>
<path style="fill:#333333;" d="M9,18.75H4.119l2.742-17h6.154c3.645,0,5.734,1.731,5.734,4.75s-2.09,4.75-5.734,4.75H10.5v-1.5
	h2.516c2.81,0,4.234-1.093,4.234-3.25s-1.425-3.25-4.234-3.25H8.139l-2.258,14H9V18.75z"/>
</svg>






