<?xml version="1.0" encoding="iso-8859-1"?>
<svg version="1.1" id="&#x56FE;&#x5C42;_1" xmlns="http://www.w3.org/2000/svg" xmlns:xlink="http://www.w3.org/1999/xlink" x="0px"
	 y="0px" viewBox="0 0 24 24" style="enable-background:new 0 0 24 24;" xml:space="preserve">
<path style="fill:#333333;" d="M12.127,22.289l-0.46-0.194c-1.308-0.549-4.029-1.689-6.867-4.263
	c-2.842-2.578-3.773-7.752-0.32-11.616c2.623-2.935,6.922-2.014,9.076-1.022c1.026-0.292,3.294-0.608,4.955,0.518
	c1.988,1.349,4.71,5.035,2.298,10.293c-2.016,4.395-7.382,5.954-8.437,6.222L12.127,22.289z M9.254,5.741
	c-1.311,0-2.663,0.362-3.656,1.474v0c-2.84,3.178-2.103,7.408,0.209,9.505c2.645,2.397,5.108,3.433,6.435,3.988
	c1.327-0.371,5.588-1.809,7.203-5.329c1.994-4.347-0.179-7.342-1.776-8.427c-1.16-0.787-3.113-0.553-3.901-0.252l-0.312,0.119
	L13.16,6.668C12.414,6.289,10.865,5.741,9.254,5.741z"/>
<path style="fill:#333333;" d="M8.834,15.171c-0.035-0.149-0.081-0.315-0.131-0.498c-0.339-1.229-0.905-3.285,0.182-5.615
	c1.176-2.522,3.315-3.356,4.342-3.757l0.545,1.397c-0.91,0.355-2.605,1.016-3.528,2.993c-0.854,1.83-0.415,3.421-0.095,4.583
	c0.056,0.204,0.107,0.39,0.146,0.555L8.834,15.171z"/>
<path style="fill:#333333;" d="M12.492,5.356l-1.485-0.213c0.031-0.218,0.094-0.432,0.163-0.653
	c0.113-0.367,0.203-0.656,0.103-1.058c-0.101-0.401-0.495-0.555-0.857-0.668c-0.117-0.037-0.204-0.07-0.252-0.094l0.627-1.361
	c0.455,0.142,1.623,0.506,1.937,1.758c0.202,0.809,0.014,1.419-0.124,1.865C12.559,5.077,12.513,5.215,12.492,5.356z"/>
<path style="fill:#333333;" d="M14.424,6.417c-0.072,0-0.143-0.001-0.21-0.004l0,0c-0.448-0.015-0.862-0.222-1.134-0.569
	c-0.271-0.346-0.375-0.797-0.283-1.238c0.162-0.766,0.536-1.821,1.406-2.501c0.868-0.682,1.985-0.792,2.763-0.766
	c0.449,0.016,0.862,0.223,1.134,0.57c0.271,0.346,0.375,0.797,0.283,1.237c-0.16,0.764-0.534,1.818-1.405,2.501
	C16.183,6.271,15.186,6.417,14.424,6.417z M14.266,4.915c0.517,0.019,1.271-0.044,1.786-0.447c0.516-0.404,0.754-1.108,0.862-1.628
	c-0.538-0.02-1.273,0.044-1.786,0.447C14.613,3.689,14.375,4.395,14.266,4.915L14.266,4.915z"/>
</svg>






