<?xml version="1.0" encoding="iso-8859-1"?>
<svg version="1.1" id="&#x56FE;&#x5C42;_1" xmlns="http://www.w3.org/2000/svg" xmlns:xlink="http://www.w3.org/1999/xlink" x="0px"
	 y="0px" viewBox="0 0 24 24" style="enable-background:new 0 0 24 24;" xml:space="preserve">
<path style="fill:#333333;" d="M12,20.25c-2.068,0-3.75-1.683-3.75-3.75s1.682-3.75,3.75-3.75c2.067,0,3.75,1.683,3.75,3.75
	S14.067,20.25,12,20.25z M12,14.25c-1.241,0-2.25,1.01-2.25,2.25s1.009,2.25,2.25,2.25c1.24,0,2.25-1.01,2.25-2.25
	S13.24,14.25,12,14.25z"/>
<path style="fill:#333333;" d="M12,8.75c-1.241,0-2.25-1.009-2.25-2.25S10.759,4.25,12,4.25c1.24,0,2.25,1.009,2.25,2.25
	S13.24,8.75,12,8.75z M12,5.75c-0.414,0-0.75,0.336-0.75,0.75S11.586,7.25,12,7.25c0.413,0,0.75-0.336,0.75-0.75
	S12.413,5.75,12,5.75z"/>
<rect x="11.25" y="20" style="fill:#333333;" width="1.5" height="2"/>
<rect x="7.459" y="10.25" transform="matrix(0.1641 -0.9864 0.9864 0.1641 -2.0738 19.5528)" style="fill:#333333;" width="6.083" height="1.5"/>
<rect x="12.75" y="7.959" transform="matrix(0.9864 -0.1644 0.1644 0.9864 -1.6248 2.3693)" style="fill:#333333;" width="1.501" height="6.083"/>
<rect x="6.846" y="19.5" transform="matrix(0.3944 -0.9189 0.9189 0.3944 -13.3095 20.3043)" style="fill:#333333;" width="3.808" height="1.501"/>
<rect x="14.5" y="18.346" transform="matrix(0.9191 -0.3939 0.3939 0.9191 -6.7438 7.6446)" style="fill:#333333;" width="1.501" height="3.808"/>
<rect x="11.25" y="2" style="fill:#333333;" width="1.5" height="3"/>
</svg>






