<?xml version="1.0" encoding="iso-8859-1"?>
<svg version="1.1" id="&#x56FE;&#x5C42;_1" xmlns="http://www.w3.org/2000/svg" xmlns:xlink="http://www.w3.org/1999/xlink" x="0px"
	 y="0px" viewBox="0 0 24 24" style="enable-background:new 0 0 24 24;" xml:space="preserve">
<path style="fill:#333333;" d="M9.16,21.402c-1.2,0-2.396-0.452-3.315-1.344L5.25,19.48c-1.88-1.825-2.272-4.683-0.951-6.947
	l1.843-3.161l1.495-3.309C8.411,4.354,10.124,3.25,12,3.25c1.876,0,3.589,1.104,4.363,2.813l1.531,3.377l1.807,3.093
	c1.321,2.265,0.93,5.122-0.951,6.947l-0.595,0.578c-1.682,1.633-4.294,1.79-6.155,0.402C11.155,21.091,10.156,21.402,9.16,21.402z
	 M9.002,6.683l-1.53,3.377l-1.878,3.229c-0.973,1.667-0.685,3.771,0.701,5.115l0.595,0.578c1.183,1.149,3.042,1.231,4.321,0.192
	c0.458-0.37,1.122-0.37,1.578,0c1.28,1.04,3.139,0.956,4.321-0.192l0.595-0.578c1.385-1.345,1.673-3.448,0.701-5.115l-1.843-3.161
	l-1.566-3.445C14.465,5.509,13.288,4.75,12,4.75C10.711,4.75,9.535,5.509,9.002,6.683z"/>
<path style="fill:#333333;" d="M12.728,5.931l-1.456-0.362c0.057-0.229,0.168-0.968,0-1.637C11.137,3.391,10.604,2.828,10.3,2.6
	L11.2,1.4c0.451,0.337,1.279,1.174,1.528,2.168C12.961,4.499,12.837,5.491,12.728,5.931z"/>
<circle style="fill:#333333;" cx="8" cy="14" r="1"/>
<circle style="fill:#333333;" cx="9" cy="17" r="1"/>
<circle style="fill:#333333;" cx="11.5" cy="15" r="1"/>
</svg>






