<?xml version="1.0" encoding="iso-8859-1"?>
<svg version="1.1" id="&#x56FE;&#x5C42;_1" xmlns="http://www.w3.org/2000/svg" xmlns:xlink="http://www.w3.org/1999/xlink" x="0px"
	 y="0px" viewBox="0 0 24 24" style="enable-background:new 0 0 24 24;" xml:space="preserve">
<g>
	<defs>
		<rect id="SVGID_1_" width="24" height="24"/>
	</defs>
	<clipPath id="SVGID_00000137108856444612751910000004060496427602122153_">
		<use xlink:href="#SVGID_1_"  style="overflow:visible;"/>
	</clipPath>
	<g style="clip-path:url(#SVGID_00000137108856444612751910000004060496427602122153_);">
		<path style="fill:#333333;" d="M13.08,22.753c-0.042,0-0.085-0.002-0.127-0.005c-0.727-0.045-1.428-0.446-2.028-1.161
			c-1.375-1.636-2.015-4.574-1.671-7.67c0.52-4.676,3.547-8.255,3.676-8.405l0.527-0.615L14.03,5.47
			c0.152,0.152,3.72,3.774,3.72,8.53c0,3.657-1.373,6.584-2.734,7.862C14.394,22.446,13.727,22.753,13.08,22.753z M13.54,7.187
			c-0.849,1.2-2.453,3.821-2.794,6.896c-0.359,3.232,0.491,5.543,1.328,6.539c0.325,0.387,0.671,0.61,0.974,0.629
			c0.244,0.021,0.593-0.155,0.941-0.482c1.089-1.022,2.262-3.577,2.262-6.769C16.25,10.956,14.48,8.354,13.54,7.187z"/>
		<path style="fill:#333333;" d="M21.712,12.237l-1.424-0.474c0.008-0.022,0.726-2.208,0.965-4.832
			c0.136-1.48-0.12-3.112-0.861-3.221c-0.241-0.034-0.536,0.011-0.843,0.116c0.57,0.727,0.906,1.592,0.67,2.387
			c-0.3,1.01-1.035,1.646-1.919,1.662c-0.887,0.002-1.67-0.612-2.012-1.638c-0.252-0.758-0.04-1.596,0.597-2.357
			c0.052-0.062,0.106-0.122,0.162-0.182c-0.464-0.213-0.892-0.26-1.14-0.1c-1.223,0.79-1.675,2.562-1.679,2.58l-1.457-0.356
			c0.023-0.096,0.591-2.365,2.321-3.484c0.861-0.556,2.09-0.409,3.256,0.378c0.753-0.396,1.573-0.59,2.26-0.49
			c1.878,0.274,2.336,2.681,2.139,4.842C22.491,9.873,21.743,12.142,21.712,12.237z M18.254,4.611
			c-0.078,0.075-0.151,0.152-0.219,0.231c-0.168,0.201-0.435,0.588-0.323,0.92c0.141,0.424,0.382,0.612,0.559,0.612
			c0.002,0,0.003,0,0.005,0c0.202-0.003,0.4-0.234,0.506-0.588C18.854,5.538,18.66,5.073,18.254,4.611z"/>
		<path style="fill:#333333;" d="M3.503,18.846c-0.005,0-0.01,0-0.015,0c-0.866-0.003-1.577-0.299-2.057-0.856
			c-1.578-1.832-0.057-5.925,3.538-9.52c3.71-3.711,8.414-3.235,8.613-3.215l0.667,0.074V6c0,0.175-0.042,4.33-3.686,8.494
			C8.179,17.221,5.541,18.846,3.503,18.846z M12.681,6.731C11.336,6.769,8.413,7.148,6.03,9.53c-3.297,3.297-4.238,6.579-3.462,7.48
			c0.24,0.278,0.671,0.362,0.935,0.335c1.246,0,3.455-1.008,5.933-3.84C11.833,10.766,12.497,8.008,12.681,6.731z"/>
		<circle style="fill:#333333;" cx="13.622" cy="13.704" r="1.25"/>
		<circle style="fill:#333333;" cx="13.122" cy="17.204" r="1.25"/>
	</g>
</g>
</svg>






