<?xml version="1.0" encoding="iso-8859-1"?>
<svg version="1.1" id="&#x56FE;&#x5C42;_1" xmlns="http://www.w3.org/2000/svg" xmlns:xlink="http://www.w3.org/1999/xlink" x="0px"
	 y="0px" viewBox="0 0 24 24" style="enable-background:new 0 0 24 24;" xml:space="preserve">
<g>
	<defs>
		<rect id="SVGID_1_" width="24" height="24"/>
	</defs>
	<clipPath id="SVGID_00000062155671496911065740000007511562741266942858_">
		<use xlink:href="#SVGID_1_"  style="overflow:visible;"/>
	</clipPath>
	<g style="clip-path:url(#SVGID_00000062155671496911065740000007511562741266942858_);">
		
			<rect x="16.75" y="3.671" transform="matrix(0.7071 -0.7071 0.7071 0.7071 0.5298 14.278)" style="fill:#333333;" width="1.5" height="5.657"/>
		<path style="fill:#333333;" d="M2.043,21.955l1.266-6.326L18,0.939L23.061,6L8.369,20.689L2.043,21.955z M4.691,16.369
			l-0.735,3.674l3.674-0.734L20.939,6L18,3.061L4.691,16.369z"/>
		
			<rect x="16.75" y="3.671" transform="matrix(0.7071 -0.7071 0.7071 0.7071 0.5298 14.278)" style="fill:#333333;" width="1.5" height="5.657"/>
		
			<rect x="5.5" y="15.274" transform="matrix(0.7071 -0.7071 0.7071 0.7071 -10.72 9.6176)" style="fill:#333333;" width="1.5" height="4.95"/>
		
			<rect x="4.222" y="11.249" transform="matrix(0.7071 -0.7071 0.7071 0.7071 -4.9701 11.9996)" style="fill:#333333;" width="15.556" height="1.5"/>
	</g>
</g>
</svg>






