<?xml version="1.0" encoding="iso-8859-1"?>
<svg version="1.1" id="&#x56FE;&#x5C42;_1" xmlns="http://www.w3.org/2000/svg" xmlns:xlink="http://www.w3.org/1999/xlink" x="0px"
	 y="0px" viewBox="0 0 24 24" style="enable-background:new 0 0 24 24;" xml:space="preserve">
<path style="fill:#333333;" d="M12,10.75c-2.343,0-4.25-1.907-4.25-4.25S9.657,2.25,12,2.25c2.344,0,4.25,1.907,4.25,4.25
	S14.344,10.75,12,10.75z M12,3.75c-1.517,0-2.75,1.233-2.75,2.75S10.483,9.25,12,9.25s2.75-1.233,2.75-2.75S13.517,3.75,12,3.75z"/>
<path style="fill:#333333;" d="M5.809,10.143C4.52,9.366,3.75,8.004,3.75,6.5c0-1.389,0.681-2.692,1.821-3.488l0.858,1.23
	C5.691,4.757,5.25,5.602,5.25,6.5c0,0.973,0.499,1.854,1.333,2.357L5.809,10.143z"/>
<path style="fill:#333333;" d="M18.429,9.988l-0.857-1.23C18.31,8.243,18.75,7.399,18.75,6.5s-0.44-1.743-1.179-2.257l0.857-1.23
	C19.569,3.807,20.25,5.111,20.25,6.5S19.569,9.193,18.429,9.988z"/>
<path style="fill:#333333;" d="M18.75,21.75H5.25V20c0-1.961,0-2.945,0.362-3.817c0.485-1.172,1.397-2.085,2.57-2.57
	C9.055,13.25,10.04,13.25,12,13.25c1.961,0,2.945,0,3.817,0.362c1.172,0.485,2.085,1.398,2.571,2.57
	C18.75,17.055,18.75,18.039,18.75,20V21.75z M6.75,20.25h10.5V20c0-1.762,0-2.646-0.247-3.243c-0.333-0.802-0.958-1.427-1.76-1.759
	C14.646,14.75,13.762,14.75,12,14.75s-2.646,0-3.244,0.248c-0.802,0.332-1.427,0.957-1.759,1.759C6.75,17.354,6.75,18.238,6.75,20
	V20.25z"/>
<path style="fill:#333333;" d="M22.75,21h-1.5v-0.6c0-2.117,0-3.181-0.354-3.876c-0.314-0.615-0.806-1.106-1.421-1.419l0.68-1.338
	c0.9,0.458,1.618,1.176,2.077,2.076c0.518,1.017,0.518,2.199,0.518,4.557V21z"/>
<path style="fill:#333333;" d="M2.75,21h-1.5v-0.6c0-2.357,0-3.54,0.518-4.557c0.458-0.899,1.176-1.618,2.076-2.076l0.68,1.338
	c-0.615,0.312-1.106,0.804-1.419,1.419C2.75,17.22,2.75,18.283,2.75,20.4V21z"/>
</svg>






