<?xml version="1.0" encoding="iso-8859-1"?>
<svg version="1.1" id="&#x56FE;&#x5C42;_1" xmlns="http://www.w3.org/2000/svg" xmlns:xlink="http://www.w3.org/1999/xlink" x="0px"
	 y="0px" viewBox="0 0 24 24" style="enable-background:new 0 0 24 24;" xml:space="preserve">
<path style="fill:#333333;" d="M12,9.75c-2.343,0-4.25-1.907-4.25-4.25S9.657,1.25,12,1.25c2.344,0,4.25,1.907,4.25,4.25
	S14.344,9.75,12,9.75z M12,2.75c-1.517,0-2.75,1.233-2.75,2.75S10.483,8.25,12,8.25s2.75-1.233,2.75-2.75S13.517,2.75,12,2.75z"/>
<path style="fill:#333333;" d="M2.75,20.5h-1.5c0-4.825,4.374-8.75,9.75-8.75v1.5C6.451,13.25,2.75,16.502,2.75,20.5z"/>
<path style="fill:#333333;" d="M17.5,21.878l-0.391-0.237c-0.157-0.097-3.859-2.406-3.859-7.041c0-0.434,0-1.089,4.031-2.317
	l0.219-0.066l0.219,0.066c4.031,1.229,4.031,1.884,4.031,2.317c0,4.635-3.702,6.944-3.859,7.041L17.5,21.878z M14.755,14.864
	c0.107,2.843,1.925,4.576,2.745,5.217c0.819-0.64,2.638-2.373,2.745-5.217c-0.442-0.273-1.659-0.736-2.745-1.079
	C16.414,14.128,15.197,14.591,14.755,14.864z"/>
</svg>






