<?xml version="1.0" encoding="iso-8859-1"?>
<svg version="1.1" id="&#x56FE;&#x5C42;_1" xmlns="http://www.w3.org/2000/svg" xmlns:xlink="http://www.w3.org/1999/xlink" x="0px"
	 y="0px" viewBox="0 0 24 24" style="enable-background:new 0 0 24 24;" xml:space="preserve">
<path style="fill:#333333;" d="M9.5,10.75c-2.343,0-4.25-1.907-4.25-4.25S7.157,2.25,9.5,2.25s4.25,1.907,4.25,4.25
	S11.843,10.75,9.5,10.75z M9.5,3.75c-1.517,0-2.75,1.233-2.75,2.75S7.983,9.25,9.5,9.25s2.75-1.233,2.75-2.75S11.017,3.75,9.5,3.75z
	"/>
<path style="fill:#333333;" d="M17.194,9.284l-1.389-0.568c0.974-2.379,0.062-4.303,0.021-4.384l1.344-0.667
	C17.223,3.769,18.434,6.254,17.194,9.284z"/>
<path style="fill:#333333;" d="M20.683,11.311l-1.365-0.621c2.069-4.553,0.048-8.288,0.027-8.325l1.311-0.729
	C20.755,1.814,23.062,6.076,20.683,11.311z"/>
<path style="fill:#333333;" d="M17.75,21.75H1.25V20.4c0-2.357,0-3.54,0.518-4.557c0.459-0.9,1.176-1.618,2.076-2.076
	C4.86,13.25,6.043,13.25,8.4,13.25h2.2c2.357,0,3.54,0,4.556,0.517c0.9,0.46,1.617,1.177,2.076,2.076
	c0.518,1.018,0.518,2.2,0.518,4.558V21.75z M2.75,20.25h13.5c0-2.018-0.009-3.047-0.354-3.727c-0.313-0.614-0.805-1.105-1.42-1.42
	C13.78,14.75,12.718,14.75,10.6,14.75H8.4c-2.118,0-3.18,0-3.875,0.354c-0.615,0.314-1.106,0.805-1.42,1.421
	C2.758,17.203,2.75,18.232,2.75,20.25z"/>
</svg>






