<?xml version="1.0" encoding="iso-8859-1"?>
<svg version="1.1" id="&#x56FE;&#x5C42;_1" xmlns="http://www.w3.org/2000/svg" xmlns:xlink="http://www.w3.org/1999/xlink" x="0px"
	 y="0px" viewBox="0 0 24 24" style="enable-background:new 0 0 24 24;" xml:space="preserve">
<path style="fill:#333333;" d="M22.75,20.25H1.25V3.75h7.939L12,0.939l2.811,2.811h7.939V20.25z M2.75,18.75h18.5V5.25h-7.061
	L12,3.061L9.811,5.25H2.75V18.75z"/>
<path style="fill:#333333;" d="M12,13.25c-1.792,0-3.25-1.458-3.25-3.25S10.208,6.75,12,6.75s3.25,1.458,3.25,3.25
	S13.792,13.25,12,13.25z M12,8.25c-0.965,0-1.75,0.785-1.75,1.75s0.785,1.75,1.75,1.75s1.75-0.785,1.75-1.75S12.965,8.25,12,8.25z"
	/>
<path style="fill:#333333;" d="M17.25,16.5h-1.5c0-1.792-1.683-3.25-3.75-3.25c-2.068,0-3.75,1.458-3.75,3.25h-1.5
	c0-2.619,2.355-4.75,5.25-4.75C14.895,11.75,17.25,13.881,17.25,16.5z"/>
</svg>






