<?xml version="1.0" encoding="iso-8859-1"?>
<svg version="1.1" id="&#x56FE;&#x5C42;_1" xmlns="http://www.w3.org/2000/svg" xmlns:xlink="http://www.w3.org/1999/xlink" x="0px"
	 y="0px" viewBox="0 0 24 24" style="enable-background:new 0 0 24 24;" xml:space="preserve">
<path style="fill:#333333;" d="M12.001,22.79l-0.237-0.078c-5.869-1.955-9.514-6.82-9.514-12.698V4.065l9.754-2.847l9.746,2.847
	v5.952c0,5.875-3.645,10.74-9.512,12.695L12.001,22.79z M3.75,5.19v4.824c0,5.131,3.155,9.399,8.251,11.193
	c5.095-1.794,8.249-6.061,8.249-11.19V5.19l-8.246-2.409L3.75,5.19z"/>
<path style="fill:#333333;" d="M12,12.25c-1.792,0-3.25-1.458-3.25-3.25S10.208,5.75,12,5.75S15.25,7.208,15.25,9
	S13.792,12.25,12,12.25z M12,7.25c-0.965,0-1.75,0.785-1.75,1.75s0.785,1.75,1.75,1.75S13.75,9.965,13.75,9S12.965,7.25,12,7.25z"/>
<path style="fill:#333333;" d="M16.75,15.5h-1.5c0-1.792-1.458-3.25-3.25-3.25s-3.25,1.458-3.25,3.25h-1.5
	c0-2.619,2.131-4.75,4.75-4.75S16.75,12.881,16.75,15.5z"/>
</svg>






