<?xml version="1.0" encoding="iso-8859-1"?>
<svg version="1.1" id="&#x56FE;&#x5C42;_1" xmlns="http://www.w3.org/2000/svg" xmlns:xlink="http://www.w3.org/1999/xlink" x="0px"
	 y="0px" viewBox="0 0 24 24" style="enable-background:new 0 0 24 24;" xml:space="preserve">
<path style="fill:#333333;" d="M9.5,10.75c-2.343,0-4.25-1.907-4.25-4.25S7.157,2.25,9.5,2.25s4.25,1.907,4.25,4.25
	S11.843,10.75,9.5,10.75z M9.5,3.75c-1.517,0-2.75,1.233-2.75,2.75S7.983,9.25,9.5,9.25s2.75-1.233,2.75-2.75S11.017,3.75,9.5,3.75z
	"/>
<path style="fill:none;" d="M18,14.5v6V14.5z"/>
<path style="fill:none;" d="M15,17.5h6H15z"/>
<polygon style="fill:#333333;" points="18.75,20.5 17.25,20.5 17.25,18.25 15,18.25 15,16.75 17.25,16.75 17.25,14.5 18.75,14.5 
	18.75,16.75 21,16.75 21,18.25 18.75,18.25 "/>
<path style="fill:#333333;" d="M13.5,21.75H2.25V20.4c0-2.357,0-3.54,0.518-4.557c0.459-0.9,1.176-1.618,2.076-2.076
	C5.86,13.25,7.043,13.25,9.4,13.25h4.1v1.5H9.4c-2.118,0-3.18,0-3.875,0.354c-0.615,0.314-1.106,0.805-1.42,1.421
	C3.758,17.203,3.75,18.232,3.75,20.25h9.75V21.75z"/>
</svg>






