<?xml version="1.0" encoding="iso-8859-1"?>
<svg version="1.1" id="&#x56FE;&#x5C42;_1" xmlns="http://www.w3.org/2000/svg" xmlns:xlink="http://www.w3.org/1999/xlink" x="0px"
	 y="0px" viewBox="0 0 24 24" style="enable-background:new 0 0 24 24;" xml:space="preserve">
<path style="fill:#333333;" d="M14.5,7.75h-5c-1.241,0-2.25-1.009-2.25-2.25v-2c0-1.241,1.009-2.25,2.25-2.25h5
	c1.24,0,2.25,1.009,2.25,2.25v2C16.75,6.741,15.74,7.75,14.5,7.75z M9.5,2.75c-0.414,0-0.75,0.336-0.75,0.75v2
	c0,0.414,0.336,0.75,0.75,0.75h5c0.413,0,0.75-0.336,0.75-0.75v-2c0-0.414-0.337-0.75-0.75-0.75H9.5z"/>
<path style="fill:#333333;" d="M15,22.75H9c-3.722,0-6.75-3.028-6.75-6.75S5.278,9.25,9,9.25h6c3.722,0,6.75,3.028,6.75,6.75
	S18.722,22.75,15,22.75z M9,10.75c-2.895,0-5.25,2.355-5.25,5.25S6.105,21.25,9,21.25h6c2.895,0,5.25-2.355,5.25-5.25
	s-2.355-5.25-5.25-5.25H9z"/>
<path style="fill:#333333;" d="M17.802,18.113c-1.866,0-3.914-0.688-5.611-1.259l-0.428-0.143c-3.106-1.036-7.012-1.225-8.173,0.252
	l-1.179-0.928c1.982-2.521,7.295-1.592,9.827-0.748l0.431,0.145c2.748,0.924,6.17,2.071,7.746,0.099l1.172,0.938
	C20.606,17.693,19.26,18.113,17.802,18.113z"/>
<path style="fill:#333333;" d="M12.5,4.5C12.5,4.776,12.276,5,12,5s-0.5-0.224-0.5-0.5C11.5,4.224,11.724,4,12,4
	S12.5,4.224,12.5,4.5z"/>
</svg>






