<?xml version="1.0" encoding="iso-8859-1"?>
<svg version="1.1" id="&#x56FE;&#x5C42;_1" xmlns="http://www.w3.org/2000/svg" xmlns:xlink="http://www.w3.org/1999/xlink" x="0px"
	 y="0px" viewBox="0 0 24 24" style="enable-background:new 0 0 24 24;" xml:space="preserve">
<path style="fill:#333333;" d="M3.331,22.339c-1.062-2.101-1.578-3.846-1.578-5.337c0-2.171,0.521-3.9,1.641-5.442
	c0.304-0.419,0.683-0.809,1.05-1.186c0.93-0.956,1.809-1.858,1.809-3.372c0-1.426-0.919-2.915-2.732-4.426L4.48,1.424
	c2.17,1.81,3.271,3.687,3.271,5.579c0,2.123-1.239,3.396-2.234,4.418c-0.344,0.354-0.67,0.688-0.911,1.02
	c-0.924,1.273-1.354,2.723-1.354,4.562c0,1.232,0.477,2.801,1.417,4.659L3.331,22.339z"/>
<path style="fill:#333333;" d="M20.671,22.338l-1.338-0.676c0.939-1.86,1.416-3.428,1.416-4.66c0-1.839-0.431-3.288-1.354-4.562
	c-0.24-0.332-0.565-0.666-0.91-1.02c-0.996-1.022-2.234-2.295-2.234-4.418c0-1.892,1.101-3.769,3.271-5.579l0.961,1.152
	c-1.813,1.511-2.732,3-2.732,4.426c0,1.513,0.879,2.416,1.809,3.372c0.367,0.376,0.746,0.766,1.051,1.186
	c1.118,1.542,1.64,3.271,1.64,5.442C22.249,18.492,21.733,20.238,20.671,22.338z"/>
<path style="fill:#333333;" d="M12.75,22.001l-1.5-0.002c0.003-2.479,0.003-3.984,0-4.517c-0.002-0.538-0.543-1.158-1.482-1.701
	c-0.691-0.398-1.598-0.553-2.694-0.443l-0.143-1.494c1.415-0.131,2.621,0.081,3.587,0.639c1.837,1.062,2.228,2.213,2.232,2.992
	C12.753,18.007,12.753,19.517,12.75,22.001z"/>
<path style="fill:#333333;" d="M12.754,17.482l-1.5-0.008c0.004-0.779,0.394-1.931,2.232-2.992c0.966-0.559,2.171-0.771,3.587-0.639
	l-0.143,1.494c-1.097-0.109-2.004,0.045-2.694,0.443C13.297,16.324,12.757,16.943,12.754,17.482z"/>
</svg>






