<?xml version="1.0" encoding="iso-8859-1"?>
<svg version="1.1" id="&#x56FE;&#x5C42;_1" xmlns="http://www.w3.org/2000/svg" xmlns:xlink="http://www.w3.org/1999/xlink" x="0px"
	 y="0px" viewBox="0 0 24 24" style="enable-background:new 0 0 24 24;" xml:space="preserve">
<path style="fill:#333333;" d="M21,20.75H3c-0.965,0-1.75-0.785-1.75-1.75V6c0-0.965,0.785-1.75,1.75-1.75h7v1.5H3
	C2.862,5.75,2.75,5.862,2.75,6v13c0,0.138,0.112,0.25,0.25,0.25h18c0.138,0,0.25-0.112,0.25-0.25v-1.25h1.5V19
	C22.75,19.965,21.965,20.75,21,20.75z"/>
<rect x="5" y="10.75" style="fill:#333333;" width="4" height="1.5"/>
<rect x="5" y="14.75" style="fill:#333333;" width="12" height="1.5"/>
<path style="fill:#333333;" d="M17,11.75c-2.067,0-3.75-1.682-3.75-3.75S14.933,4.25,17,4.25S20.75,5.932,20.75,8
	S19.067,11.75,17,11.75z M17,5.75c-1.24,0-2.25,1.009-2.25,2.25s1.01,2.25,2.25,2.25S19.25,9.241,19.25,8S18.24,5.75,17,5.75z"/>
<path style="fill:#333333;" d="M21.332,14.551C20.488,12.901,18.707,11.75,17,11.75c-1.751,0-2.588,0.459-3.521,1.306l-1.008-1.111
	c1.152-1.046,2.312-1.695,4.528-1.695c2.283,0,4.561,1.454,5.668,3.617L21.332,14.551z"/>
</svg>






