<?xml version="1.0" encoding="iso-8859-1"?>
<svg version="1.1" id="&#x56FE;&#x5C42;_1" xmlns="http://www.w3.org/2000/svg" xmlns:xlink="http://www.w3.org/1999/xlink" x="0px"
	 y="0px" viewBox="0 0 24 24" style="enable-background:new 0 0 24 24;" xml:space="preserve">
<path style="fill:#333333;" d="M1.25,22.915V16H2H1.25V8H2H1.25V1.085l7.397,1.479L8.5,3.3l0.147-0.735L22.75,5.385V10H22h0.75v4H22
	h0.75v4.615l-14.103,2.82L8.5,20.7l0.147,0.735L1.25,22.915z M2.75,16.679v4.406l5-1v-3.906L2.75,16.679z M9.25,16.028v3.757
	l5.5-1.101v-3.206L9.25,16.028z M15.5,19.3l0.002,0.012L15.5,19.3z M16.25,15.329v3.056l5-1v-2.556L16.25,15.329z M2.75,8.829v6.342
	l5-0.5V9.329L2.75,8.829z M9.25,9.479v5.043l5.5-0.55v-3.943L9.25,9.479z M16.25,10.179v3.643l5-0.5v-2.643L16.25,10.179z
	 M16.25,8.671l5,0.5V6.615l-5-1V8.671z M9.25,7.971l5.5,0.55V5.315l-5.5-1.1V7.971z M2.75,7.321l5,0.5V3.915l-5-1V7.321z M15.5,4.7
	l0.002-0.012L15.5,4.7z"/>
</svg>






