<?xml version="1.0" encoding="iso-8859-1"?>
<svg version="1.1" id="&#x56FE;&#x5C42;_1" xmlns="http://www.w3.org/2000/svg" xmlns:xlink="http://www.w3.org/1999/xlink" x="0px"
	 y="0px" viewBox="0 0 24 24" style="enable-background:new 0 0 24 24;" xml:space="preserve">
<path style="fill:#333333;" d="M18.5,22.75h-13c-0.965,0-1.75-0.785-1.75-1.75V8.437l3-3.059V1.25h10.5v4.128l3,3.059V21
	C20.25,21.965,19.465,22.75,18.5,22.75z M5.25,9.049V21c0,0.138,0.112,0.25,0.25,0.25h13c0.138,0,0.25-0.112,0.25-0.25V9.049
	l-3-3.059V2.75h-7.5v3.24L5.25,9.049z"/>
<polygon style="fill:#333333;" points="9.25,18.25 4.5,18.25 4.5,16.75 7.75,16.75 7.75,12.25 4.5,12.25 4.5,10.75 9.25,10.75 "/>
<rect x="7.5" y="5" style="fill:#333333;" width="9" height="1.5"/>
<rect x="14.75" y="11.5" style="fill:#333333;" width="1.5" height="3"/>
<rect x="14.75" y="17" style="fill:#333333;" width="1.5" height="0.5"/>
<rect x="3.75" y="10" style="fill:#333333;" width="1.5" height="9"/>
</svg>






