<?xml version="1.0" encoding="iso-8859-1"?>
<svg version="1.1" id="&#x56FE;&#x5C42;_1" xmlns="http://www.w3.org/2000/svg" xmlns:xlink="http://www.w3.org/1999/xlink" x="0px"
	 y="0px" viewBox="0 0 24 24" style="enable-background:new 0 0 24 24;" xml:space="preserve">
<path style="fill:#333333;" d="M21.75,21.75H2.25V10.689L5.689,7.25h8.977l4.5-5h2.584V21.75z M3.75,20.25h16.5V3.75h-0.416l-4.5,5
	H6.311L3.75,11.311V20.25z"/>
<polygon style="fill:#333333;" points="6.53,8.53 5.47,7.47 10.689,2.25 20,2.25 20,3.75 11.311,3.75 "/>
<path style="fill:#333333;" d="M11.887,18.25c-0.942,0-1.858-0.621-2.334-1.583c-0.461-0.93-0.396-1.931,0.172-2.677l0,0
	c0.664-0.872,1.189-2.115,1.472-2.783l1.294-0.154c0.549,0.741,1.723,2.576,2.11,3.594c0.284,0.748,0.161,1.592-0.338,2.316
	C13.715,17.757,12.806,18.25,11.887,18.25z M12.021,13.037c-0.296,0.612-0.668,1.289-1.104,1.861l0,0
	c-0.319,0.419-0.097,0.95-0.021,1.103c0.219,0.441,0.626,0.749,0.991,0.749c0.432,0,0.869-0.244,1.14-0.638
	c0.215-0.312,0.277-0.651,0.171-0.932C13.003,14.667,12.503,13.796,12.021,13.037z"/>
<rect x="1.275" y="5" transform="matrix(0.7071 -0.7071 0.7071 0.7071 -2.9675 4.3358)" style="fill:#333333;" width="4.95" height="1.5"/>
</svg>






