<?xml version="1.0" encoding="iso-8859-1"?>
<svg version="1.1" id="&#x56FE;&#x5C42;_1" xmlns="http://www.w3.org/2000/svg" xmlns:xlink="http://www.w3.org/1999/xlink" x="0px"
	 y="0px" viewBox="0 0 24 24" style="enable-background:new 0 0 24 24;" xml:space="preserve">
<path style="fill:#333333;" d="M19.5,21.75h-15c-1.241,0-2.25-1.01-2.25-2.25v-15c0-1.241,1.009-2.25,2.25-2.25h15
	c1.24,0,2.25,1.009,2.25,2.25v15C21.75,20.74,20.74,21.75,19.5,21.75z M4.5,3.75c-0.414,0-0.75,0.336-0.75,0.75v15
	c0,0.413,0.336,0.75,0.75,0.75h15c0.413,0,0.75-0.337,0.75-0.75v-15c0-0.414-0.337-0.75-0.75-0.75H4.5z"/>
<path style="fill:#333333;" d="M15.882,17.751c-0.201,0-0.405-0.033-0.604-0.101c-1.739-0.587-4.146-1.618-5.728-3.2
	c-1.58-1.58-2.612-3.987-3.2-5.728C6.156,8.146,6.246,7.536,6.597,7.046C6.956,6.548,7.543,6.25,8.169,6.25H9.72
	c0.494,0,0.95,0.269,1.19,0.701l0.748,1.348c0.218,0.392,0.229,0.867,0.027,1.27l-0.409,1.01c0.067,0.287,0.26,0.898,0.753,1.391
	c0.491,0.491,1.1,0.685,1.39,0.753l1.059-0.436c0.353-0.178,0.828-0.167,1.221,0.052l1.351,0.751c0.433,0.241,0.7,0.696,0.7,1.189
	v1.552c0,0.626-0.298,1.214-0.797,1.572C16.633,17.633,16.262,17.751,15.882,17.751z M8.169,7.75c-0.146,0-0.275,0.062-0.353,0.171
	C7.768,7.987,7.722,8.097,7.771,8.243c0.439,1.301,1.392,3.7,2.839,5.147c1.449,1.449,3.847,2.4,5.146,2.839
	c0.147,0.052,0.256,0.003,0.321-0.044c0.109-0.078,0.172-0.207,0.172-0.354v-1.47l-1.223-0.68l-1.42,0.585l-0.19-0.021
	c-0.057-0.006-1.399-0.167-2.447-1.215s-1.208-2.39-1.215-2.447l-0.021-0.189l0.581-1.428L9.639,7.75H8.169z M15.101,13.651
	l-0.02,0.008C15.088,13.657,15.095,13.654,15.101,13.651z"/>
</svg>






