<?xml version="1.0" encoding="iso-8859-1"?>
<svg version="1.1" id="&#x56FE;&#x5C42;_1" xmlns="http://www.w3.org/2000/svg" xmlns:xlink="http://www.w3.org/1999/xlink" x="0px"
	 y="0px" viewBox="0 0 24 24" style="enable-background:new 0 0 24 24;" xml:space="preserve">
<path style="fill:#333333;" d="M20,22.25H4c-1.241,0-2.25-1.01-2.25-2.25V4c0-1.241,1.009-2.25,2.25-2.25h16
	c1.24,0,2.25,1.009,2.25,2.25v16C22.25,21.24,21.24,22.25,20,22.25z M4,3.25C3.586,3.25,3.25,3.586,3.25,4v16
	c0,0.413,0.336,0.75,0.75,0.75h16c0.413,0,0.75-0.337,0.75-0.75V4c0-0.414-0.337-0.75-0.75-0.75H4z"/>
<path style="fill:#333333;" d="M10.25,18.75h-5.5V5.25h5.5V18.75z M6.25,17.25h2.5V6.75h-2.5V17.25z"/>
<path style="fill:#333333;" d="M19.25,9.75h-7.5v-4.5h7.5V9.75z M13.25,8.25h4.5v-1.5h-4.5V8.25z"/>
<circle style="fill:#333333;" cx="12.5" cy="12" r="1"/>
<circle style="fill:#333333;" cx="12.5" cy="15" r="1"/>
<circle style="fill:#333333;" cx="12.5" cy="18" r="1"/>
<circle style="fill:#333333;" cx="15.5" cy="12" r="1"/>
<circle style="fill:#333333;" cx="15.5" cy="15" r="1"/>
<circle style="fill:#333333;" cx="15.5" cy="18" r="1"/>
<circle style="fill:#333333;" cx="18.5" cy="12" r="1"/>
<circle style="fill:#333333;" cx="18.5" cy="15" r="1"/>
<circle style="fill:#333333;" cx="18.5" cy="18" r="1"/>
</svg>






