<?xml version="1.0" encoding="utf-8"?>
<svg version="1.1" id="&#x56FE;&#x5C42;_1" xmlns="http://www.w3.org/2000/svg" xmlns:xlink="http://www.w3.org/1999/xlink" x="0px" y="0px"
	 viewBox="0 0 24 24" style="enable-background:new 0 0 24 24;" xml:space="preserve">
<style type="text/css">
	.st0{fill:#333333;}
</style>
<path class="st0" d="M18.1,21.4c-0.3,0-0.6,0-0.8-0.1c-2.8-0.9-6.7-2.6-9.2-5.1C5.5,13.7,3.9,9.8,2.9,7C2.7,6.2,2.8,5.4,3.3,4.7
	C3.8,4,4.6,3.6,5.5,3.6H8c0.6,0,1.2,0.3,1.5,0.9l1.2,2.2c0.3,0.5,0.3,1.1,0,1.6l-1.1,2.1c0.1,0.5,0.6,1.6,1.5,2.6
	c1,1,2.1,1.4,2.6,1.5l2.1-1.1c0.5-0.3,1.1-0.2,1.6,0l2.2,1.2c0.6,0.3,0.9,0.9,0.9,1.5v2.5c0,0.9-0.4,1.7-1.1,2.2
	C19.1,21.3,18.6,21.4,18.1,21.4z M5.5,5.1c-0.4,0-0.7,0.2-1,0.5c-0.1,0.2-0.3,0.5-0.1,1c0.7,2.2,2.3,6.2,4.8,8.6
	c2.4,2.4,6.4,4,8.6,4.8c0.4,0.2,0.8,0,1-0.1c0.3-0.2,0.5-0.6,0.5-1v-2.5c0-0.1,0-0.2-0.1-0.2l-2.2-1.2c-0.1,0-0.2,0-0.2,0L14,16.1
	l-0.2,0c-0.1,0-2-0.4-3.6-2c-1.6-1.6-2-3.5-2-3.6l0-0.2l1.3-2.6c0-0.1,0-0.2,0-0.2L8.2,5.2c0-0.1-0.1-0.1-0.2-0.1H5.5z"/>
<rect x="14.1" y="6" transform="matrix(0.7071 -0.7071 0.7071 0.7071 0.2793 14.1745)" class="st0" width="6.4" height="1.5"/>
<rect x="16.5" y="3.6" transform="matrix(0.7071 -0.7071 0.7071 0.7071 0.2793 14.1745)" class="st0" width="1.5" height="6.4"/>
</svg>





