<?xml version="1.0" encoding="iso-8859-1"?>
<svg version="1.1" id="&#x56FE;&#x5C42;_1" xmlns="http://www.w3.org/2000/svg" xmlns:xlink="http://www.w3.org/1999/xlink" x="0px"
	 y="0px" viewBox="0 0 24 24" style="enable-background:new 0 0 24 24;" xml:space="preserve">
<path style="fill:#333333;" d="M19.5,21.75h-15c-1.241,0-2.25-1.01-2.25-2.25v-15c0-1.241,1.009-2.25,2.25-2.25h15
	c1.24,0,2.25,1.009,2.25,2.25v15C21.75,20.74,20.74,21.75,19.5,21.75z M4.5,3.75c-0.414,0-0.75,0.336-0.75,0.75v15
	c0,0.413,0.336,0.75,0.75,0.75h15c0.413,0,0.75-0.337,0.75-0.75v-15c0-0.414-0.337-0.75-0.75-0.75H4.5z"/>
<path style="fill:#333333;" d="M12,18.75c-3.446,0-6.25-2.804-6.25-6.25S8.554,6.25,12,6.25s6.25,2.804,6.25,6.25
	S15.446,18.75,12,18.75z M12,7.75c-2.619,0-4.75,2.131-4.75,4.75s2.131,4.75,4.75,4.75s4.75-2.131,4.75-4.75S14.619,7.75,12,7.75z"
	/>
<path style="fill:#333333;" d="M12,11.5L12,11.5c0.552,0,1,0.448,1,1l0,0c0,0.552-0.448,1-1,1l0,0c-0.552,0-1-0.448-1-1l0,0
	C11,11.948,11.448,11.5,12,11.5z"/>
<path style="fill:#333333;" d="M18,17L18,17c0.552,0,1,0.448,1,1l0,0c0,0.552-0.448,1-1,1l0,0c-0.552,0-1-0.448-1-1l0,0
	C17,17.448,17.448,17,18,17z"/>
<rect x="13.172" y="7.25" transform="matrix(0.7071 -0.7071 0.7071 0.7071 -0.9706 13.6569)" style="fill:#333333;" width="5.657" height="1.5"/>
</svg>






