<?xml version="1.0" encoding="iso-8859-1"?>
<svg version="1.1" id="&#x56FE;&#x5C42;_1" xmlns="http://www.w3.org/2000/svg" xmlns:xlink="http://www.w3.org/1999/xlink" x="0px"
	 y="0px" viewBox="0 0 24 24" style="enable-background:new 0 0 24 24;" xml:space="preserve">
<path style="fill:#333333;" d="M18.569,20.942c-0.278,0-0.56-0.046-0.835-0.139c-1.879-0.634-4.61-1.722-6.947-3.302l0.841-1.242
	c2.197,1.486,4.793,2.519,6.585,3.122c0.457,0.153,0.795-0.02,0.958-0.138c0.304-0.218,0.479-0.569,0.479-0.963v-2.536
	c0-0.091-0.049-0.175-0.127-0.218l-2.211-1.229c-0.072-0.039-0.16-0.042-0.234-0.005l-2.583,1.291l-0.249-0.048
	c-0.053-0.01-0.533-0.105-1.2-0.39l0.586-1.381c0.274,0.117,0.508,0.193,0.668,0.239l2.108-1.054
	c0.519-0.259,1.131-0.244,1.634,0.036l2.209,1.229c0.555,0.307,0.899,0.893,0.899,1.529v2.536c0,0.87-0.413,1.686-1.104,2.182
	C19.605,20.779,19.094,20.942,18.569,20.942z M6.544,13.159C5.066,10.885,4.04,8.287,3.44,6.508C3.172,5.713,3.296,4.871,3.78,4.196
	c0.496-0.691,1.312-1.104,2.182-1.104h2.536c0.635,0,1.222,0.345,1.53,0.9l1.223,2.204c0.28,0.504,0.293,1.114,0.035,1.631
	l-1.054,2.108c0.039,0.134,0.099,0.318,0.185,0.535l-1.393,0.557c-0.233-0.583-0.315-0.991-0.324-1.035l-0.048-0.25l1.292-2.585
	C9.982,7.084,9.98,6.997,9.94,6.925L8.717,4.721C8.673,4.642,8.589,4.593,8.498,4.593H5.962c-0.394,0-0.745,0.174-0.963,0.479
	C4.881,5.234,4.708,5.575,4.861,6.028c0.573,1.697,1.548,4.17,2.941,6.312L6.544,13.159z"/>
<rect x="0.686" y="11.25" transform="matrix(0.7071 -0.7071 0.7071 0.7071 -4.9706 12)" style="fill:#333333;" width="22.627" height="1.5"/>
</svg>






