<?xml version="1.0" encoding="iso-8859-1"?>
<svg version="1.1" id="&#x56FE;&#x5C42;_1" xmlns="http://www.w3.org/2000/svg" xmlns:xlink="http://www.w3.org/1999/xlink" x="0px"
	 y="0px" viewBox="0 0 24 24" style="enable-background:new 0 0 24 24;" xml:space="preserve">
<path style="fill:#333333;" d="M21.632,10.415l-1.484-0.223c0.113-0.755,0.076-1.514-0.109-2.257
	c-0.252-1.004-0.774-1.924-1.511-2.661s-1.657-1.259-2.661-1.511c-0.74-0.186-1.5-0.223-2.258-0.11l-0.221-1.483
	c0.952-0.143,1.91-0.095,2.844,0.139c1.267,0.318,2.428,0.977,3.356,1.905s1.588,2.09,1.905,3.357
	C21.728,8.506,21.773,9.463,21.632,10.415z"/>
<path style="fill:#333333;" d="M17.837,10.013l-1.484-0.222c0.107-0.713-0.124-1.415-0.634-1.925
	c-0.51-0.51-1.215-0.742-1.926-0.634l-0.221-1.483c1.17-0.176,2.371,0.221,3.207,1.057C17.616,7.643,18.012,8.841,17.837,10.013z"/>
<path style="fill:#333333;" d="M17.261,21.497c-0.277,0-0.559-0.046-0.834-0.139c-2.797-0.943-6.66-2.597-9.181-5.117
	c-2.518-2.518-4.173-6.382-5.117-9.18C1.861,6.267,1.985,5.424,2.469,4.75c0.496-0.69,1.312-1.103,2.182-1.103h2.537
	c0.635,0,1.221,0.345,1.53,0.9l1.223,2.204c0.281,0.505,0.293,1.116,0.035,1.632L8.923,10.49c0.14,0.477,0.551,1.615,1.505,2.569
	c0.953,0.952,2.086,1.36,2.563,1.499l2.106-1.054c0.518-0.258,1.129-0.245,1.633,0.036l2.21,1.229
	c0.555,0.309,0.899,0.895,0.899,1.529v2.537c0,0.87-0.412,1.687-1.104,2.183C18.297,21.334,17.784,21.497,17.261,21.497z
	 M4.651,5.147c-0.394,0-0.746,0.174-0.964,0.478C3.571,5.788,3.397,6.129,3.55,6.582c0.731,2.167,2.322,6.165,4.756,8.599
	c2.437,2.438,6.434,4.026,8.599,4.756c0.458,0.153,0.794-0.021,0.957-0.137c0.304-0.218,0.478-0.569,0.478-0.964v-2.537
	c0-0.091-0.049-0.175-0.129-0.219l-2.209-1.229c-0.074-0.039-0.161-0.04-0.233-0.005l-2.583,1.292l-0.25-0.048
	c-0.08-0.016-1.995-0.397-3.568-1.971c-1.573-1.574-1.961-3.491-1.977-3.572l-0.048-0.25l1.292-2.585
	c0.037-0.074,0.035-0.161-0.005-0.233L7.406,5.275C7.362,5.196,7.278,5.147,7.188,5.147H4.651z"/>
</svg>






