<?xml version="1.0" encoding="iso-8859-1"?>
<svg version="1.1" id="&#x56FE;&#x5C42;_1" xmlns="http://www.w3.org/2000/svg" xmlns:xlink="http://www.w3.org/1999/xlink" x="0px"
	 y="0px" viewBox="0 0 24 24" style="enable-background:new 0 0 24 24;" xml:space="preserve">
<path style="fill:#333333;" d="M18.57,20.943c-0.277,0-0.559-0.046-0.834-0.139c-2.798-0.945-6.662-2.6-9.18-5.118
	c-2.519-2.519-4.173-6.382-5.117-9.18c-0.268-0.794-0.144-1.636,0.34-2.311c0.496-0.691,1.312-1.104,2.183-1.104h2.536
	c0.635,0,1.222,0.345,1.53,0.9l1.223,2.204c0.28,0.504,0.293,1.114,0.035,1.631l-1.053,2.107c0.14,0.477,0.551,1.615,1.505,2.569
	c0.953,0.953,2.085,1.361,2.562,1.499l2.107-1.053c0.519-0.259,1.131-0.244,1.634,0.036l2.209,1.229
	c0.555,0.308,0.899,0.894,0.899,1.529v2.536c0,0.871-0.413,1.687-1.104,2.184C19.606,20.78,19.094,20.943,18.57,20.943z
	 M5.962,4.593c-0.395,0-0.746,0.174-0.964,0.479C4.881,5.234,4.708,5.575,4.86,6.027c0.731,2.166,2.321,6.163,4.757,8.599
	c2.435,2.436,6.433,4.025,8.6,4.757c0.447,0.153,0.792-0.02,0.955-0.137c0.304-0.219,0.479-0.57,0.479-0.965v-2.536
	c0-0.091-0.049-0.175-0.128-0.219l-2.21-1.229c-0.072-0.039-0.16-0.042-0.234-0.005l-2.583,1.291l-0.249-0.048
	c-0.081-0.016-1.995-0.396-3.568-1.971c-1.573-1.573-1.961-3.491-1.977-3.572l-0.048-0.25l1.292-2.585
	C9.982,7.084,9.98,6.997,9.94,6.925L8.717,4.721C8.673,4.642,8.589,4.593,8.498,4.593H5.962z"/>
</svg>






