<?xml version="1.0" encoding="iso-8859-1"?>
<svg version="1.1" id="&#x56FE;&#x5C42;_1" xmlns="http://www.w3.org/2000/svg" xmlns:xlink="http://www.w3.org/1999/xlink" x="0px"
	 y="0px" viewBox="0 0 24 24" style="enable-background:new 0 0 24 24;" xml:space="preserve">
<path style="fill:#333333;" d="M19,22.75H5c-0.965,0-1.75-0.785-1.75-1.75v-6.75h17.5V21C20.75,21.965,19.965,22.75,19,22.75z
	 M4.75,15.75V21c0,0.138,0.112,0.25,0.25,0.25h14c0.138,0,0.25-0.112,0.25-0.25v-5.25H4.75z"/>
<path style="fill:#333333;" d="M20.75,15h-1.5V3c0-0.138-0.112-0.25-0.25-0.25H5C4.862,2.75,4.75,2.862,4.75,3v12h-1.5V3
	c0-0.965,0.785-1.75,1.75-1.75h14c0.965,0,1.75,0.785,1.75,1.75V15z"/>
<rect x="11" y="17.75" style="fill:#333333;" width="2" height="1.5"/>
</svg>






