<?xml version="1.0" encoding="iso-8859-1"?>
<svg version="1.1" id="&#x56FE;&#x5C42;_1" xmlns="http://www.w3.org/2000/svg" xmlns:xlink="http://www.w3.org/1999/xlink" x="0px"
	 y="0px" viewBox="0 0 24 24" style="enable-background:new 0 0 24 24;" xml:space="preserve">
<path style="fill:#333333;" d="M17.261,21.997c-0.277,0-0.559-0.046-0.834-0.139c-2.799-0.945-6.663-2.6-9.181-5.117
	c-2.519-2.52-4.173-6.383-5.117-9.18C1.861,6.767,1.985,5.925,2.469,5.25C2.965,4.56,3.781,4.147,4.651,4.147h2.537
	c0.635,0,1.221,0.345,1.53,0.9l1.223,2.204c0.28,0.505,0.293,1.115,0.036,1.631L8.923,10.99c0.14,0.478,0.551,1.615,1.505,2.57
	c0.953,0.952,2.085,1.36,2.563,1.499l2.106-1.054c0.518-0.258,1.129-0.247,1.633,0.036l2.21,1.229
	c0.555,0.309,0.899,0.895,0.899,1.529v2.537c0,0.87-0.412,1.687-1.104,2.183C18.297,21.834,17.784,21.997,17.261,21.997z
	 M4.651,5.647c-0.394,0-0.746,0.174-0.963,0.479C3.571,6.288,3.397,6.629,3.55,7.082c0.731,2.166,2.32,6.163,4.756,8.599
	c2.434,2.434,6.433,4.024,8.6,4.756c0.453,0.153,0.793-0.021,0.956-0.137c0.304-0.218,0.478-0.569,0.478-0.964v-2.537
	c0-0.091-0.049-0.175-0.129-0.219l-2.209-1.229c-0.074-0.04-0.161-0.041-0.233-0.005l-2.583,1.292l-0.25-0.048
	c-0.08-0.016-1.994-0.397-3.568-1.971s-1.961-3.492-1.977-3.573l-0.048-0.25l1.292-2.584c0.037-0.073,0.035-0.161-0.005-0.233
	L7.406,5.775C7.362,5.696,7.278,5.647,7.188,5.647H4.651z"/>
<path style="fill:#333333;" d="M20.25,8.25h-7.5v-6.5h7.5v1.142l2.5-1v6.216l-2.5-1V8.25z M14.25,6.75h4.5v-3.5h-4.5V6.75z M19.02,5
	l2.23,0.892V4.108L19.02,5z"/>
</svg>






