<?xml version="1.0" encoding="iso-8859-1"?>
<svg version="1.1" id="&#x56FE;&#x5C42;_1" xmlns="http://www.w3.org/2000/svg" xmlns:xlink="http://www.w3.org/1999/xlink" x="0px"
	 y="0px" viewBox="0 0 24 24" style="enable-background:new 0 0 24 24;" xml:space="preserve">
<path style="fill:#333333;" d="M17.761,21.997c-0.277,0-0.559-0.046-0.834-0.139c-2.799-0.945-6.663-2.6-9.181-5.117
	c-2.518-2.518-4.173-6.382-5.117-9.18C2.361,6.767,2.485,5.924,2.969,5.25c0.496-0.69,1.312-1.103,2.182-1.103h2.537
	c0.635,0,1.221,0.345,1.53,0.9l1.223,2.204c0.281,0.505,0.293,1.116,0.035,1.632L9.423,10.99c0.14,0.477,0.551,1.615,1.505,2.569
	c0.953,0.952,2.086,1.36,2.563,1.499l2.106-1.054c0.518-0.258,1.128-0.247,1.633,0.036l2.21,1.229
	c0.555,0.309,0.899,0.895,0.899,1.529v2.537c0,0.87-0.412,1.687-1.104,2.183C18.797,21.834,18.284,21.997,17.761,21.997z
	 M5.151,5.647c-0.394,0-0.746,0.174-0.964,0.478C4.071,6.288,3.897,6.629,4.05,7.082c0.731,2.167,2.322,6.165,4.756,8.599
	c2.434,2.434,6.433,4.024,8.6,4.756c0.453,0.153,0.793-0.021,0.956-0.137c0.304-0.218,0.478-0.569,0.478-0.964v-2.537
	c0-0.091-0.049-0.175-0.129-0.219l-2.209-1.229c-0.074-0.04-0.161-0.041-0.233-0.005l-2.583,1.292l-0.25-0.048
	c-0.08-0.016-1.995-0.397-3.568-1.971c-1.573-1.574-1.961-3.491-1.977-3.572l-0.048-0.25l1.292-2.585
	c0.037-0.074,0.035-0.161-0.005-0.233L7.906,5.775C7.862,5.696,7.778,5.647,7.688,5.647H5.151z"/>
<rect x="13.241" y="6.125" transform="matrix(0.721 -0.693 0.693 0.721 0.1886 14.2185)" style="fill:#333333;" width="9.017" height="1.499"/>
<polygon style="fill:#333333;" points="21,10.75 13.75,10.75 13.75,3.5 15.25,3.5 15.25,9.25 21,9.25 "/>
</svg>






