<?xml version="1.0" encoding="iso-8859-1"?>
<svg version="1.1" id="&#x56FE;&#x5C42;_1" xmlns="http://www.w3.org/2000/svg" xmlns:xlink="http://www.w3.org/1999/xlink" x="0px"
	 y="0px" viewBox="0 0 24 24" style="enable-background:new 0 0 24 24;" xml:space="preserve">
<path style="fill:#333333;" d="M12,22.75C6.072,22.75,1.25,17.928,1.25,12S6.072,1.25,12,1.25S22.75,6.072,22.75,12
	S17.928,22.75,12,22.75z M12,2.75c-5.101,0-9.25,4.149-9.25,9.25s4.149,9.25,9.25,9.25s9.25-4.149,9.25-9.25S17.101,2.75,12,2.75z"
	/>
<polygon style="fill:#333333;" points="16.027,21.082 8.584,15.034 5.061,18.998 3.939,18.002 8.416,12.966 16.973,19.918 "/>
<path style="fill:#333333;" d="M9,11.25c-1.517,0-2.75-1.233-2.75-2.75S7.483,5.75,9,5.75s2.75,1.233,2.75,2.75
	S10.517,11.25,9,11.25z M9,7.25c-0.689,0-1.25,0.561-1.25,1.25S8.311,9.75,9,9.75s1.25-0.561,1.25-1.25S9.689,7.25,9,7.25z"/>
<polygon style="fill:#333333;" points="12.586,16.969 11.415,16.031 15.883,10.446 21.469,14.914 20.531,16.086 16.117,12.554 "/>
</svg>






