<?xml version="1.0" encoding="iso-8859-1"?>
<svg version="1.1" id="&#x56FE;&#x5C42;_1" xmlns="http://www.w3.org/2000/svg" xmlns:xlink="http://www.w3.org/1999/xlink" x="0px"
	 y="0px" viewBox="0 0 24 24" style="enable-background:new 0 0 24 24;" xml:space="preserve">
<path style="fill:#333333;" d="M20.5,20.75h-17c-0.965,0-1.75-0.785-1.75-1.75V5c0-0.965,0.785-1.75,1.75-1.75h17
	c0.965,0,1.75,0.785,1.75,1.75v14C22.25,19.965,21.465,20.75,20.5,20.75z M3.5,4.75C3.362,4.75,3.25,4.862,3.25,5v14
	c0,0.138,0.112,0.25,0.25,0.25h17c0.138,0,0.25-0.112,0.25-0.25V5c0-0.138-0.112-0.25-0.25-0.25H3.5z"/>
<path style="fill:#333333;" d="M7.25,9.75c-0.827,0-1.5-0.673-1.5-1.5s0.673-1.5,1.5-1.5s1.5,0.673,1.5,1.5S8.077,9.75,7.25,9.75z
	 M7.251,8.25c0,0-0.001,0-0.001,0l0,0.75L7.251,8.25z"/>
<path style="fill:#333333;" d="M20.5,20.75h-17c-0.965,0-1.75-0.785-1.75-1.75v-2.311l5.694-5.694l2.458,1.967l2.99-3.489
	l9.357,7.156V19C22.25,19.965,21.465,20.75,20.5,20.75z M3.25,17.311V19c0,0.138,0.112,0.25,0.25,0.25h17
	c0.138,0,0.25-0.112,0.25-0.25v-1.629l-7.643-5.844l-3.01,3.511l-2.542-2.033L3.25,17.311z"/>
</svg>






