<?xml version="1.0" encoding="iso-8859-1"?>
<svg version="1.1" id="&#x56FE;&#x5C42;_1" xmlns="http://www.w3.org/2000/svg" xmlns:xlink="http://www.w3.org/1999/xlink" x="0px"
	 y="0px" viewBox="0 0 24 24" style="enable-background:new 0 0 24 24;" xml:space="preserve">
<path style="fill:#333333;" d="M19.5,21.75h-15c-1.241,0-2.25-1.01-2.25-2.25v-15c0-1.241,1.009-2.25,2.25-2.25h15
	c1.24,0,2.25,1.009,2.25,2.25v15C21.75,20.74,20.74,21.75,19.5,21.75z M4.5,3.75c-0.414,0-0.75,0.336-0.75,0.75v15
	c0,0.413,0.336,0.75,0.75,0.75h15c0.413,0,0.75-0.337,0.75-0.75v-15c0-0.414-0.337-0.75-0.75-0.75H4.5z"/>
<path style="fill:#333333;" d="M9,12.25c-1.792,0-3.25-1.458-3.25-3.25S7.208,5.75,9,5.75S12.25,7.208,12.25,9S10.792,12.25,9,12.25
	z M9,7.25C8.035,7.25,7.25,8.035,7.25,9S8.035,10.75,9,10.75S10.75,9.965,10.75,9S9.965,7.25,9,7.25z"/>
<path style="fill:#333333;" d="M19.084,21.75H8l-0.601-1.199l5.896-7.891c0.329-0.44,0.851-0.702,1.4-0.702c0.01,0,0.019,0,0.027,0
	c0.562,0.009,1.088,0.289,1.409,0.749l4.388,6.292c0.374,0.537,0.418,1.23,0.115,1.811S19.738,21.75,19.084,21.75z M9.497,20.25
	h9.587c0.132,0,0.195-0.084,0.222-0.135c0.026-0.05,0.059-0.15-0.017-0.259l-4.388-6.291c-0.064-0.093-0.159-0.093-0.206-0.107
	c-0.048,0-0.135,0.014-0.198,0.1l-0.001,0.001L9.497,20.25z"/>
</svg>






