<?xml version="1.0" encoding="iso-8859-1"?>
<svg version="1.1" id="&#x56FE;&#x5C42;_1" xmlns="http://www.w3.org/2000/svg" xmlns:xlink="http://www.w3.org/1999/xlink" x="0px"
	 y="0px" viewBox="0 0 24 24" style="enable-background:new 0 0 24 24;" xml:space="preserve">
<path style="fill:#333333;" d="M17,18.75H4c-0.965,0-1.75-0.785-1.75-1.75V4c0-0.965,0.785-1.75,1.75-1.75h13
	c0.965,0,1.75,0.785,1.75,1.75v13C18.75,17.965,17.965,18.75,17,18.75z M4,3.75C3.862,3.75,3.75,3.862,3.75,4v13
	c0,0.138,0.112,0.25,0.25,0.25h13c0.138,0,0.25-0.112,0.25-0.25V4c0-0.138-0.112-0.25-0.25-0.25H4z"/>
<path style="fill:#333333;" d="M19.5,21.75H6v-1.5h13.5c0.413,0,0.75-0.337,0.75-0.75V6h1.5v13.5
	C21.75,20.74,20.74,21.75,19.5,21.75z"/>
<path style="fill:#333333;" d="M12.495,14.055L7.661,9.66C7.566,9.573,7.423,9.572,7.326,9.658l-3.828,3.403l-0.996-1.121
	L6.33,8.537C7,7.94,8.006,7.946,8.67,8.55l4.835,4.396L12.495,14.055z"/>
<path style="fill:#333333;" d="M17.55,12.6l-3.367-2.525c-0.096-0.072-0.223-0.066-0.31,0.008l-2.393,1.994l-0.96-1.152l2.392-1.994
	c0.626-0.522,1.519-0.544,2.171-0.056L18.45,11.4L17.55,12.6z"/>
<rect x="2.25" y="9.5" style="fill:#333333;" width="1.5" height="4"/>
<rect x="17.25" y="9.5" style="fill:#333333;" width="1.5" height="4"/>
</svg>






