<?xml version="1.0" encoding="iso-8859-1"?>
<svg version="1.1" id="&#x56FE;&#x5C42;_1" xmlns="http://www.w3.org/2000/svg" xmlns:xlink="http://www.w3.org/1999/xlink" x="0px"
	 y="0px" viewBox="0 0 24 24" style="enable-background:new 0 0 24 24;" xml:space="preserve">
<path style="fill:#333333;" d="M12,22.75C6.072,22.75,1.25,17.928,1.25,12S6.072,1.25,12,1.25S22.75,6.072,22.75,12
	S17.928,22.75,12,22.75z M12,2.75c-5.101,0-9.25,4.149-9.25,9.25s4.149,9.25,9.25,9.25s9.25-4.149,9.25-9.25S17.101,2.75,12,2.75z"
	/>
<path style="fill:#333333;" d="M19.323,19.906l-8.073-7.582V1.25H12c2.104,0,4.144,0.61,5.902,1.765
	c1.757,1.154,3.127,2.784,3.964,4.715c0.835,1.931,1.085,4.046,0.725,6.118c-0.362,2.071-1.314,3.977-2.754,5.51L19.323,19.906z
	 M12.75,11.675l6.484,6.089c0.965-1.211,1.61-2.64,1.878-4.174c0.312-1.783,0.096-3.603-0.623-5.265
	c-0.72-1.662-1.898-3.064-3.411-4.057c-1.303-0.856-2.785-1.364-4.328-1.489V11.675z"/>
</svg>






