<?xml version="1.0" encoding="iso-8859-1"?>
<svg version="1.1" id="&#x56FE;&#x5C42;_1" xmlns="http://www.w3.org/2000/svg" xmlns:xlink="http://www.w3.org/1999/xlink" x="0px"
	 y="0px" viewBox="0 0 24 24" style="enable-background:new 0 0 24 24;" xml:space="preserve">
<path style="fill:#333333;" d="M12,22.75C6.072,22.75,1.25,17.928,1.25,12S6.072,1.25,12,1.25S22.75,6.072,22.75,12
	S17.928,22.75,12,22.75z M12,2.75c-5.101,0-9.25,4.149-9.25,9.25s4.149,9.25,9.25,9.25s9.25-4.149,9.25-9.25S17.101,2.75,12,2.75z"
	/>
<path style="fill:#333333;" d="M22.75,12.75h-11.5V1.25H12c1.418,0,2.803,0.275,4.114,0.818c1.311,0.543,2.483,1.327,3.487,2.33
	c1.003,1.003,1.787,2.176,2.33,3.488S22.75,10.582,22.75,12V12.75z M12.75,11.25h8.47c-0.077-0.958-0.303-1.894-0.674-2.79
	c-0.468-1.128-1.142-2.138-2.005-3.001c-0.864-0.863-1.873-1.538-3.001-2.005c-0.896-0.371-1.832-0.597-2.79-0.674V11.25z"/>
</svg>






