<?xml version="1.0" encoding="iso-8859-1"?>
<svg version="1.1" id="&#x56FE;&#x5C42;_1" xmlns="http://www.w3.org/2000/svg" xmlns:xlink="http://www.w3.org/1999/xlink" x="0px"
	 y="0px" viewBox="0 0 24 24" style="enable-background:new 0 0 24 24;" xml:space="preserve">
<path style="fill:#333333;" d="M12,22.75C6.072,22.75,1.25,17.928,1.25,12S6.072,1.25,12,1.25S22.75,6.072,22.75,12
	S17.928,22.75,12,22.75z M12,2.75c-5.101,0-9.25,4.149-9.25,9.25s4.149,9.25,9.25,9.25s9.25-4.149,9.25-9.25S17.101,2.75,12,2.75z"
	/>
<path style="fill:#333333;" d="M12.514,12.547L11.25,12V1.25H12c1.478,0,2.914,0.297,4.27,0.884
	c1.355,0.587,2.556,1.431,3.567,2.507l0.514,0.547L12.514,12.547z M12.75,2.78v7.487l5.458-5.125
	c-0.749-0.679-1.599-1.227-2.534-1.631S13.758,2.861,12.75,2.78z"/>
</svg>






