<?xml version="1.0" encoding="iso-8859-1"?>
<svg version="1.1" id="&#x56FE;&#x5C42;_1" xmlns="http://www.w3.org/2000/svg" xmlns:xlink="http://www.w3.org/1999/xlink" x="0px"
	 y="0px" viewBox="0 0 24 24" style="enable-background:new 0 0 24 24;" xml:space="preserve">
<path style="fill:#333333;" d="M12,22.75C6.072,22.75,1.25,17.928,1.25,12S6.072,1.25,12,1.25S22.75,6.072,22.75,12
	S17.928,22.75,12,22.75z M12,2.75c-5.101,0-9.25,4.149-9.25,9.25s4.149,9.25,9.25,9.25s9.25-4.149,9.25-9.25S17.101,2.75,12,2.75z"
	/>
<path style="fill:#333333;" d="M11.995,22.748c-0.98,0-1.96-0.133-2.913-0.401c-2.373-0.67-4.46-2.149-5.877-4.165
	c-1.417-2.018-2.102-4.482-1.928-6.941c0.174-2.459,1.2-4.803,2.887-6.6l0.514-0.546l6.573,6.172V1.25H12
	c2.466,0,4.876,0.857,6.787,2.414c1.912,1.556,3.24,3.743,3.739,6.157c0.5,2.413,0.149,4.947-0.987,7.135
	c-1.136,2.188-3.008,3.932-5.27,4.911C14.915,22.452,13.456,22.748,11.995,22.748z M4.766,6.236
	c-1.159,1.457-1.861,3.245-1.993,5.111c-0.15,2.115,0.439,4.236,1.659,5.971c1.219,1.735,3.016,3.009,5.057,3.585
	c2.042,0.575,4.238,0.428,6.185-0.414c1.946-0.843,3.557-2.344,4.535-4.226c0.978-1.882,1.279-4.062,0.849-6.139
	c-0.43-2.077-1.572-3.958-3.218-5.298c-1.45-1.181-3.234-1.894-5.09-2.046V12l-1.263,0.547L4.766,6.236z"/>
</svg>






