<?xml version="1.0" encoding="iso-8859-1"?>
<svg version="1.1" id="&#x56FE;&#x5C42;_1" xmlns="http://www.w3.org/2000/svg" xmlns:xlink="http://www.w3.org/1999/xlink" x="0px"
	 y="0px" viewBox="0 0 24 24" style="enable-background:new 0 0 24 24;" xml:space="preserve">
<path style="fill:#333333;" d="M12,22.75C6.072,22.75,1.25,17.928,1.25,12S6.072,1.25,12,1.25S22.75,6.072,22.75,12
	S17.928,22.75,12,22.75z M12,2.75c-5.101,0-9.25,4.149-9.25,9.25s4.149,9.25,9.25,9.25s9.25-4.149,9.25-9.25S17.101,2.75,12,2.75z"
	/>
<path style="fill:#333333;" d="M12.001,22.749c-0.956,0-1.913-0.127-2.838-0.38c-1.685-0.462-3.249-1.337-4.521-2.532l-0.547-0.514
	l7.155-7.62V1.25H12c1.746,0,3.486,0.432,5.03,1.249c1.544,0.818,2.879,2.014,3.86,3.458c0.982,1.446,1.603,3.127,1.794,4.863
	c0.191,1.737-0.047,3.513-0.689,5.137c-0.643,1.623-1.686,3.081-3.014,4.217c-1.33,1.135-2.933,1.936-4.637,2.316
	C13.576,22.663,12.789,22.749,12.001,22.749z M6.236,19.234c0.979,0.778,2.115,1.357,3.324,1.688
	c1.45,0.397,2.992,0.433,4.458,0.105c1.467-0.328,2.846-1.017,3.989-1.993s2.04-2.231,2.594-3.629
	c0.553-1.396,0.758-2.926,0.594-4.42c-0.165-1.493-0.699-2.94-1.544-4.185c-0.845-1.243-1.993-2.272-3.322-2.976
	c-1.107-0.586-2.331-0.941-3.578-1.044v9.516L6.236,19.234z"/>
</svg>






