<?xml version="1.0" encoding="iso-8859-1"?>
<svg version="1.1" id="&#x56FE;&#x5C42;_1" xmlns="http://www.w3.org/2000/svg" xmlns:xlink="http://www.w3.org/1999/xlink" x="0px"
	 y="0px" viewBox="0 0 24 24" style="enable-background:new 0 0 24 24;" xml:space="preserve">
<path style="fill:#333333;" d="M12,22.75C6.072,22.75,1.25,17.928,1.25,12S6.072,1.25,12,1.25S22.75,6.072,22.75,12
	S17.928,22.75,12,22.75z M12,2.75c-5.101,0-9.25,4.149-9.25,9.25s4.149,9.25,9.25,9.25s9.25-4.149,9.25-9.25S17.101,2.75,12,2.75z"
	/>
<path style="fill:#333333;" d="M12,22.75h-0.75V1.25H12c1.418,0,2.803,0.275,4.114,0.818c1.311,0.543,2.483,1.327,3.487,2.33
	c1.003,1.003,1.787,2.176,2.33,3.488S22.75,10.582,22.75,12c0,1.418-0.275,2.802-0.817,4.113c-0.544,1.312-1.328,2.485-2.331,3.488
	s-2.176,1.787-3.487,2.33C14.802,22.475,13.418,22.75,12,22.75z M12.75,2.78V21.22c0.958-0.077,1.894-0.303,2.791-0.674
	c1.128-0.468,2.137-1.143,3-2.005c0.862-0.863,1.537-1.872,2.006-3.001c0.467-1.129,0.703-2.32,0.703-3.54
	c0-1.221-0.236-2.412-0.704-3.54s-1.142-2.138-2.005-3.001c-0.864-0.863-1.873-1.538-3.001-2.005
	C14.644,3.083,13.708,2.857,12.75,2.78z"/>
</svg>






