<?xml version="1.0" encoding="iso-8859-1"?>
<svg version="1.1" id="&#x56FE;&#x5C42;_1" xmlns="http://www.w3.org/2000/svg" xmlns:xlink="http://www.w3.org/1999/xlink" x="0px"
	 y="0px" viewBox="0 0 24 24" style="enable-background:new 0 0 24 24;" xml:space="preserve">
<path style="fill:#333333;" d="M4.853,19.879c-1.013-1.733-1.809-3.876-2.39-5.441c-0.261-0.702-0.487-1.309-0.633-1.603
	c-1.238-3.277,0.714-6.148,2.327-7.1l0.973-3.032l0.856,0.724c0.769,0.65,1.36,2.146,1.626,2.986l3.14,1.046v4.389l-0.266,0.224
	c-0.463,0.393-2.552,1.829-3.795,2.153l-0.379-1.451c0.727-0.189,2.227-1.121,2.939-1.642V8.541L6.374,7.582L6.273,7.185
	c-0.112-0.443-0.312-0.986-0.536-1.47l-0.35,1.091L5.081,6.942c-0.944,0.42-2.889,2.611-1.878,5.293
	c0.151,0.295,0.378,0.906,0.666,1.681c0.562,1.513,1.332,3.585,2.279,5.205L4.853,19.879z"/>
<path style="fill:#333333;" d="M17.25,19.5h-1.5c0-1.405,0.287-3.104,1.094-3.66c1.815-1.251,1.98-4.119,1.889-4.536
	c-0.21-1.336-0.787-2.334-1.724-3.012c-1.46-1.056-3.546-1.171-4.887-0.95l-0.245-1.479c1.706-0.283,4.178-0.111,6.01,1.214
	c1.273,0.92,2.053,2.25,2.318,3.95c0.161,0.727-0.045,4.349-2.511,6.047C17.561,17.219,17.25,18.132,17.25,19.5z"/>
<path style="fill:#333333;" d="M13.75,20h-1.5c0-0.689-0.561-1.25-1.25-1.25S9.75,19.311,9.75,20h-1.5c0-1.517,1.233-2.75,2.75-2.75
	S13.75,18.483,13.75,20z"/>
<path style="fill:#333333;" d="M20.542,13.268c-0.114,0-0.229-0.009-0.345-0.026c-0.612-0.096-1.137-0.442-1.368-0.906l1.342-0.67
	c-0.007-0.013-0.012-0.02-0.013-0.02c0.025,0.03,0.156,0.115,0.354,0.123c0.216,0.006,0.403-0.073,0.565-0.24
	c0.098-0.101,0.257-0.475,0.209-0.832c-0.032-0.245-0.149-0.42-0.37-0.551l0.766-1.29c0.611,0.363,1,0.947,1.092,1.644
	c0.099,0.745-0.157,1.598-0.622,2.075C21.713,13.024,21.14,13.268,20.542,13.268z"/>
</svg>






