<?xml version="1.0" encoding="iso-8859-1"?>
<svg version="1.1" id="&#x56FE;&#x5C42;_1" xmlns="http://www.w3.org/2000/svg" xmlns:xlink="http://www.w3.org/1999/xlink" x="0px"
	 y="0px" viewBox="0 0 24 24" style="enable-background:new 0 0 24 24;" xml:space="preserve">
<path style="fill:#333333;" d="M11.976,21.25c-4.825,0-8.75-3.918-8.75-8.734c0-0.95,0.15-1.878,0.448-2.767
	c-0.322-0.206-0.62-0.443-0.878-0.701C1.856,8.111,1.25,6.716,1.25,5.494C1.25,4.68,1.51,3.99,2.001,3.5
	c1.363-1.359,4.056-0.704,5.555,0.792l0,0c0.144,0.143,0.28,0.297,0.408,0.46c2.482-1.279,5.581-1.271,8.057,0.018
	c0.132-0.17,0.272-0.329,0.421-0.478c1.499-1.496,4.192-2.152,5.556-0.792C22.49,3.99,22.75,4.68,22.75,5.494
	c0,1.222-0.606,2.617-1.546,3.554c-0.269,0.269-0.58,0.515-0.917,0.727c0.292,0.881,0.439,1.8,0.439,2.742
	C20.727,17.332,16.801,21.25,11.976,21.25z M3.989,4.254c-0.387,0-0.718,0.097-0.928,0.307C2.804,4.818,2.75,5.21,2.75,5.494
	c0,0.832,0.444,1.833,1.104,2.492C4.15,8.28,4.521,8.539,4.926,8.732l0.647,0.309l-0.28,0.66c-0.377,0.891-0.568,1.838-0.568,2.814
	c0,3.989,3.252,7.234,7.25,7.234s7.251-3.245,7.251-7.234c0-0.97-0.188-1.911-0.562-2.797l-0.28-0.666l0.655-0.305
	c0.419-0.195,0.801-0.459,1.104-0.763c0.661-0.66,1.105-1.661,1.105-2.493c0-0.283-0.054-0.675-0.312-0.932
	c-0.641-0.64-2.408-0.233-3.436,0.792c-0.226,0.226-0.428,0.492-0.601,0.79l-0.392,0.675l-0.658-0.417
	c-2.307-1.458-5.41-1.466-7.721-0.021L7.477,6.79l-0.39-0.667c-0.17-0.291-0.368-0.549-0.589-0.77l0,0
	C5.806,4.664,4.782,4.254,3.989,4.254z"/>
<path style="fill:#333333;" d="M12,18.75c-2.619,0-4.75-1.906-4.75-4.25s2.131-4.25,4.75-4.25s4.75,1.906,4.75,4.25
	S14.619,18.75,12,18.75z M12,11.75c-1.792,0-3.25,1.233-3.25,2.75s1.458,2.75,3.25,2.75s3.25-1.233,3.25-2.75S13.792,11.75,12,11.75
	z"/>
<circle style="fill:#333333;" cx="8.5" cy="9" r="1"/>
<circle style="fill:#333333;" cx="10.5" cy="14.5" r="1"/>
<circle style="fill:#333333;" cx="15.5" cy="9" r="1"/>
<circle style="fill:#333333;" cx="13.5" cy="14.5" r="1"/>
</svg>






