<?xml version="1.0" encoding="iso-8859-1"?>
<svg version="1.1" id="&#x56FE;&#x5C42;_1" xmlns="http://www.w3.org/2000/svg" xmlns:xlink="http://www.w3.org/1999/xlink" x="0px"
	 y="0px" viewBox="0 0 24 24" style="enable-background:new 0 0 24 24;" xml:space="preserve">
<path style="fill:#333333;" d="M6.351,13.376c-0.501-0.865-1.399-3.183,1.092-5.995c0.689-0.652,1.564-1.476,3.157-1.92
	c0.487-0.237,1.075-0.621,1.237-1.147c0.12-0.388,0.011-0.87-0.321-1.432l1.044-1.017c0.999,0.626,2.69,2.701,2.69,6.502h-1.5
	c0-1.388-0.259-2.477-0.599-3.298c-0.326,0.718-0.987,1.315-1.97,1.777l-0.125,0.045C9.785,7.233,9.112,7.865,8.519,8.423
	c-1.731,1.958-1.291,3.475-0.871,4.201L6.351,13.376z"/>
<path style="fill:#333333;" d="M19.578,22.25c-0.099,0-0.198-0.005-0.299-0.016c-0.139,0.026-1.209-0.113-1.611-2.133
	c-0.439,0.024-1.592,0.247-4.086,1.564c-1.451,0.692-4.7,1.263-6.811-1.412C5.868,18.968,3.751,17.627,2,17.627H1.135l0.123-0.856
	c0.182-1.269,0.96-3.038,2.553-3.85c0.76-0.388,1.958-0.667,3.599-0.091c0.343-1.56,1.886-3.554,6.139-4.687
	c0.602-0.172,2.445-1.221,3.586-3.934l1.432,0.172c0.459,2.876,0.424,9.027-2.928,11.98c0.13,0.071,0.372,0.173,0.81,0.266
	c-0.04-0.013,1.128-0.194,3.611-3.146l0.101-0.099c0.466-0.382,1.029-0.457,1.503-0.204c0.96,0.508,1.267,2.118,0.994,5.219
	c-0.026,0.358-0.226,2.244-1.44,3.258C20.748,22.048,20.186,22.25,19.578,22.25z M2.938,16.211c2.036,0.354,4.071,1.771,5.037,3.147
	c1.498,1.898,3.886,1.467,4.935,0.967c2.628-1.389,4.467-1.95,5.43-1.647c0.385,0.119,0.572,0.35,0.662,0.521l0.079,0.251
	c0.116,0.88,0.341,1.206,0.423,1.298c0.318,0.024,0.547-0.07,0.753-0.243c0.542-0.452,0.85-1.471,0.906-2.227
	c0.205-2.339-0.002-3.273-0.137-3.615c-2.022,2.354-3.829,3.645-4.871,3.437c-0.453-0.096-1.788-0.378-2.069-1.372
	c-0.135-0.479,0.021-0.988,0.418-1.364c2.159-1.798,2.814-5.417,2.775-8.376c-1.19,1.605-2.549,2.38-3.33,2.603
	c-4.676,1.245-5.259,3.461-5.09,4.21l-1.082,0.828c-1.308-0.688-2.412-0.814-3.285-0.37C3.742,14.64,3.215,15.436,2.938,16.211z
	 M19.358,20.738c0.025,0.002,0.05,0.004,0.074,0.006C19.411,20.74,19.386,20.738,19.358,20.738z"/>
<circle style="fill:#333333;" cx="6" cy="15.706" r="1"/>
</svg>






