<?xml version="1.0" encoding="iso-8859-1"?>
<svg version="1.1" id="&#x56FE;&#x5C42;_1" xmlns="http://www.w3.org/2000/svg" xmlns:xlink="http://www.w3.org/1999/xlink" x="0px"
	 y="0px" viewBox="0 0 24 24" style="enable-background:new 0 0 24 24;" xml:space="preserve">
<path style="fill:#333333;" d="M13.768,22.381c-0.576,0-1.152-0.22-1.591-0.658l-9.899-9.9c-0.425-0.425-0.659-0.99-0.659-1.591
	s0.234-1.167,0.659-1.591l6.364-6.364c0.877-0.877,2.304-0.876,3.182,0l9.899,9.9c0.877,0.877,0.877,2.305,0,3.182l-6.364,6.364
	C14.92,22.161,14.344,22.381,13.768,22.381z M10.232,3.118c-0.192,0-0.385,0.073-0.531,0.22L3.338,9.702
	c-0.142,0.142-0.22,0.33-0.22,0.53s0.078,0.389,0.22,0.53v0l9.899,9.9c0.283,0.283,0.777,0.283,1.061,0l6.364-6.364
	c0.142-0.142,0.22-0.33,0.22-0.53s-0.078-0.389-0.22-0.53l-9.899-9.9C10.617,3.191,10.424,3.118,10.232,3.118z"/>
<circle style="fill:#333333;" cx="7.404" cy="10.232" r="1"/>
<circle style="fill:#333333;" cx="11.646" cy="14.475" r="1"/>
<circle style="fill:#333333;" cx="9.525" cy="12.354" r="1"/>
<circle style="fill:#333333;" cx="13.768" cy="16.597" r="1"/>
<circle style="fill:#333333;" cx="10.232" cy="7.403" r="1"/>
<circle style="fill:#333333;" cx="14.475" cy="11.646" r="1"/>
<circle style="fill:#333333;" cx="12.354" cy="9.525" r="1"/>
<circle style="fill:#333333;" cx="16.596" cy="13.768" r="1"/>
</svg>






