<?xml version="1.0" encoding="iso-8859-1"?>
<svg version="1.1" id="&#x56FE;&#x5C42;_1" xmlns="http://www.w3.org/2000/svg" xmlns:xlink="http://www.w3.org/1999/xlink" x="0px"
	 y="0px" viewBox="0 0 24 24" style="enable-background:new 0 0 24 24;" xml:space="preserve">
<path style="fill:#333333;" d="M8.371,21.054c-0.177,0-0.354-0.008-0.533-0.023c-1.597-0.14-3.043-0.893-4.074-2.12
	c-1.03-1.229-1.521-2.784-1.38-4.381c0.14-1.597,0.893-3.042,2.121-4.073l7.277-6.106c1.227-1.03,2.779-1.521,4.38-1.381
	c1.596,0.14,3.043,0.893,4.072,2.121c1.03,1.228,1.521,2.783,1.382,4.379s-0.893,3.043-2.12,4.073l-7.278,6.106
	C11.127,20.564,9.778,21.054,8.371,21.054z M15.631,4.446c-1.055,0-2.067,0.367-2.885,1.053l-7.277,6.106
	c-0.921,0.772-1.485,1.857-1.59,3.054c-0.105,1.198,0.263,2.364,1.036,3.285c0.772,0.921,1.857,1.485,3.055,1.591
	c1.196,0.102,2.364-0.264,3.285-1.036l7.277-6.106c0.921-0.773,1.485-1.857,1.591-3.055c0.104-1.198-0.264-2.364-1.036-3.285
	s-1.857-1.485-3.055-1.59C15.897,4.452,15.764,4.446,15.631,4.446z"/>
<rect x="10.529" y="10.409" transform="matrix(0.7661 -0.6428 0.6428 0.7661 -5.4862 10.2066)" style="fill:#333333;" width="1.5" height="4.463"/>
</svg>






