<?xml version="1.0" encoding="iso-8859-1"?>
<svg version="1.1" id="&#x56FE;&#x5C42;_1" xmlns="http://www.w3.org/2000/svg" xmlns:xlink="http://www.w3.org/1999/xlink" x="0px"
	 y="0px" viewBox="0 0 24 24" style="enable-background:new 0 0 24 24;" xml:space="preserve">
<g>
	<defs>
		<rect id="SVGID_1_" width="24" height="24"/>
	</defs>
	<clipPath id="SVGID_00000115477542991145699420000005187208828497207967_">
		<use xlink:href="#SVGID_1_"  style="overflow:visible;"/>
	</clipPath>
	<g style="clip-path:url(#SVGID_00000115477542991145699420000005187208828497207967_);">
		<path style="fill:#333333;" d="M3.667,21.382l-1.05-1.048l5.616-7.636L4.288,8.752l0.53-0.53c0.977-0.978,2.643-1.854,5.108-0.668
			l5.567-3.086l-0.286-1.966l1.272-0.638l5.657,5.657L21.5,8.792l-1.963-0.281l-3.1,5.579c0.63,1.41,1.089,3.343-0.659,5.092
			l-0.53,0.53l-3.963-3.962L3.667,21.382z M11.432,13.775l3.756,3.756c0.499-0.828,0.404-1.772-0.267-3.141l-0.172-0.352l3.979-7.16
			l0.755,0.108l-2.467-2.466l0.109,0.756L9.941,9.26L9.578,9.062C8.092,8.246,7.124,8.416,6.467,8.811l3.738,3.737l-3.44,4.678
			L11.432,13.775z"/>
	</g>
</g>
</svg>






