<?xml version="1.0" encoding="iso-8859-1"?>
<svg version="1.1" id="&#x56FE;&#x5C42;_1" xmlns="http://www.w3.org/2000/svg" xmlns:xlink="http://www.w3.org/1999/xlink" x="0px"
	 y="0px" viewBox="0 0 24 24" style="enable-background:new 0 0 24 24;" xml:space="preserve">
<path style="fill:#333333;" d="M13.78,7.78L12.72,6.72c0.03-0.097,0.03-0.694,0.03-1.22c0-0.96-0.463-1.839-0.834-2.391
	C11.414,3.646,10.75,4.539,10.75,5.5c0,0.579,0,1.126,0.057,1.256L9.72,7.78C9.25,7.311,9.25,6.743,9.25,5.5
	c0-2.272,2.194-4.017,2.288-4.09l0.535-0.419l0.47,0.491c0.069,0.073,1.708,1.81,1.708,4.019C14.25,6.629,14.25,7.311,13.78,7.78z"
	/>
<path style="fill:#333333;" d="M7.807,8.788c-0.546-1.317-1.91-3.036-2.765-3.693l0.319-1.332c3.57-0.669,6.043,1.944,6.716,2.76
	l-1.157,0.954c-0.427-0.517-1.748-1.932-3.64-2.255c0.754,0.891,1.501,2.002,1.912,2.99L7.807,8.788z"/>
<path style="fill:#333333;" d="M15.66,8.355l-1.32-0.711c0.44-0.819,1.116-1.691,1.798-2.426c-1.899,0.325-3.146,1.727-3.546,2.242
	L11.408,6.54c0.643-0.827,3.027-3.471,6.731-2.777l0.318,1.332C17.74,5.646,16.354,7.065,15.66,8.355z"/>
<path style="fill:#333333;" d="M12,22.89c-2.152,0-4.304-0.43-5.45-1.29c-1.221-0.915-1.783-1.855-2.039-2.483
	c-0.274-0.67-0.278-1.354-0.26-1.997c0.061-2.09,0.495-5.927,2.718-8.149c0.311-0.311,0.61-0.592,0.896-0.845l0,0
	c2.396-2.119,5.873-2.12,8.269,0c0.285,0.252,0.584,0.533,0.896,0.844c2.223,2.223,2.657,6.055,2.718,8.141
	c0.019,0.619,0.016,1.338-0.264,2.016c-0.255,0.624-0.815,1.561-2.034,2.474C16.304,22.46,14.152,22.89,12,22.89z M8.86,9.249
	C8.596,9.482,8.319,9.742,8.031,10.03c-1.926,1.926-2.236,5.629-2.28,7.132C5.737,17.665,5.737,18.149,5.9,18.55
	c0.185,0.452,0.603,1.141,1.55,1.851c1.744,1.308,7.357,1.306,9.1,0c0.945-0.709,1.363-1.394,1.547-1.844
	c0.167-0.405,0.166-0.915,0.151-1.402c-0.043-1.501-0.353-5.198-2.278-7.124c-0.288-0.288-0.563-0.547-0.828-0.781
	C13.293,7.614,10.709,7.613,8.86,9.249L8.86,9.249z"/>
<rect x="4.823" y="11" transform="matrix(0.8857 -0.4643 0.4643 0.8857 -4.2267 6.3349)" style="fill:#333333;" width="11.853" height="1.5"/>
<rect x="12.5" y="5.823" transform="matrix(0.464 -0.8859 0.8859 0.464 -3.3063 18.0361)" style="fill:#333333;" width="1.5" height="11.853"/>
<rect x="10.75" y="10.054" transform="matrix(0.5039 -0.8638 0.8638 0.5039 -8.9788 18.3676)" style="fill:#333333;" width="1.499" height="13.892"/>
<rect x="5.554" y="16.25" transform="matrix(0.8636 -0.5041 0.5041 0.8636 -6.8654 8.6196)" style="fill:#333333;" width="13.892" height="1.499"/>
</svg>






