<?xml version="1.0" encoding="iso-8859-1"?>
<svg version="1.1" id="&#x56FE;&#x5C42;_1" xmlns="http://www.w3.org/2000/svg" xmlns:xlink="http://www.w3.org/1999/xlink" x="0px"
	 y="0px" viewBox="0 0 24 24" style="enable-background:new 0 0 24 24;" xml:space="preserve">
<rect x="2" y="11.25" style="fill:#333333;" width="20" height="1.5"/>
<path style="fill:#333333;" d="M5.64,20.891l-1.28-0.781C4.389,20.062,7.25,15.334,7.25,12S4.389,3.938,4.36,3.891l1.28-0.782
	C5.767,3.317,8.75,8.242,8.75,12S5.767,20.684,5.64,20.891z"/>
<path style="fill:#333333;" d="M18.357,20.887c-0.127-0.21-3.107-5.2-3.107-8.887c0-3.686,2.98-8.676,3.107-8.887l1.285,0.774
	C19.613,3.935,16.75,8.732,16.75,12c0,3.269,2.863,8.065,2.893,8.113L18.357,20.887z"/>
</svg>






