<?xml version="1.0" encoding="iso-8859-1"?>
<svg version="1.1" id="&#x56FE;&#x5C42;_1" xmlns="http://www.w3.org/2000/svg" xmlns:xlink="http://www.w3.org/1999/xlink" x="0px"
	 y="0px" viewBox="0 0 24 24" style="enable-background:new 0 0 24 24;" xml:space="preserve">
<path style="fill:#333333;" d="M21,22.75H3c-0.965,0-1.75-0.785-1.75-1.75l0-18c0-0.965,0.785-1.75,1.75-1.75h18
	c0.965,0,1.75,0.785,1.75,1.75v18C22.75,21.965,21.965,22.75,21,22.75z M3,2.75C2.862,2.75,2.75,2.862,2.75,3l0,18
	c0,0.138,0.112,0.25,0.25,0.25h18c0.138,0,0.25-0.112,0.25-0.25V3c0-0.138-0.112-0.25-0.25-0.25H3z"/>
<polygon style="fill:#333333;" points="17.5,17.754 10.004,17.754 10.004,16.254 16,16.254 16,10.004 17.5,10.004 "/>
<polygon style="fill:#333333;" points="11.72,19.78 8.939,17 11.72,14.22 12.78,15.28 11.061,17 12.78,18.72 "/>
<polygon style="fill:#333333;" points="18.47,12.78 16.75,11.061 15.03,12.78 13.97,11.72 16.75,8.939 19.53,11.72 "/>
<rect x="6.25" y="2" style="fill:#333333;" width="1.5" height="20"/>
<rect x="2" y="6.26" style="fill:#333333;" width="20" height="1.5"/>
<rect x="4" y="1.25" style="fill:#333333;" width="10" height="1.5"/>
<rect x="4" y="21.25" style="fill:#333333;" width="10" height="1.5"/>
<rect x="21.25" y="4" style="fill:#333333;" width="1.5" height="5"/>
<rect x="1.25" y="4" style="fill:#333333;" width="1.5" height="5"/>
</svg>






