<?xml version="1.0" encoding="iso-8859-1"?>
<svg version="1.1" id="&#x56FE;&#x5C42;_1" xmlns="http://www.w3.org/2000/svg" xmlns:xlink="http://www.w3.org/1999/xlink" x="0px"
	 y="0px" viewBox="0 0 24 24" style="enable-background:new 0 0 24 24;" xml:space="preserve">
<path style="fill:#333333;" d="M12,20.75c-4.825,0-8.75-3.925-8.75-8.75c0-4.825,3.925-8.75,8.75-8.75c4.825,0,8.75,3.925,8.75,8.75
	C20.75,16.825,16.825,20.75,12,20.75z M12,4.75c-3.998,0-7.25,3.252-7.25,7.25c0,3.998,3.252,7.25,7.25,7.25
	c3.998,0,7.25-3.252,7.25-7.25C19.25,8.002,15.998,4.75,12,4.75z"/>
<path style="fill:#333333;" d="M6.544,18.05c-0.483,0-0.948-0.019-1.391-0.058c-3.255-0.284-4.246-1.49-4.503-2.451
	c-0.381-1.421,0.665-3.039,2.943-4.558l0.832,1.248c-1.627,1.084-2.518,2.203-2.326,2.921c0.181,0.675,1.401,1.19,3.185,1.346
	c2.119,0.185,4.802-0.12,7.557-0.859c2.756-0.738,5.233-1.816,6.975-3.034c1.467-1.027,2.266-2.083,2.085-2.757
	c-0.181-0.674-1.4-1.189-3.184-1.345l0.131-1.494c3.253,0.284,4.244,1.489,4.502,2.451s0.003,2.501-2.675,4.375
	c-1.881,1.316-4.525,2.473-7.445,3.255C10.875,17.719,8.554,18.05,6.544,18.05z"/>
</svg>






