<?xml version="1.0" encoding="iso-8859-1"?>
<svg version="1.1" id="&#x56FE;&#x5C42;_1" xmlns="http://www.w3.org/2000/svg" xmlns:xlink="http://www.w3.org/1999/xlink" x="0px"
	 y="0px" viewBox="0 0 24 24" style="enable-background:new 0 0 24 24;" xml:space="preserve">
<path style="fill:#333333;" d="M20.5,22.25h-17c-0.965,0-1.75-0.785-1.75-1.75V8.75h20.5V20.5C22.25,21.465,21.465,22.25,20.5,22.25
	z M3.25,10.25V20.5c0,0.138,0.112,0.25,0.25,0.25h17c0.138,0,0.25-0.112,0.25-0.25V10.25H3.25z"/>
<path style="fill:#333333;" d="M22.25,10.25H1.75V5c0-0.965,0.785-1.75,1.75-1.75h17c0.965,0,1.75,0.785,1.75,1.75V10.25z
	 M3.25,8.75h17.5V5c0-0.138-0.112-0.25-0.25-0.25h-17C3.362,4.75,3.25,4.862,3.25,5V8.75z"/>
<polygon style="fill:#333333;" points="11,19.561 7.47,16.03 8.53,14.97 11,17.439 16.47,11.97 17.53,13.03 "/>
<rect x="7.25" y="2.5" style="fill:#333333;" width="1.5" height="4"/>
<rect x="15.25" y="2.5" style="fill:#333333;" width="1.5" height="4"/>
</svg>






