<?xml version="1.0" encoding="iso-8859-1"?>
<svg version="1.1" id="&#x56FE;&#x5C42;_1" xmlns="http://www.w3.org/2000/svg" xmlns:xlink="http://www.w3.org/1999/xlink" x="0px"
	 y="0px" viewBox="0 0 24 24" style="enable-background:new 0 0 24 24;" xml:space="preserve">
<path style="fill:#333333;" d="M15.937,22.504c-1.202-1.325-2.479-2.995-1.683-4.152l0.175-0.254l0.303-0.058
	c4.026-0.768,6.519-4.335,6.519-7.201c0-3.127-2.186-8.089-8.051-8.089c-3.864,0-6.034,1.658-6.632,5.069l-0.065,0.37L6.168,8.358
	c-1.5,0.762-2.375,1.239-2.886,1.535c0.684,0.422,1.611,1.185,1.137,2.387c-0.119,0.302-0.286,0.651-0.465,1.024
	c-0.467,0.971-1.173,2.438-0.752,3.026c0.258,0.359,0.92,0.446,1.687,0.546C5.824,17,6.884,17.139,7.767,17.839
	c1.104,0.877,1.935,2.202,2.468,3.941L8.801,22.22c-0.443-1.443-1.104-2.521-1.967-3.205c-0.558-0.443-1.362-0.548-2.14-0.65
	c-1.02-0.133-2.075-0.271-2.711-1.16c-0.939-1.31-0.075-3.106,0.619-4.55c0.162-0.337,0.314-0.651,0.422-0.924
	c0.073-0.186-0.269-0.421-0.844-0.741c-0.44-0.245-0.82-0.456-0.912-0.91L1.198,9.74l0.235-0.354
	C1.586,9.19,1.814,8.899,5.162,7.188C5.986,3.301,8.758,1.25,13.199,1.25c6.958,0,9.551,5.882,9.551,9.589
	c0,3.871-3.125,7.534-7.207,8.557c0.104,0.286,0.433,0.918,1.505,2.1L15.937,22.504z"/>
<path style="fill:#333333;" d="M14.035,20.097c-0.735-1.566-1.198-2.816-1.417-3.821c-0.233-1.08,0.461-1.763,1.019-2.312
	c0.512-0.503,0.954-0.938,0.954-1.686c0-0.486-0.545-0.76-1.703-1.227c-1.122-0.453-2.518-1.017-3.071-2.37
	c-0.66-1.615-0.671-3.758-0.037-6.552l1.463,0.332c-0.556,2.449-0.569,4.351-0.037,5.653c0.313,0.767,1.295,1.163,2.244,1.546
	c1.177,0.475,2.642,1.066,2.642,2.618c0,1.376-0.811,2.173-1.402,2.755c-0.514,0.506-0.655,0.688-0.604,0.925
	c0.19,0.88,0.631,2.059,1.308,3.502L14.035,20.097z"/>
<path style="fill:#333333;" d="M8.5,16.025l-0.007-1.5c0.008,0,0.862-0.041,1.447-0.647c0.383-0.396,0.569-0.846,0.569-1.378h1.5
	c0,0.927-0.333,1.741-0.99,2.421C9.964,16.013,8.515,16.025,8.5,16.025z"/>
</svg>






