<?xml version="1.0" encoding="iso-8859-1"?>
<svg version="1.1" id="&#x56FE;&#x5C42;_1" xmlns="http://www.w3.org/2000/svg" xmlns:xlink="http://www.w3.org/1999/xlink" x="0px"
	 y="0px" viewBox="0 0 24 24" style="enable-background:new 0 0 24 24;" xml:space="preserve">
<path style="fill:#333333;" d="M12,22.75C6.072,22.75,1.25,17.928,1.25,12S6.072,1.25,12,1.25S22.75,6.072,22.75,12
	c0,2.062-2.219,2.515-4.177,2.915c-1.174,0.239-2.506,0.511-3.012,1.082c-0.617,0.697-0.723,1.856-0.824,2.978
	C14.593,20.567,14.396,22.75,12,22.75z M12,2.75c-5.101,0-9.25,4.149-9.25,9.25s4.149,9.25,9.25,9.25
	c0.862,0,1.06-0.383,1.243-2.411c0.118-1.299,0.251-2.771,1.195-3.836c0.838-0.946,2.362-1.257,3.835-1.558
	c1.798-0.367,2.977-0.666,2.977-1.445C21.25,6.899,17.101,2.75,12,2.75z"/>
<path style="fill:#333333;" d="M14,9.25c-1.24,0-2.25-1.009-2.25-2.25S12.76,4.75,14,4.75S16.25,5.759,16.25,7S15.24,9.25,14,9.25z
	 M14,6.25c-0.413,0-0.75,0.336-0.75,0.75S13.587,7.75,14,7.75S14.75,7.414,14.75,7S14.413,6.25,14,6.25z"/>
<path style="fill:#333333;" d="M8,11.25c-1.241,0-2.25-1.009-2.25-2.25S6.759,6.75,8,6.75S10.25,7.759,10.25,9S9.241,11.25,8,11.25z
	 M8,8.25C7.586,8.25,7.25,8.586,7.25,9S7.586,9.75,8,9.75S8.75,9.414,8.75,9S8.414,8.25,8,8.25z"/>
<path style="fill:#333333;" d="M8.5,17.75c-1.241,0-2.25-1.01-2.25-2.25s1.009-2.25,2.25-2.25s2.25,1.01,2.25,2.25
	S9.741,17.75,8.5,17.75z M8.5,14.75c-0.414,0-0.75,0.337-0.75,0.75s0.336,0.75,0.75,0.75s0.75-0.337,0.75-0.75
	S8.914,14.75,8.5,14.75z"/>
</svg>






