<?xml version="1.0" encoding="iso-8859-1"?>
<svg version="1.1" id="&#x56FE;&#x5C42;_1" xmlns="http://www.w3.org/2000/svg" xmlns:xlink="http://www.w3.org/1999/xlink" x="0px"
	 y="0px" viewBox="0 0 24 24" style="enable-background:new 0 0 24 24;" xml:space="preserve">
<path style="fill:#333333;" d="M12,22.75C6.072,22.75,1.25,17.928,1.25,12S6.072,1.25,12,1.25S22.75,6.072,22.75,12h-1.5
	c0-5.101-4.149-9.25-9.25-9.25S2.75,6.899,2.75,12s4.149,9.25,9.25,9.25V22.75z"/>
<rect x="17.75" y="15.672" transform="matrix(0.7071 -0.7071 0.7071 0.7071 -7.663 18.5)" style="fill:#333333;" width="1.5" height="5.657"/>
<rect x="15.672" y="17.75" transform="matrix(0.7071 -0.7071 0.7071 0.7071 -7.663 18.5)" style="fill:#333333;" width="5.657" height="1.5"/>
<path style="fill:#333333;" d="M9.25,16.763V7.237L17.5,12L9.25,16.763z M10.75,9.835v4.33L14.5,12L10.75,9.835z"/>
</svg>






