<?xml version="1.0" encoding="iso-8859-1"?>
<svg version="1.1" id="&#x56FE;&#x5C42;_1" xmlns="http://www.w3.org/2000/svg" xmlns:xlink="http://www.w3.org/1999/xlink" x="0px"
	 y="0px" viewBox="0 0 24 24" style="enable-background:new 0 0 24 24;" xml:space="preserve">
<path style="fill:#333333;" d="M22.75,16.25H1.25V1.75h21.5V16.25z M2.75,14.75h18.5V3.25H2.75V14.75z"/>
<path style="fill:#333333;" d="M11.416,11.624L10.25,11V7l1.166-0.624L15.353,9L11.416,11.624z M11.75,8.401v1.197L12.647,9
	L11.75,8.401z"/>
<rect x="3" y="19.25" style="fill:#333333;" width="2.5" height="1.5"/>
<rect x="8.5" y="19.25" style="fill:#333333;" width="12.5" height="1.5"/>
<path style="fill:#333333;" d="M7,22.25c-1.241,0-2.25-1.01-2.25-2.25S5.759,17.75,7,17.75S9.25,18.76,9.25,20S8.241,22.25,7,22.25z
	 M7,19.25c-0.414,0-0.75,0.337-0.75,0.75S6.586,20.75,7,20.75S7.75,20.413,7.75,20S7.414,19.25,7,19.25z"/>
</svg>






