<?xml version="1.0" encoding="iso-8859-1"?>
<svg version="1.1" id="&#x56FE;&#x5C42;_1" xmlns="http://www.w3.org/2000/svg" xmlns:xlink="http://www.w3.org/1999/xlink" x="0px"
	 y="0px" viewBox="0 0 24 24" style="enable-background:new 0 0 24 24;" xml:space="preserve">
<path style="fill:#333333;" d="M2.75,12.5h-1.5c0-3.722,3.028-6.75,6.75-6.75h14v1.5H8C5.105,7.25,2.75,9.605,2.75,12.5z"/>
<polygon style="fill:#333333;" points="19.53,10.03 18.47,8.97 20.939,6.5 18.47,4.03 19.53,2.97 23.061,6.5 "/>
<path style="fill:#333333;" d="M16,18.25H2v-1.5h14c2.895,0,5.25-2.355,5.25-5.25h1.5C22.75,15.222,19.722,18.25,16,18.25z"/>
<polygon style="fill:#333333;" points="4.47,21.03 0.939,17.5 4.47,13.97 5.53,15.03 3.061,17.5 5.53,19.97 "/>
</svg>






