<?xml version="1.0" encoding="iso-8859-1"?>
<svg version="1.1" id="&#x56FE;&#x5C42;_1" xmlns="http://www.w3.org/2000/svg" xmlns:xlink="http://www.w3.org/1999/xlink" x="0px"
	 y="0px" viewBox="0 0 24 24" style="enable-background:new 0 0 24 24;" xml:space="preserve">
<path style="fill:#333333;" d="M16,8.75c-1.792,0-3.25-1.458-3.25-3.25S14.208,2.25,16,2.25s3.25,1.458,3.25,3.25
	S17.792,8.75,16,8.75z M16,3.75c-0.965,0-1.75,0.785-1.75,1.75S15.035,7.25,16,7.25s1.75-0.785,1.75-1.75S16.965,3.75,16,3.75z"/>
<path style="fill:#333333;" d="M11.685,20.727l-0.369-1.453l3.586-0.911l-3.886-3.29l-0.187-0.907l1.622-3.245l-4.41-1.584
	C7.605,9.179,7.255,8.863,7.054,8.445L4.84,4.357L6.16,3.643l2.23,4.12c0.046,0.094,0.094,0.138,0.159,0.161l5.206,1.87l0.417,1.042
	l-1.736,3.473l3.814,3.229c0.361,0.317,0.51,0.792,0.397,1.247c-0.111,0.454-0.463,0.804-0.915,0.913L11.685,20.727z M15.37,18.243
	c-0.001,0-0.003,0-0.004,0.001L15.37,18.243z"/>
<path style="fill:#333333;" d="M2.751,21.707l-0.502-1.414l5.13-1.82c0.002-0.001,0.033-0.026,0.062-0.061l3.471-4.378l1.176,0.932
	L8.603,19.36c-0.203,0.241-0.439,0.414-0.697,0.517L2.751,21.707z"/>
<path style="fill:#333333;" d="M20.363,15.896l-1.98-3.18c-0.028-0.045-0.083-0.084-0.146-0.103l-4.939-1.393l0.406-1.443
	l4.95,1.395c0.423,0.125,0.774,0.39,1,0.746l1.983,3.185L20.363,15.896z"/>
<path style="fill:#333333;" d="M9,4c0.828,0,1.5-0.672,1.5-1.5S9.828,1,9,1S7.5,1.672,7.5,2.5S8.172,4,9,4z"/>
</svg>






