<?xml version="1.0" encoding="iso-8859-1"?>
<svg version="1.1" id="&#x56FE;&#x5C42;_1" xmlns="http://www.w3.org/2000/svg" xmlns:xlink="http://www.w3.org/1999/xlink" x="0px"
	 y="0px" viewBox="0 0 24 24" style="enable-background:new 0 0 24 24;" xml:space="preserve">
<path style="fill:#333333;" d="M15,19.25H8c-3.722,0-6.75-3.028-6.75-6.75c0-3.722,3.028-6.75,6.75-6.75h14v1.5H8
	c-2.895,0-5.25,2.355-5.25,5.25c0,2.895,2.355,5.25,5.25,5.25h7c1.923,0,3.71-0.866,4.905-2.376c0.451-0.57,0.796-1.207,1.023-1.892
	c0.106-0.318,0.188-0.65,0.243-0.987l1.48,0.24c-0.067,0.417-0.169,0.828-0.301,1.222c-0.283,0.851-0.711,1.64-1.271,2.348
	C19.601,18.177,17.384,19.25,15,19.25z"/>
<polygon style="fill:#333333;" points="19.53,10.03 18.47,8.97 20.939,6.5 18.47,4.03 19.53,2.97 23.061,6.5 "/>
<rect x="11.25" y="9.5" style="fill:#333333;" width="1.5" height="6"/>
<rect x="9.284" y="9.875" transform="matrix(0.7071 -0.7071 0.7071 0.7071 -4.3278 10.8018)" style="fill:#333333;" width="3.182" height="1.5"/>
</svg>






