<?xml version="1.0" encoding="iso-8859-1"?>
<svg version="1.1" id="&#x56FE;&#x5C42;_1" xmlns="http://www.w3.org/2000/svg" xmlns:xlink="http://www.w3.org/1999/xlink" x="0px"
	 y="0px" viewBox="0 0 24 24" style="enable-background:new 0 0 24 24;" xml:space="preserve">
<path style="fill:#333333;" d="M14.5,7.75c-1.792,0-3.25-1.458-3.25-3.25s1.458-3.25,3.25-3.25s3.25,1.458,3.25,3.25
	S16.292,7.75,14.5,7.75z M14.5,2.75c-0.965,0-1.75,0.785-1.75,1.75s0.785,1.75,1.75,1.75s1.75-0.785,1.75-1.75
	S15.465,2.75,14.5,2.75z"/>
<path style="fill:#333333;" d="M20.5,12c0.828,0,1.5-0.672,1.5-1.5S21.328,9,20.5,9S19,9.672,19,10.5S19.672,12,20.5,12z"/>
<path style="fill:#333333;" d="M5.879,19.223c-0.249,0-0.497-0.054-0.732-0.161l-3.425-1.365l0.556-1.393l3.46,1.38
	c0.133,0.06,0.218,0.03,0.258,0.008c0.041-0.021,0.111-0.074,0.129-0.181l1.14-5.659l1.471,0.297l-1.135,5.63
	c-0.083,0.516-0.412,0.977-0.898,1.236C6.443,19.153,6.162,19.223,5.879,19.223z"/>
<path style="fill:#333333;" d="M12.262,22.263l-1.404-0.525l1.785-4.765c0.04-0.105,0.003-0.228-0.087-0.294l-4.764-3.483
	c-0.305-0.223-0.493-0.566-0.514-0.941c-0.021-0.375,0.127-0.737,0.406-0.992l2.42-2.215c0.623-0.562,1.557-0.608,2.223-0.115
	l7.131,5.473l-0.914,1.189l-7.12-5.465c-0.087-0.063-0.219-0.056-0.312,0.027l-2.191,2.005l4.521,3.308
	c0.635,0.467,0.882,1.303,0.604,2.033L12.262,22.263z M8.676,11.983L8.676,11.983C8.677,11.984,8.676,11.984,8.676,11.983z"/>
</svg>






