<?xml version="1.0" encoding="iso-8859-1"?>
<svg version="1.1" id="&#x56FE;&#x5C42;_1" xmlns="http://www.w3.org/2000/svg" xmlns:xlink="http://www.w3.org/1999/xlink" x="0px"
	 y="0px" viewBox="0 0 24 24" style="enable-background:new 0 0 24 24;" xml:space="preserve">
<path style="fill:#333333;" d="M12,18.75c-4.289,0-7.542-2.158-9.671-6.415L2.25,12.177V6.25h19.5v5.927l-0.079,0.158
	C19.543,16.592,16.289,18.75,12,18.75z M3.75,11.821C5.626,15.474,8.327,17.25,12,17.25c3.674,0,6.374-1.776,8.25-5.429V7.75H3.75
	V11.821z"/>
<polygon style="fill:#333333;" points="16.679,22.75 7.321,22.75 6.754,17.074 8.246,16.926 8.679,21.25 15.321,21.25 
	15.754,16.926 17.246,17.074 "/>
<rect x="11" y="11.25" style="fill:#333333;" width="2" height="1.5"/>
<rect x="7.25" y="2" style="fill:#333333;" width="1.5" height="4"/>
<rect x="15.25" y="2" style="fill:#333333;" width="1.5" height="4"/>
</svg>






