<?xml version="1.0" encoding="iso-8859-1"?>
<svg version="1.1" id="&#x56FE;&#x5C42;_1" xmlns="http://www.w3.org/2000/svg" xmlns:xlink="http://www.w3.org/1999/xlink" x="0px"
	 y="0px" viewBox="0 0 24 24" style="enable-background:new 0 0 24 24;" xml:space="preserve">
<path style="fill:#333333;" d="M18.5,22.75H8.738c-0.303,0-0.581-0.153-0.743-0.41l-4.702-7.581
	c-0.725-1.168-0.481-2.719,0.568-3.608c0.631-0.535,1.459-0.762,2.278-0.624c0.717,0.122,1.35,0.514,1.778,1.091V3.971
	c0-1.5,1.221-2.721,2.721-2.721c1.5,0,2.721,1.221,2.721,2.721v4.464l5.611,0.188c0.998,0.033,1.78,0.842,1.78,1.841V20.5
	C20.75,21.74,19.74,22.75,18.5,22.75z M9.084,21.25H18.5c0.413,0,0.75-0.337,0.75-0.75V10.464c0-0.186-0.146-0.336-0.33-0.342
	l-5.812-0.194c-0.701-0.023-1.25-0.591-1.25-1.292V3.971c0-0.673-0.547-1.221-1.221-1.221S9.417,3.298,9.417,3.971v10.375
	l-1.397,0.38l-1.231-2.098c-0.194-0.331-0.523-0.558-0.901-0.622c-0.376-0.065-0.763,0.041-1.057,0.289
	c-0.486,0.412-0.599,1.132-0.263,1.673L9.084,21.25z"/>
</svg>






