<?xml version="1.0" encoding="iso-8859-1"?>
<svg version="1.1" id="&#x56FE;&#x5C42;_1" xmlns="http://www.w3.org/2000/svg" xmlns:xlink="http://www.w3.org/1999/xlink" x="0px"
	 y="0px" viewBox="0 0 24 24" style="enable-background:new 0 0 24 24;" xml:space="preserve">
<path style="fill:#333333;" d="M13.84,22.325c-1.553,0-3.136-0.385-4.675-1.154c-2.758-1.379-5.496-5.267-7.307-8.285
	c-1.004-1.673-0.339-3.312,0.704-4.127C3.804,7.789,5.436,7.875,6.53,8.97l0.72,0.72V3.75c0-1.378,1.122-2.5,2.5-2.5
	s2.5,1.122,2.5,2.5v1.959c0.307-0.134,0.645-0.209,1-0.209c0.89,0,1.673,0.467,2.115,1.169c0.397-0.265,0.873-0.419,1.385-0.419
	c1.379,0,2.5,1.121,2.5,2.499v0.21c0.307-0.134,0.645-0.209,1-0.209c1.379,0,2.5,1.122,2.5,2.5v4.372
	c0,0.779-0.203,1.488-0.588,2.051c-0.571,0.838-1.825,2.406-3.803,3.485C16.934,21.936,15.402,22.325,13.84,22.325z M4.459,9.592
	c-0.358,0-0.705,0.138-0.975,0.35c-0.542,0.423-0.916,1.215-0.341,2.173c2.415,4.024,4.792,6.765,6.692,7.715
	c2.669,1.335,5.371,1.341,7.805,0.013c1.702-0.929,2.787-2.287,3.282-3.015c0.218-0.317,0.327-0.723,0.327-1.205V11.25
	c0-0.551-0.448-1-1-1s-1,0.449-1,1h-1.5V8.749c0-0.551-0.448-0.999-1-0.999s-1,0.449-1,1h-1.5V8c0-0.551-0.448-1-1-1s-1,0.449-1,1
	h-1.5V3.75c0-0.551-0.449-1-1-1s-1,0.449-1,1v7.75l-1.28,0.53l-2-2C5.158,9.719,4.803,9.592,4.459,9.592z"/>
</svg>






