<?xml version="1.0" encoding="iso-8859-1"?>
<svg version="1.1" id="&#x56FE;&#x5C42;_1" xmlns="http://www.w3.org/2000/svg" xmlns:xlink="http://www.w3.org/1999/xlink" x="0px"
	 y="0px" viewBox="0 0 24 24" style="enable-background:new 0 0 24 24;" xml:space="preserve">
<path style="fill:#333333;" d="M12,22.75C6.072,22.75,1.25,17.928,1.25,12S6.072,1.25,12,1.25S22.75,6.072,22.75,12
	S17.928,22.75,12,22.75z M12,2.75c-5.101,0-9.25,4.149-9.25,9.25s4.149,9.25,9.25,9.25s9.25-4.149,9.25-9.25S17.101,2.75,12,2.75z"
	/>
<path style="fill:#333333;" d="M12,15.75c-2.068,0-3.75-1.683-3.75-3.75c0-2.068,1.682-3.75,3.75-3.75c2.067,0,3.75,1.682,3.75,3.75
	C15.75,14.067,14.067,15.75,12,15.75z M12,9.75c-1.241,0-2.25,1.009-2.25,2.25c0,1.24,1.009,2.25,2.25,2.25
	c1.24,0,2.25-1.01,2.25-2.25C14.25,10.759,13.24,9.75,12,9.75z"/>
<rect x="15" y="11.25" style="fill:#333333;" width="7" height="1.5"/>
<rect x="2" y="11.25" style="fill:#333333;" width="7" height="1.5"/>
<circle style="fill:#333333;" cx="12" cy="12" r="1"/>
</svg>






