<?xml version="1.0" encoding="iso-8859-1"?>
<svg version="1.1" id="&#x56FE;&#x5C42;_1" xmlns="http://www.w3.org/2000/svg" xmlns:xlink="http://www.w3.org/1999/xlink" x="0px"
	 y="0px" viewBox="0 0 24 24" style="enable-background:new 0 0 24 24;" xml:space="preserve">
<path style="fill:#333333;" d="M14.896,22.75H8.104c-0.884,0-1.417,0-1.897-0.385S5.612,21.46,5.42,20.598L2.565,7.75h17.87
	L17.58,20.596c-0.185,0.833-0.306,1.384-0.788,1.77C16.313,22.75,15.78,22.75,14.896,22.75z M4.435,9.25l2.449,11.021
	c0.089,0.399,0.189,0.851,0.262,0.925c0.068,0.055,0.583,0.055,0.959,0.055h6.791c0.407,0,0.868,0,0.958-0.055
	c0.074-0.074,0.178-0.545,0.262-0.924v-0.001l2.45-11.021H4.435z"/>
<rect x="6.995" y="14.5" transform="matrix(0.0365 -0.9993 0.9993 0.0365 -1.9915 28.4345)" style="fill:#333333;" width="13.509" height="1.499"/>
<rect x="8.5" y="8.495" transform="matrix(0.9993 -0.037 0.037 0.9993 -0.5581 0.3528)" style="fill:#333333;" width="1.5" height="13.509"/>
<rect x="7.5" y="21.25" style="fill:#333333;" width="8" height="1.5"/>
<rect x="7.5" y="7.75" style="fill:#333333;" width="8" height="1.5"/>
<path style="fill:#333333;" d="M18.171,8.835l-1.342-0.671c0.004-0.008,0.522-1.112,0.071-1.714c-0.508-0.676-1.398-0.7-1.407-0.7
	l-0.736-0.013L14.75,5c-0.001-0.047-0.027-1.263-0.956-1.529c-0.926-0.267-1.646,0.904-1.651,0.916l-0.359,0.588l-0.619-0.305
	c-0.381-0.188-1.333-0.499-1.829-0.25C8.866,4.655,8.753,5.482,8.75,5.754L8.741,6.63L7.876,6.49C7.587,6.443,6.664,6.396,6.28,6.78
	C5.958,7.103,6.117,7.979,6.211,8.263L4.789,8.737C4.722,8.539,4.172,6.767,5.22,5.72c0.611-0.611,1.494-0.751,2.129-0.761
	c0.142-0.627,0.484-1.464,1.315-1.88c0.875-0.437,1.927-0.214,2.577,0.007c0.619-0.714,1.677-1.425,2.964-1.058
	c1.265,0.361,1.803,1.437,1.976,2.312c0.559,0.13,1.346,0.445,1.918,1.208C19.116,6.905,18.21,8.757,18.171,8.835z"/>
</svg>






