<?xml version="1.0" encoding="iso-8859-1"?>
<svg version="1.1" id="&#x56FE;&#x5C42;_1" xmlns="http://www.w3.org/2000/svg" xmlns:xlink="http://www.w3.org/1999/xlink" x="0px"
	 y="0px" viewBox="0 0 24 24" style="enable-background:new 0 0 24 24;" xml:space="preserve">
<path style="fill:#333333;" d="M17.586,22.75H6.415L2.54,7.25h18.921L17.586,22.75z M7.585,21.25h8.829l3.125-12.5H4.46L7.585,21.25
	z"/>
<rect x="9.25" y="8" style="fill:#333333;" width="1.5" height="14"/>
<rect x="13.25" y="8" style="fill:#333333;" width="1.5" height="14"/>
<path style="fill:#333333;" d="M18.106,8.75h-3.213l-0.213-0.188C14.089,8.041,13.75,7.289,13.75,6.5c0-1.517,1.233-2.75,2.75-2.75
	s2.75,1.233,2.75,2.75c0,0.789-0.339,1.541-0.931,2.062L18.106,8.75z M15.5,7.25h2c0.161-0.214,0.25-0.478,0.25-0.75
	c0-0.689-0.561-1.25-1.25-1.25s-1.25,0.561-1.25,1.25C15.25,6.772,15.339,7.036,15.5,7.25z"/>
<path style="fill:#333333;" d="M13.606,8.75h-3.212l-0.213-0.188C9.589,8.041,9.25,7.289,9.25,6.5c0-1.517,1.233-2.75,2.75-2.75
	s2.75,1.233,2.75,2.75c0,0.789-0.339,1.541-0.931,2.062L13.606,8.75z M11,7.25h2c0.161-0.214,0.25-0.478,0.25-0.75
	c0-0.689-0.561-1.25-1.25-1.25s-1.25,0.561-1.25,1.25C10.75,6.772,10.839,7.036,11,7.25z"/>
<path style="fill:#333333;" d="M9.106,8.75H5.894L5.681,8.562C5.089,8.041,4.75,7.289,4.75,6.5c0-1.517,1.233-2.75,2.75-2.75
	s2.75,1.233,2.75,2.75c0,0.789-0.339,1.541-0.931,2.062L9.106,8.75z M6.5,7.25h2C8.661,7.036,8.75,6.772,8.75,6.5
	c0-0.689-0.561-1.25-1.25-1.25S6.25,5.811,6.25,6.5C6.25,6.772,6.339,7.036,6.5,7.25z"/>
<path style="fill:#333333;" d="M12.163,4.687L10.71,4.313C10.737,4.211,10.75,4.106,10.75,4c0-0.689-0.561-1.25-1.25-1.25
	S8.25,3.311,8.25,4c0,0.106,0.013,0.211,0.04,0.313L6.836,4.687C6.779,4.463,6.75,4.232,6.75,4c0-1.517,1.233-2.75,2.75-2.75
	S12.25,2.483,12.25,4C12.25,4.232,12.221,4.463,12.163,4.687z"/>
<path style="fill:#333333;" d="M17.162,4.691l-1.451-0.382C15.737,4.211,15.75,4.107,15.75,4c0-0.689-0.561-1.25-1.25-1.25
	S13.25,3.311,13.25,4c0,0.107,0.013,0.211,0.039,0.309l-1.451,0.382C11.78,4.468,11.75,4.236,11.75,4c0-1.517,1.233-2.75,2.75-2.75
	S17.25,2.483,17.25,4C17.25,4.236,17.221,4.468,17.162,4.691z"/>
<rect x="8" y="7.25" style="fill:#333333;" width="8" height="1.5"/>
<rect x="8" y="21.25" style="fill:#333333;" width="8" height="1.5"/>
</svg>






