<?xml version="1.0" encoding="iso-8859-1"?>
<svg version="1.1" id="&#x56FE;&#x5C42;_1" xmlns="http://www.w3.org/2000/svg" xmlns:xlink="http://www.w3.org/1999/xlink" x="0px"
	 y="0px" viewBox="0 0 24 24" style="enable-background:new 0 0 24 24;" xml:space="preserve">
<path style="fill:#333333;" d="M12,14.75c-5.211,0-10.75-1.665-10.75-4.75c0-3.085,5.539-4.75,10.75-4.75
	c5.211,0,10.75,1.665,10.75,4.75C22.75,13.085,17.211,14.75,12,14.75z M12,6.75c-5.294,0-9.25,1.716-9.25,3.25s3.956,3.25,9.25,3.25
	s9.25-1.716,9.25-3.25S17.294,6.75,12,6.75z"/>
<rect x="11.25" y="2" style="fill:#333333;" width="1.5" height="7.5"/>
<rect x="7.25" y="17" style="fill:#333333;" width="1.5" height="4"/>
<rect x="11.25" y="17" style="fill:#333333;" width="1.5" height="5"/>
<rect x="15.25" y="17" style="fill:#333333;" width="1.5" height="4"/>
<path style="fill:#333333;" d="M3.833,19.138c-1.848-1.237-2.487-2.584-2.513-2.641l-0.069-0.15V10h1.5v5.99
	c0.183,0.303,0.746,1.117,1.917,1.901L3.833,19.138z"/>
<path style="fill:#333333;" d="M20.167,19.138l-0.834-1.246c1.169-0.783,1.731-1.595,1.917-1.902V10h1.5v6.347l-0.069,0.15
	C22.654,16.554,22.017,17.9,20.167,19.138z"/>
</svg>






