<?xml version="1.0" encoding="iso-8859-1"?>
<svg version="1.1" id="&#x56FE;&#x5C42;_1" xmlns="http://www.w3.org/2000/svg" xmlns:xlink="http://www.w3.org/1999/xlink" x="0px"
	 y="0px" viewBox="0 0 24 24" style="enable-background:new 0 0 24 24;" xml:space="preserve">
<path style="fill:#333333;" d="M20.5,22.25h-17c-1.241,0-2.25-1.01-2.25-2.25V10c0-1.241,1.009-2.25,2.25-2.25h2.643
	c1.094,0,1.961,0.823,2.519,1.442C9.285,9.884,10.439,10.25,12,10.25s2.715-0.366,3.338-1.058c0.559-0.619,1.426-1.442,2.52-1.442
	H20.5c1.24,0,2.25,1.009,2.25,2.25v10C22.75,21.24,21.74,22.25,20.5,22.25z M3.5,9.25c-0.414,0-0.75,0.336-0.75,0.75v10
	c0,0.413,0.336,0.75,0.75,0.75h17c0.413,0,0.75-0.337,0.75-0.75V10c0-0.414-0.337-0.75-0.75-0.75h-2.643
	c-0.553,0-1.194,0.712-1.404,0.946c-0.639,0.709-1.93,1.554-4.453,1.554s-3.814-0.845-4.453-1.554
	C7.336,9.962,6.695,9.25,6.143,9.25H3.5z"/>
<path style="fill:#333333;" d="M12,11.75c-2.944,0-5.25-1.428-5.25-3.25h1.5c0,0.826,1.604,1.75,3.75,1.75s3.75-0.924,3.75-1.75h1.5
	C17.25,10.322,14.944,11.75,12,11.75z"/>
<path style="fill:#333333;" d="M12,8.25C9.056,8.25,6.75,6.822,6.75,5S9.056,1.75,12,1.75c2.944,0,5.25,1.428,5.25,3.25
	S14.944,8.25,12,8.25z M12,3.25C9.854,3.25,8.25,4.174,8.25,5S9.854,6.75,12,6.75S15.75,5.826,15.75,5S14.146,3.25,12,3.25z"/>
<rect x="15.75" y="5" style="fill:#333333;" width="1.5" height="3.5"/>
<rect x="6.75" y="5" style="fill:#333333;" width="1.5" height="3.5"/>
<ellipse style="fill:#333333;" cx="13.5" cy="5" rx="1" ry="0.5"/>
<ellipse style="fill:#333333;" cx="10.5" cy="5" rx="1" ry="0.5"/>
</svg>






