<?xml version="1.0" encoding="iso-8859-1"?>
<svg version="1.1" id="&#x56FE;&#x5C42;_1" xmlns="http://www.w3.org/2000/svg" xmlns:xlink="http://www.w3.org/1999/xlink" x="0px"
	 y="0px" viewBox="0 0 24 24" style="enable-background:new 0 0 24 24;" xml:space="preserve">
<path style="fill:#333333;" d="M12,22.25c-5.652,0-10.25-4.543-10.25-10.127c0-2.472,0.911-4.852,2.566-6.703
	c0.463-0.517,0.98-0.989,1.537-1.402c0.326-0.241,0.67-0.466,1.025-0.668l0.744,1.302C7.319,4.825,7.024,5.017,6.746,5.223
	C6.271,5.576,5.829,5.979,5.434,6.42C4.026,7.995,3.25,10.021,3.25,12.123c0,4.757,3.925,8.627,8.75,8.627
	c4.825,0,8.75-3.87,8.75-8.627c0-2.103-0.775-4.128-2.184-5.703c-0.396-0.441-0.837-0.844-1.313-1.197
	c-0.28-0.208-0.575-0.4-0.875-0.571l0.744-1.303c0.351,0.2,0.695,0.425,1.024,0.668c0.558,0.414,1.075,0.886,1.537,1.403
	c1.655,1.851,2.566,4.231,2.566,6.703C22.25,17.707,17.652,22.25,12,22.25z"/>
<rect x="11.25" y="2" style="fill:#333333;" width="1.5" height="10"/>
</svg>






