<?xml version="1.0" encoding="iso-8859-1"?>
<svg version="1.1" id="&#x56FE;&#x5C42;_1" xmlns="http://www.w3.org/2000/svg" xmlns:xlink="http://www.w3.org/1999/xlink" x="0px"
	 y="0px" viewBox="0 0 24 24" style="enable-background:new 0 0 24 24;" xml:space="preserve">
<path style="fill:#333333;" d="M16.885,22.644l-0.77-1.287c2.758-1.648,4.26-4.037,4.592-7.302c0.324-3.19-1.174-5.691-4.58-7.645
	L15.75,6.194V2h1.5v3.332c3.657,2.226,5.322,5.21,4.949,8.875C21.821,17.923,20.033,20.762,16.885,22.644z"/>
<path style="fill:#333333;" d="M11.03,20.75c-0.853,0-1.835-0.481-2.989-1.46c-2.349-1.994-6.291-5.61-6.291-7.427
	c0-0.993,1.405-6.612,2.142-8.286c0.567-1.289,1.559-2.09,2.867-2.316l0.255,1.479c-0.823,0.142-1.379,0.6-1.749,1.441
	C4.582,5.732,3.25,11.13,3.25,11.863c0.021,0.377,1.124,2.347,5.761,6.283c1.296,1.101,1.924,1.131,2.134,1.095
	c0.074-0.014,0.271-0.049,0.483-0.426c0.263-0.468,0.155-0.749-1.066-1.706c-1.117-0.875-4.762-3.864-4.762-5.553
	c0-0.552,0.23-1.808,2.021-6.671l1.407,0.519c-1.678,4.556-1.929,5.81-1.929,6.153c0.038,0.544,1.767,2.476,4.187,4.373
	c0.962,0.754,2.418,1.895,1.449,3.62c-0.462,0.821-1.085,1.089-1.526,1.168C11.287,20.738,11.16,20.75,11.03,20.75z"/>
<path style="fill:#333333;" d="M4.776,22.166c-0.683-2.536-1.161-5.099-1.421-7.618l1.492-0.154
	c0.252,2.439,0.715,4.924,1.377,7.382L4.776,22.166z"/>
<path style="fill:#333333;" d="M18.941,14.335l-1.486-0.207c0.08-0.573,0.021-1.229-0.179-1.951
	c-0.178-0.649-0.568-1.166-1.191-1.58l0.83-1.25c0.925,0.614,1.533,1.433,1.808,2.432C18.977,12.699,19.05,13.559,18.941,14.335z"/>
</svg>






