<?xml version="1.0" encoding="iso-8859-1"?>
<svg version="1.1" id="&#x56FE;&#x5C42;_1" xmlns="http://www.w3.org/2000/svg" xmlns:xlink="http://www.w3.org/1999/xlink" x="0px"
	 y="0px" viewBox="0 0 24 24" style="enable-background:new 0 0 24 24;" xml:space="preserve">
<path style="fill:#333333;" d="M13.853,22.841c-0.972,0-1.978-0.213-3.115-0.639c-2.467-0.923-4.468-3.78-5.713-6.016
	c-0.595-1.069-0.314-2.415,0.668-3.202c0.896-0.714,2.118-0.767,3.057-0.191V8.75c0-1.103,0.897-2,2-2s2,0.897,2,2v1.063
	c0.16-0.042,0.327-0.063,0.5-0.063c0.79,0,1.475,0.46,1.799,1.127c0.219-0.082,0.455-0.127,0.701-0.127
	c0.79,0,1.475,0.46,1.799,1.127c0.219-0.082,0.455-0.127,0.701-0.127c1.103,0,2,0.897,2,2v3.934c0,0.729-0.2,1.398-0.577,1.935
	c-0.617,0.875-1.618,2.031-2.877,2.571C15.782,22.624,14.834,22.841,13.853,22.841z M7.358,13.9c-0.256,0-0.514,0.084-0.728,0.256
	c-0.408,0.327-0.532,0.874-0.295,1.3c0.918,1.65,2.78,4.538,4.928,5.342l0,0c1.912,0.716,3.298,0.719,4.941,0.013
	c0.987-0.423,1.829-1.471,2.242-2.058c0.251-0.355,0.304-0.777,0.304-1.069V13.75c0-0.275-0.225-0.5-0.5-0.5s-0.5,0.225-0.5,0.5
	h-1.5v-1c0-0.275-0.225-0.5-0.5-0.5s-0.5,0.225-0.5,0.5h-1.5v-1c0-0.276-0.225-0.5-0.5-0.5s-0.5,0.224-0.5,0.5h-1.5v-3
	c0-0.276-0.224-0.5-0.5-0.5s-0.5,0.224-0.5,0.5v5.75l-1.28,0.53l-0.788-0.788C7.955,14.016,7.657,13.9,7.358,13.9z"/>
<path style="fill:#333333;" d="M6.095,7.781C6.018,7.589,5.952,7.39,5.899,7.187l0,0C5.8,6.8,5.75,6.4,5.75,6
	c0-2.619,2.131-4.75,4.75-4.75S15.25,3.381,15.25,6h-1.5c0-1.792-1.458-3.25-3.25-3.25S7.25,4.208,7.25,6
	c0,0.267,0.033,0.533,0.097,0.791l0.156,0.475L6.095,7.781z"/>
</svg>






