<?xml version="1.0" encoding="iso-8859-1"?>
<svg version="1.1" id="&#x56FE;&#x5C42;_1" xmlns="http://www.w3.org/2000/svg" xmlns:xlink="http://www.w3.org/1999/xlink" x="0px"
	 y="0px" viewBox="0 0 24 24" style="enable-background:new 0 0 24 24;" xml:space="preserve">
<path style="fill:#333333;" d="M19,21.75H5c-0.965,0-1.75-0.785-1.75-1.75V4c0-0.965,0.785-1.75,1.75-1.75h9.25v6h6.5V20
	C20.75,20.965,19.965,21.75,19,21.75z M5,3.75C4.862,3.75,4.75,3.862,4.75,4v16c0,0.138,0.112,0.25,0.25,0.25h14
	c0.138,0,0.25-0.112,0.25-0.25V9.75h-6.5v-6H5z"/>
<rect x="16" y="1.577" transform="matrix(0.6783 -0.7348 0.7348 0.6783 0.98 14.2383)" style="fill:#333333;" width="1.5" height="8.846"/>
<polygon style="fill:#333333;" points="20,9.791 12.762,9.791 12.762,3 14.262,3 14.262,8.291 20,8.291 "/>
<rect x="7" y="14.25" style="fill:#333333;" width="6" height="1.5"/>
<rect x="9.25" y="12" style="fill:#333333;" width="1.5" height="6"/>
</svg>






