<?xml version="1.0" encoding="iso-8859-1"?>
<svg version="1.1" id="&#x56FE;&#x5C42;_1" xmlns="http://www.w3.org/2000/svg" xmlns:xlink="http://www.w3.org/1999/xlink" x="0px"
	 y="0px" viewBox="0 0 24 24" style="enable-background:new 0 0 24 24;" xml:space="preserve">
<path style="fill:#333333;" d="M20.5,18.25h-17c-0.965,0-1.75-0.785-1.75-1.75v-12c0-0.965,0.785-1.75,1.75-1.75h17
	c0.965,0,1.75,0.785,1.75,1.75v12C22.25,17.465,21.465,18.25,20.5,18.25z M3.5,4.25c-0.138,0-0.25,0.112-0.25,0.25v12
	c0,0.138,0.112,0.25,0.25,0.25h17c0.138,0,0.25-0.112,0.25-0.25v-12c0-0.138-0.112-0.25-0.25-0.25H3.5z"/>
<rect x="6.25" y="7" style="fill:#333333;" width="1.5" height="7"/>
<rect x="16.25" y="7" style="fill:#333333;" width="1.5" height="7"/>
<rect x="11.25" y="8.5" style="fill:#333333;" width="1.5" height="4"/>
<rect x="10" y="9.75" style="fill:#333333;" width="4" height="1.5"/>
<rect x="2" y="19.75" style="fill:#333333;" width="20" height="1.5"/>
</svg>






