<?xml version="1.0" encoding="iso-8859-1"?>
<svg version="1.1" id="&#x56FE;&#x5C42;_1" xmlns="http://www.w3.org/2000/svg" xmlns:xlink="http://www.w3.org/1999/xlink" x="0px"
	 y="0px" viewBox="0 0 24 24" style="enable-background:new 0 0 24 24;" xml:space="preserve">
<path style="fill:#333333;" d="M12,18.75c-5.832,0-10.409-6.044-10.601-6.302L1.064,12l0.334-0.449
	c0.048-0.064,1.194-1.589,3.051-3.129l0.957,1.155c-1.131,0.938-1.988,1.884-2.442,2.421C4.104,13.344,7.777,17.25,12,17.25
	c0.59,0,1.202-0.078,1.818-0.231l0.363,1.455C13.446,18.657,12.712,18.75,12,18.75z M19.55,15.577l-0.957-1.154
	c1.131-0.938,1.988-1.884,2.442-2.422C19.896,10.656,16.222,6.75,12,6.75c-0.587,0-1.194,0.077-1.803,0.228L9.835,5.522
	C10.562,5.341,11.291,5.25,12,5.25c5.831,0,10.409,6.044,10.602,6.301L22.936,12l-0.334,0.448
	C22.554,12.513,21.407,14.038,19.55,15.577z"/>
<path style="fill:#333333;" d="M12,15.25c-1.792,0-3.25-1.458-3.25-3.25c0-0.816,0.304-1.596,0.854-2.197l1.105,1.015
	c-0.297,0.323-0.46,0.743-0.46,1.182c0,0.965,0.785,1.75,1.75,1.75c0.461,0,0.896-0.178,1.225-0.5l1.051,1.07
	C13.664,14.92,12.855,15.25,12,15.25z"/>
<rect x="11.25" y="-0.728" transform="matrix(0.7071 -0.7071 0.7071 0.7071 -4.9706 12)" style="fill:#333333;" width="1.5" height="25.456"/>
</svg>






