<?xml version="1.0" encoding="iso-8859-1"?>
<svg version="1.1" id="&#x56FE;&#x5C42;_1" xmlns="http://www.w3.org/2000/svg" xmlns:xlink="http://www.w3.org/1999/xlink" x="0px"
	 y="0px" viewBox="0 0 24 24" style="enable-background:new 0 0 24 24;" xml:space="preserve">
<path style="fill:#333333;" d="M12,12.75c-3.192,0-6.131-0.908-8.064-2.492C3.234,9.683,2.696,9.04,2.334,8.346l1.331-0.692
	c0.267,0.512,0.677,0.998,1.221,1.444C6.531,10.445,9.19,11.25,12,11.25c2.809,0,5.468-0.805,7.113-2.152
	c0.544-0.445,0.954-0.931,1.222-1.444l1.33,0.692c-0.361,0.694-0.899,1.337-1.601,1.912C18.131,11.842,15.191,12.75,12,12.75z"/>
<rect x="14.256" y="11.932" transform="matrix(0.9659 -0.259 0.259 0.9659 -3.0967 4.3629)" style="fill:#333333;" width="1.5" height="4"/>
<rect x="19.341" y="10.091" transform="matrix(0.7071 -0.7071 0.7071 0.7071 -2.665 17.7477)" style="fill:#333333;" width="1.5" height="4"/>
<rect x="1.914" y="11.341" transform="matrix(0.7071 -0.7071 0.7071 0.7071 -7.403 6.3092)" style="fill:#333333;" width="4" height="1.5"/>
<rect x="6.981" y="13.182" transform="matrix(0.259 -0.9659 0.9659 0.259 -6.8018 18.9981)" style="fill:#333333;" width="4" height="1.5"/>
</svg>






