<?xml version="1.0" encoding="iso-8859-1"?>
<svg version="1.1" id="&#x56FE;&#x5C42;_1" xmlns="http://www.w3.org/2000/svg" xmlns:xlink="http://www.w3.org/1999/xlink" x="0px"
	 y="0px" viewBox="0 0 24 24" style="enable-background:new 0 0 24 24;" xml:space="preserve">
<path style="fill:#333333;" d="M12,18.75c-5.832,0-10.409-6.044-10.601-6.302L1.064,12l0.334-0.449C1.591,11.294,6.168,5.25,12,5.25
	c5.831,0,10.409,6.044,10.602,6.301L22.936,12l-0.334,0.448C22.409,12.706,17.831,18.75,12,18.75z M2.965,12
	c1.14,1.345,4.812,5.25,9.035,5.25c4.221,0,7.895-3.904,9.034-5.25c-1.14-1.346-4.813-5.25-9.034-5.25
	C7.768,6.75,4.103,10.654,2.965,12z"/>
<path style="fill:#333333;" d="M12,15.25c-1.792,0-3.25-1.458-3.25-3.25S10.208,8.75,12,8.75s3.25,1.458,3.25,3.25
	S13.792,15.25,12,15.25z M12,10.25c-0.965,0-1.75,0.785-1.75,1.75s0.785,1.75,1.75,1.75s1.75-0.785,1.75-1.75S12.965,10.25,12,10.25
	z"/>
</svg>






