<?xml version="1.0" encoding="iso-8859-1"?>
<svg version="1.1" id="&#x56FE;&#x5C42;_1" xmlns="http://www.w3.org/2000/svg" xmlns:xlink="http://www.w3.org/1999/xlink" x="0px"
	 y="0px" viewBox="0 0 24 24" style="enable-background:new 0 0 24 24;" xml:space="preserve">
<path style="fill:#333333;" d="M19.75,10h-1.5V4c0-0.138-0.112-0.25-0.25-0.25H6C5.862,3.75,5.75,3.862,5.75,4v6h-1.5V4
	c0-0.965,0.785-1.75,1.75-1.75h12c0.965,0,1.75,0.785,1.75,1.75V10z"/>
<path style="fill:#333333;" d="M20,21.75H4c-0.965,0-1.75-0.785-1.75-1.75v-9c0-0.965,0.785-1.75,1.75-1.75h16
	c0.965,0,1.75,0.785,1.75,1.75v9C21.75,20.965,20.965,21.75,20,21.75z M4,10.75c-0.138,0-0.25,0.112-0.25,0.25v9
	c0,0.138,0.112,0.25,0.25,0.25h16c0.138,0,0.25-0.112,0.25-0.25v-9c0-0.138-0.112-0.25-0.25-0.25H4z"/>
<path style="fill:#333333;" d="M18.25,21.75h-9v-5.5h9V21.75z M10.75,20.25h6v-2.5h-6V20.25z"/>
<rect x="6" y="12.25" style="fill:#333333;" width="1.5" height="1.5"/>
</svg>






