<?xml version="1.0" encoding="iso-8859-1"?>
<svg version="1.1" id="&#x56FE;&#x5C42;_1" xmlns="http://www.w3.org/2000/svg" xmlns:xlink="http://www.w3.org/1999/xlink" x="0px"
	 y="0px" viewBox="0 0 24 24" style="enable-background:new 0 0 24 24;" xml:space="preserve">
<path style="fill:#333333;" d="M9.5,7.25h-6C2.811,7.25,2.25,6.689,2.25,6V2h1.5v3.75h5.5V2h1.5v4C10.75,6.689,10.189,7.25,9.5,7.25
	z"/>
<rect x="3" y="2.75" style="fill:#333333;" width="7" height="1.5"/>
<polygon style="fill:#333333;" points="14,22.75 2.25,22.75 2.25,10.25 14,10.25 14,11.75 3.75,11.75 3.75,21.25 14,21.25 "/>
<rect x="7.25" y="6.5" style="fill:#333333;" width="1.5" height="15.5"/>
<rect x="4.25" y="6.5" style="fill:#333333;" width="1.5" height="4.5"/>
<rect x="5.75" y="2" style="fill:#333333;" width="1.5" height="1.5"/>
<rect x="12.75" y="6.5" style="fill:#333333;" width="1.5" height="1.5"/>
<rect x="16.75" y="6.5" style="fill:#333333;" width="1.5" height="1.5"/>
<rect x="20.75" y="6.5" style="fill:#333333;" width="1.5" height="1.5"/>
<path style="fill:#333333;" d="M22.25,22.75h-9.5V7.25h9.5V22.75z M14.25,21.25h6.5V8.75h-6.5V21.25z"/>
<rect x="16.75" y="17" style="fill:#333333;" width="1.5" height="5"/>
<rect x="15.5" y="21.25" style="fill:#333333;" width="4" height="1.5"/>
</svg>






