<?xml version="1.0" encoding="iso-8859-1"?>
<svg version="1.1" id="&#x56FE;&#x5C42;_1" xmlns="http://www.w3.org/2000/svg" xmlns:xlink="http://www.w3.org/1999/xlink" x="0px"
	 y="0px" viewBox="0 0 24 24" style="enable-background:new 0 0 24 24;" xml:space="preserve">
<path style="fill:#333333;" d="M21,17.75H3c-0.965,0-1.75-0.785-1.75-1.75V6c0-0.965,0.785-1.75,1.75-1.75h18
	c0.965,0,1.75,0.785,1.75,1.75v10C22.75,16.965,21.965,17.75,21,17.75z M3,5.75C2.862,5.75,2.75,5.862,2.75,6v10
	c0,0.138,0.112,0.25,0.25,0.25h18c0.138,0,0.25-0.112,0.25-0.25V6c0-0.138-0.112-0.25-0.25-0.25H3z"/>
<rect x="6" y="8.75" style="fill:#333333;" width="3" height="1.5"/>
<rect x="6" y="11.75" style="fill:#333333;" width="2" height="1.5"/>
<rect x="6.25" y="17" style="fill:#333333;" width="1.5" height="3"/>
<rect x="16.25" y="17" style="fill:#333333;" width="1.5" height="3"/>
<path style="fill:#333333;" d="M15.5,14.25c-1.792,0-3.25-1.458-3.25-3.25s1.458-3.25,3.25-3.25s3.25,1.458,3.25,3.25
	S17.292,14.25,15.5,14.25z M15.5,9.25c-0.965,0-1.75,0.785-1.75,1.75s0.785,1.75,1.75,1.75s1.75-0.785,1.75-1.75
	S16.465,9.25,15.5,9.25z"/>
</svg>






