<?xml version="1.0" encoding="iso-8859-1"?>
<svg version="1.1" id="&#x56FE;&#x5C42;_1" xmlns="http://www.w3.org/2000/svg" xmlns:xlink="http://www.w3.org/1999/xlink" x="0px"
	 y="0px" viewBox="0 0 24 24" style="enable-background:new 0 0 24 24;" xml:space="preserve">
<path style="fill:none;" d="M3,19v-3h3h12h3v3h-3v-3H6v3H3z"/>
<path style="fill:#333333;" d="M21.75,19.75h-4.5v-4.5h4.5V19.75z M18.75,18.25h1.5v-1.5h-1.5V18.25z"/>
<path style="fill:#333333;" d="M6.75,19.75h-4.5v-4.5h4.5V19.75z M3.75,18.25h1.5v-1.5h-1.5V18.25z"/>
<polygon style="fill:#333333;" points="22.75,16.75 1.25,16.75 1.25,7.25 12,7.25 12,8.75 2.75,8.75 2.75,15.25 21.25,15.25 
	21.25,8.75 19,8.75 19,7.25 22.75,7.25 "/>
<rect x="5" y="11.25" style="fill:#333333;" width="4" height="1.5"/>
<path style="fill:#333333;" d="M15.5,12.25c-2.344,0-4.25-1.907-4.25-4.25s1.906-4.25,4.25-4.25S19.75,5.657,19.75,8
	S17.844,12.25,15.5,12.25z M15.5,5.25c-1.517,0-2.75,1.233-2.75,2.75s1.233,2.75,2.75,2.75S18.25,9.517,18.25,8
	S17.017,5.25,15.5,5.25z"/>
<path style="fill:#333333;" d="M15.5,9.5C16.328,9.5,17,8.828,17,8s-0.672-1.5-1.5-1.5C14.672,6.5,14,7.172,14,8
	S14.672,9.5,15.5,9.5z"/>
</svg>






