<?xml version="1.0" encoding="iso-8859-1"?>
<svg version="1.1" id="&#x56FE;&#x5C42;_1" xmlns="http://www.w3.org/2000/svg" xmlns:xlink="http://www.w3.org/1999/xlink" x="0px"
	 y="0px" viewBox="0 0 24 24" style="enable-background:new 0 0 24 24;" xml:space="preserve">
<g>
	<defs>
		<rect id="SVGID_1_" width="24" height="24"/>
	</defs>
	<clipPath id="SVGID_00000052817709177120419990000017192940737887066770_">
		<use xlink:href="#SVGID_1_"  style="overflow:visible;"/>
	</clipPath>
	<g style="clip-path:url(#SVGID_00000052817709177120419990000017192940737887066770_);">
		<path style="fill:#333333;" d="M20.66,20.75H3.34c-0.633,0-1.199-0.327-1.516-0.875s-0.316-1.202,0-1.75l8.66-15
			C10.801,2.577,11.368,2.25,12,2.25c0,0,0,0,0.001,0c0.632,0,1.198,0.327,1.515,0.875l8.66,15c0.316,0.548,0.316,1.202,0,1.75
			S21.293,20.75,20.66,20.75z M11.783,3.875l-8.66,15c-0.062,0.108-0.027,0.203,0,0.25S3.214,19.25,3.34,19.25h17.32
			c0.126,0,0.189-0.078,0.217-0.125c0.026-0.047,0.062-0.142,0-0.25l-8.66-15C12.154,3.767,12.054,3.75,12,3.75l0,0
			C11.946,3.75,11.846,3.767,11.783,3.875L11.783,3.875z"/>
		
			<rect x="6.362" y="13.75" transform="matrix(0.5091 -0.8607 0.8607 0.5091 -6.2214 18.0915)" style="fill:#333333;" width="12.777" height="1.5"/>
		
			<rect x="14.368" y="16.5" transform="matrix(0.4792 -0.8777 0.8777 0.4792 -6.0266 24.3432)" style="fill:#333333;" width="6.265" height="1.5"/>
	</g>
</g>
</svg>






