<?xml version="1.0" encoding="iso-8859-1"?>
<svg version="1.1" id="&#x56FE;&#x5C42;_1" xmlns="http://www.w3.org/2000/svg" xmlns:xlink="http://www.w3.org/1999/xlink" x="0px"
	 y="0px" viewBox="0 0 24 24" style="enable-background:new 0 0 24 24;" xml:space="preserve">
<path style="fill:#333333;" d="M21.75,12.75H2.25V12c0-5.101,4.374-9.25,9.75-9.25s9.75,4.149,9.75,9.25V12.75z M3.788,11.25h16.424
	c-0.403-3.923-3.933-7-8.212-7C7.72,4.25,4.191,7.327,3.788,11.25z"/>
<path style="fill:#333333;" d="M9.25,22.75c-1.93,0-3.5-1.56-3.5-3.478h1.5c0,1.091,0.897,1.978,2,1.978s2-0.887,2-1.978v-7.269h1.5
	v7.269C12.75,21.19,11.18,22.75,9.25,22.75z"/>
<rect x="11.25" y="2" style="fill:#333333;" width="1.5" height="1.5"/>
</svg>






