<?xml version="1.0" encoding="iso-8859-1"?>
<svg version="1.1" id="&#x56FE;&#x5C42;_1" xmlns="http://www.w3.org/2000/svg" xmlns:xlink="http://www.w3.org/1999/xlink" x="0px"
	 y="0px" viewBox="0 0 24 24" style="enable-background:new 0 0 24 24;" xml:space="preserve">
<path style="fill:#333333;" d="M7.5,7.75C5.983,7.75,4.75,6.517,4.75,5S5.983,2.25,7.5,2.25S10.25,3.483,10.25,5
	S9.017,7.75,7.5,7.75z M7.5,3.75C6.811,3.75,6.25,4.311,6.25,5S6.811,6.25,7.5,6.25S8.75,5.689,8.75,5S8.189,3.75,7.5,3.75z"/>
<path style="fill:#333333;" d="M16.5,7.75c-1.517,0-2.75-1.233-2.75-2.75s1.233-2.75,2.75-2.75S19.25,3.483,19.25,5
	S18.017,7.75,16.5,7.75z M16.5,3.75c-0.689,0-1.25,0.561-1.25,1.25s0.561,1.25,1.25,1.25S17.75,5.689,17.75,5S17.189,3.75,16.5,3.75
	z"/>
<path style="fill:#333333;" d="M9.685,21.75h-4.37L4.179,9.25h6.643L9.685,21.75z M6.685,20.25h1.63l0.864-9.5H5.821L6.685,20.25z"
	/>
<path style="fill:#333333;" d="M18.685,21.75h-4.369l-0.5-5.5h-1.714l1.272-7h6.252l1.272,7h-1.714L18.685,21.75z M15.685,20.25
	h1.631l0.5-5.5h1.286l-0.728-4h-3.748l-0.728,4h1.286L15.685,20.25z"/>
</svg>






