<?xml version="1.0" encoding="iso-8859-1"?>
<svg version="1.1" id="&#x56FE;&#x5C42;_1" xmlns="http://www.w3.org/2000/svg" xmlns:xlink="http://www.w3.org/1999/xlink" x="0px"
	 y="0px" viewBox="0 0 24 24" style="enable-background:new 0 0 24 24;" xml:space="preserve">
<path style="fill:#333333;" d="M18.5,22.75c-1.517,0-2.75-1.233-2.75-2.75s1.233-2.75,2.75-2.75s2.75,1.233,2.75,2.75
	S20.017,22.75,18.5,22.75z M18.5,18.75c-0.689,0-1.25,0.561-1.25,1.25s0.561,1.25,1.25,1.25s1.25-0.561,1.25-1.25
	S19.189,18.75,18.5,18.75z"/>
<path style="fill:#333333;" d="M5.5,6.75C3.983,6.75,2.75,5.517,2.75,4S3.983,1.25,5.5,1.25S8.25,2.483,8.25,4S7.017,6.75,5.5,6.75z
	 M5.5,2.75C4.811,2.75,4.25,3.311,4.25,4S4.811,5.25,5.5,5.25S6.75,4.689,6.75,4S6.189,2.75,5.5,2.75z"/>
<path style="fill:#333333;" d="M5.5,22.75c-1.517,0-2.75-1.233-2.75-2.75s1.233-2.75,2.75-2.75S8.25,18.483,8.25,20
	S7.017,22.75,5.5,22.75z M5.5,18.75c-0.689,0-1.25,0.561-1.25,1.25s0.561,1.25,1.25,1.25S6.75,20.689,6.75,20S6.189,18.75,5.5,18.75
	z"/>
<rect x="4.75" y="6" style="fill:#333333;" width="1.5" height="12"/>
<path style="fill:#333333;" d="M19.25,18h-1.5V7c0-0.689-0.561-1.25-1.25-1.25H12v-1.5h4.5c1.517,0,2.75,1.233,2.75,2.75V18z"/>
<polygon style="fill:#333333;" points="14.47,8.53 10.939,5 14.47,1.47 15.53,2.53 13.061,5 15.53,7.47 "/>
</svg>






