<?xml version="1.0" encoding="iso-8859-1"?>
<svg version="1.1" id="&#x56FE;&#x5C42;_1" xmlns="http://www.w3.org/2000/svg" xmlns:xlink="http://www.w3.org/1999/xlink" x="0px"
	 y="0px" viewBox="0 0 24 24" style="enable-background:new 0 0 24 24;" xml:space="preserve">
<path style="fill:#333333;" d="M15.5,20.75h-7c-3.998,0-7.25-3.252-7.25-7.25c0-3.998,3.252-7.25,7.25-7.25h7
	c3.998,0,7.25,3.252,7.25,7.25C22.75,17.498,19.498,20.75,15.5,20.75z M8.5,7.75c-3.17,0-5.75,2.58-5.75,5.75
	c0,3.171,2.58,5.75,5.75,5.75h7c3.171,0,5.75-2.579,5.75-5.75c0-3.17-2.579-5.75-5.75-5.75H8.5z"/>
<path style="fill:#333333;" d="M12,20.75c-2.664,0-4.75-3.185-4.75-7.25S9.336,6.25,12,6.25c2.663,0,4.75,3.185,4.75,7.25
	S14.663,20.75,12,20.75z M12,7.75c-1.762,0-3.25,2.633-3.25,5.75c0,3.117,1.488,5.75,3.25,5.75s3.25-2.633,3.25-5.75
	C15.25,10.383,13.762,7.75,12,7.75z"/>
<path style="fill:#333333;" d="M12.75,7h-1.5V4.5c0-1.241,1.01-2.25,2.25-2.25H15v1.5h-1.5c-0.413,0-0.75,0.336-0.75,0.75V7z"/>
</svg>






