<?xml version="1.0" encoding="iso-8859-1"?>
<svg version="1.1" id="&#x56FE;&#x5C42;_1" xmlns="http://www.w3.org/2000/svg" xmlns:xlink="http://www.w3.org/1999/xlink" x="0px"
	 y="0px" viewBox="0 0 24 24" style="enable-background:new 0 0 24 24;" xml:space="preserve">
<path style="fill:#333333;" d="M5.796,21.189l-0.593-1.379c2.16-0.928,4.23-1.436,6.155-1.509c1.902-0.076,4.364,0.252,7.318,0.97
	l-0.354,1.457c-2.82-0.685-5.144-0.991-6.907-0.929C9.676,19.866,7.786,20.334,5.796,21.189z"/>
<path style="fill:#333333;" d="M10.775,22.061c-0.389-4.784-0.22-8.57,0.501-11.255l1.449,0.389
	c-0.677,2.518-0.829,6.133-0.455,10.745L10.775,22.061z"/>
<path style="fill:#333333;" d="M16.148,13.824c-1.482,0-3.013-0.54-4.575-1.619l-0.434-0.299l0.135-0.509
	c0.863-3.267,2.45-5.256,4.715-5.912c2.204-0.637,4.355-0.343,6.395,0.874l0.363,0.217l0.002,0.424
	c0.011,2.734-1.194,4.766-3.582,6.041C18.188,13.562,17.179,13.824,16.148,13.824z M12.872,11.263
	c2.004,1.241,3.835,1.39,5.59,0.454c1.758-0.938,2.669-2.342,2.777-4.282c-1.567-0.828-3.153-0.995-4.832-0.509
	C14.795,7.392,13.607,8.85,12.872,11.263z"/>
<path style="fill:#333333;" d="M8.705,12.357c-1.863,0-3.489-0.599-4.856-1.792C1.708,8.696,0.884,5.94,1.4,2.373l0.069-0.476
	l0.46-0.136c2.963-0.877,5.619-0.51,7.894,1.09c2.319,1.632,3.267,4.422,2.818,8.292l-0.056,0.48l-0.459,0.147
	C10.91,12.162,9.769,12.357,8.705,12.357z M2.823,3.072C2.511,5.898,3.171,7.983,4.834,9.435c1.653,1.442,3.739,1.788,6.366,1.049
	c0.263-3.063-0.472-5.162-2.241-6.406C7.171,2.819,5.159,2.49,2.823,3.072z"/>
</svg>






