<?xml version="1.0" encoding="iso-8859-1"?>
<svg version="1.1" id="&#x56FE;&#x5C42;_1" xmlns="http://www.w3.org/2000/svg" xmlns:xlink="http://www.w3.org/1999/xlink" x="0px"
	 y="0px" viewBox="0 0 24 24" style="enable-background:new 0 0 24 24;" xml:space="preserve">
<path style="fill:#333333;" d="M12.728,22.182h-1.455L9.415,14.75H4.25V14c0-2.056,2.323-3.902,3.109-4.468l1.769-5.749L7.55,2.6
	L8,1.25h8l0.45,1.35l-1.578,1.184l1.761,5.722c1.27,0.79,3.117,2.313,3.117,4.495v0.75h-5.164L12.728,22.182z M5.935,13.25h4.65
	L12,18.907l1.414-5.657h4.709c-0.43-1.268-1.836-2.214-2.501-2.602L15.369,10.5l-2.241-7.284L13.75,2.75h-3.5l0.622,0.466
	l-2.233,7.259l-0.222,0.148C7.854,11,6.442,12.139,5.935,13.25z"/>
</svg>






