<?xml version="1.0" encoding="iso-8859-1"?>
<svg version="1.1" id="&#x56FE;&#x5C42;_1" xmlns="http://www.w3.org/2000/svg" xmlns:xlink="http://www.w3.org/1999/xlink" x="0px"
	 y="0px" viewBox="0 0 24 24" style="enable-background:new 0 0 24 24;" xml:space="preserve">
<path style="fill:#333333;" d="M17.75,22.75H1.25v-5.5H4c1.241,0,2.25-1.01,2.25-2.25S5.241,12.75,4,12.75H1.25v-7.5h4.5V5
	c0-2.068,1.682-3.75,3.75-3.75S13.25,2.932,13.25,5v0.25h4.5v6H19c2.067,0,3.75,1.683,3.75,3.75s-1.683,3.75-3.75,3.75h-1.25V22.75z
	 M2.75,21.25h13.5v-4H19c1.24,0,2.25-1.01,2.25-2.25s-1.01-2.25-2.25-2.25h-2.75v-6h-4.5V5c0-1.241-1.009-2.25-2.25-2.25
	S7.25,3.759,7.25,5v1.75h-4.5v4.5H4c2.068,0,3.75,1.683,3.75,3.75S6.068,18.75,4,18.75H2.75V21.25z"/>
</svg>






