<?xml version="1.0" encoding="iso-8859-1"?>
<svg version="1.1" id="&#x56FE;&#x5C42;_1" xmlns="http://www.w3.org/2000/svg" xmlns:xlink="http://www.w3.org/1999/xlink" x="0px"
	 y="0px" viewBox="0 0 24 24" style="enable-background:new 0 0 24 24;" xml:space="preserve">
<path style="fill:#333333;" d="M17.714,21.75H1.287L8.829,6.665h1.342L17.714,21.75z M3.713,20.25h11.573L9.5,8.677L3.713,20.25z"/>
<rect x="4.941" y="16" transform="matrix(0.4677 -0.8839 0.8839 0.4677 -9.6151 17.5345)" style="fill:#333333;" width="9.618" height="1.499"/>
<polygon style="fill:#333333;" points="21.75,21.75 16.5,21.75 16.5,20.25 20.417,20.25 17.524,15.486 15.903,18.368 14.597,17.632 
	17.476,12.514 22.391,20.61 "/>
<path style="fill:#333333;" d="M13.177,13.925l-0.369-1.453c2.708-0.688,4.352-3.452,3.664-6.16C16.138,5,15.313,3.896,14.15,3.204
	c-1.164-0.692-2.526-0.888-3.839-0.556C9,2.981,7.896,3.805,7.204,4.969C6.512,6.132,6.314,7.495,6.648,8.807
	c0.164,0.647,0.448,1.245,0.843,1.776l-1.203,0.896c-0.513-0.689-0.881-1.464-1.094-2.303c-0.432-1.7-0.176-3.467,0.721-4.975
	s2.328-2.576,4.028-3.008c1.701-0.432,3.468-0.175,4.975,0.721c1.508,0.897,2.576,2.327,3.008,4.028
	C18.816,9.452,16.687,13.033,13.177,13.925z"/>
<rect x="5" y="20.25" style="fill:#333333;" width="5" height="1.5"/>
<rect x="11.75" y="10.205" transform="matrix(0.8944 -0.4472 0.4472 0.8944 -4.4944 6.9633)" style="fill:#333333;" width="1.5" height="5.59"/>
</svg>






