<?xml version="1.0" encoding="iso-8859-1"?>
<svg version="1.1" id="&#x56FE;&#x5C42;_1" xmlns="http://www.w3.org/2000/svg" xmlns:xlink="http://www.w3.org/1999/xlink" x="0px"
	 y="0px" viewBox="0 0 24 24" style="enable-background:new 0 0 24 24;" xml:space="preserve">
<path style="fill:#333333;" d="M19.706,20.75H3.5c-1.241,0-2.25-1.01-2.25-2.25v-13c0-1.241,1.009-2.25,2.25-2.25h10.519
	c0.894,0,1.703,0.529,2.062,1.348l5.688,13c0.305,0.698,0.238,1.496-0.179,2.134S20.469,20.75,19.706,20.75z M3.5,4.75
	c-0.414,0-0.75,0.336-0.75,0.75v13c0,0.413,0.336,0.75,0.75,0.75h16.206c0.258,0,0.487-0.124,0.628-0.34
	c0.142-0.216,0.163-0.475,0.06-0.711l-5.688-13c-0.119-0.273-0.39-0.45-0.688-0.45H3.5z"/>
</svg>






