<?xml version="1.0" encoding="iso-8859-1"?>
<svg version="1.1" id="&#x56FE;&#x5C42;_1" xmlns="http://www.w3.org/2000/svg" xmlns:xlink="http://www.w3.org/1999/xlink" x="0px"
	 y="0px" viewBox="0 0 24 24" style="enable-background:new 0 0 24 24;" xml:space="preserve">
<path style="fill:#333333;" d="M3.75,22h-1.5V12c0.058-0.609,0.427-3.194,2.613-5.077L3.47,5.53
	C2.668,4.554,2.632,3.058,3.335,2.068c0.713-1.004,1.991-1.292,3.421-0.773c0.948,0.469,1.487,1.058,2.009,1.628
	C8.929,3.103,9.097,3.286,9.28,3.47l3.461,3.778c0.439,0.6,1.257,1.716,1.005,4.059l-1.492-0.16c0.19-1.765-0.359-2.515-0.723-3.012
	c-0.043-0.059-0.083-0.114-0.119-0.165L8.2,4.51c-0.18-0.18-0.363-0.379-0.542-0.575C7.189,3.423,6.785,2.981,6.165,2.671
	C5.692,2.503,4.952,2.382,4.558,2.937C4.243,3.381,4.253,4.124,4.581,4.526l2.596,2.591L6.416,7.624
	c-2.268,1.512-2.622,3.973-2.67,4.451L3.75,22z"/>
<path style="fill:#333333;" d="M17.272,22.182c-0.076-0.305-0.168-0.69-0.269-1.11c-0.221-0.932-0.497-2.09-0.724-2.859
	c-1.389-3.699-6.27-4.962-8.28-4.962v-1.5c2.433,0,8.006,1.463,9.702,5.986c0.255,0.859,0.536,2.039,0.762,2.987
	c0.099,0.414,0.188,0.794,0.264,1.095L17.272,22.182z"/>
<path style="fill:#333333;" d="M9.75,22h-1.5c0-1.357,0.544-3.285,2.073-4.623c1.424-1.247,3.37-1.715,5.777-1.395L15.9,17.469
	c-1.964-0.261-3.505,0.087-4.589,1.037C10.159,19.515,9.75,21.019,9.75,22z"/>
<circle style="fill:#333333;" cx="20.25" cy="20.726" r="1"/>
</svg>






