<?xml version="1.0" encoding="iso-8859-1"?>
<svg version="1.1" id="&#x56FE;&#x5C42;_1" xmlns="http://www.w3.org/2000/svg" xmlns:xlink="http://www.w3.org/1999/xlink" x="0px"
	 y="0px" viewBox="0 0 24 24" style="enable-background:new 0 0 24 24;" xml:space="preserve">
<path style="fill:#333333;" d="M12,22.75c-5.101,0-9.25-3.028-9.25-6.75S6.899,9.25,12,9.25s9.25,3.028,9.25,6.75
	S17.101,22.75,12,22.75z M12,10.75c-4.273,0-7.75,2.355-7.75,5.25s3.477,5.25,7.75,5.25s7.75-2.355,7.75-5.25S16.273,10.75,12,10.75
	z"/>
<circle style="fill:#333333;" cx="9" cy="14.706" r="1"/>
<circle style="fill:#333333;" cx="12" cy="17.706" r="1"/>
<circle style="fill:#333333;" cx="15" cy="14.706" r="1"/>
<path style="fill:#333333;" d="M5.641,11.288c-0.718-1.729-1.884-5.736-1.16-8.52c0.104-0.287,0.427-1.004,1.249-1.349
	C6.153,1.241,6.85,1.115,7.765,1.521C8.15,1.691,8.7,2.155,8.994,2.906C9.559,4.118,9.027,8.67,8.768,10.6L7.281,10.4
	C7.66,7.576,7.908,4.159,7.647,3.563L7.604,3.47c-0.157-0.417-0.448-0.578-0.451-0.58C6.814,2.74,6.529,2.711,6.31,2.802
	C6.081,2.898,5.95,3.11,5.909,3.221C5.354,5.37,6.27,8.889,7.026,10.712L5.641,11.288z"/>
<path style="fill:#333333;" d="M18.386,11.288l-1.385-0.576c0.721-1.734,1.646-5.322,1.063-7.567
	c-0.018-0.035-0.149-0.247-0.378-0.343c-0.22-0.092-0.505-0.062-0.849,0.09l0,0c0.001,0-0.291,0.163-0.446,0.577l-0.049,0.106
	c-0.246,0.547,0.007,3.708,0.4,6.312l-1.482,0.225c-0.271-1.785-0.827-6.005-0.259-7.208c0.293-0.749,0.843-1.212,1.229-1.383
	c0.916-0.405,1.613-0.279,2.035-0.102c0.822,0.344,1.146,1.062,1.227,1.273C20.25,5.591,19.098,9.576,18.386,11.288z"/>
</svg>






