<?xml version="1.0" encoding="iso-8859-1"?>
<svg version="1.1" id="&#x56FE;&#x5C42;_1" xmlns="http://www.w3.org/2000/svg" xmlns:xlink="http://www.w3.org/1999/xlink" x="0px"
	 y="0px" viewBox="0 0 24 24" style="enable-background:new 0 0 24 24;" xml:space="preserve">
<path style="fill:#333333;" d="M12,22.75C6.072,22.75,1.25,17.928,1.25,12S6.072,1.25,12,1.25S22.75,6.072,22.75,12
	S17.928,22.75,12,22.75z M12,2.75c-5.101,0-9.25,4.149-9.25,9.25s4.149,9.25,9.25,9.25s9.25-4.149,9.25-9.25S17.101,2.75,12,2.75z"
	/>
<path style="fill:#333333;" d="M12,17.75c-3.17,0-5.75-2.579-5.75-5.75c0-3.17,2.58-5.75,5.75-5.75c3.171,0,5.75,2.58,5.75,5.75
	C17.75,15.171,15.171,17.75,12,17.75z M12,7.75c-2.343,0-4.25,1.907-4.25,4.25c0,2.344,1.907,4.25,4.25,4.25
	c2.344,0,4.25-1.906,4.25-4.25C16.25,9.657,14.344,7.75,12,7.75z"/>
<rect x="11.25" y="2" style="fill:#333333;" width="1.5" height="20"/>
<rect x="2" y="11.252" style="fill:#333333;" width="7" height="1.5"/>
<rect x="2" y="11.254" style="fill:#333333;" width="20" height="1.5"/>
</svg>






