<?xml version="1.0" encoding="iso-8859-1"?>
<svg version="1.1" id="&#x56FE;&#x5C42;_1" xmlns="http://www.w3.org/2000/svg" xmlns:xlink="http://www.w3.org/1999/xlink" x="0px"
	 y="0px" viewBox="0 0 24 24" style="enable-background:new 0 0 24 24;" xml:space="preserve">
<rect x="11.25" y="2" style="fill:#333333;" width="1.5" height="8.5"/>
<path style="fill:#333333;" d="M12,22.75C6.072,22.75,1.25,17.928,1.25,12S6.072,1.25,12,1.25v1.5c-5.101,0-9.25,4.149-9.25,9.25
	s4.149,9.25,9.25,9.25s9.25-4.149,9.25-9.25c0-2.078-0.673-4.041-1.945-5.676l1.184-0.921C21.968,7.304,22.75,9.585,22.75,12
	C22.75,17.928,17.928,22.75,12,22.75z"/>
<path style="fill:#333333;" d="M12,18.25c-3.446,0-6.25-2.804-6.25-6.25S8.554,5.75,12,5.75v1.5c-2.619,0-4.75,2.131-4.75,4.75
	s2.131,4.75,4.75,4.75s4.75-2.131,4.75-4.75c0-1.067-0.346-2.075-0.999-2.914l1.184-0.922c0.86,1.105,1.315,2.432,1.315,3.836
	C18.25,15.446,15.446,18.25,12,18.25z"/>
<path style="fill:#333333;" d="M12,14.25c-1.241,0-2.25-1.01-2.25-2.25c0-1.241,1.009-2.25,2.25-2.25c1.24,0,2.25,1.009,2.25,2.25
	C14.25,13.24,13.24,14.25,12,14.25z M12,11.25c-0.414,0-0.75,0.336-0.75,0.75c0,0.413,0.336,0.75,0.75,0.75
	c0.413,0,0.75-0.337,0.75-0.75C12.75,11.586,12.413,11.25,12,11.25z"/>
</svg>






