<?xml version="1.0" encoding="iso-8859-1"?>
<svg version="1.1" id="&#x56FE;&#x5C42;_1" xmlns="http://www.w3.org/2000/svg" xmlns:xlink="http://www.w3.org/1999/xlink" x="0px"
	 y="0px" viewBox="0 0 24 24" style="enable-background:new 0 0 24 24;" xml:space="preserve">
<path style="fill:#333333;" d="M12,22.75C6.072,22.75,1.25,17.928,1.25,12S6.072,1.25,12,1.25h0.75V10h-1.5V2.78
	C6.499,3.163,2.75,7.152,2.75,12c0,5.101,4.149,9.25,9.25,9.25s9.25-4.149,9.25-9.25h1.5C22.75,17.928,17.928,22.75,12,22.75z"/>
<path style="fill:#333333;" d="M12,14.75c-1.517,0-2.75-1.233-2.75-2.75S10.483,9.25,12,9.25s2.75,1.233,2.75,2.75
	S13.517,14.75,12,14.75z M12,10.75c-0.689,0-1.25,0.561-1.25,1.25s0.561,1.25,1.25,1.25s1.25-0.561,1.25-1.25S12.689,10.75,12,10.75
	z"/>
</svg>






