<?xml version="1.0" encoding="iso-8859-1"?>
<svg version="1.1" id="&#x56FE;&#x5C42;_1" xmlns="http://www.w3.org/2000/svg" xmlns:xlink="http://www.w3.org/1999/xlink" x="0px"
	 y="0px" viewBox="0 0 24 24" style="enable-background:new 0 0 24 24;" xml:space="preserve">
<path style="fill:#333333;" d="M20.5,21.25h-17c-0.965,0-1.75-0.785-1.75-1.75v-12c0-0.965,0.785-1.75,1.75-1.75h17
	c0.965,0,1.75,0.785,1.75,1.75v12C22.25,20.465,21.465,21.25,20.5,21.25z M3.5,7.25c-0.138,0-0.25,0.112-0.25,0.25v12
	c0,0.138,0.112,0.25,0.25,0.25h17c0.138,0,0.25-0.112,0.25-0.25v-12c0-0.138-0.112-0.25-0.25-0.25H3.5z"/>
<path style="fill:#333333;" d="M9,17.75c-2.068,0-3.75-1.683-3.75-3.75c0-2.068,1.682-3.75,3.75-3.75s3.75,1.682,3.75,3.75
	C12.75,16.067,11.068,17.75,9,17.75z M9,11.75c-1.241,0-2.25,1.01-2.25,2.25S7.759,16.25,9,16.25s2.25-1.01,2.25-2.25
	S10.241,11.75,9,11.75z"/>
<rect x="15" y="11.25" style="fill:#333333;" width="3" height="1.5"/>
<rect x="15" y="15.25" style="fill:#333333;" width="3" height="1.5"/>
<rect x="2.969" y="3.5" transform="matrix(0.8944 -0.4472 0.4472 0.8944 -1.0561 4.0264)" style="fill:#333333;" width="10.062" height="1.5"/>
</svg>






