<?xml version="1.0" encoding="iso-8859-1"?>
<svg version="1.1" id="&#x56FE;&#x5C42;_1" xmlns="http://www.w3.org/2000/svg" xmlns:xlink="http://www.w3.org/1999/xlink" x="0px"
	 y="0px" viewBox="0 0 24 24" style="enable-background:new 0 0 24 24;" xml:space="preserve">
<path style="fill:#333333;" d="M17,22.75H7c-0.965,0-1.75-0.784-1.75-1.749V10.844C5.25,7.084,8.152,4.25,12,4.25
	c3.848,0,6.75,2.834,6.75,6.594v10.157C18.75,21.966,17.965,22.75,17,22.75z M12,5.75c-2.993,0-5.25,2.19-5.25,5.094v10.157
	c0,0.138,0.112,0.249,0.25,0.249h10c0.138,0,0.25-0.111,0.25-0.249V10.844C17.25,7.94,14.993,5.75,12,5.75z"/>
<path style="fill:#333333;" d="M12,14.25c-1.517,0-2.75-1.233-2.75-2.75S10.483,8.75,12,8.75s2.75,1.233,2.75,2.75
	S13.517,14.25,12,14.25z M12,10.25c-0.689,0-1.25,0.561-1.25,1.25s0.561,1.25,1.25,1.25s1.25-0.561,1.25-1.25S12.689,10.25,12,10.25
	z"/>
<rect x="9" y="16.25" style="fill:#333333;" width="1" height="1.5"/>
<rect x="13" y="18.25" style="fill:#333333;" width="2" height="1.5"/>
<rect x="5.25" y="2" style="fill:#333333;" width="1.5" height="8"/>
</svg>






