<?xml version="1.0" encoding="iso-8859-1"?>
<svg version="1.1" id="&#x56FE;&#x5C42;_1" xmlns="http://www.w3.org/2000/svg" xmlns:xlink="http://www.w3.org/1999/xlink" x="0px"
	 y="0px" viewBox="0 0 24 24" style="enable-background:new 0 0 24 24;" xml:space="preserve">
<path style="fill:#333333;" d="M12,23.021l-0.509-0.47C11.216,22.297,4.75,16.274,4.75,11.6c0-4.053,3.252-7.35,7.25-7.35
	c3.998,0,7.25,3.297,7.25,7.35c0,4.674-6.466,10.697-6.741,10.951L12,23.021z M12,5.75c-3.17,0-5.75,2.625-5.75,5.85
	c0,3.049,3.767,7.402,5.747,9.358c1.49-1.483,5.753-6.023,5.753-9.358C17.75,8.375,15.171,5.75,12,5.75z"/>
<rect x="11.25" y="2" style="fill:#333333;" width="1.5" height="3"/>
<rect x="9.25" y="2.149" transform="matrix(0.7809 -0.6247 0.6247 0.7809 -0.1513 7.0687)" style="fill:#333333;" width="1.5" height="3.202"/>
<rect x="12.399" y="3" transform="matrix(0.6247 -0.7809 0.7809 0.6247 2.326 12.3396)" style="fill:#333333;" width="3.202" height="1.501"/>
<rect x="6" y="9.25" style="fill:#333333;" width="4" height="1.5"/>
<rect x="14.5" y="12.75" style="fill:#333333;" width="3.5" height="1.5"/>
<rect x="8" y="16.25" style="fill:#333333;" width="3" height="1.5"/>
<path style="fill:#333333;" d="M9.44,20.433c-2.14-2.398-4.69-5.879-4.69-8.833c0-1.674,0.541-3.252,1.565-4.562l1.182,0.924
	C6.681,9.005,6.25,10.264,6.25,11.6c0,1.936,1.531,4.718,4.31,7.834L9.44,20.433z"/>
<path style="fill:#333333;" d="M17.612,16.388l-1.285-0.775c0.944-1.564,1.423-2.914,1.423-4.012h1.5
	C19.25,12.975,18.699,14.585,17.612,16.388z"/>
</svg>






