<?xml version="1.0" encoding="iso-8859-1"?>
<svg version="1.1" id="&#x56FE;&#x5C42;_1" xmlns="http://www.w3.org/2000/svg" xmlns:xlink="http://www.w3.org/1999/xlink" x="0px"
	 y="0px" viewBox="0 0 24 24" style="enable-background:new 0 0 24 24;" xml:space="preserve">
<path style="fill:#333333;" d="M19,11.75v-1.5c0.292,0,1.75-0.036,1.75-0.75c0-0.576-0.234-0.968-1.435-1.273l0.369-1.454
	C20.319,6.934,22.25,7.425,22.25,9.5C22.25,10.909,21.035,11.75,19,11.75z"/>
<path style="fill:#333333;" d="M13.75,5h-1.5c0-1.883,1.156-3.25,2.75-3.25c1.373,0,2.129,0.553,2.696,1.972l-1.393,0.557
	C15.926,3.334,15.661,3.25,15,3.25C14.264,3.25,13.75,3.97,13.75,5z"/>
<path style="fill:#333333;" d="M18.304,9.186l-0.609-1.371c0,0,0.539-0.254,1.211-0.925c0.5-0.5,0.5-1.314,0-1.814
	c-0.393-0.392-1.257-0.351-1.929,0.094c-0.276,0.184-0.636,0.787-0.792,1.136l-1.369-0.611c0.094-0.211,0.601-1.289,1.331-1.774
	c1.296-0.862,2.901-0.823,3.819,0.094c1.085,1.085,1.085,2.85,0,3.935C19.097,8.819,18.382,9.15,18.304,9.186z"/>
<path style="fill:#333333;" d="M10.901,22.25c-1.229,0-2.427-0.257-3.563-0.763C3.233,22.294,2.68,21.742,2.47,21.53
	c-0.21-0.21-0.763-0.763,0.041-4.884C1.008,13.293,1.795,9.144,4.47,6.47c1.677-1.677,3.916-2.563,6.474-2.563l0,0
	c2.451,0,4.611,0.954,6.423,2.836c1.833,1.904,2.687,3.93,2.687,6.376c0,2.545-0.873,4.763-2.523,6.412
	C15.78,21.235,13.305,22.25,10.901,22.25z M7.528,19.919l0.227,0.108c1,0.479,2.059,0.723,3.146,0.723
	c1.991,0,4.128-0.876,5.575-2.287c1.376-1.375,2.077-3.176,2.077-5.345c0-2.034-0.721-3.729-2.267-5.336
	C14.748,6.184,13,5.406,10.944,5.406c-2.152,0-4.024,0.734-5.414,2.124c-2.292,2.292-2.935,5.867-1.562,8.693l0.11,0.228
	l-0.05,0.248c-0.277,1.38-0.496,3.066-0.441,3.713c0.649,0.051,2.322-0.165,3.693-0.443L7.528,19.919z M3.4,20.378L3.4,20.378z"/>
<path style="fill:#333333;" d="M5.329,15.835c-0.727-1.453-2.605-1.113-2.686-1.099l-0.291-1.472c1.057-0.213,3.324-0.087,4.318,1.9
	L5.329,15.835z"/>
<path style="fill:#333333;" d="M9.728,21.182l-1.455-0.363L9,21l-0.728-0.18c0.101-0.415,0.263-1.725-0.302-2.29L9.03,17.47
	C10.294,18.733,9.79,20.935,9.728,21.182z"/>
<path style="fill:#333333;" d="M10.901,22.25c-1.315,0-2.592-0.293-3.795-0.87l0.649-1.352c0.998,0.479,2.057,0.722,3.146,0.722
	V22.25z"/>
<path style="fill:#333333;" d="M2.62,16.88C0.972,13.487,1.733,9.207,4.47,6.47L5.531,7.53c-2.292,2.292-2.935,5.867-1.562,8.693
	L2.62,16.88z"/>
</svg>






