<?xml version="1.0" encoding="iso-8859-1"?>
<svg version="1.1" id="&#x56FE;&#x5C42;_1" xmlns="http://www.w3.org/2000/svg" xmlns:xlink="http://www.w3.org/1999/xlink" x="0px"
	 y="0px" viewBox="0 0 24 24" style="enable-background:new 0 0 24 24;" xml:space="preserve">
<path style="fill:#333333;" d="M12.002,13.5c0.828,0,1.5-0.672,1.5-1.5s-0.672-1.5-1.5-1.5c-0.828,0-1.5,0.672-1.5,1.5
	S11.174,13.5,12.002,13.5z"/>
<path style="fill:#333333;" d="M12,22.75c-2.117,0-4.166-0.616-5.925-1.783l-0.623-0.413l3.855-5.856l0.627,0.416
	c1.226,0.812,2.905,0.812,4.13,0l0.628-0.416l3.855,5.856l-0.623,0.413C16.166,22.134,14.117,22.75,12,22.75z M7.543,20.104
	c2.72,1.502,6.193,1.504,8.914,0l-2.22-3.37c-1.391,0.656-3.083,0.656-4.475,0L7.543,20.104z M22.687,13.366l-6.983-0.42l0.04-0.745
	c0.004-0.076,0.007-0.152,0.007-0.229c0-1.434-0.795-2.724-2.074-3.367l-0.668-0.336l3.129-6.277L16.81,2.33
	c3.664,1.841,5.94,5.536,5.94,9.642c0,0.217-0.006,0.432-0.019,0.645L22.687,13.366z M17.232,11.535l4.016,0.242
	c-0.065-3.205-1.742-6.098-4.453-7.742l-1.801,3.612C16.284,8.541,17.104,9.957,17.232,11.535z M1.313,13.366l-0.044-0.75
	c-0.013-0.213-0.019-0.428-0.019-0.645c0-4.106,2.276-7.801,5.94-9.642l0.672-0.337l3.13,6.277l-0.668,0.336
	C9.044,9.247,8.25,10.537,8.25,11.972c0,0.076,0.002,0.15,0.006,0.226l0.045,0.749L1.313,13.366z M7.205,4.035
	c-2.711,1.644-4.387,4.537-4.453,7.742l4.016-0.242C6.896,9.957,7.716,8.54,9.006,7.647L7.205,4.035z"/>
</svg>






