<?xml version="1.0" encoding="iso-8859-1"?>
<svg version="1.1" id="&#x56FE;&#x5C42;_1" xmlns="http://www.w3.org/2000/svg" xmlns:xlink="http://www.w3.org/1999/xlink" x="0px"
	 y="0px" viewBox="0 0 24 24" style="enable-background:new 0 0 24 24;" xml:space="preserve">
<path style="fill:#333333;" d="M20.5,21.75h-17c-0.965,0-1.75-0.785-1.75-1.75V8c0-0.965,0.785-1.75,1.75-1.75h17
	c0.965,0,1.75,0.785,1.75,1.75v12C22.25,20.965,21.465,21.75,20.5,21.75z M3.5,7.75C3.362,7.75,3.25,7.862,3.25,8v12
	c0,0.138,0.112,0.25,0.25,0.25h17c0.138,0,0.25-0.112,0.25-0.25V8c0-0.138-0.112-0.25-0.25-0.25H3.5z"/>
<rect x="16" y="10.25" style="fill:#333333;" width="2" height="1.5"/>
<rect x="16" y="13.25" style="fill:#333333;" width="2" height="1.5"/>
<rect x="16" y="16.25" style="fill:#333333;" width="2" height="1.5"/>
<path style="fill:#333333;" d="M9,18.25c-2.343,0-4.25-1.906-4.25-4.25c0-2.343,1.907-4.25,4.25-4.25s4.25,1.907,4.25,4.25
	C13.25,16.344,11.343,18.25,9,18.25z M9,11.25c-1.517,0-2.75,1.233-2.75,2.75S7.483,16.75,9,16.75s2.75-1.233,2.75-2.75
	S10.517,11.25,9,11.25z"/>
<polygon style="fill:#333333;" points="19.75,7 18.25,7 18.25,3.75 5.75,3.75 5.75,7 4.25,7 4.25,2.25 19.75,2.25 "/>
</svg>






