<?xml version="1.0" encoding="iso-8859-1"?>
<svg version="1.1" id="&#x56FE;&#x5C42;_1" xmlns="http://www.w3.org/2000/svg" xmlns:xlink="http://www.w3.org/1999/xlink" x="0px"
	 y="0px" viewBox="0 0 24 24" style="enable-background:new 0 0 24 24;" xml:space="preserve">
<path style="fill:#333333;" d="M17,16.75H7c-0.965,0-1.75-0.785-1.75-1.75V3c0-0.965,0.785-1.75,1.75-1.75h10
	c0.965,0,1.75,0.785,1.75,1.75v12C18.75,15.965,17.965,16.75,17,16.75z M7,2.75C6.862,2.75,6.75,2.862,6.75,3v12
	c0,0.138,0.112,0.25,0.25,0.25h10c0.138,0,0.25-0.112,0.25-0.25V3c0-0.138-0.112-0.25-0.25-0.25H7z"/>
<circle style="fill:#333333;" cx="9" cy="13" r="1"/>
<circle style="fill:#333333;" cx="15" cy="13" r="1"/>
<rect x="6" y="9.25" style="fill:#333333;" width="12" height="1.5"/>
<rect x="10.5" y="18.25" style="fill:#333333;" width="3" height="1.5"/>
<rect x="9" y="21.25" style="fill:#333333;" width="6" height="1.5"/>
<rect x="3.646" y="18.25" transform="matrix(0.4467 -0.8947 0.8947 0.4467 -13.1259 16.7757)" style="fill:#333333;" width="6.708" height="1.5"/>
<rect x="16.25" y="15.646" transform="matrix(0.8944 -0.4472 0.4472 0.8944 -6.7023 9.6085)" style="fill:#333333;" width="1.5" height="6.708"/>
<rect x="17.25" y="7.5" style="fill:#333333;" width="1.5" height="5"/>
<rect x="5.25" y="7.5" style="fill:#333333;" width="1.5" height="5"/>
</svg>






