<?xml version="1.0" encoding="iso-8859-1"?>
<svg version="1.1" id="&#x56FE;&#x5C42;_1" xmlns="http://www.w3.org/2000/svg" xmlns:xlink="http://www.w3.org/1999/xlink" x="0px"
	 y="0px" viewBox="0 0 24 24" style="enable-background:new 0 0 24 24;" xml:space="preserve">
<g>
	<defs>
		<rect id="SVGID_1_" width="24" height="24"/>
	</defs>
	<clipPath id="SVGID_00000124133340125936051080000000790474101955785903_">
		<use xlink:href="#SVGID_1_"  style="overflow:visible;"/>
	</clipPath>
	<g style="clip-path:url(#SVGID_00000124133340125936051080000000790474101955785903_);">
		<path style="fill:#333333;" d="M15.032,14.028c-1.418,0-2.844-0.479-4.012-1.46c-2.64-2.215-2.985-6.165-0.771-8.805
			c1.073-1.279,2.58-2.063,4.243-2.209c1.674-0.146,3.284,0.366,4.562,1.439c2.64,2.215,2.985,6.165,0.771,8.805
			C18.591,13.27,16.817,14.028,15.032,14.028z M15.046,3.031c-0.141,0-0.281,0.006-0.423,0.019c-1.264,0.11-2.409,0.707-3.224,1.678
			c-1.684,2.006-1.421,5.008,0.585,6.692c2.005,1.684,5.009,1.422,6.693-0.585c1.683-2.006,1.42-5.009-0.587-6.692v0
			C17.228,3.418,16.159,3.031,15.046,3.031z"/>
		<path style="fill:#333333;" d="M6.393,8.36L5.244,7.395c0.261-0.31,0.236-0.705,0.17-1.377c-0.076-0.772-0.17-1.734,0.548-2.589
			c1.002-1.193,2.035-0.761,2.866-0.412c0.545,0.229,1.183,0.482,1.988,0.479l0.016,1.5c-1.103,0-1.972-0.339-2.584-0.596
			C7.402,4.044,7.375,4.077,7.111,4.393C6.813,4.748,6.839,5.186,6.907,5.872C6.98,6.62,7.071,7.551,6.393,8.36z"/>
		<path style="fill:#333333;" d="M6.073,21.816c-0.728,0-1.467-0.271-2.124-0.821c-1.465-1.23-1.63-3.113-0.401-4.578
			c0.593-0.708,1.353-1.131,2.023-1.504c0.524-0.291,1.02-0.567,1.314-0.918c0.255-0.305,0.609-0.713,0.983-1.146
			c0.703-0.812,1.666-1.923,1.847-2.216l1.274,0.792c-0.227,0.365-0.934,1.189-1.987,2.405c-0.368,0.426-0.717,0.828-0.968,1.128
			c-0.473,0.563-1.114,0.92-1.734,1.266c-0.611,0.34-1.188,0.661-1.604,1.156c-0.693,0.826-0.611,1.771,0.216,2.466
			c0.827,0.694,1.772,0.609,2.465-0.217c0.415-0.494,0.631-1.118,0.86-1.778c0.232-0.671,0.473-1.365,0.945-1.929l2.893-3.447
			l1.148,0.965l-2.892,3.447c-0.295,0.351-0.48,0.887-0.677,1.455c-0.251,0.725-0.535,1.545-1.128,2.252
			C7.849,21.404,6.97,21.816,6.073,21.816z"/>
		<path style="fill:#333333;" d="M5.618,11.918c-0.511,0-1.023-0.172-1.444-0.525c-0.951-0.798-1.075-2.22-0.278-3.17
			c0.387-0.46,0.929-0.743,1.528-0.795C6.021,7.375,6.606,7.56,7.066,7.946c0.46,0.386,0.743,0.929,0.795,1.527
			c0.053,0.599-0.131,1.182-0.518,1.642C6.899,11.646,6.261,11.918,5.618,11.918z M5.622,8.919c-0.022,0-0.044,0.001-0.067,0.003
			c-0.2,0.018-0.38,0.112-0.509,0.265c-0.266,0.317-0.225,0.791,0.092,1.057c0.317,0.266,0.791,0.224,1.057-0.092
			c0.129-0.154,0.19-0.348,0.173-0.547c-0.018-0.2-0.112-0.38-0.265-0.509l0,0C5.965,8.98,5.797,8.919,5.622,8.919z"/>
		<path style="fill:#333333;" d="M14.229,21.103c-0.51,0-1.023-0.172-1.443-0.524c-0.951-0.8-1.075-2.222-0.277-3.171
			c0.797-0.949,2.219-1.075,3.169-0.278l0.001,0.001c0.46,0.387,0.742,0.929,0.795,1.527s-0.132,1.182-0.519,1.643
			C15.51,20.829,14.872,21.103,14.229,21.103z M14.232,18.104c-0.215,0-0.428,0.092-0.575,0.268
			c-0.267,0.317-0.225,0.791,0.092,1.058c0.315,0.265,0.791,0.224,1.056-0.093c0.13-0.154,0.191-0.349,0.174-0.548
			s-0.111-0.38-0.265-0.509l0,0C14.573,18.161,14.402,18.104,14.232,18.104z"/>
		<path style="fill:#333333;" d="M18.208,18.003c-0.362,0-0.731-0.058-1.079-0.112c-0.967-0.151-1.156-0.111-1.235,0.089
			l-1.395-0.551c0.546-1.383,1.995-1.156,2.862-1.02c0.436,0.067,1.03,0.163,1.209,0.02c0.366-0.293-0.121-2.029-0.355-2.863
			c-0.135-0.479-0.263-0.938-0.343-1.336l1.471-0.295c0.073,0.365,0.192,0.786,0.316,1.226c0.464,1.652,0.989,3.525-0.151,4.438
			C19.119,17.91,18.668,18.003,18.208,18.003z"/>
	</g>
</g>
</svg>






