<?xml version="1.0" encoding="iso-8859-1"?>
<svg version="1.1" id="&#x56FE;&#x5C42;_1" xmlns="http://www.w3.org/2000/svg" xmlns:xlink="http://www.w3.org/1999/xlink" x="0px"
	 y="0px" viewBox="0 0 24 24" style="enable-background:new 0 0 24 24;" xml:space="preserve">
<path style="fill:#333333;" d="M20.5,13.25h-17c-0.965,0-1.75-0.785-1.75-1.75v-8c0-0.965,0.785-1.75,1.75-1.75h17
	c0.965,0,1.75,0.785,1.75,1.75v8C22.25,12.465,21.465,13.25,20.5,13.25z M3.5,3.25c-0.138,0-0.25,0.112-0.25,0.25v8
	c0,0.138,0.112,0.25,0.25,0.25h17c0.138,0,0.25-0.112,0.25-0.25v-8c0-0.138-0.112-0.25-0.25-0.25H3.5z"/>
<rect x="6.25" y="2.5" style="fill:#333333;" width="1.5" height="10"/>
<rect x="16.25" y="2.5" style="fill:#333333;" width="1.5" height="10"/>
<rect x="15" y="1.75" style="fill:#333333;" width="4" height="1.5"/>
<rect x="2.5" y="4.75" style="fill:#333333;" width="19" height="1.5"/>
<rect x="2.5" y="8.75" style="fill:#333333;" width="19" height="1.5"/>
<rect x="1.75" y="4.5" style="fill:#333333;" width="1.5" height="6"/>
<rect x="20.75" y="4.5" style="fill:#333333;" width="1.5" height="6"/>
<rect x="5" y="1.75" style="fill:#333333;" width="4" height="1.5"/>
<rect x="15" y="11.75" style="fill:#333333;" width="4" height="1.5"/>
<rect x="5" y="11.75" style="fill:#333333;" width="4" height="1.5"/>
<path style="fill:#333333;" d="M12,17.25c-2.619,0-4.75-2.131-4.75-4.75h1.5c0,1.792,1.458,3.25,3.25,3.25s3.25-1.458,3.25-3.25h1.5
	C16.75,15.119,14.619,17.25,12,17.25z"/>
<polygon style="fill:#333333;" points="14.25,22 12.75,22 12.765,18.353 13.265,15.853 14.735,16.147 14.25,18.574 "/>
<polygon style="fill:#333333;" points="11.25,22 9.75,22 9.75,18.574 9.265,16.147 10.735,15.853 11.25,18.5 "/>
</svg>






