<?xml version="1.0" encoding="iso-8859-1"?>
<svg version="1.1" id="&#x56FE;&#x5C42;_1" xmlns="http://www.w3.org/2000/svg" xmlns:xlink="http://www.w3.org/1999/xlink" x="0px"
	 y="0px" viewBox="0 0 24 24" style="enable-background:new 0 0 24 24;" xml:space="preserve">
<path style="fill:#333333;" d="M11.421,22.477C10,20.75,4.915,20.75,3,20.75H2.25V8.25H3c5.019,0,8.24,0.998,9.352,1.587
	l0.398,0.211V22L11.421,22.477z M3.75,19.252c2.136,0.014,5.404,0.137,7.5,1.235v-9.504c-1.079-0.432-3.643-1.142-7.5-1.225V19.252z
	"/>
<path style="fill:#333333;" d="M12.579,22.477L11.25,22V10.049l0.398-0.211C12.76,9.248,15.979,8.25,21,8.25h0.75v12.5H21
	C19.085,20.75,14,20.75,12.579,22.477z M12.75,10.983v9.504c2.097-1.099,5.363-1.222,7.5-1.235V9.758
	C16.392,9.841,13.829,10.551,12.75,10.983z"/>
<path style="fill:#333333;" d="M12,10.75c-2.619,0-4.75-2.131-4.75-4.75S9.381,1.25,12,1.25S16.75,3.381,16.75,6
	S14.619,10.75,12,10.75z M12,2.75c-1.792,0-3.25,1.458-3.25,3.25S10.208,9.25,12,9.25S15.25,7.792,15.25,6S13.792,2.75,12,2.75z"/>
</svg>






