<?xml version="1.0" encoding="iso-8859-1"?>
<svg version="1.1" id="&#x56FE;&#x5C42;_1" xmlns="http://www.w3.org/2000/svg" xmlns:xlink="http://www.w3.org/1999/xlink" x="0px"
	 y="0px" viewBox="0 0 24 24" style="enable-background:new 0 0 24 24;" xml:space="preserve">
<path style="fill:#333333;" d="M18.212,21.75H5.789c-0.812,0-1.512-0.552-1.702-1.342l-2.52-10.5C1.441,9.384,1.56,8.84,1.894,8.417
	S2.729,7.75,3.269,7.75h17.463c0.539,0,1.04,0.243,1.374,0.666s0.453,0.967,0.328,1.492l-2.521,10.5
	C19.724,21.198,19.024,21.75,18.212,21.75z M3.025,9.559l2.52,10.5c0.027,0.112,0.127,0.191,0.243,0.191h12.423
	c0.116,0,0.216-0.078,0.242-0.191l2.521-10.5c0.024-0.102-0.019-0.177-0.047-0.213S20.837,9.25,20.731,9.25H3.269
	c-0.105,0-0.168,0.06-0.197,0.095C3.044,9.381,3,9.456,3.025,9.559L3.025,9.559z"/>
<path style="fill:#333333;" d="M10.25,9.25h-5.5v-6.5h5.5V9.25z M6.25,7.75h2.5v-3.5h-2.5V7.75z"/>
<polygon style="fill:#333333;" points="18.562,9.109 12.92,5.046 10.108,8.939 8.892,8.061 12.58,2.954 19.438,7.891 "/>
<rect x="7.5" y="11.75" style="fill:#333333;" width="4" height="1.5"/>
</svg>






