<?xml version="1.0" encoding="iso-8859-1"?>
<svg version="1.1" id="&#x56FE;&#x5C42;_1" xmlns="http://www.w3.org/2000/svg" xmlns:xlink="http://www.w3.org/1999/xlink" x="0px"
	 y="0px" viewBox="0 0 24 24" style="enable-background:new 0 0 24 24;" xml:space="preserve">
<path style="fill:#333333;" d="M12,22.745c-2.753,0-5.506-1.048-7.602-3.144l0,0c-4.191-4.191-4.191-11.012,0-15.203l0.53-0.53
	l15.203,15.203l-0.53,0.53C17.506,21.697,14.753,22.745,12,22.745z M5.459,18.541c3.428,3.431,8.9,3.598,12.53,0.509L4.95,6.011
	C1.862,9.641,2.032,15.112,5.459,18.541L5.459,18.541z"/>
<rect x="12.615" y="10.703" transform="matrix(0.233 -0.9725 0.9725 0.233 2.872 26.5488)" style="fill:#333333;" width="11.305" height="1.5"/>
<rect x="10.636" y="7.957" transform="matrix(0.7071 -0.7071 0.7071 0.7071 -1.6776 13.364)" style="fill:#333333;" width="9.314" height="1.5"/>
<rect x="6.895" y="4.983" transform="matrix(0.9725 -0.233 0.233 0.9725 -0.9905 3.0815)" style="fill:#333333;" width="11.304" height="1.5"/>
<path style="fill:#333333;" d="M20,6.75c-0.192,0-0.385-0.02-0.57-0.059c-0.521-0.11-0.997-0.369-1.375-0.747
	c-0.376-0.377-0.635-0.852-0.745-1.373C17.27,4.385,17.25,4.193,17.25,4c0-1.517,1.233-2.75,2.75-2.75S22.75,2.483,22.75,4
	S21.517,6.75,20,6.75z M20,2.75c-0.689,0-1.25,0.561-1.25,1.25c0,0.088,0.009,0.176,0.026,0.26c0.051,0.236,0.168,0.452,0.34,0.624
	c0.172,0.172,0.388,0.29,0.624,0.339C20.478,5.381,21.25,4.778,21.25,4C21.25,3.311,20.689,2.75,20,2.75z"/>
</svg>






