<?xml version="1.0" encoding="iso-8859-1"?>
<svg version="1.1" id="&#x56FE;&#x5C42;_1" xmlns="http://www.w3.org/2000/svg" xmlns:xlink="http://www.w3.org/1999/xlink" x="0px"
	 y="0px" viewBox="0 0 24 24" style="enable-background:new 0 0 24 24;" xml:space="preserve">
<path style="fill:#333333;" d="M20.5,20.75h-17c-0.965,0-1.75-0.785-1.75-1.75V5c0-0.965,0.785-1.75,1.75-1.75h17
	c0.965,0,1.75,0.785,1.75,1.75v14C22.25,19.965,21.465,20.75,20.5,20.75z M3.5,4.75C3.362,4.75,3.25,4.862,3.25,5v14
	c0,0.138,0.112,0.25,0.25,0.25h17c0.138,0,0.25-0.112,0.25-0.25V5c0-0.138-0.112-0.25-0.25-0.25H3.5z"/>
<rect x="5.75" y="4" style="fill:#333333;" width="1.5" height="16"/>
<path style="fill:#333333;" d="M14,17.25c-2.895,0-5.25-2.355-5.25-5.25c0-2.895,2.355-5.25,5.25-5.25c2.895,0,5.25,2.355,5.25,5.25
	C19.25,14.895,16.895,17.25,14,17.25z M14,8.25c-2.068,0-3.75,1.682-3.75,3.75c0,2.067,1.682,3.75,3.75,3.75
	c2.067,0,3.75-1.683,3.75-3.75C17.75,9.932,16.067,8.25,14,8.25z"/>
<circle style="fill:#333333;" cx="14" cy="12" r="1.5"/>
<rect x="2.5" y="7.25" style="fill:#333333;" width="4" height="1.5"/>
<rect x="2.5" y="11.25" style="fill:#333333;" width="4" height="1.5"/>
<rect x="2.5" y="15.25" style="fill:#333333;" width="4" height="1.5"/>
</svg>






