<?xml version="1.0" encoding="iso-8859-1"?>
<svg version="1.1" id="&#x56FE;&#x5C42;_1" xmlns="http://www.w3.org/2000/svg" xmlns:xlink="http://www.w3.org/1999/xlink" x="0px"
	 y="0px" viewBox="0 0 24 24" style="enable-background:new 0 0 24 24;" xml:space="preserve">
<path style="fill:#333333;" d="M12,22.783L1.082,19.508l4.292-15.56L12,1.188l6.626,2.761l4.292,15.56L12,22.783z M2.918,18.492
	L12,21.217l9.082-2.725l-3.708-13.44L12,2.812L6.626,5.052L2.918,18.492z"/>
<rect x="11.25" y="7" style="fill:#333333;" width="1.5" height="15"/>
<rect x="11.75" y="5" transform="matrix(0.9232 -0.3844 0.3844 0.9232 -1.0578 6.2083)" style="fill:#333333;" width="6.5" height="1.5"/>
<rect x="8.25" y="2.5" transform="matrix(0.3846 -0.9231 0.9231 0.3846 0.2307 11.846)" style="fill:#333333;" width="1.5" height="6.5"/>
<rect x="2.269" y="16.75" transform="matrix(0.9535 -0.3015 0.3015 0.9535 -4.9394 3.0006)" style="fill:#333333;" width="9.962" height="1.499"/>
<rect x="16.25" y="12.28" transform="matrix(0.2874 -0.9578 0.9578 0.2874 -4.6469 28.7543)" style="fill:#333333;" width="1.501" height="10.44"/>
</svg>






