<?xml version="1.0" encoding="iso-8859-1"?>
<svg version="1.1" id="&#x56FE;&#x5C42;_1" xmlns="http://www.w3.org/2000/svg" xmlns:xlink="http://www.w3.org/1999/xlink" x="0px"
	 y="0px" viewBox="0 0 24 24" style="enable-background:new 0 0 24 24;" xml:space="preserve">
<path style="fill:#333333;" d="M20,21.75H4c-0.965,0-1.75-0.785-1.75-1.75V4c0-0.965,0.785-1.75,1.75-1.75h16
	c0.965,0,1.75,0.785,1.75,1.75v16C21.75,20.965,20.965,21.75,20,21.75z M4,3.75C3.862,3.75,3.75,3.862,3.75,4v16
	c0,0.138,0.112,0.25,0.25,0.25h16c0.138,0,0.25-0.112,0.25-0.25V4c0-0.138-0.112-0.25-0.25-0.25H4z"/>
<polygon style="fill:#333333;" points="12.97,21.53 9.439,18 12.439,15 9.439,12 12.439,9 9.439,6 12.97,2.47 14.03,3.53 11.561,6 
	14.561,9 11.561,12 14.561,15 11.561,18 14.03,20.47 "/>
<rect x="9" y="2.25" style="fill:#333333;" width="8" height="1.5"/>
<rect x="9" y="20.25" style="fill:#333333;" width="8" height="1.5"/>
</svg>






