<?xml version="1.0" encoding="iso-8859-1"?>
<svg version="1.1" id="&#x56FE;&#x5C42;_1" xmlns="http://www.w3.org/2000/svg" xmlns:xlink="http://www.w3.org/1999/xlink" x="0px"
	 y="0px" viewBox="0 0 24 24" style="enable-background:new 0 0 24 24;" xml:space="preserve">
<polygon style="fill:#333333;" points="12,11.061 9.47,8.53 10.53,7.47 12,8.939 13.47,7.47 14.53,8.53 "/>
<polygon style="fill:#333333;" points="18,17.561 15.47,15.03 16.53,13.97 18,15.439 19.47,13.97 20.53,15.03 "/>
<polygon style="fill:#333333;" points="6,17.561 3.47,15.03 4.53,13.97 6,15.439 7.47,13.97 8.53,15.03 "/>
<rect x="11.25" y="2" style="fill:#333333;" width="1.5" height="8"/>
<path style="fill:#333333;" d="M18.75,16.434h-1.5V9.818c0-1.516,1.233-2.75,2.75-2.75h2v1.5h-2c-0.689,0-1.25,0.561-1.25,1.25
	V16.434z"/>
<path style="fill:#333333;" d="M6.75,16.434h-1.5V9.818c0-0.689-0.561-1.25-1.25-1.25H2v-1.5h2c1.517,0,2.75,1.234,2.75,2.75V16.434
	z"/>
<path style="fill:#333333;" d="M20,22.75H4c-1.517,0-2.75-1.233-2.75-2.75v-2h1.5v2c0,0.689,0.561,1.25,1.25,1.25h16
	c0.689,0,1.25-0.561,1.25-1.25v-2h1.5v2C22.75,21.517,21.517,22.75,20,22.75z"/>
</svg>






