<?xml version="1.0" encoding="iso-8859-1"?>
<svg version="1.1" id="&#x56FE;&#x5C42;_1" xmlns="http://www.w3.org/2000/svg" xmlns:xlink="http://www.w3.org/1999/xlink" x="0px"
	 y="0px" viewBox="0 0 24 24" style="enable-background:new 0 0 24 24;" xml:space="preserve">
<path style="fill:#333333;" d="M16.114,10.125l-3.867-6.697c-0.064-0.111-0.185-0.116-0.22-0.125
	c-0.055,0.001-0.156,0.019-0.217,0.132L9.16,8.355L7.84,7.645l2.65-4.921c0.305-0.567,0.872-0.911,1.515-0.92
	c0.628-0.025,1.219,0.318,1.541,0.875l3.867,6.697L16.114,10.125z"/>
<path style="fill:#333333;" d="M20.711,20.75H12.5v-1.5h8.211c0.127,0,0.191-0.08,0.218-0.128s0.062-0.145-0.006-0.254l-3.062-4.975
	l1.277-0.787l3.062,4.976c0.337,0.55,0.351,1.212,0.036,1.773C21.924,20.415,21.354,20.75,20.711,20.75z"/>
<path style="fill:#333333;" d="M8.5,20.75H3.249c-0.636,0-1.204-0.33-1.52-0.882c-0.315-0.552-0.312-1.208,0.011-1.756l4.114-6.993
	l1.293,0.761l-4.114,6.993c-0.064,0.108-0.028,0.204-0.001,0.251s0.091,0.126,0.217,0.126H8.5V20.75z"/>
<polygon style="fill:#333333;" points="13.97,22.53 11.439,20 13.97,17.47 15.03,18.53 13.561,20 15.03,21.47 "/>
<polygon style="fill:#333333;" points="17.263,10.751 13.806,9.825 14.194,8.375 16.202,8.914 16.739,6.906 18.188,7.294 "/>
<polygon style="fill:#333333;" points="6.489,14.427 5.952,12.419 3.944,12.957 3.556,11.508 7.012,10.582 7.938,14.038 "/>
</svg>






