<?xml version="1.0" encoding="iso-8859-1"?>
<svg version="1.1" id="&#x56FE;&#x5C42;_1" xmlns="http://www.w3.org/2000/svg" xmlns:xlink="http://www.w3.org/1999/xlink" x="0px"
	 y="0px" viewBox="0 0 24 24" style="enable-background:new 0 0 24 24;" xml:space="preserve">
<path style="fill:#333333;" d="M12,7.776l-8.25-2.2V1.25h16.5v4.326L12,7.776z M5.25,4.424l6.75,1.8l6.75-1.8V2.75H5.25V4.424z"/>
<polygon style="fill:#333333;" points="20.25,22.75 3.75,22.75 3.75,8.5 5.25,8.5 5.25,21.25 18.75,21.25 18.75,8.5 20.25,8.5 "/>
<polygon style="fill:#333333;" points="12,13.672 8.924,9.98 10.076,9.02 12,11.329 13.924,9.02 15.076,9.98 "/>
<rect x="9" y="14.75" style="fill:#333333;" width="6" height="1.5"/>
<rect x="9" y="11.75" style="fill:#333333;" width="6" height="1.5"/>
<rect x="11.25" y="12.5" style="fill:#333333;" width="1.5" height="6"/>
</svg>






