<?xml version="1.0" encoding="iso-8859-1"?>
<svg version="1.1" id="&#x56FE;&#x5C42;_1" xmlns="http://www.w3.org/2000/svg" xmlns:xlink="http://www.w3.org/1999/xlink" x="0px"
	 y="0px" viewBox="0 0 24 24" style="enable-background:new 0 0 24 24;" xml:space="preserve">
<path style="fill:#333333;" d="M20.75,22.75H3.25V1.25h17.5V22.75z M4.75,21.25h14.5V2.75H4.75V21.25z"/>
<path style="fill:#333333;" d="M14.434,11.144l-0.549-1.396c1.789-0.702,3.536-2.347,5.499-5.175l1.232,0.855
	C18.476,8.511,16.511,10.328,14.434,11.144z M9.595,11.087c-2.141-0.84-4.114-2.639-6.211-5.659l1.124-0.98l5.869,5.389
	L9.595,11.087z"/>
<path style="fill:#333333;" d="M12,14.25c-1.654,0-3-1.346-3-3s1.346-3,3-3s3,1.346,3,3S13.654,14.25,12,14.25z M12,9.75
	c-0.827,0-1.5,0.673-1.5,1.5s0.673,1.5,1.5,1.5s1.5-0.673,1.5-1.5S12.827,9.75,12,9.75z"/>
</svg>






