<?xml version="1.0" encoding="iso-8859-1"?>
<svg version="1.1" id="&#x56FE;&#x5C42;_1" xmlns="http://www.w3.org/2000/svg" xmlns:xlink="http://www.w3.org/1999/xlink" x="0px"
	 y="0px" viewBox="0 0 24 24" style="enable-background:new 0 0 24 24;" xml:space="preserve">
<path style="fill:#333333;" d="M12,21.75c-5.376,0-9.75-4.374-9.75-9.75S6.624,2.25,12,2.25c2.604,0,5.053,1.014,6.895,2.856
	c0.835,0.834,2.592,2.812,2.666,2.896l-1.121,0.996c-0.019-0.021-1.802-2.028-2.605-2.832C16.275,4.608,14.204,3.75,12,3.75
	c-4.549,0-8.25,3.701-8.25,8.25s3.701,8.25,8.25,8.25c2.203,0,4.275-0.858,5.834-2.416l1.061,1.061
	C17.052,20.736,14.604,21.75,12,21.75z"/>
<polygon style="fill:#333333;" points="21.75,9.25 16.5,9.25 16.5,7.75 20.25,7.75 20.25,4 21.75,4 "/>
</svg>






