<?xml version="1.0" encoding="iso-8859-1"?>
<svg version="1.1" id="&#x56FE;&#x5C42;_1" xmlns="http://www.w3.org/2000/svg" xmlns:xlink="http://www.w3.org/1999/xlink" x="0px"
	 y="0px" viewBox="0 0 24 24" style="enable-background:new 0 0 24 24;" xml:space="preserve">
<path style="fill:#333333;" d="M12,10.75c-2.619,0-4.75-2.131-4.75-4.75S9.381,1.25,12,1.25S16.75,3.381,16.75,6
	S14.619,10.75,12,10.75z M12,2.75c-1.792,0-3.25,1.458-3.25,3.25S10.208,9.25,12,9.25S15.25,7.792,15.25,6S13.792,2.75,12,2.75z"/>
<path style="fill:#333333;" d="M21.75,22h-1.5c0-4.549-3.701-8.25-8.25-8.25S3.75,17.451,3.75,22h-1.5c0-5.376,4.374-9.75,9.75-9.75
	S21.75,16.624,21.75,22z"/>
<rect x="9.5" y="18.75" style="fill:#333333;" width="5" height="1.5"/>
</svg>






