<?xml version="1.0" encoding="iso-8859-1"?>
<svg version="1.1" id="&#x56FE;&#x5C42;_1" xmlns="http://www.w3.org/2000/svg" xmlns:xlink="http://www.w3.org/1999/xlink" x="0px"
	 y="0px" viewBox="0 0 24 24" style="enable-background:new 0 0 24 24;" xml:space="preserve">
<rect x="6.319" y="6.75" transform="matrix(0.8619 -0.5071 0.5071 0.8619 -2.2495 6.7408)" style="fill:#333333;" width="9.862" height="1.5"/>
<rect x="6.169" y="10.75" transform="matrix(0.8577 -0.5141 0.5141 0.8577 -4.205 7.8055)" style="fill:#333333;" width="11.662" height="1.5"/>
<rect x="6.632" y="15.25" transform="matrix(0.8454 -0.5341 0.5341 0.8454 -6.6519 9.0158)" style="fill:#333333;" width="11.236" height="1.499"/>
<path style="fill:#333333;" d="M20.25,5.75H3.75v-4.5h16.5V5.75z M5.25,4.25h13.5v-1.5H5.25V4.25z"/>
<path style="fill:#333333;" d="M20.25,22.75H3.75v-4.5h16.5V22.75z M5.25,21.25h13.5v-1.5H5.25V21.25z"/>
<rect x="6.25" y="5" style="fill:#333333;" width="1.5" height="14"/>
<rect x="16.25" y="5" style="fill:#333333;" width="1.5" height="14"/>
</svg>






