<?xml version="1.0" encoding="iso-8859-1"?>
<svg version="1.1" id="&#x56FE;&#x5C42;_1" xmlns="http://www.w3.org/2000/svg" xmlns:xlink="http://www.w3.org/1999/xlink" x="0px"
	 y="0px" viewBox="0 0 24 24" style="enable-background:new 0 0 24 24;" xml:space="preserve">
<path style="fill:#333333;" d="M17.5,20.75h-12c-0.965,0-1.75-0.785-1.75-1.75V3c0-0.965,0.785-1.75,1.75-1.75h12
	c0.965,0,1.75,0.785,1.75,1.75v16C19.25,19.965,18.465,20.75,17.5,20.75z M5.5,2.75C5.362,2.75,5.25,2.862,5.25,3v16
	c0,0.138,0.112,0.25,0.25,0.25h12c0.138,0,0.25-0.112,0.25-0.25V3c0-0.138-0.112-0.25-0.25-0.25H5.5z"/>
<rect x="4.5" y="10.25" style="fill:#333333;" width="14" height="1.5"/>
<rect x="3.75" y="10" style="fill:#333333;" width="1.5" height="2"/>
<rect x="17.75" y="10" style="fill:#333333;" width="1.5" height="2"/>
<rect x="6.75" y="14.5" style="fill:#333333;" width="1.5" height="2"/>
<rect x="6.75" y="5.5" style="fill:#333333;" width="1.5" height="2"/>
<rect x="15.75" y="20" style="fill:#333333;" width="1.5" height="2"/>
<rect x="5.75" y="20" style="fill:#333333;" width="1.5" height="2"/>
</svg>






