<?xml version="1.0" encoding="iso-8859-1"?>
<svg version="1.1" id="&#x56FE;&#x5C42;_1" xmlns="http://www.w3.org/2000/svg" xmlns:xlink="http://www.w3.org/1999/xlink" x="0px"
	 y="0px" viewBox="0 0 24 24" style="enable-background:new 0 0 24 24;" xml:space="preserve">
<rect x="20.25" y="4" style="fill:#333333;" width="1.5" height="8"/>
<rect x="2.25" y="12" style="fill:#333333;" width="1.5" height="8"/>
<path style="fill:#333333;" d="M12,21.75c-5.376,0-9.75-4.374-9.75-9.75h1.5c0,4.549,3.701,8.25,8.25,8.25
	c2.149,0,4.184-0.821,5.729-2.313l1.041,1.078C16.944,20.778,14.54,21.75,12,21.75z M21.75,12h-1.5c0-4.549-3.701-8.25-8.25-8.25
	c-2.259,0-4.367,0.896-5.937,2.521L4.984,5.229C6.839,3.308,9.331,2.25,12,2.25C17.376,2.25,21.75,6.624,21.75,12z"/>
</svg>






