<?xml version="1.0" encoding="iso-8859-1"?>
<svg version="1.1" id="&#x56FE;&#x5C42;_1" xmlns="http://www.w3.org/2000/svg" xmlns:xlink="http://www.w3.org/1999/xlink" x="0px"
	 y="0px" viewBox="0 0 24 24" style="enable-background:new 0 0 24 24;" xml:space="preserve">
<path style="fill:#333333;" d="M20.228,19.5H3.772l-0.649-1.125L12,3l8.877,15.375L20.228,19.5z M5.071,18h13.857L12,6L5.071,18z"/>
<path style="fill:#333333;" d="M20.228,19.5H3.772l-0.649-1.125L12,3l8.877,15.375L20.228,19.5z M5.071,18h13.857L12,6L5.071,18z"/>
<rect x="1.803" y="9" transform="matrix(0.9516 -0.3072 0.3072 0.9516 -2.7114 2.2765)" style="fill:#333333;" width="8.143" height="1.5"/>
<rect x="13.93" y="6.5" transform="matrix(0.9828 -0.1848 0.1848 0.9828 -1.0299 3.452)" style="fill:#333333;" width="8.139" height="1.5"/>
<rect x="17.75" y="6.605" transform="matrix(0.1065 -0.9943 0.9943 0.1065 6.4618 27.4411)" style="fill:#333333;" width="1.5" height="7.04"/>
<rect x="18.425" y="10.161" transform="matrix(0.4047 -0.9145 0.9145 0.4047 -0.7009 25.4231)" style="fill:#333333;" width="1.5" height="6.178"/>
</svg>






