<?xml version="1.0" encoding="iso-8859-1"?>
<svg version="1.1" id="&#x56FE;&#x5C42;_1" xmlns="http://www.w3.org/2000/svg" xmlns:xlink="http://www.w3.org/1999/xlink" x="0px"
	 y="0px" viewBox="0 0 24 24" style="enable-background:new 0 0 24 24;" xml:space="preserve">
<path style="fill:#333333;" d="M9.505,21.75H4.5c-1.241,0-2.25-1.01-2.25-2.25v-15c0-1.241,1.009-2.25,2.25-2.25h15
	c1.24,0,2.25,1.009,2.25,2.25v5.015h-1.5V4.5c0-0.414-0.337-0.75-0.75-0.75h-15c-0.414,0-0.75,0.336-0.75,0.75v15
	c0,0.413,0.336,0.75,0.75,0.75h5.005V21.75z"/>
<path style="fill:#333333;" d="M20.5,21.75h-5.981v-1.5h5.731v-5.732h1.5V20.5C21.75,21.189,21.189,21.75,20.5,21.75z"/>
<rect x="9" y="13.768" style="fill:#333333;" width="12" height="1.5"/>
<polygon style="fill:#333333;" points="10.97,18.03 7.439,14.5 10.97,10.97 12.03,12.03 9.561,14.5 12.03,16.97 "/>
</svg>






