<?xml version="1.0" encoding="iso-8859-1"?>
<svg version="1.1" id="&#x56FE;&#x5C42;_1" xmlns="http://www.w3.org/2000/svg" xmlns:xlink="http://www.w3.org/1999/xlink" x="0px"
	 y="0px" viewBox="0 0 24 24" style="enable-background:new 0 0 24 24;" xml:space="preserve">
<rect x="2" y="16.75" style="fill:#333333;" width="20" height="1.5"/>
<path style="fill:#333333;" d="M12.75,16h-1.5c0-1.792-1.57-3.25-3.5-3.25s-3.5,1.458-3.5,3.25h-1.5c0-2.619,2.243-4.75,5-4.75
	S12.75,13.381,12.75,16z"/>
<path style="fill:#333333;" d="M21.25,16h-1.5c0-5.101-3.477-9.25-7.75-9.25S4.25,10.899,4.25,16h-1.5
	c0-5.928,4.149-10.75,9.25-10.75S21.25,10.072,21.25,16z"/>
<path style="fill:#333333;" d="M20.5,19.75c-1.24,0-2.25-1.01-2.25-2.25s1.01-2.25,2.25-2.25s2.25,1.01,2.25,2.25
	S21.74,19.75,20.5,19.75z M20.5,16.75c-0.413,0-0.75,0.337-0.75,0.75s0.337,0.75,0.75,0.75s0.75-0.337,0.75-0.75
	S20.913,16.75,20.5,16.75z"/>
<path style="fill:#333333;" d="M12,19.75c-1.241,0-2.25-1.01-2.25-2.25s1.009-2.25,2.25-2.25c1.24,0,2.25,1.01,2.25,2.25
	S13.24,19.75,12,19.75z M12,16.75c-0.414,0-0.75,0.337-0.75,0.75s0.336,0.75,0.75,0.75c0.413,0,0.75-0.337,0.75-0.75
	S12.413,16.75,12,16.75z"/>
<path style="fill:#333333;" d="M3.5,19.75c-1.241,0-2.25-1.01-2.25-2.25s1.009-2.25,2.25-2.25s2.25,1.01,2.25,2.25
	S4.741,19.75,3.5,19.75z M3.5,16.75c-0.414,0-0.75,0.337-0.75,0.75s0.336,0.75,0.75,0.75s0.75-0.337,0.75-0.75
	S3.914,16.75,3.5,16.75z"/>
</svg>






