<?xml version="1.0" encoding="iso-8859-1"?>
<svg version="1.1" id="&#x56FE;&#x5C42;_1" xmlns="http://www.w3.org/2000/svg" xmlns:xlink="http://www.w3.org/1999/xlink" x="0px"
	 y="0px" viewBox="0 0 24 24" style="enable-background:new 0 0 24 24;" xml:space="preserve">
<path style="fill:none;" d="M12,2C8.134,2,5,5.134,5,9v10h14V9C19,5.134,15.866,2,12,2z"/>
<path style="fill:#333333;" d="M22,19.75H2v-1.5h2.25V9c0-4.273,3.477-7.75,7.75-7.75S19.75,4.727,19.75,9v9.25H22V19.75z
	 M5.75,18.25h12.5V9c0-3.446-2.804-6.25-6.25-6.25S5.75,5.554,5.75,9V18.25z"/>
<path style="fill:#333333;" d="M12,22.75c-1.792,0-3.25-1.458-3.25-3.25v-1.25h6.5v1.25C15.25,21.292,13.792,22.75,12,22.75z
	 M10.268,19.75c0.122,0.847,0.853,1.5,1.732,1.5s1.61-0.653,1.732-1.5H10.268z"/>
<rect x="11.25" y="7.464" transform="matrix(0.7071 -0.7071 0.7071 0.7071 -4.2635 11.7071)" style="fill:#333333;" width="1.5" height="7.071"/>
<rect x="8.464" y="10.25" transform="matrix(0.7071 -0.7071 0.7071 0.7071 -4.2635 11.7071)" style="fill:#333333;" width="7.071" height="1.5"/>
</svg>






