<?xml version="1.0" encoding="iso-8859-1"?>
<svg version="1.1" id="&#x56FE;&#x5C42;_1" xmlns="http://www.w3.org/2000/svg" xmlns:xlink="http://www.w3.org/1999/xlink" x="0px"
	 y="0px" viewBox="0 0 24 24" style="enable-background:new 0 0 24 24;" xml:space="preserve">
<path style="fill:#333333;" d="M12,22.75c-3.998,0-7.25-3.252-7.25-7.25V2.723c0-0.812,0.661-1.473,1.473-1.473h11.555
	c0.812,0,1.473,0.661,1.473,1.473V15.5C19.25,19.498,15.998,22.75,12,22.75z M6.25,2.75V15.5c0,3.171,2.58,5.75,5.75,5.75
	c3.171,0,5.75-2.579,5.75-5.75V2.723L6.25,2.75z"/>
<rect x="8.5" y="7.25" style="fill:#333333;" width="1.5" height="1.5"/>
<rect x="14" y="7.25" style="fill:#333333;" width="1.5" height="1.5"/>
<circle style="fill:#333333;" cx="8.5" cy="5" r="1"/>
<path style="fill:#333333;" d="M12,19.75c-2.343,0-4.25-1.906-4.25-4.25s1.907-4.25,4.25-4.25c2.344,0,4.25,1.906,4.25,4.25
	S14.344,19.75,12,19.75z M12,12.75c-1.517,0-2.75,1.233-2.75,2.75s1.233,2.75,2.75,2.75s2.75-1.233,2.75-2.75S13.517,12.75,12,12.75
	z"/>
</svg>






