<?xml version="1.0" encoding="iso-8859-1"?>
<svg version="1.1" id="&#x56FE;&#x5C42;_1" xmlns="http://www.w3.org/2000/svg" xmlns:xlink="http://www.w3.org/1999/xlink" x="0px"
	 y="0px" viewBox="0 0 24 24" style="enable-background:new 0 0 24 24;" xml:space="preserve">
<path style="fill:#333333;" d="M7.289,22.239c-0.768-2.284-1.015-4.259-0.735-5.867c0.304-1.752,1.312-2.965,2.916-3.508
	l0.953,0.944c-0.904,2.742-0.583,4.66,0.982,5.863c1.086,0.835,3.204,1.209,5.154,0.309c2.032-0.938,3.228-2.982,3.367-5.757
	c0.198-3.954-0.822-7.415-2.801-9.495c-1.259-1.323-2.853-2.022-4.611-2.022c-1.916,0-3.277,0.889-3.642,2.377
	c-0.29,1.181,0.132,2.744,1.727,3.575l-0.187,1.398c-2.935,0.639-4.73,1.88-5.492,3.795c-0.793,1.994-0.848,4.685-0.162,7.996
	L3.29,22.152c-0.747-3.604-0.667-6.584,0.237-8.855c0.799-2.009,2.499-3.451,5.062-4.298C7.509,7.86,7.038,6.267,7.416,4.727
	c0.417-1.702,1.976-3.52,5.099-3.52c2.18,0,4.149,0.86,5.698,2.488c2.26,2.376,3.431,6.242,3.212,10.604
	c-0.228,4.532-2.752,6.358-4.236,7.044c-2.234,1.031-4.987,0.833-6.697-0.481c-1.666-1.28-2.328-3.135-1.978-5.527
	c-0.234,0.352-0.393,0.781-0.482,1.294c-0.236,1.361-0.008,3.088,0.68,5.133L7.289,22.239z"/>
<path style="fill:#333333;" d="M14.676,11.162c-0.861,0-1.341-0.445-1.607-0.925c-0.433-0.781-0.465-2.002,1.848-3.381l0.768,1.288
	c-0.94,0.561-1.452,1.097-1.303,1.365c0.228,0.411,1.37-0.129,1.715-0.304l0.682,1.336C15.9,10.988,15.213,11.162,14.676,11.162z"/>
<path style="fill:#333333;" d="M15.948,16.862c-0.894-0.176-2.856-1.209-3.383-2.368c-0.209-0.46-0.196-0.935,0.035-1.335
	c0.75-1.303,2.738-1.065,4.172-0.774l-0.299,1.471c-1.801-0.369-2.463-0.14-2.574,0.054c0.084,0.327,1.581,1.332,2.338,1.48
	L15.948,16.862z"/>
</svg>






