<?xml version="1.0" encoding="iso-8859-1"?>
<svg version="1.1" id="&#x56FE;&#x5C42;_1" xmlns="http://www.w3.org/2000/svg" xmlns:xlink="http://www.w3.org/1999/xlink" x="0px"
	 y="0px" viewBox="0 0 24 24" style="enable-background:new 0 0 24 24;" xml:space="preserve">
<path style="fill:#333333;" d="M12,21.75c-2.604,0-5.052-1.014-6.894-2.855l1.061-1.061C7.725,19.392,9.797,20.25,12,20.25
	c4.549,0,8.25-3.701,8.25-8.25S16.549,3.75,12,3.75c-2.204,0-4.275,0.858-5.833,2.417C5.362,6.97,3.579,8.978,3.561,8.998
	L2.439,8.002C2.514,7.918,4.271,5.94,5.106,5.106C6.947,3.264,9.396,2.25,12,2.25c5.376,0,9.75,4.374,9.75,9.75
	S17.376,21.75,12,21.75z"/>
<polygon style="fill:#333333;" points="7,9.25 2.25,9.25 2.25,4.5 3.75,4.5 3.75,7.75 7,7.75 "/>
<path style="fill:#333333;" d="M12,16.75c-1.064,0-2.25-0.719-2.25-1.75h1.5c0.035,0.021,0.361,0.25,0.75,0.25
	c1.12,0,1.25-0.714,1.25-1.25c0-1.615-0.617-1.75-1.25-1.75c-0.708,0-0.775,0.026-1.088,0.231L9.75,11.855V8.25H14v1.5h-2.75v1.03
	c0.217-0.025,0.457-0.03,0.75-0.03c1.027,0,2.75,0.422,2.75,3.25C14.75,15.671,13.671,16.75,12,16.75z"/>
</svg>






