<?xml version="1.0" encoding="iso-8859-1"?>
<svg version="1.1" id="&#x56FE;&#x5C42;_1" xmlns="http://www.w3.org/2000/svg" xmlns:xlink="http://www.w3.org/1999/xlink" x="0px"
	 y="0px" viewBox="0 0 24 24" style="enable-background:new 0 0 24 24;" xml:space="preserve">
<path style="fill:#333333;" d="M12,18.401l-0.416-0.277C11.387,17.992,6.75,14.857,6.75,11c0-1.402,0.546-2.72,1.538-3.712
	C9.28,6.296,10.598,5.75,12,5.75c1.402,0,2.721,0.546,3.712,1.538C16.704,8.279,17.25,9.597,17.25,11
	c0,3.857-4.637,6.992-4.834,7.124L12,18.401z M12,7.25c-1.001,0-1.943,0.39-2.652,1.098C8.64,9.057,8.25,9.999,8.25,11
	c0,2.468,2.694,4.767,3.75,5.572c1.056-0.806,3.75-3.104,3.75-5.572c0-1.002-0.39-1.944-1.099-2.652
	C13.943,7.64,13.002,7.25,12,7.25z"/>
<path style="fill:#333333;" d="M12,13.25c-1.241,0-2.25-1.01-2.25-2.25c0-1.241,1.009-2.25,2.25-2.25c1.24,0,2.25,1.009,2.25,2.25
	C14.25,12.24,13.24,13.25,12,13.25z M12,10.25c-0.414,0-0.75,0.336-0.75,0.75s0.336,0.75,0.75,0.75c0.413,0,0.75-0.336,0.75-0.75
	S12.413,10.25,12,10.25z"/>
<path style="fill:#333333;" d="M21.749,12.279l-1.499-0.057c0.009-0.243,0.132-5.979-5.745-8.014
	c-5.85-2.024-9.236,2.988-9.377,3.203L3.872,6.59c0.041-0.062,4.157-6.213,11.124-3.799C21.94,5.195,21.752,12.208,21.749,12.279z"
	/>
<rect x="20.25" y="4" style="fill:#333333;" width="1.5" height="8"/>
<path style="fill:#333333;" d="M12.305,21.842c-0.843,0-1.756-0.11-2.743-0.366C2.333,19.602,2.25,12.076,2.25,12l1.5-0.001
	c0.001,0.262,0.098,6.447,6.188,8.026c6.083,1.571,8.792-3.182,8.905-3.386l1.315,0.721C20.13,17.411,17.642,21.842,12.305,21.842z"
	/>
<rect x="2.25" y="12" style="fill:#333333;" width="1.5" height="8"/>
</svg>






