<?xml version="1.0" encoding="iso-8859-1"?>
<svg version="1.1" id="&#x56FE;&#x5C42;_1" xmlns="http://www.w3.org/2000/svg" xmlns:xlink="http://www.w3.org/1999/xlink" x="0px"
	 y="0px" viewBox="0 0 24 24" style="enable-background:new 0 0 24 24;" xml:space="preserve">
<path style="fill:#333333;" d="M18.75,18.25H5.25V10.5c0-3.722,3.028-6.75,6.75-6.75c3.722,0,6.75,3.028,6.75,6.75V18.25z
	 M6.75,16.75h10.5V10.5c0-2.895-2.355-5.25-5.25-5.25c-2.895,0-5.25,2.355-5.25,5.25V16.75z"/>
<rect x="4" y="20.25" style="fill:#333333;" width="16" height="1.5"/>
<rect x="2" y="5.959" transform="matrix(0.3162 -0.9487 0.9487 0.3162 -4.5232 7.2243)" style="fill:#333333;" width="1.5" height="1.581"/>
<rect x="6" y="1.959" transform="matrix(0.9487 -0.3162 0.3162 0.9487 -0.5232 2.2757)" style="fill:#333333;" width="1.5" height="1.581"/>
<rect x="3.5" y="3.189" transform="matrix(0.7071 -0.7071 0.7071 0.7071 -1.7604 4.25)" style="fill:#333333;" width="1.5" height="2.121"/>
</svg>






