<?xml version="1.0" encoding="iso-8859-1"?>
<svg version="1.1" id="&#x56FE;&#x5C42;_1" xmlns="http://www.w3.org/2000/svg" xmlns:xlink="http://www.w3.org/1999/xlink" x="0px"
	 y="0px" viewBox="0 0 24 24" style="enable-background:new 0 0 24 24;" xml:space="preserve">
<path style="fill:#333333;" d="M9.171,20.113c-0.448,0-0.896-0.171-1.237-0.512l-3.536-3.536c-0.682-0.683-0.682-1.792,0-2.475
	l1.475-1.475c0.331-0.331,0.77-0.513,1.237-0.513h1.293c0.066,0,0.13-0.027,0.177-0.073l2.95-2.95
	c0.046-0.047,0.073-0.111,0.073-0.177V7.111c0-0.467,0.182-0.907,0.513-1.237l1.475-1.475c0.682-0.682,1.793-0.681,2.475,0
	l3.536,3.536c0.331,0.331,0.513,0.77,0.513,1.237c0,0.468-0.183,0.907-0.513,1.238l-1.476,1.475c-0.33,0.331-0.77,0.513-1.237,0.513
	h-1.293c-0.065,0-0.13,0.026-0.177,0.073l-2.949,2.949c-0.047,0.046-0.073,0.11-0.073,0.177v1.293c0,0.468-0.182,0.907-0.513,1.237
	l-1.475,1.476C10.068,19.942,9.62,20.113,9.171,20.113z M7.111,13.104c-0.066,0-0.13,0.026-0.177,0.073l-1.475,1.475
	c-0.097,0.098-0.097,0.256,0,0.354l3.536,3.536c0.098,0.098,0.256,0.098,0.354,0l1.475-1.476c0.047-0.047,0.073-0.11,0.073-0.177
	v-1.293c0-0.461,0.187-0.912,0.512-1.237l2.95-2.949c0.326-0.326,0.776-0.513,1.237-0.513h1.293c0.066,0,0.13-0.026,0.177-0.073
	l1.476-1.475c0.063-0.064,0.073-0.138,0.073-0.177s-0.01-0.113-0.073-0.177l-3.536-3.536c-0.098-0.097-0.256-0.097-0.354,0
	l-1.475,1.475c-0.047,0.047-0.073,0.111-0.073,0.177v1.293c0,0.467-0.182,0.907-0.513,1.237l-2.95,2.95
	c-0.331,0.331-0.77,0.513-1.237,0.513H7.111z"/>
<rect x="2.855" y="18.144" transform="matrix(0.7071 -0.7071 0.7071 0.7071 -11.8647 9.1442)" style="fill:#333333;" width="4.501" height="1.5"/>
<rect x="16.645" y="4.356" transform="matrix(0.7071 -0.7071 0.7071 0.7071 1.9238 14.8559)" style="fill:#333333;" width="4.5" height="1.5"/>
</svg>






