<?xml version="1.0" encoding="iso-8859-1"?>
<svg version="1.1" id="&#x56FE;&#x5C42;_1" xmlns="http://www.w3.org/2000/svg" xmlns:xlink="http://www.w3.org/1999/xlink" x="0px"
	 y="0px" viewBox="0 0 24 24" style="enable-background:new 0 0 24 24;" xml:space="preserve">
<path style="fill:#333333;" d="M23.214,21.75h-8.32l-1.604-7.489c-0.026-0.121-0.039-0.244-0.039-0.366V7.86L9.815,5.103
	c-0.367-0.294-0.594-0.715-0.64-1.184s0.097-0.925,0.401-1.284c0.535-0.633,1.448-0.799,2.171-0.391l4.895,2.757l2.055,7.707
	L23.214,21.75z M16.106,20.25h4.68l-3.411-6.824c-0.053-0.105-0.095-0.216-0.126-0.33l-1.893-7.097l-4.344-2.447
	c-0.096-0.055-0.219-0.032-0.29,0.052c-0.055,0.065-0.057,0.136-0.054,0.172s0.019,0.105,0.085,0.158L14.75,7.14v6.754L16.106,20.25
	z"/>
<rect x="13.938" y="12.75" transform="matrix(0.9702 -0.2422 0.2422 0.9702 -2.7936 4.2777)" style="fill:#333333;" width="4.123" height="1.5"/>
<path style="fill:#333333;" d="M8.73,21.75H0.972l3.159-9.858c0.029-0.09,0.065-0.177,0.108-0.262l2.252-4.399l3.874-0.515
	l2.384,1.795v2.927l-0.885,1.48c-0.263,0.44-0.705,0.742-1.21,0.827c-0.506,0.088-1.021-0.054-1.414-0.383l-0.033-0.026
	c-0.064-0.054-0.123-0.111-0.178-0.173L8.73,14.578V21.75z M3.028,20.25H7.23l0.016-5.905l0.912-4.095h2.246l-0.318,1.697
	c-0.017,0.088,0.015,0.178,0.083,0.236l0.028,0.023c0.083,0.069,0.165,0.066,0.208,0.06c0.042-0.008,0.122-0.032,0.173-0.118
	l0.672-1.125V9.259L9.955,8.284L7.468,8.615l-1.894,3.698L3.028,20.25z"/>
<rect x="5.75" y="11.573" transform="matrix(0.4472 -0.8944 0.8944 0.4472 -8.258 13.1382)" style="fill:#333333;" width="1.5" height="3.354"/>
</svg>






