<?xml version="1.0" encoding="iso-8859-1"?>
<svg version="1.1" id="&#x56FE;&#x5C42;_1" xmlns="http://www.w3.org/2000/svg" xmlns:xlink="http://www.w3.org/1999/xlink" x="0px"
	 y="0px" viewBox="0 0 24 24" style="enable-background:new 0 0 24 24;" xml:space="preserve">
<rect x="11.25" y="13" style="fill:#333333;" width="1.5" height="6"/>
<rect x="11.25" y="3" style="fill:#333333;" width="1.5" height="10"/>
<rect x="11.25" y="2" style="fill:#333333;" width="1.5" height="1"/>
<polygon style="fill:#333333;" points="17.311,20.75 4,20.75 4,19.25 16.689,19.25 19.47,16.47 20.53,17.53 "/>
<rect x="6.75" y="20" style="fill:#333333;" width="1.5" height="2"/>
<rect x="15.25" y="20" style="fill:#333333;" width="1.5" height="2"/>
<path style="fill:#333333;" d="M21.75,13h-1.5c0-0.883-0.743-1.75-1.5-1.75s-1.5,0.867-1.5,1.75h-1.5c0-0.883-0.743-1.75-1.5-1.75
	s-1.5,0.867-1.5,1.75h-1.5c0-0.883-0.743-1.75-1.5-1.75s-1.5,0.867-1.5,1.75h-1.5c0-0.883-0.743-1.75-1.5-1.75s-1.5,0.867-1.5,1.75
	h-1.5v-1.028C2.25,6.611,6.624,2.25,12,2.25s9.75,4.361,9.75,9.722V13z M9.75,9.75c0.875,0,1.69,0.455,2.25,1.151
	c0.56-0.696,1.375-1.151,2.25-1.151s1.69,0.455,2.25,1.151c0.56-0.696,1.375-1.151,2.25-1.151c0.451,0,0.888,0.121,1.28,0.334
	C19.172,6.458,15.897,3.75,12,3.75s-7.172,2.708-8.031,6.334C4.362,9.871,4.798,9.75,5.25,9.75c0.875,0,1.69,0.455,2.25,1.151
	C8.06,10.205,8.875,9.75,9.75,9.75z"/>
<path style="fill:#333333;" d="M6.776,13.197c-0.034-0.123-0.806-3.045,0.542-6.008c1.327-2.919,4.16-4.746,4.279-4.822l0.806,1.265
	c-0.025,0.016-2.581,1.672-3.72,4.178c-1.117,2.456-0.466,4.969-0.459,4.994L6.776,13.197z"/>
<path style="fill:#333333;" d="M17.245,13.083l-1.49-0.166L16.5,13l-0.746-0.08c0.003-0.021,0.205-2.136-0.954-5.151
	c-1.127-2.929-3.147-4.104-3.167-4.115l0.731-1.31c0.102,0.057,2.503,1.422,3.836,4.887C17.501,10.612,17.257,12.983,17.245,13.083z
	"/>
<rect x="11.25" y="3" style="fill:#333333;" width="1.5" height="9.5"/>
<path style="fill:#333333;" d="M17.25,13h-1.5c0-0.883-0.743-1.75-1.5-1.75v-1.5c0.875,0,1.69,0.455,2.25,1.151
	c0.56-0.696,1.375-1.151,2.25-1.151v1.5C17.993,11.25,17.25,12.117,17.25,13z"/>
<path style="fill:#333333;" d="M12.75,13h-1.5c0-0.883-0.743-1.75-1.5-1.75v-1.5c0.875,0,1.69,0.455,2.25,1.151
	c0.56-0.696,1.375-1.151,2.25-1.151v1.5C13.493,11.25,12.75,12.117,12.75,13z"/>
<path style="fill:#333333;" d="M8.25,13h-1.5c0-0.883-0.743-1.75-1.5-1.75v-1.5c0.875,0,1.69,0.455,2.25,1.151
	C8.06,10.205,8.875,9.75,9.75,9.75v1.5C8.993,11.25,8.25,12.117,8.25,13z"/>
<path style="fill:#333333;" d="M8.211,4.667L7.522,3.333c2.746-1.418,6.211-1.418,8.954,0l-0.688,1.333
	C13.434,3.45,10.565,3.45,8.211,4.667z"/>
</svg>






