<?xml version="1.0" encoding="iso-8859-1"?>
<svg version="1.1" id="&#x56FE;&#x5C42;_1" xmlns="http://www.w3.org/2000/svg" xmlns:xlink="http://www.w3.org/1999/xlink" x="0px"
	 y="0px" viewBox="0 0 24 24" style="enable-background:new 0 0 24 24;" xml:space="preserve">
<path style="fill:#333333;" d="M18.25,7h-1.5c0-2.343-2.131-4.25-4.75-4.25S7.25,4.657,7.25,7h-1.5c0-3.17,2.804-5.75,6.25-5.75
	S18.25,3.83,18.25,7z"/>
<path style="fill:#333333;" d="M19.5,15.75H15c-0.965,0-1.75-0.785-1.75-1.75c0-0.138-0.112-0.25-0.25-0.25h-2
	c-0.138,0-0.25,0.112-0.25,0.25c0,0.965-0.785,1.75-1.75,1.75H4.5c-0.965,0-1.75-0.785-1.75-1.75V8c0-0.965,0.785-1.75,1.75-1.75h15
	c0.965,0,1.75,0.785,1.75,1.75v6C21.25,14.965,20.465,15.75,19.5,15.75z M11,12.25h2c0.965,0,1.75,0.785,1.75,1.75
	c0,0.138,0.112,0.25,0.25,0.25h4.5c0.138,0,0.25-0.112,0.25-0.25V8c0-0.138-0.112-0.25-0.25-0.25h-15C4.362,7.75,4.25,7.862,4.25,8
	v6c0,0.138,0.112,0.25,0.25,0.25H9c0.138,0,0.25-0.112,0.25-0.25C9.25,13.035,10.035,12.25,11,12.25z"/>
<polygon style="fill:#333333;" points="19.75,22.75 4.25,22.75 4.25,15 5.75,15 5.75,21.25 18.25,21.25 18.25,15 19.75,15 "/>
<path style="fill:#333333;" d="M14.75,16.75h-5.5v-4.5h5.5V16.75z M10.75,15.25h2.5v-1.5h-2.5V15.25z"/>
</svg>






