<?xml version="1.0" encoding="iso-8859-1"?>
<svg version="1.1" id="&#x56FE;&#x5C42;_1" xmlns="http://www.w3.org/2000/svg" xmlns:xlink="http://www.w3.org/1999/xlink" x="0px"
	 y="0px" viewBox="0 0 24 24" style="enable-background:new 0 0 24 24;" xml:space="preserve">
<path style="fill:#333333;" d="M18.25,13.25H5.75v-9h3.349l1-1.5h3.803l1,1.5h3.349V13.25z M7.25,11.75h9.5v-6h-2.651l-1-1.5h-2.197
	l-1,1.5H7.25V11.75z"/>
<polygon style="fill:#333333;" points="10.53,22.03 9.47,20.97 10.939,19.5 9.47,18.03 10.53,16.97 13.061,19.5 "/>
<path style="fill:#333333;" d="M12,20.25c-5.411,0-11.25-2.198-11.25-5.75c0-1.355,0.807-2.609,2.334-3.625l0.831,1.249
	C3.156,12.629,2.25,13.452,2.25,14.5c0,2.006,4.169,4.25,9.75,4.25V20.25z M16.16,19.816l-0.32-1.465
	c3.425-0.748,5.91-2.368,5.91-3.852c0-1.048-0.905-1.871-1.665-2.376l0.83-1.249c1.527,1.016,2.335,2.27,2.335,3.625
	C23.25,17.281,19.431,19.103,16.16,19.816z"/>
<path style="fill:#333333;" d="M12,10.75c-1.241,0-2.25-1.009-2.25-2.25S10.759,6.25,12,6.25c1.24,0,2.25,1.009,2.25,2.25
	S13.24,10.75,12,10.75z M12,7.75c-0.414,0-0.75,0.336-0.75,0.75S11.586,9.25,12,9.25c0.413,0,0.75-0.336,0.75-0.75
	S12.413,7.75,12,7.75z"/>
</svg>






