<?xml version="1.0" encoding="iso-8859-1"?>
<svg version="1.1" id="&#x56FE;&#x5C42;_1" xmlns="http://www.w3.org/2000/svg" xmlns:xlink="http://www.w3.org/1999/xlink" x="0px"
	 y="0px" viewBox="0 0 24 24" style="enable-background:new 0 0 24 24;" xml:space="preserve">
<path style="fill:#333333;" d="M17.714,6.75H6.287l2.25-4.5h6.927L17.714,6.75z M8.713,5.25h6.573l-0.75-1.5H9.463L8.713,5.25z"/>
<path style="fill:#333333;" d="M20.5,21.75h-17c-1.241,0-2.25-0.965-2.25-2.15V7.4c0-1.186,1.009-2.15,2.25-2.15h17
	c1.24,0,2.25,0.964,2.25,2.15v12.2C22.75,20.785,21.74,21.75,20.5,21.75z M3.5,6.75c-0.414,0-0.75,0.292-0.75,0.65v12.2
	c0,0.358,0.336,0.65,0.75,0.65h17c0.413,0,0.75-0.292,0.75-0.65V7.4c0-0.358-0.337-0.65-0.75-0.65H3.5z"/>
<rect x="15.25" y="9.5" style="fill:#333333;" width="1.5" height="4"/>
<rect x="7.25" y="13.5" style="fill:#333333;" width="1.5" height="4"/>
<path style="fill:#333333;" d="M12,18.25c-2.619,0-4.75-2.131-4.75-4.75h1.5c0,1.792,1.458,3.25,3.25,3.25
	c0.422,0,0.832-0.079,1.219-0.236l0.562,1.391C13.215,18.134,12.615,18.25,12,18.25z"/>
<path style="fill:#333333;" d="M16.75,13.5h-1.5c0-1.792-1.458-3.25-3.25-3.25c-0.422,0-0.832,0.079-1.219,0.236l-0.562-1.391
	C10.785,8.866,11.384,8.75,12,8.75C14.619,8.75,16.75,10.881,16.75,13.5z"/>
</svg>






