<?xml version="1.0" encoding="iso-8859-1"?>
<svg version="1.1" id="&#x56FE;&#x5C42;_1" xmlns="http://www.w3.org/2000/svg" xmlns:xlink="http://www.w3.org/1999/xlink" x="0px"
	 y="0px" viewBox="0 0 24 24" style="enable-background:new 0 0 24 24;" xml:space="preserve">
<path style="fill:#333333;" d="M12,19.75c-5.273,0-9.25-3.977-9.25-9.25V9.75h18.5v0.75C21.25,15.773,17.273,19.75,12,19.75z
	 M4.283,11.25c0.354,4.04,3.553,7,7.717,7c4.164,0,7.363-2.96,7.718-7H4.283z"/>
<path style="fill:#333333;" d="M15.75,10.5h-1.5c0-2.343-1.794-4.25-4-4.25c-2.206,0-4,1.907-4,4.25h-1.5
	c0-3.17,2.467-5.75,5.5-5.75C13.282,4.75,15.75,7.33,15.75,10.5z"/>
<path style="fill:#333333;" d="M20.25,10.5h-1.5c0-1.241-1.049-2.25-2.339-2.25c-0.535,0-1.038,0.169-1.455,0.488l-0.912-1.19
	c0.681-0.522,1.499-0.798,2.367-0.798C18.528,6.75,20.25,8.432,20.25,10.5z"/>
<rect x="14.64" y="4.25" transform="matrix(0.287 -0.9579 0.9579 0.287 7.5098 20.0894)" style="fill:#333333;" width="5.22" height="1.501"/>
<rect x="17.984" y="6.5" transform="matrix(0.496 -0.8683 0.8683 0.496 3.7847 21.0205)" style="fill:#333333;" width="4.031" height="1.5"/>
<polygon style="fill:#333333;" points="17.041,22.25 6.959,22.25 8.289,18.263 9.711,18.737 9.041,20.75 14.959,20.75 
	14.288,18.737 15.712,18.263 "/>
</svg>






