<?xml version="1.0" encoding="iso-8859-1"?>
<svg version="1.1" id="&#x56FE;&#x5C42;_1" xmlns="http://www.w3.org/2000/svg" xmlns:xlink="http://www.w3.org/1999/xlink" x="0px"
	 y="0px" viewBox="0 0 24 24" style="enable-background:new 0 0 24 24;" xml:space="preserve">
<path style="fill:#333333;" d="M16.5,7.75c-1.792,0-3.25-1.458-3.25-3.25s1.458-3.25,3.25-3.25s3.25,1.458,3.25,3.25
	S18.292,7.75,16.5,7.75z M16.5,2.75c-0.965,0-1.75,0.785-1.75,1.75s0.785,1.75,1.75,1.75s1.75-0.785,1.75-1.75
	S17.465,2.75,16.5,2.75z"/>
<path style="fill:#333333;" d="M11.25,19.001l-0.005-4.615c0-0.087-0.047-0.171-0.12-0.215l-3.731-2.286
	c-0.374-0.232-0.595-0.629-0.595-1.065c0-0.436,0.222-0.833,0.592-1.062l3.727-2.292c0.714-0.437,1.644-0.306,2.21,0.312
	l2.668,2.888c0.049,0.053,0.119,0.084,0.189,0.084H20v1.5h-3.814c-0.488,0-0.959-0.206-1.291-0.566l-2.67-2.89
	c-0.085-0.092-0.22-0.113-0.324-0.048L8.526,10.82l3.38,2.071c0.517,0.314,0.838,0.888,0.838,1.494l0.005,4.614L11.25,19.001z"/>
<path style="fill:#333333;" d="M18.25,22.75c-2.481,0-4.5-2.019-4.5-4.5s2.019-4.5,4.5-4.5s4.5,2.019,4.5,4.5
	S20.731,22.75,18.25,22.75z M18.25,15.25c-1.654,0-3,1.346-3,3s1.346,3,3,3s3-1.346,3-3S19.904,15.25,18.25,15.25z"/>
<path style="fill:#333333;" d="M5.75,22.75c-2.481,0-4.5-2.019-4.5-4.5s2.019-4.5,4.5-4.5s4.5,2.019,4.5,4.5S8.231,22.75,5.75,22.75
	z M5.75,15.25c-1.654,0-3,1.346-3,3s1.346,3,3,3s3-1.346,3-3S7.404,15.25,5.75,15.25z"/>
</svg>






