<?xml version="1.0" encoding="iso-8859-1"?>
<svg version="1.1" id="&#x56FE;&#x5C42;_1" xmlns="http://www.w3.org/2000/svg" xmlns:xlink="http://www.w3.org/1999/xlink" x="0px"
	 y="0px" viewBox="0 0 24 24" style="enable-background:new 0 0 24 24;" xml:space="preserve">
<path style="fill:#333333;" d="M13.231,20.534c-0.661-0.651-0.634-1.939-0.273-2.82c0.221-0.538,0.562-0.917,0.973-1.096
	c0.236-0.686,0.712-2.222,0.712-3.466c0-1.445-1.733-3.489-3.5-4.127l-0.659-0.238l0.193-0.675c0.152-0.532,0.202-1.219,0.099-1.387
	c-0.16-0.153-0.961-0.465-1.897-0.744v3.236L2.75,11.835v1.5l3.47-0.326l0.141,1.494l-5.11,0.48v-4.139l6.129-2.618V4.044
	l0.929,0.228c1.433,0.352,3.24,0.917,3.711,1.614c0.381,0.563,0.346,1.389,0.246,1.99c2.127,1.046,3.878,3.371,3.878,5.277
	c0,1.932-0.905,4.271-0.944,4.37L15.013,18H14.5c-0.02,0.021-0.164,0.211-0.245,0.581c-0.095,0.436-0.027,0.807,0.036,0.893
	L13.231,20.534z"/>
<path style="fill:#333333;" d="M9,15.75c-1.67,0-2.75-1.079-2.75-2.75h1.5c0,0.829,0.42,1.25,1.25,1.25s1.25-0.421,1.25-1.25h1.5
	C11.75,14.671,10.67,15.75,9,15.75z"/>
<path style="fill:#333333;" d="M6.935,20.611l-0.869-1.223c1.89-1.343,1.967-1.624,2.12-2.187c0.142-0.516,0.022-1.554-0.074-1.776
	c0.046,0.105,0.248,0.324,0.579,0.324v-1.5l0.658,0.336c0.405,0.53,0.506,2.2,0.284,3.013C9.344,18.652,8.955,19.176,6.935,20.611z"
	/>
<path style="fill:#333333;" d="M18.5,8.75c-0.965,0-1.75-0.785-1.75-1.75s0.785-1.75,1.75-1.75S20.25,6.035,20.25,7
	S19.465,8.75,18.5,8.75z M18.5,6.75c-0.138,0-0.25,0.112-0.25,0.25c0,0.275,0.5,0.275,0.5,0C18.75,6.862,18.638,6.75,18.5,6.75z"/>
<path style="fill:#333333;" d="M17.97,20.28l-1.5-1.5L17,17.5h3.479c0.483-1.599,0.223-3.945-0.145-4.655
	c-0.229-0.443-0.512-0.906-0.742-1.266l-0.277,0.209l-0.298,0.136c-0.104,0.022-0.139,0.045-0.139,0.045
	c0.009,0.011-0.005,0.177-0.014,0.287c-0.038,0.47-0.103,1.255-0.939,1.83c-0.876,0.6-2.897,1.714-4.45,1.665l0.051-1.5
	c0.935,0.064,2.509-0.688,3.551-1.402c0.236-0.162,0.26-0.311,0.293-0.715c0.036-0.438,0.108-1.325,1.162-1.633l0.791-0.598
	l1.065,0.167c0.031,0.044,0.761,1.086,1.278,2.086c0.62,1.199,0.901,4.414,0.02,6.399L21,19h-2.189l0.22,0.22L17.97,20.28z"/>
</svg>






