<?xml version="1.0" encoding="iso-8859-1"?>
<svg version="1.1" id="&#x56FE;&#x5C42;_1" xmlns="http://www.w3.org/2000/svg" xmlns:xlink="http://www.w3.org/1999/xlink" x="0px"
	 y="0px" viewBox="0 0 24 24" style="enable-background:new 0 0 24 24;" xml:space="preserve">
<path style="fill:#333333;" d="M19.716,22.25H5c-0.965,0-1.75-0.785-1.75-1.75V4.558c0-0.726,0.437-1.365,1.113-1.63
	c0.676-0.264,1.431-0.09,1.923,0.443l14.716,15.942c0.479,0.52,0.601,1.243,0.317,1.89S20.422,22.25,19.716,22.25z M5.008,4.305
	c-0.036,0-0.07,0.008-0.099,0.02C4.836,4.353,4.75,4.417,4.75,4.558V20.5c0,0.138,0.112,0.25,0.25,0.25h14.716
	c0.143,0,0.205-0.094,0.229-0.149c0.024-0.057,0.051-0.166-0.046-0.271L5.184,4.388C5.126,4.325,5.064,4.305,5.008,4.305z"/>
</svg>






