<?xml version="1.0" encoding="iso-8859-1"?>
<svg version="1.1" id="&#x56FE;&#x5C42;_1" xmlns="http://www.w3.org/2000/svg" xmlns:xlink="http://www.w3.org/1999/xlink" x="0px"
	 y="0px" viewBox="0 0 24 24" style="enable-background:new 0 0 24 24;" xml:space="preserve">
<rect x="2" y="11.25" style="fill:#333333;" width="5" height="1.5"/>
<path style="fill:#333333;" d="M7.05,12.748L6.95,11.251c1.452-0.098,4.553-1.143,7.144-3.62c3.726-3.562,6.913-4.249,7.802-4.375
	l0.209,1.485c-1.599,0.226-4.271,1.388-6.974,3.973C12.434,11.294,9.052,12.613,7.05,12.748z"/>
<path style="fill:#333333;" d="M21.949,20.748c-2.002-0.136-5.384-1.455-8.08-4.032c-2.705-2.586-5.376-3.748-6.974-3.974
	l0.209-1.485c0.888,0.125,4.074,0.81,7.802,4.375c2.59,2.477,5.691,3.521,7.145,3.62L21.949,20.748z"/>
</svg>






