<?xml version="1.0" encoding="iso-8859-1"?>
<svg version="1.1" id="&#x56FE;&#x5C42;_1" xmlns="http://www.w3.org/2000/svg" xmlns:xlink="http://www.w3.org/1999/xlink" x="0px"
	 y="0px" viewBox="0 0 24 24" style="enable-background:new 0 0 24 24;" xml:space="preserve">
<path style="fill:#333333;" d="M4.396,12.638l-0.791-1.275c0.82-0.509,2.68-2.741,3.162-5.018c0.434-2.05,1.846-3.089,4.198-3.089
	c0.001,0,0.003,0,0.005,0L11,4.756h-0.032c-0.002,0-0.004,0-0.006,0c-1.151,0-2.374,0.227-2.728,1.9
	C7.622,9.549,5.396,12.017,4.396,12.638z"/>
<path style="fill:#333333;" d="M10.969,20.75c-2.354,0-3.769-1.041-4.203-3.095c-0.481-2.276-2.341-4.509-3.162-5.018l0.791-1.275
	c1,0.621,3.226,3.088,3.838,5.982c0.355,1.678,1.581,1.905,2.734,1.905c0.001,0,0.003,0,0.004,0L11,20l-0.027,0.75
	C10.972,20.75,10.971,20.75,10.969,20.75z M11,20.75V20V20.75z"/>
<circle style="fill:#333333;" cx="4" cy="12" r="2"/>
<rect x="4" y="11.25" style="fill:#333333;" width="7" height="1.5"/>
<rect x="15" y="11.25" style="fill:#333333;" width="6" height="1.5"/>
<rect x="15" y="3.25" style="fill:#333333;" width="6" height="1.5"/>
<rect x="15" y="19.251" style="fill:#333333;" width="6" height="1.5"/>
</svg>






