<?xml version="1.0" encoding="iso-8859-1"?>
<svg version="1.1" id="&#x56FE;&#x5C42;_1" xmlns="http://www.w3.org/2000/svg" xmlns:xlink="http://www.w3.org/1999/xlink" x="0px"
	 y="0px" viewBox="0 0 24 24" style="enable-background:new 0 0 24 24;" xml:space="preserve">
<path style="fill:#333333;" d="M12,6.56c-1.458,0-2.645-1.191-2.645-2.655S10.542,1.25,12,1.25s2.645,1.191,2.645,2.655
	S13.458,6.56,12,6.56z M12,2.75c-0.631,0-1.145,0.518-1.145,1.155S11.369,5.06,12,5.06s1.145-0.518,1.145-1.155S12.631,2.75,12,2.75
	z"/>
<path style="fill:#333333;" d="M4.895,20.846c-1.458,0-2.645-1.191-2.645-2.655s1.187-2.654,2.645-2.654
	c1.458,0,2.645,1.19,2.645,2.654S6.353,20.846,4.895,20.846z M4.895,17.036c-0.631,0-1.145,0.518-1.145,1.154
	s0.514,1.155,1.145,1.155c0.631,0,1.145-0.519,1.145-1.155S5.526,17.036,4.895,17.036z"/>
<path style="fill:#333333;" d="M19.105,20.846c-1.458,0-2.645-1.191-2.645-2.655s1.187-2.654,2.645-2.654s2.645,1.19,2.645,2.654
	S20.563,20.846,19.105,20.846z M19.105,17.036c-0.631,0-1.145,0.518-1.145,1.154s0.514,1.155,1.145,1.155s1.145-0.519,1.145-1.155
	S19.736,17.036,19.105,17.036z"/>
<path style="fill:#333333;" d="M21.707,13.878l-1.494-0.141c0.024-0.258,0.037-0.52,0.037-0.785c0-2.922-1.557-5.662-4.062-7.15
	l0.766-1.29c2.958,1.757,4.796,4.991,4.796,8.44C21.75,13.265,21.735,13.573,21.707,13.878z"/>
<path style="fill:#333333;" d="M12,22.75c-1.318,0-2.597-0.26-3.801-0.772l0.588-1.381c2.034,0.867,4.393,0.866,6.426,0l0.588,1.381
	C14.598,22.49,13.318,22.75,12,22.75z"/>
<path style="fill:#333333;" d="M2.293,13.878c-0.029-0.305-0.043-0.613-0.043-0.926c0-3.449,1.837-6.683,4.796-8.44l0.766,1.29
	C5.306,7.29,3.75,10.03,3.75,12.952c0,0.266,0.012,0.527,0.036,0.785L2.293,13.878z"/>
</svg>






