<?xml version="1.0" encoding="iso-8859-1"?>
<svg version="1.1" id="&#x56FE;&#x5C42;_1" xmlns="http://www.w3.org/2000/svg" xmlns:xlink="http://www.w3.org/1999/xlink" x="0px"
	 y="0px" viewBox="0 0 24 24" style="enable-background:new 0 0 24 24;" xml:space="preserve">
<path style="fill:#333333;" d="M12,6.386c-1.416,0-2.568-1.152-2.568-2.568S10.584,1.25,12,1.25s2.568,1.152,2.568,2.568
	S13.416,6.386,12,6.386z M12,2.75c-0.589,0-1.068,0.479-1.068,1.068S11.411,4.886,12,4.886s1.068-0.479,1.068-1.068
	S12.589,2.75,12,2.75z"/>
<path style="fill:#333333;" d="M12,22.75c-1.416,0-2.568-1.152-2.568-2.568s1.152-2.568,2.568-2.568s2.568,1.152,2.568,2.568
	S13.416,22.75,12,22.75z M12,19.113c-0.589,0-1.068,0.479-1.068,1.068S11.411,21.25,12,21.25s1.068-0.479,1.068-1.068
	S12.589,19.113,12,19.113z"/>
<path style="fill:#333333;" d="M3.818,14.568c-1.416,0-2.568-1.152-2.568-2.568s1.152-2.568,2.568-2.568S6.386,10.584,6.386,12
	S5.234,14.568,3.818,14.568z M3.818,10.932c-0.589,0-1.068,0.479-1.068,1.068s0.479,1.068,1.068,1.068S4.886,12.589,4.886,12
	S4.407,10.932,3.818,10.932z"/>
<path style="fill:#333333;" d="M20.182,14.568c-1.416,0-2.568-1.152-2.568-2.568s1.152-2.568,2.568-2.568S22.75,10.584,22.75,12
	S21.598,14.568,20.182,14.568z M20.182,10.932c-0.589,0-1.068,0.479-1.068,1.068s0.479,1.068,1.068,1.068S21.25,12.589,21.25,12
	S20.771,10.932,20.182,10.932z"/>
<path style="fill:#333333;" d="M18.286,8.034c-0.588-0.93-1.391-1.732-2.319-2.32l0.801-1.268c1.116,0.705,2.08,1.668,2.786,2.786
	L18.286,8.034z"/>
<path style="fill:#333333;" d="M16.768,19.554l-0.801-1.268c0.929-0.587,1.73-1.39,2.319-2.32l1.268,0.803
	C18.847,17.886,17.884,18.849,16.768,19.554z"/>
<path style="fill:#333333;" d="M7.232,19.554c-1.117-0.706-2.08-1.669-2.786-2.785l1.268-0.803c0.588,0.931,1.391,1.732,2.32,2.32
	L7.232,19.554z"/>
<path style="fill:#333333;" d="M5.714,8.034L4.446,7.232c0.706-1.116,1.669-2.08,2.786-2.786l0.802,1.268
	C7.104,6.302,6.302,7.104,5.714,8.034z"/>
</svg>






