<?xml version="1.0" encoding="iso-8859-1"?>
<svg version="1.1" id="&#x56FE;&#x5C42;_1" xmlns="http://www.w3.org/2000/svg" xmlns:xlink="http://www.w3.org/1999/xlink" x="0px"
	 y="0px" viewBox="0 0 24 24" style="enable-background:new 0 0 24 24;" xml:space="preserve">
<path style="fill:#333333;" d="M6.5,22.25c-2.619,0-4.75-2.131-4.75-4.75s2.131-4.75,4.75-4.75s4.75,2.131,4.75,4.75
	S9.119,22.25,6.5,22.25z M6.5,14.25c-1.792,0-3.25,1.458-3.25,3.25s1.458,3.25,3.25,3.25s3.25-1.458,3.25-3.25
	S8.292,14.25,6.5,14.25z"/>
<path style="fill:#333333;" d="M17.5,22.25c-2.619,0-4.75-2.131-4.75-4.75s2.131-4.75,4.75-4.75s4.75,2.131,4.75,4.75
	S20.119,22.25,17.5,22.25z M17.5,14.25c-1.792,0-3.25,1.458-3.25,3.25s1.458,3.25,3.25,3.25s3.25-1.458,3.25-3.25
	S19.292,14.25,17.5,14.25z"/>
<rect x="3" y="1.75" style="fill:#333333;" width="18" height="1.5"/>
<rect x="5.75" y="2.5" style="fill:#333333;" width="1.5" height="11"/>
<rect x="16.75" y="2.5" style="fill:#333333;" width="1.5" height="11"/>
<rect x="4.5" y="8.75" style="fill:#333333;" width="4" height="1.5"/>
<rect x="15.5" y="8.75" style="fill:#333333;" width="4" height="1.5"/>
</svg>






