<?xml version="1.0" encoding="iso-8859-1"?>
<svg version="1.1" id="&#x56FE;&#x5C42;_1" xmlns="http://www.w3.org/2000/svg" xmlns:xlink="http://www.w3.org/1999/xlink" x="0px"
	 y="0px" viewBox="0 0 24 24" style="enable-background:new 0 0 24 24;" xml:space="preserve">
<path style="fill:#333333;" d="M17,20.25c-1.992,0-3.684-0.799-5.32-1.571C10.125,17.943,8.656,17.25,7,17.25
	c-2.255,0-4.591,1.38-4.615,1.394l-0.771-1.287C1.724,17.291,4.323,15.75,7,15.75c1.993,0,3.685,0.799,5.32,1.572
	c1.555,0.734,3.023,1.428,4.68,1.428c2.255,0,4.592-1.38,4.615-1.394l0.771,1.287C22.276,18.709,19.677,20.25,17,20.25z"/>
<path style="fill:#333333;" d="M17,14.25c-1.992,0-3.684-0.799-5.32-1.571C10.125,11.944,8.656,11.25,7,11.25
	c-2.255,0-4.591,1.38-4.615,1.394l-0.771-1.287C1.724,11.292,4.323,9.75,7,9.75c1.993,0,3.685,0.799,5.32,1.572
	c1.555,0.735,3.023,1.428,4.68,1.428c2.255,0,4.592-1.379,4.615-1.394l0.771,1.287C22.276,12.709,19.677,14.25,17,14.25z"/>
<path style="fill:#333333;" d="M17,8.25c-1.992,0-3.684-0.799-5.32-1.572C10.125,5.944,8.656,5.25,7,5.25
	c-2.255,0-4.591,1.379-4.615,1.394L1.614,5.357C1.724,5.292,4.323,3.75,7,3.75c1.993,0,3.685,0.799,5.32,1.572
	C13.875,6.056,15.344,6.75,17,6.75c2.255,0,4.592-1.379,4.615-1.394l0.771,1.287C22.276,6.708,19.677,8.25,17,8.25z"/>
</svg>






