<?xml version="1.0" encoding="iso-8859-1"?>
<svg version="1.1" id="&#x56FE;&#x5C42;_1" xmlns="http://www.w3.org/2000/svg" xmlns:xlink="http://www.w3.org/1999/xlink" x="0px"
	 y="0px" viewBox="0 0 24 24" style="enable-background:new 0 0 24 24;" xml:space="preserve">
<path style="fill:none;" d="M13.5,3h-3L9.875,5.25L9.25,7.5L8,12l-1.25,4.5l-0.625,2.25L5.5,21h13l-0.75-2.7L16,12l-1.25-4.5
	l-0.625-2.25L13.5,3z"/>
<path style="fill:#333333;" d="M21,21.75H3v-1.5h1.93l5-18h4.14l5,18H21V21.75z M6.487,20.25h11.027L12.93,3.75h-1.86L6.487,20.25z"
	/>
<rect x="6.75" y="15.75" style="fill:#333333;" width="10.5" height="1.5"/>
<rect x="8" y="11.25" style="fill:#333333;" width="8" height="1.5"/>
<rect x="9.25" y="6.75" style="fill:#333333;" width="5.5" height="1.5"/>
<rect x="15.187" y="5.003" transform="matrix(0.9635 -0.2676 0.2676 0.9635 -2.57 4.695)" style="fill:#333333;" width="1.5" height="13.544"/>
<rect x="0.994" y="11.25" transform="matrix(0.2682 -0.9634 0.9634 0.2682 -5.7059 16.4888)" style="fill:#333333;" width="14.011" height="1.5"/>
</svg>






