<?xml version="1.0" encoding="iso-8859-1"?>
<svg version="1.1" id="&#x56FE;&#x5C42;_1" xmlns="http://www.w3.org/2000/svg" xmlns:xlink="http://www.w3.org/1999/xlink" x="0px"
	 y="0px" viewBox="0 0 24 24" style="enable-background:new 0 0 24 24;" xml:space="preserve">
<path style="fill:#333333;" d="M22.25,21.75H1.75V17.5c0-0.965,0.785-1.75,1.75-1.75h17c0.965,0,1.75,0.785,1.75,1.75V21.75z
	 M3.25,20.25h17.5V17.5c0-0.138-0.112-0.25-0.25-0.25h-17c-0.138,0-0.25,0.112-0.25,0.25V20.25z"/>
<polygon style="fill:#333333;" points="21,9.75 16.689,9.75 12.939,6 16.689,2.25 21,2.25 21,3.75 17.311,3.75 15.061,6 
	17.311,8.25 21,8.25 "/>
<path style="fill:#333333;" d="M4,8.75C2.483,8.75,1.25,7.517,1.25,6S2.483,3.25,4,3.25S6.75,4.483,6.75,6S5.517,8.75,4,8.75z
	 M4,4.75C3.311,4.75,2.75,5.311,2.75,6S3.311,7.25,4,7.25S5.25,6.689,5.25,6S4.689,4.75,4,4.75z"/>
<rect x="6" y="5.25" style="fill:#333333;" width="8" height="1.5"/>
<rect x="6.25" y="7.553" transform="matrix(0.9048 -0.4258 0.4258 0.9048 -4.5497 4.1466)" style="fill:#333333;" width="1.5" height="9.394"/>
</svg>






