<?xml version="1.0" encoding="iso-8859-1"?>
<svg version="1.1" id="&#x56FE;&#x5C42;_1" xmlns="http://www.w3.org/2000/svg" xmlns:xlink="http://www.w3.org/1999/xlink" x="0px"
	 y="0px" viewBox="0 0 24 24" style="enable-background:new 0 0 24 24;" xml:space="preserve">
<path style="fill:#333333;" d="M18.5,22.25h-13c-0.965,0-1.75-0.785-1.75-1.75v-11c0-0.965,0.785-1.75,1.75-1.75h13
	c0.965,0,1.75,0.785,1.75,1.75v11C20.25,21.465,19.465,22.25,18.5,22.25z M5.5,9.25c-0.138,0-0.25,0.112-0.25,0.25v11
	c0,0.138,0.112,0.25,0.25,0.25h13c0.138,0,0.25-0.112,0.25-0.25v-11c0-0.138-0.112-0.25-0.25-0.25H5.5z"/>
<rect x="12.892" y="5.75" transform="matrix(0.5301 -0.8479 0.8479 0.5301 1.6542 15.9851)" style="fill:#333333;" width="4.717" height="1.5"/>
<rect x="8" y="4.142" transform="matrix(0.848 -0.53 0.53 0.848 -2.115 5.6255)" style="fill:#333333;" width="1.5" height="4.717"/>
<path style="fill:#333333;" d="M17,5.25c-0.965,0-1.75-0.785-1.75-1.75S16.035,1.75,17,1.75s1.75,0.785,1.75,1.75
	S17.965,5.25,17,5.25z M17,3.25c-0.138,0-0.25,0.112-0.25,0.25c0,0.275,0.5,0.275,0.5,0C17.25,3.362,17.138,3.25,17,3.25z"/>
<path style="fill:#333333;" d="M7,5.25c-0.965,0-1.75-0.785-1.75-1.75S6.035,1.75,7,1.75S8.75,2.535,8.75,3.5S7.965,5.25,7,5.25z
	 M7,3.25c-0.138,0-0.25,0.112-0.25,0.25c0,0.275,0.5,0.275,0.5,0C7.25,3.362,7.138,3.25,7,3.25z"/>
<path style="fill:#333333;" d="M14,16.75h-4c-1.517,0-2.75-1.233-2.75-2.75s1.233-2.75,2.75-2.75h4c1.517,0,2.75,1.233,2.75,2.75
	S15.517,16.75,14,16.75z M10,12.75c-0.689,0-1.25,0.561-1.25,1.25s0.561,1.25,1.25,1.25h4c0.689,0,1.25-0.561,1.25-1.25
	s-0.561-1.25-1.25-1.25H10z"/>
<polygon style="fill:#333333;" points="4.5,17.75 1.25,17.75 1.25,11.25 4.5,11.25 4.5,12.75 2.75,12.75 2.75,16.25 4.5,16.25 "/>
<polygon style="fill:#333333;" points="22.75,17.75 19.5,17.75 19.5,16.25 21.25,16.25 21.25,12.75 19.5,12.75 19.5,11.25 
	22.75,11.25 "/>
</svg>






