<?xml version="1.0" encoding="iso-8859-1"?>
<svg version="1.1" id="&#x56FE;&#x5C42;_1" xmlns="http://www.w3.org/2000/svg" xmlns:xlink="http://www.w3.org/1999/xlink" x="0px"
	 y="0px" viewBox="0 0 24 24" style="enable-background:new 0 0 24 24;" xml:space="preserve">
<path style="fill:#333333;" d="M17,15.25H6.575l-0.218-0.364C6.292,14.776,4.75,12.171,4.75,9V8.25h8.062
	c0.125-0.895,0.498-2.432,1.618-3.738c1.58-1.844,3.167-2.649,3.234-2.683l0.499-0.25l4.586,4.873v3.817l-4.452-1.391
	c-1.349,2.191-0.578,5.406-0.57,5.44l0.229,0.93L17,15.25z M7.449,13.75h8.655c-0.192-1.433-0.295-4.211,1.311-6.219l0.32-0.4
	L21.25,8.23V7.047l-3.384-3.595c-0.523,0.342-1.412,1.004-2.297,2.036C14.265,7.01,14.25,8.98,14.25,9v0.75H6.283
	C6.44,11.545,7.112,13.077,7.449,13.75z"/>
<rect x="15.5" y="14.25" transform="matrix(0.9231 -0.3846 0.3846 0.9231 -5.4808 7.5962)" style="fill:#333333;" width="1.5" height="6.5"/>
<rect x="4.5" y="16.75" transform="matrix(0.3842 -0.9233 0.9233 0.3842 -11.3844 17.9327)" style="fill:#333333;" width="6.5" height="1.5"/>
<path style="fill:#333333;" d="M12,22.25c-7.228,0-10.399-3.088-10.53-3.22l1.058-1.063C2.556,17.995,5.444,20.75,12,20.75
	s9.444-2.755,9.473-2.783l1.058,1.063C22.398,19.162,19.228,22.25,12,22.25z"/>
<path style="fill:#333333;" d="M6.25,9h-1.5c0-0.528-0.198-2.25-2.75-2.25v-1.5C4.936,5.25,6.25,7.133,6.25,9z"/>
</svg>






