<?xml version="1.0" encoding="iso-8859-1"?>
<svg version="1.1" id="&#x56FE;&#x5C42;_1" xmlns="http://www.w3.org/2000/svg" xmlns:xlink="http://www.w3.org/1999/xlink" x="0px"
	 y="0px" viewBox="0 0 24 24" style="enable-background:new 0 0 24 24;" xml:space="preserve">
<path style="fill:#333333;" d="M12.23,23.062c-2.374,0-4.574-1.642-5.204-2.271c-0.222-0.222-0.435-0.473-0.631-0.747
	c-0.42-0.584-0.373-1.365,0.113-1.9c0.02-0.022,0.041-0.044,0.061-0.066c-0.133-0.038-0.26-0.095-0.378-0.169
	c-0.412-0.257-0.669-0.685-0.707-1.175c-0.08-1.041,0.01-3.044,1.508-4.755c2.179-2.491,4.005-2.504,4.702-2.479L11.75,11h-0.062
	c-0.541-0.011-1.837-0.009-3.566,1.968c-1.137,1.299-1.203,2.846-1.141,3.652c0.497-0.149,0.82-0.308,1.026-0.444
	c0.308-0.206,0.322-0.31,0.382-0.749c0.033-0.241,0.073-0.542,0.188-0.884c0.427-1.28,1.993-2.021,3.489-1.644
	c1.257,0.313,2.07,1.248,2.29,2.63c0.203,1.279-0.575,2.562-1.893,3.116c-1.096,0.458-1.838,0.242-2.624,0.01
	c-0.283-0.083-0.6-0.178-0.987-0.255c-0.281-0.056-0.758,0.23-1.233,0.753c0.144,0.225,0.303,0.413,0.468,0.577
	c0.42,0.42,2.542,2.057,4.569,1.806c1.933-0.241,3.779-1.684,4.596-3.589c0.717-1.672,0.533-4.046-1.202-5.348l0.9-1.2
	c2.354,1.766,2.628,4.927,1.681,7.137c-1.02,2.379-3.346,4.183-5.789,4.487C12.638,23.05,12.434,23.062,12.23,23.062z M9.357,16.975
	c0.345,0.077,0.639,0.164,0.906,0.242c0.719,0.213,1.015,0.3,1.618,0.046c0.792-0.334,1.07-1.011,0.993-1.498
	c-0.166-1.043-0.748-1.305-1.172-1.41c-0.785-0.193-1.545,0.188-1.703,0.663c-0.069,0.209-0.096,0.404-0.124,0.611
	C9.82,16.034,9.755,16.515,9.357,16.975z"/>
<path style="fill:#333333;" d="M12.824,15.325C12.094,13.805,9.56,4.996,9.29,3.81c-0.23-1.018,0.239-1.947,1.29-2.55
	c0.28-0.16,0.604-0.198,0.915-0.104c0.319,0.096,0.589,0.326,0.741,0.629l4.936,9.88l-1.342,0.67l-4.786-9.579
	c-0.38,0.324-0.314,0.614-0.29,0.722c0.26,1.143,2.748,9.792,3.423,11.197L12.824,15.325z"/>
<path style="fill:#333333;" d="M17.251,13.537L16.793,4.2c-0.511,0.121-0.581,0.42-0.606,0.53c-0.263,1.128-0.431,2.766-0.437,4.273
	l-1.5-0.006c0.007-1.612,0.189-3.378,0.476-4.608c0.24-1.024,1.077-1.655,2.296-1.732c0.306-0.017,0.611,0.084,0.847,0.293
	c0.242,0.215,0.391,0.528,0.407,0.857l0.474,9.656L17.251,13.537z"/>
</svg>






