<?xml version="1.0" encoding="iso-8859-1"?>
<svg version="1.1" id="&#x56FE;&#x5C42;_1" xmlns="http://www.w3.org/2000/svg" xmlns:xlink="http://www.w3.org/1999/xlink" x="0px"
	 y="0px" viewBox="0 0 24 24" style="enable-background:new 0 0 24 24;" xml:space="preserve">
<path style="fill:#333333;" d="M13,22.75H6.5c-0.074,0-1.825-0.014-3.03-1.22c-1.206-1.206-1.22-2.717-1.22-2.78V6.391
	c0-0.828,0.611-2.141,2.25-2.141c1.651,0,2.25,1.28,2.25,2.141V12.5h-1.5V6.391c0-0.15-0.054-0.641-0.75-0.641
	c-0.729,0-0.75,0.575-0.75,0.641V18.75c0,0.003,0.026,0.965,0.78,1.72c0.76,0.76,1.961,0.78,1.973,0.78H13
	c0.604-0.046,2.439-2.366,3.847-4.868l0.123-0.162l3.25-3.25c0.461-0.461,0.461-0.729,0-1.189c-0.389-0.387-0.861-0.077-1.189,0.25
	l-3.5,3.5L14.25,15V3.75c0-0.664-0.252-1-0.75-1s-0.75,0.336-0.75,1v8.75h-1.5V3.75c0-1.244,0.696-2.5,2.25-2.5
	c1.555,0,2.25,1.256,2.25,2.5v9.439l2.22-2.22c1.064-1.065,2.396-1.165,3.311-0.25c0.505,0.505,0.769,1.043,0.785,1.602
	c0.017,0.596-0.247,1.171-0.785,1.709l-3.178,3.178C17.118,18.946,14.761,22.75,13,22.75z"/>
<path style="fill:#333333;" d="M7.5,16.25c-1.241,0-2.25-1.01-2.25-2.25v-3c0-1.241,1.009-2.25,2.25-2.25S9.75,9.759,9.75,11v3
	C9.75,15.24,8.741,16.25,7.5,16.25z M7.5,10.25c-0.414,0-0.75,0.336-0.75,0.75v3c0,0.413,0.336,0.75,0.75,0.75S8.25,14.413,8.25,14
	v-3C8.25,10.586,7.914,10.25,7.5,10.25z"/>
<path style="fill:#333333;" d="M10.5,16.25c-1.241,0-2.25-1.01-2.25-2.25v-3c0-1.241,1.009-2.25,2.25-2.25s2.25,1.009,2.25,2.25v3
	C12.75,15.24,11.741,16.25,10.5,16.25z M10.5,10.25c-0.414,0-0.75,0.336-0.75,0.75v3c0,0.413,0.336,0.75,0.75,0.75
	s0.75-0.337,0.75-0.75v-3C11.25,10.586,10.914,10.25,10.5,10.25z"/>
</svg>






