<?xml version="1.0" encoding="iso-8859-1"?>
<svg version="1.1" id="&#x56FE;&#x5C42;_1" xmlns="http://www.w3.org/2000/svg" xmlns:xlink="http://www.w3.org/1999/xlink" x="0px"
	 y="0px" viewBox="0 0 24 24" style="enable-background:new 0 0 24 24;" xml:space="preserve">
<path style="fill:#333333;" d="M18.25,19.25H5.75V9.586c0-2.455,1.181-4.789,3.158-6.243L12,1.069l3.092,2.274
	c1.978,1.454,3.158,3.788,3.158,6.243V19.25z M7.25,17.75h9.5V9.586c0-1.98-0.952-3.862-2.547-5.035L12,2.931l-2.203,1.62
	C8.202,5.724,7.25,7.606,7.25,9.586V17.75z"/>
<path style="fill:#333333;" d="M2.75,16.714v-5.524l3.22-3.22L7.25,8.5v5.964L2.75,16.714z M4.25,11.811v2.476l1.5-0.75v-3.226
	L4.25,11.811z"/>
<path style="fill:#333333;" d="M21.25,16.714l-4.5-2.25V8.5l1.28-0.53l3.22,3.22V16.714z M18.25,13.536l1.5,0.75v-2.476l-1.5-1.5
	V13.536z"/>
<rect x="8.25" y="19.5" style="fill:#333333;" width="1.5" height="1.5"/>
<rect x="11.25" y="19.5" style="fill:#333333;" width="1.5" height="2.5"/>
<rect x="14.25" y="19.5" style="fill:#333333;" width="1.5" height="1.5"/>
</svg>






