<?xml version="1.0" encoding="iso-8859-1"?>
<svg version="1.1" id="&#x56FE;&#x5C42;_1" xmlns="http://www.w3.org/2000/svg" xmlns:xlink="http://www.w3.org/1999/xlink" x="0px"
	 y="0px" viewBox="0 0 24 24" style="enable-background:new 0 0 24 24;" xml:space="preserve">
<path style="fill:#333333;" d="M18.75,17.25H5.25v-5.898c0-3.603,1.79-6.946,4.787-8.945l0.715-0.477
	c0.758-0.506,1.738-0.506,2.496,0l0.715,0.477c2.997,1.999,4.787,5.342,4.787,8.945V17.25z M6.75,15.75h10.5v-4.398
	c0-3.1-1.54-5.977-4.119-7.697l-0.715-0.477c-0.253-0.168-0.58-0.167-0.832,0l-0.715,0.477C8.29,5.375,6.75,8.252,6.75,11.352V15.75
	z"/>
<path style="fill:#333333;" d="M12,13.75c-2.068,0-3.75-1.683-3.75-3.75c0-2.068,1.682-3.75,3.75-3.75c2.067,0,3.75,1.682,3.75,3.75
	C15.75,12.067,14.067,13.75,12,13.75z M12,7.75c-1.241,0-2.25,1.009-2.25,2.25s1.009,2.25,2.25,2.25c1.24,0,2.25-1.009,2.25-2.25
	S13.24,7.75,12,7.75z"/>
<polygon style="fill:#333333;" points="21.75,17.25 2.25,17.25 2.25,13.806 5.46,10.479 6.54,11.521 3.75,14.411 3.75,15.75 
	20.25,15.75 20.25,14.411 17.46,11.521 18.54,10.479 21.75,13.806 "/>
<rect x="11.25" y="19" style="fill:#333333;" width="1.5" height="3"/>
<rect x="7.25" y="20" style="fill:#333333;" width="1.5" height="1"/>
<rect x="15.25" y="20" style="fill:#333333;" width="1.5" height="1"/>
</svg>






