<?xml version="1.0" encoding="iso-8859-1"?>
<svg version="1.1" id="&#x56FE;&#x5C42;_1" xmlns="http://www.w3.org/2000/svg" xmlns:xlink="http://www.w3.org/1999/xlink" x="0px"
	 y="0px" viewBox="0 0 24 24" style="enable-background:new 0 0 24 24;" xml:space="preserve">
<path style="fill:#333333;" d="M22,6.75h-8L13.25,6V2L14,1.25h8L22.75,2v4L22,6.75z M14.75,5.25h6.5v-2.5h-6.5V5.25z"/>
<path style="fill:#333333;" d="M21,18.75H4c-1.517,0-2.75-1.233-2.75-2.75v-3c0-2.619,2.131-4.75,4.75-4.75h7.25V6L14,5.25h8
	L22.75,6v11C22.75,17.965,21.965,18.75,21,18.75z M6,9.75c-1.792,0-3.25,1.458-3.25,3.25v3c0,0.689,0.561,1.25,1.25,1.25h17
	c0.141,0,0.25-0.109,0.25-0.25V6.75h-6.5V9L14,9.75H6z"/>
<rect x="6.25" y="9" style="fill:#333333;" width="1.5" height="3"/>
<rect x="9.75" y="9" style="fill:#333333;" width="1.5" height="3"/>
<rect x="6" y="8.25" style="fill:#333333;" width="5.5" height="1.5"/>
<path style="fill:#333333;" d="M4.5,22.75c-1.517,0-2.75-1.233-2.75-2.75s1.233-2.75,2.75-2.75S7.25,18.483,7.25,20
	S6.017,22.75,4.5,22.75z M4.5,18.75c-0.689,0-1.25,0.561-1.25,1.25s0.561,1.25,1.25,1.25S5.75,20.689,5.75,20S5.189,18.75,4.5,18.75
	z"/>
<path style="fill:#333333;" d="M9.665,22.75c-1.517,0-2.75-1.233-2.75-2.75s1.233-2.75,2.75-2.75s2.75,1.233,2.75,2.75
	S11.182,22.75,9.665,22.75z M9.665,18.75c-0.689,0-1.25,0.561-1.25,1.25s0.561,1.25,1.25,1.25s1.25-0.561,1.25-1.25
	S10.354,18.75,9.665,18.75z"/>
<path style="fill:#333333;" d="M14.835,22.75c-1.517,0-2.75-1.233-2.75-2.75s1.233-2.75,2.75-2.75s2.75,1.233,2.75,2.75
	S16.352,22.75,14.835,22.75z M14.835,18.75c-0.689,0-1.25,0.561-1.25,1.25s0.561,1.25,1.25,1.25s1.25-0.561,1.25-1.25
	S15.524,18.75,14.835,18.75z"/>
<path style="fill:#333333;" d="M20,22.75c-1.517,0-2.75-1.233-2.75-2.75s1.233-2.75,2.75-2.75s2.75,1.233,2.75,2.75
	S21.517,22.75,20,22.75z M20,18.75c-0.689,0-1.25,0.561-1.25,1.25s0.561,1.25,1.25,1.25s1.25-0.561,1.25-1.25S20.689,18.75,20,18.75
	z"/>
</svg>






