<?xml version="1.0" encoding="iso-8859-1"?>
<svg version="1.1" id="&#x56FE;&#x5C42;_1" xmlns="http://www.w3.org/2000/svg" xmlns:xlink="http://www.w3.org/1999/xlink" x="0px"
	 y="0px" viewBox="0 0 24 24" style="enable-background:new 0 0 24 24;" xml:space="preserve">
<path style="fill:#333333;" d="M15.5,22.75c-2.344,0-4.25-1.906-4.25-4.25v-13c0-1.517-1.233-2.75-2.75-2.75S5.75,3.983,5.75,5.5V16
	h-1.5V5.5c0-2.343,1.907-4.25,4.25-4.25s4.25,1.907,4.25,4.25v13c0,1.517,1.233,2.75,2.75,2.75s2.75-1.233,2.75-2.75V8h1.5v10.5
	C19.75,20.844,17.844,22.75,15.5,22.75z"/>
<path style="fill:none;" d="M20.5,2v6h-3V2H20.5z"/>
<path style="fill:#333333;" d="M22,8.75h-1.5V8v0.75H16v-1.5h0.75v-6h4.5v6H22V8.75z M18.25,7.25h1.5v-4.5h-1.5V7.25z"/>
<path style="fill:none;" d="M3.5,22v-6h3v6H3.5z"/>
<path style="fill:#333333;" d="M7.25,22.75h-4.5v-6H2v-1.5h4.5V16v-0.75H8v1.5H7.25V22.75z M4.25,21.25h1.5v-4.5h-1.5V21.25z"/>
</svg>






