<?xml version="1.0" encoding="iso-8859-1"?>
<svg version="1.1" id="&#x56FE;&#x5C42;_1" xmlns="http://www.w3.org/2000/svg" xmlns:xlink="http://www.w3.org/1999/xlink" x="0px"
	 y="0px" viewBox="0 0 24 24" style="enable-background:new 0 0 24 24;" xml:space="preserve">
<polygon style="fill:#333333;" points="10.53,20.03 9.47,18.97 10.939,17.5 9.47,16.03 10.53,14.97 13.061,17.5 "/>
<path style="fill:#333333;" d="M12,18.25c-6.028,0-10.75-2.525-10.75-5.75c0-3.224,4.722-5.75,10.75-5.75
	c6.028,0,10.75,2.526,10.75,5.75c0,2.392-2.525,4.429-6.59,5.316l-0.32-1.465c3.236-0.707,5.41-2.255,5.41-3.852
	c0-2.052-3.717-4.25-9.25-4.25s-9.25,2.198-9.25,4.25c0,2.053,3.717,4.25,9.25,4.25V18.25z"/>
</svg>






