<?xml version="1.0" encoding="iso-8859-1"?>
<svg version="1.1" id="&#x56FE;&#x5C42;_1" xmlns="http://www.w3.org/2000/svg" xmlns:xlink="http://www.w3.org/1999/xlink" x="0px"
	 y="0px" viewBox="0 0 24 24" style="enable-background:new 0 0 24 24;" xml:space="preserve">
<path style="fill:#333333;" d="M12,22.75v-1.5c5.101,0,9.25-4.149,9.25-9.25S17.101,2.75,12,2.75v-1.5
	c5.928,0,10.75,4.822,10.75,10.75S17.928,22.75,12,22.75z"/>
<path style="fill:#333333;" d="M12,22.75c-0.362,0-0.719-0.018-1.071-0.053l0.146-1.492c0.304,0.029,0.612,0.045,0.924,0.045V22.75z
	 M7.815,21.905c-0.331-0.14-0.654-0.297-0.968-0.468l0.719-1.316c0.27,0.147,0.547,0.281,0.832,0.401L7.815,21.905z M4.29,19.491
	c-0.249-0.258-0.486-0.526-0.709-0.808l1.176-0.932c0.192,0.242,0.396,0.474,0.61,0.694L4.29,19.491z M1.98,15.901
	c-0.129-0.332-0.243-0.673-0.339-1.021l1.445-0.4c0.083,0.299,0.18,0.591,0.291,0.876L1.98,15.901z M2.753,11.734l-1.499-0.041
	c0.01-0.362,0.038-0.719,0.083-1.071l1.487,0.191C2.786,11.116,2.762,11.423,2.753,11.734z M3.583,8.157L2.219,7.533
	c0.15-0.327,0.315-0.646,0.496-0.954l1.294,0.759C3.854,7.602,3.712,7.875,3.583,8.157z M5.746,5.184L4.731,4.08
	c0.263-0.242,0.539-0.47,0.825-0.686l0.902,1.198C6.211,4.778,5.973,4.976,5.746,5.184z M8.892,3.285L8.388,1.872
	c0.336-0.12,0.679-0.223,1.03-0.31L9.776,3.02C9.475,3.093,9.18,3.182,8.892,3.285z"/>
</svg>






