<?xml version="1.0" encoding="iso-8859-1"?>
<svg version="1.1" id="&#x56FE;&#x5C42;_1" xmlns="http://www.w3.org/2000/svg" xmlns:xlink="http://www.w3.org/1999/xlink" x="0px"
	 y="0px" viewBox="0 0 24 24" style="enable-background:new 0 0 24 24;" xml:space="preserve">
<polygon style="fill:#333333;" points="18.47,14.53 17,13.061 15.53,14.53 14.47,13.47 17,10.939 19.53,13.47 "/>
<path style="fill:#333333;" d="M12,22.75c-3.224,0-5.75-4.722-5.75-10.75C6.25,5.972,8.776,1.25,12,1.25
	c2.392,0,4.429,2.525,5.316,6.59l-1.465,0.32C15.145,4.924,13.597,2.75,12,2.75c-2.052,0-4.25,3.717-4.25,9.25s2.198,9.25,4.25,9.25
	c2.053,0,4.25-3.717,4.25-9.25h1.5C17.75,18.028,15.225,22.75,12,22.75z"/>
</svg>






