<?xml version="1.0" encoding="iso-8859-1"?>
<svg version="1.1" id="&#x56FE;&#x5C42;_1" xmlns="http://www.w3.org/2000/svg" xmlns:xlink="http://www.w3.org/1999/xlink" x="0px"
	 y="0px" viewBox="0 0 24 24" style="enable-background:new 0 0 24 24;" xml:space="preserve">
<path style="fill:#333333;" d="M21.75,21.75H5.25v-10.5h16.5V21.75z M6.75,20.25h13.5v-7.5H6.75V20.25z"/>
<polygon style="fill:#333333;" points="7.5,9.25 2.25,9.25 2.25,4 3.75,4 3.75,7.75 7.5,7.75 "/>
<path style="fill:#333333;" d="M3.546,9.014L2.454,7.986L4.31,6.011C6.124,3.642,8.945,2.25,12,2.25c3.076,0,6.007,1.478,7.84,3.953
	l-1.205,0.893C17.061,4.969,14.642,3.75,12,3.75c-2.585,0-4.972,1.178-6.549,3.231L3.546,9.014z"/>
</svg>






