<?xml version="1.0" encoding="iso-8859-1"?>
<svg version="1.1" id="&#x56FE;&#x5C42;_1" xmlns="http://www.w3.org/2000/svg" xmlns:xlink="http://www.w3.org/1999/xlink" x="0px"
	 y="0px" viewBox="0 0 24 24" style="enable-background:new 0 0 24 24;" xml:space="preserve">
<path style="fill:#333333;" d="M2.75,12h-1.5c0-3.029,1.292-5.897,3.475-7.912H3.338v-1.5H7v0.75h0.75V7h-1.5V4.755
	C4.064,6.496,2.75,9.166,2.75,12z"/>
<path style="fill:#333333;" d="M12,22.75c-3.03,0-5.897-1.291-7.912-3.475v1.387h-1.5V17h0.75v-0.75H7v1.5H4.754
	c1.741,2.187,4.411,3.5,7.246,3.5V22.75z"/>
<path style="fill:#333333;" d="M20.662,21.412H17v-0.75h-0.75V17h1.5v2.246c2.187-1.741,3.5-4.411,3.5-7.246h1.5
	c0,3.03-1.291,5.897-3.475,7.912h1.387V21.412z"/>
<path style="fill:#333333;" d="M20.662,7.75H17v-1.5h2.245c-1.741-2.186-4.411-3.5-7.245-3.5v-1.5c3.029,0,5.897,1.292,7.912,3.476
	V3.338h1.5V7h-0.75V7.75z"/>
</svg>






