<?xml version="1.0" encoding="iso-8859-1"?>
<svg version="1.1" id="&#x56FE;&#x5C42;_1" xmlns="http://www.w3.org/2000/svg" xmlns:xlink="http://www.w3.org/1999/xlink" x="0px"
	 y="0px" viewBox="0 0 24 24" style="enable-background:new 0 0 24 24;" xml:space="preserve">
<path style="fill:#333333;" d="M12,22.75C6.072,22.75,1.25,17.928,1.25,12S6.072,1.25,12,1.25S22.75,6.072,22.75,12
	S17.928,22.75,12,22.75z M12,2.75c-5.101,0-9.25,4.149-9.25,9.25s4.149,9.25,9.25,9.25s9.25-4.149,9.25-9.25S17.101,2.75,12,2.75z"
	/>
<path style="fill:#333333;" d="M12,22.75c-3.17,0-5.75-2.579-5.75-5.75s2.58-5.75,5.75-5.75c2.344,0,4.25-1.907,4.25-4.25
	S14.344,2.75,12,2.75v-1.5c3.171,0,5.75,2.58,5.75,5.75s-2.579,5.75-5.75,5.75c-2.343,0-4.25,1.906-4.25,4.25s1.907,4.25,4.25,4.25
	V22.75z"/>
<path style="fill:#333333;" d="M17,17.75c-3.171,0-5.75-2.579-5.75-5.75c0-2.343-1.907-4.25-4.25-4.25S2.75,9.657,2.75,12h-1.5
	c0-3.17,2.58-5.75,5.75-5.75s5.75,2.58,5.75,5.75c0,2.344,1.906,4.25,4.25,4.25s4.25-1.906,4.25-4.25h1.5
	C22.75,15.171,20.171,17.75,17,17.75z"/>
</svg>






