<?xml version="1.0" encoding="iso-8859-1"?>
<svg version="1.1" id="&#x56FE;&#x5C42;_1" xmlns="http://www.w3.org/2000/svg" xmlns:xlink="http://www.w3.org/1999/xlink" x="0px"
	 y="0px" viewBox="0 0 24 24" style="enable-background:new 0 0 24 24;" xml:space="preserve">
<path style="fill:#333333;" d="M12,22.75C6.072,22.75,1.25,17.928,1.25,12S6.072,1.25,12,1.25S22.75,6.072,22.75,12
	S17.928,22.75,12,22.75z M12,2.75c-5.101,0-9.25,4.149-9.25,9.25s4.149,9.25,9.25,9.25s9.25-4.149,9.25-9.25S17.101,2.75,12,2.75z"
	/>
<path style="fill:#333333;" d="M12,14.75c-1.517,0-2.75-1.233-2.75-2.75S10.483,9.25,12,9.25s2.75,1.233,2.75,2.75
	S13.517,14.75,12,14.75z M12,10.75c-0.689,0-1.25,0.561-1.25,1.25s0.561,1.25,1.25,1.25s1.25-0.561,1.25-1.25S12.689,10.75,12,10.75
	z"/>
<path style="fill:#333333;" d="M17.127,21.479l-2.947-4.644l0.633-0.401c0.745-0.473,1.363-1.132,1.788-1.904
	c0.425-0.773,0.649-1.648,0.649-2.529v-0.75h5.5V12c0,1.806-0.46,3.597-1.33,5.179c-0.87,1.583-2.136,2.931-3.659,3.897
	L17.127,21.479z M16.228,17.262l1.346,2.121c1.037-0.784,1.904-1.784,2.532-2.927c0.628-1.142,1.008-2.41,1.114-3.706h-2.512
	c-0.099,0.874-0.367,1.728-0.793,2.502C17.489,16.025,16.913,16.71,16.228,17.262z"/>
<path style="fill:#333333;" d="M6.951,21.521l-0.636-0.396c-1.533-0.955-2.809-2.292-3.692-3.868
	c-0.883-1.574-1.357-3.36-1.372-5.167l-0.006-0.75l5.499-0.046l0.006,0.75c0.007,0.882,0.239,1.754,0.67,2.522
	c0.431,0.77,1.054,1.423,1.803,1.89l0.636,0.397L6.951,21.521z M2.787,12.826c0.117,1.296,0.507,2.561,1.144,3.696
	c0.637,1.138,1.513,2.131,2.557,2.905l1.328-2.131C7.125,16.75,6.543,16.07,6.112,15.3c-0.432-0.77-0.708-1.62-0.813-2.494
	L2.787,12.826z"/>
<path style="fill:#333333;" d="M15.205,7.774L14.55,7.411c-0.771-0.428-1.646-0.657-2.526-0.661
	c-0.889,0.033-1.757,0.217-2.532,0.638L8.833,7.747L6.204,2.916l0.659-0.358C8.435,1.702,10.21,1.25,12.001,1.25
	c0.016,0,0.031,0,0.046,0c1.806,0.008,3.595,0.476,5.174,1.353l0.655,0.364L15.205,7.774z M12.001,5.25c0.01,0,0.019,0,0.028,0
	c0.883,0.004,1.76,0.183,2.573,0.522l1.219-2.195c-1.185-0.537-2.478-0.821-3.78-0.827c-0.014,0-0.027,0-0.04,0
	c-1.29,0-2.571,0.272-3.748,0.793l1.2,2.206C10.26,5.421,11.127,5.25,12.001,5.25z"/>
</svg>






