<?xml version="1.0" encoding="iso-8859-1"?>
<svg version="1.1" id="&#x56FE;&#x5C42;_1" xmlns="http://www.w3.org/2000/svg" xmlns:xlink="http://www.w3.org/1999/xlink" x="0px"
	 y="0px" viewBox="0 0 24 24" style="enable-background:new 0 0 24 24;" xml:space="preserve">
<path style="fill:#333333;" d="M4.037,16.516c-0.406,0-0.812-0.096-1.194-0.289c-0.889-0.447-1.511-1.35-1.625-2.353
	C1.04,12.315,1.75,9.89,1.781,9.787l0.358-1.209l2.473,2.473l12.754-7.849l4.797,1.066l0.232,1.369
	C21.757,6.034,6.733,15.365,5.375,16.149C4.953,16.394,4.495,16.516,4.037,16.516z M2.913,11.474
	c-0.151,0.747-0.274,1.623-0.206,2.23c0.057,0.499,0.375,0.964,0.811,1.184c0.254,0.127,0.652,0.225,1.107-0.037
	c1.082-0.625,11.422-7.039,15.417-9.518l-2.408-0.535L4.389,12.949L2.913,11.474z"/>
<polygon style="fill:#333333;" points="6.97,10.53 2.778,6.339 5.235,4.921 13.079,5.754 12.921,7.246 5.562,6.464 5.222,6.661 
	8.03,9.47 "/>
<polygon style="fill:#333333;" points="13.914,22.469 11.915,19.969 12.5,18.75 20.25,18.75 20.25,17.5 21.75,17.5 21.75,20.25 
	14.061,20.25 15.086,21.531 "/>
<polygon style="fill:#333333;" points="10.25,18.5 8.75,18.5 8.75,15.75 16.439,15.75 15.414,14.469 16.586,13.531 18.586,16.031 
	18,17.25 10.25,17.25 "/>
</svg>






