<?xml version="1.0" encoding="iso-8859-1"?>
<svg version="1.1" id="&#x56FE;&#x5C42;_1" xmlns="http://www.w3.org/2000/svg" xmlns:xlink="http://www.w3.org/1999/xlink" x="0px"
	 y="0px" viewBox="0 0 24 24" style="enable-background:new 0 0 24 24;" xml:space="preserve">
<path style="fill:#333333;" d="M21,21.75H3c-0.965,0-1.75-0.785-1.75-1.75v-5c0-0.965,0.785-1.75,1.75-1.75h18
	c0.965,0,1.75,0.785,1.75,1.75v5C22.75,20.965,21.965,21.75,21,21.75z M3,14.75c-0.138,0-0.25,0.112-0.25,0.25v5
	c0,0.138,0.112,0.25,0.25,0.25h18c0.138,0,0.25-0.112,0.25-0.25v-5c0-0.138-0.112-0.25-0.25-0.25H3z"/>
<rect x="7" y="16.75" style="fill:#333333;" width="4" height="1.5"/>
<path style="fill:#333333;" d="M16,16.5L16,16.5c0.552,0,1,0.448,1,1l0,0c0,0.552-0.448,1-1,1l0,0c-0.552,0-1-0.448-1-1l0,0
	C15,16.948,15.448,16.5,16,16.5z"/>
<rect x="5.25" y="4" style="fill:#333333;" width="1.5" height="10"/>
<rect x="17.25" y="4" style="fill:#333333;" width="1.5" height="10"/>
</svg>






