<?xml version="1.0" encoding="iso-8859-1"?>
<svg version="1.1" id="&#x56FE;&#x5C42;_1" xmlns="http://www.w3.org/2000/svg" xmlns:xlink="http://www.w3.org/1999/xlink" x="0px"
	 y="0px" viewBox="0 0 24 24" style="enable-background:new 0 0 24 24;" xml:space="preserve">
<path style="fill:#333333;" d="M15.01,8.75c-1.792,0-3.25-1.458-3.25-3.25s1.458-3.25,3.25-3.25s3.25,1.458,3.25,3.25
	S16.802,8.75,15.01,8.75z M15.01,3.75c-0.965,0-1.75,0.785-1.75,1.75s0.785,1.75,1.75,1.75s1.75-0.785,1.75-1.75
	S15.975,3.75,15.01,3.75z"/>
<rect x="15.559" y="18" transform="matrix(0.4741 -0.8805 0.8805 0.4741 -6.3853 26.8097)" style="fill:#333333;" width="7.382" height="1.5"/>
<polygon style="fill:#333333;" points="4.907,20.63 3.857,19.614 9.857,9.614 10.659,9.267 22.159,11.767 21.841,13.232 
	10.866,10.847 6.806,17.614 12.593,13.87 13.658,14.141 16.663,19.641 15.347,20.359 12.729,15.568 "/>
<rect x="2" y="19.25" style="fill:#333333;" width="20" height="1.5"/>
</svg>






