<?xml version="1.0" encoding="iso-8859-1"?>
<svg version="1.1" id="&#x56FE;&#x5C42;_1" xmlns="http://www.w3.org/2000/svg" xmlns:xlink="http://www.w3.org/1999/xlink" x="0px"
	 y="0px" viewBox="0 0 24 24" style="enable-background:new 0 0 24 24;" xml:space="preserve">
<path style="fill:#333333;" d="M19.627,18.75H4.373c-0.871,0-1.616-0.65-1.734-1.514l-1.227-9C1.343,7.736,1.495,7.23,1.827,6.849
	C2.159,6.468,2.64,6.25,3.146,6.25h17.709c0.505,0,0.985,0.218,1.318,0.599c0.332,0.381,0.483,0.887,0.415,1.388l-1.227,9
	C21.244,18.099,20.498,18.75,19.627,18.75z M3.146,7.75c-0.099,0-0.161,0.054-0.188,0.085c-0.028,0.032-0.073,0.1-0.059,0.198
	l1.227,9c0.017,0.124,0.124,0.217,0.248,0.217h15.254c0.125,0,0.231-0.093,0.248-0.216l1.227-9c0.014-0.099-0.031-0.167-0.06-0.199
	c-0.027-0.032-0.089-0.085-0.188-0.085H3.146z"/>
<rect x="9.5" y="10.25" style="fill:#333333;" width="1" height="1.5"/>
<rect x="11.5" y="13.25" style="fill:#333333;" width="1" height="1.5"/>
<rect x="5.5" y="10.25" style="fill:#333333;" width="1" height="1.5"/>
<rect x="7.5" y="13.25" style="fill:#333333;" width="1" height="1.5"/>
<rect x="13.5" y="10.25" style="fill:#333333;" width="1" height="1.5"/>
<rect x="15.5" y="13.25" style="fill:#333333;" width="1" height="1.5"/>
<rect x="17.5" y="10.25" style="fill:#333333;" width="1" height="1.5"/>
</svg>






