<?xml version="1.0" encoding="iso-8859-1"?>
<svg version="1.1" id="&#x56FE;&#x5C42;_1" xmlns="http://www.w3.org/2000/svg" xmlns:xlink="http://www.w3.org/1999/xlink" x="0px"
	 y="0px" viewBox="0 0 24 24" style="enable-background:new 0 0 24 24;" xml:space="preserve">
<path style="fill:#333333;" d="M12,20.25c-5.055,0-9.465-3.313-10.725-8.058v-0.385C2.535,7.063,6.945,3.75,12,3.75
	c5.054,0,9.464,3.313,10.725,8.058v0.385C21.465,16.937,17.055,20.25,12,20.25z M2.778,12c1.152,3.984,4.915,6.75,9.222,6.75
	c4.306,0,8.068-2.766,9.222-6.75C20.068,8.016,16.306,5.25,12,5.25C7.693,5.25,3.931,8.015,2.778,12z"/>
<rect x="20" y="11.25" style="fill:#333333;" width="2" height="1.5"/>
<rect x="7" y="11.25" style="fill:#333333;" width="10" height="1.5"/>
<rect x="2" y="11.25" style="fill:#333333;" width="2" height="1.5"/>
<rect x="7.75" y="10" style="fill:#333333;" width="1.5" height="4"/>
<rect x="14.75" y="10" style="fill:#333333;" width="1.5" height="4"/>
<rect x="11.25" y="10" style="fill:#333333;" width="1.5" height="4"/>
</svg>






