<?xml version="1.0" encoding="iso-8859-1"?>
<svg version="1.1" id="&#x56FE;&#x5C42;_1" xmlns="http://www.w3.org/2000/svg" xmlns:xlink="http://www.w3.org/1999/xlink" x="0px"
	 y="0px" viewBox="0 0 24 24" style="enable-background:new 0 0 24 24;" xml:space="preserve">
<g>
	<defs>
		<rect id="SVGID_1_" width="24" height="24"/>
	</defs>
	<clipPath id="SVGID_00000083788705071153870990000010954147800985084569_">
		<use xlink:href="#SVGID_1_"  style="overflow:visible;"/>
	</clipPath>
	<g style="clip-path:url(#SVGID_00000083788705071153870990000010954147800985084569_);">
		<path style="fill:#333333;" d="M7.177,22.591c-1.666,0-3.127-0.51-4.193-1.575c-1.519-1.519-1.948-3.9-1.209-6.706
			c0.701-2.665,2.386-5.431,4.745-7.79s5.125-4.044,7.79-4.745c2.806-0.74,5.188-0.309,6.706,1.209
			c3.072,3.073,1.52,9.44-3.536,14.496C14.178,20.782,10.315,22.591,7.177,22.591z M16.851,2.922c-0.665,0-1.389,0.1-2.159,0.303
			C12.279,3.86,9.754,5.407,7.581,7.581s-3.721,4.699-4.355,7.111c-0.597,2.269-0.306,4.138,0.82,5.264
			c2.396,2.396,8.062,0.776,12.374-3.535c4.312-4.312,5.932-9.979,3.536-12.375C19.212,3.302,18.144,2.922,16.851,2.922z"/>
		
			<rect x="11.25" y="10" transform="matrix(0.707 -0.7072 0.7072 0.707 -4.9706 12.0013)" style="fill:#333333;" width="1.5" height="4"/>
		
			<rect x="13.372" y="7.878" transform="matrix(0.707 -0.7072 0.7072 0.707 -2.8489 12.8803)" style="fill:#333333;" width="1.5" height="4.001"/>
		
			<rect x="9.129" y="12.121" transform="matrix(0.707 -0.7072 0.7072 0.707 -7.092 11.1227)" style="fill:#333333;" width="1.5" height="4"/>
		
			<rect x="4.003" y="11.253" transform="matrix(0.7071 -0.7071 0.7071 0.7071 -4.9719 12.0032)" style="fill:#333333;" width="16" height="1.5"/>
		
			<rect x="5.593" y="12.657" transform="matrix(0.7071 -0.7071 0.7071 0.7071 -10.6274 9.6566)" style="fill:#333333;" width="1.5" height="10"/>
		
			<rect x="16.907" y="1.343" transform="matrix(0.7071 -0.7071 0.7071 0.7071 0.6866 14.3436)" style="fill:#333333;" width="1.5" height="10"/>
	</g>
</g>
</svg>






