<?xml version="1.0" encoding="iso-8859-1"?>
<svg version="1.1" id="&#x56FE;&#x5C42;_1" xmlns="http://www.w3.org/2000/svg" xmlns:xlink="http://www.w3.org/1999/xlink" x="0px"
	 y="0px" viewBox="0 0 24 24" style="enable-background:new 0 0 24 24;" xml:space="preserve">
<path style="fill:#333333;" d="M22.75,18.25H1.25V17.5C1.25,10.472,5.57,5.75,12,5.75s10.75,4.722,10.75,11.75V18.25z M2.768,16.75
	h18.464C20.95,10.953,17.39,7.25,12,7.25C6.61,7.25,3.049,10.953,2.768,16.75z"/>
<rect x="4.25" y="15.5" style="fill:#333333;" width="1.5" height="2"/>
<rect x="7.75" y="15.5" style="fill:#333333;" width="1.5" height="2"/>
<rect x="11.25" y="15.5" style="fill:#333333;" width="1.5" height="2"/>
<rect x="14.75" y="15.5" style="fill:#333333;" width="1.5" height="2"/>
<rect x="18.25" y="15.5" style="fill:#333333;" width="1.5" height="2"/>
<path style="fill:#333333;" d="M17.75,13.75H6.25V13c0-2.347,2.923-3.75,5.75-3.75c2.826,0,5.75,1.403,5.75,3.75V13.75z
	 M8.004,12.25h7.992c-0.642-0.912-2.392-1.5-3.996-1.5C10.396,10.75,8.646,11.338,8.004,12.25z"/>
</svg>






