<?xml version="1.0" encoding="iso-8859-1"?>
<svg version="1.1" id="&#x56FE;&#x5C42;_1" xmlns="http://www.w3.org/2000/svg" xmlns:xlink="http://www.w3.org/1999/xlink" x="0px"
	 y="0px" viewBox="0 0 24 24" style="enable-background:new 0 0 24 24;" xml:space="preserve">
<path style="fill:#333333;" d="M21,19.75H6.5c-2.423,0-4.25-1.827-4.25-4.25s1.827-4.25,4.25-4.25h3v1.5h-3
	c-1.593,0-2.75,1.156-2.75,2.75s1.157,2.75,2.75,2.75H21V19.75z"/>
<path style="fill:#333333;" d="M17.5,12.75h-8v-1.5h8c1.594,0,2.75-1.157,2.75-2.75s-1.156-2.75-2.75-2.75h-9v-1.5h9
	c2.423,0,4.25,1.827,4.25,4.25S19.923,12.75,17.5,12.75z"/>
<polygon style="fill:#333333;" points="19.03,22.03 17.97,20.97 19.939,19 17.97,17.03 19.03,15.97 22.061,19 "/>
<path style="fill:#333333;" d="M6,8.25C4.208,8.25,2.75,6.792,2.75,5S4.208,1.75,6,1.75S9.25,3.208,9.25,5S7.792,8.25,6,8.25z
	 M6,3.25C5.035,3.25,4.25,4.035,4.25,5S5.035,6.75,6,6.75S7.75,5.965,7.75,5S6.965,3.25,6,3.25z"/>
</svg>






