<?xml version="1.0" encoding="iso-8859-1"?>
<svg version="1.1" id="&#x56FE;&#x5C42;_1" xmlns="http://www.w3.org/2000/svg" xmlns:xlink="http://www.w3.org/1999/xlink" x="0px"
	 y="0px" viewBox="0 0 24 24" style="enable-background:new 0 0 24 24;" xml:space="preserve">
<path style="fill:#333333;" d="M15,12.75H6.5c-2.423,0-4.25-1.827-4.25-4.25S4.077,4.25,6.5,4.25H16v1.5H6.5
	c-1.593,0-2.75,1.157-2.75,2.75s1.157,2.75,2.75,2.75H15V12.75z"/>
<path style="fill:#333333;" d="M17.5,19.75H4v-1.5h13.5c1.594,0,2.75-1.156,2.75-2.75s-1.156-2.75-2.75-2.75H15v-1.5h2.5
	c2.423,0,4.25,1.827,4.25,4.25S19.923,19.75,17.5,19.75z"/>
<polygon style="fill:#333333;" points="5.97,22.03 2.939,19 5.97,15.97 7.03,17.03 5.061,19 7.03,20.97 "/>
<path style="fill:#333333;" d="M18.588,8.25c-1.792,0-3.25-1.458-3.25-3.25s1.458-3.25,3.25-3.25s3.25,1.458,3.25,3.25
	S20.38,8.25,18.588,8.25z M18.588,3.25c-0.965,0-1.75,0.785-1.75,1.75s0.785,1.75,1.75,1.75s1.75-0.785,1.75-1.75
	S19.553,3.25,18.588,3.25z"/>
</svg>






