<?xml version="1.0" encoding="iso-8859-1"?>
<svg version="1.1" id="&#x56FE;&#x5C42;_1" xmlns="http://www.w3.org/2000/svg" xmlns:xlink="http://www.w3.org/1999/xlink" x="0px"
	 y="0px" viewBox="0 0 24 24" style="enable-background:new 0 0 24 24;" xml:space="preserve">
<path style="fill:#333333;" d="M19.75,16h-1.5V6.5c0-1.593-1.156-2.75-2.75-2.75s-2.75,1.157-2.75,2.75v2h-1.5v-2
	c0-2.423,1.827-4.25,4.25-4.25s4.25,1.827,4.25,4.25V16z"/>
<path style="fill:#333333;" d="M8.5,21.75c-2.423,0-4.25-1.827-4.25-4.25V3h1.5v14.5c0,1.594,1.157,2.75,2.75,2.75
	s2.75-1.156,2.75-2.75v-9h1.5v9C12.75,19.923,10.923,21.75,8.5,21.75z"/>
<polygon style="fill:#333333;" points="6.97,6.03 5,4.061 3.03,6.03 1.97,4.97 5,1.939 8.03,4.97 "/>
<path style="fill:#333333;" d="M19,21.75c-1.792,0-3.25-1.458-3.25-3.25s1.458-3.25,3.25-3.25s3.25,1.458,3.25,3.25
	S20.792,21.75,19,21.75z M19,16.75c-0.965,0-1.75,0.785-1.75,1.75s0.785,1.75,1.75,1.75s1.75-0.785,1.75-1.75S19.965,16.75,19,16.75
	z"/>
</svg>






