<?xml version="1.0" encoding="iso-8859-1"?>
<svg version="1.1" id="&#x56FE;&#x5C42;_1" xmlns="http://www.w3.org/2000/svg" xmlns:xlink="http://www.w3.org/1999/xlink" x="0px"
	 y="0px" viewBox="0 0 24 24" style="enable-background:new 0 0 24 24;" xml:space="preserve">
<path style="fill:#333333;" d="M12.001,22.793l-0.244-0.084C6.37,20.855,2.75,15.675,2.75,9.819V4.006l9.254-2.79l9.246,2.79v5.815
	c0,5.854-3.619,11.034-9.005,12.888L12.001,22.793z M4.25,5.121v4.698c0,5.126,3.104,9.668,7.751,11.385
	c4.646-1.717,7.749-6.258,7.749-11.383V5.121l-7.746-2.337L4.25,5.121z"/>
<path style="fill:#333333;" d="M12,15.75c-2.343,0-4.25-1.906-4.25-4.25c0-2.343,1.907-4.25,4.25-4.25c2.344,0,4.25,1.907,4.25,4.25
	C16.25,13.844,14.344,15.75,12,15.75z M12,8.75c-1.517,0-2.75,1.233-2.75,2.75s1.233,2.75,2.75,2.75s2.75-1.233,2.75-2.75
	S13.517,8.75,12,8.75z"/>
<rect x="15.25" y="13.945" transform="matrix(0.7593 -0.6508 0.6508 0.7593 -6.7235 14.3247)" style="fill:#333333;" width="1.5" height="4.61"/>
<path style="fill:#333333;" d="M12.245,22.709l-0.488-1.418c4.781-1.646,7.993-6.255,7.993-11.47h1.5
	C21.25,15.676,17.631,20.855,12.245,22.709z"/>
</svg>






