<?xml version="1.0" encoding="iso-8859-1"?>
<svg version="1.1" id="&#x56FE;&#x5C42;_1" xmlns="http://www.w3.org/2000/svg" xmlns:xlink="http://www.w3.org/1999/xlink" x="0px"
	 y="0px" viewBox="0 0 24 24" style="enable-background:new 0 0 24 24;" xml:space="preserve">
<polygon style="fill:#333333;" points="9.5,15.75 5.5,15.75 4.939,14.502 8.939,10.002 10.061,10.998 7.17,14.25 9.5,14.25 "/>
<path style="fill:#333333;" d="M20.25,15.75H8.75V1.25H9.5c5.425,0,10.75,6.811,10.75,13.75V15.75z M10.25,14.25h8.477
	C18.386,8.765,14.389,3.397,10.25,2.804V14.25z"/>
<path style="fill:#333333;" d="M15.558,21.75H3.459l-1.5-4.5H21l0.384,1.395l-4.675,2.788C16.361,21.64,15.963,21.75,15.558,21.75z
	 M4.541,20.25h11.017c0.135,0,0.267-0.037,0.384-0.106l2.337-1.394H4.041L4.541,20.25z"/>
<rect x="8.75" y="15" style="fill:#333333;" width="1.5" height="3"/>
<rect x="14.5" y="9.75" style="fill:#333333;" width="6" height="1.5"/>
</svg>






