<?xml version="1.0" encoding="iso-8859-1"?>
<svg version="1.1" id="&#x56FE;&#x5C42;_1" xmlns="http://www.w3.org/2000/svg" xmlns:xlink="http://www.w3.org/1999/xlink" x="0px"
	 y="0px" viewBox="0 0 24 24" style="enable-background:new 0 0 24 24;" xml:space="preserve">
<g>
	<defs>
		<rect id="SVGID_1_" width="24" height="24"/>
	</defs>
	<clipPath id="SVGID_00000065074500965322109680000001202419771158386618_">
		<use xlink:href="#SVGID_1_"  style="overflow:visible;"/>
	</clipPath>
	<g style="clip-path:url(#SVGID_00000065074500965322109680000001202419771158386618_);">
		<path style="fill:#333333;" d="M12.409,22.422c-2.191,0-3.956-1.735-4.04-1.82l1.059-1.062c0.019,0.018,1.821,1.76,3.609,1.303
			c2.005-0.52,7.427-5.942,7.948-7.948c0.465-1.795-1.286-3.59-1.304-3.608l1.062-1.059c0.098,0.097,2.376,2.413,1.693,5.044
			c-0.643,2.479-6.546,8.381-9.022,9.022C13.072,22.383,12.735,22.422,12.409,22.422z"/>
		<path style="fill:#333333;" d="M3.419,15.651c-0.097-0.097-2.375-2.412-1.693-5.044c0.643-2.478,6.545-8.381,9.023-9.023
			c2.634-0.681,4.947,1.596,5.045,1.693l-1.06,1.062c-0.018-0.018-1.815-1.768-3.609-1.303c-2.005,0.52-7.427,5.942-7.947,7.948
			c-0.465,1.795,1.285,3.59,1.303,3.608L3.419,15.651z"/>
		<path style="fill:#333333;" d="M7.485,20.783c-1.088,0-2.176-0.414-3.005-1.242c-1.657-1.657-1.657-4.354,0-6.011l9.192-9.192
			c0.803-0.803,1.869-1.245,3.005-1.245s2.202,0.442,3.005,1.245c1.657,1.657,1.657,4.354,0,6.011l-9.192,9.192
			C9.662,20.369,8.574,20.783,7.485,20.783z M16.678,4.593c-0.734,0-1.425,0.286-1.944,0.805l-9.192,9.192
			c-0.52,0.52-0.806,1.21-0.806,1.944c0,0.735,0.286,1.426,0.806,1.945c1.073,1.073,2.817,1.071,3.889,0l9.192-9.192
			c0.52-0.52,0.806-1.21,0.806-1.945s-0.286-1.425-0.806-1.945S17.412,4.593,16.678,4.593z"/>
		<path style="fill:#333333;" d="M8.55,17.127l-1.423-0.475l0.281-0.845c0.338-1.014,1.096-1.838,2.079-2.26l0.21-0.09
			c0.457-0.195,0.808-0.578,0.965-1.049c0.292-0.877,0.947-1.589,1.798-1.953l0.474-0.204c0.422-0.181,0.746-0.533,0.891-0.968
			c0.309-0.922,1.043-1.657,1.965-1.964l1.004-0.334l0.475,1.423l-1.004,0.334c-0.477,0.159-0.856,0.54-1.017,1.017
			c-0.279,0.84-0.907,1.522-1.722,1.872l-0.475,0.204c-0.457,0.195-0.809,0.578-0.966,1.049c-0.292,0.877-0.948,1.589-1.797,1.953
			l-0.209,0.09c-0.59,0.253-1.044,0.747-1.248,1.355L8.55,17.127z"/>
	</g>
</g>
</svg>






