<?xml version="1.0" encoding="iso-8859-1"?>
<svg version="1.1" id="&#x56FE;&#x5C42;_1" xmlns="http://www.w3.org/2000/svg" xmlns:xlink="http://www.w3.org/1999/xlink" x="0px"
	 y="0px" viewBox="0 0 24 24" style="enable-background:new 0 0 24 24;" xml:space="preserve">
<path style="fill:#333333;" d="M7.04,22.335c-0.095,0-0.19-0.003-0.286-0.01c-2.099-0.146-3.651-1.827-3.533-3.827l0.037-0.597
	c0.091-1.419,0.177-2.758-0.146-4.213c-0.28-1.259-0.498-2.567-0.729-3.953C2.279,9.11,2.173,8.473,2.059,7.827
	C1.67,5.633,2.943,3.482,5.02,2.825l0.354-0.112c1.292-0.409,2.658-0.191,3.748,0.597c1.072,0.776,1.697,1.981,1.712,3.307
	c0.03,2.522-0.009,4.439-0.118,5.699c-0.093,1.076,0.071,2.737,0.474,4.804c0.262,1.346-0.126,2.763-1.036,3.793
	C9.346,21.825,8.224,22.335,7.04,22.335z M5.827,4.142L5.473,4.254C4.11,4.686,3.278,6.109,3.536,7.565
	c0.116,0.651,0.223,1.293,0.328,1.924c0.228,1.365,0.443,2.654,0.714,3.875c0.369,1.662,0.272,3.173,0.178,4.633l-0.037,0.589
	c-0.069,1.17,0.871,2.155,2.139,2.243c0.831,0.055,1.611-0.275,2.173-0.911c0.604-0.684,0.861-1.623,0.688-2.513
	c-0.435-2.233-0.602-3.989-0.495-5.22c0.103-1.193,0.141-3.113,0.112-5.552c-0.01-0.846-0.408-1.615-1.091-2.109
	C7.542,4.018,6.662,3.879,5.827,4.142z"/>
<path style="fill:#333333;" d="M16.552,21.781c-0.323,0-0.649-0.04-0.972-0.12c-1.965-0.488-3.206-2.369-2.824-4.281l0.063-0.318
	c0.269-1.327,0.5-2.474,0.432-4.028c-0.058-1.305-0.023-2.717,0.013-4.213c0.018-0.739,0.036-1.494,0.043-2.255
	c0.021-2.147,1.525-3.984,3.575-4.369l0.386-0.072c1.352-0.251,2.689,0.14,3.678,1.076c0.972,0.92,1.429,2.211,1.253,3.541
	c-0.379,2.875-0.743,4.978-1.083,6.252c-0.263,0.984-0.369,2.418-0.315,4.261c0.04,1.383-0.582,2.728-1.663,3.599
	C18.381,21.461,17.475,21.781,16.552,21.781z M18.063,3.55c-0.172,0-0.346,0.016-0.52,0.049h-0.001l-0.385,0.072
	c-1.348,0.253-2.337,1.477-2.352,2.909c-0.007,0.768-0.025,1.53-0.044,2.277c-0.035,1.469-0.068,2.857-0.014,4.11
	c0.077,1.738-0.184,3.027-0.459,4.392l-0.063,0.315c-0.229,1.144,0.51,2.232,1.716,2.532c0.78,0.193,1.601,0.004,2.253-0.521
	c0.719-0.578,1.132-1.471,1.104-2.388c-0.057-1.987,0.066-3.565,0.366-4.69c0.318-1.194,0.68-3.29,1.046-6.062
	c0.111-0.847-0.18-1.669-0.798-2.255C19.405,3.808,18.751,3.55,18.063,3.55z"/>
<path style="fill:#333333;" d="M9.289,14.737C8.403,12.082,7.562,9.97,6.926,8.78c-0.721,1.006-1.869,2.998-2.181,5.803
	l-1.491-0.166C3.778,9.71,6.36,7.079,6.47,6.97l1.111,0.055c1.055,1.289,2.415,5.088,3.131,7.238L9.289,14.737z"/>
<path style="fill:#333333;" d="M20.749,15.047l-1.498-0.094c0.168-2.687-1.153-5.436-1.893-6.745
	c-0.031,0.029-0.062,0.058-0.095,0.088c-1.061,0.989-2.514,2.342-2.514,4.454h-1.5c0-2.764,1.872-4.509,2.991-5.551
	c0.286-0.267,0.533-0.497,0.679-0.674l1.198,0.05C18.236,6.747,21.012,10.837,20.749,15.047z"/>
</svg>






