<?xml version="1.0" encoding="iso-8859-1"?>
<svg version="1.1" id="&#x56FE;&#x5C42;_1" xmlns="http://www.w3.org/2000/svg" xmlns:xlink="http://www.w3.org/1999/xlink" x="0px"
	 y="0px" viewBox="0 0 24 24" style="enable-background:new 0 0 24 24;" xml:space="preserve">
<path style="fill:#333333;" d="M19,20.75H5c-1.517,0-2.75-1.233-2.75-2.75v-7.75h19.5V18C21.75,19.517,20.517,20.75,19,20.75z
	 M3.75,11.75V18c0,0.689,0.561,1.25,1.25,1.25h14c0.689,0,1.25-0.561,1.25-1.25v-6.25H3.75z"/>
<rect x="3" y="14.25" style="fill:#333333;" width="18" height="1.5"/>
<rect x="2.25" y="13" style="fill:#333333;" width="1.5" height="4"/>
<rect x="20.25" y="13" style="fill:#333333;" width="1.5" height="4"/>
<path style="fill:#333333;" d="M21.75,11.75H2.283V11c0-0.137-0.008-0.273-0.015-0.414C2.217,9.628,2.154,8.435,3.735,6.495
	c1.694-2.078,4.847-5.946,8.693-3.429C13.984,4.085,21.75,9.254,21.75,11V11.75z M3.754,10.25h15.755
	c-1.462-1.375-4.754-3.869-7.903-5.929C9.345,2.842,7.363,4.418,4.897,7.443C3.812,8.775,3.729,9.527,3.754,10.25z"/>
</svg>






