<?xml version="1.0" encoding="iso-8859-1"?>
<svg version="1.1" id="&#x56FE;&#x5C42;_1" xmlns="http://www.w3.org/2000/svg" xmlns:xlink="http://www.w3.org/1999/xlink" x="0px"
	 y="0px" viewBox="0 0 24 24" style="enable-background:new 0 0 24 24;" xml:space="preserve">
<path style="fill:none;" d="M13.5,4c-2.343,2.343-1.982,6.517-1.982,6.517S15.657,10.843,18,8.5s2.003-6.482,2.003-6.482
	S15.843,1.657,13.5,4z"/>
<path style="fill:#333333;" d="M12.059,11.284c-0.344,0-0.562-0.016-0.6-0.019l-0.634-0.05l-0.055-0.633
	c-0.016-0.185-0.362-4.552,2.199-7.112c2.56-2.56,6.917-2.217,7.098-2.199l0.631,0.055l0.052,0.631
	c0.016,0.183,0.339,4.515-2.22,7.074C16.505,11.056,13.368,11.284,12.059,11.284z M14.97,6.005l1.061,1.061l-2.631,2.631
	c1.27-0.157,2.933-0.588,4.07-1.727c1.544-1.544,1.78-4.033,1.799-5.22c-1.192,0.015-3.701,0.243-5.238,1.781
	c-1.148,1.148-1.566,2.842-1.71,4.125L14.97,6.005z"/>
<path style="fill:none;" d="M10,10.5c1.925,1.922,1.486,5.486,1.486,5.486S7.925,16.422,6,14.5
	c-1.925-1.922-1.484-5.486-1.484-5.486S8.075,8.578,10,10.5z"/>
<path style="fill:#333333;" d="M10.601,16.778c-1.304,0-3.618-0.236-5.131-1.748c-2.159-2.155-1.718-5.947-1.698-6.107l0.072-0.582
	L4.425,8.27c0.16-0.02,3.947-0.456,6.105,1.699c2.16,2.156,1.72,5.948,1.701,6.108l-0.072,0.581l-0.581,0.071
	C11.529,16.735,11.157,16.778,10.601,16.778z M5.226,9.723c-0.02,1.017,0.106,3.05,1.304,4.247c0.848,0.846,2.113,1.158,3.141,1.262
	L7.47,13.03L8.53,11.97l2.202,2.202c-0.103-1.028-0.415-2.294-1.262-3.141C8.266,9.829,6.245,9.704,5.226,9.723z"/>
<rect x="10.75" y="2" style="fill:#333333;" width="1.5" height="20"/>
</svg>






