<?xml version="1.0" encoding="iso-8859-1"?>
<svg version="1.1" id="&#x56FE;&#x5C42;_1" xmlns="http://www.w3.org/2000/svg" xmlns:xlink="http://www.w3.org/1999/xlink" x="0px"
	 y="0px" viewBox="0 0 24 24" style="enable-background:new 0 0 24 24;" xml:space="preserve">
<polygon style="fill:#333333;" points="21.75,9 20.25,9 20.25,3.75 15,3.75 15,2.25 21.75,2.25 "/>
<polygon style="fill:#333333;" points="15.5,15.25 8.75,15.25 8.75,8.5 10.25,8.5 10.25,13.75 15.5,13.75 "/>
<rect x="7.118" y="8" transform="matrix(0.7071 -0.7071 0.7071 0.7071 -1.7206 13.3462)" style="fill:#333333;" width="16.263" height="1.5"/>
<path style="fill:#333333;" d="M20,21.75H4c-0.965,0-1.75-0.785-1.75-1.75V4c0-0.965,0.785-1.75,1.75-1.75h7v1.5H4
	C3.862,3.75,3.75,3.862,3.75,4v16c0,0.138,0.112,0.25,0.25,0.25h16c0.138,0,0.25-0.112,0.25-0.25v-7h1.5v7
	C21.75,20.965,20.965,21.75,20,21.75z"/>
</svg>






