<?xml version="1.0" encoding="iso-8859-1"?>
<svg version="1.1" id="&#x56FE;&#x5C42;_1" xmlns="http://www.w3.org/2000/svg" xmlns:xlink="http://www.w3.org/1999/xlink" x="0px"
	 y="0px" viewBox="0 0 24 24" style="enable-background:new 0 0 24 24;" xml:space="preserve">
<g>
	<defs>
		<rect id="SVGID_1_" width="24" height="24"/>
	</defs>
	<clipPath id="SVGID_00000103951731978216752460000000516636834025991096_">
		<use xlink:href="#SVGID_1_"  style="overflow:visible;"/>
	</clipPath>
	<g style="clip-path:url(#SVGID_00000103951731978216752460000000516636834025991096_);">
		<path style="fill:#333333;" d="M10.656,12.364l-1.312-0.728c0.012-0.021,1.181-2.152,1.41-4.219
			c0.224-2.01-0.438-3.607-0.445-3.624l-0.252-0.6l4.001-2.404l0.182,1.086c0.021,0.125,0.51,3.079,0.51,4.624h-1.5
			c0-0.867-0.181-2.294-0.322-3.282l-1.021,0.613c0.225,0.758,0.519,2.135,0.339,3.752C11.982,9.955,10.709,12.267,10.656,12.364z"
			/>
		<path style="fill:#333333;" d="M4.787,22.722c-0.823,0-1.641-0.175-2.237-0.621l0,0c-0.601-0.451-0.95-1.284-0.957-2.286
			c-0.011-1.496,0.717-2.957,1.948-3.908c0.997-0.77,1.562-1.089,2.108-1.397c0.578-0.326,1.176-0.664,2.392-1.603
			c1.889-1.458,6.65-8.656,8.325-11.307L16.808,0.9l3.484,2.71l-6.537,8.709c-0.772,1.03-1.23,2.275-1.715,3.595
			c-0.386,1.052-0.786,2.14-1.366,3.137c-1.097,1.887-2.298,2.599-3.338,3.119C6.702,22.487,5.741,22.722,4.787,22.722z
			 M17.189,3.097c-1.467,2.279-6.11,9.359-8.231,10.997c-1.302,1.005-1.976,1.386-2.571,1.722C5.864,16.11,5.37,16.39,4.458,17.094
			c-1.278,0.987-1.368,2.324-1.365,2.71c0.004,0.576,0.182,0.966,0.356,1.096l0,0.001c0.663,0.495,2.322,0.377,3.214-0.071
			c0.885-0.442,1.823-1.002,2.712-2.531c0.514-0.884,0.874-1.863,1.255-2.9c0.5-1.362,1.018-2.771,1.924-3.978l5.652-7.531
			L17.189,3.097z"/>
		<path style="fill:#333333;" d="M11.916,15.624l-0.832-1.248c0.063-0.042,1.562-1.037,3.581-2.047
			c1.504-0.752,4.189-0.98,5.71-1.049l-0.863-2.016C18.249,9.326,15.94,9.62,15.03,10.53L13.97,9.47
			c1.671-1.671,5.589-1.72,6.03-1.72h0.494l2.144,5H21.5c-1.203,0-4.656,0.167-6.165,0.921
			C13.404,14.636,11.931,15.614,11.916,15.624z"/>
	</g>
</g>
</svg>






