<?xml version="1.0" encoding="iso-8859-1"?>
<svg version="1.1" id="&#x56FE;&#x5C42;_1" xmlns="http://www.w3.org/2000/svg" xmlns:xlink="http://www.w3.org/1999/xlink" x="0px"
	 y="0px" viewBox="0 0 24 24" style="enable-background:new 0 0 24 24;" xml:space="preserve">
<path style="fill:#333333;" d="M21,22.75H1.25V16.5c0-0.965,0.785-1.75,1.75-1.75h2.25v-3.151l6.75-4.5l6.75,4.5v3.151H21
	c0.965,0,1.75,0.785,1.75,1.75V21C22.75,21.965,21.965,22.75,21,22.75z M2.75,21.25H21c0.138,0,0.25-0.112,0.25-0.25v-4.5
	c0-0.138-0.112-0.25-0.25-0.25h-3.75v-3.849L12,8.901l-5.25,3.5v3.849H3c-0.138,0-0.25,0.112-0.25,0.25V21.25z"/>
<rect x="11.25" y="3" style="fill:#333333;" width="1.5" height="5"/>
<path style="fill:#333333;" d="M16.776,7.417c-0.666,0-1.4-0.266-2.192-0.793c-0.63-0.42-1.183-0.607-1.552-0.521
	c-0.252,0.058-0.36,0.232-0.372,0.251L11.25,6V2.823l0.079-0.158c0.039-0.078,0.407-0.769,1.295-1.005
	c0.817-0.219,1.755,0.024,2.792,0.716c0.63,0.42,1.184,0.608,1.552,0.521c0.252-0.058,0.36-0.232,0.372-0.251L18.75,3v3.177
	l-0.079,0.158c-0.039,0.078-0.407,0.769-1.295,1.005C17.183,7.392,16.982,7.417,16.776,7.417z M13.224,4.583
	c0.666,0,1.4,0.266,2.192,0.793c0.63,0.42,1.184,0.607,1.552,0.521c0.13-0.03,0.223-0.091,0.282-0.146V4.37
	c-0.782,0.162-1.682-0.09-2.666-0.746c-0.63-0.42-1.183-0.606-1.552-0.521c-0.13,0.03-0.223,0.091-0.282,0.146v1.38
	C12.903,4.598,13.062,4.583,13.224,4.583z"/>
<polygon style="fill:#333333;" points="14.75,22 13.25,22 13.25,16.25 10.75,16.25 10.75,22 9.25,22 9.25,14.75 14.75,14.75 "/>
<rect x="9" y="21.25" style="fill:#333333;" width="6" height="1.5"/>
</svg>






