<?xml version="1.0" encoding="iso-8859-1"?>
<svg version="1.1" id="&#x56FE;&#x5C42;_1" xmlns="http://www.w3.org/2000/svg" xmlns:xlink="http://www.w3.org/1999/xlink" x="0px"
	 y="0px" viewBox="0 0 24 24" style="enable-background:new 0 0 24 24;" xml:space="preserve">
<path style="fill:#333333;" d="M20,22.25H4c-1.241,0-2.25-1.01-2.25-2.25V4c0-1.241,1.009-2.25,2.25-2.25h16
	c1.24,0,2.25,1.009,2.25,2.25v16C22.25,21.24,21.24,22.25,20,22.25z M4,3.25C3.586,3.25,3.25,3.586,3.25,4v16
	c0,0.413,0.336,0.75,0.75,0.75h16c0.413,0,0.75-0.337,0.75-0.75V4c0-0.414-0.337-0.75-0.75-0.75H4z"/>
<path style="fill:#333333;" d="M10.124,14.916l-1.248-0.832c0.831-1.246,0.831-2.921,0-4.168l1.248-0.832
	C11.287,10.828,11.287,13.172,10.124,14.916z"/>
<polygon style="fill:#333333;" points="17.584,17.624 9.148,12 17.584,6.376 18.416,7.624 11.852,12 18.416,16.376 "/>
<path style="fill:#333333;" d="M8,10.75c-1.517,0-2.75-1.233-2.75-2.75S6.483,5.25,8,5.25S10.75,6.483,10.75,8S9.517,10.75,8,10.75z
	 M8,6.75C7.311,6.75,6.75,7.311,6.75,8S7.311,9.25,8,9.25S9.25,8.689,9.25,8S8.689,6.75,8,6.75z"/>
<path style="fill:#333333;" d="M8,18.75c-1.517,0-2.75-1.233-2.75-2.75S6.483,13.25,8,13.25s2.75,1.233,2.75,2.75
	S9.517,18.75,8,18.75z M8,14.75c-0.689,0-1.25,0.561-1.25,1.25S7.311,17.25,8,17.25S9.25,16.689,9.25,16S8.689,14.75,8,14.75z"/>
</svg>






