<?xml version="1.0" encoding="iso-8859-1"?>
<svg version="1.1" id="&#x56FE;&#x5C42;_1" xmlns="http://www.w3.org/2000/svg" xmlns:xlink="http://www.w3.org/1999/xlink" x="0px"
	 y="0px" viewBox="0 0 24 24" style="enable-background:new 0 0 24 24;" xml:space="preserve">
<path style="fill:#333333;" d="M8.75,6h-1.5c0-1.241-1.009-2.25-2.25-2.25S2.75,4.759,2.75,6h-1.5c0-2.068,1.682-3.75,3.75-3.75
	S8.75,3.932,8.75,6z"/>
<path style="fill:#333333;" d="M14.75,6h-1.5c0-1.241-1.01-2.25-2.25-2.25C9.759,3.75,8.75,4.759,8.75,6h-1.5
	c0-2.068,1.682-3.75,3.75-3.75C13.067,2.25,14.75,3.932,14.75,6z"/>
<path style="fill:#333333;" d="M17,20.75c-2.067,0-3.75-1.683-3.75-3.75h1.5c0,1.24,1.01,2.25,2.25,2.25s2.25-1.01,2.25-2.25h1.5
	C20.75,19.067,19.067,20.75,17,20.75z"/>
<rect x="1.25" y="6" style="fill:#333333;" width="1.5" height="9"/>
<rect x="7.25" y="6" style="fill:#333333;" width="1.5" height="9"/>
<rect x="13.25" y="6" style="fill:#333333;" width="1.5" height="11"/>
<rect x="19.25" y="11.5" style="fill:#333333;" width="1.5" height="5.5"/>
<polygon style="fill:#333333;" points="21.47,14.03 20,12.561 18.53,14.03 17.47,12.97 20,10.439 22.53,12.97 "/>
</svg>






