<?xml version="1.0" encoding="iso-8859-1"?>
<svg version="1.1" id="&#x56FE;&#x5C42;_1" xmlns="http://www.w3.org/2000/svg" xmlns:xlink="http://www.w3.org/1999/xlink" x="0px"
	 y="0px" viewBox="0 0 24 24" style="enable-background:new 0 0 24 24;" xml:space="preserve">
<path style="fill:#333333;" d="M20.5,20.75h-17c-1.241,0-2.25-1.01-2.25-2.25v-11c0-1.241,1.009-2.25,2.25-2.25h17
	c1.24,0,2.25,1.009,2.25,2.25v11C22.75,19.74,21.74,20.75,20.5,20.75z M3.5,6.75c-0.414,0-0.75,0.336-0.75,0.75v11
	c0,0.413,0.336,0.75,0.75,0.75h17c0.413,0,0.75-0.337,0.75-0.75v-11c0-0.414-0.337-0.75-0.75-0.75H3.5z"/>
<rect x="6.25" y="3" style="fill:#333333;" width="1.5" height="3"/>
<rect x="16.25" y="3" style="fill:#333333;" width="1.5" height="3"/>
<polygon style="fill:#333333;" points="8.25,16.5 6.75,16.5 6.75,11.375 5.655,12.519 4.572,11.481 6.959,8.989 8.25,9.508 "/>
<rect x="11.25" y="6" style="fill:#333333;" width="1.5" height="14"/>
<path style="fill:#333333;" d="M17,17.25c-1.478,0-2.25-2.138-2.25-4.25c0-2.112,0.772-4.25,2.25-4.25s2.25,2.138,2.25,4.25
	C19.25,15.112,18.478,17.25,17,17.25z M17,10.258c-0.233,0.135-0.75,1.069-0.75,2.742c0,1.731,0.554,2.671,0.773,2.753
	c0.173-0.082,0.727-1.021,0.727-2.753C17.75,11.327,17.233,10.394,17,10.258z"/>
<rect x="10.5" y="5.25" style="fill:#333333;" width="3" height="1.5"/>
<rect x="10.5" y="19.25" style="fill:#333333;" width="3" height="1.5"/>
</svg>






