<?xml version="1.0" encoding="iso-8859-1"?>
<svg version="1.1" id="&#x56FE;&#x5C42;_1" xmlns="http://www.w3.org/2000/svg" xmlns:xlink="http://www.w3.org/1999/xlink" x="0px"
	 y="0px" viewBox="0 0 24 24" style="enable-background:new 0 0 24 24;" xml:space="preserve">
<path style="fill:#333333;" d="M5,21.75c-2.068,0-3.75-1.683-3.75-3.75S2.932,14.25,5,14.25S8.75,15.933,8.75,18
	S7.068,21.75,5,21.75z M5,15.75c-1.241,0-2.25,1.01-2.25,2.25S3.759,20.25,5,20.25S7.25,19.24,7.25,18S6.241,15.75,5,15.75z"/>
<path style="fill:#333333;" d="M5,21.75c-1.001,0-1.943-0.391-2.652-1.099l1.061-1.061c0.851,0.85,2.333,0.85,3.182,0
	c0.969-0.97,7.798-9.626,12.85-16.054l1.18,0.927C12.332,15.008,8.454,19.849,7.651,20.651C6.943,21.359,6.001,21.75,5,21.75z"/>
<path style="fill:#333333;" d="M19,21.75c-2.067,0-3.75-1.683-3.75-3.75s1.683-3.75,3.75-3.75s3.75,1.683,3.75,3.75
	S21.067,21.75,19,21.75z M19,15.75c-1.24,0-2.25,1.01-2.25,2.25s1.01,2.25,2.25,2.25s2.25-1.01,2.25-2.25S20.24,15.75,19,15.75z"/>
<path style="fill:#333333;" d="M19,21.75c-1.002,0-1.943-0.391-2.651-1.099C15.513,19.815,11.28,14.52,3.41,4.462l1.182-0.925
	c9.621,12.294,12.281,15.516,12.818,16.053c0.85,0.849,2.331,0.851,3.182,0l1.061,1.061C20.943,21.359,20.001,21.75,19,21.75z"/>
</svg>






