<?xml version="1.0" encoding="iso-8859-1"?>
<svg version="1.1" id="&#x56FE;&#x5C42;_1" xmlns="http://www.w3.org/2000/svg" xmlns:xlink="http://www.w3.org/1999/xlink" x="0px"
	 y="0px" viewBox="0 0 24 24" style="enable-background:new 0 0 24 24;" xml:space="preserve">
<path style="fill:#333333;" d="M12,22.75C6.072,22.75,1.25,17.928,1.25,12h1.5c0,4.401,3.089,8.094,7.213,9.024L8.97,20.03
	l1.061-1.061l2.5,2.5L12,22.75z"/>
<path style="fill:#333333;" d="M22.75,12h-1.5c0-4.401-3.09-8.094-7.214-9.024L15.03,3.97L13.97,5.03l-2.5-2.5L12,1.25
	C17.928,1.25,22.75,6.072,22.75,12z"/>
<path style="fill:#333333;" d="M15,21.561L2.439,9L9,2.439L21.561,15L15,21.561z M4.561,9L15,19.439L19.439,15L9,4.561L4.561,9z"/>
</svg>






