<?xml version="1.0" encoding="iso-8859-1"?>
<svg version="1.1" id="&#x56FE;&#x5C42;_1" xmlns="http://www.w3.org/2000/svg" xmlns:xlink="http://www.w3.org/1999/xlink" x="0px"
	 y="0px" viewBox="0 0 24 24" style="enable-background:new 0 0 24 24;" xml:space="preserve">
<polygon style="fill:#333333;" points="22.75,12 21.25,12 21.25,2.75 2.75,2.75 2.75,12 1.25,12 1.25,1.25 22.75,1.25 "/>
<path style="fill:#333333;" d="M5,22.75c-2.068,0-3.75-1.683-3.75-3.75S2.932,15.25,5,15.25S8.75,16.933,8.75,19
	S7.068,22.75,5,22.75z M5,16.75c-1.241,0-2.25,1.01-2.25,2.25S3.759,21.25,5,21.25S7.25,20.24,7.25,19S6.241,16.75,5,16.75z"/>
<path style="fill:#333333;" d="M5,22.75c-1.001,0-1.943-0.391-2.652-1.099l1.061-1.061c0.851,0.85,2.333,0.85,3.182,0
	c0.298-0.299,0.968-1.256,2.182-2.995c1.594-2.28,4.262-6.099,8.623-12.04l1.209,0.888c-4.351,5.926-7.012,9.736-8.602,12.011
	c-1.346,1.926-1.959,2.805-2.352,3.196C6.943,22.359,6.001,22.75,5,22.75z"/>
<path style="fill:#333333;" d="M19,22.75c-2.067,0-3.75-1.683-3.75-3.75s1.683-3.75,3.75-3.75s3.75,1.683,3.75,3.75
	S21.067,22.75,19,22.75z M19,16.75c-1.24,0-2.25,1.01-2.25,2.25s1.01,2.25,2.25,2.25s2.25-1.01,2.25-2.25S20.24,16.75,19,16.75z"/>
<path style="fill:#333333;" d="M19,22.75c-1.002,0-1.943-0.391-2.651-1.099c-0.392-0.392-1.006-1.271-2.352-3.196
	c-1.59-2.275-4.251-6.085-8.602-12.011l1.209-0.888c4.361,5.941,7.028,9.759,8.622,12.04c1.215,1.739,1.884,2.696,2.183,2.995
	c0.85,0.85,2.332,0.85,3.182,0l1.061,1.061C20.943,22.359,20.002,22.75,19,22.75z"/>
</svg>






