<?xml version="1.0" encoding="iso-8859-1"?>
<svg version="1.1" id="&#x56FE;&#x5C42;_1" xmlns="http://www.w3.org/2000/svg" xmlns:xlink="http://www.w3.org/1999/xlink" x="0px"
	 y="0px" viewBox="0 0 24 24" style="enable-background:new 0 0 24 24;" xml:space="preserve">
<path style="fill:#333333;" d="M18.5,22.25h-13c-0.965,0-1.75-0.785-1.75-1.75v-9.25h2v-1.5h-2V6.218l3.387-3.871
	C7.47,1.968,7.949,1.75,8.454,1.75H18.5c0.965,0,1.75,0.785,1.75,1.75v17C20.25,21.465,19.465,22.25,18.5,22.25z M5.25,12.75v7.75
	c0,0.138,0.112,0.25,0.25,0.25h13c0.138,0,0.25-0.112,0.25-0.25v-17c0-0.138-0.112-0.25-0.25-0.25H8.454
	c-0.072,0-0.141,0.031-0.188,0.085L5.25,6.782V8.25h2v4.5H5.25z"/>
<rect x="15.75" y="5.5" style="fill:#333333;" width="1.5" height="2"/>
<rect x="9.75" y="5.5" style="fill:#333333;" width="1.5" height="2"/>
<rect x="12.75" y="5.5" style="fill:#333333;" width="1.5" height="2"/>
</svg>






