<?xml version="1.0" encoding="iso-8859-1"?>
<svg version="1.1" id="&#x56FE;&#x5C42;_1" xmlns="http://www.w3.org/2000/svg" xmlns:xlink="http://www.w3.org/1999/xlink" x="0px"
	 y="0px" viewBox="0 0 24 24" style="enable-background:new 0 0 24 24;" xml:space="preserve">
<path style="fill:#333333;" d="M10,21.25c-3.17,0-5.75-2.579-5.75-5.75c0-2.525,1.618-4.73,4.025-5.486l0.449,1.431
	C6.945,12.004,5.75,13.633,5.75,15.5c0,2.344,1.907,4.25,4.25,4.25c1.35,0,2.589-0.62,3.4-1.7c0.103-0.137,0.196-0.278,0.281-0.426
	l1.299,0.752c-0.116,0.2-0.243,0.393-0.382,0.576C13.503,20.412,11.826,21.25,10,21.25z"/>
<path style="fill:#333333;" d="M19.75,21.5h-1.5v-6.25h-7V7.408L12.27,7.8C15.438,9.019,17.08,9.25,19,9.25v1.5
	c-1.835,0-3.506-0.203-6.25-1.173v4.173h7V21.5z"/>
<path style="fill:#333333;" d="M12,6.75c-1.517,0-2.75-1.233-2.75-2.75S10.483,1.25,12,1.25S14.75,2.483,14.75,4
	S13.517,6.75,12,6.75z M12,2.75c-0.689,0-1.25,0.561-1.25,1.25S11.311,5.25,12,5.25S13.25,4.689,13.25,4S12.689,2.75,12,2.75z"/>
</svg>






