<?xml version="1.0" encoding="iso-8859-1"?>
<svg version="1.1" id="&#x56FE;&#x5C42;_1" xmlns="http://www.w3.org/2000/svg" xmlns:xlink="http://www.w3.org/1999/xlink" x="0px"
	 y="0px" viewBox="0 0 24 24" style="enable-background:new 0 0 24 24;" xml:space="preserve">
<path style="fill:#333333;" d="M21.75,13h-1.5v-2c0-4.549-3.701-8.25-8.25-8.25S3.75,6.451,3.75,11v2h-1.5v-2
	c0-5.376,4.374-9.75,9.75-9.75s9.75,4.374,9.75,9.75V13z"/>
<path style="fill:#333333;" d="M16.75,13.5h-1.5V6c0-1.792-1.458-3.25-3.25-3.25S8.75,4.208,8.75,6v7.5h-1.5V6
	c0-2.619,2.131-4.75,4.75-4.75S16.75,3.381,16.75,6V13.5z"/>
<path style="fill:#333333;" d="M15,22.75c-2.067,0-3.75-1.683-3.75-3.75v-7h1.5v7c0,1.24,1.01,2.25,2.25,2.25s2.25-1.01,2.25-2.25
	v-1.444h1.5V19C18.75,21.067,17.067,22.75,15,22.75z"/>
<rect x="6" y="11.25" style="fill:#333333;" width="15" height="1.5"/>
</svg>






