<?xml version="1.0" encoding="iso-8859-1"?>
<svg version="1.1" id="&#x56FE;&#x5C42;_1" xmlns="http://www.w3.org/2000/svg" xmlns:xlink="http://www.w3.org/1999/xlink" x="0px"
	 y="0px" viewBox="0 0 24 24" style="enable-background:new 0 0 24 24;" xml:space="preserve">
<rect x="11.25" y="13" style="fill:#333333;" width="1.5" height="8"/>
<path style="fill:#333333;" d="M12.907,14.706c-0.405,0-0.789-0.148-1.095-0.427c-0.357-0.323-0.562-0.79-0.562-1.279V8.814
	c0-0.213,0.038-0.419,0.113-0.613C13,3.964,16.83,3.335,19.983,3.26c0.477-0.005,0.938,0.178,1.268,0.52
	c0.326,0.338,0.496,0.801,0.469,1.269c-0.49,8.223-6.744,9.464-8.649,9.649C13.016,14.703,12.961,14.706,12.907,14.706z
	 M20.024,4.759c-0.002,0-0.004,0-0.006,0c-2.854,0.067-5.947,0.594-7.257,3.982L12.75,13c0,0.095,0.049,0.149,0.069,0.169
	c0.042,0.038,0.081,0.037,0.105,0.036c2.059-0.2,6.89-1.402,7.297-8.246v0c0.004-0.065-0.025-0.111-0.051-0.137
	C20.148,4.798,20.1,4.759,20.024,4.759z"/>
<path style="fill:#333333;" d="M11.046,13.68c-0.056,0-0.113-0.003-0.169-0.009c-7.525-0.757-8.561-5.56-8.623-9.66
	C2.247,3.53,2.442,3.066,2.79,2.738c0.339-0.32,0.795-0.484,1.265-0.45c4.644,0.341,7.457,2.913,8.541,5.207
	c0.104,0.218,0.155,0.456,0.155,0.708v3.752c0,0.491-0.208,0.96-0.57,1.288C11.867,13.524,11.462,13.68,11.046,13.68z M3.931,3.784
	c-0.042,0-0.08,0.015-0.112,0.045C3.794,3.853,3.753,3.904,3.754,3.988c0.059,3.88,0.98,7.558,7.274,8.19
	c0.055,0.01,0.104-0.011,0.146-0.049c0.048-0.044,0.076-0.107,0.076-0.175V8.203c-0.873-1.891-3.301-4.125-7.306-4.419h0
	C3.939,3.784,3.935,3.784,3.931,3.784z"/>
</svg>






