<?xml version="1.0" encoding="iso-8859-1"?>
<svg version="1.1" id="&#x56FE;&#x5C42;_1" xmlns="http://www.w3.org/2000/svg" xmlns:xlink="http://www.w3.org/1999/xlink" x="0px"
	 y="0px" viewBox="0 0 24 24" style="enable-background:new 0 0 24 24;" xml:space="preserve">
<path style="fill:#333333;" d="M6.75,6.75h-5.5v-5.5h5.5V6.75z M2.75,5.25h2.5v-2.5h-2.5V5.25z"/>
<path style="fill:#333333;" d="M22.75,22.75h-5.5v-5.5h5.5V22.75z M18.75,21.25h2.5v-2.5h-2.5V21.25z"/>
<path style="fill:#333333;" d="M6.75,22.75h-5.5v-5.5h5.5V22.75z M2.75,21.25h2.5v-2.5h-2.5V21.25z"/>
<path style="fill:#333333;" d="M22.75,6.75h-5.5v-5.5h5.5V6.75z M18.75,5.25h2.5v-2.5h-2.5V5.25z"/>
<path style="fill:#333333;" d="M4.75,18h-1.5v-0.5h1.5V18z M4.75,15h-1.5v-0.5h1.5V15z M4.75,12h-1.5v-0.5h1.5V12z M4.75,9h-1.5V8.5
	h1.5V9z"/>
<path style="fill:#333333;" d="M20.75,18h-1.5v-0.5h1.5V18z M20.75,15h-1.5v-0.5h1.5V15z M20.75,12h-1.5v-0.5h1.5V12z M20.75,9h-1.5
	V8.5h1.5V9z"/>
<path style="fill:#333333;" d="M15.5,4.75H15v-1.5h0.5V4.75z M12.5,4.75H12v-1.5h0.5V4.75z M9.5,4.75H9v-1.5h0.5V4.75z M6.5,4.75H6
	v-1.5h0.5V4.75z"/>
<path style="fill:#333333;" d="M15.5,20.75H15v-1.5h0.5V20.75z M12.5,20.75H12v-1.5h0.5V20.75z M9.5,20.75H9v-1.5h0.5V20.75z
	 M6.5,20.75H6v-1.5h0.5V20.75z"/>
</svg>






