<?xml version="1.0" encoding="iso-8859-1"?>
<svg version="1.1" id="&#x56FE;&#x5C42;_1" xmlns="http://www.w3.org/2000/svg" xmlns:xlink="http://www.w3.org/1999/xlink" x="0px"
	 y="0px" viewBox="0 0 24 24" style="enable-background:new 0 0 24 24;" xml:space="preserve">
<g>
	<defs>
		<rect id="SVGID_1_" width="24" height="24"/>
	</defs>
	<clipPath id="SVGID_00000127766057531137194670000001845482172684880286_">
		<use xlink:href="#SVGID_1_"  style="overflow:visible;"/>
	</clipPath>
	<g style="clip-path:url(#SVGID_00000127766057531137194670000001845482172684880286_);">
		<path style="fill:#333333;" d="M18.964,15.628l-0.158-1.492c0.181-0.021,1.803-0.261,1.86-1.896
			c0.007-0.184-0.022-0.372-0.079-0.559c-0.001,0.001-0.002,0.001-0.003,0.002c-0.986,0.838-2.086,1.119-2.879,0.733
			c-0.38-0.187-1.009-0.688-0.953-1.963c0.072-1.694,1.023-2.264,1.919-2.226c0.637,0.024,1.352,0.38,1.968,0.927
			c0.312-0.708,0.438-1.569,0.157-2.502c-0.384-1.274-1.053-2.144-1.988-2.583c-1.267-0.595-2.845-0.333-3.898,0.112l-0.584-1.382
			c0.656-0.276,2.965-1.101,5.121-0.087c1.337,0.628,2.273,1.809,2.785,3.508c0.491,1.63,0.107,3.101-0.569,4.198
			c0.329,0.583,0.525,1.231,0.504,1.875C22.082,14.672,20.034,15.515,18.964,15.628z M18.602,9.726c-0.21,0-0.328,0.266-0.352,0.792
			c-0.015,0.354,0.062,0.525,0.114,0.551c0.141,0.066,0.647-0.018,1.248-0.529c0.054-0.046,0.107-0.094,0.16-0.145
			c-0.391-0.391-0.834-0.656-1.16-0.669C18.608,9.726,18.605,9.726,18.602,9.726z"/>
		<path style="fill:#333333;" d="M5.49,13.469c-0.605,0-1.195-0.314-1.519-0.875l-2-3.464C1.489,8.294,1.776,7.222,2.612,6.739
			l9.526-5.5c0.835-0.482,1.908-0.195,2.391,0.641l2,3.464c0.482,0.835,0.195,1.908-0.641,2.391l-9.526,5.5
			C6.087,13.394,5.787,13.469,5.49,13.469z M3.362,8.038C3.242,8.107,3.201,8.26,3.27,8.38l2,3.464
			c0.045,0.078,0.115,0.107,0.152,0.117c0.037,0.011,0.111,0.019,0.189-0.025l9.526-5.5c0.119-0.069,0.161-0.222,0.092-0.342
			l-2-3.464c-0.068-0.119-0.223-0.162-0.342-0.091L3.362,8.038z"/>
		
			<rect x="11.875" y="9.333" transform="matrix(0.866 -0.5 0.5 0.866 -4.8499 8.0653)" style="fill:#333333;" width="1.5" height="7.5"/>
		<path style="fill:#333333;" d="M16.254,21.61c-0.779,0-1.536-0.403-1.952-1.124l-1-1.732c-0.301-0.52-0.381-1.125-0.226-1.706
			s0.528-1.066,1.049-1.367c1.076-0.621,2.453-0.25,3.073,0.823l1,1.732c0.62,1.074,0.251,2.453-0.823,3.073
			C17.021,21.514,16.635,21.61,16.254,21.61z M15.248,16.879c-0.13,0-0.258,0.034-0.373,0.101l0,0
			c-0.174,0.101-0.298,0.263-0.35,0.456s-0.025,0.395,0.075,0.567l1,1.733c0.101,0.174,0.262,0.298,0.455,0.35
			c0.192,0.05,0.396,0.024,0.569-0.075c0.357-0.207,0.48-0.666,0.274-1.024l-1-1.732c-0.101-0.173-0.262-0.297-0.456-0.349
			C15.379,16.888,15.313,16.879,15.248,16.879z"/>
		
			<rect x="5.5" y="2.59" transform="matrix(0.866 -0.5001 0.5001 0.866 -0.7321 3.9479)" style="fill:#333333;" width="3" height="1.5"/>
		
			<rect x="10.75" y="11.683" transform="matrix(0.866 -0.5001 0.5001 0.866 -4.5757 7.7918)" style="fill:#333333;" width="3" height="1.5"/>
	</g>
</g>
</svg>






