<?xml version="1.0" encoding="iso-8859-1"?>
<svg version="1.1" id="&#x56FE;&#x5C42;_1" xmlns="http://www.w3.org/2000/svg" xmlns:xlink="http://www.w3.org/1999/xlink" x="0px"
	 y="0px" viewBox="0 0 24 24" style="enable-background:new 0 0 24 24;" xml:space="preserve">
<path style="fill:#333333;" d="M22.75,10.75H1.25v-9.5h21.5V10.75z M2.75,9.25h18.5v-6.5H2.75V9.25z"/>
<path style="fill:#333333;" d="M22.75,22.75H1.25v-9.5h21.5V22.75z M2.75,21.25h18.5v-6.5H2.75V21.25z"/>
<path style="fill:#333333;" d="M6.5,5h-1C5.224,5,5,5.224,5,5.5v1C5,6.776,5.224,7,5.5,7h1C6.776,7,7,6.776,7,6.5v-1
	C7,5.224,6.776,5,6.5,5z"/>
<path style="fill:#333333;" d="M6.5,17h-1C5.224,17,5,17.224,5,17.5v1C5,18.776,5.224,19,5.5,19h1C6.776,19,7,18.776,7,18.5v-1
	C7,17.224,6.776,17,6.5,17z"/>
<path style="fill:#333333;" d="M10.5,5h-1C9.224,5,9,5.224,9,5.5v1C9,6.776,9.224,7,9.5,7h1C10.776,7,11,6.776,11,6.5v-1
	C11,5.224,10.776,5,10.5,5z"/>
<path style="fill:#333333;" d="M10.5,17h-1C9.224,17,9,17.224,9,17.5v1C9,18.776,9.224,19,9.5,19h1c0.276,0,0.5-0.224,0.5-0.5v-1
	C11,17.224,10.776,17,10.5,17z"/>
</svg>






