<?xml version="1.0" encoding="iso-8859-1"?>
<svg version="1.1" id="&#x56FE;&#x5C42;_1" xmlns="http://www.w3.org/2000/svg" xmlns:xlink="http://www.w3.org/1999/xlink" x="0px"
	 y="0px" viewBox="0 0 24 24" style="enable-background:new 0 0 24 24;" xml:space="preserve">
<path style="fill:#333333;" d="M14.5,7.75c-1.792,0-3.25-1.458-3.25-3.25s1.458-3.25,3.25-3.25s3.25,1.458,3.25,3.25
	S16.292,7.75,14.5,7.75z M14.5,2.75c-0.965,0-1.75,0.785-1.75,1.75s0.785,1.75,1.75,1.75s1.75-0.785,1.75-1.75
	S15.465,2.75,14.5,2.75z"/>
<path style="fill:#333333;" d="M14.943,22.236l-1.67-5.02c-0.01-0.026-0.035-0.081-0.079-0.115l-3.805-3.014l-0.195-0.942l2.145-4
	l1.322,0.709l-1.849,3.447l3.309,2.62c0.257,0.199,0.456,0.48,0.571,0.81l1.675,5.032L14.943,22.236z"/>
<path style="fill:#333333;" d="M5.374,20.916l-1.248-0.832c0.254-0.381,0.644-0.848,1.096-1.389
	c0.479-0.574,1.021-1.224,1.414-1.798l2.599-3.819l1.24,0.844l-2.6,3.82c-0.434,0.635-1.001,1.314-1.502,1.914
	C5.967,20.143,5.583,20.603,5.374,20.916z"/>
<path style="fill:#333333;" d="M17.541,12.8c-0.322,0-0.629-0.08-0.898-0.23l-1.646-0.962c-1.926-1.128-4.025-1.902-6.239-2.299
	L7.667,9.115l-1.017,1.76l-1.299-0.75L6.63,7.91l0.78-0.364l1.61,0.285c2.391,0.429,4.656,1.264,6.733,2.482l1.634,0.955
	c0.034,0.019,0.088,0.032,0.143,0.032l3.459-0.05l0.021,1.5L17.541,12.8L17.541,12.8z"/>
<path style="fill:#333333;" d="M5.537,16.312l-4.485-2.59l3-5.196l4.485,2.59L5.537,16.312z M3.101,13.174l1.888,1.09l1.5-2.598
	l-1.888-1.09L3.101,13.174z"/>
</svg>






