<?xml version="1.0" encoding="iso-8859-1"?>
<svg version="1.1" id="&#x56FE;&#x5C42;_1" xmlns="http://www.w3.org/2000/svg" xmlns:xlink="http://www.w3.org/1999/xlink" x="0px"
	 y="0px" viewBox="0 0 24 24" style="enable-background:new 0 0 24 24;" xml:space="preserve">
<path style="fill:#333333;" d="M19.5,17.75h-15c-1.241,0-2.25-1.01-2.25-2.25v-11c0-1.241,1.009-2.25,2.25-2.25H12v1.5H4.5
	c-0.414,0-0.75,0.336-0.75,0.75v11c0,0.413,0.336,0.75,0.75,0.75h15c0.413,0,0.75-0.337,0.75-0.75V13h1.5v2.5
	C21.75,16.74,20.74,17.75,19.5,17.75z"/>
<rect x="11.25" y="17" style="fill:#333333;" width="1.5" height="4"/>
<rect x="7" y="20.25" style="fill:#333333;" width="10" height="1.5"/>
<path style="fill:#333333;" d="M18.5,8.75c-1.24,0-2.25-1.009-2.25-2.25s1.01-2.25,2.25-2.25s2.25,1.009,2.25,2.25
	S19.74,8.75,18.5,8.75z M18.5,5.75c-0.413,0-0.75,0.336-0.75,0.75s0.337,0.75,0.75,0.75s0.75-0.336,0.75-0.75S18.913,5.75,18.5,5.75
	z"/>
<rect x="17.75" y="8" style="fill:#333333;" width="1.5" height="2"/>
<rect x="17.75" y="3" style="fill:#333333;" width="1.5" height="2"/>
<rect x="15.335" y="7" transform="matrix(0.866 -0.5001 0.5001 0.866 -1.6864 9.207)" style="fill:#333333;" width="2" height="1.5"/>
<rect x="19.665" y="4.5" transform="matrix(0.866 -0.5001 0.5001 0.866 0.144 11.0373)" style="fill:#333333;" width="2" height="1.5"/>
<rect x="15.585" y="4.25" transform="matrix(0.4999 -0.8661 0.8661 0.4999 3.6219 16.7727)" style="fill:#333333;" width="1.5" height="2"/>
<rect x="19.915" y="6.75" transform="matrix(0.4999 -0.8661 0.8661 0.4999 3.6221 21.773)" style="fill:#333333;" width="1.5" height="2"/>
</svg>






