<?xml version="1.0" encoding="iso-8859-1"?>
<svg version="1.1" id="&#x56FE;&#x5C42;_1" xmlns="http://www.w3.org/2000/svg" xmlns:xlink="http://www.w3.org/1999/xlink" x="0px"
	 y="0px" viewBox="0 0 24 24" style="enable-background:new 0 0 24 24;" xml:space="preserve">
<path style="fill:#333333;" d="M12,20.75H3.5c-1.241,0-2.25-1.01-2.25-2.25v-13c0-1.241,1.009-2.25,2.25-2.25h17
	c1.24,0,2.25,1.009,2.25,2.25v6.029h-1.5V5.5c0-0.414-0.337-0.75-0.75-0.75h-17c-0.414,0-0.75,0.336-0.75,0.75v13
	c0,0.413,0.336,0.75,0.75,0.75H12V20.75z"/>
<path style="fill:#333333;" d="M22.75,10.75H1.25V5.5c0-1.241,1.009-2.25,2.25-2.25h17c1.24,0,2.25,1.009,2.25,2.25V10.75z
	 M2.75,9.25h18.5V5.5c0-0.414-0.337-0.75-0.75-0.75h-17c-0.414,0-0.75,0.336-0.75,0.75V9.25z"/>
<circle style="fill:#333333;" cx="5" cy="7" r="1"/>
<circle style="fill:#333333;" cx="8" cy="7" r="1"/>
<path style="fill:#333333;" d="M18.5,19.25c-1.24,0-2.25-1.01-2.25-2.25s1.01-2.25,2.25-2.25s2.25,1.01,2.25,2.25
	S19.74,19.25,18.5,19.25z M18.5,16.25c-0.413,0-0.75,0.337-0.75,0.75s0.337,0.75,0.75,0.75s0.75-0.337,0.75-0.75
	S18.913,16.25,18.5,16.25z"/>
<rect x="17.75" y="18.5" style="fill:#333333;" width="1.5" height="2"/>
<rect x="17.75" y="13.5" style="fill:#333333;" width="1.5" height="2"/>
<rect x="15.335" y="17.5" transform="matrix(0.866 -0.5001 0.5001 0.866 -6.9371 10.6141)" style="fill:#333333;" width="2" height="1.5"/>
<rect x="19.665" y="15" transform="matrix(0.866 -0.5001 0.5001 0.866 -5.1066 12.4444)" style="fill:#333333;" width="2" height="1.5"/>
<rect x="15.585" y="14.75" transform="matrix(0.4999 -0.8661 0.8661 0.4999 -5.4718 22.0235)" style="fill:#333333;" width="1.5" height="2"/>
<rect x="19.915" y="17.25" transform="matrix(0.4999 -0.8661 0.8661 0.4999 -5.4716 27.0239)" style="fill:#333333;" width="1.5" height="2"/>
</svg>






