<?xml version="1.0" encoding="iso-8859-1"?>
<svg version="1.1" id="&#x56FE;&#x5C42;_1" xmlns="http://www.w3.org/2000/svg" xmlns:xlink="http://www.w3.org/1999/xlink" x="0px"
	 y="0px" viewBox="0 0 24 24" style="enable-background:new 0 0 24 24;" xml:space="preserve">
<path style="fill:#333333;" d="M20.75,17.25H3.25V6c0-1.241,1.009-2.25,2.25-2.25h5v1.5h-5C5.086,5.25,4.75,5.586,4.75,6v9.75h14.5
	V13h1.5V17.25z"/>
<path style="fill:#333333;" d="M19,21.25H5c-2.068,0-3.75-1.683-3.75-3.75v-1.75h21.5v1.75C22.75,19.567,21.067,21.25,19,21.25z
	 M2.75,17.25v0.25c0,1.24,1.009,2.25,2.25,2.25h14c1.24,0,2.25-1.01,2.25-2.25v-0.25H2.75z"/>
<path style="fill:#333333;" d="M17.5,9.25c-1.24,0-2.25-1.009-2.25-2.25s1.01-2.25,2.25-2.25S19.75,5.759,19.75,7
	S18.74,9.25,17.5,9.25z M17.5,6.25c-0.413,0-0.75,0.336-0.75,0.75s0.337,0.75,0.75,0.75S18.25,7.414,18.25,7S17.913,6.25,17.5,6.25z
	"/>
<rect x="16.75" y="8.5" style="fill:#333333;" width="1.5" height="2"/>
<rect x="16.75" y="3.5" style="fill:#333333;" width="1.5" height="2"/>
<rect x="14.335" y="7.5" transform="matrix(0.866 -0.5001 0.5001 0.866 -2.0705 8.774)" style="fill:#333333;" width="2" height="1.5"/>
<rect x="18.665" y="5" transform="matrix(0.866 -0.5001 0.5001 0.866 -0.24 10.6043)" style="fill:#333333;" width="2" height="1.5"/>
<rect x="14.585" y="4.75" transform="matrix(0.4999 -0.8661 0.8661 0.4999 2.6888 16.1566)" style="fill:#333333;" width="1.5" height="2"/>
<rect x="18.915" y="7.25" transform="matrix(0.4999 -0.8661 0.8661 0.4999 2.689 21.157)" style="fill:#333333;" width="1.5" height="2"/>
</svg>






