<?xml version="1.0" encoding="iso-8859-1"?>
<svg version="1.1" id="&#x56FE;&#x5C42;_1" xmlns="http://www.w3.org/2000/svg" xmlns:xlink="http://www.w3.org/1999/xlink" x="0px"
	 y="0px" viewBox="0 0 24 24" style="enable-background:new 0 0 24 24;" xml:space="preserve">
<path style="fill:#333333;" d="M14.368,22.515l-0.225-0.7c-0.299-0.936-1.16-1.564-2.144-1.564c-0.983,0-1.844,0.629-2.144,1.564
	l-0.224,0.7l-0.705-0.21c-1.771-0.527-3.387-1.513-4.675-2.852l-0.468-0.486l0.436-0.517C4.562,18.045,4.75,17.53,4.75,17
	c0-1.315-1.188-2.363-2.472-2.239l-0.673,0.067l-0.136-0.663C1.323,13.458,1.25,12.729,1.25,12c0-1.101,0.166-2.186,0.493-3.226
	l0.171-0.545L2.485,8.25C3.741,8.25,4.75,7.241,4.75,6c0-0.349-0.078-0.683-0.23-0.993l-0.247-0.5l0.409-0.38
	c1.258-1.17,2.795-2.031,4.444-2.487l0.59-0.164l0.278,0.545C10.381,2.779,11.149,3.25,12,3.25s1.619-0.471,2.006-1.229l0.278-0.545
	l0.59,0.164c1.648,0.456,3.186,1.316,4.444,2.487l0.409,0.381l-0.247,0.5C19.327,5.316,19.25,5.65,19.25,6
	c0,1.241,1.01,2.25,2.25,2.25h0.551l0.207,0.524c0.326,1.04,0.492,2.125,0.492,3.226c0,0.728-0.073,1.455-0.219,2.165l-0.135,0.663
	l-0.674-0.067C20.439,14.64,19.25,15.685,19.25,17c0,0.53,0.188,1.045,0.529,1.45l0.436,0.517l-0.468,0.486
	c-1.287,1.338-2.903,2.324-4.675,2.852L14.368,22.515z M5.769,18.837c0.866,0.789,1.873,1.407,2.963,1.819
	C9.386,19.492,10.622,18.75,12,18.75c1.379,0,2.614,0.742,3.268,1.906c1.091-0.412,2.099-1.031,2.963-1.819
	c-0.312-0.558-0.48-1.19-0.48-1.837c0-1.954,1.503-3.564,3.414-3.735c0.057-0.418,0.086-0.842,0.086-1.265
	c0-0.78-0.097-1.55-0.287-2.297C19.122,9.421,17.75,7.868,17.75,6c0-0.382,0.056-0.753,0.167-1.11
	c-0.864-0.719-1.856-1.278-2.914-1.642C14.302,4.188,13.2,4.75,12,4.75c-1.2,0-2.302-0.562-3.002-1.502
	C7.939,3.612,6.947,4.171,6.083,4.89C6.194,5.247,6.25,5.618,6.25,6c0,1.886-1.4,3.452-3.215,3.712
	C2.846,10.456,2.75,11.223,2.75,12c0,0.424,0.029,0.848,0.086,1.265C4.747,13.436,6.25,15.045,6.25,17
	C6.25,17.646,6.082,18.279,5.769,18.837z"/>
<path style="fill:#333333;" d="M12,16.25c-2.343,0-4.25-1.906-4.25-4.25c0-2.343,1.907-4.25,4.25-4.25c2.344,0,4.25,1.907,4.25,4.25
	C16.25,14.344,14.344,16.25,12,16.25z M12,9.25c-1.517,0-2.75,1.233-2.75,2.75s1.233,2.75,2.75,2.75s2.75-1.233,2.75-2.75
	S13.517,9.25,12,9.25z"/>
</svg>






