<?xml version="1.0" encoding="iso-8859-1"?>
<svg version="1.1" id="&#x56FE;&#x5C42;_1" xmlns="http://www.w3.org/2000/svg" xmlns:xlink="http://www.w3.org/1999/xlink" x="0px"
	 y="0px" viewBox="0 0 24 24" style="enable-background:new 0 0 24 24;" xml:space="preserve">
<path style="fill:#333333;" d="M17.429,21.25H6.571L1.13,12l5.441-9.25h10.858L22.87,12L17.429,21.25z M7.429,19.75h9.142L21.13,12
	l-4.559-7.75H7.429L2.87,12L7.429,19.75z"/>
<path style="fill:#333333;" d="M12,15.25c-1.792,0-3.25-1.458-3.25-3.25S10.208,8.75,12,8.75s3.25,1.458,3.25,3.25
	S13.792,15.25,12,15.25z M12,10.25c-0.965,0-1.75,0.785-1.75,1.75s0.785,1.75,1.75,1.75s1.75-0.785,1.75-1.75S12.965,10.25,12,10.25
	z"/>
</svg>






