<?xml version="1.0" encoding="iso-8859-1"?>
<svg version="1.1" id="&#x56FE;&#x5C42;_1" xmlns="http://www.w3.org/2000/svg" xmlns:xlink="http://www.w3.org/1999/xlink" x="0px"
	 y="0px" viewBox="0 0 24 24" style="enable-background:new 0 0 24 24;" xml:space="preserve">
<path style="fill:#333333;" d="M14.113,22.75H9.886v-2.538c-0.774-0.198-1.509-0.503-2.198-0.911l-1.795,1.795l-2.989-2.989
	l1.795-1.795c-0.408-0.688-0.713-1.424-0.911-2.198H1.25V9.886h2.538c0.198-0.774,0.503-1.51,0.911-2.198L2.904,5.893l2.989-2.989
	l1.795,1.795c0.688-0.408,1.424-0.713,2.198-0.911V1.25h4.227v2.538c0.774,0.198,1.51,0.503,2.198,0.911l1.795-1.795l2.989,2.989
	l-1.795,1.795c0.408,0.688,0.713,1.424,0.911,2.198h2.538v4.227h-2.538c-0.198,0.773-0.503,1.51-0.911,2.198l1.795,1.795
	l-2.989,2.989l-1.795-1.795c-0.688,0.408-1.425,0.713-2.198,0.911V22.75z M11.386,21.25h1.227v-2.271l0.618-0.11
	c0.995-0.177,1.921-0.562,2.754-1.142l0.515-0.359l1.606,1.606l0.868-0.868L17.368,16.5l0.359-0.515
	c0.58-0.833,0.965-1.759,1.142-2.754l0.11-0.618h2.271v-1.227h-2.271l-0.11-0.619c-0.177-0.995-0.562-1.921-1.142-2.753
	l-0.359-0.515l1.606-1.606l-0.868-0.868L16.5,6.632l-0.515-0.359c-0.832-0.58-1.758-0.964-2.754-1.142l-0.618-0.11V2.75h-1.227
	v2.271l-0.619,0.11C9.772,5.308,8.846,5.692,8.015,6.272L7.5,6.632L5.893,5.025L5.025,5.893L6.632,7.5L6.272,8.015
	c-0.58,0.832-0.964,1.758-1.142,2.753l-0.11,0.619H2.75v1.227h2.271l0.11,0.618c0.177,0.996,0.562,1.922,1.142,2.754L6.632,16.5
	l-1.606,1.606l0.868,0.868l1.606-1.606l0.515,0.359c0.833,0.58,1.759,0.965,2.753,1.142l0.619,0.11V21.25z"/>
<path style="fill:#333333;" d="M12,15.25c-1.792,0-3.25-1.458-3.25-3.25S10.208,8.75,12,8.75s3.25,1.458,3.25,3.25
	S13.792,15.25,12,15.25z M12,10.25c-0.965,0-1.75,0.785-1.75,1.75s0.785,1.75,1.75,1.75s1.75-0.785,1.75-1.75S12.965,10.25,12,10.25
	z"/>
</svg>






