<?xml version="1.0" encoding="iso-8859-1"?>
<svg version="1.1" id="&#x56FE;&#x5C42;_1" xmlns="http://www.w3.org/2000/svg" xmlns:xlink="http://www.w3.org/1999/xlink" x="0px"
	 y="0px" viewBox="0 0 24 24" style="enable-background:new 0 0 24 24;" xml:space="preserve">
<polygon style="fill:#333333;" points="2.569,19.488 1.431,18.512 3.012,16.667 1.012,14.333 3.012,12 1.012,9.667 3.012,7.333 
	1.431,5.488 2.569,4.512 4.988,7.333 2.988,9.667 4.988,12 2.988,14.333 4.988,16.667 "/>
<polygon style="fill:#333333;" points="21.431,19.488 19.013,16.667 21.013,14.333 19.012,12 21.012,9.667 19.012,7.333 
	21.431,4.512 22.569,5.488 20.988,7.333 22.988,9.667 20.988,12 22.987,14.333 20.987,16.667 22.569,18.512 "/>
<path style="fill:#333333;" d="M17.75,21.75H6.25V2.25h11.5V21.75z M7.75,20.25h8.5V3.75h-8.5V20.25z"/>
<rect x="11" y="16.75" style="fill:#333333;" width="2" height="1.5"/>
</svg>






