<?xml version="1.0" encoding="iso-8859-1"?>
<svg version="1.1" id="&#x56FE;&#x5C42;_1" xmlns="http://www.w3.org/2000/svg" xmlns:xlink="http://www.w3.org/1999/xlink" x="0px"
	 y="0px" viewBox="0 0 24 24" style="enable-background:new 0 0 24 24;" xml:space="preserve">
<path style="fill:#333333;" d="M19.329,21.365l-1.023-1.098c1.898-1.771,2.944-4.174,2.944-6.768c0-5.101-4.149-9.25-9.25-9.25
	S2.75,8.399,2.75,13.5c0,2.594,1.045,4.997,2.944,6.768l-1.023,1.098C2.497,19.337,1.25,16.471,1.25,13.5
	C1.25,7.572,6.072,2.75,12,2.75S22.75,7.572,22.75,13.5C22.75,16.471,21.503,19.337,19.329,21.365z"/>
<path style="fill:#333333;" d="M7.058,18.805C5.591,17.438,4.75,15.504,4.75,13.5c0-3.998,3.252-7.25,7.25-7.25
	c3.998,0,7.25,3.252,7.25,7.25c0,2.004-0.841,3.938-2.307,5.305l-1.023-1.098c1.163-1.084,1.83-2.617,1.83-4.207
	c0-3.17-2.579-5.75-5.75-5.75c-3.17,0-5.75,2.58-5.75,5.75c0,1.59,0.667,3.123,1.83,4.207L7.058,18.805z"/>
<path style="fill:#333333;" d="M14.557,16.244l-1.023-1.098c0.462-0.431,0.717-1.016,0.717-1.646c0-1.24-1.01-2.25-2.25-2.25
	c-1.241,0-2.25,1.01-2.25,2.25c0,0.631,0.254,1.216,0.716,1.646l-1.023,1.098C8.685,15.537,8.25,14.536,8.25,13.5
	c0-2.068,1.682-3.75,3.75-3.75c2.067,0,3.75,1.682,3.75,3.75C15.75,14.537,15.314,15.537,14.557,16.244z"/>
</svg>






