<?xml version="1.0" encoding="iso-8859-1"?>
<svg version="1.1" id="&#x56FE;&#x5C42;_1" xmlns="http://www.w3.org/2000/svg" xmlns:xlink="http://www.w3.org/1999/xlink" x="0px"
	 y="0px" viewBox="0 0 24 24" style="enable-background:new 0 0 24 24;" xml:space="preserve">
<path style="fill:#333333;" d="M17.5,8.75c-1.792,0-3.25-1.458-3.25-3.25s1.458-3.25,3.25-3.25s3.25,1.458,3.25,3.25
	S19.292,8.75,17.5,8.75z M17.5,3.75c-0.965,0-1.75,0.785-1.75,1.75s0.785,1.75,1.75,1.75s1.75-0.785,1.75-1.75
	S18.465,3.75,17.5,3.75z"/>
<path style="fill:#333333;" d="M6.5,15.25c-1.792,0-3.25-1.458-3.25-3.25S4.708,8.75,6.5,8.75S9.75,10.208,9.75,12
	S8.292,15.25,6.5,15.25z M6.5,10.25c-0.965,0-1.75,0.785-1.75,1.75s0.785,1.75,1.75,1.75S8.25,12.965,8.25,12S7.465,10.25,6.5,10.25
	z"/>
<rect x="8.134" y="7.955" transform="matrix(0.8553 -0.5181 0.5181 0.8553 -2.7978 7.3915)" style="fill:#333333;" width="7.402" height="1.5"/>
<rect x="11.255" y="11.379" transform="matrix(0.5087 -0.8609 0.8609 0.5087 -7.2341 17.8282)" style="fill:#333333;" width="1.5" height="7.748"/>
<path style="fill:#333333;" d="M17.5,21.75c-1.792,0-3.25-1.458-3.25-3.25s1.458-3.25,3.25-3.25s3.25,1.458,3.25,3.25
	S19.292,21.75,17.5,21.75z M17.5,16.75c-0.965,0-1.75,0.785-1.75,1.75s0.785,1.75,1.75,1.75s1.75-0.785,1.75-1.75
	S18.465,16.75,17.5,16.75z"/>
</svg>






