<?xml version="1.0" encoding="iso-8859-1"?>
<svg version="1.1" id="&#x56FE;&#x5C42;_1" xmlns="http://www.w3.org/2000/svg" xmlns:xlink="http://www.w3.org/1999/xlink" x="0px"
	 y="0px" viewBox="0 0 24 24" style="enable-background:new 0 0 24 24;" xml:space="preserve">
<polygon style="fill:#333333;" points="21.75,10 20.25,10 20.25,3.75 14,3.75 14,2.25 21.75,2.25 "/>
<path style="fill:#333333;" d="M19.5,21.75h-15c-1.241,0-2.25-1.01-2.25-2.25v-15c0-1.241,1.009-2.25,2.25-2.25H9v1.5H4.5
	c-0.414,0-0.75,0.336-0.75,0.75v15c0,0.413,0.336,0.75,0.75,0.75h15c0.413,0,0.75-0.337,0.75-0.75v-4.763h1.5V19.5
	C21.75,20.74,20.74,21.75,19.5,21.75z"/>
<rect x="11.315" y="6.525" transform="matrix(0.7071 -0.7071 0.7071 0.7071 -0.2456 13.9569)" style="fill:#333333;" width="10.819" height="1.5"/>
</svg>






