<?xml version="1.0" encoding="iso-8859-1"?>
<svg version="1.1" id="&#x56FE;&#x5C42;_1" xmlns="http://www.w3.org/2000/svg" xmlns:xlink="http://www.w3.org/1999/xlink" x="0px"
	 y="0px" viewBox="0 0 24 24" style="enable-background:new 0 0 24 24;" xml:space="preserve">
<path style="fill:#333333;" d="M6.757,20.99c-0.96,0-1.92-0.365-2.651-1.096c-1.462-1.462-1.462-3.842,0-5.304l5.756-5.756
	c0.419-0.419,1.149-0.419,1.568,0l3.734,3.735c0.209,0.207,0.324,0.485,0.325,0.782s-0.115,0.576-0.325,0.786l-5.756,5.757
	C8.678,20.625,7.718,20.99,6.757,20.99z M10.646,10.171l-5.48,5.48c-0.877,0.878-0.877,2.305,0,3.183
	c0.877,0.877,2.305,0.877,3.182,0l5.479-5.48L10.646,10.171z M14.104,13.63c0.001,0.001,0.001,0.001,0.002,0.002L14.104,13.63z"/>
<path style="fill:#333333;" d="M16.656,14.093c-1.803,0-3.498-0.702-4.772-1.977c-2.632-2.632-2.632-6.914,0-9.546l0.392-0.392
	c0.449-0.451,1.239-0.452,1.691-0.001l7.854,7.854c0.466,0.468,0.465,1.226,0.001,1.692l-0.393,0.392
	C20.155,13.391,18.46,14.093,16.656,14.093z M13.121,3.454l-0.177,0.177c-2.047,2.047-2.047,5.377,0,7.424
	c0.991,0.992,2.31,1.538,3.712,1.538c1.403,0,2.722-0.546,3.713-1.538l0.177-0.177L13.121,3.454z M20.76,10.665
	C20.76,10.665,20.76,10.666,20.76,10.665L20.76,10.665z"/>
<rect x="9.086" y="13.664" transform="matrix(0.7071 -0.7071 0.7071 0.7071 -7.3846 11.0001)" style="fill:#333333;" width="1" height="1.5"/>
<rect x="13.786" y="8.464" transform="matrix(0.7069 -0.7074 0.7074 0.7069 -2.4337 13.0562)" style="fill:#333333;" width="1.5" height="2"/>
</svg>






