<?xml version="1.0" encoding="iso-8859-1"?>
<svg version="1.1" id="&#x56FE;&#x5C42;_1" xmlns="http://www.w3.org/2000/svg" xmlns:xlink="http://www.w3.org/1999/xlink" x="0px"
	 y="0px" viewBox="0 0 24 24" style="enable-background:new 0 0 24 24;" xml:space="preserve">
<path style="fill:#333333;" d="M18.75,7.75H5.25V2.526l2.995-1.353l2.08,0.99l1.772-1.031l1.771,1.031l2.094-0.997l2.788,1.378V7.75
	z M6.75,6.25h10.5V3.476l-1.3-0.643l-2.152,1.024l-1.701-0.99l-1.702,0.99L8.229,2.827L6.75,3.495V6.25z"/>
<path style="fill:#333333;" d="M12,22.875c-1.747,0-3.382-0.562-4.605-1.58C5.992,20.126,5.25,18.468,5.25,16.5V7h1.5v9.5
	c0,3.35,2.722,4.875,5.25,4.875s5.25-1.525,5.25-4.875V7h1.5v9.5C18.75,20.686,15.354,22.875,12,22.875z"/>
<rect x="10" y="16.75" style="fill:#333333;" width="4" height="1.5"/>
<path style="fill:#333333;" d="M12,15.25c-1.517,0-2.75-1.233-2.75-2.75S10.483,9.75,12,9.75s2.75,1.233,2.75,2.75
	S13.517,15.25,12,15.25z M12,11.25c-0.689,0-1.25,0.561-1.25,1.25s0.561,1.25,1.25,1.25s1.25-0.561,1.25-1.25S12.689,11.25,12,11.25
	z"/>
</svg>






