<?xml version="1.0" encoding="iso-8859-1"?>
<svg version="1.1" id="&#x56FE;&#x5C42;_1" xmlns="http://www.w3.org/2000/svg" xmlns:xlink="http://www.w3.org/1999/xlink" x="0px"
	 y="0px" viewBox="0 0 24 24" style="enable-background:new 0 0 24 24;" xml:space="preserve">
<path style="fill:#333333;" d="M16,22.75H8c-0.965,0-1.75-0.785-1.75-1.75V9.5c0-0.965,0.785-1.75,1.75-1.75h8
	c0.965,0,1.75,0.785,1.75,1.75V21C17.75,21.965,16.965,22.75,16,22.75z M8,9.25c-0.138,0-0.25,0.112-0.25,0.25V21
	c0,0.138,0.112,0.25,0.25,0.25h8c0.138,0,0.25-0.112,0.25-0.25V9.5c0-0.138-0.112-0.25-0.25-0.25H8z"/>
<path style="fill:#333333;" d="M15.25,9.25h-6.5v-4h6.5V9.25z M10.25,7.75h3.5v-1h-3.5V7.75z"/>
<path style="fill:#333333;" d="M15.25,6h-1.5V3.75h3.5v-1H13.5c-2.157,0-3.25,0.589-3.25,1.75V6h-1.5V4.5
	c0-1.214,0.617-3.25,4.75-3.25h5.25v4h-3.5V6z"/>
</svg>






