<?xml version="1.0" encoding="iso-8859-1"?>
<svg version="1.1" id="&#x56FE;&#x5C42;_1" xmlns="http://www.w3.org/2000/svg" xmlns:xlink="http://www.w3.org/1999/xlink" x="0px"
	 y="0px" viewBox="0 0 24 24" style="enable-background:new 0 0 24 24;" xml:space="preserve">
<path style="fill:#333333;" d="M11.6,12.45l-1.2-0.9l1.126-1.502L6.447,4.507C5.312,3.373,4.771,3.196,4.056,3.248
	c-0.53,0.112-0.937,0.407-1.15,0.891C2.574,4.888,2.766,5.985,3.143,6.614L1.857,7.386C1.294,6.449,0.954,4.843,1.534,3.532
	c0.289-0.652,0.925-1.488,2.319-1.767C5.225,1.656,6.167,2.106,7.53,3.47l5.943,6.482L11.6,12.45z"/>
<path style="fill:#333333;" d="M7.25,21h-1.5v-2.188c-1.403-1.434-2.197-2.931-2.49-4.688C2.764,9.177,6.243,6.804,9.372,6.261
	l0.257,1.478c-0.903,0.157-5.381,1.192-4.882,6.187c0.247,1.47,0.972,2.768,2.277,4.036l0.227,0.222V21z"/>
<path style="fill:#333333;" d="M20.25,21h-1.5v-2.28l0.184-0.211c2.297-2.648,2.574-5.046,2.349-5.792
	c-0.722-3.224-4.709-3.673-6.706-3.471l-0.152-1.492c2.459-0.251,7.37,0.384,8.309,4.583c0.351,1.155-0.02,3.985-2.482,6.938V21z"/>
<path style="fill:#333333;" d="M17.25,21h-1.5c0-1.546-1.426-2.25-2.75-2.25c-1.325,0-2.75,0.704-2.75,2.25h-1.5
	c0-2.462,2.138-3.75,4.25-3.75C15.112,17.25,17.25,18.538,17.25,21z"/>
</svg>






