<?xml version="1.0" encoding="iso-8859-1"?>
<svg version="1.1" id="&#x56FE;&#x5C42;_1" xmlns="http://www.w3.org/2000/svg" xmlns:xlink="http://www.w3.org/1999/xlink" x="0px"
	 y="0px" viewBox="0 0 24 24" style="enable-background:new 0 0 24 24;" xml:space="preserve">
<path style="fill:#333333;" d="M18.845,17.75H5.155L2.019,9.74L12,6.204l9.98,3.536L18.845,17.75z M6.178,16.25h11.643l2.198-5.613
	L12,7.796l-8.019,2.841L6.178,16.25z"/>
<path style="fill:#333333;" d="M18.249,10.01L12,7.796l-6.25,2.213V3.25h12.5L18.249,10.01z M12,6.204l4.749,1.683L16.75,4.75h-9.5
	v3.137L12,6.204z"/>
<rect x="11.25" y="2" style="fill:#333333;" width="1.5" height="2"/>
<rect x="11.25" y="8" style="fill:#333333;" width="1.5" height="4"/>
<polygon style="fill:#333333;" points="17.25,23.139 15.5,21.139 13.75,23.139 12,21.139 10.25,23.139 8.5,21.139 6.75,23.139 
	4.436,20.494 5.564,19.506 6.75,20.861 8.5,18.861 10.25,20.861 12,18.861 13.75,20.861 15.5,18.861 17.25,20.861 18.436,19.506 
	19.564,20.494 "/>
</svg>






