<?xml version="1.0" encoding="iso-8859-1"?>
<svg version="1.1" id="&#x56FE;&#x5C42;_1" xmlns="http://www.w3.org/2000/svg" xmlns:xlink="http://www.w3.org/1999/xlink" x="0px"
	 y="0px" viewBox="0 0 24 24" style="enable-background:new 0 0 24 24;" xml:space="preserve">
<path style="fill:none;" d="M19.5,16h-13L4,6h18L19.5,16z"/>
<path style="fill:#333333;" d="M20.086,16.75H5.915l-3.25-13H1.5v-1.5h2.335l0.75,3h18.375L20.086,16.75z M7.085,15.25h11.829
	l2.125-8.5H4.96L7.085,15.25z"/>
<path style="fill:#333333;" d="M6.5,21.75c-1.241,0-2.25-1.01-2.25-2.25s1.009-2.25,2.25-2.25s2.25,1.01,2.25,2.25
	S7.741,21.75,6.5,21.75z M6.5,18.75c-0.414,0-0.75,0.337-0.75,0.75s0.336,0.75,0.75,0.75s0.75-0.337,0.75-0.75
	S6.914,18.75,6.5,18.75z"/>
<path style="fill:#333333;" d="M19.5,21.75c-1.24,0-2.25-1.01-2.25-2.25s1.01-2.25,2.25-2.25s2.25,1.01,2.25,2.25
	S20.74,21.75,19.5,21.75z M19.5,18.75c-0.413,0-0.75,0.337-0.75,0.75s0.337,0.75,0.75,0.75s0.75-0.337,0.75-0.75
	S19.913,18.75,19.5,18.75z"/>
<rect x="11" y="10.25" style="fill:#333333;" width="4" height="1.5"/>
<rect x="12.25" y="9" style="fill:#333333;" width="1.5" height="4"/>
</svg>






