<?xml version="1.0" encoding="iso-8859-1"?>
<svg version="1.1" id="&#x56FE;&#x5C42;_1" xmlns="http://www.w3.org/2000/svg" xmlns:xlink="http://www.w3.org/1999/xlink" x="0px"
	 y="0px" viewBox="0 0 24 24" style="enable-background:new 0 0 24 24;" xml:space="preserve">
<path style="fill:#333333;" d="M12,22.75c-8.443,0-10.143-4.809-10.211-5.013l-0.071-0.214L5.328,4.111L8.189,1.25h7.621
	l2.861,2.861l3.611,13.412l-0.071,0.214C22.144,17.941,20.443,22.75,12,22.75z M3.291,17.448C3.67,18.241,5.535,21.25,12,21.25
	c6.456,0,8.324-3,8.709-3.803L17.328,4.889L15.189,2.75H8.811L6.672,4.889L3.291,17.448z"/>
<rect x="3.377" y="16.25" transform="matrix(0.2422 -0.9702 0.9702 0.2422 -10.8104 20.1587)" style="fill:#333333;" width="8.246" height="1.5"/>
<path style="fill:#333333;" d="M12,22.75c-8.443,0-10.143-4.809-10.211-5.013l1.421-0.48C3.267,17.42,4.705,21.25,12,21.25V22.75z"
	/>
</svg>






