<?xml version="1.0" encoding="iso-8859-1"?>
<svg version="1.1" id="&#x56FE;&#x5C42;_1" xmlns="http://www.w3.org/2000/svg" xmlns:xlink="http://www.w3.org/1999/xlink" x="0px"
	 y="0px" viewBox="0 0 24 24" style="enable-background:new 0 0 24 24;" xml:space="preserve">
<path style="fill:#333333;" d="M18.654,21.75H5.345c-1.078,0-2.007-0.769-2.21-1.827l-1.531-8c-0.126-0.661,0.047-1.338,0.476-1.856
	C2.509,9.547,3.142,9.25,3.814,9.25h16.371c0.673,0,1.305,0.297,1.734,0.816c0.429,0.519,0.603,1.195,0.476,1.856l-1.531,8
	C20.661,20.981,19.731,21.75,18.654,21.75z M3.078,11.641l1.531,8.001c0.067,0.353,0.377,0.608,0.736,0.608h13.309
	c0.359,0,0.669-0.256,0.737-0.609l1.531-8c0.058-0.301-0.075-0.517-0.159-0.618c-0.084-0.102-0.271-0.272-0.578-0.272H3.814
	c-0.307,0-0.494,0.17-0.578,0.272C3.152,11.124,3.02,11.339,3.078,11.641L3.078,11.641z"/>
<path style="fill:#333333;" d="M16.5,10.75h-9L6.869,9.594L12,1.613l5.131,7.981L16.5,10.75z M8.874,9.25h6.252L12,4.387L8.874,9.25
	z"/>
<path style="fill:#333333;" d="M12,17.75c-1.241,0-2.25-1.01-2.25-2.25s1.009-2.25,2.25-2.25c1.24,0,2.25,1.01,2.25,2.25
	S13.24,17.75,12,17.75z M12,14.75c-0.414,0-0.75,0.337-0.75,0.75s0.336,0.75,0.75,0.75c0.413,0,0.75-0.337,0.75-0.75
	S12.413,14.75,12,14.75z"/>
</svg>






