<?xml version="1.0" encoding="iso-8859-1"?>
<svg version="1.1" id="&#x56FE;&#x5C42;_1" xmlns="http://www.w3.org/2000/svg" xmlns:xlink="http://www.w3.org/1999/xlink" x="0px"
	 y="0px" viewBox="0 0 24 24" style="enable-background:new 0 0 24 24;" xml:space="preserve">
<path style="fill:#333333;" d="M12.988,10.25h-1.977l-4.72-3.332L5.662,1.25h12.676l-0.63,5.668L12.988,10.25z M11.488,8.75h1.023
	l3.78-2.668l0.37-3.332H7.338l0.37,3.332L11.488,8.75z"/>
<rect x="11.25" y="9.5" style="fill:#333333;" width="1.5" height="5.5"/>
<path style="fill:#333333;" d="M12,22.75c-1.241,0-2.25-1.01-2.25-2.25v-4c0-1.24,1.009-2.25,2.25-2.25c1.24,0,2.25,1.01,2.25,2.25
	v4C14.25,21.74,13.24,22.75,12,22.75z M12,15.75c-0.414,0-0.75,0.337-0.75,0.75v4c0,0.413,0.336,0.75,0.75,0.75
	c0.413,0,0.75-0.337,0.75-0.75v-4C12.75,16.087,12.413,15.75,12,15.75z"/>
</svg>






