<?xml version="1.0" encoding="iso-8859-1"?>
<svg version="1.1" id="&#x56FE;&#x5C42;_1" xmlns="http://www.w3.org/2000/svg" xmlns:xlink="http://www.w3.org/1999/xlink" x="0px"
	 y="0px" viewBox="0 0 24 24" style="enable-background:new 0 0 24 24;" xml:space="preserve">
<path style="fill:#333333;" d="M12.261,22.917c-3.295,0-6.022-1.118-8.291-3.387c-3.318-3.317-3.726-7.527-1.064-10.988
	c2.269-2.948,5.69-3.617,6.685-3.752c0.24-0.032,0.479-0.041,0.721-0.041h9.938V5.5c0,0.115-0.02,2.83-1.72,4.53
	c-1.629,1.628-3.303,2.22-4.03,2.22c-0.7,0-5.074,0.57-6.031,1.336c-0.593,0.475-0.94,1.062-0.953,1.614
	c-0.013,0.572,0.316,1.156,0.978,1.735c1.84,1.611,5.081,2.225,7.228,1.368c2.198-0.879,3.594-3.612,3.608-3.64l1.366,0.058
	l2.285,5.712l-0.718,0.269c-0.167,0.062-4.117,1.534-7.657,2.04C13.794,22.858,13.013,22.917,12.261,22.917z M10.312,6.25
	c-0.174,0-0.347,0.003-0.521,0.027C8.94,6.392,6.014,6.962,4.094,9.458c-2.199,2.858-1.849,6.227,0.937,9.012
	c2.463,2.463,5.44,3.345,9.363,2.788c2.51-0.358,5.325-1.26,6.62-1.704l-1.16-2.899c-0.738,1.031-1.957,2.395-3.575,3.042
	c-2.704,1.08-6.475,0.38-8.772-1.632C6.246,16.962,6,15.88,6.016,15.167c0.022-1.012,0.561-1.989,1.515-2.753
	c1.524-1.219,6.59-1.664,6.969-1.664c0.305,0,1.628-0.438,2.97-1.78c0.793-0.793,1.096-1.962,1.21-2.72H10.312z"/>
<rect x="10.75" y="5.146" transform="matrix(0.8944 -0.4472 0.4472 0.8944 -2.5872 6.0403)" style="fill:#333333;" width="1.5" height="6.708"/>
<path style="fill:#333333;" d="M20.25,5.5h-1.5c0-1.517-1.233-2.75-2.75-2.75H9v-1.5h7C18.344,1.25,20.25,3.157,20.25,5.5z"/>
<circle style="fill:#333333;" cx="15" cy="8" r="1"/>
</svg>






