<?xml version="1.0" encoding="iso-8859-1"?>
<svg version="1.1" id="&#x56FE;&#x5C42;_1" xmlns="http://www.w3.org/2000/svg" xmlns:xlink="http://www.w3.org/1999/xlink" x="0px"
	 y="0px" viewBox="0 0 24 24" style="enable-background:new 0 0 24 24;" xml:space="preserve">
<polygon style="fill:#333333;" points="20.53,21.03 19.47,19.97 20.939,18.5 19.47,17.03 20.53,15.97 23.061,18.5 "/>
<polygon style="fill:#333333;" points="20.53,8.03 19.47,6.97 20.939,5.5 19.47,4.03 20.53,2.97 23.061,5.5 "/>
<path style="fill:#333333;" d="M22,19.25h-3.5c-3.998,0-7.25-3.252-7.25-7.25c0-3.998,3.252-7.25,7.25-7.25H22v1.5h-3.5
	c-3.171,0-5.75,2.58-5.75,5.75c0,3.171,2.579,5.75,5.75,5.75H22V19.25z"/>
<path style="fill:#333333;" d="M5.5,19.25H2v-1.5h3.5c3.17,0,5.75-2.579,5.75-5.75c0-3.17-2.58-5.75-5.75-5.75H2v-1.5h3.5
	c3.998,0,7.25,3.252,7.25,7.25C12.75,15.998,9.498,19.25,5.5,19.25z"/>
</svg>






