<?xml version="1.0" encoding="iso-8859-1"?>
<svg version="1.1" id="&#x56FE;&#x5C42;_1" xmlns="http://www.w3.org/2000/svg" xmlns:xlink="http://www.w3.org/1999/xlink" x="0px"
	 y="0px" viewBox="0 0 24 24" style="enable-background:new 0 0 24 24;" xml:space="preserve">
<path style="fill:#333333;" d="M17.714,6.75H6.287l2.25-4.5h6.927L17.714,6.75z M8.713,5.25h6.573l-0.75-1.5H9.463L8.713,5.25z"/>
<path style="fill:#333333;" d="M20.5,21.75h-17c-1.241,0-2.25-0.965-2.25-2.15V7.4c0-1.186,1.009-2.15,2.25-2.15h17
	c1.24,0,2.25,0.964,2.25,2.15v12.2C22.75,20.785,21.74,21.75,20.5,21.75z M3.5,6.75c-0.414,0-0.75,0.292-0.75,0.65v12.2
	c0,0.358,0.336,0.65,0.75,0.65h17c0.413,0,0.75-0.292,0.75-0.65V7.4c0-0.358-0.337-0.65-0.75-0.65H3.5z"/>
<path style="fill:#333333;" d="M9.529,17.749l-0.058-1.498c2.482-0.097,4.279-0.781,4.279-1.195c0-0.302-1.364-0.674-1.947-0.832
	c-1.431-0.39-3.053-0.831-3.053-2.279c0-2.349,4.347-2.656,5.218-2.694l0.064,1.499c-2.095,0.09-3.782,0.728-3.782,1.195
	c0,0.302,1.364,0.674,1.947,0.832c1.431,0.39,3.053,0.831,3.053,2.279C15.25,17.35,10.871,17.697,9.529,17.749z"/>
</svg>






