<?xml version="1.0" encoding="iso-8859-1"?>
<svg version="1.1" id="&#x56FE;&#x5C42;_1" xmlns="http://www.w3.org/2000/svg" xmlns:xlink="http://www.w3.org/1999/xlink" x="0px"
	 y="0px" viewBox="0 0 24 24" style="enable-background:new 0 0 24 24;" xml:space="preserve">
<rect x="10.25" y="5.013" transform="matrix(0.3162 -0.9487 0.9487 0.3162 -6.2345 20.3503)" style="fill:#333333;" width="1.501" height="18.974"/>
<path style="fill:#333333;" d="M6,10.25c-1.241,0-2.25-1.009-2.25-2.25S4.759,5.75,6,5.75S8.25,6.759,8.25,8S7.241,10.25,6,10.25z
	 M6,7.25C5.586,7.25,5.25,7.586,5.25,8S5.586,8.75,6,8.75S6.75,8.414,6.75,8S6.414,7.25,6,7.25z"/>
<path style="fill:#333333;" d="M15.25,18.75h-6.5v-5.807l6.5,2.274V18.75z M10.25,17.25h3.5v-0.968l-3.5-1.226V17.25z"/>
<path style="fill:#333333;" d="M20.717,17.721l-1.434-0.441l1.587-5.157c0.116-0.376-0.082-0.781-0.449-0.921l-8.48-3.23
	l-2.237,6.041l-1.406-0.521L11.06,6.03l9.895,3.77c1.104,0.42,1.697,1.635,1.35,2.764L20.717,17.721z"/>
</svg>






