<?xml version="1.0" encoding="iso-8859-1"?>
<svg version="1.1" id="&#x56FE;&#x5C42;_1" xmlns="http://www.w3.org/2000/svg" xmlns:xlink="http://www.w3.org/1999/xlink" x="0px"
	 y="0px" viewBox="0 0 24 24" style="enable-background:new 0 0 24 24;" xml:space="preserve">
<path style="fill:#333333;" d="M12.437,16.057c-0.439,0-0.88-0.039-1.321-0.116c-1.977-0.349-3.7-1.446-4.851-3.091
	c-1.151-1.644-1.593-3.637-1.245-5.614s1.446-3.699,3.09-4.85l0.614-0.43l8.62,12.31l-0.614,0.43
	C15.452,15.59,13.964,16.057,12.437,16.057z M8.383,4.082c-0.989,0.893-1.65,2.081-1.885,3.414
	c-0.279,1.582,0.075,3.178,0.996,4.494s2.3,2.195,3.882,2.473c1.333,0.235,2.677,0.021,3.853-0.604L8.383,4.082z"/>
<rect x="10.25" y="15.5" style="fill:#333333;" width="1.5" height="5.5"/>
<polygon style="fill:#333333;" points="21,21.75 1.892,21.75 5.804,11.972 7.196,12.528 4.108,20.25 21,20.25 "/>
<rect x="11.6" y="5" transform="matrix(0.8066 -0.5911 0.5911 0.8066 -0.256 10.7176)" style="fill:#333333;" width="9.301" height="1.5"/>
<polygon style="fill:#333333;" points="17.213,13.982 15.787,13.518 18.967,3.75 8.5,3.75 8.5,2.25 21.033,2.25 "/>
</svg>






