<?xml version="1.0" encoding="iso-8859-1"?>
<svg version="1.1" id="&#x56FE;&#x5C42;_1" xmlns="http://www.w3.org/2000/svg" xmlns:xlink="http://www.w3.org/1999/xlink" x="0px"
	 y="0px" viewBox="0 0 24 24" style="enable-background:new 0 0 24 24;" xml:space="preserve">
<path style="fill:#333333;" d="M19.602,19.602l-1.061-1.061c1.747-1.747,2.709-4.07,2.709-6.541s-0.962-4.793-2.709-6.541
	l1.061-1.061c2.03,2.031,3.148,4.73,3.148,7.602C22.75,14.872,21.632,17.571,19.602,19.602z"/>
<path style="fill:#333333;" d="M4.398,19.602C2.368,17.571,1.25,14.872,1.25,12c0-2.871,1.118-5.571,3.148-7.602l1.061,1.061
	C3.712,7.207,2.75,9.529,2.75,12s0.962,4.794,2.709,6.541L4.398,19.602z"/>
<path style="fill:#333333;" d="M7.02,17.48C5.556,16.016,4.75,14.069,4.75,12c0-2.07,0.806-4.016,2.27-5.48l1.061,1.061
	C6.9,8.761,6.25,10.331,6.25,12c0,1.669,0.65,3.238,1.831,4.42L7.02,17.48z"/>
<path style="fill:#333333;" d="M16.979,17.48l-1.061-1.061C17.1,15.239,17.75,13.669,17.75,12c0-1.67-0.65-3.239-1.831-4.419
	l1.061-1.062c1.464,1.463,2.271,3.41,2.271,5.48C19.25,14.07,18.443,16.017,16.979,17.48z"/>
<rect x="11.25" y="17" style="fill:#333333;" width="1.5" height="5"/>
<rect x="11.25" y="2" style="fill:#333333;" width="1.5" height="5"/>
<path style="fill:#333333;" d="M12,13.5c0.828,0,1.5-0.672,1.5-1.5s-0.672-1.5-1.5-1.5s-1.5,0.672-1.5,1.5S11.172,13.5,12,13.5z"/>
</svg>






