<?xml version="1.0" encoding="iso-8859-1"?>
<svg version="1.1" id="&#x56FE;&#x5C42;_1" xmlns="http://www.w3.org/2000/svg" xmlns:xlink="http://www.w3.org/1999/xlink" x="0px"
	 y="0px" viewBox="0 0 24 24" style="enable-background:new 0 0 24 24;" xml:space="preserve">
<polygon style="fill:#333333;" points="17.265,22.147 13.385,2.75 10.615,2.75 6.735,22.147 5.265,21.853 9.385,1.25 14.615,1.25 
	18.735,21.853 "/>
<rect x="7.5" y="4.25" style="fill:#333333;" width="9" height="1.5"/>
<rect x="6" y="12.25" style="fill:#333333;" width="12" height="1.5"/>
<rect x="11.75" y="10.669" transform="matrix(0.5145 -0.8575 0.8575 0.5145 -8.0798 18.7295)" style="fill:#333333;" width="1.501" height="11.662"/>
<rect x="6.132" y="15.75" transform="matrix(0.8454 -0.5341 0.5341 0.8454 -6.9963 8.826)" style="fill:#333333;" width="11.236" height="1.499"/>
<rect x="5.947" y="8.5" transform="matrix(0.7071 -0.7071 0.7071 0.7071 -3.2457 10.6642)" style="fill:#333333;" width="10.607" height="1.5"/>
<rect x="12" y="3.947" transform="matrix(0.7071 -0.7071 0.7071 0.7071 -2.8063 11.7249)" style="fill:#333333;" width="1.5" height="10.607"/>
</svg>






