<?xml version="1.0" encoding="iso-8859-1"?>
<svg version="1.1" id="&#x56FE;&#x5C42;_1" xmlns="http://www.w3.org/2000/svg" xmlns:xlink="http://www.w3.org/1999/xlink" x="0px"
	 y="0px" viewBox="0 0 24 24" style="enable-background:new 0 0 24 24;" xml:space="preserve">
<path style="fill:#333333;" d="M19.602,19.602l-1.061-1.061c3.606-3.606,3.606-9.475,0-13.082c-3.605-3.606-9.476-3.606-13.082,0
	c-3.606,3.607-3.606,9.476,0,13.082l-1.061,1.061c-4.191-4.191-4.191-11.012,0-15.203c4.191-4.191,11.012-4.191,15.203,0
	S23.793,15.41,19.602,19.602z M16.772,16.772l-1.061-1.061c0.992-0.991,1.538-2.31,1.538-3.712s-0.546-2.721-1.538-3.712
	C14.721,7.296,13.402,6.75,12,6.75S9.279,7.296,8.288,8.288S6.75,10.598,6.75,12s0.546,2.721,1.538,3.712l-1.061,1.061
	C5.952,15.498,5.25,13.803,5.25,12s0.702-3.498,1.977-4.773S10.197,5.25,12,5.25c1.803,0,3.498,0.702,4.772,1.977
	c1.275,1.275,1.978,2.97,1.978,4.773C18.75,13.803,18.048,15.498,16.772,16.772z"/>
<path style="fill:none;" d="M14,12c0,1.105-0.895,2-2,2s-2-0.895-2-2s0.895-2,2-2S14,10.895,14,12z"/>
<path style="fill:#333333;" d="M14,22.75h-2V22v0.75h-2v-1.5h1.25v-6.604c-1.153-0.328-2-1.39-2-2.646c0-1.517,1.233-2.75,2.75-2.75
	s2.75,1.233,2.75,2.75c0,1.257-0.847,2.318-2,2.646v6.604H14V22.75z M12,10.75c-0.689,0-1.25,0.561-1.25,1.25s0.561,1.25,1.25,1.25
	s1.25-0.561,1.25-1.25S12.689,10.75,12,10.75z"/>
</svg>






