<?xml version="1.0" encoding="iso-8859-1"?>
<svg version="1.1" id="&#x56FE;&#x5C42;_1" xmlns="http://www.w3.org/2000/svg" xmlns:xlink="http://www.w3.org/1999/xlink" x="0px"
	 y="0px" viewBox="0 0 24 24" style="enable-background:new 0 0 24 24;" xml:space="preserve">
<path style="fill:#333333;" d="M19,22.75H5c-0.965,0-1.75-0.785-1.75-1.75V3c0-0.965,0.785-1.75,1.75-1.75h9.113
	c0.436,0,0.854,0.162,1.177,0.455l4.888,4.443c0.363,0.332,0.572,0.804,0.572,1.295V21C20.75,21.965,19.965,22.75,19,22.75z M5,2.75
	C4.862,2.75,4.75,2.862,4.75,3v18c0,0.138,0.112,0.25,0.25,0.25h14c0.138,0,0.25-0.112,0.25-0.25V7.442
	c0-0.07-0.03-0.138-0.082-0.185l-4.887-4.442c-0.046-0.042-0.105-0.065-0.168-0.065H5z"/>
<circle style="fill:#333333;" cx="8.5" cy="7" r="1.5"/>
<path style="fill:#333333;" d="M16.75,19.25h-9.5v-8.5h9.5V19.25z M8.75,17.75h6.5v-5.5h-6.5V17.75z"/>
</svg>






