<?xml version="1.0" encoding="iso-8859-1"?>
<svg version="1.1" id="&#x56FE;&#x5C42;_1" xmlns="http://www.w3.org/2000/svg" xmlns:xlink="http://www.w3.org/1999/xlink" x="0px"
	 y="0px" viewBox="0 0 24 24" style="enable-background:new 0 0 24 24;" xml:space="preserve">
<path style="fill:#333333;" d="M17.5,22.75c-4.115,0-5.655-7.703-6.235-10.603c-0.073-0.366-0.146-0.836-0.23-1.373
	C10.598,7.97,9.786,2.75,7,2.75c-2.711,0-4.012,6.906-4.254,9.324l-1.492-0.149C1.363,10.833,2.453,1.25,7,1.25
	c4.071,0,5.012,6.046,5.517,9.293c0.08,0.513,0.149,0.961,0.219,1.31c1.554,7.767,3.448,9.397,4.765,9.397
	c1.943,0,3.365-5.453,3.754-9.325l1.492,0.149C22.568,13.857,21.478,22.75,17.5,22.75z"/>
<rect x="5.5" y="11.25" style="fill:#333333;" width="3" height="1.5"/>
<rect x="15.5" y="11.25" style="fill:#333333;" width="3" height="1.5"/>
</svg>






