<?xml version="1.0" encoding="iso-8859-1"?>
<svg version="1.1" id="&#x56FE;&#x5C42;_1" xmlns="http://www.w3.org/2000/svg" xmlns:xlink="http://www.w3.org/1999/xlink" x="0px"
	 y="0px" viewBox="0 0 24 24" style="enable-background:new 0 0 24 24;" xml:space="preserve">
<polygon style="fill:#333333;" points="16.875,15.681 12,12.866 7.125,15.681 6.375,14.382 11.25,11.567 11.25,6 12.75,6 
	12.75,11.567 17.625,14.382 "/>
<path style="fill:#333333;" d="M5,10.75c-1.517,0-2.75-1.233-2.75-2.75S3.483,5.25,5,5.25S7.75,6.483,7.75,8S6.517,10.75,5,10.75z
	 M5,6.75C4.311,6.75,3.75,7.311,3.75,8S4.311,9.25,5,9.25S6.25,8.689,6.25,8S5.689,6.75,5,6.75z"/>
<path style="fill:#333333;" d="M5,18.75c-1.517,0-2.75-1.233-2.75-2.75S3.483,13.25,5,13.25S7.75,14.483,7.75,16
	S6.517,18.75,5,18.75z M5,14.75c-0.689,0-1.25,0.561-1.25,1.25S4.311,17.25,5,17.25S6.25,16.689,6.25,16S5.689,14.75,5,14.75z"/>
<path style="fill:#333333;" d="M12,22.75c-1.517,0-2.75-1.233-2.75-2.75s1.233-2.75,2.75-2.75s2.75,1.233,2.75,2.75
	S13.517,22.75,12,22.75z M12,18.75c-0.689,0-1.25,0.561-1.25,1.25s0.561,1.25,1.25,1.25s1.25-0.561,1.25-1.25S12.689,18.75,12,18.75
	z"/>
<path style="fill:#333333;" d="M19,18.75c-1.517,0-2.75-1.233-2.75-2.75s1.233-2.75,2.75-2.75s2.75,1.233,2.75,2.75
	S20.517,18.75,19,18.75z M19,14.75c-0.689,0-1.25,0.561-1.25,1.25s0.561,1.25,1.25,1.25s1.25-0.561,1.25-1.25S19.689,14.75,19,14.75
	z"/>
<path style="fill:#333333;" d="M19,10.75c-1.517,0-2.75-1.233-2.75-2.75S17.483,5.25,19,5.25S21.75,6.483,21.75,8
	S20.517,10.75,19,10.75z M19,6.75c-0.689,0-1.25,0.561-1.25,1.25S18.311,9.25,19,9.25S20.25,8.689,20.25,8S19.689,6.75,19,6.75z"/>
<path style="fill:#333333;" d="M12,6.75c-1.517,0-2.75-1.233-2.75-2.75S10.483,1.25,12,1.25S14.75,2.483,14.75,4
	S13.517,6.75,12,6.75z M12,2.75c-0.689,0-1.25,0.561-1.25,1.25S11.311,5.25,12,5.25S13.25,4.689,13.25,4S12.689,2.75,12,2.75z"/>
</svg>






