<?xml version="1.0" encoding="iso-8859-1"?>
<svg version="1.1" id="&#x56FE;&#x5C42;_1" xmlns="http://www.w3.org/2000/svg" xmlns:xlink="http://www.w3.org/1999/xlink" x="0px"
	 y="0px" viewBox="0 0 24 24" style="enable-background:new 0 0 24 24;" xml:space="preserve">
<path style="fill:#333333;" d="M13.84,22.325c-1.554,0-3.137-0.385-4.676-1.154l0,0c-2.757-1.379-5.495-5.267-7.307-8.285
	c-1.004-1.673-0.339-3.312,0.704-4.126c1.242-0.972,2.875-0.884,3.97,0.21l0.72,0.72V8.75c0-1.378,1.122-2.5,2.5-2.5
	c0.512,0,0.988,0.154,1.384,0.419C11.578,5.967,12.36,5.5,13.25,5.5s1.673,0.467,2.115,1.169c0.674-0.449,1.637-0.539,2.385-0.21
	V3.75c0-1.378,1.121-2.5,2.5-2.5s2.5,1.122,2.5,2.5v10.733c0,1.285-0.285,2.379-0.847,3.252c-0.679,1.05-1.844,2.495-3.544,3.423
	C16.934,21.936,15.402,22.325,13.84,22.325z M9.835,19.829c2.671,1.335,5.371,1.341,7.806,0.013c1.424-0.777,2.418-2.017,3.002-2.92
	c0.402-0.626,0.607-1.446,0.607-2.438V3.75c0-0.551-0.448-1-1-1s-1,0.449-1,1v5h-1.5c0-0.551-0.448-1-1-1s-1,0.449-1,1h-1.5V8
	c0-0.551-0.448-1-1-1s-1,0.449-1,1v0.75h-1.5c0-0.551-0.449-1-1-1s-1,0.449-1,1v2.75l-1.28,0.53l-2-2
	C4.834,9.395,4.014,9.527,3.484,9.941c-0.542,0.423-0.915,1.215-0.341,2.173C5.594,16.198,7.908,18.866,9.835,19.829L9.835,19.829z"
	/>
</svg>






