<?xml version="1.0" encoding="iso-8859-1"?>
<svg version="1.1" id="&#x56FE;&#x5C42;_1" xmlns="http://www.w3.org/2000/svg" xmlns:xlink="http://www.w3.org/1999/xlink" x="0px"
	 y="0px" viewBox="0 0 24 24" style="enable-background:new 0 0 24 24;" xml:space="preserve">
<path style="fill:#333333;" d="M22,6.75h-8L13.25,6V2L14,1.25h8L22.75,2v4L22,6.75z M14.75,5.25h6.5v-2.5h-6.5V5.25z"/>
<path style="fill:#333333;" d="M21,18.75H4c-1.517,0-2.75-1.233-2.75-2.75v-3c0-2.619,2.131-4.75,4.75-4.75h7.25V6L14,5.25h8
	L22.75,6v11C22.75,17.965,21.965,18.75,21,18.75z M6,9.75c-1.792,0-3.25,1.458-3.25,3.25v3c0,0.689,0.561,1.25,1.25,1.25h17
	c0.141,0,0.25-0.109,0.25-0.25V6.75h-6.5V9L14,9.75H6z"/>
<rect x="6.25" y="9" style="fill:#333333;" width="1.5" height="3"/>
<rect x="9.75" y="9" style="fill:#333333;" width="1.5" height="3"/>
<rect x="6.25" y="18" style="fill:#333333;" width="1.5" height="4"/>
<rect x="17.25" y="18" style="fill:#333333;" width="1.5" height="4"/>
<rect x="6" y="8.25" style="fill:#333333;" width="5.5" height="1.5"/>
<path style="fill:#333333;" d="M22,22.75H3c-0.965,0-1.75-0.785-1.75-1.75v-0.685h1.5V21c0,0.138,0.112,0.25,0.25,0.25h19V22.75z"/>
</svg>






