<?xml version="1.0" encoding="iso-8859-1"?>
<svg version="1.1" id="&#x56FE;&#x5C42;_1" xmlns="http://www.w3.org/2000/svg" xmlns:xlink="http://www.w3.org/1999/xlink" x="0px"
	 y="0px" viewBox="0 0 24 24" style="enable-background:new 0 0 24 24;" xml:space="preserve">
<path style="fill:#333333;" d="M22,20.66H2l-0.363-1.406l16.27-9l0.363-0.094H22l0.75,0.75v9L22,20.66z M4.905,19.16H21.25v-7.5
	h-2.787L4.905,19.16z"/>
<polygon style="fill:#333333;" points="3.212,11.072 1.596,10.273 2.261,8.928 3.518,9.549 11.482,4.951 11.573,3.552 13.069,3.649 
	12.953,5.448 12.58,6.049 3.92,11.049 "/>
<path style="fill:#333333;" d="M6.165,12.44c0.828,0,1.5-0.672,1.5-1.5c0-0.828-0.672-1.5-1.5-1.5c-0.828,0-1.5,0.672-1.5,1.5
	C4.665,11.768,5.337,12.44,6.165,12.44z"/>
<path style="fill:#333333;" d="M11.725,9.44c0.828,0,1.5-0.672,1.5-1.5c0-0.828-0.672-1.5-1.5-1.5c-0.828,0-1.5,0.672-1.5,1.5
	C10.225,8.768,10.897,9.44,11.725,9.44z"/>
</svg>






