<?xml version="1.0" encoding="iso-8859-1"?>
<svg version="1.1" id="&#x56FE;&#x5C42;_1" xmlns="http://www.w3.org/2000/svg" xmlns:xlink="http://www.w3.org/1999/xlink" x="0px"
	 y="0px" viewBox="0 0 24 24" style="enable-background:new 0 0 24 24;" xml:space="preserve">
<path style="fill:#333333;" d="M12,7.75c-1.792,0-3.25-1.458-3.25-3.25S10.208,1.25,12,1.25s3.25,1.458,3.25,3.25
	S13.792,7.75,12,7.75z M12,2.75c-0.965,0-1.75,0.785-1.75,1.75S11.035,6.25,12,6.25s1.75-0.785,1.75-1.75S12.965,2.75,12,2.75z"/>
<polygon style="fill:#333333;" points="12.768,22.163 11.815,17.876 8.97,15.03 8.782,14.284 10.282,9.285 11.48,8.924 
	14.271,11.25 17,11.25 17,12.75 14,12.75 13.52,12.576 11.392,10.803 10.347,14.286 13.03,16.97 13.232,17.337 14.232,21.837 "/>
<polygon style="fill:#333333;" points="4.98,22.576 4.02,21.424 6.874,19.045 7.804,16.722 9.196,17.278 8.196,19.778 7.98,20.076 
	"/>
<polygon style="fill:#333333;" points="19.5,22.75 2.5,22.75 2.5,21.25 19.114,21.25 21.39,18.064 22.61,18.936 20.11,22.436 "/>
<rect x="16.25" y="12" style="fill:#333333;" width="1.5" height="10"/>
</svg>






