<?xml version="1.0" encoding="iso-8859-1"?>
<svg version="1.1" id="&#x56FE;&#x5C42;_1" xmlns="http://www.w3.org/2000/svg" xmlns:xlink="http://www.w3.org/1999/xlink" x="0px"
	 y="0px" viewBox="0 0 24 24" style="enable-background:new 0 0 24 24;" xml:space="preserve">
<path style="fill:#333333;" d="M19.48,22.75H4.52l1.878-4.644c-2.295-1.772-3.648-4.521-3.648-7.47C2.75,5.46,6.899,1.25,12,1.25
	s9.25,4.21,9.25,9.386c0,2.949-1.353,5.698-3.647,7.47L19.48,22.75z M6.744,21.25h10.512l-1.493-3.689l0.505-0.34
	c2.181-1.467,3.482-3.929,3.482-6.584c0-4.349-3.477-7.886-7.75-7.886s-7.75,3.538-7.75,7.886c0,2.656,1.302,5.118,3.482,6.584
	l0.505,0.34L6.744,21.25z"/>
<rect x="9.25" y="19" style="fill:#333333;" width="1.5" height="3"/>
<rect x="13.25" y="19" style="fill:#333333;" width="1.5" height="3"/>
<path style="fill:#333333;" d="M8.5,12.25c-1.241,0-2.25-1.009-2.25-2.25S7.259,7.75,8.5,7.75s2.25,1.009,2.25,2.25
	S9.741,12.25,8.5,12.25z M8.5,9.25c-0.414,0-0.75,0.336-0.75,0.75s0.336,0.75,0.75,0.75S9.25,10.414,9.25,10S8.914,9.25,8.5,9.25z"
	/>
<path style="fill:#333333;" d="M15.5,12.25c-1.24,0-2.25-1.009-2.25-2.25s1.01-2.25,2.25-2.25s2.25,1.009,2.25,2.25
	S16.74,12.25,15.5,12.25z M15.5,9.25c-0.413,0-0.75,0.336-0.75,0.75s0.337,0.75,0.75,0.75s0.75-0.336,0.75-0.75
	S15.913,9.25,15.5,9.25z"/>
<rect x="12" y="21.25" style="fill:#333333;" width="4" height="1.5"/>
<rect x="8" y="21.25" style="fill:#333333;" width="4" height="1.5"/>
</svg>






