<?xml version="1.0" encoding="iso-8859-1"?>
<svg version="1.1" id="&#x56FE;&#x5C42;_1" xmlns="http://www.w3.org/2000/svg" xmlns:xlink="http://www.w3.org/1999/xlink" x="0px"
	 y="0px" viewBox="0 0 24 24" style="enable-background:new 0 0 24 24;" xml:space="preserve">
<path style="fill:#333333;" d="M19.75,19h-1.5v-3.75h1.5V19z M5.75,19h-1.5V3c0-0.965,0.785-1.75,1.75-1.75h12
	c0.965,0,1.75,0.785,1.75,1.75v0.5h-1.5V3c0-0.138-0.112-0.25-0.25-0.25H6C5.862,2.75,5.75,2.862,5.75,3V19z"/>
<path style="fill:#333333;" d="M12.5,13.25H12c-2.068,0-3.75-1.682-3.75-3.75S9.932,5.75,12,5.75h0.5v1.5H12
	c-1.241,0-2.25,1.009-2.25,2.25s1.009,2.25,2.25,2.25h0.5V13.25z"/>
<path style="fill:#333333;" d="M17,13.25h-0.5v-1.5H17c1.24,0,2.25-1.009,2.25-2.25S18.24,7.25,17,7.25h-0.5v-1.5H17
	c2.067,0,3.75,1.682,3.75,3.75S19.067,13.25,17,13.25z"/>
<rect x="12.5" y="8.75" style="fill:#333333;" width="4" height="1.5"/>
<path style="fill:#333333;" d="M16,22.75H8c-2.068,0-3.75-1.683-3.75-3.75S5.932,15.25,8,15.25h8c2.067,0,3.75,1.683,3.75,3.75
	S18.067,22.75,16,22.75z M8,16.75c-1.241,0-2.25,1.01-2.25,2.25S6.759,21.25,8,21.25h8c1.24,0,2.25-1.01,2.25-2.25
	s-1.01-2.25-2.25-2.25H8z"/>
<circle style="fill:#333333;" cx="16" cy="19" r="1"/>
</svg>






