<?xml version="1.0" encoding="iso-8859-1"?>
<svg version="1.1" id="&#x56FE;&#x5C42;_1" xmlns="http://www.w3.org/2000/svg" xmlns:xlink="http://www.w3.org/1999/xlink" x="0px"
	 y="0px" viewBox="0 0 24 24" style="enable-background:new 0 0 24 24;" xml:space="preserve">
<path style="fill:#333333;" d="M12,21.75c-5.376,0-9.75-4.374-9.75-9.75c0-3.895,2.31-7.409,5.885-8.954l1.011,0.918
	C8.883,4.781,8.75,5.634,8.75,6.5c0,4.549,3.701,8.25,8.25,8.25c1.137,0,2.236-0.227,3.27-0.673l1.012,0.919
	C19.978,19.036,16.248,21.75,12,21.75z M7.337,5.191C5.118,6.71,3.75,9.243,3.75,12c0,4.549,3.701,8.25,8.25,8.25
	c3.055,0,5.792-1.658,7.223-4.254C18.5,16.165,17.757,16.25,17,16.25c-5.376,0-9.75-4.374-9.75-9.75
	C7.25,6.061,7.279,5.624,7.337,5.191z"/>
<polygon style="fill:#333333;" points="20.5,9.75 15.5,9.75 15.031,8.415 18.362,5.75 15.83,5.75 15.83,4.25 20.5,4.25 
	20.969,5.585 17.638,8.25 20.5,8.25 "/>
</svg>






