<?xml version="1.0" encoding="iso-8859-1"?>
<svg version="1.1" id="&#x56FE;&#x5C42;_1" xmlns="http://www.w3.org/2000/svg" xmlns:xlink="http://www.w3.org/1999/xlink" x="0px"
	 y="0px" viewBox="0 0 24 24" style="enable-background:new 0 0 24 24;" xml:space="preserve">
<polygon style="fill:#333333;" points="12.5,12.75 3.5,12.75 2.957,11.483 10.321,3.75 3.5,3.75 3.5,2.25 12.071,2.25 12.614,3.517 
	5.25,11.25 12.5,11.25 "/>
<polygon style="fill:#333333;" points="20.5,15.25 14.5,15.25 13.931,14.012 18.869,8.25 14.5,8.25 14.5,6.75 20.5,6.75 
	21.069,7.988 16.131,13.75 20.5,13.75 "/>
<polygon style="fill:#333333;" points="12.5,21.75 7.5,21.75 6.944,20.497 10.333,16.75 7.5,16.75 7.5,15.25 12.023,15.25 
	12.58,16.503 9.19,20.25 12.5,20.25 "/>
</svg>






