<?xml version="1.0" encoding="iso-8859-1"?>
<svg version="1.1" id="&#x56FE;&#x5C42;_1" xmlns="http://www.w3.org/2000/svg" xmlns:xlink="http://www.w3.org/1999/xlink" x="0px"
	 y="0px" viewBox="0 0 24 24" style="enable-background:new 0 0 24 24;" xml:space="preserve">
<rect x="1.25" y="6" style="fill:#333333;" width="1.5" height="12"/>
<rect x="21.25" y="14.5" style="fill:#333333;" width="1.5" height="3.5"/>
<rect x="2" y="13.75" style="fill:#333333;" width="20" height="1.5"/>
<path style="fill:#333333;" d="M22.75,15.25h-12.5v-8H20.5c1.24,0,2.25,1.009,2.25,2.25V15.25z M11.75,13.75h9.5V9.5
	c0-0.414-0.337-0.75-0.75-0.75h-8.75V13.75z"/>
<path style="fill:#333333;" d="M6.5,12.25c-1.241,0-2.25-1.009-2.25-2.25S5.259,7.75,6.5,7.75S8.75,8.759,8.75,10
	S7.741,12.25,6.5,12.25z M6.5,9.25c-0.414,0-0.75,0.336-0.75,0.75s0.336,0.75,0.75,0.75S7.25,10.414,7.25,10S6.914,9.25,6.5,9.25z"
	/>
</svg>






