<?xml version="1.0" encoding="iso-8859-1"?>
<svg version="1.1" id="&#x56FE;&#x5C42;_1" xmlns="http://www.w3.org/2000/svg" xmlns:xlink="http://www.w3.org/1999/xlink" x="0px"
	 y="0px" viewBox="0 0 24 24" style="enable-background:new 0 0 24 24;" xml:space="preserve">
<path style="fill:#333333;" d="M22.75,18.25H1.25v-4.5h21.5V18.25z M2.75,16.75h18.5v-1.5H2.75V16.75z"/>
<path style="fill:#333333;" d="M15.75,15.25H1.25V14.5c0-0.071,0.019-1.775,1.65-3.95l0,0c2.625-3.499,7.761-4.068,9.707-3.792
	c2.16,0.309,3.144,2.157,3.144,3.743V15.25z M2.897,13.75H14.25V10.5c0-0.74-0.391-2.048-1.856-2.257
	c-1.42-0.206-6.023,0.18-8.293,3.208C3.396,12.389,3.059,13.199,2.897,13.75z"/>
</svg>






