<?xml version="1.0" encoding="iso-8859-1"?>
<svg version="1.1" id="&#x56FE;&#x5C42;_1" xmlns="http://www.w3.org/2000/svg" xmlns:xlink="http://www.w3.org/1999/xlink" x="0px"
	 y="0px" viewBox="0 0 24 24" style="enable-background:new 0 0 24 24;" xml:space="preserve">
<path style="fill:#333333;" d="M12,23.25c-0.523,0-5.114-0.315-5.114-11.25c0-10.934,4.59-11.25,5.114-11.25
	c2.359,0,5.114,2.946,5.114,11.25S14.359,23.25,12,23.25z M12,2.25c-1.005,0-3.614,1.751-3.614,9.75c0,7.998,2.608,9.75,3.614,9.75
	c1.25,0,3.614-2.038,3.614-9.75C15.614,4.288,13.25,2.25,12,2.25z"/>
<path style="fill:#333333;" d="M5.642,19.584c-0.631,0-1.153-0.077-1.582-0.192c-0.982-0.263-1.749-0.803-2.159-1.519
	c-1.177-2.057,0.091-5.996,7.539-10.332c5.564-3.238,8.793-3.367,10.523-2.903c0.977,0.262,1.735,0.791,2.135,1.489
	c0.426,0.744,2.066,4.74-7.54,10.332C10.375,18.895,7.525,19.584,5.642,19.584z M18.338,5.941c-1.546,0-4.125,0.558-8.142,2.896
	c-7.222,4.205-7.496,7.41-6.992,8.29c0.122,0.213,0.445,0.602,1.245,0.815c1.173,0.316,3.946,0.37,9.356-2.78
	c6.964-4.054,7.619-7.195,6.992-8.289c-0.197-0.344-0.642-0.63-1.221-0.785C19.273,6.006,18.865,5.941,18.338,5.941z"/>
<path style="fill:#333333;" d="M18.358,19.584c-1.884,0-4.732-0.688-8.917-3.125c-9.604-5.591-7.965-9.587-7.539-10.332
	C2.302,5.429,3.06,4.9,4.037,4.639c1.729-0.461,4.959-0.336,10.522,2.903c7.449,4.336,8.717,8.276,7.539,10.332
	c-0.409,0.716-1.176,1.255-2.157,1.519C19.512,19.506,18.989,19.584,18.358,19.584z M5.662,5.942c-0.527,0-0.934,0.064-1.237,0.146
	C3.846,6.243,3.4,6.529,3.204,6.873c-0.627,1.095,0.028,4.236,6.992,8.29c5.414,3.15,8.184,3.098,9.356,2.78
	c0.8-0.214,1.123-0.603,1.244-0.814c0.505-0.881,0.231-4.085-6.991-8.291C9.787,6.499,7.208,5.942,5.662,5.942z"/>
</svg>






