<?xml version="1.0" encoding="iso-8859-1"?>
<svg version="1.1" id="&#x56FE;&#x5C42;_1" xmlns="http://www.w3.org/2000/svg" xmlns:xlink="http://www.w3.org/1999/xlink" x="0px"
	 y="0px" viewBox="0 0 24 24" style="enable-background:new 0 0 24 24;" xml:space="preserve">
<rect x="11.25" y="2" style="fill:#333333;" width="1.5" height="20"/>
<rect x="11.273" y="2" transform="matrix(0.5 -0.866 0.866 0.5 -4.3811 16.4117)" style="fill:#333333;" width="1.5" height="20"/>
<rect x="2.023" y="11.25" transform="matrix(0.866 -0.5001 0.5001 0.866 -4.3925 7.6088)" style="fill:#333333;" width="19.955" height="1.5"/>
<polygon style="fill:#333333;" points="3.163,11.232 2.837,9.768 6.525,8.948 5.289,5.237 6.711,4.763 8.475,10.052 "/>
<polygon style="fill:#333333;" points="6.711,19.237 5.289,18.763 6.525,15.052 2.837,14.232 3.163,12.768 8.475,13.948 "/>
<polygon style="fill:#333333;" points="20.837,11.232 15.525,10.052 17.288,4.763 18.712,5.237 17.475,8.948 21.163,9.768 "/>
<polygon style="fill:#333333;" points="17.288,19.237 15.525,13.948 20.837,12.768 21.163,14.232 17.475,15.052 18.712,18.763 "/>
<polygon style="fill:#333333;" points="12,7.561 8.47,4.03 9.53,2.97 12,5.439 14.47,2.97 15.53,4.03 "/>
<polygon style="fill:#333333;" points="14.47,21.03 12,18.561 9.53,21.03 8.47,19.97 12,16.439 15.53,19.97 "/>
</svg>






