<?xml version="1.0" encoding="iso-8859-1"?>
<svg version="1.1" id="&#x56FE;&#x5C42;_1" xmlns="http://www.w3.org/2000/svg" xmlns:xlink="http://www.w3.org/1999/xlink" x="0px"
	 y="0px" viewBox="0 0 24 24" style="enable-background:new 0 0 24 24;" xml:space="preserve">
<path style="fill:#333333;" d="M11,22.75c-4.825,0-8.75-3.477-8.75-7.75S6.175,7.25,11,7.25c4.825,0,8.75,3.477,8.75,7.75
	S15.825,22.75,11,22.75z M11,8.75c-3.998,0-7.25,2.804-7.25,6.25s3.252,6.25,7.25,6.25c3.998,0,7.25-2.804,7.25-6.25
	S14.998,8.75,11,8.75z"/>
<path style="fill:#333333;" d="M14.772,14.682c-0.364-1.455-1.215-1.856-1.865-1.938l0.186-1.488
	c0.735,0.091,2.513,0.573,3.135,3.062L14.772,14.682z"/>
<path style="fill:#333333;" d="M4,6.75C2.483,6.75,1.25,5.517,1.25,4S2.483,1.25,4,1.25S6.75,2.483,6.75,4S5.517,6.75,4,6.75z
	 M4,2.75C3.311,2.75,2.75,3.311,2.75,4S3.311,5.25,4,5.25S5.25,4.689,5.25,4S4.689,2.75,4,2.75z"/>
<path style="fill:#333333;" d="M20.5,8.75c-1.24,0-2.25-1.009-2.25-2.25s1.01-2.25,2.25-2.25s2.25,1.009,2.25,2.25
	S21.74,8.75,20.5,8.75z M20.5,5.75c-0.413,0-0.75,0.336-0.75,0.75s0.337,0.75,0.75,0.75s0.75-0.336,0.75-0.75S20.913,5.75,20.5,5.75
	z"/>
</svg>






