<?xml version="1.0" encoding="iso-8859-1"?>
<svg version="1.1" id="&#x56FE;&#x5C42;_1" xmlns="http://www.w3.org/2000/svg" xmlns:xlink="http://www.w3.org/1999/xlink" x="0px"
	 y="0px" viewBox="0 0 24 24" style="enable-background:new 0 0 24 24;" xml:space="preserve">
<path style="fill:#333333;" d="M15.97,18.03c-0.735-0.735-3.029-3.4-1.666-6.809C15.492,8.25,18.425,8.25,20,8.25v1.5
	c-1.84,0-3.555,0.155-4.304,2.028c-1.022,2.557,0.763,4.62,1.334,5.191L15.97,18.03z"/>
<rect x="9" y="4.25" style="fill:#333333;" width="11" height="1.5"/>
<path style="fill:#333333;" d="M8.408,22.705c-1.363,0-2.737-0.474-3.938-1.675c-1.256-1.256-1.902-2.78-1.867-4.407
	c0.034-1.581,0.723-3.104,1.89-4.176c1.472-1.352,3.113-2.704,3.757-3.229V3c0-0.965,0.785-1.75,1.75-1.75h9
	c0.965,0,1.75,0.785,1.75,1.75v9.144c0,1.941-0.922,3.799-2.465,4.968c-1.858,1.409-4.295,3.246-5.35,3.999
	C11.649,22.029,10.036,22.705,8.408,22.705z M10,2.75C9.863,2.75,9.75,2.862,9.75,3v6.937l-0.281,0.225
	c-0.021,0.017-2.128,1.707-3.961,3.391c-0.868,0.797-1.38,1.928-1.405,3.103c-0.026,1.208,0.468,2.354,1.428,3.314
	c2.546,2.547,5.889,0.38,6.534-0.08c1.095-0.781,3.8-2.825,5.314-3.974c1.172-0.888,1.871-2.298,1.871-3.772V3
	c0-0.138-0.112-0.25-0.25-0.25H10z"/>
</svg>






