<?xml version="1.0" encoding="iso-8859-1"?>
<svg version="1.1" id="&#x56FE;&#x5C42;_1" xmlns="http://www.w3.org/2000/svg" xmlns:xlink="http://www.w3.org/1999/xlink" x="0px"
	 y="0px" viewBox="0 0 24 24" style="enable-background:new 0 0 24 24;" xml:space="preserve">
<path style="fill:#333333;" d="M6.75,18.25h-5.5v-8.5h5.5V18.25z M2.75,16.75h2.5v-5.5h-2.5V16.75z"/>
<path style="fill:#333333;" d="M22.75,18.25h-5.5v-8.5h5.5V18.25z M18.75,16.75h2.5v-5.5h-2.5V16.75z"/>
<path style="fill:#333333;" d="M18.75,18.25H5.25v-5.5h13.5V18.25z M6.75,16.75h10.5v-2.5H6.75V16.75z"/>
<polygon style="fill:#333333;" points="20.75,10 19.25,10 19.25,4.75 4.75,4.75 4.75,10 3.25,10 3.25,3.25 20.75,3.25 "/>
<rect x="3.25" y="18" style="fill:#333333;" width="1.5" height="2"/>
<rect x="19.25" y="18" style="fill:#333333;" width="1.5" height="2"/>
</svg>






