<?xml version="1.0" encoding="iso-8859-1"?>
<svg version="1.1" id="&#x56FE;&#x5C42;_1" xmlns="http://www.w3.org/2000/svg" xmlns:xlink="http://www.w3.org/1999/xlink" x="0px"
	 y="0px" viewBox="0 0 24 24" style="enable-background:new 0 0 24 24;" xml:space="preserve">
<path style="fill:#333333;" d="M22.75,19.75H1.25V8.25h5.5v6.5h10.5v-6.5h5.5V19.75z M2.75,18.25h18.5v-8.5h-2.5v6.5H5.25v-6.5h-2.5
	V18.25z"/>
<path style="fill:#333333;" d="M18.75,16.25H5.25v-14h13.5V16.25z M6.75,14.75h10.5v-11H6.75V14.75z"/>
<path style="fill-rule:evenodd;clip-rule:evenodd;fill:#333333;" d="M5,22c1.105,0,2-0.895,2-2c-0.549,0.002-3.65,0-4,0
	C3,21.105,3.895,22,5,22z"/>
<path style="fill-rule:evenodd;clip-rule:evenodd;fill:#333333;" d="M19,22c1.105,0,2-0.895,2-2c-0.952-0.003-3.569,0-4,0
	C17,21.105,17.895,22,19,22z"/>
</svg>






