<?xml version="1.0" encoding="iso-8859-1"?>
<svg version="1.1" id="&#x56FE;&#x5C42;_1" xmlns="http://www.w3.org/2000/svg" xmlns:xlink="http://www.w3.org/1999/xlink" x="0px"
	 y="0px" viewBox="0 0 24 24" style="enable-background:new 0 0 24 24;" xml:space="preserve">
<path style="fill:#333333;" d="M12,22.75C6.072,22.75,1.25,17.928,1.25,12S6.072,1.25,12,1.25S22.75,6.072,22.75,12
	S17.928,22.75,12,22.75z M12,2.75c-5.101,0-9.25,4.149-9.25,9.25s4.149,9.25,9.25,9.25s9.25-4.149,9.25-9.25S17.101,2.75,12,2.75z"
	/>
<path style="fill:#333333;" d="M5.525,19.535l-1.051-1.07C6.291,16.683,7.25,14.447,7.25,12c0-2.379-0.987-4.677-2.78-6.47
	L5.53,4.47C7.606,6.546,8.75,9.22,8.75,12C8.75,14.859,7.635,17.465,5.525,19.535z"/>
<path style="fill:#333333;" d="M18.475,19.535c-2.109-2.07-3.225-4.676-3.225-7.535c0-2.779,1.144-5.454,3.22-7.53L19.53,5.53
	c-1.793,1.793-2.78,4.091-2.78,6.47c0,2.447,0.96,4.683,2.775,6.465L18.475,19.535z"/>
<rect x="14" y="11.25" style="fill:#333333;" width="4" height="1.5"/>
<rect x="6" y="11.25" style="fill:#333333;" width="4" height="1.5"/>
<rect x="14.823" y="15.5" transform="matrix(0.8947 -0.4467 0.4467 0.8947 -5.5211 9.0818)" style="fill:#333333;" width="3.354" height="1.5"/>
<rect x="15.75" y="6.073" transform="matrix(0.4472 -0.8944 0.8944 0.4472 2.1892 19.0421)" style="fill:#333333;" width="1.5" height="3.354"/>
<rect x="6.75" y="14.573" transform="matrix(0.4472 -0.8944 0.8944 0.4472 -10.3885 15.691)" style="fill:#333333;" width="1.5" height="3.354"/>
<rect x="5.823" y="7" transform="matrix(0.8944 -0.4472 0.4472 0.8944 -2.6741 4.1723)" style="fill:#333333;" width="3.354" height="1.5"/>
</svg>






