<?xml version="1.0" encoding="iso-8859-1"?>
<svg version="1.1" id="&#x56FE;&#x5C42;_1" xmlns="http://www.w3.org/2000/svg" xmlns:xlink="http://www.w3.org/1999/xlink" x="0px"
	 y="0px" viewBox="0 0 24 24" style="enable-background:new 0 0 24 24;" xml:space="preserve">
<path style="fill:#333333;" d="M8,21.75H4.25v-7.5H8c2.068,0,3.75,1.683,3.75,3.75S10.068,21.75,8,21.75z M5.75,20.25H8
	c1.241,0,2.25-1.01,2.25-2.25S9.241,15.75,8,15.75H5.75V20.25z"/>
<rect x="4.25" y="14" style="fill:#333333;" width="1.5" height="8"/>
<rect x="2" y="15.25" style="fill:#333333;" width="3" height="1.5"/>
<rect x="2" y="18.25" style="fill:#333333;" width="3" height="1.5"/>
<path style="fill:#333333;" d="M15,18.75h-4v-1.5h4c0.138,0,0.25-0.112,0.25-0.25v-5.5h1.5V17C16.75,17.965,15.965,18.75,15,18.75z"
	/>
<rect x="15.25" y="2" style="fill:#333333;" width="1.5" height="3.5"/>
<rect x="11.75" y="3.5" transform="matrix(0.7071 -0.7071 0.7071 0.7071 0.1256 10.3033)" style="fill:#333333;" width="1.5" height="3"/>
<rect x="11" y="10.75" transform="matrix(0.7071 -0.7071 0.7071 0.7071 -4.4706 12.2071)" style="fill:#333333;" width="3" height="1.5"/>
<rect x="18" y="4.25" transform="matrix(0.7071 -0.7071 0.7071 0.7071 2.1759 15.253)" style="fill:#333333;" width="3" height="1.5"/>
<rect x="18.75" y="10" transform="matrix(0.7071 -0.7071 0.7071 0.7071 -2.4203 17.1569)" style="fill:#333333;" width="1.5" height="3"/>
<path style="fill:#333333;" d="M16,12.25c-2.067,0-3.75-1.682-3.75-3.75S13.933,4.75,16,4.75s3.75,1.682,3.75,3.75
	S18.067,12.25,16,12.25z M16,6.25c-1.24,0-2.25,1.009-2.25,2.25s1.01,2.25,2.25,2.25s2.25-1.009,2.25-2.25S17.24,6.25,16,6.25z"/>
<rect x="10" y="7.75" style="fill:#333333;" width="3" height="1.5"/>
<rect x="19" y="7.75" style="fill:#333333;" width="3" height="1.5"/>
</svg>






