<?xml version="1.0" encoding="iso-8859-1"?>
<svg version="1.1" id="&#x56FE;&#x5C42;_1" xmlns="http://www.w3.org/2000/svg" xmlns:xlink="http://www.w3.org/1999/xlink" x="0px"
	 y="0px" viewBox="0 0 24 24" style="enable-background:new 0 0 24 24;" xml:space="preserve">
<path style="fill:#333333;" d="M21,16.75H3c-0.965,0-1.75-0.785-1.75-1.75V5c0-0.965,0.785-1.75,1.75-1.75h18
	c0.965,0,1.75,0.785,1.75,1.75v10C22.75,15.965,21.965,16.75,21,16.75z M3,4.75C2.862,4.75,2.75,4.862,2.75,5v10
	c0,0.138,0.112,0.25,0.25,0.25h18c0.138,0,0.25-0.112,0.25-0.25V5c0-0.138-0.112-0.25-0.25-0.25H3z"/>
<rect x="14.25" y="4" style="fill:#333333;" width="1.5" height="12"/>
<rect x="8.25" y="4" style="fill:#333333;" width="1.5" height="12"/>
<rect x="3" y="9.25" style="fill:#333333;" width="18" height="1.5"/>
<rect x="11.25" y="16" style="fill:#333333;" width="1.5" height="4.5"/>
<rect x="8.5" y="19.75" style="fill:#333333;" width="7" height="1.5"/>
</svg>






