<?xml version="1.0" encoding="iso-8859-1"?>
<svg version="1.1" id="&#x56FE;&#x5C42;_1" xmlns="http://www.w3.org/2000/svg" xmlns:xlink="http://www.w3.org/1999/xlink" x="0px"
	 y="0px" viewBox="0 0 24 24" style="enable-background:new 0 0 24 24;" xml:space="preserve">
<path style="fill:#333333;" d="M12,20.75c-1.795,0-10.75-0.133-10.75-2.75c0-0.748,0.496-1.794,4.656-2.38l2.296-8.54L6.829,4.335
	l0.908-1.047L14.071,5.4l3.967,10.212C22.25,16.196,22.75,17.249,22.75,18C22.75,20.617,13.795,20.75,12,20.75z M2.873,17.985
	C3.651,18.48,6.758,19.25,12,19.25s8.349-0.77,9.127-1.265c-0.366-0.24-1.407-0.658-3.719-0.943l-0.445-0.055L12.929,6.6L8.98,5.284
	l0.818,1.635L7.093,16.98l-0.501,0.062C4.281,17.327,3.239,17.745,2.873,17.985z"/>
</svg>






