<?xml version="1.0" encoding="iso-8859-1"?>
<svg version="1.1" id="&#x56FE;&#x5C42;_1" xmlns="http://www.w3.org/2000/svg" xmlns:xlink="http://www.w3.org/1999/xlink" x="0px"
	 y="0px" viewBox="0 0 24 24" style="enable-background:new 0 0 24 24;" xml:space="preserve">
<path style="fill:#333333;" d="M18,22.75H6c-1.241,0-2.25-1.01-2.25-2.25v-17c0-1.241,1.009-2.25,2.25-2.25h12
	c1.24,0,2.25,1.009,2.25,2.25v17C20.25,21.74,19.24,22.75,18,22.75z M6,2.75c-0.414,0-0.75,0.336-0.75,0.75v17
	c0,0.413,0.336,0.75,0.75,0.75h12c0.413,0,0.75-0.337,0.75-0.75v-17c0-0.414-0.337-0.75-0.75-0.75H6z"/>
<path style="fill:#333333;" d="M12,15.25c-2.343,0-4.25-1.906-4.25-4.25c0-2.343,1.907-4.25,4.25-4.25c2.344,0,4.25,1.907,4.25,4.25
	C16.25,13.344,14.344,15.25,12,15.25z M12,8.25c-1.517,0-2.75,1.233-2.75,2.75s1.233,2.75,2.75,2.75s2.75-1.233,2.75-2.75
	S13.517,8.25,12,8.25z"/>
<path style="fill:#333333;" d="M16,4L16,4c0.552,0,1,0.448,1,1l0,0c0,0.552-0.448,1-1,1l0,0c-0.552,0-1-0.448-1-1l0,0
	C15,4.448,15.448,4,16,4z"/>
<rect x="13.5" y="17.25" style="fill:#333333;" width="1" height="1.5"/>
<rect x="9.5" y="17.25" style="fill:#333333;" width="1" height="1.5"/>
</svg>






