<?xml version="1.0" encoding="iso-8859-1"?>
<svg version="1.1" id="&#x56FE;&#x5C42;_1" xmlns="http://www.w3.org/2000/svg" xmlns:xlink="http://www.w3.org/1999/xlink" x="0px"
	 y="0px" viewBox="0 0 24 24" style="enable-background:new 0 0 24 24;" xml:space="preserve">
<path style="fill:#333333;" d="M11.5,20.75h-8c-1.241,0-2.25-1.01-2.25-2.25v-13c0-1.241,1.009-2.25,2.25-2.25h17
	c1.24,0,2.25,1.009,2.25,2.25v7.441h-1.5V5.5c0-0.414-0.337-0.75-0.75-0.75h-17c-0.414,0-0.75,0.336-0.75,0.75v13
	c0,0.413,0.336,0.75,0.75,0.75h8V20.75z"/>
<path style="fill:#333333;" d="M22.75,10.75H1.25V5.5c0-1.241,1.009-2.25,2.25-2.25h17c1.24,0,2.25,1.009,2.25,2.25V10.75z
	 M2.75,9.25h18.5V5.5c0-0.414-0.337-0.75-0.75-0.75h-17c-0.414,0-0.75,0.336-0.75,0.75V9.25z"/>
<polygon style="fill:#333333;" points="16.47,21.03 13.939,18.5 16.47,15.97 17.53,17.03 16.061,18.5 17.53,19.97 "/>
<polygon style="fill:#333333;" points="20.53,21.03 19.47,19.97 20.939,18.5 19.47,17.03 20.53,15.97 23.061,18.5 "/>
<circle style="fill:#333333;" cx="5" cy="7" r="1"/>
<circle style="fill:#333333;" cx="8" cy="7" r="1"/>
</svg>






