<?xml version="1.0" encoding="iso-8859-1"?>
<svg version="1.1" id="&#x56FE;&#x5C42;_1" xmlns="http://www.w3.org/2000/svg" xmlns:xlink="http://www.w3.org/1999/xlink" x="0px"
	 y="0px" viewBox="0 0 24 24" style="enable-background:new 0 0 24 24;" xml:space="preserve">
<path style="fill:#333333;" d="M18.198,21.75H5.802c-0.827,0-1.529-0.563-1.708-1.371L2.539,13.38
	c-0.116-0.521,0.009-1.059,0.343-1.475c0.334-0.416,0.831-0.655,1.365-0.655h15.506c0.534,0,1.031,0.239,1.365,0.655
	c0.334,0.417,0.459,0.954,0.344,1.475l-1.556,7C19.728,21.187,19.024,21.75,18.198,21.75z M4.002,13.054l1.556,7
	c0.026,0.116,0.126,0.196,0.244,0.196h12.396c0.118,0,0.218-0.08,0.243-0.195l1.556-7.001c0.022-0.102-0.021-0.175-0.049-0.21
	s-0.091-0.094-0.195-0.094H4.247c-0.104,0-0.167,0.059-0.195,0.094S3.98,12.952,4.002,13.054L4.002,13.054z"/>
<path style="fill:#333333;" d="M11.887,8.75c-0.942,0-1.858-0.621-2.334-1.583C9.092,6.238,9.156,5.237,9.725,4.49l0,0
	c0.664-0.872,1.189-2.115,1.472-2.783l1.294-0.154c0.549,0.742,1.724,2.577,2.11,3.594c0.284,0.748,0.161,1.591-0.338,2.315
	C13.716,8.257,12.806,8.75,11.887,8.75z M10.918,5.398c-0.319,0.419-0.097,0.95-0.021,1.103c0.219,0.44,0.626,0.749,0.991,0.749
	c0.432,0,0.87-0.245,1.14-0.638c0.215-0.312,0.277-0.651,0.171-0.931c-0.195-0.514-0.695-1.385-1.177-2.144
	C11.725,4.15,11.354,4.827,10.918,5.398L10.918,5.398z"/>
<rect x="11.25" y="8" style="fill:#333333;" width="1.5" height="4"/>
</svg>






