<?xml version="1.0" encoding="iso-8859-1"?>
<svg version="1.1" id="&#x56FE;&#x5C42;_1" xmlns="http://www.w3.org/2000/svg" xmlns:xlink="http://www.w3.org/1999/xlink" x="0px"
	 y="0px" viewBox="0 0 24 24" style="enable-background:new 0 0 24 24;" xml:space="preserve">
<path style="fill:#333333;" d="M21.75,21.5h-1.5V3c0-0.138-0.112-0.25-0.25-0.25h-3.5c-0.138,0-0.25,0.112-0.25,0.25v9h-1.5V3
	c0-0.965,0.785-1.75,1.75-1.75H20c0.965,0,1.75,0.785,1.75,1.75V21.5z"/>
<path style="fill:#333333;" d="M21.75,22.75H2.25V20c0-5.376,4.374-9.75,9.75-9.75s9.75,4.374,9.75,9.75V22.75z M3.75,21.25h16.5V20
	c0-4.549-3.701-8.25-8.25-8.25S3.75,15.451,3.75,20V21.25z"/>
<rect x="3.25" y="4" style="fill:#333333;" width="1.5" height="11.5"/>
<rect x="7.25" y="7" style="fill:#333333;" width="1.5" height="5"/>
<rect x="15.5" y="6.25" style="fill:#333333;" width="5.5" height="1.5"/>
<path style="fill:#333333;" d="M16.25,21h-1.5v-1.5c0-4.802-1.602-7.75-2.75-7.75s-2.75,2.948-2.75,7.75V21h-1.5v-1.5
	c0-4.484,1.49-9.25,4.25-9.25c2.761,0,4.25,4.766,4.25,9.25V21z"/>
<rect x="2" y="21.25" style="fill:#333333;" width="20" height="1.5"/>
<path style="fill:#333333;" d="M20.428,18.246C20.377,18.241,15.25,17.75,12,17.75c-3.251,0-8.376,0.491-8.428,0.496l-0.145-1.492
	C3.641,16.733,8.677,16.25,12,16.25s8.359,0.483,8.572,0.504L20.428,18.246z"/>
</svg>






