<?xml version="1.0" encoding="iso-8859-1"?>
<svg version="1.1" id="&#x56FE;&#x5C42;_1" xmlns="http://www.w3.org/2000/svg" xmlns:xlink="http://www.w3.org/1999/xlink" x="0px"
	 y="0px" viewBox="0 0 24 24" style="enable-background:new 0 0 24 24;" xml:space="preserve">
<path style="fill:#333333;" d="M4.864,22.248c-0.797,0-1.594-0.301-2.2-0.903C2.075,20.76,1.75,19.981,1.75,19.153
	s0.325-1.606,0.914-2.191l5.931-5.889c-0.268-0.748-0.403-1.532-0.403-2.338c0-3.851,3.153-6.984,7.029-6.984
	c1.074,0,2.105,0.235,3.065,0.697l0.955,0.461l-2.354,2.337c-0.304,0.301-0.471,0.702-0.471,1.127s0.167,0.827,0.471,1.128
	c0.631,0.626,1.656,0.626,2.287,0l2.26-2.243l0.4,1.103c0.276,0.76,0.416,1.559,0.416,2.374c0,3.852-3.153,6.984-7.029,6.984
	c-0.737,0-1.46-0.112-2.154-0.335l-6.003,5.961C6.457,21.947,5.66,22.248,4.864,22.248z M15.221,3.25
	c-3.049,0-5.529,2.46-5.529,5.484c0,0.772,0.158,1.517,0.469,2.215l0.211,0.473l-6.651,6.604c-0.304,0.302-0.471,0.701-0.471,1.127
	s0.167,0.825,0.471,1.127c0.63,0.625,1.655,0.627,2.286,0l6.688-6.641l0.457,0.183c0.658,0.263,1.354,0.396,2.068,0.396
	c3.049,0,5.529-2.46,5.529-5.484c0-0.217-0.013-0.434-0.038-0.647L20.23,8.565c-1.213,1.204-3.186,1.204-4.4,0
	c-0.59-0.585-0.914-1.364-0.914-2.193c0-0.828,0.325-1.606,0.914-2.191l0.767-0.761C16.151,3.307,15.691,3.25,15.221,3.25z"/>
</svg>






