<?xml version="1.0" encoding="iso-8859-1"?>
<svg version="1.1" id="&#x56FE;&#x5C42;_1" xmlns="http://www.w3.org/2000/svg" xmlns:xlink="http://www.w3.org/1999/xlink" x="0px"
	 y="0px" viewBox="0 0 24 24" style="enable-background:new 0 0 24 24;" xml:space="preserve">
<path style="fill:#333333;" d="M12,22.75C6.072,22.75,1.25,17.928,1.25,12S6.072,1.25,12,1.25c1.895,0,3.758,0.5,5.388,1.446
	l-0.752,1.298C15.233,3.18,13.631,2.75,12,2.75c-5.101,0-9.25,4.149-9.25,9.25s4.149,9.25,9.25,9.25s9.25-4.149,9.25-9.25
	c0-1.62-0.424-3.213-1.227-4.606l1.299-0.749C22.257,8.266,22.75,10.117,22.75,12C22.75,17.928,17.928,22.75,12,22.75z"/>
<path style="fill:#333333;" d="M12.086,14.663c-0.705,0-1.409-0.269-1.945-0.805c-0.519-0.519-0.805-1.209-0.805-1.944
	s0.286-1.425,0.805-1.945c0.832-0.832,4.474-2.236,5.571-2.646l0.965,0.965c-0.41,1.097-1.814,4.74-2.646,5.57
	C13.494,14.395,12.79,14.663,12.086,14.663z M14.649,9.351c-1.626,0.665-3.138,1.37-3.448,1.68c-0.236,0.236-0.366,0.55-0.366,0.884
	c0,0.333,0.13,0.647,0.366,0.883c0.487,0.486,1.28,0.488,1.768,0C13.28,12.487,13.984,10.977,14.649,9.351z"/>
</svg>






