<?xml version="1.0" encoding="iso-8859-1"?>
<svg version="1.1" id="&#x56FE;&#x5C42;_1" xmlns="http://www.w3.org/2000/svg" xmlns:xlink="http://www.w3.org/1999/xlink" x="0px"
	 y="0px" viewBox="0 0 24 24" style="enable-background:new 0 0 24 24;" xml:space="preserve">
<path style="fill:#333333;" d="M11.328,16.095c-0.688,0-1.377-0.257-1.91-0.771c-1.09-1.053-1.121-2.797-0.068-3.888
	c0.817-0.846,4.435-2.314,5.523-2.744l0.982,0.948c-0.392,1.104-1.732,4.771-2.55,5.616C12.768,15.813,12.048,16.095,11.328,16.095z
	 M13.847,10.737c-1.614,0.694-3.113,1.425-3.418,1.74c-0.479,0.495-0.465,1.288,0.031,1.768c0.496,0.478,1.288,0.467,1.768-0.031
	C12.532,13.898,13.21,12.375,13.847,10.737z"/>
<path style="fill:#333333;" d="M19.955,19.955l-1.061-1.061c1.842-1.842,2.855-4.29,2.855-6.895c0-5.376-4.374-9.75-9.75-9.75
	S2.25,6.624,2.25,12c0,2.604,1.014,5.053,2.855,6.895l-1.061,1.061C1.92,17.83,0.75,15.005,0.75,12C0.75,5.797,5.797,0.75,12,0.75
	S23.25,5.797,23.25,12C23.25,15.005,22.08,17.83,19.955,19.955z"/>
<rect x="11.25" y="2" style="fill:#333333;" width="1.5" height="2"/>
<rect x="17.645" y="5.451" transform="matrix(0.7774 -0.629 0.629 0.7774 0.2501 13.1076)" style="fill:#333333;" width="2" height="1.5"/>
<rect x="19.537" y="12.391" transform="matrix(0.2251 -0.9743 0.9743 0.2251 2.6719 30.1419)" style="fill:#333333;" width="1.5" height="2"/>
<rect x="2.713" y="12.641" transform="matrix(0.9743 -0.2253 0.2253 0.9743 -2.922 1.1811)" style="fill:#333333;" width="2" height="1.5"/>
<rect x="4.604" y="5.2" transform="matrix(0.6293 -0.7772 0.7772 0.6293 -2.8336 6.4601)" style="fill:#333333;" width="1.5" height="2"/>
</svg>






