<?xml version="1.0" encoding="iso-8859-1"?>
<svg version="1.1" id="&#x56FE;&#x5C42;_1" xmlns="http://www.w3.org/2000/svg" xmlns:xlink="http://www.w3.org/1999/xlink" x="0px"
	 y="0px" viewBox="0 0 24 24" style="enable-background:new 0 0 24 24;" xml:space="preserve">
<g>
	<defs>
		<rect id="SVGID_1_" width="24" height="24"/>
	</defs>
	<clipPath id="SVGID_00000147206782998318112350000006351462922608717461_">
		<use xlink:href="#SVGID_1_"  style="overflow:visible;"/>
	</clipPath>
	<g style="clip-path:url(#SVGID_00000147206782998318112350000006351462922608717461_);">
		<path style="fill:#333333;" d="M12.503,15.372c-0.625,0-1.315-0.25-2.01-0.735c-0.375-0.263-0.628-0.571-0.873-0.869
			c-0.262-0.319-0.509-0.62-0.932-0.916l0,0c-0.375-0.263-0.606-0.312-0.874-0.371c-0.338-0.073-0.758-0.164-1.25-0.601
			c-0.724-0.643-1.134-1.171-1.228-2.125C5.248,8.84,6.038,7.52,7.627,5.25c2.208-3.154,6.724-4.785,8.946-3.228
			c1.094,0.765,1.71,2.328,1.69,4.289c-0.019,1.873-0.615,3.783-1.636,5.241c-0.174,0.248-0.342,0.498-0.508,0.743
			c-0.857,1.269-1.667,2.467-2.836,2.932C13.04,15.323,12.778,15.372,12.503,15.372z M9.549,11.623
			c0.591,0.414,0.946,0.846,1.23,1.192c0.206,0.251,0.369,0.448,0.574,0.593c0.546,0.383,1.073,0.543,1.377,0.424
			c0.739-0.293,1.423-1.306,2.146-2.377c0.171-0.252,0.344-0.508,0.522-0.764c0.839-1.198,1.349-2.841,1.364-4.395
			c0.014-1.416-0.389-2.582-1.05-3.045C14.32,2.277,10.676,3.513,8.856,6.11C8.351,6.833,6.812,9.03,6.83,9.613
			c0.039,0.394,0.112,0.597,0.73,1.145c0.198,0.176,0.307,0.2,0.572,0.257C8.468,11.088,8.927,11.188,9.549,11.623L9.549,11.623z"/>
		<path style="fill:#333333;" d="M7.513,16.856c-0.77,0-1.389-0.293-1.866-0.664c-0.671-0.521-1.044-1.163-1.108-1.906
			c-0.093-1.071,0.468-2.26,1.715-3.632l1.11,1.009c-1.167,1.285-1.368,2.065-1.331,2.494c0.017,0.2,0.092,0.507,0.535,0.852
			c0.352,0.273,1.425,1.108,3.911-1.43l1.072,1.049C9.913,16.301,8.571,16.856,7.513,16.856z"/>
		<path style="fill:#333333;" d="M8.32,22.763c-0.093,0-0.188-0.003-0.281-0.009c-1.374-0.086-2.612-0.81-3.397-1.986
			c-0.819-1.225-1.323-3.201,0.924-5.66l1.107,1.012c-1.726,1.889-1.274,3.082-0.784,3.815c0.531,0.795,1.328,1.265,2.244,1.322
			c0.908,0.05,1.794-0.302,2.363-0.957c0.198-0.229,0.42-0.504,0.665-0.808c1.648-2.044,4.13-5.135,7.137-4.286
			c2.028,0.577,2.676,2.11,2.615,3.248c-0.07,1.315-0.985,2.382-2.225,2.595l-0.254-1.479c0.636-0.109,0.954-0.696,0.98-1.196
			c0.043-0.796-0.528-1.44-1.527-1.725c-2.04-0.58-4.158,2.046-5.559,3.784c-0.258,0.319-0.492,0.609-0.7,0.849
			C10.815,22.221,9.595,22.763,8.32,22.763z"/>
	</g>
</g>
</svg>






