<?xml version="1.0" encoding="iso-8859-1"?>
<svg version="1.1" id="&#x56FE;&#x5C42;_1" xmlns="http://www.w3.org/2000/svg" xmlns:xlink="http://www.w3.org/1999/xlink" x="0px"
	 y="0px" viewBox="0 0 24 24" style="enable-background:new 0 0 24 24;" xml:space="preserve">
<path style="fill:#333333;" d="M12.231,23.062c-2.377,0.001-4.576-1.642-5.205-2.271c-0.223-0.223-0.436-0.475-0.631-0.746
	c-0.419-0.584-0.373-1.365,0.112-1.9c0.021-0.022,0.041-0.045,0.062-0.066c-0.133-0.039-0.261-0.096-0.379-0.17
	c-0.411-0.257-0.668-0.685-0.706-1.174c-0.08-1.041,0.01-3.043,1.508-4.755c0.614-0.702,1.251-1.262,1.896-1.667l0.798,1.271
	c-0.521,0.327-1.047,0.792-1.565,1.384c-1.137,1.3-1.203,2.847-1.141,3.653c0.497-0.149,0.82-0.308,1.026-0.444
	c0.308-0.206,0.322-0.311,0.382-0.749c0.033-0.241,0.073-0.542,0.188-0.884c0.427-1.28,1.99-2.021,3.49-1.644
	c1.374,0.344,2.298,1.447,2.298,2.746c0,1.377-0.711,2.498-1.901,2.999c-1.094,0.462-1.836,0.244-2.623,0.011
	C9.558,18.572,9.24,18.478,8.852,18.4c-0.289-0.057-0.759,0.23-1.233,0.752c0.143,0.223,0.302,0.411,0.468,0.577
	c0.419,0.421,2.544,2.061,4.569,1.807c1.932-0.241,3.779-1.684,4.596-3.59c0.758-1.769,0.213-4.131-1.24-5.377l0.977-1.139
	c1.954,1.675,2.66,4.731,1.643,7.107c-1.02,2.379-3.346,4.183-5.789,4.487C12.638,23.05,12.434,23.062,12.231,23.062z M9.357,16.975
	c0.345,0.077,0.64,0.163,0.907,0.242c0.717,0.21,1.013,0.299,1.616,0.045c0.855-0.359,0.983-1.167,0.983-1.616
	c0-0.483-0.306-1.077-1.162-1.291c-0.788-0.198-1.545,0.188-1.703,0.663c-0.069,0.208-0.096,0.404-0.124,0.611
	C9.82,16.034,9.754,16.515,9.357,16.975z"/>
<path style="fill:#333333;" d="M15.829,12.335l-4.786-9.579c-0.38,0.324-0.314,0.614-0.29,0.722c0.255,1.125,1.761,6.32,2.422,7.698
	l-1.352,0.649c-0.764-1.59-2.295-6.965-2.533-8.016c-0.231-1.017,0.239-1.947,1.29-2.55c0.279-0.16,0.604-0.198,0.914-0.104
	c0.32,0.097,0.589,0.326,0.742,0.63l4.936,9.88L15.829,12.335z"/>
<path style="fill:#333333;" d="M9.453,12.013c-1.155-1.233-2.701-3.424-3.3-4.452C5.624,6.653,5.799,5.619,6.634,4.724
	C6.847,4.496,7.137,4.365,7.45,4.355c0.322-0.003,0.643,0.114,0.881,0.34l3.435,3.26l-1.032,1.088L7.527,6.001
	c-0.291,0.44-0.136,0.707-0.079,0.804c0.563,0.967,2.015,3.025,3.099,4.182L9.453,12.013z"/>
</svg>






