<?xml version="1.0" encoding="iso-8859-1"?>
<svg version="1.1" id="&#x56FE;&#x5C42;_1" xmlns="http://www.w3.org/2000/svg" xmlns:xlink="http://www.w3.org/1999/xlink" x="0px"
	 y="0px" viewBox="0 0 24 24" style="enable-background:new 0 0 24 24;" xml:space="preserve">
<path style="fill:#333333;" d="M22,7.75h-8L13.25,7V3L14,2.25h8L22.75,3v4L22,7.75z M14.75,6.25h6.5v-2.5h-6.5V6.25z"/>
<path style="fill:#333333;" d="M21,19.75H4c-1.517,0-2.75-1.233-2.75-2.75v-3c0-2.619,2.131-4.75,4.75-4.75h7.25V7L14,6.25h8
	L22.75,7v11C22.75,18.965,21.965,19.75,21,19.75z M6,10.75c-1.792,0-3.25,1.458-3.25,3.25v3c0,0.689,0.561,1.25,1.25,1.25h17
	c0.141,0,0.25-0.109,0.25-0.25V7.75h-6.5V10L14,10.75H6z"/>
<rect x="6.25" y="10" style="fill:#333333;" width="1.5" height="3"/>
<rect x="9.75" y="10" style="fill:#333333;" width="1.5" height="3"/>
<rect x="6.75" y="19" style="fill:#333333;" width="1.5" height="2"/>
<rect x="3.25" y="19" style="fill:#333333;" width="1.5" height="2"/>
<rect x="10.25" y="19" style="fill:#333333;" width="1.5" height="2"/>
<rect x="16.25" y="19" style="fill:#333333;" width="1.5" height="2"/>
<rect x="19.75" y="19" style="fill:#333333;" width="1.5" height="2"/>
<rect x="6" y="9.25" style="fill:#333333;" width="5.5" height="1.5"/>
</svg>






