<?xml version="1.0" encoding="iso-8859-1"?>
<svg version="1.1" id="&#x56FE;&#x5C42;_1" xmlns="http://www.w3.org/2000/svg" xmlns:xlink="http://www.w3.org/1999/xlink" x="0px"
	 y="0px" viewBox="0 0 24 24" style="enable-background:new 0 0 24 24;" xml:space="preserve">
<path style="fill:#333333;" d="M19.25,22h-1.5v-7c0-1.792-1.458-3.25-3.25-3.25h-8v-1.5h8c2.619,0,4.75,2.131,4.75,4.75V22z"/>
<path style="fill:#333333;" d="M6.5,7.722c-1.792,0-3.25-1.458-3.25-3.25s1.458-3.25,3.25-3.25s3.25,1.458,3.25,3.25
	S8.292,7.722,6.5,7.722z M6.5,2.722c-0.965,0-1.75,0.785-1.75,1.75s0.785,1.75,1.75,1.75s1.75-0.785,1.75-1.75
	S7.465,2.722,6.5,2.722z"/>
<rect x="5.75" y="7" style="fill:#333333;" width="1.5" height="14.5"/>
<polygon style="fill:#333333;" points="6.5,23.061 3.47,20.03 4.53,18.97 6.5,20.939 8.47,18.97 9.53,20.03 "/>
<polygon style="fill:#333333;" points="18.5,23.061 15.47,20.03 16.53,18.97 18.5,20.939 20.47,18.97 21.53,20.03 "/>
</svg>






