<?xml version="1.0" encoding="iso-8859-1"?>
<svg version="1.1" id="&#x56FE;&#x5C42;_1" xmlns="http://www.w3.org/2000/svg" xmlns:xlink="http://www.w3.org/1999/xlink" x="0px"
	 y="0px" viewBox="0 0 24 24" style="enable-background:new 0 0 24 24;" xml:space="preserve">
<path style="fill:#333333;" d="M9.5,22.75h-7c-0.689,0-1.25-0.561-1.25-1.25V17h1.5v4.25h6.5V2.75h-6.5V7h-1.5V2.5
	c0-0.689,0.561-1.25,1.25-1.25h7c0.689,0,1.25,0.561,1.25,1.25v19C10.75,22.189,10.189,22.75,9.5,22.75z"/>
<path style="fill:#333333;" d="M21.5,22.75h-7c-0.689,0-1.25-0.561-1.25-1.25v-19c0-0.689,0.561-1.25,1.25-1.25h7
	c0.689,0,1.25,0.561,1.25,1.25V7h-1.5V2.75h-6.5v18.5h6.5V17h1.5v4.5C22.75,22.189,22.189,22.75,21.5,22.75z"/>
<rect x="14" y="11.253" style="fill:#333333;" width="8" height="1.5"/>
<rect x="2" y="11.253" style="fill:#333333;" width="8" height="1.5"/>
<polygon style="fill:#333333;" points="20.144,14.919 19.083,13.858 20.939,12.003 19.083,10.146 20.144,9.085 23.061,12.003 "/>
<polygon style="fill:#333333;" points="3.847,14.923 0.931,12.007 3.847,9.09 4.908,10.15 3.052,12.007 4.908,13.862 "/>
</svg>






