<?xml version="1.0" encoding="iso-8859-1"?>
<svg version="1.1" id="&#x56FE;&#x5C42;_1" xmlns="http://www.w3.org/2000/svg" xmlns:xlink="http://www.w3.org/1999/xlink" x="0px"
	 y="0px" viewBox="0 0 24 24" style="enable-background:new 0 0 24 24;" xml:space="preserve">
<path style="fill:#333333;" d="M12,6.75c-1.517,0-2.75-1.233-2.75-2.75S10.483,1.25,12,1.25S14.75,2.483,14.75,4
	S13.517,6.75,12,6.75z M12,2.75c-0.689,0-1.25,0.561-1.25,1.25S11.311,5.25,12,5.25S13.25,4.689,13.25,4S12.689,2.75,12,2.75z"/>
<polygon style="fill:#333333;" points="10.25,17 8.75,17 8.75,9.75 3.5,9.75 3.5,8.25 10.25,8.25 "/>
<polygon style="fill:#333333;" points="15.25,22 13.75,22 13.75,8.25 20.5,8.25 20.5,9.75 15.25,9.75 "/>
</svg>






