<?xml version="1.0" encoding="iso-8859-1"?>
<svg version="1.1" id="&#x56FE;&#x5C42;_1" xmlns="http://www.w3.org/2000/svg" xmlns:xlink="http://www.w3.org/1999/xlink" x="0px"
	 y="0px" viewBox="0 0 24 24" style="enable-background:new 0 0 24 24;" xml:space="preserve">
<path style="fill:#333333;" d="M17,18.75H7c-0.965,0-1.75-0.785-1.75-1.75V7c0-0.965,0.785-1.75,1.75-1.75h10
	c0.965,0,1.75,0.785,1.75,1.75v10C18.75,17.965,17.965,18.75,17,18.75z M7,6.75C6.862,6.75,6.75,6.862,6.75,7v10
	c0,0.138,0.112,0.25,0.25,0.25h10c0.138,0,0.25-0.112,0.25-0.25V7c0-0.138-0.112-0.25-0.25-0.25H7z"/>
</svg>






