<?xml version="1.0" encoding="iso-8859-1"?>
<svg version="1.1" id="&#x56FE;&#x5C42;_1" xmlns="http://www.w3.org/2000/svg" xmlns:xlink="http://www.w3.org/1999/xlink" x="0px"
	 y="0px" viewBox="0 0 24 24" style="enable-background:new 0 0 24 24;" xml:space="preserve">
<path style="fill:#333333;" d="M19.67,22.49l-1.97-1.478l-1.9,1.425L13.9,21.013L12,22.438l-1.9-1.425l-1.9,1.425l-1.9-1.425
	L4.33,22.49l-2.82-2.82l1.478-1.97l-1.425-1.9L2.987,13.9L1.562,12l1.425-1.9L1.562,8.2l1.425-1.9L1.51,4.33l2.82-2.82L6.3,2.987
	l1.9-1.425l1.9,1.425L12,1.562l1.9,1.425L15.8,1.562l1.9,1.425l1.97-1.478l2.82,2.82L21.013,6.3l1.425,1.9l-1.425,1.9l1.425,1.9
	l-1.425,1.9l1.425,1.899l-1.425,1.9l1.478,1.97L19.67,22.49z M10.1,19.138l1.9,1.425l1.9-1.425l1.899,1.425l1.9-1.425l1.829,1.372
	l0.98-0.98L19.138,17.7l1.425-1.9L19.138,13.9l1.425-1.9l-1.425-1.9l1.425-1.9l-1.425-1.9l1.372-1.83l-0.98-0.98L17.7,4.862
	l-1.9-1.425L13.9,4.862L12,3.438l-1.9,1.425L8.2,3.438L6.3,4.862L4.47,3.49L3.49,4.47L4.862,6.3L3.438,8.2l1.425,1.9L3.438,12
	l1.425,1.9L3.438,15.8l1.425,1.9L3.49,19.529l0.98,0.98l1.83-1.372l1.9,1.425L10.1,19.138z"/>
<path style="fill:#333333;" d="M12,17.25c-2.895,0-5.25-2.355-5.25-5.25c0-2.895,2.355-5.25,5.25-5.25c2.895,0,5.25,2.355,5.25,5.25
	C17.25,14.895,14.895,17.25,12,17.25z M12,8.25c-2.068,0-3.75,1.682-3.75,3.75c0,2.067,1.682,3.75,3.75,3.75
	c2.067,0,3.75-1.683,3.75-3.75C15.75,9.932,14.067,8.25,12,8.25z"/>
</svg>






