<?xml version="1.0" encoding="iso-8859-1"?>
<svg version="1.1" id="&#x56FE;&#x5C42;_1" xmlns="http://www.w3.org/2000/svg" xmlns:xlink="http://www.w3.org/1999/xlink" x="0px"
	 y="0px" viewBox="0 0 24 24" style="enable-background:new 0 0 24 24;" xml:space="preserve">
<path style="fill:#333333;" d="M10,21.75c-3.17,0-5.75-2.579-5.75-5.75c0-2.525,1.618-4.73,4.025-5.486l0.449,1.431
	C6.945,12.504,5.75,14.133,5.75,16c0,2.344,1.907,4.25,4.25,4.25c1.35,0,2.589-0.62,3.4-1.7c0.103-0.137,0.196-0.278,0.281-0.426
	l1.299,0.752c-0.116,0.2-0.243,0.393-0.382,0.576C13.503,20.912,11.826,21.75,10,21.75z"/>
<polygon style="fill:#333333;" points="19.25,22 17.75,22 17.75,15.75 10.287,15.75 13.786,8.75 9.625,8.75 9.1,9.45 7.9,8.55 
	8.875,7.25 16.214,7.25 12.714,14.25 19.25,14.25 "/>
<path style="fill:#333333;" d="M17,6.75c-1.517,0-2.75-1.233-2.75-2.75S15.483,1.25,17,1.25S19.75,2.483,19.75,4
	S18.517,6.75,17,6.75z M17,2.75c-0.689,0-1.25,0.561-1.25,1.25S16.311,5.25,17,5.25S18.25,4.689,18.25,4S17.689,2.75,17,2.75z"/>
</svg>






