<?xml version="1.0" encoding="iso-8859-1"?>
<svg version="1.1" id="&#x56FE;&#x5C42;_1" xmlns="http://www.w3.org/2000/svg" xmlns:xlink="http://www.w3.org/1999/xlink" x="0px"
	 y="0px" viewBox="0 0 24 24" style="enable-background:new 0 0 24 24;" xml:space="preserve">
<polygon style="fill:#333333;" points="21.75,22.25 2.25,22.25 2.25,16.75 15.5,16.75 15.5,18.25 3.75,18.25 3.75,20.75 
	20.25,20.75 20.25,17.5 21.75,17.5 "/>
<polygon style="fill:#333333;" points="14.62,14.294 1.827,9.638 3.708,4.469 19.449,10.199 18.936,11.608 4.605,6.392 3.75,8.742 
	15.134,12.884 "/>
<path style="fill:#333333;" d="M11.908,9.023l-0.716-0.237l-7.97-2.955l1.426-3.846l0.754,0.22l4.761,1.765
	c1.754,0.65,2.652,2.606,2.001,4.36L11.908,9.023z M5.149,4.947l5.726,2.123c-0.033-0.737-0.499-1.42-1.233-1.692l-4.09-1.516
	L5.149,4.947z"/>
<path style="fill:#333333;" d="M7.225,14.319c-0.145,0-0.29-0.025-0.429-0.076l-3.288-1.197c-0.312-0.113-0.563-0.342-0.705-0.645
	c-0.142-0.304-0.157-0.644-0.042-0.958l0.684-1.879l1.409,0.513l-0.598,1.645l2.819,1.026l0.599-1.645l1.409,0.513l-0.684,1.88
	c-0.114,0.313-0.344,0.564-0.646,0.705C7.583,14.279,7.404,14.319,7.225,14.319z"/>
<path style="fill:#333333;" d="M18,19.25c-2.344,0-4.25-1.906-4.25-4.25s1.906-4.25,4.25-4.25s4.25,1.906,4.25,4.25
	S20.344,19.25,18,19.25z M18,12.25c-1.517,0-2.75,1.233-2.75,2.75s1.233,2.75,2.75,2.75s2.75-1.233,2.75-2.75S19.517,12.25,18,12.25
	z"/>
</svg>






