<?xml version="1.0" encoding="iso-8859-1"?>
<svg version="1.1" id="&#x56FE;&#x5C42;_1" xmlns="http://www.w3.org/2000/svg" xmlns:xlink="http://www.w3.org/1999/xlink" x="0px"
	 y="0px" viewBox="0 0 24 24" style="enable-background:new 0 0 24 24;" xml:space="preserve">
<path style="fill:#333333;" d="M18.508,17.75H6.665l-1.625-6.5h16.068L18.508,17.75z M7.835,16.25h9.657l1.4-3.5H6.96L7.835,16.25z"
	/>
<polygon style="fill:#333333;" points="5.314,12.305 3.513,8.25 1.75,8.25 1.75,6.75 4.487,6.75 6.686,11.695 "/>
<path style="fill:#333333;" d="M10,22.75c-1.241,0-2.25-1.01-2.25-2.25s1.009-2.25,2.25-2.25s2.25,1.01,2.25,2.25
	S11.241,22.75,10,22.75z M10,19.75c-0.414,0-0.75,0.337-0.75,0.75s0.336,0.75,0.75,0.75s0.75-0.337,0.75-0.75S10.414,19.75,10,19.75
	z"/>
<path style="fill:#333333;" d="M15.5,22.75c-1.24,0-2.25-1.01-2.25-2.25s1.01-2.25,2.25-2.25s2.25,1.01,2.25,2.25
	S16.74,22.75,15.5,22.75z M15.5,19.75c-0.413,0-0.75,0.337-0.75,0.75s0.337,0.75,0.75,0.75s0.75-0.337,0.75-0.75
	S15.913,19.75,15.5,19.75z"/>
<path style="fill:#333333;" d="M20.49,12.75h-7.042l-2.854-9.135l0.571-0.286c1.149-0.576,4.648-2.327,8.116,1.141
	c3.324,3.324,1.486,7.648,1.407,7.831L20.49,12.75z M14.552,11.25h4.92c0.316-1.037,0.819-3.648-1.252-5.72
	c-2.306-2.307-4.524-1.703-5.811-1.134L14.552,11.25z"/>
</svg>






