<?xml version="1.0" encoding="iso-8859-1"?>
<svg version="1.1" id="&#x56FE;&#x5C42;_1" xmlns="http://www.w3.org/2000/svg" xmlns:xlink="http://www.w3.org/1999/xlink" x="0px"
	 y="0px" viewBox="0 0 24 24" style="enable-background:new 0 0 24 24;" xml:space="preserve">
<path style="fill:#333333;" d="M8,16.75c-4.225,0-6.75-3.178-6.75-6.25V2.75h3.026V2h1.5v0.75h4.447V2h1.5v0.75h3.026v7.75
	C14.75,13.572,12.226,16.75,8,16.75z M2.75,4.25v6.25c0,1.837,1.425,4.75,5.25,4.75s5.25-2.913,5.25-4.75V4.25h-1.526V5h-1.5V4.25
	H5.776V5h-1.5V4.25H2.75z"/>
<path style="fill:#333333;" d="M20,12.25c-1.517,0-2.75-1.233-2.75-2.75S18.483,6.75,20,6.75s2.75,1.233,2.75,2.75
	S21.517,12.25,20,12.25z M20,8.25c-0.689,0-1.25,0.561-1.25,1.25s0.561,1.25,1.25,1.25s1.25-0.561,1.25-1.25S20.689,8.25,20,8.25z"
	/>
<path style="fill:#333333;" d="M14,22.75c-3.722,0-6.75-3.028-6.75-6.75h1.5c0,2.895,2.355,5.25,5.25,5.25
	c2.895,0,5.25-2.355,5.25-5.25v-4.5h1.5V16C20.75,19.722,17.722,22.75,14,22.75z"/>
</svg>






