<?xml version="1.0" encoding="iso-8859-1"?>
<svg version="1.1" id="&#x56FE;&#x5C42;_1" xmlns="http://www.w3.org/2000/svg" xmlns:xlink="http://www.w3.org/1999/xlink" x="0px"
	 y="0px" viewBox="0 0 24 24" style="enable-background:new 0 0 24 24;" xml:space="preserve">
<path style="fill:#333333;" d="M12,22.75C6.072,22.75,1.25,17.928,1.25,12S6.072,1.25,12,1.25h1.097l-0.397,1.022
	C12.636,2.437,11.17,6.389,14.05,9.49c2.889,3.112,7.698,1.801,7.745,1.789l0.954-0.269L22.75,12
	C22.75,17.928,17.928,22.75,12,22.75z M10.995,2.804C6.366,3.307,2.75,7.239,2.75,12c0,5.101,4.149,9.25,9.25,9.25
	c4.787,0,8.735-3.654,9.203-8.32c-1.789,0.283-5.588,0.45-8.253-2.419C10.385,7.748,10.636,4.467,10.995,2.804z"/>
<rect x="16.25" y="-0.071" transform="matrix(0.7071 -0.7071 0.7071 0.7071 0.0294 14.0711)" style="fill:#333333;" width="1.5" height="14.142"/>
</svg>






