<?xml version="1.0" encoding="iso-8859-1"?>
<svg version="1.1" id="&#x56FE;&#x5C42;_1" xmlns="http://www.w3.org/2000/svg" xmlns:xlink="http://www.w3.org/1999/xlink" x="0px"
	 y="0px" viewBox="0 0 24 24" style="enable-background:new 0 0 24 24;" xml:space="preserve">
<path style="fill:#333333;" d="M12,22.75c-5.101,0-9.25-4.149-9.25-9.25S6.899,4.25,12,4.25s9.25,4.149,9.25,9.25
	S17.101,22.75,12,22.75z M12,5.75c-4.273,0-7.75,3.477-7.75,7.75s3.477,7.75,7.75,7.75s7.75-3.477,7.75-7.75S16.273,5.75,12,5.75z"
	/>
<rect x="8.5" y="1.25" style="fill:#333333;" width="7" height="1.5"/>
<rect x="17.189" y="5" transform="matrix(0.7071 -0.7071 0.7071 0.7071 1.2794 14.5888)" style="fill:#333333;" width="2.121" height="1.5"/>
<rect x="11.25" y="9" style="fill:#333333;" width="1.5" height="4.5"/>
</svg>






