<?xml version="1.0" encoding="iso-8859-1"?>
<svg version="1.1" id="&#x56FE;&#x5C42;_1" xmlns="http://www.w3.org/2000/svg" xmlns:xlink="http://www.w3.org/1999/xlink" x="0px"
	 y="0px" viewBox="0 0 24 24" style="enable-background:new 0 0 24 24;" xml:space="preserve">
<path style="fill:#333333;" d="M17.278,6.857H6.993V1.469h10.285V6.857z M8.463,5.388h7.347V2.939H8.463V5.388z"/>
<path style="fill:#333333;" d="M18.993,22.53H5.279c-0.945,0-1.714-0.769-1.714-1.714V3.184c0-0.945,0.769-1.714,1.714-1.714h2.248
	v1.47H5.279c-0.135,0-0.245,0.11-0.245,0.245v17.633c0,0.135,0.11,0.245,0.245,0.245h13.714c0.135,0,0.245-0.11,0.245-0.245V3.184
	c0-0.135-0.11-0.245-0.245-0.245h-2.247v-1.47h2.247c0.945,0,1.714,0.769,1.714,1.714v17.633
	C20.707,21.762,19.938,22.53,18.993,22.53z"/>
<polygon style="fill:#333333;" points="11.187,18.398 10.147,17.359 12.812,14.694 9.687,14.694 9.167,13.44 13.086,9.521 
	14.125,10.561 11.46,13.226 14.587,13.226 15.106,14.479 "/>
</svg>






