<?xml version="1.0" encoding="iso-8859-1"?>
<svg version="1.1" id="&#x56FE;&#x5C42;_1" xmlns="http://www.w3.org/2000/svg" xmlns:xlink="http://www.w3.org/1999/xlink" x="0px"
	 y="0px" viewBox="0 0 24 24" style="enable-background:new 0 0 24 24;" xml:space="preserve">
<path style="fill:#333333;" d="M3.137,21.813c-0.833,0-1.573-0.599-1.724-1.446L1.24,19.382c-0.167-0.949,0.469-1.858,1.418-2.027
	h0.001l16.742-2.951c0.457-0.083,0.924,0.021,1.307,0.288c0.383,0.269,0.639,0.67,0.72,1.131l0.174,0.985
	c0.081,0.46-0.021,0.925-0.29,1.308s-0.669,0.638-1.13,0.719L3.441,21.786C3.339,21.805,3.237,21.813,3.137,21.813z M2.92,18.831
	c-0.136,0.025-0.227,0.155-0.203,0.29l0.173,0.985c0.023,0.136,0.149,0.222,0.29,0.203l16.741-2.952
	c0.089-0.016,0.139-0.071,0.161-0.104c0.022-0.031,0.058-0.098,0.042-0.187l-0.174-0.985c-0.016-0.089-0.071-0.139-0.103-0.161
	c-0.032-0.022-0.103-0.056-0.187-0.041L2.92,18.831z"/>
<rect x="20.25" y="17.586" transform="matrix(0.7071 -0.7071 0.7071 0.7071 -7.2843 20.4142)" style="fill:#333333;" width="1.5" height="2.828"/>
<path style="fill:#333333;" d="M11.071,14.374L4.177,7.48C2.663,5.967,2.543,5.099,2.543,4.121c0-0.841,0.655-2.194,0.786-2.457
	l0.465-0.931l10.458,10.458L11.071,14.374z M4.251,3.312C4.128,3.65,4.043,3.955,4.043,4.121c0,0.617,0,1.104,1.194,2.298
	l5.834,5.833l1.061-1.061L4.251,3.312z"/>
<rect x="10" y="-0.796" transform="matrix(0.7071 -0.7071 0.7071 0.7071 -3.0386 10.1642)" style="fill:#333333;" width="1.5" height="19.092"/>
</svg>






