<?xml version="1.0" encoding="iso-8859-1"?>
<svg version="1.1" id="&#x56FE;&#x5C42;_1" xmlns="http://www.w3.org/2000/svg" xmlns:xlink="http://www.w3.org/1999/xlink" x="0px"
	 y="0px" viewBox="0 0 24 24" style="enable-background:new 0 0 24 24;" xml:space="preserve">
<path style="fill:#333333;" d="M17.75,11h-1.5c0-2.343-1.906-4.25-4.25-4.25c-2.343,0-4.25,1.907-4.25,4.25h-1.5
	c0-3.17,2.58-5.75,5.75-5.75C15.171,5.25,17.75,7.83,17.75,11z"/>
<path style="fill:#333333;" d="M12,18.75c-5.342,0-10.75-1.454-10.75-4.233c0-1.667,2.042-3.034,5.602-3.752l0.297,1.471
	c-2.888,0.582-4.398,1.588-4.398,2.281c0,1.114,3.604,2.733,9.25,2.733s9.25-1.619,9.25-2.733c0-0.693-1.511-1.699-4.398-2.281
	l0.297-1.471c3.56,0.718,5.602,2.085,5.602,3.752C22.75,17.296,17.342,18.75,12,18.75z"/>
<path style="fill:#333333;" d="M12,13.75c-3.017,0-4.704-1.49-5.339-2.051L6.52,11.576l0.96-1.152l0.174,0.151
	C8.221,11.076,9.55,12.25,12,12.25c2.689,0,3.982-1.293,4.47-1.78l1.061,1.061C16.981,12.079,15.311,13.75,12,13.75z"/>
<rect x="8.654" y="10.5" transform="matrix(0.3712 -0.9286 0.9286 0.3712 -4.158 16.36)" style="fill:#333333;" width="2.693" height="1.5"/>
</svg>






