<?xml version="1.0" encoding="iso-8859-1"?>
<svg version="1.1" id="&#x56FE;&#x5C42;_1" xmlns="http://www.w3.org/2000/svg" xmlns:xlink="http://www.w3.org/1999/xlink" x="0px"
	 y="0px" viewBox="0 0 24 24" style="enable-background:new 0 0 24 24;" xml:space="preserve">
<g>
	<defs>
		<rect id="SVGID_1_" width="24" height="24"/>
	</defs>
	<clipPath id="SVGID_00000164510689435290947320000011984157326437994114_">
		<use xlink:href="#SVGID_1_"  style="overflow:visible;"/>
	</clipPath>
	<g style="clip-path:url(#SVGID_00000164510689435290947320000011984157326437994114_);">
		<path style="fill:#333333;" d="M20,21.75H4c-0.965,0-1.75-0.785-1.75-1.75V4c0-0.965,0.785-1.75,1.75-1.75h7.5v1.5H4
			C3.863,3.75,3.75,3.862,3.75,4v16c0,0.138,0.112,0.25,0.25,0.25h16c0.138,0,0.25-0.112,0.25-0.25v-7.5h1.5V20
			C21.75,20.965,20.965,21.75,20,21.75z"/>
		<rect x="11.251" y="8" style="fill:#333333;" width="1.5" height="4"/>
		<rect x="20.25" y="3" style="fill:#333333;" width="1.5" height="4"/>
		<rect x="12.001" y="11.25" style="fill:#333333;" width="4" height="1.5"/>
		
			<rect x="10.136" y="6.75" transform="matrix(0.7073 -0.7069 0.7069 0.7073 -0.4718 13.8599)" style="fill:#333333;" width="12.728" height="1.5"/>
		<rect x="17" y="2.25" style="fill:#333333;" width="4" height="1.5"/>
	</g>
</g>
</svg>






