<?xml version="1.0" encoding="iso-8859-1"?>
<svg version="1.1" id="&#x56FE;&#x5C42;_1" xmlns="http://www.w3.org/2000/svg" xmlns:xlink="http://www.w3.org/1999/xlink" x="0px"
	 y="0px" viewBox="0 0 24 24" style="enable-background:new 0 0 24 24;" xml:space="preserve">
<rect x="2.5" y="11.25" style="fill:#333333;" width="19" height="1.5"/>
<path style="fill:#333333;" d="M12,22.75c-5.521,0-6.716-4.522-6.728-4.568l1.455-0.363C6.763,17.954,7.676,21.25,12,21.25
	c2.021,0,3.799-1.393,4.134-3.239c0.389-2.146-1.255-4.13-4.397-5.309l0.527-1.404c5.744,2.154,5.544,5.888,5.346,6.98
	C17.147,20.827,14.735,22.75,12,22.75z"/>
<path style="fill:#333333;" d="M7.176,9.41c-1.151-1.765-1.308-3.797-0.42-5.436C7.693,2.243,9.605,1.25,12,1.25
	c4.963,0,6.634,4.303,6.702,4.487l-1.403,0.529C17.244,6.123,15.905,2.75,12,2.75c-1.827,0-3.258,0.707-3.925,1.938
	C7.454,5.835,7.587,7.294,8.433,8.59L7.176,9.41z"/>
<path style="fill:#333333;" d="M12,22.75c-4.413,0-6.581-4.234-6.671-4.415l1.341-0.672C6.688,17.699,8.524,21.25,12,21.25
	c1.686,0,3.111-0.774,3.814-2.071c0.638-1.177,0.547-2.551-0.247-3.769l1.256-0.82c1.089,1.67,1.205,3.652,0.311,5.304
	C16.164,21.682,14.245,22.75,12,22.75z"/>
</svg>






