<?xml version="1.0" encoding="iso-8859-1"?>
<svg version="1.1" id="&#x56FE;&#x5C42;_1" xmlns="http://www.w3.org/2000/svg" xmlns:xlink="http://www.w3.org/1999/xlink" x="0px"
	 y="0px" viewBox="0 0 24 24" style="enable-background:new 0 0 24 24;" xml:space="preserve">
<path style="fill:#333333;" d="M20.5,22.75h-17c-1.241,0-2.25-1.01-2.25-2.25v-17c0-1.241,1.009-2.25,2.25-2.25h17
	c1.24,0,2.25,1.009,2.25,2.25v17C22.75,21.74,21.74,22.75,20.5,22.75z M3.5,2.75c-0.414,0-0.75,0.336-0.75,0.75v17
	c0,0.413,0.336,0.75,0.75,0.75h17c0.413,0,0.75-0.337,0.75-0.75v-17c0-0.414-0.337-0.75-0.75-0.75H3.5z"/>
<path style="fill:#333333;" d="M6,7c0.552,0,1-0.448,1-1S6.552,5,6,5S5,5.448,5,6S5.448,7,6,7z"/>
<path style="fill:#333333;" d="M6,19c0.552,0,1-0.448,1-1s-0.448-1-1-1s-1,0.448-1,1S5.448,19,6,19z"/>
<path style="fill:#333333;" d="M18,7c0.552,0,1-0.448,1-1s-0.448-1-1-1s-1,0.448-1,1S17.448,7,18,7z"/>
<path style="fill:#333333;" d="M18,19c0.552,0,1-0.448,1-1s-0.448-1-1-1s-1,0.448-1,1S17.448,19,18,19z"/>
<path style="fill:#333333;" d="M12,17.25c-2.895,0-5.25-2.355-5.25-5.25c0-2.895,2.355-5.25,5.25-5.25c2.895,0,5.25,2.355,5.25,5.25
	C17.25,14.895,14.895,17.25,12,17.25z M12,8.25c-2.068,0-3.75,1.682-3.75,3.75c0,2.067,1.682,3.75,3.75,3.75
	c2.067,0,3.75-1.683,3.75-3.75C15.75,9.932,14.067,8.25,12,8.25z"/>
</svg>






