<?xml version="1.0" encoding="iso-8859-1"?>
<svg version="1.1" id="&#x56FE;&#x5C42;_1" xmlns="http://www.w3.org/2000/svg" xmlns:xlink="http://www.w3.org/1999/xlink" x="0px"
	 y="0px" viewBox="0 0 24 24" style="enable-background:new 0 0 24 24;" xml:space="preserve">
<path style="fill:#333333;" d="M20.5,22.25H9c-0.965,0-1.75-0.785-1.75-1.75V9c0-0.965,0.785-1.75,1.75-1.75h11.5
	c0.965,0,1.75,0.785,1.75,1.75v11.5C22.25,21.465,21.465,22.25,20.5,22.25z M9,8.75C8.862,8.75,8.75,8.862,8.75,9v11.5
	c0,0.138,0.112,0.25,0.25,0.25h11.5c0.138,0,0.25-0.112,0.25-0.25V9c0-0.138-0.112-0.25-0.25-0.25H9z"/>
<path style="fill:#333333;" d="M8,16.75H3.5c-0.965,0-1.75-0.785-1.75-1.75V3.5c0-0.965,0.785-1.75,1.75-1.75H15
	c0.965,0,1.75,0.785,1.75,1.75V8h-1.5V3.5c0-0.138-0.112-0.25-0.25-0.25H3.5c-0.138,0-0.25,0.112-0.25,0.25V15
	c0,0.138,0.112,0.25,0.25,0.25H8V16.75z"/>
<rect x="6.474" y="10.75" transform="matrix(0.6806 -0.7327 0.7327 0.6806 -4.8323 11.9155)" style="fill:#333333;" width="9.552" height="1.501"/>
<rect x="5.361" y="13.25" transform="matrix(0.6758 -0.737 0.737 0.6758 -5.9425 14.4883)" style="fill:#333333;" width="16.279" height="1.5"/>
<rect x="9.067" y="15.25" transform="matrix(0.673 -0.7397 0.7397 0.673 -6.4388 17.4371)" style="fill:#333333;" width="14.866" height="1.5"/>
<rect x="15.283" y="18" transform="matrix(0.6731 -0.7395 0.7395 0.6731 -7.6555 20.1799)" style="fill:#333333;" width="7.433" height="1.5"/>
</svg>






