<?xml version="1.0" encoding="iso-8859-1"?>
<svg version="1.1" id="&#x56FE;&#x5C42;_1" xmlns="http://www.w3.org/2000/svg" xmlns:xlink="http://www.w3.org/1999/xlink" x="0px"
	 y="0px" viewBox="0 0 24 24" style="enable-background:new 0 0 24 24;" xml:space="preserve">
<path style="fill:#333333;" d="M20.5,22.25H9c-0.965,0-1.75-0.785-1.75-1.75V16h1.5v4.5c0,0.138,0.112,0.25,0.25,0.25h11.5
	c0.138,0,0.25-0.112,0.25-0.25V9c0-0.138-0.112-0.25-0.25-0.25H16v-1.5h4.5c0.965,0,1.75,0.785,1.75,1.75v11.5
	C22.25,21.465,21.465,22.25,20.5,22.25z"/>
<path style="fill:#333333;" d="M15,16.75H3.5c-0.965,0-1.75-0.785-1.75-1.75V3.5c0-0.965,0.785-1.75,1.75-1.75H15
	c0.965,0,1.75,0.785,1.75,1.75V15C16.75,15.965,15.965,16.75,15,16.75z M3.5,3.25c-0.138,0-0.25,0.112-0.25,0.25V15
	c0,0.138,0.112,0.25,0.25,0.25H15c0.138,0,0.25-0.112,0.25-0.25V3.5c0-0.138-0.112-0.25-0.25-0.25H3.5z"/>
<rect x="0.974" y="5.25" transform="matrix(0.6803 -0.733 0.733 0.6803 -2.5593 6.1331)" style="fill:#333333;" width="9.552" height="1.5"/>
<rect x="-0.139" y="7.75" transform="matrix(0.6758 -0.737 0.737 0.6758 -3.6716 8.6517)" style="fill:#333333;" width="16.279" height="1.5"/>
<rect x="3.567" y="9.75" transform="matrix(0.6728 -0.7398 0.7398 0.6728 -4.169 11.5736)" style="fill:#333333;" width="14.866" height="1.5"/>
<rect x="9.783" y="12.5" transform="matrix(0.6728 -0.7398 0.7398 0.6728 -5.3855 14.323)" style="fill:#333333;" width="7.433" height="1.5"/>
</svg>






