<?xml version="1.0" encoding="iso-8859-1"?>
<svg version="1.1" id="&#x56FE;&#x5C42;_1" xmlns="http://www.w3.org/2000/svg" xmlns:xlink="http://www.w3.org/1999/xlink" x="0px"
	 y="0px" viewBox="0 0 24 24" style="enable-background:new 0 0 24 24;" xml:space="preserve">
<path style="fill:#333333;" d="M19,16.75H5c-0.965,0-1.75-0.785-1.75-1.75V4c0-0.965,0.785-1.75,1.75-1.75h14
	c0.965,0,1.75,0.785,1.75,1.75v11C20.75,15.965,19.965,16.75,19,16.75z M5,3.75C4.862,3.75,4.75,3.862,4.75,4v11
	c0,0.138,0.112,0.25,0.25,0.25h14c0.138,0,0.25-0.112,0.25-0.25V4c0-0.138-0.112-0.25-0.25-0.25H5z"/>
<circle style="fill:#333333;" cx="7" cy="13.5" r="1"/>
<circle style="fill:#333333;" cx="17" cy="13.5" r="1"/>
<path style="fill:#333333;" d="M17.75,11.75H6.25v-6.5h11.5V11.75z M7.75,10.25h8.5v-3.5h-8.5V10.25z"/>
<rect x="17.25" y="15.24" transform="matrix(0.7474 -0.6644 0.6644 0.7474 -7.578 16.5683)" style="fill:#333333;" width="1.5" height="6.021"/>
<rect x="3.068" y="17.5" transform="matrix(0.7071 -0.7071 0.7071 0.7071 -11.0741 9.7647)" style="fill:#333333;" width="6.364" height="1.5"/>
</svg>






