<?xml version="1.0" encoding="iso-8859-1"?>
<svg version="1.1" id="&#x56FE;&#x5C42;_1" xmlns="http://www.w3.org/2000/svg" xmlns:xlink="http://www.w3.org/1999/xlink" x="0px"
	 y="0px" viewBox="0 0 24 24" style="enable-background:new 0 0 24 24;" xml:space="preserve">
<path style="fill:#333333;" d="M12,22.929l-2.87-2.095l-3.554,0.007L4.485,17.46l-2.879-2.083L2.711,12L1.606,8.623L4.485,6.54
	l1.091-3.381L9.13,3.166L12,1.072l2.871,2.094l3.553-0.007l1.092,3.381l2.878,2.083L21.289,12l1.104,3.377l-2.878,2.083
	l-1.092,3.381l-3.553-0.007L12,22.929z M9.617,19.334L12,21.071l2.383-1.737l2.949,0.005l0.906-2.807l2.39-1.729L19.711,12
	l0.917-2.803l-2.39-1.729l-0.906-2.807l-2.949,0.006L12,2.928L9.617,4.667L6.668,4.661L5.762,7.468l-2.39,1.729L4.289,12
	l-0.917,2.803l2.39,1.729l0.906,2.807L9.617,19.334z"/>
<polygon style="fill:#333333;" points="11,15.561 7.97,12.53 9.03,11.47 11,13.439 15.47,8.97 16.53,10.03 "/>
</svg>






