<?xml version="1.0" encoding="iso-8859-1"?>
<svg version="1.1" id="&#x56FE;&#x5C42;_1" xmlns="http://www.w3.org/2000/svg" xmlns:xlink="http://www.w3.org/1999/xlink" x="0px"
	 y="0px" viewBox="0 0 24 24" style="enable-background:new 0 0 24 24;" xml:space="preserve">
<path style="fill:#333333;" d="M18.75,10.75H5.25V5c0-0.965,0.785-1.75,1.75-1.75h10c0.965,0,1.75,0.785,1.75,1.75V10.75z
	 M6.75,9.25h10.5V5c0-0.138-0.112-0.25-0.25-0.25H7C6.862,4.75,6.75,4.862,6.75,5V9.25z"/>
<path style="fill:#333333;" d="M18.2,20.75c-0.998,0-2.106-0.356-3.51-0.807c-0.721-0.232-1.514-0.487-2.384-0.719l0.387-1.449
	c0.896,0.238,1.713,0.501,2.456,0.739c1.228,0.395,2.288,0.735,3.051,0.735c1.745,0,2.363-0.95,2.86-1.714
	c0.131-0.201,0.249-0.379,0.362-0.516l1.154,0.959c-0.082,0.099-0.164,0.229-0.259,0.375C21.773,19.191,20.759,20.75,18.2,20.75z"/>
<path style="fill:#333333;" d="M6,20.75c-2.66,0-3.721-1.549-4.291-2.38c-0.1-0.146-0.187-0.277-0.273-0.376l-0.378-0.433
	l0.318-0.478c0.029-0.044,2.956-4.452,3.913-7.321L5.459,9.25h13.082l0.171,0.513c0.957,2.872,3.883,7.277,3.912,7.321l-1.04,1.04
	c-1.589-1.061-6.025,0.24-9.587,1.284C9.539,20.128,7.416,20.75,6,20.75z M2.913,17.474c0.011,0.016,0.022,0.032,0.033,0.048
	C3.474,18.292,4.131,19.25,6,19.25c1.201,0,3.325-0.622,5.575-1.281c3.161-0.925,6.414-1.868,8.749-1.714
	c-0.898-1.473-2.15-3.665-2.852-5.505H6.528C5.587,13.221,3.65,16.329,2.913,17.474z"/>
</svg>






