<?xml version="1.0" encoding="iso-8859-1"?>
<svg version="1.1" id="&#x56FE;&#x5C42;_1" xmlns="http://www.w3.org/2000/svg" xmlns:xlink="http://www.w3.org/1999/xlink" x="0px"
	 y="0px" viewBox="0 0 24 24" style="enable-background:new 0 0 24 24;" xml:space="preserve">
<rect x="4.382" y="4.345" transform="matrix(0.707 -0.7073 0.7073 0.707 -2.1259 5.1337)" style="fill:#333333;" width="1.5" height="1.575"/>
<rect x="1.5" y="11.25" style="fill:#333333;" width="1.575" height="1.5"/>
<rect x="4.345" y="18.118" transform="matrix(0.7071 -0.7071 0.7071 0.7071 -11.8387 9.1553)" style="fill:#333333;" width="1.575" height="1.5"/>
<rect x="18.118" y="18.081" transform="matrix(0.7071 -0.7071 0.7071 0.7071 -7.8154 18.8682)" style="fill:#333333;" width="1.5" height="1.574"/>
<rect x="20.925" y="11.25" style="fill:#333333;" width="1.575" height="1.5"/>
<rect x="18.081" y="4.382" transform="matrix(0.7071 -0.7071 0.7071 0.7071 1.8973 14.845)" style="fill:#333333;" width="1.574" height="1.5"/>
<rect x="11.25" y="1.5" style="fill:#333333;" width="1.5" height="1.575"/>
<g>
	<path style="fill:#333333;" d="M12,18c3.314,0,6-2.686,6-6s-2.686-6-6-6s-6,2.686-6,6S8.686,18,12,18z"/>
	<path style="fill:#333333;" d="M12,18.75c-3.722,0-6.75-3.028-6.75-6.75c0-3.722,3.028-6.75,6.75-6.75
		c3.722,0,6.75,3.028,6.75,6.75C18.75,15.722,15.722,18.75,12,18.75z M12,6.75c-2.895,0-5.25,2.355-5.25,5.25
		c0,2.895,2.355,5.25,5.25,5.25c2.895,0,5.25-2.355,5.25-5.25C17.25,9.105,14.895,6.75,12,6.75z"/>
</g>
<rect x="11.25" y="20.925" style="fill:#333333;" width="1.5" height="1.575"/>
</svg>






