<?xml version="1.0" encoding="iso-8859-1"?>
<svg version="1.1" id="&#x56FE;&#x5C42;_1" xmlns="http://www.w3.org/2000/svg" xmlns:xlink="http://www.w3.org/1999/xlink" x="0px"
	 y="0px" viewBox="0 0 24 24" style="enable-background:new 0 0 24 24;" xml:space="preserve">
<path style="fill:#333333;" d="M15.392,13.032v-1.5c1.456,0,2.641-1.185,2.641-2.641S16.848,6.25,15.392,6.25
	c-1.289,0-2.384,0.92-2.603,2.187l-1.478-0.256c0.344-1.988,2.06-3.431,4.081-3.431c2.283,0,4.141,1.858,4.141,4.141
	S17.675,13.032,15.392,13.032z"/>
<path style="fill:#333333;" d="M16.5,3.5c0.552,0,1-0.448,1-1s-0.448-1-1-1c-0.552,0-1,0.448-1,1S15.948,3.5,16.5,3.5z"/>
<path style="fill:#333333;" d="M21,6c0.552,0,1-0.448,1-1c0-0.552-0.448-1-1-1s-1,0.448-1,1C20,5.552,20.448,6,21,6z"/>
<path style="fill:#333333;" d="M22,10.5c0.552,0,1-0.448,1-1s-0.448-1-1-1s-1,0.448-1,1S21.448,10.5,22,10.5z"/>
<path style="fill:#333333;" d="M11,5c0.552,0,1-0.448,1-1s-0.448-1-1-1s-1,0.448-1,1S10.448,5,11,5z"/>
<path style="fill:#333333;" d="M19.577,21.686l-0.609-1.371c1.387-0.616,2.282-2.013,2.282-3.558c0-2.139-1.703-3.879-3.796-3.879
	c-0.602,0-1.177,0.14-1.709,0.415l-0.83,0.43l-0.239-0.903c-0.714-2.69-3.122-4.569-5.857-4.569c-3.346,0-6.068,2.778-6.068,6.192
	c0,1.969,0.887,3.776,2.433,4.959l-0.911,1.191c-1.92-1.469-3.021-3.711-3.021-6.15c0-4.242,3.395-7.692,7.568-7.692
	c3.132,0,5.92,1.967,7.045,4.876c0.513-0.164,1.051-0.249,1.591-0.249c2.92,0,5.296,2.413,5.296,5.379
	C22.75,18.894,21.505,20.828,19.577,21.686z"/>
<path style="fill:#333333;" d="M6.349,17.151C5.64,16.443,5.25,15.501,5.25,14.5c0-2.067,1.682-3.75,3.75-3.75
	c1.002,0,1.944,0.39,2.652,1.099l-1.062,1.061C10.166,12.484,9.601,12.25,9,12.25c-1.241,0-2.25,1.01-2.25,2.25
	c0,0.601,0.234,1.166,0.659,1.591L6.349,17.151z"/>
</svg>






