<?xml version="1.0" encoding="iso-8859-1"?>
<svg version="1.1" id="&#x56FE;&#x5C42;_1" xmlns="http://www.w3.org/2000/svg" xmlns:xlink="http://www.w3.org/1999/xlink" x="0px"
	 y="0px" viewBox="0 0 24 24" style="enable-background:new 0 0 24 24;" xml:space="preserve">
<rect x="2" y="11.25" style="fill:#333333;" width="1.5" height="1.5"/>
<rect x="4.75" y="4.793" transform="matrix(0.7071 -0.7071 0.7071 0.7071 -2.2782 5.5)" style="fill:#333333;" width="1.5" height="1.414"/>
<rect x="11.25" y="2" style="fill:#333333;" width="1.5" height="1.5"/>
<path style="fill:#333333;" d="M15.327,16.69l-0.869-1.223C15.58,14.671,16.25,13.374,16.25,12c0-2.343-1.906-4.25-4.25-4.25
	c-2.343,0-4.25,1.907-4.25,4.25h-1.5c0-3.17,2.58-5.75,5.75-5.75c3.171,0,5.75,2.58,5.75,5.75
	C17.75,13.859,16.844,15.612,15.327,16.69z"/>
<rect x="17.793" y="4.75" transform="matrix(0.7071 -0.7071 0.7071 0.7071 1.5294 14.6924)" style="fill:#333333;" width="1.414" height="1.5"/>
<rect x="20.5" y="11.25" style="fill:#333333;" width="1.5" height="1.5"/>
<rect x="17.836" y="18.013" transform="matrix(0.7075 -0.7067 0.7067 0.7075 -7.6987 18.5697)" style="fill:#333333;" width="1.5" height="1.146"/>
<path style="fill:#333333;" d="M5.356,21.788c-0.651,0-1.308-0.01-1.958-0.023C3.033,21.757,2.727,21.75,2.5,21.75v-1.5
	c0.235,0,0.552,0.007,0.93,0.015c7.035,0.161,8.689-0.684,8.835-1.412c0.014-0.069,0.014-0.158-0.09-0.298
	c-0.311-0.413-1.166-0.758-1.74-0.808l-0.405-0.03C8.709,17.623,6.25,17.45,6.25,15.5c0-2.017,3.139-2.25,5.5-2.25v1.5
	c-3.765,0-4,0.742-4,0.75c0,0.552,1.611,0.666,2.386,0.721l0.43,0.032c0.934,0.081,2.199,0.589,2.81,1.402
	c0.34,0.454,0.465,0.97,0.36,1.492C13.285,21.396,9.438,21.788,5.356,21.788z"/>
</svg>






