<?xml version="1.0" encoding="iso-8859-1"?>
<svg version="1.1" id="&#x56FE;&#x5C42;_1" xmlns="http://www.w3.org/2000/svg" xmlns:xlink="http://www.w3.org/1999/xlink" x="0px"
	 y="0px" viewBox="0 0 24 24" style="enable-background:new 0 0 24 24;" xml:space="preserve">
<path style="fill:#333333;" d="M17.756,17.75H1.244L8.84,3.645h1.32L17.756,17.75z M3.756,16.25h11.488L9.5,5.582L3.756,16.25z"/>
<polygon style="fill:#333333;" points="21.5,17.75 16,17.75 16,16.25 20.126,16.25 16.922,11.265 15.076,13.48 13.924,12.52 
	17.078,8.735 22.131,16.595 "/>
<rect x="5" y="19.75" style="fill:#333333;" width="14" height="1.5"/>
<path style="fill:#333333;" d="M19,7.25c-1.24,0-2.25-1.009-2.25-2.25S17.76,2.75,19,2.75S21.25,3.759,21.25,5S20.24,7.25,19,7.25z
	 M19,4.25c-0.413,0-0.75,0.336-0.75,0.75S18.587,5.75,19,5.75S19.75,5.414,19.75,5S19.413,4.25,19,4.25z"/>
</svg>






