<?xml version="1.0" encoding="iso-8859-1"?>
<svg version="1.1" id="&#x56FE;&#x5C42;_1" xmlns="http://www.w3.org/2000/svg" xmlns:xlink="http://www.w3.org/1999/xlink" x="0px"
	 y="0px" viewBox="0 0 24 24" style="enable-background:new 0 0 24 24;" xml:space="preserve">
<path style="fill:#333333;" d="M16.176,14.697c-1.781,0-3.83-0.277-5.689-0.775c-4.831-1.294-8.089-3.705-7.58-5.607
	c0.46-1.715,2.026-4.021,4.49-5.307c2.198-1.148,4.687-1.276,7.195-0.369c6.049,2.186,7.112,7.003,6.186,10.464l-0.026,0.08
	C20.338,14.232,18.481,14.697,16.176,14.697z M11.322,3.545c-1.131,0-2.221,0.265-3.232,0.792C6.041,5.407,4.718,7.35,4.355,8.703
	c-0.13,0.485,1.91,2.535,6.519,3.77c4.413,1.183,8,0.696,8.474,0.158c0.301-1.203,1.139-6.266-5.268-8.581
	C13.148,3.713,12.223,3.545,11.322,3.545z"/>
<path style="fill:#333333;" d="M9.75,21.001L8.25,21c0-0.157,0.018-3.916,1.528-9.206c1.511-5.289,3.499-8.551,3.583-8.687
	l1.277,0.786c-0.02,0.032-1.968,3.238-3.418,8.313C9.771,17.279,9.75,20.964,9.75,21.001z"/>
<path style="fill:#333333;" d="M8.209,8.743L6.791,8.257c1.522-4.444,6.85-5.454,7.076-5.495l0.269,1.476
	C14.088,4.247,9.444,5.14,8.209,8.743z"/>
<path style="fill:#333333;" d="M16.212,11.237l-1.424-0.475c1.328-3.983-1.212-6.624-1.32-6.734L14.53,2.97
	C14.666,3.105,17.84,6.354,16.212,11.237z"/>
<path style="fill:#333333;" d="M5.123,22.24l-0.247-1.48C5.063,20.729,9.479,20,13,20c3.491,0,6.532,0.25,6.562,0.253l-0.125,1.494
	C19.408,21.745,16.426,21.5,13,21.5C9.604,21.5,5.167,22.232,5.123,22.24z"/>
<path style="fill:#333333;" d="M14,4.25v-1.5c0.227,0,0.967-0.352,1.24-0.884l1.334,0.688C16.051,3.568,14.82,4.25,14,4.25z"/>
<path style="fill:#333333;" d="M17.75,20.5h-1.5c0-0.209-0.061-1.25-1.25-1.25s-1.25,1.041-1.25,1.25h-1.5
	c0-1.366,0.944-2.75,2.75-2.75S17.75,19.134,17.75,20.5z"/>
</svg>






