<?xml version="1.0" encoding="iso-8859-1"?>
<svg version="1.1" id="&#x56FE;&#x5C42;_1" xmlns="http://www.w3.org/2000/svg" xmlns:xlink="http://www.w3.org/1999/xlink" x="0px"
	 y="0px" viewBox="0 0 24 24" style="enable-background:new 0 0 24 24;" xml:space="preserve">
<rect x="2.25" y="13" style="fill:#333333;" width="1.5" height="8"/>
<polygon style="fill:#333333;" points="6.901,17.25 3,17.25 3,15.75 6.099,15.75 7.876,13.084 9.124,13.916 "/>
<path style="fill:#333333;" d="M17.015,19.657c-0.243,0-0.485-0.07-0.694-0.209L3.084,10.624l0.832-1.248l13.104,8.736l4.594-2.756
	l0.771,1.287l-4.729,2.837C17.46,19.599,17.237,19.657,17.015,19.657z"/>
<path style="fill:#333333;" d="M16.507,15.653c-0.241,0-0.483-0.07-0.692-0.209L3.123,6.983C2.798,6.767,2.596,6.419,2.569,6.029
	C2.542,5.64,2.695,5.268,2.987,5.009l3.729-3.315C7.137,1.32,7.76,1.273,8.232,1.583l13.532,8.865
	c0.356,0.233,0.567,0.627,0.564,1.054c-0.003,0.427-0.219,0.817-0.579,1.047l-4.572,2.909C16.973,15.588,16.74,15.653,16.507,15.653
	z M4.225,5.915l12.284,8.19l4.108-2.615L7.569,2.942L4.225,5.915z M3.955,5.735L3.955,5.735C3.956,5.736,3.956,5.735,3.955,5.735z"
	/>
</svg>






