<?xml version="1.0" encoding="iso-8859-1"?>
<svg version="1.1" id="&#x56FE;&#x5C42;_1" xmlns="http://www.w3.org/2000/svg" xmlns:xlink="http://www.w3.org/1999/xlink" x="0px"
	 y="0px" viewBox="0 0 24 24" style="enable-background:new 0 0 24 24;" xml:space="preserve">
<polygon style="fill:#333333;" points="10.253,19.25 2.5,19.25 2.5,17.75 8.753,17.75 8.753,13.138 10.253,13.138 "/>
<path style="fill:#333333;" d="M20.806,15.391l-4.551-1.22l2.751-4.957l3.224,0.863L20.806,15.391z M18.499,13.22l1.246,0.333
	l0.646-2.415l-0.642-0.172L18.499,13.22z"/>
<path style="fill:#333333;" d="M16.834,15.879L1.582,11.792l2.2-8.21l17.667,4.734l-1.429,2.164l-1.986,3.581L16.834,15.879z
	 M3.418,10.731l12.759,3.419l0.573-0.868l2.299-4.057L4.842,5.418L3.418,10.731z"/>
</svg>






