<?xml version="1.0" encoding="iso-8859-1"?>
<svg version="1.1" id="&#x56FE;&#x5C42;_1" xmlns="http://www.w3.org/2000/svg" xmlns:xlink="http://www.w3.org/1999/xlink" x="0px"
	 y="0px" viewBox="0 0 24 24" style="enable-background:new 0 0 24 24;" xml:space="preserve">
<path style="fill:#333333;" d="M5.635,22.363l-1.312-0.727l3.31-5.97l0.528,0.095c2.298,0.408,4.222,0.197,5.719-0.635
	c2.208-1.224,3.096-3.695,2.888-5.008c-0.091-0.576-0.439-1.136-0.775-1.678c-0.502-0.808-1.071-1.724-0.666-2.723
	c0.218-0.538,0.659-0.944,1.334-1.222c-0.396-0.676-1.22-1.746-2.14-1.746c-0.924,0-1.486,0.321-1.825,1.041L5.151,17.028
	l-1.303-0.742L11.365,3.1c0.559-1.192,1.659-1.85,3.155-1.85c1.795,0,3.017,1.77,3.471,2.557l1.618,0.241L19.512,5.54
	c-1.852,0.031-2.658,0.403-2.795,0.742c-0.119,0.292,0.206,0.815,0.549,1.368c0.396,0.637,0.845,1.359,0.984,2.234
	c0.323,2.05-0.95,5.061-3.642,6.555c-1.684,0.935-3.757,1.234-6.179,0.885L5.635,22.363z"/>
<path style="fill:#333333;" d="M9.515,14.738l-0.699-1.112c1.308-2.358,2.145-3.833,2.561-4.508c0.506-0.823,1.734-1.129,2.687-0.67
	c0.825,0.399,1.489,1.424,0.876,3.102C14.228,13.497,12.402,14.57,9.515,14.738z M13.105,9.731c-0.205,0-0.395,0.079-0.452,0.172
	c-0.317,0.517-0.922,1.574-1.804,3.151c1.418-0.312,2.3-0.979,2.681-2.02c0.137-0.374,0.302-1.032-0.121-1.237
	C13.313,9.751,13.207,9.731,13.105,9.731z"/>
</svg>






