<?xml version="1.0" encoding="iso-8859-1"?>
<svg version="1.1" id="&#x56FE;&#x5C42;_1" xmlns="http://www.w3.org/2000/svg" xmlns:xlink="http://www.w3.org/1999/xlink" x="0px"
	 y="0px" viewBox="0 0 24 24" style="enable-background:new 0 0 24 24;" xml:space="preserve">
<path style="fill:#333333;" d="M14.3,17.271l-0.6-1.375c0.985-0.431,1.766-1.211,2.196-2.196l1.375,0.6
	C16.688,15.634,15.634,16.688,14.3,17.271z"/>
<path style="fill:#333333;" d="M9.7,17.271c-1.333-0.583-2.388-1.638-2.971-2.972l1.375-0.6c0.431,0.985,1.211,1.766,2.197,2.196
	L9.7,17.271z"/>
<path style="fill:#333333;" d="M8.104,10.3L6.729,9.7C7.312,8.366,8.366,7.312,9.7,6.729L10.3,8.104
	C9.314,8.534,8.534,9.314,8.104,10.3z"/>
<path style="fill:#333333;" d="M15.896,10.3c-0.431-0.986-1.211-1.766-2.196-2.197l0.6-1.375c1.334,0.583,2.389,1.638,2.972,2.971
	L15.896,10.3z"/>
<path style="fill:#333333;" d="M15.25,21.195l-0.5-1.414c2.327-0.823,4.208-2.704,5.031-5.031l1.414,0.5
	C20.208,18.041,18.041,20.208,15.25,21.195z"/>
<path style="fill:#333333;" d="M8.75,21.195c-2.792-0.987-4.958-3.154-5.945-5.945l1.414-0.5c0.822,2.327,2.703,4.208,5.031,5.031
	L8.75,21.195z"/>
<path style="fill:#333333;" d="M4.219,9.25l-1.414-0.5C3.777,6,6,3.777,8.75,2.805l0.5,1.414C6.922,5.042,5.042,6.922,4.219,9.25z"
	/>
<path style="fill:#333333;" d="M19.781,9.25c-0.823-2.328-2.704-4.208-5.031-5.031l0.5-1.414c2.791,0.986,4.958,3.153,5.945,5.945
	L19.781,9.25z"/>
<path style="fill:#333333;" d="M13.5,9.25h-3L9.782,8.715l-1.5-5l0.094-0.631l1-1.5L10,1.25h4l0.624,0.334l1,1.5l0.095,0.631l-1.5,5
	L13.5,9.25z M11.058,7.75h1.884l1.238-4.127L13.599,2.75h-3.197L9.82,3.623L11.058,7.75z"/>
<path style="fill:#333333;" d="M3.715,15.719l-0.631-0.095l-1.5-1L1.25,14v-4l0.334-0.624l1.5-1l0.631-0.094l5,1.5L9.25,10.5v3
	l-0.535,0.719L3.715,15.719z M2.75,13.599l0.873,0.582l4.127-1.238v-1.884L3.623,9.82L2.75,10.401V13.599z"/>
<path style="fill:#333333;" d="M14,22.75h-4l-0.624-0.334l-1-1.5l-0.094-0.632l1.5-5L10.5,14.75h3l0.719,0.534l1.5,5l-0.095,0.632
	l-1,1.5L14,22.75z M10.401,21.25h3.197l0.582-0.872l-1.238-4.128h-1.884L9.82,20.378L10.401,21.25z"/>
<path style="fill:#333333;" d="M20.284,15.719l-5-1.5L14.75,13.5v-3l0.534-0.718l5-1.5l0.662,0.116
	c0.252,0.187,0.477,0.326,0.701,0.467c0.256,0.16,0.511,0.32,0.799,0.533L22.75,10v4l-0.304,0.603
	c-0.287,0.214-0.543,0.374-0.799,0.533c-0.225,0.141-0.448,0.28-0.701,0.467L20.284,15.719z M16.25,12.942l4.116,1.234
	c0.167-0.113,0.327-0.213,0.486-0.312c0.131-0.082,0.262-0.163,0.397-0.254V10.39c-0.137-0.09-0.267-0.172-0.397-0.254
	c-0.16-0.1-0.319-0.2-0.486-0.312l-4.116,1.235V12.942z"/>
</svg>






