<?xml version="1.0" encoding="iso-8859-1"?>
<svg version="1.1" id="&#x56FE;&#x5C42;_1" xmlns="http://www.w3.org/2000/svg" xmlns:xlink="http://www.w3.org/1999/xlink" x="0px"
	 y="0px" viewBox="0 0 24 24" style="enable-background:new 0 0 24 24;" xml:space="preserve">
<path style="fill:#333333;" d="M18.75,13.5h-1.5V4c0-1.517,1.233-2.75,2.75-2.75h2v1.5h-2c-0.689,0-1.25,0.561-1.25,1.25V13.5z"/>
<path style="fill:#333333;" d="M5.75,13.5h-1.5V4c0-1.517,1.233-2.75,2.75-2.75h2v1.5H7C6.311,2.75,5.75,3.311,5.75,4V13.5z"/>
<rect x="5" y="5.25" style="fill:#333333;" width="13" height="1.5"/>
<rect x="5" y="9.25" style="fill:#333333;" width="13" height="1.5"/>
<path style="fill:#333333;" d="M19.5,18.75c-0.548,0-1.096-0.139-1.606-0.414c-0.576-0.312-1.211-0.312-1.787,0
	c-1.02,0.551-2.193,0.551-3.213,0c-0.576-0.312-1.21-0.312-1.787,0c-1.021,0.551-2.192,0.551-3.214,0
	c-0.576-0.312-1.21-0.312-1.786,0c-1.021,0.551-2.192,0.551-3.214,0l-1.25-0.676l0.713-1.32l1.25,0.676
	c0.576,0.312,1.21,0.312,1.787,0c1.021-0.551,2.192-0.551,3.214,0c0.576,0.312,1.21,0.312,1.786,0c1.021-0.551,2.193-0.551,3.213,0
	c0.576,0.312,1.211,0.312,1.787,0c1.02-0.551,2.193-0.551,3.213,0c0.576,0.312,1.211,0.312,1.787,0l1.25-0.676l0.713,1.32
	l-1.25,0.676C20.597,18.611,20.048,18.75,19.5,18.75z"/>
<path style="fill:#333333;" d="M19.5,21.75c-0.548,0-1.096-0.139-1.606-0.414c-0.576-0.312-1.211-0.312-1.787,0
	c-1.02,0.551-2.193,0.551-3.213,0c-0.576-0.312-1.21-0.312-1.787,0c-1.021,0.551-2.192,0.551-3.214,0
	c-0.576-0.312-1.21-0.312-1.786,0c-1.021,0.551-2.192,0.551-3.214,0l-1.25-0.676l0.713-1.32l1.25,0.676
	c0.576,0.312,1.21,0.312,1.787,0c1.021-0.551,2.192-0.551,3.214,0c0.576,0.312,1.21,0.312,1.786,0c1.021-0.551,2.193-0.552,3.213,0
	c0.576,0.312,1.211,0.312,1.787,0c1.02-0.551,2.193-0.551,3.213,0c0.576,0.312,1.211,0.312,1.787,0l1.25-0.676l0.713,1.32
	l-1.25,0.676C20.597,21.611,20.048,21.75,19.5,21.75z"/>
</svg>






