<?xml version="1.0" encoding="iso-8859-1"?>
<svg version="1.1" id="&#x56FE;&#x5C42;_1" xmlns="http://www.w3.org/2000/svg" xmlns:xlink="http://www.w3.org/1999/xlink" x="0px"
	 y="0px" viewBox="0 0 24 24" style="enable-background:new 0 0 24 24;" xml:space="preserve">
<rect x="6.25" y="2" style="fill:#333333;" width="1.5" height="3.5"/>
<rect x="16.25" y="2" style="fill:#333333;" width="1.5" height="3.5"/>
<path style="fill:#333333;" d="M13.75,22.75h-4V22c0-2.022-2.604-3.25-3.75-3.25H5.25v-4h13.5v4H18c-1.226,0-4.25,1.295-4.25,3.25
	V22.75z M11.179,21.25h1.154c0.505-2.238,3.199-3.584,4.917-3.918V16.25H6.75v1.081C8.427,17.663,10.745,19.015,11.179,21.25z"/>
<path style="fill:#333333;" d="M7,13.25c-2.343,0-4.25-1.907-4.25-4.25S4.657,4.75,7,4.75S11.25,6.657,11.25,9S9.343,13.25,7,13.25z
	 M7,6.25C5.483,6.25,4.25,7.483,4.25,9S5.483,11.75,7,11.75S9.75,10.517,9.75,9S8.517,6.25,7,6.25z"/>
<path style="fill:#333333;" d="M17,13.25c-2.344,0-4.25-1.907-4.25-4.25S14.656,4.75,17,4.75S21.25,6.657,21.25,9
	S19.344,13.25,17,13.25z M17,6.25c-1.517,0-2.75,1.233-2.75,2.75s1.233,2.75,2.75,2.75s2.75-1.233,2.75-2.75S18.517,6.25,17,6.25z"
	/>
<rect x="10.5" y="8.25" style="fill:#333333;" width="3" height="1.5"/>
</svg>






