<?xml version="1.0" encoding="iso-8859-1"?>
<svg version="1.1" id="&#x56FE;&#x5C42;_1" xmlns="http://www.w3.org/2000/svg" xmlns:xlink="http://www.w3.org/1999/xlink" x="0px"
	 y="0px" viewBox="0 0 24 24" style="enable-background:new 0 0 24 24;" xml:space="preserve">
<g>
	<defs>
		<rect id="SVGID_1_" width="24" height="24"/>
	</defs>
	<clipPath id="SVGID_00000099637931703249170900000012954808404235688112_">
		<use xlink:href="#SVGID_1_"  style="overflow:visible;"/>
	</clipPath>
	<g style="clip-path:url(#SVGID_00000099637931703249170900000012954808404235688112_);">
		<path style="fill:#333333;" d="M11,22.25c-2.695,0-5.306-1.522-6.651-3.878l0,0C3.249,16.446,3.25,13.113,3.25,8.5
			c0-0.971,0.594-1.778,1.514-2.057c1.044-0.317,2.193,0.142,2.859,1.141C7.867,7.949,8.07,8.51,8.23,9.074l2.276-3.942
			c0.553-0.959,1.786-1.289,2.746-0.736C13.569,4.58,13.825,4.84,14,5.152c0.521-0.171,1.115-0.127,1.628,0.168
			c0.515,0.297,0.848,0.788,0.962,1.328c0.352-0.001,0.704,0.083,1.027,0.269c0.846,0.489,1.203,1.504,0.896,2.395
			c0.177,0.045,0.35,0.115,0.512,0.209c0.959,0.554,1.29,1.785,0.739,2.745l-4.585,7.98c-0.068,0.119-0.141,0.235-0.228,0.343
			C14.546,21.089,13.351,22.25,11,22.25z M5.436,7.845c-0.086,0-0.166,0.013-0.237,0.034C5.031,7.93,4.75,8.078,4.75,8.5
			c0,4.218-0.001,7.549,0.901,9.128l0,0C6.718,19.495,8.867,20.75,11,20.75c1.753,0,2.576-0.846,2.787-1.105
			c0.035-0.044,0.062-0.096,0.092-0.146l4.585-7.98c0.141-0.244,0.056-0.557-0.188-0.698c-0.118-0.068-0.255-0.086-0.388-0.051
			c-0.132,0.035-0.241,0.119-0.31,0.236l-0.001,0.002l-1.299-0.75v0l0.776-1.344c0.141-0.243,0.057-0.556-0.188-0.697
			c-0.245-0.142-0.558-0.057-0.697,0.188l-1.299-0.751c0,0,0.001-0.001,0.001-0.001l0.193-0.334
			c0.141-0.243,0.057-0.556-0.187-0.697c-0.245-0.142-0.557-0.057-0.697,0.187l-0.193,0.335c-0.001,0-0.001,0.001-0.001,0.001
			l-1.299-0.751l0,0l0.001-0.001c0.067-0.118,0.085-0.254,0.05-0.385c-0.035-0.132-0.119-0.242-0.237-0.31
			c-0.246-0.143-0.556-0.057-0.697,0.187l-3.248,5.625l-1.391-0.261c-0.127-0.827-0.455-2.327-0.791-2.83
			C6.092,7.991,5.73,7.845,5.436,7.845z"/>
		<path style="fill:#333333;" d="M21.15,7.587c-0.147-1.265-0.386-2.088-0.774-2.671c-0.595-0.893-1.46-1.349-2.093-1.682
			l-0.136-0.072l0.705-1.324l0.131,0.069c0.73,0.385,1.835,0.967,2.641,2.177c0.527,0.791,0.841,1.817,1.017,3.329L21.15,7.587z"/>
	</g>
</g>
</svg>






