<?xml version="1.0" encoding="iso-8859-1"?>
<svg version="1.1" id="&#x56FE;&#x5C42;_1" xmlns="http://www.w3.org/2000/svg" xmlns:xlink="http://www.w3.org/1999/xlink" x="0px"
	 y="0px" viewBox="0 0 24 24" style="enable-background:new 0 0 24 24;" xml:space="preserve">
<path style="fill:#333333;" d="M11.33,14.239c-0.695,0-1.429-0.301-2.131-0.9l-6.663-5.25l0.929-1.178l6.686,5.269
	c1.108,0.944,1.642,0.454,1.842,0.269c0.215-0.198,0.322-0.398,0.326-0.611c0.007-0.332-0.224-0.662-0.322-0.777L8.05,8.1l0.9-1.2
	l4.08,3.07c0.083,0.083,0.81,0.841,0.788,1.898c-0.013,0.625-0.293,1.208-0.811,1.684C12.51,14.011,11.934,14.239,11.33,14.239z"/>
<polygon style="fill:#333333;" points="18.495,9.555 13.21,4.75 2,4.75 2,3.25 13.79,3.25 19.505,8.445 "/>
<rect x="4.5" y="15.755" style="fill:#333333;" width="17.5" height="1.5"/>
<polygon style="fill:#333333;" points="22.75,20.75 3.75,20.75 3.75,9 5.25,9 5.25,19.25 21.25,19.25 21.25,9.75 11,9.75 11,8.25 
	22.75,8.25 "/>
</svg>






