<?xml version="1.0" encoding="iso-8859-1"?>
<svg version="1.1" id="&#x56FE;&#x5C42;_1" xmlns="http://www.w3.org/2000/svg" xmlns:xlink="http://www.w3.org/1999/xlink" x="0px"
	 y="0px" viewBox="0 0 24 24" style="enable-background:new 0 0 24 24;" xml:space="preserve">
<path style="fill:#333333;" d="M12,22.25C6.348,22.25,1.75,17.652,1.75,12C1.75,6.348,6.348,1.75,12,1.75
	c5.652,0,10.25,4.598,10.25,10.25C22.25,17.652,17.652,22.25,12,22.25z M12,3.25c-4.825,0-8.75,3.925-8.75,8.75
	c0,4.825,3.925,8.75,8.75,8.75c4.825,0,8.75-3.925,8.75-8.75C20.75,7.175,16.825,3.25,12,3.25z"/>
<path style="fill:#333333;" d="M15.373,15.676H8.626c-1.863,0-3.379-1.516-3.379-3.379c0-1.864,1.516-3.38,3.379-3.38h6.747
	c1.863,0,3.38,1.516,3.38,3.38C18.753,14.16,17.236,15.676,15.373,15.676z M8.626,10.417c-1.036,0-1.879,0.843-1.879,1.88
	c0,1.036,0.843,1.879,1.879,1.879h6.747c1.036,0,1.88-0.843,1.88-1.879c0-1.037-0.844-1.88-1.88-1.88H8.626z"/>
<path style="fill:#333333;" d="M15.503,15.676c-1.792,0-3.25-1.458-3.25-3.25s1.458-3.25,3.25-3.25s3.25,1.458,3.25,3.25
	S17.295,15.676,15.503,15.676z M15.503,10.676c-0.965,0-1.75,0.785-1.75,1.75s0.785,1.75,1.75,1.75s1.75-0.785,1.75-1.75
	S16.468,10.676,15.503,10.676z"/>
</svg>






