<?xml version="1.0" encoding="iso-8859-1"?>
<svg version="1.1" id="&#x56FE;&#x5C42;_1" xmlns="http://www.w3.org/2000/svg" xmlns:xlink="http://www.w3.org/1999/xlink" x="0px"
	 y="0px" viewBox="0 0 24 24" style="enable-background:new 0 0 24 24;" xml:space="preserve">
<polygon style="fill:#333333;" points="22.747,14.25 10.247,14.25 10.247,1.25 14.816,1.25 14.816,2.75 11.747,2.75 11.747,12.75 
	21.247,12.75 21.247,10.481 22.747,10.481 "/>
<polygon style="fill:#333333;" points="16.789,9.776 13.978,7.039 15.024,5.964 16.775,7.668 21.97,2.47 23.03,3.53 "/>
<path style="fill:#333333;" d="M15.003,22.75H8.829c-0.759,0-2.177-0.194-3.154-1.492C5.062,20.443,4.752,19.348,4.752,18v-5.5h1.5
	V18c0,1.015,0.209,1.808,0.621,2.356c0.585,0.777,1.477,0.894,1.956,0.894h6.174V22.75z"/>
<polygon style="fill:#333333;" points="8.977,17.03 5.502,13.561 2.03,17.03 0.97,15.97 5.502,11.44 10.037,15.97 "/>
</svg>






