<?xml version="1.0" encoding="iso-8859-1"?>
<svg version="1.1" id="&#x56FE;&#x5C42;_1" xmlns="http://www.w3.org/2000/svg" xmlns:xlink="http://www.w3.org/1999/xlink" x="0px"
	 y="0px" viewBox="0 0 24 24" style="enable-background:new 0 0 24 24;" xml:space="preserve">
<path style="fill:#333333;" d="M18,10.75H6c-2.619,0-4.75-2.131-4.75-4.75S3.381,1.25,6,1.25h12c2.619,0,4.75,2.131,4.75,4.75
	S20.619,10.75,18,10.75z M6,2.75C4.208,2.75,2.75,4.208,2.75,6S4.208,9.25,6,9.25h12c1.792,0,3.25-1.458,3.25-3.25
	S19.792,2.75,18,2.75H6z"/>
<path style="fill:#333333;" d="M18,22.75H6c-2.619,0-4.75-2.131-4.75-4.75S3.381,13.25,6,13.25h12c2.619,0,4.75,2.131,4.75,4.75
	S20.619,22.75,18,22.75z M6,14.75c-1.792,0-3.25,1.458-3.25,3.25S4.208,21.25,6,21.25h12c1.792,0,3.25-1.458,3.25-3.25
	s-1.458-3.25-3.25-3.25H6z"/>
<path style="fill:#333333;" d="M18,7.75c-0.965,0-1.75-0.785-1.75-1.75S17.035,4.25,18,4.25S19.75,5.035,19.75,6
	S18.965,7.75,18,7.75z M18,5.75c-0.138,0-0.25,0.112-0.25,0.25c0,0.275,0.5,0.275,0.5,0C18.25,5.862,18.138,5.75,18,5.75z"/>
<path style="fill:#333333;" d="M6,19.75c-0.965,0-1.75-0.785-1.75-1.75S5.035,16.25,6,16.25S7.75,17.035,7.75,18
	S6.965,19.75,6,19.75z M6,17.75c-0.138,0-0.25,0.112-0.25,0.25c0,0.275,0.5,0.275,0.5,0C6.25,17.862,6.138,17.75,6,17.75z"/>
</svg>






