<?xml version="1.0" encoding="iso-8859-1"?>
<svg version="1.1" id="&#x56FE;&#x5C42;_1" xmlns="http://www.w3.org/2000/svg" xmlns:xlink="http://www.w3.org/1999/xlink" x="0px"
	 y="0px" viewBox="0 0 24 24" style="enable-background:new 0 0 24 24;" xml:space="preserve">
<path style="fill:#333333;" d="M22,20.752h-6.997l-0.431-1.364C17.72,17.182,19.25,14.765,19.25,12c0-4.065-3.183-7.25-7.246-7.25
	C7.801,4.75,4.75,7.799,4.75,12c0,2.907,1.525,5.32,4.663,7.375l-0.411,1.377H2v-1.5h4.77C4.433,17.192,3.25,14.761,3.25,12
	c0-4.988,3.763-8.75,8.754-8.75c4.904,0,8.746,3.843,8.746,8.75c0,2.666-1.207,5.098-3.595,7.252H22V20.752z"/>
</svg>






