<?xml version="1.0" encoding="iso-8859-1"?>
<svg version="1.1" id="&#x56FE;&#x5C42;_1" xmlns="http://www.w3.org/2000/svg" xmlns:xlink="http://www.w3.org/1999/xlink" x="0px"
	 y="0px" viewBox="0 0 24 24" style="enable-background:new 0 0 24 24;" xml:space="preserve">
<path style="fill:#333333;" d="M18.25,22.75H4c-1.241,0-2.25-1.01-2.25-2.25v-17c0-1.241,1.009-2.25,2.25-2.25h12
	c1.24,0,2.25,1.009,2.25,2.25V22.75z M4,2.75c-0.414,0-0.75,0.336-0.75,0.75v17c0,0.413,0.336,0.75,0.75,0.75h12.75V3.5
	c0-0.414-0.337-0.75-0.75-0.75H4z"/>
<path style="fill:#333333;" d="M20,22.75h-3.25V12c0-0.965,0.785-1.75,1.75-1.75h2c0.965,0,1.75,0.785,1.75,1.75v8.5
	C22.25,21.74,21.24,22.75,20,22.75z M18.25,21.25H20c0.413,0,0.75-0.337,0.75-0.75V12c0-0.138-0.112-0.25-0.25-0.25h-2
	c-0.138,0-0.25,0.112-0.25,0.25V21.25z"/>
<rect x="5.5" y="5.25" style="fill:#333333;" width="4" height="1.5"/>
<rect x="5.5" y="8.75" style="fill:#333333;" width="6" height="1.5"/>
</svg>






