<?xml version="1.0" encoding="iso-8859-1"?>
<svg version="1.1" id="&#x56FE;&#x5C42;_1" xmlns="http://www.w3.org/2000/svg" xmlns:xlink="http://www.w3.org/1999/xlink" x="0px"
	 y="0px" viewBox="0 0 24 24" style="enable-background:new 0 0 24 24;" xml:space="preserve">
<path style="fill:#333333;" d="M21,21.75H3c-0.965,0-1.75-0.785-1.75-1.75V4c0-0.965,0.785-1.75,1.75-1.75h18
	c0.965,0,1.75,0.785,1.75,1.75v16C22.75,20.965,21.965,21.75,21,21.75z M3,3.75C2.862,3.75,2.75,3.862,2.75,4v16
	c0,0.138,0.112,0.25,0.25,0.25h18c0.138,0,0.25-0.112,0.25-0.25V4c0-0.138-0.112-0.25-0.25-0.25H3z"/>
<rect x="2" y="8.25" style="fill:#333333;" width="20" height="1.5"/>
<rect x="8" y="9" style="fill:#333333;" width="1.5" height="12"/>
<rect x="14.5" y="9" style="fill:#333333;" width="1.5" height="12"/>
<rect x="2" y="14.25" style="fill:#333333;" width="20" height="1.5"/>
<path style="fill:#333333;" d="M21,21.75H3c-0.965,0-1.75-0.785-1.75-1.75V4h1.5v16c0,0.138,0.112,0.25,0.25,0.25h18
	c0.138,0,0.25-0.112,0.25-0.25V4h1.5v16C22.75,20.965,21.965,21.75,21,21.75z"/>
</svg>






