<?xml version="1.0" encoding="iso-8859-1"?>
<svg version="1.1" id="&#x56FE;&#x5C42;_1" xmlns="http://www.w3.org/2000/svg" xmlns:xlink="http://www.w3.org/1999/xlink" x="0px"
	 y="0px" viewBox="0 0 24 24" style="enable-background:new 0 0 24 24;" xml:space="preserve">
<path style="fill:#333333;" d="M13.358,22.354c-0.683,0-1.323-0.266-1.805-0.749L3.25,13.311V3.25h10.061l8.305,8.305
	c0.987,0.992,0.987,2.605,0.002,3.597l-0.002,0.001l-6.453,6.453C14.68,22.088,14.039,22.354,13.358,22.354z M4.75,12.689
	l7.865,7.855c0.396,0.396,1.092,0.396,1.486,0l6.453-6.453c0.404-0.407,0.403-1.07-0.002-1.478L12.689,4.75H4.75V12.689z"/>
<path style="fill-rule:evenodd;clip-rule:evenodd;fill:#333333;" d="M9.25,10.5c0.69,0,1.25-0.56,1.25-1.25S9.94,8,9.25,8
	S8,8.56,8,9.25S8.56,10.5,9.25,10.5z"/>
</svg>






