<?xml version="1.0" encoding="iso-8859-1"?>
<svg version="1.1" id="&#x56FE;&#x5C42;_1" xmlns="http://www.w3.org/2000/svg" xmlns:xlink="http://www.w3.org/1999/xlink" x="0px"
	 y="0px" viewBox="0 0 24 24" style="enable-background:new 0 0 24 24;" xml:space="preserve">
<path style="fill:#333333;" d="M3.75,22h-1.5v-7c0-0.965,0.785-1.75,1.75-1.75h4v1.5H4c-0.138,0-0.25,0.112-0.25,0.25V22z"/>
<path style="fill:#333333;" d="M21.75,22h-1.5v-7c0-0.138-0.112-0.25-0.25-0.25h-4v-1.5h4c0.965,0,1.75,0.785,1.75,1.75V22z"/>
<path style="fill:#333333;" d="M14.332,12.75H9.668l-0.223-0.245c-0.481-0.53-2.848-3.271-2.153-5.253
	C7.637,6.269,8.285,5.639,8.911,5.03c0.18-0.175,0.363-0.353,0.542-0.543c0.786-0.834,1.977-1.979,2.027-2.027L12,1.96l0.519,0.499
	c0.051,0.048,1.242,1.192,2.027,2.027c0.181,0.192,0.364,0.37,0.544,0.545c0.625,0.608,1.272,1.238,1.618,2.221
	c0.695,1.982-1.672,4.724-2.153,5.253L14.332,12.75z M10.34,11.25h3.319c0.883-1.05,1.906-2.724,1.633-3.501
	c-0.229-0.65-0.701-1.11-1.248-1.643c-0.195-0.19-0.395-0.384-0.591-0.592C13.012,5.044,12.42,4.457,12,4.045
	c-0.42,0.412-1.012,0.999-1.454,1.469c-0.195,0.208-0.395,0.401-0.589,0.591c-0.548,0.533-1.021,0.993-1.25,1.644
	C8.435,8.526,9.458,10.2,10.34,11.25z"/>
<rect x="2" y="21.25" style="fill:#333333;" width="20" height="1.5"/>
<path style="fill:#333333;" d="M16.75,22.75h-9.5v-11.5h9.5V22.75z M8.75,21.25h6.5v-8.5h-6.5V21.25z"/>
<rect x="11.25" y="17" style="fill:#333333;" width="1.5" height="5"/>
<rect x="11.25" y="2" style="fill:#333333;" width="1.5" height="1.5"/>
<rect x="4.25" y="12" style="fill:#333333;" width="1.5" height="2"/>
<rect x="18.25" y="12" style="fill:#333333;" width="1.5" height="2"/>
<rect x="10" y="21.25" style="fill:#333333;" width="4" height="1.5"/>
</svg>






