<?xml version="1.0" encoding="iso-8859-1"?>
<svg version="1.1" id="&#x56FE;&#x5C42;_1" xmlns="http://www.w3.org/2000/svg" xmlns:xlink="http://www.w3.org/1999/xlink" x="0px"
	 y="0px" viewBox="0 0 24 24" style="enable-background:new 0 0 24 24;" xml:space="preserve">
<path style="fill:#333333;" d="M6.217,17.465c-0.523,0-1.042-0.184-1.459-0.538l-4.206-3.584l2.96-1.135
	c0.474-0.182,1.002-0.198,1.49-0.043l1.639,0.523c0.189,0.062,0.39,0.045,0.567-0.046L18.34,6.994
	c0.315-0.159,0.667-0.244,1.019-0.244h3.855l-1.319,2.638c-0.217,0.433-0.574,0.79-1.007,1.006l-4.553,2.276l-0.67-1.342
	l4.553-2.276c0.144-0.072,0.263-0.191,0.335-0.336l0.233-0.467h-1.428c-0.117,0-0.234,0.028-0.34,0.082L7.888,13.98
	c-0.53,0.27-1.135,0.317-1.703,0.138l-1.639-0.523c-0.162-0.054-0.338-0.049-0.496,0.014l-0.603,0.23l2.283,1.945
	c0.23,0.197,0.553,0.236,0.822,0.101l4.112-2.056l0.671,1.342l-4.112,2.056C6.904,17.387,6.56,17.465,6.217,17.465z"/>
<polygon style="fill:#333333;" points="12.163,20.851 10.829,20.835 7.994,15.164 10.665,13.829 11.336,15.171 10.006,15.836 
	11.519,18.861 15.337,11.649 16.663,12.351 "/>
<polygon style="fill:#333333;" points="7.844,12.864 5.344,8.364 6.182,7.272 14.182,9.272 13.818,10.728 7.495,9.147 9.156,12.136 
	"/>
</svg>






