<?xml version="1.0" encoding="iso-8859-1"?>
<svg version="1.1" id="&#x56FE;&#x5C42;_1" xmlns="http://www.w3.org/2000/svg" xmlns:xlink="http://www.w3.org/1999/xlink" x="0px"
	 y="0px" viewBox="0 0 24 24" style="enable-background:new 0 0 24 24;" xml:space="preserve">
<path style="fill:#333333;" d="M4.25,9.5h-1.5V6c0-1.241,1.009-2.25,2.25-2.25S7.25,4.759,7.25,6v1.5h-1.5V6
	c0-0.414-0.336-0.75-0.75-0.75S4.25,5.586,4.25,6V9.5z"/>
<path style="fill:#333333;" d="M14.75,20.25H1.25V13.5c0-3.722,3.028-6.75,6.75-6.75s6.75,3.028,6.75,6.75V20.25z M2.75,18.75h10.5
	V13.5c0-2.895-2.355-5.25-5.25-5.25s-5.25,2.355-5.25,5.25V18.75z"/>
<path style="fill:#333333;" d="M22.75,20.25h-9.5v-7.5h9.5V20.25z M14.75,18.75h6.5v-4.5h-6.5V18.75z"/>
<path style="fill:#333333;" d="M8,16.25c-1.517,0-2.75-1.233-2.75-2.75S6.483,10.75,8,10.75s2.75,1.233,2.75,2.75
	S9.517,16.25,8,16.25z M8,12.25c-0.689,0-1.25,0.561-1.25,1.25S7.311,14.75,8,14.75s1.25-0.561,1.25-1.25S8.689,12.25,8,12.25z"/>
<rect x="18.75" y="13.5" style="fill:#333333;" width="1.5" height="2"/>
<rect x="15.75" y="13.5" style="fill:#333333;" width="1.5" height="2"/>
<rect x="15" y="12.75" style="fill:#333333;" width="6" height="1.5"/>
</svg>






