<?xml version="1.0" encoding="iso-8859-1"?>
<svg version="1.1" id="&#x56FE;&#x5C42;_1" xmlns="http://www.w3.org/2000/svg" xmlns:xlink="http://www.w3.org/1999/xlink" x="0px"
	 y="0px" viewBox="0 0 24 24" style="enable-background:new 0 0 24 24;" xml:space="preserve">
<path style="fill:#333333;" d="M12,21.25c-5.101,0-9.25-4.149-9.25-9.25S6.899,2.75,12,2.75s9.25,4.149,9.25,9.25
	S17.101,21.25,12,21.25z M12,4.25c-4.273,0-7.75,3.477-7.75,7.75s3.477,7.75,7.75,7.75s7.75-3.477,7.75-7.75S16.273,4.25,12,4.25z"
	/>
<path style="fill:#333333;" d="M12,16.75c-2.619,0-4.75-2.131-4.75-4.75S9.381,7.25,12,7.25s4.75,2.131,4.75,4.75
	S14.619,16.75,12,16.75z M12,8.75c-1.792,0-3.25,1.458-3.25,3.25s1.458,3.25,3.25,3.25s3.25-1.458,3.25-3.25S13.792,8.75,12,8.75z"
	/>
<rect x="2" y="11.25" style="fill:#333333;" width="20" height="1.5"/>
<rect x="11.25" y="2" style="fill:#333333;" width="1.5" height="20"/>
</svg>






