<?xml version="1.0" encoding="iso-8859-1"?>
<svg version="1.1" id="&#x56FE;&#x5C42;_1" xmlns="http://www.w3.org/2000/svg" xmlns:xlink="http://www.w3.org/1999/xlink" x="0px"
	 y="0px" viewBox="0 0 24 24" style="enable-background:new 0 0 24 24;" xml:space="preserve">
<path style="fill:#333333;" d="M11.944,20.694c-4.825,0-8.75-3.925-8.75-8.75c0-4.825,3.925-8.75,8.75-8.75
	c4.825,0,8.75,3.925,8.75,8.75C20.694,16.77,16.77,20.694,11.944,20.694z M11.944,4.694c-3.998,0-7.25,3.252-7.25,7.25
	c0,3.998,3.252,7.25,7.25,7.25c3.998,0,7.25-3.252,7.25-7.25C19.194,7.947,15.942,4.694,11.944,4.694z"/>
<path style="fill:#333333;" d="M11.944,16.694c-2.619,0-4.75-2.131-4.75-4.75s2.131-4.75,4.75-4.75s4.75,2.131,4.75,4.75
	S14.563,16.694,11.944,16.694z M11.944,8.694c-1.792,0-3.25,1.458-3.25,3.25s1.458,3.25,3.25,3.25s3.25-1.458,3.25-3.25
	S13.736,8.694,11.944,8.694z"/>
<path style="fill:#333333;" d="M11.944,12.944c0.55,0,1-0.45,1-1s-0.45-1-1-1s-1,0.45-1,1S11.394,12.944,11.944,12.944z"/>
<rect x="11.194" y="1.944" style="fill:#333333;" width="1.5" height="2"/>
<rect x="17.194" y="18.179" transform="matrix(0.8682 -0.4961 0.4961 0.8682 -7.6549 11.5636)" style="fill:#333333;" width="1.5" height="4.031"/>
<rect x="3.929" y="19.444" transform="matrix(0.496 -0.8683 0.8683 0.496 -14.5393 15.3396)" style="fill:#333333;" width="4.031" height="1.5"/>
</svg>






