<?xml version="1.0" encoding="iso-8859-1"?>
<svg version="1.1" id="&#x56FE;&#x5C42;_1" xmlns="http://www.w3.org/2000/svg" xmlns:xlink="http://www.w3.org/1999/xlink" x="0px"
	 y="0px" viewBox="0 0 24 24" style="enable-background:new 0 0 24 24;" xml:space="preserve">
<path style="fill:#333333;" d="M12,15.75c-2.068,0-3.75-1.683-3.75-3.75c0-1.437,0.838-2.766,2.135-3.385l0.646,1.354
	C10.253,10.34,9.75,11.138,9.75,12c0,1.24,1.009,2.25,2.25,2.25c0.862,0,1.66-0.504,2.032-1.282l1.354,0.646
	C14.766,14.912,13.437,15.75,12,15.75z"/>
<path style="fill:#333333;" d="M12,19.25c-3.998,0-7.25-3.252-7.25-7.25c0-3.998,3.252-7.25,7.25-7.25
	c0.817,0,1.62,0.135,2.387,0.402l-0.494,1.416C13.286,6.357,12.649,6.25,12,6.25c-3.17,0-5.75,2.58-5.75,5.75
	c0,3.171,2.58,5.75,5.75,5.75c3.171,0,5.75-2.579,5.75-5.75c0-0.649-0.107-1.286-0.318-1.893l1.416-0.493
	c0.267,0.766,0.402,1.568,0.402,2.386C19.25,15.998,15.998,19.25,12,19.25z"/>
<path style="fill:#333333;" d="M12,22.75C6.072,22.75,1.25,17.928,1.25,12S6.072,1.25,12,1.25c1.796,0,3.574,0.452,5.144,1.308
	l-0.719,1.317C15.076,3.139,13.546,2.75,12,2.75c-5.101,0-9.25,4.149-9.25,9.25s4.149,9.25,9.25,9.25s9.25-4.149,9.25-9.25
	c0-1.547-0.389-3.077-1.124-4.424l1.316-0.719C22.298,8.424,22.75,10.203,22.75,12C22.75,17.928,17.928,22.75,12,22.75z"/>
<rect x="9.929" y="6.25" transform="matrix(0.7071 -0.7071 0.7071 0.7071 0.0294 14.0711)" style="fill:#333333;" width="14.142" height="1.5"/>
</svg>






