<?xml version="1.0" encoding="iso-8859-1"?>
<svg version="1.1" id="&#x56FE;&#x5C42;_1" xmlns="http://www.w3.org/2000/svg" xmlns:xlink="http://www.w3.org/1999/xlink" x="0px"
	 y="0px" viewBox="0 0 24 24" style="enable-background:new 0 0 24 24;" xml:space="preserve">
<path style="fill:#333333;" d="M12,20.75c-2.895,0-5.25-2.355-5.25-5.25s2.355-5.25,5.25-5.25c2.895,0,5.25,2.355,5.25,5.25
	S14.895,20.75,12,20.75z M12,11.75c-2.068,0-3.75,1.683-3.75,3.75s1.682,3.75,3.75,3.75c2.067,0,3.75-1.683,3.75-3.75
	S14.067,11.75,12,11.75z"/>
<path style="fill:#333333;" d="M12,11.75C6.072,11.75,1.25,8.273,1.25,4h1.5c0,3.446,4.149,6.25,9.25,6.25S21.25,7.446,21.25,4h1.5
	C22.75,8.273,17.928,11.75,12,11.75z"/>
</svg>






