<?xml version="1.0" encoding="iso-8859-1"?>
<svg version="1.1" id="&#x56FE;&#x5C42;_1" xmlns="http://www.w3.org/2000/svg" xmlns:xlink="http://www.w3.org/1999/xlink" x="0px"
	 y="0px" viewBox="0 0 24 24" style="enable-background:new 0 0 24 24;" xml:space="preserve">
<path style="fill:#333333;" d="M10,21.75c-5.923,0-9.75-4.612-9.75-11.75V9.25h19.5V10C19.75,17.138,15.923,21.75,10,21.75z
	 M1.767,10.75c0.211,4.725,2.457,9.5,8.233,9.5s8.021-4.775,8.233-9.5H1.767z"/>
<rect x="9.25" y="3" style="fill:#333333;" width="1.5" height="4"/>
<rect x="14.25" y="5" style="fill:#333333;" width="1.5" height="2"/>
<rect x="4.25" y="5" style="fill:#333333;" width="1.5" height="2"/>
<path style="fill:#333333;" d="M19.5,16.25c-0.557,0-1.098-0.073-1.608-0.217l-0.791-0.223l0.294-0.768
	c0.464-1.21,0.742-2.576,0.827-4.061l0.037-0.642l0.641-0.062c0.196-0.019,0.396-0.029,0.601-0.029c2.383,0,4.25,1.318,4.25,3
	C23.75,14.933,21.883,16.25,19.5,16.25z M19.086,14.732c0.137,0.012,0.274,0.018,0.414,0.018c1.621,0,2.75-0.79,2.75-1.5
	c0-0.685-1.053-1.445-2.583-1.497C19.565,12.805,19.371,13.802,19.086,14.732z"/>
</svg>






