<?xml version="1.0" encoding="iso-8859-1"?>
<svg version="1.1" id="&#x56FE;&#x5C42;_1" xmlns="http://www.w3.org/2000/svg" xmlns:xlink="http://www.w3.org/1999/xlink" x="0px"
	 y="0px" viewBox="0 0 24 24" style="enable-background:new 0 0 24 24;" xml:space="preserve">
<path style="fill:#333333;" d="M11.5,21.75c-3.722,0-6.75-3.028-6.75-6.75V9.083c0-0.459,0.374-0.833,0.833-0.833h11.833
	c0.46,0,0.834,0.374,0.834,0.833V15C18.25,18.722,15.222,21.75,11.5,21.75z M6.25,9.75V15c0,2.895,2.355,5.25,5.25,5.25
	c2.895,0,5.25-2.355,5.25-5.25V9.75H6.25z"/>
<path style="fill:#333333;" d="M17.5,15.75v-1.5c1.24,0,2.25-1.01,2.25-2.25c0-1.241-1.01-2.25-2.25-2.25v-1.5
	c2.067,0,3.75,1.682,3.75,3.75C21.25,14.067,19.567,15.75,17.5,15.75z"/>
<rect x="4.75" y="4" style="fill:#333333;" width="1.5" height="1.5"/>
<rect x="16.75" y="4" style="fill:#333333;" width="1.5" height="1.5"/>
<rect x="10.75" y="2.5" style="fill:#333333;" width="1.5" height="3"/>
</svg>






