<?xml version="1.0" encoding="iso-8859-1"?>
<svg version="1.1" id="&#x56FE;&#x5C42;_1" xmlns="http://www.w3.org/2000/svg" xmlns:xlink="http://www.w3.org/1999/xlink" x="0px"
	 y="0px" viewBox="0 0 24 24" style="enable-background:new 0 0 24 24;" xml:space="preserve">
<path style="fill:#333333;" d="M20.177,13.25H2.825l0.264-0.95C4.157,8.443,7.617,5.75,11.5,5.75c3.883,0,7.343,2.693,8.413,6.55
	L20.177,13.25z M4.866,11.75h13.27c-1.146-2.693-3.751-4.5-6.635-4.5C8.616,7.25,6.011,9.058,4.866,11.75z"/>
<path style="fill:#333333;" d="M17.641,21.25H5.36l-0.223-0.244c-1.539-1.685-2.387-3.89-2.387-6.21
	c0-0.848,0.114-1.688,0.338-2.496l0.152-0.55h16.52l0.152,0.55c0.225,0.809,0.338,1.648,0.338,2.496c0,2.319-0.848,4.525-2.388,6.21
	L17.641,21.25z M6.031,19.75H16.97c1.15-1.374,1.781-3.12,1.781-4.954c0-0.521-0.051-1.039-0.152-1.546H4.403
	c-0.101,0.507-0.152,1.024-0.152,1.546C4.25,16.63,4.88,18.376,6.031,19.75z"/>
<path style="fill:#333333;" d="M14.25,6.5h-1.5v-1c0-0.689-0.561-1.25-1.25-1.25s-1.25,0.561-1.25,1.25v1h-1.5v-1
	c0-1.517,1.233-2.75,2.75-2.75s2.75,1.233,2.75,2.75V6.5z"/>
<path style="fill:#333333;" d="M3.451,14.748c-0.539-0.035-1.597-0.434-2.141-1.702c-0.669-1.561-0.072-2.676,0.455-3.66
	C1.968,9.007,2.16,8.649,2.289,8.263c0.233-0.699-0.257-1.26-0.57-1.531C1.421,6.472,1.251,6.109,1.25,5.735V5.424
	c0-0.654,0.502-1.186,1.143-1.21C3.107,4.185,4.13,4.285,4.95,4.9c1.188,0.891,1.725,3.179,1.782,3.438L5.269,8.663
	C5.097,7.896,4.614,6.523,4.05,6.1C3.692,5.832,3.214,5.741,2.832,5.717c0.513,0.489,1.364,1.567,0.879,3.02
	c-0.169,0.507-0.41,0.958-0.624,1.356c-0.515,0.962-0.766,1.503-0.398,2.361c0.304,0.711,0.821,0.792,0.879,0.799L3.451,14.748z"/>
<rect x="4.5" y="19.75" style="fill:#333333;" width="14" height="1.5"/>
<path style="fill:#333333;" d="M19.5,13.25v-1.5c0.965,0,1.75-0.785,1.75-1.75s-0.785-1.75-1.75-1.75
	c-0.696,0-1.326,0.412-1.604,1.05L16.521,8.7c0.518-1.185,1.688-1.95,2.979-1.95c1.792,0,3.25,1.458,3.25,3.25
	S21.292,13.25,19.5,13.25z"/>
</svg>






