<?xml version="1.0" encoding="iso-8859-1"?>
<svg version="1.1" id="&#x56FE;&#x5C42;_1" xmlns="http://www.w3.org/2000/svg" xmlns:xlink="http://www.w3.org/1999/xlink" x="0px"
	 y="0px" viewBox="0 0 24 24" style="enable-background:new 0 0 24 24;" xml:space="preserve">
<path style="fill:#333333;" d="M16.5,22.25c-1.554,0-2.527-2.44-3.559-5.023c-0.286-0.718-0.65-1.632-0.928-2.157
	c-0.34,0.586-0.813,1.674-1.154,2.458C9.586,20.455,8.743,22.25,7.5,22.25c-2.426,0-3.03-3.125-3.273-5.476
	c-0.169-1.639-0.462-2.649-0.947-4.325c-0.157-0.54-0.482-1.159-0.826-1.814C1.888,9.56,1.304,8.449,1.251,7.311
	c-0.066-1.418,0.424-2.776,1.38-3.826s2.263-1.663,3.681-1.729C6.393,1.752,6.476,1.75,6.559,1.75l0.553,0.008
	c1.24,0.183,2.045,0.612,2.756,0.991c0.702,0.375,1.256,0.67,2.133,0.67c0.877,0,1.432-0.295,2.134-0.67
	c0.71-0.378,1.516-0.808,2.756-0.991l0.36-0.008c3.032,0,5.5,2.467,5.5,5.5v0.313c0,1.038-0.579,2.055-1.139,3.039
	c-0.356,0.625-0.724,1.271-0.891,1.847c-0.477,1.647-0.791,2.941-0.883,4.299C19.49,21.854,17.195,22.25,16.5,22.25z M12.031,13.263
	c0.944,0,1.427,1.211,2.304,3.408c0.471,1.18,1.573,3.942,2.177,4.08c0.766-0.001,1.637-1.27,1.83-4.104
	c0.101-1.486,0.447-2.919,0.938-4.613c0.217-0.748,0.629-1.472,1.028-2.173c0.463-0.814,0.942-1.656,0.942-2.297V7.25
	c0-2.206-1.794-4-4-4h-0.194c-0.953,0.149-1.567,0.477-2.217,0.823C14.059,4.489,13.252,4.919,12,4.919
	c-1.251,0-2.058-0.43-2.838-0.846C8.512,3.727,7.898,3.399,6.945,3.25L6.383,3.254C5.364,3.301,4.426,3.742,3.74,4.495
	S2.702,6.223,2.749,7.241c0.038,0.805,0.543,1.767,1.032,2.696c0.364,0.692,0.74,1.409,0.939,2.095
	c0.508,1.756,0.815,2.815,0.999,4.588c0.284,2.74,0.883,4.13,1.781,4.13c0.423-0.23,1.438-2.566,1.984-3.821
	C10.589,14.387,11.116,13.263,12.031,13.263z"/>
<rect x="11.121" y="3.225" transform="matrix(0.3069 -0.9518 0.9518 0.3069 1.0297 16.5403)" style="fill:#333333;" width="1.5" height="8.677"/>
<rect x="7.532" y="6.813" transform="matrix(0.9518 -0.3066 0.3066 0.9518 -1.7473 4.0044)" style="fill:#333333;" width="8.678" height="1.5"/>
</svg>






