<?xml version="1.0" encoding="iso-8859-1"?>
<svg version="1.1" id="&#x56FE;&#x5C42;_1" xmlns="http://www.w3.org/2000/svg" xmlns:xlink="http://www.w3.org/1999/xlink" x="0px"
	 y="0px" viewBox="0 0 24 24" style="enable-background:new 0 0 24 24;" xml:space="preserve">
<path style="fill:#333333;" d="M6,22.25c-2.068,0-3.75-1.683-3.75-3.75v-13c0-2.068,1.682-3.75,3.75-3.75S9.75,3.432,9.75,5.5v13
	C9.75,20.567,8.068,22.25,6,22.25z M6,3.25c-1.241,0-2.25,1.009-2.25,2.25v13c0,1.24,1.009,2.25,2.25,2.25s2.25-1.01,2.25-2.25v-13
	C8.25,4.259,7.241,3.25,6,3.25z"/>
<path style="fill:#333333;" d="M18,22.25c-2.067,0-3.75-1.683-3.75-3.75v-13c0-2.068,1.683-3.75,3.75-3.75s3.75,1.682,3.75,3.75v13
	C21.75,20.567,20.067,22.25,18,22.25z M18,3.25c-1.24,0-2.25,1.009-2.25,2.25v13c0,1.24,1.01,2.25,2.25,2.25s2.25-1.01,2.25-2.25
	v-13C20.25,4.259,19.24,3.25,18,3.25z"/>
<path style="fill:#333333;" d="M6,22.25c-2.068,0-3.75-1.683-3.75-3.75S3.932,14.75,6,14.75s3.75,1.683,3.75,3.75
	S8.068,22.25,6,22.25z M6,16.25c-1.241,0-2.25,1.01-2.25,2.25S4.759,20.75,6,20.75s2.25-1.01,2.25-2.25S7.241,16.25,6,16.25z"/>
<path style="fill:#333333;" d="M18,22.25c-2.067,0-3.75-1.683-3.75-3.75s1.683-3.75,3.75-3.75s3.75,1.683,3.75,3.75
	S20.067,22.25,18,22.25z M18,16.25c-1.24,0-2.25,1.01-2.25,2.25s1.01,2.25,2.25,2.25s2.25-1.01,2.25-2.25S19.24,16.25,18,16.25z"/>
<path style="fill:#333333;" d="M15.75,10.5h-1.5c0-1.241-1.01-2.25-2.25-2.25c-1.241,0-2.25,1.009-2.25,2.25h-1.5
	c0-2.068,1.682-3.75,3.75-3.75C14.067,6.75,15.75,8.432,15.75,10.5z"/>
<path style="fill:#333333;" d="M15.75,15.5h-1.5c0-1.24-1.01-2.25-2.25-2.25c-1.241,0-2.25,1.01-2.25,2.25h-1.5
	c0-2.067,1.682-3.75,3.75-3.75C14.067,11.75,15.75,13.433,15.75,15.5z"/>
</svg>






