<?xml version="1.0" encoding="iso-8859-1"?>
<svg version="1.1" id="&#x56FE;&#x5C42;_1" xmlns="http://www.w3.org/2000/svg" xmlns:xlink="http://www.w3.org/1999/xlink" x="0px"
	 y="0px" viewBox="0 0 24 24" style="enable-background:new 0 0 24 24;" xml:space="preserve">
<path style="fill:#333333;" d="M12,22.75C6.072,22.75,1.25,17.928,1.25,12S6.072,1.25,12,1.25S22.75,6.072,22.75,12
	S17.928,22.75,12,22.75z M12,2.75c-5.101,0-9.25,4.149-9.25,9.25s4.149,9.25,9.25,9.25s9.25-4.149,9.25-9.25S17.101,2.75,12,2.75z"
	/>
<path style="fill:#333333;" d="M2,12.754v-1.5c3.213,0,5.568-0.763,7.001-2.269c1.445-1.519,2.202-3.873,2.249-6.997l1.5,0.022
	c-0.053,3.513-0.949,6.207-2.662,8.008C8.36,11.834,5.639,12.754,2,12.754z"/>
<path style="fill:#333333;" d="M11.251,22.009c-0.043-3.527,0.884-6.207,2.755-7.965c1.871-1.756,4.573-2.527,8.03-2.289
	l-0.104,1.496c-3.021-0.205-5.345,0.428-6.899,1.887c-1.552,1.457-2.32,3.764-2.282,6.854L11.251,22.009z"/>
</svg>






