<?xml version="1.0" encoding="iso-8859-1"?>
<svg version="1.1" id="&#x56FE;&#x5C42;_1" xmlns="http://www.w3.org/2000/svg" xmlns:xlink="http://www.w3.org/1999/xlink" x="0px"
	 y="0px" viewBox="0 0 24 24" style="enable-background:new 0 0 24 24;" xml:space="preserve">
<path style="fill:#333333;" d="M7.5,21.75h-3c-1.241,0-2.25-1.01-2.25-2.25v-3h1.5v3c0,0.413,0.336,0.75,0.75,0.75h3V21.75z"/>
<path style="fill:#333333;" d="M19.5,21.75h-3v-1.5h3c0.413,0,0.75-0.337,0.75-0.75v-3h1.5v3C21.75,20.74,20.74,21.75,19.5,21.75z"
	/>
<path style="fill:#333333;" d="M21.75,7.5h-1.5v-3c0-0.414-0.337-0.75-0.75-0.75h-3v-1.5h3c1.24,0,2.25,1.009,2.25,2.25V7.5z"/>
<path style="fill:#333333;" d="M3.75,7.5h-1.5v-3c0-1.241,1.009-2.25,2.25-2.25h3v1.5h-3c-0.414,0-0.75,0.336-0.75,0.75V7.5z"/>
<rect x="11.25" y="7.5" style="fill:#333333;" width="1.5" height="10"/>
<rect x="8.5" y="6.75" style="fill:#333333;" width="7" height="1.5"/>
</svg>






