<?xml version="1.0" encoding="iso-8859-1"?>
<svg version="1.1" id="&#x56FE;&#x5C42;_1" xmlns="http://www.w3.org/2000/svg" xmlns:xlink="http://www.w3.org/1999/xlink" x="0px"
	 y="0px" viewBox="0 0 24 24" style="enable-background:new 0 0 24 24;" xml:space="preserve">
<path style="fill:#333333;" d="M8,22.75v-1.5c3.159,0,3.25-2.917,3.25-3.25V6c0-0.333-0.091-3.25-3.25-3.25v-1.5
	c3.757,0,4.75,3.107,4.75,4.75v12C12.75,19.643,11.757,22.75,8,22.75z"/>
<path style="fill:#333333;" d="M16,22.75c-3.757,0-4.75-3.107-4.75-4.75V6c0-1.217,1.169-4.75,4.75-4.75v1.5
	c-2.645,0-3.25,2.824-3.25,3.25v12c0,0.333,0.091,3.25,3.25,3.25V22.75z"/>
<rect x="8.5" y="11.25" style="fill:#333333;" width="7" height="1.5"/>
</svg>






