<?xml version="1.0" encoding="iso-8859-1"?>
<svg version="1.1" id="&#x56FE;&#x5C42;_1" xmlns="http://www.w3.org/2000/svg" xmlns:xlink="http://www.w3.org/1999/xlink" x="0px"
	 y="0px" viewBox="0 0 24 24" style="enable-background:new 0 0 24 24;" xml:space="preserve">
<polygon style="fill:#333333;" points="21.75,8 20.25,8 20.25,3.75 16,3.75 16,2.25 21.75,2.25 "/>
<path style="fill:#333333;" d="M14.812,16.301l-0.896-2.051h-3.832l-0.897,2.051l-1.374-0.602l1.094-2.5L9.594,13.5l-0.687-0.301
	l2.406-5.5h1.375l2.406,5.5L14.406,13.5l0.688-0.301l1.094,2.5L14.812,16.301z M10.741,12.75h2.519L12,9.871L10.741,12.75z"/>
<polygon style="fill:#333333;" points="3.75,8 2.25,8 2.25,2.25 8,2.25 8,3.75 3.75,3.75 "/>
<polygon style="fill:#333333;" points="21.75,21.75 16,21.75 16,20.25 20.25,20.25 20.25,16 21.75,16 "/>
<polygon style="fill:#333333;" points="8,21.75 2.25,21.75 2.25,16 3.75,16 3.75,20.25 8,20.25 "/>
</svg>






