<?xml version="1.0" encoding="iso-8859-1"?>
<svg version="1.1" id="&#x56FE;&#x5C42;_1" xmlns="http://www.w3.org/2000/svg" xmlns:xlink="http://www.w3.org/1999/xlink" x="0px"
	 y="0px" viewBox="0 0 24 24" style="enable-background:new 0 0 24 24;" xml:space="preserve">
<path style="fill:#333333;" d="M12,12.75H4.75V1.25H12c3.162,0,5.734,2.58,5.734,5.75S15.162,12.75,12,12.75z M6.25,11.25H12
	c2.335,0,4.234-1.907,4.234-4.25S14.335,2.75,12,2.75H6.25V11.25z"/>
<path style="fill:#333333;" d="M14.016,22.75H4.75v-11.5h9.266c3.162,0,5.734,2.579,5.734,5.75S17.178,22.75,14.016,22.75z
	 M6.25,21.25h7.766c2.335,0,4.234-1.906,4.234-4.25s-1.899-4.25-4.234-4.25H6.25V21.25z"/>
</svg>






