<?xml version="1.0" encoding="iso-8859-1"?>
<svg version="1.1" id="&#x56FE;&#x5C42;_1" xmlns="http://www.w3.org/2000/svg" xmlns:xlink="http://www.w3.org/1999/xlink" x="0px"
	 y="0px" viewBox="0 0 24 24" style="enable-background:new 0 0 24 24;" xml:space="preserve">
<path style="fill:#333333;" d="M20,22.75H4c-1.517,0-2.75-1.233-2.75-2.75V4c0-1.517,1.233-2.75,2.75-2.75h16
	c1.517,0,2.75,1.233,2.75,2.75v16C22.75,21.517,21.517,22.75,20,22.75z M4,2.75C3.311,2.75,2.75,3.311,2.75,4v16
	c0,0.689,0.561,1.25,1.25,1.25h16c0.689,0,1.25-0.561,1.25-1.25V4c0-0.689-0.561-1.25-1.25-1.25H4z"/>
<rect x="5.25" y="6" style="fill:#333333;" width="1.5" height="4"/>
<rect x="13.25" y="14" style="fill:#333333;" width="1.5" height="4"/>
<rect x="9.25" y="6" style="fill:#333333;" width="1.5" height="4"/>
<rect x="14" y="5.25" style="fill:#333333;" width="4" height="1.5"/>
<rect x="6" y="13.25" style="fill:#333333;" width="4" height="1.5"/>
<rect x="14" y="9.25" style="fill:#333333;" width="4" height="1.5"/>
<rect x="6" y="17.25" style="fill:#333333;" width="4" height="1.5"/>
<rect x="17.25" y="14" style="fill:#333333;" width="1.5" height="4"/>
</svg>






