<?xml version="1.0" encoding="iso-8859-1"?>
<svg version="1.1" id="&#x56FE;&#x5C42;_1" xmlns="http://www.w3.org/2000/svg" xmlns:xlink="http://www.w3.org/1999/xlink" x="0px"
	 y="0px" viewBox="0 0 24 24" style="enable-background:new 0 0 24 24;" xml:space="preserve">
<path style="fill:#333333;" d="M14.75,13.5h-1.5c0-5.163-0.688-9.787-1.319-10.688C11.514,3.299,10.75,6.019,10.75,13.5h-1.5
	C9.25,1.25,11.177,1.25,12,1.25C14.552,1.25,14.75,10.626,14.75,13.5z"/>
<path style="fill:#333333;" d="M17.25,22.75H6.75v-10h10.5V22.75z M8.25,21.25h7.5v-7h-7.5V21.25z"/>
<path style="fill:#333333;" d="M14.281,18.75H9.431l-3.176-6H16.5l0.646,1.13L14.281,18.75z M10.334,17.25h3.09l1.765-3H8.746
	L10.334,17.25z"/>
</svg>






