<?xml version="1.0" encoding="iso-8859-1"?>
<svg version="1.1" id="&#x56FE;&#x5C42;_1" xmlns="http://www.w3.org/2000/svg" xmlns:xlink="http://www.w3.org/1999/xlink" x="0px"
	 y="0px" viewBox="0 0 24 24" style="enable-background:new 0 0 24 24;" xml:space="preserve">
<path style="fill:#333333;" d="M12,22.75c-2.895,0-5.25-2.355-5.25-5.25c0-1.848,0.947-3.521,2.5-4.474V5c0-0.928,0-3.75,2.75-3.75
	S14.75,4.072,14.75,5v8.026c1.554,0.952,2.5,2.626,2.5,4.474C17.25,20.395,14.895,22.75,12,22.75z M12,2.75
	c-0.935,0-1.25,0.568-1.25,2.25v8.933l-0.417,0.207C9.048,14.778,8.25,16.065,8.25,17.5c0,2.067,1.682,3.75,3.75,3.75
	c2.067,0,3.75-1.683,3.75-3.75c0-1.434-0.799-2.722-2.084-3.36l-0.416-0.207V5C13.25,3.318,12.935,2.75,12,2.75z"/>
</svg>






