<?xml version="1.0" encoding="iso-8859-1"?>
<svg version="1.1" id="&#x56FE;&#x5C42;_1" xmlns="http://www.w3.org/2000/svg" xmlns:xlink="http://www.w3.org/1999/xlink" x="0px"
	 y="0px" viewBox="0 0 24 24" style="enable-background:new 0 0 24 24;" xml:space="preserve">
<path style="fill:#333333;" d="M14.65,22.25h-8.77l-1.073-5.567C3.156,15.031,2.25,12.846,2.25,10.5c0-4.825,3.925-8.75,8.75-8.75
	c4.759,0,8.642,3.818,8.748,8.552l2.906,5.232l-2.904,0.581v3.135l-2.373-0.01l-2.243-0.374L14.65,22.25z M7.119,20.75h6.23
	l0.517-3.616l3.696,0.616h0.688v-2.865l2.096-0.419l-2.096-3.771V10.5c0-3.998-3.252-7.25-7.25-7.25c-3.998,0-7.25,3.252-7.25,7.25
	c0,2.012,0.805,3.881,2.266,5.265l0.175,0.166L7.119,20.75z"/>
<path style="fill:#333333;" d="M11.75,13.5h-1.5v-2.25H11c0.965,0,1.75-0.785,1.75-1.75S11.965,7.75,11,7.75S9.25,8.535,9.25,9.5
	h-1.5c0-1.792,1.458-3.25,3.25-3.25s3.25,1.458,3.25,3.25c0,1.534-1.068,2.823-2.5,3.163V13.5z"/>
<rect x="10.25" y="16.5" style="fill:#333333;" width="1.5" height="0.5"/>
</svg>






