<?xml version="1.0" encoding="iso-8859-1"?>
<svg version="1.1" id="&#x56FE;&#x5C42;_1" xmlns="http://www.w3.org/2000/svg" xmlns:xlink="http://www.w3.org/1999/xlink" x="0px"
	 y="0px" viewBox="0 0 24 24" style="enable-background:new 0 0 24 24;" xml:space="preserve">
<path style="fill:#333333;" d="M16.5,13.25h-9c-0.576,0-2.011-0.06-2.897-0.614c-0.981-0.62-1.661-1.605-1.919-2.774
	C2.401,8.581,2.651,7.208,3.37,6.094l3.006-4.51L7.68,1.683c0.782,1.678,2.432,2.723,4.304,2.726c0.002,0,0.006,0,0.009,0
	c1.878,0,3.537-1.045,4.329-2.729l1.303-0.097l3,4.5c0.723,1.122,0.973,2.493,0.691,3.772c-0.258,1.171-0.938,2.157-1.914,2.777
	C18.555,13.17,17.22,13.25,16.5,13.25z M6.965,3.404L4.624,6.916c-0.497,0.771-0.672,1.73-0.476,2.622
	c0.171,0.776,0.616,1.425,1.252,1.828C5.772,11.599,6.598,11.75,7.5,11.75h9c0.907,0,1.73-0.15,2.099-0.384
	c0.636-0.403,1.081-1.054,1.252-1.832c0.196-0.892,0.021-1.85-0.481-2.628l-2.337-3.505c-1.166,1.572-3.005,2.508-5.04,2.508
	c-0.004,0-0.008,0-0.012,0C9.953,5.906,8.124,4.97,6.965,3.404z"/>
<path style="fill:#333333;" d="M6.533,22.528l-1.065-1.057c1.028-1.036,1.436-2.572,1.066-4.009l-1.259-4.771l1.45-0.383l1.26,4.775
	C8.487,19.034,7.93,21.119,6.533,22.528z"/>
<path style="fill:#333333;" d="M17.468,22.528c-1.417-1.429-1.96-3.457-1.454-5.425l1.261-4.794l1.451,0.381l-1.26,4.79
	c-0.372,1.448,0.026,2.941,1.066,3.991L17.468,22.528z"/>
<rect x="11.25" y="20" style="fill:#333333;" width="1.5" height="1"/>
</svg>






