<?xml version="1.0" encoding="iso-8859-1"?>
<svg version="1.1" id="&#x56FE;&#x5C42;_1" xmlns="http://www.w3.org/2000/svg" xmlns:xlink="http://www.w3.org/1999/xlink" x="0px"
	 y="0px" viewBox="0 0 24 24" style="enable-background:new 0 0 24 24;" xml:space="preserve">
<path style="fill:#333333;" d="M12.872,22.75h-0.447c-2.868,0-5.519-1.433-7.09-3.831l-1.098-1.675
	c-0.985-1.505-0.693-3.515,0.679-4.675L6,11.652V3.625C6,2.315,7.065,1.25,8.375,1.25c0.507,0,0.979,0.16,1.365,0.432
	c0.435-0.566,1.118-0.932,1.885-0.932c0.768,0,1.451,0.366,1.886,0.932c0.386-0.272,0.856-0.432,1.364-0.432
	c1.31,0,2.375,1.065,2.375,2.375v5.042C17.521,8.559,17.816,8.5,18.125,8.5c1.31,0,2.375,1.065,2.375,2.375v5.109
	c0,0.98-0.293,1.926-0.846,2.734l-0.486,0.711C17.745,21.509,15.392,22.75,12.872,22.75z M8.375,2.75
	C7.893,2.75,7.5,3.143,7.5,3.625v8.105c0,0.393-0.172,0.763-0.471,1.016l-1.144,0.968c-0.794,0.673-0.964,1.837-0.393,2.708
	l1.098,1.675c1.293,1.975,3.475,3.153,5.835,3.153h0.447c2.024,0,3.915-0.997,5.058-2.668l0.486-0.711
	C18.798,17.313,19,16.661,19,15.984v-5.109C19,10.393,18.607,10,18.125,10s-0.875,0.393-0.875,0.875h-1.5v-7.25
	c0-0.482-0.393-0.875-0.875-0.875S14,3.143,14,3.625h-1.5v-0.5c0-0.482-0.393-0.875-0.875-0.875S10.75,2.643,10.75,3.125v0.5h-1.5
	C9.25,3.143,8.857,2.75,8.375,2.75z"/>
</svg>






