<?xml version="1.0" encoding="iso-8859-1"?>
<svg version="1.1" id="&#x56FE;&#x5C42;_1" xmlns="http://www.w3.org/2000/svg" xmlns:xlink="http://www.w3.org/1999/xlink" x="0px"
	 y="0px" viewBox="0 0 24 24" style="enable-background:new 0 0 24 24;" xml:space="preserve">
<path style="fill:#333333;" d="M11.5,22.75c-4.033,0-6.114-1.301-6.671-2.415l-0.01-0.021l-2.104-4.559
	c-0.674-1.462-0.192-3.172,1.148-4.066l0.953-0.634c0.096-0.064,0.198-0.113,0.304-0.148L4.321,5.074
	C4.253,4.571,4.383,4.072,4.687,3.668c0.243-0.325,0.6-0.536,1.003-0.593c0.4-0.056,0.803,0.045,1.128,0.289
	c0.394,0.296,0.637,0.629,0.77,1.014l0.921,2.662L8.291,3.657c-0.039-0.602,0.184-1.192,0.61-1.619
	c0.595-0.595,1.539-0.647,2.196-0.122l0.17,0.136c0.437,0.35,0.727,0.846,0.816,1.398l0.543,3.37l0.316-3.262
	c0.058-0.601,0.362-1.162,0.834-1.54l0.104-0.083C14.549,1.4,15.512,1.452,16.12,2.06c0.406,0.405,0.63,0.945,0.63,1.52v6.376
	c0,0,0,0,0,0c0.008,0,0.258,1.091,0.987,1.333c0.431,0.144,0.984,0.573,2.113,2.726c0.481,0.919,0.458,2.025-0.062,2.959
	l-1.975,3.521C17.733,20.586,15.791,22.75,11.5,22.75z M6.175,19.672c0.184,0.346,1.586,1.578,5.325,1.578
	c3.278,0,4.86-1.417,5.14-1.696l1.839-3.309c0.272-0.491,0.289-1.064,0.044-1.534c-0.92-1.754-1.299-2.014-1.314-2.023
	c-1.427-0.47-1.86-2.153-1.933-2.486L15.25,9.956V3.58c0-0.173-0.067-0.336-0.19-0.458c-0.064-0.066-0.17-0.071-0.242-0.014
	L14.713,3.19c-0.157,0.125-0.259,0.312-0.278,0.513l-0.664,6.862c-0.05,0.532-0.492,0.935-1.028,0.935
	c-0.513,0-0.942-0.367-1.021-0.873l-1.119-6.936c-0.03-0.184-0.126-0.35-0.272-0.467l-0.17-0.136
	c-0.06-0.047-0.145-0.043-0.198,0.011C9.84,3.221,9.776,3.389,9.788,3.561l0.441,6.842c0.019,0.282-0.082,0.564-0.276,0.771
	c-0.494,0.527-1.491,0.316-1.727-0.367L6.17,4.867C6.135,4.766,6.071,4.678,5.985,4.614l-0.1-0.045
	C5.821,4.656,5.793,4.763,5.808,4.872l0.936,6.839l-1.141,0.737l-0.089-0.056l-0.818,0.545c-0.722,0.481-0.981,1.402-0.618,2.189
	L6.175,19.672z M8.732,10.499c0,0,0,0.001,0,0.002V10.499z M12.278,10.42c0,0.001-0.001,0.002-0.001,0.002L12.278,10.42z
	 M13.201,10.387l0.001,0.004C13.202,10.39,13.202,10.389,13.201,10.387z"/>
</svg>






