<?xml version="1.0" encoding="iso-8859-1"?>
<svg version="1.1" id="&#x56FE;&#x5C42;_1" xmlns="http://www.w3.org/2000/svg" xmlns:xlink="http://www.w3.org/1999/xlink" x="0px"
	 y="0px" viewBox="0 0 24 24" style="enable-background:new 0 0 24 24;" xml:space="preserve">
<rect x="9.8" y="16.5" style="fill:#333333;" width="4.4" height="1.5"/>
<polygon style="fill:#333333;" points="1.84,13.991 0.462,13.399 4.396,4.237 7.132,2.833 7.817,4.167 5.562,5.325 "/>
<polygon style="fill:#333333;" points="22.213,14.112 18.442,5.325 16.187,4.167 16.872,2.833 19.608,4.237 23.592,13.521 "/>
<path style="fill:#333333;" d="M8.895,21.3H2.164c-0.724,0-1.336-0.565-1.393-1.287l-0.464-5.855
	c-0.03-0.372,0.088-0.733,0.331-1.018s0.582-0.457,0.954-0.485L1.7,12.649h7.658c0.771,0,1.397,0.627,1.397,1.397l-0.005,0.117
	l-0.463,5.85C10.23,20.735,9.618,21.3,8.895,21.3z M2.259,19.8H8.8l0.447-5.65H1.812L2.259,19.8z"/>
<path style="fill:#333333;" d="M21.836,21.3h-6.73c-0.723,0-1.334-0.564-1.393-1.285l-0.464-5.857
	c-0.029-0.372,0.088-0.734,0.331-1.019c0.243-0.283,0.581-0.456,0.953-0.484l0.108-0.005H22.3c0.771,0,1.397,0.627,1.397,1.397
	l-0.004,0.11l-0.464,5.856C23.173,20.734,22.561,21.3,21.836,21.3z M15.2,19.8h6.541l0.447-5.65h-7.435L15.2,19.8z"/>
</svg>






