<?xml version="1.0" encoding="iso-8859-1"?>
<svg version="1.1" id="&#x56FE;&#x5C42;_1" xmlns="http://www.w3.org/2000/svg" xmlns:xlink="http://www.w3.org/1999/xlink" x="0px"
	 y="0px" viewBox="0 0 24 24" style="enable-background:new 0 0 24 24;" xml:space="preserve">
<path style="fill:#333333;" d="M19.5,21.75h-15c-1.241,0-2.25-1.01-2.25-2.25v-15c0-1.241,1.009-2.25,2.25-2.25h15
	c1.24,0,2.25,1.009,2.25,2.25v15C21.75,20.74,20.74,21.75,19.5,21.75z M4.5,3.75c-0.414,0-0.75,0.336-0.75,0.75v15
	c0,0.413,0.336,0.75,0.75,0.75h15c0.413,0,0.75-0.337,0.75-0.75v-15c0-0.414-0.337-0.75-0.75-0.75H4.5z"/>
<path style="fill:#333333;" d="M12,17.75c-1.551,0-2.518-0.704-3.055-1.295l1.109-1.01c0.334,0.367,0.942,0.805,1.945,0.805
	c0.653,0,1.75-0.228,1.75-1.75c0-2.03-1.923-2.25-2.75-2.25l-0.592-1.21l2.559-3.29H9.5v-1.5h5l0.592,1.21l-2.687,3.454
	c1.766,0.443,2.845,1.754,2.845,3.586C15.25,16.745,13.618,17.75,12,17.75z"/>
</svg>






