<?xml version="1.0" encoding="iso-8859-1"?>
<svg version="1.1" id="&#x56FE;&#x5C42;_1" xmlns="http://www.w3.org/2000/svg" xmlns:xlink="http://www.w3.org/1999/xlink" x="0px"
	 y="0px" viewBox="0 0 24 24" style="enable-background:new 0 0 24 24;" xml:space="preserve">
<path style="fill:none;" d="M8.5,3.5L12,9.562l2.995,5.188H2.005L8.5,3.5z"/>
<path style="fill:none;" d="M15.5,3.5l6.495,11.25H9.005L12,9.562L15.5,3.5z"/>
<path style="fill:none;" d="M5.505,20.75h12.99l-3.5-6h-5.99L5.505,20.75z"/>
<path style="fill:#333333;" d="M18.495,21.5H5.505l-0.648-1.128L7.699,15.5H0.706L8.5,2L12,8.062L15.5,2l7.794,13.5h-6.993
	l2.842,4.872L18.495,21.5z M6.811,20h10.379l-2.625-4.5H9.436L6.811,20z M15.428,14h5.269L15.5,5l-2.634,4.562L15.428,14z
	 M10.304,14h3.393L12,11.062L10.304,14z M3.304,14h5.268l2.562-4.438L8.5,5L3.304,14z"/>
</svg>






