<?xml version="1.0" encoding="iso-8859-1"?>
<svg version="1.1" id="&#x56FE;&#x5C42;_1" xmlns="http://www.w3.org/2000/svg" xmlns:xlink="http://www.w3.org/1999/xlink" x="0px"
	 y="0px" viewBox="0 0 24 24" style="enable-background:new 0 0 24 24;" xml:space="preserve">
<path style="fill:#333333;" d="M17.978,21.75c-0.01,0-0.019,0-0.027,0H6.75V10.941l3.863-8.691H11.1c1.902,0,3.45,1.547,3.45,3.45
	v2.85h4.65c0.746-0.003,1.452,0.311,1.944,0.876c0.492,0.565,0.709,1.315,0.597,2.056l-1.242,8.101
	C20.312,20.822,19.23,21.75,17.978,21.75z M8.25,20.25h9.708c0.517,0.008,0.981-0.378,1.059-0.892l1.242-8.102
	c0.046-0.304-0.044-0.613-0.246-0.846c-0.202-0.233-0.521-0.378-0.804-0.361H13.05V5.7c0-0.916-0.635-1.686-1.487-1.894L8.25,11.259
	V20.25z"/>
<path style="fill:#333333;" d="M5.047,21.75c-1.4,0.001-2.601-1.045-2.791-2.45L2.25,19.199l0.007-6.4
	c0.197-1.453,1.451-2.541,2.854-2.549h3.14v11.5H5.097C5.081,21.75,5.064,21.75,5.047,21.75z M3.75,19.144
	c0.108,0.638,0.661,1.106,1.31,1.106c0.008,0,0.016,0,0.024,0H6.75v-8.5H5.097c-0.006,0-0.013,0-0.02,0
	c-0.636,0-1.215,0.532-1.327,1.205V19.144z"/>
</svg>






