<?xml version="1.0" encoding="iso-8859-1"?>
<svg version="1.1" id="&#x56FE;&#x5C42;_1" xmlns="http://www.w3.org/2000/svg" xmlns:xlink="http://www.w3.org/1999/xlink" x="0px"
	 y="0px" viewBox="0 0 24 24" style="enable-background:new 0 0 24 24;" xml:space="preserve">
<path style="fill:#333333;" d="M13.377,21.75H12.89c-1.902,0-3.45-1.548-3.45-3.45v-2.85H4.79c-0.74-0.017-1.453-0.312-1.944-0.877
	c-0.492-0.565-0.71-1.315-0.597-2.057l1.242-8.1C3.678,3.177,4.759,2.25,6.011,2.25c0.01,0,0.02,0,0.029,0h11.199v10.81
	L13.377,21.75z M10.189,13.95h0.75v4.35c0,0.916,0.635,1.687,1.487,1.895l3.312-7.453V3.75H6.032c-0.004,0-0.008,0-0.012,0
	c-0.524,0-0.969,0.382-1.046,0.893l-1.242,8.1c-0.046,0.305,0.043,0.612,0.246,0.846s0.499,0.361,0.804,0.361H10.189z"/>
<path style="fill:#333333;" d="M18.925,13.75c-0.015,0-0.03,0-0.046,0H15.74V2.25h3.152c1.407-0.038,2.648,1.028,2.841,2.45
	L21.74,4.8l-0.007,6.4C21.539,12.639,20.31,13.75,18.925,13.75z M17.24,12.25h1.652c0.007,0,0.014,0,0.02,0
	c0.637,0,1.215-0.533,1.328-1.206V4.856c-0.109-0.646-0.688-1.136-1.334-1.106H17.24V12.25z"/>
</svg>






