<?xml version="1.0" encoding="iso-8859-1"?>
<svg version="1.1" id="&#x56FE;&#x5C42;_1" xmlns="http://www.w3.org/2000/svg" xmlns:xlink="http://www.w3.org/1999/xlink" x="0px"
	 y="0px" viewBox="0 0 24 24" style="enable-background:new 0 0 24 24;" xml:space="preserve">
<path style="fill:#333333;" d="M18.5,20.75h-13c-0.874,0-1.629-0.65-1.835-1.581c-0.171-0.77-0.597-1.347-1.265-1.712
	C1.69,17.069,1.25,16.389,1.25,15.681V13c0-0.965,0.785-1.75,1.75-1.75h18c0.965,0,1.75,0.785,1.75,1.75v2.681
	c0,0.708-0.44,1.389-1.15,1.776c-0.667,0.365-1.093,0.941-1.264,1.712C20.128,20.101,19.373,20.75,18.5,20.75z M3,12.75
	c-0.138,0-0.25,0.112-0.25,0.25v2.681c0,0.152,0.152,0.341,0.37,0.46c0.732,0.401,1.674,1.195,2.009,2.703
	c0.044,0.2,0.195,0.406,0.371,0.406h13c0.176,0,0.327-0.207,0.371-0.406c0.335-1.508,1.277-2.302,2.009-2.703
	c0.218-0.119,0.37-0.308,0.37-0.46V13c0-0.138-0.112-0.25-0.25-0.25H3z"/>
<rect x="7" y="14.75" style="fill:#333333;" width="10" height="1.5"/>
<polygon style="fill:#333333;" points="12.069,9.488 10.931,8.512 12.869,6.25 9.5,6.25 8.931,5.012 11.931,1.512 13.069,2.488 
	11.131,4.75 14.5,4.75 15.069,5.988 "/>
</svg>






