<?xml version="1.0" encoding="iso-8859-1"?>
<svg version="1.1" id="&#x56FE;&#x5C42;_1" xmlns="http://www.w3.org/2000/svg" xmlns:xlink="http://www.w3.org/1999/xlink" x="0px"
	 y="0px" viewBox="0 0 24 24" style="enable-background:new 0 0 24 24;" xml:space="preserve">
<path style="fill:#333333;" d="M10.832,21.99l-1.295-0.672l1.123-4.501l-3.134-0.449L9.71,9.25h5.407l0.625,1.165l-2.059,3.097
	l3.681,0.922L10.832,21.99z M9.474,15.132l3.043,0.436l-0.765,3.063l2.883-3.334l-3.377-0.848l2.459-3.699h-2.899L9.474,15.132z"/>
<path style="fill:#333333;" d="M19.577,16.686l-0.609-1.371c1.387-0.616,2.282-2.013,2.282-3.558c0-2.139-1.703-3.878-3.796-3.878
	c-0.602,0-1.177,0.14-1.71,0.415l-0.829,0.428l-0.239-0.902c-0.714-2.69-3.122-4.569-5.857-4.569c-3.346,0-6.068,2.778-6.068,6.192
	c0,1.969,0.887,3.776,2.433,4.959l-0.911,1.191c-1.92-1.469-3.021-3.71-3.021-6.15c0-4.242,3.395-7.692,7.568-7.692
	c3.133,0,5.921,1.967,7.045,4.876c0.513-0.164,1.052-0.248,1.591-0.248c2.92,0,5.296,2.413,5.296,5.378
	C22.75,13.894,21.505,15.828,19.577,16.686z"/>
</svg>






