<?xml version="1.0" encoding="iso-8859-1"?>
<svg version="1.1" id="&#x56FE;&#x5C42;_1" xmlns="http://www.w3.org/2000/svg" xmlns:xlink="http://www.w3.org/1999/xlink" x="0px"
	 y="0px" viewBox="0 0 24 24" style="enable-background:new 0 0 24 24;" xml:space="preserve">
<polygon style="fill:#333333;" points="4.778,8.696 4.222,7.304 17.418,2.025 19.696,7.722 18.304,8.278 16.582,3.975 "/>
<path style="fill:#333333;" d="M22.75,20.75H1.25v-4.5H2c1.12,0,2.25-0.695,2.25-2.25S3.12,11.75,2,11.75H1.25v-4.5h21.5v4.5H22
	c-1.118,0-2.25,0.687-2.25,2c0,1.385,1.23,2.5,2.25,2.5h0.75V20.75z M2.75,19.25h18.5v-1.592c-1.646-0.405-3-2.086-3-3.908
	c0-1.961,1.438-3.144,3-3.431V8.75H2.75v1.57c1.588,0.299,3,1.55,3,3.68s-1.412,3.382-3,3.68V19.25z"/>
<rect x="8.5" y="11.942" style="fill:#333333;" width="3" height="1.5"/>
<rect x="8.5" y="14.942" style="fill:#333333;" width="7" height="1.5"/>
</svg>






