<?xml version="1.0" encoding="iso-8859-1"?>
<svg version="1.1" id="&#x56FE;&#x5C42;_1" xmlns="http://www.w3.org/2000/svg" xmlns:xlink="http://www.w3.org/1999/xlink" x="0px"
	 y="0px" viewBox="0 0 24 24" style="enable-background:new 0 0 24 24;" xml:space="preserve">
<path style="fill:#333333;" d="M21.25,17.75h-4.5V17c0-0.614-0.654-1.25-1.75-1.25v-1.5c1.514,0,2.756,0.834,3.133,2h1.617V2.75
	h-1.63c-0.366,1.061-1.491,2-3.12,2s-2.754-0.939-3.12-2h-1.63V9h-1.5V1.25h4.5V2c0,0.604,0.703,1.25,1.75,1.25S16.75,2.604,16.75,2
	V1.25h4.5V17.75z"/>
<path style="fill:#333333;" d="M15.75,22.75h-4.5V22c0-0.614-0.655-1.25-1.75-1.25S7.75,21.386,7.75,22v0.75h-4.5V6.25h4.5V7
	c0,0.604,0.703,1.25,1.75,1.25S11.25,7.604,11.25,7V6.25h4.5V22.75z M12.633,21.25h1.617V7.75h-1.63c-0.366,1.061-1.492,2-3.12,2
	s-2.753-0.939-3.12-2H4.75v13.5h1.618c0.377-1.166,1.618-2,3.132-2S12.256,20.084,12.633,21.25z"/>
<circle style="fill:#333333;" cx="7" cy="12" r="1"/>
<circle style="fill:#333333;" cx="9.5" cy="12" r="1"/>
<circle style="fill:#333333;" cx="12" cy="12" r="1"/>
</svg>






