<?xml version="1.0" encoding="iso-8859-1"?>
<svg version="1.1" id="&#x56FE;&#x5C42;_1" xmlns="http://www.w3.org/2000/svg" xmlns:xlink="http://www.w3.org/1999/xlink" x="0px"
	 y="0px" viewBox="0 0 24 24" style="enable-background:new 0 0 24 24;" xml:space="preserve">
<path style="fill:#333333;" d="M22.75,20.75H10.885l-0.121-0.603c-0.041-0.19-0.457-1.897-2.265-1.897
	c-1.864,0-2.249,1.819-2.265,1.897L6.115,20.75H1.25V3.25h4.865l0.121,0.603C6.276,4.043,6.692,5.75,8.5,5.75
	c1.864,0,2.249-1.82,2.265-1.897l0.121-0.603H22.75V20.75z M12.055,19.25h9.195V4.75h-9.195c-0.426,1.091-1.501,2.5-3.555,2.5
	s-3.129-1.409-3.555-2.5H2.75v14.5h2.195c0.426-1.091,1.502-2.5,3.555-2.5S11.629,18.159,12.055,19.25z"/>
<rect x="7.75" y="9.5" style="fill:#333333;" width="1.5" height="1"/>
<rect x="7.75" y="13.5" style="fill:#333333;" width="1.5" height="1"/>
<rect x="12.5" y="9.75" style="fill:#333333;" width="5.5" height="1.5"/>
<rect x="12.5" y="12.75" style="fill:#333333;" width="5.5" height="1.5"/>
</svg>






