<?xml version="1.0" encoding="iso-8859-1"?>
<svg version="1.1" id="&#x56FE;&#x5C42;_1" xmlns="http://www.w3.org/2000/svg" xmlns:xlink="http://www.w3.org/1999/xlink" x="0px"
	 y="0px" viewBox="0 0 24 24" style="enable-background:new 0 0 24 24;" xml:space="preserve">
<path style="fill:#333333;" d="M16.593,22.75h-3.77c-2.433,0-4.75-1.167-6.198-3.122l-2.132-2.879
	c-0.542-0.73-0.591-1.709-0.122-2.491c0.359-0.598,0.961-0.989,1.652-1.074c0.427-0.055,0.851,0.018,1.228,0.193V8
	c0-1.241,1.009-2.25,2.25-2.25S11.75,6.759,11.75,8v0.382c0.238-0.085,0.495-0.132,0.763-0.132c1.248,0,2.264,1.015,2.264,2.263
	v1.324c0.23-0.081,0.479-0.125,0.736-0.125c0.727,0,1.373,0.348,1.782,0.886c0.347-0.221,0.759-0.349,1.199-0.349
	c1.236,0,2.244,1.006,2.245,2.241l0.006,4.101c0.002,1.11-0.43,2.154-1.214,2.939C18.747,22.317,17.703,22.75,16.593,22.75z
	 M6.299,14.667c-0.031,0-0.062,0.002-0.093,0.006c-0.229,0.027-0.429,0.158-0.548,0.355c-0.155,0.26-0.14,0.585,0.04,0.827
	l2.133,2.88c1.167,1.574,3.034,2.515,4.993,2.515h3.77c0.709,0,1.376-0.276,1.877-0.778s0.776-1.169,0.775-1.878l-0.006-4.101
	c0-0.41-0.335-0.743-0.745-0.743s-0.744,0.334-0.744,0.744V15h-1.5v-1.051c0-0.406-0.331-0.736-0.737-0.736s-0.736,0.33-0.736,0.736
	V14.5h-1.5v-3.987c0-0.421-0.343-0.763-0.764-0.763s-0.763,0.342-0.763,0.763v3.424h-1.5V8c0-0.414-0.336-0.75-0.75-0.75
	S8.75,7.586,8.75,8v7l-1.281,0.53l-0.645-0.646C6.684,14.744,6.496,14.667,6.299,14.667z"/>
<rect x="15.25" y="2" style="fill:#333333;" width="1.5" height="4"/>
<path style="fill:#333333;" d="M21.75,10.75H14v-1.5h6.25V8.647c-0.46-0.128-0.885-0.373-1.221-0.712
	c-0.502-0.507-0.774-1.197-0.767-1.942c0.016-1.393,0.932-2.331,1.987-2.635V2.75H3.75v0.607C4.806,3.662,5.723,4.6,5.737,5.992
	c0.008,0.745-0.264,1.435-0.766,1.942C4.635,8.274,4.21,8.519,3.75,8.647V9.25H8v1.5H2.25v-3.5H3c0.336,0,0.675-0.139,0.904-0.371
	c0.225-0.227,0.336-0.52,0.333-0.872C4.229,5.182,3.608,4.75,3,4.75H2.25v-3.5h19.5v3.5H21c-0.608,0-1.229,0.432-1.237,1.258
	c-0.004,0.346,0.111,0.647,0.333,0.871C20.325,7.111,20.663,7.25,21,7.25h0.75V10.75z"/>
</svg>






