<?xml version="1.0" encoding="iso-8859-1"?>
<svg version="1.1" id="&#x56FE;&#x5C42;_1" xmlns="http://www.w3.org/2000/svg" xmlns:xlink="http://www.w3.org/1999/xlink" x="0px"
	 y="0px" viewBox="0 0 24 24" style="enable-background:new 0 0 24 24;" xml:space="preserve">
<path style="fill:#333333;" d="M9.989,22.333c-2.608,0-4.7-1.072-5.89-3.02c-1.23-2.014-1.322-4.801-0.228-6.937
	c1.291-2.517,3.592-3.718,6.844-3.556l0.714,0.034v4.614h-0.75c-1.055,0-1.673,0.126-2.064,0.423
	c-0.729,0.551-0.838,1.283-0.838,1.67c0,0.653,0.601,1.934,1.991,1.934c0.538,0,0.993-0.185,1.352-0.548
	c0.469-0.476,0.629-1.101,0.624-1.492c-0.011-0.777-0.011-5.164,0-13.04l0.001-0.749h5.057l0.001,0.749
	c0.001,0.558,0.001,0.96-0.023,1.25h0.023c0,1.145,1.329,2.068,2.114,2.433c0.495,0.23,1.101,0.39,1.799,0.474l0.66,0.08v4.596
	l-0.691,0.054c-0.217,0.019-0.602,0.004-1.807-0.222c-0.658-0.124-1.392-0.4-2.222-0.838v5.203
	C16.655,18.004,15.251,22.333,9.989,22.333z M9.929,10.31c-2.256,0.057-3.805,0.961-4.723,2.75
	c-0.865,1.688-0.796,3.887,0.172,5.471c0.642,1.05,1.963,2.302,4.61,2.302c4.917,0,5.166-4.488,5.166-5.388V8.938l1.151-0.634
	c1.143,0.724,2.102,1.163,2.848,1.303c0.297,0.056,0.533,0.097,0.721,0.126V7.959c-0.589-0.115-1.122-0.282-1.592-0.5
	c-0.497-0.231-2.981-1.501-2.981-3.793v-0.5h-2.06c-0.01,7.397-0.01,11.523,0.001,12.268c0.012,0.91-0.393,1.894-1.056,2.565
	c-0.643,0.651-1.479,0.995-2.42,0.995c-2.278,0-3.491-1.994-3.491-3.434c0-1.133,0.522-2.178,1.434-2.867
	c0.545-0.411,1.23-0.632,2.219-0.702V10.31z"/>
</svg>






