<?xml version="1.0" encoding="iso-8859-1"?>
<svg version="1.1" id="&#x56FE;&#x5C42;_1" xmlns="http://www.w3.org/2000/svg" xmlns:xlink="http://www.w3.org/1999/xlink" x="0px"
	 y="0px" viewBox="0 0 24 24" style="enable-background:new 0 0 24 24;" xml:space="preserve">
<path style="fill:#333333;" d="M12,22.75c-4.825,0-8.75-3.925-8.75-8.75c0-4.825,3.925-8.75,8.75-8.75c4.825,0,8.75,3.925,8.75,8.75
	C20.75,18.825,16.825,22.75,12,22.75z M12,6.75c-3.998,0-7.25,3.252-7.25,7.25c0,3.998,3.252,7.25,7.25,7.25
	c3.998,0,7.25-3.252,7.25-7.25C19.25,10.002,15.998,6.75,12,6.75z"/>
<rect x="10" y="1.25" style="fill:#333333;" width="4" height="1.5"/>
<rect x="11.25" y="2" style="fill:#333333;" width="1.5" height="4"/>
<rect x="17.189" y="6.5" transform="matrix(0.7071 -0.7071 0.7071 0.7071 0.2188 15.0282)" style="fill:#333333;" width="2.121" height="1.5"/>
<rect x="11.25" y="11" style="fill:#333333;" width="1.5" height="3"/>
<rect x="9" y="13.25" style="fill:#333333;" width="3" height="1.5"/>
</svg>






