<?xml version="1.0" encoding="iso-8859-1"?>
<svg version="1.1" id="&#x56FE;&#x5C42;_1" xmlns="http://www.w3.org/2000/svg" xmlns:xlink="http://www.w3.org/1999/xlink" x="0px"
	 y="0px" viewBox="0 0 24 24" style="enable-background:new 0 0 24 24;" xml:space="preserve">
<path style="fill:#333333;" d="M15.018,18.217l-6.166-0.05C5.501,16.874,3.25,13.593,3.25,10c0-4.825,3.925-8.75,8.75-8.75
	c4.825,0,8.75,3.925,8.75,8.75c0,3.593-2.251,6.874-5.603,8.167L15.018,18.217z M9.265,16.717h5.469
	c2.707-1.104,4.516-3.785,4.516-6.717c0-3.998-3.252-7.25-7.25-7.25c-3.998,0-7.25,3.252-7.25,7.25
	C4.75,12.932,6.559,15.613,9.265,16.717z"/>
<path style="fill:#333333;" d="M14.04,22.75H9.96c-0.645,0-1.192-0.503-1.246-1.146l-0.34-4.075l1.495-0.125l0.32,3.846h3.62
	l0.321-3.846l1.494,0.125l-0.34,4.075C15.232,22.247,14.686,22.75,14.04,22.75z"/>
<polygon style="fill:#333333;" points="15.75,12.714 12,10.838 8.25,12.714 8.25,8.5 9.75,8.5 9.75,10.287 12,9.162 14.25,10.287 
	14.25,8.5 15.75,8.5 "/>
</svg>






