<?xml version="1.0" encoding="iso-8859-1"?>
<svg version="1.1" id="&#x56FE;&#x5C42;_1" xmlns="http://www.w3.org/2000/svg" xmlns:xlink="http://www.w3.org/1999/xlink" x="0px"
	 y="0px" viewBox="0 0 24 24" style="enable-background:new 0 0 24 24;" xml:space="preserve">
<path style="fill:#333333;" d="M14.749,11.75h-5.5v-7.5h5.5V11.75z M10.75,10.25h2.5v-4.5h-2.5V10.25z"/>
<polygon style="fill:#333333;" points="19.273,22.75 4.725,22.75 7.844,17.136 9.156,17.864 7.274,21.25 16.725,21.25 
	14.845,17.864 16.155,17.136 "/>
<path style="fill:#333333;" d="M17.749,11h-1.5V2.75h-8.5V11h-1.5V2.5c0-0.689,0.561-1.25,1.25-1.25h9c0.689,0,1.25,0.561,1.25,1.25
	V11z"/>
<path style="fill:#333333;" d="M12,18.75c-1.243,0-2.654-0.254-4.192-0.755c-2.716-0.886-4.772-3.372-5.5-6.65
	c-0.06-0.268,0.004-0.543,0.176-0.757c0.171-0.214,0.427-0.337,0.702-0.337h17.627c0.273,0,0.528,0.122,0.7,0.335
	c0.172,0.213,0.236,0.49,0.178,0.757c-0.729,3.283-2.785,5.769-5.5,6.653C14.654,18.496,13.244,18.75,12,18.75z M3.964,11.75
	c0.729,2.39,2.302,4.165,4.308,4.819C9.661,17.021,10.915,17.25,12,17.25c1.086,0,2.34-0.229,3.727-0.681
	c2.006-0.653,3.579-2.43,4.309-4.819H3.964z M3.772,11.018v0.001c0,0,0,0.001,0,0.002C3.772,11.02,3.772,11.019,3.772,11.018z"/>
</svg>






