<?xml version="1.0" encoding="iso-8859-1"?>
<svg version="1.1" id="&#x56FE;&#x5C42;_1" xmlns="http://www.w3.org/2000/svg" xmlns:xlink="http://www.w3.org/1999/xlink" x="0px"
	 y="0px" viewBox="0 0 24 24" style="enable-background:new 0 0 24 24;" xml:space="preserve">
<path style="fill:#333333;" d="M12,22.75c-5.928,0-10.75-4.037-10.75-9c0-3.297,2.08-6.337,5.427-7.935l0.333-0.159L9.25,6.789
	v2.196l2.5-0.769l2.401,0.739l-0.197-2.177l2.54-1.1L16.788,5.8c3.678,1.531,5.962,4.577,5.962,7.95
	C22.75,18.713,17.928,22.75,12,22.75z M6.999,7.332C4.406,8.699,2.75,11.184,2.75,13.75c0,4.136,4.149,7.5,9.25,7.5
	s9.25-3.364,9.25-7.5c0-2.711-1.77-5.1-4.75-6.44l-0.954,0.413l0.303,3.323L11.75,9.785l-4,1.231V7.711L6.999,7.332z"/>
<path style="fill:#333333;" d="M15.486,11.202L11.75,9.801l-3.737,1.401l-0.985-0.906l0.776-2.753L5.061,5.563l0.371-1.355
	l4.012-0.366l2.306-3.099l2.306,3.099l4.013,0.366l0.37,1.355l-2.743,1.979l0.776,2.753L15.486,11.202z M7.564,5.52l1.969,1.42
	L8.874,9.277l2.876-1.078l2.876,1.078L13.967,6.94l1.969-1.42l-2.683-0.245L11.75,3.256l-1.502,2.019L7.564,5.52z"/>
</svg>






