<?xml version="1.0" encoding="iso-8859-1"?>
<svg version="1.1" id="&#x56FE;&#x5C42;_1" xmlns="http://www.w3.org/2000/svg" xmlns:xlink="http://www.w3.org/1999/xlink" x="0px"
	 y="0px" viewBox="0 0 24 24" style="enable-background:new 0 0 24 24;" xml:space="preserve">
<path style="fill:#333333;" d="M18.5,21.25h-13c-1.241,0-2.25-1.01-2.25-2.25v-6.5h1.5V19c0,0.413,0.336,0.75,0.75,0.75h13
	c0.413,0,0.75-0.337,0.75-0.75v-6.5h1.5V19C20.75,20.24,19.74,21.25,18.5,21.25z"/>
<path style="fill:#333333;" d="M20.5,13.25h-17c-0.965,0-1.75-0.785-1.75-1.75v-4c0-0.965,0.785-1.75,1.75-1.75h17
	c0.965,0,1.75,0.785,1.75,1.75v4C22.25,12.465,21.465,13.25,20.5,13.25z M3.5,7.25c-0.138,0-0.25,0.112-0.25,0.25v4
	c0,0.138,0.112,0.25,0.25,0.25h17c0.138,0,0.25-0.112,0.25-0.25v-4c0-0.138-0.112-0.25-0.25-0.25H3.5z"/>
<path style="fill:#333333;" d="M16.25,6.5h-1.5v-2c0-0.138-0.112-0.25-0.25-0.25h-5c-0.138,0-0.25,0.112-0.25,0.25v2h-1.5v-2
	c0-0.965,0.785-1.75,1.75-1.75h5c0.965,0,1.75,0.785,1.75,1.75V6.5z"/>
<rect x="6.75" y="11.5" style="fill:#333333;" width="1.5" height="3"/>
<rect x="15.75" y="11.5" style="fill:#333333;" width="1.5" height="3"/>
</svg>






