<?xml version="1.0" encoding="iso-8859-1"?>
<svg version="1.1" id="&#x56FE;&#x5C42;_1" xmlns="http://www.w3.org/2000/svg" xmlns:xlink="http://www.w3.org/1999/xlink" x="0px"
	 y="0px" viewBox="0 0 24 24" style="enable-background:new 0 0 24 24;" xml:space="preserve">
<path style="fill:#333333;" d="M4.5,23.061L0.939,19.5l8.851-8.851C9.436,9.816,9.25,8.911,9.25,8c0-3.722,3.028-6.75,6.75-6.75
	c1.099,0,2.189,0.271,3.156,0.782l0.898,0.475L16.061,6.5L17.5,7.939l3.993-3.993l0.476,0.897C22.479,5.809,22.75,6.9,22.75,8
	c0,3.722-3.028,6.75-6.75,6.75c-0.91,0-1.816-0.186-2.649-0.54L4.5,23.061z M3.061,19.5L4.5,20.939l8.556-8.556l0.489,0.259
	c0.762,0.403,1.588,0.607,2.455,0.607c2.895,0,5.25-2.355,5.25-5.25c0-0.501-0.072-1-0.211-1.478L17.5,10.061L13.939,6.5l3.54-3.54
	C17.004,2.82,16.509,2.75,16,2.75c-2.895,0-5.25,2.355-5.25,5.25c0,0.855,0.21,1.704,0.607,2.454l0.26,0.49L3.061,19.5z"/>
</svg>






