<?xml version="1.0" encoding="iso-8859-1"?>
<svg version="1.1" id="&#x56FE;&#x5C42;_1" xmlns="http://www.w3.org/2000/svg" xmlns:xlink="http://www.w3.org/1999/xlink" x="0px"
	 y="0px" viewBox="0 0 24 24" style="enable-background:new 0 0 24 24;" xml:space="preserve">
<path style="fill:#333333;" d="M12.719,21.069c-0.089,0-0.178-0.009-0.267-0.028l-4.543-0.966c-0.329-0.069-0.613-0.264-0.798-0.547
	c-0.185-0.284-0.248-0.622-0.178-0.953l1.883-8.859l-3.81-0.81C4.324,8.76,3.887,8.087,4.031,7.405L4.998,2.86
	c0.146-0.683,0.82-1.121,1.501-0.976l14.642,3.113c0.681,0.145,1.118,0.817,0.976,1.5l-0.967,4.545
	c-0.146,0.684-0.821,1.122-1.501,0.975l-3.811-0.81l-1.884,8.859c-0.069,0.329-0.264,0.613-0.547,0.798
	C13.199,20.999,12.962,21.069,12.719,21.069z M8.45,18.657l4.086,0.868l1.937-9.109c0.123-0.581,0.633-0.895,1.233-0.77l4.025,0.856
	L20.6,6.416L6.416,3.401L5.547,7.487l4.062,0.863c0.572,0.122,0.899,0.625,0.777,1.195L8.45,18.657z M9.296,9.817L9.296,9.817
	L9.296,9.817z"/>
</svg>






