<?xml version="1.0" encoding="iso-8859-1"?>
<svg version="1.1" id="&#x56FE;&#x5C42;_1" xmlns="http://www.w3.org/2000/svg" xmlns:xlink="http://www.w3.org/1999/xlink" x="0px"
	 y="0px" viewBox="0 0 24 24" style="enable-background:new 0 0 24 24;" xml:space="preserve">
<path style="fill:#333333;" d="M12,22.75c-1.426,0-2.811-0.274-4.115-0.816c-0.59-0.244-1.164-0.545-1.708-0.896
	c-0.234,0.02-0.945,0.13-2.979,0.687l-0.921-0.921c0.556-2.034,0.667-2.746,0.686-2.979c-0.349-0.541-0.65-1.114-0.896-1.708
	C1.524,14.809,1.25,13.424,1.25,12C1.25,6.072,6.072,1.25,12,1.25S22.75,6.072,22.75,12S17.928,22.75,12,22.75z M6.283,19.531
	c0.304,0,0.441,0.069,0.577,0.16c0.507,0.34,1.045,0.628,1.599,0.856C9.581,21.014,10.772,21.25,12,21.25
	c5.101,0,9.25-4.149,9.25-9.25S17.101,2.75,12,2.75S2.75,6.899,2.75,12c0,1.226,0.236,2.417,0.702,3.541
	c0.231,0.558,0.519,1.095,0.855,1.598c0.205,0.305,0.3,0.616-0.253,2.807C5.268,19.639,5.905,19.531,6.283,19.531z"/>
<rect x="8.302" y="9.16" style="fill:#333333;" width="8.39" height="1.5"/>
<rect x="6" y="11.25" transform="matrix(0.1732 -0.9849 0.9849 0.1732 -3.3892 19.963)" style="fill:#333333;" width="8.389" height="1.5"/>
<rect x="9.501" y="11.25" transform="matrix(0.1733 -0.9849 0.9849 0.1733 -0.4961 23.409)" style="fill:#333333;" width="8.389" height="1.499"/>
<rect x="7.302" y="13.25" style="fill:#333333;" width="8.39" height="1.5"/>
</svg>






