<?xml version="1.0" encoding="iso-8859-1"?>
<svg version="1.1" id="&#x56FE;&#x5C42;_1" xmlns="http://www.w3.org/2000/svg" xmlns:xlink="http://www.w3.org/1999/xlink" x="0px"
	 y="0px" viewBox="0 0 24 24" style="enable-background:new 0 0 24 24;" xml:space="preserve">
<path style="fill:#333333;" d="M13.5,22.75h-3L9.75,22v-5l0.75-0.75h3L14.25,17v5L13.5,22.75z M11.25,21.25h1.5v-3.5h-1.5V21.25z"/>
<path style="fill:#333333;" d="M15.5,17.75h-7l-0.702-0.486l-1.5-4L7,12.25h10l0.702,1.014l-1.5,4L15.5,17.75z M9.02,16.25h5.961
	l0.938-2.5H8.082L9.02,16.25z"/>
<path style="fill:#333333;" d="M13.5,13.75h-4c-1.67,0-2.93-1.35-2.93-3.14c0-1.427,1.884-5.207,2.262-5.95l1.345,0.017
	c0.001,0.002,0.125,0.261,0.314,0.645c1.037-1.916,2.339-3.677,2.407-3.768l1.259,0.083c0.335,0.605,3.273,5.973,3.273,7.979
	C17.43,11.973,15.74,13.75,13.5,13.75z M9.506,6.706C8.781,8.263,8.07,10.012,8.07,10.61c0,0.79,0.448,1.64,1.43,1.64h4
	c1.408,0,2.43-1.108,2.43-2.635c0-1.039-1.371-4-2.515-6.189c-0.657,0.97-1.634,2.505-2.227,3.872L9.835,7.347
	C9.722,7.131,9.611,6.914,9.506,6.706z"/>
</svg>






