<?xml version="1.0" encoding="iso-8859-1"?>
<svg version="1.1" id="&#x56FE;&#x5C42;_1" xmlns="http://www.w3.org/2000/svg" xmlns:xlink="http://www.w3.org/1999/xlink" x="0px"
	 y="0px" viewBox="0 0 24 24" style="enable-background:new 0 0 24 24;" xml:space="preserve">
<path style="fill:#333333;" d="M18.5,18.75h-13c-0.965,0-1.75-0.785-1.75-1.75v-6.25h16.5V17C20.25,17.965,19.465,18.75,18.5,18.75z
	 M5.25,12.25V17c0,0.138,0.112,0.25,0.25,0.25h13c0.138,0,0.25-0.112,0.25-0.25v-4.75H5.25z"/>
<path style="fill:#333333;" d="M20.25,12.25H3.75V4c0-0.965,0.785-1.75,1.75-1.75h13c0.965,0,1.75,0.785,1.75,1.75V12.25z
	 M5.25,10.75h13.5V4c0-0.138-0.112-0.25-0.25-0.25h-13C5.362,3.75,5.25,3.862,5.25,4V10.75z"/>
<path style="fill:#333333;" d="M7.5,21.75c-1.241,0-2.25-1.01-2.25-2.25v-2.25h4.5v2.25C9.75,20.74,8.741,21.75,7.5,21.75z
	 M6.75,18.75v0.75c0,0.413,0.336,0.75,0.75,0.75s0.75-0.337,0.75-0.75v-0.75H6.75z"/>
<path style="fill:#333333;" d="M16.5,21.75c-1.24,0-2.25-1.01-2.25-2.25v-2.25h4.5v2.25C18.75,20.74,17.74,21.75,16.5,21.75z
	 M15.75,18.75v0.75c0,0.413,0.337,0.75,0.75,0.75s0.75-0.337,0.75-0.75v-0.75H15.75z"/>
<rect x="2.25" y="6" style="fill:#333333;" width="1.5" height="2"/>
<rect x="20.25" y="6" style="fill:#333333;" width="1.5" height="2"/>
<circle style="fill:#333333;" cx="7.5" cy="15" r="1"/>
<circle style="fill:#333333;" cx="16.5" cy="15" r="1"/>
<rect x="9.887" y="4.75" transform="matrix(0.669 -0.7432 0.7432 0.669 0.2975 11.6681)" style="fill:#333333;" width="6.727" height="1.501"/>
<rect x="15.797" y="4.25" transform="matrix(0.6401 -0.7683 0.7683 0.6401 2.5474 15.4375)" style="fill:#333333;" width="3.905" height="1.5"/>
</svg>






