<?xml version="1.0" encoding="iso-8859-1"?>
<svg version="1.1" id="&#x56FE;&#x5C42;_1" xmlns="http://www.w3.org/2000/svg" xmlns:xlink="http://www.w3.org/1999/xlink" x="0px"
	 y="0px" viewBox="0 0 24 24" style="enable-background:new 0 0 24 24;" xml:space="preserve">
<path style="fill:#333333;" d="M18,13.75H2L1.25,13V9L2,8.25h16L18.75,9v4L18,13.75z M2.75,12.25h14.5v-2.5H2.75V12.25z"/>
<path style="fill:#333333;" d="M20,22.75H8c-1.517,0-2.75-1.233-2.75-2.75v-1.25H4c-1.517,0-2.75-1.233-2.75-2.75V4
	c0-1.517,1.233-2.75,2.75-2.75h16c1.517,0,2.75,1.233,2.75,2.75v16C22.75,21.517,21.517,22.75,20,22.75z M6.75,18.75V20
	c0,0.689,0.561,1.25,1.25,1.25h12c0.689,0,1.25-0.561,1.25-1.25V4c0-0.689-0.561-1.25-1.25-1.25H4C3.311,2.75,2.75,3.311,2.75,4v12
	c0,0.689,0.561,1.25,1.25,1.25h12c0.689,0,1.25-0.561,1.25-1.25V6h1.5v10c0,1.517-1.233,2.75-2.75,2.75H6.75z"/>
</svg>






