<?xml version="1.0" encoding="iso-8859-1"?>
<svg version="1.1" id="&#x56FE;&#x5C42;_1" xmlns="http://www.w3.org/2000/svg" xmlns:xlink="http://www.w3.org/1999/xlink" x="0px"
	 y="0px" viewBox="0 0 24 24" style="enable-background:new 0 0 24 24;" xml:space="preserve">
<polygon style="fill:#333333;" points="10.75,7.25 9.25,7.25 9.25,1.25 14.75,1.25 14.75,6.75 13.25,6.75 13.25,2.75 10.75,2.75 "/>
<polygon style="fill:#333333;" points="7.75,12.5 6.25,12.5 6.25,7.067 17.75,5.652 17.75,11.5 16.25,11.5 16.25,7.348 7.75,8.395 
	"/>
<polygon style="fill:#333333;" points="6.25,17.5 4.75,17.5 4.75,12.332 19.25,10.659 19.25,16 17.75,16 17.75,12.342 6.25,13.668 
	"/>
<path style="fill:#333333;" d="M20.75,22.75H3.25v-5.412l17.5-2.188V22.75z M4.75,21.25h14.5v-4.4l-14.5,1.812V21.25z"/>
</svg>






