<?xml version="1.0" encoding="iso-8859-1"?>
<svg version="1.1" id="&#x56FE;&#x5C42;_1" xmlns="http://www.w3.org/2000/svg" xmlns:xlink="http://www.w3.org/1999/xlink" x="0px"
	 y="0px" viewBox="0 0 24 24" style="enable-background:new 0 0 24 24;" xml:space="preserve">
<g>
	<defs>
		<rect id="SVGID_1_" width="24" height="24"/>
	</defs>
	<clipPath id="SVGID_00000091706466358198225600000009682601742072416676_">
		<use xlink:href="#SVGID_1_"  style="overflow:visible;"/>
	</clipPath>
	<g style="clip-path:url(#SVGID_00000091706466358198225600000009682601742072416676_);">
		<rect x="2" y="21.25" style="fill:#333333;" width="20" height="1.5"/>
		<path style="fill:#333333;" d="M14.575,22.75H4.511l5.592-19.929l9.168,2.457L14.575,22.75z M6.489,21.25h6.936l4.009-14.912
			l-6.287-1.685L6.489,21.25z"/>
		
			<rect x="13.738" y="-0.228" transform="matrix(0.2588 -0.9659 0.9659 0.2588 6.1284 17.5322)" style="fill:#333333;" width="1.5" height="10"/>
		
			<rect x="12.185" y="5.568" transform="matrix(0.2588 -0.9659 0.9659 0.2588 -0.621 20.3269)" style="fill:#333333;" width="1.5" height="10"/>
		
			<rect x="12" y="8.75" transform="matrix(0.259 -0.9659 0.9659 0.259 0.4568 19.5954)" style="fill:#333333;" width="2" height="1.5"/>
		
			<rect x="10.632" y="11.364" transform="matrix(0.2589 -0.9659 0.9659 0.2589 -7.3703 23.1217)" style="fill:#333333;" width="1.5" height="10"/>
		
			<rect x="10.5" y="14.25" transform="matrix(0.259 -0.9659 0.9659 0.259 -5.967 22.2219)" style="fill:#333333;" width="2" height="1.5"/>
		<path style="fill:#333333;" d="M16.552,6.058c-0.108,0-0.218-0.014-0.326-0.043l-3.863-1.035
			c-0.322-0.086-0.592-0.293-0.759-0.583c-0.167-0.289-0.211-0.626-0.125-0.948l0.259-0.966c0.086-0.322,0.293-0.592,0.583-0.759
			c0.29-0.167,0.627-0.211,0.949-0.124l3.862,1.035c0.322,0.086,0.592,0.293,0.759,0.582c0.168,0.289,0.212,0.626,0.126,0.949
			l-0.26,0.967c-0.086,0.321-0.293,0.591-0.582,0.758C16.982,6.001,16.769,6.058,16.552,6.058z M12.992,3.595l3.381,0.906
			l0.13-0.483l-3.381-0.906L12.992,3.595z"/>
		
			<rect x="9" y="19.75" transform="matrix(0.259 -0.9659 0.9659 0.259 -12.3907 24.8484)" style="fill:#333333;" width="2" height="1.5"/>
	</g>
</g>
</svg>






