<?xml version="1.0" encoding="iso-8859-1"?>
<svg version="1.1" id="&#x56FE;&#x5C42;_1" xmlns="http://www.w3.org/2000/svg" xmlns:xlink="http://www.w3.org/1999/xlink" x="0px"
	 y="0px" viewBox="0 0 24 24" style="enable-background:new 0 0 24 24;" xml:space="preserve">
<path style="fill:#333333;" d="M17.724,22.75H7.252v-2.438c-0.15-0.092-0.296-0.188-0.446-0.288
	c-0.558-0.373-1.08-0.803-1.554-1.276C3.316,16.812,2.25,14.237,2.25,11.5c0-5.652,4.598-10.25,10.25-10.25
	c5.652,0,10.25,4.598,10.25,10.25c0,2.737-1.066,5.312-3.002,7.248c-0.474,0.474-0.996,0.902-1.553,1.275
	c-0.151,0.102-0.306,0.198-0.462,0.292c0.002,0.658-0.005,1.69-0.005,1.69L17.724,22.75z M8.752,21.25h7.48
	c0.003-0.512,0.004-1.135-0.004-1.346l-0.015-0.467l0.412-0.22c0.254-0.135,0.499-0.283,0.736-0.441
	c0.475-0.317,0.921-0.685,1.325-1.089c1.652-1.653,2.562-3.851,2.562-6.188c0-4.825-3.925-8.75-8.75-8.75
	c-4.825,0-8.75,3.925-8.75,8.75c0,2.337,0.91,4.534,2.563,6.188c0.405,0.405,0.851,0.771,1.326,1.09
	c0.236,0.157,0.464,0.306,0.716,0.44l0.397,0.212V21.25z"/>
<path style="fill:#333333;" d="M9,14.25c-1.517,0-2.75-1.233-2.75-2.75S7.483,8.75,9,8.75h0.311l2.439,2.439V11.5
	C11.75,13.017,10.517,14.25,9,14.25z M8.721,10.281C8.166,10.409,7.75,10.907,7.75,11.5c0,0.689,0.561,1.25,1.25,1.25
	c0.593,0,1.091-0.415,1.219-0.971L8.721,10.281z"/>
<path style="fill:#333333;" d="M16,14.25c-1.517,0-2.75-1.233-2.75-2.75v-0.311l2.439-2.439H16c1.517,0,2.75,1.233,2.75,2.75
	S17.517,14.25,16,14.25z M14.781,11.779c0.127,0.556,0.625,0.971,1.219,0.971c0.689,0,1.25-0.561,1.25-1.25
	c0-0.593-0.415-1.091-0.971-1.219L14.781,11.779z"/>
<polygon style="fill:#333333;" points="11.536,17.524 10.464,16.476 12.448,14.448 14.516,16.403 13.484,17.493 12.489,16.552 "/>
</svg>






