<?xml version="1.0" encoding="iso-8859-1"?>
<svg version="1.1" id="&#x56FE;&#x5C42;_1" xmlns="http://www.w3.org/2000/svg" xmlns:xlink="http://www.w3.org/1999/xlink" x="0px"
	 y="0px" viewBox="0 0 24 24" style="enable-background:new 0 0 24 24;" xml:space="preserve">
<path style="fill:#333333;" d="M12,21.75c-5.376,0-9.75-4.374-9.75-9.75S6.624,2.25,12,2.25v1.5c-4.549,0-8.25,3.701-8.25,8.25
	s3.701,8.25,8.25,8.25s8.25-3.701,8.25-8.25h1.5C21.75,17.376,17.376,21.75,12,21.75z"/>
<path style="fill:#333333;" d="M12,17.25c-2.895,0-5.25-2.355-5.25-5.25c0-2.895,2.355-5.25,5.25-5.25v1.5
	c-2.068,0-3.75,1.682-3.75,3.75c0,2.067,1.682,3.75,3.75,3.75c2.067,0,3.75-1.683,3.75-3.75h1.5C17.25,14.895,14.895,17.25,12,17.25
	z"/>
<rect x="11.346" y="9.674" transform="matrix(0.7069 -0.7073 0.7073 0.7069 -3.394 12.6559)" style="fill:#333333;" width="4.457" height="1.5"/>
<path style="fill:#333333;" d="M18.624,9.6h-4.225V5.404l2.921-2.933L18.602,3v2.4H21l0.531,1.279L18.624,9.6z M15.899,8.1h2.102
	l1.194-1.2h-2.094V4.816l-1.202,1.207V8.1z"/>
</svg>






