<?xml version="1.0" encoding="iso-8859-1"?>
<svg version="1.1" id="&#x56FE;&#x5C42;_1" xmlns="http://www.w3.org/2000/svg" xmlns:xlink="http://www.w3.org/1999/xlink" x="0px"
	 y="0px" viewBox="0 0 24 24" style="enable-background:new 0 0 24 24;" xml:space="preserve">
<path style="fill:#333333;" d="M15.705,22.25H8.371l-0.086-0.651c-0.2-1.51-0.457-1.793-0.468-1.804
	C3.858,18.188,1.25,14.325,1.25,10V9.25h21.5V10c0,4.343-2.728,8.308-6.799,9.902c-0.057,0.124-0.19,0.527-0.224,1.621L15.705,22.25
	z M9.672,20.75h4.597c0.114-1.32,0.433-1.977,1.044-2.209c3.314-1.258,5.613-4.33,5.906-7.791H2.781
	c0.279,3.405,2.447,6.379,5.682,7.703C9.063,18.699,9.429,19.38,9.672,20.75z"/>
<path style="fill:#333333;" d="M8.551,16.631c-0.476-0.362-0.883-0.764-1.211-1.192c-0.349-0.457-0.63-1.032-0.835-1.71l1.436-0.434
	c0.153,0.504,0.352,0.919,0.591,1.231c0.247,0.323,0.56,0.63,0.929,0.911L8.551,16.631z"/>
<path style="fill:#333333;" d="M13.282,10.34l-1.35-0.653c1.875-3.873,2.979-6.156,3.308-6.849c0.659-1.387,2.117-1.929,3.545-1.319
	c0.648,0.276,1.165,0.825,1.417,1.505c0.245,0.664,0.22,1.383-0.071,1.974c-0.255,0.517-1.119,2.294-2.593,5.332l-1.35-0.654
	c1.476-3.042,2.342-4.822,2.597-5.34c0.108-0.22,0.112-0.515,0.01-0.79c-0.064-0.173-0.228-0.488-0.6-0.647
	c-0.33-0.143-1.148-0.369-1.6,0.583C16.267,4.174,15.161,6.461,13.282,10.34z"/>
</svg>






