<?xml version="1.0" encoding="iso-8859-1"?>
<svg version="1.1" id="&#x56FE;&#x5C42;_1" xmlns="http://www.w3.org/2000/svg" xmlns:xlink="http://www.w3.org/1999/xlink" x="0px"
	 y="0px" viewBox="0 0 24 24" style="enable-background:new 0 0 24 24;" xml:space="preserve">
<path style="fill:#333333;" d="M12,22.75C6.072,22.75,1.25,17.928,1.25,12S6.072,1.25,12,1.25S22.75,6.072,22.75,12
	S17.928,22.75,12,22.75z M12,2.75c-5.101,0-9.25,4.149-9.25,9.25s4.149,9.25,9.25,9.25s9.25-4.149,9.25-9.25S17.101,2.75,12,2.75z"
	/>
<rect x="6" y="8.75" style="fill:#333333;" width="4" height="1.5"/>
<rect x="7.25" y="9.5" style="fill:#333333;" width="1.5" height="5"/>
<polygon style="fill:#333333;" points="18.75,14.5 17.25,14.5 17.25,11.572 15.5,13.672 13.75,11.572 13.75,14.5 12.25,14.5 
	12.25,9.5 13.576,9.02 15.5,11.329 17.424,9.02 18.75,9.5 "/>
</svg>






