<?xml version="1.0" encoding="iso-8859-1"?>
<svg version="1.1" id="&#x56FE;&#x5C42;_1" xmlns="http://www.w3.org/2000/svg" xmlns:xlink="http://www.w3.org/1999/xlink" x="0px"
	 y="0px" viewBox="0 0 24 24" style="enable-background:new 0 0 24 24;" xml:space="preserve">
<path style="fill:#333333;" d="M21,17.75H10c-0.965,0-1.75-0.785-1.75-1.75V5c0-0.965,0.785-1.75,1.75-1.75h11
	c0.965,0,1.75,0.785,1.75,1.75v11C22.75,16.965,21.965,17.75,21,17.75z M10,4.75C9.862,4.75,9.75,4.862,9.75,5v11
	c0,0.138,0.112,0.25,0.25,0.25h11c0.138,0,0.25-0.112,0.25-0.25V5c0-0.138-0.112-0.25-0.25-0.25H10z"/>
<path style="fill:#333333;" d="M9.75,17.75h-8.5v-4.848L5.207,9.25H9.75V17.75z M2.75,16.25h5.5v-5.5H5.793L2.75,13.559V16.25z"/>
<path style="fill:#333333;" d="M7,20.75c-1.517,0-2.75-1.233-2.75-2.75h1.5c0,0.689,0.561,1.25,1.25,1.25S8.25,18.689,8.25,18h1.5
	C9.75,19.517,8.517,20.75,7,20.75z"/>
<path style="fill:#333333;" d="M18,20.75c-1.517,0-2.75-1.233-2.75-2.75h1.5c0,0.689,0.561,1.25,1.25,1.25s1.25-0.561,1.25-1.25h1.5
	C20.75,19.517,19.517,20.75,18,20.75z"/>
</svg>






