<?xml version="1.0" encoding="iso-8859-1"?>
<svg version="1.1" id="&#x56FE;&#x5C42;_1" xmlns="http://www.w3.org/2000/svg" xmlns:xlink="http://www.w3.org/1999/xlink" x="0px"
	 y="0px" viewBox="0 0 24 24" style="enable-background:new 0 0 24 24;" xml:space="preserve">
<path style="fill:#333333;" d="M14.812,16.301l-0.896-2.051h-3.832l-0.897,2.051l-1.374-0.602l1.094-2.5L9.594,13.5l-0.687-0.301
	l2.406-5.5h1.375l2.406,5.5L14.406,13.5l0.688-0.301l1.094,2.5L14.812,16.301z M10.741,12.75h2.519L12,9.871L10.741,12.75z"/>
<path style="fill:#333333;" d="M1.007,11.122l0.258-1.271C2.277,4.867,6.708,1.25,11.8,1.25c5.094,0,9.524,3.617,10.535,8.601
	l-1.471,0.298C19.995,5.862,16.183,2.75,11.8,2.75c-3.922,0-7.389,2.494-8.697,6.092l1.66-0.553l0.475,1.423L1.007,11.122z"/>
<path style="fill:#333333;" d="M11.8,22.75c-5.092,0-9.523-3.617-10.535-8.601l1.47-0.299c0.871,4.287,4.683,7.399,9.065,7.399
	c3.894,0,7.338-2.456,8.667-6.011L19.27,15.7l-0.539-1.4l2.6-1l1.005,0.85C21.324,19.133,16.894,22.75,11.8,22.75z"/>
</svg>






