<?xml version="1.0" encoding="iso-8859-1"?>
<svg version="1.1" id="&#x56FE;&#x5C42;_1" xmlns="http://www.w3.org/2000/svg" xmlns:xlink="http://www.w3.org/1999/xlink" x="0px"
	 y="0px" viewBox="0 0 24 24" style="enable-background:new 0 0 24 24;" xml:space="preserve">
<path style="fill:#333333;" d="M20.317,21.312l-0.941-2.062h-4.752l-0.941,2.062l-1.365-0.623l1.141-2.495l2.855-6.495h1.373
	l3.996,8.99L20.317,21.312z M15.292,17.75h3.416L17,13.863L15.292,17.75z"/>
<rect x="7.5" y="2.959" transform="matrix(0.9487 -0.3162 0.3162 0.9487 -0.7625 2.8013)" style="fill:#333333;" width="1.5" height="1.581"/>
<rect x="3" y="4.75" style="fill:#333333;" width="11" height="1.5"/>
<path style="fill:#333333;" d="M13.731,16.7c-0.152-0.059-3.762-1.452-6.06-3.239c-2.403-1.867-3.353-5.117-3.393-5.255l1.442-0.413
	c0.009,0.029,0.861,2.922,2.872,4.484c2.12,1.648,5.641,3.009,5.676,3.022L13.731,16.7z"/>
<path style="fill:#333333;" d="M3.337,16.67l-0.674-1.34c0.035-0.018,3.549-1.8,5.669-3.964c2.056-2.097,2.926-5.987,2.935-6.026
	l1.465,0.32c-0.038,0.176-0.967,4.348-3.329,6.756C7.106,14.761,3.49,16.593,3.337,16.67z"/>
</svg>






