<?xml version="1.0" encoding="iso-8859-1"?>
<svg version="1.1" id="&#x56FE;&#x5C42;_1" xmlns="http://www.w3.org/2000/svg" xmlns:xlink="http://www.w3.org/1999/xlink" x="0px"
	 y="0px" viewBox="0 0 24 24" style="enable-background:new 0 0 24 24;" xml:space="preserve">
<path style="fill:#333333;" d="M20.5,15.75h-11c-1.241,0-2.25-1.01-2.25-2.25v-6c0-1.241,1.009-2.25,2.25-2.25h11
	c1.24,0,2.25,1.009,2.25,2.25v6C22.75,14.74,21.74,15.75,20.5,15.75z M9.5,6.75c-0.414,0-0.75,0.336-0.75,0.75v6
	c0,0.413,0.336,0.75,0.75,0.75h11c0.413,0,0.75-0.337,0.75-0.75v-6c0-0.414-0.337-0.75-0.75-0.75H9.5z"/>
<rect x="11.25" y="9" style="fill:#333333;" width="1.5" height="3"/>
<rect x="17.25" y="9" style="fill:#333333;" width="1.5" height="3"/>
<polygon style="fill:#333333;" points="18.75,6 17.25,6 17.25,3.75 12.75,3.75 12.75,6 11.25,6 11.25,2.25 18.75,2.25 "/>
<path style="fill:#333333;" d="M22,18.75H6c-0.965,0-1.75-0.785-1.75-1.75V5.5c0-0.138-0.112-0.25-0.25-0.25H2v-1.5h2
	c0.965,0,1.75,0.785,1.75,1.75V17c0,0.138,0.112,0.25,0.25,0.25h16V18.75z"/>
<path style="fill:#333333;" d="M9.5,21.75c-1.241,0-2.25-1.01-2.25-2.25v-2.25h4.5v2.25C11.75,20.74,10.741,21.75,9.5,21.75z
	 M8.75,18.75v0.75c0,0.413,0.336,0.75,0.75,0.75s0.75-0.337,0.75-0.75v-0.75H8.75z"/>
<path style="fill:#333333;" d="M18.5,21.75c-1.24,0-2.25-1.01-2.25-2.25v-2.25h4.5v2.25C20.75,20.74,19.74,21.75,18.5,21.75z
	 M17.75,18.75v0.75c0,0.413,0.337,0.75,0.75,0.75s0.75-0.337,0.75-0.75v-0.75H17.75z"/>
</svg>






