<?xml version="1.0" encoding="iso-8859-1"?>
<svg version="1.1" id="&#x56FE;&#x5C42;_1" xmlns="http://www.w3.org/2000/svg" xmlns:xlink="http://www.w3.org/1999/xlink" x="0px"
	 y="0px" viewBox="0 0 24 24" style="enable-background:new 0 0 24 24;" xml:space="preserve">
<path style="fill:#333333;" d="M18.5,22.75h-13c-0.965,0-1.75-0.785-1.75-1.75V5c0-0.965,0.785-1.75,1.75-1.75h13
	c0.965,0,1.75,0.785,1.75,1.75v16C20.25,21.965,19.465,22.75,18.5,22.75z M5.5,4.75C5.362,4.75,5.25,4.862,5.25,5v16
	c0,0.138,0.112,0.25,0.25,0.25h13c0.138,0,0.25-0.112,0.25-0.25V5c0-0.138-0.112-0.25-0.25-0.25H5.5z"/>
<rect x="8.25" y="2" style="fill:#333333;" width="1.5" height="3"/>
<rect x="14.25" y="2" style="fill:#333333;" width="1.5" height="3"/>
<rect x="8" y="8.75" style="fill:#333333;" width="8" height="1.5"/>
<rect x="8" y="12.75" style="fill:#333333;" width="6" height="1.5"/>
<rect x="8" y="16.75" style="fill:#333333;" width="4" height="1.5"/>
</svg>






