<?xml version="1.0" encoding="iso-8859-1"?>
<svg version="1.1" id="&#x56FE;&#x5C42;_1" xmlns="http://www.w3.org/2000/svg" xmlns:xlink="http://www.w3.org/1999/xlink" x="0px"
	 y="0px" viewBox="0 0 24 24" style="enable-background:new 0 0 24 24;" xml:space="preserve">
<path style="fill:#333333;" d="M15.248,21.75c-2.206,0-4.001-1.815-4.001-4.047l0.006-11.132c0-1.555-1.122-2.821-2.501-2.821
	S6.25,5.016,6.25,6.571v7.625h-1.5V6.571c0-2.383,1.795-4.321,4.001-4.321s4.001,1.938,4.001,4.321l-0.006,11.132
	c0,1.404,1.122,2.547,2.501,2.547c1.38,0,2.502-1.143,2.502-2.547v-3.507h1.5v3.507C19.25,19.935,17.455,21.75,15.248,21.75z"/>
<polygon style="fill:#333333;" points="20.97,16.03 18.5,13.561 16.03,16.03 14.97,14.97 18.5,11.439 22.03,14.97 "/>
<path style="fill:#333333;" d="M18.5,10.389l-0.402-0.256c-0.137-0.087-3.348-2.16-3.348-4.769c0-0.958,0.405-1.893,1.111-2.567
	c1.412-1.35,3.865-1.35,5.277,0c0.706,0.674,1.111,1.61,1.111,2.567c0,2.609-3.211,4.682-3.348,4.769L18.5,10.389z M18.5,3.25
	c-0.599,0-1.183,0.23-1.604,0.631C16.479,4.28,16.25,4.806,16.25,5.364c0,1.265,1.381,2.569,2.249,3.222
	c0.868-0.655,2.251-1.963,2.251-3.222c0-0.558-0.229-1.084-0.646-1.482C19.683,3.48,19.099,3.25,18.5,3.25z"/>
<path style="fill:#333333;" d="M5.5,22.389l-0.403-0.256c-0.137-0.087-3.347-2.16-3.347-4.77c0-0.958,0.405-1.894,1.111-2.567
	c1.413-1.348,3.864-1.349,5.278,0.001c0.706,0.673,1.111,1.608,1.111,2.566c0,2.609-3.21,4.683-3.347,4.77L5.5,22.389z M5.5,15.25
	c-0.599,0-1.183,0.23-1.603,0.631c-0.417,0.398-0.647,0.925-0.647,1.482c0,1.259,1.381,2.566,2.25,3.222
	c0.869-0.655,2.25-1.963,2.25-3.222c0-0.558-0.229-1.084-0.646-1.481C6.683,15.48,6.099,15.25,5.5,15.25z"/>
<circle style="fill:#333333;" cx="18.5" cy="5.5" r="1"/>
<circle style="fill:#333333;" cx="5.5" cy="17.5" r="1"/>
</svg>






