<?xml version="1.0" encoding="iso-8859-1"?>
<svg version="1.1" id="&#x56FE;&#x5C42;_1" xmlns="http://www.w3.org/2000/svg" xmlns:xlink="http://www.w3.org/1999/xlink" x="0px"
	 y="0px" viewBox="0 0 24 24" style="enable-background:new 0 0 24 24;" xml:space="preserve">
<g>
	<defs>
		<rect id="SVGID_1_" width="24" height="24"/>
	</defs>
	<clipPath id="SVGID_00000144337813754170901280000003000006327799688367_">
		<use xlink:href="#SVGID_1_"  style="overflow:visible;"/>
	</clipPath>
	<g style="clip-path:url(#SVGID_00000144337813754170901280000003000006327799688367_);">
		<path style="fill:#333333;" d="M11.674,22.463c-0.468,0-0.907-0.183-1.238-0.513l-8.485-8.485
			c-0.33-0.329-0.513-0.769-0.513-1.236s0.182-0.908,0.513-1.238l9.192-9.192c0.683-0.683,1.793-0.683,2.475,0l8.485,8.485
			c0.33,0.33,0.513,0.77,0.513,1.237c0,0.467-0.183,0.907-0.513,1.237l-9.192,9.192C12.581,22.281,12.141,22.463,11.674,22.463z
			 M12.381,2.786c-0.064,0-0.128,0.024-0.177,0.073l-9.192,9.193c-0.064,0.063-0.073,0.138-0.073,0.177
			c0,0.038,0.009,0.112,0.073,0.175l8.486,8.486c0.128,0.127,0.226,0.127,0.354,0l9.192-9.192c0.063-0.064,0.073-0.138,0.073-0.176
			c0-0.039-0.01-0.113-0.073-0.176l-8.485-8.486C12.509,2.81,12.445,2.786,12.381,2.786z"/>
		<polygon style="fill:#333333;" points="19.629,8.869 18.568,7.809 20.159,6.217 17.685,3.743 16.093,5.333 15.032,4.273 
			17.685,1.622 22.28,6.217 		"/>
		<rect x="9" y="9.75" style="fill:#333333;" width="6" height="1.5"/>
		<rect x="9" y="12.75" style="fill:#333333;" width="2" height="1.5"/>
		<rect x="14" y="12.75" style="fill:#333333;" width="1" height="1.5"/>
	</g>
</g>
</svg>






