<?xml version="1.0" encoding="iso-8859-1"?>
<svg version="1.1" id="&#x56FE;&#x5C42;_1" xmlns="http://www.w3.org/2000/svg" xmlns:xlink="http://www.w3.org/1999/xlink" x="0px"
	 y="0px" viewBox="0 0 24 24" style="enable-background:new 0 0 24 24;" xml:space="preserve">
<rect x="3.25" y="19.5" style="fill:#333333;" width="1.5" height="2.5"/>
<rect x="19.25" y="19.5" style="fill:#333333;" width="1.5" height="2.5"/>
<polygon style="fill:#333333;" points="18.702,15.764 17.298,15.236 20.163,7.596 18.376,4.916 19.624,4.084 21.837,7.404 "/>
<rect x="15.464" y="3.75" transform="matrix(0.7071 -0.7071 0.7071 0.7071 2.383 14.753)" style="fill:#333333;" width="7.071" height="1.5"/>
<path style="fill:#333333;" d="M20,20.25H4c-1.517,0-2.75-1.233-2.75-2.75S2.483,14.75,4,14.75h16c1.517,0,2.75,1.233,2.75,2.75
	S21.517,20.25,20,20.25z M4,16.25c-0.689,0-1.25,0.561-1.25,1.25S3.311,18.75,4,18.75h16c0.689,0,1.25-0.561,1.25-1.25
	s-0.561-1.25-1.25-1.25H4z"/>
</svg>






