<?xml version="1.0" encoding="iso-8859-1"?>
<svg version="1.1" id="&#x56FE;&#x5C42;_1" xmlns="http://www.w3.org/2000/svg" xmlns:xlink="http://www.w3.org/1999/xlink" x="0px"
	 y="0px" viewBox="0 0 24 24" style="enable-background:new 0 0 24 24;" xml:space="preserve">
<path style="fill:#333333;" d="M19.875,22.75H4.655c-1.877,0-3.405-1.527-3.405-3.405v-2.71c0-0.503,0.216-0.981,0.592-1.313
	c0.377-0.333,0.877-0.486,1.375-0.426l17.01,2.125c1.438,0.184,2.522,1.41,2.522,2.854C22.75,21.46,21.46,22.75,19.875,22.75z
	 M3,16.382c-0.08,0-0.136,0.038-0.165,0.063c-0.032,0.028-0.085,0.09-0.085,0.189v2.71c0,1.051,0.854,1.905,1.905,1.905h15.22
	c0.758,0,1.375-0.617,1.375-1.375c0-0.691-0.521-1.278-1.21-1.366L3.032,16.384C3.021,16.383,3.01,16.382,3,16.382z"/>
<polygon style="fill:#333333;" points="7.311,16.296 1.311,2.295 2,1.25 5.215,1.25 5.215,2.75 3.137,2.75 8.689,15.704 "/>
<rect x="2" y="12.75" transform="matrix(0.6001 -0.7999 0.7999 0.6001 -8.9994 8.9982)" style="fill:#333333;" width="5" height="1.5"/>
<rect x="4.5" y="6.75" style="fill:#333333;" width="8" height="1.5"/>
</svg>






