<?xml version="1.0" encoding="iso-8859-1"?>
<svg version="1.1" id="&#x56FE;&#x5C42;_1" xmlns="http://www.w3.org/2000/svg" xmlns:xlink="http://www.w3.org/1999/xlink" x="0px"
	 y="0px" viewBox="0 0 24 24" style="enable-background:new 0 0 24 24;" xml:space="preserve">
<path style="fill:#333333;" d="M15,7.75c-1.792,0-3.25-1.458-3.25-3.25S13.208,1.25,15,1.25s3.25,1.458,3.25,3.25
	S16.792,7.75,15,7.75z M15,2.75c-0.965,0-1.75,0.785-1.75,1.75S14.035,6.25,15,6.25s1.75-0.785,1.75-1.75S15.965,2.75,15,2.75z"/>
<polygon style="fill:#333333;" points="14.779,19.206 13.841,15.923 10.512,13.069 10.329,12.165 11.457,9.91 8.645,8.855 
	5.98,11.076 5.02,9.924 8.02,7.424 8.763,7.298 12.764,8.798 13.171,9.835 11.933,12.312 14.988,14.931 15.221,15.294 
	16.221,18.794 "/>
<polygon style="fill:#333333;" points="8.407,17.244 4.407,16.744 4.593,15.256 8.118,15.696 10.364,12.103 11.636,12.897 
	9.136,16.897 "/>
<polygon style="fill:#333333;" points="20,22.75 3,22.75 3,21.25 19.513,21.25 21.314,17.195 22.686,17.805 20.686,22.305 "/>
<polygon style="fill:#333333;" points="16.737,12.712 16.103,12.636 12.103,10.136 12.897,8.864 16.598,11.177 19.263,10.289 
	19.737,11.711 "/>
</svg>






