<?xml version="1.0" encoding="iso-8859-1"?>
<svg version="1.1" id="&#x56FE;&#x5C42;_1" xmlns="http://www.w3.org/2000/svg" xmlns:xlink="http://www.w3.org/1999/xlink" x="0px"
	 y="0px" viewBox="0 0 24 24" style="enable-background:new 0 0 24 24;" xml:space="preserve">
<path style="fill:#333333;" d="M17.5,16.75h-11c-2.895,0-5.25-2.355-5.25-5.25c0-2.681,2.02-4.898,4.617-5.212
	C6.431,3.375,8.963,1.25,12,1.25s5.569,2.125,6.134,5.04c2.606,0.322,4.616,2.536,4.616,5.21C22.75,14.395,20.395,16.75,17.5,16.75z
	 M6.5,7.75c-2.068,0-3.75,1.682-3.75,3.75c0,2.067,1.682,3.75,3.75,3.75h11c2.067,0,3.75-1.683,3.75-3.75
	c0-2.068-1.683-3.75-3.75-3.75h-0.686L16.73,7.067C16.509,4.606,14.475,2.75,12,2.75c-2.475,0-4.509,1.856-4.73,4.317L7.208,7.75
	H6.5z"/>
<rect x="11.482" y="12" transform="matrix(0.7071 -0.7071 0.7071 0.7071 -5.1348 13.1036)" style="fill:#333333;" width="3.536" height="1.5"/>
<rect x="9.75" y="8.879" transform="matrix(0.7071 -0.7071 0.7071 0.7071 -4.7028 10.6464)" style="fill:#333333;" width="1.5" height="4.243"/>
<rect x="11.25" y="9" style="fill:#333333;" width="1.5" height="13"/>
</svg>






