<?xml version="1.0" encoding="iso-8859-1"?>
<svg version="1.1" id="&#x56FE;&#x5C42;_1" xmlns="http://www.w3.org/2000/svg" xmlns:xlink="http://www.w3.org/1999/xlink" x="0px"
	 y="0px" viewBox="0 0 24 24" style="enable-background:new 0 0 24 24;" xml:space="preserve">
<path style="fill:#333333;" d="M12,18.75c-4.549,0-8.25-3.925-8.25-8.75c0-4.825,3.701-8.75,8.25-8.75s8.25,3.925,8.25,8.75
	C20.25,14.825,16.549,18.75,12,18.75z M12,2.75c-3.722,0-6.75,3.252-6.75,7.25c0,3.998,3.028,7.25,6.75,7.25
	c3.722,0,6.75-3.252,6.75-7.25C18.75,6.002,15.722,2.75,12,2.75z"/>
<rect x="11.25" y="7" style="fill:#333333;" width="1.5" height="11"/>
<path style="fill:#333333;" d="M12,18.75c-1.154,0-2.271-0.248-3.317-0.736l0.635-1.359c1.693,0.79,3.672,0.792,5.365,0l0.635,1.359
	C14.27,18.502,13.153,18.75,12,18.75z"/>
<rect x="11.25" y="18" style="fill:#333333;" width="1.5" height="4"/>
<rect x="11.379" y="8.75" transform="matrix(0.7071 -0.7071 0.7071 0.7071 -2.7635 12.3284)" style="fill:#333333;" width="4.243" height="1.5"/>
<rect x="9.75" y="10.879" transform="matrix(0.7071 -0.7071 0.7071 0.7071 -6.117 11.2322)" style="fill:#333333;" width="1.5" height="4.243"/>
</svg>






