<?xml version="1.0" encoding="iso-8859-1"?>
<svg version="1.1" id="&#x56FE;&#x5C42;_1" xmlns="http://www.w3.org/2000/svg" xmlns:xlink="http://www.w3.org/1999/xlink" x="0px"
	 y="0px" viewBox="0 0 24 24" style="enable-background:new 0 0 24 24;" xml:space="preserve">
<path style="fill:#333333;" d="M8.853,19.735C8.624,19.689,3.25,18.574,3.25,15c0-2.374,1.759-3.574,1.834-3.624l0.832,1.248L5.5,12
	l0.421,0.621C5.873,12.653,4.75,13.447,4.75,15c0,2.311,4.354,3.256,4.398,3.265L8.853,19.735z"/>
<path style="fill:#333333;" d="M15.147,19.735l-0.295-1.471c0.044-0.009,4.397-0.954,4.397-3.265c0-1.553-1.123-2.347-1.171-2.379
	l0.837-1.245c0.075,0.05,1.834,1.25,1.834,3.624C20.75,18.574,15.376,19.689,15.147,19.735z"/>
<rect x="11.25" y="8" style="fill:#333333;" width="1.5" height="14"/>
<path style="fill:#333333;" d="M15.045,7.188l-1.217-0.876C14.104,5.928,14.25,5.474,14.25,5c0-1.241-1.01-2.25-2.25-2.25
	c-1.241,0-2.25,1.009-2.25,2.25c0,0.475,0.146,0.929,0.422,1.312L8.954,7.188C8.494,6.548,8.25,5.791,8.25,5
	c0-2.068,1.682-3.75,3.75-3.75c2.067,0,3.75,1.682,3.75,3.75C15.75,5.791,15.506,6.547,15.045,7.188z"/>
<path style="fill:#333333;" d="M5.52,13.076C5.448,13.016,3.75,11.578,3.75,9.5c0-2.141,2.256-3.576,2.353-3.636l0.795,1.272
	L6.5,6.5l0.399,0.635C6.44,7.425,5.25,8.416,5.25,9.5c0,1.366,1.22,2.416,1.232,2.426L5.52,13.076z"/>
<path style="fill:#333333;" d="M18.48,13.076l-0.961-1.152c0.011-0.008,1.23-1.058,1.23-2.424c0-1.084-1.19-2.075-1.649-2.365
	l0.797-1.271c0.096,0.06,2.353,1.495,2.353,3.636C20.25,11.578,18.553,13.016,18.48,13.076z"/>
</svg>






