<?xml version="1.0" encoding="iso-8859-1"?>
<svg version="1.1" id="&#x56FE;&#x5C42;_1" xmlns="http://www.w3.org/2000/svg" xmlns:xlink="http://www.w3.org/1999/xlink" x="0px"
	 y="0px" viewBox="0 0 24 24" style="enable-background:new 0 0 24 24;" xml:space="preserve">
<rect x="2" y="21.25" style="fill:#333333;" width="20" height="1.5"/>
<path style="fill:#333333;" d="M6.75,19.75h-5.5v-7.711l5.5,1.375V19.75z M2.75,18.25h2.5v-3.664l-2.5-0.625V18.25z"/>
<path style="fill:#333333;" d="M14.75,19.75h-5.5v-8.213l5.5-2.75V19.75z M10.75,18.25h2.5v-7.037l-2.5,1.25V18.25z"/>
<path style="fill:#333333;" d="M22.75,19.75h-5.5V7.537l5.5-2.75V19.75z M18.75,18.25h2.5V7.213l-2.5,1.25V18.25z"/>
<polygon style="fill:#333333;" points="6.087,10.795 1.818,9.728 2.182,8.272 5.913,9.205 18.823,2.75 17,2.75 17,1.25 22,1.25 
	22.335,2.671 "/>
</svg>






