<?xml version="1.0" encoding="iso-8859-1"?>
<svg version="1.1" id="&#x56FE;&#x5C42;_1" xmlns="http://www.w3.org/2000/svg" xmlns:xlink="http://www.w3.org/1999/xlink" x="0px"
	 y="0px" viewBox="0 0 24 24" style="enable-background:new 0 0 24 24;" xml:space="preserve">
<path style="fill:#333333;" d="M21.266,21.75H2.734c-0.633,0-1.2-0.327-1.516-0.876c-0.316-0.549-0.315-1.203,0.002-1.751
	l9.266-16.004C10.802,2.572,11.368,2.246,12,2.246s1.198,0.327,1.515,0.874l9.266,16.004c0.316,0.549,0.317,1.203,0.001,1.752
	C22.465,21.423,21.898,21.75,21.266,21.75z M12,3.746c-0.054,0-0.153,0.017-0.216,0.125l0,0L2.518,19.875
	c-0.063,0.108-0.027,0.203,0,0.25c0.027,0.047,0.091,0.125,0.216,0.125h18.531c0.126,0,0.189-0.078,0.217-0.125
	c0.026-0.047,0.062-0.142-0.001-0.251L12.216,3.871C12.153,3.762,12.054,3.746,12,3.746z"/>
</svg>






