<?xml version="1.0" encoding="iso-8859-1"?>
<svg version="1.1" id="&#x56FE;&#x5C42;_1" xmlns="http://www.w3.org/2000/svg" xmlns:xlink="http://www.w3.org/1999/xlink" x="0px"
	 y="0px" viewBox="0 0 24 24" style="enable-background:new 0 0 24 24;" xml:space="preserve">
<path style="fill:#333333;" d="M6,20.25c-1.517,0-2.75-1.233-2.75-2.75S4.483,14.75,6,14.75s2.75,1.233,2.75,2.75
	S7.517,20.25,6,20.25z M6,16.25c-0.689,0-1.25,0.561-1.25,1.25S5.311,18.75,6,18.75s1.25-0.561,1.25-1.25S6.689,16.25,6,16.25z"/>
<path style="fill:#333333;" d="M17.5,20.25c-1.517,0-2.75-1.233-2.75-2.75s1.233-2.75,2.75-2.75s2.75,1.233,2.75,2.75
	S19.017,20.25,17.5,20.25z M17.5,16.25c-0.689,0-1.25,0.561-1.25,1.25s0.561,1.25,1.25,1.25s1.25-0.561,1.25-1.25
	S18.189,16.25,17.5,16.25z"/>
<polygon style="fill:#333333;" points="16.25,18.25 8,18.25 8,16.75 14.75,16.75 14.75,6.25 1.75,6.25 1.75,16.75 4,16.75 4,18.25 
	0.25,18.25 0.25,4.75 16.25,4.75 "/>
<polygon style="fill:#333333;" points="23.75,18.25 19.905,18.25 19.905,16.75 22.25,16.75 22.25,13.502 19.413,9.75 16.25,9.75 
	16.25,17.5 14.75,17.5 14.75,8.25 20.159,8.25 23.75,12.998 "/>
</svg>






