<?xml version="1.0" encoding="iso-8859-1"?>
<svg version="1.1" id="&#x56FE;&#x5C42;_1" xmlns="http://www.w3.org/2000/svg" xmlns:xlink="http://www.w3.org/1999/xlink" x="0px"
	 y="0px" viewBox="0 0 24 24" style="enable-background:new 0 0 24 24;" xml:space="preserve">
<path style="fill:#333333;" d="M17.5,21.75c-1.24,0-2.25-1.01-2.25-2.25v-6.25h4.5v6.25C19.75,20.74,18.74,21.75,17.5,21.75z
	 M16.75,14.75v4.75c0,0.413,0.337,0.75,0.75,0.75s0.75-0.337,0.75-0.75v-4.75H16.75z"/>
<path style="fill:#333333;" d="M19.5,14.75H14v-1.5h5.5c0.413,0,0.75-0.337,0.75-0.75v-5c0-0.414-0.337-0.75-0.75-0.75h-5v-1.5h5
	c1.24,0,2.25,1.009,2.25,2.25v5C21.75,13.74,20.74,14.75,19.5,14.75z"/>
<path style="fill:#333333;" d="M7,13.75H6c-2.068,0-3.75-1.683-3.75-3.75c0-2.068,1.682-3.75,3.75-3.75h1v1.5H6
	c-1.241,0-2.25,1.009-2.25,2.25S4.759,12.25,6,12.25h1V13.75z"/>
<path style="fill:#333333;" d="M8.75,17.25H7.099c-0.468,0-0.849-0.381-0.849-0.85V3.099c0-0.468,0.381-0.849,0.849-0.849H8.75
	c4.136,0,7.5,3.364,7.5,7.5S12.886,17.25,8.75,17.25z M7.75,15.75h1c3.309,0,6-2.691,6-6s-2.691-6-6-6h-1V15.75z"/>
</svg>






