<?xml version="1.0" encoding="iso-8859-1"?>
<svg version="1.1" id="&#x56FE;&#x5C42;_1" xmlns="http://www.w3.org/2000/svg" xmlns:xlink="http://www.w3.org/1999/xlink" x="0px"
	 y="0px" viewBox="0 0 24 24" style="enable-background:new 0 0 24 24;" xml:space="preserve">
<path style="fill:#333333;" d="M16,20.75H8c-1.517,0-2.75-1.233-2.75-2.75V8c0-1.517,1.233-2.75,2.75-2.75h8
	c1.517,0,2.75,1.233,2.75,2.75v10C18.75,19.517,17.517,20.75,16,20.75z M8,6.75C7.311,6.75,6.75,7.311,6.75,8v10
	c0,0.689,0.561,1.25,1.25,1.25h8c0.689,0,1.25-0.561,1.25-1.25V8c0-0.689-0.561-1.25-1.25-1.25H8z"/>
<rect x="9.25" y="3" style="fill:#333333;" width="1.5" height="3"/>
<rect x="13.25" y="3" style="fill:#333333;" width="1.5" height="3"/>
<rect x="8" y="1.25" style="fill:#333333;" width="8" height="1.5"/>
<rect x="8.25" y="20" style="fill:#333333;" width="1.5" height="2"/>
<rect x="14.25" y="20" style="fill:#333333;" width="1.5" height="2"/>
<rect x="10" y="11.75" style="fill:#333333;" width="4" height="1.5"/>
</svg>






