<?xml version="1.0" encoding="iso-8859-1"?>
<svg version="1.1" id="&#x56FE;&#x5C42;_1" xmlns="http://www.w3.org/2000/svg" xmlns:xlink="http://www.w3.org/1999/xlink" x="0px"
	 y="0px" viewBox="0 0 24 24" style="enable-background:new 0 0 24 24;" xml:space="preserve">
<path style="fill:#333333;" d="M20.75,11.5h-1.5V6c0-1.517-1.233-2.75-2.75-2.75S13.75,4.483,13.75,6v0.5h-1.5V6
	c0-2.343,1.906-4.25,4.25-4.25S20.75,3.657,20.75,6V11.5z"/>
<path style="fill:#333333;" d="M16,19.25H8c-2.619,0-4.75-2.131-4.75-4.75v-3.75h17.5v3.75C20.75,17.119,18.619,19.25,16,19.25z
	 M4.75,12.25v2.25c0,1.792,1.458,3.25,3.25,3.25h8c1.792,0,3.25-1.458,3.25-3.25v-2.25H4.75z"/>
<rect x="2.5" y="10.75" style="fill:#333333;" width="19" height="1.5"/>
<rect x="5.697" y="19.25" transform="matrix(0.5547 -0.8321 0.8321 0.5547 -13.3013 15.1464)" style="fill:#333333;" width="3.606" height="1.5"/>
<rect x="15.75" y="18.197" transform="matrix(0.8321 -0.5547 0.5547 0.8321 -8.3228 12.5115)" style="fill:#333333;" width="1.5" height="3.606"/>
</svg>






