<?xml version="1.0" encoding="iso-8859-1"?>
<svg version="1.1" id="&#x56FE;&#x5C42;_1" xmlns="http://www.w3.org/2000/svg" xmlns:xlink="http://www.w3.org/1999/xlink" x="0px"
	 y="0px" viewBox="0 0 24 24" style="enable-background:new 0 0 24 24;" xml:space="preserve">
<path style="fill:#333333;" d="M19.916,22.75H4.084l-2.721-4.353L2,17.25h20l0.636,1.147L19.916,22.75z M4.916,21.25h14.168
	l1.562-2.5H3.353L4.916,21.25z"/>
<path style="fill:#333333;" d="M19.25,18.75H4.75V15c0-2.344,0.727-4.174,2.161-5.439c2.122-1.874,5.144-1.902,6.254-1.841
	C14.434,6.25,16,5.933,17.416,6.876c0.697,0.465,1.128,1.114,1.247,1.878c0.128,0.822-0.119,1.766-0.683,2.661
	c0.539,0.646,1.27,1.919,1.27,4.085V18.75z M6.25,17.25h11.5V15.5c0-2.505-1.129-3.349-1.177-3.384l-0.64-0.461l0.48-0.624
	c0.569-0.71,0.855-1.476,0.767-2.047c-0.054-0.347-0.249-0.628-0.597-0.86c-0.308-0.205-1.243-0.83-2.484,0.826l-0.26,0.347
	l-0.432-0.053C13.376,9.24,9.974,8.852,7.897,10.69C6.804,11.659,6.25,13.108,6.25,15V17.25z"/>
<path style="fill:#333333;" d="M9.75,14.5h-1.5c0-0.1,0.018-1.004,0.626-1.916c0.593-0.89,1.219-1.22,1.289-1.255l0.671,1.342
	L10.5,12l0.348,0.664c-0.003,0.002-0.357,0.201-0.724,0.752C9.766,13.953,9.75,14.495,9.75,14.5z"/>
<rect x="16.297" y="5.25" transform="matrix(0.6404 -0.768 0.768 0.6404 1.9539 16.1735)" style="fill:#333333;" width="3.905" height="1.5"/>
<circle style="fill:#333333;" cx="19.178" cy="3.741" r="1.25"/>
<circle style="fill:#333333;" cx="20.405" cy="4.603" r="1.25"/>
</svg>






