<?xml version="1.0" encoding="iso-8859-1"?>
<svg version="1.1" id="&#x56FE;&#x5C42;_1" xmlns="http://www.w3.org/2000/svg" xmlns:xlink="http://www.w3.org/1999/xlink" x="0px"
	 y="0px" viewBox="0 0 24 24" style="enable-background:new 0 0 24 24;" xml:space="preserve">
<path style="fill:#333333;" d="M12,7.75c-1.792,0-3.25-1.458-3.25-3.25S10.208,1.25,12,1.25s3.25,1.458,3.25,3.25
	S13.792,7.75,12,7.75z M12,2.75c-0.965,0-1.75,0.785-1.75,1.75S11.035,6.25,12,6.25s1.75-0.785,1.75-1.75S12.965,2.75,12,2.75z"/>
<path style="fill:#333333;" d="M18.75,15.25H5.25V14.5c0-0.502,0.002-0.753,0.022-0.965c0.222-2.248,2.014-4.041,4.262-4.263
	C9.747,9.252,9.998,9.25,10.5,9.25h3c0.502,0,0.753,0.002,0.965,0.022c2.249,0.222,4.041,2.015,4.262,4.263
	c0.021,0.21,0.023,0.462,0.023,0.965V15.25z M6.76,13.75h10.48c-0.002-0.023-0.004-0.045-0.006-0.067
	c-0.151-1.539-1.378-2.765-2.916-2.917c-0.179-0.017-0.392-0.018-0.818-0.016h-3c-0.427-0.002-0.64-0.002-0.819,0.016
	c-1.537,0.152-2.763,1.378-2.915,2.916C6.763,13.704,6.761,13.727,6.76,13.75z"/>
<path style="fill:#333333;" d="M12,20.25c-5.211,0-10.75-1.665-10.75-4.75c0-0.708,0.32-1.758,1.844-2.739l0.812,1.262
	C3.474,14.3,2.75,14.862,2.75,15.5c0,1.534,3.956,3.25,9.25,3.25s9.25-1.716,9.25-3.25c0-0.639-0.725-1.2-1.156-1.478l0.812-1.262
	c1.523,0.981,1.844,2.031,1.844,2.739C22.75,18.585,17.211,20.25,12,20.25z"/>
<polygon style="fill:#333333;" points="10.03,22.53 8.97,21.47 10.939,19.5 8.97,17.53 10.03,16.47 13.061,19.5 "/>
</svg>






