<?xml version="1.0" encoding="iso-8859-1"?>
<svg version="1.1" id="&#x56FE;&#x5C42;_1" xmlns="http://www.w3.org/2000/svg" xmlns:xlink="http://www.w3.org/1999/xlink" x="0px"
	 y="0px" viewBox="0 0 24 24" style="enable-background:new 0 0 24 24;" xml:space="preserve">
<path style="fill:#333333;" d="M21,21.75H3c-0.965,0-1.75-0.785-1.75-1.75V7c0-0.965,0.785-1.75,1.75-1.75h18
	c0.965,0,1.75,0.785,1.75,1.75v13C22.75,20.965,21.965,21.75,21,21.75z M3,6.75C2.862,6.75,2.75,6.862,2.75,7v13
	c0,0.138,0.112,0.25,0.25,0.25h18c0.138,0,0.25-0.112,0.25-0.25V7c0-0.138-0.112-0.25-0.25-0.25H3z"/>
<path style="fill:#333333;" d="M16.25,18.25H4.75v-9.5h11.5V18.25z M6.25,16.75h8.5v-6.5h-8.5V16.75z"/>
<polygon style="fill:#333333;" points="11.571,6.994 6.523,2.829 7.477,1.671 11.52,5.006 16.493,0.447 17.507,1.553 "/>
<rect x="18.25" y="9" style="fill:#333333;" width="1.5" height="0.5"/>
<rect x="18.25" y="12.5" style="fill:#333333;" width="1.5" height="0.5"/>
</svg>






