<?xml version="1.0" encoding="iso-8859-1"?>
<svg version="1.1" id="&#x56FE;&#x5C42;_1" xmlns="http://www.w3.org/2000/svg" xmlns:xlink="http://www.w3.org/1999/xlink" x="0px"
	 y="0px" viewBox="0 0 24 24" style="enable-background:new 0 0 24 24;" xml:space="preserve">
<path style="fill:#333333;" d="M20.5,21.75h-17c-0.965,0-1.75-0.785-1.75-1.75V8c0-0.965,0.785-1.75,1.75-1.75h17
	c0.965,0,1.75,0.785,1.75,1.75v12C22.25,20.965,21.465,21.75,20.5,21.75z M3.5,7.75C3.362,7.75,3.25,7.862,3.25,8v12
	c0,0.138,0.112,0.25,0.25,0.25h17c0.138,0,0.25-0.112,0.25-0.25V8c0-0.138-0.112-0.25-0.25-0.25H3.5z"/>
<rect x="11.469" y="4.25" transform="matrix(0.8683 -0.496 0.496 0.8683 -0.439 8.3464)" style="fill:#333333;" width="8.062" height="1.5"/>
<rect x="7.5" y="1.184" transform="matrix(0.5241 -0.8517 0.8517 0.5241 -0.3321 9.4057)" style="fill:#333333;" width="1.5" height="7.632"/>
<rect x="16.75" y="10" style="fill:#333333;" width="1.5" height="3"/>
<path style="fill:#333333;" d="M17.5,16L17.5,16c0.552,0,1,0.448,1,1l0,0c0,0.552-0.448,1-1,1l0,0c-0.552,0-1-0.448-1-1l0,0
	C16.5,16.448,16.948,16,17.5,16z"/>
</svg>






