<?xml version="1.0" encoding="iso-8859-1"?>
<svg version="1.1" id="&#x56FE;&#x5C42;_1" xmlns="http://www.w3.org/2000/svg" xmlns:xlink="http://www.w3.org/1999/xlink" x="0px"
	 y="0px" viewBox="0 0 24 24" style="enable-background:new 0 0 24 24;" xml:space="preserve">
<path style="fill:#333333;" d="M11.047,21.261c-3.364,0-6.732-1.512-8.835-2.682l0.428-1.435c1.157,0.22,2.625-0.066,4.378-0.853
	c-1.885-1.114-3.134-2.446-3.721-3.973c-1.04-2.701-0.559-5.11-0.026-7.157l1.365-0.203c1.172,1.912,3.546,4.837,6.586,3.671
	c-0.146-3.43,1.211-5.603,3.692-5.852c1.753-0.172,3.212,0.482,4.254,1.906c0.58,0.082,1.18-0.168,1.823-0.764l1.259,0.551
	c0,2.135-0.619,3.018-1.116,3.728c-0.101,0.143-0.199,0.279-0.282,0.426v0.179c0.014,2.594,0.04,7.991-5.044,11.168
	C14.319,20.902,12.684,21.261,11.047,21.261z M5.402,18.458c2.761,1.141,6.646,2.093,9.61,0.243
	c4.375-2.733,4.352-7.388,4.339-9.889l-0.001-0.54l0.073-0.153c0.142-0.297,0.314-0.544,0.481-0.782
	c0.258-0.368,0.521-0.744,0.685-1.375c-0.687,0.279-1.386,0.316-2.087,0.107L18.24,5.992l-0.149-0.229
	c-0.755-1.15-1.718-1.623-3.026-1.492C12.72,4.506,12.608,7.36,12.751,9.04l0.043,0.504l-0.451,0.229
	c-2.764,1.396-5.613,0.45-7.991-2.59c-0.253,1.433-0.288,2.954,0.345,4.597c0.572,1.486,2.014,2.783,4.286,3.854l0.038,1.338
	C7.697,17.688,6.496,18.183,5.402,18.458z"/>
</svg>






