<?xml version="1.0" encoding="iso-8859-1"?>
<svg version="1.1" id="&#x56FE;&#x5C42;_1" xmlns="http://www.w3.org/2000/svg" xmlns:xlink="http://www.w3.org/1999/xlink" x="0px"
	 y="0px" viewBox="0 0 24 24" style="enable-background:new 0 0 24 24;" xml:space="preserve">
<path style="fill:#333333;" d="M5.585,21.712c-1.016,0-1.847-0.298-2.441-0.893c-1.14-1.14-1.189-3.15-0.139-5.662
	c0.962-2.301,2.751-4.827,5.038-7.114s4.813-4.076,7.114-5.038c2.512-1.049,4.524-1,5.662,0.139l0,0l0,0
	c1.14,1.14,1.189,3.151,0.139,5.663c-0.962,2.301-2.751,4.827-5.037,7.114c-2.287,2.286-4.813,4.075-7.114,5.037
	C7.605,21.461,6.518,21.712,5.585,21.712z M18.375,3.753c-0.723,0-1.628,0.213-2.64,0.636c-2.124,0.888-4.479,2.562-6.631,4.714
	s-3.826,4.507-4.714,6.631c-0.777,1.858-0.846,3.362-0.185,4.023c0.663,0.662,2.165,0.594,4.023-0.185
	c2.125-0.889,4.48-2.562,6.632-4.714c2.151-2.152,3.825-4.507,4.714-6.632c0.777-1.858,0.846-3.362,0.185-4.023l0,0
	C19.457,3.903,18.98,3.753,18.375,3.753z"/>
<path style="fill:#333333;" d="M18.447,21.712c-0.933,0-2.02-0.251-3.222-0.754c-2.301-0.962-4.827-2.751-7.114-5.037
	C3.073,10.882,0.967,5.389,3.212,3.144c2.245-2.246,7.738-0.139,12.777,4.899c2.286,2.287,4.075,4.813,5.037,7.114
	c1.051,2.512,1.001,4.522-0.139,5.662C20.294,21.414,19.462,21.712,18.447,21.712z M5.662,3.746c-0.606,0-1.082,0.152-1.389,0.458
	C2.912,5.566,4.589,10.277,9.172,14.86c2.152,2.151,4.507,3.825,6.631,4.714c1.857,0.777,3.362,0.847,4.023,0.185
	c0.661-0.661,0.593-2.165-0.185-4.023c-0.889-2.124-2.562-4.479-4.714-6.631C11.377,5.553,7.749,3.746,5.662,3.746z"/>
</svg>






