<?xml version="1.0" encoding="iso-8859-1"?>
<svg version="1.1" id="&#x56FE;&#x5C42;_1" xmlns="http://www.w3.org/2000/svg" xmlns:xlink="http://www.w3.org/1999/xlink" x="0px"
	 y="0px" viewBox="0 0 24 24" style="enable-background:new 0 0 24 24;" xml:space="preserve">
<path style="fill:#333333;" d="M17.784,21.755l-4.851-0.031l-0.03-6.985l4.443-3.218l0.426-1.713l1.455,0.361l-0.557,2.245
	l-4.264,3.089l0.021,4.731l1.788,0.012l-0.171-3.893l0.371-0.231c4.605-2.88,4.839-3.938,4.839-4.121V3.029h1.5V12
	c0,0.874-0.598,2.247-5.173,5.159L17.784,21.755z"/>
<path style="fill:#333333;" d="M11.153,21.828l-4.922-0.093l0.109-4.356c-4.496-2.641-5.084-3.998-5.084-4.889V3.015h1.5v9.476
	c0,0.184,0.228,1.229,4.719,3.813l0.387,0.223l-0.094,3.738l1.837,0.034l-0.144-4.712l-4.105-3.148l-0.582-2.223l1.451-0.38
	l0.452,1.726l4.262,3.268L11.153,21.828z"/>
</svg>






