<?xml version="1.0" encoding="iso-8859-1"?>
<svg version="1.1" id="&#x56FE;&#x5C42;_1" xmlns="http://www.w3.org/2000/svg" xmlns:xlink="http://www.w3.org/1999/xlink" x="0px"
	 y="0px" viewBox="0 0 24 24" style="enable-background:new 0 0 24 24;" xml:space="preserve">
<path style="fill:#333333;" d="M13.372,22.75h-0.447c-2.868,0-5.519-1.433-7.09-3.831l-1.098-1.675
	c-0.985-1.505-0.693-3.515,0.679-4.675L6.5,11.652V3.625c0-1.31,1.065-2.375,2.375-2.375c0.507,0,0.979,0.16,1.365,0.432
	c0.435-0.566,1.118-0.932,1.885-0.932c1.31,0,2.375,1.065,2.375,2.375v3.542C14.771,6.559,15.066,6.5,15.375,6.5
	c1.24,0,2.263,0.956,2.366,2.17c0.273-0.11,0.571-0.17,0.884-0.17C19.935,8.5,21,9.565,21,10.875v5.109
	c0,0.98-0.293,1.926-0.846,2.734l-0.486,0.711C18.245,21.509,15.892,22.75,13.372,22.75z M8.875,2.75C8.393,2.75,8,3.143,8,3.625
	v8.105c0,0.393-0.172,0.763-0.471,1.016l-1.144,0.968c-0.794,0.673-0.964,1.837-0.393,2.708l1.098,1.675
	c1.293,1.975,3.475,3.153,5.835,3.153h0.447c2.024,0,3.915-0.997,5.058-2.668l0.486-0.711c0.382-0.558,0.584-1.21,0.584-1.887
	v-5.109c0-0.482-0.393-0.875-0.875-0.875s-0.875,0.393-0.875,0.875h-1.5v-2C16.25,8.393,15.857,8,15.375,8S14.5,8.393,14.5,8.875H13
	v-5.75c0-0.482-0.393-0.875-0.875-0.875S11.25,2.643,11.25,3.125v0.5h-1.5C9.75,3.143,9.357,2.75,8.875,2.75z"/>
</svg>






