<?xml version="1.0" encoding="iso-8859-1"?>
<svg version="1.1" id="&#x56FE;&#x5C42;_1" xmlns="http://www.w3.org/2000/svg" xmlns:xlink="http://www.w3.org/1999/xlink" x="0px"
	 y="0px" viewBox="0 0 24 24" style="enable-background:new 0 0 24 24;" xml:space="preserve">
<path style="fill:#333333;" d="M19.5,21.75h-15c-1.241,0-2.25-1.01-2.25-2.25v-15c0-1.241,1.009-2.25,2.25-2.25h15
	c1.24,0,2.25,1.009,2.25,2.25v15C21.75,20.74,20.74,21.75,19.5,21.75z M4.5,3.75c-0.414,0-0.75,0.336-0.75,0.75v15
	c0,0.413,0.336,0.75,0.75,0.75h15c0.413,0,0.75-0.337,0.75-0.75v-15c0-0.414-0.337-0.75-0.75-0.75H4.5z"/>
<path style="fill:#333333;" d="M14.5,17.75H8.75V17c0-1.549,1.332-2.828,2.62-4.066c1.17-1.124,2.38-2.286,2.38-3.434
	c0-1.194-1.044-1.75-1.75-1.75c-0.706,0-1.75,0.556-1.75,1.75h-1.5c0-2.007,1.687-3.25,3.25-3.25c1.563,0,3.25,1.243,3.25,3.25
	c0,1.786-1.444,3.174-2.841,4.516c-0.78,0.75-1.58,1.519-1.949,2.234h4.04V17.75z"/>
</svg>






