<?xml version="1.0" encoding="iso-8859-1"?>
<svg version="1.1" id="&#x56FE;&#x5C42;_1" xmlns="http://www.w3.org/2000/svg" xmlns:xlink="http://www.w3.org/1999/xlink" x="0px"
	 y="0px" viewBox="0 0 24 24" style="enable-background:new 0 0 24 24;" xml:space="preserve">
<path style="fill:#333333;" d="M22.75,13.25H1.25V12.5C1.25,6.572,6.072,1.75,12,1.75S22.75,6.572,22.75,12.5V13.25z M2.78,11.75
	H21.22c-0.383-4.751-4.372-8.5-9.22-8.5C7.152,3.25,3.163,6.999,2.78,11.75z"/>
<path style="fill:#333333;" d="M12,21.75c-3.17,0-5.75-2.579-5.75-5.75v-0.75h11.5V16C17.75,19.171,15.171,21.75,12,21.75z
	 M7.816,16.75c0.355,1.987,2.096,3.5,4.184,3.5c2.088,0,3.828-1.513,4.184-3.5H7.816z"/>
</svg>






