<?xml version="1.0" encoding="iso-8859-1"?>
<svg version="1.1" id="&#x56FE;&#x5C42;_1" xmlns="http://www.w3.org/2000/svg" xmlns:xlink="http://www.w3.org/1999/xlink" x="0px"
	 y="0px" viewBox="0 0 24 24" style="enable-background:new 0 0 24 24;" xml:space="preserve">
<path style="fill:#333333;" d="M11.5,22.75c-4.033,0-6.114-1.301-6.671-2.415l-0.01-0.021l-2.053-4.449
	c-0.701-1.52-0.143-3.308,1.297-4.16l2.771-1.637c0.693-0.411,1.541-0.419,2.24-0.028L8.33,3.717C8.255,3.088,8.47,2.47,8.918,2.021
	c0.584-0.585,1.512-0.637,2.16-0.12l0.189,0.152c0.437,0.349,0.726,0.846,0.816,1.398l0.543,3.37l0.316-3.262
	c0.058-0.601,0.362-1.162,0.834-1.54l0.104-0.083C14.549,1.4,15.512,1.452,16.12,2.06c0.406,0.405,0.63,0.945,0.63,1.52V14.19
	l1.281-1.026c0.909-0.728,2.221-0.662,3.508,0.182c0.272,0.179,0.454,0.454,0.512,0.775c0.06,0.329-0.022,0.674-0.224,0.947
	l-3.974,5.377C17.733,20.586,15.791,22.75,11.5,22.75z M6.175,19.672C6.358,20.018,7.76,21.25,11.5,21.25
	c3.618,0,5.17-1.727,5.186-1.744l3.747-5.072c-0.396-0.208-1.034-0.441-1.464-0.098l-1.688,1.351
	c-0.381,0.302-0.889,0.359-1.323,0.149c-0.437-0.21-0.708-0.642-0.708-1.126V3.58c0-0.173-0.067-0.336-0.19-0.458
	c-0.064-0.066-0.17-0.071-0.242-0.014L14.713,3.19c-0.157,0.125-0.259,0.312-0.278,0.513l-0.664,6.862
	c-0.05,0.532-0.492,0.935-1.028,0.935c-0.513,0-0.942-0.367-1.021-0.873l-1.119-6.936c-0.03-0.184-0.126-0.35-0.272-0.467
	l-0.189-0.151c-0.048-0.039-0.118-0.036-0.162,0.009c-0.122,0.122-0.18,0.289-0.16,0.459l0.804,6.836
	c0.057,0.482-0.163,0.943-0.573,1.202c-0.411,0.259-0.92,0.261-1.332,0.003L8.376,11.37c-0.24-0.149-0.538-0.154-0.779-0.01
	l-2.771,1.637c-0.775,0.459-1.076,1.422-0.698,2.24L6.175,19.672z M12.278,10.42c0,0.001-0.001,0.002-0.001,0.002L12.278,10.42z
	 M13.201,10.387l0.001,0.004C13.202,10.39,13.202,10.389,13.201,10.387z"/>
</svg>






