<?xml version="1.0" encoding="iso-8859-1"?>
<svg version="1.1" id="&#x56FE;&#x5C42;_1" xmlns="http://www.w3.org/2000/svg" xmlns:xlink="http://www.w3.org/1999/xlink" x="0px"
	 y="0px" viewBox="0 0 24 24" style="enable-background:new 0 0 24 24;" xml:space="preserve">
<path style="fill:#333333;" d="M21,19.75H3c-0.965,0-1.75-0.785-1.75-1.75V6c0-0.965,0.785-1.75,1.75-1.75h18
	c0.965,0,1.75,0.785,1.75,1.75v12C22.75,18.965,21.965,19.75,21,19.75z M3,5.75C2.862,5.75,2.75,5.862,2.75,6v12
	c0,0.138,0.112,0.25,0.25,0.25h18c0.138,0,0.25-0.112,0.25-0.25V6c0-0.138-0.112-0.25-0.25-0.25H3z"/>
<path style="fill:#333333;" d="M19,19.75H5l-0.53-1.28l2.707-2.707c0.331-0.331,0.77-0.513,1.237-0.513h6.716
	c0.419,0,0.823,0.15,1.141,0.423l3.218,2.758L19,19.75z M6.811,18.25h10.162l-1.68-1.439c-0.046-0.04-0.103-0.061-0.163-0.061H8.414
	c-0.066,0-0.13,0.026-0.177,0.073L6.811,18.25z"/>
<rect x="4.5" y="18.25" style="fill:#333333;" width="15" height="1.5"/>
<path style="fill:#333333;" d="M7.5,13.25c-1.517,0-2.75-1.233-2.75-2.75S5.983,7.75,7.5,7.75s2.75,1.233,2.75,2.75
	S9.017,13.25,7.5,13.25z M7.5,9.25c-0.689,0-1.25,0.561-1.25,1.25s0.561,1.25,1.25,1.25s1.25-0.561,1.25-1.25S8.189,9.25,7.5,9.25z"
	/>
<path style="fill:#333333;" d="M16.5,13.25c-1.517,0-2.75-1.233-2.75-2.75s1.233-2.75,2.75-2.75s2.75,1.233,2.75,2.75
	S18.017,13.25,16.5,13.25z M16.5,9.25c-0.689,0-1.25,0.561-1.25,1.25s0.561,1.25,1.25,1.25s1.25-0.561,1.25-1.25
	S17.189,9.25,16.5,9.25z"/>
<rect x="7.5" y="11.75" style="fill:#333333;" width="9" height="1.5"/>
<rect x="7.5" y="7.75" style="fill:#333333;" width="9" height="1.5"/>
</svg>






