<?xml version="1.0" encoding="iso-8859-1"?>
<svg version="1.1" id="&#x56FE;&#x5C42;_1" xmlns="http://www.w3.org/2000/svg" xmlns:xlink="http://www.w3.org/1999/xlink" x="0px"
	 y="0px" viewBox="0 0 24 24" style="enable-background:new 0 0 24 24;" xml:space="preserve">
<polygon style="fill:#333333;" points="15.75,6 14.25,6 14.25,2.75 9.75,2.75 9.75,6 8.25,6 8.25,1.25 15.75,1.25 "/>
<path style="fill:#333333;" d="M12,22.75c-3.446,0-6.25-2.804-6.25-6.25V6.187c0-0.517,0.42-0.937,0.937-0.937h10.627
	c0.517,0,0.937,0.42,0.937,0.937V16.5C18.25,19.946,15.446,22.75,12,22.75z M7.25,6.75v9.75c0,2.619,2.131,4.75,4.75,4.75
	s4.75-2.131,4.75-4.75V6.75H7.25z"/>
<rect x="10" y="9.75" style="fill:#333333;" width="4" height="1.5"/>
<rect x="10" y="13.75" style="fill:#333333;" width="4" height="1.5"/>
</svg>






