<?xml version="1.0" encoding="iso-8859-1"?>
<svg version="1.1" id="&#x56FE;&#x5C42;_1" xmlns="http://www.w3.org/2000/svg" xmlns:xlink="http://www.w3.org/1999/xlink" x="0px"
	 y="0px" viewBox="0 0 24 24" style="enable-background:new 0 0 24 24;" xml:space="preserve">
<path style="fill:#333333;" d="M22,18.25H7.5c-3.446,0-6.25-2.804-6.25-6.25S4.054,5.75,7.5,5.75H17v1.5H7.5
	c-2.619,0-4.75,2.131-4.75,4.75s2.131,4.75,4.75,4.75H22V18.25z"/>
<polygon style="fill:#333333;" points="20.03,20.53 18.97,19.47 20.939,17.5 18.97,15.53 20.03,14.47 23.061,17.5 "/>
<path style="fill:#333333;" d="M19.5,9.75c-1.792,0-3.25-1.458-3.25-3.25s1.458-3.25,3.25-3.25s3.25,1.458,3.25,3.25
	S21.292,9.75,19.5,9.75z M19.5,4.75c-0.965,0-1.75,0.785-1.75,1.75s0.785,1.75,1.75,1.75s1.75-0.785,1.75-1.75
	S20.465,4.75,19.5,4.75z"/>
</svg>






