<?xml version="1.0" encoding="iso-8859-1"?>
<svg version="1.1" id="&#x56FE;&#x5C42;_1" xmlns="http://www.w3.org/2000/svg" xmlns:xlink="http://www.w3.org/1999/xlink" x="0px"
	 y="0px" viewBox="0 0 24 24" style="enable-background:new 0 0 24 24;" xml:space="preserve">
<path style="fill:#333333;" d="M12,22.75c-3.446,0-6.25-2.804-6.25-6.25V7h1.5v9.5c0,2.619,2.131,4.75,4.75,4.75
	s4.75-2.131,4.75-4.75V2h1.5v14.5C18.25,19.946,15.446,22.75,12,22.75z"/>
<polygon style="fill:#333333;" points="19.47,5.03 17.5,3.061 15.53,5.03 14.47,3.97 17.5,0.939 20.53,3.97 "/>
<path style="fill:#333333;" d="M6.5,7.75c-1.792,0-3.25-1.458-3.25-3.25S4.708,1.25,6.5,1.25S9.75,2.708,9.75,4.5
	S8.292,7.75,6.5,7.75z M6.5,2.75c-0.965,0-1.75,0.785-1.75,1.75S5.535,6.25,6.5,6.25S8.25,5.465,8.25,4.5S7.465,2.75,6.5,2.75z"/>
</svg>






