<?xml version="1.0" encoding="iso-8859-1"?>
<svg version="1.1" id="&#x56FE;&#x5C42;_1" xmlns="http://www.w3.org/2000/svg" xmlns:xlink="http://www.w3.org/1999/xlink" x="0px"
	 y="0px" viewBox="0 0 24 24" style="enable-background:new 0 0 24 24;" xml:space="preserve">
<path style="fill:#333333;" d="M7.25,22h-1.5V7.5c0-3.446,2.804-6.25,6.25-6.25s6.25,2.804,6.25,6.25V17h-1.5V7.5
	c0-2.619-2.131-4.75-4.75-4.75S7.25,4.881,7.25,7.5V22z"/>
<polygon style="fill:#333333;" points="6.5,23.061 3.47,20.03 4.53,18.97 6.5,20.939 8.47,18.97 9.53,20.03 "/>
<path style="fill:#333333;" d="M17.5,22.75c-1.792,0-3.25-1.458-3.25-3.25s1.458-3.25,3.25-3.25s3.25,1.458,3.25,3.25
	S19.292,22.75,17.5,22.75z M17.5,17.75c-0.965,0-1.75,0.785-1.75,1.75s0.785,1.75,1.75,1.75s1.75-0.785,1.75-1.75
	S18.465,17.75,17.5,17.75z"/>
</svg>






