<?xml version="1.0" encoding="iso-8859-1"?>
<svg version="1.1" id="&#x56FE;&#x5C42;_1" xmlns="http://www.w3.org/2000/svg" xmlns:xlink="http://www.w3.org/1999/xlink" x="0px"
	 y="0px" viewBox="0 0 24 24" style="enable-background:new 0 0 24 24;" xml:space="preserve">
<path style="fill:#333333;" d="M16.5,18.25H2v-1.5h14.5c2.619,0,4.75-2.131,4.75-4.75s-2.131-4.75-4.75-4.75H7v-1.5h9.5
	c3.446,0,6.25,2.804,6.25,6.25S19.946,18.25,16.5,18.25z"/>
<polygon style="fill:#333333;" points="3.97,20.53 0.939,17.5 3.97,14.47 5.03,15.53 3.061,17.5 5.03,19.47 "/>
<path style="fill:#333333;" d="M4.5,9.75c-1.792,0-3.25-1.458-3.25-3.25S2.708,3.25,4.5,3.25S7.75,4.708,7.75,6.5
	S6.292,9.75,4.5,9.75z M4.5,4.75c-0.965,0-1.75,0.785-1.75,1.75S3.535,8.25,4.5,8.25S6.25,7.465,6.25,6.5S5.465,4.75,4.5,4.75z"/>
</svg>






