<?xml version="1.0" encoding="iso-8859-1"?>
<svg version="1.1" id="&#x56FE;&#x5C42;_1" xmlns="http://www.w3.org/2000/svg" xmlns:xlink="http://www.w3.org/1999/xlink" x="0px"
	 y="0px" viewBox="0 0 24 24" style="enable-background:new 0 0 24 24;" xml:space="preserve">
<path style="fill:#333333;" d="M11,22.75c-5.376,0-9.75-4.374-9.75-9.75S5.624,3.25,11,3.25s9.75,4.374,9.75,9.75
	S16.376,22.75,11,22.75z M11,4.75c-4.549,0-8.25,3.701-8.25,8.25s3.701,8.25,8.25,8.25s8.25-3.701,8.25-8.25S15.549,4.75,11,4.75z"
	/>
<path style="fill:#333333;" d="M20.5,5.75c-1.24,0-2.25-1.009-2.25-2.25s1.01-2.25,2.25-2.25s2.25,1.009,2.25,2.25
	S21.74,5.75,20.5,5.75z M20.5,2.75c-0.413,0-0.75,0.336-0.75,0.75s0.337,0.75,0.75,0.75s0.75-0.336,0.75-0.75S20.913,2.75,20.5,2.75
	z"/>
</svg>






