<?xml version="1.0" encoding="iso-8859-1"?>
<svg version="1.1" id="&#x56FE;&#x5C42;_1" xmlns="http://www.w3.org/2000/svg" xmlns:xlink="http://www.w3.org/1999/xlink" x="0px"
	 y="0px" viewBox="0 0 24 24" style="enable-background:new 0 0 24 24;" xml:space="preserve">
<path style="fill:#333333;" d="M8.403,14.521l-0.527-0.452c-1.725-1.479-2.458-1.638-2.694-1.638s-0.969,0.159-2.693,1.638
	L1.25,13.5C1.25,7.572,6.072,2.75,12,2.75S22.75,7.572,22.75,13.5l-1.238,0.569c-1.725-1.479-2.458-1.638-2.693-1.638
	s-0.969,0.159-2.693,1.638l-0.527,0.452l-0.491-0.491c-2.123-2.121-4.09-2.121-6.212,0L8.403,14.521z M12,10.932
	c1.238,0,2.469,0.527,3.666,1.569c1.331-1.068,2.342-1.569,3.152-1.569c0.625,0,1.368,0.297,2.285,0.923
	C20.325,7.536,16.539,4.25,12,4.25s-8.325,3.286-9.104,7.604c0.917-0.625,1.661-0.923,2.285-0.923c0.811,0,1.822,0.501,3.153,1.569
	C9.531,11.459,10.761,10.932,12,10.932z"/>
<path style="fill:#333333;" d="M14.75,22.756c-1.93,0-3.5-1.561-3.5-3.479V12h1.5v7.276c0,1.092,0.897,1.979,2,1.979
	s2-0.888,2-1.979h1.5C18.25,21.195,16.68,22.756,14.75,22.756z"/>
<rect x="11.25" y="1.5" style="fill:#333333;" width="1.5" height="2"/>
</svg>






