<?xml version="1.0" encoding="iso-8859-1"?>
<svg version="1.1" id="&#x56FE;&#x5C42;_1" xmlns="http://www.w3.org/2000/svg" xmlns:xlink="http://www.w3.org/1999/xlink" x="0px"
	 y="0px" viewBox="0 0 24 24" style="enable-background:new 0 0 24 24;" xml:space="preserve">
<path style="fill:#333333;" d="M22.75,12.75H1.25V12C1.25,6.072,6.072,1.25,12,1.25S22.75,6.072,22.75,12V12.75z M2.78,11.25H21.22
	c-0.383-4.751-4.372-8.5-9.22-8.5C7.152,2.75,3.163,6.499,2.78,11.25z"/>
<path style="fill:#333333;" d="M14.75,22.756c-1.93,0-3.5-1.561-3.5-3.479V12h1.5v7.276c0,1.092,0.897,1.979,2,1.979
	s2-0.888,2-1.979h1.5C18.25,21.195,16.68,22.756,14.75,22.756z"/>
</svg>






