<?xml version="1.0" encoding="iso-8859-1"?>
<svg version="1.1" id="&#x56FE;&#x5C42;_1" xmlns="http://www.w3.org/2000/svg" xmlns:xlink="http://www.w3.org/1999/xlink" x="0px"
	 y="0px" viewBox="0 0 24 24" style="enable-background:new 0 0 24 24;" xml:space="preserve">
<path style="fill:#333333;" d="M11.5,22.75c-2.018,0-2.75-2.131-2.75-3.562h1.5c0,0.021,0.054,2.062,1.25,2.062
	c1.189,0,1.25-2.238,1.25-2.688V12h1.5v6.562C14.25,21.185,13.222,22.75,11.5,22.75z"/>
<path style="fill:#333333;" d="M22.823,12.75H1.176l0.077-0.82C1.6,8.236,4.292,1.25,12,1.25c7.709,0,10.4,6.986,10.747,10.68
	L22.823,12.75z M2.858,11.25h18.283c-0.588-3.335-3.041-8.5-9.142-8.5S3.446,7.915,2.858,11.25z"/>
<polygon style="fill:#333333;" points="11.542,10.103 8.97,7.53 10.03,6.47 11.458,7.897 13.931,5.012 15.069,5.988 "/>
</svg>






