<?xml version="1.0" encoding="iso-8859-1"?>
<svg version="1.1" id="&#x56FE;&#x5C42;_1" xmlns="http://www.w3.org/2000/svg" xmlns:xlink="http://www.w3.org/1999/xlink" x="0px"
	 y="0px" viewBox="0 0 24 24" style="enable-background:new 0 0 24 24;" xml:space="preserve">
<path style="fill:#333333;" d="M12,21.75c-2.604,0-5.052-1.014-6.894-2.855l1.061-1.061C7.725,19.392,9.797,20.25,12,20.25
	c4.549,0,8.25-3.701,8.25-8.25S16.549,3.75,12,3.75c-2.204,0-4.275,0.858-5.833,2.417C5.362,6.97,3.579,8.978,3.561,8.998
	L2.439,8.002C2.514,7.918,4.271,5.94,5.106,5.106C6.947,3.264,9.396,2.25,12,2.25c5.376,0,9.75,4.374,9.75,9.75
	S17.376,21.75,12,21.75z"/>
<polygon style="fill:#333333;" points="7,9.25 2.25,9.25 2.25,4.5 3.75,4.5 3.75,7.75 7,7.75 "/>
</svg>






