<?xml version="1.0" encoding="iso-8859-1"?>
<svg version="1.1" id="&#x56FE;&#x5C42;_1" xmlns="http://www.w3.org/2000/svg" xmlns:xlink="http://www.w3.org/1999/xlink" x="0px"
	 y="0px" viewBox="0 0 24 24" style="enable-background:new 0 0 24 24;" xml:space="preserve">
<path style="fill:#333333;" d="M6.386,6.386H1.25V1.25h5.136V6.386z M2.75,4.886h2.136V2.75H2.75V4.886z"/>
<path style="fill:#333333;" d="M22.75,22.75h-5.137v-5.137h5.137V22.75z M19.113,21.25h2.137v-2.137h-2.137V21.25z"/>
<path style="fill:#333333;" d="M6.386,16.387H1.25V11.25h5.136V16.387z M2.75,14.887h2.136V12.75H2.75V14.887z"/>
<path style="fill:#333333;" d="M12.75,22.75H7.614v-5.137h5.136V22.75z M9.114,21.25h2.136v-2.137H9.114V21.25z"/>
<path style="fill:#333333;" d="M16.387,6.386H11.25V1.25h5.137V6.386z M12.75,4.886h2.137V2.75H12.75V4.886z"/>
<path style="fill:#333333;" d="M22.75,12.75h-5.137V7.614h5.137V12.75z M19.113,11.25h2.137V9.114h-2.137V11.25z"/>
<rect x="5.636" y="3.068" style="fill:#333333;" width="6.364" height="1.5"/>
<rect x="12" y="19.432" style="fill:#333333;" width="6.363" height="1.5"/>
<polygon style="fill:#333333;" points="14.568,14.568 5.636,14.568 5.636,13.068 13.068,13.068 13.068,5.636 14.568,5.636 "/>
<path style="fill:#333333;" d="M10.932,18.363h-1.5v-4.549h1.5V18.363z M18.363,10.932h-3.949v-1.5h3.949V10.932z"/>
<rect x="3.068" y="5.636" style="fill:#333333;" width="1.5" height="6.364"/>
<rect x="19.432" y="12" style="fill:#333333;" width="1.5" height="6.363"/>
</svg>






