<?xml version="1.0" encoding="iso-8859-1"?>
<svg version="1.1" id="&#x56FE;&#x5C42;_1" xmlns="http://www.w3.org/2000/svg" xmlns:xlink="http://www.w3.org/1999/xlink" x="0px"
	 y="0px" viewBox="0 0 24 24" style="enable-background:new 0 0 24 24;" xml:space="preserve">
<path style="fill:#333333;" d="M7.444,13.518L3.555,9.628c-1.722-1.722-1.77-4.476-0.107-6.139c0.81-0.81,1.918-1.227,3.063-1.218
	c1.154,0.024,2.246,0.495,3.076,1.325l3.889,3.889l-1.061,1.061L8.527,4.657C7.972,4.102,7.245,3.787,6.48,3.771
	C5.702,3.744,5.027,4.032,4.509,4.55c-1.078,1.078-1.03,2.881,0.107,4.018l3.889,3.889L7.444,13.518z"/>
<path style="fill:#333333;" d="M17.483,21.787c-1.114,0-2.232-0.455-3.139-1.36l-3.889-3.89l1.061-1.061l3.889,3.89
	c1.186,1.187,2.845,1.227,4.031,0.094c0.528-0.504,0.812-1.139,0.82-1.834c0.009-0.773-0.334-1.564-0.94-2.171l-3.889-3.89
	l1.061-1.061l3.889,3.89c0.891,0.89,1.394,2.073,1.38,3.248c-0.013,1.094-0.469,2.125-1.285,2.903
	C19.603,21.375,18.545,21.787,17.483,21.787z"/>
<rect x="8.897" y="8.191" transform="matrix(0.7072 -0.707 0.707 0.7072 -3.9384 9.6215)" style="fill:#333333;" width="1.5" height="2.75"/>
<rect x="13.434" y="12.728" transform="matrix(0.7071 -0.7071 0.7071 0.7071 -5.8179 14.1603)" style="fill:#333333;" width="1.5" height="2.75"/>
</svg>






