<?xml version="1.0" encoding="iso-8859-1"?>
<svg version="1.1" id="&#x56FE;&#x5C42;_1" xmlns="http://www.w3.org/2000/svg" xmlns:xlink="http://www.w3.org/1999/xlink" x="0px"
	 y="0px" viewBox="0 0 24 24" style="enable-background:new 0 0 24 24;" xml:space="preserve">
<path style="fill:#333333;" d="M12,21.953l-0.236-0.078C7.99,20.621,1.25,15.413,1.25,9.5c0-3.446,2.804-6.25,6.25-6.25
	c1.708,0,3.331,0.702,4.5,1.913c1.169-1.211,2.792-1.913,4.5-1.913c3.446,0,6.25,2.804,6.25,6.25h-1.5c0-2.619-2.131-4.75-4.75-4.75
	c-1.544,0-2.997,0.754-3.887,2.019L12,7.64l-0.613-0.871C10.497,5.504,9.044,4.75,7.5,4.75c-2.619,0-4.75,2.131-4.75,4.75
	c0,5.001,5.891,9.63,9.25,10.868c0.501-0.186,1.063-0.45,1.639-0.772l0.732,1.309c-0.75,0.42-1.488,0.756-2.135,0.971L12,21.953z"/>
<rect x="18.449" y="12.891" transform="matrix(0.7773 -0.6291 0.6291 0.7773 -5.5545 15.5571)" style="fill:#333333;" width="1.5" height="5.467"/>
<rect x="16.466" y="14.875" transform="matrix(0.629 -0.7774 0.7774 0.629 -5.0239 20.7233)" style="fill:#333333;" width="5.467" height="1.5"/>
</svg>






