<?xml version="1.0" encoding="iso-8859-1"?>
<svg version="1.1" id="&#x56FE;&#x5C42;_1" xmlns="http://www.w3.org/2000/svg" xmlns:xlink="http://www.w3.org/1999/xlink" x="0px"
	 y="0px" viewBox="0 0 24 24" style="enable-background:new 0 0 24 24;" xml:space="preserve">
<path style="fill:#333333;" d="M19.5,22.773h-15c-0.965,0-1.75-0.785-1.75-1.75v-9c0-0.965,0.785-1.75,1.75-1.75h15
	c0.965,0,1.75,0.785,1.75,1.75v9C21.25,21.988,20.465,22.773,19.5,22.773z M4.5,11.774c-0.138,0-0.25,0.112-0.25,0.25v9
	c0,0.138,0.112,0.25,0.25,0.25h15c0.138,0,0.25-0.112,0.25-0.25v-9c0-0.138-0.112-0.25-0.25-0.25H4.5z"/>
<path style="fill:#333333;" d="M7.75,11h-1.5V7.002c-0.003-2.964,2.241-5.425,5.218-5.723c2.968-0.294,5.67,1.668,6.266,4.573
	l-1.469,0.302c-0.442-2.149-2.448-3.602-4.648-3.382c-2.207,0.221-3.87,2.04-3.868,4.23V11z"/>
<rect x="11.25" y="15" style="fill:#333333;" width="1.5" height="3"/>
</svg>






