<?xml version="1.0" encoding="iso-8859-1"?>
<svg version="1.1" id="&#x56FE;&#x5C42;_1" xmlns="http://www.w3.org/2000/svg" xmlns:xlink="http://www.w3.org/1999/xlink" x="0px"
	 y="0px" viewBox="0 0 24 24" style="enable-background:new 0 0 24 24;" xml:space="preserve">
<rect x="3.25" y="9" style="fill:#333333;" width="1.5" height="4.5"/>
<rect x="2.5" y="12.75" style="fill:#333333;" width="3" height="1.5"/>
<rect x="2.5" y="5.25" style="fill:#333333;" width="3" height="1.5"/>
<path style="fill:#333333;" d="M2.872,6.651L2.127,5.349c0.854-0.49,2.129-1.485,2.289-2.165c0.03-0.128,0.007-0.198-0.041-0.269
	C4.17,2.607,4.005,2.591,3.951,2.585C3.623,2.557,3.161,2.9,3.03,3.03L1.97,1.97c0.102-0.101,1.021-0.986,2.129-0.877
	C4.521,1.135,5.128,1.34,5.624,2.084c0.287,0.43,0.374,0.93,0.252,1.445C5.511,5.075,3.31,6.401,2.872,6.651z"/>
<path style="fill:#333333;" d="M3.974,22.344c-0.396,0-0.787-0.105-1.158-0.317c-0.575-0.328-0.904-0.807-0.939-0.86l1.248-0.832
	c0.178,0.257,0.685,0.81,1.46,0.292c0.121-0.08,0.324-0.238,0.333-0.391c0.012-0.225-0.275-0.558-0.396-0.659L3.829,19l0.691-0.576
	c0.171-0.147,0.408-0.462,0.396-0.66c-0.009-0.152-0.212-0.31-0.332-0.39c-0.834-0.557-1.362,0.146-1.46,0.292l-1.248-0.832
	c0.036-0.054,0.365-0.532,0.939-0.86c0.824-0.47,1.749-0.416,2.601,0.152c0.784,0.522,0.976,1.137,0.998,1.56
	c0.028,0.523-0.186,0.98-0.417,1.314c0.231,0.334,0.445,0.791,0.417,1.314c-0.022,0.423-0.214,1.037-0.998,1.56
	C4.948,22.187,4.458,22.344,3.974,22.344z"/>
<rect x="4" y="18.25" style="fill:#333333;" width="1" height="1.5"/>
<rect x="2.349" y="8.75" transform="matrix(0.8321 -0.5547 0.5547 0.8321 -4.7238 3.3983)" style="fill:#333333;" width="1.803" height="1.5"/>
<rect x="10" y="11.25" style="fill:#333333;" width="11" height="1.5"/>
<rect x="10" y="18.25" style="fill:#333333;" width="11" height="1.5"/>
<rect x="10" y="4.25" style="fill:#333333;" width="11" height="1.5"/>
</svg>






