<?xml version="1.0" encoding="iso-8859-1"?>
<svg version="1.1" id="&#x56FE;&#x5C42;_1" xmlns="http://www.w3.org/2000/svg" xmlns:xlink="http://www.w3.org/1999/xlink" x="0px"
	 y="0px" viewBox="0 0 24 24" style="enable-background:new 0 0 24 24;" xml:space="preserve">
<path style="fill:#333333;" d="M22.75,22.75H5.25v-5.5h4v-4h4v-4h4v-4h5.5V22.75z M6.75,21.25h14.5V6.75h-2.5v4h-4v4h-4v4h-4V21.25z
	"/>
<rect x="8.068" y="3.5" transform="matrix(0.7071 -0.7071 0.7071 0.7071 0.2898 9.1997)" style="fill:#333333;" width="6.364" height="1.5"/>
<polygon style="fill:#333333;" points="14.25,5 12.75,5 12.75,2.75 10.5,2.75 10.5,1.25 14.25,1.25 "/>
<polygon style="fill:#333333;" points="5,14.25 1.25,14.25 1.25,10.5 2.75,10.5 2.75,12.75 5,12.75 "/>
<rect x="1.068" y="10.5" transform="matrix(0.7071 -0.7071 0.7071 0.7071 -6.7102 6.3003)" style="fill:#333333;" width="6.364" height="1.5"/>
</svg>






