<?xml version="1.0" encoding="iso-8859-1"?>
<svg version="1.1" id="&#x56FE;&#x5C42;_1" xmlns="http://www.w3.org/2000/svg" xmlns:xlink="http://www.w3.org/1999/xlink" x="0px"
	 y="0px" viewBox="0 0 24 24" style="enable-background:new 0 0 24 24;" xml:space="preserve">
<path style="fill:#333333;" d="M12,22.75C6.072,22.75,1.25,17.928,1.25,12S6.072,1.25,12,1.25S22.75,6.072,22.75,12
	S17.928,22.75,12,22.75z M12,2.75c-5.101,0-9.25,4.149-9.25,9.25s4.149,9.25,9.25,9.25s9.25-4.149,9.25-9.25S17.101,2.75,12,2.75z"
	/>
<path style="fill:#333333;" d="M12,17.75c-1.547,0-2.974-0.607-4.021-1.631V16.5h-1.5v-3l1.465-0.225
	C8.503,15.055,10.133,16.25,12,16.25c1.866,0,3.496-1.195,4.056-2.975l1.432,0.449C16.73,16.133,14.525,17.75,12,17.75z"/>
<path style="fill:#333333;" d="M16.056,10.725C15.496,8.945,13.866,7.75,12,7.75c-1.867,0-3.497,1.195-4.056,2.975l-1.431-0.449
	C7.27,7.868,9.475,6.25,12,6.25c1.547,0,2.974,0.607,4.021,1.631V7.5h1.5v3L16.056,10.725z"/>
</svg>






