<?xml version="1.0" encoding="iso-8859-1"?>
<svg version="1.1" id="&#x56FE;&#x5C42;_1" xmlns="http://www.w3.org/2000/svg" xmlns:xlink="http://www.w3.org/1999/xlink" x="0px"
	 y="0px" viewBox="0 0 24 24" style="enable-background:new 0 0 24 24;" xml:space="preserve">
<path style="fill:#333333;" d="M16.5,17.25h-9c-4.185,0-6.375-2.641-6.375-5.25c0-2.609,2.19-5.25,6.375-5.25h9
	c4.186,0,6.375,2.641,6.375,5.25C22.875,14.609,20.686,17.25,16.5,17.25z M7.5,8.25c-3.35,0-4.875,1.944-4.875,3.75
	c0,1.806,1.525,3.75,4.875,3.75h9c3.35,0,4.875-1.944,4.875-3.75c0-1.806-1.525-3.75-4.875-3.75H7.5z"/>
<rect x="9.75" y="10.5" style="fill:#333333;" width="1.5" height="3"/>
<rect x="12.75" y="10.5" style="fill:#333333;" width="1.5" height="3"/>
<rect x="15.75" y="10.5" style="fill:#333333;" width="1.5" height="3"/>
<rect x="6.75" y="10.5" style="fill:#333333;" width="1.5" height="3"/>
<rect x="6" y="11.25" style="fill:#333333;" width="12" height="1.5"/>
</svg>






