<?xml version="1.0" encoding="iso-8859-1"?>
<svg version="1.1" id="&#x56FE;&#x5C42;_1" xmlns="http://www.w3.org/2000/svg" xmlns:xlink="http://www.w3.org/1999/xlink" x="0px"
	 y="0px" viewBox="0 0 24 24" style="enable-background:new 0 0 24 24;" xml:space="preserve">
<path style="fill:#333333;" d="M20.5,17.25h-17c-1.241,0-2.25-1.01-2.25-2.25V9c0-1.241,1.009-2.25,2.25-2.25h17
	c1.24,0,2.25,1.009,2.25,2.25v6C22.75,16.24,21.74,17.25,20.5,17.25z M3.5,8.25C3.086,8.25,2.75,8.586,2.75,9v6
	c0,0.413,0.336,0.75,0.75,0.75h17c0.413,0,0.75-0.337,0.75-0.75V9c0-0.414-0.337-0.75-0.75-0.75H3.5z"/>
<path style="fill:#333333;" d="M19.25,12.25H4.75v-5.5h14.5V12.25z M6.25,10.75h11.5v-2.5H6.25V10.75z"/>
<rect x="9.75" y="10.5" style="fill:#333333;" width="1.5" height="1"/>
<rect x="12.75" y="10.5" style="fill:#333333;" width="1.5" height="1"/>
<rect x="15.25" y="10.5" style="fill:#333333;" width="1.5" height="1"/>
<rect x="7.25" y="10.5" style="fill:#333333;" width="1.5" height="1"/>
<rect x="4" y="6.75" style="fill:#333333;" width="16" height="1.5"/>
</svg>






