<?xml version="1.0" encoding="iso-8859-1"?>
<svg version="1.1" id="&#x56FE;&#x5C42;_1" xmlns="http://www.w3.org/2000/svg" xmlns:xlink="http://www.w3.org/1999/xlink" x="0px"
	 y="0px" viewBox="0 0 24 24" style="enable-background:new 0 0 24 24;" xml:space="preserve">
<path style="fill:#333333;" d="M18.669,17.25H5.332c-0.781,0-1.494-0.396-1.908-1.058l-1.831-2.93
	C1.368,12.903,1.25,12.49,1.25,12.069V9c0-1.241,1.009-2.25,2.25-2.25h17c1.24,0,2.25,1.009,2.25,2.25v3.069
	c0,0.421-0.117,0.833-0.34,1.191l-1.834,2.932C20.162,16.854,19.449,17.25,18.669,17.25z M3.5,8.25C3.086,8.25,2.75,8.586,2.75,9
	v3.069c0,0.141,0.04,0.279,0.115,0.399l1.831,2.929c0.138,0.221,0.376,0.353,0.636,0.353h13.337c0.26,0,0.497-0.132,0.636-0.353
	l1.832-2.93c0.073-0.119,0.113-0.258,0.113-0.398V9c0-0.414-0.337-0.75-0.75-0.75H3.5z"/>
<path style="fill:#333333;" d="M19.25,12.25H4.75v-5.5h14.5V12.25z M6.25,10.75h11.5v-2.5H6.25V10.75z"/>
<rect x="9.75" y="10.5" style="fill:#333333;" width="1.5" height="1"/>
<rect x="12.75" y="10.5" style="fill:#333333;" width="1.5" height="1"/>
<rect x="15.25" y="10.5" style="fill:#333333;" width="1.5" height="1"/>
<rect x="7.25" y="10.5" style="fill:#333333;" width="1.5" height="1"/>
<rect x="4" y="6.75" style="fill:#333333;" width="16" height="1.5"/>
</svg>






