<?xml version="1.0" encoding="iso-8859-1"?>
<svg version="1.1" id="&#x56FE;&#x5C42;_1" xmlns="http://www.w3.org/2000/svg" xmlns:xlink="http://www.w3.org/1999/xlink" x="0px"
	 y="0px" viewBox="0 0 24 24" style="enable-background:new 0 0 24 24;" xml:space="preserve">
<path style="fill:#333333;" d="M19,22.75H5c-0.965,0-1.75-0.785-1.75-1.75V11c0-0.965,0.785-1.75,1.75-1.75h14
	c0.965,0,1.75,0.785,1.75,1.75v10C20.75,21.965,19.965,22.75,19,22.75z M5,10.75c-0.138,0-0.25,0.112-0.25,0.25v10
	c0,0.138,0.112,0.25,0.25,0.25h14c0.138,0,0.25-0.112,0.25-0.25V11c0-0.138-0.112-0.25-0.25-0.25H5z"/>
<path style="fill:#333333;" d="M17.25,10.75H6.75v-9.5h10.5V10.75z M8.25,9.25h7.5v-6.5h-7.5V9.25z"/>
<rect x="9.75" y="5" style="fill:#333333;" width="1.5" height="1"/>
<rect x="12.75" y="5" style="fill:#333333;" width="1.5" height="1"/>
</svg>






