<?xml version="1.0" encoding="iso-8859-1"?>
<svg version="1.1" id="&#x56FE;&#x5C42;_1" xmlns="http://www.w3.org/2000/svg" xmlns:xlink="http://www.w3.org/1999/xlink" x="0px"
	 y="0px" viewBox="0 0 24 24" style="enable-background:new 0 0 24 24;" xml:space="preserve">
<path style="fill:#333333;" d="M7,9.75c-2.343,0-4.25-1.907-4.25-4.25S4.657,1.25,7,1.25s4.25,1.907,4.25,4.25S9.343,9.75,7,9.75z
	 M7,2.75c-1.517,0-2.75,1.233-2.75,2.75S5.483,8.25,7,8.25S9.75,7.017,9.75,5.5S8.517,2.75,7,2.75z"/>
<path style="fill:#333333;" d="M17,9.75c-2.344,0-4.25-1.907-4.25-4.25S14.656,1.25,17,1.25s4.25,1.907,4.25,4.25
	S19.344,9.75,17,9.75z M17,2.75c-1.517,0-2.75,1.233-2.75,2.75S15.483,8.25,17,8.25s2.75-1.233,2.75-2.75S18.517,2.75,17,2.75z"/>
<path style="fill:#333333;" d="M2.75,22h-1.5v-4.5c0-3.171,2.225-5.75,4.96-5.75h2.526c2.437,0,3.846,2.278,3.905,2.375
	l-1.283,0.777c-0.008-0.014-1.038-1.652-2.622-1.652H6.21c-1.908,0-3.46,1.906-3.46,4.25V22z"/>
<path style="fill:#333333;" d="M22.75,22h-1.5v-4.5c0-2.344-1.575-4.25-3.511-4.25h-2.557c-1.509,0-2.523,1.622-2.533,1.639
	l-0.637-0.382L12,14.514h-0.75c0-0.476,1.58-2.764,3.933-2.764h2.557c2.763,0,5.011,2.579,5.011,5.75V22z"/>
<rect x="5.5" y="19.25" style="fill:#333333;" width="13.5" height="1.5"/>
<polygon style="fill:#333333;" points="17.687,22.442 16.608,21.399 17.956,20.007 16.615,18.657 17.68,17.601 20.058,19.993 "/>
<polygon style="fill:#333333;" points="6.631,22.435 4.217,19.991 6.635,17.585 7.694,18.647 6.334,20.001 7.698,21.382 "/>
</svg>






