<?xml version="1.0" encoding="iso-8859-1"?>
<svg version="1.1" id="&#x56FE;&#x5C42;_1" xmlns="http://www.w3.org/2000/svg" xmlns:xlink="http://www.w3.org/1999/xlink" x="0px"
	 y="0px" viewBox="0 0 24 24" style="enable-background:new 0 0 24 24;" xml:space="preserve">
<path style="fill:#333333;" d="M12,11.75c-2.068,0-3.75-1.682-3.75-3.75S9.932,4.25,12,4.25c2.067,0,3.75,1.682,3.75,3.75
	S14.067,11.75,12,11.75z M12,5.75c-1.241,0-2.25,1.009-2.25,2.25s1.009,2.25,2.25,2.25c1.24,0,2.25-1.009,2.25-2.25
	S13.24,5.75,12,5.75z"/>
<path style="fill:#333333;" d="M18.75,18h-1.5c0-2.895-2.355-5.25-5.25-5.25c-2.895,0-5.25,2.355-5.25,5.25h-1.5
	c0-3.722,3.028-6.75,6.75-6.75C15.722,11.25,18.75,14.278,18.75,18z"/>
<polygon style="fill:#333333;" points="22.75,6 21.25,6 21.25,2.75 18,2.75 18,1.25 22.75,1.25 "/>
<polygon style="fill:#333333;" points="2.75,6 1.25,6 1.25,1.25 6,1.25 6,2.75 2.75,2.75 "/>
<polygon style="fill:#333333;" points="22.75,22.75 18,22.75 18,21.25 21.25,21.25 21.25,18 22.75,18 "/>
<polygon style="fill:#333333;" points="6,22.75 1.25,22.75 1.25,18 2.75,18 2.75,21.25 6,21.25 "/>
</svg>






