<?xml version="1.0" encoding="iso-8859-1"?>
<svg version="1.1" id="&#x56FE;&#x5C42;_1" xmlns="http://www.w3.org/2000/svg" xmlns:xlink="http://www.w3.org/1999/xlink" x="0px"
	 y="0px" viewBox="0 0 24 24" style="enable-background:new 0 0 24 24;" xml:space="preserve">
<path style="fill:#333333;" d="M5.302,13.185l-0.457-0.82c-0.757-1.357-0.61-2.815-0.36-3.935L1.533,8.921l0.234-1.08
	C2.536,4.292,4.808,2.254,7.999,2.25C9.607,2.266,11.09,2.775,12,3.175c0.908-0.399,2.408-0.925,4-0.925h0.001
	c1.511,0,5.139,0.545,6.232,5.591l0.233,1.08l-2.951-0.492c0.25,1.12,0.396,2.578-0.36,3.936l-0.457,0.819l-0.699-0.627
	c-0.892-0.8-2.583-1.898-4.076-2.867C13.22,9.234,12.546,8.797,12,8.419c-0.546,0.377-1.219,0.814-1.921,1.271
	C8.585,10.659,6.893,11.757,6,12.558L5.302,13.185z M12,6.57l0.443,0.325c0.565,0.414,1.406,0.96,2.297,1.538
	c1.161,0.753,2.438,1.583,3.416,2.322c0.185-0.998-0.104-2.051-0.312-2.806l-0.368-1.38l2.982,0.498
	C19.495,4.357,17.55,3.75,16.001,3.75c0,0,0,0-0.001,0c-1.504,0-2.95,0.581-3.678,0.927L12,4.831l-0.322-0.153
	C10.948,4.33,9.497,3.721,8.001,3.75C6.452,3.752,4.505,4.36,3.541,7.066l2.982-0.498L6.155,7.948
	c-0.207,0.756-0.496,1.809-0.312,2.807c0.978-0.739,2.257-1.57,3.418-2.324c0.89-0.578,1.73-1.123,2.295-1.537L12,6.57z"/>
<path style="fill:#333333;" d="M11.271,18.177c-0.926-3.817-0.41-8.747-0.007-10.82l1.473,0.286
	c-0.381,1.962-0.873,6.614-0.008,10.18L11.271,18.177z"/>
<path style="fill:#333333;" d="M18,21.75H6l-0.608-1.189c0.993-1.375,3.698-3.311,6.604-3.311c0.001,0,0.003,0,0.005,0
	c2.713,0.002,4.007,0.803,6.518,3.208L18,21.75z M7.854,20.25h8.205c-1.382-1.149-2.337-1.499-4.06-1.5c-0.001,0-0.002,0-0.004,0
	C10.491,18.75,8.952,19.449,7.854,20.25z"/>
</svg>






