<?xml version="1.0" encoding="iso-8859-1"?>
<svg version="1.1" id="&#x56FE;&#x5C42;_1" xmlns="http://www.w3.org/2000/svg" xmlns:xlink="http://www.w3.org/1999/xlink" x="0px"
	 y="0px" viewBox="0 0 24 24" style="enable-background:new 0 0 24 24;" xml:space="preserve">
<path style="fill:#333333;" d="M19.75,17h-1.5V5c0-1.12-0.695-2.25-2.25-2.25S13.75,3.88,13.75,5v6.25h-1.5V5
	c0-1.863,1.288-3.75,3.75-3.75S19.75,3.137,19.75,5V17z"/>
<path style="fill:#333333;" d="M22.85,20.75H15.15l0.562-4.5h6.574L22.85,20.75z M16.85,19.25h4.301l-0.188-1.5h-3.926L16.85,19.25z
	"/>
<path style="fill:#333333;" d="M12.943,20.75H5v-1.5h7.25v-7.623c0-3.241-2.637-5.877-5.877-5.877c-1.17,0-2.123,0.952-2.123,2.123
	V14.5h-1.5V7.873c0-1.998,1.625-3.623,3.623-3.623c4.068,0,7.377,3.31,7.377,7.377v9.066L12.943,20.75z"/>
<path style="fill:#333333;" d="M5,20.75c-2.068,0-3.75-1.683-3.75-3.75S2.932,13.25,5,13.25S8.75,14.933,8.75,17
	S7.068,20.75,5,20.75z M5,14.75c-1.241,0-2.25,1.01-2.25,2.25S3.759,19.25,5,19.25S7.25,18.24,7.25,17S6.241,14.75,5,14.75z"/>
<rect x="6.25" y="5" style="fill:#333333;" width="1.5" height="9.5"/>
</svg>






