<?xml version="1.0" encoding="iso-8859-1"?>
<svg version="1.1" id="&#x56FE;&#x5C42;_1" xmlns="http://www.w3.org/2000/svg" xmlns:xlink="http://www.w3.org/1999/xlink" x="0px"
	 y="0px" viewBox="0 0 24 24" style="enable-background:new 0 0 24 24;" xml:space="preserve">
<path style="fill:#333333;" d="M17.084,14.422l-0.668-1.344c0.137-0.067,3.36-1.696,4.12-4.216c0.346-1.149,0.271-2.092-0.225-2.803
	c-0.439-0.635-1.208-1.1-2.282-1.383c-0.464-0.12-1.24-0.159-1.835,0l-0.389-1.449c0.89-0.237,1.948-0.172,2.604-0.001
	c1.431,0.376,2.485,1.042,3.134,1.978c0.769,1.105,0.913,2.481,0.428,4.091C21.044,12.376,17.486,14.221,17.084,14.422z"/>
<path style="fill:#333333;" d="M14.404,21.461c-0.306-0.001-0.614-0.031-0.92-0.09l0.279-1.473c0.786,0.15,1.534,0.024,2.051-0.39
	c0.45-0.359,0.741-0.867,0.865-1.512c0.128-0.666-0.066-1.334-0.314-2.074C16.151,15.28,16.02,14.356,16,13.774l1.5-0.049
	c0.015,0.468,0.127,1.24,0.288,1.722c0.304,0.909,0.562,1.812,0.364,2.834c-0.191,0.992-0.676,1.821-1.402,2.399
	C16.104,21.198,15.314,21.461,14.404,21.461z"/>
<path style="fill:#333333;" d="M6.183,13.93c-0.131-0.061-3.22-1.53-4.155-4.635C1.544,7.687,1.688,6.31,2.456,5.204
	c0.65-0.936,1.705-1.602,3.133-1.978c0.618-0.162,1.213-0.244,1.771-0.244v1.5c-0.43,0-0.897,0.065-1.391,0.195
	C4.897,4.959,4.129,5.424,3.688,6.059C3.194,6.771,3.119,7.714,3.465,8.862c0.743,2.469,3.326,3.696,3.352,3.708L6.183,13.93z"/>
<path style="fill:#333333;" d="M9.003,21.5c-0.941,0-1.543-0.327-2.159-0.819c-0.691-0.55-1.161-1.349-1.395-2.373
	c-0.243-1.06,0.078-2.016,0.36-2.859c0.419-1.254,0.287-1.58,0.27-1.613l1.342-0.67c0.304,0.607,0.246,1.459-0.189,2.76
	c-0.241,0.72-0.469,1.399-0.321,2.049c0.157,0.684,0.449,1.2,0.869,1.534C8.206,19.849,8.482,20,9,20
	c0.086-0.008,0.457-0.108,0.76-0.211l0.479,1.422C9.921,21.318,9.336,21.499,9.003,21.5z"/>
<path style="fill:#333333;" d="M11.75,17.083l-0.541-0.563c-0.203-0.211-4.959-5.212-4.959-9.332c0-3.773,2.005-5.938,5.5-5.938
	s5.5,2.164,5.5,5.938c0,4.121-4.757,9.121-4.959,9.332L11.75,17.083z M11.75,2.75c-2.691,0-4,1.452-4,4.438
	c0,2.773,2.795,6.3,4,7.691c1.204-1.391,4-4.918,4-7.691C15.75,4.202,14.441,2.75,11.75,2.75z"/>
<path style="fill:#333333;" d="M12,21.864c-1.137,0-2.177-0.362-2.928-1.02c-0.835-0.734-1.258-1.754-1.258-3.031
	c0-1.099,0.56-1.963,1.053-2.726c0.229-0.354,0.563-1.049,0.702-1.348c0.076-0.28,0.176-0.767,0.156-1.037
	c-0.029-0.398-0.342-0.81-0.617-1.173c-0.225-0.296-0.437-0.576-0.533-0.89c-0.288-0.968-0.14-1.655,0.439-2.047
	c0.015-0.01,0.035-0.024,0.062-0.04C9.067,8.279,9.066,7.988,9.089,7.81c0.116-0.896,0.652-1.514,1.366-1.575
	c0.693-0.063,1.18,0.202,1.455,0.778c0.032,0.068,0.061,0.142,0.088,0.226c0.028-0.084,0.057-0.158,0.089-0.226
	c0.272-0.575,0.771-0.837,1.455-0.777c0.859,0.074,1.287,0.981,1.364,1.573c0.029,0.216,0.038,0.464,0.028,0.752
	c0.018,0.01,0.035,0.021,0.052,0.033c0.646,0.435,0.674,1.382,0.426,2.078c-0.125,0.351-0.365,0.641-0.598,0.921
	c-0.273,0.331-0.532,0.643-0.57,0.988c-0.046,0.425,0.027,0.658,0.188,1.17c0.161,0.51,0.349,0.798,0.633,1.234l0.064,0.1
	c0.495,0.764,1.055,1.629,1.055,2.729c0,1.279-0.423,2.298-1.258,3.03C14.175,21.502,13.135,21.864,12,21.864z M9.936,9.88
	c0.01,0.074,0.031,0.18,0.074,0.326c0.026,0.066,0.18,0.269,0.292,0.417c0.361,0.476,0.856,1.129,0.918,1.97
	c0.047,0.647-0.197,1.517-0.226,1.613l-0.038,0.103c-0.02,0.043-0.479,1.048-0.83,1.592c-0.419,0.647-0.813,1.257-0.813,1.912
	c0,0.839,0.245,1.461,0.747,1.903c0.939,0.822,2.936,0.825,3.879-0.002c0.502-0.439,0.746-1.062,0.746-1.901
	c0-0.656-0.395-1.267-0.813-1.913l-0.062-0.097c-0.313-0.48-0.583-0.896-0.799-1.578c-0.191-0.608-0.337-1.069-0.256-1.808
	c0.086-0.793,0.56-1.365,0.906-1.782c0.135-0.164,0.304-0.367,0.34-0.468c0.036-0.104,0.052-0.204,0.056-0.284h-0.728l0.065-0.83
	c0.049-0.454,0.058-0.807,0.026-1.049c-0.007-0.049-0.022-0.103-0.043-0.152c-0.008,0.031-0.017,0.063-0.025,0.099
	c-0.154,0.573-0.404,1.273-0.669,1.873l-1.373-0.001c-0.267-0.606-0.516-1.307-0.667-1.875c-0.012-0.042-0.021-0.079-0.031-0.113
	c-0.015,0.048-0.029,0.105-0.037,0.169c-0.018,0.136,0,0.678,0.028,1.079l0.052,0.753L9.936,9.88z"/>
</svg>






