<?xml version="1.0" encoding="iso-8859-1"?>
<svg version="1.1" id="&#x56FE;&#x5C42;_1" xmlns="http://www.w3.org/2000/svg" xmlns:xlink="http://www.w3.org/1999/xlink" x="0px"
	 y="0px" viewBox="0 0 24 24" style="enable-background:new 0 0 24 24;" xml:space="preserve">
<path style="fill:#333333;" d="M19.736,21.75H4.553c-0.886,0-1.633-0.663-1.738-1.543L1.455,8.766
	c-0.076-0.638,0.125-1.28,0.552-1.76c0.426-0.48,1.04-0.756,1.682-0.756H5v1.5H3.689c-0.217,0-0.417,0.089-0.561,0.252
	C2.984,8.165,2.918,8.373,2.944,8.589l1.36,11.44c0.015,0.126,0.122,0.221,0.249,0.221h15.184c0.13,0,0.237-0.097,0.25-0.226
	l1.108-11.452c0.021-0.213-0.048-0.418-0.192-0.577c-0.144-0.158-0.341-0.246-0.555-0.246H19v-1.5h1.348
	c0.633,0,1.24,0.269,1.665,0.737c0.426,0.469,0.636,1.099,0.574,1.729l-1.108,11.453C21.392,21.07,20.643,21.75,19.736,21.75z"/>
<rect x="2.5" y="10.25" style="fill:#333333;" width="19" height="1.5"/>
<rect x="7.5" y="13.75" style="fill:#333333;" width="9" height="1.5"/>
<rect x="8.5" y="17.25" style="fill:#333333;" width="7" height="1.5"/>
<path style="fill:#333333;" d="M16.74,11.75H7.265L7.25,10.733C7.25,5.977,9.336,2.25,12,2.25c2.663,0,4.75,3.727,4.75,8.483
	L16.74,11.75z M8.758,10.25h6.484c-0.128-3.855-1.766-6.5-3.242-6.5C10.524,3.75,8.885,6.395,8.758,10.25z"/>
</svg>






