<?xml version="1.0" encoding="iso-8859-1"?>
<svg version="1.1" id="&#x56FE;&#x5C42;_1" xmlns="http://www.w3.org/2000/svg" xmlns:xlink="http://www.w3.org/1999/xlink" x="0px"
	 y="0px" viewBox="0 0 24 24" style="enable-background:new 0 0 24 24;" xml:space="preserve">
<rect x="2" y="1.75" style="fill:#333333;" width="20" height="1.5"/>
<rect x="2" y="20.75" style="fill:#333333;" width="20" height="1.5"/>
<rect x="3.25" y="18" style="fill:#333333;" width="1.5" height="3.5"/>
<path style="fill:#333333;" d="M6.75,18.75h-5.5v-5.5h5.5V18.75z M2.75,17.25h2.5v-2.5h-2.5V17.25z"/>
<path style="fill:#333333;" d="M14.75,14.75h-5.5v-5.5h5.5V14.75z M10.75,13.25h2.5v-2.5h-2.5V13.25z"/>
<path style="fill:#333333;" d="M22.75,10.75h-5.5v-5.5h5.5V10.75z M18.75,9.25h2.5v-2.5h-2.5V9.25z"/>
<rect x="19.25" y="10" style="fill:#333333;" width="1.5" height="11.5"/>
<rect x="3.25" y="6" style="fill:#333333;" width="1.5" height="0.5"/>
<rect x="3.25" y="10" style="fill:#333333;" width="1.5" height="0.5"/>
<rect x="10.75" y="6" style="fill:#333333;" width="1.5" height="0.5"/>
<rect x="11.25" y="14" style="fill:#333333;" width="1.5" height="7.5"/>
</svg>






