<?xml version="1.0" encoding="iso-8859-1"?>
<svg version="1.1" id="&#x56FE;&#x5C42;_1" xmlns="http://www.w3.org/2000/svg" xmlns:xlink="http://www.w3.org/1999/xlink" x="0px"
	 y="0px" viewBox="0 0 24 24" style="enable-background:new 0 0 24 24;" xml:space="preserve">
<polygon style="fill:#333333;" points="15.75,16.5 14.25,16.5 14.25,2.75 9.75,2.75 9.75,16.484 8.25,16.484 8.25,1.25 15.75,1.25 
	"/>
<rect x="12.5" y="6.25" style="fill:#333333;" width="2.5" height="1.5"/>
<rect x="12.5" y="9.25" style="fill:#333333;" width="2.5" height="1.5"/>
<path style="fill:#333333;" d="M12,22.75c-2.068,0-3.75-1.75-3.75-3.9v-3.104l7.5,0.04v3.063C15.75,21,14.067,22.75,12,22.75z
	 M9.75,17.254v1.596c0,1.323,1.009,2.4,2.25,2.4c1.24,0,2.25-1.077,2.25-2.4v-1.571L9.75,17.254z"/>
</svg>






