<?xml version="1.0" encoding="iso-8859-1"?>
<svg version="1.1" id="&#x56FE;&#x5C42;_1" xmlns="http://www.w3.org/2000/svg" xmlns:xlink="http://www.w3.org/1999/xlink" x="0px"
	 y="0px" viewBox="0 0 24 24" style="enable-background:new 0 0 24 24;" xml:space="preserve">
<g>
	<defs>
		<rect id="SVGID_1_" width="24" height="24"/>
	</defs>
	<clipPath id="SVGID_00000017506900126741519890000014834087223389921717_">
		<use xlink:href="#SVGID_1_"  style="overflow:visible;"/>
	</clipPath>
	<g style="clip-path:url(#SVGID_00000017506900126741519890000014834087223389921717_);">
		<path style="fill:#333333;" d="M9.498,21.809c-2.299,0-4.613-0.828-6.237-2.272C1.964,18.384,1.25,16.95,1.25,15.5
			c0-2.839,1.386-4.811,4.009-5.701c0.331-0.112,0.637-0.201,0.931-0.286c1.008-0.29,1.735-0.499,2.78-1.544
			c0.446-0.446,0.761-1.114,1.095-1.822c0.655-1.388,1.47-3.116,3.698-3.859c1.736-0.58,3.652-0.419,5.26,0.441
			c1.578,0.845,2.716,2.292,3.201,4.073c1.073,3.937-1.99,8.788-3.147,10.178c-2.309,2.771-5.165,4.373-8.488,4.765
			C10.227,21.787,9.862,21.809,9.498,21.809z M15.881,3.445c-0.554,0-1.109,0.088-1.644,0.266c-1.619,0.54-2.2,1.772-2.816,3.076
			C11.047,7.58,10.661,8.4,10.03,9.03c-1.318,1.318-2.342,1.613-3.426,1.925c-0.272,0.078-0.557,0.16-0.863,0.264
			C3.729,11.903,2.75,13.303,2.75,15.5c0,1.016,0.535,2.051,1.507,2.915c1.57,1.396,3.926,2.101,6.155,1.84
			c2.929-0.345,5.457-1.77,7.511-4.235c1.293-1.551,3.69-5.748,2.853-8.822C20.4,5.817,19.525,4.7,18.314,4.052
			C17.563,3.65,16.725,3.445,15.881,3.445z"/>
		<path style="fill:#333333;" d="M9.2,13.121c-1.225,0-2.593-0.604-3.791-2.137l1.182-0.924c1.396,1.787,2.972,1.852,3.911,1.12
			c1.104-0.858,1.426-2.756-0.095-4.721l1.187-0.918c2.099,2.713,1.479,5.54-0.171,6.823C10.819,12.833,10.044,13.121,9.2,13.121z"
			/>
		<path style="fill:#333333;" d="M5.742,11.219l-0.482-1.42C5.59,9.687,5.896,9.598,6.19,9.514c1.007-0.29,1.735-0.5,2.779-1.544
			c0.446-0.446,0.762-1.115,1.096-1.823c0.655-1.388,1.47-3.116,3.697-3.858l0.475,1.423c-1.619,0.54-2.2,1.771-2.815,3.076
			C11.048,7.58,10.661,8.4,10.03,9.03c-1.318,1.318-2.341,1.613-3.425,1.925C6.333,11.034,6.048,11.115,5.742,11.219z"/>
	</g>
</g>
</svg>






