<?xml version="1.0" encoding="iso-8859-1"?>
<svg version="1.1" id="&#x56FE;&#x5C42;_1" xmlns="http://www.w3.org/2000/svg" xmlns:xlink="http://www.w3.org/1999/xlink" x="0px"
	 y="0px" viewBox="0 0 24 24" style="enable-background:new 0 0 24 24;" xml:space="preserve">
<path style="fill:#333333;" d="M21,20.75H3c-0.965,0-1.75-0.785-1.75-1.75V5c0-0.965,0.785-1.75,1.75-1.75h18
	c0.965,0,1.75,0.785,1.75,1.75v14C22.75,19.965,21.965,20.75,21,20.75z M3,4.75C2.862,4.75,2.75,4.862,2.75,5v14
	c0,0.138,0.112,0.25,0.25,0.25h18c0.138,0,0.25-0.112,0.25-0.25V5c0-0.138-0.112-0.25-0.25-0.25H3z"/>
<rect x="17.25" y="4" style="fill:#333333;" width="1.5" height="16"/>
<rect x="5.25" y="4" style="fill:#333333;" width="1.5" height="16"/>
<rect x="19" y="8.25" style="fill:#333333;" width="3" height="1.5"/>
<rect x="19" y="14.25" style="fill:#333333;" width="3" height="1.5"/>
<rect x="2" y="8.25" style="fill:#333333;" width="3" height="1.5"/>
<rect x="1.25" y="8" style="fill:#333333;" width="1.5" height="2"/>
<rect x="4.5" y="3.25" style="fill:#333333;" width="3" height="1.5"/>
<rect x="4.5" y="19.25" style="fill:#333333;" width="3" height="1.5"/>
<rect x="16.5" y="3.25" style="fill:#333333;" width="3" height="1.5"/>
<rect x="16.5" y="19.25" style="fill:#333333;" width="3" height="1.5"/>
<rect x="2" y="14.25" style="fill:#333333;" width="3" height="1.5"/>
<rect x="1.25" y="14" style="fill:#333333;" width="1.5" height="2"/>
<rect x="21.25" y="14" style="fill:#333333;" width="1.5" height="2"/>
<rect x="21.25" y="8" style="fill:#333333;" width="1.5" height="2"/>
<path style="fill:#333333;" d="M10.897,15.136L9.75,14.5v-5l1.147-0.636L15.915,12L10.897,15.136z M11.25,10.853v2.293L13.085,12
	L11.25,10.853z"/>
</svg>






