<?xml version="1.0" encoding="iso-8859-1"?>
<svg version="1.1" id="&#x56FE;&#x5C42;_1" xmlns="http://www.w3.org/2000/svg" xmlns:xlink="http://www.w3.org/1999/xlink" x="0px"
	 y="0px" viewBox="0 0 24 24" style="enable-background:new 0 0 24 24;" xml:space="preserve">
<path style="fill:#333333;" d="M17,20.75H3c-0.965,0-1.75-0.785-1.75-1.75V5c0-0.965,0.785-1.75,1.75-1.75h14
	c0.965,0,1.75,0.785,1.75,1.75v3l2.8-2.1l1.2,0.6V18l-1.2,0.6l-2.8-2.1V19C18.75,19.965,17.965,20.75,17,20.75z M3,4.75
	C2.862,4.75,2.75,4.862,2.75,5v14c0,0.138,0.112,0.25,0.25,0.25h14c0.138,0,0.25-0.112,0.25-0.25v-4l1.2-0.6l2.8,2.1V8l-2.8,2.1
	l-1.2-0.6V5c0-0.138-0.112-0.25-0.25-0.25H3z"/>
<path style="fill:#333333;" d="M8.5,13.75c-1.792,0-3.25-1.458-3.25-3.25S6.708,7.25,8.5,7.25s3.25,1.458,3.25,3.25
	S10.292,13.75,8.5,13.75z M8.5,8.75c-0.965,0-1.75,0.785-1.75,1.75s0.785,1.75,1.75,1.75s1.75-0.785,1.75-1.75S9.465,8.75,8.5,8.75z
	"/>
</svg>






