<?xml version="1.0" encoding="iso-8859-1"?>
<svg version="1.1" id="&#x56FE;&#x5C42;_1" xmlns="http://www.w3.org/2000/svg" xmlns:xlink="http://www.w3.org/1999/xlink" x="0px"
	 y="0px" viewBox="0 0 24 24" style="enable-background:new 0 0 24 24;" xml:space="preserve">
<path style="fill:#333333;" d="M19.5,21.75h-15c-1.241,0-2.25-1.01-2.25-2.25v-15c0-1.241,1.009-2.25,2.25-2.25h15
	c1.24,0,2.25,1.009,2.25,2.25v15C21.75,20.74,20.74,21.75,19.5,21.75z M4.5,3.75c-0.414,0-0.75,0.336-0.75,0.75v15
	c0,0.413,0.336,0.75,0.75,0.75h15c0.413,0,0.75-0.337,0.75-0.75v-15c0-0.414-0.337-0.75-0.75-0.75H4.5z"/>
<path style="fill:#333333;" d="M10.625,17.681L9.5,17.031v-6.062l1.125-0.649L17,14L10.625,17.681z M11,12.268v3.465L14,14
	L11,12.268z"/>
<rect x="3" y="6.75" style="fill:#333333;" width="18" height="1.5"/>
<rect x="12.296" y="4.5" transform="matrix(0.5547 -0.8321 0.8321 0.5547 2.3112 14.8186)" style="fill:#333333;" width="5.408" height="1.5"/>
<rect x="6.296" y="4.5" transform="matrix(0.5547 -0.8321 0.8321 0.5547 -0.3606 9.8263)" style="fill:#333333;" width="5.408" height="1.5"/>
</svg>






