<?xml version="1.0" encoding="iso-8859-1"?>
<svg version="1.1" id="&#x56FE;&#x5C42;_1" xmlns="http://www.w3.org/2000/svg" xmlns:xlink="http://www.w3.org/1999/xlink" x="0px"
	 y="0px" viewBox="0 0 24 24" style="enable-background:new 0 0 24 24;" xml:space="preserve">
<path style="fill:#333333;" d="M16.5,21.25H3c-0.965,0-1.75-0.785-1.75-1.75v-8c0-0.965,0.785-1.75,1.75-1.75h13.5
	c0.965,0,1.75,0.785,1.75,1.75v8C18.25,20.465,17.465,21.25,16.5,21.25z M3,11.25c-0.138,0-0.25,0.112-0.25,0.25v8
	c0,0.138,0.112,0.25,0.25,0.25h13.5c0.138,0,0.25-0.112,0.25-0.25v-8c0-0.138-0.112-0.25-0.25-0.25H3z"/>
<path style="fill:#333333;" d="M15.25,18.25h-6v-5.5h6V18.25z M10.75,16.75h3v-2.5h-3V16.75z"/>
<path style="fill:#333333;" d="M13.5,9.75c-1.792,0-3.25-1.458-3.25-3.25s1.458-3.25,3.25-3.25s3.25,1.458,3.25,3.25
	S15.292,9.75,13.5,9.75z M13.5,4.75c-0.965,0-1.75,0.785-1.75,1.75s0.785,1.75,1.75,1.75s1.75-0.785,1.75-1.75
	S14.465,4.75,13.5,4.75z"/>
<path style="fill:#333333;" d="M6.5,9.75c-1.792,0-3.25-1.458-3.25-3.25S4.708,3.25,6.5,3.25S9.75,4.708,9.75,6.5
	S8.292,9.75,6.5,9.75z M6.5,4.75c-0.965,0-1.75,0.785-1.75,1.75S5.535,8.25,6.5,8.25S8.25,7.465,8.25,6.5S7.465,4.75,6.5,4.75z"/>
<polygon style="fill:#333333;" points="22.75,20.654 17.195,18.186 17.805,16.814 21.25,18.346 21.25,12.654 17.805,14.186 
	17.195,12.814 22.75,10.346 "/>
</svg>






