<?xml version="1.0" encoding="iso-8859-1"?>
<svg version="1.1" id="&#x56FE;&#x5C42;_1" xmlns="http://www.w3.org/2000/svg" xmlns:xlink="http://www.w3.org/1999/xlink" x="0px"
	 y="0px" viewBox="0 0 24 24" style="enable-background:new 0 0 24 24;" xml:space="preserve">
<path style="fill:#333333;" d="M12,15.25c-3.722,0-6.75-3.028-6.75-6.75c0-3.722,3.028-6.75,6.75-6.75c3.722,0,6.75,3.028,6.75,6.75
	C18.75,12.222,15.722,15.25,12,15.25z M12,3.25c-2.895,0-5.25,2.355-5.25,5.25s2.355,5.25,5.25,5.25c2.895,0,5.25-2.355,5.25-5.25
	S14.895,3.25,12,3.25z"/>
<path style="fill:#333333;" d="M8,22.25c-3.722,0-6.75-3.028-6.75-6.75c0-3.722,3.028-6.75,6.75-6.75s6.75,3.028,6.75,6.75
	C14.75,19.222,11.722,22.25,8,22.25z M8,10.25c-2.895,0-5.25,2.355-5.25,5.25S5.105,20.75,8,20.75s5.25-2.355,5.25-5.25
	S10.895,10.25,8,10.25z"/>
<path style="fill:#333333;" d="M16,22.25c-3.722,0-6.75-3.028-6.75-6.75S12.278,8.75,16,8.75s6.75,3.028,6.75,6.75
	S19.722,22.25,16,22.25z M16,10.25c-2.895,0-5.25,2.355-5.25,5.25s2.355,5.25,5.25,5.25s5.25-2.355,5.25-5.25S18.895,10.25,16,10.25
	z"/>
</svg>






