<?xml version="1.0" encoding="iso-8859-1"?>
<svg version="1.1" id="&#x56FE;&#x5C42;_1" xmlns="http://www.w3.org/2000/svg" xmlns:xlink="http://www.w3.org/1999/xlink" x="0px"
	 y="0px" viewBox="0 0 24 24" style="enable-background:new 0 0 24 24;" xml:space="preserve">
<path style="fill:#333333;" d="M3.75,8h-1.5V4c0-0.965,0.785-1.75,1.75-1.75h4v1.5H4C3.862,3.75,3.75,3.862,3.75,4V8z"/>
<path style="fill:#333333;" d="M8,21.75H4c-0.965,0-1.75-0.785-1.75-1.75v-4h1.5v4c0,0.138,0.112,0.25,0.25,0.25h4V21.75z"/>
<path style="fill:#333333;" d="M20,21.75h-4v-1.5h4c0.138,0,0.25-0.112,0.25-0.25v-4h1.5v4C21.75,20.965,20.965,21.75,20,21.75z"/>
<path style="fill:#333333;" d="M21.75,8h-1.5V4c0-0.138-0.112-0.25-0.25-0.25h-4v-1.5h4c0.965,0,1.75,0.785,1.75,1.75V8z"/>
<path style="fill:#333333;" d="M18.25,17.25H5.75v-9h3.349l1-1.5h3.803l1,1.5h3.349V17.25z M7.25,15.75h9.5v-6h-2.651l-1-1.5h-2.197
	l-1,1.5H7.25V15.75z"/>
<path style="fill:#333333;" d="M12,14.75c-1.241,0-2.25-1.01-2.25-2.25c0-1.241,1.009-2.25,2.25-2.25c1.24,0,2.25,1.009,2.25,2.25
	C14.25,13.74,13.24,14.75,12,14.75z M12,11.75c-0.414,0-0.75,0.337-0.75,0.75s0.336,0.75,0.75,0.75c0.413,0,0.75-0.337,0.75-0.75
	S12.413,11.75,12,11.75z"/>
</svg>






