<?xml version="1.0" encoding="iso-8859-1"?>
<svg version="1.1" id="&#x56FE;&#x5C42;_1" xmlns="http://www.w3.org/2000/svg" xmlns:xlink="http://www.w3.org/1999/xlink" x="0px"
	 y="0px" viewBox="0 0 24 24" style="enable-background:new 0 0 24 24;" xml:space="preserve">
<path style="fill:#333333;" d="M19,22.75H5c-0.965,0-1.75-0.785-1.75-1.75V3c0-0.965,0.785-1.75,1.75-1.75h14
	c0.965,0,1.75,0.785,1.75,1.75v18C20.75,21.965,19.965,22.75,19,22.75z M5,2.75C4.862,2.75,4.75,2.862,4.75,3v18
	c0,0.138,0.112,0.25,0.25,0.25h14c0.138,0,0.25-0.112,0.25-0.25V3c0-0.138-0.112-0.25-0.25-0.25H5z"/>
<rect x="10.5" y="6.25" style="fill:#333333;" width="6" height="1.5"/>
<rect x="10.5" y="11.25" style="fill:#333333;" width="6" height="1.5"/>
<rect x="10.5" y="16.25" style="fill:#333333;" width="6" height="1.5"/>
<path style="fill-rule:evenodd;clip-rule:evenodd;fill:#333333;" d="M7.5,8c0.552,0,1-0.448,1-1s-0.448-1-1-1s-1,0.448-1,1
	S6.948,8,7.5,8z"/>
<path style="fill-rule:evenodd;clip-rule:evenodd;fill:#333333;" d="M7.5,13c0.552,0,1-0.448,1-1s-0.448-1-1-1s-1,0.448-1,1
	S6.948,13,7.5,13z"/>
<path style="fill-rule:evenodd;clip-rule:evenodd;fill:#333333;" d="M7.5,18c0.552,0,1-0.448,1-1s-0.448-1-1-1s-1,0.448-1,1
	S6.948,18,7.5,18z"/>
</svg>






