<?xml version="1.0" encoding="iso-8859-1"?>
<svg version="1.1" id="&#x56FE;&#x5C42;_1" xmlns="http://www.w3.org/2000/svg" xmlns:xlink="http://www.w3.org/1999/xlink" x="0px"
	 y="0px" viewBox="0 0 24 24" style="enable-background:new 0 0 24 24;" xml:space="preserve">
<path style="fill:#333333;" d="M12.421,22.121l-0.842-1.242c5.988-4.058,8.9-7.073,8.656-8.963c-0.316-2.458-2.6-2.666-5.118-2.666
	c-0.007,0-0.014,0-0.021,0L15,8.5l0.097-0.75c1.941,0.008,6.113-0.003,6.627,3.974C22.06,14.327,19.19,17.533,12.421,22.121z
	 M15,8.5V7.75V8.5z"/>
<path style="fill:#333333;" d="M8,5.5c0,0.552,0.448,1,1,1s1-0.448,1-1H8z M2,5.5c0,0.552,0.448,1,1,1s1-0.448,1-1H2z M4,5.5
	c0-1.105,0.895-2,2-2v-2c-2.209,0-4,1.791-4,4H4z M6,3.5c1.105,0,2,0.895,2,2h2c0-2.209-1.791-4-4-4V3.5z"/>
<path style="fill:#333333;" d="M14,5.5c0,0.552,0.448,1,1,1s1-0.448,1-1H14z M8,5.5c0,0.552,0.448,1,1,1s1-0.448,1-1H8z M10,5.5
	c0-1.105,0.895-2,2-2v-2c-2.209,0-4,1.791-4,4H10z M12,3.5c1.105,0,2,0.895,2,2h2c0-2.209-1.791-4-4-4V3.5z"/>
<rect x="2.25" y="5.5" style="fill:#333333;" width="1.5" height="9"/>
<rect x="8.25" y="5.5" style="fill:#333333;" width="1.5" height="9"/>
<path style="fill:#333333;" d="M21,20.25c-5.873,0-6.75-3.603-6.75-5.75v-9h1.5v9c0,2.859,1.718,4.25,5.25,4.25V20.25z"/>
</svg>






