<?xml version="1.0" encoding="iso-8859-1"?>
<svg version="1.1" id="&#x56FE;&#x5C42;_1" xmlns="http://www.w3.org/2000/svg" xmlns:xlink="http://www.w3.org/1999/xlink" x="0px"
	 y="0px" viewBox="0 0 24 24" style="enable-background:new 0 0 24 24;" xml:space="preserve">
<path style="fill:#333333;" d="M21.5,20.75h-6.811l-2.687-2.688L9.31,20.75H2.5c-0.689,0-1.25-0.561-1.25-1.25v-11
	c0-0.689,0.561-1.25,1.25-1.25h19c0.689,0,1.25,0.561,1.25,1.25v11C22.75,20.189,22.189,20.75,21.5,20.75z M15.311,19.25h5.939V8.75
	H2.75v10.5h5.94l3.315-3.31L15.311,19.25z"/>
<path style="fill:#333333;" d="M7,16.75c-1.517,0-2.75-1.233-2.75-2.75S5.483,11.25,7,11.25S9.75,12.483,9.75,14
	S8.517,16.75,7,16.75z M7,12.75c-0.689,0-1.25,0.561-1.25,1.25S6.311,15.25,7,15.25S8.25,14.689,8.25,14S7.689,12.75,7,12.75z"/>
<path style="fill:#333333;" d="M17,16.75c-1.517,0-2.75-1.233-2.75-2.75s1.233-2.75,2.75-2.75s2.75,1.233,2.75,2.75
	S18.517,16.75,17,16.75z M17,12.75c-0.689,0-1.25,0.561-1.25,1.25s0.561,1.25,1.25,1.25s1.25-0.561,1.25-1.25S17.689,12.75,17,12.75
	z"/>
<path style="fill:none;" d="M3,5h18H3z"/>
<rect x="3" y="4.25" style="fill:#333333;" width="18" height="1.5"/>
</svg>






