<?xml version="1.0" encoding="iso-8859-1"?>
<svg version="1.1" id="&#x56FE;&#x5C42;_1" xmlns="http://www.w3.org/2000/svg" xmlns:xlink="http://www.w3.org/1999/xlink" x="0px"
	 y="0px" viewBox="0 0 24 24" style="enable-background:new 0 0 24 24;" xml:space="preserve">
<path style="fill:#333333;" d="M5.5,16.25c-2.343,0-4.25-1.906-4.25-4.25c0-2.343,1.907-4.25,4.25-4.25S9.75,9.657,9.75,12
	C9.75,14.344,7.843,16.25,5.5,16.25z M5.5,9.25c-1.517,0-2.75,1.233-2.75,2.75s1.233,2.75,2.75,2.75S8.25,13.517,8.25,12
	S7.017,9.25,5.5,9.25z"/>
<path style="fill:#333333;" d="M18.5,16.25c-2.344,0-4.25-1.906-4.25-4.25c0-2.343,1.906-4.25,4.25-4.25s4.25,1.907,4.25,4.25
	C22.75,14.344,20.844,16.25,18.5,16.25z M18.5,9.25c-1.517,0-2.75,1.233-2.75,2.75s1.233,2.75,2.75,2.75s2.75-1.233,2.75-2.75
	S20.017,9.25,18.5,9.25z"/>
<rect x="6" y="14.75" style="fill:#333333;" width="12" height="1.5"/>
</svg>






