<?xml version="1.0" encoding="iso-8859-1"?>
<svg version="1.1" id="&#x56FE;&#x5C42;_1" xmlns="http://www.w3.org/2000/svg" xmlns:xlink="http://www.w3.org/1999/xlink" x="0px"
	 y="0px" viewBox="0 0 24 24" style="enable-background:new 0 0 24 24;" xml:space="preserve">
<path style="fill:#333333;" d="M12,16.25c-2.343,0-4.25-1.906-4.25-4.25V5.5c0-2.343,1.907-4.25,4.25-4.25
	c2.344,0,4.25,1.907,4.25,4.25V12C16.25,14.344,14.344,16.25,12,16.25z M12,2.75c-1.517,0-2.75,1.233-2.75,2.75V12
	c0,1.517,1.233,2.75,2.75,2.75s2.75-1.233,2.75-2.75V5.5C14.75,3.983,13.517,2.75,12,2.75z"/>
<path style="fill:#333333;" d="M12,19.75c-4.549,0-8.25-3.701-8.25-8.25h1.5c0,3.722,3.028,6.75,6.75,6.75
	c0.772,0,1.529-0.129,2.25-0.384l0.5,1.414C13.868,19.592,12.942,19.75,12,19.75z M19.563,14.8l-1.375-0.6
	c0.373-0.854,0.562-1.762,0.562-2.7h1.5C20.25,12.646,20.019,13.757,19.563,14.8z"/>
<rect x="11.25" y="19" style="fill:#333333;" width="1.5" height="3"/>
<rect x="11.25" y="-0.728" transform="matrix(0.7071 -0.7071 0.7071 0.7071 -4.9706 12)" style="fill:#333333;" width="1.5" height="25.456"/>
</svg>






