<?xml version="1.0" encoding="iso-8859-1"?>
<svg version="1.1" id="&#x56FE;&#x5C42;_1" xmlns="http://www.w3.org/2000/svg" xmlns:xlink="http://www.w3.org/1999/xlink" x="0px"
	 y="0px" viewBox="0 0 24 24" style="enable-background:new 0 0 24 24;" xml:space="preserve">
<path style="fill:#333333;" d="M8,21.75c-3.722,0-6.75-3.028-6.75-6.75h1.5c0,2.895,2.355,5.25,5.25,5.25
	c2.799,0,4.329-1.609,4.788-2.987l3.995-12.983l1.44,0.023l4.5,16.5l-1.447,0.395L17.457,7.191l-3.24,10.529
	C13.595,19.588,11.598,21.75,8,21.75z"/>
<rect x="14.27" y="14.25" style="fill:#333333;" width="6.094" height="1.5"/>
<path style="fill:#333333;" d="M8,18.75c-2.068,0-3.75-1.683-3.75-3.75V7.5c0-2.068,1.682-3.75,3.75-3.75s3.75,1.682,3.75,3.75V15
	C11.75,17.067,10.068,18.75,8,18.75z M8,5.25c-1.241,0-2.25,1.009-2.25,2.25V15c0,1.24,1.009,2.25,2.25,2.25s2.25-1.01,2.25-2.25
	V7.5C10.25,6.259,9.241,5.25,8,5.25z"/>
</svg>






