<?xml version="1.0" encoding="iso-8859-1"?>
<svg version="1.1" id="&#x56FE;&#x5C42;_1" xmlns="http://www.w3.org/2000/svg" xmlns:xlink="http://www.w3.org/1999/xlink" x="0px"
	 y="0px" viewBox="0 0 24 24" style="enable-background:new 0 0 24 24;" xml:space="preserve">
<path style="fill:#333333;" d="M12,22.75C6.072,22.75,1.25,17.928,1.25,12S6.072,1.25,12,1.25S22.75,6.072,22.75,12
	S17.928,22.75,12,22.75z M12,2.75c-5.101,0-9.25,4.149-9.25,9.25s4.149,9.25,9.25,9.25s9.25-4.149,9.25-9.25S17.101,2.75,12,2.75z"
	/>
<polygon style="fill:#333333;" points="15.342,18.859 12.555,13.75 11.445,13.75 8.658,18.859 7.302,18.773 2.802,7.273 
	4.198,6.727 8.112,16.729 10.555,12.25 13.445,12.25 15.888,16.729 19.802,6.727 21.198,7.273 16.698,18.773 "/>
<polygon style="fill:#333333;" points="13.479,10.25 10.52,10.25 7.319,3.314 8.681,2.686 11.48,8.75 12.521,8.75 15.319,2.686 
	16.681,3.314 "/>
<path style="fill:#333333;" d="M22.75,12h-1.5c0-2.652-1.142-5.181-3.132-6.938C16.429,3.571,14.256,2.75,12,2.75
	S7.571,3.571,5.881,5.062C3.892,6.819,2.75,9.348,2.75,12h-1.5c0-3.082,1.326-6.021,3.639-8.062C6.853,2.205,9.378,1.25,12,1.25
	s5.147,0.955,7.11,2.688C21.424,5.979,22.75,8.918,22.75,12z"/>
</svg>






