<?xml version="1.0" encoding="iso-8859-1"?>
<svg version="1.1" id="&#x56FE;&#x5C42;_1" xmlns="http://www.w3.org/2000/svg" xmlns:xlink="http://www.w3.org/1999/xlink" x="0px"
	 y="0px" viewBox="0 0 24 24" style="enable-background:new 0 0 24 24;" xml:space="preserve">
<path style="fill:#333333;" d="M12.018,22.748c-4.184,0-8.171-2.46-9.91-6.55c-1.123-2.641-1.148-5.561-0.07-8.224
	C3.114,5.314,5.161,3.23,7.803,2.107c2.642-1.123,5.562-1.147,8.226-0.07c2.662,1.077,4.746,3.125,5.866,5.766
	c2.312,5.452-0.243,11.773-5.696,14.09l0,0C14.834,22.474,13.415,22.748,12.018,22.748z M11.998,2.748
	c-1.225,0-2.448,0.247-3.608,0.74C6.116,4.454,4.354,6.247,3.427,8.537C2.5,10.828,2.522,13.34,3.488,15.61
	c1.997,4.697,7.437,6.894,12.125,4.902l0,0c4.692-1.994,6.892-7.433,4.901-12.124c-0.964-2.273-2.757-4.035-5.048-4.961
	C14.345,2.974,13.17,2.748,11.998,2.748z"/>
<path style="fill:#333333;" d="M11.602,12.636c-3.388-2.126-5.13-6.061-4.335-9.792l1.467,0.312
	c-0.665,3.118,0.809,6.417,3.665,8.208L11.602,12.636z"/>
<path style="fill:#333333;" d="M6.231,20.714l-0.463-1.428c3.16-1.024,5.363-3.963,5.482-7.312l1.5,0.053
	C12.608,16.004,9.989,19.495,6.231,20.714z"/>
<path style="fill:#333333;" d="M21.512,13.069c-2.53-2.169-6.747-1.98-9.102-0.441l-0.821-1.256
	c3.206-2.096,8.095-1.847,10.899,0.559L21.512,13.069z"/>
<path style="fill:#333333;" d="M8.943,8.605l-0.887-1.21c0.251-0.185,6.23-4.484,12.791-1.061l-0.693,1.33
	C14.438,4.683,9.165,8.443,8.943,8.605z"/>
<path style="fill:#333333;" d="M9.721,17.196C9.449,17.087,3.062,14.44,2.75,7.032L4.25,6.968c0.27,6.422,5.796,8.741,6.031,8.836
	L9.721,17.196z"/>
<path style="fill:#333333;" d="M12.263,22.647l-0.805-1.266c5.464-3.475,4.804-10.234,4.796-10.302l1.492-0.16
	C17.779,11.235,18.504,18.679,12.263,22.647z"/>
</svg>






