<?xml version="1.0" encoding="utf-8"?>
<svg version="1.1" id="&#x56FE;&#x5C42;_1" xmlns="http://www.w3.org/2000/svg" xmlns:xlink="http://www.w3.org/1999/xlink" x="0px" y="0px"
	 viewBox="0 0 24 24" style="enable-background:new 0 0 24 24;" xml:space="preserve">
<style type="text/css">
	.st0{fill:#333333;filter:url(#Adobe_OpacityMaskFilter);}
	.st1{mask:url(#icon-71e91a84e6a0e536_00000074443767694924214850000010840611308090514867_);}
	.st2{fill:#333333;}
</style>
<defs>
	<filter id="Adobe_OpacityMaskFilter" filterUnits="userSpaceOnUse" x="15.6" y="9.6" width="5.3" height="5.3">
		<feColorMatrix  type="matrix" values="1 0 0 0 0  0 1 0 0 0  0 0 1 0 0  0 0 0 1 0"/>
	</filter>
</defs>
<mask maskUnits="userSpaceOnUse" x="15.6" y="9.6" width="5.3" height="5.3" id="icon-71e91a84e6a0e536_00000074443767694924214850000010840611308090514867_">
	<rect x="15" y="9" class="st0" width="6.5" height="6.5"/>
</mask>
<g class="st1">
	<rect x="15.2" y="11.5" transform="matrix(0.7071 -0.7071 0.7071 0.7071 -3.3281 16.4936)" class="st2" width="6" height="1.5"/>
	<rect x="17.5" y="9.3" transform="matrix(0.7071 -0.7071 0.7071 0.7071 -3.3276 16.4939)" class="st2" width="1.5" height="6"/>
</g>
<path class="st2" d="M12.8,21.8H12c-3.3,0-5.8-3.4-6.5-4.6H3c-1,0-1.8-0.8-1.8-1.8V8.5c0-1,0.8-1.8,1.8-1.8h2.5
	C6.2,5.6,8.7,2.2,12,2.2h0.8V21.8z M3,8.3c-0.1,0-0.2,0.1-0.2,0.2v6.9c0,0.1,0.1,0.2,0.2,0.2h3.3L6.6,16c0,0,2,3.5,4.7,4.1V3.8
	c-2.7,0.6-4.7,4-4.7,4L6.3,8.3H3z"/>
</svg>





