<?xml version="1.0" encoding="iso-8859-1"?>
<svg version="1.1" id="&#x56FE;&#x5C42;_1" xmlns="http://www.w3.org/2000/svg" xmlns:xlink="http://www.w3.org/1999/xlink" x="0px"
	 y="0px" viewBox="0 0 24 24" style="enable-background:new 0 0 24 24;" xml:space="preserve">
<path style="fill:#333333;" d="M12.75,21.75H12c-3.296,0-5.771-3.412-6.521-4.58H3c-0.965,0-1.75-0.785-1.75-1.75V8.505
	c0-0.965,0.785-1.75,1.75-1.75h2.483C6.234,5.605,8.708,2.25,12,2.25h0.75V21.75z M3,8.255c-0.138,0-0.25,0.112-0.25,0.25v6.915
	c0,0.138,0.112,0.25,0.25,0.25h3.335l0.216,0.379c0.022,0.039,2.042,3.528,4.699,4.117V3.833C8.591,4.411,6.57,7.843,6.548,7.881
	L6.332,8.255L3,8.255z"/>
<path style="fill:#333333;" d="M16.5,17.06l-1-1.119c0.279-0.249,0.533-0.53,0.754-0.835c0.651-0.902,0.996-1.977,0.996-3.105
	c0-1.139-0.351-2.22-1.014-3.128C16.02,8.576,15.772,8.302,15.5,8.059l1-1.118c0.35,0.312,0.669,0.665,0.947,1.046
	C18.3,9.153,18.75,10.541,18.75,12c0,1.446-0.442,2.824-1.28,3.984C17.186,16.377,16.859,16.738,16.5,17.06z"/>
<path style="fill:#333333;" d="M17.503,21.236l-0.77-1.287C19.52,18.286,21.25,15.24,21.25,12c0-3.229-1.642-6.172-4.391-7.873
	l0.789-1.275C20.843,4.828,22.75,8.248,22.75,12C22.75,15.766,20.739,19.305,17.503,21.236z"/>
</svg>






