<?xml version="1.0" encoding="iso-8859-1"?>
<svg version="1.1" id="&#x56FE;&#x5C42;_1" xmlns="http://www.w3.org/2000/svg" xmlns:xlink="http://www.w3.org/1999/xlink" x="0px"
	 y="0px" viewBox="0 0 24 24" style="enable-background:new 0 0 24 24;" xml:space="preserve">
<path style="fill:#333333;" d="M12.75,21.75H12c-3.296,0-5.771-3.412-6.521-4.58H3c-0.965,0-1.75-0.785-1.75-1.75V8.505
	c0-0.965,0.785-1.75,1.75-1.75h2.483C6.234,5.605,8.708,2.25,12,2.25h0.75V21.75z M3,8.255c-0.138,0-0.25,0.112-0.25,0.25v6.915
	c0,0.138,0.112,0.25,0.25,0.25h3.335l0.216,0.379c0.022,0.039,2.042,3.528,4.699,4.117V3.833C8.591,4.411,6.57,7.843,6.548,7.881
	L6.332,8.255L3,8.255z"/>
<rect x="16" y="11.25" style="fill:#333333;" width="6" height="1.5"/>
<rect x="18.25" y="9" style="fill:#333333;" width="1.5" height="6"/>
</svg>






