<?xml version="1.0" encoding="iso-8859-1"?>
<svg version="1.1" id="&#x56FE;&#x5C42;_1" xmlns="http://www.w3.org/2000/svg" xmlns:xlink="http://www.w3.org/1999/xlink" x="0px"
	 y="0px" viewBox="0 0 24 24" style="enable-background:new 0 0 24 24;" xml:space="preserve">
<path style="fill:#333333;" d="M18,21.75H4.5c-1.241,0-2.25-1.01-2.25-2.25v-15c0-1.241,1.009-2.25,2.25-2.25H18
	c1.24,0,2.25,1.009,2.25,2.25V8h-1.5V4.5c0-0.414-0.337-0.75-0.75-0.75H4.5c-0.414,0-0.75,0.336-0.75,0.75v15
	c0,0.413,0.336,0.75,0.75,0.75H18c0.413,0,0.75-0.337,0.75-0.75V16h1.5v3.5C20.25,20.74,19.24,21.75,18,21.75z"/>
<path style="fill:#333333;" d="M19.5,16.75h-7c-1.241,0-2.25-1.01-2.25-2.25v-5c0-1.241,1.009-2.25,2.25-2.25h7
	c1.24,0,2.25,1.009,2.25,2.25v5C21.75,15.74,20.74,16.75,19.5,16.75z M12.5,8.75c-0.413,0-0.75,0.336-0.75,0.75v5
	c0,0.413,0.337,0.75,0.75,0.75h7c0.413,0,0.75-0.337,0.75-0.75v-5c0-0.414-0.337-0.75-0.75-0.75H12.5z"/>
<circle style="fill:#333333;" cx="15" cy="12" r="1"/>
</svg>






