<?xml version="1.0" encoding="iso-8859-1"?>
<svg version="1.1" id="&#x56FE;&#x5C42;_1" xmlns="http://www.w3.org/2000/svg" xmlns:xlink="http://www.w3.org/1999/xlink" x="0px"
	 y="0px" viewBox="0 0 24 24" style="enable-background:new 0 0 24 24;" xml:space="preserve">
<path style="fill:#333333;" d="M20.5,20.25h-17c-0.965,0-1.75-0.785-1.75-1.75v-11c0-0.965,0.785-1.75,1.75-1.75h17
	c0.965,0,1.75,0.785,1.75,1.75v11C22.25,19.465,21.465,20.25,20.5,20.25z M3.5,7.25c-0.138,0-0.25,0.112-0.25,0.25v11
	c0,0.138,0.112,0.25,0.25,0.25h17c0.138,0,0.25-0.112,0.25-0.25v-11c0-0.138-0.112-0.25-0.25-0.25H3.5z"/>
<path style="fill:#333333;" d="M22.25,16.25h-10.5v-7h10.5V16.25z M13.25,14.75h7.5v-4h-7.5V14.75z"/>
<rect x="20.75" y="9" style="fill:#333333;" width="1.5" height="7.5"/>
<path style="fill:#333333;" d="M16.75,6.5h-1.5c0-2.187-1.571-2.25-1.75-2.25H6.25c-1.458,0-1.5,1.256-1.5,1.399V6.5h-1.5V5.649
	c0-1.166,0.799-2.899,3-2.899h7.25C14.624,2.75,16.75,3.534,16.75,6.5z"/>
<circle style="fill:#333333;" cx="16.75" cy="12.75" r="0.75"/>
</svg>






