<?xml version="1.0" encoding="iso-8859-1"?>
<svg version="1.1" id="&#x56FE;&#x5C42;_1" xmlns="http://www.w3.org/2000/svg" xmlns:xlink="http://www.w3.org/1999/xlink" x="0px"
	 y="0px" viewBox="0 0 24 24" style="enable-background:new 0 0 24 24;" xml:space="preserve">
<path style="fill:#333333;" d="M18.197,6.745L8.99,6.734L8.616,5.335l7.551-4.359l2.681,4.644L18.197,6.745z M11.785,5.237
	l5.113,0.006l-1.28-2.219L11.785,5.237z"/>
<path style="fill:#333333;" d="M21,22.75H3c-0.965,0-1.75-0.785-1.75-1.75V7c0-0.965,0.785-1.75,1.75-1.75h18
	c0.965,0,1.75,0.785,1.75,1.75v14C22.75,21.965,21.965,22.75,21,22.75z M3,6.75C2.862,6.75,2.75,6.862,2.75,7v14
	c0,0.138,0.112,0.25,0.25,0.25h18c0.138,0,0.25-0.112,0.25-0.25V7c0-0.138-0.112-0.25-0.25-0.25H3z"/>
<path style="fill:#333333;" d="M22.75,17.25h-5.125c-1.861,0-3.375-1.458-3.375-3.25s1.514-3.25,3.375-3.25h5.125V17.25z
	 M17.625,12.25c-1.034,0-1.875,0.785-1.875,1.75s0.841,1.75,1.875,1.75h3.625v-3.5H17.625z"/>
<rect x="21.25" y="8.25" style="fill:#333333;" width="1.5" height="12"/>
</svg>






