<?xml version="1.0" encoding="iso-8859-1"?>
<svg version="1.1" id="&#x56FE;&#x5C42;_1" xmlns="http://www.w3.org/2000/svg" xmlns:xlink="http://www.w3.org/1999/xlink" x="0px"
	 y="0px" viewBox="0 0 24 24" style="enable-background:new 0 0 24 24;" xml:space="preserve">
<rect x="9" y="11.25" style="fill:#333333;" width="8" height="1.5"/>
<polygon style="fill:#333333;" points="11.47,15.53 7.939,12 11.47,8.47 12.53,9.53 10.061,12 12.53,14.47 "/>
<path style="fill:#333333;" d="M19,14.75c-1.517,0-2.75-1.233-2.75-2.75S17.483,9.25,19,9.25s2.75,1.233,2.75,2.75
	S20.517,14.75,19,14.75z M19,10.75c-0.689,0-1.25,0.561-1.25,1.25s0.561,1.25,1.25,1.25s1.25-0.561,1.25-1.25S19.689,10.75,19,10.75
	z"/>
<path style="fill:#333333;" d="M12,22.75C6.072,22.75,1.25,17.928,1.25,12S6.072,1.25,12,1.25c2.831,0,5.504,1.091,7.525,3.073
	c0.547,0.537,1.035,1.13,1.453,1.765l-1.252,0.825c-0.36-0.546-0.781-1.057-1.252-1.519C16.735,3.689,14.437,2.75,12,2.75
	c-5.101,0-9.25,4.149-9.25,9.25s4.149,9.25,9.25,9.25c2.437,0,4.736-0.938,6.475-2.644c0.471-0.462,0.892-0.973,1.252-1.519
	l1.252,0.824c-0.418,0.635-0.906,1.229-1.453,1.765C17.504,21.659,14.832,22.75,12,22.75z"/>
</svg>






