<?xml version="1.0" encoding="iso-8859-1"?>
<svg version="1.1" id="&#x56FE;&#x5C42;_1" xmlns="http://www.w3.org/2000/svg" xmlns:xlink="http://www.w3.org/1999/xlink" x="0px"
	 y="0px" viewBox="0 0 24 24" style="enable-background:new 0 0 24 24;" xml:space="preserve">
<path style="fill:#333333;" d="M19,22.75H5c-0.965,0-1.75-0.785-1.75-1.75V3c0-0.965,0.785-1.75,1.75-1.75h14
	c0.965,0,1.75,0.785,1.75,1.75v18C20.75,21.965,19.965,22.75,19,22.75z M5,2.75C4.862,2.75,4.75,2.862,4.75,3v18
	c0,0.138,0.112,0.25,0.25,0.25h14c0.138,0,0.25-0.112,0.25-0.25V3c0-0.138-0.112-0.25-0.25-0.25H5z"/>
<path style="fill:#333333;" d="M19,7.75H5C4.035,7.75,3.25,6.965,3.25,6V3c0-0.965,0.785-1.75,1.75-1.75h14
	c0.965,0,1.75,0.785,1.75,1.75v3C20.75,6.965,19.965,7.75,19,7.75z M5,2.75C4.862,2.75,4.75,2.862,4.75,3v3
	c0,0.138,0.112,0.25,0.25,0.25h14c0.138,0,0.25-0.112,0.25-0.25V3c0-0.138-0.112-0.25-0.25-0.25H5z"/>
<circle style="fill:#333333;" cx="7" cy="4.5" r="1"/>
<circle style="fill:#333333;" cx="10" cy="4.5" r="1"/>
<path style="fill:#333333;" d="M12,18.75c-2.343,0-4.25-1.906-4.25-4.25s1.907-4.25,4.25-4.25c2.344,0,4.25,1.906,4.25,4.25
	S14.344,18.75,12,18.75z M12,11.75c-1.517,0-2.75,1.233-2.75,2.75s1.233,2.75,2.75,2.75s2.75-1.233,2.75-2.75S13.517,11.75,12,11.75
	z"/>
</svg>






