<?xml version="1.0" encoding="iso-8859-1"?>
<svg version="1.1" id="&#x56FE;&#x5C42;_1" xmlns="http://www.w3.org/2000/svg" xmlns:xlink="http://www.w3.org/1999/xlink" x="0px"
	 y="0px" viewBox="0 0 24 24" style="enable-background:new 0 0 24 24;" xml:space="preserve">
<polygon style="fill:#333333;" points="16.056,22.75 7.944,22.75 5.805,15.719 7.239,15.281 9.056,21.25 14.944,21.25 
	16.761,15.281 18.196,15.719 "/>
<polygon style="fill:#333333;" points="16.761,8.718 14.944,2.75 9.056,2.75 7.239,8.718 5.805,8.282 7.944,1.25 16.056,1.25 
	18.196,8.282 "/>
<path style="fill:#333333;" d="M12,19.25c-2.484,0-4.769-1.251-6.11-3.346C5.145,14.739,4.75,13.389,4.75,12
	c0-1.389,0.395-2.74,1.141-3.904C7.231,6,9.515,4.75,12,4.75c2.484,0,4.769,1.25,6.11,3.346c0.745,1.165,1.14,2.515,1.14,3.904
	c0,1.389-0.395,2.738-1.14,3.904C16.769,17.999,14.484,19.25,12,19.25z M12,6.25c-1.971,0-3.783,0.992-4.846,2.654
	C6.562,9.828,6.25,10.898,6.25,12c0,1.102,0.312,2.172,0.904,3.096C8.218,16.758,10.029,17.75,12,17.75s3.782-0.992,4.847-2.654
	c0.591-0.924,0.903-1.994,0.903-3.096c0-1.102-0.312-2.172-0.903-3.096C15.782,7.242,13.971,6.25,12,6.25z"/>
<polygon style="fill:#333333;" points="13.47,14.53 11.25,12.311 11.25,8.5 12.75,8.5 12.75,11.689 14.53,13.47 "/>
</svg>






