<?xml version="1.0" encoding="iso-8859-1"?>
<svg version="1.1" id="&#x56FE;&#x5C42;_1" xmlns="http://www.w3.org/2000/svg" xmlns:xlink="http://www.w3.org/1999/xlink" x="0px"
	 y="0px" viewBox="0 0 24 24" style="enable-background:new 0 0 24 24;" xml:space="preserve">
<path style="fill:#333333;" d="M12,22.75C6.072,22.75,1.25,17.928,1.25,12h1.5c0,0.965,0.785,1.75,1.75,1.75S6.25,12.965,6.25,12
	h1.5c0,0.965,0.785,1.75,1.75,1.75s1.75-0.785,1.75-1.75h1.5c0,0.965,0.785,1.75,1.75,1.75s1.75-0.785,1.75-1.75h1.5
	c0,0.965,0.785,1.75,1.75,1.75s1.75-0.785,1.75-1.75h1.5C22.75,17.928,17.928,22.75,12,22.75z M3.249,15
	c1.249,3.633,4.7,6.25,8.751,6.25c4.051,0,7.502-2.617,8.751-6.25c-0.386,0.161-0.808,0.25-1.251,0.25
	c-1.004,0-1.903-0.458-2.5-1.176c-0.597,0.718-1.496,1.176-2.5,1.176s-1.903-0.458-2.5-1.176c-0.597,0.718-1.496,1.176-2.5,1.176
	S7.597,14.792,7,14.074c-0.597,0.718-1.496,1.176-2.5,1.176C4.057,15.25,3.634,15.161,3.249,15z"/>
<rect x="11.25" y="1.464" transform="matrix(0.7071 -0.7071 0.7071 0.7071 -0.0208 9.9497)" style="fill:#333333;" width="1.5" height="7.071"/>
<rect x="8.464" y="4.25" transform="matrix(0.7071 -0.7071 0.7071 0.7071 -0.0208 9.9497)" style="fill:#333333;" width="7.071" height="1.5"/>
</svg>






