<?xml version="1.0" encoding="iso-8859-1"?>
<svg version="1.1" id="&#x56FE;&#x5C42;_1" xmlns="http://www.w3.org/2000/svg" xmlns:xlink="http://www.w3.org/1999/xlink" x="0px"
	 y="0px" viewBox="0 0 24 24" style="enable-background:new 0 0 24 24;" xml:space="preserve">
<path style="fill:#333333;" d="M12,22.75c-4.549,0-8.25-3.701-8.25-8.25c0-7.296,7.488-12.871,7.807-13.105L12,1.07l0.443,0.325
	C12.763,1.629,20.25,7.204,20.25,14.5C20.25,19.049,16.549,22.75,12,22.75z M12,2.956C10.432,4.246,5.25,8.93,5.25,14.5
	c0,3.722,3.028,6.75,6.75,6.75c3.722,0,6.75-3.028,6.75-6.75C18.75,8.93,13.568,4.246,12,2.956z"/>
<path style="fill:#333333;" d="M12,22.75c-4.549,0-8.25-3.701-8.25-8.25v-0.541l0.513-0.171c0.195-0.064,4.833-1.58,8.072,0.041
	c2.682,1.341,6.888-0.026,6.929-0.041l0.985-0.326L20.25,14.5C20.25,19.049,16.549,22.75,12,22.75z M5.273,15.059
	C5.558,18.52,8.466,21.25,12,21.25c3.382,0,6.19-2.499,6.676-5.748c-1.597,0.372-4.669,0.84-7.011-0.331
	C9.553,14.114,6.497,14.739,5.273,15.059z"/>
</svg>






