<?xml version="1.0" encoding="iso-8859-1"?>
<svg version="1.1" id="&#x56FE;&#x5C42;_1" xmlns="http://www.w3.org/2000/svg" xmlns:xlink="http://www.w3.org/1999/xlink" x="0px"
	 y="0px" viewBox="0 0 24 24" style="enable-background:new 0 0 24 24;" xml:space="preserve">
<path style="fill:#333333;" d="M19.5,19.25c-0.548,0-1.096-0.139-1.606-0.414c-0.576-0.312-1.211-0.312-1.787,0
	c-1.02,0.551-2.193,0.551-3.213,0c-0.576-0.312-1.21-0.312-1.787,0c-1.021,0.551-2.192,0.551-3.214,0
	c-0.576-0.312-1.21-0.312-1.786,0c-1.021,0.551-2.192,0.551-3.214,0l-1.25-0.676l0.713-1.32l1.25,0.676
	c0.576,0.312,1.21,0.312,1.787,0c1.021-0.551,2.192-0.551,3.214,0c0.576,0.312,1.21,0.312,1.786,0c1.021-0.551,2.193-0.552,3.213,0
	c0.576,0.312,1.211,0.312,1.787,0c1.02-0.551,2.193-0.551,3.213,0c0.576,0.312,1.211,0.312,1.787,0l1.25-0.676l0.713,1.32
	l-1.25,0.676C20.597,19.111,20.048,19.25,19.5,19.25z"/>
<path style="fill:#333333;" d="M19.5,22.25c-0.548,0-1.096-0.139-1.606-0.414c-0.576-0.312-1.211-0.312-1.787,0
	c-1.02,0.551-2.193,0.551-3.213,0c-0.576-0.312-1.21-0.312-1.787,0c-1.021,0.551-2.192,0.551-3.214,0
	c-0.576-0.312-1.21-0.312-1.786,0c-1.021,0.551-2.192,0.551-3.214,0l-1.25-0.676l0.713-1.32l1.25,0.676
	c0.576,0.312,1.21,0.312,1.787,0c1.021-0.551,2.192-0.551,3.214,0c0.576,0.312,1.21,0.312,1.786,0c1.021-0.552,2.193-0.552,3.213,0
	c0.576,0.312,1.211,0.312,1.787,0c1.02-0.551,2.193-0.551,3.213,0c0.576,0.312,1.211,0.312,1.787,0l1.25-0.676l0.713,1.32
	l-1.25,0.676C20.597,22.111,20.048,22.25,19.5,22.25z"/>
<path style="fill:#333333;" d="M12.5,9.75c-1.792,0-3.25-1.458-3.25-3.25s1.458-3.25,3.25-3.25s3.25,1.458,3.25,3.25
	S14.292,9.75,12.5,9.75z M12.5,4.75c-0.965,0-1.75,0.785-1.75,1.75s0.785,1.75,1.75,1.75s1.75-0.785,1.75-1.75
	S13.465,4.75,12.5,4.75z"/>
<rect x="11.5" y="12.469" transform="matrix(0.9701 -0.2425 0.2425 0.9701 -2.9085 3.3741)" style="fill:#333333;" width="1.5" height="2.062"/>
<polygon style="fill:#333333;" points="21,13.215 11.835,13.196 5.335,11.731 4.867,11.403 1.367,5.903 2.633,5.097 5.967,10.336 
	12.083,11.715 21,11.715 "/>
<path style="fill:#333333;" d="M5.5,5C6.328,5,7,4.328,7,3.5S6.328,2,5.5,2C4.672,2,4,2.672,4,3.5S4.672,5,5.5,5z"/>
</svg>






