<?xml version="1.0" encoding="iso-8859-1"?>
<svg version="1.1" id="&#x56FE;&#x5C42;_1" xmlns="http://www.w3.org/2000/svg" xmlns:xlink="http://www.w3.org/1999/xlink" x="0px"
	 y="0px" viewBox="0 0 24 24" style="enable-background:new 0 0 24 24;" xml:space="preserve">
<path style="fill:#333333;" d="M12,22.75c-4.825,0-8.75-3.599-8.75-8.022c0-4.151,2.78-8.625,8.264-13.298L12,1.015l0.486,0.415
	c5.483,4.673,8.264,9.147,8.264,13.298C20.75,19.151,16.825,22.75,12,22.75z M12,2.991c-4.812,4.217-7.25,8.163-7.25,11.736
	c0,3.597,3.252,6.522,7.25,6.522c3.998,0,7.25-2.926,7.25-6.522C19.25,11.155,16.812,7.208,12,2.991z"/>
<polygon style="fill:#333333;" points="12,13.269 8.887,10.019 9.97,8.981 12,11.1 14.029,8.981 15.113,10.019 "/>
<rect x="9" y="12.329" style="fill:#333333;" width="6" height="1.5"/>
<rect x="9" y="15.014" style="fill:#333333;" width="6" height="1.5"/>
<rect x="11.25" y="13.079" style="fill:#333333;" width="1.5" height="4.921"/>
</svg>






