<?xml version="1.0" encoding="iso-8859-1"?>
<svg version="1.1" id="&#x56FE;&#x5C42;_1" xmlns="http://www.w3.org/2000/svg" xmlns:xlink="http://www.w3.org/1999/xlink" x="0px"
	 y="0px" viewBox="0 0 24 24" style="enable-background:new 0 0 24 24;" xml:space="preserve">
<path style="fill:#333333;" d="M12,22.75c-4.825,0-8.75-3.925-8.75-8.75c0-6.816,7.985-12.384,8.325-12.618L12,1.09l0.425,0.292
	C12.765,1.616,20.75,7.184,20.75,14C20.75,18.825,16.825,22.75,12,22.75z M12,2.931C10.388,4.155,4.75,8.811,4.75,14
	c0,3.998,3.252,7.25,7.25,7.25c3.998,0,7.25-3.252,7.25-7.25C19.25,8.811,13.612,4.155,12,2.931z"/>
<polygon style="fill:#333333;" points="12.671,18.335 11.329,17.665 12.786,14.75 8.787,14.75 11.329,9.665 12.671,10.335 
	11.213,13.25 15.214,13.25 "/>
</svg>






