<?xml version="1.0" encoding="iso-8859-1"?>
<svg version="1.1" id="&#x56FE;&#x5C42;_1" xmlns="http://www.w3.org/2000/svg" xmlns:xlink="http://www.w3.org/1999/xlink" x="0px"
	 y="0px" viewBox="0 0 24 24" style="enable-background:new 0 0 24 24;" xml:space="preserve">
<path style="fill:#333333;" d="M20.5,20.75h-17c-1.241,0-2.25-1.01-2.25-2.25v-13c0-1.241,1.009-2.25,2.25-2.25h17
	c1.24,0,2.25,1.009,2.25,2.25v13C22.75,19.74,21.74,20.75,20.5,20.75z M3.5,4.75c-0.414,0-0.75,0.336-0.75,0.75v13
	c0,0.413,0.336,0.75,0.75,0.75h17c0.413,0,0.75-0.337,0.75-0.75v-13c0-0.414-0.337-0.75-0.75-0.75H3.5z"/>
<path style="fill:#333333;" d="M22.75,10.75H1.25V5.5c0-1.241,1.009-2.25,2.25-2.25h17c1.24,0,2.25,1.009,2.25,2.25V10.75z
	 M2.75,9.25h18.5V5.5c0-0.414-0.337-0.75-0.75-0.75h-17c-0.414,0-0.75,0.336-0.75,0.75V9.25z"/>
<circle style="fill:#333333;" cx="5" cy="7" r="1"/>
<circle style="fill:#333333;" cx="8" cy="7" r="1"/>
</svg>






