<?xml version="1.0" encoding="iso-8859-1"?>
<svg version="1.1" id="&#x56FE;&#x5C42;_1" xmlns="http://www.w3.org/2000/svg" xmlns:xlink="http://www.w3.org/1999/xlink" x="0px"
	 y="0px" viewBox="0 0 24 24" style="enable-background:new 0 0 24 24;" xml:space="preserve">
<path style="fill:#333333;" d="M23.75,22.75H0.25V22c0-2.842,1.109-5.554,3.123-7.639l0.62-0.642l0.525,0.722
	C6.257,16.826,9.054,18.25,12,18.25s5.743-1.424,7.481-3.809l0.525-0.722l0.62,0.642c2.014,2.085,3.123,4.798,3.123,7.639V22.75z
	 M1.78,21.25H22.22c-0.152-1.896-0.881-3.699-2.102-5.203C18.087,18.381,15.115,19.75,12,19.75s-6.086-1.369-8.118-3.703
	C2.662,17.55,1.933,19.354,1.78,21.25z"/>
<path style="fill:#333333;" d="M12,15.75c-3.998,0-7.25-3.252-7.25-7.25c0-3.998,3.252-7.25,7.25-7.25c3.998,0,7.25,3.252,7.25,7.25
	C19.25,12.498,15.998,15.75,12,15.75z M12,2.75c-3.17,0-5.75,2.58-5.75,5.75s2.58,5.75,5.75,5.75c3.171,0,5.75-2.58,5.75-5.75
	S15.171,2.75,12,2.75z"/>
<path style="fill:#333333;" d="M12,11.75c-1.792,0-3.25-1.458-3.25-3.25S10.208,5.25,12,5.25s3.25,1.458,3.25,3.25
	S13.792,11.75,12,11.75z M12,6.75c-0.965,0-1.75,0.785-1.75,1.75s0.785,1.75,1.75,1.75s1.75-0.785,1.75-1.75S12.965,6.75,12,6.75z"
	/>
</svg>






