<?xml version="1.0" encoding="iso-8859-1"?>
<svg version="1.1" id="&#x56FE;&#x5C42;_1" xmlns="http://www.w3.org/2000/svg" xmlns:xlink="http://www.w3.org/1999/xlink" x="0px"
	 y="0px" viewBox="0 0 24 24" style="enable-background:new 0 0 24 24;" xml:space="preserve">
<path style="fill:#333333;" d="M12,14.25c-1.792,0-3.25-1.458-3.25-3.25S10.208,7.75,12,7.75s3.25,1.458,3.25,3.25
	S13.792,14.25,12,14.25z M12,9.25c-0.965,0-1.75,0.785-1.75,1.75s0.785,1.75,1.75,1.75s1.75-0.785,1.75-1.75S12.965,9.25,12,9.25z"
	/>
<rect x="2" y="3.75" style="fill:#333333;" width="20" height="1.5"/>
<rect x="1.25" y="2" style="fill:#333333;" width="1.5" height="5"/>
<rect x="21.25" y="2" style="fill:#333333;" width="1.5" height="5"/>
<polygon style="fill:#333333;" points="11.61,17.641 5.11,13.69 4.75,13.05 4.75,4.5 6.25,4.5 6.25,12.628 11.998,16.121 
	17.75,12.581 17.75,4.5 19.25,4.5 19.25,13 18.894,13.639 12.394,17.639 "/>
<rect x="11.25" y="17" style="fill:#333333;" width="1.5" height="5"/>
</svg>






