<?xml version="1.0" encoding="iso-8859-1"?>
<svg version="1.1" id="&#x56FE;&#x5C42;_1" xmlns="http://www.w3.org/2000/svg" xmlns:xlink="http://www.w3.org/1999/xlink" x="0px"
	 y="0px" viewBox="0 0 24 24" style="enable-background:new 0 0 24 24;" xml:space="preserve">
<path style="fill:#333333;" d="M20.5,22.75h-17c-1.241,0-2.25-1.01-2.25-2.25v-17c0-1.241,1.009-2.25,2.25-2.25h17
	c1.24,0,2.25,1.009,2.25,2.25v17C22.75,21.74,21.74,22.75,20.5,22.75z M3.5,2.75c-0.414,0-0.75,0.336-0.75,0.75v17
	c0,0.413,0.336,0.75,0.75,0.75h17c0.413,0,0.75-0.337,0.75-0.75v-17c0-0.414-0.337-0.75-0.75-0.75H3.5z"/>
<path style="fill:#333333;" d="M6.577,10.006L5.423,9.047C7.228,6.877,9.44,5.777,12,5.777c2.561,0,4.773,1.101,6.577,3.271
	l-1.154,0.959c-1.526-1.837-3.3-2.729-5.423-2.729C9.877,7.277,8.104,8.169,6.577,10.006z"/>
<path style="fill:#333333;" d="M12,15.5c0.828,0,1.5-0.672,1.5-1.5s-0.672-1.5-1.5-1.5s-1.5,0.672-1.5,1.5S11.172,15.5,12,15.5z"/>
<rect x="10.002" y="10.098" transform="matrix(0.8133 -0.5818 0.5818 0.8133 -5.1202 8.543)" style="fill:#333333;" width="1.5" height="4.304"/>
</svg>






