<?xml version="1.0" encoding="iso-8859-1"?>
<svg version="1.1" id="&#x56FE;&#x5C42;_1" xmlns="http://www.w3.org/2000/svg" xmlns:xlink="http://www.w3.org/1999/xlink" x="0px"
	 y="0px" viewBox="0 0 24 24" style="enable-background:new 0 0 24 24;" xml:space="preserve">
<path style="fill:#333333;" d="M12,23.085l-3.991-4.173L2.4,17.543L4.019,12L2.4,6.458l5.609-1.37L12,0.915l3.991,4.173l5.608,1.37
	L19.981,12l1.618,5.543l-5.608,1.369L12,23.085z M4.28,16.457l4.511,1.102L12,20.915l3.21-3.356l4.511-1.102L18.419,12l1.302-4.458
	L15.21,6.441L12,3.085L8.791,6.441L4.28,7.542L5.582,12L4.28,16.457z"/>
<path style="fill:#333333;" d="M16.179,19.238L12,17.099l-4.179,2.14l-0.236-4.689L3.641,12l3.943-2.549l0.236-4.689L12,6.901
	l4.179-2.14l0.236,4.689L20.359,12l-3.944,2.549L16.179,19.238z M6.404,12l2.64,1.707l0.158,3.139L12,15.413l2.798,1.433
	l0.158-3.139L17.596,12l-2.64-1.707l-0.158-3.14L12,8.586L9.202,7.154l-0.158,3.14L6.404,12z"/>
</svg>






