<?xml version="1.0" encoding="iso-8859-1"?>
<svg version="1.1" id="&#x56FE;&#x5C42;_1" xmlns="http://www.w3.org/2000/svg" xmlns:xlink="http://www.w3.org/1999/xlink" x="0px"
	 y="0px" viewBox="0 0 24 24" style="enable-background:new 0 0 24 24;" xml:space="preserve">
<path style="fill:#333333;" d="M9,22.75c-3.722,0-6.75-3.028-6.75-6.75c0-2.631,1.545-5.04,3.937-6.138l0.626,1.363
	C4.952,12.08,3.75,13.954,3.75,16c0,2.895,2.355,5.25,5.25,5.25c2.397,0,4.487-1.619,5.084-3.937l1.453,0.373
	C14.77,20.668,12.082,22.75,9,22.75z"/>
<polygon style="fill:#333333;" points="20.5,20.75 18.427,20.75 16.938,15.289 9.334,15.796 8.254,6.083 9.746,5.917 10.666,14.204 
	18.062,13.711 19.573,19.25 20.5,19.25 "/>
<path style="fill:#333333;" d="M9,6.75C7.483,6.75,6.25,5.517,6.25,4S7.483,1.25,9,1.25S11.75,2.483,11.75,4S10.517,6.75,9,6.75z
	 M9,2.75C8.311,2.75,7.75,3.311,7.75,4S8.311,5.25,9,5.25S10.25,4.689,10.25,4S9.689,2.75,9,2.75z"/>
<rect x="12.5" y="9.25" style="fill:#333333;" width="4" height="1.5"/>
</svg>






