<?xml version="1.0" encoding="iso-8859-1"?>
<svg version="1.1" id="&#x56FE;&#x5C42;_1" xmlns="http://www.w3.org/2000/svg" xmlns:xlink="http://www.w3.org/1999/xlink" x="0px"
	 y="0px" viewBox="0 0 24 24" style="enable-background:new 0 0 24 24;" xml:space="preserve">
<path style="fill:#333333;" d="M12,15.25c-1.792,0-3.25-1.458-3.25-3.25S10.208,8.75,12,8.75s3.25,1.458,3.25,3.25
	S13.792,15.25,12,15.25z M12,10.25c-0.965,0-1.75,0.785-1.75,1.75s0.785,1.75,1.75,1.75s1.75-0.785,1.75-1.75S12.965,10.25,12,10.25
	z"/>
<path style="fill:#333333;" d="M11.75,22.75c-3.86,0-7-3.141-7-7c0-3.86,3.14-7,7-7v1.5c-3.033,0-5.5,2.468-5.5,5.5
	s2.467,5.5,5.5,5.5V22.75z"/>
<path style="fill:#333333;" d="M15.75,18.75c-3.86,0-7-3.141-7-7h1.5c0,3.032,2.468,5.5,5.5,5.5s5.5-2.468,5.5-5.5h1.5
	C22.75,15.609,19.609,18.75,15.75,18.75z"/>
<path style="fill:#333333;" d="M11.75,15.25v-1.5c3.032,0,5.5-2.467,5.5-5.5s-2.468-5.5-5.5-5.5v-1.5c3.859,0,7,3.14,7,7
	C18.75,12.109,15.609,15.25,11.75,15.25z"/>
<path style="fill:#333333;" d="M15.25,11.75h-1.5c0-3.033-2.467-5.5-5.5-5.5s-5.5,2.467-5.5,5.5h-1.5c0-3.86,3.14-7,7-7
	C12.109,4.75,15.25,7.89,15.25,11.75z"/>
</svg>






