<?xml version="1.0" encoding="iso-8859-1"?>
<svg version="1.1" id="&#x56FE;&#x5C42;_1" xmlns="http://www.w3.org/2000/svg" xmlns:xlink="http://www.w3.org/1999/xlink" x="0px"
	 y="0px" viewBox="0 0 24 24" style="enable-background:new 0 0 24 24;" xml:space="preserve">
<path style="fill:#333333;" d="M13.5,19.25c-3.998,0-7.25-3.252-7.25-7.25c0-0.597,0.071-1.182,0.213-1.75H2L1.25,9.5v-4L2,4.75
	h11.5c3.998,0,7.25,3.252,7.25,7.25C20.75,15.998,17.498,19.25,13.5,19.25z M2.75,8.75H7.5l0.691,1.04
	C7.895,10.498,7.75,11.221,7.75,12c0,3.171,2.58,5.75,5.75,5.75c3.171,0,5.75-2.579,5.75-5.75c0-3.17-2.579-5.75-5.75-5.75H2.75
	V8.75z"/>
<rect x="12.75" y="5.5" style="fill:#333333;" width="1.5" height="3"/>
<rect x="20" y="11.25" style="fill:#333333;" width="2" height="1.5"/>
</svg>






