<?xml version="1.0" encoding="iso-8859-1"?>
<svg version="1.1" id="&#x56FE;&#x5C42;_1" xmlns="http://www.w3.org/2000/svg" xmlns:xlink="http://www.w3.org/1999/xlink" x="0px"
	 y="0px" viewBox="0 0 24 24" style="enable-background:new 0 0 24 24;" xml:space="preserve">
<path style="fill:#333333;" d="M11,22.75c-1.517,0-2.75-1.233-2.75-2.75s1.233-2.75,2.75-2.75s2.75,1.233,2.75,2.75
	S12.517,22.75,11,22.75z M11,18.75c-0.689,0-1.25,0.561-1.25,1.25s0.561,1.25,1.25,1.25s1.25-0.561,1.25-1.25S11.689,18.75,11,18.75
	z"/>
<path style="fill:#333333;" d="M13,6.75c-1.517,0-2.75-1.233-2.75-2.75S11.483,1.25,13,1.25S15.75,2.483,15.75,4
	S14.517,6.75,13,6.75z M13,2.75c-0.689,0-1.25,0.561-1.25,1.25S12.311,5.25,13,5.25S14.25,4.689,14.25,4S13.689,2.75,13,2.75z"/>
<path style="fill:#333333;" d="M18,14.75c-1.517,0-2.75-1.233-2.75-2.75S16.483,9.25,18,9.25s2.75,1.233,2.75,2.75
	S19.517,14.75,18,14.75z M18,10.75c-0.689,0-1.25,0.561-1.25,1.25s0.561,1.25,1.25,1.25s1.25-0.561,1.25-1.25S18.689,10.75,18,10.75
	z"/>
<path style="fill:#333333;" d="M6,14.75c-1.517,0-2.75-1.233-2.75-2.75S4.483,9.25,6,9.25S8.75,10.483,8.75,12S7.517,14.75,6,14.75z
	 M6,10.75c-0.689,0-1.25,0.561-1.25,1.25S5.311,13.25,6,13.25S7.25,12.689,7.25,12S6.689,10.75,6,10.75z"/>
<rect x="8" y="11.25" style="fill:#333333;" width="8" height="1.5"/>
<rect x="6.298" y="7.25" transform="matrix(0.625 -0.7806 0.7806 0.625 -2.6825 10.4158)" style="fill:#333333;" width="6.403" height="1.5"/>
<rect x="11.298" y="15.25" transform="matrix(0.6249 -0.7807 0.7807 0.6249 -7.0524 17.3228)" style="fill:#333333;" width="6.404" height="1.501"/>
</svg>






