<?xml version="1.0" encoding="iso-8859-1"?>
<svg version="1.1" id="&#x56FE;&#x5C42;_1" xmlns="http://www.w3.org/2000/svg" xmlns:xlink="http://www.w3.org/1999/xlink" x="0px"
	 y="0px" viewBox="0 0 24 24" style="enable-background:new 0 0 24 24;" xml:space="preserve">
<path style="fill:#333333;" d="M2.516,10.027L1.484,8.938c0.309-0.293,0.628-0.57,0.955-0.833
	c5.925-4.756,14.556-4.399,20.077,0.833l-1.031,1.089C16.506,5.309,8.722,4.985,3.378,9.274C3.083,9.511,2.795,9.762,2.516,10.027z"
	/>
<path style="fill:#333333;" d="M18.47,13.43c-3.568-3.566-9.372-3.566-12.939,0L4.47,12.369c4.152-4.153,10.909-4.152,15.061,0
	L18.47,13.43z"/>
<path style="fill:#333333;" d="M15.47,16.688c-0.927-0.927-2.159-1.438-3.47-1.438s-2.543,0.511-3.47,1.438L7.47,15.627
	c1.21-1.211,2.819-1.877,4.53-1.877c1.712,0,3.32,0.666,4.53,1.877L15.47,16.688z"/>
<path style="fill-rule:evenodd;clip-rule:evenodd;fill:#333333;" d="M12,20c0.69,0,1.25-0.56,1.25-1.25S12.69,17.5,12,17.5
	s-1.25,0.56-1.25,1.25S11.31,20,12,20z"/>
</svg>






