<?xml version="1.0" encoding="iso-8859-1"?>
<svg version="1.1" id="&#x56FE;&#x5C42;_1" xmlns="http://www.w3.org/2000/svg" xmlns:xlink="http://www.w3.org/1999/xlink" x="0px"
	 y="0px" viewBox="0 0 24 24" style="enable-background:new 0 0 24 24;" xml:space="preserve">
<path style="fill:#333333;" d="M10.594,11.456H2.625V4.875l7.969-1.062V11.456z M4.125,9.956h4.969V5.525L4.125,6.188V9.956z"/>
<path style="fill:#333333;" d="M21.375,11.456h-9.694V3.762l9.694-1.239V11.456z M13.181,9.956h6.694V4.227l-6.694,0.855V9.956z"/>
<path style="fill:#333333;" d="M21.375,21.508l-9.694-1.588v-6.963l9.694,0.228V21.508z M13.181,18.646l6.694,1.096v-5.093
	l-6.694-0.157V18.646z"/>
<path style="fill:#333333;" d="M10.594,19.787l-7.969-1.344v-5.918l7.969,0.191V19.787z M4.125,17.176l4.969,0.838v-3.832
	l-4.969-0.119V17.176z"/>
</svg>






