<?xml version="1.0" encoding="iso-8859-1"?>
<svg version="1.1" id="&#x56FE;&#x5C42;_1" xmlns="http://www.w3.org/2000/svg" xmlns:xlink="http://www.w3.org/1999/xlink" x="0px"
	 y="0px" viewBox="0 0 24 24" style="enable-background:new 0 0 24 24;" xml:space="preserve">
<path style="fill:#333333;" d="M18,22.75H3.102l0.639-3.513l1.476,0.268L4.898,21.25H18V22.75z M18.808,19.634l-1.7-9.347
	l1.477-0.269l1.7,9.348L18.808,19.634z M6.056,14.884l-1.476-0.268l1.468-8.073l1.476,0.269L6.056,14.884z M16.521,7.058
	l-0.191-1.055L13.23,4.454c-0.771-0.386-1.69-0.386-2.46,0L9.026,5.326L8.355,3.984l1.744-0.872c1.19-0.595,2.612-0.595,3.801,0
	l3.771,1.885l0.326,1.792L16.521,7.058z"/>
<path style="fill:#333333;" d="M17,11.542c-0.32,0-0.641-0.122-0.884-0.366l-1.293-1.293c-0.487-0.487-0.487-1.28,0-1.768
	l4.293-4.293c0.486-0.487,1.281-0.487,1.768,0l1.293,1.293c0.487,0.487,0.487,1.28,0,1.768l-4.293,4.293
	C17.641,11.42,17.32,11.542,17,11.542z M16.061,9L17,9.939L20.939,6L20,5.061L16.061,9z"/>
<rect x="13.086" y="8.75" transform="matrix(0.7071 -0.7071 0.7071 0.7071 -2.4706 13.0355)" style="fill:#333333;" width="2.828" height="1.5"/>
<path style="fill:#333333;" d="M18,22.542c-0.32,0-0.641-0.121-0.884-0.365l-4.293-4.293c-0.487-0.487-0.487-1.28,0-1.768
	l1.293-1.293c0.486-0.488,1.281-0.488,1.768,0l4.293,4.293c0.487,0.487,0.487,1.28,0,1.768l-1.293,1.293
	C18.641,22.421,18.32,22.542,18,22.542z M14.061,17L18,20.939L18.939,20L15,16.061L14.061,17z"/>
<rect x="13.75" y="13.086" transform="matrix(0.7071 -0.7071 0.7071 0.7071 -6.0061 14.5)" style="fill:#333333;" width="1.5" height="2.828"/>
<path style="fill:#333333;" d="M4,20.542c-0.32,0-0.64-0.121-0.884-0.365l-1.293-1.293c-0.487-0.487-0.487-1.28,0-1.768l4.293-4.293
	c0.487-0.488,1.28-0.488,1.768,0l1.293,1.293c0.487,0.487,0.487,1.28,0,1.768l-4.293,4.293C4.64,20.421,4.32,20.542,4,20.542z
	 M3.061,18L4,18.939L7.939,15L7,14.061L3.061,18z"/>
<rect x="8.086" y="13.75" transform="matrix(0.7071 -0.7071 0.7071 0.7071 -7.4706 10.9645)" style="fill:#333333;" width="2.828" height="1.5"/>
<path style="fill:#333333;" d="M9,9.542c-0.32,0-0.64-0.122-0.884-0.366L3.823,4.884c-0.487-0.487-0.487-1.28,0-1.768l1.293-1.293
	c0.487-0.487,1.28-0.487,1.768,0l4.293,4.293c0.487,0.487,0.487,1.28,0,1.768L9.884,9.177C9.64,9.42,9.32,9.542,9,9.542z M5.061,4
	L9,7.939L9.939,7L6,3.061L5.061,4z"/>
<rect x="8.75" y="8.086" transform="matrix(0.7071 -0.7071 0.7071 0.7071 -3.935 9.5)" style="fill:#333333;" width="1.5" height="2.828"/>
<path style="fill:#333333;" d="M12,14.75c-1.517,0-2.75-1.233-2.75-2.75S10.483,9.25,12,9.25s2.75,1.233,2.75,2.75
	S13.517,14.75,12,14.75z M12,10.75c-0.689,0-1.25,0.561-1.25,1.25s0.561,1.25,1.25,1.25s1.25-0.561,1.25-1.25S12.689,10.75,12,10.75
	z"/>
</svg>






