<?xml version="1.0" encoding="iso-8859-1"?>
<svg version="1.1" id="&#x56FE;&#x5C42;_1" xmlns="http://www.w3.org/2000/svg" xmlns:xlink="http://www.w3.org/1999/xlink" x="0px"
	 y="0px" viewBox="0 0 24 24" style="enable-background:new 0 0 24 24;" xml:space="preserve">
<path style="fill:#333333;" d="M5.25,12.751V6.65l6.239-5.225l1.231,0.573l0.031,10.748L5.25,12.751z M6.75,7.35v3.899l4.498-0.003
	l-0.022-7.644L6.75,7.35z"/>
<path style="fill:#333333;" d="M11.254,12.752L11.25,5.25h6.101l5.225,6.239l-0.573,1.231L11.254,12.752z M12.751,6.75l0.003,4.498
	l7.644-0.022L16.649,6.75H12.751z"/>
<path style="fill:#333333;" d="M12.511,22.575l-1.231-0.573l-0.032-10.748l7.502-0.005v6.101L12.511,22.575z M12.752,12.754
	l0.022,7.644l4.476-3.748v-3.898L12.752,12.754z"/>
<path style="fill:#333333;" d="M12.751,18.75H6.65l-5.225-6.239l0.573-1.231l10.748-0.032L12.751,18.75z M7.35,17.25h3.899
	l-0.003-4.498l-7.644,0.022L7.35,17.25z"/>
</svg>






