<?xml version="1.0" encoding="iso-8859-1"?>
<svg version="1.1" id="&#x56FE;&#x5C42;_1" xmlns="http://www.w3.org/2000/svg" xmlns:xlink="http://www.w3.org/1999/xlink" x="0px"
	 y="0px" viewBox="0 0 24 24" style="enable-background:new 0 0 24 24;" xml:space="preserve">
<rect x="11.25" y="15" style="fill:#333333;" width="1.5" height="7"/>
<path style="fill:#333333;" d="M23.774,19.25H22.5c-0.248,0-5.917-0.044-10.5-3.766C7.417,19.206,1.748,19.25,1.5,19.25H0.287
	l0.542-1.085c0.104-0.209,2.551-5.002,7.926-7.182c0.127-6.34,2.562-9.335,2.668-9.463L12,0.829l0.576,0.691
	c0.106,0.128,2.552,3.135,2.669,9.502c5.357,2.602,7.807,6.926,7.91,7.114L23.774,19.25z M12,3.405
	c-0.689,1.292-1.75,3.954-1.75,8.095v0.525l-0.494,0.18c-3.516,1.278-5.761,3.89-6.836,5.427c1.977-0.258,5.642-1.08,8.582-3.692
	L12,13.496l0.498,0.443c2.905,2.582,6.501,3.415,8.493,3.684c-1.118-1.458-3.353-3.872-6.802-5.44l-0.439-0.2V11.5
	C13.75,7.359,12.689,4.698,12,3.405z"/>
<circle style="fill:#333333;" cx="12" cy="12" r="1"/>
</svg>






