<?xml version="1.0" encoding="iso-8859-1"?>
<svg version="1.1" id="&#x56FE;&#x5C42;_1" xmlns="http://www.w3.org/2000/svg" xmlns:xlink="http://www.w3.org/1999/xlink" x="0px"
	 y="0px" viewBox="0 0 24 24" style="enable-background:new 0 0 24 24;" xml:space="preserve">
<path style="fill:#333333;" d="M6,13.25H5c-1.517,0-2.75-1.233-2.75-2.75S3.483,7.75,5,7.75h1v1.5H5c-0.689,0-1.25,0.561-1.25,1.25
	S4.311,11.75,5,11.75h1V13.25z"/>
<path style="fill:#333333;" d="M11,21.25H9.5c-1.517,0-2.75-1.233-2.75-2.75s1.233-2.75,2.75-2.75H11v1.5H9.5
	c-0.689,0-1.25,0.561-1.25,1.25s0.561,1.25,1.25,1.25H11V21.25z"/>
<path style="fill:#333333;" d="M13.5,8.25H12c-1.517,0-2.75-1.233-2.75-2.75S10.483,2.75,12,2.75h1.5v1.5H12
	c-0.689,0-1.25,0.561-1.25,1.25S11.311,6.75,12,6.75h1.5V8.25z"/>
<rect x="12" y="6.75" style="fill:#333333;" width="8" height="1.5"/>
<rect x="6" y="11.75" style="fill:#333333;" width="15" height="1.5"/>
<rect x="11" y="15.75" style="fill:#333333;" width="6" height="1.5"/>
</svg>






