<?xml version="1.0" encoding="iso-8859-1"?>
<svg version="1.1" id="&#x56FE;&#x5C42;_1" xmlns="http://www.w3.org/2000/svg" xmlns:xlink="http://www.w3.org/1999/xlink" x="0px"
	 y="0px" viewBox="0 0 24 24" style="enable-background:new 0 0 24 24;" xml:space="preserve">
<path style="fill:#333333;" d="M12,22.75C6.072,22.75,1.25,17.928,1.25,12S6.072,1.25,12,1.25S22.75,6.072,22.75,12
	S17.928,22.75,12,22.75z M12,2.75c-5.101,0-9.25,4.149-9.25,9.25s4.149,9.25,9.25,9.25s9.25-4.149,9.25-9.25S17.101,2.75,12,2.75z"
	/>
<polygon style="fill:#333333;" points="15.97,12.53 13.439,10 15.97,7.47 17.03,8.53 15.561,10 17.03,11.47 "/>
<path style="fill:#333333;" d="M12,18.25c-2.93,0-4.122-2.316-4.171-2.415l1.342-0.67c0.031,0.06,0.846,1.585,2.829,1.585
	c1.983,0,2.798-1.525,2.832-1.591l1.339,0.676C16.121,15.934,14.93,18.25,12,18.25z"/>
<path style="fill:#333333;" d="M8.5,12.75c-1.517,0-2.75-1.233-2.75-2.75S6.983,7.25,8.5,7.25s2.75,1.233,2.75,2.75
	S10.017,12.75,8.5,12.75z M8.5,8.75c-0.689,0-1.25,0.561-1.25,1.25s0.561,1.25,1.25,1.25S9.75,10.689,9.75,10S9.189,8.75,8.5,8.75z"
	/>
</svg>






