<?xml version="1.0" encoding="iso-8859-1"?>
<svg version="1.1" id="&#x56FE;&#x5C42;_1" xmlns="http://www.w3.org/2000/svg" xmlns:xlink="http://www.w3.org/1999/xlink" x="0px"
	 y="0px" viewBox="0 0 24 24" style="enable-background:new 0 0 24 24;" xml:space="preserve">
<path style="fill:#333333;" d="M17.75,22.75H6.25v-6.5H2.006L5.398,4.377l0.42-0.105c1.386-0.346,2.664-2.037,3.04-2.659
	l0.219-0.362l5.855-0.001l0.218,0.375c0.373,0.642,1.638,2.368,2.998,2.64l0.448,0.089l3.398,11.896H17.75V22.75z M7.75,21.25h8.5
	v-6.5h3.756l-2.611-9.138c-1.601-0.545-2.814-2.129-3.307-2.862H9.904C9.411,3.46,8.199,5,6.61,5.594L3.994,14.75H7.75V21.25z"/>
<polygon style="fill:#333333;" points="12.706,9.252 11.293,9.252 8.793,2.252 10.207,1.748 12,6.77 13.794,1.748 15.206,2.252 "/>
<rect x="11.25" y="9" style="fill:#333333;" width="1.5" height="13"/>
</svg>






