<?xml version="1.0" encoding="iso-8859-1"?>
<svg version="1.1" id="&#x56FE;&#x5C42;_1" xmlns="http://www.w3.org/2000/svg" xmlns:xlink="http://www.w3.org/1999/xlink" x="0px"
	 y="0px" viewBox="0 0 24 24" style="enable-background:new 0 0 24 24;" xml:space="preserve">
<path style="fill:#333333;" d="M21,22.75H3c-0.965,0-1.75-0.785-1.75-1.75v-3c0-0.965,0.785-1.75,1.75-1.75h18
	c0.965,0,1.75,0.785,1.75,1.75v3C22.75,21.965,21.965,22.75,21,22.75z M3,17.75c-0.138,0-0.25,0.112-0.25,0.25v3
	c0,0.138,0.112,0.25,0.25,0.25h18c0.138,0,0.25-0.112,0.25-0.25v-3c0-0.138-0.112-0.25-0.25-0.25H3z"/>
<rect x="6.75" y="13" style="fill:#333333;" width="1.5" height="4"/>
<rect x="11.25" y="13" style="fill:#333333;" width="1.5" height="4"/>
<rect x="15.75" y="13" style="fill:#333333;" width="1.5" height="4"/>
<path style="fill:#333333;" d="M12,6.75c-1.517,0-2.75-1.233-2.75-2.75S10.483,1.25,12,1.25S14.75,2.483,14.75,4
	S13.517,6.75,12,6.75z M12,2.75c-0.689,0-1.25,0.561-1.25,1.25S11.311,5.25,12,5.25S13.25,4.689,13.25,4S12.689,2.75,12,2.75z"/>
<path style="fill:#333333;" d="M20.75,17h-1.5c0-4.772-0.824-10.25-7.25-10.25S4.75,12.228,4.75,17h-1.5c0-2.906,0-11.75,8.75-11.75
	S20.75,14.094,20.75,17z"/>
</svg>






