<?xml version="1.0" encoding="iso-8859-1"?>
<svg version="1.1" id="&#x56FE;&#x5C42;_1" xmlns="http://www.w3.org/2000/svg" xmlns:xlink="http://www.w3.org/1999/xlink" x="0px"
	 y="0px" viewBox="0 0 24 24" style="enable-background:new 0 0 24 24;" xml:space="preserve">
<path style="fill:#333333;" d="M12,12.75c-2.619,0-4.75-2.131-4.75-4.75h1.5c0,1.792,1.458,3.25,3.25,3.25S15.25,9.792,15.25,8h1.5
	C16.75,10.619,14.619,12.75,12,12.75z"/>
<path style="fill:#333333;" d="M16.75,8.75h-9.5V8c0-2.619,2.131-4.75,4.75-4.75S16.75,5.381,16.75,8V8.75z M8.837,7.25h6.326
	c-0.34-1.432-1.629-2.5-3.163-2.5S9.177,5.818,8.837,7.25z"/>
<rect x="6" y="7.25" style="fill:#333333;" width="12" height="1.5"/>
<rect x="11.25" y="2" style="fill:#333333;" width="1.5" height="2"/>
<path style="fill:#333333;" d="M21.25,22.25H2.75V21.5c0-4.825,4.149-8.75,9.25-8.75s9.25,3.925,9.25,8.75V22.25z M4.291,20.75
	h15.418c-0.402-3.646-3.706-6.5-7.709-6.5C7.998,14.25,4.694,17.104,4.291,20.75z"/>
<rect x="8.25" y="17" style="fill:#333333;" width="1.5" height="2"/>
<rect x="14.25" y="17" style="fill:#333333;" width="1.5" height="2"/>
</svg>






