<?xml version="1.0" encoding="iso-8859-1"?>
<svg version="1.1" id="&#x56FE;&#x5C42;_1" xmlns="http://www.w3.org/2000/svg" xmlns:xlink="http://www.w3.org/1999/xlink" x="0px"
	 y="0px" viewBox="0 0 24 24" style="enable-background:new 0 0 24 24;" xml:space="preserve">
<path style="fill:#333333;" d="M12,22.75C6.072,22.75,1.25,17.928,1.25,12S6.072,1.25,12,1.25S22.75,6.072,22.75,12
	S17.928,22.75,12,22.75z M12,2.75c-5.101,0-9.25,4.149-9.25,9.25s4.149,9.25,9.25,9.25s9.25-4.149,9.25-9.25S17.101,2.75,12,2.75z"
	/>
<path style="fill:#333333;" d="M7.865,13.685c-0.181,0-0.357-0.024-0.529-0.073c-0.952-0.267-1.43-1.189-1.813-1.931
	c-0.196-0.379-0.419-0.81-0.612-0.947c-0.6-0.427-1.739-0.037-2.59,0.365L1.68,9.742c1.788-0.844,3.13-0.92,4.1-0.231
	c0.489,0.348,0.787,0.923,1.075,1.48c0.264,0.509,0.562,1.085,0.886,1.176c0.193,0.058,0.514-0.043,0.898-0.275
	c0.47-0.286,0.533-0.442,0.533-0.443c-0.02-0.068-0.235-0.337-0.377-0.514c-0.498-0.621-1.249-1.56-0.765-2.936
	c0.511-1.454,1.669-1.679,2.436-1.828c0.765-0.148,0.97-0.188,1.041-0.868c0.03-0.289-0.06-0.423-0.152-0.516
	c-0.252-0.255-1.218-0.811-4.727-0.481L6.487,2.813c3.134-0.297,5.021-0.003,5.934,0.919c0.449,0.454,0.648,1.051,0.578,1.728
	c-0.187,1.785-1.427,2.025-2.248,2.184c-0.73,0.142-1.09,0.237-1.307,0.852c-0.198,0.563,0.056,0.92,0.521,1.5
	c0.378,0.473,0.807,1.008,0.681,1.722c-0.125,0.71-0.761,1.171-1.228,1.455C8.857,13.515,8.344,13.685,7.865,13.685z"/>
<path style="fill:#333333;" d="M15.651,21.88l-1.289-0.766c1.329-2.239,1.608-3.358,1.608-3.903c0-0.245-0.302-0.518-0.8-0.937
	c-0.78-0.657-1.849-1.557-1.997-3.277c-0.062-0.708,0.146-1.33,0.599-1.798c1.134-1.174,3.532-1.051,4.681-0.992
	c0.099,0.005,0.185,0.009,0.257,0.012c0.054-0.109,0.104-0.343,0.034-0.572c-0.066-0.218-0.216-0.343-0.469-0.394
	c-0.527-0.106-0.892-0.003-1.312,0.116C16.36,9.542,15.61,9.757,14.62,9.161c-0.386-0.231-0.619-0.598-0.657-1.032
	c-0.065-0.735,0.305-1.867,3.544-4.694l0.986,1.13c-2.538,2.215-2.957,3.097-3.023,3.354c0.383,0.208,0.602,0.146,1.083,0.008
	c0.478-0.136,1.131-0.322,2.019-0.145c1.3,0.262,1.79,1.397,1.695,2.342c-0.094,0.94-0.685,1.597-1.438,1.597
	c-0.104,0-0.26-0.007-0.452-0.018c-0.785-0.04-2.866-0.148-3.526,0.536c-0.101,0.104-0.213,0.271-0.183,0.627
	c0.096,1.102,0.763,1.664,1.469,2.259c0.625,0.526,1.334,1.123,1.334,2.084C17.471,18.292,16.876,19.819,15.651,21.88z"/>
<path style="fill:#333333;" d="M11.665,22.298l-1.323-0.705c0.399-0.75,0.602-1.412,0.602-1.971
	c-0.057-0.134-0.353-0.237-0.512-0.294c-0.36-0.125-0.768-0.269-1.083-0.6C9,18.363,8.937,17.893,8.881,17.478
	c-0.078-0.587-0.135-1.012-0.822-1.314c-0.504-0.224-1.555-0.307-3.698,0.559c-0.226,0.091-0.562,0.234-1.01,0.429l-0.599-1.375
	c0.464-0.202,0.812-0.35,1.046-0.444c2.14-0.865,3.73-1.042,4.866-0.541c1.458,0.644,1.611,1.799,1.704,2.489
	c0.02,0.149,0.05,0.376,0.084,0.438c0.048,0.046,0.295,0.132,0.475,0.195c0.53,0.186,1.516,0.53,1.516,1.709
	C12.443,20.429,12.182,21.329,11.665,22.298z"/>
</svg>






