<?xml version="1.0" encoding="iso-8859-1"?>
<svg version="1.1" id="&#x56FE;&#x5C42;_1" xmlns="http://www.w3.org/2000/svg" xmlns:xlink="http://www.w3.org/1999/xlink" x="0px"
	 y="0px" viewBox="0 0 24 24" style="enable-background:new 0 0 24 24;" xml:space="preserve">
<path style="fill:#333333;" d="M14.811,12.75H11.25V9.189l8.25-8.25L23.061,4.5L14.811,12.75z M12.75,11.25h1.439l6.75-6.75
	L19.5,3.061l-6.75,6.75V11.25z"/>
<path style="fill:#333333;" d="M19.5,22.75H9v-1.5h10.5c0.965,0,1.75-0.785,1.75-1.75s-0.785-1.75-1.75-1.75h-15
	c-1.792,0-3.25-1.458-3.25-3.25s1.458-3.25,3.25-3.25H8v1.5H4.5c-0.965,0-1.75,0.785-1.75,1.75s0.785,1.75,1.75,1.75h15
	c1.792,0,3.25,1.458,3.25,3.25S21.292,22.75,19.5,22.75z"/>
</svg>






