<?xml version="1.0" encoding="iso-8859-1"?>
<svg version="1.1" id="&#x56FE;&#x5C42;_1" xmlns="http://www.w3.org/2000/svg" xmlns:xlink="http://www.w3.org/1999/xlink" x="0px"
	 y="0px" viewBox="0 0 24 24" style="enable-background:new 0 0 24 24;" xml:space="preserve">
<path style="fill:#333333;" d="M22.75,21.75H1.25V9.609L12,2.084l10.75,7.525V21.75z M2.75,20.25h18.5v-9.859L12,3.916l-9.25,6.475
	V20.25z"/>
<path style="fill:#333333;" d="M17.127,13.873c-0.678-0.677-1.47-1.206-2.353-1.571c-1.77-0.732-3.781-0.733-5.549,0
	c-0.883,0.366-1.675,0.895-2.352,1.571l-1.061-1.061c0.817-0.817,1.772-1.455,2.838-1.896c2.135-0.884,4.562-0.884,6.697,0
	c1.065,0.441,2.021,1.079,2.839,1.896L17.127,13.873z"/>
<path style="fill:#333333;" d="M9.702,16.702l-1.062-1.061c0.442-0.442,0.961-0.789,1.542-1.029c1.158-0.48,2.477-0.48,3.635,0
	c0.581,0.24,1.101,0.587,1.542,1.03l-1.062,1.059c-0.301-0.302-0.655-0.539-1.054-0.704c-0.793-0.328-1.694-0.328-2.487,0
	C10.359,16.162,10.004,16.399,9.702,16.702z"/>
</svg>






