<?xml version="1.0" encoding="iso-8859-1"?>
<svg version="1.1" id="&#x56FE;&#x5C42;_1" xmlns="http://www.w3.org/2000/svg" xmlns:xlink="http://www.w3.org/1999/xlink" x="0px"
	 y="0px" viewBox="0 0 24 24" style="enable-background:new 0 0 24 24;" xml:space="preserve">
<path style="fill:#333333;" d="M12,21.917c-1.568,0-2.848-1.175-3.18-2.312c-0.057-0.195-0.107-0.436-0.162-0.704
	c-0.167-0.823-0.374-1.847-1.093-2.492c-0.562-0.504-1.336-0.688-2.085-0.865c-0.566-0.134-1.102-0.261-1.552-0.524
	C3.016,14.486,2.083,13.71,2.083,12c0-5.468,4.449-9.917,9.917-9.917S21.917,6.532,21.917,12S17.468,21.917,12,21.917z M12,3.583
	c-4.641,0-8.417,3.775-8.417,8.417c0,0.817,0.268,1.236,1.102,1.725c0.257,0.15,0.686,0.252,1.14,0.359
	c0.845,0.2,1.896,0.449,2.742,1.208c1.089,0.978,1.374,2.382,1.562,3.312c0.045,0.222,0.084,0.421,0.131,0.582
	c0.15,0.516,0.839,1.231,1.74,1.231c4.642,0,8.417-3.775,8.417-8.417C20.417,7.359,16.642,3.583,12,3.583z"/>
<path style="fill:#333333;" d="M11.123,16.024c-1.053,0-1.998-0.729-2.229-1.794c-0.189-0.873-0.285-1.766-0.285-2.654
	c0-0.977,0.155-1.849,0.46-2.591l0,0c0.392-0.954,1.378-1.529,2.404-1.391c0.793,0.104,1.607,0.409,2.417,0.905
	c0.717,0.438,1.417,0.943,2.08,1.5l0.086,0.077c0.916,0.846,0.974,2.291,0.121,3.213c-0.585,0.632-1.226,1.162-1.903,1.577
	c-0.722,0.442-1.576,0.804-2.54,1.074l-0.124,0.032C11.448,16.008,11.284,16.024,11.123,16.024z M10.457,9.556
	c-0.23,0.561-0.347,1.24-0.347,2.021c0,0.782,0.084,1.568,0.25,2.336c0.091,0.419,0.51,0.692,0.925,0.595
	c0.875-0.244,1.603-0.551,2.207-0.921c0.562-0.344,1.095-0.786,1.586-1.316c0.29-0.314,0.271-0.808-0.044-1.099
	c-0.634-0.533-1.272-0.994-1.926-1.393c-0.63-0.386-1.246-0.621-1.831-0.698C10.932,9.035,10.591,9.23,10.457,9.556L10.457,9.556z"
	/>
</svg>






