<?xml version="1.0" encoding="iso-8859-1"?>
<svg version="1.1" id="&#x56FE;&#x5C42;_1" xmlns="http://www.w3.org/2000/svg" xmlns:xlink="http://www.w3.org/1999/xlink" x="0px"
	 y="0px" viewBox="0 0 24 24" style="enable-background:new 0 0 24 24;" xml:space="preserve">
<path style="fill:#333333;" d="M12.12,22.72c-1.509,0-3.057-0.35-4.456-1.049C4.909,20.293,2.75,17.253,2.75,14.75
	c0-1.646,2.066-2.721,3.417-3.248L5.051,4.066C4.945,3.359,5.152,2.644,5.618,2.102S6.762,1.25,7.477,1.25
	c0.99,0,1.853,0.587,2.238,1.449C9.949,1.58,10.94,0.75,12.117,0.75c0.692,0,1.355,0.294,1.819,0.808
	c0.465,0.513,0.691,1.203,0.622,1.891l-0.332,3.317c0.081-0.01,0.163-0.016,0.247-0.016c1.186,0,2.2,0.748,2.598,1.796
	c0.352-0.189,0.753-0.296,1.179-0.296c1.379,0,2.5,1.122,2.5,2.5v5.324c0,0.432-0.056,0.779-0.174,1.096
	c-0.375,0.99-1.419,2.89-4.204,4.481C15.127,22.363,13.644,22.72,12.12,22.72z M7.477,2.75c-0.282,0-0.538,0.118-0.722,0.331
	s-0.262,0.484-0.22,0.762l1.144,7.623c0.089,0.587-0.255,1.167-0.818,1.377c-1.537,0.574-2.61,1.358-2.61,1.906
	c0,1.95,1.833,4.453,4.085,5.579c2.375,1.187,5.237,1.195,7.292,0.02l0,0c2.467-1.409,3.301-3.063,3.545-3.709
	c0.053-0.14,0.077-0.32,0.077-0.565V10.75c0-0.551-0.448-1-1-1s-1,0.449-1,1h-1.5V9.527c0-0.704-0.572-1.277-1.276-1.277
	c-0.225,0-0.412,0.169-0.435,0.393l-1.492-0.15l0.52-5.193c0.027-0.272-0.059-0.533-0.242-0.735
	C12.642,2.361,12.39,2.25,12.117,2.25c-0.508,0-0.926,0.397-0.953,0.904l-0.415,7.885l-1.495,0.043L8.423,3.597
	C8.369,3.114,7.962,2.75,7.477,2.75z"/>
</svg>






