<?xml version="1.0" encoding="iso-8859-1"?>
<svg version="1.1" id="&#x56FE;&#x5C42;_1" xmlns="http://www.w3.org/2000/svg" xmlns:xlink="http://www.w3.org/1999/xlink" x="0px"
	 y="0px" viewBox="0 0 24 24" style="enable-background:new 0 0 24 24;" xml:space="preserve">
<path style="fill:#333333;" d="M19.5,21.75h-15c-1.241,0-2.25-1.01-2.25-2.25v-15c0-1.241,1.009-2.25,2.25-2.25h15
	c1.24,0,2.25,1.009,2.25,2.25v15C21.75,20.74,20.74,21.75,19.5,21.75z M4.5,3.75c-0.414,0-0.75,0.336-0.75,0.75v15
	c0,0.413,0.336,0.75,0.75,0.75h15c0.413,0,0.75-0.337,0.75-0.75v-15c0-0.414-0.337-0.75-0.75-0.75H4.5z"/>
<path style="fill:#333333;" d="M12,17.75c-1.792,0-3.25-1.458-3.25-3.25v-5c0-1.792,1.458-3.25,3.25-3.25s3.25,1.458,3.25,3.25v5
	C15.25,16.292,13.792,17.75,12,17.75z M12,7.75c-0.965,0-1.75,0.785-1.75,1.75v5c0,0.965,0.785,1.75,1.75,1.75s1.75-0.785,1.75-1.75
	v-5C13.75,8.535,12.965,7.75,12,7.75z"/>
</svg>






