<?xml version="1.0" encoding="iso-8859-1"?>
<svg version="1.1" id="&#x56FE;&#x5C42;_1" xmlns="http://www.w3.org/2000/svg" xmlns:xlink="http://www.w3.org/1999/xlink" x="0px"
	 y="0px" viewBox="0 0 24 24" style="enable-background:new 0 0 24 24;" xml:space="preserve">
<path style="fill:#333333;" d="M21.5,22.25h-19c-0.689,0-1.25-0.561-1.25-1.25V6.838c0-0.515,0.309-0.97,0.787-1.161L12,1.692
	l9.964,3.986c0.477,0.189,0.786,0.645,0.786,1.16V21C22.75,21.689,22.189,22.25,21.5,22.25z M2.75,20.75h18.5V7.008L12,3.308
	L2.75,7.008V20.75z M21.407,7.071C21.408,7.071,21.408,7.071,21.407,7.071L21.407,7.071z M2.594,7.071l-0.001,0
	C2.593,7.071,2.593,7.071,2.594,7.071z"/>
<rect x="11.25" y="11" style="fill:#333333;" width="1.5" height="5"/>
<path style="fill:#333333;" d="M16.5,14.25c-1.24,0-2.25-0.897-2.25-2v-1.1c0-0.496,0.404-0.9,0.9-0.9h1.35
	c1.24,0,2.25,0.897,2.25,2C18.75,13.353,17.74,14.25,16.5,14.25z M15.75,11.75v0.5c0,0.236,0.308,0.5,0.75,0.5s0.75-0.264,0.75-0.5
	s-0.308-0.5-0.75-0.5H15.75z"/>
<rect x="14.25" y="11" style="fill:#333333;" width="1.5" height="5"/>
<polygon style="fill:#333333;" points="9.002,16.75 6,16.75 5.357,15.614 7.677,11.75 6,11.75 6,10.25 9.002,10.25 9.646,11.386 
	7.325,15.25 9.002,15.25 "/>
</svg>






