<?xml version="1.0" encoding="iso-8859-1"?>
<svg version="1.1" id="&#x56FE;&#x5C42;_1" xmlns="http://www.w3.org/2000/svg" xmlns:xlink="http://www.w3.org/1999/xlink" x="0px"
	 y="0px" viewBox="0 0 24 24" style="enable-background:new 0 0 24 24;" xml:space="preserve">
<path style="fill:#333333;" d="M10.5,19.75c-5.101,0-9.25-4.149-9.25-9.25s4.149-9.25,9.25-9.25s9.25,4.149,9.25,9.25
	S15.601,19.75,10.5,19.75z M10.5,2.75c-4.273,0-7.75,3.477-7.75,7.75s3.477,7.75,7.75,7.75s7.75-3.477,7.75-7.75
	S14.773,2.75,10.5,2.75z"/>
<rect x="9.75" y="7.5" style="fill:#333333;" width="1.5" height="6"/>
<rect x="7.508" y="9.754" transform="matrix(1 -0.0013 0.0013 1 -0.0137 0.0137)" style="fill:#333333;" width="5.992" height="1.5"/>
<rect x="17.982" y="15.732" transform="matrix(0.707 -0.7072 0.7072 0.707 -7.7594 18.7351)" style="fill:#333333;" width="1.5" height="6"/>
</svg>






