<?xml version="1.0" encoding="iso-8859-1"?>
<svg version="1.1" id="&#x56FE;&#x5C42;_1" xmlns="http://www.w3.org/2000/svg" xmlns:xlink="http://www.w3.org/1999/xlink" x="0px"
	 y="0px" viewBox="0 0 24 24" style="enable-background:new 0 0 24 24;" xml:space="preserve">
<path style="fill:#333333;" d="M12.853,22.841c-0.972,0-1.978-0.213-3.115-0.639c-2.467-0.923-4.468-3.78-5.713-6.016
	c-0.595-1.069-0.314-2.415,0.668-3.202c0.896-0.714,2.119-0.767,3.057-0.191V10.25c0-1.103,0.897-2,2-2
	c0.172,0,0.34,0.022,0.5,0.063V8.25c0-1.103,0.897-2,2-2c1.103,0,2,0.897,2,2v2.063c0.16-0.042,0.327-0.063,0.5-0.063
	c0.957,0,1.76,0.676,1.955,1.576c0.173-0.049,0.356-0.076,0.545-0.076c1.103,0,2,0.897,2,2v3.934c0,0.729-0.2,1.398-0.577,1.935
	c-0.617,0.875-1.618,2.031-2.877,2.571C14.782,22.624,13.834,22.841,12.853,22.841z M6.358,13.9c-0.256,0-0.514,0.084-0.728,0.256
	c-0.408,0.327-0.532,0.874-0.295,1.3c0.918,1.65,2.78,4.538,4.928,5.342l0,0c1.912,0.716,3.298,0.719,4.941,0.013
	c0.987-0.423,1.829-1.471,2.242-2.058c0.251-0.355,0.304-0.777,0.304-1.069V13.75c0-0.275-0.225-0.5-0.5-0.5s-0.5,0.225-0.5,0.5
	h-1.5v-1.5c0-0.276-0.225-0.5-0.5-0.5s-0.5,0.224-0.5,0.5h-1.5v-4c0-0.276-0.225-0.5-0.5-0.5c-0.276,0-0.5,0.224-0.5,0.5v2h-1.5
	c0-0.276-0.224-0.5-0.5-0.5s-0.5,0.224-0.5,0.5v4.25l-1.28,0.53l-0.788-0.788C6.955,14.016,6.657,13.9,6.358,13.9z"/>
<rect x="6.5" y="3.25" style="fill:#333333;" width="11" height="1.5"/>
<polygon style="fill:#333333;" points="7.97,6.53 5.439,4 7.97,1.47 9.03,2.53 7.561,4 9.03,5.47 "/>
<polygon style="fill:#333333;" points="16.03,6.53 14.97,5.47 16.439,4 14.97,2.53 16.03,1.47 18.561,4 "/>
</svg>






