<?xml version="1.0" encoding="iso-8859-1"?>
<svg version="1.1" id="&#x56FE;&#x5C42;_1" xmlns="http://www.w3.org/2000/svg" xmlns:xlink="http://www.w3.org/1999/xlink" x="0px"
	 y="0px" viewBox="0 0 24 24" style="enable-background:new 0 0 24 24;" xml:space="preserve">
<path style="fill:#333333;" d="M10,22.25H5c-0.689,0-1.25-0.561-1.25-1.25V3c0-0.689,0.561-1.25,1.25-1.25h14
	c0.689,0,1.25,0.561,1.25,1.25v5.199h-0.5V3c0-0.414-0.337-0.75-0.75-0.75H5C4.586,2.25,4.25,2.586,4.25,3v18
	c0,0.413,0.336,0.75,0.75,0.75h5V22.25z"/>
<rect x="8" y="6.75" style="fill:#333333;" width="6.5" height="0.5"/>
<rect x="8" y="10.25" style="fill:#333333;" width="2.5" height="0.5"/>
<path style="fill:#333333;" d="M17,22.25c-2.895,0-5.25-2.355-5.25-5.25s2.355-5.25,5.25-5.25s5.25,2.355,5.25,5.25
	S19.895,22.25,17,22.25z M17,12.25c-2.619,0-4.75,2.131-4.75,4.75s2.131,4.75,4.75,4.75s4.75-2.131,4.75-4.75S19.619,12.25,17,12.25
	z"/>
<rect x="16.75" y="18" style="fill:#333333;" width="0.5" height="1.5"/>
<circle style="fill:#333333;" cx="17" cy="15" r="1"/>
</svg>






