<?xml version="1.0" encoding="iso-8859-1"?>
<svg version="1.1" id="&#x56FE;&#x5C42;_1" xmlns="http://www.w3.org/2000/svg" xmlns:xlink="http://www.w3.org/1999/xlink" x="0px"
	 y="0px" viewBox="0 0 24 24" style="enable-background:new 0 0 24 24;" xml:space="preserve">
<rect x="17" y="17.25" style="fill:#333333;" width="4" height="0.5"/>
<rect x="13.5" y="20.75" style="fill:#333333;" width="2" height="0.5"/>
<path style="fill:#333333;" d="M22,13.75H6c-1.337,0-3.749-4.273-4.219-5.13L1.578,8.25H4.09l3,2.5h12l3.069,2.558L22,13.75z
	 M2.426,8.75c1.126,1.982,2.855,4.5,3.574,4.5h15.31l-2.4-2h-12l-3-2.5H2.426z"/>
<polygon style="fill:#333333;" points="14.855,11.204 9.251,7.25 8.361,7.25 9.734,10.912 9.266,11.088 7.639,6.75 9.409,6.75 
	15.145,10.796 "/>
<polygon style="fill:#333333;" points="8.699,19.75 6.646,19.75 8.898,13.416 9.369,13.584 7.354,19.25 8.501,19.25 14.829,13.317 
	15.171,13.683 "/>
<path style="fill:#333333;" d="M19.5,6.75h-5l-0.079-0.487C15.157,6.017,15.75,5.645,15.75,5.5l-0.001-0.149
	c-0.007-0.497-0.018-1.247,0.64-1.575c0.442-0.222,1.038-0.156,1.39-0.087c0.108-0.619,0.553-1.439,1.732-1.439
	c0.722,0,1.354,0.338,1.778,0.951c0.457,0.661,0.581,1.542,0.317,2.244C21.121,6.735,19.566,6.75,19.5,6.75z M15.662,6.25H19.5
	c0.012,0,1.275-0.017,1.638-0.981c0.209-0.554,0.106-1.253-0.26-1.783C20.55,3.011,20.063,2.75,19.511,2.75
	c-1.216,0-1.26,1.123-1.261,1.251l-0.003,0.335l-0.32-0.097c-0.232-0.071-0.923-0.212-1.315-0.015
	c-0.349,0.174-0.37,0.574-0.362,1.121L16.25,5.5C16.25,5.79,15.989,6.044,15.662,6.25z"/>
</svg>






