<?xml version="1.0" encoding="iso-8859-1"?>
<svg version="1.1" id="&#x56FE;&#x5C42;_1" xmlns="http://www.w3.org/2000/svg" xmlns:xlink="http://www.w3.org/1999/xlink" x="0px"
	 y="0px" viewBox="0 0 24 24" style="enable-background:new 0 0 24 24;" xml:space="preserve">
<path style="fill:#333333;" d="M12,22.279L1.75,17.154V6.846L12,1.721l10.25,5.125v10.309L12,22.279z M2.25,16.846L12,21.721
	l9.75-4.875V7.154L12,2.279L2.25,7.154V16.846z"/>
<rect x="6.75" y="3.91" transform="matrix(0.4472 -0.8944 0.8944 0.4472 -4.6276 11.5124)" style="fill:#333333;" width="0.5" height="11.18"/>
<rect x="11.75" y="12" style="fill:#333333;" width="0.5" height="10"/>
<rect x="11.41" y="9.25" transform="matrix(0.8948 -0.4464 0.4464 0.8948 -2.453 8.5885)" style="fill:#333333;" width="11.181" height="0.5"/>
<rect x="6.41" y="6.75" transform="matrix(0.8944 -0.4472 0.4472 0.8944 -1.8636 6.1056)" style="fill:#333333;" width="11.18" height="0.5"/>
</svg>






