<?xml version="1.0" encoding="iso-8859-1"?>
<svg version="1.1" id="&#x56FE;&#x5C42;_1" xmlns="http://www.w3.org/2000/svg" xmlns:xlink="http://www.w3.org/1999/xlink" x="0px"
	 y="0px" viewBox="0 0 24 24" style="enable-background:new 0 0 24 24;" xml:space="preserve">
<path style="fill:#333333;" d="M12,22.25C6.348,22.25,1.75,17.652,1.75,12C1.75,6.348,6.348,1.75,12,1.75
	c5.652,0,10.25,4.598,10.25,10.25C22.25,17.652,17.652,22.25,12,22.25z M12,2.25c-5.376,0-9.75,4.374-9.75,9.75
	s4.374,9.75,9.75,9.75s9.75-4.374,9.75-9.75S17.376,2.25,12,2.25z"/>
<rect x="18" y="17.189" transform="matrix(0.7071 -0.7071 0.7071 0.7071 -7.5594 18.25)" style="fill:#333333;" width="0.5" height="2.121"/>
<rect x="5.5" y="4.689" transform="matrix(0.7071 -0.7071 0.7071 0.7071 -2.3817 5.75)" style="fill:#333333;" width="0.5" height="2.121"/>
<path style="fill:none;" d="M10.571,14L9,8.5L7.429,14H10.571z"/>
<path style="fill:#333333;" d="M10.76,15.568l-0.377-1.318H7.617L7.24,15.568l-0.48-0.137l2-7h0.48l2,7L10.76,15.568z M7.76,13.75
	h2.479L9,9.41L7.76,13.75z"/>
<path style="fill:#333333;" d="M13.5,15.75h-0.25v-7.5h0.25c2.701,0,4.25,1.367,4.25,3.75C17.75,14.383,16.201,15.75,13.5,15.75z
	 M13.75,8.754v6.491c1.412-0.052,3.5-0.58,3.5-3.245C17.25,9.334,15.162,8.807,13.75,8.754z"/>
</svg>






