<?xml version="1.0" encoding="iso-8859-1"?>
<svg version="1.1" id="&#x56FE;&#x5C42;_1" xmlns="http://www.w3.org/2000/svg" xmlns:xlink="http://www.w3.org/1999/xlink" x="0px"
	 y="0px" viewBox="0 0 24 24" style="enable-background:new 0 0 24 24;" xml:space="preserve">
<polygon style="fill:#333333;" points="9,17.75 4.75,17.75 4.75,14 5.25,14 5.25,17.25 9,17.25 "/>
<path style="fill:#333333;" d="M21.25,21.25H8.75v-7.5h12.5V21.25z M9.25,20.75h11.5v-6.5H9.25V20.75z"/>
<rect x="2.75" y="6.25" style="fill:#333333;" width="0.5" height="0.5"/>
<rect x="2.75" y="9.5" style="fill:#333333;" width="0.5" height="0.5"/>
<rect x="2.75" y="3" style="fill:#333333;" width="0.5" height="0.5"/>
<rect x="15.75" y="6.25" style="fill:#333333;" width="0.5" height="0.5"/>
<rect x="15.75" y="9.5" style="fill:#333333;" width="0.5" height="0.5"/>
<rect x="15.75" y="3" style="fill:#333333;" width="0.5" height="0.5"/>
<rect x="15.5" y="9.75" style="fill:#333333;" width="0.5" height="0.5"/>
<rect x="3" y="9.75" style="fill:#333333;" width="0.5" height="0.5"/>
<rect x="3" y="2.75" style="fill:#333333;" width="0.5" height="0.5"/>
<rect x="6" y="2.75" style="fill:#333333;" width="0.5" height="0.5"/>
<rect x="9.25" y="2.75" style="fill:#333333;" width="0.5" height="0.5"/>
<rect x="9.25" y="9.75" style="fill:#333333;" width="0.5" height="0.5"/>
<rect x="12.5" y="2.75" style="fill:#333333;" width="0.5" height="0.5"/>
<rect x="6" y="9.75" style="fill:#333333;" width="0.5" height="0.5"/>
<rect x="12.5" y="9.75" style="fill:#333333;" width="0.5" height="0.5"/>
<rect x="15.5" y="2.75" style="fill:#333333;" width="0.5" height="0.5"/>
</svg>






