<?xml version="1.0" encoding="iso-8859-1"?>
<svg version="1.1" id="&#x56FE;&#x5C42;_1" xmlns="http://www.w3.org/2000/svg" xmlns:xlink="http://www.w3.org/1999/xlink" x="0px"
	 y="0px" viewBox="0 0 24 24" style="enable-background:new 0 0 24 24;" xml:space="preserve">
<polygon style="fill:#333333;" points="21.25,9.75 18,9.75 18,9.25 20.75,9.25 20.75,3.25 3.25,3.25 3.25,9.25 6,9.25 6,9.75 
	2.75,9.75 2.75,2.75 21.25,2.75 "/>
<path style="fill:#333333;" d="M12,22.312l-3-2.223l-2.851,2.112L5.75,22V5.75h12.5V22l-0.398,0.201L15,20.089L12,22.312z M9,19.466
	l3,2.223l3-2.223l2.75,2.038V6.25H6.25v15.254L9,19.466z"/>
<rect x="10" y="12.75" style="fill:#333333;" width="4" height="0.5"/>
<rect x="11.75" y="11" style="fill:#333333;" width="0.5" height="4"/>
</svg>






