<?xml version="1.0" encoding="iso-8859-1"?>
<svg version="1.1" id="&#x56FE;&#x5C42;_1" xmlns="http://www.w3.org/2000/svg" xmlns:xlink="http://www.w3.org/1999/xlink" x="0px"
	 y="0px" viewBox="0 0 24 24" style="enable-background:new 0 0 24 24;" xml:space="preserve">
<path style="fill:#333333;" d="M18,21.25H4c-0.689,0-1.25-0.561-1.25-1.25V6c0-0.689,0.561-1.25,1.25-1.25h9.182v0.5H4
	C3.586,5.25,3.25,5.586,3.25,6v14c0,0.413,0.336,0.75,0.75,0.75h14c0.413,0,0.75-0.337,0.75-0.75v-9.5h0.5V20
	C19.25,20.689,18.689,21.25,18,21.25z"/>
<path style="fill:#333333;" d="M16.485,15.766H5.501l3.472-4.646l1.484,1.483l1.781-2.8L16.485,15.766z M6.5,15.266h9.015
	l-3.253-4.568l-1.718,2.7l-1.516-1.517L6.5,15.266z"/>
<rect x="17" y="4.75" style="fill:#333333;" width="4" height="0.5"/>
<rect x="18.747" y="2.897" style="fill:#333333;" width="0.5" height="4"/>
</svg>






