<?xml version="1.0" encoding="iso-8859-1"?>
<svg version="1.1" id="&#x56FE;&#x5C42;_1" xmlns="http://www.w3.org/2000/svg" xmlns:xlink="http://www.w3.org/1999/xlink" x="0px"
	 y="0px" viewBox="0 0 24 24" style="enable-background:new 0 0 24 24;" xml:space="preserve">
<path style="fill:#333333;" d="M12,21.75c-5.376,0-9.75-4.374-9.75-9.75S6.624,2.25,12,2.25c1.611,0,3.208,0.401,4.618,1.161
	l-0.236,0.44C15.044,3.131,13.528,2.75,12,2.75c-5.101,0-9.25,4.149-9.25,9.25s4.149,9.25,9.25,9.25c1.36,0,2.671-0.288,3.895-0.857
	l0.211,0.453C14.815,21.445,13.434,21.75,12,21.75z"/>
<rect x="15.5" y="14.75" style="fill:#333333;" width="6" height="0.5"/>
<polygon style="fill:#333333;" points="10.995,14.849 7.323,11.177 7.677,10.823 11.005,14.151 20.328,5.318 20.672,5.682 "/>
<rect x="18.25" y="12" style="fill:#333333;" width="0.5" height="6"/>
</svg>






