<?xml version="1.0" encoding="iso-8859-1"?>
<svg version="1.1" id="&#x56FE;&#x5C42;_1" xmlns="http://www.w3.org/2000/svg" xmlns:xlink="http://www.w3.org/1999/xlink" x="0px"
	 y="0px" viewBox="0 0 24 24" style="enable-background:new 0 0 24 24;" xml:space="preserve">
<path style="fill:#333333;" d="M12,22.25C6.348,22.25,1.75,17.652,1.75,12C1.75,6.348,6.348,1.75,12,1.75
	c5.652,0,10.25,4.598,10.25,10.25h-0.5c0-5.376-4.374-9.75-9.75-9.75S2.25,6.624,2.25,12s4.374,9.75,9.75,9.75V22.25z"/>
<path style="fill:#333333;" d="M9.75,15.896V8.103L16.5,12L9.75,15.896z M10.25,8.969v6.062L15.5,12L10.25,8.969z"/>
<rect x="18.275" y="16" style="fill:#333333;" width="0.5" height="5"/>
<rect x="16" y="18.225" style="fill:#333333;" width="5" height="0.5"/>
</svg>






