<?xml version="1.0" encoding="iso-8859-1"?>
<svg version="1.1" id="&#x56FE;&#x5C42;_1" xmlns="http://www.w3.org/2000/svg" xmlns:xlink="http://www.w3.org/1999/xlink" x="0px"
	 y="0px" viewBox="0 0 24 24" style="enable-background:new 0 0 24 24;" xml:space="preserve">
<rect x="11.75" y="8" style="fill:#333333;" width="0.5" height="8"/>
<rect x="20.75" y="10.5" style="fill:#333333;" width="0.5" height="3"/>
<rect x="2.75" y="10.5" style="fill:#333333;" width="0.5" height="3"/>
<path style="fill:#333333;" d="M3.25,7h-0.5V4c0-0.689,0.561-1.25,1.25-1.25h3v0.5H4C3.586,3.25,3.25,3.586,3.25,4V7z"/>
<path style="fill:#333333;" d="M21.25,7h-0.5V4c0-0.414-0.337-0.75-0.75-0.75h-3v-0.5h3c0.689,0,1.25,0.561,1.25,1.25V7z"/>
<path style="fill:#333333;" d="M20,21.25h-3v-0.5h3c0.413,0,0.75-0.337,0.75-0.75v-3h0.5v3C21.25,20.689,20.689,21.25,20,21.25z"/>
<path style="fill:#333333;" d="M7,21.25H4c-0.689,0-1.25-0.561-1.25-1.25v-3h0.5v3c0,0.413,0.336,0.75,0.75,0.75h3V21.25z"/>
<rect x="10.5" y="2.75" style="fill:#333333;" width="3" height="0.5"/>
<rect x="8" y="11.75" style="fill:#333333;" width="8" height="0.5"/>
<rect x="10.5" y="20.75" style="fill:#333333;" width="3" height="0.5"/>
</svg>






