<?xml version="1.0" encoding="iso-8859-1"?>
<svg version="1.1" id="&#x56FE;&#x5C42;_1" xmlns="http://www.w3.org/2000/svg" xmlns:xlink="http://www.w3.org/1999/xlink" x="0px"
	 y="0px" viewBox="0 0 24 24" style="enable-background:new 0 0 24 24;" xml:space="preserve">
<path style="fill:none;" d="M7,14.5h14v6H7v-3V14.5z"/>
<path style="fill:none;" d="M7,3.5h14v6H7v-3V3.5z"/>
<path style="fill:#333333;" d="M21.25,20.75H6.75v-3h-4V6.25h4v-3h14.5v6.5H6.75v-3h-3.5v10.5h3.5v-3h14.5V20.75z M7.25,20.25h13.5
	v-5.5H7.25V20.25z M7.25,9.25h13.5v-5.5H7.25V9.25z"/>
<polygon style="fill:#333333;" points="7,17.75 2.75,17.75 2.75,6.25 7,6.25 7,6.75 3.25,6.75 3.25,17.25 7,17.25 "/>
<path style="fill:#333333;" d="M21.25,20.75H6.75v-6.5h14.5V20.75z M7.25,20.25h13.5v-5.5H7.25V20.25z"/>
<path style="fill:#333333;" d="M21.25,9.75H6.75v-6.5h14.5V9.75z M7.25,9.25h13.5v-5.5H7.25V9.25z"/>
</svg>






