<?xml version="1.0" encoding="iso-8859-1"?>
<svg version="1.1" id="&#x56FE;&#x5C42;_1" xmlns="http://www.w3.org/2000/svg" xmlns:xlink="http://www.w3.org/1999/xlink" x="0px"
	 y="0px" viewBox="0 0 24 24" style="enable-background:new 0 0 24 24;" xml:space="preserve">
<path style="fill:#333333;" d="M20,21.75H4c-0.965,0-1.75-0.785-1.75-1.75V4c0-0.965,0.785-1.75,1.75-1.75h16
	c0.965,0,1.75,0.785,1.75,1.75v16C21.75,20.965,20.965,21.75,20,21.75z M4,2.75C3.311,2.75,2.75,3.311,2.75,4v16
	c0,0.689,0.561,1.25,1.25,1.25h16c0.689,0,1.25-0.561,1.25-1.25V4c0-0.689-0.561-1.25-1.25-1.25H4z"/>
<rect x="3.515" y="11.75" transform="matrix(0.7071 -0.7071 0.7071 0.7071 -4.9706 12)" style="fill:#333333;" width="16.971" height="0.5"/>
<rect x="6" y="7.75" style="fill:#333333;" width="4" height="0.5"/>
<rect x="13.5" y="16.25" style="fill:#333333;" width="4" height="0.5"/>
<rect x="7.75" y="6" style="fill:#333333;" width="0.5" height="4"/>
</svg>






