<?xml version="1.0" encoding="iso-8859-1"?>
<svg version="1.1" id="&#x56FE;&#x5C42;_1" xmlns="http://www.w3.org/2000/svg" xmlns:xlink="http://www.w3.org/1999/xlink" x="0px"
	 y="0px" viewBox="0 0 24 24" style="enable-background:new 0 0 24 24;" xml:space="preserve">
<path style="fill:#333333;" d="M19.5,21.25h-15c-0.965,0-1.75-0.785-1.75-1.75v-15c0-0.965,0.785-1.75,1.75-1.75h15
	c0.965,0,1.75,0.785,1.75,1.75v15C21.25,20.465,20.465,21.25,19.5,21.25z M4.5,3.25c-0.689,0-1.25,0.561-1.25,1.25v15
	c0,0.689,0.561,1.25,1.25,1.25h15c0.689,0,1.25-0.561,1.25-1.25v-15c0-0.689-0.561-1.25-1.25-1.25H4.5z"/>
<rect x="7.75" y="7.5" style="fill:#333333;" width="0.5" height="9"/>
<rect x="15.75" y="8.5" style="fill:#333333;" width="0.5" height="8"/>
<path style="fill:#333333;" d="M16.25,16.75H14c-1.367,0-2.25-0.883-2.25-2.25s0.883-2.25,2.25-2.25h2.25V16.75z M14,12.75
	c-1.079,0-1.75,0.671-1.75,1.75s0.671,1.75,1.75,1.75h1.75v-3.5H14z"/>
</svg>






