<?xml version="1.0" encoding="iso-8859-1"?>
<svg version="1.1" id="&#x56FE;&#x5C42;_1" xmlns="http://www.w3.org/2000/svg" xmlns:xlink="http://www.w3.org/1999/xlink" x="0px"
	 y="0px" viewBox="0 0 24 24" style="enable-background:new 0 0 24 24;" xml:space="preserve">
<path style="fill:#333333;" d="M19.5,21.25h-15c-0.965,0-1.75-0.785-1.75-1.75v-15c0-0.965,0.785-1.75,1.75-1.75h15
	c0.965,0,1.75,0.785,1.75,1.75v15C21.25,20.465,20.465,21.25,19.5,21.25z M4.5,3.25c-0.689,0-1.25,0.561-1.25,1.25v15
	c0,0.689,0.561,1.25,1.25,1.25h15c0.689,0,1.25-0.561,1.25-1.25v-15c0-0.689-0.561-1.25-1.25-1.25H4.5z"/>
<rect x="6.75" y="7.5" style="fill:#333333;" width="0.5" height="9"/>
<path style="fill:#333333;" d="M8,12.75H6.75v-5.5H8c2.418,0,3.75,0.977,3.75,2.75S10.418,12.75,8,12.75z M7.25,12.25H8
	c1.482,0,3.25-0.39,3.25-2.25S9.482,7.75,8,7.75H7.25V12.25z"/>
<path style="fill:#333333;" d="M14.382,16.75c-0.229,0-0.381-0.012-0.402-0.014l0.041-0.498c0.018-0.001,1.708,0.13,2.425-0.531
	c0.205-0.188,0.305-0.422,0.305-0.713c0-0.657-0.509-0.916-1.346-1.264c-0.775-0.321-1.654-0.687-1.654-1.725
	c0-0.458,0.15-0.835,0.448-1.124c0.71-0.688,2.059-0.644,2.635-0.624L17,10.262v0.5l-0.184-0.004
	c-0.513-0.018-1.714-0.057-2.271,0.484c-0.199,0.193-0.296,0.443-0.296,0.764c0,0.657,0.509,0.916,1.346,1.264
	c0.775,0.321,1.654,0.687,1.654,1.725c0,0.433-0.157,0.797-0.466,1.081C16.144,16.665,14.991,16.75,14.382,16.75z"/>
</svg>






