<?xml version="1.0" encoding="iso-8859-1"?>
<svg version="1.1" id="&#x56FE;&#x5C42;_1" xmlns="http://www.w3.org/2000/svg" xmlns:xlink="http://www.w3.org/1999/xlink" x="0px"
	 y="0px" viewBox="0 0 24 24" style="enable-background:new 0 0 24 24;" xml:space="preserve">
<path style="fill:#333333;" d="M19.5,21.25h-15c-0.965,0-1.75-0.785-1.75-1.75v-15c0-0.965,0.785-1.75,1.75-1.75h15
	c0.965,0,1.75,0.785,1.75,1.75v15C21.25,20.465,20.465,21.25,19.5,21.25z M4.5,3.25c-0.689,0-1.25,0.561-1.25,1.25v15
	c0,0.689,0.561,1.25,1.25,1.25h15c0.689,0,1.25-0.561,1.25-1.25v-15c0-0.689-0.561-1.25-1.25-1.25H4.5z"/>
<polygon style="fill:#333333;" points="11,16.75 6.75,16.75 6.75,7.5 7.25,7.5 7.25,16.25 11,16.25 "/>
<rect x="13.75" y="10.5" style="fill:#333333;" width="0.5" height="6"/>
<path style="fill:#333333;" d="M14.218,13.123l-0.436-0.246C14.979,10.75,16.294,10.75,17,10.75v0.5
	C16.354,11.25,15.271,11.25,14.218,13.123z"/>
</svg>






