<?xml version="1.0" encoding="iso-8859-1"?>
<svg version="1.1" id="&#x56FE;&#x5C42;_1" xmlns="http://www.w3.org/2000/svg" xmlns:xlink="http://www.w3.org/1999/xlink" x="0px"
	 y="0px" viewBox="0 0 24 24" style="enable-background:new 0 0 24 24;" xml:space="preserve">
<path style="fill:#333333;" d="M19.5,21.25h-15c-0.965,0-1.75-0.785-1.75-1.75v-15c0-0.965,0.785-1.75,1.75-1.75h5v0.5h-5
	c-0.689,0-1.25,0.561-1.25,1.25v15c0,0.689,0.561,1.25,1.25,1.25h15c0.689,0,1.25-0.561,1.25-1.25v-5h0.5v5
	C21.25,20.465,20.465,21.25,19.5,21.25z"/>
<polygon style="fill:#333333;" points="10.842,14.816 8.763,8.579 9.237,8.421 11.158,14.184 16.921,12.263 17.079,12.737 "/>
<path style="fill:#333333;" d="M11.237,14.579l-0.475-0.158c2.544-7.63,4.142-9.152,9.145-11.153l0.186,0.464
	C15.271,5.661,13.771,6.979,11.237,14.579z"/>
</svg>






