<?xml version="1.0" encoding="iso-8859-1"?>
<svg version="1.1" id="&#x56FE;&#x5C42;_1" xmlns="http://www.w3.org/2000/svg" xmlns:xlink="http://www.w3.org/1999/xlink" x="0px"
	 y="0px" viewBox="0 0 24 24" style="enable-background:new 0 0 24 24;" xml:space="preserve">
<path style="fill:#333333;" d="M19,21.75H5c-0.689,0-1.25-0.561-1.25-1.25v-17c0-0.689,0.561-1.25,1.25-1.25h5.5v0.5H5
	c-0.414,0-0.75,0.336-0.75,0.75v17c0,0.413,0.336,0.75,0.75,0.75h14c0.413,0,0.75-0.337,0.75-0.75v-8.125h0.5V20.5
	C20.25,21.189,19.689,21.75,19,21.75z"/>
<polygon style="fill:#333333;" points="16.5,12.25 10.25,12.25 10.25,6 10.75,6 10.75,11.75 16.5,11.75 "/>
<rect x="8.636" y="7.25" transform="matrix(0.7071 -0.7071 0.7071 0.7071 -0.9099 12.8033)" style="fill:#333333;" width="12.728" height="0.5"/>
</svg>






