<?xml version="1.0" encoding="iso-8859-1"?>
<svg version="1.1" id="&#x56FE;&#x5C42;_1" xmlns="http://www.w3.org/2000/svg" xmlns:xlink="http://www.w3.org/1999/xlink" x="0px"
	 y="0px" viewBox="0 0 24 24" style="enable-background:new 0 0 24 24;" xml:space="preserve">
<path style="fill:#333333;" d="M19,22.25H5c-0.689,0-1.25-0.561-1.25-1.25V3c0-0.689,0.561-1.25,1.25-1.25h14
	c0.689,0,1.25,0.561,1.25,1.25v18C20.25,21.689,19.689,22.25,19,22.25z M5,2.25C4.586,2.25,4.25,2.586,4.25,3v18
	c0,0.413,0.336,0.75,0.75,0.75h14c0.413,0,0.75-0.337,0.75-0.75V3c0-0.414-0.337-0.75-0.75-0.75H5z"/>
<path style="fill:#333333;" d="M12.334,10.187L10.25,8.334l-2.084,1.853L7.75,10V1.75h5V10L12.334,10.187z M10.25,7.666l2,1.778
	V2.25h-4v7.193L10.25,7.666z"/>
<rect x="8" y="13.75" style="fill:#333333;" width="5" height="0.5"/>
<rect x="8" y="16.75" style="fill:#333333;" width="8" height="0.5"/>
</svg>






