<?xml version="1.0" encoding="iso-8859-1"?>
<svg version="1.1" id="&#x56FE;&#x5C42;_1" xmlns="http://www.w3.org/2000/svg" xmlns:xlink="http://www.w3.org/1999/xlink" x="0px"
	 y="0px" viewBox="0 0 24 24" style="enable-background:new 0 0 24 24;" xml:space="preserve">
<rect x="2" y="21.75" style="fill:#333333;" width="20" height="0.5"/>
<path style="fill:#333333;" d="M20.75,22h-0.5v-3.64c0-2.46-2.063-3.11-3.154-3.11H14v-0.5h3.096c1.264,0,3.654,0.755,3.654,3.61V22
	z"/>
<polygon style="fill:#333333;" points="17.728,15.104 17.272,14.896 19.725,9.501 16.773,3.105 17.227,2.895 20.275,9.499 "/>
<rect x="14.307" y="2.75" transform="matrix(0.9285 -0.3714 0.3714 0.9285 0.1017 6.5282)" style="fill:#333333;" width="5.385" height="0.5"/>
<path style="fill:#333333;" d="M10,19.25c-2.343,0-4.25-1.906-4.25-4.25s1.907-4.25,4.25-4.25c2.344,0,4.25,1.906,4.25,4.25
	S12.344,19.25,10,19.25z M10,11.25c-2.068,0-3.75,1.683-3.75,3.75s1.682,3.75,3.75,3.75c2.067,0,3.75-1.683,3.75-3.75
	S12.067,11.25,10,11.25z"/>
<rect x="10" y="14.75" style="fill:#333333;" width="4" height="0.5"/>
<rect x="8.5" y="5.9" transform="matrix(0.7894 -0.6139 0.6139 0.7894 -3.5288 7.2151)" style="fill:#333333;" width="0.5" height="5.701"/>
<rect x="5" y="6.25" style="fill:#333333;" width="4" height="0.5"/>
<path style="fill:#333333;" d="M10,19.25v-0.5c2.067,0,3.75-1.683,3.75-3.75s-1.683-3.75-3.75-3.75v-0.5
	c2.344,0,4.25,1.906,4.25,4.25S12.344,19.25,10,19.25z"/>
</svg>






