<?xml version="1.0" encoding="iso-8859-1"?>
<svg version="1.1" id="&#x56FE;&#x5C42;_1" xmlns="http://www.w3.org/2000/svg" xmlns:xlink="http://www.w3.org/1999/xlink" x="0px"
	 y="0px" viewBox="0 0 24 24" style="enable-background:new 0 0 24 24;" xml:space="preserve">
<path style="fill:#333333;" d="M21,14.25H3c-0.689,0-1.25-0.561-1.25-1.25V5c0-0.689,0.561-1.25,1.25-1.25h18
	c0.689,0,1.25,0.561,1.25,1.25v8C22.25,13.689,21.689,14.25,21,14.25z M3,4.25C2.586,4.25,2.25,4.586,2.25,5v8
	c0,0.413,0.336,0.75,0.75,0.75h18c0.413,0,0.75-0.337,0.75-0.75V5c0-0.414-0.337-0.75-0.75-0.75H3z"/>
<path style="fill:#333333;" d="M18.25,14.25H5.75v-4.5h12.5V14.25z M6.25,13.75h11.5v-3.5H6.25V13.75z"/>
<rect x="16" y="6.75" style="fill:#333333;" width="2" height="0.5"/>
<rect x="11.75" y="17" style="fill:#333333;" width="0.5" height="3"/>
<rect x="7.75" y="18" style="fill:#333333;" width="0.5" height="1"/>
<rect x="15.75" y="18" style="fill:#333333;" width="0.5" height="1"/>
</svg>






