<?xml version="1.0" encoding="iso-8859-1"?>
<svg version="1.1" id="&#x56FE;&#x5C42;_1" xmlns="http://www.w3.org/2000/svg" xmlns:xlink="http://www.w3.org/1999/xlink" x="0px"
	 y="0px" viewBox="0 0 24 24" style="enable-background:new 0 0 24 24;" xml:space="preserve">
<path style="fill:#333333;" d="M18.521,16.064l-0.482-0.129L21.084,4.57c0.086-0.322,0.042-0.659-0.125-0.948
	S20.522,3.126,20.2,3.04c-0.324-0.087-0.659-0.042-0.948,0.125s-0.496,0.437-0.583,0.759l-3.253,12.141l-0.482-0.129l3.253-12.142
	c0.121-0.452,0.41-0.829,0.815-1.062c0.405-0.234,0.877-0.295,1.327-0.174c0.452,0.121,0.829,0.41,1.063,0.815
	c0.233,0.405,0.295,0.876,0.174,1.328L18.521,16.064z"/>
<path style="fill:#333333;" d="M18.25,19.25H6.5c-0.965,0-1.75-0.785-1.75-1.75s0.785-1.75,1.75-1.75h11.75V19.25z M6.5,16.25
	c-0.689,0-1.25,0.561-1.25,1.25s0.561,1.25,1.25,1.25h11.25v-2.5H6.5z"/>
<rect x="10.5" y="21.75" style="fill:#333333;" width="4" height="0.5"/>
<path style="fill:#333333;" d="M5.5,12.25c-1.517,0-2.75-1.233-2.75-2.75v-5c0-1.517,1.233-2.75,2.75-2.75S8.25,2.983,8.25,4.5v5
	C8.25,11.017,7.017,12.25,5.5,12.25z M5.5,2.25c-1.241,0-2.25,1.009-2.25,2.25v5c0,1.241,1.009,2.25,2.25,2.25s2.25-1.009,2.25-2.25
	v-5C7.75,3.259,6.741,2.25,5.5,2.25z"/>
<rect x="3" y="6.75" style="fill:#333333;" width="5" height="0.5"/>
<rect x="2.75" y="4.5" style="fill:#333333;" width="0.5" height="5"/>
<rect x="7.75" y="4.5" style="fill:#333333;" width="0.5" height="5"/>
</svg>






