<?xml version="1.0" encoding="iso-8859-1"?>
<svg version="1.1" id="&#x56FE;&#x5C42;_1" xmlns="http://www.w3.org/2000/svg" xmlns:xlink="http://www.w3.org/1999/xlink" x="0px"
	 y="0px" viewBox="0 0 24 24" style="enable-background:new 0 0 24 24;" xml:space="preserve">
<path style="fill:#333333;" d="M16.75,22.25h-3.5V6.5c0-2.619,2.131-4.75,4.75-4.75c1.784,0,3.402,0.985,4.222,2.572l0.028,0.115
	l-0.028,4.242C21.402,10.265,19.784,11.25,18,11.25c-0.426,0-0.845-0.056-1.25-0.166V22.25z M13.75,21.75h2.5V10.391l0.333,0.118
	c0.454,0.161,0.931,0.242,1.417,0.242c1.576,0,3.008-0.86,3.75-2.248V4.498C21.008,3.11,19.576,2.25,18,2.25
	c-2.344,0-4.25,1.907-4.25,4.25V21.75z"/>
<path style="fill:#333333;" d="M10.75,22.25h-3.5V11.084C6.844,11.194,6.425,11.25,6,11.25c-1.784,0-3.402-0.985-4.222-2.572
	L1.75,8.563l0.028-4.242C2.598,2.735,4.216,1.75,6,1.75c2.619,0,4.75,2.131,4.75,4.75V22.25z M7.75,21.75h2.5V6.5
	c0-2.343-1.907-4.25-4.25-4.25c-1.577,0-3.008,0.86-3.75,2.248v4.004C2.992,9.89,4.423,10.75,6,10.75
	c0.486,0,0.962-0.081,1.417-0.242l0.333-0.118V21.75z"/>
<rect x="7" y="6.25" style="fill:#333333;" width="0.5" height="0.5"/>
<rect x="16.5" y="6.25" style="fill:#333333;" width="0.5" height="0.5"/>
</svg>






