<?xml version="1.0" encoding="iso-8859-1"?>
<svg version="1.1" id="&#x56FE;&#x5C42;_1" xmlns="http://www.w3.org/2000/svg" xmlns:xlink="http://www.w3.org/1999/xlink" x="0px"
	 y="0px" viewBox="0 0 24 24" style="enable-background:new 0 0 24 24;" xml:space="preserve">
<path style="fill:#333333;" d="M12,22.25c-3.998,0-7.25-3.252-7.25-7.25V9c0-3.998,3.252-7.25,7.25-7.25
	c3.998,0,7.25,3.252,7.25,7.25v6C19.25,18.998,15.998,22.25,12,22.25z M12,2.25C8.278,2.25,5.25,5.278,5.25,9v6
	c0,3.722,3.028,6.75,6.75,6.75c3.722,0,6.75-3.028,6.75-6.75V9C18.75,5.278,15.722,2.25,12,2.25z"/>
<rect x="5" y="8.25" style="fill:#333333;" width="14" height="0.5"/>
<rect x="11" y="5.25" style="fill:#333333;" width="2" height="0.5"/>
<path style="fill:#333333;" d="M7,20.25v-0.5c1.268,0,1.5-0.527,1.5-1.565l0.387-0.209c0.589,0.385,1.472,0.397,2.146,0.032
	c0.456-0.246,0.717-0.614,0.717-1.008c0-1.453-1.14-1.565-2.75-1.565H8.651l0.112-0.33c0.009-0.029,0.233-0.754-0.44-1.428
	c-0.586-0.586-2.578-0.509-3.296-0.429l-0.055-0.496c0.29-0.032,2.845-0.289,3.705,0.571c0.596,0.596,0.654,1.235,0.622,1.612
	c1.276,0.011,2.952,0.152,2.952,2.064c0,0.583-0.357,1.11-0.979,1.448c-0.603,0.326-1.497,0.468-2.286,0.142
	C8.913,19.495,8.533,20.25,7,20.25z"/>
<path style="fill:#333333;" d="M18.039,16.549c-0.19,0-0.38-0.029-0.558-0.091c-0.354-0.122-0.822-0.419-1.129-1.141
	c-0.707,0.217-1.405,0.15-1.91-0.191c-0.446-0.303-0.692-0.791-0.692-1.376c0-0.665,0.312-1.213,0.854-1.503
	c0.347-0.187,0.747-0.234,1.105-0.144c0.002-0.393,0.113-0.952,0.652-1.312c0.856-0.569,2.569,0.381,2.763,0.491l-0.248,0.435
	c-0.626-0.356-1.786-0.809-2.237-0.509c-0.597,0.397-0.398,1.223-0.396,1.231l-0.381,0.269c-0.287-0.192-0.688-0.2-1.021-0.021
	c-0.375,0.2-0.59,0.588-0.59,1.062c0,0.42,0.163,0.753,0.473,0.962c0.417,0.282,1.062,0.304,1.685,0.056l0.246-0.099l0.084,0.252
	c0.186,0.557,0.499,0.924,0.906,1.064c0.377,0.128,0.844,0.056,1.218-0.193l0.277,0.416C18.802,16.433,18.416,16.549,18.039,16.549z
	"/>
<path style="fill:#333333;" d="M12.5,22.25v-0.5c3.446,0,6.25-2.804,6.25-6.25V9c0-3.722-3.028-6.75-6.75-6.75v-0.5
	c3.998,0,7.25,3.252,7.25,7.25v6.5C19.25,19.222,16.222,22.25,12.5,22.25z"/>
<path style="fill:#333333;" d="M11.5,22.25c-3.722,0-6.75-3.028-6.75-6.75V9c0-3.998,3.252-7.25,7.25-7.25v0.5
	C8.278,2.25,5.25,5.278,5.25,9v6.5c0,3.446,2.804,6.25,6.25,6.25V22.25z"/>
</svg>






