<?xml version="1.0" encoding="iso-8859-1"?>
<svg version="1.1" id="&#x56FE;&#x5C42;_1" xmlns="http://www.w3.org/2000/svg" xmlns:xlink="http://www.w3.org/1999/xlink" x="0px"
	 y="0px" viewBox="0 0 24 24" style="enable-background:new 0 0 24 24;" xml:space="preserve">
<path style="fill:#333333;" d="M15.912,22.234L12,20.767l-3.912,1.468l-0.3-0.367l2.462-3.938v-4.024l-8,4v-2.521L10,8.923V5.269
	c0-2.119,1.244-3.215,1.901-3.498L12,1.728l0.099,0.043C12.757,2.054,14,3.15,14,5.269v3.654l7.75,6.46v2.521l-8-4v4.024
	l2.462,3.938L15.912,22.234z M12,20.233l3.397,1.273l-2.147-3.436v-4.976l8,4v-1.479l-7.75-6.46V5.269c0-1.752-0.931-2.69-1.5-2.991
	c-0.57,0.301-1.5,1.238-1.5,2.991v3.889l-7.75,6.46v1.479l8-4v4.976l-2.147,3.436L12,20.233z"/>
</svg>






