<?xml version="1.0" encoding="iso-8859-1"?>
<svg version="1.1" id="&#x56FE;&#x5C42;_1" xmlns="http://www.w3.org/2000/svg" xmlns:xlink="http://www.w3.org/1999/xlink" x="0px"
	 y="0px" viewBox="0 0 24 24" style="enable-background:new 0 0 24 24;" xml:space="preserve">
<path style="fill:#333333;" d="M17.25,20.75H6.75V12.5c0-2.895,2.355-5.25,5.25-5.25c2.895,0,5.25,2.355,5.25,5.25V20.75z
	 M7.25,20.25h9.5V12.5c0-2.619-2.131-4.75-4.75-4.75S7.25,9.881,7.25,12.5V20.25z"/>
<rect x="11.75" y="2.5" style="fill:#333333;" width="0.5" height="1.5"/>
<rect x="16.714" y="4.989" transform="matrix(0.6429 -0.766 0.766 0.6429 2.2243 15.2477)" style="fill:#333333;" width="1.5" height="0.5"/>
<polygon style="fill:#333333;" points="19.675,10.65 19.589,10.158 21.066,9.897 21.152,10.39 "/>
<rect x="3.379" y="9.524" transform="matrix(0.1738 -0.9848 0.9848 0.1738 -7.1192 12.0618)" style="fill:#333333;" width="0.5" height="1.5"/>
<rect x="6.286" y="4.489" transform="matrix(0.7659 -0.6429 0.6429 0.7659 -1.838 5.4283)" style="fill:#333333;" width="0.5" height="1.5"/>
<rect x="3" y="20.25" style="fill:#333333;" width="18.5" height="0.5"/>
</svg>






