<?xml version="1.0" encoding="iso-8859-1"?>
<svg version="1.1" id="&#x56FE;&#x5C42;_1" xmlns="http://www.w3.org/2000/svg" xmlns:xlink="http://www.w3.org/1999/xlink" x="0px"
	 y="0px" viewBox="0 0 24 24" style="enable-background:new 0 0 24 24;" xml:space="preserve">
<path style="fill:#333333;" d="M21,17.75h-2v-0.5h2c0.413,0,0.75-0.337,0.75-0.75v-3.449c0-0.523-0.331-0.996-0.822-1.175
	l-3.526-1.282c-0.688-0.25-1.151-0.911-1.151-1.645V5.5c0-0.414-0.337-0.75-0.75-0.75H3c-0.414,0-0.75,0.336-0.75,0.75v11
	c0,0.413,0.336,0.75,0.75,0.75h2v0.5H3c-0.689,0-1.25-0.561-1.25-1.25v-11c0-0.689,0.561-1.25,1.25-1.25h12.5
	c0.689,0,1.25,0.561,1.25,1.25v3.449c0,0.524,0.331,0.996,0.822,1.175l3.526,1.282c0.688,0.25,1.151,0.911,1.151,1.645V16.5
	C22.25,17.189,21.689,17.75,21,17.75z"/>
<rect x="9" y="17.25" style="fill:#333333;" width="6" height="0.5"/>
<rect x="6" y="9.25" style="fill:#333333;" width="4" height="0.5"/>
<rect x="7.75" y="7.5" style="fill:#333333;" width="0.5" height="4"/>
<path style="fill:#333333;" d="M7,19.75c-1.241,0-2.25-1.01-2.25-2.25S5.759,15.25,7,15.25s2.25,1.01,2.25,2.25S8.241,19.75,7,19.75
	z M7,15.75c-0.965,0-1.75,0.785-1.75,1.75S6.035,19.25,7,19.25s1.75-0.785,1.75-1.75S7.965,15.75,7,15.75z"/>
<path style="fill:#333333;" d="M17,19.75c-1.24,0-2.25-1.01-2.25-2.25s1.01-2.25,2.25-2.25s2.25,1.01,2.25,2.25
	S18.24,19.75,17,19.75z M17,15.75c-0.965,0-1.75,0.785-1.75,1.75s0.785,1.75,1.75,1.75s1.75-0.785,1.75-1.75S17.965,15.75,17,15.75z
	"/>
</svg>






