<?xml version="1.0" encoding="iso-8859-1"?>
<svg version="1.1" id="&#x56FE;&#x5C42;_1" xmlns="http://www.w3.org/2000/svg" xmlns:xlink="http://www.w3.org/1999/xlink" x="0px"
	 y="0px" viewBox="0 0 24 24" style="enable-background:new 0 0 24 24;" xml:space="preserve">
<rect x="7" y="3.75" style="fill:#333333;" width="10" height="0.5"/>
<rect x="7" y="3.75" style="fill:#333333;" width="10" height="0.5"/>
<rect x="7" y="19.75" style="fill:#333333;" width="10" height="0.5"/>
<path style="fill:#333333;" d="M21,6.25h-2c-0.689,0-1.25-0.561-1.25-1.25V3c0-0.689,0.561-1.25,1.25-1.25h2
	c0.689,0,1.25,0.561,1.25,1.25v2C22.25,5.689,21.689,6.25,21,6.25z M19,2.25c-0.413,0-0.75,0.336-0.75,0.75v2
	c0,0.414,0.337,0.75,0.75,0.75h2c0.413,0,0.75-0.336,0.75-0.75V3c0-0.414-0.337-0.75-0.75-0.75H19z"/>
<path style="fill:#333333;" d="M5,6.25H3C2.311,6.25,1.75,5.689,1.75,5V3c0-0.689,0.561-1.25,1.25-1.25h2
	c0.689,0,1.25,0.561,1.25,1.25v2C6.25,5.689,5.689,6.25,5,6.25z M3,2.25C2.586,2.25,2.25,2.586,2.25,3v2
	c0,0.414,0.336,0.75,0.75,0.75h2c0.414,0,0.75-0.336,0.75-0.75V3c0-0.414-0.336-0.75-0.75-0.75H3z"/>
<path style="fill:#333333;" d="M21,22.25h-2c-0.689,0-1.25-0.561-1.25-1.25v-2c0-0.689,0.561-1.25,1.25-1.25h2
	c0.689,0,1.25,0.561,1.25,1.25v2C22.25,21.689,21.689,22.25,21,22.25z M19,18.25c-0.413,0-0.75,0.337-0.75,0.75v2
	c0,0.413,0.337,0.75,0.75,0.75h2c0.413,0,0.75-0.337,0.75-0.75v-2c0-0.413-0.337-0.75-0.75-0.75H19z"/>
<path style="fill:#333333;" d="M5,22.25H3c-0.689,0-1.25-0.561-1.25-1.25v-2c0-0.689,0.561-1.25,1.25-1.25h2
	c0.689,0,1.25,0.561,1.25,1.25v2C6.25,21.689,5.689,22.25,5,22.25z M3,18.25c-0.414,0-0.75,0.337-0.75,0.75v2
	c0,0.413,0.336,0.75,0.75,0.75h2c0.414,0,0.75-0.337,0.75-0.75v-2c0-0.413-0.336-0.75-0.75-0.75H3z"/>
<rect x="19.75" y="7" style="fill:#333333;" width="0.5" height="10"/>
<rect x="3.75" y="7" style="fill:#333333;" width="0.5" height="10"/>
</svg>






