<?xml version="1.0" encoding="iso-8859-1"?>
<svg version="1.1" id="&#x56FE;&#x5C42;_1" xmlns="http://www.w3.org/2000/svg" xmlns:xlink="http://www.w3.org/1999/xlink" x="0px"
	 y="0px" viewBox="0 0 24 24" style="enable-background:new 0 0 24 24;" xml:space="preserve">
<path style="fill:#333333;" d="M21.25,19h-0.5c0-4.603-3.742-9.75-8.75-9.75S3.25,14.397,3.25,19h-0.5
	c0-4.839,3.956-10.25,9.25-10.25S21.25,14.161,21.25,19z"/>
<rect x="5" y="6.75" style="fill:#333333;" width="5" height="0.5"/>
<rect x="14" y="6.75" style="fill:#333333;" width="5" height="0.5"/>
<path style="fill:#333333;" d="M12,9.25c-1.241,0-2.25-1.009-2.25-2.25S10.759,4.75,12,4.75c1.24,0,2.25,1.009,2.25,2.25
	S13.24,9.25,12,9.25z M12,5.25c-0.965,0-1.75,0.785-1.75,1.75S11.035,8.75,12,8.75S13.75,7.965,13.75,7S12.965,5.25,12,5.25z"/>
<path style="fill:#333333;" d="M14.25,9.25h-4.5v-4.5h4.5V9.25z M10.25,8.75h3.5v-3.5h-3.5V8.75z"/>
<path style="fill:#333333;" d="M22.25,8.75h-3.5v-3.5h3.5V8.75z M19.25,8.25h2.5v-2.5h-2.5V8.25z"/>
<path style="fill:#333333;" d="M5.25,8.75h-3.5v-3.5h3.5V8.75z M2.25,8.25h2.5v-2.5h-2.5V8.25z"/>
</svg>






