<?xml version="1.0" encoding="iso-8859-1"?>
<svg version="1.1" id="&#x56FE;&#x5C42;_1" xmlns="http://www.w3.org/2000/svg" xmlns:xlink="http://www.w3.org/1999/xlink" x="0px"
	 y="0px" viewBox="0 0 24 24" style="enable-background:new 0 0 24 24;" xml:space="preserve">
<path style="fill:#333333;" d="M22.227,18.25H1.773l0.027-0.274C2.323,12.716,6.708,8.75,12,8.75c5.293,0,9.678,3.966,10.199,9.226
	L22.227,18.25z M2.329,17.75H21.67c-0.618-4.865-4.728-8.5-9.67-8.5C7.058,9.25,2.949,12.885,2.329,17.75z"/>
<rect x="5.75" y="6.234" transform="matrix(0.8682 -0.4961 0.4961 0.8682 -3.3026 4.0638)" style="fill:#333333;" width="0.5" height="4.031"/>
<rect x="15.484" y="8" transform="matrix(0.4966 -0.868 0.868 0.4966 1.6492 19.3434)" style="fill:#333333;" width="4.031" height="0.5"/>
<circle style="fill:#333333;" cx="7.5" cy="14.5" r="1"/>
<circle style="fill:#333333;" cx="16.5" cy="14.5" r="1"/>
</svg>






