<?xml version="1.0" encoding="iso-8859-1"?>
<svg version="1.1" id="&#x56FE;&#x5C42;_1" xmlns="http://www.w3.org/2000/svg" xmlns:xlink="http://www.w3.org/1999/xlink" x="0px"
	 y="0px" viewBox="0 0 24 24" style="enable-background:new 0 0 24 24;" xml:space="preserve">
<path style="fill:#333333;" d="M21,20.75H3c-0.689,0-1.25-0.561-1.25-1.25v-11c0-0.689,0.561-1.25,1.25-1.25h18
	c0.689,0,1.25,0.561,1.25,1.25v11C22.25,20.189,21.689,20.75,21,20.75z M3,7.75c-0.414,0-0.75,0.336-0.75,0.75v11
	c0,0.413,0.336,0.75,0.75,0.75h18c0.413,0,0.75-0.337,0.75-0.75v-11c0-0.414-0.337-0.75-0.75-0.75H3z"/>
<path style="fill:#333333;" d="M16,7.75H8L7.823,7.323L12,3.146l4.177,4.177L16,7.75z M8.604,7.25h6.793L12,3.854L8.604,7.25z"/>
<rect x="6" y="11.75" style="fill:#333333;" width="9" height="0.5"/>
<rect x="6" y="15.75" style="fill:#333333;" width="4" height="0.5"/>
</svg>






