<?xml version="1.0" encoding="iso-8859-1"?>
<svg version="1.1" id="&#x56FE;&#x5C42;_1" xmlns="http://www.w3.org/2000/svg" xmlns:xlink="http://www.w3.org/1999/xlink" x="0px"
	 y="0px" viewBox="0 0 24 24" style="enable-background:new 0 0 24 24;" xml:space="preserve">
<path style="fill:#333333;" d="M12.847,21.251c-0.276,0-0.559-0.001-0.849-0.003h0C2.915,21.155,1.75,20.19,1.75,19.36
	C1.75,17.573,9.722,8.751,12,8.751c2.39,0,10.25,8.741,10.25,10.609c0,0.235-0.097,0.451-0.288,0.642
	C21.115,20.842,18.13,21.251,12.847,21.251z M12.002,20.748c6.962,0.051,9.071-0.568,9.607-1.102
	c0.095-0.094,0.141-0.188,0.141-0.286c0-1.625-7.688-10.109-9.75-10.109c-2.011,0-9.75,8.628-9.75,10.109
	C2.25,19.662,2.954,20.655,12.002,20.748L12.002,20.748z"/>
<rect x="8.213" y="15.666" transform="matrix(0.6408 -0.7677 0.7677 0.6408 -8.7612 13.1072)" style="fill:#333333;" width="2.825" height="0.5"/>
<path style="fill:#333333;" d="M12.25,5.5c0.69,0,1.25-0.56,1.25-1.25C13.5,3.56,12.94,3,12.25,3S11,3.56,11,4.25
	C11,4.94,11.56,5.5,12.25,5.5z"/>
<path style="fill:#333333;" d="M17,8c0.552,0,1-0.448,1-1c0-0.552-0.448-1-1-1s-1,0.448-1,1C16,7.552,16.448,8,17,8z"/>
<path style="fill:#333333;" d="M6,10.5c0.552,0,1-0.448,1-1c0-0.552-0.448-1-1-1s-1,0.448-1,1C5,10.052,5.448,10.5,6,10.5z"/>
<path style="fill:#333333;" d="M8.75,7.5c0.414,0,0.75-0.336,0.75-0.75C9.5,6.336,9.164,6,8.75,6S8,6.336,8,6.75
	C8,7.164,8.336,7.5,8.75,7.5z"/>
</svg>






