<?xml version="1.0" encoding="iso-8859-1"?>
<svg version="1.1" id="&#x56FE;&#x5C42;_1" xmlns="http://www.w3.org/2000/svg" xmlns:xlink="http://www.w3.org/1999/xlink" x="0px"
	 y="0px" viewBox="0 0 24 24" style="enable-background:new 0 0 24 24;" xml:space="preserve">
<path style="fill:#333333;" d="M16.904,6.25H7.096l1.75-3.5h6.309L16.904,6.25z M7.904,5.75h8.191l-1.25-2.5H9.154L7.904,5.75z"/>
<path style="fill:#333333;" d="M20.5,21.25h-17c-0.965,0-1.75-0.74-1.75-1.65V7.4c0-0.91,0.785-1.65,1.75-1.65h17
	c0.965,0,1.75,0.74,1.75,1.65v12.2C22.25,20.51,21.465,21.25,20.5,21.25z M3.5,6.25c-0.689,0-1.25,0.516-1.25,1.15v12.2
	c0,0.635,0.561,1.15,1.25,1.15h17c0.689,0,1.25-0.516,1.25-1.15V7.4c0-0.634-0.561-1.15-1.25-1.15H3.5z"/>
<polygon style="fill:#333333;" points="15.276,17.111 12,10.559 8.724,17.111 8.276,16.889 12,9.441 15.724,16.889 "/>
<rect x="9.5" y="14.77" style="fill:#333333;" width="5" height="0.5"/>
</svg>






