<?xml version="1.0" encoding="iso-8859-1"?>
<svg version="1.1" id="&#x56FE;&#x5C42;_1" xmlns="http://www.w3.org/2000/svg" xmlns:xlink="http://www.w3.org/1999/xlink" x="0px"
	 y="0px" viewBox="0 0 24 24" style="enable-background:new 0 0 24 24;" xml:space="preserve">
<path style="fill:#333333;" d="M17,12.854L11.146,7l1.677-1.677c0.862-0.861,3.77-2.085,5.854,0c2.085,2.084,0.861,4.992,0,5.854
	L17,12.854z M11.854,7L17,12.146l1.323-1.323c0.567-0.567,1.957-3.189,0-5.146c-1.956-1.958-4.578-0.566-5.146,0L11.854,7z"/>
<rect x="17.982" y="4" transform="matrix(0.7071 -0.7071 0.7071 0.7071 2.7794 15.2102)" style="fill:#333333;" width="3.536" height="0.5"/>
<path style="fill:#333333;" d="M8.084,19.825c-0.928,0-1.913-0.3-2.761-1.148c-2.084-2.085-0.861-4.992,0-5.854L7,11.146L12.854,17
	l-1.677,1.677C10.666,19.188,9.436,19.825,8.084,19.825z M7,11.854l-1.323,1.323c-0.567,0.567-1.957,3.189,0,5.146
	c1.957,1.956,4.579,0.567,5.146,0L12.146,17L7,11.854z"/>
<rect x="11.086" y="14.75" transform="matrix(0.7071 -0.7071 0.7071 0.7071 -6.9454 13.2322)" style="fill:#333333;" width="2.828" height="0.5"/>
<rect x="2.482" y="19.5" transform="matrix(0.7071 -0.7071 0.7071 0.7071 -12.7206 8.7898)" style="fill:#333333;" width="3.536" height="0.5"/>
<rect x="7.586" y="11.25" transform="matrix(0.7071 -0.7071 0.7071 0.7071 -5.4957 9.7322)" style="fill:#333333;" width="2.828" height="0.5"/>
</svg>






