<?xml version="1.0" encoding="iso-8859-1"?>
<svg version="1.1" id="&#x56FE;&#x5C42;_1" xmlns="http://www.w3.org/2000/svg" xmlns:xlink="http://www.w3.org/1999/xlink" x="0px"
	 y="0px" viewBox="0 0 24 24" style="enable-background:new 0 0 24 24;" xml:space="preserve">
<path style="fill:#333333;" d="M19.5,21.25h-15c-0.965,0-1.75-0.785-1.75-1.75v-15c0-0.965,0.785-1.75,1.75-1.75h15
	c0.965,0,1.75,0.785,1.75,1.75v15C21.25,20.465,20.465,21.25,19.5,21.25z M4.5,3.25c-0.689,0-1.25,0.561-1.25,1.25v15
	c0,0.689,0.561,1.25,1.25,1.25h15c0.689,0,1.25-0.561,1.25-1.25v-15c0-0.689-0.561-1.25-1.25-1.25H4.5z"/>
<rect x="7.374" y="10.031" transform="matrix(0.5079 -0.8614 0.8614 0.5079 -3.0664 15.195)" style="fill:#333333;" width="8.784" height="0.5"/>
<rect x="7.304" y="16.906" transform="matrix(0.5079 -0.8614 0.8614 0.5079 -10.988 15.0788)" style="fill:#333333;" width="0.799" height="0.5"/>
<rect x="6" y="14.25" style="fill:#333333;" width="5.5" height="0.5"/>
<rect x="15" y="14.25" style="fill:#333333;" width="3" height="0.5"/>
<rect x="10.344" y="6.181" transform="matrix(0.8437 -0.5369 0.5369 0.8437 -2.7562 6.9724)" style="fill:#333333;" width="0.5" height="4.075"/>
<polygon style="fill:#333333;" points="16.289,17.634 13.227,12.821 13.648,12.554 16.711,17.366 "/>
</svg>






