<?xml version="1.0" encoding="iso-8859-1"?>
<svg version="1.1" id="&#x56FE;&#x5C42;_1" xmlns="http://www.w3.org/2000/svg" xmlns:xlink="http://www.w3.org/1999/xlink" x="0px"
	 y="0px" viewBox="0 0 24 24" style="enable-background:new 0 0 24 24;" xml:space="preserve">
<path style="fill:#333333;" d="M11.956,5.659c0.041-1.116,0.354-2.096,0.933-2.915c0.582-0.823,1.543-1.408,2.859-1.74
	c0.009,0.041,0.018,0.081,0.027,0.121v0.212c0,0.481-0.117,1.032-0.347,1.638c-0.241,0.587-0.618,1.14-1.119,1.638
	c-0.468,0.439-0.901,0.73-1.284,0.862c-0.126,0.038-0.3,0.075-0.509,0.108C12.33,5.613,12.143,5.638,11.956,5.659z"/>
<path style="fill:#333333;" d="M15.774,21.5c-0.497,0-1.086-0.198-1.708-0.409c-0.648-0.219-1.319-0.445-1.892-0.445
	c-0.551,0-1.132,0.216-1.694,0.425c-0.568,0.211-1.155,0.43-1.726,0.43c-1.127,0-1.853-0.858-2.202-1.271l-0.056-0.065
	C5.566,19.087,3.454,16.191,3.454,12c0-4.553,2.905-6.25,4.736-6.25c0.792,0,1.455,0.347,2.095,0.683
	c0.62,0.325,1.206,0.632,1.89,0.632c0.666,0,1.281-0.294,1.932-0.605C14.836,6.11,15.59,5.75,16.5,5.75
	c1.185,0,2.233,0.584,3.118,1.735l0.141,0.183l-0.171,0.155c-1.219,1.103-1.837,2.508-1.837,4.177c0,2.511,1.812,3.59,2.495,3.996
	l0.176,0.104l-0.067,0.193c-0.453,1.288-1.731,3.381-2.392,4.062C17.321,21.021,16.857,21.5,15.774,21.5z M12.175,20.146
	c0.654,0,1.364,0.24,2.052,0.472C14.809,20.814,15.359,21,15.774,21c0.836,0,1.165-0.304,1.829-0.991
	c0.583-0.602,1.729-2.466,2.208-3.69c-0.803-0.493-2.561-1.737-2.561-4.318c0-1.736,0.615-3.21,1.829-4.387
	C18.32,6.696,17.475,6.25,16.5,6.25c-0.797,0-1.499,0.335-2.178,0.66c-0.673,0.322-1.368,0.654-2.147,0.654
	c-0.807,0-1.476-0.35-2.122-0.689C9.439,6.554,8.86,6.25,8.19,6.25c-1.099,0-4.236,1.056-4.236,5.75c0,4.023,2.027,6.802,2.898,7.81
	l0.082,0.097C7.235,20.261,7.859,21,8.755,21c0.481,0,1.001-0.193,1.552-0.398C10.91,20.378,11.533,20.146,12.175,20.146z"/>
</svg>






