<?xml version="1.0" encoding="iso-8859-1"?>
<svg version="1.1" id="&#x56FE;&#x5C42;_1" xmlns="http://www.w3.org/2000/svg" xmlns:xlink="http://www.w3.org/1999/xlink" x="0px"
	 y="0px" viewBox="0 0 24 24" style="enable-background:new 0 0 24 24;" xml:space="preserve">
<path style="fill:#333333;" d="M20.823,21.177l-4.5-4.5l0.354-0.354l4.5,4.5L20.823,21.177z M7.323,7.677l-4.5-4.5l0.354-0.354
	l4.5,4.5L7.323,7.677z"/>
<path style="fill:#333333;" d="M3.177,21.177l-0.354-0.354l4.5-4.5l0.354,0.354L3.177,21.177z M16.677,7.677l-0.354-0.354l4.5-4.5
	l0.354,0.354L16.677,7.677z"/>
<path style="fill:#333333;" d="M12,14.75c-1.517,0-2.75-1.233-2.75-2.75S10.483,9.25,12,9.25s2.75,1.233,2.75,2.75
	S13.517,14.75,12,14.75z M12,9.75c-1.241,0-2.25,1.009-2.25,2.25c0,1.24,1.009,2.25,2.25,2.25c1.24,0,2.25-1.01,2.25-2.25
	C14.25,10.759,13.24,9.75,12,9.75z"/>
</svg>






