<?xml version="1.0" encoding="iso-8859-1"?>
<svg version="1.1" id="&#x56FE;&#x5C42;_1" xmlns="http://www.w3.org/2000/svg" xmlns:xlink="http://www.w3.org/1999/xlink" x="0px"
	 y="0px" viewBox="0 0 24 24" style="enable-background:new 0 0 24 24;" xml:space="preserve">
<path style="fill:#333333;" d="M5,7c1.105,0,2-0.895,2-2c0-1.105-0.895-2-2-2C3.895,3,3,3.895,3,5C3,6.105,3.895,7,5,7z"/>
<path style="fill:#333333;" d="M12,7c1.105,0,2-0.895,2-2c0-1.105-0.895-2-2-2s-2,0.895-2,2C10,6.105,10.895,7,12,7z"/>
<path style="fill:#333333;" d="M19,7c1.105,0,2-0.895,2-2c0-1.105-0.895-2-2-2s-2,0.895-2,2C17,6.105,17.895,7,19,7z"/>
<path style="fill:#333333;" d="M5,14c1.105,0,2-0.895,2-2s-0.895-2-2-2c-1.105,0-2,0.895-2,2S3.895,14,5,14z"/>
<path style="fill:#333333;" d="M12,14c1.105,0,2-0.895,2-2s-0.895-2-2-2s-2,0.895-2,2S10.895,14,12,14z"/>
<path style="fill:#333333;" d="M19,14c1.105,0,2-0.895,2-2s-0.895-2-2-2s-2,0.895-2,2S17.895,14,19,14z"/>
<path style="fill:#333333;" d="M5,21c1.105,0,2-0.895,2-2s-0.895-2-2-2c-1.105,0-2,0.895-2,2S3.895,21,5,21z"/>
<path style="fill:#333333;" d="M12,21c1.105,0,2-0.895,2-2s-0.895-2-2-2s-2,0.895-2,2S10.895,21,12,21z"/>
<path style="fill:#333333;" d="M19,21c1.105,0,2-0.895,2-2s-0.895-2-2-2s-2,0.895-2,2S17.895,21,19,21z"/>
</svg>






