<?xml version="1.0" encoding="iso-8859-1"?>
<svg version="1.1" id="&#x56FE;&#x5C42;_1" xmlns="http://www.w3.org/2000/svg" xmlns:xlink="http://www.w3.org/1999/xlink" x="0px"
	 y="0px" viewBox="0 0 24 24" style="enable-background:new 0 0 24 24;" xml:space="preserve">
<path style="fill:#333333;" d="M17.25,10.25c-1.93,0-3.5-1.57-3.5-3.5s1.57-3.5,3.5-3.5s3.5,1.57,3.5,3.5S19.18,10.25,17.25,10.25z
	 M17.25,3.75c-1.654,0-3,1.346-3,3s1.346,3,3,3s3-1.346,3-3S18.904,3.75,17.25,3.75z"/>
<path style="fill:#333333;" d="M17.25,20.75c-1.93,0-3.5-1.57-3.5-3.5s1.57-3.5,3.5-3.5s3.5,1.57,3.5,3.5S19.18,20.75,17.25,20.75z
	 M17.25,14.25c-1.654,0-3,1.346-3,3s1.346,3,3,3s3-1.346,3-3S18.904,14.25,17.25,14.25z"/>
<path style="fill:#333333;" d="M6.75,10.25c-1.93,0-3.5-1.57-3.5-3.5s1.57-3.5,3.5-3.5s3.5,1.57,3.5,3.5S8.68,10.25,6.75,10.25z
	 M6.75,3.75c-1.654,0-3,1.346-3,3s1.346,3,3,3s3-1.346,3-3S8.404,3.75,6.75,3.75z"/>
<path style="fill:#333333;" d="M6.75,20.75c-1.93,0-3.5-1.57-3.5-3.5s1.57-3.5,3.5-3.5s3.5,1.57,3.5,3.5S8.68,20.75,6.75,20.75z
	 M6.75,14.25c-1.654,0-3,1.346-3,3s1.346,3,3,3s3-1.346,3-3S8.404,14.25,6.75,14.25z"/>
</svg>






