<?xml version="1.0" encoding="iso-8859-1"?>
<svg version="1.1" id="&#x56FE;&#x5C42;_1" xmlns="http://www.w3.org/2000/svg" xmlns:xlink="http://www.w3.org/1999/xlink" x="0px"
	 y="0px" viewBox="0 0 24 24" style="enable-background:new 0 0 24 24;" xml:space="preserve">
<path style="fill:#333333;" d="M16,22.194c-1.539,0-3.02-0.565-4.167-1.591l0.333-0.373c1.056,0.944,2.417,1.464,3.833,1.464
	c3.171,0,5.75-2.579,5.75-5.75c0-2.48-1.58-4.673-3.932-5.456l0.158-0.475c2.556,0.852,4.273,3.234,4.273,5.931
	C22.25,19.391,19.446,22.194,16,22.194z"/>
<path style="fill:#333333;" d="M8,22.194c-3.446,0-6.25-2.804-6.25-6.25c0-2.705,1.726-5.091,4.293-5.937l0.156,0.475
	c-2.362,0.778-3.95,2.973-3.95,5.462c0,3.171,2.58,5.75,5.75,5.75c3.171,0,5.75-2.579,5.75-5.75c0-0.725-0.134-1.432-0.396-2.104
	l0.465-0.182c0.286,0.729,0.432,1.498,0.432,2.285C14.25,19.391,11.446,22.194,8,22.194z"/>
<path style="fill:#333333;" d="M12,14.194c-3.446,0-6.25-2.804-6.25-6.25c0-3.446,2.804-6.25,6.25-6.25s6.25,2.804,6.25,6.25
	C18.25,11.391,15.446,14.194,12,14.194z M12,2.194c-3.17,0-5.75,2.58-5.75,5.75c0,3.17,2.58,5.75,5.75,5.75
	c3.171,0,5.75-2.579,5.75-5.75C17.75,4.774,15.171,2.194,12,2.194z"/>
</svg>






