<?xml version="1.0" encoding="iso-8859-1"?>
<svg version="1.1" id="&#x56FE;&#x5C42;_1" xmlns="http://www.w3.org/2000/svg" xmlns:xlink="http://www.w3.org/1999/xlink" x="0px"
	 y="0px" viewBox="0 0 24 24" style="enable-background:new 0 0 24 24;" xml:space="preserve">
<path style="fill:#333333;" d="M8.758,21.679c-0.319,0-0.65-0.053-0.985-0.2c-1.134-0.5-1.789-1.142-2.658-2.062
	c-1.591-1.687-2.365-3.943-2.365-6.901c0-2.683,0.624-4.491,1.963-5.69C5.879,5.779,6.657,5.53,8.044,5.76
	c0.654,0.108,1.332,0.526,1.987,0.931c0.686,0.423,1.395,0.86,1.973,0.86c0.521,0,0.974-0.354,1.498-0.766
	c0.551-0.432,1.176-0.921,1.993-1.027c1.578-0.204,2.358,0.023,3.63,1.058c1.47,1.195,2.125,2.953,2.125,5.698
	c0,3.021-0.765,5.299-2.337,6.967c-0.832,0.882-1.538,1.491-2.687,1.997c-0.667,0.294-1.312,0.209-1.914,0.076
	c-0.27-0.061-0.505-0.19-0.753-0.327c-0.417-0.23-0.847-0.468-1.56-0.468c-0.729,0-1.181,0.252-1.579,0.475
	c-0.24,0.134-0.466,0.261-0.723,0.319C9.408,21.621,9.09,21.679,8.758,21.679z M12,20.26c0.842,0,1.373,0.294,1.801,0.53
	c0.226,0.124,0.421,0.231,0.621,0.276c0.599,0.133,1.101,0.177,1.604-0.045c1.075-0.475,1.717-1.028,2.524-1.884
	c1.48-1.569,2.2-3.736,2.2-6.623c0-2.581-0.599-4.219-1.941-5.311c-1.166-0.95-1.807-1.136-3.249-0.949
	c-0.682,0.088-1.225,0.513-1.749,0.924c-0.548,0.429-1.113,0.872-1.807,0.872c-0.72,0-1.49-0.475-2.235-0.935
	C9.154,6.738,8.52,6.346,7.962,6.253C6.726,6.048,6.101,6.252,5.047,7.196C3.821,8.294,3.25,9.984,3.25,12.515
	c0,2.824,0.729,4.969,2.228,6.558c0.828,0.877,1.449,1.486,2.497,1.949c0.436,0.193,0.918,0.206,1.611,0.046
	c0.188-0.044,0.375-0.148,0.591-0.27C10.606,20.559,11.141,20.26,12,20.26z"/>
<path style="fill:#333333;" d="M12.254,7.827l-0.498-0.051c0.405-3.999,2.171-6.026,5.25-6.026h0.181l0.057,0.171
	c0.281,0.849,0.354,1.685,0.218,2.484c-0.067,0.391-0.263,0.918-0.597,1.614l-0.451-0.217c0.311-0.645,0.497-1.143,0.556-1.482
	c0.113-0.664,0.063-1.358-0.146-2.068C14.121,2.331,12.625,4.156,12.254,7.827z"/>
<path style="fill:#333333;" d="M7.835,16.918c-0.492-0.423-0.817-1.026-0.966-1.792c-0.144-0.742-0.144-1.475,0-2.176l0.49,0.101
	c-0.131,0.637-0.131,1.303,0,1.979c0.127,0.653,0.396,1.16,0.801,1.509L7.835,16.918z"/>
</svg>






