<?xml version="1.0" encoding="iso-8859-1"?>
<svg version="1.1" id="&#x56FE;&#x5C42;_1" xmlns="http://www.w3.org/2000/svg" xmlns:xlink="http://www.w3.org/1999/xlink" x="0px"
	 y="0px" viewBox="0 0 24 24" style="enable-background:new 0 0 24 24;" xml:space="preserve">
<path style="fill:#333333;" d="M20.25,22.25h-5.5V14.5c0-1.517-1.233-2.75-2.75-2.75s-2.75,1.233-2.75,2.75v7.75h-5.5V7.75h16.5
	V22.25z M15.25,21.75h4.5V8.25H4.25v13.5h4.5V14.5c0-1.792,1.458-3.25,3.25-3.25s3.25,1.458,3.25,3.25V21.75z"/>
<path style="fill:#333333;" d="M20,8.25H4c-0.965,0-1.75-0.785-1.75-1.75V4.75h19.5V6.5C21.75,7.465,20.965,8.25,20,8.25z
	 M2.75,5.25V6.5c0,0.689,0.561,1.25,1.25,1.25h16c0.689,0,1.25-0.561,1.25-1.25V5.25H2.75z"/>
<rect x="2.5" y="1.75" style="fill:#333333;" width="19" height="0.5"/>
<rect x="3.75" y="2" style="fill:#333333;" width="0.5" height="2.5"/>
<rect x="19.75" y="2" style="fill:#333333;" width="0.5" height="2.5"/>
<rect x="4" y="13.75" style="fill:#333333;" width="5" height="0.5"/>
<rect x="15" y="13.75" style="fill:#333333;" width="5" height="0.5"/>
</svg>






