<?xml version="1.0" encoding="iso-8859-1"?>
<svg version="1.1" id="&#x56FE;&#x5C42;_1" xmlns="http://www.w3.org/2000/svg" xmlns:xlink="http://www.w3.org/1999/xlink" x="0px"
	 y="0px" viewBox="0 0 24 24" style="enable-background:new 0 0 24 24;" xml:space="preserve">
<g>
	<defs>
		<rect id="SVGID_1_" width="24" height="24"/>
	</defs>
	<clipPath id="SVGID_00000084532091449662432540000008587222631531854259_">
		<use xlink:href="#SVGID_1_"  style="overflow:visible;"/>
	</clipPath>
	<g style="clip-path:url(#SVGID_00000084532091449662432540000008587222631531854259_);">
		<path style="fill:#333333;" d="M20.376,22.205l-0.787-0.157c-0.52-0.104-0.972-0.446-1.273-0.964
			c-0.392-0.672-0.49-1.574-0.251-2.301c0.967-2.951,0.224-6.801-0.142-8.32c-0.099-0.411-0.427-0.733-0.857-0.841L15.935,9.34
			c-0.628-0.157-1.116-0.645-1.273-1.273l-0.282-1.132c-0.108-0.43-0.431-0.759-0.842-0.857C12.019,5.713,8.165,4.97,5.218,5.937
			C4.49,6.175,3.587,6.076,2.917,5.685c-0.518-0.302-0.86-0.754-0.964-1.273L1.795,3.625l0.49-0.098l0.157,0.787
			C2.54,4.797,2.891,5.091,3.168,5.253c0.553,0.323,1.298,0.405,1.893,0.208c3.071-1.007,7.031-0.245,8.593,0.129
			c0.593,0.143,1.057,0.611,1.209,1.223l0.282,1.131c0.113,0.449,0.462,0.797,0.91,0.909l1.131,0.283
			c0.612,0.153,1.08,0.616,1.223,1.209c0.375,1.56,1.138,5.52,0.13,8.593c-0.196,0.597-0.114,1.339,0.208,1.893
			c0.162,0.277,0.456,0.629,0.939,0.726l0.787,0.157L20.376,22.205z"/>
		
			<rect x="10.75" y="2.186" transform="matrix(0.7071 -0.7071 0.7071 0.7071 -6.3241 11.7322)" style="fill:#333333;" width="0.5" height="22.627"/>
		
			<rect x="2.79" y="10" transform="matrix(0.7071 -0.7071 0.7071 0.7071 -3.2206 12.7249)" style="fill:#333333;" width="21.92" height="0.5"/>
	</g>
</g>
</svg>






