<?xml version="1.0" encoding="iso-8859-1"?>
<svg version="1.1" id="&#x56FE;&#x5C42;_1" xmlns="http://www.w3.org/2000/svg" xmlns:xlink="http://www.w3.org/1999/xlink" x="0px"
	 y="0px" viewBox="0 0 24 24" style="enable-background:new 0 0 24 24;" xml:space="preserve">
<path style="fill:#333333;" d="M22.25,21.25H1.75v-7.428l4.17,2.347l2.978-4.466l3.023,1.007l3.551-4.058l3,2.5l3.339-3.816
	L22.25,7.5V21.25z M2.25,20.75h19.5V8.166l-3.223,3.683l-3-2.5l-3.448,3.942l-2.977-0.992L6.08,16.831l-3.83-2.153V20.75z"/>
<polygon style="fill:#333333;" points="2.25,14.25 1.75,14.25 1.75,8.5 2.163,8.31 5.452,11.129 8.167,7.179 11.196,8.693 
	15.479,4.159 18.233,6.413 21.823,2.823 22.25,3 22.25,7.75 21.75,7.75 21.75,3.604 18.267,7.087 15.521,4.841 11.304,9.307 
	8.333,7.821 5.548,11.871 2.25,9.043 "/>
</svg>






