<?xml version="1.0" encoding="iso-8859-1"?>
<svg version="1.1" id="&#x56FE;&#x5C42;_1" xmlns="http://www.w3.org/2000/svg" xmlns:xlink="http://www.w3.org/1999/xlink" x="0px"
	 y="0px" viewBox="0 0 24 24" style="enable-background:new 0 0 24 24;" xml:space="preserve">
<path style="fill:#333333;" d="M12.111,18.224h-0.223l-10-5v-0.447l10-5h0.223l10,5v0.447L12.111,18.224z M2.559,13L12,17.721
	L21.441,13L12,8.279L2.559,13z"/>
<path style="fill:#333333;" d="M12.111,13.724h-0.223l-10-5V8.276l10-5h0.223l10,5v0.447L12.111,13.724z M2.559,8.5L12,13.221
	L21.441,8.5L12,3.779L2.559,8.5z"/>
<path style="fill:#333333;" d="M12.111,22.224h-0.223l-10-5L1.75,17v-4l0.362-0.224L12,17.721l9.889-4.944L22.25,13v4l-0.139,0.224
	L12.111,22.224z M2.25,16.846L12,21.721l9.75-4.875v-3.441l-9.639,4.819h-0.223L2.25,13.404V16.846z"/>
<rect x="21.75" y="7" style="fill:#333333;" width="0.5" height="6"/>
<rect x="1.75" y="7" style="fill:#333333;" width="0.5" height="6"/>
<rect x="11.75" y="12" style="fill:#333333;" width="0.5" height="6"/>
<rect x="11.75" y="2" style="fill:#333333;" width="0.5" height="6"/>
</svg>






