<?xml version="1.0" encoding="iso-8859-1"?>
<svg version="1.1" id="&#x56FE;&#x5C42;_1" xmlns="http://www.w3.org/2000/svg" xmlns:xlink="http://www.w3.org/1999/xlink" x="0px"
	 y="0px" viewBox="0 0 24 24" style="enable-background:new 0 0 24 24;" xml:space="preserve">
<path style="fill:#333333;" d="M12.25,21.009h-0.5c-0.405-12.145-3.299-15.934-4.524-17C6.587,3.453,5.921,3.192,5.302,3.26
	C3.988,3.437,3.075,4.05,2.597,5.082C1.947,6.484,2.302,8.343,2.965,9.38l-0.421,0.27C1.791,8.472,1.411,6.453,2.144,4.872
	c0.381-0.823,1.229-1.856,3.099-2.107c0.77-0.082,1.565,0.218,2.311,0.867c2.26,1.965,3.828,6.731,4.446,13.341
	c0.618-6.611,2.187-11.376,4.446-13.341c0.746-0.648,1.544-0.948,2.304-0.868c1.877,0.252,2.725,1.285,3.106,2.108
	c0.732,1.581,0.353,3.6-0.4,4.778l-0.422-0.27c0.664-1.037,1.019-2.896,0.368-4.298c-0.479-1.032-1.391-1.645-2.712-1.822
	c-0.61-0.065-1.277,0.194-1.916,0.75C15.549,5.074,12.655,8.864,12.25,21.009z"/>
</svg>






