<?xml version="1.0" encoding="iso-8859-1"?>
<svg version="1.1" id="&#x56FE;&#x5C42;_1" xmlns="http://www.w3.org/2000/svg" xmlns:xlink="http://www.w3.org/1999/xlink" x="0px"
	 y="0px" viewBox="0 0 24 24" style="enable-background:new 0 0 24 24;" xml:space="preserve">
<path style="fill:#333333;" d="M20.5,22.25h-17c-0.965,0-1.75-0.785-1.75-1.75v-17c0-0.965,0.785-1.75,1.75-1.75h17
	c0.965,0,1.75,0.785,1.75,1.75v17C22.25,21.465,21.465,22.25,20.5,22.25z M3.5,2.25c-0.689,0-1.25,0.561-1.25,1.25v17
	c0,0.689,0.561,1.25,1.25,1.25h17c0.689,0,1.25-0.561,1.25-1.25v-17c0-0.689-0.561-1.25-1.25-1.25H3.5z"/>
<rect x="5" y="6.75" style="fill:#333333;" width="4" height="0.5"/>
<rect x="5" y="6.75" style="fill:#333333;" width="4" height="0.5"/>
<rect x="4.879" y="16.75" transform="matrix(0.7071 -0.7071 0.7071 0.7071 -9.9706 9.9289)" style="fill:#333333;" width="4.243" height="0.5"/>
<rect x="6.75" y="5" style="fill:#333333;" width="0.5" height="4"/>
<rect x="6.75" y="14.879" transform="matrix(0.7071 -0.7071 0.7071 0.7071 -9.9706 9.9289)" style="fill:#333333;" width="0.5" height="4.243"/>
<rect x="15" y="6.75" style="fill:#333333;" width="4" height="0.5"/>
<rect x="15" y="15.25" style="fill:#333333;" width="4" height="0.5"/>
<rect x="15" y="18.25" style="fill:#333333;" width="4" height="0.5"/>
<rect x="11.75" y="2" style="fill:#333333;" width="0.5" height="20"/>
<rect x="2" y="11.75" style="fill:#333333;" width="20" height="0.5"/>
<rect x="9" y="1.75" style="fill:#333333;" width="6" height="0.5"/>
<rect x="9" y="21.75" style="fill:#333333;" width="6" height="0.5"/>
<rect x="1.75" y="10" style="fill:#333333;" width="0.5" height="4"/>
<rect x="21.75" y="10" style="fill:#333333;" width="0.5" height="4"/>
</svg>






