<?xml version="1.0" encoding="iso-8859-1"?>
<svg version="1.1" id="&#x56FE;&#x5C42;_1" xmlns="http://www.w3.org/2000/svg" xmlns:xlink="http://www.w3.org/1999/xlink" x="0px"
	 y="0px" viewBox="0 0 24 24" style="enable-background:new 0 0 24 24;" xml:space="preserve">
<path style="fill:none;" d="M7,2h10v10H7V2z"/>
<path style="fill:none;" d="M2,12h10v10H2V12z"/>
<path style="fill:none;" d="M12,12h10v10H12V12z"/>
<path style="fill:#333333;" d="M22.25,22.25H1.75v-10.5h5v-10h10.5v10h5V22.25z M12.25,21.75h9.5v-9.5h-9.5V21.75z M2.25,21.75h9.5
	v-9.5h-9.5V21.75z M7.25,11.75h9.5v-9.5h-9.5V11.75z"/>
<rect x="11.75" y="5" style="fill:#333333;" width="0.5" height="4"/>
<polygon style="fill:#333333;" points="13.823,7.177 12,5.354 10.177,7.177 9.823,6.823 12,4.646 14.177,6.823 "/>
<rect x="5" y="16.75" style="fill:#333333;" width="4" height="0.5"/>
<polygon style="fill:#333333;" points="6.823,19.177 4.646,17 6.823,14.823 7.177,15.177 5.354,17 7.177,18.823 "/>
<rect x="15" y="16.75" style="fill:#333333;" width="4" height="0.5"/>
<polygon style="fill:#333333;" points="17.177,19.177 16.823,18.823 18.646,17 16.823,15.177 17.177,14.823 19.354,17 "/>
</svg>






