<?xml version="1.0" encoding="iso-8859-1"?>
<svg version="1.1" id="&#x56FE;&#x5C42;_1" xmlns="http://www.w3.org/2000/svg" xmlns:xlink="http://www.w3.org/1999/xlink" x="0px"
	 y="0px" viewBox="0 0 24 24" style="enable-background:new 0 0 24 24;" xml:space="preserve">
<path style="fill:#333333;" d="M12,22.25C6.348,22.25,1.75,17.652,1.75,12C1.75,6.348,6.348,1.75,12,1.75
	c5.652,0,10.25,4.598,10.25,10.25C22.25,17.652,17.652,22.25,12,22.25z M12,2.25c-5.376,0-9.75,4.374-9.75,9.75
	s4.374,9.75,9.75,9.75s9.75-4.374,9.75-9.75S17.376,2.25,12,2.25z"/>
<rect x="15.25" y="9" style="fill:#333333;" width="0.5" height="0.5"/>
<rect x="8.25" y="9" style="fill:#333333;" width="0.5" height="0.5"/>
<path style="fill:#333333;" d="M12,18.25c-1.241,0-2.25-1.01-2.25-2.25v-2c0-1.24,1.009-2.25,2.25-2.25c1.24,0,2.25,1.01,2.25,2.25
	v2C14.25,17.24,13.24,18.25,12,18.25z M12,12.25c-0.965,0-1.75,0.785-1.75,1.75v2c0,0.965,0.785,1.75,1.75,1.75
	s1.75-0.785,1.75-1.75v-2C13.75,13.035,12.965,12.25,12,12.25z"/>
</svg>






