<?xml version="1.0" encoding="iso-8859-1"?>
<svg version="1.1" id="&#x56FE;&#x5C42;_1" xmlns="http://www.w3.org/2000/svg" xmlns:xlink="http://www.w3.org/1999/xlink" x="0px"
	 y="0px" viewBox="0 0 24 24" style="enable-background:new 0 0 24 24;" xml:space="preserve">
<path style="fill:#333333;" d="M12,22.25C6.348,22.25,1.75,17.652,1.75,12C1.75,6.348,6.348,1.75,12,1.75
	c5.652,0,10.25,4.598,10.25,10.25h-0.5c0-5.376-4.374-9.75-9.75-9.75S2.25,6.624,2.25,12s4.374,9.75,9.75,9.75
	c2.337,0,4.597-0.839,6.364-2.363l0.326,0.379C16.833,21.367,14.456,22.25,12,22.25z"/>
<path style="fill:#333333;" d="M12,16.25c-2.343,0-4.25-1.906-4.25-4.25c0-2.343,1.907-4.25,4.25-4.25c2.344,0,4.25,1.907,4.25,4.25
	C16.25,14.344,14.344,16.25,12,16.25z M12,8.25c-2.068,0-3.75,1.682-3.75,3.75c0,2.067,1.682,3.75,3.75,3.75
	c2.067,0,3.75-1.683,3.75-3.75C15.75,9.932,14.067,8.25,12,8.25z"/>
<path style="fill:#333333;" d="M19,15.25c-1.792,0-3.25-1.458-3.25-3.25h0.5c0,1.517,1.233,2.75,2.75,2.75s2.75-1.233,2.75-2.75h0.5
	C22.25,13.792,20.792,15.25,19,15.25z"/>
<rect x="15.75" y="8" style="fill:#333333;" width="0.5" height="4.5"/>
</svg>






