<?xml version="1.0" encoding="iso-8859-1"?>
<svg version="1.1" id="&#x56FE;&#x5C42;_1" xmlns="http://www.w3.org/2000/svg" xmlns:xlink="http://www.w3.org/1999/xlink" x="0px"
	 y="0px" viewBox="0 0 24 24" style="enable-background:new 0 0 24 24;" xml:space="preserve">
<path style="fill:#333333;" d="M20.25,18.25H3.75l0.002-4.229c0-0.414,0.337-0.75,0.75-0.75h5.001c0.096,0,0.125-0.006,0.159-0.136
	c0.049-0.19,0.049-0.521,0.049-0.98c0-0.256-0.272-0.55-0.617-0.921c-0.73-0.788-1.834-1.979-1.834-4.308
	c0-3.448,2.531-4.676,4.899-4.676c2.917,0,4.658,1.748,4.658,4.676c0,2.231-0.999,3.301-1.729,4.082
	c-0.396,0.424-0.71,0.76-0.71,1.131c0,0.573,0,1.029,0.052,1.132c0.002-0.004,0.03-0.001,0.089,0H19.5c0.413,0,0.75,0.337,0.75,0.75
	V18.25z M4.25,17.75h15.5v-3.729c0-0.138-0.112-0.25-0.25-0.25h-4.979c-0.641,0-0.641-0.346-0.641-1.632
	c0-0.569,0.392-0.988,0.845-1.473c0.71-0.76,1.594-1.707,1.594-3.741c0-3.77-2.908-4.176-4.158-4.176
	c-1.032,0-4.399,0.301-4.399,4.176c0,2.133,0.983,3.193,1.701,3.968c0.419,0.452,0.75,0.809,0.75,1.246c0,0.512,0,0.869-0.065,1.122
	c-0.087,0.338-0.304,0.51-0.643,0.51H4.502c-0.138,0-0.25,0.112-0.25,0.25L4.25,17.75z"/>
<rect x="4" y="20.75" style="fill:#333333;" width="16" height="0.5"/>
</svg>






