<?xml version="1.0" encoding="iso-8859-1"?>
<svg version="1.1" id="&#x56FE;&#x5C42;_1" xmlns="http://www.w3.org/2000/svg" xmlns:xlink="http://www.w3.org/1999/xlink" x="0px"
	 y="0px" viewBox="0 0 24 24" style="enable-background:new 0 0 24 24;" xml:space="preserve">
<path style="fill:#333333;" d="M12,16.75c-2.619,0-4.75-2.131-4.75-4.75S9.381,7.25,12,7.25s4.75,2.131,4.75,4.75
	S14.619,16.75,12,16.75z M12,7.75c-2.343,0-4.25,1.907-4.25,4.25c0,2.344,1.907,4.25,4.25,4.25c2.344,0,4.25-1.906,4.25-4.25
	C16.25,9.657,14.344,7.75,12,7.75z"/>
<circle style="fill:#333333;" cx="12" cy="12" r="1.5"/>
<path style="fill:#333333;" d="M21.25,12.26l-0.5-0.02c0.01-0.258,0.161-6.343-6.082-8.504c-6.229-2.158-9.81,3.172-9.958,3.4
	L4.291,6.863c0.039-0.059,3.929-5.887,10.542-3.6C21.431,5.548,21.252,12.192,21.25,12.26z"/>
<path style="fill:#333333;" d="M12.3,21.341c-0.802,0-1.672-0.105-2.612-0.349C2.829,19.214,2.75,12.072,2.75,12h0.5
	c0,0.278,0.084,6.828,6.562,8.508c6.477,1.679,9.35-3.411,9.468-3.628l0.439,0.24C19.692,17.169,17.35,21.341,12.3,21.341z"/>
<rect x="20.75" y="4" style="fill:#333333;" width="0.5" height="8"/>
<rect x="2.75" y="12" style="fill:#333333;" width="0.5" height="8"/>
</svg>






