<?xml version="1.0" encoding="iso-8859-1"?>
<svg version="1.1" id="&#x56FE;&#x5C42;_1" xmlns="http://www.w3.org/2000/svg" xmlns:xlink="http://www.w3.org/1999/xlink" x="0px"
	 y="0px" viewBox="0 0 24 24" style="enable-background:new 0 0 24 24;" xml:space="preserve">
<path style="fill:#333333;" d="M21.102,21.75H2.897c-0.356,0-0.646-0.285-0.646-0.635v-0.462c-0.007-0.133-0.021-0.901,0.48-1.737
	c0.31-0.519,0.754-0.963,1.321-1.321c0.675-0.426,1.524-0.728,2.522-0.896c0.086-0.012,0.785-0.107,1.501-0.292
	c0.954-0.244,1.213-0.458,1.262-0.506c0.005-0.016,0.011-0.031,0.017-0.045c0.008-0.068,0.021-0.271-0.021-0.728
	c-0.122-1.338-0.853-2.143-1.44-2.79C7.697,12.12,7.51,11.915,7.36,11.705c-0.628-0.882-0.704-1.878-0.71-1.989
	C6.648,9.242,6.867,8.995,7.042,8.832C6.86,7.958,6.846,6.691,6.989,5.867C7.04,4.78,7.982,3.935,8.09,3.842
	c0.097-0.08,0.191-0.162,0.26-0.243c-0.057-0.14-0.118-0.342-0.069-0.588c0.031-0.156,0.16-0.532,0.693-0.67
	c0.179-0.046,0.365-0.056,0.488-0.062c0.514-0.028,1.02-0.048,1.545-0.008c3.791,0.283,5.135,1.695,5.19,1.755
	c0.331,0.385,0.571,0.85,0.718,1.389c0.047,0.17,0.076,0.312,0.093,0.447c0.132,0.742,0.109,1.511,0.082,2.024
	c-0.017,0.285-0.048,0.581-0.101,0.93c0.095,0.099,0.23,0.247,0.305,0.475c0.038,0.122,0.056,0.245,0.056,0.391
	c-0.006,0.124-0.071,1.124-0.711,2.022c-0.146,0.206-0.33,0.408-0.524,0.622c-0.6,0.661-1.33,1.466-1.451,2.803
	c-0.041,0.455-0.029,0.657-0.021,0.727c0.007,0.015,0.014,0.031,0.019,0.047c0.052,0.051,0.316,0.264,1.267,0.507
	c0.704,0.18,1.395,0.275,1.472,0.286c1.032,0.186,1.892,0.495,2.565,0.923c0.567,0.357,1.011,0.802,1.319,1.318
	c0.48,0.807,0.476,1.532,0.462,1.735l0.001,0.443C21.747,21.465,21.457,21.75,21.102,21.75z M10.382,2.75
	c-0.297,0-0.594,0.013-0.895,0.028C9.378,2.784,9.229,2.791,9.1,2.825c-0.237,0.062-0.31,0.188-0.329,0.283
	C8.743,3.253,8.794,3.369,8.839,3.47c0.023,0.05,0.052,0.135,0.013,0.266l-0.03,0.064C8.717,3.963,8.563,4.1,8.412,4.224
	C8.38,4.252,7.53,4.997,7.485,5.922C7.347,6.732,7.361,7.935,7.517,8.75C7.53,8.819,7.556,8.949,7.496,9.071L7.438,9.147
	c-0.162,0.146-0.29,0.26-0.29,0.553c0.002,0.024,0.062,0.933,0.618,1.714c0.135,0.189,0.319,0.392,0.498,0.587
	c0.638,0.704,1.432,1.578,1.568,3.082c0.051,0.559,0.028,0.8,0.01,0.895l-0.025,0.07c-0.034,0.173-0.28,0.501-1.617,0.843
	c-0.745,0.191-1.47,0.291-1.551,0.302c-0.925,0.156-1.711,0.434-2.33,0.824c-0.5,0.315-0.89,0.704-1.159,1.154
	c-0.426,0.712-0.416,1.348-0.409,1.468l0,0.476c0,0.074,0.065,0.135,0.146,0.135h18.204c0.08,0,0.146-0.061,0.146-0.135v-0.459
	c0.008-0.135,0.024-0.764-0.393-1.464c-0.268-0.448-0.656-0.836-1.157-1.152c-0.619-0.393-1.418-0.679-2.374-0.851
	c-0.07-0.01-0.788-0.108-1.519-0.296c-1.275-0.325-1.555-0.641-1.607-0.8l-0.041-0.115c-0.019-0.094-0.041-0.334,0.01-0.895
	c0.137-1.504,0.93-2.378,1.566-3.08c0.196-0.216,0.37-0.408,0.5-0.589c0.566-0.796,0.616-1.706,0.618-1.745
	c0-0.081-0.011-0.157-0.032-0.227c-0.042-0.129-0.123-0.212-0.194-0.285l-0.068-0.074C16.471,9,16.477,8.868,16.492,8.764
	c0.053-0.343,0.084-0.631,0.099-0.905c0.027-0.488,0.048-1.218-0.076-1.922c-0.017-0.126-0.042-0.247-0.081-0.39
	c-0.127-0.467-0.332-0.867-0.608-1.188c-0.044-0.047-1.258-1.321-4.854-1.588C10.774,2.756,10.578,2.75,10.382,2.75z M8.384,3.677
	c0,0.001,0.001,0.002,0.002,0.004C8.385,3.68,8.384,3.679,8.384,3.677z"/>
</svg>






