<?xml version="1.0" encoding="iso-8859-1"?>
<svg version="1.1" id="&#x56FE;&#x5C42;_1" xmlns="http://www.w3.org/2000/svg" xmlns:xlink="http://www.w3.org/1999/xlink" x="0px"
	 y="0px" viewBox="0 0 24 24" style="enable-background:new 0 0 24 24;" xml:space="preserve">
<polygon style="fill:#333333;" points="22,22.25 1.75,22.25 1.75,2 2.25,2 2.25,21.75 22,21.75 "/>
<path style="fill:#333333;" d="M21.753,19.039C21.727,18.871,19.064,2.25,13.5,2.25S5.273,18.871,5.247,19.039l-0.494-0.078
	C4.863,18.259,7.511,1.75,13.5,1.75c5.989,0,8.637,16.509,8.747,17.211L21.753,19.039z"/>
<path style="fill:#333333;" d="M22,12.25h-1v-0.5h1V12.25z M18,12.25h-1v-0.5h1V12.25z M14,12.25h-1v-0.5h1V12.25z M10,12.25H9v-0.5
	h1V12.25z M6,12.25H5v-0.5h1V12.25z"/>
</svg>






