<?xml version="1.0" encoding="iso-8859-1"?>
<svg version="1.1" id="&#x56FE;&#x5C42;_1" xmlns="http://www.w3.org/2000/svg" xmlns:xlink="http://www.w3.org/1999/xlink" x="0px"
	 y="0px" viewBox="0 0 24 24" style="enable-background:new 0 0 24 24;" xml:space="preserve">
<path style="fill:#333333;" d="M18.104,15.25H16.25v-0.5h1.646l3.5-3.5H5.5c-0.268,0-0.535,0.089-0.75,0.25l-2.278,1.709
	l2.779,1.406c0.175,0.088,0.37,0.135,0.565,0.135H6.5v0.5H5.816c-0.273,0-0.547-0.065-0.791-0.189l-3.497-1.77L4.45,11.1
	c0.302-0.226,0.674-0.35,1.05-0.35H22l0.177,0.427L18.104,15.25z"/>
<path style="fill:#333333;" d="M9.5,17.25H9.25v-3.5H9.5c2.06,0,4.25,0.613,4.25,1.75S11.56,17.25,9.5,17.25z M9.75,14.253v2.494
	c2.02-0.049,3.5-0.68,3.5-1.247S11.77,14.302,9.75,14.253z"/>
<path style="fill:#333333;" d="M18.686,11.25H11l-0.102-0.479l4.458-1.981l3.04-3.041h1.939L18.686,11.25z M12.178,10.75h6.137
	l1.35-4.5h-1.061l-3.002,2.979L12.178,10.75z"/>
</svg>






