<?xml version="1.0" encoding="iso-8859-1"?>
<svg version="1.1" id="&#x56FE;&#x5C42;_1" xmlns="http://www.w3.org/2000/svg" xmlns:xlink="http://www.w3.org/1999/xlink" x="0px"
	 y="0px" viewBox="0 0 24 24" style="enable-background:new 0 0 24 24;" xml:space="preserve">
<path style="fill:#333333;" d="M12,22.25c-3.603,0-7.25-2.318-7.25-6.75c0-2.319,0.876-3.779,1.723-5.191
	c0.274-0.457,0.558-0.93,0.803-1.421C7.541,8.359,7.662,7.57,7.79,6.735C8.13,4.514,8.554,1.75,12,1.75
	c3.48,0,3.891,2.907,4.221,5.242c0.127,0.903,0.248,1.756,0.512,2.415c0.361,0.904,0.784,1.599,1.193,2.27
	c0.71,1.167,1.324,2.176,1.324,3.823C19.25,19.932,15.603,22.25,12,22.25z M12,2.25c-3.017,0-3.372,2.318-3.716,4.561
	C8.15,7.686,8.023,8.513,7.724,9.112c-0.254,0.509-0.543,0.989-0.822,1.454C6.052,11.982,5.25,13.319,5.25,15.5
	c0,4.294,3.499,6.25,6.75,6.25s6.75-1.956,6.75-6.25c0-1.507-0.58-2.459-1.252-3.562c-0.399-0.657-0.854-1.402-1.23-2.345
	c-0.286-0.715-0.41-1.597-0.542-2.531C15.392,4.696,15.046,2.25,12,2.25z"/>
<path style="fill:#333333;" d="M12,18.25c-1.792,0-3.25-1.458-3.25-3.25c0-1.812,1.45-4,3.25-4c1.8,0,3.25,2.188,3.25,4
	C15.25,16.792,13.792,18.25,12,18.25z M12,11.5c-1.481,0-2.75,1.925-2.75,3.5c0,1.517,1.233,2.75,2.75,2.75s2.75-1.233,2.75-2.75
	C14.75,13.425,13.481,11.5,12,11.5z"/>
</svg>






