<?xml version="1.0" encoding="iso-8859-1"?>
<svg version="1.1" id="&#x56FE;&#x5C42;_1" xmlns="http://www.w3.org/2000/svg" xmlns:xlink="http://www.w3.org/1999/xlink" x="0px"
	 y="0px" viewBox="0 0 24 24" style="enable-background:new 0 0 24 24;" xml:space="preserve">
<path style="fill:#333333;" d="M20.5,17.25h-17c-0.689,0-1.25-0.561-1.25-1.25V6c0-0.689,0.561-1.25,1.25-1.25H8v0.5H3.5
	C3.086,5.25,2.75,5.586,2.75,6v10c0,0.413,0.336,0.75,0.75,0.75h17c0.413,0,0.75-0.337,0.75-0.75v-3h0.5v3
	C21.75,16.689,21.189,17.25,20.5,17.25z"/>
<rect x="2" y="19.75" style="fill:#333333;" width="20" height="0.5"/>
<path style="fill:#333333;" d="M15,13.25c-2.619,0-4.75-2.131-4.75-4.75S12.381,3.75,15,3.75s4.75,2.131,4.75,4.75
	S17.619,13.25,15,13.25z M15,4.25c-2.344,0-4.25,1.907-4.25,4.25s1.906,4.25,4.25,4.25s4.25-1.907,4.25-4.25S17.344,4.25,15,4.25z"
	/>
<rect x="9.25" y="8" style="fill:#333333;" width="0.5" height="1"/>
<rect x="20.25" y="8" style="fill:#333333;" width="0.5" height="1"/>
<path style="fill:#333333;" d="M14.753,4.041c-0.077-0.465-0.557-1.439-1.821-1.801l0.137-0.48c1.506,0.43,2.083,1.626,2.179,2.199
	L14.753,4.041z"/>
<path style="fill:#333333;" d="M15.249,4.021l-0.498-0.042c0.051-0.606,0.345-1.75,1.125-2.196l0.248,0.435
	C15.566,2.536,15.295,3.47,15.249,4.021z"/>
<circle style="fill:#333333;" cx="16.5" cy="8" r="1"/>
<circle style="fill:#333333;" cx="13.5" cy="8" r="1"/>
</svg>






