<?xml version="1.0" encoding="iso-8859-1"?>
<svg version="1.1" id="&#x56FE;&#x5C42;_1" xmlns="http://www.w3.org/2000/svg" xmlns:xlink="http://www.w3.org/1999/xlink" x="0px"
	 y="0px" viewBox="0 0 24 24" style="enable-background:new 0 0 24 24;" xml:space="preserve">
<path style="fill:#333333;" d="M12,7.75c-1.517,0-2.75-1.233-2.75-2.75S10.483,2.25,12,2.25S14.75,3.483,14.75,5
	S13.517,7.75,12,7.75z M12,2.75c-1.241,0-2.25,1.009-2.25,2.25S10.759,7.25,12,7.25c1.24,0,2.25-1.009,2.25-2.25S13.24,2.75,12,2.75
	z"/>
<path style="fill:#333333;" d="M12.25,19.25c-2.134,0-2.617-1.021-3.176-2.204c-0.215-0.455-0.438-0.926-0.777-1.4
	c-1.152-1.613-3.157-2.746-3.815-3.119l-0.207-0.117L2.717,3.844l2.969-1.188l0.059,0.294C5.76,3.024,7.264,10.25,12,10.25
	c4.736,0,6.24-7.226,6.255-7.299l0.059-0.294l2.969,1.188l-1.562,8.591l-0.133,0.05c-0.604,0.226-2.648,1.937-3.373,3.145
	c-0.151,0.252-0.284,0.553-0.425,0.872C15.251,17.726,14.579,19.25,12.25,19.25z M4.725,12.09l0.002,0.002
	c0.682,0.386,2.759,1.56,3.976,3.263c0.365,0.511,0.607,1.024,0.822,1.478c0.546,1.155,0.907,1.918,2.725,1.918
	c2.003,0,2.552-1.246,3.083-2.451c0.146-0.333,0.285-0.648,0.452-0.928c0.725-1.207,2.653-2.88,3.492-3.296l1.44-7.919L18.68,3.341
	C18.339,4.768,16.631,10.75,12,10.75S5.661,4.768,5.32,3.341L3.283,4.156L4.725,12.09z"/>
<path style="fill:#333333;" d="M20.75,21.25h-3V21c0-2.816-2.355-4.271-2.379-4.286l0.258-0.429
	c0.104,0.062,2.486,1.526,2.615,4.465h2.002c-0.126-4.121-3.337-6.014-3.37-6.033l0.248-0.434C17.16,14.304,20.75,16.408,20.75,21
	V21.25z"/>
<path style="fill:#333333;" d="M6.75,21.25h-3V21c0-4.592,3.59-6.696,3.626-6.717l0.249,0.434c-0.033,0.02-3.245,1.912-3.371,6.033
	h2.001c0.13-2.938,2.512-4.402,2.616-4.465l0.257,0.429C9.105,16.729,6.75,18.184,6.75,21V21.25z"/>
</svg>






