<?xml version="1.0" encoding="iso-8859-1"?>
<svg version="1.1" id="&#x56FE;&#x5C42;_1" xmlns="http://www.w3.org/2000/svg" xmlns:xlink="http://www.w3.org/1999/xlink" x="0px"
	 y="0px" viewBox="0 0 24 24" style="enable-background:new 0 0 24 24;" xml:space="preserve">
<polygon style="fill:#333333;" points="21.889,9.224 12.001,4.28 2.364,9.223 2.136,8.777 11.999,3.72 22.111,8.776 "/>
<rect x="11.75" y="2" style="fill:#333333;" width="0.5" height="7"/>
<rect x="4.75" y="8" style="fill:#333333;" width="0.5" height="7"/>
<path style="fill:#333333;" d="M5,21.25c-1.792,0-3.25-1.458-3.25-3.25S3.208,14.75,5,14.75S8.25,16.208,8.25,18
	S6.792,21.25,5,21.25z M5,15.25c-1.517,0-2.75,1.233-2.75,2.75S3.483,20.75,5,20.75S7.75,19.517,7.75,18S6.517,15.25,5,15.25z"/>
<rect x="18.75" y="8" style="fill:#333333;" width="0.5" height="7"/>
<path style="fill:#333333;" d="M19,21.354L15.646,18L19,14.646L22.354,18L19,21.354z M16.354,18L19,20.646L21.646,18L19,15.354
	L16.354,18z"/>
<polygon style="fill:#333333;" points="14.75,11.5 14.25,11.5 14.25,9.25 9.75,9.25 9.75,11.5 9.25,11.5 9.25,8.75 14.75,8.75 "/>
</svg>






