<?xml version="1.0" encoding="iso-8859-1"?>
<svg version="1.1" id="&#x56FE;&#x5C42;_1" xmlns="http://www.w3.org/2000/svg" xmlns:xlink="http://www.w3.org/1999/xlink" x="0px"
	 y="0px" viewBox="0 0 24 24" style="enable-background:new 0 0 24 24;" xml:space="preserve">
<path style="fill:#333333;" d="M12,22.25c-5.101,0-9.25-4.149-9.25-9.25S6.899,3.75,12,3.75s9.25,4.149,9.25,9.25
	S17.101,22.25,12,22.25z M12,4.25c-4.825,0-8.75,3.925-8.75,8.75c0,4.825,3.925,8.75,8.75,8.75c4.825,0,8.75-3.925,8.75-8.75
	C20.75,8.175,16.825,4.25,12,4.25z"/>
<path style="fill:#333333;" d="M11.757,4.061C11.667,3.701,10.895,2.25,9,2.25v-0.5c2.037,0,3.063,1.475,3.242,2.189L11.757,4.061z"
	/>
<path style="fill:#333333;" d="M12.249,4.021l-0.498-0.042c0.051-0.606,0.345-1.75,1.125-2.196l0.248,0.435
	C12.566,2.536,12.295,3.47,12.249,4.021z"/>
<path style="fill:#333333;" d="M12,18.75c-2.625,0-3.68-2.051-3.724-2.139l0.447-0.224C8.762,16.464,9.692,18.25,12,18.25
	s3.238-1.786,3.276-1.862l0.447,0.224C15.68,16.699,14.624,18.75,12,18.75z"/>
<path style="fill:#333333;" d="M13.749,18.018l-0.498-0.035c0.027-0.382,0.308-3.732,1.749-3.732c0.433,0,0.662,0.2,0.778,0.369
	c0.438,0.631,0.007,1.834-0.044,1.969l-0.469-0.176c0.155-0.416,0.32-1.194,0.103-1.509C15.322,14.838,15.234,14.75,15,14.75
	C14.232,14.75,13.826,16.951,13.749,18.018z"/>
<rect x="14.5" y="10.25" style="fill:#333333;" width="2" height="0.5"/>
<rect x="8.25" y="9.5" style="fill:#333333;" width="0.5" height="2"/>
<rect x="1.75" y="12" style="fill:#333333;" width="0.5" height="2"/>
<rect x="21.75" y="12" style="fill:#333333;" width="0.5" height="2"/>
</svg>






