<?xml version="1.0" encoding="iso-8859-1"?>
<svg version="1.1" id="&#x56FE;&#x5C42;_1" xmlns="http://www.w3.org/2000/svg" xmlns:xlink="http://www.w3.org/1999/xlink" x="0px"
	 y="0px" viewBox="0 0 24 24" style="enable-background:new 0 0 24 24;" xml:space="preserve">
<path style="fill:#333333;" d="M16,18.75c-0.739,0-1.676-0.332-2.668-0.684C12.199,17.665,11.029,17.25,10,17.25
	c-0.963,0-1.827,0.311-2.588,0.585c-0.816,0.293-1.523,0.547-2.211,0.41C3.761,17.957,3.25,16.855,3.25,16
	c0-1.743,1.25-2.258,2.189-2.492c1.103-0.28,4.023,0.113,5.379,0.502c0.179,0.051,0.348,0.103,0.508,0.152
	c1.01,0.312,1.479,0.428,1.997-0.089c0.405-0.405,0.321-0.823,0.139-1.528c-0.1-0.382-0.212-0.814-0.212-1.295
	c0-1.571,1.501-2.421,2.598-3.041c0.403-0.229,0.784-0.444,0.976-0.636c0.187-0.187,0.117-0.34-0.417-0.912
	C16.003,6.228,15.5,5.689,15.5,5c0-2.145,4.896-3.139,5.453-3.246l0.367-0.07l-3.078,14.876C18.22,16.65,17.676,18.75,16,18.75z
	 M10,16.75c1.115,0,2.327,0.43,3.499,0.845c0.95,0.337,1.848,0.655,2.501,0.655c1.255,0,1.73-1.71,1.757-1.807l2.921-14.121
	C19.094,2.676,16,3.646,16,5c0,0.493,0.41,0.932,0.772,1.32c0.433,0.464,0.971,1.041,0.404,1.607
	c-0.239,0.24-0.631,0.461-1.083,0.717C15.05,9.235,13.75,9.971,13.75,11.25c0,0.417,0.1,0.8,0.195,1.17
	c0.176,0.679,0.358,1.38-0.269,2.007c-0.753,0.751-1.523,0.513-2.497,0.213c-0.157-0.048-0.323-0.099-0.499-0.149
	c-1.417-0.404-4.208-0.722-5.121-0.498C4.666,14.217,3.75,14.63,3.75,16c0,0.698,0.407,1.526,1.549,1.755
	c0.555,0.111,1.198-0.122,1.944-0.391C8.042,17.076,8.949,16.75,10,16.75z"/>
<polygon style="fill:#333333;" points="20.5,22.25 3.639,22.25 5.266,17.912 5.734,18.088 4.361,21.75 20,21.75 17.3,18.15 
	17.7,17.85 20.7,21.85 "/>
</svg>






