<?xml version="1.0" encoding="iso-8859-1"?>
<svg version="1.1" id="&#x56FE;&#x5C42;_1" xmlns="http://www.w3.org/2000/svg" xmlns:xlink="http://www.w3.org/1999/xlink" x="0px"
	 y="0px" viewBox="0 0 24 24" style="enable-background:new 0 0 24 24;" xml:space="preserve">
<path style="fill:#333333;" d="M12,6.75c-1.517,0-2.75-1.233-2.75-2.75S10.483,1.25,12,1.25S14.75,2.483,14.75,4
	S13.517,6.75,12,6.75z M12,1.75c-1.241,0-2.25,1.009-2.25,2.25S10.759,6.25,12,6.25c1.24,0,2.25-1.009,2.25-2.25S13.24,1.75,12,1.75
	z"/>
<path style="fill:#333333;" d="M21.326,14.18c-3.221-3.107-6.573-4.591-9.957-4.416c-5.148,0.269-8.643,4.355-8.678,4.397
	l-0.383-0.322c0.147-0.175,3.662-4.291,9.029-4.574c3.536-0.194,7.009,1.347,10.336,4.555L21.326,14.18z"/>
<path style="fill:#333333;" d="M12,18.75c-2.719,0-2.75-2.723-2.75-2.75v-3.895c0-0.028,0.031-2.855,2.75-2.855
	s2.75,2.827,2.75,2.855V16C14.75,16.027,14.719,18.75,12,18.75z M12,9.75c-2.216,0-2.25,2.26-2.25,2.355V16
	c0,0.092,0.035,2.25,2.25,2.25c2.225,0,2.25-2.158,2.25-2.25v-3.895C14.25,12.01,14.216,9.75,12,9.75z"/>
<polygon style="fill:#333333;" points="15.689,22.163 15.311,21.837 18.121,18.558 14.367,16.212 14.633,15.788 18.879,18.442 "/>
<polygon style="fill:#333333;" points="8.31,22.163 5.121,18.442 9.368,15.788 9.632,16.212 5.879,18.558 8.69,21.837 "/>
</svg>






