<?xml version="1.0" encoding="iso-8859-1"?>
<svg version="1.1" id="&#x56FE;&#x5C42;_1" xmlns="http://www.w3.org/2000/svg" xmlns:xlink="http://www.w3.org/1999/xlink" x="0px"
	 y="0px" viewBox="0 0 24 24" style="enable-background:new 0 0 24 24;" xml:space="preserve">
<path style="fill:#333333;" d="M15,21.25H5c-1.517,0-2.75-1.233-2.75-2.75v-13c0-1.517,1.233-2.75,2.75-2.75h7v0.5H5
	c-1.241,0-2.25,1.009-2.25,2.25v13c0,1.24,1.009,2.25,2.25,2.25h10V21.25z"/>
<polygon style="fill:#333333;" points="2.576,14.238 2.424,13.762 9.25,11.579 9.25,3 9.75,3 9.75,11.944 "/>
<rect x="12.25" y="9.838" transform="matrix(0.3162 -0.9487 0.9487 0.3162 -3.7857 20.7476)" style="fill:#333333;" width="0.5" height="6.325"/>
<rect x="18.25" y="9" style="fill:#333333;" width="0.5" height="12"/>
<path style="fill:#333333;" d="M18.5,9.25c-0.836,0-1.619-0.223-2.205-0.628c-0.684-0.473-1.045-1.149-1.045-1.956
	c0-3.228,2.116-4.917,3.25-4.917s3.25,1.688,3.25,4.917C21.75,8.441,20.065,9.25,18.5,9.25z M18.5,2.25
	c-0.934,0-2.75,1.559-2.75,4.417c0,1.432,1.426,2.083,2.75,2.083s2.75-0.652,2.75-2.083C21.25,3.809,19.434,2.25,18.5,2.25z"/>
</svg>






