<?xml version="1.0" encoding="iso-8859-1"?>
<svg version="1.1" id="&#x56FE;&#x5C42;_1" xmlns="http://www.w3.org/2000/svg" xmlns:xlink="http://www.w3.org/1999/xlink" x="0px"
	 y="0px" viewBox="0 0 24 24" style="enable-background:new 0 0 24 24;" xml:space="preserve">
<path style="fill:#333333;" d="M9.366,22.252c-0.583,0-1.103-0.11-1.521-0.335c-0.622-0.334-0.994-0.908-1.075-1.661
	c-0.146-1.346,0.54-1.819,1.264-2.321c0.57-0.394,1.16-0.802,1.549-1.703c0.362-0.84-0.112-1.415-0.915-2.282
	c-0.808-0.873-1.814-1.96-1.411-3.7C7.523,9.097,8.402,8.271,9.73,7.923c1.919-0.501,4.876,0.096,6.808,2.215
	c1.034,1.134,1.435,2.868,1.097,4.757c-0.477,2.671-2.338,5.081-4.978,6.448C11.5,21.942,10.344,22.252,9.366,22.252z M11.133,8.253
	c-0.458,0-0.89,0.053-1.277,0.154c-1.14,0.298-1.89,0.993-2.113,1.956c-0.343,1.482,0.488,2.379,1.291,3.247
	c0.746,0.806,1.517,1.639,1.007,2.819c-0.446,1.034-1.154,1.523-1.723,1.917c-0.702,0.485-1.165,0.806-1.052,1.857
	c0.063,0.589,0.337,1.018,0.814,1.273c0.963,0.518,2.669,0.291,4.346-0.577c2.503-1.297,4.266-3.574,4.716-6.093
	c0.31-1.734-0.045-3.313-0.974-4.332C14.763,8.932,12.78,8.253,11.133,8.253z"/>
<ellipse transform="matrix(0.6428 -0.766 0.766 0.6428 0.9839 15.6453)" style="fill:#333333;" cx="17.268" cy="6.768" rx="1.5" ry="1"/>
<ellipse transform="matrix(0.4226 -0.9063 0.9063 0.4226 3.6771 16.375)" style="fill:#333333;" cx="14.69" cy="5.302" rx="1.5" ry="1"/>
<ellipse transform="matrix(0.1045 -0.9945 0.9945 0.1045 5.6932 15.9257)" style="fill:#333333;" cx="11.69" cy="4.801" rx="1.5" ry="1"/>
<path style="fill:#333333;" d="M7.285,6.2c-0.312,0-0.632-0.101-0.935-0.298c-0.44-0.288-0.793-0.75-0.995-1.303
	C4.931,3.433,5.324,2.216,6.23,1.886l0,0C6.681,1.72,7.186,1.797,7.649,2.099c0.44,0.288,0.794,0.75,0.995,1.303
	c0.201,0.552,0.228,1.134,0.075,1.637C8.559,5.568,8.222,5.95,7.77,6.114C7.613,6.171,7.45,6.2,7.285,6.2z M6.401,2.355
	C5.754,2.592,5.495,3.521,5.825,4.428C5.99,4.879,6.273,5.254,6.624,5.482c0.328,0.214,0.674,0.271,0.975,0.162
	c0.301-0.109,0.529-0.376,0.643-0.751c0.121-0.4,0.098-0.869-0.067-1.321C8.01,3.121,7.727,2.747,7.376,2.518
	C7.048,2.303,6.703,2.246,6.401,2.355L6.401,2.355z"/>
<ellipse transform="matrix(0.766 -0.6428 0.6428 0.766 -1.1281 14.4363)" style="fill:#333333;" cx="19.268" cy="8.768" rx="1.5" ry="1"/>
</svg>






