<?xml version="1.0" encoding="iso-8859-1"?>
<svg version="1.1" id="&#x56FE;&#x5C42;_1" xmlns="http://www.w3.org/2000/svg" xmlns:xlink="http://www.w3.org/1999/xlink" x="0px"
	 y="0px" viewBox="0 0 24 24" style="enable-background:new 0 0 24 24;" xml:space="preserve">
<path style="fill:#333333;" d="M12,20.75c-3.159,0-5.418-1.235-6.243-1.767C5.44,18.779,5.25,18.419,5.25,18.02V10.5h0.5v7.52
	c0,0.229,0.104,0.432,0.278,0.544C6.815,19.07,8.974,20.25,12,20.25s5.185-1.18,5.972-1.687c0.175-0.112,0.278-0.315,0.278-0.544
	V10.5h0.5v7.52c0,0.4-0.189,0.761-0.508,0.965C17.418,19.515,15.159,20.75,12,20.75z"/>
<rect x="21.25" y="12" style="fill:#333333;" width="0.5" height="4"/>
<path style="fill:#333333;" d="M12,13.782l-0.116-0.061l-9.5-5V8.279L12,3.217l9.616,5.062v0.442L12,13.782z M3.037,8.5L12,13.218
	L20.963,8.5L12,3.783L3.037,8.5z"/>
</svg>






