<?xml version="1.0" encoding="iso-8859-1"?>
<svg version="1.1" id="&#x56FE;&#x5C42;_1" xmlns="http://www.w3.org/2000/svg" xmlns:xlink="http://www.w3.org/1999/xlink" x="0px"
	 y="0px" viewBox="0 0 24 24" style="enable-background:new 0 0 24 24;" xml:space="preserve">
<path style="fill:#333333;" d="M12,9.258L1.939,6.743V6.257L12,3.742l10.061,2.515v0.485L12,9.258z M3.031,6.5L12,8.742L20.969,6.5
	L12,4.258L3.031,6.5z"/>
<path style="fill:#333333;" d="M12,14.75c-3.035,0-5.525-1.487-5.629-1.551L6.25,13.126V8h0.5v4.84
	c0.528,0.291,2.722,1.41,5.25,1.41c2.527,0,4.722-1.119,5.25-1.41V8h0.5v5.126l-0.12,0.073C17.525,13.263,15.035,14.75,12,14.75z"/>
<rect x="3.25" y="7" style="fill:#333333;" width="0.5" height="11"/>
<path style="fill:#333333;" d="M5.25,20.25h-3.5v-3.5h3.5V20.25z M2.25,19.75h2.5v-2.5h-2.5V19.75z"/>
</svg>






