<?xml version="1.0" encoding="iso-8859-1"?>
<svg version="1.1" id="&#x56FE;&#x5C42;_1" xmlns="http://www.w3.org/2000/svg" xmlns:xlink="http://www.w3.org/1999/xlink" x="0px"
	 y="0px" viewBox="0 0 24 24" style="enable-background:new 0 0 24 24;" xml:space="preserve">
<path style="fill:#333333;" d="M12,13.282l-0.116-0.061l-9.5-5V7.779L12,2.717l9.616,5.062v0.442L12,13.282z M3.037,8L12,12.718
	L20.963,8L12,3.283L3.037,8z"/>
<path style="fill:#333333;" d="M12,20.977c-0.323,0-0.647-0.081-0.942-0.243c-1.618-0.887-3.278-1.421-4.386-1.712
	c-0.837-0.22-1.422-0.955-1.422-1.789V10h0.5v7.232c0,0.606,0.431,1.144,1.049,1.305c1.136,0.299,2.838,0.847,4.5,1.759
	c0.435,0.237,0.971,0.235,1.404,0c1.661-0.912,3.363-1.46,4.499-1.759c0.617-0.161,1.049-0.698,1.049-1.305V10h0.5v7.232
	c0,0.834-0.585,1.569-1.422,1.789c-1.108,0.291-2.769,0.825-4.386,1.712C12.647,20.896,12.324,20.977,12,20.977z"/>
<rect x="21.25" y="8" style="fill:#333333;" width="0.5" height="8"/>
</svg>






