<?xml version="1.0" encoding="iso-8859-1"?>
<svg version="1.1" id="&#x56FE;&#x5C42;_1" xmlns="http://www.w3.org/2000/svg" xmlns:xlink="http://www.w3.org/1999/xlink" x="0px"
	 y="0px" viewBox="0 0 24 24" style="enable-background:new 0 0 24 24;" xml:space="preserve">
<polygon style="fill:#333333;" points="6.75,7 6.25,7 6.25,1.75 9.75,1.75 9.75,4.778 9.25,4.778 9.25,2.25 6.75,2.25 "/>
<polygon style="fill:#333333;" points="17.75,7 17.25,7 17.25,2.25 14.75,2.25 14.75,4.778 14.25,4.778 14.25,1.75 17.75,1.75 "/>
<path style="fill:#333333;" d="M16.5,22.25h-9c-1.241,0-2.25-1.01-2.25-2.25V10c0-2.895,2.355-5.25,5.25-5.25h3
	c2.895,0,5.25,2.355,5.25,5.25v10C18.75,21.24,17.74,22.25,16.5,22.25z M10.5,5.25c-2.619,0-4.75,2.131-4.75,4.75v10
	c0,0.965,0.785,1.75,1.75,1.75h9c0.965,0,1.75-0.785,1.75-1.75V10c0-2.619-2.131-4.75-4.75-4.75H10.5z"/>
<polygon style="fill:#333333;" points="5.5,19.75 2.25,19.75 2.25,14.25 5.5,14.25 5.5,14.75 2.75,14.75 2.75,19.25 5.5,19.25 "/>
<polygon style="fill:#333333;" points="21.75,19.75 18.5,19.75 18.5,19.25 21.25,19.25 21.25,14.75 18.5,14.75 18.5,14.25 
	21.75,14.25 "/>
<rect x="13.75" y="11.5" style="fill:#333333;" width="0.5" height="2"/>
<rect x="8.5" y="11.25" style="fill:#333333;" width="7" height="0.5"/>
</svg>






