<?xml version="1.0" encoding="iso-8859-1"?>
<svg version="1.1" id="&#x56FE;&#x5C42;_1" xmlns="http://www.w3.org/2000/svg" xmlns:xlink="http://www.w3.org/1999/xlink" x="0px"
	 y="0px" viewBox="0 0 24 24" style="enable-background:new 0 0 24 24;" xml:space="preserve">
<path style="fill:#333333;" d="M11.652,21.75h-0.12c-0.419,0-0.806-0.228-1.009-0.594l-1.329-2.393
	c-0.573-1.032-1.425-1.877-2.463-2.443l-3.33-1.816C3,14.285,2.75,13.864,2.75,13.406V3.5c0-0.689,0.561-1.25,1.25-1.25h12.993
	c0.557,0,1.052,0.374,1.203,0.91v0l2.685,9.5c0.107,0.38,0.033,0.778-0.205,1.094s-0.603,0.496-0.998,0.496h-5.74
	c-0.091,0-0.176,0.041-0.232,0.112s-0.077,0.163-0.058,0.251l0.25,1.082c0.236,1.02,0.311,2.064,0.224,3.107l-0.046,0.552
	c-0.054,0.649-0.337,1.261-0.799,1.723C12.843,21.511,12.266,21.75,11.652,21.75z M4,2.75c-0.414,0-0.75,0.336-0.75,0.75v9.906
	c0,0.275,0.149,0.527,0.391,0.658l3.33,1.816c1.122,0.612,2.042,1.525,2.661,2.641l1.329,2.393c0.115,0.207,0.334,0.336,0.572,0.336
	h0.12c0.48,0,0.931-0.187,1.271-0.526c0.378-0.378,0.61-0.879,0.654-1.41l0.046-0.552c0.083-0.991,0.012-1.985-0.212-2.953
	l-0.25-1.082c-0.056-0.238,0-0.484,0.152-0.676s0.38-0.301,0.624-0.301h5.74c0.237,0,0.456-0.108,0.6-0.298
	c0.143-0.188,0.188-0.428,0.123-0.655l-2.685-9.501c-0.092-0.321-0.389-0.546-0.723-0.546H4z"/>
</svg>






