<?xml version="1.0" encoding="iso-8859-1"?>
<svg version="1.1" id="&#x56FE;&#x5C42;_1" xmlns="http://www.w3.org/2000/svg" xmlns:xlink="http://www.w3.org/1999/xlink" x="0px"
	 y="0px" viewBox="0 0 24 24" style="enable-background:new 0 0 24 24;" xml:space="preserve">
<path style="fill:#333333;" d="M14.388,22.344c-0.157,0-0.323-0.039-0.493-0.117L13.619,22.1c-3.089-1.428-6.934-3.204-8.874-7.596
	c-1.327-3.002-1.324-6.707,0.008-9.219C5.927,3.072,7.827,1.75,9.835,1.75h5.322c1.103,0,1.999,0.897,1.999,2
	c0,0.597-0.263,1.133-0.679,1.5h0.005c1.103,0,2,0.897,2,2c0,0.597-0.263,1.134-0.679,1.5h0.446c1.103,0,2,0.897,2,2
	c0,0.969-0.692,1.779-1.607,1.961c0.441,0.367,0.724,0.921,0.724,1.539c0,1.103-0.897,2-2,2h-3.111
	c0.297,0.509,0.81,1.442,1.119,2.319c0.403,1.142,0.335,2.892-0.361,3.525C14.832,22.261,14.618,22.344,14.388,22.344z M9.835,2.25
	c-0.682,0-3.032,0.236-4.641,3.27c-1.264,2.383-1.26,5.913,0.008,8.783l0,0c1.864,4.218,5.614,5.95,8.626,7.343l0.276,0.128
	c0.307,0.144,0.475,0.043,0.57-0.047c0.481-0.438,0.596-1.946,0.228-2.989c-0.428-1.208-1.294-2.588-1.303-2.603l0.212-0.383h3.554
	c0.827,0,1.5-0.673,1.5-1.5s-0.673-1.5-1.5-1.5v-0.5h0.884c0.827,0,1.5-0.673,1.5-1.5s-0.673-1.5-1.5-1.5h-1.768v-0.5
	c0.827,0,1.5-0.673,1.5-1.5s-0.673-1.5-1.5-1.5h-1.326v-0.5c0.827,0,1.5-0.673,1.5-1.5s-0.673-1.5-1.499-1.5H9.835z"/>
</svg>






