<?xml version="1.0" encoding="iso-8859-1"?>
<svg version="1.1" id="&#x56FE;&#x5C42;_1" xmlns="http://www.w3.org/2000/svg" xmlns:xlink="http://www.w3.org/1999/xlink" x="0px"
	 y="0px" viewBox="0 0 24 24" style="enable-background:new 0 0 24 24;" xml:space="preserve">
<path style="fill:#333333;" d="M9.75,22.25c-1.378,0-2.5-1.121-2.5-2.5L9.757,9.441L10,9.25h2l0.25,0.25v10.25
	C12.25,21.129,11.128,22.25,9.75,22.25z M10.196,9.75L7.743,19.81c0.007,1.043,0.904,1.94,2.007,1.94s2-0.897,2-2v-10H10.196z"/>
<path style="fill:#333333;" d="M5.25,22.25c-0.1,0-0.194-0.006-0.288-0.017c-0.714-0.083-1.337-0.499-1.709-1.14
	c-0.396-0.683-0.45-1.521-0.143-2.241L7.776,9.39L8,9.25h2v0.5H8.155l-4.591,9.311c-0.24,0.564-0.197,1.235,0.121,1.782
	c0.292,0.503,0.778,0.829,1.334,0.895c0.075,0.009,0.15,0.013,0.23,0.013c1.103,0,2-0.897,2-2h0.5
	C7.75,21.129,6.628,22.25,5.25,22.25z"/>
<path style="fill:#333333;" d="M14.25,22.25c-1.379,0-2.5-1.121-2.5-2.5V9.5L12,9.25h2l0.243,0.191l2.5,10.25
	C16.75,21.129,15.629,22.25,14.25,22.25z M12.25,9.75v10c0,1.103,0.897,2,2,2s2-0.897,2-2l-2.446-10H12.25z"/>
<path style="fill:#333333;" d="M18.75,22.25c-1.379,0-2.5-1.121-2.5-2.5h0.5c0,1.103,0.897,2,2,2c0.08,0,0.155-0.004,0.231-0.013
	c0.555-0.065,1.041-0.392,1.333-0.895c0.318-0.547,0.361-1.218,0.115-1.795L15.845,9.75H14v-0.5h2l0.225,0.14l4.66,9.45
	c0.312,0.734,0.259,1.572-0.138,2.254c-0.372,0.641-0.995,1.057-1.708,1.14C18.944,22.244,18.85,22.25,18.75,22.25z"/>
<path style="fill:#333333;" d="M15.97,6.75H8.03L7.782,6.53C7.76,6.355,7.75,6.18,7.75,6c0-2.343,1.907-4.25,4.25-4.25
	c2.344,0,4.25,1.907,4.25,4.25c0,0.18-0.011,0.355-0.032,0.531L15.97,6.75z M8.258,6.25h7.484C15.747,6.167,15.75,6.084,15.75,6
	c0-2.068-1.683-3.75-3.75-3.75C9.932,2.25,8.25,3.932,8.25,6C8.25,6.084,8.252,6.167,8.258,6.25z"/>
</svg>






