<?xml version="1.0" encoding="iso-8859-1"?>
<svg version="1.1" id="&#x56FE;&#x5C42;_1" xmlns="http://www.w3.org/2000/svg" xmlns:xlink="http://www.w3.org/1999/xlink" x="0px"
	 y="0px" viewBox="0 0 24 24" style="enable-background:new 0 0 24 24;" xml:space="preserve">
<path style="fill:#333333;" d="M13.5,20.25H5c-0.689,0-1.25-0.561-1.25-1.25V7c0-0.689,0.561-1.25,1.25-1.25h12
	c0.689,0,1.25,0.561,1.25,1.25v6h-0.5V7c0-0.414-0.337-0.75-0.75-0.75H5C4.586,6.25,4.25,6.586,4.25,7v12
	c0,0.413,0.336,0.75,0.75,0.75h8.5V20.25z"/>
<rect x="7.75" y="6" style="fill:#333333;" width="0.5" height="14"/>
<rect x="13.75" y="6" style="fill:#333333;" width="0.5" height="8.5"/>
<path style="fill:#333333;" d="M14.25,6h-0.5V3c0-0.414-0.337-0.75-0.75-0.75H9C8.586,2.25,8.25,2.586,8.25,3v3h-0.5V3
	c0-0.689,0.561-1.25,1.25-1.25h4c0.689,0,1.25,0.561,1.25,1.25V6z"/>
<path style="fill:#333333;" d="M17.5,22.25c-2.619,0-4.75-2.131-4.75-4.75s2.131-4.75,4.75-4.75s4.75,2.131,4.75,4.75
	S20.119,22.25,17.5,22.25z M17.5,13.25c-2.344,0-4.25,1.906-4.25,4.25s1.906,4.25,4.25,4.25s4.25-1.906,4.25-4.25
	S19.844,13.25,17.5,13.25z"/>
<polygon style="fill:#333333;" points="19,18.25 16.75,18.25 16.75,16 17.25,16 17.25,17.75 19,17.75 "/>
<rect x="6.25" y="20" style="fill:#333333;" width="0.5" height="2"/>
</svg>






