<?xml version="1.0" encoding="iso-8859-1"?>
<svg version="1.1" id="&#x56FE;&#x5C42;_1" xmlns="http://www.w3.org/2000/svg" xmlns:xlink="http://www.w3.org/1999/xlink" x="0px"
	 y="0px" viewBox="0 0 24 24" style="enable-background:new 0 0 24 24;" xml:space="preserve">
<path style="fill:#333333;" d="M6.585,12.735l-0.334-0.213l-0.5-5.5l0.15-0.252c3.591-1.538,8.605-1.538,12.197,0l0.15,0.252
	l-0.5,5.5l-0.334,0.213C13.922,11.467,10.077,11.468,6.585,12.735z M6.266,7.16l0.454,4.998c3.419-1.164,7.143-1.163,10.561,0
	l0.454-4.998C14.38,5.788,9.622,5.787,6.266,7.16z"/>
<rect x="11" y="8.792" transform="matrix(0.8575 -0.5145 0.5145 0.8575 -3.6704 7.2488)" style="fill:#333333;" width="0.5" height="2.916"/>
<path style="fill:#333333;" d="M19.5,21.25h-15c-0.965,0-1.75-0.785-1.75-1.75v-15c0-0.965,0.785-1.75,1.75-1.75h15
	c0.965,0,1.75,0.785,1.75,1.75v15C21.25,20.465,20.465,21.25,19.5,21.25z M4.5,3.25c-0.689,0-1.25,0.561-1.25,1.25v15
	c0,0.689,0.561,1.25,1.25,1.25h15c0.689,0,1.25-0.561,1.25-1.25v-15c0-0.689-0.561-1.25-1.25-1.25H4.5z"/>
<path style="fill:#333333;" d="M14.461,11.975c-1.633-0.257-3.289-0.257-4.922,0L9.461,11.48c1.685-0.265,3.393-0.265,5.078,0
	L14.461,11.975z"/>
</svg>






