<?xml version="1.0" encoding="iso-8859-1"?>
<svg version="1.1" id="&#x56FE;&#x5C42;_1" xmlns="http://www.w3.org/2000/svg" xmlns:xlink="http://www.w3.org/1999/xlink" x="0px"
	 y="0px" viewBox="0 0 24 24" style="enable-background:new 0 0 24 24;" xml:space="preserve">
<polygon style="fill:#333333;" points="7.786,11.128 5,6.486 2.214,11.128 1.786,10.872 5,5.514 8.214,10.872 "/>
<path style="fill:#333333;" d="M5,14.25c-1.792,0-3.25-1.458-3.25-3.25v-0.25h6.5V11C8.25,12.792,6.792,14.25,5,14.25z M2.261,11.25
	c0.126,1.399,1.307,2.5,2.739,2.5s2.612-1.101,2.739-2.5H2.261z"/>
<polygon style="fill:#333333;" points="21.785,11.128 19,6.486 16.215,11.128 15.785,10.872 19,5.514 22.215,10.872 "/>
<path style="fill:#333333;" d="M19,14.25c-1.792,0-3.25-1.458-3.25-3.25v-0.25h6.5V11C22.25,12.792,20.792,14.25,19,14.25z
	 M16.262,11.25c0.126,1.399,1.306,2.5,2.738,2.5s2.612-1.101,2.738-2.5H16.262z"/>
<rect x="11.75" y="3" style="fill:#333333;" width="0.5" height="18"/>
<rect x="5" y="5.75" style="fill:#333333;" width="14" height="0.5"/>
<rect x="5" y="5.75" style="fill:#333333;" width="14" height="0.5"/>
<rect x="5" y="20.75" style="fill:#333333;" width="14" height="0.5"/>
</svg>






