<?xml version="1.0" encoding="iso-8859-1"?>
<svg version="1.1" id="&#x56FE;&#x5C42;_1" xmlns="http://www.w3.org/2000/svg" xmlns:xlink="http://www.w3.org/1999/xlink" x="0px"
	 y="0px" viewBox="0 0 24 24" style="enable-background:new 0 0 24 24;" xml:space="preserve">
<g>
	<defs>
		<rect id="SVGID_1_" width="24" height="24"/>
	</defs>
	<clipPath id="SVGID_00000037650569159650103140000003456052350609630598_">
		<use xlink:href="#SVGID_1_"  style="overflow:visible;"/>
	</clipPath>
	<g style="clip-path:url(#SVGID_00000037650569159650103140000003456052350609630598_);">
		<path style="fill:#333333;" d="M7.92,16.237c-1.524-0.509-3.151-1.692-3.869-2.815c-0.122-0.19-0.178-0.423-0.161-0.673
			l0.123-1.874c0.018-0.278,0.182-0.517,0.438-0.639c0.259-0.123,0.562-0.097,0.792,0.066C6.266,11.03,8.179,12.25,9.5,12.25
			c3.657,0,6.419-1.375,7.781-3.87L17.72,8.62c-1.453,2.664-4.372,4.13-8.22,4.13c-1.46,0-3.475-1.278-4.547-2.041
			c-0.083-0.059-0.19-0.067-0.287-0.022c-0.043,0.021-0.146,0.083-0.154,0.22l-0.123,1.875c-0.007,0.1,0.002,0.244,0.083,0.37
			c0.652,1.021,2.203,2.143,3.606,2.61L7.92,16.237z"/>
		<path style="fill:#333333;" d="M10.352,22.015c-3.991,0-7.231-1.789-8.084-3.922l-0.579-3.514l0.371-0.257
			c2.348,1.345,5.155,1.855,7.902,1.431c5.459-0.84,7.789-4.504,7.789-12.253V3.205l3.5,0.583V8l0.428,1.917
			c0.502,2.235,0.01,4.649-1.387,6.798c-1.649,2.539-4.425,4.467-7.242,5.03l0,0C12.126,21.93,11.221,22.015,10.352,22.015z
			 M2.264,15.003l0.482,2.957c0.93,2.308,5.354,4.259,10.205,3.295l0,0c2.689-0.538,5.342-2.382,6.921-4.812
			c1.322-2.034,1.79-4.313,1.317-6.417l-0.434-1.972L20.75,4.212l-2.501-0.417c-0.035,5.28-1.065,11.353-8.211,12.452
			C7.353,16.658,4.613,16.219,2.264,15.003z"/>
	</g>
</g>
</svg>






