<?xml version="1.0" encoding="iso-8859-1"?>
<svg version="1.1" id="&#x56FE;&#x5C42;_1" xmlns="http://www.w3.org/2000/svg" xmlns:xlink="http://www.w3.org/1999/xlink" x="0px"
	 y="0px" viewBox="0 0 24 24" style="enable-background:new 0 0 24 24;" xml:space="preserve">
<path style="fill:#333333;" d="M21,19.25H3c-0.689,0-1.25-0.561-1.25-1.25V6c0-0.689,0.561-1.25,1.25-1.25h18
	c0.689,0,1.25,0.561,1.25,1.25v12C22.25,18.689,21.689,19.25,21,19.25z M3,5.25C2.586,5.25,2.25,5.586,2.25,6v12
	c0,0.413,0.336,0.75,0.75,0.75h18c0.413,0,0.75-0.337,0.75-0.75V6c0-0.414-0.337-0.75-0.75-0.75H3z"/>
<rect x="2" y="9.75" style="fill:#333333;" width="20" height="0.5"/>
<rect x="1.75" y="8.5" style="fill:#333333;" width="0.5" height="3"/>
<rect x="21.75" y="8.5" style="fill:#333333;" width="0.5" height="3"/>
<rect x="14.5" y="14.25" style="fill:#333333;" width="4" height="0.5"/>
</svg>






