<?xml version="1.0" encoding="iso-8859-1"?>
<svg version="1.1" id="&#x56FE;&#x5C42;_1" xmlns="http://www.w3.org/2000/svg" xmlns:xlink="http://www.w3.org/1999/xlink" x="0px"
	 y="0px" viewBox="0 0 24 24" style="enable-background:new 0 0 24 24;" xml:space="preserve">
<path style="fill:#333333;" d="M21,14.75h-1v-0.5h1c0.413,0,0.75-0.337,0.75-0.75v-9c0-0.414-0.337-0.75-0.75-0.75H8
	c-0.414,0-0.75,0.336-0.75,0.75v2h-0.5v-2c0-0.689,0.561-1.25,1.25-1.25h13c0.689,0,1.25,0.561,1.25,1.25v9
	C22.25,14.189,21.689,14.75,21,14.75z"/>
<path style="fill:#333333;" d="M16,20.75H3c-0.689,0-1.25-0.561-1.25-1.25v-9c0-0.689,0.561-1.25,1.25-1.25h13
	c0.689,0,1.25,0.561,1.25,1.25v9C17.25,20.189,16.689,20.75,16,20.75z M3,9.75c-0.414,0-0.75,0.336-0.75,0.75v9
	c0,0.413,0.336,0.75,0.75,0.75h13c0.413,0,0.75-0.337,0.75-0.75v-9c0-0.414-0.337-0.75-0.75-0.75H3z"/>
<rect x="2" y="13.75" style="fill:#333333;" width="15" height="0.5"/>
<rect x="16.75" y="11.5" style="fill:#333333;" width="0.5" height="6"/>
<rect x="1.75" y="11.5" style="fill:#333333;" width="0.5" height="6"/>
<rect x="5.5" y="16.75" style="fill:#333333;" width="4" height="0.5"/>
<rect x="12.5" y="16.75" style="fill:#333333;" width="1" height="0.5"/>
</svg>






