<?xml version="1.0" encoding="iso-8859-1"?>
<svg version="1.1" id="&#x56FE;&#x5C42;_1" xmlns="http://www.w3.org/2000/svg" xmlns:xlink="http://www.w3.org/1999/xlink" x="0px"
	 y="0px" viewBox="0 0 24 24" style="enable-background:new 0 0 24 24;" xml:space="preserve">
<path style="fill:#333333;" d="M22,12.25h-7L14.75,12c0-1.517-1.233-2.75-2.75-2.75S9.25,10.483,9.25,12L9,12.25H2L1.75,12
	C1.75,6.348,6.348,1.75,12,1.75c5.652,0,10.25,4.598,10.25,10.25L22,12.25z M15.24,11.75h6.507c-0.134-5.261-4.454-9.5-9.747-9.5
	c-5.292,0-9.614,4.239-9.747,9.5h6.506c0.128-1.676,1.533-3,3.241-3S15.112,10.074,15.24,11.75z"/>
<path style="fill:#333333;" d="M12,22.25C6.348,22.25,1.75,17.652,1.75,12L2,11.75h7v0.5H2.253c0.133,5.261,4.455,9.5,9.747,9.5
	c5.293,0,9.613-4.239,9.747-9.5H15v-0.5h7L22.25,12C22.25,17.652,17.652,22.25,12,22.25z"/>
<path style="fill:#333333;" d="M12,15.25c-1.792,0-3.25-1.458-3.25-3.25S10.208,8.75,12,8.75s3.25,1.458,3.25,3.25
	S13.792,15.25,12,15.25z M12,9.25c-1.517,0-2.75,1.233-2.75,2.75s1.233,2.75,2.75,2.75s2.75-1.233,2.75-2.75S13.517,9.25,12,9.25z"
	/>
</svg>






