<?xml version="1.0" encoding="iso-8859-1"?>
<svg version="1.1" id="&#x56FE;&#x5C42;_1" xmlns="http://www.w3.org/2000/svg" xmlns:xlink="http://www.w3.org/1999/xlink" x="0px"
	 y="0px" viewBox="0 0 24 24" style="enable-background:new 0 0 24 24;" xml:space="preserve">
<path style="fill:#333333;" d="M12,22.25c-4.696,0-4.75-4.207-4.75-4.25v-5.92l-2.5-3.5V3.75h14.5v4.83l-2.5,3.5V18
	C16.75,18.043,16.695,22.25,12,22.25z M5.25,8.42l2.5,3.5V18c0,0.152,0.061,3.75,4.25,3.75c4.189,0,4.249-3.598,4.25-3.75v-6.08
	l2.5-3.5V4.25H5.25V8.42z"/>
<rect x="7.25" y="2" style="fill:#333333;" width="0.5" height="3"/>
<rect x="10.25" y="2" style="fill:#333333;" width="0.5" height="3"/>
<rect x="13.25" y="2" style="fill:#333333;" width="0.5" height="3"/>
<path style="fill:#333333;" d="M12,19.25c-0.965,0-1.75-0.785-1.75-1.75v-2c0-0.965,0.785-1.75,1.75-1.75s1.75,0.785,1.75,1.75v2
	C13.75,18.465,12.965,19.25,12,19.25z M12,14.25c-0.689,0-1.25,0.561-1.25,1.25v2c0,0.689,0.561,1.25,1.25,1.25
	s1.25-0.561,1.25-1.25v-2C13.25,14.811,12.689,14.25,12,14.25z"/>
<rect x="5" y="8.25" style="fill:#333333;" width="14" height="0.5"/>
<rect x="16.25" y="2" style="fill:#333333;" width="0.5" height="3"/>
</svg>






