<?xml version="1.0" encoding="iso-8859-1"?>
<svg version="1.1" id="&#x56FE;&#x5C42;_1" xmlns="http://www.w3.org/2000/svg" xmlns:xlink="http://www.w3.org/1999/xlink" x="0px"
	 y="0px" viewBox="0 0 24 24" style="enable-background:new 0 0 24 24;" xml:space="preserve">
<path style="fill:#333333;" d="M8,6.25C6.759,6.25,5.75,5.241,5.75,4S6.759,1.75,8,1.75S10.25,2.759,10.25,4S9.241,6.25,8,6.25z
	 M8,2.25C7.035,2.25,6.25,3.035,6.25,4S7.035,5.75,8,5.75S9.75,4.965,9.75,4S8.965,2.25,8,2.25z"/>
<path style="fill:#333333;" d="M8,15.25c-1.241,0-2.25-1.01-2.25-2.25c0-1.241,1.009-2.25,2.25-2.25s2.25,1.009,2.25,2.25
	C10.25,14.24,9.241,15.25,8,15.25z M8,11.25c-0.965,0-1.75,0.785-1.75,1.75S7.035,14.75,8,14.75S9.75,13.965,9.75,13
	S8.965,11.25,8,11.25z"/>
<rect x="7.75" y="15.5" style="fill:#333333;" width="0.5" height="6.5"/>
<path style="fill:#333333;" d="M16,6.25c-1.24,0-2.25-1.009-2.25-2.25S14.76,1.75,16,1.75S18.25,2.759,18.25,4S17.24,6.25,16,6.25z
	 M16,2.25c-0.965,0-1.75,0.785-1.75,1.75S15.035,5.75,16,5.75S17.75,4.965,17.75,4S16.965,2.25,16,2.25z"/>
<path style="fill:#333333;" d="M16,15.25c-1.24,0-2.25-1.01-2.25-2.25c0-1.241,1.01-2.25,2.25-2.25s2.25,1.009,2.25,2.25
	C18.25,14.24,17.24,15.25,16,15.25z M16,11.25c-0.965,0-1.75,0.785-1.75,1.75s0.785,1.75,1.75,1.75s1.75-0.785,1.75-1.75
	S16.965,11.25,16,11.25z"/>
<rect x="15.75" y="15.5" style="fill:#333333;" width="0.5" height="6.5"/>
<rect x="6.5" y="8.25" style="fill:#333333;" width="3" height="0.5"/>
<rect x="14.5" y="8.25" style="fill:#333333;" width="3" height="0.5"/>
<rect x="6.5" y="17.75" style="fill:#333333;" width="3" height="0.5"/>
<rect x="14.5" y="17.75" style="fill:#333333;" width="3" height="0.5"/>
<rect x="7.75" y="7" style="fill:#333333;" width="0.5" height="3"/>
<rect x="15.75" y="7" style="fill:#333333;" width="0.5" height="3"/>
</svg>






