<?xml version="1.0" encoding="iso-8859-1"?>
<svg version="1.1" id="&#x56FE;&#x5C42;_1" xmlns="http://www.w3.org/2000/svg" xmlns:xlink="http://www.w3.org/1999/xlink" x="0px"
	 y="0px" viewBox="0 0 24 24" style="enable-background:new 0 0 24 24;" xml:space="preserve">
<path style="fill:#333333;" d="M14.898,22.25H8.102l-0.176-0.428c0.02-0.021,2.04-2.04,1.875-3.394
	c-0.042-0.338-0.223-0.599-0.554-0.797c-0.906-0.433-1.522-1.094-1.812-1.955c-0.59-1.759,0.401-3.709,0.444-3.792l0.07-0.135h7.101
	l0.069,0.135c0.043,0.082,1.034,2.033,0.444,3.792c-0.289,0.861-0.905,1.522-1.833,1.966c-0.298,0.134-0.467,0.328-0.521,0.596
	c-0.215,1.049,1.278,2.948,1.872,3.592L14.898,22.25z M8.676,21.75h5.677c-0.639-0.776-1.869-2.457-1.633-3.611
	c0.089-0.432,0.358-0.751,0.802-0.95c0.794-0.379,1.323-0.941,1.568-1.668c0.441-1.312-0.148-2.817-0.35-3.271H8.261
	c-0.202,0.453-0.791,1.959-0.35,3.271c0.245,0.727,0.774,1.289,1.573,1.671c0.487,0.29,0.754,0.683,0.814,1.178
	C10.442,19.555,9.306,21.033,8.676,21.75z"/>
<path style="fill:#333333;" d="M15.154,12.25H7.846L4.221,5l0.056-0.112C4.34,4.76,5.91,1.75,11.5,1.75
	c5.59,0,7.159,3.01,7.224,3.138L18.779,5L15.154,12.25z M8.154,11.75h6.691l3.37-6.74c-0.327-0.512-2.031-2.76-6.716-2.76
	S5.111,4.498,4.784,5.01L8.154,11.75z"/>
<rect x="9.959" y="8.75" transform="matrix(0.1638 -0.9865 0.9865 0.1638 1.9925 20.3506)" style="fill:#333333;" width="6.083" height="0.501"/>
<rect x="9.75" y="5.959" transform="matrix(0.9864 -0.1644 0.1644 0.9864 -1.3435 1.7664)" style="fill:#333333;" width="0.5" height="6.083"/>
</svg>






