<?xml version="1.0" encoding="iso-8859-1"?>
<svg version="1.1" id="&#x56FE;&#x5C42;_1" xmlns="http://www.w3.org/2000/svg" xmlns:xlink="http://www.w3.org/1999/xlink" x="0px"
	 y="0px" viewBox="0 0 24 24" style="enable-background:new 0 0 24 24;" xml:space="preserve">
<path style="fill:#333333;" d="M22.25,18.25H5.75V15c0-4.549,3.701-8.25,8.25-8.25s8.25,3.701,8.25,8.25V18.25z M6.25,17.75h15.5V15
	c0-4.273-3.477-7.75-7.75-7.75S6.25,10.727,6.25,15V17.75z"/>
<path style="fill:#333333;" d="M10.76,18.068c-0.438-1.531-0.495-7.815,1.366-10.283C12.645,7.098,13.274,6.75,14,6.75
	c0.645,0,1.211,0.271,1.682,0.805c2.081,2.357,1.724,9.223,1.566,10.477l-0.496-0.062c0.237-1.896,0.342-8.06-1.444-10.083
	C14.93,7.458,14.502,7.25,14,7.25c-0.567,0-1.05,0.273-1.475,0.836c-1.739,2.305-1.693,8.417-1.285,9.845L10.76,18.068z"/>
<path style="fill:#333333;" d="M15.5,21.25h-12c-0.965,0-1.75-0.785-1.75-1.75s0.785-1.75,1.75-1.75h12
	c0.965,0,1.75,0.785,1.75,1.75S16.465,21.25,15.5,21.25z M3.5,18.25c-0.689,0-1.25,0.561-1.25,1.25s0.561,1.25,1.25,1.25h12
	c0.689,0,1.25-0.561,1.25-1.25s-0.561-1.25-1.25-1.25H3.5z"/>
<path style="fill:#333333;" d="M14,7.25c-1.24,0-2.25-1.009-2.25-2.25S12.76,2.75,14,2.75S16.25,3.759,16.25,5S15.24,7.25,14,7.25z
	 M14,3.25c-0.965,0-1.75,0.785-1.75,1.75S13.035,6.75,14,6.75S15.75,5.965,15.75,5S14.965,3.25,14,3.25z"/>
</svg>






