<?xml version="1.0" encoding="iso-8859-1"?>
<svg version="1.1" id="&#x56FE;&#x5C42;_1" xmlns="http://www.w3.org/2000/svg" xmlns:xlink="http://www.w3.org/1999/xlink" x="0px"
	 y="0px" viewBox="0 0 24 24" style="enable-background:new 0 0 24 24;" xml:space="preserve">
<path style="fill:#333333;" d="M20,21.75c-0.965,0-1.75-0.785-1.75-1.75s0.785-1.75,1.75-1.75s1.75,0.785,1.75,1.75
	S20.965,21.75,20,21.75z M20,18.75c-0.689,0-1.25,0.561-1.25,1.25s0.561,1.25,1.25,1.25s1.25-0.561,1.25-1.25S20.689,18.75,20,18.75
	z"/>
<path style="fill:#333333;" d="M18.604,18.953C10.691,13.266,4.621,8.495,4.561,8.447C4.473,8.37,2.669,6.749,2.619,5.042
	C2.599,4.388,2.836,3.81,3.323,3.323C3.81,2.836,4.375,2.602,5.041,2.619c1.708,0.05,3.329,1.854,3.397,1.931l0.009,0.01
	c0.05,0.063,5.066,6.379,10.507,14.046L18.604,18.953z M4.967,3.118c-0.492,0-0.914,0.183-1.29,0.559
	C3.286,4.068,3.103,4.509,3.118,5.025c0.043,1.492,1.746,3.023,1.763,3.039c0.046,0.036,5.49,4.314,12.783,9.594
	C12.655,10.672,8.23,5.091,8.06,4.877C7.97,4.778,6.479,3.161,5.025,3.119C5.005,3.118,4.986,3.118,4.967,3.118z"/>
</svg>






