<?xml version="1.0" encoding="iso-8859-1"?>
<svg version="1.1" id="&#x56FE;&#x5C42;_1" xmlns="http://www.w3.org/2000/svg" xmlns:xlink="http://www.w3.org/1999/xlink" x="0px"
	 y="0px" viewBox="0 0 24 24" style="enable-background:new 0 0 24 24;" xml:space="preserve">
<path style="fill:#333333;" d="M12,22.25C6.348,22.25,1.75,17.652,1.75,12C1.75,6.348,6.348,1.75,12,1.75
	c5.652,0,10.25,4.598,10.25,10.25C22.25,17.652,17.652,22.25,12,22.25z M12,2.25c-5.376,0-9.75,4.374-9.75,9.75
	s4.374,9.75,9.75,9.75s9.75-4.374,9.75-9.75S17.376,2.25,12,2.25z"/>
<path style="fill:#333333;" d="M4.436,18.553L4.11,18.174c2.053-1.76,3.094-3.837,3.094-6.174c0-2.336-1.041-4.414-3.094-6.174
	l0.325-0.38C6.605,7.306,7.705,9.511,7.705,12C7.705,14.49,6.605,16.694,4.436,18.553z"/>
<path style="fill:#333333;" d="M19.564,18.553c-2.169-1.858-3.27-4.063-3.27-6.553c0-2.489,1.101-4.693,3.27-6.554l0.326,0.38
	C17.836,7.587,16.795,9.664,16.795,12c0,2.337,1.041,4.414,3.096,6.174L19.564,18.553z"/>
</svg>






