<?xml version="1.0" encoding="iso-8859-1"?>
<svg version="1.1" id="&#x56FE;&#x5C42;_1" xmlns="http://www.w3.org/2000/svg" xmlns:xlink="http://www.w3.org/1999/xlink" x="0px"
	 y="0px" viewBox="0 0 24 24" style="enable-background:new 0 0 24 24;" xml:space="preserve">
<path style="fill:none;" d="M9,12c0-3.312,2.688-6,6-6s6,2.688,6,6"/>
<path style="fill:#333333;" d="M21.25,12h-0.5c0-3.17-2.579-5.75-5.75-5.75c-3.17,0-5.75,2.58-5.75,5.75h-0.5
	c0-3.446,2.804-6.25,6.25-6.25S21.25,8.554,21.25,12z"/>
<path style="fill:#333333;" d="M6,18.25H2L1.75,18V2L2,1.75h4L6.25,2v16L6,18.25z M2.25,17.75h3.5V2.25h-3.5V17.75z"/>
<rect x="6" y="11.75" style="fill:#333333;" width="16" height="0.5"/>
<path style="fill:#333333;" d="M10.234,22.087l-0.469-0.174c0.956-2.566,0.957-5.184,0.002-7.57l-0.997-2.241l0.457-0.203l1,2.25
	C11.234,16.661,11.234,19.403,10.234,22.087z"/>
<path style="fill:#333333;" d="M19.266,22.088c-1.003-2.678-1.002-5.42,0.002-7.931l1.004-2.259l0.457,0.203l-1,2.25
	c-0.953,2.385-0.953,5.002,0.006,7.561L19.266,22.088z"/>
<rect x="10.61" y="15.75" style="fill:#333333;" width="8.28" height="0.5"/>
<rect x="10.845" y="19.75" style="fill:#333333;" width="7.815" height="0.5"/>
<rect x="14.5" y="12" style="fill:#333333;" width="0.5" height="8"/>
</svg>






