<?xml version="1.0" encoding="iso-8859-1"?>
<svg version="1.1" id="&#x56FE;&#x5C42;_1" xmlns="http://www.w3.org/2000/svg" xmlns:xlink="http://www.w3.org/1999/xlink" x="0px"
	 y="0px" viewBox="0 0 24 24" style="enable-background:new 0 0 24 24;" xml:space="preserve">
<path style="fill:#333333;" d="M20,22.25H4c-0.689,0-1.25-0.561-1.25-1.25v-9.52c0-0.372,0.165-0.728,0.453-0.978
	c0.648-0.562,2.195-1.986,2.56-3.082c0.334-1.003,0.439-3.205,0.471-4.429C6.253,2.307,6.821,1.75,7.5,1.75h1.75V2
	c0,1.517,1.233,2.75,2.75,2.75S14.75,3.517,14.75,2V1.75h1.75c0.68,0,1.247,0.557,1.266,1.242c0.032,1.224,0.137,3.426,0.472,4.429
	c0.364,1.093,1.911,2.519,2.56,3.082c0.288,0.25,0.453,0.606,0.453,0.978V21C21.25,21.689,20.689,22.25,20,22.25z M7.5,2.25
	c-0.411,0-0.755,0.339-0.766,0.756C6.701,4.257,6.592,6.515,6.237,7.579c-0.39,1.169-1.863,2.57-2.707,3.301
	c-0.178,0.155-0.28,0.374-0.28,0.6V21c0,0.413,0.336,0.75,0.75,0.75h16c0.413,0,0.75-0.337,0.75-0.75v-9.52
	c0-0.227-0.103-0.445-0.281-0.6c-0.844-0.732-2.316-2.134-2.706-3.301c-0.354-1.064-0.464-3.322-0.497-4.573
	C17.255,2.589,16.911,2.25,16.5,2.25h-1.26c-0.128,1.676-1.532,3-3.24,3s-3.112-1.324-3.241-3H7.5z"/>
<path style="fill:#333333;" d="M16.75,18.25h-3.5v-6.5h3.5V18.25z M13.75,17.75h2.5v-5.5h-2.5V17.75z"/>
<polygon style="fill:#333333;" points="10.75,18.25 7.5,18.25 7.5,17.75 10.25,17.75 10.25,12.25 7.5,12.25 7.5,11.75 10.75,11.75 
	"/>
<rect x="7.5" y="14.75" style="fill:#333333;" width="3" height="0.5"/>
</svg>






