<?xml version="1.0" encoding="iso-8859-1"?>
<svg version="1.1" id="&#x56FE;&#x5C42;_1" xmlns="http://www.w3.org/2000/svg" xmlns:xlink="http://www.w3.org/1999/xlink" x="0px"
	 y="0px" viewBox="0 0 24 24" style="enable-background:new 0 0 24 24;" xml:space="preserve">
<path style="fill:#333333;" d="M12.25,21h-0.5c0-1.53-0.772-4.653-1.181-6.091c-0.327-0.9-0.745-1.389-1.238-1.435
	C8.554,13.41,7.591,14.42,6.977,15.46l-0.464-0.106c-0.142-1.683-0.648-2.752-1.505-3.178c-0.917-0.456-2.086-0.086-2.874,0.412
	l-0.384-0.22C1.944,6.76,6.322,4.283,8.61,3.756l0.171,0.466c-0.67,0.347-0.817,0.846-0.817,1.01
	C7.907,5.776,8.027,6.221,8.32,6.579c0.39,0.478,1.029,0.735,1.546,0.833c0.116-0.954,0.677-2.896,0.704-2.988l0.486,0.022
	l0.199,1.029h1.492l0.199-1.029l0.485-0.022c0.026,0.092,0.588,2.036,0.704,2.988c0.517-0.097,1.155-0.355,1.546-0.833
	c0.292-0.358,0.412-0.802,0.356-1.32c-0.001-0.19-0.147-0.69-0.819-1.037l0.171-0.466c2.289,0.526,6.668,3.003,6.861,8.612
	l-0.384,0.22c-0.789-0.498-1.959-0.868-2.874-0.412c-0.857,0.426-1.363,1.495-1.505,3.178l-0.464,0.106
	c-0.615-1.04-1.589-2.047-2.354-1.985c-0.493,0.046-0.912,0.534-1.244,1.451C13.022,16.347,12.25,19.47,12.25,21z M9.249,12.971
	c0.042,0,0.085,0.002,0.128,0.006c0.703,0.065,1.264,0.664,1.667,1.779c0.27,0.947,0.689,2.596,0.956,4.074
	c0.266-1.478,0.684-3.121,0.95-4.058c0.409-1.132,0.971-1.73,1.673-1.796c1.015-0.102,1.933,0.938,2.448,1.649
	c0.235-1.48,0.805-2.454,1.698-2.898c0.948-0.471,2.084-0.231,2.955,0.207c-0.334-4.233-3.235-6.474-5.388-7.35
	c0.147,0.252,0.199,0.489,0.199,0.647c0.069,0.629-0.088,1.197-0.469,1.663c-0.554,0.678-1.468,0.987-2.139,1.05L13.655,7.97V7.696
	c0-0.359-0.203-1.26-0.423-2.104l-0.074,0.383h-2.317l-0.074-0.382c-0.219,0.844-0.422,1.744-0.422,2.104V7.97l-0.273-0.025
	c-0.671-0.063-1.585-0.372-2.139-1.05c-0.38-0.466-0.537-1.034-0.467-1.69c0-0.144,0.05-0.372,0.195-0.619
	c-2.152,0.876-5.052,3.117-5.386,7.349c0.874-0.438,2.009-0.677,2.955-0.207c0.893,0.444,1.463,1.417,1.698,2.899
	C7.423,13.945,8.297,12.971,9.249,12.971z"/>
</svg>






