<?xml version="1.0" encoding="iso-8859-1"?>
<svg version="1.1" id="&#x56FE;&#x5C42;_1" xmlns="http://www.w3.org/2000/svg" xmlns:xlink="http://www.w3.org/1999/xlink" x="0px"
	 y="0px" viewBox="0 0 24 24" style="enable-background:new 0 0 24 24;" xml:space="preserve">
<path style="fill:#333333;" d="M16,22.25H8c-0.689,0-1.25-0.561-1.25-1.25V5c0-0.689,0.561-1.25,1.25-1.25h8
	c0.689,0,1.25,0.561,1.25,1.25v16C17.25,21.689,16.689,22.25,16,22.25z M8,4.25C7.586,4.25,7.25,4.586,7.25,5v16
	c0,0.413,0.336,0.75,0.75,0.75h8c0.413,0,0.75-0.337,0.75-0.75V5c0-0.414-0.337-0.75-0.75-0.75H8z"/>
<path style="fill:#333333;" d="M10,3V2c0-0.552,0.448-1,1-1h2c0.552,0,1,0.448,1,1v1H10z"/>
<polygon style="fill:#333333;" points="11.724,18.111 11.276,17.889 13.533,13.374 10.061,14.242 9.776,13.889 12.276,8.888 
	12.724,9.112 10.467,13.626 13.939,12.758 14.224,13.111 "/>
</svg>






