<?xml version="1.0" encoding="iso-8859-1"?>
<svg version="1.1" id="&#x56FE;&#x5C42;_1" xmlns="http://www.w3.org/2000/svg" xmlns:xlink="http://www.w3.org/1999/xlink" x="0px"
	 y="0px" viewBox="0 0 24 24" style="enable-background:new 0 0 24 24;" xml:space="preserve">
<path style="fill:#333333;" d="M6.5,17.25H3c-0.689,0-1.25-0.561-1.25-1.25V8c0-0.689,0.561-1.25,1.25-1.25h3.5v0.5H3
	C2.586,7.25,2.25,7.586,2.25,8v8c0,0.413,0.336,0.75,0.75,0.75h3.5V17.25z"/>
<path style="fill:#333333;" d="M19,17.25h-3.5v-0.5H19c0.413,0,0.75-0.337,0.75-0.75V8c0-0.414-0.337-0.75-0.75-0.75h-3.5v-0.5H19
	c0.689,0,1.25,0.561,1.25,1.25v8C20.25,16.689,19.689,17.25,19,17.25z"/>
<polygon style="fill:#333333;" points="11.224,17.112 10.776,16.888 13.098,12.251 8.095,12.251 10.777,6.888 11.225,7.112 
	8.905,11.751 13.906,11.751 "/>
<path style="fill:#333333;" d="M21,10h1c0.552,0,1,0.448,1,1v2c0,0.552-0.448,1-1,1h-1V10z"/>
</svg>






