<?xml version="1.0" encoding="iso-8859-1"?>
<svg version="1.1" id="&#x56FE;&#x5C42;_1" xmlns="http://www.w3.org/2000/svg" xmlns:xlink="http://www.w3.org/1999/xlink" x="0px"
	 y="0px" viewBox="0 0 24 24" style="enable-background:new 0 0 24 24;" xml:space="preserve">
<path style="fill:#333333;" d="M21.836,14.895L2.035,9.588l0.064-0.241c1.126-4.203,4.796-7.245,9.132-7.571
	c1.148-0.085,2.3,0.023,3.421,0.323c0.976,0.262,1.901,0.661,2.753,1.188c3.808,2.36,5.656,7.034,4.495,11.365L21.836,14.895z
	 M7.235,10.464l14.245,3.817c0.973-4.051-0.787-8.368-4.338-10.569c-0.81-0.501-1.69-0.881-2.618-1.13
	c-1.068-0.287-2.164-0.392-3.255-0.308C7.228,2.579,3.794,5.363,2.65,9.236L7.235,10.464L7.235,10.464z"/>
<path style="fill:#333333;" d="M8.383,11.005L7.89,10.924c0.017-0.104,0.434-2.565,2.065-4.745c1.621-2.167,4.38-3.972,4.498-4.048
	l0.272,0.419c-0.028,0.018-2.803,1.834-4.37,3.929C8.8,8.558,8.387,10.981,8.383,11.005z"/>
<path style="fill:#333333;" d="M16.098,13.123l-0.468-0.176c0.009-0.023,0.862-2.329,0.556-4.906
	c-0.311-2.598-1.805-5.558-1.819-5.587l0.445-0.227c0.063,0.124,1.55,3.067,1.87,5.754C17.004,10.685,16.136,13.025,16.098,13.123z"
	/>
<rect x="11.75" y="2" transform="matrix(0.2588 -0.9659 0.9659 0.2588 -2.6964 20.4856)" style="fill:#333333;" width="0.5" height="20"/>
<rect x="2" y="21.75" style="fill:#333333;" width="20" height="0.5"/>
<rect x="5.439" y="16.75" transform="matrix(0.2654 -0.9641 0.9641 0.2654 -8.5854 22.7316)" style="fill:#333333;" width="10.371" height="0.5"/>
<path style="fill:#333333;" d="M17.141,3.712c-0.808-0.501-1.688-0.881-2.617-1.13c-1.068-0.287-2.164-0.392-3.255-0.308
	l-0.037-0.499c1.148-0.085,2.3,0.023,3.421,0.323c0.977,0.262,1.902,0.662,2.752,1.188L17.141,3.712z"/>
</svg>






