<?xml version="1.0" encoding="iso-8859-1"?>
<svg version="1.1" id="&#x56FE;&#x5C42;_1" xmlns="http://www.w3.org/2000/svg" xmlns:xlink="http://www.w3.org/1999/xlink" x="0px"
	 y="0px" viewBox="0 0 24 24" style="enable-background:new 0 0 24 24;" xml:space="preserve">
<path style="fill:#333333;" d="M12,21.75c-5.014,0-9.25-4.007-9.25-8.75c0-1.3,0.463-2.462,0.941-3.44
	C2.748,8.687,2.25,7.643,2.25,6.53c0-2.32,1.946-4.28,4.25-4.28c1.586,0,2.968,0.939,3.651,2.465c1.158-0.212,2.539-0.212,3.697,0
	C14.533,3.189,15.915,2.25,17.5,2.25c2.344,0,4.25,1.907,4.25,4.25c0,1.402-0.753,2.421-1.441,3.06
	c0.455,0.932,0.941,2.135,0.941,3.44C21.25,17.743,17.014,21.75,12,21.75z M6.5,2.75c-2.033,0-3.75,1.731-3.75,3.78
	c0,1.033,0.476,1.969,1.414,2.781l0.147,0.127L4.224,9.612C3.742,10.573,3.25,11.727,3.25,13c0,4.472,4.007,8.25,8.75,8.25
	s8.75-3.778,8.75-8.25c0-1.274-0.492-2.428-0.974-3.388l-0.087-0.174l0.147-0.127C20.481,8.753,21.25,7.812,21.25,6.5
	c0-2.068-1.683-3.75-3.75-3.75c-1.463,0-2.685,0.875-3.268,2.342l-0.078,0.195l-0.205-0.043c-1.199-0.25-2.7-0.25-3.898,0
	L9.845,5.288L9.768,5.092C9.186,3.625,7.964,2.75,6.5,2.75z"/>
<circle style="fill:#333333;" cx="10" cy="9.5" r="1"/>
<circle style="fill:#333333;" cx="14" cy="9.5" r="1"/>
<circle style="fill:#333333;" cx="12" cy="13" r="1.5"/>
<rect x="11.75" y="13" style="fill:#333333;" width="0.5" height="4"/>
<path style="fill:#333333;" d="M12,17.607c-0.778,0-1.556-0.311-2.177-0.931l0.354-0.354c1.04,1.04,2.607,1.038,3.646,0l0.354,0.354
	C13.557,17.297,12.778,17.607,12,17.607z"/>
</svg>






