<?xml version="1.0" encoding="iso-8859-1"?>
<svg version="1.1" id="&#x56FE;&#x5C42;_1" xmlns="http://www.w3.org/2000/svg" xmlns:xlink="http://www.w3.org/1999/xlink" x="0px"
	 y="0px" viewBox="0 0 24 24" style="enable-background:new 0 0 24 24;" xml:space="preserve">
<rect x="8.5" y="16.75" style="fill:#333333;" width="7" height="0.5"/>
<rect x="8" y="13.25" style="fill:#333333;" width="8" height="0.5"/>
<path style="fill:#333333;" d="M17.5,10.25h-11c-1.241,0-2.25-1.009-2.25-2.25V4c0-1.241,1.009-2.25,2.25-2.25h11
	c1.24,0,2.25,1.009,2.25,2.25v4C19.75,9.241,18.74,10.25,17.5,10.25z M6.5,2.25C5.535,2.25,4.75,3.035,4.75,4v4
	c0,0.965,0.785,1.75,1.75,1.75h11c0.965,0,1.75-0.785,1.75-1.75V4c0-0.965-0.785-1.75-1.75-1.75H6.5z"/>
<polygon style="fill:#333333;" points="14.703,22.25 9.297,22.25 6.755,10.051 7.245,9.949 9.703,21.75 14.297,21.75 16.755,9.949 
	17.245,10.051 "/>
<rect x="8.5" y="5.75" style="fill:#333333;" width="6.5" height="0.5"/>
</svg>






