<?xml version="1.0" encoding="iso-8859-1"?>
<svg version="1.1" id="&#x56FE;&#x5C42;_1" xmlns="http://www.w3.org/2000/svg" xmlns:xlink="http://www.w3.org/1999/xlink" x="0px"
	 y="0px" viewBox="0 0 24 24" style="enable-background:new 0 0 24 24;" xml:space="preserve">
<path style="fill:#333333;" d="M22.25,21.25H1.75V8.75h20.5V21.25z M2.25,20.75h19.5V9.25H2.25V20.75z"/>
<rect x="11" y="11.75" style="fill:#333333;" width="2" height="0.5"/>
<rect x="2" y="14.75" style="fill:#333333;" width="20" height="0.5"/>
<rect x="11" y="17.75" style="fill:#333333;" width="2" height="0.5"/>
<rect x="3.75" y="21" style="fill:#333333;" width="0.5" height="2"/>
<rect x="19.75" y="21" style="fill:#333333;" width="0.5" height="2"/>
<rect x="11.75" y="5" style="fill:#333333;" width="0.5" height="4"/>
<path style="fill:#333333;" d="M16.25,5.25h-8.5V5c0-2.343,1.907-4.25,4.25-4.25c2.344,0,4.25,1.907,4.25,4.25V5.25z M8.258,4.75
	h7.484c-0.13-1.952-1.759-3.5-3.742-3.5C10.016,1.25,8.387,2.798,8.258,4.75z"/>
<rect x="21.75" y="13" style="fill:#333333;" width="0.5" height="4"/>
<rect x="1.75" y="13" style="fill:#333333;" width="0.5" height="4"/>
</svg>






