<?xml version="1.0" encoding="iso-8859-1"?>
<svg version="1.1" id="&#x56FE;&#x5C42;_1" xmlns="http://www.w3.org/2000/svg" xmlns:xlink="http://www.w3.org/1999/xlink" x="0px"
	 y="0px" viewBox="0 0 24 24" style="enable-background:new 0 0 24 24;" xml:space="preserve">
<path style="fill:#333333;" d="M12,22.25c-1.885,0-3.25-4.72-3.25-7.902c0-1.983,1.458-3.598,3.25-3.598s3.25,1.614,3.25,3.598
	C15.25,17.53,13.886,22.25,12,22.25z M12,11.25c-1.517,0-2.75,1.39-2.75,3.098c0,3.164,1.359,7.402,2.75,7.402
	s2.75-4.238,2.75-7.402C14.75,12.64,13.517,11.25,12,11.25z"/>
<path style="fill:#333333;" d="M5.739,13.75c-1.382,0-2.989-1.201-2.989-2.75s1.607-2.75,2.989-2.75c1.345,0,4.511,1.161,4.511,2.75
	S7.084,13.75,5.739,13.75z M5.739,8.75C4.612,8.75,3.25,9.753,3.25,11c0,1.246,1.362,2.25,2.489,2.25C7,13.25,9.75,12.12,9.75,11
	C9.75,9.879,7,8.75,5.739,8.75z"/>
<path style="fill:#333333;" d="M18.261,13.75c-1.346,0-4.511-1.161-4.511-2.75s3.165-2.75,4.511-2.75
	c1.383,0,2.989,1.201,2.989,2.75S19.644,13.75,18.261,13.75z M18.261,8.75C17,8.75,14.25,9.879,14.25,11
	c0,1.12,2.75,2.25,4.011,2.25c1.128,0,2.489-1.004,2.489-2.25C20.75,9.753,19.389,8.75,18.261,8.75z"/>
<path style="fill:#333333;" d="M12,11.25c-1.517,0-2.75-1.233-2.75-2.75V7c0-1.517,1.233-2.75,2.75-2.75S14.75,5.483,14.75,7v1.5
	C14.75,10.017,13.517,11.25,12,11.25z M12,4.75c-1.241,0-2.25,1.009-2.25,2.25v1.5c0,1.241,1.009,2.25,2.25,2.25
	c1.24,0,2.25-1.009,2.25-2.25V7C14.25,5.759,13.24,4.75,12,4.75z"/>
<path style="fill:#333333;" d="M14.25,5h-0.5c0-1.792,1.458-3.25,3.25-3.25v0.5C15.483,2.25,14.25,3.483,14.25,5z"/>
<path style="fill:#333333;" d="M10.75,5h-0.5c0-1.517-1.458-2.75-3.25-2.75v-0.5C9.068,1.75,10.75,3.208,10.75,5z"/>
</svg>






