<?xml version="1.0" encoding="iso-8859-1"?>
<svg version="1.1" id="&#x56FE;&#x5C42;_1" xmlns="http://www.w3.org/2000/svg" xmlns:xlink="http://www.w3.org/1999/xlink" x="0px"
	 y="0px" viewBox="0 0 24 24" style="enable-background:new 0 0 24 24;" xml:space="preserve">
<path style="fill:#333333;" d="M14,22.25c-5.438,0-6.25-2.273-6.25-3.629V7.75h12.5v10.871C20.25,19.977,19.438,22.25,14,22.25z
	 M8.25,8.25v10.371c0,2.018,2.042,3.129,5.75,3.129s5.75-1.111,5.75-3.129V8.25H8.25z"/>
<rect x="12.25" y="11.5" style="fill:#333333;" width="0.5" height="7"/>
<rect x="15.25" y="11.5" style="fill:#333333;" width="0.5" height="7"/>
<path style="fill:#333333;" d="M7.771,8.102C7.727,8.002,6.713,5.663,8.339,4.308c1.242-1.037,2.48-0.807,3.008-0.635
	C11.579,3.089,12.294,1.75,14,1.75c1.714,0,2.427,1.352,2.654,1.931c0.563-0.17,1.947-0.434,3.022,0.642
	c1.344,1.344,0.592,3.658,0.56,3.756l-0.475-0.158c0.007-0.021,0.686-2.12-0.438-3.244c-1.117-1.116-2.709-0.453-2.726-0.447
	l-0.269,0.115l-0.072-0.284C16.237,3.987,15.775,2.25,14,2.25c-1.776,0-2.239,1.737-2.258,1.811l-0.076,0.298l-0.277-0.135
	c-0.055-0.026-1.379-0.657-2.729,0.468C7.325,5.805,8.218,7.878,8.228,7.899L7.771,8.102z"/>
<path style="fill:#333333;" d="M6.714,17.337c-1.128,0-2.603-0.21-2.952-1.258C3.26,14.57,2.772,9.73,2.751,9.525L2.724,9.25H8v0.5
	H3.277c0.113,1.064,0.541,4.914,0.959,6.171c0.355,1.066,2.812,0.961,3.728,0.832l0.07,0.494
	C7.897,17.268,7.363,17.337,6.714,17.337z"/>
</svg>






