<?xml version="1.0" encoding="iso-8859-1"?>
<svg version="1.1" id="&#x56FE;&#x5C42;_1" xmlns="http://www.w3.org/2000/svg" xmlns:xlink="http://www.w3.org/1999/xlink" x="0px"
	 y="0px" viewBox="0 0 24 24" style="enable-background:new 0 0 24 24;" xml:space="preserve">
<path style="fill:#333333;" d="M17.75,22.25H6.25V10.5c0-0.689,0.561-1.25,1.25-1.25h1.25v0.5H7.5c-0.414,0-0.75,0.336-0.75,0.75
	v11.25h10.5V10.5c0-0.414-0.337-0.75-0.75-0.75h-3.75v-0.5h3.75c0.689,0,1.25,0.561,1.25,1.25V22.25z"/>
<path style="fill:#333333;" d="M10.75,16.25c-0.827,0-1.5-0.673-1.5-1.5v-5h-2c-1.654,0-3-1.346-3-3s1.346-3,3-3h1.072
	c0.209-0.532,0.985-2,3.178-2c2.192,0,2.969,1.468,3.178,2h2.072c1.654,0,3,1.346,3,3s-1.346,3-3,3h-4.5v5
	C12.25,15.577,11.577,16.25,10.75,16.25z M7.25,4.25c-1.378,0-2.5,1.122-2.5,2.5s1.122,2.5,2.5,2.5h2.5v5.5c0,0.552,0.449,1,1,1
	s1-0.448,1-1v-5.5h5c1.379,0,2.5-1.122,2.5-2.5s-1.121-2.5-2.5-2.5h-2.443l-0.049-0.188C14.238,3.987,13.765,2.25,11.5,2.25
	c-2.278,0-2.753,1.792-2.757,1.811L8.695,4.25H7.25z"/>
<path style="fill:#333333;" d="M19,16.25h-1.5v-0.5H19c0.965,0,1.75-0.785,1.75-1.75v-2.5c0-0.414-0.337-0.75-0.75-0.75h-2.5v-0.5
	H20c0.689,0,1.25,0.561,1.25,1.25V14C21.25,15.24,20.24,16.25,19,16.25z"/>
</svg>






