<?xml version="1.0" encoding="iso-8859-1"?>
<svg version="1.1" id="&#x56FE;&#x5C42;_1" xmlns="http://www.w3.org/2000/svg" xmlns:xlink="http://www.w3.org/1999/xlink" x="0px"
	 y="0px" viewBox="0 0 24 24" style="enable-background:new 0 0 24 24;" xml:space="preserve">
<path style="fill:#333333;" d="M6,12.25H1.75v-7.5H6c2.582,0,4.25,1.472,4.25,3.75S8.582,12.25,6,12.25z M2.25,11.75H6
	c2.313,0,3.75-1.245,3.75-3.25S8.313,5.25,6,5.25H2.25V11.75z"/>
<path style="fill:#333333;" d="M6.516,20.25H1.75v-8.5h4.766c2.92,0,4.734,1.629,4.734,4.25S9.436,20.25,6.516,20.25z M2.25,19.75
	h4.266c2.651,0,4.234-1.402,4.234-3.75s-1.583-3.75-4.234-3.75H2.25V19.75z"/>
<path style="fill:#333333;" d="M18,20.25c-2.502,0-4.25-1.953-4.25-4.75s1.748-4.75,4.25-4.75c3.137,0,4.25,2.559,4.25,4.75v0.25
	H14.5v-0.5h7.245c-0.081-1.899-1.094-4-3.745-4c-2.208,0-3.75,1.748-3.75,4.25s1.542,4.25,3.75,4.25c2.323,0,3.254-1.333,3.293-1.39
	l0.415,0.278C21.664,18.704,20.604,20.25,18,20.25z"/>
<rect x="15" y="7.25" style="fill:#333333;" width="6" height="0.5"/>
</svg>






