<?xml version="1.0" encoding="iso-8859-1"?>
<svg version="1.1" id="&#x56FE;&#x5C42;_1" xmlns="http://www.w3.org/2000/svg" xmlns:xlink="http://www.w3.org/1999/xlink" x="0px"
	 y="0px" viewBox="0 0 24 24" style="enable-background:new 0 0 24 24;" xml:space="preserve">
<path style="fill:#333333;" d="M10,18.25c-4.549,0-8.25-3.701-8.25-8.25S5.451,1.75,10,1.75s8.25,3.701,8.25,8.25
	S14.549,18.25,10,18.25z M10,2.25c-4.273,0-7.75,3.477-7.75,7.75s3.477,7.75,7.75,7.75s7.75-3.477,7.75-7.75S14.273,2.25,10,2.25z"
	/>
<path style="fill:none;" d="M22,9v1h-1V9H22z"/>
<path style="fill:#333333;" d="M14.347,20.379l-0.193-0.461c4.008-1.68,6.597-5.573,6.597-9.918V8.75h1.5v1.5h-1.003
	C21.15,14.695,18.463,18.653,14.347,20.379z M21.25,9.75h0.5v-0.5h-0.5V9.75z"/>
<polygon style="fill:#333333;" points="15.385,22.25 4.615,22.25 6.771,17.398 7.229,17.602 5.385,21.75 14.615,21.75 
	12.771,17.602 13.229,17.398 "/>
<path style="fill:#333333;" d="M10,12.25c-1.241,0-2.25-1.009-2.25-2.25S8.759,7.75,10,7.75s2.25,1.009,2.25,2.25
	S11.241,12.25,10,12.25z M10,8.25c-0.965,0-1.75,0.785-1.75,1.75s0.785,1.75,1.75,1.75s1.75-0.785,1.75-1.75S10.965,8.25,10,8.25z"
	/>
<path style="fill:#333333;" d="M5.25,10h-0.5c0-2.895,2.355-5.25,5.25-5.25v0.5C7.381,5.25,5.25,7.381,5.25,10z"/>
</svg>






