<?xml version="1.0" encoding="iso-8859-1"?>
<svg version="1.1" id="&#x56FE;&#x5C42;_1" xmlns="http://www.w3.org/2000/svg" xmlns:xlink="http://www.w3.org/1999/xlink" x="0px"
	 y="0px" viewBox="0 0 24 24" style="enable-background:new 0 0 24 24;" xml:space="preserve">
<polygon style="fill:#333333;" points="5.636,22.253 1.747,18.364 5.106,15.005 5.459,15.358 2.454,18.364 5.636,21.546 
	8.641,18.541 8.995,18.895 "/>
<polygon style="fill:#333333;" points="14.651,13.237 14.298,12.884 21.546,5.636 18.364,2.454 11.116,9.702 10.763,9.349 
	18.364,1.747 22.253,5.636 "/>
<path style="fill:#333333;" d="M9.879,19.614c-0.333,0-0.647-0.13-0.884-0.366l-4.243-4.243c-0.487-0.487-0.487-1.28,0-1.768
	l4.243-4.243c0.487-0.488,1.281-0.487,1.768,0l4.243,4.243c0.487,0.487,0.487,1.28,0,1.768l-4.243,4.243
	C10.527,19.484,10.213,19.614,9.879,19.614z M9.879,9.129c-0.192,0-0.384,0.073-0.53,0.219l-4.243,4.243
	c-0.292,0.292-0.292,0.769,0,1.061l4.243,4.243c0.284,0.283,0.778,0.283,1.061,0l4.243-4.243c0.292-0.292,0.292-0.769,0-1.061
	l-4.243-4.243C10.263,9.202,10.071,9.129,9.879,9.129z"/>
<rect x="8.44" y="12.811" transform="matrix(0.7071 -0.7071 0.7071 0.7071 -6.0311 11.5607)" style="fill:#333333;" width="4.999" height="0.5"/>
<rect x="17.407" y="3.843" transform="matrix(0.7072 -0.7071 0.7071 0.7072 0.6859 14.3422)" style="fill:#333333;" width="0.5" height="5"/>
<rect x="14.932" y="6.318" transform="matrix(0.7072 -0.7071 0.7071 0.7072 -1.7891 13.3166)" style="fill:#333333;" width="0.5" height="5"/>
<rect x="10.336" y="9.415" transform="matrix(0.7072 -0.707 0.707 0.7072 -6.3848 11.413)" style="fill:#333333;" width="0.5" height="8"/>
</svg>






