<?xml version="1.0" encoding="iso-8859-1"?>
<svg version="1.1" id="&#x56FE;&#x5C42;_1" xmlns="http://www.w3.org/2000/svg" xmlns:xlink="http://www.w3.org/1999/xlink" x="0px"
	 y="0px" viewBox="0 0 24 24" style="enable-background:new 0 0 24 24;" xml:space="preserve">
<path style="fill:#333333;" d="M12,22.25C6.348,22.25,1.75,17.652,1.75,12C1.75,6.348,6.348,1.75,12,1.75
	c5.652,0,10.25,4.598,10.25,10.25C22.25,17.652,17.652,22.25,12,22.25z M12,2.25c-5.376,0-9.75,4.374-9.75,9.75
	s4.374,9.75,9.75,9.75s9.75-4.374,9.75-9.75S17.376,2.25,12,2.25z"/>
<polygon style="fill:#333333;" points="20.535,17.217 12,12.289 3.465,17.217 3.215,16.783 11.75,11.855 11.75,2 12.25,2 
	12.25,11.855 20.785,16.783 "/>
<path style="fill:#333333;" d="M4.68,19.175c-0.604-0.616-1.128-1.307-1.558-2.05c-0.464-0.802-0.817-1.664-1.049-2.562l0.484-0.125
	c0.22,0.854,0.556,1.675,0.997,2.438c0.409,0.707,0.908,1.363,1.483,1.95L4.68,19.175z M19.32,19.175l-0.357-0.35
	c0.577-0.59,1.076-1.245,1.482-1.95c0.443-0.767,0.778-1.586,0.997-2.438l0.484,0.125c-0.229,0.895-0.582,1.757-1.048,2.562
	C20.451,17.866,19.927,18.556,19.32,19.175z M14.925,2.696c-1.885-0.592-3.967-0.592-5.85,0L8.925,2.22
	c1.981-0.623,4.167-0.623,6.15,0L14.925,2.696z"/>
</svg>






