<?xml version="1.0" encoding="iso-8859-1"?>
<svg version="1.1" id="&#x56FE;&#x5C42;_1" xmlns="http://www.w3.org/2000/svg" xmlns:xlink="http://www.w3.org/1999/xlink" x="0px"
	 y="0px" viewBox="0 0 24 24" style="enable-background:new 0 0 24 24;" xml:space="preserve">
<path style="fill:#333333;" d="M6.25,19.25h-4.5v-4.5h4.5V19.25z M2.25,18.75h3.5v-3.5h-3.5V18.75z"/>
<path style="fill:#333333;" d="M22.25,19.25h-4.5v-4.5h4.5V19.25z M18.25,18.75h3.5v-3.5h-3.5V18.75z"/>
<path style="fill:#333333;" d="M14.25,9.25h-4.5v-4.5h4.5V9.25z M10.25,8.75h3.5v-3.5h-3.5V8.75z"/>
<rect x="2" y="6.75" style="fill:#333333;" width="8" height="0.5"/>
<rect x="14" y="6.75" style="fill:#333333;" width="8" height="0.5"/>
<path style="fill:#333333;" d="M4.25,15h-0.5c0-3.767,2.544-7.052,6.188-7.99l0.125,0.484C6.64,8.375,4.25,11.461,4.25,15z"/>
<path style="fill:#333333;" d="M20.25,15h-0.5c0-3.539-2.39-6.625-5.812-7.506l0.125-0.484C17.705,7.948,20.25,11.233,20.25,15z"/>
</svg>






