<?xml version="1.0" encoding="iso-8859-1"?>
<svg version="1.1" id="&#x56FE;&#x5C42;_1" xmlns="http://www.w3.org/2000/svg" xmlns:xlink="http://www.w3.org/1999/xlink" x="0px"
	 y="0px" viewBox="0 0 24 24" style="enable-background:new 0 0 24 24;" xml:space="preserve">
<path style="fill:#333333;" d="M11.75,22.25c-3.853,0-8-1.956-8-6.25V8c0-3.438,2.673-5.529,4.357-6.039
	c0.97-0.294,1.735-0.147,2.101,0.4c0.613,0.92,0.11,1.549-0.424,2.214C9.299,5.181,8.75,5.867,8.75,7c0,1.89,1.685,2.75,3.25,2.75
	S15.25,8.89,15.25,7c0-1.146-0.691-1.838-1.302-2.448c-0.624-0.625-1.27-1.27-0.656-2.19c0.374-0.559,1.237-0.697,2.309-0.373
	C17.854,2.67,20.25,5.009,20.25,8v8C20.25,20.934,14.907,22.25,11.75,22.25z M9.01,2.313c-0.223,0-0.479,0.042-0.758,0.126
	C6.59,2.942,4.25,5,4.25,8v8c0,3.95,3.888,5.75,7.5,5.75c2.972,0,8-1.211,8-5.75V8c0-3.084-2.634-5.031-4.294-5.533
	c-0.838-0.253-1.507-0.188-1.748,0.172c-0.37,0.555-0.068,0.897,0.594,1.56C14.947,4.843,15.75,5.646,15.75,7
	c0,2.233-1.944,3.25-3.75,3.25c-1.806,0-3.75-1.017-3.75-3.25c0-1.308,0.634-2.1,1.144-2.737c0.546-0.681,0.791-1.035,0.398-1.625
	C9.649,2.424,9.373,2.313,9.01,2.313z"/>
<path style="fill:#333333;" d="M12,18.854L9.146,16L12,13.146L14.854,16L12,18.854z M9.854,16L12,18.146L14.146,16L12,13.854
	L9.854,16z"/>
</svg>






