<?xml version="1.0" encoding="iso-8859-1"?>
<svg version="1.1" id="&#x56FE;&#x5C42;_1" xmlns="http://www.w3.org/2000/svg" xmlns:xlink="http://www.w3.org/1999/xlink" x="0px"
	 y="0px" viewBox="0 0 24 24" style="enable-background:new 0 0 24 24;" xml:space="preserve">
<path style="fill:none;" d="M4,20h16v-8H4V20z"/>
<path style="fill:#333333;" d="M22,20.25H2v-0.5h1.75v-8h16.5v8H22V20.25z M4.25,19.75h15.5v-7.5H4.25V19.75z"/>
<polygon style="fill:#333333;" points="16,17.279 14,16.279 12,17.279 10,16.279 8,17.279 6,16.279 4.112,17.224 3.888,16.776 
	6,15.721 8,16.721 10,15.721 12,16.721 14,15.721 16,16.721 18,15.721 20.111,16.776 19.889,17.224 18,16.279 "/>
<rect x="15.75" y="7.5" style="fill:#333333;" width="0.5" height="4.5"/>
<rect x="11.75" y="7.5" style="fill:#333333;" width="0.5" height="4.5"/>
<rect x="7.75" y="7.5" style="fill:#333333;" width="0.5" height="4.5"/>
<rect x="15.75" y="4" style="fill:#333333;" width="0.5" height="1"/>
<rect x="11.75" y="4" style="fill:#333333;" width="0.5" height="1"/>
<rect x="7.75" y="4" style="fill:#333333;" width="0.5" height="1"/>
<rect x="3.75" y="12" style="fill:#333333;" width="0.5" height="8"/>
<rect x="19.75" y="12" style="fill:#333333;" width="0.5" height="8"/>
</svg>






