<?xml version="1.0" encoding="iso-8859-1"?>
<svg version="1.1" id="&#x56FE;&#x5C42;_1" xmlns="http://www.w3.org/2000/svg" xmlns:xlink="http://www.w3.org/1999/xlink" x="0px"
	 y="0px" viewBox="0 0 24 24" style="enable-background:new 0 0 24 24;" xml:space="preserve">
<path style="fill:#333333;" d="M12,22.25C6.348,22.25,1.75,17.652,1.75,12C1.75,6.348,6.348,1.75,12,1.75
	c5.652,0,10.25,4.598,10.25,10.25C22.25,17.652,17.652,22.25,12,22.25z M12,2.25c-5.376,0-9.75,4.374-9.75,9.75
	s4.374,9.75,9.75,9.75s9.75-4.374,9.75-9.75S17.376,2.25,12,2.25z"/>
<path style="fill:none;" d="M10,8h2.5h1c1.105,0,2,0.895,2,2s-0.895,2-2,2H10V8z"/>
<path style="fill:#333333;" d="M13.5,12.25H9.75v-4H8v-0.5h1.75V6h0.5v1.75h2V6h0.5v1.75h0.75c1.24,0,2.25,1.009,2.25,2.25
	S14.74,12.25,13.5,12.25z M10.25,11.75h3.25c0.965,0,1.75-0.785,1.75-1.75s-0.785-1.75-1.75-1.75h-1V8v0.25h-2.25V11.75z"/>
<path style="fill:none;" d="M10,12h4.5c1.105,0,2,0.895,2,2s-0.895,2-2,2h-2H10V12z"/>
<path style="fill:#333333;" d="M12.75,18h-0.5v-1.75h-2V18h-0.5v-1.75H8v-0.5h1.75v-4h4.75c1.24,0,2.25,1.01,2.25,2.25
	s-1.01,2.25-2.25,2.25h-1.75V18z M12.5,16v-0.25h2c0.965,0,1.75-0.785,1.75-1.75s-0.785-1.75-1.75-1.75h-4.25v3.5h2.25V16z"/>
</svg>






