<?xml version="1.0" encoding="iso-8859-1"?>
<svg version="1.1" id="&#x56FE;&#x5C42;_1" xmlns="http://www.w3.org/2000/svg" xmlns:xlink="http://www.w3.org/1999/xlink" x="0px"
	 y="0px" viewBox="0 0 24 24" style="enable-background:new 0 0 24 24;" xml:space="preserve">
<path style="fill:#333333;" d="M18.5,18.25H5c-0.689,0-1.25-0.561-1.25-1.25v-1.25H3c-0.689,0-1.25-0.561-1.25-1.25v-5
	c0-0.689,0.561-1.25,1.25-1.25h0.75V7c0-0.689,0.561-1.25,1.25-1.25h13.5c0.689,0,1.25,0.561,1.25,1.25v1.25H21
	c0.689,0,1.25,0.561,1.25,1.25v5c0,0.689-0.561,1.25-1.25,1.25h-1.25V17C19.75,17.689,19.189,18.25,18.5,18.25z M3,8.75
	c-0.414,0-0.75,0.336-0.75,0.75v5c0,0.413,0.336,0.75,0.75,0.75h1.25V17c0,0.413,0.336,0.75,0.75,0.75h13.5
	c0.413,0,0.75-0.337,0.75-0.75v-1.75H21c0.413,0,0.75-0.337,0.75-0.75v-5c0-0.414-0.337-0.75-0.75-0.75h-1.75V7
	c0-0.414-0.337-0.75-0.75-0.75H5C4.586,6.25,4.25,6.586,4.25,7v1.75H3z"/>
<rect x="6" y="11.75" style="fill:#333333;" width="12" height="0.5"/>
<circle style="fill:#333333;" cx="12" cy="12" r="2"/>
<rect x="15.75" y="9.5" style="fill:#333333;" width="0.5" height="5"/>
<rect x="7.75" y="9.5" style="fill:#333333;" width="0.5" height="5"/>
</svg>






