<?xml version="1.0" encoding="iso-8859-1"?>
<svg version="1.1" id="&#x56FE;&#x5C42;_1" xmlns="http://www.w3.org/2000/svg" xmlns:xlink="http://www.w3.org/1999/xlink" x="0px"
	 y="0px" viewBox="0 0 24 24" style="enable-background:new 0 0 24 24;" xml:space="preserve">
<path style="fill:#333333;" d="M7.703,21.25H3.661c-0.443,0-0.843-0.227-1.071-0.605s-0.241-0.839-0.033-1.229l3.658-6.909
	c0.032-0.062,0.056-0.127,0.071-0.194l2.056-9.599C8.461,2.155,8.962,1.75,9.532,1.75c0.671,0,1.218,0.546,1.218,1.218v9.389
	c0,0.118-0.017,0.236-0.051,0.352l-0.219,0.749l-1.559,6.821C8.791,20.851,8.29,21.25,7.703,21.25z M9.532,2.25
	c-0.336,0-0.631,0.239-0.702,0.567l-2.057,9.6c-0.024,0.111-0.064,0.22-0.117,0.322l-3.658,6.91c-0.125,0.234-0.117,0.51,0.02,0.737
	c0.137,0.228,0.377,0.363,0.643,0.363h4.042c0.352,0,0.653-0.24,0.731-0.583l1.562-6.836l0.223-0.764
	c0.02-0.069,0.03-0.14,0.03-0.211V2.968C10.25,2.572,9.928,2.25,9.532,2.25z"/>
<polygon style="fill:#333333;" points="9.901,14.229 6.401,12.729 6.599,12.271 10.099,13.771 "/>
<path style="fill:#333333;" d="M20.339,21.25h-4.042c-0.586,0-1.087-0.399-1.219-0.972l-1.562-6.836L13.3,12.708
	c-0.033-0.116-0.05-0.234-0.05-0.352V2.968c0-0.671,0.546-1.218,1.218-1.218c0.57,0,1.071,0.405,1.19,0.963l2.057,9.599
	c0.015,0.068,0.039,0.134,0.071,0.193l3.657,6.91c0.207,0.392,0.194,0.851-0.033,1.229C21.182,21.023,20.781,21.25,20.339,21.25z
	 M14.468,2.25c-0.396,0-0.718,0.322-0.718,0.718v9.389c0,0.07,0.01,0.143,0.03,0.212L14,13.316l1.566,6.851
	c0.078,0.343,0.379,0.583,0.73,0.583h4.042c0.266,0,0.506-0.136,0.643-0.363s0.145-0.503,0.021-0.737l-3.657-6.909
	c-0.054-0.1-0.094-0.209-0.118-0.323l-2.057-9.6C15.099,2.489,14.804,2.25,14.468,2.25z"/>
<polygon style="fill:#333333;" points="14.099,14.229 13.901,13.771 17.401,12.271 17.599,12.729 "/>
</svg>






