<?xml version="1.0" encoding="iso-8859-1"?>
<svg version="1.1" id="&#x56FE;&#x5C42;_1" xmlns="http://www.w3.org/2000/svg" xmlns:xlink="http://www.w3.org/1999/xlink" x="0px"
	 y="0px" viewBox="0 0 24 24" style="enable-background:new 0 0 24 24;" xml:space="preserve">
<path style="fill:#333333;" d="M12,21.287l-6.623-3.726l0.245-0.436L12,20.713l6.377-3.587l0.246,0.436L12,21.287z M20.25,15h-0.5
	V7.646l-6.123-3.444l0.246-0.436l6.377,3.587V15z M4.25,15h-0.5V7.354l6.377-3.587l0.245,0.436L4.25,7.646V15z"/>
<path style="fill:#333333;" d="M12,15.789l-3.25-1.896v-3.787L12,8.21l3.25,1.896v3.787L12,15.789z M9.25,13.606L12,15.211
	l2.75-1.604v-3.213L12,8.79l-2.75,1.604V13.606z"/>
<rect x="11.75" y="5" style="fill:#333333;" width="0.5" height="3.5"/>
<rect x="16.5" y="12.484" transform="matrix(0.4961 -0.8682 0.8682 0.4961 -4.1499 21.8491)" style="fill:#333333;" width="0.5" height="4.031"/>
<rect x="5.234" y="14.25" transform="matrix(0.868 -0.4966 0.4966 0.868 -6.2431 5.514)" style="fill:#333333;" width="4.031" height="0.5"/>
<path style="fill:#333333;" d="M12,5.25c-0.965,0-1.75-0.785-1.75-1.75S11.035,1.75,12,1.75s1.75,0.785,1.75,1.75
	S12.965,5.25,12,5.25z M12,2.25c-0.689,0-1.25,0.561-1.25,1.25S11.311,4.75,12,4.75s1.25-0.561,1.25-1.25S12.689,2.25,12,2.25z"/>
<path style="fill:#333333;" d="M4,18.25c-0.965,0-1.75-0.785-1.75-1.75S3.035,14.75,4,14.75s1.75,0.785,1.75,1.75
	S4.965,18.25,4,18.25z M4,15.25c-0.689,0-1.25,0.561-1.25,1.25S3.311,17.75,4,17.75s1.25-0.561,1.25-1.25S4.689,15.25,4,15.25z"/>
<path style="fill:#333333;" d="M20,18.25c-0.965,0-1.75-0.785-1.75-1.75s0.785-1.75,1.75-1.75s1.75,0.785,1.75,1.75
	S20.965,18.25,20,18.25z M20,15.25c-0.689,0-1.25,0.561-1.25,1.25s0.561,1.25,1.25,1.25s1.25-0.561,1.25-1.25S20.689,15.25,20,15.25
	z"/>
</svg>






