<?xml version="1.0" encoding="iso-8859-1"?>
<svg version="1.1" id="&#x56FE;&#x5C42;_1" xmlns="http://www.w3.org/2000/svg" xmlns:xlink="http://www.w3.org/1999/xlink" x="0px"
	 y="0px" viewBox="0 0 24 24" style="enable-background:new 0 0 24 24;" xml:space="preserve">
<path style="fill:#333333;" d="M8.507,21.25c-0.355,0-0.669-0.047-0.92-0.118c-1.036-0.303-1.706-0.871-1.992-1.689
	c-0.452-1.292,0.184-2.986,0.938-4.18c-2.625-0.506-3.791-1.514-4.309-2.288c-0.582-0.87-0.493-1.616-0.428-1.896
	c0.249-1.234,0.857-2.12,1.808-2.627c1.397-0.745,3.308-0.502,4.681-0.023c-0.317-2.602,0.35-3.973,0.985-4.672
	c0.914-1.005,2.05-1.018,2.377-1.002c1.371,0.08,2.413,0.61,3.096,1.576c0.945,1.335,0.927,3.086,0.738,4.118
	c2.586-0.731,4.175-0.315,5.065,0.181c0.818,0.456,1.424,1.196,1.621,1.979c0.203,1.074,0.017,1.978-0.553,2.702
	c-0.722,0.919-1.927,1.371-2.956,1.514c1.59,2.11,1.688,3.551,1.476,4.402c-0.188,0.752-0.706,1.373-1.387,1.663
	c-3.175,0.876-5.151-1.022-5.952-2.459C11.566,20.652,9.777,21.25,8.507,21.25z M5.74,8.474c-0.674,0-1.337,0.119-1.899,0.419
	c-0.812,0.433-1.335,1.204-1.554,2.292c-0.041,0.176-0.131,0.785,0.355,1.512c0.487,0.729,1.638,1.691,4.354,2.141l0.393,0.065
	l-0.23,0.325c-0.772,1.097-1.522,2.815-1.091,4.05c0.23,0.657,0.788,1.12,1.659,1.374c1.058,0.304,3.443,0.086,4.851-2.887
	l0.456,0.012c0.538,1.296,2.393,3.516,5.552,2.642c0.17-0.074,0.844-0.423,1.065-1.312c0.197-0.789,0.069-2.182-1.661-4.329
	l0.182-0.407c0.951-0.049,2.321-0.438,3.053-1.367c0.476-0.605,0.63-1.375,0.457-2.286c-0.058-0.23-0.339-1.072-1.376-1.65
	c-0.851-0.475-2.426-0.862-5.086-0.017l-0.316-0.308c0.273-0.95,0.349-2.832-0.566-4.123c-0.592-0.836-1.506-1.295-2.717-1.366l0,0
	c-0.269-0.015-1.213-0.001-1.978,0.839C8.788,5.032,8.51,6.65,8.839,8.773L8.496,9.042C7.735,8.728,6.725,8.474,5.74,8.474z"/>
<rect x="9.899" y="14" transform="matrix(0.6247 -0.7809 0.7809 0.6247 -6.8114 14.3281)" style="fill:#333333;" width="3.202" height="0.5"/>
<rect x="10.75" y="11.229" transform="matrix(0.1644 -0.9864 0.9864 0.1644 -3.3849 21.5042)" style="fill:#333333;" width="0.501" height="3.041"/>
<rect x="12" y="9.482" transform="matrix(0.9899 -0.1416 0.1416 0.9899 -1.4692 1.8473)" style="fill:#333333;" width="0.499" height="3.536"/>
<rect x="12.419" y="12.25" transform="matrix(0.9487 -0.3162 0.3162 0.9487 -3.2344 5.0686)" style="fill:#333333;" width="3.162" height="0.5"/>
<rect x="13.5" y="12.399" transform="matrix(0.6247 -0.7809 0.7809 0.6247 -5.7717 15.9912)" style="fill:#333333;" width="0.5" height="3.202"/>
</svg>






