<?xml version="1.0" encoding="iso-8859-1"?>
<svg version="1.1" id="&#x56FE;&#x5C42;_1" xmlns="http://www.w3.org/2000/svg" xmlns:xlink="http://www.w3.org/1999/xlink" x="0px"
	 y="0px" viewBox="0 0 24 24" style="enable-background:new 0 0 24 24;" xml:space="preserve">
<path style="fill:#333333;" d="M12,18.25c-3.446,0-6.25-2.804-6.25-6.25V6.14c0-0.215,0.175-0.39,0.39-0.39h11.72
	c0.215,0,0.39,0.175,0.39,0.39V12C18.25,15.446,15.446,18.25,12,18.25z M6.25,6.25V12c0,3.171,2.58,5.75,5.75,5.75
	c3.171,0,5.75-2.579,5.75-5.75V6.25H6.25z"/>
<rect x="9.75" y="2" style="fill:#333333;" width="0.5" height="4"/>
<rect x="13.75" y="2" style="fill:#333333;" width="0.5" height="4"/>
<rect x="11" y="13.25" style="fill:#333333;" width="2" height="0.5"/>
<path style="fill:#333333;" d="M19,22.25h-5.5c-0.965,0-1.75-0.785-1.75-1.75V18h0.5v2.5c0,0.689,0.561,1.25,1.25,1.25H19V22.25z"/>
</svg>






