<?xml version="1.0" encoding="iso-8859-1"?>
<svg version="1.1" id="&#x56FE;&#x5C42;_1" xmlns="http://www.w3.org/2000/svg" xmlns:xlink="http://www.w3.org/1999/xlink" x="0px"
	 y="0px" viewBox="0 0 24 24" style="enable-background:new 0 0 24 24;" xml:space="preserve">
<path style="fill:#333333;" d="M20.75,21.25H5c-0.965,0-1.75-0.785-1.75-1.75v-15c0-0.965,0.785-1.75,1.75-1.75h15.75V21.25z
	 M5,3.25c-0.689,0-1.25,0.561-1.25,1.25v15c0,0.689,0.561,1.25,1.25,1.25h15.25V3.25H5z"/>
<rect x="3.5" y="16.75" style="fill:#333333;" width="17" height="0.5"/>
<rect x="3.25" y="15" style="fill:#333333;" width="0.5" height="4"/>
<rect x="20.25" y="15" style="fill:#333333;" width="0.5" height="4"/>
<path style="fill:#333333;" d="M12.344,13.195L10,11.32l-2.344,1.875L7.25,13V2.75h5.5V13L12.344,13.195z M10,10.68l2.25,1.8V3.25
	h-4.5v9.229L10,10.68z"/>
<rect x="5.5" y="2.75" style="fill:#333333;" width="9" height="0.5"/>
</svg>






