<?xml version="1.0" encoding="iso-8859-1"?>
<svg version="1.1" id="&#x56FE;&#x5C42;_1" xmlns="http://www.w3.org/2000/svg" xmlns:xlink="http://www.w3.org/1999/xlink" x="0px"
	 y="0px" viewBox="0 0 24 24" style="enable-background:new 0 0 24 24;" xml:space="preserve">
<path style="fill:#333333;" d="M12.25,21h-0.5c0-1.517-1.233-2.75-2.75-2.75H2.25v-15H8c2.343,0,4.25,1.907,4.25,4.25V21z
	 M2.75,17.75H9c1.156,0,2.174,0.607,2.75,1.52V7.5c0-2.068-1.682-3.75-3.75-3.75H2.75V17.75z"/>
<path style="fill:#333333;" d="M12.25,21h-0.5V7.5c0-2.343,1.906-4.25,4.25-4.25h5.75v15H15C13.483,18.25,12.25,19.483,12.25,21z
	 M16,3.75c-2.067,0-3.75,1.682-3.75,3.75v11.77c0.576-0.912,1.594-1.52,2.75-1.52h6.25v-14H16z"/>
</svg>






