<?xml version="1.0" encoding="iso-8859-1"?>
<svg version="1.1" id="&#x56FE;&#x5C42;_1" xmlns="http://www.w3.org/2000/svg" xmlns:xlink="http://www.w3.org/1999/xlink" x="0px"
	 y="0px" viewBox="0 0 24 24" style="enable-background:new 0 0 24 24;" xml:space="preserve">
<path style="fill:#333333;" d="M3.75,18.5h-0.5v-13c0-1.792,1.458-3.25,3.25-3.25h11.25v13.5H6.5C4.983,15.75,3.75,16.983,3.75,18.5
	z M6.5,2.75c-1.517,0-2.75,1.233-2.75,2.75v11.27c0.576-0.912,1.594-1.52,2.75-1.52h10.75V2.75H6.5z"/>
<path style="fill:#333333;" d="M20.75,21.75H6.5c-1.792,0-3.25-1.458-3.25-3.25s1.458-3.25,3.25-3.25h11v0.5h-11
	c-1.517,0-2.75,1.233-2.75,2.75s1.233,2.75,2.75,2.75h13.75V3.5h0.5V21.75z"/>
<rect x="7" y="18.25" style="fill:#333333;" width="10" height="0.5"/>
</svg>






