<?xml version="1.0" encoding="iso-8859-1"?>
<svg version="1.1" id="&#x56FE;&#x5C42;_1" xmlns="http://www.w3.org/2000/svg" xmlns:xlink="http://www.w3.org/1999/xlink" x="0px"
	 y="0px" viewBox="0 0 24 24" style="enable-background:new 0 0 24 24;" xml:space="preserve">
<path style="fill:#333333;" d="M19.559,10.25H2.5L2.388,9.777C2.464,9.738,4.25,8.808,4.25,6.5S2.464,3.262,2.388,3.223L2.5,2.75
	l17.111,0.026C19.699,2.82,21.75,3.875,21.75,6.5s-2.051,3.68-2.139,3.724L19.559,10.25z M3.291,9.75h16.147
	c0.301-0.169,1.812-1.127,1.812-3.25s-1.512-3.081-1.812-3.25H3.291C3.917,3.792,4.75,4.828,4.75,6.5S3.917,9.208,3.291,9.75z"/>
<path style="fill:#333333;" d="M21.5,21.25L4.388,21.224C4.301,21.18,2.25,20.124,2.25,17.5s2.051-3.68,2.138-3.724L4.5,13.75h17
	l0.112,0.474c-0.076,0.038-1.862,0.969-1.862,3.276s1.786,3.238,1.862,3.276L21.5,21.25z M4.563,20.75H20.71
	c-0.627-0.542-1.46-1.578-1.46-3.25s0.833-2.708,1.46-3.25H4.563C4.262,14.42,2.75,15.377,2.75,17.5S4.262,20.58,4.563,20.75z"/>
</svg>






