<?xml version="1.0" encoding="iso-8859-1"?>
<svg version="1.1" id="&#x56FE;&#x5C42;_1" xmlns="http://www.w3.org/2000/svg" xmlns:xlink="http://www.w3.org/1999/xlink" x="0px"
	 y="0px" viewBox="0 0 24 24" style="enable-background:new 0 0 24 24;" xml:space="preserve">
<path style="fill:#333333;" d="M19.5,7.669c-0.667,0-1.334-0.179-1.93-0.536L17,6.792l-0.57,0.342c-1.191,0.714-2.668,0.714-3.859,0
	L12,6.792l-0.571,0.342c-1.189,0.715-2.669,0.714-3.858,0L7,6.792L6.429,7.134c-1.189,0.715-2.669,0.714-3.858,0L1.75,6.642V2.25
	h20.5v4.392l-0.82,0.492C20.834,7.491,20.167,7.669,19.5,7.669z M17,6.208l0.828,0.497c1.031,0.619,2.312,0.619,3.344,0l0.578-0.347
	V2.75H2.25v3.608l0.578,0.347c1.032,0.619,2.312,0.619,3.345,0L7,6.208l0.828,0.497c1.032,0.619,2.312,0.619,3.345,0L12,6.208
	l0.828,0.497c1.031,0.619,2.312,0.619,3.344,0L17,6.208z"/>
<path style="fill:#333333;" d="M21.25,21.75H2.75v-9.5h18.5V21.75z M3.25,21.25h17.5v-8.5H3.25V21.25z"/>
<rect x="4.25" y="8" style="fill:#333333;" width="0.5" height="4.5"/>
<rect x="19.25" y="8" style="fill:#333333;" width="0.5" height="4.5"/>
</svg>






