<?xml version="1.0" encoding="iso-8859-1"?>
<svg version="1.1" id="&#x56FE;&#x5C42;_1" xmlns="http://www.w3.org/2000/svg" xmlns:xlink="http://www.w3.org/1999/xlink" x="0px"
	 y="0px" viewBox="0 0 24 24" style="enable-background:new 0 0 24 24;" xml:space="preserve">
<path style="fill:#333333;" d="M9.26,22.041l-3.119-0.03c-0.125-0.068-3.066-1.715-3.066-5.112c0-3.353,3.354-6.879,3.497-7.027
	l0.072-0.075h2.168l0.072,0.075c0.143,0.148,3.497,3.675,3.497,7.027c0,3.397-2.941,5.044-3.066,5.112L9.26,22.041z M6.325,21.551
	h2.806c0.382-0.23,2.76-1.785,2.76-4.652c0-2.897-2.808-6.086-3.29-6.612H6.854c-0.482,0.526-3.29,3.715-3.29,6.612
	C3.564,19.766,5.942,21.32,6.325,21.551z"/>
<path style="fill:#333333;" d="M8.544,10.286H6.773l-0.071-0.119c-0.068-0.113-1.668-2.788-1.668-5.024
	c0-2.188,1.396-3.184,2.694-3.184s2.694,0.997,2.694,3.184c0,2.236-1.6,4.912-1.668,5.024l-0.071,0.119H8.544z M7.052,9.796h1.351
	c0.306-0.538,1.529-2.807,1.529-4.653c0-2.126-1.385-2.694-2.204-2.694c-0.818,0-2.204,0.567-2.204,2.694
	C5.524,6.989,6.747,9.258,7.052,9.796z"/>
<path style="fill:#333333;" d="M18.076,22.041l-3.119-0.03c-0.125-0.068-3.066-1.715-3.066-5.112c0-3.353,3.354-6.879,3.497-7.027
	l0.072-0.075h2.168L17.7,9.871c0.143,0.148,3.497,3.675,3.497,7.027c0,3.397-2.941,5.044-3.066,5.112L18.076,22.041z M15.141,21.551
	h2.807c0.382-0.23,2.76-1.785,2.76-4.652c0-2.897-2.808-6.086-3.29-6.612h-1.746c-0.482,0.526-3.29,3.715-3.29,6.612
	C12.381,19.772,14.758,21.321,15.141,21.551z"/>
<path style="fill:#333333;" d="M17.36,10.286h-1.771l-0.071-0.119c-0.067-0.113-1.668-2.788-1.668-5.024
	c0-2.188,1.396-3.184,2.694-3.184s2.694,0.997,2.694,3.184c0,2.236-1.601,4.912-1.668,5.024l-0.071,0.119H17.36z M15.868,9.796
	h1.352c0.306-0.538,1.528-2.807,1.528-4.653c0-2.126-1.386-2.694-2.204-2.694S14.34,3.017,14.34,5.143
	C14.34,6.989,15.562,9.258,15.868,9.796z"/>
</svg>






