<?xml version="1.0" encoding="iso-8859-1"?>
<svg version="1.1" id="&#x56FE;&#x5C42;_1" xmlns="http://www.w3.org/2000/svg" xmlns:xlink="http://www.w3.org/1999/xlink" x="0px"
	 y="0px" viewBox="0 0 24 24" style="enable-background:new 0 0 24 24;" xml:space="preserve">
<path style="fill:#333333;" d="M15.5,22.25h-7c-0.689,0-1.25-0.561-1.25-1.25V10.78c0-1.802,0.96-3.498,2.505-4.424L9.75,1.75h4.5
	v4.614c1.54,0.918,2.5,2.614,2.5,4.416V21C16.75,21.689,16.189,22.25,15.5,22.25z M10.25,2.25v4.114c0,0.171-0.091,0.332-0.237,0.42
	C8.617,7.621,7.75,9.152,7.75,10.78V21c0,0.413,0.336,0.75,0.75,0.75h7c0.413,0,0.75-0.337,0.75-0.75V10.78
	c0-1.627-0.867-3.158-2.263-3.996c-0.146-0.088-0.237-0.249-0.237-0.42V2.25H10.25z"/>
<rect x="10" y="4.75" style="fill:#333333;" width="4" height="0.5"/>
<polygon style="fill:#333333;" points="16.5,19.25 11.75,19.25 11.75,11.25 16.5,11.25 16.5,11.75 12.25,11.75 12.25,18.75 
	16.5,18.75 "/>
<rect x="16.25" y="10.5" style="fill:#333333;" width="0.5" height="9.5"/>
<rect x="9.75" y="4" style="fill:#333333;" width="0.5" height="2"/>
<rect x="13.75" y="4" style="fill:#333333;" width="0.5" height="2"/>
</svg>






