<?xml version="1.0" encoding="iso-8859-1"?>
<svg version="1.1" id="&#x56FE;&#x5C42;_1" xmlns="http://www.w3.org/2000/svg" xmlns:xlink="http://www.w3.org/1999/xlink" x="0px"
	 y="0px" viewBox="0 0 24 24" style="enable-background:new 0 0 24 24;" xml:space="preserve">
<path style="fill:#333333;" d="M18.25,22.25H5.75V8.75h12.5V22.25z M6.25,21.75h11.5V9.25H6.25V21.75z"/>
<path style="fill:#333333;" d="M16.998,9.25H7.002L7.81,6.796C8.114,5.872,8.973,5.25,9.947,5.25h4.105
	c0.975,0,1.833,0.622,2.137,1.546L16.998,9.25z M7.693,8.75h8.613l-0.592-1.797c-0.236-0.719-0.904-1.203-1.662-1.203H9.947
	c-0.757,0-1.426,0.483-1.663,1.203L7.693,8.75z"/>
<path style="fill:#333333;" d="M13.75,5.5h-0.5v-2c0-0.689-0.561-1.25-1.25-1.25s-1.25,0.561-1.25,1.25v2h-0.5v-2
	c0-0.965,0.785-1.75,1.75-1.75s1.75,0.785,1.75,1.75V5.5z"/>
<rect x="9" y="13" style="fill:#333333;" width="0.5" height="5"/>
</svg>






