<?xml version="1.0" encoding="iso-8859-1"?>
<svg version="1.1" id="&#x56FE;&#x5C42;_1" xmlns="http://www.w3.org/2000/svg" xmlns:xlink="http://www.w3.org/1999/xlink" x="0px"
	 y="0px" viewBox="0 0 24 24" style="enable-background:new 0 0 24 24;" xml:space="preserve">
<path style="fill:#333333;" d="M15.5,22.25h-7c-0.689,0-1.25-0.561-1.25-1.25v-6c0-1.021,0.337-2.033,0.95-2.851L10,9.75
	c0.161-0.215,0.25-0.482,0.25-0.75V1.75h3.5V9c0,0.268,0.089,0.535,0.25,0.75l1.8,2.399c0.612,0.816,0.95,1.829,0.95,2.851v6
	C16.75,21.689,16.189,22.25,15.5,22.25z M10.75,2.25V9c0,0.375-0.124,0.748-0.35,1.05l-1.8,2.4c-0.548,0.73-0.85,1.637-0.85,2.55v6
	c0,0.413,0.336,0.75,0.75,0.75h7c0.413,0,0.75-0.337,0.75-0.75v-6c0-0.914-0.302-1.819-0.851-2.55l-1.8-2.4
	C13.374,9.748,13.25,9.375,13.25,9V2.25H10.75z"/>
<rect x="10.5" y="4.75" style="fill:#333333;" width="3" height="0.5"/>
<rect x="10.25" y="4" style="fill:#333333;" width="0.5" height="2"/>
<rect x="13.25" y="4" style="fill:#333333;" width="0.5" height="2"/>
</svg>






