<?xml version="1.0" encoding="iso-8859-1"?>
<svg version="1.1" id="&#x56FE;&#x5C42;_1" xmlns="http://www.w3.org/2000/svg" xmlns:xlink="http://www.w3.org/1999/xlink" x="0px"
	 y="0px" viewBox="0 0 24 24" style="enable-background:new 0 0 24 24;" xml:space="preserve">
<path style="fill:#333333;" d="M16.75,22.25h-9.5V10.526l3.196-5.776h3.107l3.196,5.84V22.25z M7.75,21.75h8.5V10.655L13.259,5.25
	h-2.518L7.75,10.655V21.75z"/>
<path style="fill:#333333;" d="M14.25,5.25h-4.5v-3.5h4.5V5.25z M10.25,4.75h3.5v-2.5h-3.5V4.75z"/>
<path style="fill:#333333;" d="M12,17.75c-0.965,0-1.75-0.785-1.75-1.75v-3c0-0.965,0.785-1.75,1.75-1.75s1.75,0.785,1.75,1.75v3
	C13.75,16.965,12.965,17.75,12,17.75z M12,11.75c-0.689,0-1.25,0.561-1.25,1.25v3c0,0.689,0.561,1.25,1.25,1.25
	s1.25-0.561,1.25-1.25v-3C13.25,12.311,12.689,11.75,12,11.75z"/>
</svg>






