<?xml version="1.0" encoding="iso-8859-1"?>
<svg version="1.1" id="&#x56FE;&#x5C42;_1" xmlns="http://www.w3.org/2000/svg" xmlns:xlink="http://www.w3.org/1999/xlink" x="0px"
	 y="0px" viewBox="0 0 24 24" style="enable-background:new 0 0 24 24;" xml:space="preserve">
<path style="fill:#333333;" d="M3.512,18.673c-0.364,0-0.702-0.17-0.922-0.47c-0.266-0.361-0.316-0.848-0.131-1.268
	c0.833-1.895,1.291-3.47,1.291-4.436c0-0.782-0.459-1.756-0.944-2.788c-0.214-0.456-0.437-0.926-0.63-1.405
	C2.022,7.93,2.079,7.526,2.326,7.227c0.24-0.289,0.612-0.416,0.995-0.34l0,0c2.389,0.475,5.088,2.225,6.875,4.458l0.055,0.068V11.5
	c0,4.211-2.285,6.688-6.608,7.165C3.598,18.67,3.555,18.673,3.512,18.673z M3.103,7.364c-0.155,0-0.294,0.063-0.392,0.181
	C2.583,7.701,2.556,7.915,2.639,8.12C2.828,8.585,3.046,9.05,3.258,9.5c0.51,1.083,0.992,2.107,0.992,3
	c0,1.324-0.725,3.252-1.333,4.637c-0.113,0.257-0.083,0.553,0.077,0.771c0.141,0.191,0.362,0.278,0.593,0.262
	c4.059-0.448,6.132-2.662,6.163-6.581c-1.717-2.114-4.27-3.763-6.526-4.211l0,0C3.182,7.369,3.142,7.364,3.103,7.364z"/>
<path style="fill:#333333;" d="M20.488,18.673c-0.043,0-0.086-0.003-0.13-0.008c-4.323-0.477-6.608-2.954-6.608-7.165v-0.088
	l0.055-0.068c1.786-2.232,4.484-3.982,6.875-4.458l0,0c0.384-0.077,0.755,0.051,0.995,0.341c0.247,0.299,0.303,0.703,0.149,1.081
	c-0.194,0.479-0.416,0.95-0.631,1.406c-0.485,1.031-0.943,2.004-0.943,2.786c0,0.966,0.458,2.541,1.29,4.436
	c0.186,0.42,0.135,0.905-0.13,1.268C21.19,18.503,20.853,18.673,20.488,18.673z M14.25,11.588c0.03,3.919,2.104,6.133,6.163,6.581
	c0.229,0.016,0.452-0.07,0.594-0.262c0.16-0.219,0.189-0.514,0.076-0.771c-0.608-1.384-1.333-3.312-1.333-4.637
	c0-0.894,0.481-1.917,0.991-2.999c0.212-0.45,0.431-0.915,0.62-1.381c0.083-0.205,0.056-0.419-0.072-0.574
	c-0.122-0.148-0.307-0.208-0.512-0.169l0,0C18.52,7.825,15.967,9.474,14.25,11.588z"/>
<path style="fill:#333333;" d="M14.25,14.75h-4.5v-4.5h4.5V14.75z M10.25,14.25h3.5v-3.5h-3.5V14.25z"/>
</svg>






