<?xml version="1.0" encoding="iso-8859-1"?>
<svg version="1.1" id="&#x56FE;&#x5C42;_1" xmlns="http://www.w3.org/2000/svg" xmlns:xlink="http://www.w3.org/1999/xlink" x="0px"
	 y="0px" viewBox="0 0 24 24" style="enable-background:new 0 0 24 24;" xml:space="preserve">
<path style="fill:#333333;" d="M12.136,22.041C6.599,22.041,2.095,17.536,2.095,12c0-5.537,4.504-10.041,10.041-10.041
	c5.536,0,10.041,4.504,10.041,10.041C22.177,17.536,17.672,22.041,12.136,22.041z M12.136,2.449c-5.267,0-9.551,4.284-9.551,9.551
	s4.284,9.551,9.551,9.551s9.551-4.284,9.551-9.551S17.402,2.449,12.136,2.449z"/>
<path style="fill:#333333;" d="M12.136,12.98c0.813,0,1.469-0.656,1.469-1.469c0-0.813-0.656-1.469-1.469-1.469
	c-0.813,0-1.469,0.656-1.469,1.469C10.666,12.323,11.323,12.98,12.136,12.98z"/>
<path style="fill:#333333;" d="M15.564,9.061c0.813,0,1.469-0.656,1.469-1.469s-0.656-1.469-1.469-1.469
	c-0.813,0-1.469,0.656-1.469,1.469S14.751,9.061,15.564,9.061z"/>
<path style="fill:#333333;" d="M8.707,9.061c0.813,0,1.469-0.656,1.469-1.469S9.52,6.122,8.707,6.122
	c-0.813,0-1.469,0.656-1.469,1.469S7.894,9.061,8.707,9.061z"/>
</svg>






