<?xml version="1.0" encoding="iso-8859-1"?>
<svg version="1.1" id="&#x56FE;&#x5C42;_1" xmlns="http://www.w3.org/2000/svg" xmlns:xlink="http://www.w3.org/1999/xlink" x="0px"
	 y="0px" viewBox="0 0 24 24" style="enable-background:new 0 0 24 24;" xml:space="preserve">
<path style="fill:#333333;" d="M16.25,22.25H7.749l0.007-2.029c-0.3-0.154-0.598-0.33-0.887-0.523
	c-0.507-0.339-0.98-0.728-1.409-1.156C3.712,16.794,2.75,14.471,2.75,12v-0.25h18.5V12c0,2.47-0.962,4.793-2.709,6.541
	c-0.428,0.427-0.897,0.812-1.396,1.147c-0.286,0.191-0.587,0.369-0.895,0.529C16.25,20.672,16.25,22,16.25,22V22.25z M8.251,21.75
	h7.499c0-1.724,0.001-1.725,0.014-1.765l0.033-0.099l0.093-0.046c0.337-0.168,0.666-0.359,0.977-0.568
	c0.472-0.315,0.916-0.681,1.321-1.085c1.594-1.595,2.496-3.694,2.559-5.938H3.253c0.062,2.244,0.966,4.344,2.56,5.938
	c0.405,0.405,0.854,0.773,1.333,1.094c0.316,0.211,0.643,0.4,0.971,0.562l0.14,0.069L8.251,21.75z"/>
<rect x="11.75" y="4" style="fill:#333333;" width="0.5" height="5.004"/>
<rect x="17.75" y="6" style="fill:#333333;" width="0.5" height="3.004"/>
<rect x="5.75" y="6" style="fill:#333333;" width="0.5" height="3.004"/>
<path style="fill:#333333;" d="M18.25,6h-0.5c0-1.241,1.01-2.25,2.25-2.25v0.5C19.035,4.25,18.25,5.035,18.25,6z"/>
<path style="fill:#333333;" d="M12.25,4h-0.5c0-1.241,1.01-2.25,2.25-2.25v0.5C13.035,2.25,12.25,3.035,12.25,4z"/>
<path style="fill:#333333;" d="M6.25,6h-0.5c0-1.241,1.009-2.25,2.25-2.25v0.5C7.035,4.25,6.25,5.035,6.25,6z"/>
</svg>






