<?xml version="1.0" encoding="iso-8859-1"?>
<svg version="1.1" id="&#x56FE;&#x5C42;_1" xmlns="http://www.w3.org/2000/svg" xmlns:xlink="http://www.w3.org/1999/xlink" x="0px"
	 y="0px" viewBox="0 0 24 24" style="enable-background:new 0 0 24 24;" xml:space="preserve">
<path style="fill:#333333;" d="M12,19.75c-4.988,0-8.75-3.762-8.75-8.75v-0.25h17.5V11C20.75,15.988,16.988,19.75,12,19.75z
	 M3.753,11.25c0.124,4.578,3.627,8,8.247,8c4.619,0,8.123-3.422,8.247-8H3.753z"/>
<polygon style="fill:#333333;" points="16.347,22.25 7.653,22.25 8.763,18.921 9.237,19.079 8.347,21.75 15.653,21.75 
	14.763,19.079 15.237,18.921 "/>
<rect x="5.75" y="5" style="fill:#333333;" width="0.5" height="2"/>
<rect x="17.75" y="5" style="fill:#333333;" width="0.5" height="2"/>
<rect x="11.75" y="2.5" style="fill:#333333;" width="0.5" height="4.5"/>
</svg>






