<?xml version="1.0" encoding="iso-8859-1"?>
<svg version="1.1" id="&#x56FE;&#x5C42;_1" xmlns="http://www.w3.org/2000/svg" xmlns:xlink="http://www.w3.org/1999/xlink" x="0px"
	 y="0px" viewBox="0 0 24 24" style="enable-background:new 0 0 24 24;" xml:space="preserve">
<path style="fill:#333333;" d="M20,21.25H4c-0.689,0-1.25-0.561-1.25-1.25V7c0-0.689,0.561-1.25,1.25-1.25h16
	c0.689,0,1.25,0.561,1.25,1.25v13C21.25,20.689,20.689,21.25,20,21.25z M4,6.25C3.586,6.25,3.25,6.586,3.25,7v13
	c0,0.413,0.336,0.75,0.75,0.75h16c0.413,0,0.75-0.337,0.75-0.75V7c0-0.414-0.337-0.75-0.75-0.75H4z"/>
<rect x="8.975" y="11.754" style="fill:#333333;" width="6" height="0.5"/>
<polygon style="fill:#333333;" points="20.812,6.665 17.387,2.75 6.613,2.75 3.188,6.665 2.812,6.335 6.387,2.25 17.613,2.25 
	21.188,6.335 "/>
</svg>






