<?xml version="1.0" encoding="iso-8859-1"?>
<svg version="1.1" id="&#x56FE;&#x5C42;_1" xmlns="http://www.w3.org/2000/svg" xmlns:xlink="http://www.w3.org/1999/xlink" x="0px"
	 y="0px" viewBox="0 0 24 24" style="enable-background:new 0 0 24 24;" xml:space="preserve">
<path style="fill:#333333;" d="M18,18.25H6c-1.792,0-3.25-1.458-3.25-3.25v-4.5c0-1.517,1.233-2.75,2.75-2.75h2
	c1.517,0,2.75,1.233,2.75,2.75s-1.233,2.75-2.75,2.75h-1v-0.5h1c1.241,0,2.25-1.009,2.25-2.25S8.741,8.25,7.5,8.25h-2
	c-1.241,0-2.25,1.009-2.25,2.25V15c0,1.517,1.233,2.75,2.75,2.75h12c1.517,0,2.75-1.233,2.75-2.75v-2c0-0.965-0.785-1.75-1.75-1.75
	h-7v-0.5h7c1.24,0,2.25,1.009,2.25,2.25v2C21.25,16.792,19.792,18.25,18,18.25z"/>
<path style="fill:#333333;" d="M17,22.25H7c-0.689,0-1.25-0.561-1.25-1.25v-3L6,17.75h12L18.25,18v3
	C18.25,21.689,17.689,22.25,17,22.25z M6.25,18.25V21c0,0.413,0.336,0.75,0.75,0.75h10c0.413,0,0.75-0.337,0.75-0.75v-2.75H6.25z"/>
<path style="fill:#333333;" d="M19,11.25H9.95v-0.5H19c1.517,0,2.75-1.233,2.75-2.75V6c0-2.068-1.683-3.75-3.75-3.75H6
	C3.932,2.25,2.25,3.932,2.25,6v2c0,0.932,0.467,1.75,0.75,1.75v0.5c-0.715,0-1.25-1.188-1.25-2.25V6c0-2.343,1.907-4.25,4.25-4.25
	h12c2.344,0,4.25,1.907,4.25,4.25v2C22.25,9.792,20.792,11.25,19,11.25z"/>
</svg>






