<?xml version="1.0" encoding="iso-8859-1"?>
<svg version="1.1" id="&#x56FE;&#x5C42;_1" xmlns="http://www.w3.org/2000/svg" xmlns:xlink="http://www.w3.org/1999/xlink" x="0px"
	 y="0px" viewBox="0 0 24 24" style="enable-background:new 0 0 24 24;" xml:space="preserve">
<path style="fill:#333333;" d="M18,22.25H8.5c-0.689,0-1.25-0.561-1.25-1.25v-3h0.5v3c0,0.413,0.336,0.75,0.75,0.75H18
	c0.413,0,0.75-0.337,0.75-0.75v-3h0.5v3C19.25,21.689,18.689,22.25,18,22.25z"/>
<path style="fill:#333333;" d="M19.003,18.25H7.5c-3.562,0-5.75-3.932-5.75-6.75v-4L2,7.25h3.25V5c0-1.792,1.458-3.25,3.25-3.25H19
	c1.792,0,3.25,1.458,3.25,3.25v10C22.25,16.792,20.793,18.25,19.003,18.25z M2.25,7.75v3.75c0,2.548,2.045,6.25,5.25,6.25h11.503
	c1.515,0,2.747-1.233,2.747-2.75V5c0-1.517-1.233-2.75-2.75-2.75H8.5C6.983,2.25,5.75,3.483,5.75,5v2.5L5.5,7.75H2.25z"/>
<rect x="5.25" y="7" style="fill:#333333;" width="0.5" height="4"/>
</svg>






