<?xml version="1.0" encoding="iso-8859-1"?>
<svg version="1.1" id="&#x56FE;&#x5C42;_1" xmlns="http://www.w3.org/2000/svg" xmlns:xlink="http://www.w3.org/1999/xlink" x="0px"
	 y="0px" viewBox="0 0 24 24" style="enable-background:new 0 0 24 24;" xml:space="preserve">
<path style="fill:#333333;" d="M12,8.25c-1.792,0-3.25-1.458-3.25-3.25S10.208,1.75,12,1.75S15.25,3.208,15.25,5
	S13.792,8.25,12,8.25z M12,2.25c-1.517,0-2.75,1.233-2.75,2.75S10.483,7.75,12,7.75S14.75,6.517,14.75,5S13.517,2.25,12,2.25z"/>
<path style="fill:#333333;" d="M15.75,22h-0.5v-4.642l2.453-1.472l-1.917-6.233C15.434,9.407,13.697,8.25,12,8.25
	c-1.701,0-3.442,1.162-3.789,1.406l-1.919,5.758L8.75,17.38V22h-0.5v-4.38l-2.542-2.034l2.08-6.239L7.85,9.3
	C7.935,9.237,9.94,7.75,12,7.75s4.065,1.487,4.15,1.55l0.064,0.049l0.024,0.078l2.058,6.687l-2.547,1.528V22z"/>
</svg>






