<?xml version="1.0" encoding="iso-8859-1"?>
<svg version="1.1" id="&#x56FE;&#x5C42;_1" xmlns="http://www.w3.org/2000/svg" xmlns:xlink="http://www.w3.org/1999/xlink" x="0px"
	 y="0px" viewBox="0 0 24 24" style="enable-background:new 0 0 24 24;" xml:space="preserve">
<path style="fill:#333333;" d="M12,9.25c-2.068,0-3.75-1.682-3.75-3.75S9.932,1.75,12,1.75c2.067,0,3.75,1.682,3.75,3.75
	S14.067,9.25,12,9.25z M12,2.25c-1.792,0-3.25,1.458-3.25,3.25S10.208,8.75,12,8.75s3.25-1.458,3.25-3.25S13.792,2.25,12,2.25z"/>
<path style="fill:#333333;" d="M13.636,22.25h-3.271L3.791,12.137L4,11.75h16l0.21,0.387L13.636,22.25z M10.636,21.75h2.729
	l6.175-9.5H4.46L10.636,21.75z"/>
</svg>






