<?xml version="1.0" encoding="iso-8859-1"?>
<svg version="1.1" id="&#x56FE;&#x5C42;_1" xmlns="http://www.w3.org/2000/svg" xmlns:xlink="http://www.w3.org/1999/xlink" x="0px"
	 y="0px" viewBox="0 0 24 24" style="enable-background:new 0 0 24 24;" xml:space="preserve">
<path style="fill:#333333;" d="M18.169,17.25H7.055l-1.375-5.5h14.689L18.169,17.25z M7.445,16.75h10.386l1.8-4.5H6.32L7.445,16.75z
	"/>
<polygon style="fill:#333333;" points="5.771,12.102 3.837,7.75 1.75,7.75 1.75,7.25 4.163,7.25 6.229,11.898 "/>
<path style="fill:#333333;" d="M10,22.25c-0.965,0-1.75-0.785-1.75-1.75s0.785-1.75,1.75-1.75s1.75,0.785,1.75,1.75
	S10.965,22.25,10,22.25z M10,19.25c-0.689,0-1.25,0.561-1.25,1.25s0.561,1.25,1.25,1.25s1.25-0.561,1.25-1.25S10.689,19.25,10,19.25
	z"/>
<path style="fill:#333333;" d="M15.5,22.25c-0.965,0-1.75-0.785-1.75-1.75s0.785-1.75,1.75-1.75s1.75,0.785,1.75,1.75
	S16.465,22.25,15.5,22.25z M15.5,19.25c-0.689,0-1.25,0.561-1.25,1.25s0.561,1.25,1.25,1.25s1.25-0.561,1.25-1.25
	S16.189,19.25,15.5,19.25z"/>
<path style="fill:#333333;" d="M20.175,12.25h-4.321l-4.7-8.356l0.235-0.117c0.205-0.103,0.429-0.221,0.67-0.347
	C13.404,2.72,15.248,1.75,17,1.75c1.621,0,3.946,2.988,5.195,4.594l0.085,0.109l-0.045,0.133L20.175,12.25z M16.146,11.75h3.679
	l1.893-5.206C20.649,5.172,18.34,2.25,17,2.25c-1.629,0-3.409,0.937-4.709,1.622c-0.155,0.082-0.304,0.16-0.445,0.233L16.146,11.75z
	"/>
<rect x="15.25" y="2.234" transform="matrix(0.8682 -0.4961 0.4961 0.8682 -0.0664 8.2501)" style="fill:#333333;" width="0.5" height="4.031"/>
</svg>






