<?xml version="1.0" encoding="iso-8859-1"?>
<svg version="1.1" id="&#x56FE;&#x5C42;_1" xmlns="http://www.w3.org/2000/svg" xmlns:xlink="http://www.w3.org/1999/xlink" x="0px"
	 y="0px" viewBox="0 0 24 24" style="enable-background:new 0 0 24 24;" xml:space="preserve">
<path style="fill:#333333;" d="M16.307,22.168c-1.579-1.741-2.101-2.864-1.641-3.533l0.059-0.085l0.101-0.019
	c3.818-0.728,6.925-4.179,6.925-7.692c0-3.321-2.321-8.589-8.551-8.589c-4.147,0-6.478,1.793-7.125,5.483L6.053,7.856L5.941,7.913
	c-2.556,1.299-3.368,1.805-3.622,2c0.092,0.062,0.232,0.14,0.345,0.202c0.635,0.353,1.699,0.943,1.289,1.982
	c-0.115,0.293-0.277,0.63-0.451,0.991c-0.58,1.205-1.301,2.706-0.708,3.534c0.384,0.536,1.146,0.636,2.029,0.751
	c0.871,0.114,1.857,0.243,2.632,0.857c1.023,0.812,1.798,2.056,2.301,3.696l-0.478,0.146c-0.473-1.542-1.191-2.702-2.134-3.45
	c-0.667-0.529-1.541-0.644-2.386-0.754c-0.957-0.126-1.86-0.244-2.37-0.956c-0.766-1.068,0.026-2.718,0.663-4.042
	c0.168-0.349,0.325-0.675,0.437-0.958c0.23-0.583-0.347-0.962-1.067-1.361c-0.373-0.207-0.619-0.344-0.665-0.572
	c-0.02-0.101,0.005-0.202,0.07-0.286c0.15-0.192,0.718-0.613,3.777-2.17C6.323,3.692,8.877,1.75,13.199,1.75
	c6.594,0,9.051,5.575,9.051,9.089c0,3.769-3.159,7.331-7.214,8.16c-0.113,0.306,0.024,1.05,1.642,2.833L16.307,22.168z"/>
<path style="fill:#333333;" d="M13.582,13.483c-0.355,0-0.641-0.113-0.849-0.337c-0.35-0.375-0.453-1.033-0.314-2.009
	c-1.187-0.178-2.023-0.519-2.553-1.04c-0.587-0.577-0.707-1.557-0.358-2.91l0.003-0.009c0.222-0.741,0.866-1.22,1.913-1.424
	c0.866-0.168,1.112-0.003,1.347,0.23c0.112,0.11,0.192,0.19,0.546,0.19c0.846,0,2.445,0.225,2.445,1.075
	c0,0.188,0.471,0.324,1.119,0.324c0.172,0,0.354,0.107,0.543,0.318c0.499,0.558,0.971,1.753,0.824,3.06
	c-0.062,0.559-0.279,0.967-0.645,1.213c-0.445,0.301-1.078,0.346-1.932,0.14c-0.282,0.675-0.92,1.068-1.899,1.169
	C13.707,13.48,13.644,13.483,13.582,13.483z M9.991,7.317c-0.3,1.166-0.224,1.981,0.226,2.424c0.479,0.47,1.327,0.785,2.521,0.935
	l0.26,0.033l-0.045,0.258c-0.204,1.17-0.033,1.646,0.146,1.838c0.134,0.144,0.335,0.197,0.623,0.17
	c0.874-0.09,1.381-0.429,1.549-1.039l0.067-0.242l0.241,0.068c0.809,0.228,1.396,0.224,1.745-0.013
	c0.241-0.163,0.381-0.442,0.428-0.854c0.175-1.568-0.644-2.759-0.885-2.824c-0.002,0-0.005,0-0.007,0
	c-1.026,0-1.599-0.292-1.599-0.822c0-0.229-0.775-0.575-1.945-0.575c-0.517,0-0.72-0.159-0.897-0.335
	c-0.126-0.125-0.229-0.225-0.899-0.094C10.659,6.413,10.159,6.763,9.991,7.317z"/>
<path style="fill:#333333;" d="M12.534,16.353l-0.49-0.098c0.109-0.547,0.495-1.056,0.983-1.701c0.161-0.212,0.336-0.443,0.52-0.699
	c0.305-0.426,1.009-0.969,1.571-1.317l0.264,0.426c-0.503,0.312-1.165,0.814-1.429,1.183c-0.187,0.26-0.364,0.495-0.527,0.711
	C12.958,15.473,12.621,15.919,12.534,16.353z"/>
</svg>






