<?xml version="1.0" encoding="iso-8859-1"?>
<svg version="1.1" id="&#x56FE;&#x5C42;_1" xmlns="http://www.w3.org/2000/svg" xmlns:xlink="http://www.w3.org/1999/xlink" x="0px"
	 y="0px" viewBox="0 0 24 24" style="enable-background:new 0 0 24 24;" xml:space="preserve">
<path style="fill:#333333;" d="M12,20.25c-4.549,0-8.25-3.701-8.25-8.25S7.451,3.75,12,3.75s8.25,3.701,8.25,8.25
	S16.549,20.25,12,20.25z M12,4.25c-4.273,0-7.75,3.477-7.75,7.75s3.477,7.75,7.75,7.75s7.75-3.477,7.75-7.75S16.273,4.25,12,4.25z"
	/>
<path style="fill:#333333;" d="M12,14.25c-1.241,0-2.25-1.01-2.25-2.25c0-1.241,1.009-2.25,2.25-2.25c1.24,0,2.25,1.009,2.25,2.25
	C14.25,13.24,13.24,14.25,12,14.25z M12,10.25c-0.965,0-1.75,0.785-1.75,1.75s0.785,1.75,1.75,1.75s1.75-0.785,1.75-1.75
	S12.965,10.25,12,10.25z"/>
<path style="fill:#333333;" d="M22.25,12.25h-4.497V12c0-0.759-0.147-1.5-0.438-2.202c-0.29-0.703-0.71-1.331-1.246-1.867
	c-0.537-0.537-1.166-0.957-1.867-1.247S12.76,6.247,12,6.247h-0.25V1.75H12c1.353,0,2.672,0.263,3.923,0.78
	c1.249,0.518,2.368,1.265,3.325,2.222c0.956,0.956,1.704,2.075,2.222,3.326s0.78,2.57,0.78,3.922V12.25z M18.248,11.75h3.499
	c-0.03-1.199-0.278-2.369-0.739-3.481c-0.492-1.189-1.204-2.254-2.113-3.164c-0.91-0.91-1.975-1.621-3.163-2.113
	c-1.112-0.46-2.282-0.709-3.481-0.739v3.499c0.738,0.029,1.458,0.187,2.143,0.471c0.763,0.316,1.445,0.772,2.029,1.355
	c0.583,0.583,1.039,1.266,1.355,2.029C18.061,10.292,18.219,11.012,18.248,11.75z"/>
</svg>






