<?xml version="1.0" encoding="iso-8859-1"?>
<svg version="1.1" id="&#x56FE;&#x5C42;_1" xmlns="http://www.w3.org/2000/svg" xmlns:xlink="http://www.w3.org/1999/xlink" x="0px"
	 y="0px" viewBox="0 0 24 24" style="enable-background:new 0 0 24 24;" xml:space="preserve">
<path style="fill:#333333;" d="M18,6.25c-1.24,0-2.25-1.009-2.25-2.25S16.76,1.75,18,1.75S20.25,2.759,20.25,4S19.24,6.25,18,6.25z
	 M18,2.25c-0.965,0-1.75,0.785-1.75,1.75S17.035,5.75,18,5.75S19.75,4.965,19.75,4S18.965,2.25,18,2.25z"/>
<path style="fill:#333333;" d="M7,6.25C5.759,6.25,4.75,5.241,4.75,4S5.759,1.75,7,1.75S9.25,2.759,9.25,4S8.241,6.25,7,6.25z
	 M7,2.25C6.035,2.25,5.25,3.035,5.25,4S6.035,5.75,7,5.75S8.75,4.965,8.75,4S7.965,2.25,7,2.25z"/>
<path style="fill:#333333;" d="M7,22.25c-1.241,0-2.25-1.01-2.25-2.25S5.759,17.75,7,17.75S9.25,18.76,9.25,20S8.241,22.25,7,22.25z
	 M7,18.25c-0.965,0-1.75,0.785-1.75,1.75S6.035,21.75,7,21.75S8.75,20.965,8.75,20S7.965,18.25,7,18.25z"/>
<path style="fill:#333333;" d="M7.25,18h-0.5V6h0.5v9.035c0.943-1.293,3.076-2.166,5.155-3.017C15.033,10.944,17.75,9.832,17.75,8V6
	h0.5v2c0,2.168-2.875,3.344-5.655,4.481C9.967,13.557,7.25,14.668,7.25,16.5V18z"/>
</svg>






