<?xml version="1.0" encoding="iso-8859-1"?>
<svg version="1.1" id="&#x56FE;&#x5C42;_1" xmlns="http://www.w3.org/2000/svg" xmlns:xlink="http://www.w3.org/1999/xlink" x="0px"
	 y="0px" viewBox="0 0 24 24" style="enable-background:new 0 0 24 24;" xml:space="preserve">
<rect x="11.75" y="7.5" style="fill:#333333;" width="0.5" height="9"/>
<path style="fill:#333333;" d="M19.25,7.75H4.75v-3.5h14.5V7.75z M5.25,7.25h13.5v-2.5H5.25V7.25z"/>
<polygon style="fill:#333333;" points="19.811,16.163 16.873,12.75 7.115,12.75 4.19,16.163 3.81,15.837 6.885,12.25 17.102,12.25 
	20.189,15.837 "/>
<path style="fill:#333333;" d="M6.25,20.75h-4.5v-4.5h4.5V20.75z M2.25,20.25h3.5v-3.5h-3.5V20.25z"/>
<path style="fill:#333333;" d="M14.25,20.75h-4.5v-4.5h4.5V20.75z M10.25,20.25h3.5v-3.5h-3.5V20.25z"/>
<path style="fill:#333333;" d="M22.25,20.75h-4.5v-4.5h4.5V20.75z M18.25,20.25h3.5v-3.5h-3.5V20.25z"/>
</svg>






