<?xml version="1.0" encoding="iso-8859-1"?>
<svg version="1.1" id="&#x56FE;&#x5C42;_1" xmlns="http://www.w3.org/2000/svg" xmlns:xlink="http://www.w3.org/1999/xlink" x="0px"
	 y="0px" viewBox="0 0 24 24" style="enable-background:new 0 0 24 24;" xml:space="preserve">
<rect x="3.75" y="6" style="fill:#333333;" width="0.5" height="13"/>
<rect x="19.75" y="6" style="fill:#333333;" width="0.5" height="13"/>
<path style="fill:#333333;" d="M19.798,19.147C19.759,19.093,15.825,13.75,12,13.75c-3.826,0-7.759,5.343-7.798,5.397l-0.404-0.295
	C3.964,18.624,7.919,13.25,12,13.25c4.08,0,8.036,5.374,8.202,5.603L19.798,19.147z"/>
<rect x="2" y="13.25" style="fill:#333333;" width="20" height="0.5"/>
<rect x="2" y="9.25" style="fill:#333333;" width="20" height="0.5"/>
<rect x="11.75" y="7.5" style="fill:#333333;" width="0.5" height="6"/>
<rect x="7.75" y="9.5" style="fill:#333333;" width="0.5" height="4"/>
<rect x="15.75" y="9.5" style="fill:#333333;" width="0.5" height="4"/>
</svg>






