<?xml version="1.0" encoding="iso-8859-1"?>
<svg version="1.1" id="&#x56FE;&#x5C42;_1" xmlns="http://www.w3.org/2000/svg" xmlns:xlink="http://www.w3.org/1999/xlink" x="0px"
	 y="0px" viewBox="0 0 24 24" style="enable-background:new 0 0 24 24;" xml:space="preserve">
<path style="fill:#333333;" d="M18.042,20.25H5.958c-2.321,0-4.208-1.888-4.208-4.208c0-0.728,0.18-1.344,0.534-1.831
	C3.254,12.869,6.146,9.75,12,9.75c5.854,0,8.745,3.119,9.717,4.461c0.354,0.487,0.533,1.104,0.533,1.831
	C22.25,18.362,20.362,20.25,18.042,20.25z M12,10.25c-5.624,0-8.386,2.975-9.312,4.254c-0.291,0.401-0.438,0.918-0.438,1.538
	c0,2.045,1.664,3.708,3.708,3.708h12.083c2.045,0,3.708-1.663,3.708-3.708c0-0.62-0.147-1.137-0.438-1.538
	C20.386,13.225,17.623,10.25,12,10.25z"/>
<rect x="5.75" y="4.5" style="fill:#333333;" width="0.5" height="2"/>
<rect x="6.75" y="11" style="fill:#333333;" width="0.5" height="2"/>
<rect x="17.75" y="4.5" style="fill:#333333;" width="0.5" height="2"/>
<rect x="16.75" y="11" style="fill:#333333;" width="0.5" height="2"/>
<rect x="11.75" y="3.5" style="fill:#333333;" width="0.5" height="3"/>
<rect x="11.75" y="10" style="fill:#333333;" width="0.5" height="4"/>
<path style="fill:#333333;" d="M19.837,12.911C18.428,11.697,15.924,10.25,12,10.25s-6.428,1.447-7.837,2.661l-0.326-0.379
	C5.31,11.263,7.922,9.75,12,9.75c4.077,0,6.689,1.513,8.163,2.782L19.837,12.911z"/>
</svg>






