<?xml version="1.0" encoding="iso-8859-1"?>
<svg version="1.1" id="&#x56FE;&#x5C42;_1" xmlns="http://www.w3.org/2000/svg" xmlns:xlink="http://www.w3.org/1999/xlink" x="0px"
	 y="0px" viewBox="0 0 24 24" style="enable-background:new 0 0 24 24;" xml:space="preserve">
<path style="fill:#333333;" d="M17.75,22.25H5.25V12.5c0-1.888,2.334-2.919,3-3.175V6.75h6.5v2.575c0.666,0.255,3,1.287,3,3.175
	V22.25z M5.75,21.75h11.5V12.5c0-1.799-2.801-2.753-2.829-2.763L14.25,9.68V7.25h-5.5v2.43L8.579,9.737
	C8.551,9.747,5.75,10.705,5.75,12.5V21.75z"/>
<rect x="5.945" y="3.25" transform="matrix(0.7597 -0.6503 0.6503 0.7597 -0.2934 6.2062)" style="fill:#333333;" width="4.61" height="0.5"/>
<rect x="9.75" y="2.945" transform="matrix(0.7593 -0.6508 0.6508 0.7593 -1.0092 7.7718)" style="fill:#333333;" width="0.5" height="4.61"/>
<polygon style="fill:#333333;" points="20.34,10.192 17.25,7.617 17.25,4.25 13,4.25 13,3.75 17.75,3.75 17.75,7.383 20.66,9.808 
	"/>
</svg>






