<?xml version="1.0" encoding="iso-8859-1"?>
<svg version="1.1" id="&#x56FE;&#x5C42;_1" xmlns="http://www.w3.org/2000/svg" xmlns:xlink="http://www.w3.org/1999/xlink" x="0px"
	 y="0px" viewBox="0 0 24 24" style="enable-background:new 0 0 24 24;" xml:space="preserve">
<path style="fill:#333333;" d="M15.721,17.617l-0.441-0.234c0.04-0.075,4.01-7.521,4.997-9.495c0.416-0.832,0.472-1.735,0.159-2.61
	c-0.385-1.081-1.286-1.986-2.538-2.55c-2.323-1.045-5.144-0.443-6.706,1.432c-2.462,2.955-6.444,8.919-6.484,8.979l-0.416-0.277
	c0.04-0.061,4.036-6.045,6.516-9.021c1.704-2.043,4.772-2.703,7.294-1.568c1.377,0.62,2.373,1.628,2.805,2.838
	c0.354,0.992,0.288,2.058-0.184,3.001C19.733,10.092,15.761,17.543,15.721,17.617z"/>
<path style="fill:#333333;" d="M11.248,21.25c-0.312,0-0.632-0.016-0.957-0.032c-0.645-0.032-1.338-0.035-1.985-0.013
	c-1.245,0.041-2.418,0.081-3.37-0.612c-1.389-1.014-2.186-2.471-2.186-3.999c0-3.146,2.673-5.344,6.5-5.344
	c3.584,0,6.5,2.397,6.5,5.344c0,1.604-0.862,3.107-2.366,4.126C12.745,21.152,12.021,21.25,11.248,21.25z M9.25,20.684
	c0.363,0,0.719,0.018,1.066,0.035c1.09,0.053,2.029,0.101,2.787-0.413c1.365-0.924,2.147-2.276,2.147-3.712
	c0-2.671-2.691-4.844-6-4.844c-3.533,0-6,1.992-6,4.844c0,1.366,0.722,2.677,1.981,3.595c0.812,0.594,1.853,0.556,3.058,0.517
	C8.603,20.694,8.923,20.684,9.25,20.684z"/>
<path style="fill:#333333;" d="M9.976,18.25c-0.117,0-0.235-0.005-0.356-0.011c-0.229-0.01-0.477-0.01-0.707-0.004
	c-0.47,0.015-0.915,0.027-1.298-0.217c-0.55-0.353-0.865-0.866-0.865-1.41c0-1.094,1.028-1.858,2.5-1.858
	c1.378,0,2.5,0.834,2.5,1.858c0,0.569-0.341,1.1-0.935,1.453C10.556,18.216,10.273,18.25,9.976,18.25z M9.25,17.729
	c0.133,0,0.265,0.006,0.392,0.012c0.367,0.015,0.684,0.029,0.918-0.108c0.438-0.262,0.69-0.635,0.69-1.023
	c0-0.749-0.897-1.358-2-1.358c-0.963,0-2,0.425-2,1.358c0,0.37,0.231,0.73,0.635,0.988c0.251,0.162,0.604,0.149,1.013,0.139
	C9.013,17.732,9.13,17.729,9.25,17.729z"/>
<path style="fill:#333333;" d="M11.446,9.244C9.292,8.766,7.585,9.236,7.568,9.24L7.431,8.76c0.074-0.021,1.837-0.51,4.123-0.004
	L11.446,9.244z"/>
<path style="fill:#333333;" d="M10.098,5.73L9.901,5.27c0.076-0.032,1.869-0.784,3.697,0l-0.197,0.46
	C11.775,5.033,10.115,5.722,10.098,5.73z"/>
</svg>






