<?xml version="1.0" encoding="iso-8859-1"?>
<svg version="1.1" id="&#x56FE;&#x5C42;_1" xmlns="http://www.w3.org/2000/svg" xmlns:xlink="http://www.w3.org/1999/xlink" x="0px"
	 y="0px" viewBox="0 0 24 24" style="enable-background:new 0 0 24 24;" xml:space="preserve">
<path style="fill:#333333;" d="M18.5,19.75h-13c-1.241,0-2.25-1.01-2.25-2.25v-4c0-2.343,1.907-4.25,4.25-4.25h9
	c2.344,0,4.25,1.907,4.25,4.25v4C20.75,18.74,19.74,19.75,18.5,19.75z M7.5,9.75c-2.068,0-3.75,1.682-3.75,3.75v4
	c0,0.965,0.785,1.75,1.75,1.75h13c0.965,0,1.75-0.785,1.75-1.75v-4c0-2.068-1.683-3.75-3.75-3.75H7.5z"/>
<path style="fill:#333333;" d="M17.25,9.5h-0.5V5.75H17c1.116,0,1.625-0.777,1.625-1.5S18.116,2.75,17,2.75H7
	c-0.509,0-0.933,0.162-1.225,0.469c-0.258,0.271-0.4,0.637-0.4,1.031c0,0.723,0.508,1.5,1.625,1.5h0.25V9.5h-0.5V6.239
	C5.518,6.126,4.875,5.183,4.875,4.25c0-0.523,0.191-1.011,0.538-1.375C5.802,2.466,6.351,2.25,7,2.25h10
	c1.396,0,2.125,1.006,2.125,2c0,0.933-0.643,1.876-1.875,1.989V9.5z"/>
<rect x="9.793" y="5.75" transform="matrix(0.7071 -0.7071 0.7071 0.7071 -1.1673 9.182)" style="fill:#333333;" width="1.414" height="0.5"/>
<rect x="12.793" y="5.75" transform="matrix(0.7071 -0.7071 0.7071 0.7071 -0.2886 11.3033)" style="fill:#333333;" width="1.414" height="0.5"/>
<path style="fill:#333333;" d="M12,16.75c-1.241,0-2.25-1.01-2.25-2.25s1.009-2.25,2.25-2.25c1.24,0,2.25,1.01,2.25,2.25
	S13.24,16.75,12,16.75z M12,12.75c-0.965,0-1.75,0.785-1.75,1.75s0.785,1.75,1.75,1.75s1.75-0.785,1.75-1.75S12.965,12.75,12,12.75z
	"/>
<rect x="7.25" y="19.5" style="fill:#333333;" width="0.5" height="2"/>
<rect x="16.25" y="19.5" style="fill:#333333;" width="0.5" height="2"/>
</svg>






