<?xml version="1.0" encoding="iso-8859-1"?>
<svg version="1.1" id="&#x56FE;&#x5C42;_1" xmlns="http://www.w3.org/2000/svg" xmlns:xlink="http://www.w3.org/1999/xlink" x="0px"
	 y="0px" viewBox="0 0 24 24" style="enable-background:new 0 0 24 24;" xml:space="preserve">
<path style="fill:#333333;" d="M12,11.75c-5.083,0-8.089-4.912-8.214-5.122l0.429-0.257C4.244,6.42,7.204,11.25,12,11.25
	c4.797,0,7.757-4.83,7.786-4.879l0.429,0.257C20.089,6.838,17.083,11.75,12,11.75z"/>
<rect x="3.75" y="5" style="fill:#333333;" width="0.5" height="14"/>
<rect x="19.75" y="5" style="fill:#333333;" width="0.5" height="14"/>
<path style="fill:#333333;" d="M21.981,15.749c-0.061-0.004-6.127-0.451-9.984-0.499c-3.852-0.052-9.924,0.247-9.985,0.25L1.988,15
	c0.061-0.003,6.144-0.304,10.015-0.25c3.873,0.049,9.954,0.496,10.016,0.501L21.981,15.749z"/>
<rect x="7.75" y="10.5" style="fill:#333333;" width="0.5" height="4.5"/>
<rect x="11.75" y="11.5" style="fill:#333333;" width="0.5" height="3.5"/>
<rect x="15.75" y="10.5" style="fill:#333333;" width="0.5" height="4.5"/>
<rect x="1.399" y="7.5" transform="matrix(0.6247 -0.7809 0.7809 0.6247 -4.9258 5.2512)" style="fill:#333333;" width="3.202" height="0.5"/>
<rect x="20.75" y="6.149" transform="matrix(0.7809 -0.6247 0.6247 0.7809 -0.2396 14.8169)" style="fill:#333333;" width="0.5" height="3.202"/>
</svg>






