<?xml version="1.0" encoding="iso-8859-1"?>
<svg version="1.1" id="&#x56FE;&#x5C42;_1" xmlns="http://www.w3.org/2000/svg" xmlns:xlink="http://www.w3.org/1999/xlink" x="0px"
	 y="0px" viewBox="0 0 24 24" style="enable-background:new 0 0 24 24;" xml:space="preserve">
<path style="fill:#333333;" d="M22.25,16.75h-4.5V16.5c0-3.171-2.579-5.75-5.75-5.75c-3.17,0-5.75,2.579-5.75,5.75v0.25h-4.5V9.32
	l0.171-0.057C2.168,9.181,8.023,7.25,12,7.25c3.978,0,9.832,1.931,10.079,2.013L22.25,9.32V16.75z M18.245,16.25h3.505V9.682
	C20.743,9.36,15.524,7.75,12,7.75c-3.525,0-8.743,1.61-9.75,1.932v6.568h3.505c0.132-3.331,2.883-6,6.245-6
	S18.113,12.919,18.245,16.25z"/>
</svg>






