<?xml version="1.0" encoding="iso-8859-1"?>
<svg version="1.1" id="&#x56FE;&#x5C42;_1" xmlns="http://www.w3.org/2000/svg" xmlns:xlink="http://www.w3.org/1999/xlink" x="0px"
	 y="0px" viewBox="0 0 24 24" style="enable-background:new 0 0 24 24;" xml:space="preserve">
<path style="fill:#333333;" d="M16.25,8h-0.5c0-3.009-1.787-5.75-3.75-5.75c-1.962,0-3.75,2.741-3.75,5.75h-0.5
	c0-3.33,1.986-6.25,4.25-6.25C14.264,1.75,16.25,4.67,16.25,8z"/>
<path style="fill:#333333;" d="M20.271,14.25H13.25v-1.5h-2.5v1.5H3.729l0.542-6.5h15.46L20.271,14.25z M13.75,13.75h5.979
	l-0.459-5.5H4.73l-0.458,5.5h5.979v-1.5h3.5V13.75z"/>
<polygon style="fill:#333333;" points="21.288,21.25 2.712,21.25 3.752,13.965 4.248,14.035 3.288,20.75 20.712,20.75 
	19.753,14.035 20.247,13.965 "/>
<path style="fill:#333333;" d="M13.75,15.75h-3.5v-3.5h3.5V15.75z M10.75,15.25h2.5v-2.5h-2.5V15.25z"/>
</svg>






