<?xml version="1.0" encoding="iso-8859-1"?>
<svg version="1.1" id="&#x56FE;&#x5C42;_1" xmlns="http://www.w3.org/2000/svg" xmlns:xlink="http://www.w3.org/1999/xlink" x="0px"
	 y="0px" viewBox="0 0 24 24" style="enable-background:new 0 0 24 24;" xml:space="preserve">
<path style="fill:#333333;" d="M12.01,17.927c-3.17,0-5.75-2.579-5.75-5.75c0-3.17,2.579-5.75,5.75-5.75
	c3.171,0,5.75,2.58,5.75,5.75C17.76,15.348,15.181,17.927,12.01,17.927z M12.01,6.927c-2.895,0-5.25,2.355-5.25,5.25
	c0,2.895,2.355,5.25,5.25,5.25s5.25-2.355,5.25-5.25C17.26,9.282,14.904,6.927,12.01,6.927z"/>
<polygon style="fill:#333333;" points="18.428,5.918 18.072,5.566 19.303,4.329 19.658,4.681 "/>
<rect x="4.296" y="18.637" transform="matrix(0.7052 -0.7091 0.7091 0.7052 -11.911 9.1296)" style="fill:#333333;" width="1.452" height="0.5"/>
<rect x="11.75" y="20.677" style="fill:#333333;" width="0.5" height="1.5"/>
<rect x="20" y="11.427" style="fill:#333333;" width="2" height="0.5"/>
<rect x="19.133" y="17.913" transform="matrix(0.7071 -0.7071 0.7071 0.7071 -7.6055 19.208)" style="fill:#333333;" width="0.5" height="1.744"/>
<path style="fill-rule:evenodd;clip-rule:evenodd;fill:#333333;" d="M12.01,8.677c-1.933,0-3.5,1.567-3.5,3.5s1.567,3.5,3.5,3.5"/>
<rect x="2" y="11.927" style="fill:#333333;" width="2" height="0.5"/>
<rect x="5.285" y="4.292" transform="matrix(0.7069 -0.7073 0.7073 0.7069 -1.9269 5.3857)" style="fill:#333333;" width="0.5" height="1.452"/>
<rect x="11.75" y="1.677" style="fill:#333333;" width="0.5" height="2"/>
</svg>






