<?xml version="1.0" encoding="iso-8859-1"?>
<svg version="1.1" id="&#x56FE;&#x5C42;_1" xmlns="http://www.w3.org/2000/svg" xmlns:xlink="http://www.w3.org/1999/xlink" x="0px"
	 y="0px" viewBox="0 0 24 24" style="enable-background:new 0 0 24 24;" xml:space="preserve">
<path style="fill:#333333;" d="M20.5,21.25h-11c-0.414,0-0.75-0.337-0.75-0.75v-11c0-0.414,0.336-0.75,0.75-0.75h11
	c0.413,0,0.75,0.336,0.75,0.75v11C21.25,20.913,20.913,21.25,20.5,21.25z M9.5,9.25c-0.138,0-0.25,0.112-0.25,0.25v11
	c0,0.138,0.112,0.25,0.25,0.25h11c0.138,0,0.25-0.112,0.25-0.25v-11c0-0.138-0.112-0.25-0.25-0.25H9.5z"/>
<polygon style="fill:#333333;" points="3.25,5.017 2.75,5.017 2.75,2.75 4.984,2.75 4.984,3.25 3.25,3.25 "/>
<polygon style="fill:#333333;" points="4.999,15.25 2.75,15.25 2.75,13.006 3.25,13.006 3.25,14.75 4.999,14.75 "/>
<polygon style="fill:#333333;" points="15.25,5.008 14.75,5.008 14.75,3.25 13.001,3.25 13.001,2.75 15.25,2.75 "/>
<rect x="8.014" y="2.75" style="fill:#333333;" width="1.99" height="0.5"/>
<rect x="2.75" y="8" style="fill:#333333;" width="0.5" height="2"/>
<rect x="14.75" y="8" style="fill:#333333;" width="0.5" height="1.338"/>
<rect x="7.996" y="14.75" style="fill:#333333;" width="1.004" height="0.5"/>
</svg>






