<?xml version="1.0" encoding="iso-8859-1"?>
<svg version="1.1" id="&#x56FE;&#x5C42;_1" xmlns="http://www.w3.org/2000/svg" xmlns:xlink="http://www.w3.org/1999/xlink" x="0px"
	 y="0px" viewBox="0 0 24 24" style="enable-background:new 0 0 24 24;" xml:space="preserve">
<path style="fill:#333333;" d="M12,14.564c-1.391,0-2.522-1.129-2.522-2.516c0-1.387,1.131-2.516,2.522-2.516
	c1.391,0,2.522,1.128,2.522,2.516C14.522,13.436,13.391,14.564,12,14.564z M12,10.033c-1.115,0-2.022,0.904-2.022,2.016
	s0.907,2.016,2.022,2.016s2.022-0.904,2.022-2.016S13.115,10.033,12,10.033z"/>
<path style="fill:#333333;" d="M7.83,16.683C6.489,15.433,5.75,13.77,5.75,12c0-1.77,0.739-3.433,2.08-4.683L8.17,7.683
	C6.932,8.837,6.25,10.37,6.25,12s0.682,3.163,1.92,4.317L7.83,16.683z"/>
<path style="fill:#333333;" d="M16.171,16.683l-0.342-0.365C17.068,15.163,17.75,13.63,17.75,12s-0.682-3.163-1.921-4.317
	l0.342-0.366C17.512,8.567,18.25,10.23,18.25,12C18.25,13.77,17.512,15.433,16.171,16.683z"/>
<path style="fill:#333333;" d="M4.752,19.274c-1.936-1.93-3.002-4.495-3.002-7.225c0-2.73,1.066-5.297,3.002-7.227l0.353,0.354
	C3.264,7.013,2.25,9.453,2.25,12.05c0,2.596,1.014,5.035,2.855,6.871L4.752,19.274z"/>
<path style="fill:#333333;" d="M19.248,19.274l-0.354-0.354c1.842-1.836,2.855-4.275,2.855-6.871c0-2.597-1.014-5.037-2.855-6.873
	l0.354-0.354c1.936,1.93,3.002,4.497,3.002,7.227C22.25,14.779,21.184,17.345,19.248,19.274z"/>
</svg>






