<?xml version="1.0" encoding="iso-8859-1"?>
<svg version="1.1" id="&#x56FE;&#x5C42;_1" xmlns="http://www.w3.org/2000/svg" xmlns:xlink="http://www.w3.org/1999/xlink" x="0px"
	 y="0px" viewBox="0 0 24 24" style="enable-background:new 0 0 24 24;" xml:space="preserve">
<path style="fill:#333333;" d="M22.25,20.25H1.75V5.75h20.5V20.25z M2.25,19.75h19.5V6.25H2.25V19.75z"/>
<path style="fill:#333333;" d="M15.5,15.75c-1.517,0-2.75-1.233-2.75-2.75s1.233-2.75,2.75-2.75s2.75,1.233,2.75,2.75
	S17.017,15.75,15.5,15.75z M15.5,10.75c-1.24,0-2.25,1.009-2.25,2.25c0,1.24,1.01,2.25,2.25,2.25s2.25-1.01,2.25-2.25
	C17.75,11.759,16.74,10.75,15.5,10.75z"/>
<rect x="6" y="10.75" style="fill:#333333;" width="3" height="0.5"/>
<rect x="6" y="14.75" style="fill:#333333;" width="3" height="0.5"/>
<rect x="3.75" y="20" style="fill:#333333;" width="0.5" height="2"/>
<rect x="19.75" y="20" style="fill:#333333;" width="0.5" height="2"/>
<rect x="3.72" y="3.75" transform="matrix(0.9613 -0.2755 0.2755 0.9613 -0.6763 3.1852)" style="fill:#333333;" width="14.56" height="0.5"/>
</svg>






