<?xml version="1.0" encoding="iso-8859-1"?>
<svg version="1.1" id="&#x56FE;&#x5C42;_1" xmlns="http://www.w3.org/2000/svg" xmlns:xlink="http://www.w3.org/1999/xlink" x="0px"
	 y="0px" viewBox="0 0 24 24" style="enable-background:new 0 0 24 24;" xml:space="preserve">
<path style="fill:#333333;" d="M12,22.25C6.348,22.25,1.75,17.652,1.75,12C1.75,6.348,6.348,1.75,12,1.75
	c5.652,0,10.25,4.598,10.25,10.25C22.25,17.652,17.652,22.25,12,22.25z M12,2.25c-5.376,0-9.75,4.374-9.75,9.75
	s4.374,9.75,9.75,9.75s9.75-4.374,9.75-9.75S17.376,2.25,12,2.25z"/>
<g>
	<path style="fill:#333333;" d="M7.5,16.5l2.25-6.75L16.5,7.5l-2.25,6.75L7.5,16.5z"/>
	<path style="fill:#333333;" d="M7.579,16.737l-0.316-0.316l2.29-6.869l6.869-2.29l0.316,0.316l-2.29,6.868l-0.118,0.04
		L7.579,16.737z M9.948,9.948l-2.052,6.157l6.157-2.052l2.052-6.157L9.948,9.948z"/>
</g>
<path style="fill-rule:evenodd;clip-rule:evenodd;fill:#333333;" d="M12,13c0.552,0,1-0.448,1-1s-0.448-1-1-1s-1,0.448-1,1
	S11.448,13,12,13z"/>
</svg>






