<?xml version="1.0" encoding="iso-8859-1"?>
<svg version="1.1" id="&#x56FE;&#x5C42;_1" xmlns="http://www.w3.org/2000/svg" xmlns:xlink="http://www.w3.org/1999/xlink" x="0px"
	 y="0px" viewBox="0 0 24 24" style="enable-background:new 0 0 24 24;" xml:space="preserve">
<path style="fill:#333333;" d="M20,21.25H4c-0.689,0-1.25-0.561-1.25-1.25V9h0.5v11c0,0.413,0.336,0.75,0.75,0.75h16
	c0.413,0,0.75-0.337,0.75-0.75V9h0.5v11C21.25,20.689,20.689,21.25,20,21.25z"/>
<path style="fill:#333333;" d="M21.25,9.25H2.75V4c0-0.689,0.561-1.25,1.25-1.25h16c0.689,0,1.25,0.561,1.25,1.25V9.25z M3.25,8.75
	h17.5V4c0-0.414-0.337-0.75-0.75-0.75H4C3.586,3.25,3.25,3.586,3.25,4V8.75z"/>
<path style="fill-rule:evenodd;clip-rule:evenodd;fill:#333333;" d="M6,7c0.552,0,1-0.448,1-1S6.552,5,6,5S5,5.448,5,6S5.448,7,6,7z
	"/>
<path style="fill-rule:evenodd;clip-rule:evenodd;fill:#333333;" d="M9,7c0.552,0,1-0.448,1-1S9.552,5,9,5S8,5.448,8,6S8.448,7,9,7z
	"/>
<path style="fill-rule:evenodd;clip-rule:evenodd;fill:#333333;" d="M12,7c0.552,0,1-0.448,1-1s-0.448-1-1-1s-1,0.448-1,1
	S11.448,7,12,7z"/>
</svg>






