<?xml version="1.0" encoding="iso-8859-1"?>
<svg version="1.1" id="&#x56FE;&#x5C42;_1" xmlns="http://www.w3.org/2000/svg" xmlns:xlink="http://www.w3.org/1999/xlink" x="0px"
	 y="0px" viewBox="0 0 24 24" style="enable-background:new 0 0 24 24;" xml:space="preserve">
<path style="fill:#333333;" d="M12,22.25C6.348,22.25,1.75,17.652,1.75,12C1.75,6.348,6.348,1.75,12,1.75
	c5.652,0,10.25,4.598,10.25,10.25C22.25,17.652,17.652,22.25,12,22.25z M8.976,21.27c0.952,0.312,1.969,0.48,3.024,0.48
	c5.376,0,9.75-4.374,9.75-9.75c0-1.522-0.351-2.965-0.976-4.25H14.12c1.558,0.78,2.63,2.393,2.63,4.25
	c0,1.498-0.697,2.836-1.784,3.707L8.976,21.27z M3.055,8.121C2.537,9.31,2.25,10.622,2.25,12c0,4.123,2.572,7.656,6.196,9.079
	l4.859-4.512C12.89,16.687,12.452,16.75,12,16.75c-1.521,0-2.876-0.719-3.747-1.833l-0.015,0.011L3.055,8.121z M12,7.75
	c-2.343,0-4.25,1.907-4.25,4.25c0,2.344,1.907,4.25,4.25,4.25c0.996,0,1.912-0.344,2.638-0.92l0.015-0.014l0.001,0.002
	c0.973-0.78,1.597-1.978,1.597-3.318C16.25,9.657,14.344,7.75,12,7.75z M3.295,7.61l4.045,5.312C7.281,12.624,7.25,12.315,7.25,12
	c0-2.619,2.131-4.75,4.75-4.75h8.513c-1.67-2.981-4.86-5-8.513-5C8.202,2.25,4.904,4.433,3.295,7.61z"/>
</svg>






