<?xml version="1.0" encoding="iso-8859-1"?>
<svg version="1.1" id="&#x56FE;&#x5C42;_1" xmlns="http://www.w3.org/2000/svg" xmlns:xlink="http://www.w3.org/1999/xlink" x="0px"
	 y="0px" viewBox="0 0 24 24" style="enable-background:new 0 0 24 24;" xml:space="preserve">
<path style="fill:#333333;" d="M17,11.75c-2.619,0-4.75-2.131-4.75-4.75S14.381,2.25,17,2.25S21.75,4.381,21.75,7
	S19.619,11.75,17,11.75z M17,2.75c-2.344,0-4.25,1.907-4.25,4.25s1.906,4.25,4.25,4.25S21.25,9.343,21.25,7S19.344,2.75,17,2.75z"/>
<path style="fill:#333333;" d="M6,16.25c-2.068,0-3.75-1.683-3.75-3.75c0-2.068,1.682-3.75,3.75-3.75s3.75,1.682,3.75,3.75
	C9.75,14.567,8.068,16.25,6,16.25z M6,9.25c-1.792,0-3.25,1.458-3.25,3.25S4.208,15.75,6,15.75s3.25-1.458,3.25-3.25
	S7.792,9.25,6,9.25z"/>
<path style="fill:#333333;" d="M14.5,21.25c-1.517,0-2.75-1.233-2.75-2.75s1.233-2.75,2.75-2.75s2.75,1.233,2.75,2.75
	S16.017,21.25,14.5,21.25z M14.5,16.25c-1.24,0-2.25,1.01-2.25,2.25s1.01,2.25,2.25,2.25s2.25-1.01,2.25-2.25
	S15.74,16.25,14.5,16.25z"/>
</svg>






