<?xml version="1.0" encoding="iso-8859-1"?>
<svg version="1.1" id="&#x56FE;&#x5C42;_1" xmlns="http://www.w3.org/2000/svg" xmlns:xlink="http://www.w3.org/1999/xlink" x="0px"
	 y="0px" viewBox="0 0 24 24" style="enable-background:new 0 0 24 24;" xml:space="preserve">
<path style="fill:#333333;" d="M22.25,22.25H1.75V10.364L12,3.702l10.25,6.663V22.25z M2.25,21.75h19.5V10.636L12,4.298l-9.75,6.337
	V21.75z"/>
<polygon style="fill:#333333;" points="10.25,22 9.75,22 9.75,11.951 6.25,14.139 6.25,22 5.75,22 5.75,13.861 9.868,11.288 
	10.25,11.5 "/>
<polygon style="fill:#333333;" points="18.25,22 17.75,22 17.75,14.139 14.25,11.951 14.25,22 13.75,22 13.75,11.5 14.133,11.288 
	18.25,13.861 "/>
<rect x="4" y="21.75" style="fill:#333333;" width="16.5" height="0.5"/>
</svg>






