<?xml version="1.0" encoding="iso-8859-1"?>
<svg version="1.1" id="&#x56FE;&#x5C42;_1" xmlns="http://www.w3.org/2000/svg" xmlns:xlink="http://www.w3.org/1999/xlink" x="0px"
	 y="0px" viewBox="0 0 24 24" style="enable-background:new 0 0 24 24;" xml:space="preserve">
<polygon style="fill:#333333;" points="21,21.25 2.75,21.25 2.75,3 3.25,3 3.25,20.75 21,20.75 "/>
<path style="fill:#333333;" d="M18.25,20h-0.5V4.5c0-0.414-0.416-0.75-0.927-0.75H9.176C8.666,3.75,8.25,4.086,8.25,4.5V20h-0.5V4.5
	c0-0.689,0.64-1.25,1.426-1.25h7.647c0.787,0,1.427,0.561,1.427,1.25V20z"/>
<rect x="8.5" y="15.805" style="fill:#333333;" width="8.5" height="0.5"/>
<rect x="11" y="9.25" style="fill:#333333;" width="4" height="0.5"/>
<rect x="12.75" y="7" style="fill:#333333;" width="0.5" height="9.054"/>
</svg>






