<?xml version="1.0" encoding="iso-8859-1"?>
<svg version="1.1" id="&#x56FE;&#x5C42;_1" xmlns="http://www.w3.org/2000/svg" xmlns:xlink="http://www.w3.org/1999/xlink" x="0px"
	 y="0px" viewBox="0 0 24 24" style="enable-background:new 0 0 24 24;" xml:space="preserve">
<path style="fill:#333333;" d="M18.5,19.75h-13c-0.965,0-1.75-0.785-1.75-1.75V4c0-0.965,0.785-1.75,1.75-1.75h13
	c0.965,0,1.75,0.785,1.75,1.75v14C20.25,18.965,19.465,19.75,18.5,19.75z M5.5,2.75C4.811,2.75,4.25,3.311,4.25,4v14
	c0,0.689,0.561,1.25,1.25,1.25h13c0.689,0,1.25-0.561,1.25-1.25V4c0-0.689-0.561-1.25-1.25-1.25H5.5z"/>
<rect x="6.75" y="19.5" style="fill:#333333;" width="0.5" height="2"/>
<rect x="16.75" y="19.5" style="fill:#333333;" width="0.5" height="2"/>
<circle style="fill:#333333;" cx="17" cy="16.5" r="1"/>
<circle style="fill:#333333;" cx="7" cy="16.5" r="1"/>
<rect x="4" y="11.25" style="fill:#333333;" width="16" height="0.5"/>
<rect x="3.75" y="10.5" style="fill:#333333;" width="0.5" height="2"/>
<rect x="19.75" y="10.5" style="fill:#333333;" width="0.5" height="2"/>
<rect x="9" y="6.25" style="fill:#333333;" width="6" height="0.5"/>
</svg>






