<?xml version="1.0" encoding="iso-8859-1"?>
<svg version="1.1" id="&#x56FE;&#x5C42;_1" xmlns="http://www.w3.org/2000/svg" xmlns:xlink="http://www.w3.org/1999/xlink" x="0px"
	 y="0px" viewBox="0 0 24 24" style="enable-background:new 0 0 24 24;" xml:space="preserve">
<path style="fill:#333333;" d="M16.503,21.25c-1.241,0-2.251-1.01-2.251-2.25v-0.247H9.754v0.248c0,1.24-1.009,2.249-2.249,2.249
	s-2.249-1.009-2.249-2.249v-0.248h-0.75c-0.965,0-1.75-0.785-1.75-1.75V4.018c0-0.689,0.561-1.25,1.25-1.25H20
	c0.689,0,1.25,0.561,1.25,1.25v12.985c0,0.965-0.785,1.75-1.75,1.75h-0.747V19C18.753,20.24,17.743,21.25,16.503,21.25z
	 M9.254,18.253h5.498V19c0,0.965,0.785,1.75,1.75,1.75c0.966,0,1.751-0.785,1.751-1.75v-0.747H19.5c0.689,0,1.25-0.561,1.25-1.25
	V4.018c0-0.414-0.337-0.75-0.75-0.75H4.006c-0.414,0-0.75,0.336-0.75,0.75v12.985c0,0.689,0.561,1.25,1.25,1.25h1.25v0.748
	c0,0.965,0.785,1.749,1.749,1.749s1.749-0.784,1.749-1.749V18.253z"/>
<rect x="3" y="11.25" style="fill:#333333;" width="18" height="0.5"/>
<path style="fill:#333333;" d="M17.25,11.75H6.75v-5.5h10.5V11.75z M7.25,11.25h9.5v-4.5h-9.5V11.25z"/>
<rect x="7" y="14.75" style="fill:#333333;" width="1" height="0.5"/>
<rect x="16" y="14.75" style="fill:#333333;" width="1" height="0.5"/>
</svg>






