<?xml version="1.0" encoding="iso-8859-1"?>
<svg version="1.1" id="&#x56FE;&#x5C42;_1" xmlns="http://www.w3.org/2000/svg" xmlns:xlink="http://www.w3.org/1999/xlink" x="0px"
	 y="0px" viewBox="0 0 24 24" style="enable-background:new 0 0 24 24;" xml:space="preserve">
<path style="fill:#333333;" d="M16.21,20.679c-0.125,0-0.25-0.009-0.375-0.025c-1.257-0.174-2.288-1.202-3.065-3.057L12,16.059
	l-0.776,1.553c-0.771,1.84-1.802,2.868-3.058,3.042c-1.509,0.2-2.985-0.895-3.861-1.998c-0.438-0.6-0.596-1.26-0.474-1.971
	c0.163-0.953,0.816-1.869,1.539-2.575c-0.702,0.14-1.247,0.08-1.628-0.179C3.429,13.719,3.25,13.38,3.25,13
	c0.46-2.451-0.36-3.721-0.455-3.857C1.568,7.575,1.834,6.305,2.318,5.829C2.646,5.448,3.08,5.243,3.61,5.27
	c2.689,0.046,7.112,5.255,8.39,6.831c1.277-1.576,5.702-6.786,8.39-6.831c0.528-0.025,0.972,0.183,1.301,0.568
	c0.473,0.452,0.749,1.728-0.493,3.316c-0.087,0.125-0.907,1.396-0.451,3.799c0.004,0.427-0.175,0.766-0.487,0.978
	c-0.382,0.259-0.927,0.318-1.628,0.179c0.723,0.706,1.375,1.621,1.539,2.575c0.121,0.71-0.036,1.371-0.468,1.963
	C18.894,19.666,17.587,20.679,16.21,20.679z M11.776,15.389h0.447l1,2c0.711,1.695,1.61,2.621,2.68,2.77
	c1.294,0.179,2.647-0.864,3.401-1.813c0.343-0.471,0.471-1.004,0.372-1.575c-0.227-1.319-1.563-2.547-2.318-3.063l0.234-0.438
	c1.511,0.604,2.144,0.414,2.385,0.249C20.224,13.351,20.25,13.1,20.25,13c-0.479-2.504,0.369-3.891,0.545-4.143
	c1.164-1.489,0.764-2.455,0.532-2.677c-0.242-0.282-0.532-0.411-0.901-0.411c-0.01,0-0.019,0-0.027,0
	c-1.905,0.033-5.493,3.482-8.203,6.886L12,12.901l-0.196-0.246C9.095,9.251,5.508,5.802,3.602,5.769
	C3.208,5.758,2.921,5.891,2.69,6.162L2.673,6.18C2.442,6.402,2.042,7.369,3.197,8.846c0.184,0.263,1.033,1.649,0.549,4.201
	c0.004,0.053,0.031,0.304,0.276,0.47c0.245,0.165,0.88,0.354,2.385-0.249l0.234,0.438c-0.754,0.518-2.092,1.744-2.318,3.063
	c-0.098,0.572,0.029,1.104,0.379,1.583c0.748,0.941,2.087,1.995,3.395,1.805c1.069-0.147,1.968-1.074,2.672-2.754L11.776,15.389z"/>
<path style="fill:#333333;" d="M11.767,11.524c-0.182-1.885,1.182-5.359,2.806-7.149C15.25,3.628,15.898,3.25,16.5,3.25v0.5
	c-0.448,0-0.986,0.333-1.558,0.961c-1.548,1.705-2.85,4.993-2.678,6.765L11.767,11.524z"/>
<path style="fill:#333333;" d="M12.232,11.524l-0.498-0.049c0.172-1.771-1.128-5.058-2.676-6.763C8.487,4.083,7.948,3.75,7.5,3.75
	v-0.5c0.602,0,1.25,0.379,1.929,1.126C11.053,6.166,12.416,9.64,12.232,11.524z"/>
</svg>






