<?xml version="1.0" encoding="iso-8859-1"?>
<svg version="1.1" id="&#x56FE;&#x5C42;_1" xmlns="http://www.w3.org/2000/svg" xmlns:xlink="http://www.w3.org/1999/xlink" x="0px"
	 y="0px" viewBox="0 0 24 24" style="enable-background:new 0 0 24 24;" xml:space="preserve">
<path style="fill:#333333;" d="M2.25,19.869V3.131l3,1.2v14.338L2.25,19.869z M2.75,3.869v15.262l2-0.8V4.669L2.75,3.869z"/>
<path style="fill:#333333;" d="M7.75,19.869v-8.738l3,1.2v6.338L7.75,19.869z M8.25,11.869v7.262l2-0.8v-5.662L8.25,11.869z"/>
<path style="fill:#333333;" d="M16.25,17.869l-3-1.2v-6.338l3-1.2V17.869z M13.75,16.331l2,0.8V9.869l-2,0.8V16.331z"/>
<path style="fill:#333333;" d="M18.75,19.869V4.131l3,1.2v13.338L18.75,19.869z M19.25,4.869v14.262l2-0.8V5.669L19.25,4.869z"/>
</svg>






