<?xml version="1.0" encoding="iso-8859-1"?>
<svg version="1.1" id="&#x56FE;&#x5C42;_1" xmlns="http://www.w3.org/2000/svg" xmlns:xlink="http://www.w3.org/1999/xlink" x="0px"
	 y="0px" viewBox="0 0 24 24" style="enable-background:new 0 0 24 24;" xml:space="preserve">
<path style="fill:#333333;" d="M12,22.25C6.348,22.25,1.75,17.652,1.75,12C1.75,6.348,6.348,1.75,12,1.75
	c5.652,0,10.25,4.598,10.25,10.25C22.25,17.652,17.652,22.25,12,22.25z M12,2.25c-5.376,0-9.75,4.374-9.75,9.75
	s4.374,9.75,9.75,9.75s9.75-4.374,9.75-9.75S17.376,2.25,12,2.25z"/>
<rect x="10.5" y="11.75" transform="matrix(0.7071 -0.7071 0.7071 0.7071 -4.9706 12)" style="fill:#333333;" width="3" height="0.5"/>
<path style="fill:#333333;" d="M16.419,13.591l-0.354-0.354l0.707-0.707c0.331-0.33,0.513-0.77,0.513-1.237
	s-0.182-0.907-0.513-1.237l-2.828-2.829c-0.682-0.683-1.792-0.683-2.475,0l-0.707,0.707l-0.354-0.354l0.707-0.707
	c0.877-0.877,2.305-0.877,3.182,0l2.828,2.829c0.425,0.425,0.659,0.99,0.659,1.591s-0.234,1.166-0.659,1.591L16.419,13.591z"/>
<path style="fill:#333333;" d="M11.292,17.784c-0.576,0-1.152-0.219-1.591-0.657l-2.828-2.829c-0.877-0.877-0.877-2.305,0-3.182
	l0.707-0.707l0.354,0.354L7.227,11.47c-0.682,0.683-0.682,1.792,0,2.475l2.828,2.829c0.684,0.683,1.794,0.682,2.475,0l0.707-0.708
	l0.354,0.354l-0.707,0.708C12.445,17.565,11.869,17.784,11.292,17.784z"/>
</svg>






