<?xml version="1.0" encoding="iso-8859-1"?>
<svg version="1.1" id="&#x56FE;&#x5C42;_1" xmlns="http://www.w3.org/2000/svg" xmlns:xlink="http://www.w3.org/1999/xlink" x="0px"
	 y="0px" viewBox="0 0 24 24" style="enable-background:new 0 0 24 24;" xml:space="preserve">
<path style="fill:#333333;" d="M17.36,21.25H6.64c-0.486,0-0.931-0.285-1.135-0.727l-2.539-5.5c-0.153-0.333-0.153-0.714,0-1.047
	l2.539-5.5C5.708,8.035,6.154,7.75,6.64,7.75H17.36c0.485,0,0.931,0.285,1.135,0.726l2.538,5.5c0.154,0.332,0.154,0.715,0,1.048
	l-2.538,5.499C18.291,20.965,17.846,21.25,17.36,21.25z M6.64,8.25c-0.292,0-0.559,0.171-0.681,0.436l-2.539,5.5
	c-0.092,0.2-0.092,0.429,0,0.629l2.539,5.5c0.122,0.265,0.389,0.436,0.681,0.436H17.36c0.291,0,0.559-0.171,0.682-0.437l2.538-5.499
	c0.092-0.2,0.092-0.429,0-0.628l-2.538-5.5C17.919,8.421,17.651,8.25,17.36,8.25H6.64z"/>
<polygon style="fill:#333333;" points="9.25,16.75 4,16.75 4,16.25 8.75,16.25 8.75,11.75 4.5,11.75 4.5,11.25 9.25,11.25 "/>
<polygon style="fill:#333333;" points="20,16.25 12.25,16.25 12.25,11.25 19.5,11.25 19.5,11.75 12.75,11.75 12.75,15.75 20,15.75 
	"/>
<path style="fill:#333333;" d="M5.014,4.771c-0.663,0-1.021-0.021-1.03-0.021L4.016,4.25c0.023,0.001,2.341,0.136,6.239-0.302
	c3.891-0.438,8.612-2.166,8.66-2.183l0.173,0.469C19.039,2.252,14.263,4,10.31,4.445C7.89,4.718,6.067,4.771,5.014,4.771z"/>
<polygon style="fill:#333333;" points="12.847,8.197 8.347,4.697 8.653,4.303 12.75,7.489 12.75,4 13.25,4 13.25,8 "/>
<path style="fill:#333333;" d="M4.273,17.854l-1.307-2.831c-0.153-0.333-0.153-0.714,0-1.047l2.114-4.582l0.454,0.21L3.42,14.186
	c-0.092,0.2-0.092,0.429,0,0.629l1.307,2.831L4.273,17.854z"/>
<path style="fill:#333333;" d="M19.727,17.854l-0.453-0.209l1.307-2.831c0.092-0.2,0.092-0.429,0-0.628l-2.114-4.582l0.453-0.21
	l2.114,4.582c0.154,0.332,0.154,0.715,0,1.048L19.727,17.854z"/>
</svg>






