<?xml version="1.0" encoding="iso-8859-1"?>
<svg version="1.1" id="&#x56FE;&#x5C42;_1" xmlns="http://www.w3.org/2000/svg" xmlns:xlink="http://www.w3.org/1999/xlink" x="0px"
	 y="0px" viewBox="0 0 24 24" style="enable-background:new 0 0 24 24;" xml:space="preserve">
<rect x="4" y="21.25" style="fill:#333333;" width="16" height="0.5"/>
<path style="fill:#333333;" d="M8,15.25c-5.25,0-5.25-5.081-5.25-7.25h0.5c0,3.338,0.564,6.75,4.75,6.75V15.25z"/>
<path style="fill:#333333;" d="M16,17.25v-0.5c4.75,0,4.75-7.338,4.75-9.75h0.5C21.25,9.535,21.25,17.25,16,17.25z"/>
<path style="fill:#333333;" d="M16.25,21.75h-8.5V6.5c0-2.343,1.907-4.25,4.25-4.25c2.344,0,4.25,1.907,4.25,4.25V21.75z
	 M8.25,21.25h7.5V6.5c0-2.068-1.683-3.75-3.75-3.75c-2.068,0-3.75,1.682-3.75,3.75V21.25z"/>
</svg>






