<?xml version="1.0" encoding="iso-8859-1"?>
<svg version="1.1" id="&#x56FE;&#x5C42;_1" xmlns="http://www.w3.org/2000/svg" xmlns:xlink="http://www.w3.org/1999/xlink" x="0px"
	 y="0px" viewBox="0 0 24 24" style="enable-background:new 0 0 24 24;" xml:space="preserve">
<path style="fill:#333333;" d="M17.347,22.25H6.653l-2.481-9h15.656L17.347,22.25z M7.034,21.75h9.932l2.206-8H4.828L7.034,21.75z"
	/>
<path style="fill:#333333;" d="M19.75,13.75H4.25V13.5c0-2.542,2.168-3.851,2.755-4.158C7.099,7.952,8.4,5.25,12,5.25
	s4.901,2.702,4.994,4.092c0.587,0.307,2.756,1.615,2.756,4.158V13.75z M4.758,13.25h14.483c-0.16-2.381-2.569-3.511-2.595-3.522
	L16.5,9.661V9.5c0-0.744-0.801-3.75-4.5-3.75S7.5,8.756,7.5,9.5v0.161L7.354,9.728C7.329,9.739,4.918,10.869,4.758,13.25z"/>
<rect x="3" y="13.25" style="fill:#333333;" width="18" height="0.5"/>
<path style="fill:#333333;" d="M14.25,6h-0.5c0-0.965-0.785-1.75-1.75-1.75S10.25,5.035,10.25,6h-0.5c0-1.241,1.009-2.25,2.25-2.25
	C13.24,3.75,14.25,4.759,14.25,6z"/>
<rect x="11.586" y="2.75" transform="matrix(0.7071 -0.7071 0.7071 0.7071 1.6863 10.0711)" style="fill:#333333;" width="2.828" height="0.5"/>
<rect x="9.75" y="13.5" style="fill:#333333;" width="0.5" height="8.5"/>
<rect x="13.75" y="13.5" style="fill:#333333;" width="0.5" height="8.5"/>
</svg>






