<?xml version="1.0" encoding="iso-8859-1"?>
<svg version="1.1" id="&#x56FE;&#x5C42;_1" xmlns="http://www.w3.org/2000/svg" xmlns:xlink="http://www.w3.org/1999/xlink" x="0px"
	 y="0px" viewBox="0 0 24 24" style="enable-background:new 0 0 24 24;" xml:space="preserve">
<path style="fill:#333333;" d="M17.465,21.25H6.535c-0.54,0-1.017-0.345-1.187-0.856l-2.585-7.815l0.475-0.156l2.585,7.814
	c0.102,0.307,0.388,0.514,0.712,0.514h10.93c0.324,0,0.61-0.206,0.712-0.514l2.586-7.814l0.475,0.156l-2.586,7.814
	C18.482,20.905,18.006,21.25,17.465,21.25z"/>
<path style="fill:#333333;" d="M12,15.172c-1.185,0-2.369-0.413-3.313-1.239c-0.826-0.723-1.885-1.121-2.983-1.121H3.158
	c-0.11,0-0.214-0.043-0.291-0.122c-0.077-0.079-0.118-0.183-0.116-0.293C2.833,8.831,5.52,5.761,9.438,4.758l5.097-0.008l0.034,0.01
	c3.847,1.107,6.594,4.247,6.679,7.638c0.002,0.109-0.038,0.213-0.115,0.292c-0.076,0.077-0.183,0.122-0.291,0.122h-2.545
	c-1.099,0-2.158,0.398-2.983,1.121C14.369,14.759,13.185,15.172,12,15.172z M3.255,12.312h2.449c1.22,0,2.396,0.442,3.312,1.244
	c1.701,1.49,4.266,1.49,5.967,0c0.917-0.802,2.094-1.244,3.313-1.244h2.448c-0.13-3.126-2.695-6.017-6.28-7.062H9.5
	C5.957,6.165,3.378,9.063,3.255,12.312z"/>
<path style="fill:#333333;" d="M9.305,5.05C9.269,4.87,9.25,4.685,9.25,4.5c0-1.517,1.233-2.75,2.75-2.75s2.75,1.233,2.75,2.75
	c0,0.183-0.019,0.367-0.055,0.549l-0.49-0.098c0.03-0.15,0.045-0.301,0.045-0.451c0-1.241-1.01-2.25-2.25-2.25
	c-1.241,0-2.25,1.009-2.25,2.25c0,0.152,0.015,0.303,0.045,0.45L9.305,5.05z"/>
</svg>






