<?xml version="1.0" encoding="iso-8859-1"?>
<svg version="1.1" id="&#x56FE;&#x5C42;_1" xmlns="http://www.w3.org/2000/svg" xmlns:xlink="http://www.w3.org/1999/xlink" x="0px"
	 y="0px" viewBox="0 0 24 24" style="enable-background:new 0 0 24 24;" xml:space="preserve">
<polygon style="fill:#333333;" points="19.5,11.2 4.5,11.2 4.399,10.721 13.399,6.771 13.601,7.229 5.691,10.7 19.01,10.7 
	16.798,7.646 17.202,7.354 19.702,10.804 "/>
<g>
	<circle style="fill:#333333;" cx="15.5" cy="6.5" r="2"/>
	<path style="fill:#333333;" d="M15.5,8.75c-1.24,0-2.25-1.009-2.25-2.25s1.01-2.25,2.25-2.25s2.25,1.009,2.25,2.25
		S16.74,8.75,15.5,8.75z M15.5,4.75c-0.965,0-1.75,0.785-1.75,1.75s0.785,1.75,1.75,1.75s1.75-0.785,1.75-1.75
		S16.465,4.75,15.5,4.75z"/>
</g>
<rect x="15.654" y="3" transform="matrix(0.3707 -0.9287 0.9287 0.3707 7.6794 17.8338)" style="fill:#333333;" width="2.693" height="0.501"/>
<path style="fill:#333333;" d="M12,21.75c-5.748,0-10.25-2.196-10.25-5c0-1.101,0.7-2.14,2.024-3.003
	c0.263-0.172,0.553-0.337,0.864-0.492l0.224,0.447c-0.294,0.146-0.568,0.303-0.814,0.463C2.872,14.933,2.25,15.826,2.25,16.75
	c0,2.481,4.374,4.5,9.75,4.5s9.75-2.019,9.75-4.5c0-1.197-1.024-2.096-1.884-2.64l0.268-0.422c1.385,0.875,2.116,1.934,2.116,3.062
	C22.25,19.554,17.748,21.75,12,21.75z"/>
<path style="fill:#333333;" d="M19.75,17.25H4.25v-6.5h15.5V17.25z M4.75,16.75h14.5v-5.5H4.75V16.75z"/>
<rect x="4.5" y="10.75" style="fill:#333333;" width="15.5" height="0.5"/>
</svg>






