<?xml version="1.0" encoding="iso-8859-1"?>
<svg version="1.1" id="&#x56FE;&#x5C42;_1" xmlns="http://www.w3.org/2000/svg" xmlns:xlink="http://www.w3.org/1999/xlink" x="0px"
	 y="0px" viewBox="0 0 24 24" style="enable-background:new 0 0 24 24;" xml:space="preserve">
<rect x="11.75" y="6" style="fill:#333333;" width="0.5" height="2.5"/>
<path style="fill:#333333;" d="M19,21.25H5c-0.689,0-1.25-0.561-1.25-1.25v-6.5h0.5V20c0,0.413,0.336,0.75,0.75,0.75h14
	c0.413,0,0.75-0.337,0.75-0.75v-6.5h0.5V20C20.25,20.689,19.689,21.25,19,21.25z"/>
<path style="fill:#333333;" d="M20.003,13.599c-0.283,0-0.566-0.068-0.823-0.203l-0.172-0.092c-0.422-0.223-0.927-0.222-1.35,0.001
	c-0.569,0.3-1.249,0.298-1.816,0c-0.422-0.221-0.925-0.223-1.351,0c-0.568,0.298-1.247,0.299-1.815,0
	c-0.423-0.223-0.928-0.223-1.351,0c-0.568,0.299-1.247,0.299-1.816,0c-0.423-0.223-0.928-0.223-1.351,0
	c-0.568,0.299-1.247,0.299-1.815,0c-0.423-0.223-0.927-0.223-1.351,0l-0.17,0.09c-0.462,0.243-1.001,0.271-1.482,0.077
	c-0.965-0.387-1.589-1.308-1.589-2.348v-0.14c0-1.508,1.227-2.734,2.734-2.734h15.031c1.508,0,2.734,1.227,2.734,2.734v0.14
	c0,1.04-0.624,1.962-1.59,2.348C20.448,13.557,20.226,13.599,20.003,13.599z M18.333,12.638c0.312,0,0.624,0.074,0.908,0.224
	l0.172,0.092c0.33,0.174,0.717,0.194,1.062,0.054c0.774-0.31,1.275-1.048,1.275-1.883v-0.14c0-1.232-1.002-2.234-2.234-2.234H4.484
	c-1.232,0-2.234,1.002-2.234,2.234v0.14c0,0.834,0.5,1.573,1.275,1.883c0.346,0.14,0.732,0.119,1.063-0.055l0.17-0.09
	c0.569-0.301,1.249-0.3,1.817-0.001c0.423,0.223,0.928,0.223,1.351,0c0.568-0.298,1.247-0.3,1.816,0
	c0.423,0.223,0.929,0.223,1.351,0c0.568-0.298,1.247-0.3,1.816,0c0.423,0.223,0.926,0.224,1.351,0c0.566-0.299,1.245-0.3,1.815,0
	c0.424,0.223,0.928,0.223,1.352,0C17.71,12.712,18.021,12.638,18.333,12.638z"/>
<path style="fill:#333333;" d="M12,6.124c-0.382,0-0.764-0.104-1.076-0.312c-0.583-0.39-0.827-1.068-0.668-1.86
	C10.69,1.775,11.947,1.75,12,1.75c0.054,0,1.31,0.025,1.745,2.201v0c0.158,0.792-0.085,1.47-0.669,1.86
	C12.765,6.02,12.383,6.124,12,6.124z M11.996,2.25c-0.028,0.001-0.901,0.052-1.25,1.799c-0.119,0.592,0.043,1.07,0.457,1.347
	c0.455,0.304,1.142,0.304,1.597,0c0.412-0.276,0.574-0.754,0.456-1.347C12.905,2.302,12.033,2.251,11.996,2.25z"/>
</svg>






