<?xml version="1.0" encoding="iso-8859-1"?>
<svg version="1.1" id="&#x56FE;&#x5C42;_1" xmlns="http://www.w3.org/2000/svg" xmlns:xlink="http://www.w3.org/1999/xlink" x="0px"
	 y="0px" viewBox="0 0 24 24" style="enable-background:new 0 0 24 24;" xml:space="preserve">
<path style="fill:#333333;" d="M20.25,15.25h-16V8.789l11.343-5.091l4.657,5.157V15.25z M4.75,14.75h15V9.046l-4.284-4.744
	L4.75,9.112V14.75z"/>
<path style="fill:#333333;" d="M14.688,12.5C13.757,12.5,13,11.743,13,10.812V9.25H4.5v-0.5h8.693c0.169,0,0.307,0.138,0.307,0.307
	v1.755c0,0.655,0.532,1.188,1.188,1.188s1.188-0.533,1.188-1.188V9.057c0-0.169,0.138-0.307,0.307-0.307H20v0.5h-3.625v1.562
	C16.375,11.743,15.618,12.5,14.688,12.5z"/>
<path style="fill:#333333;" d="M12,20.25c-5.748,0-10.25-2.196-10.25-5c0-1.101,0.7-2.14,2.024-3.003
	c0.263-0.172,0.553-0.337,0.864-0.492l0.224,0.447c-0.294,0.146-0.568,0.303-0.814,0.463C2.872,13.433,2.25,14.326,2.25,15.25
	c0,2.481,4.374,4.5,9.75,4.5s9.75-2.019,9.75-4.5c0-1.197-1.024-2.096-1.884-2.64l0.268-0.422c1.385,0.875,2.116,1.934,2.116,3.062
	C22.25,18.054,17.748,20.25,12,20.25z"/>
</svg>






