<?xml version="1.0" encoding="iso-8859-1"?>
<svg version="1.1" id="&#x56FE;&#x5C42;_1" xmlns="http://www.w3.org/2000/svg" xmlns:xlink="http://www.w3.org/1999/xlink" x="0px"
	 y="0px" viewBox="0 0 24 24" style="enable-background:new 0 0 24 24;" xml:space="preserve">
<path style="fill:#333333;" d="M18.5,18.25h-13c-0.689,0-1.25-0.561-1.25-1.25V8c0-0.689,0.561-1.25,1.25-1.25h13
	c0.689,0,1.25,0.561,1.25,1.25v9C19.75,17.689,19.189,18.25,18.5,18.25z M5.5,7.25C5.086,7.25,4.75,7.586,4.75,8v9
	c0,0.413,0.336,0.75,0.75,0.75h13c0.413,0,0.75-0.337,0.75-0.75V8c0-0.414-0.337-0.75-0.75-0.75H5.5z"/>
<rect x="3" y="17.75" style="fill:#333333;" width="18" height="0.5"/>
<rect x="3" y="20.75" style="fill:#333333;" width="18" height="0.5"/>
<polygon style="fill:#333333;" points="16.75,14.75 13.25,14.75 13.25,10.75 10.75,10.75 10.75,13.25 7.25,13.25 7.25,10.75 
	4.5,10.75 4.5,10.25 7.75,10.25 7.75,12.75 10.25,12.75 10.25,10.25 13.75,10.25 13.75,14.25 16.25,14.25 16.25,10.25 19.5,10.25 
	19.5,10.75 16.75,10.75 "/>
<rect x="4.25" y="9.5" style="fill:#333333;" width="0.5" height="2"/>
<rect x="19.25" y="9.5" style="fill:#333333;" width="0.5" height="2"/>
<rect x="16.25" y="4" style="fill:#333333;" width="0.5" height="3"/>
<rect x="11.75" y="2" style="fill:#333333;" width="0.5" height="5"/>
<rect x="7.25" y="4" style="fill:#333333;" width="0.5" height="3"/>
</svg>






