<?xml version="1.0" encoding="iso-8859-1"?>
<svg version="1.1" id="&#x56FE;&#x5C42;_1" xmlns="http://www.w3.org/2000/svg" xmlns:xlink="http://www.w3.org/1999/xlink" x="0px"
	 y="0px" viewBox="0 0 24 24" style="enable-background:new 0 0 24 24;" xml:space="preserve">
<path style="fill:#333333;" d="M21,22.25H3c-0.689,0-1.25-0.561-1.25-1.25V3c0-0.689,0.561-1.25,1.25-1.25h18
	c0.689,0,1.25,0.561,1.25,1.25v18C22.25,21.689,21.689,22.25,21,22.25z M3,2.25C2.586,2.25,2.25,2.586,2.25,3v18
	c0,0.413,0.336,0.75,0.75,0.75h18c0.413,0,0.75-0.337,0.75-0.75V3c0-0.414-0.337-0.75-0.75-0.75H3z"/>
<rect x="2" y="6.75" style="fill:#333333;" width="20" height="0.5"/>
<rect x="1.75" y="5.5" style="fill:#333333;" width="0.5" height="6"/>
<rect x="21.75" y="5.5" style="fill:#333333;" width="0.5" height="6"/>
<path style="fill:#333333;" d="M18.25,18.25h-4.5v-7.5h4.5V18.25z M14.25,17.75h3.5v-6.5h-3.5V17.75z"/>
<polygon style="fill:#333333;" points="10.25,18.25 6,18.25 6,17.75 9.75,17.75 9.75,11.25 6,11.25 6,10.75 10.25,10.75 "/>
<rect x="7" y="14.25" style="fill:#333333;" width="3" height="0.5"/>
</svg>






