<?xml version="1.0" encoding="iso-8859-1"?>
<svg version="1.1" id="&#x56FE;&#x5C42;_1" xmlns="http://www.w3.org/2000/svg" xmlns:xlink="http://www.w3.org/1999/xlink" x="0px"
	 y="0px" viewBox="0 0 24 24" style="enable-background:new 0 0 24 24;" xml:space="preserve">
<path style="fill:#333333;" d="M12,20.25c-4.549,0-8.25-3.701-8.25-8.25V5h0.5v7c0,4.273,3.477,7.75,7.75,7.75s7.75-3.477,7.75-7.75
	V5h0.5v7C20.25,16.549,16.549,20.25,12,20.25z"/>
<rect x="2" y="4.75" style="fill:#333333;" width="20" height="0.5"/>
<path style="fill:#333333;" d="M12,15.25c-1.792,0-3.25-1.458-3.25-3.25S10.208,8.75,12,8.75s3.25,1.458,3.25,3.25
	S13.792,15.25,12,15.25z M12,9.25c-1.517,0-2.75,1.233-2.75,2.75s1.233,2.75,2.75,2.75s2.75-1.233,2.75-2.75S13.517,9.25,12,9.25z"
	/>
</svg>






