<?xml version="1.0" encoding="iso-8859-1"?>
<svg version="1.1" id="&#x56FE;&#x5C42;_1" xmlns="http://www.w3.org/2000/svg" xmlns:xlink="http://www.w3.org/1999/xlink" x="0px"
	 y="0px" viewBox="0 0 24 24" style="enable-background:new 0 0 24 24;" xml:space="preserve">
<path style="fill:#333333;" d="M12,18.25c-3.446,0-6.25-2.804-6.25-6.25V8c0-3.446,2.804-6.25,6.25-6.25S18.25,4.554,18.25,8v4
	C18.25,15.446,15.446,18.25,12,18.25z M12,2.25C8.83,2.25,6.25,4.83,6.25,8v4c0,3.171,2.58,5.75,5.75,5.75
	c3.171,0,5.75-2.579,5.75-5.75V8C17.75,4.83,15.171,2.25,12,2.25z"/>
<rect x="11.75" y="18" style="fill:#333333;" width="0.5" height="4"/>
<rect x="8" y="21.75" style="fill:#333333;" width="8" height="0.5"/>
<path style="fill:#333333;" d="M12,11.75c-1.792,0-3.25-1.458-3.25-3.25S10.208,5.25,12,5.25s3.25,1.458,3.25,3.25
	S13.792,11.75,12,11.75z M12,5.75c-1.517,0-2.75,1.233-2.75,2.75s1.233,2.75,2.75,2.75s2.75-1.233,2.75-2.75S13.517,5.75,12,5.75z"
	/>
<circle style="fill:#333333;" cx="12" cy="14.5" r="1"/>
</svg>






