<?xml version="1.0" encoding="iso-8859-1"?>
<svg version="1.1" id="&#x56FE;&#x5C42;_1" xmlns="http://www.w3.org/2000/svg" xmlns:xlink="http://www.w3.org/1999/xlink" x="0px"
	 y="0px" viewBox="0 0 24 24" style="enable-background:new 0 0 24 24;" xml:space="preserve">
<path style="fill:#333333;" d="M12,16.75c-3.998,0-7.25-3.252-7.25-7.25c0-3.998,3.252-7.25,7.25-7.25c3.998,0,7.25,3.252,7.25,7.25
	C19.25,13.498,15.998,16.75,12,16.75z M12,2.75c-3.722,0-6.75,3.028-6.75,6.75c0,3.722,3.028,6.75,6.75,6.75
	c3.722,0,6.75-3.028,6.75-6.75C18.75,5.778,15.722,2.75,12,2.75z"/>
<path style="fill:#333333;" d="M12,12.75c-1.792,0-3.25-1.458-3.25-3.25S10.208,6.25,12,6.25s3.25,1.458,3.25,3.25
	S13.792,12.75,12,12.75z M12,6.75c-1.517,0-2.75,1.233-2.75,2.75s1.233,2.75,2.75,2.75s2.75-1.233,2.75-2.75S13.517,6.75,12,6.75z"
	/>
<polygon style="fill:#333333;" points="18.904,21.75 5.096,21.75 8.276,15.389 8.724,15.611 5.904,21.25 18.096,21.25 
	15.276,15.611 15.724,15.389 "/>
</svg>






