<?xml version="1.0" encoding="iso-8859-1"?>
<svg version="1.1" id="&#x56FE;&#x5C42;_1" xmlns="http://www.w3.org/2000/svg" xmlns:xlink="http://www.w3.org/1999/xlink" x="0px"
	 y="0px" viewBox="0 0 24 24" style="enable-background:new 0 0 24 24;" xml:space="preserve">
<path style="fill:#333333;" d="M12,18.75c-4.549,0-8.25-3.701-8.25-8.25S7.451,2.25,12,2.25s8.25,3.701,8.25,8.25
	S16.549,18.75,12,18.75z M12,2.75c-4.273,0-7.75,3.477-7.75,7.75s3.477,7.75,7.75,7.75s7.75-3.477,7.75-7.75S16.273,2.75,12,2.75z"
	/>
<path style="fill:#333333;" d="M12,14.25c-2.068,0-3.75-1.683-3.75-3.75c0-2.068,1.682-3.75,3.75-3.75c2.067,0,3.75,1.682,3.75,3.75
	C15.75,12.567,14.067,14.25,12,14.25z M12,7.25c-1.792,0-3.25,1.458-3.25,3.25s1.458,3.25,3.25,3.25s3.25-1.458,3.25-3.25
	S13.792,7.25,12,7.25z"/>
<rect x="8" y="21.25" style="fill:#333333;" width="8" height="0.5"/>
<rect x="11.75" y="18.5" style="fill:#333333;" width="0.5" height="3"/>
</svg>






