<?xml version="1.0" encoding="iso-8859-1"?>
<svg version="1.1" id="&#x56FE;&#x5C42;_1" xmlns="http://www.w3.org/2000/svg" xmlns:xlink="http://www.w3.org/1999/xlink" x="0px"
	 y="0px" viewBox="0 0 24 24" style="enable-background:new 0 0 24 24;" xml:space="preserve">
<path style="fill:#333333;" d="M20,20.25H4c-0.689,0-1.25-0.561-1.25-1.25V8c0-0.689,0.561-1.25,1.25-1.25h16
	c0.689,0,1.25,0.561,1.25,1.25v11C21.25,19.689,20.689,20.25,20,20.25z M4,7.25C3.586,7.25,3.25,7.586,3.25,8v11
	c0,0.413,0.336,0.75,0.75,0.75h16c0.413,0,0.75-0.337,0.75-0.75V8c0-0.414-0.337-0.75-0.75-0.75H4z"/>
<path style="fill:#333333;" d="M11.356,7.25H4.644l1.264-3.5h4.184L11.356,7.25z M5.356,6.75h5.288l-0.903-2.5H6.259L5.356,6.75z"/>
<path style="fill:#333333;" d="M14.5,17.25c-2.067,0-3.75-1.683-3.75-3.75c0-2.068,1.683-3.75,3.75-3.75s3.75,1.682,3.75,3.75
	C18.25,15.567,16.567,17.25,14.5,17.25z M14.5,10.25c-1.792,0-3.25,1.458-3.25,3.25s1.458,3.25,3.25,3.25s3.25-1.458,3.25-3.25
	S16.292,10.25,14.5,10.25z"/>
<rect x="17.75" y="5" style="fill:#333333;" width="0.5" height="2"/>
</svg>






