<?xml version="1.0" encoding="iso-8859-1"?>
<svg version="1.1" id="&#x56FE;&#x5C42;_1" xmlns="http://www.w3.org/2000/svg" xmlns:xlink="http://www.w3.org/1999/xlink" x="0px"
	 y="0px" viewBox="0 0 24 24" style="enable-background:new 0 0 24 24;" xml:space="preserve">
<polygon style="fill:#333333;" points="22,17.75 19.854,17.75 19.782,17.622 12,3.761 4.146,17.75 2,17.75 2,17.25 3.854,17.25 
	11.782,3.127 12.218,3.127 20.146,17.25 22,17.25 "/>
<path style="fill:#333333;" d="M14.75,20.75h-5.5V19.5c0-2.344,1.233-4.25,2.75-4.25s2.75,1.906,2.75,4.25V20.75z M9.75,20.25h4.5
	V19.5c0-2.067-1.01-3.75-2.25-3.75c-1.241,0-2.25,1.683-2.25,3.75V20.25z"/>
<rect x="2" y="20.25" style="fill:#333333;" width="20" height="0.5"/>
<path style="fill:#333333;" d="M16.344,11.695C16.319,11.676,13.888,9.75,12,9.75c-1.891,0-4.319,1.926-4.344,1.945l-0.312-0.391
	C7.449,11.221,9.936,9.25,12,9.25c2.063,0,4.552,1.971,4.656,2.055L16.344,11.695z"/>
<polygon style="fill:#333333;" points="19.792,6.139 18.699,4.5 19.792,2.861 20.208,3.139 19.301,4.5 20.208,5.861 "/>
<polygon style="fill:#333333;" points="20.208,6.139 19.792,5.861 20.699,4.5 19.792,3.139 20.208,2.861 21.301,4.5 "/>
<polygon style="fill:#333333;" points="3.276,10.612 2.721,9.5 3.276,8.388 3.724,8.612 3.279,9.5 3.724,10.388 "/>
<polygon style="fill:#333333;" points="3.724,10.612 3.276,10.388 3.721,9.5 3.276,8.612 3.724,8.388 4.279,9.5 "/>
</svg>






