<?xml version="1.0" encoding="iso-8859-1"?>
<svg version="1.1" id="&#x56FE;&#x5C42;_1" xmlns="http://www.w3.org/2000/svg" xmlns:xlink="http://www.w3.org/1999/xlink" x="0px"
	 y="0px" viewBox="0 0 24 24" style="enable-background:new 0 0 24 24;" xml:space="preserve">
<path style="fill:#333333;" d="M18.5,11.75c-1.792,0-3.25-1.458-3.25-3.25s1.458-3.25,3.25-3.25s3.25,1.458,3.25,3.25
	S20.292,11.75,18.5,11.75z M18.5,5.75c-1.517,0-2.75,1.233-2.75,2.75s1.233,2.75,2.75,2.75s2.75-1.233,2.75-2.75
	S20.017,5.75,18.5,5.75z"/>
<path style="fill:#333333;" d="M3.2,6.65l-0.4-0.3c0.126-0.167,3.133-4.1,8.2-4.1c5.046,0,8.052,2.948,8.177,3.073l-0.354,0.354
	C18.794,5.647,15.83,2.75,11,2.75C6.189,2.75,3.229,6.611,3.2,6.65z"/>
<path style="fill:#333333;" d="M5.5,18.75c-1.792,0-3.25-1.458-3.25-3.25s1.458-3.25,3.25-3.25s3.25,1.458,3.25,3.25
	S7.292,18.75,5.5,18.75z M5.5,12.75c-1.517,0-2.75,1.233-2.75,2.75s1.233,2.75,2.75,2.75s2.75-1.233,2.75-2.75
	S7.017,12.75,5.5,12.75z"/>
<path style="fill:#333333;" d="M13,21.75c-5.045,0-8.051-2.947-8.177-3.073l0.354-0.354C5.206,18.353,8.169,21.25,13,21.25
	c4.812,0,7.771-3.861,7.8-3.9l0.4,0.301C21.074,17.817,18.066,21.75,13,21.75z"/>
</svg>






