<?xml version="1.0" encoding="iso-8859-1"?>
<svg version="1.1" id="&#x56FE;&#x5C42;_1" xmlns="http://www.w3.org/2000/svg" xmlns:xlink="http://www.w3.org/1999/xlink" x="0px"
	 y="0px" viewBox="0 0 24 24" style="enable-background:new 0 0 24 24;" xml:space="preserve">
<path style="fill:#333333;" d="M12,17.25c-2.895,0-5.25-2.355-5.25-5.25c0-2.895,2.355-5.25,5.25-5.25c2.895,0,5.25,2.355,5.25,5.25
	C17.25,14.895,14.895,17.25,12,17.25z M12,7.25c-2.619,0-4.75,2.131-4.75,4.75s2.131,4.75,4.75,4.75s4.75-2.131,4.75-4.75
	S14.619,7.25,12,7.25z"/>
<path style="fill:#333333;" d="M12,14.25c-1.241,0-2.25-1.01-2.25-2.25h0.5c0,0.965,0.785,1.75,1.75,1.75V14.25z"/>
<path style="fill:#333333;" d="M8.639,8.702L1.918,7.731L1.777,7.307L7.244,1.84l0.424,0.141L8.639,8.702z M2.484,7.307l5.564,0.804
	L7.245,2.546L2.484,7.307z"/>
<path style="fill:#333333;" d="M16.756,22.223l-0.424-0.141l-0.971-6.721l6.721,0.971l0.141,0.424L16.756,22.223z M15.951,15.951
	l0.804,5.565l4.762-4.762L15.951,15.951z"/>
</svg>






