<?xml version="1.0" encoding="iso-8859-1"?>
<svg version="1.1" id="&#x56FE;&#x5C42;_1" xmlns="http://www.w3.org/2000/svg" xmlns:xlink="http://www.w3.org/1999/xlink" x="0px"
	 y="0px" viewBox="0 0 24 24" style="enable-background:new 0 0 24 24;" xml:space="preserve">
<path style="fill:#333333;" d="M9.25,5.5h-0.5c0-1.517-1.233-2.75-2.75-2.75S3.25,3.983,3.25,5.5h-0.5c0-1.792,1.458-3.25,3.25-3.25
	S9.25,3.708,9.25,5.5z"/>
<rect x="8.75" y="5.5" style="fill:#333333;" width="0.5" height="9"/>
<path style="fill:#333333;" d="M15.25,5.5h-0.5c0-1.517-1.233-2.75-2.75-2.75S9.25,3.983,9.25,5.5h-0.5
	c0-1.792,1.458-3.25,3.25-3.25S15.25,3.708,15.25,5.5z"/>
<path style="fill:#333333;" d="M11,21.75v-0.5c3.695,0,3.749-3.237,3.75-3.375V5.5h0.5v12.375C15.25,17.914,15.201,21.75,11,21.75z"
	/>
<path style="fill:#333333;" d="M18,18.25c-1.792,0-3.25-1.458-3.25-3.25s1.458-3.25,3.25-3.25s3.25,1.458,3.25,3.25
	S19.792,18.25,18,18.25z M18,12.25c-1.517,0-2.75,1.233-2.75,2.75s1.233,2.75,2.75,2.75s2.75-1.233,2.75-2.75S19.517,12.25,18,12.25
	z"/>
</svg>






