<?xml version="1.0" encoding="iso-8859-1"?>
<svg version="1.1" id="&#x56FE;&#x5C42;_1" xmlns="http://www.w3.org/2000/svg" xmlns:xlink="http://www.w3.org/1999/xlink" x="0px"
	 y="0px" viewBox="0 0 24 24" style="enable-background:new 0 0 24 24;" xml:space="preserve">
<path style="fill-rule:evenodd;clip-rule:evenodd;fill:#333333;" d="M6.75,16C7.44,16,8,15.44,8,14.75S7.44,13.5,6.75,13.5
	S5.5,14.06,5.5,14.75S6.06,16,6.75,16z"/>
<path style="fill-rule:evenodd;clip-rule:evenodd;fill:#333333;" d="M17.25,16c0.69,0,1.25-0.56,1.25-1.25s-0.56-1.25-1.25-1.25
	S16,14.06,16,14.75S16.56,16,17.25,16z"/>
<path style="fill:#333333;" d="M17.501,21.25c-1.241,0-2.251-1.01-2.251-2.25v-0.25h-6.5V19c0,1.24-1.009,2.25-2.25,2.25
	c-1.24,0-2.25-1.01-2.25-2.25v-0.25H3.5c-0.965,0-1.75-0.785-1.75-1.75v-4.646c0-1.239,0.688-2.353,1.797-2.907L3.784,9.33
	l1.128-4.84C5.15,3.465,6.051,2.75,7.103,2.75h9.844c1.062,0,1.965,0.724,2.196,1.759l1.076,4.821l0.233,0.117
	c1.108,0.554,1.797,1.668,1.797,2.907V17c0,0.965-0.785,1.75-1.75,1.75h-0.748V19C19.752,20.24,18.742,21.25,17.501,21.25z
	 M8.25,18.25h7.5V19c0,0.965,0.785,1.75,1.751,1.75s1.751-0.785,1.751-1.75v-0.75H20.5c0.689,0,1.25-0.561,1.25-1.25v-4.646
	c0-1.049-0.582-1.991-1.52-2.46l-0.446-0.223l-1.129-5.053c-0.18-0.806-0.882-1.369-1.708-1.369H7.103
	c-0.818,0-1.519,0.556-1.704,1.353l-1.182,5.07L3.771,9.895c-0.938,0.469-1.521,1.412-1.521,2.46V17c0,0.689,0.561,1.25,1.25,1.25
	h1.25V19c0,0.965,0.785,1.75,1.75,1.75S8.25,19.965,8.25,19V18.25z"/>
<path style="fill:#333333;" d="M17.312,11.25H6.688l0.894-4.021C7.71,6.653,8.212,6.25,8.802,6.25h6.396
	c0.59,0,1.092,0.403,1.22,0.979L17.312,11.25z M7.312,10.75h9.377L15.93,7.337c-0.077-0.346-0.378-0.587-0.731-0.587H8.802
	c-0.354,0-0.655,0.242-0.732,0.587L7.312,10.75z"/>
</svg>






