<?xml version="1.0" encoding="iso-8859-1"?>
<svg version="1.1" id="&#x56FE;&#x5C42;_1" xmlns="http://www.w3.org/2000/svg" xmlns:xlink="http://www.w3.org/1999/xlink" x="0px"
	 y="0px" viewBox="0 0 24 24" style="enable-background:new 0 0 24 24;" xml:space="preserve">
<path style="fill:#333333;" d="M12,21.3l-0.138-0.091c-1.823-1.203-3.365-2.425-4.583-3.631L6.68,16.989l0.351-0.355l0.6,0.589
	C8.795,18.375,10.265,19.545,12,20.7c1.733-1.154,3.203-2.323,4.37-3.478l0.354-0.348c1.88-1.846,5.026-4.935,5.026-8.475
	c0-2.84-2.335-5.15-5.204-5.15c-1.747,0-3.369,0.861-4.338,2.304L12,5.862l-0.208-0.309C10.824,4.111,9.202,3.25,7.455,3.25
	c-2.87,0-5.205,2.31-5.205,5.15c0,0.812,0.169,1.658,0.503,2.512c0.077,0.195,0.16,0.388,0.25,0.579l-0.452,0.213
	c-0.095-0.201-0.183-0.404-0.264-0.609C1.931,10.182,1.75,9.275,1.75,8.4c0-3.115,2.559-5.65,5.705-5.65
	c1.795,0,3.469,0.83,4.545,2.235c1.077-1.406,2.751-2.235,4.546-2.235c3.146,0,5.704,2.535,5.704,5.65
	c0,3.75-3.24,6.931-5.176,8.832l-0.353,0.347c-1.221,1.207-2.764,2.429-4.584,3.631L12,21.3z"/>
<polygon style="fill:#333333;" points="4.175,15.165 3.825,14.808 9.562,9.165 12.79,12.494 17.452,7.734 17.81,8.084 
	12.788,13.211 9.553,9.875 "/>
</svg>






