<?xml version="1.0" encoding="iso-8859-1"?>
<svg version="1.1" id="&#x56FE;&#x5C42;_1" xmlns="http://www.w3.org/2000/svg" xmlns:xlink="http://www.w3.org/1999/xlink" x="0px"
	 y="0px" viewBox="0 0 24 24" style="enable-background:new 0 0 24 24;" xml:space="preserve">
<path style="fill:#333333;" d="M21,18.75H3c-0.689,0-1.25-0.561-1.25-1.25v-12c0-0.689,0.561-1.25,1.25-1.25h18
	c0.689,0,1.25,0.561,1.25,1.25v12C22.25,18.189,21.689,18.75,21,18.75z M3,4.75c-0.414,0-0.75,0.336-0.75,0.75v12
	c0,0.413,0.336,0.75,0.75,0.75h18c0.413,0,0.75-0.337,0.75-0.75v-12c0-0.414-0.337-0.75-0.75-0.75H3z"/>
<path style="fill:#333333;" d="M14.25,14.75h-4.5v-6.5h4.5V14.75z M10.25,14.25h3.5v-5.5h-3.5V14.25z"/>
<polygon style="fill:#333333;" points="22,14.75 17.75,14.75 17.75,8.25 22,8.25 22,8.75 18.25,8.75 18.25,14.25 22,14.25 "/>
<polygon style="fill:#333333;" points="6.25,14.75 2,14.75 2,14.25 5.75,14.25 5.75,8.75 2,8.75 2,8.25 6.25,8.25 "/>
<rect x="1.75" y="6.5" style="fill:#333333;" width="0.5" height="10"/>
<rect x="21.75" y="6.5" style="fill:#333333;" width="0.5" height="10"/>
</svg>






