<?xml version="1.0" encoding="iso-8859-1"?>
<svg version="1.1" id="&#x56FE;&#x5C42;_1" xmlns="http://www.w3.org/2000/svg" xmlns:xlink="http://www.w3.org/1999/xlink" x="0px"
	 y="0px" viewBox="0 0 24 24" style="enable-background:new 0 0 24 24;" xml:space="preserve">
<path style="fill:#333333;" d="M12,22.25c-0.895,0-1.669-0.606-1.882-1.476L7.569,10.401C7.232,9.03,7.539,7.607,8.41,6.497
	S10.589,4.75,12,4.75s2.72,0.637,3.591,1.748c0.87,1.11,1.176,2.533,0.84,3.903l-2.548,10.374C13.669,21.644,12.895,22.25,12,22.25z
	 M8.055,10.282l2.549,10.374C10.762,21.3,11.336,21.75,12,21.75s1.238-0.45,1.396-1.095l2.548-10.374
	c0.3-1.22,0.027-2.487-0.747-3.476C14.422,5.817,13.257,5.25,12,5.25c-1.256,0-2.422,0.567-3.197,1.556
	C8.028,7.794,7.755,9.062,8.055,10.282L8.055,10.282z"/>
<rect x="11.75" y="2" style="fill:#333333;" width="0.5" height="2.75"/>
<rect x="13.309" y="3.359" transform="matrix(0.6429 -0.766 0.766 0.6429 2.3677 12.2951)" style="fill:#333333;" width="2.121" height="0.5"/>
<rect x="9.432" y="2.548" transform="matrix(0.766 -0.6429 0.6429 0.766 -0.054 7.0684)" style="fill:#333333;" width="0.5" height="2.121"/>
<rect x="8" y="9.25" style="fill:#333333;" width="3" height="0.5"/>
<rect x="12.5" y="12.75" style="fill:#333333;" width="3" height="0.5"/>
<rect x="9.5" y="16.75" style="fill:#333333;" width="2" height="0.5"/>
</svg>






