<?xml version="1.0" encoding="iso-8859-1"?>
<svg version="1.1" id="&#x56FE;&#x5C42;_1" xmlns="http://www.w3.org/2000/svg" xmlns:xlink="http://www.w3.org/1999/xlink" x="0px"
	 y="0px" viewBox="0 0 24 24" style="enable-background:new 0 0 24 24;" xml:space="preserve">
<path style="fill:#333333;" d="M10.75,19.5h-0.5c0-4.273-3.477-7.75-7.75-7.75v-0.5C7.049,11.25,10.75,14.951,10.75,19.5z"/>
<path style="fill:#333333;" d="M6.75,19.5h-0.5c0-2.067-1.682-3.75-3.75-3.75v-0.5C4.843,15.25,6.75,17.156,6.75,19.5z"/>
<path style="fill-rule:evenodd;clip-rule:evenodd;fill:#333333;" d="M2.75,20.5C3.44,20.5,4,19.94,4,19.25S3.44,18,2.75,18
	S1.5,18.56,1.5,19.25S2.06,20.5,2.75,20.5z"/>
<polygon style="fill:#333333;" points="22.25,20.25 14.386,20.25 14.386,19.75 21.75,19.75 21.75,4.25 2.25,4.25 2.25,8.028 
	1.75,8.028 1.75,3.75 22.25,3.75 "/>
</svg>






