<?xml version="1.0" encoding="iso-8859-1"?>
<svg version="1.1" id="&#x56FE;&#x5C42;_1" xmlns="http://www.w3.org/2000/svg" xmlns:xlink="http://www.w3.org/1999/xlink" x="0px"
	 y="0px" viewBox="0 0 24 24" style="enable-background:new 0 0 24 24;" xml:space="preserve">
<path style="fill:#333333;" d="M9,5.75H2L1.823,5.323L5.5,1.646l3.677,3.677L9,5.75z M2.604,5.25h5.793L5.5,2.354L2.604,5.25z"/>
<path style="fill:#333333;" d="M22,5.75h-7l-0.177-0.427L18.5,1.646l3.677,3.677L22,5.75z M15.604,5.25h5.793L18.5,2.354
	L15.604,5.25z"/>
<path style="fill:#333333;" d="M22.25,22.25h-7.5V20c0-1.517-1.233-2.75-2.75-2.75S9.25,18.483,9.25,20v2.25h-7.5v-9.5h2v-4.5h3.5
	v4.5h2.5v-2.354L12,8.146l2.25,2.25v2.354h2.5v-4.5h3.5v4.5h2V22.25z M15.25,21.75h6.5v-8.5h-2v-4.5h-2.5v4.5h-3.5v-2.646L12,8.854
	l-1.75,1.75v2.646h-3.5v-4.5h-2.5v4.5h-2v8.5h6.5V20c0-1.792,1.458-3.25,3.25-3.25s3.25,1.458,3.25,3.25V21.75z"/>
<path style="fill:#333333;" d="M7.75,8.75h-4.5v-3.5h4.5V8.75z M3.75,8.25h3.5v-2.5h-3.5V8.25z"/>
<path style="fill:#333333;" d="M20.75,8.75h-4.5v-3.5h4.5V8.75z M16.75,8.25h3.5v-2.5h-3.5V8.25z"/>
</svg>






