<?xml version="1.0" encoding="iso-8859-1"?>
<svg version="1.1" id="&#x56FE;&#x5C42;_1" xmlns="http://www.w3.org/2000/svg" xmlns:xlink="http://www.w3.org/1999/xlink" x="0px"
	 y="0px" viewBox="0 0 24 24" style="enable-background:new 0 0 24 24;" xml:space="preserve">
<path style="fill:#333333;" d="M12,21.25c-5.101,0-9.25-3.701-9.25-8.25h0.5c0,4.273,3.925,7.75,8.75,7.75
	c4.825,0,8.75-3.477,8.75-7.75h0.5C21.25,17.549,17.101,21.25,12,21.25z M16.386,6.292c-2.655-1.364-6.118-1.364-8.771,0
	L7.386,5.848c2.794-1.436,6.434-1.436,9.229,0L16.386,6.292z"/>
<path style="fill:#333333;" d="M3.25,13h-0.5V4.244c0-0.5,0.284-0.938,0.741-1.142C3.948,2.898,4.464,2.98,4.835,3.314L7.667,5.86
	L7.333,6.232L4.501,3.687C4.274,3.483,3.973,3.435,3.695,3.559C3.416,3.683,3.25,3.939,3.25,4.244V13z"/>
<path style="fill:#333333;" d="M21.25,13h-0.5V4.244c0-0.305-0.166-0.561-0.444-0.685c-0.276-0.122-0.579-0.077-0.808,0.127
	l-2.831,2.546L16.333,5.86l2.831-2.546c0.371-0.333,0.886-0.417,1.345-0.212c0.457,0.204,0.741,0.641,0.741,1.142V13z"/>
<circle style="fill:#333333;" cx="15" cy="11" r="1"/>
<circle style="fill:#333333;" cx="9" cy="11" r="1"/>
<circle style="fill:#333333;" cx="12" cy="14" r="1"/>
<rect x="1.99" y="15" transform="matrix(0.9965 -0.084 0.084 0.9965 -1.2636 0.474)" style="fill:#333333;" width="6.021" height="0.5"/>
<rect x="3.146" y="18.75" transform="matrix(0.8944 -0.4472 0.4472 0.8944 -7.8108 4.9128)" style="fill:#333333;" width="6.708" height="0.5"/>
<rect x="18.75" y="12.24" transform="matrix(0.083 -0.9965 0.9965 0.083 2.2248 32.9179)" style="fill:#333333;" width="0.5" height="6.021"/>
<polygon style="fill:#333333;" points="20.389,20.724 14.389,17.724 14.611,17.276 20.611,20.276 "/>
</svg>






