<?xml version="1.0" encoding="iso-8859-1"?>
<svg version="1.1" id="&#x56FE;&#x5C42;_1" xmlns="http://www.w3.org/2000/svg" xmlns:xlink="http://www.w3.org/1999/xlink" x="0px"
	 y="0px" viewBox="0 0 24 24" style="enable-background:new 0 0 24 24;" xml:space="preserve">
<path style="fill:#333333;" d="M12,22.25c-2.979,0-5.46-2.234-5.771-5.196L5.484,9.988C5.29,8.144,5.89,6.296,7.13,4.918
	C8.371,3.54,10.146,2.75,12,2.75s3.628,0.79,4.87,2.168c1.24,1.378,1.84,3.226,1.646,5.07l-0.743,7.066
	C17.46,20.016,14.979,22.25,12,22.25z M5.981,9.935l0.744,7.066C7.01,19.708,9.277,21.75,12,21.75s4.99-2.042,5.275-4.749
	l0.743-7.066c0.18-1.703-0.375-3.41-1.521-4.683C15.352,3.98,13.712,3.25,12,3.25S8.648,3.98,7.502,5.252
	C6.356,6.525,5.802,8.232,5.981,9.935L5.981,9.935z"/>
<path style="fill:#333333;" d="M16.84,15.691c-4.763-3.982-8.894-0.703-9.674-0.005l-0.333-0.373
	c0.833-0.746,5.248-4.253,10.327-0.005L16.84,15.691z"/>
<circle style="fill:#333333;" cx="9.5" cy="9" r="1"/>
<circle style="fill:#333333;" cx="10.5" cy="17" r="1"/>
<circle style="fill:#333333;" cx="14.5" cy="9" r="1"/>
<circle style="fill:#333333;" cx="13.5" cy="17" r="1"/>
<path style="fill:#333333;" d="M18.208,7.095l-0.416-0.277c0.224-0.335,1.076-1.461,2.647-1.854
	c0.526-0.131,1.169-0.573,1.323-1.132c0.109-0.394-0.038-0.798-0.439-1.199c-1.19-1.19-3.763,0.684-4.653,1.507l-0.34-0.367
	c1.231-1.135,3.934-2.909,5.347-1.493c0.67,0.67,0.679,1.287,0.568,1.686c-0.208,0.749-1.005,1.313-1.685,1.483
	C19.164,5.798,18.406,6.797,18.208,7.095z"/>
<path style="fill:#333333;" d="M5.84,7.095C5.642,6.797,4.885,5.798,3.487,5.449c-0.68-0.17-1.477-0.734-1.685-1.483
	C1.692,3.566,1.701,2.95,2.371,2.28c1.415-1.416,4.117,0.357,5.347,1.493L7.379,4.14C6.488,3.317,3.914,1.445,2.725,2.633
	c-0.401,0.401-0.549,0.805-0.44,1.199c0.155,0.559,0.798,1,1.324,1.132C5.18,5.357,6.032,6.482,6.256,6.818L5.84,7.095z"/>
<rect x="6" y="12.487" transform="matrix(0.9945 -0.1047 0.1047 0.9945 -1.5228 0.736)" style="fill:#333333;" width="0.5" height="4.776"/>
<rect x="15.362" y="14.625" transform="matrix(0.1053 -0.9944 0.9944 0.1053 1.0887 30.9601)" style="fill:#333333;" width="4.776" height="0.501"/>
</svg>






