<?xml version="1.0" encoding="iso-8859-1"?>
<svg version="1.1" id="&#x56FE;&#x5C42;_1" xmlns="http://www.w3.org/2000/svg" xmlns:xlink="http://www.w3.org/1999/xlink" x="0px"
	 y="0px" viewBox="0 0 24 24" style="enable-background:new 0 0 24 24;" xml:space="preserve">
<rect x="20.25" y="14.879" transform="matrix(0.7071 -0.7071 0.7071 0.7071 -6.0165 19.4749)" style="fill:#333333;" width="0.5" height="4.243"/>
<path style="fill:#333333;" d="M2.75,22h-0.5V9c0-3.35,1.863-5.393,5.696-6.244l7.019-1.003l0.07,0.495l-7,1
	C3.3,4.301,2.75,7.035,2.75,9V22z"/>
<path style="fill:#333333;" d="M19.25,22h-0.5v-5.5c0-2.966-3.107-3.75-4.75-3.75c-2.426,0-3.558-1.302-4.306-2.163
	c-0.134-0.154-0.255-0.294-0.371-0.41l0.354-0.354c0.123,0.123,0.253,0.272,0.395,0.436c0.73,0.84,1.729,1.991,3.928,1.991
	c1.815,0,5.25,0.889,5.25,4.25V22z"/>
<path style="fill:#333333;" d="M12.75,8h-0.5c0-3.285-1.311-4.75-4.25-4.75v-0.5C11.196,2.75,12.75,4.467,12.75,8z"/>
<path style="fill:#333333;" d="M15.25,22h-0.5c0-2.067-1.683-3.75-3.75-3.75c-2.068,0-3.75,1.683-3.75,3.75h-0.5
	c0-2.344,1.907-4.25,4.25-4.25C13.344,17.75,15.25,19.656,15.25,22z"/>
</svg>






