<?xml version="1.0" encoding="iso-8859-1"?>
<svg version="1.1" id="&#x56FE;&#x5C42;_1" xmlns="http://www.w3.org/2000/svg" xmlns:xlink="http://www.w3.org/1999/xlink" x="0px"
	 y="0px" viewBox="0 0 24 24" style="enable-background:new 0 0 24 24;" xml:space="preserve">
<path style="fill-rule:evenodd;clip-rule:evenodd;fill:#333333;" d="M9.639,6.07c0.951,0.17,1.854,0.412,2.707,0.725
	C10.941,6.804,9.54,7.389,8.527,8.552L8.428,8.669c-1.42,1.734-1.515,4.221-0.286,6.056l-0.031-0.056
	c1.264,2.321,3.415,4.358,5.638,5.013c1.79,0.527,3.466,0.667,5.009,0.417l0.013-0.009c-1.863,1.455-4.109,2.186-6.357,2.192h-0.058
	l-0.216-0.003c-2.658-0.062-5.298-1.137-7.288-3.223L4.689,18.88C2.904,16.92,2.008,14.422,2,11.923v-0.066l0.003-0.227
	c0.044-1.787,0.543-3.564,1.495-5.136l-0.034,0.01C5.715,5.88,7.773,5.736,9.639,6.07z M14.908,16.316
	c0.773-0.368,1.705-0.19,2.316,0.422l2.506,2.505l-0.17,0.166c-0.014,0.013-0.028,0.026-0.041,0.039
	c-1.695,0.456-3.573,0.384-5.635-0.224c-1.49-0.439-2.768-1.515-3.909-2.839l-0.025-0.014c1.512,0.819,3.351,0.817,4.862-0.006
	L14.908,16.316z M12.377,1.5l0.222,0.002c2.584,0.055,5.152,1.069,7.124,3.041l-2.498,2.499l-0.078,0.074
	c-0.637,0.575-1.575,0.712-2.334,0.298l-0.131-0.069c-0.025-0.013-0.05-0.025-0.075-0.037C13.145,6.49,11.517,5.921,9.723,5.6
	C7.938,5.281,5.993,5.381,3.888,5.898c0.288-0.41,0.61-0.803,0.966-1.176l0.163-0.167C7.048,2.518,9.711,1.5,12.375,1.5H12.377z"/>
<path style="fill-rule:evenodd;clip-rule:evenodd;fill:#333333;" d="M20.774,8.663L16.83,10.94l-0.108,0.074
	c0,0-0.338,0.226-0.3,0.705c0.033,0.419,0.331,0.595,0.331,0.595l4.115,2.374c0,0,0.322,0.174,0.723-0.043
	c0.448-0.242,0.418-0.716,0.418-0.716V9.375c0,0,0-0.005,0-0.014V9.349c-0.001-0.093-0.027-0.409-0.325-0.629
	c-0.174-0.128-0.345-0.168-0.492-0.168C20.949,8.553,20.774,8.663,20.774,8.663z"/>
</svg>






