<?xml version="1.0" encoding="iso-8859-1"?>
<svg version="1.1" id="&#x56FE;&#x5C42;_1" xmlns="http://www.w3.org/2000/svg" xmlns:xlink="http://www.w3.org/1999/xlink" x="0px"
	 y="0px" viewBox="0 0 24 24" style="enable-background:new 0 0 24 24;" xml:space="preserve">
<path style="fill:#333333;" d="M12,21.25c-5.101,0-9.25-4.149-9.25-9.25S6.899,2.75,12,2.75s9.25,4.149,9.25,9.25
	S17.101,21.25,12,21.25z M12,3.25c-4.825,0-8.75,3.925-8.75,8.75c0,4.825,3.925,8.75,8.75,8.75c4.825,0,8.75-3.925,8.75-8.75
	C20.75,7.175,16.825,3.25,12,3.25z"/>
<path style="fill:#333333;" d="M6.75,12h-0.5c0-3.17,2.58-5.75,5.75-5.75v0.5C9.105,6.75,6.75,9.105,6.75,12z"/>
<path style="fill:#333333;" d="M12,14.75c-1.517,0-2.75-1.233-2.75-2.75S10.483,9.25,12,9.25s2.75,1.233,2.75,2.75
	S13.517,14.75,12,14.75z M12,9.75c-1.241,0-2.25,1.009-2.25,2.25c0,1.24,1.009,2.25,2.25,2.25c1.24,0,2.25-1.01,2.25-2.25
	C14.25,10.759,13.24,9.75,12,9.75z"/>
</svg>






