<?xml version="1.0" encoding="iso-8859-1"?>
<svg version="1.1" id="&#x56FE;&#x5C42;_1" xmlns="http://www.w3.org/2000/svg" xmlns:xlink="http://www.w3.org/1999/xlink" x="0px"
	 y="0px" viewBox="0 0 24 24" style="enable-background:new 0 0 24 24;" xml:space="preserve">
<path style="fill:#333333;" d="M16.696,14.331c-0.624,0-1.209-0.168-1.647-0.486c-0.786-0.569-1.153-1.556-1.091-2.933l0.5,0.022
	c-0.055,1.198,0.243,2.041,0.884,2.506c0.497,0.36,1.24,0.481,1.995,0.323c0.9-0.189,2.231-0.857,3.465-2.966
	c0.841-1.439,1.089-2.788,0.718-3.901c-0.302-0.902-0.948-1.456-1.31-1.608c-0.474-0.2-0.955-0.276-1.433-0.226l-0.051-0.497
	c0.556-0.058,1.125,0.03,1.677,0.262c0.534,0.224,1.259,0.918,1.59,1.911c0.292,0.875,0.396,2.332-0.76,4.312
	c-1.325,2.268-2.795,2.994-3.794,3.204C17.19,14.306,16.94,14.331,16.696,14.331z"/>
<path style="fill:#333333;" d="M19.703,21.543l-0.492-0.086c0.136-0.772-0.076-1.524-0.648-2.301
	c-0.379-0.513-0.941-0.743-1.537-0.986c-0.746-0.306-1.518-0.621-1.945-1.512c-0.521-1.084-0.441-2.032,0.237-2.818l0.379,0.326
	c-0.544,0.631-0.599,1.375-0.165,2.275c0.345,0.717,0.995,0.983,1.684,1.266c0.634,0.259,1.288,0.526,1.75,1.152
	C19.614,19.739,19.862,20.643,19.703,21.543z"/>
<path style="fill:#333333;" d="M7.457,13.357c-1.515,0-2.717-0.468-3.405-1.388l0,0c-1.196-1.6-0.583-3.955,1.602-6.146
	C6.597,4.878,7.772,4.02,9.147,3.271c0.7-0.381,1.375-0.712,2.003-0.983c3.75-1.617,5.633-1.042,6.555-0.276
	c1.122,0.933,1.912,3.516,0.042,6.096c-0.574,0.793-1.365,1.547-2.352,2.242c-1.338,0.942-2.703,1.683-4.057,2.201
	C9.925,13.09,8.602,13.357,7.457,13.357z M4.452,11.67c1.053,1.408,3.685,1.569,6.708,0.412c1.315-0.503,2.643-1.224,3.949-2.143
	c0.94-0.663,1.692-1.378,2.234-2.125c1.846-2.547,0.802-4.787,0.042-5.418c-0.814-0.677-2.521-1.168-6.037,0.351
	c-0.615,0.266-1.276,0.59-1.962,0.964c-1.333,0.726-2.47,1.556-3.378,2.467C4.012,8.179,3.416,10.284,4.452,11.67L4.452,11.67z"/>
<path style="fill:#333333;" d="M13.915,10.985c-1.922-0.695-3.119-1.427-4.128-2.528C8.745,7.321,8.102,5.976,7.875,4.456
	L8.37,4.383c0.211,1.418,0.812,2.675,1.786,3.736c0.951,1.037,2.089,1.731,3.93,2.396L13.915,10.985z"/>
<path style="fill:#333333;" d="M12.771,21.6c-0.883-2.043-2.089-3.036-3.687-3.036c-0.911,0-1.747,0.386-2.556,0.759
	c-1.328,0.614-2.703,1.25-4.076-0.235c-1.446-1.565-0.65-3.842,2.365-6.767l0.348,0.359c-2.783,2.698-3.572,4.74-2.346,6.067
	c1.125,1.218,2.173,0.734,3.5,0.121c0.817-0.377,1.744-0.805,2.765-0.805c1.794,0,3.189,1.123,4.146,3.337L12.771,21.6z"/>
<path style="fill:#333333;" d="M11.339,12.549l-0.179-0.467c1.317-0.504,2.645-1.226,3.949-2.144
	c0.94-0.663,1.692-1.378,2.234-2.125l0.404,0.293c-0.574,0.792-1.365,1.546-2.352,2.241C14.061,11.289,12.695,12.029,11.339,12.549z
	"/>
<path style="fill:#333333;" d="M6.008,6.177L5.654,5.823C6.597,4.878,7.772,4.02,9.147,3.271c0.7-0.381,1.375-0.712,2.003-0.983
	l0.198,0.459c-0.615,0.266-1.275,0.59-1.962,0.964C8.053,4.436,6.917,5.266,6.008,6.177z"/>
</svg>






