<?xml version="1.0" encoding="iso-8859-1"?>
<svg version="1.1" id="&#x56FE;&#x5C42;_1" xmlns="http://www.w3.org/2000/svg" xmlns:xlink="http://www.w3.org/1999/xlink" x="0px"
	 y="0px" viewBox="0 0 24 24" style="enable-background:new 0 0 24 24;" xml:space="preserve">
<path style="fill:#333333;" d="M21,18.25h-4v-0.5h4c0.413,0,0.75-0.337,0.75-0.75V4c0-0.414-0.337-0.75-0.75-0.75H3
	C2.586,3.25,2.25,3.586,2.25,4v13c0,0.413,0.336,0.75,0.75,0.75h10v0.5H3c-0.689,0-1.25-0.561-1.25-1.25V4
	c0-0.689,0.561-1.25,1.25-1.25h18c0.689,0,1.25,0.561,1.25,1.25v13C22.25,17.689,21.689,18.25,21,18.25z"/>
<rect x="6" y="6.75" style="fill:#333333;" width="12" height="0.5"/>
<rect x="6" y="10.25" style="fill:#333333;" width="3" height="0.5"/>
<rect x="6" y="13.75" style="fill:#333333;" width="2" height="0.5"/>
<path style="fill:#333333;" d="M15,16.75c-1.792,0-3.25-1.458-3.25-3.25s1.458-3.25,3.25-3.25s3.25,1.458,3.25,3.25
	S16.792,16.75,15,16.75z M15,10.75c-1.517,0-2.75,1.233-2.75,2.75s1.233,2.75,2.75,2.75s2.75-1.233,2.75-2.75S16.517,10.75,15,10.75
	z"/>
<path style="fill:#333333;" d="M17.25,21.404L15,20.279l-2.25,1.125V15.75l0.449-0.151c0.02,0.025,0.527,0.651,1.801,0.651
	c1.272,0,1.78-0.638,1.801-0.665l0.449,0.151V21.404z M15,19.721l1.75,0.875v-4.316c-0.351,0.229-0.919,0.471-1.75,0.471
	c-0.832,0-1.399-0.238-1.75-0.463v4.309L15,19.721z"/>
</svg>






