<?xml version="1.0" encoding="iso-8859-1"?>
<svg version="1.1" id="&#x56FE;&#x5C42;_1" xmlns="http://www.w3.org/2000/svg" xmlns:xlink="http://www.w3.org/1999/xlink" x="0px"
	 y="0px" viewBox="0 0 24 24" style="enable-background:new 0 0 24 24;" xml:space="preserve">
<path style="fill:#333333;" d="M18,15.25H6c-1.792,0-3.25-1.458-3.25-3.25V8.75h18.5V12C21.25,13.792,19.792,15.25,18,15.25z
	 M3.25,9.25V12c0,1.517,1.233,2.75,2.75,2.75h12c1.517,0,2.75-1.233,2.75-2.75V9.25H3.25z"/>
<rect x="4" y="20.75" style="fill:#333333;" width="16" height="0.5"/>
<rect x="4.158" y="17.75" transform="matrix(0.2421 -0.9703 0.9703 0.2421 -11.9697 20.677)" style="fill:#333333;" width="6.185" height="0.5"/>
<rect x="16.5" y="14.908" transform="matrix(0.9701 -0.2425 0.2425 0.9701 -3.8655 4.5999)" style="fill:#333333;" width="0.499" height="6.185"/>
<polygon style="fill:#333333;" points="14.756,9.052 13.298,2.25 10.702,2.25 9.245,9.052 8.755,8.948 10.298,1.75 13.702,1.75 
	15.244,8.948 "/>
<rect x="18" y="5.25" style="fill:#333333;" width="2" height="0.5"/>
<rect x="4" y="5.25" style="fill:#333333;" width="2" height="0.5"/>
</svg>






