<?xml version="1.0" encoding="iso-8859-1"?>
<svg version="1.1" id="&#x56FE;&#x5C42;_1" xmlns="http://www.w3.org/2000/svg" xmlns:xlink="http://www.w3.org/1999/xlink" x="0px"
	 y="0px" viewBox="0 0 24 24" style="enable-background:new 0 0 24 24;" xml:space="preserve">
<path style="fill:#333333;" d="M12,21.25c-5.101,0-9.25-4.149-9.25-9.25S6.899,2.75,12,2.75v0.5c-4.825,0-8.75,3.925-8.75,8.75
	c0,4.825,3.925,8.75,8.75,8.75V21.25z"/>
<path style="fill:#333333;" d="M12,21.25l-0.113-0.473c0.076-0.039,1.863-0.992,1.863-4.277c0-1.669-0.948-2.973-1.952-4.353
	C10.791,10.763,9.75,9.332,9.75,7.5c0-3.613,2.051-4.68,2.138-4.724L12,2.75c5.101,0,9.25,4.149,9.25,9.25S17.101,21.25,12,21.25z
	 M12.064,3.25C11.765,3.428,10.25,4.475,10.25,7.5c0,1.668,0.948,2.973,1.952,4.353c1.007,1.384,2.048,2.816,2.048,4.647
	c0,2.323-0.848,3.594-1.477,4.216c4.464-0.393,7.977-4.151,7.977-8.716C20.75,7.197,16.859,3.285,12.064,3.25z"/>
<polygon style="fill:#333333;" points="22.25,14.25 21,14.25 21,13.75 21.75,13.75 21.75,10.25 21,10.25 21,9.75 22.25,9.75 "/>
<polygon style="fill:#333333;" points="3,14.25 1.75,14.25 1.75,9.75 3,9.75 3,10.25 2.25,10.25 2.25,13.75 3,13.75 "/>
</svg>






