<?xml version="1.0" encoding="iso-8859-1"?>
<svg version="1.1" id="&#x56FE;&#x5C42;_1" xmlns="http://www.w3.org/2000/svg" xmlns:xlink="http://www.w3.org/1999/xlink" x="0px"
	 y="0px" viewBox="0 0 24 24" style="enable-background:new 0 0 24 24;" xml:space="preserve">
<path style="fill:#333333;" d="M14.728,11.75H9.273c-1.509,0-2.523-0.938-2.523-2.333V5.75h2V3c0-0.689,0.561-1.25,1.25-1.25h4
	c0.689,0,1.25,0.561,1.25,1.25v2.75h2v3.667C17.25,10.812,16.236,11.75,14.728,11.75z M7.25,6.25v3.167
	c0,1.114,0.794,1.833,2.023,1.833h5.455c1.229,0,2.022-0.72,2.022-1.833V6.25h-2V3c0-0.414-0.337-0.75-0.75-0.75h-4
	C9.586,2.25,9.25,2.586,9.25,3v3.25H7.25z"/>
<rect x="2.382" y="16.5" transform="matrix(0.3558 -0.9345 0.9345 0.3558 -10.5004 18.2662)" style="fill:#333333;" width="11.236" height="0.499"/>
<rect x="15.75" y="11.132" transform="matrix(0.9345 -0.356 0.356 0.9345 -4.9147 6.7933)" style="fill:#333333;" width="0.499" height="11.236"/>
<rect x="15" y="5.75" style="fill:#333333;" width="4" height="0.5"/>
<rect x="5" y="5.75" style="fill:#333333;" width="4" height="0.5"/>
<rect x="8.5" y="15.25" style="fill:#333333;" width="7" height="0.5"/>
<rect x="7.5" y="18.75" style="fill:#333333;" width="9" height="0.5"/>
</svg>






