<?xml version="1.0" encoding="iso-8859-1"?>
<svg version="1.1" id="&#x56FE;&#x5C42;_1" xmlns="http://www.w3.org/2000/svg" xmlns:xlink="http://www.w3.org/1999/xlink" x="0px"
	 y="0px" viewBox="0 0 24 24" style="enable-background:new 0 0 24 24;" xml:space="preserve">
<path style="fill:#333333;" d="M12.25,21.75H12c-5.376,0-9.75-4.374-9.75-9.75S6.624,2.25,12,2.25s9.75,4.374,9.75,9.75v0.25H13
	c-0.413,0-0.75,0.337-0.75,0.75V21.75z M12,2.75c-5.101,0-9.25,4.149-9.25,9.25c0,5.017,4.015,9.113,9,9.247V13
	c0-0.689,0.561-1.25,1.25-1.25h8.247C21.113,6.765,17.017,2.75,12,2.75z"/>
<path style="fill:#333333;" d="M21.25,21.25h-6.5v-6.5h6.5V21.25z M15.25,20.75h5.5v-5.5h-5.5V20.75z"/>
</svg>






