<?xml version="1.0" encoding="iso-8859-1"?>
<svg version="1.1" id="&#x56FE;&#x5C42;_1" xmlns="http://www.w3.org/2000/svg" xmlns:xlink="http://www.w3.org/1999/xlink" x="0px"
	 y="0px" viewBox="0 0 24 24" style="enable-background:new 0 0 24 24;" xml:space="preserve">
<path style="fill:#333333;" d="M12,22.25C6.348,22.25,1.75,17.652,1.75,12c0-2.738,1.066-5.312,3.002-7.248
	C5.711,3.793,6.83,3.045,8.077,2.528L8.268,2.99c-1.186,0.492-2.25,1.204-3.163,2.116C3.264,6.947,2.25,9.396,2.25,12
	c0,5.376,4.374,9.75,9.75,9.75c2.604,0,5.053-1.014,6.895-2.855c0.911-0.912,1.623-1.976,2.116-3.162l0.461,0.191
	c-0.518,1.248-1.266,2.366-2.224,3.324C17.312,21.184,14.738,22.25,12,22.25z"/>
<path style="fill:#333333;" d="M22.25,12.25h-10.5V1.75H12c5.652,0,10.25,4.598,10.25,10.25V12.25z M12.25,11.75h9.497
	c-0.132-5.178-4.319-9.366-9.497-9.497V11.75z"/>
</svg>






