<?xml version="1.0" encoding="iso-8859-1"?>
<svg version="1.1" id="&#x56FE;&#x5C42;_1" xmlns="http://www.w3.org/2000/svg" xmlns:xlink="http://www.w3.org/1999/xlink" x="0px"
	 y="0px" viewBox="0 0 24 24" style="enable-background:new 0 0 24 24;" xml:space="preserve">
<path style="fill:#333333;" d="M12,22.25c-0.515,0-1.034-0.039-1.544-0.116C5.493,21.384,1.75,17.027,1.75,12
	c0-5.025,3.74-9.381,8.7-10.134l0.075,0.494C5.808,3.076,2.25,7.22,2.25,12c0,4.782,3.56,8.926,8.28,9.64
	c0.973,0.146,1.976,0.146,2.935,0.001c4.185-0.63,7.547-3.993,8.177-8.178l0.494,0.074c-0.662,4.4-4.197,7.936-8.597,8.598
	C13.035,22.211,12.517,22.25,12,22.25z M21.641,10.534c-0.631-4.183-3.992-7.544-8.174-8.175l0.074-0.494
	c4.396,0.663,7.931,4.197,8.594,8.595L21.641,10.534z"/>
<path style="fill:#333333;" d="M12,16.25c-2.343,0-4.25-1.906-4.25-4.25c0-2.343,1.907-4.25,4.25-4.25c2.344,0,4.25,1.907,4.25,4.25
	C16.25,14.344,14.344,16.25,12,16.25z M12,8.25c-2.068,0-3.75,1.682-3.75,3.75c0,2.067,1.682,3.75,3.75,3.75
	c2.067,0,3.75-1.683,3.75-3.75C15.75,9.932,14.067,8.25,12,8.25z"/>
</svg>






