<?xml version="1.0" encoding="iso-8859-1"?>
<svg version="1.1" id="&#x56FE;&#x5C42;_1" xmlns="http://www.w3.org/2000/svg" xmlns:xlink="http://www.w3.org/1999/xlink" x="0px"
	 y="0px" viewBox="0 0 24 24" style="enable-background:new 0 0 24 24;" xml:space="preserve">
<path style="fill:#333333;" d="M7.25,16.25h-4.5v-8.5h4.5V16.25z M3.25,15.75h3.5v-7.5h-3.5V15.75z"/>
<rect x="4.75" y="3" style="fill:#333333;" width="0.5" height="5"/>
<rect x="4.75" y="16" style="fill:#333333;" width="0.5" height="5"/>
<path style="fill:#333333;" d="M21.25,16.25h-4.5v-8.5h4.5V16.25z M17.25,15.75h3.5v-7.5h-3.5V15.75z"/>
<rect x="18.75" y="3" style="fill:#333333;" width="0.5" height="5"/>
<rect x="18.75" y="16" style="fill:#333333;" width="0.5" height="5"/>
<path style="fill:#333333;" d="M14.25,15.25h-4.5v-8.5h4.5V15.25z M10.25,14.75h3.5v-7.5h-3.5V14.75z"/>
<rect x="11.75" y="2" style="fill:#333333;" width="0.5" height="5"/>
<rect x="11.75" y="15" style="fill:#333333;" width="0.5" height="5"/>
</svg>






