<?xml version="1.0" encoding="iso-8859-1"?>
<svg version="1.1" id="&#x56FE;&#x5C42;_1" xmlns="http://www.w3.org/2000/svg" xmlns:xlink="http://www.w3.org/1999/xlink" x="0px"
	 y="0px" viewBox="0 0 24 24" style="enable-background:new 0 0 24 24;" xml:space="preserve">
<path style="fill:#333333;" d="M12,22.25C6.348,22.25,1.75,17.652,1.75,12C1.75,6.348,6.348,1.75,12,1.75h0.25v10h10V12
	C22.25,17.652,17.652,22.25,12,22.25z M11.75,2.253C6.489,2.386,2.25,6.708,2.25,12c0,5.376,4.374,9.75,9.75,9.75
	c5.293,0,9.613-4.239,9.747-9.5H11.75V2.253z"/>
<path style="fill:#333333;" d="M21.883,9.25H14.75V2.118l0.325,0.102c3.195,1.003,5.702,3.51,6.705,6.706L21.883,9.25z M15.25,8.75
	h5.945c-0.98-2.777-3.169-4.965-5.945-5.945V8.75z"/>
</svg>






