<?xml version="1.0" encoding="iso-8859-1"?>
<svg version="1.1" id="&#x56FE;&#x5C42;_1" xmlns="http://www.w3.org/2000/svg" xmlns:xlink="http://www.w3.org/1999/xlink" x="0px"
	 y="0px" viewBox="0 0 24 24" style="enable-background:new 0 0 24 24;" xml:space="preserve">
<g>
	<defs>
		<rect id="SVGID_1_" width="24" height="24"/>
	</defs>
	<clipPath id="SVGID_00000066511631928110302830000011030471626191684761_">
		<use xlink:href="#SVGID_1_"  style="overflow:visible;"/>
	</clipPath>
	<g style="clip-path:url(#SVGID_00000066511631928110302830000011030471626191684761_);">
		<path style="fill:#333333;" d="M19.5,21.25h-15c-0.965,0-1.75-0.785-1.75-1.75v-15c0-0.965,0.785-1.75,1.75-1.75H15v0.5H4.5
			c-0.689,0-1.25,0.561-1.25,1.25v15c0,0.689,0.561,1.25,1.25,1.25h15c0.689,0,1.25-0.561,1.25-1.25V10h0.5v9.5
			C21.25,20.465,20.465,21.25,19.5,21.25z"/>
		<polygon style="fill:#333333;" points="13.05,14.36 7.844,10.195 8.156,9.805 12.95,13.64 20.297,3.354 20.703,3.646 		"/>
	</g>
</g>
</svg>






