<?xml version="1.0" encoding="iso-8859-1"?>
<svg version="1.1" id="&#x56FE;&#x5C42;_1" xmlns="http://www.w3.org/2000/svg" xmlns:xlink="http://www.w3.org/1999/xlink" x="0px"
	 y="0px" viewBox="0 0 24 24" style="enable-background:new 0 0 24 24;" xml:space="preserve">
<path style="fill:#333333;" d="M20.5,22.25h-17c-0.965,0-1.75-0.785-1.75-1.75v-17c0-0.965,0.785-1.75,1.75-1.75h17
	c0.965,0,1.75,0.785,1.75,1.75v17C22.25,21.465,21.465,22.25,20.5,22.25z M3.5,2.25c-0.689,0-1.25,0.561-1.25,1.25v17
	c0,0.689,0.561,1.25,1.25,1.25h17c0.689,0,1.25-0.561,1.25-1.25v-17c0-0.689-0.561-1.25-1.25-1.25H3.5z"/>
<rect x="11.5" y="8.25" style="fill:#333333;" width="10.5" height="0.5"/>
<rect x="2" y="8.25" style="fill:#333333;" width="4.5" height="0.5"/>
<rect x="17.5" y="15.25" style="fill:#333333;" width="4.5" height="0.5"/>
<rect x="3" y="15.25" style="fill:#333333;" width="9.5" height="0.5"/>
<rect x="8.25" y="10.5" style="fill:#333333;" width="0.5" height="11.5"/>
<rect x="15.25" y="2" style="fill:#333333;" width="0.5" height="11.5"/>
<rect x="15.25" y="17.5" style="fill:#333333;" width="0.5" height="4.5"/>
<rect x="8.25" y="2" style="fill:#333333;" width="0.5" height="4.5"/>
<path style="fill:#333333;" d="M15.5,17.75c-1.24,0-2.25-1.01-2.25-2.25s1.01-2.25,2.25-2.25s2.25,1.01,2.25,2.25
	S16.74,17.75,15.5,17.75z M15.5,13.75c-0.965,0-1.75,0.785-1.75,1.75s0.785,1.75,1.75,1.75s1.75-0.785,1.75-1.75
	S16.465,13.75,15.5,13.75z"/>
<path style="fill:#333333;" d="M8.5,10.75c-1.241,0-2.25-1.009-2.25-2.25S7.259,6.25,8.5,6.25s2.25,1.009,2.25,2.25
	S9.741,10.75,8.5,10.75z M8.5,6.75c-0.965,0-1.75,0.785-1.75,1.75s0.785,1.75,1.75,1.75s1.75-0.785,1.75-1.75S9.465,6.75,8.5,6.75z"
	/>
</svg>






