<?xml version="1.0" encoding="iso-8859-1"?>
<svg version="1.1" id="&#x56FE;&#x5C42;_1" xmlns="http://www.w3.org/2000/svg" xmlns:xlink="http://www.w3.org/1999/xlink" x="0px"
	 y="0px" viewBox="0 0 24 24" style="enable-background:new 0 0 24 24;" xml:space="preserve">
<path style="fill:#333333;" d="M8.229,10.6l-0.458-0.2l3.065-7.006c0.14-0.319,0.409-0.567,0.738-0.681
	c0.328-0.114,0.692-0.084,1,0.082l5.544,2.985l-0.236,0.44l-5.545-2.985c-0.188-0.101-0.4-0.118-0.6-0.049
	c-0.201,0.069-0.358,0.214-0.443,0.408L8.229,10.6z"/>
<polygon style="fill:#333333;" points="21.25,20.75 12.75,20.75 12.75,18.5 13.25,18.5 13.25,20.25 20.75,20.25 20.75,6.25 
	13.25,6.25 13.25,15.5 12.75,15.5 12.75,5.75 21.25,5.75 "/>
<path style="fill:#333333;" d="M2,22.25v-0.5c2.907,0,4.018-1.133,4.829-1.959c0.426-0.434,0.793-0.809,1.3-0.882
	c0.479-0.069,0.962-0.129,1.44-0.187c1.041-0.127,2.024-0.247,2.923-0.466c1.704-0.415,3.08-0.953,3.593-1.166
	c0.136-0.056,0.24-0.148,0.303-0.269c0.317-0.61,0.438-1.116,0.319-1.352c-0.029-0.058-0.091-0.138-0.286-0.169
	c-0.492-0.081-1.567,0.163-2.697,0.421c-1.449,0.33-3.09,0.702-4.193,0.557c-1.067-0.145-1.386-0.6-1.465-0.957
	c-0.121-0.542,0.272-1.165,0.721-1.454c1.337-0.861,2.828-0.764,3.463-0.669V9.327c-1.418,0.399-7.283,2.178-9.558,4.911
	l-0.384-0.32c2.688-3.228,9.828-5.083,10.13-5.16l0.312-0.08v5.141l-0.311-0.077c-0.018-0.004-1.849-0.438-3.382,0.546
	c-0.293,0.189-0.573,0.616-0.504,0.926c0.063,0.285,0.434,0.487,1.044,0.569c1.012,0.139,2.607-0.227,4.015-0.548
	c1.229-0.28,2.29-0.522,2.889-0.428c0.389,0.062,0.569,0.273,0.652,0.438c0.251,0.499-0.037,1.259-0.322,1.808
	c-0.115,0.222-0.312,0.399-0.555,0.499c-0.523,0.217-1.928,0.767-3.665,1.19c-0.928,0.226-1.926,0.347-2.981,0.476
	c-0.474,0.058-0.953,0.116-1.429,0.185c-0.34,0.05-0.638,0.354-1.015,0.737C6.362,20.98,5.117,22.25,2,22.25z"/>
<rect x="16" y="10.25" style="fill:#333333;" width="5" height="0.5"/>
</svg>






