<?xml version="1.0" encoding="iso-8859-1"?>
<svg version="1.1" id="&#x56FE;&#x5C42;_1" xmlns="http://www.w3.org/2000/svg" xmlns:xlink="http://www.w3.org/1999/xlink" x="0px"
	 y="0px" viewBox="0 0 24 24" style="enable-background:new 0 0 24 24;" xml:space="preserve">
<path style="fill:#333333;" d="M21.25,10.004c-0.098-0.647-4.745-3.52-11.3-6.985C9.692,2.883,9.377,2.913,9.147,3.095L2.654,8.197
	L2.346,7.803l6.493-5.101c0.386-0.303,0.915-0.353,1.345-0.125C15.46,5.367,21.75,8.918,21.75,10h-0.5h0.25L21.25,10.004z"/>
<path style="fill:#333333;" d="M3.498,21.195c-0.321,0-0.623-0.12-0.858-0.343c-0.251-0.238-0.39-0.561-0.39-0.906V8.826
	c0-0.393,0.179-0.756,0.491-0.998c0.313-0.243,0.714-0.325,1.1-0.226c3.348,0.869,11.631,2.804,16.198,2.031
	c0.434-0.072,0.893,0.054,1.231,0.34c0.31,0.261,0.479,0.618,0.479,1.003v8.075c0,0.665-0.521,1.213-1.184,1.249l-17,0.895
	C3.543,21.195,3.521,21.195,3.498,21.195z M3.52,8.061c-0.169,0-0.334,0.056-0.473,0.163C2.858,8.37,2.75,8.589,2.75,8.826v11.12
	c0,0.208,0.083,0.4,0.234,0.544c0.15,0.143,0.346,0.215,0.556,0.204l17-0.895c0.397-0.021,0.71-0.35,0.71-0.749v-8.075
	c0-0.236-0.107-0.456-0.303-0.621c-0.227-0.192-0.537-0.276-0.824-0.229c-4.667,0.79-13.029-1.164-16.408-2.04
	C3.65,8.069,3.584,8.061,3.52,8.061z"/>
<circle style="fill:#333333;" cx="6" cy="12.5" r="1"/>
<circle style="fill:#333333;" cx="12.5" cy="13.5" r="1"/>
<circle style="fill:#333333;" cx="17" cy="16" r="1"/>
<g>
	<circle style="fill:#333333;" cx="9" cy="16" r="1"/>
	<path style="fill:#333333;" d="M9,17.25c-0.689,0-1.25-0.561-1.25-1.25S8.311,14.75,9,14.75s1.25,0.561,1.25,1.25
		S9.689,17.25,9,17.25z M9,15.25c-0.414,0-0.75,0.337-0.75,0.75S8.586,16.75,9,16.75S9.75,16.413,9.75,16S9.414,15.25,9,15.25z"/>
</g>
</svg>






