<?xml version="1.0" encoding="iso-8859-1"?>
<svg version="1.1" id="&#x56FE;&#x5C42;_1" xmlns="http://www.w3.org/2000/svg" xmlns:xlink="http://www.w3.org/1999/xlink" x="0px"
	 y="0px" viewBox="0 0 24 24" style="enable-background:new 0 0 24 24;" xml:space="preserve">
<path style="fill:#333333;" d="M18.25,21.25H5.75v-4.5h12.5V21.25z M6.25,20.75h11.5v-3.5H6.25V20.75z"/>
<rect x="14.25" y="10" style="fill:#333333;" width="0.5" height="7"/>
<rect x="10.75" y="13" style="fill:#333333;" width="0.5" height="4"/>
<path style="fill:#333333;" d="M18.25,17.25H5.75v-4.613c-0.521-0.348-2.5-1.82-2.5-4.137c0-2.491,2.302-3.671,4.522-3.746
	C7.974,3.578,9.543,1.75,12,1.75c2.456,0,4.024,1.827,4.228,3.002C19.105,4.82,20.75,6.177,20.75,8.5c0,2.316-1.979,3.789-2.5,4.137
	V17.25z M6.25,16.75h11.5v-4.392l0.121-0.072c0.023-0.015,2.379-1.461,2.379-3.786c0-2.828-2.663-3.25-4.25-3.25h-0.25V5
	c0-0.798-1.314-2.75-3.75-2.75C9.564,2.25,8.25,4.202,8.25,5v0.25H8c-2.047,0-4.25,1.017-4.25,3.25c0,2.325,2.355,3.771,2.379,3.786
	l0.121,0.072V16.75z"/>
</svg>






