<?xml version="1.0" encoding="iso-8859-1"?>
<svg version="1.1" id="&#x56FE;&#x5C42;_1" xmlns="http://www.w3.org/2000/svg" xmlns:xlink="http://www.w3.org/1999/xlink" x="0px"
	 y="0px" viewBox="0 0 24 24" style="enable-background:new 0 0 24 24;" xml:space="preserve">
<path style="fill:#333333;" d="M16.5,21.25h-9c-0.689,0-1.25-0.561-1.25-1.25v-7.735c-2.04-0.489-3.5-2.326-3.5-4.445
	c0-2.52,2.05-4.57,4.57-4.57c0.343,0,0.684,0.038,1.015,0.113C9.207,2.336,10.467,1.75,11.82,1.75c1.393,0,2.676,0.614,3.549,1.691
	c0.424-0.127,0.864-0.191,1.311-0.191c2.521,0,4.57,2.05,4.57,4.57c0,2.119-1.46,3.956-3.5,4.445V20
	C17.75,20.689,17.189,21.25,16.5,21.25z M7.32,3.75c-2.244,0-4.07,1.826-4.07,4.07c0,1.949,1.387,3.63,3.297,3.997l0.203,0.039V20
	c0,0.413,0.336,0.75,0.75,0.75h9c0.413,0,0.75-0.337,0.75-0.75v-8.144l0.203-0.039c1.91-0.367,3.297-2.048,3.297-3.997
	c0-2.244-1.826-4.07-4.07-4.07c-0.452,0-0.896,0.074-1.319,0.218l-0.172,0.059l-0.109-0.146C14.302,2.845,13.114,2.25,11.82,2.25
	c-1.253,0-2.417,0.564-3.195,1.548L8.523,3.927L8.365,3.885C8.026,3.795,7.674,3.75,7.32,3.75z"/>
<rect x="6.5" y="15.25" style="fill:#333333;" width="11" height="0.5"/>
<rect x="9.75" y="12.5" style="fill:#333333;" width="0.5" height="3"/>
<rect x="17.25" y="14" style="fill:#333333;" width="0.5" height="3"/>
<rect x="6.25" y="14" style="fill:#333333;" width="0.5" height="3"/>
</svg>






