<?xml version="1.0" encoding="iso-8859-1"?>
<svg version="1.1" id="&#x56FE;&#x5C42;_1" xmlns="http://www.w3.org/2000/svg" xmlns:xlink="http://www.w3.org/1999/xlink" x="0px"
	 y="0px" viewBox="0 0 24 24" style="enable-background:new 0 0 24 24;" xml:space="preserve">
<path style="fill:#333333;" d="M10.28,8.941C9.757,7.966,9.095,7.078,8.311,6.299C8.268,6.293,8.224,6.285,8.18,6.275
	C7.753,6.178,7.388,5.919,7.153,5.547s-0.31-0.813-0.212-1.242c0.097-0.429,0.355-0.794,0.728-1.028
	c0.372-0.235,0.813-0.31,1.242-0.212c0.577,0.131,1.041,0.568,1.211,1.129c1.211,0.647,2.508,1.102,3.857,1.351l0.263,0.048
	c0.811,0.149,1.58,0.44,2.289,0.865l0.733,0.439c0.318,0.191,0.619,0.416,0.895,0.667L17.82,7.935
	c-0.251-0.229-0.524-0.434-0.814-0.608l-0.733-0.439c-0.656-0.394-1.371-0.664-2.122-0.802l-0.263-0.049
	c-1.436-0.265-2.815-0.754-4.1-1.453L9.689,4.529l-0.025-0.11C9.567,3.99,9.228,3.65,8.8,3.553C8.501,3.486,8.194,3.538,7.936,3.701
	C7.676,3.864,7.497,4.118,7.429,4.416C7.361,4.715,7.414,5.022,7.577,5.281C7.739,5.54,7.994,5.72,8.292,5.788
	C8.345,5.8,8.396,5.808,8.447,5.812L8.536,5.82L8.6,5.882c0.847,0.828,1.56,1.777,2.12,2.823L10.28,8.941z"/>
<path style="fill:#333333;" d="M13.586,20.474c-1.438,0-2.963-0.094-4.07-0.162c-0.563-0.035-0.994-0.062-1.21-0.062
	c-1.064,0-2.253-0.562-2.948-1.045C4.562,18.654,3.75,17.842,3.75,16c0-1.752,1.529-3.454,1.718-3.657l0.027-0.029
	c0.17-0.178,1.737-1.805,3.15-2.77c1.363-0.931,4.456-2.05,5.062-2.265l0.093-0.03c0.389-0.119,2.453-0.651,4.812,0.528
	c2.4,1.2,3.352,2.229,3.636,3.933c0.151,0.907-0.037,1.978-0.223,2.716c-0.159,0.638-0.361,1.239-0.601,1.79
	c-0.249,0.575-0.668,1.383-1.247,1.962c-0.116,0.116-0.223,0.226-0.322,0.329c-0.773,0.799-1.241,1.28-3.3,1.738
	C15.78,20.416,14.71,20.474,13.586,20.474z M5.653,12.51l0.183,0.17C5.771,12.75,4.25,14.403,4.25,16
	c0,1.607,0.669,2.293,1.393,2.795c0.686,0.476,1.774,0.955,2.663,0.955c0.222,0,0.664,0.027,1.241,0.062
	c1.819,0.111,5.207,0.32,6.899-0.057c1.913-0.425,2.293-0.817,3.05-1.598c0.103-0.105,0.21-0.217,0.328-0.335
	c0.523-0.523,0.91-1.271,1.142-1.808c0.229-0.525,0.422-1.102,0.575-1.712c0.173-0.692,0.351-1.69,0.213-2.513
	c-0.222-1.333-0.824-2.297-3.364-3.567c-2.237-1.118-4.225-0.564-4.444-0.497L13.87,7.751c-0.361,0.128-3.604,1.291-4.943,2.206
	c-1.371,0.936-2.904,2.528-3.075,2.707L5.653,12.51z"/>
<path style="fill:#333333;" d="M10.579,18.259c-0.196,0-0.394-0.017-0.59-0.049c-0.888-0.148-1.699-0.557-2.346-1.183l-0.369-0.356
	c-0.312-0.301-0.583-0.644-0.807-1.02L5.38,13.825l-0.325-0.651c-0.543-1.089-1.255-2.075-2.119-2.931
	c-0.043-0.006-0.085-0.014-0.128-0.023c-0.43-0.098-0.794-0.356-1.029-0.729S1.47,8.678,1.567,8.249
	C1.665,7.82,1.923,7.456,2.295,7.221c0.372-0.234,0.812-0.31,1.242-0.212C4.113,7.14,4.577,7.577,4.748,8.138
	c1.209,0.647,2.506,1.101,3.857,1.35l0.262,0.049c0.812,0.15,1.583,0.441,2.29,0.865l0.733,0.44c0.514,0.309,0.972,0.695,1.362,1.15
	l0.203,0.236c0.658,0.768,0.958,1.781,0.824,2.781l-0.014,0.104c-0.093,0.693-0.399,1.324-0.887,1.825l-0.232,0.237
	C12.466,17.873,11.537,18.259,10.579,18.259z M3.17,7.468c-0.214,0-0.423,0.06-0.608,0.177C2.303,7.807,2.123,8.062,2.055,8.36
	C1.987,8.659,2.04,8.965,2.203,9.225C2.366,9.483,2.62,9.664,2.918,9.731c0.052,0.012,0.104,0.02,0.157,0.024l0.088,0.008
	l0.063,0.062c0.93,0.909,1.696,1.96,2.276,3.125l0.316,0.635l1.078,1.81c0.201,0.338,0.445,0.646,0.725,0.916l0.369,0.356
	c0.574,0.555,1.293,0.917,2.08,1.048c0.993,0.166,2.012-0.166,2.717-0.89l0.231-0.236c0.412-0.424,0.671-0.957,0.749-1.542
	l0.014-0.104c0.115-0.86-0.143-1.731-0.707-2.39l-0.203-0.236c-0.355-0.414-0.772-0.766-1.24-1.047l-0.733-0.44
	c-0.655-0.393-1.37-0.663-2.123-0.803L8.514,9.979c-1.438-0.265-2.817-0.754-4.1-1.453L4.315,8.472l-0.025-0.11
	C4.193,7.934,3.854,7.594,3.426,7.497C3.341,7.478,3.255,7.468,3.17,7.468z"/>
</svg>






