<?xml version="1.0" encoding="iso-8859-1"?>
<svg version="1.1" id="&#x56FE;&#x5C42;_1" xmlns="http://www.w3.org/2000/svg" xmlns:xlink="http://www.w3.org/1999/xlink" x="0px"
	 y="0px" viewBox="0 0 24 24" style="enable-background:new 0 0 24 24;" xml:space="preserve">
<path style="fill:#333333;" d="M15.256,15.555c-0.565-2.544,0.342-6.983,5.156-8.789l0.176,0.468
	c-4.517,1.694-5.371,5.838-4.844,8.211L15.256,15.555z"/>
<rect x="6.25" y="1.697" transform="matrix(0.8321 -0.5547 0.5547 0.8321 -0.8498 4.1934)" style="fill:#333333;" width="0.5" height="3.606"/>
<path style="fill:#333333;" d="M13.224,22.111l-0.447-0.223l1.053-2.105l0.114-0.026c2.979-0.69,4.807-2.944,4.807-4.257h0.5
	c0,1.653-2.079,3.976-5.078,4.716L13.224,22.111z"/>
<path style="fill:#333333;" d="M8.776,22.111l-0.954-1.907c-4.368-1.482-5.526-6.053-5.526-8.278
	c-0.224-2.414,0.35-4.283,1.706-5.533c1.782-1.641,4.547-1.854,6.541-1.502l-0.087,0.492C8.667,5.068,5.991,5.24,4.341,6.761
	C3.105,7.899,2.585,9.63,2.795,11.903c0.001,2.139,1.104,6.501,5.282,7.86l0.1,0.032l1.047,2.094L8.776,22.111z"/>
<path style="fill:#333333;" d="M19.335,15.75H15.5c-4.787,0-6.043-5.585-6.246-6.706l0.492-0.089
	c0.268,1.477,1.474,6.294,5.754,6.294h3.179c-0.306-1.454-0.03-3.849,2.727-4.981l0.189,0.463c-2.641,1.084-2.723,3.463-2.355,4.697
	L19.335,15.75z"/>
</svg>






