<?xml version="1.0" encoding="iso-8859-1"?>
<svg version="1.1" id="&#x56FE;&#x5C42;_1" xmlns="http://www.w3.org/2000/svg" xmlns:xlink="http://www.w3.org/1999/xlink" x="0px"
	 y="0px" viewBox="0 0 24 24" style="enable-background:new 0 0 24 24;" xml:space="preserve">
<path style="fill:#333333;" d="M12,21.25c-4.825,0-8.75-3.925-8.75-8.75c0-4.825,3.925-8.75,8.75-8.75c4.825,0,8.75,3.925,8.75,8.75
	C20.75,17.325,16.825,21.25,12,21.25z M12,4.25c-4.549,0-8.25,3.701-8.25,8.25s3.701,8.25,8.25,8.25s8.25-3.701,8.25-8.25
	S16.549,4.25,12,4.25z"/>
<polygon style="fill:#333333;" points="15.5,11.279 14.389,10.724 14.611,10.276 15.5,10.721 16.389,10.276 16.611,10.724 "/>
<polygon style="fill:#333333;" points="8.5,11.279 7.388,10.724 7.612,10.276 8.5,10.721 9.388,10.276 9.612,10.724 "/>
<rect x="11.75" y="19" style="fill:#333333;" width="0.5" height="3"/>
<path style="fill:#333333;" d="M11.757,4.061C11.667,3.701,10.895,2.25,9,2.25v-0.5c2.037,0,3.063,1.475,3.242,2.189L11.757,4.061z"
	/>
<path style="fill:#333333;" d="M12.249,4.021l-0.498-0.042c0.051-0.606,0.345-1.75,1.125-2.196l0.248,0.435
	C12.566,2.536,12.295,3.47,12.249,4.021z"/>
<path style="fill:#333333;" d="M16.237,20h-0.5c0-3.006,0-4.25-3.737-4.25c-1.804,0-2.816,0.311-3.282,1.007
	c-0.456,0.683-0.456,1.745-0.456,3.216L7.762,20c0-1.527,0-2.712,0.541-3.521C8.879,15.617,9.985,15.25,12,15.25
	C16.237,15.25,16.237,17.038,16.237,20z"/>
<rect x="2.25" y="11.5" style="fill:#333333;" width="0.5" height="2"/>
<rect x="21.25" y="11.5" style="fill:#333333;" width="0.5" height="2"/>
</svg>






