<?xml version="1.0" encoding="iso-8859-1"?>
<svg version="1.1" id="&#x56FE;&#x5C42;_1" xmlns="http://www.w3.org/2000/svg" xmlns:xlink="http://www.w3.org/1999/xlink" x="0px"
	 y="0px" viewBox="0 0 24 24" style="enable-background:new 0 0 24 24;" xml:space="preserve">
<g>
	<defs>
		<rect id="SVGID_1_" width="24" height="24"/>
	</defs>
	<clipPath id="SVGID_00000156551107758273755430000016979568611736500916_">
		<use xlink:href="#SVGID_1_"  style="overflow:visible;"/>
	</clipPath>
	<g style="clip-path:url(#SVGID_00000156551107758273755430000016979568611736500916_);">
		<path style="fill:#333333;" d="M4.508,21.804c-0.289,0-0.575-0.088-0.819-0.261c-0.368-0.261-0.586-0.668-0.599-1.118
			c-0.013-0.451,0.182-0.871,0.535-1.151l1.39-1.104c2.053-1.631,3.529-3.823,4.269-6.339l1.06-3.604
			c0.416-1.415,1.453-2.504,2.845-2.988c1.393-0.486,2.881-0.274,4.086,0.578c1.04,0.736,1.723,1.884,1.873,3.15
			c0.15,1.267-0.245,2.543-1.085,3.503l-1.565,1.787c-2.625,2.997-5.979,5.337-9.7,6.769l-1.779,0.684
			C4.853,21.772,4.68,21.804,4.508,21.804z M14.683,5.484c-0.443,0-0.892,0.075-1.329,0.227c-1.238,0.431-2.16,1.399-2.53,2.656
			l-1.06,3.604c-0.769,2.616-2.303,4.895-4.438,6.589l-1.39,1.104c-0.229,0.183-0.355,0.454-0.347,0.746s0.15,0.556,0.388,0.725
			c0.251,0.178,0.573,0.217,0.86,0.107l1.779-0.684c3.646-1.402,6.932-3.695,9.503-6.632l1.565-1.787
			c0.747-0.853,1.099-1.988,0.966-3.114c-0.134-1.125-0.741-2.146-1.666-2.801C16.294,5.735,15.496,5.484,14.683,5.484z"/>
		<path style="fill:#333333;" d="M18.961,8.232l-0.312-0.391c0.335-0.268,0.584-0.626,0.719-1.035
			c0.382-1.16-0.251-2.416-1.411-2.798c-0.564-0.186-1.163-0.14-1.691,0.126c-0.528,0.267-0.921,0.723-1.106,1.285l-0.475-0.156
			c0.227-0.689,0.708-1.249,1.356-1.575c0.647-0.327,1.384-0.382,2.072-0.154c1.422,0.469,2.197,2.007,1.729,3.429
			C19.677,7.465,19.372,7.904,18.961,8.232z"/>
		
			<rect x="18.586" y="2.75" transform="matrix(0.7071 -0.7071 0.7071 0.7071 3.7365 15.0208)" style="fill:#333333;" width="2.828" height="0.5"/>
	</g>
</g>
</svg>






