<?xml version="1.0" encoding="iso-8859-1"?>
<svg version="1.1" id="&#x56FE;&#x5C42;_1" xmlns="http://www.w3.org/2000/svg" xmlns:xlink="http://www.w3.org/1999/xlink" x="0px"
	 y="0px" viewBox="0 0 24 24" style="enable-background:new 0 0 24 24;" xml:space="preserve">
<path style="fill:#333333;" d="M21.25,16h-0.5c0-7.289-2.428-11.75-3.75-11.75c-1.103,0-2.378,2.066-2.776,2.862L14.154,7.25H9.846
	L9.776,7.112C9.378,6.316,8.103,4.25,7,4.25C5.678,4.25,3.25,8.711,3.25,16h-0.5C2.75,8.522,5.267,3.75,7,3.75
	c1.457,0,2.824,2.387,3.152,3h3.697c0.327-0.613,1.695-3,3.151-3C18.732,3.75,21.25,8.522,21.25,16z"/>
<path style="fill:#333333;" d="M21,20.25H3c-0.689,0-1.25-0.561-1.25-1.25v-2c0-0.689,0.561-1.25,1.25-1.25h18
	c0.689,0,1.25,0.561,1.25,1.25v2C22.25,19.689,21.689,20.25,21,20.25z M3,16.25c-0.414,0-0.75,0.337-0.75,0.75v2
	c0,0.413,0.336,0.75,0.75,0.75h18c0.413,0,0.75-0.337,0.75-0.75v-2c0-0.413-0.337-0.75-0.75-0.75H3z"/>
</svg>






