<?xml version="1.0" encoding="iso-8859-1"?>
<svg version="1.1" id="&#x56FE;&#x5C42;_1" xmlns="http://www.w3.org/2000/svg" xmlns:xlink="http://www.w3.org/1999/xlink" x="0px"
	 y="0px" viewBox="0 0 24 24" style="enable-background:new 0 0 24 24;" xml:space="preserve">
<rect x="2" y="21.75" style="fill:#333333;" width="20" height="0.5"/>
<rect x="6.5" y="6.75" style="fill:#333333;" width="11" height="0.5"/>
<path style="fill:#333333;" d="M18.285,22.25H5.714l2.067-15.5h8.438L18.285,22.25z M6.286,21.75h11.429l-1.934-14.5H8.219
	L6.286,21.75z"/>
<rect x="7.5" y="11.75" style="fill:#333333;" width="9" height="0.5"/>
<rect x="6.5" y="16.75" style="fill:#333333;" width="11" height="0.5"/>
<rect x="16.75" y="6.934" transform="matrix(0.9912 -0.1322 0.1322 0.9912 -1.7672 2.374)" style="fill:#333333;" width="0.501" height="15.133"/>
<rect x="-0.566" y="14.25" transform="matrix(0.1327 -0.9912 0.9912 0.1327 -8.3005 19.5143)" style="fill:#333333;" width="15.133" height="0.501"/>
<path style="fill:#333333;" d="M12.177,4.177l-0.354-0.354l0.414-0.414c0.419-0.419,0.999-0.659,1.591-0.659h0.344
	c0.461,0,0.911-0.187,1.237-0.513l0.414-0.414l0.354,0.354l-0.414,0.414C15.344,3.01,14.764,3.25,14.172,3.25h-0.344
	c-0.461,0-0.911,0.187-1.237,0.513L12.177,4.177z"/>
</svg>






