<?xml version="1.0" encoding="iso-8859-1"?>
<svg version="1.1" id="&#x56FE;&#x5C42;_1" xmlns="http://www.w3.org/2000/svg" xmlns:xlink="http://www.w3.org/1999/xlink" x="0px"
	 y="0px" viewBox="0 0 24 24" style="enable-background:new 0 0 24 24;" xml:space="preserve">
<path style="fill:#333333;" d="M19.5,21.25h-15c-0.965,0-1.75-0.785-1.75-1.75v-15c0-0.965,0.785-1.75,1.75-1.75h15
	c0.965,0,1.75,0.785,1.75,1.75v15C21.25,20.465,20.465,21.25,19.5,21.25z M4.5,3.25c-0.689,0-1.25,0.561-1.25,1.25v15
	c0,0.689,0.561,1.25,1.25,1.25h15c0.689,0,1.25-0.561,1.25-1.25v-15c0-0.689-0.561-1.25-1.25-1.25H4.5z"/>
<path style="fill:#333333;" d="M8.704,15.75c-1.104,0-2.336-1.206-2.445-3.439c-0.105-2.14,0.847-3.878,2.215-4.044
	c1.204-0.148,1.96,0.741,2.263,1.622l-0.473,0.162c-0.083-0.24-0.561-1.42-1.729-1.288c-1.087,0.132-1.867,1.68-1.777,3.523
	c0.091,1.856,1.061,2.965,1.946,2.965c1.016,0,1.562-1.233,1.567-1.246l0.459,0.197C10.703,14.265,10.051,15.75,8.704,15.75z"/>
<rect x="12.75" y="9.5" style="fill:#333333;" width="0.5" height="6"/>
<path style="fill:#333333;" d="M17.75,15.5h-0.5v-3.25c0-1.103-0.897-2-2-2s-2,0.897-2,2v3.25h-0.5v-3.25c0-1.378,1.121-2.5,2.5-2.5
	s2.5,1.122,2.5,2.5V15.5z"/>
</svg>






