<?xml version="1.0" encoding="iso-8859-1"?>
<svg version="1.1" id="&#x56FE;&#x5C42;_1" xmlns="http://www.w3.org/2000/svg" xmlns:xlink="http://www.w3.org/1999/xlink" x="0px"
	 y="0px" viewBox="0 0 24 24" style="enable-background:new 0 0 24 24;" xml:space="preserve">
<path style="fill:#333333;" d="M17,21.25H7c-0.689,0-1.25-0.561-1.25-1.25V4c0-0.689,0.561-1.25,1.25-1.25h10
	c0.689,0,1.25,0.561,1.25,1.25v16C18.25,20.689,17.689,21.25,17,21.25z M7,3.25C6.586,3.25,6.25,3.586,6.25,4v16
	c0,0.413,0.336,0.75,0.75,0.75h10c0.413,0,0.75-0.337,0.75-0.75V4c0-0.414-0.337-0.75-0.75-0.75H7z"/>
<rect x="3" y="5.75" style="fill:#333333;" width="3" height="0.5"/>
<rect x="3" y="9.75" style="fill:#333333;" width="3" height="0.5"/>
<rect x="3" y="13.75" style="fill:#333333;" width="3" height="0.5"/>
<rect x="3" y="17.75" style="fill:#333333;" width="3" height="0.5"/>
<rect x="18" y="5.75" style="fill:#333333;" width="3" height="0.5"/>
<rect x="18" y="9.75" style="fill:#333333;" width="3" height="0.5"/>
<rect x="18" y="13.75" style="fill:#333333;" width="3" height="0.5"/>
<rect x="18" y="17.75" style="fill:#333333;" width="3" height="0.5"/>
</svg>






