<?xml version="1.0" encoding="iso-8859-1"?>
<svg version="1.1" id="&#x56FE;&#x5C42;_1" xmlns="http://www.w3.org/2000/svg" xmlns:xlink="http://www.w3.org/1999/xlink" x="0px"
	 y="0px" viewBox="0 0 24 24" style="enable-background:new 0 0 24 24;" xml:space="preserve">
<path style="fill:#333333;" d="M19.5,17.25h-15l-0.195-0.406l3.79-4.736l-2.539-1.016l4.023-4.023l-2-1L12,1.646l4.422,4.422l-2,1
	l4.041,4.041l-3.021,1.007l4.244,4.717L19.5,17.25z M5.02,16.75h13.918l-4.38-4.867l2.979-0.993l-3.959-3.959l2-1L12,2.354
	L8.422,5.932l2,1l-3.977,3.977l2.461,0.984L5.02,16.75z"/>
<rect x="8.5" y="21.75" style="fill:#333333;" width="7" height="0.5"/>
<polygon style="fill:#333333;" points="10.249,22.024 9.751,21.976 10.251,16.976 10.749,17.024 "/>
<polygon style="fill:#333333;" points="13.751,22.024 13.251,17.024 13.749,16.976 14.249,21.976 "/>
</svg>






