<?xml version="1.0" encoding="iso-8859-1"?>
<svg version="1.1" id="&#x56FE;&#x5C42;_1" xmlns="http://www.w3.org/2000/svg" xmlns:xlink="http://www.w3.org/1999/xlink" x="0px"
	 y="0px" viewBox="0 0 24 24" style="enable-background:new 0 0 24 24;" xml:space="preserve">
<rect x="11.75" y="18" style="fill:#333333;" width="0.5" height="4"/>
<path style="fill:#333333;" d="M21,18.25H3l-0.186-0.418l3.715-4.105l-2.086-0.483l-0.12-0.42L8.146,9L6.655,7.508L12,1.628
	l5.346,5.88L15.854,9l3.823,3.823l-0.12,0.42l-2.086,0.483l3.715,4.105L21,18.25z M3.563,17.75h16.873l-3.907-4.318l2.476-0.573
	L15.146,9l1.508-1.508L12,2.372l-4.655,5.12L8.854,9l-3.858,3.858l2.475,0.573L3.563,17.75z"/>
</svg>






