<?xml version="1.0" encoding="iso-8859-1"?>
<svg version="1.1" id="&#x56FE;&#x5C42;_1" xmlns="http://www.w3.org/2000/svg" xmlns:xlink="http://www.w3.org/1999/xlink" x="0px"
	 y="0px" viewBox="0 0 24 24" style="enable-background:new 0 0 24 24;" xml:space="preserve">
<rect x="11.75" y="2" style="fill:#333333;" width="0.5" height="6"/>
<rect x="10" y="3.75" style="fill:#333333;" width="4" height="0.5"/>
<path style="fill:#333333;" d="M3.75,22h-0.5v-7c0-0.689,0.561-1.25,1.25-1.25h3v0.5h-3c-0.414,0-0.75,0.337-0.75,0.75V22z"/>
<path style="fill:#333333;" d="M20.75,22h-0.5v-7c0-0.413-0.337-0.75-0.75-0.75h-3v-0.5h3c0.689,0,1.25,0.561,1.25,1.25V22z"/>
<rect x="2" y="21.75" style="fill:#333333;" width="20" height="0.5"/>
<path style="fill:#333333;" d="M16.75,22.25h-9.5V11.388L12,7.166l4.75,4.222V22.25z M7.75,21.75h8.5V11.612L12,7.834l-4.25,3.778
	V21.75z"/>
<rect x="11.75" y="17" style="fill:#333333;" width="0.5" height="5"/>
<rect x="10" y="21.75" style="fill:#333333;" width="4" height="0.5"/>
</svg>






