<?xml version="1.0" encoding="iso-8859-1"?>
<svg version="1.1" id="&#x56FE;&#x5C42;_1" xmlns="http://www.w3.org/2000/svg" xmlns:xlink="http://www.w3.org/1999/xlink" x="0px"
	 y="0px" viewBox="0 0 24 24" style="enable-background:new 0 0 24 24;" xml:space="preserve">
<path style="fill:#333333;" d="M17.75,22.25H6.25V11.89L12,6.662l5.75,5.228V22.25z M6.75,21.75h10.5v-9.64L12,7.338L6.75,12.11
	V21.75z"/>
<path style="fill:#333333;" d="M6.75,22.25h-3.5V3.917L5,1.583l1.75,2.333V22.25z M3.75,21.75h2.5V4.083L5,2.417L3.75,4.083V21.75z"
	/>
<path style="fill:#333333;" d="M20.75,22.25h-3.5V3.917L19,1.583l1.75,2.333V22.25z M17.75,21.75h2.5V4.083L19,2.417l-1.25,1.667
	V21.75z"/>
<rect x="11.75" y="12.5" style="fill:#333333;" width="0.5" height="5"/>
<rect x="10" y="14.25" style="fill:#333333;" width="4" height="0.5"/>
</svg>






