<?xml version="1.0" encoding="iso-8859-1"?>
<svg version="1.1" id="&#x56FE;&#x5C42;_1" xmlns="http://www.w3.org/2000/svg" xmlns:xlink="http://www.w3.org/1999/xlink" x="0px"
	 y="0px" viewBox="0 0 24 24" style="enable-background:new 0 0 24 24;" xml:space="preserve">
<path style="fill:#333333;" d="M22,11.75H2l-0.124-0.467c0.052-0.03,5.241-3.009,7.438-5.45c2.178-2.419,2.694-3.897,2.699-3.912
	h0.475c0.005,0.015,0.521,1.493,2.698,3.912c2.201,2.445,6.9,5.426,6.948,5.456L22,11.75z M2.915,11.25h18.243
	c-1.417-0.94-4.595-3.141-6.343-5.083C13.313,4.5,12.58,3.271,12.25,2.616C11.92,3.271,11.187,4.5,9.686,6.167
	C7.938,8.109,4.477,10.307,2.915,11.25z"/>
<path style="fill:#333333;" d="M20.25,22.25H3.75v-7h16.5V22.25z M4.25,21.75h15.5v-6H4.25V21.75z"/>
<path style="fill:#333333;" d="M17.75,15.75H6.25v-4.5h11.5V15.75z M6.75,15.25h10.5v-3.5H6.75V15.25z"/>
</svg>






