<?xml version="1.0" encoding="iso-8859-1"?>
<svg version="1.1" id="&#x56FE;&#x5C42;_1" xmlns="http://www.w3.org/2000/svg" xmlns:xlink="http://www.w3.org/1999/xlink" x="0px"
	 y="0px" viewBox="0 0 24 24" style="enable-background:new 0 0 24 24;" xml:space="preserve">
<path style="fill:#333333;" d="M22.354,22.25H1.646l0.118-0.333c0.015-0.043,1.511-4.279,1.992-6.471
	c0.447-2.037,0.494-2.455,0.496-2.472l0.498,0.05c-0.002,0.017-0.045,0.433-0.505,2.529c-0.408,1.857-1.527,5.145-1.892,6.196
	h19.295c-0.364-1.052-1.483-4.339-1.892-6.196c-0.46-2.097-0.503-2.513-0.505-2.529l0.498-0.05c0.002,0.017,0.049,0.435,0.495,2.472
	c0.481,2.191,1.977,6.428,1.991,6.471L22.354,22.25z"/>
<path style="fill:#333333;" d="M8.204,22.146l-0.407-0.291c0.024-0.034,2.438-3.479,1.955-7.827l0.497-0.055
	C10.753,18.516,8.308,21.999,8.204,22.146z"/>
<path style="fill:#333333;" d="M15.797,22.146c-0.104-0.146-2.55-3.63-2.045-8.173l0.496,0.055
	c-0.482,4.348,1.931,7.793,1.955,7.827L15.797,22.146z"/>
<path style="fill:#333333;" d="M10,14.5c-0.347,0-0.678-0.365-1.19-0.962c-0.247-0.288-0.66-0.771-0.812-0.788
	c-0.025,0-0.11,0.008-0.301,0.084c-1.341,0.535-2.518,0.605-3.5,0.215l-0.925-0.37L2.712,8.752L2.998,8.75
	c0.038,0,3.783-0.033,5.435-0.491c1.39-0.386,3.429-1.469,3.449-1.48l0.123-0.065l0.119,0.069c0.02,0.011,1.902,1.087,3.198,1.478
	c1.729,0.52,5.634,0.488,5.676,0.489l0.291-0.003l-0.561,3.918l-0.117,0.059C20.269,12.895,18.532,13.75,18,13.75
	c-0.326,0-0.721-0.264-1.139-0.542C16.556,13.004,16.174,12.75,16,12.75c-0.194,0-0.825,0.59-1.128,0.874
	C14.396,14.069,14.194,14.25,14,14.25s-0.396-0.181-0.872-0.626C12.825,13.34,12.194,12.75,12,12.75
	c-0.15,0.018-0.563,0.5-0.81,0.788C10.678,14.135,10.347,14.5,10,14.5z M8,12.25c0.347,0,0.678,0.365,1.19,0.962
	C9.437,13.5,9.85,13.982,10.002,14c0.148-0.018,0.561-0.5,0.808-0.788c0.512-0.597,0.843-0.962,1.19-0.962
	c0.364,0,0.818,0.399,1.47,1.009c0.178,0.166,0.411,0.385,0.53,0.469c0.119-0.084,0.353-0.303,0.53-0.469
	c0.651-0.609,1.105-1.009,1.47-1.009c0.326,0,0.721,0.264,1.139,0.542c0.306,0.204,0.688,0.458,0.861,0.458
	c0.29,0,1.462-0.517,2.271-0.915l0.44-3.084c-0.957-0.002-3.995-0.048-5.534-0.511c-1.172-0.353-2.737-1.206-3.182-1.455
	c-0.47,0.245-2.17,1.107-3.429,1.456C7.106,9.146,4.212,9.229,3.288,9.246l0.439,3.075l0.656,0.263
	c0.871,0.348,1.893,0.277,3.129-0.215C7.715,12.289,7.875,12.25,8,12.25z"/>
<rect x="11.75" y="2.5" style="fill:#333333;" width="0.5" height="5"/>
<path style="fill:#333333;" d="M16.775,6.417c-0.564,0-1.206-0.237-1.914-0.709c-0.771-0.515-1.455-0.715-1.97-0.584
	c-0.472,0.121-0.661,0.475-0.669,0.49L11.75,5.5l0.026-3.112c0.011-0.023,0.288-0.562,0.977-0.746
	c0.667-0.178,1.473,0.041,2.386,0.649c0.771,0.514,1.455,0.718,1.97,0.584c0.472-0.121,0.661-0.475,0.669-0.49L18.25,2.5
	l-0.026,3.112c-0.012,0.023-0.288,0.562-0.977,0.746C17.097,6.397,16.939,6.417,16.775,6.417z M13.225,4.583
	c0.564,0,1.206,0.237,1.914,0.709c0.771,0.515,1.455,0.716,1.97,0.584c0.377-0.096,0.574-0.343,0.642-0.445V3.126
	c-0.135,0.093-0.301,0.177-0.503,0.231c-0.668,0.178-1.472-0.04-2.386-0.649c-0.771-0.514-1.455-0.716-1.97-0.584
	c-0.377,0.096-0.574,0.343-0.642,0.445v2.305c0.135-0.093,0.301-0.177,0.503-0.231C12.903,4.603,13.061,4.583,13.225,4.583z"/>
</svg>






