<?xml version="1.0" encoding="iso-8859-1"?>
<svg version="1.1" id="&#x56FE;&#x5C42;_1" xmlns="http://www.w3.org/2000/svg" xmlns:xlink="http://www.w3.org/1999/xlink" x="0px"
	 y="0px" viewBox="0 0 24 24" style="enable-background:new 0 0 24 24;" xml:space="preserve">
<path style="fill:#333333;" d="M12,6.25c-1.241,0-2.25-1.009-2.25-2.25S10.759,1.75,12,1.75c1.24,0,2.25,1.009,2.25,2.25
	S13.24,6.25,12,6.25z M12,2.25c-0.965,0-1.75,0.785-1.75,1.75S11.035,5.75,12,5.75S13.75,4.965,13.75,4S12.965,2.25,12,2.25z"/>
<path style="fill:#333333;" d="M12,14.25c-1.241,0-2.25-1.01-2.25-2.25c0-1.241,1.009-2.25,2.25-2.25c1.24,0,2.25,1.009,2.25,2.25
	C14.25,13.24,13.24,14.25,12,14.25z M12,10.25c-0.965,0-1.75,0.785-1.75,1.75s0.785,1.75,1.75,1.75s1.75-0.785,1.75-1.75
	S12.965,10.25,12,10.25z"/>
<path style="fill:#333333;" d="M18.933,10.25c-0.778,0-1.536-0.403-1.953-1.125c-0.301-0.521-0.38-1.127-0.225-1.708
	c0.155-0.58,0.528-1.065,1.049-1.366c0.521-0.301,1.124-0.38,1.707-0.225c0.581,0.156,1.065,0.528,1.366,1.048
	s0.38,1.126,0.225,1.707s-0.527,1.066-1.048,1.366C19.7,10.152,19.313,10.25,18.933,10.25z M18.926,6.25
	c-0.304,0-0.603,0.08-0.872,0.235c-0.405,0.234-0.695,0.611-0.815,1.063c-0.121,0.451-0.06,0.923,0.175,1.328
	c0.482,0.835,1.557,1.124,2.391,0.641c0.404-0.234,0.694-0.611,0.815-1.063c0.12-0.451,0.059-0.923-0.176-1.328
	c-0.233-0.405-0.61-0.694-1.062-0.815C19.23,6.27,19.077,6.25,18.926,6.25z"/>
<path style="fill:#333333;" d="M18.925,18.251c-0.39,0-0.774-0.102-1.121-0.302c-1.075-0.621-1.444-2-0.824-3.074l0,0
	c0.621-1.073,1.998-1.442,3.074-0.824c1.074,0.621,1.443,2.001,0.823,3.074c-0.301,0.521-0.785,0.893-1.366,1.049
	C19.316,18.226,19.12,18.251,18.925,18.251z M17.413,15.125c-0.482,0.836-0.195,1.908,0.641,2.391
	c0.404,0.234,0.874,0.296,1.328,0.175c0.451-0.121,0.828-0.41,1.062-0.815c0.483-0.835,0.196-1.908-0.64-2.391
	C18.969,14.002,17.896,14.29,17.413,15.125L17.413,15.125z"/>
<path style="fill:#333333;" d="M12,22.25c-1.241,0-2.25-1.01-2.25-2.25s1.009-2.25,2.25-2.25c1.24,0,2.25,1.01,2.25,2.25
	S13.24,22.25,12,22.25z M12,18.25c-0.965,0-1.75,0.785-1.75,1.75s0.785,1.75,1.75,1.75s1.75-0.785,1.75-1.75S12.965,18.25,12,18.25z
	"/>
<path style="fill:#333333;" d="M5.076,18.25c-0.778,0-1.536-0.404-1.952-1.125c-0.621-1.074-0.251-2.453,0.823-3.074
	C5.02,13.433,6.4,13.802,7.02,14.875l0,0c0.62,1.074,0.251,2.453-0.823,3.074C5.843,18.152,5.457,18.25,5.076,18.25z M5.068,14.25
	c-0.297,0-0.597,0.075-0.872,0.234c-0.835,0.482-1.123,1.555-0.641,2.391c0.482,0.835,1.554,1.124,2.391,0.641
	c0.835-0.482,1.123-1.555,0.641-2.391l0,0C6.263,14.564,5.673,14.25,5.068,14.25z"/>
<path style="fill:#333333;" d="M5.068,10.251c-0.39,0-0.775-0.102-1.122-0.303c-1.074-0.62-1.444-1.999-0.823-3.073
	c0.62-1.074,1.999-1.444,3.073-0.823c1.074,0.62,1.444,1.999,0.823,3.073c-0.3,0.521-0.786,0.893-1.366,1.048
	C5.46,10.226,5.264,10.251,5.068,10.251z M5.075,6.25c-0.605,0-1.195,0.314-1.519,0.875C3.074,7.96,3.361,9.033,4.197,9.516
	C4.602,9.75,5.074,9.811,5.524,9.69C5.976,9.569,6.354,9.28,6.587,8.875C7.07,8.04,6.782,6.967,5.947,6.484
	C5.672,6.326,5.372,6.25,5.075,6.25z"/>
</svg>






