<?xml version="1.0" encoding="iso-8859-1"?>
<svg version="1.1" id="&#x56FE;&#x5C42;_1" xmlns="http://www.w3.org/2000/svg" xmlns:xlink="http://www.w3.org/1999/xlink" x="0px"
	 y="0px" viewBox="0 0 24 24" style="enable-background:new 0 0 24 24;" xml:space="preserve">
<path style="fill:#333333;" d="M12,9.25H5.5C5.396,9.233,4.201,8.969,3.429,8.74C2.837,8.564,1.953,8.249,1.916,8.235l0.057-0.484
	c0.53-0.057,1.997-0.254,2.41-0.472c0.949-0.502,2.949-1.966,2.969-1.981L7.418,5.25h8.65l0.059,0.035
	c0.025,0.015,2.529,1.486,3.49,1.994c0.413,0.219,1.88,0.416,2.409,0.473l0.058,0.484c-0.037,0.014-0.921,0.329-1.513,0.504
	c-0.771,0.229-1.967,0.493-2.018,0.504L12,9.25z M3.083,8.106c0.17,0.056,0.34,0.11,0.488,0.154c0.754,0.224,1.97,0.493,1.982,0.496
	L18.499,8.75c-0.013-0.003,1.185-0.269,1.93-0.49c0.148-0.044,0.318-0.098,0.488-0.154c-0.577-0.092-1.23-0.225-1.534-0.386
	c-0.887-0.469-3.064-1.744-3.451-1.971h-8.35C7.218,6.015,5.509,7.249,4.617,7.721C4.313,7.882,3.66,8.014,3.083,8.106z"/>
<path style="fill:#333333;" d="M15,5.75H8.5L8.323,5.323l3.69-3.691l3.176,3.705L15,5.75z M9.104,5.25h5.353l-2.47-2.882L9.104,5.25
	z"/>
<rect x="17.25" y="9" style="fill:#333333;" width="0.5" height="3"/>
<rect x="5.75" y="9" style="fill:#333333;" width="0.5" height="3"/>
<path style="fill:#333333;" d="M22.276,22.25H1.724l1.05-10.5h18.453L22.276,22.25z M2.276,21.75h19.447l-0.95-9.5H3.226
	L2.276,21.75z"/>
<path style="fill:#333333;" d="M14.25,22.25h-4.5V19c0-1.24,1.009-2.25,2.25-2.25c1.24,0,2.25,1.01,2.25,2.25V22.25z M10.25,21.75
	h3.5V19c0-0.965-0.785-1.75-1.75-1.75s-1.75,0.785-1.75,1.75V21.75z"/>
</svg>






