<?xml version="1.0" encoding="iso-8859-1"?>
<svg version="1.1" id="&#x56FE;&#x5C42;_1" xmlns="http://www.w3.org/2000/svg" xmlns:xlink="http://www.w3.org/1999/xlink" x="0px"
	 y="0px" viewBox="0 0 24 24" style="enable-background:new 0 0 24 24;" xml:space="preserve">
<g>
	<defs>
		<rect id="SVGID_1_" width="24" height="24"/>
	</defs>
	<clipPath id="SVGID_00000160910475273225481180000011218403518562312371_">
		<use xlink:href="#SVGID_1_"  style="overflow:visible;"/>
	</clipPath>
	<g style="clip-path:url(#SVGID_00000160910475273225481180000011218403518562312371_);">
		<path style="fill:#333333;" d="M9.508,22.259H7.029c-0.686,0-1.247-0.558-1.25-1.244l-0.028-6.337
			c0-0.088-0.016-0.174-0.047-0.257l-2.76-7.459c-0.179-0.483,0.015-1.02,0.46-1.277C3.907,5.393,4.553,5.566,4.843,6.07
			l3.945,6.835l0.441,0.993l1.5,6.843c0.081,0.372-0.009,0.756-0.248,1.052C10.243,22.089,9.888,22.259,9.508,22.259z M3.931,6.043
			c-0.096,0-0.19,0.025-0.276,0.075c-0.234,0.135-0.335,0.417-0.242,0.67l2.76,7.459c0.051,0.138,0.078,0.282,0.078,0.429
			l0.028,6.337c0.002,0.411,0.338,0.746,0.75,0.746h2.479c0.228,0,0.441-0.102,0.584-0.279s0.197-0.408,0.148-0.631l-1.485-6.795
			l-0.419-0.933L4.41,6.32c-0.074-0.128-0.193-0.22-0.336-0.258C4.027,6.05,3.979,6.043,3.931,6.043z"/>
		
			<rect x="5.979" y="14" transform="matrix(0.9865 -0.1638 0.1638 0.9865 -2.2324 1.4206)" style="fill:#333333;" width="3.041" height="0.501"/>
		<path style="fill:#333333;" d="M16.763,22.26H14.28c-0.388,0-0.747-0.176-0.985-0.481c-0.238-0.305-0.321-0.696-0.227-1.071
			l1.689-6.768l0.164-0.82c0.026-0.133,0.075-0.261,0.144-0.38l3.845-6.661c0.143-0.246,0.372-0.422,0.646-0.495
			c0.273-0.072,0.561-0.036,0.807,0.106C20.801,5.942,21,6.474,20.837,6.953l-2.553,7.489c-0.023,0.071-0.037,0.144-0.039,0.214
			l-0.233,6.399C17.987,21.73,17.438,22.26,16.763,22.26z M19.832,6.047c-0.049,0-0.099,0.006-0.146,0.02
			c-0.146,0.039-0.267,0.132-0.342,0.262l-3.845,6.661c-0.042,0.072-0.071,0.148-0.087,0.228l-0.167,0.832l-1.692,6.779
			c-0.057,0.226-0.007,0.46,0.137,0.643c0.143,0.184,0.358,0.289,0.591,0.289h2.482c0.405,0,0.734-0.317,0.749-0.723l0.233-6.398
			c0.004-0.118,0.025-0.239,0.065-0.358l2.554-7.489c0.086-0.253-0.02-0.535-0.252-0.669C20.025,6.073,19.93,6.047,19.832,6.047z"/>
		
			<rect x="16.25" y="12.729" transform="matrix(0.1644 -0.9864 0.9864 0.1644 -0.2687 28.1828)" style="fill:#333333;" width="0.501" height="3.041"/>
		
			<rect x="8.125" y="3.171" transform="matrix(0.7526 -0.6585 0.6585 0.7526 -0.8911 6.6284)" style="fill:#333333;" width="0.5" height="2.658"/>
		
			<rect x="11.5" y="1.979" transform="matrix(0.9864 -0.1644 0.1644 0.9864 -0.4155 1.9793)" style="fill:#333333;" width="0.5" height="3.041"/>
		
			<rect x="14.5" y="3.75" transform="matrix(0.5994 -0.8005 0.8005 0.5994 3.108 14.2099)" style="fill:#333333;" width="2.5" height="0.5"/>
	</g>
</g>
</svg>






