<?xml version="1.0" encoding="iso-8859-1"?>
<svg version="1.1" id="&#x56FE;&#x5C42;_1" xmlns="http://www.w3.org/2000/svg" xmlns:xlink="http://www.w3.org/1999/xlink" x="0px"
	 y="0px" viewBox="0 0 24 24" style="enable-background:new 0 0 24 24;" xml:space="preserve">
<path style="fill:#333333;" d="M12,11.25c-2.619,0-4.75-2.131-4.75-4.75S9.381,1.75,12,1.75s4.75,2.131,4.75,4.75
	S14.619,11.25,12,11.25z M12,2.25c-2.343,0-4.25,1.907-4.25,4.25s1.907,4.25,4.25,4.25c2.344,0,4.25-1.907,4.25-4.25
	S14.344,2.25,12,2.25z"/>
<path style="fill:#333333;" d="M21.75,22h-0.5c0-3.979-3.327-8.305-5.356-8.73l-3.899,4.329l-0.185-0.219
	c-1.23-1.457-3.196-3.572-3.681-4.091C5.559,14.229,2.75,18.082,2.75,22h-0.5c0-4.202,3.101-8.343,5.874-9.238l0.15-0.048
	l0.108,0.115c0.023,0.024,2.198,2.344,3.624,4.01l3.696-4.104l0.13,0.017C18.059,13.045,21.75,17.633,21.75,22z"/>
<rect x="1" y="21.75" style="fill:#333333;" width="22" height="0.5"/>
</svg>






