<?xml version="1.0" encoding="iso-8859-1"?>
<svg version="1.1" id="&#x56FE;&#x5C42;_1" xmlns="http://www.w3.org/2000/svg" xmlns:xlink="http://www.w3.org/1999/xlink" x="0px"
	 y="0px" viewBox="0 0 24 24" style="enable-background:new 0 0 24 24;" xml:space="preserve">
<rect x="11.75" y="2" style="fill:#333333;" width="0.5" height="4"/>
<path style="fill:#333333;" d="M18,21.354l-2.961-2.961l-1.831,2.746l-0.453-0.09l-2.074-10.368l10.368,2.074l0.09,0.453
	l-2.746,1.831L21.354,18L18,21.354z M14.961,17.607L18,20.646L20.646,18l-3.039-3.039l2.752-1.834l-9.041-1.808l1.808,9.041
	L14.961,17.607z"/>
<rect x="15.656" y="6.093" transform="matrix(0.7071 -0.7071 0.7071 0.7071 0.6863 14.343)" style="fill:#333333;" width="4.001" height="0.5"/>
<rect x="4.343" y="17.407" transform="matrix(0.7071 -0.7071 0.7071 0.7071 -10.6274 9.6567)" style="fill:#333333;" width="4.001" height="0.5"/>
<rect x="2" y="11.75" style="fill:#333333;" width="4" height="0.5"/>
<rect x="6.093" y="4.343" transform="matrix(0.7072 -0.707 0.707 0.7072 -2.6273 6.3424)" style="fill:#333333;" width="0.5" height="4"/>
</svg>






