<?xml version="1.0" encoding="iso-8859-1"?>
<svg version="1.1" id="&#x56FE;&#x5C42;_1" xmlns="http://www.w3.org/2000/svg" xmlns:xlink="http://www.w3.org/1999/xlink" x="0px"
	 y="0px" viewBox="0 0 24 24" style="enable-background:new 0 0 24 24;" xml:space="preserve">
<path style="fill:#333333;" d="M21.25,22h-0.5v-1.799l-11.5-2.5V7.5c0-0.965-0.785-1.75-1.75-1.75S5.75,6.535,5.75,7.5V22h-0.5V7.5
	c0-1.241,1.009-2.25,2.25-2.25S9.75,6.259,9.75,7.5v9.799l11.5,2.5V22z"/>
<path style="fill:#333333;" d="M9.591,12.857l-0.182-0.465C11.438,11.6,12.75,9.68,12.75,7.5c0-2.895-2.355-5.25-5.25-5.25
	S2.25,4.605,2.25,7.5c0,2.18,1.312,4.1,3.341,4.893l-0.182,0.465C3.187,11.99,1.75,9.887,1.75,7.5c0-3.17,2.58-5.75,5.75-5.75
	s5.75,2.58,5.75,5.75C13.25,9.887,11.813,11.99,9.591,12.857z"/>
</svg>






