<?xml version="1.0" encoding="iso-8859-1"?>
<svg version="1.1" id="&#x56FE;&#x5C42;_1" xmlns="http://www.w3.org/2000/svg" xmlns:xlink="http://www.w3.org/1999/xlink" x="0px"
	 y="0px" viewBox="0 0 24 24" style="enable-background:new 0 0 24 24;" xml:space="preserve">
<path style="fill:#333333;" d="M10.75,13h-0.5V7.5c0-0.689-0.561-1.25-1.25-1.25S7.75,6.811,7.75,7.5V13h-0.5V7.5
	c0-0.965,0.785-1.75,1.75-1.75s1.75,0.785,1.75,1.75V13z"/>
<path style="fill:#333333;" d="M13.75,21.75h-0.5c-3.309,0-6-2.691-6-6V12.5h0.5v3.25c0,3.032,2.467,5.5,5.5,5.5h0.5
	c3.032,0,5.5-2.468,5.5-5.5V12.5h0.5v3.25C19.75,19.059,17.059,21.75,13.75,21.75z"/>
<path style="fill:#333333;" d="M13.75,14.5h-0.5V12c0-0.689-0.561-1.25-1.25-1.25s-1.25,0.561-1.25,1.25v2.5h-0.5V12
	c0-0.965,0.785-1.75,1.75-1.75s1.75,0.785,1.75,1.75V14.5z"/>
<path style="fill:#333333;" d="M16.75,14.5h-0.5V12c0-0.689-0.561-1.25-1.25-1.25s-1.25,0.561-1.25,1.25v2.5h-0.5V12
	c0-0.965,0.785-1.75,1.75-1.75s1.75,0.785,1.75,1.75V14.5z"/>
<path style="fill:#333333;" d="M19.75,14.5h-0.5V12c0-0.689-0.561-1.25-1.25-1.25s-1.25,0.561-1.25,1.25v2.5h-0.5V12
	c0-0.965,0.785-1.75,1.75-1.75s1.75,0.785,1.75,1.75V14.5z"/>
<path style="fill:#333333;" d="M14.25,7.5h-0.5c0-0.489-0.074-0.971-0.22-1.433c-0.158-0.5-0.397-0.968-0.711-1.391
	C11.927,3.47,10.499,2.75,9,2.75c-1.499,0-2.927,0.72-3.82,1.926C4.867,5.099,4.627,5.567,4.47,6.067
	C4.324,6.529,4.25,7.011,4.25,7.5h-0.5c0-0.541,0.082-1.073,0.243-1.583c0.174-0.553,0.438-1.071,0.785-1.539
	C5.766,3.046,7.344,2.25,9,2.25c1.657,0,3.235,0.796,4.222,2.128c0.347,0.467,0.61,0.985,0.785,1.539
	C14.168,6.427,14.25,6.959,14.25,7.5z"/>
</svg>






