<?xml version="1.0" encoding="iso-8859-1"?>
<svg version="1.1" id="&#x56FE;&#x5C42;_1" xmlns="http://www.w3.org/2000/svg" xmlns:xlink="http://www.w3.org/1999/xlink" x="0px"
	 y="0px" viewBox="0 0 24 24" style="enable-background:new 0 0 24 24;" xml:space="preserve">
<path style="fill:#333333;" d="M19,22.25H5c-0.689,0-1.25-0.561-1.25-1.25V4.5c0-0.689,0.561-1.25,1.25-1.25h3.5v0.5H5
	c-0.414,0-0.75,0.336-0.75,0.75V21c0,0.413,0.336,0.75,0.75,0.75h14c0.413,0,0.75-0.337,0.75-0.75V4.5c0-0.414-0.337-0.75-0.75-0.75
	h-3.5v-0.5H19c0.689,0,1.25,0.561,1.25,1.25V21C20.25,21.689,19.689,22.25,19,22.25z"/>
<path style="fill:#333333;" d="M15.75,5.25h-7.5v-3.5h7.5V5.25z M8.75,4.75h6.5v-2.5h-6.5V4.75z"/>
</svg>






