<?xml version="1.0" encoding="iso-8859-1"?>
<svg version="1.1" id="&#x56FE;&#x5C42;_1" xmlns="http://www.w3.org/2000/svg" xmlns:xlink="http://www.w3.org/1999/xlink" x="0px"
	 y="0px" viewBox="0 0 24 24" style="enable-background:new 0 0 24 24;" xml:space="preserve">
<rect x="2" y="21.75" style="fill:#333333;" width="20" height="0.5"/>
<path style="fill:#333333;" d="M19.75,22.25h-6.5v-6.5h6.5V22.25z M13.75,21.75h5.5v-5.5h-5.5V21.75z"/>
<rect x="18.75" y="5" style="fill:#333333;" width="0.5" height="3"/>
<rect x="13.75" y="5" style="fill:#333333;" width="0.5" height="3"/>
<path style="fill:#333333;" d="M19,5.25h-5l-0.192-0.41l2.692-3.23l2.692,3.23L19,5.25z M14.534,4.75h3.932L16.5,2.391L14.534,4.75z
	"/>
<path style="fill:#333333;" d="M4.75,22h-0.5V11c0-0.689,0.561-1.25,1.25-1.25h7v0.5h-7c-0.414,0-0.75,0.336-0.75,0.75V22z"/>
<rect x="7.5" y="14.25" style="fill:#333333;" width="2" height="0.5"/>
<rect x="7.5" y="17.75" style="fill:#333333;" width="2" height="0.5"/>
<path style="fill:#333333;" d="M20,16.25h-7c-0.413,0-0.75-0.337-0.75-0.75v-7c0-0.414,0.337-0.75,0.75-0.75h7
	c0.413,0,0.75,0.336,0.75,0.75v7C20.75,15.913,20.413,16.25,20,16.25z M13,8.25c-0.138,0-0.25,0.112-0.25,0.25v7
	c0,0.138,0.112,0.25,0.25,0.25h7c0.138,0,0.25-0.112,0.25-0.25v-7c0-0.138-0.112-0.25-0.25-0.25H13z"/>
<circle style="fill:#333333;" cx="16.5" cy="12" r="1.5"/>
<rect x="16.25" y="16" style="fill:#333333;" width="0.5" height="5"/>
</svg>






