<?xml version="1.0" encoding="iso-8859-1"?>
<svg version="1.1" id="&#x56FE;&#x5C42;_1" xmlns="http://www.w3.org/2000/svg" xmlns:xlink="http://www.w3.org/1999/xlink" x="0px"
	 y="0px" viewBox="0 0 24 24" style="enable-background:new 0 0 24 24;" xml:space="preserve">
<path style="fill:#333333;" d="M21.828,9.664c-3.235-3.066-7.624-4.428-12.04-3.743L9.711,5.427
	c4.569-0.711,9.111,0.701,12.46,3.874L21.828,9.664z"/>
<path style="fill:#333333;" d="M18.823,13.076c-1.278-1.278-2.879-2.168-4.63-2.575l0.113-0.487c1.842,0.428,3.526,1.364,4.87,2.708
	L18.823,13.076z"/>
<path style="fill:#333333;" d="M5.177,13.076l-0.354-0.354c0.665-0.666,1.417-1.235,2.234-1.691l0.244,0.437
	C6.524,11.902,5.81,12.443,5.177,13.076z"/>
<path style="fill:#333333;" d="M8.177,16.334L7.823,15.98c0.725-0.725,1.627-1.251,2.611-1.521l0.132,0.482
	C9.667,15.188,8.84,15.67,8.177,16.334z"/>
<path style="fill-rule:evenodd;clip-rule:evenodd;fill:#333333;" d="M12,20c0.69,0,1.25-0.56,1.25-1.25S12.69,17.5,12,17.5
	s-1.25,0.56-1.25,1.25S11.31,20,12,20z"/>
<rect x="11.75" y="0.686" transform="matrix(0.7071 -0.7071 0.7071 0.7071 -4.9706 12)" style="fill:#333333;" width="0.5" height="22.627"/>
<path style="fill:#333333;" d="M2.172,9.664L1.828,9.301c0.295-0.279,0.606-0.55,0.924-0.806c0.279-0.224,0.565-0.437,0.856-0.638
	l0.284,0.412C3.611,8.463,3.335,8.668,3.065,8.884C2.758,9.131,2.457,9.394,2.172,9.664z"/>
</svg>






