<?xml version="1.0" encoding="iso-8859-1"?>
<svg version="1.1" id="&#x56FE;&#x5C42;_1" xmlns="http://www.w3.org/2000/svg" xmlns:xlink="http://www.w3.org/1999/xlink" x="0px"
	 y="0px" viewBox="0 0 24 24" style="enable-background:new 0 0 24 24;" xml:space="preserve">
<path style="fill:#333333;" d="M15,19.25H3l-0.161-0.441c0.027-0.023,2.702-2.345,2.899-8.566l0.5,0.016
	C6.08,15.252,4.401,17.802,3.59,18.75H15V19.25z M20.84,19.192c-0.126-0.105-3.09-2.656-3.09-9.692c0-3.17-2.579-5.75-5.75-5.75
	c-1.178,0-2.311,0.354-3.275,1.023L8.44,4.362C9.488,3.635,10.719,3.25,12,3.25c3.446,0,6.25,2.804,6.25,6.25
	c0,6.779,2.882,9.284,2.91,9.309L20.84,19.192z"/>
<path style="fill:#333333;" d="M12,22.25c-1.792,0-3.25-1.458-3.25-3.25v-0.25h6.5V19C15.25,20.792,13.792,22.25,12,22.25z
	 M9.261,19.25c0.126,1.399,1.307,2.5,2.739,2.5c1.433,0,2.612-1.101,2.738-2.5H9.261z"/>
<path style="fill-rule:evenodd;clip-rule:evenodd;fill:#333333;" d="M12,1c-1.105,0-2,0.895-2,2h4C14,1.895,13.105,1,12,1z"/>
<rect x="11.75" y="0.002" transform="matrix(0.7452 -0.6668 0.6668 0.7452 -5.4445 11.2495)" style="fill:#333333;" width="0.5" height="25.495"/>
</svg>






