<?xml version="1.0" encoding="iso-8859-1"?>
<svg version="1.1" id="&#x56FE;&#x5C42;_1" xmlns="http://www.w3.org/2000/svg" xmlns:xlink="http://www.w3.org/1999/xlink" x="0px"
	 y="0px" viewBox="0 0 24 24" style="enable-background:new 0 0 24 24;" xml:space="preserve">
<path style="fill:#333333;" d="M17.25,19.25H4.75V8c0-2.894,0-4.346,0.952-5.298C6.654,1.75,8.106,1.75,11,1.75h0.5
	c2.399,0,3.604,0,4.479,0.672c0.226,0.172,0.427,0.375,0.6,0.6c0.649,0.845,0.671,1.999,0.672,4.242
	c0.839,0.072,3.5,0.516,3.5,3.236V13c0,2.72-2.661,3.164-3.5,3.236V19.25z M5.25,18.75h11.5v-2.999L17,15.75
	c0.133,0,3.25-0.038,3.25-2.75v-2.5c0-2.295-2.233-2.675-3-2.738V11h-0.5V7.5c0-2.286,0-3.434-0.568-4.174
	c-0.146-0.191-0.316-0.362-0.508-0.507C14.934,2.25,13.786,2.25,11.5,2.25H11c-2.756,0-4.139,0-4.944,0.806
	C5.25,3.861,5.25,5.244,5.25,8V18.75z"/>
<path style="fill:#333333;" d="M17.5,22.25h-13c-0.965,0-1.75-0.785-1.75-1.75s0.785-1.75,1.75-1.75h13
	c0.965,0,1.75,0.785,1.75,1.75S18.465,22.25,17.5,22.25z M4.5,19.25c-0.689,0-1.25,0.561-1.25,1.25s0.561,1.25,1.25,1.25h13
	c0.689,0,1.25-0.561,1.25-1.25s-0.561-1.25-1.25-1.25H4.5z"/>
</svg>






