<?xml version="1.0" encoding="iso-8859-1"?>
<svg version="1.1" id="&#x56FE;&#x5C42;_1" xmlns="http://www.w3.org/2000/svg" xmlns:xlink="http://www.w3.org/1999/xlink" x="0px"
	 y="0px" viewBox="0 0 24 24" style="enable-background:new 0 0 24 24;" xml:space="preserve">
<path style="fill:none;" d="M13.5,2h-6C5.614,2,4.672,2,4.086,2.586C3.5,3.172,3.5,4.114,3.5,6v16h14v-3.5c0,0,3.5,0,3.5-3v-4
	c0-3-3.5-3-3.5-3V6c0-1.886,0-2.828-0.586-3.414C16.328,2,15.386,2,13.5,2z"/>
<path style="fill:#333333;" d="M17.75,22.25H3.25V6c0-1.952,0-2.932,0.659-3.591C4.568,1.75,5.548,1.75,7.5,1.75h6
	c1.952,0,2.932,0,3.591,0.659C17.75,3.068,17.75,4.048,17.75,6v2.264c0.839,0.072,3.5,0.516,3.5,3.236v4
	c0,2.72-2.661,3.164-3.5,3.236V22.25z M3.75,21.75h13.5v-3.499l0.25-0.001c0.133,0,3.25-0.038,3.25-2.75v-4
	c0-2.295-2.233-2.675-3-2.738V13.5h-0.5V6c0-1.814,0-2.725-0.513-3.237C16.225,2.25,15.314,2.25,13.5,2.25h-6
	c-1.814,0-2.725,0-3.237,0.513C3.75,3.275,3.75,4.186,3.75,6V21.75z"/>
<rect x="6.75" y="2" style="fill:#333333;" width="0.5" height="9"/>
<rect x="10.25" y="2" style="fill:#333333;" width="0.5" height="9"/>
<rect x="13.75" y="2" style="fill:#333333;" width="0.5" height="9"/>
<rect x="6" y="1.75" style="fill:#333333;" width="9" height="0.5"/>
</svg>






