<?xml version="1.0" encoding="iso-8859-1"?>
<svg version="1.1" id="&#x56FE;&#x5C42;_1" xmlns="http://www.w3.org/2000/svg" xmlns:xlink="http://www.w3.org/1999/xlink" x="0px"
	 y="0px" viewBox="0 0 24 24" style="enable-background:new 0 0 24 24;" xml:space="preserve">
<path style="fill:#333333;" d="M20,22.25H9.896L8,20.354L6.104,22.25H4c-0.979,0-1.518,0-1.884-0.366S1.75,20.979,1.75,20V4
	c0-0.979,0-1.518,0.366-1.884S3.021,1.75,4,1.75h5c0.979,0,1.518,0,1.884,0.366S11.25,3.021,11.25,4v0.263
	c0,2.43,0,3.65,0.678,4.427c0.678,0.778,1.887,0.942,4.295,1.271l0.621,0.085c2.531,0.345,3.802,0.518,4.604,1.437
	c0.802,0.918,0.802,2.2,0.802,4.756V20c0,0.979,0,1.518-0.366,1.884S20.979,22.25,20,22.25z M10.104,21.75H20
	c0.872,0,1.311,0,1.53-0.22s0.22-0.658,0.22-1.53v-3.763c0-2.431,0-3.65-0.679-4.427c-0.678-0.778-1.887-0.942-4.295-1.271
	l-0.621-0.085c-2.531-0.345-3.802-0.518-4.604-1.437C10.75,8.1,10.75,6.818,10.75,4.263V4c0-0.873,0-1.311-0.22-1.53
	S9.873,2.25,9,2.25H4c-0.873,0-1.311,0-1.53,0.22S2.25,3.127,2.25,4v16c0,0.872,0,1.311,0.22,1.53S3.127,21.75,4,21.75h1.896
	L8,19.646L10.104,21.75z"/>
<rect x="2" y="16.75" style="fill:#333333;" width="20" height="0.5"/>
<rect x="2" y="5.5" style="fill:#333333;" width="9" height="0.5"/>
<path style="fill:#333333;" d="M7.5,13.25c-0.965,0-1.75-0.785-1.75-1.75S6.535,9.75,7.5,9.75s1.75,0.785,1.75,1.75
	S8.465,13.25,7.5,13.25z M7.5,10.25c-0.689,0-1.25,0.561-1.25,1.25s0.561,1.25,1.25,1.25s1.25-0.561,1.25-1.25
	S8.189,10.25,7.5,10.25z"/>
</svg>






