<?xml version="1.0" encoding="iso-8859-1"?>
<svg version="1.1" id="&#x56FE;&#x5C42;_1" xmlns="http://www.w3.org/2000/svg" xmlns:xlink="http://www.w3.org/1999/xlink" x="0px"
	 y="0px" viewBox="0 0 24 24" style="enable-background:new 0 0 24 24;" xml:space="preserve">
<path style="fill:#333333;" d="M18.75,22.25H5.25v-3.5h-3.5V11c0-1.539,1.017-3.381,2.59-4.692c1.539-1.282,3.544-1.545,3.629-1.556
	L8.09,4.737L12,8.646l3.91-3.91l0.121,0.015c0.084,0.011,2.09,0.274,3.629,1.556c1.573,1.311,2.59,3.153,2.59,4.692v7.75h-3.5V22.25
	z M5.75,21.75h12.5V11h0.5v7.25h3V11c0-1.397-0.946-3.088-2.41-4.308c-1.22-1.017-2.811-1.35-3.253-1.425L12.25,9.104V13.5h-0.5
	V9.104L7.913,5.267C7.471,5.342,5.88,5.675,4.66,6.692C3.196,7.912,2.25,9.603,2.25,11v7.25h3V11h0.5v7.5H5.5h0.25V21.75z"/>
<path style="fill:#333333;" d="M12,9.354L7.913,5.267C7.471,5.342,5.88,5.675,4.66,6.692L4.406,6.904L3.227,4.25l1.111-2.5h15.325
	l1.111,2.5l-1.18,2.654L19.34,6.692c-1.22-1.017-2.811-1.35-3.253-1.425L12,9.354z M8.09,4.737L12,8.646l3.91-3.91l0.121,0.015
	c0.08,0.01,1.875,0.246,3.371,1.353l0.824-1.855l-0.889-2H4.663l-0.889,2l0.825,1.855c1.496-1.107,3.291-1.343,3.371-1.353
	L8.09,4.737z"/>
</svg>






