<?xml version="1.0" encoding="iso-8859-1"?>
<svg version="1.1" id="&#x56FE;&#x5C42;_1" xmlns="http://www.w3.org/2000/svg" xmlns:xlink="http://www.w3.org/1999/xlink" x="0px"
	 y="0px" viewBox="0 0 24 24" style="enable-background:new 0 0 24 24;" xml:space="preserve">
<path style="fill:#333333;" d="M12.921,18.75h-2.065l-0.025-0.223c-0.004-0.039-0.462-3.986-2.023-5.868
	c-1.453-1.75-5.827-2.906-5.871-2.917L2.75,9.693V6.75h18.5v2.943l-0.187,0.048c-0.045,0.012-4.418,1.167-5.871,2.917
	c-1.562,1.882-2.019,5.829-2.023,5.868l-0.024,0.223H12.921z M11.299,18.25H12.7c0.121-0.889,0.653-4.157,2.107-5.909
	c1.394-1.68,5.06-2.785,5.942-3.032V7.25H3.25v2.059c0.883,0.247,4.549,1.352,5.942,3.032C10.646,14.093,11.178,17.361,11.299,18.25
	z"/>
</svg>






