<?xml version="1.0" encoding="iso-8859-1"?>
<svg version="1.1" id="&#x56FE;&#x5C42;_1" xmlns="http://www.w3.org/2000/svg" xmlns:xlink="http://www.w3.org/1999/xlink" x="0px"
	 y="0px" viewBox="0 0 24 24" style="enable-background:new 0 0 24 24;" xml:space="preserve">
<path style="fill:#333333;" d="M18.75,22.25H5.25v-3.5h-3.5V8.881l3.304-2.697l3.409,2.479L12,4.62l3.538,4.043l3.408-2.479
	l3.304,2.697v9.869h-3.5V22.25z M5.75,21.75h12.5V12.5h0.5v5.75h3V9.119l-2.821-2.303l-3.467,2.521L12,5.38L8.538,9.336L5.071,6.815
	L2.25,9.119v9.131h3V12.5h0.5v6H5.5h0.25V21.75z"/>
<path style="fill:none;" d="M8.5,9L12,5l3.5,4L21,5l-1.25-3H4.5L3,5L8.5,9z"/>
<path style="fill:#333333;" d="M15.462,9.336L12,5.38L8.538,9.336L2.682,5.078L4.346,1.75h15.571l1.39,3.336L15.462,9.336z
	 M12.551,5.25l2.987,3.414l5.155-3.75l-1.11-2.664H4.654L3.318,4.922l5.144,3.741l2.987-3.414H9.5v-0.5h2.387L12,4.62l0.113,0.13
	H14.5v0.5H12.551z"/>
</svg>






