<?xml version="1.0" encoding="iso-8859-1"?>
<svg version="1.1" id="&#x56FE;&#x5C42;_1" xmlns="http://www.w3.org/2000/svg" xmlns:xlink="http://www.w3.org/1999/xlink" x="0px"
	 y="0px" viewBox="0 0 24 24" style="enable-background:new 0 0 24 24;" xml:space="preserve">
<path style="fill:#333333;" d="M18.75,22.25H5.25v-3.5h-3.5V8.5c0-1.539,1.017-3.381,2.59-4.692
	c1.515-1.263,3.489-2.011,3.572-2.042L8,1.75l8.088,0.016c0.083,0.031,2.057,0.779,3.572,2.042c1.573,1.311,2.59,3.153,2.59,4.692
	v10.25h-3.5V22.25z M5.75,21.75h12.5V8.5h0.5v9.75h3V8.5c0-1.397-0.946-3.088-2.41-4.308c-1.332-1.11-3.096-1.828-3.387-1.942H8.047
	C7.756,2.364,5.992,3.082,4.66,4.192C3.196,5.412,2.25,7.103,2.25,8.5v9.75h3V8.5h0.5v10H5.5h0.25V21.75z"/>
<rect x="11.75" y="8.5" style="fill:#333333;" width="0.5" height="13.5"/>
<rect x="9.75" y="1.434" transform="matrix(0.8517 -0.5241 0.5241 0.8517 -1.2681 6.0198)" style="fill:#333333;" width="0.5" height="7.632"/>
<rect x="10.184" y="5" transform="matrix(0.5237 -0.8519 0.8519 0.5237 2.1961 14.4278)" style="fill:#333333;" width="7.632" height="0.5"/>
</svg>






