<?xml version="1.0" encoding="iso-8859-1"?>
<svg version="1.1" id="&#x56FE;&#x5C42;_1" xmlns="http://www.w3.org/2000/svg" xmlns:xlink="http://www.w3.org/1999/xlink" x="0px"
	 y="0px" viewBox="0 0 24 24" style="enable-background:new 0 0 24 24;" xml:space="preserve">
<path style="fill:#333333;" d="M18.75,22.25H5.25v-3.5h-3.5V5.896L4.401,3.27L8,1.75l8.099,0.02l3.578,1.553l2.573,2.573V18.75h-3.5
	V22.25z M5.75,21.75h12.5V9.5h0.5v8.75h3V6.104l-2.393-2.393L15.948,2.25H8.051L4.643,3.711L2.25,6.104V18.25h3V9.5h0.5v9H5.5h0.25
	V21.75z"/>
<rect x="11.75" y="10.5" style="fill:#333333;" width="0.5" height="11.5"/>
<rect x="8" y="1.87" transform="matrix(0.6823 -0.7311 0.7311 0.6823 -2.4965 8.2551)" style="fill:#333333;" width="0.5" height="10.259"/>
<rect x="9.75" y="1.553" transform="matrix(0.9048 -0.4258 0.4258 0.9048 -1.7094 4.8529)" style="fill:#333333;" width="0.5" height="9.394"/>
<rect x="9.303" y="6" transform="matrix(0.4256 -0.9049 0.9049 0.4256 2.3859 16.2588)" style="fill:#333333;" width="9.394" height="0.5"/>
<rect x="10.621" y="6.75" transform="matrix(0.7306 -0.6828 0.6828 0.7306 -0.5368 12.6393)" style="fill:#333333;" width="10.259" height="0.5"/>
</svg>






