<?xml version="1.0" encoding="iso-8859-1"?>
<svg version="1.1" id="&#x56FE;&#x5C42;_1" xmlns="http://www.w3.org/2000/svg" xmlns:xlink="http://www.w3.org/1999/xlink" x="0px"
	 y="0px" viewBox="0 0 24 24" style="enable-background:new 0 0 24 24;" xml:space="preserve">
<path style="fill:#333333;" d="M13.961,18.75l-3.959-0.013c-0.128-0.041-3.16-1.041-5.179-3.061C2.773,13.627,2.75,9.667,2.75,9.5
	V5.25h18.5V9.5c0,0.167-0.023,4.127-2.073,6.177c-2.02,2.02-5.051,3.02-5.179,3.061L13.961,18.75z M10.12,18.25h3.76
	c0.35-0.12,3.126-1.109,4.943-2.927c1.902-1.902,1.927-5.784,1.927-5.823V5.75H3.25V9.5c0,0.039,0.024,3.921,1.927,5.823
	C6.994,17.141,9.771,18.13,10.12,18.25z"/>
<path style="fill:#333333;" d="M10.329,18.504l-0.5-0.007c0-0.035,0.028-3.47-1.521-5.338C6.842,11.393,2.943,9.747,2.903,9.73
	L3.097,9.27c0.165,0.069,4.052,1.71,5.596,3.571C10.36,14.852,10.331,18.355,10.329,18.504z"/>
<path style="fill:#333333;" d="M13.671,18.504c-0.002-0.148-0.032-3.652,1.637-5.663c1.544-1.861,5.431-3.502,5.596-3.571
	l0.193,0.461c-0.039,0.017-3.938,1.664-5.404,3.429c-1.55,1.868-1.522,5.303-1.521,5.337L13.671,18.504z"/>
</svg>






