<?xml version="1.0" encoding="iso-8859-1"?>
<svg version="1.1" id="&#x56FE;&#x5C42;_1" xmlns="http://www.w3.org/2000/svg" xmlns:xlink="http://www.w3.org/1999/xlink" x="0px"
	 y="0px" viewBox="0 0 24 24" style="enable-background:new 0 0 24 24;" xml:space="preserve">
<path style="fill:#333333;" d="M21.276,22.25h-4.952L12,10.238L7.676,22.25H2.724l2.05-20.5h14.453L21.276,22.25z M16.676,21.75
	h4.048l-1.95-19.5H5.226l-1.95,19.5h4.048l4.44-12.334h0.471L16.676,21.75z"/>
<rect x="11.75" y="2" style="fill:#333333;" width="0.5" height="2.75"/>
<path style="fill:#333333;" d="M4.509,7.743L4.391,7.257c0.02-0.005,1.994-0.496,2.932-1.434C8.083,5.064,8.25,2.806,8.25,2h0.5
	c0,0.127-0.012,3.116-1.073,4.177C6.639,7.214,4.596,7.722,4.509,7.743z"/>
<path style="fill:#333333;" d="M19.49,7.743c-0.086-0.021-2.13-0.528-3.167-1.566C15.262,5.116,15.25,2.127,15.25,2h0.5
	c0,0.806,0.167,3.064,0.927,3.823c0.938,0.938,2.912,1.429,2.933,1.434L19.49,7.743z"/>
</svg>






