<?xml version="1.0" encoding="iso-8859-1"?>
<svg version="1.1" id="&#x56FE;&#x5C42;_1" xmlns="http://www.w3.org/2000/svg" xmlns:xlink="http://www.w3.org/1999/xlink" x="0px"
	 y="0px" viewBox="0 0 24 24" style="enable-background:new 0 0 24 24;" xml:space="preserve">
<path style="fill:#333333;" d="M21.281,19.25h-4.939L12,10.084L7.658,19.25H2.719l2.059-17.5h14.445l0.025,0.221L21.281,19.25z
	 M16.658,18.75h4.061l-1.941-16.5H5.222l-1.941,16.5h4.061l4.432-9.357h0.452L16.658,18.75z"/>
<path style="fill:#333333;" d="M20.75,22.25h-3.462l-0.583-3.5h4.045V22.25z M17.712,21.75h2.538v-2.5h-2.955L17.712,21.75z"/>
<path style="fill:#333333;" d="M6.712,22.25H3.25v-3.5h4.045L6.712,22.25z M3.75,21.75h2.538l0.417-2.5H3.75V21.75z"/>
<rect x="12.75" y="1.75" transform="matrix(0.8824 -0.4706 0.4706 0.8824 -0.2941 6.5735)" style="fill:#333333;" width="0.5" height="4.25"/>
<rect x="8.875" y="3.625" transform="matrix(0.4705 -0.8824 0.8824 0.4705 2.4053 11.7583)" style="fill:#333333;" width="4.25" height="0.5"/>
</svg>






