<?xml version="1.0" encoding="iso-8859-1"?>
<svg version="1.1" id="&#x56FE;&#x5C42;_1" xmlns="http://www.w3.org/2000/svg" xmlns:xlink="http://www.w3.org/1999/xlink" x="0px"
	 y="0px" viewBox="0 0 24 24" style="enable-background:new 0 0 24 24;" xml:space="preserve">
<path style="fill:#333333;" d="M18.75,22.25H5.25v-3.5h-3.5V8.5c0-1.539,1.017-3.381,2.59-4.692c1.526-1.272,4.475-2.02,4.6-2.051
	L15,1.75c0.186,0.039,3.134,0.786,4.66,2.058c1.573,1.311,2.59,3.153,2.59,4.692v10.25h-3.5V22.25z M5.75,21.75h12.5V8.5h0.5v9.75h3
	V8.5c0-1.397-0.946-3.088-2.41-4.308c-1.439-1.199-4.371-1.942-4.4-1.949L9,2.25c0.031,0-2.902,0.744-4.34,1.942
	C3.196,5.412,2.25,7.103,2.25,8.5v9.75h3V8.5h0.5v10H5.5h0.25V21.75z"/>
<path style="fill:#333333;" d="M12,5.25c-1.792,0-3.25-1.458-3.25-3.25h0.5c0,1.517,1.233,2.75,2.75,2.75S14.75,3.517,14.75,2h0.5
	C15.25,3.792,13.792,5.25,12,5.25z"/>
</svg>






