<?xml version="1.0" encoding="iso-8859-1"?>
<svg version="1.1" id="&#x56FE;&#x5C42;_1" xmlns="http://www.w3.org/2000/svg" xmlns:xlink="http://www.w3.org/1999/xlink" x="0px"
	 y="0px" viewBox="0 0 24 24" style="enable-background:new 0 0 24 24;" xml:space="preserve">
<path style="fill:#333333;" d="M18.75,22.25H5.25v-3.5h-3.5V4.835L9,1.75l6.099,0.02l7.151,3.065V18.75h-3.5V22.25z M5.75,21.75
	h12.5V10.5h0.5v7.75h3V5.165L14.948,2.25H9.051L2.25,5.165V18.25h3V10.5h0.5v8H5.5h0.25V21.75z"/>
<polygon style="fill:#333333;" points="12.25,22 11.75,22 11.75,9.051 8.77,2.099 9.23,1.901 12,8.365 14.771,1.901 15.229,2.099 
	12.25,9.051 "/>
<rect x="9.692" y="5.25" transform="matrix(0.3945 -0.9189 0.9189 0.3945 3.1202 15.7351)" style="fill:#333333;" width="7.616" height="0.5"/>
<rect x="10.25" y="1.692" transform="matrix(0.9191 -0.3939 0.3939 0.9191 -1.3176 4.5808)" style="fill:#333333;" width="0.5" height="7.616"/>
<polygon style="fill:#333333;" points="11.783,18.624 7.726,11.523 8.72,8.79 6.708,6.024 8.776,1.888 9.224,2.112 7.292,5.976 
	9.28,8.71 8.274,11.477 12.217,18.376 "/>
<polygon style="fill:#333333;" points="12.217,18.624 11.783,18.376 15.726,11.477 14.714,8.693 17.188,5.972 14.788,2.132 
	15.212,1.868 17.812,6.028 15.286,8.807 16.274,11.523 "/>
</svg>






