<?xml version="1.0" encoding="iso-8859-1"?>
<svg version="1.1" id="&#x56FE;&#x5C42;_1" xmlns="http://www.w3.org/2000/svg" xmlns:xlink="http://www.w3.org/1999/xlink" x="0px"
	 y="0px" viewBox="0 0 24 24" style="enable-background:new 0 0 24 24;" xml:space="preserve">
<path style="fill:#333333;" d="M22.25,21.25H1.75v-7h20.5V21.25z M2.25,20.75h19.5v-6H2.25V20.75z"/>
<path style="fill:#333333;" d="M17.75,19c0.69,0,1.25-0.56,1.25-1.25s-0.56-1.25-1.25-1.25s-1.25,0.56-1.25,1.25S17.06,19,17.75,19z
	"/>
<polygon style="fill:#333333;" points="2.245,14.552 1.755,14.448 4.316,2.25 19.713,2.25 19.755,2.449 22.245,14.449 
	21.755,14.551 19.307,2.75 4.722,2.75 "/>
<path style="fill:#333333;" d="M10.488,11.75h-0.64c-1.627,0-2.599-0.745-2.599-1.994c0-1.099,1.011-1.993,2.253-1.993v0.5
	c-0.967,0-1.753,0.67-1.753,1.493c0,1.3,1.315,1.494,2.099,1.494h0.64V11.75z"/>
<path style="fill:#333333;" d="M14.144,11.75h-0.65v-0.5h0.65c0.787,0,2.106-0.194,2.106-1.494c0-1.348-1.221-1.493-1.746-1.493
	v-0.5c1.386,0,2.246,0.764,2.246,1.993C16.75,11.005,15.775,11.75,14.144,11.75z"/>
<path style="fill:#333333;" d="M14.754,8.013h-0.5c0-1.375-0.885-2.263-2.254-2.263c-1.365,0-2.247,0.888-2.247,2.263h-0.5
	C9.253,6.36,10.357,5.25,12,5.25C13.647,5.25,14.754,6.36,14.754,8.013z"/>
<rect x="10" y="11.25" style="fill:#333333;" width="4" height="0.5"/>
</svg>






