<?xml version="1.0" encoding="iso-8859-1"?>
<svg version="1.1" id="&#x56FE;&#x5C42;_1" xmlns="http://www.w3.org/2000/svg" xmlns:xlink="http://www.w3.org/1999/xlink" x="0px"
	 y="0px" viewBox="0 0 24 24" style="enable-background:new 0 0 24 24;" xml:space="preserve">
<path style="fill:#333333;" d="M19.374,16.729l-0.203-0.457c1.566-0.696,2.579-2.272,2.579-4.015c0-2.414-1.927-4.378-4.296-4.378
	c-0.682,0-1.334,0.158-1.939,0.47l-0.276,0.143L15.159,8.19c-0.771-2.909-3.379-4.94-6.341-4.94c-3.622,0-6.568,3.002-6.568,6.692
	c0,2.126,0.958,4.078,2.629,5.356l-0.304,0.396C2.78,14.322,1.75,12.226,1.75,9.942c0-3.966,3.171-7.192,7.068-7.192
	c3.089,0,5.819,2.051,6.741,5.024c0.598-0.263,1.233-0.396,1.895-0.396c2.645,0,4.796,2.188,4.796,4.878
	C22.25,14.196,21.121,15.951,19.374,16.729z"/>
<path style="fill:#333333;" d="M13,21.25c-1.792,0-3.25-1.458-3.25-3.25s1.458-3.25,3.25-3.25c0.22,0,0.44,0.022,0.657,0.066
	l0.014,0.487c-0.729,0.189-1.239,0.851-1.239,1.605c0,0.915,0.744,1.659,1.659,1.659c0.755,0,1.416-0.51,1.605-1.239l0.487,0.014
	C16.228,17.56,16.25,17.78,16.25,18C16.25,19.792,14.792,21.25,13,21.25z M12.687,15.268C11.317,15.424,10.25,16.59,10.25,18
	c0,1.517,1.233,2.75,2.75,2.75c1.41,0,2.576-1.067,2.732-2.437c-0.4,0.468-0.994,0.755-1.642,0.755c-1.19,0-2.159-0.969-2.159-2.159
	C11.932,16.262,12.219,15.668,12.687,15.268z"/>
<path style="fill:#333333;" d="M6.702,12.298C6.088,11.685,5.75,10.868,5.75,10c0-1.792,1.458-3.25,3.25-3.25
	c0.868,0,1.685,0.338,2.298,0.952l-0.354,0.354C10.425,7.536,9.735,7.25,9,7.25c-1.516,0-2.75,1.234-2.75,2.75
	c0,0.735,0.286,1.425,0.806,1.944L6.702,12.298z"/>
</svg>






