<?xml version="1.0" encoding="iso-8859-1"?>
<svg version="1.1" id="&#x56FE;&#x5C42;_1" xmlns="http://www.w3.org/2000/svg" xmlns:xlink="http://www.w3.org/1999/xlink" x="0px"
	 y="0px" viewBox="0 0 24 24" style="enable-background:new 0 0 24 24;" xml:space="preserve">
<path style="fill:#333333;" d="M12.25,11h-0.5V8.75H12c1.24,0,2.25-1.009,2.25-2.25S13.24,4.25,12,4.25
	c-1.241,0-2.25,1.009-2.25,2.25h-0.5c0-1.517,1.233-2.75,2.75-2.75s2.75,1.233,2.75,2.75c0,1.432-1.101,2.612-2.5,2.739V11z"/>
<path style="fill:#333333;" d="M22.25,18.25H1.75V18c0-2.528,3.007-7.25,10.25-7.25S22.25,15.472,22.25,18V18.25z M2.26,17.75h19.48
	c-0.192-2.401-3.087-6.5-9.74-6.5C5.347,11.25,2.452,15.349,2.26,17.75z"/>
</svg>






