<?xml version="1.0" encoding="iso-8859-1"?>
<svg version="1.1" id="&#x56FE;&#x5C42;_1" xmlns="http://www.w3.org/2000/svg" xmlns:xlink="http://www.w3.org/1999/xlink" x="0px"
	 y="0px" viewBox="0 0 24 24" style="enable-background:new 0 0 24 24;" xml:space="preserve">
<g>
	<defs>
		<rect id="SVGID_1_" width="24" height="24"/>
	</defs>
	<clipPath id="SVGID_00000030482453392191090300000009514409043207666332_">
		<use xlink:href="#SVGID_1_"  style="overflow:visible;"/>
	</clipPath>
	<g style="clip-path:url(#SVGID_00000030482453392191090300000009514409043207666332_);">
		<polygon style="fill:#333333;" points="10.502,16.495 4.757,6.75 3,6.75 3,6.25 5.043,6.25 10.498,15.505 15.855,6.25 17.9,6.25 
			17.9,6.75 16.145,6.75 		"/>
		<path style="fill:#333333;" d="M15.717,13.794c-1.007,0-2.026-0.251-2.964-0.778l0.244-0.436c2.679,1.507,6.077,0.552,7.583-2.123
			c1.505-2.676,0.553-6.077-2.123-7.583c-2.674-1.503-6.077-0.552-7.582,2.124l-0.436-0.245c1.641-2.916,5.349-3.954,8.263-2.314
			c2.916,1.64,3.954,5.347,2.313,8.263C19.903,12.68,17.84,13.794,15.717,13.794z"/>
		<rect x="8" y="21.75" style="fill:#333333;" width="5" height="0.5"/>
		<rect x="10.25" y="16" style="fill:#333333;" width="0.5" height="6"/>
		<path style="fill:#333333;" d="M12.5,8.75c-0.819,0-1.485-0.399-2.128-0.786C9.759,7.597,9.181,7.25,8.5,7.25
			c-1.373,0-2.314,0.918-2.324,0.927L5.823,7.823C5.867,7.779,6.915,6.75,8.5,6.75c0.819,0,1.485,0.399,2.128,0.786
			C11.241,7.903,11.819,8.25,12.5,8.25c1.416,0,2.379-0.469,2.389-0.474l0.223,0.447C15.068,8.245,14.041,8.75,12.5,8.75z"/>
	</g>
</g>
</svg>






