<?xml version="1.0" encoding="iso-8859-1"?>
<svg version="1.1" id="&#x56FE;&#x5C42;_1" xmlns="http://www.w3.org/2000/svg" xmlns:xlink="http://www.w3.org/1999/xlink" x="0px"
	 y="0px" viewBox="0 0 24 24" style="enable-background:new 0 0 24 24;" xml:space="preserve">
<path style="fill:#333333;" d="M8.25,21.008c-0.001-0.047-0.143-4.713,0.504-8.056c0.649-3.349,2.009-6.039,2.023-6.066l0.445,0.228
	C11.209,7.14,9.88,9.771,9.246,13.048c-0.637,3.286-0.497,7.897-0.496,7.944L8.25,21.008z"/>
<path style="fill:#333333;" d="M17.858,12.155c-0.072,0-0.146-0.008-0.219-0.022c-0.362-0.076-0.624-0.17-0.802-0.288
	c-0.292-0.194-0.388-0.495-0.473-0.759c-0.068-0.213-0.127-0.398-0.273-0.495c-0.146-0.098-0.341-0.081-0.562-0.06
	c-0.276,0.025-0.59,0.053-0.883-0.142c-0.292-0.194-0.389-0.494-0.473-0.759c-0.068-0.213-0.128-0.397-0.273-0.495
	c-0.138-0.091-0.325-0.057-0.613,0.007c-0.268,0.06-0.572,0.128-0.872,0.021c-0.162-0.058-0.445-0.231-1.02-1.066
	c-0.218-0.316-0.262-0.704-0.118-1.037c0.138-0.318,0.42-0.532,0.775-0.586c1.125-0.17,2.82-0.136,4.53,1
	c1.899,1.261,2.219,2.865,2.24,3.708c0.008,0.291-0.113,0.563-0.332,0.746C18.315,12.077,18.092,12.155,17.858,12.155z
	 M15.784,10.016c0.193,0,0.394,0.032,0.584,0.158c0.293,0.194,0.389,0.495,0.474,0.759c0.068,0.213,0.127,0.398,0.273,0.495l0,0
	c0.084,0.056,0.261,0.139,0.627,0.215c0.155,0.033,0.314-0.003,0.43-0.098c0.102-0.085,0.156-0.209,0.152-0.349
	c-0.023-0.912-0.392-2.226-2.018-3.306c-1.577-1.047-3.142-1.078-4.177-0.921c-0.185,0.028-0.324,0.131-0.393,0.29
	c-0.075,0.174-0.048,0.381,0.071,0.555c0.522,0.76,0.737,0.865,0.775,0.879c0.164,0.058,0.374,0.011,0.596-0.038
	c0.318-0.071,0.676-0.148,0.999,0.065c0.291,0.194,0.388,0.494,0.472,0.758c0.068,0.214,0.128,0.398,0.274,0.495
	c0.145,0.098,0.34,0.08,0.562,0.06C15.582,10.024,15.682,10.016,15.784,10.016z"/>
<path style="fill:#333333;" d="M4.359,10.31c-0.081,0-0.166-0.005-0.256-0.015c-0.258-0.029-0.485-0.157-0.638-0.361
	C3.312,9.73,3.252,9.477,3.296,9.221c0.148-0.857,0.736-2.393,3.015-3.055c2.259-0.656,3.716-0.089,4.385,0.306
	c0.388,0.229,0.548,0.706,0.379,1.131c-0.239,0.604-0.583,0.997-0.996,1.135C9.577,8.902,9.114,8.792,8.742,8.702
	c-0.22-0.053-0.429-0.103-0.557-0.069c-0.132,0.035-0.227,0.181-0.336,0.35C7.711,9.196,7.54,9.459,7.222,9.545
	c-0.32,0.087-0.599-0.058-0.823-0.173C6.22,9.281,6.064,9.199,5.932,9.237C5.748,9.286,5.645,9.414,5.478,9.636
	c-0.11,0.146-0.234,0.311-0.413,0.462C4.899,10.239,4.663,10.31,4.359,10.31z M8.29,6.365c-0.528,0-1.141,0.078-1.839,0.281
	c-2.018,0.586-2.534,1.918-2.662,2.66C3.769,9.425,3.795,9.541,3.865,9.634c0.07,0.092,0.174,0.151,0.294,0.164
	c0.272,0.031,0.486,0.001,0.583-0.081c0.136-0.115,0.238-0.251,0.336-0.382c0.18-0.238,0.365-0.485,0.724-0.581
	C6.119,8.669,6.4,8.812,6.626,8.927c0.18,0.092,0.333,0.175,0.467,0.135c0.132-0.035,0.227-0.181,0.336-0.351
	C7.566,8.5,7.738,8.235,8.056,8.15c0.25-0.068,0.519-0.003,0.804,0.066c0.342,0.083,0.696,0.169,1.061,0.046
	c0.357-0.119,0.585-0.58,0.689-0.844c0.079-0.199,0.009-0.412-0.169-0.517C10.043,6.667,9.331,6.365,8.29,6.365z"/>
<path style="fill:#333333;" d="M10.75,7.391V7c0-1.136,1.339-3.705,2.657-4.232c1.38-0.552,3.562-0.188,4.31,1.107l0.137,0.237
	L10.75,7.391z M14.816,3.017c-0.438,0-0.865,0.072-1.224,0.215c-1.016,0.406-2.037,2.284-2.286,3.351l5.817-2.685
	C16.631,3.31,15.701,3.017,14.816,3.017z"/>
<path style="fill:#333333;" d="M11.083,7.357L4.676,3.043l0.103-0.198c0.61-1.172,3.351-1.275,5.305-0.581
	c0.717,0.254,1.234,0.764,1.495,1.473c0.407,1.106,0.126,2.542-0.362,3.387L11.083,7.357z M5.357,2.899l5.55,3.737
	c0.351-0.755,0.521-1.86,0.202-2.726c-0.211-0.573-0.613-0.969-1.193-1.175C8.066,2.078,5.988,2.284,5.357,2.899z"/>
<path style="fill:#333333;" d="M12,21.75c-3.757,0-7.75-0.788-7.75-2.25c0-0.354,0.228-0.68,0.676-0.972l0.272,0.42
	C4.994,19.081,4.75,19.284,4.75,19.5c0,0.73,2.758,1.75,7.25,1.75c4.492,0,7.25-1.02,7.25-1.75c0-0.87-2.146-1.75-6.25-1.75v-0.5
	c4.101,0,6.75,0.883,6.75,2.25C19.75,20.962,15.757,21.75,12,21.75z"/>
</svg>






