<?xml version="1.0" encoding="iso-8859-1"?>
<svg version="1.1" id="&#x56FE;&#x5C42;_1" xmlns="http://www.w3.org/2000/svg" xmlns:xlink="http://www.w3.org/1999/xlink" x="0px"
	 y="0px" viewBox="0 0 24 24" style="enable-background:new 0 0 24 24;" xml:space="preserve">
<path style="fill:#333333;" d="M8,22.25c-1.269,0-2.75-0.721-2.75-2.75V14c0-1.312-2.319-2.258-2.343-2.268v-0.464
	C2.931,11.258,5.25,10.312,5.25,9V4.5c0-2.03,1.481-2.75,2.75-2.75v0.5c-0.528,0-2.25,0.162-2.25,2.25V9
	c0,1.218-1.388,2.103-2.159,2.5C4.362,11.897,5.75,12.782,5.75,14v5.5c0,2.088,1.722,2.25,2.25,2.25V22.25z"/>
<path style="fill:#333333;" d="M16,22.25v-0.5c0.527,0,2.25-0.162,2.25-2.25V14c0-1.218,1.388-2.103,2.159-2.5
	c-0.771-0.397-2.159-1.282-2.159-2.5V4.5c0-2.088-1.723-2.25-2.25-2.25v-0.5c1.269,0,2.75,0.72,2.75,2.75V9
	c0,1.312,2.319,2.258,2.343,2.268v0.464c-0.023,0.01-2.343,0.956-2.343,2.268v5.5C18.75,21.529,17.269,22.25,16,22.25z"/>
</svg>






