<?xml version="1.0" encoding="iso-8859-1"?>
<svg version="1.1" id="&#x56FE;&#x5C42;_1" xmlns="http://www.w3.org/2000/svg" xmlns:xlink="http://www.w3.org/1999/xlink" x="0px"
	 y="0px" viewBox="0 0 24 24" style="enable-background:new 0 0 24 24;" xml:space="preserve">
<path style="fill:#333333;" d="M19.5,17.25h-15c-0.965,0-1.75-0.785-1.75-1.75v-11c0-0.965,0.785-1.75,1.75-1.75h6v0.5h-6
	c-0.689,0-1.25,0.561-1.25,1.25v11c0,0.689,0.561,1.25,1.25,1.25h15c0.689,0,1.25-0.561,1.25-1.25v-5h0.5v5
	C21.25,16.465,20.465,17.25,19.5,17.25z"/>
<rect x="11.75" y="17" style="fill:#333333;" width="0.5" height="4"/>
<polygon style="fill:#333333;" points="15.823,7.177 13.646,5 15.823,2.823 16.177,3.177 14.354,5 16.177,6.823 "/>
<polygon style="fill:#333333;" points="19.177,7.177 18.823,6.823 20.646,5 18.823,3.177 19.177,2.823 21.354,5 "/>
<rect x="7" y="20.75" style="fill:#333333;" width="10" height="0.5"/>
</svg>






