<?xml version="1.0" encoding="iso-8859-1"?>
<svg version="1.1" id="&#x56FE;&#x5C42;_1" xmlns="http://www.w3.org/2000/svg" xmlns:xlink="http://www.w3.org/1999/xlink" x="0px"
	 y="0px" viewBox="0 0 24 24" style="enable-background:new 0 0 24 24;" xml:space="preserve">
<path style="fill:#333333;" d="M18.5,21.25H4v-0.5h14.5c0.689,0,1.25-0.561,1.25-1.25v-15c0-0.689-0.561-1.25-1.25-1.25h-10v-0.5h10
	c0.965,0,1.75,0.785,1.75,1.75v15C20.25,20.465,19.465,21.25,18.5,21.25z"/>
<path style="fill:#333333;" d="M11,18.25c-2.895,0-5.25-2.355-5.25-5.25v-0.25h10.5V13C16.25,15.895,13.895,18.25,11,18.25z
	 M6.256,13.25c0.131,2.503,2.208,4.5,4.744,4.5s4.613-1.997,4.743-4.5H6.256z"/>
<rect x="7.75" y="9" style="fill:#333333;" width="0.5" height="1"/>
<rect x="10.75" y="9" style="fill:#333333;" width="0.5" height="1"/>
<rect x="13.75" y="9" style="fill:#333333;" width="0.5" height="1"/>
</svg>






