<?xml version="1.0" encoding="iso-8859-1"?>
<svg version="1.1" id="&#x56FE;&#x5C42;_1" xmlns="http://www.w3.org/2000/svg" xmlns:xlink="http://www.w3.org/1999/xlink" x="0px"
	 y="0px" viewBox="0 0 24 24" style="enable-background:new 0 0 24 24;" xml:space="preserve">
<path style="fill:#333333;" d="M16.146,22.25H7.854c-0.298,0-0.567-0.177-0.687-0.449L5.771,18.6L6.229,18.4l1.396,3.2
	c0.04,0.091,0.13,0.149,0.229,0.149h8.293c0.1,0,0.189-0.059,0.229-0.149l1.396-3.2l0.459,0.199l-1.396,3.2
	C16.715,22.073,16.445,22.25,16.146,22.25z"/>
<path style="fill:#333333;" d="M17.771,5.6l-1.396-3.2c-0.039-0.092-0.129-0.15-0.229-0.15H7.854c-0.099,0-0.189,0.059-0.229,0.15
	L6.229,5.6L5.771,5.4l1.396-3.2c0.119-0.273,0.389-0.45,0.687-0.45h8.293c0.299,0,0.568,0.177,0.688,0.451L18.229,5.4L17.771,5.6z"
	/>
<path style="fill:#333333;" d="M17,19.25H7c-0.689,0-1.25-0.561-1.25-1.25V6c0-0.689,0.561-1.25,1.25-1.25h10
	c0.689,0,1.25,0.561,1.25,1.25v12C18.25,18.689,17.689,19.25,17,19.25z M7,5.25C6.586,5.25,6.25,5.586,6.25,6v12
	c0,0.413,0.336,0.75,0.75,0.75h10c0.413,0,0.75-0.337,0.75-0.75V6c0-0.414-0.337-0.75-0.75-0.75H7z"/>
<path style="fill:#333333;" d="M6.539,11.497l-0.078-0.494l3.198-0.505c0.945-0.149,1.819-0.621,2.463-1.329
	c0.968-1.065,2.345-1.624,3.785-1.535l1.858,0.116L17.734,8.25l-1.858-0.116c-1.29-0.076-2.519,0.42-3.385,1.372
	c-0.719,0.792-1.697,1.32-2.754,1.487L6.539,11.497z"/>
<path style="fill:#333333;" d="M6.261,16.5L6.239,16l2.776-0.126c1.592-0.072,3.044-0.992,3.79-2.4
	c0.651-1.23,1.797-2.143,3.144-2.502l1.737-0.463l0.129,0.483l-1.737,0.463c-1.213,0.323-2.244,1.145-2.831,2.253
	c-0.827,1.563-2.439,2.585-4.208,2.666L6.261,16.5z"/>
<rect x="17.75" y="6" style="fill:#333333;" width="0.5" height="10"/>
<rect x="5.75" y="8" style="fill:#333333;" width="0.5" height="10"/>
</svg>






