<?xml version="1.0" encoding="iso-8859-1"?>
<svg version="1.1" id="&#x56FE;&#x5C42;_1" xmlns="http://www.w3.org/2000/svg" xmlns:xlink="http://www.w3.org/1999/xlink" x="0px"
	 y="0px" viewBox="0 0 24 24" style="enable-background:new 0 0 24 24;" xml:space="preserve">
<path style="fill:#333333;" d="M20.25,22.25H3.75V1.75h11.865l0.074,0.087l4.561,5.32V22.25z M4.25,21.75h15.5V7.342L15.385,2.25
	H4.25V21.75z"/>
<path style="fill:#333333;" d="M8.89,17.667l-0.368-0.268l0.71-3.5L6.6,11.484l0.141-0.433l3.548-0.407l1.483-3.249h0.455
	l1.483,3.249l3.548,0.407l0.141,0.433l-2.631,2.415l0.709,3.5l-0.368,0.268L12,15.91L8.89,17.667z M7.341,11.486l2.437,2.235
	l-0.657,3.24L12,15.336l2.879,1.626l-0.657-3.24l2.437-2.235l-3.285-0.376L12,8.102l-1.373,3.008L7.341,11.486z"/>
</svg>






