<?xml version="1.0" encoding="iso-8859-1"?>
<svg version="1.1" id="&#x56FE;&#x5C42;_1" xmlns="http://www.w3.org/2000/svg" xmlns:xlink="http://www.w3.org/1999/xlink" x="0px"
	 y="0px" viewBox="0 0 24 24" style="enable-background:new 0 0 24 24;" xml:space="preserve">
<path style="fill:#333333;" d="M11,20.25c-5.101,0-9.25-4.149-9.25-9.25S5.899,1.75,11,1.75s9.25,4.149,9.25,9.25h-0.5
	c0-4.825-3.925-8.75-8.75-8.75c-4.825,0-8.75,3.925-8.75,8.75c0,4.825,3.925,8.75,8.75,8.75V20.25z"/>
<path style="fill:#333333;" d="M18,21.269l-0.09-0.035c-1.135-0.439-3.16-2.255-3.16-4.311c0-1.198,0.853-2.173,1.9-2.173
	c0.511,0,0.996,0.235,1.35,0.644c0.354-0.408,0.839-0.644,1.35-0.644c1.048,0,1.9,0.975,1.9,2.173c0,2.056-2.025,3.871-3.16,4.311
	L18,21.269z M16.65,15.25c-0.772,0-1.4,0.75-1.4,1.673c0,1.749,1.741,3.362,2.75,3.807c1.009-0.444,2.75-2.058,2.75-3.807
	c0-0.923-0.628-1.673-1.4-1.673c-0.447,0-0.872,0.261-1.136,0.696L18,16.301l-0.214-0.354C17.522,15.511,17.098,15.25,16.65,15.25z"
	/>
<path style="fill:#333333;" d="M11,13.75c-1.517,0-2.75-1.233-2.75-2.75S9.483,8.25,11,8.25s2.75,1.233,2.75,2.75
	S12.517,13.75,11,13.75z M11,8.75c-1.241,0-2.25,1.009-2.25,2.25c0,1.24,1.009,2.25,2.25,2.25c1.24,0,2.25-1.01,2.25-2.25
	C13.25,9.759,12.24,8.75,11,8.75z"/>
</svg>






