<?xml version="1.0" encoding="iso-8859-1"?>
<svg version="1.1" id="&#x56FE;&#x5C42;_1" xmlns="http://www.w3.org/2000/svg" xmlns:xlink="http://www.w3.org/1999/xlink" x="0px"
	 y="0px" viewBox="0 0 24 24" style="enable-background:new 0 0 24 24;" xml:space="preserve">
<path style="fill:#333333;" d="M22,10.5c0-0.552-0.448-1-1-1s-1,0.448-1,1H22z M11.5,4c0.552,0,1-0.448,1-1s-0.448-1-1-1V4z
	 M19.5,20h-15v2h15V20z M4,19.5v-15H2v15H4z M20,10.5v9h2v-9H20z M4.5,4h7V2h-7V4z M4.5,20C4.224,20,4,19.776,4,19.5H2
	C2,20.881,3.119,22,4.5,22V20z M19.5,22c1.381,0,2.5-1.119,2.5-2.5h-2c0,0.276-0.224,0.5-0.5,0.5V22z M4,4.5C4,4.224,4.224,4,4.5,4
	V2C3.119,2,2,3.119,2,4.5H4z"/>
<path style="fill:#333333;" d="M15.837,18.189L9.51,12.767c-0.287-0.245-0.716-0.24-0.995,0.017l-5.347,4.901l-0.338-0.369
	l5.347-4.901c0.465-0.425,1.178-0.438,1.658-0.026l6.328,5.423L15.837,18.189z"/>
<path style="fill:#333333;" d="M20.85,15.7l-3.306-2.479c-0.296-0.224-0.717-0.193-0.98,0.069l-2.387,2.387l-0.354-0.354
	l2.387-2.387c0.437-0.438,1.138-0.487,1.635-0.116L21.15,15.3L20.85,15.7z"/>
<path style="fill:#333333;" d="M18,8.263l-0.077-0.025C16.784,7.87,14.75,6.341,14.75,4.602c0-1.021,0.853-1.852,1.9-1.852
	c0.51,0,0.995,0.201,1.35,0.549c0.354-0.348,0.84-0.549,1.35-0.549c1.048,0,1.9,0.831,1.9,1.852c0,1.739-2.034,3.268-3.173,3.636
	L18,8.263z M16.65,3.25c-0.772,0-1.4,0.606-1.4,1.352c0,1.417,1.771,2.777,2.75,3.134c0.979-0.356,2.75-1.717,2.75-3.134
	c0-0.746-0.628-1.352-1.4-1.352c-0.456,0-0.885,0.216-1.147,0.578L18,4.106l-0.202-0.279C17.535,3.466,17.106,3.25,16.65,3.25z"/>
</svg>






