<?xml version="1.0" encoding="iso-8859-1"?>
<svg version="1.1" id="&#x56FE;&#x5C42;_1" xmlns="http://www.w3.org/2000/svg" xmlns:xlink="http://www.w3.org/1999/xlink" x="0px"
	 y="0px" viewBox="0 0 24 24" style="enable-background:new 0 0 24 24;" xml:space="preserve">
<path style="fill:#333333;" d="M16,22.25c-1.539,0-3.02-0.565-4.167-1.591l0.333-0.373C13.223,21.23,14.584,21.75,16,21.75
	c3.171,0,5.75-2.579,5.75-5.75c0-2.625-1.773-4.916-4.312-5.569l0.125-0.484c2.76,0.71,4.688,3.2,4.688,6.053
	C22.25,19.446,19.446,22.25,16,22.25z"/>
<path style="fill:#333333;" d="M8,22.25c-3.446,0-6.25-2.804-6.25-6.25c0-2.854,1.928-5.343,4.688-6.053l0.125,0.484
	C4.023,11.084,2.25,13.375,2.25,16c0,3.171,2.58,5.75,5.75,5.75s5.75-2.579,5.75-5.75c0-0.728-0.134-1.436-0.396-2.104l0.465-0.184
	C14.104,14.44,14.25,15.21,14.25,16C14.25,19.446,11.446,22.25,8,22.25z"/>
<path style="fill:#333333;" d="M12,14.25c-3.446,0-6.25-2.804-6.25-6.25S8.554,1.75,12,1.75S18.25,4.554,18.25,8
	S15.446,14.25,12,14.25z M12,2.25C8.83,2.25,6.25,4.83,6.25,8s2.58,5.75,5.75,5.75c3.171,0,5.75-2.58,5.75-5.75S15.171,2.25,12,2.25
	z"/>
</svg>






