<?xml version="1.0" encoding="iso-8859-1"?>
<svg version="1.1" id="&#x56FE;&#x5C42;_1" xmlns="http://www.w3.org/2000/svg" xmlns:xlink="http://www.w3.org/1999/xlink" x="0px"
	 y="0px" viewBox="0 0 24 24" style="enable-background:new 0 0 24 24;" xml:space="preserve">
<path style="fill:none;" d="M5,22c1.657,0,3-1.343,3-3v-7.243V2H2v17C2,20.657,3.343,22,5,22z"/>
<path style="fill:#333333;" d="M22.25,22.25H5c-0.002,0-0.003,0-0.005,0h0c-0.002,0-0.006,0-0.005,0
	c-0.864-0.003-1.676-0.341-2.287-0.952l0.001-0.001C2.114,20.708,1.75,19.896,1.75,19V1.75h6.5v9.404l9.486-9.513l4.609,4.609
	l-9.5,9.5h9.404V22.25z M6.734,21.75H21.75v-5.5h-9.404l-5.048,5.048C7.125,21.471,6.936,21.622,6.734,21.75z M5,21.75
	c0.001,0,0.003,0,0.004,0l0,0c0.001,0,0.003,0,0.004,0c0,0,0,0,0,0C6.521,21.745,7.75,20.514,7.75,19v-7.243H8H7.75V2.25h-5.5V19
	c0,1.514,1.229,2.745,2.741,2.75c0,0,0,0,0,0c0.001,0,0.003,0,0.004,0l0,0C4.997,21.75,4.999,21.75,5,21.75z M8.25,11.861V19
	c0,0.247-0.028,0.487-0.08,0.719l3.896-3.896L12.242,16l-0.177-0.177l9.573-9.573l-3.891-3.891L17.69,2.421L8.25,11.861z"/>
<polygon style="fill:#333333;" points="7.298,21.298 6.945,20.944 21.639,6.25 17.742,2.354 8.177,11.934 7.823,11.581 
	17.742,1.646 22.346,6.25 "/>
<polygon style="fill:#333333;" points="22.25,22.25 6.25,22.25 6.25,21.75 21.75,21.75 21.75,16.25 12.242,16.25 12.242,15.75 
	22.25,15.75 "/>
<polygon style="fill:#333333;" points="22.25,22.25 6.25,22.25 6.25,21.75 21.75,21.75 21.75,16.25 12.242,16.25 12.242,15.75 
	22.25,15.75 "/>
<path style="fill:#333333;" d="M5,22.25c-1.792,0-3.25-1.458-3.25-3.25V1.75h6.5V19C8.25,20.792,6.792,22.25,5,22.25z M2.25,2.25V19
	c0,1.517,1.233,2.75,2.75,2.75S7.75,20.517,7.75,19V2.25H2.25z"/>
</svg>






