<?xml version="1.0" encoding="iso-8859-1"?>
<svg version="1.1" id="&#x56FE;&#x5C42;_1" xmlns="http://www.w3.org/2000/svg" xmlns:xlink="http://www.w3.org/1999/xlink" x="0px"
	 y="0px" viewBox="0 0 24 24" style="enable-background:new 0 0 24 24;" xml:space="preserve">
<path style="fill:#333333;" d="M14.183,21.35c-1.616,0-3.293-0.375-4.794-1.126c-3.932-1.966-5.641-5.876-7.014-9.017
	c-0.206-0.471-0.404-0.925-0.602-1.352C1.547,9.366,1.601,8.91,1.923,8.57C2.6,7.857,4.269,7.837,5.343,8.268
	C6.227,8.622,7.217,9.209,7.75,9.542V5.75c0-1.103,0.897-2,2-2c0.609,0,1.155,0.273,1.522,0.704
	c0.144-0.963,0.976-1.704,1.978-1.704c1.103,0,2,0.897,2,2v0.679c0.367-0.416,0.903-0.679,1.5-0.679c1.103,0,2,0.897,2,2v0.179
	c0.367-0.416,0.903-0.679,1.5-0.679c1.103,0,2,0.897,2,1.999V14.5c0,1.712-0.951,4.112-3.621,5.715
	C17.367,20.971,15.806,21.35,14.183,21.35z M3.765,8.479c-0.632,0-1.208,0.15-1.479,0.436c-0.179,0.189-0.198,0.428-0.059,0.73
	c0.199,0.43,0.398,0.887,0.605,1.361c1.341,3.068,3.009,6.885,6.779,8.77l0,0c2.863,1.43,6.382,1.436,8.759,0.009
	c2.491-1.494,3.379-3.71,3.379-5.285V8.249c0-0.827-0.673-1.499-1.5-1.499s-1.5,0.673-1.5,1.5h-0.5v-1.5c0-0.827-0.673-1.5-1.5-1.5
	s-1.5,0.673-1.5,1.5h-0.5v-2c0-0.827-0.673-1.5-1.5-1.5s-1.5,0.673-1.5,1.5v1h-0.5c0-0.827-0.673-1.5-1.5-1.5s-1.5,0.673-1.5,1.5V10
	l-0.389,0.208c-0.015-0.01-1.494-0.992-2.704-1.476C4.73,8.561,4.232,8.479,3.765,8.479z"/>
</svg>






