<?xml version="1.0" encoding="iso-8859-1"?>
<svg version="1.1" id="&#x56FE;&#x5C42;_1" xmlns="http://www.w3.org/2000/svg" xmlns:xlink="http://www.w3.org/1999/xlink" x="0px"
	 y="0px" viewBox="0 0 24 24" style="enable-background:new 0 0 24 24;" xml:space="preserve">
<path style="fill:#333333;" d="M7.705,7.705H4.727c-1.642,0-2.977-1.336-2.977-2.978S3.085,1.75,4.727,1.75s2.978,1.335,2.978,2.977
	V7.705z M4.727,2.25c-1.366,0-2.477,1.111-2.477,2.477c0,1.366,1.111,2.478,2.477,2.478h2.478V4.727
	C7.205,3.361,6.093,2.25,4.727,2.25z"/>
<path style="fill:#333333;" d="M4.727,22.25c-1.642,0-2.977-1.336-2.977-2.978s1.335-2.977,2.977-2.977h2.978v2.977
	C7.705,20.914,6.369,22.25,4.727,22.25z M4.727,16.796c-1.366,0-2.477,1.111-2.477,2.477c0,1.366,1.111,2.478,2.477,2.478
	c1.366,0,2.478-1.111,2.478-2.478v-2.477H4.727z"/>
<path style="fill:#333333;" d="M16.796,16.796H7.205V7.205h9.591V16.796z M7.705,16.296h8.591V7.705H7.705V16.296z"/>
<path style="fill:#333333;" d="M19.272,7.705h-2.978V4.727c0-1.642,1.336-2.977,2.978-2.977s2.978,1.335,2.978,2.977
	S20.914,7.705,19.272,7.705z M16.795,7.205h2.478c1.366,0,2.478-1.111,2.478-2.478c0-1.366-1.111-2.477-2.478-2.477
	s-2.478,1.111-2.478,2.477V7.205z"/>
<path style="fill:#333333;" d="M19.272,22.25c-1.642,0-2.978-1.336-2.978-2.978v-2.977h2.978c1.642,0,2.978,1.335,2.978,2.977
	S20.914,22.25,19.272,22.25z M16.795,16.796v2.477c0,1.366,1.111,2.478,2.478,2.478s2.478-1.111,2.478-2.478
	c0-1.365-1.111-2.477-2.478-2.477H16.795z"/>
</svg>






