<?xml version="1.0" encoding="iso-8859-1"?>
<svg version="1.1" id="&#x56FE;&#x5C42;_1" xmlns="http://www.w3.org/2000/svg" xmlns:xlink="http://www.w3.org/1999/xlink" x="0px"
	 y="0px" viewBox="0 0 24 24" style="enable-background:new 0 0 24 24;" xml:space="preserve">
<path style="fill:#333333;" d="M12,9.354L8.146,5.5L12,1.646L15.854,5.5L12,9.354z M8.854,5.5L12,8.646L15.146,5.5L12,2.354
	L8.854,5.5z"/>
<path style="fill:#333333;" d="M18.5,16.354L14.646,12.5L18.5,8.646l3.854,3.854L18.5,16.354z M15.354,12.5l3.146,3.146l3.146-3.146
	L18.5,9.354L15.354,12.5z"/>
<path style="fill:#333333;" d="M12,22.354L8.146,18.5L12,14.646l3.854,3.854L12,22.354z M8.854,18.5L12,21.646l3.146-3.146
	L12,15.354L8.854,18.5z"/>
<path style="fill:#333333;" d="M5.5,15.854L1.646,12L5.5,8.146L9.354,12L5.5,15.854z M2.354,12L5.5,15.146L8.646,12L5.5,8.854
	L2.354,12z"/>
</svg>






