<?xml version="1.0" encoding="iso-8859-1"?>
<svg version="1.1" id="&#x56FE;&#x5C42;_1" xmlns="http://www.w3.org/2000/svg" xmlns:xlink="http://www.w3.org/1999/xlink" x="0px"
	 y="0px" viewBox="0 0 24 24" style="enable-background:new 0 0 24 24;" xml:space="preserve">
<path style="fill:#333333;" d="M12,22.25c-4.825,0-8.75-3.925-8.75-8.75c0-4.825,3.925-8.75,8.75-8.75c4.825,0,8.75,3.925,8.75,8.75
	C20.75,18.325,16.825,22.25,12,22.25z M12,5.25c-4.549,0-8.25,3.701-8.25,8.25s3.701,8.25,8.25,8.25s8.25-3.701,8.25-8.25
	S16.549,5.25,12,5.25z"/>
<rect x="9.5" y="1.75" style="fill:#333333;" width="5" height="0.5"/>
<path style="fill:#333333;" d="M12.217,17.124h-0.434L9.712,13.5l2.071-3.624h0.434l2.071,3.624L12.217,17.124z M10.288,13.5
	L12,16.496l1.712-2.996L12,10.504L10.288,13.5z"/>
<rect x="3.5" y="13.25" style="fill:#333333;" width="2" height="0.5"/>
<rect x="18.5" y="13.25" style="fill:#333333;" width="2" height="0.5"/>
<rect x="11.75" y="5" style="fill:#333333;" width="0.5" height="2"/>
<rect x="11.75" y="20" style="fill:#333333;" width="0.5" height="2"/>
<path style="fill:#333333;" d="M12,22.25c-1.16,0-2.285-0.223-3.346-0.663l0.191-0.461c1.999,0.828,4.311,0.828,6.309,0l0.191,0.461
	C14.285,22.027,13.16,22.25,12,22.25z"/>
<path style="fill:#333333;" d="M3.913,16.846C3.473,15.784,3.25,14.658,3.25,13.5s0.223-2.284,0.663-3.346l0.462,0.191
	c-0.415,1-0.625,2.062-0.625,3.154s0.21,2.153,0.625,3.154L3.913,16.846z"/>
<path style="fill:#333333;" d="M20.087,16.846l-0.461-0.191c0.414-0.999,0.624-2.061,0.624-3.154s-0.21-2.155-0.624-3.154
	l0.461-0.191c0.44,1.061,0.663,2.186,0.663,3.346S20.527,15.785,20.087,16.846z"/>
<path style="fill:#333333;" d="M15.394,5.978c-2.14-0.967-4.65-0.967-6.787,0L8.401,5.522c2.269-1.024,4.93-1.024,7.198,0
	L15.394,5.978z"/>
</svg>






