<?xml version="1.0" encoding="iso-8859-1"?>
<svg version="1.1" id="&#x56FE;&#x5C42;_1" xmlns="http://www.w3.org/2000/svg" xmlns:xlink="http://www.w3.org/1999/xlink" x="0px"
	 y="0px" viewBox="0 0 24 24" style="enable-background:new 0 0 24 24;" xml:space="preserve">
<rect x="1.062" y="14.625" transform="matrix(0.3518 -0.9361 0.9361 0.3518 -8.3029 17.7601)" style="fill:#333333;" width="15.219" height="0.5"/>
<rect x="15.078" y="7.265" transform="matrix(0.9363 -0.3511 0.3511 0.9363 -4.247 6.3292)" style="fill:#333333;" width="0.501" height="15.219"/>
<path style="fill:#333333;" d="M12,8.25c-1.241,0-2.25-1.009-2.25-2.25S10.759,3.75,12,3.75c1.24,0,2.25,1.009,2.25,2.25
	S13.24,8.25,12,8.25z M12,4.25c-0.965,0-1.75,0.785-1.75,1.75S11.035,7.75,12,7.75S13.75,6.965,13.75,6S12.965,4.25,12,4.25z"/>
<path style="fill:#333333;" d="M12,18.75c-2.467,0-4.86-0.705-6.921-2.04l0.271-0.42c1.98,1.282,4.279,1.96,6.649,1.96
	c2.37,0,4.67-0.678,6.649-1.96l0.271,0.42C16.86,18.045,14.467,18.75,12,18.75z"/>
<rect x="11.75" y="2" style="fill:#333333;" width="0.5" height="2"/>
</svg>






