<?xml version="1.0" encoding="iso-8859-1"?>
<svg version="1.1" id="&#x56FE;&#x5C42;_1" xmlns="http://www.w3.org/2000/svg" xmlns:xlink="http://www.w3.org/1999/xlink" x="0px"
	 y="0px" viewBox="0 0 24 24" style="enable-background:new 0 0 24 24;" xml:space="preserve">
<path style="fill:none;" d="M19.914,10.893l-8.93,8.93c-1.707,1.707-4.516,1.666-6.273-0.091c-1.757-1.757-1.798-4.566-0.091-6.273
	l8.93-8.93"/>
<path style="fill:#333333;" d="M7.933,21.327c-0.023,0-0.047,0-0.07-0.001c-1.25-0.018-2.433-0.521-3.329-1.418
	c-0.896-0.896-1.4-2.078-1.418-3.328c-0.018-1.253,0.453-2.424,1.327-3.298l8.929-8.93l0.354,0.354l-8.929,8.93
	c-0.778,0.777-1.197,1.82-1.181,2.938c0.016,1.119,0.468,2.178,1.271,2.981s1.863,1.256,2.982,1.271
	c0.021,0.001,0.042,0.001,0.062,0.001c1.093,0,2.112-0.418,2.875-1.182l8.93-8.929l0.354,0.354l-8.93,8.929
	C10.304,20.857,9.16,21.327,7.933,21.327z"/>
<rect x="4.365" y="13.29" transform="matrix(0.9997 -0.0254 0.0254 0.9997 -0.3402 0.2811)" style="fill:#333333;" width="13.077" height="0.5"/>
<path style="fill:#333333;" d="M14.696,10.453c0.391-0.391,0.391-1.024,0-1.414c-0.391-0.391-1.024-0.391-1.414,0
	c-0.391,0.391-0.391,1.024,0,1.414C13.673,10.844,14.306,10.844,14.696,10.453z"/>
<path style="fill:#333333;" d="M11.868,11.868c0.391-0.391,0.391-1.024,0-1.414c-0.391-0.391-1.024-0.391-1.414,0
	c-0.391,0.391-0.391,1.024,0,1.414C10.844,12.258,11.477,12.258,11.868,11.868z"/>
<rect x="16.482" y="0.711" transform="matrix(0.7071 -0.7071 0.7071 0.7071 -0.5521 14.0894)" style="fill:#333333;" width="0.5" height="14"/>
</svg>






