<?xml version="1.0" encoding="iso-8859-1"?>
<svg version="1.1" id="&#x56FE;&#x5C42;_1" xmlns="http://www.w3.org/2000/svg" xmlns:xlink="http://www.w3.org/1999/xlink" x="0px"
	 y="0px" viewBox="0 0 24 24" style="enable-background:new 0 0 24 24;" xml:space="preserve">
<path style="fill:#333333;" d="M18.566,21.25H5.434c-0.407,0-0.78-0.19-1.023-0.523c-0.244-0.334-0.314-0.769-0.189-1.16
	C4.792,17.785,5.75,14.433,5.75,12c0-2.433-0.958-5.785-1.528-7.567l0,0C4.096,4.042,4.167,3.608,4.411,3.274
	C4.653,2.941,5.026,2.75,5.434,2.75h13.133c0.407,0,0.78,0.191,1.023,0.524c0.243,0.334,0.314,0.768,0.188,1.159
	C19.207,6.213,18.25,9.563,18.25,12s0.957,5.786,1.528,7.566c0.126,0.392,0.055,0.825-0.188,1.159
	C19.347,21.059,18.974,21.25,18.566,21.25z M5.434,3.25c-0.246,0-0.471,0.116-0.619,0.318C4.663,3.777,4.62,4.037,4.698,4.281l0,0
	C5.278,6.09,6.25,9.499,6.25,12c0,2.501-0.972,5.909-1.552,7.719c-0.079,0.244-0.036,0.504,0.117,0.713
	c0.147,0.202,0.373,0.318,0.619,0.318h13.133c0.246,0,0.472-0.116,0.619-0.318c0.152-0.209,0.194-0.469,0.116-0.713
	C18.723,17.911,17.75,14.504,17.75,12c0-2.505,0.973-5.912,1.552-7.719c0.078-0.244,0.036-0.503-0.116-0.712
	c-0.147-0.203-0.373-0.319-0.619-0.319H5.434z"/>
<path style="fill:#333333;" d="M2.2,16.65L1.8,16.35C2.5,15.416,2.75,13.49,2.75,12c0-1.491-0.25-3.416-0.95-4.35l0.4-0.3
	C3.174,8.649,3.25,11.238,3.25,12C3.25,12.763,3.174,15.351,2.2,16.65z"/>
<rect x="9" y="7.5" style="fill:#333333;" width="6" height="0.5"/>
<rect x="9" y="11.75" style="fill:#333333;" width="6" height="0.5"/>
<rect x="9" y="15.75" style="fill:#333333;" width="2" height="0.5"/>
<path style="fill:#333333;" d="M21.776,16.611c-0.69-1.381-1.026-2.89-1.026-4.611c0-0.762,0.076-3.351,1.05-4.65l0.4,0.3
	c-0.7,0.934-0.95,2.859-0.95,4.35c0,1.643,0.318,3.078,0.974,4.389L21.776,16.611z"/>
</svg>






