<?xml version="1.0" encoding="iso-8859-1"?>
<svg version="1.1" id="&#x56FE;&#x5C42;_1" xmlns="http://www.w3.org/2000/svg" xmlns:xlink="http://www.w3.org/1999/xlink" x="0px"
	 y="0px" viewBox="0 0 24 24" style="enable-background:new 0 0 24 24;" xml:space="preserve">
<path style="fill:#333333;" d="M5.252,19.248C3.316,17.312,2.25,14.738,2.25,12c0-2.738,1.066-5.312,3.002-7.248l0.354,0.354
	C3.764,6.947,2.75,9.396,2.75,12s1.014,5.053,2.855,6.895L5.252,19.248z"/>
<path style="fill:#333333;" d="M19.748,19.248l-0.354-0.354c1.842-1.842,2.855-4.29,2.855-6.895s-1.014-5.053-2.855-6.894
	l0.354-0.354C21.684,6.688,22.75,9.262,22.75,12C22.75,14.738,21.684,17.312,19.748,19.248z"/>
<path style="fill:#333333;" d="M17.626,17.127l-0.354-0.354c1.275-1.275,1.978-2.971,1.978-4.773c0-1.804-0.702-3.499-1.978-4.773
	l0.354-0.354c1.37,1.369,2.124,3.189,2.124,5.126C19.75,13.937,18.996,15.757,17.626,17.127z"/>
<path style="fill:#333333;" d="M7.374,17.127C6.004,15.757,5.25,13.936,5.25,12c0-1.937,0.754-3.757,2.124-5.126l0.354,0.354
	C6.452,8.502,5.75,10.197,5.75,12s0.702,3.497,1.977,4.773L7.374,17.127z"/>
<path style="fill:#333333;" d="M12.5,16.295l-0.133-0.083c-0.649-0.409-1.198-0.822-1.629-1.23l-0.121-0.112
	C9.919,14.217,8.75,13.125,8.75,11.8c0-1.13,0.969-2.05,2.159-2.05c0.611,0,1.185,0.244,1.591,0.664
	c0.406-0.42,0.98-0.664,1.591-0.664c1.19,0,2.159,0.919,2.159,2.05c0,1.326-1.17,2.418-1.869,3.07l-0.118,0.111
	c-0.432,0.408-0.98,0.821-1.63,1.23L12.5,16.295z M10.909,10.25c-0.915,0-1.659,0.695-1.659,1.55c0,1.107,1.07,2.106,1.708,2.704
	l0.122,0.114c0.379,0.357,0.856,0.723,1.419,1.086c0.563-0.363,1.041-0.729,1.419-1.086l0.121-0.113
	c0.64-0.597,1.71-1.597,1.71-2.705c0-0.854-0.744-1.55-1.659-1.55c-0.56,0-1.078,0.261-1.387,0.699l-0.204,0.29l-0.204-0.29
	C11.987,10.511,11.469,10.25,10.909,10.25z"/>
</svg>






