<?xml version="1.0" encoding="iso-8859-1"?>
<svg version="1.1" id="&#x56FE;&#x5C42;_1" xmlns="http://www.w3.org/2000/svg" xmlns:xlink="http://www.w3.org/1999/xlink" x="0px"
	 y="0px" viewBox="0 0 24 24" style="enable-background:new 0 0 24 24;" xml:space="preserve">
<path style="fill:#333333;" d="M12,22.75c-5.187,0-9.25-1.428-9.25-3.25s4.063-3.25,9.25-3.25c5.187,0,9.25,1.428,9.25,3.25
	S17.187,22.75,12,22.75z M12,16.75c-5.234,0-8.75,1.422-8.75,2.75s3.516,2.75,8.75,2.75c5.234,0,8.75-1.422,8.75-2.75
	S17.234,16.75,12,16.75z"/>
<rect x="3" y="19.25" style="fill:#333333;" width="18" height="0.5"/>
<polygon style="fill:#333333;" points="20.777,19.614 12,2.546 3.222,19.614 2.778,19.386 11.778,1.886 12.223,1.886 21.223,19.386 
	"/>
</svg>






