<?xml version="1.0" encoding="iso-8859-1"?>
<svg version="1.1" id="&#x56FE;&#x5C42;_1" xmlns="http://www.w3.org/2000/svg" xmlns:xlink="http://www.w3.org/1999/xlink" x="0px"
	 y="0px" viewBox="0 0 24 24" style="enable-background:new 0 0 24 24;" xml:space="preserve">
<path style="fill:#333333;" d="M12,22.354L8.896,19.25H4.75v-4.146L1.646,12L4.75,8.896V4.75h4.146L12,1.646l3.104,3.104h4.146
	v4.146L22.354,12l-3.104,3.104v4.146h-4.146L12,22.354z M5.25,18.75h3.854L12,21.646l2.896-2.896h3.854v-3.854L21.646,12
	L18.75,9.104V5.25h-3.854L12,2.354L9.104,5.25H5.25v3.854L2.354,12l2.896,2.896V18.75z"/>
<path style="fill:#333333;" d="M12,15.25c-1.792,0-3.25-1.458-3.25-3.25S10.208,8.75,12,8.75s3.25,1.458,3.25,3.25
	S13.792,15.25,12,15.25z M12,9.25c-1.517,0-2.75,1.233-2.75,2.75s1.233,2.75,2.75,2.75s2.75-1.233,2.75-2.75S13.517,9.25,12,9.25z"
	/>
</svg>






