<?xml version="1.0" encoding="iso-8859-1"?>
<svg version="1.1" id="&#x56FE;&#x5C42;_1" xmlns="http://www.w3.org/2000/svg" xmlns:xlink="http://www.w3.org/1999/xlink" x="0px"
	 y="0px" viewBox="0 0 24 24" style="enable-background:new 0 0 24 24;" xml:space="preserve">
<path style="fill:#333333;" d="M17.997,20.252H3.033v-0.5h14.964c0.153,0,3.753-0.043,3.753-3.76c0-2.954-2.359-3.742-3.753-3.742
	H6.091c-1.501,0-4.341-0.892-4.341-4.266c0-3.338,2.839-4.221,4.341-4.221h14.404v0.5H6.091c-0.157,0-3.841,0.042-3.841,3.721
	c0,2.979,2.512,3.766,3.841,3.766h11.906c1.471,0,4.253,0.887,4.253,4.242C22.25,19.361,19.468,20.252,17.997,20.252z"/>
<polygon style="fill:#333333;" points="3.847,22.178 1.681,20.032 3.844,17.821 4.202,18.171 2.386,20.026 4.199,21.822 "/>
<polygon style="fill:#333333;" points="19.197,6.158 18.846,5.803 20.658,4.007 18.843,2.152 19.2,1.802 21.363,4.013 "/>
</svg>






