<?xml version="1.0" encoding="iso-8859-1"?>
<svg version="1.1" id="&#x56FE;&#x5C42;_1" xmlns="http://www.w3.org/2000/svg" xmlns:xlink="http://www.w3.org/1999/xlink" x="0px"
	 y="0px" viewBox="0 0 24 24" style="enable-background:new 0 0 24 24;" xml:space="preserve">
<rect x="2.5" y="11.75" style="fill:#333333;" width="19" height="0.5"/>
<path style="fill:#333333;" d="M14,8.25h-4C9.311,8.25,8.75,7.689,8.75,7V3c0-0.689,0.561-1.25,1.25-1.25h4
	c0.689,0,1.25,0.561,1.25,1.25v4C15.25,7.689,14.689,8.25,14,8.25z M10,2.25C9.586,2.25,9.25,2.586,9.25,3v4
	c0,0.414,0.336,0.75,0.75,0.75h4c0.413,0,0.75-0.336,0.75-0.75V3c0-0.414-0.337-0.75-0.75-0.75H10z"/>
<path style="fill:#333333;" d="M8,22.25H4c-0.689,0-1.25-0.561-1.25-1.25v-4c0-0.689,0.561-1.25,1.25-1.25h4
	c0.689,0,1.25,0.561,1.25,1.25v4C9.25,21.689,8.689,22.25,8,22.25z M4,16.25c-0.414,0-0.75,0.337-0.75,0.75v4
	c0,0.413,0.336,0.75,0.75,0.75h4c0.414,0,0.75-0.337,0.75-0.75v-4c0-0.413-0.336-0.75-0.75-0.75H4z"/>
<path style="fill:#333333;" d="M20,22.25h-4c-0.689,0-1.25-0.561-1.25-1.25v-4c0-0.689,0.561-1.25,1.25-1.25h4
	c0.689,0,1.25,0.561,1.25,1.25v4C21.25,21.689,20.689,22.25,20,22.25z M16,16.25c-0.413,0-0.75,0.337-0.75,0.75v4
	c0,0.413,0.337,0.75,0.75,0.75h4c0.413,0,0.75-0.337,0.75-0.75v-4c0-0.413-0.337-0.75-0.75-0.75H16z"/>
<rect x="11.75" y="8" style="fill:#333333;" width="0.5" height="4"/>
<rect x="17.75" y="12" style="fill:#333333;" width="0.5" height="4"/>
<rect x="5.75" y="12" style="fill:#333333;" width="0.5" height="4"/>
</svg>






