<?xml version="1.0" encoding="iso-8859-1"?>
<svg version="1.1" id="&#x56FE;&#x5C42;_1" xmlns="http://www.w3.org/2000/svg" xmlns:xlink="http://www.w3.org/1999/xlink" x="0px"
	 y="0px" viewBox="0 0 24 24" style="enable-background:new 0 0 24 24;" xml:space="preserve">
<path style="fill:#333333;" d="M4,6.25C2.759,6.25,1.75,5.241,1.75,4S2.759,1.75,4,1.75S6.25,2.759,6.25,4S5.241,6.25,4,6.25z
	 M4,2.25C3.035,2.25,2.25,3.035,2.25,4S3.035,5.75,4,5.75S5.75,4.965,5.75,4S4.965,2.25,4,2.25z"/>
<path style="fill:#333333;" d="M5,21.25c-1.792,0-3.25-1.458-3.25-3.25S3.208,14.75,5,14.75S8.25,16.208,8.25,18
	S6.792,21.25,5,21.25z M5,15.25c-1.517,0-2.75,1.233-2.75,2.75S3.483,20.75,5,20.75S7.75,19.517,7.75,18S6.517,15.25,5,15.25z"/>
<path style="fill:#333333;" d="M19,22.25c-1.792,0-3.25-1.458-3.25-3.25s1.458-3.25,3.25-3.25s3.25,1.458,3.25,3.25
	S20.792,22.25,19,22.25z M19,16.25c-1.517,0-2.75,1.233-2.75,2.75s1.233,2.75,2.75,2.75s2.75-1.233,2.75-2.75S20.517,16.25,19,16.25
	z"/>
<path style="fill:#333333;" d="M11,14.25c-2.343,0-4.25-1.906-4.25-4.25c0-2.343,1.907-4.25,4.25-4.25c2.344,0,4.25,1.907,4.25,4.25
	C15.25,12.344,13.344,14.25,11,14.25z M11,6.25c-2.068,0-3.75,1.682-3.75,3.75c0,2.067,1.682,3.75,3.75,3.75
	c2.067,0,3.75-1.683,3.75-3.75C14.75,7.932,13.067,6.25,11,6.25z"/>
<path style="fill:#333333;" d="M17,6.25c-1.24,0-2.25-1.009-2.25-2.25S15.76,1.75,17,1.75S19.25,2.759,19.25,4S18.24,6.25,17,6.25z
	 M17,2.25c-0.965,0-1.75,0.785-1.75,1.75S16.035,5.75,17,5.75S18.75,4.965,18.75,4S17.965,2.25,17,2.25z"/>
<rect x="6.25" y="5.086" transform="matrix(0.7071 -0.7071 0.7071 0.7071 -2.6924 6.5)" style="fill:#333333;" width="0.5" height="2.828"/>
<rect x="13.793" y="6.25" transform="matrix(0.7071 -0.7071 0.7071 0.7071 -0.3492 12.1569)" style="fill:#333333;" width="1.414" height="0.5"/>
<rect x="15.25" y="12.474" transform="matrix(0.7809 -0.6247 0.6247 0.7809 -5.8958 12.9423)" style="fill:#333333;" width="0.5" height="4.802"/>
<rect x="6.586" y="14.25" transform="matrix(0.7071 -0.7071 0.7071 0.7071 -7.9099 9.9038)" style="fill:#333333;" width="2.828" height="0.5"/>
</svg>






