<?xml version="1.0" encoding="iso-8859-1"?>
<svg version="1.1" id="&#x56FE;&#x5C42;_1" xmlns="http://www.w3.org/2000/svg" xmlns:xlink="http://www.w3.org/1999/xlink" x="0px"
	 y="0px" viewBox="0 0 24 24" style="enable-background:new 0 0 24 24;" xml:space="preserve">
<path style="fill:#333333;" d="M21,21.25H3c-0.689,0-1.25-0.561-1.25-1.25V7c0-0.689,0.561-1.25,1.25-1.25h18
	c0.689,0,1.25,0.561,1.25,1.25v13C22.25,20.689,21.689,21.25,21,21.25z M3,6.25C2.586,6.25,2.25,6.586,2.25,7v13
	c0,0.413,0.336,0.75,0.75,0.75h18c0.413,0,0.75-0.337,0.75-0.75V7c0-0.414-0.337-0.75-0.75-0.75H3z"/>
<polygon style="fill:#333333;" points="12,12.354 9.323,9.677 9.677,9.323 12,11.646 14.323,9.323 14.677,9.677 "/>
<rect x="9" y="12.25" style="fill:#333333;" width="6" height="0.5"/>
<rect x="9" y="15.25" style="fill:#333333;" width="6" height="0.5"/>
<rect x="11.75" y="12.5" style="fill:#333333;" width="0.5" height="5"/>
<rect x="4" y="2.75" style="fill:#333333;" width="16" height="0.5"/>
</svg>






