<?xml version="1.0" encoding="iso-8859-1"?>
<svg version="1.1" id="&#x56FE;&#x5C42;_1" xmlns="http://www.w3.org/2000/svg" xmlns:xlink="http://www.w3.org/1999/xlink" x="0px"
	 y="0px" viewBox="0 0 24 24" style="enable-background:new 0 0 24 24;" xml:space="preserve">
<path style="fill:#333333;" d="M19,16.25H5c-0.689,0-1.25-0.561-1.25-1.25V7c0-0.689,0.561-1.25,1.25-1.25h14
	c0.689,0,1.25,0.561,1.25,1.25v8C20.25,15.689,19.689,16.25,19,16.25z M5,6.25C4.586,6.25,4.25,6.586,4.25,7v8
	c0,0.413,0.336,0.75,0.75,0.75h14c0.413,0,0.75-0.337,0.75-0.75V7c0-0.414-0.337-0.75-0.75-0.75H5z"/>
<rect x="7.75" y="6" style="fill:#333333;" width="0.5" height="10"/>
<rect x="15.75" y="6" style="fill:#333333;" width="0.5" height="10"/>
<rect x="14" y="5.75" style="fill:#333333;" width="4" height="0.5"/>
<rect x="6" y="5.75" style="fill:#333333;" width="4" height="0.5"/>
<rect x="6" y="15.75" style="fill:#333333;" width="4" height="0.5"/>
<rect x="14" y="15.75" style="fill:#333333;" width="4" height="0.5"/>
<rect x="2" y="18.75" style="fill:#333333;" width="20" height="0.5"/>
<rect x="8.75" y="19" style="fill:#333333;" width="0.5" height="1"/>
<rect x="5.75" y="19" style="fill:#333333;" width="0.5" height="1"/>
<rect x="2.75" y="19" style="fill:#333333;" width="0.5" height="1"/>
<rect x="11.75" y="19" style="fill:#333333;" width="0.5" height="1"/>
<rect x="14.75" y="19" style="fill:#333333;" width="0.5" height="1"/>
<rect x="17.75" y="19" style="fill:#333333;" width="0.5" height="1"/>
<rect x="20.75" y="19" style="fill:#333333;" width="0.5" height="1"/>
<polygon style="fill:#333333;" points="15.25,6 14.75,6 14.75,3.25 9.25,3.25 9.25,6 8.75,6 8.75,2.75 15.25,2.75 "/>
</svg>






