<?xml version="1.0" encoding="iso-8859-1"?>
<svg version="1.1" id="&#x56FE;&#x5C42;_1" xmlns="http://www.w3.org/2000/svg" xmlns:xlink="http://www.w3.org/1999/xlink" x="0px"
	 y="0px" viewBox="0 0 24 24" style="enable-background:new 0 0 24 24;" xml:space="preserve">
<path style="fill:#333333;" d="M18.5,22.25h-13c-0.689,0-1.25-0.561-1.25-1.25V3c0-0.689,0.561-1.25,1.25-1.25h13
	c0.689,0,1.25,0.561,1.25,1.25v18C19.75,21.689,19.189,22.25,18.5,22.25z M5.5,2.25C5.086,2.25,4.75,2.586,4.75,3v18
	c0,0.413,0.336,0.75,0.75,0.75h13c0.413,0,0.75-0.337,0.75-0.75V3c0-0.414-0.337-0.75-0.75-0.75H5.5z"/>
<path style="fill:#333333;" d="M12,18.75c-1.792,0-3.25-1.458-3.25-3.25s1.458-3.25,3.25-3.25s3.25,1.458,3.25,3.25
	S13.792,18.75,12,18.75z M12,12.75c-1.517,0-2.75,1.233-2.75,2.75s1.233,2.75,2.75,2.75s2.75-1.233,2.75-2.75S13.517,12.75,12,12.75
	z"/>
<rect x="9" y="5.75" style="fill:#333333;" width="1.5" height="0.5"/>
<rect x="9" y="8.75" style="fill:#333333;" width="1.5" height="0.5"/>
<rect x="13.5" y="8.75" style="fill:#333333;" width="1.5" height="0.5"/>
</svg>






