<?xml version="1.0" encoding="iso-8859-1"?>
<svg version="1.1" id="&#x56FE;&#x5C42;_1" xmlns="http://www.w3.org/2000/svg" xmlns:xlink="http://www.w3.org/1999/xlink" x="0px"
	 y="0px" viewBox="0 0 24 24" style="enable-background:new 0 0 24 24;" xml:space="preserve">
<path style="fill:#333333;" d="M19.25,22.25H4.75V10.474C4.75,7.317,8.002,4.75,12,4.75c3.998,0,7.25,2.567,7.25,5.724V22.25z
	 M5.25,21.75h13.5V10.474c0-2.88-3.028-5.224-6.75-5.224c-3.722,0-6.75,2.343-6.75,5.224V21.75z"/>
<path style="fill:#333333;" d="M19.25,11.272L4.75,11.27v-0.796C4.75,7.317,8.002,4.75,12,4.75c3.998,0,7.25,2.567,7.25,5.724
	V11.272z M5.25,10.77l13.5,0.002v-0.298c0-2.88-3.028-5.224-6.75-5.224c-3.722,0-6.75,2.343-6.75,5.224V10.77z"/>
<rect x="2" y="10.75" style="fill:#333333;" width="20" height="0.5"/>
<rect x="10.5" y="1.75" style="fill:#333333;" width="3" height="0.5"/>
</svg>






