<?xml version="1.0" encoding="iso-8859-1"?>
<svg version="1.1" id="&#x56FE;&#x5C42;_1" xmlns="http://www.w3.org/2000/svg" xmlns:xlink="http://www.w3.org/1999/xlink" x="0px"
	 y="0px" viewBox="0 0 24 24" style="enable-background:new 0 0 24 24;" xml:space="preserve">
<rect x="3" y="20.75" style="fill:#333333;" width="18" height="0.5"/>
<rect x="3" y="17.75" style="fill:#333333;" width="18" height="0.5"/>
<path style="fill:#333333;" d="M19.75,18.25H4.25V12.5c0-4.273,3.477-7.75,7.75-7.75s7.75,3.477,7.75,7.75V18.25z M4.75,17.75h14.5
	V12.5c0-3.998-3.252-7.25-7.25-7.25c-3.998,0-7.25,3.252-7.25,7.25V17.75z"/>
<rect x="8.25" y="12.5" style="fill:#333333;" width="0.5" height="2"/>
<path style="fill:#333333;" d="M14.25,5h-0.5V4c0-0.965-0.785-1.75-1.75-1.75S10.25,3.035,10.25,4v1h-0.5V4
	c0-1.241,1.009-2.25,2.25-2.25c1.24,0,2.25,1.009,2.25,2.25V5z"/>
</svg>






