<?xml version="1.0" encoding="iso-8859-1"?>
<svg version="1.1" id="&#x56FE;&#x5C42;_1" xmlns="http://www.w3.org/2000/svg" xmlns:xlink="http://www.w3.org/1999/xlink" x="0px"
	 y="0px" viewBox="0 0 24 24" style="enable-background:new 0 0 24 24;" xml:space="preserve">
<path style="fill:#333333;" d="M13.84,21.823c-1.479,0-2.985-0.366-4.452-1.1c-2.681-1.341-5.426-4.802-7.102-7.595
	c-0.853-1.421-0.322-2.77,0.583-3.476c0.849-0.664,2.245-0.892,3.308,0.17l1.573,1.573V3.75c0-1.103,0.897-2,2-2s2,0.897,2,2v3.429
	c0.367-0.416,0.903-0.679,1.5-0.679c0.932,0,1.716,0.64,1.938,1.503c0.367-0.458,0.931-0.753,1.562-0.753
	c0.597,0,1.133,0.263,1.5,0.679V6.75c0-1.103,0.897-2,2-2s2,0.897,2,2v8.308c0,1.13-0.281,2.072-0.837,2.8
	c-0.638,0.834-1.727,2.008-3.293,2.862C16.771,21.455,15.32,21.823,13.84,21.823z M4.466,9.586c-0.475,0-0.932,0.182-1.289,0.461
	c-0.731,0.571-1.157,1.665-0.462,2.824c1.64,2.732,4.312,6.113,6.897,7.405c2.786,1.394,5.721,1.394,8.268,0.004
	c1.49-0.812,2.527-1.931,3.136-2.727c0.487-0.639,0.734-1.479,0.734-2.496V6.75c0-0.827-0.673-1.5-1.5-1.5s-1.5,0.673-1.5,1.5v2.5
	h-0.5c0-0.827-0.673-1.5-1.5-1.5s-1.5,0.673-1.5,1.5h-0.5V8.5c0-0.827-0.673-1.5-1.5-1.5s-1.5,0.673-1.5,1.5h-0.5V3.75
	c0-0.827-0.673-1.5-1.5-1.5s-1.5,0.673-1.5,1.5V12l-0.427,0.177l-2-2C5.404,9.757,4.927,9.586,4.466,9.586z"/>
</svg>






