<?xml version="1.0" encoding="iso-8859-1"?>
<svg version="1.1" id="&#x56FE;&#x5C42;_1" xmlns="http://www.w3.org/2000/svg" xmlns:xlink="http://www.w3.org/1999/xlink" x="0px"
	 y="0px" viewBox="0 0 24 24" style="enable-background:new 0 0 24 24;" xml:space="preserve">
<polygon style="fill:#333333;" points="12.177,20.177 12,20 11.823,20.177 1.646,10 8,3.646 12.177,7.823 11.823,8.177 8,4.354 
	2.354,10 12,19.646 17.823,13.823 18.177,14.177 "/>
<path style="fill:#333333;" d="M18,14.354l-4-4l-2.961,2.961L8.097,11.55L16,3.646L22.354,10L18,14.354z M14,9.646l4,4L21.646,10
	L16,4.354L8.903,11.45l2.058,1.235L14,9.646z"/>
<rect x="13" y="16.189" transform="matrix(0.7071 -0.7071 0.7071 0.7071 -8.3168 14.4216)" style="fill:#333333;" width="0.5" height="2.121"/>
<rect x="15" y="14.189" transform="matrix(0.7071 -0.7071 0.7071 0.7071 -6.3168 15.25)" style="fill:#333333;" width="0.5" height="2.121"/>
</svg>






