<?xml version="1.0" encoding="iso-8859-1"?>
<svg version="1.1" id="&#x56FE;&#x5C42;_1" xmlns="http://www.w3.org/2000/svg" xmlns:xlink="http://www.w3.org/1999/xlink" x="0px"
	 y="0px" viewBox="0 0 24 24" style="enable-background:new 0 0 24 24;" xml:space="preserve">
<path style="fill:#333333;" d="M12,22.288l-7.25-4.143V9.855L12,5.712l7.25,4.143v8.291l-0.126,0.071L12,22.288z M5.25,17.854
	L12,21.712l6.75-3.857v-7.709L12,6.288l-6.75,3.857V17.854z"/>
<rect x="11.75" y="3" style="fill:#333333;" width="0.5" height="3"/>
<polygon style="fill:#333333;" points="12,14.288 4.876,10.217 5.124,9.783 12,13.712 18.876,9.783 19.124,10.217 "/>
<polygon style="fill:#333333;" points="21.889,19.724 18.889,18.224 19.111,17.776 22.111,19.276 "/>
<rect x="1.823" y="18.5" transform="matrix(0.8944 -0.4472 0.4472 0.8944 -8.0157 3.5447)" style="fill:#333333;" width="3.354" height="0.5"/>
<rect x="11.75" y="14" style="fill:#333333;" width="0.5" height="8"/>
<path style="fill:#333333;" d="M12,22.288l-3.624-2.071l0.248-0.434L12,21.712l3.376-1.929l0.248,0.434L12,22.288z M19.25,14h-0.5
	v-3.855l-3.374-1.928l0.248-0.435l3.626,2.072V14z M5.25,14h-0.5V9.855l3.626-2.072l0.248,0.435L5.25,10.145V14z"/>
</svg>






