<?xml version="1.0" encoding="iso-8859-1"?>
<svg version="1.1" id="&#x56FE;&#x5C42;_1" xmlns="http://www.w3.org/2000/svg" xmlns:xlink="http://www.w3.org/1999/xlink" x="0px"
	 y="0px" viewBox="0 0 24 24" style="enable-background:new 0 0 24 24;" xml:space="preserve">
<path style="fill:#333333;" d="M20.094,17.75h-2.336v-0.5h2.336c0.638,0,1.156-0.519,1.156-1.156V3.906
	c0-0.638-0.519-1.156-1.156-1.156H7.906c-0.638,0-1.156,0.519-1.156,1.156v2.31h-0.5v-2.31c0-0.913,0.743-1.656,1.656-1.656h12.188
	c0.913,0,1.656,0.743,1.656,1.656v12.188C21.75,17.007,21.007,17.75,20.094,17.75z"/>
<path style="fill:#333333;" d="M16.094,21.75H3.906c-0.913,0-1.656-0.743-1.656-1.656V7.906c0-0.913,0.743-1.656,1.656-1.656h12.188
	c0.913,0,1.656,0.743,1.656,1.656v12.188C17.75,21.007,17.007,21.75,16.094,21.75z M3.906,6.75c-0.638,0-1.156,0.519-1.156,1.156
	v12.188c0,0.638,0.519,1.156,1.156,1.156h12.188c0.638,0,1.156-0.519,1.156-1.156V7.906c0-0.638-0.519-1.156-1.156-1.156H3.906z"/>
</svg>






