<?xml version="1.0" encoding="iso-8859-1"?>
<svg version="1.1" id="&#x56FE;&#x5C42;_1" xmlns="http://www.w3.org/2000/svg" xmlns:xlink="http://www.w3.org/1999/xlink" x="0px"
	 y="0px" viewBox="0 0 24 24" style="enable-background:new 0 0 24 24;" xml:space="preserve">
<path style="fill:#333333;" d="M12,22.25C6.348,22.25,1.75,17.652,1.75,12C1.75,6.348,6.348,1.75,12,1.75
	c5.652,0,10.25,4.598,10.25,10.25C22.25,17.652,17.652,22.25,12,22.25z M12,2.25c-5.376,0-9.75,4.374-9.75,9.75
	s4.374,9.75,9.75,9.75s9.75-4.374,9.75-9.75S17.376,2.25,12,2.25z"/>
<path style="fill:none;" d="M12,8.5h-2V12h1.5H12c1.5,0,2-1,2-1.75S13.5,8.5,12,8.5z"/>
<path style="fill:#333333;" d="M13.797,15.646l-2.425-3.396H10.25v3.25h-0.5V12H10H9.75V8.25H12c1.555,0,2.25,1.004,2.25,2
	s-0.695,2-2.25,2h-0.014l2.217,3.104L13.797,15.646z M10.25,11.75h1.25V12v-0.25H12c1.292,0,1.75-0.808,1.75-1.5
	s-0.458-1.5-1.75-1.5h-1.75V11.75z"/>
</svg>






