<?xml version="1.0" encoding="iso-8859-1"?>
<svg version="1.1" id="&#x56FE;&#x5C42;_1" xmlns="http://www.w3.org/2000/svg" xmlns:xlink="http://www.w3.org/1999/xlink" x="0px"
	 y="0px" viewBox="0 0 24 24" style="enable-background:new 0 0 24 24;" xml:space="preserve">
<path style="fill:#333333;" d="M6.362,20.562c-0.552-0.364-1.069-0.782-1.538-1.241c-0.445-0.437-0.853-0.917-1.212-1.427
	l0.409-0.287c0.341,0.484,0.729,0.941,1.153,1.356c0.445,0.438,0.938,0.834,1.462,1.181L6.362,20.562z"/>
<path style="fill:#333333;" d="M12,22.25c-0.665,0-1.332-0.064-1.982-0.191l0.096-0.49c1.238,0.24,2.535,0.24,3.773,0l0.096,0.49
	C13.332,22.186,12.665,22.25,12,22.25z"/>
<path style="fill:#333333;" d="M22.019,14.174l-0.488-0.105c0.146-0.677,0.22-1.372,0.22-2.068c0-0.684-0.071-1.366-0.21-2.027
	l0.488-0.104c0.147,0.695,0.222,1.412,0.222,2.13C22.25,12.731,22.172,13.463,22.019,14.174z"/>
<path style="fill:#333333;" d="M19.979,6.394c-0.34-0.482-0.728-0.939-1.153-1.357c-0.449-0.439-0.941-0.837-1.463-1.181
	l0.275-0.417c0.548,0.361,1.065,0.779,1.537,1.241c0.447,0.439,0.855,0.919,1.212,1.426L19.979,6.394z"/>
<path style="fill:#333333;" d="M13.875,2.43c-1.227-0.239-2.523-0.239-3.75,0L10.03,1.939c1.29-0.251,2.652-0.251,3.941,0
	L13.875,2.43z"/>
<path style="fill:#333333;" d="M4.022,6.394L3.613,6.106C3.971,5.598,4.379,5.118,4.825,4.68c0.471-0.461,0.988-0.879,1.538-1.242
	l0.275,0.417C6.115,4.201,5.623,4.598,5.175,5.037C4.75,5.454,4.362,5.91,4.022,6.394z"/>
<path style="fill:#333333;" d="M17.705,20.459l-0.275-0.418c0.522-0.344,1.015-0.741,1.463-1.182
	c0.425-0.416,0.812-0.872,1.153-1.356l0.408,0.287c-0.357,0.51-0.766,0.989-1.212,1.427C18.771,19.679,18.254,20.097,17.705,20.459z
	"/>
<rect x="2" y="11.75" style="fill:#333333;" width="6" height="0.5"/>
<rect x="4.136" y="16.664" transform="matrix(0.7071 -0.7071 0.7071 0.7071 -9.8847 9.9644)" style="fill:#333333;" width="5.9" height="0.5"/>
<rect x="11.75" y="16" style="fill:#333333;" width="0.5" height="6"/>
<rect x="16.664" y="13.964" transform="matrix(0.7071 -0.7071 0.7071 0.7071 -7.006 16.9141)" style="fill:#333333;" width="0.5" height="5.9"/>
<rect x="16" y="11.75" style="fill:#333333;" width="6" height="0.5"/>
<rect x="13.964" y="6.836" transform="matrix(0.7071 -0.7071 0.7071 0.7071 -0.0563 14.0354)" style="fill:#333333;" width="5.9" height="0.5"/>
<rect x="11.75" y="2" style="fill:#333333;" width="0.5" height="6"/>
<rect x="6.836" y="4.136" transform="matrix(0.7071 -0.7071 0.7071 0.7071 -2.935 7.0857)" style="fill:#333333;" width="0.5" height="5.899"/>
<path style="fill:#333333;" d="M1.972,14.131C1.825,13.434,1.75,12.717,1.75,12c0-0.717,0.075-1.434,0.222-2.13l0.489,0.104
	C2.321,10.636,2.25,11.317,2.25,12s0.071,1.364,0.211,2.027L1.972,14.131z"/>
<path style="fill:#333333;" d="M12,16.25c-2.343,0-4.25-1.906-4.25-4.25c0-2.343,1.907-4.25,4.25-4.25c2.344,0,4.25,1.907,4.25,4.25
	C16.25,14.344,14.344,16.25,12,16.25z M12,8.25c-2.068,0-3.75,1.682-3.75,3.75c0,2.067,1.682,3.75,3.75,3.75
	c2.067,0,3.75-1.683,3.75-3.75C15.75,9.932,14.067,8.25,12,8.25z"/>
</svg>






