<?xml version="1.0" encoding="iso-8859-1"?>
<svg version="1.1" id="&#x56FE;&#x5C42;_1" xmlns="http://www.w3.org/2000/svg" xmlns:xlink="http://www.w3.org/1999/xlink" x="0px"
	 y="0px" viewBox="0 0 24 24" style="enable-background:new 0 0 24 24;" xml:space="preserve">
<g>
	<defs>
		<rect id="SVGID_1_" width="24" height="24"/>
	</defs>
	<clipPath id="SVGID_00000088097380749706414650000017935912040135771822_">
		<use xlink:href="#SVGID_1_"  style="overflow:visible;"/>
	</clipPath>
	<g style="clip-path:url(#SVGID_00000088097380749706414650000017935912040135771822_);">
		<path style="fill:#333333;" d="M11.597,16.816l-3.914-3.914L19.198,2.827c0.417-0.417,1.486-0.967,2.463,0.011
			c0.979,0.979,0.428,2.047,0,2.475L11.597,16.816z M8.415,12.926l3.158,3.158l9.723-11.112c0.101-0.103,0.864-0.927,0.012-1.78
			c-0.368-0.368-0.774-0.482-1.202-0.337c-0.333,0.111-0.563,0.335-0.565,0.337L8.415,12.926z"/>
		
			<rect x="12.396" y="9.854" transform="matrix(0.707 -0.7072 0.7072 0.707 -4.6777 12.4156)" style="fill:#333333;" width="0.5" height="4"/>
		<path style="fill:#333333;" d="M8.674,22.026c-0.848,0-2.687-0.215-4.336-1.864c-2.185-2.185-1.854-4.703-1.839-4.809l0.019-0.134
			l5.584-2.606l3.784,3.784L9.28,21.981L9.146,22C9.12,22.004,8.949,22.026,8.674,22.026z M2.983,15.555
			c-0.031,0.523-0.023,2.522,1.708,4.254c1.731,1.731,3.729,1.744,4.254,1.708l2.339-5.014l-3.288-3.288L2.983,15.555z"/>
		<polygon style="fill:#333333;" points="3.553,18.447 3.355,17.988 5.83,16.928 6.027,17.387 		"/>
		<polygon style="fill:#333333;" points="6.506,21.157 6.059,20.935 6.766,19.521 7.213,19.743 		"/>
		
			<rect x="8.999" y="10.189" transform="matrix(0.7525 -0.6586 0.6586 0.7525 -4.1828 9.7493)" style="fill:#333333;" width="3.759" height="0.5"/>
		
			<rect x="12.182" y="13.371" transform="matrix(0.6588 -0.7523 0.7523 0.6588 -5.4499 15.226)" style="fill:#333333;" width="3.758" height="0.501"/>
	</g>
</g>
</svg>






