<?xml version="1.0" encoding="iso-8859-1"?>
<svg version="1.1" id="&#x56FE;&#x5C42;_1" xmlns="http://www.w3.org/2000/svg" xmlns:xlink="http://www.w3.org/1999/xlink" x="0px"
	 y="0px" viewBox="0 0 24 24" style="enable-background:new 0 0 24 24;" xml:space="preserve">
<path style="fill:#333333;" d="M22.25,18.25H1.75V5.75h20.5V18.25z M12.25,17.75h9.5V6.25h-9.5V10h-0.5V6.25h-9.5v11.5h9.5V14h0.5
	V17.75z"/>
<path style="fill:#333333;" d="M12,14.25c-1.241,0-2.25-1.01-2.25-2.25c0-1.241,1.009-2.25,2.25-2.25c1.24,0,2.25,1.009,2.25,2.25
	C14.25,13.24,13.24,14.25,12,14.25z M12,10.25c-0.965,0-1.75,0.785-1.75,1.75s0.785,1.75,1.75,1.75s1.75-0.785,1.75-1.75
	S12.965,10.25,12,10.25z"/>
<path style="fill:#333333;" d="M3.5,14.25H1.75v-4.5H3.5c1.241,0,2.25,1.009,2.25,2.25C5.75,13.24,4.741,14.25,3.5,14.25z
	 M2.25,13.75H3.5c0.965,0,1.75-0.785,1.75-1.75s-0.785-1.75-1.75-1.75H2.25V13.75z"/>
<path style="fill:#333333;" d="M22.25,14.25H20.5c-1.24,0-2.25-1.01-2.25-2.25c0-1.241,1.01-2.25,2.25-2.25h1.75V14.25z M20.5,10.25
	c-0.965,0-1.75,0.785-1.75,1.75s0.785,1.75,1.75,1.75h1.25v-3.5H20.5z"/>
</svg>






