<?xml version="1.0" encoding="iso-8859-1"?>
<svg version="1.1" id="&#x56FE;&#x5C42;_1" xmlns="http://www.w3.org/2000/svg" xmlns:xlink="http://www.w3.org/1999/xlink" x="0px"
	 y="0px" viewBox="0 0 24 24" style="enable-background:new 0 0 24 24;" xml:space="preserve">
<path style="fill:#333333;" d="M19,20.25H5c-0.689,0-1.25-0.561-1.25-1.25V5c0-0.689,0.561-1.25,1.25-1.25h14
	c0.689,0,1.25,0.561,1.25,1.25v14C20.25,19.689,19.689,20.25,19,20.25z M5,4.25C4.586,4.25,4.25,4.586,4.25,5v14
	c0,0.413,0.336,0.75,0.75,0.75h14c0.413,0,0.75-0.337,0.75-0.75V5c0-0.414-0.337-0.75-0.75-0.75H5z"/>
<path style="fill:#333333;" d="M15.25,15.25h-6.5v-6.5h6.5V15.25z M9.25,14.75h5.5v-5.5h-5.5V14.75z"/>
<path style="fill:none;" d="M7.455,1v3V1z"/>
<rect x="7.205" y="1" style="fill:#333333;" width="0.5" height="3"/>
<path style="fill:none;" d="M7.455,20v3V20z"/>
<rect x="7.205" y="20" style="fill:#333333;" width="0.5" height="3"/>
<path style="fill:none;" d="M12,1v3V1z"/>
<rect x="11.75" y="1" style="fill:#333333;" width="0.5" height="3"/>
<path style="fill:none;" d="M12,20v3V20z"/>
<rect x="11.75" y="20" style="fill:#333333;" width="0.5" height="3"/>
<path style="fill:none;" d="M16.545,1v3V1z"/>
<rect x="16.295" y="1" style="fill:#333333;" width="0.5" height="3"/>
<path style="fill:none;" d="M16.545,20v3V20z"/>
<rect x="16.295" y="20" style="fill:#333333;" width="0.5" height="3"/>
<path style="fill:none;" d="M1,7.455h3H1z"/>
<rect x="1" y="7.205" style="fill:#333333;" width="3" height="0.5"/>
<path style="fill:none;" d="M20,7.455h3H20z"/>
<rect x="20" y="7.205" style="fill:#333333;" width="3" height="0.5"/>
<path style="fill:none;" d="M1,12h3H1z"/>
<rect x="1" y="11.75" style="fill:#333333;" width="3" height="0.5"/>
<path style="fill:none;" d="M20,12h3H20z"/>
<rect x="20" y="11.75" style="fill:#333333;" width="3" height="0.5"/>
<path style="fill:none;" d="M1,16.545h3H1z"/>
<rect x="1" y="16.295" style="fill:#333333;" width="3" height="0.5"/>
<path style="fill:none;" d="M20,16.545h3H20z"/>
<rect x="20" y="16.295" style="fill:#333333;" width="3" height="0.5"/>
</svg>






