<?xml version="1.0" encoding="iso-8859-1"?>
<svg version="1.1" id="&#x56FE;&#x5C42;_1" xmlns="http://www.w3.org/2000/svg" xmlns:xlink="http://www.w3.org/1999/xlink" x="0px"
	 y="0px" viewBox="0 0 24 24" style="enable-background:new 0 0 24 24;" xml:space="preserve">
<path style="fill:#333333;" d="M2.5,8.75H2.25V8.5c0-2.824,0.654-4.714,1.944-5.618c1.069-0.749,2.546-0.788,4.392-0.117
	l0.125,0.045l0.032,0.129C9.02,4.045,8.658,5.452,7.822,6.523C7.028,7.539,5.461,8.75,2.5,8.75z M6.225,2.79
	c-0.683,0-1.266,0.167-1.744,0.502C3.369,4.071,2.788,5.737,2.752,8.247c2.596-0.065,3.973-1.132,4.676-2.032
	c0.854-1.094,0.998-2.282,0.858-3.026C7.522,2.923,6.833,2.79,6.225,2.79z"/>
<path style="fill:#333333;" d="M21.75,8.75H21.5c-2.961,0-4.528-1.211-5.321-2.227c-0.836-1.071-1.197-2.478-0.921-3.583
	l0.032-0.129l0.125-0.045c1.845-0.671,3.322-0.631,4.391,0.117c1.29,0.904,1.944,2.794,1.944,5.618V8.75z M15.715,3.189
	c-0.141,0.745,0.004,1.933,0.858,3.026c0.702,0.899,2.079,1.966,4.675,2.032c-0.036-2.51-0.617-4.176-1.729-4.955
	C18.615,2.659,17.335,2.624,15.715,3.189z"/>
<path style="fill:#333333;" d="M15,21.25H9c-2.895,0-5.25-2.355-5.25-5.25S6.105,10.75,9,10.75h6c2.895,0,5.25,2.355,5.25,5.25
	S17.895,21.25,15,21.25z M9,11.25c-2.619,0-4.75,2.131-4.75,4.75S6.381,20.75,9,20.75h6c2.619,0,4.75-2.131,4.75-4.75
	s-2.131-4.75-4.75-4.75H9z"/>
<rect x="13.25" y="9" style="fill:#333333;" width="0.5" height="2"/>
<rect x="10.25" y="9" style="fill:#333333;" width="0.5" height="2"/>
<path style="fill:#333333;" d="M20.15,14.7l-0.301-0.4c1.832-1.374,1.93-4.172,1.413-5.721l0.475-0.158
	C22.301,10.111,22.181,13.177,20.15,14.7z"/>
<path style="fill:#333333;" d="M3.8,14.65c-1.449-1.934-2.096-4.553-1.537-6.229l0.475,0.158C2.299,9.894,2.661,12.298,4.2,14.35
	L3.8,14.65z"/>
<polygon style="fill:#333333;" points="22.385,21.25 15,21.25 15,20.75 21.615,20.75 19.771,16.602 20.229,16.398 "/>
<polygon style="fill:#333333;" points="9,21.25 1.615,21.25 3.771,16.398 4.229,16.602 2.385,20.75 9,20.75 "/>
</svg>






