<?xml version="1.0" encoding="iso-8859-1"?>
<svg version="1.1" id="&#x56FE;&#x5C42;_1" xmlns="http://www.w3.org/2000/svg" xmlns:xlink="http://www.w3.org/1999/xlink" x="0px"
	 y="0px" viewBox="0 0 24 24" style="enable-background:new 0 0 24 24;" xml:space="preserve">
<path style="fill:#333333;" d="M19.5,21.25h-15c-0.965,0-1.75-0.785-1.75-1.75v-15c0-0.965,0.785-1.75,1.75-1.75h15
	c0.965,0,1.75,0.785,1.75,1.75v15C21.25,20.465,20.465,21.25,19.5,21.25z M4.5,3.25c-0.689,0-1.25,0.561-1.25,1.25v15
	c0,0.689,0.561,1.25,1.25,1.25h15c0.689,0,1.25-0.561,1.25-1.25v-15c0-0.689-0.561-1.25-1.25-1.25H4.5z"/>
<path style="fill:#333333;" d="M14.807,18.379L12,16.883l-2.806,1.496L8.83,18.115l0.546-3.109l-2.288-2.237l0.139-0.426
	l3.158-0.458l1.39-2.837l0.449-0.001l1.409,2.838l3.141,0.458l0.139,0.426l-2.285,2.237l0.543,3.109L14.807,18.379z M12,16.316
	l2.59,1.38l-0.5-2.864l2.111-2.067l-2.9-0.423l-1.3-2.619l-1.283,2.619L7.8,12.765l2.115,2.067l-0.503,2.864L12,16.316z"/>
<rect x="9.158" y="6.066" style="fill:#333333;" width="5.684" height="0.5"/>
</svg>






