<?xml version="1.0" encoding="iso-8859-1"?>
<svg version="1.1" id="&#x56FE;&#x5C42;_1" xmlns="http://www.w3.org/2000/svg" xmlns:xlink="http://www.w3.org/1999/xlink" x="0px"
	 y="0px" viewBox="0 0 24 24" style="enable-background:new 0 0 24 24;" xml:space="preserve">
<polygon style="fill:#333333;" points="19.25,7.5 18.75,7.5 18.75,3.75 5.25,3.75 5.25,7.5 4.75,7.5 4.75,3.25 19.25,3.25 "/>
<polygon style="fill:#333333;" points="21.5,20.75 2.25,20.75 2.25,7.25 21.75,7.25 21.75,13.5 21.25,13.5 21.25,7.75 2.75,7.75 
	2.75,20.25 21.5,20.25 "/>
<polygon style="fill:#333333;" points="21.5,17.25 12,17.25 11.796,16.854 14.297,13.354 14.703,13.646 12.485,16.75 21.5,16.75 "/>
<rect x="11" y="10.25" style="fill:#333333;" width="2" height="0.5"/>
<rect x="6" y="10.25" style="fill:#333333;" width="2" height="0.5"/>
</svg>






