<?xml version="1.0" encoding="iso-8859-1"?>
<svg version="1.1" id="&#x56FE;&#x5C42;_1" xmlns="http://www.w3.org/2000/svg" xmlns:xlink="http://www.w3.org/1999/xlink" x="0px"
	 y="0px" viewBox="0 0 24 24" style="enable-background:new 0 0 24 24;" xml:space="preserve">
<g>
	<defs>
		<rect id="SVGID_1_" width="24" height="24"/>
	</defs>
	<clipPath id="SVGID_00000035502635770679950430000006300695863726738066_">
		<use xlink:href="#SVGID_1_"  style="overflow:visible;"/>
	</clipPath>
	<g style="clip-path:url(#SVGID_00000035502635770679950430000006300695863726738066_);">
		<path style="fill:#333333;" d="M6.309,21.512c-0.207,0-0.407-0.057-0.598-0.171c-0.716-0.431-1.263-1.269-1.72-2.638
			c-0.754-2.264-0.742-4.128-0.741-4.206l0.5,0.006c0,0.019-0.011,1.862,0.715,4.042c0.411,1.232,0.903,2.007,1.502,2.366
			c0.166,0.1,0.333,0.126,0.517,0.077c0.413-0.106,0.909-0.602,1.328-1.323c0.501-0.862,1.242-1.744,1.776-2.333l0.37,0.336
			c-0.518,0.57-1.235,1.424-1.714,2.248c-0.289,0.498-0.886,1.363-1.636,1.557C6.508,21.499,6.407,21.512,6.309,21.512z"/>
		<path style="fill:#333333;" d="M18.62,9.682l-0.342-0.364c0.769-0.723,1.469-1.262,2.082-1.604c1.04-0.58,1.032-0.966,0.936-1.206
			c-0.247-0.618-0.885-1.25-1.588-1.572C19.41,4.8,18.605,4.562,16.459,4.202l0.082-0.493c1.767,0.296,2.902,0.556,3.376,0.773
			c0.811,0.372,1.552,1.111,1.844,1.84c0.388,0.968-0.774,1.615-1.156,1.828C20.026,8.472,19.359,8.988,18.62,9.682z"/>
		<path style="fill:#333333;" d="M8.963,17.542c-0.225,0-0.453-0.044-0.672-0.137l-3.987-1.685c-0.865-0.366-1.279-1.34-0.941-2.217
			l0.226-0.584c0.457-1.186,1.306-2.204,2.391-2.867L6.24,10.48c-0.991,0.606-1.767,1.536-2.185,2.62L3.83,13.684
			C3.589,14.307,3.884,15,4.499,15.26l3.987,1.685c0.625,0.266,1.349-0.027,1.616-0.651c0.129-0.299,0.338-0.556,0.605-0.741
			l1.25-0.869l0.285,0.41l-1.25,0.869c-0.19,0.133-0.339,0.315-0.431,0.528C10.28,17.146,9.637,17.542,8.963,17.542z"/>
		<path style="fill:#333333;" d="M15.544,12.424l-0.367-0.34l1.15-1.245c0.184-0.198,0.401-0.352,0.647-0.458
			c0.68-0.291,1.018-1.064,0.77-1.759l-1.426-4.005c-0.195-0.549-0.771-0.862-1.339-0.734L14.37,4.021
			c-1.27,0.29-2.373,1.043-3.107,2.119L10.85,5.859c0.805-1.181,2.016-2.007,3.409-2.325l0.609-0.139
			c0.811-0.188,1.64,0.267,1.921,1.054l1.426,4.005c0.337,0.943-0.122,1.992-1.043,2.387c-0.182,0.078-0.343,0.191-0.478,0.337
			L15.544,12.424z"/>
		<path style="fill:#333333;" d="M11.888,15.033c-0.454,0-0.911-0.136-1.304-0.417L6.56,11.743c-0.923-0.66-1.176-1.931-0.576-2.896
			c0.792-1.272,1.884-2.361,3.158-3.148c0.953-0.588,2.178-0.356,2.85,0.54l2.966,3.955c0.369,0.493,0.519,1.1,0.421,1.708
			c-0.098,0.608-0.431,1.136-0.936,1.488l-0.119,0.084c-0.131,0.091-0.249,0.2-0.354,0.325l-0.341,0.416
			C13.188,14.751,12.542,15.033,11.888,15.033z M10.274,5.876c-0.297,0-0.598,0.081-0.87,0.249C8.197,6.871,7.161,7.903,6.409,9.111
			c-0.461,0.741-0.267,1.718,0.442,2.224l4.023,2.875c0.749,0.531,1.789,0.395,2.369-0.313l0.342-0.417
			c0.134-0.16,0.286-0.301,0.453-0.417l0.119-0.084c0.394-0.273,0.651-0.685,0.728-1.157c0.077-0.473-0.04-0.945-0.327-1.329
			l-2.966-3.955C11.268,6.106,10.776,5.876,10.274,5.876z"/>
	</g>
</g>
</svg>






