<?xml version="1.0" encoding="iso-8859-1"?>
<svg version="1.1" id="&#x56FE;&#x5C42;_1" xmlns="http://www.w3.org/2000/svg" xmlns:xlink="http://www.w3.org/1999/xlink" x="0px"
	 y="0px" viewBox="0 0 24 24" style="enable-background:new 0 0 24 24;" xml:space="preserve">
<path style="fill:#333333;" d="M17.909,15.25c-2.761,0-4.16-1.714-5.933-3.884l-0.341-0.417C9.947,8.882,8.613,7.25,6.091,7.25
	C4.496,7.25,2.25,8.414,2.25,11c0,2.587,2.246,3.75,3.841,3.75c1.717,0,2.564-0.829,3.461-1.706l0.35,0.357
	c-0.929,0.909-1.89,1.849-3.811,1.849c-1.802,0-4.341-1.318-4.341-4.25s2.539-4.25,4.341-4.25c2.76,0,4.159,1.713,5.932,3.882
	l0.341,0.417c1.688,2.067,3.022,3.7,5.546,3.7c1.595,0,3.841-1.163,3.841-3.75c0-2.586-2.246-3.75-3.841-3.75
	c-1.714,0-3.028,1.283-3.46,1.705l-0.352-0.356c0.47-0.459,1.894-1.849,3.812-1.849c1.803,0,4.341,1.318,4.341,4.25
	S19.712,15.25,17.909,15.25z"/>
</svg>






