<?xml version="1.0" encoding="iso-8859-1"?>
<svg version="1.1" id="&#x56FE;&#x5C42;_1" xmlns="http://www.w3.org/2000/svg" xmlns:xlink="http://www.w3.org/1999/xlink" x="0px"
	 y="0px" viewBox="0 0 24 24" style="enable-background:new 0 0 24 24;" xml:space="preserve">
<path style="fill:#333333;" d="M14,21.75h-4c-0.689,0-1.25-0.561-1.25-1.25v-5.25H3.5c-0.689,0-1.25-0.561-1.25-1.25v-4
	c0-0.689,0.561-1.25,1.25-1.25h5.25V3.5c0-0.689,0.561-1.25,1.25-1.25h4c0.689,0,1.25,0.561,1.25,1.25v5.25h5.25
	c0.689,0,1.25,0.561,1.25,1.25v4c0,0.689-0.561,1.25-1.25,1.25h-5.25v5.25C15.25,21.189,14.689,21.75,14,21.75z M3.5,9.25
	c-0.414,0-0.75,0.336-0.75,0.75v4c0,0.413,0.336,0.75,0.75,0.75h5.75v5.75c0,0.413,0.336,0.75,0.75,0.75h4
	c0.413,0,0.75-0.337,0.75-0.75v-5.75h5.75c0.413,0,0.75-0.337,0.75-0.75v-4c0-0.414-0.337-0.75-0.75-0.75h-5.75V3.5
	c0-0.414-0.337-0.75-0.75-0.75h-4c-0.414,0-0.75,0.336-0.75,0.75v5.75H3.5z"/>
</svg>






