<?xml version="1.0" encoding="iso-8859-1"?>
<svg version="1.1" id="&#x56FE;&#x5C42;_1" xmlns="http://www.w3.org/2000/svg" xmlns:xlink="http://www.w3.org/1999/xlink" x="0px"
	 y="0px" viewBox="0 0 24 24" style="enable-background:new 0 0 24 24;" xml:space="preserve">
<path style="fill:#333333;" d="M12,6.25c-1.241,0-2.25-1.009-2.25-2.25S10.759,1.75,12,1.75c1.24,0,2.25,1.009,2.25,2.25
	S13.24,6.25,12,6.25z M12,2.25c-0.965,0-1.75,0.785-1.75,1.75S11.035,5.75,12,5.75S13.75,4.965,13.75,4S12.965,2.25,12,2.25z"/>
<path style="fill:#333333;" d="M12,22.25c-1.241,0-2.25-1.01-2.25-2.25s1.009-2.25,2.25-2.25c1.24,0,2.25,1.01,2.25,2.25
	S13.24,22.25,12,22.25z M12,18.25c-0.965,0-1.75,0.785-1.75,1.75s0.785,1.75,1.75,1.75s1.75-0.785,1.75-1.75S12.965,18.25,12,18.25z
	"/>
<path style="fill:#333333;" d="M4,14.25c-1.241,0-2.25-1.01-2.25-2.25c0-1.241,1.009-2.25,2.25-2.25S6.25,10.759,6.25,12
	C6.25,13.24,5.241,14.25,4,14.25z M4,10.25c-0.965,0-1.75,0.785-1.75,1.75S3.035,13.75,4,13.75S5.75,12.965,5.75,12
	S4.965,10.25,4,10.25z"/>
<path style="fill:#333333;" d="M20,14.25c-1.24,0-2.25-1.01-2.25-2.25c0-1.241,1.01-2.25,2.25-2.25s2.25,1.009,2.25,2.25
	C22.25,13.24,21.24,14.25,20,14.25z M20,10.25c-0.965,0-1.75,0.785-1.75,1.75s0.785,1.75,1.75,1.75s1.75-0.785,1.75-1.75
	S20.965,10.25,20,10.25z"/>
<rect x="6" y="11.75" style="fill:#333333;" width="12" height="0.5"/>
<rect x="11.75" y="6" style="fill:#333333;" width="0.5" height="12"/>
<path style="fill:#333333;" d="M16.583,18.86l-0.315-0.385l2.208-2.208l0.385,0.315c-0.299,0.447-0.645,0.868-1.026,1.251
	C17.451,18.216,17.03,18.562,16.583,18.86z M7.416,18.86c-0.447-0.3-0.868-0.646-1.25-1.026c-0.38-0.38-0.726-0.801-1.027-1.251
	l0.384-0.315l2.208,2.208L7.416,18.86z M5.524,7.732L5.14,7.416c0.302-0.45,0.647-0.871,1.027-1.25
	c0.379-0.379,0.799-0.725,1.25-1.027l0.316,0.384L5.524,7.732z M18.444,7.694c-0.281-0.42-0.605-0.816-0.964-1.174
	c-0.357-0.357-0.753-0.682-1.175-0.965l0.277-0.415c0.45,0.301,0.871,0.646,1.251,1.027c0.381,0.382,0.727,0.802,1.026,1.25
	L18.444,7.694z"/>
</svg>






