<?xml version="1.0" encoding="iso-8859-1"?>
<svg version="1.1" id="&#x56FE;&#x5C42;_1" xmlns="http://www.w3.org/2000/svg" xmlns:xlink="http://www.w3.org/1999/xlink" x="0px"
	 y="0px" viewBox="0 0 24 24" style="enable-background:new 0 0 24 24;" xml:space="preserve">
<path style="fill:#333333;" d="M17.688,21.25H6.312L3.26,10.569l0.352-0.292l4.776,2.389l3.388-6.777h0.447l3.388,6.777l4.777-2.389
	l0.352,0.292L17.688,21.25z M6.688,20.75h10.623l2.792-9.772l-4.715,2.357L12,6.559l-3.388,6.776l-4.715-2.357L6.688,20.75z"/>
<path style="fill:#333333;" d="M3.5,10.75c-0.965,0-1.75-0.785-1.75-1.75S2.535,7.25,3.5,7.25S5.25,8.035,5.25,9
	S4.465,10.75,3.5,10.75z M3.5,7.75C2.811,7.75,2.25,8.311,2.25,9s0.561,1.25,1.25,1.25S4.75,9.689,4.75,9S4.189,7.75,3.5,7.75z"/>
<path style="fill:#333333;" d="M12,6.25c-0.965,0-1.75-0.785-1.75-1.75S11.035,2.75,12,2.75s1.75,0.785,1.75,1.75
	S12.965,6.25,12,6.25z M12,3.25c-0.689,0-1.25,0.561-1.25,1.25S11.311,5.75,12,5.75s1.25-0.561,1.25-1.25S12.689,3.25,12,3.25z"/>
<path style="fill:#333333;" d="M20.5,10.75c-0.965,0-1.75-0.785-1.75-1.75s0.785-1.75,1.75-1.75S22.25,8.035,22.25,9
	S21.465,10.75,20.5,10.75z M20.5,7.75c-0.689,0-1.25,0.561-1.25,1.25s0.561,1.25,1.25,1.25S21.75,9.689,21.75,9
	S21.189,7.75,20.5,7.75z"/>
</svg>






