<?xml version="1.0" encoding="iso-8859-1"?>
<svg version="1.1" id="&#x56FE;&#x5C42;_1" xmlns="http://www.w3.org/2000/svg" xmlns:xlink="http://www.w3.org/1999/xlink" x="0px"
	 y="0px" viewBox="0 0 24 24" style="enable-background:new 0 0 24 24;" xml:space="preserve">
<path style="fill:#333333;" d="M19.235,21.085l-0.471-0.17l1.695-4.662c0.131-0.359-0.027-0.758-0.368-0.928l-7.756-3.878
	c-0.211-0.104-0.461-0.104-0.671,0l-7.755,3.878c-0.341,0.17-0.5,0.568-0.37,0.927l1.695,4.663l-0.47,0.17L3.07,16.423
	c-0.218-0.597,0.047-1.262,0.616-1.545L11.441,11c0.351-0.175,0.769-0.175,1.118,0l7.756,3.878c0.568,0.283,0.833,0.948,0.616,1.546
	L19.235,21.085z"/>
<path style="fill:#333333;" d="M18.75,14.391l-6.436-2.97c-0.199-0.092-0.429-0.092-0.629,0l-6.436,2.97V8
	c0-0.689,0.561-1.25,1.25-1.25h11c0.689,0,1.25,0.561,1.25,1.25V14.391z M12,10.851c0.179,0,0.357,0.039,0.523,0.115l5.727,2.643V8
	c0-0.414-0.337-0.75-0.75-0.75h-11C6.086,7.25,5.75,7.586,5.75,8v5.609l5.726-2.643C11.643,10.89,11.821,10.851,12,10.851z"/>
<path style="fill:#333333;" d="M14.75,7h-0.5V3c0-0.414-0.337-0.75-0.75-0.75h-3c-0.414,0-0.75,0.336-0.75,0.75v4h-0.5V3
	c0-0.689,0.561-1.25,1.25-1.25h3c0.689,0,1.25,0.561,1.25,1.25V7z"/>
<rect x="11.75" y="16" style="fill:#333333;" width="0.5" height="4"/>
<path style="fill:#333333;" d="M22,22.25c-1.139,0-1.679-0.312-2.156-0.587c-0.383-0.222-0.715-0.413-1.344-0.413
	c-0.674,0-0.993,0.212-1.361,0.458c-0.381,0.254-0.812,0.542-1.639,0.542c-0.784,0-1.26-0.255-1.72-0.501
	C13.3,21.492,12.846,21.25,12,21.25c-0.846,0-1.3,0.242-1.78,0.499C9.76,21.995,9.284,22.25,8.5,22.25
	c-0.826,0-1.258-0.288-1.639-0.542C6.493,21.462,6.174,21.25,5.5,21.25c-0.629,0-0.96,0.191-1.344,0.413
	C3.679,21.938,3.139,22.25,2,22.25v-0.5c1.005,0,1.463-0.265,1.906-0.521C4.314,20.994,4.737,20.75,5.5,20.75
	c0.826,0,1.258,0.288,1.639,0.542C7.507,21.538,7.826,21.75,8.5,21.75c0.659,0,1.041-0.205,1.484-0.441
	c0.489-0.262,1.044-0.559,2.016-0.559c0.972,0,1.526,0.297,2.016,0.559c0.443,0.236,0.826,0.441,1.484,0.441
	c0.674,0,0.993-0.212,1.361-0.458c0.381-0.254,0.812-0.542,1.639-0.542c0.763,0,1.186,0.244,1.594,0.479
	c0.443,0.256,0.901,0.521,1.906,0.521V22.25z"/>
</svg>






