<?xml version="1.0" encoding="iso-8859-1"?>
<svg version="1.1" id="&#x56FE;&#x5C42;_1" xmlns="http://www.w3.org/2000/svg" xmlns:xlink="http://www.w3.org/1999/xlink" x="0px"
	 y="0px" viewBox="0 0 24 24" style="enable-background:new 0 0 24 24;" xml:space="preserve">
<path style="fill:#333333;" d="M12,22.25c-5.101,0-9.25-4.149-9.25-9.25S6.899,3.75,12,3.75s9.25,4.149,9.25,9.25
	S17.101,22.25,12,22.25z M12,4.25c-4.825,0-8.75,3.925-8.75,8.75c0,4.825,3.925,8.75,8.75,8.75c4.825,0,8.75-3.925,8.75-8.75
	C20.75,8.175,16.825,4.25,12,4.25z"/>
<path style="fill:#333333;" d="M11.757,4.061C11.667,3.701,10.895,2.25,9,2.25v-0.5c2.037,0,3.063,1.475,3.242,2.189L11.757,4.061z"
	/>
<path style="fill:#333333;" d="M12.249,4.021l-0.498-0.042c0.051-0.606,0.345-1.75,1.125-2.196l0.248,0.435
	C12.566,2.536,12.295,3.47,12.249,4.021z"/>
<path style="fill:#333333;" d="M15.276,17.612C15.238,17.536,14.308,15.75,12,15.75s-3.238,1.786-3.277,1.862l-0.447-0.224
	C8.32,17.301,9.375,15.25,12,15.25c2.624,0,3.68,2.051,3.724,2.139L15.276,17.612z"/>
<rect x="15.25" y="8.229" transform="matrix(0.1644 -0.9864 0.9864 0.1644 3.3345 23.4362)" style="fill:#333333;" width="0.5" height="3.041"/>
<rect x="6.979" y="9.5" transform="matrix(0.9864 -0.1641 0.1641 0.9864 -1.4846 1.5268)" style="fill:#333333;" width="3.041" height="0.5"/>
<rect x="7.25" y="10" style="fill:#333333;" width="0.5" height="2.5"/>
<rect x="16.25" y="10" style="fill:#333333;" width="0.5" height="2.5"/>
<rect x="1.75" y="12" style="fill:#333333;" width="0.5" height="2"/>
<rect x="21.75" y="12" style="fill:#333333;" width="0.5" height="2"/>
</svg>






