<?xml version="1.0" encoding="iso-8859-1"?>
<svg version="1.1" id="&#x56FE;&#x5C42;_1" xmlns="http://www.w3.org/2000/svg" xmlns:xlink="http://www.w3.org/1999/xlink" x="0px"
	 y="0px" viewBox="0 0 24 24" style="enable-background:new 0 0 24 24;" xml:space="preserve">
<path style="fill:#333333;" d="M12,22.289l-8.91-5.145V6.855L12,1.711l8.91,5.144v10.289L12,22.289z M3.59,16.855L12,21.711
	l8.41-4.855V7.145L12,2.289L3.59,7.145V16.855z"/>
<polygon style="fill:#333333;" points="17.071,15.217 12,12.289 6.929,15.217 6.679,14.783 11.75,11.855 11.75,5.5 12.25,5.5 
	12.25,11.855 17.321,14.783 "/>
<polygon style="fill:#333333;" points="12,18.789 10.468,17.904 10.718,17.471 12,18.211 13.282,17.471 13.532,17.904 "/>
<polygon style="fill:#333333;" points="17.879,10.375 17.379,10.375 17.379,8.895 16.097,8.154 16.347,7.721 17.879,8.605 "/>
<polygon style="fill:#333333;" points="6.621,10.375 6.121,10.375 6.121,8.605 7.653,7.721 7.903,8.154 6.621,8.895 "/>
</svg>






