<?xml version="1.0" encoding="iso-8859-1"?>
<svg version="1.1" id="&#x56FE;&#x5C42;_1" xmlns="http://www.w3.org/2000/svg" xmlns:xlink="http://www.w3.org/1999/xlink" x="0px"
	 y="0px" viewBox="0 0 24 24" style="enable-background:new 0 0 24 24;" xml:space="preserve">
<path style="fill:#333333;" d="M12,22.29l-8.75-5.147V6.857L12,1.71l8.75,5.147v10.286L12,22.29z M3.75,16.857L12,21.71l8.25-4.853
	V7.143L12,2.29L3.75,7.143V16.857z"/>
<rect x="11.319" y="9.25" transform="matrix(0.8617 -0.5074 0.5074 0.8617 -2.5732 9.56)" style="fill:#333333;" width="9.862" height="0.5"/>
<rect x="7.5" y="4.569" transform="matrix(0.5071 -0.8619 0.8619 0.5071 -4.368 11.3628)" style="fill:#333333;" width="0.5" height="9.862"/>
<rect x="11.75" y="12" style="fill:#333333;" width="0.5" height="10"/>
<rect x="15.75" y="9.5" style="fill:#333333;" width="0.5" height="10"/>
<rect x="11.319" y="14.25" transform="matrix(0.8619 -0.507 0.507 0.8619 -5.1083 10.241)" style="fill:#333333;" width="9.861" height="0.501"/>
<rect x="7.5" y="9.569" transform="matrix(0.507 -0.8619 0.8619 0.507 -8.6776 13.8283)" style="fill:#333333;" width="0.501" height="9.861"/>
<rect x="7.75" y="9.5" style="fill:#333333;" width="0.5" height="10"/>
<rect x="7.283" y="6.75" transform="matrix(0.8482 -0.5296 0.5296 0.8482 -1.8861 7.4182)" style="fill:#333333;" width="9.434" height="0.5"/>
<rect x="11.75" y="2.283" transform="matrix(0.53 -0.848 0.848 0.53 -0.2962 13.4656)" style="fill:#333333;" width="0.5" height="9.434"/>
</svg>






