<?xml version="1.0" encoding="iso-8859-1"?>
<svg version="1.1" id="&#x56FE;&#x5C42;_1" xmlns="http://www.w3.org/2000/svg" xmlns:xlink="http://www.w3.org/1999/xlink" x="0px"
	 y="0px" viewBox="0 0 24 24" style="enable-background:new 0 0 24 24;" xml:space="preserve">
<rect x="8.993" y="17.5" transform="matrix(0.3323 -0.9432 0.9432 0.3323 -7.7275 24.5842)" style="fill:#333333;" width="9.014" height="0.499"/>
<rect x="10.25" y="13.243" transform="matrix(0.943 -0.3328 0.3328 0.943 -5.309 4.5065)" style="fill:#333333;" width="0.5" height="9.014"/>
<rect x="9" y="13.25" style="fill:#333333;" width="6" height="0.5"/>
<polygon style="fill:#333333;" points="20.366,17.211 14.866,13.711 15.134,13.289 20.634,16.789 "/>
<rect x="13.493" y="10" transform="matrix(0.6459 -0.7634 0.7634 0.6459 -1.5402 17.1792)" style="fill:#333333;" width="8.515" height="0.499"/>
<rect x="11.934" y="7.5" transform="matrix(0.9849 -0.1729 0.1729 0.9849 -1.0955 2.9272)" style="fill:#333333;" width="8.632" height="0.5"/>
<rect x="13.25" y="8.085" transform="matrix(0.8576 -0.5144 0.5144 0.8576 -3.7353 8.5114)" style="fill:#333333;" width="0.501" height="5.831"/>
<rect x="11.75" y="2" style="fill:#333333;" width="0.5" height="6.5"/>
<rect x="7.5" y="3.434" transform="matrix(0.1738 -0.9848 0.9848 0.1738 -1.229 14.0351)" style="fill:#333333;" width="0.5" height="8.631"/>
<rect x="7.585" y="10.75" transform="matrix(0.5154 -0.857 0.857 0.5154 -4.3379 14.3294)" style="fill:#333333;" width="5.831" height="0.5"/>
<rect x="6" y="5.993" transform="matrix(0.7634 -0.646 0.646 0.7634 -5.1422 6.4629)" style="fill:#333333;" width="0.5" height="8.515"/>
<rect x="2.99" y="15" transform="matrix(0.8436 -0.537 0.537 0.8436 -7.2117 5.7417)" style="fill:#333333;" width="6.519" height="0.5"/>
<path style="fill:#333333;" d="M12,22.289l-8.91-5.145V6.855L12,1.711l8.91,5.144v10.289L12,22.289z M3.59,16.855L12,21.711
	l8.41-4.855V7.145L12,2.289L3.59,7.145V16.855z"/>
</svg>






