<?xml version="1.0" encoding="iso-8859-1"?>
<svg version="1.1" id="&#x56FE;&#x5C42;_1" xmlns="http://www.w3.org/2000/svg" xmlns:xlink="http://www.w3.org/1999/xlink" x="0px"
	 y="0px" viewBox="0 0 24 24" style="enable-background:new 0 0 24 24;" xml:space="preserve">
<path style="fill:#333333;" d="M14.5,16.25c-6.743,0-7.75-2.35-7.75-3.75V4.75h15.5v7.75C22.25,13.9,21.243,16.25,14.5,16.25z
	 M7.25,5.25v7.25c0,1.214,0.942,3.25,7.25,3.25c6.309,0,7.25-2.036,7.25-3.25V5.25H7.25z"/>
<path style="fill:#333333;" d="M13,12.354l-1.75-1.75V7.75h3.5v2.854L13,12.354z M11.75,10.396l1.25,1.25l1.25-1.25V8.25h-2.5
	V10.396z"/>
<rect x="12.75" y="5" style="fill:#333333;" width="0.5" height="3"/>
<rect x="7.5" y="19.75" style="fill:#333333;" width="14" height="0.5"/>
<path style="fill:#333333;" d="M5.714,12.337c-1.128,0-2.603-0.21-2.952-1.258c-0.499-1.498-0.987-3.927-1.007-4.03L1.695,6.75H7
	v0.5H2.307c0.148,0.707,0.542,2.506,0.93,3.671c0.356,1.067,2.811,0.961,3.728,0.832l0.07,0.495
	C6.897,12.268,6.363,12.337,5.714,12.337z"/>
</svg>






