<?xml version="1.0" encoding="iso-8859-1"?>
<svg version="1.1" id="&#x56FE;&#x5C42;_1" xmlns="http://www.w3.org/2000/svg" xmlns:xlink="http://www.w3.org/1999/xlink" x="0px"
	 y="0px" viewBox="0 0 24 24" style="enable-background:new 0 0 24 24;" xml:space="preserve">
<path style="fill:#333333;" d="M18,21.75H6c-0.689,0-1.25-0.561-1.25-1.25v-8.75c-1.116-0.009-3-0.128-3-1.75
	c0-1.75,2.195-1.75,3.25-1.75h14c1.055,0,3.25,0,3.25,1.75c0,1.621-1.884,1.741-3,1.75v8.75C19.25,21.189,18.689,21.75,18,21.75z
	 M5,8.75c-1.428,0-2.75,0.151-2.75,1.25S3.572,11.25,5,11.25h0.25v9.25c0,0.413,0.336,0.75,0.75,0.75h12
	c0.413,0,0.75-0.337,0.75-0.75v-9.25H19c1.429,0,2.75-0.151,2.75-1.25S20.429,8.75,19,8.75H5z"/>
<path style="fill:#333333;" d="M20.75,8.5h-0.5c0-2.627-2.308-3.549-6.294-4.254L13.75,4.209V3c0-0.414-0.337-0.75-0.75-0.75h-2
	c-0.414,0-0.75,0.336-0.75,0.75v1.209l-0.207,0.037C6.058,4.951,3.75,5.873,3.75,8.5h-0.5c0-3.219,3.18-4.11,6.5-4.709V3
	c0-0.689,0.561-1.25,1.25-1.25h2c0.689,0,1.25,0.561,1.25,1.25v0.791C17.57,4.39,20.75,5.281,20.75,8.5z"/>
</svg>






