<?xml version="1.0" encoding="iso-8859-1"?>
<svg version="1.1" id="&#x56FE;&#x5C42;_1" xmlns="http://www.w3.org/2000/svg" xmlns:xlink="http://www.w3.org/1999/xlink" x="0px"
	 y="0px" viewBox="0 0 24 24" style="enable-background:new 0 0 24 24;" xml:space="preserve">
<path style="fill:#333333;" d="M19,21.25H5c-1.792,0-3.25-1.458-3.25-3.25v-4c0-1.792,1.458-3.25,3.25-3.25h14
	c1.792,0,3.25,1.458,3.25,3.25v4C22.25,19.792,20.792,21.25,19,21.25z M5,11.25c-1.517,0-2.75,1.233-2.75,2.75v4
	c0,1.517,1.233,2.75,2.75,2.75h14c1.517,0,2.75-1.233,2.75-2.75v-4c0-1.517-1.233-2.75-2.75-2.75H5z"/>
<rect x="2" y="15.75" style="fill:#333333;" width="20" height="0.5"/>
<path style="fill:#333333;" d="M11,11.25H5L4.771,10.9l3.24-7.4c0.192-0.455,0.642-0.75,1.144-0.75h8.595c1.103,0,2,0.897,2,2
	s-0.897,2-2,2h-6.5V11L11,11.25z M5.382,10.75h5.368V6.5L11,6.25h6.75c0.827,0,1.5-0.673,1.5-1.5s-0.673-1.5-1.5-1.5H9.155
	c-0.3,0-0.569,0.176-0.685,0.448L5.382,10.75z"/>
</svg>






