<?xml version="1.0" encoding="iso-8859-1"?>
<svg version="1.1" id="&#x56FE;&#x5C42;_1" xmlns="http://www.w3.org/2000/svg" xmlns:xlink="http://www.w3.org/1999/xlink" x="0px"
	 y="0px" viewBox="0 0 24 24" style="enable-background:new 0 0 24 24;" xml:space="preserve">
<polygon style="fill:#333333;" points="12,11.391 9.308,8.16 9.692,7.84 12,10.609 14.308,7.84 14.692,8.16 "/>
<path style="fill:#333333;" d="M21.25,12.26l-0.5-0.02c0.01-0.258,0.161-6.343-6.082-8.504c-6.229-2.158-9.81,3.172-9.958,3.4
	L4.291,6.863c0.039-0.059,3.929-5.887,10.542-3.6C21.431,5.548,21.252,12.192,21.25,12.26z"/>
<path style="fill:#333333;" d="M12.3,21.341c-0.802,0-1.672-0.105-2.612-0.349C2.829,19.214,2.75,12.072,2.75,12h0.5
	c0,0.278,0.084,6.828,6.562,8.508c6.477,1.679,9.35-3.411,9.468-3.628l0.439,0.24C19.692,17.169,17.35,21.341,12.3,21.341z"/>
<rect x="20.75" y="4" style="fill:#333333;" width="0.5" height="8"/>
<rect x="2.75" y="12" style="fill:#333333;" width="0.5" height="8"/>
<rect x="9" y="13.75" style="fill:#333333;" width="6" height="0.5"/>
<rect x="9" y="10.75" style="fill:#333333;" width="6" height="0.5"/>
<rect x="11.75" y="11" style="fill:#333333;" width="0.5" height="6"/>
</svg>






