<?xml version="1.0" encoding="utf-8"?>
<svg version="1.1" id="&#x56FE;&#x5C42;_1" xmlns="http://www.w3.org/2000/svg" xmlns:xlink="http://www.w3.org/1999/xlink" x="0px" y="0px"
	 viewBox="0 0 24 24" style="enable-background:new 0 0 24 24;" xml:space="preserve">
<style type="text/css">
	.st0{fill:#333333;}
</style>
<path class="st0" d="M5.5,21.2c-1.5,0-2.8-1.2-2.8-2.8s1.2-2.8,2.8-2.8s2.8,1.2,2.8,2.8S7,21.2,5.5,21.2z M5.5,16.2
	c-1.2,0-2.2,1-2.2,2.2s1,2.2,2.2,2.2s2.2-1,2.2-2.2S6.7,16.2,5.5,16.2z"/>
<path class="st0" d="M18.5,21.2c-1.5,0-2.8-1.2-2.8-2.8s1.2-2.8,2.8-2.8s2.8,1.2,2.8,2.8S20,21.2,18.5,21.2z M18.5,16.2
	c-1.2,0-2.2,1-2.2,2.2s1,2.2,2.2,2.2s2.2-1,2.2-2.2S19.7,16.2,18.5,16.2z"/>
<polygon class="st0" points="7.9,19.8 7.5,19.6 8.5,17.8 17,3.1 17.5,3.3 "/>
<polygon class="st0" points="16.1,19.8 15,17.9 6.5,3.2 7,3 16.5,19.6 "/>
</svg>





