<?xml version="1.0" encoding="iso-8859-1"?>
<svg version="1.1" id="&#x56FE;&#x5C42;_1" xmlns="http://www.w3.org/2000/svg" xmlns:xlink="http://www.w3.org/1999/xlink" x="0px"
	 y="0px" viewBox="0 0 24 24" style="enable-background:new 0 0 24 24;" xml:space="preserve">
<polygon style="fill:#333333;" points="3.75,20.5 3.25,20.5 3.25,17.25 6.5,17.25 6.5,17.75 3.75,17.75 "/>
<polygon style="fill:#333333;" points="20.5,20.75 17.25,20.75 17.25,17.5 17.75,17.5 17.75,20.25 20.5,20.25 "/>
<polygon style="fill:#333333;" points="20.75,6.75 17.5,6.75 17.5,6.25 20.25,6.25 20.25,3.5 20.75,3.5 "/>
<polygon style="fill:#333333;" points="6.75,6.5 6.25,6.5 6.25,3.75 3.5,3.75 3.5,3.25 6.75,3.25 "/>
<path style="fill:#333333;" d="M1.865,13.537C1.789,13.032,1.75,12.516,1.75,12c0-3.456,1.724-6.656,4.612-8.562l0.275,0.417
	C3.89,5.668,2.25,8.713,2.25,12c0,0.49,0.037,0.982,0.109,1.463L1.865,13.537z"/>
<path style="fill:#333333;" d="M12,22.25c-3.456,0-6.656-1.725-8.562-4.612l0.417-0.275C5.668,20.109,8.713,21.75,12,21.75
	c0.489,0,0.981-0.036,1.463-0.108l0.074,0.494C13.031,22.212,12.515,22.25,12,22.25z"/>
<path style="fill:#333333;" d="M17.638,20.562l-0.275-0.418c2.747-1.812,4.388-4.856,4.388-8.144c0-0.49-0.036-0.982-0.108-1.463
	l0.494-0.074c0.076,0.506,0.114,1.023,0.114,1.537C22.25,15.456,20.525,18.656,17.638,20.562z"/>
<path style="fill:#333333;" d="M20.144,6.638C18.332,3.89,15.287,2.25,12,2.25c-0.491,0-0.983,0.037-1.463,0.109l-0.074-0.494
	C10.967,1.789,11.484,1.75,12,1.75c3.456,0,6.656,1.724,8.562,4.612L20.144,6.638z"/>
</svg>






