<?xml version="1.0" encoding="iso-8859-1"?>
<svg version="1.1" id="&#x56FE;&#x5C42;_1" xmlns="http://www.w3.org/2000/svg" xmlns:xlink="http://www.w3.org/1999/xlink" x="0px"
	 y="0px" viewBox="0 0 24 24" style="enable-background:new 0 0 24 24;" xml:space="preserve">
<polygon style="fill:#333333;" points="12,9.854 9.823,7.677 10.177,7.323 12,9.146 13.823,7.323 14.177,7.677 "/>
<path style="fill:#333333;" d="M22.25,9.5h-0.5V4c0-0.965-0.785-1.75-1.75-1.75h-6c-0.965,0-1.75,0.785-1.75,1.75v5.5h-0.5V4
	c0-1.241,1.01-2.25,2.25-2.25h6c1.24,0,2.25,1.009,2.25,2.25V9.5z"/>
<polygon style="fill:#333333;" points="13.823,16.677 12,14.854 10.177,16.677 9.823,16.323 12,14.146 14.177,16.323 "/>
<path style="fill:#333333;" d="M10,22.25H4c-1.241,0-2.25-1.01-2.25-2.25v-5.5h0.5V20c0,0.965,0.785,1.75,1.75,1.75h6
	c0.965,0,1.75-0.785,1.75-1.75v-5.5h0.5V20C12.25,21.24,11.241,22.25,10,22.25z"/>
<polygon style="fill:#333333;" points="16.323,14.177 14.146,12 16.323,9.823 16.677,10.177 14.854,12 16.677,13.823 "/>
<path style="fill:#333333;" d="M20,22.25h-5.5v-0.5H20c0.965,0,1.75-0.785,1.75-1.75v-6c0-0.965-0.785-1.75-1.75-1.75h-5.5v-0.5H20
	c1.24,0,2.25,1.01,2.25,2.25v6C22.25,21.24,21.24,22.25,20,22.25z"/>
<polygon style="fill:#333333;" points="7.677,14.177 7.323,13.823 9.146,12 7.323,10.177 7.677,9.823 9.854,12 "/>
<path style="fill:#333333;" d="M9.5,12.25H4c-1.241,0-2.25-1.009-2.25-2.25V4c0-1.241,1.009-2.25,2.25-2.25h5.5v0.5H4
	C3.035,2.25,2.25,3.035,2.25,4v6c0,0.965,0.785,1.75,1.75,1.75h5.5V12.25z"/>
</svg>






