<?xml version="1.0" encoding="iso-8859-1"?>
<svg version="1.1" id="&#x56FE;&#x5C42;_1" xmlns="http://www.w3.org/2000/svg" xmlns:xlink="http://www.w3.org/1999/xlink" x="0px"
	 y="0px" viewBox="0 0 24 24" style="enable-background:new 0 0 24 24;" xml:space="preserve">
<path style="fill:#333333;" d="M3.25,10h-0.5c0-4.147,2.103-6.25,6.25-6.25v0.5C5.131,4.25,3.25,6.131,3.25,10z"/>
<path style="fill:#333333;" d="M14,21.25v-0.5c3.869,0,5.75-1.881,5.75-5.75h0.5C20.25,19.147,18.147,21.25,14,21.25z"/>
<path style="fill:#333333;" d="M21.25,11.25h-7.5V9c0-2.895,2.355-5.25,5.25-5.25h2.25V11.25z M14.25,10.75h6.5v-6.5H19
	c-2.619,0-4.75,2.131-4.75,4.75V10.75z"/>
<path style="fill:#333333;" d="M5,21.25H2.75v-7.5h7.5V16C10.25,18.895,7.895,21.25,5,21.25z M3.25,20.75H5
	c2.619,0,4.75-2.131,4.75-4.75v-1.75h-6.5V20.75z"/>
</svg>






