<?xml version="1.0" encoding="iso-8859-1"?>
<svg version="1.1" id="&#x56FE;&#x5C42;_1" xmlns="http://www.w3.org/2000/svg" xmlns:xlink="http://www.w3.org/1999/xlink" x="0px"
	 y="0px" viewBox="0 0 24 24" style="enable-background:new 0 0 24 24;" xml:space="preserve">
<path style="fill:#333333;" d="M12,8.25C6.961,8.25,1.75,7.034,1.75,5S6.961,1.75,12,1.75c5.038,0,10.25,1.216,10.25,3.25
	S17.038,8.25,12,8.25z M12,2.25C6.254,2.25,2.25,3.699,2.25,5S6.254,7.75,12,7.75c5.746,0,9.75-1.449,9.75-2.75S17.746,2.25,12,2.25
	z"/>
<path style="fill:#333333;" d="M12,22.25c-5.039,0-10.25-1.216-10.25-3.25S6.961,15.75,12,15.75c5.038,0,10.25,1.216,10.25,3.25
	S17.038,22.25,12,22.25z M12,16.25c-5.746,0-9.75,1.449-9.75,2.75s4.004,2.75,9.75,2.75c5.746,0,9.75-1.449,9.75-2.75
	S17.746,16.25,12,16.25z"/>
<rect x="21.75" y="5" style="fill:#333333;" width="0.5" height="14"/>
<rect x="1.75" y="5" style="fill:#333333;" width="0.5" height="14"/>
</svg>






