<?xml version="1.0" encoding="iso-8859-1"?>
<svg version="1.1" id="&#x56FE;&#x5C42;_1" xmlns="http://www.w3.org/2000/svg" xmlns:xlink="http://www.w3.org/1999/xlink" x="0px"
	 y="0px" viewBox="0 0 24 24" style="enable-background:new 0 0 24 24;" xml:space="preserve">
<path style="fill:#333333;" d="M9.327,20.25H3.5c-0.689,0-1.25-0.561-1.25-1.25V5c0-0.689,0.561-1.25,1.25-1.25H15l0.215,0.378
	l-1.419,2.365l1.069,1.604l-4.092,2.046l0.505,3.538l-3.472,0.992L9.327,20.25z M3.5,4.25C3.086,4.25,2.75,4.586,2.75,5v14
	c0,0.413,0.336,0.75,0.75,0.75h5.173l-1.479-5.423l3.528-1.008l-0.495-3.462l3.908-1.954l-0.931-1.396l1.354-2.257H3.5z"/>
<path style="fill:#333333;" d="M20.5,20.25h-8.688l-1.121-3.922l3.535-1.01l-0.497-3.972l4.412-1.96l-1.437-2.393l2.162-3.243H20.5
	c0.689,0,1.25,0.561,1.25,1.25v14C21.75,19.689,21.189,20.25,20.5,20.25z M12.188,19.75H20.5c0.413,0,0.75-0.337,0.75-0.75V5
	c0-0.414-0.337-0.75-0.75-0.75h-1.366l-1.838,2.757l1.563,2.607l-4.588,2.04l0.503,4.028l-3.465,0.99L12.188,19.75z"/>
<path style="fill:#333333;" d="M7.25,9.25c-0.551,0-1-0.449-1-1s0.449-1,1-1s1,0.449,1,1S7.801,9.25,7.25,9.25z M7.25,7.75
	c-0.276,0-0.5,0.224-0.5,0.5s0.224,0.5,0.5,0.5s0.5-0.224,0.5-0.5S7.526,7.75,7.25,7.75z"/>
</svg>






