<?xml version="1.0" encoding="iso-8859-1"?>
<svg version="1.1" id="&#x56FE;&#x5C42;_1" xmlns="http://www.w3.org/2000/svg" xmlns:xlink="http://www.w3.org/1999/xlink" x="0px"
	 y="0px" viewBox="0 0 24 24" style="enable-background:new 0 0 24 24;" xml:space="preserve">
<path style="fill:#333333;" d="M12.002,22.354L9.26,19.615H4.385V14.74l-2.739-2.742L4.385,9.26V4.385H9.26l2.742-2.739l2.738,2.739
	h4.875V9.26l2.738,2.739l-2.738,2.742v4.875H14.74L12.002,22.354z M4.885,19.115h4.582l2.535,2.531l2.531-2.531h4.582v-4.582
	l2.531-2.535l-2.531-2.532V4.885h-4.582l-2.531-2.532L9.467,4.885H4.885v4.582l-2.532,2.532l2.532,2.535V19.115z"/>
<path style="fill:#333333;" d="M12.038,16.079c-0.651,0-1.3-0.153-1.909-0.463C8.987,15.035,8.25,14.008,8.25,13v-0.25H8.5
	c2.851,0,4.75-0.723,4.75-4.25V8.25h0.25c0.994,0,1.97,0.947,2.429,2.357c0.466,1.432,0.373,3.392-1.281,4.595
	C13.848,15.783,12.941,16.079,12.038,16.079z M8.769,13.248c0.111,0.741,0.709,1.476,1.587,1.923
	c1.284,0.653,2.778,0.515,3.997-0.373c1.438-1.046,1.512-2.771,1.101-4.036c-0.345-1.058-1.021-1.831-1.707-1.984
	C13.634,12.572,11.217,13.208,8.769,13.248z"/>
</svg>






