<?xml version="1.0" encoding="iso-8859-1"?>
<svg version="1.1" id="&#x56FE;&#x5C42;_1" xmlns="http://www.w3.org/2000/svg" xmlns:xlink="http://www.w3.org/1999/xlink" x="0px"
	 y="0px" viewBox="0 0 24 24" style="enable-background:new 0 0 24 24;" xml:space="preserve">
<path style="fill:#333333;" d="M19.591,20.571H4.682l-0.073-0.079c-1.597-1.731-2.514-4.291-2.514-7.022
	c0-5.537,4.504-10.042,10.041-10.042S22.177,7.933,22.177,13.47c0,2.731-0.916,5.291-2.514,7.022L19.591,20.571z M4.897,20.081
	h14.478c1.471-1.641,2.312-4.043,2.312-6.611c0-5.267-4.284-9.551-9.551-9.551c-5.266,0-9.55,4.285-9.55,9.551
	C2.585,16.038,3.427,18.44,4.897,20.081z"/>
<path style="fill:#333333;" d="M12.136,17.144c-1.215,0-2.204-0.989-2.204-2.205c0-1.215,0.989-2.204,2.204-2.204
	c1.216,0,2.205,0.989,2.205,2.204C14.341,16.154,13.352,17.144,12.136,17.144z M12.136,13.225c-0.945,0-1.714,0.769-1.714,1.714
	s0.769,1.715,1.714,1.715s1.715-0.77,1.715-1.715S13.081,13.225,12.136,13.225z"/>
<rect x="11.891" y="10.041" style="fill:#333333;" width="0.49" height="2.938"/>
<rect x="11.891" y="6.123" style="fill:#333333;" width="0.49" height="0.979"/>
<rect x="4.789" y="13.714" style="fill:#333333;" width="0.979" height="0.49"/>
<rect x="6.85" y="8.918" transform="matrix(0.7074 -0.7069 0.7069 0.7074 -4.5735 7.768)" style="fill:#333333;" width="0.49" height="0.98"/>
<rect x="18.503" y="13.714" style="fill:#333333;" width="0.98" height="0.49"/>
<polygon style="fill:#333333;" points="17.207,9.927 16.861,9.581 17.554,8.888 17.899,9.234 "/>
</svg>






