<?xml version="1.0" encoding="iso-8859-1"?>
<svg version="1.1" id="&#x56FE;&#x5C42;_1" xmlns="http://www.w3.org/2000/svg" xmlns:xlink="http://www.w3.org/1999/xlink" x="0px"
	 y="0px" viewBox="0 0 24 24" style="enable-background:new 0 0 24 24;" xml:space="preserve">
<path style="fill:#333333;" d="M20.25,22.25H3.75V1.75h11.865l0.074,0.087l4.561,5.32V22.25z M4.25,21.75h15.5V7.342L15.385,2.25
	H4.25V21.75z"/>
<path style="fill:#333333;" d="M10.75,17.75h-3.5v-4h3.5V17.75z M7.75,17.25h2.5v-3h-2.5V17.25z"/>
<rect x="7" y="17.25" style="fill:#333333;" width="10" height="0.5"/>
<path style="fill:#333333;" d="M13.75,17.75h-3.5v-6.5h3.5V17.75z M10.75,17.25h2.5v-5.5h-2.5V17.25z"/>
<path style="fill:#333333;" d="M16.75,17.75h-3.5v-9h3.5V17.75z M13.75,17.25h2.5v-8h-2.5V17.25z"/>
</svg>






