<?xml version="1.0" encoding="iso-8859-1"?>
<svg version="1.1" id="&#x56FE;&#x5C42;_1" xmlns="http://www.w3.org/2000/svg" xmlns:xlink="http://www.w3.org/1999/xlink" x="0px"
	 y="0px" viewBox="0 0 24 24" style="enable-background:new 0 0 24 24;" xml:space="preserve">
<rect x="11.75" y="15" style="fill:#333333;" width="0.5" height="3"/>
<rect x="3" y="19.75" style="fill:#333333;" width="7" height="0.5"/>
<rect x="14" y="19.75" style="fill:#333333;" width="7" height="0.5"/>
<path style="fill:#333333;" d="M12,22.25c-1.241,0-2.25-1.01-2.25-2.25s1.009-2.25,2.25-2.25c1.24,0,2.25,1.01,2.25,2.25
	S13.24,22.25,12,22.25z M12,18.25c-0.965,0-1.75,0.785-1.75,1.75s0.785,1.75,1.75,1.75s1.75-0.785,1.75-1.75S12.965,18.25,12,18.25z
	"/>
<path style="fill:#333333;" d="M12,15.25c-3.757,0-7.75-0.964-7.75-2.75v-8h0.5v8c0,1.064,2.978,2.25,7.25,2.25
	s7.25-1.186,7.25-2.25v-8h0.5v8C19.75,14.286,15.757,15.25,12,15.25z"/>
<path style="fill:#333333;" d="M12,11.25c-3.757,0-7.75-0.964-7.75-2.75h0.5c0,1.064,2.978,2.25,7.25,2.25s7.25-1.186,7.25-2.25h0.5
	C19.75,10.286,15.757,11.25,12,11.25z"/>
<path style="fill:none;" d="M19.5,4.5C19.5,5.881,16.142,7,12,7S4.5,5.881,4.5,4.5C4.5,3.119,7.858,2,12,2S19.5,3.119,19.5,4.5z"/>
<path style="fill:none;" d="M19.5,4.5C19.5,5.881,16.142,7,12,7S4.5,5.881,4.5,4.5C4.5,3.119,7.858,2,12,2S19.5,3.119,19.5,4.5z"/>
<path style="fill:#333333;" d="M12,7.25c-3.757,0-7.75-0.964-7.75-2.75S8.243,1.75,12,1.75s7.75,0.964,7.75,2.75
	S15.757,7.25,12,7.25z M12,2.25c-4.272,0-7.25,1.186-7.25,2.25S7.728,6.75,12,6.75s7.25-1.186,7.25-2.25S16.272,2.25,12,2.25z"/>
<path style="fill:#333333;" d="M12,7.25c-3.757,0-7.75-0.964-7.75-2.75S8.243,1.75,12,1.75s7.75,0.964,7.75,2.75
	S15.757,7.25,12,7.25z M12,2.25c-4.272,0-7.25,1.186-7.25,2.25S7.728,6.75,12,6.75s7.25-1.186,7.25-2.25S16.272,2.25,12,2.25z"/>
</svg>






