<?xml version="1.0" encoding="iso-8859-1"?>
<svg version="1.1" id="&#x56FE;&#x5C42;_1" xmlns="http://www.w3.org/2000/svg" xmlns:xlink="http://www.w3.org/1999/xlink" x="0px"
	 y="0px" viewBox="0 0 24 24" style="enable-background:new 0 0 24 24;" xml:space="preserve">
<rect x="11.75" y="15" style="fill:#333333;" width="0.5" height="3"/>
<rect x="3" y="19.75" style="fill:#333333;" width="7" height="0.5"/>
<rect x="14" y="19.75" style="fill:#333333;" width="7" height="0.5"/>
<path style="fill:#333333;" d="M12,22.25c-1.241,0-2.25-1.01-2.25-2.25s1.009-2.25,2.25-2.25c1.24,0,2.25,1.01,2.25,2.25
	S13.24,22.25,12,22.25z M12,18.25c-0.965,0-1.75,0.785-1.75,1.75s0.785,1.75,1.75,1.75s1.75-0.785,1.75-1.75S12.965,18.25,12,18.25z
	"/>
<path style="fill:#333333;" d="M12,15.25c-3.722,0-6.75-3.028-6.75-6.75H5.5H5.25c0-3.722,3.028-6.75,6.75-6.75
	c3.722,0,6.75,3.028,6.75,6.75H18.5h0.25C18.75,12.222,15.722,15.25,12,15.25z M5.755,8.75c0.132,3.331,2.883,6,6.245,6
	s6.113-2.669,6.245-6H5.755z M5.755,8.25h12.49c-0.132-3.331-2.883-6-6.245-6S5.887,4.919,5.755,8.25z"/>
<path style="fill:#333333;" d="M12,15.25c-1.542,0-2.75-2.965-2.75-6.75S10.458,1.75,12,1.75s2.75,2.965,2.75,6.75
	S13.542,15.25,12,15.25z M12,2.25c-1.086,0-2.25,2.511-2.25,6.25c0,3.738,1.164,6.25,2.25,6.25c1.087,0,2.25-2.512,2.25-6.25
	C14.25,4.761,13.087,2.25,12,2.25z"/>
<rect x="5.5" y="8.25" style="fill:#333333;" width="13" height="0.5"/>
</svg>






