<?xml version="1.0" encoding="iso-8859-1"?>
<svg version="1.1" id="&#x56FE;&#x5C42;_1" xmlns="http://www.w3.org/2000/svg" xmlns:xlink="http://www.w3.org/1999/xlink" x="0px"
	 y="0px" viewBox="0 0 24 24" style="enable-background:new 0 0 24 24;" xml:space="preserve">
<g>
	<defs>
		<rect id="SVGID_1_" width="24" height="24"/>
	</defs>
	<clipPath id="SVGID_00000130610811723665026430000006864653530848810667_">
		<use xlink:href="#SVGID_1_"  style="overflow:visible;"/>
	</clipPath>
	<g style="clip-path:url(#SVGID_00000130610811723665026430000006864653530848810667_);">
		<path style="fill:#333333;" d="M12,8.75C6.961,8.75,1.75,7.534,1.75,5.5S6.961,2.25,12,2.25c5.038,0,10.25,1.216,10.25,3.25
			S17.038,8.75,12,8.75z M12,2.75c-5.746,0-9.75,1.449-9.75,2.75S6.254,8.25,12,8.25c5.746,0,9.75-1.449,9.75-2.75
			S17.746,2.75,12,2.75z"/>
		<path style="fill:#333333;" d="M12,13.25c-5.039,0-10.25-1.216-10.25-3.25c0-0.997,1.268-1.882,3.571-2.492l0.128,0.483
			C3.446,8.522,2.25,9.273,2.25,10c0,1.301,4.004,2.75,9.75,2.75c5.746,0,9.75-1.449,9.75-2.75c0-0.727-1.196-1.478-3.2-2.008
			l0.129-0.483C20.981,8.118,22.25,9.003,22.25,10C22.25,12.034,17.038,13.25,12,13.25z"/>
		<path style="fill:#333333;" d="M12,17.75c-5.039,0-10.25-1.216-10.25-3.25c0-0.997,1.268-1.882,3.571-2.491l0.128,0.482
			C3.446,13.022,2.25,13.773,2.25,14.5c0,1.301,4.004,2.75,9.75,2.75c5.746,0,9.75-1.449,9.75-2.75c0-0.727-1.196-1.478-3.2-2.009
			l0.129-0.482c2.303,0.609,3.571,1.494,3.571,2.491C22.25,16.534,17.038,17.75,12,17.75z"/>
		<path style="fill:#333333;" d="M12,22.25c-5.039,0-10.25-1.216-10.25-3.25c0-0.997,1.268-1.882,3.571-2.491l0.064-0.018
			l0.064,0.018C7.256,16.986,9.582,17.25,12,17.25s4.744-0.264,6.55-0.741l0.064-0.018l0.064,0.018
			c2.303,0.609,3.571,1.494,3.571,2.491C22.25,21.034,17.038,22.25,12,22.25z M5.386,17.009C3.421,17.538,2.25,18.281,2.25,19
			c0,1.301,4.004,2.75,9.75,2.75c5.746,0,9.75-1.449,9.75-2.75c0-0.72-1.171-1.462-3.137-1.991C16.776,17.487,14.432,17.75,12,17.75
			C9.569,17.75,7.224,17.487,5.386,17.009z"/>
	</g>
</g>
</svg>






