<?xml version="1.0" encoding="iso-8859-1"?>
<svg version="1.1" id="&#x56FE;&#x5C42;_1" xmlns="http://www.w3.org/2000/svg" xmlns:xlink="http://www.w3.org/1999/xlink" x="0px"
	 y="0px" viewBox="0 0 24 24" style="enable-background:new 0 0 24 24;" xml:space="preserve">
<path style="fill:#333333;" d="M20.5,18.25h-17c-0.965,0-1.75-0.785-1.75-1.75v-12c0-0.965,0.785-1.75,1.75-1.75h17
	c0.965,0,1.75,0.785,1.75,1.75v12C22.25,17.465,21.465,18.25,20.5,18.25z M3.5,3.25c-0.689,0-1.25,0.561-1.25,1.25v12
	c0,0.689,0.561,1.25,1.25,1.25h17c0.689,0,1.25-0.561,1.25-1.25v-12c0-0.689-0.561-1.25-1.25-1.25H3.5z"/>
<rect x="11.75" y="18" style="fill:#333333;" width="0.5" height="3.5"/>
<polygon style="fill:#333333;" points="8.165,14.188 7.835,13.812 15.835,6.812 16.165,7.188 "/>
<rect x="5" y="21.25" style="fill:#333333;" width="14" height="0.5"/>
<path style="fill:#333333;" d="M7.5,10.25c-0.965,0-1.75-0.785-1.75-1.75S6.535,6.75,7.5,6.75S9.25,7.535,9.25,8.5
	S8.465,10.25,7.5,10.25z M7.5,7.25c-0.689,0-1.25,0.561-1.25,1.25S6.811,9.75,7.5,9.75S8.75,9.189,8.75,8.5S8.189,7.25,7.5,7.25z"/>
<path style="fill:#333333;" d="M16.5,14.25c-0.965,0-1.75-0.785-1.75-1.75s0.785-1.75,1.75-1.75s1.75,0.785,1.75,1.75
	S17.465,14.25,16.5,14.25z M16.5,11.25c-0.689,0-1.25,0.561-1.25,1.25s0.561,1.25,1.25,1.25s1.25-0.561,1.25-1.25
	S17.189,11.25,16.5,11.25z"/>
</svg>






