<?xml version="1.0" encoding="iso-8859-1"?>
<svg version="1.1" id="&#x56FE;&#x5C42;_1" xmlns="http://www.w3.org/2000/svg" xmlns:xlink="http://www.w3.org/1999/xlink" x="0px"
	 y="0px" viewBox="0 0 24 24" style="enable-background:new 0 0 24 24;" xml:space="preserve">
<path style="fill:#333333;" d="M6.5,12.25c-2.664,0-4.75-0.988-4.75-2.25V4h0.5v6c0,0.845,1.708,1.75,4.25,1.75
	s4.25-0.905,4.25-1.75V4h0.5v6C11.25,11.262,9.164,12.25,6.5,12.25z"/>
<path style="fill:#333333;" d="M6.5,9.25C3.836,9.25,1.75,8.262,1.75,7h0.5c0,0.845,1.708,1.75,4.25,1.75S10.75,7.845,10.75,7h0.5
	C11.25,8.262,9.164,9.25,6.5,9.25z"/>
<path style="fill:#333333;" d="M6.5,6.25C3.836,6.25,1.75,5.262,1.75,4S3.836,1.75,6.5,1.75S11.25,2.738,11.25,4
	S9.164,6.25,6.5,6.25z M6.5,2.25C3.958,2.25,2.25,3.155,2.25,4S3.958,5.75,6.5,5.75S10.75,4.845,10.75,4S9.042,2.25,6.5,2.25z"/>
<path style="fill:#333333;" d="M17.5,22.25c-2.663,0-4.75-0.988-4.75-2.25v-6h0.5v6c0,0.845,1.708,1.75,4.25,1.75
	s4.25-0.905,4.25-1.75v-6h0.5v6C22.25,21.262,20.163,22.25,17.5,22.25z"/>
<path style="fill:#333333;" d="M17.5,19.25c-2.663,0-4.75-0.988-4.75-2.25h0.5c0,0.845,1.708,1.75,4.25,1.75s4.25-0.905,4.25-1.75
	h0.5C22.25,18.262,20.163,19.25,17.5,19.25z"/>
<path style="fill:#333333;" d="M17.5,16.25c-2.663,0-4.75-0.988-4.75-2.25s2.087-2.25,4.75-2.25s4.75,0.988,4.75,2.25
	S20.163,16.25,17.5,16.25z M17.5,12.25c-2.542,0-4.25,0.905-4.25,1.75s1.708,1.75,4.25,1.75s4.25-0.905,4.25-1.75
	S20.042,12.25,17.5,12.25z"/>
<path style="fill:#333333;" d="M21.25,8h-0.5V5c0-0.965-0.785-1.75-1.75-1.75h-3v-0.5h3c1.24,0,2.25,1.009,2.25,2.25V8z"/>
<path style="fill:#333333;" d="M8,21.25H5c-1.241,0-2.25-1.01-2.25-2.25v-3h0.5v3c0,0.965,0.785,1.75,1.75,1.75h3V21.25z"/>
</svg>






