<?xml version="1.0" encoding="iso-8859-1"?>
<svg version="1.1" id="&#x56FE;&#x5C42;_1" xmlns="http://www.w3.org/2000/svg" xmlns:xlink="http://www.w3.org/1999/xlink" x="0px"
	 y="0px" viewBox="0 0 24 24" style="enable-background:new 0 0 24 24;" xml:space="preserve">
<path style="fill:#333333;" d="M17,20.75c-0.907,0-1.802-0.235-2.586-0.68c-1.379-0.783-2.322-2.124-2.588-3.679
	c-0.05-0.29-0.076-0.591-0.076-0.892c0-1.297,0.478-2.543,1.344-3.507c0.994-1.108,2.418-1.743,3.906-1.743
	c2.895,0,5.25,2.355,5.25,5.25S19.895,20.75,17,20.75z M17,10.75c-1.347,0-2.635,0.575-3.535,1.577
	c-0.783,0.872-1.215,1.999-1.215,3.173c0,0.272,0.023,0.544,0.068,0.807c0.24,1.407,1.095,2.62,2.342,3.328
	c0.71,0.402,1.519,0.615,2.34,0.615c2.619,0,4.75-2.131,4.75-4.75S19.619,10.75,17,10.75z"/>
<path style="fill:#333333;" d="M9.5,20.75c-3.757,0-7.75-0.964-7.75-2.75V6h0.5v12c0,1.064,2.978,2.25,7.25,2.25
	c1.61,0,3.159-0.173,4.431-0.49c-1.115-0.802-1.871-2.002-2.105-3.368c-0.05-0.29-0.076-0.591-0.076-0.892
	c0-1.297,0.478-2.543,1.344-3.507c0.938-1.045,2.26-1.67,3.656-1.737V6h0.5v4.75H17c-1.347,0-2.635,0.575-3.535,1.577
	c-0.783,0.872-1.215,1.999-1.215,3.173c0,0.272,0.023,0.544,0.068,0.807c0.24,1.407,1.095,2.62,2.342,3.328l-0.051,0.457
	C13.205,20.517,11.391,20.75,9.5,20.75z"/>
<path style="fill:#333333;" d="M9.5,8.75C5.743,8.75,1.75,7.786,1.75,6S5.743,3.25,9.5,3.25S17.25,4.214,17.25,6
	S13.257,8.75,9.5,8.75z M9.5,3.75C5.228,3.75,2.25,4.936,2.25,6S5.228,8.25,9.5,8.25S16.75,7.064,16.75,6S13.772,3.75,9.5,3.75z"/>
<path style="fill:#333333;" d="M9.5,16.75c-3.757,0-7.75-0.964-7.75-2.75h0.5c0,1.064,2.978,2.25,7.25,2.25
	c0.868,0,1.724-0.05,2.542-0.148l0.061,0.496C11.264,16.699,10.388,16.75,9.5,16.75z"/>
<path style="fill:#333333;" d="M9.5,12.75c-3.757,0-7.75-0.964-7.75-2.75h0.5c0,1.064,2.978,2.25,7.25,2.25
	c1.314,0,2.604-0.116,3.731-0.335l0.096,0.491C12.169,12.631,10.845,12.75,9.5,12.75z"/>
<path style="fill:#333333;" d="M16.785,20.628C16.713,20.506,15,17.613,15,15.5s1.713-5.006,1.785-5.128l0.43,0.256
	C17.197,10.657,15.5,13.525,15.5,15.5s1.697,4.843,1.715,4.872L16.785,20.628z"/>
<path style="fill:#333333;" d="M17.215,20.628l-0.43-0.256c0.018-0.029,1.715-2.897,1.715-4.872s-1.697-4.843-1.715-4.872
	l0.43-0.256C17.287,10.494,19,13.387,19,15.5S17.287,20.506,17.215,20.628z"/>
<rect x="12" y="15.25" style="fill:#333333;" width="10" height="0.5"/>
</svg>






