<?xml version="1.0" encoding="iso-8859-1"?>
<svg version="1.1" id="&#x56FE;&#x5C42;_1" xmlns="http://www.w3.org/2000/svg" xmlns:xlink="http://www.w3.org/1999/xlink" x="0px"
	 y="0px" viewBox="0 0 24 24" style="enable-background:new 0 0 24 24;" xml:space="preserve">
<path style="fill:#333333;" d="M19.5,21.25h-15c-0.965,0-1.75-0.785-1.75-1.75v-14c0-0.965,0.785-1.75,1.75-1.75H18v0.5H4.5
	c-0.689,0-1.25,0.561-1.25,1.25v14c0,0.689,0.561,1.25,1.25,1.25h15c0.689,0,1.25-0.561,1.25-1.25V9h0.5v10.5
	C21.25,20.465,20.465,21.25,19.5,21.25z"/>
<polygon style="fill:#333333;" points="16.298,6.419 15.944,6.066 17.889,4.122 15.944,2.177 16.298,1.823 18.596,4.122 "/>
<rect x="11.75" y="8.5" style="fill:#333333;" width="0.5" height="8.5"/>
<rect x="15.75" y="12" style="fill:#333333;" width="0.5" height="5"/>
<rect x="7.75" y="12" style="fill:#333333;" width="0.5" height="5"/>
</svg>






