<?xml version="1.0" encoding="iso-8859-1"?>
<svg version="1.1" id="&#x56FE;&#x5C42;_1" xmlns="http://www.w3.org/2000/svg" xmlns:xlink="http://www.w3.org/1999/xlink" x="0px"
	 y="0px" viewBox="0 0 24 24" style="enable-background:new 0 0 24 24;" xml:space="preserve">
<path style="fill:#333333;" d="M12,22.25C6.348,22.25,1.75,17.652,1.75,12C1.75,6.348,6.348,1.75,12,1.75
	c5.652,0,10.25,4.598,10.25,10.25C22.25,17.652,17.652,22.25,12,22.25z M12,2.25c-5.376,0-9.75,4.374-9.75,9.75
	s4.374,9.75,9.75,9.75s9.75-4.374,9.75-9.75S17.376,2.25,12,2.25z"/>
<rect x="2.5" y="12.25" style="fill:#333333;" width="19.5" height="0.5"/>
<path style="fill:#333333;" d="M9.5,9.75c-1.241,0-2.25-1.009-2.25-2.25S8.259,5.25,9.5,5.25s2.25,1.009,2.25,2.25
	S10.741,9.75,9.5,9.75z M9.5,5.75c-0.965,0-1.75,0.785-1.75,1.75S8.535,9.25,9.5,9.25s1.75-0.785,1.75-1.75S10.465,5.75,9.5,5.75z"
	/>
<rect x="15.5" y="15.25" style="fill:#333333;" width="6" height="0.5"/>
<rect x="17" y="8.25" style="fill:#333333;" width="4" height="0.5"/>
<rect x="12.5" y="18.25" style="fill:#333333;" width="7" height="0.5"/>
<path style="fill:#333333;" d="M16.612,21.156l-0.225-0.447C19.695,19.04,21.75,15.703,21.75,12c0-2.13-0.674-4.153-1.95-5.851
	l0.4-0.301c1.341,1.785,2.05,3.912,2.05,6.151C22.25,15.893,20.09,19.401,16.612,21.156z"/>
<path style="fill:#333333;" d="M2.073,14.562C1.858,13.729,1.75,12.868,1.75,12c0-0.69,0.069-1.38,0.205-2.05l0.49,0.1
	C2.315,10.687,2.25,11.343,2.25,12c0,0.826,0.104,1.646,0.307,2.438L2.073,14.562z"/>
</svg>






