<?xml version="1.0" encoding="iso-8859-1"?>
<svg version="1.1" id="&#x56FE;&#x5C42;_1" xmlns="http://www.w3.org/2000/svg" xmlns:xlink="http://www.w3.org/1999/xlink" x="0px"
	 y="0px" viewBox="0 0 24 24" style="enable-background:new 0 0 24 24;" xml:space="preserve">
<path style="fill:#333333;" d="M10.028,21.25H2.472c-0.398,0-0.722-0.343-0.722-0.765V3.514c0-0.421,0.324-0.764,0.722-0.764h7.556
	c0.398,0,0.722,0.343,0.722,0.764v2.989h-0.5V3.514c0-0.146-0.1-0.264-0.222-0.264H2.472C2.35,3.25,2.25,3.369,2.25,3.514v16.971
	c0,0.146,0.1,0.265,0.222,0.265h7.556c0.123,0,0.222-0.119,0.222-0.265v-2.989h0.5v2.989C10.75,20.907,10.426,21.25,10.028,21.25z"
	/>
<path style="fill:#333333;" d="M21.527,21.25h-7.555c-0.398,0-0.723-0.343-0.723-0.765v-2.989h0.5v2.989
	c0,0.146,0.1,0.265,0.223,0.265h7.555c0.123,0,0.223-0.119,0.223-0.265V3.514c0-0.146-0.1-0.264-0.223-0.264h-7.555
	c-0.123,0-0.223,0.119-0.223,0.264v2.989h-0.5V3.514c0-0.421,0.324-0.764,0.723-0.764h7.555c0.398,0,0.723,0.343,0.723,0.764v16.971
	C22.25,20.907,21.926,21.25,21.527,21.25z"/>
<path style="fill:#333333;" d="M6.25,19c0.552,0,1-0.448,1-1s-0.448-1-1-1s-1,0.448-1,1S5.698,19,6.25,19z"/>
<path style="fill:#333333;" d="M17.75,19c0.552,0,1-0.448,1-1s-0.448-1-1-1s-1,0.448-1,1S17.198,19,17.75,19z"/>
<rect x="8" y="11.5" style="fill:#333333;" width="8" height="0.5"/>
<polygon style="fill:#333333;" points="13.788,14.313 13.435,13.96 15.645,11.75 13.435,9.54 13.788,9.187 16.352,11.75 "/>
</svg>






