<?xml version="1.0" encoding="iso-8859-1"?>
<svg version="1.1" id="&#x56FE;&#x5C42;_1" xmlns="http://www.w3.org/2000/svg" xmlns:xlink="http://www.w3.org/1999/xlink" x="0px"
	 y="0px" viewBox="0 0 24 24" style="enable-background:new 0 0 24 24;" xml:space="preserve">
<path style="fill:#333333;" d="M12,22.25c-3.625,0-6.25-5.227-6.25-8.75c0-3.813,0.967-5.75,6.25-5.75s6.25,1.937,6.25,5.75
	C18.25,17.023,15.626,22.25,12,22.25z M12,8.25c-4.92,0-5.75,1.62-5.75,5.25c0,3.637,2.707,8.25,5.75,8.25s5.75-4.613,5.75-8.25
	C17.75,9.87,16.92,8.25,12,8.25z"/>
<path style="fill:#333333;" d="M18.755,11.159c-0.479,0-0.895-0.159-1.199-0.464c-0.78-0.78-0.542-2.287,0.53-3.359
	c0.508-0.508,1.128-0.848,1.745-0.957c0.65-0.116,1.224,0.037,1.613,0.427c0.78,0.78,0.542,2.287-0.53,3.359l0,0
	c-0.508,0.508-1.128,0.848-1.746,0.957C19.026,11.146,18.889,11.159,18.755,11.159z M20.242,6.842c-0.104,0-0.212,0.01-0.324,0.03
	c-0.518,0.091-1.043,0.382-1.479,0.818c-0.877,0.877-1.115,2.067-0.53,2.652c0.271,0.271,0.688,0.372,1.172,0.288
	c0.518-0.091,1.043-0.382,1.479-0.818c0.877-0.877,1.115-2.067,0.53-2.652C20.882,6.951,20.588,6.842,20.242,6.842z"/>
<path style="fill:#333333;" d="M5.244,11.153c-0.708,0-1.512-0.343-2.158-0.989c-1.072-1.072-1.31-2.579-0.53-3.359
	c0.778-0.779,2.286-0.542,3.359,0.53l0,0c1.072,1.073,1.31,2.579,0.53,3.359C6.135,11.004,5.71,11.153,5.244,11.153z M3.762,6.838
	c-0.336,0-0.636,0.104-0.853,0.32c-0.584,0.585-0.347,1.774,0.53,2.652c0.878,0.878,2.067,1.116,2.652,0.53
	c0.584-0.584,0.347-1.774-0.53-2.652C5.008,7.137,4.333,6.838,3.762,6.838z"/>
<path style="fill:#333333;" d="M12,8.25C8.554,8.25,5.75,5.446,5.75,2h0.5c0,3.17,2.58,5.75,5.75,5.75c3.171,0,5.75-2.58,5.75-5.75
	h0.5C18.25,5.446,15.446,8.25,12,8.25z"/>
<path style="fill:#333333;" d="M12,8.25c-1.792,0-3.25-2.131-3.25-4.75h0.5c0,2.343,1.233,4.25,2.75,4.25s2.75-1.907,2.75-4.25h0.5
	C15.25,6.119,13.792,8.25,12,8.25z"/>
<circle style="fill:#333333;" cx="10" cy="13" r="1"/>
<circle style="fill:#333333;" cx="12" cy="17" r="1"/>
<circle style="fill:#333333;" cx="14" cy="13" r="1"/>
</svg>






