<?xml version="1.0" encoding="iso-8859-1"?>
<svg version="1.1" id="&#x56FE;&#x5C42;_1" xmlns="http://www.w3.org/2000/svg" xmlns:xlink="http://www.w3.org/1999/xlink" x="0px"
	 y="0px" viewBox="0 0 24 24" style="enable-background:new 0 0 24 24;" xml:space="preserve">
<rect x="4" y="5.25" style="fill:#333333;" width="16" height="0.5"/>
<rect x="9" y="2.25" style="fill:#333333;" width="6" height="0.5"/>
<path style="fill:#333333;" d="M16.5,21.75h-9c-0.965,0-1.75-0.785-1.75-1.75V8.25h12.5V20C18.25,20.965,17.465,21.75,16.5,21.75z
	 M6.25,8.75V20c0,0.689,0.561,1.25,1.25,1.25h9c0.689,0,1.25-0.561,1.25-1.25V8.75H6.25z"/>
<rect x="11.75" y="11.672" transform="matrix(0.7071 -0.7071 0.7071 0.7071 -6.7383 12.7322)" style="fill:#333333;" width="0.5" height="5.657"/>
<rect x="9.172" y="14.25" transform="matrix(0.7071 -0.7071 0.7071 0.7071 -6.7383 12.7322)" style="fill:#333333;" width="5.657" height="0.5"/>
</svg>






