<?xml version="1.0" encoding="iso-8859-1"?>
<svg version="1.1" id="&#x56FE;&#x5C42;_1" xmlns="http://www.w3.org/2000/svg" xmlns:xlink="http://www.w3.org/1999/xlink" x="0px"
	 y="0px" viewBox="0 0 24 24" style="enable-background:new 0 0 24 24;" xml:space="preserve">
<g>
	<defs>
		<rect id="SVGID_1_" width="24" height="24"/>
	</defs>
	<clipPath id="SVGID_00000155114408632983259540000007463205765798880928_">
		<use xlink:href="#SVGID_1_"  style="overflow:visible;"/>
	</clipPath>
	<g style="clip-path:url(#SVGID_00000155114408632983259540000007463205765798880928_);">
		<path style="fill:#333333;" d="M21.977,20.192c-0.724-0.354-17.753-8.698-19.108-9.48c-0.647-0.374-1.042-1.011-1.084-1.75
			C1.737,8.135,2.129,7.31,2.808,6.808c1.18-0.873,3.541-1.447,3.64-1.471l0.409-0.098L6.069,8.178l14.84,7.216l1.416,4.499
			L21.977,20.192z M6.153,5.933C5.428,6.136,3.923,6.605,3.104,7.21C2.561,7.612,2.246,8.273,2.283,8.934
			c0.032,0.575,0.329,1.053,0.835,1.345c1.209,0.698,15.608,7.763,18.556,9.207l-1.177-3.737L5.479,8.447L6.153,5.933z"/>
		
			<rect x="11.25" y="16.573" transform="matrix(0.4472 -0.8945 0.8945 0.4472 -9.9661 20.3757)" style="fill:#333333;" width="0.5" height="3.354"/>
		<polygon style="fill:#333333;" points="14.254,12.546 12.777,4.668 11.172,3.866 9.744,10.056 9.256,9.944 10.828,3.134 
			13.223,4.332 13.246,4.454 14.746,12.454 		"/>
	</g>
</g>
</svg>






