<?xml version="1.0" encoding="iso-8859-1"?>
<svg version="1.1" id="&#x56FE;&#x5C42;_1" xmlns="http://www.w3.org/2000/svg" xmlns:xlink="http://www.w3.org/1999/xlink" x="0px"
	 y="0px" viewBox="0 0 24 24" style="enable-background:new 0 0 24 24;" xml:space="preserve">
<rect x="3" y="20.249" style="fill:#333333;" width="18" height="0.5"/>
<rect x="19.25" y="9.5" style="fill:#333333;" width="0.5" height="11"/>
<rect x="16.25" y="5.594" transform="matrix(0.6402 -0.7682 0.7682 0.6402 -1.3608 16.0937)" style="fill:#333333;" width="0.5" height="7.81"/>
<path style="fill:#333333;" d="M13.439,12.847L4.663,7.616l0.119-0.212C5.72,5.725,7.425,4.743,9.285,4.818
	c0.041-0.105,0.088-0.205,0.149-0.314c0.32-0.571,0.874-0.998,1.518-1.169c0.635-0.17,1.286-0.085,1.83,0.24
	c1.144,0.682,1.552,2.257,0.89,3.438c-0.057,0.103-0.121,0.201-0.192,0.295c0.987,1.617,1.025,3.636,0.086,5.314L13.439,12.847z
	 M5.342,7.438l7.906,4.712c0.764-1.539,0.662-3.287-0.287-4.724l-0.106-0.161l0.129-0.144c0.097-0.107,0.182-0.226,0.251-0.352
	c0.524-0.936,0.192-2.228-0.709-2.765c-0.428-0.254-0.941-0.32-1.445-0.187c-0.515,0.138-0.956,0.477-1.21,0.931
	C9.792,4.887,9.745,5,9.699,5.15L9.642,5.343L9.441,5.327C7.765,5.206,6.249,5.983,5.342,7.438z"/>
</svg>






