<?xml version="1.0" encoding="iso-8859-1"?>
<svg version="1.1" id="&#x56FE;&#x5C42;_1" xmlns="http://www.w3.org/2000/svg" xmlns:xlink="http://www.w3.org/1999/xlink" x="0px"
	 y="0px" viewBox="0 0 24 24" style="enable-background:new 0 0 24 24;" xml:space="preserve">
<path style="fill:#333333;" d="M19.298,13.25H4.702c-0.525,0-0.952-0.427-0.952-0.952V10c0-4.549,3.701-8.25,8.25-8.25
	s8.25,3.701,8.25,8.25v2.298C20.25,12.823,19.823,13.25,19.298,13.25z M12,2.25c-4.273,0-7.75,3.477-7.75,7.75v2.298
	c0,0.249,0.203,0.452,0.452,0.452h14.596c0.249,0,0.452-0.203,0.452-0.452V10C19.75,5.727,16.273,2.25,12,2.25z"/>
<rect x="11.75" y="13" style="fill:#333333;" width="0.5" height="8"/>
<rect x="7.25" y="13" style="fill:#333333;" width="0.5" height="3"/>
<rect x="7.5" y="20.75" style="fill:#333333;" width="9" height="0.5"/>
</svg>






