<?xml version="1.0" encoding="iso-8859-1"?>
<svg version="1.1" id="&#x56FE;&#x5C42;_1" xmlns="http://www.w3.org/2000/svg" xmlns:xlink="http://www.w3.org/1999/xlink" x="0px"
	 y="0px" viewBox="0 0 24 24" style="enable-background:new 0 0 24 24;" xml:space="preserve">
<path style="fill:#333333;" d="M4.232,20.435c-0.519,0-1.033-0.221-1.392-0.647c-0.312-0.371-0.459-0.841-0.417-1.323
	c0.042-0.482,0.27-0.919,0.641-1.23l1.915-1.607l0.257-2.935L15.29,4.255c1.645-1.379,4.107-1.167,5.489,0.48
	c1.381,1.646,1.165,4.108-0.479,5.488l-10.055,8.436l-2.934-0.255l-1.915,1.606C5.058,20.295,4.644,20.434,4.232,20.435z
	 M5.717,12.941L5.46,15.876l-2.074,1.74c-0.554,0.465-0.627,1.295-0.162,1.849c0.465,0.556,1.296,0.628,1.852,0.163l2.073-1.739
	l2.934,0.255l9.896-8.303c1.435-1.204,1.622-3.35,0.419-4.784c-1.204-1.433-3.35-1.622-4.784-0.418L5.717,12.941z"/>
<rect x="15.161" y="3.515" transform="matrix(0.7661 -0.6428 0.6428 0.7661 -2.3465 12.0719)" style="fill:#333333;" width="0.5" height="11.489"/>
<rect x="8.819" y="13" transform="matrix(0.7533 -0.6577 0.6577 0.7533 -6.0697 10.3186)" style="fill:#333333;" width="3.801" height="0.5"/>
</svg>






