<?xml version="1.0" encoding="iso-8859-1"?>
<svg version="1.1" id="&#x56FE;&#x5C42;_1" xmlns="http://www.w3.org/2000/svg" xmlns:xlink="http://www.w3.org/1999/xlink" x="0px"
	 y="0px" viewBox="0 0 24 24" style="enable-background:new 0 0 24 24;" xml:space="preserve">
<path style="fill:#333333;" d="M12,21.391L1.677,9.003L5.88,3.75h12.24l4.202,5.253l-0.13,0.157L12,21.391z M2.323,8.997L12,20.609
	l9.678-11.613L17.88,4.25H6.12L2.323,8.997z"/>
<rect x="2" y="8.75" style="fill:#333333;" width="20" height="0.5"/>
<rect x="9.75" y="8.675" transform="matrix(0.9487 -0.3162 0.3162 0.9487 -4.2302 3.932)" style="fill:#333333;" width="0.5" height="12.649"/>
<rect x="7.675" y="14.75" transform="matrix(0.3162 -0.9487 0.9487 0.3162 -4.6574 23.5381)" style="fill:#333333;" width="12.649" height="0.5"/>
<polygon style="fill:#333333;" points="12,21.391 1.677,9.003 3.805,6.344 4.195,6.656 2.323,8.997 12,20.609 21.678,8.997 
	19.805,6.656 20.195,6.344 22.322,9.003 22.192,9.16 "/>
</svg>






