<?xml version="1.0" encoding="iso-8859-1"?>
<svg version="1.1" id="&#x56FE;&#x5C42;_1" xmlns="http://www.w3.org/2000/svg" xmlns:xlink="http://www.w3.org/1999/xlink" x="0px"
	 y="0px" viewBox="0 0 24 24" style="enable-background:new 0 0 24 24;" xml:space="preserve">
<path style="fill:#333333;" d="M12,21.489c-0.411,0-0.796-0.202-1.029-0.541L2.422,8.553c-0.2-0.291-0.269-0.654-0.188-0.997
	C2.316,7.212,2.54,6.918,2.849,6.748v0l8.549-4.702c0.378-0.207,0.829-0.207,1.204,0l8.549,4.702c0.31,0.17,0.533,0.464,0.614,0.807
	c0.082,0.344,0.014,0.707-0.187,0.998l-8.549,12.396C12.796,21.287,12.411,21.489,12,21.489z M3.09,7.186L3.09,7.186
	C2.902,7.29,2.771,7.462,2.721,7.671C2.672,7.88,2.712,8.092,2.834,8.269l8.548,12.396c0.284,0.412,0.951,0.412,1.235,0
	l8.549-12.396c0.122-0.177,0.162-0.389,0.112-0.599c-0.049-0.209-0.18-0.381-0.368-0.484l-8.549-4.702
	c-0.227-0.125-0.497-0.125-0.723,0L3.09,7.186z"/>
</svg>






