<?xml version="1.0" encoding="iso-8859-1"?>
<svg version="1.1" id="&#x56FE;&#x5C42;_1" xmlns="http://www.w3.org/2000/svg" xmlns:xlink="http://www.w3.org/1999/xlink" x="0px"
	 y="0px" viewBox="0 0 24 24" style="enable-background:new 0 0 24 24;" xml:space="preserve">
<path style="fill:#333333;" d="M12.5,22.25c-4.273,0-7.75-3.477-7.75-7.75s3.477-7.75,7.75-7.75s7.75,3.477,7.75,7.75
	S16.773,22.25,12.5,22.25z M12.5,7.25c-3.998,0-7.25,3.252-7.25,7.25c0,3.998,3.252,7.25,7.25,7.25c3.998,0,7.25-3.252,7.25-7.25
	C19.75,10.502,16.498,7.25,12.5,7.25z"/>
<path style="fill:#333333;" d="M12.5,7.329L8.66,4.038l1.715-2.288h4.277l1.687,2.289L12.5,7.329z M9.34,3.962l3.16,2.708
	l3.161-2.709L14.4,2.25h-3.775L9.34,3.962z"/>
</svg>






