<?xml version="1.0" encoding="iso-8859-1"?>
<svg version="1.1" id="&#x56FE;&#x5C42;_1" xmlns="http://www.w3.org/2000/svg" xmlns:xlink="http://www.w3.org/1999/xlink" x="0px"
	 y="0px" viewBox="0 0 24 24" style="enable-background:new 0 0 24 24;" xml:space="preserve">
<path style="fill:#333333;" d="M12,22.101c-0.393,0-0.756-0.18-0.994-0.493l-6.743-8.85c-0.34-0.446-0.34-1.069,0-1.515l6.743-8.85
	c0.477-0.626,1.511-0.625,1.989,0l6.742,8.85c0.339,0.446,0.339,1.069,0,1.515l-6.742,8.85C12.756,21.921,12.394,22.101,12,22.101z
	 M12,2.4c-0.236,0-0.454,0.108-0.597,0.295l-6.743,8.85c-0.204,0.268-0.204,0.642,0,0.91l6.743,8.85
	c0.287,0.375,0.908,0.375,1.193,0l6.742-8.85c0.204-0.268,0.204-0.642,0-0.91l-6.742-8.85C12.454,2.508,12.236,2.4,12,2.4z"/>
</svg>






