<?xml version="1.0" encoding="iso-8859-1"?>
<svg version="1.1" id="&#x56FE;&#x5C42;_1" xmlns="http://www.w3.org/2000/svg" xmlns:xlink="http://www.w3.org/1999/xlink" x="0px"
	 y="0px" viewBox="0 0 24 24" style="enable-background:new 0 0 24 24;" xml:space="preserve">
<path style="fill:#333333;" d="M12,21.835c-0.32,0-0.64-0.121-0.884-0.365L2.53,12.884c-0.487-0.487-0.487-1.28,0-1.768l8.586-8.586
	c0.487-0.487,1.281-0.487,1.768,0l8.586,8.586c0.487,0.487,0.487,1.28,0,1.768l-8.586,8.586C12.641,21.714,12.32,21.835,12,21.835z
	 M12,2.665c-0.192,0-0.384,0.073-0.53,0.219L2.884,11.47c-0.292,0.292-0.292,0.769,0,1.061l8.586,8.586
	c0.292,0.293,0.768,0.293,1.061,0l8.586-8.586c0.292-0.292,0.292-0.768,0-1.061L12.53,2.884C12.384,2.738,12.192,2.665,12,2.665z"/>
</svg>






