<?xml version="1.0" encoding="iso-8859-1"?>
<svg version="1.1" id="&#x56FE;&#x5C42;_1" xmlns="http://www.w3.org/2000/svg" xmlns:xlink="http://www.w3.org/1999/xlink" x="0px"
	 y="0px" viewBox="0 0 24 24" style="enable-background:new 0 0 24 24;" xml:space="preserve">
<path style="fill:#333333;" d="M17.006,20.795l-0.135-0.08L6.75,14.642V8.573l10,5.607V9.642l-5.25-3.15l5.004-2.78l5.246,3.091
	v10.885L17.006,20.795z M7.25,14.358l9.744,5.847l4.256-2.786V7.089l-4.754-2.801L12.5,6.508l4.75,2.85v5.676l-10-5.607V14.358z"/>
<polygon style="fill:#333333;" points="7.507,20.796 2.25,17.642 2.25,6.858 7.495,3.711 12.121,6.281 11.878,6.719 7.505,4.289 
	2.75,7.142 2.75,17.358 7.493,20.204 11.861,17.292 12.139,17.708 "/>
</svg>






