<?xml version="1.0" encoding="iso-8859-1"?>
<svg version="1.1" id="&#x56FE;&#x5C42;_1" xmlns="http://www.w3.org/2000/svg" xmlns:xlink="http://www.w3.org/1999/xlink" x="0px"
	 y="0px" viewBox="0 0 24 24" style="enable-background:new 0 0 24 24;" xml:space="preserve">
<path style="fill:#333333;" d="M14.5,21.25H4c-0.689,0-1.25-0.561-1.25-1.25V9.5c0-0.689,0.561-1.25,1.25-1.25h3.5
	c0.689,0,1.25,0.561,1.25,1.25v5c0,0.413,0.336,0.75,0.75,0.75h5c0.689,0,1.25,0.561,1.25,1.25V20
	C15.75,20.689,15.189,21.25,14.5,21.25z M4,8.75c-0.414,0-0.75,0.336-0.75,0.75V20c0,0.413,0.336,0.75,0.75,0.75h10.5
	c0.413,0,0.75-0.337,0.75-0.75v-3.5c0-0.413-0.337-0.75-0.75-0.75h-5c-0.689,0-1.25-0.561-1.25-1.25v-5
	c0-0.414-0.336-0.75-0.75-0.75H4z"/>
<path style="fill:#333333;" d="M20,15.75h-3.5c-0.689,0-1.25-0.561-1.25-1.25v-5c0-0.414-0.337-0.75-0.75-0.75h-5
	c-0.689,0-1.25-0.561-1.25-1.25V4c0-0.689,0.561-1.25,1.25-1.25H20c0.689,0,1.25,0.561,1.25,1.25v10.5
	C21.25,15.189,20.689,15.75,20,15.75z M9.5,3.25C9.086,3.25,8.75,3.586,8.75,4v3.5c0,0.414,0.336,0.75,0.75,0.75h5
	c0.689,0,1.25,0.561,1.25,1.25v5c0,0.413,0.337,0.75,0.75,0.75H20c0.413,0,0.75-0.337,0.75-0.75V4c0-0.414-0.337-0.75-0.75-0.75H9.5
	z"/>
</svg>






