<?xml version="1.0" encoding="iso-8859-1"?>
<svg version="1.1" id="&#x56FE;&#x5C42;_1" xmlns="http://www.w3.org/2000/svg" xmlns:xlink="http://www.w3.org/1999/xlink" x="0px"
	 y="0px" viewBox="0 0 24 24" style="enable-background:new 0 0 24 24;" xml:space="preserve">
<path style="fill:#333333;" d="M16,17.75H8c-0.965,0-1.75-0.785-1.75-1.75V8c0-0.965,0.785-1.75,1.75-1.75h8
	c0.965,0,1.75,0.785,1.75,1.75v8C17.75,16.965,16.965,17.75,16,17.75z M8,6.75C7.311,6.75,6.75,7.311,6.75,8v8
	c0,0.689,0.561,1.25,1.25,1.25h8c0.689,0,1.25-0.561,1.25-1.25V8c0-0.689-0.561-1.25-1.25-1.25H8z"/>
<path style="fill:#333333;" d="M13.5,22.25h-3c-0.689,0-1.25-0.561-1.25-1.25v-3.5h0.5V21c0,0.413,0.336,0.75,0.75,0.75h3
	c0.413,0,0.75-0.337,0.75-0.75v-3.5h0.5V21C14.75,21.689,14.189,22.25,13.5,22.25z"/>
<path style="fill:#333333;" d="M14.75,6.5h-0.5V3c0-0.414-0.337-0.75-0.75-0.75h-3c-0.414,0-0.75,0.336-0.75,0.75v3.5h-0.5V3
	c0-0.689,0.561-1.25,1.25-1.25h3c0.689,0,1.25,0.561,1.25,1.25V6.5z"/>
<rect x="17.5" y="10.25" style="fill:#333333;" width="1" height="0.5"/>
<rect x="9.5" y="11.75" style="fill:#333333;" width="1" height="0.5"/>
<rect x="13.5" y="11.75" style="fill:#333333;" width="1" height="0.5"/>
</svg>






