<?xml version="1.0" encoding="iso-8859-1"?>
<svg version="1.1" id="&#x56FE;&#x5C42;_1" xmlns="http://www.w3.org/2000/svg" xmlns:xlink="http://www.w3.org/1999/xlink" x="0px"
	 y="0px" viewBox="0 0 24 24" style="enable-background:new 0 0 24 24;" xml:space="preserve">
<polygon style="fill:#333333;" points="12.25,7 11.75,7 11.75,2.604 9.177,5.177 8.823,4.823 11.823,1.823 12,2 12.177,1.823 
	15.177,4.823 14.823,5.177 12.25,2.604 "/>
<polygon style="fill:#333333;" points="12.177,22.177 12,22 11.823,22.177 8.823,19.177 9.177,18.823 11.75,21.396 11.75,17 
	12.25,17 12.25,21.396 14.823,18.823 15.177,19.177 "/>
<polygon style="fill:#333333;" points="19.177,15.177 18.823,14.823 21.396,12.25 17,12.25 17,11.75 21.396,11.75 18.823,9.177 
	19.177,8.823 22.177,11.823 22,12 22.177,12.177 "/>
<polygon style="fill:#333333;" points="4.823,15.177 1.823,12.177 2,12 1.823,11.823 4.823,8.823 5.177,9.177 2.604,11.75 7,11.75 
	7,12.25 2.604,12.25 5.177,14.823 "/>
<path style="fill:#333333;" d="M12,14.25c-1.241,0-2.25-1.01-2.25-2.25c0-1.241,1.009-2.25,2.25-2.25c1.24,0,2.25,1.009,2.25,2.25
	C14.25,13.24,13.24,14.25,12,14.25z M12,10.25c-0.965,0-1.75,0.785-1.75,1.75s0.785,1.75,1.75,1.75s1.75-0.785,1.75-1.75
	S12.965,10.25,12,10.25z"/>
</svg>






