<?xml version="1.0" encoding="iso-8859-1"?>
<svg version="1.1" id="&#x56FE;&#x5C42;_1" xmlns="http://www.w3.org/2000/svg" xmlns:xlink="http://www.w3.org/1999/xlink" x="0px"
	 y="0px" viewBox="0 0 24 24" style="enable-background:new 0 0 24 24;" xml:space="preserve">
<polygon style="fill:#333333;" points="12.25,8 11.75,8 11.75,2.604 10.177,4.177 9.823,3.823 11.823,1.823 12,2 12.177,1.823 
	14.177,3.823 13.823,4.177 12.25,2.604 "/>
<polygon style="fill:#333333;" points="12.177,22.177 12,22 11.823,22.177 9.823,20.177 10.177,19.823 11.75,21.396 11.75,16 
	12.25,16 12.25,21.396 13.823,19.823 14.177,20.177 "/>
<polygon style="fill:#333333;" points="20.177,14.177 19.823,13.823 21.396,12.25 16,12.25 16,11.75 21.396,11.75 19.823,10.177 
	20.177,9.823 22.177,11.823 22,12 22.177,12.177 "/>
<polygon style="fill:#333333;" points="3.823,14.177 1.823,12.177 2,12 1.823,11.823 3.823,9.823 4.177,10.177 2.604,11.75 8,11.75 
	8,12.25 2.604,12.25 4.177,13.823 "/>
<path style="fill:#333333;" d="M12,13.25c-0.689,0-1.25-0.561-1.25-1.25s0.561-1.25,1.25-1.25s1.25,0.561,1.25,1.25
	S12.689,13.25,12,13.25z M12,11.25c-0.414,0-0.75,0.336-0.75,0.75c0,0.413,0.336,0.75,0.75,0.75c0.413,0,0.75-0.337,0.75-0.75
	C12.75,11.586,12.413,11.25,12,11.25z"/>
</svg>






