<?xml version="1.0" encoding="iso-8859-1"?>
<svg version="1.1" id="&#x56FE;&#x5C42;_1" xmlns="http://www.w3.org/2000/svg" xmlns:xlink="http://www.w3.org/1999/xlink" x="0px"
	 y="0px" viewBox="0 0 24 24" style="enable-background:new 0 0 24 24;" xml:space="preserve">
<path style="fill:#333333;" d="M12,22.25C6.348,22.25,1.75,17.652,1.75,12C1.75,6.348,6.348,1.75,12,1.75
	c5.652,0,10.25,4.598,10.25,10.25C22.25,17.652,17.652,22.25,12,22.25z M12,2.25c-5.376,0-9.75,4.374-9.75,9.75
	s4.374,9.75,9.75,9.75s9.75-4.374,9.75-9.75S17.376,2.25,12,2.25z"/>
<polygon style="fill:#333333;" points="16.389,12.724 14.389,11.724 14.611,11.276 16.611,12.276 "/>
<rect x="6.882" y="11.75" transform="matrix(0.8944 -0.4472 0.4472 0.8944 -4.522 4.8446)" style="fill:#333333;" width="2.236" height="0.5"/>
<path style="fill:#333333;" d="M15.276,17.612C15.238,17.536,14.308,15.75,12,15.75s-3.238,1.786-3.277,1.862l-0.447-0.224
	C8.32,17.301,9.375,15.25,12,15.25c2.624,0,3.68,2.051,3.724,2.139L15.276,17.612z"/>
</svg>






