<?xml version="1.0" encoding="iso-8859-1"?>
<svg version="1.1" id="&#x56FE;&#x5C42;_1" xmlns="http://www.w3.org/2000/svg" xmlns:xlink="http://www.w3.org/1999/xlink" x="0px"
	 y="0px" viewBox="0 0 24 24" style="enable-background:new 0 0 24 24;" xml:space="preserve">
<path style="fill:#333333;" d="M20.25,16.749H3.75V6c0-0.965,0.785-1.75,1.75-1.75h6v0.5h-6C4.811,4.75,4.25,5.31,4.25,6v10.25h15.5
	v-3.25h0.5V16.749z"/>
<path style="fill:#333333;" d="M19,20.749H5c-1.792,0-3.25-1.458-3.25-3.25v-1.25h20.5v1.25C22.25,19.291,20.792,20.749,19,20.749z
	 M2.25,16.749v0.75c0,1.517,1.233,2.75,2.75,2.75h14c1.517,0,2.75-1.233,2.75-2.75v-0.75H2.25z"/>
<path style="fill:#333333;" d="M18,9.75c-1.792,0-3.25-1.458-3.25-3.25S16.208,3.25,18,3.25s3.25,1.458,3.25,3.25
	S19.792,9.75,18,9.75z M18,3.75c-1.517,0-2.75,1.233-2.75,2.75S16.483,9.25,18,9.25s2.75-1.233,2.75-2.75S19.517,3.75,18,3.75z"/>
<rect x="17.75" y="3.672" transform="matrix(0.7071 -0.7071 0.7071 0.7071 0.6759 14.6317)" style="fill:#333333;" width="0.5" height="5.657"/>
</svg>






