<?xml version="1.0" encoding="iso-8859-1"?>
<svg version="1.1" id="&#x56FE;&#x5C42;_1" xmlns="http://www.w3.org/2000/svg" xmlns:xlink="http://www.w3.org/1999/xlink" x="0px"
	 y="0px" viewBox="0 0 24 24" style="enable-background:new 0 0 24 24;" xml:space="preserve">
<path style="fill:#333333;" d="M19.5,17.249h-15c-0.965,0-1.75-0.785-1.75-1.75v-11c0-0.965,0.785-1.75,1.75-1.75h7v0.5h-7
	c-0.689,0-1.25,0.561-1.25,1.25v11c0,0.689,0.561,1.25,1.25,1.25h15c0.689,0,1.25-0.561,1.25-1.25v-3.5h0.5v3.5
	C21.25,16.464,20.465,17.249,19.5,17.249z"/>
<rect x="11.75" y="17" style="fill:#333333;" width="0.5" height="4"/>
<path style="fill:#333333;" d="M18,9.25c-1.792,0-3.25-1.458-3.25-3.25S16.208,2.75,18,2.75S21.25,4.208,21.25,6
	S19.792,9.25,18,9.25z M18,3.25c-1.517,0-2.75,1.233-2.75,2.75S16.483,8.75,18,8.75S20.75,7.517,20.75,6S19.517,3.25,18,3.25z"/>
<rect x="17.75" y="3.172" transform="matrix(0.7071 -0.7071 0.7071 0.7071 1.0294 14.4853)" style="fill:#333333;" width="0.5" height="5.657"/>
<rect x="7" y="20.749" style="fill:#333333;" width="10" height="0.5"/>
</svg>






