<?xml version="1.0" encoding="iso-8859-1"?>
<svg version="1.1" id="&#x56FE;&#x5C42;_1" xmlns="http://www.w3.org/2000/svg" xmlns:xlink="http://www.w3.org/1999/xlink" x="0px"
	 y="0px" viewBox="0 0 24 24" style="enable-background:new 0 0 24 24;" xml:space="preserve">
<path style="fill:#333333;" d="M12.5,20.25h-9c-0.965,0-1.75-0.785-1.75-1.75v-13c0-0.965,0.785-1.75,1.75-1.75h17
	c0.965,0,1.75,0.785,1.75,1.75v6.029h-0.5V5.5c0-0.689-0.561-1.25-1.25-1.25h-17c-0.689,0-1.25,0.561-1.25,1.25v13
	c0,0.689,0.561,1.25,1.25,1.25h9V20.25z"/>
<path style="fill:#333333;" d="M19,20.75c-1.792,0-3.25-1.458-3.25-3.25s1.458-3.25,3.25-3.25s3.25,1.458,3.25,3.25
	S20.792,20.75,19,20.75z M19,14.75c-1.517,0-2.75,1.233-2.75,2.75s1.233,2.75,2.75,2.75s2.75-1.233,2.75-2.75S20.517,14.75,19,14.75
	z"/>
<rect x="18.75" y="14.672" transform="matrix(0.7071 -0.7071 0.7071 0.7071 -6.8094 18.5607)" style="fill:#333333;" width="0.5" height="5.657"/>
<path style="fill:#333333;" d="M22.25,10.25H1.75V5.5c0-0.965,0.785-1.75,1.75-1.75h17c0.965,0,1.75,0.785,1.75,1.75V10.25z
	 M2.25,9.75h19.5V5.5c0-0.689-0.561-1.25-1.25-1.25h-17c-0.689,0-1.25,0.561-1.25,1.25V9.75z"/>
<circle style="fill:#333333;" cx="5" cy="7" r="1"/>
<circle style="fill:#333333;" cx="8" cy="7" r="1"/>
</svg>






