<?xml version="1.0" encoding="iso-8859-1"?>
<svg version="1.1" id="&#x56FE;&#x5C42;_1" xmlns="http://www.w3.org/2000/svg" xmlns:xlink="http://www.w3.org/1999/xlink" x="0px"
	 y="0px" viewBox="0 0 24 24" style="enable-background:new 0 0 24 24;" xml:space="preserve">
<path style="fill:#333333;" d="M3.25,8h-0.5V4c0-0.689,0.561-1.25,1.25-1.25h4v0.5H4C3.586,3.25,3.25,3.586,3.25,4V8z"/>
<path style="fill:#333333;" d="M8,21.25H4c-0.689,0-1.25-0.561-1.25-1.25v-4h0.5v4c0,0.413,0.336,0.75,0.75,0.75h4V21.25z"/>
<path style="fill:#333333;" d="M20,21.25h-4v-0.5h4c0.413,0,0.75-0.337,0.75-0.75v-4h0.5v4C21.25,20.689,20.689,21.25,20,21.25z"/>
<path style="fill:#333333;" d="M21.25,8h-0.5V4c0-0.414-0.337-0.75-0.75-0.75h-4v-0.5h4c0.689,0,1.25,0.561,1.25,1.25V8z"/>
<path style="fill:#333333;" d="M14.75,15.25h-5.5v-6.5h5.5V15.25z M9.75,14.75h4.5v-5.5h-4.5V14.75z"/>
<rect x="11.75" y="6" style="fill:#333333;" width="0.5" height="3"/>
<rect x="11.75" y="15" style="fill:#333333;" width="0.5" height="3"/>
</svg>






