<?xml version="1.0" encoding="iso-8859-1"?>
<svg version="1.1" id="&#x56FE;&#x5C42;_1" xmlns="http://www.w3.org/2000/svg" xmlns:xlink="http://www.w3.org/1999/xlink" x="0px"
	 y="0px" viewBox="0 0 24 24" style="enable-background:new 0 0 24 24;" xml:space="preserve">
<path style="fill:#333333;" d="M17,17.75H3c-0.689,0-1.25-0.561-1.25-1.25v-9c0-0.689,0.561-1.25,1.25-1.25h14
	c0.689,0,1.25,0.561,1.25,1.25v9C18.25,17.189,17.689,17.75,17,17.75z M3,6.75c-0.414,0-0.75,0.336-0.75,0.75v9
	c0,0.413,0.336,0.75,0.75,0.75h14c0.413,0,0.75-0.337,0.75-0.75v-9c0-0.414-0.337-0.75-0.75-0.75H3z"/>
<path style="fill:#333333;" d="M7.25,17.75h-5.5V6.25h5.5V17.75z M2.25,17.25h4.5V6.75h-4.5V17.25z"/>
<polygon style="fill:#333333;" points="22.25,14.75 18,14.75 18,14.25 21.75,14.25 21.75,9.75 18,9.75 18,9.25 22.25,9.25 "/>
<circle style="fill:#333333;" cx="15" cy="10.5" r="1"/>
<circle style="fill:#333333;" cx="15" cy="13.5" r="1"/>
</svg>






