<?xml version="1.0" encoding="iso-8859-1"?>
<svg version="1.1" id="&#x56FE;&#x5C42;_1" xmlns="http://www.w3.org/2000/svg" xmlns:xlink="http://www.w3.org/1999/xlink" x="0px"
	 y="0px" viewBox="0 0 24 24" style="enable-background:new 0 0 24 24;" xml:space="preserve">
<path style="fill:#333333;" d="M12.136,22.041c-3.376,0-6.123-2.747-6.123-6.123V8.577c0-0.408,0.333-0.741,0.741-0.741h10.763
	c0.408,0,0.741,0.333,0.741,0.741v7.341C18.259,19.294,15.512,22.041,12.136,22.041z M6.754,8.327c-0.139,0-0.251,0.112-0.251,0.25
	v7.341c0,3.106,2.526,5.633,5.632,5.633c3.106,0,5.633-2.526,5.633-5.633V8.577c0-0.138-0.112-0.25-0.251-0.25H6.754z"/>
<path style="fill:#333333;" d="M16.789,8.327H7.483V1.959h9.306V8.327z M7.973,7.836h8.326V2.449H7.973V7.836z"/>
<rect x="10.421" y="4.653" style="fill:#333333;" width="0.49" height="0.98"/>
<rect x="13.36" y="4.653" style="fill:#333333;" width="0.49" height="0.98"/>
<rect x="6.258" y="15.673" style="fill:#333333;" width="11.755" height="0.49"/>
</svg>






