<?xml version="1.0" encoding="iso-8859-1"?>
<svg version="1.1" id="&#x56FE;&#x5C42;_1" xmlns="http://www.w3.org/2000/svg" xmlns:xlink="http://www.w3.org/1999/xlink" x="0px"
	 y="0px" viewBox="0 0 24 24" style="enable-background:new 0 0 24 24;" xml:space="preserve">
<path style="fill:#333333;" d="M20.5,22.25h-17c-0.965,0-1.75-0.785-1.75-1.75v-17c0-0.965,0.785-1.75,1.75-1.75h17
	c0.965,0,1.75,0.785,1.75,1.75v17C22.25,21.465,21.465,22.25,20.5,22.25z M3.5,2.25c-0.689,0-1.25,0.561-1.25,1.25v17
	c0,0.689,0.561,1.25,1.25,1.25h17c0.689,0,1.25-0.561,1.25-1.25v-17c0-0.689-0.561-1.25-1.25-1.25H3.5z"/>
<path style="fill:#333333;" d="M17.25,11.25h-10v-9.5h10V11.25z M7.75,10.75h9v-8.5h-9V10.75z"/>
<rect x="14.25" y="5.5" style="fill:#333333;" width="0.5" height="2"/>
<rect x="5.999" y="1.75" style="fill:#333333;" width="12.5" height="0.5"/>
</svg>






