<?xml version="1.0" encoding="iso-8859-1"?>
<svg version="1.1" id="&#x56FE;&#x5C42;_1" xmlns="http://www.w3.org/2000/svg" xmlns:xlink="http://www.w3.org/1999/xlink" x="0px"
	 y="0px" viewBox="0 0 24 24" style="enable-background:new 0 0 24 24;" xml:space="preserve">
<path style="fill:#333333;" d="M12,21.26l-0.069-0.02C8.476,20.253,1.75,15.214,1.75,9.5c0-3.17,2.58-5.75,5.75-5.75
	c0.92,0,1.8,0.211,2.614,0.627l0.164,0.084L9.776,7.368l4.659,2.588l-3.613,3.097l1.392,2.318l-0.429,0.258l-1.609-2.682
	l3.388-2.903L9.224,7.632l0.498-2.891C9.025,4.416,8.279,4.25,7.5,4.25c-2.895,0-5.25,2.355-5.25,5.25
	c0,5.433,6.398,10.241,9.75,11.239c3.353-0.998,9.75-5.807,9.75-11.239c0-2.895-2.355-5.25-5.25-5.25
	c-0.841,0-1.644,0.192-2.386,0.572l-0.229-0.445C14.7,3.961,15.58,3.75,16.5,3.75c3.171,0,5.75,2.58,5.75,5.75
	c0,5.714-6.726,10.753-10.182,11.74L12,21.26z"/>
</svg>






