<?xml version="1.0" encoding="iso-8859-1"?>
<svg version="1.1" id="&#x56FE;&#x5C42;_1" xmlns="http://www.w3.org/2000/svg" xmlns:xlink="http://www.w3.org/1999/xlink" x="0px"
	 y="0px" viewBox="0 0 24 24" style="enable-background:new 0 0 24 24;" xml:space="preserve">
<path style="fill:#333333;" d="M20,13.25H4c-0.689,0-1.25-0.561-1.25-1.25V4c0-0.689,0.561-1.25,1.25-1.25h16
	c0.689,0,1.25,0.561,1.25,1.25v8C21.25,12.689,20.689,13.25,20,13.25z M4,3.25C3.586,3.25,3.25,3.586,3.25,4v8
	c0,0.413,0.336,0.75,0.75,0.75h16c0.413,0,0.75-0.337,0.75-0.75V4c0-0.414-0.337-0.75-0.75-0.75H4z"/>
<rect x="7" y="6.25" style="fill:#333333;" width="4" height="0.5"/>
<rect x="7" y="9.25" style="fill:#333333;" width="10" height="0.5"/>
<polygon style="fill:#333333;" points="19.813,22.166 17.221,19.25 6.563,19.25 4.194,22.158 3.806,21.842 6.326,18.75 
	17.445,18.75 20.187,21.834 "/>
<rect x="11.75" y="13" style="fill:#333333;" width="0.5" height="9"/>
</svg>






