<?xml version="1.0" encoding="iso-8859-1"?>
<svg version="1.1" id="&#x56FE;&#x5C42;_1" xmlns="http://www.w3.org/2000/svg" xmlns:xlink="http://www.w3.org/1999/xlink" x="0px"
	 y="0px" viewBox="0 0 24 24" style="enable-background:new 0 0 24 24;" xml:space="preserve">
<path style="fill:#333333;" d="M22.25,20.25H1.75V9.5H2H1.75V3.75h20.5V20.25z M15.629,19.75h6.121v-4.82
	c-0.998,0.526-3.828,1.729-7.341,0.805C14.363,17.75,15.347,19.337,15.629,19.75z M8.629,19.75h6.413
	c-0.415-0.704-1.181-2.269-1.112-4.154c-0.664-0.208-1.349-0.494-2.049-0.876c-1.405-0.767-2.748-1.129-3.963-1.248
	C6.582,16.482,8.247,19.191,8.629,19.75z M2.25,19.75h5.792c-0.567-0.96-1.785-3.521-0.649-6.314
	c-2.688-0.129-4.665,0.925-5.144,1.205V19.75z M14.442,15.226c3.764,1.028,6.709-0.516,7.308-0.866V9.93
	c-0.804,0.422-2.79,1.283-5.366,1.124c-0.184,0.364-0.409,0.73-0.684,1.097C14.909,13.204,14.549,14.255,14.442,15.226z
	 M8.154,12.994c1.225,0.142,2.565,0.522,3.966,1.286c0.631,0.345,1.249,0.607,1.849,0.803c0.121-1.027,0.506-2.132,1.331-3.233
	c0.212-0.282,0.393-0.564,0.546-0.844c-1.225-0.142-2.565-0.523-3.965-1.287c-0.631-0.344-1.25-0.607-1.85-0.803
	C9.91,9.945,9.525,11.049,8.7,12.15C8.488,12.433,8.308,12.714,8.154,12.994z M2.25,9.64v4.43c0.804-0.423,2.795-1.284,5.366-1.124
	C7.8,12.582,8.025,12.216,8.3,11.85c0.791-1.055,1.152-2.105,1.258-3.075C5.795,7.745,2.85,9.29,2.25,9.64z M16.606,10.565
	c2.687,0.11,4.666-0.925,5.144-1.205V4.25h-5.792C16.524,5.21,17.742,7.772,16.606,10.565z M10.07,8.404
	c0.664,0.208,1.349,0.495,2.05,0.877c1.405,0.766,2.747,1.129,3.962,1.247c1.336-3.011-0.329-5.719-0.711-6.278H8.958
	C9.374,4.954,10.139,6.519,10.07,8.404z M2.25,4.25v4.82c1-0.525,3.824-1.73,7.341-0.804C9.637,6.25,8.653,4.663,8.371,4.25H2.25z"
	/>
</svg>






