<?xml version="1.0" encoding="iso-8859-1"?>
<svg version="1.1" id="&#x56FE;&#x5C42;_1" xmlns="http://www.w3.org/2000/svg" xmlns:xlink="http://www.w3.org/1999/xlink" x="0px"
	 y="0px" viewBox="0 0 24 24" style="enable-background:new 0 0 24 24;" xml:space="preserve">
<path style="fill:#333333;" d="M12,8.25c-1.517,0-2.75-1.233-2.75-2.75S10.483,2.75,12,2.75s2.75,1.233,2.75,2.75
	S13.517,8.25,12,8.25z M12,3.25c-1.241,0-2.25,1.009-2.25,2.25S10.759,7.75,12,7.75c1.24,0,2.25-1.009,2.25-2.25S13.24,3.25,12,3.25
	z"/>
<path style="fill:#333333;" d="M12,21.25c-1.517,0-2.75-1.233-2.75-2.75s1.233-2.75,2.75-2.75s2.75,1.233,2.75,2.75
	S13.517,21.25,12,21.25z M12,16.25c-1.241,0-2.25,1.01-2.25,2.25s1.009,2.25,2.25,2.25c1.24,0,2.25-1.01,2.25-2.25
	S13.24,16.25,12,16.25z"/>
<rect x="2" y="11.75" style="fill:#333333;" width="20" height="0.5"/>
</svg>






