<?xml version="1.0" encoding="iso-8859-1"?>
<svg version="1.1" id="&#x56FE;&#x5C42;_1" xmlns="http://www.w3.org/2000/svg" xmlns:xlink="http://www.w3.org/1999/xlink" x="0px"
	 y="0px" viewBox="0 0 24 24" style="enable-background:new 0 0 24 24;" xml:space="preserve">
<path style="fill:#333333;" d="M12.955,12.25H11.5v-0.5h1.455c2.644,0,4.795-2.131,4.795-4.75c0-2.589-2.103-4.701-4.704-4.749
	l-2.884,2.44H9.838l-2.884-2.44C4.352,2.299,2.25,4.411,2.25,7c0,2.619,2.151,4.75,4.795,4.75H8.5v0.5H7.045
	C4.125,12.25,1.75,9.895,1.75,7s2.375-5.25,5.295-5.25l0.162,0.059L10,4.172l2.794-2.363l0.161-0.059c2.92,0,5.295,2.355,5.295,5.25
	S15.875,12.25,12.955,12.25z"/>
<path style="fill:#333333;" d="M13,22.25H7L6.75,22v-4L7,17.75h6L13.25,18v4L13,22.25z M7.25,21.75h5.5v-3.5h-5.5V21.75z"/>
<path style="fill:#333333;" d="M18,20.25h-5v-0.5h5c2.067,0,3.75-1.683,3.75-3.75V7.25H18v-0.5h4L22.25,7v9
	C22.25,18.344,20.344,20.25,18,20.25z"/>
<path style="fill:#333333;" d="M10.61,15.25H9.39c-0.422,0-0.821-0.185-1.094-0.507c-0.271-0.321-0.387-0.742-0.318-1.154
	l0.61-3.645C8.703,9.252,9.297,8.75,10,8.75c0.702,0,1.296,0.502,1.412,1.194l0.61,3.645c0.067,0.415-0.051,0.837-0.325,1.157
	C11.424,15.066,11.028,15.25,10.61,15.25z M10,9.25c-0.458,0-0.844,0.326-0.918,0.776l-0.61,3.645
	c-0.045,0.268,0.03,0.541,0.207,0.749c0.177,0.21,0.437,0.33,0.712,0.33h1.22c0.271,0,0.529-0.119,0.706-0.328
	c0.178-0.209,0.255-0.483,0.212-0.752l-0.61-3.644C10.843,9.576,10.457,9.25,10,9.25z"/>
</svg>






