<?xml version="1.0" encoding="iso-8859-1"?>
<svg version="1.1" id="&#x56FE;&#x5C42;_1" xmlns="http://www.w3.org/2000/svg" xmlns:xlink="http://www.w3.org/1999/xlink" x="0px"
	 y="0px" viewBox="0 0 24 24" style="enable-background:new 0 0 24 24;" xml:space="preserve">
<path style="fill:#333333;" d="M18.25,9.25h-6V9c0-0.848-0.613-1.75-1.75-1.75S8.75,8.152,8.75,9v0.25h-6V5
	c0-1.241,1.054-2.25,2.35-2.25h10.8c1.296,0,2.35,1.009,2.35,2.25V9.25z M12.735,8.75h5.015V5c0-0.965-0.83-1.75-1.85-1.75H5.1
	C4.08,3.25,3.25,4.035,3.25,5v3.75h5.014c0.116-1.022,0.934-2,2.236-2S12.62,7.728,12.735,8.75z"/>
<path style="fill:#333333;" d="M10.5,15.25c-2.073,0-2.75-2.417-2.75-3.25h0.5c0,0.606,0.539,2.75,2.25,2.75s2.25-2.144,2.25-2.75
	h0.5C13.25,12.833,12.573,15.25,10.5,15.25z"/>
<path style="fill:#333333;" d="M18,22.25c-1.615,0-3.25-1.116-3.25-3.25v-1h0.5v1c0,1.89,1.426,2.75,2.75,2.75s2.75-0.86,2.75-2.75
	V3h0.5v16C21.25,21.134,19.615,22.25,18,22.25z"/>
</svg>






