<?xml version="1.0" encoding="iso-8859-1"?>
<svg version="1.1" id="&#x56FE;&#x5C42;_1" xmlns="http://www.w3.org/2000/svg" xmlns:xlink="http://www.w3.org/1999/xlink" x="0px"
	 y="0px" viewBox="0 0 24 24" style="enable-background:new 0 0 24 24;" xml:space="preserve">
<path style="fill:#333333;" d="M19.5,22.25h-14c-0.689,0-1.25-0.561-1.25-1.25V3c0-0.689,0.561-1.25,1.25-1.25h14
	c0.689,0,1.25,0.561,1.25,1.25v18C20.75,21.689,20.189,22.25,19.5,22.25z M5.5,2.25C5.086,2.25,4.75,2.586,4.75,3v18
	c0,0.413,0.336,0.75,0.75,0.75h14c0.413,0,0.75-0.337,0.75-0.75V3c0-0.414-0.337-0.75-0.75-0.75H5.5z"/>
<rect x="8.5" y="14.75" style="fill:#333333;" width="7" height="0.5"/>
<rect x="8.5" y="17.75" style="fill:#333333;" width="3.5" height="0.5"/>
<path style="fill:#333333;" d="M15.75,11.25h-7.5v-5.5h7.5V11.25z M8.75,10.75h6.5v-4.5h-6.5V10.75z"/>
</svg>






