<?xml version="1.0" encoding="iso-8859-1"?>
<svg version="1.1" id="&#x56FE;&#x5C42;_1" xmlns="http://www.w3.org/2000/svg" xmlns:xlink="http://www.w3.org/1999/xlink" x="0px"
	 y="0px" viewBox="0 0 24 24" style="enable-background:new 0 0 24 24;" xml:space="preserve">
<path style="fill:#333333;" d="M19,22.25H5c-0.689,0-1.25-0.561-1.25-1.25V3c0-0.689,0.561-1.25,1.25-1.25h14
	c0.689,0,1.25,0.561,1.25,1.25v18C20.25,21.689,19.689,22.25,19,22.25z M5,2.25C4.586,2.25,4.25,2.586,4.25,3v18
	c0,0.413,0.336,0.75,0.75,0.75h14c0.413,0,0.75-0.337,0.75-0.75V3c0-0.414-0.337-0.75-0.75-0.75H5z"/>
<path style="fill:none;" d="M14,8c0,0.69-0.28,1.315-0.732,1.768C12.815,10.22,12.19,10.5,11.5,10.5C10.119,10.5,9,9.381,9,8
	s1.119-2.5,2.5-2.5S14,6.619,14,8z"/>
<path style="fill:#333333;" d="M14.823,11.677l-1.563-1.563c-0.493,0.412-1.109,0.637-1.76,0.637c-1.517,0-2.75-1.233-2.75-2.75
	s1.233-2.75,2.75-2.75S14.25,6.483,14.25,8c0,0.65-0.225,1.267-0.637,1.76l1.563,1.563L14.823,11.677z M11.5,5.75
	c-1.241,0-2.25,1.009-2.25,2.25s1.009,2.25,2.25,2.25c0.602,0,1.166-0.234,1.591-0.659l0,0C13.516,9.166,13.75,8.601,13.75,8
	C13.75,6.759,12.74,5.75,11.5,5.75z"/>
<rect x="8.5" y="14.75" style="fill:#333333;" width="7" height="0.5"/>
<rect x="8.5" y="17.75" style="fill:#333333;" width="3.5" height="0.5"/>
</svg>






