<?xml version="1.0" encoding="iso-8859-1"?>
<svg version="1.1" id="&#x56FE;&#x5C42;_1" xmlns="http://www.w3.org/2000/svg" xmlns:xlink="http://www.w3.org/1999/xlink" x="0px"
	 y="0px" viewBox="0 0 24 24" style="enable-background:new 0 0 24 24;" xml:space="preserve">
<path style="fill:#333333;" d="M10.5,22.25H5c-0.689,0-1.25-0.561-1.25-1.25V3c0-0.689,0.561-1.25,1.25-1.25h14
	c0.689,0,1.25,0.561,1.25,1.25v10.5h-0.5V3c0-0.414-0.337-0.75-0.75-0.75H5C4.586,2.25,4.25,2.586,4.25,3v18
	c0,0.413,0.336,0.75,0.75,0.75h5.5V22.25z"/>
<rect x="8.5" y="5.75" style="fill:#333333;" width="7" height="0.5"/>
<rect x="8.5" y="9.75" style="fill:#333333;" width="7" height="0.5"/>
<rect x="8.5" y="13.75" style="fill:#333333;" width="3" height="0.5"/>
<path style="fill:none;" d="M18.5,18.5c0,0.69-0.28,1.315-0.732,1.768C17.315,20.72,16.69,21,16,21c-1.381,0-2.5-1.119-2.5-2.5
	S14.619,16,16,16S18.5,17.119,18.5,18.5z"/>
<path style="fill:#333333;" d="M19.323,22.177l-1.563-1.563C17.267,21.025,16.65,21.25,16,21.25c-1.517,0-2.75-1.233-2.75-2.75
	s1.233-2.75,2.75-2.75s2.75,1.233,2.75,2.75c0,0.65-0.225,1.267-0.637,1.76l1.563,1.563L19.323,22.177z M16,16.25
	c-1.24,0-2.25,1.01-2.25,2.25s1.01,2.25,2.25,2.25c0.601,0,1.166-0.234,1.591-0.659s0.659-0.99,0.659-1.591
	C18.25,17.26,17.24,16.25,16,16.25z"/>
</svg>






