<?xml version="1.0" encoding="iso-8859-1"?>
<svg version="1.1" id="&#x56FE;&#x5C42;_1" xmlns="http://www.w3.org/2000/svg" xmlns:xlink="http://www.w3.org/1999/xlink" x="0px"
	 y="0px" viewBox="0 0 24 24" style="enable-background:new 0 0 24 24;" xml:space="preserve">
<path style="fill:#333333;" d="M3.25,22h-0.5V9.5c0-2.756,2.066-4.993,7.131-7.72l0.369-0.198V6.25h3.5V9.5h-0.5V6.75h-3.5V2.42
	c-4.61,2.535-6.5,4.601-6.5,7.08V22z"/>
<path style="fill:#333333;" d="M17.09,22.193c-0.321,0-0.596-0.049-0.813-0.109c-1.158-0.322-1.895-1.271-2.023-2.043
	c-0.809-4.852-4.416-6.452-6.354-7.312l0.203-0.457c1.88,0.834,5.792,2.57,6.646,7.688c0.1,0.6,0.717,1.38,1.663,1.644
	c1.248,0.35,2.629-0.281,3.9-1.766c0.498-0.533,0.698-1.146,0.557-1.69c-0.18-0.688-0.893-1.249-2.062-1.624l0.152-0.477
	c1.694,0.543,2.236,1.373,2.393,1.975c0.186,0.713-0.058,1.496-0.668,2.15C19.285,21.801,18.002,22.193,17.09,22.193z"/>
<path style="fill:#333333;" d="M8.75,22h-0.5c0-1.2,0.423-2.187,1.258-2.932c1.437-1.284,3.581-1.425,4.521-1.316l-0.057,0.496
	c-0.998-0.113-2.921,0.112-4.131,1.193C9.117,20.088,8.75,20.948,8.75,22z"/>
</svg>






