<?xml version="1.0" encoding="iso-8859-1"?>
<svg version="1.1" id="&#x56FE;&#x5C42;_1" xmlns="http://www.w3.org/2000/svg" xmlns:xlink="http://www.w3.org/1999/xlink" x="0px"
	 y="0px" viewBox="0 0 24 24" style="enable-background:new 0 0 24 24;" xml:space="preserve">
<path style="fill:#333333;" d="M4.251,9.028C3.831,5.239,6.307,2.691,7.41,2.267l0.23-0.088l1.091,2.729L8.268,5.093l-0.9-2.251
	C6.319,3.448,4.391,5.75,4.749,8.972L4.251,9.028z"/>
<path style="fill:#333333;" d="M19.748,9.028l-0.496-0.056c0.358-3.222-1.57-5.523-2.619-6.13l-0.9,2.251l-0.465-0.186l1.092-2.729
	l0.23,0.088C17.693,2.691,20.17,5.239,19.748,9.028z"/>
<path style="fill:#333333;" d="M12,21.75c-5.619,0-9.25-2.944-9.25-7.5c0-4.721,3.956-10,9.25-10s9.25,5.279,9.25,10
	C21.25,18.806,17.619,21.75,12,21.75z M12,4.75c-5.008,0-8.75,5.016-8.75,9.5c0,5.161,4.52,7,8.75,7c4.23,0,8.75-1.839,8.75-7
	C20.75,9.766,17.008,4.75,12,4.75z"/>
<circle style="fill:#333333;" cx="10" cy="8.5" r="1"/>
<circle style="fill:#333333;" cx="14" cy="8.5" r="1"/>
<path style="fill:#333333;" d="M10.5,16c-0.965,0-1.75-0.785-1.75-1.75h0.5c0,0.689,0.561,1.25,1.25,1.25
	c0.382,0,0.665-0.1,0.864-0.305c0.431-0.442,0.407-1.322,0.391-1.905c-0.003-0.106-0.005-0.204-0.005-0.29h0.5
	c0,0.082,0.003,0.176,0.005,0.276c0.019,0.667,0.046,1.674-0.532,2.268C11.428,15.847,11.017,16,10.5,16z"/>
<path style="fill:#333333;" d="M13.513,16c-0.518,0-0.929-0.153-1.223-0.456c-0.578-0.594-0.551-1.601-0.533-2.267
	c0.003-0.102,0.005-0.195,0.005-0.277h0.5c0,0.086-0.003,0.185-0.006,0.29c-0.016,0.583-0.039,1.463,0.392,1.905
	C12.848,15.4,13.13,15.5,13.513,15.5c0.689,0,1.25-0.561,1.25-1.25h0.5C15.263,15.215,14.478,16,13.513,16z"/>
<path style="fill:#333333;" d="M12,14.033l-0.117-0.062c-0.423-0.225-1.133-0.665-1.133-1.096C10.75,12.612,10.872,12,12,12
	c1.128,0,1.25,0.612,1.25,0.875c0,0.431-0.71,0.871-1.133,1.096L12,14.033z M12,12.5c-0.498,0-0.75,0.126-0.75,0.375
	c0.028,0.103,0.371,0.373,0.75,0.59c0.375-0.215,0.715-0.482,0.75-0.597C12.745,12.624,12.493,12.5,12,12.5z"/>
</svg>






