<?xml version="1.0" encoding="iso-8859-1"?>
<svg version="1.1" id="&#x56FE;&#x5C42;_1" xmlns="http://www.w3.org/2000/svg" xmlns:xlink="http://www.w3.org/1999/xlink" x="0px"
	 y="0px" viewBox="0 0 24 24" style="enable-background:new 0 0 24 24;" xml:space="preserve">
<path style="fill:#333333;" d="M15.611,21.724l-0.351-0.295c0.248-0.831,0.859-2.676,1.448-3.903l-0.192-0.266
	c-1.599-2.209-4.254-5.878-7.896-7.439C8.11,10.867,7.75,11.765,7.75,12l-0.482,0.093l-0.047-0.116
	C7.015,11.47,6.48,10.153,6.272,8.684C5.633,8.455,4.782,8.18,4.147,7.974C3.854,7.879,3.6,7.797,3.421,7.737
	C2.77,7.5,2.032,7.016,2.072,6.426C2.107,5.916,2.69,5.54,3.852,5.277l0.023-0.032c0.897-1.27,3.265-4.621,8.108-2.039
	c0.617-0.432,1.976-1.26,3.63-0.43l0.348,0.175l-0.304,0.244c-0.118,0.095-0.434,0.498-0.869,2.189
	c2.048,1.333,4.808,5.372,4.471,11.495C20.24,17.611,22.25,19.316,22.25,21v0.331l-3.726-1.063L15.611,21.724z M8.379,9.182
	l0.214,0.086c3.886,1.56,6.667,5.403,8.329,7.699l0.369,0.509l-0.067,0.136c-0.485,0.976-1,2.438-1.311,3.402l2.562-1.281
	l3.241,0.927c-0.279-1.467-2.233-2.997-2.864-3.457l-0.11-0.081l0.008-0.137c0.383-6.137-2.408-10.102-4.378-11.27L14.213,5.62
	l0.045-0.181c0.284-1.143,0.561-1.917,0.838-2.344c-1.374-0.521-2.466,0.261-2.95,0.608l-0.128,0.092l-0.138-0.076
	C7.335,1.215,5.196,4.241,4.283,5.533L4.147,5.724L4.053,5.745C2.669,6.042,2.576,6.393,2.571,6.46
	C2.555,6.69,3.02,7.059,3.586,7.265C3.757,7.323,4.01,7.404,4.301,7.499c0.686,0.222,1.626,0.526,2.285,0.767l0.143,0.052
	l0.019,0.152c0.134,1.072,0.463,2.082,0.71,2.745c0.25-0.668,0.656-1.501,0.818-1.825L8.379,9.182z"/>
<circle style="fill:#333333;" cx="8" cy="5.5" r="1"/>
</svg>






