<?xml version="1.0" encoding="iso-8859-1"?>
<svg version="1.1" id="&#x56FE;&#x5C42;_1" xmlns="http://www.w3.org/2000/svg" xmlns:xlink="http://www.w3.org/1999/xlink" x="0px"
	 y="0px" viewBox="0 0 24 24" style="enable-background:new 0 0 24 24;" xml:space="preserve">
<path style="fill:#333333;" d="M15,22.25H4c-0.689,0-1.25-0.561-1.25-1.25V3c0-0.689,0.561-1.25,1.25-1.25h11
	c0.689,0,1.25,0.561,1.25,1.25v18C16.25,21.689,15.689,22.25,15,22.25z M4,2.25C3.586,2.25,3.25,2.586,3.25,3v18
	c0,0.413,0.336,0.75,0.75,0.75h11c0.413,0,0.75-0.337,0.75-0.75V3c0-0.414-0.337-0.75-0.75-0.75H4z"/>
<rect x="7" y="16.75" style="fill:#333333;" width="5" height="0.5"/>
<path style="fill:#333333;" d="M9.5,11.25c-1.517,0-2.75-1.233-2.75-2.75S7.983,5.75,9.5,5.75c0.831,0,1.597,0.363,2.122,1h9.628
	v3.5h-9.628C11.097,10.887,10.331,11.25,9.5,11.25z M9.5,6.25c-1.241,0-2.25,1.009-2.25,2.25s1.009,2.25,2.25,2.25
	c0.714,0,1.371-0.328,1.8-0.9l0.075-0.1h9.375v-2.5h-9.375L11.3,7.15C10.871,6.578,10.214,6.25,9.5,6.25z"/>
</svg>






