<?xml version="1.0" encoding="iso-8859-1"?>
<svg version="1.1" id="&#x56FE;&#x5C42;_1" xmlns="http://www.w3.org/2000/svg" xmlns:xlink="http://www.w3.org/1999/xlink" x="0px"
	 y="0px" viewBox="0 0 24 24" style="enable-background:new 0 0 24 24;" xml:space="preserve">
<g>
	<path style="fill:#333333;" d="M12,16.5c2.485,0,4.5-2.015,4.5-4.5S14.485,7.5,12,7.5S7.5,9.515,7.5,12S9.515,16.5,12,16.5z"/>
	<path style="fill:#333333;" d="M12,16.75c-2.619,0-4.75-2.131-4.75-4.75S9.381,7.25,12,7.25s4.75,2.131,4.75,4.75
		S14.619,16.75,12,16.75z M12,7.75c-2.343,0-4.25,1.907-4.25,4.25c0,2.344,1.907,4.25,4.25,4.25c2.344,0,4.25-1.906,4.25-4.25
		C16.25,9.657,14.344,7.75,12,7.75z"/>
</g>
</svg>






