<?xml version="1.0" encoding="iso-8859-1"?>
<svg version="1.1" id="&#x56FE;&#x5C42;_1" xmlns="http://www.w3.org/2000/svg" xmlns:xlink="http://www.w3.org/1999/xlink" x="0px"
	 y="0px" viewBox="0 0 24 24" style="enable-background:new 0 0 24 24;" xml:space="preserve">
<path style="fill:#333333;" d="M20.25,11.75H3.75V6c0-0.965,0.785-1.75,1.75-1.75h13c0.965,0,1.75,0.785,1.75,1.75V11.75z
	 M4.25,11.25h15.5V6c0-0.689-0.561-1.25-1.25-1.25h-13C4.811,4.75,4.25,5.311,4.25,6V11.25z"/>
<rect x="2.75" y="17.5" style="fill:#333333;" width="0.5" height="2"/>
<rect x="20.75" y="17.5" style="fill:#333333;" width="0.5" height="2"/>
<path style="fill:#333333;" d="M11.75,11.75h-6.5V10.5c0-0.965,0.785-1.75,1.75-1.75h3c0.965,0,1.75,0.785,1.75,1.75V11.75z
	 M5.75,11.25h5.5V10.5c0-0.689-0.561-1.25-1.25-1.25H7c-0.689,0-1.25,0.561-1.25,1.25V11.25z"/>
<path style="fill:#333333;" d="M18.75,11.75h-6.5V10.5c0-0.965,0.785-1.75,1.75-1.75h3c0.965,0,1.75,0.785,1.75,1.75V11.75z
	 M12.75,11.25h5.5V10.5c0-0.689-0.561-1.25-1.25-1.25h-3c-0.689,0-1.25,0.561-1.25,1.25V11.25z"/>
<path style="fill:#333333;" d="M22.25,17.75H1.75V13c0-0.965,0.785-1.75,1.75-1.75h17c0.965,0,1.75,0.785,1.75,1.75V17.75z
	 M2.25,17.25h19.5V13c0-0.689-0.561-1.25-1.25-1.25h-17c-0.689,0-1.25,0.561-1.25,1.25V17.25z"/>
</svg>






