<?xml version="1.0" encoding="iso-8859-1"?>
<svg version="1.1" id="&#x56FE;&#x5C42;_1" xmlns="http://www.w3.org/2000/svg" xmlns:xlink="http://www.w3.org/1999/xlink" x="0px"
	 y="0px" viewBox="0 0 24 24" style="enable-background:new 0 0 24 24;" xml:space="preserve">
<path style="fill:#333333;" d="M12,21.75c-5.376,0-9.75-4.374-9.75-9.75S6.624,2.25,12,2.25s9.75,4.374,9.75,9.75
	S17.376,21.75,12,21.75z M12,2.75c-5.101,0-9.25,4.149-9.25,9.25s4.149,9.25,9.25,9.25s9.25-4.149,9.25-9.25S17.101,2.75,12,2.75z"
	/>
<path style="fill:#333333;" d="M12,15.75c-2.068,0-3.75-1.683-3.75-3.75c0-2.068,1.682-3.75,3.75-3.75c2.067,0,3.75,1.682,3.75,3.75
	C15.75,14.067,14.067,15.75,12,15.75z M12,8.75c-1.792,0-3.25,1.458-3.25,3.25s1.458,3.25,3.25,3.25s3.25-1.458,3.25-3.25
	S13.792,8.75,12,8.75z"/>
<path style="fill:#333333;" d="M8.021,14.579c-0.539,0-1.264-0.199-2.17-0.879c-1.129-0.848-2.671,0.476-2.686,0.488l-0.329-0.377
	c0.076-0.066,1.863-1.6,3.314-0.512c1.782,1.337,2.64,0.556,2.675,0.521l0.352,0.355C9.149,14.204,8.76,14.579,8.021,14.579z"/>
<path style="fill:#333333;" d="M14.708,14.639l-0.416-0.277c0.428-0.643,2.198-2.28,3.807-1.591
	c1.298,0.557,2.369,0.352,2.893,0.007c0.213-0.141,0.259-0.256,0.259-0.277h0.5c0,0.242-0.172,0.489-0.483,0.694
	c-0.626,0.414-1.882,0.671-3.365,0.035C16.567,12.659,15.024,14.161,14.708,14.639z"/>
</svg>






