<?xml version="1.0" encoding="iso-8859-1"?>
<svg version="1.1" id="&#x56FE;&#x5C42;_1" xmlns="http://www.w3.org/2000/svg" xmlns:xlink="http://www.w3.org/1999/xlink" x="0px"
	 y="0px" viewBox="0 0 24 24" style="enable-background:new 0 0 24 24;" xml:space="preserve">
<path style="fill:#333333;" d="M22,12c0-0.552-0.448-1-1-1s-1,0.448-1,1H22z M12,4c0.552,0,1-0.448,1-1s-0.448-1-1-1V4z M19.5,20
	h-15v2h15V20z M4,19.5v-15H2v15H4z M20,12v7.5h2V12H20z M4.5,4H12V2H4.5V4z M4.5,20C4.224,20,4,19.776,4,19.5H2
	C2,20.881,3.119,22,4.5,22V20z M19.5,22c1.381,0,2.5-1.119,2.5-2.5h-2c0,0.276-0.224,0.5-0.5,0.5V22z M4,4.5C4,4.224,4.224,4,4.5,4
	V2C3.119,2,2,3.119,2,4.5H4z"/>
<path style="fill:#333333;" d="M15.837,18.189L9.51,12.767c-0.287-0.245-0.716-0.24-0.995,0.017l-5.347,4.901l-0.338-0.369
	l5.347-4.901c0.465-0.425,1.178-0.438,1.658-0.026l6.328,5.423L15.837,18.189z"/>
<path style="fill:#333333;" d="M20.85,15.7l-3.306-2.479c-0.296-0.224-0.717-0.193-0.98,0.069l-2.387,2.387l-0.354-0.354
	l2.387-2.387c0.437-0.438,1.138-0.487,1.635-0.116L21.15,15.3L20.85,15.7z"/>
<polygon style="fill:#333333;" points="18.5,9.354 15.823,6.677 16.177,6.323 18.5,8.646 20.823,6.323 21.177,6.677 "/>
<rect x="18.25" y="3" style="fill:#333333;" width="0.5" height="6"/>
</svg>






