<?xml version="1.0" encoding="iso-8859-1"?>
<svg version="1.1" id="&#x56FE;&#x5C42;_1" xmlns="http://www.w3.org/2000/svg" xmlns:xlink="http://www.w3.org/1999/xlink" x="0px"
	 y="0px" viewBox="0 0 24 24" style="enable-background:new 0 0 24 24;" xml:space="preserve">
<path style="fill:#333333;" d="M20.25,16.75H3.75V6c0-0.965,0.785-1.75,1.75-1.75h7v0.5h-7C4.811,4.75,4.25,5.311,4.25,6v10.25h15.5
	V12.5h0.5V16.75z"/>
<path style="fill:#333333;" d="M19,20.75H5c-1.792,0-3.25-1.458-3.25-3.25v-1.25h20.5v1.25C22.25,19.292,20.792,20.75,19,20.75z
	 M2.25,16.75v0.75c0,1.517,1.233,2.75,2.75,2.75h14c1.517,0,2.75-1.233,2.75-2.75v-0.75H2.25z"/>
<polygon style="fill:#333333;" points="18,9.854 15.323,7.177 15.677,6.823 18,9.146 20.323,6.823 20.677,7.177 "/>
<rect x="17.75" y="3.5" style="fill:#333333;" width="0.5" height="6"/>
</svg>






