<?xml version="1.0" encoding="iso-8859-1"?>
<svg version="1.1" id="&#x56FE;&#x5C42;_1" xmlns="http://www.w3.org/2000/svg" xmlns:xlink="http://www.w3.org/1999/xlink" x="0px"
	 y="0px" viewBox="0 0 24 24" style="enable-background:new 0 0 24 24;" xml:space="preserve">
<path style="fill:#333333;" d="M13.5,20.25h-10c-0.965,0-1.75-0.785-1.75-1.75v-13c0-0.965,0.785-1.75,1.75-1.75h17
	c0.965,0,1.75,0.785,1.75,1.75V12h-0.5V5.5c0-0.689-0.561-1.25-1.25-1.25h-17c-0.689,0-1.25,0.561-1.25,1.25v13
	c0,0.689,0.561,1.25,1.25,1.25h10V20.25z"/>
<polygon style="fill:#333333;" points="19.5,20.854 16.823,18.177 17.177,17.823 19.5,20.146 21.823,17.823 22.177,18.177 "/>
<rect x="19.25" y="14.5" style="fill:#333333;" width="0.5" height="6"/>
<path style="fill:#333333;" d="M22.25,10.25H1.75V5.5c0-0.965,0.785-1.75,1.75-1.75h17c0.965,0,1.75,0.785,1.75,1.75V10.25z
	 M2.25,9.75h19.5V5.5c0-0.689-0.561-1.25-1.25-1.25h-17c-0.689,0-1.25,0.561-1.25,1.25V9.75z"/>
<circle style="fill:#333333;" cx="5" cy="7" r="1"/>
<circle style="fill:#333333;" cx="8" cy="7" r="1"/>
</svg>






