<?xml version="1.0" encoding="iso-8859-1"?>
<svg version="1.1" id="&#x56FE;&#x5C42;_1" xmlns="http://www.w3.org/2000/svg" xmlns:xlink="http://www.w3.org/1999/xlink" x="0px"
	 y="0px" viewBox="0 0 24 24" style="enable-background:new 0 0 24 24;" xml:space="preserve">
<g>
	<defs>
		<rect id="SVGID_1_" width="24" height="24"/>
	</defs>
	<clipPath id="SVGID_00000121259558281069088030000009521881566944601260_">
		<use xlink:href="#SVGID_1_"  style="overflow:visible;"/>
	</clipPath>
	<g style="clip-path:url(#SVGID_00000121259558281069088030000009521881566944601260_);">
		<path style="fill:#333333;" d="M17.188,21.424l-0.354-0.354l1.87-1.87c1.072-1.072,1.072-2.816,0-3.889
			c-1.071-1.071-2.816-1.072-3.89,0l-1.115,1.115l-0.354-0.354l1.115-1.115c1.268-1.267,3.328-1.269,4.597,0
			c0.613,0.613,0.951,1.43,0.951,2.298s-0.338,1.685-0.951,2.298L17.188,21.424z"/>
		<path style="fill:#333333;" d="M8.714,12.927L8.36,12.573l3.272-3.272c0.52-0.52,0.806-1.21,0.806-1.945s-0.286-1.425-0.806-1.944
			s-1.21-0.806-1.945-0.806c-0.734,0-1.425,0.286-1.944,0.806L4.208,8.947L3.854,8.594L7.39,5.059
			c0.614-0.614,1.43-0.952,2.298-0.952c0.869,0,1.685,0.338,2.298,0.952c0.614,0.614,0.952,1.43,0.952,2.298
			s-0.338,1.685-0.952,2.298L8.714,12.927z"/>
		<path style="fill:#333333;" d="M6.506,22.274c-0.869,0-1.685-0.338-2.298-0.952c-1.267-1.268-1.267-3.329,0-4.597l4.153-4.152
			l0.354,0.354l-4.153,4.152c-1.072,1.072-1.072,2.817,0,3.89c0.52,0.52,1.21,0.806,1.945,0.806c0.734,0,1.425-0.286,1.944-0.806
			l4.883-4.883l0.354,0.354l-4.883,4.883C8.19,21.937,7.375,22.274,6.506,22.274z"/>
		<rect x="6.25" y="2" style="fill:#333333;" width="0.5" height="4"/>
		
			<rect x="18.482" y="13.5" transform="matrix(0.7071 -0.7071 0.7071 0.7071 -3.7916 18.3462)" style="fill:#333333;" width="3.536" height="0.5"/>
	</g>
</g>
</svg>






