<?xml version="1.0" encoding="iso-8859-1"?>
<svg version="1.1" id="&#x56FE;&#x5C42;_1" xmlns="http://www.w3.org/2000/svg" xmlns:xlink="http://www.w3.org/1999/xlink" x="0px"
	 y="0px" viewBox="0 0 24 24" style="enable-background:new 0 0 24 24;" xml:space="preserve">
<path style="fill:#333333;" d="M12,22.25C6.348,22.25,1.75,17.652,1.75,12c0-2.64,1.001-5.147,2.819-7.06
	C6.524,2.883,9.163,1.75,12,1.75c2.729,0,5.298,1.061,7.232,2.986C21.178,6.674,22.25,9.254,22.25,12
	c0,2.745-1.071,5.325-3.018,7.264C17.297,21.189,14.729,22.25,12,22.25z M12,2.25c-2.699,0-5.209,1.078-7.069,3.035
	C3.202,7.104,2.25,9.489,2.25,12c0,5.376,4.374,9.75,9.75,9.75c2.596,0,5.039-1.009,6.879-2.84c1.852-1.845,2.871-4.299,2.871-6.91
	c0-2.612-1.02-5.066-2.871-6.909C17.039,3.259,14.597,2.25,12,2.25z"/>
<path style="fill:#333333;" d="M5.132,19.223l-0.401-0.299c1.314-1.764,4.219-4.425,8.082-6.121
	c3.052-1.341,6.443-1.175,8.264-1.086c0.37,0.018,0.683,0.033,0.924,0.033v0.5c-0.248,0-0.568-0.016-0.948-0.034
	c-1.904-0.094-5.095-0.248-8.038,1.044C9.241,14.917,6.41,17.508,5.132,19.223z"/>
<path style="fill:#333333;" d="M16.286,20.973c-0.077-0.343-0.166-0.901-0.279-1.608c-0.304-1.91-0.813-5.108-1.743-7.782
	c-1.198-3.448-4.451-7.073-6.183-8.671l0.339-0.367c0.487,0.449,4.8,4.515,6.317,8.875c0.944,2.715,1.458,5.94,1.765,7.868
	c0.111,0.698,0.199,1.249,0.273,1.575L16.286,20.973z"/>
<path style="fill:#333333;" d="M4.231,11.062c-0.95,0-1.719-0.035-2.169-0.062l0.03-0.499c1.505,0.09,6.679,0.277,9.975-1.13
	c2.863-1.223,5.333-3.347,6.52-4.368l0.316-0.271l0.322,0.382l-0.312,0.268c-1.206,1.038-3.715,3.196-6.648,4.449
	C9.862,10.856,6.523,11.062,4.231,11.062z"/>
<path style="fill:#333333;" d="M7.131,21.021c-2.077-1.123-3.714-2.941-4.612-5.119l0.462-0.191
	c0.854,2.072,2.412,3.803,4.388,4.871L7.131,21.021z"/>
<path style="fill:#333333;" d="M2.25,12h-0.5c0-2.64,1.001-5.147,2.819-7.06l0.362,0.345C3.202,7.104,2.25,9.489,2.25,12z"/>
<path style="fill:#333333;" d="M4.931,5.285L4.569,4.94C6.524,2.883,9.163,1.75,12,1.75v0.5C9.301,2.25,6.791,3.328,4.931,5.285z"/>
<path style="fill:#333333;" d="M21.604,15.588l-0.469-0.176c0.407-1.09,0.614-2.238,0.614-3.412c0-2.612-1.02-5.066-2.871-6.909
	c-0.863-0.86-1.865-1.543-2.979-2.03l0.201-0.458c1.17,0.511,2.224,1.229,3.132,2.133C21.178,6.674,22.25,9.254,22.25,12
	C22.25,13.233,22.033,14.44,21.604,15.588z"/>
<path style="fill:#333333;" d="M12,22.25v-0.5c2.596,0,5.039-1.009,6.879-2.84l0.354,0.354C17.297,21.189,14.729,22.25,12,22.25z"/>
</svg>






