<?xml version="1.0" encoding="iso-8859-1"?>
<svg version="1.1" id="&#x56FE;&#x5C42;_1" xmlns="http://www.w3.org/2000/svg" xmlns:xlink="http://www.w3.org/1999/xlink" x="0px"
	 y="0px" viewBox="0 0 24 24" style="enable-background:new 0 0 24 24;" xml:space="preserve">
<rect x="5" y="7.75" style="fill:#333333;" width="14" height="0.5"/>
<path style="fill:#333333;" d="M15.069,22.25H8.931c-0.652,0-1.2-0.51-1.247-1.161l-0.857-12C6.803,8.744,6.923,8.401,7.159,8.148
	C7.395,7.895,7.728,7.75,8.074,7.75h7.852c0.346,0,0.68,0.145,0.915,0.398s0.356,0.596,0.332,0.941l-0.857,12
	C16.27,21.74,15.722,22.25,15.069,22.25z M8.074,8.25c-0.211,0-0.406,0.085-0.549,0.239C7.382,8.643,7.311,8.843,7.326,9.053v0
	l0.857,12c0.028,0.391,0.356,0.696,0.748,0.696h6.138c0.392,0,0.72-0.306,0.748-0.696l0.857-12c0.015-0.21-0.057-0.411-0.2-0.565
	c-0.143-0.154-0.338-0.239-0.549-0.239H8.074z"/>
<path style="fill:#333333;" d="M12.25,5h-0.5V3c0-0.689,0.561-1.25,1.25-1.25h1.5v0.5H13c-0.413,0-0.75,0.336-0.75,0.75V5z"/>
<path style="fill:#333333;" d="M17.295,8.25H6.705l0.409-2.456C7.215,5.189,7.733,4.75,8.347,4.75h7.306
	c0.612,0,1.131,0.439,1.232,1.044L17.295,8.25z M7.295,7.75h9.41l-0.312-1.874c-0.061-0.363-0.372-0.626-0.739-0.626H8.347
	c-0.368,0-0.679,0.264-0.74,0.626L7.295,7.75z"/>
</svg>






