<?xml version="1.0" encoding="iso-8859-1"?>
<svg version="1.1" id="&#x56FE;&#x5C42;_1" xmlns="http://www.w3.org/2000/svg" xmlns:xlink="http://www.w3.org/1999/xlink" x="0px"
	 y="0px" viewBox="0 0 24 24" style="enable-background:new 0 0 24 24;" xml:space="preserve">
<path style="fill:#333333;" d="M17.823,18.177l-3.5-3.5l0.354-0.354l3.5,3.5L17.823,18.177z M9.323,9.677l-3.5-3.5l0.354-0.354
	l3.5,3.5L9.323,9.677z"/>
<path style="fill:#333333;" d="M6.177,18.177l-0.354-0.354l3.5-3.5l0.354,0.354L6.177,18.177z M14.677,9.677l-0.354-0.354l3.5-3.5
	l0.354,0.354L14.677,9.677z"/>
<path style="fill:#333333;" d="M14.75,14.75h-5.5v-5.5h5.5V14.75z M9.75,14.25h4.5v-4.5h-4.5V14.25z"/>
<path style="fill:#333333;" d="M18,9.75v-0.5c0.646,0,1.27-0.189,1.806-0.548c0.536-0.358,0.95-0.862,1.196-1.458
	c0.247-0.596,0.311-1.245,0.186-1.877c-0.125-0.632-0.433-1.208-0.89-1.665c-0.456-0.456-1.031-0.764-1.664-0.889
	c-0.629-0.125-1.28-0.062-1.878,0.185c-0.596,0.247-1.1,0.661-1.458,1.197C14.939,4.73,14.75,5.354,14.75,6h-0.5
	c0-0.745,0.219-1.465,0.632-2.083c0.414-0.619,0.995-1.096,1.683-1.381c0.688-0.285,1.44-0.358,2.167-0.213
	c0.729,0.145,1.394,0.5,1.92,1.026c0.527,0.527,0.882,1.191,1.026,1.92c0.145,0.729,0.071,1.479-0.213,2.167
	c-0.285,0.688-0.763,1.27-1.382,1.683C19.465,9.531,18.745,9.75,18,9.75z"/>
<path style="fill:#333333;" d="M17.998,21.75c-0.489,0-0.975-0.096-1.434-0.285c-0.688-0.285-1.27-0.763-1.683-1.382
	C14.469,19.465,14.25,18.745,14.25,18h0.5c0,0.646,0.189,1.27,0.548,1.806s0.862,0.95,1.458,1.197
	c0.596,0.245,1.245,0.31,1.878,0.185c0.632-0.126,1.208-0.434,1.664-0.89s0.764-1.032,0.89-1.664
	c0.126-0.633,0.062-1.282-0.186-1.878c-0.246-0.596-0.66-1.1-1.196-1.458S18.646,14.75,18,14.75v-0.5
	c0.745,0,1.465,0.219,2.083,0.632c0.619,0.413,1.097,0.995,1.381,1.683c0.285,0.688,0.358,1.438,0.214,2.167s-0.5,1.394-1.026,1.92
	s-1.19,0.882-1.92,1.026C18.488,21.727,18.242,21.75,17.998,21.75z"/>
<path style="fill:#333333;" d="M6.001,21.75c-0.244,0-0.49-0.023-0.733-0.072c-0.729-0.145-1.393-0.499-1.92-1.026
	c-0.526-0.526-0.881-1.19-1.026-1.92c-0.146-0.729-0.072-1.479,0.213-2.167c0.285-0.688,0.762-1.269,1.381-1.683
	C4.535,14.469,5.255,14.25,6,14.25v0.5c-0.646,0-1.27,0.189-1.805,0.548c-0.537,0.358-0.951,0.862-1.197,1.458
	c-0.247,0.596-0.311,1.245-0.185,1.878c0.125,0.633,0.433,1.208,0.889,1.664c0.457,0.457,1.033,0.765,1.665,0.89
	c0.63,0.125,1.281,0.062,1.877-0.186c0.596-0.246,1.101-0.66,1.458-1.196C9.061,19.27,9.25,18.646,9.25,18h0.5
	c0,0.745-0.219,1.465-0.632,2.083c-0.414,0.619-0.996,1.097-1.683,1.382C6.977,21.654,6.491,21.75,6.001,21.75z"/>
<path style="fill:#333333;" d="M6,9.75c-0.745,0-1.465-0.219-2.083-0.632C3.297,8.704,2.82,8.122,2.536,7.435
	C2.25,6.748,2.177,5.998,2.322,5.269c0.145-0.729,0.5-1.394,1.026-1.92c0.527-0.526,1.191-0.881,1.92-1.026
	C6,2.177,6.748,2.251,7.435,2.536C8.122,2.82,8.704,3.297,9.118,3.917C9.531,4.535,9.75,5.255,9.75,6h-0.5
	c0-0.646-0.189-1.27-0.548-1.805C8.344,3.658,7.839,3.244,7.244,2.998C6.648,2.75,5.998,2.686,5.366,2.812
	C4.734,2.938,4.158,3.246,3.702,3.702C3.246,4.158,2.938,4.734,2.812,5.366C2.687,5.999,2.75,6.647,2.998,7.244
	c0.247,0.596,0.66,1.1,1.197,1.458C4.73,9.061,5.354,9.25,6,9.25V9.75z"/>
</svg>






