<?xml version="1.0" encoding="iso-8859-1"?>
<svg version="1.1" id="&#x56FE;&#x5C42;_1" xmlns="http://www.w3.org/2000/svg" xmlns:xlink="http://www.w3.org/1999/xlink" x="0px"
	 y="0px" viewBox="0 0 24 24" style="enable-background:new 0 0 24 24;" xml:space="preserve">
<path style="fill:#333333;" d="M12,21.75c-2.203,0-4.275-0.858-5.833-2.416C4.608,17.775,3.75,15.703,3.75,13.5
	c0-2.204,0.858-4.275,2.417-5.833S9.796,5.25,12,5.25c2.203,0,4.275,0.858,5.834,2.417c1.558,1.559,2.416,3.63,2.416,5.833
	s-0.858,4.275-2.416,5.834C16.275,20.892,14.203,21.75,12,21.75z M12,5.75c-2.07,0-4.016,0.806-5.48,2.27s-2.27,3.41-2.27,5.48
	c0,2.069,0.806,4.016,2.27,5.48c1.464,1.464,3.41,2.27,5.48,2.27c2.069,0,4.016-0.806,5.48-2.27c1.464-1.465,2.27-3.411,2.27-5.48
	c0-2.07-0.806-4.016-2.27-5.48C16.016,6.556,14.069,5.75,12,5.75z"/>
<path style="fill:#333333;" d="M19.602,5.898C17.571,3.868,14.872,2.75,12,2.75c-2.871,0-5.571,1.118-7.601,3.148L4.045,5.545
	C6.17,3.42,8.995,2.25,12,2.25s5.83,1.17,7.955,3.295L19.602,5.898z"/>
</svg>






