<?xml version="1.0" encoding="iso-8859-1"?>
<svg version="1.1" id="&#x56FE;&#x5C42;_1" xmlns="http://www.w3.org/2000/svg" xmlns:xlink="http://www.w3.org/1999/xlink" x="0px"
	 y="0px" viewBox="0 0 24 24" style="enable-background:new 0 0 24 24;" xml:space="preserve">
<g>
	<defs>
		<rect id="SVGID_1_" width="24" height="24"/>
	</defs>
	<clipPath id="SVGID_00000175299515871612144100000017975843808356687774_">
		<use xlink:href="#SVGID_1_"  style="overflow:visible;"/>
	</clipPath>
	<g style="clip-path:url(#SVGID_00000175299515871612144100000017975843808356687774_);">
		<path style="fill:#333333;" d="M12,13.301L5.549,9L12,4.7L18.451,9L12,13.301z M6.451,9L12,12.699L17.549,9L12,5.3L6.451,9z"/>
		<path style="fill:#333333;" d="M18.062,9.342l-6.455-4.303l3.357-3.357l5.892,3.749L18.062,9.342z M12.393,4.961l5.545,3.697
			l2.206-3.088l-5.108-3.251L12.393,4.961z"/>
		<path style="fill:#333333;" d="M5.938,9.342L3.143,5.431l5.892-3.749l3.357,3.357L5.938,9.342z M3.857,5.569l2.206,3.088
			l5.545-3.697L8.965,2.318L3.857,5.569z"/>
		<path style="fill:#333333;" d="M15.504,15.81l-3.944-2.816l6.43-4.287l3.964,2.266L15.504,15.81z M12.44,13.007l3.056,2.184
			l5.55-4.162L18.01,9.294L12.44,13.007z"/>
		<path style="fill:#333333;" d="M8.497,15.81l-6.451-4.838L6.01,8.706l6.43,4.287L8.497,15.81z M2.955,11.028l5.549,4.162
			l3.057-2.184L5.99,9.294L2.955,11.028z"/>
		<polygon style="fill:#333333;" points="12,22.289 5.75,18.644 5.75,14 6.25,14 6.25,18.356 12,21.711 17.75,18.356 17.75,14 
			18.25,14 18.25,18.644 		"/>
	</g>
</g>
</svg>






