<?xml version="1.0" encoding="iso-8859-1"?>
<svg version="1.1" id="&#x56FE;&#x5C42;_1" xmlns="http://www.w3.org/2000/svg" xmlns:xlink="http://www.w3.org/1999/xlink" x="0px"
	 y="0px" viewBox="0 0 24 24" style="enable-background:new 0 0 24 24;" xml:space="preserve">
<path style="fill:#333333;" d="M13.5,20.25c-2.203,0-4.275-0.858-5.833-2.416C6.108,16.275,5.25,14.203,5.25,12
	c0-2.204,0.858-4.275,2.417-5.833S11.296,3.75,13.5,3.75c2.203,0,4.275,0.858,5.834,2.417C20.892,7.725,21.75,9.797,21.75,12
	s-0.858,4.275-2.416,5.834C17.775,19.392,15.703,20.25,13.5,20.25z M13.5,4.25c-2.07,0-4.016,0.806-5.48,2.27S5.75,9.93,5.75,12
	c0,2.069,0.806,4.016,2.27,5.48c1.464,1.464,3.41,2.27,5.48,2.27c2.069,0,4.016-0.806,5.48-2.27c1.464-1.465,2.27-3.411,2.27-5.48
	c0-2.07-0.806-4.016-2.27-5.48C17.516,5.056,15.569,4.25,13.5,4.25z"/>
<path style="fill:#333333;" d="M5.545,19.955C3.42,17.829,2.25,15.004,2.25,12c0-3.005,1.17-5.83,3.295-7.955l0.354,0.354
	C3.868,6.429,2.75,9.129,2.75,12s1.118,5.57,3.148,7.602L5.545,19.955z"/>
</svg>






