<?xml version="1.0" encoding="iso-8859-1"?>
<svg version="1.1" id="&#x56FE;&#x5C42;_1" xmlns="http://www.w3.org/2000/svg" xmlns:xlink="http://www.w3.org/1999/xlink" x="0px"
	 y="0px" viewBox="0 0 24 24" style="enable-background:new 0 0 24 24;" xml:space="preserve">
<path style="fill:#333333;" d="M10.5,20.25c-2.203,0-4.275-0.858-5.833-2.416C3.108,16.275,2.25,14.203,2.25,12
	c0-2.204,0.858-4.275,2.417-5.833S8.296,3.75,10.5,3.75c2.203,0,4.275,0.858,5.834,2.417C17.892,7.725,18.75,9.797,18.75,12
	s-0.858,4.275-2.416,5.834C14.775,19.392,12.703,20.25,10.5,20.25z M10.5,4.25c-2.07,0-4.016,0.806-5.48,2.27S2.75,9.93,2.75,12
	c0,2.069,0.806,4.016,2.27,5.48c1.464,1.464,3.41,2.27,5.48,2.27c2.069,0,4.016-0.806,5.48-2.27c1.464-1.465,2.27-3.411,2.27-5.48
	c0-2.07-0.806-4.016-2.27-5.48C14.516,5.056,12.569,4.25,10.5,4.25z"/>
<path style="fill:#333333;" d="M18.455,19.955l-0.354-0.354c2.03-2.031,3.148-4.73,3.148-7.602s-1.118-5.571-3.148-7.602
	l0.354-0.354C20.58,6.17,21.75,8.995,21.75,12C21.75,15.004,20.58,17.829,18.455,19.955z"/>
</svg>






