<?xml version="1.0" encoding="iso-8859-1"?>
<svg version="1.1" id="&#x56FE;&#x5C42;_1" xmlns="http://www.w3.org/2000/svg" xmlns:xlink="http://www.w3.org/1999/xlink" x="0px"
	 y="0px" viewBox="0 0 24 24" style="enable-background:new 0 0 24 24;" xml:space="preserve">
<path style="fill:#333333;" d="M6.191,22.036l-4.243-4.242L2.09,17.37l5.279-0.755l-0.754,5.279L6.191,22.036z M2.656,17.794
	l3.536,3.535l0.589-4.124L2.656,17.794z"/>
<path style="fill:#333333;" d="M11.318,18.914c-1.6,0-3.201-0.608-4.419-1.827c-1.181-1.181-1.831-2.75-1.831-4.419
	c0-1.67,0.65-3.239,1.831-4.42l4.949-4.95l0.354,0.354l-4.949,4.95c-1.086,1.086-1.684,2.53-1.684,4.066s0.598,2.979,1.684,4.065
	c2.242,2.242,5.89,2.242,8.132,0l4.949-4.95l0.354,0.354l-4.949,4.949C14.519,18.306,12.919,18.914,11.318,18.914z"/>
<path style="fill:#333333;" d="M18.7,12.87c-1.546,0-3.476-0.892-5.084-2.501c-1.164-1.164-1.995-2.527-2.34-3.838
	c-0.357-1.358-0.154-2.506,0.573-3.233c0.727-0.727,1.874-0.931,3.232-0.573c1.311,0.345,2.674,1.176,3.838,2.34l0,0l0,0
	c2.438,2.437,3.23,5.608,1.769,7.071C20.19,12.634,19.496,12.87,18.7,12.87z M13.843,3.054c-0.681,0-1.245,0.202-1.641,0.598
	c-0.596,0.596-0.753,1.573-0.442,2.752c0.322,1.227,1.107,2.509,2.21,3.612c2.243,2.242,5.099,3.033,6.364,1.768
	c1.267-1.268,0.474-4.122-1.769-6.364l0,0c-1.103-1.103-2.385-1.887-3.611-2.21C14.559,3.105,14.186,3.054,13.843,3.054z"/>
<circle style="fill:#333333;" cx="15.03" cy="5.699" r="1"/>
<circle style="fill:#333333;" cx="18.566" cy="9.235" r="1"/>
<circle style="fill:#333333;" cx="15.737" cy="8.528" r="1"/>
</svg>






