<?xml version="1.0" encoding="iso-8859-1"?>
<svg version="1.1" id="&#x56FE;&#x5C42;_1" xmlns="http://www.w3.org/2000/svg" xmlns:xlink="http://www.w3.org/1999/xlink" x="0px"
	 y="0px" viewBox="0 0 24 24" style="enable-background:new 0 0 24 24;" xml:space="preserve">
<path style="fill:#333333;" d="M5.5,18.75c-0.965,0-1.75-0.695-1.75-1.55V6.8c0-0.854,0.785-1.55,1.75-1.55S7.25,5.945,7.25,6.8
	v10.4C7.25,18.055,6.465,18.75,5.5,18.75z M5.5,5.75c-0.689,0-1.25,0.471-1.25,1.05v10.4c0,0.579,0.561,1.05,1.25,1.05
	s1.25-0.471,1.25-1.05V6.8C6.75,6.221,6.189,5.75,5.5,5.75z"/>
<path style="fill:#333333;" d="M18.5,18.75c-0.965,0-1.75-0.695-1.75-1.55V6.8c0-0.854,0.785-1.55,1.75-1.55s1.75,0.695,1.75,1.55
	v10.4C20.25,18.055,19.465,18.75,18.5,18.75z M18.5,5.75c-0.689,0-1.25,0.471-1.25,1.05v10.4c0,0.579,0.561,1.05,1.25,1.05
	s1.25-0.471,1.25-1.05V6.8C19.75,6.221,19.189,5.75,18.5,5.75z"/>
<path style="fill:#333333;" d="M2.5,16.25c-0.965,0-1.75-0.71-1.75-1.583V9.333C0.75,8.46,1.535,7.75,2.5,7.75s1.75,0.71,1.75,1.583
	v5.333C4.25,15.54,3.465,16.25,2.5,16.25z M2.5,8.25c-0.689,0-1.25,0.486-1.25,1.083v5.333c0,0.597,0.561,1.083,1.25,1.083
	s1.25-0.486,1.25-1.083V9.333C3.75,8.736,3.189,8.25,2.5,8.25z"/>
<path style="fill:#333333;" d="M21.5,16.25c-0.965,0-1.75-0.71-1.75-1.583V9.333c0-0.873,0.785-1.583,1.75-1.583
	s1.75,0.71,1.75,1.583v5.333C23.25,15.54,22.465,16.25,21.5,16.25z M21.5,8.25c-0.689,0-1.25,0.486-1.25,1.083v5.333
	c0,0.597,0.561,1.083,1.25,1.083s1.25-0.486,1.25-1.083V9.333C22.75,8.736,22.189,8.25,21.5,8.25z"/>
<path style="fill:#333333;" d="M17.25,13.75H6.75v-3.5h10.5V13.75z M7.25,13.25h9.5v-2.5h-9.5V13.25z"/>
</svg>






