<?xml version="1.0" encoding="iso-8859-1"?>
<svg version="1.1" id="&#x56FE;&#x5C42;_1" xmlns="http://www.w3.org/2000/svg" xmlns:xlink="http://www.w3.org/1999/xlink" x="0px"
	 y="0px" viewBox="0 0 24 24" style="enable-background:new 0 0 24 24;" xml:space="preserve">
<path style="fill:#333333;" d="M20.181,17.25H3.82c-0.594,0-1.109-0.423-1.226-1.005l-0.82-4.1
	c-0.016-0.078-0.024-0.161-0.024-0.245V8c0-0.689,0.561-1.25,1.25-1.25h18c0.689,0,1.25,0.561,1.25,1.25v3.901
	c0,0.082-0.009,0.164-0.024,0.244l-0.819,4.101C21.289,16.827,20.773,17.25,20.181,17.25z M3,7.25C2.586,7.25,2.25,7.586,2.25,8
	v3.901c0,0.05,0.005,0.099,0.015,0.146l0.82,4.101c0.07,0.349,0.379,0.603,0.735,0.603h16.361c0.355,0,0.665-0.254,0.735-0.603
	l0.819-4.1c0.01-0.048,0.015-0.097,0.015-0.147V8c0-0.414-0.337-0.75-0.75-0.75H3z"/>
<rect x="5" y="11.75" style="fill:#333333;" width="3" height="0.5"/>
<rect x="10.5" y="10.25" style="fill:#333333;" width="1" height="0.5"/>
<rect x="10.5" y="13.25" style="fill:#333333;" width="1" height="0.5"/>
<rect x="14" y="10.25" style="fill:#333333;" width="1" height="0.5"/>
<rect x="14" y="13.25" style="fill:#333333;" width="1" height="0.5"/>
<rect x="17.5" y="10.25" style="fill:#333333;" width="1" height="0.5"/>
<rect x="17.5" y="13.25" style="fill:#333333;" width="1" height="0.5"/>
</svg>






