<?xml version="1.0" encoding="iso-8859-1"?>
<svg version="1.1" id="&#x56FE;&#x5C42;_1" xmlns="http://www.w3.org/2000/svg" xmlns:xlink="http://www.w3.org/1999/xlink" x="0px"
	 y="0px" viewBox="0 0 24 24" style="enable-background:new 0 0 24 24;" xml:space="preserve">
<path style="fill:#333333;" d="M6.208,21.139l-0.426-0.261c2.562-4.599,2.657-7.195,2.479-7.808
	c-0.34-1.392-0.939-2.226-1.785-2.487c-1.071-0.329-2.431,0.317-3.308,1.104l-0.23,0.207l-0.154-0.268
	c-0.681-1.188-0.788-2.314-0.316-3.349c0.726-1.591,2.784-2.668,4.418-3.008c3.638-3.187,6.724-3.055,8.68-2.378
	c3.107,1.075,5.246,4.185,5.682,6.565c0.421,2.303,0.554,4.337,0.66,5.972c0.086,1.306,0.153,2.336,0.335,3.008l-0.442,0.215
	c-2.188-2.946-3.723-3.28-4.445-3.234c-0.501,0.04-0.925,0.302-1.132,0.7c-0.645,1.322-1.489,1.774-2.085,1.92
	c-0.629,0.153-1.296,0.028-1.786-0.334c-0.418-0.343-0.891-0.47-1.453-0.381C9.146,17.582,7.133,19.747,6.208,21.139z M5.854,9.993
	c0.259,0,0.517,0.035,0.768,0.112c1.026,0.317,1.739,1.271,2.12,2.835c0.202,0.688,0.083,2.756-1.464,6.104
	c1.039-1.063,2.338-2.039,3.544-2.22c0.701-0.104,1.318,0.058,1.835,0.481c0.361,0.268,0.87,0.361,1.36,0.242
	c0.491-0.12,1.194-0.505,1.757-1.658c0.29-0.559,0.864-0.92,1.538-0.974c0.905-0.071,2.357,0.353,4.264,2.641
	c-0.071-0.59-0.117-1.293-0.17-2.099c-0.105-1.622-0.237-3.64-0.653-5.914c-0.409-2.241-2.425-5.169-5.354-6.183
	c-1.836-0.635-4.756-0.747-8.235,2.325L7.115,5.732L7.048,5.745C5.525,6.046,3.584,7.031,2.922,8.484
	C2.556,9.288,2.607,10.17,3.074,11.11C3.811,10.522,4.844,9.993,5.854,9.993z"/>
<circle style="fill:#333333;" cx="11.5" cy="8" r="1"/>
</svg>






