<?xml version="1.0" encoding="iso-8859-1"?>
<svg version="1.1" id="&#x56FE;&#x5C42;_1" xmlns="http://www.w3.org/2000/svg" xmlns:xlink="http://www.w3.org/1999/xlink" x="0px"
	 y="0px" viewBox="0 0 24 24" style="enable-background:new 0 0 24 24;" xml:space="preserve">
<path style="fill:#333333;" d="M12,22.25C6.348,22.25,1.75,17.652,1.75,12C1.75,6.348,6.348,1.75,12,1.75
	c5.652,0,10.25,4.598,10.25,10.25C22.25,17.652,17.652,22.25,12,22.25z M12,2.25c-5.376,0-9.75,4.374-9.75,9.75
	s4.374,9.75,9.75,9.75s9.75-4.374,9.75-9.75S17.376,2.25,12,2.25z"/>
<rect x="2" y="11.75" style="fill:#333333;" width="20" height="0.5"/>
<path style="fill:#333333;" d="M12,22.25c-2.383,0-4.25-4.502-4.25-10.25C7.75,6.252,9.617,1.75,12,1.75
	c2.383,0,4.25,4.502,4.25,10.25C16.25,17.748,14.383,22.25,12,22.25z M12,2.25c-2.033,0-3.75,4.465-3.75,9.75s1.717,9.75,3.75,9.75
	c2.032,0,3.75-4.465,3.75-9.75S14.032,2.25,12,2.25z"/>
<path style="fill:#333333;" d="M12,8.25c-2.738,0-5.312-1.066-7.248-3.002l0.354-0.354C6.947,6.736,9.396,7.75,12,7.75
	c2.604,0,5.053-1.014,6.895-2.855l0.354,0.354C17.312,7.184,14.738,8.25,12,8.25z"/>
<path style="fill:#333333;" d="M5.105,19.105l-0.354-0.354C6.688,16.816,9.262,15.75,12,15.75c2.738,0,5.312,1.066,7.248,3.002
	l-0.354,0.354c-1.842-1.842-4.29-2.855-6.895-2.855C9.396,16.25,6.947,17.264,5.105,19.105z"/>
</svg>






