<?xml version="1.0" encoding="iso-8859-1"?>
<svg version="1.1" id="&#x56FE;&#x5C42;_1" xmlns="http://www.w3.org/2000/svg" xmlns:xlink="http://www.w3.org/1999/xlink" x="0px"
	 y="0px" viewBox="0 0 24 24" style="enable-background:new 0 0 24 24;" xml:space="preserve">
<path style="fill:#333333;" d="M12.222,21.945c-1.16,0-2.391-0.238-3.801-0.708C5.328,20.206,3.25,16.663,3.25,14
	c0-1.507,2.052-2.364,2.934-2.662c0.04-0.013,0.066-0.048,0.066-0.087V7.5c0-1.103,0.897-2,2-2c0.597,0,1.134,0.263,1.501,0.68
	c0.037-1.07,0.92-1.93,1.999-1.93s1.962,0.859,1.999,1.93c0.366-0.417,0.903-0.68,1.501-0.68c0.597,0,1.133,0.263,1.5,0.679V3.75
	c0-1.103,0.897-2,2-2s2,0.897,2,2v10.366c0,1.396-0.368,2.646-1.065,3.613c-0.714,0.989-1.825,2.311-3.064,2.99l0,0
	C15.118,21.542,13.73,21.945,12.222,21.945z M8.25,6c-0.827,0-1.5,0.673-1.5,1.5v3.751c0,0.253-0.163,0.478-0.406,0.561
	C5.736,12.018,3.75,12.783,3.75,14c0,2.488,1.94,5.8,4.829,6.763c3.136,1.046,5.251,0.915,7.801-0.482l0,0
	c1.158-0.634,2.216-1.896,2.898-2.844c0.636-0.882,0.972-2.03,0.972-3.32V3.75c0-0.827-0.673-1.5-1.5-1.5s-1.5,0.673-1.5,1.5V7.5
	h-0.5c0-0.827-0.673-1.5-1.5-1.5s-1.5,0.673-1.5,1.5h-0.5V6.25c0-0.827-0.673-1.5-1.5-1.5s-1.5,0.673-1.5,1.5V7.5h-0.5
	C9.75,6.673,9.077,6,8.25,6z"/>
</svg>






