<?xml version="1.0" encoding="iso-8859-1"?>
<svg version="1.1" id="&#x56FE;&#x5C42;_1" xmlns="http://www.w3.org/2000/svg" xmlns:xlink="http://www.w3.org/1999/xlink" x="0px"
	 y="0px" viewBox="0 0 24 24" style="enable-background:new 0 0 24 24;" xml:space="preserve">
<path style="fill:#333333;" d="M20,21.25H4c-0.689,0-1.25-0.561-1.25-1.25V4c0-0.689,0.561-1.25,1.25-1.25h7v0.5H4
	C3.586,3.25,3.25,3.586,3.25,4v16c0,0.413,0.336,0.75,0.75,0.75h16c0.413,0,0.75-0.337,0.75-0.75v-7h0.5v7
	C21.25,20.689,20.689,21.25,20,21.25z"/>
<path style="fill:#333333;" d="M10.762,17.25H6.75v-3.993l10.598-10.61l4.006,4.007L10.762,17.25z M7.25,16.75h3.305L20.646,6.654
	l-3.299-3.3L7.25,13.464V16.75z"/>
</svg>






