<?xml version="1.0" encoding="iso-8859-1"?>
<svg version="1.1" id="&#x56FE;&#x5C42;_1" xmlns="http://www.w3.org/2000/svg" xmlns:xlink="http://www.w3.org/1999/xlink" x="0px"
	 y="0px" viewBox="0 0 24 24" style="enable-background:new 0 0 24 24;" xml:space="preserve">
<path style="fill:#333333;" d="M6.5,21.25c-2.068,0-3.75-1.683-3.75-3.75s1.682-3.75,3.75-3.75s3.75,1.683,3.75,3.75
	S8.568,21.25,6.5,21.25z M6.5,14.25c-1.792,0-3.25,1.458-3.25,3.25s1.458,3.25,3.25,3.25s3.25-1.458,3.25-3.25
	S8.292,14.25,6.5,14.25z"/>
<path style="fill:#333333;" d="M17.5,21.25c-2.067,0-3.75-1.683-3.75-3.75s1.683-3.75,3.75-3.75s3.75,1.683,3.75,3.75
	S19.567,21.25,17.5,21.25z M17.5,14.25c-1.792,0-3.25,1.458-3.25,3.25s1.458,3.25,3.25,3.25s3.25-1.458,3.25-3.25
	S19.292,14.25,17.5,14.25z"/>
<rect x="9.75" y="0.361" transform="matrix(0.6757 -0.7371 0.7371 0.6757 -3.0231 10.1276)" style="fill:#333333;" width="0.5" height="16.279"/>
<rect x="5.861" y="8.25" transform="matrix(0.7376 -0.6752 0.6752 0.7376 -2.0661 11.6828)" style="fill:#333333;" width="16.279" height="0.5"/>
</svg>






