<?xml version="1.0" encoding="iso-8859-1"?>
<svg version="1.1" id="&#x56FE;&#x5C42;_1" xmlns="http://www.w3.org/2000/svg" xmlns:xlink="http://www.w3.org/1999/xlink" x="0px"
	 y="0px" viewBox="0 0 24 24" style="enable-background:new 0 0 24 24;" xml:space="preserve">
<path style="fill:#333333;" d="M18.5,22.25h-14c-0.689,0-1.25-0.561-1.25-1.25V3c0-0.689,0.561-1.25,1.25-1.25h10v0.5h-10
	C4.086,2.25,3.75,2.586,3.75,3v18c0,0.413,0.336,0.75,0.75,0.75h14c0.413,0,0.75-0.337,0.75-0.75V10.002h0.5V21
	C19.75,21.689,19.189,22.25,18.5,22.25z"/>
<rect x="6.5" y="8.75" style="fill:#333333;" width="4" height="0.5"/>
<rect x="6.5" y="13.75" style="fill:#333333;" width="6" height="0.5"/>
<rect x="13.26" y="5.749" transform="matrix(0.7071 -0.7071 0.7071 0.7071 0.8838 14.1322)" style="fill:#333333;" width="8.482" height="0.5"/>
</svg>






