<?xml version="1.0" encoding="iso-8859-1"?>
<svg version="1.1" id="&#x56FE;&#x5C42;_1" xmlns="http://www.w3.org/2000/svg" xmlns:xlink="http://www.w3.org/1999/xlink" x="0px"
	 y="0px" viewBox="0 0 24 24" style="enable-background:new 0 0 24 24;" xml:space="preserve">
<path style="fill:#333333;" d="M19,22.25h-3.25v-0.5H19c0.413,0,0.75-0.337,0.75-0.75v-4.5h0.5V21
	C20.25,21.689,19.689,22.25,19,22.25z"/>
<path style="fill:#333333;" d="M8,22.25H5c-0.689,0-1.25-0.561-1.25-1.25V3c0-0.689,0.561-1.25,1.25-1.25h14
	c0.689,0,1.25,0.561,1.25,1.25v5h-0.5V3c0-0.414-0.337-0.75-0.75-0.75H5C4.586,2.25,4.25,2.586,4.25,3v18
	c0,0.413,0.336,0.75,0.75,0.75h3V22.25z"/>
<rect x="8" y="7.75" style="fill:#333333;" width="7" height="0.5"/>
<rect x="8.995" y="16.5" transform="matrix(0.629 -0.7774 0.7774 0.629 -7.1782 18.4592)" style="fill:#333333;" width="13.509" height="0.5"/>
<rect x="8" y="11.75" style="fill:#333333;" width="4" height="0.5"/>
</svg>






