<?xml version="1.0" encoding="iso-8859-1"?>
<svg version="1.1" id="&#x56FE;&#x5C42;_1" xmlns="http://www.w3.org/2000/svg" xmlns:xlink="http://www.w3.org/1999/xlink" x="0px"
	 y="0px" viewBox="0 0 24 24" style="enable-background:new 0 0 24 24;" xml:space="preserve">
<path style="fill:none;" d="M21.5,4.5v4v7v4H17v-4h4.5v-7H17v-4H21.5z"/>
<path style="fill:none;" d="M2.5,8.5v-4H7v4H2.5v7H7v4H2.5v-4V8.5z"/>
<path style="fill:#333333;" d="M21.75,19.75H17V19.5v0.25h-2v-0.5h1.75v-3.5H15v-0.5h2v0.25v-0.25h4.25v-6.5H17V8.5v0.25h-2v-0.5
	h1.75v-3.5H15v-0.5h2V4.5V4.25h4.75V19.75z M17.25,19.25h4v-3.5h-4V19.25z M17.25,8.25h4v-3.5h-4V8.25z M9,19.75H2.25V4.25H9v0.5
	H7.25v3.5H9v0.5H2.75v6.5H9v0.5H7.25v3.5H9V19.75z M2.75,19.25h4v-3.5h-4V19.25z M2.75,8.25h4v-3.5h-4V8.25z"/>
<rect x="11.75" y="3.5" style="fill:#333333;" width="0.5" height="2"/>
<rect x="11.75" y="8.5" style="fill:#333333;" width="0.5" height="2"/>
<rect x="11.75" y="13.5" style="fill:#333333;" width="0.5" height="2"/>
<rect x="11.75" y="18.5" style="fill:#333333;" width="0.5" height="2"/>
</svg>






