<?xml version="1.0" encoding="iso-8859-1"?>
<svg version="1.1" id="&#x56FE;&#x5C42;_1" xmlns="http://www.w3.org/2000/svg" xmlns:xlink="http://www.w3.org/1999/xlink" x="0px"
	 y="0px" viewBox="0 0 24 24" style="enable-background:new 0 0 24 24;" xml:space="preserve">
<path style="fill:#333333;" d="M21.25,8h-0.5V4.5c0-0.689-0.561-1.25-1.25-1.25h-15c-0.689,0-1.25,0.561-1.25,1.25V8h-0.5V4.5
	c0-0.965,0.785-1.75,1.75-1.75h15c0.965,0,1.75,0.785,1.75,1.75V8z"/>
<path style="fill:#333333;" d="M19.5,21.25h-15c-0.965,0-1.75-0.785-1.75-1.75V16h0.5v3.5c0,0.689,0.561,1.25,1.25,1.25h15
	c0.689,0,1.25-0.561,1.25-1.25V16h0.5v3.5C21.25,20.465,20.465,21.25,19.5,21.25z"/>
<polygon style="fill:#333333;" points="13.429,16.462 9.93,8.463 6.652,12.25 2.5,12.25 2.5,11.75 6.423,11.75 10.07,7.537 
	13.571,15.538 16.874,11.75 21.5,11.75 21.5,12.25 17.101,12.25 "/>
</svg>






