<?xml version="1.0" encoding="iso-8859-1"?>
<svg version="1.1" id="&#x56FE;&#x5C42;_1" xmlns="http://www.w3.org/2000/svg" xmlns:xlink="http://www.w3.org/1999/xlink" x="0px"
	 y="0px" viewBox="0 0 24 24" style="enable-background:new 0 0 24 24;" xml:space="preserve">
<path style="fill:#333333;" d="M19.5,21.25h-15c-0.965,0-1.75-0.785-1.75-1.75v-15c0-0.965,0.785-1.75,1.75-1.75h5v0.5h-5
	c-0.689,0-1.25,0.561-1.25,1.25v15c0,0.689,0.561,1.25,1.25,1.25h15c0.689,0,1.25-0.561,1.25-1.25v-5h0.5v5
	C21.25,20.465,20.465,21.25,19.5,21.25z"/>
<polygon style="fill:#333333;" points="20.763,9.579 18.842,3.816 13.079,5.737 12.921,5.263 19.158,3.184 21.237,9.421 "/>
<path style="fill:#333333;" d="M10.093,14.732l-0.186-0.465c4.822-1.929,6.322-3.246,8.855-10.847l0.475,0.158
	C16.693,11.209,15.096,12.731,10.093,14.732z"/>
</svg>






