<?xml version="1.0" encoding="iso-8859-1"?>
<svg version="1.1" id="&#x56FE;&#x5C42;_1" xmlns="http://www.w3.org/2000/svg" xmlns:xlink="http://www.w3.org/1999/xlink" x="0px"
	 y="0px" viewBox="0 0 24 24" style="enable-background:new 0 0 24 24;" xml:space="preserve">
<path style="fill:#333333;" d="M8.5,18.25c-3.738,0-6.25-2.887-6.25-7.184c0-5.573,3.231-9.316,6.25-9.316s6.25,3.744,6.25,9.316
	C14.75,15.363,12.238,18.25,8.5,18.25z M8.5,2.25c-2.72,0-5.75,3.621-5.75,8.816c0,3.998,2.311,6.684,5.75,6.684
	s5.75-2.686,5.75-6.684C14.25,5.871,11.22,2.25,8.5,2.25z"/>
<path style="fill:#333333;" d="M13.566,22.25c-3.296,0-5.676-1.609-6.21-4.199l0.489-0.102c0.484,2.345,2.676,3.801,5.721,3.801
	c4.528,0,7.684-2.503,7.684-4.75c0-2.026-2.588-4.405-6.769-4.717l0.037-0.499c4.467,0.333,7.231,2.966,7.231,5.215
	C21.75,19.535,18.462,22.25,13.566,22.25z"/>
</svg>






