<?xml version="1.0" encoding="iso-8859-1"?>
<svg version="1.1" id="&#x56FE;&#x5C42;_1" xmlns="http://www.w3.org/2000/svg" xmlns:xlink="http://www.w3.org/1999/xlink" x="0px"
	 y="0px" viewBox="0 0 24 24" style="enable-background:new 0 0 24 24;" xml:space="preserve">
<path style="fill:#333333;" d="M12,17.25c-2.895,0-5.25-2.355-5.25-5.25c0-2.895,2.355-5.25,5.25-5.25c2.895,0,5.25,2.355,5.25,5.25
	C17.25,14.895,14.895,17.25,12,17.25z M12,7.25c-2.619,0-4.75,2.131-4.75,4.75s2.131,4.75,4.75,4.75s4.75-2.131,4.75-4.75
	S14.619,7.25,12,7.25z"/>
<path style="fill:#333333;" d="M12,22.25C6.348,22.25,1.75,17.652,1.75,12C1.75,6.348,6.348,1.75,12,1.75
	c5.652,0,10.25,4.598,10.25,10.25c0,1.32-0.247,2.605-0.734,3.817c-0.271,0.674-0.846,0.738-1.455,0.808
	c-0.685,0.077-1.461,0.165-2.268,1.03c-0.785,0.843-0.833,1.578-0.876,2.227c-0.04,0.613-0.078,1.191-0.808,1.511
	C14.812,21.962,13.43,22.25,12,22.25z M12,2.25c-5.376,0-9.75,4.374-9.75,9.75s4.374,9.75,9.75,9.75
	c1.359,0,2.675-0.274,3.908-0.814c0.434-0.19,0.47-0.471,0.51-1.086c0.043-0.659,0.103-1.562,1.01-2.535
	c0.933-1.001,1.883-1.108,2.577-1.187c0.6-0.067,0.894-0.117,1.046-0.496c0.464-1.153,0.699-2.376,0.699-3.632
	C21.75,6.624,17.376,2.25,12,2.25z"/>
<path style="fill:#333333;" d="M11.457,14.246c-0.028-0.005-0.688-0.124-1.134-0.569s-0.564-1.105-0.569-1.134l0.492-0.087
	c0.001,0.006,0.099,0.535,0.431,0.867c0.332,0.331,0.861,0.43,0.867,0.431L11.457,14.246z"/>
</svg>






