<?xml version="1.0" encoding="iso-8859-1"?>
<svg version="1.1" id="&#x56FE;&#x5C42;_1" xmlns="http://www.w3.org/2000/svg" xmlns:xlink="http://www.w3.org/1999/xlink" x="0px"
	 y="0px" viewBox="0 0 24 24" style="enable-background:new 0 0 24 24;" xml:space="preserve">
<path style="fill:#333333;" d="M7.835,21.249c-1.279,0-2.484-0.345-3.461-1.022c-1.37-0.949-2.124-2.437-2.124-4.188
	c0-2.904,2.07-3.614,3.896-4.241c0.829-0.285,1.612-0.553,2.204-0.998c1.942-1.456,3.922-4.409,3.942-4.438l0.416,0.277
	C12.625,6.763,10.661,9.691,8.65,11.2c-0.655,0.491-1.513,0.786-2.342,1.07c-1.83,0.628-3.558,1.221-3.558,3.768
	c0,1.583,0.678,2.924,1.909,3.777c1.529,1.06,3.68,1.229,5.754,0.45c3.318-1.243,4.503-3.882,4.789-4.661
	c0.035-0.097,0.064-0.193,0.095-0.291l0.025-0.081l1.939-6.306l0.479,0.147l-1.965,6.386c-0.033,0.106-0.065,0.212-0.104,0.317
	c-0.303,0.828-1.564,3.638-5.082,4.957C9.669,21.079,8.734,21.249,7.835,21.249z"/>
<path style="fill:#333333;" d="M19.409,12.367l-1.933-3.402c-0.057-0.101-0.18-0.15-0.286-0.117L14.55,9.603
	c-0.396,0.11-0.812-0.117-0.927-0.515l-0.749-2.62c-0.033-0.116-0.14-0.188-0.264-0.181L8.507,6.672L8.263,6.305
	c0.038-0.071,0.948-1.75,3.11-3.021c2.304-1.354,5.059-0.718,6.256,0.001c1.416,0.849,2.371,2.557,2.62,4.686
	c0.188,1.61-0.354,4.214-0.377,4.325L19.409,12.367z M17.26,8.338c0.265,0,0.516,0.141,0.651,0.38l1.595,2.807
	c0.15-0.882,0.369-2.445,0.247-3.497c-0.228-1.944-1.118-3.557-2.382-4.314c-1.098-0.659-3.63-1.241-5.745,0.001
	c-1.404,0.826-2.258,1.85-2.655,2.411l3.592-0.336c0.354-0.03,0.692,0.194,0.791,0.542l0.749,2.619
	c0.038,0.132,0.171,0.208,0.31,0.172l2.641-0.755C17.122,8.348,17.191,8.338,17.26,8.338z"/>
<rect x="17.919" y="3.25" transform="matrix(0.9487 -0.3162 0.3162 0.9487 -0.1061 6.346)" style="fill:#333333;" width="3.162" height="0.5"/>
</svg>






