<?xml version="1.0" encoding="iso-8859-1"?>
<svg version="1.1" id="&#x56FE;&#x5C42;_1" xmlns="http://www.w3.org/2000/svg" xmlns:xlink="http://www.w3.org/1999/xlink" x="0px"
	 y="0px" viewBox="0 0 24 24" style="enable-background:new 0 0 24 24;" xml:space="preserve">
<path style="fill:#333333;" d="M5.715,22.127l-0.431-0.254C8.348,16.689,10.25,9.841,10.25,4h0.5
	C10.75,9.926,8.821,16.872,5.715,22.127z"/>
<path style="fill:#333333;" d="M18.285,22.127C15.18,16.872,13.25,9.926,13.25,4h0.5c0,5.841,1.902,12.689,4.965,17.873
	L18.285,22.127z"/>
<rect x="2" y="21.75" style="fill:#333333;" width="20" height="0.5"/>
<rect x="7" y="14.75" style="fill:#333333;" width="10" height="0.5"/>
<rect x="8.5" y="10.25" style="fill:#333333;" width="7" height="0.5"/>
<rect x="10" y="3.75" style="fill:#333333;" width="4" height="0.5"/>
<rect x="11.75" y="2" style="fill:#333333;" width="0.5" height="2"/>
<path style="fill:#333333;" d="M9.24,22.069l-0.48-0.139c0.018-0.06,0.432-1.476,1.063-2.107C10.326,19.32,10.896,18.75,12,18.75
	s1.674,0.57,2.177,1.073c0.713,0.713,1.052,2.06,1.066,2.117l-0.485,0.12c-0.004-0.013-0.321-1.27-0.935-1.884
	C13.326,19.68,12.896,19.25,12,19.25s-1.326,0.43-1.823,0.927C9.636,20.718,9.244,22.056,9.24,22.069z"/>
</svg>






