<?xml version="1.0" encoding="iso-8859-1"?>
<svg version="1.1" id="&#x56FE;&#x5C42;_1" xmlns="http://www.w3.org/2000/svg" xmlns:xlink="http://www.w3.org/1999/xlink" x="0px"
	 y="0px" viewBox="0 0 24 24" style="enable-background:new 0 0 24 24;" xml:space="preserve">
<path style="fill:#333333;" d="M15,22.25H4c-0.689,0-1.25-0.561-1.25-1.25V3c0-0.689,0.561-1.25,1.25-1.25h11
	c0.689,0,1.25,0.561,1.25,1.25v18C16.25,21.689,15.689,22.25,15,22.25z M4,2.25C3.586,2.25,3.25,2.586,3.25,3v18
	c0,0.413,0.336,0.75,0.75,0.75h11c0.413,0,0.75-0.337,0.75-0.75V3c0-0.414-0.337-0.75-0.75-0.75H4z"/>
<path style="fill:#333333;" d="M20,19.25h-8c-1.241,0-2.25-1.01-2.25-2.25s1.009-2.25,2.25-2.25h8c1.24,0,2.25,1.01,2.25,2.25
	S21.24,19.25,20,19.25z M12,15.25c-0.965,0-1.75,0.785-1.75,1.75s0.785,1.75,1.75,1.75h8c0.965,0,1.75-0.785,1.75-1.75
	s-0.785-1.75-1.75-1.75H12z"/>
<circle style="fill:#333333;" cx="6" cy="6" r="1"/>
<circle style="fill:#333333;" cx="6" cy="9" r="1"/>
<circle style="fill:#333333;" cx="6" cy="12" r="1"/>
<circle style="fill:#333333;" cx="9.5" cy="6" r="1"/>
<circle style="fill:#333333;" cx="9.5" cy="9" r="1"/>
<circle style="fill:#333333;" cx="9.5" cy="12" r="1"/>
<circle style="fill:#333333;" cx="13" cy="6" r="1"/>
<circle style="fill:#333333;" cx="13" cy="9" r="1"/>
<circle style="fill:#333333;" cx="13" cy="12" r="1"/>
</svg>






