<?xml version="1.0" encoding="iso-8859-1"?>
<svg version="1.1" id="&#x56FE;&#x5C42;_1" xmlns="http://www.w3.org/2000/svg" xmlns:xlink="http://www.w3.org/1999/xlink" x="0px"
	 y="0px" viewBox="0 0 24 24" style="enable-background:new 0 0 24 24;" xml:space="preserve">
<path style="fill:#333333;" d="M17,19.25H7c-0.689,0-1.25-0.561-1.25-1.25v-7c0-0.689,0.561-1.25,1.25-1.25h10
	c0.689,0,1.25,0.561,1.25,1.25v7C18.25,18.689,17.689,19.25,17,19.25z M7,10.25c-0.414,0-0.75,0.336-0.75,0.75v7
	c0,0.413,0.336,0.75,0.75,0.75h10c0.413,0,0.75-0.337,0.75-0.75v-7c0-0.414-0.337-0.75-0.75-0.75H7z"/>
<path style="fill:#333333;" d="M9.25,10h-0.5V7c0-1.883,1.367-3.25,3.25-3.25c0.989,0,1.897,0.396,2.491,1.087
	c0.271,0.313,0.473,0.679,0.601,1.088l-0.477,0.149c-0.108-0.343-0.277-0.65-0.503-0.911C13.605,4.574,12.855,4.25,12,4.25
	c-1.619,0-2.75,1.131-2.75,2.75V10z"/>
<rect x="11.75" y="14" style="fill:#333333;" width="0.5" height="1"/>
<rect x="2.75" y="9" style="fill:#333333;" width="0.5" height="6"/>
<rect x="20.75" y="9" style="fill:#333333;" width="0.5" height="6"/>
</svg>






