<?xml version="1.0" encoding="iso-8859-1"?>
<svg version="1.1" id="&#x56FE;&#x5C42;_1" xmlns="http://www.w3.org/2000/svg" xmlns:xlink="http://www.w3.org/1999/xlink" x="0px"
	 y="0px" viewBox="0 0 24 24" style="enable-background:new 0 0 24 24;" xml:space="preserve">
<g>
	<defs>
		<rect id="SVGID_1_" width="24" height="24"/>
	</defs>
	<clipPath id="SVGID_00000039832277340496828490000008513567200241198234_">
		<use xlink:href="#SVGID_1_"  style="overflow:visible;"/>
	</clipPath>
	<g style="clip-path:url(#SVGID_00000039832277340496828490000008513567200241198234_);">
		<path style="fill:#333333;" d="M8.404,19.345c-0.832,0-1.665-0.317-2.298-0.95c-0.614-0.614-0.952-1.431-0.952-2.299
			c0-0.867,0.338-1.684,0.952-2.298l9.192-9.192c1.267-1.266,3.328-1.267,4.597,0l0,0c0.614,0.614,0.952,1.43,0.952,2.298
			s-0.338,1.684-0.952,2.298l-9.192,9.193C10.068,19.027,9.236,19.345,8.404,19.345z M17.596,4.155
			c-0.704,0-1.408,0.268-1.944,0.804l-9.192,9.192c-0.52,0.52-0.806,1.21-0.806,1.944c0,0.735,0.286,1.426,0.806,1.945
			c1.073,1.073,2.817,1.071,3.889,0l9.192-9.193c0.52-0.52,0.806-1.21,0.806-1.944s-0.286-1.425-0.806-1.945l0,0
			C19.005,4.423,18.301,4.155,17.596,4.155z"/>
		
			<rect x="10.75" y="10.672" transform="matrix(0.7071 -0.7071 0.7071 0.7071 -6.3241 11.7322)" style="fill:#333333;" width="0.5" height="5.657"/>
		
			<rect x="2.379" y="19.75" transform="matrix(0.7071 -0.7071 0.7071 0.7071 -12.8241 9.0398)" style="fill:#333333;" width="4.243" height="0.5"/>
		<path style="fill:#333333;" d="M17.5,6.67L17.5,6.67c0.478,0.276,0.642,0.888,0.366,1.366l0,0
			C17.59,8.514,16.978,8.678,16.5,8.402l0,0c-0.478-0.276-0.642-0.888-0.366-1.366l0,0C16.41,6.558,17.022,6.394,17.5,6.67z"/>
	</g>
</g>
</svg>






