<?xml version="1.0" encoding="iso-8859-1"?>
<svg version="1.1" id="&#x56FE;&#x5C42;_1" xmlns="http://www.w3.org/2000/svg" xmlns:xlink="http://www.w3.org/1999/xlink" x="0px"
	 y="0px" viewBox="0 0 24 24" style="enable-background:new 0 0 24 24;" xml:space="preserve">
<path style="fill:#333333;" d="M21.424,21.25H2.25V9.356c0-0.334,0.272-0.606,0.606-0.606h6.72c6.713,0,12.174,5.461,12.174,12.174
	C21.75,21.104,21.604,21.25,21.424,21.25z M2.75,20.75h18.499c-0.094-6.357-5.294-11.5-11.673-11.5h-6.72
	c-0.059,0-0.106,0.048-0.106,0.106V20.75z"/>
<polygon style="fill:#333333;" points="2.75,9 2.25,9 2.25,3.75 12.5,3.75 12.5,4.25 2.75,4.25 "/>
<path style="fill:#333333;" d="M7.5,15.75c-1.241,0-2.25-1.01-2.25-2.25s1.009-2.25,2.25-2.25s2.25,1.01,2.25,2.25
	S8.741,15.75,7.5,15.75z M7.5,11.75c-0.965,0-1.75,0.785-1.75,1.75s0.785,1.75,1.75,1.75s1.75-0.785,1.75-1.75
	S8.465,11.75,7.5,11.75z"/>
<rect x="2.5" y="17.75" style="fill:#333333;" width="18.5" height="0.5"/>
<path style="fill:#333333;" d="M18.7,13.15l-0.4-0.301c0.605-0.807,1.434-2.43,1.234-3.594c-0.077-0.455-0.298-0.797-0.673-1.047
	c-1.627-1.084-3.55,1.025-4.153,1.931l-0.416-0.277c0.847-1.269,2.951-3.334,4.847-2.069c0.489,0.326,0.788,0.79,0.889,1.379
	C20.271,10.594,19.266,12.396,18.7,13.15z"/>
</svg>






