<?xml version="1.0" encoding="iso-8859-1"?>
<svg version="1.1" id="&#x56FE;&#x5C42;_1" xmlns="http://www.w3.org/2000/svg" xmlns:xlink="http://www.w3.org/1999/xlink" x="0px"
	 y="0px" viewBox="0 0 24 24" style="enable-background:new 0 0 24 24;" xml:space="preserve">
<path style="fill:#333333;" d="M19.558,12.75H9.75v-8.5h10.099c0.623,0,1.224,0.262,1.647,0.718
	c0.425,0.456,0.642,1.074,0.597,1.696l-0.292,4C21.716,11.833,20.73,12.75,19.558,12.75z M10.25,12.25h9.308
	c0.912,0,1.679-0.713,1.745-1.623l0.292-4c0.035-0.491-0.13-0.959-0.465-1.319c-0.335-0.36-0.79-0.558-1.281-0.558H10.25V12.25z"/>
<path style="fill:#333333;" d="M15.488,19.75c-0.775,0-1.475-0.364-1.92-0.999c-0.444-0.635-0.547-1.417-0.282-2.146l1.585-4.355
	h4.985l-2.165,5.957C17.355,19.13,16.471,19.75,15.488,19.75z M15.221,12.75l-1.464,4.027c-0.209,0.572-0.128,1.188,0.222,1.687
	c0.35,0.5,0.9,0.786,1.51,0.786c0.772,0,1.469-0.487,1.732-1.213l1.923-5.287H15.221z"/>
<path style="fill:#333333;" d="M10.25,11.25h-3.5v-5.5h3.5V11.25z M7.25,10.75h2.5v-4.5h-2.5V10.75z"/>
<rect x="2" y="8.25" style="fill:#333333;" width="5" height="0.5"/>
</svg>






