<?xml version="1.0" encoding="iso-8859-1"?>
<svg version="1.1" id="&#x56FE;&#x5C42;_1" xmlns="http://www.w3.org/2000/svg" xmlns:xlink="http://www.w3.org/1999/xlink" x="0px"
	 y="0px" viewBox="0 0 24 24" style="enable-background:new 0 0 24 24;" xml:space="preserve">
<path style="fill:#333333;" d="M16.504,20.25h-3.435v-3.109H5.185v3.109H1.75v-9.356c0-1.792,0.583-3.17,1.734-4.096
	C4.862,5.689,6.841,5.46,8.268,5.719c0.146-0.25,0.298-0.455,0.43-0.613c0.697-0.836,1.66-1.354,2.446-1.348h3.434
	c3.295-0.187,4.628,2.526,4.858,3.986l0.003,6.48c0.046,0.32,0.19,0.527,0.44,0.602c0.527,0.156,1.442-0.29,1.844-0.764l0.438,0.123
	c0.33,2.104-0.264,3.252-1.869,3.614c-0.679,0.152-1.292-0.065-2.058-0.467c-0.712-0.373-1.209-1.313-1.571-1.999
	c-0.051-0.095-0.104-0.198-0.158-0.295V20.25z M13.569,19.75h2.435v-5.418l0.088-0.075c0.084-0.07,0.188-0.1,0.291-0.079
	c0.26,0.05,0.424,0.36,0.722,0.924c0.332,0.628,0.787,1.488,1.361,1.789c0.682,0.358,1.18,0.543,1.716,0.422
	c0.913-0.205,1.721-0.67,1.544-2.574c-0.537,0.41-1.346,0.757-1.987,0.568c-0.312-0.092-0.703-0.348-0.798-1.048l-0.002-6.475
	c-0.196-1.225-1.301-3.534-4.062-3.534c-0.093,0-0.188,0.002-0.286,0.008l-3.449,0c-0.003,0-0.006,0-0.008,0
	c-0.656,0-1.46,0.458-2.053,1.168C8.642,5.953,7.95,7.069,8.244,8.626c0.129,0.682,0.643,2.288,2.63,2.463
	c0.436,0.038,1.923,0.002,2.812-2.071l0.459,0.197c-1.021,2.383-2.795,2.416-3.315,2.372c-2.328-0.206-2.927-2.074-3.077-2.868
	C7.559,7.695,7.743,6.84,8.029,6.188c-1.063-0.155-2.879-0.087-4.231,1C2.771,8.013,2.25,9.26,2.25,10.894v8.856h2.435v-3.109h8.885
	V19.75z"/>
<circle style="fill:#333333;" cx="16.5" cy="9.5" r="1"/>
</svg>






