<?xml version="1.0" encoding="iso-8859-1"?>
<svg version="1.1" id="&#x56FE;&#x5C42;_1" xmlns="http://www.w3.org/2000/svg" xmlns:xlink="http://www.w3.org/1999/xlink" x="0px"
	 y="0px" viewBox="0 0 24 24" style="enable-background:new 0 0 24 24;" xml:space="preserve">
<path style="fill:none;" d="M21,20.5v-17H3v17H21z"/>
<path style="fill:#333333;" d="M22,20.75h-1V20.5v0.25H3V20.5v0.25H2v-0.5h0.75V3.75H2v-0.5h20v0.5h-0.75v16.5H22V20.75z
	 M3.25,20.25h17.5V3.75H3.25V20.25z"/>
<rect x="11.75" y="3.5" style="fill:#333333;" width="0.5" height="17"/>
<rect x="16.25" y="10" style="fill:#333333;" width="0.5" height="4"/>
<polygon style="fill:#333333;" points="17.823,11.677 16.5,10.354 15.177,11.677 14.823,11.323 16.5,9.646 18.177,11.323 "/>
<rect x="7.25" y="10" style="fill:#333333;" width="0.5" height="4"/>
<polygon style="fill:#333333;" points="7.5,14.354 5.823,12.677 6.177,12.323 7.5,13.646 8.823,12.323 9.177,12.677 "/>
</svg>






