<?xml version="1.0" encoding="iso-8859-1"?>
<svg version="1.1" id="&#x56FE;&#x5C42;_1" xmlns="http://www.w3.org/2000/svg" xmlns:xlink="http://www.w3.org/1999/xlink" x="0px"
	 y="0px" viewBox="0 0 24 24" style="enable-background:new 0 0 24 24;" xml:space="preserve">
<polygon style="fill:#333333;" points="12,19.75 1.75,19.75 1.75,4.25 22.25,4.25 22.25,12 21.75,12 21.75,4.75 2.25,4.75 
	2.25,19.25 12,19.25 "/>
<polygon style="fill:#333333;" points="12,12.312 1.85,4.7 2.15,4.3 12,11.688 21.85,4.3 22.15,4.7 "/>
<path style="fill:#333333;" d="M21.75,20.75h-6.5v-4.5h6.5V20.75z M15.75,20.25h5.5v-3.5h-5.5V20.25z"/>
<path style="fill:#333333;" d="M20.25,16.5h-0.5V15c0-0.689-0.561-1.25-1.25-1.25s-1.25,0.561-1.25,1.25v1.5h-0.5V15
	c0-0.965,0.785-1.75,1.75-1.75s1.75,0.785,1.75,1.75V16.5z"/>
</svg>






