<?xml version="1.0" encoding="iso-8859-1"?>
<svg version="1.1" id="&#x56FE;&#x5C42;_1" xmlns="http://www.w3.org/2000/svg" xmlns:xlink="http://www.w3.org/1999/xlink" x="0px"
	 y="0px" viewBox="0 0 24 24" style="enable-background:new 0 0 24 24;" xml:space="preserve">
<polygon style="fill:#333333;" points="12,19.75 1.75,19.75 1.75,4.25 22.25,4.25 22.25,12 21.75,12 21.75,4.75 2.25,4.75 
	2.25,19.25 12,19.25 "/>
<path style="fill:#333333;" d="M18,19.75c-1.517,0-2.75-1.233-2.75-2.75s1.233-2.75,2.75-2.75s2.75,1.233,2.75,2.75
	S19.517,19.75,18,19.75z M18,14.75c-1.24,0-2.25,1.01-2.25,2.25s1.01,2.25,2.25,2.25s2.25-1.01,2.25-2.25S19.24,14.75,18,14.75z"/>
<rect x="20.75" y="18" transform="matrix(0.6 -0.8 0.8 0.6 -7 24.5)" style="fill:#333333;" width="0.501" height="2.5"/>
<polygon style="fill:#333333;" points="12,12.312 1.85,4.7 2.15,4.3 12,11.688 21.85,4.3 22.15,4.7 "/>
</svg>






