<?xml version="1.0" encoding="iso-8859-1"?>
<svg version="1.1" id="&#x56FE;&#x5C42;_1" xmlns="http://www.w3.org/2000/svg" xmlns:xlink="http://www.w3.org/1999/xlink" x="0px"
	 y="0px" viewBox="0 0 24 24" style="enable-background:new 0 0 24 24;" xml:space="preserve">
<polygon style="fill:#333333;" points="12,19.75 1.75,19.75 1.75,4.25 22.25,4.25 22.25,12 21.75,12 21.75,4.75 2.25,4.75 
	2.25,19.25 12,19.25 "/>
<path style="fill:#333333;" d="M17.5,20.27l-0.093-0.037c-0.108-0.044-2.657-1.11-2.657-5.232c0-0.553,1.445-1.247,2.657-1.732
	L17.5,13.23l0.093,0.037c1.212,0.485,2.657,1.18,2.657,1.732c0,4.122-2.549,5.188-2.657,5.232L17.5,20.27z M15.25,15.015
	c0.005,3.366,1.809,4.486,2.25,4.71c0.442-0.225,2.25-1.347,2.25-4.725c-0.079-0.196-1.1-0.762-2.25-1.23
	C16.361,14.233,15.351,14.792,15.25,15.015z"/>
<polygon style="fill:#333333;" points="12,12.312 1.85,4.7 2.15,4.3 12,11.688 21.85,4.3 22.15,4.7 "/>
</svg>






