<?xml version="1.0" encoding="iso-8859-1"?>
<svg version="1.1" id="&#x56FE;&#x5C42;_1" xmlns="http://www.w3.org/2000/svg" xmlns:xlink="http://www.w3.org/1999/xlink" x="0px"
	 y="0px" viewBox="0 0 24 24" style="enable-background:new 0 0 24 24;" xml:space="preserve">
<polygon style="fill:#333333;" points="13,18.75 1.75,18.75 1.75,4.25 22.25,4.25 22.25,17.5 21.75,17.5 21.75,4.75 2.25,4.75 
	2.25,18.25 13,18.25 "/>
<path style="fill:#333333;" d="M17.5,22.25c-2.619,0-4.75-2.131-4.75-4.75s2.131-4.75,4.75-4.75s4.75,2.131,4.75,4.75
	S20.119,22.25,17.5,22.25z M17.5,13.25c-2.344,0-4.25,1.906-4.25,4.25s1.906,4.25,4.25,4.25s4.25-1.906,4.25-4.25
	S19.844,13.25,17.5,13.25z"/>
<rect x="16.086" y="17.25" transform="matrix(0.7071 -0.7071 0.7071 0.7071 -7.2487 17.5)" style="fill:#333333;" width="2.828" height="0.5"/>
<polygon style="fill:#333333;" points="12,11.298 1.864,4.709 2.136,4.291 12,10.702 21.863,4.291 22.137,4.709 "/>
</svg>






