<?xml version="1.0" encoding="iso-8859-1"?>
<svg version="1.1" id="&#x56FE;&#x5C42;_1" xmlns="http://www.w3.org/2000/svg" xmlns:xlink="http://www.w3.org/1999/xlink" x="0px"
	 y="0px" viewBox="0 0 24 24" style="enable-background:new 0 0 24 24;" xml:space="preserve">
<path style="fill:#333333;" d="M11.573,22.25c-4.521,0-7.361-2.463-7.793-6.757C3.452,12.227,5.906,9.89,7.53,8.344
	C8.208,7.698,8.794,7.14,8.953,6.736C9.33,5.78,9.385,4.197,9.116,2.031l0.351-0.259c2.024,0.911,3.456,2.176,4.256,3.761
	c0.624,1.237,0.65,2.682,0.67,3.736c0.014,0.728,0.027,1.481,0.272,1.481c0.323,0,1.128-0.439,2.883-3.378l0.189-0.317l0.224,0.293
	c1.52,1.988,2.289,4.593,2.289,7.742C20.25,21.696,15.771,22.25,11.573,22.25z M9.665,2.418c0.221,2.047,0.14,3.522-0.247,4.501
	C9.219,7.426,8.625,7.99,7.875,8.706c-1.646,1.568-3.9,3.714-3.597,6.737c0.409,4.067,3,6.308,7.296,6.308
	c4.138,0,8.177-0.515,8.177-6.66c0-2.88-0.661-5.28-1.968-7.14c-1.803,2.949-2.641,3.3-3.117,3.3c-0.735,0-0.752-0.87-0.772-1.972
	c-0.02-1.062-0.044-2.385-0.617-3.52C12.583,4.384,11.369,3.262,9.665,2.418z"/>
<path style="fill:#333333;" d="M11.101,19.24c-0.324,0-0.608-0.055-0.818-0.112c-0.853-0.233-1.854-0.954-2.106-2.275
	c-0.297-1.557,0.548-3.25,2.51-5.034l0.416,0.152c0.173,1.283,0.527,2.222,1.052,2.788c0.946,1.022,1.39,1.876,1.354,2.611
	c-0.021,0.446-0.22,0.84-0.591,1.17C12.303,19.087,11.645,19.24,11.101,19.24z M10.681,12.51c-1.582,1.536-2.259,2.964-2.014,4.249
	c0.263,1.379,1.404,1.793,1.748,1.887c0.465,0.126,1.365,0.235,2.169-0.479c0.271-0.241,0.409-0.51,0.424-0.82
	c0.028-0.586-0.383-1.343-1.222-2.248C11.26,14.53,10.889,13.66,10.681,12.51z"/>
</svg>






