<?xml version="1.0" encoding="iso-8859-1"?>
<svg version="1.1" id="&#x56FE;&#x5C42;_1" xmlns="http://www.w3.org/2000/svg" xmlns:xlink="http://www.w3.org/1999/xlink" x="0px"
	 y="0px" viewBox="0 0 24 24" style="enable-background:new 0 0 24 24;" xml:space="preserve">
<path style="fill:#333333;" d="M21.5,20.25H3.25V13.5h0.5v6.25H21.5V20.25z M21.5,12.25H5v-0.5h16.5V12.25z M3.75,10.5h-0.5V3.75
	H21.5v0.5H3.75V10.5z"/>
<path style="fill:#333333;" d="M3.5,13.75c-0.965,0-1.75-0.785-1.75-1.75s0.785-1.75,1.75-1.75S5.25,11.035,5.25,12
	S4.465,13.75,3.5,13.75z M3.5,10.75c-0.689,0-1.25,0.561-1.25,1.25s0.561,1.25,1.25,1.25S4.75,12.689,4.75,12S4.189,10.75,3.5,10.75
	z"/>
</svg>






