<?xml version="1.0" encoding="iso-8859-1"?>
<svg version="1.1" id="&#x56FE;&#x5C42;_1" xmlns="http://www.w3.org/2000/svg" xmlns:xlink="http://www.w3.org/1999/xlink" x="0px"
	 y="0px" viewBox="0 0 24 24" style="enable-background:new 0 0 24 24;" xml:space="preserve">
<path style="fill:none;" d="M8,5c0,1.381-1.119,2.5-2.5,2.5C4.119,7.5,3,6.381,3,5c0-1.381,1.119-2.5,2.5-2.5C6.881,2.5,8,3.619,8,5
	z"/>
<path style="fill:#333333;" d="M5.5,7.75C3.983,7.75,2.75,6.517,2.75,5S3.983,2.25,5.5,2.25c1.432,0,2.612,1.1,2.739,2.5h4.658
	l-1.573-1.573l0.354-0.354l2,2L13.5,5l0.177,0.177l-2,2l-0.354-0.354l1.573-1.573H8.239C8.112,6.65,6.932,7.75,5.5,7.75z M5.5,2.75
	C4.259,2.75,3.25,3.759,3.25,5S4.259,7.25,5.5,7.25S7.75,6.241,7.75,5S6.741,2.75,5.5,2.75z"/>
<path style="fill:none;" d="M16,19c0,1.381,1.119,2.5,2.5,2.5S21,20.381,21,19s-1.119-2.5-2.5-2.5S16,17.619,16,19z"/>
<path style="fill:#333333;" d="M18.5,21.75c-1.433,0-2.612-1.101-2.738-2.5h-4.658l1.573,1.573l-0.354,0.354l-2-2L10.5,19
	l-0.177-0.177l2-2l0.354,0.354l-1.573,1.573h4.658c0.126-1.399,1.306-2.5,2.738-2.5c1.517,0,2.75,1.233,2.75,2.75
	S20.017,21.75,18.5,21.75z M18.5,16.75c-1.24,0-2.25,1.01-2.25,2.25s1.01,2.25,2.25,2.25s2.25-1.01,2.25-2.25
	S19.74,16.75,18.5,16.75z"/>
<path style="fill:none;" d="M16.5,5.5C16.5,6.881,17.619,8,19,8s2.5-1.119,2.5-2.5C21.5,4.119,20.381,3,19,3S16.5,4.119,16.5,5.5z"
	/>
<path style="fill:#333333;" d="M19.177,13.677L19,13.5l-0.177,0.177l-2-2l0.354-0.354l1.573,1.573V8.239
	c-1.399-0.126-2.5-1.307-2.5-2.739c0-1.517,1.233-2.75,2.75-2.75s2.75,1.233,2.75,2.75c0,1.432-1.101,2.612-2.5,2.739v4.658
	l1.573-1.573l0.354,0.354L19.177,13.677z M19,3.25c-1.24,0-2.25,1.009-2.25,2.25S17.76,7.75,19,7.75s2.25-1.009,2.25-2.25
	S20.24,3.25,19,3.25z"/>
<path style="fill:none;" d="M2.5,18.5C2.5,17.119,3.619,16,5,16c1.381,0,2.5,1.119,2.5,2.5S6.381,21,5,21
	C3.619,21,2.5,19.881,2.5,18.5z"/>
<path style="fill:#333333;" d="M5,21.25c-1.517,0-2.75-1.233-2.75-2.75c0-1.433,1.1-2.612,2.5-2.738v-4.658l-1.573,1.573
	l-0.354-0.354l2-2L5,10.5l0.177-0.177l2,2l-0.354,0.354L5.25,11.104v4.658c1.4,0.126,2.5,1.306,2.5,2.738
	C7.75,20.017,6.517,21.25,5,21.25z M5,16.25c-1.241,0-2.25,1.01-2.25,2.25S3.759,20.75,5,20.75s2.25-1.01,2.25-2.25
	S6.241,16.25,5,16.25z"/>
</svg>






