<?xml version="1.0" encoding="iso-8859-1"?>
<svg version="1.1" id="&#x56FE;&#x5C42;_1" xmlns="http://www.w3.org/2000/svg" xmlns:xlink="http://www.w3.org/1999/xlink" x="0px"
	 y="0px" viewBox="0 0 24 24" style="enable-background:new 0 0 24 24;" xml:space="preserve">
<path style="fill:#333333;" d="M12,22.25C6.348,22.25,1.75,17.652,1.75,12C1.75,6.348,6.348,1.75,12,1.75
	c5.652,0,10.25,4.598,10.25,10.25C22.25,17.652,17.652,22.25,12,22.25z M12,2.25c-5.376,0-9.75,4.374-9.75,9.75
	s4.374,9.75,9.75,9.75s9.75-4.374,9.75-9.75S17.376,2.25,12,2.25z"/>
<rect x="13.75" y="8" style="fill:#333333;" width="0.5" height="2.5"/>
<rect x="9.75" y="8" style="fill:#333333;" width="0.5" height="2.5"/>
<path style="fill:#333333;" d="M12,16.25c-2.343,0-4.25-1.906-4.25-4.25v-1.75h8.5V12C16.25,14.344,14.344,16.25,12,16.25z
	 M8.25,10.75V12c0,2.067,1.682,3.75,3.75,3.75c2.067,0,3.75-1.683,3.75-3.75v-1.25H8.25z"/>
<rect x="11.75" y="16" style="fill:#333333;" width="0.5" height="6"/>
</svg>






