<?xml version="1.0" encoding="iso-8859-1"?>
<svg version="1.1" id="&#x56FE;&#x5C42;_1" xmlns="http://www.w3.org/2000/svg" xmlns:xlink="http://www.w3.org/1999/xlink" x="0px"
	 y="0px" viewBox="0 0 24 24" style="enable-background:new 0 0 24 24;" xml:space="preserve">
<path style="fill:#333333;" d="M20.5,13.25h-17c-0.689,0-1.25-0.561-1.25-1.25V4c0-0.689,0.561-1.25,1.25-1.25h17
	c0.689,0,1.25,0.561,1.25,1.25v8C21.75,12.689,21.189,13.25,20.5,13.25z M3.5,3.25C3.086,3.25,2.75,3.586,2.75,4v8
	c0,0.413,0.336,0.75,0.75,0.75h17c0.413,0,0.75-0.337,0.75-0.75V4c0-0.414-0.337-0.75-0.75-0.75H3.5z"/>
<rect x="5.75" y="13" style="fill:#333333;" width="0.5" height="8"/>
<rect x="6" y="16.25" style="fill:#333333;" width="12" height="0.5"/>
<rect x="4" y="20.75" style="fill:#333333;" width="4" height="0.5"/>
<rect x="16" y="20.75" style="fill:#333333;" width="4" height="0.5"/>
<rect x="17.75" y="13" style="fill:#333333;" width="0.5" height="8"/>
</svg>






