<?xml version="1.0" encoding="iso-8859-1"?>
<svg version="1.1" id="&#x56FE;&#x5C42;_1" xmlns="http://www.w3.org/2000/svg" xmlns:xlink="http://www.w3.org/1999/xlink" x="0px"
	 y="0px" viewBox="0 0 24 24" style="enable-background:new 0 0 24 24;" xml:space="preserve">
<path style="fill:#333333;" d="M19.5,21.25h-15c-0.965,0-1.75-0.785-1.75-1.75v-15c0-0.965,0.785-1.75,1.75-1.75h15
	c0.965,0,1.75,0.785,1.75,1.75v15C21.25,20.465,20.465,21.25,19.5,21.25z M4.5,3.25c-0.689,0-1.25,0.561-1.25,1.25v15
	c0,0.689,0.561,1.25,1.25,1.25h15c0.689,0,1.25-0.561,1.25-1.25v-15c0-0.689-0.561-1.25-1.25-1.25H4.5z"/>
<polygon style="fill:#333333;" points="6.75,15.5 6.25,15.5 6.25,8.25 10.5,8.25 10.5,8.75 6.75,8.75 "/>
<rect x="6.5" y="11.75" style="fill:#333333;" width="3.75" height="0.5"/>
<rect x="6.5" y="15.25" style="fill:#333333;" width="3.75" height="0.5"/>
<rect x="12.75" y="9.5" style="fill:#333333;" width="0.5" height="6"/>
<path style="fill:#333333;" d="M17.75,15.5h-0.5v-3.25c0-1.103-0.897-2-2-2s-2,0.897-2,2v3.25h-0.5v-3.25c0-1.378,1.121-2.5,2.5-2.5
	s2.5,1.122,2.5,2.5V15.5z"/>
</svg>






