<?xml version="1.0" encoding="iso-8859-1"?>
<svg version="1.1" id="&#x56FE;&#x5C42;_1" xmlns="http://www.w3.org/2000/svg" xmlns:xlink="http://www.w3.org/1999/xlink" x="0px"
	 y="0px" viewBox="0 0 24 24" style="enable-background:new 0 0 24 24;" xml:space="preserve">
<path style="fill:#333333;" d="M8.064,15.25c-5.069,0-6.194-3.594-6.305-4.004l0.416-0.244c0.361,0.354,1.564,1.188,2.78,0.79l0,0
	c0.667-0.218,1.064-0.722,1.485-1.255c0.543-0.69,1.16-1.472,2.443-1.723c1.882-0.372,3.044,0.942,3.324,2.317
	c0.14,0.683-0.044,1.827-0.777,2.725C10.911,14.491,9.905,15.25,8.064,15.25z M2.562,11.895C3.134,12.977,4.6,14.75,8.064,14.75
	c1.32,0,2.323-0.407,2.979-1.211c0.672-0.823,0.771-1.832,0.674-2.309c-0.24-1.179-1.181-2.231-2.739-1.927
	c-1.102,0.216-1.609,0.86-2.146,1.542c-0.448,0.568-0.912,1.156-1.722,1.421l0,0C4.153,12.579,3.212,12.264,2.562,11.895z"/>
<path style="fill:#333333;" d="M15.936,15.25c-1.841,0-2.847-0.759-3.366-1.395c-0.733-0.897-0.917-2.042-0.777-2.725
	c0.28-1.375,1.441-2.69,3.325-2.317c1.283,0.251,1.899,1.033,2.443,1.723c0.421,0.534,0.818,1.038,1.484,1.255h0.001
	c1.213,0.399,2.417-0.435,2.779-0.79l0.416,0.245C22.13,11.656,21.004,15.25,15.936,15.25z M14.492,9.25
	c-1.243,0-1.998,0.941-2.21,1.98c-0.098,0.477,0.002,1.485,0.675,2.309c0.656,0.804,1.658,1.211,2.979,1.211
	c3.463,0,4.93-1.774,5.502-2.855c-0.65,0.37-1.596,0.685-2.547,0.372l0,0c-0.812-0.265-1.274-0.853-1.723-1.421
	c-0.537-0.682-1.045-1.326-2.146-1.542C14.836,9.268,14.66,9.25,14.492,9.25z"/>
</svg>






