<?xml version="1.0" encoding="iso-8859-1"?>
<svg version="1.1" id="&#x56FE;&#x5C42;_1" xmlns="http://www.w3.org/2000/svg" xmlns:xlink="http://www.w3.org/1999/xlink" x="0px"
	 y="0px" viewBox="0 0 24 24" style="enable-background:new 0 0 24 24;" xml:space="preserve">
<path style="fill:#333333;" d="M8,12.25c-2.895,0-5.25-2.355-5.25-5.25S5.105,1.75,8,1.75S13.25,4.105,13.25,7S10.895,12.25,8,12.25
	z M8,2.25C5.381,2.25,3.25,4.381,3.25,7S5.381,11.75,8,11.75S12.75,9.619,12.75,7S10.619,2.25,8,2.25z"/>
<path style="fill:#333333;" d="M17.638,19.596c-0.17,0-0.34-0.058-0.48-0.176l-8.409-7.23l0.326-0.379l8.406,7.229
	c0.096,0.081,0.241,0.073,0.333-0.018l2.042-2.042c0.092-0.092,0.099-0.237,0.015-0.337c-4.767-5.996-7.01-8.817-7.062-8.882
	l0.369-0.336c0.016,0.016,0.02,0.02,7.081,8.903c0.247,0.295,0.228,0.729-0.049,1.006l-2.042,2.042
	C18.021,19.521,17.829,19.596,17.638,19.596z"/>
<rect x="13.692" y="11.942" transform="matrix(0.7071 -0.7071 0.7071 0.7071 -5.068 13.6495)" style="fill:#333333;" width="0.5" height="2"/>
<path style="fill:#333333;" d="M18.15,22.683c-1.061,0-2.165-0.595-3.238-1.173c-0.995-0.536-2.024-1.09-2.917-1.09
	c-1.302,0-2.38,0.581-3.297,1.775l-0.396-0.305c1.003-1.308,2.246-1.971,3.693-1.971c1.02,0,2.104,0.585,3.154,1.149
	c1.15,0.62,2.345,1.256,3.361,1.084c0.913-0.157,1.582-0.686,1.789-1.414c0.174-0.609-0.021-1.238-0.523-1.683l0.332-0.375
	c0.648,0.575,0.9,1.396,0.672,2.194c-0.261,0.918-1.078,1.579-2.186,1.77C18.448,22.671,18.3,22.683,18.15,22.683z"/>
</svg>






