<?xml version="1.0" encoding="iso-8859-1"?>
<svg version="1.1" id="&#x56FE;&#x5C42;_1" xmlns="http://www.w3.org/2000/svg" xmlns:xlink="http://www.w3.org/1999/xlink" x="0px"
	 y="0px" viewBox="0 0 24 24" style="enable-background:new 0 0 24 24;" xml:space="preserve">
<path style="fill:#333333;" d="M21,19.75H3c-0.689,0-1.25-0.561-1.25-1.25v-14c0-0.689,0.561-1.25,1.25-1.25h18
	c0.689,0,1.25,0.561,1.25,1.25v14C22.25,19.189,21.689,19.75,21,19.75z M3,3.75c-0.414,0-0.75,0.336-0.75,0.75v14
	c0,0.413,0.336,0.75,0.75,0.75h18c0.413,0,0.75-0.337,0.75-0.75v-14c0-0.414-0.337-0.75-0.75-0.75H3z"/>
<rect x="6" y="9.25" style="fill:#333333;" width="1" height="0.5"/>
<rect x="10.5" y="9.25" style="fill:#333333;" width="1" height="0.5"/>
<rect x="14.5" y="9.25" style="fill:#333333;" width="3.5" height="0.5"/>
<rect x="6" y="13.75" style="fill:#333333;" width="12" height="0.5"/>
</svg>






