<?xml version="1.0" encoding="iso-8859-1"?>
<svg version="1.1" id="&#x56FE;&#x5C42;_1" xmlns="http://www.w3.org/2000/svg" xmlns:xlink="http://www.w3.org/1999/xlink" x="0px"
	 y="0px" viewBox="0 0 24 24" style="enable-background:new 0 0 24 24;" xml:space="preserve">
<polygon style="fill:#333333;" points="6,16.25 1.75,16.25 1.75,3.75 18.25,3.75 18.25,8 17.75,8 17.75,4.25 2.25,4.25 2.25,15.75 
	6,15.75 "/>
<path style="fill:#333333;" d="M22.25,20.25H5.75V7.75h16.5V20.25z M6.25,19.75h15.5V8.25H6.25V19.75z"/>
<polygon style="fill:#333333;" points="14,14.312 5.85,8.2 6.15,7.8 14,13.688 21.85,7.8 22.15,8.2 "/>
<polygon style="fill:#333333;" points="6.25,15.5 5.75,15.5 5.75,7.75 16,7.75 16,8.25 6.25,8.25 "/>
<polygon style="fill:#333333;" points="22.25,15.5 21.75,15.5 21.75,8.25 12,8.25 12,7.75 22.25,7.75 "/>
</svg>






