<?xml version="1.0" encoding="iso-8859-1"?>
<svg version="1.1" id="&#x56FE;&#x5C42;_1" xmlns="http://www.w3.org/2000/svg" xmlns:xlink="http://www.w3.org/1999/xlink" x="0px"
	 y="0px" viewBox="0 0 24 24" style="enable-background:new 0 0 24 24;" xml:space="preserve">
<rect x="5.25" y="8" style="fill:#333333;" width="0.5" height="13"/>
<rect x="11.75" y="14.5" style="fill:#333333;" width="0.5" height="6.5"/>
<rect x="11.75" y="3" style="fill:#333333;" width="0.5" height="6.5"/>
<rect x="18.25" y="3" style="fill:#333333;" width="0.5" height="13"/>
<path style="fill:#333333;" d="M5.5,8.25c-1.517,0-2.75-1.233-2.75-2.75S3.983,2.75,5.5,2.75S8.25,3.983,8.25,5.5
	S7.017,8.25,5.5,8.25z M5.5,3.25c-1.241,0-2.25,1.009-2.25,2.25S4.259,7.75,5.5,7.75S7.75,6.741,7.75,5.5S6.741,3.25,5.5,3.25z"/>
<path style="fill:#333333;" d="M12,14.75c-1.517,0-2.75-1.233-2.75-2.75S10.483,9.25,12,9.25s2.75,1.233,2.75,2.75
	S13.517,14.75,12,14.75z M12,9.75c-1.241,0-2.25,1.009-2.25,2.25c0,1.24,1.009,2.25,2.25,2.25c1.24,0,2.25-1.01,2.25-2.25
	C14.25,10.759,13.24,9.75,12,9.75z"/>
<path style="fill:#333333;" d="M18.5,21.25c-1.517,0-2.75-1.233-2.75-2.75s1.233-2.75,2.75-2.75s2.75,1.233,2.75,2.75
	S20.017,21.25,18.5,21.25z M18.5,16.25c-1.24,0-2.25,1.01-2.25,2.25s1.01,2.25,2.25,2.25s2.25-1.01,2.25-2.25
	S19.74,16.25,18.5,16.25z"/>
</svg>






