<?xml version="1.0" encoding="iso-8859-1"?>
<svg version="1.1" id="&#x56FE;&#x5C42;_1" xmlns="http://www.w3.org/2000/svg" xmlns:xlink="http://www.w3.org/1999/xlink" x="0px"
	 y="0px" viewBox="0 0 24 24" style="enable-background:new 0 0 24 24;" xml:space="preserve">
<path style="fill:#333333;" d="M19.5,21.25h-15c-0.965,0-1.75-0.785-1.75-1.75v-15c0-0.965,0.785-1.75,1.75-1.75h15
	c0.965,0,1.75,0.785,1.75,1.75v15C21.25,20.465,20.465,21.25,19.5,21.25z M4.5,3.25c-0.689,0-1.25,0.561-1.25,1.25v15
	c0,0.689,0.561,1.25,1.25,1.25h15c0.689,0,1.25-0.561,1.25-1.25v-15c0-0.689-0.561-1.25-1.25-1.25H4.5z"/>
<path style="fill-rule:evenodd;clip-rule:evenodd;fill:#333333;" d="M12,11.25c0.69,0,1.25-0.56,1.25-1.25S12.69,8.75,12,8.75
	S10.75,9.31,10.75,10S11.31,11.25,12,11.25z"/>
<path style="fill-rule:evenodd;clip-rule:evenodd;fill:#333333;" d="M12,15.25c0.69,0,1.25-0.56,1.25-1.25s-0.56-1.25-1.25-1.25
	s-1.25,0.56-1.25,1.25S11.31,15.25,12,15.25z"/>
<rect x="7.5" y="8.5" style="fill:#333333;" width="0.5" height="7"/>
<rect x="16" y="8.5" style="fill:#333333;" width="0.5" height="7"/>
</svg>






