<?xml version="1.0" encoding="iso-8859-1"?>
<svg version="1.1" id="&#x56FE;&#x5C42;_1" xmlns="http://www.w3.org/2000/svg" xmlns:xlink="http://www.w3.org/1999/xlink" x="0px"
	 y="0px" viewBox="0 0 24 24" style="enable-background:new 0 0 24 24;" xml:space="preserve">
<path style="fill:#333333;" d="M6.604,22.25H1.75v-5h4.646l11-11h4.854v5h-4.646L6.604,22.25z M2.25,21.75h4.146l11-11h4.354v-4
	h-4.146l-11,11H2.25V21.75z"/>
<rect x="8.568" y="4" transform="matrix(0.7071 -0.7071 0.7071 0.7071 0.4363 9.5533)" style="fill:#333333;" width="6.364" height="0.5"/>
<polygon style="fill:#333333;" points="14.25,5 13.75,5 13.75,2.25 11,2.25 11,1.75 14.25,1.75 "/>
<rect x="1.568" y="11" transform="matrix(0.7071 -0.7071 0.7071 0.7071 -6.5637 6.6538)" style="fill:#333333;" width="6.364" height="0.5"/>
<polygon style="fill:#333333;" points="5.5,13.75 2.25,13.75 2.25,10.5 2.75,10.5 2.75,13.25 5.5,13.25 "/>
</svg>






