<?xml version="1.0" encoding="iso-8859-1"?>
<svg version="1.1" id="&#x56FE;&#x5C42;_1" xmlns="http://www.w3.org/2000/svg" xmlns:xlink="http://www.w3.org/1999/xlink" x="0px"
	 y="0px" viewBox="0 0 24 24" style="enable-background:new 0 0 24 24;" xml:space="preserve">
<path style="fill:#333333;" d="M19.5,21.25h-15c-0.965,0-1.75-0.785-1.75-1.75v-15c0-0.965,0.785-1.75,1.75-1.75h15
	c0.965,0,1.75,0.785,1.75,1.75v15C21.25,20.465,20.465,21.25,19.5,21.25z M4.5,3.25c-0.689,0-1.25,0.561-1.25,1.25v15
	c0,0.689,0.561,1.25,1.25,1.25h15c0.689,0,1.25-0.561,1.25-1.25v-15c0-0.689-0.561-1.25-1.25-1.25H4.5z"/>
<path style="fill:#333333;" d="M14.75,16.75h-5.5v-3.5h5.5V16.75z M9.75,16.25h4.5v-2.5h-4.5V16.25z"/>
<path style="fill:#333333;" d="M17.25,13.75H6.75v-4.5h10.5V13.75z M7.25,13.25h9.5v-3.5h-9.5V13.25z"/>
<rect x="16.25" y="7.5" style="fill:#333333;" width="0.5" height="2"/>
<rect x="13.25" y="7.5" style="fill:#333333;" width="0.5" height="2"/>
<rect x="10.25" y="7.5" style="fill:#333333;" width="0.5" height="2"/>
<rect x="7.25" y="7.5" style="fill:#333333;" width="0.5" height="2"/>
</svg>






