<?xml version="1.0" encoding="iso-8859-1"?>
<svg version="1.1" id="&#x56FE;&#x5C42;_1" xmlns="http://www.w3.org/2000/svg" xmlns:xlink="http://www.w3.org/1999/xlink" x="0px"
	 y="0px" viewBox="0 0 24 24" style="enable-background:new 0 0 24 24;" xml:space="preserve">
<path style="fill:#333333;" d="M7,17.25c-1.517,0-2.75-1.233-2.75-2.75S5.483,11.75,7,11.75s2.75,1.233,2.75,2.75
	S8.517,17.25,7,17.25z M7,12.25c-1.241,0-2.25,1.01-2.25,2.25S5.759,16.75,7,16.75s2.25-1.01,2.25-2.25S8.241,12.25,7,12.25z"/>
<path style="fill:#333333;" d="M17,17.25c-1.517,0-2.75-1.233-2.75-2.75s1.233-2.75,2.75-2.75s2.75,1.233,2.75,2.75
	S18.517,17.25,17,17.25z M17,12.25c-1.24,0-2.25,1.01-2.25,2.25s1.01,2.25,2.25,2.25s2.25-1.01,2.25-2.25S18.24,12.25,17,12.25z"/>
<path style="fill:#333333;" d="M12,7.25c-1.517,0-2.75-1.233-2.75-2.75S10.483,1.75,12,1.75s2.75,1.233,2.75,2.75
	S13.517,7.25,12,7.25z M12,2.25c-1.241,0-2.25,1.009-2.25,2.25S10.759,6.75,12,6.75c1.24,0,2.25-1.009,2.25-2.25S13.24,2.25,12,2.25
	z"/>
<path style="fill:#333333;" d="M12.25,22h-0.5c0-2.619-2.131-4.75-4.75-4.75S2.25,19.381,2.25,22h-0.5c0-2.895,2.355-5.25,5.25-5.25
	S12.25,19.105,12.25,22z"/>
<path style="fill:#333333;" d="M22.25,22h-0.5c0-2.619-2.131-4.75-4.75-4.75s-4.75,2.131-4.75,4.75h-0.5
	c0-2.895,2.355-5.25,5.25-5.25S22.25,19.105,22.25,22z"/>
<path style="fill:#333333;" d="M17.25,12h-0.5c0-2.619-2.131-4.75-4.75-4.75S7.25,9.381,7.25,12h-0.5c0-2.895,2.355-5.25,5.25-5.25
	C14.895,6.75,17.25,9.105,17.25,12z"/>
</svg>






