<?xml version="1.0" encoding="iso-8859-1"?>
<svg version="1.1" id="&#x56FE;&#x5C42;_1" xmlns="http://www.w3.org/2000/svg" xmlns:xlink="http://www.w3.org/1999/xlink" x="0px"
	 y="0px" viewBox="0 0 24 24" style="enable-background:new 0 0 24 24;" xml:space="preserve">
<path style="fill:#333333;" d="M19,22.25H5c-0.689,0-1.25-0.561-1.25-1.25v-4.5h0.5V21c0,0.413,0.336,0.75,0.75,0.75h14
	c0.413,0,0.75-0.337,0.75-0.75V3c0-0.414-0.337-0.75-0.75-0.75H5C4.586,2.25,4.25,2.586,4.25,3v4.5h-0.5V3
	c0-0.689,0.561-1.25,1.25-1.25h14c0.689,0,1.25,0.561,1.25,1.25v18C20.25,21.689,19.689,22.25,19,22.25z"/>
<rect x="15.5" y="7.25" style="fill:#333333;" width="1.5" height="0.5"/>
<rect x="14" y="11.25" style="fill:#333333;" width="3" height="0.5"/>
<rect x="14" y="15.25" style="fill:#333333;" width="3" height="0.5"/>
<path style="fill:#333333;" d="M11.25,16.75h-9.5v-9.5h9.5V16.75z M2.25,16.25h8.5v-8.5h-8.5V16.25z"/>
<rect x="6.25" y="9.879" transform="matrix(0.7071 -0.7071 0.7071 0.7071 -6.5815 8.1109)" style="fill:#333333;" width="0.5" height="4.243"/>
<rect x="4.379" y="11.75" transform="matrix(0.7071 -0.7071 0.7071 0.7071 -6.5815 8.1109)" style="fill:#333333;" width="4.243" height="0.5"/>
</svg>






