<?xml version="1.0" encoding="iso-8859-1"?>
<svg version="1.1" id="&#x56FE;&#x5C42;_1" xmlns="http://www.w3.org/2000/svg" xmlns:xlink="http://www.w3.org/1999/xlink" x="0px"
	 y="0px" viewBox="0 0 24 24" style="enable-background:new 0 0 24 24;" xml:space="preserve">
<path style="fill:#333333;" d="M12.001,22.264l-0.079-0.026C6.436,20.41,2.75,15.297,2.75,9.514V3.94l9.254-2.701L21.25,3.94v5.577
	c0,5.782-3.686,10.893-9.17,12.72L12.001,22.264z M3.25,4.315v5.199c0,5.54,3.513,10.441,8.751,12.222
	c5.236-1.781,8.749-6.682,8.749-12.219V4.315L12.004,1.76L3.25,4.315z"/>
<rect x="8.5" y="9.25" style="fill:#333333;" width="7" height="0.5"/>
<rect x="8.5" y="12.25" style="fill:#333333;" width="7" height="0.5"/>
<rect x="14" y="6.482" transform="matrix(0.7071 -0.7071 0.7071 0.7071 -1.6599 12.4926)" style="fill:#333333;" width="0.5" height="3.536"/>
<rect x="9.5" y="11.982" transform="matrix(0.7071 -0.7071 0.7071 0.7071 -6.867 10.9216)" style="fill:#333333;" width="0.5" height="3.536"/>
</svg>






