<?xml version="1.0" encoding="iso-8859-1"?>
<svg version="1.1" id="&#x56FE;&#x5C42;_1" xmlns="http://www.w3.org/2000/svg" xmlns:xlink="http://www.w3.org/1999/xlink" x="0px"
	 y="0px" viewBox="0 0 24 24" style="enable-background:new 0 0 24 24;" xml:space="preserve">
<path style="fill:#333333;" d="M19,21.25H5c-1.241,0-2.25-1.01-2.25-2.25V5c0-1.241,1.009-2.25,2.25-2.25h14
	c1.24,0,2.25,1.009,2.25,2.25v14C21.25,20.24,20.24,21.25,19,21.25z M5,3.25C4.035,3.25,3.25,4.035,3.25,5v14
	c0,0.965,0.785,1.75,1.75,1.75h14c0.965,0,1.75-0.785,1.75-1.75V5c0-0.965-0.785-1.75-1.75-1.75H5z"/>
<rect x="3" y="15.75" style="fill:#333333;" width="18" height="0.5"/>
<polygon style="fill:#333333;" points="12,10.354 9.823,8.177 10.177,7.823 12,9.646 13.823,7.823 14.177,8.177 "/>
<rect x="2.75" y="13" style="fill:#333333;" width="0.5" height="6"/>
<rect x="20.75" y="13" style="fill:#333333;" width="0.5" height="6"/>
</svg>






