<?xml version="1.0" encoding="iso-8859-1"?>
<svg version="1.1" id="&#x56FE;&#x5C42;_1" xmlns="http://www.w3.org/2000/svg" xmlns:xlink="http://www.w3.org/1999/xlink" x="0px"
	 y="0px" viewBox="0 0 24 24" style="enable-background:new 0 0 24 24;" xml:space="preserve">
<polygon style="fill:#333333;" points="15.177,18.177 14.823,17.823 17.146,15.5 14.823,13.177 15.177,12.823 17.854,15.5 "/>
<polygon style="fill:#333333;" points="19.177,18.177 18.823,17.823 21.146,15.5 18.823,13.177 19.177,12.823 21.854,15.5 "/>
<path style="fill:#333333;" d="M14.235,20.75H3.5c-0.689,0-1.25-0.561-1.25-1.25v-15c0-0.689,0.561-1.25,1.25-1.25h17
	c0.689,0,1.25,0.561,1.25,1.25V11h-0.5V4.5c0-0.414-0.337-0.75-0.75-0.75h-17c-0.414,0-0.75,0.336-0.75,0.75v15
	c0,0.413,0.336,0.75,0.75,0.75h10.735V20.75z"/>
<polygon style="fill:#333333;" points="9,10.891 6.308,7.66 6.692,7.34 9,10.109 11.308,7.34 11.692,7.66 "/>
<rect x="6" y="13.25" style="fill:#333333;" width="6" height="0.5"/>
<rect x="6" y="10.25" style="fill:#333333;" width="6" height="0.5"/>
<rect x="8.75" y="10.5" style="fill:#333333;" width="0.5" height="6"/>
</svg>






