<?xml version="1.0" encoding="iso-8859-1"?>
<svg version="1.1" id="&#x56FE;&#x5C42;_1" xmlns="http://www.w3.org/2000/svg" xmlns:xlink="http://www.w3.org/1999/xlink" x="0px"
	 y="0px" viewBox="0 0 24 24" style="enable-background:new 0 0 24 24;" xml:space="preserve">
<rect x="6" y="1.75" style="fill:#333333;" width="12" height="0.5"/>
<polygon style="fill:#333333;" points="5.614,15.109 5.164,14.891 8.759,7.462 8.759,1.75 15.264,1.75 15.264,7.462 18.849,14.892 
	18.397,15.108 14.764,7.52 14.764,2.25 9.259,2.25 9.234,7.628 "/>
<path style="fill:#333333;" d="M19.394,22.25H4.61c-0.283,0-0.567-0.065-0.822-0.188l0-0.001c-0.936-0.453-1.329-1.584-0.876-2.52
	l2.378-4.913l0.24,0.165c0.142,0.098,3.494,2.362,6.309,0.014c3.113-2.593,6.888-0.038,6.925-0.014l0.055,0.038l0.029,0.06
	l2.244,4.652c0.122,0.253,0.188,0.537,0.188,0.819C21.28,21.403,20.434,22.25,19.394,22.25z M4.006,21.612
	c0.188,0.09,0.396,0.138,0.604,0.138h14.783c0.765,0,1.387-0.622,1.387-1.387c0-0.207-0.048-0.416-0.138-0.602l-2.215-4.592
	c-0.465-0.301-3.61-2.193-6.268,0.022c-2.653,2.208-5.778,0.681-6.667,0.165L3.362,19.76C3.029,20.447,3.318,21.278,4.006,21.612
	L4.006,21.612z"/>
</svg>






