<?xml version="1.0" encoding="iso-8859-1"?>
<svg version="1.1" id="&#x56FE;&#x5C42;_1" xmlns="http://www.w3.org/2000/svg" xmlns:xlink="http://www.w3.org/1999/xlink" x="0px"
	 y="0px" viewBox="0 0 24 24" style="enable-background:new 0 0 24 24;" xml:space="preserve">
<path style="fill:#333333;" d="M19,22.25H5c-0.689,0-1.25-0.561-1.25-1.25v-5.5h0.5V21c0,0.413,0.336,0.75,0.75,0.75h14
	c0.413,0,0.75-0.337,0.75-0.75v-5.5h0.5V21C20.25,21.689,19.689,22.25,19,22.25z"/>
<path style="fill:#333333;" d="M19,12.25H5c-0.689,0-1.25-0.561-1.25-1.25V8c0-0.689,0.561-1.25,1.25-1.25h14
	c0.689,0,1.25,0.561,1.25,1.25v3C20.25,11.689,19.689,12.25,19,12.25z M5,7.25C4.586,7.25,4.25,7.586,4.25,8v3
	c0,0.414,0.336,0.75,0.75,0.75h14c0.413,0,0.75-0.336,0.75-0.75V8c0-0.414-0.337-0.75-0.75-0.75H5z"/>
<rect x="7.75" y="2" style="fill:#333333;" width="0.5" height="2"/>
<rect x="11.75" y="2" style="fill:#333333;" width="0.5" height="2"/>
<rect x="15.75" y="2" style="fill:#333333;" width="0.5" height="2"/>
<rect x="8" y="16.75" style="fill:#333333;" width="8" height="0.5"/>
</svg>






