<?xml version="1.0" encoding="iso-8859-1"?>
<svg version="1.1" id="&#x56FE;&#x5C42;_1" xmlns="http://www.w3.org/2000/svg" xmlns:xlink="http://www.w3.org/1999/xlink" x="0px"
	 y="0px" viewBox="0 0 24 24" style="enable-background:new 0 0 24 24;" xml:space="preserve">
<path style="fill:#333333;" d="M19.5,21.25h-15c-0.965,0-1.75-0.785-1.75-1.75v-15c0-0.965,0.785-1.75,1.75-1.75h15
	c0.965,0,1.75,0.785,1.75,1.75v15C21.25,20.465,20.465,21.25,19.5,21.25z M4.5,3.25c-0.689,0-1.25,0.561-1.25,1.25v15
	c0,0.689,0.561,1.25,1.25,1.25h15c0.689,0,1.25-0.561,1.25-1.25v-15c0-0.689-0.561-1.25-1.25-1.25H4.5z"/>
<path style="fill:#333333;" d="M17.5,6h-2.293c-0.445,0-0.669,0.539-0.354,0.854l2.293,2.293C17.461,9.461,18,9.238,18,8.793V6.5
	C18,6.224,17.776,6,17.5,6z"/>
<path style="fill:#333333;" d="M6,6.5v2.293c0,0.445,0.539,0.669,0.854,0.354l2.293-2.293C9.461,6.539,9.238,6,8.793,6H6.5
	C6.224,6,6,6.224,6,6.5z"/>
<path style="fill:#333333;" d="M6.5,18h2.293c0.445,0,0.669-0.539,0.354-0.854l-2.293-2.293C6.539,14.539,6,14.762,6,15.207V17.5
	C6,17.776,6.224,18,6.5,18z"/>
<path style="fill:#333333;" d="M18,17.5v-2.293c0-0.445-0.539-0.669-0.854-0.354l-2.293,2.293C14.539,17.461,14.762,18,15.207,18
	H17.5C17.776,18,18,17.776,18,17.5z"/>
</svg>






