<?xml version="1.0" encoding="iso-8859-1"?>
<svg version="1.1" id="&#x56FE;&#x5C42;_1" xmlns="http://www.w3.org/2000/svg" xmlns:xlink="http://www.w3.org/1999/xlink" x="0px"
	 y="0px" viewBox="0 0 24 24" style="enable-background:new 0 0 24 24;" xml:space="preserve">
<path style="fill:#333333;" d="M12,20.25c-5.032,0-9.027-4.885-9.195-5.093L2.679,15l0.126-0.157C2.973,14.635,6.968,9.75,12,9.75
	s9.027,4.885,9.194,5.093L21.321,15l-0.127,0.157C21.027,15.365,17.032,20.25,12,20.25z M3.328,15C4.06,15.839,7.701,19.75,12,19.75
	s7.94-3.911,8.672-4.75c-0.731-0.839-4.373-4.75-8.672-4.75S4.06,14.161,3.328,15z"/>
<path style="fill:#333333;" d="M12,17.25c-1.241,0-2.25-1.01-2.25-2.25s1.009-2.25,2.25-2.25c1.24,0,2.25,1.01,2.25,2.25
	S13.24,17.25,12,17.25z M12,13.25c-0.965,0-1.75,0.785-1.75,1.75s0.785,1.75,1.75,1.75s1.75-0.785,1.75-1.75S12.965,13.25,12,13.25z
	"/>
<path style="fill:#333333;" d="M3.712,9.321c-0.334,0-0.661-0.197-0.899-0.56C2.29,7.961,2.344,6.638,3.34,5.808
	C4.908,4.501,10.466,2.75,14,2.75c3.202,0,5.41,1.988,6.729,3.175c0.159,0.144,0.304,0.273,0.434,0.385l-0.274,0.414
	c-1.212-0.606-4.562-1.545-6.828-0.981c-2.418,0.604-8.998,3.006-9.949,3.481C3.981,9.289,3.846,9.321,3.712,9.321z M14,3.25
	c-3.378,0-8.864,1.712-10.34,2.942C2.798,6.91,2.891,7.966,3.231,8.487c0.092,0.14,0.341,0.449,0.657,0.289
	C4.851,8.295,11.5,5.868,13.939,5.257c1.816-0.454,4.214-0.02,5.848,0.501C18.493,4.643,16.572,3.25,14,3.25z"/>
</svg>






