<?xml version="1.0" encoding="iso-8859-1"?>
<svg version="1.1" id="&#x56FE;&#x5C42;_1" xmlns="http://www.w3.org/2000/svg" xmlns:xlink="http://www.w3.org/1999/xlink" x="0px"
	 y="0px" viewBox="0 0 24 24" style="enable-background:new 0 0 24 24;" xml:space="preserve">
<path style="fill:#333333;" d="M19.5,21.25h-15c-0.965,0-1.75-0.785-1.75-1.75v-15c0-0.965,0.785-1.75,1.75-1.75h15
	c0.965,0,1.75,0.785,1.75,1.75v15C21.25,20.465,20.465,21.25,19.5,21.25z M4.5,3.25c-0.689,0-1.25,0.561-1.25,1.25v15
	c0,0.689,0.561,1.25,1.25,1.25h15c0.689,0,1.25-0.561,1.25-1.25v-15c0-0.689-0.561-1.25-1.25-1.25H4.5z"/>
<path style="fill:#333333;" d="M16.616,16h-0.5v-1.742H12.75v-1.134l3.406-5.26L16.616,8v5.758H17.5v0.5h-0.884V16z M13.25,13.758
	h2.866V8.846l-2.866,4.426V13.758z"/>
<polygon style="fill:#333333;" points="7.25,16 6.75,16 6.75,7.75 10.5,7.75 10.5,8.25 7.25,8.25 "/>
<rect x="7" y="11.75" style="fill:#333333;" width="3.5" height="0.5"/>
</svg>






