<?xml version="1.0" encoding="iso-8859-1"?>
<svg version="1.1" id="&#x56FE;&#x5C42;_1" xmlns="http://www.w3.org/2000/svg" xmlns:xlink="http://www.w3.org/1999/xlink" x="0px"
	 y="0px" viewBox="0 0 24 24" style="enable-background:new 0 0 24 24;" xml:space="preserve">
<path style="fill:#333333;" d="M19.5,21.25h-15c-0.965,0-1.75-0.785-1.75-1.75v-15c0-0.965,0.785-1.75,1.75-1.75h15
	c0.965,0,1.75,0.785,1.75,1.75v15C21.25,20.465,20.465,21.25,19.5,21.25z M4.5,3.25c-0.689,0-1.25,0.561-1.25,1.25v15
	c0,0.689,0.561,1.25,1.25,1.25h15c0.689,0,1.25-0.561,1.25-1.25v-15c0-0.689-0.561-1.25-1.25-1.25H4.5z"/>
<rect x="12.75" y="8.5" style="fill:#333333;" width="0.5" height="7.5"/>
<path style="fill:#333333;" d="M17.25,16h-0.5v-4.5c0-1.08-0.671-1.75-1.75-1.75c-1.063,0-1.75,0.687-1.75,1.75h-0.5
	c0-1.325,0.925-2.25,2.25-2.25c1.367,0,2.25,0.883,2.25,2.25V16z"/>
<polygon style="fill:#333333;" points="7.25,16 6.75,16 6.75,7.75 10.5,7.75 10.5,8.25 7.25,8.25 "/>
<rect x="7" y="11.75" style="fill:#333333;" width="3.5" height="0.5"/>
</svg>






