<?xml version="1.0" encoding="iso-8859-1"?>
<svg version="1.1" id="&#x56FE;&#x5C42;_1" xmlns="http://www.w3.org/2000/svg" xmlns:xlink="http://www.w3.org/1999/xlink" x="0px"
	 y="0px" viewBox="0 0 24 24" style="enable-background:new 0 0 24 24;" xml:space="preserve">
<path style="fill:#333333;" d="M19.5,21.25h-15c-0.965,0-1.75-0.785-1.75-1.75v-15c0-0.965,0.785-1.75,1.75-1.75h15
	c0.965,0,1.75,0.785,1.75,1.75v15C21.25,20.465,20.465,21.25,19.5,21.25z M4.5,3.25c-0.689,0-1.25,0.561-1.25,1.25v15
	c0,0.689,0.561,1.25,1.25,1.25h15c0.689,0,1.25-0.561,1.25-1.25v-15c0-0.689-0.561-1.25-1.25-1.25H4.5z"/>
<path style="fill:#333333;" d="M15,16.25c-1.24,0-2.25-1.01-2.25-2.25s1.01-2.25,2.25-2.25s2.25,1.01,2.25,2.25
	S16.24,16.25,15,16.25z M15,12.25c-0.965,0-1.75,0.785-1.75,1.75s0.785,1.75,1.75,1.75s1.75-0.785,1.75-1.75S15.965,12.25,15,12.25z
	"/>
<path style="fill:#333333;" d="M13.25,14h-0.5v-4c0-1.325,0.957-2.25,2.326-2.25c0.955,0,1.803,0.629,2.158,1.602l-0.469,0.172
	C16.482,8.75,15.819,8.25,15.076,8.25c-0.909,0-1.826,0.541-1.826,1.75V14z"/>
<polygon style="fill:#333333;" points="7.25,16 6.75,16 6.75,7.75 10.5,7.75 10.5,8.25 7.25,8.25 "/>
<rect x="7" y="11.75" style="fill:#333333;" width="3.5" height="0.5"/>
</svg>






