<?xml version="1.0" encoding="iso-8859-1"?>
<svg version="1.1" id="&#x56FE;&#x5C42;_1" xmlns="http://www.w3.org/2000/svg" xmlns:xlink="http://www.w3.org/1999/xlink" x="0px"
	 y="0px" viewBox="0 0 24 24" style="enable-background:new 0 0 24 24;" xml:space="preserve">
<path style="fill:#333333;" d="M19.5,21.25h-15c-0.965,0-1.75-0.785-1.75-1.75v-15c0-0.965,0.785-1.75,1.75-1.75h15
	c0.965,0,1.75,0.785,1.75,1.75v15C21.25,20.465,20.465,21.25,19.5,21.25z M4.5,3.25c-0.689,0-1.25,0.561-1.25,1.25v15
	c0,0.689,0.561,1.25,1.25,1.25h15c0.689,0,1.25-0.561,1.25-1.25v-15c0-0.689-0.561-1.25-1.25-1.25H4.5z"/>
<path style="fill:#333333;" d="M15.25,16.25c-0.965,0-1.699-0.59-1.974-1.139l0.447-0.223c0.214,0.428,0.808,0.861,1.526,0.861
	c0.692,0,1.5-0.458,1.5-1.75c0-1.306-0.863-2.15-2.2-2.15l-0.207-0.391l2.185-3.209H13.5v-0.5H17l0.207,0.391l-2.205,3.239
	c1.362,0.181,2.248,1.189,2.248,2.621C17.25,15.555,16.245,16.25,15.25,16.25z"/>
<polygon style="fill:#333333;" points="7.25,16 6.75,16 6.75,7.75 10.5,7.75 10.5,8.25 7.25,8.25 "/>
<rect x="7" y="11.75" style="fill:#333333;" width="3.5" height="0.5"/>
</svg>






