<?xml version="1.0" encoding="iso-8859-1"?>
<svg version="1.1" id="&#x56FE;&#x5C42;_1" xmlns="http://www.w3.org/2000/svg" xmlns:xlink="http://www.w3.org/1999/xlink" x="0px"
	 y="0px" viewBox="0 0 24 24" style="enable-background:new 0 0 24 24;" xml:space="preserve">
<path style="fill:#333333;" d="M19.5,21.25h-15c-0.965,0-1.75-0.785-1.75-1.75v-15c0-0.965,0.785-1.75,1.75-1.75h15
	c0.965,0,1.75,0.785,1.75,1.75v15C21.25,20.465,20.465,21.25,19.5,21.25z M4.5,3.25c-0.689,0-1.25,0.561-1.25,1.25v15
	c0,0.689,0.561,1.25,1.25,1.25h15c0.689,0,1.25-0.561,1.25-1.25v-15c0-0.689-0.561-1.25-1.25-1.25H4.5z"/>
<path style="fill:#333333;" d="M17,16.25h-4.25V16c0-1.09,0.966-2.018,1.988-3c0.989-0.95,2.012-1.933,2.012-3
	c0-1.081-0.908-1.75-1.75-1.75S13.25,8.919,13.25,10h-0.5c0-1.39,1.168-2.25,2.25-2.25s2.25,0.86,2.25,2.25
	c0,1.28-1.101,2.338-2.165,3.36c-0.854,0.82-1.665,1.6-1.812,2.39H17V16.25z"/>
<polygon style="fill:#333333;" points="7.25,16 6.75,16 6.75,7.75 10.5,7.75 10.5,8.25 7.25,8.25 "/>
<rect x="7" y="11.75" style="fill:#333333;" width="3.5" height="0.5"/>
</svg>






