<?xml version="1.0" encoding="iso-8859-1"?>
<svg version="1.1" id="&#x56FE;&#x5C42;_1" xmlns="http://www.w3.org/2000/svg" xmlns:xlink="http://www.w3.org/1999/xlink" x="0px"
	 y="0px" viewBox="0 0 24 24" style="enable-background:new 0 0 24 24;" xml:space="preserve">
<path style="fill:#333333;" d="M14.26,21.75H9.373v-6.968H5.75v-4.298h3.579l0.043-3.359L9.366,6.476
	C9.342,4.169,11.2,2.273,13.507,2.25h4.743v4.3h-3.257c-0.404,0-0.733,0.329-0.733,0.733v3.201h4.031l-0.66,4.298H14.26V21.75z
	 M9.873,21.25h3.887v-6.968h3.441l0.508-3.298H13.76V7.283c0-0.68,0.554-1.233,1.233-1.233h2.757v-3.3h-4.2
	c-2.069,0.021-3.705,1.69-3.684,3.721l0.007,0.654l-0.05,3.858H6.25v3.298h3.623V21.25z"/>
</svg>






