<?xml version="1.0" encoding="iso-8859-1"?>
<svg version="1.1" id="&#x56FE;&#x5C42;_1" xmlns="http://www.w3.org/2000/svg" xmlns:xlink="http://www.w3.org/1999/xlink" x="0px"
	 y="0px" viewBox="0 0 24 24" style="enable-background:new 0 0 24 24;" xml:space="preserve">
<path style="fill:#333333;" d="M12,18.25c-4.626,0-8.25-1.428-8.25-3.25s3.624-3.25,8.25-3.25s8.25,1.428,8.25,3.25
	S16.626,18.25,12,18.25z M12,12.25c-4.636,0-7.75,1.422-7.75,2.75s3.114,2.75,7.75,2.75s7.75-1.422,7.75-2.75S16.636,12.25,12,12.25
	z"/>
<path style="fill:#333333;" d="M12,12.25c-4.549,0-8.25-2.355-8.25-5.25S7.451,1.75,12,1.75S20.25,4.105,20.25,7
	S16.549,12.25,12,12.25z M12,2.25C7.727,2.25,4.25,4.381,4.25,7s3.477,4.75,7.75,4.75S19.75,9.619,19.75,7S16.273,2.25,12,2.25z"/>
<rect x="8.792" y="5.5" transform="matrix(0.8578 -0.5139 0.5139 0.8578 -1.4979 6.0851)" style="fill:#333333;" width="2.915" height="0.5"/>
<polygon style="fill:#333333;" points="12.629,8.714 12.371,8.286 14.871,6.786 15.129,7.214 "/>
<path style="fill:#333333;" d="M12,22.25c-4.626,0-8.25-1.428-8.25-3.25h0.5c0,1.328,3.114,2.75,7.75,2.75s7.75-1.422,7.75-2.75h0.5
	C20.25,20.822,16.626,22.25,12,22.25z"/>
<rect x="19.75" y="15" style="fill:#333333;" width="0.5" height="4"/>
<rect x="3.75" y="15" style="fill:#333333;" width="0.5" height="4"/>
<ellipse style="fill:#333333;" cx="12" cy="15" rx="3.5" ry="1"/>
</svg>






