<?xml version="1.0" encoding="iso-8859-1"?>
<svg version="1.1" id="&#x56FE;&#x5C42;_1" xmlns="http://www.w3.org/2000/svg" xmlns:xlink="http://www.w3.org/1999/xlink" x="0px"
	 y="0px" viewBox="0 0 24 24" style="enable-background:new 0 0 24 24;" xml:space="preserve">
<path style="fill:#333333;" d="M20.5,21.75h-4v-0.5h4c0.413,0,0.75-0.337,0.75-0.75v-4h0.5v4C21.75,21.189,21.189,21.75,20.5,21.75z
	 M7.5,21.75h-4c-0.689,0-1.25-0.561-1.25-1.25v-4h0.5v4c0,0.413,0.336,0.75,0.75,0.75h4V21.75z M21.75,7.5h-0.5v-4
	c0-0.414-0.337-0.75-0.75-0.75h-4v-0.5h4c0.689,0,1.25,0.561,1.25,1.25V7.5z M2.75,7.5h-0.5v-4c0-0.689,0.561-1.25,1.25-1.25h4v0.5
	h-4c-0.414,0-0.75,0.336-0.75,0.75V7.5z"/>
<path style="fill:#333333;" d="M12,19.25c-3.446,0-6.25-3.252-6.25-7.25c0-3.998,2.804-7.25,6.25-7.25s6.25,3.252,6.25,7.25
	C18.25,15.998,15.446,19.25,12,19.25z M12,5.25c-3.17,0-5.75,3.028-5.75,6.75c0,3.722,2.58,6.75,5.75,6.75
	c3.171,0,5.75-3.028,5.75-6.75C17.75,8.278,15.171,5.25,12,5.25z"/>
<rect x="3" y="11.75" style="fill:#333333;" width="18" height="0.5"/>
<path style="fill:#333333;" d="M12,16.006c-0.728,0-1.439-0.253-2.114-0.752l0.297-0.402c1.175,0.87,2.445,0.867,3.692-0.004
	l0.287,0.41C13.452,15.754,12.725,16.006,12,16.006z"/>
</svg>






