<?xml version="1.0" encoding="iso-8859-1"?>
<svg version="1.1" id="&#x56FE;&#x5C42;_1" xmlns="http://www.w3.org/2000/svg" xmlns:xlink="http://www.w3.org/1999/xlink" x="0px"
	 y="0px" viewBox="0 0 24 24" style="enable-background:new 0 0 24 24;" xml:space="preserve">
<polygon style="fill:#333333;" points="16.75,22.25 7.25,22.25 7.25,17 7.75,17 7.75,21.75 16.25,21.75 16.25,17 16.75,17 "/>
<path style="fill:#333333;" d="M16.659,17.25h-9.36L4.382,5.581C4.17,4.882,4.159,3.828,4.771,3.004
	C5.388,2.172,6.472,1.75,7.993,1.75h7.975c0.007,0,0.014,0,0.02,0c1.48,0,2.55,0.404,3.178,1.201
	c0.798,1.011,0.574,2.267,0.487,2.628c-0.615,2.543-2.921,11.395-2.944,11.484L16.659,17.25z M7.69,16.75h8.583
	c0.338-1.298,2.329-8.956,2.894-11.289c0.074-0.306,0.265-1.367-0.394-2.201c-0.528-0.67-1.466-1.01-2.784-1.01
	c-0.007,0-0.014,0-0.02,0H7.993c-1.354,0-2.303,0.354-2.821,1.052C4.67,3.978,4.684,4.853,4.864,5.448L7.69,16.75z"/>
<path style="fill:#333333;" d="M12.037,12.956c-0.902,0-1.786-0.597-2.2-1.486c-0.343-0.739-0.263-1.519,0.215-2.086l0,0
	c0.807-0.958,1.426-2.28,1.758-2.99l0.168-0.359l0.251,0.307c0.612,0.747,1.918,2.586,2.343,3.593
	c0.237,0.564,0.155,1.217-0.227,1.792C13.852,12.474,12.944,12.956,12.037,12.956z M12.091,6.972
	c-0.364,0.764-0.933,1.877-1.656,2.735l0,0c-0.354,0.421-0.407,0.987-0.144,1.553c0.328,0.704,1.045,1.196,1.746,1.196
	c0.745,0,1.487-0.395,1.893-1.005c0.292-0.439,0.356-0.909,0.183-1.322C13.763,9.299,12.731,7.806,12.091,6.972z"/>
</svg>






