<?xml version="1.0" encoding="iso-8859-1"?>
<svg version="1.1" id="&#x56FE;&#x5C42;_1" xmlns="http://www.w3.org/2000/svg" xmlns:xlink="http://www.w3.org/1999/xlink" x="0px"
	 y="0px" viewBox="0 0 24 24" style="enable-background:new 0 0 24 24;" xml:space="preserve">
<path style="fill:#333333;" d="M19,20.75H5c-0.965,0-1.75-0.785-1.75-1.75V5c0-0.965,0.785-1.75,1.75-1.75h14
	c0.965,0,1.75,0.785,1.75,1.75v14C20.75,19.965,19.965,20.75,19,20.75z M5,3.75C4.311,3.75,3.75,4.311,3.75,5v14
	c0,0.689,0.561,1.25,1.25,1.25h14c0.689,0,1.25-0.561,1.25-1.25V5c0-0.689-0.561-1.25-1.25-1.25H5z"/>
<path style="fill:#333333;" d="M20.35,13.2l-3.306-2.479c-0.296-0.223-0.718-0.193-0.98,0.069l-2.387,2.387l-0.354-0.354
	l2.387-2.387c0.437-0.438,1.141-0.486,1.635-0.116L20.65,12.8L20.35,13.2z"/>
<rect x="2.533" y="11.25" transform="matrix(0.7396 -0.6731 0.6731 0.7396 -6.1126 7.2014)" style="fill:#333333;" width="7.433" height="0.499"/>
<rect x="11.75" y="-0.728" transform="matrix(0.7071 -0.7071 0.7071 0.7071 -4.9706 12)" style="fill:#333333;" width="0.5" height="25.456"/>
</svg>






