<?xml version="1.0" encoding="iso-8859-1"?>
<svg version="1.1" id="&#x56FE;&#x5C42;_1" xmlns="http://www.w3.org/2000/svg" xmlns:xlink="http://www.w3.org/1999/xlink" x="0px"
	 y="0px" viewBox="0 0 24 24" style="enable-background:new 0 0 24 24;" xml:space="preserve">
<path style="fill:#333333;" d="M2.248,14.03L1.752,13.97c0.442-3.607,3.047-4.66,3.157-4.703l0.182,0.466
	C4.992,9.772,2.652,10.731,2.248,14.03z"/>
<path style="fill:#333333;" d="M21.752,14.03c-0.404-3.299-2.744-4.258-2.843-4.297l0.182-0.466c0.11,0.043,2.716,1.096,3.157,4.703
	L21.752,14.03z"/>
<path style="fill:#333333;" d="M11.755,13.051c-0.56-2.718-2.723-3.285-2.815-3.308l0.119-0.486
	c0.104,0.025,2.561,0.656,3.186,3.692L11.755,13.051z"/>
<path style="fill:#333333;" d="M12.245,13.051l-0.49-0.102c0.625-3.036,3.082-3.667,3.187-3.692l0.118,0.486
	C14.968,9.766,12.804,10.333,12.245,13.051z"/>
<path style="fill:#333333;" d="M7.236,20.081l-0.473-0.162c0.937-2.732,3.101-3.148,3.192-3.165l0.089,0.492
	C9.965,17.261,8.074,17.638,7.236,20.081z"/>
<path style="fill:#333333;" d="M16.764,20.081c-0.838-2.443-2.729-2.82-2.809-2.835l0.089-0.492
	c0.092,0.017,2.255,0.433,3.192,3.165L16.764,20.081z"/>
<path style="fill:#333333;" d="M12,18.25c-1.517,0-2.75-1.233-2.75-2.75s1.233-2.75,2.75-2.75s2.75,1.233,2.75,2.75
	S13.517,18.25,12,18.25z M12,13.25c-1.241,0-2.25,1.01-2.25,2.25s1.009,2.25,2.25,2.25c1.24,0,2.25-1.01,2.25-2.25
	S13.24,13.25,12,13.25z"/>
<path style="fill:#333333;" d="M17,10.25c-1.792,0-3.25-1.458-3.25-3.25S15.208,3.75,17,3.75S20.25,5.208,20.25,7
	S18.792,10.25,17,10.25z M17,4.25c-1.517,0-2.75,1.233-2.75,2.75S15.483,9.75,17,9.75S19.75,8.517,19.75,7S18.517,4.25,17,4.25z"/>
<path style="fill:#333333;" d="M7,10.25c-1.792,0-3.25-1.458-3.25-3.25S5.208,3.75,7,3.75S10.25,5.208,10.25,7S8.792,10.25,7,10.25z
	 M7,4.25C5.483,4.25,4.25,5.483,4.25,7S5.483,9.75,7,9.75S9.75,8.517,9.75,7S8.517,4.25,7,4.25z"/>
</svg>






