<?xml version="1.0" encoding="iso-8859-1"?>
<svg version="1.1" id="&#x56FE;&#x5C42;_1" xmlns="http://www.w3.org/2000/svg" xmlns:xlink="http://www.w3.org/1999/xlink" x="0px"
	 y="0px" viewBox="0 0 24 24" style="enable-background:new 0 0 24 24;" xml:space="preserve">
<path style="fill:#333333;" d="M12.249,18h-0.5v-2.318L1.699,12.415l0.077-0.237c0.706-2.173,2.057-4.032,3.905-5.375
	C7.53,5.46,9.715,4.75,12,4.75c2.286,0,4.47,0.71,6.319,2.053c1.849,1.342,3.199,3.201,3.905,5.375l0.078,0.237l-10.053,3.267V18z
	 M12,15.5L12,15.5z M13.306,14.128l-0.651,0.896l2.76-0.896H13.306z M8.585,14.128l2.76,0.896l-0.651-0.896H8.585z M12.249,14.128
	v0.603l0.438-0.603H12.249z M11.312,14.128l0.438,0.603v-0.603H11.312z M13.669,13.628h2.834l-1.417-1.95L13.669,13.628z
	 M12.249,13.628h0.802l1.631-2.244l-2.433-0.79V13.628z M10.949,13.628h0.801v-3.034l-2.431,0.79L10.949,13.628z M7.498,13.628
	h2.833l-1.417-1.95L7.498,13.628z M15.233,11.05c0.878,0.639,1.536,1.504,1.915,2.514l4.52-1.469
	c-0.692-1.971-1.948-3.657-3.643-4.888C16.262,5.927,14.179,5.25,12,5.25c-2.178,0-4.262,0.677-6.024,1.958
	c-1.695,1.231-2.951,2.918-3.644,4.888l4.52,1.469c0.378-1.01,1.037-1.876,1.916-2.514l0,0C9.713,10.363,10.831,10,12,10
	S14.286,10.363,15.233,11.05L15.233,11.05L15.233,11.05z"/>
</svg>






