<?xml version="1.0" encoding="iso-8859-1"?>
<svg version="1.1" id="&#x56FE;&#x5C42;_1" xmlns="http://www.w3.org/2000/svg" xmlns:xlink="http://www.w3.org/1999/xlink" x="0px"
	 y="0px" viewBox="0 0 24 24" style="enable-background:new 0 0 24 24;" xml:space="preserve">
<g>
	<defs>
		<rect id="SVGID_1_" width="24" height="24"/>
	</defs>
	<clipPath id="SVGID_00000140725548222452323770000006113947526950503832_">
		<use xlink:href="#SVGID_1_"  style="overflow:visible;"/>
	</clipPath>
	<g style="clip-path:url(#SVGID_00000140725548222452323770000006113947526950503832_);">
		<path style="fill:#333333;" d="M14.239,17.122c-1.856,0-3.713-0.707-5.126-2.12c-1.37-1.37-2.124-3.19-2.124-5.126
			c0-1.937,0.754-3.757,2.124-5.126c1.37-1.37,3.19-2.124,5.126-2.124s3.758,0.754,5.127,2.124l0,0
			c2.827,2.827,2.827,7.426,0,10.253C17.953,16.415,16.097,17.122,14.239,17.122z M14.239,3.125c-1.803,0-3.498,0.702-4.773,1.977
			s-1.977,2.97-1.977,4.773c0,1.802,0.702,3.498,1.977,4.773c2.634,2.633,6.916,2.632,9.546,0c2.632-2.632,2.632-6.914,0-9.546l0,0
			C17.738,3.828,16.043,3.125,14.239,3.125z"/>
		
			<rect x="1.55" y="17.7" transform="matrix(0.7071 -0.7071 0.7071 0.7071 -10.9203 9.5354)" style="fill:#333333;" width="9" height="0.5"/>
		
			<rect x="6.154" y="13.096" transform="matrix(0.7071 -0.7071 0.7071 0.7071 -10.5668 9.682)" style="fill:#333333;" width="0.5" height="9"/>
	</g>
</g>
</svg>






