<?xml version="1.0" encoding="iso-8859-1"?>
<svg version="1.1" id="&#x56FE;&#x5C42;_1" xmlns="http://www.w3.org/2000/svg" xmlns:xlink="http://www.w3.org/1999/xlink" x="0px"
	 y="0px" viewBox="0 0 24 24" style="enable-background:new 0 0 24 24;" xml:space="preserve">
<rect x="1.593" y="16.25" transform="matrix(0.5628 -0.8266 0.8266 0.5628 -10.0319 14.0335)" style="fill:#333333;" width="13.314" height="0.5"/>
<polygon style="fill:#333333;" points="19.293,22.141 11.793,11.141 12.207,10.859 19.707,21.859 "/>
<path style="fill:#333333;" d="M4.318,12.033C4.273,11.693,4.25,11.345,4.25,11c0-1.078,0.217-2.121,0.645-3.1
	c0.041-0.095,0.084-0.189,0.13-0.283l0.449,0.219C5.433,7.923,5.392,8.011,5.354,8.1C4.953,9.016,4.75,9.992,4.75,11
	c0,0.323,0.021,0.648,0.064,0.967L4.318,12.033z"/>
<path style="fill:#333333;" d="M10.45,18.595c-2.112-0.429-3.966-1.736-5.086-3.59l0.428-0.258c1.048,1.733,2.782,2.957,4.758,3.357
	L10.45,18.595z"/>
<path style="fill:#333333;" d="M13.55,18.595l-0.1-0.49c1.999-0.405,3.745-1.649,4.79-3.412l0.43,0.256
	C17.554,16.831,15.688,18.161,13.55,18.595z"/>
<path style="fill:#333333;" d="M19.682,12.033l-0.496-0.066C19.229,11.65,19.25,11.324,19.25,11c0-1.109-0.244-2.174-0.725-3.164
	l0.449-0.219C19.489,8.676,19.75,9.814,19.75,11C19.75,11.347,19.727,11.694,19.682,12.033z"/>
<path style="fill:#333333;" d="M16.833,5.596c-0.959-0.858-2.129-1.447-3.383-1.701l0.1-0.49c1.341,0.272,2.592,0.901,3.617,1.818
	L16.833,5.596z"/>
<path style="fill:#333333;" d="M6.87,5.877L6.516,5.524c0.103-0.103,0.208-0.203,0.317-0.3C7.859,4.306,9.11,3.677,10.45,3.405
	l0.1,0.49C9.296,4.149,8.126,4.738,7.167,5.596C7.065,5.687,6.966,5.781,6.87,5.877z"/>
<path style="fill:#333333;" d="M5,15.25c-0.965,0-1.75-0.785-1.75-1.75S4.035,11.75,5,11.75s1.75,0.785,1.75,1.75
	S5.965,15.25,5,15.25z M5,12.25c-0.689,0-1.25,0.561-1.25,1.25S4.311,14.75,5,14.75s1.25-0.561,1.25-1.25S5.689,12.25,5,12.25z"/>
<path style="fill:#333333;" d="M12,20.25c-0.965,0-1.75-0.785-1.75-1.75s0.785-1.75,1.75-1.75s1.75,0.785,1.75,1.75
	S12.965,20.25,12,20.25z M12,17.25c-0.689,0-1.25,0.561-1.25,1.25s0.561,1.25,1.25,1.25s1.25-0.561,1.25-1.25S12.689,17.25,12,17.25
	z"/>
<path style="fill:#333333;" d="M12,5.25c-0.965,0-1.75-0.785-1.75-1.75S11.035,1.75,12,1.75s1.75,0.785,1.75,1.75
	S12.965,5.25,12,5.25z M12,2.25c-0.689,0-1.25,0.561-1.25,1.25S11.311,4.75,12,4.75s1.25-0.561,1.25-1.25S12.689,2.25,12,2.25z"/>
<path style="fill:#333333;" d="M6,8.25c-0.965,0-1.75-0.785-1.75-1.75S5.035,4.75,6,4.75S7.75,5.535,7.75,6.5S6.965,8.25,6,8.25z
	 M6,5.25c-0.689,0-1.25,0.561-1.25,1.25S5.311,7.75,6,7.75S7.25,7.189,7.25,6.5S6.689,5.25,6,5.25z"/>
<path style="fill:#333333;" d="M18,8.25c-0.965,0-1.75-0.785-1.75-1.75S17.035,4.75,18,4.75s1.75,0.785,1.75,1.75
	S18.965,8.25,18,8.25z M18,5.25c-0.689,0-1.25,0.561-1.25,1.25S17.311,7.75,18,7.75s1.25-0.561,1.25-1.25S18.689,5.25,18,5.25z"/>
<path style="fill:#333333;" d="M19,15.25c-0.965,0-1.75-0.785-1.75-1.75s0.785-1.75,1.75-1.75s1.75,0.785,1.75,1.75
	S19.965,15.25,19,15.25z M19,12.25c-0.689,0-1.25,0.561-1.25,1.25s0.561,1.25,1.25,1.25s1.25-0.561,1.25-1.25S19.689,12.25,19,12.25
	z"/>
<circle style="fill:#333333;" cx="12" cy="11" r="2"/>
<rect x="3" y="21.75" style="fill:#333333;" width="4" height="0.5"/>
<rect x="17" y="21.75" style="fill:#333333;" width="4" height="0.5"/>
</svg>






