<?xml version="1.0" encoding="iso-8859-1"?>
<svg version="1.1" id="&#x56FE;&#x5C42;_1" xmlns="http://www.w3.org/2000/svg" xmlns:xlink="http://www.w3.org/1999/xlink" x="0px"
	 y="0px" viewBox="0 0 24 24" style="enable-background:new 0 0 24 24;" xml:space="preserve">
<path style="fill:#333333;" d="M12,22.25C6.348,22.25,1.75,17.652,1.75,12C1.75,6.348,6.348,1.75,12,1.75
	c5.652,0,10.25,4.598,10.25,10.25C22.25,17.652,17.652,22.25,12,22.25z M12,2.25c-5.376,0-9.75,4.374-9.75,9.75
	s4.374,9.75,9.75,9.75s9.75-4.374,9.75-9.75S17.376,2.25,12,2.25z"/>
<path style="fill:#333333;" d="M7,20.951l-0.125-0.072C3.714,19.051,1.75,15.648,1.75,12c0-3.648,1.964-7.05,5.125-8.878L7,3.049
	l0.125,0.073C10.286,4.95,12.25,8.352,12.25,12c0,3.648-1.964,7.051-5.125,8.879L7,20.951z M7,3.628C4.066,5.384,2.25,8.579,2.25,12
	c0,3.422,1.816,6.616,4.75,8.372c2.934-1.756,4.75-4.95,4.75-8.372C11.75,8.579,9.934,5.384,7,3.628z"/>
</svg>






