<?xml version="1.0" encoding="iso-8859-1"?>
<svg version="1.1" id="&#x56FE;&#x5C42;_1" xmlns="http://www.w3.org/2000/svg" xmlns:xlink="http://www.w3.org/1999/xlink" x="0px"
	 y="0px" viewBox="0 0 24 24" style="enable-background:new 0 0 24 24;" xml:space="preserve">
<polygon style="fill:#333333;" points="12,22.354 1.646,12 12,1.646 22.177,11.823 21.823,12.177 12,2.354 2.354,12 12,21.646 
	17.323,16.323 17.677,16.677 "/>
<path style="fill:#333333;" d="M19.722,22.116l-0.443-0.232c0.026-0.051,2.636-5.116,0.295-7.457
	c-2.396-2.396-8.502-2.185-8.563-2.177l-0.02-0.5c0.259-0.008,6.389-0.225,8.937,2.323C22.526,16.673,19.837,21.895,19.722,22.116z"
	/>
<polygon style="fill:#333333;" points="12.823,14.177 10.646,12 12.823,9.823 13.177,10.177 11.354,12 13.177,13.823 "/>
</svg>






