<?xml version="1.0" encoding="iso-8859-1"?>
<svg version="1.1" id="&#x56FE;&#x5C42;_1" xmlns="http://www.w3.org/2000/svg" xmlns:xlink="http://www.w3.org/1999/xlink" x="0px"
	 y="0px" viewBox="0 0 24 24" style="enable-background:new 0 0 24 24;" xml:space="preserve">
<path style="fill:#333333;" d="M12,9.854L8.146,6L12,2.146L15.854,6L12,9.854z M8.854,6L12,9.146L15.146,6L12,2.854L8.854,6z"/>
<path style="fill:#333333;" d="M12,21.854L8.146,18L12,14.146L15.854,18L12,21.854z M8.854,18L12,21.146L15.146,18L12,14.854
	L8.854,18z"/>
<path style="fill:#333333;" d="M18,15.854L14.146,12L18,8.146L21.854,12L18,15.854z M14.854,12L18,15.146L21.146,12L18,8.854
	L14.854,12z"/>
<path style="fill:#333333;" d="M6,15.854L2.146,12L6,8.146L9.854,12L6,15.854z M2.854,12L6,15.146L9.146,12L6,8.854L2.854,12z"/>
</svg>






