<?xml version="1.0" encoding="iso-8859-1"?>
<svg version="1.1" id="&#x56FE;&#x5C42;_1" xmlns="http://www.w3.org/2000/svg" xmlns:xlink="http://www.w3.org/1999/xlink" x="0px"
	 y="0px" viewBox="0 0 24 24" style="enable-background:new 0 0 24 24;" xml:space="preserve">
<path style="fill:#333333;" d="M19.5,21.25h-15c-0.965,0-1.75-0.785-1.75-1.75v-15c0-0.965,0.785-1.75,1.75-1.75h15
	c0.965,0,1.75,0.785,1.75,1.75v15C21.25,20.465,20.465,21.25,19.5,21.25z M4.5,3.25c-0.689,0-1.25,0.561-1.25,1.25v15
	c0,0.689,0.561,1.25,1.25,1.25h15c0.689,0,1.25-0.561,1.25-1.25v-15c0-0.689-0.561-1.25-1.25-1.25H4.5z"/>
<path style="fill:#333333;" d="M12.25,10.75H10.5c-0.965,0-1.75-0.785-1.75-1.75s0.785-1.75,1.75-1.75h1.75V10.75z M10.5,7.75
	C9.811,7.75,9.25,8.311,9.25,9s0.561,1.25,1.25,1.25h1.25v-2.5H10.5z"/>
<path style="fill:#333333;" d="M12.25,13.75H10.5c-0.965,0-1.75-0.785-1.75-1.75s0.785-1.75,1.75-1.75h1.75V13.75z M10.5,10.75
	c-0.689,0-1.25,0.561-1.25,1.25s0.561,1.25,1.25,1.25h1.25v-2.5H10.5z"/>
<path style="fill:#333333;" d="M10.5,16.75c-0.965,0-1.75-0.785-1.75-1.75s0.785-1.75,1.75-1.75h1.75V15
	C12.25,15.965,11.465,16.75,10.5,16.75z M10.5,13.75c-0.689,0-1.25,0.561-1.25,1.25s0.561,1.25,1.25,1.25s1.25-0.561,1.25-1.25
	v-1.25H10.5z"/>
<path style="fill:#333333;" d="M13.5,10.75h-1.75v-3.5h1.75c0.965,0,1.75,0.785,1.75,1.75S14.465,10.75,13.5,10.75z M12.25,10.25
	h1.25c0.689,0,1.25-0.561,1.25-1.25s-0.561-1.25-1.25-1.25h-1.25V10.25z"/>
<path style="fill:#333333;" d="M13.5,13.75c-0.965,0-1.75-0.785-1.75-1.75s0.785-1.75,1.75-1.75s1.75,0.785,1.75,1.75
	S14.465,13.75,13.5,13.75z M13.5,10.75c-0.689,0-1.25,0.561-1.25,1.25s0.561,1.25,1.25,1.25s1.25-0.561,1.25-1.25
	S14.189,10.75,13.5,10.75z"/>
</svg>






