<?xml version="1.0" encoding="iso-8859-1"?>
<svg version="1.1" id="&#x56FE;&#x5C42;_1" xmlns="http://www.w3.org/2000/svg" xmlns:xlink="http://www.w3.org/1999/xlink" x="0px"
	 y="0px" viewBox="0 0 24 24" style="enable-background:new 0 0 24 24;" xml:space="preserve">
<path style="fill:#333333;" d="M13,22.25H5c-0.689,0-1.25-0.561-1.25-1.25V3c0-0.689,0.561-1.25,1.25-1.25h14
	c0.689,0,1.25,0.561,1.25,1.25v7.421h-0.5V3c0-0.414-0.337-0.75-0.75-0.75H5C4.586,2.25,4.25,2.586,4.25,3v18
	c0,0.413,0.336,0.75,0.75,0.75h8V22.25z"/>
<rect x="7" y="8.25" style="fill:#333333;" width="3" height="0.5"/>
<rect x="14" y="8.25" style="fill:#333333;" width="3" height="0.5"/>
<rect x="7" y="13.75" style="fill:#333333;" width="3" height="0.5"/>
<rect x="7" y="16.75" style="fill:#333333;" width="3" height="0.5"/>
<rect x="8.25" y="7" style="fill:#333333;" width="0.5" height="3"/>
<rect x="19.675" y="18.425" transform="matrix(0.7071 -0.7071 0.7071 0.7071 -8.2531 19.9248)" style="fill:#333333;" width="0.5" height="3"/>
<path style="fill:#333333;" d="M16.742,19.991c-0.832,0-1.664-0.317-2.298-0.95c-1.267-1.268-1.267-3.329,0-4.597
	c1.267-1.266,3.328-1.266,4.597,0l0,0c1.267,1.268,1.267,3.329,0,4.597C18.407,19.674,17.575,19.991,16.742,19.991z M16.743,13.994
	c-0.705,0-1.409,0.268-1.945,0.804c-1.071,1.072-1.071,2.817,0,3.89c1.073,1.073,2.818,1.071,3.89,0c1.071-1.072,1.071-2.817,0-3.89
	C18.151,14.262,17.447,13.994,16.743,13.994z"/>
</svg>






