<?xml version="1.0" encoding="iso-8859-1"?>
<svg version="1.1" id="&#x56FE;&#x5C42;_1" xmlns="http://www.w3.org/2000/svg" xmlns:xlink="http://www.w3.org/1999/xlink" x="0px"
	 y="0px" viewBox="0 0 24 24" style="enable-background:new 0 0 24 24;" xml:space="preserve">
<path style="fill:#333333;" d="M19,22.25H5c-0.689,0-1.25-0.561-1.25-1.25V3c0-0.689,0.561-1.25,1.25-1.25h10.25v5h5V21
	C20.25,21.689,19.689,22.25,19,22.25z M5,2.25C4.586,2.25,4.25,2.586,4.25,3v18c0,0.413,0.336,0.75,0.75,0.75h14
	c0.413,0,0.75-0.337,0.75-0.75V7.25h-5v-5H5z"/>
<rect x="17.25" y="0.964" transform="matrix(0.7071 -0.7071 0.7071 0.7071 1.9437 13.6924)" style="fill:#333333;" width="0.5" height="7.071"/>
<path style="fill:#333333;" d="M14.522,17.858L12,16.434l-2.522,1.425L9.11,17.591l0.576-2.839l-2.134-1.958l0.141-0.433l2.877-0.33
	l1.203-2.635h0.455l1.203,2.635l2.877,0.33l0.141,0.433l-2.134,1.958l0.576,2.839L14.522,17.858z M8.293,12.796l1.938,1.778
	l-0.522,2.579L12,15.859l2.292,1.294l-0.524-2.579l1.939-1.778l-2.614-0.3L12,10.102l-1.093,2.394L8.293,12.796z"/>
</svg>






