<?xml version="1.0" encoding="iso-8859-1"?>
<svg version="1.1" id="&#x56FE;&#x5C42;_1" xmlns="http://www.w3.org/2000/svg" xmlns:xlink="http://www.w3.org/1999/xlink" x="0px"
	 y="0px" viewBox="0 0 24 24" style="enable-background:new 0 0 24 24;" xml:space="preserve">
<path style="fill:#333333;" d="M11,22.25H5c-0.689,0-1.25-0.561-1.25-1.25V3c0-0.689,0.561-1.25,1.25-1.25h10.611l4.639,5.154V11.5
	h-0.5V7.096L15.389,2.25H5C4.586,2.25,4.25,2.586,4.25,3v18c0,0.413,0.336,0.75,0.75,0.75h6V22.25z"/>
<path style="fill:#333333;" d="M19.522,21.858L17,20.434l-2.522,1.425l-0.368-0.268l0.576-2.839l-2.134-1.958l0.141-0.433
	l2.877-0.33l1.203-2.635h0.455l1.203,2.635l2.877,0.33l0.141,0.433l-2.134,1.958l0.576,2.839L19.522,21.858z M17,19.859l2.292,1.294
	l-0.524-2.579l1.939-1.778l-2.614-0.3L17,14.102l-1.093,2.395l-2.614,0.3l1.939,1.778l-0.524,2.579L17,19.859z"/>
<polygon style="fill:#333333;" points="20,7.25 14.75,7.25 14.75,2 15.25,2 15.25,6.75 20,6.75 "/>
</svg>






