<?xml version="1.0" encoding="iso-8859-1"?>
<svg version="1.1" id="&#x56FE;&#x5C42;_1" xmlns="http://www.w3.org/2000/svg" xmlns:xlink="http://www.w3.org/1999/xlink" x="0px"
	 y="0px" viewBox="0 0 24 24" style="enable-background:new 0 0 24 24;" xml:space="preserve">
<path style="fill:#333333;" d="M19,22.25H5c-0.689,0-1.25-0.561-1.25-1.25V3c0-0.689,0.561-1.25,1.25-1.25h10.25v5h5V21
	C20.25,21.689,19.689,22.25,19,22.25z M5,2.25C4.586,2.25,4.25,2.586,4.25,3v18c0,0.413,0.336,0.75,0.75,0.75h14
	c0.413,0,0.75-0.337,0.75-0.75V7.25h-5v-5H5z"/>
<rect x="17.25" y="0.964" transform="matrix(0.7071 -0.7071 0.7071 0.7071 1.9437 13.6924)" style="fill:#333333;" width="0.5" height="7.071"/>
<path style="fill:#333333;" d="M12,14.25c-1.241,0-2.25-1.01-2.25-2.25c0-1.241,1.009-2.25,2.25-2.25c1.24,0,2.25,1.009,2.25,2.25
	C14.25,13.24,13.24,14.25,12,14.25z M12,10.25c-0.965,0-1.75,0.785-1.75,1.75s0.785,1.75,1.75,1.75s1.75-0.785,1.75-1.75
	S12.965,10.25,12,10.25z"/>
<path style="fill:#333333;" d="M16.25,18h-0.5c0-2.067-1.683-3.75-3.75-3.75c-2.068,0-3.75,1.683-3.75,3.75h-0.5
	c0-2.344,1.907-4.25,4.25-4.25C14.344,13.75,16.25,15.656,16.25,18z"/>
</svg>






