<?xml version="1.0" encoding="iso-8859-1"?>
<svg version="1.1" id="&#x56FE;&#x5C42;_1" xmlns="http://www.w3.org/2000/svg" xmlns:xlink="http://www.w3.org/1999/xlink" x="0px"
	 y="0px" viewBox="0 0 24 24" style="enable-background:new 0 0 24 24;" xml:space="preserve">
<path style="fill:#333333;" d="M11,22.25H5c-0.689,0-1.25-0.561-1.25-1.25V3c0-0.689,0.561-1.25,1.25-1.25h10.611l4.639,5.154V11.5
	h-0.5V7.096L15.389,2.25H5C4.586,2.25,4.25,2.586,4.25,3v18c0,0.413,0.336,0.75,0.75,0.75h6V22.25z"/>
<rect x="13.5" y="16.25" style="fill:#333333;" width="7" height="0.5"/>
<rect x="13.5" y="19.25" style="fill:#333333;" width="7" height="0.5"/>
<rect x="19" y="13.482" transform="matrix(0.7071 -0.7071 0.7071 0.7071 -5.1452 18.0784)" style="fill:#333333;" width="0.5" height="3.536"/>
<rect x="14.5" y="18.982" transform="matrix(0.7071 -0.7071 0.7071 0.7071 -10.3523 16.5074)" style="fill:#333333;" width="0.5" height="3.536"/>
<polygon style="fill:#333333;" points="20,7.25 14.75,7.25 14.75,2 15.25,2 15.25,6.75 20,6.75 "/>
</svg>






