<?xml version="1.0" encoding="iso-8859-1"?>
<svg version="1.1" id="&#x56FE;&#x5C42;_1" xmlns="http://www.w3.org/2000/svg" xmlns:xlink="http://www.w3.org/1999/xlink" x="0px"
	 y="0px" viewBox="0 0 24 24" style="enable-background:new 0 0 24 24;" xml:space="preserve">
<path style="fill:#333333;" d="M11,22.25H5c-0.689,0-1.25-0.561-1.25-1.25V3c0-0.689,0.561-1.25,1.25-1.25h10.611l4.639,5.154V11.5
	h-0.5V7.096L15.389,2.25H5C4.586,2.25,4.25,2.586,4.25,3v18c0,0.413,0.336,0.75,0.75,0.75h6V22.25z"/>
<path style="fill:#333333;" d="M17,22.269l-0.091-0.035c-1.312-0.51-3.659-2.612-3.659-4.99c0-1.375,0.976-2.493,2.175-2.493
	c0.6,0,1.168,0.283,1.575,0.773c0.407-0.49,0.976-0.773,1.575-0.773c1.199,0,2.175,1.118,2.175,2.493c0,2.378-2.347,4.48-3.659,4.99
	L17,22.269z M15.425,15.25c-0.924,0-1.675,0.895-1.675,1.993c0,2.066,2.066,3.974,3.25,4.486c1.184-0.513,3.25-2.42,3.25-4.486
	c0-1.099-0.751-1.993-1.675-1.993c-0.537,0-1.046,0.312-1.361,0.833L17,16.437l-0.214-0.354
	C16.471,15.562,15.962,15.25,15.425,15.25z"/>
<polygon style="fill:#333333;" points="20,7.25 14.75,7.25 14.75,2 15.25,2 15.25,6.75 20,6.75 "/>
</svg>






