<?xml version="1.0" encoding="iso-8859-1"?>
<svg version="1.1" id="&#x56FE;&#x5C42;_1" xmlns="http://www.w3.org/2000/svg" xmlns:xlink="http://www.w3.org/1999/xlink" x="0px"
	 y="0px" viewBox="0 0 24 24" style="enable-background:new 0 0 24 24;" xml:space="preserve">
<polygon style="fill:#333333;" points="19.25,20.75 12.5,20.75 12.5,20.25 18.75,20.25 18.75,17 19.25,17 "/>
<polygon style="fill:#333333;" points="19.25,7 18.75,7 18.75,3.75 12.5,3.75 12.5,3.25 19.25,3.25 "/>
<polygon style="fill:#333333;" points="12.75,22.355 4.75,19.485 4.75,17 5.25,17 5.25,19.134 12.25,21.645 12.25,17.122 
	12.75,17.122 "/>
<polygon style="fill:#333333;" points="12.75,6.986 12.25,6.986 12.25,2.355 5.25,4.866 5.25,6.986 4.75,6.986 4.75,4.515 
	12.75,1.645 "/>
<path style="fill:#333333;" d="M21,17.25H3c-0.689,0-1.25-0.561-1.25-1.25V8c0-0.689,0.561-1.25,1.25-1.25h18
	c0.689,0,1.25,0.561,1.25,1.25v8C22.25,16.689,21.689,17.25,21,17.25z M3,7.25C2.586,7.25,2.25,7.586,2.25,8v8
	c0,0.413,0.336,0.75,0.75,0.75h18c0.413,0,0.75-0.337,0.75-0.75V8c0-0.414-0.337-0.75-0.75-0.75H3z"/>
<rect x="4.75" y="9.5" style="fill:#333333;" width="0.5" height="5"/>
<rect x="10.25" y="9.5" style="fill:#333333;" width="0.5" height="5"/>
<rect x="17.25" y="10" style="fill:#333333;" width="0.5" height="4"/>
<rect x="16" y="9.75" style="fill:#333333;" width="3" height="0.5"/>
<path style="fill:#333333;" d="M6.5,12.75H5v-0.5h1.5c0.689,0,1.25-0.561,1.25-1.25S7.189,9.75,6.5,9.75H5v-0.5h1.5
	c0.965,0,1.75,0.785,1.75,1.75S7.465,12.75,6.5,12.75z"/>
<path style="fill:#333333;" d="M12,12.75h-1.5v-0.5H12c0.689,0,1.25-0.561,1.25-1.25S12.689,9.75,12,9.75h-1.5v-0.5H12
	c0.965,0,1.75,0.785,1.75,1.75S12.965,12.75,12,12.75z"/>
</svg>






