<?xml version="1.0" encoding="iso-8859-1"?>
<svg version="1.1" id="&#x56FE;&#x5C42;_1" xmlns="http://www.w3.org/2000/svg" xmlns:xlink="http://www.w3.org/1999/xlink" x="0px"
	 y="0px" viewBox="0 0 24 24" style="enable-background:new 0 0 24 24;" xml:space="preserve">
<path style="fill:#333333;" d="M19,22.25H5c-0.689,0-1.25-0.561-1.25-1.25V3c0-0.689,0.561-1.25,1.25-1.25h10.25v5h5V21
	C20.25,21.689,19.689,22.25,19,22.25z M5,2.25C4.586,2.25,4.25,2.586,4.25,3v18c0,0.413,0.336,0.75,0.75,0.75h14
	c0.413,0,0.75-0.337,0.75-0.75V7.25h-5v-5H5z"/>
<rect x="17.25" y="0.964" transform="matrix(0.7071 -0.7071 0.7071 0.7071 1.9437 13.6924)" style="fill:#333333;" width="0.5" height="7.071"/>
<path style="fill:#333333;" d="M12,16.25c-1.517,0-2.75-1.233-2.75-2.75s1.233-2.75,2.75-2.75s2.75,1.233,2.75,2.75
	S13.517,16.25,12,16.25z M12,11.25c-1.241,0-2.25,1.01-2.25,2.25s1.009,2.25,2.25,2.25c1.24,0,2.25-1.01,2.25-2.25
	S13.24,11.25,12,11.25z"/>
<rect x="11.75" y="9.5" style="fill:#333333;" width="0.5" height="1.5"/>
<rect x="11.75" y="16" style="fill:#333333;" width="0.5" height="1.5"/>
<rect x="13.634" y="10.78" transform="matrix(0.7071 -0.7071 0.7071 0.7071 -3.5867 13.4016)" style="fill:#333333;" width="1.5" height="0.5"/>
<rect x="8.634" y="15.78" transform="matrix(0.7071 -0.7071 0.7071 0.7071 -8.5867 11.3305)" style="fill:#333333;" width="1.5" height="0.5"/>
<rect x="9.28" y="10.28" transform="matrix(0.7071 -0.7071 0.7071 0.7071 -5.0082 9.9696)" style="fill:#333333;" width="0.5" height="1.5"/>
<rect x="14.28" y="15.28" transform="matrix(0.7071 -0.7071 0.7071 0.7071 -7.0793 14.9696)" style="fill:#333333;" width="0.5" height="1.5"/>
<rect x="8" y="13.25" style="fill:#333333;" width="1.5" height="0.5"/>
<rect x="14.5" y="13.25" style="fill:#333333;" width="1.5" height="0.5"/>
</svg>






