<?xml version="1.0" encoding="iso-8859-1"?>
<svg version="1.1" id="&#x56FE;&#x5C42;_1" xmlns="http://www.w3.org/2000/svg" xmlns:xlink="http://www.w3.org/1999/xlink" x="0px"
	 y="0px" viewBox="0 0 24 24" style="enable-background:new 0 0 24 24;" xml:space="preserve">
<polygon style="fill:#333333;" points="19.25,22.25 4.75,22.25 4.75,19 5.25,19 5.25,21.75 18.75,21.75 18.75,19 19.25,19 "/>
<polygon style="fill:#333333;" points="19.25,10 18.75,10 18.75,7.088 14.88,2.25 5.25,2.25 5.25,10 4.75,10 4.75,1.75 15.12,1.75 
	19.25,6.912 "/>
<polygon style="fill:#333333;" points="19,7.25 13.75,7.25 13.75,2 14.25,2 14.25,6.75 19,6.75 "/>
<rect x="8" y="5.75" style="fill:#333333;" width="2" height="0.5"/>
<path style="fill:#333333;" d="M21,19.25H3c-0.689,0-1.25-0.561-1.25-1.25v-7c0-0.689,0.561-1.25,1.25-1.25h18
	c0.689,0,1.25,0.561,1.25,1.25v7C22.25,18.689,21.689,19.25,21,19.25z M3,10.25c-0.414,0-0.75,0.336-0.75,0.75v7
	c0,0.413,0.336,0.75,0.75,0.75h18c0.413,0,0.75-0.337,0.75-0.75v-7c0-0.414-0.337-0.75-0.75-0.75H3z"/>
<rect x="11.75" y="12" transform="matrix(0.8 -0.6 0.6 0.8 -6.3 10.1)" style="fill:#333333;" width="0.501" height="5"/>
<rect x="9.5" y="14.25" transform="matrix(0.6006 -0.7995 0.7995 0.6006 -6.8007 15.3853)" style="fill:#333333;" width="5" height="0.501"/>
<rect x="6.25" y="12.5" style="fill:#333333;" width="0.5" height="4"/>
<rect x="5" y="12.25" style="fill:#333333;" width="3" height="0.5"/>
<rect x="17.25" y="12.5" style="fill:#333333;" width="0.5" height="4"/>
<rect x="16" y="12.25" style="fill:#333333;" width="3" height="0.5"/>
</svg>






