<?xml version="1.0" encoding="iso-8859-1"?>
<svg version="1.1" id="&#x56FE;&#x5C42;_1" xmlns="http://www.w3.org/2000/svg" xmlns:xlink="http://www.w3.org/1999/xlink" x="0px"
	 y="0px" viewBox="0 0 24 24" style="enable-background:new 0 0 24 24;" xml:space="preserve">
<path style="fill:#333333;" d="M11,22.25H5c-0.689,0-1.25-0.561-1.25-1.25V3c0-0.689,0.561-1.25,1.25-1.25h10.611l4.639,5.154V11.5
	h-0.5V7.096L15.389,2.25H5C4.586,2.25,4.25,2.586,4.25,3v18c0,0.413,0.336,0.75,0.75,0.75h6V22.25z"/>
<path style="fill:#333333;" d="M16.5,20.75c-2.589,0-4.622-2.983-4.708-3.11l-0.094-0.14l0.094-0.14
	c0.085-0.127,2.119-3.11,4.708-3.11s4.622,2.983,4.708,3.11l0.093,0.14l-0.093,0.14C21.122,17.767,19.089,20.75,16.5,20.75z
	 M12.308,17.5c0.427,0.577,2.17,2.75,4.192,2.75s3.766-2.173,4.192-2.75c-0.427-0.577-2.17-2.75-4.192-2.75
	S12.734,16.923,12.308,17.5z"/>
<path style="fill:#333333;" d="M16.5,18.5c0.552,0,1-0.448,1-1s-0.448-1-1-1c-0.552,0-1,0.448-1,1S15.948,18.5,16.5,18.5z"/>
<polygon style="fill:#333333;" points="20,7.25 14.75,7.25 14.75,2 15.25,2 15.25,6.75 20,6.75 "/>
</svg>






