<?xml version="1.0" encoding="iso-8859-1"?>
<svg version="1.1" id="&#x56FE;&#x5C42;_1" xmlns="http://www.w3.org/2000/svg" xmlns:xlink="http://www.w3.org/1999/xlink" x="0px"
	 y="0px" viewBox="0 0 24 24" style="enable-background:new 0 0 24 24;" xml:space="preserve">
<polygon style="fill:#333333;" points="19.25,22.25 4.75,22.25 4.75,19 5.25,19 5.25,21.75 18.75,21.75 18.75,19 19.25,19 "/>
<polygon style="fill:#333333;" points="19.25,10 18.75,10 18.75,7.088 14.88,2.25 5.25,2.25 5.25,10 4.75,10 4.75,1.75 15.12,1.75 
	19.25,6.912 "/>
<polygon style="fill:#333333;" points="19,7.25 13.75,7.25 13.75,2 14.25,2 14.25,6.75 19,6.75 "/>
<rect x="8" y="5.75" style="fill:#333333;" width="2" height="0.5"/>
<path style="fill:#333333;" d="M21,19.25H3c-0.689,0-1.25-0.561-1.25-1.25v-7c0-0.689,0.561-1.25,1.25-1.25h18
	c0.689,0,1.25,0.561,1.25,1.25v7C22.25,18.689,21.689,19.25,21,19.25z M3,10.25c-0.414,0-0.75,0.336-0.75,0.75v7
	c0,0.413,0.336,0.75,0.75,0.75h18c0.413,0,0.75-0.337,0.75-0.75v-7c0-0.414-0.337-0.75-0.75-0.75H3z"/>
<polygon style="fill:#333333;" points="8.5,16.75 5.5,16.75 5.3,16.35 8,12.75 5.5,12.75 5.5,12.25 8.5,12.25 8.7,12.65 6,16.25 
	8.5,16.25 "/>
<rect x="11.75" y="12.5" style="fill:#333333;" width="0.5" height="4"/>
<rect x="15.25" y="12.5" style="fill:#333333;" width="0.5" height="4"/>
<path style="fill:#333333;" d="M17.25,15.25H15.5v-0.5h1.75c0.552,0,1-0.448,1-1s-0.448-1-1-1H15.5v-0.5h1.75
	c0.827,0,1.5,0.673,1.5,1.5S18.077,15.25,17.25,15.25z"/>
</svg>






