<?xml version="1.0" encoding="iso-8859-1"?>
<svg version="1.1" id="&#x56FE;&#x5C42;_1" xmlns="http://www.w3.org/2000/svg" xmlns:xlink="http://www.w3.org/1999/xlink" x="0px"
	 y="0px" viewBox="0 0 24 24" style="enable-background:new 0 0 24 24;" xml:space="preserve">
<path style="fill:#333333;" d="M19,22.25H5c-0.689,0-1.25-0.561-1.25-1.25V3c0-0.689,0.561-1.25,1.25-1.25h10.104l5.146,5.146V21
	C20.25,21.689,19.689,22.25,19,22.25z M5,2.25C4.586,2.25,4.25,2.586,4.25,3v18c0,0.413,0.336,0.75,0.75,0.75h14
	c0.413,0,0.75-0.337,0.75-0.75V7.104L14.896,2.25H5z"/>
<polygon style="fill:#333333;" points="14.28,17.111 12.004,12.559 9.728,17.111 9.259,17.053 7.759,10.052 8.249,9.948 
	9.599,16.251 11.78,11.888 12.228,11.888 14.409,16.251 15.76,9.948 16.248,10.052 14.748,17.053 "/>
</svg>






