<?xml version="1.0" encoding="iso-8859-1"?>
<svg version="1.1" id="&#x56FE;&#x5C42;_1" xmlns="http://www.w3.org/2000/svg" xmlns:xlink="http://www.w3.org/1999/xlink" x="0px"
	 y="0px" viewBox="0 0 24 24" style="enable-background:new 0 0 24 24;" xml:space="preserve">
<path style="fill:#333333;" d="M19,22.25H5c-0.689,0-1.25-0.561-1.25-1.25V3c0-0.689,0.561-1.25,1.25-1.25h10.25v5h5V21
	C20.25,21.689,19.689,22.25,19,22.25z M5,2.25C4.586,2.25,4.25,2.586,4.25,3v18c0,0.413,0.336,0.75,0.75,0.75h14
	c0.413,0,0.75-0.337,0.75-0.75V7.25h-5v-5H5z"/>
<rect x="17.25" y="0.964" transform="matrix(0.7071 -0.7071 0.7071 0.7071 1.9437 13.6924)" style="fill:#333333;" width="0.5" height="7.071"/>
<path style="fill:#333333;" d="M12,17.25c-2.589,0-4.622-2.983-4.708-3.11L7.199,14l0.094-0.14c0.085-0.127,2.119-3.11,4.708-3.11
	s4.622,2.983,4.708,3.11L16.801,14l-0.093,0.14C16.622,14.267,14.589,17.25,12,17.25z M7.808,14c0.427,0.577,2.169,2.75,4.192,2.75
	c2.022,0,3.766-2.173,4.192-2.75c-0.427-0.577-2.17-2.75-4.192-2.75C9.977,11.25,8.235,13.423,7.808,14z"/>
<path style="fill:#333333;" d="M12,15c0.552,0,1-0.448,1-1s-0.448-1-1-1s-1,0.448-1,1S11.448,15,12,15z"/>
</svg>






