<?xml version="1.0" encoding="iso-8859-1"?>
<svg version="1.1" id="&#x56FE;&#x5C42;_1" xmlns="http://www.w3.org/2000/svg" xmlns:xlink="http://www.w3.org/1999/xlink" x="0px"
	 y="0px" viewBox="0 0 24 24" style="enable-background:new 0 0 24 24;" xml:space="preserve">
<path style="fill:#333333;" d="M19,22.25H5c-0.689,0-1.25-0.561-1.25-1.25V3c0-0.689,0.561-1.25,1.25-1.25h10.25v5h5V21
	C20.25,21.689,19.689,22.25,19,22.25z M5,2.25C4.586,2.25,4.25,2.586,4.25,3v18c0,0.413,0.336,0.75,0.75,0.75h14
	c0.413,0,0.75-0.337,0.75-0.75V7.25h-5v-5H5z"/>
<rect x="17.25" y="0.964" transform="matrix(0.7071 -0.7071 0.7071 0.7071 1.9437 13.6924)" style="fill:#333333;" width="0.5" height="7.071"/>
<path style="fill:#333333;" d="M12,18.293l-0.13-0.079c-0.147-0.091-3.62-2.258-3.62-6.614c0-0.477,1.237-1.096,3.677-1.839
	L12,9.739l0.073,0.022c2.439,0.744,3.677,1.362,3.677,1.839c0,4.356-3.472,6.523-3.62,6.614L12,18.293z M8.75,11.627
	c0.013,3.589,2.63,5.637,3.25,6.072c0.622-0.436,3.25-2.493,3.25-6.099c-0.137-0.232-1.778-0.885-3.25-1.339
	C10.551,10.708,8.937,11.349,8.75,11.627z"/>
</svg>






