<?xml version="1.0" encoding="iso-8859-1"?>
<svg version="1.1" id="&#x56FE;&#x5C42;_1" xmlns="http://www.w3.org/2000/svg" xmlns:xlink="http://www.w3.org/1999/xlink" x="0px"
	 y="0px" viewBox="0 0 24 24" style="enable-background:new 0 0 24 24;" xml:space="preserve">
<path style="fill:#333333;" d="M11,22.25H5c-0.689,0-1.25-0.561-1.25-1.25V3c0-0.689,0.561-1.25,1.25-1.25h10.611l4.639,5.154V11.5
	h-0.5V7.096L15.389,2.25H5C4.586,2.25,4.25,2.586,4.25,3v18c0,0.413,0.336,0.75,0.75,0.75h6V22.25z"/>
<path style="fill:#333333;" d="M17,22.293l-0.13-0.079c-0.148-0.091-3.62-2.258-3.62-6.614c0-0.477,1.237-1.096,3.677-1.839
	L17,13.738l0.073,0.022c2.439,0.743,3.677,1.362,3.677,1.839c0,4.356-3.472,6.523-3.62,6.614L17,22.293z M13.75,15.627
	c0.014,3.59,2.63,5.638,3.25,6.072c0.622-0.436,3.25-2.493,3.25-6.1c-0.137-0.231-1.778-0.885-3.25-1.338
	C15.551,14.708,13.938,15.349,13.75,15.627z"/>
<polygon style="fill:#333333;" points="20,7.25 14.75,7.25 14.75,2 15.25,2 15.25,6.75 20,6.75 "/>
</svg>






