<?xml version="1.0" encoding="iso-8859-1"?>
<svg version="1.1" id="&#x56FE;&#x5C42;_1" xmlns="http://www.w3.org/2000/svg" xmlns:xlink="http://www.w3.org/1999/xlink" x="0px"
	 y="0px" viewBox="0 0 24 24" style="enable-background:new 0 0 24 24;" xml:space="preserve">
<path style="fill:#333333;" d="M11,22.25H5c-0.689,0-1.25-0.561-1.25-1.25V3c0-0.689,0.561-1.25,1.25-1.25h10.611l4.639,5.154V11.5
	h-0.5V7.096L15.389,2.25H5C4.586,2.25,4.25,2.586,4.25,3v18c0,0.413,0.336,0.75,0.75,0.75h6V22.25z"/>
<path style="fill:#333333;" d="M17,20.75c-1.517,0-2.75-1.233-2.75-2.75s1.233-2.75,2.75-2.75s2.75,1.233,2.75,2.75
	S18.517,20.75,17,20.75z M17,15.75c-1.24,0-2.25,1.01-2.25,2.25s1.01,2.25,2.25,2.25s2.25-1.01,2.25-2.25S18.24,15.75,17,15.75z"/>
<rect x="16.75" y="14" style="fill:#333333;" width="0.5" height="1.5"/>
<rect x="16.75" y="20.5" style="fill:#333333;" width="0.5" height="1.5"/>
<rect x="18.634" y="15.28" transform="matrix(0.7071 -0.7071 0.7071 0.7071 -5.3042 18.2551)" style="fill:#333333;" width="1.5" height="0.5"/>
<rect x="13.634" y="20.28" transform="matrix(0.7071 -0.7071 0.7071 0.7071 -10.3042 16.1841)" style="fill:#333333;" width="1.5" height="0.5"/>
<rect x="14.28" y="14.78" transform="matrix(0.7071 -0.7071 0.7071 0.7071 -6.7257 14.8232)" style="fill:#333333;" width="0.5" height="1.5"/>
<rect x="19.28" y="19.78" transform="matrix(0.7071 -0.7071 0.7071 0.7071 -8.7968 19.8232)" style="fill:#333333;" width="0.5" height="1.5"/>
<rect x="13" y="17.75" style="fill:#333333;" width="1.5" height="0.5"/>
<rect x="19.5" y="17.75" style="fill:#333333;" width="1.5" height="0.5"/>
<polygon style="fill:#333333;" points="20,7.25 14.75,7.25 14.75,2 15.25,2 15.25,6.75 20,6.75 "/>
</svg>






