<?xml version="1.0" encoding="iso-8859-1"?>
<svg version="1.1" id="&#x56FE;&#x5C42;_1" xmlns="http://www.w3.org/2000/svg" xmlns:xlink="http://www.w3.org/1999/xlink" x="0px"
	 y="0px" viewBox="0 0 24 24" style="enable-background:new 0 0 24 24;" xml:space="preserve">
<path style="fill:#333333;" d="M19,22.25H5c-0.689,0-1.25-0.561-1.25-1.25V3c0-0.689,0.561-1.25,1.25-1.25h10.25v5h5V21
	C20.25,21.689,19.689,22.25,19,22.25z M5,2.25C4.586,2.25,4.25,2.586,4.25,3v18c0,0.413,0.336,0.75,0.75,0.75h14
	c0.413,0,0.75-0.337,0.75-0.75V7.25h-5v-5H5z"/>
<rect x="17.25" y="0.964" transform="matrix(0.7071 -0.7071 0.7071 0.7071 1.9437 13.6924)" style="fill:#333333;" width="0.5" height="7.071"/>
<path style="fill:#333333;" d="M12,17.769l-0.09-0.035c-1.313-0.509-3.66-2.611-3.66-4.99c0-1.375,0.976-2.493,2.175-2.493
	c0.6,0,1.168,0.283,1.575,0.773c0.407-0.49,0.976-0.773,1.575-0.773c1.199,0,2.175,1.119,2.175,2.493c0,2.378-2.347,4.48-3.659,4.99
	L12,17.769z M10.425,10.75c-0.923,0-1.675,0.894-1.675,1.993c0,2.066,2.066,3.974,3.25,4.486c1.184-0.513,3.25-2.42,3.25-4.486
	c0-1.099-0.751-1.993-1.675-1.993c-0.537,0-1.046,0.311-1.361,0.833L12,11.937l-0.214-0.354
	C11.471,11.061,10.962,10.75,10.425,10.75z"/>
</svg>






