<?xml version="1.0" encoding="iso-8859-1"?>
<svg version="1.1" id="&#x56FE;&#x5C42;_1" xmlns="http://www.w3.org/2000/svg" xmlns:xlink="http://www.w3.org/1999/xlink" x="0px"
	 y="0px" viewBox="0 0 24 24" style="enable-background:new 0 0 24 24;" xml:space="preserve">
<path style="fill:#333333;" d="M19,22.25H5c-0.689,0-1.25-0.561-1.25-1.25V3c0-0.689,0.561-1.25,1.25-1.25h10.25v5h5V21
	C20.25,21.689,19.689,22.25,19,22.25z M5,2.25C4.586,2.25,4.25,2.586,4.25,3v18c0,0.413,0.336,0.75,0.75,0.75h14
	c0.413,0,0.75-0.337,0.75-0.75V7.25h-5v-5H5z"/>
<rect x="17.25" y="0.964" transform="matrix(0.7071 -0.7071 0.7071 0.7071 1.9437 13.6924)" style="fill:#333333;" width="0.5" height="7.071"/>
<path style="fill:#333333;" d="M12,18.25c-2.343,0-4.25-1.906-4.25-4.25c0-2.343,1.907-4.25,4.25-4.25c2.344,0,4.25,1.907,4.25,4.25
	C16.25,16.344,14.344,18.25,12,18.25z M12,10.25c-2.068,0-3.75,1.682-3.75,3.75c0,2.067,1.682,3.75,3.75,3.75
	c2.067,0,3.75-1.683,3.75-3.75C15.75,11.932,14.067,10.25,12,10.25z"/>
<polygon style="fill:#333333;" points="13.5,14.75 11.25,14.75 11.25,12.5 11.75,12.5 11.75,14.25 13.5,14.25 "/>
</svg>






