<?xml version="1.0" encoding="iso-8859-1"?>
<svg version="1.1" id="&#x56FE;&#x5C42;_1" xmlns="http://www.w3.org/2000/svg" xmlns:xlink="http://www.w3.org/1999/xlink" x="0px"
	 y="0px" viewBox="0 0 24 24" style="enable-background:new 0 0 24 24;" xml:space="preserve">
<path style="fill:#333333;" d="M20.5,18.25h-1.491v-0.5H20.5c0.689,0,1.25-0.561,1.25-1.25v-13c0-0.689-0.561-1.25-1.25-1.25h-13
	c-0.689,0-1.25,0.561-1.25,1.25v1.463h-0.5V3.5c0-0.965,0.785-1.75,1.75-1.75h13c0.965,0,1.75,0.785,1.75,1.75v13
	C22.25,17.465,21.465,18.25,20.5,18.25z"/>
<path style="fill:#333333;" d="M17.5,22.25h-14c-0.965,0-1.75-0.785-1.75-1.75v-14c0-0.965,0.785-1.75,1.75-1.75h14
	c0.965,0,1.75,0.785,1.75,1.75v14C19.25,21.465,18.465,22.25,17.5,22.25z M3.5,5.25c-0.689,0-1.25,0.561-1.25,1.25v14
	c0,0.689,0.561,1.25,1.25,1.25h14c0.689,0,1.25-0.561,1.25-1.25v-14c0-0.689-0.561-1.25-1.25-1.25H3.5z"/>
<polygon style="fill:#333333;" points="10.5,11.854 7.323,8.677 7.677,8.323 10.5,11.146 13.323,8.323 13.677,8.677 "/>
<rect x="7" y="12.25" style="fill:#333333;" width="7" height="0.5"/>
<rect x="7" y="15.25" style="fill:#333333;" width="7" height="0.5"/>
<rect x="10.25" y="12.5" style="fill:#333333;" width="0.5" height="5.5"/>
</svg>






