<?xml version="1.0" encoding="iso-8859-1"?>
<svg version="1.1" id="&#x56FE;&#x5C42;_1" xmlns="http://www.w3.org/2000/svg" xmlns:xlink="http://www.w3.org/1999/xlink" x="0px"
	 y="0px" viewBox="0 0 24 24" style="enable-background:new 0 0 24 24;" xml:space="preserve">
<path style="fill:#333333;" d="M12,22.25C6.348,22.25,1.75,17.652,1.75,12C1.75,6.348,6.348,1.75,12,1.75
	c5.652,0,10.25,4.598,10.25,10.25C22.25,17.652,17.652,22.25,12,22.25z M12,2.25c-5.376,0-9.75,4.374-9.75,9.75
	s4.374,9.75,9.75,9.75s9.75-4.374,9.75-9.75S17.376,2.25,12,2.25z"/>
<path style="fill:#333333;" d="M12,15.37c-0.32,0-0.64-0.121-0.884-0.365l-2.122-2.121c-0.487-0.487-0.487-1.281,0-1.768
	l2.122-2.122c0.487-0.487,1.281-0.487,1.768,0l2.121,2.122c0.236,0.236,0.366,0.55,0.366,0.884s-0.13,0.647-0.366,0.884
	l-2.121,2.121C12.641,15.249,12.32,15.37,12,15.37z M12,9.129c-0.192,0-0.384,0.073-0.53,0.219L9.348,11.47
	c-0.292,0.292-0.292,0.768,0,1.061l2.122,2.121c0.292,0.294,0.768,0.293,1.061,0l2.121-2.121c0.142-0.142,0.22-0.33,0.22-0.53
	c0-0.201-0.078-0.389-0.22-0.53L12.53,9.348C12.384,9.202,12.192,9.129,12,9.129z"/>
</svg>






