<?xml version="1.0" encoding="iso-8859-1"?>
<svg version="1.1" id="&#x56FE;&#x5C42;_1" xmlns="http://www.w3.org/2000/svg" xmlns:xlink="http://www.w3.org/1999/xlink" x="0px"
	 y="0px" viewBox="0 0 24 24" style="enable-background:new 0 0 24 24;" xml:space="preserve">
<path style="fill:#333333;" d="M16.967,22.25H7.01c-1.649,0-3.175-0.768-4.083-2.053c-0.84-1.189-1.039-2.669-0.545-4.062
	C3.727,12.339,5.385,9.275,7.31,7.03l0.116-0.135l0.166,0.064C9.584,7.74,11.98,7.75,12.004,7.75c0.023,0,2.415-0.01,4.405-0.791
	l0.165-0.065l0.115,0.135c1.906,2.224,3.559,5.281,4.911,9.085c0.497,1.397,0.298,2.884-0.544,4.077
	C20.146,21.48,18.618,22.25,16.967,22.25z M7.576,7.489C5.739,9.675,4.15,12.64,2.853,16.302c-0.439,1.238-0.263,2.553,0.481,3.606
	c0.815,1.153,2.188,1.842,3.675,1.842h9.957c1.489,0,2.865-0.69,3.682-1.847c0.747-1.059,0.923-2.378,0.481-3.62
	c-1.305-3.671-2.888-6.628-4.706-8.794c-2.039,0.752-4.321,0.761-4.42,0.761C11.905,8.25,9.619,8.241,7.576,7.489z"/>
<rect x="9" y="13.75" style="fill:#333333;" width="6" height="0.5"/>
<rect x="9" y="16.75" style="fill:#333333;" width="6" height="0.5"/>
<rect x="11.755" y="14" style="fill:#333333;" width="0.5" height="5"/>
<polygon style="fill:#333333;" points="12,14.354 8.823,11.177 9.177,10.823 12,13.646 14.823,10.823 15.177,11.177 "/>
<path style="fill:#333333;" d="M12,8.25C8.215,8.25,5.25,6.822,5.25,5S8.215,1.75,12,1.75S18.75,3.178,18.75,5S15.785,8.25,12,8.25z
	 M12,2.25C8.612,2.25,5.75,3.509,5.75,5S8.612,7.75,12,7.75S18.25,6.491,18.25,5S15.388,2.25,12,2.25z"/>
</svg>






