<?xml version="1.0" encoding="iso-8859-1"?>
<svg version="1.1" id="&#x56FE;&#x5C42;_1" xmlns="http://www.w3.org/2000/svg" xmlns:xlink="http://www.w3.org/1999/xlink" x="0px"
	 y="0px" viewBox="0 0 24 24" style="enable-background:new 0 0 24 24;" xml:space="preserve">
<path style="fill:#333333;" d="M11.9,17.25c-1.317,0-2.583-0.475-3.565-1.336l0.33-0.375c0.89,0.78,2.039,1.211,3.235,1.211
	c2.674,0,4.85-2.131,4.85-4.75s-2.176-4.75-4.85-4.75v-0.5c2.95,0,5.35,2.355,5.35,5.25C17.25,14.895,14.85,17.25,11.9,17.25z"/>
<path style="fill:#333333;" d="M12,22.25c-2.68,0-5.214-1.027-7.138-2.894C2.855,17.408,1.75,14.796,1.75,12
	c0-2.655,1.011-5.173,2.847-7.089l0.361,0.346C3.212,7.079,2.25,9.474,2.25,12c0,2.659,1.051,5.145,2.96,6.997
	C7.04,20.772,9.451,21.75,12,21.75c5.376,0,9.75-4.374,9.75-9.75S17.376,2.25,12,2.25v-0.5c5.652,0,10.25,4.598,10.25,10.25
	C22.25,17.652,17.652,22.25,12,22.25z"/>
<polygon style="fill:#333333;" points="5.215,19.351 4.857,19.003 11.646,12.007 4.605,5.264 4.951,4.903 12.354,11.994 "/>
</svg>






