<?xml version="1.0" encoding="iso-8859-1"?>
<svg version="1.1" id="&#x56FE;&#x5C42;_1" xmlns="http://www.w3.org/2000/svg" xmlns:xlink="http://www.w3.org/1999/xlink" x="0px"
	 y="0px" viewBox="0 0 24 24" style="enable-background:new 0 0 24 24;" xml:space="preserve">
<rect x="2" y="3.25" style="fill:#333333;" width="20" height="0.5"/>
<rect x="2" y="11.25" style="fill:#333333;" width="5.5" height="0.5"/>
<rect x="2" y="19.25" style="fill:#333333;" width="5.5" height="0.5"/>
<path style="fill:#333333;" d="M15.75,17.25c-2.481,0-4.5-2.019-4.5-4.5s2.019-4.5,4.5-4.5s4.5,2.019,4.5,4.5
	S18.231,17.25,15.75,17.25z M15.75,8.75c-2.206,0-4,1.794-4,4c0,2.206,1.794,4,4,4s4-1.794,4-4C19.75,10.544,17.956,8.75,15.75,8.75
	z"/>
<polygon style="fill:#333333;" points="21.822,19.701 18.322,16.176 18.678,15.824 22.178,19.35 "/>
</svg>






