<?xml version="1.0" encoding="iso-8859-1"?>
<svg version="1.1" id="&#x56FE;&#x5C42;_1" xmlns="http://www.w3.org/2000/svg" xmlns:xlink="http://www.w3.org/1999/xlink" x="0px"
	 y="0px" viewBox="0 0 24 24" style="enable-background:new 0 0 24 24;" xml:space="preserve">
<path style="fill:#333333;" d="M15.75,22h-0.5V11c0-1.517-1.233-2.75-2.75-2.75S9.75,9.483,9.75,11v11h-0.5V11
	c0-1.792,1.458-3.25,3.25-3.25s3.25,1.458,3.25,3.25V22z"/>
<path style="fill:#333333;" d="M18.75,22h-0.5V11c0-3.17-2.579-5.75-5.75-5.75c-3.17,0-5.75,2.58-5.75,5.75v11h-0.5V11
	c0-3.446,2.804-6.25,6.25-6.25s6.25,2.804,6.25,6.25V22z"/>
<path style="fill:#333333;" d="M21.75,22h-0.5V11c0-4.825-3.925-8.75-8.75-8.75c-4.825,0-8.75,3.925-8.75,8.75v11h-0.5V11
	c0-5.101,4.149-9.25,9.25-9.25s9.25,4.149,9.25,9.25V22z"/>
<rect x="12.25" y="11" style="fill:#333333;" width="0.5" height="11"/>
</svg>






