<?xml version="1.0" encoding="iso-8859-1"?>
<svg version="1.1" id="&#x56FE;&#x5C42;_1" xmlns="http://www.w3.org/2000/svg" xmlns:xlink="http://www.w3.org/1999/xlink" x="0px"
	 y="0px" viewBox="0 0 24 24" style="enable-background:new 0 0 24 24;" xml:space="preserve">
<path style="fill:#333333;" d="M21.04,6.198C18.618,3.813,15.393,2.5,11.959,2.5c-3.413,0-6.623,1.299-9.039,3.657L2.57,5.8
	C5.081,3.35,8.415,2,11.959,2c3.565,0,6.916,1.364,9.433,3.841L21.04,6.198z"/>
<path style="fill:#333333;" d="M3.083,14.737v-0.029c0-4.917,4-8.916,8.917-8.916v0.5c-4.641,0-8.417,3.775-8.417,8.416
	L3.083,14.737z"/>
<path style="fill:#333333;" d="M20.417,14.715c0-3.299-1.938-6.308-4.936-7.672l0.207-0.455c3.176,1.445,5.229,4.633,5.229,8.12
	L20.417,14.715z"/>
<path style="fill:#333333;" d="M17.125,18.5h-0.5v-3.792c0-2.55-2.075-4.625-4.625-4.625c-2.55,0-4.625,2.075-4.625,4.625V18.5h-0.5
	v-3.792c0-2.826,2.299-5.125,5.125-5.125s5.125,2.299,5.125,5.125V18.5z"/>
<path style="fill:#333333;" d="M8.823,21.993l-0.12-0.486c0.878-0.216,1.422-1.159,1.422-1.909V15.25
	c0-1.034,0.841-1.875,1.875-1.875c1.034,0,1.875,0.841,1.875,1.875v4.348h-0.5V15.25c0-0.758-0.617-1.375-1.375-1.375
	c-0.758,0-1.375,0.617-1.375,1.375v4.348C10.625,20.557,9.951,21.715,8.823,21.993z"/>
</svg>






