<?xml version="1.0" encoding="iso-8859-1"?>
<svg version="1.1" id="&#x56FE;&#x5C42;_1" xmlns="http://www.w3.org/2000/svg" xmlns:xlink="http://www.w3.org/1999/xlink" x="0px"
	 y="0px" viewBox="0 0 24 24" style="enable-background:new 0 0 24 24;" xml:space="preserve">
<path style="fill:#333333;" d="M11.25,22.25h-8.5V10c0-2.343,1.907-4.25,4.25-4.25s4.25,1.907,4.25,4.25V22.25z M3.25,21.75h7.5V10
	c0-2.068-1.682-3.75-3.75-3.75S3.25,7.932,3.25,10V21.75z"/>
<path style="fill:none;" d="M15,22h6l-3-9L15,22z"/>
<path style="fill:#333333;" d="M21.347,22.25h-6.693l3.097-9.291V12c0-3.697,0-5.553-1.099-6.652C15.554,4.25,13.697,4.25,10,4.25H9
	v-0.5h1c3.836,0,5.761,0,7.005,1.245C18.25,6.24,18.25,8.165,18.25,12v0.959L21.347,22.25z M15.347,21.75h5.307L18,13.791
	L15.347,21.75z M5,4.25H3v-0.5h2V4.25z"/>
<path style="fill:#333333;" d="M7,6.25C5.759,6.25,4.75,5.241,4.75,4S5.759,1.75,7,1.75S9.25,2.759,9.25,4S8.241,6.25,7,6.25z
	 M7,2.25C6.035,2.25,5.25,3.035,5.25,4S6.035,5.75,7,5.75S8.75,4.965,8.75,4S7.965,2.25,7,2.25z"/>
</svg>






