<?xml version="1.0" encoding="iso-8859-1"?>
<svg version="1.1" id="&#x56FE;&#x5C42;_1" xmlns="http://www.w3.org/2000/svg" xmlns:xlink="http://www.w3.org/1999/xlink" x="0px"
	 y="0px" viewBox="0 0 24 24" style="enable-background:new 0 0 24 24;" xml:space="preserve">
<path style="fill:#333333;" d="M3.076,21.238l-0.312-0.321l4.47-12.749l8.727,8.966L3.076,21.238z M7.439,9.095L3.402,20.609
	l11.637-3.705L7.439,9.095z"/>
<path style="fill:#333333;" d="M11.677,9.677l-0.354-0.354l2.5-2.5c1.227-1.227,1.391-2.256,0.5-3.146l0.354-0.354
	c0.765,0.765,1.299,2.054-0.5,3.854L11.677,9.677z"/>
<path style="fill:#333333;" d="M14.677,12.677l-0.354-0.354l2.5-2.5c1.775-1.775,3.578-1.775,5.354,0l-0.354,0.354
	c-1.562-1.562-3.084-1.562-4.646,0L14.677,12.677z"/>
<path style="fill:#333333;" d="M10,3.5c0.552,0,1-0.448,1-1s-0.448-1-1-1s-1,0.448-1,1S9.448,3.5,10,3.5z"/>
<path style="fill:#333333;" d="M21,3c0.552,0,1-0.448,1-1s-0.448-1-1-1s-1,0.448-1,1S20.448,3,21,3z"/>
<path style="fill:#333333;" d="M21,14.5c0.552,0,1-0.448,1-1s-0.448-1-1-1s-1,0.448-1,1S20.448,14.5,21,14.5z"/>
<path style="fill:#333333;" d="M19.5,19c0.552,0,1-0.448,1-1s-0.448-1-1-1s-1,0.448-1,1S18.948,19,19.5,19z"/>
</svg>






