<?xml version="1.0" encoding="iso-8859-1"?>
<svg version="1.1" id="&#x56FE;&#x5C42;_1" xmlns="http://www.w3.org/2000/svg" xmlns:xlink="http://www.w3.org/1999/xlink" x="0px"
	 y="0px" viewBox="0 0 24 24" style="enable-background:new 0 0 24 24;" xml:space="preserve">
<path style="fill:#333333;" d="M11.5,17.25c-3.722,0-6.75-3.028-6.75-6.75c0-2.151,0.863-3.538,1.777-5.006
	C7.177,4.45,7.849,3.37,8.26,1.931l0.079-0.275L8.6,1.771c3.035,1.328,3.851,4.618,4.07,6.262c0.547-0.987,1.696-2.507,3.77-3.026
	l0.283-0.071l0.026,0.291c0.132,1.456,0.548,2.386,0.914,3.206c0.314,0.706,0.587,1.315,0.587,2.066
	C18.25,14.222,15.222,17.25,11.5,17.25z M8.656,2.349C8.223,3.715,7.577,4.752,6.952,5.758C6.077,7.164,5.25,8.492,5.25,10.5
	c0,3.446,2.804,6.25,6.25,6.25s6.25-2.804,6.25-6.25c0-0.645-0.24-1.182-0.544-1.862c-0.339-0.76-0.756-1.693-0.924-3.067
	c-2.613,0.816-3.536,3.481-3.545,3.508L12.25,9C12.25,8.95,12.202,4.122,8.656,2.349z"/>
<rect x="11.25" y="11.754" transform="matrix(0.2425 -0.9701 0.9701 0.2425 -10.692 26.3059)" style="fill:#333333;" width="0.499" height="16.492"/>
<rect x="3.254" y="19.75" transform="matrix(0.9701 -0.2425 0.2425 0.9701 -4.5074 3.3863)" style="fill:#333333;" width="16.492" height="0.499"/>
</svg>






