<?xml version="1.0" encoding="iso-8859-1"?>
<svg version="1.1" id="&#x56FE;&#x5C42;_1" xmlns="http://www.w3.org/2000/svg" xmlns:xlink="http://www.w3.org/1999/xlink" x="0px"
	 y="0px" viewBox="0 0 24 24" style="enable-background:new 0 0 24 24;" xml:space="preserve">
<path style="fill:#333333;" d="M12,22.25c-4.346,0-7.75-3.312-7.75-7.541c0-1.529,0.27-2.744,0.801-3.607
	c0.503-0.818,0.84-1.18,1.307-1.681c0.146-0.157,0.307-0.33,0.492-0.537l0.31-0.343C7.66,7.989,7.811,7.823,8.322,6.862
	C8.953,5.677,9.343,3.416,9.343,2l0.408-0.193c0.145,0.118,0.305,0.245,0.476,0.38c1.017,0.806,2.41,1.909,3.488,3.489
	c1.029,1.508,1.812,3.906,2.059,4.922c0.52-0.422,1.375-1.286,1.569-2.914l0.465-0.094c0.612,1.074,0.729,1.301,1.308,3.036
	c0.586,1.763,0.635,2.905,0.635,3.922C19.75,18.795,16.273,22.25,12,22.25z M9.829,2.509C9.75,3.976,9.357,5.98,8.763,7.097
	c-0.54,1.015-0.715,1.208-1.234,1.78l-0.307,0.34c-0.188,0.21-0.35,0.385-0.499,0.544c-0.463,0.498-0.77,0.826-1.247,1.602
	c-0.482,0.784-0.727,1.91-0.727,3.346c0,3.948,3.185,7.041,7.25,7.041c3.998,0,7.25-3.23,7.25-7.201
	c0-0.977-0.047-2.072-0.609-3.765c-0.446-1.339-0.61-1.756-0.93-2.346c-0.42,1.658-1.497,2.461-1.881,2.747l-0.072,0.054
	l-0.402-0.198c-0.016-0.298-0.849-3.319-2.053-5.083c-1.036-1.518-2.395-2.593-3.386-3.379C9.887,2.556,9.857,2.532,9.829,2.509z"/>
</svg>






