<?xml version="1.0" encoding="iso-8859-1"?>
<svg version="1.1" id="&#x56FE;&#x5C42;_1" xmlns="http://www.w3.org/2000/svg" xmlns:xlink="http://www.w3.org/1999/xlink" x="0px"
	 y="0px" viewBox="0 0 24 24" style="enable-background:new 0 0 24 24;" xml:space="preserve">
<path style="fill:#333333;" d="M15,22.25H9c-0.689,0-1.25-0.561-1.25-1.25V9c0-2.343,1.907-4.25,4.25-4.25
	c2.344,0,4.25,1.907,4.25,4.25v12C16.25,21.689,15.689,22.25,15,22.25z M12,5.25C9.932,5.25,8.25,6.932,8.25,9v12
	c0,0.413,0.336,0.75,0.75,0.75h6c0.413,0,0.75-0.337,0.75-0.75V9C15.75,6.932,14.067,5.25,12,5.25z"/>
<rect x="11.75" y="12" style="fill:#333333;" width="0.5" height="5"/>
<path style="fill:#333333;" d="M14.75,4.75h-5v-2.5h5V4.75z M10.25,4.25h4v-1.5h-4V4.25z"/>
<path style="fill:#333333;" d="M19.25,5.279l-5-0.556V2.276l5-0.556V5.279z M14.75,4.276l4,0.444V2.279l-4,0.444V4.276z"/>
<path style="fill:#333333;" d="M4.25,9h-0.5c0-0.267-0.004-0.521-0.007-0.763C3.719,6.616,3.702,5.444,4.823,4.323
	c1.154-1.155,3.027-1.116,4.53-1.083C9.58,3.245,9.797,3.25,10,3.25v0.5c-0.207,0-0.427-0.005-0.658-0.01
	C7.933,3.713,6.18,3.673,5.177,4.677C4.205,5.648,4.22,6.675,4.243,8.229C4.246,8.475,4.25,8.731,4.25,9z"/>
</svg>






