<?xml version="1.0" encoding="iso-8859-1"?>
<svg version="1.1" id="&#x56FE;&#x5C42;_1" xmlns="http://www.w3.org/2000/svg" xmlns:xlink="http://www.w3.org/1999/xlink" x="0px"
	 y="0px" viewBox="0 0 24 24" style="enable-background:new 0 0 24 24;" xml:space="preserve">
<path style="fill:#333333;" d="M19,20.25H5c-0.689,0-1.25-0.561-1.25-1.25v-9h0.5v9c0,0.413,0.336,0.75,0.75,0.75h14
	c0.413,0,0.75-0.337,0.75-0.75v-9h0.5v9C20.25,19.689,19.689,20.25,19,20.25z"/>
<path style="fill:#333333;" d="M21.75,10.25H2.25v-3.5h19.5V10.25z M2.75,9.75h18.5v-2.5H2.75V9.75z"/>
<path style="fill:#333333;" d="M15.75,7.25h-7.5v-3.5h7.5V7.25z M8.75,6.75h6.5v-2.5h-6.5V6.75z"/>
<rect x="10" y="14.75" style="fill:#333333;" width="4" height="0.5"/>
<rect x="11.75" y="13" style="fill:#333333;" width="0.5" height="4"/>
</svg>






