<?xml version="1.0" encoding="iso-8859-1"?>
<svg version="1.1" id="&#x56FE;&#x5C42;_1" xmlns="http://www.w3.org/2000/svg" xmlns:xlink="http://www.w3.org/1999/xlink" x="0px"
	 y="0px" viewBox="0 0 24 24" style="enable-background:new 0 0 24 24;" xml:space="preserve">
<path style="fill:#333333;" d="M11.481,19.83c-0.384,0-0.733-0.032-1.025-0.084L10.08,19.68l1.993-2.989
	c-2.287-0.438-4.82-2.649-5.562-3.338c-1.372,1.401-3.399,2.452-4.416,2.863l-0.319-0.339c1.86-3.917,0.604-7.347,0.017-8.24L2,7.25
	c1.518,0,3.613,1.608,4.497,2.406c1.13-1.001,3.988-2.262,5.579-2.786l-1.771-2.214l0.168-0.405c3.807-0.42,5.66,1.339,6.207,2.533
	c3.762,0.891,5.375,3.863,5.567,5.179l0.008,0.05l-0.013,0.049c-0.604,2.33-3.862,4.286-5.563,4.657
	C15.604,19.188,13.194,19.829,11.481,19.83z M10.93,19.306c1.576,0.138,4.274-0.286,5.338-2.9l0.052-0.128l0.137-0.023
	c1.493-0.263,4.691-2.122,5.288-4.268c-0.212-1.243-1.751-3.956-5.299-4.742l-0.13-0.029l-0.049-0.124
	c-0.401-1.015-1.955-2.612-5.281-2.384l1.942,2.427L12.57,7.24c-1.475,0.431-4.916,1.908-5.889,2.933l-0.173,0.182l-0.181-0.173
	C5.394,9.288,3.69,8.072,2.456,7.804c0.644,1.318,1.426,4.267,0.033,7.691c1.103-0.521,2.734-1.473,3.828-2.664l0.173-0.189
	l0.185,0.179c1.226,1.184,3.838,3.238,5.85,3.431l0.416,0.04L10.93,19.306z"/>
<circle style="fill:#333333;" cx="18" cy="12" r="1"/>
</svg>






