<?xml version="1.0" encoding="iso-8859-1"?>
<svg version="1.1" id="&#x56FE;&#x5C42;_1" xmlns="http://www.w3.org/2000/svg" xmlns:xlink="http://www.w3.org/1999/xlink" x="0px"
	 y="0px" viewBox="0 0 24 24" style="enable-background:new 0 0 24 24;" xml:space="preserve">
<path style="fill:#333333;" d="M19.5,17.75h-8.218c-0.326,0-0.644-0.09-0.919-0.261l-4.494-2.776L6,14.25h13.5
	c0.965,0,1.75,0.785,1.75,1.75S20.465,17.75,19.5,17.75z M6.88,14.75l3.745,2.313c0.197,0.122,0.424,0.187,0.657,0.187H19.5
	c0.689,0,1.25-0.561,1.25-1.25s-0.561-1.25-1.25-1.25H6.88z"/>
<path style="fill:#333333;" d="M15,5.75c-0.689,0-1.25-0.561-1.25-1.25S14.311,3.25,15,3.25s1.25,0.561,1.25,1.25
	S15.689,5.75,15,5.75z M15,3.75c-0.413,0-0.75,0.336-0.75,0.75S14.587,5.25,15,5.25s0.75-0.336,0.75-0.75S15.413,3.75,15,3.75z"/>
<path style="fill:#333333;" d="M17.15,16.2l-0.301-0.4c1.912-1.434,1.083-4.652,0.679-5.435c-0.4-0.772-1.122-1.768-1.368-2.1
	c-0.155,0.031-0.445,0.124-0.733,0.412c-0.376,0.376-0.717,0.778-1.048,1.167c-0.869,1.023-1.621,1.907-2.629,1.907
	c-1.301,0-3.05-0.991-3.124-1.033l0.248-0.435c0.017,0.01,1.708,0.967,2.876,0.967c0.777,0,1.459-0.802,2.248-1.73
	c0.337-0.396,0.686-0.806,1.075-1.196c0.566-0.567,1.176-0.573,1.201-0.573l0.199,0.099c0.04,0.053,0.994,1.312,1.498,2.287
	C18.492,11.141,19.3,14.588,17.15,16.2z"/>
<path style="fill:#333333;" d="M3.25,14h-0.5V5c0-0.343,0.142-0.672,0.389-0.903c0.24-0.225,0.544-0.335,0.878-0.315
	c2.971,0.196,4.412,1.354,6.179,3.562L9.805,7.656c-1.712-2.14-3.02-3.19-5.821-3.375C3.798,4.27,3.619,4.333,3.48,4.462
	C3.334,4.599,3.25,4.795,3.25,5V14z"/>
<path style="fill:#333333;" d="M21,21.75c-1.094,0-1.514-0.303-1.884-0.569c-0.32-0.231-0.598-0.431-1.366-0.431
	c-0.789,0-0.963,0.203-1.163,0.438c-0.226,0.264-0.481,0.562-1.337,0.562c-0.822,0-1.199-0.278-1.532-0.523
	c-0.332-0.245-0.646-0.477-1.468-0.477c-0.787,0-1.045,0.206-1.344,0.445c-0.325,0.26-0.693,0.555-1.656,0.555
	c-1,0-1.347-0.313-1.652-0.59c-0.253-0.229-0.454-0.41-1.098-0.41c-0.625,0-0.837,0.174-1.104,0.394
	C5.049,21.428,4.656,21.75,3.5,21.75v-0.5c0.977,0,1.269-0.239,1.578-0.493C5.382,20.508,5.696,20.25,6.5,20.25
	c0.836,0,1.153,0.287,1.433,0.54c0.273,0.247,0.509,0.46,1.317,0.46c0.787,0,1.045-0.206,1.344-0.445
	c0.325-0.26,0.693-0.555,1.656-0.555c0.986,0,1.399,0.305,1.765,0.574c0.31,0.229,0.577,0.426,1.235,0.426
	c0.625,0,0.764-0.162,0.957-0.388c0.233-0.272,0.523-0.612,1.543-0.612c0.93,0,1.301,0.267,1.658,0.525
	C19.747,21.02,20.067,21.25,21,21.25V21.75z"/>
</svg>






