<?xml version="1.0" encoding="iso-8859-1"?>
<svg version="1.1" id="&#x56FE;&#x5C42;_1" xmlns="http://www.w3.org/2000/svg" xmlns:xlink="http://www.w3.org/1999/xlink" x="0px"
	 y="0px" viewBox="0 0 24 24" style="enable-background:new 0 0 24 24;" xml:space="preserve">
<g>
	<defs>
		<rect id="SVGID_1_" width="24" height="24"/>
	</defs>
	<clipPath id="SVGID_00000036214011105428184540000010056183958440514476_">
		<use xlink:href="#SVGID_1_"  style="overflow:visible;"/>
	</clipPath>
	<g style="clip-path:url(#SVGID_00000036214011105428184540000010056183958440514476_);">
		<path style="fill:#333333;" d="M6.411,21.452c-0.481,0-1.109-0.413-1.742-2.009c-1.907-0.757-2.125-1.506-1.967-2.006
			c0.373-1.182,3.21-1.719,5.049-1.258l0.146,0.036l0.037,0.146c0.46,1.843-0.078,4.676-1.259,5.049
			C6.593,21.437,6.505,21.452,6.411,21.452z M6.276,16.509c-1.48,0-2.914,0.497-3.098,1.08c-0.132,0.416,0.531,0.95,1.773,1.428
			l0.104,0.04l0.04,0.104c0.478,1.242,1.014,1.903,1.429,1.773c0.742-0.234,1.347-2.501,0.958-4.304
			C7.093,16.546,6.683,16.509,6.276,16.509z"/>
		<path style="fill:#333333;" d="M8.282,9.637C6.7,9.175,5.436,8.401,5.063,7.664C4.93,7.402,4.906,7.139,4.992,6.902
			c0.482-1.327,3.912-2.029,6.221-2.029c0.01,0,0.02,0,0.029,0l-0.001,0.5c-0.01,0-0.021,0-0.031,0c-2.594,0-5.435,0.838-5.748,1.7
			C5.423,7.18,5.438,7.299,5.509,7.438c0.304,0.6,1.502,1.307,2.913,1.719L8.282,9.637z"/>
		<path style="fill:#333333;" d="M16.923,19.171c-0.154,0-0.314-0.04-0.474-0.121c-0.736-0.373-1.511-1.637-1.974-3.219l0.48-0.141
			c0.412,1.411,1.119,2.609,1.719,2.913c0.139,0.071,0.26,0.089,0.364,0.047c0.864-0.313,1.706-3.177,1.7-5.778l0.5-0.002
			c0.006,2.31-0.696,5.766-2.029,6.251C17.118,19.154,17.021,19.171,16.923,19.171z"/>
		<path style="fill:#333333;" d="M7.417,16.689l0.024-0.288c0.029-0.351,0.748-8.61,3.608-11.47c2.898-2.9,8.832-1.2,9.084-1.126
			l0.118,0.035l0.044,0.114c0.096,0.243,2.292,6-1.127,9.112C15.81,16.124,8.035,16.65,7.706,16.671L7.417,16.689z M16.074,3.755
			c-1.657,0-3.476,0.333-4.672,1.53c-2.439,2.438-3.278,9.353-3.435,10.864c1.461-0.129,7.992-0.838,10.864-3.452l0,0
			c2.91-2.649,1.329-7.622,1.04-8.445C19.432,4.137,17.846,3.755,16.074,3.755z"/>
		<path style="fill:#333333;" d="M18.965,13.134c-0.141-0.022-3.462-0.565-5.441-2.545c-1.979-1.979-2.522-5.301-2.545-5.441
			l0.494-0.078c0.005,0.033,0.542,3.303,2.404,5.166c1.865,1.866,5.133,2.4,5.166,2.405L18.965,13.134z"/>
		<circle style="fill:#333333;" cx="16.883" cy="7.23" r="1"/>
		<path style="fill:#333333;" d="M15.959,14.932l-0.184-0.465c1.297-0.51,2.325-1.104,3.057-1.769
			c0.666-0.607,1.146-1.381,1.429-2.299l0.479,0.146c-0.31,1.005-0.838,1.854-1.571,2.522C18.392,13.773,17.312,14.4,15.959,14.932z
			"/>
		<path style="fill:#333333;" d="M9.944,7.6L9.486,7.4c0.466-1.067,0.992-1.897,1.563-2.468c0.613-0.613,1.415-1.065,2.382-1.344
			l0.139,0.48c-0.885,0.254-1.614,0.664-2.167,1.217C10.876,5.812,10.385,6.59,9.944,7.6z"/>
	</g>
</g>
</svg>






