<?xml version="1.0" encoding="iso-8859-1"?>
<svg version="1.1" id="&#x56FE;&#x5C42;_1" xmlns="http://www.w3.org/2000/svg" xmlns:xlink="http://www.w3.org/1999/xlink" x="0px"
	 y="0px" viewBox="0 0 24 24" style="enable-background:new 0 0 24 24;" xml:space="preserve">
<path style="fill:#333333;" d="M18.84,21.192l-2.88-2.4c-3.362,1.48-6.099,1.457-7.277,1.459L8.5,20.25
	c-5.127,0-6.25-2.346-6.25-3.25c0-2.969,1.173-8.164,2.014-10.582C4.906,4.161,6.339,2.75,8,2.75c4.93,0,5.646,2.075,5.747,2.71
	l0.02,0.126l-2.771,2.772l-0.176-0.187c-1.571-1.656-2.22-1.749-2.424-1.711C8.345,6.47,8.273,6.494,8.23,6.596
	c-0.373,2.551-0.329,5.451-0.068,6.955c2.77-2.108,4.698-0.996,5.751-0.388l0.068,0.039c3.494-2.55,5.721-1.396,7.06-0.703
	c0.205,0.106,0.389,0.202,0.553,0.27l-0.189,0.463c-0.177-0.072-0.374-0.175-0.594-0.288c-1.331-0.691-3.344-1.732-6.661,0.757
	l-0.131,0.098l-0.355-0.202c-1.058-0.61-2.829-1.633-5.504,0.597l-0.308,0.256L7.757,14.06C7.41,12.644,7.313,9.416,7.753,6.463
	c0.114-0.294,0.304-0.449,0.552-0.494c0.609-0.107,1.494,0.437,2.699,1.674l2.225-2.225C12.966,4.348,11.471,3.25,8,3.25
	c-1.428,0-2.677,1.271-3.26,3.318C3.926,8.911,2.75,14.127,2.75,17c0,0.714,1.056,2.75,5.75,2.75l0.186,0.001
	c1.157-0.004,3.883,0.021,7.212-1.479l0.143-0.064l3.12,2.6L18.84,21.192z"/>
</svg>






