<?xml version="1.0" encoding="iso-8859-1"?>
<svg version="1.1" id="&#x56FE;&#x5C42;_1" xmlns="http://www.w3.org/2000/svg" xmlns:xlink="http://www.w3.org/1999/xlink" x="0px"
	 y="0px" viewBox="0 0 24 24" style="enable-background:new 0 0 24 24;" xml:space="preserve">
<path style="fill:#333333;" d="M19.5,21.25h-15c-0.965,0-1.75-0.785-1.75-1.75v-15c0-0.965,0.785-1.75,1.75-1.75h15
	c0.965,0,1.75,0.785,1.75,1.75v15C21.25,20.465,20.465,21.25,19.5,21.25z M4.5,3.25c-0.689,0-1.25,0.561-1.25,1.25v15
	c0,0.689,0.561,1.25,1.25,1.25h15c0.689,0,1.25-0.561,1.25-1.25v-15c0-0.689-0.561-1.25-1.25-1.25H4.5z"/>
<path style="fill:#333333;" d="M12,16.75c-1.409,0-2.25-0.84-2.25-2.246h0.5c0,0.652,0.228,1.746,1.75,1.746
	c1.577,0,2.25-0.972,2.25-3.25c0-2.282-0.699-2.75-1.75-2.75c-1.29,0-2.229,0.395-2.36,0.473l-0.122-0.206H9.75V6.755h4.75v0.5
	h-4.25v2.875c0.587-0.224,1.566-0.38,2.25-0.38c1.994,0,2.25,1.737,2.25,3.25C14.75,14.609,14.465,16.75,12,16.75z"/>
</svg>






