<?xml version="1.0" encoding="iso-8859-1"?>
<svg version="1.1" id="&#x56FE;&#x5C42;_1" xmlns="http://www.w3.org/2000/svg" xmlns:xlink="http://www.w3.org/1999/xlink" x="0px"
	 y="0px" viewBox="0 0 24 24" style="enable-background:new 0 0 24 24;" xml:space="preserve">
<path style="fill:#333333;" d="M11.5,22.25c-4.069,0-5.827-1.344-6.224-2.139l-0.013-0.03l-2.5-7.25L1.776,7.903
	C1.759,7.819,1.75,7.732,1.75,7.644V7.563c0-0.425,0.263-0.779,0.671-0.9c0.411-0.121,0.822,0.03,1.055,0.386
	C3.509,7.101,3.54,7.157,3.567,7.215l1.965,4.258c0.036,0.078,0.108,0.129,0.188,0.142L4.817,5.006
	c-0.05-0.371,0.045-0.739,0.27-1.038C5.25,3.75,5.489,3.608,5.76,3.57c0.271-0.04,0.54,0.03,0.759,0.194l0.067,0.051
	C6.832,3.999,7.015,4.25,7.115,4.54l2.056,5.939L8.79,3.625C8.76,3.167,8.93,2.717,9.254,2.392c0.414-0.415,1.072-0.452,1.53-0.085
	l0.17,0.136c0.339,0.272,0.565,0.658,0.634,1.088l1.12,6.94l0.066-0.002l0.664-6.862c0.046-0.467,0.282-0.904,0.649-1.198
	l0.104-0.083c0.473-0.376,1.148-0.339,1.574,0.087c0.312,0.311,0.483,0.725,0.483,1.166v9.754c0,0.134,0.091,0.198,0.13,0.22
	c0.041,0.021,0.144,0.063,0.256-0.009l2.235-1.438c0.363-0.234,0.784-0.357,1.216-0.357h1.035c0.272,0,0.516,0.142,0.651,0.379
	c0.135,0.237,0.133,0.519-0.007,0.753l-4.302,7.246C17.363,20.25,15.566,22.25,11.5,22.25z M5.73,19.901
	c0.279,0.527,1.829,1.849,5.77,1.849c3.842,0,5.545-1.896,5.562-1.915l4.275-7.208c0.066-0.112,0.023-0.213,0.002-0.251
	s-0.086-0.126-0.217-0.126h-1.035c-0.336,0-0.663,0.096-0.946,0.277l-2.235,1.438c-0.234,0.152-0.521,0.161-0.765,0.027
	c-0.241-0.132-0.391-0.384-0.391-0.658V3.58c0-0.307-0.119-0.596-0.337-0.812c-0.246-0.246-0.638-0.266-0.908-0.05l-0.104,0.083
	c-0.263,0.21-0.432,0.522-0.464,0.855l-0.664,6.862C13.247,10.792,13.02,11,12.742,11c-0.265,0-0.486-0.189-0.527-0.45l-1.119-6.938
	c-0.05-0.307-0.211-0.583-0.454-0.777l-0.17-0.136c-0.259-0.207-0.629-0.186-0.864,0.048c-0.223,0.223-0.34,0.532-0.319,0.847
	l0.441,6.842c0.01,0.146-0.042,0.291-0.142,0.397c-0.255,0.272-0.768,0.162-0.89-0.189l-2.056-5.94
	C6.575,4.508,6.451,4.338,6.286,4.214L6.218,4.164c-0.231-0.173-0.56-0.126-0.732,0.105c-0.145,0.192-0.207,0.43-0.174,0.67
	l0.963,7.038l-0.252,0.095c-0.366,0.135-0.781-0.034-0.945-0.388L3.112,7.424C3.096,7.389,3.079,7.356,3.058,7.325
	C2.925,7.121,2.714,7.096,2.564,7.143C2.412,7.188,2.25,7.322,2.25,7.563v0.081c0,0.054,0.005,0.108,0.016,0.16l0.979,4.897
	L5.73,19.901z"/>
</svg>






