<?xml version="1.0" encoding="iso-8859-1"?>
<svg version="1.1" id="&#x56FE;&#x5C42;_1" xmlns="http://www.w3.org/2000/svg" xmlns:xlink="http://www.w3.org/1999/xlink" x="0px"
	 y="0px" viewBox="0 0 24 24" style="enable-background:new 0 0 24 24;" xml:space="preserve">
<path style="fill:#333333;" d="M14.122,22.25h-0.577c-2.612,0-5.092-1.259-6.635-3.367L3.073,13.64
	c-0.783-1.069-0.565-2.597,0.485-3.404c0.976-0.751,2.37-0.661,3.241,0.211l0.95,0.95V3.625c0-1.034,0.841-1.875,1.875-1.875
	c0.605,0,1.145,0.288,1.488,0.735c0.262-0.72,0.953-1.235,1.762-1.235s1.5,0.515,1.763,1.235C14.98,2.038,15.52,1.75,16.125,1.75
	C17.159,1.75,18,2.591,18,3.625v0.727c0.343-0.37,0.832-0.602,1.375-0.602c1.034,0,1.875,0.841,1.875,1.875v9.529
	c0,1.422-0.427,2.797-1.234,3.977C18.681,21.084,16.478,22.25,14.122,22.25z M7.313,18.588c1.449,1.979,3.779,3.162,6.232,3.162
	h0.577c2.189,0,4.239-1.085,5.481-2.901c0.75-1.097,1.146-2.374,1.146-3.694V5.625c0-0.758-0.617-1.375-1.375-1.375
	S18,4.867,18,5.625h-0.5v-2c0-0.758-0.617-1.375-1.375-1.375S14.75,2.867,14.75,3.625h-0.5v-0.5c0-0.758-0.617-1.375-1.375-1.375
	S11.5,2.367,11.5,3.125v0.5H11c0-0.758-0.617-1.375-1.375-1.375S8.25,2.867,8.25,3.625V12l-0.427,0.177L6.446,10.8
	c-0.693-0.693-1.805-0.766-2.583-0.168c-0.837,0.644-1.01,1.86-0.387,2.713L7.313,18.588z"/>
</svg>






