<?xml version="1.0" encoding="iso-8859-1"?>
<svg version="1.1" id="&#x56FE;&#x5C42;_1" xmlns="http://www.w3.org/2000/svg" xmlns:xlink="http://www.w3.org/1999/xlink" x="0px"
	 y="0px" viewBox="0 0 24 24" style="enable-background:new 0 0 24 24;" xml:space="preserve">
<path style="fill:#333333;" d="M21.75,12.5h-0.5c0-4.825-4.037-8.75-9-8.75c-4.962,0-9,3.925-9,8.75h-0.5
	c0-5.101,4.262-9.25,9.5-9.25S21.75,7.399,21.75,12.5z"/>
<path style="fill:#333333;" d="M22,20.75H4c-0.834,0-1.539-0.346-1.934-0.949c-0.382-0.583-0.425-1.324-0.117-2.031
	c0.587-1.349,2.279-2.89,2.351-2.955l0.413,0.134l0.49,2.302l12.88,0.011l4.066,3.039L22,20.75z M4.316,15.49
	C3.802,16,2.805,17.057,2.407,17.969c-0.239,0.551-0.211,1.118,0.077,1.559C2.785,19.986,3.337,20.25,4,20.25h17.248l-3.331-2.489
	L4.797,17.75L4.316,15.49z"/>
<polygon style="fill:#333333;" points="14.332,17.685 8.903,12.75 7.805,12.75 8.745,17.451 8.255,17.549 7.195,12.25 9.097,12.25 
	9.168,12.315 14.668,17.315 "/>
</svg>






