<?xml version="1.0" encoding="iso-8859-1"?>
<svg version="1.1" id="&#x56FE;&#x5C42;_1" xmlns="http://www.w3.org/2000/svg" xmlns:xlink="http://www.w3.org/1999/xlink" x="0px"
	 y="0px" viewBox="0 0 24 24" style="enable-background:new 0 0 24 24;" xml:space="preserve">
<path style="fill:#333333;" d="M12.501,21.771l-0.099-0.042c-2.426-1.039-4.18-2.394-5.359-4.141l0.414-0.279
	c1.109,1.642,2.759,2.924,5.044,3.918c4.461-1.942,6.604-5.039,6.742-9.735l0.5,0.015c-0.144,4.88-2.48,8.224-7.144,10.222
	L12.501,21.771z"/>
<path style="fill:#333333;" d="M5.682,14.564c-0.287-1.072-0.432-2.267-0.432-3.55v-6.06l7.253-2.722l7.247,2.722V9.5h-0.5V5.301
	l-6.747-2.534L5.75,5.301v5.713c0,1.24,0.14,2.391,0.416,3.421L5.682,14.564z"/>
<path style="fill:#333333;" d="M3.859,19.115c-0.391,0-0.765-0.099-1.094-0.296c-0.614-0.369-0.983-1.028-1.015-1.81
	c-0.061-1.517,0.821-3.708,0.858-3.801l0.082-0.202l0.211,0.054c0.23,0.058,0.467,0.35,0.938,0.953
	c0.267,0.341,0.564,0.721,0.841,1.001l12.788-6.278l4.586,1.019l0.059,0.467c-0.156,0.079-15.643,7.913-17.092,8.613
	C4.634,19.022,4.238,19.115,3.859,19.115z M2.952,13.714c-0.239,0.656-0.745,2.19-0.702,3.276c0.024,0.609,0.305,1.12,0.772,1.4
	c0.502,0.301,1.15,0.299,1.781-0.006c1.278-0.617,13.535-6.812,16.46-8.292l-3.732-0.829l-12.94,6.353l-0.126-0.115
	c-0.34-0.312-0.701-0.772-1.019-1.18C3.291,14.123,3.099,13.878,2.952,13.714z"/>
<polygon style="fill:#333333;" points="9.776,12.611 8.164,9.388 9.48,8.73 14.079,10.263 13.921,10.737 9.519,9.27 8.835,9.612 
	10.223,12.389 "/>
</svg>






