<?xml version="1.0" encoding="iso-8859-1"?>
<svg version="1.1" id="&#x56FE;&#x5C42;_1" xmlns="http://www.w3.org/2000/svg" xmlns:xlink="http://www.w3.org/1999/xlink" x="0px"
	 y="0px" viewBox="0 0 24 24" style="enable-background:new 0 0 24 24;" xml:space="preserve">
<path style="fill:#333333;" d="M18.25,13.75H5.75v-8.5h2.596l1-2h5.309l1,2h2.596V13.75z M6.25,13.25h11.5v-7.5h-2.404l-1-2H9.654
	l-1,2H6.25V13.25z"/>
<path style="fill:#333333;" d="M12,11.25c-1.241,0-2.25-1.009-2.25-2.25S10.759,6.75,12,6.75c1.24,0,2.25,1.009,2.25,2.25
	S13.24,11.25,12,11.25z M12,7.25c-0.965,0-1.75,0.785-1.75,1.75s0.785,1.75,1.75,1.75S13.75,9.965,13.75,9S12.965,7.25,12,7.25z"/>
<path style="fill:#333333;" d="M10.177,21.177l-0.354-0.354l1.582-1.582C6.029,19.083,1.75,16.793,1.75,14
	c0-0.758,0.301-1.486,0.894-2.165l0.377,0.329C2.509,12.749,2.25,13.367,2.25,14c0,2.519,4.045,4.586,9.137,4.741l-1.564-1.564
	l0.354-0.354l2,2L12,19l0.177,0.177L10.177,21.177z"/>
<path style="fill:#333333;" d="M16.054,18.828l-0.107-0.488c3.525-0.771,5.804-2.474,5.804-4.34c0-0.633-0.259-1.251-0.771-1.836
	l0.377-0.329c0.593,0.678,0.894,1.407,0.894,2.165C22.25,16.111,19.817,18.006,16.054,18.828z"/>
</svg>






