<?xml version="1.0" encoding="iso-8859-1"?>
<svg version="1.1" id="&#x56FE;&#x5C42;_1" xmlns="http://www.w3.org/2000/svg" xmlns:xlink="http://www.w3.org/1999/xlink" x="0px"
	 y="0px" viewBox="0 0 24 24" style="enable-background:new 0 0 24 24;" xml:space="preserve">
<path style="fill:#333333;" d="M11.829,22.165c-0.27,0-0.537-0.018-0.801-0.054c-2.395-0.331-4.223-2.636-4.675-3.417
	c-0.145-0.25-0.273-0.523-0.382-0.812c-0.169-0.45-0.003-0.947,0.404-1.209c0.655-0.423,1.597-0.847,2.37-0.463
	c0.402,0.198,0.72,0.4,1,0.579c0.647,0.412,1.037,0.661,1.829,0.499c0.974-0.198,1.546-0.73,1.8-1.675
	c0.218-0.817-0.186-1.647-1.029-2.115c-0.98-0.544-2.071-0.252-2.477,0.361c-0.146,0.223-0.235,0.435-0.321,0.641
	c-0.199,0.474-0.386,0.922-1.166,1.186c-0.299,0.101-0.71,0.184-1.224,0.245c-0.354,0.047-0.702-0.082-0.934-0.331
	c-0.221-0.236-0.313-0.558-0.252-0.882c0.178-0.949,0.736-2.716,2.474-3.88c1.943-1.302,3.324-0.929,4.33-0.657l0.285,0.075
	l-0.121,0.485l-0.294-0.078c-0.967-0.261-2.168-0.586-3.921,0.589c-1.586,1.062-2.097,2.685-2.261,3.557
	c-0.031,0.169,0.013,0.328,0.126,0.449c0.125,0.133,0.314,0.196,0.509,0.176c0.479-0.058,0.856-0.133,1.123-0.223
	c0.565-0.191,0.684-0.476,0.864-0.905c0.09-0.216,0.193-0.461,0.366-0.723c0.592-0.897,2.029-1.137,3.136-0.523
	c1.051,0.583,1.55,1.636,1.27,2.682c-0.304,1.133-1.018,1.799-2.182,2.036c-0.987,0.201-1.522-0.138-2.198-0.567
	c-0.27-0.172-0.575-0.366-0.953-0.554c-0.592-0.289-1.431,0.148-1.878,0.436c-0.207,0.134-0.292,0.386-0.207,0.613
	c0.099,0.262,0.216,0.511,0.347,0.737c0.342,0.591,2.076,2.862,4.311,3.171c2.102,0.296,4.442-0.7,5.83-2.463
	c1.222-1.554,1.384-3.811,0.424-5.892l0.453-0.209c1.04,2.252,0.854,4.708-0.484,6.409C15.998,21.139,13.87,22.165,11.829,22.165z"
	/>
<path style="fill:#333333;" d="M13.49,14.829c-0.175-0.932-1.112-6.546-1.225-7.222c-0.277-0.336-1.744-2.125-1.973-2.468
	c-0.775-1.163-0.214-2.312,0.188-2.893c0.114-0.164,0.285-0.264,0.482-0.281c0.204-0.013,0.415,0.059,0.568,0.212l4.696,4.696
	l1.54,6.278L17.28,13.27l-1.507-6.142L11.177,2.53c-0.048-0.047-0.109-0.072-0.17-0.067c-0.048,0.004-0.087,0.027-0.115,0.068
	c-0.404,0.582-0.764,1.459-0.184,2.33c0.187,0.281,1.38,1.745,1.986,2.48l0.042,0.052l0.012,0.066
	c0.01,0.063,1.049,6.296,1.234,7.278L13.49,14.829z"/>
</svg>






