<?xml version="1.0" encoding="iso-8859-1"?>
<svg version="1.1" id="&#x56FE;&#x5C42;_1" xmlns="http://www.w3.org/2000/svg" xmlns:xlink="http://www.w3.org/1999/xlink" x="0px"
	 y="0px" viewBox="0 0 24 24" style="enable-background:new 0 0 24 24;" xml:space="preserve">
<path style="fill:#333333;" d="M12,20.25c-5.652,0-10.25-3.701-10.25-8.25S6.348,3.75,12,3.75c5.652,0,10.25,3.701,10.25,8.25
	S17.652,20.25,12,20.25z M12,4.25c-5.376,0-9.75,3.477-9.75,7.75s4.374,7.75,9.75,7.75s9.75-3.477,9.75-7.75S17.376,4.25,12,4.25z"
	/>
<path style="fill:#333333;" d="M12,14.25c-2.895,0-5.25-1.458-5.25-3.25S9.105,7.75,12,7.75c2.895,0,5.25,1.458,5.25,3.25
	S14.895,14.25,12,14.25z M12,8.25c-2.619,0-4.75,1.233-4.75,2.75s2.131,2.75,4.75,2.75s4.75-1.233,4.75-2.75S14.619,8.25,12,8.25z"
	/>
<rect x="11.75" y="4" style="fill:#333333;" width="0.5" height="4"/>
<path style="fill:#333333;" d="M16.209,9.137l-0.418-0.274C15.848,8.776,17.204,6.75,19.5,6.75v0.5
	C17.478,7.25,16.222,9.119,16.209,9.137z"/>
<path style="fill:#333333;" d="M7.777,9.112C7.738,9.036,6.808,7.25,4.5,7.25v-0.5c2.625,0,3.68,2.051,3.724,2.138L7.777,9.112z"/>
<path style="fill:#333333;" d="M5.748,18.035l-0.495-0.07c0.516-3.611,3.54-4.659,3.668-4.702l0.159,0.475
	C8.963,13.776,6.219,14.737,5.748,18.035z"/>
<path style="fill:#333333;" d="M18.251,18.018c-0.234-3.281-3.199-4.239-3.325-4.278l0.147-0.479
	c0.034,0.011,3.417,1.093,3.676,4.722L18.251,18.018z"/>
</svg>






