<?xml version="1.0" encoding="iso-8859-1"?>
<svg version="1.1" id="&#x56FE;&#x5C42;_1" xmlns="http://www.w3.org/2000/svg" xmlns:xlink="http://www.w3.org/1999/xlink" x="0px"
	 y="0px" viewBox="0 0 24 24" style="enable-background:new 0 0 24 24;" xml:space="preserve">
<path style="fill:#333333;" d="M19.5,21.25h-15c-0.965,0-1.75-0.785-1.75-1.75v-15c0-0.965,0.785-1.75,1.75-1.75h15
	c0.965,0,1.75,0.785,1.75,1.75v15C21.25,20.465,20.465,21.25,19.5,21.25z M4.5,3.25c-0.689,0-1.25,0.561-1.25,1.25v15
	c0,0.689,0.561,1.25,1.25,1.25h15c0.689,0,1.25-0.561,1.25-1.25v-15c0-0.689-0.561-1.25-1.25-1.25H4.5z"/>
<rect x="0.722" y="8.25" transform="matrix(0.7071 -0.7071 0.7071 0.7071 -3.5208 8.5)" style="fill:#333333;" width="15.556" height="0.5"/>
<rect x="7.722" y="15.25" transform="matrix(0.7071 -0.7071 0.7071 0.7071 -6.4203 15.5)" style="fill:#333333;" width="15.556" height="0.5"/>
<rect x="0.686" y="11.75" transform="matrix(0.7071 -0.7071 0.7071 0.7071 -4.9706 12)" style="fill:#333333;" width="22.627" height="0.5"/>
<rect x="7.5" y="10.275" transform="matrix(0.7071 -0.7071 0.7071 0.7071 -6.7457 9.2145)" style="fill:#333333;" width="0.5" height="4.95"/>
<rect x="16" y="8.775" transform="matrix(0.7071 -0.7071 0.7071 0.7071 -3.1954 14.7855)" style="fill:#333333;" width="0.5" height="4.95"/>
</svg>






