<?xml version="1.0" encoding="iso-8859-1"?>
<svg version="1.1" id="&#x56FE;&#x5C42;_1" xmlns="http://www.w3.org/2000/svg" xmlns:xlink="http://www.w3.org/1999/xlink" x="0px"
	 y="0px" viewBox="0 0 24 24" style="enable-background:new 0 0 24 24;" xml:space="preserve">
<path style="fill:#333333;" d="M12,13.25c-1.241,0-2.25-1.01-2.25-2.25c0-1.241,1.009-2.25,2.25-2.25c1.24,0,2.25,1.009,2.25,2.25
	C14.25,12.24,13.24,13.25,12,13.25z M12,9.25c-0.965,0-1.75,0.785-1.75,1.75s0.785,1.75,1.75,1.75s1.75-0.785,1.75-1.75
	S12.965,9.25,12,9.25z"/>
<path style="fill:#333333;" d="M12,22.75c-0.399,0-0.769-0.159-1.013-0.437c-0.44-0.498-1.141-5.125-0.413-5.951l0,0
	c0.342-0.39,0.862-0.612,1.426-0.612s1.083,0.223,1.426,0.612c0.728,0.825,0.027,5.453-0.413,5.951
	C12.77,22.591,12.4,22.75,12,22.75L12,22.75z M12,16.25c-0.42,0-0.803,0.161-1.051,0.442l0,0c-0.516,0.586,0.067,4.887,0.413,5.291
	c0.299,0.341,0.977,0.337,1.275,0c0.346-0.404,0.929-4.706,0.413-5.291C12.803,16.411,12.42,16.25,12,16.25z"/>
<path style="fill:#333333;" d="M15.642,15.45l-0.316-0.387C16.549,14.062,17.25,12.58,17.25,11c0-2.895-2.355-5.25-5.25-5.25
	c-2.895,0-5.25,2.355-5.25,5.25c0,1.58,0.702,3.061,1.925,4.063L8.358,15.45C7.019,14.353,6.25,12.73,6.25,11
	c0-3.17,2.58-5.75,5.75-5.75c3.171,0,5.75,2.58,5.75,5.75C17.75,12.73,16.981,14.353,15.642,15.45z"/>
<path style="fill:#333333;" d="M16.073,19.308l-0.221-0.449c3.021-1.484,4.897-4.495,4.897-7.858c0-4.825-3.925-8.75-8.75-8.75
	c-4.825,0-8.75,3.925-8.75,8.75c0,3.363,1.876,6.374,4.897,7.858l-0.221,0.449C4.734,17.738,2.75,14.556,2.75,11
	c0-5.101,4.149-9.25,9.25-9.25s9.25,4.149,9.25,9.25C21.25,14.556,19.267,17.738,16.073,19.308z"/>
</svg>






