<?xml version="1.0" encoding="iso-8859-1"?>
<svg version="1.1" id="&#x56FE;&#x5C42;_1" xmlns="http://www.w3.org/2000/svg" xmlns:xlink="http://www.w3.org/1999/xlink" x="0px"
	 y="0px" viewBox="0 0 24 24" style="enable-background:new 0 0 24 24;" xml:space="preserve">
<path style="fill:#333333;" d="M20.5,21.25h-17c-0.689,0-1.25-0.561-1.25-1.25V4c0-0.689,0.561-1.25,1.25-1.25h6.117l2.5,3H20.5
	c0.689,0,1.25,0.561,1.25,1.25v13C21.75,20.689,21.189,21.25,20.5,21.25z M3.5,3.25C3.086,3.25,2.75,3.586,2.75,4v16
	c0,0.413,0.336,0.75,0.75,0.75h17c0.413,0,0.75-0.337,0.75-0.75V7c0-0.414-0.337-0.75-0.75-0.75h-8.617l-2.5-3H3.5z"/>
<path style="fill:#333333;" d="M12,16.893l-3.822-4.625l1.601-2.018h4.441l1.601,2.018L12,16.893z M8.822,12.262L12,16.107
	l3.179-3.846l-1.2-1.512h-3.958L8.822,12.262z"/>
</svg>






