<?xml version="1.0" encoding="iso-8859-1"?>
<svg version="1.1" id="&#x56FE;&#x5C42;_1" xmlns="http://www.w3.org/2000/svg" xmlns:xlink="http://www.w3.org/1999/xlink" x="0px"
	 y="0px" viewBox="0 0 24 24" style="enable-background:new 0 0 24 24;" xml:space="preserve">
<path style="fill:#333333;" d="M20.5,21.25h-17c-0.689,0-1.25-0.561-1.25-1.25V4c0-0.689,0.561-1.25,1.25-1.25h6.117l2.5,3H20.5
	c0.689,0,1.25,0.561,1.25,1.25v13C21.75,20.689,21.189,21.25,20.5,21.25z M3.5,3.25C3.086,3.25,2.75,3.586,2.75,4v16
	c0,0.413,0.336,0.75,0.75,0.75h17c0.413,0,0.75-0.337,0.75-0.75V7c0-0.414-0.337-0.75-0.75-0.75h-8.617l-2.5-3H3.5z"/>
<path style="fill:#333333;" d="M12,16.25c-1.241,0-2.25-1.01-2.25-2.25s1.009-2.25,2.25-2.25c1.24,0,2.25,1.01,2.25,2.25
	S13.24,16.25,12,16.25z M12,12.25c-0.965,0-1.75,0.785-1.75,1.75s0.785,1.75,1.75,1.75s1.75-0.785,1.75-1.75S12.965,12.25,12,12.25z
	"/>
<rect x="11.75" y="10.5" style="fill:#333333;" width="0.5" height="1.5"/>
<rect x="11.75" y="16" style="fill:#333333;" width="0.5" height="1.5"/>
<rect x="13.134" y="11.78" transform="matrix(0.7071 -0.7071 0.7071 0.7071 -4.4402 13.3409)" style="fill:#333333;" width="1.5" height="0.5"/>
<rect x="9.134" y="15.78" transform="matrix(0.7071 -0.7071 0.7071 0.7071 -8.4402 11.6841)" style="fill:#333333;" width="1.5" height="0.5"/>
<rect x="9.78" y="11.28" transform="matrix(0.7071 -0.7071 0.7071 0.7071 -5.5689 10.6161)" style="fill:#333333;" width="0.5" height="1.5"/>
<rect x="13.78" y="15.28" transform="matrix(0.7071 -0.7071 0.7071 0.7071 -7.2257 14.6161)" style="fill:#333333;" width="0.5" height="1.5"/>
<rect x="8.5" y="13.75" style="fill:#333333;" width="1.5" height="0.5"/>
<rect x="14" y="13.75" style="fill:#333333;" width="1.5" height="0.5"/>
</svg>






