<?xml version="1.0" encoding="iso-8859-1"?>
<svg version="1.1" id="&#x56FE;&#x5C42;_1" xmlns="http://www.w3.org/2000/svg" xmlns:xlink="http://www.w3.org/1999/xlink" x="0px"
	 y="0px" viewBox="0 0 24 24" style="enable-background:new 0 0 24 24;" xml:space="preserve">
<path style="fill:#333333;" d="M20.5,21.25h-17c-0.689,0-1.25-0.561-1.25-1.25V4c0-0.689,0.561-1.25,1.25-1.25h6.117l2.5,3H20.5
	c0.689,0,1.25,0.561,1.25,1.25v13C21.75,20.689,21.189,21.25,20.5,21.25z M3.5,3.25C3.086,3.25,2.75,3.586,2.75,4v16
	c0,0.413,0.336,0.75,0.75,0.75h17c0.413,0,0.75-0.337,0.75-0.75V7c0-0.414-0.337-0.75-0.75-0.75h-8.617l-2.5-3H3.5z"/>
<path style="fill:#333333;" d="M12,17.294l-0.132-0.082C11.741,17.133,8.75,15.229,8.75,11.4c0-0.161,0-0.65,3.176-1.639L12,9.738
	l0.074,0.023c3.176,0.988,3.176,1.478,3.176,1.639c0,3.829-2.99,5.733-3.118,5.812L12,17.294z M9.25,11.434
	c0.016,3.08,2.186,4.854,2.75,5.263c0.565-0.41,2.75-2.195,2.75-5.296c-0.128-0.188-1.513-0.748-2.75-1.138
	C10.789,10.644,9.436,11.19,9.25,11.434z"/>
</svg>






