<?xml version="1.0" encoding="iso-8859-1"?>
<svg version="1.1" id="&#x56FE;&#x5C42;_1" xmlns="http://www.w3.org/2000/svg" xmlns:xlink="http://www.w3.org/1999/xlink" x="0px"
	 y="0px" viewBox="0 0 24 24" style="enable-background:new 0 0 24 24;" xml:space="preserve">
<path style="fill:#333333;" d="M11,21.25H3.5c-0.689,0-1.25-0.561-1.25-1.25V4c0-0.689,0.561-1.25,1.25-1.25h6.117l2.5,3H20.5
	c0.689,0,1.25,0.561,1.25,1.25v4.5h-0.5V7c0-0.414-0.337-0.75-0.75-0.75h-8.617l-2.5-3H3.5C3.086,3.25,2.75,3.586,2.75,4v16
	c0,0.413,0.336,0.75,0.75,0.75H11V21.25z"/>
<polygon style="fill:#333333;" points="15.823,21.677 13.146,19 15.823,16.323 16.177,16.677 13.854,19 16.177,21.323 "/>
<polygon style="fill:#333333;" points="21.75,19.25 13.5,19.25 13.5,18.75 21.25,18.75 21.25,15 21.75,15 "/>
</svg>






