<?xml version="1.0" encoding="iso-8859-1"?>
<svg version="1.1" id="&#x56FE;&#x5C42;_1" xmlns="http://www.w3.org/2000/svg" xmlns:xlink="http://www.w3.org/1999/xlink" x="0px"
	 y="0px" viewBox="0 0 24 24" style="enable-background:new 0 0 24 24;" xml:space="preserve">
<path style="fill:#333333;" d="M11,21.25H3.5c-0.689,0-1.25-0.561-1.25-1.25V4c0-0.689,0.561-1.25,1.25-1.25h6.117l2.5,3H20.5
	c0.689,0,1.25,0.561,1.25,1.25v4.5h-0.5V7c0-0.414-0.337-0.75-0.75-0.75h-8.617l-2.5-3H3.5C3.086,3.25,2.75,3.586,2.75,4v16
	c0,0.413,0.336,0.75,0.75,0.75H11V21.25z"/>
<polygon style="fill:#333333;" points="19.177,19.677 18.823,19.323 21.146,17 18.823,14.677 19.177,14.323 21.854,17 "/>
<polygon style="fill:#333333;" points="14.823,19.677 12.146,17 14.823,14.323 15.177,14.677 12.854,17 15.177,19.323 "/>
</svg>






