<?xml version="1.0" encoding="iso-8859-1"?>
<svg version="1.1" id="&#x56FE;&#x5C42;_1" xmlns="http://www.w3.org/2000/svg" xmlns:xlink="http://www.w3.org/1999/xlink" x="0px"
	 y="0px" viewBox="0 0 24 24" style="enable-background:new 0 0 24 24;" xml:space="preserve">
<path style="fill:#333333;" d="M8,21.75H3c-0.414,0-0.75-0.337-0.75-0.75V3c0-0.414,0.336-0.75,0.75-0.75h5
	c0.414,0,0.75,0.336,0.75,0.75v18C8.75,21.413,8.414,21.75,8,21.75z M3,2.75C2.862,2.75,2.75,2.862,2.75,3v18
	c0,0.138,0.112,0.25,0.25,0.25h5c0.138,0,0.25-0.112,0.25-0.25V3c0-0.138-0.112-0.25-0.25-0.25H3z"/>
<circle style="fill:#333333;" cx="5.5" cy="17.5" r="1"/>
<rect x="5.25" y="5.5" style="fill:#333333;" width="0.5" height="7"/>
<path style="fill:#333333;" d="M15.861,20.645c-0.334,0-0.641-0.226-0.728-0.562L11.384,5.55c-0.05-0.195-0.021-0.397,0.082-0.571
	c0.103-0.173,0.268-0.295,0.463-0.344l5.03-1.258c0.398-0.101,0.806,0.144,0.908,0.541l3.75,14.531
	c0.05,0.195,0.021,0.398-0.082,0.571c-0.103,0.173-0.267,0.295-0.462,0.344l-5.03,1.258C15.981,20.638,15.921,20.645,15.861,20.645z
	 M17.14,3.855c-0.021,0-0.04,0.002-0.061,0.007L12.05,5.121c-0.065,0.016-0.12,0.057-0.155,0.115
	c-0.034,0.058-0.044,0.125-0.027,0.19l3.75,14.532c0.034,0.133,0.171,0.211,0.303,0.181l5.03-1.258
	c0.064-0.017,0.119-0.058,0.153-0.115s0.044-0.125,0.027-0.19l-3.75-14.531C17.354,3.931,17.251,3.855,17.14,3.855z"/>
<circle style="fill:#333333;" cx="17.5" cy="16" r="1"/>
<rect x="15.875" y="7.923" transform="matrix(0.9701 -0.2425 0.2425 0.9701 -2.0652 4.2244)" style="fill:#333333;" width="0.499" height="5.154"/>
</svg>






