<?xml version="1.0" encoding="iso-8859-1"?>
<svg version="1.1" id="&#x56FE;&#x5C42;_1" xmlns="http://www.w3.org/2000/svg" xmlns:xlink="http://www.w3.org/1999/xlink" x="0px"
	 y="0px" viewBox="0 0 24 24" style="enable-background:new 0 0 24 24;" xml:space="preserve">
<path style="fill:#333333;" d="M19.5,22.25h-15c-0.689,0-1.25-0.561-1.25-1.25V3c0-0.689,0.561-1.25,1.25-1.25h15
	c0.689,0,1.25,0.561,1.25,1.25v18C20.75,21.689,20.189,22.25,19.5,22.25z M4.5,2.25C4.086,2.25,3.75,2.586,3.75,3v18
	c0,0.413,0.336,0.75,0.75,0.75h15c0.413,0,0.75-0.337,0.75-0.75V3c0-0.414-0.337-0.75-0.75-0.75H4.5z"/>
<rect x="8" y="14.25" style="fill:#333333;" width="2" height="0.5"/>
<rect x="8" y="17.25" style="fill:#333333;" width="5" height="0.5"/>
<path style="fill:#333333;" d="M12,9.25c-6.233,0-8.221-6.614-8.24-6.681L4.24,2.43C4.258,2.494,6.146,8.75,12,8.75
	c5.854,0,7.741-6.256,7.76-6.32l0.48,0.139C20.221,2.636,18.233,9.25,12,9.25z"/>
<path style="fill:#333333;" d="M12,11.25c-1.241,0-2.25-1.009-2.25-2.25S10.759,6.75,12,6.75c1.24,0,2.25,1.009,2.25,2.25
	S13.24,11.25,12,11.25z M12,7.25c-0.965,0-1.75,0.785-1.75,1.75s0.785,1.75,1.75,1.75S13.75,9.965,13.75,9S12.965,7.25,12,7.25z"/>
<path style="fill:#333333;" d="M3.75,6h-0.5V3c0-0.689,0.561-1.25,1.25-1.25h3v0.5h-3C4.086,2.25,3.75,2.586,3.75,3V6z"/>
<path style="fill:#333333;" d="M20.75,6h-0.5V3c0-0.414-0.337-0.75-0.75-0.75h-3v-0.5h3c0.689,0,1.25,0.561,1.25,1.25V6z"/>
</svg>






