<?xml version="1.0" encoding="iso-8859-1"?>
<svg version="1.1" id="&#x56FE;&#x5C42;_1" xmlns="http://www.w3.org/2000/svg" xmlns:xlink="http://www.w3.org/1999/xlink" x="0px"
	 y="0px" viewBox="0 0 24 24" style="enable-background:new 0 0 24 24;" xml:space="preserve">
<path style="fill:#333333;" d="M11,21.25H3.5c-0.689,0-1.25-0.561-1.25-1.25V4c0-0.689,0.561-1.25,1.25-1.25h6.117l2.5,3H20.5
	c0.689,0,1.25,0.561,1.25,1.25v4.5h-0.5V7c0-0.414-0.337-0.75-0.75-0.75h-8.617l-2.5-3H3.5C3.086,3.25,2.75,3.586,2.75,4v16
	c0,0.413,0.336,0.75,0.75,0.75H11V21.25z"/>
<path style="fill:#333333;" d="M21.75,21.25h-7.5v-4.5h7.5V21.25z M14.75,20.75h6.5v-3.5h-6.5V20.75z"/>
<path style="fill:#333333;" d="M19.75,17h-0.5v-1.5c0-0.689-0.561-1.25-1.25-1.25s-1.25,0.561-1.25,1.25V17h-0.5v-1.5
	c0-0.965,0.785-1.75,1.75-1.75s1.75,0.785,1.75,1.75V17z"/>
</svg>






