<?xml version="1.0" encoding="iso-8859-1"?>
<svg version="1.1" id="&#x56FE;&#x5C42;_1" xmlns="http://www.w3.org/2000/svg" xmlns:xlink="http://www.w3.org/1999/xlink" x="0px"
	 y="0px" viewBox="0 0 24 24" style="enable-background:new 0 0 24 24;" xml:space="preserve">
<path style="fill:#333333;" d="M11,21.25H3.5c-0.689,0-1.25-0.561-1.25-1.25V4c0-0.689,0.561-1.25,1.25-1.25h6.117l2.5,3H20.5
	c0.689,0,1.25,0.561,1.25,1.25v4.5h-0.5V7c0-0.414-0.337-0.75-0.75-0.75h-8.617l-2.5-3H3.5C3.086,3.25,2.75,3.586,2.75,4v16
	c0,0.413,0.336,0.75,0.75,0.75H11V21.25z"/>
<path style="fill:#333333;" d="M17.5,19.75c-1.24,0-2.25-1.01-2.25-2.25s1.01-2.25,2.25-2.25s2.25,1.01,2.25,2.25
	S18.74,19.75,17.5,19.75z M17.5,15.75c-0.965,0-1.75,0.785-1.75,1.75s0.785,1.75,1.75,1.75s1.75-0.785,1.75-1.75
	S18.465,15.75,17.5,15.75z"/>
<rect x="17.25" y="14" style="fill:#333333;" width="0.5" height="1.5"/>
<rect x="17.25" y="19.5" style="fill:#333333;" width="0.5" height="1.5"/>
<rect x="18.634" y="15.28" transform="matrix(0.7071 -0.7071 0.7071 0.7071 -5.3042 18.2551)" style="fill:#333333;" width="1.5" height="0.5"/>
<rect x="14.634" y="19.28" transform="matrix(0.7071 -0.7071 0.7071 0.7071 -9.3042 16.5983)" style="fill:#333333;" width="1.5" height="0.5"/>
<rect x="15.28" y="14.78" transform="matrix(0.7071 -0.7071 0.7071 0.7071 -6.4328 15.5303)" style="fill:#333333;" width="0.5" height="1.5"/>
<rect x="19.28" y="18.78" transform="matrix(0.7071 -0.7071 0.7071 0.7071 -8.0897 19.5303)" style="fill:#333333;" width="0.5" height="1.5"/>
<rect x="14" y="17.25" style="fill:#333333;" width="1.5" height="0.5"/>
<rect x="19.5" y="17.25" style="fill:#333333;" width="1.5" height="0.5"/>
</svg>






