<?xml version="1.0" encoding="iso-8859-1"?>
<svg version="1.1" id="&#x56FE;&#x5C42;_1" xmlns="http://www.w3.org/2000/svg" xmlns:xlink="http://www.w3.org/1999/xlink" x="0px"
	 y="0px" viewBox="0 0 24 24" style="enable-background:new 0 0 24 24;" xml:space="preserve">
<path style="fill:#333333;" d="M11,21.25H3.5c-0.689,0-1.25-0.561-1.25-1.25V4c0-0.689,0.561-1.25,1.25-1.25h6.117l2.5,3H20.5
	c0.689,0,1.25,0.561,1.25,1.25v4.5h-0.5V7c0-0.414-0.337-0.75-0.75-0.75h-8.617l-2.5-3H3.5C3.086,3.25,2.75,3.586,2.75,4v16
	c0,0.413,0.336,0.75,0.75,0.75H11V21.25z"/>
<path style="fill:#333333;" d="M19.729,20.954L17.5,19.695l-2.229,1.259l-0.368-0.268l0.509-2.508l-1.886-1.73l0.141-0.433
	l2.543-0.292l1.062-2.327h0.455l1.062,2.327l2.543,0.292l0.141,0.433l-1.886,1.73l0.509,2.508L19.729,20.954z M17.5,19.121
	l1.998,1.128l-0.457-2.248l1.691-1.552l-2.28-0.261L17.5,14.103l-0.952,2.086l-2.28,0.261l1.691,1.552l-0.457,2.248L17.5,19.121z"/>
</svg>






