<?xml version="1.0" encoding="iso-8859-1"?>
<svg version="1.1" id="&#x56FE;&#x5C42;_1" xmlns="http://www.w3.org/2000/svg" xmlns:xlink="http://www.w3.org/1999/xlink" x="0px"
	 y="0px" viewBox="0 0 24 24" style="enable-background:new 0 0 24 24;" xml:space="preserve">
<path style="fill:#333333;" d="M2.243,20.561L1.75,20.5v-16c0-0.689,0.561-1.25,1.25-1.25h6.617l2.5,3h6.633
	C19.439,6.25,20,6.811,20,7.5v3.25H4.695L2.243,20.561z M3,3.75c-0.414,0-0.75,0.336-0.75,0.75v13.969l2.055-8.219H19.5V7.5
	c0-0.414-0.337-0.75-0.75-0.75h-6.867l-2.5-3H3z"/>
<path style="fill:#333333;" d="M20.205,20.75H1.683l2.527-10.5h18.095L20.205,20.75z M2.317,20.25h17.478l1.9-9.5H4.603L2.317,20.25
	z"/>
</svg>






