<?xml version="1.0" encoding="iso-8859-1"?>
<svg version="1.1" id="&#x56FE;&#x5C42;_1" xmlns="http://www.w3.org/2000/svg" xmlns:xlink="http://www.w3.org/1999/xlink" x="0px"
	 y="0px" viewBox="0 0 24 24" style="enable-background:new 0 0 24 24;" xml:space="preserve">
<path style="fill:#333333;" d="M11.417,20.167c-4.825,0-8.75-3.925-8.75-8.75s3.925-8.75,8.75-8.75s8.75,3.925,8.75,8.75
	S16.242,20.167,11.417,20.167z M11.417,3.167c-4.549,0-8.25,3.701-8.25,8.25c0,4.548,3.701,8.25,8.25,8.25
	c4.548,0,8.25-3.701,8.25-8.25C19.667,6.869,15.966,3.167,11.417,3.167z"/>
<rect x="18.75" y="16.879" transform="matrix(0.7071 -0.7071 0.7071 0.7071 -7.8701 19)" style="fill:#333333;" width="0.5" height="4.243"/>
<rect x="11.25" y="8.5" style="fill:#333333;" width="0.5" height="7"/>
<rect x="9" y="8.25" style="fill:#333333;" width="5" height="0.5"/>
</svg>






