<?xml version="1.0" encoding="iso-8859-1"?>
<svg version="1.1" id="&#x56FE;&#x5C42;_1" xmlns="http://www.w3.org/2000/svg" xmlns:xlink="http://www.w3.org/1999/xlink" x="0px"
	 y="0px" viewBox="0 0 24 24" style="enable-background:new 0 0 24 24;" xml:space="preserve">
<path style="fill:#333333;" d="M5.192,22.25c-0.956,0-1.661-0.232-2.093-0.698c-1.128-1.217-0.861-2.123-0.693-2.456
	c0.269-0.535,0.867-0.868,1.465-0.798c1.593,0.173,2.425-0.054,2.646-0.197c3.907-1.748,3.749-9.541,2.739-14.046l0.488-0.109
	c1.044,4.66,1.156,12.742-2.988,14.593c-0.344,0.229-1.324,0.435-2.938,0.256c-0.394-0.036-0.788,0.174-0.965,0.526
	c-0.255,0.507-0.032,1.196,0.613,1.892c0.498,0.538,1.586,0.675,3.144,0.396l3.896-0.004c0.877,0,2.415-1.202,3.874-3.887
	c0.621-0.875,2.293-2.534,4.288-2.73c0.656-0.043,1.541-0.351,2.082-1.084c0.518-0.703,0.635-1.666,0.348-2.863
	c-0.632-1.471-1.684-2.96-2.702-4.4c-1.142-1.615-2.22-3.141-2.636-4.57l0.48-0.14c0.393,1.348,1.447,2.841,2.563,4.421
	c1.033,1.461,2.102,2.973,2.767,4.533c0.337,1.387,0.191,2.489-0.418,3.315c-0.643,0.872-1.684,1.236-2.443,1.286
	c-1.808,0.179-3.346,1.711-3.906,2.497c-1.646,3.032-3.301,4.122-4.297,4.122H6.654C6.116,22.201,5.628,22.25,5.192,22.25z"/>
</svg>






