<?xml version="1.0" encoding="iso-8859-1"?>
<svg version="1.1" id="&#x56FE;&#x5C42;_1" xmlns="http://www.w3.org/2000/svg" xmlns:xlink="http://www.w3.org/1999/xlink" x="0px"
	 y="0px" viewBox="0 0 24 24" style="enable-background:new 0 0 24 24;" xml:space="preserve">
<path style="fill:#333333;" d="M12,22.25C6.348,22.25,1.75,17.652,1.75,12C1.75,6.348,6.348,1.75,12,1.75
	c5.652,0,10.25,4.598,10.25,10.25C22.25,17.652,17.652,22.25,12,22.25z M12,2.25c-5.376,0-9.75,4.374-9.75,9.75
	s4.374,9.75,9.75,9.75s9.75-4.374,9.75-9.75S17.376,2.25,12,2.25z"/>
<polygon style="fill:#333333;" points="15.866,10.946 11.784,7.73 11.784,5.302 14.899,3.047 15.192,3.453 12.284,5.557 
	12.284,7.488 15.948,10.374 17.861,9.598 19.114,6.214 19.583,6.388 18.254,9.979 "/>
<polygon style="fill:#333333;" points="8.203,10.946 5.815,9.979 4.486,6.388 4.955,6.214 6.208,9.598 8.122,10.374 11.784,7.488 
	11.784,5.557 8.876,3.453 9.169,3.047 12.284,5.302 12.284,7.73 "/>
<polygon style="fill:#333333;" points="8.289,17.448 4.291,17.448 4.291,16.948 8.037,16.948 9.181,15.403 7.954,10.845 
	6.015,10.06 3.1,11.326 2.9,10.867 6.008,9.518 8.372,10.475 9.727,15.507 "/>
<polygon style="fill:#333333;" points="16.157,20.25 15.657,20.25 15.657,17.28 14.49,15.705 9.579,15.705 8.413,17.28 8.413,20.25 
	7.913,20.25 7.913,17.116 9.327,15.205 14.742,15.205 16.157,17.116 "/>
<polygon style="fill:#333333;" points="19.779,17.448 15.781,17.448 14.344,15.507 15.698,10.475 18.069,9.514 21.613,11.309 
	21.387,11.755 18.046,10.063 16.116,10.845 14.889,15.403 16.033,16.948 19.779,16.948 "/>
</svg>






