<?xml version="1.0" encoding="iso-8859-1"?>
<svg version="1.1" id="&#x56FE;&#x5C42;_1" xmlns="http://www.w3.org/2000/svg" xmlns:xlink="http://www.w3.org/1999/xlink" x="0px"
	 y="0px" viewBox="0 0 24 24" style="enable-background:new 0 0 24 24;" xml:space="preserve">
<path style="fill:#333333;" d="M18.5,6.25c-1.24,0-2.25-1.009-2.25-2.25s1.01-2.25,2.25-2.25S20.75,2.759,20.75,4
	S19.74,6.25,18.5,6.25z M18.5,2.25c-0.965,0-1.75,0.785-1.75,1.75s0.785,1.75,1.75,1.75S20.25,4.965,20.25,4S19.465,2.25,18.5,2.25z
	"/>
<path style="fill:#333333;" d="M5.5,6.25C4.259,6.25,3.25,5.241,3.25,4S4.259,1.75,5.5,1.75S7.75,2.759,7.75,4S6.741,6.25,5.5,6.25z
	 M5.5,2.25C4.535,2.25,3.75,3.035,3.75,4S4.535,5.75,5.5,5.75S7.25,4.965,7.25,4S6.465,2.25,5.5,2.25z"/>
<path style="fill:#333333;" d="M12,22.25c-1.241,0-2.25-1.01-2.25-2.25s1.009-2.25,2.25-2.25c1.24,0,2.25,1.01,2.25,2.25
	S13.24,22.25,12,22.25z M12,18.25c-0.965,0-1.75,0.785-1.75,1.75s0.785,1.75,1.75,1.75s1.75-0.785,1.75-1.75S12.965,18.25,12,18.25z
	"/>
<path style="fill:#333333;" d="M12.25,18h-0.5v-2c0-1.627-1.531-2.805-3.152-4.052C6.952,10.682,5.25,9.373,5.25,7.5V6h0.5v1.5
	c0,1.627,1.531,2.805,3.152,4.052c1.266,0.974,2.565,1.974,3.098,3.236c0.532-1.263,1.831-2.263,3.098-3.236
	c1.621-1.247,3.152-2.425,3.152-4.052V6h0.5v1.5c0,1.873-1.702,3.182-3.348,4.448C13.781,13.195,12.25,14.373,12.25,16V18z"/>
</svg>






