<?xml version="1.0" encoding="iso-8859-1"?>
<svg version="1.1" id="&#x56FE;&#x5C42;_1" xmlns="http://www.w3.org/2000/svg" xmlns:xlink="http://www.w3.org/1999/xlink" x="0px"
	 y="0px" viewBox="0 0 24 24" style="enable-background:new 0 0 24 24;" xml:space="preserve">
<rect x="6.75" y="2" style="fill:#333333;" width="0.5" height="20"/>
<path style="fill:#333333;" d="M7,10.25c-1.124,0-3.25-0.575-3.25-2.75v-5h0.5v5c0,2.225,2.638,2.25,2.75,2.25
	c0.112,0,2.75-0.032,2.75-2.25v-5h0.5v5C10.25,9.675,8.124,10.25,7,10.25z"/>
<rect x="16.75" y="10" style="fill:#333333;" width="0.5" height="12"/>
<path style="fill:#333333;" d="M17,10.25c-1.792,0-3.25-1.907-3.25-4.25S15.208,1.75,17,1.75S20.25,3.657,20.25,6
	S18.792,10.25,17,10.25z M17,2.25c-1.517,0-2.75,1.682-2.75,3.75S15.483,9.75,17,9.75S19.75,8.068,19.75,6S18.517,2.25,17,2.25z"/>
</svg>






