<?xml version="1.0" encoding="iso-8859-1"?>
<svg version="1.1" id="&#x56FE;&#x5C42;_1" xmlns="http://www.w3.org/2000/svg" xmlns:xlink="http://www.w3.org/1999/xlink" x="0px"
	 y="0px" viewBox="0 0 24 24" style="enable-background:new 0 0 24 24;" xml:space="preserve">
<path style="fill:#333333;" d="M21,20.25H3c-0.689,0-1.25-0.561-1.25-1.25V5c0-0.689,0.561-1.25,1.25-1.25h18
	c0.689,0,1.25,0.561,1.25,1.25v14C22.25,19.689,21.689,20.25,21,20.25z M3,4.25C2.586,4.25,2.25,4.586,2.25,5v14
	c0,0.413,0.336,0.75,0.75,0.75h18c0.413,0,0.75-0.337,0.75-0.75V5c0-0.414-0.337-0.75-0.75-0.75H3z"/>
<path style="fill:none;" d="M2,14.5h20H2z"/>
<rect x="2" y="14.25" style="fill:#333333;" width="20" height="0.5"/>
<path style="fill:none;" d="M2,9.5h20H2z"/>
<rect x="2" y="9.25" style="fill:#333333;" width="20" height="0.5"/>
<path style="fill:none;" d="M8.5,20V9.5V20z"/>
<rect x="8.25" y="9.5" style="fill:#333333;" width="0.5" height="10.5"/>
<path style="fill:none;" d="M2,19V8.5V19z"/>
<rect x="1.75" y="8.5" style="fill:#333333;" width="0.5" height="10.5"/>
<path style="fill:none;" d="M22,19V8.5V19z"/>
<rect x="21.75" y="8.5" style="fill:#333333;" width="0.5" height="10.5"/>
<path style="fill:none;" d="M15.5,20V9.5V20z"/>
<rect x="15.25" y="9.5" style="fill:#333333;" width="0.5" height="10.5"/>
<rect x="4.5" y="19.75" style="fill:#333333;" width="15" height="0.5"/>
</svg>






