<?xml version="1.0" encoding="iso-8859-1"?>
<svg version="1.1" id="&#x56FE;&#x5C42;_1" xmlns="http://www.w3.org/2000/svg" xmlns:xlink="http://www.w3.org/1999/xlink" x="0px"
	 y="0px" viewBox="0 0 24 24" style="enable-background:new 0 0 24 24;" xml:space="preserve">
<path style="fill:#333333;" d="M13.5,22.25h-4c-3.213,0-3.25-3.218-3.25-3.25V9.5c0-0.689,0.561-1.25,1.25-1.25h8
	c0.689,0,1.25,0.561,1.25,1.25V19C16.75,19.032,16.713,22.25,13.5,22.25z M7.5,8.75c-0.414,0-0.75,0.336-0.75,0.75V19
	c0,0.112,0.041,2.75,2.75,2.75h4c2.709,0,2.75-2.638,2.75-2.75V9.5c0-0.414-0.337-0.75-0.75-0.75H7.5z"/>
<path style="fill:#333333;" d="M14.25,8.75h-5.5v-3h5.5V8.75z M9.25,8.25h4.5v-2h-4.5V8.25z"/>
<path style="fill:#333333;" d="M14.25,6.25h-0.5V5c0-1.337,1.35-2.243,2.415-2.75H12c-1.323,0-2.75,0.86-2.75,2.25V6h-0.5V4.5
	c0-1.699,1.687-2.75,3.25-2.75h5.5l0.068,0.49C17.535,2.25,14.25,3.212,14.25,5V6.25z"/>
</svg>






