<?xml version="1.0" encoding="iso-8859-1"?>
<svg version="1.1" id="&#x56FE;&#x5C42;_1" xmlns="http://www.w3.org/2000/svg" xmlns:xlink="http://www.w3.org/1999/xlink" x="0px"
	 y="0px" viewBox="0 0 24 24" style="enable-background:new 0 0 24 24;" xml:space="preserve">
<polygon style="fill:#333333;" points="10,20.25 3.75,20.25 3.75,14 4.25,14 4.25,19.75 10,19.75 "/>
<polygon style="fill:#333333;" points="20.25,20.25 14,20.25 14,19.75 19.75,19.75 19.75,14 20.25,14 "/>
<polygon style="fill:#333333;" points="20.25,10 19.75,10 19.75,4.25 14,4.25 14,3.75 20.25,3.75 "/>
<polygon style="fill:#333333;" points="4.25,10 3.75,10 3.75,3.75 10,3.75 10,4.25 4.25,4.25 "/>
<path style="fill:#333333;" d="M22.25,14.25h-4.5v-4.5h4.5V14.25z M18.25,13.75h3.5v-3.5h-3.5V13.75z"/>
<path style="fill:#333333;" d="M6.25,14.25h-4.5v-4.5h4.5V14.25z M2.25,13.75h3.5v-3.5h-3.5V13.75z"/>
<path style="fill:#333333;" d="M14.25,22.25h-4.5v-4.5h4.5V22.25z M10.25,21.75h3.5v-3.5h-3.5V21.75z"/>
<path style="fill:#333333;" d="M14.25,6.25h-4.5v-4.5h4.5V6.25z M10.25,5.75h3.5v-3.5h-3.5V5.75z"/>
<rect x="11.75" y="9" style="fill:#333333;" width="0.5" height="6"/>
<rect x="9" y="11.75" style="fill:#333333;" width="6" height="0.5"/>
<rect x="16.75" y="2.757" transform="matrix(0.7071 -0.7071 0.7071 0.7071 0.0294 14.0711)" style="fill:#333333;" width="0.5" height="8.485"/>
<rect x="2.757" y="6.75" transform="matrix(0.7071 -0.7071 0.7071 0.7071 -2.8995 7)" style="fill:#333333;" width="8.485" height="0.5"/>
<rect x="6.75" y="12.757" transform="matrix(0.7071 -0.7071 0.7071 0.7071 -9.9706 9.9289)" style="fill:#333333;" width="0.5" height="8.485"/>
<rect x="13.18" y="16.75" transform="matrix(0.6752 -0.7376 0.7376 0.6752 -6.937 18.246)" style="fill:#333333;" width="8.139" height="0.5"/>
</svg>






