<?xml version="1.0" encoding="iso-8859-1"?>
<svg version="1.1" id="&#x56FE;&#x5C42;_1" xmlns="http://www.w3.org/2000/svg" xmlns:xlink="http://www.w3.org/1999/xlink" x="0px"
	 y="0px" viewBox="0 0 24 24" style="enable-background:new 0 0 24 24;" xml:space="preserve">
<path style="fill:#333333;" d="M14.177,10.177l-0.354-0.354l1.35-1.35c-0.415-0.613-1.593-2.654-0.386-4.604
	c1.863-3.009,7.035-2.152,7.256-2.115L22,2l0.246-0.042c0.038,0.219,0.894,5.393-2.114,7.255c-1.953,1.209-3.992,0.03-4.605-0.386
	L14.177,10.177z M15.89,8.464c0.622,0.396,2.379,1.314,3.979,0.323c2.215-1.371,2.08-4.937,1.948-6.25L15.89,8.464z M20.205,2.122
	c-1.626,0-3.948,0.323-4.992,2.01c-0.995,1.608-0.074,3.358,0.322,3.98l5.927-5.927C21.15,2.153,20.712,2.122,20.205,2.122z"/>
<path style="fill:#333333;" d="M20.174,22.387c-1.734,0-4.215-0.363-5.387-2.255c-1.207-1.951-0.029-3.992,0.386-4.605l-1.35-1.35
	l0.354-0.354l1.35,1.35c0.612-0.415,2.651-1.595,4.605-0.386c3.008,1.862,2.152,7.036,2.114,7.256l-0.154,0.049l-0.049,0.154
	C21.961,22.261,21.197,22.387,20.174,22.387z M15.536,15.89c-0.396,0.622-1.315,2.376-0.323,3.979
	c1.37,2.215,4.933,2.078,6.25,1.948L15.536,15.89z M15.889,15.535l5.927,5.927c0.132-1.313,0.265-4.88-1.947-6.249
	C18.263,14.216,16.511,15.139,15.889,15.535z"/>
<path style="fill:#333333;" d="M9.955,10.177l-1.35-1.35C7.993,9.242,5.952,10.422,4,9.212C0.992,7.35,1.848,2.177,1.885,1.958
	L2.04,1.908l0.049-0.155c0.22-0.036,5.394-0.892,7.255,2.115c1.208,1.951,0.03,3.992-0.386,4.604l1.35,1.35L9.955,10.177z
	 M2.316,2.538c-0.132,1.314-0.264,4.88,1.947,6.25c1.607,0.995,3.358,0.074,3.98-0.323L2.316,2.538z M2.669,2.184l5.927,5.927
	c0.396-0.623,1.315-2.376,0.323-3.979C7.548,1.917,3.981,2.052,2.669,2.184z"/>
<path style="fill:#333333;" d="M3.958,22.387c-1.023,0-1.787-0.126-1.869-0.141L2.04,22.092l-0.155-0.049
	C1.848,21.823,0.992,16.649,4,14.787c1.952-1.206,3.992-0.029,4.604,0.386l1.35-1.35l0.354,0.354l-1.35,1.35
	c0.416,0.613,1.593,2.654,0.386,4.605C8.173,22.023,5.693,22.387,3.958,22.387z M2.669,21.815c1.314,0.132,4.881,0.266,6.25-1.947
	c0.995-1.607,0.074-3.357-0.323-3.979L2.669,21.815z M5.845,14.768c-0.513,0-1.055,0.119-1.582,0.445
	c-2.214,1.371-2.08,4.937-1.948,6.25l5.927-5.927C7.824,15.27,6.895,14.768,5.845,14.768z"/>
</svg>






