<?xml version="1.0" encoding="iso-8859-1"?>
<svg version="1.1" id="&#x56FE;&#x5C42;_1" xmlns="http://www.w3.org/2000/svg" xmlns:xlink="http://www.w3.org/1999/xlink" x="0px"
	 y="0px" viewBox="0 0 24 24" style="enable-background:new 0 0 24 24;" xml:space="preserve">
<polygon style="fill:#333333;" points="12.177,12.177 12,12 11.823,12.177 9.323,9.677 9.677,9.323 11.75,11.396 11.75,4 12.25,4 
	12.25,11.396 14.323,9.323 14.677,9.677 "/>
<polygon style="fill:#333333;" points="12.25,20 11.75,20 11.75,12.604 9.677,14.677 9.323,14.323 11.823,11.823 12,12 
	12.177,11.823 14.677,14.323 14.323,14.677 12.25,12.604 "/>
<path style="fill:#333333;" d="M10,6.25C8.759,6.25,7.75,5.241,7.75,4S8.759,1.75,10,1.75S12.25,2.759,12.25,4S11.241,6.25,10,6.25z
	 M10,2.25C9.035,2.25,8.25,3.035,8.25,4S9.035,5.75,10,5.75S11.75,4.965,11.75,4S10.965,2.25,10,2.25z"/>
<path style="fill:#333333;" d="M4,16.25c-1.241,0-2.25-1.01-2.25-2.25S2.759,11.75,4,11.75S6.25,12.76,6.25,14S5.241,16.25,4,16.25z
	 M4,12.25c-0.965,0-1.75,0.785-1.75,1.75S3.035,15.75,4,15.75S5.75,14.965,5.75,14S4.965,12.25,4,12.25z"/>
<rect x="4" y="11.75" style="fill:#333333;" width="16" height="0.5"/>
<path style="fill:#333333;" d="M20,12.25c-1.24,0-2.25-1.009-2.25-2.25S18.76,7.75,20,7.75s2.25,1.009,2.25,2.25
	S21.24,12.25,20,12.25z M20,8.25c-0.965,0-1.75,0.785-1.75,1.75s0.785,1.75,1.75,1.75s1.75-0.785,1.75-1.75S20.965,8.25,20,8.25z"/>
<path style="fill:#333333;" d="M14,22.25c-1.24,0-2.25-1.01-2.25-2.25s1.01-2.25,2.25-2.25s2.25,1.01,2.25,2.25
	S15.24,22.25,14,22.25z M14,18.25c-0.965,0-1.75,0.785-1.75,1.75s0.785,1.75,1.75,1.75s1.75-0.785,1.75-1.75S14.965,18.25,14,18.25z
	"/>
</svg>






