<?xml version="1.0" encoding="iso-8859-1"?>
<svg version="1.1" id="&#x56FE;&#x5C42;_1" xmlns="http://www.w3.org/2000/svg" xmlns:xlink="http://www.w3.org/1999/xlink" x="0px"
	 y="0px" viewBox="0 0 24 24" style="enable-background:new 0 0 24 24;" xml:space="preserve">
<path style="fill:#333333;" d="M12.5,22.25c-4.069,0-5.827-1.344-6.224-2.139l-0.013-0.03l-2.5-7.25L2.776,7.903
	C2.759,7.819,2.75,7.732,2.75,7.644V7.563c0-0.425,0.263-0.779,0.671-0.9c0.411-0.121,0.822,0.03,1.055,0.386
	C4.509,7.101,4.54,7.157,4.567,7.215l1.965,4.258c0.036,0.078,0.108,0.129,0.188,0.142L5.817,5.006
	c-0.05-0.371,0.045-0.739,0.27-1.038C6.25,3.75,6.489,3.608,6.76,3.57C7.032,3.53,7.3,3.6,7.519,3.764l0.067,0.051
	C7.832,3.999,8.015,4.25,8.115,4.54l2.056,5.939L9.79,3.625C9.76,3.167,9.93,2.717,10.254,2.392c0.415-0.415,1.072-0.452,1.53-0.085
	l0.17,0.136c0.34,0.272,0.566,0.659,0.634,1.088l1.12,6.939l0.066-0.002l0.664-6.862c0.046-0.467,0.282-0.904,0.649-1.198
	l0.104-0.083c0.473-0.376,1.148-0.339,1.574,0.087c0.312,0.311,0.483,0.725,0.483,1.166v6.376c0.055,0.274,0.362,1.485,1.329,1.807
	c0.273,0.091,0.761,0.448,1.829,2.484c0.402,0.769,0.382,1.697-0.056,2.483l-1.884,3.391C18.363,20.25,16.566,22.25,12.5,22.25z
	 M6.73,19.901c0.279,0.527,1.829,1.849,5.77,1.849c3.842,0,5.545-1.896,5.562-1.915l1.854-3.347c0.355-0.64,0.374-1.39,0.05-2.009
	c-1.045-1.992-1.47-2.218-1.544-2.242c-1.224-0.408-1.595-1.855-1.656-2.142c-0.01-0.048-0.015-0.093-0.015-0.14V3.58
	c0-0.307-0.119-0.596-0.337-0.812c-0.246-0.246-0.637-0.266-0.908-0.05l-0.104,0.083c-0.263,0.21-0.432,0.522-0.464,0.855
	l-0.664,6.862C14.247,10.792,14.02,11,13.742,11c-0.265,0-0.486-0.189-0.527-0.45l-1.12-6.938c-0.049-0.307-0.209-0.583-0.453-0.777
	l-0.17-0.136c-0.258-0.207-0.63-0.186-0.864,0.048c-0.223,0.223-0.34,0.532-0.319,0.847l0.441,6.842
	c0.01,0.146-0.042,0.291-0.142,0.397c-0.255,0.272-0.768,0.162-0.89-0.189l-2.056-5.94C7.575,4.508,7.451,4.338,7.286,4.214
	L7.218,4.164c-0.112-0.084-0.25-0.12-0.388-0.099C6.692,4.084,6.57,4.157,6.486,4.269c-0.145,0.192-0.207,0.43-0.174,0.67
	l0.963,7.038l-0.252,0.095c-0.366,0.135-0.781-0.034-0.945-0.388L4.112,7.424C4.097,7.389,4.079,7.356,4.058,7.325
	C3.925,7.121,3.715,7.096,3.564,7.143C3.412,7.188,3.25,7.322,3.25,7.563v0.081c0,0.054,0.005,0.108,0.016,0.16l0.979,4.897
	L6.73,19.901z"/>
</svg>






