<?xml version="1.0" encoding="iso-8859-1"?>
<svg version="1.1" id="&#x56FE;&#x5C42;_1" xmlns="http://www.w3.org/2000/svg" xmlns:xlink="http://www.w3.org/1999/xlink" x="0px"
	 y="0px" viewBox="0 0 24 24" style="enable-background:new 0 0 24 24;" xml:space="preserve">
<path style="fill:#333333;" d="M20,21.25H4c-0.689,0-1.25-0.561-1.25-1.25V4c0-0.689,0.561-1.25,1.25-1.25h16
	c0.689,0,1.25,0.561,1.25,1.25v16C21.25,20.689,20.689,21.25,20,21.25z M4,3.25C3.586,3.25,3.25,3.586,3.25,4v16
	c0,0.413,0.336,0.75,0.75,0.75h16c0.413,0,0.75-0.337,0.75-0.75V4c0-0.414-0.337-0.75-0.75-0.75H4z"/>
<rect x="3" y="9.279" style="fill:#333333;" width="18" height="0.5"/>
<rect x="2.144" y="5" transform="matrix(0.7478 -0.6639 0.6639 0.7478 -2.0907 4.9956)" style="fill:#333333;" width="6.773" height="0.5"/>
<rect x="15.138" y="7.002" transform="matrix(0.7442 -0.668 0.668 0.7442 -0.1112 14.2131)" style="fill:#333333;" width="6.725" height="0.5"/>
<rect x="4.761" y="5.906" transform="matrix(0.7478 -0.6639 0.6639 0.7478 -1.6884 7.8668)" style="fill:#333333;" width="9.5" height="0.5"/>
<rect x="9.761" y="5.906" transform="matrix(0.7478 -0.6639 0.6639 0.7478 -0.4276 11.1862)" style="fill:#333333;" width="9.5" height="0.5"/>
</svg>






