<?xml version="1.0" encoding="iso-8859-1"?>
<svg version="1.1" id="&#x56FE;&#x5C42;_1" xmlns="http://www.w3.org/2000/svg" xmlns:xlink="http://www.w3.org/1999/xlink" x="0px"
	 y="0px" viewBox="0 0 24 24" style="enable-background:new 0 0 24 24;" xml:space="preserve">
<path style="fill:#333333;" d="M20,21.25H4c-0.689,0-1.25-0.561-1.25-1.25V4c0-0.689,0.561-1.25,1.25-1.25h16
	c0.689,0,1.25,0.561,1.25,1.25v16C21.25,20.689,20.689,21.25,20,21.25z M4,3.25C3.586,3.25,3.25,3.586,3.25,4v16
	c0,0.413,0.336,0.75,0.75,0.75h16c0.413,0,0.75-0.337,0.75-0.75V4c0-0.414-0.337-0.75-0.75-0.75H4z"/>
<rect x="2.144" y="5" transform="matrix(0.7478 -0.6639 0.6639 0.7478 -2.0907 4.9956)" style="fill:#333333;" width="6.773" height="0.5"/>
<rect x="1.827" y="8.75" transform="matrix(0.7349 -0.6782 0.6782 0.7349 -4.4468 6.6248)" style="fill:#333333;" width="8.846" height="0.5"/>
<rect x="1.827" y="13.25" transform="matrix(0.7349 -0.6782 0.6782 0.7349 -7.4987 7.8179)" style="fill:#333333;" width="8.846" height="0.5"/>
<rect x="1.827" y="17.75" transform="matrix(0.7349 -0.6782 0.6782 0.7349 -10.5506 9.0109)" style="fill:#333333;" width="8.846" height="0.5"/>
<rect x="9.25" y="3" style="fill:#333333;" width="0.5" height="18"/>
</svg>






