<?xml version="1.0" encoding="iso-8859-1"?>
<svg version="1.1" id="&#x56FE;&#x5C42;_1" xmlns="http://www.w3.org/2000/svg" xmlns:xlink="http://www.w3.org/1999/xlink" x="0px"
	 y="0px" viewBox="0 0 24 24" style="enable-background:new 0 0 24 24;" xml:space="preserve">
<path style="fill:#333333;" d="M10.75,11h-0.5V6c0-0.414-0.336-0.75-0.75-0.75H8C7.586,5.25,7.25,5.586,7.25,6v4.5h-0.5V6
	c0-0.689,0.561-1.25,1.25-1.25h1.5c0.689,0,1.25,0.561,1.25,1.25V11z"/>
<path style="fill:#333333;" d="M14.25,11h-0.5V7c0-0.689,0.561-1.25,1.25-1.25h1.5c0.689,0,1.25,0.561,1.25,1.25v3.5h-0.5V7
	c0-0.414-0.337-0.75-0.75-0.75H15c-0.413,0-0.75,0.336-0.75,0.75V11z"/>
<path style="fill:#333333;" d="M14.25,11h-0.5V3c0-0.414-0.337-0.75-0.75-0.75h-1.5c-0.414,0-0.75,0.336-0.75,0.75v8h-0.5V3
	c0-0.689,0.561-1.25,1.25-1.25H13c0.689,0,1.25,0.561,1.25,1.25V11z"/>
<path style="fill:#333333;" d="M18.299,22.25H5.701L3.254,9.045l0.391-0.249C3.68,8.821,7.145,11.25,12,11.25
	c4.863,0,8.32-2.429,8.354-2.454l0.392,0.249L18.299,22.25z M6.117,21.75h11.766l2.267-12.228C19.005,10.208,15.99,11.75,12,11.75
	s-7.005-1.542-8.149-2.228L6.117,21.75z"/>
<path style="fill:#333333;" d="M12,18.25c-1.822,0-3.25-0.769-3.25-1.75s1.428-1.75,3.25-1.75s3.25,0.769,3.25,1.75
	S13.822,18.25,12,18.25z M12,15.25c-1.621,0-2.75,0.659-2.75,1.25s1.129,1.25,2.75,1.25c1.621,0,2.75-0.659,2.75-1.25
	S13.621,15.25,12,15.25z"/>
</svg>






