<?xml version="1.0" encoding="iso-8859-1"?>
<svg version="1.1" id="&#x56FE;&#x5C42;_1" xmlns="http://www.w3.org/2000/svg" xmlns:xlink="http://www.w3.org/1999/xlink" x="0px"
	 y="0px" viewBox="0 0 24 24" style="enable-background:new 0 0 24 24;" xml:space="preserve">
<path style="fill:#333333;" d="M18.75,12.364L12,9.768l-6.75,2.596V5.75h13.5V12.364z M12,9.232l6.25,2.404V6.25H5.75v5.386
	L12,9.232z"/>
<path style="fill:#333333;" d="M14.75,6.25h-5.5V3.5c0-0.965,0.785-1.75,1.75-1.75h2c0.965,0,1.75,0.785,1.75,1.75V6.25z M9.75,5.75
	h4.5V3.5c0-0.689-0.561-1.25-1.25-1.25h-2c-0.689,0-1.25,0.561-1.25,1.25V5.75z"/>
<polygon style="fill:#333333;" points="18.237,22.079 17.763,21.921 20.688,13.146 12,9.768 3.312,13.146 6.237,21.921 
	5.763,22.079 2.688,12.854 12,9.232 21.312,12.854 "/>
<path style="fill:#333333;" d="M18,22.25c-1.285,0-2.191-0.259-3.068-0.51c-0.883-0.252-1.717-0.49-2.932-0.49
	s-2.049,0.238-2.931,0.49C8.192,21.991,7.285,22.25,6,22.25c-1.7,0-4.001-0.979-4.099-1.021l0.197-0.459
	C2.122,20.78,4.403,21.75,6,21.75c1.215,0,2.049-0.238,2.931-0.49c0.877-0.251,1.784-0.51,3.069-0.51s2.191,0.259,3.068,0.51
	c0.883,0.252,1.717,0.49,2.932,0.49c1.597,0,3.879-0.97,3.901-0.979l0.197,0.459C22.001,21.271,19.7,22.25,18,22.25z"/>
<rect x="11.75" y="9.5" style="fill:#333333;" width="0.5" height="11.5"/>
</svg>






