<?xml version="1.0" encoding="iso-8859-1"?>
<svg version="1.1" id="&#x56FE;&#x5C42;_1" xmlns="http://www.w3.org/2000/svg" xmlns:xlink="http://www.w3.org/1999/xlink" x="0px"
	 y="0px" viewBox="0 0 24 24" style="enable-background:new 0 0 24 24;" xml:space="preserve">
<path style="fill:#333333;" d="M11.75,20.25c-5.514,0-10-3.122-10-6.96c0-0.954,0.27-1.875,0.802-2.74
	c-0.17-0.179-0.316-0.378-0.435-0.595C1.176,8.237,2.12,5.8,4.222,4.522C5.394,3.808,6.721,3.575,7.865,3.88
	c0.84,0.225,1.517,0.739,1.905,1.447l0,0c0.185,0.336,0.3,0.704,0.346,1.096c1.239-0.142,2.534-0.12,3.761,0.065
	c0.04-0.416,0.158-0.805,0.354-1.161c0.388-0.708,1.064-1.222,1.904-1.447c1.146-0.306,2.473-0.071,3.644,0.642
	c2.102,1.278,3.046,3.715,2.104,5.433c-0.191,0.35-0.448,0.649-0.763,0.892c0.419,0.78,0.631,1.601,0.631,2.443
	C21.75,17.128,17.264,20.25,11.75,20.25z M6.838,4.249c-0.777,0-1.6,0.24-2.357,0.7C2.605,6.09,1.742,8.228,2.556,9.714
	c0.126,0.23,0.289,0.437,0.484,0.614l0.159,0.144l-0.118,0.179c-0.551,0.832-0.83,1.72-0.83,2.639c0,3.562,4.261,6.46,9.5,6.46
	s9.5-2.897,9.5-6.46c0-0.825-0.227-1.629-0.675-2.39l-0.121-0.206l0.2-0.13c0.334-0.218,0.6-0.503,0.79-0.849
	c0.814-1.486-0.049-3.625-1.926-4.766c-1.058-0.643-2.243-0.854-3.254-0.585c-0.718,0.192-1.27,0.608-1.597,1.204
	c-0.199,0.363-0.302,0.771-0.306,1.213l-0.003,0.294L14.07,7.025c-1.349-0.232-2.793-0.256-4.151-0.075L9.646,6.987L9.636,6.711
	c-0.014-0.416-0.116-0.8-0.305-1.144l0,0C9.005,4.972,8.454,4.555,7.736,4.363C7.449,4.287,7.147,4.249,6.838,4.249z"/>
<circle style="fill:#333333;" cx="6" cy="8.5" r="1"/>
<circle style="fill:#333333;" cx="10.078" cy="14.288" r="1"/>
<circle style="fill:#333333;" cx="14.078" cy="14.288" r="1"/>
<circle style="fill:#333333;" cx="18" cy="8.5" r="1"/>
</svg>






