<?xml version="1.0" encoding="iso-8859-1"?>
<svg version="1.1" id="&#x56FE;&#x5C42;_1" xmlns="http://www.w3.org/2000/svg" xmlns:xlink="http://www.w3.org/1999/xlink" x="0px"
	 y="0px" viewBox="0 0 24 24" style="enable-background:new 0 0 24 24;" xml:space="preserve">
<path style="fill:#333333;" d="M13.524,18.249l-0.049-0.498c3.413-0.34,4.11-2.203,4.252-2.988c0.105-0.584,0.445-1.071,0.908-1.302
	c1.466-0.73,2.157-1.86,2.114-3.454c0.027-3.114-2.86-4.838-4.687-5.195c-0.446-0.087-0.84-0.346-1.081-0.709
	C13.899,2.46,12.285,2.25,11,2.25c-4.321,0-5.092,3.868-5.202,4.643c-0.066,0.46-0.333,0.87-0.731,1.124
	C3.381,9.091,3.25,10.932,3.25,11.471c0,1.866,0.75,3.088,2.291,3.734c1.303,0.547,2.849,0.551,3.876,0.545H9.5v0.5H9.417
	c-1.059-0.003-2.673,0.002-4.07-0.584c-1.723-0.723-2.597-2.135-2.597-4.195c0-0.603,0.148-2.665,2.048-3.875
	c0.271-0.173,0.46-0.462,0.504-0.773C5.424,5.976,6.267,1.75,11,1.75c1.301,0,3.172,0.215,4.4,2.077
	c0.167,0.252,0.443,0.433,0.759,0.495c1.984,0.387,5.12,2.272,5.091,5.68c0.048,1.775-0.757,3.092-2.392,3.906
	c-0.322,0.161-0.562,0.514-0.639,0.943C18.094,15.551,17.382,17.864,13.524,18.249z"/>
<path style="fill:#333333;" d="M14.533,22.25H7.578l0.203-0.37c2.189-3.989,2.122-6.412,1.68-7.742
	c-0.423-1.273-1.235-1.76-1.564-1.91l0.068-0.475l7-1l0.238,0.394c-3.239,4.501-1.722,8.972-0.468,10.708L14.533,22.25z
	 M8.418,21.75h5.65c-1.21-1.984-2.369-6.16,0.404-10.422L8.71,12.151c0.421,0.337,0.918,0.904,1.225,1.828
	C10.394,15.361,10.489,17.819,8.418,21.75z"/>
</svg>






