<?xml version="1.0" encoding="utf-8"?>
<svg version="1.1" id="&#x56FE;&#x5C42;_1" xmlns="http://www.w3.org/2000/svg" xmlns:xlink="http://www.w3.org/1999/xlink" x="0px" y="0px"
	 viewBox="0 0 24 24" style="enable-background:new 0 0 24 24;" xml:space="preserve">
<style type="text/css">
	.st0{fill:#333333;}
</style>
<path class="st0" d="M17,18.8H4c-1,0-1.8-0.8-1.8-1.8V4C2.2,3,3,2.2,4,2.2h13c1,0,1.8,0.8,1.8,1.8v13C18.8,18,18,18.8,17,18.8z
	 M4,2.8C3.3,2.8,2.8,3.3,2.8,4v13c0,0.7,0.6,1.2,1.2,1.2h13c0.7,0,1.2-0.6,1.2-1.2V4c0-0.7-0.6-1.2-1.2-1.2H4z"/>
<path class="st0" d="M21,22.2H6.5v-0.5H21c0.4,0,0.8-0.3,0.8-0.8V6.5h0.5V21C22.2,21.7,21.7,22.2,21,22.2z"/>
<polygon class="st0" points="9.5,13.4 6.3,10.4 6.7,10.1 9.5,12.7 14.3,7.7 14.7,8 "/>
</svg>





