<?xml version="1.0" encoding="iso-8859-1"?>
<svg version="1.1" id="&#x56FE;&#x5C42;_1" xmlns="http://www.w3.org/2000/svg" xmlns:xlink="http://www.w3.org/1999/xlink" x="0px"
	 y="0px" viewBox="0 0 24 24" style="enable-background:new 0 0 24 24;" xml:space="preserve">
<path style="fill:#333333;" d="M7,7.75C4.056,7.75,1.75,6.542,1.75,5S4.056,2.25,7,2.25S12.25,3.458,12.25,5S9.944,7.75,7,7.75z
	 M7,2.75C4.425,2.75,2.25,3.78,2.25,5S4.425,7.25,7,7.25S11.75,6.22,11.75,5S9.575,2.75,7,2.75z"/>
<path style="fill:#333333;" d="M7,11.25c-2.944,0-5.25-1.208-5.25-2.75V5h0.5v3.5c0,1.22,2.175,2.25,4.75,2.25s4.75-1.03,4.75-2.25
	V5h0.5v3.5C12.25,10.042,9.944,11.25,7,11.25z"/>
<path style="fill:#333333;" d="M7,14.75c-2.944,0-5.25-1.208-5.25-2.75V8.5h0.5V12c0,1.22,2.175,2.25,4.75,2.25s4.75-1.03,4.75-2.25
	V8.5h0.5V12C12.25,13.542,9.944,14.75,7,14.75z"/>
<path style="fill:#333333;" d="M7,18.25c-2.944,0-5.25-1.208-5.25-2.75V12h0.5v3.5c0,1.22,2.175,2.25,4.75,2.25s4.75-1.03,4.75-2.25
	V12h0.5v3.5C12.25,17.042,9.944,18.25,7,18.25z"/>
<path style="fill:#333333;" d="M7,21.75c-2.944,0-5.25-1.208-5.25-2.75v-3.5h0.5V19c0,1.22,2.175,2.25,4.75,2.25
	s4.75-1.03,4.75-2.25v-3.5h0.5V19C12.25,20.542,9.944,21.75,7,21.75z"/>
<path style="fill:#333333;" d="M17,14.75c-2.944,0-5.25-1.208-5.25-2.75S14.056,9.25,17,9.25s5.25,1.208,5.25,2.75
	S19.944,14.75,17,14.75z M17,9.75c-2.575,0-4.75,1.03-4.75,2.25s2.175,2.25,4.75,2.25s4.75-1.03,4.75-2.25S19.575,9.75,17,9.75z"/>
<path style="fill:#333333;" d="M17,18.25c-2.944,0-5.25-1.208-5.25-2.75V12h0.5v3.5c0,1.22,2.175,2.25,4.75,2.25
	s4.75-1.03,4.75-2.25V12h0.5v3.5C22.25,17.042,19.944,18.25,17,18.25z"/>
<path style="fill:#333333;" d="M17,21.75c-2.944,0-5.25-1.208-5.25-2.75v-3.5h0.5V19c0,1.22,2.175,2.25,4.75,2.25
	s4.75-1.03,4.75-2.25v-3.5h0.5V19C22.25,20.542,19.944,21.75,17,21.75z"/>
</svg>






