<?xml version="1.0" encoding="iso-8859-1"?>
<svg version="1.1" id="&#x56FE;&#x5C42;_1" xmlns="http://www.w3.org/2000/svg" xmlns:xlink="http://www.w3.org/1999/xlink" x="0px"
	 y="0px" viewBox="0 0 24 24" style="enable-background:new 0 0 24 24;" xml:space="preserve">
<rect x="2" y="21.75" style="fill:#333333;" width="20" height="0.5"/>
<path style="fill:#333333;" d="M12.25,5.25c-2.814,0-7-0.466-7-1.75s4.186-1.75,7-1.75c2.813,0,7,0.466,7,1.75
	S15.063,5.25,12.25,5.25z M12.25,2.25c-4.268,0-6.5,0.814-6.5,1.25s2.232,1.25,6.5,1.25s6.5-0.814,6.5-1.25S16.518,2.25,12.25,2.25z
	"/>
<path style="fill:#333333;" d="M10.247,22.042l-0.493-0.084c0.01-0.061,1.021-6.119,0.499-9.924C9.842,9.047,7.794,4.65,7.773,4.606
	l0.453-0.212c0.085,0.183,2.101,4.511,2.521,7.572C11.281,15.847,10.289,21.791,10.247,22.042z"/>
<path style="fill:#333333;" d="M13.753,22.037c-0.01-0.062-0.92-6.192-0.388-10.071c0.421-3.061,2.437-7.389,2.521-7.572
	l0.453,0.212c-0.021,0.044-2.069,4.443-2.479,7.428c-0.523,3.807,0.377,9.868,0.386,9.929L13.753,22.037z"/>
</svg>






