<?xml version="1.0" encoding="iso-8859-1"?>
<svg version="1.1" id="&#x56FE;&#x5C42;_1" xmlns="http://www.w3.org/2000/svg" xmlns:xlink="http://www.w3.org/1999/xlink" x="0px"
	 y="0px" viewBox="0 0 24 24" style="enable-background:new 0 0 24 24;" xml:space="preserve">
<path style="fill:#333333;" d="M15.682,22.25H8.318l-0.056-0.173c-0.084-0.259-2.057-6.383-1.51-10.113l0,0
	c0.612-4.169,4.873-9.402,5.054-9.623L12,2.106l0.193,0.235c0.182,0.221,4.442,5.454,5.055,9.623
	c0.548,3.73-1.425,9.854-1.51,10.113L15.682,22.25z M8.683,21.75h6.633c0.319-1.032,1.917-6.438,1.437-9.714
	C16.232,8.498,12.85,3.989,12,2.902c-0.85,1.087-4.233,5.597-4.752,9.134l0,0C6.767,15.312,8.364,20.718,8.683,21.75z"/>
<rect x="9" y="6.75" style="fill:#333333;" width="6" height="0.5"/>
<rect x="7.5" y="9.75" style="fill:#333333;" width="9" height="0.5"/>
<rect x="7" y="12.75" style="fill:#333333;" width="10" height="0.5"/>
<rect x="7.5" y="15.75" style="fill:#333333;" width="9" height="0.5"/>
<rect x="8" y="18.75" style="fill:#333333;" width="8" height="0.5"/>
<rect x="2" y="21.75" style="fill:#333333;" width="20" height="0.5"/>
<rect x="11.75" y="2" style="fill:#333333;" width="0.5" height="1"/>
</svg>






