<?xml version="1.0" encoding="iso-8859-1"?>
<svg version="1.1" id="&#x56FE;&#x5C42;_1" xmlns="http://www.w3.org/2000/svg" xmlns:xlink="http://www.w3.org/1999/xlink" x="0px"
	 y="0px" viewBox="0 0 24 24" style="enable-background:new 0 0 24 24;" xml:space="preserve">
<path style="fill:#333333;" d="M14.25,22.25h-4.5V3.896L12,1.646l2.25,2.25V22.25z M10.25,21.75h3.5V4.104L12,2.354l-1.75,1.75
	V21.75z"/>
<path style="fill:#333333;" d="M10.25,22.25h-4.5V9.896l4.073-4.073L10.25,6V22.25z M6.25,21.75h3.5V6.604l-3.5,3.5V21.75z"/>
<path style="fill:#333333;" d="M6.25,22.25h-4.5v-4.863l4.085-3.575L6.25,14V22.25z M2.25,21.75h3.5v-7.199l-3.5,3.062V21.75z"/>
<path style="fill:#333333;" d="M18.25,22.25h-4.5V6l0.427-0.177l4.073,4.073V22.25z M14.25,21.75h3.5V10.104l-3.5-3.5V21.75z"/>
<path style="fill:#333333;" d="M22.25,22.25h-4.5V14l0.407-0.194l4.093,3.325V22.25z M18.25,21.75h3.5v-4.381l-3.5-2.844V21.75z"/>
</svg>






