<?xml version="1.0" encoding="iso-8859-1"?>
<svg version="1.1" id="&#x56FE;&#x5C42;_1" xmlns="http://www.w3.org/2000/svg" xmlns:xlink="http://www.w3.org/1999/xlink" x="0px"
	 y="0px" viewBox="0 0 24 24" style="enable-background:new 0 0 24 24;" xml:space="preserve">
<path style="fill:#333333;" d="M12.25,22.75c-5.79,0-10.5-4.71-10.5-10.5c0-5.79,4.71-10.5,10.5-10.5
	c2.676,0,5.225,1.007,7.177,2.835l0.188,0.177l-7.263,7.238l7.453,7.544l-0.178,0.176C17.65,21.674,15.03,22.75,12.25,22.75z
	 M12.25,2.25c-5.514,0-10,4.486-10,10c0,5.514,4.486,10,10,10c2.564,0,4.985-0.961,6.847-2.711l-7.449-7.541l7.246-7.223
	C17.061,3.145,14.712,2.25,12.25,2.25z"/>
<path style="fill:#333333;" d="M20,14.25c-1.24,0-2.25-1.01-2.25-2.25c0-1.241,1.01-2.25,2.25-2.25s2.25,1.009,2.25,2.25
	C22.25,13.24,21.24,14.25,20,14.25z M20,10.25c-0.965,0-1.75,0.785-1.75,1.75s0.785,1.75,1.75,1.75s1.75-0.785,1.75-1.75
	S20.965,10.25,20,10.25z"/>
<rect x="8.25" y="6.5" style="fill:#333333;" width="0.5" height="4"/>
<rect x="6.5" y="8.25" style="fill:#333333;" width="4" height="0.5"/>
</svg>






