<?xml version="1.0" encoding="iso-8859-1"?>
<svg version="1.1" id="&#x56FE;&#x5C42;_1" xmlns="http://www.w3.org/2000/svg" xmlns:xlink="http://www.w3.org/1999/xlink" x="0px"
	 y="0px" viewBox="0 0 24 24" style="enable-background:new 0 0 24 24;" xml:space="preserve">
<path style="fill:#333333;" d="M22.25,22.25h-8.5v-8.5h8.5V22.25z M14.25,21.75h7.5v-7.5h-7.5V21.75z"/>
<path style="fill:#333333;" d="M11.427,10.25H1.573l4.709-8.373h0.436L11.427,10.25z M2.427,9.75h8.146L6.5,2.51L2.427,9.75z"/>
<path style="fill:#333333;" d="M18,10.25c-2.344,0-4.25-1.907-4.25-4.25S15.656,1.75,18,1.75S22.25,3.657,22.25,6
	S20.344,10.25,18,10.25z M18,2.25c-2.067,0-3.75,1.682-3.75,3.75S15.933,9.75,18,9.75S21.75,8.068,21.75,6S20.067,2.25,18,2.25z"/>
<rect x="5.75" y="12.343" transform="matrix(0.7071 -0.7071 0.7071 0.7071 -10.9706 9.5147)" style="fill:#333333;" width="0.5" height="11.314"/>
<rect x="0.343" y="17.75" transform="matrix(0.7071 -0.7071 0.7071 0.7071 -10.9706 9.5147)" style="fill:#333333;" width="11.314" height="0.5"/>
</svg>






