<?xml version="1.0" encoding="iso-8859-1"?>
<svg version="1.1" id="&#x56FE;&#x5C42;_1" xmlns="http://www.w3.org/2000/svg" xmlns:xlink="http://www.w3.org/1999/xlink" x="0px"
	 y="0px" viewBox="0 0 24 24" style="enable-background:new 0 0 24 24;" xml:space="preserve">
<path style="fill:#333333;" d="M15,20.75H9c-3.998,0-7.25-3.252-7.25-7.25c0-3.998,3.252-7.25,7.25-7.25h6
	c3.998,0,7.25,3.252,7.25,7.25C22.25,17.498,18.998,20.75,15,20.75z M9,6.75c-3.722,0-6.75,3.028-6.75,6.75
	c0,3.722,3.028,6.75,6.75,6.75h6c3.722,0,6.75-3.028,6.75-6.75c0-3.722-3.028-6.75-6.75-6.75H9z"/>
<circle style="fill:#333333;" cx="15.5" cy="11" r="1"/>
<circle style="fill:#333333;" cx="17.5" cy="13.5" r="1"/>
<rect x="6" y="13.25" style="fill:#333333;" width="5" height="0.5"/>
<rect x="11.75" y="3.5" style="fill:#333333;" width="0.5" height="3"/>
<rect x="8.25" y="11" style="fill:#333333;" width="0.5" height="5"/>
</svg>






