<?xml version="1.0" encoding="iso-8859-1"?>
<svg version="1.1" id="&#x56FE;&#x5C42;_1" xmlns="http://www.w3.org/2000/svg" xmlns:xlink="http://www.w3.org/1999/xlink" x="0px"
	 y="0px" viewBox="0 0 24 24" style="enable-background:new 0 0 24 24;" xml:space="preserve">
<path style="fill:#333333;" d="M18,22.25H6c-0.689,0-1.25-0.561-1.25-1.25V3c0-0.689,0.561-1.25,1.25-1.25h12
	c0.689,0,1.25,0.561,1.25,1.25v18C19.25,21.689,18.689,22.25,18,22.25z M6,2.25C5.586,2.25,5.25,2.586,5.25,3v18
	c0,0.413,0.336,0.75,0.75,0.75h12c0.413,0,0.75-0.337,0.75-0.75V3c0-0.414-0.337-0.75-0.75-0.75H6z"/>
<rect x="8" y="16.75" style="fill:#333333;" width="4" height="0.5"/>
<rect x="9.75" y="15" style="fill:#333333;" width="0.5" height="4"/>
<path style="fill:#333333;" d="M16.25,9.75h-8.5v-5h8.5V9.75z M8.25,9.25h7.5v-4h-7.5V9.25z"/>
<circle style="fill:#333333;" cx="15.5" cy="15" r="1"/>
<circle style="fill:#333333;" cx="15.5" cy="19" r="1"/>
</svg>






