<?xml version="1.0" encoding="iso-8859-1"?>
<svg version="1.1" id="&#x56FE;&#x5C42;_1" xmlns="http://www.w3.org/2000/svg" xmlns:xlink="http://www.w3.org/1999/xlink" x="0px"
	 y="0px" viewBox="0 0 24 24" style="enable-background:new 0 0 24 24;" xml:space="preserve">
<path style="fill:#333333;" d="M19,21.25H5c-1.792,0-3.25-1.458-3.25-3.25S3.208,14.75,5,14.75h14c1.792,0,3.25,1.458,3.25,3.25
	S20.792,21.25,19,21.25z M5,15.25c-1.517,0-2.75,1.233-2.75,2.75S3.483,20.75,5,20.75h14c1.517,0,2.75-1.233,2.75-2.75
	s-1.233-2.75-2.75-2.75H5z"/>
<path style="fill:#333333;" d="M18,11.25c-2.344,0-4.25-1.907-4.25-4.25S15.656,2.75,18,2.75S22.25,4.657,22.25,7
	S20.344,11.25,18,11.25z M18,3.25c-2.067,0-3.75,1.682-3.75,3.75s1.683,3.75,3.75,3.75S21.75,9.068,21.75,7S20.067,3.25,18,3.25z"/>
<path style="fill:#333333;" d="M6.5,11.854L1.646,7L6.5,2.146L11.354,7L6.5,11.854z M2.354,7L6.5,11.146L10.646,7L6.5,2.854L2.354,7
	z"/>
</svg>






