<?xml version="1.0" encoding="iso-8859-1"?>
<svg version="1.1" id="&#x56FE;&#x5C42;_1" xmlns="http://www.w3.org/2000/svg" xmlns:xlink="http://www.w3.org/1999/xlink" x="0px"
	 y="0px" viewBox="0 0 24 24" style="enable-background:new 0 0 24 24;" xml:space="preserve">
<path style="fill:#333333;" d="M12,9.854l-2.25-2.25V1.75h4.5v5.854L12,9.854z M10.25,7.396L12,9.146l1.75-1.75V2.25h-3.5V7.396z"/>
<path style="fill:#333333;" d="M14.25,22.25h-4.5v-5.854l2.25-2.25l2.25,2.25V22.25z M10.25,21.75h3.5v-5.146L12,14.854l-1.75,1.75
	V21.75z"/>
<path style="fill:#333333;" d="M22.25,14.25h-5.854L14.146,12l2.25-2.25h5.854V14.25z M16.604,13.75h5.146v-3.5h-5.146L14.854,12
	L16.604,13.75z"/>
<path style="fill:#333333;" d="M7.604,14.25H1.75v-4.5h5.854L9.854,12L7.604,14.25z M2.25,13.75h5.146L9.146,12l-1.75-1.75H2.25
	V13.75z"/>
</svg>






