<?xml version="1.0" encoding="iso-8859-1"?>
<svg version="1.1" id="&#x56FE;&#x5C42;_1" xmlns="http://www.w3.org/2000/svg" xmlns:xlink="http://www.w3.org/1999/xlink" x="0px"
	 y="0px" viewBox="0 0 24 24" style="enable-background:new 0 0 24 24;" xml:space="preserve">
<path style="fill:#333333;" d="M3.369,8.75L3.25,8.273c0.301-0.139,7.386-3.399,8.21-3.62v0c0.945-0.252,1.917,0.299,2.167,1.231
	c0.249,0.933-0.316,1.896-1.261,2.15C11.538,8.255,3.702,8.729,3.369,8.75z M11.589,5.136c-0.538,0.144-4.259,1.819-6.91,3.031
	c2.705-0.172,7.014-0.471,7.557-0.617c0.678-0.182,1.085-0.871,0.907-1.537C12.964,5.348,12.266,4.953,11.589,5.136L11.589,5.136z"
	/>
<path style="fill:#333333;" d="M11.956,19.527c-0.156,0-0.313-0.021-0.467-0.062c-0.826-0.221-7.912-3.594-8.213-3.737l0.126-0.475
	c0.333,0.024,8.167,0.609,8.993,0.831c0.457,0.122,0.84,0.413,1.078,0.817c0.238,0.407,0.304,0.88,0.182,1.332
	c-0.12,0.452-0.413,0.829-0.823,1.062C12.561,19.449,12.261,19.527,11.956,19.527z M4.708,15.854
	c2.651,1.253,6.374,2.985,6.91,3.129c0.331,0.088,0.673,0.046,0.967-0.122c0.292-0.166,0.501-0.435,0.587-0.756
	c0.086-0.322,0.04-0.659-0.131-0.949c-0.171-0.291-0.446-0.5-0.775-0.589C11.722,16.421,7.414,16.064,4.708,15.854z"/>
<path style="fill:#333333;" d="M19,12.252H8v-0.5h11c1.24,0,2.25-1.009,2.25-2.25s-1.01-2.25-2.25-2.25c-0.715,0-1.37,0.328-1.8,0.9
	l-0.4-0.3c0.525-0.699,1.327-1.1,2.2-1.1c1.517,0,2.75,1.233,2.75,2.75S20.517,12.252,19,12.252z"/>
</svg>






