<?xml version="1.0" encoding="iso-8859-1"?>
<svg version="1.1" id="&#x56FE;&#x5C42;_1" xmlns="http://www.w3.org/2000/svg" xmlns:xlink="http://www.w3.org/1999/xlink" x="0px"
	 y="0px" viewBox="0 0 24 24" style="enable-background:new 0 0 24 24;" xml:space="preserve">
<path style="fill:#333333;" d="M2.781,21.62c-0.677-1.239-1.02-2.793-1.02-4.62c0-2.706,1.401-4.746,3.26-4.746
	c0.483,0,1.038,0.15,1.626,0.31c1.516,0.409,3.233,0.875,4.978-0.599c1.779-1.503,1.228-2.216,0.394-3.296
	c-0.26-0.336-0.529-0.684-0.741-1.083c-0.609-1.15-0.616-2.834-0.021-5.148l0.484,0.124c-0.555,2.158-0.562,3.769-0.021,4.79
	c0.191,0.361,0.447,0.692,0.694,1.011c0.825,1.067,1.679,2.171-0.467,3.984c-1.944,1.642-3.878,1.12-5.431,0.699
	c-0.579-0.156-1.079-0.292-1.496-0.292c-1.357,0-2.76,1.588-2.76,4.246c0,1.742,0.322,3.216,0.958,4.38L2.781,21.62z"/>
<path style="fill:#333333;" d="M6.285,21.622c-0.811-1.442-1.159-2.768-1.036-3.939C5.45,15.76,6.582,15.76,7.008,15.76
	c0.26,0,0.419,0.272,0.77,0.87c0.683,1.165,1.955,3.334,4.258,3.622c3.185,0.398,6.655-1.911,8.307-4.287
	c1.003-1.443,1.784-4.027,1.255-5.973c-0.264-0.969-0.812-1.652-1.631-2.03c-1.482-0.683-2.155-0.376-2.747-0.104
	c-0.515,0.237-1.05,0.481-1.875-0.082c-1.157-0.79-1.352-2.537-0.593-5.342l0.482,0.131c-0.687,2.538-0.555,4.152,0.392,4.798
	c0.594,0.404,0.892,0.268,1.386,0.041c0.622-0.284,1.47-0.677,3.164,0.104c0.946,0.436,1.604,1.25,1.904,2.353
	c0.575,2.115-0.232,4.815-1.327,6.389c-1.734,2.496-5.396,4.916-8.779,4.498c-2.547-0.319-3.9-2.626-4.626-3.865
	c-0.147-0.251-0.312-0.532-0.396-0.623c-0.397,0.003-1.057,0.07-1.205,1.476c-0.112,1.066,0.216,2.292,0.975,3.643L6.285,21.622z"/>
<path style="fill:#333333;" d="M13.76,17.249l-0.041-0.498c1.009-0.082,1.848-0.354,2.495-0.806c0.64-0.448,1.102-1.081,1.371-1.881
	l0.475,0.16c-0.306,0.903-0.829,1.62-1.559,2.131C15.779,16.859,14.857,17.16,13.76,17.249z"/>
</svg>






