<?xml version="1.0" encoding="iso-8859-1"?>
<svg version="1.1" id="&#x56FE;&#x5C42;_1" xmlns="http://www.w3.org/2000/svg" xmlns:xlink="http://www.w3.org/1999/xlink" x="0px"
	 y="0px" viewBox="0 0 24 24" style="enable-background:new 0 0 24 24;" xml:space="preserve">
<path style="fill:#333333;" d="M6.25,21.25h-3.5v-4.5h3.5V21.25z M3.25,20.75h2.5v-3.5h-2.5V20.75z"/>
<path style="fill:#333333;" d="M21.25,21.25h-3.5v-4.5h3.5V21.25z M18.25,20.75h2.5v-3.5h-2.5V20.75z"/>
<rect x="11.75" y="7" style="fill:#333333;" width="0.5" height="1.5"/>
<rect x="11.75" y="3" style="fill:#333333;" width="0.5" height="1"/>
<rect x="11.75" y="13" style="fill:#333333;" width="0.5" height="2"/>
<rect x="4.25" y="3" style="fill:#333333;" width="0.5" height="14"/>
<rect x="19.25" y="3" style="fill:#333333;" width="0.5" height="14"/>
<rect x="11.75" y="19" style="fill:#333333;" width="0.5" height="2"/>
<path style="fill:#333333;" d="M4.658,15.193L4.25,15v-4.75H10l0.158,0.443L4.658,15.193z M4.75,10.75v3.723L9.3,10.75H4.75z"/>
<path style="fill:#333333;" d="M19.342,15.193l-5.5-4.5L14,10.25h5.75V15L19.342,15.193z M14.7,10.75l4.55,3.723V10.75H14.7z"/>
<rect x="4.5" y="7.25" style="fill:#333333;" width="4.5" height="0.5"/>
<rect x="15" y="7.25" style="fill:#333333;" width="4.5" height="0.5"/>
</svg>






