<?xml version="1.0" encoding="iso-8859-1"?>
<svg version="1.1" id="&#x56FE;&#x5C42;_1" xmlns="http://www.w3.org/2000/svg" xmlns:xlink="http://www.w3.org/1999/xlink" x="0px"
	 y="0px" viewBox="0 0 24 24" style="enable-background:new 0 0 24 24;" xml:space="preserve">
<path style="fill:#333333;" d="M20,21.75H4c-0.689,0-1.25-0.561-1.25-1.25v-15c0-0.689,0.561-1.25,1.25-1.25h16
	c0.689,0,1.25,0.561,1.25,1.25v15C21.25,21.189,20.689,21.75,20,21.75z M4,4.75c-0.414,0-0.75,0.336-0.75,0.75v15
	c0,0.413,0.336,0.75,0.75,0.75h16c0.413,0,0.75-0.337,0.75-0.75v-15c0-0.414-0.337-0.75-0.75-0.75H4z"/>
<rect x="7.25" y="2.5" style="fill:#333333;" width="0.5" height="2"/>
<rect x="16.25" y="2.5" style="fill:#333333;" width="0.5" height="2"/>
<rect x="3" y="8.25" style="fill:#333333;" width="18" height="0.5"/>
<rect x="9" y="14.75" style="fill:#333333;" width="6" height="0.5"/>
<rect x="11.75" y="12" style="fill:#333333;" width="0.5" height="6"/>
<rect x="2.75" y="5.5" style="fill:#333333;" width="0.5" height="6"/>
<rect x="20.75" y="5.5" style="fill:#333333;" width="0.5" height="6"/>
</svg>






