<?xml version="1.0" encoding="iso-8859-1"?>
<svg version="1.1" id="&#x56FE;&#x5C42;_1" xmlns="http://www.w3.org/2000/svg" xmlns:xlink="http://www.w3.org/1999/xlink" x="0px"
	 y="0px" viewBox="0 0 24 24" style="enable-background:new 0 0 24 24;" xml:space="preserve">
<path style="fill:#333333;" d="M12,22.25c-0.505,0-0.783-0.586-1.052-1.152c-0.164-0.345-0.388-0.816-0.568-0.853
	c-0.194-0.035-0.605,0.319-0.904,0.581c-0.467,0.41-0.951,0.834-1.399,0.646c-0.461-0.19-0.49-0.833-0.518-1.454
	c-0.017-0.385-0.041-0.912-0.198-1.017c-0.163-0.111-0.677,0.062-1.052,0.189C5.714,19.39,5.1,19.595,4.752,19.248
	c-0.35-0.351-0.126-0.966,0.09-1.56c0.136-0.376,0.323-0.89,0.216-1.05c-0.104-0.156-0.648-0.18-1.044-0.197
	c-0.636-0.027-1.294-0.057-1.485-0.518c-0.19-0.46,0.262-0.914,0.742-1.395c0.277-0.278,0.696-0.698,0.659-0.886
	c-0.035-0.177-0.574-0.418-0.931-0.577C2.356,12.779,1.75,12.509,1.75,12c0-0.495,0.582-0.819,1.144-1.132
	c0.348-0.193,0.823-0.458,0.861-0.646C3.792,10.032,3.438,9.667,3.178,9.4c-0.413-0.426-0.84-0.866-0.65-1.323
	c0.191-0.462,0.854-0.489,1.555-0.518C4.482,7.542,5.085,7.517,5.19,7.361C5.292,7.208,5.064,6.673,4.913,6.32
	C4.659,5.725,4.396,5.109,4.752,4.752C5.087,4.417,5.701,4.541,6.293,4.66C6.69,4.74,7.186,4.84,7.361,4.721
	c0.158-0.105,0.18-0.538,0.198-0.885c0.027-0.524,0.058-1.117,0.518-1.308C8.516,2.345,9.001,2.716,9.47,3.076
	c0.314,0.242,0.701,0.54,0.911,0.502c0.185-0.037,0.398-0.446,0.57-0.774C11.221,2.286,11.5,1.75,12,1.75
	c0.504,0,0.764,0.538,1.015,1.059c0.157,0.327,0.354,0.734,0.534,0.77c0.216,0.046,0.617-0.262,0.946-0.504
	c0.487-0.359,0.989-0.729,1.429-0.547c0.461,0.191,0.489,0.807,0.518,1.403c0.018,0.366,0.041,0.866,0.197,0.971
	c0.166,0.109,0.682-0.037,1.058-0.145c0.594-0.171,1.208-0.349,1.552-0.005c0.352,0.352,0.117,0.967-0.109,1.562
	c-0.144,0.375-0.34,0.889-0.233,1.046c0.104,0.157,0.658,0.18,1.062,0.198c0.646,0.028,1.314,0.057,1.506,0.518
	c0.194,0.47-0.26,0.867-0.66,1.218C20.544,9.529,20.21,9.822,20.245,10c0.039,0.199,0.519,0.521,0.869,0.755
	c0.584,0.392,1.136,0.762,1.136,1.245c0,0.523-0.669,0.751-1.316,0.972c-0.351,0.119-0.938,0.319-0.971,0.483
	c-0.037,0.19,0.415,0.665,0.714,0.979c0.506,0.531,0.984,1.034,0.796,1.49c-0.191,0.461-0.859,0.49-1.505,0.518
	c-0.404,0.018-0.958,0.041-1.062,0.197c-0.106,0.158,0.09,0.672,0.233,1.048c0.227,0.594,0.461,1.209,0.109,1.562
	c-0.337,0.336-0.885,0.213-1.416,0.092c-0.362-0.082-0.775-0.178-0.948-0.061c-0.172,0.114-0.248,0.534-0.315,0.904
	c-0.1,0.543-0.201,1.105-0.645,1.289c-0.459,0.189-0.88-0.238-1.284-0.654c-0.251-0.258-0.595-0.607-0.777-0.573
	c-0.193,0.038-0.479,0.516-0.688,0.864C12.823,21.696,12.491,22.25,12,22.25z M10.35,19.742c0.042,0,0.085,0.004,0.128,0.013
	c0.427,0.084,0.667,0.592,0.922,1.129c0.164,0.345,0.411,0.866,0.6,0.866c0.208,0,0.519-0.519,0.745-0.897
	c0.313-0.522,0.609-1.017,1.02-1.098c0.454-0.09,0.85,0.319,1.233,0.715c0.234,0.24,0.584,0.607,0.734,0.54
	c0.191-0.079,0.272-0.523,0.344-0.916c0.09-0.49,0.182-0.998,0.529-1.23c0.352-0.234,0.852-0.122,1.338-0.011
	c0.38,0.087,0.811,0.183,0.951,0.042c0.123-0.123-0.086-0.669-0.224-1.03c-0.222-0.581-0.431-1.13-0.182-1.503
	c0.246-0.367,0.834-0.393,1.457-0.42c0.396-0.017,0.995-0.042,1.063-0.209c0.065-0.156-0.43-0.675-0.695-0.954
	c-0.478-0.502-0.93-0.976-0.842-1.42c0.089-0.447,0.677-0.648,1.3-0.86c0.342-0.116,0.978-0.332,0.978-0.498
	c0-0.217-0.528-0.571-0.914-0.83c-0.516-0.345-1.002-0.671-1.081-1.073c-0.092-0.461,0.325-0.826,0.728-1.178
	c0.247-0.216,0.585-0.512,0.528-0.65c-0.069-0.167-0.669-0.193-1.065-0.21c-0.622-0.027-1.21-0.052-1.456-0.419
	c-0.249-0.373-0.04-0.922,0.182-1.503c0.13-0.339,0.347-0.907,0.224-1.03c-0.134-0.133-0.67,0.02-1.06,0.132
	c-0.573,0.165-1.114,0.321-1.475,0.079c-0.366-0.245-0.393-0.813-0.418-1.363c-0.019-0.377-0.043-0.895-0.21-0.964
	c-0.179-0.074-0.618,0.25-0.941,0.488c-0.472,0.347-0.91,0.679-1.34,0.591c-0.425-0.084-0.66-0.572-0.888-1.043
	C12.397,2.68,12.19,2.25,12,2.25c-0.196,0-0.424,0.436-0.606,0.785c-0.244,0.467-0.496,0.951-0.917,1.034
	C10.052,4.153,9.6,3.807,9.165,3.473C8.86,3.238,8.438,2.915,8.268,2.99C8.1,3.06,8.077,3.504,8.058,3.862
	c-0.026,0.506-0.053,1.03-0.419,1.275C7.291,5.371,6.758,5.263,6.195,5.15c-0.399-0.08-0.944-0.189-1.09-0.044
	C4.988,5.223,5.229,5.787,5.373,6.124c0.25,0.584,0.485,1.137,0.232,1.516C5.359,8.006,4.75,8.032,4.104,8.058
	C3.713,8.074,3.059,8.101,2.99,8.268C2.926,8.422,3.294,8.801,3.537,9.051c0.392,0.403,0.796,0.82,0.708,1.267
	c-0.082,0.416-0.581,0.693-1.108,0.987C2.763,11.514,2.25,11.799,2.25,12c0,0.185,0.595,0.45,0.951,0.609
	c0.583,0.261,1.132,0.506,1.217,0.937c0.089,0.449-0.34,0.88-0.795,1.336c-0.261,0.262-0.697,0.699-0.634,0.851
	c0.069,0.167,0.657,0.192,1.045,0.21c0.613,0.026,1.192,0.052,1.438,0.419c0.248,0.37,0.049,0.918-0.162,1.498
	c-0.132,0.362-0.331,0.91-0.206,1.035c0.129,0.132,0.68-0.057,1.044-0.179c0.577-0.193,1.122-0.374,1.489-0.131
	c0.367,0.246,0.392,0.812,0.419,1.41c0.017,0.377,0.042,0.946,0.21,1.015c0.169,0.076,0.594-0.31,0.878-0.56
	C9.561,20.087,9.955,19.742,10.35,19.742z"/>
<path style="fill:#333333;" d="M14.5,14.75c-1.24,0-2.25-1.01-2.25-2.25c0-1.241,1.01-2.25,2.25-2.25s2.25,1.009,2.25,2.25
	C16.75,13.74,15.74,14.75,14.5,14.75z M14.5,10.75c-0.965,0-1.75,0.785-1.75,1.75s0.785,1.75,1.75,1.75s1.75-0.785,1.75-1.75
	S15.465,10.75,14.5,10.75z"/>
<path style="fill:#333333;" d="M8.25,13c0.69,0,1.25-0.56,1.25-1.25c0-0.69-0.56-1.25-1.25-1.25S7,11.06,7,11.75
	C7,12.441,7.56,13,8.25,13z"/>
</svg>






