<?xml version="1.0" encoding="iso-8859-1"?>
<svg version="1.1" id="&#x56FE;&#x5C42;_1" xmlns="http://www.w3.org/2000/svg" xmlns:xlink="http://www.w3.org/1999/xlink" x="0px"
	 y="0px" viewBox="0 0 24 24" style="enable-background:new 0 0 24 24;" xml:space="preserve">
<path style="fill:#333333;" d="M12,22.451l-2-3l-1.961,2.941L6,20.354l-1.823,1.823L3.75,22V10c0-4.549,3.701-8.25,8.25-8.25
	s8.25,3.701,8.25,8.25v12l-0.427,0.177L18,20.354l-2.039,2.039L14,19.451L12,22.451z M14,18.549l2.039,3.059L18,19.646l1.75,1.75V10
	c0-4.273-3.477-7.75-7.75-7.75S4.25,5.727,4.25,10v11.396L6,19.646l1.961,1.961L10,18.549l2,3L14,18.549z"/>
<rect x="9.5" y="9.75" style="fill:#333333;" width="1" height="0.5"/>
<rect x="15.5" y="9.75" style="fill:#333333;" width="1" height="0.5"/>
</svg>






