<?xml version="1.0" encoding="iso-8859-1"?>
<svg version="1.1" id="&#x56FE;&#x5C42;_1" xmlns="http://www.w3.org/2000/svg" xmlns:xlink="http://www.w3.org/1999/xlink" x="0px"
	 y="0px" viewBox="0 0 24 24" style="enable-background:new 0 0 24 24;" xml:space="preserve">
<path style="fill:#333333;" d="M19.5,21.25h-15c-0.965,0-1.75-0.785-1.75-1.75v-11c0-0.965,0.785-1.75,1.75-1.75h15
	c0.965,0,1.75,0.785,1.75,1.75v11C21.25,20.465,20.465,21.25,19.5,21.25z M4.5,7.25c-0.689,0-1.25,0.561-1.25,1.25v11
	c0,0.689,0.561,1.25,1.25,1.25h15c0.689,0,1.25-0.561,1.25-1.25v-11c0-0.689-0.561-1.25-1.25-1.25H4.5z"/>
<path style="fill:#333333;" d="M19.5,21.25h-15c-0.965,0-1.75-0.785-1.75-1.75v-3.75h18.5v3.75
	C21.25,20.465,20.465,21.25,19.5,21.25z M3.25,16.25v3.25c0,0.689,0.561,1.25,1.25,1.25h15c0.689,0,1.25-0.561,1.25-1.25v-3.25H3.25
	z"/>
<path style="fill:#333333;" d="M9.5,7.25c-1.517,0-2.75-1.233-2.75-2.75S7.983,1.75,9.5,1.75s2.75,1.233,2.75,2.75
	S11.017,7.25,9.5,7.25z M9.5,2.25c-1.241,0-2.25,1.009-2.25,2.25S8.259,6.75,9.5,6.75s2.25-1.009,2.25-2.25S10.741,2.25,9.5,2.25z"
	/>
<path style="fill:#333333;" d="M14,7.25c-1.24,0-2.25-1.009-2.25-2.25S12.76,2.75,14,2.75S16.25,3.759,16.25,5S15.24,7.25,14,7.25z
	 M14,3.25c-0.965,0-1.75,0.785-1.75,1.75S13.035,6.75,14,6.75S15.75,5.965,15.75,5S14.965,3.25,14,3.25z"/>
<polygon style="fill:#333333;" points="15.337,10.19 12,7.329 8.663,10.19 8.337,9.81 12,6.671 15.663,9.81 "/>
</svg>






