<?xml version="1.0" encoding="iso-8859-1"?>
<svg version="1.1" id="&#x56FE;&#x5C42;_1" xmlns="http://www.w3.org/2000/svg" xmlns:xlink="http://www.w3.org/1999/xlink" x="0px"
	 y="0px" viewBox="0 0 24 24" style="enable-background:new 0 0 24 24;" xml:space="preserve">
<path style="fill:#333333;" d="M19.5,21.25h-15c-0.965,0-1.75-0.785-1.75-1.75v-15c0-0.965,0.785-1.75,1.75-1.75h15
	c0.965,0,1.75,0.785,1.75,1.75v15C21.25,20.465,20.465,21.25,19.5,21.25z M4.5,3.25c-0.689,0-1.25,0.561-1.25,1.25v15
	c0,0.689,0.561,1.25,1.25,1.25h15c0.689,0,1.25-0.561,1.25-1.25v-15c0-0.689-0.561-1.25-1.25-1.25H4.5z"/>
<rect x="2" y="11.75" style="fill:#333333;" width="20" height="0.5"/>
<rect x="11.75" y="2" style="fill:#333333;" width="0.5" height="20"/>
<rect x="2.75" y="9" style="fill:#333333;" width="0.5" height="6"/>
<rect x="20.75" y="9" style="fill:#333333;" width="0.5" height="6"/>
<rect x="9" y="20.75" style="fill:#333333;" width="6" height="0.5"/>
<rect x="9" y="2.75" style="fill:#333333;" width="6" height="0.5"/>
<path style="fill:#333333;" d="M8.538,17.249c-0.458,0-0.916-0.174-1.264-0.522c-0.338-0.338-0.524-0.787-0.524-1.265
	s0.186-0.927,0.524-1.265c0.503-0.504,3.006-1.685,4.122-2.197c-1.116-0.513-3.619-1.693-4.122-2.197L7.627,9.45
	c0.395,0.395,2.557,1.439,3.867,2.045c-0.606-1.311-1.65-3.472-2.045-3.867l0.354-0.354c0.503,0.503,1.684,3.006,2.197,4.122
	c0.513-1.117,1.693-3.619,2.197-4.122c0.676-0.676,1.854-0.676,2.529,0c0.697,0.697,0.697,1.832,0,2.529
	c-0.504,0.503-3.007,1.684-4.123,2.197c1.117,0.513,3.619,1.693,4.122,2.197l-0.354,0.354c-0.396-0.396-2.557-1.439-3.867-2.046
	c0.606,1.311,1.65,3.473,2.046,3.868l-0.354,0.354c-0.504-0.504-1.685-3.006-2.197-4.123c-0.513,1.117-1.693,3.619-2.197,4.123
	C9.455,17.075,8.996,17.249,8.538,17.249z M11.495,12.505c-1.311,0.606-3.472,1.65-3.867,2.046
	c-0.244,0.243-0.377,0.566-0.377,0.911c0,0.344,0.134,0.667,0.377,0.911c0.501,0.501,1.318,0.503,1.822,0
	C9.845,15.978,10.889,13.815,11.495,12.505z M15.462,7.25c-0.345,0-0.668,0.134-0.911,0.377c-0.396,0.395-1.439,2.557-2.046,3.867
	c1.311-0.606,3.473-1.65,3.868-2.045c0.502-0.502,0.502-1.32,0-1.822C16.129,7.384,15.806,7.25,15.462,7.25z"/>
</svg>






