<?xml version="1.0" encoding="iso-8859-1"?>
<svg version="1.1" id="&#x56FE;&#x5C42;_1" xmlns="http://www.w3.org/2000/svg" xmlns:xlink="http://www.w3.org/1999/xlink" x="0px"
	 y="0px" viewBox="0 0 24 24" style="enable-background:new 0 0 24 24;" xml:space="preserve">
<path style="fill:#333333;" d="M12,9.25c-2.068,0-3.75-1.682-3.75-3.75S9.932,1.75,12,1.75c2.067,0,3.75,1.682,3.75,3.75
	S14.067,9.25,12,9.25z M12,2.25c-1.792,0-3.25,1.458-3.25,3.25S10.208,8.75,12,8.75s3.25-1.458,3.25-3.25S13.792,2.25,12,2.25z"/>
<path style="fill:#333333;" d="M20,22.25H4l-0.209-0.387l6.574-10.113h3.271l6.574,10.113L20,22.25z M4.46,21.75h15.079l-6.175-9.5
	h-2.729L4.46,21.75z"/>
</svg>






