<?xml version="1.0" encoding="iso-8859-1"?>
<svg version="1.1" id="&#x56FE;&#x5C42;_1" xmlns="http://www.w3.org/2000/svg" xmlns:xlink="http://www.w3.org/1999/xlink" x="0px"
	 y="0px" viewBox="0 0 24 24" style="enable-background:new 0 0 24 24;" xml:space="preserve">
<path style="fill:#333333;" d="M12,8.25c-1.792,0-3.25-1.458-3.25-3.25S10.208,1.75,12,1.75S15.25,3.208,15.25,5
	S13.792,8.25,12,8.25z M12,2.25c-1.517,0-2.75,1.233-2.75,2.75S10.483,7.75,12,7.75S14.75,6.517,14.75,5S13.517,2.25,12,2.25z"/>
<path style="fill:#333333;" d="M19.419,18.25H4.582l5.654-10.5h3.529L19.419,18.25z M5.418,17.75h13.163l-5.115-9.5h-2.932
	L5.418,17.75z"/>
<rect x="13.25" y="18" style="fill:#333333;" width="0.5" height="4"/>
<rect x="10.25" y="18" style="fill:#333333;" width="0.5" height="4"/>
</svg>






