<?xml version="1.0" encoding="iso-8859-1"?>
<svg version="1.1" id="&#x56FE;&#x5C42;_1" xmlns="http://www.w3.org/2000/svg" xmlns:xlink="http://www.w3.org/1999/xlink" x="0px"
	 y="0px" viewBox="0 0 24 24" style="enable-background:new 0 0 24 24;" xml:space="preserve">
<path style="fill:#333333;" d="M12,8.25c-1.792,0-3.25-1.458-3.25-3.25S10.208,1.75,12,1.75S15.25,3.208,15.25,5
	S13.792,8.25,12,8.25z M12,2.25c-1.517,0-2.75,1.233-2.75,2.75S10.483,7.75,12,7.75S14.75,6.517,14.75,5S13.517,2.25,12,2.25z"/>
<polygon style="fill:#333333;" points="14.25,22 13.75,22 13.75,17.75 18.581,17.75 13.466,8.25 10.534,8.25 5.418,17.75 
	10.25,17.75 10.25,22 9.75,22 9.75,18.25 4.582,18.25 10.235,7.75 13.765,7.75 19.419,18.25 14.25,18.25 "/>
</svg>






