<?xml version="1.0" encoding="iso-8859-1"?>
<svg version="1.1" id="&#x56FE;&#x5C42;_1" xmlns="http://www.w3.org/2000/svg" xmlns:xlink="http://www.w3.org/1999/xlink" x="0px"
	 y="0px" viewBox="0 0 24 24" style="enable-background:new 0 0 24 24;" xml:space="preserve">
<path style="fill:#333333;" d="M9.829,15.577c-1.446-0.243-2.669-0.733-3.635-1.457C4.686,12.989,3.75,11.219,3.75,9.5
	c0-1.154,0.417-2.282,1.207-3.26C5.02,6.12,5.02,5.465,5.02,4.987c0-1.372,0.036-2.367,0.5-2.673
	c0.116-0.077,0.311-0.145,0.579-0.029c0.36,0.155,0.718,0.37,1.064,0.578c0.765,0.46,1.487,0.894,2.202,0.712
	c1.816-0.463,3.851-0.429,5.643,0.102c0.527,0.155,1.585-0.422,2.434-0.887c0.341-0.187,0.67-0.366,0.963-0.502
	c0.273-0.126,0.456-0.061,0.562,0.018c0.376,0.277,0.29,1.052,0.118,2.294c-0.077,0.563-0.195,1.415-0.094,1.577
	C19.814,7.167,20.25,8.318,20.25,9.5c0,1.818-0.855,3.545-2.287,4.62c-0.845,0.633-1.935,1.092-3.24,1.363l-0.102-0.49
	c1.233-0.256,2.257-0.685,3.041-1.273c1.308-0.98,2.088-2.558,2.088-4.22c0-1.064-0.396-2.104-1.146-3.007
	c-0.233-0.281-0.161-0.896-0.015-1.961c0.079-0.569,0.224-1.62,0.085-1.816c-0.006,0.005-0.027,0.01-0.06,0.025
	c-0.284,0.132-0.603,0.307-0.934,0.488c-1.026,0.562-2.089,1.142-2.816,0.928c-1.706-0.505-3.647-0.54-5.377-0.097
	C8.573,4.293,7.725,3.784,6.905,3.291C6.558,3.083,6.23,2.886,5.901,2.744c-0.077-0.032-0.1-0.017-0.107-0.013
	C5.519,2.913,5.52,4.262,5.52,4.987c0,0.913-0.007,1.361-0.174,1.567C4.629,7.442,4.25,8.461,4.25,9.5
	c0,1.565,0.859,3.182,2.243,4.22c0.902,0.676,2.052,1.135,3.418,1.365L9.829,15.577z"/>
<path style="fill:#333333;" d="M9.251,21.505h-0.5v-4.357c0-0.635,0.314-1.303,0.934-1.984l0.37,0.336
	c-0.533,0.587-0.804,1.142-0.804,1.648V21.505z"/>
<path style="fill:#333333;" d="M15.745,21.505h-0.5v-4.326c0-0.515-0.26-1.116-0.772-1.789l0.398-0.303
	c0.58,0.762,0.874,1.466,0.874,2.092V21.505z"/>
<path style="fill:#333333;" d="M9.001,19.009H6.913c-1.01,0-2.062-0.893-3.126-2.651c-0.177-0.292-0.444-0.456-0.817-0.502
	l0.062-0.496c0.527,0.065,0.925,0.313,1.183,0.738c1.206,1.993,2.133,2.411,2.699,2.411h2.088V19.009z"/>
</svg>






