<?xml version="1.0" encoding="iso-8859-1"?>
<svg version="1.1" id="&#x56FE;&#x5C42;_1" xmlns="http://www.w3.org/2000/svg" xmlns:xlink="http://www.w3.org/1999/xlink" x="0px"
	 y="0px" viewBox="0 0 24 24" style="enable-background:new 0 0 24 24;" xml:space="preserve">
<path style="fill:#333333;" d="M6,21.25c-2.068,0-3.75-1.683-3.75-3.75S3.932,13.75,6,13.75s3.75,1.683,3.75,3.75
	S8.068,21.25,6,21.25z M6,14.25c-1.792,0-3.25,1.458-3.25,3.25S4.208,20.75,6,20.75s3.25-1.458,3.25-3.25S7.792,14.25,6,14.25z"/>
<path style="fill:#333333;" d="M18,21.25c-2.067,0-3.75-1.683-3.75-3.75s1.683-3.75,3.75-3.75s3.75,1.683,3.75,3.75
	S20.067,21.25,18,21.25z M18,14.25c-1.792,0-3.25,1.458-3.25,3.25s1.458,3.25,3.25,3.25s3.25-1.458,3.25-3.25S19.792,14.25,18,14.25
	z"/>
<path style="fill:#333333;" d="M2.75,17h-0.5V5.441c0-0.725,0-1.125,0.236-1.452c0.235-0.327,0.613-0.453,1.3-0.682l1.635-0.545
	l0.158,0.475L3.947,3.781C3.337,3.984,3.033,4.086,2.892,4.282C2.75,4.479,2.75,4.8,2.75,5.441V17z"/>
<path style="fill:#333333;" d="M21.75,17h-0.5V5.441c0-0.641,0-0.963-0.142-1.159s-0.445-0.297-1.051-0.5l-1.637-0.545l0.158-0.475
	l1.633,0.544c0.688,0.23,1.066,0.356,1.302,0.683c0.236,0.328,0.236,0.727,0.236,1.452V17z"/>
<path style="fill:#333333;" d="M14.75,17h-0.5c0-1.24-1.01-2.25-2.25-2.25c-1.241,0-2.25,1.01-2.25,2.25h-0.5
	c0-1.517,1.233-2.75,2.75-2.75S14.75,15.483,14.75,17z"/>
</svg>






