<?xml version="1.0" encoding="iso-8859-1"?>
<svg version="1.1" id="&#x56FE;&#x5C42;_1" xmlns="http://www.w3.org/2000/svg" xmlns:xlink="http://www.w3.org/1999/xlink" x="0px"
	 y="0px" viewBox="0 0 24 24" style="enable-background:new 0 0 24 24;" xml:space="preserve">
<path style="fill:#333333;" d="M6,20.25c-2.068,0-3.75-1.683-3.75-3.75S3.932,12.75,6,12.75s3.75,1.683,3.75,3.75
	S8.068,20.25,6,20.25z M6,13.25c-1.792,0-3.25,1.458-3.25,3.25S4.208,19.75,6,19.75s3.25-1.458,3.25-3.25S7.792,13.25,6,13.25z"/>
<path style="fill:#333333;" d="M14.75,16.5h-0.5c0-0.827-0.22-2.75-2.25-2.75c-2.031,0-2.25,1.923-2.25,2.75h-0.5
	c0-2.035,1.028-3.25,2.75-3.25C13.722,13.25,14.75,14.465,14.75,16.5z"/>
<path style="fill:#333333;" d="M18,20.25c-2.067,0-3.75-1.683-3.75-3.75s1.683-3.75,3.75-3.75s3.75,1.683,3.75,3.75
	S20.067,20.25,18,20.25z M18,13.25c-1.792,0-3.25,1.458-3.25,3.25s1.458,3.25,3.25,3.25s3.25-1.458,3.25-3.25S19.792,13.25,18,13.25
	z"/>
<path style="fill:#333333;" d="M3.25,11h-0.5V7c0-1.792,1.458-3.25,3.25-3.25h1v0.5H6C4.483,4.25,3.25,5.483,3.25,7V11z"/>
<path style="fill:#333333;" d="M21.25,11h-0.5V7c0-1.517-1.233-2.75-2.75-2.75h-1v-0.5h1c1.792,0,3.25,1.458,3.25,3.25V11z"/>
</svg>






