<?xml version="1.0" encoding="iso-8859-1"?>
<svg version="1.1" id="&#x56FE;&#x5C42;_1" xmlns="http://www.w3.org/2000/svg" xmlns:xlink="http://www.w3.org/1999/xlink" x="0px"
	 y="0px" viewBox="0 0 24 24" style="enable-background:new 0 0 24 24;" xml:space="preserve">
<path style="fill:#333333;" d="M12.158,19.25c-2.806,0-5.413-1.124-7.34-3.165l0.363-0.344c1.832,1.94,4.31,3.009,6.977,3.009
	c5.289,0,9.592-4.303,9.592-9.592c0-2.667-1.068-5.144-3.009-6.976l0.344-0.363c2.041,1.927,3.165,4.534,3.165,7.339
	C22.25,14.723,17.723,19.25,12.158,19.25z"/>
<path style="fill:#333333;" d="M12,16.25c-3.998,0-7.25-3.252-7.25-7.25c0-3.998,3.252-7.25,7.25-7.25c3.998,0,7.25,3.252,7.25,7.25
	C19.25,12.998,15.998,16.25,12,16.25z M12,2.25C8.278,2.25,5.25,5.278,5.25,9c0,3.722,3.028,6.75,6.75,6.75
	c3.722,0,6.75-3.028,6.75-6.75C18.75,5.278,15.722,2.25,12,2.25z"/>
<rect x="11.75" y="19" style="fill:#333333;" width="0.5" height="3"/>
<rect x="9" y="21.75" style="fill:#333333;" width="6" height="0.5"/>
</svg>






