<?xml version="1.0" encoding="iso-8859-1"?>
<svg version="1.1" id="&#x56FE;&#x5C42;_1" xmlns="http://www.w3.org/2000/svg" xmlns:xlink="http://www.w3.org/1999/xlink" x="0px"
	 y="0px" viewBox="0 0 24 24" style="enable-background:new 0 0 24 24;" xml:space="preserve">
<path style="fill:#333333;" d="M18.167,21.25H3.75V7.5c0-1.349,0.426-5.75,5.903-5.75c4.914,0,5.325,2.092,5.571,3.342l0.021,0.109
	c0.179,0.893,0.381,3.198,0.487,4.507c0.625-1.224,1.889-3.328,3.244-3.458c0.88-0.083,1.602,0.187,2.037,0.761
	c0.425,0.56,0.507,1.337,0.22,2.078c-0.477,1.23-2.845,7.38-3.066,7.957V21.25z M4.25,20.75h13.417l0.017-3.84
	c0,0,2.583-6.709,3.083-8c0.225-0.578,0.168-1.175-0.151-1.596c-0.327-0.432-0.891-0.635-1.592-0.565
	c-1.313,0.125-2.782,2.939-3.237,4.013l-0.479-0.08c-0.003-0.041-0.308-4.163-0.552-5.384l-0.021-0.11
	c-0.244-1.24-0.578-2.939-5.081-2.939C4.776,2.25,4.25,5.921,4.25,7.5V20.75z"/>
</svg>






