<?xml version="1.0" encoding="iso-8859-1"?>
<svg version="1.1" id="&#x56FE;&#x5C42;_1" xmlns="http://www.w3.org/2000/svg" xmlns:xlink="http://www.w3.org/1999/xlink" x="0px"
	 y="0px" viewBox="0 0 24 24" style="enable-background:new 0 0 24 24;" xml:space="preserve">
<rect x="6.5" y="21.75" style="fill:#333333;" width="10" height="0.5"/>
<rect x="11.25" y="14" style="fill:#333333;" width="0.5" height="8"/>
<path style="fill:#333333;" d="M11.5,14.25c-3.446,0-6.25-2.804-6.25-6.25c0-3.293,1.964-6.032,2.048-6.147L7.373,1.75h8.254
	l0.075,0.103C15.786,1.968,17.75,4.707,17.75,8C17.75,11.446,14.946,14.25,11.5,14.25z M7.631,2.25C7.281,2.773,5.75,5.217,5.75,8
	c0,3.17,2.58,5.75,5.75,5.75c3.171,0,5.75-2.58,5.75-5.75c0-2.788-1.53-5.228-1.881-5.75H7.631z"/>
</svg>






