<?xml version="1.0" encoding="iso-8859-1"?>
<svg version="1.1" id="&#x56FE;&#x5C42;_1" xmlns="http://www.w3.org/2000/svg" xmlns:xlink="http://www.w3.org/1999/xlink" x="0px"
	 y="0px" viewBox="0 0 24 24" style="enable-background:new 0 0 24 24;" xml:space="preserve">
<rect x="6.5" y="21.75" style="fill:#333333;" width="10" height="0.5"/>
<rect x="11.25" y="14" style="fill:#333333;" width="0.5" height="8"/>
<path style="fill:#333333;" d="M11.5,14.25c-2.409,0-4.562-1.346-5.62-3.511C5.462,9.882,5.25,8.96,5.25,8
	c0-1.065,0.208-2.188,0.62-3.334C6.464,3.01,7.264,1.899,7.298,1.853L7.373,1.75h8.254l0.075,0.103
	c0.038,0.052,0.938,1.301,1.535,3.125C17.577,6.016,17.75,7.032,17.75,8c0,0.854-0.176,1.687-0.521,2.475
	C16.223,12.769,13.974,14.25,11.5,14.25z M7.631,2.25C7.424,2.558,6.809,3.529,6.34,4.834C5.949,5.927,5.75,6.992,5.75,8
	c0,0.884,0.195,1.731,0.58,2.519c0.973,1.993,2.954,3.231,5.17,3.231c2.275,0,4.345-1.364,5.271-3.476
	C17.089,9.55,17.25,8.785,17.25,8c0-0.915-0.164-1.879-0.487-2.866c-0.478-1.457-1.172-2.553-1.394-2.884H7.631z"/>
<path style="fill:#333333;" d="M14.175,8.921c-0.929,0-1.92-0.176-2.803-0.707C9.012,6.799,5.633,8.216,5.598,8.23L5.401,7.77
	c0.148-0.062,3.648-1.531,6.227,0.016c2.357,1.413,5.739-0.001,5.773-0.016l0.197,0.46C17.501,8.271,15.955,8.921,14.175,8.921z"/>
<path style="fill:#333333;" d="M17.229,10.475l-0.457-0.201C17.089,9.55,17.25,8.785,17.25,8c0-0.915-0.164-1.879-0.487-2.866
	l0.475-0.155C17.577,6.016,17.75,7.032,17.75,8C17.75,8.854,17.574,9.687,17.229,10.475z"/>
<path style="fill:#333333;" d="M5.88,10.739C5.462,9.882,5.25,8.96,5.25,8c0-1.065,0.208-2.188,0.62-3.334L6.34,4.834
	C5.949,5.927,5.75,6.992,5.75,8c0,0.884,0.195,1.731,0.58,2.519L5.88,10.739z"/>
</svg>






