<?xml version="1.0" encoding="iso-8859-1"?>
<svg version="1.1" id="&#x56FE;&#x5C42;_1" xmlns="http://www.w3.org/2000/svg" xmlns:xlink="http://www.w3.org/1999/xlink" x="0px"
	 y="0px" viewBox="0 0 24 24" style="enable-background:new 0 0 24 24;" xml:space="preserve">
<g>
	<defs>
		<rect id="SVGID_1_" width="24" height="24"/>
	</defs>
	<clipPath id="SVGID_00000019652685900625753730000010975437156551709574_">
		<use xlink:href="#SVGID_1_"  style="overflow:visible;"/>
	</clipPath>
	<g style="clip-path:url(#SVGID_00000019652685900625753730000010975437156551709574_);">
		<path style="fill:#333333;" d="M9.939,16.689c-1.803,0-3.498-0.702-4.773-1.978l-2.475-2.475l0.354-0.354l2.475,2.475
			c1.18,1.181,2.75,1.831,4.419,1.831c1.669,0,3.238-0.65,4.419-1.831s1.831-2.75,1.831-4.419c0-1.669-0.65-3.239-1.831-4.419
			l-2.475-2.475l0.354-0.354l2.475,2.475c1.275,1.275,1.978,2.97,1.978,4.773c0,1.803-0.702,3.498-1.978,4.772
			C13.438,15.987,11.742,16.689,9.939,16.689z"/>
		
			<rect x="16.25" y="14.379" transform="matrix(0.7071 -0.7071 0.7071 0.7071 -6.8345 16.5)" style="fill:#333333;" width="0.5" height="4.243"/>
		<path style="fill:#333333;" d="M4.135,12.479c-0.768,0-1.429-0.229-1.908-0.707C1.498,11.044,1.332,9.856,1.76,8.428
			c0.412-1.375,1.332-2.824,2.588-4.08l0,0c2.676-2.676,5.938-3.607,7.425-2.121c1.487,1.487,0.555,4.748-2.122,7.424
			C7.836,11.466,5.751,12.479,4.135,12.479z M4.702,4.702c-1.199,1.199-2.074,2.574-2.462,3.87
			c-0.373,1.244-0.252,2.255,0.341,2.848c1.267,1.266,4.28,0.314,6.717-2.122c2.437-2.437,3.389-5.45,2.122-6.717
			C10.152,1.315,7.139,2.266,4.702,4.702L4.702,4.702z"/>
		<path style="fill:#333333;" d="M17.574,21.623c-0.358,0-0.657-0.109-0.872-0.325c-0.354-0.354-0.421-0.932-0.189-1.627
			c0.213-0.638,0.656-1.315,1.25-1.908c0.593-0.594,1.271-1.037,1.908-1.25c0.695-0.231,1.273-0.165,1.627,0.189
			c0.354,0.354,0.421,0.932,0.189,1.627c-0.213,0.637-0.656,1.314-1.25,1.908s-1.271,1.037-1.908,1.25
			C18.057,21.578,17.803,21.623,17.574,21.623z M20.423,16.878c-0.175,0-0.376,0.036-0.594,0.109
			c-0.565,0.188-1.174,0.589-1.713,1.129l0,0c-0.54,0.539-0.94,1.147-1.129,1.713c-0.166,0.499-0.142,0.905,0.068,1.115
			c0.209,0.209,0.614,0.235,1.115,0.068c0.564-0.188,1.173-0.589,1.713-1.129s0.94-1.148,1.129-1.713
			c0.166-0.499,0.142-0.905-0.068-1.115C20.826,16.938,20.646,16.878,20.423,16.878z"/>
	</g>
</g>
</svg>






