<?xml version="1.0" encoding="iso-8859-1"?>
<svg version="1.1" id="&#x56FE;&#x5C42;_1" xmlns="http://www.w3.org/2000/svg" xmlns:xlink="http://www.w3.org/1999/xlink" x="0px"
	 y="0px" viewBox="0 0 24 24" style="enable-background:new 0 0 24 24;" xml:space="preserve">
<path style="fill:#333333;" d="M18.414,11.117c-1.021-1.932-2.831-3.289-4.964-3.722l-0.291-0.059l2.17-5.586h7.031l-3.491,9.337
	L18.414,11.117z M13.838,6.969c1.98,0.481,3.676,1.713,4.749,3.445L21.64,2.25h-5.969L13.838,6.969z"/>
<path style="fill:#333333;" d="M5.586,11.117l-0.456-0.029L1.64,1.75h7.031l2.169,5.586L10.55,7.395
	C8.417,7.828,6.607,9.185,5.586,11.117z M2.36,2.25l3.053,8.164c1.073-1.731,2.769-2.964,4.749-3.445L8.329,2.25H2.36z"/>
<path style="fill:#333333;" d="M12,22.25c-4.273,0-7.75-3.477-7.75-7.75c0-1.26,0.309-2.511,0.894-3.617
	c1.091-2.065,3.025-3.515,5.306-3.979c1.016-0.206,2.084-0.205,3.1,0c2.28,0.463,4.214,1.914,5.306,3.979
	c0.585,1.106,0.895,2.357,0.895,3.617C19.75,18.773,16.273,22.25,12,22.25z M12,7.25c-0.487,0-0.975,0.049-1.45,0.145
	c-2.133,0.433-3.942,1.79-4.963,3.722C5.039,12.151,4.75,13.321,4.75,14.5c0,3.998,3.252,7.25,7.25,7.25
	c3.998,0,7.25-3.252,7.25-7.25c0-1.179-0.289-2.349-0.836-3.383c-1.021-1.932-2.831-3.289-4.964-3.722
	C12.976,7.299,12.487,7.25,12,7.25z"/>
<polygon style="fill:#333333;" points="14,17.75 12,17.75 12,17.5 12,17.75 10,17.75 10,17.25 11.75,17.25 11.75,11.347 
	10.579,11.737 10.421,11.263 12.25,10.653 12.25,17.25 14,17.25 "/>
</svg>






