<?xml version="1.0" encoding="iso-8859-1"?>
<svg version="1.1" id="&#x56FE;&#x5C42;_1" xmlns="http://www.w3.org/2000/svg" xmlns:xlink="http://www.w3.org/1999/xlink" x="0px"
	 y="0px" viewBox="0 0 24 24" style="enable-background:new 0 0 24 24;" xml:space="preserve">
<path style="fill:#333333;" d="M12,22.25c-5.652,0-10.25-2.355-10.25-5.25S6.348,11.75,12,11.75c5.652,0,10.25,2.355,10.25,5.25
	S17.652,22.25,12,22.25z M12,12.25c-5.376,0-9.75,2.131-9.75,4.75s4.374,4.75,9.75,4.75s9.75-2.131,9.75-4.75S17.376,12.25,12,12.25
	z"/>
<path style="fill:#333333;" d="M16,18.25c-0.689,0-1.25-0.561-1.25-1.25s0.561-1.25,1.25-1.25s1.25,0.561,1.25,1.25
	S16.689,18.25,16,18.25z M16,16.25c-0.413,0-0.75,0.337-0.75,0.75s0.337,0.75,0.75,0.75s0.75-0.337,0.75-0.75S16.413,16.25,16,16.25
	z"/>
<path style="fill:none;" d="M12,4.5L6.5,2v5L12,4.5z"/>
<path style="fill:#333333;" d="M6.75,17h-0.5V1.612l5.854,2.661v0.455L6.75,7.161V17z M6.75,2.388v4.224L11.396,4.5L6.75,2.388z"/>
</svg>






