<?xml version="1.0" encoding="iso-8859-1"?>
<svg version="1.1" id="&#x56FE;&#x5C42;_1" xmlns="http://www.w3.org/2000/svg" xmlns:xlink="http://www.w3.org/1999/xlink" x="0px"
	 y="0px" viewBox="0 0 24 24" style="enable-background:new 0 0 24 24;" xml:space="preserve">
<path style="fill:#333333;" d="M11,6.25C9.759,6.25,8.75,5.241,8.75,4S9.759,1.75,11,1.75c1.24,0,2.25,1.009,2.25,2.25
	S12.24,6.25,11,6.25z M11,2.25c-0.965,0-1.75,0.785-1.75,1.75S10.035,5.75,11,5.75S12.75,4.965,12.75,4S11.965,2.25,11,2.25z"/>
<polygon style="fill:#333333;" points="5.75,21.5 5.25,21.5 5.25,14.25 8.75,14.25 8.75,9.25 4,9.25 4,8.75 9.25,8.75 9.25,14.75 
	5.75,14.75 "/>
<polygon style="fill:#333333;" points="19.822,21.676 12.75,14.532 12.75,8.75 18.091,8.75 18.091,9.25 13.25,9.25 13.25,14.327 
	20.178,21.324 "/>
</svg>






