<?xml version="1.0" encoding="iso-8859-1"?>
<svg version="1.1" id="&#x56FE;&#x5C42;_1" xmlns="http://www.w3.org/2000/svg" xmlns:xlink="http://www.w3.org/1999/xlink" x="0px"
	 y="0px" viewBox="0 0 24 24" style="enable-background:new 0 0 24 24;" xml:space="preserve">
<path style="fill:#333333;" d="M16.993,21.75H4c-0.689,0-1.25-0.561-1.25-1.25v-9.906c0-0.458,0.25-0.878,0.651-1.097l3.33-1.816
	C7.768,7.114,8.62,6.269,9.194,5.236l1.329-2.392c0.203-0.366,0.59-0.594,1.009-0.594h0.12c0.614,0,1.191,0.239,1.625,0.673
	c0.462,0.461,0.745,1.074,0.799,1.723l0.046,0.551c0.088,1.043,0.013,2.088-0.224,3.107l-0.25,1.082
	c-0.02,0.089,0.001,0.18,0.058,0.251s0.142,0.112,0.232,0.112h5.74c0.396,0,0.76,0.181,0.998,0.496
	c0.238,0.315,0.313,0.714,0.205,1.094l-2.685,9.5C18.045,21.376,17.55,21.75,16.993,21.75z M11.532,2.75
	c-0.238,0-0.457,0.129-0.572,0.336L9.631,5.479C9.011,6.595,8.091,7.508,6.97,8.119l-3.33,1.816C3.4,10.067,3.25,10.319,3.25,10.594
	V20.5c0,0.413,0.336,0.75,0.75,0.75h12.993c0.334,0,0.631-0.225,0.723-0.547l2.685-9.499c0.064-0.228,0.02-0.467-0.124-0.656
	c-0.143-0.189-0.361-0.298-0.599-0.298h-5.74c-0.244,0-0.472-0.11-0.624-0.301c-0.152-0.191-0.208-0.438-0.152-0.675l0.25-1.082
	c0.224-0.968,0.295-1.962,0.212-2.953l-0.046-0.552c-0.044-0.532-0.276-1.033-0.654-1.411c-0.34-0.339-0.791-0.526-1.271-0.526
	H11.532z"/>
</svg>






