<?xml version="1.0" encoding="iso-8859-1"?>
<svg version="1.1" id="&#x56FE;&#x5C42;_1" xmlns="http://www.w3.org/2000/svg" xmlns:xlink="http://www.w3.org/1999/xlink" x="0px"
	 y="0px" viewBox="0 0 24 24" style="enable-background:new 0 0 24 24;" xml:space="preserve">
<path style="fill:#333333;" d="M5,21.75H3.917c-0.653,0-1.189-0.49-1.246-1.142l-0.826-9.5c-0.03-0.348,0.087-0.695,0.323-0.952
	C2.405,9.898,2.741,9.75,3.091,9.75H5c0.689,0,1.25,0.561,1.25,1.25v9.5C6.25,21.189,5.689,21.75,5,21.75z M3.091,10.25
	c-0.213,0-0.409,0.086-0.553,0.244c-0.144,0.157-0.212,0.359-0.194,0.571v0l0.826,9.5c0.034,0.391,0.355,0.685,0.748,0.685H5
	c0.414,0,0.75-0.337,0.75-0.75V11c0-0.414-0.336-0.75-0.75-0.75H3.091z"/>
<path style="fill:#333333;" d="M18.493,21.75H10c-0.689,0-1.25-0.561-1.25-1.25v-9.813c0-0.503,0.307-0.972,0.781-1.196
	c0.769-0.363,2.15-1.122,2.754-2.129c0.795-1.326,0.939-3.788,0.96-4.268l0.003-0.071c0.001-0.063,0.004-0.126,0.012-0.189
	c0.042-0.305,0.226-0.512,0.503-0.568c0.751-0.15,2.125,0.883,2.702,1.844c0.348,0.581,0.495,1.364,0.437,2.329
	c-0.045,0.733-0.256,1.437-0.46,2.117l-0.355,1.187h5.093c0.396,0,0.759,0.181,0.997,0.496c0.238,0.315,0.313,0.714,0.205,1.094
	l-2.685,9.508C19.545,21.376,19.05,21.75,18.493,21.75z M13.937,2.749c-0.026,0-0.051,0.002-0.073,0.007
	c-0.04,0.008-0.09,0.018-0.107,0.146c-0.007,0.044-0.007,0.089-0.008,0.134l-0.003,0.081c-0.021,0.5-0.174,3.073-1.03,4.502
	c-0.673,1.121-2.15,1.938-2.971,2.325c-0.3,0.142-0.494,0.434-0.494,0.744V20.5c0,0.413,0.336,0.75,0.75,0.75h8.493
	c0.334,0,0.631-0.225,0.723-0.547l2.685-9.507c0.064-0.229,0.02-0.468-0.124-0.657c-0.143-0.189-0.36-0.297-0.598-0.297h-5.765
	l0.537-1.79c0.207-0.693,0.409-1.369,0.45-2.044c0.037-0.593,0.003-1.428-0.366-2.042C15.533,3.528,14.428,2.749,13.937,2.749z"/>
</svg>






