<?xml version="1.0" encoding="iso-8859-1"?>
<svg version="1.1" id="&#x56FE;&#x5C42;_1" xmlns="http://www.w3.org/2000/svg" xmlns:xlink="http://www.w3.org/1999/xlink" x="0px"
	 y="0px" viewBox="0 0 24 24" style="enable-background:new 0 0 24 24;" xml:space="preserve">
<path style="fill:#333333;" d="M15.754,22.25H9.503c-2.255,0-4.391-1.317-5.714-3.522c-1.51-2.518-1.514-6.231-0.009-9.241l0,0l0,0
	c2.06-4.121,6.34-5.919,9.465-7.233c0.313-0.131,0.617-0.259,0.909-0.385c0.495-0.214,0.958-0.151,1.297,0.179
	c0.706,0.688,0.717,2.31,0.284,3.393c-0.349,0.871-0.923,1.798-1.26,2.309h3.777c1.103,0,2,0.897,2,2
	c0,0.609-0.273,1.155-0.704,1.522c0.963,0.144,1.704,0.976,1.704,1.978c0,1.103-0.897,2-2,2h-0.679
	c0.416,0.367,0.679,0.903,0.679,1.5c0,1.103-0.897,2-2,2h-0.179c0.416,0.367,0.679,0.903,0.679,1.5
	C17.753,21.353,16.856,22.25,15.754,22.25z M14.711,2.244c-0.108,0-0.229,0.028-0.359,0.084c-0.293,0.126-0.598,0.254-0.913,0.387
	C10.216,4.069,6.204,5.755,4.227,9.71l0,0c-1.432,2.863-1.435,6.383-0.009,8.759c1.826,3.044,4.507,3.28,5.285,3.28h6.251
	c0.826,0,1.499-0.673,1.499-1.5s-0.673-1.5-1.5-1.5v-0.5h1.5c0.827,0,1.5-0.673,1.5-1.5s-0.673-1.5-1.5-1.5v-0.5h2
	c0.827,0,1.5-0.673,1.5-1.5s-0.673-1.5-1.5-1.5h-1v-0.5c0.827,0,1.5-0.673,1.5-1.5s-0.673-1.5-1.5-1.5h-4.25L13.8,7.855
	c0.01-0.014,0.988-1.393,1.471-2.6c0.397-0.993,0.315-2.377-0.168-2.849C14.99,2.298,14.861,2.244,14.711,2.244z"/>
</svg>






