<?xml version="1.0" encoding="iso-8859-1"?>
<svg version="1.1" id="&#x56FE;&#x5C42;_1" xmlns="http://www.w3.org/2000/svg" xmlns:xlink="http://www.w3.org/1999/xlink" x="0px"
	 y="0px" viewBox="0 0 24 24" style="enable-background:new 0 0 24 24;" xml:space="preserve">
<g>
	<defs>
		<rect id="SVGID_1_" width="24" height="24"/>
	</defs>
	<clipPath id="SVGID_00000176750558523819194430000002320703176053997205_">
		<use xlink:href="#SVGID_1_"  style="overflow:visible;"/>
	</clipPath>
	<g style="clip-path:url(#SVGID_00000176750558523819194430000002320703176053997205_);">
		<path style="fill:#333333;" d="M17.964,21.595c-1.225,0-2.4-0.695-2.951-1.877L9.097,7.029C8.729,6.243,8.691,5.36,8.988,4.544
			s0.894-1.467,1.681-1.834c0.786-0.367,1.669-0.406,2.485-0.108c0.815,0.297,1.467,0.894,1.834,1.681l5.917,12.688
			c0.367,0.787,0.405,1.67,0.108,2.485s-0.894,1.467-1.681,1.834C18.89,21.496,18.423,21.595,17.964,21.595z M12.04,2.904
			c-0.396,0-0.791,0.087-1.161,0.259c-0.666,0.311-1.17,0.862-1.422,1.552C9.207,5.406,9.239,6.152,9.55,6.818l5.916,12.689
			c0.641,1.374,2.281,1.972,3.655,1.33c0.666-0.311,1.171-0.861,1.422-1.552s0.219-1.438-0.092-2.104L14.534,4.494
			c-0.311-0.666-0.861-1.171-1.552-1.422C12.676,2.96,12.357,2.904,12.04,2.904z"/>
		<path style="fill:#333333;" d="M6.036,21.594c-0.459,0-0.925-0.098-1.368-0.304c-1.624-0.757-2.329-2.695-1.572-4.319L8.96,4.395
			l0.453,0.211L3.549,17.182c-0.641,1.375-0.044,3.015,1.33,3.655c1.377,0.642,3.014,0.043,3.655-1.33l2.958-6.345l0.453,0.211
			l-2.958,6.345C8.436,20.899,7.261,21.594,6.036,21.594z"/>
		<path style="fill:#333333;" d="M6.036,21.594c-0.459,0-0.925-0.098-1.368-0.304c-1.625-0.758-2.33-2.695-1.572-4.319
			c0.367-0.787,1.018-1.384,1.834-1.681c0.815-0.298,1.697-0.26,2.485,0.108l0,0c0.787,0.367,1.384,1.019,1.681,1.834
			s0.258,1.698-0.108,2.485C8.436,20.899,7.261,21.594,6.036,21.594z M6.043,15.593c-0.317,0-0.635,0.056-0.942,0.167
			c-0.69,0.251-1.241,0.756-1.552,1.422c-0.641,1.375-0.044,3.015,1.33,3.655c1.376,0.642,3.013,0.043,3.655-1.33
			c0.311-0.666,0.343-1.413,0.092-2.104c-0.251-0.69-0.756-1.241-1.422-1.552l0,0C6.833,15.679,6.439,15.593,6.043,15.593z"/>
	</g>
</g>
</svg>






