<?xml version="1.0" encoding="iso-8859-1"?>
<svg version="1.1" id="&#x56FE;&#x5C42;_1" xmlns="http://www.w3.org/2000/svg" xmlns:xlink="http://www.w3.org/1999/xlink" x="0px"
	 y="0px" viewBox="0 0 24 24" style="enable-background:new 0 0 24 24;" xml:space="preserve">
<path style="fill:#333333;" d="M19.5,7.25c-1.517,0-2.75-1.233-2.75-2.75s1.233-2.75,2.75-2.75s2.75,1.233,2.75,2.75
	S21.017,7.25,19.5,7.25z M19.5,2.25c-1.24,0-2.25,1.009-2.25,2.25s1.01,2.25,2.25,2.25s2.25-1.009,2.25-2.25S20.74,2.25,19.5,2.25z"
	/>
<path style="fill:#333333;" d="M4.5,22.25c-1.517,0-2.75-1.233-2.75-2.75s1.233-2.75,2.75-2.75s2.75,1.233,2.75,2.75
	S6.017,22.25,4.5,22.25z M4.5,17.25c-1.241,0-2.25,1.01-2.25,2.25s1.009,2.25,2.25,2.25s2.25-1.01,2.25-2.25S5.741,17.25,4.5,17.25z
	"/>
<path style="fill:#333333;" d="M7.25,7.25h-5.5v-5.5h5.5V7.25z M2.25,6.75h4.5v-4.5h-4.5V6.75z"/>
<path style="fill:#333333;" d="M22.25,22.25h-5.5v-5.5h5.5V22.25z M17.25,21.75h4.5v-4.5h-4.5V21.75z"/>
<rect x="7" y="4.25" style="fill:#333333;" width="10" height="0.5"/>
<rect x="7" y="19.25" style="fill:#333333;" width="10" height="0.5"/>
<rect x="4.25" y="7" style="fill:#333333;" width="0.5" height="10"/>
<rect x="19.25" y="7" style="fill:#333333;" width="0.5" height="10"/>
</svg>






