<?xml version="1.0" encoding="iso-8859-1"?>
<svg version="1.1" id="&#x56FE;&#x5C42;_1" xmlns="http://www.w3.org/2000/svg" xmlns:xlink="http://www.w3.org/1999/xlink" x="0px"
	 y="0px" viewBox="0 0 24 24" style="enable-background:new 0 0 24 24;" xml:space="preserve">
<path style="fill:#333333;" d="M7.675,14.319C5.816,12.936,4.75,10.814,4.75,8.5c0-3.998,3.252-7.25,7.25-7.25
	c3.998,0,7.25,3.252,7.25,7.25c0,2.276-1.038,4.376-2.848,5.761l-0.305-0.396c1.686-1.29,2.652-3.245,2.652-5.364
	c0-3.722-3.028-6.75-6.75-6.75c-3.722,0-6.75,3.028-6.75,6.75c0,2.155,0.993,4.13,2.724,5.419L7.675,14.319z"/>
<path style="fill:#333333;" d="M22,22.25H2l-0.201-0.398L12,8.08l10.201,13.771L22,22.25z M2.496,21.75h19.008L12,8.92L2.496,21.75z
	"/>
</svg>






