<?xml version="1.0" encoding="iso-8859-1"?>
<svg version="1.1" id="&#x56FE;&#x5C42;_1" xmlns="http://www.w3.org/2000/svg" xmlns:xlink="http://www.w3.org/1999/xlink" x="0px"
	 y="0px" viewBox="0 0 24 24" style="enable-background:new 0 0 24 24;" xml:space="preserve">
<path style="fill:#333333;" d="M20.938,8.1C19.387,4.546,15.878,2.25,12,2.25c-3.877,0-7.386,2.296-8.939,5.85L2.603,7.9
	C4.235,4.164,7.924,1.75,12,1.75s7.765,2.414,9.397,6.15L20.938,8.1z"/>
<path style="fill:#333333;" d="M12.25,22h-0.5c0-2.627-1.029-5.091-2.898-6.937l-0.067-0.065l-0.007-0.094
	c-0.019-0.252-0.028-0.507-0.028-0.763c0-2.777,1.092-5.376,3.075-7.32L12,6.65l0.175,0.171c1.983,1.944,3.075,4.543,3.075,7.32
	c0,0.256-0.009,0.511-0.028,0.763l-0.007,0.094l-0.066,0.065C13.279,16.91,12.25,19.373,12.25,22z M9.271,14.775
	c1.378,1.385,2.312,3.094,2.729,4.956c0.418-1.862,1.352-3.571,2.729-4.957c0.014-0.209,0.021-0.42,0.021-0.633
	c0-2.559-0.975-4.959-2.75-6.787c-1.775,1.828-2.75,4.229-2.75,6.787C9.25,14.354,9.257,14.565,9.271,14.775z"/>
<path style="fill:#333333;" d="M12.25,22.25H12C6.348,22.25,1.75,17.652,1.75,12v-0.25H2c2.714,0,5.272,1.051,7.203,2.958
	c1.965,1.94,3.047,4.53,3.047,7.292V22.25z M2.253,12.253c0.132,5.176,4.318,9.361,9.493,9.494
	c-0.063-2.532-1.086-4.897-2.895-6.684C7.075,13.309,4.74,12.316,2.253,12.253z"/>
<path style="fill:#333333;" d="M12,22.25h-0.25V22c0-2.762,1.082-5.352,3.047-7.292c1.931-1.907,4.488-2.958,7.203-2.958h0.25V12
	C22.25,17.652,17.652,22.25,12,22.25z M21.747,12.253c-2.488,0.063-4.822,1.056-6.599,2.811c-1.809,1.787-2.831,4.151-2.896,6.684
	C17.429,21.614,21.614,17.429,21.747,12.253z"/>
</svg>






