<?xml version="1.0" encoding="iso-8859-1"?>
<svg version="1.1" id="&#x56FE;&#x5C42;_1" xmlns="http://www.w3.org/2000/svg" xmlns:xlink="http://www.w3.org/1999/xlink" x="0px"
	 y="0px" viewBox="0 0 24 24" style="enable-background:new 0 0 24 24;" xml:space="preserve">
<path style="fill:#333333;" d="M20.5,21.75h-17c-0.689,0-1.25-0.561-1.25-1.25v-17c0-0.689,0.561-1.25,1.25-1.25h17
	c0.689,0,1.25,0.561,1.25,1.25v17C21.75,21.189,21.189,21.75,20.5,21.75z M3.5,2.75c-0.414,0-0.75,0.336-0.75,0.75v17
	c0,0.413,0.336,0.75,0.75,0.75h17c0.413,0,0.75-0.337,0.75-0.75v-17c0-0.414-0.337-0.75-0.75-0.75H3.5z"/>
<rect x="2.5" y="8.75" style="fill:#333333;" width="19" height="0.5"/>
<rect x="2.5" y="14.75" style="fill:#333333;" width="19" height="0.5"/>
<rect x="8.25" y="2.5" style="fill:#333333;" width="0.5" height="19"/>
<rect x="14.75" y="2.5" style="fill:#333333;" width="0.5" height="19"/>
</svg>






