<?xml version="1.0" encoding="iso-8859-1"?>
<svg version="1.1" id="&#x56FE;&#x5C42;_1" xmlns="http://www.w3.org/2000/svg" xmlns:xlink="http://www.w3.org/1999/xlink" x="0px"
	 y="0px" viewBox="0 0 24 24" style="enable-background:new 0 0 24 24;" xml:space="preserve">
<path style="fill:#333333;" d="M12,22.25C6.348,22.25,1.75,17.652,1.75,12C1.75,6.348,6.348,1.75,12,1.75
	c5.652,0,10.25,4.598,10.25,10.25C22.25,17.652,17.652,22.25,12,22.25z M12,2.25c-5.376,0-9.75,4.374-9.75,9.75
	s4.374,9.75,9.75,9.75s9.75-4.374,9.75-9.75S17.376,2.25,12,2.25z"/>
<path style="fill:#333333;" d="M12,17.75c-2.625,0-3.68-2.051-3.724-2.139L8.096,15.25h7.809l-0.181,0.361
	C15.68,15.699,14.624,17.75,12,17.75z M8.956,15.75c0.404,0.543,1.355,1.5,3.044,1.5s2.641-0.957,3.044-1.5H8.956z"/>
<rect x="15.25" y="9" style="fill:#333333;" width="0.5" height="2"/>
<rect x="8.25" y="9" style="fill:#333333;" width="0.5" height="2"/>
</svg>






