<?xml version="1.0" encoding="iso-8859-1"?>
<svg version="1.1" id="&#x56FE;&#x5C42;_1" xmlns="http://www.w3.org/2000/svg" xmlns:xlink="http://www.w3.org/1999/xlink" x="0px"
	 y="0px" viewBox="0 0 24 24" style="enable-background:new 0 0 24 24;" xml:space="preserve">
<path style="fill:#333333;" d="M12,11.25c-1.517,0-2.75-1.233-2.75-2.75S10.483,5.75,12,5.75s2.75,1.233,2.75,2.75
	S13.517,11.25,12,11.25z M12,6.25c-1.241,0-2.25,1.009-2.25,2.25s1.009,2.25,2.25,2.25c1.24,0,2.25-1.009,2.25-2.25
	S13.24,6.25,12,6.25z"/>
<polygon style="fill:#333333;" points="3.724,22.111 3.276,21.889 5.776,16.889 6.054,16.756 10.324,17.705 11.26,14.432 
	11.74,14.568 10.74,18.068 10.446,18.244 6.136,17.286 "/>
<polygon style="fill:#333333;" points="17,22.25 11.5,22.25 11.257,22.061 10.257,18.061 10.743,17.939 11.695,21.75 17,21.75 "/>
<polygon style="fill:#333333;" points="11.541,14.747 11.412,14.734 3.412,11.734 3.588,11.266 11.525,14.242 17.393,13.265 
	20.36,10.822 20.679,11.208 17.659,13.693 17.541,13.747 "/>
<path style="fill:#333333;" d="M21.813,7.666c-4.13-4.645-9.144-6.37-15.778-5.418l-0.07-0.495c6.818-0.974,11.973,0.8,16.222,5.582
	L21.813,7.666z"/>
</svg>






