<?xml version="1.0" encoding="iso-8859-1"?>
<svg version="1.1" id="&#x56FE;&#x5C42;_1" xmlns="http://www.w3.org/2000/svg" xmlns:xlink="http://www.w3.org/1999/xlink" x="0px"
	 y="0px" viewBox="0 0 24 24" style="enable-background:new 0 0 24 24;" xml:space="preserve">
<rect x="2.75" y="4" style="fill:#333333;" width="0.5" height="16"/>
<rect x="11.75" y="4" style="fill:#333333;" width="0.5" height="16"/>
<rect x="3.5" y="11.75" style="fill:#333333;" width="8" height="0.5"/>
<path style="fill:#333333;" d="M21,20.25h-5.25V20c0-1.336,1.198-2.487,2.467-3.706c1.245-1.196,2.533-2.434,2.533-3.794
	c0-1.39-1.168-2.25-2.25-2.25s-2.25,0.86-2.25,2.25h-0.5c0-1.699,1.428-2.75,2.75-2.75s2.75,1.051,2.75,2.75
	c0,1.573-1.366,2.886-2.688,4.155c-1.101,1.058-2.145,2.061-2.294,3.095H21V20.25z"/>
</svg>






