<?xml version="1.0" encoding="iso-8859-1"?>
<svg version="1.1" id="&#x56FE;&#x5C42;_1" xmlns="http://www.w3.org/2000/svg" xmlns:xlink="http://www.w3.org/1999/xlink" x="0px"
	 y="0px" viewBox="0 0 24 24" style="enable-background:new 0 0 24 24;" xml:space="preserve">
<rect x="2.75" y="4" style="fill:#333333;" width="0.5" height="16"/>
<rect x="11.75" y="4" style="fill:#333333;" width="0.5" height="16"/>
<rect x="3.5" y="11.75" style="fill:#333333;" width="8" height="0.5"/>
<path style="fill:#333333;" d="M18.5,20.25c-1.368,0-2.216-0.615-2.685-1.132l0.369-0.336c0.402,0.441,1.13,0.968,2.315,0.968
	c0.527,0,2.25-0.162,2.25-2.25c0-1.722-1.215-2.75-3.25-2.75l-0.197-0.403l3.187-4.097H16v-0.5h5l0.197,0.403l-3.201,4.116
	c2.021,0.168,3.254,1.373,3.254,3.23C21.25,19.529,19.769,20.25,18.5,20.25z"/>
</svg>






