<?xml version="1.0" encoding="iso-8859-1"?>
<svg version="1.1" id="&#x56FE;&#x5C42;_1" xmlns="http://www.w3.org/2000/svg" xmlns:xlink="http://www.w3.org/1999/xlink" x="0px"
	 y="0px" viewBox="0 0 24 24" style="enable-background:new 0 0 24 24;" xml:space="preserve">
<path style="fill:#333333;" d="M9.033,22.25c-1,0-1.847-0.748-1.971-1.74l-1.187-9.494l0.496-0.062l1.187,9.494
	c0.093,0.743,0.727,1.303,1.475,1.303c0.426,0,0.833-0.184,1.115-0.503c0.282-0.319,0.413-0.745,0.36-1.168l-1.159-9.276
	l0.496-0.062l1.159,9.275c0.071,0.565-0.104,1.135-0.481,1.562S9.603,22.25,9.033,22.25z"/>
<path style="fill:#333333;" d="M6.5,11.25c-0.134,0-0.266-0.006-0.397-0.017C3.662,11.031,1.75,8.952,1.75,6.5
	c0-2.619,2.131-4.75,4.75-4.75l0.036,0.002L22.25,4.034v4.929L9.637,11.019C8.295,11.173,7.244,11.25,6.5,11.25z M6.482,2.25
	C4.147,2.26,2.25,4.163,2.25,6.5c0,2.194,1.71,4.054,3.894,4.235C6.261,10.745,6.38,10.75,6.5,10.75
	c0.725,0,1.757-0.076,3.068-0.227L21.75,8.538V4.466L6.482,2.25z"/>
<rect x="18.25" y="4.1" style="fill:#333333;" width="0.5" height="4.8"/>
<rect x="15.758" y="9.006" transform="matrix(0.9871 -0.1603 0.1603 0.9871 -1.2391 3.1488)" style="fill:#333333;" width="6.283" height="0.5"/>
<rect x="17.875" y="-0.228" transform="matrix(0.1437 -0.9896 0.9896 0.1437 11.872 21.0948)" style="fill:#333333;" width="0.5" height="7.831"/>
<path style="fill:#333333;" d="M6.5,8.25c-0.965,0-1.75-0.785-1.75-1.75S5.535,4.75,6.5,4.75S8.25,5.535,8.25,6.5
	S7.465,8.25,6.5,8.25z M6.5,5.25c-0.689,0-1.25,0.561-1.25,1.25S5.811,7.75,6.5,7.75S7.75,7.189,7.75,6.5S7.189,5.25,6.5,5.25z"/>
</svg>






