<?xml version="1.0" encoding="iso-8859-1"?>
<svg version="1.1" id="&#x56FE;&#x5C42;_1" xmlns="http://www.w3.org/2000/svg" xmlns:xlink="http://www.w3.org/1999/xlink" x="0px"
	 y="0px" viewBox="0 0 24 24" style="enable-background:new 0 0 24 24;" xml:space="preserve">
<path style="fill:#333333;" d="M16.603,13.646c-0.197,0-0.396-0.013-0.594-0.038L5.536,12.257c-0.163-0.021-0.286-0.161-0.286-0.326
	V6.069c0-0.166,0.124-0.306,0.287-0.326l10.472-1.352c1.328-0.17,2.661,0.237,3.663,1.12C20.675,6.393,21.25,7.665,21.25,9
	s-0.575,2.607-1.578,3.489C18.819,13.239,17.726,13.646,16.603,13.646z M5.75,11.78l10.323,1.332
	c1.187,0.153,2.375-0.211,3.269-0.999C20.236,11.327,20.75,10.192,20.75,9s-0.514-2.327-1.408-3.114s-2.084-1.152-3.269-0.999
	L5.75,6.22V11.78z M5.6,11.761L5.6,11.761C5.6,11.761,5.6,11.761,5.6,11.761z M5.602,6.239L5.602,6.239
	C5.601,6.239,5.601,6.239,5.602,6.239z"/>
<polygon style="fill:#333333;" points="1.75,14.431 1.75,3.569 5.624,5.783 5.376,6.217 2.25,4.431 2.25,13.569 5.376,11.783 
	5.624,12.217 "/>
<path style="fill:#333333;" d="M13.317,22.25c-0.936,0-1.803-0.465-2.32-1.244c-0.517-0.779-0.609-1.759-0.246-2.62l2.519-5.982
	l0.461,0.193l-2.519,5.982c-0.298,0.707-0.222,1.511,0.202,2.149c0.425,0.64,1.136,1.021,1.904,1.021
	c0.921,0,1.747-0.549,2.105-1.398l3.347-7.948l0.461,0.193l-3.347,7.949C15.447,21.581,14.439,22.25,13.317,22.25z"/>
<path style="fill:#333333;" d="M17.5,13.75c-2.619,0-4.75-2.131-4.75-4.75s2.131-4.75,4.75-4.75S22.25,6.381,22.25,9
	S20.119,13.75,17.5,13.75z M17.5,4.75c-2.344,0-4.25,1.907-4.25,4.25s1.906,4.25,4.25,4.25s4.25-1.907,4.25-4.25
	S19.844,4.75,17.5,4.75z"/>
</svg>






