<?xml version="1.0" encoding="iso-8859-1"?>
<svg version="1.1" id="&#x56FE;&#x5C42;_1" xmlns="http://www.w3.org/2000/svg" xmlns:xlink="http://www.w3.org/1999/xlink" x="0px"
	 y="0px" viewBox="0 0 24 24" style="enable-background:new 0 0 24 24;" xml:space="preserve">
<g>
	<defs>
		<rect id="SVGID_1_" width="24" height="24"/>
	</defs>
	<clipPath id="SVGID_00000173141449437907214000000016246974142788774287_">
		<use xlink:href="#SVGID_1_"  style="overflow:visible;"/>
	</clipPath>
	<g style="clip-path:url(#SVGID_00000173141449437907214000000016246974142788774287_);">
		<path style="fill:#333333;" d="M2.379,17.773l-0.158-0.475c0.024-0.008,2.453-0.823,4.302-1.825
			c1.862-1.008,2.264-1.333,3.901-5.604c1.419-3.705,5.103-6.768,8.957-7.447l0.086,0.492c-3.631,0.64-7.238,3.64-8.576,7.133
			c-1.635,4.268-2.083,4.757-4.129,5.864C4.873,16.937,2.404,17.765,2.379,17.773z"/>
		<path style="fill:#333333;" d="M12.582,18.312c-0.584,0-1.212-0.224-1.824-0.652c-0.345-0.242-3.438-2.318-5.81-0.893L4.69,16.34
			c2.643-1.588,5.982,0.65,6.355,0.91c0.562,0.394,1.133,0.575,1.632,0.561c0.492-0.027,0.912-0.271,1.215-0.703
			s0.388-0.91,0.245-1.381c-0.146-0.485-0.521-0.949-1.084-1.343c-0.098-0.068-0.223-0.147-0.366-0.237
			c-1.053-0.663-3.245-2.041-2.259-4.288l0.458,0.201c-0.75,1.708,0.674,2.787,2.067,3.664c0.151,0.095,0.283,0.178,0.387,0.25
			c0.655,0.459,1.096,1.015,1.275,1.607c0.188,0.624,0.08,1.251-0.313,1.813c-0.395,0.562-0.946,0.879-1.597,0.915
			C12.664,18.312,12.623,18.312,12.582,18.312z"/>
		<path style="fill:#333333;" d="M12.613,13.686l-0.473-0.16c2.092-6.167,4.279-7.711,9.395-8.968l0.119,0.485
			C16.736,6.252,14.631,7.74,12.613,13.686z"/>
		<path style="fill:#333333;" d="M9.177,21.321c-0.083-1.312,0.675-3.358,1.088-4.257l0.454,0.209
			c-0.395,0.858-1.121,2.804-1.043,4.017L9.177,21.321z"/>
	</g>
</g>
</svg>






