<?xml version="1.0" encoding="iso-8859-1"?>
<svg version="1.1" id="&#x56FE;&#x5C42;_1" xmlns="http://www.w3.org/2000/svg" xmlns:xlink="http://www.w3.org/1999/xlink" x="0px"
	 y="0px" viewBox="0 0 24 24" style="enable-background:new 0 0 24 24;" xml:space="preserve">
<path style="fill:#333333;" d="M10.954,16.633c-0.843,0-1.538-0.25-2.032-0.744l0.354-0.354c0.686,0.686,1.894,0.786,3.401,0.283
	c1.566-0.522,3.246-1.627,4.73-3.111s2.589-3.165,3.111-4.731c0.503-1.508,0.402-2.716-0.283-3.401l0.354-0.354
	c0.826,0.826,0.97,2.215,0.403,3.913c-0.546,1.639-1.693,3.388-3.231,4.926s-3.287,2.686-4.926,3.231
	C12.152,16.52,11.52,16.633,10.954,16.633z"/>
<rect x="13.798" y="3.191" transform="matrix(0.7074 -0.7069 0.7069 0.7074 1.5019 11.0101)" style="fill:#333333;" width="0.5" height="1"/>
<rect x="11.323" y="5.666" transform="matrix(0.7071 -0.7071 0.7071 0.7071 -0.9703 9.9895)" style="fill:#333333;" width="0.5" height="1"/>
<rect x="9.202" y="8.495" transform="matrix(0.7071 -0.7071 0.7071 0.7071 -3.5918 9.3178)" style="fill:#333333;" width="0.5" height="1"/>
<rect x="8.495" y="12.03" transform="matrix(0.7071 -0.7071 0.7071 0.7071 -6.299 9.8534)" style="fill:#333333;" width="0.5" height="1"/>
<rect x="17.688" y="2.131" transform="matrix(0.7071 -0.7071 0.7071 0.7071 3.3935 13.4543)" style="fill:#333333;" width="0.5" height="1"/>
<rect x="17.334" y="6.227" transform="matrix(0.7069 -0.7074 0.7074 0.7069 0.0423 14.5562)" style="fill:#333333;" width="0.5" height="2"/>
<rect x="14.859" y="8.701" transform="matrix(0.7069 -0.7074 0.7074 0.7069 -2.4335 13.5312)" style="fill:#333333;" width="0.5" height="2"/>
<rect x="12.03" y="10.823" transform="matrix(0.7072 -0.707 0.707 0.7072 -4.7634 12.1434)" style="fill:#333333;" width="0.5" height="2"/>
<path style="fill:#333333;" d="M5.209,21.35c-0.448,0-0.896-0.17-1.237-0.511c-0.683-0.683-0.683-1.793,0-2.476L6.8,15.535
	c0.66-0.662,1.813-0.662,2.475,0l0,0l0,0c0.682,0.683,0.682,1.792,0,2.475l-2.828,2.829C6.105,21.18,5.657,21.35,5.209,21.35z
	 M8.038,15.522c-0.334,0-0.648,0.13-0.884,0.366l-2.829,2.828c-0.488,0.487-0.488,1.281,0,1.769c0.487,0.486,1.281,0.485,1.768,0
	l2.828-2.829c0.487-0.487,0.487-1.28,0-1.768l0,0C8.686,15.652,8.372,15.522,8.038,15.522z"/>
</svg>






