<?xml version="1.0" encoding="iso-8859-1"?>
<svg version="1.1" id="&#x56FE;&#x5C42;_1" xmlns="http://www.w3.org/2000/svg" xmlns:xlink="http://www.w3.org/1999/xlink" x="0px"
	 y="0px" viewBox="0 0 24 24" style="enable-background:new 0 0 24 24;" xml:space="preserve">
<path style="fill:#333333;" d="M12,14.25c-1.241,0-2.25-1.01-2.25-2.25c0-1.241,1.009-2.25,2.25-2.25c1.24,0,2.25,1.009,2.25,2.25
	C14.25,13.24,13.24,14.25,12,14.25z M12,10.25c-0.965,0-1.75,0.785-1.75,1.75s0.785,1.75,1.75,1.75s1.75-0.785,1.75-1.75
	S12.965,10.25,12,10.25z"/>
<path style="fill:#333333;" d="M7.166,8.886l-0.42-0.271c0.239-0.37,0.517-0.715,0.827-1.026c0.295-0.296,0.622-0.564,0.971-0.796
	l0.277,0.416C8.499,7.422,8.199,7.669,7.927,7.941C7.642,8.228,7.386,8.545,7.166,8.886z"/>
<path style="fill:#333333;" d="M5.853,13.135C5.785,12.764,5.75,12.382,5.75,12s0.035-0.764,0.103-1.135l0.492,0.091
	C6.282,11.297,6.25,11.648,6.25,12s0.032,0.703,0.095,1.045L5.853,13.135z"/>
<path style="fill:#333333;" d="M8.543,17.208c-0.351-0.233-0.677-0.501-0.971-0.796c-0.311-0.312-0.589-0.657-0.827-1.026
	l0.42-0.271c0.219,0.34,0.476,0.657,0.762,0.944c0.27,0.271,0.57,0.519,0.894,0.733L8.543,17.208z"/>
<path style="fill:#333333;" d="M12,18.25c-0.413,0-0.827-0.041-1.229-0.121l0.098-0.49c0.741,0.147,1.522,0.147,2.262,0l0.098,0.49
	C12.827,18.209,12.414,18.25,12,18.25z"/>
<path style="fill:#333333;" d="M15.456,17.208l-0.277-0.416c0.321-0.213,0.621-0.46,0.895-0.733
	c0.285-0.286,0.542-0.604,0.762-0.944l0.42,0.271c-0.239,0.369-0.518,0.715-0.828,1.026C16.131,16.709,15.804,16.978,15.456,17.208z
	"/>
<path style="fill:#333333;" d="M18.147,13.135l-0.492-0.09C17.718,12.701,17.75,12.35,17.75,12c0-0.349-0.032-0.701-0.095-1.045
	l0.492-0.09c0.068,0.374,0.103,0.755,0.103,1.135C18.25,12.379,18.216,12.761,18.147,13.135z"/>
<path style="fill:#333333;" d="M16.835,8.886c-0.221-0.341-0.478-0.659-0.762-0.945c-0.274-0.274-0.575-0.521-0.895-0.732
	l0.277-0.417c0.347,0.23,0.673,0.499,0.971,0.796c0.31,0.311,0.588,0.656,0.828,1.026L16.835,8.886z"/>
<path style="fill:#333333;" d="M10.869,6.361l-0.098-0.49c0.806-0.162,1.656-0.161,2.458,0l-0.098,0.49
	C12.392,6.214,11.61,6.213,10.869,6.361z"/>
<path style="fill:#333333;" d="M13.15,22.186l-0.055-0.496c0.365-0.041,0.729-0.103,1.08-0.184c0.337-0.076,0.672-0.172,0.993-0.282
	l0.162,0.473c-0.338,0.116-0.689,0.217-1.044,0.298C13.918,22.078,13.536,22.143,13.15,22.186z M10.849,22.186
	c-0.385-0.043-0.768-0.107-1.137-0.191c-0.354-0.081-0.705-0.182-1.044-0.298l0.163-0.473c0.322,0.11,0.656,0.206,0.992,0.282
	c0.351,0.081,0.715,0.143,1.081,0.184L10.849,22.186z M18.073,20.258l-0.297-0.402c0.232-0.172,0.457-0.353,0.672-0.543
	c0.244-0.215,0.478-0.441,0.691-0.673l0.367,0.34c-0.227,0.244-0.471,0.481-0.728,0.708C18.554,19.888,18.317,20.078,18.073,20.258z
	 M5.927,20.258c-0.244-0.18-0.479-0.37-0.707-0.57c-0.258-0.229-0.502-0.466-0.726-0.708l0.366-0.34
	c0.213,0.229,0.446,0.456,0.69,0.673c0.216,0.19,0.44,0.371,0.673,0.543L5.927,20.258z M21.098,16.726l-0.443-0.23
	c0.142-0.272,0.272-0.555,0.388-0.839c0.105-0.263,0.201-0.53,0.284-0.805l0.479,0.145c-0.087,0.288-0.188,0.571-0.299,0.848
	C21.384,16.143,21.247,16.439,21.098,16.726z M2.902,16.726c-0.15-0.289-0.287-0.586-0.407-0.882
	c-0.112-0.276-0.212-0.559-0.3-0.847l0.479-0.146c0.083,0.274,0.179,0.543,0.285,0.806c0.114,0.281,0.244,0.563,0.387,0.839
	L2.902,16.726z M22.25,12h-0.5c0-0.328-0.017-0.656-0.049-0.975c-0.031-0.324-0.081-0.652-0.146-0.975l0.49-0.1
	c0.068,0.34,0.121,0.685,0.154,1.025C22.232,11.311,22.25,11.656,22.25,12z M2.25,12h-0.5c0-0.343,0.017-0.688,0.051-1.025
	c0.034-0.346,0.086-0.691,0.154-1.025l0.49,0.1c-0.065,0.317-0.114,0.646-0.147,0.975C2.266,11.346,2.25,11.674,2.25,12z
	 M20.654,7.505c-0.127-0.244-0.263-0.48-0.409-0.711c-0.162-0.256-0.337-0.507-0.521-0.744l0.396-0.306
	c0.192,0.25,0.376,0.513,0.547,0.782c0.153,0.242,0.297,0.492,0.43,0.748L20.654,7.505z M3.345,7.505l-0.443-0.23
	c0.133-0.256,0.277-0.505,0.43-0.748c0.17-0.269,0.354-0.532,0.548-0.782L4.275,6.05C4.091,6.289,3.916,6.539,3.755,6.794
	C3.609,7.024,3.472,7.262,3.345,7.505z M6.223,4.145L5.927,3.742C6.2,3.541,6.485,3.352,6.774,3.18
	c0.315-0.187,0.644-0.359,0.978-0.511l0.207,0.455C7.642,3.269,7.329,3.432,7.03,3.61C6.755,3.773,6.483,3.954,6.223,4.145z
	 M17.776,4.145c-0.257-0.189-0.528-0.37-0.807-0.535c-0.3-0.178-0.612-0.341-0.93-0.486l0.207-0.455
	c0.334,0.152,0.663,0.324,0.979,0.511c0.292,0.173,0.577,0.362,0.848,0.562L17.776,4.145z M13.095,2.311
	c-0.717-0.082-1.472-0.082-2.19,0l-0.056-0.497c0.755-0.085,1.546-0.085,2.302,0L13.095,2.311z"/>
</svg>






