<?xml version="1.0" encoding="iso-8859-1"?>
<svg version="1.1" id="&#x56FE;&#x5C42;_1" xmlns="http://www.w3.org/2000/svg" xmlns:xlink="http://www.w3.org/1999/xlink" x="0px"
	 y="0px" viewBox="0 0 24 24" style="enable-background:new 0 0 24 24;" xml:space="preserve">
<path style="fill:#333333;" d="M20.25,11h-0.5v-0.5c0-4.273-3.477-7.75-7.75-7.75S4.25,6.227,4.25,10.5V11h-0.5v-0.5
	c0-4.549,3.701-8.25,8.25-8.25s8.25,3.701,8.25,8.25V11z"/>
<path style="fill:#333333;" d="M12,21.496c-3.041,0-6.082-0.258-7.112-0.772c-1.745-0.872-1.496-2.878-1.12-3.816l0.464,0.186
	c-0.037,0.093-0.889,2.3,0.879,3.184c1.932,0.965,11.845,0.965,13.777,0c1.773-0.887,0.917-3.09,0.879-3.184l0.465-0.186
	c0.375,0.938,0.624,2.944-1.121,3.816C18.082,21.238,15.041,21.496,12,21.496z"/>
<path style="fill:#333333;" d="M18,17.75H6c-2.068,0-3.75-1.683-3.75-3.75c0-2.068,1.682-3.75,3.75-3.75h12
	c2.067,0,3.75,1.682,3.75,3.75C21.75,16.067,20.067,17.75,18,17.75z M6,10.75c-1.792,0-3.25,1.458-3.25,3.25S4.208,17.25,6,17.25h12
	c1.792,0,3.25-1.458,3.25-3.25s-1.458-3.25-3.25-3.25H6z"/>
<path style="fill:#333333;" d="M5.612,14.724l-0.224-0.447l0.796-0.397c0.829-0.416,1.798-0.456,2.659-0.111l0.212,0.085
	c0.594,0.239,1.262,0.209,1.833-0.076c0.699-0.35,1.516-0.384,2.243-0.094l0.479,0.192c0.558,0.224,1.188,0.196,1.724-0.072
	c0.73-0.363,1.603-0.365,2.331,0l0.947,0.474l-0.225,0.447l-0.946-0.474c-0.588-0.295-1.294-0.295-1.884,0
	c-0.662,0.333-1.441,0.366-2.133,0.09l-0.479-0.192c-0.593-0.237-1.261-0.21-1.833,0.076c-0.698,0.35-1.515,0.386-2.243,0.094
	l-0.212-0.085c-0.728-0.293-1.547-0.259-2.249,0.094L5.612,14.724z"/>
<circle style="fill:#333333;" cx="8.5" cy="7.525" r="1.25"/>
<circle style="fill:#333333;" cx="11.875" cy="6.15" r="1.25"/>
</svg>






