<?xml version="1.0" encoding="iso-8859-1"?>
<svg version="1.1" id="&#x56FE;&#x5C42;_1" xmlns="http://www.w3.org/2000/svg" xmlns:xlink="http://www.w3.org/1999/xlink" x="0px"
	 y="0px" viewBox="0 0 24 24" style="enable-background:new 0 0 24 24;" xml:space="preserve">
<path style="fill:#333333;" d="M22.25,11.25H1.75V11c0-5.101,4.598-9.25,10.25-9.25c5.652,0,10.25,4.149,10.25,9.25V11.25z
	 M2.254,10.75h19.492c-0.148-4.709-4.463-8.5-9.746-8.5S2.402,6.041,2.254,10.75z"/>
<path style="fill:#333333;" d="M22.25,22.25H1.75v-3.5h20.5V22.25z M2.25,21.75h19.5v-2.5H2.25V21.75z"/>
<polygon style="fill:#333333;" points="19.292,16.296 15.637,14.285 12,16.285 8.364,14.285 4.708,16.296 1.852,14.201 
	2.148,13.799 4.746,15.704 8.364,13.715 12,15.715 15.637,13.715 19.253,15.704 21.853,13.799 22.147,14.201 "/>
</svg>






