<?xml version="1.0" encoding="iso-8859-1"?>
<svg version="1.1" id="&#x56FE;&#x5C42;_1" xmlns="http://www.w3.org/2000/svg" xmlns:xlink="http://www.w3.org/1999/xlink" x="0px"
	 y="0px" viewBox="0 0 24 24" style="enable-background:new 0 0 24 24;" xml:space="preserve">
<path style="fill:#333333;" d="M7.25,12.25h-4.5V7c0-5.19,4.208-5.25,4.25-5.25h0.25V12.25z M3.25,11.75h3.5V2.267
	C5.904,2.362,3.25,2.979,3.25,7V11.75z"/>
<path style="fill:#333333;" d="M21.25,8.25H6.75v-3.5h14.5V8.25z M7.25,7.75h13.5v-2.5H7.25V7.75z"/>
<path style="fill:#333333;" d="M15.847,22.25H6.153l1-3H2.75v-4.5h18.5V15c0,1.47-0.68,4.25-3.25,4.25h-3.153L15.847,22.25z
	 M6.847,21.75h8.307l-1-3H18c2.331,0,2.687-2.654,2.74-3.5H3.25v3.5h4.597L6.847,21.75z"/>
</svg>






