<?xml version="1.0" encoding="iso-8859-1"?>
<svg version="1.1" id="&#x56FE;&#x5C42;_1" xmlns="http://www.w3.org/2000/svg" xmlns:xlink="http://www.w3.org/1999/xlink" x="0px"
	 y="0px" viewBox="0 0 24 24" style="enable-background:new 0 0 24 24;" xml:space="preserve">
<path style="fill:#333333;" d="M12,11.25c-2.619,0-4.75-2.131-4.75-4.75S9.381,1.75,12,1.75s4.75,2.131,4.75,4.75
	S14.619,11.25,12,11.25z M12,2.25c-2.343,0-4.25,1.907-4.25,4.25s1.907,4.25,4.25,4.25c2.344,0,4.25-1.907,4.25-4.25
	S14.344,2.25,12,2.25z"/>
<path style="fill:#333333;" d="M22.25,22h-0.5V3.875c0-0.896-0.729-1.625-1.625-1.625S18.5,2.979,18.5,3.875V14
	c0,0.488-0.16,0.849-0.478,1.071c-0.727,0.51-2.102,0.111-3.217-0.291c-1.448-0.522-2.792-0.53-2.806-0.53
	c-6.237,0-9.5,5.045-9.5,7.75H2c0-3.364,3.896-8.25,10-8.25c0.059,0,1.441,0.007,2.976,0.56c0.532,0.193,2.152,0.775,2.76,0.353
	C17.913,14.537,18,14.32,18,14V3.875c0-1.172,0.953-2.125,2.125-2.125s2.125,0.953,2.125,2.125V22z"/>
<rect x="1" y="21.75" style="fill:#333333;" width="22" height="0.5"/>
</svg>






