<?xml version="1.0" encoding="iso-8859-1"?>
<svg version="1.1" id="&#x56FE;&#x5C42;_1" xmlns="http://www.w3.org/2000/svg" xmlns:xlink="http://www.w3.org/1999/xlink" x="0px"
	 y="0px" viewBox="0 0 24 24" style="enable-background:new 0 0 24 24;" xml:space="preserve">
<path style="fill:#333333;" d="M22.25,20.75h-3.5V9.25h3.5V20.75z M19.25,20.25h2.5V9.75h-2.5V20.25z"/>
<path style="fill:#333333;" d="M19.25,20.75h-9.216c-1.553,0-2.16-1.069-2.273-1.702c-0.062-0.346-0.379-2.405-0.968-6.294H3.502
	c-0.966,0-1.752-0.786-1.752-1.752c0-0.469,0.183-0.909,0.514-1.239c0.33-0.33,0.769-0.511,1.236-0.511c0.001,0,0.001,0,0.002,0
	c5.62,0.005,8.923,0.006,9.856,0.001c-0.13-0.458-0.591-0.923-1.074-1.411c-0.714-0.719-1.523-1.535-1.523-2.604
	c0-1.338,0.506-1.772,0.807-1.912c0.422-0.195,0.939-0.074,1.415,0.332c0.566,0.482,2.647,2.385,6.187,5.657l0.08,0.074V20.75z
	 M3.5,9.752c-0.333,0-0.647,0.13-0.883,0.365c-0.236,0.236-0.367,0.55-0.367,0.884c0,0.691,0.562,1.253,1.252,1.253h3.721
	l0.032,0.213c0.601,3.965,0.937,6.15,0.998,6.493c0.023,0.132,0.275,1.29,1.781,1.29h8.716V9.609
	c-3.485-3.222-5.534-5.095-6.091-5.569c-0.322-0.274-0.644-0.37-0.881-0.259c-0.329,0.152-0.517,0.683-0.517,1.458
	c0,0.863,0.7,1.569,1.377,2.251c0.646,0.65,1.255,1.265,1.255,2.01v0.095L13.83,9.666c-0.085,0.096-0.084,0.096-10.329,0.086
	C3.501,9.752,3.5,9.752,3.5,9.752z"/>
</svg>






