<?xml version="1.0" encoding="iso-8859-1"?>
<svg version="1.1" id="&#x56FE;&#x5C42;_1" xmlns="http://www.w3.org/2000/svg" xmlns:xlink="http://www.w3.org/1999/xlink" x="0px"
	 y="0px" viewBox="0 0 24 24" style="enable-background:new 0 0 24 24;" xml:space="preserve">
<path style="fill:#333333;" d="M14.776,5.25h-11.5v-3.5h11.5V5.25z M3.776,4.75h10.5v-2.5h-10.5V4.75z"/>
<path style="fill:#333333;" d="M13.026,22.25c-0.968,0-1.754-0.786-1.754-1.752v-3.79c-3.954-0.6-5.957-0.908-6.296-0.969
	c-0.632-0.113-1.7-0.72-1.7-2.273V4.75h11.36l0.074,0.081c3.242,3.542,5.132,5.627,5.617,6.199c0.405,0.477,0.526,0.993,0.331,1.415
	c-0.14,0.302-0.573,0.807-1.909,0.807c-1.068,0-1.873-0.812-2.584-1.53c-0.48-0.484-0.938-0.947-1.393-1.077
	c-0.004,0.697-0.006,2.998,0.001,9.853C14.775,21.463,13.991,22.249,13.026,22.25z M3.776,5.25v8.215
	c0,1.507,1.156,1.758,1.288,1.781c0.337,0.061,2.461,0.387,6.496,0.999l0.212,0.032v4.22c0,0.69,0.562,1.252,1.252,1.252
	c0.69-0.001,1.251-0.562,1.25-1.252c-0.011-10.246-0.011-10.246,0.092-10.331l0.07-0.058h0.09c0.745,0,1.353,0.613,1.995,1.261
	c0.673,0.679,1.369,1.381,2.229,1.381c0.772,0,1.303-0.188,1.455-0.517c0.11-0.238,0.016-0.559-0.258-0.881
	c-0.478-0.562-2.339-2.616-5.531-6.104H3.776z"/>
</svg>






