<?xml version="1.0" encoding="iso-8859-1"?>
<svg version="1.1" id="&#x56FE;&#x5C42;_1" xmlns="http://www.w3.org/2000/svg" xmlns:xlink="http://www.w3.org/1999/xlink" x="0px"
	 y="0px" viewBox="0 0 24 24" style="enable-background:new 0 0 24 24;" xml:space="preserve">
<path style="fill:#333333;" d="M12,22.25C6.348,22.25,1.75,17.652,1.75,12C1.75,6.348,6.348,1.75,12,1.75
	c5.652,0,10.25,4.598,10.25,10.25C22.25,17.652,17.652,22.25,12,22.25z M12,2.25c-5.376,0-9.75,4.374-9.75,9.75
	s4.374,9.75,9.75,9.75s9.75-4.374,9.75-9.75S17.376,2.25,12,2.25z"/>
<rect x="3.458" y="10.75" transform="matrix(0.4141 -0.9102 0.9102 0.4141 -4.4465 15.0921)" style="fill:#333333;" width="12.083" height="0.5"/>
<rect x="9" y="12.75" style="fill:#333333;" width="6" height="0.5"/>
<rect x="14.25" y="4.958" transform="matrix(0.9104 -0.4138 0.4138 0.9104 -3.2521 6.9861)" style="fill:#333333;" width="0.5" height="12.083"/>
</svg>






