<?xml version="1.0" encoding="iso-8859-1"?>
<svg version="1.1" id="&#x56FE;&#x5C42;_1" xmlns="http://www.w3.org/2000/svg" xmlns:xlink="http://www.w3.org/1999/xlink" x="0px"
	 y="0px" viewBox="0 0 24 24" style="enable-background:new 0 0 24 24;" xml:space="preserve">
<path style="fill:#333333;" d="M5.263,20.736h-3.5v-11.5h3.5V20.736z M2.263,20.236h2.5v-10.5h-2.5V20.236z"/>
<path style="fill:#333333;" d="M13.479,20.737H4.763V9.377l0.081-0.075c3.602-3.296,5.63-5.134,6.199-5.617
	c0.478-0.406,0.994-0.527,1.416-0.331c0.301,0.139,0.807,0.573,0.807,1.908c0,1.069-0.812,1.874-1.53,2.584
	c-0.485,0.48-0.947,0.938-1.077,1.393c0.93,0.005,4.235,0.004,9.852-0.001c0,0,0.001,0,0.002,0c0.965,0,1.75,0.784,1.751,1.748
	c0,0.968-0.786,1.754-1.753,1.754h-3.789c-0.571,3.77-0.907,5.945-0.97,6.296C15.639,19.669,15.032,20.737,13.479,20.737z
	 M5.263,20.237h8.216c1.506,0,1.757-1.156,1.78-1.288c0.044-0.246,0.254-1.573,1-6.495l0.032-0.213h4.219
	c0.69,0,1.253-0.562,1.253-1.252c-0.001-0.69-0.562-1.25-1.251-1.25c-0.001,0-0.001,0-0.002,0
	c-10.247,0.011-10.25,0.01-10.334-0.097l-0.054-0.068V9.487c0-0.745,0.612-1.352,1.261-1.994c0.68-0.673,1.382-1.369,1.382-2.229
	c0-0.772-0.188-1.303-0.517-1.455c-0.238-0.11-0.559-0.017-0.882,0.258c-0.56,0.476-2.557,2.285-6.104,5.53V20.237z"/>
</svg>






