<?xml version="1.0" encoding="iso-8859-1"?>
<svg version="1.1" id="&#x56FE;&#x5C42;_1" xmlns="http://www.w3.org/2000/svg" xmlns:xlink="http://www.w3.org/1999/xlink" x="0px"
	 y="0px" viewBox="0 0 24 24" style="enable-background:new 0 0 24 24;" xml:space="preserve">
<path style="fill:#333333;" d="M14.008,22.25H8.25c-2.478,0-4.996-3.688-4.996-5.75c0-1.435,0.47-2.483,1.396-3.115l0.282,0.412
	C4.14,14.339,3.755,15.223,3.755,16.5c0,2.025,2.455,5.25,4.496,5.25h5.757c2.118,0,3.29-1.903,3.29-3.22V12.3
	c0-0.757-0.616-1.374-1.373-1.376c-0.001,0-0.003,0-0.004,0c-0.364,0-0.706,0.141-0.964,0.397c-0.259,0.257-0.401,0.601-0.402,0.966
	l-0.5,0.055c0.001-0.555,0.196-1.023,0.55-1.375c0.353-0.35,0.819-0.543,1.315-0.543c0.003,0,0.005,0,0.007,0
	c1.031,0.003,1.871,0.844,1.871,1.876v6.23C17.798,20.326,16.275,22.25,14.008,22.25z"/>
<path style="fill:#333333;" d="M5.741,14.723h-0.5V3.831c0-1.025,0.833-1.858,1.858-1.858s1.859,0.833,1.859,1.858v7.993h-0.5V3.831
	c0-0.749-0.609-1.358-1.359-1.358c-0.749,0-1.358,0.609-1.358,1.358V14.723z"/>
<path style="fill:#333333;" d="M11.762,12.214h-0.5v-2.31c0-0.635-0.517-1.152-1.152-1.152S8.958,9.269,8.958,9.904V12h-0.5V9.904
	c0-0.911,0.741-1.652,1.652-1.652c0.911,0,1.652,0.741,1.652,1.652V12.214z"/>
<path style="fill:#333333;" d="M14.555,12.502h-0.5v-1.598c0-0.635-0.517-1.152-1.152-1.152s-1.152,0.517-1.152,1.152v1.425h-0.5
	v-1.425c0-0.911,0.741-1.652,1.652-1.652s1.652,0.741,1.652,1.652V12.502z"/>
<rect x="5.5" y="3.75" style="fill:#333333;" width="15" height="0.5"/>
<polygon style="fill:#333333;" points="18.167,6.436 17.833,6.064 20.126,4 17.833,1.936 18.167,1.564 20.874,4 "/>
</svg>






