<?xml version="1.0" encoding="iso-8859-1"?>
<svg version="1.1" id="&#x56FE;&#x5C42;_1" xmlns="http://www.w3.org/2000/svg" xmlns:xlink="http://www.w3.org/1999/xlink" x="0px"
	 y="0px" viewBox="0 0 24 24" style="enable-background:new 0 0 24 24;" xml:space="preserve">
<path style="fill:#333333;" d="M17.75,8.25h-11V7c0-1.792,1.458-3.25,3.25-3.25h4.5c1.792,0,3.25,1.458,3.25,3.25V8.25z M7.25,7.75
	h10V7c0-1.517-1.233-2.75-2.75-2.75H10C8.483,4.25,7.25,5.483,7.25,7V7.75z"/>
<path style="fill:#333333;" d="M21,20.25H3c-0.689,0-1.25-0.561-1.25-1.25v-6.82l10.068,2.518c0.118,0.029,0.245,0.029,0.364,0
	L22.25,12.18V19C22.25,19.689,21.689,20.25,21,20.25z M2.25,12.82V19c0,0.413,0.336,0.75,0.75,0.75h18c0.413,0,0.75-0.337,0.75-0.75
	v-6.18l-9.447,2.361c-0.198,0.05-0.409,0.05-0.606,0L2.25,12.82z"/>
<path style="fill:#333333;" d="M22.25,13.5h-0.5V9c0-0.414-0.337-0.75-0.75-0.75H3C2.586,8.25,2.25,8.586,2.25,9v4.5h-0.5V9
	c0-0.689,0.561-1.25,1.25-1.25h18c0.689,0,1.25,0.561,1.25,1.25V13.5z"/>
<path style="fill:#333333;" d="M13.25,11.5c0,0.69-0.56,1.25-1.25,1.25s-1.25-0.56-1.25-1.25s0.56-1.25,1.25-1.25
	S13.25,10.81,13.25,11.5z"/>
</svg>






