<?xml version="1.0" encoding="iso-8859-1"?>
<svg version="1.1" id="&#x56FE;&#x5C42;_1" xmlns="http://www.w3.org/2000/svg" xmlns:xlink="http://www.w3.org/1999/xlink" x="0px"
	 y="0px" viewBox="0 0 24 24" style="enable-background:new 0 0 24 24;" xml:space="preserve">
<rect x="11.75" y="2" style="fill:#333333;" width="0.5" height="3.5"/>
<polygon style="fill:#333333;" points="14.75,8.5 14.25,8.5 14.25,5.75 9.75,5.75 9.75,8.5 9.25,8.5 9.25,5.25 14.75,5.25 "/>
<path style="fill:#333333;" d="M7.75,4h-0.5c0-1.409,0.991-2.25,2.65-2.25h5.6v0.5H9.9C9.253,2.25,7.75,2.42,7.75,4z"/>
<path style="fill:#333333;" d="M12,22.25H9.5c-2.619,0-4.75-2.131-4.75-4.75V13c0-2.619,2.131-4.75,4.75-4.75h5
	c2.619,0,4.75,2.131,4.75,4.75v0.488h-0.5V13c0-2.343-1.906-4.25-4.25-4.25h-5c-2.343,0-4.25,1.907-4.25,4.25v4.5
	c0,2.344,1.907,4.25,4.25,4.25H12V22.25z"/>
<path style="fill:#333333;" d="M17.75,22.25c-1.379,0-2.5-1.062-2.5-2.365c0-1.22,1.52-3.635,2.5-3.635s2.5,2.415,2.5,3.635
	C20.25,21.188,19.129,22.25,17.75,22.25z M17.75,16.75c-0.581,0-2,2.057-2,3.135c0,1.028,0.897,1.865,2,1.865s2-0.837,2-1.865
	C19.75,18.807,18.331,16.75,17.75,16.75z"/>
</svg>






