<?xml version="1.0" encoding="iso-8859-1"?>
<svg version="1.1" id="&#x56FE;&#x5C42;_1" xmlns="http://www.w3.org/2000/svg" xmlns:xlink="http://www.w3.org/1999/xlink" x="0px"
	 y="0px" viewBox="0 0 24 24" style="enable-background:new 0 0 24 24;" xml:space="preserve">
<path style="fill:#333333;" d="M12,22.25C6.348,22.25,1.75,17.652,1.75,12C1.75,6.348,6.348,1.75,12,1.75
	c5.652,0,10.25,4.598,10.25,10.25C22.25,17.652,17.652,22.25,12,22.25z M12,2.25c-5.376,0-9.75,4.374-9.75,9.75
	s4.374,9.75,9.75,9.75s9.75-4.374,9.75-9.75S17.376,2.25,12,2.25z"/>
<path style="fill:#333333;" d="M12.396,11.75H8.75v-5.5h3.646c1.574,0,2.854,1.233,2.854,2.75S13.97,11.75,12.396,11.75z
	 M9.25,11.25h3.146c1.298,0,2.354-1.009,2.354-2.25s-1.057-2.25-2.354-2.25H9.25V11.25z"/>
<path style="fill:#333333;" d="M13.415,17.75H8.75v-6.5h4.665c1.563,0,2.835,1.458,2.835,3.25S14.979,17.75,13.415,17.75z
	 M9.25,17.25h4.165c1.287,0,2.335-1.233,2.335-2.75s-1.048-2.75-2.335-2.75H9.25V17.25z"/>
</svg>






