<?xml version="1.0" encoding="iso-8859-1"?>
<svg version="1.1" id="&#x56FE;&#x5C42;_1" xmlns="http://www.w3.org/2000/svg" xmlns:xlink="http://www.w3.org/1999/xlink" x="0px"
	 y="0px" viewBox="0 0 24 24" style="enable-background:new 0 0 24 24;" xml:space="preserve">
<path style="fill:#333333;" d="M12,22.25C6.348,22.25,1.75,17.652,1.75,12C1.75,6.348,6.348,1.75,12,1.75
	c5.652,0,10.25,4.598,10.25,10.25C22.25,17.652,17.652,22.25,12,22.25z M12,2.25c-5.376,0-9.75,4.374-9.75,9.75
	s4.374,9.75,9.75,9.75s9.75-4.374,9.75-9.75S17.376,2.25,12,2.25z"/>
<path style="fill:#333333;" d="M15.632,11.75H8.321l-0.058-0.169c-0.278-0.81-0.365-2.685,1.14-3.312
	c0.615-0.256,1.292-0.404,1.888-0.534c1.147-0.25,1.85-0.432,1.85-0.975c0-0.341,0.221-0.451,0.315-0.483
	c0.514-0.171,1.409,0.512,1.98,1.27c0.484,0.642,1.48,2.327,0.269,4.094L15.632,11.75z M8.687,11.25h6.679
	c0.86-1.369,0.205-2.667-0.272-3.328c-0.617-0.855-1.312-1.222-1.478-1.17c0.026,0.982-1.063,1.22-2.217,1.472
	c-0.604,0.132-1.229,0.268-1.802,0.507l0,0C8.509,9.184,8.501,10.523,8.687,11.25z"/>
<path style="fill:#333333;" d="M17.75,15.75H6.25v-4.5h11.5V15.75z M6.75,15.25h10.5v-3.5H6.75V15.25z"/>
</svg>






