<?xml version="1.0" encoding="iso-8859-1"?>
<svg version="1.1" id="&#x56FE;&#x5C42;_1" xmlns="http://www.w3.org/2000/svg" xmlns:xlink="http://www.w3.org/1999/xlink" x="0px"
	 y="0px" viewBox="0 0 24 24" style="enable-background:new 0 0 24 24;" xml:space="preserve">
<path style="fill:#333333;" d="M20.75,22.25H9.25v-3.5h11.5V22.25z M9.75,21.75h10.5v-2.5H9.75V21.75z"/>
<path style="fill:#333333;" d="M20.75,19.25H9.39l-0.075-0.081c-3.304-3.61-5.141-5.639-5.617-6.199
	c-0.405-0.478-0.525-0.993-0.331-1.415c0.14-0.301,0.573-0.807,1.909-0.807c1.069,0,1.874,0.812,2.584,1.529
	c0.48,0.485,0.938,0.947,1.393,1.077c0.004-0.74,0.005-3.197-0.002-9.852c0-0.965,0.784-1.751,1.749-1.752
	c0.968,0,1.754,0.786,1.754,1.752v3.79c3.893,0.59,5.953,0.908,6.296,0.969c0.632,0.113,1.7,0.72,1.7,2.273V19.25z M9.61,18.75
	h10.64v-8.216c0-1.506-1.156-1.757-1.288-1.781c-0.341-0.061-2.526-0.397-6.495-1l-0.213-0.032v-4.22
	c0-0.69-0.562-1.252-1.252-1.252c-0.69,0.001-1.251,0.562-1.25,1.252c0.011,10.25,0.011,10.25-0.096,10.335l-0.068,0.054H9.5
	c-0.746,0-1.353-0.612-1.995-1.261c-0.673-0.68-1.369-1.382-2.229-1.382c-0.772,0-1.303,0.188-1.455,0.517
	c-0.11,0.237-0.016,0.559,0.258,0.881C4.548,13.198,6.357,15.195,9.61,18.75z"/>
</svg>






