<?xml version="1.0" encoding="iso-8859-1"?>
<svg version="1.1" id="&#x56FE;&#x5C42;_1" xmlns="http://www.w3.org/2000/svg" xmlns:xlink="http://www.w3.org/1999/xlink" x="0px"
	 y="0px" viewBox="0 0 24 24" style="enable-background:new 0 0 24 24;" xml:space="preserve">
<path style="fill:#333333;" d="M5.75,22.25h-4v-10.5h4V22.25z M2.25,21.75h3v-9.5h-3V21.75z"/>
<path style="fill:#333333;" d="M18,9.562c-0.988,0-1.843-0.561-2.229-1.464c-0.802-1.871,1.922-5.123,2.039-5.26L18,2.613
	l0.19,0.226c0.117,0.138,2.841,3.39,2.039,5.26C19.843,9.001,18.988,9.562,18,9.562z M18,3.396
	c-0.812,1.029-2.291,3.291-1.771,4.505C16.537,8.618,17.215,9.062,18,9.062s1.463-0.445,1.771-1.161
	C20.291,6.687,18.812,4.425,18,3.396z"/>
<path style="fill:#333333;" d="M15.5,21.5c-2.724,0-5.072-0.451-6.959-0.814C7.326,20.452,6.276,20.25,5.5,20.25H5.25v-5.5H5.5
	c2.135,0,2.804-0.469,3.579-1.013c0.459-0.322,0.98-0.688,1.842-0.975c1.445-0.481,2.804-0.387,3.546,0.247
	c0.443,0.379,0.631,0.923,0.53,1.531c-0.18,1.073-1.366,2.109-2.157,2.692c2.321-0.103,2.94-0.653,3.903-1.511
	c0.31-0.275,0.66-0.588,1.106-0.923c1.215-0.911,2.598-1.2,3.523-0.736c0.558,0.278,0.877,0.802,0.877,1.437
	C22.25,17.152,20.175,21.5,15.5,21.5z M5.75,19.756c0.786,0.035,1.767,0.224,2.885,0.438C10.501,20.554,12.824,21,15.5,21
	c4.369,0,6.25-4.174,6.25-5.5c0-0.451-0.207-0.793-0.6-0.989c-0.578-0.288-1.707-0.281-3,0.689
	c-0.431,0.322-0.772,0.627-1.074,0.896C15.957,17.092,15.219,17.75,12,17.75l-0.129-0.464c0.024-0.015,2.404-1.459,2.632-2.827
	c0.073-0.436-0.052-0.805-0.361-1.069c-0.608-0.521-1.784-0.577-3.062-0.152c-0.792,0.264-1.26,0.592-1.713,0.91
	C8.587,14.693,7.85,15.21,5.75,15.248V19.756z"/>
</svg>






