<?xml version="1.0" encoding="iso-8859-1"?>
<svg version="1.1" id="&#x56FE;&#x5C42;_1" xmlns="http://www.w3.org/2000/svg" xmlns:xlink="http://www.w3.org/1999/xlink" x="0px"
	 y="0px" viewBox="0 0 24 24" style="enable-background:new 0 0 24 24;" xml:space="preserve">
<path style="fill:#333333;" d="M17.75,22.25H6.25v-7.596l-4.041-2.021l2.075-8.3L8.935,1.75h6.129l4.651,2.584l2.075,8.3
	l-4.041,2.021V22.25z M6.75,21.75h10.5v-7.404l3.959-1.979l-1.925-7.7L14.936,2.25H9.065L4.716,4.666l-1.925,7.7l3.959,1.979V21.75z
	"/>
<rect x="10.25" y="1.602" transform="matrix(0.8682 -0.4961 0.4961 0.8682 -0.9112 5.8188)" style="fill:#333333;" width="0.5" height="6.047"/>
<polygon style="fill:#333333;" points="6.699,14.651 6.301,14.349 11.801,7.099 14.783,1.876 15.217,2.124 12.217,7.374 "/>
</svg>






