<?xml version="1.0" encoding="iso-8859-1"?>
<svg version="1.1" id="&#x56FE;&#x5C42;_1" xmlns="http://www.w3.org/2000/svg" xmlns:xlink="http://www.w3.org/1999/xlink" x="0px"
	 y="0px" viewBox="0 0 24 24" style="enable-background:new 0 0 24 24;" xml:space="preserve">
<path style="fill:#333333;" d="M20.455,16.25H18.5v-0.5h1.955c0.714,0,1.295-0.581,1.295-1.295c0-0.493-0.274-0.938-0.716-1.158
	L12,8.779l-9.034,4.518c-0.441,0.221-0.716,0.664-0.716,1.158c0,0.714,0.581,1.295,1.295,1.295H5.5v0.5H3.545
	c-0.99,0-1.795-0.806-1.795-1.795c0-0.685,0.38-1.3,0.992-1.605L12,8.221l9.257,4.629c0.612,0.307,0.993,0.921,0.993,1.605
	C22.25,15.444,21.444,16.25,20.455,16.25z"/>
<path style="fill:#333333;" d="M18.75,22.25H5.25v-7.5h13.5V22.25z M5.75,21.75h12.5v-6.5H5.75V21.75z"/>
<path style="fill:#333333;" d="M12.216,8.627l-0.431-0.254C12.331,7.445,13.75,4.85,13.75,4c0-0.965-0.785-1.75-1.75-1.75
	S10.25,3.035,10.25,4h-0.5c0-1.241,1.009-2.25,2.25-2.25c1.24,0,2.25,1.009,2.25,2.25C14.25,5.14,12.424,8.273,12.216,8.627z"/>
</svg>






