<?xml version="1.0" encoding="iso-8859-1"?>
<svg version="1.1" id="&#x56FE;&#x5C42;_1" xmlns="http://www.w3.org/2000/svg" xmlns:xlink="http://www.w3.org/1999/xlink" x="0px"
	 y="0px" viewBox="0 0 24 24" style="enable-background:new 0 0 24 24;" xml:space="preserve">
<path style="fill:#333333;" d="M20.703,21.25H3.296c-0.853,0-1.546-0.694-1.546-1.547c0-0.525,0.263-1.01,0.704-1.297l7.775-5.054
	c1.076-0.698,2.466-0.699,3.542,0l7.775,5.054c0.44,0.287,0.703,0.771,0.703,1.297C22.25,20.556,21.556,21.25,20.703,21.25z
	 M12,13.328c-0.521,0-1.043,0.148-1.499,0.444l-7.775,5.054C2.428,19.02,2.25,19.348,2.25,19.703c0,0.577,0.469,1.047,1.046,1.047
	h17.407c0.577,0,1.047-0.47,1.047-1.047c0-0.355-0.178-0.684-0.476-0.877l-7.776-5.054C13.043,13.477,12.521,13.328,12,13.328z"/>
<path style="fill:#333333;" d="M12.206,12.642l-0.412-0.283c0.822-1.191,2.956-4.563,2.956-5.858c0-1.517-1.233-2.75-2.75-2.75
	S9.25,4.983,9.25,6.5h-0.5c0-1.792,1.458-3.25,3.25-3.25s3.25,1.458,3.25,3.25C15.25,8.215,12.33,12.462,12.206,12.642z"/>
</svg>






