<?xml version="1.0" encoding="iso-8859-1"?>
<svg version="1.1" id="&#x56FE;&#x5C42;_1" xmlns="http://www.w3.org/2000/svg" xmlns:xlink="http://www.w3.org/1999/xlink" x="0px"
	 y="0px" viewBox="0 0 24 24" style="enable-background:new 0 0 24 24;" xml:space="preserve">
<path style="fill:#333333;" d="M19.75,16.25H4.25V8c0-2.343,1.907-4.25,4.25-4.25h7c2.344,0,4.25,1.907,4.25,4.25V16.25z
	 M4.75,15.75h14.5V8c0-2.068-1.683-3.75-3.75-3.75h-7C6.432,4.25,4.75,5.932,4.75,8V15.75z"/>
<path style="fill:#333333;" d="M21,20.25H3c-0.689,0-1.25-0.561-1.25-1.25v-2c0-0.689,0.561-1.25,1.25-1.25h18
	c0.689,0,1.25,0.561,1.25,1.25v2C22.25,19.689,21.689,20.25,21,20.25z M3,16.25c-0.414,0-0.75,0.337-0.75,0.75v2
	c0,0.413,0.336,0.75,0.75,0.75h18c0.413,0,0.75-0.337,0.75-0.75v-2c0-0.413-0.337-0.75-0.75-0.75H3z"/>
<rect x="4.5" y="10.75" style="fill:#333333;" width="4" height="0.5"/>
<rect x="15.5" y="10.75" style="fill:#333333;" width="4" height="0.5"/>
</svg>






