<?xml version="1.0" encoding="iso-8859-1"?>
<svg version="1.1" id="&#x56FE;&#x5C42;_1" xmlns="http://www.w3.org/2000/svg" xmlns:xlink="http://www.w3.org/1999/xlink" x="0px"
	 y="0px" viewBox="0 0 24 24" style="enable-background:new 0 0 24 24;" xml:space="preserve">
<path style="fill:#333333;" d="M18.5,17.25h-13c-0.635,0-1.2-0.502-1.344-1.193c-0.273-1.313-1.079-2.096-1.707-2.52
	C2.011,13.24,1.75,12.786,1.75,12.323V8c0-0.689,0.561-1.25,1.25-1.25h18c0.689,0,1.25,0.561,1.25,1.25v4.323
	c0,0.463-0.262,0.917-0.699,1.214c-0.628,0.425-1.435,1.206-1.707,2.52C19.7,16.748,19.135,17.25,18.5,17.25z M3,7.25
	C2.586,7.25,2.25,7.586,2.25,8v4.323c0,0.297,0.179,0.597,0.479,0.8c0.577,0.39,1.592,1.275,1.916,2.832
	C4.728,16.35,5.047,16.75,5.5,16.75h13c0.452,0,0.771-0.4,0.854-0.795c0.308-1.478,1.212-2.355,1.917-2.832
	c0.3-0.203,0.479-0.503,0.479-0.8V8c0-0.414-0.337-0.75-0.75-0.75H3z"/>
<rect x="7" y="13.75" style="fill:#333333;" width="10" height="0.5"/>
<rect x="6.75" y="12.5" style="fill:#333333;" width="0.5" height="1.5"/>
<rect x="10.25" y="12.5" style="fill:#333333;" width="0.5" height="1.5"/>
<rect x="13.25" y="12.5" style="fill:#333333;" width="0.5" height="1.5"/>
<rect x="16.75" y="12.5" style="fill:#333333;" width="0.5" height="1.5"/>
<rect x="5.5" y="9.75" style="fill:#333333;" width="1" height="0.5"/>
<rect x="9.5" y="9.75" style="fill:#333333;" width="1" height="0.5"/>
<rect x="13.5" y="9.75" style="fill:#333333;" width="1" height="0.5"/>
<rect x="17.5" y="9.75" style="fill:#333333;" width="1" height="0.5"/>
</svg>






