<?xml version="1.0" encoding="iso-8859-1"?>
<svg version="1.1" id="&#x56FE;&#x5C42;_1" xmlns="http://www.w3.org/2000/svg" xmlns:xlink="http://www.w3.org/1999/xlink" x="0px"
	 y="0px" viewBox="0 0 24 24" style="enable-background:new 0 0 24 24;" xml:space="preserve">
<path style="fill:#333333;" d="M12,22.25C6.348,22.25,1.75,17.652,1.75,12C1.75,6.348,6.348,1.75,12,1.75
	c5.652,0,10.25,4.598,10.25,10.25C22.25,17.652,17.652,22.25,12,22.25z M12,2.25c-5.376,0-9.75,4.374-9.75,9.75
	s4.374,9.75,9.75,9.75s9.75-4.374,9.75-9.75S17.376,2.25,12,2.25z"/>
<path style="fill:#333333;" d="M14.75,21.5h-0.5c0-1.24-1.01-2.25-2.25-2.25c-1.241,0-2.25,1.01-2.25,2.25h-0.5
	c0-1.517,1.233-2.75,2.75-2.75S14.75,19.983,14.75,21.5z"/>
<path style="fill:#333333;" d="M12,22.25c-1.523,0-2.988-0.326-4.356-0.969l0.213-0.453c2.602,1.225,5.685,1.225,8.287,0
	l0.213,0.453C14.988,21.924,13.522,22.25,12,22.25z"/>
<circle style="fill:#333333;" cx="7.5" cy="7.5" r="1.5"/>
<circle style="fill:#333333;" cx="5.5" cy="11.5" r="1.5"/>
<circle style="fill:#333333;" cx="12" cy="5.5" r="1.5"/>
<circle style="fill:#333333;" cx="16.5" cy="7.5" r="1.5"/>
<circle style="fill:#333333;" cx="18.5" cy="11.5" r="1.5"/>
</svg>






