<?xml version="1.0" encoding="iso-8859-1"?>
<svg version="1.1" id="&#x56FE;&#x5C42;_1" xmlns="http://www.w3.org/2000/svg" xmlns:xlink="http://www.w3.org/1999/xlink" x="0px"
	 y="0px" viewBox="0 0 24 24" style="enable-background:new 0 0 24 24;" xml:space="preserve">
<path style="fill:#333333;" d="M9,14.25c-0.965,0-1.75-0.785-1.75-1.75V7.75h3.5v4.75C10.75,13.465,9.965,14.25,9,14.25z M7.75,8.25
	v4.25c0,0.689,0.561,1.25,1.25,1.25s1.25-0.561,1.25-1.25V8.25H7.75z"/>
<polygon style="fill:#333333;" points="9.25,19.25 6,19.25 6,18.75 8.75,18.75 8.75,14 9.25,14 "/>
<path style="fill:#333333;" d="M10.75,8.25H5.5C4.189,8.25,2.25,7.217,2.25,5c0-2.034,1.525-3.25,3-3.25h5.5V8.25z M5.25,2.25
	c-1.212,0-2.5,0.964-2.5,2.75c0,1.876,1.641,2.75,2.75,2.75h4.75v-5.5H5.25z"/>
<path style="fill:#333333;" d="M18.5,11.25h-5.25v-6.5h5.5c1.475,0,3,1.216,3,3.25C21.75,10.217,19.811,11.25,18.5,11.25z
	 M13.75,10.75h4.75c1.109,0,2.75-0.874,2.75-2.75c0-1.786-1.288-2.75-2.5-2.75h-5V10.75z"/>
<path style="fill:#333333;" d="M15,17.25c-0.965,0-1.75-0.785-1.75-1.75v-4.75h3.5v4.75C16.75,16.465,15.965,17.25,15,17.25z
	 M13.75,11.25v4.25c0,0.689,0.561,1.25,1.25,1.25s1.25-0.561,1.25-1.25v-4.25H13.75z"/>
<polygon style="fill:#333333;" points="18,22.25 14.75,22.25 14.75,17 15.25,17 15.25,21.75 18,21.75 "/>
</svg>






