<?xml version="1.0" encoding="iso-8859-1"?>
<svg version="1.1" id="&#x56FE;&#x5C42;_1" xmlns="http://www.w3.org/2000/svg" xmlns:xlink="http://www.w3.org/1999/xlink" x="0px"
	 y="0px" viewBox="0 0 24 24" style="enable-background:new 0 0 24 24;" xml:space="preserve">
<path style="fill:none;" d="M18,16c2.209,0,4-1.791,4-4s-1.791-4-4-4"/>
<path style="fill:#333333;" d="M18,16.25v-0.5c2.067,0,3.75-1.683,3.75-3.75c0-2.068-1.683-3.75-3.75-3.75v-0.5
	c2.344,0,4.25,1.907,4.25,4.25C22.25,14.344,20.344,16.25,18,16.25z"/>
<path style="fill:none;" d="M6,8c-2.209,0-4,1.791-4,4s1.791,4,4,4"/>
<path style="fill:#333333;" d="M6,16.25c-2.343,0-4.25-1.906-4.25-4.25c0-2.343,1.907-4.25,4.25-4.25v0.5
	c-2.068,0-3.75,1.682-3.75,3.75c0,2.067,1.682,3.75,3.75,3.75V16.25z"/>
<path style="fill:#333333;" d="M12,22.25v-0.5c3.171,0,5.75-2.579,5.75-5.75V8c0-3.17-2.579-5.75-5.75-5.75
	C8.83,2.25,6.25,4.83,6.25,8v8h-0.5V8c0-3.446,2.804-6.25,6.25-6.25S18.25,4.554,18.25,8v8C18.25,19.446,15.446,22.25,12,22.25z"/>
</svg>






