<?xml version="1.0" encoding="iso-8859-1"?>
<svg version="1.1" id="&#x56FE;&#x5C42;_1" xmlns="http://www.w3.org/2000/svg" xmlns:xlink="http://www.w3.org/1999/xlink" x="0px"
	 y="0px" viewBox="0 0 24 24" style="enable-background:new 0 0 24 24;" xml:space="preserve">
<path style="fill:#333333;" d="M6.013,21.655C4.575,19.84,3.75,17.597,3.75,15.5c0-4.549,3.701-8.25,8.25-8.25s8.25,3.701,8.25,8.25
	c0,2.096-0.824,4.339-2.262,6.155l-0.393-0.311c1.369-1.729,2.154-3.859,2.154-5.845c0-4.273-3.477-7.75-7.75-7.75
	s-7.75,3.477-7.75,7.75c0,1.986,0.785,4.116,2.154,5.845L6.013,21.655z"/>
<path style="fill:#333333;" d="M17.309,9.293l-0.583-2.627l4.603-4.347l0.414,0.242l-1.538,6.154L17.309,9.293z M17.274,6.834
	l0.417,1.873l2.104-0.421l1.254-5.017L17.274,6.834z"/>
<path style="fill:#333333;" d="M6.691,9.293L3.796,8.714L2.257,2.561l0.415-0.242l4.603,4.347L6.691,9.293z M4.204,8.286
	l2.105,0.421l0.416-1.873L2.95,3.269L4.204,8.286z"/>
</svg>






