<?xml version="1.0" encoding="iso-8859-1"?>
<svg version="1.1" id="&#x56FE;&#x5C42;_1" xmlns="http://www.w3.org/2000/svg" xmlns:xlink="http://www.w3.org/1999/xlink" x="0px"
	 y="0px" viewBox="0 0 24 24" style="enable-background:new 0 0 24 24;" xml:space="preserve">
<path style="fill:#333333;" d="M19.5,21.25h-15c-0.965,0-1.75-0.785-1.75-1.75v-15c0-0.965,0.785-1.75,1.75-1.75h15
	c0.965,0,1.75,0.785,1.75,1.75v15C21.25,20.465,20.465,21.25,19.5,21.25z M4.5,3.25c-0.689,0-1.25,0.561-1.25,1.25v15
	c0,0.689,0.561,1.25,1.25,1.25h15c0.689,0,1.25-0.561,1.25-1.25v-15c0-0.689-0.561-1.25-1.25-1.25H4.5z"/>
<path style="fill:#333333;" d="M15,11.263l-0.077-0.025c-1.139-0.368-3.173-1.897-3.173-3.636c0-1.021,0.853-1.852,1.9-1.852
	c0.51,0,0.995,0.201,1.35,0.549c0.354-0.348,0.84-0.549,1.35-0.549c1.048,0,1.9,0.831,1.9,1.852c0,1.739-2.034,3.268-3.173,3.636
	L15,11.263z M13.65,6.25c-0.772,0-1.4,0.606-1.4,1.352c0,1.417,1.771,2.777,2.75,3.134c0.979-0.356,2.75-1.717,2.75-3.134
	c0-0.746-0.628-1.352-1.4-1.352c-0.456,0-0.885,0.216-1.147,0.578L15,7.106l-0.202-0.279C14.535,6.466,14.106,6.25,13.65,6.25z"/>
</svg>






