<?xml version="1.0" encoding="iso-8859-1"?>
<svg version="1.1" id="&#x56FE;&#x5C42;_1" xmlns="http://www.w3.org/2000/svg" xmlns:xlink="http://www.w3.org/1999/xlink" x="0px"
	 y="0px" viewBox="0 0 24 24" style="enable-background:new 0 0 24 24;" xml:space="preserve">
<path style="fill:#333333;" d="M7.5,21.25h-3c-0.965,0-1.75-0.785-1.75-1.75v-3h0.5v3c0,0.689,0.561,1.25,1.25,1.25h3V21.25z"/>
<path style="fill:#333333;" d="M19.5,21.25h-3v-0.5h3c0.689,0,1.25-0.561,1.25-1.25v-3h0.5v3C21.25,20.465,20.465,21.25,19.5,21.25z
	"/>
<path style="fill:#333333;" d="M21.25,7.5h-0.5v-3c0-0.689-0.561-1.25-1.25-1.25h-3v-0.5h3c0.965,0,1.75,0.785,1.75,1.75V7.5z"/>
<path style="fill:#333333;" d="M3.25,7.5h-0.5v-3c0-0.965,0.785-1.75,1.75-1.75h3v0.5h-3c-0.689,0-1.25,0.561-1.25,1.25V7.5z"/>
<path style="fill:#333333;" d="M12,17.354l-5.177-5.177c-0.59-0.59-0.849-1.726-0.023-2.827c0.862-1.15,2.526-1.1,3.339-0.558
	c0.208,0.139,0.379,0.277,0.538,0.406C11.086,9.53,11.356,9.75,12,9.75s0.914-0.22,1.323-0.552c0.159-0.129,0.33-0.268,0.538-0.406
	c0.814-0.541,2.477-0.591,3.339,0.558c0.825,1.101,0.566,2.237-0.023,2.827L12,17.354z M8.783,8.92C8.209,8.92,7.592,9.128,7.2,9.65
	c-0.647,0.862-0.466,1.731-0.023,2.173L12,16.646l4.823-4.823c0.442-0.442,0.623-1.311-0.023-2.173
	c-0.678-0.903-2.029-0.864-2.661-0.442c-0.193,0.129-0.353,0.258-0.5,0.378C13.199,9.942,12.82,10.25,12,10.25
	c-0.821,0-1.2-0.308-1.638-0.664c-0.148-0.12-0.307-0.249-0.5-0.378C9.595,9.03,9.201,8.92,8.783,8.92z"/>
</svg>






