<?xml version="1.0" encoding="iso-8859-1"?>
<svg version="1.1" id="&#x56FE;&#x5C42;_1" xmlns="http://www.w3.org/2000/svg" xmlns:xlink="http://www.w3.org/1999/xlink" x="0px"
	 y="0px" viewBox="0 0 24 24" style="enable-background:new 0 0 24 24;" xml:space="preserve">
<path style="fill:#333333;" d="M16.616,22.25H7.384L4.75,19.138V8.829L7.385,5.75h9.23l2.635,3.079v10.309L16.616,22.25z
	 M7.616,21.75h8.768l2.366-2.796v-9.94L16.385,6.25h-8.77L5.25,9.014v9.94L7.616,21.75z"/>
<rect x="9.5" y="9.75" style="fill:#333333;" width="5" height="0.5"/>
<path style="fill:#333333;" d="M16.75,6h-0.5V3.5c0-0.689-0.561-1.25-1.25-1.25H9c-0.689,0-1.25,0.561-1.25,1.25V6h-0.5V3.5
	c0-0.965,0.785-1.75,1.75-1.75h6c0.965,0,1.75,0.785,1.75,1.75V6z"/>
<path style="fill:#333333;" d="M12,18.75c-1.517,0-2.75-1.233-2.75-2.75s1.233-2.75,2.75-2.75s2.75,1.233,2.75,2.75
	S13.517,18.75,12,18.75z M12,13.75c-1.241,0-2.25,1.01-2.25,2.25s1.009,2.25,2.25,2.25c1.24,0,2.25-1.01,2.25-2.25
	S13.24,13.75,12,13.75z"/>
</svg>






