<?xml version="1.0" encoding="iso-8859-1"?>
<svg version="1.1" id="&#x56FE;&#x5C42;_1" xmlns="http://www.w3.org/2000/svg" xmlns:xlink="http://www.w3.org/1999/xlink" x="0px"
	 y="0px" viewBox="0 0 24 24" style="enable-background:new 0 0 24 24;" xml:space="preserve">
<path style="fill:#333333;" d="M12,20.927L11.921,20.9C8.372,19.721,1.75,14.594,1.75,9c0-3.17,2.58-5.75,5.75-5.75
	c1.755,0,3.413,0.805,4.5,2.17c1.087-1.365,2.745-2.17,4.5-2.17c3.171,0,5.75,2.58,5.75,5.75c0,0.864-0.157,1.756-0.467,2.65
	l-0.473-0.164C21.603,10.645,21.75,9.808,21.75,9c0-2.895-2.355-5.25-5.25-5.25c-1.706,0-3.312,0.834-4.296,2.231L12,6.271
	l-0.205-0.29C10.812,4.584,9.207,3.75,7.5,3.75C4.605,3.75,2.25,6.105,2.25,9c0,5.316,6.302,10.211,9.75,11.399
	c1.114-0.384,2.49-1.146,3.792-2.101l0.295,0.402c-1.372,1.008-2.833,1.81-4.008,2.199L12,20.927z"/>
<polygon style="fill:#333333;" points="18.701,16.648 18.266,16.588 16.926,13.015 15.625,14.75 13.5,14.75 13.5,14.25 
	15.375,14.25 16.8,12.35 17.234,12.412 18.572,15.981 19.855,14.25 22,14.25 22,14.75 20.107,14.75 "/>
</svg>






