<?xml version="1.0" encoding="iso-8859-1"?>
<svg version="1.1" id="&#x56FE;&#x5C42;_1" xmlns="http://www.w3.org/2000/svg" xmlns:xlink="http://www.w3.org/1999/xlink" x="0px"
	 y="0px" viewBox="0 0 24 24" style="enable-background:new 0 0 24 24;" xml:space="preserve">
<path style="fill:#333333;" d="M10.501,22.751c-2.795,0-4.943-2.227-6.382-6.618c-0.898-2.742-0.609-6.007,0.618-6.987
	C5.333,8.67,6.289,8.407,7.464,9.852l-0.388,0.315c-0.993-1.223-1.633-0.945-2.027-0.63c-0.959,0.766-1.358,3.683-0.455,6.44
	c1.364,4.163,3.352,6.274,5.907,6.274c2.557,0,3.608-2.109,4.626-4.149c0.311-0.622,0.604-1.21,0.937-1.735
	c1.437-2.269,2.117-4.312,0.775-6.91l0.443-0.229c1.538,2.976,0.526,5.318-0.797,7.407c-0.319,0.504-0.606,1.08-0.911,1.69
	C14.54,20.399,13.367,22.751,10.501,22.751z"/>
<path style="fill:#333333;" d="M5.291,9.156C4.44,7.86,3.774,6.854,3.292,6.14C2.907,5.567,3.08,4.817,3.713,4.315
	c0.564-0.446,1.423-0.59,1.97-0.001C6.268,4.945,7.054,5.885,8.02,7.108l-0.393,0.31C6.67,6.205,5.893,5.275,5.317,4.654
	c-0.357-0.385-0.92-0.242-1.293,0.053C3.669,4.988,3.434,5.454,3.708,5.86c0.482,0.716,1.149,1.723,2.001,3.021L5.291,9.156z"/>
<path style="fill:#333333;" d="M7.263,12.84c-0.25-3.12-0.042-5.11,0.635-6.085c0.884-1.273,2.562-2.003,4.604-2.003
	c1.06,0,2.036,0.453,2.904,1.347l-0.359,0.349c-0.77-0.793-1.626-1.195-2.545-1.195c-1.875,0-3.404,0.652-4.193,1.789
	c-0.6,0.864-0.784,2.802-0.548,5.761L7.263,12.84z"/>
<path style="fill:#333333;" d="M12.347,14.179c-0.716,0-1.6-0.562-1.863-0.793c-0.167-0.146-0.557-0.553-0.579-1.162
	c-0.016-0.449,0.174-0.879,0.566-1.276c0.637-0.646,0.631-0.808,0.609-1.347c-0.004-0.117-0.01-0.247-0.01-0.397
	c0-1.159,5.075-4.055,7.542-4.304c0.836-0.05,1.823,0.278,2.129,1.339c0.167,0.582,0.107,1.118-0.174,1.552
	c-0.318,0.492-0.902,0.811-1.689,0.923c-1.418,0.203-2.483,0.921-3.253,1.523c-0.751,0.587-2.152,2.444-2.417,3.336
	c-0.086,0.29-0.277,0.486-0.555,0.566C12.556,14.166,12.453,14.179,12.347,14.179z M18.771,5.393c-0.047,0-0.087,0.001-0.119,0.003
	c-2.639,0.267-7.078,3.147-7.082,3.806c0,0.143,0.005,0.266,0.01,0.377c0.025,0.637,0.005,0.951-0.753,1.719
	c-0.291,0.295-0.433,0.601-0.422,0.907c0.016,0.426,0.317,0.724,0.41,0.805c0.334,0.294,1.253,0.779,1.7,0.647
	c0.111-0.032,0.177-0.103,0.215-0.229c0.299-1.01,1.758-2.938,2.587-3.587c0.819-0.641,1.955-1.405,3.491-1.625
	c0.64-0.091,1.103-0.333,1.34-0.7c0.2-0.309,0.239-0.704,0.113-1.142l0,0C20.008,5.5,19.165,5.393,18.771,5.393z"/>
<rect x="11.254" y="2" style="fill:#333333;" width="0.5" height="2.631"/>
<path style="fill:#333333;" d="M9.958,5.515C8.491,3.672,7.31,2.633,6.445,2.427l0.116-0.486c0.989,0.236,2.228,1.303,3.788,3.262
	L9.958,5.515z"/>
<rect x="7.703" y="2.248" transform="matrix(0.2366 -0.9716 0.9716 0.2366 4.2529 10.4081)" style="fill:#333333;" width="2.093" height="0.5"/>
<path style="fill:#333333;" d="M18.661,8.638c-0.552-0.576-0.919-1.13-1.092-1.647c-0.177-0.53-0.178-1.103-0.003-1.702l0.48,0.14
	c-0.146,0.5-0.147,0.973-0.003,1.404c0.148,0.446,0.478,0.937,0.979,1.459L18.661,8.638z"/>
</svg>






