<?xml version="1.0" encoding="iso-8859-1"?>
<svg version="1.1" id="&#x56FE;&#x5C42;_1" xmlns="http://www.w3.org/2000/svg" xmlns:xlink="http://www.w3.org/1999/xlink" x="0px"
	 y="0px" viewBox="0 0 24 24" style="enable-background:new 0 0 24 24;" xml:space="preserve">
<path style="fill:#333333;" d="M12,13.266l-0.083-0.03C9.703,12.45,5.75,9.202,5.75,5.525c0-2.434,1.036-3.775,2.917-3.775
	c1.163,0,2.633,1.363,3.333,2.268c0.701-0.904,2.171-2.268,3.333-2.268c1.799,0,2.917,1.446,2.917,3.775
	c0,3.677-3.953,6.925-6.166,7.71L12,13.266z M8.667,2.25c-1.604,0-2.417,1.102-2.417,3.275c0,3.348,3.696,6.433,5.75,7.208
	c2.055-0.776,5.75-3.861,5.75-7.208c0-0.768-0.174-3.275-2.417-3.275c-0.953,0-2.512,1.404-3.124,2.332L12,4.898l-0.208-0.316
	C11.179,3.654,9.621,2.25,8.667,2.25z"/>
<path style="fill:#333333;" d="M9.034,22.248l-0.067-0.496c2.043-0.278,5.284-1.137,5.284-2.252c0-0.68-1.175-0.974-2.311-1.258
	C10.617,17.912,9.25,17.57,9.25,16.5c0-2.119,2.013-3.383,2.63-3.72l0.24,0.439c-0.556,0.303-2.37,1.437-2.37,3.28
	c0,0.68,1.175,0.974,2.311,1.258c1.322,0.33,2.689,0.672,2.689,1.742C14.75,21.413,9.619,22.168,9.034,22.248z"/>
</svg>






