<?xml version="1.0" encoding="iso-8859-1"?>
<svg version="1.1" id="&#x56FE;&#x5C42;_1" xmlns="http://www.w3.org/2000/svg" xmlns:xlink="http://www.w3.org/1999/xlink" x="0px"
	 y="0px" viewBox="0 0 24 24" style="enable-background:new 0 0 24 24;" xml:space="preserve">
<path style="fill:#333333;" d="M9.172,18.907c-0.334,0-0.647-0.13-0.884-0.366l-2.829-2.829c-0.487-0.487-0.487-1.28,0-1.768
	l8.486-8.485c0.471-0.472,1.295-0.472,1.768,0l2.828,2.829c0.236,0.236,0.366,0.55,0.366,0.884c0,0.334-0.13,0.648-0.366,0.884
	l-8.485,8.486C9.819,18.777,9.506,18.907,9.172,18.907z M5.813,14.298c-0.292,0.292-0.292,0.769,0,1.061l2.829,2.829
	c0.292,0.293,0.769,0.293,1.061,0l8.485-8.486c0.142-0.142,0.22-0.33,0.22-0.53c0-0.2-0.078-0.389-0.22-0.53l-2.828-2.829
	c-0.283-0.284-0.777-0.282-1.061,0L5.813,14.298z"/>
<rect x="2.783" y="18.468" transform="matrix(0.7071 -0.7071 0.7071 0.7071 -11.6883 9.2176)" style="fill:#333333;" width="5" height="0.5"/>
<rect x="16.219" y="5.032" transform="matrix(0.7071 -0.7071 0.7071 0.7071 1.7473 14.7834)" style="fill:#333333;" width="5" height="0.5"/>
<rect x="9.275" y="11.475" transform="matrix(0.7071 -0.7071 0.7071 0.7071 -7.4454 10.9758)" style="fill:#333333;" width="0.5" height="6"/>
<rect x="11.75" y="9" transform="matrix(0.7071 -0.7071 0.7071 0.7071 -4.9704 11.999)" style="fill:#333333;" width="0.5" height="6"/>
<rect x="14.225" y="6.525" transform="matrix(0.7071 -0.7071 0.7071 0.7071 -2.496 13.024)" style="fill:#333333;" width="0.5" height="6"/>
<rect x="4.879" y="9.629" transform="matrix(0.7071 -0.7071 0.7071 0.7071 -4.0919 9.8787)" style="fill:#333333;" width="10" height="0.5"/>
<rect x="9.121" y="13.872" transform="matrix(0.7071 -0.7071 0.7071 0.7071 -5.8494 14.1216)" style="fill:#333333;" width="10" height="0.5"/>
</svg>






