<?xml version="1.0" encoding="iso-8859-1"?>
<svg version="1.1" id="&#x56FE;&#x5C42;_1" xmlns="http://www.w3.org/2000/svg" xmlns:xlink="http://www.w3.org/1999/xlink" x="0px"
	 y="0px" viewBox="0 0 24 24" style="enable-background:new 0 0 24 24;" xml:space="preserve">
<path style="fill:#333333;" d="M12.555,13.312L5.988,7.324l1.48-3.04l3.702-0.866l5.989,4.745l1.251,4.03L12.555,13.312z
	 M6.601,7.207l6.106,5.567l5.061-0.967l-1.04-3.348L11.049,3.96L7.813,4.717L6.601,7.207z"/>
<rect x="10.192" y="3.212" transform="matrix(0.6507 -0.7594 0.7594 0.6507 -1.5924 10.3397)" style="fill:#333333;" width="0.5" height="7.378"/>
<polygon style="fill:#333333;" points="12.879,13.081 12.385,13.005 13.022,8.856 16.894,8.066 16.993,8.556 13.464,9.276 "/>
<polygon style="fill:#333333;" points="7.719,20.46 1.706,14.568 3.102,11.099 5.958,10.433 6.071,10.92 3.469,11.526 2.294,14.445 
	7.881,19.919 13.315,18.86 12.258,15.589 12.734,15.435 13.964,19.243 "/>
<rect x="5.714" y="10.159" transform="matrix(0.6871 -0.7265 0.7265 0.6871 -8.1935 8.6647)" style="fill:#333333;" width="0.5" height="7.373"/>
<polygon style="fill:#333333;" points="8.043,19.992 7.558,19.873 8.54,15.843 12.459,15.274 12.531,15.769 8.946,16.29 "/>
<path style="fill:#333333;" d="M16.71,18.712l0.507-4.114l3.6-0.799l1.117,3.894L16.71,18.712z M17.67,15.01l-0.38,3.079
	l4.013-0.783l-0.838-2.917L17.67,15.01z"/>
</svg>






