<?xml version="1.0" encoding="iso-8859-1"?>
<svg version="1.1" id="&#x56FE;&#x5C42;_1" xmlns="http://www.w3.org/2000/svg" xmlns:xlink="http://www.w3.org/1999/xlink" x="0px"
	 y="0px" viewBox="0 0 24 24" style="enable-background:new 0 0 24 24;" xml:space="preserve">
<path style="fill:#333333;" d="M19.061,16.75H7.5v-0.5h11.561c0.107,0,0.208-0.022,0.293-0.064c1.478-0.744,2.396-2.249,2.396-3.929
	c0-2.414-1.927-4.378-4.296-4.378c-0.682,0-1.334,0.158-1.939,0.47l-0.276,0.143L15.159,8.19c-0.771-2.909-3.379-4.94-6.341-4.94
	c-3.622,0-6.568,3.002-6.568,6.692h-0.5c0-3.966,3.171-7.192,7.068-7.192c3.089,0,5.819,2.051,6.741,5.024
	c0.598-0.263,1.233-0.396,1.895-0.396c2.645,0,4.796,2.188,4.796,4.878c0,1.869-1.024,3.546-2.673,4.376
	C19.423,16.709,19.245,16.75,19.061,16.75z"/>
<path style="fill:#333333;" d="M7.5,20.75H6c-1.241,0-2.25-1.01-2.25-2.25S4.759,16.25,6,16.25h1.5v0.5H6
	c-0.965,0-1.75,0.785-1.75,1.75S5.035,20.25,6,20.25h1.5V20.75z"/>
<path style="fill:#333333;" d="M11,13.25H9.5c-1.241,0-2.25-1.01-2.25-2.25c0-1.241,1.009-2.25,2.25-2.25H11v0.5H9.5
	c-0.965,0-1.75,0.785-1.75,1.75s0.785,1.75,1.75,1.75H11V13.25z"/>
<rect x="9.5" y="12.75" style="fill:#333333;" width="6.5" height="0.5"/>
</svg>






