<?xml version="1.0" encoding="iso-8859-1"?>
<svg version="1.1" id="&#x56FE;&#x5C42;_1" xmlns="http://www.w3.org/2000/svg" xmlns:xlink="http://www.w3.org/1999/xlink" x="0px"
	 y="0px" viewBox="0 0 24 24" style="enable-background:new 0 0 24 24;" xml:space="preserve">
<path style="fill:#333333;" d="M12,22.25c-2.738,0-5.312-1.066-7.248-3.002C2.816,17.312,1.75,14.738,1.75,12
	c0-2.738,1.066-5.312,3.002-7.248C6.688,2.816,9.262,1.75,12,1.75c2.738,0,5.312,1.066,7.248,3.002
	C21.184,6.688,22.25,9.262,22.25,12c0,2.738-1.066,5.312-3.002,7.248S14.738,22.25,12,22.25z M12,2.25
	c-2.604,0-5.053,1.014-6.895,2.855C3.264,6.947,2.25,9.396,2.25,12c0,2.604,1.014,5.053,2.855,6.895
	C6.947,20.736,9.396,21.75,12,21.75c2.604,0,5.053-1.014,6.895-2.855S21.75,14.604,21.75,12c0-2.604-1.014-5.053-2.855-6.895
	C17.053,3.264,14.604,2.25,12,2.25z"/>
<path style="fill:#333333;" d="M12.25,14.312h-0.5v-2.25H12c1.517,0,2.75-1.233,2.75-2.75s-1.233-2.75-2.75-2.75
	s-2.75,1.233-2.75,2.75h-0.5c0-1.792,1.458-3.25,3.25-3.25s3.25,1.458,3.25,3.25c0,1.708-1.324,3.112-3,3.24V14.312z"/>
<path style="fill-rule:evenodd;clip-rule:evenodd;fill:#333333;" d="M12,18.812c0.69,0,1.25-0.56,1.25-1.25
	c0-0.69-0.56-1.25-1.25-1.25s-1.25,0.56-1.25,1.25C10.75,18.253,11.31,18.812,12,18.812z"/>
</svg>






