<?xml version="1.0" encoding="iso-8859-1"?>
<svg version="1.1" id="&#x56FE;&#x5C42;_1" xmlns="http://www.w3.org/2000/svg" xmlns:xlink="http://www.w3.org/1999/xlink" x="0px"
	 y="0px" viewBox="0 0 24 24" style="enable-background:new 0 0 24 24;" xml:space="preserve">
<path style="fill:#333333;" d="M19.5,21.25h-15c-0.965,0-1.75-0.785-1.75-1.75v-15c0-0.965,0.785-1.75,1.75-1.75h15
	c0.965,0,1.75,0.785,1.75,1.75v15C21.25,20.465,20.465,21.25,19.5,21.25z M4.5,3.25c-0.689,0-1.25,0.561-1.25,1.25v15
	c0,0.689,0.561,1.25,1.25,1.25h15c0.689,0,1.25-0.561,1.25-1.25v-15c0-0.689-0.561-1.25-1.25-1.25H4.5z"/>
<path style="fill:#333333;" d="M12.25,14.312h-0.5v-2.25H12c1.517,0,2.75-1.233,2.75-2.75s-1.233-2.75-2.75-2.75
	s-2.75,1.233-2.75,2.75h-0.5c0-1.792,1.458-3.25,3.25-3.25s3.25,1.458,3.25,3.25c0,1.708-1.324,3.112-3,3.24V14.312z"/>
<path style="fill-rule:evenodd;clip-rule:evenodd;fill:#333333;" d="M12,18.812c0.69,0,1.25-0.56,1.25-1.25s-0.56-1.25-1.25-1.25
	s-1.25,0.56-1.25,1.25S11.31,18.812,12,18.812z"/>
</svg>






