<?xml version="1.0" encoding="iso-8859-1"?>
<svg version="1.1" id="&#x56FE;&#x5C42;_1" xmlns="http://www.w3.org/2000/svg" xmlns:xlink="http://www.w3.org/1999/xlink" x="0px"
	 y="0px" viewBox="0 0 24 24" style="enable-background:new 0 0 24 24;" xml:space="preserve">
<rect x="3.5" y="6.75" style="fill:#333333;" width="17" height="0.5"/>
<rect x="-0.87" y="9.25" transform="matrix(0.4928 -0.8702 0.8702 0.4928 -4.3354 11.5626)" style="fill:#333333;" width="17.241" height="0.5"/>
<rect x="16" y="0.88" transform="matrix(0.87 -0.493 0.493 0.87 -2.5715 9.2458)" style="fill:#333333;" width="0.5" height="17.241"/>
<rect x="3.5" y="16.75" style="fill:#333333;" width="17" height="0.5"/>
<rect x="7.63" y="14.25" transform="matrix(0.4923 -0.8704 0.8704 0.4923 -4.3714 21.5051)" style="fill:#333333;" width="17.241" height="0.5"/>
<rect x="7.5" y="5.879" transform="matrix(0.87 -0.493 0.493 0.87 -6.1413 5.7056)" style="fill:#333333;" width="0.5" height="17.241"/>
<path style="fill:#333333;" d="M12,22.29l-8.75-5.147V6.857L12,1.71l8.75,5.147v10.286L12,22.29z M3.75,16.857L12,21.71l8.25-4.853
	V7.143L12,2.29L3.75,7.143V16.857z"/>
</svg>






