<?xml version="1.0" encoding="iso-8859-1"?>
<svg version="1.1" id="&#x56FE;&#x5C42;_1" xmlns="http://www.w3.org/2000/svg" xmlns:xlink="http://www.w3.org/1999/xlink" x="0px"
	 y="0px" viewBox="0 0 24 24" style="enable-background:new 0 0 24 24;" xml:space="preserve">
<path style="fill:#333333;" d="M14.75,22.25h-5.5v-5.487l-4.751,2.744l-2.75-4.764L6.5,12L1.749,9.256l2.75-4.763L9.25,7.237V1.75
	h5.5v5.487l4.752-2.743l2.75,4.763L17.5,12l4.752,2.743l-2.75,4.764l-4.752-2.744V22.25z M9.75,21.75h4.5v-5.42l0.375-0.217
	l4.693,2.71l2.25-3.896L16.5,12l5.068-2.926l-2.25-3.897l-4.693,2.71L14.25,7.67V2.25h-4.5v5.42L9.375,7.886l-4.694-2.71
	l-2.25,3.897L7.5,12l-5.069,2.927l2.25,3.896l4.694-2.71L9.75,16.33V21.75z"/>
</svg>






