<?xml version="1.0" encoding="iso-8859-1"?>
<svg version="1.1" id="&#x56FE;&#x5C42;_1" xmlns="http://www.w3.org/2000/svg" xmlns:xlink="http://www.w3.org/1999/xlink" x="0px"
	 y="0px" viewBox="0 0 24 24" style="enable-background:new 0 0 24 24;" xml:space="preserve">
<path style="fill:#333333;" d="M12.642,20.25H1.75v-2.397l0.13-0.071c1.166-0.641,4.845-2.892,6.481-3.989l0.128-0.086l0.135,0.077
	c0.891,0.509,1.722,0.636,2.474,0.384c1.713-0.58,2.722-2.977,3.264-4.264l0,0c0.898-2.136,2.846-4.022,4.268-5.4
	c0.254-0.246,0.488-0.473,0.693-0.679l0.139-0.139l0.3,0.179C20.441,4.26,22.25,5.312,22.25,7.5c0,2.154-0.817,3.752-1.625,4.217
	l-2.975,2.084c-1.303,0.911-2.378,2.064-3.195,3.428L12.642,20.25z M2.25,19.75h10.108l1.667-2.779
	c0.854-1.423,1.978-2.628,3.338-3.58l2.993-2.095C21.042,10.9,21.75,9.444,21.75,7.5c0-1.873-1.523-2.787-2.21-3.187
	c-0.173,0.17-0.361,0.354-0.562,0.549c-1.392,1.348-3.297,3.193-4.155,5.234v0c-0.572,1.359-1.638,3.891-3.564,4.543
	c-0.851,0.288-1.774,0.172-2.746-0.349c-1.641,1.091-5,3.147-6.262,3.855V19.75z"/>
<rect x="21.25" y="10.5" style="fill:#333333;" width="0.5" height="9.5"/>
</svg>






