<?xml version="1.0" encoding="iso-8859-1"?>
<svg version="1.1" id="&#x56FE;&#x5C42;_1" xmlns="http://www.w3.org/2000/svg" xmlns:xlink="http://www.w3.org/1999/xlink" x="0px"
	 y="0px" viewBox="0 0 24 24" style="enable-background:new 0 0 24 24;" xml:space="preserve">
<path style="fill:#333333;" d="M15.5,19.25h-7c-2.343,0-4.25-1.906-4.25-4.25v-5h0.5v5c0,2.067,1.682,3.75,3.75,3.75h7
	c2.067,0,3.75-1.683,3.75-3.75v-5h0.5v5C19.75,17.344,17.844,19.25,15.5,19.25z"/>
<rect x="16.75" y="19" style="fill:#333333;" width="0.5" height="2"/>
<rect x="6.75" y="19" style="fill:#333333;" width="0.5" height="2"/>
<rect x="10" y="21.75" style="fill:#333333;" width="4" height="0.5"/>
<path style="fill:#333333;" d="M19.75,10.25H4.25V8.181C4.25,6.326,7.339,1.75,12,1.75s7.75,4.576,7.75,6.431V10.25z M4.75,9.75
	h14.5V8.181c0-1.525-2.848-5.931-7.25-5.931c-4.402,0-7.25,4.406-7.25,5.931V9.75z"/>
<g>
	<path style="fill:#333333;" d="M10.25,16c0,0.414-0.336,0.75-0.75,0.75S8.75,16.414,8.75,16s0.336-0.75,0.75-0.75
		S10.25,15.586,10.25,16z"/>
	<path style="fill:#333333;" d="M9.5,17c-0.551,0-1-0.448-1-1s0.449-1,1-1s1,0.448,1,1S10.051,17,9.5,17z M9.5,15.5
		C9.224,15.5,9,15.725,9,16s0.224,0.5,0.5,0.5S10,16.275,10,16S9.776,15.5,9.5,15.5z"/>
</g>
<g>
	<path style="fill:#333333;" d="M15.25,16c0,0.414-0.336,0.75-0.75,0.75s-0.75-0.336-0.75-0.75s0.336-0.75,0.75-0.75
		S15.25,15.586,15.25,16z"/>
	<path style="fill:#333333;" d="M14.5,17c-0.552,0-1-0.448-1-1s0.448-1,1-1s1,0.448,1,1S15.052,17,14.5,17z M14.5,15.5
		c-0.275,0-0.5,0.225-0.5,0.5s0.225,0.5,0.5,0.5S15,16.275,15,16S14.775,15.5,14.5,15.5z"/>
</g>
<rect x="11" y="5.25" style="fill:#333333;" width="2" height="0.5"/>
</svg>






