<?xml version="1.0" encoding="iso-8859-1"?>
<svg version="1.1" id="&#x56FE;&#x5C42;_1" xmlns="http://www.w3.org/2000/svg" xmlns:xlink="http://www.w3.org/1999/xlink" x="0px"
	 y="0px" viewBox="0 0 24 24" style="enable-background:new 0 0 24 24;" xml:space="preserve">
<path style="fill:#333333;" d="M17.5,21.75h-11c-1.792,0-3.25-1.458-3.25-3.25v-3c0-1.792,1.458-3.25,3.25-3.25h11
	c1.792,0,3.25,1.458,3.25,3.25v3C20.75,20.292,19.292,21.75,17.5,21.75z M6.5,12.75c-1.517,0-2.75,1.233-2.75,2.75v3
	c0,1.517,1.233,2.75,2.75,2.75h11c1.517,0,2.75-1.233,2.75-2.75v-3c0-1.517-1.233-2.75-2.75-2.75H6.5z"/>
<path style="fill:#333333;" d="M8.5,18.75c-0.965,0-1.75-0.785-1.75-1.75s0.785-1.75,1.75-1.75s1.75,0.785,1.75,1.75
	S9.465,18.75,8.5,18.75z M8.5,15.75c-0.689,0-1.25,0.561-1.25,1.25s0.561,1.25,1.25,1.25S9.75,17.689,9.75,17S9.189,15.75,8.5,15.75
	z"/>
<path style="fill:#333333;" d="M15.5,18.75c-0.965,0-1.75-0.785-1.75-1.75s0.785-1.75,1.75-1.75s1.75,0.785,1.75,1.75
	S16.465,18.75,15.5,18.75z M15.5,15.75c-0.689,0-1.25,0.561-1.25,1.25s0.561,1.25,1.25,1.25s1.25-0.561,1.25-1.25
	S16.189,15.75,15.5,15.75z"/>
<path style="fill:#333333;" d="M18.75,12.75H5.25V9.5c0-1.792,1.458-3.25,3.25-3.25h7c1.792,0,3.25,1.458,3.25,3.25V12.75z
	 M5.75,12.25h12.5V9.5c0-1.517-1.233-2.75-2.75-2.75h-7c-1.517,0-2.75,1.233-2.75,2.75V12.25z"/>
<circle style="fill:#333333;" cx="10" cy="9.5" r="1"/>
<circle style="fill:#333333;" cx="14" cy="9.5" r="1"/>
<path style="fill:#333333;" d="M10.75,6.75h-3.5V4c0-0.965,0.785-1.75,1.75-1.75S10.75,3.035,10.75,4V6.75z M7.75,6.25h2.5V4
	c0-0.689-0.561-1.25-1.25-1.25S7.75,3.311,7.75,4V6.25z"/>
<path style="fill:#333333;" d="M16.75,6.75h-3.5V4c0-0.965,0.785-1.75,1.75-1.75S16.75,3.035,16.75,4V6.75z M13.75,6.25h2.5V4
	c0-0.689-0.561-1.25-1.25-1.25S13.75,3.311,13.75,4V6.25z"/>
</svg>






