<?xml version="1.0" encoding="iso-8859-1"?>
<svg version="1.1" id="&#x56FE;&#x5C42;_1" xmlns="http://www.w3.org/2000/svg" xmlns:xlink="http://www.w3.org/1999/xlink" x="0px"
	 y="0px" viewBox="0 0 24 24" style="enable-background:new 0 0 24 24;" xml:space="preserve">
<path style="fill:#333333;" d="M12,21.25H4.5c-0.965,0-1.75-0.785-1.75-1.75v-15c0-0.965,0.785-1.75,1.75-1.75h15
	c0.965,0,1.75,0.785,1.75,1.75V12h-0.5V4.5c0-0.689-0.561-1.25-1.25-1.25h-15c-0.689,0-1.25,0.561-1.25,1.25v15
	c0,0.689,0.561,1.25,1.25,1.25H12V21.25z"/>
<path style="fill:#333333;" d="M16,19.25c-1.792,0-3.25-1.458-3.25-3.25s1.458-3.25,3.25-3.25s3.25,1.458,3.25,3.25
	S17.792,19.25,16,19.25z M16,13.25c-1.517,0-2.75,1.233-2.75,2.75s1.233,2.75,2.75,2.75s2.75-1.233,2.75-2.75S17.517,13.25,16,13.25
	z"/>
<rect x="19.5" y="17.399" transform="matrix(0.6247 -0.7809 0.7809 0.6247 -7.4242 22.553)" style="fill:#333333;" width="0.5" height="3.202"/>
<rect x="7" y="7.75" style="fill:#333333;" width="10" height="0.5"/>
<rect x="7" y="11.75" style="fill:#333333;" width="4" height="0.5"/>
</svg>






