<?xml version="1.0" encoding="iso-8859-1"?>
<svg version="1.1" id="&#x56FE;&#x5C42;_1" xmlns="http://www.w3.org/2000/svg" xmlns:xlink="http://www.w3.org/1999/xlink" x="0px"
	 y="0px" viewBox="0 0 24 24" style="enable-background:new 0 0 24 24;" xml:space="preserve">
<polygon style="fill:#333333;" points="6.545,7.25 2.659,7.25 2.659,3.364 3.159,3.364 3.159,6.75 6.545,6.75 "/>
<path style="fill:#333333;" d="M12,22.25C6.348,22.25,1.75,17.652,1.75,12h0.5c0,5.376,4.374,9.75,9.75,9.75s9.75-4.374,9.75-9.75
	S17.376,2.25,12,2.25c-3.47,0-6.706,1.868-8.445,4.874l-0.433-0.25C4.951,3.713,8.353,1.75,12,1.75c5.652,0,10.25,4.598,10.25,10.25
	C22.25,17.652,17.652,22.25,12,22.25z"/>
<polygon style="fill:#333333;" points="16.064,16.421 11.752,12.108 11.753,6 12.253,6 12.252,11.901 16.418,16.067 "/>
</svg>






