<?xml version="1.0" encoding="iso-8859-1"?>
<svg version="1.1" id="&#x56FE;&#x5C42;_1" xmlns="http://www.w3.org/2000/svg" xmlns:xlink="http://www.w3.org/1999/xlink" x="0px"
	 y="0px" viewBox="0 0 24 24" style="enable-background:new 0 0 24 24;" xml:space="preserve">
<path style="fill:#333333;" d="M5.991,22.022c-0.822,0-1.598-0.305-2.207-0.87C3.127,20.54,2.75,19.674,2.75,18.775V18
	c0-0.965,0.785-1.75,1.75-1.75h9.635c0.357,0,0.66-0.246,0.736-0.598l2.884-13.704L18,1.75h3l0.245,0.302l-3.536,16.78
	c-0.295,1.411-1.507,2.47-2.946,2.572l-8.53,0.609C6.152,22.02,6.071,22.022,5.991,22.022z M4.5,16.75
	c-0.689,0-1.25,0.561-1.25,1.25v0.775c0,0.771,0.311,1.485,0.875,2.011c0.565,0.525,1.306,0.786,2.072,0.729l8.531-0.609
	c1.217-0.088,2.242-0.982,2.492-2.177L20.691,2.25h-2.488L15.36,15.757c-0.127,0.585-0.631,0.993-1.226,0.993H4.5z"/>
<path style="fill:#333333;" d="M7.5,8.25c-2.06,0-4.25-0.613-4.25-1.75S5.44,4.75,7.5,4.75s4.25,0.613,4.25,1.75S9.56,8.25,7.5,8.25
	z M7.5,5.25c-2.146,0-3.75,0.66-3.75,1.25S5.354,7.75,7.5,7.75s3.75-0.66,3.75-1.25S9.646,5.25,7.5,5.25z"/>
<path style="fill:#333333;" d="M7.5,11.25c-2.06,0-4.25-0.613-4.25-1.75v-3h0.5v3c0,0.59,1.604,1.25,3.75,1.25s3.75-0.66,3.75-1.25
	v-3h0.5v3C11.75,10.637,9.56,11.25,7.5,11.25z"/>
</svg>






