<?xml version="1.0" encoding="iso-8859-1"?>
<svg version="1.1" id="&#x56FE;&#x5C42;_1" xmlns="http://www.w3.org/2000/svg" xmlns:xlink="http://www.w3.org/1999/xlink" x="0px"
	 y="0px" viewBox="0 0 24 24" style="enable-background:new 0 0 24 24;" xml:space="preserve">
<path style="fill:#333333;" d="M14,17.75c-1.692,0-3.074-0.466-4.292-0.876C8.715,16.539,7.858,16.25,7,16.25H2v-0.5h5
	c0.94,0,1.876,0.315,2.868,0.649C11.05,16.798,12.39,17.25,14,17.25c2.687,0,5.965-2.568,7.323-3.927
	c0.589-0.589,0.749-1.118,0.648-1.36c-0.073-0.176-0.297-0.213-0.472-0.213c-0.771,0-5.865,0.978-8.451,1.495l-0.064,0.013
	l-3.063-1.021l0.158-0.475l2.937,0.979c0.788-0.157,7.51-1.492,8.484-1.492c0.624,0,0.853,0.327,0.934,0.521
	c0.207,0.501-0.083,1.231-0.757,1.905C20.268,15.086,16.851,17.75,14,17.75z"/>
<path style="fill:#333333;" d="M13.139,13.208l-0.277-0.416c0.388-0.259,1.42-1.076,1.532-1.731
	c0.027-0.159-0.003-0.289-0.094-0.411c-0.692-0.923-5.392-2.9-7.3-2.9c-2.281,0-4.418,2.021-4.823,2.427L1.823,9.823
	C3.067,8.579,5.081,7.25,7,7.25c2.108,0,6.92,2.06,7.7,3.1c0.174,0.232,0.236,0.5,0.187,0.795
	C14.718,12.13,13.3,13.101,13.139,13.208z"/>
</svg>






