<?xml version="1.0" encoding="iso-8859-1"?>
<svg version="1.1" id="&#x56FE;&#x5C42;_1" xmlns="http://www.w3.org/2000/svg" xmlns:xlink="http://www.w3.org/1999/xlink" x="0px"
	 y="0px" viewBox="0 0 24 24" style="enable-background:new 0 0 24 24;" xml:space="preserve">
<path style="fill:#333333;" d="M14,22.25c-1.692,0-3.074-0.466-4.292-0.876C8.715,21.039,7.858,20.75,7,20.75H2v-0.5h5
	c0.94,0,1.876,0.315,2.868,0.649C11.05,21.298,12.39,21.75,14,21.75c2.687,0,5.965-2.568,7.323-3.927
	c0.589-0.589,0.749-1.118,0.648-1.36c-0.073-0.176-0.297-0.213-0.472-0.213c-0.771,0-5.865,0.978-8.451,1.495l-0.064,0.013
	l-3.063-1.021l0.158-0.475l2.937,0.979c0.788-0.157,7.51-1.492,8.484-1.492c0.624,0,0.853,0.327,0.934,0.521
	c0.207,0.501-0.083,1.231-0.757,1.905C20.268,19.586,16.851,22.25,14,22.25z"/>
<path style="fill:#333333;" d="M13.139,17.708l-0.277-0.416c0.388-0.259,1.42-1.076,1.532-1.731c0.027-0.159-0.003-0.289-0.094-0.41
	c-0.692-0.924-5.392-2.9-7.3-2.9c-2.281,0-4.418,2.021-4.823,2.427l-0.354-0.354C3.067,13.079,5.081,11.75,7,11.75
	c2.108,0,6.92,2.06,7.7,3.1c0.174,0.232,0.236,0.5,0.187,0.796C14.718,16.63,13.3,17.601,13.139,17.708z"/>
<path style="fill:#333333;" d="M17,12.75c-0.965,0-1.75-0.785-1.75-1.75S16.035,9.25,17,9.25s1.75,0.785,1.75,1.75
	S17.965,12.75,17,12.75z M17,9.75c-0.689,0-1.25,0.561-1.25,1.25s0.561,1.25,1.25,1.25s1.25-0.561,1.25-1.25S17.689,9.75,17,9.75z"
	/>
<path style="fill:#333333;" d="M11,9.25c-0.965,0-1.75-0.785-1.75-1.75S10.035,5.75,11,5.75s1.75,0.785,1.75,1.75
	S11.965,9.25,11,9.25z M11,6.25c-0.689,0-1.25,0.561-1.25,1.25S10.311,8.75,11,8.75s1.25-0.561,1.25-1.25S11.689,6.25,11,6.25z"/>
<path style="fill:#333333;" d="M17,5.25c-0.965,0-1.75-0.785-1.75-1.75S16.035,1.75,17,1.75s1.75,0.785,1.75,1.75
	S17.965,5.25,17,5.25z M17,2.25c-0.689,0-1.25,0.561-1.25,1.25S16.311,4.75,17,4.75s1.25-0.561,1.25-1.25S17.689,2.25,17,2.25z"/>
</svg>






