<?xml version="1.0" encoding="iso-8859-1"?>
<svg version="1.1" id="&#x56FE;&#x5C42;_1" xmlns="http://www.w3.org/2000/svg" xmlns:xlink="http://www.w3.org/1999/xlink" x="0px"
	 y="0px" viewBox="0 0 24 24" style="enable-background:new 0 0 24 24;" xml:space="preserve">
<path style="fill:#333333;" d="M15.722,11.448c-0.238,0-0.473-0.069-0.678-0.203l-4.049-2.63c-0.168-0.109-0.37-0.146-0.564-0.104
	l-1.552,0.33L8.775,8.352l1.551-0.33c0.323-0.068,0.659-0.008,0.94,0.174l4.05,2.63c0.167,0.109,0.365,0.147,0.564,0.104
	l3.508-0.746c0.195-0.042,0.363-0.157,0.473-0.325c0.109-0.168,0.146-0.368,0.104-0.564l-0.312-1.468
	c-0.042-0.196-0.157-0.364-0.325-0.473c-0.168-0.109-0.367-0.145-0.564-0.104l-2.041,0.434c-0.323,0.07-0.659,0.009-0.939-0.175
	l-4.05-2.63c-0.166-0.107-0.371-0.145-0.564-0.104L2.282,6.665L2.179,6.175l8.887-1.889c0.319-0.067,0.664-0.005,0.94,0.174
	l4.05,2.63c0.169,0.109,0.366,0.146,0.564,0.104l2.041-0.434c0.322-0.069,0.66-0.008,0.94,0.174c0.28,0.182,0.473,0.462,0.541,0.789
	l0.312,1.467c0.07,0.326,0.008,0.66-0.174,0.94s-0.461,0.473-0.788,0.542l-3.508,0.746C15.897,11.438,15.81,11.448,15.722,11.448z"
	/>
<path style="fill:#333333;" d="M12.672,18.741c-0.239,0-0.473-0.069-0.678-0.202l-4.05-2.63c-0.165-0.107-0.372-0.146-0.564-0.105
	l-2.04,0.434c-0.326,0.072-0.66,0.009-0.94-0.174c-0.28-0.182-0.473-0.461-0.542-0.788l-0.312-1.468
	c-0.069-0.326-0.007-0.661,0.175-0.94c0.182-0.28,0.462-0.473,0.789-0.541l3.507-0.746c0.325-0.068,0.661-0.008,0.94,0.174
	l4.049,2.629c0.168,0.109,0.373,0.148,0.565,0.104l1.551-0.329l0.104,0.488l-1.551,0.33c-0.324,0.07-0.661,0.008-0.94-0.174
	l-4.05-2.63c-0.168-0.109-0.369-0.148-0.564-0.104l-3.508,0.745c-0.196,0.042-0.364,0.157-0.473,0.325
	c-0.109,0.168-0.146,0.368-0.105,0.564l0.312,1.468c0.042,0.195,0.157,0.363,0.325,0.473c0.167,0.109,0.368,0.146,0.564,0.104
	l2.041-0.434c0.322-0.07,0.665-0.005,0.94,0.174l4.049,2.63c0.168,0.109,0.372,0.146,0.564,0.105l8.888-1.889l0.104,0.488
	l-8.888,1.889C12.847,18.731,12.759,18.741,12.672,18.741z"/>
</svg>






