<?xml version="1.0" encoding="iso-8859-1"?>
<svg version="1.1" id="&#x56FE;&#x5C42;_1" xmlns="http://www.w3.org/2000/svg" xmlns:xlink="http://www.w3.org/1999/xlink" x="0px"
	 y="0px" viewBox="0 0 24 24" style="enable-background:new 0 0 24 24;" xml:space="preserve">
<path style="fill:#333333;" d="M19,21.75c-0.056,0-5.558-0.006-9.035-0.503C7.27,20.862,2.75,19.929,2.75,18
	c0-0.438,0.159-0.808,0.474-1.096c0.864-0.793,2.602-0.67,2.798-0.653c0.153,0.001,0.377,0.015,0.617,0.033
	c0.648,0.05,1.533,0.119,1.908-0.226c0.137-0.126,0.204-0.31,0.204-0.559c0-1.198-3.386-2.133-4.771-2.251l0.042-0.498
	C5.174,12.849,9.25,13.748,9.25,15.5c0,0.391-0.123,0.702-0.364,0.926C8.352,16.919,7.38,16.844,6.6,16.783
	c-0.224-0.019-0.423-0.026-0.598-0.033c-0.65-0.055-1.866-0.005-2.44,0.522C3.352,17.465,3.25,17.703,3.25,18
	c0,1.1,2.6,2.154,6.785,2.753c3.442,0.491,8.91,0.497,8.965,0.497V21.75z"/>
<rect x="3.379" y="8.25" transform="matrix(0.7071 -0.7071 0.7071 0.7071 -4.3995 6.3787)" style="fill:#333333;" width="4.243" height="0.5"/>
<polygon style="fill:#333333;" points="20.823,5.177 18.896,3.25 14,3.25 14,2.75 19.104,2.75 21.177,4.823 "/>
<path style="fill:#333333;" d="M18,10.25H9.896L6.823,7.177L7,6.75h8.104l3.073,3.073L18,10.25z M10.104,9.75h7.293l-2.5-2.5H7.604
	L10.104,9.75z"/>
<rect x="20.75" y="8" style="fill:#333333;" width="0.5" height="3"/>
<rect x="12.75" y="13" style="fill:#333333;" width="0.5" height="2"/>
<rect x="15.75" y="13" style="fill:#333333;" width="0.5" height="4"/>
</svg>






