<?xml version="1.0" encoding="iso-8859-1"?>
<svg version="1.1" id="&#x56FE;&#x5C42;_1" xmlns="http://www.w3.org/2000/svg" xmlns:xlink="http://www.w3.org/1999/xlink" x="0px"
	 y="0px" viewBox="0 0 24 24" style="enable-background:new 0 0 24 24;" xml:space="preserve">
<path style="fill:#333333;" d="M4.238,8.183c-0.312,0-0.625-0.116-0.868-0.35L3.011,7.486C2.515,7.008,2.5,6.215,2.979,5.719l0,0
	L5.409,3.2C5.887,2.704,6.68,2.69,7.176,3.168l0.36,0.348c0.496,0.479,0.51,1.271,0.032,1.767L5.138,7.802
	C4.893,8.056,4.565,8.183,4.238,8.183z M3.339,6.065L3.339,6.065C3.051,6.363,3.06,6.839,3.357,7.126l0.36,0.348
	c0.299,0.287,0.774,0.279,1.061-0.019l2.43-2.519c0.287-0.298,0.278-0.773-0.02-1.061L6.83,3.528
	c-0.145-0.139-0.335-0.209-0.535-0.21c-0.2,0.004-0.387,0.085-0.526,0.229L3.339,6.065z"/>
<path style="fill:#333333;" d="M11.434,15.126c-0.312,0-0.625-0.116-0.868-0.35l-0.359-0.347c-0.496-0.479-0.51-1.271-0.032-1.768h0
	l2.43-2.519c0.48-0.496,1.272-0.51,1.768-0.032l0.359,0.348c0.496,0.479,0.51,1.272,0.031,1.768l-2.43,2.519
	C12.089,14.999,11.762,15.126,11.434,15.126z M10.535,13.01c-0.287,0.297-0.278,0.773,0.02,1.061l0.359,0.347
	c0.298,0.286,0.773,0.278,1.061-0.02l2.43-2.518c0.287-0.298,0.278-0.773-0.02-1.061l-0.359-0.347
	c-0.297-0.286-0.771-0.278-1.061,0.02L10.535,13.01z"/>
<path style="fill:#333333;" d="M4.995,10.998c-0.312,0-0.625-0.116-0.867-0.349l-0.36-0.348C3.527,10.07,3.392,9.758,3.386,9.424
	c-0.006-0.334,0.119-0.65,0.35-0.89h0L8.25,3.856c0.478-0.495,1.271-0.51,1.768-0.031l0.359,0.347
	c0.241,0.231,0.376,0.543,0.382,0.876c0.006,0.334-0.119,0.65-0.35,0.89l-4.514,4.678C5.65,10.871,5.323,10.998,4.995,10.998z
	 M4.096,8.881c-0.287,0.297-0.278,0.773,0.019,1.06l0.36,0.348c0.296,0.285,0.773,0.278,1.061-0.02l4.513-4.678
	c0.287-0.297,0.278-0.773-0.019-1.06L9.67,4.185C9.373,3.897,8.896,3.906,8.609,4.204L4.096,8.881z"/>
<path style="fill:#333333;" d="M8.594,14.47c-0.312,0-0.625-0.116-0.868-0.35l-0.359-0.347c-0.496-0.479-0.51-1.271-0.032-1.768h0
	l4.514-4.678c0.231-0.24,0.543-0.376,0.877-0.382c0.328-0.012,0.649,0.119,0.891,0.351l0.359,0.347
	c0.24,0.231,0.376,0.543,0.382,0.877s-0.118,0.65-0.351,0.891l-4.513,4.677C9.249,14.343,8.921,14.47,8.594,14.47z M7.694,12.354
	c-0.287,0.297-0.278,0.773,0.02,1.061l0.359,0.347c0.299,0.286,0.773,0.278,1.061-0.02l4.513-4.677
	c0.139-0.144,0.214-0.333,0.21-0.534c-0.004-0.2-0.085-0.387-0.229-0.526l-0.359-0.348c-0.144-0.139-0.301-0.217-0.534-0.21
	c-0.2,0.003-0.387,0.085-0.526,0.229L7.694,12.354z"/>
<path style="fill:#333333;" d="M5.406,14.173c-0.312,0-0.625-0.116-0.868-0.35l-0.359-0.347c-0.496-0.479-0.51-1.271-0.032-1.767
	l0,0l7.291-7.556c0.479-0.497,1.272-0.509,1.768-0.032l0.36,0.347c0.24,0.232,0.376,0.543,0.381,0.877
	c0.006,0.334-0.118,0.65-0.351,0.891l-7.29,7.556C6.061,14.046,5.733,14.173,5.406,14.173z M4.507,12.057L4.507,12.057
	c-0.287,0.297-0.279,0.773,0.019,1.061l0.359,0.347c0.298,0.287,0.774,0.278,1.061-0.02l7.29-7.555
	c0.139-0.145,0.214-0.334,0.211-0.535c-0.004-0.2-0.085-0.387-0.229-0.526l-0.36-0.347c-0.295-0.287-0.772-0.278-1.061,0.019
	L4.507,12.057z"/>
<path style="fill:#333333;" d="M19.711,21.516l-7.563-7.298l2.432-2.519l7.562,7.298L19.711,21.516z M12.854,14.206l6.845,6.603
	l1.735-1.8l-6.844-6.603L12.854,14.206z"/>
<path style="fill:#333333;" d="M8.5,22.25c-1.241,0-2.25-0.953-2.25-2.125c0-1.104,1.857-3.076,2.069-3.298L8.5,16.639l0.181,0.188
	c0.212,0.222,2.069,2.194,2.069,3.298C10.75,21.297,9.741,22.25,8.5,22.25z M8.5,17.367c-0.616,0.678-1.75,2.066-1.75,2.758
	c0,0.896,0.785,1.625,1.75,1.625s1.75-0.729,1.75-1.625C10.25,19.434,9.116,18.045,8.5,17.367z"/>
</svg>






