<?xml version="1.0" encoding="iso-8859-1"?>
<svg version="1.1" id="&#x56FE;&#x5C42;_1" xmlns="http://www.w3.org/2000/svg" xmlns:xlink="http://www.w3.org/1999/xlink" x="0px"
	 y="0px" viewBox="0 0 24 24" style="enable-background:new 0 0 24 24;" xml:space="preserve">
<path style="fill:#333333;" d="M6.134,7.846c-0.51,0-0.989-0.198-1.349-0.559c-0.744-0.744-0.744-1.954,0-2.698l2.345-2.345
	c0.744-0.744,1.954-0.744,2.698,0c0.744,0.744,0.744,1.955,0,2.698L7.483,7.287C7.123,7.647,6.644,7.846,6.134,7.846z M8.479,2.187
	c-0.36,0-0.721,0.137-0.996,0.412L5.138,4.943c-0.549,0.549-0.548,1.442,0,1.991c0.532,0.532,1.459,0.532,1.991,0l2.345-2.344
	c0.549-0.549,0.549-1.442,0-1.991C9.2,2.324,8.839,2.187,8.479,2.187z"/>
<path style="fill:#333333;" d="M10.433,12.926c-0.51,0-0.989-0.198-1.349-0.559c-0.744-0.744-0.744-1.954,0-2.698l3.126-3.126
	c0.744-0.743,1.954-0.744,2.698,0s0.744,1.954,0,2.698l-3.126,3.126C11.421,12.728,10.942,12.926,10.433,12.926z M12.563,6.896
	l-3.126,3.126c-0.549,0.549-0.549,1.442,0,1.991c0.531,0.531,1.458,0.531,1.991,0l3.126-3.126c0.549-0.549,0.549-1.442,0-1.991
	C14.005,6.347,13.111,6.349,12.563,6.896L12.563,6.896z"/>
<path style="fill:#333333;" d="M19.711,19.257c-0.382,0-0.741-0.13-1.007-0.396l-6.885-6.885l0.354-0.354l6.885,6.885
	c0.415,0.415,1.199,0.308,1.749-0.242c0.273-0.273,0.445-0.611,0.485-0.953c0.036-0.319-0.05-0.603-0.243-0.796l-6.886-6.885
	l0.354-0.354l6.886,6.885c0.304,0.304,0.44,0.732,0.386,1.207c-0.052,0.453-0.275,0.896-0.628,1.249
	C20.74,19.039,20.206,19.257,19.711,19.257z"/>
<path style="fill:#333333;" d="M6.916,11.753c-0.489,0-0.977-0.186-1.349-0.558c-0.743-0.744-0.743-1.954,0-2.698l5.471-5.471
	c0.744-0.742,1.954-0.743,2.698,0c0.744,0.744,0.744,1.954,0,2.698l-5.471,5.471C7.893,11.567,7.404,11.753,6.916,11.753z
	 M11.391,3.379L5.92,8.851c-0.548,0.549-0.548,1.442,0,1.991c0.549,0.549,1.442,0.549,1.991,0l5.471-5.471
	c0.549-0.549,0.549-1.442,0-1.991C12.833,2.832,11.94,2.831,11.391,3.379L11.391,3.379z"/>
<path style="fill:#333333;" d="M8.585,22.321c-1.288,0-2.271-0.613-2.769-1.726c-0.608-1.362-0.358-3.239,0.569-4.274
	c0.88-0.983,0.983-2.556,0.303-4.674l0.477-0.152c0.737,2.299,0.6,4.034-0.408,5.16c-0.792,0.885-1.01,2.561-0.485,3.736
	c0.292,0.652,0.929,1.43,2.312,1.43c1.641,0,2.485-1.084,2.71-2.012c0.218-0.901-0.015-2.204-1.388-2.91l0.229-0.445
	c1.343,0.69,1.989,2.054,1.646,3.474C11.429,21.382,10.175,22.321,8.585,22.321z"/>
</svg>






