<?xml version="1.0" encoding="iso-8859-1"?>
<svg version="1.1" id="&#x56FE;&#x5C42;_1" xmlns="http://www.w3.org/2000/svg" xmlns:xlink="http://www.w3.org/1999/xlink" x="0px"
	 y="0px" viewBox="0 0 24 24" style="enable-background:new 0 0 24 24;" xml:space="preserve">
<path style="fill:#333333;" d="M2.25,12.5h-0.5V9.149C1.75,4.102,6.076,1.75,9,1.75v0.5c-2.115,0-6.75,1.737-6.75,6.899V12.5z"/>
<rect x="17.25" y="15" style="fill:#333333;" width="0.5" height="7"/>
<path style="fill:#333333;" d="M19.303,16.527c-0.615,0-1.175-0.329-1.518-0.898c-1.46-2.434-4.513-2.642-5.557-2.512
	c-2.392,0.411-3.216-1.289-3.459-2.04l0.476-0.154c0.308,0.952,1.061,2.014,2.911,1.7c1.159-0.14,4.461,0.089,6.059,2.748
	c0.272,0.453,0.716,0.691,1.188,0.652c0.882-0.07,1.744-0.998,2.365-2.546l0.465,0.186c-0.695,1.731-1.713,2.773-2.791,2.858
	C19.396,16.525,19.349,16.527,19.303,16.527z"/>
<path style="fill:#333333;" d="M5.25,22h-0.5V8.971c0-2.414,1.27-3.174,1.952-3.583l0.165-0.1c1.764-0.883,3.211-0.299,3.751-0.008
	c0.72,0.388,1.531,1.263,1.565,1.3l1.012,1.263l-0.391,0.312l-1-1.25l0,0c0,0-0.779-0.839-1.423-1.186
	c-0.473-0.254-1.736-0.764-3.27,0.003L6.959,5.817C6.278,6.225,5.25,6.841,5.25,8.971V22z"/>
<path style="fill:#333333;" d="M13.75,22h-0.5v-1.5c0-1.24-1.01-2.25-2.25-2.25c-1.241,0-2.25,1.01-2.25,2.25V22h-0.5v-1.5
	c0-1.517,1.233-2.75,2.75-2.75s2.75,1.233,2.75,2.75V22z"/>
</svg>






