<?xml version="1.0" encoding="iso-8859-1"?>
<svg version="1.1" id="&#x56FE;&#x5C42;_1" xmlns="http://www.w3.org/2000/svg" xmlns:xlink="http://www.w3.org/1999/xlink" x="0px"
	 y="0px" viewBox="0 0 24 24" style="enable-background:new 0 0 24 24;" xml:space="preserve">
<path style="fill:#333333;" d="M14.25,21.25H3c-0.689,0-1.25-0.561-1.25-1.25V4c0-0.689,0.561-1.25,1.25-1.25h10
	c0.689,0,1.25,0.561,1.25,1.25V21.25z M3,3.25C2.586,3.25,2.25,3.586,2.25,4v16c0,0.413,0.336,0.75,0.75,0.75h10.75V4
	c0-0.414-0.337-0.75-0.75-0.75H3z"/>
<path style="fill:#333333;" d="M10.75,21h-0.5v-4.5c0-0.689-0.561-1.25-1.25-1.25H7c-0.689,0-1.25,0.561-1.25,1.25V21h-0.5v-4.5
	c0-0.965,0.785-1.75,1.75-1.75h2c0.965,0,1.75,0.785,1.75,1.75V21z"/>
<path style="fill:#333333;" d="M21,21.25h-7.25v-9.5H21c0.689,0,1.25,0.561,1.25,1.25v7C22.25,20.689,21.689,21.25,21,21.25z
	 M14.25,20.75H21c0.413,0,0.75-0.337,0.75-0.75v-7c0-0.413-0.337-0.75-0.75-0.75h-6.75V20.75z"/>
<rect x="6" y="8.75" style="fill:#333333;" width="4" height="0.5"/>
<rect x="17" y="14.75" style="fill:#333333;" width="2" height="0.5"/>
<rect x="17" y="17.75" style="fill:#333333;" width="2" height="0.5"/>
<rect x="7.75" y="7" style="fill:#333333;" width="0.5" height="4"/>
<rect x="3.5" y="20.75" style="fill:#333333;" width="9" height="0.5"/>
</svg>






