<?xml version="1.0" encoding="iso-8859-1"?>
<svg version="1.1" id="&#x56FE;&#x5C42;_1" xmlns="http://www.w3.org/2000/svg" xmlns:xlink="http://www.w3.org/1999/xlink" x="0px"
	 y="0px" viewBox="0 0 24 24" style="enable-background:new 0 0 24 24;" xml:space="preserve">
<polygon style="fill:#333333;" points="22.369,10.75 1.631,10.75 3.831,5.25 8,5.25 8,5.75 4.169,5.75 2.369,10.25 21.631,10.25 
	19.831,5.75 16,5.75 16,5.25 20.169,5.25 "/>
<path style="fill:#333333;" d="M20.25,21.75H3.75v-11.5h16.5V21.75z M4.25,21.25h15.5v-10.5H4.25V21.25z"/>
<path style="fill:#333333;" d="M16.25,10.75h-8.5v-8.5h8.5V10.75z M8.25,10.25h7.5v-7.5h-7.5V10.25z"/>
<path style="fill:#333333;" d="M12.25,21.75h-4.5v-7.5h4.5V21.75z M8.25,21.25h3.5v-6.5h-3.5V21.25z"/>
<path style="fill:#333333;" d="M16.25,21.75h-4.5v-7.5h4.5V21.75z M12.25,21.25h3.5v-6.5h-3.5V21.25z"/>
<rect x="10.5" y="6.25" style="fill:#333333;" width="3" height="0.5"/>
<rect x="6" y="21.25" style="fill:#333333;" width="12" height="0.5"/>
<rect x="11.75" y="5" style="fill:#333333;" width="0.5" height="3"/>
</svg>






