<?xml version="1.0" encoding="iso-8859-1"?>
<svg version="1.1" id="&#x56FE;&#x5C42;_1" xmlns="http://www.w3.org/2000/svg" xmlns:xlink="http://www.w3.org/1999/xlink" x="0px"
	 y="0px" viewBox="0 0 24 24" style="enable-background:new 0 0 24 24;" xml:space="preserve">
<rect x="11.75" y="2" style="fill:#333333;" width="0.5" height="3.5"/>
<rect x="15.75" y="3.5" style="fill:#333333;" width="0.5" height="2"/>
<rect x="7.75" y="3.5" style="fill:#333333;" width="0.5" height="2"/>
<path style="fill:#333333;" d="M12,16.75c-2.006,0-3.948-0.466-5.617-1.347C3.482,13.871,1.75,11.291,1.75,8.5V8.25h20.5V8.5
	c0,2.791-1.732,5.371-4.633,6.903C15.948,16.284,14.006,16.75,12,16.75z M2.255,8.75c0.101,2.506,1.715,4.813,4.362,6.212
	C8.213,15.805,10.075,16.25,12,16.25s3.786-0.445,5.383-1.288c2.647-1.398,4.262-3.706,4.362-6.212H2.255z"/>
<rect x="5.233" y="19.25" style="fill:#333333;" width="13.533" height="0.5"/>
<rect x="1.948" y="18.341" transform="matrix(0.2814 -0.9596 0.9596 0.2814 -13.8877 18.6369)" style="fill:#333333;" width="7.105" height="0.5"/>
<rect x="18.25" y="15.039" transform="matrix(0.9596 -0.2815 0.2815 0.9596 -4.4854 5.9597)" style="fill:#333333;" width="0.501" height="7.105"/>
<rect x="10" y="12.25" style="fill:#333333;" width="4" height="0.5"/>
</svg>






