<?xml version="1.0" encoding="iso-8859-1"?>
<svg version="1.1" id="&#x56FE;&#x5C42;_1" xmlns="http://www.w3.org/2000/svg" xmlns:xlink="http://www.w3.org/1999/xlink" x="0px"
	 y="0px" viewBox="0 0 24 24" style="enable-background:new 0 0 24 24;" xml:space="preserve">
<path style="fill:#333333;" d="M12,18.25c-3.51,0-7.75-4.048-7.75-9.074C4.25,4.942,7.582,1.75,12,1.75
	c4.418,0,7.75,3.192,7.75,7.426C19.75,14.202,15.511,18.25,12,18.25z M12,2.25c-4.133,0-7.25,2.978-7.25,6.926
	c0,4.75,3.966,8.574,7.25,8.574c3.284,0,7.25-3.824,7.25-8.574C19.25,5.228,16.133,2.25,12,2.25z"/>
<path style="fill:#333333;" d="M12.682,18.172l-0.363-0.344C14.026,16.03,15.75,12.913,15.75,10c0-2.961-1.723-6.064-3.43-7.826
	l0.359-0.348c1.777,1.834,3.57,5.073,3.57,8.174C16.25,13.051,14.458,16.303,12.682,18.172z"/>
<path style="fill:#333333;" d="M11.326,18.18C9.054,15.986,7.75,13.005,7.75,10c0-3.091,1.271-5.997,3.578-8.182l0.344,0.363
	C9.465,4.271,8.25,7.047,8.25,10c0,2.87,1.248,5.721,3.424,7.82L11.326,18.18z"/>
<path style="fill:#333333;" d="M13.451,8.486c-1.321,0-2.431-0.218-2.501-0.232l0.099-0.49c0.025,0.005,2.501,0.493,4.389,0.003
	c1.902-0.492,3.411-1.466,3.426-1.476l0.273,0.419c-0.064,0.042-1.59,1.028-3.574,1.542C14.879,8.427,14.137,8.486,13.451,8.486z"/>
<path style="fill:#333333;" d="M11.748,12.313c-0.764,0-1.781-0.064-2.808-0.321c-2.004-0.501-4.448-1.717-4.551-1.769l0.224-0.447
	c0.025,0.012,2.499,1.244,4.449,1.731c1.933,0.483,3.888,0.247,3.908,0.245l0.062,0.496C12.99,12.253,12.488,12.313,11.748,12.313z"
	/>
<path style="fill:none;" d="M9,17.5l0.7,3.548c0,0,1.363,0.952,2.3,0.952s2.3-0.952,2.3-0.952l0.697-3.533L12,18L9,17.5z"/>
<path style="fill:#333333;" d="M12,22.25c-1.005,0-2.385-0.956-2.443-0.997l-0.083-0.058l-0.79-4.001l3.316,0.553l3.311-0.537
	l-0.786,3.985l-0.082,0.058C14.385,21.294,13.005,22.25,12,22.25z M9.925,20.898c0.299,0.196,1.351,0.852,2.075,0.852
	c0.657,0,1.651-0.57,2.074-0.852l0.608-3.079L12,18.253l-0.041-0.006l-2.644-0.441L9.925,20.898z"/>
</svg>






