<?xml version="1.0" encoding="iso-8859-1"?>
<svg version="1.1" id="&#x56FE;&#x5C42;_1" xmlns="http://www.w3.org/2000/svg" xmlns:xlink="http://www.w3.org/1999/xlink" x="0px"
	 y="0px" viewBox="0 0 24 24" style="enable-background:new 0 0 24 24;" xml:space="preserve">
<path style="fill:#333333;" d="M12,18.25c-5.479,0-8.75-3.458-8.75-9.25V8.75h17.5V9C20.75,14.792,17.479,18.25,12,18.25z
	 M3.752,9.25c0.089,5.406,3.084,8.5,8.248,8.5s8.159-3.094,8.248-8.5H3.752z"/>
<polygon style="fill:#333333;" points="17.347,22.25 6.653,22.25 8.263,17.421 8.737,17.579 7.347,21.75 16.653,21.75 
	15.263,17.579 15.737,17.421 "/>
<polygon style="fill:#333333;" points="14.251,9.02 13.714,2.25 10.287,2.25 9.749,9.02 9.251,8.98 9.825,1.75 14.175,1.75 
	14.749,8.98 "/>
<path style="fill:#333333;" d="M8.983,14.249c-0.025-0.001-0.635-0.047-1.16-0.572s-0.571-1.135-0.573-1.16l0.499-0.034
	c0,0.004,0.04,0.453,0.427,0.841c0.388,0.388,0.835,0.427,0.84,0.428L8.983,14.249z"/>
</svg>






