<?xml version="1.0" encoding="iso-8859-1"?>
<svg version="1.1" id="&#x56FE;&#x5C42;_1" xmlns="http://www.w3.org/2000/svg" xmlns:xlink="http://www.w3.org/1999/xlink" x="0px"
	 y="0px" viewBox="0 0 24 24" style="enable-background:new 0 0 24 24;" xml:space="preserve">
<rect x="2" y="1.75" style="fill:#333333;" width="20" height="0.5"/>
<path style="fill:#333333;" d="M19,22.25H5c-0.689,0-1.25-0.561-1.25-1.25V3c0-0.689,0.561-1.25,1.25-1.25h14
	c0.689,0,1.25,0.561,1.25,1.25v18C20.25,21.689,19.689,22.25,19,22.25z M5,2.25C4.586,2.25,4.25,2.586,4.25,3v18
	c0,0.413,0.336,0.75,0.75,0.75h14c0.413,0,0.75-0.337,0.75-0.75V3c0-0.414-0.337-0.75-0.75-0.75H5z"/>
<path style="fill:#333333;" d="M14.25,22.25h-4.5v-6.5h4.5V22.25z M10.25,21.75h3.5v-5.5h-3.5V21.75z"/>
<rect x="7.5" y="5.75" style="fill:#333333;" width="1" height="0.5"/>
<rect x="7.5" y="8.75" style="fill:#333333;" width="1" height="0.5"/>
<rect x="11.5" y="5.75" style="fill:#333333;" width="1" height="0.5"/>
<rect x="11.5" y="8.75" style="fill:#333333;" width="1" height="0.5"/>
<rect x="15.5" y="5.75" style="fill:#333333;" width="1" height="0.5"/>
<rect x="15.5" y="8.75" style="fill:#333333;" width="1" height="0.5"/>
<rect x="2" y="21.75" style="fill:#333333;" width="20" height="0.5"/>
<path style="fill:#333333;" d="M15,16.25h-1v-0.5h1c0.07,0,0.136-0.028,0.176-0.077c0.029-0.036,0.04-0.077,0.031-0.122
	c-0.26-1.333-1.608-2.301-3.207-2.301s-2.947,0.968-3.207,2.301c-0.009,0.045,0.001,0.086,0.031,0.122
	C8.864,15.722,8.93,15.75,9,15.75h1v0.5H9c-0.218,0-0.427-0.097-0.561-0.259c-0.125-0.152-0.174-0.343-0.137-0.536
	c0.305-1.567,1.86-2.705,3.698-2.705c1.838,0,3.393,1.138,3.697,2.705c0.038,0.193-0.011,0.384-0.136,0.536
	C15.428,16.153,15.218,16.25,15,16.25z"/>
</svg>






