<?xml version="1.0" encoding="iso-8859-1"?>
<svg version="1.1" id="&#x56FE;&#x5C42;_1" xmlns="http://www.w3.org/2000/svg" xmlns:xlink="http://www.w3.org/1999/xlink" x="0px"
	 y="0px" viewBox="0 0 24 24" style="enable-background:new 0 0 24 24;" xml:space="preserve">
<path style="fill:none;" d="M6.5,13.5c0,0,10,0,10-6V22h-10V13.5z"/>
<path style="fill:#333333;" d="M16.75,22.25H6.25v-9H6.5c0.098,0,9.75-0.069,9.75-5.75V7c0-2.619-2.131-4.75-4.75-4.75
	S6.75,4.381,6.75,7h-0.5c0-2.895,2.355-5.25,5.25-5.25c2.895,0,5.25,2.355,5.25,5.25V22.25z M6.75,21.75h9.5V9.703
	c-1.83,3.643-8.131,4.007-9.5,4.043V21.75z"/>
<polygon style="fill:#333333;" points="11,18.854 9.323,17.177 9.677,16.823 11,18.146 13.323,15.823 13.677,16.177 "/>
</svg>






