<?xml version="1.0" encoding="iso-8859-1"?>
<svg version="1.1" id="&#x56FE;&#x5C42;_1" xmlns="http://www.w3.org/2000/svg" xmlns:xlink="http://www.w3.org/1999/xlink" x="0px"
	 y="0px" viewBox="0 0 24 24" style="enable-background:new 0 0 24 24;" xml:space="preserve">
<rect x="4" y="1.75" style="fill:#333333;" width="16" height="0.5"/>
<rect x="4" y="21.75" style="fill:#333333;" width="16" height="0.5"/>
<polygon style="fill:#333333;" points="10.314,13.167 5.75,8.096 5.75,2 6.25,2 6.25,7.904 10.686,12.833 "/>
<polygon style="fill:#333333;" points="18.25,22 17.75,22 17.75,14.857 13.328,10.682 13.672,10.318 18.25,14.643 "/>
<polygon style="fill:#333333;" points="6.25,22 5.75,22 5.75,14.896 9.073,11.573 9.427,11.927 6.25,15.104 "/>
<polygon style="fill:#333333;" points="14.938,11.914 14.562,11.586 17.75,7.907 17.75,2 18.25,2 18.25,8.093 "/>
<rect x="9" y="16.25" style="fill:#333333;" width="0.5" height="0.5"/>
<rect x="14.5" y="16.25" transform="matrix(0.7071 -0.7071 0.7071 0.7071 -7.3471 15.2626)" style="fill:#333333;" width="0.5" height="0.5"/>
<rect x="12" y="18.75" style="fill:#333333;" width="0.5" height="0.5"/>
</svg>






