<?xml version="1.0" encoding="iso-8859-1"?>
<svg version="1.1" id="&#x56FE;&#x5C42;_1" xmlns="http://www.w3.org/2000/svg" xmlns:xlink="http://www.w3.org/1999/xlink" x="0px"
	 y="0px" viewBox="0 0 24 24" style="enable-background:new 0 0 24 24;" xml:space="preserve">
<rect x="3.5" y="1.75" style="fill:#333333;" width="17" height="0.5"/>
<rect x="3.5" y="21.75" style="fill:#333333;" width="17" height="0.5"/>
<path style="fill:#333333;" d="M18.805,22.25H5.195l0.06-0.299c1.353-6.769,3.622-10.201,6.741-10.201c0.001,0,0.002,0,0.004,0
	c3.122,0.003,5.392,3.436,6.745,10.201L18.805,22.25z M5.806,21.75h12.388c-1.305-6.302-3.388-9.497-6.194-9.5
	c-0.001,0-0.003,0-0.004,0C9.192,12.25,7.11,15.445,5.806,21.75z"/>
<path style="fill:#333333;" d="M12.004,12.25c-0.002,0-0.003,0-0.004,0C8.878,12.247,6.609,8.815,5.255,2.049L5.195,1.75h13.61
	l-0.06,0.299C17.393,8.818,15.124,12.25,12.004,12.25z M5.806,2.25c1.305,6.302,3.388,9.497,6.194,9.5c0.001,0,0.003,0,0.004,0
	c2.805,0,4.886-3.195,6.19-9.5H5.806z"/>
</svg>






