<?xml version="1.0" encoding="iso-8859-1"?>
<svg version="1.1" id="&#x56FE;&#x5C42;_1" xmlns="http://www.w3.org/2000/svg" xmlns:xlink="http://www.w3.org/1999/xlink" x="0px"
	 y="0px" viewBox="0 0 24 24" style="enable-background:new 0 0 24 24;" xml:space="preserve">
<path style="fill:#333333;" d="M12,21.649c-0.179,0-0.357-0.039-0.524-0.116l-5.558-2.565c-0.403-0.186-0.679-0.576-0.721-1.018
	L3.854,3.617c-0.033-0.35,0.084-0.699,0.32-0.958C4.41,2.399,4.747,2.25,5.098,2.25h13.803c0.352,0,0.688,0.149,0.925,0.408
	s0.353,0.609,0.32,0.958L18.803,17.95c-0.041,0.441-0.317,0.832-0.721,1.018l-5.559,2.565C12.357,21.61,12.179,21.649,12,21.649z
	 M5.098,2.75c-0.214,0-0.411,0.087-0.555,0.245S4.332,3.357,4.352,3.57l1.344,14.333c0.025,0.266,0.19,0.499,0.433,0.611
	l5.558,2.565c0.199,0.092,0.428,0.092,0.627,0l5.56-2.565c0.241-0.112,0.407-0.346,0.432-0.611L19.648,3.57
	c0.02-0.213-0.049-0.417-0.192-0.575c-0.144-0.158-0.341-0.245-0.555-0.245H5.098z"/>
<polygon style="fill:#333333;" points="12,17.779 8.765,16.162 8.501,13.524 8.999,13.476 9.235,15.838 12,17.221 14.764,15.839 
	15.227,10.75 8.276,10.75 7.721,5.75 16,5.75 16,6.25 8.279,6.25 8.724,10.25 15.773,10.25 15.236,16.161 "/>
</svg>






