<?xml version="1.0" encoding="iso-8859-1"?>
<svg version="1.1" id="&#x56FE;&#x5C42;_1" xmlns="http://www.w3.org/2000/svg" xmlns:xlink="http://www.w3.org/1999/xlink" x="0px"
	 y="0px" viewBox="0 0 24 24" style="enable-background:new 0 0 24 24;" xml:space="preserve">
<g>
	<defs>
		<rect id="SVGID_1_" width="24" height="24"/>
	</defs>
	<clipPath id="SVGID_00000116224881805866000780000000353091799951061693_">
		<use xlink:href="#SVGID_1_"  style="overflow:visible;"/>
	</clipPath>
	<g style="clip-path:url(#SVGID_00000116224881805866000780000000353091799951061693_);">
		<path style="fill:#333333;" d="M5.806,20.569l-3.308-3.307l6.88-10.798l7.156,7.157L5.806,20.569z M3.136,17.192l2.738,2.738
			l9.87-6.394L9.465,7.258L3.136,17.192z"/>
		<path style="fill:#333333;" d="M16.127,13.893L9.053,6.819L9.052,6.716c0-0.035,0.003-0.844,0.834-1.267
			c0.216-0.102,0.558-0.122,1.017-0.063c0.835-1.631,2.059-1.642,3.009-1.307c0.669-0.806,2.07-1.181,3.179-0.824
			c0.672,0.217,0.957,0.572,1.21,0.886c0.165,0.207,0.309,0.385,0.554,0.505c0.267,0.13,0.517,0.04,0.678-0.06
			c0.257-0.158,0.367-0.375,0.368-0.435V4.037c-0.003-0.329-0.006-0.738,0.254-0.941c0.089-0.068,0.241-0.138,0.473-0.079
			c0.451,0.122,0.706,0.568,0.979,1.706c0.175,0.737,0.071,1.779-0.555,2.444c-0.322,0.342-0.902,0.532-1.327,0.659
			c0.135,0.495,0.355,1.591-0.16,2.106c-0.464,0.464-0.822,0.57-1.202,0.682c-0.043,0.013-0.088,0.026-0.133,0.04
			c-0.017,1.35-0.078,2.844-1.971,3.214L16.127,13.893z M9.562,6.621l6.729,6.728c1.411-0.34,1.425-1.482,1.439-2.798l0.003-0.259
			l0.167-0.057c0.113-0.039,0.22-0.07,0.321-0.101c0.356-0.105,0.615-0.181,0.989-0.555c0.336-0.336,0.117-1.403-0.035-1.838
			L19.09,7.496l0.394-0.121c0.354-0.105,0.948-0.281,1.204-0.552c0.495-0.527,0.571-1.398,0.432-1.985
			c-0.264-1.103-0.461-1.295-0.62-1.338c-0.103,0.055-0.1,0.402-0.099,0.533v0.125c-0.003,0.286-0.252,0.637-0.605,0.854
			c-0.381,0.235-0.794,0.263-1.161,0.083c-0.345-0.169-0.537-0.409-0.723-0.641c-0.229-0.284-0.444-0.552-0.975-0.724
			c-0.967-0.313-2.244,0.054-2.729,0.788L14.094,4.69l-0.19-0.079c-1.181-0.486-2.041-0.111-2.629,1.153l-0.08,0.171l-0.187-0.03
			c-0.503-0.08-0.795-0.057-0.902-0.008C9.696,6.107,9.589,6.454,9.562,6.621z"/>
		<path style="fill:#333333;" d="M18.01,8.291c-0.784,0-1.516-0.367-2.263-1.114l0.354-0.354c1.056,1.055,1.982,1.231,3.197,0.612
			l0.227,0.445C18.989,8.153,18.49,8.291,18.01,8.291z"/>
	</g>
</g>
</svg>






