<?xml version="1.0" encoding="iso-8859-1"?>
<svg version="1.1" id="&#x56FE;&#x5C42;_1" xmlns="http://www.w3.org/2000/svg" xmlns:xlink="http://www.w3.org/1999/xlink" x="0px"
	 y="0px" viewBox="0 0 24 24" style="enable-background:new 0 0 24 24;" xml:space="preserve">
<path style="fill:#333333;" d="M16.865,16.25h-9.73c-0.212,0-0.385-0.173-0.385-0.385V7c0-2.895,2.355-5.25,5.25-5.25
	c2.895,0,5.25,2.355,5.25,5.25v8.865C17.25,16.077,17.077,16.25,16.865,16.25z M7.25,15.75h9.5V7c0-2.619-2.131-4.75-4.75-4.75
	S7.25,4.381,7.25,7V15.75z"/>
<rect x="10.25" y="8" style="fill:#333333;" width="0.5" height="3"/>
<rect x="13.25" y="8" style="fill:#333333;" width="0.5" height="3"/>
<path style="fill:#333333;" d="M12,22.25c-0.965,0-1.75-0.785-1.75-1.75V16h0.5v4.5c0,0.689,0.561,1.25,1.25,1.25
	s1.25-0.561,1.25-1.25V16h0.5v4.5C13.75,21.465,12.965,22.25,12,22.25z"/>
</svg>






