<?xml version="1.0" encoding="iso-8859-1"?>
<svg version="1.1" id="&#x56FE;&#x5C42;_1" xmlns="http://www.w3.org/2000/svg" xmlns:xlink="http://www.w3.org/1999/xlink" x="0px"
	 y="0px" viewBox="0 0 24 24" style="enable-background:new 0 0 24 24;" xml:space="preserve">
<path style="fill:#333333;" d="M12,21.75c-1.167,0-1.714-1.603-1.737-1.671L7.173,8.75h9.654l-3.086,11.315
	C13.715,20.147,13.167,21.75,12,21.75z M7.827,9.25l2.914,10.685c0.12,0.355,0.589,1.315,1.259,1.315
	c0.798,0,1.259-1.315,1.263-1.329l2.91-10.671H7.827z"/>
<path style="fill:#333333;" d="M18.25,9.25H5.75V9c0-4.201,2.628-7.25,6.25-7.25c3.621,0,6.25,3.049,6.25,7.25V9.25z M6.253,8.75
	h11.494c-0.102-3.782-2.486-6.5-5.747-6.5C8.74,2.25,6.354,4.968,6.253,8.75z"/>
</svg>






