<?xml version="1.0" encoding="iso-8859-1"?>
<svg version="1.1" id="&#x56FE;&#x5C42;_1" xmlns="http://www.w3.org/2000/svg" xmlns:xlink="http://www.w3.org/1999/xlink" x="0px"
	 y="0px" viewBox="0 0 24 24" style="enable-background:new 0 0 24 24;" xml:space="preserve">
<path style="fill:#333333;" d="M19,22.25H5c-0.689,0-1.25-0.561-1.25-1.25V3c0-0.689,0.561-1.25,1.25-1.25h14
	c0.689,0,1.25,0.561,1.25,1.25v18C20.25,21.689,19.689,22.25,19,22.25z M5,2.25C4.586,2.25,4.25,2.586,4.25,3v18
	c0,0.413,0.336,0.75,0.75,0.75h14c0.413,0,0.75-0.337,0.75-0.75V3c0-0.414-0.337-0.75-0.75-0.75H5z"/>
<path style="fill:#333333;" d="M12,9.75c-1.241,0-2.25-1.009-2.25-2.25S10.759,5.25,12,5.25c1.24,0,2.25,1.009,2.25,2.25
	S13.24,9.75,12,9.75z M12,5.75c-0.965,0-1.75,0.785-1.75,1.75S11.035,9.25,12,9.25s1.75-0.785,1.75-1.75S12.965,5.75,12,5.75z"/>
<path style="fill:#333333;" d="M15.25,12.5h-0.5c0-1.517-1.233-2.75-2.75-2.75s-2.75,1.233-2.75,2.75h-0.5
	c0-1.792,1.458-3.25,3.25-3.25S15.25,10.708,15.25,12.5z"/>
<rect x="9" y="15.25" style="fill:#333333;" width="6" height="0.5"/>
<rect x="9" y="18.25" style="fill:#333333;" width="3.5" height="0.5"/>
</svg>






