<?xml version="1.0" encoding="iso-8859-1"?>
<svg version="1.1" id="&#x56FE;&#x5C42;_1" xmlns="http://www.w3.org/2000/svg" xmlns:xlink="http://www.w3.org/1999/xlink" x="0px"
	 y="0px" viewBox="0 0 24 24" style="enable-background:new 0 0 24 24;" xml:space="preserve">
<path style="fill:#333333;" d="M21,20.25H3c-0.689,0-1.25-0.561-1.25-1.25V5c0-0.689,0.561-1.25,1.25-1.25h18
	c0.689,0,1.25,0.561,1.25,1.25v14C22.25,19.689,21.689,20.25,21,20.25z M3,4.25C2.586,4.25,2.25,4.586,2.25,5v14
	c0,0.413,0.336,0.75,0.75,0.75h18c0.413,0,0.75-0.337,0.75-0.75V5c0-0.414-0.337-0.75-0.75-0.75H3z"/>
<path style="fill:#333333;" d="M8.5,12.75c-1.241,0-2.25-1.009-2.25-2.25S7.259,8.25,8.5,8.25s2.25,1.009,2.25,2.25
	S9.741,12.75,8.5,12.75z M8.5,8.75c-0.965,0-1.75,0.785-1.75,1.75s0.785,1.75,1.75,1.75s1.75-0.785,1.75-1.75S9.465,8.75,8.5,8.75z"
	/>
<path style="fill:#333333;" d="M11.75,15.5h-0.5c0-1.517-1.233-2.75-2.75-2.75s-2.75,1.233-2.75,2.75h-0.5
	c0-1.792,1.458-3.25,3.25-3.25S11.75,13.708,11.75,15.5z"/>
<rect x="14" y="9.75" style="fill:#333333;" width="4" height="0.5"/>
<rect x="15" y="13.75" style="fill:#333333;" width="3" height="0.5"/>
</svg>






