<?xml version="1.0" encoding="iso-8859-1"?>
<svg version="1.1" id="&#x56FE;&#x5C42;_1" xmlns="http://www.w3.org/2000/svg" xmlns:xlink="http://www.w3.org/1999/xlink" x="0px"
	 y="0px" viewBox="0 0 24 24" style="enable-background:new 0 0 24 24;" xml:space="preserve">
<path style="fill:#333333;" d="M19,22.25H5c-0.689,0-1.25-0.561-1.25-1.25V3c0-0.689,0.561-1.25,1.25-1.25h10.25v5h5V21
	C20.25,21.689,19.689,22.25,19,22.25z M5,2.25C4.586,2.25,4.25,2.586,4.25,3v18c0,0.413,0.336,0.75,0.75,0.75h14
	c0.413,0,0.75-0.337,0.75-0.75V7.25h-5v-5H5z"/>
<rect x="17.25" y="0.964" transform="matrix(0.7071 -0.7071 0.7071 0.7071 1.9437 13.6924)" style="fill:#333333;" width="0.5" height="7.071"/>
<path style="fill:#333333;" d="M9,10.75c-1.241,0-2.25-1.009-2.25-2.25S7.759,6.25,9,6.25s2.25,1.009,2.25,2.25
	S10.241,10.75,9,10.75z M9,6.75c-0.965,0-1.75,0.785-1.75,1.75S8.035,10.25,9,10.25s1.75-0.785,1.75-1.75S9.965,6.75,9,6.75z"/>
<path style="fill:#333333;" d="M16.75,18.75h-9.5v-5.123l4.427,1.825l4.637-5.12L16.75,10.5V18.75z M7.75,18.25h8.5v-7.102
	l-4.438,4.899L7.75,14.373V18.25z"/>
</svg>






