<?xml version="1.0" encoding="iso-8859-1"?>
<svg version="1.1" id="&#x56FE;&#x5C42;_1" xmlns="http://www.w3.org/2000/svg" xmlns:xlink="http://www.w3.org/1999/xlink" x="0px"
	 y="0px" viewBox="0 0 24 24" style="enable-background:new 0 0 24 24;" xml:space="preserve">
<rect x="11.75" y="2" style="fill:#333333;" width="0.5" height="7.5"/>
<rect x="5.815" y="9.25" transform="matrix(0.9703 -0.2421 0.2421 0.9703 -1.9428 3.1875)" style="fill:#333333;" width="12.369" height="0.5"/>
<rect x="11.969" y="11.25" transform="matrix(0.4966 -0.868 0.868 0.4966 -1.927 19.6776)" style="fill:#333333;" width="8.062" height="0.5"/>
<rect x="19.75" y="7.469" transform="matrix(0.8682 -0.4961 0.4961 0.8682 -3.0705 11.438)" style="fill:#333333;" width="0.5" height="8.062"/>
<rect x="7.75" y="10.469" transform="matrix(0.8682 -0.4961 0.4961 0.8682 -6.14 5.8796)" style="fill:#333333;" width="0.5" height="8.062"/>
<rect x="-0.031" y="14.25" transform="matrix(0.4957 -0.8685 0.8685 0.4957 -10.5759 10.786)" style="fill:#333333;" width="8.062" height="0.5"/>
<path style="fill:#333333;" d="M6,22.25c-2.343,0-4.25-1.906-4.25-4.25v-0.25h8.5V18C10.25,20.344,8.343,22.25,6,22.25z
	 M2.258,18.25c0.129,1.951,1.758,3.5,3.742,3.5s3.613-1.549,3.742-3.5H2.258z"/>
<path style="fill:#333333;" d="M18,19.25c-2.344,0-4.25-1.906-4.25-4.25v-0.25h8.5V15C22.25,17.344,20.344,19.25,18,19.25z
	 M14.258,15.25c0.13,1.951,1.759,3.5,3.742,3.5s3.612-1.549,3.742-3.5H14.258z"/>
</svg>






