<?xml version="1.0" encoding="iso-8859-1"?>
<svg version="1.1" id="&#x56FE;&#x5C42;_1" xmlns="http://www.w3.org/2000/svg" xmlns:xlink="http://www.w3.org/1999/xlink" x="0px"
	 y="0px" viewBox="0 0 24 24" style="enable-background:new 0 0 24 24;" xml:space="preserve">
<path style="fill:#333333;" d="M18.25,20h-0.5c0-3.446-2.579-6.25-5.75-6.25c-3.17,0-5.75,2.804-5.75,6.25h-0.5
	c0-3.722,2.804-6.75,6.25-6.75S18.25,16.278,18.25,20z"/>
<path style="fill:#333333;" d="M13.354,20.671c-0.559,0-1.096-0.164-1.504-0.471c-0.555-0.416-0.814-1.032-1.043-1.575
	c-0.191-0.454-0.356-0.847-0.625-0.921c-0.26-0.075-0.429,0.13-0.754,0.612c-0.209,0.312-0.447,0.663-0.79,0.892
	c-0.57,0.381-1.352,0.274-1.837,0.014C6.451,19.034,6.25,18.771,6.25,18.5h0.5c0,0.049,0.078,0.169,0.287,0.281
	c0.369,0.197,0.942,0.264,1.324,0.011c0.26-0.174,0.459-0.469,0.652-0.755c0.313-0.466,0.668-0.99,1.304-0.815
	c0.5,0.141,0.719,0.66,0.951,1.21c0.204,0.484,0.435,1.033,0.882,1.368c0.431,0.323,1.05,0.446,1.659,0.327
	c0.628-0.123,1.166-0.489,1.476-1.006c0.36-0.6,0.325-0.948,0.291-1.285c-0.033-0.332-0.068-0.677,0.25-1.128
	c0.468-0.667,1.105-0.529,1.293-0.428l-0.238,0.439c-0.003,0-0.343-0.154-0.646,0.275c-0.21,0.3-0.19,0.495-0.16,0.791
	c0.038,0.379,0.086,0.851-0.359,1.593c-0.383,0.637-1.042,1.089-1.81,1.239C13.722,20.653,13.537,20.671,13.354,20.671z"/>
<rect x="11.5" y="10.25" style="fill:#333333;" width="1" height="0.5"/>
<rect x="16.25" y="11" transform="matrix(0.5304 -0.8478 0.8478 0.5304 -2.0002 19.3893)" style="fill:#333333;" width="0.5" height="1"/>
<rect x="7" y="11.25" transform="matrix(0.8482 -0.5296 0.5296 0.8482 -4.9526 5.7177)" style="fill:#333333;" width="1" height="0.5"/>
<rect x="19.529" y="14" transform="matrix(0.8658 -0.5003 0.5003 0.8658 -4.6011 11.8419)" style="fill:#333333;" width="0.501" height="0.999"/>
<rect x="3.78" y="14.25" transform="matrix(0.5003 -0.8658 0.8658 0.5003 -10.4163 10.9502)" style="fill:#333333;" width="0.999" height="0.5"/>
<rect x="20.749" y="18.5" transform="matrix(0.9945 -0.1045 0.1045 0.9945 -1.8711 2.2992)" style="fill:#333333;" width="0.501" height="1"/>
<rect x="2" y="18.75" transform="matrix(0.1055 -0.9944 0.9944 0.1055 -16.6582 19.4811)" style="fill:#333333;" width="1" height="0.5"/>
<rect x="4.261" y="6.75" transform="matrix(0.9717 -0.2361 0.2361 0.9717 -1.2923 3.2082)" style="fill:#333333;" width="16.978" height="0.5"/>
<path style="fill:#333333;" d="M8.396,8.284L5.626,4.407l2.369-1.185l6.609,3.05l-0.044,0.47L8.396,8.284z M6.374,4.593l2.231,3.124
	l5.146-1.287L8.004,3.777L6.374,4.593z"/>
<rect x="3.5" y="6.75" transform="matrix(0.8 -0.6 0.6 0.8 -4.05 3.85)" style="fill:#333333;" width="0.5" height="2.5"/>
</svg>






