<?xml version="1.0" encoding="iso-8859-1"?>
<svg version="1.1" id="&#x56FE;&#x5C42;_1" xmlns="http://www.w3.org/2000/svg" xmlns:xlink="http://www.w3.org/1999/xlink" x="0px"
	 y="0px" viewBox="0 0 24 24" style="enable-background:new 0 0 24 24;" xml:space="preserve">
<path style="fill:#333333;" d="M19.5,21.25h-15c-0.965,0-1.75-0.785-1.75-1.75v-15c0-0.965,0.785-1.75,1.75-1.75h15
	c0.965,0,1.75,0.785,1.75,1.75v15C21.25,20.465,20.465,21.25,19.5,21.25z M4.5,3.25c-0.689,0-1.25,0.561-1.25,1.25v15
	c0,0.689,0.561,1.25,1.25,1.25h15c0.689,0,1.25-0.561,1.25-1.25v-15c0-0.689-0.561-1.25-1.25-1.25H4.5z"/>
<polygon style="fill:#333333;" points="15.654,17.75 8.346,17.75 7.346,15.75 2,15.75 2,15.25 7.654,15.25 8.654,17.25 
	15.346,17.25 16.346,15.25 22,15.25 22,15.75 16.654,15.75 "/>
<rect x="20.75" y="13" style="fill:#333333;" width="0.5" height="5"/>
<rect x="2.75" y="13" style="fill:#333333;" width="0.5" height="5"/>
<rect x="8.5" y="7.25" style="fill:#333333;" width="7" height="0.5"/>
<rect x="8.5" y="11.25" style="fill:#333333;" width="7" height="0.5"/>
</svg>






