<?xml version="1.0" encoding="iso-8859-1"?>
<svg version="1.1" id="&#x56FE;&#x5C42;_1" xmlns="http://www.w3.org/2000/svg" xmlns:xlink="http://www.w3.org/1999/xlink" x="0px"
	 y="0px" viewBox="0 0 24 24" style="enable-background:new 0 0 24 24;" xml:space="preserve">
<path style="fill:#333333;" d="M12.106,22.441c-0.32,0-0.64-0.121-0.884-0.365L2.03,12.884c-0.487-0.487-0.487-1.28,0-1.768
	l9.192-9.192c0.487-0.487,1.281-0.487,1.768,0l9.192,9.192c0.487,0.487,0.487,1.28,0,1.768l-9.192,9.192
	C12.747,22.32,12.427,22.441,12.106,22.441z M12.106,2.058c-0.192,0-0.384,0.073-0.53,0.219L2.384,11.47
	c-0.292,0.292-0.292,0.769,0,1.061l9.192,9.192c0.293,0.293,0.769,0.293,1.061,0l9.192-9.192c0.292-0.292,0.292-0.768,0-1.061
	l-9.192-9.192C12.49,2.131,12.299,2.058,12.106,2.058z"/>
<path style="fill:#333333;" d="M12,16.25c-2.343,0-4.25-1.906-4.25-4.25c0-2.343,1.907-4.25,4.25-4.25c2.344,0,4.25,1.907,4.25,4.25
	C16.25,14.344,14.344,16.25,12,16.25z M12,8.25c-2.068,0-3.75,1.682-3.75,3.75c0,2.067,1.682,3.75,3.75,3.75
	c2.067,0,3.75-1.683,3.75-3.75C15.75,9.932,14.067,8.25,12,8.25z"/>
</svg>






