<?xml version="1.0" encoding="iso-8859-1"?>
<svg version="1.1" id="&#x56FE;&#x5C42;_1" xmlns="http://www.w3.org/2000/svg" xmlns:xlink="http://www.w3.org/1999/xlink" x="0px"
	 y="0px" viewBox="0 0 24 24" style="enable-background:new 0 0 24 24;" xml:space="preserve">
<path style="fill:#333333;" d="M7,8.75c-1.241,0-2.25-1.009-2.25-2.25S5.759,4.25,7,4.25S9.25,5.259,9.25,6.5S8.241,8.75,7,8.75z
	 M7,4.75c-0.965,0-1.75,0.785-1.75,1.75S6.035,8.25,7,8.25S8.75,7.465,8.75,6.5S7.965,4.75,7,4.75z"/>
<path style="fill:#333333;" d="M16.5,8.75c-1.24,0-2.25-1.009-2.25-2.25s1.01-2.25,2.25-2.25s2.25,1.009,2.25,2.25
	S17.74,8.75,16.5,8.75z M16.5,4.75c-0.965,0-1.75,0.785-1.75,1.75s0.785,1.75,1.75,1.75s1.75-0.785,1.75-1.75S17.465,4.75,16.5,4.75
	z"/>
<rect x="2" y="6.25" style="fill:#333333;" width="3" height="0.5"/>
<rect x="9" y="6.25" style="fill:#333333;" width="5.5" height="0.5"/>
<rect x="18.5" y="6.25" style="fill:#333333;" width="3.5" height="0.5"/>
<polygon style="fill:#333333;" points="4.823,20.677 1.646,17.5 4.823,14.323 5.177,14.677 2.354,17.5 5.177,20.323 "/>
<rect x="2" y="17.25" style="fill:#333333;" width="20" height="0.5"/>
</svg>






