<?xml version="1.0" encoding="iso-8859-1"?>
<svg version="1.1" id="&#x56FE;&#x5C42;_1" xmlns="http://www.w3.org/2000/svg" xmlns:xlink="http://www.w3.org/1999/xlink" x="0px"
	 y="0px" viewBox="0 0 24 24" style="enable-background:new 0 0 24 24;" xml:space="preserve">
<path style="fill:#333333;" d="M11.5,21.75c-5.101,0-9.25-4.149-9.25-9.25s4.149-9.25,9.25-9.25v0.5c-4.825,0-8.75,3.925-8.75,8.75
	c0,4.825,3.925,8.75,8.75,8.75c4.825,0,8.75-3.925,8.75-8.75h0.5C20.75,17.601,16.601,21.75,11.5,21.75z"/>
<path style="fill:#333333;" d="M6,14.5V14c4.223,0,5.858-0.226,9.303-4.653l0.395,0.307C12.072,14.314,10.217,14.5,6,14.5z"/>
<polygon style="fill:#333333;" points="15.75,13.5 15.25,13.5 15.25,9.75 11.5,9.75 11.5,9.25 15.75,9.25 "/>
<rect x="15.25" y="2.5" style="fill:#333333;" width="0.5" height="2.25"/>
<rect x="19.5" y="8.25" style="fill:#333333;" width="2.25" height="0.5"/>
<rect x="18.097" y="4.222" transform="matrix(0.7071 -0.7071 0.7071 0.7071 2.541 15.0788)" style="fill:#333333;" width="2.75" height="0.5"/>
</svg>






