<?xml version="1.0" encoding="iso-8859-1"?>
<svg version="1.1" id="&#x56FE;&#x5C42;_1" xmlns="http://www.w3.org/2000/svg" xmlns:xlink="http://www.w3.org/1999/xlink" x="0px"
	 y="0px" viewBox="0 0 24 24" style="enable-background:new 0 0 24 24;" xml:space="preserve">
<path style="fill:#333333;" d="M9.5,12.25c-1.517,0-2.75-1.233-2.75-2.75v-5c0-1.517,1.233-2.75,2.75-2.75s2.75,1.233,2.75,2.75v5
	C12.25,11.017,11.017,12.25,9.5,12.25z M9.5,2.25c-1.241,0-2.25,1.009-2.25,2.25v5c0,1.241,1.009,2.25,2.25,2.25
	s2.25-1.009,2.25-2.25v-5C11.75,3.259,10.741,2.25,9.5,2.25z"/>
<path style="fill:#333333;" d="M18.5,12.25c-1.517,0-2.75-1.233-2.75-2.75v-5c0-1.517,1.233-2.75,2.75-2.75s2.75,1.233,2.75,2.75v5
	C21.25,11.017,20.017,12.25,18.5,12.25z M18.5,2.25c-1.24,0-2.25,1.009-2.25,2.25v5c0,1.241,1.01,2.25,2.25,2.25
	s2.25-1.009,2.25-2.25v-5C20.75,3.259,19.74,2.25,18.5,2.25z"/>
<polygon style="fill:#333333;" points="18.177,22.177 17.823,21.823 20.646,19 17.823,16.177 18.177,15.823 21.354,19 "/>
<rect x="3" y="11.75" style="fill:#333333;" width="0.5" height="0.5"/>
<rect x="9.5" y="18.75" style="fill:#333333;" width="11.5" height="0.5"/>
</svg>






