<?xml version="1.0" encoding="iso-8859-1"?>
<svg version="1.1" id="&#x56FE;&#x5C42;_1" xmlns="http://www.w3.org/2000/svg" xmlns:xlink="http://www.w3.org/1999/xlink" x="0px"
	 y="0px" viewBox="0 0 24 24" style="enable-background:new 0 0 24 24;" xml:space="preserve">
<path style="fill:#333333;" d="M15.471,21.75h-5.74c-2.47,0-4.981-3.688-4.981-5.75c0-1.435,0.468-2.482,1.392-3.115l0.282,0.412
	C5.634,13.839,5.25,14.723,5.25,16c0,2.025,2.447,5.25,4.481,5.25h5.74c2.111,0,3.279-1.903,3.279-3.22v-6.525
	c0-0.689-0.561-1.25-1.25-1.25c-0.691,0-1.25,0.559-1.25,1.245h-0.5c0-0.962,0.783-1.745,1.745-1.745c0.97,0,1.755,0.785,1.755,1.75
	v6.525C19.25,19.826,17.731,21.75,15.471,21.75z"/>
<path style="fill:#333333;" d="M7.241,14.223h-0.5V4.003c0-0.964,0.784-1.749,1.749-1.749l0.062,0.001
	c0.939,0.033,1.695,0.809,1.695,1.756v7.785h-0.5V4.011c0-0.691-0.562-1.255-1.254-1.257H8.458c-0.674,0.017-1.217,0.57-1.217,1.249
	V14.223z"/>
<path style="fill:#333333;" d="M13.262,11.504h-0.5V9.508c0-0.693-0.564-1.258-1.258-1.258s-1.257,0.564-1.257,1.258v1.996h-0.5
	V9.508c0-0.969,0.789-1.758,1.757-1.758c0.97,0,1.758,0.789,1.758,1.758V11.504z"/>
<path style="fill:#333333;" d="M16.25,11.501h-0.5v-1.5c0-0.689-0.561-1.25-1.25-1.25s-1.25,0.561-1.25,1.25v1.356h-0.5v-1.356
	c0-0.965,0.785-1.75,1.75-1.75s1.75,0.785,1.75,1.75V11.501z"/>
</svg>






