<?xml version="1.0" encoding="iso-8859-1"?>
<svg version="1.1" id="&#x56FE;&#x5C42;_1" xmlns="http://www.w3.org/2000/svg" xmlns:xlink="http://www.w3.org/1999/xlink" x="0px"
	 y="0px" viewBox="0 0 24 24" style="enable-background:new 0 0 24 24;" xml:space="preserve">
<path style="fill:#333333;" d="M12,22.25c-3.998,0-7.25-3.252-7.25-7.25c0-3.906,6.764-12.776,7.052-13.152L12,1.589l0.198,0.259
	C12.486,2.224,19.25,11.094,19.25,15C19.25,18.998,15.998,22.25,12,22.25z M12,2.416C10.864,3.937,5.25,11.624,5.25,15
	c0,3.722,3.028,6.75,6.75,6.75c3.722,0,6.75-3.028,6.75-6.75C18.75,11.624,13.136,3.937,12,2.416z"/>
<rect x="9" y="14.75" style="fill:#333333;" width="6" height="0.5"/>
<rect x="11.75" y="12" style="fill:#333333;" width="0.5" height="6"/>
</svg>






