<?xml version="1.0" encoding="iso-8859-1"?>
<svg version="1.1" id="&#x56FE;&#x5C42;_1" xmlns="http://www.w3.org/2000/svg" xmlns:xlink="http://www.w3.org/1999/xlink" x="0px"
	 y="0px" viewBox="0 0 24 24" style="enable-background:new 0 0 24 24;" xml:space="preserve">
<path style="fill:#333333;" d="M12,22.25c-2.738,0-5.312-1.066-7.248-3.002C2.816,17.312,1.75,14.738,1.75,12
	c0-2.738,1.066-5.312,3.002-7.248C6.688,2.816,9.262,1.75,12,1.75c2.738,0,5.312,1.066,7.248,3.002
	C21.184,6.688,22.25,9.262,22.25,12c0,2.738-1.066,5.312-3.002,7.248S14.738,22.25,12,22.25z M12,2.25
	c-2.604,0-5.053,1.014-6.895,2.855C3.264,6.947,2.25,9.396,2.25,12c0,2.604,1.014,5.053,2.855,6.895
	C6.947,20.736,9.396,21.75,12,21.75c2.604,0,5.053-1.014,6.895-2.855S21.75,14.604,21.75,12c0-2.604-1.014-5.053-2.855-6.895
	C17.053,3.264,14.604,2.25,12,2.25z"/>
<path style="fill:#333333;" d="M6.874,17.127C5.504,15.757,4.75,13.936,4.75,12c0-1.937,0.754-3.757,2.124-5.126l0.354,0.354
	C5.952,8.502,5.25,10.197,5.25,12s0.702,3.497,1.977,4.773L6.874,17.127z"/>
</svg>






