<?xml version="1.0" encoding="iso-8859-1"?>
<svg version="1.1" id="&#x56FE;&#x5C42;_1" xmlns="http://www.w3.org/2000/svg" xmlns:xlink="http://www.w3.org/1999/xlink" x="0px"
	 y="0px" viewBox="0 0 24 24" style="enable-background:new 0 0 24 24;" xml:space="preserve">
<path style="fill:#333333;" d="M19.65,21.25H4.35c-0.882,0-1.6-0.718-1.6-1.6V4.35c0-0.882,0.718-1.6,1.6-1.6h15.3
	c0.882,0,1.6,0.718,1.6,1.6v15.3C21.25,20.532,20.532,21.25,19.65,21.25z M4.35,3.25c-0.606,0-1.1,0.494-1.1,1.1v15.3
	c0,0.606,0.494,1.1,1.1,1.1h15.3c0.606,0,1.1-0.493,1.1-1.1V4.35c0-0.606-0.493-1.1-1.1-1.1H4.35z"/>
<rect x="8.75" y="3" style="fill:#333333;" width="0.5" height="18"/>
<rect x="14.75" y="3" style="fill:#333333;" width="0.5" height="18"/>
<rect x="3" y="8.75" style="fill:#333333;" width="18" height="0.5"/>
<rect x="3" y="14.75" style="fill:#333333;" width="18" height="0.5"/>
</svg>






