<?xml version="1.0" encoding="iso-8859-1"?>
<svg version="1.1" id="&#x56FE;&#x5C42;_1" xmlns="http://www.w3.org/2000/svg" xmlns:xlink="http://www.w3.org/1999/xlink" x="0px"
	 y="0px" viewBox="0 0 24 24" style="enable-background:new 0 0 24 24;" xml:space="preserve">
<path style="fill:#333333;" d="M12,21.75H3.5c-0.689,0-1.25-0.561-1.25-1.25V9.25h19.5v7.25h-0.5V9.75H2.75V20.5
	c0,0.413,0.336,0.75,0.75,0.75H12V21.75z"/>
<path style="fill:#333333;" d="M21.75,9.75H2.25V5c0-0.689,0.561-1.25,1.25-1.25h17c0.689,0,1.25,0.561,1.25,1.25V9.75z M2.75,9.25
	h18.5V5c0-0.414-0.337-0.75-0.75-0.75h-17C3.086,4.25,2.75,4.586,2.75,5V9.25z"/>
<rect x="7.75" y="2.5" style="fill:#333333;" width="0.5" height="4"/>
<rect x="15.75" y="2.5" style="fill:#333333;" width="0.5" height="4"/>
<path style="fill:#333333;" d="M15,19.75c-2.067,0-3.75-1.683-3.75-3.75s1.683-3.75,3.75-3.75s3.75,1.683,3.75,3.75
	S17.067,19.75,15,19.75z M15,12.75c-1.792,0-3.25,1.458-3.25,3.25s1.458,3.25,3.25,3.25s3.25-1.458,3.25-3.25S16.792,12.75,15,12.75
	z"/>
<rect x="19.25" y="17.797" transform="matrix(0.6402 -0.7682 0.7682 0.6402 -8.156 22.0867)" style="fill:#333333;" width="0.501" height="3.905"/>
</svg>






