<?xml version="1.0" encoding="iso-8859-1"?>
<svg version="1.1" id="&#x56FE;&#x5C42;_1" xmlns="http://www.w3.org/2000/svg" xmlns:xlink="http://www.w3.org/1999/xlink" x="0px"
	 y="0px" viewBox="0 0 24 24" style="enable-background:new 0 0 24 24;" xml:space="preserve">
<path style="fill:#333333;" d="M21,20.25H3c-0.689,0-1.25-0.561-1.25-1.25V5c0-0.689,0.561-1.25,1.25-1.25h18
	c0.689,0,1.25,0.561,1.25,1.25v14C22.25,19.689,21.689,20.25,21,20.25z M3,4.25C2.586,4.25,2.25,4.586,2.25,5v14
	c0,0.413,0.336,0.75,0.75,0.75h18c0.413,0,0.75-0.337,0.75-0.75V5c0-0.414-0.337-0.75-0.75-0.75H3z"/>
<path style="fill:#333333;" d="M22.25,8.25H1.75V5c0-0.689,0.561-1.25,1.25-1.25h18c0.689,0,1.25,0.561,1.25,1.25V8.25z M2.25,7.75
	h19.5V5c0-0.414-0.337-0.75-0.75-0.75H3C2.586,4.25,2.25,4.586,2.25,5V7.75z"/>
<rect x="9.205" y="14" transform="matrix(0.1796 -0.9837 0.9837 0.1796 -4.1732 23.496)" style="fill:#333333;" width="5.59" height="0.5"/>
<polygon style="fill:#333333;" points="15.677,17.177 15.323,16.823 18.13,14.017 15.34,11.692 15.66,11.308 18.87,13.983 "/>
<polygon style="fill:#333333;" points="8.323,17.177 5.13,13.983 8.34,11.308 8.66,11.692 5.87,14.017 8.677,16.823 "/>
</svg>






