<?xml version="1.0" encoding="iso-8859-1"?>
<svg version="1.1" id="&#x56FE;&#x5C42;_1" xmlns="http://www.w3.org/2000/svg" xmlns:xlink="http://www.w3.org/1999/xlink" x="0px"
	 y="0px" viewBox="0 0 24 24" style="enable-background:new 0 0 24 24;" xml:space="preserve">
<path style="fill:#333333;" d="M17,21.25H7c-2.343,0-4.25-1.906-4.25-4.25V7c0-2.343,1.907-4.25,4.25-4.25h10
	c2.344,0,4.25,1.907,4.25,4.25v10C21.25,19.344,19.344,21.25,17,21.25z M7,3.25C4.932,3.25,3.25,4.932,3.25,7v10
	c0,2.067,1.682,3.75,3.75,3.75h10c2.067,0,3.75-1.683,3.75-3.75V7c0-2.068-1.683-3.75-3.75-3.75H7z"/>
<path style="fill:#333333;" d="M12,16.25c-2.343,0-4.25-1.906-4.25-4.25c0-2.343,1.907-4.25,4.25-4.25c2.344,0,4.25,1.907,4.25,4.25
	C16.25,14.344,14.344,16.25,12,16.25z M12,8.25c-2.068,0-3.75,1.682-3.75,3.75c0,2.067,1.682,3.75,3.75,3.75
	c2.067,0,3.75-1.683,3.75-3.75C15.75,9.932,14.067,8.25,12,8.25z"/>
<path style="fill:#333333;" d="M17.5,7.5c0.552,0,1-0.448,1-1s-0.448-1-1-1s-1,0.448-1,1S16.948,7.5,17.5,7.5z"/>
</svg>






