<?xml version="1.0" encoding="iso-8859-1"?>
<svg version="1.1" id="&#x56FE;&#x5C42;_1" xmlns="http://www.w3.org/2000/svg" xmlns:xlink="http://www.w3.org/1999/xlink" x="0px"
	 y="0px" viewBox="0 0 24 24" style="enable-background:new 0 0 24 24;" xml:space="preserve">
<path style="fill:#333333;" d="M4.5,6.25C3.259,6.25,2.25,5.241,2.25,4S3.259,1.75,4.5,1.75S6.75,2.759,6.75,4S5.741,6.25,4.5,6.25z
	 M4.5,2.25C3.535,2.25,2.75,3.035,2.75,4S3.535,5.75,4.5,5.75S6.25,4.965,6.25,4S5.465,2.25,4.5,2.25z"/>
<path style="fill:#333333;" d="M6.75,21.75h-4.5v-13h4.5V21.75z M2.75,21.25h3.5v-12h-3.5V21.25z"/>
<path style="fill:#333333;" d="M21.75,21.75h-4V14.5c0-0.817-0.623-2-1.75-2c-1.209,0-1.75,1.005-1.75,2v7.25h-4v-8
	c0-1.745,1.975-5,5.75-5s5.75,3.255,5.75,5V21.75z M18.25,21.25h3v-7.5c0-1.281-1.562-4.5-5.25-4.5s-5.25,3.219-5.25,4.5v7.5h3V14.5
	c0-1.472,0.925-2.5,2.25-2.5c1.346,0,2.25,1.293,2.25,2.5V21.25z"/>
</svg>






