<?xml version="1.0" encoding="iso-8859-1"?>
<svg version="1.1" id="&#x56FE;&#x5C42;_1" xmlns="http://www.w3.org/2000/svg" xmlns:xlink="http://www.w3.org/1999/xlink" x="0px"
	 y="0px" viewBox="0 0 24 24" style="enable-background:new 0 0 24 24;" xml:space="preserve">
<path style="fill:#333333;" d="M20.5,21.75H9c-0.689,0-1.25-0.561-1.25-1.25V9c0-0.689,0.561-1.25,1.25-1.25h11.5
	c0.689,0,1.25,0.561,1.25,1.25v11.5C21.75,21.189,21.189,21.75,20.5,21.75z M9,8.25C8.586,8.25,8.25,8.586,8.25,9v11.5
	c0,0.413,0.336,0.75,0.75,0.75h11.5c0.413,0,0.75-0.337,0.75-0.75V9c0-0.414-0.337-0.75-0.75-0.75H9z"/>
<path style="fill:#333333;" d="M15,16.25H3.5c-0.689,0-1.25-0.561-1.25-1.25V3.5c0-0.689,0.561-1.25,1.25-1.25H15
	c0.689,0,1.25,0.561,1.25,1.25V15C16.25,15.689,15.689,16.25,15,16.25z M3.5,2.75c-0.414,0-0.75,0.336-0.75,0.75V15
	c0,0.413,0.336,0.75,0.75,0.75H15c0.413,0,0.75-0.337,0.75-0.75V3.5c0-0.414-0.337-0.75-0.75-0.75H3.5z"/>
<rect x="6.861" y="10.5" transform="matrix(0.7071 -0.7071 0.7071 0.7071 -4.4528 10.75)" style="fill:#333333;" width="7.778" height="0.5"/>
<rect x="9.361" y="13" transform="matrix(0.7071 -0.7071 0.7071 0.7071 -5.4883 13.25)" style="fill:#333333;" width="7.778" height="0.5"/>
</svg>






