<?xml version="1.0" encoding="iso-8859-1"?>
<svg version="1.1" id="&#x56FE;&#x5C42;_1" xmlns="http://www.w3.org/2000/svg" xmlns:xlink="http://www.w3.org/1999/xlink" x="0px"
	 y="0px" viewBox="0 0 24 24" style="enable-background:new 0 0 24 24;" xml:space="preserve">
<path style="fill:#333333;" d="M20,21.25H4c-0.689,0-1.25-0.561-1.25-1.25V4c0-0.689,0.561-1.25,1.25-1.25h16
	c0.689,0,1.25,0.561,1.25,1.25v16C21.25,20.689,20.689,21.25,20,21.25z M4,3.25C3.586,3.25,3.25,3.586,3.25,4v16
	c0,0.413,0.336,0.75,0.75,0.75h16c0.413,0,0.75-0.337,0.75-0.75V4c0-0.414-0.337-0.75-0.75-0.75H4z"/>
<path style="fill:#333333;" d="M21.25,10.25h-7.5v-7.5H20c0.689,0,1.25,0.561,1.25,1.25V10.25z M14.25,9.75h6.5V4
	c0-0.414-0.337-0.75-0.75-0.75h-5.75V9.75z"/>
<polygon style="fill:#333333;" points="6.677,17.677 6.323,17.323 10.896,12.75 8,12.75 8,12.25 11.5,12.25 11.5,12.5 11.75,12.5 
	11.75,16 11.25,16 11.25,13.104 "/>
</svg>






