<?xml version="1.0" encoding="iso-8859-1"?>
<svg version="1.1" id="&#x56FE;&#x5C42;_1" xmlns="http://www.w3.org/2000/svg" xmlns:xlink="http://www.w3.org/1999/xlink" x="0px"
	 y="0px" viewBox="0 0 24 24" style="enable-background:new 0 0 24 24;" xml:space="preserve">
<rect x="15" y="12.25" style="fill:#333333;" width="6" height="0.5"/>
<polygon style="fill:#333333;" points="17.823,15.677 14.646,12.5 17.823,9.323 18.177,9.677 15.354,12.5 18.177,15.323 "/>
<path style="fill:#333333;" d="M4.596,21.23L4.404,20.77c2.812-1.173,5.846-4.477,5.846-7.77V3h0.5v10
	C10.75,16.499,7.556,19.996,4.596,21.23z"/>
<path style="fill:#333333;" d="M19.5,21.25h-15c-0.965,0-1.75-0.785-1.75-1.75v-15c0-0.965,0.785-1.75,1.75-1.75h15
	c0.965,0,1.75,0.785,1.75,1.75V7h-0.5V4.5c0-0.689-0.561-1.25-1.25-1.25h-15c-0.689,0-1.25,0.561-1.25,1.25v15
	c0,0.689,0.561,1.25,1.25,1.25h15c0.689,0,1.25-0.561,1.25-1.25v-1.75h0.5v1.75C21.25,20.465,20.465,21.25,19.5,21.25z"/>
</svg>






