<?xml version="1.0" encoding="iso-8859-1"?>
<svg version="1.1" id="&#x56FE;&#x5C42;_1" xmlns="http://www.w3.org/2000/svg" xmlns:xlink="http://www.w3.org/1999/xlink" x="0px"
	 y="0px" viewBox="0 0 24 24" style="enable-background:new 0 0 24 24;" xml:space="preserve">
<path style="fill:#333333;" d="M21.25,9h-0.5V4.5c0-0.689-0.561-1.25-1.25-1.25h-15c-0.689,0-1.25,0.561-1.25,1.25V9h-0.5V4.5
	c0-0.965,0.785-1.75,1.75-1.75h15c0.965,0,1.75,0.785,1.75,1.75V9z"/>
<rect x="15.75" y="12" style="fill:#333333;" width="0.5" height="3.5"/>
<rect x="11.75" y="7.5" style="fill:#333333;" width="0.5" height="8"/>
<rect x="7.75" y="9.5" style="fill:#333333;" width="0.5" height="6"/>
<path style="fill:#333333;" d="M19.5,21.25h-15c-0.965,0-1.75-0.785-1.75-1.75V15h0.5v4.5c0,0.689,0.561,1.25,1.25,1.25h15
	c0.689,0,1.25-0.561,1.25-1.25V15h0.5v4.5C21.25,20.465,20.465,21.25,19.5,21.25z"/>
</svg>






