<?xml version="1.0" encoding="iso-8859-1"?>
<svg version="1.1" id="&#x56FE;&#x5C42;_1" xmlns="http://www.w3.org/2000/svg" xmlns:xlink="http://www.w3.org/1999/xlink" x="0px"
	 y="0px" viewBox="0 0 24 24" style="enable-background:new 0 0 24 24;" xml:space="preserve">
<path style="fill:#333333;" d="M12,22.25C6.348,22.25,1.75,17.652,1.75,12C1.75,6.348,6.348,1.75,12,1.75
	c5.652,0,10.25,4.598,10.25,10.25C22.25,17.652,17.652,22.25,12,22.25z M12,2.25c-5.376,0-9.75,4.374-9.75,9.75
	s4.374,9.75,9.75,9.75s9.75-4.374,9.75-9.75S17.376,2.25,12,2.25z"/>
<path style="fill:#333333;" d="M4.699,16.137c-0.509,0-1.108-0.138-1.792-0.411l0.186-0.465c1.213,0.487,2.081,0.503,2.581,0.048
	c0.322-0.294,0.378-0.927,0.437-1.597c0.077-0.876,0.165-1.869,0.947-2.295c0.682-0.372,1.437,0.116,2.236,0.633
	c0.859,0.556,1.748,1.132,2.561,0.676c0.789-0.44,0.686-1.272,0.564-2.235c-0.108-0.863-0.22-1.755,0.432-2.322
	c0.576-0.501,1.229-0.547,1.755-0.584c0.691-0.048,1.073-0.075,1.198-0.879c0.119-0.763-0.124-0.908-0.528-1.148
	c-0.393-0.234-0.882-0.525-1.041-1.409c-0.246-1.366-0.198-1.914,0.178-2.021l0.137,0.48c0.04-0.011,0.062-0.036,0.066-0.044
	c-0.013,0.021-0.113,0.248,0.111,1.495c0.118,0.66,0.452,0.858,0.805,1.068c0.439,0.262,0.938,0.558,0.767,1.655
	c-0.187,1.198-0.969,1.253-1.657,1.301c-0.498,0.035-1.012,0.071-1.462,0.462c-0.45,0.392-0.36,1.117-0.264,1.883
	c0.125,0.998,0.267,2.129-0.816,2.735c-1.074,0.6-2.138-0.088-3.076-0.694c-0.67-0.433-1.301-0.844-1.725-0.613
	c-0.546,0.297-0.615,1.076-0.688,1.9c-0.065,0.736-0.132,1.497-0.598,1.922C5.675,15.983,5.236,16.137,4.699,16.137z"/>
<path style="fill:#333333;" d="M14.332,21.85c-1.002-1.025-1.363-2.009-1.072-2.924c0.244-0.767,0.594-1.086,0.875-1.342
	c0.197-0.182,0.354-0.324,0.455-0.597c0.065-0.178,0.057-0.396,0.047-0.649c-0.027-0.648-0.063-1.538,1.329-2.269
	c1.307-0.679,2.996,0.037,5.172,2.2l-0.354,0.355c-1.974-1.963-3.517-2.672-4.586-2.112c-1.112,0.583-1.088,1.177-1.062,1.805
	c0.012,0.281,0.023,0.572-0.077,0.844c-0.144,0.387-0.369,0.593-0.587,0.792c-0.262,0.238-0.532,0.485-0.735,1.124
	c-0.23,0.725,0.091,1.54,0.953,2.423L14.332,21.85z"/>
</svg>






