<?xml version="1.0" encoding="iso-8859-1"?>
<svg version="1.1" id="&#x56FE;&#x5C42;_1" xmlns="http://www.w3.org/2000/svg" xmlns:xlink="http://www.w3.org/1999/xlink" x="0px"
	 y="0px" viewBox="0 0 24 24" style="enable-background:new 0 0 24 24;" xml:space="preserve">
<path style="fill:#333333;" d="M20.25,22.25H3.75V1.75h11.865l0.074,0.087l4.561,5.32V22.25z M4.25,21.75h15.5V7.342L15.385,2.25
	H4.25V21.75z"/>
<path style="fill:#333333;" d="M12,17.75c-2.895,0-5.25-2.355-5.25-5.25c0-2.895,2.355-5.25,5.25-5.25
	c1.346,0,2.626,0.509,3.604,1.433c1.062,1.002,1.646,2.358,1.646,3.817C17.25,15.395,14.895,17.75,12,17.75z M12,7.75
	c-2.619,0-4.75,2.131-4.75,4.75s2.131,4.75,4.75,4.75s4.75-2.131,4.75-4.75c0-1.32-0.529-2.547-1.489-3.454
	C14.376,8.21,13.218,7.75,12,7.75z"/>
<rect x="11.75" y="7.55" transform="matrix(0.7071 -0.7071 0.7071 0.7071 -5.3241 12.1464)" style="fill:#333333;" width="0.5" height="9.899"/>
<path style="fill:#333333;" d="M12,17.75v-0.5c2.619,0,4.75-2.131,4.75-4.75h0.5C17.25,15.395,14.895,17.75,12,17.75z M7.25,12.5
	h-0.5c0-2.895,2.355-5.25,5.25-5.25v0.5C9.381,7.75,7.25,9.881,7.25,12.5z"/>
</svg>






