<?xml version="1.0" encoding="iso-8859-1"?>
<svg version="1.1" id="&#x56FE;&#x5C42;_1" xmlns="http://www.w3.org/2000/svg" xmlns:xlink="http://www.w3.org/1999/xlink" x="0px"
	 y="0px" viewBox="0 0 24 24" style="enable-background:new 0 0 24 24;" xml:space="preserve">
<polygon style="fill:#333333;" points="7,22.25 1.75,22.25 1.75,17 2.25,17 2.25,21.75 7,21.75 "/>
<polygon style="fill:#333333;" points="22.25,22.25 17,22.25 17,21.75 21.75,21.75 21.75,17 22.25,17 "/>
<polygon style="fill:#333333;" points="22.25,7 21.75,7 21.75,2.25 17,2.25 17,1.75 22.25,1.75 "/>
<polygon style="fill:#333333;" points="2.25,7 1.75,7 1.75,1.75 7,1.75 7,2.25 2.25,2.25 "/>
<path style="fill:#333333;" d="M12,18.75c-2.574,0-4.112-1.509-4.177-1.573l0.353-0.354C8.191,16.837,9.641,18.25,12,18.25
	s3.81-1.413,3.823-1.427l0.354,0.354C16.112,17.241,14.574,18.75,12,18.75z"/>
<path style="fill:#333333;" d="M10,13.75H9.5v-0.5H10c0.867,0,1.75-0.883,1.75-1.75V7h0.5v4.5C12.25,12.636,11.136,13.75,10,13.75z"
	/>
<rect x="16.75" y="7" style="fill:#333333;" width="0.5" height="1"/>
<rect x="6.75" y="7" style="fill:#333333;" width="0.5" height="1"/>
</svg>






