<?xml version="1.0" encoding="iso-8859-1"?>
<svg version="1.1" id="&#x56FE;&#x5C42;_1" xmlns="http://www.w3.org/2000/svg" xmlns:xlink="http://www.w3.org/1999/xlink" x="0px"
	 y="0px" viewBox="0 0 24 24" style="enable-background:new 0 0 24 24;" xml:space="preserve">
<path style="fill:#333333;" d="M22.25,20.25H1.75v-6.082l0.166-0.06c0.988-0.353,1.652-1.301,1.652-2.358
	c0-1.058-0.664-2.005-1.652-2.358L1.75,9.333V3.25h20.5v6.083l-0.166,0.059c-0.988,0.352-1.652,1.3-1.652,2.358
	c0,1.058,0.664,2.006,1.652,2.358l0.166,0.06V20.25z M2.25,19.75h19.5v-5.235c-1.095-0.467-1.818-1.556-1.818-2.765
	s0.724-2.298,1.818-2.764V3.75H2.25v5.236c1.095,0.466,1.818,1.555,1.818,2.764s-0.724,2.298-1.818,2.765V19.75z"/>
<rect x="6.25" y="9" style="fill:#333333;" width="0.5" height="5.5"/>
<rect x="8.75" y="9" style="fill:#333333;" width="0.5" height="5.5"/>
<path style="fill:#333333;" d="M10.5,12.25H8.75v-3.5h1.75c0.965,0,1.75,0.785,1.75,1.75S11.465,12.25,10.5,12.25z M9.25,11.75h1.25
	c0.689,0,1.25-0.561,1.25-1.25s-0.561-1.25-1.25-1.25H9.25V11.75z"/>
<path style="fill:#333333;" d="M16,14.75c-0.981,0-1.75-1.208-1.75-2.75S15.019,9.25,16,9.25s1.75,1.208,1.75,2.75
	S16.981,14.75,16,14.75z M16,9.75c-0.678,0-1.25,1.03-1.25,2.25s0.572,2.25,1.25,2.25s1.25-1.03,1.25-2.25S16.678,9.75,16,9.75z"/>
</svg>






