<?xml version="1.0" encoding="iso-8859-1"?>
<svg version="1.1" id="&#x56FE;&#x5C42;_1" xmlns="http://www.w3.org/2000/svg" xmlns:xlink="http://www.w3.org/1999/xlink" x="0px"
	 y="0px" viewBox="0 0 24 24" style="enable-background:new 0 0 24 24;" xml:space="preserve">
<path style="fill:#333333;" d="M18.25,18.25H4.75V5.75h13.5V18.25z M5.25,17.75h12.5V6.25H5.25V17.75z"/>
<path style="fill:#333333;" d="M11.5,14.25c-1.241,0-2.25-1.01-2.25-2.25c0-1.241,1.009-2.25,2.25-2.25c1.24,0,2.25,1.009,2.25,2.25
	C13.75,13.24,12.74,14.25,11.5,14.25z M11.5,10.25c-0.965,0-1.75,0.785-1.75,1.75s0.785,1.75,1.75,1.75s1.75-0.785,1.75-1.75
	S12.465,10.25,11.5,10.25z"/>
<path style="fill:#333333;" d="M7.25,6c0-0.056,0.006-0.112,0.019-0.165l0.804-3.5C8.152,1.991,8.459,1.75,8.82,1.75h5.371
	c0.361,0,0.669,0.241,0.748,0.585l0.805,3.5l-0.488,0.112l-0.804-3.5c-0.026-0.115-0.136-0.198-0.261-0.198H8.82
	c-0.125,0-0.234,0.083-0.261,0.198l-0.804,3.5L7.25,6z"/>
<path style="fill:#333333;" d="M14.191,22.25H8.82c-0.361,0-0.668-0.24-0.748-0.585l-0.804-3.501C7.256,18.112,7.25,18.057,7.25,18
	h0.5c0,0.018,0.002,0.036,0.005,0.051l0.804,3.502c0.026,0.114,0.136,0.197,0.261,0.197h5.371c0.125,0,0.234-0.083,0.262-0.198
	l0.803-3.499l0.488,0.111l-0.804,3.5C14.86,22.01,14.553,22.25,14.191,22.25z"/>
<rect x="19.25" y="8" style="fill:#333333;" width="0.5" height="2"/>
</svg>






