<?xml version="1.0" encoding="iso-8859-1"?>
<svg version="1.1" id="&#x56FE;&#x5C42;_1" xmlns="http://www.w3.org/2000/svg" xmlns:xlink="http://www.w3.org/1999/xlink" x="0px"
	 y="0px" viewBox="0 0 24 24" style="enable-background:new 0 0 24 24;" xml:space="preserve">
<g>
	<defs>
		<rect id="SVGID_1_" width="24" height="24"/>
	</defs>
	<clipPath id="SVGID_00000056408100504881977520000011871272823996080001_">
		<use xlink:href="#SVGID_1_"  style="overflow:visible;"/>
	</clipPath>
	<g style="clip-path:url(#SVGID_00000056408100504881977520000011871272823996080001_);">
		<path style="fill:#333333;" d="M12,20.25c-4.273,0-7.75-3.477-7.75-7.75S7.727,4.75,12,4.75s7.75,3.477,7.75,7.75
			S16.273,20.25,12,20.25z M12,5.25c-3.998,0-7.25,3.252-7.25,7.25c0,3.998,3.252,7.25,7.25,7.25c3.998,0,7.25-3.252,7.25-7.25
			C19.25,8.502,15.998,5.25,12,5.25z"/>
		<path style="fill:#333333;" d="M6.397,12.695c-0.685,0-1.379-0.132-2.016-0.476l0.237-0.439c1.823,0.984,4.402-0.026,5.366-0.67
			c0.816-0.544,0.731-0.895,0.634-1.301C10.57,9.608,10.521,9.4,10.576,9.175c0.076-0.305,0.27-0.515,0.442-0.7
			c0.207-0.223,0.386-0.416,0.412-0.771c0.065-0.889-0.808-1.571-1.552-1.986l0.244-0.437c1.248,0.697,1.873,1.547,1.807,2.459
			c-0.039,0.53-0.319,0.832-0.544,1.075c-0.149,0.161-0.279,0.3-0.323,0.48c-0.026,0.106,0.006,0.241,0.043,0.397
			c0.111,0.462,0.263,1.096-0.843,1.833C9.672,11.919,8.062,12.695,6.397,12.695z"/>
		<path style="fill:#333333;" d="M3.885,18.701c-0.233,0-0.451-0.021-0.654-0.061c-0.659-0.132-1.146-0.475-1.449-1.02
			c-1.091-1.964,1.349-4.647,2.835-5.583l0.267,0.424c-1.395,0.878-3.54,3.341-2.664,4.917c0.231,0.416,0.594,0.668,1.109,0.771
			c1.941,0.38,5.685-1.424,10.016-4.847c4.542-3.588,6.772-8.623,7.366-10.134l-2.146,0.572l-0.129-0.483l2.614-0.697l0.302,0.321
			c-0.021,0.064-2.201,6.473-7.696,10.814C9.576,16.919,6.08,18.701,3.885,18.701z"/>
		<path style="fill:#333333;" d="M13.249,20.025l-0.498-0.05c0.011-0.106,0.281-2.618,2.086-4.165
			c1.8-1.543,4.067-1.561,4.163-1.561v0.5c-0.021,0-2.182,0.021-3.837,1.439C13.513,17.604,13.251,20.001,13.249,20.025z"/>
	</g>
</g>
</svg>






