<?xml version="1.0" encoding="iso-8859-1"?>
<svg version="1.1" id="&#x56FE;&#x5C42;_1" xmlns="http://www.w3.org/2000/svg" xmlns:xlink="http://www.w3.org/1999/xlink" x="0px"
	 y="0px" viewBox="0 0 24 24" style="enable-background:new 0 0 24 24;" xml:space="preserve">
<path style="fill:#333333;" d="M22.25,21.75H1.75v-5.5h20.5V21.75z M2.25,21.25h19.5v-4.5H2.25V21.25z"/>
<path style="fill:#333333;" d="M19.25,16.75h-6.5v-4h6.5V16.75z M13.25,16.25h5.5v-3h-5.5V16.25z"/>
<path style="fill:#333333;" d="M9,7.25c-1.517,0-2.75-1.233-2.75-2.75S7.483,1.75,9,1.75s2.75,1.233,2.75,2.75S10.517,7.25,9,7.25z
	 M9,2.25c-1.241,0-2.25,1.009-2.25,2.25S7.759,6.75,9,6.75s2.25-1.009,2.25-2.25S10.241,2.25,9,2.25z"/>
<rect x="1.188" y="11.5" transform="matrix(0.3477 -0.9376 0.9376 0.3477 -6.94 13.5246)" style="fill:#333333;" width="10.124" height="0.5"/>
</svg>






