<?xml version="1.0" encoding="iso-8859-1"?>
<svg version="1.1" id="&#x56FE;&#x5C42;_1" xmlns="http://www.w3.org/2000/svg" xmlns:xlink="http://www.w3.org/1999/xlink" x="0px"
	 y="0px" viewBox="0 0 24 24" style="enable-background:new 0 0 24 24;" xml:space="preserve">
<path style="fill:#333333;" d="M15.828,22.25H8.171l-0.945-10.5h9.547L15.828,22.25z M8.628,21.75h6.743l0.855-9.5H7.773
	L8.628,21.75z"/>
<path style="fill:#333333;" d="M17,12.25H7c-0.965,0-1.75-0.785-1.75-1.75S6.035,8.75,7,8.75h10c0.965,0,1.75,0.785,1.75,1.75
	S17.965,12.25,17,12.25z M7,9.25c-0.689,0-1.25,0.561-1.25,1.25S6.311,11.75,7,11.75h10c0.689,0,1.25-0.561,1.25-1.25
	S17.689,9.25,17,9.25H7z"/>
<path style="fill:#333333;" d="M17.25,9.25H6.75V9c0-2.895,2.355-5.25,5.25-5.25c2.895,0,5.25,2.355,5.25,5.25V9.25z M7.256,8.75
	h9.487c-0.13-2.503-2.208-4.5-4.743-4.5S7.387,6.247,7.256,8.75z"/>
<rect x="12.382" y="2.75" transform="matrix(0.4472 -0.8944 0.8944 0.4472 4.7793 13.7331)" style="fill:#333333;" width="2.236" height="0.5"/>
</svg>






