<?xml version="1.0" encoding="iso-8859-1"?>
<svg version="1.1" id="&#x56FE;&#x5C42;_1" xmlns="http://www.w3.org/2000/svg" xmlns:xlink="http://www.w3.org/1999/xlink" x="0px"
	 y="0px" viewBox="0 0 24 24" style="enable-background:new 0 0 24 24;" xml:space="preserve">
<path style="fill:#333333;" d="M21.197,22.041H3.075v-3.919h18.123V22.041z M3.565,21.551h17.142v-2.938H3.565V21.551z"/>
<path style="fill:#333333;" d="M5.523,17.897l-0.488-0.039l0.633-7.957c0.026-0.326-0.082-0.654-0.296-0.901L2.156,5.304L2.34,4.898
	h15.9l0.997,12.961l-0.488,0.037L17.787,5.388H2.878L5.741,8.68c0.3,0.345,0.452,0.805,0.416,1.261L5.523,17.897z"/>
<rect x="10.667" y="8.816" style="fill:#333333;" width="2.449" height="0.49"/>
<rect x="10.667" y="11.755" style="fill:#333333;" width="2.449" height="0.49"/>
<rect x="10.667" y="14.693" style="fill:#333333;" width="2.449" height="0.49"/>
<polygon style="fill:#333333;" points="22.177,13.225 18.993,13.225 18.993,12.734 21.687,12.734 21.687,5.388 18.014,5.388 
	18.014,4.898 22.177,4.898 "/>
<polygon style="fill:#333333;" points="14.341,4.653 13.851,4.653 13.851,2.449 9.932,2.449 9.932,4.653 9.442,4.653 9.442,1.959 
	14.341,1.959 "/>
</svg>






