<?xml version="1.0" encoding="iso-8859-1"?>
<svg version="1.1" id="&#x56FE;&#x5C42;_1" xmlns="http://www.w3.org/2000/svg" xmlns:xlink="http://www.w3.org/1999/xlink" x="0px"
	 y="0px" viewBox="0 0 24 24" style="enable-background:new 0 0 24 24;" xml:space="preserve">
<path style="fill:#333333;" d="M15.066,21.25H6.407l-0.07-0.061C6.19,21.063,2.75,18.058,2.75,14c0-4.057,3.44-7.063,3.587-7.189
	l0.07-0.061l8.708,0.028c0.041,0.021,4.135,2.201,4.135,7.122c0,4.915-4.085,7.295-4.126,7.318L15.066,21.25z M6.596,20.75h8.334
	c0.469-0.293,3.819-2.534,3.819-6.851c0-4.318-3.359-6.389-3.814-6.649H6.596C6.117,7.69,3.25,10.477,3.25,14
	C3.25,17.522,6.117,20.31,6.596,20.75z"/>
<path style="fill:#333333;" d="M7.501,15.311c-1.373,0-2.862-0.278-4.606-1.084l0.21-0.453c3.491,1.609,5.942,1.012,8.539,0.376
	c2.175-0.531,4.425-1.083,7.413-0.393l-0.113,0.486c-2.867-0.66-5.062-0.126-7.181,0.392C10.362,14.978,9.001,15.311,7.501,15.311z"
	/>
<path style="fill:#333333;" d="M22.25,15h-0.5c0-5.188-1.528-7.341-1.863-7.75H15.5v-0.5h4.604l0.073,0.073
	C20.262,6.908,22.25,8.966,22.25,15z"/>
<path style="fill:#333333;" d="M15.707,7.25H6.346L4.276,3.112l0.252-0.36l11.766,1.365L15.707,7.25z M6.654,6.75h8.639l0.412-2.199
	L4.93,3.302L6.654,6.75z"/>
</svg>






