<?xml version="1.0" encoding="iso-8859-1"?>
<svg version="1.1" id="&#x56FE;&#x5C42;_1" xmlns="http://www.w3.org/2000/svg" xmlns:xlink="http://www.w3.org/1999/xlink" x="0px"
	 y="0px" viewBox="0 0 24 24" style="enable-background:new 0 0 24 24;" xml:space="preserve">
<g>
	<defs>
		<rect id="SVGID_1_" width="24" height="24"/>
	</defs>
	<clipPath id="SVGID_00000129187214028356442020000002943788893190730144_">
		<use xlink:href="#SVGID_1_"  style="overflow:visible;"/>
	</clipPath>
	<g style="clip-path:url(#SVGID_00000129187214028356442020000002943788893190730144_);">
		<path style="fill:#333333;" d="M7.5,20.75c-2.343,0-4.25-1.906-4.25-4.25s1.907-4.25,4.25-4.25s4.25,1.906,4.25,4.25
			S9.843,20.75,7.5,20.75z M7.5,12.75c-2.068,0-3.75,1.683-3.75,3.75s1.682,3.75,3.75,3.75s3.75-1.683,3.75-3.75
			S9.568,12.75,7.5,12.75z"/>
		<polygon style="fill:#333333;" points="17.58,11.184 14.33,8.184 14.67,7.816 17.92,10.816 		"/>
		
			<rect x="7.876" y="8" transform="matrix(0.667 -0.745 0.745 0.667 -1.4016 13.3638)" style="fill:#333333;" width="12.748" height="0.5"/>
		
			<rect x="19" y="4.737" transform="matrix(0.6805 -0.7328 0.7328 0.6805 0.9302 16.3831)" style="fill:#333333;" width="0.5" height="4.776"/>
	</g>
</g>
</svg>






