<?xml version="1.0" encoding="iso-8859-1"?>
<svg version="1.1" id="&#x56FE;&#x5C42;_1" xmlns="http://www.w3.org/2000/svg" xmlns:xlink="http://www.w3.org/1999/xlink" x="0px"
	 y="0px" viewBox="0 0 24 24" style="enable-background:new 0 0 24 24;" xml:space="preserve">
<g>
	<defs>
		<rect id="SVGID_1_" width="24" height="24"/>
	</defs>
	<clipPath id="SVGID_00000123406374404931914260000004364674463934358430_">
		<use xlink:href="#SVGID_1_"  style="overflow:visible;"/>
	</clipPath>
	<g style="clip-path:url(#SVGID_00000123406374404931914260000004364674463934358430_);">
		<path style="fill:#333333;" d="M7.5,20.75c-2.343,0-4.25-1.906-4.25-4.25s1.907-4.25,4.25-4.25s4.25,1.906,4.25,4.25
			S9.843,20.75,7.5,20.75z M7.5,12.75c-2.068,0-3.75,1.683-3.75,3.75s1.682,3.75,3.75,3.75s3.75-1.683,3.75-3.75
			S9.568,12.75,7.5,12.75z"/>
		
			<rect x="16" y="7.195" transform="matrix(0.6508 -0.7593 0.7593 0.6508 -1.5383 15.6554)" style="fill:#333333;" width="0.501" height="4.61"/>
		<polygon style="fill:#333333;" points="10.187,13.166 9.813,12.834 17.977,3.65 21.663,6.81 21.337,7.19 18.023,4.35 		"/>
	</g>
</g>
</svg>






