<?xml version="1.0" encoding="iso-8859-1"?>
<svg version="1.1" id="&#x56FE;&#x5C42;_1" xmlns="http://www.w3.org/2000/svg" xmlns:xlink="http://www.w3.org/1999/xlink" x="0px"
	 y="0px" viewBox="0 0 24 24" style="enable-background:new 0 0 24 24;" xml:space="preserve">
<path style="fill:#333333;" d="M7.944,20.872c-1.381,0-2.732-0.545-3.725-1.547c-1.97-2.028-1.941-5.299,0.062-7.292
	c1.944-1.935,5.099-2.016,7.144-0.229l0.006-0.006l0.178,0.173c1.332,1.307,1.861,3.237,1.381,5.037
	c-0.48,1.799-1.902,3.213-3.71,3.691C8.839,20.815,8.39,20.872,7.944,20.872z M7.977,11.019c-1.214,0-2.427,0.457-3.343,1.369
	c-1.81,1.801-1.835,4.756-0.058,6.588c1.187,1.196,2.939,1.676,4.576,1.239c1.635-0.432,2.921-1.71,3.355-3.336
	c0.427-1.602-0.031-3.317-1.195-4.497l-0.053-0.051C10.349,11.456,9.163,11.019,7.977,11.019z"/>
<rect x="9.74" y="7.5" transform="matrix(0.7071 -0.7071 0.7071 0.7071 -0.867 13.4069)" style="fill:#333333;" width="12.021" height="0.5"/>
<path style="fill:#333333;" d="M17.867,11.502L14.798,8.45l3.521-3.502L21.388,8L17.867,11.502z M15.507,8.45l2.36,2.347L20.679,8
	l-2.359-2.347L15.507,8.45z"/>
</svg>






