<?xml version="1.0" encoding="iso-8859-1"?>
<svg version="1.1" id="&#x56FE;&#x5C42;_1" xmlns="http://www.w3.org/2000/svg" xmlns:xlink="http://www.w3.org/1999/xlink" x="0px"
	 y="0px" viewBox="0 0 24 24" style="enable-background:new 0 0 24 24;" xml:space="preserve">
<path style="fill:#333333;" d="M12,22.25C6.348,22.25,1.75,17.652,1.75,12C1.75,6.348,6.348,1.75,12,1.75
	c5.652,0,10.25,4.598,10.25,10.25C22.25,17.652,17.652,22.25,12,22.25z M12,2.25c-5.376,0-9.75,4.374-9.75,9.75
	s4.374,9.75,9.75,9.75s9.75-4.374,9.75-9.75S17.376,2.25,12,2.25z"/>
<path style="fill:#333333;" d="M14.283,16.25H9.717l0.518-4.142C9.607,11.584,9.25,10.824,9.25,10c0-1.517,1.233-2.75,2.75-2.75
	s2.75,1.233,2.75,2.75c0,0.824-0.357,1.584-0.984,2.108L14.283,16.25z M10.283,15.75h3.434l-0.482-3.863L13.35,11.8
	c0.572-0.43,0.9-1.086,0.9-1.8c0-1.241-1.01-2.25-2.25-2.25c-1.241,0-2.25,1.009-2.25,2.25c0,0.714,0.328,1.371,0.9,1.8l0.116,0.087
	L10.283,15.75z"/>
</svg>






