<?xml version="1.0" encoding="iso-8859-1"?>
<svg version="1.1" id="&#x56FE;&#x5C42;_1" xmlns="http://www.w3.org/2000/svg" xmlns:xlink="http://www.w3.org/1999/xlink" x="0px"
	 y="0px" viewBox="0 0 24 24" style="enable-background:new 0 0 24 24;" xml:space="preserve">
<path style="fill:#333333;" d="M21.25,21.25H2.75V2.75h18.5V21.25z M3.25,20.75h17.5V3.25H3.25V20.75z"/>
<path style="fill:#333333;" d="M12,18.25c-3.446,0-6.25-2.804-6.25-6.25S8.554,5.75,12,5.75s6.25,2.804,6.25,6.25
	S15.446,18.25,12,18.25z M12,6.25c-3.17,0-5.75,2.58-5.75,5.75c0,3.171,2.58,5.75,5.75,5.75c3.171,0,5.75-2.579,5.75-5.75
	C17.75,8.83,15.171,6.25,12,6.25z"/>
<rect x="11.75" y="-2.142" transform="matrix(0.7071 -0.7071 0.7071 0.7071 -4.9706 12)" style="fill:#333333;" width="0.5" height="28.284"/>
<rect x="-2.142" y="11.75" transform="matrix(0.7071 -0.7071 0.7071 0.7071 -4.9706 12)" style="fill:#333333;" width="28.284" height="0.5"/>
</svg>






