<?xml version="1.0" encoding="iso-8859-1"?>
<svg version="1.1" id="&#x56FE;&#x5C42;_1" xmlns="http://www.w3.org/2000/svg" xmlns:xlink="http://www.w3.org/1999/xlink" x="0px"
	 y="0px" viewBox="0 0 24 24" style="enable-background:new 0 0 24 24;" xml:space="preserve">
<rect x="6.75" y="2" style="fill:#333333;" width="0.5" height="20"/>
<path style="fill:#333333;" d="M7,10.25c-1.124,0-3.25-0.575-3.25-2.75v-5h0.5v5c0,2.225,2.638,2.25,2.75,2.25
	c0.112,0,2.75-0.032,2.75-2.25v-5h0.5v5C10.25,9.675,8.124,10.25,7,10.25z"/>
<path style="fill:none;" d="M15,6c0-4,4-4,4-4v8.5h-4V6z"/>
<path style="fill:#333333;" d="M19.25,22h-0.5V10.75h-4V6c0-4.201,4.207-4.25,4.25-4.25h0.25V22z M15.25,10.25h3.5V2.263
	c-0.846,0.074-3.5,0.561-3.5,3.737V10.25z"/>
</svg>






