<?xml version="1.0" encoding="iso-8859-1"?>
<svg version="1.1" id="&#x56FE;&#x5C42;_1" xmlns="http://www.w3.org/2000/svg" xmlns:xlink="http://www.w3.org/1999/xlink" x="0px"
	 y="0px" viewBox="0 0 24 24" style="enable-background:new 0 0 24 24;" xml:space="preserve">
<path style="fill:#333333;" d="M12,20.75c-4.273,0-7.75-3.477-7.75-7.75S7.727,5.25,12,5.25s7.75,3.477,7.75,7.75
	S16.273,20.75,12,20.75z M12,5.75c-3.998,0-7.25,3.252-7.25,7.25c0,3.998,3.252,7.25,7.25,7.25c3.998,0,7.25-3.252,7.25-7.25
	C19.25,9.002,15.998,5.75,12,5.75z"/>
<path style="fill:#333333;" d="M12,17.75c-0.965,0-1.75-0.883-1.75-1.969c0-0.983,1.373-3.603,1.529-3.898h0.441
	c0.156,0.296,1.529,2.915,1.529,3.898C13.75,16.867,12.965,17.75,12,17.75z M12,12.546c-0.481,0.957-1.25,2.616-1.25,3.235
	c0,0.81,0.561,1.469,1.25,1.469s1.25-0.659,1.25-1.469C13.25,15.162,12.481,13.503,12,12.546z"/>
<circle style="fill:#333333;" cx="8.52" cy="11.747" r="1"/>
<circle style="fill:#333333;" cx="15.52" cy="11.747" r="1"/>
<path style="fill:#333333;" d="M2.74,11.893l-0.112-0.308C1.24,7.762,1.727,5.117,2.515,4.461c0.556-0.57,1.416-0.81,2.464-0.675
	c1.628,0.207,3.276,1.248,3.738,2.053L8.283,6.088C7.881,5.387,6.355,4.465,4.916,4.282C4.296,4.201,3.435,4.233,2.854,4.828
	c-0.57,0.477-1.063,2.768,0.136,6.277l1.866-1.319l0.289,0.408L2.74,11.893z"/>
<path style="fill:#333333;" d="M21.26,11.893l-2.404-1.699l0.289-0.408l1.866,1.319c1.199-3.509,0.706-5.8,0.154-6.26
	c-0.601-0.611-1.461-0.641-2.08-0.563c-1.44,0.184-2.966,1.105-3.368,1.806l-0.434-0.249c0.462-0.805,2.11-1.846,3.738-2.053
	c1.054-0.136,1.908,0.105,2.482,0.692c0.77,0.639,1.256,3.284-0.132,7.107L21.26,11.893z"/>
</svg>






