<?xml version="1.0" encoding="iso-8859-1"?>
<svg version="1.1" id="&#x56FE;&#x5C42;_1" xmlns="http://www.w3.org/2000/svg" xmlns:xlink="http://www.w3.org/1999/xlink" x="0px"
	 y="0px" viewBox="0 0 24 24" style="enable-background:new 0 0 24 24;" xml:space="preserve">
<rect x="8.5" y="8.25" style="fill:#333333;" width="9" height="0.5"/>
<rect x="7.5" y="12.75" style="fill:#333333;" width="9" height="0.5"/>
<rect x="6" y="17.25" style="fill:#333333;" width="9" height="0.5"/>
<path style="fill:#333333;" d="M4.739,21.574l-0.478-0.148L9.913,3.131c0.163-0.527,0.643-0.881,1.194-0.881h7.081
	c0.394,0,0.755,0.179,0.994,0.492c0.238,0.312,0.315,0.709,0.211,1.089l-4.87,17.735l-0.482-0.133l4.87-17.735
	c0.062-0.228,0.017-0.465-0.127-0.653c-0.143-0.188-0.359-0.295-0.596-0.295h-7.081c-0.331,0-0.619,0.212-0.717,0.529L4.739,21.574z
	"/>
<rect x="9.25" y="8.917" transform="matrix(0.9864 -0.1644 0.1644 0.9864 -2.3367 1.7659)" style="fill:#333333;" width="0.5" height="12.166"/>
<rect x="18.25" y="8.917" transform="matrix(0.9864 -0.1644 0.1644 0.9864 -2.2143 3.2455)" style="fill:#333333;" width="0.501" height="12.166"/>
</svg>






