<?xml version="1.0" encoding="iso-8859-1"?>
<svg version="1.1" id="&#x56FE;&#x5C42;_1" xmlns="http://www.w3.org/2000/svg" xmlns:xlink="http://www.w3.org/1999/xlink" x="0px"
	 y="0px" viewBox="0 0 24 24" style="enable-background:new 0 0 24 24;" xml:space="preserve">
<path style="fill:#333333;" d="M10.75,10.75h-4v-6c0-1.103,0.897-2,2-2s2,0.897,2,2V10.75z M7.25,10.25h3v-5.5
	c0-0.827-0.673-1.5-1.5-1.5s-1.5,0.673-1.5,1.5V10.25z"/>
<path style="fill:#333333;" d="M17.25,10.75h-4v-6c0-1.103,0.897-2,2-2s2,0.897,2,2V10.75z M13.75,10.25h3v-5.5
	c0-0.827-0.673-1.5-1.5-1.5s-1.5,0.673-1.5,1.5V10.25z"/>
<path style="fill:#333333;" d="M15.25,21.25h-6.5v-4.5h6.5V21.25z M9.25,20.75h5.5v-3.5h-5.5V20.75z"/>
<path style="fill:#333333;" d="M15,17.25H9c-2.343,0-4.25-1.906-4.25-4.25v-2c0-0.414,0.336-0.75,0.75-0.75h13
	c0.413,0,0.75,0.336,0.75,0.75v2C19.25,15.344,17.344,17.25,15,17.25z M5.5,10.75c-0.138,0-0.25,0.112-0.25,0.25v2
	c0,2.067,1.682,3.75,3.75,3.75h6c2.067,0,3.75-1.683,3.75-3.75v-2c0-0.138-0.112-0.25-0.25-0.25H5.5z"/>
</svg>






