<?xml version="1.0" encoding="iso-8859-1"?>
<svg version="1.1" id="&#x56FE;&#x5C42;_1" xmlns="http://www.w3.org/2000/svg" xmlns:xlink="http://www.w3.org/1999/xlink" x="0px"
	 y="0px" viewBox="0 0 24 24" style="enable-background:new 0 0 24 24;" xml:space="preserve">
<rect x="2.5" y="21.25" style="fill:#333333;" width="19" height="0.5"/>
<path style="fill:#333333;" d="M20,17.75c-2.015,0-17.42-4.807-18.075-5.012L1.75,12.684V7.245H2c0.792,0,2.595,2.211,3.149,3.028
	l5.101,0.928V2.096l2.458,1.229l2.904,9.452l4.441,0.979c1.912,0.478,2.196,1.611,2.196,2.244C22.25,17.096,21.409,17.75,20,17.75z
	 M2.25,12.316C3.999,12.86,18.172,17.25,20,17.25c0.653,0,1.75-0.162,1.75-1.25c0-0.842-0.643-1.466-1.811-1.758l-4.72-1.04
	l-2.928-9.526L10.75,2.904v8.895l-5.901-1.073L4.79,10.636C4.184,9.696,2.872,8.25,2.25,7.85V12.316z"/>
</svg>






