<?xml version="1.0" encoding="iso-8859-1"?>
<svg version="1.1" id="&#x56FE;&#x5C42;_1" xmlns="http://www.w3.org/2000/svg" xmlns:xlink="http://www.w3.org/1999/xlink" x="0px"
	 y="0px" viewBox="0 0 24 24" style="enable-background:new 0 0 24 24;" xml:space="preserve">
<path style="fill:#333333;" d="M18.25,22.25c-0.125,0-12.5-0.205-12.5-2.75c0-1.75,2.628-1.75,3.75-1.75
	c0.216-0.025,0.514-0.031,0.835-0.038C11.845,17.682,13,17.573,13,16.5c0-1.477-4.458-2.25-6-2.25v-0.5c1.376,0,6.5,0.688,6.5,2.75
	c0,1.648-1.898,1.687-3.154,1.712c-0.305,0.006-0.588,0.012-0.818,0.036C7.987,18.25,6.25,18.392,6.25,19.5
	c0,1.484,8.411,2.25,12,2.25V22.25z"/>
<path style="fill:#333333;" d="M3.256,18.007c-0.001-0.046-0.119-4.609,0.773-8.332C4.974,5.73,7.311,1.75,10.402,1.75
	c3.103,0,5.348,3.435,5.348,5.75h-0.5c0-2.065-2.082-5.25-4.848-5.25c-2.804,0-5.017,3.909-5.887,7.542
	c-0.876,3.657-0.761,8.157-0.759,8.202L3.256,18.007z"/>
<path style="fill:#333333;" d="M19.75,16.51c-0.001-0.024-0.104-2.519-0.493-4.203C18.858,10.587,17.794,8.75,16,8.75
	c-2.256,0-2.75,2.346-2.75,3.25h-0.5c0-1.507,0.865-3.75,3.25-3.75c2.087,0,3.302,2.037,3.743,3.943
	c0.401,1.731,0.503,4.192,0.507,4.297L19.75,16.51z"/>
</svg>






