<?xml version="1.0" encoding="iso-8859-1"?>
<svg version="1.1" id="&#x56FE;&#x5C42;_1" xmlns="http://www.w3.org/2000/svg" xmlns:xlink="http://www.w3.org/1999/xlink" x="0px"
	 y="0px" viewBox="0 0 24 24" style="enable-background:new 0 0 24 24;" xml:space="preserve">
<path style="fill:#333333;" d="M20.25,16.25H3.75V5.5c0-0.965,0.785-1.75,1.75-1.75h13c0.965,0,1.75,0.785,1.75,1.75V16.25z
	 M4.25,15.75h15.5V5.5c0-0.689-0.561-1.25-1.25-1.25h-13c-0.689,0-1.25,0.561-1.25,1.25V15.75z"/>
<path style="fill:#333333;" d="M19,20.25H5c-1.792,0-3.25-1.458-3.25-3.25v-1.25h20.5V17C22.25,18.792,20.792,20.25,19,20.25z
	 M2.25,16.25V17c0,1.517,1.233,2.75,2.75,2.75h14c1.517,0,2.75-1.233,2.75-2.75v-0.75H2.25z"/>
</svg>






