<?xml version="1.0" encoding="iso-8859-1"?>
<svg version="1.1" id="&#x56FE;&#x5C42;_1" xmlns="http://www.w3.org/2000/svg" xmlns:xlink="http://www.w3.org/1999/xlink" x="0px"
	 y="0px" viewBox="0 0 24 24" style="enable-background:new 0 0 24 24;" xml:space="preserve">
<path style="fill:#333333;" d="M20.5,16.25h-17c-0.689,0-1.25-0.561-1.25-1.25V5c0-0.689,0.561-1.25,1.25-1.25h17
	c0.689,0,1.25,0.561,1.25,1.25v10C21.75,15.689,21.189,16.25,20.5,16.25z M3.5,4.25C3.086,4.25,2.75,4.586,2.75,5v10
	c0,0.413,0.336,0.75,0.75,0.75h17c0.413,0,0.75-0.337,0.75-0.75V5c0-0.414-0.337-0.75-0.75-0.75H3.5z"/>
<rect x="2" y="19.75" style="fill:#333333;" width="20" height="0.5"/>
<rect x="11" y="6.75" style="fill:#333333;" width="2" height="0.5"/>
</svg>






