<?xml version="1.0" encoding="iso-8859-1"?>
<svg version="1.1" id="&#x56FE;&#x5C42;_1" xmlns="http://www.w3.org/2000/svg" xmlns:xlink="http://www.w3.org/1999/xlink" x="0px"
	 y="0px" viewBox="0 0 24 24" style="enable-background:new 0 0 24 24;" xml:space="preserve">
<g>
	<defs>
		<rect id="SVGID_1_" width="24" height="24"/>
	</defs>
	<clipPath id="SVGID_00000106841706860775824600000009914345704679896712_">
		<use xlink:href="#SVGID_1_"  style="overflow:visible;"/>
	</clipPath>
	<g style="clip-path:url(#SVGID_00000106841706860775824600000009914345704679896712_);">
		<path style="fill:#333333;" d="M15.302,22.769l-4.811-4.811l0.021-4.478L5.883,13.35L1.274,8.74l19.494-5.819l0.311,0.311
			L15.302,22.769z M10.992,17.751l4.069,4.07l5.407-18.289L2.22,8.979l3.876,3.876l4.917,0.139L10.992,17.751z"/>
		<path style="fill-rule:evenodd;clip-rule:evenodd;fill:#333333;" d="M13.768,7.445c-0.781,0.781-0.781,2.047,0,2.828
			c0.781,0.781,2.047,0.781,2.828,0c0.781-0.781,0.781-2.047,0-2.828C15.815,6.664,14.549,6.664,13.768,7.445z"/>
		
			<rect x="14.01" y="5.781" transform="matrix(0.7071 -0.7071 0.7071 0.7071 1.0103 14.5017)" style="fill:#333333;" width="8.001" height="0.5"/>
	</g>
</g>
</svg>






