<?xml version="1.0" encoding="iso-8859-1"?>
<svg version="1.1" id="&#x56FE;&#x5C42;_1" xmlns="http://www.w3.org/2000/svg" xmlns:xlink="http://www.w3.org/1999/xlink" x="0px"
	 y="0px" viewBox="0 0 24 24" style="enable-background:new 0 0 24 24;" xml:space="preserve">
<rect x="3" y="3.75" style="fill:#333333;" width="2" height="0.5"/>
<rect x="7" y="7.75" style="fill:#333333;" width="2" height="0.5"/>
<rect x="7.75" y="3" style="fill:#333333;" width="0.5" height="2"/>
<rect x="3.75" y="7" style="fill:#333333;" width="0.5" height="2"/>
<rect x="11" y="3.75" style="fill:#333333;" width="2" height="0.5"/>
<rect x="15" y="7.75" style="fill:#333333;" width="2" height="0.5"/>
<rect x="15.75" y="3" style="fill:#333333;" width="0.5" height="2"/>
<rect x="11.75" y="7" style="fill:#333333;" width="0.5" height="2"/>
<rect x="19" y="3.75" style="fill:#333333;" width="2" height="0.5"/>
<rect x="19.75" y="7" style="fill:#333333;" width="0.5" height="2"/>
<rect x="3" y="11.75" style="fill:#333333;" width="2" height="0.5"/>
<rect x="7" y="15.75" style="fill:#333333;" width="2" height="0.5"/>
<rect x="7.75" y="11" style="fill:#333333;" width="0.5" height="2"/>
<rect x="3.75" y="15" style="fill:#333333;" width="0.5" height="2"/>
<rect x="11" y="11.75" style="fill:#333333;" width="2" height="0.5"/>
<rect x="15" y="15.75" style="fill:#333333;" width="2" height="0.5"/>
<rect x="15.75" y="11" style="fill:#333333;" width="0.5" height="2"/>
<rect x="11.75" y="15" style="fill:#333333;" width="0.5" height="2"/>
<rect x="19" y="11.75" style="fill:#333333;" width="2" height="0.5"/>
<rect x="19.75" y="15" style="fill:#333333;" width="0.5" height="2"/>
<rect x="3" y="19.75" style="fill:#333333;" width="2" height="0.5"/>
<rect x="7.75" y="19" style="fill:#333333;" width="0.5" height="2"/>
<rect x="11" y="19.75" style="fill:#333333;" width="2" height="0.5"/>
<rect x="15.75" y="19" style="fill:#333333;" width="0.5" height="2"/>
<rect x="19" y="19.75" style="fill:#333333;" width="2" height="0.5"/>
</svg>






