<?xml version="1.0" encoding="iso-8859-1"?>
<svg version="1.1" id="&#x56FE;&#x5C42;_1" xmlns="http://www.w3.org/2000/svg" xmlns:xlink="http://www.w3.org/1999/xlink" x="0px"
	 y="0px" viewBox="0 0 24 24" style="enable-background:new 0 0 24 24;" xml:space="preserve">
<path style="fill:#333333;" d="M12,9.765l-0.083-0.029l-10-3.543l0.002-0.472L12,2.235l10.082,3.485l0.001,0.472L12,9.765z
	 M2.757,5.96L12,9.235l9.243-3.275L12,2.765L2.757,5.96z"/>
<polygon style="fill:#333333;" points="12,13.765 11.917,13.736 1.917,10.236 2.083,9.764 12,13.235 21.917,9.764 22.083,10.236 "/>
<polygon style="fill:#333333;" points="12,17.765 11.917,17.736 1.917,14.236 2.083,13.764 12,17.235 21.917,13.764 22.083,14.236 
	"/>
<polygon style="fill:#333333;" points="12,21.765 11.917,21.736 1.917,18.236 2.083,17.764 12,21.235 21.917,17.764 22.083,18.236 
	"/>
</svg>






