<?xml version="1.0" encoding="iso-8859-1"?>
<svg version="1.1" id="&#x56FE;&#x5C42;_1" xmlns="http://www.w3.org/2000/svg" xmlns:xlink="http://www.w3.org/1999/xlink" x="0px"
	 y="0px" viewBox="0 0 24 24" style="enable-background:new 0 0 24 24;" xml:space="preserve">
<path style="fill:#333333;" d="M12.012,22.27l-0.096-0.034C11.85,22.212,5.25,19.774,5.25,12c0-7.774,6.6-10.212,6.666-10.235
	l0.096-0.034l0.092,0.042C12.17,1.803,18.75,4.875,18.75,12c0,7.125-6.58,10.197-6.646,10.228L12.012,22.27z M11.989,2.273
	C11.199,2.597,5.75,5.089,5.75,12c0,6.91,5.448,9.402,6.239,9.728c0.785-0.396,6.261-3.385,6.261-9.728
	C18.25,5.648,12.774,2.667,11.989,2.273z"/>
<rect x="11.482" y="16.5" transform="matrix(0.7071 -0.7071 0.7071 0.7071 -7.9632 14.2751)" style="fill:#333333;" width="3.536" height="0.5"/>
<rect x="10.5" y="11.482" transform="matrix(0.7071 -0.7071 0.7071 0.7071 -6.2206 11.4822)" style="fill:#333333;" width="0.5" height="3.536"/>
<rect x="11.482" y="10" transform="matrix(0.7071 -0.7071 0.7071 0.7071 -3.367 12.3713)" style="fill:#333333;" width="3.536" height="0.5"/>
<rect x="11.75" y="7" style="fill:#333333;" width="0.5" height="15"/>
</svg>






