<?xml version="1.0" encoding="iso-8859-1"?>
<svg version="1.1" id="&#x56FE;&#x5C42;_1" xmlns="http://www.w3.org/2000/svg" xmlns:xlink="http://www.w3.org/1999/xlink" x="0px"
	 y="0px" viewBox="0 0 24 24" style="enable-background:new 0 0 24 24;" xml:space="preserve">
<path style="fill:#333333;" d="M11.412,19.218c-0.292,0-0.583-0.019-0.875-0.056c-2.197-0.281-3.749-1.52-4.262-2.551
	c-0.953-1.919-1.101-3.62-0.441-5.057c1.002-2.178,3.553-3.031,4.604-3.297L10.5,8.5l-0.062-0.242
	c4.328-1.095,8.945-4.536,10.388-5.937L21.25,2.5c0,7.612-1.924,11.856-3.062,13.164C16.176,17.979,13.799,19.218,11.412,19.218z
	 M20.746,3.076C18.64,4.95,14.319,7.792,10.562,8.742c-0.981,0.248-3.36,1.04-4.272,3.021c-0.594,1.292-0.448,2.848,0.435,4.625
	c0.469,0.945,1.952,2.031,3.877,2.277c1.771,0.228,4.459-0.166,7.21-3.33C18.802,14.197,20.65,10.195,20.746,3.076z"/>
<path style="fill:#333333;" d="M3.245,21.551l-0.489-0.102c0.222-1.077,1.266-3.441,3.629-4.671l0.23,0.443
	C4.419,18.365,3.45,20.553,3.245,21.551z"/>
</svg>






