<?xml version="1.0" encoding="iso-8859-1"?>
<svg version="1.1" id="&#x56FE;&#x5C42;_1" xmlns="http://www.w3.org/2000/svg" xmlns:xlink="http://www.w3.org/1999/xlink" x="0px"
	 y="0px" viewBox="0 0 24 24" style="enable-background:new 0 0 24 24;" xml:space="preserve">
<path style="fill:#333333;" d="M21.25,15.25H2.75V12c0-0.689,0.561-1.25,1.25-1.25h16c0.689,0,1.25,0.561,1.25,1.25V15.25z
	 M3.25,14.75h17.5V12c0-0.414-0.337-0.75-0.75-0.75H4c-0.414,0-0.75,0.336-0.75,0.75V14.75z"/>
<rect x="9.25" y="15" style="fill:#333333;" width="0.5" height="7"/>
<rect x="14.25" y="15" style="fill:#333333;" width="0.5" height="7"/>
<path style="fill:#333333;" d="M19.25,11.25H4.75V9c0-3.998,3.252-7.25,7.25-7.25c3.998,0,7.25,3.252,7.25,7.25V11.25z M5.25,10.75
	h13.5V9c0-3.722-3.028-6.75-6.75-6.75C8.278,2.25,5.25,5.278,5.25,9V10.75z"/>
<path style="fill:#333333;" d="M12,8.25c-0.965,0-1.75-0.785-1.75-1.75S11.035,4.75,12,4.75s1.75,0.785,1.75,1.75
	S12.965,8.25,12,8.25z M12,5.25c-0.689,0-1.25,0.561-1.25,1.25S11.311,7.75,12,7.75s1.25-0.561,1.25-1.25S12.689,5.25,12,5.25z"/>
</svg>






