<?xml version="1.0" encoding="iso-8859-1"?>
<svg version="1.1" id="&#x56FE;&#x5C42;_1" xmlns="http://www.w3.org/2000/svg" xmlns:xlink="http://www.w3.org/1999/xlink" x="0px"
	 y="0px" viewBox="0 0 24 24" style="enable-background:new 0 0 24 24;" xml:space="preserve">
<path style="fill:#333333;" d="M19.868,12.213c-1.025-0.636-3.273-3.015-3.826-5.63c-0.498-2.353-2.343-2.34-3.04-2.333l-0.004-0.5
	c0.728-0.011,2.949-0.023,3.532,2.729c0.533,2.521,2.762,4.788,3.602,5.309L19.868,12.213z"/>
<path style="fill:#333333;" d="M13,20.25v-0.5c0.763,0,2.548,0,3.042-2.332c0.553-2.616,2.802-4.994,3.826-5.63l0.264,0.425
	c-0.84,0.521-3.068,2.788-3.602,5.309C15.952,20.25,13.73,20.25,13,20.25z"/>
<circle style="fill:#333333;" cx="20" cy="12" r="2"/>
<rect x="13" y="11.75" style="fill:#333333;" width="7" height="0.5"/>
<rect x="3" y="11.75" style="fill:#333333;" width="6" height="0.5"/>
<rect x="3" y="3.75" style="fill:#333333;" width="6" height="0.5"/>
<rect x="3" y="19.75" style="fill:#333333;" width="6" height="0.5"/>
</svg>






