<?xml version="1.0" encoding="iso-8859-1"?>
<svg version="1.1" id="&#x56FE;&#x5C42;_1" xmlns="http://www.w3.org/2000/svg" xmlns:xlink="http://www.w3.org/1999/xlink" x="0px"
	 y="0px" viewBox="0 0 24 24" style="enable-background:new 0 0 24 24;" xml:space="preserve">
<path style="fill:#333333;" d="M12,22.25c-0.423,0-0.724-0.507-1.042-1.043c-0.163-0.273-0.408-0.687-0.543-0.735
	C7.886,19.562,5.75,16.14,5.75,13c0-3.113,2.101-6.504,4.602-7.448L12,3.614l1.648,1.938C16.149,6.496,18.25,9.887,18.25,13
	c0,3.14-2.137,6.562-4.665,7.472c-0.135,0.048-0.38,0.462-0.543,0.735C12.724,21.743,12.423,22.25,12,22.25z M12,4.386l-1.353,1.591
	l-0.063,0.022C8.491,6.752,6.25,9.746,6.25,13c0,3.255,2.241,6.247,4.334,7.001c0.304,0.109,0.535,0.5,0.803,0.951
	c0.154,0.259,0.474,0.798,0.612,0.798s0.459-0.539,0.612-0.798c0.269-0.451,0.5-0.842,0.803-0.951
	c2.094-0.754,4.335-3.746,4.335-7.001c0-3.254-2.241-6.248-4.335-7.001l-0.062-0.022L12,4.386z"/>
<path style="fill:#333333;" d="M14.808,5.776c-0.258,0-0.501-0.019-0.714-0.046c-0.319-0.041-0.592-0.218-0.747-0.487
	c-0.155-0.269-0.173-0.593-0.048-0.89c0.277-0.663,0.793-1.56,1.674-2.069c0.88-0.509,1.917-0.508,2.63-0.416
	c0.319,0.041,0.592,0.218,0.747,0.487c0.155,0.269,0.173,0.593,0.048,0.89c-0.277,0.663-0.793,1.561-1.675,2.069
	C16.106,5.671,15.413,5.776,14.808,5.776z M16.887,2.322c-0.533,0-1.137,0.091-1.664,0.395c-0.761,0.439-1.215,1.238-1.463,1.83
	c-0.063,0.152-0.056,0.315,0.021,0.447s0.213,0.22,0.376,0.241c0.638,0.083,1.558,0.086,2.316-0.352
	c0.761-0.439,1.216-1.237,1.464-1.83C18,2.9,17.992,2.737,17.916,2.605s-0.213-0.22-0.376-0.241l0,0
	C17.345,2.339,17.122,2.322,16.887,2.322z"/>
</svg>






