<?xml version="1.0" encoding="iso-8859-1"?>
<svg version="1.1" id="&#x56FE;&#x5C42;_1" xmlns="http://www.w3.org/2000/svg" xmlns:xlink="http://www.w3.org/1999/xlink" x="0px"
	 y="0px" viewBox="0 0 24 24" style="enable-background:new 0 0 24 24;" xml:space="preserve">
<path style="fill:none;" d="M7,5c0,1.105-0.895,2-2,2C3.895,7,3,6.105,3,5c0-1.105,0.895-2,2-2C6.105,3,7,3.895,7,5z"/>
<path style="fill:#333333;" d="M5.25,10h-0.5V7.236c-1.124-0.125-2-1.08-2-2.236c0-1.241,1.009-2.25,2.25-2.25
	c1.156,0,2.111,0.876,2.236,2H10v0.5H7.236C7.121,6.292,6.292,7.121,5.25,7.236V10z M5,7V6.75c0.965,0,1.75-0.785,1.75-1.75H7H6.75
	c0-0.965-0.785-1.75-1.75-1.75S3.25,4.035,3.25,5S4.035,6.75,5,6.75V7z"/>
<path style="fill:none;" d="M7,19c0-1.105-0.895-2-2-2c-1.105,0-2,0.895-2,2s0.895,2,2,2C6.105,21,7,20.105,7,19z"/>
<path style="fill:#333333;" d="M5,21.25c-1.241,0-2.25-1.01-2.25-2.25c0-1.156,0.876-2.111,2-2.236V14h0.5v2.764
	c1.042,0.116,1.871,0.945,1.986,1.986H10v0.5H7.236C7.111,20.373,6.156,21.25,5,21.25z M5,17v0.25c-0.965,0-1.75,0.785-1.75,1.75
	S4.035,20.75,5,20.75S6.75,19.965,6.75,19S5.965,17.25,5,17.25V17z"/>
<path style="fill:none;" d="M17,19c0-1.105,0.895-2,2-2s2,0.895,2,2s-0.895,2-2,2S17,20.105,17,19z"/>
<path style="fill:#333333;" d="M19,21.25c-1.156,0-2.111-0.877-2.236-2H14v-0.5h2.764c0.116-1.041,0.945-1.87,1.986-1.986V14h0.5
	v2.764c1.123,0.125,2,1.08,2,2.236C21.25,20.24,20.24,21.25,19,21.25z M17.25,19c0,0.965,0.785,1.75,1.75,1.75s1.75-0.785,1.75-1.75
	s-0.785-1.75-1.75-1.75S17.25,18.035,17.25,19z"/>
<path style="fill:none;" d="M17,5c0,1.105,0.895,2,2,2s2-0.895,2-2c0-1.105-0.895-2-2-2S17,3.895,17,5z"/>
<path style="fill:#333333;" d="M19.25,10h-0.5V7.236c-1.041-0.116-1.87-0.945-1.986-1.986H14v-0.5h2.764c0.125-1.124,1.08-2,2.236-2
	c1.24,0,2.25,1.009,2.25,2.25c0,1.156-0.877,2.111-2,2.236V10z M17,5h0.25c0,0.965,0.785,1.75,1.75,1.75S20.75,5.965,20.75,5
	S19.965,3.25,19,3.25S17.25,4.035,17.25,5H17z"/>
<rect x="8.5" y="11.75" style="fill:#333333;" width="7" height="0.5"/>
<rect x="11.75" y="8.5" style="fill:#333333;" width="0.5" height="7"/>
</svg>






