<?xml version="1.0" encoding="iso-8859-1"?>
<svg version="1.1" id="&#x56FE;&#x5C42;_1" xmlns="http://www.w3.org/2000/svg" xmlns:xlink="http://www.w3.org/1999/xlink" x="0px"
	 y="0px" viewBox="0 0 24 24" style="enable-background:new 0 0 24 24;" xml:space="preserve">
<path style="fill:#333333;" d="M6.5,16.75c-1.792,0-3.25-1.458-3.25-3.25s1.458-3.25,3.25-3.25s3.25,1.458,3.25,3.25
	S8.292,16.75,6.5,16.75z M6.5,10.75c-1.517,0-2.75,1.233-2.75,2.75s1.233,2.75,2.75,2.75s2.75-1.233,2.75-2.75
	S8.017,10.75,6.5,10.75z"/>
<path style="fill:#333333;" d="M17.758,21.75c-0.426,0-0.811-0.085-1.096-0.218c-1.079-0.502-1.817-1.302-2.194-2.377
	c-0.698-1.992,0.038-4.381,0.584-5.478l0.797-1.792c0.01-0.02,0.544-1.114,0.676-1.663c0.62-2.573,0.421-4.529-0.592-5.814
	C14.754,2.912,12.79,2.75,12,2.75c-5.103,0-5.25,6.957-5.25,7.75h-0.5c0-0.844,0.161-8.25,5.75-8.25c0.862,0,3.011,0.18,4.325,1.849
	c1.112,1.412,1.343,3.511,0.686,6.241c-0.145,0.603-0.687,1.711-0.709,1.758l-0.798,1.793c-0.48,0.966-1.209,3.261-0.564,5.1
	c0.331,0.943,0.981,1.646,1.934,2.089c0.462,0.214,1.306,0.273,2.072-0.103c0.472-0.231,1.082-0.72,1.311-1.73l0.488,0.109
	c-0.272,1.204-1.009,1.79-1.578,2.07C18.696,21.656,18.204,21.75,17.758,21.75z"/>
</svg>






