<?xml version="1.0" encoding="iso-8859-1"?>
<svg version="1.1" id="&#x56FE;&#x5C42;_1" xmlns="http://www.w3.org/2000/svg" xmlns:xlink="http://www.w3.org/1999/xlink" x="0px"
	 y="0px" viewBox="0 0 24 24" style="enable-background:new 0 0 24 24;" xml:space="preserve">
<rect x="2.75" y="4" style="fill:#333333;" width="0.5" height="16"/>
<rect x="11.75" y="4" style="fill:#333333;" width="0.5" height="16"/>
<rect x="3.5" y="11.75" style="fill:#333333;" width="8" height="0.5"/>
<path style="fill:#333333;" d="M18.25,20.25c-1.654,0-3-1.346-3-3s1.346-3,3-3s3,1.346,3,3S19.904,20.25,18.25,20.25z M18.25,14.75
	c-1.379,0-2.5,1.121-2.5,2.5s1.121,2.5,2.5,2.5s2.5-1.121,2.5-2.5S19.629,14.75,18.25,14.75z"/>
<path style="fill:#333333;" d="M15.75,17h-0.5v-3.5c0-1.792,1.346-3.25,3-3.25c1.229,0,2.321,0.797,2.782,2.031l-0.469,0.176
	c-0.387-1.037-1.295-1.707-2.313-1.707c-1.379,0-2.5,1.233-2.5,2.75V17z"/>
</svg>






