<?xml version="1.0" encoding="iso-8859-1"?>
<svg version="1.1" id="&#x56FE;&#x5C42;_1" xmlns="http://www.w3.org/2000/svg" xmlns:xlink="http://www.w3.org/1999/xlink" x="0px"
	 y="0px" viewBox="0 0 24 24" style="enable-background:new 0 0 24 24;" xml:space="preserve">
<path style="fill:#333333;" d="M16.738,22.329l-0.241-0.065L2.732,18.575l0.975-3.64l0.483,0.129l-0.846,3.157l13.04,3.494
	l1.817-6.78l0.482,0.129L16.738,22.329z M20.292,9.065l-0.482-0.13l0.846-3.157L7.615,2.284L5.799,9.065l-0.483-0.13l1.946-7.263
	l14.007,3.753L20.292,9.065z"/>
<path style="fill:#333333;" d="M19,12.25h-1v-0.5h1V12.25z M15,12.25h-1v-0.5h1V12.25z M11,12.25h-1v-0.5h1V12.25z M7,12.25H6v-0.5
	h1V12.25z M3,12.25H2v-0.5h1V12.25z"/>
</svg>






