<?xml version="1.0" encoding="iso-8859-1"?>
<svg version="1.1" id="&#x56FE;&#x5C42;_1" xmlns="http://www.w3.org/2000/svg" xmlns:xlink="http://www.w3.org/1999/xlink" x="0px"
	 y="0px" viewBox="0 0 24 24" style="enable-background:new 0 0 24 24;" xml:space="preserve">
<rect x="2.75" y="4" style="fill:#333333;" width="0.5" height="16"/>
<rect x="11.75" y="4" style="fill:#333333;" width="0.5" height="16"/>
<rect x="3.5" y="11.75" style="fill:#333333;" width="8" height="0.5"/>
<path style="fill:#333333;" d="M18.25,16.25c-1.654,0-3-1.346-3-3s1.346-3,3-3s3,1.346,3,3S19.904,16.25,18.25,16.25z M18.25,10.75
	c-1.379,0-2.5,1.122-2.5,2.5c0,1.379,1.121,2.5,2.5,2.5s2.5-1.121,2.5-2.5C20.75,11.872,19.629,10.75,18.25,10.75z"/>
<path style="fill:#333333;" d="M18.25,20.25c-1.404,0-2.464-0.768-2.984-2.163l0.469-0.174c0.312,0.838,1.003,1.837,2.516,1.837
	c1.379,0,2.5-1.233,2.5-2.75v-3.5h0.5V17C21.25,18.792,19.904,20.25,18.25,20.25z"/>
</svg>






