<?xml version="1.0" encoding="iso-8859-1"?>
<svg version="1.1" id="&#x56FE;&#x5C42;_1" xmlns="http://www.w3.org/2000/svg" xmlns:xlink="http://www.w3.org/1999/xlink" x="0px"
	 y="0px" viewBox="0 0 24 24" style="enable-background:new 0 0 24 24;" xml:space="preserve">
<rect x="2.75" y="4" style="fill:#333333;" width="0.5" height="16"/>
<rect x="11.75" y="4" style="fill:#333333;" width="0.5" height="16"/>
<rect x="3.5" y="11.75" style="fill:#333333;" width="8" height="0.5"/>
<path style="fill:#333333;" d="M18,20.25c-1.409,0-2.25-0.84-2.25-2.246h0.5c0,0.652,0.228,1.746,1.75,1.746
	c1.619,0,2.25-0.841,2.25-3c0-2.659-0.936-3-1.75-3c-1.443,0-2.353,0.468-2.36,0.473l-0.122-0.206H15.75v-3.762H20v0.5h-3.75v2.875
	c0.587-0.224,1.566-0.38,2.25-0.38c2.25,0,2.25,2.635,2.25,3.5C20.75,18.48,20.423,20.25,18,20.25z"/>
</svg>






