<?xml version="1.0" encoding="iso-8859-1"?>
<svg version="1.1" id="&#x56FE;&#x5C42;_1" xmlns="http://www.w3.org/2000/svg" xmlns:xlink="http://www.w3.org/1999/xlink" x="0px"
	 y="0px" viewBox="0 0 24 24" style="enable-background:new 0 0 24 24;" xml:space="preserve">
<path style="fill:#333333;" d="M17.427,7.729L9.13,4.061C8.803,3.917,8.417,4.024,8.213,4.317L5.884,7.644L5.475,7.356L7.803,4.03
	c0.341-0.487,0.985-0.667,1.529-0.426l8.296,3.667L17.427,7.729z"/>
<path style="fill:#333333;" d="M21.5,20.75h-19c-0.414,0-0.75-0.337-0.75-0.75V8c0-0.414,0.336-0.75,0.75-0.75h19
	c0.413,0,0.75,0.336,0.75,0.75v12C22.25,20.413,21.913,20.75,21.5,20.75z M2.5,7.75C2.362,7.75,2.25,7.862,2.25,8v12
	c0,0.138,0.112,0.25,0.25,0.25h19c0.138,0,0.25-0.112,0.25-0.25V8c0-0.138-0.112-0.25-0.25-0.25H2.5z"/>
<polygon style="fill:#333333;" points="11.829,16.613 9.277,11.614 9.723,11.386 12.047,15.941 14.275,11.39 14.725,11.61 
	12.276,16.61 "/>
</svg>






