<?xml version="1.0" encoding="iso-8859-1"?>
<svg version="1.1" id="&#x56FE;&#x5C42;_1" xmlns="http://www.w3.org/2000/svg" xmlns:xlink="http://www.w3.org/1999/xlink" x="0px"
	 y="0px" viewBox="0 0 24 24" style="enable-background:new 0 0 24 24;" xml:space="preserve">
<rect x="3" y="21.75" style="fill:#333333;" width="18" height="0.5"/>
<rect x="8.5" y="9.75" style="fill:#333333;" width="7" height="0.5"/>
<path style="fill:#333333;" d="M16.283,22.25H7.717l1.562-12.5h5.441L16.283,22.25z M8.283,21.75h7.434l-1.438-11.5H9.721
	L8.283,21.75z"/>
<polygon style="fill:#333333;" points="13.709,10.25 10.292,10.25 9.254,4.545 9.746,4.455 10.708,9.75 13.291,9.75 14.254,4.455 
	14.746,4.545 "/>
<polygon style="fill:#333333;" points="15.823,6.177 12,2.354 8.177,6.177 7.823,5.823 12,1.646 16.177,5.823 "/>
<rect x="18.189" y="2.5" transform="matrix(0.7071 -0.7071 0.7071 0.7071 3.6937 14.4173)" style="fill:#333333;" width="2.121" height="0.5"/>
<rect x="4.5" y="1.689" transform="matrix(0.7071 -0.7071 0.7071 0.7071 -0.5533 4.1642)" style="fill:#333333;" width="0.5" height="2.121"/>
<rect x="19" y="9.189" transform="matrix(0.7071 -0.7071 0.7071 0.7071 -1.6097 16.614)" style="fill:#333333;" width="0.5" height="2.121"/>
<rect x="3.689" y="10" transform="matrix(0.7071 -0.7071 0.7071 0.7071 -5.8566 6.3609)" style="fill:#333333;" width="2.121" height="0.5"/>
<rect x="19" y="6.25" style="fill:#333333;" width="2" height="0.5"/>
<rect x="3" y="6.25" style="fill:#333333;" width="2" height="0.5"/>
<rect x="9" y="13.75" style="fill:#333333;" width="6" height="0.5"/>
<rect x="8.5" y="17.75" style="fill:#333333;" width="7" height="0.5"/>
<rect x="15" y="9.953" transform="matrix(0.9923 -0.124 0.124 0.9923 -1.8668 2.0151)" style="fill:#333333;" width="0.5" height="12.093"/>
<rect x="2.703" y="15.75" transform="matrix(0.125 -0.9922 0.9922 0.125 -8.2182 22.6814)" style="fill:#333333;" width="12.093" height="0.5"/>
</svg>






