<?xml version="1.0" encoding="iso-8859-1"?>
<svg version="1.1" id="&#x56FE;&#x5C42;_1" xmlns="http://www.w3.org/2000/svg" xmlns:xlink="http://www.w3.org/1999/xlink" x="0px"
	 y="0px" viewBox="0 0 24 24" style="enable-background:new 0 0 24 24;" xml:space="preserve">
<path style="fill:#333333;" d="M18,16.75v-0.5c1.128,0,3.75-0.365,3.75-3.75c0-3.972-4.104-4.482-4.278-4.501l-0.166-0.019
	L17.26,7.819C16.879,6.486,15.689,4.25,12,4.25c-3.547,0-4.649,2.183-5.26,4.319L6.688,8.75H6.5c-0.898,0-4.25,0.679-4.25,4
	c0,3.248,2.87,3.5,3.75,3.5v0.5c-2.055,0-4.25-1.051-4.25-4c0-3.53,3.344-4.406,4.56-4.493C6.739,6.777,7.771,3.75,12,3.75
	c3.995,0,5.296,2.527,5.693,3.777c0.839,0.148,4.557,1.029,4.557,4.973C22.25,15.161,20.661,16.75,18,16.75z"/>
<rect x="8.464" y="16.25" transform="matrix(0.7071 -0.7071 0.7071 0.7071 -8.1525 13.318)" style="fill:#333333;" width="7.071" height="0.5"/>
<rect x="11.75" y="12.964" transform="matrix(0.7071 -0.7071 0.7071 0.7071 -8.1525 13.318)" style="fill:#333333;" width="0.5" height="7.071"/>
</svg>






