<?xml version="1.0" encoding="iso-8859-1"?>
<svg version="1.1" id="&#x56FE;&#x5C42;_1" xmlns="http://www.w3.org/2000/svg" xmlns:xlink="http://www.w3.org/1999/xlink" x="0px"
	 y="0px" viewBox="0 0 24 24" style="enable-background:new 0 0 24 24;" xml:space="preserve">
<path style="fill:#333333;" d="M8.111,20.137c-1.216,0-2.433-0.463-3.358-1.389c-1.852-1.853-1.852-4.865,0-6.718l7.424-7.424
	l0.354,0.354l-7.424,7.424c-1.657,1.657-1.657,4.354,0,6.011c1.658,1.657,4.354,1.655,6.01,0l8.839-8.839
	c0.52-0.52,0.806-1.21,0.806-1.945c0-0.734-0.286-1.425-0.806-1.944c-1.073-1.073-2.817-1.071-3.89,0l-8.838,8.838
	c-0.488,0.487-0.488,1.281,0,1.769c0.474,0.474,1.296,0.473,1.768,0l7.425-7.425l0.354,0.354l-7.425,7.425
	c-0.66,0.662-1.813,0.663-2.475,0c-0.683-0.683-0.683-1.793,0-2.476l8.838-8.838c1.267-1.266,3.328-1.268,4.597,0
	c0.614,0.614,0.952,1.43,0.952,2.298c0,0.869-0.338,1.685-0.952,2.298l-8.839,8.839C10.544,19.674,9.328,20.137,8.111,20.137z"/>
</svg>






