<?xml version="1.0" encoding="iso-8859-1"?>
<svg version="1.1" id="&#x56FE;&#x5C42;_1" xmlns="http://www.w3.org/2000/svg" xmlns:xlink="http://www.w3.org/1999/xlink" x="0px"
	 y="0px" viewBox="0 0 24 24" style="enable-background:new 0 0 24 24;" xml:space="preserve">
<path style="fill:#333333;" d="M18,17.75h-8c-2.343,0-4.25-1.906-4.25-4.25c0-2.343,1.907-4.25,4.25-4.25h5v0.5h-5
	c-2.068,0-3.75,1.682-3.75,3.75c0,2.067,1.682,3.75,3.75,3.75h8c2.067,0,3.75-1.683,3.75-3.75c0-0.914-0.333-1.795-0.938-2.48
	l0.375-0.331c0.686,0.777,1.062,1.775,1.062,2.812C22.25,15.844,20.344,17.75,18,17.75z"/>
<path style="fill:#333333;" d="M14,13.75H9v-0.5h5c2.067,0,3.75-1.682,3.75-3.75S16.067,5.75,14,5.75H6
	c-2.068,0-3.75,1.682-3.75,3.75c0,0.915,0.333,1.796,0.938,2.48l-0.375,0.332C2.127,11.536,1.75,10.537,1.75,9.5
	c0-2.343,1.907-4.25,4.25-4.25h8c2.344,0,4.25,1.907,4.25,4.25S16.344,13.75,14,13.75z"/>
</svg>






