<?xml version="1.0" encoding="iso-8859-1"?>
<svg version="1.1" id="&#x56FE;&#x5C42;_1" xmlns="http://www.w3.org/2000/svg" xmlns:xlink="http://www.w3.org/1999/xlink" x="0px"
	 y="0px" viewBox="0 0 24 24" style="enable-background:new 0 0 24 24;" xml:space="preserve">
<polygon style="fill:#333333;" points="16.25,6 15.75,6 15.75,2.25 8.25,2.25 8.25,6 7.75,6 7.75,1.75 16.25,1.75 "/>
<polygon style="fill:#333333;" points="16.25,22.25 7.75,22.25 7.75,18 8.25,18 8.25,21.75 15.75,21.75 15.75,18 16.25,18 "/>
<rect x="2" y="11.75" style="fill:#333333;" width="7" height="0.5"/>
<rect x="15" y="11.75" style="fill:#333333;" width="7" height="0.5"/>
<rect x="11.75" y="7" style="fill:#333333;" width="0.5" height="10"/>
<polygon style="fill:#333333;" points="6.677,14.677 6.323,14.323 8.646,12 6.323,9.677 6.677,9.323 9.354,12 "/>
<polygon style="fill:#333333;" points="17.323,14.677 14.646,12 17.323,9.323 17.677,9.677 15.354,12 17.677,14.323 "/>
</svg>






