<?xml version="1.0" encoding="iso-8859-1"?>
<svg version="1.1" id="&#x56FE;&#x5C42;_1" xmlns="http://www.w3.org/2000/svg" xmlns:xlink="http://www.w3.org/1999/xlink" x="0px"
	 y="0px" viewBox="0 0 24 24" style="enable-background:new 0 0 24 24;" xml:space="preserve">
<path style="fill:#333333;" d="M21,16.75h-5v-0.5h5c0.413,0,0.75-0.337,0.75-0.75v-7c0-0.414-0.337-0.75-0.75-0.75h-5v-0.5h5
	c0.689,0,1.25,0.561,1.25,1.25v7C22.25,16.189,21.689,16.75,21,16.75z"/>
<path style="fill:#333333;" d="M8.5,16.75H3c-0.689,0-1.25-0.561-1.25-1.25v-7c0-0.689,0.561-1.25,1.25-1.25h5.5v0.5H3
	c-0.414,0-0.75,0.336-0.75,0.75v7c0,0.413,0.336,0.75,0.75,0.75h5.5V16.75z"/>
<rect x="11.75" y="3" style="fill:#333333;" width="0.5" height="18"/>
<rect x="6" y="11.75" style="fill:#333333;" width="2" height="0.5"/>
<rect x="16" y="11.75" style="fill:#333333;" width="2" height="0.5"/>
</svg>






