<?xml version="1.0" encoding="iso-8859-1"?>
<svg version="1.1" id="&#x56FE;&#x5C42;_1" xmlns="http://www.w3.org/2000/svg" xmlns:xlink="http://www.w3.org/1999/xlink" x="0px"
	 y="0px" viewBox="0 0 24 24" style="enable-background:new 0 0 24 24;" xml:space="preserve">
<path style="fill:#333333;" d="M10.195,22.25H5.805l-0.047-0.189c-0.01-0.04-1.01-4.075-1.506-9.036C3.756,8.07,3.75,6.02,3.75,6
	V5.75h8.5V6c0,0.02-0.006,2.07-0.501,7.024c-0.496,4.961-1.496,8.996-1.506,9.036L10.195,22.25z M6.197,21.75h3.606
	c0.201-0.851,1.017-4.458,1.448-8.774c0.396-3.959,0.478-6.048,0.494-6.726H4.254c0.017,0.677,0.099,2.766,0.494,6.726
	C5.18,17.292,5.996,20.899,6.197,21.75z"/>
<path style="fill:#333333;" d="M19.375,22.25h-3.75l-0.075-0.1c-0.031-0.043-0.78-1.051-1.287-2.571
	C13.756,18.058,13.75,17.043,13.75,17v-0.25h7.5V17c0,0.043-0.006,1.058-0.513,2.579c-0.507,1.521-1.256,2.528-1.287,2.571
	L19.375,22.25z M15.88,21.75h3.24c0.195-0.284,0.751-1.153,1.143-2.329c0.337-1.011,0.441-1.793,0.473-2.171h-6.471
	c0.031,0.378,0.136,1.16,0.473,2.171C15.129,20.597,15.685,21.466,15.88,21.75z"/>
<rect x="17.25" y="6.5" style="fill:#333333;" width="0.5" height="10.5"/>
<path style="fill:#333333;" d="M18.681,6.75h-2.361l-1.166-3.5h4.693L18.681,6.75z M16.681,6.25h1.639l0.834-2.5h-3.307L16.681,6.25
	z"/>
<path style="fill:#333333;" d="M10.75,6.25h-5.5v-3.5h5.5V6.25z M5.75,5.75h4.5v-2.5h-4.5V5.75z"/>
</svg>






