<?xml version="1.0" encoding="iso-8859-1"?>
<svg version="1.1" id="&#x56FE;&#x5C42;_1" xmlns="http://www.w3.org/2000/svg" xmlns:xlink="http://www.w3.org/1999/xlink" x="0px"
	 y="0px" viewBox="0 0 24 24" style="enable-background:new 0 0 24 24;" xml:space="preserve">
<path style="fill:#333333;" d="M16.889,10.086l-2.475-2.475l5.304-5.304l0.884,0.884c0.877,0.877,0.877,2.304,0,3.182L16.889,10.086
	z M15.121,7.611l1.768,1.768l3.359-3.359c0.682-0.682,0.682-1.792,0-2.475l-0.53-0.531L15.121,7.611z"/>
<path style="fill:#333333;" d="M11.939,16.449L8.05,12.561l6.01-6.01l3.889,3.889L11.939,16.449z M8.757,12.561l3.182,3.182
	l5.303-5.303l-3.182-3.182L8.757,12.561z"/>
<path style="fill:#333333;" d="M7.697,22.106l-5.303-5.303L7.697,11.5L13,16.804L7.697,22.106z M3.101,16.804l4.596,4.596
	l4.596-4.596l-4.596-4.597L3.101,16.804z"/>
</svg>






