<?xml version="1.0" encoding="iso-8859-1"?>
<svg version="1.1" id="&#x56FE;&#x5C42;_1" xmlns="http://www.w3.org/2000/svg" xmlns:xlink="http://www.w3.org/1999/xlink" x="0px"
	 y="0px" viewBox="0 0 24 24" style="enable-background:new 0 0 24 24;" xml:space="preserve">
<path style="fill:#333333;" d="M11.5,15.882L3.517,6.664L3.706,6.25h15.588l0.189,0.414L11.5,15.882z M4.253,6.75l7.247,8.368
	l7.248-8.368H4.253z"/>
<rect x="11.25" y="16" style="fill:#333333;" width="0.5" height="5"/>
<rect x="8.5" y="21.75" style="fill:#333333;" width="6" height="0.5"/>
<rect x="8" y="11.25" style="fill:#333333;" width="7" height="0.5"/>
<path style="fill:#333333;" d="M19,9.25h-1.5v-0.5H19c1.517,0,2.75-1.233,2.75-2.75S20.517,3.25,19,3.25S16.25,4.483,16.25,6
	c0,0.157,0.014,0.311,0.038,0.46l-0.494,0.08C15.765,6.359,15.75,6.177,15.75,6c0-1.792,1.458-3.25,3.25-3.25S22.25,4.208,22.25,6
	S20.792,9.25,19,9.25z"/>
<rect x="7.383" y="7.776" transform="matrix(0.756 -0.6546 0.6546 0.756 -5.3614 7.6904)" style="fill:#333333;" width="0.5" height="6.519"/>
<rect x="11.946" y="10.859" transform="matrix(0.6546 -0.7559 0.7559 0.6546 -3.1129 15.4048)" style="fill:#333333;" width="6.713" height="0.501"/>
</svg>






