<?xml version="1.0" encoding="iso-8859-1"?>
<svg version="1.1" id="&#x56FE;&#x5C42;_1" xmlns="http://www.w3.org/2000/svg" xmlns:xlink="http://www.w3.org/1999/xlink" x="0px"
	 y="0px" viewBox="0 0 24 24" style="enable-background:new 0 0 24 24;" xml:space="preserve">
<rect x="10" y="4.75" style="fill:#333333;" width="12" height="0.5"/>
<rect x="10" y="11.75" style="fill:#333333;" width="12" height="0.5"/>
<rect x="10" y="18.75" style="fill:#333333;" width="12" height="0.5"/>
<path style="fill:#333333;" d="M4,14.25c-1.241,0-2.25-1.01-2.25-2.25c0-1.241,1.009-2.25,2.25-2.25S6.25,10.759,6.25,12
	C6.25,13.24,5.241,14.25,4,14.25z M4,10.25c-0.965,0-1.75,0.785-1.75,1.75S3.035,13.75,4,13.75S5.75,12.965,5.75,12
	S4.965,10.25,4,10.25z"/>
<path style="fill:#333333;" d="M4,21.25c-1.241,0-2.25-1.01-2.25-2.25S2.759,16.75,4,16.75S6.25,17.76,6.25,19S5.241,21.25,4,21.25z
	 M4,17.25c-0.965,0-1.75,0.785-1.75,1.75S3.035,20.75,4,20.75S5.75,19.965,5.75,19S4.965,17.25,4,17.25z"/>
<polygon style="fill:#333333;" points="3.5,6.854 1.823,5.177 2.177,4.823 3.5,6.146 6.323,3.323 6.677,3.677 "/>
</svg>






