<?xml version="1.0" encoding="iso-8859-1"?>
<svg version="1.1" id="&#x56FE;&#x5C42;_1" xmlns="http://www.w3.org/2000/svg" xmlns:xlink="http://www.w3.org/1999/xlink" x="0px"
	 y="0px" viewBox="0 0 24 24" style="enable-background:new 0 0 24 24;" xml:space="preserve">
<path style="fill:#333333;" d="M4,21.25c-1.241,0-2.25-1.01-2.25-2.25S2.759,16.75,4,16.75S6.25,17.76,6.25,19S5.241,21.25,4,21.25z
	 M4,17.25c-0.965,0-1.75,0.785-1.75,1.75S3.035,20.75,4,20.75S5.75,19.965,5.75,19S4.965,17.25,4,17.25z"/>
<path style="fill:#333333;" d="M4,6.25C3.311,6.25,2.75,5.689,2.75,5S3.311,3.75,4,3.75S5.25,4.311,5.25,5S4.689,6.25,4,6.25z
	 M4,4.25C3.586,4.25,3.25,4.586,3.25,5S3.586,5.75,4,5.75S4.75,5.414,4.75,5S4.414,4.25,4,4.25z"/>
<path style="fill:#333333;" d="M4,13.25c-0.689,0-1.25-0.561-1.25-1.25S3.311,10.75,4,10.75S5.25,11.311,5.25,12
	S4.689,13.25,4,13.25z M4,11.25c-0.414,0-0.75,0.336-0.75,0.75c0,0.413,0.336,0.75,0.75,0.75S4.75,12.413,4.75,12
	C4.75,11.586,4.414,11.25,4,11.25z"/>
<rect x="10" y="11.75" style="fill:#333333;" width="12" height="0.5"/>
<rect x="10" y="18.75" style="fill:#333333;" width="12" height="0.5"/>
<rect x="10" y="4.75" style="fill:#333333;" width="12" height="0.5"/>
</svg>






