<?xml version="1.0" encoding="iso-8859-1"?>
<svg version="1.1" id="&#x56FE;&#x5C42;_1" xmlns="http://www.w3.org/2000/svg" xmlns:xlink="http://www.w3.org/1999/xlink" x="0px"
	 y="0px" viewBox="0 0 24 24" style="enable-background:new 0 0 24 24;" xml:space="preserve">
<path style="fill:#333333;" d="M4.5,21.25c-1.241,0-2.25-1.01-2.25-2.25s1.009-2.25,2.25-2.25S6.75,17.76,6.75,19
	S5.741,21.25,4.5,21.25z M4.5,17.25c-0.965,0-1.75,0.785-1.75,1.75s0.785,1.75,1.75,1.75S6.25,19.965,6.25,19S5.465,17.25,4.5,17.25
	z"/>
<path style="fill:#333333;" d="M4.5,7.25C3.259,7.25,2.25,6.241,2.25,5S3.259,2.75,4.5,2.75S6.75,3.759,6.75,5S5.741,7.25,4.5,7.25z
	 M4.5,3.25C3.535,3.25,2.75,4.035,2.75,5S3.535,6.75,4.5,6.75S6.25,5.965,6.25,5S5.465,3.25,4.5,3.25z"/>
<path style="fill:#333333;" d="M4.5,14.25c-1.241,0-2.25-1.01-2.25-2.25c0-1.241,1.009-2.25,2.25-2.25S6.75,10.759,6.75,12
	C6.75,13.24,5.741,14.25,4.5,14.25z M4.5,10.25c-0.965,0-1.75,0.785-1.75,1.75s0.785,1.75,1.75,1.75S6.25,12.965,6.25,12
	S5.465,10.25,4.5,10.25z"/>
<rect x="10.5" y="11.75" style="fill:#333333;" width="11" height="0.5"/>
<rect x="10.5" y="18.75" style="fill:#333333;" width="11" height="0.5"/>
<rect x="10.5" y="4.75" style="fill:#333333;" width="11" height="0.5"/>
</svg>






