<?xml version="1.0" encoding="iso-8859-1"?>
<svg version="1.1" id="&#x56FE;&#x5C42;_1" xmlns="http://www.w3.org/2000/svg" xmlns:xlink="http://www.w3.org/1999/xlink" x="0px"
	 y="0px" viewBox="0 0 24 24" style="enable-background:new 0 0 24 24;" xml:space="preserve">
<path style="fill:none;" d="M10,12h12H10z"/>
<rect x="10" y="11.75" style="fill:#333333;" width="12" height="0.5"/>
<path style="fill:none;" d="M10,19h12H10z"/>
<rect x="10" y="18.75" style="fill:#333333;" width="12" height="0.5"/>
<path style="fill:none;" d="M10,5h12H10z"/>
<rect x="10" y="4.75" style="fill:#333333;" width="12" height="0.5"/>
<path style="fill:#333333;" d="M6.25,21.25h-4.5v-4.5h4.5V21.25z M2.25,20.75h3.5v-3.5h-3.5V20.75z"/>
<path style="fill:#333333;" d="M6.25,14.25h-4.5v-4.5h4.5V14.25z M2.25,13.75h3.5v-3.5h-3.5V13.75z"/>
<path style="fill:#333333;" d="M6.25,7.25h-4.5v-4.5h4.5V7.25z M2.25,6.75h3.5v-3.5h-3.5V6.75z"/>
</svg>






