<?xml version="1.0" encoding="iso-8859-1"?>
<svg version="1.1" id="&#x56FE;&#x5C42;_1" xmlns="http://www.w3.org/2000/svg" xmlns:xlink="http://www.w3.org/1999/xlink" x="0px"
	 y="0px" viewBox="0 0 24 24" style="enable-background:new 0 0 24 24;" xml:space="preserve">
<rect x="10" y="4.25" style="fill:#333333;" width="11" height="0.5"/>
<rect x="10" y="9.25" style="fill:#333333;" width="11" height="0.5"/>
<rect x="10" y="14.25" style="fill:#333333;" width="11" height="0.5"/>
<rect x="10" y="19.25" style="fill:#333333;" width="11" height="0.5"/>
<polygon style="fill:#333333;" points="6,19.75 2.75,19.75 2.75,18.896 5.75,15.896 5.75,14.75 3,14.75 3,14.25 6.25,14.25 
	6.25,16.104 3.25,19.104 3.25,19.25 6,19.25 "/>
<polygon style="fill:#333333;" points="5.5,9.75 3.5,9.75 3.5,9.25 4.25,9.25 4.25,5.104 3.677,5.677 3.323,5.323 4.323,4.323 
	4.75,4.5 4.75,9.25 5.5,9.25 "/>
</svg>






