<?xml version="1.0" encoding="iso-8859-1"?>
<svg version="1.1" id="&#x56FE;&#x5C42;_1" xmlns="http://www.w3.org/2000/svg" xmlns:xlink="http://www.w3.org/1999/xlink" x="0px"
	 y="0px" viewBox="0 0 24 24" style="enable-background:new 0 0 24 24;" xml:space="preserve">
<path style="fill:#333333;" d="M20.5,21.25h-17c-0.965,0-1.75-0.785-1.75-1.75v-15c0-0.965,0.785-1.75,1.75-1.75h17
	c0.965,0,1.75,0.785,1.75,1.75v15C22.25,20.465,21.465,21.25,20.5,21.25z M3.5,3.25c-0.689,0-1.25,0.561-1.25,1.25v15
	c0,0.689,0.561,1.25,1.25,1.25h17c0.689,0,1.25-0.561,1.25-1.25v-15c0-0.689-0.561-1.25-1.25-1.25H3.5z"/>
<rect x="2" y="6.75" style="fill:#333333;" width="20" height="0.5"/>
<rect x="10" y="11.75" style="fill:#333333;" width="8" height="0.5"/>
<rect x="10" y="15.75" style="fill:#333333;" width="8" height="0.5"/>
<rect x="6" y="11.75" style="fill:#333333;" width="1" height="0.5"/>
<rect x="6" y="15.75" style="fill:#333333;" width="1" height="0.5"/>
</svg>






