<?xml version="1.0" encoding="iso-8859-1"?>
<svg version="1.1" id="&#x56FE;&#x5C42;_1" xmlns="http://www.w3.org/2000/svg" xmlns:xlink="http://www.w3.org/1999/xlink" x="0px"
	 y="0px" viewBox="0 0 24 24" style="enable-background:new 0 0 24 24;" xml:space="preserve">
<path style="fill:#333333;" d="M4,7.25C2.759,7.25,1.75,6.241,1.75,5S2.759,2.75,4,2.75S6.25,3.759,6.25,5S5.241,7.25,4,7.25z
	 M4,3.25C3.035,3.25,2.25,4.035,2.25,5S3.035,6.75,4,6.75S5.75,5.965,5.75,5S4.965,3.25,4,3.25z"/>
<path style="fill:#333333;" d="M4,13.25c-0.689,0-1.25-0.561-1.25-1.25S3.311,10.75,4,10.75S5.25,11.311,5.25,12
	S4.689,13.25,4,13.25z M4,11.25c-0.414,0-0.75,0.336-0.75,0.75c0,0.413,0.336,0.75,0.75,0.75S4.75,12.413,4.75,12
	C4.75,11.586,4.414,11.25,4,11.25z"/>
<path style="fill:#333333;" d="M4,20.25c-0.689,0-1.25-0.561-1.25-1.25S3.311,17.75,4,17.75S5.25,18.311,5.25,19
	S4.689,20.25,4,20.25z M4,18.25c-0.414,0-0.75,0.337-0.75,0.75S3.586,19.75,4,19.75S4.75,19.413,4.75,19S4.414,18.25,4,18.25z"/>
<rect x="10" y="11.75" style="fill:#333333;" width="12" height="0.5"/>
<rect x="10" y="18.75" style="fill:#333333;" width="12" height="0.5"/>
<rect x="10" y="4.75" style="fill:#333333;" width="12" height="0.5"/>
</svg>






