<?xml version="1.0" encoding="iso-8859-1"?>
<svg version="1.1" id="&#x56FE;&#x5C42;_1" xmlns="http://www.w3.org/2000/svg" xmlns:xlink="http://www.w3.org/1999/xlink" x="0px"
	 y="0px" viewBox="0 0 24 24" style="enable-background:new 0 0 24 24;" xml:space="preserve">
<rect x="10" y="4.25" style="fill:#333333;" width="11" height="0.5"/>
<rect x="10" y="9.25" style="fill:#333333;" width="11" height="0.5"/>
<rect x="10" y="14.25" style="fill:#333333;" width="11" height="0.5"/>
<rect x="10" y="19.25" style="fill:#333333;" width="11" height="0.5"/>
<polygon style="fill:#333333;" points="6,19.75 3,19.75 2.786,19.371 5.559,14.75 3,14.75 3,14.25 6,14.25 6.214,14.629 
	3.441,19.25 6,19.25 "/>
<path style="fill:none;" d="M5.5,4.5l-2,0L3.15,8h2.7L5.5,4.5z"/>
<path style="fill:#333333;" d="M5.751,9.525L5.624,8.25H3.376L3.249,9.525l-0.497-0.05l0.15-1.5L3.15,8L2.901,7.975L3.274,4.25
	h2.452l0.373,3.725L5.85,8l0.249-0.025l0.15,1.5L5.751,9.525z M3.426,7.75h2.147l-0.3-3H3.726L3.426,7.75z"/>
</svg>






