<?xml version="1.0" encoding="iso-8859-1"?>
<svg version="1.1" id="&#x56FE;&#x5C42;_1" xmlns="http://www.w3.org/2000/svg" xmlns:xlink="http://www.w3.org/1999/xlink" x="0px"
	 y="0px" viewBox="0 0 24 24" style="enable-background:new 0 0 24 24;" xml:space="preserve">
<path style="fill:#333333;" d="M17.25,6.25h-8.5v-3.5h8.5V6.25z M9.25,5.75h7.5v-2.5h-7.5V5.75z"/>
<path style="fill:#333333;" d="M19.25,13.75H8.75v-3.5h10.5V13.75z M9.25,13.25h9.5v-2.5h-9.5V13.25z"/>
<path style="fill:#333333;" d="M22.25,21.25H8.75v-3.5h13.5V21.25z M9.25,20.75h12.5v-2.5H9.25V20.75z"/>
<path style="fill:#333333;" d="M4,5.75c-0.689,0-1.25-0.561-1.25-1.25S3.311,3.25,4,3.25S5.25,3.811,5.25,4.5S4.689,5.75,4,5.75z
	 M4,3.75c-0.414,0-0.75,0.336-0.75,0.75S3.586,5.25,4,5.25S4.75,4.914,4.75,4.5S4.414,3.75,4,3.75z"/>
<path style="fill:#333333;" d="M4,13.25c-0.689,0-1.25-0.561-1.25-1.25S3.311,10.75,4,10.75S5.25,11.311,5.25,12
	S4.689,13.25,4,13.25z M4,11.25c-0.414,0-0.75,0.336-0.75,0.75c0,0.413,0.336,0.75,0.75,0.75S4.75,12.413,4.75,12
	C4.75,11.586,4.414,11.25,4,11.25z"/>
<path style="fill:#333333;" d="M4,20.75c-0.689,0-1.25-0.561-1.25-1.25S3.311,18.25,4,18.25s1.25,0.561,1.25,1.25
	S4.689,20.75,4,20.75z M4,18.75c-0.414,0-0.75,0.337-0.75,0.75S3.586,20.25,4,20.25s0.75-0.337,0.75-0.75S4.414,18.75,4,18.75z"/>
</svg>






