<?xml version="1.0" encoding="iso-8859-1"?>
<svg version="1.1" id="&#x56FE;&#x5C42;_1" xmlns="http://www.w3.org/2000/svg" xmlns:xlink="http://www.w3.org/1999/xlink" x="0px"
	 y="0px" viewBox="0 0 24 24" style="enable-background:new 0 0 24 24;" xml:space="preserve">
<path style="fill:#333333;" d="M4,14.25c-1.241,0-2.25-1.01-2.25-2.25c0-1.241,1.009-2.25,2.25-2.25S6.25,10.759,6.25,12
	C6.25,13.24,5.241,14.25,4,14.25z M4,10.25c-0.965,0-1.75,0.785-1.75,1.75S3.035,13.75,4,13.75S5.75,12.965,5.75,12
	S4.965,10.25,4,10.25z"/>
<path style="fill:#333333;" d="M4,6.25C3.311,6.25,2.75,5.689,2.75,5S3.311,3.75,4,3.75S5.25,4.311,5.25,5S4.689,6.25,4,6.25z
	 M4,4.25C3.586,4.25,3.25,4.586,3.25,5S3.586,5.75,4,5.75S4.75,5.414,4.75,5S4.414,4.25,4,4.25z"/>
<path style="fill:#333333;" d="M4,20.25c-0.689,0-1.25-0.561-1.25-1.25S3.311,17.75,4,17.75S5.25,18.311,5.25,19
	S4.689,20.25,4,20.25z M4,18.25c-0.414,0-0.75,0.337-0.75,0.75S3.586,19.75,4,19.75S4.75,19.413,4.75,19S4.414,18.25,4,18.25z"/>
<rect x="10" y="11.75" style="fill:#333333;" width="12" height="0.5"/>
<rect x="10" y="18.75" style="fill:#333333;" width="12" height="0.5"/>
<rect x="10" y="4.75" style="fill:#333333;" width="12" height="0.5"/>
</svg>






