<?xml version="1.0" encoding="iso-8859-1"?>
<svg version="1.1" id="&#x56FE;&#x5C42;_1" xmlns="http://www.w3.org/2000/svg" xmlns:xlink="http://www.w3.org/1999/xlink" x="0px"
	 y="0px" viewBox="0 0 24 24" style="enable-background:new 0 0 24 24;" xml:space="preserve">
<path style="fill:#333333;" d="M12,22.25C6.348,22.25,1.75,17.652,1.75,12C1.75,6.348,6.348,1.75,12,1.75
	c5.652,0,10.25,4.598,10.25,10.25C22.25,17.652,17.652,22.25,12,22.25z M12,2.25c-5.376,0-9.75,4.374-9.75,9.75
	s4.374,9.75,9.75,9.75s9.75-4.374,9.75-9.75S17.376,2.25,12,2.25z"/>
<rect x="11.75" y="6" style="fill:#333333;" width="0.5" height="1.5"/>
<rect x="14.962" y="8.038" transform="matrix(0.7071 -0.7071 0.7071 0.7071 -1.2583 13.5374)" style="fill:#333333;" width="1.5" height="0.5"/>
<rect x="16.5" y="11.75" style="fill:#333333;" width="1.5" height="0.5"/>
<rect x="15.462" y="14.962" transform="matrix(0.7071 -0.7071 0.7071 0.7071 -6.5081 15.7119)" style="fill:#333333;" width="0.5" height="1.5"/>
<rect x="11.75" y="16.5" style="fill:#333333;" width="0.5" height="1.5"/>
<rect x="7.538" y="15.462" transform="matrix(0.7071 -0.7071 0.7071 0.7071 -8.6826 10.4621)" style="fill:#333333;" width="1.5" height="0.5"/>
<rect x="6" y="11.75" style="fill:#333333;" width="1.5" height="0.5"/>
<rect x="8.038" y="7.538" transform="matrix(0.7071 -0.7071 0.7071 0.7071 -3.4328 8.2876)" style="fill:#333333;" width="0.5" height="1.5"/>
</svg>






