<?xml version="1.0" encoding="iso-8859-1"?>
<svg version="1.1" id="&#x56FE;&#x5C42;_1" xmlns="http://www.w3.org/2000/svg" xmlns:xlink="http://www.w3.org/1999/xlink" x="0px"
	 y="0px" viewBox="0 0 24 24" style="enable-background:new 0 0 24 24;" xml:space="preserve">
<path style="fill:#333333;" d="M12,22.25C6.348,22.25,1.75,17.652,1.75,12h0.5c0,5.376,4.374,9.75,9.75,9.75s9.75-4.374,9.75-9.75
	S17.376,2.25,12,2.25v-0.5c5.652,0,10.25,4.598,10.25,10.25C22.25,17.652,17.652,22.25,12,22.25z"/>
<path style="fill:#333333;" d="M12,18.25c-3.446,0-6.25-2.804-6.25-6.25S8.554,5.75,12,5.75s6.25,2.804,6.25,6.25h-0.5
	c0-3.17-2.579-5.75-5.75-5.75c-3.17,0-5.75,2.58-5.75,5.75c0,3.171,2.58,5.75,5.75,5.75V18.25z"/>
</svg>






