<?xml version="1.0" encoding="iso-8859-1"?>
<svg version="1.1" id="&#x56FE;&#x5C42;_1" xmlns="http://www.w3.org/2000/svg" xmlns:xlink="http://www.w3.org/1999/xlink" x="0px"
	 y="0px" viewBox="0 0 24 24" style="enable-background:new 0 0 24 24;" xml:space="preserve">
<rect x="11.75" y="2" style="fill:#333333;" width="0.5" height="4"/>
<rect x="15.656" y="6.093" transform="matrix(0.7071 -0.7071 0.7071 0.7071 0.6863 14.343)" style="fill:#333333;" width="4.001" height="0.5"/>
<rect x="18" y="11.75" style="fill:#333333;" width="4" height="0.5"/>
<rect x="17.407" y="15.656" transform="matrix(0.7071 -0.7071 0.7071 0.7071 -7.3137 17.6567)" style="fill:#333333;" width="0.5" height="4.001"/>
<rect x="11.75" y="18" style="fill:#333333;" width="0.5" height="4"/>
<rect x="4.343" y="17.407" transform="matrix(0.7071 -0.7071 0.7071 0.7071 -10.6274 9.6567)" style="fill:#333333;" width="4.001" height="0.5"/>
<rect x="2" y="11.75" style="fill:#333333;" width="4" height="0.5"/>
<rect x="6.093" y="4.343" transform="matrix(0.7071 -0.7071 0.7071 0.7071 -2.6274 6.343)" style="fill:#333333;" width="0.5" height="4"/>
<rect x="8.306" y="2.685" transform="matrix(0.9239 -0.3826 0.3826 0.9239 -0.7589 3.5539)" style="fill:#333333;" width="0.5" height="2"/>
<rect x="3.435" y="7.556" transform="matrix(0.3828 -0.9238 0.9238 0.3828 -5.6296 8.6848)" style="fill:#333333;" width="0.5" height="2"/>
<rect x="2.685" y="15.194" transform="matrix(0.9238 -0.3828 0.3828 0.9238 -5.6316 2.5871)" style="fill:#333333;" width="2" height="0.5"/>
<rect x="7.556" y="20.065" transform="matrix(0.3828 -0.9238 0.9238 0.3828 -13.4869 20.4423)" style="fill:#333333;" width="2.001" height="0.5"/>
<rect x="15.194" y="19.314" transform="matrix(0.9239 -0.3826 0.3826 0.9239 -6.5979 7.4556)" style="fill:#333333;" width="0.501" height="2.001"/>
<rect x="20.064" y="14.444" transform="matrix(0.3826 -0.9239 0.9239 0.3826 -1.7273 28.3037)" style="fill:#333333;" width="0.501" height="2.001"/>
<rect x="19.314" y="8.306" transform="matrix(0.9238 -0.3828 0.3828 0.9238 -1.7277 8.4285)" style="fill:#333333;" width="2.001" height="0.5"/>
<rect x="14.444" y="3.435" transform="matrix(0.3828 -0.9238 0.9238 0.3828 6.1277 16.5423)" style="fill:#333333;" width="2" height="0.5"/>
</svg>






