<?xml version="1.0" encoding="iso-8859-1"?>
<svg version="1.1" id="&#x56FE;&#x5C42;_1" xmlns="http://www.w3.org/2000/svg" xmlns:xlink="http://www.w3.org/1999/xlink" x="0px"
	 y="0px" viewBox="0 0 24 24" style="enable-background:new 0 0 24 24;" xml:space="preserve">
<path style="fill:#333333;" d="M12,21.75c-5.039,0-10.25-1.216-10.25-3.25c0-0.935,1.074-1.751,3.107-2.36L5,16.618
	c-1.722,0.517-2.75,1.221-2.75,1.882c0,1.301,4.004,2.75,9.75,2.75c5.746,0,9.75-1.449,9.75-2.75c0-0.661-1.028-1.365-2.751-1.882
	l0.145-0.479c2.032,0.609,3.106,1.426,3.106,2.36C22.25,20.534,17.038,21.75,12,21.75z"/>
<path style="fill:#333333;" d="M12,17.799l-0.137-0.09c-0.27-0.176-6.613-4.379-6.613-9.368C5.25,4.707,8.278,1.75,12,1.75
	c3.722,0,6.75,2.957,6.75,6.591c0,4.989-6.343,9.192-6.613,9.368L12,17.799z M12,2.25c-3.446,0-6.25,2.732-6.25,6.091
	c0,4.331,5.322,8.213,6.25,8.856c0.928-0.644,6.25-4.528,6.25-8.856C18.25,4.982,15.446,2.25,12,2.25z"/>
<path style="fill:#333333;" d="M12,11.25c-1.517,0-2.75-1.233-2.75-2.75S10.483,5.75,12,5.75s2.75,1.233,2.75,2.75
	S13.517,11.25,12,11.25z M12,6.25c-1.241,0-2.25,1.009-2.25,2.25s1.009,2.25,2.25,2.25c1.24,0,2.25-1.009,2.25-2.25
	S13.24,6.25,12,6.25z"/>
</svg>






