<?xml version="1.0" encoding="iso-8859-1"?>
<svg version="1.1" id="&#x56FE;&#x5C42;_1" xmlns="http://www.w3.org/2000/svg" xmlns:xlink="http://www.w3.org/1999/xlink" x="0px"
	 y="0px" viewBox="0 0 24 24" style="enable-background:new 0 0 24 24;" xml:space="preserve">
<path style="fill:#333333;" d="M19.5,17.25h-15c-0.965,0-1.75-0.785-1.75-1.75v-11c0-0.965,0.785-1.75,1.75-1.75H12v0.5H4.5
	c-0.689,0-1.25,0.561-1.25,1.25v11c0,0.689,0.561,1.25,1.25,1.25h15c0.689,0,1.25-0.561,1.25-1.25v-2h0.5v2
	C21.25,16.465,20.465,17.25,19.5,17.25z"/>
<rect x="11.75" y="17" style="fill:#333333;" width="0.5" height="4"/>
<path style="fill:#333333;" d="M19.5,10.25h-3c-0.965,0-1.75-0.785-1.75-1.75v-1c0-0.965,0.785-1.75,1.75-1.75h3
	c0.965,0,1.75,0.785,1.75,1.75v1C21.25,9.465,20.465,10.25,19.5,10.25z M16.5,6.25c-0.689,0-1.25,0.561-1.25,1.25v1
	c0,0.689,0.561,1.25,1.25,1.25h3c0.689,0,1.25-0.561,1.25-1.25v-1c0-0.689-0.561-1.25-1.25-1.25H16.5z"/>
<path style="fill:#333333;" d="M19.75,6.25h-3.5V4.5c0-0.965,0.785-1.75,1.75-1.75s1.75,0.785,1.75,1.75V6.25z M16.75,5.75h2.5V4.5
	c0-0.689-0.561-1.25-1.25-1.25s-1.25,0.561-1.25,1.25V5.75z"/>
<rect x="7" y="20.75" style="fill:#333333;" width="10" height="0.5"/>
</svg>






