<?xml version="1.0" encoding="iso-8859-1"?>
<svg version="1.1" id="&#x56FE;&#x5C42;_1" xmlns="http://www.w3.org/2000/svg" xmlns:xlink="http://www.w3.org/1999/xlink" x="0px"
	 y="0px" viewBox="0 0 24 24" style="enable-background:new 0 0 24 24;" xml:space="preserve">
<path style="fill:#333333;" d="M20.25,16.75H3.75V6c0-0.965,0.785-1.75,1.75-1.75H12v0.5H5.5C4.811,4.75,4.25,5.311,4.25,6v10.25
	h15.5V14h0.5V16.75z"/>
<path style="fill:#333333;" d="M19,20.75H5c-1.792,0-3.25-1.458-3.25-3.25v-1.25h20.5v1.25C22.25,19.292,20.792,20.75,19,20.75z
	 M2.25,16.75v0.75c0,1.517,1.233,2.75,2.75,2.75h14c1.517,0,2.75-1.233,2.75-2.75v-0.75H2.25z"/>
<path style="fill:#333333;" d="M19.5,10.75h-3c-0.965,0-1.75-0.785-1.75-1.75V8c0-0.965,0.785-1.75,1.75-1.75h3
	c0.965,0,1.75,0.785,1.75,1.75v1C21.25,9.965,20.465,10.75,19.5,10.75z M16.5,6.75c-0.689,0-1.25,0.561-1.25,1.25v1
	c0,0.689,0.561,1.25,1.25,1.25h3c0.689,0,1.25-0.561,1.25-1.25V8c0-0.689-0.561-1.25-1.25-1.25H16.5z"/>
<path style="fill:#333333;" d="M19.75,6.75h-3.5V5c0-0.965,0.785-1.75,1.75-1.75S19.75,4.035,19.75,5V6.75z M16.75,6.25h2.5V5
	c0-0.689-0.561-1.25-1.25-1.25S16.75,4.311,16.75,5V6.25z"/>
</svg>






