<?xml version="1.0" encoding="iso-8859-1"?>
<svg version="1.1" id="&#x56FE;&#x5C42;_1" xmlns="http://www.w3.org/2000/svg" xmlns:xlink="http://www.w3.org/1999/xlink" x="0px"
	 y="0px" viewBox="0 0 24 24" style="enable-background:new 0 0 24 24;" xml:space="preserve">
<path style="fill:#333333;" d="M22,13c0-0.552-0.448-1-1-1s-1,0.448-1,1H22z M12,4c0.552,0,1-0.448,1-1s-0.448-1-1-1V4z M19.5,20
	h-15v2h15V20z M4,19.5v-15H2v15H4z M20,13v6.5h2V13H20z M4.5,4H12V2H4.5V4z M4.5,20C4.224,20,4,19.776,4,19.5H2
	C2,20.881,3.119,22,4.5,22V20z M19.5,22c1.381,0,2.5-1.119,2.5-2.5h-2c0,0.276-0.224,0.5-0.5,0.5V22z M4,4.5C4,4.224,4.224,4,4.5,4
	V2C3.119,2,2,3.119,2,4.5H4z"/>
<path style="fill:#333333;" d="M15.837,18.189L9.51,12.767c-0.287-0.245-0.716-0.24-0.995,0.017l-5.347,4.901l-0.338-0.369
	l5.347-4.901c0.465-0.425,1.178-0.438,1.658-0.026l6.328,5.423L15.837,18.189z"/>
<path style="fill:#333333;" d="M20.85,15.7l-3.306-2.479c-0.296-0.224-0.717-0.193-0.98,0.069l-2.387,2.387l-0.354-0.354
	l2.387-2.387c0.437-0.438,1.138-0.487,1.635-0.116L21.15,15.3L20.85,15.7z"/>
<path style="fill:#333333;" d="M19.5,10.25h-3c-0.965,0-1.75-0.785-1.75-1.75v-1c0-0.965,0.785-1.75,1.75-1.75h3
	c0.965,0,1.75,0.785,1.75,1.75v1C21.25,9.465,20.465,10.25,19.5,10.25z M16.5,6.25c-0.689,0-1.25,0.561-1.25,1.25v1
	c0,0.689,0.561,1.25,1.25,1.25h3c0.689,0,1.25-0.561,1.25-1.25v-1c0-0.689-0.561-1.25-1.25-1.25H16.5z"/>
<path style="fill:none;" d="M18,3c0.828,0,1.5,0.672,1.5,1.5V6h-3V4.5C16.5,3.672,17.172,3,18,3z"/>
<path style="fill:#333333;" d="M19.5,6v1c0.552,0,1-0.448,1-1H19.5z M16.5,6h-1c0,0.552,0.448,1,1,1V6z M18.5,4.5V6h2V4.5H18.5z
	 M19.5,5h-3v2h3V5z M17.5,6V4.5h-2V6H17.5z M17.5,4.5C17.5,4.224,17.724,4,18,4V2c-1.381,0-2.5,1.119-2.5,2.5H17.5z M20.5,4.5
	C20.5,3.119,19.381,2,18,2v2c0.276,0,0.5,0.224,0.5,0.5H20.5z"/>
</svg>






