<?xml version="1.0" encoding="iso-8859-1"?>
<svg version="1.1" id="&#x56FE;&#x5C42;_1" xmlns="http://www.w3.org/2000/svg" xmlns:xlink="http://www.w3.org/1999/xlink" x="0px"
	 y="0px" viewBox="0 0 24 24" style="enable-background:new 0 0 24 24;" xml:space="preserve">
<path style="fill:#333333;" d="M12,20.25H3.5c-0.965,0-1.75-0.785-1.75-1.75v-13c0-0.965,0.785-1.75,1.75-1.75h17
	c0.965,0,1.75,0.785,1.75,1.75v6.029h-0.5V5.5c0-0.689-0.561-1.25-1.25-1.25h-17c-0.689,0-1.25,0.561-1.25,1.25v13
	c0,0.689,0.561,1.25,1.25,1.25H12V20.25z"/>
<path style="fill:#333333;" d="M22.25,10.25H1.75V5.5c0-0.965,0.785-1.75,1.75-1.75h17c0.965,0,1.75,0.785,1.75,1.75V10.25z
	 M2.25,9.75h19.5V5.5c0-0.689-0.561-1.25-1.25-1.25h-17c-0.689,0-1.25,0.561-1.25,1.25V9.75z"/>
<path style="fill:#333333;" d="M20.5,20.75h-3c-0.965,0-1.75-0.785-1.75-1.75v-1c0-0.965,0.785-1.75,1.75-1.75h3
	c0.965,0,1.75,0.785,1.75,1.75v1C22.25,19.965,21.465,20.75,20.5,20.75z M17.5,16.75c-0.689,0-1.25,0.561-1.25,1.25v1
	c0,0.689,0.561,1.25,1.25,1.25h3c0.689,0,1.25-0.561,1.25-1.25v-1c0-0.689-0.561-1.25-1.25-1.25H17.5z"/>
<path style="fill:#333333;" d="M20.75,16.75h-3.5V15c0-0.965,0.785-1.75,1.75-1.75s1.75,0.785,1.75,1.75V16.75z M17.75,16.25h2.5V15
	c0-0.689-0.561-1.25-1.25-1.25s-1.25,0.561-1.25,1.25V16.25z"/>
<circle style="fill:#333333;" cx="5" cy="7" r="1"/>
<circle style="fill:#333333;" cx="8" cy="7" r="1"/>
</svg>






