<?xml version="1.0" encoding="iso-8859-1"?>
<svg version="1.1" id="&#x56FE;&#x5C42;_1" xmlns="http://www.w3.org/2000/svg" xmlns:xlink="http://www.w3.org/1999/xlink" x="0px"
	 y="0px" viewBox="0 0 24 24" style="enable-background:new 0 0 24 24;" xml:space="preserve">
<path style="fill:#333333;" d="M20,22.25H4c-0.689,0-1.25-0.561-1.25-1.25v-9c0-0.689,0.561-1.25,1.25-1.25h16
	c0.689,0,1.25,0.561,1.25,1.25v9C21.25,21.689,20.689,22.25,20,22.25z M4,11.25c-0.414,0-0.75,0.336-0.75,0.75v9
	c0,0.413,0.336,0.75,0.75,0.75h16c0.413,0,0.75-0.337,0.75-0.75v-9c0-0.414-0.337-0.75-0.75-0.75H4z"/>
<path style="fill:#333333;" d="M17.25,11h-0.5V7c0-2.619-2.131-4.75-4.75-4.75S7.25,4.381,7.25,7v4h-0.5V7
	c0-2.895,2.355-5.25,5.25-5.25c2.895,0,5.25,2.355,5.25,5.25V11z"/>
<rect x="11.75" y="15" style="fill:#333333;" width="0.5" height="3"/>
</svg>






