<?xml version="1.0" encoding="iso-8859-1"?>
<svg version="1.1" id="&#x56FE;&#x5C42;_1" xmlns="http://www.w3.org/2000/svg" xmlns:xlink="http://www.w3.org/1999/xlink" x="0px"
	 y="0px" viewBox="0 0 24 24" style="enable-background:new 0 0 24 24;" xml:space="preserve">
<path style="fill:#333333;" d="M15.75,22.25h-7.5v-4h7.5V22.25z M8.75,21.75h6.5v-3h-6.5V21.75z"/>
<path style="fill:#333333;" d="M15.665,18.75h-7.33L8.27,18.599c-0.015-0.035-1.52-3.586-2.019-8.071C5.756,6.065,5.75,2.04,5.75,2
	V1.75h12.5V2c0,0.04-0.006,4.065-0.502,8.528c-0.498,4.485-2.003,8.036-2.019,8.071L15.665,18.75z M8.668,18.25h6.664
	c0.287-0.717,1.487-3.889,1.92-7.778c0.422-3.8,0.486-7.279,0.496-8.222H6.252c0.01,0.943,0.074,4.423,0.497,8.222
	C7.181,14.361,8.381,17.533,8.668,18.25z"/>
<path style="fill:#333333;" d="M11.887,14.25c-0.753,0-1.494-0.513-1.887-1.305c-0.375-0.756-0.329-1.561,0.122-2.152
	c0.702-0.922,1.243-2.203,1.534-2.891l0.431-0.051c0.534,0.722,1.675,2.5,2.045,3.475c0.226,0.592,0.123,1.267-0.282,1.854
	C13.396,13.84,12.644,14.25,11.887,14.25z M11.942,8.509c-0.32,0.737-0.808,1.781-1.422,2.587l0,0
	c-0.333,0.438-0.359,1.046-0.071,1.627c0.304,0.614,0.882,1.027,1.438,1.027c0.594,0,1.189-0.327,1.552-0.854
	c0.31-0.449,0.393-0.957,0.227-1.392C13.367,10.718,12.502,9.324,11.942,8.509z"/>
<rect x="6.5" y="4.75" style="fill:#333333;" width="11" height="0.5"/>
</svg>






