<?xml version="1.0" encoding="iso-8859-1"?>
<svg version="1.1" id="&#x56FE;&#x5C42;_1" xmlns="http://www.w3.org/2000/svg" xmlns:xlink="http://www.w3.org/1999/xlink" x="0px"
	 y="0px" viewBox="0 0 24 24" style="enable-background:new 0 0 24 24;" xml:space="preserve">
<path style="fill:#333333;" d="M12,21.75c-5.376,0-9.75-4.149-9.75-9.25v-0.25h12.354L16,13.646l1.396-1.396h4.354v0.25
	C21.75,17.601,17.376,21.75,12,21.75z M2.754,12.75c0.14,4.71,4.234,8.5,9.246,8.5c5.012,0,9.105-3.79,9.246-8.5h-3.643L16,14.354
	l-1.604-1.604H2.754z"/>
<path style="fill:#333333;" d="M20.72,12.537l-0.494-0.074c0.037-0.246,0.024-0.503,0.011-0.775
	c-0.007-0.145-0.014-0.291-0.014-0.438c0-4.528-3.726-8.5-7.974-8.5c-1.863,0-3.938,0.627-5.246,1.574
	C7.176,4.689,7.266,5.092,7.266,5.5c0,1.517-1.23,2.75-2.742,2.75c-0.114,0-0.228-0.007-0.34-0.021
	c-0.267,0.866-0.406,2.142-0.406,3.021c0,0.147-0.007,0.293-0.014,0.438c-0.014,0.272-0.026,0.528,0.011,0.774L3.28,12.537
	c-0.045-0.295-0.03-0.589-0.016-0.873c0.007-0.137,0.014-0.275,0.014-0.414c0-0.992,0.172-2.474,0.501-3.387l0.074-0.205
	l0.212,0.044C4.215,7.734,4.37,7.75,4.524,7.75c1.236,0,2.242-1.009,2.242-2.25c0-0.396-0.104-0.784-0.299-1.124L6.359,4.189
	l0.17-0.134c1.374-1.08,3.672-1.805,5.719-1.805c4.514,0,8.474,4.206,8.474,9c0,0.139,0.007,0.276,0.014,0.413
	C20.75,11.948,20.765,12.242,20.72,12.537z"/>
<rect x="3" y="15.25" style="fill:#333333;" width="5" height="0.5"/>
</svg>






