<?xml version="1.0" encoding="iso-8859-1"?>
<svg version="1.1" id="&#x56FE;&#x5C42;_1" xmlns="http://www.w3.org/2000/svg" xmlns:xlink="http://www.w3.org/1999/xlink" x="0px"
	 y="0px" viewBox="0 0 24 24" style="enable-background:new 0 0 24 24;" xml:space="preserve">
<path style="fill:#333333;" d="M12,21.75c-6.735,0-9.75-2.386-9.75-4.75c0-2.062,2.262-3.096,3.478-3.65l0.022-0.01
	c-0.005-1.012-0.062-3.008-0.247-4.305c-0.142-0.992-0.286-1.672-0.426-2.33C4.969,6.197,4.861,5.688,4.753,5.041l0.493-0.082
	C5.353,5.598,5.459,6.1,5.566,6.601c0.142,0.667,0.288,1.355,0.432,2.364c0.2,1.396,0.252,3.577,0.252,4.535v0.16l-0.315,0.145
	C4.822,14.312,2.75,15.259,2.75,17c0,1.578,1.948,4.25,9.25,4.25s9.25-2.672,9.25-4.25c0-1.814-3.315-3.256-3.349-3.271
	l-0.151-0.064V13.5c0-0.113,0.003-2.788,0.253-4.535c0.144-1.008,0.29-1.697,0.431-2.364c0.106-0.501,0.213-1.003,0.319-1.642
	l0.494,0.082c-0.108,0.647-0.216,1.156-0.324,1.664c-0.14,0.658-0.284,1.338-0.426,2.33c-0.21,1.472-0.241,3.691-0.246,4.304
	c0.7,0.325,3.499,1.748,3.499,3.661C21.75,19.364,18.735,21.75,12,21.75z"/>
<path style="fill:#333333;" d="M11.75,17.75v-0.5c5.537,0,6-1.853,6-3.75h0.5C18.25,15.557,17.748,17.75,11.75,17.75z"/>
<path style="fill:#333333;" d="M12,7.75C7.935,7.75,4.75,6.542,4.75,5S7.935,2.25,12,2.25S19.25,3.458,19.25,5S16.065,7.75,12,7.75z
	 M12,2.75C8.022,2.75,5.25,3.936,5.25,5S8.022,7.25,12,7.25c3.978,0,6.75-1.186,6.75-2.25S15.978,2.75,12,2.75z"/>
</svg>






