<?xml version="1.0" encoding="iso-8859-1"?>
<svg version="1.1" id="&#x56FE;&#x5C42;_1" xmlns="http://www.w3.org/2000/svg" xmlns:xlink="http://www.w3.org/1999/xlink" x="0px"
	 y="0px" viewBox="0 0 24 24" style="enable-background:new 0 0 24 24;" xml:space="preserve">
<path style="fill:#333333;" d="M12,22.25c-2.107,0-4.132-0.635-5.854-1.835c-1.003-0.699-1.865-1.562-2.562-2.562l0,0
	C2.384,16.13,1.75,14.106,1.75,12C1.75,6.348,6.348,1.75,12,1.75c5.652,0,10.25,4.598,10.25,10.25
	C22.25,17.652,17.652,22.25,12,22.25z M6.681,20.173C8.263,21.205,10.096,21.75,12,21.75c5.376,0,9.75-4.374,9.75-9.75
	S17.376,2.25,12,2.25S2.25,6.624,2.25,12c0,1.903,0.544,3.735,1.577,5.318L10,11.146L12.854,14l-2.177,2.177L10.5,16l0.177,0.177
	L6.681,20.173z M4.116,17.737c0.6,0.824,1.321,1.545,2.146,2.146L10.146,16L8,13.854L4.116,17.737z M3.79,17.71l-0.015,0.011
	L3.79,17.71z M8.354,13.5l2.146,2.146L12.146,14L10,11.854L8.354,13.5z"/>
<polygon style="fill:#333333;" points="9.75,8 9.25,8 9.25,7.25 8.5,7.25 8.5,6.75 9.25,6.75 9.25,6 9.75,6 9.75,6.75 10.5,6.75 
	10.5,7.25 9.75,7.25 "/>
<polygon style="fill:#333333;" points="15.75,10 15.25,10 15.25,8.75 14,8.75 14,8.25 15.25,8.25 15.25,7 15.75,7 15.75,8.25 
	17,8.25 17,8.75 15.75,8.75 "/>
<polygon style="fill:#333333;" points="17.25,15.5 16.75,15.5 16.75,14.75 16,14.75 16,14.25 16.75,14.25 16.75,13.5 17.25,13.5 
	17.25,14.25 18,14.25 18,14.75 17.25,14.75 "/>
</svg>






