<?xml version="1.0" encoding="iso-8859-1"?>
<svg version="1.1" id="&#x56FE;&#x5C42;_1" xmlns="http://www.w3.org/2000/svg" xmlns:xlink="http://www.w3.org/1999/xlink" x="0px"
	 y="0px" viewBox="0 0 24 24" style="enable-background:new 0 0 24 24;" xml:space="preserve">
<path style="fill:#333333;" d="M15.25,16h-0.5v-3h0.5V16z M19.773,14.127l-2.122-2.121l0.354-0.354l2.122,2.122L19.773,14.127z
	 M10.227,14.127l-0.354-0.354l2.122-2.122l0.354,0.354L10.227,14.127z M22,9.25h-3v-0.5h3V9.25z M11,9.25H8v-0.5h3V9.25z
	 M18.005,6.348l-0.354-0.354l2.122-2.121l0.354,0.354L18.005,6.348z M11.995,6.348L9.874,4.227l0.354-0.354l2.122,2.121
	L11.995,6.348z M15.25,5h-0.5V2h0.5V5z"/>
<rect x="0.283" y="14.967" transform="matrix(0.7071 -0.7071 0.7071 0.7071 -8.1879 10.6672)" style="fill:#333333;" width="17" height="0.5"/>
</svg>






