<?xml version="1.0" encoding="iso-8859-1"?>
<svg version="1.1" id="&#x56FE;&#x5C42;_1" xmlns="http://www.w3.org/2000/svg" xmlns:xlink="http://www.w3.org/1999/xlink" x="0px"
	 y="0px" viewBox="0 0 24 24" style="enable-background:new 0 0 24 24;" xml:space="preserve">
<path style="fill:#333333;" d="M21,21.25H3c-0.689,0-1.25-0.602-1.25-1.341V9l0.406-0.195L12,16.68l9.844-7.875L22.25,9v10.909
	C22.25,20.648,21.689,21.25,21,21.25z M2.25,9.52v10.389c0,0.464,0.336,0.841,0.75,0.841h18c0.413,0,0.75-0.377,0.75-0.841V9.52
	L12,17.32L2.25,9.52z"/>
<polygon style="fill:#333333;" points="21.858,9.098 12,2.304 2.142,9.098 1.858,8.686 12,1.696 22.142,8.686 "/>
<path style="fill:#333333;" d="M12,17.32l-5.25-4.2V8.75h10.5v4.37L12,17.32z M7.25,12.88l4.75,3.8l4.75-3.8V9.25h-9.5V12.88z"/>
</svg>






