<?xml version="1.0" encoding="iso-8859-1"?>
<svg version="1.1" id="&#x56FE;&#x5C42;_1" xmlns="http://www.w3.org/2000/svg" xmlns:xlink="http://www.w3.org/1999/xlink" x="0px"
	 y="0px" viewBox="0 0 24 24" style="enable-background:new 0 0 24 24;" xml:space="preserve">
<path style="fill:#333333;" d="M21,21.75H3c-0.689,0-1.25-0.602-1.25-1.341V12l0.386-0.209L12,18.202l9.863-6.412L22.25,12v8.409
	C22.25,21.148,21.689,21.75,21,21.75z M2.25,12.461v7.948c0,0.464,0.336,0.841,0.75,0.841h18c0.413,0,0.75-0.377,0.75-0.841v-7.948
	L12,18.798l-0.136-0.088L2.25,12.461z"/>
<path style="fill:#333333;" d="M21.858,12.098l-5-3.445l0.283-0.412l5,3.446L21.858,12.098z M2.142,12.098l-0.284-0.412l5-3.446
	l0.284,0.412L2.142,12.098z"/>
<path style="fill:#333333;" d="M12,18.558c-0.237,0-0.474-0.067-0.681-0.202l-4-2.6c-0.356-0.232-0.569-0.624-0.569-1.049V2.25h10.5
	v12.457c0,0.425-0.213,0.817-0.569,1.049l-4,2.6C12.475,18.49,12.237,18.558,12,18.558z M7.25,2.75v11.957
	c0,0.255,0.127,0.49,0.341,0.629l4,2.6c0.249,0.162,0.569,0.16,0.817,0.001l4-2.601c0.214-0.139,0.342-0.374,0.342-0.629V2.75H7.25z
	"/>
<rect x="10" y="6.25" style="fill:#333333;" width="2" height="0.5"/>
<rect x="10" y="9.25" style="fill:#333333;" width="4" height="0.5"/>
</svg>






