<?xml version="1.0" encoding="iso-8859-1"?>
<svg version="1.1" id="&#x56FE;&#x5C42;_1" xmlns="http://www.w3.org/2000/svg" xmlns:xlink="http://www.w3.org/1999/xlink" x="0px"
	 y="0px" viewBox="0 0 24 24" style="enable-background:new 0 0 24 24;" xml:space="preserve">
<path style="fill:#333333;" d="M21,21.25H3c-0.689,0-1.25-0.602-1.25-1.341V9l0.386-0.209L12,15.202l9.863-6.412L22.25,9v10.909
	C22.25,20.648,21.689,21.25,21,21.25z M2.25,9.46v10.449c0,0.464,0.336,0.841,0.75,0.841h18c0.413,0,0.75-0.377,0.75-0.841V9.46
	L12,15.798l-0.136-0.088L2.25,9.46z"/>
<polygon style="fill:#333333;" points="21.858,9.098 12,2.304 2.142,9.098 1.858,8.686 12,1.696 22.142,8.686 "/>
</svg>






