<?xml version="1.0" encoding="iso-8859-1"?>
<svg version="1.1" id="&#x56FE;&#x5C42;_1" xmlns="http://www.w3.org/2000/svg" xmlns:xlink="http://www.w3.org/1999/xlink" x="0px"
	 y="0px" viewBox="0 0 24 24" style="enable-background:new 0 0 24 24;" xml:space="preserve">
<polygon style="fill:#333333;" points="21.226,7.524 20.726,7.524 20.726,3.274 16.476,3.274 16.476,2.774 21.226,2.774 "/>
<path style="fill:#333333;" d="M10.156,21.301c-1.936,0-3.757-0.755-5.126-2.124l0,0c-2.827-2.826-2.827-7.426,0-10.252
	c2.826-2.827,7.427-2.827,10.253,0c1.369,1.37,2.123,3.19,2.123,5.126s-0.754,3.757-2.123,5.126
	C13.913,20.547,12.093,21.301,10.156,21.301z M10.156,7.304c-1.729,0-3.457,0.658-4.773,1.974c-2.632,2.632-2.632,6.914,0,9.545l0,0
	c1.275,1.275,2.97,1.978,4.773,1.978s3.498-0.702,4.773-1.978c1.274-1.274,1.977-2.97,1.977-4.772s-0.702-3.498-1.977-4.773
	C13.613,7.962,11.885,7.304,10.156,7.304z"/>
<rect x="13.97" y="6.262" transform="matrix(0.7071 -0.7071 0.7071 0.7071 0.5172 14.2731)" style="fill:#333333;" width="7.037" height="0.5"/>
</svg>






