<?xml version="1.0" encoding="iso-8859-1"?>
<svg version="1.1" id="&#x56FE;&#x5C42;_1" xmlns="http://www.w3.org/2000/svg" xmlns:xlink="http://www.w3.org/1999/xlink" x="0px"
	 y="0px" viewBox="0 0 24 24" style="enable-background:new 0 0 24 24;" xml:space="preserve">
<polygon style="fill:#333333;" points="20.25,12.25 4,12.25 4,11.75 19.75,11.75 19.75,6 20.25,6 "/>
<rect x="11.75" y="6" style="fill:#333333;" width="0.5" height="12"/>
<rect x="3.75" y="6" style="fill:#333333;" width="0.5" height="12"/>
<path style="fill:#333333;" d="M20,6.25c-1.24,0-2.25-1.009-2.25-2.25S18.76,1.75,20,1.75S22.25,2.759,22.25,4S21.24,6.25,20,6.25z
	 M20,2.25c-0.965,0-1.75,0.785-1.75,1.75S19.035,5.75,20,5.75S21.75,4.965,21.75,4S20.965,2.25,20,2.25z"/>
<path style="fill:#333333;" d="M12,6.25c-1.241,0-2.25-1.009-2.25-2.25S10.759,1.75,12,1.75c1.24,0,2.25,1.009,2.25,2.25
	S13.24,6.25,12,6.25z M12,2.25c-0.965,0-1.75,0.785-1.75,1.75S11.035,5.75,12,5.75S13.75,4.965,13.75,4S12.965,2.25,12,2.25z"/>
<path style="fill:#333333;" d="M4,6.25C2.759,6.25,1.75,5.241,1.75,4S2.759,1.75,4,1.75S6.25,2.759,6.25,4S5.241,6.25,4,6.25z
	 M4,2.25C3.035,2.25,2.25,3.035,2.25,4S3.035,5.75,4,5.75S5.75,4.965,5.75,4S4.965,2.25,4,2.25z"/>
<path style="fill:#333333;" d="M12,22.25c-1.241,0-2.25-1.01-2.25-2.25s1.009-2.25,2.25-2.25c1.24,0,2.25,1.01,2.25,2.25
	S13.24,22.25,12,22.25z M12,18.25c-0.965,0-1.75,0.785-1.75,1.75s0.785,1.75,1.75,1.75s1.75-0.785,1.75-1.75S12.965,18.25,12,18.25z
	"/>
<path style="fill:#333333;" d="M4,22.25c-1.241,0-2.25-1.01-2.25-2.25S2.759,17.75,4,17.75S6.25,18.76,6.25,20S5.241,22.25,4,22.25z
	 M4,18.25c-0.965,0-1.75,0.785-1.75,1.75S3.035,21.75,4,21.75S5.75,20.965,5.75,20S4.965,18.25,4,18.25z"/>
<path style="fill:#333333;" d="M20,22.25c-1.24,0-2.25-1.01-2.25-2.25s1.01-2.25,2.25-2.25s2.25,1.01,2.25,2.25
	S21.24,22.25,20,22.25z M20,18.25c-0.965,0-1.75,0.785-1.75,1.75s0.785,1.75,1.75,1.75s1.75-0.785,1.75-1.75S20.965,18.25,20,18.25z
	"/>
</svg>






