<?xml version="1.0" encoding="iso-8859-1"?>
<svg version="1.1" id="&#x56FE;&#x5C42;_1" xmlns="http://www.w3.org/2000/svg" xmlns:xlink="http://www.w3.org/1999/xlink" x="0px"
	 y="0px" viewBox="0 0 24 24" style="enable-background:new 0 0 24 24;" xml:space="preserve">
<path style="fill:#333333;" d="M21,20.75H3c-0.689,0-1.25-0.561-1.25-1.25v-15c0-0.689,0.561-1.25,1.25-1.25h18
	c0.689,0,1.25,0.561,1.25,1.25v15C22.25,20.189,21.689,20.75,21,20.75z M3,3.75c-0.414,0-0.75,0.336-0.75,0.75v15
	c0,0.413,0.336,0.75,0.75,0.75h18c0.413,0,0.75-0.337,0.75-0.75v-15c0-0.414-0.337-0.75-0.75-0.75H3z"/>
<polygon style="fill:#333333;" points="18.792,15.139 15.25,9.826 15.25,15 14.75,15 14.75,9 15.208,8.861 18.75,14.174 18.75,9 
	19.25,9 19.25,15 "/>
<polygon style="fill:#333333;" points="8.792,15.139 5.25,9.826 5.25,15 4.75,15 4.75,9 5.208,8.861 8.75,14.174 8.75,9 9.25,9 
	9.25,15 "/>
<rect x="11.75" y="10" style="fill:#333333;" width="0.5" height="0.5"/>
<rect x="11.75" y="13.5" style="fill:#333333;" width="0.5" height="0.5"/>
</svg>






