<?xml version="1.0" encoding="iso-8859-1"?>
<svg version="1.1" id="&#x56FE;&#x5C42;_1" xmlns="http://www.w3.org/2000/svg" xmlns:xlink="http://www.w3.org/1999/xlink" x="0px"
	 y="0px" viewBox="0 0 24 24" style="enable-background:new 0 0 24 24;" xml:space="preserve">
<path style="fill:#333333;" d="M20.5,22.25h-17c-0.965,0-1.75-0.785-1.75-1.75v-17c0-0.965,0.785-1.75,1.75-1.75h17
	c0.965,0,1.75,0.785,1.75,1.75v17C22.25,21.465,21.465,22.25,20.5,22.25z M3.5,2.25c-0.689,0-1.25,0.561-1.25,1.25v17
	c0,0.689,0.561,1.25,1.25,1.25h17c0.689,0,1.25-0.561,1.25-1.25v-17c0-0.689-0.561-1.25-1.25-1.25H3.5z"/>
<rect x="17.25" y="5.917" transform="matrix(0.9864 -0.1644 0.1644 0.9864 -1.7347 3.0403)" style="fill:#333333;" width="0.501" height="12.166"/>
<rect x="0.917" y="11.75" transform="matrix(0.1641 -0.9864 0.9864 0.1641 -5.9859 16.9361)" style="fill:#333333;" width="12.166" height="0.5"/>
<rect x="11.75" y="6" style="fill:#333333;" width="0.5" height="2"/>
<rect x="11.75" y="11" style="fill:#333333;" width="0.5" height="2"/>
<rect x="11.75" y="16" style="fill:#333333;" width="0.5" height="2"/>
</svg>






