<?xml version="1.0" encoding="iso-8859-1"?>
<svg version="1.1" id="&#x56FE;&#x5C42;_1" xmlns="http://www.w3.org/2000/svg" xmlns:xlink="http://www.w3.org/1999/xlink" x="0px"
	 y="0px" viewBox="0 0 24 24" style="enable-background:new 0 0 24 24;" xml:space="preserve">
<path style="fill:#333333;" d="M21,22.25H3c-0.689,0-1.25-0.561-1.25-1.25V3c0-0.689,0.561-1.25,1.25-1.25h18
	c0.689,0,1.25,0.561,1.25,1.25v18C22.25,21.689,21.689,22.25,21,22.25z M3,2.25C2.586,2.25,2.25,2.586,2.25,3v18
	c0,0.413,0.336,0.75,0.75,0.75h18c0.413,0,0.75-0.337,0.75-0.75V3c0-0.414-0.337-0.75-0.75-0.75H3z"/>
<rect x="4.567" y="8.25" transform="matrix(0.9418 -0.3361 0.3361 0.9418 -2.1587 4.5275)" style="fill:#333333;" width="14.866" height="0.5"/>
<path style="fill:#333333;" d="M5.084,14.735l-0.168-0.471l0.942-0.336l0.168,0.471L5.084,14.735z M8.851,13.39l-0.168-0.471
	l0.941-0.336l0.168,0.471L8.851,13.39z M12.618,12.045l-0.168-0.471l0.941-0.336l0.168,0.471L12.618,12.045z M16.385,10.699
	l-0.168-0.471l0.941-0.336l0.168,0.471L16.385,10.699z"/>
<rect x="4.567" y="15.25" transform="matrix(0.9418 -0.3361 0.3361 0.9418 -4.5113 4.9347)" style="fill:#333333;" width="14.866" height="0.5"/>
<rect x="7" y="5.364" transform="matrix(0.9363 -0.3511 0.3511 0.9363 -2.1718 3.0232)" style="fill:#333333;" width="0.5" height="4.272"/>
<rect x="17.5" y="13.864" transform="matrix(0.9363 -0.3511 0.3511 0.9363 -4.4878 7.2512)" style="fill:#333333;" width="0.501" height="4.272"/>
</svg>






