<?xml version="1.0" encoding="iso-8859-1"?>
<svg version="1.1" id="&#x56FE;&#x5C42;_1" xmlns="http://www.w3.org/2000/svg" xmlns:xlink="http://www.w3.org/1999/xlink" x="0px"
	 y="0px" viewBox="0 0 24 24" style="enable-background:new 0 0 24 24;" xml:space="preserve">
<path style="fill:#333333;" d="M19.65,21.25H4.35c-0.882,0-1.6-0.718-1.6-1.6V4.35c0-0.882,0.718-1.6,1.6-1.6h15.3
	c0.882,0,1.6,0.718,1.6,1.6v15.3C21.25,20.532,20.532,21.25,19.65,21.25z M4.35,3.25c-0.606,0-1.1,0.494-1.1,1.1v15.3
	c0,0.606,0.494,1.1,1.1,1.1h15.3c0.606,0,1.1-0.493,1.1-1.1V4.35c0-0.606-0.493-1.1-1.1-1.1H4.35z"/>
<polygon style="fill:#333333;" points="14.599,15.229 14.401,14.771 17.901,13.271 18.099,13.729 "/>
<polygon style="fill:#333333;" points="7.099,18.229 6.901,17.771 10.401,16.271 10.599,16.729 "/>
<path style="fill:#333333;" d="M8,14.939l-0.206-0.297C6.755,13.138,6.25,12.11,6.25,11.5c0-0.965,0.785-1.75,1.75-1.75
	s1.75,0.785,1.75,1.75c0,0.61-0.505,1.638-1.544,3.143L8,14.939z M8,10.25c-0.689,0-1.25,0.561-1.25,1.25
	c0,0.322,0.223,1.025,1.25,2.556c1.027-1.53,1.25-2.233,1.25-2.556C9.25,10.811,8.689,10.25,8,10.25z"/>
<path style="fill:#333333;" d="M16,11.44l-0.206-0.298C14.755,9.638,14.25,8.61,14.25,8c0-0.965,0.785-1.75,1.75-1.75
	S17.75,7.035,17.75,8c0,0.61-0.505,1.638-1.544,3.142L16,11.44z M16,6.75c-0.689,0-1.25,0.561-1.25,1.25
	c0,0.322,0.224,1.025,1.25,2.556C17.026,9.025,17.25,8.322,17.25,8C17.25,7.311,16.689,6.75,16,6.75z"/>
</svg>






