<?xml version="1.0" encoding="iso-8859-1"?>
<svg version="1.1" id="&#x56FE;&#x5C42;_1" xmlns="http://www.w3.org/2000/svg" xmlns:xlink="http://www.w3.org/1999/xlink" x="0px"
	 y="0px" viewBox="0 0 24 24" style="enable-background:new 0 0 24 24;" xml:space="preserve">
<path style="fill:#333333;" d="M22.25,10.25H1.75V5.5c0-0.965,0.785-1.75,1.75-1.75h17c0.965,0,1.75,0.785,1.75,1.75V10.25z
	 M2.25,9.75h19.5V5.5c0-0.689-0.561-1.25-1.25-1.25h-17c-0.689,0-1.25,0.561-1.25,1.25V9.75z"/>
<polygon style="fill:#333333;" points="2.234,19.69 1.878,19.339 8.139,13.014 11.441,16.176 15.464,12.66 17.87,15.005 
	17.521,15.362 15.446,13.34 11.426,16.854 8.149,13.715 "/>
<path style="fill:#333333;" d="M20.5,20.25H6v-0.5h14.5c0.689,0,1.25-0.561,1.25-1.25V9h0.5v9.5
	C22.25,19.465,21.465,20.25,20.5,20.25z"/>
<rect x="9.556" y="6.75" style="fill:#333333;" width="9" height="0.5"/>
<rect x="5.555" y="6.75" style="fill:#333333;" width="1" height="0.5"/>
<rect x="1.75" y="9" style="fill:#333333;" width="0.5" height="4.5"/>
</svg>






