<?xml version="1.0" encoding="iso-8859-1"?>
<svg version="1.1" id="&#x56FE;&#x5C42;_1" xmlns="http://www.w3.org/2000/svg" xmlns:xlink="http://www.w3.org/1999/xlink" x="0px"
	 y="0px" viewBox="0 0 24 24" style="enable-background:new 0 0 24 24;" xml:space="preserve">
<rect x="5.25" y="3" style="fill:#333333;" width="0.5" height="18"/>
<path style="fill:#333333;" d="M19.5,16.75l-3.599-0.021l-3.453-1.479H5.25v-11l7.349,0.02l3.453,1.48H19.5
	c0.689,0,1.25,0.561,1.25,1.25v8.5C20.75,16.189,20.189,16.75,19.5,16.75z M16.052,16.25H19.5c0.413,0,0.75-0.337,0.75-0.75V7
	c0-0.414-0.337-0.75-0.75-0.75l-3.599-0.02l-3.453-1.48H5.75v10l6.849,0.021L16.052,16.25z"/>
<rect x="3.5" y="20.75" style="fill:#333333;" width="4" height="0.5"/>
</svg>






