<?xml version="1.0" encoding="iso-8859-1"?>
<svg version="1.1" id="&#x56FE;&#x5C42;_1" xmlns="http://www.w3.org/2000/svg" xmlns:xlink="http://www.w3.org/1999/xlink" x="0px"
	 y="0px" viewBox="0 0 24 24" style="enable-background:new 0 0 24 24;" xml:space="preserve">
<path style="fill:#333333;" d="M12,22.25c-1.23,0-2.424-0.263-3.549-0.782c-1.126-0.519-2.136-1.269-3-2.229l0.372-0.334
	c0.818,0.909,1.773,1.619,2.837,2.109c2.119,0.977,4.562,0.977,6.681,0.001c1.063-0.491,2.019-1.201,2.838-2.11l0.371,0.334
	c-0.864,0.961-1.874,1.711-3,2.229C14.425,21.987,13.23,22.25,12,22.25z M3.449,15.915C2.985,14.674,2.75,13.356,2.75,12
	c0-1.357,0.235-2.674,0.699-3.915L3.917,8.26C3.475,9.445,3.25,10.703,3.25,12s0.225,2.555,0.667,3.739L3.449,15.915z
	 M20.552,15.914l-0.469-0.174c0.442-1.188,0.667-2.445,0.667-3.74s-0.225-2.553-0.667-3.74l0.469-0.175
	c0.463,1.243,0.698,2.56,0.698,3.915C21.25,13.354,21.015,14.672,20.552,15.914z M18.179,5.096c-0.819-0.91-1.774-1.62-2.838-2.11
	C14.281,2.498,13.157,2.25,12,2.25c-2.333,0-4.526,1.011-6.178,2.846L5.45,4.762C7.198,2.819,9.524,1.75,12,1.75
	c1.23,0,2.425,0.263,3.55,0.782c1.126,0.519,2.136,1.269,3,2.229L18.179,5.096z"/>
<path style="fill:#333333;" d="M9,11.75c-0.965,0-1.75-0.785-1.75-1.75S8.035,8.25,9,8.25s1.75,0.785,1.75,1.75S9.965,11.75,9,11.75
	z M9,8.75c-0.689,0-1.25,0.561-1.25,1.25S8.311,11.25,9,11.25s1.25-0.561,1.25-1.25S9.689,8.75,9,8.75z"/>
<path style="fill:#333333;" d="M15,11.75c-0.965,0-1.75-0.785-1.75-1.75S14.035,8.25,15,8.25s1.75,0.785,1.75,1.75
	S15.965,11.75,15,11.75z M15,8.75c-0.689,0-1.25,0.561-1.25,1.25s0.561,1.25,1.25,1.25s1.25-0.561,1.25-1.25S15.689,8.75,15,8.75z"
	/>
<path style="fill:#333333;" d="M12,17.75c-1.542,0-2.75-0.769-2.75-1.75s1.208-1.75,2.75-1.75s2.75,0.769,2.75,1.75
	S13.542,17.75,12,17.75z M12,14.75c-1.22,0-2.25,0.572-2.25,1.25s1.03,1.25,2.25,1.25s2.25-0.572,2.25-1.25S13.22,14.75,12,14.75z"
	/>
</svg>






