<?xml version="1.0" encoding="iso-8859-1"?>
<svg version="1.1" id="&#x56FE;&#x5C42;_1" xmlns="http://www.w3.org/2000/svg" xmlns:xlink="http://www.w3.org/1999/xlink" x="0px"
	 y="0px" viewBox="0 0 24 24" style="enable-background:new 0 0 24 24;" xml:space="preserve">
<path style="fill:#333333;" d="M22.25,11.75H6.75V8.5c0-0.689,0.561-1.25,1.25-1.25h13c0.689,0,1.25,0.561,1.25,1.25V11.75z
	 M7.25,11.25h14.5V8.5c0-0.414-0.337-0.75-0.75-0.75H8c-0.414,0-0.75,0.336-0.75,0.75V11.25z"/>
<rect x="5.39" y="14.75" transform="matrix(0.6514 -0.7587 0.7587 0.6514 -7.8949 12.8156)" style="fill:#333333;" width="9.22" height="0.5"/>
<rect x="18.75" y="10.39" transform="matrix(0.7593 -0.6508 0.6508 0.7593 -5.1878 15.9754)" style="fill:#333333;" width="0.5" height="9.22"/>
<rect x="3" y="11.25" style="fill:#333333;" width="4" height="0.5"/>
<rect x="9.5" y="15.25" style="fill:#333333;" width="10" height="0.5"/>
<rect x="2.75" y="6.5" style="fill:#333333;" width="0.5" height="5"/>
<rect x="6.75" y="11.5" style="fill:#333333;" width="0.5" height="8.5"/>
<rect x="21.75" y="11.5" style="fill:#333333;" width="0.5" height="8.5"/>
<rect x="2.75" y="4.919" transform="matrix(0.3162 -0.9487 0.9487 0.3162 -4.1151 7.2906)" style="fill:#333333;" width="0.5" height="3.162"/>
</svg>






