<?xml version="1.0" encoding="iso-8859-1"?>
<svg version="1.1" id="&#x56FE;&#x5C42;_1" xmlns="http://www.w3.org/2000/svg" xmlns:xlink="http://www.w3.org/1999/xlink" x="0px"
	 y="0px" viewBox="0 0 24 24" style="enable-background:new 0 0 24 24;" xml:space="preserve">
<path style="fill:#333333;" d="M19.75,7.5h-0.5V4.782c0-0.426-0.043-0.546-0.099-0.659c-0.06-0.118-0.146-0.209-0.255-0.272
	c-0.104-0.059-0.207-0.101-0.599-0.101H5.702c-0.392,0-0.495,0.042-0.598,0.101C4.994,3.913,4.908,4.005,4.848,4.124
	C4.792,4.235,4.75,4.354,4.75,4.782V7.5h-0.5V4.782c0-0.487,0.053-0.686,0.151-0.882C4.507,3.69,4.66,3.528,4.856,3.417
	C5.073,3.292,5.287,3.25,5.702,3.25h12.596c0.414,0,0.628,0.042,0.847,0.167c0.196,0.112,0.349,0.274,0.454,0.483
	c0.099,0.198,0.151,0.396,0.151,0.882V7.5z"/>
<path style="fill:#333333;" d="M21.75,20.75H2.25V7.25h19.5V20.75z M2.75,20.25h18.5V7.75H2.75V20.25z"/>
<path style="fill-rule:evenodd;clip-rule:evenodd;fill:#333333;" d="M6.5,13C7.328,13,8,12.328,8,11.5S7.328,10,6.5,10
	S5,10.672,5,11.5S5.672,13,6.5,13z"/>
<polygon style="fill:#333333;" points="21.039,20.389 13.031,13.848 10.033,17.346 7.527,15.342 2.97,20.363 2.6,20.027 
	7.473,14.658 9.967,16.654 12.969,13.152 21.355,20.002 "/>
</svg>






