<?xml version="1.0" encoding="iso-8859-1"?>
<svg version="1.1" id="&#x56FE;&#x5C42;_1" xmlns="http://www.w3.org/2000/svg" xmlns:xlink="http://www.w3.org/1999/xlink" x="0px"
	 y="0px" viewBox="0 0 24 24" style="enable-background:new 0 0 24 24;" xml:space="preserve">
<path style="fill:#333333;" d="M14.478,22.25h-4.477c-2.309,0-4.005-1.029-4.905-2.977C4.65,18.31,4.25,17.298,4.25,15.521
	c0-1.866,1.892-3.768,3.749-3.768h4.103c0.218,0,0.428,0.033,0.626,0.093l0.02-8.348c0.001-0.333-0.128-0.646-0.363-0.882
	c-0.234-0.236-0.547-0.366-0.88-0.367c-0.692,0-1.253,0.561-1.253,1.25v8.02h-0.5V3.5c0-0.965,0.785-1.75,1.75-1.75
	c0.471,0.001,0.909,0.184,1.237,0.514c0.329,0.331,0.51,0.77,0.509,1.236l-0.02,8.5L13.098,12c0.663,0.351,1.121,1.038,1.144,1.834
	c0.5,0.143,0.875,0.129,1.113-0.044c0.272-0.195,0.41-0.621,0.41-1.265c0-0.416-0.003-1.758-0.007-4.023L15.757,8
	c0-0.966,0.783-1.749,1.745-1.749c0.47,0.001,0.907,0.183,1.236,0.514c0.329,0.33,0.51,0.769,0.509,1.235
	c-0.007,3.751-0.008,6.584-0.004,8.499c0.004,1.756-0.606,3.377-1.675,4.447C16.718,21.799,15.648,22.25,14.478,22.25z
	 M7.999,12.254c-1.579,0-3.249,1.68-3.249,3.268c0,1.675,0.378,2.631,0.8,3.543c0.824,1.782,2.321,2.686,4.451,2.686h4.477
	c1.035,0,1.982-0.4,2.737-1.157c0.975-0.977,1.532-2.469,1.528-4.092c-0.004-1.916-0.003-4.75,0.004-8.501
	c0.001-0.333-0.128-0.646-0.363-0.881c-0.234-0.235-0.547-0.366-0.879-0.366c-0.689,0-1.248,0.559-1.248,1.245l0.001,0.504
	c0.004,2.266,0.007,3.608,0.007,4.024c0,0.813-0.208,1.375-0.618,1.671c-0.353,0.252-0.841,0.3-1.45,0.143
	c-0.205,0.969-1.066,1.697-2.095,1.697l-2.174,0.179l0.796,1.678l-0.452,0.215l-1.105-2.332l2.915-0.238
	c0.925-0.001,1.661-0.737,1.661-1.642c0-0.905-0.736-1.642-1.641-1.642H7.999z"/>
<path style="fill:#333333;" d="M10.253,12h-0.5V5.004c0-0.689-0.561-1.251-1.25-1.252h0c-0.689,0-1.249,0.56-1.249,1.248v7h-0.5V5
	c0-0.964,0.784-1.748,1.748-1.748c0.967,0.001,1.752,0.788,1.752,1.752V12z"/>
<path style="fill:#333333;" d="M16.254,10.01h-0.5v-0.5c0-0.689-0.561-1.25-1.25-1.25s-1.25,0.561-1.25,1.25v0.5h-0.5v-0.5
	c0-0.965,0.785-1.75,1.75-1.75s1.75,0.785,1.75,1.75V10.01z"/>
</svg>






