<?xml version="1.0" encoding="iso-8859-1"?>
<svg version="1.1" id="&#x56FE;&#x5C42;_1" xmlns="http://www.w3.org/2000/svg" xmlns:xlink="http://www.w3.org/1999/xlink" x="0px"
	 y="0px" viewBox="0 0 24 24" style="enable-background:new 0 0 24 24;" xml:space="preserve">
<path style="fill:#333333;" d="M12,22.25C6.348,22.25,1.75,17.652,1.75,12C1.75,6.348,6.348,1.75,12,1.75
	c5.652,0,10.25,4.598,10.25,10.25C22.25,17.652,17.652,22.25,12,22.25z M12,2.25c-5.376,0-9.75,4.374-9.75,9.75
	s4.374,9.75,9.75,9.75s9.75-4.374,9.75-9.75S17.376,2.25,12,2.25z"/>
<path style="fill:#333333;" d="M12,11.75c-1.517,0-2.75-1.233-2.75-2.75S10.483,6.25,12,6.25S14.75,7.483,14.75,9
	S13.517,11.75,12,11.75z M12,6.75c-1.241,0-2.25,1.009-2.25,2.25s1.009,2.25,2.25,2.25c1.24,0,2.25-1.009,2.25-2.25
	S13.24,6.75,12,6.75z"/>
<path style="fill:#333333;" d="M5.261,19.183l-0.499-0.033C4.942,16.402,7.243,14.25,10,14.25h4c2.751,0,5.052,2.147,5.237,4.889
	l-0.498,0.033C18.57,16.692,16.488,14.75,14,14.75h-4C7.506,14.75,5.424,16.697,5.261,19.183z"/>
</svg>






