<?xml version="1.0" encoding="iso-8859-1"?>
<svg version="1.1" id="&#x56FE;&#x5C42;_1" xmlns="http://www.w3.org/2000/svg" xmlns:xlink="http://www.w3.org/1999/xlink" x="0px"
	 y="0px" viewBox="0 0 24 24" style="enable-background:new 0 0 24 24;" xml:space="preserve">
<polygon style="fill:#333333;" points="21.25,10.25 18,10.25 18,9.75 20.814,9.75 21.713,3.25 18,3.25 18,2.75 22.287,2.75 "/>
<path style="fill:#333333;" d="M17,21.25H5.5c-0.689,0-1.25-0.561-1.25-1.25V8.25c0-0.387-0.18-0.763-0.493-1.031
	C2.586,6.215,1.271,4.804,1.65,3.781C1.907,3.087,2.839,2.75,4.5,2.75h13.75V20C18.25,20.689,17.689,21.25,17,21.25z M4.5,3.25
	c-1.752,0-2.262,0.383-2.381,0.705c-0.211,0.57,0.523,1.649,1.963,2.884C4.506,7.203,4.75,7.717,4.75,8.25V20
	c0,0.413,0.336,0.75,0.75,0.75H17c0.413,0,0.75-0.337,0.75-0.75V3.25H4.5z"/>
<rect x="13" y="7.25" style="fill:#333333;" width="2" height="0.5"/>
<rect x="13" y="11.25" style="fill:#333333;" width="2" height="0.5"/>
<rect x="13" y="15.25" style="fill:#333333;" width="2" height="0.5"/>
</svg>






