<?xml version="1.0" encoding="iso-8859-1"?>
<svg version="1.1" id="&#x56FE;&#x5C42;_1" xmlns="http://www.w3.org/2000/svg" xmlns:xlink="http://www.w3.org/1999/xlink" x="0px"
	 y="0px" viewBox="0 0 24 24" style="enable-background:new 0 0 24 24;" xml:space="preserve">
<rect x="5.25" y="2.095" transform="matrix(0.7682 -0.6402 0.6402 0.7682 -2.5663 4.9117)" style="fill:#333333;" width="0.5" height="7.81"/>
<rect x="14.595" y="5.75" transform="matrix(0.6398 -0.7685 0.7685 0.6398 2.0524 16.3792)" style="fill:#333333;" width="7.81" height="0.501"/>
<rect x="11" y="4.75" transform="matrix(0.3852 -0.9228 0.9228 0.3852 4.1471 16.2247)" style="fill:#333333;" width="6.5" height="0.499"/>
<rect x="9.5" y="1.75" transform="matrix(0.9231 -0.3846 0.3846 0.9231 -1.1731 4.1346)" style="fill:#333333;" width="0.5" height="6.5"/>
<path style="fill:#333333;" d="M12,22.25c-3.998,0-7.25-3.252-7.25-7.25c0-3.998,3.252-7.25,7.25-7.25c3.998,0,7.25,3.252,7.25,7.25
	C19.25,18.998,15.998,22.25,12,22.25z M12,8.25c-3.722,0-6.75,3.028-6.75,6.75c0,3.722,3.028,6.75,6.75,6.75
	c3.722,0,6.75-3.028,6.75-6.75C18.75,11.278,15.722,8.25,12,8.25z"/>
<path style="fill:#333333;" d="M12,18.75c-2.068,0-3.75-1.683-3.75-3.75s1.682-3.75,3.75-3.75c2.067,0,3.75,1.683,3.75,3.75
	S14.067,18.75,12,18.75z M12,11.75c-1.792,0-3.25,1.458-3.25,3.25s1.458,3.25,3.25,3.25s3.25-1.458,3.25-3.25S13.792,11.75,12,11.75
	z"/>
</svg>






