<?xml version="1.0" encoding="iso-8859-1"?>
<svg version="1.1" id="&#x56FE;&#x5C42;_1" xmlns="http://www.w3.org/2000/svg" xmlns:xlink="http://www.w3.org/1999/xlink" x="0px"
	 y="0px" viewBox="0 0 24 24" style="enable-background:new 0 0 24 24;" xml:space="preserve">
<path style="fill:#333333;" d="M16,18.75H3.5c-0.965,0-1.75-0.785-1.75-1.75v-1.591l0.142-0.068l20-9.566l0.215,0.451L2.25,15.724
	V17c0,0.689,0.561,1.25,1.25,1.25H16c0.689,0,1.25-0.561,1.25-1.25v-0.934h0.5V17C17.75,17.965,16.965,18.75,16,18.75z"/>
<path style="fill:#333333;" d="M21.893,18.226L1.75,8.591V7c0-0.965,0.785-1.75,1.75-1.75H16c0.965,0,1.75,0.785,1.75,1.75v0.934
	h-0.5V7c0-0.689-0.561-1.25-1.25-1.25H3.5C2.811,5.75,2.25,6.311,2.25,7v1.276l19.857,9.499L21.893,18.226z"/>
</svg>






