<?xml version="1.0" encoding="iso-8859-1"?>
<svg version="1.1" id="&#x56FE;&#x5C42;_1" xmlns="http://www.w3.org/2000/svg" xmlns:xlink="http://www.w3.org/1999/xlink" x="0px"
	 y="0px" viewBox="0 0 24 24" style="enable-background:new 0 0 24 24;" xml:space="preserve">
<path style="fill:#333333;" d="M20.5,20.75h-17c-0.689,0-1.25-0.561-1.25-1.25v-10c0-0.689,0.561-1.25,1.25-1.25h17
	c0.689,0,1.25,0.561,1.25,1.25v10C21.75,20.189,21.189,20.75,20.5,20.75z M3.5,8.75c-0.414,0-0.75,0.336-0.75,0.75v10
	c0,0.413,0.336,0.75,0.75,0.75h17c0.413,0,0.75-0.337,0.75-0.75v-10c0-0.414-0.337-0.75-0.75-0.75H3.5z"/>
<path style="fill:#333333;" d="M17.25,8.75H6.75v-5.5h10.5V8.75z M7.25,8.25h9.5v-4.5h-9.5V8.25z"/>
<rect x="9.5" y="14.25" style="fill:#333333;" width="5" height="0.5"/>
<rect x="11.75" y="12" style="fill:#333333;" width="0.5" height="5"/>
</svg>






