<?xml version="1.0" encoding="iso-8859-1"?>
<svg version="1.1" id="&#x56FE;&#x5C42;_1" xmlns="http://www.w3.org/2000/svg" xmlns:xlink="http://www.w3.org/1999/xlink" x="0px"
	 y="0px" viewBox="0 0 24 24" style="enable-background:new 0 0 24 24;" xml:space="preserve">
<path style="fill:#333333;" d="M11.5,21.25h-7c-0.689,0-1.25-0.561-1.25-1.25V4c0-0.689,0.561-1.25,1.25-1.25h14
	c0.689,0,1.25,0.561,1.25,1.25v5.75h-0.5V4c0-0.414-0.337-0.75-0.75-0.75h-14C4.086,3.25,3.75,3.586,3.75,4v16
	c0,0.413,0.336,0.75,0.75,0.75h7V21.25z"/>
<path style="fill:#333333;" d="M16.5,20.797l-0.135-0.087c-0.736-0.472-1.36-0.953-1.856-1.43l-0.136-0.13
	c-0.794-0.757-2.123-2.023-2.123-3.551c0-1.296,1.091-2.35,2.432-2.35c0.701,0,1.36,0.29,1.818,0.789
	c0.458-0.499,1.117-0.789,1.818-0.789c1.341,0,2.432,1.054,2.432,2.35c0,1.527-1.329,2.794-2.123,3.551l-0.136,0.13
	c-0.496,0.477-1.12,0.958-1.856,1.43L16.5,20.797z M14.682,13.75c-1.065,0-1.932,0.83-1.932,1.85c0,1.313,1.232,2.487,1.968,3.189
	l0.137,0.13c0.442,0.426,0.996,0.856,1.646,1.283c0.649-0.427,1.203-0.857,1.646-1.283l0.137-0.13
	c0.735-0.702,1.968-1.876,1.968-3.189c0-1.02-0.866-1.85-1.932-1.85c-0.65,0-1.253,0.311-1.612,0.831L16.5,14.878l-0.206-0.297
	C15.935,14.061,15.332,13.75,14.682,13.75z"/>
<rect x="7.5" y="6.75" style="fill:#333333;" width="8" height="0.5"/>
</svg>






