<?xml version="1.0" encoding="iso-8859-1"?>
<svg version="1.1" id="&#x56FE;&#x5C42;_1" xmlns="http://www.w3.org/2000/svg" xmlns:xlink="http://www.w3.org/1999/xlink" x="0px"
	 y="0px" viewBox="0 0 24 24" style="enable-background:new 0 0 24 24;" xml:space="preserve">
<path style="fill:#333333;" d="M17,22.25H7c-0.689,0-1.25-0.561-1.25-1.25V6c0-0.689,0.561-1.25,1.25-1.25h10
	c0.689,0,1.25,0.561,1.25,1.25v15C18.25,21.689,17.689,22.25,17,22.25z M7,5.25C6.586,5.25,6.25,5.586,6.25,6v15
	c0,0.413,0.336,0.75,0.75,0.75h10c0.413,0,0.75-0.337,0.75-0.75V6c0-0.414-0.337-0.75-0.75-0.75H7z"/>
<rect x="6" y="8.75" style="fill:#333333;" width="12" height="0.5"/>
<rect x="5.75" y="7.5" style="fill:#333333;" width="0.5" height="3"/>
<rect x="17.75" y="7.5" style="fill:#333333;" width="0.5" height="3"/>
<path style="fill:#333333;" d="M16.25,5.25h-8.5v-3.5h8.5V5.25z M8.25,4.75h7.5v-2.5h-7.5V4.75z"/>
<rect x="10" y="15.25" style="fill:#333333;" width="4" height="0.5"/>
<rect x="11.75" y="13.5" style="fill:#333333;" width="0.5" height="4"/>
</svg>






