<?xml version="1.0" encoding="iso-8859-1"?>
<svg version="1.1" id="&#x56FE;&#x5C42;_1" xmlns="http://www.w3.org/2000/svg" xmlns:xlink="http://www.w3.org/1999/xlink" x="0px"
	 y="0px" viewBox="0 0 24 24" style="enable-background:new 0 0 24 24;" xml:space="preserve">
<path style="fill:#333333;" d="M16,5.25H8c-0.965,0-1.75-0.785-1.75-1.75S7.035,1.75,8,1.75h8c0.965,0,1.75,0.785,1.75,1.75
	S16.965,5.25,16,5.25z M8,2.25c-0.689,0-1.25,0.561-1.25,1.25S7.311,4.75,8,4.75h8c0.689,0,1.25-0.561,1.25-1.25
	S16.689,2.25,16,2.25H8z"/>
<path style="fill:#333333;" d="M18.5,22.25h-13c-0.965,0-1.75-0.785-1.75-1.75v-8.238c0-0.397,0.137-0.787,0.386-1.096l2.219-2.762
	C6.688,7.988,7.186,7.75,7.719,7.75h8.562c0.533,0,1.03,0.238,1.364,0.654l2.219,2.761c0.249,0.311,0.386,0.7,0.386,1.097V20.5
	C20.25,21.465,19.465,22.25,18.5,22.25z M7.719,8.25c-0.381,0-0.736,0.17-0.974,0.467l-2.219,2.761
	c-0.178,0.221-0.275,0.5-0.275,0.783V20.5c0,0.689,0.561,1.25,1.25,1.25h13c0.689,0,1.25-0.561,1.25-1.25v-8.238
	c0-0.283-0.098-0.562-0.276-0.784l-2.219-2.761C17.018,8.42,16.662,8.25,16.281,8.25H7.719z"/>
<rect x="9" y="14.75" style="fill:#333333;" width="6" height="0.5"/>
<rect x="11.75" y="12" style="fill:#333333;" width="0.5" height="6"/>
</svg>






