<?xml version="1.0" encoding="iso-8859-1"?>
<svg version="1.1" id="&#x56FE;&#x5C42;_1" xmlns="http://www.w3.org/2000/svg" xmlns:xlink="http://www.w3.org/1999/xlink" x="0px"
	 y="0px" viewBox="0 0 24 24" style="enable-background:new 0 0 24 24;" xml:space="preserve">
<path style="fill:#333333;" d="M20,20.25H4c-0.689,0-1.25-0.561-1.25-1.25V9.553c0-0.248,0.073-0.487,0.21-0.693l3.035-4.553
	C6.228,3.958,6.616,3.75,7.035,3.75H20c0.689,0,1.25,0.561,1.25,1.25v14C21.25,19.689,20.689,20.25,20,20.25z M7.035,4.25
	c-0.251,0-0.484,0.125-0.624,0.334L3.376,9.137C3.293,9.26,3.25,9.404,3.25,9.553V19c0,0.413,0.336,0.75,0.75,0.75h16
	c0.413,0,0.75-0.337,0.75-0.75V5c0-0.414-0.337-0.75-0.75-0.75H7.035z"/>
<rect x="8.75" y="4" style="fill:#333333;" width="0.5" height="4"/>
<rect x="11.75" y="4" style="fill:#333333;" width="0.5" height="4"/>
<rect x="14.75" y="4" style="fill:#333333;" width="0.5" height="4"/>
<rect x="17.75" y="4" style="fill:#333333;" width="0.5" height="4"/>
<path style="fill:#333333;" d="M16.75,20.25h-9.5v-6.5h9.5V20.25z M7.75,19.75h8.5v-5.5h-8.5V19.75z"/>
</svg>






