<?xml version="1.0" encoding="iso-8859-1"?>
<svg version="1.1" id="&#x56FE;&#x5C42;_1" xmlns="http://www.w3.org/2000/svg" xmlns:xlink="http://www.w3.org/1999/xlink" x="0px"
	 y="0px" viewBox="0 0 24 24" style="enable-background:new 0 0 24 24;" xml:space="preserve">
<path style="fill:#333333;" d="M17.25,22.25H6.75v-4.5H3.769L2.737,4.852L9,1.75l6.111,0.026l6.151,3.076L20.23,17.75h-2.98V22.25z
	 M7.25,21.75h9.5v-4.5h3.02l0.968-12.102L14.941,2.25H9.059L3.263,5.148L4.231,17.25H7.25V21.75z"/>
<rect x="6.75" y="10" style="fill:#333333;" width="0.5" height="7.5"/>
<rect x="16.75" y="10" style="fill:#333333;" width="0.5" height="7.5"/>
<path style="fill:#333333;" d="M12,5.25c-1.792,0-3.25-1.458-3.25-3.25V1.75h6.5V2C15.25,3.792,13.792,5.25,12,5.25z M9.261,2.25
	c0.126,1.4,1.307,2.5,2.739,2.5c1.433,0,2.612-1.1,2.738-2.5H9.261z"/>
</svg>






