<?xml version="1.0" encoding="iso-8859-1"?>
<svg version="1.1" id="&#x56FE;&#x5C42;_1" xmlns="http://www.w3.org/2000/svg" xmlns:xlink="http://www.w3.org/1999/xlink" x="0px"
	 y="0px" viewBox="0 0 24 24" style="enable-background:new 0 0 24 24;" xml:space="preserve">
<path style="fill:#333333;" d="M9.778,19.614c-0.334,0-0.648-0.13-0.884-0.366L2.53,12.884C2.294,12.647,2.164,12.334,2.164,12
	s0.13-0.647,0.366-0.884l5.657-5.657c0.473-0.472,1.295-0.473,1.768,0l6.364,6.364c0.486,0.487,0.486,1.28,0,1.768l-5.657,5.657
	C10.426,19.484,10.112,19.614,9.778,19.614z M9.071,5.594c-0.192,0-0.384,0.073-0.53,0.219L2.884,11.47
	c-0.292,0.292-0.292,0.769,0,1.061l6.364,6.364c0.282,0.282,0.777,0.283,1.061,0l5.657-5.657c0.292-0.292,0.292-0.769,0-1.061
	L9.602,5.813C9.455,5.667,9.263,5.594,9.071,5.594z"/>
<path style="fill:#333333;" d="M15.071,18.907c-0.334,0-0.647-0.13-0.884-0.366L8.53,12.884C8.294,12.647,8.164,12.334,8.164,12
	s0.13-0.647,0.366-0.884l5.657-5.657c0.488-0.487,1.281-0.487,1.768,0l5.656,5.657c0.487,0.487,0.487,1.28,0,1.768l-5.656,5.657
	C15.719,18.777,15.405,18.907,15.071,18.907z M8.884,11.47L8.884,11.47c-0.292,0.292-0.292,0.769,0,1.061l5.657,5.657
	c0.293,0.293,0.768,0.293,1.061,0l5.656-5.657c0.292-0.292,0.292-0.768,0-1.061l-5.656-5.657c-0.293-0.292-0.768-0.292-1.061,0
	L8.884,11.47z"/>
</svg>






