<?xml version="1.0" encoding="iso-8859-1"?>
<svg version="1.1" id="&#x56FE;&#x5C42;_1" xmlns="http://www.w3.org/2000/svg" xmlns:xlink="http://www.w3.org/1999/xlink" x="0px"
	 y="0px" viewBox="0 0 24 24" style="enable-background:new 0 0 24 24;" xml:space="preserve">
<path style="fill:#333333;" d="M9.5,22.25h-7c-0.414,0-0.75-0.337-0.75-0.75v-19c0-0.414,0.336-0.75,0.75-0.75h7
	c0.414,0,0.75,0.336,0.75,0.75V7h-0.5V2.5c0-0.138-0.112-0.25-0.25-0.25h-7c-0.138,0-0.25,0.112-0.25,0.25v19
	c0,0.138,0.112,0.25,0.25,0.25h7c0.138,0,0.25-0.112,0.25-0.25V17h0.5v4.5C10.25,21.913,9.914,22.25,9.5,22.25z"/>
<path style="fill:#333333;" d="M21.5,22.25h-7c-0.413,0-0.75-0.337-0.75-0.75V17h0.5v4.5c0,0.138,0.112,0.25,0.25,0.25h7
	c0.138,0,0.25-0.112,0.25-0.25v-19c0-0.138-0.112-0.25-0.25-0.25h-7c-0.138,0-0.25,0.112-0.25,0.25V7h-0.5V2.5
	c0-0.414,0.337-0.75,0.75-0.75h7c0.413,0,0.75,0.336,0.75,0.75v19C22.25,21.913,21.913,22.25,21.5,22.25z"/>
<rect x="14" y="11.75" style="fill:#333333;" width="8" height="0.5"/>
<rect x="2.5" y="11.75" style="fill:#333333;" width="7.5" height="0.5"/>
<polygon style="fill:#333333;" points="16.197,14.586 13.635,12.022 16.197,9.459 16.551,9.813 14.342,12.022 16.551,14.232 "/>
<polygon style="fill:#333333;" points="7.864,14.586 7.511,14.232 9.721,12.022 7.511,9.813 7.864,9.459 10.428,12.022 "/>
</svg>






