<?xml version="1.0" encoding="iso-8859-1"?>
<svg version="1.1" id="&#x56FE;&#x5C42;_1" xmlns="http://www.w3.org/2000/svg" xmlns:xlink="http://www.w3.org/1999/xlink" x="0px"
	 y="0px" viewBox="0 0 24 24" style="enable-background:new 0 0 24 24;" xml:space="preserve">
<polygon style="fill:#333333;" points="5.25,21.404 5.25,18.75 1.75,18.75 1.75,3.25 22.25,3.25 22.25,9 21.75,9 21.75,3.75 
	2.25,3.75 2.25,18.25 5.75,18.25 5.75,20.596 10.5,18.25 12.75,18.25 12.75,18.75 10.559,18.75 "/>
<rect x="6" y="7.25" style="fill:#333333;" width="3" height="0.5"/>
<rect x="6" y="10.25" style="fill:#333333;" width="6" height="0.5"/>
<rect x="18.75" y="11.257" transform="matrix(0.7071 -0.7071 0.7071 0.7071 -5.3952 17.9749)" style="fill:#333333;" width="0.5" height="8.485"/>
<rect x="14.757" y="15.25" transform="matrix(0.7071 -0.7071 0.7071 0.7071 -5.3952 17.9749)" style="fill:#333333;" width="8.485" height="0.5"/>
</svg>






