<?xml version="1.0" encoding="iso-8859-1"?>
<svg version="1.1" id="&#x56FE;&#x5C42;_1" xmlns="http://www.w3.org/2000/svg" xmlns:xlink="http://www.w3.org/1999/xlink" x="0px"
	 y="0px" viewBox="0 0 24 24" style="enable-background:new 0 0 24 24;" xml:space="preserve">
<polygon style="fill:#333333;" points="5.25,21.404 5.25,18.75 1.75,18.75 1.75,3.25 22.25,3.25 22.25,9 21.75,9 21.75,3.75 
	2.25,3.75 2.25,18.25 5.75,18.25 5.75,20.596 10.5,18.25 12.75,18.25 12.75,18.75 10.559,18.75 "/>
<path style="fill:#333333;" d="M22.25,17.75h-7.5v-4.5h7.5V17.75z M15.25,17.25h6.5v-3.5h-6.5V17.25z"/>
<path style="fill:#333333;" d="M20.25,13.5h-0.5V12c0-0.689-0.561-1.25-1.25-1.25s-1.25,0.561-1.25,1.25v1.5h-0.5V12
	c0-0.965,0.785-1.75,1.75-1.75s1.75,0.785,1.75,1.75V13.5z"/>
<rect x="6" y="7.25" style="fill:#333333;" width="3" height="0.5"/>
<rect x="6" y="10.25" style="fill:#333333;" width="6" height="0.5"/>
</svg>






