<?xml version="1.0" encoding="iso-8859-1"?>
<svg version="1.1" id="&#x56FE;&#x5C42;_1" xmlns="http://www.w3.org/2000/svg" xmlns:xlink="http://www.w3.org/1999/xlink" x="0px"
	 y="0px" viewBox="0 0 24 24" style="enable-background:new 0 0 24 24;" xml:space="preserve">
<path style="fill:#333333;" d="M19.5,21.25h-15c-0.965,0-1.75-0.785-1.75-1.75v-15c0-0.965,0.785-1.75,1.75-1.75h15
	c0.965,0,1.75,0.785,1.75,1.75v15C21.25,20.465,20.465,21.25,19.5,21.25z M4.5,3.25c-0.689,0-1.25,0.561-1.25,1.25v15
	c0,0.689,0.561,1.25,1.25,1.25h15c0.689,0,1.25-0.561,1.25-1.25v-15c0-0.689-0.561-1.25-1.25-1.25H4.5z"/>
<path style="fill:#333333;" d="M7.593,17.232l-0.32-0.338l0.566-1.223c0.218-0.47,0.12-1.072-0.262-1.611
	C7.036,13.296,6.75,12.411,6.75,11.5c0-2.619,2.355-4.75,5.25-4.75c2.895,0,5.25,2.131,5.25,4.75c0,1.976-1.374,3.766-3.42,4.454
	C13.243,16.15,12.628,16.25,12,16.25C10.073,16.25,7.617,17.223,7.593,17.232z M12,7.25c-2.619,0-4.75,1.907-4.75,4.25
	c0,0.807,0.254,1.593,0.735,2.271c0.487,0.687,0.602,1.476,0.308,2.111L7.98,16.558c0.866-0.299,2.558-0.808,4.02-0.808
	c0.573,0,1.136-0.091,1.671-0.271c1.842-0.619,3.079-2.219,3.079-3.979C16.75,9.157,14.619,7.25,12,7.25z"/>
</svg>






