<?xml version="1.0" encoding="iso-8859-1"?>
<svg version="1.1" id="&#x56FE;&#x5C42;_1" xmlns="http://www.w3.org/2000/svg" xmlns:xlink="http://www.w3.org/1999/xlink" x="0px"
	 y="0px" viewBox="0 0 24 24" style="enable-background:new 0 0 24 24;" xml:space="preserve">
<polygon style="fill:#333333;" points="5.25,21.404 5.25,18.75 1.75,18.75 1.75,3.25 22.25,3.25 22.25,9 21.75,9 21.75,3.75 
	2.25,3.75 2.25,18.25 5.75,18.25 5.75,20.596 10.5,18.25 12.75,18.25 12.75,18.75 10.559,18.75 "/>
<path style="fill:#333333;" d="M17,17.25c-1.792,0-3.25-1.458-3.25-3.25s1.458-3.25,3.25-3.25s3.25,1.458,3.25,3.25
	S18.792,17.25,17,17.25z M17,11.25c-1.517,0-2.75,1.233-2.75,2.75s1.233,2.75,2.75,2.75s2.75-1.233,2.75-2.75S18.517,11.25,17,11.25
	z"/>
<rect x="20.5" y="15.399" transform="matrix(0.6247 -0.7809 0.7809 0.6247 -5.4872 22.5832)" style="fill:#333333;" width="0.5" height="3.202"/>
<rect x="6" y="7.25" style="fill:#333333;" width="3" height="0.5"/>
<rect x="6" y="10.25" style="fill:#333333;" width="6" height="0.5"/>
</svg>






