<?xml version="1.0" encoding="iso-8859-1"?>
<svg version="1.1" id="&#x56FE;&#x5C42;_1" xmlns="http://www.w3.org/2000/svg" xmlns:xlink="http://www.w3.org/1999/xlink" x="0px"
	 y="0px" viewBox="0 0 24 24" style="enable-background:new 0 0 24 24;" xml:space="preserve">
<polygon style="fill:#333333;" points="5.25,21.404 5.25,18.75 1.75,18.75 1.75,3.25 22.25,3.25 22.25,9 21.75,9 21.75,3.75 
	2.25,3.75 2.25,18.25 5.75,18.25 5.75,20.596 10.5,18.25 12.75,18.25 12.75,18.75 10.559,18.75 "/>
<path style="fill:#333333;" d="M18,19.293l-0.13-0.079c-0.148-0.091-3.62-2.258-3.62-6.614c0-0.477,1.237-1.095,3.677-1.839
	L18,10.739l0.073,0.022c2.439,0.744,3.677,1.362,3.677,1.839c0,4.356-3.472,6.523-3.62,6.614L18,19.293z M14.75,12.627
	c0.014,3.59,2.63,5.638,3.25,6.072c0.622-0.436,3.25-2.493,3.25-6.1c-0.137-0.231-1.778-0.885-3.25-1.338
	C16.551,11.708,14.938,12.349,14.75,12.627z"/>
<rect x="6" y="7.25" style="fill:#333333;" width="3" height="0.5"/>
<rect x="6" y="10.25" style="fill:#333333;" width="6" height="0.5"/>
</svg>






