<?xml version="1.0" encoding="iso-8859-1"?>
<svg version="1.1" id="&#x56FE;&#x5C42;_1" xmlns="http://www.w3.org/2000/svg" xmlns:xlink="http://www.w3.org/1999/xlink" x="0px"
	 y="0px" viewBox="0 0 24 24" style="enable-background:new 0 0 24 24;" xml:space="preserve">
<path style="fill:#333333;" d="M20.5,17.25h-17c-0.689,0-1.25-0.561-1.25-1.25V6c0-0.689,0.561-1.25,1.25-1.25h17
	c0.689,0,1.25,0.561,1.25,1.25v10C21.75,16.689,21.189,17.25,20.5,17.25z M3.5,5.25C3.086,5.25,2.75,5.586,2.75,6v10
	c0,0.413,0.336,0.75,0.75,0.75h17c0.413,0,0.75-0.337,0.75-0.75V6c0-0.414-0.337-0.75-0.75-0.75H3.5z"/>
<rect x="10" y="9.25" style="fill:#333333;" width="2" height="0.5"/>
<rect x="6.5" y="12.25" style="fill:#333333;" width="11" height="0.5"/>
<rect x="5.75" y="17" style="fill:#333333;" width="0.5" height="2"/>
<rect x="9.75" y="17" style="fill:#333333;" width="0.5" height="2"/>
<rect x="13.75" y="17" style="fill:#333333;" width="0.5" height="2"/>
<rect x="17.75" y="17" style="fill:#333333;" width="0.5" height="2"/>
<path style="fill:#333333;" d="M7.5,9.5c0,0.552-0.448,1-1,1s-1-0.448-1-1s0.448-1,1-1S7.5,8.948,7.5,9.5z"/>
</svg>






