<?xml version="1.0" encoding="iso-8859-1"?>
<svg version="1.1" id="&#x56FE;&#x5C42;_1" xmlns="http://www.w3.org/2000/svg" xmlns:xlink="http://www.w3.org/1999/xlink" x="0px"
	 y="0px" viewBox="0 0 24 24" style="enable-background:new 0 0 24 24;" xml:space="preserve">
<path style="fill:none;" d="M22,13c0,1.32-0.365,2.554-1,3.608c-0.59,0.979-1.413,1.802-2.392,2.392c-1.054,0.635-2.288,1-3.608,1
	s-2.554-0.365-3.608-1C9.36,17.775,8,15.546,8,13s1.36-4.775,3.392-6C12.446,6.365,13.68,6,15,6s2.554,0.365,3.608,1
	C19.587,7.59,20.41,8.413,21,9.392C21.635,10.446,22,11.68,22,13z"/>
<path style="fill:none;" d="M2,7v12h9.392C9.36,17.775,8,15.546,8,13s1.36-4.775,3.392-6H2z"/>
<path style="fill:#333333;" d="M15,20.25c-1.296,0-2.565-0.346-3.676-1H1.75V6.75h9.574c2.221-1.309,5.131-1.309,7.352,0h2.574
	v2.574c0.654,1.11,1,2.38,1,3.676c0,1.296-0.346,2.565-1,3.676v2.574h-2.574C17.565,19.904,16.296,20.25,15,20.25z M11.521,18.786
	c2.094,1.262,4.863,1.262,6.957,0l0.115,0.191l-0.115-0.191c0.942-0.567,1.74-1.365,2.308-2.308l0.191,0.115l-0.191-0.115
	c0.631-1.047,0.964-2.25,0.964-3.479c0-1.229-0.333-2.432-0.964-3.479L21,9.393l-0.214,0.129c-0.567-0.941-1.365-1.739-2.308-2.307
	c-2.094-1.262-4.863-1.262-6.957,0C9.473,8.449,8.25,10.611,8.25,13S9.473,17.552,11.521,18.786L11.393,19L11.521,18.786z
	 M19.416,18.75h1.334v-1.334C20.365,17.916,19.916,18.365,19.416,18.75z M2.25,18.75h8.331C8.794,17.384,7.75,15.288,7.75,13
	s1.045-4.383,2.832-5.75H2.25V18.75z M19.416,7.25c0.5,0.385,0.949,0.834,1.334,1.334V7.25H19.416z"/>
<path style="fill:#333333;" d="M8.75,7.25h-5v-3h5V7.25z M4.25,6.75h4v-2h-4V6.75z"/>
<rect x="4.75" y="11" style="fill:#333333;" width="0.5" height="4"/>
<path style="fill:#333333;" d="M15,16.25v-0.5c1.517,0,2.75-1.233,2.75-2.75h0.5C18.25,14.792,16.792,16.25,15,16.25z M12.25,13
	h-0.5c0-1.792,1.458-3.25,3.25-3.25v0.5C13.483,10.25,12.25,11.483,12.25,13z"/>
</svg>






