<?xml version="1.0" encoding="iso-8859-1"?>
<svg version="1.1" id="&#x56FE;&#x5C42;_1" xmlns="http://www.w3.org/2000/svg" xmlns:xlink="http://www.w3.org/1999/xlink" x="0px"
	 y="0px" viewBox="0 0 24 24" style="enable-background:new 0 0 24 24;" xml:space="preserve">
<path style="fill:#333333;" d="M8.425,15.307C8.424,15.307,8.424,15.307,8.425,15.307c-0.201,0-0.389-0.078-0.53-0.22l-3.559-3.559
	l-0.021-0.258l0.094-0.124l6.844-6.844c1.17-1.168,3.073-1.17,4.243,0c1.169,1.169,1.169,3.073,0,4.243l-0.818,0.817L14.324,9.01
	l0.818-0.817c0.974-0.975,0.974-2.561,0-3.536c-0.976-0.976-2.562-0.974-3.536,0l-6.717,6.718l3.359,3.359
	c0.047,0.047,0.11,0.073,0.176,0.073h0c0.067,0,0.129-0.026,0.177-0.073l2.408-2.409l0.354,0.354l-2.408,2.409
	C8.813,15.229,8.625,15.307,8.425,15.307z"/>
<path style="fill:#333333;" d="M16.557,6.071l-2.829-2.829l1.061-1.061c0.779-0.781,2.05-0.779,2.829,0
	c0.378,0.377,0.586,0.88,0.586,1.414s-0.208,1.037-0.586,1.414L16.557,6.071z M14.435,3.243l2.122,2.122l0.707-0.708
	c0.283-0.283,0.439-0.66,0.439-1.061s-0.156-0.777-0.439-1.061c-0.585-0.584-1.536-0.586-2.122,0L14.435,3.243z"/>
<path style="fill:#333333;" d="M5.596,17.031l-2.828-2.828l2.475-2.475l2.829,2.828L5.596,17.031z M3.475,14.203l2.121,2.121
	l1.768-1.768l-2.122-2.121L3.475,14.203z"/>
<path style="fill:#333333;" d="M13.021,13.52c-0.64,0-1.28-0.243-1.768-0.73c-0.975-0.975-0.975-2.561,0-3.536
	c0.472-0.472,1.101-0.732,1.768-0.732c0.668,0,1.296,0.26,1.768,0.732l0,0l0,0c0.975,0.975,0.975,2.561,0,3.536
	C14.301,13.276,13.661,13.52,13.021,13.52z M13.021,9.021c-0.534,0-1.036,0.208-1.414,0.585c-0.779,0.78-0.779,2.049,0,2.829
	c0.78,0.78,2.049,0.779,2.828,0c0.78-0.78,0.78-2.049,0-2.829l0,0C14.057,9.229,13.555,9.021,13.021,9.021z"/>
<rect x="5.932" y="8.682" transform="matrix(0.7071 -0.7071 0.7071 0.7071 -7.5104 8.2317)" style="fill:#333333;" width="0.5" height="9"/>
<rect x="5" y="21.75" style="fill:#333333;" width="16" height="0.5"/>
<path style="fill:#333333;" d="M15.651,22.198l-0.303-0.396l0.298-0.226c1.435-1.081,3.604-2.714,3.604-5.576
	c0-2.934-1.946-4.75-3.75-4.75v-0.5c2.044,0,4.25,2.007,4.25,5.25c0,3.112-2.381,4.904-3.803,5.976L15.651,22.198z"/>
</svg>






