<?xml version="1.0" encoding="iso-8859-1"?>
<svg version="1.1" id="&#x56FE;&#x5C42;_1" xmlns="http://www.w3.org/2000/svg" xmlns:xlink="http://www.w3.org/1999/xlink" x="0px"
	 y="0px" viewBox="0 0 24 24" style="enable-background:new 0 0 24 24;" xml:space="preserve">
<path style="fill:#333333;" d="M14.933,17.677c-0.507,0-1.019-0.142-1.476-0.433l-6.091-3.876l0.115-0.46
	c0.022-0.002,2.229-0.191,3.732-1.696c1.504-1.503,1.694-3.709,1.696-3.732l0.46-0.115l3.876,6.091
	c0.695,1.093,0.541,2.496-0.375,3.412C16.336,17.402,15.639,17.677,14.933,17.677z M8.193,13.302l5.532,3.521
	c0.893,0.566,2.042,0.441,2.791-0.307c0.749-0.749,0.875-1.896,0.307-2.791l-3.521-5.532c-0.174,0.828-0.619,2.257-1.736,3.373
	C10.45,12.683,9.021,13.128,8.193,13.302z"/>
<path style="fill:#333333;" d="M7.5,13.25c-3.17,0-5.75-2.58-5.75-5.75S4.33,1.75,7.5,1.75s5.75,2.58,5.75,5.75
	S10.67,13.25,7.5,13.25z M7.5,2.25c-2.895,0-5.25,2.355-5.25,5.25s2.355,5.25,5.25,5.25s5.25-2.355,5.25-5.25S10.395,2.25,7.5,2.25z
	"/>
<rect x="0.778" y="7.529" transform="matrix(0.7071 -0.7071 0.7071 0.7071 -3.2221 7.7782)" style="fill:#333333;" width="14" height="0.5"/>
<polygon style="fill:#333333;" points="21,20.75 16.5,20.75 16.5,20.25 20.396,20.25 16.823,16.677 17.177,16.323 21.177,20.323 "/>
</svg>






