<?xml version="1.0" encoding="iso-8859-1"?>
<svg version="1.1" id="&#x56FE;&#x5C42;_1" xmlns="http://www.w3.org/2000/svg" xmlns:xlink="http://www.w3.org/1999/xlink" x="0px"
	 y="0px" viewBox="0 0 24 24" style="enable-background:new 0 0 24 24;" xml:space="preserve">
<path style="fill:#333333;" d="M18.5,21.75H5c-0.689,0-1.25-0.561-1.25-1.25v-2.62l2.5-2v-1.63h-2.5v-1.841l2.5-3V3.5
	c0-0.689,0.561-1.25,1.25-1.25h11c0.689,0,1.25,0.561,1.25,1.25v17C19.75,21.189,19.189,21.75,18.5,21.75z M4.25,18.12v2.38
	c0,0.413,0.336,0.75,0.75,0.75h13.5c0.413,0,0.75-0.337,0.75-0.75v-17c0-0.414-0.337-0.75-0.75-0.75h-11
	c-0.414,0-0.75,0.336-0.75,0.75v6.09l-2.5,3v1.159h2.5v2.37L4.25,18.12z"/>
<rect x="15.75" y="5.5" style="fill:#333333;" width="0.5" height="2"/>
<rect x="9.75" y="5.5" style="fill:#333333;" width="0.5" height="2"/>
<rect x="12.75" y="5.5" style="fill:#333333;" width="0.5" height="2"/>
</svg>






