<?xml version="1.0" encoding="iso-8859-1"?>
<svg version="1.1" id="&#x56FE;&#x5C42;_1" xmlns="http://www.w3.org/2000/svg" xmlns:xlink="http://www.w3.org/1999/xlink" x="0px"
	 y="0px" viewBox="0 0 24 24" style="enable-background:new 0 0 24 24;" xml:space="preserve">
<path style="fill:#333333;" d="M12,16.25c-2.343,0-4.25-1.906-4.25-4.25V6c0-2.343,1.907-4.25,4.25-4.25
	c2.344,0,4.25,1.907,4.25,4.25v6C16.25,14.344,14.344,16.25,12,16.25z M12,2.25C9.932,2.25,8.25,3.932,8.25,6v6
	c0,2.067,1.682,3.75,3.75,3.75c2.067,0,3.75-1.683,3.75-3.75V6C15.75,3.932,14.067,2.25,12,2.25z"/>
<path style="fill:#333333;" d="M12,19.25c-3.998,0-7.25-3.252-7.25-7.25v-1.5h0.5V12c0,3.722,3.028,6.75,6.75,6.75
	c3.722,0,6.75-3.028,6.75-6.75v-1.5h0.5V12C19.25,15.998,15.998,19.25,12,19.25z"/>
<rect x="11.75" y="2.5" style="fill:#333333;" width="0.5" height="3"/>
<rect x="8" y="7.75" style="fill:#333333;" width="2.5" height="0.5"/>
<rect x="13.5" y="7.75" style="fill:#333333;" width="2.5" height="0.5"/>
<rect x="8" y="10.75" style="fill:#333333;" width="2.5" height="0.5"/>
<rect x="13.5" y="10.75" style="fill:#333333;" width="2.5" height="0.5"/>
<rect x="11.75" y="19" style="fill:#333333;" width="0.5" height="3"/>
<rect x="8" y="21.75" style="fill:#333333;" width="8" height="0.5"/>
</svg>






