<?xml version="1.0" encoding="iso-8859-1"?>
<svg version="1.1" id="&#x56FE;&#x5C42;_1" xmlns="http://www.w3.org/2000/svg" xmlns:xlink="http://www.w3.org/1999/xlink" x="0px"
	 y="0px" viewBox="0 0 24 24" style="enable-background:new 0 0 24 24;" xml:space="preserve">
<path style="fill:#333333;" d="M13.143,22.205l-0.285-0.41c2.1-1.453,3.232-2.927,3.368-4.379c0.136-1.454-0.285-2.505-1.287-3.212
	l0.289-0.408c1.145,0.808,1.647,2.041,1.496,3.667C16.573,19.069,15.368,20.665,13.143,22.205z"/>
<path style="fill:#333333;" d="M13.828,14.361c-1.379,0-2.5-1.121-2.5-2.5c0-1.378,1.122-2.5,2.5-2.5s2.5,1.122,2.5,2.5
	C16.328,13.24,15.207,14.361,13.828,14.361z M13.828,9.861c-1.104,0-2,0.897-2,2c0,1.103,0.897,2,2,2c1.103,0,2-0.897,2-2
	C15.828,10.758,14.931,9.861,13.828,9.861z"/>
<polygon style="fill:#333333;" points="9.39,16.644 4.439,11.692 13.985,2.146 18.936,7.096 15.665,10.366 15.312,10.013 
	18.229,7.096 13.985,2.854 5.146,11.692 9.388,15.935 11.967,13.324 12.322,13.676 "/>
<rect x="4.994" y="13.24" transform="matrix(0.6988 -0.7154 0.7154 0.6988 -9.8569 8.5678)" style="fill:#333333;" width="0.5" height="5.495"/>
<rect x="3" y="21.75" style="fill:#333333;" width="18" height="0.5"/>
</svg>






