<?xml version="1.0" encoding="iso-8859-1"?>
<svg version="1.1" id="&#x56FE;&#x5C42;_1" xmlns="http://www.w3.org/2000/svg" xmlns:xlink="http://www.w3.org/1999/xlink" x="0px"
	 y="0px" viewBox="0 0 24 24" style="enable-background:new 0 0 24 24;" xml:space="preserve">
<path style="fill:#333333;" d="M15.84,22.25H9.895c-2.455,0-5.15-3.01-5.15-5.75c0-1.844,0.907-2.939,2.697-3.259l0.088,0.492
	c-1.538,0.274-2.285,1.179-2.285,2.767c0,2.453,2.477,5.25,4.65,5.25h5.945c2.192,0,3.405-1.903,3.405-3.22v-6.525
	c0-0.689-0.561-1.25-1.25-1.25c-0.691,0-1.25,0.559-1.25,1.245h-0.5c0-0.962,0.783-1.745,1.746-1.745
	c0.969,0,1.754,0.785,1.754,1.75v6.525C19.745,20.326,18.176,22.25,15.84,22.25z"/>
<path style="fill:#333333;" d="M7.736,15.021h-0.5v-4.514c0-0.965,0.786-1.751,1.751-1.751c0.968,0,1.754,0.788,1.754,1.754v2.002
	h-0.5V10.51c0-0.691-0.562-1.254-1.253-1.254c-0.691,0-1.253,0.561-1.253,1.251V15.021z"/>
<path style="fill:#333333;" d="M13.757,12.004h-0.5V3.508c0-0.693-0.564-1.258-1.257-1.258c-0.693,0-1.258,0.564-1.258,1.258v8.496
	h-0.5V3.508c0-0.969,0.789-1.758,1.758-1.758s1.757,0.789,1.757,1.758V12.004z"/>
<path style="fill:#333333;" d="M16.745,12.002h-0.5v-1.5c0-0.689-0.561-1.25-1.25-1.25s-1.25,0.561-1.25,1.25v1.356h-0.5v-1.356
	c0-0.965,0.785-1.75,1.75-1.75s1.75,0.785,1.75,1.75V12.002z"/>
</svg>






