<?xml version="1.0" encoding="iso-8859-1"?>
<svg version="1.1" id="&#x56FE;&#x5C42;_1" xmlns="http://www.w3.org/2000/svg" xmlns:xlink="http://www.w3.org/1999/xlink" x="0px"
	 y="0px" viewBox="0 0 24 24" style="enable-background:new 0 0 24 24;" xml:space="preserve">
<path style="fill:#333333;" d="M16.25,22.25H2.75v-11.5h13.5V22.25z M3.25,21.75h12.5v-10.5H3.25V21.75z"/>
<polygon style="fill:#333333;" points="12.25,19 11.75,19 11.75,14.69 9.5,17.391 7.25,14.69 7.25,19 6.75,19 6.75,14 7.192,13.84 
	9.5,16.609 11.808,13.84 12.25,14 "/>
<rect x="17.75" y="3.595" transform="matrix(0.6402 -0.7682 0.7682 0.6402 0.715 16.5266)" style="fill:#333333;" width="0.5" height="7.81"/>
<path style="fill:#333333;" d="M9.75,6.305v-3.51l5.5-1.1v3.51L9.75,6.305z M10.25,3.205v2.49l4.5-0.9v-2.49L10.25,3.205z"/>
<path style="fill:#333333;" d="M15.75,22.336V10.795l5.5-1.1v10.991L15.75,22.336z M16.25,11.205v10.459l4.5-1.35V10.305
	L16.25,11.205z"/>
<path style="fill:#333333;" d="M16,11.25H3l-0.149-0.451l6.896-5.115l6.41,5.12L16,11.25z M3.757,10.75h11.529L9.735,6.315
	L3.757,10.75z"/>
</svg>






