<?xml version="1.0" encoding="iso-8859-1"?>
<svg version="1.1" id="&#x56FE;&#x5C42;_1" xmlns="http://www.w3.org/2000/svg" xmlns:xlink="http://www.w3.org/1999/xlink" x="0px"
	 y="0px" viewBox="0 0 24 24" style="enable-background:new 0 0 24 24;" xml:space="preserve">
<polygon style="fill:#333333;" points="22,22.25 1.75,22.25 1.75,2 2.25,2 2.25,21.75 22,21.75 "/>
<path style="fill:#333333;" d="M13.5,19.25c-5.989,0-8.637-16.509-8.747-17.211l0.494-0.077C5.273,2.129,7.936,18.75,13.5,18.75
	s8.227-16.621,8.253-16.789l0.494,0.077C22.137,2.741,19.489,19.25,13.5,19.25z"/>
<path style="fill:#333333;" d="M22,19.25h-1v-0.5h1V19.25z M18,19.25h-1v-0.5h1V19.25z M14,19.25h-1v-0.5h1V19.25z M10,19.25H9v-0.5
	h1V19.25z M6,19.25H5v-0.5h1V19.25z"/>
</svg>






