<?xml version="1.0" encoding="iso-8859-1"?>
<svg version="1.1" id="&#x56FE;&#x5C42;_1" xmlns="http://www.w3.org/2000/svg" xmlns:xlink="http://www.w3.org/1999/xlink" x="0px"
	 y="0px" viewBox="0 0 24 24" style="enable-background:new 0 0 24 24;" xml:space="preserve">
<path style="fill:#333333;" d="M4,14.25c-1.241,0-2.25-1.01-2.25-2.25c0-1.241,1.009-2.25,2.25-2.25S6.25,10.759,6.25,12
	C6.25,13.24,5.241,14.25,4,14.25z M4,10.25c-0.965,0-1.75,0.785-1.75,1.75S3.035,13.75,4,13.75S5.75,12.965,5.75,12
	S4.965,10.25,4,10.25z"/>
<path style="fill:#333333;" d="M21,4.25c-0.689,0-1.25-0.561-1.25-1.25S20.311,1.75,21,1.75S22.25,2.311,22.25,3
	S21.689,4.25,21,4.25z M21,2.25c-0.413,0-0.75,0.336-0.75,0.75S20.587,3.75,21,3.75S21.75,3.414,21.75,3S21.413,2.25,21,2.25z"/>
<path style="fill:#333333;" d="M21,13.25c-0.689,0-1.25-0.561-1.25-1.25s0.561-1.25,1.25-1.25s1.25,0.561,1.25,1.25
	S21.689,13.25,21,13.25z M21,11.25c-0.413,0-0.75,0.336-0.75,0.75c0,0.413,0.337,0.75,0.75,0.75s0.75-0.337,0.75-0.75
	C21.75,11.586,21.413,11.25,21,11.25z"/>
<path style="fill:#333333;" d="M21,22.25c-0.689,0-1.25-0.561-1.25-1.25s0.561-1.25,1.25-1.25s1.25,0.561,1.25,1.25
	S21.689,22.25,21,22.25z M21,20.25c-0.413,0-0.75,0.337-0.75,0.75s0.337,0.75,0.75,0.75s0.75-0.337,0.75-0.75S21.413,20.25,21,20.25
	z"/>
<polygon style="fill:#333333;" points="16,21.25 9.75,21.25 9.75,2.75 16,2.75 16,3.25 10.25,3.25 10.25,20.75 16,20.75 "/>
<rect x="6" y="11.75" style="fill:#333333;" width="10" height="0.5"/>
</svg>






