<?xml version="1.0" encoding="iso-8859-1"?>
<svg version="1.1" id="&#x56FE;&#x5C42;_1" xmlns="http://www.w3.org/2000/svg" xmlns:xlink="http://www.w3.org/1999/xlink" x="0px"
	 y="0px" viewBox="0 0 24 24" style="enable-background:new 0 0 24 24;" xml:space="preserve">
<path style="fill:#333333;" d="M13.5,21.75h-10c-0.689,0-1.25-0.561-1.25-1.25v-10c0-0.689,0.561-1.25,1.25-1.25h5
	c0.689,0,1.25,0.561,1.25,1.25v3c0,0.413,0.336,0.75,0.75,0.75h3c0.689,0,1.25,0.561,1.25,1.25v5
	C14.75,21.189,14.189,21.75,13.5,21.75z M3.5,9.75c-0.414,0-0.75,0.336-0.75,0.75v10c0,0.413,0.336,0.75,0.75,0.75h10
	c0.413,0,0.75-0.337,0.75-0.75v-5c0-0.413-0.337-0.75-0.75-0.75h-3c-0.689,0-1.25-0.561-1.25-1.25v-3c0-0.414-0.336-0.75-0.75-0.75
	H3.5z"/>
<path style="fill:#333333;" d="M20.5,14.75h-10c-0.689,0-1.25-0.561-1.25-1.25v-10c0-0.689,0.561-1.25,1.25-1.25h10
	c0.689,0,1.25,0.561,1.25,1.25v10C21.75,14.189,21.189,14.75,20.5,14.75z M10.5,2.75c-0.414,0-0.75,0.336-0.75,0.75v10
	c0,0.413,0.336,0.75,0.75,0.75h10c0.413,0,0.75-0.337,0.75-0.75v-10c0-0.414-0.337-0.75-0.75-0.75H10.5z"/>
</svg>






