<?xml version="1.0" encoding="iso-8859-1"?>
<svg version="1.1" id="&#x56FE;&#x5C42;_1" xmlns="http://www.w3.org/2000/svg" xmlns:xlink="http://www.w3.org/1999/xlink" x="0px"
	 y="0px" viewBox="0 0 24 24" style="enable-background:new 0 0 24 24;" xml:space="preserve">
<path style="fill:#333333;" d="M17,22.25H7c-2.251,0-3.75-0.383-3.75-2.25v-3.25h5.945l0.5,2h5.109l0.5-2h5.445V20
	C20.75,21.867,19.251,22.25,17,22.25z M3.75,17.25V20c0,1.135,0.518,1.75,3.25,1.75h10c2.732,0,3.25-0.615,3.25-1.75v-2.75h-4.555
	l-0.5,2H9.305l-0.5-2H3.75z"/>
<path style="fill:#333333;" d="M18.209,17.137l-0.418-0.273l0.303-0.457c0.961-1.438,2.156-3.227,2.156-5.479
	c0-4.947-3.547-8.677-8.25-8.677s-8.25,3.73-8.25,8.677c0,2.252,1.195,4.042,2.156,5.479l0.303,0.457l-0.418,0.273L5.49,16.685
	c-0.998-1.494-2.24-3.354-2.24-5.757C3.25,5.695,7.012,1.75,12,1.75s8.75,3.945,8.75,9.177c0,2.404-1.242,4.263-2.24,5.757
	L18.209,17.137z"/>
</svg>






