<?xml version="1.0" encoding="iso-8859-1"?>
<svg version="1.1" id="&#x56FE;&#x5C42;_1" xmlns="http://www.w3.org/2000/svg" xmlns:xlink="http://www.w3.org/1999/xlink" x="0px"
	 y="0px" viewBox="0 0 24 24" style="enable-background:new 0 0 24 24;" xml:space="preserve">
<path style="fill:#333333;" d="M12,15.466L8.204,9.5L12,3.534L15.796,9.5L12,15.466z M8.796,9.5L12,14.534L15.204,9.5L12,4.466
	L8.796,9.5z"/>
<path style="fill:#333333;" d="M22,20.25h-6.801l-3.407-5.111L12,14.75h6.801l3.407,5.111L22,20.25z M15.467,19.75h6.066l-3-4.5
	h-6.066L15.467,19.75z"/>
<path style="fill:#333333;" d="M8.8,20.25H2l-0.208-0.389L5.2,14.75H12l0.208,0.389L8.8,20.25z M2.467,19.75h6.065l3-4.5H5.467
	L2.467,19.75z"/>
</svg>






