<?xml version="1.0" encoding="iso-8859-1"?>
<svg version="1.1" id="&#x56FE;&#x5C42;_1" xmlns="http://www.w3.org/2000/svg" xmlns:xlink="http://www.w3.org/1999/xlink" x="0px"
	 y="0px" viewBox="0 0 24 24" style="enable-background:new 0 0 24 24;" xml:space="preserve">
<path style="fill:#333333;" d="M5.616,9.212L3.495,7.091c-0.236-0.236-0.366-0.55-0.366-0.884c0-0.333,0.13-0.647,0.366-0.884
	l2.829-2.829c0.487-0.487,1.281-0.487,1.768,0l2.121,2.122L9.858,4.97L7.737,2.848c-0.292-0.292-0.769-0.292-1.061,0L3.848,5.677
	c-0.142,0.142-0.22,0.33-0.22,0.53c0,0.201,0.078,0.389,0.22,0.53L5.97,8.859L5.616,9.212z"/>
<path style="fill:#333333;" d="M17.293,21.37c-0.32,0-0.641-0.121-0.884-0.365l-2.122-2.121l0.354-0.354l2.122,2.121
	c0.293,0.293,0.768,0.293,1.061,0l2.828-2.828c0.292-0.292,0.292-0.769,0-1.061l-2.121-2.121l0.354-0.354l2.121,2.121
	c0.487,0.487,0.487,1.28,0,1.768l-2.828,2.828C17.934,21.249,17.613,21.37,17.293,21.37z"/>
<path style="fill:#333333;" d="M6.697,21.381c-0.32,0-0.641-0.121-0.884-0.365l-2.828-2.828c-0.236-0.236-0.366-0.551-0.366-0.885
	s0.13-0.647,0.366-0.883L16.419,2.984c0.487-0.486,1.279-0.488,1.769,0l2.828,2.829c0.487,0.487,0.487,1.28,0,1.768L7.581,21.016
	C7.337,21.26,7.017,21.381,6.697,21.381z M17.303,3.119c-0.191,0-0.384,0.073-0.53,0.219L3.338,16.773
	c-0.142,0.142-0.22,0.329-0.22,0.529c0,0.201,0.078,0.39,0.22,0.531l2.828,2.828c0.294,0.294,0.769,0.292,1.061,0L20.662,7.227
	c0.292-0.292,0.292-0.768,0-1.061l-2.828-2.829C17.688,3.191,17.495,3.119,17.303,3.119z"/>
<circle style="fill:#333333;" cx="12" cy="12" r="1"/>
<circle style="fill:#333333;" cx="10" cy="14" r="1"/>
<circle style="fill:#333333;" cx="14" cy="10" r="1"/>
</svg>






