<?xml version="1.0" encoding="iso-8859-1"?>
<svg version="1.1" id="&#x56FE;&#x5C42;_1" xmlns="http://www.w3.org/2000/svg" xmlns:xlink="http://www.w3.org/1999/xlink" x="0px"
	 y="0px" viewBox="0 0 24 24" style="enable-background:new 0 0 24 24;" xml:space="preserve">
<path style="fill:#333333;" d="M20.5,17.25h-17c-0.689,0-1.25-0.561-1.25-1.25V4c0-0.689,0.561-1.25,1.25-1.25h17
	c0.689,0,1.25,0.561,1.25,1.25v12C21.75,16.689,21.189,17.25,20.5,17.25z M3.5,3.25C3.086,3.25,2.75,3.586,2.75,4v12
	c0,0.413,0.336,0.75,0.75,0.75h17c0.413,0,0.75-0.337,0.75-0.75V4c0-0.414-0.337-0.75-0.75-0.75H3.5z"/>
<path style="fill:#333333;" d="M20.5,17.25h-17c-0.689,0-1.25-0.561-1.25-1.25v-3c0-0.689,0.561-1.25,1.25-1.25h17
	c0.689,0,1.25,0.561,1.25,1.25v3C21.75,16.689,21.189,17.25,20.5,17.25z M3.5,12.25c-0.414,0-0.75,0.337-0.75,0.75v3
	c0,0.413,0.336,0.75,0.75,0.75h17c0.413,0,0.75-0.337,0.75-0.75v-3c0-0.413-0.337-0.75-0.75-0.75H3.5z"/>
<rect x="8.399" y="7" transform="matrix(0.6247 -0.7809 0.7809 0.6247 -1.9082 10.5296)" style="fill:#333333;" width="3.202" height="0.5"/>
<rect x="12" y="7.75" transform="matrix(0.5994 -0.8005 0.8005 0.5994 -1.0955 13.8112)" style="fill:#333333;" width="2.5" height="0.5"/>
<circle style="fill:#333333;" cx="12" cy="14.5" r="1"/>
<polygon style="fill:#333333;" points="17.36,21.25 6.639,21.25 8.266,16.912 8.734,17.088 7.361,20.75 16.64,20.75 15.266,17.088 
	15.734,16.912 "/>
</svg>






