<?xml version="1.0" encoding="iso-8859-1"?>
<svg version="1.1" id="&#x56FE;&#x5C42;_1" xmlns="http://www.w3.org/2000/svg" xmlns:xlink="http://www.w3.org/1999/xlink" x="0px"
	 y="0px" viewBox="0 0 24 24" style="enable-background:new 0 0 24 24;" xml:space="preserve">
<path style="fill:#333333;" d="M12,22.25c-2.7,0-5.248-1.04-7.175-2.93c-0.947-0.929-1.694-2.012-2.222-3.22l0.458-0.201
	c0.502,1.15,1.213,2.181,2.114,3.063C7.008,20.761,9.432,21.75,12,21.75c5.293,0,9.613-4.239,9.747-9.5H17.37l-3.334-4.763
	l-4.312,8.624l-0.436,0.021L6.861,12.25H1.75V12C1.75,6.348,6.348,1.75,12,1.75c2.837,0,5.476,1.133,7.432,3.19
	c0.878,0.924,1.567,1.987,2.05,3.158l-0.463,0.19c-0.458-1.114-1.114-2.125-1.95-3.004C17.209,3.328,14.698,2.25,12,2.25
	c-5.292,0-9.614,4.239-9.747,9.5h4.886l2.337,3.739l4.488-8.977l3.666,5.237h4.62V12C22.25,17.652,17.652,22.25,12,22.25z"/>
</svg>






