<?xml version="1.0" encoding="iso-8859-1"?>
<svg version="1.1" id="&#x56FE;&#x5C42;_1" xmlns="http://www.w3.org/2000/svg" xmlns:xlink="http://www.w3.org/1999/xlink" x="0px"
	 y="0px" viewBox="0 0 24 24" style="enable-background:new 0 0 24 24;" xml:space="preserve">
<path style="fill:#333333;" d="M6.378,10.616C5.961,9.819,5.75,8.962,5.75,8.069C5.75,4.86,8.554,2.25,12,2.25s6.25,2.61,6.25,5.819
	c0,0.892-0.211,1.749-0.628,2.546l-0.443-0.231c0.379-0.725,0.571-1.504,0.571-2.315c0-2.933-2.579-5.319-5.75-5.319
	c-3.17,0-5.75,2.386-5.75,5.319c0,0.811,0.192,1.59,0.572,2.315L6.378,10.616z"/>
<path style="fill:#333333;" d="M12,21.75c-4.273,0-7.75-2.804-7.75-6.25S7.727,9.25,12,9.25s7.75,2.804,7.75,6.25
	S16.273,21.75,12,21.75z M12,9.75c-3.998,0-7.25,2.579-7.25,5.75s3.252,5.75,7.25,5.75c3.998,0,7.25-2.579,7.25-5.75
	S15.998,9.75,12,9.75z"/>
<path style="fill:#333333;" d="M11.986,18.527c-1.315,0-2.645-0.512-3.663-1.529l0.354-0.354c1.798,1.798,4.671,1.848,6.405,0.116
	l0.354,0.354C14.491,18.058,13.246,18.527,11.986,18.527z"/>
<path style="fill:#333333;" d="M6,11.75c-1.792,0-3.25-1.233-3.25-2.75S4.208,6.25,6,6.25v0.5C4.483,6.75,3.25,7.759,3.25,9
	S4.483,11.25,6,11.25V11.75z"/>
<path style="fill:#333333;" d="M18,11.75v-0.5c1.517,0,2.75-1.009,2.75-2.25S19.517,6.75,18,6.75v-0.5c1.792,0,3.25,1.233,3.25,2.75
	S19.792,11.75,18,11.75z"/>
<circle style="fill:#333333;" cx="10" cy="7" r="1"/>
<circle style="fill:#333333;" cx="14" cy="7" r="1"/>
</svg>






