<?xml version="1.0" encoding="iso-8859-1"?>
<svg version="1.1" id="&#x56FE;&#x5C42;_1" xmlns="http://www.w3.org/2000/svg" xmlns:xlink="http://www.w3.org/1999/xlink" x="0px"
	 y="0px" viewBox="0 0 24 24" style="enable-background:new 0 0 24 24;" xml:space="preserve">
<path style="fill:#333333;" d="M2.25,22h-0.5V7c0.257-2.841,1.507-4.07,2.511-4.604c1.562-0.83,3.459-0.543,4.645,0.107l0.089,0.049
	l0.03,0.097c0.424,1.395,0.713,2.262,1.153,2.547c0.887,0.469,1.412,1.091,1.542,1.837c0.149,0.864-0.284,1.704-0.739,2.202
	l-0.369-0.338c0.375-0.41,0.734-1.093,0.615-1.778c-0.102-0.586-0.54-1.088-1.302-1.492C9.355,5.26,9.058,4.471,8.577,2.896
	C7.533,2.359,5.846,2.12,4.496,2.838c-1.283,0.683-2.06,2.13-2.247,4.185L2.25,22z"/>
<path style="fill:#333333;" d="M18.626,22.305c-0.051,0-0.103-0.001-0.153-0.003c-1.24-0.052-2.302-0.723-2.704-1.707
	c-1.979-5.36-5.145-7.053-7.354-7.86l0.172-0.469c3.609,1.318,6.111,3.983,7.648,8.147c0.32,0.784,1.229,1.346,2.259,1.389
	c0.612,0.03,2.114-0.111,3.034-1.915c0.229-0.448,0.252-1.017,0.065-1.559c-0.186-0.537-0.667-1.3-1.907-1.876
	c-1.084-0.504-1.926-1.731-1.917-2.794c0.007-0.824,0.497-1.494,1.38-1.887c1.203-0.393,2.312,0.197,3.071,1.61l-0.439,0.236
	c-0.644-1.196-1.512-1.685-2.453-1.381c-0.679,0.304-1.053,0.8-1.059,1.425c-0.007,0.868,0.723,1.916,1.628,2.337
	c1.399,0.65,1.952,1.537,2.169,2.167c0.231,0.669,0.197,1.379-0.093,1.947C21.269,21.495,20.025,22.305,18.626,22.305z"/>
<path style="fill:#333333;" d="M7.749,22.021l-0.498-0.041c0.142-1.74,0.819-3.055,2.013-3.907c1.647-1.176,3.883-1.175,5.298-0.814
	l-0.123,0.484c-1.415-0.359-3.473-0.271-4.884,0.737C8.486,19.242,7.878,20.434,7.749,22.021z"/>
</svg>






