<?xml version="1.0" encoding="iso-8859-1"?>
<svg version="1.1" id="&#x56FE;&#x5C42;_1" xmlns="http://www.w3.org/2000/svg" xmlns:xlink="http://www.w3.org/1999/xlink" x="0px"
	 y="0px" viewBox="0 0 24 24" style="enable-background:new 0 0 24 24;" xml:space="preserve">
<path style="fill:#333333;" d="M12,22.25C6.348,22.25,1.75,17.652,1.75,12C1.75,6.348,6.348,1.75,12,1.75
	c5.652,0,10.25,4.598,10.25,10.25C22.25,17.652,17.652,22.25,12,22.25z M12,2.25c-5.376,0-9.75,4.374-9.75,9.75
	s4.374,9.75,9.75,9.75s9.75-4.374,9.75-9.75S17.376,2.25,12,2.25z"/>
<path style="fill-rule:evenodd;clip-rule:evenodd;fill:#333333;" d="M10.75,7c0,0.69,0.56,1.25,1.25,1.25S13.25,7.69,13.25,7
	S12.69,5.75,12,5.75S10.75,6.31,10.75,7z M10.75,12c0,0.69,0.56,1.25,1.25,1.25s1.25-0.56,1.25-1.25s-0.56-1.25-1.25-1.25
	S10.75,11.31,10.75,12z M12,18.25c-0.69,0-1.25-0.56-1.25-1.25s0.56-1.25,1.25-1.25s1.25,0.56,1.25,1.25S12.69,18.25,12,18.25z"/>
</svg>






