<?xml version="1.0" encoding="iso-8859-1"?>
<svg version="1.1" id="&#x56FE;&#x5C42;_1" xmlns="http://www.w3.org/2000/svg" xmlns:xlink="http://www.w3.org/1999/xlink" x="0px"
	 y="0px" viewBox="0 0 24 24" style="enable-background:new 0 0 24 24;" xml:space="preserve">
<path style="fill:#333333;" d="M22,18h-4v4h4V18z"/>
<path style="fill:#333333;" d="M14,18h-4v4h4V18z"/>
<path style="fill:#333333;" d="M6,18H2v4h4V18z"/>
<path style="fill:#333333;" d="M22,10h-4v4h4V10z"/>
<path style="fill:#333333;" d="M14,10h-4v4h4V10z"/>
<path style="fill:#333333;" d="M6,10H2v4h4V10z"/>
<path style="fill:#333333;" d="M22,2h-4v4h4V2z"/>
<path style="fill:#333333;" d="M14,2h-4v4h4V2z"/>
<path style="fill:#333333;" d="M6,2H2v4h4V2z"/>
<path style="fill:#333333;" d="M10,6H6v4h4V6z"/>
<path style="fill:#333333;" d="M10,14H6v4h4V14z"/>
<path style="fill:#333333;" d="M18,6h-4v4h4V6z"/>
<path style="fill:#333333;" d="M18,14h-4v4h4V14z"/>
</svg>






