<?xml version="1.0" encoding="iso-8859-1"?>
<svg version="1.1" id="&#x56FE;&#x5C42;_1" xmlns="http://www.w3.org/2000/svg" xmlns:xlink="http://www.w3.org/1999/xlink" x="0px"
	 y="0px" viewBox="0 0 24 24" style="enable-background:new 0 0 24 24;" xml:space="preserve">
<path style="fill:#333333;" d="M12,22.25c-3.446,0-6.25-2.804-6.25-6.25v-4c0-3.446,2.804-6.25,6.25-6.25s6.25,2.804,6.25,6.25v4
	C18.25,19.446,15.446,22.25,12,22.25z M12,6.25c-3.17,0-5.75,2.58-5.75,5.75v4c0,3.171,2.58,5.75,5.75,5.75
	c3.171,0,5.75-2.579,5.75-5.75v-4C17.75,8.83,15.171,6.25,12,6.25z"/>
<path style="fill:#333333;" d="M18.25,12.75H5.75V12c0-3.446,2.804-6.25,6.25-6.25s6.25,2.804,6.25,6.25V12.75z M6.25,12.25h11.5V12
	c0-3.17-2.579-5.75-5.75-5.75c-3.17,0-5.75,2.58-5.75,5.75V12.25z"/>
<path style="fill:#333333;" d="M12.25,12.5h-0.5V6c0-2.741,1.332-4.25,3.75-4.25c3.137,0,4.25,2.559,4.25,4.75h-0.5
	c0-1.96-0.982-4.25-3.75-4.25c-2.687,0-3.25,2.039-3.25,3.75V12.5z"/>
</svg>






