<?xml version="1.0" encoding="iso-8859-1"?>
<svg version="1.1" id="&#x56FE;&#x5C42;_1" xmlns="http://www.w3.org/2000/svg" xmlns:xlink="http://www.w3.org/1999/xlink" x="0px"
	 y="0px" viewBox="0 0 24 24" style="enable-background:new 0 0 24 24;" xml:space="preserve">
<path style="fill:#333333;" d="M9.5,17.75H1.75V17.5c0-4.039,2.546-9.25,5.25-9.25h0.201l1.043,4.695l-0.488,0.109L6.802,8.762
	C4.678,9.02,2.35,13.346,2.253,17.25H9.5V17.75z"/>
<path style="fill:#333333;" d="M14.25,17.5h-0.5c0-1.438,0.322-2.429,1.013-3.118c0.763-0.762,1.979-1.132,3.721-1.132
	c0.006,0,0.011,0,0.017,0v0.5c-0.006,0-0.012,0-0.017,0c-1.602,0-2.703,0.322-3.367,0.985C14.525,15.325,14.25,16.204,14.25,17.5z"
	/>
<path style="fill:#333333;" d="M20.618,17.397c-0.247,0-0.497-0.058-0.729-0.174c-0.707-0.354-0.873-1.42-1.063-2.654
	c-0.123-0.791-0.262-1.688-0.56-2.481c-0.648-1.731-2.133-2.964-4.071-3.384c-2.308-0.5-4.802,0.257-6.518,1.973l-0.354-0.354
	c1.835-1.835,4.511-2.642,6.977-2.108c2.108,0.457,3.725,1.804,4.435,3.697c0.315,0.841,0.458,1.766,0.585,2.581
	c0.17,1.098,0.316,2.045,0.792,2.283c0.385,0.192,0.831,0.154,1.163-0.102c0.525-0.402,0.701-1.261,0.48-2.357l0.49-0.098
	c0.355,1.767-0.266,2.545-0.667,2.853C21.296,17.288,20.959,17.397,20.618,17.397z"/>
</svg>






