<?xml version="1.0" encoding="iso-8859-1"?>
<svg version="1.1" id="&#x56FE;&#x5C42;_1" xmlns="http://www.w3.org/2000/svg" xmlns:xlink="http://www.w3.org/1999/xlink" x="0px"
	 y="0px" viewBox="0 0 24 24" style="enable-background:new 0 0 24 24;" xml:space="preserve">
<path style="fill:#333333;" d="M12,22.25c-3.446,0-6.25-2.804-6.25-6.25V7.75h12.5V16C18.25,19.446,15.446,22.25,12,22.25z
	 M6.25,8.25V16c0,3.171,2.58,5.75,5.75,5.75c3.171,0,5.75-2.579,5.75-5.75V8.25H6.25z"/>
<path style="fill:#333333;" d="M18.25,8.25h-6.5v-6.5H12c3.446,0,6.25,2.804,6.25,6.25V8.25z M12.25,7.75h5.495
	c-0.128-2.972-2.523-5.367-5.495-5.495V7.75z"/>
<path style="fill:#333333;" d="M12.25,8.25h-6.5V8c0-3.446,2.804-6.25,6.25-6.25h0.25V8.25z M6.255,7.75h5.495V2.255
	C8.778,2.383,6.383,4.778,6.255,7.75z"/>
</svg>






