<?xml version="1.0" encoding="iso-8859-1"?>
<svg version="1.1" id="&#x56FE;&#x5C42;_1" xmlns="http://www.w3.org/2000/svg" xmlns:xlink="http://www.w3.org/1999/xlink" x="0px"
	 y="0px" viewBox="0 0 24 24" style="enable-background:new 0 0 24 24;" xml:space="preserve">
<path style="fill:#333333;" d="M18.9,21.354l-2.062-2.061l-1.23,1.846l-0.453-0.09l-1.474-7.367l7.367,1.474l0.09,0.453l-1.846,1.23
	l2.061,2.062L18.9,21.354z M16.761,18.508l2.14,2.139l1.746-1.746l-2.139-2.14l1.852-1.233l-6.041-1.209l1.209,6.041L16.761,18.508z
	"/>
<path style="fill:#333333;" d="M10.5,21.25H4c-0.689,0-1.25-0.561-1.25-1.25V4c0-0.689,0.561-1.25,1.25-1.25h16
	c0.689,0,1.25,0.561,1.25,1.25v7h-0.5V4c0-0.414-0.337-0.75-0.75-0.75H4C3.586,3.25,3.25,3.586,3.25,4v16
	c0,0.413,0.336,0.75,0.75,0.75h6.5V21.25z"/>
</svg>






