<?xml version="1.0" encoding="iso-8859-1"?>
<svg version="1.1" id="&#x56FE;&#x5C42;_1" xmlns="http://www.w3.org/2000/svg" xmlns:xlink="http://www.w3.org/1999/xlink" x="0px"
	 y="0px" viewBox="0 0 24 24" style="enable-background:new 0 0 24 24;" xml:space="preserve">
<polygon style="fill:#333333;" points="12,8.354 9.823,6.177 10.177,5.823 12,7.646 13.823,5.823 14.177,6.177 "/>
<rect x="11.75" y="2" style="fill:#333333;" width="0.5" height="6"/>
<polygon style="fill:#333333;" points="13.823,18.177 12,16.354 10.177,18.177 9.823,17.823 12,15.646 14.177,17.823 "/>
<rect x="11.75" y="16" style="fill:#333333;" width="0.5" height="6"/>
<polygon style="fill:#333333;" points="17.823,14.177 15.646,12 17.823,9.823 18.177,10.177 16.354,12 18.177,13.823 "/>
<rect x="16" y="11.75" style="fill:#333333;" width="6" height="0.5"/>
<polygon style="fill:#333333;" points="6.177,14.177 5.823,13.823 7.646,12 5.823,10.177 6.177,9.823 8.354,12 "/>
<rect x="2" y="11.75" style="fill:#333333;" width="6" height="0.5"/>
<path style="fill:#333333;" d="M12,13.25c-0.689,0-1.25-0.561-1.25-1.25s0.561-1.25,1.25-1.25s1.25,0.561,1.25,1.25
	S12.689,13.25,12,13.25z M12,11.25c-0.414,0-0.75,0.336-0.75,0.75c0,0.413,0.336,0.75,0.75,0.75c0.413,0,0.75-0.337,0.75-0.75
	C12.75,11.586,12.413,11.25,12,11.25z"/>
</svg>






