<?xml version="1.0" encoding="iso-8859-1"?>
<svg version="1.1" id="&#x56FE;&#x5C42;_1" xmlns="http://www.w3.org/2000/svg" xmlns:xlink="http://www.w3.org/1999/xlink" x="0px"
	 y="0px" viewBox="0 0 24 24" style="enable-background:new 0 0 24 24;" xml:space="preserve">
<path style="fill:#333333;" d="M22.25,21.25H1.75V7.75h20.5V21.25z M2.25,20.75h19.5V8.25H2.25V20.75z"/>
<path style="fill:#333333;" d="M22.25,8.25H1.75v-5.5h20.5V8.25z M2.25,7.75h19.5v-4.5H2.25V7.75z"/>
<rect x="13.75" y="2.807" transform="matrix(0.9285 -0.3714 0.3714 0.9285 -1.0413 5.5928)" style="fill:#333333;" width="0.501" height="5.385"/>
<rect x="9.75" y="2.807" transform="matrix(0.9285 -0.3714 0.3714 0.9285 -1.3274 4.1073)" style="fill:#333333;" width="0.5" height="5.385"/>
<rect x="5.75" y="2.807" transform="matrix(0.9285 -0.3714 0.3714 0.9285 -1.6135 2.6217)" style="fill:#333333;" width="0.5" height="5.385"/>
<rect x="17.75" y="2.807" transform="matrix(0.9285 -0.3714 0.3714 0.9285 -0.7552 7.0784)" style="fill:#333333;" width="0.501" height="5.385"/>
<rect x="6" y="11.75" style="fill:#333333;" width="12" height="0.5"/>
<rect x="6" y="15.75" style="fill:#333333;" width="6" height="0.5"/>
</svg>






