<?xml version="1.0" encoding="iso-8859-1"?>
<svg version="1.1" id="&#x56FE;&#x5C42;_1" xmlns="http://www.w3.org/2000/svg" xmlns:xlink="http://www.w3.org/1999/xlink" x="0px"
	 y="0px" viewBox="0 0 24 24" style="enable-background:new 0 0 24 24;" xml:space="preserve">
<path style="fill:#333333;" d="M12,22.25C6.348,22.25,1.75,17.652,1.75,12C1.75,6.348,6.348,1.75,12,1.75
	c5.652,0,10.25,4.598,10.25,10.25C22.25,17.652,17.652,22.25,12,22.25z M12,2.25c-5.376,0-9.75,4.374-9.75,9.75
	s4.374,9.75,9.75,9.75s9.75-4.374,9.75-9.75S17.376,2.25,12,2.25z"/>
<path style="fill:#333333;" d="M12,9.25c-0.965,0-1.75-0.785-1.75-1.75S11.035,5.75,12,5.75s1.75,0.785,1.75,1.75
	S12.965,9.25,12,9.25z M12,6.25c-0.689,0-1.25,0.561-1.25,1.25S11.311,8.75,12,8.75s1.25-0.561,1.25-1.25S12.689,6.25,12,6.25z"/>
<path style="fill:#333333;" d="M12,18.25c-0.965,0-1.75-0.785-1.75-1.75s0.785-1.75,1.75-1.75s1.75,0.785,1.75,1.75
	S12.965,18.25,12,18.25z M12,15.25c-0.689,0-1.25,0.561-1.25,1.25s0.561,1.25,1.25,1.25s1.25-0.561,1.25-1.25S12.689,15.25,12,15.25
	z"/>
<path style="fill:#333333;" d="M7.5,13.75c-0.965,0-1.75-0.785-1.75-1.75s0.785-1.75,1.75-1.75S9.25,11.035,9.25,12
	S8.465,13.75,7.5,13.75z M7.5,10.75c-0.689,0-1.25,0.561-1.25,1.25s0.561,1.25,1.25,1.25S8.75,12.689,8.75,12S8.189,10.75,7.5,10.75
	z"/>
<path style="fill:#333333;" d="M16.5,13.75c-0.965,0-1.75-0.785-1.75-1.75s0.785-1.75,1.75-1.75s1.75,0.785,1.75,1.75
	S17.465,13.75,16.5,13.75z M16.5,10.75c-0.689,0-1.25,0.561-1.25,1.25s0.561,1.25,1.25,1.25s1.25-0.561,1.25-1.25
	S17.189,10.75,16.5,10.75z"/>
<rect x="12" y="21.75" style="fill:#333333;" width="10" height="0.5"/>
</svg>






