<?xml version="1.0" encoding="iso-8859-1"?>
<svg version="1.1" id="&#x56FE;&#x5C42;_1" xmlns="http://www.w3.org/2000/svg" xmlns:xlink="http://www.w3.org/1999/xlink" x="0px"
	 y="0px" viewBox="0 0 24 24" style="enable-background:new 0 0 24 24;" xml:space="preserve">
<path style="fill:#333333;" d="M12,22.25C6.348,22.25,1.75,17.652,1.75,12C1.75,6.348,6.348,1.75,12,1.75
	c5.652,0,10.25,4.598,10.25,10.25C22.25,17.652,17.652,22.25,12,22.25z M12,2.25c-5.376,0-9.75,4.374-9.75,9.75
	s4.374,9.75,9.75,9.75s9.75-4.374,9.75-9.75S17.376,2.25,12,2.25z"/>
<path style="fill:#333333;" d="M12,18.25c-4.856,0-9.081-3.448-10.045-8.2l0.49-0.1c0.917,4.52,4.936,7.8,9.555,7.8
	s8.637-3.28,9.555-7.8l0.49,0.1C21.08,14.802,16.855,18.25,12,18.25z"/>
<path style="fill:#333333;" d="M12,14.25c-4.076,0-7.765-2.414-9.397-6.15l0.458-0.2c1.553,3.554,5.062,5.85,8.939,5.85
	c3.878,0,7.387-2.296,8.938-5.85l0.459,0.2C19.765,11.836,16.076,14.25,12,14.25z"/>
<path style="fill:#333333;" d="M12,10.25c-3.254,0-6.243-1.494-8.2-4.1l0.399-0.3C6.061,8.329,8.904,9.75,12,9.75
	c3.094,0,5.939-1.422,7.809-3.9l0.398,0.301C18.243,8.756,15.252,10.25,12,10.25z"/>
<path style="fill:#333333;" d="M12,6.25c-2.239,0-4.366-0.709-6.151-2.05L6.149,3.8C7.847,5.076,9.87,5.75,12,5.75
	s4.152-0.674,5.851-1.95L18.151,4.2C16.365,5.541,14.238,6.25,12,6.25z"/>
</svg>






