<?xml version="1.0" encoding="iso-8859-1"?>
<svg version="1.1" id="&#x56FE;&#x5C42;_1" xmlns="http://www.w3.org/2000/svg" xmlns:xlink="http://www.w3.org/1999/xlink" x="0px"
	 y="0px" viewBox="0 0 24 24" style="enable-background:new 0 0 24 24;" xml:space="preserve">
<path style="fill:#333333;" d="M12,22.25c-1.792,0-3.25-1.458-3.25-3.25V5c0-1.792,1.458-3.25,3.25-3.25S15.25,3.208,15.25,5v14
	C15.25,20.792,13.792,22.25,12,22.25z M12,2.25c-1.517,0-2.75,1.233-2.75,2.75v14c0,1.517,1.233,2.75,2.75,2.75
	s2.75-1.233,2.75-2.75V5C14.75,3.483,13.517,2.25,12,2.25z"/>
<path style="fill:#333333;" d="M20.035,14.613c-0.576,0-1.152-0.22-1.591-0.658L14.75,10.26V4.5l0.427-0.177l6.45,6.45
	c0.876,0.877,0.876,2.305,0,3.182C21.188,14.394,20.612,14.613,20.035,14.613z M15.25,10.053l3.548,3.548
	c0.684,0.683,1.793,0.681,2.476,0c0.682-0.683,0.682-1.793,0-2.475L15.25,5.104V10.053z"/>
<path style="fill:#333333;" d="M8.859,19.541l-6.45-6.45C1.984,12.666,1.75,12.101,1.75,11.5c0-0.601,0.234-1.166,0.659-1.591
	c0.85-0.851,2.332-0.851,3.182,0l3.695,3.694v5.761L8.859,19.541z M4,9.75c-0.467,0-0.907,0.182-1.237,0.513S2.25,11.033,2.25,11.5
	s0.182,0.906,0.513,1.237l6.023,6.023v-4.95l-3.548-3.548C4.907,9.932,4.467,9.75,4,9.75z"/>
<rect x="11.75" y="5" style="fill:#333333;" width="0.5" height="0.5"/>
<rect x="11.75" y="18.5" style="fill:#333333;" width="0.5" height="0.5"/>
</svg>






