<?xml version="1.0" encoding="iso-8859-1"?>
<svg version="1.1" id="&#x56FE;&#x5C42;_1" xmlns="http://www.w3.org/2000/svg" xmlns:xlink="http://www.w3.org/1999/xlink" x="0px"
	 y="0px" viewBox="0 0 24 24" style="enable-background:new 0 0 24 24;" xml:space="preserve">
<path style="fill:#333333;" d="M12,22.25C6.348,22.25,1.75,17.652,1.75,12C1.75,6.348,6.348,1.75,12,1.75
	c5.652,0,10.25,4.598,10.25,10.25C22.25,17.652,17.652,22.25,12,22.25z M12,2.25c-5.376,0-9.75,4.374-9.75,9.75
	s4.374,9.75,9.75,9.75s9.75-4.374,9.75-9.75S17.376,2.25,12,2.25z"/>
<path style="fill:#333333;" d="M12,22.25c-3.998,0-7.25-3.252-7.25-7.25c0-3.998,3.252-7.25,7.25-7.25c3.998,0,7.25,3.252,7.25,7.25
	C19.25,18.998,15.998,22.25,12,22.25z M12,8.25c-3.722,0-6.75,3.028-6.75,6.75c0,3.722,3.028,6.75,6.75,6.75
	c3.722,0,6.75-3.028,6.75-6.75C18.75,11.278,15.722,8.25,12,8.25z"/>
<path style="fill:#333333;" d="M12,22.25c-2.343,0-4.25-1.906-4.25-4.25s1.907-4.25,4.25-4.25c2.344,0,4.25,1.906,4.25,4.25
	S14.344,22.25,12,22.25z M12,14.25c-2.068,0-3.75,1.683-3.75,3.75s1.682,3.75,3.75,3.75c2.067,0,3.75-1.683,3.75-3.75
	S14.067,14.25,12,14.25z"/>
</svg>






