<?xml version="1.0" encoding="iso-8859-1"?>
<svg version="1.1" id="&#x56FE;&#x5C42;_1" xmlns="http://www.w3.org/2000/svg" xmlns:xlink="http://www.w3.org/1999/xlink" x="0px"
	 y="0px" viewBox="0 0 24 24" style="enable-background:new 0 0 24 24;" xml:space="preserve">
<path style="fill:#333333;" d="M12,15.25c-1.792,0-3.25-1.458-3.25-3.25V5c0-1.792,1.458-3.25,3.25-3.25S15.25,3.208,15.25,5v7
	C15.25,13.792,13.792,15.25,12,15.25z M12,2.25c-1.517,0-2.75,1.233-2.75,2.75v7c0,1.517,1.233,2.75,2.75,2.75s2.75-1.233,2.75-2.75
	V5C14.75,3.483,13.517,2.25,12,2.25z"/>
<path style="fill:#333333;" d="M12,15.25c-0.868,0-1.684-0.338-2.298-0.952C9.088,13.685,8.75,12.868,8.75,12
	s0.338-1.684,0.952-2.298l4.949-4.95c1.267-1.267,3.329-1.268,4.597,0c1.267,1.267,1.267,3.329,0,4.596l-4.95,4.95
	C13.685,14.912,12.868,15.25,12,15.25z M16.95,4.302c-0.705,0-1.409,0.268-1.945,0.804l-4.949,4.95
	C9.536,10.575,9.25,11.266,9.25,12s0.286,1.425,0.806,1.944S11.266,14.75,12,14.75s1.425-0.286,1.944-0.806l4.95-4.95
	c1.071-1.072,1.071-2.816,0-3.889C18.358,4.57,17.654,4.302,16.95,4.302z"/>
<path style="fill:#333333;" d="M19,15.25h-7c-1.792,0-3.25-1.458-3.25-3.25S10.208,8.75,12,8.75h7c1.792,0,3.25,1.458,3.25,3.25
	S20.792,15.25,19,15.25z M12,9.25c-1.517,0-2.75,1.233-2.75,2.75s1.233,2.75,2.75,2.75h7c1.517,0,2.75-1.233,2.75-2.75
	S20.517,9.25,19,9.25H12z"/>
<path style="fill:#333333;" d="M16.949,20.198c-0.832,0-1.664-0.317-2.298-0.95l-4.95-4.95C9.088,13.685,8.75,12.868,8.75,12
	s0.338-1.684,0.952-2.298S11.132,8.75,12,8.75s1.685,0.338,2.298,0.952l4.95,4.949c1.267,1.268,1.267,3.329,0,4.597
	C18.614,19.881,17.782,20.198,16.949,20.198z M15.005,18.895c1.071,1.071,2.817,1.073,3.89,0c1.071-1.072,1.071-2.817,0-3.89
	l-4.95-4.949C13.425,9.536,12.734,9.25,12,9.25s-1.425,0.286-1.945,0.806S9.25,11.266,9.25,12s0.286,1.425,0.805,1.944
	L15.005,18.895z"/>
<path style="fill:#333333;" d="M12,22.25c-1.792,0-3.25-1.458-3.25-3.25v-7c0-1.792,1.458-3.25,3.25-3.25s3.25,1.458,3.25,3.25v7
	C15.25,20.792,13.792,22.25,12,22.25z M12,9.25c-1.517,0-2.75,1.233-2.75,2.75v7c0,1.517,1.233,2.75,2.75,2.75s2.75-1.233,2.75-2.75
	v-7C14.75,10.483,13.517,9.25,12,9.25z"/>
<path style="fill:#333333;" d="M7.05,20.198c-0.832,0-1.665-0.316-2.298-0.95c-1.268-1.268-1.268-3.329,0-4.597l4.95-4.949
	C10.316,9.088,11.132,8.75,12,8.75s1.685,0.338,2.298,0.952c0.614,0.614,0.952,1.43,0.952,2.298s-0.338,1.685-0.952,2.298
	l-4.95,4.95C8.715,19.881,7.882,20.198,7.05,20.198z M5.106,15.005c-1.072,1.072-1.072,2.817,0,3.89s2.816,1.072,3.889,0l4.95-4.95
	c0.52-0.52,0.806-1.21,0.806-1.944s-0.286-1.425-0.806-1.944S12.734,9.25,12,9.25s-1.425,0.286-1.944,0.806L5.106,15.005z"/>
<path style="fill:#333333;" d="M12,15.25H5c-1.792,0-3.25-1.458-3.25-3.25S3.208,8.75,5,8.75h7c1.792,0,3.25,1.458,3.25,3.25
	S13.792,15.25,12,15.25z M5,9.25c-1.517,0-2.75,1.233-2.75,2.75S3.483,14.75,5,14.75h7c1.517,0,2.75-1.233,2.75-2.75
	S13.517,9.25,12,9.25H5z"/>
<path style="fill:#333333;" d="M12,15.25c-0.868,0-1.684-0.338-2.298-0.952l-4.95-4.949C4.139,8.735,3.8,7.918,3.8,7.05
	s0.338-1.684,0.952-2.298S6.182,3.8,7.05,3.8s1.685,0.338,2.298,0.952l4.949,4.95c0.614,0.614,0.952,1.43,0.952,2.298
	s-0.338,1.685-0.952,2.298C13.685,14.912,12.868,15.25,12,15.25z M7.05,4.3c-0.734,0-1.425,0.286-1.944,0.806S4.3,6.316,4.3,7.05
	s0.286,1.425,0.806,1.945l4.95,4.949c0.52,0.52,1.21,0.806,1.944,0.806s1.425-0.286,1.944-0.806S14.75,12.734,14.75,12
	s-0.286-1.425-0.806-1.944l-4.949-4.95C8.476,4.586,7.785,4.3,7.05,4.3z"/>
</svg>






