<?xml version="1.0" encoding="iso-8859-1"?>
<svg version="1.1" id="&#x56FE;&#x5C42;_1" xmlns="http://www.w3.org/2000/svg" xmlns:xlink="http://www.w3.org/1999/xlink" x="0px"
	 y="0px" viewBox="0 0 24 24" style="enable-background:new 0 0 24 24;" xml:space="preserve">
<path style="fill:none;" d="M10.685,18c0.725-2.625,3.26-4.5,6.18-4.19c2.78,0.295,4.99,2.64,5.13,5.43
	c0.035,0.735-0.065,1.44-0.28,2.095c-0.13,0.4-0.52,0.665-0.945,0.665H5.879c-2.524,0-4.417-2.309-3.922-4.784L5,2h6l2,3.5
	L8.715,8.565L7.5,7"/>
<path style="fill:#333333;" d="M20.77,22.25H5.879c-1.278,0-2.477-0.567-3.287-1.556c-0.81-0.988-1.131-2.274-0.88-3.527
	L4.755,1.951L5,1.75h6l0.217,0.126l2,3.5l-0.071,0.327L8.86,8.768l-0.343-0.05L7.303,7.153l0.395-0.307l1.068,1.375l3.906-2.793
	L10.855,2.25h-5.65L2.202,17.265c-0.221,1.106,0.062,2.24,0.777,3.112c0.715,0.873,1.772,1.373,2.9,1.373h14.89
	c0.322,0,0.613-0.202,0.707-0.492c0.212-0.644,0.302-1.318,0.269-2.006c-0.134-2.677-2.243-4.91-4.906-5.193
	c-2.717-0.293-5.192,1.398-5.913,4.008l-0.482-0.133c0.786-2.848,3.5-4.681,6.448-4.373c2.905,0.31,5.207,2.746,5.354,5.667
	c0.035,0.749-0.062,1.484-0.293,2.186C21.79,21.913,21.314,22.25,20.77,22.25z"/>
<rect x="9.61" y="8.414" transform="matrix(0.9654 -0.2609 0.2609 0.9654 -2.9936 3.0153)" style="fill:#333333;" width="0.5" height="8.738"/>
</svg>






