<?xml version="1.0" encoding="iso-8859-1"?>
<svg version="1.1" id="&#x56FE;&#x5C42;_1" xmlns="http://www.w3.org/2000/svg" xmlns:xlink="http://www.w3.org/1999/xlink" x="0px"
	 y="0px" viewBox="0 0 24 24" style="enable-background:new 0 0 24 24;" xml:space="preserve">
<path style="fill:#333333;" d="M12,22.25C6.348,22.25,1.75,17.652,1.75,12C1.75,6.348,6.348,1.75,12,1.75
	c5.652,0,10.25,4.598,10.25,10.25C22.25,17.652,17.652,22.25,12,22.25z M12,2.25c-5.376,0-9.75,4.374-9.75,9.75
	s4.374,9.75,9.75,9.75s9.75-4.374,9.75-9.75S17.376,2.25,12,2.25z"/>
<rect x="12.75" y="7" style="fill:#333333;" width="0.5" height="7"/>
<path style="fill:#333333;" d="M10.84,16.75H9.16c-1.329,0-2.41-0.935-2.41-2.083v-0.334c0-1.148,1.081-2.083,2.41-2.083h4.09v2.417
	C13.25,15.815,12.169,16.75,10.84,16.75z M9.16,12.75c-1.053,0-1.91,0.71-1.91,1.583v0.334c0,0.873,0.857,1.583,1.91,1.583h1.68
	c1.053,0,1.91-0.71,1.91-1.583V12.75H9.16z"/>
<rect x="14.25" y="5.729" transform="matrix(0.1644 -0.9864 0.9864 0.1644 4.9649 20.3608)" style="fill:#333333;" width="0.5" height="3.041"/>
</svg>






