<?xml version="1.0" encoding="iso-8859-1"?>
<svg version="1.1" id="&#x56FE;&#x5C42;_1" xmlns="http://www.w3.org/2000/svg" xmlns:xlink="http://www.w3.org/1999/xlink" x="0px"
	 y="0px" viewBox="0 0 24 24" style="enable-background:new 0 0 24 24;" xml:space="preserve">
<path style="fill:#333333;" d="M18.7,19.25h-1.95c-1.103,0-2-0.897-2-2s0.897-2,2-2h4v1.95C20.75,18.33,19.83,19.25,18.7,19.25z
	 M16.75,15.75c-0.827,0-1.5,0.673-1.5,1.5s0.673,1.5,1.5,1.5h1.95c0.854,0,1.55-0.695,1.55-1.55v-1.45H16.75z"/>
<path style="fill:#333333;" d="M6.2,21.25H4.75c-1.103,0-2-0.897-2-2s0.897-2,2-2h3.5v1.95C8.25,20.33,7.331,21.25,6.2,21.25z
	 M4.75,17.75c-0.827,0-1.5,0.673-1.5,1.5s0.673,1.5,1.5,1.5H6.2c0.854,0,1.55-0.695,1.55-1.55v-1.45H4.75z"/>
<rect x="7.827" y="7.292" transform="matrix(0.9731 -0.2306 0.2306 0.9731 -1.355 3.4887)" style="fill:#333333;" width="12.846" height="0.5"/>
<polygon style="fill:#333333;" points="8.25,19 7.75,19 7.75,4.803 20.75,1.683 20.75,16.847 20.25,16.847 20.25,2.317 8.25,5.197 
	"/>
</svg>






