<?xml version="1.0" encoding="iso-8859-1"?>
<svg version="1.1" id="&#x56FE;&#x5C42;_1" xmlns="http://www.w3.org/2000/svg" xmlns:xlink="http://www.w3.org/1999/xlink" x="0px"
	 y="0px" viewBox="0 0 24 24" style="enable-background:new 0 0 24 24;" xml:space="preserve">
<rect x="14.25" y="3" style="fill:#333333;" width="0.5" height="14.5"/>
<path style="fill:#333333;" d="M11.98,21.25h-1.96c-1.527,0-2.77-1.242-2.77-2.77V18.02c0-1.527,1.243-2.77,2.77-2.77h4.73v3.23
	C14.75,20.008,13.508,21.25,11.98,21.25z M10.02,15.75c-1.251,0-2.27,1.019-2.27,2.27v0.461c0,1.251,1.019,2.27,2.27,2.27h1.96
	c1.251,0,2.27-1.019,2.27-2.27v-2.73H10.02z"/>
<path style="fill:#333333;" d="M21.191,8.877L14.25,7.231V2.685l6.941,1.624V8.877z M14.75,6.835l5.941,1.409V4.705l-5.941-1.39
	V6.835z"/>
<rect x="3" y="3.75" style="fill:#333333;" width="7" height="0.5"/>
<rect x="3" y="7.75" style="fill:#333333;" width="7" height="0.5"/>
<rect x="3" y="11.75" style="fill:#333333;" width="5" height="0.5"/>
</svg>






