<?xml version="1.0" encoding="iso-8859-1"?>
<svg version="1.1" id="&#x56FE;&#x5C42;_1" xmlns="http://www.w3.org/2000/svg" xmlns:xlink="http://www.w3.org/1999/xlink" x="0px"
	 y="0px" viewBox="0 0 24 24" style="enable-background:new 0 0 24 24;" xml:space="preserve">
<path style="fill:#333333;" d="M19,22.25H5c-0.689,0-1.25-0.561-1.25-1.25V11c0-0.689,0.561-1.25,1.25-1.25h14
	c0.689,0,1.25,0.561,1.25,1.25v10C20.25,21.689,19.689,22.25,19,22.25z M5,10.25c-0.414,0-0.75,0.336-0.75,0.75v10
	c0,0.413,0.336,0.75,0.75,0.75h14c0.413,0,0.75-0.337,0.75-0.75V11c0-0.414-0.337-0.75-0.75-0.75H5z"/>
<path style="fill:#333333;" d="M15.75,10.25h-7.5v-8.5h7.5V10.25z M8.75,9.75h6.5v-7.5h-6.5V9.75z"/>
<path style="fill:#333333;" d="M13.805,18.75h-3.61l0.6-3h2.41L13.805,18.75z M10.805,18.25h2.39l-0.4-2h-1.59L10.805,18.25z"/>
<rect x="11.75" y="10" style="fill:#333333;" width="0.5" height="6"/>
<rect x="8.5" y="9.75" style="fill:#333333;" width="7" height="0.5"/>
</svg>






