<?xml version="1.0" encoding="iso-8859-1"?>
<svg version="1.1" id="&#x56FE;&#x5C42;_1" xmlns="http://www.w3.org/2000/svg" xmlns:xlink="http://www.w3.org/1999/xlink" x="0px"
	 y="0px" viewBox="0 0 24 24" style="enable-background:new 0 0 24 24;" xml:space="preserve">
<path style="fill:#333333;" d="M6.641,21.755c-0.629,0-1.304-0.179-1.922-0.532c-1.208-0.689-1.928-1.875-1.928-3.172
	c0-1.748,1.698-4.319,3.197-6.588c0.812-1.229,1.578-2.389,1.783-3.034c0.374-1.181,0.533-3.342,0.473-6.424l0.5-0.01
	C8.804,5.131,8.637,7.347,8.247,8.58c-0.225,0.712-0.975,1.846-1.842,3.159c-1.388,2.1-3.114,4.714-3.114,6.312
	c0,1.115,0.626,2.139,1.676,2.738c0.961,0.549,2.06,0.621,2.801,0.186l0.254,0.43C7.625,21.64,7.147,21.755,6.641,21.755z"/>
<path style="fill:#333333;" d="M17.703,21.739c-0.479,0-0.93-0.11-1.309-0.335l0.254-0.43c0.702,0.413,1.767,0.331,2.713-0.209
	c1.17-0.668,1.868-1.834,1.868-3.119c0-1.751-1.764-4.159-3.182-6.095c-0.886-1.21-1.651-2.255-1.878-2.972
	c-0.396-1.25-0.533-3.405-0.419-6.588l0.5,0.018c-0.111,3.082,0.022,5.242,0.396,6.42c0.202,0.639,0.945,1.653,1.805,2.828
	c1.461,1.994,3.278,4.476,3.278,6.39c0,1.467-0.793,2.795-2.12,3.553C18.981,21.558,18.318,21.739,17.703,21.739z"/>
<path style="fill:#333333;" d="M12.004,20.25c-1.508,0-2.162-0.965-2.687-1.74c-0.239-0.353-0.464-0.685-0.736-0.895
	c-0.548-0.421-1.188-0.416-1.954,0.019L6.379,17.2c0.947-0.54,1.791-0.532,2.506,0.019c0.336,0.259,0.583,0.624,0.845,1.01
	c0.507,0.748,1.031,1.521,2.273,1.521c1.25,0,2.076-0.862,2.806-1.622c0.384-0.401,0.716-0.747,1.076-0.934
	c0.721-0.372,1.471-0.374,2.225-0.002l-0.221,0.449c-0.614-0.304-1.193-0.302-1.774-0.003c-0.286,0.147-0.592,0.466-0.945,0.835
	C14.411,19.265,13.468,20.25,12.004,20.25z"/>
<path style="fill:#333333;" d="M8.957,14.231l-0.498-0.039c0.032-0.41,0.079-0.804,0.326-1.473c0.313-0.847,0.734-1.343,1.175-1.817
	l0.366,0.34c-0.42,0.452-0.791,0.888-1.072,1.651C9.028,13.503,8.987,13.847,8.957,14.231z"/>
</svg>






