<?xml version="1.0" encoding="iso-8859-1"?>
<svg version="1.1" id="&#x56FE;&#x5C42;_1" xmlns="http://www.w3.org/2000/svg" xmlns:xlink="http://www.w3.org/1999/xlink" x="0px"
	 y="0px" viewBox="0 0 24 24" style="enable-background:new 0 0 24 24;" xml:space="preserve">
<path style="fill:#333333;" d="M12,13.75c-2.974,0-5.217-2.257-5.217-5.25L6.747,2.977l2.719,2.175L12,2.109l2.535,3.042L17.25,2.98
	V8.5C17.25,11.444,14.944,13.75,12,13.75z M7.253,4.023l0.029,4.476c0,2.709,2.028,4.751,4.717,4.751c2.708,0,4.75-2.042,4.75-4.75
	V4.02l-2.285,1.828L12,2.891L9.536,5.848L7.253,4.023z"/>
<path style="fill:#333333;" d="M10.977,22.172c-1.129,0-2.813-0.912-4.36-2.46c-2.082-2.081-3.014-4.41-2.122-5.303
	c0.892-0.891,3.221,0.039,5.303,2.121c2.082,2.082,3.013,4.412,2.122,5.304l0,0C11.691,22.062,11.367,22.172,10.977,22.172z
	 M5.443,14.566c-0.259,0-0.463,0.065-0.594,0.196c-0.585,0.586,0.142,2.617,2.122,4.596c1.979,1.979,4.008,2.705,4.596,2.122
	c0.585-0.585-0.143-2.617-2.122-4.597C7.909,15.349,6.342,14.566,5.443,14.566z"/>
<path style="fill:#333333;" d="M13.18,22c-0.39,0-0.714-0.109-0.942-0.338l0,0c-0.892-0.893,0.04-3.222,2.122-5.304
	c2.08-2.081,4.406-3.016,5.303-2.121c0.892,0.892-0.04,3.222-2.121,5.304C15.993,21.088,14.309,22,13.18,22z M12.591,21.309
	c0.581,0.583,2.616-0.143,4.597-2.121c1.979-1.979,2.706-4.012,2.121-4.597s-2.616,0.141-4.596,2.121
	C12.733,18.691,12.006,20.724,12.591,21.309L12.591,21.309z"/>
</svg>






