<?xml version="1.0" encoding="iso-8859-1"?>
<svg version="1.1" id="&#x56FE;&#x5C42;_1" xmlns="http://www.w3.org/2000/svg" xmlns:xlink="http://www.w3.org/1999/xlink" x="0px"
	 y="0px" viewBox="0 0 24 24" style="enable-background:new 0 0 24 24;" xml:space="preserve">
<g>
	<defs>
		<rect id="SVGID_1_" width="24" height="24"/>
	</defs>
	<clipPath id="SVGID_00000000907008300933719560000009376067149424518573_">
		<use xlink:href="#SVGID_1_"  style="overflow:visible;"/>
	</clipPath>
	<g style="clip-path:url(#SVGID_00000000907008300933719560000009376067149424518573_);">
		
			<rect x="15.75" y="3.05" transform="matrix(0.7071 -0.7071 0.7071 0.7071 -0.9706 13.6569)" style="fill:#333333;" width="0.5" height="9.899"/>
		
			<rect x="18.5" y="0.654" transform="matrix(0.7071 -0.7071 0.7071 0.7071 1.7794 14.7959)" style="fill:#333333;" width="0.5" height="9.192"/>
		
			<rect x="16.981" y="8" transform="matrix(0.7071 -0.7071 0.7071 0.7071 -0.3418 15.6738)" style="fill:#333333;" width="3.536" height="0.5"/>
		
			<rect x="13.981" y="5" transform="matrix(0.7071 -0.7071 0.7071 0.7071 0.9008 12.6738)" style="fill:#333333;" width="3.536" height="0.5"/>
		
			<rect x="2.482" y="19.5" transform="matrix(0.7071 -0.7071 0.7071 0.7071 -12.7206 8.7898)" style="fill:#333333;" width="3.536" height="0.5"/>
		<path style="fill:#333333;" d="M5.217,18.783l0.544-4.898l0.062-0.062L14,5.646L18.354,10l-8.239,8.239l-0.087,0.009L5.217,18.783
			z M6.239,14.115l-0.456,4.102l4.102-0.456L17.646,10L14,6.354L6.239,14.115z"/>
	</g>
</g>
</svg>






