<?xml version="1.0" encoding="iso-8859-1"?>
<svg version="1.1" id="&#x56FE;&#x5C42;_1" xmlns="http://www.w3.org/2000/svg" xmlns:xlink="http://www.w3.org/1999/xlink" x="0px"
	 y="0px" viewBox="0 0 24 24" style="enable-background:new 0 0 24 24;" xml:space="preserve">
<path style="fill:#333333;" d="M3.198,21.621L2.76,21.379l3.137-5.656l0.176,0.031c2.415,0.432,4.449,0.2,6.05-0.689
	c2.517-1.396,3.36-4.121,3.139-5.523c-0.107-0.676-0.482-1.279-0.845-1.863C13.936,6.902,13.48,6.17,13.79,5.406
	c0.227-0.56,0.795-0.944,1.723-1.16L15.34,4.221L15.283,4.1c-0.012-0.023-1.134-2.35-2.763-2.35c-1.111,0-1.856,0.435-2.277,1.328
	L2.717,16.281l-0.435-0.248L9.8,2.848c0.496-1.054,1.414-1.598,2.721-1.598c1.727,0,2.88,1.992,3.153,2.515l1.862,0.278L17.503,4.54
	c-1.859,0.03-2.982,0.395-3.25,1.054c-0.214,0.528,0.158,1.127,0.589,1.82c0.37,0.597,0.791,1.273,0.914,2.049
	c0.291,1.838-0.923,4.67-3.391,6.039c-1.664,0.923-3.747,1.184-6.204,0.774L3.198,21.621z"/>
<path style="fill:#333333;" d="M7.486,13.739l-0.233-0.371C8.56,11.012,9.393,9.544,9.802,8.88c0.378-0.614,1.315-0.833,2.042-0.482
	c0.305,0.148,1.252,0.763,0.625,2.481C11.833,12.621,10.156,13.584,7.486,13.739z M11.1,8.731c-0.361,0-0.711,0.149-0.872,0.411
	c-0.375,0.61-1.152,1.976-2.312,4.062c2.212-0.216,3.55-1.036,4.084-2.498c0.332-0.906,0.195-1.584-0.373-1.859
	C11.463,8.769,11.28,8.731,11.1,8.731z"/>
<path style="fill:#333333;" d="M18.406,17.465c-0.744,0-1.44-0.26-2.079-0.778l-0.146-0.118l0.072-0.173
	c0.599-1.437,1.496-2.322,2.668-2.632c1.164-0.31,2.245-0.119,3.209,0.566l0.164,0.118l-0.08,0.186
	c-0.59,1.359-1.482,2.246-2.652,2.634C19.165,17.399,18.779,17.465,18.406,17.465z M16.791,16.413
	c0.789,0.575,1.647,0.701,2.613,0.38c0.977-0.323,1.738-1.053,2.267-2.17c-0.8-0.507-1.656-0.63-2.622-0.377
	C18.083,14.502,17.324,15.23,16.791,16.413z"/>
<path style="fill:#333333;" d="M17.963,20.757c-0.482,0-0.993-0.076-1.531-0.229c-1.708-0.482-2.778-1.46-3.18-2.903l-0.06-0.217
	l0.208-0.083c1.331-0.531,2.559-0.725,3.636-0.567c1.115,0.158,2.315,1.002,3.67,2.579l0.156,0.182l-0.175,0.164
	C19.924,20.397,19.011,20.757,17.963,20.757z M13.801,17.707c0.397,1.16,1.306,1.927,2.768,2.341
	c1.454,0.409,2.634,0.226,3.597-0.571c-1.19-1.343-2.266-2.091-3.199-2.225C16.026,17.121,14.964,17.271,13.801,17.707z"/>
</svg>






