<?xml version="1.0" encoding="iso-8859-1"?>
<svg version="1.1" id="&#x56FE;&#x5C42;_1" xmlns="http://www.w3.org/2000/svg" xmlns:xlink="http://www.w3.org/1999/xlink" x="0px"
	 y="0px" viewBox="0 0 24 24" style="enable-background:new 0 0 24 24;" xml:space="preserve">
<path style="fill:#333333;" d="M6.25,21.25h-4.5v-4.5h4.5V21.25z M2.25,20.75h3.5v-3.5h-3.5V20.75z"/>
<path style="fill:#333333;" d="M20.25,9.25H3.75v-6.5h16.5V9.25z M4.25,8.75h15.5v-5.5H4.25V8.75z"/>
<rect x="11.75" y="9" style="fill:#333333;" width="0.5" height="8"/>
<polygon style="fill:#333333;" points="20.25,17 19.75,17 19.75,13.25 4.25,13.25 4.25,17 3.75,17 3.75,12.75 20.25,12.75 "/>
<path style="fill:#333333;" d="M22.25,21.25h-4.5v-4.5h4.5V21.25z M18.25,20.75h3.5v-3.5h-3.5V20.75z"/>
<path style="fill:#333333;" d="M14.25,21.25h-4.5v-4.5h4.5V21.25z M10.25,20.75h3.5v-3.5h-3.5V20.75z"/>
<rect x="7" y="5.75" style="fill:#333333;" width="1" height="0.5"/>
</svg>






