<?xml version="1.0" encoding="iso-8859-1"?>
<svg version="1.1" id="&#x56FE;&#x5C42;_1" xmlns="http://www.w3.org/2000/svg" xmlns:xlink="http://www.w3.org/1999/xlink" x="0px"
	 y="0px" viewBox="0 0 24 24" style="enable-background:new 0 0 24 24;" xml:space="preserve">
<path style="fill:#333333;" d="M20.402,18.362l-0.287-0.408c1.562-1.098,2.223-3.059,1.646-4.879
	c-0.536-1.694-2.197-2.788-4.231-2.788c-0.001,0-0.002,0-0.004,0h-1.354l-0.048-0.188c-0.728-2.836-3.172-4.967-6.081-5.302
	C7.136,4.46,4.27,5.981,2.917,8.579c-1.354,2.596-0.959,5.815,0.981,8.007l-0.374,0.332c-2.077-2.348-2.499-5.792-1.05-8.571
	S6.986,3.943,10.101,4.3c3.049,0.351,5.62,2.545,6.457,5.487h0.969c0.001,0,0.003,0,0.005,0c2.256,0,4.104,1.231,4.707,3.138
	C22.881,14.954,22.144,17.14,20.402,18.362z"/>
<path style="fill:#333333;" d="M17.25,20.75H6.75v-3.5h10.5V20.75z M7.25,20.25h9.5v-2.5h-9.5V20.25z"/>
<rect x="11" y="13.75" style="fill:#333333;" width="6" height="0.5"/>
<rect x="7" y="13.75" style="fill:#333333;" width="1" height="0.5"/>
</svg>






