<?xml version="1.0" encoding="iso-8859-1"?>
<svg version="1.1" id="&#x56FE;&#x5C42;_1" xmlns="http://www.w3.org/2000/svg" xmlns:xlink="http://www.w3.org/1999/xlink" x="0px"
	 y="0px" viewBox="0 0 24 24" style="enable-background:new 0 0 24 24;" xml:space="preserve">
<path style="fill:none;" d="M15.5,10v3.5L5,19.5l-3-2v-11l3-2l7,4l-3.25,1.75L5,8v8L15.5,10z"/>
<path style="fill:#333333;" d="M15.5,13.5l0.496,0.868C16.308,14.19,16.5,13.859,16.5,13.5H15.5z M15.5,10h1V8.277l-1.496,0.855
	L15.5,10z M5,16H4c0,0.356,0.19,0.686,0.498,0.865c0.308,0.179,0.689,0.18,0.998,0.003L5,16z M5,8l0.515-0.858
	C5.206,6.957,4.821,6.952,4.507,7.13C4.194,7.307,4,7.64,4,8H5z M8.75,10.25l-0.514,0.858c0.302,0.181,0.678,0.19,0.989,0.023
	L8.75,10.25z M12,8.5l0.474,0.88c0.32-0.172,0.521-0.505,0.526-0.868c0.005-0.363-0.188-0.701-0.504-0.881L12,8.5z M5,4.5
	l0.496-0.868C5.167,3.444,4.76,3.458,4.445,3.668L5,4.5z M2,6.5L1.445,5.668C1.167,5.853,1,6.166,1,6.5H2z M2,17.5H1
	c0,0.334,0.167,0.647,0.445,0.832L2,17.5z M5,19.5l-0.555,0.832c0.315,0.21,0.722,0.224,1.051,0.036L5,19.5z M16.5,13.5V10h-2v3.5
	H16.5z M15.004,9.132l-10.5,6l0.992,1.736l10.5-6L15.004,9.132z M6,16V8H4v8H6z M4.486,8.858l3.75,2.25l1.029-1.715l-3.75-2.25
	L4.486,8.858z M9.224,11.13l3.25-1.75L11.526,7.62l-3.25,1.75L9.224,11.13z M12.496,7.632l-7-4L4.504,5.368l7,4L12.496,7.632z
	 M4.445,3.668l-3,2l1.109,1.664l3-2L4.445,3.668z M1,6.5v11h2v-11H1z M1.445,18.332l3,2l1.109-1.664l-3-2L1.445,18.332z
	 M5.496,20.368l10.5-6l-0.992-1.736l-10.5,6L5.496,20.368z"/>
<path style="fill:none;" d="M8.5,14v-3.5l10.5-6l3,2v11l-3,2l-7-4l3.25-1.75L19,16V8L8.5,14z"/>
<path style="fill:#333333;" d="M8.5,10.5L8.004,9.632C7.692,9.81,7.5,10.141,7.5,10.5H8.5z M8.5,14h-1v1.723l1.496-0.855L8.5,14z
	 M19,8h1c0-0.356-0.19-0.686-0.498-0.865c-0.308-0.179-0.689-0.18-0.998-0.003L19,8z M19,16l-0.514,0.858
	c0.309,0.185,0.694,0.19,1.007,0.013C19.806,16.693,20,16.36,20,16H19z M15.25,13.75l0.514-0.858
	c-0.302-0.181-0.678-0.19-0.989-0.023L15.25,13.75z M12,15.5l-0.474-0.88c-0.32,0.172-0.521,0.505-0.526,0.868
	c-0.005,0.363,0.188,0.701,0.504,0.881L12,15.5z M19,19.5l-0.496,0.868c0.329,0.188,0.736,0.174,1.051-0.036L19,19.5z M22,17.5
	l0.555,0.832C22.833,18.147,23,17.834,23,17.5H22z M22,6.5h1c0-0.334-0.167-0.647-0.445-0.832L22,6.5z M19,4.5l0.555-0.832
	c-0.315-0.21-0.722-0.224-1.051-0.036L19,4.5z M7.5,10.5V14h2v-3.5H7.5z M8.996,14.868l10.5-6l-0.992-1.736l-10.5,6L8.996,14.868z
	 M18,8v8h2V8H18z M19.514,15.142l-3.75-2.25l-1.029,1.715l3.75,2.25L19.514,15.142z M14.776,12.87l-3.25,1.75l0.948,1.761l3.25-1.75
	L14.776,12.87z M11.504,16.368l7,4l0.992-1.736l-7-4L11.504,16.368z M19.555,20.332l3-2l-1.109-1.664l-3,2L19.555,20.332z M23,17.5
	v-11h-2v11H23z M22.555,5.668l-3-2l-1.109,1.664l3,2L22.555,5.668z M18.504,3.632l-10.5,6l0.992,1.736l10.5-6L18.504,3.632z"/>
</svg>






