<?xml version="1.0" encoding="iso-8859-1"?>
<svg version="1.1" id="&#x56FE;&#x5C42;_1" xmlns="http://www.w3.org/2000/svg" xmlns:xlink="http://www.w3.org/1999/xlink" x="0px"
	 y="0px" viewBox="0 0 24 24" style="enable-background:new 0 0 24 24;" xml:space="preserve">
<path style="fill:#333333;" d="M9.541,20.75c-0.014,0-0.028,0-0.042,0c-3.103-0.01-5.99-1.48-7.658-2.854L1.75,17.821V8.5h0.5v9.084
	c1.614,1.297,4.335,2.657,7.251,2.666c0.013,0,0.026,0,0.04,0c2.643,0,4.866-0.799,6.797-2.44c1.904-1.619,2.553-3.543,3.124-5.24
	c0.49-1.456,0.92-2.734,2.015-3.533c-1.4-0.614-3.792-1.28-7.286,2.829c-1.56,1.833-3.633,2.885-5.69,2.885v-0.5
	c1.91,0,3.846-0.987,5.31-2.709c4.033-4.739,6.85-3.436,8.204-2.81l0.091,0.042l0.016,0.446c-1.229,0.67-1.672,1.986-2.185,3.509
	c-0.592,1.759-1.264,3.753-3.273,5.462C14.637,19.912,12.307,20.75,9.541,20.75z"/>
<path style="fill:#333333;" d="M2.824,7.933c-0.313-0.455-0.935-0.57-1.391-0.258s-0.57,0.935-0.258,1.391L2.824,7.933z
	 M18.001,17.865c0.478-0.277,0.641-0.889,0.364-1.367c-0.277-0.478-0.889-0.641-1.367-0.364L18.001,17.865z M1.176,9.067
	c1.446,2.103,4.224,5.005,7.267,7.045c1.524,1.021,3.165,1.861,4.781,2.254c1.623,0.395,3.298,0.355,4.777-0.501l-1.002-1.731
	c-0.896,0.519-2.002,0.604-3.302,0.288c-1.306-0.318-2.727-1.025-4.141-1.972c-2.831-1.898-5.429-4.62-6.733-6.517L1.176,9.067z"/>
<path style="fill:#333333;" d="M13.276,12.111C11.798,9.156,9.21,6.886,7.319,5.229c-0.666-0.584-1.241-1.088-1.7-1.554L5.797,3.25
	h8.095l0.071,0.064c1.837,1.655,2.814,4.328,3.07,5.107L16.56,8.578c-0.499-1.52-1.509-3.572-2.859-4.828H6.414
	C6.775,4.087,7.19,4.451,7.649,4.854c1.921,1.684,4.553,3.991,6.075,7.035L13.276,12.111z"/>
</svg>






