<?xml version="1.0" encoding="iso-8859-1"?>
<svg version="1.1" id="&#x56FE;&#x5C42;_1" xmlns="http://www.w3.org/2000/svg" xmlns:xlink="http://www.w3.org/1999/xlink" x="0px"
	 y="0px" viewBox="0 0 24 24" style="enable-background:new 0 0 24 24;" xml:space="preserve">
<path style="fill:#333333;" d="M19.5,21.25h-15c-0.965,0-1.75-0.785-1.75-1.75v-15c0-0.965,0.785-1.75,1.75-1.75h15
	c0.965,0,1.75,0.785,1.75,1.75v15C21.25,20.465,20.465,21.25,19.5,21.25z M4.5,3.25c-0.689,0-1.25,0.561-1.25,1.25v15
	c0,0.689,0.561,1.25,1.25,1.25h15c0.689,0,1.25-0.561,1.25-1.25v-15c0-0.689-0.561-1.25-1.25-1.25H4.5z"/>
<path style="fill:#333333;" d="M15.837,14.689L9.51,9.267C9.222,9.02,8.795,9.027,8.516,9.283l-5.347,4.901l-0.338-0.369l5.347-4.9
	c0.465-0.428,1.179-0.438,1.658-0.028l6.328,5.424L15.837,14.689z"/>
<path style="fill:#333333;" d="M20.85,12.2l-3.306-2.479c-0.296-0.223-0.718-0.193-0.98,0.069l-2.387,2.387l-0.354-0.354
	l2.387-2.387c0.437-0.438,1.14-0.487,1.635-0.116L21.15,11.8L20.85,12.2z"/>
<rect x="2.75" y="10" style="fill:#333333;" width="0.5" height="5"/>
<rect x="20.75" y="10" style="fill:#333333;" width="0.5" height="5"/>
</svg>






