<?xml version="1.0" encoding="iso-8859-1"?>
<svg version="1.1" id="&#x56FE;&#x5C42;_1" xmlns="http://www.w3.org/2000/svg" xmlns:xlink="http://www.w3.org/1999/xlink" x="0px"
	 y="0px" viewBox="0 0 24 24" style="enable-background:new 0 0 24 24;" xml:space="preserve">
<rect x="10.5" y="17.984" transform="matrix(0.9923 -0.124 0.124 0.9923 -2.3977 1.4878)" style="fill:#333333;" width="0.5" height="4.031"/>
<path style="fill:#333333;" d="M21.25,22.25H11l-0.188-0.415l3.426-3.915L12.717,5.75h8.533V22.25z M11.551,21.75h9.199V6.25h-7.467
	l1.479,11.83l-0.073,0.085L11.551,21.75z"/>
<rect x="14" y="13.75" style="fill:#333333;" width="2.5" height="0.5"/>
<rect x="13.5" y="9.75" style="fill:#333333;" width="3" height="0.5"/>
<path style="fill:#333333;" d="M14.783,18.25H2.75V1.75h9.971L14.783,18.25z M3.25,17.75h10.967l-1.938-15.5H3.25V17.75z"/>
<rect x="6" y="5.75" style="fill:#333333;" width="3.5" height="0.5"/>
<rect x="6" y="9.75" style="fill:#333333;" width="4" height="0.5"/>
<rect x="6" y="13.75" style="fill:#333333;" width="4.5" height="0.5"/>
</svg>






