<?xml version="1.0" encoding="iso-8859-1"?>
<svg version="1.1" id="&#x56FE;&#x5C42;_1" xmlns="http://www.w3.org/2000/svg" xmlns:xlink="http://www.w3.org/1999/xlink" x="0px"
	 y="0px" viewBox="0 0 24 24" style="enable-background:new 0 0 24 24;" xml:space="preserve">
<path style="fill:#333333;" d="M14.124,20.67L13.69,20.5v-5.135c-1.615-0.236-3.336-0.165-5.121,0.213
	c-1.833,0.39-3.978,2.071-6.376,4.998l-0.442-0.184c0.345-3.401,1.663-6.284,3.916-8.568c2.203-2.232,4.9-3.404,8.023-3.486V3.5
	l0.429-0.174l8.226,8.442L14.124,20.67z M11.784,14.729c0.75,0,1.484,0.059,2.197,0.175l0.21,0.035v4.921l7.465-8.083L14.19,4.115
	v4.717l-0.248,0.002c-3.09,0.024-5.755,1.149-7.919,3.342c-1.984,2.011-3.216,4.508-3.667,7.431c2.255-2.616,4.309-4.134,6.11-4.517
	C9.598,14.85,10.708,14.729,11.784,14.729z"/>
</svg>






