<?xml version="1.0" encoding="iso-8859-1"?>
<svg version="1.1" id="&#x56FE;&#x5C42;_1" xmlns="http://www.w3.org/2000/svg" xmlns:xlink="http://www.w3.org/1999/xlink" x="0px"
	 y="0px" viewBox="0 0 24 24" style="enable-background:new 0 0 24 24;" xml:space="preserve">
<path style="fill:#333333;" d="M10.25,21.25H9c-2.894,0-4.346,0-5.298-0.952C2.75,19.346,2.75,17.894,2.75,15V9
	c0-2.894,0-4.346,0.952-5.298C4.654,2.75,6.106,2.75,9,2.75h1.25V21.25z M9,3.25c-2.756,0-4.139,0-4.944,0.806
	C3.25,4.861,3.25,6.244,3.25,9v6c0,2.756,0,4.139,0.806,4.944C4.861,20.75,6.244,20.75,9,20.75h0.75V3.25H9z"/>
<path style="fill:#333333;" d="M15,21.25h-1.25V2.75H15c2.894,0,4.346,0,5.298,0.952C21.25,4.654,21.25,6.106,21.25,9v6
	c0,2.894,0,4.346-0.952,5.298S17.894,21.25,15,21.25z M14.25,20.75H15c2.756,0,4.139,0,4.944-0.806S20.75,17.756,20.75,15V9
	c0-2.756,0-4.139-0.806-4.944C19.139,3.25,17.756,3.25,15,3.25h-0.75V20.75z"/>
<rect x="17.25" y="6.5" style="fill:#333333;" width="0.5" height="1"/>
<rect x="6.25" y="16.5" style="fill:#333333;" width="0.5" height="1"/>
</svg>






