<?xml version="1.0" encoding="iso-8859-1"?>
<svg version="1.1" id="&#x56FE;&#x5C42;_1" xmlns="http://www.w3.org/2000/svg" xmlns:xlink="http://www.w3.org/1999/xlink" x="0px"
	 y="0px" viewBox="0 0 24 24" style="enable-background:new 0 0 24 24;" xml:space="preserve">
<path style="fill:#333333;" d="M12,22.25C6.348,22.25,1.75,17.652,1.75,12C1.75,6.348,6.348,1.75,12,1.75
	c5.652,0,10.25,4.598,10.25,10.25C22.25,17.652,17.652,22.25,12,22.25z M12,2.25c-5.376,0-9.75,4.374-9.75,9.75
	s4.374,9.75,9.75,9.75s9.75-4.374,9.75-9.75S17.376,2.25,12,2.25z"/>
<path style="fill:#333333;" d="M7.934,7.934L7.581,7.581C8.761,6.4,10.331,5.75,12,5.75c1.67,0,3.239,0.65,4.419,1.831l-0.354,0.354
	C14.98,6.848,13.536,6.25,12,6.25S9.02,6.848,7.934,7.934z"/>
<path style="fill:#333333;" d="M17.25,16.25H6.75v-4.5h10.5V16.25z M7.25,15.75h9.5v-3.5h-9.5V15.75z"/>
<rect x="5.832" y="18.429" transform="matrix(0.0039 -1 1 0.0039 -10.2006 27.1169)" style="fill:#333333;" width="5.357" height="0.5"/>
<rect x="12.832" y="18.429" transform="matrix(0.0039 -1 1 0.0039 -3.2279 34.1169)" style="fill:#333333;" width="5.357" height="0.5"/>
</svg>






