<?xml version="1.0" encoding="iso-8859-1"?>
<svg version="1.1" id="&#x56FE;&#x5C42;_1" xmlns="http://www.w3.org/2000/svg" xmlns:xlink="http://www.w3.org/1999/xlink" x="0px"
	 y="0px" viewBox="0 0 24 24" style="enable-background:new 0 0 24 24;" xml:space="preserve">
<path style="fill:#333333;" d="M12.25,21h-0.5v-7.5h0.5V21z M21,12.25h-7.5v-0.5H21V12.25z"/>
<path style="fill:#333333;" d="M12,13.75c-0.965,0-1.75-0.785-1.75-1.75s0.785-1.75,1.75-1.75s1.75,0.785,1.75,1.75
	S12.965,13.75,12,13.75z M12,10.75c-0.689,0-1.25,0.561-1.25,1.25s0.561,1.25,1.25,1.25s1.25-0.561,1.25-1.25S12.689,10.75,12,10.75
	z"/>
<path style="fill:#333333;" d="M3.25,21h-0.5v-9c0-5.101,4.149-9.25,9.25-9.25h9v0.5h-9c-4.825,0-8.75,3.925-8.75,8.75V21z"/>
</svg>






