<?xml version="1.0" encoding="iso-8859-1"?>
<svg version="1.1" id="&#x56FE;&#x5C42;_1" xmlns="http://www.w3.org/2000/svg" xmlns:xlink="http://www.w3.org/1999/xlink" x="0px"
	 y="0px" viewBox="0 0 24 24" style="enable-background:new 0 0 24 24;" xml:space="preserve">
<path style="fill:#333333;" d="M12,22.25C5.773,22.25,1.75,18.227,1.75,12v-0.25h20.5V12C22.25,18.227,18.227,22.25,12,22.25z
	 M2.252,12.25c0.089,4.64,2.686,9.5,9.748,9.5c7.062,0,9.658-4.86,9.748-9.5H2.252z"/>
<rect x="7.75" y="4" style="fill:#333333;" width="0.5" height="8"/>
<rect x="11.75" y="3" style="fill:#333333;" width="0.5" height="9"/>
<rect x="15.75" y="2" style="fill:#333333;" width="0.5" height="10"/>
<rect x="3.75" y="5" style="fill:#333333;" width="0.5" height="7"/>
<rect x="1.75" y="4" transform="matrix(0.9758 -0.2186 0.2186 0.9758 -0.6388 2.7258)" style="fill:#333333;" width="20.5" height="0.5"/>
</svg>






