<?xml version="1.0" encoding="iso-8859-1"?>
<svg version="1.1" id="&#x56FE;&#x5C42;_1" xmlns="http://www.w3.org/2000/svg" xmlns:xlink="http://www.w3.org/1999/xlink" x="0px"
	 y="0px" viewBox="0 0 24 24" style="enable-background:new 0 0 24 24;" xml:space="preserve">
<path style="fill:#333333;" d="M20,22.25H6c-0.689,0-1.25-0.561-1.25-1.25V3c0-0.689,0.561-1.25,1.25-1.25h14
	c0.689,0,1.25,0.561,1.25,1.25v18C21.25,21.689,20.689,22.25,20,22.25z M6,2.25C5.586,2.25,5.25,2.586,5.25,3v18
	c0,0.413,0.336,0.75,0.75,0.75h14c0.413,0,0.75-0.337,0.75-0.75V3c0-0.414-0.337-0.75-0.75-0.75H6z"/>
<rect x="16.75" y="3" style="fill:#333333;" width="0.5" height="18"/>
<rect x="3" y="6.75" style="fill:#333333;" width="4" height="0.5"/>
<rect x="3" y="11.75" style="fill:#333333;" width="4" height="0.5"/>
<rect x="3" y="16.75" style="fill:#333333;" width="4" height="0.5"/>
<rect x="13.5" y="1.75" style="fill:#333333;" width="6" height="0.5"/>
<rect x="13.5" y="21.75" style="fill:#333333;" width="6" height="0.5"/>
</svg>






