<?xml version="1.0" encoding="iso-8859-1"?>
<svg version="1.1" id="&#x56FE;&#x5C42;_1" xmlns="http://www.w3.org/2000/svg" xmlns:xlink="http://www.w3.org/1999/xlink" x="0px"
	 y="0px" viewBox="0 0 24 24" style="enable-background:new 0 0 24 24;" xml:space="preserve">
<rect x="2" y="21.75" style="fill:#333333;" width="20" height="0.5"/>
<rect x="6" y="6.75" style="fill:#333333;" width="12" height="0.5"/>
<path style="fill:#333333;" d="M20.276,22.25H3.724l0.472-4.72c0.039-0.389,0.121-0.771,0.243-1.139l1.667-5.001
	c0.099-0.295,0.168-0.602,0.208-0.913L6.779,6.75h10.441l0.466,3.728c0.039,0.308,0.108,0.615,0.207,0.913l1.667,5
	c0.123,0.369,0.205,0.752,0.244,1.138L20.276,22.25z M4.276,21.75h15.447l-0.417-4.171c-0.035-0.349-0.109-0.695-0.221-1.029
	l-1.667-5.001c-0.109-0.329-0.186-0.668-0.229-1.009l-0.411-3.29H7.221L6.81,10.54c-0.043,0.344-0.12,0.684-0.229,1.009L4.914,16.55
	c-0.111,0.332-0.185,0.679-0.221,1.03L4.276,21.75z"/>
<path style="fill:#333333;" d="M12.177,4.177l-0.354-0.354l0.414-0.414c0.419-0.419,0.999-0.659,1.591-0.659h0.344
	c0.461,0,0.911-0.187,1.237-0.513l0.414-0.414l0.354,0.354l-0.414,0.414C15.344,3.01,14.764,3.25,14.172,3.25h-0.344
	c-0.461,0-0.911,0.187-1.237,0.513L12.177,4.177z"/>
<path style="fill:#333333;" d="M10.538,18.955c-0.475-0.202-0.896-0.493-1.252-0.867c-0.668-0.7-1.036-1.619-1.036-2.588h0.5
	c0,0.84,0.319,1.636,0.897,2.242c0.31,0.324,0.675,0.578,1.086,0.752L10.538,18.955z"/>
<path style="fill:#333333;" d="M13.462,18.955l-0.195-0.461c0.412-0.175,0.777-0.428,1.086-0.751
	c0.579-0.607,0.897-1.403,0.897-2.243h0.5c0,0.969-0.368,1.888-1.036,2.588C14.358,18.461,13.937,18.753,13.462,18.955z"/>
<path style="fill:#333333;" d="M9.647,13.258l-0.361-0.346c0.715-0.749,1.679-1.162,2.714-1.162c1.036,0,2,0.413,2.714,1.162
	l-0.361,0.346c-0.619-0.65-1.455-1.008-2.353-1.008C11.104,12.25,10.268,12.607,9.647,13.258z"/>
<circle style="fill:#333333;" cx="12" cy="15.5" r="1"/>
</svg>






