<?xml version="1.0" encoding="iso-8859-1"?>
<svg version="1.1" id="&#x56FE;&#x5C42;_1" xmlns="http://www.w3.org/2000/svg" xmlns:xlink="http://www.w3.org/1999/xlink" x="0px"
	 y="0px" viewBox="0 0 24 24" style="enable-background:new 0 0 24 24;" xml:space="preserve">
<path style="fill:#333333;" d="M17.729,19.038c-0.119,0-0.237-0.026-0.346-0.078c-0.947-0.452-2.905-1.21-5.383-1.21
	c-2.479,0-4.436,0.758-5.382,1.21c-0.199,0.095-0.429,0.104-0.633,0.025c-0.201-0.076-0.356-0.226-0.438-0.42L1.883,9.867
	C1.774,9.606,1.819,9.318,2,9.113C2.912,8.089,6.324,4.75,12,4.75c5.678,0,9.089,3.339,9.999,4.363
	c0.183,0.205,0.228,0.494,0.118,0.754l-3.663,8.698c-0.082,0.194-0.237,0.344-0.438,0.42C17.924,19.021,17.826,19.038,17.729,19.038
	z M12,17.25c2.576,0,4.613,0.789,5.598,1.259c0.075,0.036,0.163,0.039,0.24,0.009c0.072-0.027,0.127-0.079,0.155-0.146l3.663-8.699
	c0.035-0.082,0.023-0.167-0.03-0.228C20.75,8.461,17.47,5.25,12,5.25c-5.468,0-8.75,3.211-9.626,4.195
	C2.321,9.505,2.31,9.59,2.344,9.673l3.663,8.699c0.028,0.066,0.083,0.118,0.155,0.146c0.077,0.03,0.165,0.027,0.24-0.009
	C7.387,18.039,9.423,17.25,12,17.25z"/>
<rect x="10" y="11.751" style="fill:#333333;" width="4" height="0.5"/>
<rect x="11.75" y="10" style="fill:#333333;" width="0.5" height="4"/>
</svg>






