<?xml version="1.0" encoding="iso-8859-1"?>
<svg version="1.1" id="&#x56FE;&#x5C42;_1" xmlns="http://www.w3.org/2000/svg" xmlns:xlink="http://www.w3.org/1999/xlink" x="0px"
	 y="0px" viewBox="0 0 24 24" style="enable-background:new 0 0 24 24;" xml:space="preserve">
<path style="fill:#333333;" d="M18.39,6.73c-0.106,0-0.19-0.025-0.245-0.08l-0.144-0.142c-1.041-1.024-1.329-1.425-1.233-1.715
	l0.021-0.065l0.052-0.045c0.451-0.392,1.114-1.098,1.511-1.52c0.141-0.15,0.253-0.27,0.32-0.338l0.134-0.136l0.167,0.094
	c0.4,0.226,2.416,1.368,2.689,1.646c0.078,0.079,0.13,0.223,0.041,0.391c-0.034,0.065-0.09,0.136-0.171,0.216
	C21.208,5.354,19.182,6.73,18.39,6.73z M18.497,6.296L18.5,6.299C18.499,6.298,18.498,6.297,18.497,6.296z M17.262,4.977
	c0.071,0.098,0.326,0.423,1.09,1.174l0.098,0.098c0.452-0.051,2.306-1.123,2.734-1.564c-0.354-0.249-1.344-0.835-2.288-1.371
	c-0.052,0.055-0.112,0.12-0.18,0.191C18.314,3.931,17.722,4.563,17.262,4.977z"/>
<path style="fill:#333333;" d="M9.829,21.998c-2.127,0-4.086-0.806-5.455-2.296c-1.208-1.314-1.867-3.08-1.856-4.971l0.002-0.313
	l0.305,0.071c0.107,0.024,0.219,0.037,0.334,0.037c0.831,0,1.507-0.676,1.507-1.507c0-0.71-0.503-1.33-1.196-1.475l-0.302-0.063
	L3.292,11.2c0.516-1.172,1.258-2.231,2.205-3.15L5.92,8.207l0.029,0.237c0.162,1.199,1.156,2.123,2.363,2.197
	c1.178,0.072,2.217,0.829,2.646,1.928l0.045,0.115c0.331,0.846,1.057,1.471,1.943,1.672l0.841,0.19
	c0.654,0.148,1.201,0.605,1.464,1.224c0.408,0.965,1.482,1.463,2.497,1.157l0.284,0.373c-0.479,0.76-1.064,1.459-1.737,2.077
	c-1.346,1.235-2.961,2.077-4.671,2.433C11.019,21.937,10.417,21.998,9.829,21.998z M3.021,15.021
	c0.052,1.674,0.644,3.17,1.721,4.343c1.628,1.771,4.161,2.504,6.78,1.956c1.622-0.337,3.155-1.136,4.435-2.312
	c0.496-0.455,0.941-0.956,1.328-1.495c-1.05,0.064-2.067-0.539-2.495-1.548c-0.199-0.47-0.615-0.818-1.113-0.931l-0.841-0.19
	c-1.048-0.239-1.907-0.979-2.298-1.979l-0.045-0.115c-0.359-0.918-1.227-1.551-2.211-1.611c-1.359-0.083-2.493-1.067-2.783-2.378
	c-0.67,0.717-1.216,1.515-1.629,2.38c0.767,0.291,1.297,1.037,1.297,1.877C5.166,14.172,4.176,15.086,3.021,15.021z"/>
<path style="fill:#333333;" d="M17.151,17.517c-0.326,0-0.653-0.062-0.966-0.188c-0.636-0.255-1.131-0.739-1.396-1.362
	c-0.199-0.471-0.615-0.819-1.113-0.932l-0.841-0.19c-1.049-0.239-1.907-0.979-2.298-1.979l-0.045-0.114
	c-0.359-0.919-1.228-1.551-2.212-1.612c-1.445-0.088-2.634-1.194-2.827-2.629L5.438,8.395C5.31,7.442,5.613,6.494,6.269,5.793
	l0.126-0.135C7.54,4.435,9.089,3.67,10.756,3.506l0.703-0.069c1.273-0.125,2.579,0.056,3.773,0.524
	c1.387,0.544,2.597,1.458,3.5,2.643l0.125,0.165c1.068,1.401,1.692,3.07,1.804,4.826l0.054,0.846
	c0.024,0.379,0.007,0.762-0.052,1.137l-0.104,0.665c-0.211,1.347-1.126,2.521-2.39,3.063C17.843,17.446,17.497,17.517,17.151,17.517
	z M6.76,6L6.634,6.135c-0.553,0.591-0.808,1.39-0.7,2.193L5.95,8.443c0.162,1.2,1.155,2.124,2.362,2.198
	c1.178,0.073,2.217,0.83,2.646,1.928l0.045,0.114c0.331,0.847,1.057,1.472,1.943,1.673l0.841,0.19
	c0.654,0.148,1.201,0.606,1.464,1.225c0.212,0.5,0.61,0.889,1.121,1.094c0.518,0.206,1.087,0.202,1.6-0.019
	c1.106-0.476,1.908-1.503,2.093-2.683l0.104-0.664c0.053-0.339,0.068-0.686,0.047-1.028l-0.053-0.846
	c-0.106-1.657-0.694-3.232-1.703-4.555l-0.125-0.165c-0.848-1.112-1.983-1.969-3.286-2.48c-1.119-0.44-2.339-0.612-3.541-0.492
	l-0.703,0.069C9.258,4.156,7.822,4.865,6.76,6L6.76,6z"/>
</svg>






