<?xml version="1.0" encoding="iso-8859-1"?>
<svg version="1.1" id="&#x56FE;&#x5C42;_1" xmlns="http://www.w3.org/2000/svg" xmlns:xlink="http://www.w3.org/1999/xlink" x="0px"
	 y="0px" viewBox="0 0 24 24" style="enable-background:new 0 0 24 24;" xml:space="preserve">
<path style="fill:#333333;" d="M15.22,21.25H8.809L8.78,21.033c-0.243-1.834-0.594-2.112-0.696-2.154
	C4.236,17.303,1.75,13.621,1.75,9.5V9.25h20.5V9.5c0,4.174-2.646,7.982-6.582,9.476c-0.063,0.024-0.386,0.236-0.44,2.032
	L15.22,21.25z M9.246,20.75h5.492c0.063-1.374,0.299-2.068,0.753-2.241c3.665-1.392,6.153-4.89,6.257-8.759H2.253
	c0.098,3.816,2.438,7.199,6.02,8.666C8.736,18.605,9.039,19.329,9.246,20.75z"/>
<path style="fill:#333333;" d="M8.854,15.733c-0.44-0.336-0.816-0.705-1.118-1.099c-0.312-0.409-0.566-0.931-0.754-1.551
	l0.479-0.145c0.17,0.562,0.396,1.03,0.673,1.391c0.274,0.358,0.618,0.696,1.023,1.005L8.854,15.733z"/>
<path style="fill:#333333;" d="M3.993,9.558L3.507,9.442c0.854-3.583,3.864-6.271,7.49-6.69l0.058,0.497
	C7.636,3.643,4.798,6.179,3.993,9.558z M20.007,9.556c-0.318-1.335-0.97-2.583-1.885-3.608l0.373-0.333
	c0.97,1.087,1.661,2.41,1.998,3.825L20.007,9.556z M15.979,4.227c-0.618-0.345-1.279-0.609-1.964-0.783l0.123-0.484
	c0.727,0.185,1.428,0.464,2.085,0.831L15.979,4.227z"/>
</svg>






