<?xml version="1.0" encoding="iso-8859-1"?>
<svg version="1.1" id="&#x56FE;&#x5C42;_1" xmlns="http://www.w3.org/2000/svg" xmlns:xlink="http://www.w3.org/1999/xlink" x="0px"
	 y="0px" viewBox="0 0 24 24" style="enable-background:new 0 0 24 24;" xml:space="preserve">
<path style="fill:#333333;" d="M15.575,21.75h-7.15c-0.337,0-0.666-0.14-0.899-0.382l-4.925-5.104
	C2.375,16.03,2.25,15.722,2.25,15.396V8.604c0-0.326,0.125-0.634,0.35-0.868l4.925-5.104C7.759,2.389,8.087,2.25,8.425,2.25h7.15
	c0.338,0,0.665,0.139,0.899,0.382l4.925,5.104c0.227,0.235,0.351,0.543,0.351,0.869v6.792c0,0.325-0.124,0.634-0.351,0.868
	l-4.925,5.104C16.24,21.61,15.913,21.75,15.575,21.75z M7.885,21.021c0.141,0.146,0.337,0.229,0.54,0.229h7.15
	c0.202,0,0.399-0.084,0.54-0.229l4.925-5.104c0.136-0.141,0.21-0.325,0.21-0.521V8.604c0-0.195-0.074-0.38-0.21-0.521l-4.925-5.103
	c-0.141-0.146-0.338-0.229-0.54-0.229h-7.15c-0.203,0-0.399,0.083-0.54,0.229L2.96,8.083C2.825,8.224,2.75,8.409,2.75,8.604v6.792
	c0,0.195,0.075,0.38,0.21,0.521L7.885,21.021z"/>
</svg>






