<?xml version="1.0" encoding="iso-8859-1"?>
<svg version="1.1" id="&#x56FE;&#x5C42;_1" xmlns="http://www.w3.org/2000/svg" xmlns:xlink="http://www.w3.org/1999/xlink" x="0px"
	 y="0px" viewBox="0 0 24 24" style="enable-background:new 0 0 24 24;" xml:space="preserve">
<polygon style="fill:#333333;" points="20.5,9.75 14.25,9.75 14.25,3.5 14.75,3.5 14.75,9.25 20.5,9.25 "/>
<polygon style="fill:#333333;" points="3.25,9 2.75,9 2.75,2.75 9,2.75 9,3.25 3.25,3.25 "/>
<polygon style="fill:#333333;" points="21.25,21.25 15,21.25 15,20.75 20.75,20.75 20.75,15 21.25,15 "/>
<polygon style="fill:#333333;" points="9.75,20.5 9.25,20.5 9.25,14.75 3.5,14.75 3.5,14.25 9.75,14.25 "/>
<rect x="13.154" y="6" transform="matrix(0.7071 -0.7071 0.7071 0.7071 0.7794 14.3817)" style="fill:#333333;" width="9.192" height="0.5"/>
<rect x="1.654" y="17.5" transform="matrix(0.7071 -0.7071 0.7071 0.7071 -10.7206 9.6183)" style="fill:#333333;" width="9.192" height="0.5"/>
</svg>






