<?xml version="1.0" encoding="iso-8859-1"?>
<svg version="1.1" id="&#x56FE;&#x5C42;_1" xmlns="http://www.w3.org/2000/svg" xmlns:xlink="http://www.w3.org/1999/xlink" x="0px"
	 y="0px" viewBox="0 0 24 24" style="enable-background:new 0 0 24 24;" xml:space="preserve">
<path style="fill:#333333;" d="M19.25,21.25H4.75V2.75h14.5V21.25z M5.25,20.75h13.5V3.25H5.25V20.75z"/>
<path style="fill:#333333;" d="M11.887,15.25c-0.753,0-1.494-0.513-1.887-1.305c-0.375-0.756-0.329-1.561,0.122-2.152
	c0.702-0.922,1.243-2.203,1.534-2.891l0.431-0.051c0.534,0.722,1.675,2.5,2.045,3.474c0.226,0.592,0.122,1.268-0.282,1.854
	C13.396,14.84,12.644,15.25,11.887,15.25z M11.942,9.509c-0.32,0.737-0.808,1.781-1.422,2.587l0,0
	c-0.333,0.438-0.359,1.046-0.071,1.627c0.304,0.614,0.882,1.027,1.438,1.027c0.594,0,1.189-0.327,1.552-0.854
	c0.31-0.45,0.393-0.958,0.227-1.394C13.367,11.718,12.502,10.324,11.942,9.509z"/>
<rect x="3" y="2.75" style="fill:#333333;" width="18" height="0.5"/>
<rect x="3" y="20.75" style="fill:#333333;" width="18" height="0.5"/>
<rect x="3" y="11.75" style="fill:#333333;" width="2" height="0.5"/>
<rect x="19" y="11.75" style="fill:#333333;" width="2" height="0.5"/>
</svg>






