<?xml version="1.0" encoding="iso-8859-1"?>
<svg version="1.1" id="&#x56FE;&#x5C42;_1" xmlns="http://www.w3.org/2000/svg" xmlns:xlink="http://www.w3.org/1999/xlink" x="0px"
	 y="0px" viewBox="0 0 24 24" style="enable-background:new 0 0 24 24;" xml:space="preserve">
<path style="fill:#333333;" d="M12,22.25c-3.648,0-7.05-1.964-8.878-5.125l0.216-0.375H7.5v0.5H3.783
	c1.785,2.786,4.894,4.5,8.217,4.5c2.126,0,4.149-0.672,5.851-1.942l0.299,0.4C16.361,21.544,14.234,22.25,12,22.25z"/>
<path style="fill:#333333;" d="M20.662,17.5l-2.238-3.875l0.434-0.25l1.799,3.115c0.717-1.38,1.094-2.924,1.094-4.49
	c0-3.878-2.296-7.387-5.85-8.939L16.1,2.603c3.736,1.632,6.15,5.32,6.15,9.397c0,1.802-0.475,3.574-1.371,5.125L20.662,17.5z"/>
<path style="fill:#333333;" d="M1.801,13.024C1.767,12.688,1.75,12.343,1.75,12C1.75,6.348,6.348,1.75,12,1.75l0.217,0.375
	l-2.021,3.5l-0.433-0.25l1.799-3.115C6.388,2.49,2.25,6.771,2.25,12c0,0.326,0.016,0.654,0.048,0.976L1.801,13.024z"/>
<path style="fill:#333333;" d="M12,15.25c-1.792,0-3.25-1.458-3.25-3.25S10.208,8.75,12,8.75s3.25,1.458,3.25,3.25
	S13.792,15.25,12,15.25z M12,9.25c-1.517,0-2.75,1.233-2.75,2.75s1.233,2.75,2.75,2.75s2.75-1.233,2.75-2.75S13.517,9.25,12,9.25z"
	/>
</svg>






