<?xml version="1.0" encoding="iso-8859-1"?>
<svg version="1.1" id="&#x56FE;&#x5C42;_1" xmlns="http://www.w3.org/2000/svg" xmlns:xlink="http://www.w3.org/1999/xlink" x="0px"
	 y="0px" viewBox="0 0 24 24" style="enable-background:new 0 0 24 24;" xml:space="preserve">
<path style="fill:#333333;" d="M12.872,22.25h-0.447c-2.699,0-5.193-1.348-6.672-3.605L4.655,16.97
	c-0.847-1.293-0.596-3.021,0.583-4.019l1.144-0.968C6.458,11.92,6.5,11.828,6.5,11.73V3.625c0-1.034,0.841-1.875,1.875-1.875
	s1.875,0.841,1.875,1.875v3.227c0.343-0.37,0.833-0.602,1.375-0.602c0.876,0,1.612,0.603,1.818,1.416
	C13.787,7.259,14.302,7,14.875,7c1.034,0,1.875,0.841,1.875,1.875v0.727C17.093,9.232,17.582,9,18.125,9
	C19.159,9,20,9.841,20,10.875v5.109c0,0.879-0.263,1.727-0.759,2.452l-0.486,0.711C17.426,21.09,15.227,22.25,12.872,22.25z
	 M8.375,2.25C7.617,2.25,7,2.867,7,3.625v8.105c0,0.245-0.107,0.476-0.294,0.634l-1.144,0.968c-0.987,0.836-1.197,2.281-0.489,3.364
	l1.098,1.675c1.386,2.115,3.724,3.379,6.254,3.379h0.447c2.189,0,4.234-1.079,5.471-2.886l0.486-0.711
	c0.438-0.642,0.671-1.392,0.671-2.169v-5.109c0-0.758-0.617-1.375-1.375-1.375s-1.375,0.617-1.375,1.375h-0.5v-2
	c0-0.758-0.617-1.375-1.375-1.375S13.5,8.117,13.5,8.875H13v-0.75c0-0.758-0.617-1.375-1.375-1.375
	c-0.758,0-1.375,0.617-1.375,1.375h-0.5v-4.5C9.75,2.867,9.133,2.25,8.375,2.25z"/>
</svg>






