<?xml version="1.0" encoding="iso-8859-1"?>
<svg version="1.1" id="&#x56FE;&#x5C42;_1" xmlns="http://www.w3.org/2000/svg" xmlns:xlink="http://www.w3.org/1999/xlink" x="0px"
	 y="0px" viewBox="0 0 24 24" style="enable-background:new 0 0 24 24;" xml:space="preserve">
<path style="fill:#333333;" d="M21,20.75H3c-0.689,0-1.25-0.561-1.25-1.25v-15c0-0.689,0.561-1.25,1.25-1.25h18
	c0.689,0,1.25,0.561,1.25,1.25v15C22.25,20.189,21.689,20.75,21,20.75z M3,3.75c-0.414,0-0.75,0.336-0.75,0.75v15
	c0,0.413,0.336,0.75,0.75,0.75h18c0.413,0,0.75-0.337,0.75-0.75v-15c0-0.414-0.337-0.75-0.75-0.75H3z"/>
<polygon style="fill:#333333;" points="8.25,15 7.75,15 7.75,9.459 6.136,10.5 5.864,10.08 7.864,8.79 8.25,9 "/>
<polygon style="fill:#333333;" points="17.75,15 17.25,15 17.25,9.459 15.636,10.5 15.364,10.08 17.364,8.79 17.75,9 "/>
<rect x="11.75" y="10" style="fill:#333333;" width="0.5" height="0.5"/>
<rect x="11.75" y="13.5" style="fill:#333333;" width="0.5" height="0.5"/>
</svg>






