<?xml version="1.0" encoding="iso-8859-1"?>
<svg version="1.1" id="&#x56FE;&#x5C42;_1" xmlns="http://www.w3.org/2000/svg" xmlns:xlink="http://www.w3.org/1999/xlink" x="0px"
	 y="0px" viewBox="0 0 24 24" style="enable-background:new 0 0 24 24;" xml:space="preserve">
<path style="fill:#333333;" d="M11.5,22.25c-4.069,0-5.827-1.344-6.224-2.139l-0.003-0.007l-2.03-4.398
	c-0.598-1.297-0.091-2.857,1.155-3.554l5.628-3.145c0.604-0.336,1.351-0.287,1.904,0.127l0.514,0.385
	c0.104,0.079,0.209,0.048,0.249,0.029c0.04-0.018,0.135-0.073,0.148-0.204l0.595-5.747c0.048-0.462,0.284-0.895,0.647-1.186
	l0.108-0.086c0.473-0.376,1.148-0.339,1.574,0.087c0.312,0.311,0.483,0.725,0.483,1.166v11.13c0,0.099,0.053,0.183,0.142,0.226
	c0.089,0.042,0.188,0.031,0.265-0.03l1.688-1.351c1.085-0.868,2.51-0.06,2.921,0.209c0.157,0.103,0.261,0.261,0.294,0.446
	c0.035,0.194-0.014,0.399-0.134,0.562l-3.974,5.376C17.363,20.25,15.566,22.25,11.5,22.25z M5.725,19.892
	c0.264,0.52,1.808,1.858,5.775,1.858c3.842,0,5.545-1.896,5.562-1.915l3.961-5.359c0.039-0.053,0.056-0.118,0.045-0.178
	c-0.007-0.034-0.024-0.082-0.076-0.116c-0.34-0.222-1.51-0.896-2.335-0.236l-1.688,1.351c-0.227,0.183-0.53,0.218-0.794,0.09
	c-0.262-0.126-0.425-0.385-0.425-0.676V3.58c0-0.307-0.119-0.596-0.337-0.812c-0.246-0.246-0.638-0.266-0.908-0.05l-0.108,0.086
	c-0.26,0.208-0.429,0.517-0.462,0.847L13.34,9.397c-0.028,0.272-0.195,0.5-0.446,0.61c-0.25,0.109-0.53,0.077-0.75-0.087
	L11.63,9.535c-0.396-0.296-0.929-0.332-1.36-0.091l-5.628,3.145c-1.02,0.57-1.435,1.847-0.945,2.908L5.725,19.892z"/>
</svg>






