<?xml version="1.0" encoding="iso-8859-1"?>
<svg version="1.1" id="&#x56FE;&#x5C42;_1" xmlns="http://www.w3.org/2000/svg" xmlns:xlink="http://www.w3.org/1999/xlink" x="0px"
	 y="0px" viewBox="0 0 24 24" style="enable-background:new 0 0 24 24;" xml:space="preserve">
<path style="fill:#333333;" d="M13.5,22.25h-3c-2.138,0-3.75-1.612-3.75-3.75v-7.75H3.314L1.709,5.402l0.144-0.104
	C2.836,4.583,6.474,2.25,12,2.25c3.699,0,7.11,1.023,10.138,3.042l0.154,0.103l-1.606,5.356H17.25v7.75
	C17.25,20.638,15.638,22.25,13.5,22.25z M3.686,10.25H7.25v8.25c0,1.853,1.397,3.25,3.25,3.25h3c1.853,0,3.25-1.397,3.25-3.25v-8.25
	h3.564l1.393-4.644C18.801,3.711,15.536,2.75,12,2.75c-5.134,0-8.58,2.061-9.709,2.85L3.686,10.25z"/>
<path style="fill:#333333;" d="M12.75,22h-0.5c0-5.19,4.702-5.25,4.75-5.25v0.5C16.827,17.251,12.75,17.316,12.75,22z"/>
<path style="fill:#333333;" d="M11.75,22h-0.5c0-4.696-4.077-4.75-4.25-4.75v-0.5C7.047,16.75,11.75,16.81,11.75,22z"/>
<path style="fill:#333333;" d="M12,6.75c-1.792,0-3.25-1.458-3.25-3.25c0-0.276,0.035-0.549,0.103-0.812l0.484,0.125
	C9.279,3.035,9.25,3.267,9.25,3.5c0,1.517,1.233,2.75,2.75,2.75s2.75-1.233,2.75-2.75c0-0.232-0.029-0.463-0.087-0.688l0.484-0.124
	C15.216,2.953,15.25,3.227,15.25,3.5C15.25,5.292,13.792,6.75,12,6.75z"/>
<path style="fill:#333333;" d="M6.055,3.731L5.892,3.259c3.877-1.337,8.331-1.341,12.19,0l-0.164,0.473
	C14.163,2.427,9.827,2.429,6.055,3.731z"/>
<rect x="6.75" y="15.5" style="fill:#333333;" width="0.5" height="3"/>
<rect x="16.75" y="15.5" style="fill:#333333;" width="0.5" height="3"/>
<rect x="10.5" y="21.75" style="fill:#333333;" width="3" height="0.5"/>
</svg>






