<?xml version="1.0" encoding="iso-8859-1"?>
<svg version="1.1" id="&#x56FE;&#x5C42;_1" xmlns="http://www.w3.org/2000/svg" xmlns:xlink="http://www.w3.org/1999/xlink" x="0px"
	 y="0px" viewBox="0 0 24 24" style="enable-background:new 0 0 24 24;" xml:space="preserve">
<path style="fill:#333333;" d="M20.42,20.25h-4.102c-0.592,0-1.107-0.421-1.226-1.002l-1.578-7.812l-0.207-2.084
	c-0.044-0.446,0.156-0.883,0.521-1.142l6.404-4.545c0.278-0.197,0.629-0.262,0.959-0.18c0.33,0.083,0.606,0.305,0.759,0.61
	c0.21,0.42,0.149,0.923-0.156,1.28l-1.105,1.288l-2.627,3.504c-0.168,0.224-0.197,0.519-0.078,0.772l3.564,7.526
	c0.185,0.39,0.157,0.84-0.072,1.203C21.246,20.032,20.851,20.25,20.42,20.25z M20.908,3.95c-0.137,0-0.271,0.042-0.386,0.123
	l-6.404,4.545c-0.219,0.155-0.339,0.417-0.312,0.685l0.203,2.059l1.574,7.786c0.07,0.349,0.38,0.602,0.735,0.602h4.102
	c0.259,0,0.495-0.131,0.634-0.349c0.138-0.219,0.154-0.488,0.044-0.722l-3.565-7.527c-0.199-0.421-0.148-0.913,0.13-1.285L20.3,6.35
	l1.115-1.301c0.174-0.204,0.209-0.491,0.089-0.731c-0.087-0.174-0.245-0.301-0.434-0.348C21.017,3.956,20.963,3.95,20.908,3.95z"/>
<polygon style="fill:#333333;" points="14.068,11.74 13.932,11.26 17.432,10.26 17.568,10.74 "/>
<path style="fill:#333333;" d="M7.661,20.25H3.58c-0.431,0-0.826-0.218-1.056-0.581c-0.23-0.364-0.258-0.814-0.074-1.204
	l3.558-7.511c0.123-0.259,0.089-0.561-0.088-0.786L3.304,6.85L2.213,5.6C1.902,5.243,1.84,4.739,2.055,4.316
	C2.206,4.018,2.479,3.8,2.804,3.719C3.13,3.637,3.474,3.701,3.748,3.893l6.364,4.454c0.404,0.283,0.604,0.778,0.511,1.262
	l-0.376,1.939l-1.354,7.669C8.786,19.815,8.269,20.25,7.661,20.25z M3.085,4.184c-0.053,0-0.107,0.006-0.159,0.02
	C2.741,4.25,2.586,4.374,2.5,4.542c-0.122,0.24-0.086,0.526,0.09,0.729L3.688,6.53l2.624,3.328c0.296,0.375,0.353,0.877,0.148,1.309
	L2.902,18.68c-0.111,0.233-0.094,0.503,0.044,0.722c0.139,0.218,0.375,0.349,0.634,0.349h4.081c0.364,0,0.675-0.261,0.739-0.62
	l1.354-7.673l0.377-1.943c0.057-0.29-0.064-0.587-0.307-0.757L3.461,4.302C3.35,4.225,3.218,4.184,3.085,4.184z"/>
<rect x="8" y="9.18" transform="matrix(0.2747 -0.9615 0.9615 0.2747 -4.5932 15.9106)" style="fill:#333333;" width="0.5" height="3.64"/>
</svg>






