<?xml version="1.0" encoding="iso-8859-1"?>
<svg version="1.1" id="&#x56FE;&#x5C42;_1" xmlns="http://www.w3.org/2000/svg" xmlns:xlink="http://www.w3.org/1999/xlink" x="0px"
	 y="0px" viewBox="0 0 24 24" style="enable-background:new 0 0 24 24;" xml:space="preserve">
<path style="fill:#333333;" d="M21.25,9h-0.5V4.5c0-0.689-0.561-1.25-1.25-1.25h-15c-0.689,0-1.25,0.561-1.25,1.25V9h-0.5V4.5
	c0-0.965,0.785-1.75,1.75-1.75h15c0.965,0,1.75,0.785,1.75,1.75V9z"/>
<rect x="9.077" y="9.5" transform="matrix(0.6793 -0.7339 0.7339 0.6793 -2.8255 13.035)" style="fill:#333333;" width="8.846" height="0.5"/>
<rect x="13.75" y="10.086" transform="matrix(0.7071 -0.7071 0.7071 0.7071 -4.0312 13.2678)" style="fill:#333333;" width="0.5" height="2.828"/>
<rect x="16.25" y="7.586" transform="matrix(0.7071 -0.7071 0.7071 0.7071 -1.5312 14.3033)" style="fill:#333333;" width="0.5" height="2.828"/>
<path style="fill:#333333;" d="M19.5,21.25h-15c-0.965,0-1.75-0.785-1.75-1.75V15h0.5v4.5c0,0.689,0.561,1.25,1.25,1.25h15
	c0.689,0,1.25-0.561,1.25-1.25V15h0.5v4.5C21.25,20.465,20.465,21.25,19.5,21.25z"/>
<path style="fill:#333333;" d="M9,17.75c-1.517,0-2.75-1.233-2.75-2.75S7.483,12.25,9,12.25s2.75,1.233,2.75,2.75
	S10.517,17.75,9,17.75z M9,12.75c-1.241,0-2.25,1.01-2.25,2.25S7.759,17.25,9,17.25s2.25-1.01,2.25-2.25S10.241,12.75,9,12.75z"/>
</svg>






