<?xml version="1.0" encoding="iso-8859-1"?>
<svg version="1.1" id="&#x56FE;&#x5C42;_1" xmlns="http://www.w3.org/2000/svg" xmlns:xlink="http://www.w3.org/1999/xlink" x="0px"
	 y="0px" viewBox="0 0 24 24" style="enable-background:new 0 0 24 24;" xml:space="preserve">
<path style="fill:#333333;" d="M12.978,19.103l-0.472-0.047l-1.209-5.321l-5.818-0.485l-0.108-0.463l5.102-3.083l-1.217-5.65
	l0.411-0.24l4.364,3.879l4.859-2.854l0.354,0.321l-2.438,5.277l4.361,3.877l-0.187,0.436l-5.824-0.485L12.978,19.103z M6.29,12.814
	l5.414,0.451l1.125,4.951l2.017-4.48l5.429,0.452l-4.078-3.625l2.26-4.889L13.97,8.308L9.905,4.695l1.13,5.251L6.29,12.814z"/>
<rect x="2.443" y="17.005" transform="matrix(0.7071 -0.7071 0.7071 0.7071 -9.9311 10.5339)" style="fill:#333333;" width="10.614" height="0.5"/>
</svg>






