<?xml version="1.0" encoding="iso-8859-1"?>
<svg version="1.1" id="&#x56FE;&#x5C42;_1" xmlns="http://www.w3.org/2000/svg" xmlns:xlink="http://www.w3.org/1999/xlink" x="0px"
	 y="0px" viewBox="0 0 24 24" style="enable-background:new 0 0 24 24;" xml:space="preserve">
<path style="fill-rule:evenodd;clip-rule:evenodd;fill:#333333;" d="M8.53,4.808c3.024,0.634,3.607,1.712,3.608,1.713
	C11.019,0.058,7.595,1.64,6.866,2.014C6.776,2.061,6.713,2.148,6.7,2.249C6.636,2.757,6.562,4.395,8.53,4.808z"/>
<path style="fill-rule:evenodd;clip-rule:evenodd;fill:#333333;" d="M7.327,11.346c-0.287,0.797-0.373,1.691-0.219,2.613
	c0.388,2.312,2.3,3.988,4.535,4.171l0.765,0.272c0.3,0.097,0.694,0.193,1.155,0.26c0.683,0.099,1.384,0.114,2.077,0.016
	c1.683-0.239,3.102-1.105,4.089-2.751l0.222-0.388c-0.606,3.338-2.983,6.409-6.783,7.12c-2.645,0.495-5.145-0.187-7.013-1.674
	l0.022,0.043c-1.234-2.396-1.455-4.556-0.89-6.483c0.271-0.922,0.739-1.747,1.353-2.478c0.216-0.257,0.441-0.492,0.673-0.709
	L7.327,11.346z M8.694,7.168c1.255-0.198,3.303-0.187,4.452,1.096c0.016,0.018,0,0.047-0.024,0.042
	c-0.614-0.125-1.446-0.128-2.085-0.02C9.69,8.512,8.605,9.23,7.906,10.227L7.66,10.414c-0.113,0.087-0.233,0.181-0.315,0.25
	c-0.378,0.316-0.744,0.674-1.088,1.083c-0.656,0.781-1.159,1.665-1.45,2.658c-0.508,1.731-0.42,3.635,0.398,5.696
	c-0.714-0.777-1.289-1.698-1.683-2.729c-0.918-2.405-0.638-5.534,0.939-7.554C5.586,8.378,7.244,7.397,8.694,7.168z M15.84,3.52
	c2.301-3.081,5.061-0.829,5.424-0.51c0.027,0.024,0.043,0.055,0.047,0.091c0.049,0.477,0.178,3.922-6.45,3.806
	c1.804,0.442,3.717,1.946,4.518,3.597c0.268,0.553,0.475,1.129,0.585,1.734c0.107,0.588,0.153,1.189,0.141,1.792
	c-0.026,0.139-0.117,0.368-0.259,0.653l-0.057,0.114l-0.12,0.227l-0.276,0.493c-0.91,1.612-2.23,2.443-3.821,2.669
	c-0.643,0.091-1.296,0.077-1.935-0.016c-0.224-0.033-0.43-0.072-0.616-0.115c1.397-0.273,2.549-1.105,3.264-2.224
	c0.165-0.22,0.305-0.462,0.415-0.733c0.503-1.238,0.57-2.471,0.18-3.855c-0.624-2.214-2.296-3.834-4.405-4.561
	c-0.018-0.006-0.019-0.032,0-0.037C12.75,6.563,13.92,6.09,15.84,3.52z"/>
</svg>






