<?xml version="1.0" encoding="iso-8859-1"?>
<svg version="1.1" id="&#x56FE;&#x5C42;_1" xmlns="http://www.w3.org/2000/svg" xmlns:xlink="http://www.w3.org/1999/xlink" x="0px"
	 y="0px" viewBox="0 0 24 24" style="enable-background:new 0 0 24 24;" xml:space="preserve">
<g>
	<defs>
		<rect id="SVGID_1_" width="24" height="24"/>
	</defs>
	<clipPath id="SVGID_00000130623743893809949880000001346898618380597935_">
		<use xlink:href="#SVGID_1_"  style="overflow:visible;"/>
	</clipPath>
	<g style="clip-path:url(#SVGID_00000130623743893809949880000001346898618380597935_);">
		<path style="fill:#333333;" d="M9.651,20.745c-2.753,0-5.506-1.048-7.602-3.144l-0.177-0.177L17.075,2.222l0.177,0.177
			c4.191,4.191,4.191,11.012,0,15.203C15.156,19.697,12.403,20.745,9.651,20.745z M2.582,17.423
			c4.009,3.821,10.38,3.763,14.317-0.175c3.938-3.938,3.996-10.308,0.175-14.317L2.582,17.423z"/>
		
			<rect x="13.113" y="8.462" transform="matrix(0.7071 -0.7071 0.7071 0.7071 -5.7823 13.4652)" style="fill:#333333;" width="0.5" height="10.5"/>
		<rect x="9.401" y="10" style="fill:#333333;" width="0.5" height="10.606"/>
		
			<rect x="14.527" y="5.047" transform="matrix(0.0345 -0.9994 0.9994 0.0345 4.0972 24.5944)" style="fill:#333333;" width="0.5" height="10.259"/>
		<path style="fill:#333333;" d="M9.702,20.733c-0.852,0-1.712-0.101-2.567-0.308l0.117-0.486c3.511,0.851,7.124-0.167,9.669-2.714
			c2.548-2.548,3.562-6.162,2.713-9.668l0.486-0.118c0.891,3.677-0.174,7.468-2.846,10.14C15.224,19.63,12.514,20.733,9.702,20.733z
			"/>
		
			<rect x="6.297" y="10.104" transform="matrix(0.7071 -0.7071 0.7071 0.7071 -4.598 9.6065)" style="fill:#333333;" width="6" height="0.5"/>
	</g>
</g>
</svg>






