<?xml version="1.0" encoding="iso-8859-1"?>
<svg version="1.1" id="&#x56FE;&#x5C42;_1" xmlns="http://www.w3.org/2000/svg" xmlns:xlink="http://www.w3.org/1999/xlink" x="0px"
	 y="0px" viewBox="0 0 24 24" style="enable-background:new 0 0 24 24;" xml:space="preserve">
<rect x="4.25" y="2" style="fill:#333333;" width="0.5" height="4.5"/>
<rect x="3" y="6.25" style="fill:#333333;" width="3" height="0.5"/>
<rect x="3" y="13.25" style="fill:#333333;" width="3" height="0.5"/>
<path style="fill:#333333;" d="M3.124,13.717l-0.248-0.434c0.624-0.357,2.295-1.5,2.527-2.484c0.058-0.246,0.022-0.462-0.111-0.661
	C5.065,9.798,4.806,9.618,4.5,9.588c-0.553-0.051-1.141,0.407-1.324,0.589L2.823,9.823C2.857,9.79,3.649,8.995,4.55,9.09
	c0.458,0.045,0.847,0.305,1.158,0.771c0.211,0.316,0.272,0.67,0.182,1.053C5.56,12.312,3.223,13.66,3.124,13.717z"/>
<path style="fill:#333333;" d="M4.478,21.845c-0.366,0-0.677-0.117-0.915-0.253c-0.483-0.275-0.76-0.686-0.771-0.703l0.416-0.278
	c0.088,0.133,0.904,1.266,2.154,0.432c0.353-0.235,0.539-0.498,0.554-0.78c0.029-0.55-0.569-1.064-0.576-1.069L5.11,19.001
	l0.229-0.192c0.006-0.006,0.607-0.518,0.576-1.071c-0.016-0.282-0.202-0.545-0.554-0.779c-1.275-0.851-2.118,0.379-2.153,0.431
	l-0.416-0.277c0.012-0.018,0.288-0.428,0.771-0.703c0.461-0.263,1.194-0.454,2.075,0.134c0.491,0.327,0.752,0.721,0.776,1.17
	C6.444,18.267,6.091,18.746,5.857,19c0.234,0.254,0.587,0.733,0.558,1.288c-0.024,0.449-0.285,0.843-0.776,1.17
	C5.212,21.742,4.821,21.845,4.478,21.845z"/>
<rect x="4.5" y="18.75" style="fill:#333333;" width="1" height="0.5"/>
<rect x="2.849" y="2.25" transform="matrix(0.8321 -0.5547 0.5547 0.8321 -0.7569 2.5)" style="fill:#333333;" width="1.803" height="0.5"/>
<rect x="10.5" y="11.75" style="fill:#333333;" width="11" height="0.5"/>
<rect x="10.5" y="18.75" style="fill:#333333;" width="11" height="0.5"/>
<rect x="10.5" y="4.75" style="fill:#333333;" width="11" height="0.5"/>
</svg>






