<?xml version="1.0" encoding="iso-8859-1"?>
<svg version="1.1" id="&#x56FE;&#x5C42;_1" xmlns="http://www.w3.org/2000/svg" xmlns:xlink="http://www.w3.org/1999/xlink" x="0px"
	 y="0px" viewBox="0 0 24 24" style="enable-background:new 0 0 24 24;" xml:space="preserve">
<path style="fill:#333333;" d="M7.846,21.799c-0.283,0-0.543-0.092-0.778-0.273c-0.409-0.345-0.863-1.722-0.818-9.4
	c-2.556-1.906-3.127-2.563-3.736-3.791C2.099,7.499,2.118,5.373,3.089,3.808C3.855,2.573,5.069,1.921,6.6,1.921
	c2.654,0,4.775,1.468,6.312,4.364c0.545-2.169,1.36-3.484,2.484-4.011c0.862-0.403,2.158-0.786,3.457-0.312
	c1.078,0.394,1.954,1.308,2.603,2.716c1.063,2.302-0.352,4.809-4.205,7.453v9.367l-0.385,0.211l-5.278-3.366
	c-1.416,2.149-2.563,3.273-3.505,3.435C8.002,21.792,7.923,21.799,7.846,21.799z M6.6,2.421c-1.368,0-2.407,0.555-3.086,1.651
	C2.595,5.553,2.667,7.518,2.961,8.112c0.576,1.16,1.129,1.785,3.688,3.687l0.102,0.076L6.75,12.002
	c-0.05,7.721,0.425,8.961,0.632,9.135c0.178,0.139,0.381,0.189,0.617,0.148c0.56-0.096,1.588-0.767,3.305-3.421l0.135-0.209
	l5.312,3.388v-9.175l0.109-0.075c3.703-2.514,5.097-4.837,4.143-6.905c-0.592-1.283-1.373-2.109-2.321-2.456
	c-1.133-0.414-2.297-0.068-3.072,0.295c-1.071,0.501-1.866,1.963-2.364,4.344l-0.472,0.055C11.307,4.004,9.229,2.421,6.6,2.421z"/>
<rect x="13.25" y="12.5" style="fill:#333333;" width="0.5" height="3"/>
</svg>






