<?xml version="1.0" encoding="iso-8859-1"?>
<svg version="1.1" id="&#x56FE;&#x5C42;_1" xmlns="http://www.w3.org/2000/svg" xmlns:xlink="http://www.w3.org/1999/xlink" x="0px"
	 y="0px" viewBox="0 0 24 24" style="enable-background:new 0 0 24 24;" xml:space="preserve">
<path style="fill:#333333;" d="M17.5,15.25h-11c-1.792,0-3.25-1.458-3.25-3.25V4.5h0.5V12c0,1.517,1.233,2.75,2.75,2.75h11
	c1.517,0,2.75-1.233,2.75-2.75V4.5h0.5V12C20.75,13.792,19.292,15.25,17.5,15.25z"/>
<path style="fill:#333333;" d="M17.5,8.25h-11C4.708,8.25,3.25,6.792,3.25,5S4.708,1.75,6.5,1.75h11c1.792,0,3.25,1.458,3.25,3.25
	S19.292,8.25,17.5,8.25z M6.5,2.25C4.983,2.25,3.75,3.483,3.75,5S4.983,7.75,6.5,7.75h11c1.517,0,2.75-1.233,2.75-2.75
	s-1.233-2.75-2.75-2.75H6.5z"/>
<circle style="fill:#333333;" cx="7.5" cy="5" r="1"/>
<circle style="fill:#333333;" cx="10.5" cy="5" r="1"/>
<circle style="fill:#333333;" cx="13.5" cy="5" r="1"/>
<circle style="fill:#333333;" cx="16.5" cy="5" r="1"/>
<rect x="9.25" y="15" style="fill:#333333;" width="0.5" height="7"/>
<rect x="14.25" y="15" style="fill:#333333;" width="0.5" height="7"/>
</svg>






