<?xml version="1.0" encoding="iso-8859-1"?>
<svg version="1.1" id="&#x56FE;&#x5C42;_1" xmlns="http://www.w3.org/2000/svg" xmlns:xlink="http://www.w3.org/1999/xlink" x="0px"
	 y="0px" viewBox="0 0 24 24" style="enable-background:new 0 0 24 24;" xml:space="preserve">
<path style="fill:#333333;" d="M22,21.25H1.618L8.771,4.9l0.46,0.004l4.743,11.383l1.789-5.366l0.452-0.049l6,10L22,21.25z
	 M2.382,20.75h19.176l-5.493-9.155l-1.828,5.484l-0.468,0.017L8.995,5.637L2.382,20.75z"/>
<path style="fill:#333333;" d="M18.5,7.25c-1.517,0-2.75-1.233-2.75-2.75s1.233-2.75,2.75-2.75s2.75,1.233,2.75,2.75
	S20.017,7.25,18.5,7.25z M18.5,2.25c-1.24,0-2.25,1.009-2.25,2.25s1.01,2.25,2.25,2.25s2.25-1.009,2.25-2.25S19.74,2.25,18.5,2.25z"
	/>
</svg>






