<?xml version="1.0" encoding="iso-8859-1"?>
<svg version="1.1" id="&#x56FE;&#x5C42;_1" xmlns="http://www.w3.org/2000/svg" xmlns:xlink="http://www.w3.org/1999/xlink" x="0px"
	 y="0px" viewBox="0 0 24 24" style="enable-background:new 0 0 24 24;" xml:space="preserve">
<path style="fill:#333333;" d="M7,19.75c-1.241,0-2.25-1.01-2.25-2.25S5.759,15.25,7,15.25s2.25,1.01,2.25,2.25S8.241,19.75,7,19.75
	z M7,15.75c-0.965,0-1.75,0.785-1.75,1.75S6.035,19.25,7,19.25s1.75-0.785,1.75-1.75S7.965,15.75,7,15.75z"/>
<path style="fill:#333333;" d="M16.5,19.75c-1.24,0-2.25-1.01-2.25-2.25s1.01-2.25,2.25-2.25s2.25,1.01,2.25,2.25
	S17.74,19.75,16.5,19.75z M16.5,15.75c-0.965,0-1.75,0.785-1.75,1.75s0.785,1.75,1.75,1.75s1.75-0.785,1.75-1.75
	S17.465,15.75,16.5,15.75z"/>
<rect x="2" y="17.25" style="fill:#333333;" width="3" height="0.5"/>
<rect x="9" y="17.25" style="fill:#333333;" width="5.5" height="0.5"/>
<rect x="18.5" y="17.25" style="fill:#333333;" width="3.5" height="0.5"/>
<polygon style="fill:#333333;" points="19.177,9.677 18.823,9.323 21.646,6.5 18.823,3.677 19.177,3.323 22.354,6.5 "/>
<rect x="2" y="6.25" style="fill:#333333;" width="20" height="0.5"/>
</svg>






