<?xml version="1.0" encoding="iso-8859-1"?>
<svg version="1.1" id="&#x56FE;&#x5C42;_1" xmlns="http://www.w3.org/2000/svg" xmlns:xlink="http://www.w3.org/1999/xlink" x="0px"
	 y="0px" viewBox="0 0 24 24" style="enable-background:new 0 0 24 24;" xml:space="preserve">
<path style="fill:#333333;" d="M10.444,21.338c-2.684-0.616-5.361-2.846-7.16-5.963c-1.36-2.354-2.042-4.917-1.92-7.214
	c0.124-2.337,1.061-4.126,2.641-5.038C6.233,1.835,9.32,2.555,12.059,5l-0.333,0.373C9.154,3.078,6.29,2.381,4.254,3.556
	C2.826,4.381,1.977,6.025,1.863,8.188c-0.116,2.202,0.542,4.666,1.854,6.938c1.706,2.954,4.327,5.148,6.84,5.727L10.444,21.338z"/>
<path style="fill:#333333;" d="M12.037,21.497c-0.859,0-1.675-0.199-2.404-0.62C6.41,19.016,6.087,13.52,8.913,8.625l0,0
	c1.359-2.354,3.237-4.226,5.288-5.27c2.087-1.062,4.105-1.144,5.683-0.232c3.224,1.86,3.547,7.356,0.722,12.251
	C18.417,19.162,14.976,21.497,12.037,21.497z M9.345,8.875L9.345,8.875c-2.688,4.656-2.446,9.846,0.538,11.568
	c2.987,1.723,7.601-0.664,10.288-5.318c2.688-4.656,2.446-9.846-0.538-11.569c-1.427-0.823-3.274-0.737-5.206,0.245
	C12.462,4.801,10.657,6.604,9.345,8.875z"/>
</svg>






