<?xml version="1.0" encoding="iso-8859-1"?>
<svg version="1.1" id="&#x56FE;&#x5C42;_1" xmlns="http://www.w3.org/2000/svg" xmlns:xlink="http://www.w3.org/1999/xlink" x="0px"
	 y="0px" viewBox="0 0 24 24" style="enable-background:new 0 0 24 24;" xml:space="preserve">
<path style="fill:#333333;" d="M16.75,16.75h-9.5v-9.5h9.5V16.75z M7.75,16.25h8.5v-8.5h-8.5V16.25z"/>
<polygon style="fill:#333333;" points="5.75,21.5 5.25,21.5 5.25,18.75 2.5,18.75 2.5,18.25 5.75,18.25 "/>
<polygon style="fill:#333333;" points="18.75,21.5 18.25,21.5 18.25,18.25 21.5,18.25 21.5,18.75 18.75,18.75 "/>
<polygon style="fill:#333333;" points="5.75,5.75 2.5,5.75 2.5,5.25 5.25,5.25 5.25,2.5 5.75,2.5 "/>
<polygon style="fill:#333333;" points="21.5,5.75 18.25,5.75 18.25,2.5 18.75,2.5 18.75,5.25 21.5,5.25 "/>
</svg>






