<?xml version="1.0" encoding="iso-8859-1"?>
<svg version="1.1" id="&#x56FE;&#x5C42;_1" xmlns="http://www.w3.org/2000/svg" xmlns:xlink="http://www.w3.org/1999/xlink" x="0px"
	 y="0px" viewBox="0 0 24 24" style="enable-background:new 0 0 24 24;" xml:space="preserve">
<g>
	<defs>
		<rect id="SVGID_1_" width="24" height="24"/>
	</defs>
	<clipPath id="SVGID_00000093866304130599467530000016802831543012190876_">
		<use xlink:href="#SVGID_1_"  style="overflow:visible;"/>
	</clipPath>
	<g style="clip-path:url(#SVGID_00000093866304130599467530000016802831543012190876_);">
		<path style="fill:#333333;" d="M15.505,10.97l-0.354-0.354l2.153-2.154l0.14,0.037c0.947,0.254,1.964-0.02,2.656-0.712
			c0.52-0.52,0.806-1.21,0.806-1.945c0-0.734-0.286-1.425-0.806-1.944s-1.21-0.805-1.944-0.805s-1.425,0.286-1.944,0.805
			c-0.691,0.692-0.965,1.71-0.713,2.657l0.037,0.139l-2.152,2.154L13.03,8.495l1.951-1.953c-0.235-1.078,0.094-2.214,0.877-2.997
			c0.614-0.614,1.431-0.952,2.298-0.952c0.868,0,1.685,0.338,2.298,0.952c0.614,0.614,0.952,1.43,0.952,2.298
			c0,0.869-0.338,1.685-0.952,2.298c-0.783,0.782-1.916,1.111-2.997,0.876L15.505,10.97z"/>
		<path style="fill:#333333;" d="M18.715,18.366l-5.864-4.089L10.7,15.71l-2.588-2.587l1.434-2.151L5.635,5.283l2.268-2.268
			l13.082,13.081L18.715,18.366z M12.856,13.672l5.802,4.044l1.62-1.62L7.903,3.722L6.283,5.342l3.867,5.625l-1.394,2.091
			l2.008,2.009L12.856,13.672z"/>
		<path style="fill:#333333;" d="M8.257,20.99c-1.345,0-2.689-0.512-3.712-1.535c-0.992-0.992-1.538-2.311-1.538-3.713
			s0.546-2.721,1.538-3.712c1.356-1.356,3.342-1.866,5.185-1.328l-0.14,0.48c-1.668-0.484-3.464-0.025-4.691,1.201
			c-0.897,0.896-1.391,2.09-1.391,3.358s0.494,2.462,1.391,3.359c1.852,1.852,4.865,1.85,6.717,0
			c1.226-1.227,1.687-3.024,1.202-4.691l0.48-0.141c0.536,1.844,0.027,3.83-1.329,5.186C10.946,20.479,9.601,20.99,8.257,20.99z"/>
	</g>
</g>
</svg>






