<?xml version="1.0" encoding="iso-8859-1"?>
<svg version="1.1" id="&#x56FE;&#x5C42;_1" xmlns="http://www.w3.org/2000/svg" xmlns:xlink="http://www.w3.org/1999/xlink" x="0px"
	 y="0px" viewBox="0 0 24 24" style="enable-background:new 0 0 24 24;" xml:space="preserve">
<path style="fill:#333333;" d="M12,11.25H7.5c-0.091-0.014-0.99-0.209-1.549-0.449c-0.441-0.189-1.058-0.573-1.083-0.589L4.989,9.75
	C5,9.75,6.058,9.7,6.665,9.479c0.969-0.353,2.139-1.635,2.15-1.647L8.889,7.75h6.221l0.075,0.082
	c0.012,0.013,1.183,1.295,2.15,1.647C17.942,9.701,19,9.75,19.011,9.75l0.121,0.461c-0.025,0.017-0.642,0.4-1.083,0.589
	c-0.559,0.24-1.458,0.436-1.496,0.443L12,11.25z M5.808,10.176c0.118,0.062,0.236,0.121,0.341,0.166
	c0.515,0.221,1.396,0.412,1.404,0.414l8.945-0.006c-0.009-0.003,0.85-0.192,1.354-0.409c0.105-0.045,0.224-0.104,0.341-0.166
	c-0.339-0.045-0.726-0.116-1.028-0.227c-0.942-0.343-1.983-1.394-2.272-1.699H9.109C8.82,8.555,7.778,9.606,6.835,9.949
	C6.533,10.06,6.147,10.131,5.808,10.176z"/>
<path style="fill:#333333;" d="M12,17.25H7c-0.09-0.012-1.252-0.205-1.888-0.444c-0.501-0.188-1.203-0.57-1.232-0.586l0.11-0.47
	c0.012,0,1.231-0.05,1.934-0.274c1.112-0.354,2.385-1.638,2.398-1.651l0.073-0.074h7.209l0.073,0.074
	c0.014,0.014,1.285,1.297,2.398,1.651c0.702,0.225,1.921,0.274,1.934,0.274l0.11,0.47c-0.03,0.016-0.731,0.398-1.232,0.586
	c-0.636,0.239-1.798,0.433-1.847,0.441L12,17.25z M4.909,16.177c0.131,0.061,0.262,0.116,0.378,0.16
	c0.59,0.223,1.742,0.414,1.753,0.416L17,16.75c-0.012-0.001,1.126-0.192,1.712-0.413c0.117-0.043,0.248-0.1,0.379-0.16
	c-0.386-0.045-0.824-0.115-1.167-0.225c-1.079-0.344-2.224-1.407-2.526-1.702H8.603c-0.303,0.295-1.448,1.358-2.527,1.702
	C5.733,16.062,5.294,16.132,4.909,16.177z"/>
<path style="fill:#333333;" d="M14.548,5.25L9.409,5.233c-0.025-0.01-0.618-0.244-0.943-0.451c-0.244-0.155-0.618-0.44-0.618-0.44
	l0.057-0.43c0.001,0,0.608-0.249,0.99-0.424c1.195-0.552,2.951-1.686,2.969-1.697L12,1.702l0.136,0.088
	c0.018,0.012,1.774,1.146,2.969,1.697c0.382,0.176,0.989,0.424,0.99,0.424l0.058,0.43c0,0-0.374,0.286-0.618,0.44
	c-0.326,0.207-0.918,0.44-0.942,0.45L14.548,5.25z M9.548,4.75h4.904c0.138-0.056,0.575-0.238,0.814-0.39
	c0.069-0.044,0.15-0.1,0.229-0.156c-0.194-0.082-0.422-0.18-0.601-0.263C13.851,3.459,12.441,2.578,12,2.297
	c-0.442,0.281-1.851,1.163-2.895,1.645h0C8.926,4.024,8.698,4.122,8.504,4.204c0.079,0.056,0.16,0.112,0.23,0.156
	C8.973,4.512,9.41,4.694,9.548,4.75z"/>
<rect x="10.25" y="5" style="fill:#333333;" width="0.5" height="3"/>
<rect x="13.25" y="5" style="fill:#333333;" width="0.5" height="3"/>
<rect x="9.25" y="11" style="fill:#333333;" width="0.5" height="3"/>
<rect x="14.25" y="11" style="fill:#333333;" width="0.5" height="3"/>
<polygon style="fill:#333333;" points="16.25,22.25 7.75,22.25 7.75,17 8.25,17 8.25,21.75 15.75,21.75 15.75,17 16.25,17 "/>
</svg>






