<?xml version="1.0" encoding="iso-8859-1"?>
<svg version="1.1" id="&#x56FE;&#x5C42;_1" xmlns="http://www.w3.org/2000/svg" xmlns:xlink="http://www.w3.org/1999/xlink" x="0px"
	 y="0px" viewBox="0 0 24 24" style="enable-background:new 0 0 24 24;" xml:space="preserve">
<path style="fill:#333333;" d="M12,22.25c-5.166,0-8.25-3.458-8.25-9.25C3.75,7.206,8.398,1.75,12,1.75
	c3.603,0,8.25,5.456,8.25,11.25C20.25,18.792,17.166,22.25,12,22.25z M12,2.25C8.688,2.25,4.25,7.565,4.25,13
	c0,5.479,2.897,8.75,7.75,8.75c4.853,0,7.75-3.271,7.75-8.75C19.75,7.565,15.312,2.25,12,2.25z"/>
<path style="fill:#333333;" d="M10.5,19c0.828,0,1.5-0.672,1.5-1.5S11.328,16,10.5,16S9,16.672,9,17.5S9.672,19,10.5,19z"/>
<path style="fill-rule:evenodd;clip-rule:evenodd;fill:#333333;" d="M8,14.834c0.552,0,1-0.448,1-1c0-0.552-0.448-1-1-1
	s-1,0.448-1,1C7,14.386,7.448,14.834,8,14.834z"/>
</svg>






