<?xml version="1.0" encoding="iso-8859-1"?>
<svg version="1.1" id="&#x56FE;&#x5C42;_1" xmlns="http://www.w3.org/2000/svg" xmlns:xlink="http://www.w3.org/1999/xlink" x="0px"
	 y="0px" viewBox="0 0 24 24" style="enable-background:new 0 0 24 24;" xml:space="preserve">
<rect x="9.72" y="10.28" transform="matrix(0.7071 -0.7071 0.7071 0.7071 -6.824 11.0856)" style="fill:#333333;" width="0.5" height="7"/>
<path style="fill:#333333;" d="M5.727,21.771c-0.96,0-1.92-0.365-2.651-1.096c-1.462-1.462-1.462-3.842,0-5.304l4.242-4.243
	l0.354,0.354l-4.242,4.243c-0.614,0.614-0.952,1.431-0.952,2.299c0,0.867,0.338,1.684,0.952,2.298c1.267,1.266,3.329,1.265,4.596,0
	l4.242-4.243l0.354,0.354l-4.242,4.243C7.648,21.405,6.688,21.771,5.727,21.771z"/>
<rect x="4.934" y="17.065" transform="matrix(0.7071 -0.7071 0.7071 0.7071 -10.3594 9.6212)" style="fill:#333333;" width="3" height="0.5"/>
<path style="fill:#333333;" d="M12.388,16.552l-5.19-5.19l3.325-7.706c0.318-0.738,0.921-1.274,1.654-1.471
	c0.677-0.183,1.373-0.048,1.953,0.382c2.65,1.962,5.271,4.561,7.014,6.952c0.435,0.597,0.567,1.318,0.373,2.03
	c-0.21,0.766-0.764,1.393-1.52,1.719L12.388,16.552z M7.792,11.249l4.709,4.709L19.8,12.81c0.615-0.266,1.065-0.773,1.234-1.392
	c0.153-0.562,0.049-1.131-0.295-1.604c-2.539-3.486-5.929-6.12-6.906-6.845c-0.456-0.337-1.002-0.443-1.526-0.301
	c-0.584,0.157-1.067,0.589-1.325,1.187L7.792,11.249z"/>
</svg>






