<?xml version="1.0" encoding="iso-8859-1"?>
<svg version="1.1" id="&#x56FE;&#x5C42;_1" xmlns="http://www.w3.org/2000/svg" xmlns:xlink="http://www.w3.org/1999/xlink" x="0px"
	 y="0px" viewBox="0 0 24 24" style="enable-background:new 0 0 24 24;" xml:space="preserve">
<path style="fill:#333333;" d="M17.305,18.25h-7.93c-0.15,0-0.294-0.064-0.395-0.177l-4.857-5.439
	c-0.392-0.439-0.584-1.004-0.541-1.591c0.043-0.586,0.316-1.117,0.768-1.493c0.447-0.373,1.011-0.544,1.593-0.488
	c0.58,0.059,1.099,0.341,1.463,0.796l0.344,0.43V4.497c0-0.963,0.784-1.748,1.747-1.75c0.001,0,0.003,0,0.004,0
	c0.466,0,0.905,0.181,1.235,0.511c0.009,0.009,0.018,0.019,0.027,0.028C10.869,2.421,11.607,1.75,12.5,1.75
	c0.868,0,1.591,0.635,1.727,1.465c0.319-0.339,0.772-0.551,1.273-0.551c0.965,0,1.75,0.785,1.75,1.75V4.85
	c0.318-0.325,0.761-0.526,1.25-0.526c0.965,0,1.75,0.785,1.75,1.75v6.841c0,1.131-0.352,2.212-1.017,3.127l-1.416,1.948
	C17.699,18.152,17.507,18.25,17.305,18.25z M9.353,17.739c0.006,0.007,0.014,0.011,0.022,0.011h7.93
	c0.043,0,0.083-0.021,0.108-0.055l1.416-1.949c0.603-0.828,0.921-1.808,0.921-2.832V6.073c0-0.689-0.561-1.25-1.25-1.25
	s-1.25,0.561-1.25,1.25h-0.5V4.415c0-0.689-0.561-1.25-1.25-1.25s-1.25,0.561-1.25,1.25h-0.5V3.5c0-0.689-0.561-1.25-1.25-1.25
	s-1.25,0.561-1.25,1.25v0.997h-0.5c0-0.334-0.13-0.649-0.367-0.885C10.147,3.376,9.833,3.247,9.5,3.247c-0.001,0-0.002,0-0.003,0
	C8.81,3.248,8.25,3.809,8.25,4.497V11l-0.445,0.156L7.016,10.17c-0.279-0.35-0.678-0.566-1.123-0.611
	C5.447,9.511,5.014,9.647,4.671,9.933c-0.347,0.289-0.556,0.696-0.59,1.146c-0.033,0.45,0.114,0.884,0.415,1.221L9.353,17.739z"/>
<path style="fill:#333333;" d="M17,22.25h-7c-0.414,0-0.75-0.337-0.75-0.75v-3c0-0.413,0.336-0.75,0.75-0.75h7
	c0.413,0,0.75,0.337,0.75,0.75v3C17.75,21.913,17.413,22.25,17,22.25z M10,18.25c-0.138,0-0.25,0.112-0.25,0.25v3
	c0,0.138,0.112,0.25,0.25,0.25h7c0.138,0,0.25-0.112,0.25-0.25v-3c0-0.138-0.112-0.25-0.25-0.25H10z"/>
</svg>






