<?xml version="1.0" encoding="iso-8859-1"?>
<svg version="1.1" id="&#x56FE;&#x5C42;_1" xmlns="http://www.w3.org/2000/svg" xmlns:xlink="http://www.w3.org/1999/xlink" x="0px"
	 y="0px" viewBox="0 0 24 24" style="enable-background:new 0 0 24 24;" xml:space="preserve">
<path style="fill:#333333;" d="M12,22.25c-5.101,0-9.25-3.925-9.25-8.75c0-4.825,4.149-8.75,9.25-8.75s9.25,3.925,9.25,8.75
	C21.25,18.325,17.101,22.25,12,22.25z M12,5.25c-4.825,0-8.75,3.701-8.75,8.25s3.925,8.25,8.75,8.25c4.825,0,8.75-3.701,8.75-8.25
	S16.825,5.25,12,5.25z"/>
<path style="fill:#333333;" d="M8.25,14.542c-0.123,0-0.245-0.017-0.365-0.049c-0.932-0.25-1.429-1.428-1.108-2.626
	c0.322-1.198,1.345-1.963,2.273-1.721c0.465,0.125,0.834,0.476,1.041,0.989c0.196,0.488,0.22,1.07,0.068,1.637
	c-0.152,0.568-0.464,1.061-0.877,1.385C8.957,14.41,8.602,14.542,8.25,14.542z M8.684,10.599c-0.597,0-1.204,0.575-1.425,1.398
	c-0.25,0.931,0.089,1.835,0.755,2.014c0.308,0.083,0.648-0.005,0.957-0.246c0.329-0.259,0.579-0.657,0.703-1.121
	c0.125-0.464,0.107-0.934-0.048-1.322c-0.146-0.363-0.396-0.609-0.706-0.692C8.842,10.609,8.763,10.599,8.684,10.599z"/>
<path style="fill:#333333;" d="M15.684,14.542c-0.352,0-0.708-0.132-1.03-0.385c-0.413-0.324-0.725-0.816-0.877-1.385
	c-0.152-0.567-0.129-1.149,0.067-1.637c0.206-0.513,0.575-0.864,1.041-0.989l0,0c0.467-0.124,0.96-0.005,1.395,0.336
	c0.414,0.325,0.726,0.816,0.877,1.384c0.321,1.197-0.176,2.376-1.107,2.626C15.929,14.525,15.807,14.542,15.684,14.542z
	 M15.247,10.599c-0.079,0-0.157,0.01-0.233,0.031l0,0c-0.31,0.083-0.56,0.329-0.706,0.692c-0.155,0.388-0.173,0.858-0.049,1.322
	c0.125,0.464,0.375,0.862,0.703,1.121c0.309,0.241,0.648,0.33,0.958,0.246c0.665-0.179,1.004-1.083,0.754-2.014
	c-0.124-0.464-0.374-0.862-0.703-1.121C15.738,10.694,15.488,10.599,15.247,10.599z"/>
<path style="fill:#333333;" d="M20.677,10.676l-0.354-0.354c1.509-1.51,1.579-3.895,0.156-5.318
	c-0.687-0.687-1.752-1.068-2.892-1.013c-1.141,0.042-2.201,0.474-2.911,1.184l-0.354-0.354c0.798-0.798,1.98-1.283,3.245-1.33
	c1.292-0.05,2.48,0.374,3.265,1.159C22.451,6.269,22.381,8.972,20.677,10.676z"/>
<path style="fill:#333333;" d="M3.323,10.676C1.615,8.968,1.538,6.265,3.151,4.651c1.604-1.603,4.836-1.518,6.525,0.171L9.323,5.176
	C7.812,3.665,4.931,3.58,3.505,5.005c-1.419,1.419-1.342,3.804,0.172,5.318L3.323,10.676z"/>
<path style="fill:#333333;" d="M11.262,18.751c-0.114,0-0.227-0.014-0.337-0.042c-0.592-0.147-0.986-0.675-1.158-1.119l0.467-0.18
	c0.121,0.312,0.406,0.712,0.812,0.814c0.378,0.091,0.811-0.067,1.291-0.483l0.163-0.141l0.163,0.141
	c0.481,0.415,0.913,0.572,1.291,0.483c0.407-0.103,0.692-0.503,0.812-0.814l0.467,0.18c-0.172,0.444-0.566,0.972-1.158,1.119
	c-0.492,0.126-1.022-0.03-1.575-0.455C12.072,18.584,11.657,18.751,11.262,18.751z"/>
</svg>






