<?xml version="1.0" encoding="iso-8859-1"?>
<svg version="1.1" id="&#x56FE;&#x5C42;_1" xmlns="http://www.w3.org/2000/svg" xmlns:xlink="http://www.w3.org/1999/xlink" x="0px"
	 y="0px" viewBox="0 0 24 24" style="enable-background:new 0 0 24 24;" xml:space="preserve">
<path style="fill:#333333;" d="M13.595,21.25h-3.189l-0.071-0.062C9.984,20.878,1.75,13.543,1.75,7.5V7.396l0.073-0.073
	C3.743,5.404,4.25,2.975,4.255,2.951L4.33,2.578l0.313,0.217C4.667,2.812,7.151,4.5,12,4.5c4.85,0,7.332-1.688,7.357-1.705
	l0.273-0.19l0.106,0.316c0.01,0.029,0.999,2.962,2.439,4.402l0.073,0.073V7.5c0,6.043-8.234,13.378-8.585,13.688L13.595,21.25z
	 M10.596,20.75h2.809c0.805-0.729,8.254-7.632,8.345-13.149c-1.222-1.272-2.09-3.435-2.381-4.226C18.584,3.826,16.146,5,12,5
	C7.903,5,5.473,3.854,4.661,3.392c-0.21,0.756-0.851,2.613-2.41,4.21C2.342,13.121,9.792,20.021,10.596,20.75z"/>
<path style="fill:#333333;" d="M13.75,21h-0.5c0-0.248,0.023-6.106,2.033-9.624c2.039-3.569,6.5-4.104,6.689-4.125l0.055,0.497
	c-0.043,0.005-4.398,0.53-6.311,3.875C13.772,15.027,13.75,20.94,13.75,21z"/>
<path style="fill:#333333;" d="M10.25,21c0-0.06-0.023-5.975-1.967-9.376C6.368,8.273,2.016,7.753,1.972,7.749l0.056-0.497
	c0.188,0.021,4.649,0.555,6.689,4.125c2.01,3.518,2.033,9.376,2.033,9.624H10.25z"/>
</svg>






