<?xml version="1.0" encoding="iso-8859-1"?>
<svg version="1.1" id="&#x56FE;&#x5C42;_1" xmlns="http://www.w3.org/2000/svg" xmlns:xlink="http://www.w3.org/1999/xlink" x="0px"
	 y="0px" viewBox="0 0 24 24" style="enable-background:new 0 0 24 24;" xml:space="preserve">
<path style="fill:#333333;" d="M5.979,20.22c-0.941,0-2.002-0.332-2.995-1.325c-1.225-1.225-1.389-2.515-1.31-3.382
	c0.091-1.003,0.546-1.865,0.957-2.275l9.545-9.546c1.551-1.549,5.258-2.166,7.778,0.354c2.519,2.52,1.903,6.229,0.354,7.778
	l-7.071,7.071l-0.354-0.354l7.071-7.071c1.402-1.402,1.946-4.771-0.354-7.071c-1.353-1.352-2.905-1.602-3.925-1.562
	c-1.235,0.04-2.441,0.503-3.146,1.208l-9.545,9.546c-0.335,0.335-0.732,1.094-0.812,1.968c-0.069,0.76,0.077,1.895,1.166,2.982
	c2.023,2.022,4.335,0.968,4.95,0.354l9.192-9.192c0.32-0.32,0.552-0.899,0.59-1.475c0.045-0.675-0.164-1.281-0.59-1.707
	s-1.025-0.638-1.707-0.59c-0.575,0.039-1.154,0.27-1.475,0.59c-0.708,0.707-6.718,6.717-6.718,6.717l-0.354-0.354
	c0,0,6.01-6.01,6.718-6.717c0.407-0.407,1.095-0.689,1.795-0.735c0.832-0.057,1.565,0.207,2.094,0.735
	c1.169,1.169,0.774,3.115,0,3.889l-9.192,9.192C8.24,19.649,7.212,20.22,5.979,20.22z"/>
</svg>






