<?xml version="1.0" encoding="iso-8859-1"?>
<svg version="1.1" id="&#x56FE;&#x5C42;_1" xmlns="http://www.w3.org/2000/svg" xmlns:xlink="http://www.w3.org/1999/xlink" x="0px"
	 y="0px" viewBox="0 0 24 24" style="enable-background:new 0 0 24 24;" xml:space="preserve">
<path style="fill:#333333;" d="M22.25,18.75H1.75V6.25h20.5V18.75z M2.25,18.25h19.5V6.75H2.25V18.25z"/>
<path style="fill:#333333;" d="M2,10.75H1.75v-4.5h4.5V6.5C6.25,8.843,4.343,10.75,2,10.75z M2.25,6.75v3.492
	c1.869-0.124,3.368-1.623,3.492-3.492H2.25z"/>
<path style="fill:#333333;" d="M6.25,18.75h-4.5v-4.5H2c2.343,0,4.25,1.906,4.25,4.25V18.75z M2.25,18.25h3.492
	c-0.124-1.869-1.623-3.368-3.492-3.492V18.25z"/>
<path style="fill:#333333;" d="M22.25,18.75h-4.5V18.5c0-2.344,1.906-4.25,4.25-4.25h0.25V18.75z M18.258,18.25h3.492v-3.492
	C19.881,14.882,18.382,16.381,18.258,18.25z"/>
<path style="fill:#333333;" d="M22.25,10.75H22c-2.344,0-4.25-1.907-4.25-4.25V6.25h4.5V10.75z M18.258,6.75
	c0.124,1.869,1.623,3.368,3.492,3.492V6.75H18.258z"/>
<path style="fill:#333333;" d="M12,15.75c-1.517,0-2.75-1.458-2.75-3.25S10.483,9.25,12,9.25s2.75,1.458,2.75,3.25
	S13.517,15.75,12,15.75z M12,9.75c-1.241,0-2.25,1.233-2.25,2.75s1.009,2.75,2.25,2.75c1.24,0,2.25-1.233,2.25-2.75
	S13.24,9.75,12,9.75z"/>
</svg>






