<?xml version="1.0" encoding="iso-8859-1"?>
<svg version="1.1" id="&#x56FE;&#x5C42;_1" xmlns="http://www.w3.org/2000/svg" xmlns:xlink="http://www.w3.org/1999/xlink" x="0px"
	 y="0px" viewBox="0 0 24 24" style="enable-background:new 0 0 24 24;" xml:space="preserve">
<path style="fill:#333333;" d="M8.377,12.341l-0.176-0.151c-1.696-1.453-2.578-1.758-3.02-1.758s-1.323,0.305-3.019,1.758L1.75,12
	C1.75,6.348,6.348,1.75,12,1.75c5.652,0,10.25,4.598,10.25,10.25l-0.413,0.189c-1.695-1.453-2.577-1.758-3.019-1.758
	s-1.323,0.305-3.019,1.758l-0.176,0.151l-0.164-0.164c-2.319-2.316-4.604-2.315-6.919,0L8.377,12.341z M12,9.932
	c1.219,0,2.445,0.582,3.648,1.73c1.387-1.164,2.426-1.73,3.17-1.73c0.698,0,1.655,0.499,2.916,1.521C21.45,6.33,17.192,2.25,12,2.25
	c-5.193,0-9.45,4.08-9.735,9.203c1.261-1.023,2.218-1.521,2.917-1.521c0.745,0,1.783,0.566,3.17,1.73
	C9.554,10.514,10.781,9.932,12,9.932z"/>
<polygon style="fill:#333333;" points="11.823,22.177 1.823,12.177 2.177,11.823 11.38,21.026 8.129,12.085 8.599,11.915 
	12.235,21.915 "/>
<polygon style="fill:#333333;" points="12.177,22.177 11.765,21.915 15.401,11.915 15.872,12.085 12.62,21.026 21.823,11.823 
	22.177,12.177 "/>
</svg>






