<?xml version="1.0" encoding="iso-8859-1"?>
<svg version="1.1" id="&#x56FE;&#x5C42;_1" xmlns="http://www.w3.org/2000/svg" xmlns:xlink="http://www.w3.org/1999/xlink" x="0px"
	 y="0px" viewBox="0 0 24 24" style="enable-background:new 0 0 24 24;" xml:space="preserve">
<path style="fill:#333333;" d="M16.265,20.25H3.36c-0.402,0-0.769-0.186-1.007-0.51c-0.238-0.323-0.306-0.729-0.186-1.112
	L6.542,4.627C6.706,4.103,7.186,3.75,7.735,3.75H20.64c0.402,0,0.77,0.186,1.008,0.51s0.306,0.729,0.186,1.113l-4.375,13.999
	C17.294,19.897,16.814,20.25,16.265,20.25z M7.735,4.25c-0.33,0-0.618,0.211-0.716,0.526l-4.375,14
	c-0.072,0.23-0.031,0.474,0.111,0.668c0.143,0.194,0.363,0.306,0.604,0.306h12.904c0.33,0,0.618-0.212,0.717-0.526l4.375-14
	c0.071-0.23,0.031-0.473-0.112-0.667C21.102,4.361,20.881,4.25,20.64,4.25H7.735z"/>
</svg>






