<?xml version="1.0" encoding="iso-8859-1"?>
<svg version="1.1" id="&#x56FE;&#x5C42;_1" xmlns="http://www.w3.org/2000/svg" xmlns:xlink="http://www.w3.org/1999/xlink" x="0px"
	 y="0px" viewBox="0 0 24 24" style="enable-background:new 0 0 24 24;" xml:space="preserve">
<rect x="12" y="4.25" style="fill:#333333;" width="9" height="0.5"/>
<rect x="12" y="9.25" style="fill:#333333;" width="9" height="0.5"/>
<rect x="3" y="14.25" style="fill:#333333;" width="18" height="0.5"/>
<rect x="3" y="19.25" style="fill:#333333;" width="18" height="0.5"/>
<path style="fill:none;" d="M5.5,4.5l-2,4h4L5.5,4.5z"/>
<path style="fill:#333333;" d="M7.776,9.612L7.346,8.75H3.654L3.224,9.612L2.776,9.388l0.5-1L3.5,8.5L3.276,8.388l2-4h0.447l2,4
	L7.5,8.5l0.224-0.112l0.5,1L7.776,9.612z M3.904,8.25h3.191L5.5,5.059L3.904,8.25z"/>
</svg>






