<?xml version="1.0" encoding="iso-8859-1"?>
<svg version="1.1" id="&#x56FE;&#x5C42;_1" xmlns="http://www.w3.org/2000/svg" xmlns:xlink="http://www.w3.org/1999/xlink" x="0px"
	 y="0px" viewBox="0 0 24 24" style="enable-background:new 0 0 24 24;" xml:space="preserve">
<path style="fill:#333333;" d="M19.25,22.25H6.812c-2.089,0-3.062-1.191-3.062-3.75V1.75H10v0.5H4.25V18.5
	c0,2.278,0.767,3.25,2.562,3.25H18.75V15.5h0.5V22.25z"/>
<path style="fill:#333333;" d="M16.5,13.25c-2.619,0-4.75-2.131-4.75-4.75s2.131-4.75,4.75-4.75s4.75,2.131,4.75,4.75
	S19.119,13.25,16.5,13.25z M16.5,4.25c-2.344,0-4.25,1.907-4.25,4.25s1.906,4.25,4.25,4.25s4.25-1.907,4.25-4.25
	S18.844,4.25,16.5,4.25z"/>
<rect x="10.75" y="8" style="fill:#333333;" width="0.5" height="1"/>
<rect x="21.75" y="8" style="fill:#333333;" width="0.5" height="1"/>
<path style="fill:#333333;" d="M16.253,4.041c-0.077-0.465-0.557-1.439-1.821-1.801l0.137-0.48c1.506,0.43,2.083,1.626,2.179,2.199
	L16.253,4.041z"/>
<path style="fill:#333333;" d="M16.749,4.021l-0.498-0.042c0.051-0.606,0.345-1.75,1.125-2.196l0.248,0.435
	C17.066,2.536,16.795,3.47,16.749,4.021z"/>
<circle style="fill:#333333;" cx="18" cy="8" r="1"/>
<circle style="fill:#333333;" cx="15" cy="8" r="1"/>
<rect x="4" y="17.75" style="fill:#333333;" width="15" height="0.5"/>
</svg>






