<?xml version="1.0" encoding="iso-8859-1"?>
<svg version="1.1" id="&#x56FE;&#x5C42;_1" xmlns="http://www.w3.org/2000/svg" xmlns:xlink="http://www.w3.org/1999/xlink" x="0px"
	 y="0px" viewBox="0 0 24 24" style="enable-background:new 0 0 24 24;" xml:space="preserve">
<path style="fill:#333333;" d="M12,22.312L11.85,22.2c-0.331-0.248-8.1-6.15-8.1-12.7c0-4.273,3.701-7.75,8.25-7.75
	s8.25,3.477,8.25,7.75c0,6.55-7.77,12.452-8.1,12.7L12,22.312z M12,2.25c-4.273,0-7.75,3.252-7.75,7.25
	c0,5.812,6.658,11.319,7.75,12.184c1.092-0.864,7.75-6.372,7.75-12.184C19.75,5.502,16.273,2.25,12,2.25z"/>
<rect x="10.25" y="7" style="fill:#333333;" width="0.5" height="8"/>
<path style="fill:#333333;" d="M13.5,11.25h-3.25v-4.5h3.25c1.24,0,2.25,1.009,2.25,2.25S14.74,11.25,13.5,11.25z M10.75,10.75h2.75
	c0.965,0,1.75-0.785,1.75-1.75s-0.785-1.75-1.75-1.75h-2.75V10.75z"/>
</svg>






