<?xml version="1.0" encoding="iso-8859-1"?>
<svg version="1.1" id="&#x56FE;&#x5C42;_1" xmlns="http://www.w3.org/2000/svg" xmlns:xlink="http://www.w3.org/1999/xlink" x="0px"
	 y="0px" viewBox="0 0 24 24" style="enable-background:new 0 0 24 24;" xml:space="preserve">
<path style="fill:#333333;" d="M12.063,14.25c-1.554,0-4.789-2.563-5.311-6.215C6.495,6.233,6.899,4.611,7.89,3.469
	c0.975-1.125,2.418-1.719,4.174-1.719c1.83,0,3.217,0.521,4.123,1.547c0.961,1.089,1.318,2.682,1.062,4.734
	C16.73,12.172,13.646,14.25,12.063,14.25z M12.063,2.25c-1.606,0-2.918,0.535-3.796,1.546c-0.895,1.031-1.257,2.512-1.02,4.168
	c0.478,3.342,3.45,5.785,4.816,5.785c1.384,0,4.214-1.985,4.688-5.781c0.238-1.904-0.078-3.364-0.94-4.341
	C15.005,2.713,13.743,2.25,12.063,2.25z"/>
<path style="fill:#333333;" d="M9.53,22.248L9.47,21.752c2.193-0.267,5.28-1.055,5.28-1.975c0-0.561-1.214-0.736-2.285-0.891
	C11.13,18.693,9.75,18.494,9.75,17.5c0-1.668,1.576-3.209,2.641-3.725l0.219,0.449c-0.989,0.479-2.359,1.884-2.359,3.275
	c0,0.562,1.215,0.737,2.286,0.892c1.334,0.192,2.714,0.392,2.714,1.386C15.25,21.469,10.485,22.133,9.53,22.248z"/>
</svg>






