<?xml version="1.0" encoding="iso-8859-1"?>
<svg version="1.1" id="&#x56FE;&#x5C42;_1" xmlns="http://www.w3.org/2000/svg" xmlns:xlink="http://www.w3.org/1999/xlink" x="0px"
	 y="0px" viewBox="0 0 24 24" style="enable-background:new 0 0 24 24;" xml:space="preserve">
<path style="fill:#333333;" d="M6.5,20.25h-2c-0.689,0-1.25-0.561-1.25-1.25V3c0-0.689,0.561-1.25,1.25-1.25h10
	c0.689,0,1.25,0.561,1.25,1.25v2h-0.5V3c0-0.414-0.337-0.75-0.75-0.75h-10C4.086,2.25,3.75,2.586,3.75,3v16
	c0,0.413,0.336,0.75,0.75,0.75h2V20.25z"/>
<path style="fill:#333333;" d="M19.5,22.25h-12c-0.689,0-1.25-0.561-1.25-1.25V6c0-0.689,0.561-1.25,1.25-1.25h12
	c0.689,0,1.25,0.561,1.25,1.25v15C20.75,21.689,20.189,22.25,19.5,22.25z M7.5,5.25C7.086,5.25,6.75,5.586,6.75,6v15
	c0,0.413,0.336,0.75,0.75,0.75h12c0.413,0,0.75-0.337,0.75-0.75V6c0-0.414-0.337-0.75-0.75-0.75H7.5z"/>
<path style="fill:#333333;" d="M13.5,17.75c-2.343,0-4.25-1.906-4.25-4.25c0-2.343,1.907-4.25,4.25-4.25
	c2.344,0,4.25,1.907,4.25,4.25C17.75,15.844,15.844,17.75,13.5,17.75z M13.5,9.75c-2.068,0-3.75,1.682-3.75,3.75
	c0,2.067,1.682,3.75,3.75,3.75c2.067,0,3.75-1.683,3.75-3.75C17.25,11.432,15.567,9.75,13.5,9.75z"/>
<path style="fill:#333333;" d="M13.792,17.639c-0.396-0.594-0.007-2.541,1.058-3.339c1.073-0.805,2.627-0.557,2.691-0.547
	l-0.082,0.494c-0.013-0.003-1.409-0.223-2.309,0.453c-0.935,0.7-1.138,2.369-0.942,2.661L13.792,17.639z"/>
<path style="fill:#333333;" d="M10,15.75v-0.5c0.867,0,1.75-0.883,1.75-1.75h0.5C12.25,14.636,11.136,15.75,10,15.75z"/>
<path style="fill:#333333;" d="M14,12.25v-0.5c1.23,0,1.25-1.679,1.25-1.75l0.5,0C15.75,10.778,15.384,12.25,14,12.25z"/>
</svg>






