<?xml version="1.0" encoding="iso-8859-1"?>
<svg version="1.1" id="&#x56FE;&#x5C42;_1" xmlns="http://www.w3.org/2000/svg" xmlns:xlink="http://www.w3.org/1999/xlink" x="0px"
	 y="0px" viewBox="0 0 24 24" style="enable-background:new 0 0 24 24;" xml:space="preserve">
<path style="fill:#333333;" d="M19.25,22.25H4.75V4.75h14.5V22.25z M5.25,21.75h13.5V5.25H5.25V21.75z"/>
<polygon style="fill:#333333;" points="5.066,5.241 4.934,4.759 16.25,1.673 16.25,5 15.75,5 15.75,2.327 "/>
<path style="fill:#333333;" d="M12,14.25c-1.241,0-2.25-1.01-2.25-2.25c0-1.241,1.009-2.25,2.25-2.25c1.24,0,2.25,1.009,2.25,2.25
	C14.25,13.24,13.24,14.25,12,14.25z M12,10.25c-0.965,0-1.75,0.785-1.75,1.75s0.785,1.75,1.75,1.75s1.75-0.785,1.75-1.75
	S12.965,10.25,12,10.25z"/>
<rect x="10" y="16.75" style="fill:#333333;" width="4" height="0.5"/>
</svg>






