<?xml version="1.0" encoding="iso-8859-1"?>
<svg version="1.1" id="&#x56FE;&#x5C42;_1" xmlns="http://www.w3.org/2000/svg" xmlns:xlink="http://www.w3.org/1999/xlink" x="0px"
	 y="0px" viewBox="0 0 24 24" style="enable-background:new 0 0 24 24;" xml:space="preserve">
<path style="fill:#333333;" d="M21.25,8.25h-5.5v-5.5h5.5V8.25z M16.25,7.75h4.5v-4.5h-4.5V7.75z"/>
<path style="fill:#333333;" d="M21.25,21.25h-5.5v-5.5h5.5V21.25z M16.25,20.75h4.5v-4.5h-4.5V20.75z"/>
<path style="fill:#333333;" d="M8.25,21.25h-5.5v-5.5h5.5V21.25z M3.25,20.75h4.5v-4.5h-4.5V20.75z"/>
<path style="fill:#333333;" d="M8.25,8.25h-5.5v-5.5h5.5V8.25z M3.25,7.75h4.5v-4.5h-4.5V7.75z"/>
<rect x="4" y="11.75" style="fill:#333333;" width="11" height="0.5"/>
<rect x="19" y="11.75" style="fill:#333333;" width="1" height="0.5"/>
<rect x="11.75" y="18.5" style="fill:#333333;" width="0.5" height="1"/>
<rect x="11.75" y="8.5" style="fill:#333333;" width="0.5" height="7"/>
<rect x="11.75" y="4" style="fill:#333333;" width="0.5" height="1"/>
</svg>






