<?xml version="1.0" encoding="iso-8859-1"?>
<svg version="1.1" id="&#x56FE;&#x5C42;_1" xmlns="http://www.w3.org/2000/svg" xmlns:xlink="http://www.w3.org/1999/xlink" x="0px"
	 y="0px" viewBox="0 0 24 24" style="enable-background:new 0 0 24 24;" xml:space="preserve">
<path style="fill:#333333;" d="M13.219,21.75H8.207l2.581-16h5.729c3.326,0,5.234,1.549,5.234,4.25s-1.908,4.25-5.234,4.25h-2.297
	L13.219,21.75z M8.793,21.25h3.988l1-7.5h2.734c1.769,0,4.734-0.487,4.734-3.75s-2.966-3.75-4.734-3.75h-5.303L8.793,21.25z"/>
<path style="fill:#333333;" d="M9,18.25H4.707l2.581-16h5.729c3.326,0,5.234,1.549,5.234,4.25s-1.908,4.25-5.234,4.25H10.5v-0.5
	h2.516c1.769,0,4.734-0.487,4.734-3.75s-2.966-3.75-4.734-3.75H7.713l-2.419,15H9V18.25z"/>
</svg>






