<?xml version="1.0" encoding="iso-8859-1"?>
<svg version="1.1" id="&#x56FE;&#x5C42;_1" xmlns="http://www.w3.org/2000/svg" xmlns:xlink="http://www.w3.org/1999/xlink" x="0px"
	 y="0px" viewBox="0 0 24 24" style="enable-background:new 0 0 24 24;" xml:space="preserve">
<path style="fill:#333333;" d="M12.167,21.763l-0.307-0.129c-1.38-0.579-3.95-1.657-6.725-4.172
	C2.47,15.044,1.604,10.185,4.852,6.549l0,0c2.583-2.889,7.033-1.613,8.664-0.821c0.963-0.33,3.205-0.627,4.715,0.397
	c1.858,1.261,4.396,4.717,2.124,9.671c-1.922,4.188-7.089,5.688-8.105,5.945L12.167,21.763z M9.25,5.248
	c-1.432,0-2.921,0.4-4.024,1.635c-3.044,3.407-2.243,7.952,0.246,10.208c2.711,2.458,5.229,3.514,6.582,4.081l0.154,0.065
	c1.143-0.302,5.912-1.768,7.692-5.649c2.134-4.65-0.222-7.876-1.95-9.048c-1.39-0.943-3.575-0.605-4.36-0.306l-0.104,0.04
	l-0.099-0.05C12.598,5.821,10.965,5.248,9.25,5.248z"/>
<path style="fill:#333333;" d="M9.321,15.057c-0.036-0.154-0.083-0.327-0.136-0.517c-0.341-1.237-0.856-3.107,0.153-5.271
	c1.092-2.341,3.104-3.125,4.071-3.502l0.182,0.466c-0.976,0.38-2.792,1.088-3.799,3.248c-0.932,1.997-0.445,3.761-0.124,4.927
	c0.054,0.196,0.104,0.376,0.141,0.536L9.321,15.057z"/>
<path style="fill:#333333;" d="M11.998,5.286l-0.495-0.071c0.029-0.199,0.088-0.391,0.146-0.577c0.12-0.388,0.244-0.79,0.109-1.327
	c-0.177-0.708-0.863-0.921-1.193-1.024c-0.082-0.025-0.143-0.046-0.177-0.063l0.222-0.448c0.021,0.01,0.058,0.02,0.103,0.034
	c0.352,0.109,1.285,0.4,1.529,1.38c0.169,0.673,0.017,1.164-0.117,1.596C12.071,4.96,12.021,5.125,11.998,5.286z"/>
<path style="fill:#333333;" d="M14.425,5.917c-0.066,0-0.132-0.001-0.194-0.003l0,0c-0.301-0.01-0.576-0.148-0.757-0.378
	s-0.249-0.531-0.188-0.827c0.145-0.684,0.474-1.622,1.225-2.21c0.751-0.589,1.746-0.682,2.438-0.66
	c0.301,0.011,0.577,0.148,0.757,0.378c0.181,0.23,0.249,0.532,0.188,0.827c-0.144,0.683-0.472,1.62-1.225,2.21
	C15.984,5.791,15.104,5.917,14.425,5.917z M16.757,2.336c-0.597,0-1.363,0.106-1.938,0.557c-0.633,0.495-0.917,1.317-1.044,1.919
	c-0.031,0.152,0.001,0.3,0.092,0.415c0.09,0.115,0.226,0.182,0.381,0.187l0,0c0.626,0.023,1.479-0.058,2.112-0.553
	c0.635-0.497,0.918-1.318,1.043-1.919c0.032-0.152,0-0.3-0.091-0.416c-0.09-0.115-0.226-0.182-0.381-0.187
	C16.875,2.337,16.816,2.336,16.757,2.336z"/>
</svg>






