<?xml version="1.0" encoding="iso-8859-1"?>
<svg version="1.1" id="&#x56FE;&#x5C42;_1" xmlns="http://www.w3.org/2000/svg" xmlns:xlink="http://www.w3.org/1999/xlink" x="0px"
	 y="0px" viewBox="0 0 24 24" style="enable-background:new 0 0 24 24;" xml:space="preserve">
<path style="fill:#333333;" d="M12,19.75c-1.792,0-3.25-1.458-3.25-3.25s1.458-3.25,3.25-3.25s3.25,1.458,3.25,3.25
	S13.792,19.75,12,19.75z M12,13.75c-1.517,0-2.75,1.233-2.75,2.75s1.233,2.75,2.75,2.75s2.75-1.233,2.75-2.75S13.517,13.75,12,13.75
	z"/>
<path style="fill:#333333;" d="M12,8.25c-0.965,0-1.75-0.785-1.75-1.75S11.035,4.75,12,4.75s1.75,0.785,1.75,1.75
	S12.965,8.25,12,8.25z M12,5.25c-0.689,0-1.25,0.561-1.25,1.25S11.311,7.75,12,7.75s1.25-0.561,1.25-1.25S12.689,5.25,12,5.25z"/>
<rect x="11.75" y="20" style="fill:#333333;" width="0.5" height="2"/>
<rect x="7.459" y="10.75" transform="matrix(0.1641 -0.9864 0.9864 0.1641 -2.0738 19.5528)" style="fill:#333333;" width="6.083" height="0.5"/>
<rect x="13.25" y="7.959" transform="matrix(0.9864 -0.1644 0.1644 0.9864 -1.6247 2.3691)" style="fill:#333333;" width="0.501" height="6.083"/>
<rect x="6.846" y="20" transform="matrix(0.3942 -0.919 0.919 0.3942 -13.3095 20.31)" style="fill:#333333;" width="3.808" height="0.5"/>
<polygon style="fill:#333333;" points="15.771,22.099 14.271,18.599 14.729,18.401 16.229,21.901 "/>
<rect x="11.75" y="2" style="fill:#333333;" width="0.5" height="3"/>
</svg>






