<?xml version="1.0" encoding="iso-8859-1"?>
<svg version="1.1" id="&#x56FE;&#x5C42;_1" xmlns="http://www.w3.org/2000/svg" xmlns:xlink="http://www.w3.org/1999/xlink" x="0px"
	 y="0px" viewBox="0 0 24 24" style="enable-background:new 0 0 24 24;" xml:space="preserve">
<g>
	<defs>
		<rect id="SVGID_1_" width="24" height="24"/>
	</defs>
	<clipPath id="SVGID_00000135683592741644587210000008871385333106902451_">
		<use xlink:href="#SVGID_1_"  style="overflow:visible;"/>
	</clipPath>
	<g style="clip-path:url(#SVGID_00000135683592741644587210000008871385333106902451_);">
		
			<rect x="17.25" y="3.671" transform="matrix(0.7071 -0.7071 0.7071 0.7071 0.5298 14.278)" style="fill:#333333;" width="0.5" height="5.657"/>
		<path style="fill:#333333;" d="M2.681,21.317l1.089-5.441L18,1.646L22.354,6L8.123,20.229L2.681,21.317z M4.23,16.122
			l-0.912,4.559l4.558-0.912L21.646,6L18,2.354L4.23,16.122z"/>
		
			<rect x="17.25" y="3.671" transform="matrix(0.7071 -0.7071 0.7071 0.7071 0.5298 14.278)" style="fill:#333333;" width="0.5" height="5.657"/>
		
			<rect x="6" y="15.274" transform="matrix(0.7071 -0.7071 0.7071 0.7071 -10.72 9.6176)" style="fill:#333333;" width="0.5" height="4.95"/>
		
			<rect x="4.222" y="11.749" transform="matrix(0.7071 -0.7071 0.7071 0.7071 -4.9701 11.9996)" style="fill:#333333;" width="15.556" height="0.5"/>
	</g>
</g>
</svg>






