<?xml version="1.0" encoding="iso-8859-1"?>
<svg version="1.1" id="&#x56FE;&#x5C42;_1" xmlns="http://www.w3.org/2000/svg" xmlns:xlink="http://www.w3.org/1999/xlink" x="0px"
	 y="0px" viewBox="0 0 24 24" style="enable-background:new 0 0 24 24;" xml:space="preserve">
<path style="fill:#333333;" d="M17.295,21.25H6.705c-0.527,0-1-0.334-1.177-0.83l-3.52-9.86C1.826,10.051,1.99,9.486,2.416,9.153
	l8.815-6.872c0.452-0.352,1.084-0.353,1.537,0l8.814,6.872c0.427,0.332,0.592,0.897,0.409,1.407l-3.52,9.86
	C18.295,20.917,17.821,21.25,17.295,21.25z M12,2.518c-0.163,0-0.326,0.053-0.461,0.159L2.724,9.548
	c-0.255,0.199-0.354,0.538-0.245,0.844l3.52,9.86c0.106,0.298,0.39,0.498,0.707,0.498h10.59c0.316,0,0.601-0.2,0.707-0.498
	l3.52-9.86c0.109-0.306,0.011-0.645-0.245-0.844l-8.814-6.872C12.325,2.57,12.162,2.518,12,2.518z"/>
</svg>






