<?xml version="1.0" encoding="iso-8859-1"?>
<svg version="1.1" id="&#x56FE;&#x5C42;_1" xmlns="http://www.w3.org/2000/svg" xmlns:xlink="http://www.w3.org/1999/xlink" x="0px"
	 y="0px" viewBox="0 0 24 24" style="enable-background:new 0 0 24 24;" xml:space="preserve">
<path style="fill:#333333;" d="M12,21.854L9.396,19.25H1.75V3.75h20.5v15.5h-7.646L12,21.854z M2.25,18.75h7.354L12,21.146
	l2.396-2.396h7.354V4.25H2.25V18.75z"/>
<path style="fill:#333333;" d="M12,12.25c-1.517,0-2.75-1.233-2.75-2.75S10.483,6.75,12,6.75s2.75,1.233,2.75,2.75
	S13.517,12.25,12,12.25z M12,7.25c-1.241,0-2.25,1.009-2.25,2.25s1.009,2.25,2.25,2.25c1.24,0,2.25-1.009,2.25-2.25
	S13.24,7.25,12,7.25z"/>
<path style="fill:#333333;" d="M16.75,16h-0.5c0-2.067-1.906-3.75-4.25-3.75c-2.343,0-4.25,1.683-4.25,3.75h-0.5
	c0-2.344,2.131-4.25,4.75-4.25S16.75,13.656,16.75,16z"/>
</svg>






