<?xml version="1.0" encoding="iso-8859-1"?>
<svg version="1.1" id="&#x56FE;&#x5C42;_1" xmlns="http://www.w3.org/2000/svg" xmlns:xlink="http://www.w3.org/1999/xlink" x="0px"
	 y="0px" viewBox="0 0 24 24" style="enable-background:new 0 0 24 24;" xml:space="preserve">
<path style="fill:#333333;" d="M22.25,19.75H1.75V4.25h7.646L12,1.646l2.604,2.604h7.646V19.75z M2.25,19.25h19.5V4.75h-7.354
	L12,2.354L9.604,4.75H2.25V19.25z"/>
<path style="fill:#333333;" d="M12,12.75c-1.517,0-2.75-1.233-2.75-2.75S10.483,7.25,12,7.25s2.75,1.233,2.75,2.75
	S13.517,12.75,12,12.75z M12,7.75c-1.241,0-2.25,1.009-2.25,2.25s1.009,2.25,2.25,2.25c1.24,0,2.25-1.009,2.25-2.25
	S13.24,7.75,12,7.75z"/>
<path style="fill:#333333;" d="M16.75,16.5h-0.5c0-2.067-1.906-3.75-4.25-3.75c-2.343,0-4.25,1.683-4.25,3.75h-0.5
	c0-2.344,2.131-4.25,4.75-4.25S16.75,14.156,16.75,16.5z"/>
</svg>






