<?xml version="1.0" encoding="iso-8859-1"?>
<svg version="1.1" id="&#x56FE;&#x5C42;_1" xmlns="http://www.w3.org/2000/svg" xmlns:xlink="http://www.w3.org/1999/xlink" x="0px"
	 y="0px" viewBox="0 0 24 24" style="enable-background:new 0 0 24 24;" xml:space="preserve">
<path style="fill:#333333;" d="M12.001,22.264l-0.079-0.026C6.265,20.354,2.75,15.67,2.75,10.014V4.44l9.254-2.701L21.25,4.44v5.577
	c0,5.654-3.514,10.336-9.17,12.22L12.001,22.264z M3.25,4.815v5.199c0,5.407,3.351,9.891,8.751,11.722
	c5.399-1.831,8.749-6.314,8.749-11.719V4.815L12.004,2.26L3.25,4.815z"/>
<path style="fill:#333333;" d="M12,11.75c-1.517,0-2.75-1.233-2.75-2.75S10.483,6.25,12,6.25S14.75,7.483,14.75,9
	S13.517,11.75,12,11.75z M12,6.75c-1.241,0-2.25,1.009-2.25,2.25s1.009,2.25,2.25,2.25c1.24,0,2.25-1.009,2.25-2.25
	S13.24,6.75,12,6.75z"/>
<path style="fill:#333333;" d="M16.25,15.5h-0.5c0-2.067-1.683-3.75-3.75-3.75c-2.068,0-3.75,1.683-3.75,3.75h-0.5
	c0-2.344,1.907-4.25,4.25-4.25C14.344,11.25,16.25,13.156,16.25,15.5z"/>
</svg>






