<?xml version="1.0" encoding="iso-8859-1"?>
<svg version="1.1" id="&#x56FE;&#x5C42;_1" xmlns="http://www.w3.org/2000/svg" xmlns:xlink="http://www.w3.org/1999/xlink" x="0px"
	 y="0px" viewBox="0 0 24 24" style="enable-background:new 0 0 24 24;" xml:space="preserve">
<path style="fill:#333333;" d="M9.5,10.25c-2.068,0-3.75-1.682-3.75-3.75S7.432,2.75,9.5,2.75s3.75,1.682,3.75,3.75
	S11.568,10.25,9.5,10.25z M9.5,3.25c-1.792,0-3.25,1.458-3.25,3.25S7.708,9.75,9.5,9.75s3.25-1.458,3.25-3.25S11.292,3.25,9.5,3.25z
	"/>
<path style="fill:#333333;" d="M13.5,21.25H2.75V20.4c0-2.277,0-3.42,0.463-4.33c0.41-0.805,1.052-1.447,1.857-1.857
	C5.979,13.75,7.123,13.75,9.4,13.75h4.1v0.5H9.4c-2.197,0-3.3,0-4.103,0.408c-0.71,0.362-1.276,0.929-1.639,1.639
	C3.25,17.1,3.25,18.203,3.25,20.4v0.35H13.5V21.25z"/>
<rect x="18.957" y="18.586" transform="matrix(0.7071 -0.7071 0.7071 0.7071 -8.3094 19.3535)" style="fill:#333333;" width="0.5" height="2.243"/>
<path style="fill:#333333;" d="M17,19.75c-1.24,0-2.25-1.01-2.25-2.25s1.01-2.25,2.25-2.25s2.25,1.01,2.25,2.25
	c0,0.602-0.234,1.167-0.659,1.591C18.167,19.516,17.602,19.75,17,19.75z M17,15.75c-0.965,0-1.75,0.785-1.75,1.75
	s0.785,1.75,1.75,1.75c0.468,0,0.907-0.182,1.237-0.513c0.331-0.33,0.513-0.77,0.513-1.237C18.75,16.535,17.965,15.75,17,15.75z"/>
</svg>






