<?xml version="1.0" encoding="iso-8859-1"?>
<svg version="1.1" id="&#x56FE;&#x5C42;_1" xmlns="http://www.w3.org/2000/svg" xmlns:xlink="http://www.w3.org/1999/xlink" x="0px"
	 y="0px" viewBox="0 0 24 24" style="enable-background:new 0 0 24 24;" xml:space="preserve">
<path style="fill:#333333;" d="M12,10.25c-2.068,0-3.75-1.682-3.75-3.75S9.932,2.75,12,2.75c2.067,0,3.75,1.682,3.75,3.75
	S14.067,10.25,12,10.25z M12,3.25c-1.792,0-3.25,1.458-3.25,3.25S10.208,9.75,12,9.75s3.25-1.458,3.25-3.25S13.792,3.25,12,3.25z"/>
<path style="fill:#333333;" d="M21.25,21.25H2.75V20.4c0-2.277,0-3.42,0.463-4.33c0.41-0.805,1.052-1.447,1.857-1.857
	C5.979,13.75,7.123,13.75,9.4,13.75h5.2c2.277,0,3.42,0,4.33,0.463c0.805,0.41,1.447,1.053,1.857,1.857
	c0.463,0.91,0.463,2.053,0.463,4.33V21.25z M3.25,20.75h17.5V20.4c0-2.197,0-3.301-0.408-4.104c-0.362-0.71-0.929-1.276-1.639-1.639
	C17.9,14.25,16.797,14.25,14.6,14.25H9.4c-2.197,0-3.3,0-4.103,0.408c-0.71,0.362-1.276,0.929-1.639,1.639
	C3.25,17.1,3.25,18.203,3.25,20.4V20.75z"/>
</svg>






