<?xml version="1.0" encoding="iso-8859-1"?>
<svg version="1.1" id="&#x56FE;&#x5C42;_1" xmlns="http://www.w3.org/2000/svg" xmlns:xlink="http://www.w3.org/1999/xlink" x="0px"
	 y="0px" viewBox="0 0 24 24" style="enable-background:new 0 0 24 24;" xml:space="preserve">
<path style="fill:#333333;" d="M12,10.25c-2.068,0-3.75-1.682-3.75-3.75S9.932,2.75,12,2.75c2.067,0,3.75,1.682,3.75,3.75
	S14.067,10.25,12,10.25z M12,3.25c-1.792,0-3.25,1.458-3.25,3.25S10.208,9.75,12,9.75s3.25-1.458,3.25-3.25S13.792,3.25,12,3.25z"/>
<path style="fill:#333333;" d="M6.067,9.714C4.929,9.029,4.25,7.827,4.25,6.5c0-1.226,0.601-2.376,1.607-3.078l0.286,0.41
	C5.271,4.441,4.75,5.438,4.75,6.5c0,1.15,0.589,2.192,1.575,2.786L6.067,9.714z"/>
<path style="fill:#333333;" d="M18.143,9.578l-0.285-0.41C18.729,8.56,19.25,7.562,19.25,6.5s-0.521-2.06-1.393-2.667l0.285-0.41
	C19.149,4.124,19.75,5.274,19.75,6.5S19.149,8.876,18.143,9.578z"/>
<path style="fill:#333333;" d="M18.25,21.25H5.75V20c0-1.895,0-2.846,0.324-3.626c0.434-1.049,1.25-1.865,2.3-2.3
	C9.155,13.75,10.105,13.75,12,13.75s2.846,0,3.626,0.324c1.049,0.434,1.866,1.251,2.301,2.3c0.323,0.78,0.323,1.731,0.323,3.626
	V21.25z M6.25,20.75h11.5V20c0-1.828,0-2.746-0.285-3.435c-0.384-0.926-1.104-1.646-2.03-2.029C14.746,14.25,13.828,14.25,12,14.25
	s-2.746,0-3.435,0.286c-0.926,0.383-1.646,1.104-2.029,2.029C6.25,17.254,6.25,18.172,6.25,20V20.75z"/>
<path style="fill:#333333;" d="M22.25,21h-0.5v-0.6c0-2.197,0-3.301-0.408-4.103c-0.362-0.711-0.93-1.277-1.64-1.639l0.227-0.445
	c0.805,0.409,1.447,1.052,1.858,1.857c0.463,0.909,0.463,2.052,0.463,4.329V21z"/>
<path style="fill:#333333;" d="M2.25,21h-0.5v-0.6c0-2.277,0-3.42,0.463-4.329c0.41-0.806,1.052-1.448,1.857-1.857l0.227,0.445
	c-0.71,0.361-1.277,0.928-1.639,1.639C2.25,17.1,2.25,18.203,2.25,20.4V21z"/>
</svg>






