<?xml version="1.0" encoding="iso-8859-1"?>
<svg version="1.1" id="&#x56FE;&#x5C42;_1" xmlns="http://www.w3.org/2000/svg" xmlns:xlink="http://www.w3.org/1999/xlink" x="0px"
	 y="0px" viewBox="0 0 24 24" style="enable-background:new 0 0 24 24;" xml:space="preserve">
<path style="fill:#333333;" d="M9.5,10.25c-2.068,0-3.75-1.682-3.75-3.75S7.432,2.75,9.5,2.75s3.75,1.682,3.75,3.75
	S11.568,10.25,9.5,10.25z M9.5,3.25c-1.792,0-3.25,1.458-3.25,3.25S7.708,9.75,9.5,9.75s3.25-1.458,3.25-3.25S11.292,3.25,9.5,3.25z
	"/>
<polygon style="fill:#333333;" points="19.177,11.677 18.823,11.323 21.646,8.5 18.823,5.677 19.177,5.323 22.354,8.5 "/>
<path style="fill:#333333;" d="M17.25,21.25H1.75V20.4c0-2.277,0-3.42,0.463-4.33c0.41-0.805,1.052-1.447,1.857-1.857
	C4.979,13.75,6.123,13.75,8.4,13.75h2.2c2.277,0,3.419,0,4.33,0.463c0.805,0.41,1.447,1.053,1.857,1.857
	c0.463,0.91,0.463,2.053,0.463,4.33V21.25z M2.25,20.75h14.5V20.4c0-2.197,0-3.301-0.408-4.104c-0.362-0.71-0.929-1.276-1.639-1.639
	C13.9,14.25,12.797,14.25,10.6,14.25H8.4c-2.197,0-3.3,0-4.103,0.408c-0.71,0.362-1.276,0.929-1.639,1.639
	C2.25,17.1,2.25,18.203,2.25,20.4V20.75z"/>
</svg>






