<?xml version="1.0" encoding="iso-8859-1"?>
<svg version="1.1" id="&#x56FE;&#x5C42;_1" xmlns="http://www.w3.org/2000/svg" xmlns:xlink="http://www.w3.org/1999/xlink" x="0px"
	 y="0px" viewBox="0 0 24 24" style="enable-background:new 0 0 24 24;" xml:space="preserve">
<path style="fill:#333333;" d="M12,9.25c-2.068,0-3.75-1.682-3.75-3.75S9.932,1.75,12,1.75c2.067,0,3.75,1.682,3.75,3.75
	S14.067,9.25,12,9.25z M12,2.25c-1.792,0-3.25,1.458-3.25,3.25S10.208,8.75,12,8.75s3.25-1.458,3.25-3.25S13.792,2.25,12,2.25z"/>
<path style="fill:#333333;" d="M2.25,20.5h-0.5c0-4.549,4.149-8.25,9.25-8.25v0.5C6.175,12.75,2.25,16.227,2.25,20.5z"/>
<path style="fill:#333333;" d="M17.5,21.293l-0.13-0.079c-0.148-0.091-3.62-2.258-3.62-6.614c0-0.477,1.237-1.096,3.677-1.839
	l0.073-0.022l0.073,0.022c2.439,0.743,3.677,1.362,3.677,1.839c0,4.356-3.472,6.523-3.62,6.614L17.5,21.293z M14.25,14.627
	c0.014,3.59,2.63,5.638,3.25,6.072c0.622-0.436,3.25-2.493,3.25-6.1c-0.137-0.231-1.778-0.885-3.25-1.338
	C16.051,13.708,14.438,14.349,14.25,14.627z"/>
</svg>






