<?xml version="1.0" encoding="iso-8859-1"?>
<svg version="1.1" id="&#x56FE;&#x5C42;_1" xmlns="http://www.w3.org/2000/svg" xmlns:xlink="http://www.w3.org/1999/xlink" x="0px"
	 y="0px" viewBox="0 0 24 24" style="enable-background:new 0 0 24 24;" xml:space="preserve">
<path style="fill:#333333;" d="M14.5,7.25h-5c-0.965,0-1.75-0.785-1.75-1.75v-2c0-0.965,0.785-1.75,1.75-1.75h5
	c0.965,0,1.75,0.785,1.75,1.75v2C16.25,6.465,15.465,7.25,14.5,7.25z M9.5,2.25c-0.689,0-1.25,0.561-1.25,1.25v2
	c0,0.689,0.561,1.25,1.25,1.25h5c0.689,0,1.25-0.561,1.25-1.25v-2c0-0.689-0.561-1.25-1.25-1.25H9.5z"/>
<path style="fill:#333333;" d="M15,22.25H9c-3.446,0-6.25-2.804-6.25-6.25S5.554,9.75,9,9.75h6c3.446,0,6.25,2.804,6.25,6.25
	S18.446,22.25,15,22.25z M9,10.25c-3.17,0-5.75,2.579-5.75,5.75S5.83,21.75,9,21.75h6c3.171,0,5.75-2.579,5.75-5.75
	s-2.579-5.75-5.75-5.75H9z"/>
<path style="fill:#333333;" d="M17.8,17.624c-1.749,0-3.72-0.662-5.45-1.243l-0.429-0.144c-3.225-1.075-7.379-1.293-8.725,0.417
	l-0.393-0.309c1.68-2.137,6.467-1.519,9.275-0.583l0.43,0.145c2.896,0.973,6.5,2.185,8.296-0.063l0.391,0.312
	C20.326,17.243,19.127,17.624,17.8,17.624z"/>
<path style="fill:#333333;" d="M12.5,4.5C12.5,4.776,12.276,5,12,5s-0.5-0.224-0.5-0.5C11.5,4.224,11.724,4,12,4
	S12.5,4.224,12.5,4.5z"/>
</svg>






