<?xml version="1.0" encoding="iso-8859-1"?>
<svg version="1.1" id="&#x56FE;&#x5C42;_1" xmlns="http://www.w3.org/2000/svg" xmlns:xlink="http://www.w3.org/1999/xlink" x="0px"
	 y="0px" viewBox="0 0 24 24" style="enable-background:new 0 0 24 24;" xml:space="preserve">
<path style="fill:#333333;" d="M1.75,22.305V16H2H1.75V8H2H1.75V1.695l6.799,1.36L8.5,3.3l0.049-0.245l13.701,2.74V10H22h0.25v4H22
	h0.25v4.205l-13.701,2.74L8.5,20.7l0.049,0.245L1.75,22.305z M2.25,16.227v5.469l6-1.2v-4.869L2.25,16.227z M8.75,15.576v4.819
	l6.5-1.301v-4.169L8.75,15.576z M15.5,19.3L15.5,19.3z M15.75,14.876v4.119l6-1.2v-3.519L15.75,14.876z M2.25,8.276v7.447l6-0.6
	V8.876L2.25,8.276z M8.75,8.926v6.148l6.5-0.65V9.576L8.75,8.926z M15.75,9.626v4.748l6-0.601v-3.547L15.75,9.626z M15.75,9.124
	l6,0.6V6.205l-6-1.2V9.124z M8.75,8.424l6.5,0.65V4.905l-6.5-1.3V8.424z M2.25,7.774l6,0.6V3.505l-6-1.2V7.774z M15.5,4.7L15.5,4.7z
	"/>
</svg>






