<?xml version="1.0" encoding="iso-8859-1"?>
<svg version="1.1" id="&#x56FE;&#x5C42;_1" xmlns="http://www.w3.org/2000/svg" xmlns:xlink="http://www.w3.org/1999/xlink" x="0px"
	 y="0px" viewBox="0 0 24 24" style="enable-background:new 0 0 24 24;" xml:space="preserve">
<path style="fill:#333333;" d="M12,9.25c-2.068,0-3.75-1.682-3.75-3.75S9.932,1.75,12,1.75c2.067,0,3.75,1.682,3.75,3.75
	S14.067,9.25,12,9.25z M12,2.25c-1.792,0-3.25,1.458-3.25,3.25S10.208,8.75,12,8.75s3.25-1.458,3.25-3.25S13.792,2.25,12,2.25z"/>
<path style="fill:#333333;" d="M2.25,20.5h-0.5c0-4.549,4.149-8.25,9.25-8.25v0.5C6.175,12.75,2.25,16.227,2.25,20.5z"/>
<path style="fill:#333333;" d="M20.75,20.75h-7.5v-5.5h7.5V20.75z M13.75,20.25h6.5v-4.5h-6.5V20.25z"/>
<path style="fill:#333333;" d="M18.75,15.5h-0.5V14c0-0.689-0.561-1.25-1.25-1.25s-1.25,0.561-1.25,1.25v1.5h-0.5V14
	c0-0.965,0.785-1.75,1.75-1.75s1.75,0.785,1.75,1.75V15.5z"/>
</svg>






