<?xml version="1.0" encoding="iso-8859-1"?>
<svg version="1.1" id="&#x56FE;&#x5C42;_1" xmlns="http://www.w3.org/2000/svg" xmlns:xlink="http://www.w3.org/1999/xlink" x="0px"
	 y="0px" viewBox="0 0 24 24" style="enable-background:new 0 0 24 24;" xml:space="preserve">
<path style="fill:#333333;" d="M12,9.25c-2.068,0-3.75-1.682-3.75-3.75S9.932,1.75,12,1.75c2.067,0,3.75,1.682,3.75,3.75
	S14.067,9.25,12,9.25z M12,2.25c-1.792,0-3.25,1.458-3.25,3.25S10.208,8.75,12,8.75s3.25-1.458,3.25-3.25S13.792,2.25,12,2.25z"/>
<path style="fill:#333333;" d="M2.25,20.5h-0.5c0-4.549,4.149-8.25,9.25-8.25v0.5C6.175,12.75,2.25,16.227,2.25,20.5z"/>
<path style="fill:#333333;" d="M17.5,21.269l-0.091-0.035c-1.312-0.51-3.659-2.612-3.659-4.99c0-1.375,0.976-2.493,2.175-2.493
	c0.6,0,1.168,0.283,1.575,0.773c0.407-0.49,0.976-0.773,1.575-0.773c1.199,0,2.175,1.118,2.175,2.493c0,2.378-2.347,4.48-3.659,4.99
	L17.5,21.269z M15.925,14.25c-0.924,0-1.675,0.895-1.675,1.993c0,2.066,2.066,3.974,3.25,4.486c1.184-0.513,3.25-2.42,3.25-4.486
	c0-1.099-0.751-1.993-1.675-1.993c-0.537,0-1.046,0.312-1.361,0.833L17.5,15.437l-0.214-0.354
	C16.971,14.562,16.462,14.25,15.925,14.25z"/>
</svg>






