<?xml version="1.0" encoding="iso-8859-1"?>
<svg version="1.1" id="&#x56FE;&#x5C42;_1" xmlns="http://www.w3.org/2000/svg" xmlns:xlink="http://www.w3.org/1999/xlink" x="0px"
	 y="0px" viewBox="0 0 24 24" style="enable-background:new 0 0 24 24;" xml:space="preserve">
<path style="fill:#333333;" d="M18.5,22.25h-13c-0.689,0-1.25-0.561-1.25-1.25V8.641l3-3.059V1.75h9.5v3.832l3,3.059V21
	C19.75,21.689,19.189,22.25,18.5,22.25z M4.75,8.845V21c0,0.413,0.336,0.75,0.75,0.75h13c0.413,0,0.75-0.337,0.75-0.75V8.845
	l-3-3.059V2.25h-8.5v3.536L4.75,8.845z"/>
<polygon style="fill:#333333;" points="8.75,17.75 4.5,17.75 4.5,17.25 8.25,17.25 8.25,11.75 4.5,11.75 4.5,11.25 8.75,11.25 "/>
<rect x="7.5" y="5.5" style="fill:#333333;" width="9" height="0.5"/>
<rect x="15.25" y="11.5" style="fill:#333333;" width="0.5" height="3"/>
<rect x="15.25" y="17" style="fill:#333333;" width="0.5" height="0.5"/>
<rect x="4.25" y="10" style="fill:#333333;" width="0.5" height="9"/>
</svg>






