<?xml version="1.0" encoding="iso-8859-1"?>
<svg version="1.1" id="&#x56FE;&#x5C42;_1" xmlns="http://www.w3.org/2000/svg" xmlns:xlink="http://www.w3.org/1999/xlink" x="0px"
	 y="0px" viewBox="0 0 24 24" style="enable-background:new 0 0 24 24;" xml:space="preserve">
<path style="fill:#333333;" d="M21.25,21.25H2.75V10.896L5.896,7.75h8.992l4.5-5h1.861V21.25z M3.25,20.75h17.5V3.25h-1.139l-4.5,5
	H6.104L3.25,11.104V20.75z"/>
<polygon style="fill:#333333;" points="6.177,8.177 5.823,7.823 10.896,2.75 20,2.75 20,3.25 11.104,3.25 "/>
<path style="fill:#333333;" d="M11.887,17.75c-0.753,0-1.494-0.513-1.887-1.305c-0.375-0.756-0.329-1.561,0.122-2.152
	c0.702-0.922,1.243-2.202,1.534-2.891l0.431-0.051c0.534,0.721,1.675,2.5,2.045,3.474c0.226,0.592,0.122,1.268-0.282,1.854
	C13.396,17.34,12.644,17.75,11.887,17.75z M11.942,12.009c-0.32,0.736-0.808,1.781-1.422,2.587l0,0
	c-0.333,0.438-0.359,1.046-0.071,1.627c0.304,0.614,0.882,1.027,1.438,1.027c0.594,0,1.189-0.327,1.552-0.854
	c0.31-0.45,0.393-0.958,0.227-1.394C13.367,14.218,12.502,12.823,11.942,12.009z"/>
<rect x="1.275" y="5.5" transform="matrix(0.7071 -0.7071 0.7071 0.7071 -2.9675 4.3358)" style="fill:#333333;" width="4.95" height="0.5"/>
</svg>






