<?xml version="1.0" encoding="iso-8859-1"?>
<svg version="1.1" id="&#x56FE;&#x5C42;_1" xmlns="http://www.w3.org/2000/svg" xmlns:xlink="http://www.w3.org/1999/xlink" x="0px"
	 y="0px" viewBox="0 0 24 24" style="enable-background:new 0 0 24 24;" xml:space="preserve">
<path style="fill:#333333;" d="M19.5,21.25h-15c-0.965,0-1.75-0.785-1.75-1.75v-15c0-0.965,0.785-1.75,1.75-1.75h15
	c0.965,0,1.75,0.785,1.75,1.75v15C21.25,20.465,20.465,21.25,19.5,21.25z M4.5,3.25c-0.689,0-1.25,0.561-1.25,1.25v15
	c0,0.689,0.561,1.25,1.25,1.25h15c0.689,0,1.25-0.561,1.25-1.25v-15c0-0.689-0.561-1.25-1.25-1.25H4.5z"/>
<path style="fill:#333333;" d="M15.881,17.25c-0.148,0-0.297-0.024-0.443-0.073c-1.689-0.57-4.021-1.566-5.534-3.08
	c-1.512-1.512-2.509-3.844-3.08-5.534c-0.142-0.421-0.077-0.868,0.18-1.225C7.268,6.97,7.704,6.75,8.169,6.75H9.72
	c0.312,0,0.601,0.17,0.753,0.443l0.748,1.348c0.138,0.248,0.145,0.548,0.017,0.803l-0.481,1.186c0.04,0.232,0.231,1.104,0.919,1.793
	c0.688,0.688,1.56,0.879,1.792,0.919l1.2-0.492c0.238-0.119,0.538-0.111,0.787,0.025l1.351,0.751
	c0.273,0.152,0.443,0.441,0.443,0.753v1.552c0,0.466-0.22,0.901-0.589,1.166C16.429,17.164,16.157,17.25,15.881,17.25z M8.169,7.25
	c-0.31,0-0.586,0.138-0.759,0.379C7.249,7.854,7.208,8.136,7.297,8.402c0.554,1.64,1.517,3.897,2.959,5.341
	c1.521,1.521,3.999,2.507,5.341,2.959c0.267,0.094,0.548,0.05,0.772-0.111c0.237-0.171,0.38-0.455,0.38-0.76v-1.552
	c0-0.131-0.071-0.252-0.187-0.315l-1.351-0.751c-0.105-0.06-0.229-0.062-0.337-0.008l-1.34,0.551l-0.063-0.008
	c-0.05-0.005-1.224-0.146-2.149-1.071c-0.925-0.925-1.066-2.1-1.072-2.149l-0.007-0.063l0.539-1.326
	c0.062-0.125,0.059-0.25,0.001-0.354l-0.749-1.348C9.973,7.321,9.852,7.25,9.72,7.25H8.169z"/>
</svg>






