<?xml version="1.0" encoding="iso-8859-1"?>
<svg version="1.1" id="&#x56FE;&#x5C42;_1" xmlns="http://www.w3.org/2000/svg" xmlns:xlink="http://www.w3.org/1999/xlink" x="0px"
	 y="0px" viewBox="0 0 24 24" style="enable-background:new 0 0 24 24;" xml:space="preserve">
<path style="fill:#333333;" d="M19.5,21.25h-15c-0.965,0-1.75-0.785-1.75-1.75v-15c0-0.965,0.785-1.75,1.75-1.75h15
	c0.965,0,1.75,0.785,1.75,1.75v15C21.25,20.465,20.465,21.25,19.5,21.25z M4.5,3.25c-0.689,0-1.25,0.561-1.25,1.25v15
	c0,0.689,0.561,1.25,1.25,1.25h15c0.689,0,1.25-0.561,1.25-1.25v-15c0-0.689-0.561-1.25-1.25-1.25H4.5z"/>
<path style="fill:#333333;" d="M12,18.25c-3.17,0-5.75-2.579-5.75-5.75c0-3.17,2.58-5.75,5.75-5.75c3.171,0,5.75,2.58,5.75,5.75
	C17.75,15.671,15.171,18.25,12,18.25z M12,7.25c-2.895,0-5.25,2.355-5.25,5.25c0,2.895,2.355,5.25,5.25,5.25
	c2.895,0,5.25-2.355,5.25-5.25C17.25,9.605,14.895,7.25,12,7.25z"/>
<path style="fill:#333333;" d="M12,11.5L12,11.5c0.552,0,1,0.448,1,1l0,0c0,0.552-0.448,1-1,1l0,0c-0.552,0-1-0.448-1-1l0,0
	C11,11.948,11.448,11.5,12,11.5z"/>
<path style="fill:#333333;" d="M18,17L18,17c0.552,0,1,0.448,1,1l0,0c0,0.552-0.448,1-1,1l0,0c-0.552,0-1-0.448-1-1l0,0
	C17,17.448,17.448,17,18,17z"/>
<rect x="13.172" y="7.75" transform="matrix(0.7071 -0.7071 0.7071 0.7071 -0.9706 13.6569)" style="fill:#333333;" width="5.657" height="0.5"/>
</svg>






