<?xml version="1.0" encoding="iso-8859-1"?>
<svg version="1.1" id="&#x56FE;&#x5C42;_1" xmlns="http://www.w3.org/2000/svg" xmlns:xlink="http://www.w3.org/1999/xlink" x="0px"
	 y="0px" viewBox="0 0 24 24" style="enable-background:new 0 0 24 24;" xml:space="preserve">
<path style="fill:#333333;" d="M19,22.25H5c-0.689,0-1.25-0.561-1.25-1.25v-6.25h16.5V21C20.25,21.689,19.689,22.25,19,22.25z
	 M4.25,15.25V21c0,0.413,0.336,0.75,0.75,0.75h14c0.413,0,0.75-0.337,0.75-0.75v-5.75H4.25z"/>
<path style="fill:#333333;" d="M20.25,15h-0.5V3c0-0.414-0.337-0.75-0.75-0.75H5C4.586,2.25,4.25,2.586,4.25,3v12h-0.5V3
	c0-0.689,0.561-1.25,1.25-1.25h14c0.689,0,1.25,0.561,1.25,1.25V15z"/>
<rect x="11" y="18.25" style="fill:#333333;" width="2" height="0.5"/>
</svg>






