<?xml version="1.0" encoding="iso-8859-1"?>
<svg version="1.1" id="&#x56FE;&#x5C42;_1" xmlns="http://www.w3.org/2000/svg" xmlns:xlink="http://www.w3.org/1999/xlink" x="0px"
	 y="0px" viewBox="0 0 24 24" style="enable-background:new 0 0 24 24;" xml:space="preserve">
<path style="fill:#333333;" d="M18.567,20.441c-0.224,0-0.45-0.037-0.673-0.111c-1.851-0.624-4.537-1.693-6.827-3.242l0.28-0.414
	c2.243,1.518,4.885,2.568,6.707,3.182c0.483,0.166,0.998,0.091,1.409-0.205c0.43-0.309,0.687-0.82,0.687-1.369v-2.536
	c0-0.272-0.147-0.523-0.385-0.655l-2.21-1.229c-0.218-0.121-0.479-0.126-0.701-0.016l-2.432,1.216l-0.083-0.017
	c-0.019-0.003-0.468-0.091-1.099-0.358l0.195-0.461c0.431,0.184,0.771,0.275,0.918,0.311l2.277-1.138
	c0.37-0.185,0.807-0.175,1.167,0.025l2.209,1.229c0.396,0.22,0.643,0.639,0.643,1.093v2.536c0,0.709-0.335,1.373-0.896,1.775
	C19.401,20.311,18.989,20.441,18.567,20.441z M6.964,12.887c-1.451-2.23-2.459-4.787-3.05-6.539c-0.216-0.64-0.117-1.318,0.272-1.86
	c0.402-0.561,1.066-0.895,1.776-0.895h2.536c0.454,0,0.873,0.247,1.093,0.643l1.223,2.204c0.2,0.36,0.209,0.796,0.025,1.166
	L9.701,9.883c0.032,0.131,0.108,0.413,0.252,0.774L9.49,10.843c-0.22-0.549-0.294-0.929-0.298-0.945L9.176,9.815l1.216-2.433
	c0.111-0.222,0.105-0.483-0.015-0.7L9.154,4.479C9.022,4.241,8.771,4.093,8.498,4.093H5.962c-0.549,0-1.061,0.257-1.37,0.687
	c-0.294,0.41-0.369,0.923-0.205,1.409c0.582,1.725,1.574,4.24,2.996,6.425L6.964,12.887z"/>
<rect x="0.686" y="11.75" transform="matrix(0.7071 -0.7071 0.7071 0.7071 -4.9706 12)" style="fill:#333333;" width="22.627" height="0.5"/>
</svg>






