<?xml version="1.0" encoding="utf-8"?>
<svg version="1.1" id="&#x56FE;&#x5C42;_1" xmlns="http://www.w3.org/2000/svg" xmlns:xlink="http://www.w3.org/1999/xlink" x="0px" y="0px"
	 viewBox="0 0 24 24" style="enable-background:new 0 0 24 24;" xml:space="preserve">
<style type="text/css">
	.st0{fill:#333333;}
</style>
<path class="st0" d="M18.1,20.9c-0.2,0-0.5,0-0.7-0.1c-2.7-0.9-6.5-2.5-9-5c-2.5-2.4-4.1-6.2-5-9C3.2,6.2,3.3,5.5,3.7,5
	c0.4-0.6,1.1-0.9,1.8-0.9H8c0.5,0,0.9,0.2,1.1,0.6l1.2,2.2c0.2,0.4,0.2,0.8,0,1.2l-1.1,2.3c0.1,0.4,0.5,1.8,1.7,3
	c1.2,1.2,2.6,1.6,3,1.7l2.3-1.1c0.4-0.2,0.8-0.2,1.2,0l2.2,1.2c0.4,0.2,0.6,0.6,0.6,1.1v2.5c0,0.7-0.3,1.4-0.9,1.8
	C18.9,20.8,18.5,20.9,18.1,20.9z M5.5,4.6c-0.5,0-1.1,0.3-1.4,0.7C3.8,5.7,3.7,6.2,3.9,6.7c0.9,2.7,2.5,6.4,4.9,8.8
	c2.4,2.4,6.1,4,8.8,4.9c0.5,0.2,1,0.1,1.4-0.2c0.4-0.3,0.7-0.8,0.7-1.4v-2.5c0-0.3-0.1-0.5-0.4-0.7l-2.2-1.2c-0.2-0.1-0.5-0.1-0.7,0
	l-2.4,1.2l-0.1,0c-0.1,0-1.8-0.4-3.3-1.8c-1.5-1.5-1.8-3.2-1.8-3.3l0-0.1l1.2-2.4c0.1-0.2,0.1-0.5,0-0.7L8.7,5
	C8.5,4.7,8.3,4.6,8,4.6H5.5z"/>
<rect x="14.1" y="6.5" transform="matrix(0.7071 -0.7071 0.7071 0.7071 0.2793 14.1745)" class="st0" width="6.4" height="0.5"/>
<rect x="17" y="3.6" transform="matrix(0.7071 -0.7071 0.7071 0.7071 0.2793 14.1745)" class="st0" width="0.5" height="6.4"/>
</svg>





