<?xml version="1.0" encoding="iso-8859-1"?>
<svg version="1.1" id="&#x56FE;&#x5C42;_1" xmlns="http://www.w3.org/2000/svg" xmlns:xlink="http://www.w3.org/1999/xlink" x="0px"
	 y="0px" viewBox="0 0 24 24" style="enable-background:new 0 0 24 24;" xml:space="preserve">
<path style="fill:#333333;" d="M16.76,21.496c-0.225,0-0.451-0.037-0.674-0.111C13.34,20.458,9.552,18.84,7.1,16.388
	c-2.45-2.449-4.069-6.239-4.997-8.986c-0.216-0.64-0.116-1.318,0.273-1.859c0.402-0.561,1.066-0.895,1.776-0.895h2.537
	c0.454,0,0.872,0.247,1.093,0.643l1.223,2.204c0.2,0.361,0.209,0.797,0.025,1.166l-1.138,2.277c0.086,0.351,0.498,1.79,1.684,2.977
	c1.186,1.186,2.621,1.593,2.971,1.678l2.276-1.139c0.37-0.183,0.806-0.174,1.166,0.025l2.21,1.229
	c0.396,0.221,0.643,0.64,0.643,1.093v2.537c0,0.71-0.334,1.374-0.895,1.776C17.592,21.366,17.181,21.496,16.76,21.496z M4.151,5.147
	c-0.549,0-1.061,0.257-1.37,0.687C2.487,6.243,2.413,6.756,2.576,7.241c0.911,2.697,2.496,6.412,4.877,8.793
	c2.383,2.384,6.097,3.968,8.793,4.876c0.485,0.165,0.998,0.089,1.407-0.204c0.43-0.309,0.687-0.821,0.687-1.37v-2.537
	c0-0.272-0.147-0.523-0.386-0.655l-2.209-1.229c-0.218-0.122-0.479-0.126-0.7-0.016l-2.432,1.217L12.53,16.1
	c-0.075-0.014-1.843-0.367-3.31-1.833c-1.466-1.467-1.825-3.239-1.839-3.314l-0.016-0.083l1.216-2.433
	c0.111-0.221,0.105-0.483-0.015-0.7L7.343,5.533C7.211,5.295,6.96,5.147,6.688,5.147H4.151z"/>
<polygon style="fill:#333333;" points="16.943,11.177 12.767,7 16.943,2.823 17.297,3.177 13.474,7 17.297,10.823 "/>
<rect x="13.12" y="6.754" style="fill:#333333;" width="8" height="0.5"/>
</svg>






