<?xml version="1.0" encoding="iso-8859-1"?>
<svg version="1.1" id="&#x56FE;&#x5C42;_1" xmlns="http://www.w3.org/2000/svg" xmlns:xlink="http://www.w3.org/1999/xlink" x="0px"
	 y="0px" viewBox="0 0 24 24" style="enable-background:new 0 0 24 24;" xml:space="preserve">
<path style="fill:#333333;" d="M20,21.75H4c-0.965,0-1.75-0.785-1.75-1.75V4c0-0.965,0.785-1.75,1.75-1.75h16
	c0.965,0,1.75,0.785,1.75,1.75v16C21.75,20.965,20.965,21.75,20,21.75z M4,2.75C3.311,2.75,2.75,3.311,2.75,4v16
	c0,0.689,0.561,1.25,1.25,1.25h16c0.689,0,1.25-0.561,1.25-1.25V4c0-0.689-0.561-1.25-1.25-1.25H4z"/>
<path style="fill:#333333;" d="M9.75,18.25h-4.5V5.75h4.5V18.25z M5.75,17.75h3.5V6.25h-3.5V17.75z"/>
<path style="fill:#333333;" d="M18.75,9.25h-6.5v-3.5h6.5V9.25z M12.75,8.75h5.5v-2.5h-5.5V8.75z"/>
<circle style="fill:#333333;" cx="12.5" cy="12" r="1"/>
<circle style="fill:#333333;" cx="12.5" cy="15" r="1"/>
<circle style="fill:#333333;" cx="12.5" cy="18" r="1"/>
<circle style="fill:#333333;" cx="15.5" cy="12" r="1"/>
<circle style="fill:#333333;" cx="15.5" cy="15" r="1"/>
<circle style="fill:#333333;" cx="15.5" cy="18" r="1"/>
<circle style="fill:#333333;" cx="18.5" cy="12" r="1"/>
<circle style="fill:#333333;" cx="18.5" cy="15" r="1"/>
<circle style="fill:#333333;" cx="18.5" cy="18" r="1"/>
</svg>






