<?xml version="1.0" encoding="iso-8859-1"?>
<svg version="1.1" id="&#x56FE;&#x5C42;_1" xmlns="http://www.w3.org/2000/svg" xmlns:xlink="http://www.w3.org/1999/xlink" x="0px"
	 y="0px" viewBox="0 0 24 24" style="enable-background:new 0 0 24 24;" xml:space="preserve">
<path style="fill:#333333;" d="M18.569,20.442c-0.224,0-0.451-0.037-0.673-0.111c-2.747-0.928-6.537-2.548-8.986-4.998
	c-2.451-2.45-4.07-6.239-4.997-8.986C3.697,5.708,3.796,5.03,4.186,4.488c0.402-0.561,1.066-0.895,1.776-0.895h2.536
	c0.454,0,0.873,0.247,1.093,0.643l1.223,2.204c0.2,0.36,0.209,0.796,0.025,1.166L9.701,9.882c0.086,0.351,0.498,1.79,1.684,2.976
	c1.186,1.187,2.621,1.593,2.97,1.678l2.277-1.138c0.37-0.185,0.807-0.175,1.167,0.025l2.209,1.229
	c0.396,0.221,0.643,0.639,0.643,1.093v2.536c0,0.71-0.335,1.374-0.896,1.777C19.401,20.312,18.99,20.442,18.569,20.442z
	 M5.962,4.093c-0.549,0-1.062,0.257-1.37,0.687C4.298,5.189,4.223,5.702,4.387,6.187c0.91,2.697,2.495,6.411,4.877,8.792
	c2.381,2.382,6.096,3.967,8.793,4.877c0.486,0.165,0.997,0.09,1.406-0.204c0.431-0.31,0.688-0.821,0.688-1.371v-2.536
	c0-0.272-0.147-0.523-0.385-0.655l-2.21-1.229c-0.218-0.121-0.479-0.126-0.701-0.016l-2.432,1.216l-0.083-0.017
	c-0.074-0.014-1.843-0.366-3.309-1.833c-1.466-1.466-1.825-3.239-1.839-3.313L9.176,9.815l1.216-2.433
	c0.111-0.222,0.105-0.483-0.015-0.7L9.154,4.479C9.022,4.241,8.771,4.093,8.498,4.093H5.962z"/>
</svg>






