<?xml version="1.0" encoding="iso-8859-1"?>
<svg version="1.1" id="&#x56FE;&#x5C42;_1" xmlns="http://www.w3.org/2000/svg" xmlns:xlink="http://www.w3.org/1999/xlink" x="0px"
	 y="0px" viewBox="0 0 24 24" style="enable-background:new 0 0 24 24;" xml:space="preserve">
<path style="fill:#333333;" d="M21.137,10.34l-0.494-0.074c0.123-0.82,0.083-1.646-0.119-2.453
	c-0.273-1.092-0.842-2.092-1.643-2.893s-1.801-1.369-2.893-1.642c-0.806-0.202-1.633-0.242-2.453-0.12l-0.074-0.494
	c0.89-0.133,1.779-0.089,2.648,0.129c1.18,0.296,2.261,0.909,3.125,1.774c0.865,0.865,1.479,1.945,1.773,3.125
	C21.227,8.563,21.27,9.454,21.137,10.34z"/>
<path style="fill:#333333;" d="M17.342,9.939l-0.494-0.074c0.128-0.859-0.161-1.738-0.775-2.352
	c-0.623-0.623-1.48-0.905-2.353-0.775l-0.074-0.494c1.019-0.153,2.055,0.19,2.78,0.916C17.151,7.885,17.494,8.924,17.342,9.939z"/>
<path style="fill:#333333;" d="M17.26,20.996c-0.225,0-0.451-0.037-0.674-0.111c-2.746-0.927-6.534-2.545-8.986-4.997
	C5.15,13.438,3.53,9.649,2.603,6.901c-0.216-0.64-0.116-1.318,0.273-1.859c0.402-0.561,1.066-0.895,1.776-0.895h2.537
	c0.454,0,0.872,0.247,1.093,0.643l1.223,2.204c0.2,0.361,0.209,0.797,0.025,1.166l-1.138,2.277c0.086,0.351,0.498,1.79,1.684,2.977
	c1.186,1.186,2.621,1.593,2.971,1.678l2.276-1.139c0.37-0.184,0.805-0.175,1.166,0.025l2.21,1.229
	c0.396,0.221,0.643,0.64,0.643,1.093v2.537c0,0.71-0.334,1.374-0.895,1.776C18.092,20.866,17.681,20.996,17.26,20.996z M4.651,4.647
	c-0.549,0-1.061,0.257-1.37,0.687C2.987,5.743,2.913,6.256,3.076,6.741c0.911,2.697,2.496,6.412,4.877,8.793
	c2.383,2.384,6.097,3.968,8.793,4.876c0.486,0.166,0.999,0.089,1.407-0.204c0.43-0.309,0.687-0.821,0.687-1.37v-2.537
	c0-0.272-0.147-0.523-0.386-0.655l-2.209-1.229c-0.218-0.121-0.479-0.126-0.7-0.016l-2.432,1.217L13.03,15.6
	c-0.075-0.014-1.843-0.367-3.31-1.833c-1.466-1.467-1.825-3.239-1.839-3.314l-0.016-0.083l1.216-2.433
	c0.111-0.221,0.105-0.483-0.015-0.7L7.843,5.033C7.711,4.795,7.46,4.647,7.188,4.647H4.651z"/>
</svg>






