<?xml version="1.0" encoding="iso-8859-1"?>
<svg version="1.1" id="&#x56FE;&#x5C42;_1" xmlns="http://www.w3.org/2000/svg" xmlns:xlink="http://www.w3.org/1999/xlink" x="0px"
	 y="0px" viewBox="0 0 24 24" style="enable-background:new 0 0 24 24;" xml:space="preserve">
<g>
	<defs>
		<rect id="SVGID_1_" width="24" height="24"/>
	</defs>
	<clipPath id="SVGID_00000062898117537436091370000003632998199922766208_">
		<use xlink:href="#SVGID_1_"  style="overflow:visible;"/>
	</clipPath>
	<g style="clip-path:url(#SVGID_00000062898117537436091370000003632998199922766208_);">
		<path style="fill:#333333;" d="M11.5,18.25H4c-0.689,0-1.25-0.561-1.25-1.25V3c0-0.689,0.561-1.25,1.25-1.25h12
			c0.689,0,1.25,0.561,1.25,1.25v3.5h-0.5V3c0-0.414-0.337-0.75-0.75-0.75H4C3.586,2.25,3.25,2.586,3.25,3v14
			c0,0.413,0.336,0.75,0.75,0.75h7.5V18.25z"/>
		<path style="fill:#333333;" d="M20.782,22.123c-2.06-3.662-3.024-8.127-3.032-14.046c-0.875-1.28-2.208-2.225-2.496-2.15
			C15.256,5.932,15.25,5.955,15.25,6c0,0.958,0.487,2.919,0.492,2.939l0.011,0.041l-0.512,5.632l-1.313,1.313l-0.153-0.317
			c-0.015-0.032-1.543-3.194-2.442-3.913c-0.243-0.194-0.462-0.236-0.653-0.122c-0.342,0.204-0.537,0.824-0.434,1.382
			c0.171,0.935,0.567,1.597,1.411,2.359c0.293,0.266,0.279,0.726,0.26,1.308c-0.038,1.202-0.089,2.849,2.207,4.161l-0.248,0.434
			c-2.558-1.461-2.496-3.433-2.458-4.61c0.013-0.417,0.025-0.811-0.097-0.921c-0.921-0.834-1.375-1.6-1.567-2.641
			c-0.142-0.771,0.146-1.588,0.669-1.901c0.218-0.13,0.667-0.284,1.222,0.161c0.816,0.652,2.001,2.927,2.425,3.771l0.688-0.688
			l0.488-5.369C15.174,8.718,14.75,6.95,14.75,6c0-0.4,0.246-0.518,0.352-0.55c0.756-0.228,2.366,1.301,3.106,2.411l0.042,0.063V8
			c0,5.868,0.943,10.277,2.968,13.877L20.782,22.123z"/>
		<polygon style="fill:#333333;" points="10,13.75 6.096,13.75 10.276,5.388 10.712,5.368 12.712,8.568 12.288,8.833 10.524,6.011 
			6.904,13.25 10,13.25 		"/>
		<polygon style="fill:#333333;" points="3.219,11.12 2.781,10.88 5.972,5.03 8.704,8.854 8.296,9.146 6.028,5.97 		"/>
	</g>
</g>
</svg>






