<?xml version="1.0" encoding="iso-8859-1"?>
<svg version="1.1" id="&#x56FE;&#x5C42;_1" xmlns="http://www.w3.org/2000/svg" xmlns:xlink="http://www.w3.org/1999/xlink" x="0px"
	 y="0px" viewBox="0 0 24 24" style="enable-background:new 0 0 24 24;" xml:space="preserve">
<path style="fill:#333333;" d="M12,22.25C6.348,22.25,1.75,17.652,1.75,12C1.75,6.348,6.348,1.75,12,1.75
	c5.652,0,10.25,4.598,10.25,10.25C22.25,17.652,17.652,22.25,12,22.25z M12,2.25c-5.376,0-9.75,4.374-9.75,9.75
	s4.374,9.75,9.75,9.75s9.75-4.374,9.75-9.75S17.376,2.25,12,2.25z"/>
<polygon style="fill:#333333;" points="16.343,20.694 8.528,14.345 4.687,18.666 4.313,18.334 8.472,13.655 16.657,20.306 "/>
<path style="fill:#333333;" d="M9,10.75c-1.241,0-2.25-1.009-2.25-2.25S7.759,6.25,9,6.25s2.25,1.009,2.25,2.25
	S10.241,10.75,9,10.75z M9,6.75c-0.965,0-1.75,0.785-1.75,1.75S8.035,10.25,9,10.25s1.75-0.785,1.75-1.75S9.965,6.75,9,6.75z"/>
<polygon style="fill:#333333;" points="12.195,16.656 11.805,16.344 15.961,11.148 21.156,15.305 20.844,15.695 16.039,11.852 "/>
</svg>






