<?xml version="1.0" encoding="iso-8859-1"?>
<svg version="1.1" id="&#x56FE;&#x5C42;_1" xmlns="http://www.w3.org/2000/svg" xmlns:xlink="http://www.w3.org/1999/xlink" x="0px"
	 y="0px" viewBox="0 0 24 24" style="enable-background:new 0 0 24 24;" xml:space="preserve">
<path style="fill:#333333;" d="M20.5,20.25h-17c-0.689,0-1.25-0.561-1.25-1.25V5c0-0.689,0.561-1.25,1.25-1.25h17
	c0.689,0,1.25,0.561,1.25,1.25v14C21.75,19.689,21.189,20.25,20.5,20.25z M3.5,4.25C3.086,4.25,2.75,4.586,2.75,5v14
	c0,0.413,0.336,0.75,0.75,0.75h17c0.413,0,0.75-0.337,0.75-0.75V5c0-0.414-0.337-0.75-0.75-0.75H3.5z"/>
<path style="fill:#333333;" d="M7.25,9.25c-0.551,0-1-0.449-1-1s0.449-1,1-1s1,0.449,1,1S7.801,9.25,7.25,9.25z M7.25,7.75
	c-0.276,0-0.5,0.224-0.5,0.5s0.224,0.5,0.5,0.5s0.5-0.224,0.5-0.5S7.526,7.75,7.25,7.75z"/>
<path style="fill:#333333;" d="M20.5,20.25h-17c-0.689,0-1.25-0.561-1.25-1.25v-2.104l5.231-5.231l2.486,1.989l2.997-3.497
	l8.786,6.718V19C21.75,19.689,21.189,20.25,20.5,20.25z M2.75,17.104V19c0,0.413,0.336,0.75,0.75,0.75h17
	c0.413,0,0.75-0.337,0.75-0.75v-1.876l-8.214-6.282l-3.003,3.503l-2.514-2.011L2.75,17.104z"/>
</svg>






