<?xml version="1.0" encoding="iso-8859-1"?>
<svg version="1.1" id="&#x56FE;&#x5C42;_1" xmlns="http://www.w3.org/2000/svg" xmlns:xlink="http://www.w3.org/1999/xlink" x="0px"
	 y="0px" viewBox="0 0 24 24" style="enable-background:new 0 0 24 24;" xml:space="preserve">
<path style="fill:#333333;" d="M17,18.25H4c-0.689,0-1.25-0.561-1.25-1.25V4c0-0.689,0.561-1.25,1.25-1.25h13
	c0.689,0,1.25,0.561,1.25,1.25v13C18.25,17.689,17.689,18.25,17,18.25z M4,3.25C3.586,3.25,3.25,3.586,3.25,4v13
	c0,0.413,0.336,0.75,0.75,0.75h13c0.413,0,0.75-0.337,0.75-0.75V4c0-0.414-0.337-0.75-0.75-0.75H4z"/>
<path style="fill:#333333;" d="M19.5,21.25H6v-0.5h13.5c0.689,0,1.25-0.561,1.25-1.25V6h0.5v13.5
	C21.25,20.465,20.465,21.25,19.5,21.25z"/>
<path style="fill:#333333;" d="M12.832,13.685L7.997,9.29C7.712,9.03,7.281,9.028,6.994,9.284l-3.828,3.402l-0.332-0.373L6.662,8.91
	c0.479-0.425,1.199-0.42,1.671,0.009l4.835,4.396L12.832,13.685z"/>
<path style="fill:#333333;" d="M17.85,12.2l-3.367-2.525c-0.277-0.209-0.66-0.2-0.93,0.023l-2.393,1.994l-0.32-0.384l2.393-1.994
	c0.449-0.374,1.084-0.388,1.551-0.04L18.15,11.8L17.85,12.2z"/>
<rect x="2.75" y="9.5" style="fill:#333333;" width="0.5" height="4"/>
<rect x="17.75" y="9.5" style="fill:#333333;" width="0.5" height="4"/>
</svg>






