<?xml version="1.0" encoding="iso-8859-1"?>
<svg version="1.1" id="&#x56FE;&#x5C42;_1" xmlns="http://www.w3.org/2000/svg" xmlns:xlink="http://www.w3.org/1999/xlink" x="0px"
	 y="0px" viewBox="0 0 24 24" style="enable-background:new 0 0 24 24;" xml:space="preserve">
<path style="fill:#333333;" d="M19.5,21.25h-15c-0.965,0-1.75-0.785-1.75-1.75v-15c0-0.965,0.785-1.75,1.75-1.75h15
	c0.965,0,1.75,0.785,1.75,1.75v15C21.25,20.465,20.465,21.25,19.5,21.25z M4.5,3.25c-0.689,0-1.25,0.561-1.25,1.25v15
	c0,0.689,0.561,1.25,1.25,1.25h15c0.689,0,1.25-0.561,1.25-1.25v-15c0-0.689-0.561-1.25-1.25-1.25H4.5z"/>
<path style="fill:#333333;" d="M9,11.75c-1.517,0-2.75-1.233-2.75-2.75S7.483,6.25,9,6.25S11.75,7.483,11.75,9S10.517,11.75,9,11.75
	z M9,6.75C7.759,6.75,6.75,7.759,6.75,9S7.759,11.25,9,11.25s2.25-1.009,2.25-2.25S10.241,6.75,9,6.75z"/>
<polygon style="fill:#333333;" points="20.832,18.185 15.499,13.337 10.504,17.833 6.99,14.82 3.15,17.7 2.85,17.3 7.01,14.18 
	10.496,17.167 15.501,12.663 21.168,17.815 "/>
</svg>






