<?xml version="1.0" encoding="iso-8859-1"?>
<svg version="1.1" id="&#x56FE;&#x5C42;_1" xmlns="http://www.w3.org/2000/svg" xmlns:xlink="http://www.w3.org/1999/xlink" x="0px"
	 y="0px" viewBox="0 0 24 24" style="enable-background:new 0 0 24 24;" xml:space="preserve">
<path style="fill:#333333;" d="M12,22.25C6.348,22.25,1.75,17.652,1.75,12C1.75,6.348,6.348,1.75,12,1.75
	c5.652,0,10.25,4.598,10.25,10.25C22.25,17.652,17.652,22.25,12,22.25z M12,2.25c-5.376,0-9.75,4.374-9.75,9.75
	s4.374,9.75,9.75,9.75s9.75-4.374,9.75-9.75S17.376,2.25,12,2.25z"/>
<path style="fill:#333333;" d="M11.993,22.251c-1.337,0-2.664-0.263-3.915-0.78c-1.88-0.78-3.471-2.086-4.6-3.776
	C2.348,16.004,1.75,14.034,1.75,12v-0.25h10v-10H12c2.034,0,4.004,0.598,5.694,1.728c1.69,1.129,2.996,2.72,3.775,4.6
	c0.778,1.878,0.979,3.926,0.583,5.922c-0.396,1.995-1.366,3.81-2.805,5.248S15.995,21.656,14,22.053
	C13.334,22.186,12.662,22.251,11.993,22.251z M2.253,12.25c0.047,1.846,0.612,3.628,1.641,5.167c1.074,1.607,2.587,2.85,4.375,3.592
	c1.786,0.738,3.733,0.931,5.633,0.554c1.898-0.378,3.624-1.3,4.992-2.668s2.29-3.094,2.668-4.992
	c0.377-1.898,0.186-3.847-0.555-5.633c-0.741-1.788-1.983-3.301-3.591-4.375C15.878,2.865,14.096,2.3,12.25,2.253v9.997H2.253z"/>
</svg>






