<?xml version="1.0" encoding="iso-8859-1"?>
<svg version="1.1" id="&#x56FE;&#x5C42;_1" xmlns="http://www.w3.org/2000/svg" xmlns:xlink="http://www.w3.org/1999/xlink" x="0px"
	 y="0px" viewBox="0 0 24 24" style="enable-background:new 0 0 24 24;" xml:space="preserve">
<path style="fill:#333333;" d="M12,22.25C6.348,22.25,1.75,17.652,1.75,12C1.75,6.348,6.348,1.75,12,1.75
	c5.652,0,10.25,4.598,10.25,10.25C22.25,17.652,17.652,22.25,12,22.25z M12,2.25c-5.376,0-9.75,4.374-9.75,9.75
	s4.374,9.75,9.75,9.75s9.75-4.374,9.75-9.75S17.376,2.25,12,2.25z"/>
<path style="fill:#333333;" d="M12.001,22.249c-0.912,0-1.824-0.121-2.706-0.362c-1.607-0.439-3.098-1.274-4.312-2.414l-0.183-0.172
	l6.949-7.4V1.75H12c1.665,0,3.324,0.412,4.797,1.191c1.472,0.78,2.744,1.92,3.681,3.297c0.937,1.379,1.528,2.982,1.71,4.637
	c0.183,1.656-0.045,3.35-0.657,4.898c-0.613,1.548-1.606,2.938-2.874,4.021c-1.268,1.082-2.796,1.845-4.42,2.208
	C13.503,22.167,12.752,22.249,12.001,22.249z M5.51,19.276c1.12,0.998,2.469,1.731,3.917,2.128c1.529,0.419,3.153,0.456,4.7,0.11
	c1.545-0.345,2.999-1.071,4.205-2.101c1.205-1.029,2.15-2.352,2.733-3.824s0.799-3.084,0.626-4.66
	c-0.174-1.574-0.736-3.099-1.628-4.411c-0.891-1.31-2.101-2.395-3.501-3.137c-1.327-0.702-2.812-1.091-4.312-1.129v9.845
	l-0.067,0.072L5.51,19.276z"/>
</svg>






