<?xml version="1.0" encoding="iso-8859-1"?>
<svg version="1.1" id="&#x56FE;&#x5C42;_1" xmlns="http://www.w3.org/2000/svg" xmlns:xlink="http://www.w3.org/1999/xlink" x="0px"
	 y="0px" viewBox="0 0 24 24" style="enable-background:new 0 0 24 24;" xml:space="preserve">
<path style="fill:#333333;" d="M12,22.25C6.348,22.25,1.75,17.652,1.75,12C1.75,6.348,6.348,1.75,12,1.75
	c5.652,0,10.25,4.598,10.25,10.25C22.25,17.652,17.652,22.25,12,22.25z M12,2.25c-5.376,0-9.75,4.374-9.75,9.75
	s4.374,9.75,9.75,9.75s9.75-4.374,9.75-9.75S17.376,2.25,12,2.25z"/>
<path style="fill:#333333;" d="M19.301,19.199l-7.551-7.091V1.75H12c2.005,0,3.951,0.582,5.628,1.683
	c1.675,1.1,2.981,2.655,3.779,4.496c0.796,1.841,1.035,3.858,0.69,5.833c-0.345,1.975-1.253,3.791-2.625,5.254L19.301,19.199z
	 M12.25,11.892l7.026,6.599c1.212-1.358,2.015-3.018,2.329-4.813c0.327-1.879,0.1-3.798-0.657-5.549
	c-0.759-1.751-2.002-3.23-3.596-4.276c-1.524-1.001-3.283-1.552-5.103-1.598V11.892z"/>
</svg>






