<?xml version="1.0" encoding="iso-8859-1"?>
<svg version="1.1" id="&#x56FE;&#x5C42;_1" xmlns="http://www.w3.org/2000/svg" xmlns:xlink="http://www.w3.org/1999/xlink" x="0px"
	 y="0px" viewBox="0 0 24 24" style="enable-background:new 0 0 24 24;" xml:space="preserve">
<path style="fill:#333333;" d="M12,22.25C6.348,22.25,1.75,17.652,1.75,12C1.75,6.348,6.348,1.75,12,1.75
	c5.652,0,10.25,4.598,10.25,10.25C22.25,17.652,17.652,22.25,12,22.25z M12,2.25c-5.376,0-9.75,4.374-9.75,9.75
	s4.374,9.75,9.75,9.75s9.75-4.374,9.75-9.75S17.376,2.25,12,2.25z"/>
<path style="fill:#333333;" d="M11.995,22.248c-0.934,0-1.869-0.127-2.777-0.383c-2.262-0.639-4.252-2.049-5.604-3.972
	c-1.352-1.924-2.004-4.273-1.838-6.617c0.167-2.345,1.144-4.58,2.753-6.293l0.171-0.182l7.051,6.621V1.75H12
	c2.351,0,4.649,0.817,6.472,2.301c1.823,1.484,3.089,3.569,3.565,5.87s0.143,4.717-0.941,6.803
	c-1.083,2.086-2.868,3.748-5.024,4.683C14.779,21.966,13.389,22.248,11.995,22.248z M4.724,5.51c-1.43,1.604-2.298,3.654-2.45,5.801
	c-0.158,2.229,0.463,4.465,1.749,6.295c1.286,1.829,3.179,3.171,5.331,3.778c2.149,0.605,4.466,0.45,6.519-0.437
	c2.052-0.889,3.749-2.471,4.78-4.454c1.03-1.983,1.349-4.282,0.895-6.471c-0.452-2.189-1.657-4.172-3.392-5.584
	c-1.668-1.359-3.757-2.13-5.905-2.186V12l-0.421,0.183L4.724,5.51z"/>
</svg>






