<?xml version="1.0" encoding="iso-8859-1"?>
<svg version="1.1" id="&#x56FE;&#x5C42;_1" xmlns="http://www.w3.org/2000/svg" xmlns:xlink="http://www.w3.org/1999/xlink" x="0px"
	 y="0px" viewBox="0 0 24 24" style="enable-background:new 0 0 24 24;" xml:space="preserve">
<path style="fill:#333333;" d="M12,22.25C6.348,22.25,1.75,17.652,1.75,12C1.75,6.348,6.348,1.75,12,1.75
	c5.652,0,10.25,4.598,10.25,10.25C22.25,17.652,17.652,22.25,12,22.25z M12,2.25c-5.376,0-9.75,4.374-9.75,9.75
	s4.374,9.75,9.75,9.75s9.75-4.374,9.75-9.75S17.376,2.25,12,2.25z"/>
<path style="fill:#333333;" d="M12.171,12.183L11.75,12V1.75H12c1.408,0,2.778,0.284,4.071,0.843
	c1.292,0.56,2.437,1.364,3.401,2.391l0.171,0.183L12.171,12.183z M12.25,2.253v9.169l6.685-6.276
	c-0.88-0.891-1.909-1.595-3.062-2.094C14.72,2.553,13.502,2.285,12.25,2.253z"/>
</svg>






