<?xml version="1.0" encoding="iso-8859-1"?>
<svg version="1.1" id="&#x56FE;&#x5C42;_1" xmlns="http://www.w3.org/2000/svg" xmlns:xlink="http://www.w3.org/1999/xlink" x="0px"
	 y="0px" viewBox="0 0 24 24" style="enable-background:new 0 0 24 24;" xml:space="preserve">
<path style="fill:#333333;" d="M12,22.25C6.348,22.25,1.75,17.652,1.75,12C1.75,6.348,6.348,1.75,12,1.75
	c5.652,0,10.25,4.598,10.25,10.25C22.25,17.652,17.652,22.25,12,22.25z M12,2.25c-5.376,0-9.75,4.374-9.75,9.75
	s4.374,9.75,9.75,9.75s9.75-4.374,9.75-9.75S17.376,2.25,12,2.25z"/>
<path style="fill:#333333;" d="M22.25,12.25h-10.5V1.75H12c1.353,0,2.672,0.263,3.923,0.78c1.249,0.518,2.368,1.265,3.325,2.222
	c0.956,0.956,1.704,2.075,2.222,3.326s0.78,2.57,0.78,3.922V12.25z M12.25,11.75h9.497c-0.03-1.199-0.278-2.369-0.739-3.481
	c-0.492-1.189-1.204-2.254-2.113-3.164c-0.91-0.91-1.975-1.621-3.163-2.113c-1.112-0.46-2.282-0.709-3.481-0.739V11.75z"/>
</svg>






