<?xml version="1.0" encoding="iso-8859-1"?>
<svg version="1.1" id="&#x56FE;&#x5C42;_1" xmlns="http://www.w3.org/2000/svg" xmlns:xlink="http://www.w3.org/1999/xlink" x="0px"
	 y="0px" viewBox="0 0 24 24" style="enable-background:new 0 0 24 24;" xml:space="preserve">
<path style="fill:#333333;" d="M5.284,19.626c-0.991-1.695-1.778-3.814-2.354-5.362c-0.277-0.745-0.496-1.335-0.654-1.652
	C1.115,9.53,3.082,6.821,4.571,6.077l0.805-2.509l0.286,0.241c0.706,0.597,1.324,2.214,1.545,2.996L10.25,7.82v3.796l-0.088,0.075
	c-0.489,0.414-2.486,1.76-3.599,2.051l-0.126-0.484c0.906-0.236,2.688-1.383,3.313-1.876V8.18L6.792,7.194L6.758,7.062
	C6.571,6.328,6.092,5.129,5.607,4.485L4.979,6.44L4.877,6.485c-1.308,0.582-3.196,3.13-2.144,5.927
	c0.161,0.317,0.383,0.918,0.666,1.678c0.569,1.53,1.347,3.626,2.316,5.284L5.284,19.626z"/>
<path style="fill:#333333;" d="M16.75,19.5h-0.5c0-1.557,0.361-2.893,0.878-3.249c2.024-1.396,2.21-4.522,2.093-5.054
	c-0.226-1.443-0.87-2.551-1.919-3.31c-1.585-1.147-3.827-1.277-5.261-1.038l-0.082-0.493c1.533-0.252,3.928-0.109,5.636,1.126
	c1.161,0.839,1.873,2.058,2.117,3.622c0.181,0.82-0.161,4.084-2.301,5.559C17.094,16.882,16.75,18.029,16.75,19.5z"/>
<path style="fill:#333333;" d="M13.25,20h-0.5c0-0.965-0.785-1.75-1.75-1.75S9.25,19.035,9.25,20h-0.5c0-1.24,1.009-2.25,2.25-2.25
	C12.24,17.75,13.25,18.76,13.25,20z"/>
<path style="fill:#333333;" d="M20.539,12.768c-0.088,0-0.176-0.007-0.265-0.021c-0.455-0.071-0.838-0.314-0.998-0.636l0.447-0.223
	c0.069,0.139,0.296,0.313,0.628,0.365c0.23,0.034,0.682,0.035,1.084-0.376c0.187-0.192,0.418-0.706,0.347-1.246
	c-0.053-0.398-0.258-0.706-0.611-0.916l0.256-0.43c0.483,0.287,0.778,0.729,0.852,1.28c0.089,0.672-0.177,1.344-0.485,1.661
	C21.45,12.577,21.004,12.768,20.539,12.768z"/>
</svg>






