<?xml version="1.0" encoding="iso-8859-1"?>
<svg version="1.1" id="&#x56FE;&#x5C42;_1" xmlns="http://www.w3.org/2000/svg" xmlns:xlink="http://www.w3.org/1999/xlink" x="0px"
	 y="0px" viewBox="0 0 24 24" style="enable-background:new 0 0 24 24;" xml:space="preserve">
<path style="fill:#333333;" d="M11.976,20.75c-4.549,0-8.25-3.694-8.25-8.234c0-1.032,0.188-2.036,0.56-2.987
	C3.86,9.301,3.47,9.015,3.148,8.694C2.299,7.846,1.75,6.59,1.75,5.494c0-0.678,0.209-1.245,0.604-1.64
	c1.161-1.159,3.517-0.538,4.849,0.792C7.429,4.87,7.634,5.124,7.816,5.403c2.53-1.475,5.831-1.468,8.354,0.021
	c0.186-0.287,0.396-0.548,0.626-0.778c1.333-1.33,3.69-1.949,4.85-0.792c0.396,0.395,0.604,0.962,0.604,1.64
	c0,1.096-0.549,2.352-1.398,3.2c-0.333,0.333-0.736,0.625-1.177,0.856c0.366,0.945,0.552,1.942,0.552,2.966
	C20.227,17.056,16.525,20.75,11.976,20.75z M3.983,3.753c-0.504,0-0.958,0.138-1.275,0.454C2.33,4.585,2.25,5.115,2.25,5.494
	c0,0.97,0.491,2.087,1.251,2.846c0.335,0.334,0.753,0.626,1.209,0.844l0.215,0.103l-0.093,0.22
	c-0.403,0.953-0.608,1.965-0.608,3.009c0,4.265,3.477,7.734,7.75,7.734s7.751-3.47,7.751-7.734c0-1.037-0.202-2.043-0.601-2.991
	l-0.094-0.222l0.219-0.102c0.471-0.22,0.902-0.518,1.247-0.862c0.761-0.759,1.252-1.876,1.252-2.846
	c0-0.378-0.079-0.909-0.458-1.287c-0.925-0.924-3.025-0.324-4.143,0.792c-0.257,0.257-0.485,0.557-0.68,0.894l-0.131,0.225
	l-0.22-0.139c-2.465-1.56-5.782-1.567-8.253-0.022L7.648,6.093l-0.13-0.223C7.327,5.543,7.102,5.25,6.851,5l0,0
	C6.115,4.265,4.954,3.753,3.983,3.753z"/>
<path style="fill:#333333;" d="M12,18.25c-2.343,0-4.25-1.683-4.25-3.75s1.907-3.75,4.25-3.75c2.344,0,4.25,1.683,4.25,3.75
	S14.344,18.25,12,18.25z M12,11.25c-2.068,0-3.75,1.458-3.75,3.25s1.682,3.25,3.75,3.25c2.067,0,3.75-1.458,3.75-3.25
	S14.067,11.25,12,11.25z"/>
<circle style="fill:#333333;" cx="8.5" cy="9" r="1"/>
<circle style="fill:#333333;" cx="10.5" cy="14.5" r="1"/>
<circle style="fill:#333333;" cx="15.5" cy="9" r="1"/>
<circle style="fill:#333333;" cx="13.5" cy="14.5" r="1"/>
</svg>






