<?xml version="1.0" encoding="iso-8859-1"?>
<svg version="1.1" id="&#x56FE;&#x5C42;_1" xmlns="http://www.w3.org/2000/svg" xmlns:xlink="http://www.w3.org/1999/xlink" x="0px"
	 y="0px" viewBox="0 0 24 24" style="enable-background:new 0 0 24 24;" xml:space="preserve">
<path style="fill:#333333;" d="M6.783,13.125c-0.447-0.771-1.242-2.844,1.034-5.413c0.628-0.593,1.466-1.38,2.98-1.787
	c0.815-0.388,1.339-0.885,1.517-1.464c0.163-0.527,0.039-1.145-0.369-1.833l0.348-0.339c0.85,0.533,2.456,2.489,2.456,6.079h-0.5
	c0-2.378-0.724-3.976-1.419-4.879c0.082,0.395,0.07,0.77-0.038,1.121c-0.222,0.719-0.835,1.319-1.824,1.784
	C9.534,6.783,8.781,7.49,8.176,8.059c-1.971,2.226-1.448,3.973-0.96,4.816L6.783,13.125z"/>
<path style="fill:#333333;" d="M19.583,21.75c-0.082,0-0.166-0.004-0.251-0.013c0,0-0.001,0-0.002,0
	c-0.421,0-1.013-0.549-1.23-2.083c-0.13-0.061-1.082-0.368-4.751,1.569c-1.31,0.623-4.27,1.147-6.185-1.279
	C6.209,18.583,3.969,17.127,2,17.127H1.711l0.041-0.285c0.178-1.241,0.954-2.797,2.286-3.476c1.077-0.55,2.353-0.49,3.796,0.176
	c0.012-1.381,1.203-3.68,5.843-4.916c0.839-0.239,2.744-1.432,3.918-4.223l0.478,0.057c0.449,2.819,0.423,8.878-2.895,11.638
	c-0.034,0.032-0.18,0.187-0.132,0.356c0.035,0.124,0.232,0.437,1.3,0.663c0.286,0.04,1.671-0.432,4.096-3.314
	c0.344-0.284,0.69-0.34,0.987-0.183c0.726,0.385,0.972,1.978,0.729,4.733c-0.068,0.916-0.44,2.231-1.263,2.918
	C20.516,21.59,20.074,21.75,19.583,21.75z M17.755,19.1c0.192,0,0.334,0.024,0.437,0.056c0.22,0.068,0.321,0.188,0.367,0.275
	l0.026,0.084c0.187,1.417,0.665,1.724,0.773,1.724c0.488,0.053,0.876-0.064,1.218-0.35c0.751-0.627,1.035-1.913,1.085-2.574
	c0.312-3.551-0.277-4.152-0.466-4.252c-0.149-0.077-0.318,0.026-0.403,0.096c-2.298,2.738-3.894,3.59-4.544,3.449
	c-0.986-0.208-1.55-0.55-1.682-1.017c-0.084-0.297,0.021-0.62,0.28-0.866c2.86-2.38,3.137-7.396,2.841-10.341
	c-1.256,2.41-3.04,3.486-3.877,3.725c-4.868,1.296-5.687,3.707-5.44,4.802l-0.36,0.275c-1.46-0.771-2.72-0.895-3.745-0.374
	c-1.203,0.613-1.776,1.956-1.967,2.825c2.053,0.136,4.296,1.624,5.267,3.009c1.71,2.169,4.387,1.689,5.559,1.132
	C15.715,19.409,17.064,19.1,17.755,19.1z"/>
<circle style="fill:#333333;" cx="6" cy="15.706" r="1"/>
</svg>






