<?xml version="1.0" encoding="iso-8859-1"?>
<svg version="1.1" id="&#x56FE;&#x5C42;_1" xmlns="http://www.w3.org/2000/svg" xmlns:xlink="http://www.w3.org/1999/xlink" x="0px"
	 y="0px" viewBox="0 0 24 24" style="enable-background:new 0 0 24 24;" xml:space="preserve">
<path style="fill:#333333;" d="M8.371,20.554c-0.163,0-0.325-0.008-0.489-0.021c-1.463-0.128-2.79-0.818-3.734-1.943
	c-0.944-1.126-1.394-2.552-1.266-4.016c0.128-1.464,0.818-2.79,1.944-3.733l7.276-6.106c1.125-0.944,2.547-1.396,4.016-1.266
	c1.464,0.128,2.789,0.818,3.733,1.944s1.395,2.551,1.267,4.015s-0.818,2.789-1.943,3.733l-7.278,6.106
	C10.897,20.104,9.66,20.554,8.371,20.554z M15.63,3.946c-1.172,0-2.297,0.408-3.205,1.17l-7.277,6.106
	c-1.023,0.858-1.651,2.063-1.767,3.395c-0.117,1.33,0.292,2.627,1.15,3.649c0.858,1.023,2.064,1.65,3.395,1.768
	c1.331,0.112,2.627-0.293,3.65-1.151l7.277-6.106c1.023-0.858,1.65-2.064,1.768-3.394c0.116-1.331-0.293-2.627-1.151-3.65
	s-2.063-1.65-3.395-1.767C15.926,3.953,15.777,3.946,15.63,3.946z"/>
<rect x="11.029" y="10.409" transform="matrix(0.7661 -0.6427 0.6427 0.7661 -5.486 10.2052)" style="fill:#333333;" width="0.5" height="4.463"/>
</svg>






