<?xml version="1.0" encoding="iso-8859-1"?>
<svg version="1.1" id="&#x56FE;&#x5C42;_1" xmlns="http://www.w3.org/2000/svg" xmlns:xlink="http://www.w3.org/1999/xlink" x="0px"
	 y="0px" viewBox="0 0 24 24" style="enable-background:new 0 0 24 24;" xml:space="preserve">
<path style="fill:#333333;" d="M13.768,21.881c-0.448,0-0.896-0.171-1.237-0.512l-9.899-9.9c-0.331-0.33-0.513-0.77-0.513-1.237
	S2.3,9.325,2.631,8.995L8.995,2.63c0.684-0.681,1.792-0.682,2.475,0l9.899,9.9c0.683,0.683,0.683,1.792,0,2.475l-6.364,6.364
	C14.664,21.71,14.216,21.881,13.768,21.881z M10.232,2.619c-0.32,0-0.641,0.122-0.884,0.365L2.984,9.348
	c-0.236,0.236-0.366,0.55-0.366,0.884s0.13,0.648,0.366,0.884l9.899,9.9c0.473,0.473,1.295,0.473,1.768,0l6.364-6.364
	c0.236-0.236,0.366-0.55,0.366-0.884s-0.13-0.647-0.366-0.884l-9.899-9.9C10.873,2.74,10.552,2.619,10.232,2.619z"/>
<circle style="fill:#333333;" cx="7.404" cy="10.232" r="1"/>
<circle style="fill:#333333;" cx="11.646" cy="14.475" r="1"/>
<circle style="fill:#333333;" cx="9.525" cy="12.354" r="1"/>
<circle style="fill:#333333;" cx="13.768" cy="16.597" r="1"/>
<circle style="fill:#333333;" cx="10.232" cy="7.403" r="1"/>
<circle style="fill:#333333;" cx="14.475" cy="11.646" r="1"/>
<circle style="fill:#333333;" cx="12.354" cy="9.525" r="1"/>
<circle style="fill:#333333;" cx="16.596" cy="13.768" r="1"/>
</svg>






