<?xml version="1.0" encoding="iso-8859-1"?>
<svg version="1.1" id="&#x56FE;&#x5C42;_1" xmlns="http://www.w3.org/2000/svg" xmlns:xlink="http://www.w3.org/1999/xlink" x="0px"
	 y="0px" viewBox="0 0 24 24" style="enable-background:new 0 0 24 24;" xml:space="preserve">
<g>
	<defs>
		<rect id="SVGID_1_" width="24" height="24"/>
	</defs>
	<clipPath id="SVGID_00000105419876370471609530000008185366185321943214_">
		<use xlink:href="#SVGID_1_"  style="overflow:visible;"/>
	</clipPath>
	<g style="clip-path:url(#SVGID_00000105419876370471609530000008185366185321943214_);">
		<path style="fill:#333333;" d="M3.37,20.979l-0.35-0.35l5.87-7.981L4.995,8.752l0.177-0.177C6.46,7.287,8.062,7.134,9.937,8.119
			l6.1-3.381L15.702,2.43l0.424-0.213l5.657,5.657l-0.212,0.424l-2.304-0.331l-3.391,6.101c0.957,2.02,0.815,3.491-0.452,4.76
			l-0.177,0.177l-3.914-3.913L3.37,20.979z M5.707,8.757l3.841,3.84l-5.145,6.996l6.98-5.16l3.86,3.859
			c0.968-1.091,1.002-2.34,0.128-4.122l-0.058-0.117l3.685-6.63l1.9,0.273l-4.594-4.593l0.277,1.904L9.939,8.689L9.819,8.623
			C8.176,7.723,6.829,7.765,5.707,8.757z"/>
	</g>
</g>
</svg>






