<?xml version="1.0" encoding="iso-8859-1"?>
<svg version="1.1" id="&#x56FE;&#x5C42;_1" xmlns="http://www.w3.org/2000/svg" xmlns:xlink="http://www.w3.org/1999/xlink" x="0px"
	 y="0px" viewBox="0 0 24 24" style="enable-background:new 0 0 24 24;" xml:space="preserve">
<path style="fill:#333333;" d="M13.427,7.427l-0.354-0.354C13.25,6.896,13.25,6.341,13.25,5.5c0-1.444-0.905-2.697-1.276-3.148
	C11.499,2.78,10.25,4.046,10.25,5.5c0,0.959,0,1.396,0.177,1.573l-0.354,0.354C9.75,7.104,9.75,6.634,9.75,5.5
	c0-2.031,2.01-3.63,2.096-3.697l0.179-0.14l0.156,0.164C12.245,1.894,13.75,3.49,13.75,5.5C13.75,6.534,13.75,7.104,13.427,7.427z"
	/>
<path style="fill:#333333;" d="M8.269,8.596C7.676,7.167,6.253,5.395,5.348,4.698l0.106-0.444c3.296-0.619,5.609,1.823,6.239,2.586
	l-0.386,0.318c-0.55-0.667-2.467-2.721-5.225-2.486c0.929,0.879,2.113,2.44,2.649,3.731L8.269,8.596z"/>
<path style="fill:#333333;" d="M15.22,8.119L14.78,7.881c0.646-1.203,1.796-2.467,2.628-3.211c-2.844-0.246-4.688,1.812-5.211,2.483
	l-0.395-0.307c0.6-0.771,2.821-3.236,6.243-2.592l0.106,0.444C17.379,5.294,15.957,6.749,15.22,8.119z"/>
<path style="fill:#333333;" d="M12,22.364c-2.057,0-4.115-0.389-5.149-1.164c-1.13-0.848-1.644-1.703-1.876-2.272
	c-0.237-0.58-0.24-1.205-0.223-1.794c0.047-1.623,0.393-5.631,2.572-7.811C7.627,9.02,7.918,8.746,8.197,8.5l0,0
	c2.24-1.981,5.367-1.98,7.606,0c0.278,0.246,0.569,0.52,0.873,0.823c2.18,2.179,2.524,6.182,2.571,7.802
	c0.018,0.594,0.016,1.224-0.226,1.811c-0.232,0.566-0.745,1.419-1.872,2.265C16.115,21.976,14.058,22.364,12,22.364z M8.528,8.874
	c-0.271,0.24-0.556,0.507-0.851,0.803c-2.053,2.052-2.38,5.908-2.426,7.471c-0.016,0.536-0.014,1.101,0.186,1.591
	c0.208,0.511,0.675,1.283,1.713,2.062c1.903,1.428,7.798,1.428,9.699,0c1.036-0.776,1.502-1.546,1.71-2.054
	c0.204-0.496,0.205-1.065,0.188-1.606c-0.045-1.561-0.372-5.41-2.425-7.463c-0.296-0.296-0.579-0.562-0.851-0.802
	C13.429,7.067,10.575,7.066,8.528,8.874L8.528,8.874z"/>
<rect x="4.823" y="11.5" transform="matrix(0.8857 -0.4643 0.4643 0.8857 -4.2266 6.3345)" style="fill:#333333;" width="11.853" height="0.501"/>
<rect x="13" y="5.823" transform="matrix(0.464 -0.8858 0.8858 0.464 -3.3066 18.0352)" style="fill:#333333;" width="0.501" height="11.853"/>
<rect x="11.25" y="10.054" transform="matrix(0.5039 -0.8638 0.8638 0.5039 -8.9788 18.3676)" style="fill:#333333;" width="0.5" height="13.892"/>
<rect x="5.554" y="16.75" transform="matrix(0.8636 -0.5041 0.5041 0.8636 -6.8654 8.6196)" style="fill:#333333;" width="13.892" height="0.5"/>
</svg>






