<?xml version="1.0" encoding="iso-8859-1"?>
<svg version="1.1" id="&#x56FE;&#x5C42;_1" xmlns="http://www.w3.org/2000/svg" xmlns:xlink="http://www.w3.org/1999/xlink" x="0px"
	 y="0px" viewBox="0 0 24 24" style="enable-background:new 0 0 24 24;" xml:space="preserve">
<path style="fill:#333333;" d="M10.75,10.75H5.5l-0.215-0.377l5-8.5L10.75,2V10.75z M5.937,10.25h4.313V2.918L5.937,10.25z"/>
<path style="fill:#333333;" d="M13.716,22.127L13.25,22v-8.75h5.25l0.216,0.377L13.716,22.127z M13.75,13.75v7.332l4.312-7.332
	H13.75z"/>
<path style="fill:#333333;" d="M22,10.75h-8.75V5.5l0.377-0.215l8.5,5L22,10.75z M13.75,10.25h7.332L13.75,5.937V10.25z"/>
<path style="fill:#333333;" d="M10.373,18.716l-8.5-5L2,13.25h8.75v5.25L10.373,18.716z M2.918,13.75l7.332,4.312V13.75H2.918z"/>
</svg>






