<?xml version="1.0" encoding="iso-8859-1"?>
<svg version="1.1" id="&#x56FE;&#x5C42;_1" xmlns="http://www.w3.org/2000/svg" xmlns:xlink="http://www.w3.org/1999/xlink" x="0px"
	 y="0px" viewBox="0 0 24 24" style="enable-background:new 0 0 24 24;" xml:space="preserve">
<path style="fill:#333333;" d="M21,22.25H3c-0.689,0-1.25-0.561-1.25-1.25l0-18c0-0.689,0.561-1.25,1.25-1.25h18
	c0.689,0,1.25,0.561,1.25,1.25v18C22.25,21.689,21.689,22.25,21,22.25z M3,2.25C2.586,2.25,2.25,2.586,2.25,3l0,18
	c0,0.413,0.336,0.75,0.75,0.75h18c0.413,0,0.75-0.337,0.75-0.75V3c0-0.414-0.337-0.75-0.75-0.75H3z"/>
<polygon style="fill:#333333;" points="17,17.254 10.004,17.254 10.004,16.754 16.5,16.754 16.5,10.004 17,10.004 "/>
<polygon style="fill:#333333;" points="12.073,19.427 9.646,17 12.073,14.573 12.427,14.927 10.354,17 12.427,19.073 "/>
<polygon style="fill:#333333;" points="18.823,12.427 16.75,10.354 14.677,12.427 14.323,12.073 16.75,9.646 19.177,12.073 "/>
<rect x="6.75" y="2" style="fill:#333333;" width="0.5" height="20"/>
<rect x="2" y="6.76" style="fill:#333333;" width="20" height="0.5"/>
<rect x="4" y="1.75" style="fill:#333333;" width="10" height="0.5"/>
<rect x="4" y="21.75" style="fill:#333333;" width="10" height="0.5"/>
<rect x="21.75" y="4" style="fill:#333333;" width="0.5" height="5"/>
<rect x="1.75" y="4" style="fill:#333333;" width="0.5" height="5"/>
</svg>






