<?xml version="1.0" encoding="iso-8859-1"?>
<svg version="1.1" id="&#x56FE;&#x5C42;_1" xmlns="http://www.w3.org/2000/svg" xmlns:xlink="http://www.w3.org/1999/xlink" x="0px"
	 y="0px" viewBox="0 0 24 24" style="enable-background:new 0 0 24 24;" xml:space="preserve">
<path style="fill:#333333;" d="M12,20.25c-4.549,0-8.25-3.701-8.25-8.25S7.451,3.75,12,3.75s8.25,3.701,8.25,8.25
	S16.549,20.25,12,20.25z M12,4.25c-4.273,0-7.75,3.477-7.75,7.75s3.477,7.75,7.75,7.75s7.75-3.477,7.75-7.75S16.273,4.25,12,4.25z"
	/>
<path style="fill:#333333;" d="M6.547,17.55c-0.469,0-0.92-0.019-1.35-0.056c-2.315-0.202-3.758-0.941-4.064-2.083
	c-0.321-1.197,0.651-2.622,2.737-4.012l0.277,0.416c-1.866,1.243-2.789,2.507-2.531,3.467c0.244,0.909,1.564,1.534,3.624,1.714
	c2.172,0.187,4.918-0.121,7.73-0.874c2.811-0.753,5.343-1.857,7.131-3.108c1.694-1.185,2.526-2.387,2.282-3.296
	c-0.244-0.91-1.564-1.534-3.623-1.714l0.043-0.498c2.313,0.202,3.757,0.941,4.062,2.082c0.307,1.141-0.573,2.503-2.478,3.836
	c-1.835,1.283-4.423,2.413-7.289,3.181C10.787,17.225,8.512,17.55,6.547,17.55z"/>
</svg>






