<?xml version="1.0" encoding="iso-8859-1"?>
<svg version="1.1" id="&#x56FE;&#x5C42;_1" xmlns="http://www.w3.org/2000/svg" xmlns:xlink="http://www.w3.org/1999/xlink" x="0px"
	 y="0px" viewBox="0 0 24 24" style="enable-background:new 0 0 24 24;" xml:space="preserve">
<path style="fill:#333333;" d="M20.5,21.75h-17c-0.689,0-1.25-0.561-1.25-1.25V9.25h19.5V20.5C21.75,21.189,21.189,21.75,20.5,21.75
	z M2.75,9.75V20.5c0,0.413,0.336,0.75,0.75,0.75h17c0.413,0,0.75-0.337,0.75-0.75V9.75H2.75z"/>
<path style="fill:#333333;" d="M21.75,9.75H2.25V5c0-0.689,0.561-1.25,1.25-1.25h17c0.689,0,1.25,0.561,1.25,1.25V9.75z M2.75,9.25
	h18.5V5c0-0.414-0.337-0.75-0.75-0.75h-17C3.086,4.25,2.75,4.586,2.75,5V9.25z"/>
<polygon style="fill:#333333;" points="11,18.854 7.823,15.677 8.177,15.323 11,18.146 16.823,12.323 17.177,12.677 "/>
<rect x="7.75" y="2.5" style="fill:#333333;" width="0.5" height="4"/>
<rect x="15.75" y="2.5" style="fill:#333333;" width="0.5" height="4"/>
</svg>






