<?xml version="1.0" encoding="iso-8859-1"?>
<svg version="1.1" id="&#x56FE;&#x5C42;_1" xmlns="http://www.w3.org/2000/svg" xmlns:xlink="http://www.w3.org/1999/xlink" x="0px"
	 y="0px" viewBox="0 0 24 24" style="enable-background:new 0 0 24 24;" xml:space="preserve">
<path style="fill:#333333;" d="M12,22.25C6.348,22.25,1.75,17.652,1.75,12C1.75,6.348,6.348,1.75,12,1.75
	c5.652,0,10.25,4.598,10.25,10.25c0,1.654-1.92,2.046-3.776,2.425c-1.312,0.268-2.67,0.545-3.286,1.241
	c-0.727,0.82-0.839,2.062-0.948,3.263C14.092,20.562,13.938,22.25,12,22.25z M12,2.25c-5.376,0-9.75,4.374-9.75,9.75
	s4.374,9.75,9.75,9.75c1.41,0,1.58-1.089,1.741-2.866c0.111-1.222,0.236-2.606,1.071-3.55c0.728-0.82,2.168-1.115,3.562-1.399
	C20.11,13.58,21.75,13.246,21.75,12C21.75,6.624,17.376,2.25,12,2.25z"/>
<path style="fill:#333333;" d="M14,8.75c-0.965,0-1.75-0.785-1.75-1.75S13.035,5.25,14,5.25S15.75,6.035,15.75,7
	S14.965,8.75,14,8.75z M14,5.75c-0.689,0-1.25,0.561-1.25,1.25S13.311,8.25,14,8.25S15.25,7.689,15.25,7S14.689,5.75,14,5.75z"/>
<path style="fill:#333333;" d="M8,10.75c-0.965,0-1.75-0.785-1.75-1.75S7.035,7.25,8,7.25S9.75,8.035,9.75,9S8.965,10.75,8,10.75z
	 M8,7.75C7.311,7.75,6.75,8.311,6.75,9S7.311,10.25,8,10.25S9.25,9.689,9.25,9S8.689,7.75,8,7.75z"/>
<path style="fill:#333333;" d="M8.5,17.25c-0.965,0-1.75-0.785-1.75-1.75s0.785-1.75,1.75-1.75s1.75,0.785,1.75,1.75
	S9.465,17.25,8.5,17.25z M8.5,14.25c-0.689,0-1.25,0.561-1.25,1.25s0.561,1.25,1.25,1.25s1.25-0.561,1.25-1.25
	S9.189,14.25,8.5,14.25z"/>
</svg>






