<?xml version="1.0" encoding="iso-8859-1"?>
<svg version="1.1" id="&#x56FE;&#x5C42;_1" xmlns="http://www.w3.org/2000/svg" xmlns:xlink="http://www.w3.org/1999/xlink" x="0px"
	 y="0px" viewBox="0 0 24 24" style="enable-background:new 0 0 24 24;" xml:space="preserve">
<path style="fill:#333333;" d="M14.5,7.25c-1.517,0-2.75-1.233-2.75-2.75s1.233-2.75,2.75-2.75s2.75,1.233,2.75,2.75
	S16.017,7.25,14.5,7.25z M14.5,2.25c-1.24,0-2.25,1.009-2.25,2.25s1.01,2.25,2.25,2.25s2.25-1.009,2.25-2.25S15.74,2.25,14.5,2.25z"
	/>
<path style="fill:#333333;" d="M20.5,12c0.828,0,1.5-0.672,1.5-1.5S21.328,9,20.5,9S19,9.672,19,10.5S19.672,12,20.5,12z"/>
<path style="fill:#333333;" d="M5.878,18.723c-0.177,0-0.355-0.039-0.523-0.115l-3.448-1.375l0.186-0.465l3.46,1.38
	c0.227,0.104,0.469,0.096,0.679-0.015c0.208-0.111,0.35-0.309,0.387-0.543l1.136-5.639l0.49,0.099L7.11,17.68
	c-0.061,0.379-0.296,0.709-0.643,0.894C6.282,18.673,6.081,18.723,5.878,18.723z"/>
<path style="fill:#333333;" d="M11.793,22.088l-0.468-0.176l1.785-4.765c0.12-0.313,0.013-0.671-0.259-0.871l-4.764-3.484
	c-0.185-0.135-0.298-0.341-0.311-0.566c-0.013-0.225,0.077-0.441,0.244-0.595l2.42-2.215c0.445-0.399,1.111-0.434,1.587-0.082
	l7.124,5.468l-0.305,0.396l-7.12-5.465c-0.282-0.208-0.684-0.188-0.95,0.052L8.359,12c-0.058,0.052-0.087,0.123-0.083,0.198
	c0.004,0.076,0.042,0.144,0.105,0.19l4.766,3.485c0.453,0.334,0.63,0.931,0.431,1.451L11.793,22.088z"/>
</svg>






