<?xml version="1.0" encoding="iso-8859-1"?>
<svg version="1.1" id="&#x56FE;&#x5C42;_1" xmlns="http://www.w3.org/2000/svg" xmlns:xlink="http://www.w3.org/1999/xlink" x="0px"
	 y="0px" viewBox="0 0 24 24" style="enable-background:new 0 0 24 24;" xml:space="preserve">
<path style="fill:#333333;" d="M16,8.25c-1.517,0-2.75-1.233-2.75-2.75S14.483,2.75,16,2.75s2.75,1.233,2.75,2.75
	S17.517,8.25,16,8.25z M16,3.25c-1.24,0-2.25,1.009-2.25,2.25S14.76,7.75,16,7.75s2.25-1.009,2.25-2.25S17.24,3.25,16,3.25z"/>
<path style="fill:#333333;" d="M11.562,20.242l-0.123-0.484l4.055-1.03c0.133-0.032,0.172-0.138,0.183-0.182
	c0.022-0.093-0.006-0.186-0.076-0.248l-4.261-3.607l-0.062-0.302l1.874-3.749L8.21,8.865C7.899,8.753,7.648,8.527,7.505,8.229
	L5.28,4.119L5.72,3.881l2.23,4.12c0.092,0.19,0.243,0.326,0.43,0.394l5.206,1.87l0.139,0.347l-1.912,3.825l4.114,3.483
	c0.214,0.188,0.303,0.473,0.235,0.745s-0.276,0.482-0.548,0.548L11.562,20.242z"/>
<path style="fill:#333333;" d="M2.583,21.235l-0.167-0.471l5.13-1.82c0.097-0.039,0.193-0.111,0.277-0.211l3.48-4.389l0.392,0.311
	L8.211,19.05c-0.142,0.169-0.305,0.289-0.489,0.362L2.583,21.235z"/>
<path style="fill:#333333;" d="M20.788,15.632l-1.98-3.18c-0.096-0.15-0.248-0.264-0.429-0.317l-4.946-1.394l0.135-0.481l4.95,1.395
	c0.3,0.089,0.552,0.278,0.713,0.532l1.981,3.182L20.788,15.632z"/>
<path style="fill:#333333;" d="M9,4c0.828,0,1.5-0.672,1.5-1.5S9.828,1,9,1S7.5,1.672,7.5,2.5S8.172,4,9,4z"/>
</svg>






