<?xml version="1.0" encoding="iso-8859-1"?>
<svg version="1.1" id="&#x56FE;&#x5C42;_1" xmlns="http://www.w3.org/2000/svg" xmlns:xlink="http://www.w3.org/1999/xlink" x="0px"
	 y="0px" viewBox="0 0 24 24" style="enable-background:new 0 0 24 24;" xml:space="preserve">
<path style="fill:#333333;" d="M22.25,15.75H1.75V2.25h20.5V15.75z M2.25,15.25h19.5V2.75H2.25V15.25z"/>
<path style="fill:#333333;" d="M11.139,11.208L10.75,11V7l0.389-0.208L14.451,9L11.139,11.208z M11.25,7.467v3.065L13.549,9
	L11.25,7.467z"/>
<rect x="3" y="19.75" style="fill:#333333;" width="2.5" height="0.5"/>
<rect x="8.5" y="19.75" style="fill:#333333;" width="12.5" height="0.5"/>
<path style="fill:#333333;" d="M7,21.75c-0.965,0-1.75-0.785-1.75-1.75S6.035,18.25,7,18.25S8.75,19.035,8.75,20
	S7.965,21.75,7,21.75z M7,18.75c-0.689,0-1.25,0.561-1.25,1.25S6.311,21.25,7,21.25S8.25,20.689,8.25,20S7.689,18.75,7,18.75z"/>
</svg>






