<?xml version="1.0" encoding="iso-8859-1"?>
<svg version="1.1" id="&#x56FE;&#x5C42;_1" xmlns="http://www.w3.org/2000/svg" xmlns:xlink="http://www.w3.org/1999/xlink" x="0px"
	 y="0px" viewBox="0 0 24 24" style="enable-background:new 0 0 24 24;" xml:space="preserve">
<path style="fill:#333333;" d="M2.25,12.5h-0.5c0-3.446,2.804-6.25,6.25-6.25h14v0.5H8C4.83,6.75,2.25,9.33,2.25,12.5z"/>
<polygon style="fill:#333333;" points="19.177,9.677 18.823,9.323 21.646,6.5 18.823,3.677 19.177,3.323 22.354,6.5 "/>
<path style="fill:#333333;" d="M16,17.75H2v-0.5h14c3.171,0,5.75-2.579,5.75-5.75h0.5C22.25,14.946,19.446,17.75,16,17.75z"/>
<polygon style="fill:#333333;" points="4.823,20.677 1.646,17.5 4.823,14.323 5.177,14.677 2.354,17.5 5.177,20.323 "/>
</svg>






