<?xml version="1.0" encoding="iso-8859-1"?>
<svg version="1.1" id="&#x56FE;&#x5C42;_1" xmlns="http://www.w3.org/2000/svg" xmlns:xlink="http://www.w3.org/1999/xlink" x="0px"
	 y="0px" viewBox="0 0 24 24" style="enable-background:new 0 0 24 24;" xml:space="preserve">
<path style="fill:#333333;" d="M16.5,18.25h-9c-0.965,0-1.75-0.785-1.75-1.75v-9c0-0.965,0.785-1.75,1.75-1.75h9
	c0.965,0,1.75,0.785,1.75,1.75v9C18.25,17.465,17.465,18.25,16.5,18.25z M7.5,6.25c-0.689,0-1.25,0.561-1.25,1.25v9
	c0,0.689,0.561,1.25,1.25,1.25h9c0.689,0,1.25-0.561,1.25-1.25v-9c0-0.689-0.561-1.25-1.25-1.25H7.5z"/>
<path style="fill:#333333;" d="M10.5,22.25H4v-0.5h6.5c0.689,0,1.25-0.561,1.25-1.25V18h0.5v2.5
	C12.25,21.465,11.465,22.25,10.5,22.25z"/>
<rect x="9.75" y="2" style="fill:#333333;" width="0.5" height="4"/>
<rect x="13.75" y="2" style="fill:#333333;" width="0.5" height="4"/>
<rect x="11" y="11.75" style="fill:#333333;" width="2" height="0.5"/>
</svg>






