<?xml version="1.0" encoding="iso-8859-1"?>
<svg version="1.1" id="&#x56FE;&#x5C42;_1" xmlns="http://www.w3.org/2000/svg" xmlns:xlink="http://www.w3.org/1999/xlink" x="0px"
	 y="0px" viewBox="0 0 24 24" style="enable-background:new 0 0 24 24;" xml:space="preserve">
<path style="fill:#333333;" d="M12,18.25c-4.084,0-7.187-2.065-9.224-6.139L2.75,12V6.75h18.5l-0.026,5.361
	C19.188,16.185,16.084,18.25,12,18.25z M3.25,11.941C5.195,15.796,8.139,17.75,12,17.75s6.805-1.954,8.75-5.809V7.25H3.25V11.941z"
	/>
<polygon style="fill:#333333;" points="16.227,22.25 7.774,22.25 7.251,17.024 7.749,16.976 8.226,21.75 15.773,21.75 
	16.251,16.976 16.749,17.024 "/>
<rect x="11" y="11.75" style="fill:#333333;" width="2" height="0.5"/>
<rect x="7.75" y="2" style="fill:#333333;" width="0.5" height="4"/>
<rect x="15.75" y="2" style="fill:#333333;" width="0.5" height="4"/>
</svg>






