<?xml version="1.0" encoding="iso-8859-1"?>
<svg version="1.1" id="&#x56FE;&#x5C42;_1" xmlns="http://www.w3.org/2000/svg" xmlns:xlink="http://www.w3.org/1999/xlink" x="0px"
	 y="0px" viewBox="0 0 24 24" style="enable-background:new 0 0 24 24;" xml:space="preserve">
<path style="fill:#333333;" d="M13.84,21.823c-1.479,0-2.985-0.366-4.452-1.1c-2.651-1.325-5.325-5.134-7.102-8.095
	c-0.853-1.421-0.322-2.77,0.583-3.476c0.849-0.663,2.245-0.892,3.308,0.17l1.573,1.573V3.75c0-1.103,0.897-2,2-2s2,0.897,2,2v2.929
	C12.117,6.263,12.653,6,13.25,6c0.932,0,1.716,0.64,1.938,1.503c0.367-0.458,0.931-0.753,1.562-0.753c1.103,0,2,0.897,2,1.999v1.18
	c0.367-0.416,0.903-0.679,1.5-0.679c1.103,0,2,0.897,2,2v4.372c0,0.678-0.173,1.289-0.501,1.769c-0.546,0.801-1.743,2.3-3.629,3.329
	C16.771,21.455,15.32,21.823,13.84,21.823z M4.466,9.086c-0.475,0-0.932,0.182-1.289,0.461c-0.731,0.571-1.157,1.665-0.462,2.824
	c1.743,2.904,4.354,6.634,6.897,7.905c2.786,1.394,5.721,1.394,8.268,0.004c1.794-0.979,2.936-2.407,3.456-3.172
	c0.275-0.401,0.414-0.901,0.414-1.486V11.25c0-0.827-0.673-1.5-1.5-1.5s-1.5,0.673-1.5,1.5h-0.5V8.749
	c0-0.827-0.673-1.499-1.5-1.499s-1.5,0.673-1.5,1.5h-0.5V8c0-0.827-0.673-1.5-1.5-1.5s-1.5,0.673-1.5,1.5h-0.5V3.75
	c0-0.827-0.673-1.5-1.5-1.5s-1.5,0.673-1.5,1.5v7.75l-0.427,0.177l-2-2C5.404,9.257,4.927,9.086,4.466,9.086z"/>
</svg>






