<?xml version="1.0" encoding="iso-8859-1"?>
<svg version="1.1" id="&#x56FE;&#x5C42;_1" xmlns="http://www.w3.org/2000/svg" xmlns:xlink="http://www.w3.org/1999/xlink" x="0px"
	 y="0px" viewBox="0 0 24 24" style="enable-background:new 0 0 24 24;" xml:space="preserve">
<path style="fill:#333333;" d="M17.195,22.25H6.805L3.18,7.75H20.82L17.195,22.25z M7.195,21.75h9.609l3.375-13.5H3.82L7.195,21.75z
	"/>
<rect x="9.75" y="8" style="fill:#333333;" width="0.5" height="14"/>
<rect x="13.75" y="8" style="fill:#333333;" width="0.5" height="14"/>
<path style="fill:#333333;" d="M17.918,8.25h-2.836l-0.07-0.062C14.527,7.761,14.25,7.146,14.25,6.5c0-1.241,1.01-2.25,2.25-2.25
	s2.25,1.009,2.25,2.25c0,0.646-0.277,1.261-0.762,1.688L17.918,8.25z M15.275,7.75h2.449C18.06,7.422,18.25,6.971,18.25,6.5
	c0-0.965-0.785-1.75-1.75-1.75s-1.75,0.785-1.75,1.75C14.75,6.971,14.94,7.422,15.275,7.75z"/>
<path style="fill:#333333;" d="M13.418,8.25h-2.835l-0.071-0.062C10.028,7.761,9.75,7.146,9.75,6.5c0-1.241,1.009-2.25,2.25-2.25
	c1.24,0,2.25,1.009,2.25,2.25c0,0.646-0.277,1.261-0.762,1.688L13.418,8.25z M10.775,7.75h2.449C13.56,7.422,13.75,6.971,13.75,6.5
	c0-0.965-0.785-1.75-1.75-1.75s-1.75,0.785-1.75,1.75C10.25,6.972,10.44,7.422,10.775,7.75z"/>
<path style="fill:#333333;" d="M8.917,8.25H6.083L6.012,8.188C5.528,7.761,5.25,7.146,5.25,6.5c0-1.241,1.009-2.25,2.25-2.25
	S9.75,5.259,9.75,6.5c0,0.646-0.278,1.261-0.762,1.688L8.917,8.25z M6.275,7.75h2.449C9.06,7.422,9.25,6.972,9.25,6.5
	c0-0.965-0.785-1.75-1.75-1.75S5.75,5.535,5.75,6.5C5.75,6.972,5.94,7.422,6.275,7.75z"/>
<path style="fill:#333333;" d="M11.679,4.562l-0.484-0.124C11.231,4.295,11.25,4.148,11.25,4c0-0.965-0.785-1.75-1.75-1.75
	S7.75,3.035,7.75,4c0,0.148,0.019,0.295,0.055,0.438L7.321,4.562C7.274,4.379,7.25,4.19,7.25,4c0-1.241,1.009-2.25,2.25-2.25
	S11.75,2.759,11.75,4C11.75,4.19,11.726,4.379,11.679,4.562z"/>
<path style="fill:#333333;" d="M16.679,4.563l-0.484-0.127C16.231,4.297,16.25,4.15,16.25,4c0-0.965-0.785-1.75-1.75-1.75
	S12.75,3.035,12.75,4c0,0.15,0.019,0.297,0.056,0.437l-0.484,0.127C12.274,4.383,12.25,4.193,12.25,4c0-1.241,1.01-2.25,2.25-2.25
	S16.75,2.759,16.75,4C16.75,4.193,16.726,4.383,16.679,4.563z"/>
<rect x="8" y="7.75" style="fill:#333333;" width="8" height="0.5"/>
<rect x="8" y="21.75" style="fill:#333333;" width="8" height="0.5"/>
</svg>






