<?xml version="1.0" encoding="iso-8859-1"?>
<svg version="1.1" id="&#x56FE;&#x5C42;_1" xmlns="http://www.w3.org/2000/svg" xmlns:xlink="http://www.w3.org/1999/xlink" x="0px"
	 y="0px" viewBox="0 0 24 24" style="enable-background:new 0 0 24 24;" xml:space="preserve">
<path style="fill:#333333;" d="M14.896,22.25H8.104c-0.801,0-1.242,0-1.584-0.274c-0.342-0.274-0.438-0.705-0.612-1.486L3.188,8.25
	h16.623l-2.72,12.237c-0.173,0.782-0.268,1.213-0.612,1.488C16.138,22.25,15.696,22.25,14.896,22.25z M3.812,8.75l2.584,11.629
	c0.154,0.694,0.231,1.042,0.437,1.206c0.206,0.165,0.562,0.165,1.272,0.165h6.791c0.71,0,1.066,0,1.271-0.165
	c0.198-0.159,0.273-0.466,0.437-1.205v-0.001L19.188,8.75H3.812z"/>
<rect x="6.995" y="15" transform="matrix(0.0351 -0.9994 0.9994 0.0351 -1.9737 28.4557)" style="fill:#333333;" width="13.509" height="0.5"/>
<rect x="9" y="8.495" transform="matrix(0.9993 -0.037 0.037 0.9993 -0.5581 0.3528)" style="fill:#333333;" width="0.5" height="13.509"/>
<rect x="7.5" y="21.75" style="fill:#333333;" width="8" height="0.5"/>
<rect x="7.5" y="8.25" style="fill:#333333;" width="8" height="0.5"/>
<path style="fill:#333333;" d="M17.724,8.612l-0.447-0.223c0.007-0.014,0.671-1.376,0.023-2.239c-0.662-0.883-1.789-0.9-1.801-0.9
	l-0.247-0.001L15.25,5c0-0.067-0.021-1.639-1.318-2.01c-1.295-0.367-2.208,1.123-2.217,1.138l-0.119,0.198l-0.208-0.103
	c-0.014-0.007-1.403-0.69-2.276-0.25C8.264,4.397,8.25,5.737,8.25,5.75L8.249,6.044l-0.29-0.047
	c-0.013-0.003-1.383-0.219-2.032,0.43C5.401,6.953,5.612,8.044,5.737,8.421L5.263,8.579C5.24,8.512,4.724,6.923,5.573,6.073
	C6.207,5.44,7.268,5.435,7.768,5.473C7.82,4.977,8.033,3.954,8.888,3.526c0.88-0.439,2.055-0.037,2.522,0.159
	c0.332-0.458,1.294-1.569,2.658-1.176c1.195,0.341,1.6,1.518,1.67,2.257c0.43,0.052,1.343,0.258,1.962,1.083
	C18.533,6.961,17.757,8.545,17.724,8.612z"/>
</svg>






