<?xml version="1.0" encoding="iso-8859-1"?>
<svg version="1.1" id="&#x56FE;&#x5C42;_1" xmlns="http://www.w3.org/2000/svg" xmlns:xlink="http://www.w3.org/1999/xlink" x="0px"
	 y="0px" viewBox="0 0 24 24" style="enable-background:new 0 0 24 24;" xml:space="preserve">
<rect x="16.807" y="12.75" transform="matrix(0.9287 -0.3707 0.3707 0.9287 -3.4299 8.1553)" style="fill:#333333;" width="5.385" height="0.5"/>
<path style="fill:#333333;" d="M13.304,19.25H5.696c-1.905,0-3.507-1.428-3.726-3.32L1.72,13.75H17.28l-0.252,2.18
	C16.811,17.822,15.21,19.25,13.304,19.25z M2.28,14.25l0.188,1.623c0.189,1.64,1.578,2.877,3.229,2.877h7.607
	c1.651,0,3.039-1.237,3.229-2.877l0.188-1.623H2.28z"/>
<rect x="9.25" y="5" style="fill:#333333;" width="0.5" height="5"/>
<rect x="5.25" y="6" style="fill:#333333;" width="0.5" height="3"/>
<rect x="13.25" y="6" style="fill:#333333;" width="0.5" height="3"/>
</svg>






