<?xml version="1.0" encoding="iso-8859-1"?>
<svg version="1.1" id="&#x56FE;&#x5C42;_1" xmlns="http://www.w3.org/2000/svg" xmlns:xlink="http://www.w3.org/1999/xlink" x="0px"
	 y="0px" viewBox="0 0 24 24" style="enable-background:new 0 0 24 24;" xml:space="preserve">
<path style="fill:#333333;" d="M20.5,21.75h-17c-0.965,0-1.75-0.785-1.75-1.75V10c0-0.965,0.785-1.75,1.75-1.75h2.643
	c0.884,0,1.612,0.682,2.147,1.276C8.793,10.084,9.844,10.75,12,10.75c2.155,0,3.207-0.666,3.71-1.224
	c0.535-0.594,1.264-1.276,2.147-1.276H20.5c0.965,0,1.75,0.785,1.75,1.75v10C22.25,20.965,21.465,21.75,20.5,21.75z M3.5,8.75
	c-0.689,0-1.25,0.561-1.25,1.25v10c0,0.689,0.561,1.25,1.25,1.25h17c0.689,0,1.25-0.561,1.25-1.25V10c0-0.689-0.561-1.25-1.25-1.25
	h-2.643c-0.694,0-1.347,0.634-1.776,1.111C15.511,10.495,14.34,11.25,12,11.25c-2.339,0-3.511-0.755-4.081-1.389
	C7.489,9.384,6.837,8.75,6.143,8.75H3.5z"/>
<path style="fill:#333333;" d="M12,11.25c-2.664,0-4.75-1.208-4.75-2.75h0.5c0,1.22,1.946,2.25,4.25,2.25s4.25-1.03,4.25-2.25h0.5
	C16.75,10.042,14.663,11.25,12,11.25z"/>
<path style="fill:#333333;" d="M12,7.75C9.336,7.75,7.25,6.542,7.25,5S9.336,2.25,12,2.25c2.663,0,4.75,1.208,4.75,2.75
	S14.663,7.75,12,7.75z M12,2.75C9.696,2.75,7.75,3.78,7.75,5S9.696,7.25,12,7.25S16.25,6.22,16.25,5S14.304,2.75,12,2.75z"/>
<rect x="16.25" y="5" style="fill:#333333;" width="0.5" height="3.5"/>
<rect x="7.25" y="5" style="fill:#333333;" width="0.5" height="3.5"/>
<ellipse style="fill:#333333;" cx="13.5" cy="5" rx="1" ry="0.5"/>
<ellipse style="fill:#333333;" cx="10.5" cy="5" rx="1" ry="0.5"/>
</svg>






