<?xml version="1.0" encoding="iso-8859-1"?>
<svg version="1.1" id="&#x56FE;&#x5C42;_1" xmlns="http://www.w3.org/2000/svg" xmlns:xlink="http://www.w3.org/1999/xlink" x="0px"
	 y="0px" viewBox="0 0 24 24" style="enable-background:new 0 0 24 24;" xml:space="preserve">
<path style="fill:#333333;" d="M18.586,18.25H5.414c-0.359,0-0.669-0.256-0.737-0.609l-0.897-4.71
	c-0.024-0.131-0.014-0.266,0.03-0.393l3.336-9.292C7.252,2.95,7.536,2.75,7.852,2.75h8.297c0.315,0,0.6,0.2,0.706,0.497l3.335,9.291
	c0.045,0.126,0.056,0.262,0.031,0.394l-0.898,4.71C19.255,17.994,18.945,18.25,18.586,18.25z M7.852,3.25
	c-0.105,0-0.199,0.066-0.235,0.166l-3.335,9.291c-0.015,0.042-0.019,0.087-0.01,0.131l0.897,4.71
	c0.022,0.118,0.125,0.203,0.246,0.203h13.172c0.12,0,0.224-0.085,0.246-0.203l0.897-4.71c0.008-0.044,0.005-0.089-0.011-0.132
	l-3.335-9.29c-0.035-0.099-0.13-0.166-0.235-0.166H7.852z"/>
<rect x="11.75" y="18" style="fill:#333333;" width="0.5" height="4"/>
<rect x="11.75" y="6" style="fill:#333333;" width="0.5" height="3"/>
<rect x="8.75" y="11.5" transform="matrix(0.866 -0.5001 0.5001 0.866 -5.2947 6.2427)" style="fill:#333333;" width="0.5" height="3"/>
<rect x="13.5" y="12.75" transform="matrix(0.4995 -0.8663 0.8663 0.4995 -3.7546 19.5013)" style="fill:#333333;" width="3" height="0.501"/>
</svg>






