<?xml version="1.0" encoding="iso-8859-1"?>
<svg version="1.1" id="&#x56FE;&#x5C42;_1" xmlns="http://www.w3.org/2000/svg" xmlns:xlink="http://www.w3.org/1999/xlink" x="0px"
	 y="0px" viewBox="0 0 24 24" style="enable-background:new 0 0 24 24;" xml:space="preserve">
<path style="fill:#333333;" d="M16.628,22.215l-0.256-0.43c2.862-1.711,4.488-4.295,4.832-7.68c0.342-3.36-1.282-6.095-4.828-8.129
	L16.25,5.904V2h0.5v3.615c3.646,2.134,5.312,5.007,4.952,8.541C21.341,17.707,19.634,20.418,16.628,22.215z"/>
<path style="fill:#333333;" d="M11.026,20.25c-0.727,0-1.602-0.441-2.662-1.342c-3.771-3.201-6.114-5.9-6.114-7.045
	c0-0.936,1.399-6.494,2.099-8.084c0.504-1.145,1.343-1.826,2.495-2.025l0.085,0.493c-0.99,0.17-1.684,0.738-2.122,1.733
	C4.086,5.619,2.75,11.084,2.75,11.863c0,0.603,1.25,2.686,5.938,6.665c1.073,0.91,1.932,1.316,2.546,1.205
	c0.339-0.062,0.61-0.281,0.831-0.673c0.513-0.912-0.109-1.494-1.194-2.345c-1.697-1.33-4.57-3.915-4.57-5.159
	c0-0.737,0.651-2.863,1.991-6.499L8.76,5.23c-1.62,4.396-1.959,5.867-1.959,6.326c0,0.866,2.256,3.102,4.378,4.767
	c0.975,0.764,2.081,1.63,1.321,2.981c-0.294,0.523-0.69,0.833-1.178,0.921C11.226,20.241,11.127,20.25,11.026,20.25z"/>
<path style="fill:#333333;" d="M5.259,22.036c-0.676-2.511-1.149-5.047-1.407-7.54l0.497-0.051c0.255,2.466,0.723,4.977,1.392,7.46
	L5.259,22.036z"/>
<path style="fill:#333333;" d="M18.446,14.266l-0.496-0.068c0.09-0.641,0.025-1.365-0.191-2.153
	c-0.209-0.76-0.679-1.387-1.397-1.863l0.277-0.417c0.821,0.546,1.36,1.269,1.603,2.148C18.476,12.766,18.545,13.558,18.446,14.266z"
	/>
</svg>






