<?xml version="1.0" encoding="iso-8859-1"?>
<svg version="1.1" id="&#x56FE;&#x5C42;_1" xmlns="http://www.w3.org/2000/svg" xmlns:xlink="http://www.w3.org/1999/xlink" x="0px"
	 y="0px" viewBox="0 0 24 24" style="enable-background:new 0 0 24 24;" xml:space="preserve">
<path style="fill:#333333;" d="M20.5,17.75h-17c-0.689,0-1.25-0.561-1.25-1.25v-12c0-0.689,0.561-1.25,1.25-1.25h17
	c0.689,0,1.25,0.561,1.25,1.25v12C21.75,17.189,21.189,17.75,20.5,17.75z M3.5,3.75c-0.414,0-0.75,0.336-0.75,0.75v12
	c0,0.413,0.336,0.75,0.75,0.75h17c0.413,0,0.75-0.337,0.75-0.75v-12c0-0.414-0.337-0.75-0.75-0.75H3.5z"/>
<rect x="6.75" y="7" style="fill:#333333;" width="0.5" height="7"/>
<rect x="16.75" y="7" style="fill:#333333;" width="0.5" height="7"/>
<rect x="11.75" y="8.5" style="fill:#333333;" width="0.5" height="4"/>
<rect x="10" y="10.25" style="fill:#333333;" width="4" height="0.5"/>
<rect x="2" y="20.25" style="fill:#333333;" width="20" height="0.5"/>
</svg>






