<?xml version="1.0" encoding="iso-8859-1"?>
<svg version="1.1" id="&#x56FE;&#x5C42;_1" xmlns="http://www.w3.org/2000/svg" xmlns:xlink="http://www.w3.org/1999/xlink" x="0px"
	 y="0px" viewBox="0 0 24 24" style="enable-background:new 0 0 24 24;" xml:space="preserve">
<path style="fill:#333333;" d="M12,18.25c-5.584,0-10.015-5.852-10.2-6.101L1.688,12L1.8,11.851
	c0.046-0.062,1.158-1.542,2.969-3.043l0.319,0.385C3.652,10.383,2.646,11.586,2.317,12c0.735,0.918,4.833,5.75,9.683,5.75
	c0.631,0,1.283-0.083,1.939-0.246l0.121,0.484C13.364,18.162,12.672,18.25,12,18.25z M19.23,15.192l-0.318-0.385
	c1.437-1.19,2.441-2.395,2.771-2.808C20.948,11.082,16.849,6.25,12,6.25c-0.628,0-1.275,0.082-1.924,0.243l-0.12-0.485
	C10.644,5.836,11.332,5.75,12,5.75c5.584,0,10.015,5.852,10.2,6.101L22.312,12L22.2,12.149C22.154,12.212,21.043,13.69,19.23,15.192
	z"/>
<path style="fill:#333333;" d="M12,14.75c-1.517,0-2.75-1.233-2.75-2.75c0-0.69,0.257-1.351,0.723-1.858l0.368,0.338
	C9.96,10.895,9.75,11.435,9.75,12c0,1.24,1.009,2.25,2.25,2.25c0.593,0,1.152-0.229,1.575-0.644l0.35,0.357
	C13.408,14.471,12.725,14.75,12,14.75z"/>
<rect x="11.75" y="-0.728" transform="matrix(0.7071 -0.7071 0.7071 0.7071 -4.9706 12)" style="fill:#333333;" width="0.5" height="25.456"/>
</svg>






