<?xml version="1.0" encoding="iso-8859-1"?>
<svg version="1.1" id="&#x56FE;&#x5C42;_1" xmlns="http://www.w3.org/2000/svg" xmlns:xlink="http://www.w3.org/1999/xlink" x="0px"
	 y="0px" viewBox="0 0 24 24" style="enable-background:new 0 0 24 24;" xml:space="preserve">
<path style="fill:#333333;" d="M12,18.25c-5.584,0-10.015-5.852-10.2-6.101L1.688,12L1.8,11.851C1.985,11.602,6.416,5.75,12,5.75
	s10.015,5.852,10.2,6.101L22.312,12L22.2,12.149C22.015,12.398,17.584,18.25,12,18.25z M2.317,12c0.735,0.919,4.834,5.75,9.683,5.75
	s8.947-4.831,9.683-5.75C20.947,11.081,16.849,6.25,12,6.25C7.147,6.25,3.052,11.081,2.317,12z"/>
<path style="fill:#333333;" d="M12,14.75c-1.517,0-2.75-1.233-2.75-2.75S10.483,9.25,12,9.25s2.75,1.233,2.75,2.75
	S13.517,14.75,12,14.75z M12,9.75c-1.241,0-2.25,1.009-2.25,2.25c0,1.24,1.009,2.25,2.25,2.25c1.24,0,2.25-1.01,2.25-2.25
	C14.25,10.759,13.24,9.75,12,9.75z"/>
</svg>






