<?xml version="1.0" encoding="iso-8859-1"?>
<svg version="1.1" id="&#x56FE;&#x5C42;_1" xmlns="http://www.w3.org/2000/svg" xmlns:xlink="http://www.w3.org/1999/xlink" x="0px"
	 y="0px" viewBox="0 0 24 24" style="enable-background:new 0 0 24 24;" xml:space="preserve">
<path style="fill:#333333;" d="M19.25,10h-0.5V4c0-0.414-0.337-0.75-0.75-0.75H6C5.586,3.25,5.25,3.586,5.25,4v6h-0.5V4
	c0-0.689,0.561-1.25,1.25-1.25h12c0.689,0,1.25,0.561,1.25,1.25V10z"/>
<path style="fill:#333333;" d="M20,21.25H4c-0.689,0-1.25-0.561-1.25-1.25v-9c0-0.689,0.561-1.25,1.25-1.25h16
	c0.689,0,1.25,0.561,1.25,1.25v9C21.25,20.689,20.689,21.25,20,21.25z M4,10.25c-0.414,0-0.75,0.336-0.75,0.75v9
	c0,0.413,0.336,0.75,0.75,0.75h16c0.413,0,0.75-0.337,0.75-0.75v-9c0-0.414-0.337-0.75-0.75-0.75H4z"/>
<path style="fill:#333333;" d="M17.75,21.25h-8v-4.5h8V21.25z M10.25,20.75h7v-3.5h-7V20.75z"/>
<rect x="6" y="12.75" style="fill:#333333;" width="1.5" height="0.5"/>
</svg>






