<?xml version="1.0" encoding="iso-8859-1"?>
<svg version="1.1" id="&#x56FE;&#x5C42;_1" xmlns="http://www.w3.org/2000/svg" xmlns:xlink="http://www.w3.org/1999/xlink" x="0px"
	 y="0px" viewBox="0 0 24 24" style="enable-background:new 0 0 24 24;" xml:space="preserve">
<path style="fill:#333333;" d="M21,16.75h-5v-0.5h5c0.413,0,0.75-0.337,0.75-0.75v-8c0-0.414-0.337-0.75-0.75-0.75h-5v-0.5h5
	c0.689,0,1.25,0.561,1.25,1.25v8C22.25,16.189,21.689,16.75,21,16.75z"/>
<path style="fill:#333333;" d="M8,16.75H3c-0.689,0-1.25-0.561-1.25-1.25v-8c0-0.689,0.561-1.25,1.25-1.25h5v0.5H3
	c-0.414,0-0.75,0.336-0.75,0.75v8c0,0.413,0.336,0.75,0.75,0.75h5V16.75z"/>
<polygon style="fill:#333333;" points="18.25,9.75 5.75,9.75 5.75,6.5 6.25,6.5 6.25,9.25 17.75,9.25 17.75,6.5 18.25,6.5 "/>
<polygon style="fill:#333333;" points="16.25,6.5 15.75,6.5 15.75,2.75 8.25,2.75 8.25,6.5 7.75,6.5 7.75,2.25 16.25,2.25 "/>
<polygon style="fill:#333333;" points="16.25,21.75 7.75,21.75 7.75,14.5 8.25,14.5 8.25,21.25 15.75,21.25 15.75,14.5 16.25,14.5 
	"/>
<rect x="11" y="17.25" style="fill:#333333;" width="2" height="0.5"/>
<rect x="6.5" y="13.25" style="fill:#333333;" width="11" height="0.5"/>
</svg>






