<?xml version="1.0" encoding="iso-8859-1"?>
<svg version="1.1" id="&#x56FE;&#x5C42;_1" xmlns="http://www.w3.org/2000/svg" xmlns:xlink="http://www.w3.org/1999/xlink" x="0px"
	 y="0px" viewBox="0 0 24 24" style="enable-background:new 0 0 24 24;" xml:space="preserve">
<path style="fill:#333333;" d="M9.5,6.75h-6C3.086,6.75,2.75,6.414,2.75,6V2h0.5v4c0,0.138,0.112,0.25,0.25,0.25h6
	c0.138,0,0.25-0.112,0.25-0.25V2h0.5v4C10.25,6.414,9.914,6.75,9.5,6.75z"/>
<rect x="3" y="3.25" style="fill:#333333;" width="7" height="0.5"/>
<polygon style="fill:#333333;" points="14,22.25 2.75,22.25 2.75,10.75 14,10.75 14,11.25 3.25,11.25 3.25,21.75 14,21.75 "/>
<rect x="7.75" y="6.5" style="fill:#333333;" width="0.5" height="15.5"/>
<rect x="4.75" y="6.5" style="fill:#333333;" width="0.5" height="4.5"/>
<rect x="6.25" y="2" style="fill:#333333;" width="0.5" height="1.5"/>
<rect x="13.25" y="6.5" style="fill:#333333;" width="0.5" height="1.5"/>
<rect x="17.25" y="6.5" style="fill:#333333;" width="0.5" height="1.5"/>
<rect x="21.25" y="6.5" style="fill:#333333;" width="0.5" height="1.5"/>
<path style="fill:#333333;" d="M21.75,22.25h-8.5V7.75h8.5V22.25z M13.75,21.75h7.5V8.25h-7.5V21.75z"/>
<rect x="17.25" y="17" style="fill:#333333;" width="0.5" height="5"/>
<rect x="15.5" y="21.75" style="fill:#333333;" width="4" height="0.5"/>
</svg>






