<?xml version="1.0" encoding="iso-8859-1"?>
<svg version="1.1" id="&#x56FE;&#x5C42;_1" xmlns="http://www.w3.org/2000/svg" xmlns:xlink="http://www.w3.org/1999/xlink" x="0px"
	 y="0px" viewBox="0 0 24 24" style="enable-background:new 0 0 24 24;" xml:space="preserve">
<path style="fill:#333333;" d="M21,17.25H3c-0.689,0-1.25-0.561-1.25-1.25V6c0-0.689,0.561-1.25,1.25-1.25h18
	c0.689,0,1.25,0.561,1.25,1.25v10C22.25,16.689,21.689,17.25,21,17.25z M3,5.25C2.586,5.25,2.25,5.586,2.25,6v10
	c0,0.413,0.336,0.75,0.75,0.75h18c0.413,0,0.75-0.337,0.75-0.75V6c0-0.414-0.337-0.75-0.75-0.75H3z"/>
<rect x="6" y="9.25" style="fill:#333333;" width="3" height="0.5"/>
<rect x="6" y="12.25" style="fill:#333333;" width="2" height="0.5"/>
<rect x="6.75" y="17" style="fill:#333333;" width="0.5" height="3"/>
<rect x="16.75" y="17" style="fill:#333333;" width="0.5" height="3"/>
<path style="fill:#333333;" d="M15.5,13.75c-1.517,0-2.75-1.233-2.75-2.75s1.233-2.75,2.75-2.75s2.75,1.233,2.75,2.75
	S17.017,13.75,15.5,13.75z M15.5,8.75c-1.24,0-2.25,1.009-2.25,2.25c0,1.24,1.01,2.25,2.25,2.25s2.25-1.01,2.25-2.25
	C17.75,9.759,16.74,8.75,15.5,8.75z"/>
</svg>






