<?xml version="1.0" encoding="iso-8859-1"?>
<svg version="1.1" id="&#x56FE;&#x5C42;_1" xmlns="http://www.w3.org/2000/svg" xmlns:xlink="http://www.w3.org/1999/xlink" x="0px"
	 y="0px" viewBox="0 0 24 24" style="enable-background:new 0 0 24 24;" xml:space="preserve">
<path style="fill:none;" d="M3,19v-3h3h12h3v3h-3v-3H6v3H3z"/>
<path style="fill:#333333;" d="M21.25,19.25h-3.5v-3.5h3.5V19.25z M18.25,18.75h2.5v-2.5h-2.5V18.75z"/>
<path style="fill:#333333;" d="M6.25,19.25h-3.5v-3.5h3.5V19.25z M3.25,18.75h2.5v-2.5h-2.5V18.75z"/>
<polygon style="fill:#333333;" points="22.25,16.25 1.75,16.25 1.75,7.75 12,7.75 12,8.25 2.25,8.25 2.25,15.75 21.75,15.75 
	21.75,8.25 19,8.25 19,7.75 22.25,7.75 "/>
<rect x="5" y="11.75" style="fill:#333333;" width="4" height="0.5"/>
<path style="fill:#333333;" d="M15.5,11.75c-2.067,0-3.75-1.682-3.75-3.75s1.683-3.75,3.75-3.75S19.25,5.932,19.25,8
	S17.567,11.75,15.5,11.75z M15.5,4.75c-1.792,0-3.25,1.458-3.25,3.25s1.458,3.25,3.25,3.25S18.75,9.792,18.75,8
	S17.292,4.75,15.5,4.75z"/>
<path style="fill:#333333;" d="M15.5,9.5C16.328,9.5,17,8.828,17,8s-0.672-1.5-1.5-1.5C14.672,6.5,14,7.172,14,8
	S14.672,9.5,15.5,9.5z"/>
</svg>






