<?xml version="1.0" encoding="iso-8859-1"?>
<svg version="1.1" id="&#x56FE;&#x5C42;_1" xmlns="http://www.w3.org/2000/svg" xmlns:xlink="http://www.w3.org/1999/xlink" x="0px"
	 y="0px" viewBox="0 0 24 24" style="enable-background:new 0 0 24 24;" xml:space="preserve">
<polygon style="fill:#333333;" points="10.75,10.5 10.25,10.5 10.25,5.25 5.25,5.25 5.25,10.5 4.75,10.5 4.75,4.75 10.75,4.75 "/>
<path style="fill:#333333;" d="M21,18.75H3c-0.689,0-1.25-0.561-1.25-1.25v-6c0-0.689,0.561-1.25,1.25-1.25h18
	c0.689,0,1.25,0.561,1.25,1.25v6C22.25,18.189,21.689,18.75,21,18.75z M3,10.75c-0.414,0-0.75,0.336-0.75,0.75v6
	c0,0.413,0.336,0.75,0.75,0.75h18c0.413,0,0.75-0.337,0.75-0.75v-6c0-0.414-0.337-0.75-0.75-0.75H3z"/>
<path style="fill:#333333;" d="M8,13.5L8,13.5c0.552,0,1,0.448,1,1l0,0c0,0.552-0.448,1-1,1l0,0c-0.552,0-1-0.448-1-1l0,0
	C7,13.948,7.448,13.5,8,13.5z"/>
<rect x="14" y="14.25" style="fill:#333333;" width="4" height="0.5"/>
</svg>






