<?xml version="1.0" encoding="iso-8859-1"?>
<svg version="1.1" id="&#x56FE;&#x5C42;_1" xmlns="http://www.w3.org/2000/svg" xmlns:xlink="http://www.w3.org/1999/xlink" x="0px"
	 y="0px" viewBox="0 0 24 24" style="enable-background:new 0 0 24 24;" xml:space="preserve">
<path style="fill:#333333;" d="M21.25,12.25H2.75V12c0-4.825,4.149-8.75,9.25-8.75s9.25,3.925,9.25,8.75V12.25z M3.254,11.75h17.492
	c-0.141-4.434-4.01-8-8.746-8S3.395,7.316,3.254,11.75z"/>
<path style="fill:#333333;" d="M9.25,22.25c-1.654,0-3-1.336-3-2.978h0.5c0,1.366,1.122,2.478,2.5,2.478s2.5-1.111,2.5-2.478v-7.269
	h0.5v7.269C12.25,20.914,10.904,22.25,9.25,22.25z"/>
<rect x="11.75" y="2" style="fill:#333333;" width="0.5" height="1.5"/>
</svg>






