<?xml version="1.0" encoding="iso-8859-1"?>
<svg version="1.1" id="&#x56FE;&#x5C42;_1" xmlns="http://www.w3.org/2000/svg" xmlns:xlink="http://www.w3.org/1999/xlink" x="0px"
	 y="0px" viewBox="0 0 24 24" style="enable-background:new 0 0 24 24;" xml:space="preserve">
<path style="fill:#333333;" d="M18.5,22.25c-1.24,0-2.25-1.01-2.25-2.25s1.01-2.25,2.25-2.25s2.25,1.01,2.25,2.25
	S19.74,22.25,18.5,22.25z M18.5,18.25c-0.965,0-1.75,0.785-1.75,1.75s0.785,1.75,1.75,1.75s1.75-0.785,1.75-1.75
	S19.465,18.25,18.5,18.25z"/>
<path style="fill:#333333;" d="M5.5,6.25C4.259,6.25,3.25,5.241,3.25,4S4.259,1.75,5.5,1.75S7.75,2.759,7.75,4S6.741,6.25,5.5,6.25z
	 M5.5,2.25C4.535,2.25,3.75,3.035,3.75,4S4.535,5.75,5.5,5.75S7.25,4.965,7.25,4S6.465,2.25,5.5,2.25z"/>
<path style="fill:#333333;" d="M5.5,22.25c-1.241,0-2.25-1.01-2.25-2.25s1.009-2.25,2.25-2.25S7.75,18.76,7.75,20
	S6.741,22.25,5.5,22.25z M5.5,18.25c-0.965,0-1.75,0.785-1.75,1.75s0.785,1.75,1.75,1.75S7.25,20.965,7.25,20S6.465,18.25,5.5,18.25
	z"/>
<rect x="5.25" y="6" style="fill:#333333;" width="0.5" height="12"/>
<path style="fill:#333333;" d="M18.75,18h-0.5V7c0-0.965-0.785-1.75-1.75-1.75H12v-0.5h4.5c1.24,0,2.25,1.009,2.25,2.25V18z"/>
<polygon style="fill:#333333;" points="14.823,8.177 11.646,5 14.823,1.823 15.177,2.177 12.354,5 15.177,7.823 "/>
</svg>






