<?xml version="1.0" encoding="iso-8859-1"?>
<svg version="1.1" id="&#x56FE;&#x5C42;_1" xmlns="http://www.w3.org/2000/svg" xmlns:xlink="http://www.w3.org/1999/xlink" x="0px"
	 y="0px" viewBox="0 0 24 24" style="enable-background:new 0 0 24 24;" xml:space="preserve">
<path style="fill:#333333;" d="M15.5,20.25h-7c-3.722,0-6.75-3.028-6.75-6.75c0-3.722,3.028-6.75,6.75-6.75h7
	c3.722,0,6.75,3.028,6.75,6.75C22.25,17.222,19.222,20.25,15.5,20.25z M8.5,7.25c-3.446,0-6.25,2.804-6.25,6.25
	s2.804,6.25,6.25,6.25h7c3.446,0,6.25-2.804,6.25-6.25s-2.804-6.25-6.25-6.25H8.5z"/>
<path style="fill:#333333;" d="M12,20.25c-2.343,0-4.25-3.028-4.25-6.75c0-3.722,1.907-6.75,4.25-6.75c2.344,0,4.25,3.028,4.25,6.75
	C16.25,17.222,14.344,20.25,12,20.25z M12,7.25c-2.068,0-3.75,2.804-3.75,6.25s1.682,6.25,3.75,6.25c2.067,0,3.75-2.804,3.75-6.25
	S14.067,7.25,12,7.25z"/>
<path style="fill:#333333;" d="M12.25,7h-0.5V4.5c0-0.965,0.785-1.75,1.75-1.75H15v0.5h-1.5c-0.689,0-1.25,0.561-1.25,1.25V7z"/>
</svg>






