<?xml version="1.0" encoding="iso-8859-1"?>
<svg version="1.1" id="&#x56FE;&#x5C42;_1" xmlns="http://www.w3.org/2000/svg" xmlns:xlink="http://www.w3.org/1999/xlink" x="0px"
	 y="0px" viewBox="0 0 24 24" style="enable-background:new 0 0 24 24;" xml:space="preserve">
<path style="fill:#333333;" d="M5.599,20.729l-0.197-0.459c2.103-0.904,4.114-1.398,5.976-1.47c1.863-0.077,4.272,0.25,7.181,0.956
	l-0.117,0.486c-2.865-0.696-5.232-1.018-7.044-0.942C9.596,19.369,7.645,19.851,5.599,20.729z"/>
<path style="fill:#333333;" d="M11.273,22.021c-0.384-4.727-0.221-8.456,0.485-11.085l0.482,0.13
	c-0.691,2.574-0.849,6.246-0.47,10.915L11.273,22.021z"/>
<path style="fill:#333333;" d="M16.151,13.318c-1.386,0-2.821-0.509-4.293-1.525l-0.145-0.1l0.045-0.17
	c0.815-3.085,2.286-4.956,4.372-5.56c2.064-0.596,4.083-0.319,5.998,0.823l0.121,0.073l0.001,0.141
	c0.01,2.534-1.106,4.417-3.317,5.598C18.032,13.079,17.104,13.318,16.151,13.318z M12.288,11.481
	c2.292,1.532,4.389,1.753,6.409,0.676c2.022-1.079,3.021-2.72,3.052-5.012c-1.755-1.009-3.598-1.247-5.48-0.7
	C14.401,6.985,13.062,8.679,12.288,11.481z"/>
<path style="fill:#333333;" d="M8.714,11.854c-1.747,0-3.265-0.556-4.537-1.666c-2.004-1.75-2.772-4.355-2.282-7.744l0.023-0.159
	l0.154-0.045C4.882,1.408,7.392,1.752,9.535,3.26c2.157,1.519,3.035,4.151,2.609,7.826l-0.019,0.16l-0.153,0.049
	C10.812,11.668,9.725,11.854,8.714,11.854z M2.367,2.676C1.949,5.808,2.668,8.208,4.506,9.812c1.833,1.601,4.243,1.955,7.16,1.056
	c0.36-3.395-0.453-5.816-2.418-7.199C7.275,2.281,4.961,1.947,2.367,2.676z"/>
</svg>






