<?xml version="1.0" encoding="iso-8859-1"?>
<svg version="1.1" id="&#x56FE;&#x5C42;_1" xmlns="http://www.w3.org/2000/svg" xmlns:xlink="http://www.w3.org/1999/xlink" x="0px"
	 y="0px" viewBox="0 0 24 24" style="enable-background:new 0 0 24 24;" xml:space="preserve">
<path style="fill:#333333;" d="M17.25,22.25H1.75v-4.5H4c1.517,0,2.75-1.233,2.75-2.75S5.517,12.25,4,12.25H1.75v-6.5h4.5V5
	c0-1.792,1.458-3.25,3.25-3.25S12.75,3.208,12.75,5v0.75h4.5v6H19c1.792,0,3.25,1.458,3.25,3.25s-1.458,3.25-3.25,3.25h-1.75V22.25z
	 M2.25,21.75h14.5v-4H19c1.517,0,2.75-1.233,2.75-2.75s-1.233-2.75-2.75-2.75h-2.25v-6h-4.5V5c0-1.517-1.233-2.75-2.75-2.75
	S6.75,3.483,6.75,5v1.25h-4.5v5.5H4c1.792,0,3.25,1.458,3.25,3.25S5.792,18.25,4,18.25H2.25V21.75z"/>
</svg>






