<?xml version="1.0" encoding="iso-8859-1"?>
<svg version="1.1" id="&#x56FE;&#x5C42;_1" xmlns="http://www.w3.org/2000/svg" xmlns:xlink="http://www.w3.org/1999/xlink" x="0px"
	 y="0px" viewBox="0 0 24 24" style="enable-background:new 0 0 24 24;" xml:space="preserve">
<path style="fill:#333333;" d="M16.904,21.25H2.096L9.276,6.888h0.447L16.904,21.25z M2.904,20.75h13.191L9.5,7.559L2.904,20.75z"/>
<rect x="4.941" y="16.5" transform="matrix(0.4682 -0.8836 0.8836 0.4682 -9.6157 17.5238)" style="fill:#333333;" width="9.618" height="0.5"/>
<polygon style="fill:#333333;" points="21.75,21.25 16.5,21.25 16.5,20.75 21.306,20.75 17.508,14.495 15.468,18.123 15.032,17.877 
	17.492,13.505 21.964,20.87 "/>
<path style="fill:#333333;" d="M13.054,13.44l-0.123-0.484c2.976-0.756,4.781-3.792,4.025-6.768
	c-0.366-1.441-1.271-2.654-2.55-3.415c-1.279-0.76-2.778-0.977-4.218-0.611c-1.441,0.366-2.654,1.272-3.415,2.55
	C6.014,5.991,5.797,7.489,6.163,8.93c0.181,0.711,0.492,1.368,0.927,1.952l-0.401,0.299c-0.474-0.637-0.813-1.353-1.01-2.127
	C5.279,7.482,5.516,5.851,6.344,4.458s2.15-2.38,3.721-2.779c1.571-0.4,3.204-0.163,4.596,0.666c1.394,0.829,2.381,2.15,2.779,3.721
	C18.265,9.308,16.296,12.616,13.054,13.44z"/>
<rect x="5" y="20.75" style="fill:#333333;" width="5" height="0.5"/>
<rect x="12.25" y="10.205" transform="matrix(0.8944 -0.4472 0.4472 0.8944 -4.4944 6.9633)" style="fill:#333333;" width="0.5" height="5.59"/>
</svg>






