<?xml version="1.0" encoding="iso-8859-1"?>
<svg version="1.1" id="&#x56FE;&#x5C42;_1" xmlns="http://www.w3.org/2000/svg" xmlns:xlink="http://www.w3.org/1999/xlink" x="0px"
	 y="0px" viewBox="0 0 24 24" style="enable-background:new 0 0 24 24;" xml:space="preserve">
<path style="fill:#333333;" d="M19.706,20.25H3.5c-0.965,0-1.75-0.785-1.75-1.75v-13c0-0.965,0.785-1.75,1.75-1.75h10.519
	c0.695,0,1.325,0.412,1.604,1.048l5.688,13c0.237,0.543,0.186,1.164-0.14,1.66C20.847,19.954,20.299,20.25,19.706,20.25z M3.5,4.25
	c-0.689,0-1.25,0.561-1.25,1.25v13c0,0.689,0.561,1.25,1.25,1.25h16.206c0.424,0,0.814-0.212,1.047-0.566
	c0.231-0.354,0.269-0.797,0.099-1.185l-5.688-13c-0.199-0.455-0.648-0.749-1.146-0.749H3.5z"/>
</svg>






