<?xml version="1.0" encoding="iso-8859-1"?>
<svg version="1.1" id="&#x56FE;&#x5C42;_1" xmlns="http://www.w3.org/2000/svg" xmlns:xlink="http://www.w3.org/1999/xlink" x="0px"
	 y="0px" viewBox="0 0 24 24" style="enable-background:new 0 0 24 24;" xml:space="preserve">
<path style="fill:#333333;" d="M19.186,22.75H4.814L0.772,9.349L12,1.191l11.229,8.158l-0.052,0.17L19.186,22.75z M5.186,22.25
	h13.629l3.832-12.706L12,1.809L1.354,9.544L5.186,22.25z"/>
<rect x="16.999" y="17.842" transform="matrix(0.7526 -0.6585 0.6585 0.7526 -9.2313 16.4314)" style="fill:#333333;" width="0.501" height="5.315"/>
<polygon style="fill:#333333;" points="5.188,22.665 4.812,22.335 8.312,18.335 8.688,18.665 "/>
<rect x="3.25" y="7.64" transform="matrix(0.2873 -0.9578 0.9578 0.2873 -7.3234 10.6571)" style="fill:#333333;" width="0.5" height="5.22"/>
<polygon style="fill:#333333;" points="18.072,11.239 17.928,10.761 22.928,9.261 23.072,9.739 "/>
<rect x="11.75" y="1.5" style="fill:#333333;" width="0.5" height="5"/>
<path style="fill:#333333;" d="M15.681,18.75H8.32l-2.614-7.843l3.143-2.323L12,6.186l3.155,2.4l3.14,2.32L15.681,18.75z
	 M8.68,18.25h6.639l2.386-7.157l-2.85-2.107L12,6.814l-2.852,2.17l-2.854,2.109L8.68,18.25z"/>
<polygon style="fill:#333333;" points="1.808,12.782 0.772,9.349 3.65,7.257 3.944,7.662 1.354,9.544 2.286,12.638 "/>
<polygon style="fill:#333333;" points="8.5,22.75 4.814,22.75 3.776,19.309 4.255,19.164 5.186,22.25 8.5,22.25 "/>
<polygon style="fill:#333333;" points="19.186,22.75 15.5,22.75 15.5,22.25 18.814,22.25 19.745,19.164 20.224,19.309 "/>
<polygon style="fill:#333333;" points="22.192,12.782 21.714,12.638 22.646,9.544 20.056,7.662 20.351,7.257 23.228,9.349 "/>
<polygon style="fill:#333333;" points="14.588,3.689 12,1.809 9.413,3.689 9.119,3.285 12,1.191 14.881,3.285 "/>
</svg>






