<?xml version="1.0" encoding="iso-8859-1"?>
<svg version="1.1" id="&#x56FE;&#x5C42;_1" xmlns="http://www.w3.org/2000/svg" xmlns:xlink="http://www.w3.org/1999/xlink" x="0px"
	 y="0px" viewBox="0 0 24 24" style="enable-background:new 0 0 24 24;" xml:space="preserve">
<path style="fill:#333333;" d="M17,22.25H7c-0.689,0-1.25-0.561-1.25-1.249V10.844C5.75,7.37,8.437,4.75,12,4.75
	c3.563,0,6.25,2.62,6.25,6.094v10.157C18.25,21.689,17.689,22.25,17,22.25z M12,5.25c-3.278,0-5.75,2.405-5.75,5.594v10.157
	c0,0.413,0.336,0.749,0.75,0.749h10c0.413,0,0.75-0.336,0.75-0.749V10.844C17.75,7.655,15.278,5.25,12,5.25z"/>
<path style="fill:#333333;" d="M12,13.75c-1.241,0-2.25-1.01-2.25-2.25c0-1.241,1.009-2.25,2.25-2.25c1.24,0,2.25,1.009,2.25,2.25
	C14.25,12.74,13.24,13.75,12,13.75z M12,9.75c-0.965,0-1.75,0.785-1.75,1.75s0.785,1.75,1.75,1.75s1.75-0.785,1.75-1.75
	S12.965,9.75,12,9.75z"/>
<rect x="9" y="16.75" style="fill:#333333;" width="1" height="0.5"/>
<rect x="13" y="18.75" style="fill:#333333;" width="2" height="0.5"/>
<rect x="5.75" y="2" style="fill:#333333;" width="0.5" height="8"/>
</svg>






