<?xml version="1.0" encoding="iso-8859-1"?>
<svg version="1.1" id="&#x56FE;&#x5C42;_1" xmlns="http://www.w3.org/2000/svg" xmlns:xlink="http://www.w3.org/1999/xlink" x="0px"
	 y="0px" viewBox="0 0 24 24" style="enable-background:new 0 0 24 24;" xml:space="preserve">
<path style="fill:#333333;" d="M12.002,13.5c0.828,0,1.5-0.672,1.5-1.5s-0.672-1.5-1.5-1.5c-0.828,0-1.5,0.672-1.5,1.5
	S11.174,13.5,12.002,13.5z"/>
<path style="fill:#333333;" d="M12,22.25c-2.019,0-3.972-0.588-5.649-1.7l-0.208-0.138l3.306-5.021l0.209,0.139
	c1.39,0.922,3.294,0.922,4.683,0l0.21-0.139l3.306,5.021l-0.208,0.138C15.972,21.662,14.019,22.25,12,22.25z M6.837,20.269
	c1.547,0.97,3.327,1.481,5.163,1.481c1.837,0,3.616-0.512,5.163-1.481l-2.758-4.188c-1.455,0.857-3.355,0.857-4.811,0L6.837,20.269z
	 M22.217,12.837l-5.987-0.36l0.013-0.248c0.005-0.085,0.008-0.171,0.008-0.257c0-1.625-0.9-3.086-2.35-3.813l-0.223-0.112
	l2.683-5.382l0.225,0.112c3.494,1.756,5.665,5.279,5.665,9.195c0,0.207-0.006,0.412-0.018,0.615L22.217,12.837z M16.75,12.007
	l4.994,0.301c0.004-0.111,0.006-0.224,0.006-0.336c0-3.642-1.974-6.927-5.167-8.633l-2.238,4.49c1.49,0.847,2.405,2.412,2.405,4.143
	C16.75,11.983,16.75,11.996,16.75,12.007z M1.783,12.837l-0.015-0.25c-0.012-0.203-0.018-0.408-0.018-0.615
	c0-3.917,2.17-7.44,5.665-9.195l0.224-0.112l2.684,5.382L10.1,8.158c-1.449,0.728-2.35,2.189-2.35,3.813
	c0,0.086,0.002,0.171,0.007,0.256l0.015,0.249L1.783,12.837z M7.417,3.339C4.223,5.044,2.25,8.33,2.25,11.972
	c0,0.112,0.002,0.225,0.005,0.336l4.995-0.301c0-0.011,0-0.023,0-0.035c0-1.731,0.916-3.296,2.405-4.143L7.417,3.339z"/>
</svg>






