<?xml version="1.0" encoding="iso-8859-1"?>
<svg version="1.1" id="&#x56FE;&#x5C42;_1" xmlns="http://www.w3.org/2000/svg" xmlns:xlink="http://www.w3.org/1999/xlink" x="0px"
	 y="0px" viewBox="0 0 24 24" style="enable-background:new 0 0 24 24;" xml:space="preserve">
<path style="fill:#333333;" d="M19,11.25v-0.5c0.677,0,2.25-0.122,2.25-1.25c0-0.921-0.524-1.431-1.812-1.758l0.123-0.484
	C20.58,7.517,21.75,8.005,21.75,9.5C21.75,10.612,20.748,11.25,19,11.25z"/>
<path style="fill:#333333;" d="M13.25,5h-0.5c0-1.593,0.946-2.75,2.25-2.75c1.159,0,1.743,0.434,2.232,1.657l-0.465,0.186
	C16.309,2.944,15.852,2.75,15,2.75C13.986,2.75,13.25,3.696,13.25,5z"/>
<path style="fill:#333333;" d="M18.101,8.729l-0.204-0.457c0.007-0.003,0.614-0.281,1.362-1.029c0.695-0.695,0.695-1.826,0-2.521
	c-0.57-0.571-1.67-0.559-2.559,0.031c-0.432,0.287-0.848,1.071-0.972,1.349l-0.457-0.204c0.021-0.046,0.513-1.137,1.151-1.562
	c1.083-0.718,2.453-0.705,3.189,0.032c0.89,0.89,0.89,2.338,0,3.228C18.793,8.416,18.129,8.716,18.101,8.729z"/>
<path style="fill:#333333;" d="M10.901,21.75c-1.21,0-2.388-0.264-3.502-0.784c-1.265,0.252-4.051,0.735-4.576,0.211
	c-0.525-0.525-0.043-3.322,0.209-4.592c-1.507-3.191-0.777-7.194,1.791-9.762c1.581-1.581,3.698-2.417,6.121-2.417l0,0
	c2.31,0,4.35,0.902,6.062,2.683c1.737,1.805,2.547,3.721,2.547,6.029c0,2.409-0.822,4.505-2.377,6.059
	C15.522,20.789,13.178,21.75,10.901,21.75z M7.463,20.442l0.076,0.036c1.069,0.512,2.2,0.771,3.362,0.771
	c2.117,0,4.387-0.931,5.924-2.429c1.457-1.456,2.229-3.429,2.229-5.703c0-2.171-0.765-3.977-2.406-5.683
	c-1.639-1.702-3.504-2.529-5.703-2.529c-2.288,0-4.282,0.785-5.767,2.271c-2.44,2.44-3.122,6.251-1.658,9.266l0.037,0.076
	L3.54,16.601c-0.366,1.821-0.599,3.953-0.362,4.224c0.27,0.234,2.391,0.002,4.204-0.365L7.463,20.442z"/>
<path style="fill:#333333;" d="M5.776,15.611c-0.9-1.802-3.133-1.386-3.228-1.366l-0.098-0.49c0.025-0.007,2.699-0.513,3.772,1.634
	L5.776,15.611z"/>
<path style="fill:#333333;" d="M9.243,21.061l-0.485-0.121c0.005-0.019,0.453-1.876-0.434-2.763l0.354-0.354
	C9.764,18.911,9.264,20.974,9.243,21.061z"/>
<path style="fill:#333333;" d="M10.901,21.75c-1.24,0-2.444-0.276-3.579-0.82l0.217-0.451c1.066,0.512,2.197,0.771,3.362,0.771
	V21.75z"/>
<path style="fill:#333333;" d="M3.069,16.661c-1.556-3.204-0.834-7.249,1.754-9.838l0.354,0.354c-2.44,2.44-3.122,6.251-1.658,9.266
	L3.069,16.661z"/>
</svg>






