<?xml version="1.0" encoding="iso-8859-1"?>
<svg version="1.1" id="&#x56FE;&#x5C42;_1" xmlns="http://www.w3.org/2000/svg" xmlns:xlink="http://www.w3.org/1999/xlink" x="0px"
	 y="0px" viewBox="0 0 24 24" style="enable-background:new 0 0 24 24;" xml:space="preserve">
<path style="fill:#333333;" d="M20.5,21.25h-17c-0.689,0-1.25-0.561-1.25-1.25V8c0-0.689,0.561-1.25,1.25-1.25h17
	c0.689,0,1.25,0.561,1.25,1.25v12C21.75,20.689,21.189,21.25,20.5,21.25z M3.5,7.25C3.086,7.25,2.75,7.586,2.75,8v12
	c0,0.413,0.336,0.75,0.75,0.75h17c0.413,0,0.75-0.337,0.75-0.75V8c0-0.414-0.337-0.75-0.75-0.75H3.5z"/>
<rect x="16" y="10.75" style="fill:#333333;" width="2" height="0.5"/>
<rect x="16" y="13.75" style="fill:#333333;" width="2" height="0.5"/>
<rect x="16" y="16.75" style="fill:#333333;" width="2" height="0.5"/>
<path style="fill:#333333;" d="M9,17.75c-2.068,0-3.75-1.683-3.75-3.75c0-2.068,1.682-3.75,3.75-3.75s3.75,1.682,3.75,3.75
	C12.75,16.067,11.068,17.75,9,17.75z M9,10.75c-1.792,0-3.25,1.458-3.25,3.25S7.208,17.25,9,17.25s3.25-1.458,3.25-3.25
	S10.792,10.75,9,10.75z"/>
<polygon style="fill:#333333;" points="19.25,7 18.75,7 18.75,3.25 5.25,3.25 5.25,7 4.75,7 4.75,2.75 19.25,2.75 "/>
</svg>






