<?xml version="1.0" encoding="iso-8859-1"?>
<svg version="1.1" id="&#x56FE;&#x5C42;_1" xmlns="http://www.w3.org/2000/svg" xmlns:xlink="http://www.w3.org/1999/xlink" x="0px"
	 y="0px" viewBox="0 0 24 24" style="enable-background:new 0 0 24 24;" xml:space="preserve">
<path style="fill:#333333;" d="M12,22.34l-0.169-0.156C11.562,21.936,5.25,16.059,5.25,11.6c0-3.777,3.028-6.85,6.75-6.85
	c3.722,0,6.75,3.073,6.75,6.85c0,4.458-6.312,10.335-6.58,10.583L12,22.34z M12,5.25c-3.446,0-6.25,2.849-6.25,6.35
	c0,3.849,5.233,9.076,6.25,10.055c1.017-0.979,6.25-6.208,6.25-10.055C18.25,8.099,15.446,5.25,12,5.25z"/>
<rect x="11.75" y="2" style="fill:#333333;" width="0.5" height="3"/>
<rect x="9.75" y="2.149" transform="matrix(0.7809 -0.6247 0.6247 0.7809 -0.1513 7.0687)" style="fill:#333333;" width="0.5" height="3.202"/>
<rect x="12.399" y="3.5" transform="matrix(0.6247 -0.7809 0.7809 0.6247 2.326 12.3396)" style="fill:#333333;" width="3.202" height="0.5"/>
<rect x="6" y="9.75" style="fill:#333333;" width="4" height="0.5"/>
<rect x="14.5" y="13.25" style="fill:#333333;" width="3.5" height="0.5"/>
<rect x="8" y="16.75" style="fill:#333333;" width="3" height="0.5"/>
<path style="fill:#333333;" d="M9.813,20.1c-2.082-2.334-4.563-5.703-4.563-8.5c0-1.562,0.504-3.033,1.459-4.254l0.394,0.308
	C6.218,8.787,5.75,10.151,5.75,11.6c0,2.778,2.78,6.309,4.437,8.167L9.813,20.1z"/>
<path style="fill:#333333;" d="M17.184,16.129l-0.428-0.258c0.991-1.645,1.494-3.081,1.494-4.271h0.5
	C18.75,12.883,18.223,14.406,17.184,16.129z"/>
</svg>






