<?xml version="1.0" encoding="iso-8859-1"?>
<svg version="1.1" id="&#x56FE;&#x5C42;_1" xmlns="http://www.w3.org/2000/svg" xmlns:xlink="http://www.w3.org/1999/xlink" x="0px"
	 y="0px" viewBox="0 0 24 24" style="enable-background:new 0 0 24 24;" xml:space="preserve">
<path style="fill:#333333;" d="M17,16.25H7c-0.689,0-1.25-0.561-1.25-1.25V3c0-0.689,0.561-1.25,1.25-1.25h10
	c0.689,0,1.25,0.561,1.25,1.25v12C18.25,15.689,17.689,16.25,17,16.25z M7,2.25C6.586,2.25,6.25,2.586,6.25,3v12
	c0,0.413,0.336,0.75,0.75,0.75h10c0.413,0,0.75-0.337,0.75-0.75V3c0-0.414-0.337-0.75-0.75-0.75H7z"/>
<circle style="fill:#333333;" cx="9" cy="13" r="1"/>
<circle style="fill:#333333;" cx="15" cy="13" r="1"/>
<rect x="6" y="9.75" style="fill:#333333;" width="12" height="0.5"/>
<rect x="10.5" y="18.75" style="fill:#333333;" width="3" height="0.5"/>
<rect x="9" y="21.75" style="fill:#333333;" width="6" height="0.5"/>
<polygon style="fill:#333333;" points="5.724,22.111 5.276,21.889 8.276,15.889 8.724,16.111 "/>
<polygon style="fill:#333333;" points="18.276,22.111 15.276,16.111 15.724,15.889 18.724,21.889 "/>
<rect x="17.75" y="7.5" style="fill:#333333;" width="0.5" height="5"/>
<rect x="5.75" y="7.5" style="fill:#333333;" width="0.5" height="5"/>
</svg>






