<?xml version="1.0" encoding="iso-8859-1"?>
<svg version="1.1" id="&#x56FE;&#x5C42;_1" xmlns="http://www.w3.org/2000/svg" xmlns:xlink="http://www.w3.org/1999/xlink" x="0px"
	 y="0px" viewBox="0 0 24 24" style="enable-background:new 0 0 24 24;" xml:space="preserve">
<g>
	<defs>
		<rect id="SVGID_1_" width="24" height="24"/>
	</defs>
	<clipPath id="SVGID_00000004528196356324575240000014510519183598802064_">
		<use xlink:href="#SVGID_1_"  style="overflow:visible;"/>
	</clipPath>
	<g style="clip-path:url(#SVGID_00000004528196356324575240000014510519183598802064_);">
		<path style="fill:#333333;" d="M14.727,14.241c-1.305,0.001-2.616-0.439-3.691-1.342c-2.429-2.038-2.747-5.672-0.708-8.101
			C11.314,3.622,12.7,2.9,14.23,2.766c1.538-0.13,3.021,0.337,4.197,1.324c2.429,2.038,2.747,5.671,0.709,8.101
			C18.001,13.544,16.369,14.241,14.727,14.241z M14.741,3.244c-0.155,0-0.311,0.007-0.467,0.021
			c-1.397,0.122-2.663,0.781-3.564,1.855c-1.861,2.218-1.571,5.536,0.647,7.397c2.218,1.86,5.536,1.568,7.397-0.648
			c1.86-2.217,1.569-5.535-0.648-7.396l0,0C17.152,3.672,15.972,3.244,14.741,3.244z"/>
		<path style="fill:#333333;" d="M18.99,11.906c-0.812,0-3.133-0.182-5.384-2.071c-2.729-2.29-3.005-5.118-3.016-5.237l0.498-0.044
			c0.002,0.027,0.276,2.747,2.84,4.898c2.564,2.151,5.294,1.947,5.316,1.945l0.043,0.498C19.268,11.897,19.163,11.906,18.99,11.906z
			"/>
		<path style="fill:#333333;" d="M6.412,21.269c-0.613,0-1.238-0.234-1.804-0.709c-1.26-1.058-1.396-2.614-0.339-3.875
			c0.533-0.636,1.219-1.017,1.882-1.386c0.566-0.315,1.101-0.613,1.455-1.035c0.802-0.955,1.558-1.857,1.748-3.573l0.497,0.055
			c-0.207,1.867-1.048,2.87-1.861,3.84c-0.414,0.492-0.988,0.812-1.595,1.15c-0.624,0.347-1.269,0.706-1.743,1.271
			c-0.878,1.047-0.77,2.291,0.277,3.17s2.291,0.77,3.17-0.278c0.475-0.564,0.716-1.262,0.949-1.937
			c0.228-0.657,0.443-1.277,0.856-1.771c0.814-0.97,1.656-1.973,3.458-2.5l0.141,0.48c-1.657,0.484-2.414,1.386-3.215,2.341
			c-0.354,0.422-0.555,1.001-0.767,1.613c-0.249,0.717-0.505,1.459-1.039,2.095C7.899,20.915,7.165,21.269,6.412,21.269z"/>
		<path style="fill:#333333;" d="M19.607,5.406l-0.383-0.321c0.442-0.528,0.373-1.318-0.154-1.761
			c-0.255-0.214-0.581-0.312-0.912-0.288c-0.333,0.029-0.634,0.186-0.849,0.442l-0.383-0.321c0.62-0.74,1.726-0.836,2.465-0.216
			S20.228,4.667,19.607,5.406z"/>
	</g>
</g>
</svg>






