<?xml version="1.0" encoding="iso-8859-1"?>
<svg version="1.1" id="&#x56FE;&#x5C42;_1" xmlns="http://www.w3.org/2000/svg" xmlns:xlink="http://www.w3.org/1999/xlink" x="0px"
	 y="0px" viewBox="0 0 24 24" style="enable-background:new 0 0 24 24;" xml:space="preserve">
<path style="fill:#333333;" d="M20.5,12.75h-17c-0.689,0-1.25-0.561-1.25-1.25v-8c0-0.689,0.561-1.25,1.25-1.25h17
	c0.689,0,1.25,0.561,1.25,1.25v8C21.75,12.189,21.189,12.75,20.5,12.75z M3.5,2.75c-0.414,0-0.75,0.336-0.75,0.75v8
	c0,0.414,0.336,0.75,0.75,0.75h17c0.413,0,0.75-0.336,0.75-0.75v-8c0-0.414-0.337-0.75-0.75-0.75H3.5z"/>
<rect x="6.75" y="2.5" style="fill:#333333;" width="0.5" height="10"/>
<rect x="16.75" y="2.5" style="fill:#333333;" width="0.5" height="10"/>
<rect x="15" y="2.25" style="fill:#333333;" width="4" height="0.5"/>
<rect x="2.5" y="5.25" style="fill:#333333;" width="19" height="0.5"/>
<rect x="2.5" y="9.25" style="fill:#333333;" width="19" height="0.5"/>
<rect x="2.25" y="4.5" style="fill:#333333;" width="0.5" height="6"/>
<rect x="21.25" y="4.5" style="fill:#333333;" width="0.5" height="6"/>
<rect x="5" y="2.25" style="fill:#333333;" width="4" height="0.5"/>
<rect x="15" y="12.25" style="fill:#333333;" width="4" height="0.5"/>
<rect x="5" y="12.25" style="fill:#333333;" width="4" height="0.5"/>
<path style="fill:#333333;" d="M12,16.75c-2.343,0-4.25-1.906-4.25-4.25h0.5c0,2.067,1.682,3.75,3.75,3.75
	c2.067,0,3.75-1.683,3.75-3.75h0.5C16.25,14.844,14.344,16.75,12,16.75z"/>
<polygon style="fill:#333333;" points="13.75,22 13.25,22 13.25,18.5 13.755,15.951 14.245,16.049 13.745,18.549 "/>
<polygon style="fill:#333333;" points="10.75,22 10.25,22 10.25,18.5 9.755,16.049 10.245,15.951 10.745,18.451 "/>
</svg>






