<?xml version="1.0" encoding="iso-8859-1"?>
<svg version="1.1" id="&#x56FE;&#x5C42;_1" xmlns="http://www.w3.org/2000/svg" xmlns:xlink="http://www.w3.org/1999/xlink" x="0px"
	 y="0px" viewBox="0 0 24 24" style="enable-background:new 0 0 24 24;" xml:space="preserve">
<path style="fill:#333333;" d="M11.807,22.159C10.236,20.25,5.166,20.25,3,20.25H2.75V8.75H3c4.931,0,8.12,1,9.117,1.529l0.133,0.07
	V22L11.807,22.159z M3.25,19.75c2.312,0.002,6.549,0.06,8.5,1.653V10.654c-1.071-0.512-4.012-1.373-8.5-1.403V19.75z"/>
<path style="fill:#333333;" d="M12.193,22.159L11.75,22V10.35l0.133-0.07C12.88,9.75,16.068,8.75,21,8.75h0.25v11.5H21
	C18.835,20.25,13.764,20.25,12.193,22.159z M12.25,10.654v10.749c1.95-1.594,6.188-1.651,8.5-1.653V9.251
	C16.262,9.282,13.32,10.142,12.25,10.654z"/>
<path style="fill:#333333;" d="M12,10.25c-2.343,0-4.25-1.907-4.25-4.25S9.657,1.75,12,1.75c2.344,0,4.25,1.907,4.25,4.25
	S14.344,10.25,12,10.25z M12,2.25C9.932,2.25,8.25,3.932,8.25,6S9.932,9.75,12,9.75c2.067,0,3.75-1.682,3.75-3.75
	S14.067,2.25,12,2.25z"/>
</svg>






