<?xml version="1.0" encoding="iso-8859-1"?>
<svg version="1.1" id="&#x56FE;&#x5C42;_1" xmlns="http://www.w3.org/2000/svg" xmlns:xlink="http://www.w3.org/1999/xlink" x="0px"
	 y="0px" viewBox="0 0 24 24" style="enable-background:new 0 0 24 24;" xml:space="preserve">
<polygon style="fill:#333333;" points="21.25,15.25 2.75,15.25 2.75,2.5 3.25,2.5 3.25,14.75 20.75,14.75 20.75,2.5 21.25,2.5 "/>
<polygon style="fill:#333333;" points="12,21.854 8.823,18.677 9.177,18.323 12,21.146 14.823,18.323 15.177,18.677 "/>
<rect x="11.75" y="15" style="fill:#333333;" width="0.5" height="6.5"/>
<path style="fill:#333333;" d="M12,10.75c-2.094,0-4.01-1.04-5.693-3.091L6.177,7.5l0.13-0.159C7.99,5.29,9.906,4.25,12,4.25
	c2.094,0,4.01,1.04,5.693,3.091l0.13,0.159l-0.13,0.159C16.01,9.71,14.094,10.75,12,10.75z M6.826,7.5
	c1.551,1.825,3.291,2.75,5.174,2.75c1.884,0,3.623-0.925,5.174-2.75C15.623,5.675,13.884,4.75,12,4.75
	C10.117,4.75,8.376,5.675,6.826,7.5z"/>
<path style="fill:#333333;" d="M12,9c0.828,0,1.5-0.672,1.5-1.5S12.828,6,12,6s-1.5,0.672-1.5,1.5S11.172,9,12,9z"/>
</svg>






