<?xml version="1.0" encoding="iso-8859-1"?>
<svg version="1.1" id="&#x56FE;&#x5C42;_1" xmlns="http://www.w3.org/2000/svg" xmlns:xlink="http://www.w3.org/1999/xlink" x="0px"
	 y="0px" viewBox="0 0 24 24" style="enable-background:new 0 0 24 24;" xml:space="preserve">
<path style="fill:#333333;" d="M18.212,21.25H5.789c-0.58,0-1.08-0.394-1.216-0.958l-2.52-10.5c-0.09-0.375-0.004-0.763,0.234-1.065
	C2.525,8.423,2.883,8.25,3.269,8.25h17.463c0.385,0,0.742,0.173,0.981,0.476c0.238,0.303,0.324,0.691,0.234,1.066l-2.521,10.5
	C19.292,20.855,18.792,21.25,18.212,21.25z M2.539,9.675l2.52,10.5C5.14,20.514,5.44,20.75,5.789,20.75h12.423
	c0.348,0,0.647-0.236,0.729-0.575l2.521-10.5c0.054-0.225,0.003-0.458-0.141-0.639S20.963,8.75,20.731,8.75H3.269
	c-0.231,0-0.446,0.104-0.589,0.286S2.485,9.45,2.539,9.675L2.539,9.675z"/>
<path style="fill:#333333;" d="M9.75,8.75h-4.5v-5.5h4.5V8.75z M5.75,8.25h3.5v-4.5h-3.5V8.25z"/>
<polygon style="fill:#333333;" points="18.854,8.703 12.807,4.349 9.703,8.646 9.297,8.354 12.693,3.651 19.146,8.297 "/>
<rect x="7.5" y="12.25" style="fill:#333333;" width="4" height="0.5"/>
</svg>






