<?xml version="1.0" encoding="iso-8859-1"?>
<svg version="1.1" id="&#x56FE;&#x5C42;_1" xmlns="http://www.w3.org/2000/svg" xmlns:xlink="http://www.w3.org/1999/xlink" x="0px"
	 y="0px" viewBox="0 0 24 24" style="enable-background:new 0 0 24 24;" xml:space="preserve">
<path style="fill:#333333;" d="M12,22.245c-2.625,0-5.25-0.999-7.248-2.997l0,0c-3.996-3.996-3.996-10.5,0-14.496l0.177-0.177
	l14.496,14.496l-0.177,0.177C17.25,21.246,14.625,22.245,12,22.245z M5.105,18.895c3.743,3.741,9.796,3.801,13.61,0.175L4.931,5.285
	C1.306,9.099,1.364,15.152,5.105,18.895L5.105,18.895z"/>
<rect x="12.615" y="11.204" transform="matrix(0.2343 -0.9722 0.9722 0.2343 2.853 26.5293)" style="fill:#333333;" width="11.305" height="0.5"/>
<rect x="10.636" y="8.457" transform="matrix(0.7071 -0.7071 0.7071 0.7071 -1.6776 13.364)" style="fill:#333333;" width="9.314" height="0.5"/>
<rect x="6.895" y="5.483" transform="matrix(0.9726 -0.2324 0.2324 0.9726 -0.9888 3.073)" style="fill:#333333;" width="11.304" height="0.5"/>
<path style="fill:#333333;" d="M20,6.25c-0.158,0-0.315-0.016-0.467-0.048c-0.427-0.09-0.815-0.301-1.124-0.611
	c-0.309-0.309-0.521-0.697-0.61-1.124C17.767,4.315,17.75,4.158,17.75,4c0-1.241,1.01-2.25,2.25-2.25S22.25,2.759,22.25,4
	S21.24,6.25,20,6.25z M20,2.25c-0.965,0-1.75,0.785-1.75,1.75c0,0.124,0.013,0.246,0.037,0.363c0.071,0.332,0.235,0.634,0.476,0.874
	c0.24,0.241,0.543,0.405,0.874,0.475C19.755,5.737,19.877,5.75,20,5.75c0.965,0,1.75-0.785,1.75-1.75S20.965,2.25,20,2.25z"/>
</svg>






