<?xml version="1.0" encoding="iso-8859-1"?>
<svg version="1.1" id="&#x56FE;&#x5C42;_1" xmlns="http://www.w3.org/2000/svg" xmlns:xlink="http://www.w3.org/1999/xlink" x="0px"
	 y="0px" viewBox="0 0 24 24" style="enable-background:new 0 0 24 24;" xml:space="preserve">
<path style="fill:#333333;" d="M20.5,21.25h-17c-0.689,0-1.25-0.561-1.25-1.25V10c0-0.689,0.561-1.25,1.25-1.25h17
	c0.689,0,1.25,0.561,1.25,1.25v10C21.75,20.689,21.189,21.25,20.5,21.25z M3.5,9.25c-0.414,0-0.75,0.336-0.75,0.75v10
	c0,0.413,0.336,0.75,0.75,0.75h17c0.413,0,0.75-0.337,0.75-0.75V10c0-0.414-0.337-0.75-0.75-0.75H3.5z"/>
<rect x="4" y="5.75" style="fill:#333333;" width="16" height="0.5"/>
<rect x="7.5" y="2.75" style="fill:#333333;" width="9" height="0.5"/>
<rect x="12.75" y="12" style="fill:#333333;" width="0.5" height="3"/>
<path style="fill:#333333;" d="M11.56,18.25h-1.12c-0.932,0-1.69-0.729-1.69-1.625v-0.25c0-0.896,0.758-1.625,1.69-1.625h2.81v1.875
	C13.25,17.521,12.492,18.25,11.56,18.25z M10.44,15.25c-0.656,0-1.19,0.505-1.19,1.125v0.25c0,0.62,0.534,1.125,1.19,1.125h1.12
	c0.656,0,1.19-0.505,1.19-1.125V15.25H10.44z"/>
<rect x="14" y="10.975" transform="matrix(0.1961 -0.9806 0.9806 0.1961 -0.5568 23.8209)" style="fill:#333333;" width="0.5" height="2.55"/>
</svg>






