<?xml version="1.0" encoding="iso-8859-1"?>
<svg version="1.1" id="&#x56FE;&#x5C42;_1" xmlns="http://www.w3.org/2000/svg" xmlns:xlink="http://www.w3.org/1999/xlink" x="0px"
	 y="0px" viewBox="0 0 24 24" style="enable-background:new 0 0 24 24;" xml:space="preserve">
<path style="fill:#333333;" d="M20.5,20.25h-17c-0.689,0-1.25-0.561-1.25-1.25V5c0-0.689,0.561-1.25,1.25-1.25h17
	c0.689,0,1.25,0.561,1.25,1.25v14C21.75,19.689,21.189,20.25,20.5,20.25z M3.5,4.25C3.086,4.25,2.75,4.586,2.75,5v14
	c0,0.413,0.336,0.75,0.75,0.75h17c0.413,0,0.75-0.337,0.75-0.75V5c0-0.414-0.337-0.75-0.75-0.75H3.5z"/>
<rect x="6.25" y="4" style="fill:#333333;" width="0.5" height="16"/>
<path style="fill:#333333;" d="M14,16.75c-2.619,0-4.75-2.131-4.75-4.75S11.381,7.25,14,7.25s4.75,2.131,4.75,4.75
	S16.619,16.75,14,16.75z M14,7.75c-2.343,0-4.25,1.907-4.25,4.25c0,2.344,1.907,4.25,4.25,4.25c2.344,0,4.25-1.906,4.25-4.25
	C18.25,9.657,16.344,7.75,14,7.75z"/>
<circle style="fill:#333333;" cx="14" cy="12" r="1.5"/>
<rect x="2.5" y="7.75" style="fill:#333333;" width="4" height="0.5"/>
<rect x="2.5" y="11.75" style="fill:#333333;" width="4" height="0.5"/>
<rect x="2.5" y="15.75" style="fill:#333333;" width="4" height="0.5"/>
</svg>






