<?xml version="1.0" encoding="iso-8859-1"?>
<svg version="1.1" id="&#x56FE;&#x5C42;_1" xmlns="http://www.w3.org/2000/svg" xmlns:xlink="http://www.w3.org/1999/xlink" x="0px"
	 y="0px" viewBox="0 0 24 24" style="enable-background:new 0 0 24 24;" xml:space="preserve">
<path style="fill:#333333;" d="M20,21.25H4c-0.689,0-1.25-0.561-1.25-1.25V4c0-0.689,0.561-1.25,1.25-1.25h16
	c0.689,0,1.25,0.561,1.25,1.25v16C21.25,20.689,20.689,21.25,20,21.25z M4,3.25C3.586,3.25,3.25,3.586,3.25,4v16
	c0,0.413,0.336,0.75,0.75,0.75h16c0.413,0,0.75-0.337,0.75-0.75V4c0-0.414-0.337-0.75-0.75-0.75H4z"/>
<polygon style="fill:#333333;" points="13.323,21.177 10.146,18 13.146,15 10.146,12 13.146,9 10.146,6 13.323,2.823 13.677,3.177 
	10.854,6 13.854,9 10.854,12 13.854,15 10.854,18 13.677,20.823 "/>
<rect x="9" y="2.75" style="fill:#333333;" width="8" height="0.5"/>
<rect x="9" y="20.75" style="fill:#333333;" width="8" height="0.5"/>
</svg>






