<?xml version="1.0" encoding="iso-8859-1"?>
<svg version="1.1" id="&#x56FE;&#x5C42;_1" xmlns="http://www.w3.org/2000/svg" xmlns:xlink="http://www.w3.org/1999/xlink" x="0px"
	 y="0px" viewBox="0 0 24 24" style="enable-background:new 0 0 24 24;" xml:space="preserve">
<path style="fill:#333333;" d="M18,17.25H6c-0.689,0-1.25-0.561-1.25-1.25V8c0-0.689,0.561-1.25,1.25-1.25h12
	c0.689,0,1.25,0.561,1.25,1.25v8C19.25,16.689,18.689,17.25,18,17.25z M6,7.25C5.586,7.25,5.25,7.586,5.25,8v8
	c0,0.413,0.336,0.75,0.75,0.75h12c0.413,0,0.75-0.337,0.75-0.75V8c0-0.414-0.337-0.75-0.75-0.75H6z"/>
</svg>






