<?xml version="1.0" encoding="iso-8859-1"?>
<svg version="1.1" id="&#x56FE;&#x5C42;_1" xmlns="http://www.w3.org/2000/svg" xmlns:xlink="http://www.w3.org/1999/xlink" x="0px"
	 y="0px" viewBox="0 0 24 24" style="enable-background:new 0 0 24 24;" xml:space="preserve">
<path style="fill:#333333;" d="M6,9.75c-1.792,0-3.25-1.458-3.25-3.25S4.208,3.25,6,3.25S9.25,4.708,9.25,6.5S7.792,9.75,6,9.75z
	 M6,3.75c-1.517,0-2.75,1.233-2.75,2.75S4.483,9.25,6,9.25S8.75,8.017,8.75,6.5S7.517,3.75,6,3.75z"/>
<path style="fill:#333333;" d="M8.75,20.75h-5.5v-5.5h5.5V20.75z M3.75,20.25h4.5v-4.5h-4.5V20.25z"/>
<polygon style="fill:#333333;" points="21.25,18.25 12.5,18.25 12.5,17.75 20.75,17.75 20.75,6.75 12.84,6.75 12.84,6.25 
	21.25,6.25 "/>
</svg>






