<?xml version="1.0" encoding="iso-8859-1"?>
<svg version="1.1" id="&#x56FE;&#x5C42;_1" xmlns="http://www.w3.org/2000/svg" xmlns:xlink="http://www.w3.org/1999/xlink" x="0px"
	 y="0px" viewBox="0 0 24 24" style="enable-background:new 0 0 24 24;" xml:space="preserve">
<path style="fill:#333333;" d="M16.547,9.875L12.68,3.178c-0.138-0.239-0.364-0.364-0.66-0.375
	c-0.276,0.004-0.519,0.151-0.649,0.395L8.72,8.119L8.28,7.881l2.65-4.921c0.218-0.405,0.623-0.65,1.083-0.657
	c0.449,0.007,0.871,0.228,1.101,0.625l3.867,6.697L16.547,9.875z"/>
<path style="fill:#333333;" d="M20.711,20.25H12.5v-0.5h8.211c0.275,0,0.52-0.144,0.654-0.384s0.129-0.524-0.016-0.76l-3.062-4.976
	l0.426-0.262l3.062,4.976c0.24,0.392,0.25,0.865,0.025,1.267C21.577,20.011,21.17,20.25,20.711,20.25z"/>
<path style="fill:#333333;" d="M8.5,20.25H3.249c-0.454,0-0.86-0.235-1.085-0.63c-0.225-0.395-0.223-0.863,0.008-1.254l4.114-6.993
	l0.431,0.254L2.602,18.62c-0.138,0.234-0.14,0.516-0.004,0.752s0.379,0.378,0.651,0.378H8.5V20.25z"/>
<polygon style="fill:#333333;" points="14.323,22.177 12.146,20 14.323,17.823 14.677,18.177 12.854,20 14.677,21.823 "/>
<polygon style="fill:#333333;" points="16.909,10.139 13.936,9.342 14.064,8.858 16.556,9.526 17.223,7.036 17.705,7.165 "/>
<polygon style="fill:#333333;" points="6.972,14.297 6.305,11.806 3.815,12.474 3.685,11.991 6.659,11.194 7.456,14.168 "/>
</svg>






