<?xml version="1.0" encoding="iso-8859-1"?>
<svg version="1.1" id="&#x56FE;&#x5C42;_1" xmlns="http://www.w3.org/2000/svg" xmlns:xlink="http://www.w3.org/1999/xlink" x="0px"
	 y="0px" viewBox="0 0 24 24" style="enable-background:new 0 0 24 24;" xml:space="preserve">
<polygon style="fill:#333333;" points="12,10.354 9.823,8.177 10.177,7.823 12,9.646 13.823,7.823 14.177,8.177 "/>
<polygon style="fill:#333333;" points="18,16.854 15.823,14.677 16.177,14.323 18,16.146 19.823,14.323 20.177,14.677 "/>
<polygon style="fill:#333333;" points="6,16.854 3.823,14.677 4.177,14.323 6,16.146 7.823,14.323 8.177,14.677 "/>
<rect x="11.75" y="2" style="fill:#333333;" width="0.5" height="8"/>
<path style="fill:#333333;" d="M18.25,16.434h-0.5V9.818c0-1.241,1.01-2.25,2.25-2.25h2v0.5h-2c-0.965,0-1.75,0.785-1.75,1.75
	V16.434z"/>
<path style="fill:#333333;" d="M6.25,16.434h-0.5V9.818c0-0.965-0.785-1.75-1.75-1.75H2v-0.5h2c1.241,0,2.25,1.009,2.25,2.25V16.434
	z"/>
<path style="fill:#333333;" d="M20,22.25H4c-1.241,0-2.25-1.01-2.25-2.25v-2h0.5v2c0,0.965,0.785,1.75,1.75,1.75h16
	c0.965,0,1.75-0.785,1.75-1.75v-2h0.5v2C22.25,21.24,21.24,22.25,20,22.25z"/>
</svg>






