<?xml version="1.0" encoding="iso-8859-1"?>
<svg version="1.1" id="&#x56FE;&#x5C42;_1" xmlns="http://www.w3.org/2000/svg" xmlns:xlink="http://www.w3.org/1999/xlink" x="0px"
	 y="0px" viewBox="0 0 24 24" style="enable-background:new 0 0 24 24;" xml:space="preserve">
<path style="fill:#333333;" d="M20.25,22.25H3.75V1.75h16.5V22.25z M4.25,21.75h15.5V2.25H4.25V21.75z"/>
<path style="fill:#333333;" d="M14.251,10.679l-0.184-0.466c1.885-0.74,3.705-2.442,5.728-5.355l0.41,0.285
	C18.124,8.141,16.231,9.9,14.251,10.679z M9.777,10.622C7.733,9.819,5.832,8.078,3.794,5.143l0.375-0.327l5.869,5.389L9.777,10.622z
	 M6.039,7.211c0.716,0.802,1.422,1.451,2.134,1.959L6.039,7.211z"/>
<path style="fill:#333333;" d="M12,13.75c-1.378,0-2.5-1.121-2.5-2.5c0-1.378,1.122-2.5,2.5-2.5c1.379,0,2.5,1.122,2.5,2.5
	C14.5,12.629,13.379,13.75,12,13.75z M12,9.25c-1.103,0-2,0.897-2,2c0,1.103,0.897,2,2,2c1.103,0,2-0.897,2-2
	C14,10.147,13.103,9.25,12,9.25z"/>
</svg>






