<?xml version="1.0" encoding="iso-8859-1"?>
<svg version="1.1" id="&#x56FE;&#x5C42;_1" xmlns="http://www.w3.org/2000/svg" xmlns:xlink="http://www.w3.org/1999/xlink" x="0px"
	 y="0px" viewBox="0 0 24 24" style="enable-background:new 0 0 24 24;" xml:space="preserve">
<path style="fill:#333333;" d="M12,22.25C6.348,22.25,1.75,17.652,1.75,12C1.75,6.348,6.348,1.75,12,1.75
	c5.652,0,10.25,4.598,10.25,10.25C22.25,17.652,17.652,22.25,12,22.25z M12,2.25c-5.376,0-9.75,4.374-9.75,9.75
	s4.374,9.75,9.75,9.75s9.75-4.374,9.75-9.75S17.376,2.25,12,2.25z"/>
<path style="fill:#333333;" d="M13.75,18.25h-3.5v-4.5h-4.5v-3.5h4.5v-4.5h3.5v4.5h4.5v3.5h-4.5V18.25z M10.75,17.75h2.5v-4.5h4.5
	v-2.5h-4.5v-4.5h-2.5v4.5h-4.5v2.5h4.5V17.75z"/>
</svg>






