<?xml version="1.0" encoding="iso-8859-1"?>
<svg version="1.1" id="&#x56FE;&#x5C42;_1" xmlns="http://www.w3.org/2000/svg" xmlns:xlink="http://www.w3.org/1999/xlink" x="0px"
	 y="0px" viewBox="0 0 24 24" style="enable-background:new 0 0 24 24;" xml:space="preserve">
<path style="fill:#333333;" d="M12,21.25c-5.101,0-9.25-4.149-9.25-9.25S6.899,2.75,12,2.75c2.471,0,4.794,0.962,6.541,2.709
	c0.825,0.824,2.572,2.791,2.646,2.875l-0.373,0.332c-0.019-0.021-1.812-2.039-2.626-2.853C16.535,4.16,14.337,3.25,12,3.25
	c-4.825,0-8.75,3.925-8.75,8.75c0,4.825,3.925,8.75,8.75,8.75c2.337,0,4.534-0.91,6.188-2.562l0.354,0.354
	C16.793,20.288,14.47,21.25,12,21.25z"/>
<polygon style="fill:#333333;" points="21.25,8.75 16.5,8.75 16.5,8.25 20.75,8.25 20.75,4 21.25,4 "/>
</svg>






