<?xml version="1.0" encoding="iso-8859-1"?>
<svg version="1.1" id="&#x56FE;&#x5C42;_1" xmlns="http://www.w3.org/2000/svg" xmlns:xlink="http://www.w3.org/1999/xlink" x="0px"
	 y="0px" viewBox="0 0 24 24" style="enable-background:new 0 0 24 24;" xml:space="preserve">
<rect x="6.319" y="7.25" transform="matrix(0.8614 -0.5079 0.5079 0.8614 -2.2502 6.7528)" style="fill:#333333;" width="9.862" height="0.5"/>
<rect x="6.169" y="11.25" transform="matrix(0.8584 -0.5131 0.5131 0.8584 -4.2004 7.7857)" style="fill:#333333;" width="11.662" height="0.5"/>
<rect x="6.632" y="15.75" transform="matrix(0.8453 -0.5342 0.5342 0.8453 -6.653 9.0185)" style="fill:#333333;" width="11.236" height="0.499"/>
<path style="fill:#333333;" d="M19.75,5.25H4.25v-3.5h15.5V5.25z M4.75,4.75h14.5v-2.5H4.75V4.75z"/>
<path style="fill:#333333;" d="M19.75,22.25H4.25v-3.5h15.5V22.25z M4.75,21.75h14.5v-2.5H4.75V21.75z"/>
<rect x="6.75" y="5" style="fill:#333333;" width="0.5" height="14"/>
<rect x="16.75" y="5" style="fill:#333333;" width="0.5" height="14"/>
</svg>






