<?xml version="1.0" encoding="iso-8859-1"?>
<svg version="1.1" id="&#x56FE;&#x5C42;_1" xmlns="http://www.w3.org/2000/svg" xmlns:xlink="http://www.w3.org/1999/xlink" x="0px"
	 y="0px" viewBox="0 0 24 24" style="enable-background:new 0 0 24 24;" xml:space="preserve">
<rect x="20.75" y="4" style="fill:#333333;" width="0.5" height="8"/>
<rect x="2.75" y="12" style="fill:#333333;" width="0.5" height="8"/>
<path style="fill:#333333;" d="M12,21.25c-5.101,0-9.25-4.149-9.25-9.25h0.5c0,4.825,3.925,8.75,8.75,8.75
	c2.279,0,4.438-0.872,6.076-2.454l0.348,0.359C16.691,20.328,14.409,21.25,12,21.25z M21.25,12h-0.5c0-4.825-3.925-8.75-8.75-8.75
	c-2.396,0-4.632,0.95-6.296,2.674L5.344,5.576C7.104,3.754,9.467,2.75,12,2.75C17.101,2.75,21.25,6.899,21.25,12z"/>
</svg>






