<?xml version="1.0" encoding="iso-8859-1"?>
<svg version="1.1" id="&#x56FE;&#x5C42;_1" xmlns="http://www.w3.org/2000/svg" xmlns:xlink="http://www.w3.org/1999/xlink" x="0px"
	 y="0px" viewBox="0 0 24 24" style="enable-background:new 0 0 24 24;" xml:space="preserve">
<path style="fill:#333333;" d="M12.035,15.407c-0.333,0-0.647-0.13-0.883-0.366L9.03,12.919c-0.236-0.235-0.366-0.549-0.366-0.883
	c0-0.334,0.13-0.648,0.366-0.884l2.122-2.122c0.236-0.236,0.55-0.366,0.883-0.366c0.001,0,0.001,0,0.001,0
	c0.334,0,0.647,0.13,0.883,0.366l2.122,2.122c0.236,0.236,0.366,0.55,0.366,0.884c0,0.334-0.13,0.647-0.366,0.883l-2.122,2.122
	C12.684,15.277,12.37,15.407,12.035,15.407C12.036,15.407,12.036,15.407,12.035,15.407z M12.035,9.164c-0.2,0-0.388,0.078-0.53,0.22
	l-2.122,2.122c-0.142,0.142-0.22,0.33-0.22,0.531c0,0.2,0.078,0.388,0.22,0.529l2.122,2.122c0.283,0.283,0.776,0.284,1.06,0
	l2.122-2.122c0.142-0.142,0.22-0.329,0.22-0.529c0-0.201-0.078-0.389-0.22-0.531l-2.122-2.122
	C12.424,9.242,12.236,9.164,12.035,9.164L12.035,9.164z"/>
<path style="fill:#333333;" d="M19.836,8.111c-1.49-2.999-4.494-4.861-7.84-4.861c-3.304,0-6.282,1.863-7.772,4.861L3.776,7.889
	c1.575-3.169,4.725-5.139,8.22-5.139c3.537,0,6.712,1.969,8.288,5.139L19.836,8.111z"/>
<rect x="3.75" y="4" style="fill:#333333;" width="0.5" height="4"/>
<rect x="4" y="7.75" style="fill:#333333;" width="3.39" height="0.5"/>
<path style="fill:#333333;" d="M12.064,21.25c-3.538,0-6.713-1.969-8.289-5.139l0.448-0.223c1.49,2.999,4.494,4.861,7.84,4.861
	c3.304,0,6.281-1.862,7.771-4.861l0.447,0.223C18.709,19.281,15.56,21.25,12.064,21.25z"/>
<rect x="19.81" y="16" style="fill:#333333;" width="0.5" height="4"/>
<rect x="16.67" y="15.75" style="fill:#333333;" width="3.39" height="0.5"/>
</svg>






