<?xml version="1.0" encoding="iso-8859-1"?>
<svg version="1.1" id="&#x56FE;&#x5C42;_1" xmlns="http://www.w3.org/2000/svg" xmlns:xlink="http://www.w3.org/1999/xlink" x="0px"
	 y="0px" viewBox="0 0 24 24" style="enable-background:new 0 0 24 24;" xml:space="preserve">
<path style="fill:#333333;" d="M17.5,20.25h-12c-0.689,0-1.25-0.561-1.25-1.25V3c0-0.689,0.561-1.25,1.25-1.25h12
	c0.689,0,1.25,0.561,1.25,1.25v16C18.75,19.689,18.189,20.25,17.5,20.25z M5.5,2.25C5.086,2.25,4.75,2.586,4.75,3v16
	c0,0.413,0.336,0.75,0.75,0.75h12c0.413,0,0.75-0.337,0.75-0.75V3c0-0.414-0.337-0.75-0.75-0.75H5.5z"/>
<rect x="4.5" y="10.75" style="fill:#333333;" width="14" height="0.5"/>
<rect x="4.25" y="10" style="fill:#333333;" width="0.5" height="2"/>
<rect x="18.25" y="10" style="fill:#333333;" width="0.5" height="2"/>
<rect x="7.25" y="14.5" style="fill:#333333;" width="0.5" height="2"/>
<rect x="7.25" y="5.5" style="fill:#333333;" width="0.5" height="2"/>
<rect x="16.25" y="20" style="fill:#333333;" width="0.5" height="2"/>
<rect x="6.25" y="20" style="fill:#333333;" width="0.5" height="2"/>
</svg>






