<?xml version="1.0" encoding="iso-8859-1"?>
<svg version="1.1" id="&#x56FE;&#x5C42;_1" xmlns="http://www.w3.org/2000/svg" xmlns:xlink="http://www.w3.org/1999/xlink" x="0px"
	 y="0px" viewBox="0 0 24 24" style="enable-background:new 0 0 24 24;" xml:space="preserve">
<path style="fill:#333333;" d="M9.505,21.25H4.5c-0.965,0-1.75-0.785-1.75-1.75v-15c0-0.965,0.785-1.75,1.75-1.75h15
	c0.965,0,1.75,0.785,1.75,1.75v5.015h-0.5V4.5c0-0.689-0.561-1.25-1.25-1.25h-15c-0.689,0-1.25,0.561-1.25,1.25v15
	c0,0.689,0.561,1.25,1.25,1.25h5.005V21.25z"/>
<path style="fill:#333333;" d="M20.5,21.25h-5.981v-0.5H20.5c0.138,0,0.25-0.112,0.25-0.25v-5.982h0.5V20.5
	C21.25,20.913,20.913,21.25,20.5,21.25z"/>
<rect x="9" y="14.268" style="fill:#333333;" width="12" height="0.5"/>
<polygon style="fill:#333333;" points="11.323,17.677 8.146,14.5 11.323,11.323 11.677,11.677 8.854,14.5 11.677,17.323 "/>
</svg>






