<?xml version="1.0" encoding="iso-8859-1"?>
<svg version="1.1" id="&#x56FE;&#x5C42;_1" xmlns="http://www.w3.org/2000/svg" xmlns:xlink="http://www.w3.org/1999/xlink" x="0px"
	 y="0px" viewBox="0 0 24 24" style="enable-background:new 0 0 24 24;" xml:space="preserve">
<rect x="2" y="17.25" style="fill:#333333;" width="20" height="0.5"/>
<path style="fill:#333333;" d="M12.25,16h-0.5c0-2.067-1.794-3.75-4-3.75s-4,1.683-4,3.75h-0.5c0-2.344,2.019-4.25,4.5-4.25
	S12.25,13.656,12.25,16z"/>
<path style="fill:#333333;" d="M20.75,16h-0.5c0-5.376-3.701-9.75-8.25-9.75S3.75,10.624,3.75,16h-0.5
	c0-5.652,3.925-10.25,8.75-10.25C16.825,5.75,20.75,10.348,20.75,16z"/>
<path style="fill:#333333;" d="M20.5,19.25c-0.965,0-1.75-0.785-1.75-1.75s0.785-1.75,1.75-1.75s1.75,0.785,1.75,1.75
	S21.465,19.25,20.5,19.25z M20.5,16.25c-0.689,0-1.25,0.561-1.25,1.25s0.561,1.25,1.25,1.25s1.25-0.561,1.25-1.25
	S21.189,16.25,20.5,16.25z"/>
<path style="fill:#333333;" d="M12,19.25c-0.965,0-1.75-0.785-1.75-1.75s0.785-1.75,1.75-1.75s1.75,0.785,1.75,1.75
	S12.965,19.25,12,19.25z M12,16.25c-0.689,0-1.25,0.561-1.25,1.25s0.561,1.25,1.25,1.25s1.25-0.561,1.25-1.25S12.689,16.25,12,16.25
	z"/>
<path style="fill:#333333;" d="M3.5,19.25c-0.965,0-1.75-0.785-1.75-1.75s0.785-1.75,1.75-1.75s1.75,0.785,1.75,1.75
	S4.465,19.25,3.5,19.25z M3.5,16.25c-0.689,0-1.25,0.561-1.25,1.25s0.561,1.25,1.25,1.25s1.25-0.561,1.25-1.25
	S4.189,16.25,3.5,16.25z"/>
</svg>






