<?xml version="1.0" encoding="iso-8859-1"?>
<svg version="1.1" id="&#x56FE;&#x5C42;_1" xmlns="http://www.w3.org/2000/svg" xmlns:xlink="http://www.w3.org/1999/xlink" x="0px"
	 y="0px" viewBox="0 0 24 24" style="enable-background:new 0 0 24 24;" xml:space="preserve">
<path style="fill:#333333;" d="M12,22.25C6.348,22.25,1.75,17.652,1.75,12C1.75,6.348,6.348,1.75,12,1.75
	c5.652,0,10.25,4.598,10.25,10.25C22.25,17.652,17.652,22.25,12,22.25z M12,2.25c-5.376,0-9.75,4.374-9.75,9.75
	s4.374,9.75,9.75,9.75s9.75-4.374,9.75-9.75S17.376,2.25,12,2.25z"/>
<path style="fill:#333333;" d="M12,17.75c-2.625,0-3.68-2.051-3.724-2.139l0.447-0.224C8.762,15.464,9.692,17.25,12,17.25
	s3.238-1.786,3.276-1.862l0.447,0.224C15.68,15.699,14.624,17.75,12,17.75z"/>
<path style="fill:#333333;" d="M8.5,10.75c-1.142,0-1.7-1.092-1.724-1.138l0.447-0.224C7.228,9.396,7.671,10.25,8.5,10.25
	s1.272-0.854,1.277-0.862l0.447,0.224C10.2,9.658,9.642,10.75,8.5,10.75z"/>
<path style="fill:#333333;" d="M15.5,10.75c-1.142,0-1.7-1.092-1.724-1.138l0.447-0.224c0.004,0.008,0.447,0.862,1.276,0.862
	s1.272-0.854,1.276-0.862l0.447,0.224C17.2,9.658,16.642,10.75,15.5,10.75z"/>
</svg>






