<?xml version="1.0" encoding="iso-8859-1"?>
<svg version="1.1" id="&#x56FE;&#x5C42;_1" xmlns="http://www.w3.org/2000/svg" xmlns:xlink="http://www.w3.org/1999/xlink" x="0px"
	 y="0px" viewBox="0 0 24 24" style="enable-background:new 0 0 24 24;" xml:space="preserve">
<path style="fill:none;" d="M12,2C8.134,2,5,5.134,5,9v10h14V9C19,5.134,15.866,2,12,2z"/>
<path style="fill:#333333;" d="M22,19.25H2v-0.5h2.75V9c0-3.998,3.252-7.25,7.25-7.25c3.998,0,7.25,3.252,7.25,7.25v9.75H22V19.25z
	 M5.25,18.75h13.5V9c0-3.722-3.028-6.75-6.75-6.75C8.278,2.25,5.25,5.278,5.25,9V18.75z"/>
<path style="fill:#333333;" d="M12,22.25c-1.517,0-2.75-1.233-2.75-2.75v-0.75h5.5v0.75C14.75,21.017,13.517,22.25,12,22.25z
	 M9.75,19.25v0.25c0,1.24,1.009,2.25,2.25,2.25c1.24,0,2.25-1.01,2.25-2.25v-0.25H9.75z"/>
</svg>






