<?xml version="1.0" encoding="iso-8859-1"?>
<svg version="1.1" id="&#x56FE;&#x5C42;_1" xmlns="http://www.w3.org/2000/svg" xmlns:xlink="http://www.w3.org/1999/xlink" x="0px"
	 y="0px" viewBox="0 0 24 24" style="enable-background:new 0 0 24 24;" xml:space="preserve">
<path style="fill:#333333;" d="M17.5,22.25h-11c-0.689,0-1.25-0.561-1.25-1.25V3c0-0.689,0.561-1.25,1.25-1.25h11
	c0.689,0,1.25,0.561,1.25,1.25v18C18.75,21.689,18.189,22.25,17.5,22.25z M6.5,2.25C6.086,2.25,5.75,2.586,5.75,3v18
	c0,0.413,0.336,0.75,0.75,0.75h11c0.413,0,0.75-0.337,0.75-0.75V3c0-0.414-0.337-0.75-0.75-0.75H6.5z"/>
<path style="fill:#333333;" d="M12,19.25c-1.241,0-2.25-1.01-2.25-2.25s1.009-2.25,2.25-2.25c1.24,0,2.25,1.01,2.25,2.25
	S13.24,19.25,12,19.25z M12,15.25c-0.965,0-1.75,0.785-1.75,1.75s0.785,1.75,1.75,1.75s1.75-0.785,1.75-1.75S12.965,15.25,12,15.25z
	"/>
<path style="fill:#333333;" d="M15.25,9.25h-6.5v-4.5h6.5V9.25z M9.25,8.75h5.5v-3.5h-5.5V8.75z"/>
<rect x="11.5" y="11.75" style="fill:#333333;" width="1" height="0.5"/>
</svg>






