<?xml version="1.0" encoding="iso-8859-1"?>
<svg version="1.1" id="&#x56FE;&#x5C42;_1" xmlns="http://www.w3.org/2000/svg" xmlns:xlink="http://www.w3.org/1999/xlink" x="0px"
	 y="0px" viewBox="0 0 24 24" style="enable-background:new 0 0 24 24;" xml:space="preserve">
<path style="fill:#333333;" d="M12,22.25c-3.722,0-6.75-3.028-6.75-6.75V2.723c0-0.536,0.437-0.973,0.973-0.973h11.555
	c0.536,0,0.973,0.437,0.973,0.973V15.5C18.75,19.222,15.722,22.25,12,22.25z M6.223,2.25c-0.261,0-0.473,0.212-0.473,0.473V15.5
	c0,3.446,2.804,6.25,6.25,6.25s6.25-2.804,6.25-6.25V2.723c0-0.261-0.212-0.473-0.473-0.473H6.223z"/>
<rect x="8.5" y="7.75" style="fill:#333333;" width="1.5" height="0.5"/>
<rect x="14" y="7.75" style="fill:#333333;" width="1.5" height="0.5"/>
<circle style="fill:#333333;" cx="8.5" cy="5" r="1"/>
<path style="fill:#333333;" d="M12,19.25c-2.068,0-3.75-1.683-3.75-3.75s1.682-3.75,3.75-3.75c2.067,0,3.75,1.683,3.75,3.75
	S14.067,19.25,12,19.25z M12,12.25c-1.792,0-3.25,1.458-3.25,3.25s1.458,3.25,3.25,3.25s3.25-1.458,3.25-3.25S13.792,12.25,12,12.25
	z"/>
</svg>






