<?xml version="1.0" encoding="iso-8859-1"?>
<svg version="1.1" id="&#x56FE;&#x5C42;_1" xmlns="http://www.w3.org/2000/svg" xmlns:xlink="http://www.w3.org/1999/xlink" x="0px"
	 y="0px" viewBox="0 0 24 24" style="enable-background:new 0 0 24 24;" xml:space="preserve">
<path style="fill:#333333;" d="M7.763,22.08c-0.741-2.205-0.982-4.097-0.717-5.623c0.275-1.582,1.144-2.632,2.584-3.119l0.317,0.314
	c-0.979,2.969-0.602,5.067,1.153,6.416c1.403,1.08,3.786,1.233,5.669,0.366c2.209-1.02,3.507-3.216,3.656-6.186
	c0.205-4.09-0.865-7.686-2.938-9.865c-1.355-1.425-3.075-2.178-4.974-2.178c-2.545,0-3.801,1.425-4.128,2.758
	c-0.335,1.37,0.146,3.18,1.981,4.137l-0.062,0.466c-3.066,0.668-5.034,2.047-5.85,4.099c-0.83,2.086-0.893,4.873-0.187,8.282
	L3.78,22.051c-0.727-3.507-0.655-6.391,0.211-8.569c0.826-2.076,2.712-3.508,5.612-4.26C8.167,8.213,7.49,6.524,7.901,4.846
	c0.372-1.518,1.779-3.139,4.613-3.139c2.039,0,3.884,0.807,5.336,2.333c2.166,2.277,3.287,6.008,3.075,10.235
	c-0.215,4.269-2.565,5.977-3.947,6.614c-2.07,0.957-4.614,0.782-6.183-0.424c-1.812-1.393-2.309-3.564-1.48-6.459
	c-0.981,0.479-1.565,1.314-1.777,2.537c-0.25,1.443-0.016,3.253,0.698,5.377L7.763,22.08z"/>
<path style="fill:#333333;" d="M14.69,10.662c-0.542,0-0.938-0.223-1.185-0.668c-0.475-0.855,0.086-1.767,1.666-2.709l0.256,0.43
	c-1.304,0.777-1.803,1.463-1.484,2.037c0.318,0.576,1.12,0.541,2.38-0.102l0.227,0.445C15.81,10.473,15.188,10.662,14.69,10.662z"/>
<path style="fill:#333333;" d="M16.045,16.371c-0.802-0.157-2.588-1.123-3.024-2.084c-0.18-0.396-0.092-0.696,0.013-0.878
	c0.442-0.769,1.636-0.942,3.64-0.534l-0.1,0.49c-1.721-0.352-2.794-0.248-3.106,0.294c-0.044,0.076-0.091,0.202,0.009,0.421
	c0.349,0.767,1.979,1.666,2.665,1.801L16.045,16.371z"/>
</svg>






