<?xml version="1.0" encoding="iso-8859-1"?>
<svg version="1.1" id="&#x56FE;&#x5C42;_1" xmlns="http://www.w3.org/2000/svg" xmlns:xlink="http://www.w3.org/1999/xlink" x="0px"
	 y="0px" viewBox="0 0 24 24" style="enable-background:new 0 0 24 24;" xml:space="preserve">
<rect x="8.5" y="6.75" style="fill:#333333;" width="6" height="0.5"/>
<rect x="11.25" y="7.5" style="fill:#333333;" width="0.5" height="6.5"/>
<path style="fill:#333333;" d="M10.071,21.25H4c-0.689,0-1.25-0.561-1.25-1.25V3.5c0-0.689,0.561-1.25,1.25-1.25h16
	c0.689,0,1.25,0.561,1.25,1.25v4.858h-0.5V3.5c0-0.414-0.337-0.75-0.75-0.75H4c-0.414,0-0.75,0.336-0.75,0.75V20
	c0,0.413,0.336,0.75,0.75,0.75h6.071V21.25z"/>
<path style="fill:#333333;" d="M15.627,21.25H13.25v-2.331l0.048-0.065l5.401-7.459l2.646,2.058l-0.145,0.195L15.627,21.25z
	 M13.75,20.75h1.623l5.281-7.202l-1.854-1.441l-5.051,6.975V20.75z"/>
</svg>






