<?xml version="1.0" encoding="iso-8859-1"?>
<svg version="1.1" id="&#x56FE;&#x5C42;_1" xmlns="http://www.w3.org/2000/svg" xmlns:xlink="http://www.w3.org/1999/xlink" x="0px"
	 y="0px" viewBox="0 0 24 24" style="enable-background:new 0 0 24 24;" xml:space="preserve">
<path style="fill:#333333;" d="M12,21.25c-2.47,0-4.793-0.962-6.541-2.709l0.354-0.354C7.466,19.84,9.663,20.75,12,20.75
	c4.825,0,8.75-3.925,8.75-8.75c0-4.825-3.925-8.75-8.75-8.75c-2.337,0-4.535,0.91-6.187,2.563C4.999,6.627,3.205,8.646,3.187,8.666
	L2.813,8.334c0.074-0.083,1.822-2.05,2.646-2.875C7.206,3.712,9.529,2.75,12,2.75c5.101,0,9.25,4.149,9.25,9.25
	S17.101,21.25,12,21.25z"/>
<polygon style="fill:#333333;" points="7,8.75 2.75,8.75 2.75,4.5 3.25,4.5 3.25,8.25 7,8.25 "/>
<path style="fill:#333333;" d="M12,16.25c-0.899,0-1.75-0.607-1.75-1.25h0.5c0,0.327,0.606,0.75,1.25,0.75
	c0.653,0,1.75-0.228,1.75-1.75c0-1.556-0.54-2.25-1.75-2.25c-0.74,0-0.923,0.025-1.363,0.313l-0.387-0.208V8.75H14v0.5h-3.25v2.177
	c0.353-0.16,0.667-0.177,1.25-0.177c1.493,0,2.25,0.925,2.25,2.75C14.25,15.409,13.409,16.25,12,16.25z"/>
</svg>






