<?xml version="1.0" encoding="iso-8859-1"?>
<svg version="1.1" id="&#x56FE;&#x5C42;_1" xmlns="http://www.w3.org/2000/svg" xmlns:xlink="http://www.w3.org/1999/xlink" x="0px"
	 y="0px" viewBox="0 0 24 24" style="enable-background:new 0 0 24 24;" xml:space="preserve">
<path style="fill:#333333;" d="M12,17.801l-0.139-0.093C11.673,17.582,7.25,14.593,7.25,11c0-1.269,0.494-2.461,1.391-3.359
	C9.539,6.744,10.731,6.25,12,6.25s2.461,0.494,3.358,1.391S16.75,9.731,16.75,11c0,3.593-4.423,6.582-4.611,6.708L12,17.801z
	 M12,6.75c-1.135,0-2.202,0.442-3.005,1.245C8.192,8.798,7.75,9.865,7.75,11c0,2.984,3.503,5.658,4.25,6.194
	c0.747-0.536,4.25-3.21,4.25-6.194c0-1.136-0.442-2.203-1.245-3.005S13.135,6.75,12,6.75z"/>
<path style="fill:#333333;" d="M12,12.75c-0.965,0-1.75-0.785-1.75-1.75S11.035,9.25,12,9.25s1.75,0.785,1.75,1.75
	S12.965,12.75,12,12.75z M12,9.75c-0.689,0-1.25,0.561-1.25,1.25s0.561,1.25,1.25,1.25s1.25-0.561,1.25-1.25S12.689,9.75,12,9.75z"
	/>
<path style="fill:#333333;" d="M21.25,12.26l-0.5-0.02c0.01-0.258,0.161-6.343-6.082-8.504c-6.229-2.158-9.81,3.172-9.958,3.4
	L4.291,6.863c0.039-0.059,3.929-5.887,10.542-3.6C21.431,5.548,21.252,12.192,21.25,12.26z"/>
<rect x="20.75" y="4" style="fill:#333333;" width="0.5" height="8"/>
<path style="fill:#333333;" d="M12.3,21.341c-0.802,0-1.672-0.105-2.612-0.349C2.829,19.214,2.75,12.072,2.75,12h0.5
	c0,0.278,0.084,6.828,6.562,8.508c6.477,1.679,9.35-3.411,9.468-3.628l0.439,0.24C19.692,17.169,17.35,21.341,12.3,21.341z"/>
<rect x="2.75" y="12" style="fill:#333333;" width="0.5" height="8"/>
</svg>






