<?xml version="1.0" encoding="iso-8859-1"?>
<svg version="1.1" id="&#x56FE;&#x5C42;_1" xmlns="http://www.w3.org/2000/svg" xmlns:xlink="http://www.w3.org/1999/xlink" x="0px"
	 y="0px" viewBox="0 0 24 24" style="enable-background:new 0 0 24 24;" xml:space="preserve">
<path style="fill:#333333;" d="M18.25,17.75H5.75V10.5c0-3.446,2.804-6.25,6.25-6.25s6.25,2.804,6.25,6.25V17.75z M6.25,17.25h11.5
	V10.5c0-3.17-2.579-5.75-5.75-5.75c-3.17,0-5.75,2.58-5.75,5.75V17.25z"/>
<rect x="4" y="20.75" style="fill:#333333;" width="16" height="0.5"/>
<rect x="2.5" y="5.959" transform="matrix(0.3162 -0.9487 0.9487 0.3162 -4.5232 7.2243)" style="fill:#333333;" width="0.5" height="1.581"/>
<rect x="6.5" y="1.959" transform="matrix(0.9487 -0.3162 0.3162 0.9487 -0.5232 2.2757)" style="fill:#333333;" width="0.5" height="1.581"/>
<rect x="4" y="3.189" transform="matrix(0.7071 -0.7071 0.7071 0.7071 -1.7604 4.25)" style="fill:#333333;" width="0.5" height="2.121"/>
</svg>






