<?xml version="1.0" encoding="iso-8859-1"?>
<svg version="1.1" id="&#x56FE;&#x5C42;_1" xmlns="http://www.w3.org/2000/svg" xmlns:xlink="http://www.w3.org/1999/xlink" x="0px"
	 y="0px" viewBox="0 0 24 24" style="enable-background:new 0 0 24 24;" xml:space="preserve">
<path style="fill:#333333;" d="M9.171,19.613c-0.32,0-0.64-0.121-0.884-0.365l-3.536-3.536c-0.487-0.487-0.487-1.28,0-1.768
	l1.475-1.475c0.236-0.236,0.55-0.366,0.884-0.366h1.293c0.197,0,0.391-0.08,0.53-0.22l2.95-2.95c0.14-0.14,0.22-0.333,0.22-0.53
	V7.111c0-0.334,0.13-0.647,0.366-0.884l1.475-1.475c0.488-0.486,1.279-0.487,1.768,0l3.536,3.536
	c0.236,0.236,0.366,0.55,0.366,0.884c0,0.334-0.13,0.648-0.366,0.884l-1.476,1.475c-0.236,0.236-0.55,0.366-0.884,0.366h-1.293
	c-0.197,0-0.391,0.08-0.53,0.22l-2.949,2.949c-0.14,0.14-0.22,0.333-0.22,0.53v1.293c0,0.334-0.13,0.647-0.366,0.884l-1.475,1.476
	C9.812,19.492,9.491,19.613,9.171,19.613z M7.111,12.604c-0.197,0-0.391,0.08-0.53,0.22l-1.475,1.475
	c-0.292,0.292-0.292,0.769,0,1.061l3.536,3.536c0.292,0.293,0.769,0.293,1.061,0l1.475-1.476c0.142-0.142,0.22-0.33,0.22-0.53
	v-1.293c0-0.329,0.133-0.651,0.366-0.884l2.95-2.949c0.232-0.233,0.555-0.366,0.884-0.366h1.293c0.2,0,0.389-0.078,0.53-0.22
	l1.476-1.475c0.142-0.142,0.22-0.33,0.22-0.53c0-0.2-0.078-0.389-0.22-0.53l-3.536-3.536c-0.293-0.292-0.768-0.292-1.061,0
	l-1.475,1.475c-0.14,0.14-0.22,0.333-0.22,0.53v1.293c0,0.334-0.13,0.647-0.366,0.884l-2.95,2.95
	c-0.236,0.236-0.55,0.366-0.884,0.366H7.111z"/>
<rect x="2.855" y="18.644" transform="matrix(0.7071 -0.7071 0.7071 0.7071 -11.8647 9.1442)" style="fill:#333333;" width="4.501" height="0.5"/>
<rect x="16.645" y="4.856" transform="matrix(0.7071 -0.7071 0.7071 0.7071 1.9238 14.8559)" style="fill:#333333;" width="4.5" height="0.5"/>
</svg>






