<?xml version="1.0" encoding="iso-8859-1"?>
<svg version="1.1" id="&#x56FE;&#x5C42;_1" xmlns="http://www.w3.org/2000/svg" xmlns:xlink="http://www.w3.org/1999/xlink" x="0px"
	 y="0px" viewBox="0 0 24 24" style="enable-background:new 0 0 24 24;" xml:space="preserve">
<path style="fill:#333333;" d="M22.404,21.25h-7.106l-1.52-7.094c-0.019-0.087-0.028-0.175-0.028-0.262V7.62l-3.622-2.907
	C9.867,4.503,9.706,4.205,9.673,3.872C9.641,3.538,9.743,3.214,9.959,2.958c0.381-0.45,1.03-0.567,1.544-0.278l4.712,2.654
	l0.026,0.102l1.974,7.401c0.014,0.049,0.032,0.097,0.055,0.143L22.404,21.25z M15.702,20.75h5.894l-3.773-7.548
	c-0.038-0.075-0.068-0.154-0.09-0.236l-1.947-7.3l-4.527-2.55c-0.306-0.171-0.69-0.102-0.917,0.165
	c-0.128,0.152-0.189,0.345-0.169,0.542c0.019,0.198,0.115,0.375,0.27,0.5L14.25,7.38v6.515c0,0.052,0.006,0.104,0.017,0.156
	L15.702,20.75z"/>
<rect x="13.938" y="13.25" transform="matrix(0.9701 -0.2425 0.2425 0.9701 -2.7965 4.2836)" style="fill:#333333;" width="4.123" height="0.499"/>
<path style="fill:#333333;" d="M8.23,21.25H1.657l2.95-9.205c0.021-0.065,0.046-0.127,0.078-0.188l2.133-4.165l3.411-0.454
	L12.25,8.76v2.54l-0.814,1.361c-0.188,0.314-0.503,0.53-0.865,0.592c-0.361,0.061-0.729-0.04-1.01-0.274l-0.032-0.026
	c-0.347-0.29-0.51-0.746-0.426-1.19l0.096-0.512H8.947l-0.204,0.853l-0.519,2.449L8.23,21.25z M2.343,20.75H7.73V14.5l0.823-3.75
	h1.249l-0.208,1.105c-0.05,0.265,0.048,0.539,0.255,0.713l0.031,0.025c0.17,0.143,0.391,0.204,0.608,0.166
	c0.217-0.037,0.406-0.166,0.519-0.354l0.743-1.243V9.009l-1.658-1.248L7.143,8.153L5.13,12.085
	c-0.019,0.036-0.034,0.073-0.046,0.112L2.343,20.75z"/>
<rect x="6.25" y="11.573" transform="matrix(0.4472 -0.8944 0.8944 0.4472 -8.258 13.1382)" style="fill:#333333;" width="0.5" height="3.354"/>
</svg>






