<?xml version="1.0" encoding="iso-8859-1"?>
<svg version="1.1" id="&#x56FE;&#x5C42;_1" xmlns="http://www.w3.org/2000/svg" xmlns:xlink="http://www.w3.org/1999/xlink" x="0px"
	 y="0px" viewBox="0 0 24 24" style="enable-background:new 0 0 24 24;" xml:space="preserve">
<path style="fill:#333333;" d="M17.75,7h-0.5c0-2.619-2.355-4.75-5.25-4.75C9.105,2.25,6.75,4.381,6.75,7h-0.5
	c0-2.895,2.58-5.25,5.75-5.25C15.171,1.75,17.75,4.105,17.75,7z"/>
<path style="fill:#333333;" d="M19.5,15.25H15c-0.689,0-1.25-0.561-1.25-1.25c0-0.413-0.337-0.75-0.75-0.75h-2
	c-0.414,0-0.75,0.337-0.75,0.75c0,0.689-0.561,1.25-1.25,1.25H4.5c-0.689,0-1.25-0.561-1.25-1.25V8c0-0.689,0.561-1.25,1.25-1.25h15
	c0.689,0,1.25,0.561,1.25,1.25v6C20.75,14.689,20.189,15.25,19.5,15.25z M11,12.75h2c0.689,0,1.25,0.561,1.25,1.25
	c0,0.413,0.337,0.75,0.75,0.75h4.5c0.413,0,0.75-0.337,0.75-0.75V8c0-0.414-0.337-0.75-0.75-0.75h-15C4.086,7.25,3.75,7.586,3.75,8
	v6c0,0.413,0.336,0.75,0.75,0.75H9c0.414,0,0.75-0.337,0.75-0.75C9.75,13.311,10.311,12.75,11,12.75z"/>
<polygon style="fill:#333333;" points="19.25,22.25 4.75,22.25 4.75,15 5.25,15 5.25,21.75 18.75,21.75 18.75,15 19.25,15 "/>
<path style="fill:#333333;" d="M14.25,16.25h-4.5v-3.5h4.5V16.25z M10.25,15.75h3.5v-2.5h-3.5V15.75z"/>
</svg>






