<?xml version="1.0" encoding="iso-8859-1"?>
<svg version="1.1" id="&#x56FE;&#x5C42;_1" xmlns="http://www.w3.org/2000/svg" xmlns:xlink="http://www.w3.org/1999/xlink" x="0px"
	 y="0px" viewBox="0 0 24 24" style="enable-background:new 0 0 24 24;" xml:space="preserve">
<path style="fill:#333333;" d="M17.75,12.75H6.25v-8h3.116l1-1.5h3.268l1,1.5h3.116V12.75z M6.75,12.25h10.5v-7h-2.884l-1-1.5
	h-2.732l-1,1.5H6.75V12.25z"/>
<polygon style="fill:#333333;" points="10.177,21.677 9.823,21.323 11.646,19.5 9.823,17.677 10.177,17.323 12.354,19.5 "/>
<path style="fill:#333333;" d="M12,19.75c-5.827,0-10.75-2.404-10.75-5.25c0-1.18,0.73-2.29,2.111-3.208l0.277,0.416
	C2.403,12.529,1.75,13.495,1.75,14.5c0,2.53,4.79,4.75,10.25,4.75V19.75z M16.054,19.328l-0.107-0.488
	c3.712-0.811,6.304-2.596,6.304-4.34c0-1.005-0.653-1.971-1.889-2.792l0.277-0.416C22.02,12.21,22.75,13.32,22.75,14.5
	C22.75,16.825,19.387,18.601,16.054,19.328z"/>
<path style="fill:#333333;" d="M12,10.25c-0.965,0-1.75-0.785-1.75-1.75S11.035,6.75,12,6.75s1.75,0.785,1.75,1.75
	S12.965,10.25,12,10.25z M12,7.25c-0.689,0-1.25,0.561-1.25,1.25S11.311,9.75,12,9.75s1.25-0.561,1.25-1.25S12.689,7.25,12,7.25z"/>
</svg>






