<?xml version="1.0" encoding="iso-8859-1"?>
<svg version="1.1" id="&#x56FE;&#x5C42;_1" xmlns="http://www.w3.org/2000/svg" xmlns:xlink="http://www.w3.org/1999/xlink" x="0px"
	 y="0px" viewBox="0 0 24 24" style="enable-background:new 0 0 24 24;" xml:space="preserve">
<path style="fill:#333333;" d="M16.904,6.25H7.096l1.75-3.5h6.309L16.904,6.25z M7.904,5.75h8.191l-1.25-2.5H9.154L7.904,5.75z"/>
<path style="fill:#333333;" d="M20.5,21.25h-17c-0.965,0-1.75-0.74-1.75-1.65V7.4c0-0.91,0.785-1.65,1.75-1.65h17
	c0.965,0,1.75,0.74,1.75,1.65v12.2C22.25,20.51,21.465,21.25,20.5,21.25z M3.5,6.25c-0.689,0-1.25,0.516-1.25,1.15v12.2
	c0,0.635,0.561,1.15,1.25,1.15h17c0.689,0,1.25-0.516,1.25-1.15V7.4c0-0.634-0.561-1.15-1.25-1.15H3.5z"/>
<rect x="15.75" y="9.5" style="fill:#333333;" width="0.5" height="4"/>
<rect x="7.75" y="13.5" style="fill:#333333;" width="0.5" height="4"/>
<path style="fill:#333333;" d="M12,17.75c-2.343,0-4.25-1.906-4.25-4.25h0.5c0,2.067,1.682,3.75,3.75,3.75
	c0.486,0,0.959-0.092,1.406-0.272l0.188,0.463C13.087,17.646,12.551,17.75,12,17.75z"/>
<path style="fill:#333333;" d="M16.25,13.5h-0.5c0-2.068-1.683-3.75-3.75-3.75c-0.487,0-0.96,0.092-1.406,0.272l-0.188-0.464
	C10.913,9.354,11.449,9.25,12,9.25C14.344,9.25,16.25,11.157,16.25,13.5z"/>
</svg>






