<?xml version="1.0" encoding="iso-8859-1"?>
<svg version="1.1" id="&#x56FE;&#x5C42;_1" xmlns="http://www.w3.org/2000/svg" xmlns:xlink="http://www.w3.org/1999/xlink" x="0px"
	 y="0px" viewBox="0 0 24 24" style="enable-background:new 0 0 24 24;" xml:space="preserve">
<path style="fill:#333333;" d="M12,19.25c-4.988,0-8.75-3.762-8.75-8.75v-0.25h17.5v0.25C20.75,15.488,16.988,19.25,12,19.25z
	 M3.753,10.75c0.124,4.578,3.627,8,8.247,8c4.619,0,8.123-3.422,8.247-8H3.753z"/>
<path style="fill:#333333;" d="M15.25,10.5h-0.5c0-2.619-2.019-4.75-4.5-4.75s-4.5,2.131-4.5,4.75h-0.5c0-2.895,2.243-5.25,5-5.25
	S15.25,7.605,15.25,10.5z"/>
<path style="fill:#333333;" d="M19.75,10.5h-0.5c0-1.517-1.273-2.75-2.839-2.75c-0.646,0-1.254,0.205-1.759,0.591l-0.305-0.396
	C14.94,7.49,15.654,7.25,16.411,7.25C18.252,7.25,19.75,8.708,19.75,10.5z"/>
<rect x="14.64" y="4.75" transform="matrix(0.2873 -0.9578 0.9578 0.2873 7.5041 20.0858)" style="fill:#333333;" width="5.22" height="0.5"/>
<rect x="17.984" y="7" transform="matrix(0.4966 -0.868 0.868 0.4966 3.7758 21.01)" style="fill:#333333;" width="4.031" height="0.5"/>
<polygon style="fill:#333333;" points="16.347,21.75 7.653,21.75 8.763,18.421 9.237,18.579 8.347,21.25 15.653,21.25 
	14.763,18.579 15.237,18.421 "/>
</svg>






