<?xml version="1.0" encoding="iso-8859-1"?>
<svg version="1.1" id="&#x56FE;&#x5C42;_1" xmlns="http://www.w3.org/2000/svg" xmlns:xlink="http://www.w3.org/1999/xlink" x="0px"
	 y="0px" viewBox="0 0 24 24" style="enable-background:new 0 0 24 24;" xml:space="preserve">
<path style="fill:#333333;" d="M16.5,7.25c-1.517,0-2.75-1.233-2.75-2.75s1.233-2.75,2.75-2.75s2.75,1.233,2.75,2.75
	S18.017,7.25,16.5,7.25z M16.5,2.25c-1.24,0-2.25,1.009-2.25,2.25s1.01,2.25,2.25,2.25s2.25-1.009,2.25-2.25S17.74,2.25,16.5,2.25z"
	/>
<path style="fill:#333333;" d="M11.75,19l-0.005-4.615c0-0.26-0.138-0.506-0.36-0.641l-3.73-2.286
	c-0.224-0.139-0.356-0.377-0.356-0.639c0-0.262,0.133-0.5,0.355-0.637l3.726-2.291c0.512-0.313,1.175-0.219,1.581,0.224l2.669,2.89
	c0.144,0.155,0.347,0.245,0.557,0.245H20v0.5h-3.814c-0.349,0-0.686-0.148-0.924-0.406l-2.67-2.89
	c-0.243-0.266-0.645-0.325-0.951-0.136l-3.725,2.29c-0.105,0.065-0.117,0.17-0.117,0.212s0.012,0.147,0.118,0.213l3.729,2.285
	c0.37,0.225,0.6,0.634,0.6,1.067L12.25,19H11.75z"/>
<path style="fill:#333333;" d="M18.25,22.25c-2.206,0-4-1.794-4-4s1.794-4,4-4s4,1.794,4,4S20.456,22.25,18.25,22.25z M18.25,14.75
	c-1.93,0-3.5,1.57-3.5,3.5s1.57,3.5,3.5,3.5s3.5-1.57,3.5-3.5S20.18,14.75,18.25,14.75z"/>
<path style="fill:#333333;" d="M5.75,22.25c-2.206,0-4-1.794-4-4s1.794-4,4-4s4,1.794,4,4S7.956,22.25,5.75,22.25z M5.75,14.75
	c-1.93,0-3.5,1.57-3.5,3.5s1.57,3.5,3.5,3.5s3.5-1.57,3.5-3.5S7.68,14.75,5.75,14.75z"/>
</svg>






