<?xml version="1.0" encoding="iso-8859-1"?>
<svg version="1.1" id="&#x56FE;&#x5C42;_1" xmlns="http://www.w3.org/2000/svg" xmlns:xlink="http://www.w3.org/1999/xlink" x="0px"
	 y="0px" viewBox="0 0 24 24" style="enable-background:new 0 0 24 24;" xml:space="preserve">
<path style="fill:#333333;" d="M4.132,12.213l-0.264-0.425c0.907-0.562,2.87-2.892,3.387-5.339c0.57-2.695,2.917-2.713,3.713-2.693
	L11,4.256h-0.032C10.201,4.25,8.231,4.254,7.745,6.552C7.19,9.173,5.129,11.593,4.132,12.213z"/>
<path style="fill:#333333;" d="M10.944,20.25c-0.806,0-3.124-0.031-3.688-2.698c-0.518-2.447-2.48-4.776-3.387-5.339l0.264-0.425
	c0.998,0.619,3.058,3.04,3.613,5.661c0.487,2.304,2.504,2.287,3.228,2.302L11,20l-0.027,0.25
	C10.963,20.25,10.954,20.25,10.944,20.25z M11,20.25V20V20.25z"/>
<circle style="fill:#333333;" cx="4" cy="12" r="2"/>
<rect x="4" y="11.75" style="fill:#333333;" width="7" height="0.5"/>
<rect x="15" y="11.75" style="fill:#333333;" width="6" height="0.5"/>
<rect x="15" y="3.75" style="fill:#333333;" width="6" height="0.5"/>
<rect x="15" y="19.751" style="fill:#333333;" width="6" height="0.5"/>
</svg>






