<?xml version="1.0" encoding="iso-8859-1"?>
<svg version="1.1" id="&#x56FE;&#x5C42;_1" xmlns="http://www.w3.org/2000/svg" xmlns:xlink="http://www.w3.org/1999/xlink" x="0px"
	 y="0px" viewBox="0 0 24 24" style="enable-background:new 0 0 24 24;" xml:space="preserve">
<path style="fill:#333333;" d="M19.716,21.75H5c-0.689,0-1.25-0.561-1.25-1.25V4.558c0-0.526,0.305-0.972,0.795-1.164
	C5.034,3.202,5.561,3.323,5.918,3.71l14.716,15.941c0.342,0.371,0.429,0.888,0.227,1.35C20.658,21.463,20.22,21.75,19.716,21.75z
	 M5.008,3.806c-0.102,0-0.199,0.021-0.281,0.053C4.496,3.949,4.25,4.18,4.25,4.558V20.5c0,0.413,0.336,0.75,0.75,0.75h14.716
	c0.361,0,0.592-0.232,0.688-0.449c0.095-0.217,0.109-0.544-0.136-0.81L5.551,4.049C5.387,3.871,5.189,3.806,5.008,3.806z"/>
</svg>






