<?xml version="1.0" encoding="iso-8859-1"?>
<svg version="1.1" id="&#x56FE;&#x5C42;_1" xmlns="http://www.w3.org/2000/svg" xmlns:xlink="http://www.w3.org/1999/xlink" x="0px"
	 y="0px" viewBox="0 0 24 24" style="enable-background:new 0 0 24 24;" xml:space="preserve">
<path style="fill:#333333;" d="M6.5,21.75c-2.343,0-4.25-1.906-4.25-4.25s1.907-4.25,4.25-4.25s4.25,1.906,4.25,4.25
	S8.843,21.75,6.5,21.75z M6.5,13.75c-2.068,0-3.75,1.683-3.75,3.75s1.682,3.75,3.75,3.75s3.75-1.683,3.75-3.75
	S8.568,13.75,6.5,13.75z"/>
<path style="fill:#333333;" d="M17.5,21.75c-2.344,0-4.25-1.906-4.25-4.25s1.906-4.25,4.25-4.25s4.25,1.906,4.25,4.25
	S19.844,21.75,17.5,21.75z M17.5,13.75c-2.067,0-3.75,1.683-3.75,3.75s1.683,3.75,3.75,3.75s3.75-1.683,3.75-3.75
	S19.567,13.75,17.5,13.75z"/>
<rect x="3" y="2.25" style="fill:#333333;" width="18" height="0.5"/>
<rect x="6.25" y="2.5" style="fill:#333333;" width="0.5" height="11"/>
<rect x="17.25" y="2.5" style="fill:#333333;" width="0.5" height="11"/>
<rect x="4.5" y="9.25" style="fill:#333333;" width="4" height="0.5"/>
<rect x="15.5" y="9.25" style="fill:#333333;" width="4" height="0.5"/>
</svg>






