<?xml version="1.0" encoding="iso-8859-1"?>
<svg version="1.1" id="&#x56FE;&#x5C42;_1" xmlns="http://www.w3.org/2000/svg" xmlns:xlink="http://www.w3.org/1999/xlink" x="0px"
	 y="0px" viewBox="0 0 24 24" style="enable-background:new 0 0 24 24;" xml:space="preserve">
<path style="fill:#333333;" d="M12,6.06c-1.183,0-2.145-0.967-2.145-2.155S10.817,1.75,12,1.75s2.145,0.967,2.145,2.155
	S13.183,6.06,12,6.06z M12,2.25c-0.907,0-1.645,0.742-1.645,1.655S11.093,5.56,12,5.56c0.907,0,1.645-0.742,1.645-1.655
	S12.907,2.25,12,2.25z"/>
<path style="fill:#333333;" d="M4.895,20.346c-1.183,0-2.145-0.967-2.145-2.155c0-1.188,0.962-2.154,2.145-2.154
	S7.04,17.003,7.04,18.19C7.04,19.379,6.077,20.346,4.895,20.346z M4.895,16.536c-0.907,0-1.645,0.742-1.645,1.654
	c0,0.913,0.738,1.655,1.645,1.655c0.907,0,1.645-0.742,1.645-1.655C6.54,17.278,5.802,16.536,4.895,16.536z"/>
<path style="fill:#333333;" d="M19.105,20.346c-1.183,0-2.145-0.967-2.145-2.155c0-1.188,0.962-2.154,2.145-2.154
	s2.145,0.967,2.145,2.154C21.25,19.379,20.288,20.346,19.105,20.346z M19.105,16.536c-0.907,0-1.645,0.742-1.645,1.654
	c0,0.913,0.737,1.655,1.645,1.655s1.645-0.742,1.645-1.655C20.75,17.278,20.013,16.536,19.105,16.536z"/>
<path style="fill:#333333;" d="M21.209,13.831l-0.498-0.047c0.025-0.273,0.039-0.551,0.039-0.832c0-3.098-1.65-6.002-4.307-7.58
	l0.256-0.43c2.807,1.667,4.551,4.736,4.551,8.01C21.25,13.249,21.236,13.542,21.209,13.831z"/>
<path style="fill:#333333;" d="M12,22.25c-1.25,0-2.463-0.246-3.605-0.732l0.196-0.461c2.158,0.92,4.66,0.92,6.818,0l0.195,0.461
	C14.464,22.003,13.251,22.25,12,22.25z"/>
<path style="fill:#333333;" d="M2.791,13.831c-0.027-0.289-0.041-0.582-0.041-0.879c0-3.273,1.744-6.343,4.551-8.01l0.255,0.43
	C4.9,6.95,3.25,9.854,3.25,12.952c0,0.281,0.013,0.559,0.039,0.832L2.791,13.831z"/>
</svg>






