<?xml version="1.0" encoding="iso-8859-1"?>
<svg version="1.1" id="&#x56FE;&#x5C42;_1" xmlns="http://www.w3.org/2000/svg" xmlns:xlink="http://www.w3.org/1999/xlink" x="0px"
	 y="0px" viewBox="0 0 24 24" style="enable-background:new 0 0 24 24;" xml:space="preserve">
<path style="fill:#333333;" d="M12,5.886c-1.141,0-2.068-0.928-2.068-2.068c0-1.141,0.928-2.068,2.068-2.068
	s2.068,0.928,2.068,2.068C14.068,4.958,13.141,5.886,12,5.886z M12,2.25c-0.865,0-1.568,0.704-1.568,1.568S11.135,5.386,12,5.386
	c0.865,0,1.568-0.703,1.568-1.568S12.865,2.25,12,2.25z"/>
<path style="fill:#333333;" d="M12,22.25c-1.141,0-2.068-0.928-2.068-2.068s0.928-2.068,2.068-2.068s2.068,0.928,2.068,2.068
	S13.141,22.25,12,22.25z M12,18.613c-0.865,0-1.568,0.703-1.568,1.568S11.135,21.75,12,21.75c0.865,0,1.568-0.703,1.568-1.568
	S12.865,18.613,12,18.613z"/>
<path style="fill:#333333;" d="M3.818,14.068c-1.141,0-2.068-0.928-2.068-2.068s0.928-2.068,2.068-2.068
	c1.14,0,2.068,0.928,2.068,2.068S4.958,14.068,3.818,14.068z M3.818,10.432c-0.865,0-1.568,0.704-1.568,1.568
	c0,0.865,0.704,1.568,1.568,1.568S5.386,12.865,5.386,12C5.386,11.135,4.683,10.432,3.818,10.432z"/>
<path style="fill:#333333;" d="M20.182,14.068c-1.141,0-2.068-0.928-2.068-2.068s0.928-2.068,2.068-2.068S22.25,10.859,22.25,12
	S21.322,14.068,20.182,14.068z M20.182,10.432c-0.865,0-1.568,0.704-1.568,1.568c0,0.865,0.703,1.568,1.568,1.568
	S21.75,12.865,21.75,12C21.75,11.135,21.047,10.432,20.182,10.432z"/>
<path style="fill:#333333;" d="M18.709,7.767c-0.628-0.993-1.483-1.849-2.476-2.475l0.268-0.423c1.054,0.666,1.964,1.576,2.63,2.63
	L18.709,7.767z"/>
<path style="fill:#333333;" d="M16.501,19.131l-0.268-0.422c0.991-0.627,1.848-1.482,2.476-2.476l0.422,0.268
	C18.464,17.556,17.555,18.466,16.501,19.131z"/>
<path style="fill:#333333;" d="M7.5,19.131c-1.054-0.666-1.964-1.576-2.631-2.63l0.423-0.268c0.627,0.992,1.483,1.848,2.476,2.476
	L7.5,19.131z"/>
<path style="fill:#333333;" d="M5.292,7.767L4.869,7.499C5.535,6.445,6.445,5.536,7.5,4.869l0.268,0.423
	C6.774,5.919,5.918,6.775,5.292,7.767z"/>
</svg>






