<?xml version="1.0" encoding="iso-8859-1"?>
<svg version="1.1" id="&#x56FE;&#x5C42;_1" xmlns="http://www.w3.org/2000/svg" xmlns:xlink="http://www.w3.org/1999/xlink" x="0px"
	 y="0px" viewBox="0 0 24 24" style="enable-background:new 0 0 24 24;" xml:space="preserve">
<path style="fill:#333333;" d="M18.5,21.75h-13c-0.689,0-1.25-0.561-1.25-1.25v-11c0-0.689,0.561-1.25,1.25-1.25h13
	c0.689,0,1.25,0.561,1.25,1.25v11C19.75,21.189,19.189,21.75,18.5,21.75z M5.5,8.75c-0.414,0-0.75,0.336-0.75,0.75v11
	c0,0.413,0.336,0.75,0.75,0.75h13c0.413,0,0.75-0.337,0.75-0.75v-11c0-0.414-0.337-0.75-0.75-0.75H5.5z"/>
<rect x="12.892" y="6.25" transform="matrix(0.5296 -0.8482 0.8482 0.5296 1.6595 15.9926)" style="fill:#333333;" width="4.717" height="0.5"/>
<rect x="8.5" y="4.142" transform="matrix(0.848 -0.53 0.53 0.848 -2.115 5.6255)" style="fill:#333333;" width="0.5" height="4.717"/>
<path style="fill:#333333;" d="M17,4.75c-0.689,0-1.25-0.561-1.25-1.25S16.311,2.25,17,2.25s1.25,0.561,1.25,1.25
	S17.689,4.75,17,4.75z M17,2.75c-0.413,0-0.75,0.336-0.75,0.75S16.587,4.25,17,4.25s0.75-0.336,0.75-0.75S17.413,2.75,17,2.75z"/>
<path style="fill:#333333;" d="M7,4.75c-0.689,0-1.25-0.561-1.25-1.25S6.311,2.25,7,2.25S8.25,2.811,8.25,3.5S7.689,4.75,7,4.75z
	 M7,2.75c-0.414,0-0.75,0.336-0.75,0.75S6.586,4.25,7,4.25S7.75,3.914,7.75,3.5S7.414,2.75,7,2.75z"/>
<path style="fill:#333333;" d="M14,16.25h-4c-1.241,0-2.25-1.01-2.25-2.25s1.009-2.25,2.25-2.25h4c1.24,0,2.25,1.01,2.25,2.25
	S15.24,16.25,14,16.25z M10,12.25c-0.965,0-1.75,0.785-1.75,1.75s0.785,1.75,1.75,1.75h4c0.965,0,1.75-0.785,1.75-1.75
	s-0.785-1.75-1.75-1.75H10z"/>
<polygon style="fill:#333333;" points="4.5,17.25 1.75,17.25 1.75,11.75 4.5,11.75 4.5,12.25 2.25,12.25 2.25,16.75 4.5,16.75 "/>
<polygon style="fill:#333333;" points="22.25,17.25 19.5,17.25 19.5,16.75 21.75,16.75 21.75,12.25 19.5,12.25 19.5,11.75 
	22.25,11.75 "/>
</svg>






