<?xml version="1.0" encoding="iso-8859-1"?>
<svg version="1.1" id="&#x56FE;&#x5C42;_1" xmlns="http://www.w3.org/2000/svg" xmlns:xlink="http://www.w3.org/1999/xlink" x="0px"
	 y="0px" viewBox="0 0 24 24" style="enable-background:new 0 0 24 24;" xml:space="preserve">
<path style="fill:#333333;" d="M18.5,21.25h-13c-0.689,0-1.25-0.561-1.25-1.25V10c0-0.689,0.561-1.25,1.25-1.25h13
	c0.689,0,1.25,0.561,1.25,1.25v10C19.75,20.689,19.189,21.25,18.5,21.25z M5.5,9.25c-0.414,0-0.75,0.336-0.75,0.75v10
	c0,0.413,0.336,0.75,0.75,0.75h13c0.413,0,0.75-0.337,0.75-0.75V10c0-0.414-0.337-0.75-0.75-0.75H5.5z"/>
<circle style="fill:#333333;" cx="8.5" cy="13" r="1"/>
<circle style="fill:#333333;" cx="15.5" cy="13" r="1"/>
<path style="fill:#333333;" d="M10,16c-0.552,0-1,0.448-1,1s0.448,1,1,1V16z M14,18c0.552,0,1-0.448,1-1s-0.448-1-1-1V18z M10,18h4
	v-2h-4V18z"/>
<rect x="11.75" y="5" style="fill:#333333;" width="0.5" height="4"/>
<rect x="1.75" y="13" style="fill:#333333;" width="0.5" height="4"/>
<rect x="21.75" y="13" style="fill:#333333;" width="0.5" height="4"/>
<path style="fill:#333333;" d="M12,5.25c-0.689,0-1.25-0.561-1.25-1.25S11.311,2.75,12,2.75S13.25,3.311,13.25,4
	S12.689,5.25,12,5.25z M12,3.25c-0.414,0-0.75,0.336-0.75,0.75S11.586,4.75,12,4.75c0.413,0,0.75-0.336,0.75-0.75
	S12.413,3.25,12,3.25z"/>
</svg>






