<?xml version="1.0" encoding="iso-8859-1"?>
<svg version="1.1" id="&#x56FE;&#x5C42;_1" xmlns="http://www.w3.org/2000/svg" xmlns:xlink="http://www.w3.org/1999/xlink" x="0px"
	 y="0px" viewBox="0 0 24 24" style="enable-background:new 0 0 24 24;" xml:space="preserve">
<path style="fill:#333333;" d="M21.75,21.25H2.25V17.5c0-0.689,0.561-1.25,1.25-1.25h17c0.689,0,1.25,0.561,1.25,1.25V21.25z
	 M2.75,20.75h18.5V17.5c0-0.413-0.337-0.75-0.75-0.75h-17c-0.414,0-0.75,0.337-0.75,0.75V20.75z"/>
<polygon style="fill:#333333;" points="21,9.25 16.896,9.25 13.646,6 16.896,2.75 21,2.75 21,3.25 17.104,3.25 14.354,6 
	17.104,8.75 21,8.75 "/>
<path style="fill:#333333;" d="M4,8.25C2.759,8.25,1.75,7.241,1.75,6S2.759,3.75,4,3.75S6.25,4.759,6.25,6S5.241,8.25,4,8.25z
	 M4,4.25C3.035,4.25,2.25,5.035,2.25,6S3.035,7.75,4,7.75S5.75,6.965,5.75,6S4.965,4.25,4,4.25z"/>
<rect x="6" y="5.75" style="fill:#333333;" width="8" height="0.5"/>
<rect x="6.75" y="7.553" transform="matrix(0.9048 -0.4258 0.4258 0.9048 -4.5497 4.1466)" style="fill:#333333;" width="0.5" height="9.394"/>
</svg>






