<?xml version="1.0" encoding="iso-8859-1"?>
<svg version="1.1" id="&#x56FE;&#x5C42;_1" xmlns="http://www.w3.org/2000/svg" xmlns:xlink="http://www.w3.org/1999/xlink" x="0px"
	 y="0px" viewBox="0 0 24 24" style="enable-background:new 0 0 24 24;" xml:space="preserve">
<path style="fill:#333333;" d="M17,14.75H6.858l-0.073-0.121C6.723,14.524,5.25,12.034,5.25,9V8.75h8.011
	c0.046-0.651,0.286-2.439,1.55-3.913c1.515-1.768,3.015-2.529,3.078-2.561l0.166-0.083l4.195,4.458V9.59l-4.158-1.299
	c-1.76,2.381-0.858,6.111-0.85,6.149l0.078,0.311H17z M7.146,14.25h9.544c-0.195-1.01-0.634-4.221,1.114-6.406l0.106-0.133
	l3.839,1.2V6.849l-3.799-4.037c-0.42,0.243-1.597,0.991-2.762,2.35C13.767,6.823,13.75,8.979,13.75,9v0.25H5.753
	C5.822,11.67,6.866,13.737,7.146,14.25z"/>
<polygon style="fill:#333333;" points="17.27,20.596 14.77,14.596 15.23,14.404 17.73,20.404 "/>
<polygon style="fill:#333333;" points="6.731,20.596 6.269,20.404 8.769,14.404 9.231,14.596 "/>
<path style="fill:#333333;" d="M12,21.75c-7.023,0-10.051-2.947-10.177-3.073l0.353-0.354C2.206,18.353,5.202,21.25,12,21.25
	s9.794-2.897,9.823-2.927l0.354,0.354C22.052,18.803,19.022,21.75,12,21.75z"/>
<path style="fill:#333333;" d="M5.75,9h-0.5c0-1.33-0.854-2.75-3.25-2.75v-0.5C4.768,5.75,5.75,7.501,5.75,9z"/>
</svg>






