<?xml version="1.0" encoding="iso-8859-1"?>
<svg version="1.1" id="&#x56FE;&#x5C42;_1" xmlns="http://www.w3.org/2000/svg" xmlns:xlink="http://www.w3.org/1999/xlink" x="0px"
	 y="0px" viewBox="0 0 24 24" style="enable-background:new 0 0 24 24;" xml:space="preserve">
<path style="fill:#333333;" d="M12.221,22.562c-2.198,0-4.252-1.536-4.84-2.124c-0.203-0.203-0.398-0.434-0.579-0.686
	c-0.28-0.391-0.249-0.913,0.077-1.271c0.524-0.578,1.331-1.232,2.169-1.062c0.423,0.085,0.769,0.187,1.074,0.276
	c0.739,0.219,1.186,0.351,1.954,0.027c1.041-0.438,1.399-1.363,1.292-2.038c-0.156-0.988-0.676-1.6-1.544-1.816
	c-1.086-0.268-2.066,0.293-2.298,0.99c-0.084,0.253-0.115,0.481-0.146,0.702c-0.069,0.509-0.134,0.99-0.818,1.446
	c-0.267,0.178-0.644,0.363-1.12,0.554c-0.33,0.131-0.698,0.104-0.986-0.077c-0.275-0.171-0.447-0.458-0.473-0.788
	c-0.073-0.963,0.008-2.813,1.386-4.388C9.398,9.989,11.073,9.986,11.692,10l0.058,0.5h-0.06c-0.632-0.017-2.066-0.009-3.945,2.139
	c-1.257,1.436-1.331,3.135-1.264,4.02c0.013,0.172,0.098,0.314,0.238,0.402c0.154,0.096,0.354,0.109,0.536,0.036
	c0.438-0.175,0.793-0.349,1.028-0.505c0.496-0.331,0.538-0.636,0.6-1.098c0.032-0.232,0.067-0.495,0.167-0.793
	c0.341-1.021,1.667-1.623,2.894-1.316c1.065,0.266,1.729,1.034,1.917,2.223c0.167,1.052-0.487,2.111-1.593,2.577
	c-0.931,0.393-1.53,0.215-2.288-0.009C9.686,18.089,9.351,17.99,8.95,17.91c-0.638-0.131-1.343,0.513-1.701,0.907
	c-0.168,0.186-0.185,0.444-0.041,0.645c0.165,0.229,0.342,0.439,0.526,0.623c0.483,0.482,2.738,2.227,4.984,1.947
	c2.104-0.263,4.109-1.825,4.994-3.889c0.793-1.852,0.58-4.487-1.362-5.943l0.301-0.4c2.147,1.611,2.391,4.51,1.521,6.541
	c-0.951,2.221-3.118,3.903-5.391,4.188C12.594,22.552,12.406,22.562,12.221,22.562z"/>
<path style="fill:#333333;" d="M13.274,15.108c-0.72-1.499-3.229-10.231-3.497-11.41c-0.182-0.8,0.192-1.513,1.051-2.006
	c0.159-0.09,0.344-0.111,0.521-0.059c0.188,0.057,0.348,0.193,0.438,0.374l4.936,9.88l-0.447,0.223L11.34,2.232
	c-0.029-0.059-0.079-0.102-0.135-0.119c-0.046-0.014-0.087-0.009-0.127,0.014C10.616,2.392,10.1,2.86,10.265,3.588
	c0.262,1.152,2.775,9.877,3.46,11.303L13.274,15.108z"/>
<path style="fill:#333333;" d="M17.75,13.513l-0.474-9.655c-0.003-0.063-0.029-0.123-0.073-0.161
	c-0.034-0.031-0.087-0.05-0.117-0.042c-0.538,0.034-1.215,0.229-1.387,0.961c-0.271,1.162-0.442,2.843-0.449,4.385l-0.5-0.002
	c0.007-1.577,0.184-3.301,0.463-4.497c0.188-0.805,0.842-1.283,1.841-1.346c0.171-0.011,0.348,0.047,0.481,0.167
	c0.144,0.127,0.23,0.313,0.241,0.51l0.474,9.655L17.75,13.513z"/>
</svg>






