<?xml version="1.0" encoding="iso-8859-1"?>
<svg version="1.1" id="&#x56FE;&#x5C42;_1" xmlns="http://www.w3.org/2000/svg" xmlns:xlink="http://www.w3.org/1999/xlink" x="0px"
	 y="0px" viewBox="0 0 24 24" style="enable-background:new 0 0 24 24;" xml:space="preserve">
<path style="fill:#333333;" d="M13,22.25H6.5c-0.065,0-1.616-0.012-2.677-1.073C2.762,20.116,2.75,18.806,2.75,18.75V6.391
	c0-0.457,0.314-1.641,1.75-1.641c1.284,0,1.75,0.981,1.75,1.641V12.5h-0.5V6.391c0-0.046-0.014-1.141-1.25-1.141
	S3.25,6.379,3.25,6.391V18.75c0,0.011,0.017,1.163,0.927,2.073c0.912,0.912,2.31,0.927,2.324,0.927H13
	c1.021,0,3.168-3.142,4.282-5.123l0.041-0.054l3.25-3.25c0.656-0.656,0.656-1.24,0-1.896c-0.764-0.765-1.645-0.002-1.896,0.25
	l-3.5,3.5L14.75,15V3.75c0-0.451-0.122-1.5-1.25-1.5s-1.25,1.049-1.25,1.5v8.75h-0.5V3.75c0-0.967,0.46-2,1.75-2s1.75,1.033,1.75,2
	v10.646l3.073-3.073c0.867-0.866,1.888-0.966,2.604-0.25c0.852,0.852,0.852,1.752,0,2.604l-3.226,3.226
	C17.319,17.578,14.619,22.25,13,22.25z"/>
<path style="fill:#333333;" d="M7.5,15.75c-0.965,0-1.75-0.785-1.75-1.75v-3c0-0.965,0.785-1.75,1.75-1.75S9.25,10.035,9.25,11v3
	C9.25,14.965,8.465,15.75,7.5,15.75z M7.5,9.75c-0.689,0-1.25,0.561-1.25,1.25v3c0,0.689,0.561,1.25,1.25,1.25S8.75,14.689,8.75,14
	v-3C8.75,10.311,8.189,9.75,7.5,9.75z"/>
<path style="fill:#333333;" d="M10.5,15.75c-0.965,0-1.75-0.785-1.75-1.75v-3c0-0.965,0.785-1.75,1.75-1.75s1.75,0.785,1.75,1.75v3
	C12.25,14.965,11.465,15.75,10.5,15.75z M10.5,9.75c-0.689,0-1.25,0.561-1.25,1.25v3c0,0.689,0.561,1.25,1.25,1.25
	s1.25-0.561,1.25-1.25v-3C11.75,10.311,11.189,9.75,10.5,9.75z"/>
</svg>






