<?xml version="1.0" encoding="iso-8859-1"?>
<svg version="1.1" id="&#x56FE;&#x5C42;_1" xmlns="http://www.w3.org/2000/svg" xmlns:xlink="http://www.w3.org/1999/xlink" x="0px"
	 y="0px" viewBox="0 0 24 24" style="enable-background:new 0 0 24 24;" xml:space="preserve">
<path style="fill:#333333;" d="M17.75,18.75H6.25V9.586c0-2.296,1.104-4.48,2.955-5.84L12,1.689l2.796,2.057
	c1.85,1.36,2.954,3.543,2.954,5.84V18.75z M6.75,18.25h10.5V9.586c0-2.139-1.028-4.171-2.751-5.438L12,2.311L9.5,4.148
	c-1.722,1.267-2.75,3.3-2.75,5.438V18.25z"/>
<path style="fill:#333333;" d="M3.25,15.904v-4.508l3.073-3.073L6.75,8.5v5.654L3.25,15.904z M3.75,11.604v3.492l2.5-1.25V9.104
	L3.75,11.604z"/>
<path style="fill:#333333;" d="M20.75,15.904l-3.5-1.75V8.5l0.427-0.177l3.073,3.073V15.904z M17.75,13.846l2.5,1.25v-3.492
	l-2.5-2.5V13.846z"/>
<rect x="8.75" y="19.5" style="fill:#333333;" width="0.5" height="1.5"/>
<rect x="11.75" y="19.5" style="fill:#333333;" width="0.5" height="2.5"/>
<rect x="14.75" y="19.5" style="fill:#333333;" width="0.5" height="1.5"/>
</svg>






