<?xml version="1.0" encoding="iso-8859-1"?>
<svg version="1.1" id="&#x56FE;&#x5C42;_1" xmlns="http://www.w3.org/2000/svg" xmlns:xlink="http://www.w3.org/1999/xlink" x="0px"
	 y="0px" viewBox="0 0 24 24" style="enable-background:new 0 0 24 24;" xml:space="preserve">
<path style="fill:#333333;" d="M22,6.25h-8L13.75,6V2L14,1.75h8L22.25,2v4L22,6.25z M14.25,5.75h7.5v-3.5h-7.5V5.75z"/>
<path style="fill:#333333;" d="M21,18.25H4c-1.241,0-2.25-1.01-2.25-2.25v-3c0-2.343,1.907-4.25,4.25-4.25h7.75V6L14,5.75h8L22.25,6
	v11C22.25,17.689,21.689,18.25,21,18.25z M6,9.25c-2.068,0-3.75,1.682-3.75,3.75v3c0,0.965,0.785,1.75,1.75,1.75h17
	c0.413,0,0.75-0.337,0.75-0.75V6.25h-7.5V9L14,9.25H6z"/>
<rect x="6.75" y="9" style="fill:#333333;" width="0.5" height="3"/>
<rect x="10.25" y="9" style="fill:#333333;" width="0.5" height="3"/>
<rect x="6" y="8.75" style="fill:#333333;" width="5.5" height="0.5"/>
<path style="fill:#333333;" d="M4.5,22.25c-1.241,0-2.25-1.01-2.25-2.25s1.009-2.25,2.25-2.25S6.75,18.76,6.75,20
	S5.741,22.25,4.5,22.25z M4.5,18.25c-0.965,0-1.75,0.785-1.75,1.75s0.785,1.75,1.75,1.75S6.25,20.965,6.25,20S5.465,18.25,4.5,18.25
	z"/>
<path style="fill:#333333;" d="M9.665,22.25c-1.241,0-2.25-1.01-2.25-2.25s1.009-2.25,2.25-2.25s2.25,1.01,2.25,2.25
	S10.906,22.25,9.665,22.25z M9.665,18.25c-0.965,0-1.75,0.785-1.75,1.75s0.785,1.75,1.75,1.75s1.75-0.785,1.75-1.75
	S10.63,18.25,9.665,18.25z"/>
<path style="fill:#333333;" d="M14.835,22.25c-1.24,0-2.25-1.01-2.25-2.25s1.01-2.25,2.25-2.25s2.25,1.01,2.25,2.25
	S16.075,22.25,14.835,22.25z M14.835,18.25c-0.965,0-1.75,0.785-1.75,1.75s0.785,1.75,1.75,1.75s1.75-0.785,1.75-1.75
	S15.8,18.25,14.835,18.25z"/>
<path style="fill:#333333;" d="M20,22.25c-1.24,0-2.25-1.01-2.25-2.25s1.01-2.25,2.25-2.25s2.25,1.01,2.25,2.25
	S21.24,22.25,20,22.25z M20,18.25c-0.965,0-1.75,0.785-1.75,1.75s0.785,1.75,1.75,1.75s1.75-0.785,1.75-1.75S20.965,18.25,20,18.25z
	"/>
</svg>






