<?xml version="1.0" encoding="iso-8859-1"?>
<svg version="1.1" id="&#x56FE;&#x5C42;_1" xmlns="http://www.w3.org/2000/svg" xmlns:xlink="http://www.w3.org/1999/xlink" x="0px"
	 y="0px" viewBox="0 0 24 24" style="enable-background:new 0 0 24 24;" xml:space="preserve">
<path style="fill:#333333;" d="M13.25,22.25h-2.499L10.75,22c0-0.014-0.016-1.447-0.958-2.861c-0.504-0.757-1.295-1.097-1.87-1.249
	c-0.69-0.183-1.172-0.754-1.172-1.389v-5.003c0-0.413-0.336-0.748-0.75-0.748H4.244c-0.556,0-1.038-0.358-1.197-0.891L1.964,6.251
	C1.809,5.732,2.009,5.173,2.452,4.893C4.009,3.906,7.32,2.25,12,2.25c4.341,0,7.568,1.434,9.512,2.636
	c0.464,0.288,0.676,0.861,0.515,1.395l-1.073,3.578c-0.159,0.533-0.641,0.891-1.197,0.891H18c-0.413,0-0.75,0.335-0.75,0.748v5.003
	c0,0.635-0.482,1.206-1.172,1.389c-0.575,0.152-1.365,0.492-1.87,1.249C13.261,20.56,13.25,21.985,13.25,22V22.25z M11.237,21.75
	h1.527c0.043-0.504,0.23-1.691,1.028-2.889c0.592-0.887,1.5-1.28,2.157-1.454c0.398-0.105,0.801-0.451,0.801-0.906v-5.003
	c0-0.688,0.561-1.248,1.25-1.248h1.756c0.329,0,0.624-0.22,0.719-0.535l1.073-3.578c0.096-0.318-0.027-0.657-0.3-0.826
	C19.36,4.143,16.223,2.75,12,2.75c-4.554,0-7.769,1.607-9.28,2.564C2.461,5.479,2.35,5.797,2.443,6.107l1.083,3.608
	c0.096,0.32,0.385,0.535,0.719,0.535H6c0.689,0,1.25,0.56,1.25,1.248v5.003c0,0.455,0.403,0.8,0.8,0.906
	c0.658,0.174,1.567,0.567,2.158,1.454C11.006,20.059,11.193,21.246,11.237,21.75z"/>
<path style="fill:#333333;" d="M12,6.75c-1.792,0-3.25-1.458-3.25-3.25c0-0.276,0.035-0.549,0.103-0.812l0.484,0.125
	C9.279,3.035,9.25,3.267,9.25,3.5c0,1.517,1.233,2.75,2.75,2.75s2.75-1.233,2.75-2.75c0-0.232-0.029-0.463-0.087-0.688l0.484-0.124
	C15.216,2.953,15.25,3.227,15.25,3.5C15.25,5.292,13.792,6.75,12,6.75z"/>
<path style="fill:#333333;" d="M6.821,3.487L6.679,3.007c3.407-1.004,7.231-1.006,10.621,0l-0.143,0.479
	C13.859,2.508,10.136,2.509,6.821,3.487z"/>
</svg>






