<?xml version="1.0" encoding="iso-8859-1"?>
<svg version="1.1" id="&#x56FE;&#x5C42;_1" xmlns="http://www.w3.org/2000/svg" xmlns:xlink="http://www.w3.org/1999/xlink" x="0px"
	 y="0px" viewBox="0 0 24 24" style="enable-background:new 0 0 24 24;" xml:space="preserve">
<path style="fill:#333333;" d="M15.5,22.25c-2.067,0-3.75-1.683-3.75-3.75v-13c0-1.792-1.458-3.25-3.25-3.25S5.25,3.708,5.25,5.5V16
	h-0.5V5.5c0-2.068,1.682-3.75,3.75-3.75s3.75,1.682,3.75,3.75v13c0,1.792,1.458,3.25,3.25,3.25s3.25-1.458,3.25-3.25V8h0.5v10.5
	C19.25,20.567,17.567,22.25,15.5,22.25z"/>
<path style="fill:none;" d="M20.5,2v6h-3V2H20.5z"/>
<path style="fill:#333333;" d="M22,8.25h-1.5V8v0.25H16v-0.5h1.25v-6h3.5v6H22V8.25z M17.75,7.75h2.5v-5.5h-2.5V7.75z"/>
<path style="fill:none;" d="M3.5,22v-6h3v6H3.5z"/>
<path style="fill:#333333;" d="M6.75,22.25h-3.5v-6H2v-0.5h4.5V16v-0.25H8v0.5H6.75V22.25z M3.75,21.75h2.5v-5.5h-2.5V21.75z"/>
</svg>






