<?xml version="1.0" encoding="iso-8859-1"?>
<svg version="1.1" id="&#x56FE;&#x5C42;_1" xmlns="http://www.w3.org/2000/svg" xmlns:xlink="http://www.w3.org/1999/xlink" x="0px"
	 y="0px" viewBox="0 0 24 24" style="enable-background:new 0 0 24 24;" xml:space="preserve">
<path style="fill:#333333;" d="M21.25,21.25H5.75v-9.5h15.5V21.25z M6.25,20.75h14.5v-8.5H6.25V20.75z"/>
<polygon style="fill:#333333;" points="7.5,8.75 2.75,8.75 2.75,4 3.25,4 3.25,8.25 7.5,8.25 "/>
<path style="fill:#333333;" d="M3.182,8.671L2.818,8.329l1.856-1.975C6.425,4.07,9.102,2.75,12,2.75c2.919,0,5.699,1.402,7.438,3.75
	l-0.402,0.298C17.392,4.577,14.761,3.25,12,3.25c-2.742,0-5.273,1.249-6.945,3.427L3.182,8.671z"/>
</svg>






