<?xml version="1.0" encoding="iso-8859-1"?>
<svg version="1.1" id="&#x56FE;&#x5C42;_1" xmlns="http://www.w3.org/2000/svg" xmlns:xlink="http://www.w3.org/1999/xlink" x="0px"
	 y="0px" viewBox="0 0 24 24" style="enable-background:new 0 0 24 24;" xml:space="preserve">
<path style="fill:#333333;" d="M2.25,12h-0.5c0-3.357,1.663-6.506,4.393-8.412H3.338v-0.5H7v0.25h0.25V7h-0.5V3.783
	C3.963,5.568,2.25,8.677,2.25,12z"/>
<path style="fill:#333333;" d="M12,22.25c-3.357,0-6.506-1.663-8.412-4.393v2.805h-0.5V17h0.25v-0.25H7v0.5H3.783
	c1.785,2.786,4.894,4.5,8.217,4.5V22.25z"/>
<path style="fill:#333333;" d="M20.662,20.912H17v-0.25h-0.25V17h0.5v3.217c2.787-1.784,4.5-4.893,4.5-8.217h0.5
	c0,3.357-1.663,6.507-4.393,8.412h2.805V20.912z"/>
<path style="fill:#333333;" d="M20.662,7.25H17v-0.5h3.217c-1.785-2.787-4.895-4.5-8.217-4.5v-0.5c3.356,0,6.506,1.663,8.412,4.393
	V3.338h0.5V7h-0.25V7.25z"/>
</svg>






