<?xml version="1.0" encoding="iso-8859-1"?>
<svg version="1.1" id="&#x56FE;&#x5C42;_1" xmlns="http://www.w3.org/2000/svg" xmlns:xlink="http://www.w3.org/1999/xlink" x="0px"
	 y="0px" viewBox="0 0 24 24" style="enable-background:new 0 0 24 24;" xml:space="preserve">
<path style="fill:#333333;" d="M7,7.25H3.338V7h-0.25V3.338h0.5v2.805C5.494,3.413,8.643,1.75,12,1.75v0.5
	c-3.323,0-6.432,1.713-8.217,4.5H7V7.25z"/>
<path style="fill:#333333;" d="M7,20.912H3.338v-0.5h2.804C3.413,18.507,1.75,15.357,1.75,12h0.5c0,3.323,1.713,6.433,4.5,8.217V17
	h0.5v3.662H7V20.912z"/>
<path style="fill:#333333;" d="M12,22.25v-0.5c3.324,0,6.433-1.713,8.217-4.5H17v-0.5h3.662V17h0.25v3.662h-0.5v-2.805
	C18.507,20.587,15.357,22.25,12,22.25z"/>
<path style="fill:#333333;" d="M22.25,12h-0.5c0-3.323-1.714-6.432-4.5-8.217V7h-0.5V3.338H17v-0.25h3.662v0.5h-2.805
	C20.587,5.494,22.25,8.643,22.25,12z"/>
<rect x="9" y="11.75" style="fill:#333333;" width="6" height="0.5"/>
<rect x="11.75" y="9" style="fill:#333333;" width="0.5" height="6"/>
</svg>






