<?xml version="1.0" encoding="iso-8859-1"?>
<svg version="1.1" id="&#x56FE;&#x5C42;_1" xmlns="http://www.w3.org/2000/svg" xmlns:xlink="http://www.w3.org/1999/xlink" x="0px"
	 y="0px" viewBox="0 0 24 24" style="enable-background:new 0 0 24 24;" xml:space="preserve">
<polygon style="fill:#333333;" points="10.177,19.677 9.823,19.323 11.646,17.5 9.823,15.677 10.177,15.323 12.354,17.5 "/>
<path style="fill:#333333;" d="M12,17.75c-5.652,0-10.25-2.355-10.25-5.25c0-2.895,4.598-5.25,10.25-5.25
	c5.652,0,10.25,2.355,10.25,5.25c0,2.111-2.433,4.006-6.196,4.828l-0.107-0.488c3.525-0.771,5.804-2.474,5.804-4.34
	c0-2.619-4.374-4.75-9.75-4.75S2.25,9.881,2.25,12.5s4.374,4.75,9.75,4.75V17.75z"/>
</svg>






