<?xml version="1.0" encoding="iso-8859-1"?>
<svg version="1.1" id="&#x56FE;&#x5C42;_1" xmlns="http://www.w3.org/2000/svg" xmlns:xlink="http://www.w3.org/1999/xlink" x="0px"
	 y="0px" viewBox="0 0 24 24" style="enable-background:new 0 0 24 24;" xml:space="preserve">
<path style="fill:#333333;" d="M4.036,16.015c-0.33,0-0.659-0.078-0.968-0.234c-0.74-0.373-1.259-1.125-1.354-1.963
	c-0.166-1.459,0.517-3.79,0.546-3.888l0.119-0.403l2.158,2.158l12.917-7.95l4.6,1.022l0.077,0.457
	C21.976,5.31,6.476,14.937,5.125,15.717C4.781,15.915,4.409,16.015,4.036,16.015z M2.628,10.482
	c-0.187,0.729-0.533,2.268-0.417,3.279c0.076,0.673,0.491,1.275,1.082,1.573c0.514,0.261,1.076,0.241,1.582-0.051
	c1.203-0.694,13.743-8.478,16.473-10.172l-3.803-0.845l-13.082,8.05L2.628,10.482z"/>
<polygon style="fill:#333333;" points="7.323,10.177 3.593,6.446 5.344,5.435 13.026,6.251 12.974,6.749 5.454,5.95 4.407,6.554 
	7.677,9.823 "/>
<polygon style="fill:#333333;" points="14.305,22.156 12.305,19.656 12.5,19.25 20.75,19.25 20.75,17.5 21.25,17.5 21.25,19.75 
	13.021,19.75 14.695,21.844 "/>
<polygon style="fill:#333333;" points="9.75,18.5 9.25,18.5 9.25,16.25 17.479,16.25 15.805,14.156 16.195,13.844 18.195,16.344 
	18,16.75 9.75,16.75 "/>
</svg>






