<?xml version="1.0" encoding="iso-8859-1"?>
<svg version="1.1" id="&#x56FE;&#x5C42;_1" xmlns="http://www.w3.org/2000/svg" xmlns:xlink="http://www.w3.org/1999/xlink" x="0px"
	 y="0px" viewBox="0 0 24 24" style="enable-background:new 0 0 24 24;" xml:space="preserve">
<path style="fill:#333333;" d="M12,22.25C6.348,22.25,1.75,17.652,1.75,12C1.75,6.348,6.348,1.75,12,1.75
	c5.652,0,10.25,4.598,10.25,10.25C22.25,17.652,17.652,22.25,12,22.25z M12,2.25c-5.376,0-9.75,4.374-9.75,9.75
	s4.374,9.75,9.75,9.75s9.75-4.374,9.75-9.75S17.376,2.25,12,2.25z"/>
<path style="fill:#333333;" d="M12,14.25c-1.241,0-2.25-1.01-2.25-2.25c0-1.241,1.009-2.25,2.25-2.25c1.24,0,2.25,1.009,2.25,2.25
	C14.25,13.24,13.24,14.25,12,14.25z M12,10.25c-0.965,0-1.75,0.785-1.75,1.75s0.785,1.75,1.75,1.75s1.75-0.785,1.75-1.75
	S12.965,10.25,12,10.25z"/>
<path style="fill:#333333;" d="M17.281,20.788l-2.411-3.799l0.211-0.134c0.814-0.518,1.492-1.239,1.958-2.085
	c0.465-0.848,0.711-1.806,0.711-2.771v-0.25h4.5V12c0,1.722-0.438,3.43-1.269,4.938c-0.829,1.51-2.036,2.795-3.489,3.717
	L17.281,20.788z M15.558,17.14l1.876,2.956c1.289-0.866,2.361-2.036,3.11-3.398s1.163-2.895,1.203-4.447h-3.502
	c-0.039,0.964-0.303,1.913-0.769,2.761S16.351,16.59,15.558,17.14z"/>
<path style="fill:#333333;" d="M6.792,20.832l-0.212-0.133c-1.461-0.91-2.678-2.186-3.521-3.688
	c-0.842-1.501-1.294-3.205-1.308-4.927l-0.002-0.25l4.5-0.037l0.002,0.25c0.008,0.966,0.262,1.922,0.734,2.764
	c0.472,0.842,1.154,1.558,1.975,2.069l0.212,0.132L6.792,20.832z M2.256,12.331c0.053,1.553,0.479,3.081,1.239,4.437
	c0.76,1.356,1.842,2.518,3.138,3.373l1.852-2.973c-0.798-0.544-1.465-1.27-1.937-2.112c-0.473-0.843-0.744-1.79-0.791-2.754
	L2.256,12.331z"/>
<path style="fill:#333333;" d="M15.011,7.095l-0.218-0.121c-0.845-0.469-1.802-0.719-2.768-0.724c-0.008,0-0.017,0-0.024,0
	c-0.958,0-1.907,0.242-2.749,0.699l-0.22,0.119l-2.15-3.953l0.219-0.12c1.512-0.822,3.22-1.283,4.943-1.246
	c1.722,0.007,3.427,0.454,4.933,1.29l0.219,0.122L15.011,7.095z M12.001,5.75c0.009,0,0.018,0,0.026,0
	c0.967,0.004,1.925,0.235,2.787,0.669l1.7-3.061c-1.377-0.719-2.918-1.102-4.472-1.108c-1.524-0.002-3.099,0.363-4.481,1.069
	l1.673,3.076C10.093,5.972,11.043,5.75,12.001,5.75z"/>
</svg>






