<?xml version="1.0" encoding="iso-8859-1"?>
<svg version="1.1" id="&#x56FE;&#x5C42;_1" xmlns="http://www.w3.org/2000/svg" xmlns:xlink="http://www.w3.org/1999/xlink" x="0px"
	 y="0px" viewBox="0 0 24 24" style="enable-background:new 0 0 24 24;" xml:space="preserve">
<path style="fill:#333333;" d="M12,22.25C6.348,22.25,1.75,17.652,1.75,12C1.75,6.348,6.348,1.75,12,1.75
	c5.652,0,10.25,4.598,10.25,10.25C22.25,17.652,17.652,22.25,12,22.25z M12,2.25c-5.376,0-9.75,4.374-9.75,9.75
	s4.374,9.75,9.75,9.75s9.75-4.374,9.75-9.75S17.376,2.25,12,2.25z"/>
<path style="fill:#333333;" d="M12,22.25c-2.895,0-5.25-2.355-5.25-5.25s2.355-5.25,5.25-5.25c2.619,0,4.75-2.131,4.75-4.75
	S14.619,2.25,12,2.25v-0.5c2.895,0,5.25,2.355,5.25,5.25s-2.355,5.25-5.25,5.25c-2.619,0-4.75,2.131-4.75,4.75s2.131,4.75,4.75,4.75
	V22.25z"/>
<path style="fill:#333333;" d="M17,17.25c-2.895,0-5.25-2.355-5.25-5.25c0-2.619-2.131-4.75-4.75-4.75S2.25,9.381,2.25,12h-0.5
	c0-2.895,2.355-5.25,5.25-5.25s5.25,2.355,5.25,5.25c0,2.619,2.131,4.75,4.75,4.75s4.75-2.131,4.75-4.75h0.5
	C22.25,14.895,19.895,17.25,17,17.25z"/>
</svg>






