<?xml version="1.0" encoding="iso-8859-1"?>
<svg version="1.1" id="&#x56FE;&#x5C42;_1" xmlns="http://www.w3.org/2000/svg" xmlns:xlink="http://www.w3.org/1999/xlink" x="0px"
	 y="0px" viewBox="0 0 24 24" style="enable-background:new 0 0 24 24;" xml:space="preserve">
<path style="fill:#333333;" d="M21,21.25H3c-0.689,0-1.25-0.561-1.25-1.25v-5c0-0.689,0.561-1.25,1.25-1.25h18
	c0.689,0,1.25,0.561,1.25,1.25v5C22.25,20.689,21.689,21.25,21,21.25z M3,14.25c-0.414,0-0.75,0.337-0.75,0.75v5
	c0,0.413,0.336,0.75,0.75,0.75h18c0.413,0,0.75-0.337,0.75-0.75v-5c0-0.413-0.337-0.75-0.75-0.75H3z"/>
<rect x="7" y="17.25" style="fill:#333333;" width="4" height="0.5"/>
<path style="fill:#333333;" d="M16,16.5L16,16.5c0.552,0,1,0.448,1,1l0,0c0,0.552-0.448,1-1,1l0,0c-0.552,0-1-0.448-1-1l0,0
	C15,16.948,15.448,16.5,16,16.5z"/>
<rect x="5.75" y="4" style="fill:#333333;" width="0.5" height="10"/>
<rect x="17.75" y="4" style="fill:#333333;" width="0.5" height="10"/>
</svg>






