<?xml version="1.0" encoding="iso-8859-1"?>
<svg version="1.1" id="&#x56FE;&#x5C42;_1" xmlns="http://www.w3.org/2000/svg" xmlns:xlink="http://www.w3.org/1999/xlink" x="0px"
	 y="0px" viewBox="0 0 24 24" style="enable-background:new 0 0 24 24;" xml:space="preserve">
<path style="fill:#333333;" d="M15.01,8.25c-1.517,0-2.75-1.233-2.75-2.75s1.233-2.75,2.75-2.75s2.75,1.233,2.75,2.75
	S16.526,8.25,15.01,8.25z M15.01,3.25c-1.24,0-2.25,1.009-2.25,2.25s1.01,2.25,2.25,2.25s2.25-1.009,2.25-2.25
	S16.25,3.25,15.01,3.25z"/>
<rect x="15.559" y="18.501" transform="matrix(0.4736 -0.8807 0.8807 0.4736 -6.381 26.8233)" style="fill:#333333;" width="7.382" height="0.499"/>
<polygon style="fill:#333333;" points="4.636,20.21 4.286,19.871 10.286,9.872 10.553,9.756 22.053,12.256 21.947,12.744 
	10.622,10.282 5.269,19.205 12.864,14.29 13.22,14.38 16.225,19.88 15.785,20.12 12.91,14.856 "/>
<rect x="2" y="19.75" style="fill:#333333;" width="20" height="0.5"/>
</svg>






