<?xml version="1.0" encoding="iso-8859-1"?>
<svg version="1.1" id="&#x56FE;&#x5C42;_1" xmlns="http://www.w3.org/2000/svg" xmlns:xlink="http://www.w3.org/1999/xlink" x="0px"
	 y="0px" viewBox="0 0 24 24" style="enable-background:new 0 0 24 24;" xml:space="preserve">
<g>
	<defs>
		<rect id="SVGID_1_" width="24" height="24"/>
	</defs>
	<clipPath id="SVGID_00000085964685372216159620000002279748861208837769_">
		<use xlink:href="#SVGID_1_"  style="overflow:visible;"/>
	</clipPath>
	<g style="clip-path:url(#SVGID_00000085964685372216159620000002279748861208837769_);">
		<path style="fill:#333333;" d="M7.143,22.063c-1.527,0-2.855-0.452-3.805-1.401c-1.388-1.388-1.771-3.599-1.08-6.226
			c0.679-2.58,2.318-5.266,4.615-7.563c2.297-2.297,4.983-3.937,7.563-4.615c2.625-0.692,4.838-0.308,6.226,1.08
			c2.826,2.827,1.24,9.013-3.536,13.789C13.954,20.299,10.162,22.063,7.143,22.063z M16.852,2.422c-0.709,0-1.476,0.106-2.288,0.319
			c-2.495,0.657-5.101,2.25-7.336,4.485c-2.236,2.235-3.829,4.841-4.485,7.336c-0.644,2.448-0.307,4.488,0.95,5.745
			c2.632,2.632,8.499,1.045,13.081-3.535c4.581-4.581,6.168-10.45,3.536-13.082C19.469,2.852,18.279,2.422,16.852,2.422z"/>
		
			<rect x="11.75" y="10" transform="matrix(0.707 -0.7072 0.7072 0.707 -4.9706 12.0013)" style="fill:#333333;" width="0.5" height="4"/>
		
			<rect x="13.872" y="7.878" transform="matrix(0.707 -0.7072 0.7072 0.707 -2.8489 12.8803)" style="fill:#333333;" width="0.5" height="4.001"/>
		
			<rect x="9.629" y="12.121" transform="matrix(0.707 -0.7072 0.7072 0.707 -7.092 11.1227)" style="fill:#333333;" width="0.5" height="4"/>
		
			<rect x="4.003" y="11.753" transform="matrix(0.7071 -0.7071 0.7071 0.7071 -4.9719 12.0032)" style="fill:#333333;" width="16" height="0.5"/>
		
			<rect x="6.093" y="12.657" transform="matrix(0.7071 -0.7071 0.7071 0.7071 -10.6274 9.6566)" style="fill:#333333;" width="0.5" height="10"/>
		
			<rect x="17.407" y="1.343" transform="matrix(0.7071 -0.7071 0.7071 0.7071 0.6866 14.3436)" style="fill:#333333;" width="0.5" height="10"/>
	</g>
</g>
</svg>






