<?xml version="1.0" encoding="iso-8859-1"?>
<svg version="1.1" id="&#x56FE;&#x5C42;_1" xmlns="http://www.w3.org/2000/svg" xmlns:xlink="http://www.w3.org/1999/xlink" x="0px"
	 y="0px" viewBox="0 0 24 24" style="enable-background:new 0 0 24 24;" xml:space="preserve">
<path style="fill:#333333;" d="M12,19.75c-4.829,0-9.04-3.16-10.242-7.686v-0.128C2.96,7.411,7.172,4.25,12,4.25
	s9.039,3.161,10.241,7.686v0.128C21.039,16.59,16.828,19.75,12,19.75z M2.259,12c1.166,4.272,5.162,7.25,9.741,7.25
	c4.578,0,8.574-2.979,9.741-7.25C20.574,7.728,16.578,4.75,12,4.75C7.421,4.75,3.425,7.728,2.259,12z"/>
<rect x="20" y="11.75" style="fill:#333333;" width="2" height="0.5"/>
<rect x="7" y="11.75" style="fill:#333333;" width="10" height="0.5"/>
<rect x="2" y="11.75" style="fill:#333333;" width="2" height="0.5"/>
<rect x="8.25" y="10" style="fill:#333333;" width="0.5" height="4"/>
<rect x="15.25" y="10" style="fill:#333333;" width="0.5" height="4"/>
<rect x="11.75" y="10" style="fill:#333333;" width="0.5" height="4"/>
</svg>






