<?xml version="1.0" encoding="iso-8859-1"?>
<svg version="1.1" id="&#x56FE;&#x5C42;_1" xmlns="http://www.w3.org/2000/svg" xmlns:xlink="http://www.w3.org/1999/xlink" x="0px"
	 y="0px" viewBox="0 0 24 24" style="enable-background:new 0 0 24 24;" xml:space="preserve">
<path style="fill:#333333;" d="M19.25,16h-0.5V6.5c0-1.853-1.397-3.25-3.25-3.25s-3.25,1.397-3.25,3.25v2h-0.5v-2
	c0-2.138,1.612-3.75,3.75-3.75s3.75,1.612,3.75,3.75V16z"/>
<path style="fill:#333333;" d="M8.5,21.25c-2.138,0-3.75-1.612-3.75-3.75V3h0.5v14.5c0,1.853,1.397,3.25,3.25,3.25
	s3.25-1.397,3.25-3.25v-9h0.5v9C12.25,19.638,10.638,21.25,8.5,21.25z"/>
<polygon style="fill:#333333;" points="7.323,5.677 5,3.354 2.677,5.677 2.323,5.323 5,2.646 7.677,5.323 "/>
<path style="fill:#333333;" d="M19,21.25c-1.517,0-2.75-1.233-2.75-2.75s1.233-2.75,2.75-2.75s2.75,1.233,2.75,2.75
	S20.517,21.25,19,21.25z M19,16.25c-1.24,0-2.25,1.01-2.25,2.25s1.01,2.25,2.25,2.25s2.25-1.01,2.25-2.25S20.24,16.25,19,16.25z"/>
</svg>






