<?xml version="1.0" encoding="iso-8859-1"?>
<svg version="1.1" id="&#x56FE;&#x5C42;_1" xmlns="http://www.w3.org/2000/svg" xmlns:xlink="http://www.w3.org/1999/xlink" x="0px"
	 y="0px" viewBox="0 0 24 24" style="enable-background:new 0 0 24 24;" xml:space="preserve">
<path style="fill:#333333;" d="M8.5,21.25c-2.138,0-3.75-1.612-3.75-3.75V8h0.5v9.5c0,1.853,1.397,3.25,3.25,3.25
	s3.25-1.397,3.25-3.25v-2h0.5v2C12.25,19.638,10.638,21.25,8.5,21.25z"/>
<path style="fill:#333333;" d="M19.25,21h-0.5V6.5c0-1.853-1.397-3.25-3.25-3.25s-3.25,1.397-3.25,3.25v9h-0.5v-9
	c0-2.138,1.612-3.75,3.75-3.75s3.75,1.612,3.75,3.75V21z"/>
<polygon style="fill:#333333;" points="19,21.354 16.323,18.677 16.677,18.323 19,20.646 21.323,18.323 21.677,18.677 "/>
<path style="fill:#333333;" d="M5,8.25c-1.517,0-2.75-1.233-2.75-2.75S3.483,2.75,5,2.75S7.75,3.983,7.75,5.5S6.517,8.25,5,8.25z
	 M5,3.25c-1.241,0-2.25,1.009-2.25,2.25S3.759,7.75,5,7.75S7.25,6.741,7.25,5.5S6.241,3.25,5,3.25z"/>
</svg>






