<?xml version="1.0" encoding="iso-8859-1"?>
<svg version="1.1" id="&#x56FE;&#x5C42;_1" xmlns="http://www.w3.org/2000/svg" xmlns:xlink="http://www.w3.org/1999/xlink" x="0px"
	 y="0px" viewBox="0 0 24 24" style="enable-background:new 0 0 24 24;" xml:space="preserve">
<path style="fill:#333333;" d="M15,12.25H6.5c-2.138,0-3.75-1.612-3.75-3.75S4.362,4.75,6.5,4.75H16v0.5H6.5
	c-1.853,0-3.25,1.397-3.25,3.25s1.397,3.25,3.25,3.25H15V12.25z"/>
<path style="fill:#333333;" d="M17.5,19.25H4v-0.5h13.5c1.853,0,3.25-1.397,3.25-3.25s-1.397-3.25-3.25-3.25H15v-0.5h2.5
	c2.138,0,3.75,1.612,3.75,3.75S19.638,19.25,17.5,19.25z"/>
<polygon style="fill:#333333;" points="6.323,21.677 3.646,19 6.323,16.323 6.677,16.677 4.354,19 6.677,21.323 "/>
<path style="fill:#333333;" d="M18.588,7.75c-1.517,0-2.75-1.233-2.75-2.75s1.233-2.75,2.75-2.75s2.75,1.233,2.75,2.75
	S20.104,7.75,18.588,7.75z M18.588,2.75c-1.24,0-2.25,1.009-2.25,2.25s1.01,2.25,2.25,2.25s2.25-1.009,2.25-2.25
	S19.828,2.75,18.588,2.75z"/>
</svg>






