<?xml version="1.0" encoding="iso-8859-1"?>
<svg version="1.1" id="&#x56FE;&#x5C42;_1" xmlns="http://www.w3.org/2000/svg" xmlns:xlink="http://www.w3.org/1999/xlink" x="0px"
	 y="0px" viewBox="0 0 24 24" style="enable-background:new 0 0 24 24;" xml:space="preserve">
<path style="fill:#333333;" d="M12.001,22.265l-0.082-0.028C6.734,20.452,3.25,15.462,3.25,9.819V4.378l8.754-2.639l8.746,2.639
	v5.443c0,5.642-3.483,10.631-8.668,12.415L12.001,22.265z M3.75,4.749v5.07c0,5.4,3.312,10.177,8.251,11.917
	c4.938-1.739,8.249-6.516,8.249-11.914V4.749l-8.246-2.488L3.75,4.749z"/>
<path style="fill:#333333;" d="M12,15.25c-2.068,0-3.75-1.683-3.75-3.75c0-2.068,1.682-3.75,3.75-3.75c2.067,0,3.75,1.682,3.75,3.75
	C15.75,13.567,14.067,15.25,12,15.25z M12,8.25c-1.792,0-3.25,1.458-3.25,3.25s1.458,3.25,3.25,3.25s3.25-1.458,3.25-3.25
	S13.792,8.25,12,8.25z"/>
<polygon style="fill:#333333;" points="17.311,18.163 14.311,14.663 14.689,14.337 17.689,17.837 "/>
<path style="fill:#333333;" d="M12.082,22.236l-0.163-0.473c4.983-1.715,8.331-6.515,8.331-11.942h0.5
	C20.75,15.463,17.267,20.452,12.082,22.236z"/>
</svg>






