<?xml version="1.0" encoding="iso-8859-1"?>
<svg version="1.1" id="&#x56FE;&#x5C42;_1" xmlns="http://www.w3.org/2000/svg" xmlns:xlink="http://www.w3.org/1999/xlink" x="0px"
	 y="0px" viewBox="0 0 24 24" style="enable-background:new 0 0 24 24;" xml:space="preserve">
<polygon style="fill:#333333;" points="20.224,14.111 19.776,13.889 20.596,12.25 3.404,12.25 4.224,13.889 3.776,14.111 
	2.776,12.111 3,11.75 21,11.75 21.224,12.111 "/>
<path style="fill:#333333;" d="M14,12.25H5l-0.186-0.417l9-10L14.25,2v10L14,12.25z M5.562,11.75h8.188V2.651L5.562,11.75z"/>
<path style="fill:#333333;" d="M19,12.25h-5L13.75,12V5.5l0.448-0.152l5,6.5L19,12.25z M14.25,11.75h4.242L14.25,6.235V11.75z"/>
<path style="fill:#333333;" d="M19.5,18.249c-0.467,0-0.934-0.118-1.369-0.354c-0.729-0.395-1.533-0.395-2.262,0
	c-0.871,0.471-1.867,0.471-2.738,0c-0.729-0.395-1.533-0.395-2.262,0c-0.87,0.471-1.868,0.471-2.738,0
	c-0.729-0.395-1.533-0.395-2.262,0c-0.87,0.471-1.868,0.471-2.738,0l-1.25-0.676l0.237-0.439l1.25,0.676
	c0.729,0.395,1.534,0.395,2.262,0c0.87-0.471,1.868-0.471,2.738,0c0.729,0.395,1.533,0.395,2.262,0c0.87-0.471,1.867-0.471,2.738,0
	c0.729,0.395,1.533,0.395,2.262,0c0.871-0.471,1.867-0.471,2.738,0c0.729,0.395,1.533,0.395,2.262,0l1.25-0.676l0.238,0.439
	l-1.25,0.676C20.434,18.131,19.967,18.249,19.5,18.249z"/>
<path style="fill:#333333;" d="M19.5,21.249c-0.467,0-0.934-0.118-1.369-0.354c-0.729-0.395-1.533-0.395-2.262,0
	c-0.871,0.471-1.867,0.471-2.738,0c-0.729-0.395-1.533-0.395-2.262,0c-0.87,0.471-1.868,0.471-2.738,0
	c-0.729-0.395-1.533-0.395-2.262,0c-0.87,0.471-1.868,0.471-2.738,0l-1.25-0.676l0.237-0.439l1.25,0.676
	c0.729,0.395,1.534,0.395,2.262,0c0.87-0.471,1.868-0.471,2.738,0c0.729,0.395,1.533,0.395,2.262,0c0.87-0.471,1.867-0.471,2.738,0
	c0.729,0.395,1.533,0.395,2.262,0c0.871-0.471,1.867-0.471,2.738,0c0.729,0.395,1.533,0.395,2.262,0l1.25-0.676l0.238,0.439
	l-1.25,0.676C20.434,21.131,19.967,21.249,19.5,21.249z"/>
</svg>






