<?xml version="1.0" encoding="iso-8859-1"?>
<svg version="1.1" id="&#x56FE;&#x5C42;_1" xmlns="http://www.w3.org/2000/svg" xmlns:xlink="http://www.w3.org/1999/xlink" x="0px"
	 y="0px" viewBox="0 0 24 24" style="enable-background:new 0 0 24 24;" xml:space="preserve">
<polygon style="fill:#333333;" points="9.5,15.25 5.5,15.25 5.313,14.834 9.313,10.334 9.687,10.666 6.057,14.75 9.5,14.75 "/>
<path style="fill:#333333;" d="M19.75,15.25H9.25V1.75H9.5c5.173,0,10.25,6.563,10.25,13.25V15.25z M9.75,14.75h9.497
	C19.122,8.625,14.434,2.469,9.75,2.256V14.75z"/>
<path style="fill:#333333;" d="M15.558,21.25H3.82l-1.167-3.5H21l0.128,0.465l-4.675,2.788C16.183,21.164,15.872,21.25,15.558,21.25
	z M4.18,20.75h11.377c0.225,0,0.446-0.062,0.64-0.177l3.896-2.323H3.347L4.18,20.75z"/>
<rect x="9.25" y="15" style="fill:#333333;" width="0.5" height="3"/>
<rect x="14.5" y="10.25" style="fill:#333333;" width="6" height="0.5"/>
</svg>






