<?xml version="1.0" encoding="iso-8859-1"?>
<svg version="1.1" id="&#x56FE;&#x5C42;_1" xmlns="http://www.w3.org/2000/svg" xmlns:xlink="http://www.w3.org/1999/xlink" x="0px"
	 y="0px" viewBox="0 0 24 24" style="enable-background:new 0 0 24 24;" xml:space="preserve">
<path style="fill:#333333;" d="M18,11.25H2v-0.5h16c2.067,0,3.75-1.682,3.75-3.75S20.067,3.25,18,3.25S14.25,4.932,14.25,7h-0.5
	c0-2.343,1.906-4.25,4.25-4.25S22.25,4.657,22.25,7S20.344,11.25,18,11.25z"/>
<rect x="2" y="14.25" style="fill:#333333;" width="3" height="0.5"/>
<rect x="10.5" y="14.25" style="fill:#333333;" width="3" height="0.5"/>
<rect x="19" y="14.25" style="fill:#333333;" width="3" height="0.5"/>
<rect x="2" y="17.25" style="fill:#333333;" width="3" height="0.5"/>
<rect x="10.5" y="17.25" style="fill:#333333;" width="3" height="0.5"/>
<rect x="19" y="17.25" style="fill:#333333;" width="3" height="0.5"/>
<rect x="2" y="20.75" style="fill:#333333;" width="6" height="0.5"/>
<rect x="16" y="20.75" style="fill:#333333;" width="6" height="0.5"/>
</svg>






