<?xml version="1.0" encoding="iso-8859-1"?>
<svg version="1.1" id="&#x56FE;&#x5C42;_1" xmlns="http://www.w3.org/2000/svg" xmlns:xlink="http://www.w3.org/1999/xlink" x="0px"
	 y="0px" viewBox="0 0 24 24" style="enable-background:new 0 0 24 24;" xml:space="preserve">
<g>
	<defs>
		<rect id="SVGID_1_" width="24" height="24"/>
	</defs>
	<clipPath id="SVGID_00000022532296244206711210000006731094028671344290_">
		<use xlink:href="#SVGID_1_"  style="overflow:visible;"/>
	</clipPath>
	<g style="clip-path:url(#SVGID_00000022532296244206711210000006731094028671344290_);">
		<path style="fill:#333333;" d="M12.402,21.922c-1.979,0-3.602-1.596-3.68-1.674l0.354-0.354c0.02,0.02,2.011,1.971,4.087,1.432
			c2.156-0.559,7.746-6.147,8.306-8.306c0.539-2.079-1.413-4.067-1.433-4.086l0.354-0.354c0.089,0.089,2.174,2.208,1.563,4.565
			c-0.602,2.315-6.351,8.065-8.665,8.665C12.988,21.889,12.691,21.922,12.402,21.922z"/>
		<path style="fill:#333333;" d="M3.773,15.298c-0.089-0.089-2.174-2.207-1.563-4.565c0.601-2.315,6.35-8.064,8.665-8.665
			c2.361-0.607,4.476,1.474,4.566,1.563l-0.354,0.354C15.067,3.965,13.081,2.015,11,2.552c-2.157,0.56-7.746,6.148-8.306,8.306
			c-0.539,2.078,1.413,4.066,1.432,4.086L3.773,15.298z"/>
		<path style="fill:#333333;" d="M7.485,20.283c-0.96,0-1.92-0.365-2.651-1.096c-0.708-0.708-1.099-1.65-1.099-2.652
			c0-1.001,0.39-1.943,1.099-2.651l9.192-9.192c0.708-0.708,1.649-1.098,2.651-1.098s1.943,0.39,2.651,1.098
			c1.462,1.462,1.462,3.841,0,5.304l-9.192,9.192C9.406,19.918,8.446,20.283,7.485,20.283z M16.678,4.093
			c-0.868,0-1.685,0.338-2.298,0.952l-9.192,9.192c-0.614,0.614-0.952,1.431-0.952,2.298c0,0.868,0.338,1.685,0.952,2.299
			c1.267,1.266,3.329,1.266,4.596,0l9.192-9.192c0.614-0.614,0.952-1.43,0.952-2.298s-0.338-1.684-0.952-2.298
			C18.362,4.431,17.546,4.093,16.678,4.093z"/>
		<path style="fill:#333333;" d="M8.076,16.969l-0.475-0.158l0.281-0.845c0.293-0.879,0.95-1.593,1.802-1.958l0.209-0.09
			c0.587-0.252,1.041-0.744,1.243-1.351c0.247-0.742,0.801-1.344,1.52-1.652l0.475-0.204c0.553-0.237,0.979-0.699,1.168-1.27
			c0.259-0.774,0.875-1.39,1.648-1.648l1.004-0.334l0.158,0.475l-1.004,0.334c-0.625,0.208-1.123,0.707-1.332,1.332
			c-0.235,0.705-0.762,1.278-1.445,1.571l-0.475,0.204c-0.588,0.251-1.041,0.744-1.243,1.35c-0.248,0.741-0.802,1.344-1.52,1.651
			l-0.209,0.09c-0.721,0.31-1.277,0.914-1.525,1.657L8.076,16.969z"/>
	</g>
</g>
</svg>






