<?xml version="1.0" encoding="iso-8859-1"?>
<svg version="1.1" id="&#x56FE;&#x5C42;_1" xmlns="http://www.w3.org/2000/svg" xmlns:xlink="http://www.w3.org/1999/xlink" x="0px"
	 y="0px" viewBox="0 0 24 24" style="enable-background:new 0 0 24 24;" xml:space="preserve">
<path style="fill:#333333;" d="M7.039,21.835c-0.083,0-0.167-0.003-0.25-0.009c-1.822-0.126-3.17-1.575-3.068-3.299l0.037-0.594
	c0.093-1.455,0.182-2.829-0.157-4.354c-0.276-1.246-0.494-2.548-0.724-3.926C2.772,9.026,2.666,8.388,2.551,7.739
	C2.206,5.792,3.332,3.884,5.17,3.301l0.354-0.112C6.666,2.828,7.868,3.02,8.829,3.714c0.943,0.682,1.492,1.742,1.505,2.907
	c0.03,2.506-0.009,4.407-0.116,5.65c-0.098,1.138,0.063,2.801,0.481,4.942c0.232,1.193-0.112,2.452-0.92,3.366
	C9.067,21.386,8.08,21.835,7.039,21.835z M5.676,3.666L5.322,3.778C3.721,4.285,2.742,5.95,3.043,7.652
	c0.115,0.649,0.222,1.29,0.327,1.919c0.229,1.372,0.445,2.668,0.719,3.901c0.354,1.593,0.263,3.001,0.167,4.493l-0.037,0.591
	c-0.085,1.446,1.059,2.664,2.604,2.771c0.973,0.062,1.916-0.326,2.583-1.079c0.706-0.799,1.006-1.897,0.803-2.939
	c-0.426-2.188-0.59-3.897-0.488-5.081c0.105-1.227,0.144-3.111,0.114-5.601C9.823,5.622,9.349,4.708,8.536,4.12
	C7.705,3.519,6.663,3.353,5.676,3.666L5.676,3.666z"/>
<path style="fill:#333333;" d="M16.551,21.28c-0.283,0-0.568-0.034-0.85-0.104c-1.706-0.424-2.784-2.048-2.455-3.698l0.063-0.316
	c0.264-1.304,0.512-2.534,0.44-4.15c-0.057-1.288-0.022-2.691,0.014-4.178C13.781,8.09,13.8,7.333,13.807,6.57
	c0.02-1.909,1.352-3.541,3.168-3.882l0.385-0.072c1.191-0.222,2.371,0.122,3.242,0.947c0.854,0.809,1.256,1.943,1.102,3.112
	c-0.377,2.854-0.737,4.936-1.071,6.188c-0.275,1.031-0.387,2.514-0.332,4.404c0.036,1.227-0.517,2.421-1.477,3.194
	C18.157,20.999,17.36,21.28,16.551,21.28z M18.065,3.05c-0.203,0-0.408,0.019-0.614,0.058l-0.385,0.072
	c-1.582,0.297-2.743,1.725-2.76,3.396C14.3,7.34,14.281,8.1,14.263,8.845c-0.035,1.478-0.069,2.874-0.013,4.145
	c0.073,1.677-0.181,2.937-0.45,4.271l-0.063,0.315c-0.277,1.388,0.639,2.757,2.086,3.116c0.929,0.229,1.91,0.007,2.688-0.617
	c0.839-0.677,1.321-1.72,1.29-2.792c-0.056-1.938,0.062-3.469,0.35-4.547c0.328-1.232,0.685-3.293,1.058-6.125
	c0.133-1.008-0.213-1.986-0.949-2.684C19.654,3.355,18.879,3.05,18.065,3.05z"/>
<path style="fill:#333333;" d="M9.763,14.579c-1.071-3.213-2.091-5.658-2.782-6.684c-0.59,0.694-2.331,3.014-2.732,6.632
	l-0.497-0.055c0.504-4.535,2.967-7.045,3.072-7.149l0.37,0.019c1.042,1.272,2.476,5.375,3.044,7.079L9.763,14.579z"/>
<path style="fill:#333333;" d="M20.249,15.016l-0.498-0.031c0.205-3.284-1.693-6.622-2.285-7.575
	c-0.155,0.16-0.34,0.333-0.543,0.521c-1.064,0.992-2.673,2.49-2.673,4.819h-0.5c0-2.546,1.704-4.134,2.832-5.185
	c0.3-0.279,0.558-0.52,0.725-0.723l0.399,0.017C17.82,7.024,20.502,10.976,20.249,15.016z"/>
</svg>






