<?xml version="1.0" encoding="iso-8859-1"?>
<svg version="1.1" id="&#x56FE;&#x5C42;_1" xmlns="http://www.w3.org/2000/svg" xmlns:xlink="http://www.w3.org/1999/xlink" x="0px"
	 y="0px" viewBox="0 0 24 24" style="enable-background:new 0 0 24 24;" xml:space="preserve">
<path style="fill:#333333;" d="M19,20.25H5c-1.241,0-2.25-1.01-2.25-2.25v-7.25h18.5V18C21.25,19.24,20.24,20.25,19,20.25z
	 M3.25,11.25V18c0,0.965,0.785,1.75,1.75,1.75h14c0.965,0,1.75-0.785,1.75-1.75v-6.75H3.25z"/>
<rect x="3" y="14.75" style="fill:#333333;" width="18" height="0.5"/>
<rect x="2.75" y="13" style="fill:#333333;" width="0.5" height="4"/>
<rect x="20.75" y="13" style="fill:#333333;" width="0.5" height="4"/>
<path style="fill:#333333;" d="M21.25,11.25H2.783V11c0-0.146-0.008-0.291-0.016-0.44C2.719,9.642,2.664,8.601,4.123,6.811
	C6.33,4.103,8.953,1.39,12.153,3.485C12.244,3.544,21.25,9.503,21.25,11V11.25z M3.277,10.75h17.368
	c-0.726-1.104-5.094-4.445-8.766-6.847C9.028,2.038,6.675,4.471,4.51,7.127c-1.337,1.641-1.29,2.539-1.244,3.407
	C3.271,10.606,3.274,10.678,3.277,10.75z"/>
</svg>






