<?xml version="1.0" encoding="iso-8859-1"?>
<svg version="1.1" id="&#x56FE;&#x5C42;_1" xmlns="http://www.w3.org/2000/svg" xmlns:xlink="http://www.w3.org/1999/xlink" x="0px"
	 y="0px" viewBox="0 0 24 24" style="enable-background:new 0 0 24 24;" xml:space="preserve">
<path style="fill:none;" d="M13.5,4c-2.343,2.343-1.982,6.517-1.982,6.517S15.657,10.843,18,8.5s2.003-6.482,2.003-6.482
	S15.843,1.657,13.5,4z"/>
<path style="fill:#333333;" d="M12.077,10.785c-0.332,0-0.542-0.016-0.579-0.019l-0.211-0.017l-0.018-0.211
	c-0.015-0.175-0.343-4.318,2.055-6.716c2.398-2.399,6.524-2.069,6.701-2.055l0.21,0.018l0.018,0.21
	c0.015,0.174,0.322,4.282-2.075,6.68C16.284,10.57,13.324,10.785,12.077,10.785z M15.323,6.358l0.354,0.354l-3.569,3.569
	c1.194-0.01,3.988-0.23,5.716-1.958c1.935-1.935,1.969-5.2,1.941-6.068c-0.874-0.032-4.155-0.011-6.088,1.921
	c-1.732,1.732-1.928,4.559-1.928,5.756L15.323,6.358z"/>
<path style="fill:none;" d="M10,10.5c1.925,1.922,1.486,5.486,1.486,5.486S7.925,16.422,6,14.5
	c-1.925-1.922-1.484-5.486-1.484-5.486S8.075,8.578,10,10.5z"/>
<path style="fill:#333333;" d="M10.581,16.28c-1.224,0-3.371-0.22-4.757-1.604C3.835,12.691,4.25,9.134,4.268,8.984L4.292,8.79
	l0.194-0.023c0.15-0.019,3.704-0.429,5.691,1.557c1.988,1.985,1.576,5.542,1.557,5.692L11.71,16.21l-0.194,0.023
	C11.471,16.239,11.113,16.28,10.581,16.28z M4.747,9.245c-0.054,0.762-0.13,3.52,1.43,5.078c1.381,1.378,3.696,1.481,4.742,1.448
	l-3.095-3.095l0.354-0.354l3.096,3.095c0.032-1.043-0.068-3.362-1.449-4.741C8.261,9.117,5.507,9.191,4.747,9.245z"/>
<rect x="11.25" y="2" style="fill:#333333;" width="0.5" height="20"/>
</svg>






