<?xml version="1.0" encoding="iso-8859-1"?>
<svg version="1.1" id="&#x56FE;&#x5C42;_1" xmlns="http://www.w3.org/2000/svg" xmlns:xlink="http://www.w3.org/1999/xlink" x="0px"
	 y="0px" viewBox="0 0 24 24" style="enable-background:new 0 0 24 24;" xml:space="preserve">
<polygon style="fill:#333333;" points="21.75,7.25 15,7.25 15,6.75 21.25,6.75 21.25,4.672 14.953,2.25 9.046,2.25 2.75,4.672 
	2.75,6.75 9,6.75 9,7.25 2.25,7.25 2.25,4.328 9,1.75 15.09,1.767 21.75,4.328 "/>
<path style="fill:#333333;" d="M15.25,22.25h-6.5V1.75h6.5V22.25z M9.25,21.75h5.5V2.25h-5.5V21.75z"/>
<rect x="9" y="5.75" style="fill:#333333;" width="2" height="0.5"/>
<rect x="9" y="14.75" style="fill:#333333;" width="2.5" height="0.5"/>
<rect x="9" y="8.75" style="fill:#333333;" width="2.5" height="0.5"/>
<rect x="9" y="11.75" style="fill:#333333;" width="2" height="0.5"/>
<rect x="9" y="17.75" style="fill:#333333;" width="2" height="0.5"/>
<rect x="8.75" y="5" style="fill:#333333;" width="0.5" height="14"/>
</svg>






