<?xml version="1.0" encoding="iso-8859-1"?>
<svg version="1.1" id="&#x56FE;&#x5C42;_1" xmlns="http://www.w3.org/2000/svg" xmlns:xlink="http://www.w3.org/1999/xlink" x="0px"
	 y="0px" viewBox="0 0 24 24" style="enable-background:new 0 0 24 24;" xml:space="preserve">
<polygon style="fill:#333333;" points="21.25,9 20.75,9 20.75,3.25 15,3.25 15,2.75 21.25,2.75 "/>
<polygon style="fill:#333333;" points="15.5,14.75 9.25,14.75 9.25,8.5 9.75,8.5 9.75,14.25 15.5,14.25 "/>
<rect x="7.118" y="8.5" transform="matrix(0.7071 -0.7071 0.7071 0.7071 -1.7206 13.3462)" style="fill:#333333;" width="16.263" height="0.5"/>
<path style="fill:#333333;" d="M20,21.25H4c-0.689,0-1.25-0.561-1.25-1.25V4c0-0.689,0.561-1.25,1.25-1.25h7v0.5H4
	C3.586,3.25,3.25,3.586,3.25,4v16c0,0.413,0.336,0.75,0.75,0.75h16c0.413,0,0.75-0.337,0.75-0.75v-7h0.5v7
	C21.25,20.689,20.689,21.25,20,21.25z"/>
</svg>






