<?xml version="1.0" encoding="iso-8859-1"?>
<svg version="1.1" id="&#x56FE;&#x5C42;_1" xmlns="http://www.w3.org/2000/svg" xmlns:xlink="http://www.w3.org/1999/xlink" x="0px"
	 y="0px" viewBox="0 0 24 24" style="enable-background:new 0 0 24 24;" xml:space="preserve">
<path style="fill:#333333;" d="M20,21.75H4c-0.965,0-1.75-0.785-1.75-1.75V4c0-0.965,0.785-1.75,1.75-1.75h16
	c0.965,0,1.75,0.785,1.75,1.75v16C21.75,20.965,20.965,21.75,20,21.75z M4,2.75C3.311,2.75,2.75,3.311,2.75,4v16
	c0,0.689,0.561,1.25,1.25,1.25h16c0.689,0,1.25-0.561,1.25-1.25V4c0-0.689-0.561-1.25-1.25-1.25H4z"/>
<polygon style="fill:#333333;" points="17.177,13.677 16.823,13.323 18.146,12 16.823,10.677 17.177,10.323 18.854,12 "/>
<polygon style="fill:#333333;" points="6.823,13.677 5.146,12 6.823,10.323 7.177,10.677 5.854,12 7.177,13.323 "/>
<polygon style="fill:#333333;" points="13.323,7.177 12,5.854 10.677,7.177 10.323,6.823 12,5.146 13.677,6.823 "/>
<polygon style="fill:#333333;" points="12,18.854 10.323,17.177 10.677,16.823 12,18.146 13.323,16.823 13.677,17.177 "/>
</svg>






