<?xml version="1.0" encoding="iso-8859-1"?>
<svg version="1.1" id="&#x56FE;&#x5C42;_1" xmlns="http://www.w3.org/2000/svg" xmlns:xlink="http://www.w3.org/1999/xlink" x="0px"
	 y="0px" viewBox="0 0 24 24" style="enable-background:new 0 0 24 24;" xml:space="preserve">
<path style="fill:#333333;" d="M21,22.25H1.75V16.5c0-0.689,0.561-1.25,1.25-1.25h2.75v-3.384L12,7.7l6.25,4.167v3.384H21
	c0.689,0,1.25,0.561,1.25,1.25V21C22.25,21.689,21.689,22.25,21,22.25z M2.25,21.75H21c0.413,0,0.75-0.337,0.75-0.75v-4.5
	c0-0.413-0.337-0.75-0.75-0.75h-3.25v-3.616L12,8.3l-5.75,3.833v3.616H3c-0.414,0-0.75,0.337-0.75,0.75V21.75z"/>
<rect x="11.75" y="3" style="fill:#333333;" width="0.5" height="5"/>
<path style="fill:#333333;" d="M16.775,6.917c-0.564,0-1.206-0.237-1.914-0.709c-0.771-0.514-1.455-0.717-1.97-0.584
	c-0.472,0.121-0.661,0.475-0.669,0.49L11.75,6l0.026-3.112c0.011-0.023,0.288-0.562,0.977-0.746c0.667-0.177,1.473,0.04,2.386,0.649
	c0.771,0.515,1.455,0.718,1.97,0.584c0.472-0.121,0.661-0.475,0.669-0.49L18.25,3l-0.026,3.112
	c-0.012,0.023-0.288,0.562-0.977,0.746C17.097,6.897,16.939,6.917,16.775,6.917z M13.225,5.083c0.564,0,1.206,0.237,1.914,0.709
	c0.771,0.515,1.455,0.717,1.97,0.584c0.377-0.096,0.574-0.343,0.642-0.445V3.626c-0.135,0.093-0.301,0.177-0.503,0.231
	c-0.668,0.179-1.472-0.04-2.386-0.649c-0.771-0.515-1.455-0.716-1.97-0.584c-0.377,0.096-0.574,0.343-0.642,0.445v2.305
	c0.135-0.093,0.301-0.177,0.503-0.231C12.903,5.103,13.061,5.083,13.225,5.083z"/>
<polygon style="fill:#333333;" points="14.25,22 13.75,22 13.75,15.75 10.25,15.75 10.25,22 9.75,22 9.75,15.25 14.25,15.25 "/>
<rect x="9" y="21.75" style="fill:#333333;" width="6" height="0.5"/>
</svg>






