<?xml version="1.0" encoding="iso-8859-1"?>
<svg version="1.1" id="&#x56FE;&#x5C42;_1" xmlns="http://www.w3.org/2000/svg" xmlns:xlink="http://www.w3.org/1999/xlink" x="0px"
	 y="0px" viewBox="0 0 24 24" style="enable-background:new 0 0 24 24;" xml:space="preserve">
<path style="fill:#333333;" d="M20,21.75H4c-0.965,0-1.75-0.785-1.75-1.75V4c0-0.965,0.785-1.75,1.75-1.75h16
	c0.965,0,1.75,0.785,1.75,1.75v16C21.75,20.965,20.965,21.75,20,21.75z M4,2.75C3.311,2.75,2.75,3.311,2.75,4v16
	c0,0.689,0.561,1.25,1.25,1.25h16c0.689,0,1.25-0.561,1.25-1.25V4c0-0.689-0.561-1.25-1.25-1.25H4z"/>
<path style="fill:#333333;" d="M9.708,14.639l-0.416-0.277c0.941-1.412,0.941-3.31,0-4.723l0.416-0.277
	C10.76,10.939,10.76,13.061,9.708,14.639z"/>
<polygon style="fill:#333333;" points="17.861,17.208 10.049,12 17.861,6.792 18.139,7.208 10.951,12 18.139,16.792 "/>
<path style="fill:#333333;" d="M8,10.25c-1.241,0-2.25-1.009-2.25-2.25S6.759,5.75,8,5.75S10.25,6.759,10.25,8S9.241,10.25,8,10.25z
	 M8,6.25C7.035,6.25,6.25,7.035,6.25,8S7.035,9.75,8,9.75S9.75,8.965,9.75,8S8.965,6.25,8,6.25z"/>
<path style="fill:#333333;" d="M8,18.25c-1.241,0-2.25-1.01-2.25-2.25S6.759,13.75,8,13.75s2.25,1.01,2.25,2.25S9.241,18.25,8,18.25
	z M8,14.25c-0.965,0-1.75,0.785-1.75,1.75S7.035,17.75,8,17.75S9.75,16.965,9.75,16S8.965,14.25,8,14.25z"/>
</svg>






