<?xml version="1.0" encoding="iso-8859-1"?>
<svg version="1.1" id="&#x56FE;&#x5C42;_1" xmlns="http://www.w3.org/2000/svg" xmlns:xlink="http://www.w3.org/1999/xlink" x="0px"
	 y="0px" viewBox="0 0 24 24" style="enable-background:new 0 0 24 24;" xml:space="preserve">
<path style="fill:#333333;" d="M20.5,20.25h-17c-0.965,0-1.75-0.785-1.75-1.75v-11c0-0.965,0.785-1.75,1.75-1.75h17
	c0.965,0,1.75,0.785,1.75,1.75v11C22.25,19.465,21.465,20.25,20.5,20.25z M3.5,6.25c-0.689,0-1.25,0.561-1.25,1.25v11
	c0,0.689,0.561,1.25,1.25,1.25h17c0.689,0,1.25-0.561,1.25-1.25v-11c0-0.689-0.561-1.25-1.25-1.25H3.5z"/>
<rect x="6.75" y="3" style="fill:#333333;" width="0.5" height="3"/>
<rect x="16.75" y="3" style="fill:#333333;" width="0.5" height="3"/>
<polygon style="fill:#333333;" points="7.75,16.5 7.25,16.5 7.25,10.131 5.294,12.173 4.933,11.827 7.32,9.335 7.75,9.508 "/>
<rect x="11.75" y="6" style="fill:#333333;" width="0.5" height="14"/>
<path style="fill:#333333;" d="M17,16.75c-0.998,0-1.75-1.612-1.75-3.75S16.002,9.25,17,9.25s1.75,1.612,1.75,3.75
	S17.998,16.75,17,16.75z M17,9.75c-0.591,0-1.25,1.335-1.25,3.25s0.659,3.25,1.25,3.25s1.25-1.335,1.25-3.25S17.591,9.75,17,9.75z"
	/>
<rect x="10.5" y="5.75" style="fill:#333333;" width="3" height="0.5"/>
<rect x="10.5" y="19.75" style="fill:#333333;" width="3" height="0.5"/>
</svg>






