<?xml version="1.0" encoding="iso-8859-1"?>
<svg version="1.1" id="&#x56FE;&#x5C42;_1" xmlns="http://www.w3.org/2000/svg" xmlns:xlink="http://www.w3.org/1999/xlink" x="0px"
	 y="0px" viewBox="0 0 24 24" style="enable-background:new 0 0 24 24;" xml:space="preserve">
<path style="fill:#333333;" d="M16.25,22.25h-8.5v-6.093l1.5-1.75V11.75h5.5v2.649c0.228,0.24,0.465,0.534,0.694,0.818
	c0.247,0.306,0.502,0.621,0.733,0.856l0.072,0.073V22.25z M8.25,21.75h7.5v-5.399c-0.228-0.24-0.465-0.534-0.694-0.818
	c-0.247-0.306-0.502-0.621-0.733-0.856l-0.072-0.073V12.25h-4.5v2.343l-1.5,1.75V21.75z"/>
<path style="fill:#333333;" d="M13.75,12.25h-3.5V6.576L9.224,5.037L10.32,1.75h3.361l1.095,3.287L13.75,6.576V12.25z M10.75,11.75
	h2.5V6.424l0.975-1.461L13.319,2.25H10.68L9.776,4.963l0.974,1.461V11.75z"/>
</svg>






