<?xml version="1.0" encoding="iso-8859-1"?>
<svg version="1.1" id="&#x56FE;&#x5C42;_1" xmlns="http://www.w3.org/2000/svg" xmlns:xlink="http://www.w3.org/1999/xlink" x="0px"
	 y="0px" viewBox="0 0 24 24" style="enable-background:new 0 0 24 24;" xml:space="preserve">
<path style="fill:#333333;" d="M18.5,21.75h-13c-0.689,0-1.25-0.561-1.25-1.25v-8.75h2v-2.5h-2V6.406l3.263-3.729
	C7.75,2.405,8.093,2.25,8.454,2.25H18.5c0.689,0,1.25,0.561,1.25,1.25v17C19.75,21.189,19.189,21.75,18.5,21.75z M4.75,12.25v8.25
	c0,0.413,0.336,0.75,0.75,0.75h13c0.413,0,0.75-0.337,0.75-0.75v-17c0-0.414-0.337-0.75-0.75-0.75H8.454
	c-0.216,0-0.422,0.093-0.564,0.256L4.75,6.594V8.75h2v3.5H4.75z"/>
<rect x="16.25" y="5.5" style="fill:#333333;" width="0.5" height="2"/>
<rect x="10.25" y="5.5" style="fill:#333333;" width="0.5" height="2"/>
<rect x="13.25" y="5.5" style="fill:#333333;" width="0.5" height="2"/>
</svg>






