<?xml version="1.0" encoding="iso-8859-1"?>
<svg version="1.1" id="&#x56FE;&#x5C42;_1" xmlns="http://www.w3.org/2000/svg" xmlns:xlink="http://www.w3.org/1999/xlink" x="0px"
	 y="0px" viewBox="0 0 24 24" style="enable-background:new 0 0 24 24;" xml:space="preserve">
<path style="fill:#333333;" d="M21.25,13h-0.5v-2c0-4.825-3.925-8.75-8.75-8.75c-4.825,0-8.75,3.925-8.75,8.75v2h-0.5v-2
	c0-5.101,4.149-9.25,9.25-9.25s9.25,4.149,9.25,9.25V13z"/>
<path style="fill:#333333;" d="M16.25,13.5h-0.5V6c0-2.068-1.683-3.75-3.75-3.75C9.932,2.25,8.25,3.932,8.25,6v7.5h-0.5V6
	c0-2.343,1.907-4.25,4.25-4.25c2.344,0,4.25,1.907,4.25,4.25V13.5z"/>
<path style="fill:#333333;" d="M15,22.25c-1.792,0-3.25-1.458-3.25-3.25v-7h0.5v7c0,1.517,1.233,2.75,2.75,2.75
	s2.75-1.233,2.75-2.75v-1.444h0.5V19C18.25,20.792,16.792,22.25,15,22.25z"/>
<rect x="6" y="11.75" style="fill:#333333;" width="15" height="0.5"/>
</svg>






