<?xml version="1.0" encoding="iso-8859-1"?>
<svg version="1.1" id="&#x56FE;&#x5C42;_1" xmlns="http://www.w3.org/2000/svg" xmlns:xlink="http://www.w3.org/1999/xlink" x="0px"
	 y="0px" viewBox="0 0 24 24" style="enable-background:new 0 0 24 24;" xml:space="preserve">
<rect x="11.75" y="13" style="fill:#333333;" width="0.5" height="8"/>
<path style="fill:#333333;" d="M12.909,14.205c-0.281,0-0.549-0.103-0.762-0.296C11.895,13.68,11.75,13.349,11.75,13V8.814
	c0-0.149,0.027-0.298,0.08-0.433c1.53-3.961,5.167-4.55,8.166-4.622c0.369-0.013,0.663,0.126,0.896,0.367
	c0.232,0.241,0.35,0.558,0.33,0.892c-0.454,7.614-5.885,8.957-8.198,9.182C12.984,14.204,12.946,14.205,12.909,14.205z
	 M20.023,4.259c-0.005,0-0.011,0-0.017,0c-3.019,0.072-6.296,0.639-7.711,4.302c-0.03,0.077-0.046,0.164-0.046,0.252V13
	c0,0.208,0.085,0.404,0.233,0.539c0.137,0.123,0.313,0.18,0.49,0.163c2.187-0.212,7.317-1.484,7.747-8.713v0
	c0.012-0.192-0.056-0.375-0.19-0.514C20.398,4.337,20.215,4.259,20.023,4.259z"/>
<path style="fill:#333333;" d="M11.051,13.18c-0.041,0-0.082-0.002-0.124-0.006c-7.132-0.718-8.114-5.278-8.173-9.17
	C2.75,3.662,2.887,3.333,3.133,3.102c0.241-0.228,0.557-0.337,0.885-0.315c5.718,0.42,7.772,4.173,8.125,4.921
	c0.071,0.15,0.107,0.317,0.107,0.495v3.752c0,0.35-0.147,0.684-0.406,0.917C11.622,13.072,11.344,13.18,11.051,13.18z M3.931,3.284
	c-0.169,0-0.329,0.063-0.455,0.182c-0.144,0.135-0.225,0.329-0.222,0.53c0.059,3.915,1.023,8.006,7.724,8.68
	c0.197,0.022,0.384-0.043,0.531-0.175c0.153-0.139,0.241-0.337,0.241-0.546V8.203c0-0.104-0.02-0.198-0.059-0.282
	c-0.333-0.704-2.269-4.237-7.71-4.636h0C3.964,3.284,3.947,3.284,3.931,3.284z"/>
</svg>






