<?xml version="1.0" encoding="iso-8859-1"?>
<svg version="1.1" id="&#x56FE;&#x5C42;_1" xmlns="http://www.w3.org/2000/svg" xmlns:xlink="http://www.w3.org/1999/xlink" x="0px"
	 y="0px" viewBox="0 0 24 24" style="enable-background:new 0 0 24 24;" xml:space="preserve">
<path style="fill:#333333;" d="M6.25,6.25h-4.5v-4.5h4.5V6.25z M2.25,5.75h3.5v-3.5h-3.5V5.75z"/>
<path style="fill:#333333;" d="M22.25,22.25h-4.5v-4.5h4.5V22.25z M18.25,21.75h3.5v-3.5h-3.5V21.75z"/>
<path style="fill:#333333;" d="M6.25,22.25h-4.5v-4.5h4.5V22.25z M2.25,21.75h3.5v-3.5h-3.5V21.75z"/>
<path style="fill:#333333;" d="M22.25,6.25h-4.5v-4.5h4.5V6.25z M18.25,5.75h3.5v-3.5h-3.5V5.75z"/>
<rect x="3.75" y="6" style="fill:#333333;" width="0.5" height="12"/>
<rect x="19.75" y="6" style="fill:#333333;" width="0.5" height="12"/>
<rect x="6" y="3.75" style="fill:#333333;" width="12" height="0.5"/>
<rect x="6" y="19.75" style="fill:#333333;" width="12" height="0.5"/>
</svg>






