<?xml version="1.0" encoding="iso-8859-1"?>
<svg version="1.1" id="&#x56FE;&#x5C42;_1" xmlns="http://www.w3.org/2000/svg" xmlns:xlink="http://www.w3.org/1999/xlink" x="0px"
	 y="0px" viewBox="0 0 24 24" style="enable-background:new 0 0 24 24;" xml:space="preserve">
<path style="fill:#333333;" d="M6.25,6.25h-4.5v-4.5h4.5V6.25z M2.25,5.75h3.5v-3.5h-3.5V5.75z"/>
<path style="fill:#333333;" d="M22.25,22.25h-4.5v-4.5h4.5V22.25z M18.25,21.75h3.5v-3.5h-3.5V21.75z"/>
<path style="fill:#333333;" d="M6.25,22.25h-4.5v-4.5h4.5V22.25z M2.25,21.75h3.5v-3.5h-3.5V21.75z"/>
<path style="fill:#333333;" d="M22.25,6.25h-4.5v-4.5h4.5V6.25z M18.25,5.75h3.5v-3.5h-3.5V5.75z"/>
<path style="fill:#333333;" d="M4.25,18h-0.5v-0.5h0.5V18z M4.25,15h-0.5v-0.5h0.5V15z M4.25,12h-0.5v-0.5h0.5V12z M4.25,9h-0.5V8.5
	h0.5V9z"/>
<path style="fill:#333333;" d="M20.25,18h-0.5v-0.5h0.5V18z M20.25,15h-0.5v-0.5h0.5V15z M20.25,12h-0.5v-0.5h0.5V12z M20.25,9h-0.5
	V8.5h0.5V9z"/>
<path style="fill:#333333;" d="M15.5,4.25H15v-0.5h0.5V4.25z M12.5,4.25H12v-0.5h0.5V4.25z M9.5,4.25H9v-0.5h0.5V4.25z M6.5,4.25H6
	v-0.5h0.5V4.25z"/>
<path style="fill:#333333;" d="M15.5,20.25H15v-0.5h0.5V20.25z M12.5,20.25H12v-0.5h0.5V20.25z M9.5,20.25H9v-0.5h0.5V20.25z
	 M6.5,20.25H6v-0.5h0.5V20.25z"/>
</svg>






