<?xml version="1.0" encoding="iso-8859-1"?>
<svg version="1.1" id="&#x56FE;&#x5C42;_1" xmlns="http://www.w3.org/2000/svg" xmlns:xlink="http://www.w3.org/1999/xlink" x="0px"
	 y="0px" viewBox="0 0 24 24" style="enable-background:new 0 0 24 24;" xml:space="preserve">
<path style="fill:#333333;" d="M21.184,20.25H2.816c-0.588,0-1.066-0.479-1.066-1.066V4.816c0-0.588,0.479-1.066,1.066-1.066h18.367
	c0.588,0,1.066,0.479,1.066,1.066v14.367C22.25,19.771,21.771,20.25,21.184,20.25z M2.816,4.25c-0.312,0-0.566,0.254-0.566,0.566
	v14.367c0,0.312,0.254,0.566,0.566,0.566h18.367c0.312,0,0.566-0.254,0.566-0.566V4.816c0-0.312-0.254-0.566-0.566-0.566H2.816z"/>
<path style="fill:#333333;" d="M6.213,15.507c-0.535,0-1.051-0.297-1.42-0.84l0.414-0.281c0.36,0.53,0.848,0.734,1.338,0.563
	c0.443-0.157,0.893-0.666,0.831-1.413c-0.053-0.643-0.502-0.962-1.021-1.333c-0.542-0.386-1.157-0.825-1.229-1.698
	C5.054,9.638,5.532,8.847,6.288,8.58C6.99,8.333,7.724,8.622,8.207,9.334l-0.414,0.28C7.433,9.083,6.946,8.88,6.454,9.051
	c-0.443,0.157-0.892,0.666-0.831,1.413c0.053,0.642,0.502,0.962,1.021,1.333c0.542,0.387,1.157,0.826,1.229,1.699
	c0.072,0.867-0.407,1.658-1.163,1.925C6.546,15.479,6.378,15.507,6.213,15.507z"/>
<polygon style="fill:#333333;" points="13,15.75 10.75,15.75 10.75,8.75 13,8.75 13,9.25 11.25,9.25 11.25,15.25 13,15.25 "/>
<rect x="11" y="12.25" style="fill:#333333;" width="2" height="0.5"/>
<path style="fill:#333333;" d="M17.5,15.75c-0.965,0-1.75-0.785-1.75-1.75v-3.5c0-0.965,0.785-1.75,1.75-1.75s1.75,0.785,1.75,1.75
	V14C19.25,14.965,18.465,15.75,17.5,15.75z M17.5,9.25c-0.689,0-1.25,0.561-1.25,1.25V14c0,0.689,0.561,1.25,1.25,1.25
	s1.25-0.561,1.25-1.25v-3.5C18.75,9.811,18.189,9.25,17.5,9.25z"/>
</svg>






