<?xml version="1.0" encoding="iso-8859-1"?>
<svg version="1.1" id="&#x56FE;&#x5C42;_1" xmlns="http://www.w3.org/2000/svg" xmlns:xlink="http://www.w3.org/1999/xlink" x="0px"
	 y="0px" viewBox="0 0 24 24" style="enable-background:new 0 0 24 24;" xml:space="preserve">
<path style="fill:#333333;" d="M14.5,7.25c-1.517,0-2.75-1.233-2.75-2.75s1.233-2.75,2.75-2.75s2.75,1.233,2.75,2.75
	S16.017,7.25,14.5,7.25z M14.5,2.25c-1.24,0-2.25,1.009-2.25,2.25s1.01,2.25,2.25,2.25s2.25-1.009,2.25-2.25S15.74,2.25,14.5,2.25z"
	/>
<path style="fill:#333333;" d="M15.418,22.079l-1.67-5.02c-0.051-0.144-0.136-0.267-0.246-0.353L9.7,13.696l-0.065-0.314l2.145-4
	l0.441,0.236l-2.046,3.815l3.636,2.88c0.185,0.144,0.327,0.346,0.41,0.584l1.672,5.023L15.418,22.079z"/>
<path style="fill:#333333;" d="M4.958,20.639l-0.416-0.277c0.239-0.358,0.639-0.838,1.063-1.346
	c0.486-0.582,1.037-1.242,1.443-1.836l2.6-3.82l0.413,0.281l-2.6,3.82c-0.42,0.614-0.979,1.284-1.472,1.875
	C5.574,19.833,5.182,20.303,4.958,20.639z"/>
<path style="fill:#333333;" d="M17.534,12.3c-0.23,0-0.452-0.058-0.646-0.167l-1.639-0.957c-1.977-1.158-4.13-1.952-6.403-2.36
	L7.409,8.562l-1.192,2.063l-0.433-0.25l1.28-2.215l0.26-0.121l1.61,0.285c2.332,0.418,4.541,1.233,6.567,2.42l1.635,0.955
	c0.116,0.065,0.254,0.101,0.395,0.101l3.466-0.05l0.008,0.5L17.534,12.3z"/>
<path style="fill:#333333;" d="M5.354,15.63l-3.619-2.09l2.5-4.33l3.619,2.09L5.354,15.63z M2.417,13.356l2.754,1.59l2-3.464
	l-2.754-1.59L2.417,13.356z"/>
</svg>






