<?xml version="1.0" encoding="iso-8859-1"?>
<svg version="1.1" id="&#x56FE;&#x5C42;_1" xmlns="http://www.w3.org/2000/svg" xmlns:xlink="http://www.w3.org/1999/xlink" x="0px"
	 y="0px" viewBox="0 0 24 24" style="enable-background:new 0 0 24 24;" xml:space="preserve">
<path style="fill:#333333;" d="M12,19.75c-4.273,0-7.75-3.477-7.75-7.75S7.727,4.25,12,4.25s7.75,3.477,7.75,7.75
	S16.273,19.75,12,19.75z M12,4.75c-3.998,0-7.25,3.252-7.25,7.25c0,3.998,3.252,7.25,7.25,7.25c3.998,0,7.25-3.252,7.25-7.25
	C19.25,8.002,15.998,4.75,12,4.75z"/>
<rect x="11.75" y="19.5" style="fill:#333333;" width="0.5" height="2.5"/>
<rect x="19.5" y="11.25" style="fill:#333333;" width="2.5" height="0.5"/>
<rect x="2" y="11.25" style="fill:#333333;" width="2.5" height="0.5"/>
<rect x="11.75" y="2" style="fill:#333333;" width="0.5" height="2.5"/>
<rect x="17.937" y="16.936" transform="matrix(0.7071 -0.7071 0.7071 0.7071 -7.5333 18.187)" style="fill:#333333;" width="0.5" height="2.501"/>
<rect x="16.583" y="5.209" transform="matrix(0.7071 -0.7071 0.7071 0.7071 1.3629 14.2092)" style="fill:#333333;" width="2.5" height="0.5"/>
<rect x="4.21" y="17.584" transform="matrix(0.7071 -0.7071 0.7071 0.7071 -11.0115 9.0839)" style="fill:#333333;" width="2.5" height="0.5"/>
<rect x="5.563" y="4.563" transform="matrix(0.7071 -0.7071 0.7071 0.7071 -2.4077 5.8127)" style="fill:#333333;" width="0.5" height="2.5"/>
</svg>






