<?xml version="1.0" encoding="iso-8859-1"?>
<svg version="1.1" id="&#x56FE;&#x5C42;_1" xmlns="http://www.w3.org/2000/svg" xmlns:xlink="http://www.w3.org/1999/xlink" x="0px"
	 y="0px" viewBox="0 0 24 24" style="enable-background:new 0 0 24 24;" xml:space="preserve">
<path style="fill:#333333;" d="M12,20.25H3.5c-0.965,0-1.75-0.785-1.75-1.75v-13c0-0.965,0.785-1.75,1.75-1.75h17
	c0.965,0,1.75,0.785,1.75,1.75v6.029h-0.5V5.5c0-0.689-0.561-1.25-1.25-1.25h-17c-0.689,0-1.25,0.561-1.25,1.25v13
	c0,0.689,0.561,1.25,1.25,1.25H12V20.25z"/>
<path style="fill:#333333;" d="M22.25,10.25H1.75V5.5c0-0.965,0.785-1.75,1.75-1.75h17c0.965,0,1.75,0.785,1.75,1.75V10.25z
	 M2.25,9.75h19.5V5.5c0-0.689-0.561-1.25-1.25-1.25h-17c-0.689,0-1.25,0.561-1.25,1.25V9.75z"/>
<circle style="fill:#333333;" cx="5" cy="7" r="1"/>
<circle style="fill:#333333;" cx="8" cy="7" r="1"/>
<path style="fill:#333333;" d="M18.5,18.75c-0.965,0-1.75-0.785-1.75-1.75s0.785-1.75,1.75-1.75s1.75,0.785,1.75,1.75
	S19.465,18.75,18.5,18.75z M18.5,15.75c-0.689,0-1.25,0.561-1.25,1.25s0.561,1.25,1.25,1.25s1.25-0.561,1.25-1.25
	S19.189,15.75,18.5,15.75z"/>
<rect x="18.25" y="18.5" style="fill:#333333;" width="0.5" height="2"/>
<rect x="18.25" y="13.5" style="fill:#333333;" width="0.5" height="2"/>
<rect x="15.335" y="18" transform="matrix(0.8663 -0.4995 0.4995 0.8663 -6.9321 10.599)" style="fill:#333333;" width="2" height="0.501"/>
<rect x="19.665" y="15.5" transform="matrix(0.8663 -0.4995 0.4995 0.8663 -5.1045 12.4277)" style="fill:#333333;" width="2" height="0.501"/>
<rect x="16.085" y="14.75" transform="matrix(0.4999 -0.8661 0.8661 0.4999 -5.4718 22.0235)" style="fill:#333333;" width="0.501" height="2"/>
<rect x="20.415" y="17.25" transform="matrix(0.4999 -0.8661 0.8661 0.4999 -5.4716 27.0239)" style="fill:#333333;" width="0.501" height="2"/>
</svg>






