<?xml version="1.0" encoding="iso-8859-1"?>
<svg version="1.1" id="&#x56FE;&#x5C42;_1" xmlns="http://www.w3.org/2000/svg" xmlns:xlink="http://www.w3.org/1999/xlink" x="0px"
	 y="0px" viewBox="0 0 24 24" style="enable-background:new 0 0 24 24;" xml:space="preserve">
<path style="fill:#333333;" d="M13.613,22.25h-3.227v-2.436c-0.992-0.204-1.922-0.589-2.77-1.148l-1.723,1.723l-2.282-2.282
	l1.723-1.723c-0.56-0.848-0.945-1.778-1.148-2.771H1.75v-3.227h2.436c0.203-0.993,0.589-1.923,1.148-2.77L3.611,5.893l2.282-2.282
	l1.723,1.723c0.847-0.56,1.777-0.945,2.77-1.148V1.75h3.227v2.436c0.992,0.203,1.923,0.589,2.771,1.148l1.723-1.723l2.282,2.282
	l-1.723,1.723c0.56,0.848,0.944,1.778,1.148,2.77h2.436v3.227h-2.436c-0.204,0.992-0.589,1.922-1.148,2.771l1.723,1.723
	l-2.282,2.282l-1.723-1.723c-0.849,0.56-1.778,0.944-2.771,1.148V22.25z M10.886,21.75h2.227v-2.352l0.206-0.037
	c1.066-0.189,2.06-0.602,2.952-1.224l0.171-0.12l1.664,1.664l1.575-1.575l-1.664-1.664l0.12-0.171
	c0.622-0.893,1.034-1.886,1.224-2.952l0.037-0.206h2.352v-2.227h-2.352l-0.037-0.206c-0.189-1.066-0.602-2.06-1.224-2.952
	l-0.12-0.172l1.664-1.664l-1.575-1.575l-1.664,1.664l-0.171-0.12c-0.892-0.622-1.885-1.034-2.952-1.224l-0.206-0.037V2.25h-2.227
	v2.352L10.68,4.639C9.613,4.829,8.62,5.24,7.729,5.862l-0.172,0.12L5.893,4.318L4.318,5.893l1.664,1.664l-0.12,0.172
	C5.24,8.62,4.829,9.613,4.639,10.68l-0.037,0.206H2.25v2.227h2.352l0.037,0.206c0.19,1.067,0.602,2.061,1.224,2.952l0.12,0.171
	l-1.664,1.664l1.575,1.575l1.664-1.664l0.172,0.12c0.892,0.622,1.885,1.034,2.952,1.224l0.206,0.037V21.75z"/>
<path style="fill:#333333;" d="M12,14.75c-1.517,0-2.75-1.233-2.75-2.75S10.483,9.25,12,9.25s2.75,1.233,2.75,2.75
	S13.517,14.75,12,14.75z M12,9.75c-1.241,0-2.25,1.009-2.25,2.25c0,1.24,1.009,2.25,2.25,2.25c1.24,0,2.25-1.01,2.25-2.25
	C14.25,10.759,13.24,9.75,12,9.75z"/>
</svg>






