<?xml version="1.0" encoding="iso-8859-1"?>
<svg version="1.1" id="&#x56FE;&#x5C42;_1" xmlns="http://www.w3.org/2000/svg" xmlns:xlink="http://www.w3.org/1999/xlink" x="0px"
	 y="0px" viewBox="0 0 24 24" style="enable-background:new 0 0 24 24;" xml:space="preserve">
<path style="fill:#333333;" d="M20.25,16.75H3.75V6c0-0.965,0.785-1.75,1.75-1.75h5v0.5h-5C4.811,4.75,4.25,5.311,4.25,6v10.25h15.5
	V13h0.5V16.75z"/>
<path style="fill:#333333;" d="M19,20.75H5c-1.792,0-3.25-1.458-3.25-3.25v-1.25h20.5v1.25C22.25,19.292,20.792,20.75,19,20.75z
	 M2.25,16.75v0.75c0,1.517,1.233,2.75,2.75,2.75h14c1.517,0,2.75-1.233,2.75-2.75v-0.75H2.25z"/>
<path style="fill:#333333;" d="M17.5,8.75c-0.965,0-1.75-0.785-1.75-1.75s0.785-1.75,1.75-1.75S19.25,6.035,19.25,7
	S18.465,8.75,17.5,8.75z M17.5,5.75c-0.689,0-1.25,0.561-1.25,1.25s0.561,1.25,1.25,1.25S18.75,7.689,18.75,7S18.189,5.75,17.5,5.75
	z"/>
<rect x="17.25" y="8.5" style="fill:#333333;" width="0.5" height="2"/>
<rect x="17.25" y="3.5" style="fill:#333333;" width="0.5" height="2"/>
<rect x="14.335" y="8" transform="matrix(0.8658 -0.5003 0.5003 0.8658 -2.0703 8.7797)" style="fill:#333333;" width="2" height="0.5"/>
<rect x="18.665" y="5.5" transform="matrix(0.8658 -0.5003 0.5003 0.8658 -0.2385 10.6108)" style="fill:#333333;" width="2" height="0.5"/>
<rect x="15.085" y="4.75" transform="matrix(0.4999 -0.8661 0.8661 0.4999 2.6888 16.1566)" style="fill:#333333;" width="0.5" height="2"/>
<rect x="19.415" y="7.25" transform="matrix(0.4999 -0.8661 0.8661 0.4999 2.689 21.157)" style="fill:#333333;" width="0.5" height="2"/>
</svg>






