<?xml version="1.0" encoding="iso-8859-1"?>
<svg version="1.1" id="&#x56FE;&#x5C42;_1" xmlns="http://www.w3.org/2000/svg" xmlns:xlink="http://www.w3.org/1999/xlink" x="0px"
	 y="0px" viewBox="0 0 24 24" style="enable-background:new 0 0 24 24;" xml:space="preserve">
<path style="fill:#333333;" d="M17.143,20.75H6.857L1.71,12l5.147-8.75h10.286l0.073,0.123L22.29,12L17.143,20.75z M7.143,20.25
	h9.714L21.71,12l-4.853-8.25H7.143L2.29,12L7.143,20.25z"/>
<path style="fill:#333333;" d="M12,14.75c-1.517,0-2.75-1.233-2.75-2.75S10.483,9.25,12,9.25s2.75,1.233,2.75,2.75
	S13.517,14.75,12,14.75z M12,9.75c-1.241,0-2.25,1.009-2.25,2.25c0,1.24,1.009,2.25,2.25,2.25c1.24,0,2.25-1.01,2.25-2.25
	C14.25,10.759,13.24,9.75,12,9.75z"/>
</svg>






