<?xml version="1.0" encoding="iso-8859-1"?>
<svg version="1.1" id="&#x56FE;&#x5C42;_1" xmlns="http://www.w3.org/2000/svg" xmlns:xlink="http://www.w3.org/1999/xlink" x="0px"
	 y="0px" viewBox="0 0 24 24" style="enable-background:new 0 0 24 24;" xml:space="preserve">
<path style="fill:#333333;" d="M19.5,17.25h-15c-0.965,0-1.75-0.785-1.75-1.75v-11c0-0.965,0.785-1.75,1.75-1.75H12v0.5H4.5
	c-0.689,0-1.25,0.561-1.25,1.25v11c0,0.689,0.561,1.25,1.25,1.25h15c0.689,0,1.25-0.561,1.25-1.25V13h0.5v2.5
	C21.25,16.465,20.465,17.25,19.5,17.25z"/>
<rect x="11.75" y="17" style="fill:#333333;" width="0.5" height="4"/>
<rect x="7" y="20.75" style="fill:#333333;" width="10" height="0.5"/>
<path style="fill:#333333;" d="M18.5,8.25c-0.965,0-1.75-0.785-1.75-1.75s0.785-1.75,1.75-1.75s1.75,0.785,1.75,1.75
	S19.465,8.25,18.5,8.25z M18.5,5.25c-0.689,0-1.25,0.561-1.25,1.25s0.561,1.25,1.25,1.25s1.25-0.561,1.25-1.25
	S19.189,5.25,18.5,5.25z"/>
<rect x="18.25" y="8" style="fill:#333333;" width="0.5" height="2"/>
<rect x="18.25" y="3" style="fill:#333333;" width="0.5" height="2"/>
<rect x="15.335" y="7.5" transform="matrix(0.8658 -0.5003 0.5003 0.8658 -1.686 9.2129)" style="fill:#333333;" width="2" height="0.5"/>
<rect x="19.665" y="5" transform="matrix(0.8658 -0.5003 0.5003 0.8658 0.1459 11.044)" style="fill:#333333;" width="2" height="0.5"/>
<rect x="16.085" y="4.25" transform="matrix(0.4999 -0.8661 0.8661 0.4999 3.6219 16.7727)" style="fill:#333333;" width="0.5" height="2"/>
<rect x="20.415" y="6.75" transform="matrix(0.4999 -0.8661 0.8661 0.4999 3.6221 21.773)" style="fill:#333333;" width="0.5" height="2"/>
</svg>






