<?xml version="1.0" encoding="iso-8859-1"?>
<svg version="1.1" id="&#x56FE;&#x5C42;_1" xmlns="http://www.w3.org/2000/svg" xmlns:xlink="http://www.w3.org/1999/xlink" x="0px"
	 y="0px" viewBox="0 0 24 24" style="enable-background:new 0 0 24 24;" xml:space="preserve">
<polygon style="fill:#333333;" points="2.19,19.163 1.81,18.837 3.671,16.667 1.671,14.333 3.671,12 1.671,9.667 3.671,7.333 
	1.81,5.163 2.19,4.837 4.329,7.333 2.329,9.667 4.329,12 2.329,14.333 4.329,16.667 "/>
<polygon style="fill:#333333;" points="21.811,19.163 19.671,16.667 21.671,14.333 19.671,12 21.671,9.667 19.671,7.333 
	21.811,4.837 22.189,5.163 20.329,7.333 22.329,9.667 20.329,12 22.329,14.333 20.329,16.667 22.189,18.837 "/>
<path style="fill:#333333;" d="M17.25,21.25H6.75V2.75h10.5V21.25z M7.25,20.75h9.5V3.25h-9.5V20.75z"/>
<rect x="11" y="17.25" style="fill:#333333;" width="2" height="0.5"/>
</svg>






