<?xml version="1.0" encoding="iso-8859-1"?>
<svg version="1.1" id="&#x56FE;&#x5C42;_1" xmlns="http://www.w3.org/2000/svg" xmlns:xlink="http://www.w3.org/1999/xlink" x="0px"
	 y="0px" viewBox="0 0 24 24" style="enable-background:new 0 0 24 24;" xml:space="preserve">
<path style="fill:#333333;" d="M18.988,20.999l-0.342-0.365c1.973-1.84,3.104-4.439,3.104-7.134c0-5.376-4.374-9.75-9.75-9.75
	S2.25,8.124,2.25,13.5c0,2.694,1.131,5.294,3.103,7.134l-0.341,0.365C2.939,19.065,1.75,16.332,1.75,13.5
	C1.75,7.848,6.348,3.25,12,3.25c5.652,0,10.25,4.598,10.25,10.25C22.25,16.332,21.061,19.065,18.988,20.999z"/>
<path style="fill:#333333;" d="M7.398,18.438C6.033,17.166,5.25,15.366,5.25,13.5c0-3.722,3.028-6.75,6.75-6.75
	c3.722,0,6.75,3.028,6.75,6.75c0,1.866-0.783,3.666-2.147,4.938l-0.342-0.365c1.265-1.179,1.989-2.846,1.989-4.573
	c0-3.446-2.804-6.25-6.25-6.25s-6.25,2.804-6.25,6.25c0,1.728,0.725,3.395,1.989,4.573L7.398,18.438z"/>
<path style="fill:#333333;" d="M14.216,15.878l-0.342-0.365c0.557-0.519,0.876-1.252,0.876-2.013c0-1.516-1.233-2.75-2.75-2.75
	s-2.75,1.234-2.75,2.75c0,0.761,0.319,1.494,0.875,2.013l-0.341,0.365C9.127,15.266,8.75,14.398,8.75,13.5
	c0-1.792,1.458-3.25,3.25-3.25s3.25,1.458,3.25,3.25C15.25,14.398,14.873,15.266,14.216,15.878z"/>
</svg>






