<?xml version="1.0" encoding="iso-8859-1"?>
<svg version="1.1" id="&#x56FE;&#x5C42;_1" xmlns="http://www.w3.org/2000/svg" xmlns:xlink="http://www.w3.org/1999/xlink" x="0px"
	 y="0px" viewBox="0 0 24 24" style="enable-background:new 0 0 24 24;" xml:space="preserve">
<path style="fill:#333333;" d="M17.5,8.25c-1.517,0-2.75-1.233-2.75-2.75s1.233-2.75,2.75-2.75s2.75,1.233,2.75,2.75
	S19.017,8.25,17.5,8.25z M17.5,3.25c-1.24,0-2.25,1.009-2.25,2.25s1.01,2.25,2.25,2.25s2.25-1.009,2.25-2.25S18.74,3.25,17.5,3.25z"
	/>
<path style="fill:#333333;" d="M6.5,14.75c-1.517,0-2.75-1.233-2.75-2.75S4.983,9.25,6.5,9.25S9.25,10.483,9.25,12
	S8.017,14.75,6.5,14.75z M6.5,9.75c-1.241,0-2.25,1.009-2.25,2.25c0,1.24,1.009,2.25,2.25,2.25S8.75,13.24,8.75,12
	C8.75,10.759,7.741,9.75,6.5,9.75z"/>
<rect x="8.134" y="8.455" transform="matrix(0.8556 -0.5177 0.5177 0.8556 -2.797 7.3833)" style="fill:#333333;" width="7.402" height="0.5"/>
<rect x="11.755" y="11.379" transform="matrix(0.5087 -0.8609 0.8609 0.5087 -7.2341 17.8289)" style="fill:#333333;" width="0.499" height="7.748"/>
<path style="fill:#333333;" d="M17.5,21.25c-1.517,0-2.75-1.233-2.75-2.75s1.233-2.75,2.75-2.75s2.75,1.233,2.75,2.75
	S19.017,21.25,17.5,21.25z M17.5,16.25c-1.24,0-2.25,1.01-2.25,2.25s1.01,2.25,2.25,2.25s2.25-1.01,2.25-2.25
	S18.74,16.25,17.5,16.25z"/>
</svg>






