<?xml version="1.0" encoding="iso-8859-1"?>
<svg version="1.1" id="&#x56FE;&#x5C42;_1" xmlns="http://www.w3.org/2000/svg" xmlns:xlink="http://www.w3.org/1999/xlink" x="0px"
	 y="0px" viewBox="0 0 24 24" style="enable-background:new 0 0 24 24;" xml:space="preserve">
<polygon style="fill:#333333;" points="21.25,10 20.75,10 20.75,3.25 14,3.25 14,2.75 21.25,2.75 "/>
<path style="fill:#333333;" d="M19.5,21.25h-15c-0.965,0-1.75-0.785-1.75-1.75v-15c0-0.965,0.785-1.75,1.75-1.75H9v0.5H4.5
	c-0.689,0-1.25,0.561-1.25,1.25v15c0,0.689,0.561,1.25,1.25,1.25h15c0.689,0,1.25-0.561,1.25-1.25v-4.763h0.5V19.5
	C21.25,20.465,20.465,21.25,19.5,21.25z"/>
<rect x="11.315" y="7.025" transform="matrix(0.7071 -0.7071 0.7071 0.7071 -0.2456 13.9569)" style="fill:#333333;" width="10.819" height="0.5"/>
</svg>






