<?xml version="1.0" encoding="iso-8859-1"?>
<svg version="1.1" id="&#x56FE;&#x5C42;_1" xmlns="http://www.w3.org/2000/svg" xmlns:xlink="http://www.w3.org/1999/xlink" x="0px"
	 y="0px" viewBox="0 0 24 24" style="enable-background:new 0 0 24 24;" xml:space="preserve">
<path style="fill:#333333;" d="M18.25,7.25H5.75V2.849l2.49-1.124l2.108,1.003l1.749-1.017l1.748,1.017l2.113-1.006l2.292,1.133
	V7.25z M6.25,6.75h11.5V3.166l-1.796-0.888l-2.133,1.015l-1.725-1.003l-1.725,1.003L8.234,2.275L6.25,3.172V6.75z"/>
<path style="fill:#333333;" d="M12,22.375c-1.63,0-3.152-0.52-4.285-1.464C6.43,19.84,5.75,18.314,5.75,16.5V7h0.5v9.5
	c0,3.693,2.98,5.375,5.75,5.375s5.75-1.682,5.75-5.375V7h0.5v9.5C18.25,20.536,15.01,22.375,12,22.375z"/>
<rect x="10" y="17.25" style="fill:#333333;" width="4" height="0.5"/>
<path style="fill:#333333;" d="M12,14.75c-1.241,0-2.25-1.01-2.25-2.25c0-1.241,1.009-2.25,2.25-2.25c1.24,0,2.25,1.009,2.25,2.25
	C14.25,13.74,13.24,14.75,12,14.75z M12,10.75c-0.965,0-1.75,0.785-1.75,1.75s0.785,1.75,1.75,1.75s1.75-0.785,1.75-1.75
	S12.965,10.75,12,10.75z"/>
</svg>






