<?xml version="1.0" encoding="iso-8859-1"?>
<svg version="1.1" id="&#x56FE;&#x5C42;_1" xmlns="http://www.w3.org/2000/svg" xmlns:xlink="http://www.w3.org/1999/xlink" x="0px"
	 y="0px" viewBox="0 0 24 24" style="enable-background:new 0 0 24 24;" xml:space="preserve">
<path style="fill:#333333;" d="M6.757,20.491c-0.832,0-1.665-0.317-2.298-0.95c-1.268-1.268-1.268-3.329,0-4.597l5.756-5.756
	c0.229-0.23,0.632-0.23,0.861,0l3.734,3.735c0.114,0.114,0.179,0.267,0.179,0.43s-0.063,0.316-0.179,0.432l-5.756,5.757
	C8.422,20.174,7.59,20.491,6.757,20.491z M10.646,9.51c-0.028,0-0.056,0.01-0.077,0.032l-5.756,5.756
	c-1.072,1.072-1.072,2.817,0,3.89c1.073,1.072,2.817,1.072,3.889,0l5.756-5.757c0.028-0.028,0.032-0.061,0.032-0.078
	c0-0.017-0.004-0.048-0.031-0.075l-3.735-3.736C10.702,9.52,10.674,9.51,10.646,9.51z"/>
<path style="fill:#333333;" d="M16.656,13.593c-1.669,0-3.238-0.65-4.419-1.831C9.8,9.326,9.8,5.36,12.237,2.924l0.392-0.392
	c0.262-0.263,0.722-0.263,0.985,0l7.854,7.854c0.271,0.272,0.271,0.714,0,0.985l-0.392,0.391
	C19.896,12.942,18.326,13.593,16.656,13.593z M13.121,2.828c-0.053,0-0.102,0.021-0.139,0.058l-0.392,0.392
	c-2.242,2.242-2.242,5.89,0,8.131c1.086,1.086,2.53,1.684,4.065,1.684c1.536,0,2.98-0.598,4.066-1.684l0.392-0.391
	c0.076-0.077,0.076-0.202-0.001-0.279l-7.853-7.853C13.224,2.849,13.174,2.828,13.121,2.828z"/>
<rect x="9.086" y="14.164" transform="matrix(0.7071 -0.7071 0.7071 0.7071 -7.3846 11.0001)" style="fill:#333333;" width="1" height="0.5"/>
<rect x="14.286" y="8.464" transform="matrix(0.7069 -0.7074 0.7074 0.7069 -2.4337 13.0562)" style="fill:#333333;" width="0.5" height="2"/>
</svg>






