<?xml version="1.0" encoding="iso-8859-1"?>
<svg version="1.1" id="&#x56FE;&#x5C42;_1" xmlns="http://www.w3.org/2000/svg" xmlns:xlink="http://www.w3.org/1999/xlink" x="0px"
	 y="0px" viewBox="0 0 24 24" style="enable-background:new 0 0 24 24;" xml:space="preserve">
<path style="fill:#333333;" d="M16,22.25H8c-0.689,0-1.25-0.561-1.25-1.25V9.5c0-0.689,0.561-1.25,1.25-1.25h8
	c0.689,0,1.25,0.561,1.25,1.25V21C17.25,21.689,16.689,22.25,16,22.25z M8,8.75c-0.414,0-0.75,0.336-0.75,0.75V21
	c0,0.413,0.336,0.75,0.75,0.75h8c0.413,0,0.75-0.337,0.75-0.75V9.5c0-0.414-0.337-0.75-0.75-0.75H8z"/>
<path style="fill:#333333;" d="M14.75,8.75h-5.5v-3h5.5V8.75z M9.75,8.25h4.5v-2h-4.5V8.25z"/>
<path style="fill:#333333;" d="M14.75,6h-0.5V4.25h3.5v-2H13.5c-2.488,0-3.75,0.757-3.75,2.25V6h-0.5V4.5
	c0-1.799,1.47-2.75,4.25-2.75h4.75v3h-3.5V6z"/>
</svg>






