<?xml version="1.0" encoding="iso-8859-1"?>
<svg version="1.1" id="&#x56FE;&#x5C42;_1" xmlns="http://www.w3.org/2000/svg" xmlns:xlink="http://www.w3.org/1999/xlink" x="0px"
	 y="0px" viewBox="0 0 24 24" style="enable-background:new 0 0 24 24;" xml:space="preserve">
<path style="fill:#333333;" d="M11.2,12.15l-0.4-0.3l1.376-1.834l-5.36-5.847C5.536,2.89,4.87,2.683,4.019,2.75
	c-0.751,0.152-1.29,0.553-1.57,1.187c-0.412,0.931-0.17,2.207,0.266,2.935L2.286,7.128c-0.514-0.856-0.78-2.297-0.295-3.394
	c0.345-0.781,1.023-1.292,1.96-1.479c1.162-0.086,1.966,0.309,3.226,1.568l5.647,6.161L11.2,12.15z"/>
<path style="fill:#333333;" d="M6.75,21h-0.5v-2.396c-1.417-1.401-2.212-2.854-2.497-4.563C3.295,9.469,6.54,7.26,9.457,6.754
	l0.086,0.492c-0.979,0.17-5.838,1.294-5.294,6.729c0.27,1.612,1.041,2.998,2.426,4.345l0.076,0.074V21z"/>
<path style="fill:#333333;" d="M19.75,21h-0.5v-2.094l0.062-0.07c2.628-3.031,2.649-5.602,2.449-6.264
	c-0.789-3.53-5.074-4.039-7.235-3.824l-0.051-0.497c2.315-0.234,6.908,0.339,7.77,4.194c0.334,1.104-0.054,3.797-2.494,6.647V21z"/>
<path style="fill:#333333;" d="M16.75,21h-0.5c0-1.806-1.635-2.75-3.25-2.75S9.75,19.194,9.75,21h-0.5c0-2.134,1.887-3.25,3.75-3.25
	S16.75,18.866,16.75,21z"/>
</svg>






