<?xml version="1.0" encoding="iso-8859-1"?>
<svg version="1.1" id="&#x56FE;&#x5C42;_1" xmlns="http://www.w3.org/2000/svg" xmlns:xlink="http://www.w3.org/1999/xlink" x="0px"
	 y="0px" viewBox="0 0 24 24" style="enable-background:new 0 0 24 24;" xml:space="preserve">
<path style="fill:#333333;" d="M19.613,21.75H4.387L2.207,8.25h19.587L19.613,21.75z M4.813,21.25h14.375l2.019-12.5H2.793
	L4.813,21.25z"/>
<path style="fill:#333333;" d="M17.75,8.5h-0.5c0-3.17-2.355-5.75-5.25-5.75c-2.895,0-5.25,2.58-5.25,5.75h-0.5
	c0-3.446,2.58-6.25,5.75-6.25C15.171,2.25,17.75,5.054,17.75,8.5z"/>
<circle style="fill:#333333;" cx="8.5" cy="13" r="1"/>
<path style="fill:#333333;" d="M12,18.25c-2.109,0-3.164-1.546-3.208-1.611l0.416-0.278c0.039,0.058,0.958,1.39,2.792,1.39
	s2.754-1.332,2.792-1.39l0.416,0.278C15.164,16.704,14.109,18.25,12,18.25z"/>
<circle style="fill:#333333;" cx="15.5" cy="13" r="1"/>
</svg>






