<?xml version="1.0" encoding="iso-8859-1"?>
<svg version="1.1" id="&#x56FE;&#x5C42;_1" xmlns="http://www.w3.org/2000/svg" xmlns:xlink="http://www.w3.org/1999/xlink" x="0px"
	 y="0px" viewBox="0 0 24 24" style="enable-background:new 0 0 24 24;" xml:space="preserve">
<path style="fill:none;" d="M4,22V3c0-0.276,0.224-0.5,0.5-0.5h10C14.776,2.5,15,2.724,15,3v19"/>
<path style="fill:#333333;" d="M15.25,22h-0.5V3c0-0.138-0.112-0.25-0.25-0.25h-10C4.362,2.75,4.25,2.862,4.25,3v19h-0.5V3
	c0-0.414,0.336-0.75,0.75-0.75h10c0.413,0,0.75,0.336,0.75,0.75V22z"/>
<polygon style="fill:#333333;" points="20.25,22 19.75,22 19.75,10.641 14.871,7.714 15.129,7.286 20.25,10.358 "/>
<rect x="2" y="21.75" style="fill:#333333;" width="20" height="0.5"/>
</svg>






