<?xml version="1.0" encoding="iso-8859-1"?>
<svg version="1.1" id="&#x56FE;&#x5C42;_1" xmlns="http://www.w3.org/2000/svg" xmlns:xlink="http://www.w3.org/1999/xlink" x="0px"
	 y="0px" viewBox="0 0 24 24" style="enable-background:new 0 0 24 24;" xml:space="preserve">
<path style="fill:none;" d="M19.5,16h-13L4,6h18L19.5,16z"/>
<path style="fill:#333333;" d="M19.695,16.25H6.305l-3.25-13H1.5v-0.5h1.945l0.75,3H22.32L19.695,16.25z M6.695,15.75h12.609
	l2.375-9.5H4.32L6.695,15.75z"/>
<path style="fill:#333333;" d="M6.5,21.25c-0.965,0-1.75-0.785-1.75-1.75s0.785-1.75,1.75-1.75s1.75,0.785,1.75,1.75
	S7.465,21.25,6.5,21.25z M6.5,18.25c-0.689,0-1.25,0.561-1.25,1.25s0.561,1.25,1.25,1.25s1.25-0.561,1.25-1.25
	S7.189,18.25,6.5,18.25z"/>
<path style="fill:#333333;" d="M19.5,21.25c-0.965,0-1.75-0.785-1.75-1.75s0.785-1.75,1.75-1.75s1.75,0.785,1.75,1.75
	S20.465,21.25,19.5,21.25z M19.5,18.25c-0.689,0-1.25,0.561-1.25,1.25s0.561,1.25,1.25,1.25s1.25-0.561,1.25-1.25
	S20.189,18.25,19.5,18.25z"/>
<rect x="11" y="10.75" style="fill:#333333;" width="4" height="0.5"/>
</svg>






