<?xml version="1.0" encoding="iso-8859-1"?>
<svg version="1.1" id="&#x56FE;&#x5C42;_1" xmlns="http://www.w3.org/2000/svg" xmlns:xlink="http://www.w3.org/1999/xlink" x="0px"
	 y="0px" viewBox="0 0 24 24" style="enable-background:new 0 0 24 24;" xml:space="preserve">
<path style="fill:#333333;" d="M19.5,11.169c-0.667,0-1.334-0.179-1.93-0.536L17,10.292l-0.57,0.342
	c-1.191,0.714-2.668,0.714-3.859,0L12,10.292l-0.571,0.342c-1.189,0.715-2.669,0.714-3.858,0L7,10.292l-0.571,0.342
	c-1.189,0.715-2.669,0.714-3.858,0L1.75,10.142V5.75h20.5v4.392l-0.82,0.492C20.834,10.991,20.167,11.169,19.5,11.169z M17,9.708
	l0.828,0.497c1.031,0.619,2.312,0.619,3.344,0l0.578-0.347V6.25H2.25v3.608l0.578,0.347c1.032,0.619,2.312,0.619,3.345,0L7,9.708
	l0.828,0.497c1.032,0.619,2.312,0.619,3.345,0L12,9.708l0.828,0.497c1.031,0.619,2.312,0.619,3.344,0L17,9.708z"/>
<polygon style="fill:#333333;" points="20.25,22.25 3.75,22.25 3.75,11.245 4.25,11.245 4.25,21.75 19.75,21.75 19.75,11 20.25,11 
	"/>
<polygon style="fill:#333333;" points="20.25,6 19.75,6 19.75,2.25 4.25,2.25 4.25,5.911 3.75,5.911 3.75,1.75 20.25,1.75 "/>
<path style="fill:#333333;" d="M14.75,22.25h-5.5v-6.5h5.5V22.25z M9.75,21.75h4.5v-5.5h-4.5V21.75z"/>
</svg>






