<?xml version="1.0" encoding="iso-8859-1"?>
<svg version="1.1" id="&#x56FE;&#x5C42;_1" xmlns="http://www.w3.org/2000/svg" xmlns:xlink="http://www.w3.org/1999/xlink" x="0px"
	 y="0px" viewBox="0 0 24 24" style="enable-background:new 0 0 24 24;" xml:space="preserve">
<path style="fill:#333333;" d="M17.5,21.25h-11c-0.965,0-1.75-0.785-1.75-1.75v-12c0-0.965,0.785-1.75,1.75-1.75h11
	c0.965,0,1.75,0.785,1.75,1.75v12C19.25,20.465,18.465,21.25,17.5,21.25z M6.5,6.25c-0.689,0-1.25,0.561-1.25,1.25v12
	c0,0.689,0.561,1.25,1.25,1.25h11c0.689,0,1.25-0.561,1.25-1.25v-12c0-0.689-0.561-1.25-1.25-1.25H6.5z"/>
<path style="fill:#333333;" d="M15.25,9h-0.5V5c0-1.517-1.233-2.75-2.75-2.75S9.25,3.483,9.25,5v4h-0.5V5
	c0-1.792,1.458-3.25,3.25-3.25S15.25,3.208,15.25,5V9z"/>
</svg>






