<?xml version="1.0" encoding="iso-8859-1"?>
<svg version="1.1" id="&#x56FE;&#x5C42;_1" xmlns="http://www.w3.org/2000/svg" xmlns:xlink="http://www.w3.org/1999/xlink" x="0px"
	 y="0px" viewBox="0 0 24 24" style="enable-background:new 0 0 24 24;" xml:space="preserve">
<polygon style="fill:#333333;" points="17.899,12.25 8.833,12.25 5.333,3.75 2.5,3.75 2.5,3.25 5.667,3.25 9.167,11.75 
	17.601,11.75 21.279,4.882 21.721,5.118 "/>
<rect x="10.5" y="5.75" style="fill:#333333;" width="6" height="0.5"/>
<rect x="13.25" y="3" style="fill:#333333;" width="0.5" height="6"/>
<polygon style="fill:#333333;" points="20,15.25 7,15.25 6.792,14.861 8.792,11.861 9.208,12.139 7.467,14.75 20,14.75 "/>
<path style="fill:#333333;" d="M9.5,21.25c-0.965,0-1.75-0.785-1.75-1.75s0.785-1.75,1.75-1.75s1.75,0.785,1.75,1.75
	S10.465,21.25,9.5,21.25z M9.5,18.25c-0.689,0-1.25,0.561-1.25,1.25s0.561,1.25,1.25,1.25s1.25-0.561,1.25-1.25
	S10.189,18.25,9.5,18.25z"/>
<path style="fill:#333333;" d="M17.5,21.25c-0.965,0-1.75-0.785-1.75-1.75s0.785-1.75,1.75-1.75s1.75,0.785,1.75,1.75
	S18.465,21.25,17.5,21.25z M17.5,18.25c-0.689,0-1.25,0.561-1.25,1.25s0.561,1.25,1.25,1.25s1.25-0.561,1.25-1.25
	S18.189,18.25,17.5,18.25z"/>
</svg>






