<?xml version="1.0" encoding="iso-8859-1"?>
<svg version="1.1" id="&#x56FE;&#x5C42;_1" xmlns="http://www.w3.org/2000/svg" xmlns:xlink="http://www.w3.org/1999/xlink" x="0px"
	 y="0px" viewBox="0 0 24 24" style="enable-background:new 0 0 24 24;" xml:space="preserve">
<path style="fill:#333333;" d="M12,22.25c-8.087,0-9.674-4.48-9.737-4.671l-0.023-0.071l0.02-0.073L5.776,4.371L8.396,1.75h7.207
	l2.62,2.621l0.018,0.064l3.52,13.073l-0.023,0.071C21.674,17.77,20.087,22.25,12,22.25z M2.763,17.485
	C2.991,18.028,4.822,21.75,12,21.75s9.009-3.722,9.237-4.265L17.776,4.629l-2.38-2.379H8.604L6.224,4.629L2.763,17.485z"/>
<rect x="3.377" y="16.75" transform="matrix(0.2421 -0.9703 0.9703 0.2421 -10.8099 20.1616)" style="fill:#333333;" width="8.246" height="0.5"/>
<path style="fill:#333333;" d="M12,22.25c-8.087,0-9.674-4.48-9.737-4.671l0.474-0.159c0.015,0.044,1.56,4.33,9.263,4.33V22.25z"/>
</svg>






