<?xml version="1.0" encoding="iso-8859-1"?>
<svg version="1.1" id="&#x56FE;&#x5C42;_1" xmlns="http://www.w3.org/2000/svg" xmlns:xlink="http://www.w3.org/1999/xlink" x="0px"
	 y="0px" viewBox="0 0 24 24" style="enable-background:new 0 0 24 24;" xml:space="preserve">
<path style="fill:#333333;" d="M13.75,11.25h-9.5V10c0-1.792,2.131-3.25,4.75-3.25s4.75,1.458,4.75,3.25V11.25z M4.75,10.75h8.5V10
	c0-1.517-1.907-2.75-4.25-2.75S4.75,8.483,4.75,10V10.75z"/>
<path style="fill:#333333;" d="M21.25,22h-0.5V6.25c0-2.206-2.579-4-5.75-4c-3.17,0-5.75,1.794-5.75,4V7h-0.5V6.25
	c0-2.481,2.804-4.5,6.25-4.5s6.25,2.019,6.25,4.5V22z"/>
<rect x="8.75" y="14" style="fill:#333333;" width="0.5" height="0.5"/>
<polygon style="fill:#333333;" points="5.149,14.571 4.68,14.399 4.851,13.93 5.32,14.102 "/>
<polygon style="fill:#333333;" points="2.149,22.071 1.68,21.899 1.851,21.43 2.32,21.602 "/>
<rect x="8.75" y="21.5" style="fill:#333333;" width="0.5" height="0.5"/>
<rect x="8.75" y="17.5" style="fill:#333333;" width="0.5" height="1"/>
<polygon style="fill:#333333;" points="3.564,18.556 3.094,18.384 3.436,17.444 3.906,17.616 "/>
</svg>






