<?xml version="1.0" encoding="iso-8859-1"?>
<svg version="1.1" id="&#x56FE;&#x5C42;_1" xmlns="http://www.w3.org/2000/svg" xmlns:xlink="http://www.w3.org/1999/xlink" x="0px"
	 y="0px" viewBox="0 0 24 24" style="enable-background:new 0 0 24 24;" xml:space="preserve">
<path style="fill:#333333;" d="M12.272,22.416c-3.165,0-5.78-1.069-7.949-3.239c-3.174-3.174-3.556-7.035-1.022-10.329
	C5.454,6.05,8.71,5.414,9.657,5.286C9.893,5.254,10.12,5.25,10.312,5.25h9.438V5.5c0,0.106-0.018,2.622-1.573,4.177
	c-1.511,1.51-3.057,2.073-3.677,2.073c-0.485,0-5.165,0.502-6.344,1.445c-0.417,0.333-1.119,1.035-1.14,1.994
	C7,15.917,7.386,16.631,8.165,17.312c2.003,1.753,5.404,2.395,7.743,1.456c2.38-0.952,3.854-3.851,3.869-3.88l0.456,0.02
	l2.095,5.237l-0.239,0.09c-0.04,0.015-4.066,1.515-7.553,2.013C13.751,22.359,12.997,22.416,12.272,22.416z M10.312,5.75
	c-0.197,0-0.392,0.005-0.587,0.031C8.825,5.903,5.733,6.506,3.698,9.152c-2.367,3.076-2,6.691,0.979,9.671
	c2.584,2.584,5.696,3.512,9.788,2.93c2.946-0.421,6.294-1.573,7.207-1.899l-1.709-4.273c-0.54,0.904-1.891,2.86-3.87,3.652
	c-2.5,0.997-6.126,0.322-8.257-1.544c-0.895-0.783-1.339-1.628-1.319-2.511c0.019-0.86,0.491-1.703,1.328-2.373
	c1.321-1.056,6.11-1.555,6.656-1.555c0.438,0,1.882-0.485,3.323-1.927c1.138-1.138,1.368-2.92,1.415-3.573H10.312z"/>
<rect x="11.25" y="5.146" transform="matrix(0.8944 -0.4472 0.4472 0.8944 -2.5872 6.0403)" style="fill:#333333;" width="0.5" height="6.708"/>
<path style="fill:#333333;" d="M19.75,5.5h-0.5c0-1.792-1.458-3.25-3.25-3.25H9v-0.5h7C18.067,1.75,19.75,3.432,19.75,5.5z"/>
<circle style="fill:#333333;" cx="15" cy="8" r="1"/>
</svg>






