<?xml version="1.0" encoding="iso-8859-1"?>
<svg version="1.1" id="&#x56FE;&#x5C42;_1" xmlns="http://www.w3.org/2000/svg" xmlns:xlink="http://www.w3.org/1999/xlink" x="0px"
	 y="0px" viewBox="0 0 24 24" style="enable-background:new 0 0 24 24;" xml:space="preserve">
<path style="fill:#333333;" d="M16.904,6.25H7.096l1.75-3.5h6.309L16.904,6.25z M7.904,5.75h8.191l-1.25-2.5H9.154L7.904,5.75z"/>
<path style="fill:#333333;" d="M20.5,21.25h-17c-0.965,0-1.75-0.74-1.75-1.65V7.4c0-0.91,0.785-1.65,1.75-1.65h17
	c0.965,0,1.75,0.74,1.75,1.65v12.2C22.25,20.51,21.465,21.25,20.5,21.25z M3.5,6.25c-0.689,0-1.25,0.516-1.25,1.15v12.2
	c0,0.635,0.561,1.15,1.25,1.15h17c0.689,0,1.25-0.516,1.25-1.15V7.4c0-0.634-0.561-1.15-1.25-1.15H3.5z"/>
<path style="fill:#333333;" d="M9.51,17.25l-0.02-0.5c1.84-0.071,4.76-0.594,4.76-1.694c0-0.684-1.177-1.005-2.316-1.314
	c-1.319-0.359-2.684-0.73-2.684-1.797c0-1.57,2.979-2.118,4.739-2.194l0.021,0.5c-1.647,0.071-4.261,0.594-4.261,1.694
	c0,0.684,1.177,1.005,2.315,1.314c1.32,0.359,2.685,0.73,2.685,1.797C14.75,16.991,10.046,17.229,9.51,17.25z"/>
</svg>






