<?xml version="1.0" encoding="iso-8859-1"?>
<svg version="1.1" id="&#x56FE;&#x5C42;_1" xmlns="http://www.w3.org/2000/svg" xmlns:xlink="http://www.w3.org/1999/xlink" x="0px"
	 y="0px" viewBox="0 0 24 24" style="enable-background:new 0 0 24 24;" xml:space="preserve">
<rect x="10.75" y="5.013" transform="matrix(0.3162 -0.9487 0.9487 0.3162 -6.2344 20.3502)" style="fill:#333333;" width="0.5" height="18.974"/>
<path style="fill:#333333;" d="M6,9.75C5.035,9.75,4.25,8.965,4.25,8S5.035,6.25,6,6.25S7.75,7.035,7.75,8S6.965,9.75,6,9.75z
	 M6,6.75C5.311,6.75,4.75,7.311,4.75,8S5.311,9.25,6,9.25S7.25,8.689,7.25,8S6.689,6.75,6,6.75z"/>
<path style="fill:#333333;" d="M14.75,18.25h-5.5v-4.603l5.5,1.925V18.25z M9.75,17.75h4.5v-1.822l-4.5-1.575V17.75z"/>
<path style="fill:#333333;" d="M20.239,17.573l-0.479-0.146l1.587-5.157c0.193-0.628-0.136-1.302-0.749-1.536l-8.952-3.41
	l-2.413,6.514l-0.469-0.174l2.587-6.986l9.423,3.59c0.858,0.327,1.319,1.271,1.05,2.149L20.239,17.573z"/>
</svg>






