<?xml version="1.0" encoding="iso-8859-1"?>
<svg version="1.1" id="&#x56FE;&#x5C42;_1" xmlns="http://www.w3.org/2000/svg" xmlns:xlink="http://www.w3.org/1999/xlink" x="0px"
	 y="0px" viewBox="0 0 24 24" style="enable-background:new 0 0 24 24;" xml:space="preserve">
<path style="fill:#333333;" d="M12.435,15.557c-0.409,0-0.821-0.036-1.232-0.108c-1.845-0.325-3.453-1.35-4.527-2.885
	C5.6,11.029,5.188,9.167,5.513,7.323c0.325-1.845,1.35-3.453,2.884-4.527l0.205-0.144l8.046,11.491l-0.205,0.144
	C15.251,15.121,13.861,15.557,12.435,15.557z M8.482,3.352C7.169,4.347,6.293,5.778,6.005,7.41
	c-0.302,1.713,0.081,3.442,1.079,4.867c0.998,1.426,2.491,2.377,4.205,2.679c1.631,0.288,3.276-0.046,4.66-0.939L8.482,3.352z"/>
<rect x="10.75" y="15.5" style="fill:#333333;" width="0.5" height="5.5"/>
<polygon style="fill:#333333;" points="21,21.25 2.631,21.25 6.268,12.157 6.732,12.343 3.369,20.75 21,20.75 "/>
<polygon style="fill:#333333;" points="12.647,8.702 12.353,8.298 19.853,2.798 20.147,3.202 "/>
<polygon style="fill:#333333;" points="16.737,13.827 16.263,13.673 19.655,3.25 8.5,3.25 8.5,2.75 20.345,2.75 "/>
</svg>






