<?xml version="1.0" encoding="iso-8859-1"?>
<svg version="1.1" id="&#x56FE;&#x5C42;_1" xmlns="http://www.w3.org/2000/svg" xmlns:xlink="http://www.w3.org/1999/xlink" x="0px"
	 y="0px" viewBox="0 0 24 24" style="enable-background:new 0 0 24 24;" xml:space="preserve">
<path style="fill:#333333;" d="M19.248,19.248l-0.354-0.354c1.842-1.842,2.855-4.29,2.855-6.895c0-2.604-1.014-5.053-2.855-6.895
	l0.354-0.354C21.184,6.688,22.25,9.262,22.25,12C22.25,14.738,21.184,17.312,19.248,19.248z"/>
<path style="fill:#333333;" d="M4.752,19.248C2.816,17.312,1.75,14.738,1.75,12c0-2.738,1.066-5.312,3.002-7.248l0.354,0.354
	C3.264,6.947,2.25,9.396,2.25,12c0,2.604,1.014,5.053,2.855,6.895L4.752,19.248z"/>
<path style="fill:#333333;" d="M7.374,17.127C6.004,15.757,5.25,13.936,5.25,12c0-1.937,0.754-3.757,2.124-5.126l0.354,0.354
	C6.452,8.502,5.75,10.197,5.75,12s0.702,3.497,1.977,4.773L7.374,17.127z"/>
<path style="fill:#333333;" d="M16.626,17.127l-0.354-0.354c1.275-1.275,1.978-2.971,1.978-4.773c0-1.804-0.702-3.499-1.978-4.773
	l0.354-0.354c1.37,1.369,2.124,3.189,2.124,5.126C18.75,13.937,17.996,15.757,16.626,17.127z"/>
<rect x="11.75" y="17" style="fill:#333333;" width="0.5" height="5"/>
<rect x="11.75" y="2" style="fill:#333333;" width="0.5" height="5"/>
<path style="fill:#333333;" d="M12,13.5c0.828,0,1.5-0.672,1.5-1.5s-0.672-1.5-1.5-1.5s-1.5,0.672-1.5,1.5S11.172,13.5,12,13.5z"/>
</svg>






