<?xml version="1.0" encoding="iso-8859-1"?>
<svg version="1.1" id="&#x56FE;&#x5C42;_1" xmlns="http://www.w3.org/2000/svg" xmlns:xlink="http://www.w3.org/1999/xlink" x="0px"
	 y="0px" viewBox="0 0 24 24" style="enable-background:new 0 0 24 24;" xml:space="preserve">
<polygon style="fill:#333333;" points="17.755,22.049 13.795,2.25 10.205,2.25 6.245,22.049 5.755,21.951 9.795,1.75 14.205,1.75 
	18.245,21.951 "/>
<rect x="7.5" y="4.75" style="fill:#333333;" width="9" height="0.5"/>
<rect x="6" y="12.75" style="fill:#333333;" width="12" height="0.5"/>
<rect x="12.25" y="10.669" transform="matrix(0.5145 -0.8575 0.8575 0.5145 -8.0799 18.729)" style="fill:#333333;" width="0.501" height="11.662"/>
<rect x="6.132" y="16.25" transform="matrix(0.8453 -0.5342 0.5342 0.8453 -6.9974 8.8287)" style="fill:#333333;" width="11.236" height="0.499"/>
<rect x="5.947" y="9" transform="matrix(0.7071 -0.7071 0.7071 0.7071 -3.2457 10.6642)" style="fill:#333333;" width="10.607" height="0.5"/>
<rect x="12.5" y="3.947" transform="matrix(0.7071 -0.7071 0.7071 0.7071 -2.8063 11.7249)" style="fill:#333333;" width="0.5" height="10.607"/>
</svg>






