<?xml version="1.0" encoding="iso-8859-1"?>
<svg version="1.1" id="&#x56FE;&#x5C42;_1" xmlns="http://www.w3.org/2000/svg" xmlns:xlink="http://www.w3.org/1999/xlink" x="0px"
	 y="0px" viewBox="0 0 24 24" style="enable-background:new 0 0 24 24;" xml:space="preserve">
<path style="fill:#333333;" d="M19.248,19.248l-0.354-0.354c3.802-3.802,3.802-9.987,0-13.789c-3.801-3.801-9.988-3.801-13.789,0
	c-3.801,3.802-3.801,9.987,0,13.789l-0.354,0.354c-3.996-3.997-3.996-10.5,0-14.496c3.996-3.996,10.5-3.996,14.496,0
	C23.245,8.749,23.245,15.252,19.248,19.248z M16.419,16.419l-0.354-0.354c1.086-1.086,1.685-2.529,1.685-4.065
	c0-1.536-0.599-2.98-1.685-4.066S13.536,6.25,12,6.25c-1.536,0-2.98,0.598-4.066,1.684S6.25,10.464,6.25,12
	c0,1.536,0.598,2.979,1.684,4.065l-0.354,0.354C6.4,15.238,5.75,13.669,5.75,12c0-1.669,0.65-3.239,1.831-4.419S10.331,5.75,12,5.75
	c1.669,0,3.238,0.65,4.419,1.831S18.25,10.331,18.25,12C18.25,13.669,17.6,15.238,16.419,16.419z"/>
<path style="fill:none;" d="M14,12c0,1.105-0.895,2-2,2s-2-0.895-2-2s0.895-2,2-2S14,10.895,14,12z"/>
<path style="fill:#333333;" d="M14,22.25h-2V22v0.25h-2v-0.5h1.75v-7.514c-1.124-0.125-2-1.08-2-2.236c0-1.241,1.009-2.25,2.25-2.25
	c1.24,0,2.25,1.009,2.25,2.25c0,1.156-0.877,2.111-2,2.236v7.514H14V22.25z M12,10.25c-0.965,0-1.75,0.785-1.75,1.75
	s0.785,1.75,1.75,1.75s1.75-0.785,1.75-1.75S12.965,10.25,12,10.25z"/>
</svg>






