<?xml version="1.0" encoding="iso-8859-1"?>
<svg version="1.1" id="&#x56FE;&#x5C42;_1" xmlns="http://www.w3.org/2000/svg" xmlns:xlink="http://www.w3.org/1999/xlink" x="0px"
	 y="0px" viewBox="0 0 24 24" style="enable-background:new 0 0 24 24;" xml:space="preserve">
<path style="fill:#333333;" d="M17.5,22.25c-3.705,0-5.24-7.678-5.745-10.201c-0.072-0.36-0.144-0.823-0.227-1.352
	C11.037,7.538,10.214,2.25,7,2.25c-3.73,0-4.742,9.677-4.751,9.774l-0.497-0.049C1.793,11.558,2.822,1.75,7,1.75
	c3.643,0,4.506,5.553,5.022,8.871c0.081,0.521,0.151,0.976,0.223,1.331c0.484,2.424,1.96,9.799,5.255,9.799
	c2.685,0,3.979-7.056,4.251-9.775l0.498,0.049C22.207,12.442,21.184,22.25,17.5,22.25z"/>
<rect x="5.5" y="11.75" style="fill:#333333;" width="3" height="0.5"/>
<rect x="15.5" y="11.75" style="fill:#333333;" width="3" height="0.5"/>
</svg>






