<?xml version="1.0" encoding="iso-8859-1"?>
<svg version="1.1" id="&#x56FE;&#x5C42;_1" xmlns="http://www.w3.org/2000/svg" xmlns:xlink="http://www.w3.org/1999/xlink" x="0px"
	 y="0px" viewBox="0 0 24 24" style="enable-background:new 0 0 24 24;" xml:space="preserve">
<path style="fill:#333333;" d="M17.225,22.25H7.029L5.217,7.75h13.562L17.225,22.25z M7.471,21.75h9.305l1.446-13.5H5.783
	L7.471,21.75z"/>
<rect x="11.25" y="1.919" transform="matrix(0.9487 -0.3162 0.3162 0.9487 -0.5167 3.8162)" style="fill:#333333;" width="0.5" height="3.162"/>
<rect x="3" y="7.75" style="fill:#333333;" width="18" height="0.5"/>
<path style="fill:#333333;" d="M18.549,16.75c-0.332,0-0.564-0.035-0.589-0.039l0.079-0.494c0.015,0.002,1.306,0.198,2.096-0.402
	c0.343-0.262,0.545-0.646,0.602-1.141c0.057-0.503-0.052-0.9-0.329-1.212c-0.625-0.7-1.897-0.712-1.91-0.712v-0.5
	c0.062,0,1.506,0.01,2.281,0.877c0.374,0.419,0.527,0.958,0.454,1.604c-0.071,0.637-0.34,1.136-0.797,1.483
	C19.846,16.661,19.073,16.75,18.549,16.75z"/>
<path style="fill:#333333;" d="M5.451,16.75c-0.524,0-1.297-0.089-1.886-0.536c-0.457-0.348-0.726-0.847-0.797-1.483
	c-0.073-0.646,0.08-1.185,0.454-1.604c0.775-0.867,2.22-0.877,2.281-0.877l0,0.5c-0.013,0-1.286,0.012-1.91,0.712
	c-0.278,0.312-0.386,0.708-0.329,1.212c0.056,0.495,0.258,0.879,0.601,1.141c0.791,0.601,2.083,0.405,2.095,0.402l0.079,0.494
	C6.016,16.715,5.783,16.75,5.451,16.75z"/>
<path style="fill:#333333;" d="M18.75,8.25H5.25v-3.5h13.5V8.25z M5.75,7.75h12.5v-2.5H5.75V7.75z"/>
</svg>






