<?xml version="1.0" encoding="iso-8859-1"?>
<svg version="1.1" id="&#x56FE;&#x5C42;_1" xmlns="http://www.w3.org/2000/svg" xmlns:xlink="http://www.w3.org/1999/xlink" x="0px"
	 y="0px" viewBox="0 0 24 24" style="enable-background:new 0 0 24 24;" xml:space="preserve">
<polygon style="fill:#333333;" points="17.125,15.248 12,12.289 6.875,15.248 6.625,14.814 11.75,11.855 11.75,6 12.25,6 
	12.25,11.855 17.375,14.814 "/>
<path style="fill:#333333;" d="M5,10.25c-1.241,0-2.25-1.009-2.25-2.25S3.759,5.75,5,5.75S7.25,6.759,7.25,8S6.241,10.25,5,10.25z
	 M5,6.25C4.035,6.25,3.25,7.035,3.25,8S4.035,9.75,5,9.75S6.75,8.965,6.75,8S5.965,6.25,5,6.25z"/>
<path style="fill:#333333;" d="M5,18.25c-1.241,0-2.25-1.01-2.25-2.25S3.759,13.75,5,13.75S7.25,14.76,7.25,16S6.241,18.25,5,18.25z
	 M5,14.25c-0.965,0-1.75,0.785-1.75,1.75S4.035,17.75,5,17.75S6.75,16.965,6.75,16S5.965,14.25,5,14.25z"/>
<path style="fill:#333333;" d="M12,22.25c-1.241,0-2.25-1.01-2.25-2.25s1.009-2.25,2.25-2.25c1.24,0,2.25,1.01,2.25,2.25
	S13.24,22.25,12,22.25z M12,18.25c-0.965,0-1.75,0.785-1.75,1.75s0.785,1.75,1.75,1.75s1.75-0.785,1.75-1.75S12.965,18.25,12,18.25z
	"/>
<path style="fill:#333333;" d="M19,18.25c-1.24,0-2.25-1.01-2.25-2.25s1.01-2.25,2.25-2.25s2.25,1.01,2.25,2.25
	S20.24,18.25,19,18.25z M19,14.25c-0.965,0-1.75,0.785-1.75,1.75s0.785,1.75,1.75,1.75s1.75-0.785,1.75-1.75S19.965,14.25,19,14.25z
	"/>
<path style="fill:#333333;" d="M19,10.25c-1.24,0-2.25-1.009-2.25-2.25S17.76,5.75,19,5.75S21.25,6.759,21.25,8
	S20.24,10.25,19,10.25z M19,6.25c-0.965,0-1.75,0.785-1.75,1.75S18.035,9.75,19,9.75S20.75,8.965,20.75,8S19.965,6.25,19,6.25z"/>
<path style="fill:#333333;" d="M12,6.25c-1.241,0-2.25-1.009-2.25-2.25S10.759,1.75,12,1.75c1.24,0,2.25,1.009,2.25,2.25
	S13.24,6.25,12,6.25z M12,2.25c-0.965,0-1.75,0.785-1.75,1.75S11.035,5.75,12,5.75S13.75,4.965,13.75,4S12.965,2.25,12,2.25z"/>
</svg>






