<?xml version="1.0" encoding="iso-8859-1"?>
<svg version="1.1" id="&#x56FE;&#x5C42;_1" xmlns="http://www.w3.org/2000/svg" xmlns:xlink="http://www.w3.org/1999/xlink" x="0px"
	 y="0px" viewBox="0 0 24 24" style="enable-background:new 0 0 24 24;" xml:space="preserve">
<rect x="18.678" y="10" style="fill:#333333;" width="0.5" height="4"/>
<rect x="13.464" y="17.75" transform="matrix(0.8663 -0.4995 0.4995 0.8663 -6.9236 10.1307)" style="fill:#333333;" width="4" height="0.501"/>
<rect x="8.285" y="16" transform="matrix(0.5 -0.866 0.866 0.5 -11.3206 16.3915)" style="fill:#333333;" width="0.501" height="4"/>
<rect x="4.822" y="10" style="fill:#333333;" width="0.5" height="4"/>
<rect x="6.536" y="5.75" transform="matrix(0.8658 -0.5003 0.5003 0.8658 -1.8568 5.0758)" style="fill:#333333;" width="4" height="0.5"/>
<rect x="15.215" y="4" transform="matrix(0.5 -0.866 0.866 0.5 2.5357 16.3921)" style="fill:#333333;" width="0.5" height="4"/>
<path style="fill:#333333;" d="M12,22.25c-1.241,0-2.25-1.01-2.25-2.25s1.009-2.25,2.25-2.25c1.24,0,2.25,1.01,2.25,2.25
	S13.24,22.25,12,22.25z M12,18.25c-0.965,0-1.75,0.785-1.75,1.75s0.785,1.75,1.75,1.75s1.75-0.785,1.75-1.75S12.965,18.25,12,18.25z
	"/>
<path style="fill:#333333;" d="M12,6.25c-1.241,0-2.25-1.009-2.25-2.25S10.759,1.75,12,1.75c1.24,0,2.25,1.009,2.25,2.25
	S13.24,6.25,12,6.25z M12,2.25c-0.965,0-1.75,0.785-1.75,1.75S11.035,5.75,12,5.75S13.75,4.965,13.75,4S12.965,2.25,12,2.25z"/>
<path style="fill:#333333;" d="M12,14.25c-1.241,0-2.25-1.01-2.25-2.25c0-1.241,1.009-2.25,2.25-2.25c1.24,0,2.25,1.009,2.25,2.25
	C14.25,13.24,13.24,14.25,12,14.25z M12,10.25c-0.965,0-1.75,0.785-1.75,1.75s0.785,1.75,1.75,1.75s1.75-0.785,1.75-1.75
	S12.965,10.25,12,10.25z"/>
<path style="fill:#333333;" d="M19,10.25c-1.24,0-2.25-1.009-2.25-2.25S17.76,5.75,19,5.75S21.25,6.759,21.25,8
	S20.24,10.25,19,10.25z M19,6.25c-0.965,0-1.75,0.785-1.75,1.75S18.035,9.75,19,9.75S20.75,8.965,20.75,8S19.965,6.25,19,6.25z"/>
<path style="fill:#333333;" d="M19,18.25c-1.24,0-2.25-1.01-2.25-2.25s1.01-2.25,2.25-2.25s2.25,1.01,2.25,2.25
	S20.24,18.25,19,18.25z M19,14.25c-0.965,0-1.75,0.785-1.75,1.75s0.785,1.75,1.75,1.75s1.75-0.785,1.75-1.75S19.965,14.25,19,14.25z
	"/>
<path style="fill:#333333;" d="M5,10.25c-1.241,0-2.25-1.009-2.25-2.25S3.759,5.75,5,5.75S7.25,6.759,7.25,8S6.241,10.25,5,10.25z
	 M5,6.25C4.035,6.25,3.25,7.035,3.25,8S4.035,9.75,5,9.75S6.75,8.965,6.75,8S5.965,6.25,5,6.25z"/>
<path style="fill:#333333;" d="M5,18.25c-1.241,0-2.25-1.01-2.25-2.25S3.759,13.75,5,13.75S7.25,14.76,7.25,16S6.241,18.25,5,18.25z
	 M5,14.25c-0.965,0-1.75,0.785-1.75,1.75S4.035,17.75,5,17.75S6.75,16.965,6.75,16S5.965,14.25,5,14.25z"/>
</svg>






