<?xml version="1.0" encoding="iso-8859-1"?>
<svg version="1.1" id="&#x56FE;&#x5C42;_1" xmlns="http://www.w3.org/2000/svg" xmlns:xlink="http://www.w3.org/1999/xlink" x="0px"
	 y="0px" viewBox="0 0 24 24" style="enable-background:new 0 0 24 24;" xml:space="preserve">
<path style="fill:#333333;" d="M19.5,21.25h-15c-0.965,0-1.75-0.785-1.75-1.75v-15c0-0.965,0.785-1.75,1.75-1.75h15
	c0.965,0,1.75,0.785,1.75,1.75v15C21.25,20.465,20.465,21.25,19.5,21.25z M4.5,3.25c-0.689,0-1.25,0.561-1.25,1.25v15
	c0,0.689,0.561,1.25,1.25,1.25h15c0.689,0,1.25-0.561,1.25-1.25v-15c0-0.689-0.561-1.25-1.25-1.25H4.5z"/>
<path style="fill:#333333;" d="M12.25,16.75c-1.654,0-3-1.346-3-3s1.346-3,3-3s3,1.346,3,3S13.904,16.75,12.25,16.75z M12.25,11.25
	c-1.378,0-2.5,1.121-2.5,2.5s1.122,2.5,2.5,2.5c1.379,0,2.5-1.121,2.5-2.5S13.629,11.25,12.25,11.25z"/>
<path style="fill:#333333;" d="M9.75,13.5h-0.5V10c0-1.792,1.346-3.25,3-3.25c1.229,0,2.321,0.798,2.782,2.032l-0.469,0.175
	C14.177,7.92,13.269,7.25,12.25,7.25c-1.378,0-2.5,1.233-2.5,2.75V13.5z"/>
</svg>






