<?xml version="1.0" encoding="iso-8859-1"?>
<svg version="1.1" id="&#x56FE;&#x5C42;_1" xmlns="http://www.w3.org/2000/svg" xmlns:xlink="http://www.w3.org/1999/xlink" x="0px"
	 y="0px" viewBox="0 0 24 24" style="enable-background:new 0 0 24 24;" xml:space="preserve">
<path style="fill:#333333;" d="M13.84,21.823c-1.479,0-2.986-0.366-4.452-1.1l0,0c-2.649-1.324-5.324-5.133-7.102-8.095
	c-0.853-1.421-0.322-2.77,0.583-3.476c0.849-0.663,2.246-0.892,3.309,0.17l1.573,1.573V8.75c0-1.103,0.897-2,2-2
	c0.631,0,1.196,0.294,1.562,0.753C11.534,6.64,12.318,6,13.25,6s1.716,0.64,1.938,1.503c0.367-0.458,0.931-0.753,1.562-0.753
	c0.597,0,1.133,0.263,1.5,0.679V3.75c0-1.103,0.897-2,2-2s2,0.897,2,2v10.733c0,1.188-0.258,2.19-0.768,2.981
	c-0.646,1-1.755,2.377-3.362,3.255C16.771,21.455,15.32,21.823,13.84,21.823z M9.611,20.276c2.785,1.394,5.722,1.394,8.269,0.004
	c1.517-0.827,2.567-2.135,3.183-3.087c0.456-0.708,0.688-1.62,0.688-2.71V3.75c0-0.827-0.673-1.5-1.5-1.5s-1.5,0.673-1.5,1.5v5h-0.5
	c0-0.827-0.673-1.5-1.5-1.5s-1.5,0.673-1.5,1.5h-0.5V8c0-0.827-0.673-1.5-1.5-1.5s-1.5,0.673-1.5,1.5v0.75h-0.5
	c0-0.827-0.673-1.5-1.5-1.5s-1.5,0.673-1.5,1.5v2.75l-0.427,0.177l-2-2C4.971,8.824,3.879,8.996,3.176,9.547
	c-0.731,0.571-1.157,1.666-0.462,2.824C4.458,15.276,7.069,19.006,9.611,20.276L9.611,20.276z"/>
</svg>






