<?xml version="1.0" encoding="iso-8859-1"?>
<svg version="1.1" id="&#x56FE;&#x5C42;_1" xmlns="http://www.w3.org/2000/svg" xmlns:xlink="http://www.w3.org/1999/xlink" x="0px"
	 y="0px" viewBox="0 0 24 24" style="enable-background:new 0 0 24 24;" xml:space="preserve">
<path style="fill:#333333;" d="M22,6.25h-8L13.75,6V2L14,1.75h8L22.25,2v4L22,6.25z M14.25,5.75h7.5v-3.5h-7.5V5.75z"/>
<path style="fill:#333333;" d="M21,18.25H4c-1.241,0-2.25-1.01-2.25-2.25v-3c0-2.343,1.907-4.25,4.25-4.25h7.75V6L14,5.75h8L22.25,6
	v11C22.25,17.689,21.689,18.25,21,18.25z M6,9.25c-2.068,0-3.75,1.682-3.75,3.75v3c0,0.965,0.785,1.75,1.75,1.75h17
	c0.413,0,0.75-0.337,0.75-0.75V6.25h-7.5V9L14,9.25H6z"/>
<rect x="6.75" y="9" style="fill:#333333;" width="0.5" height="3"/>
<rect x="10.25" y="9" style="fill:#333333;" width="0.5" height="3"/>
<rect x="6.75" y="18" style="fill:#333333;" width="0.5" height="4"/>
<rect x="17.75" y="18" style="fill:#333333;" width="0.5" height="4"/>
<rect x="6" y="8.75" style="fill:#333333;" width="5.5" height="0.5"/>
<path style="fill:#333333;" d="M22,22.25H3c-0.689,0-1.25-0.561-1.25-1.25v-0.685h0.5V21c0,0.413,0.336,0.75,0.75,0.75h19V22.25z"/>
</svg>






