<?xml version="1.0" encoding="iso-8859-1"?>
<svg version="1.1" id="&#x56FE;&#x5C42;_1" xmlns="http://www.w3.org/2000/svg" xmlns:xlink="http://www.w3.org/1999/xlink" x="0px"
	 y="0px" viewBox="0 0 24 24" style="enable-background:new 0 0 24 24;" xml:space="preserve">
<path style="fill:#333333;" d="M22,20.16H2l-0.121-0.469l16.27-9l0.121-0.031H22l0.25,0.25v9L22,20.16z M2.968,19.66H21.75v-8.5
	h-3.416L2.968,19.66z"/>
<polygon style="fill:#333333;" points="3.434,10.624 1.818,9.825 2.04,9.376 3.536,10.116 11.964,5.25 12.072,3.584 12.57,3.617 
	12.454,5.416 12.33,5.616 3.67,10.616 "/>
<path style="fill:#333333;" d="M6.165,12.44c0.828,0,1.5-0.672,1.5-1.5c0-0.828-0.672-1.5-1.5-1.5c-0.828,0-1.5,0.672-1.5,1.5
	C4.665,11.768,5.337,12.44,6.165,12.44z"/>
<path style="fill:#333333;" d="M11.725,9.44c0.828,0,1.5-0.672,1.5-1.5c0-0.828-0.672-1.5-1.5-1.5c-0.828,0-1.5,0.672-1.5,1.5
	C10.225,8.768,10.897,9.44,11.725,9.44z"/>
</svg>






