<?xml version="1.0" encoding="iso-8859-1"?>
<svg version="1.1" id="&#x56FE;&#x5C42;_1" xmlns="http://www.w3.org/2000/svg" xmlns:xlink="http://www.w3.org/1999/xlink" x="0px"
	 y="0px" viewBox="0 0 24 24" style="enable-background:new 0 0 24 24;" xml:space="preserve">
<path style="fill:#333333;" d="M12,7.25c-1.517,0-2.75-1.233-2.75-2.75S10.483,1.75,12,1.75s2.75,1.233,2.75,2.75
	S13.517,7.25,12,7.25z M12,2.25c-1.241,0-2.25,1.009-2.25,2.25S10.759,6.75,12,6.75c1.24,0,2.25-1.009,2.25-2.25S13.24,2.25,12,2.25
	z"/>
<polygon style="fill:#333333;" points="13.256,22.055 12.271,17.625 9.323,14.677 9.261,14.428 10.761,9.428 11.16,9.308 
	14.091,11.75 17,11.75 17,12.25 14,12.25 13.84,12.192 11.131,9.935 9.782,14.429 12.677,17.323 12.744,17.445 13.744,21.945 "/>
<polygon style="fill:#333333;" points="4.66,22.192 4.34,21.808 7.292,19.349 8.268,16.907 8.732,17.093 7.66,19.692 "/>
<polygon style="fill:#333333;" points="19.5,22.25 2.5,22.25 2.5,21.75 19.371,21.75 21.797,18.354 22.203,18.646 19.703,22.146 "/>
<rect x="16.75" y="12" style="fill:#333333;" width="0.5" height="10"/>
</svg>






