<?xml version="1.0" encoding="iso-8859-1"?>
<svg version="1.1" id="&#x56FE;&#x5C42;_1" xmlns="http://www.w3.org/2000/svg" xmlns:xlink="http://www.w3.org/1999/xlink" x="0px"
	 y="0px" viewBox="0 0 24 24" style="enable-background:new 0 0 24 24;" xml:space="preserve">
<path style="fill:#333333;" d="M18.739,22.25H5.261l1.745-4.315C4.65,16.271,3.25,13.558,3.25,10.636c0-4.9,3.925-8.886,8.75-8.886
	c4.825,0,8.75,3.986,8.75,8.886c0,2.921-1.4,5.634-3.757,7.298L18.739,22.25z M6.002,21.75h11.995l-1.618-4.001l0.168-0.113
	c2.318-1.561,3.703-4.177,3.703-7c0-4.624-3.701-8.386-8.25-8.386s-8.25,3.762-8.25,8.386c0,2.823,1.384,5.439,3.703,7l0.168,0.113
	L6.002,21.75z"/>
<rect x="9.75" y="19" style="fill:#333333;" width="0.5" height="3"/>
<rect x="13.75" y="19" style="fill:#333333;" width="0.5" height="3"/>
<path style="fill:#333333;" d="M8.5,11.75c-0.965,0-1.75-0.785-1.75-1.75S7.535,8.25,8.5,8.25s1.75,0.785,1.75,1.75
	S9.465,11.75,8.5,11.75z M8.5,8.75c-0.689,0-1.25,0.561-1.25,1.25s0.561,1.25,1.25,1.25S9.75,10.689,9.75,10S9.189,8.75,8.5,8.75z"
	/>
<path style="fill:#333333;" d="M15.5,11.75c-0.965,0-1.75-0.785-1.75-1.75s0.785-1.75,1.75-1.75s1.75,0.785,1.75,1.75
	S16.465,11.75,15.5,11.75z M15.5,8.75c-0.689,0-1.25,0.561-1.25,1.25s0.561,1.25,1.25,1.25s1.25-0.561,1.25-1.25
	S16.189,8.75,15.5,8.75z"/>
<rect x="12" y="21.75" style="fill:#333333;" width="4" height="0.5"/>
<rect x="8" y="21.75" style="fill:#333333;" width="4" height="0.5"/>
</svg>






