<?xml version="1.0" encoding="iso-8859-1"?>
<svg version="1.1" id="&#x56FE;&#x5C42;_1" xmlns="http://www.w3.org/2000/svg" xmlns:xlink="http://www.w3.org/1999/xlink" x="0px"
	 y="0px" viewBox="0 0 24 24" style="enable-background:new 0 0 24 24;" xml:space="preserve">
<path style="fill:#333333;" d="M14.739,21.773c-1.858,0-6.571-0.345-9.427-3.608C1.791,14.141,1.75,2.494,1.75,2V1.76l0.24-0.01
	C2.481,1.729,14.124,1.281,18.15,4.3c4.068,3.051,3.14,11.377,3.098,11.729l-0.496-0.059c0.01-0.083,0.937-8.392-2.902-11.271
	C14.277,2.02,3.967,2.194,2.252,2.242c0.025,1.713,0.309,12.02,3.436,15.593c3.38,3.863,9.732,3.423,9.792,3.416l0.039,0.498
	C15.467,21.753,15.185,21.773,14.739,21.773z"/>
<path style="fill:#333333;" d="M21.85,22.199c-0.057-0.042-5.648-4.282-9.035-8.031c-3.399-3.764-5.028-7.532-5.044-7.57l0.46-0.196
	c0.016,0.037,1.616,3.732,4.956,7.43c3.354,3.715,8.909,7.927,8.965,7.969L21.85,22.199z"/>
<rect x="9.99" y="10.5" transform="matrix(0.0782 -0.9969 0.9969 0.0782 1.4969 23.1189)" style="fill:#333333;" width="6.519" height="0.5"/>
<rect x="10.25" y="11.238" transform="matrix(0.0995 -0.995 0.995 0.0995 -4.2265 22.8299)" style="fill:#333333;" width="0.5" height="5.025"/>
</svg>






