<?xml version="1.0" encoding="iso-8859-1"?>
<svg version="1.1" id="&#x56FE;&#x5C42;_1" xmlns="http://www.w3.org/2000/svg" xmlns:xlink="http://www.w3.org/1999/xlink" x="0px"
	 y="0px" viewBox="0 0 24 24" style="enable-background:new 0 0 24 24;" xml:space="preserve">
<polygon style="fill:#333333;" points="12.5,12.25 3.5,12.25 3.319,11.828 11.488,3.25 3.5,3.25 3.5,2.75 12.071,2.75 12.252,3.172 
	4.083,11.75 12.5,11.75 "/>
<polygon style="fill:#333333;" points="20.5,14.75 14.5,14.75 14.311,14.337 19.956,7.75 14.5,7.75 14.5,7.25 20.5,7.25 
	20.689,7.663 15.044,14.25 20.5,14.25 "/>
<polygon style="fill:#333333;" points="12.5,21.25 7.5,21.25 7.314,20.832 11.46,16.25 7.5,16.25 7.5,15.75 12.023,15.75 
	12.209,16.168 8.063,20.75 12.5,20.75 "/>
</svg>






