<?xml version="1.0" encoding="iso-8859-1"?>
<svg version="1.1" id="&#x56FE;&#x5C42;_1" xmlns="http://www.w3.org/2000/svg" xmlns:xlink="http://www.w3.org/1999/xlink" x="0px"
	 y="0px" viewBox="0 0 24 24" style="enable-background:new 0 0 24 24;" xml:space="preserve">
<path style="fill:#333333;" d="M12,21.25c-5.101,0-9.25-4.149-9.25-9.25c0-3.695,2.191-7.029,5.583-8.495L8.67,3.812
	C8.392,4.677,8.25,5.582,8.25,6.5c0,4.825,3.925,8.75,8.75,8.75c1.205,0,2.372-0.24,3.468-0.714l0.338,0.307
	C19.568,18.675,16.03,21.25,12,21.25z M8.04,4.195C5.113,5.681,3.25,8.687,3.25,12c0,4.825,3.925,8.75,8.75,8.75
	c3.63,0,6.838-2.208,8.146-5.549C19.141,15.565,18.085,15.75,17,15.75c-5.101,0-9.25-4.149-9.25-9.25
	C7.75,5.718,7.847,4.945,8.04,4.195z"/>
<polygon style="fill:#333333;" points="20.5,9.25 15.5,9.25 15.344,8.805 19.787,5.25 15.83,5.25 15.83,4.75 20.5,4.75 
	20.656,5.195 16.213,8.75 20.5,8.75 "/>
</svg>






