<?xml version="1.0" encoding="iso-8859-1"?>
<svg version="1.1" id="&#x56FE;&#x5C42;_1" xmlns="http://www.w3.org/2000/svg" xmlns:xlink="http://www.w3.org/1999/xlink" x="0px"
	 y="0px" viewBox="0 0 24 24" style="enable-background:new 0 0 24 24;" xml:space="preserve">
<path style="fill:#333333;" d="M12,22.25C6.348,22.25,1.75,17.652,1.75,12C1.75,6.348,6.348,1.75,12,1.75
	c5.652,0,10.25,4.598,10.25,10.25C22.25,17.652,17.652,22.25,12,22.25z M12,2.25c-5.376,0-9.75,4.374-9.75,9.75
	s4.374,9.75,9.75,9.75s9.75-4.374,9.75-9.75S17.376,2.25,12,2.25z"/>
<polygon style="fill:#333333;" points="16.889,10.724 14.889,9.724 15.111,9.276 17.111,10.276 "/>
<rect x="7.382" y="9.75" transform="matrix(0.8944 -0.4472 0.4472 0.8944 -3.5748 4.857)" style="fill:#333333;" width="2.236" height="0.5"/>
<path style="fill:#333333;" d="M12,17.75c-2.625,0-3.68-2.051-3.724-2.139l0.447-0.224C8.762,15.464,9.692,17.25,12,17.25
	s3.238-1.786,3.276-1.862l0.447,0.224C15.68,15.699,14.624,17.75,12,17.75z"/>
</svg>






