<?xml version="1.0" encoding="iso-8859-1"?>
<svg version="1.1" id="&#x56FE;&#x5C42;_1" xmlns="http://www.w3.org/2000/svg" xmlns:xlink="http://www.w3.org/1999/xlink" x="0px"
	 y="0px" viewBox="0 0 24 24" style="enable-background:new 0 0 24 24;" xml:space="preserve">
<path style="fill:#333333;" d="M12,22.75c-1.714,0-4.614-2.264-4.614-10.75c0-8.486,2.9-10.75,4.614-10.75
	c2.129,0,4.614,2.815,4.614,10.75S14.129,22.75,12,22.75z M12,1.75c-1.423,0-4.114,2.142-4.114,10.25
	c0,8.107,2.691,10.25,4.114,10.25c1.528,0,4.114-2.159,4.114-10.25C16.114,3.909,13.528,1.75,12,1.75z"/>
<path style="fill:#333333;" d="M5.656,19.086c-0.585,0-1.069-0.071-1.466-0.177c-0.852-0.229-1.511-0.685-1.854-1.285
	c-0.856-1.495-0.27-5.21,7.356-9.65c5.416-3.153,8.506-3.292,10.143-2.852c0.847,0.227,1.496,0.672,1.829,1.254
	c1.064,1.857-0.225,5.499-7.356,9.65C10.206,18.415,7.454,19.086,5.656,19.086z M18.356,5.445c-1.631,0-4.312,0.574-8.412,2.96
	c-7.303,4.252-7.887,7.728-7.175,8.971c0.161,0.28,0.575,0.788,1.55,1.05c1.247,0.333,4.168,0.411,9.736-2.831
	c7.289-4.243,7.939-7.635,7.175-8.97c-0.267-0.465-0.808-0.828-1.525-1.02C19.376,5.517,18.931,5.445,18.356,5.445z"/>
<path style="fill:#333333;" d="M18.344,19.086c-1.797,0-4.55-0.671-8.651-3.06c-7.131-4.151-8.42-7.793-7.356-9.65
	c0.333-0.582,0.983-1.027,1.83-1.254c1.639-0.438,4.727-0.3,10.142,2.852c7.628,4.44,8.213,8.155,7.356,9.65
	c-0.343,0.6-1.001,1.056-1.854,1.284C19.414,19.015,18.93,19.086,18.344,19.086z M5.644,5.445c-0.575,0-1.019,0.071-1.349,0.16
	C3.578,5.797,3.036,6.159,2.77,6.624c-0.765,1.335-0.114,4.728,7.175,8.971c5.567,3.241,8.488,3.165,9.737,2.831
	c0.975-0.262,1.389-0.771,1.549-1.05c0.712-1.243,0.129-4.718-7.175-8.971C9.957,6.019,7.275,5.445,5.644,5.445z"/>
</svg>






