<?xml version="1.0" encoding="iso-8859-1"?>
<svg version="1.1" id="&#x56FE;&#x5C42;_1" xmlns="http://www.w3.org/2000/svg" xmlns:xlink="http://www.w3.org/1999/xlink" x="0px"
	 y="0px" viewBox="0 0 24 24" style="enable-background:new 0 0 24 24;" xml:space="preserve">
<path style="fill:#333333;" d="M12,22.25C6.348,22.25,1.75,17.652,1.75,12C1.75,6.348,6.348,1.75,12,1.75
	c5.652,0,10.25,4.598,10.25,10.25C22.25,17.652,17.652,22.25,12,22.25z M12,2.25c-5.376,0-9.75,4.374-9.75,9.75
	s4.374,9.75,9.75,9.75s9.75-4.374,9.75-9.75S17.376,2.25,12,2.25z"/>
<path style="fill:#333333;" d="M12,17.75c-2.625,0-3.68-2.051-3.724-2.139l0.447-0.224C8.762,15.464,9.692,17.25,12,17.25
	s3.238-1.786,3.276-1.862l0.447,0.224C15.68,15.699,14.624,17.75,12,17.75z"/>
<path style="fill:#333333;" d="M10.257,10.561C10.253,10.543,9.785,8.75,8.5,8.75s-1.753,1.793-1.757,1.811l-0.485-0.122
	C6.28,10.35,6.824,8.25,8.5,8.25s2.22,2.1,2.243,2.189L10.257,10.561z"/>
<path style="fill:#333333;" d="M17.258,10.561C17.253,10.543,16.785,8.75,15.5,8.75s-1.753,1.793-1.758,1.811l-0.484-0.122
	C13.28,10.35,13.824,8.25,15.5,8.25s2.22,2.1,2.242,2.189L17.258,10.561z"/>
</svg>






