<?xml version="1.0" encoding="iso-8859-1"?>
<svg version="1.1" id="&#x56FE;&#x5C42;_1" xmlns="http://www.w3.org/2000/svg" xmlns:xlink="http://www.w3.org/1999/xlink" x="0px"
	 y="0px" viewBox="0 0 24 24" style="enable-background:new 0 0 24 24;" xml:space="preserve">
<path style="fill:#333333;" d="M19.374,16.729l-0.203-0.457c1.566-0.696,2.579-2.272,2.579-4.015c0-2.414-1.927-4.378-4.296-4.378
	c-0.682,0-1.334,0.158-1.939,0.47l-0.276,0.143L15.159,8.19c-0.771-2.909-3.379-4.94-6.341-4.94c-3.622,0-6.568,3.002-6.568,6.692
	c0,2.126,0.958,4.078,2.629,5.356l-0.304,0.396C2.78,14.322,1.75,12.226,1.75,9.942c0-3.966,3.171-7.192,7.068-7.192
	c3.089,0,5.819,2.051,6.741,5.024c0.598-0.263,1.233-0.396,1.895-0.396c2.645,0,4.796,2.188,4.796,4.878
	C22.25,14.196,21.121,15.951,19.374,16.729z"/>
<rect x="8.75" y="11.5" style="fill:#333333;" width="0.5" height="3"/>
<rect x="7.5" y="12.75" style="fill:#333333;" width="3" height="0.5"/>
<rect x="15.25" y="13" style="fill:#333333;" width="0.5" height="3"/>
<rect x="14" y="14.25" style="fill:#333333;" width="3" height="0.5"/>
<rect x="11.75" y="18" style="fill:#333333;" width="0.5" height="3"/>
<rect x="10.5" y="19.25" style="fill:#333333;" width="3" height="0.5"/>
</svg>






