<?xml version="1.0" encoding="iso-8859-1"?>
<svg version="1.1" id="&#x56FE;&#x5C42;_1" xmlns="http://www.w3.org/2000/svg" xmlns:xlink="http://www.w3.org/1999/xlink" x="0px"
	 y="0px" viewBox="0 0 24 24" style="enable-background:new 0 0 24 24;" xml:space="preserve">
<rect x="3.75" y="8.764" transform="matrix(0.4472 -0.8944 0.8944 0.4472 -7.6276 9.6584)" style="fill:#333333;" width="0.5" height="4.472"/>
<rect x="3.75" y="9" style="fill:#333333;" width="0.5" height="2"/>
<rect x="19.75" y="9" style="fill:#333333;" width="0.5" height="2"/>
<path style="fill:#333333;" d="M12,8.25c-1.792,0-3.25-1.458-3.25-3.25S10.208,1.75,12,1.75S15.25,3.208,15.25,5
	S13.792,8.25,12,8.25z M12,2.25c-1.517,0-2.75,1.233-2.75,2.75S10.483,7.75,12,7.75S14.75,6.517,14.75,5S13.517,2.25,12,2.25z"/>
<path style="fill:#333333;" d="M12,22.25c-3.722,0-6.75-3.252-6.75-7.25c0-3.998,3.028-7.25,6.75-7.25c3.722,0,6.75,3.252,6.75,7.25
	C18.75,18.998,15.722,22.25,12,22.25z M12,8.25c-3.446,0-6.25,3.028-6.25,6.75c0,3.722,2.804,6.75,6.25,6.75s6.25-3.028,6.25-6.75
	C18.25,11.278,15.446,8.25,12,8.25z"/>
<circle style="fill:#333333;" cx="12" cy="13" r="1"/>
<circle style="fill:#333333;" cx="12" cy="15.5" r="1"/>
<circle style="fill:#333333;" cx="12" cy="18" r="1"/>
<polygon style="fill:#333333;" points="18.111,12.224 17.889,11.776 21.889,9.776 22.111,10.224 "/>
</svg>






