<?xml version="1.0" encoding="iso-8859-1"?>
<svg version="1.1" id="&#x56FE;&#x5C42;_1" xmlns="http://www.w3.org/2000/svg" xmlns:xlink="http://www.w3.org/1999/xlink" x="0px"
	 y="0px" viewBox="0 0 24 24" style="enable-background:new 0 0 24 24;" xml:space="preserve">
<path style="fill:#333333;" d="M11,22.25c-4.549,0-8.25-3.252-8.25-7.25c0-3.998,3.701-7.25,8.25-7.25s8.25,3.252,8.25,7.25
	C19.25,18.998,15.549,22.25,11,22.25z M11,8.25c-4.273,0-7.75,3.028-7.75,6.75c0,3.722,3.477,6.75,7.75,6.75s7.75-3.028,7.75-6.75
	C18.75,11.278,15.273,8.25,11,8.25z"/>
<path style="fill:#333333;" d="M15.258,14.561c-0.456-1.821-1.63-2.23-2.289-2.312l0.062-0.496c0.633,0.079,2.164,0.498,2.711,2.688
	L15.258,14.561z"/>
<path style="fill:#333333;" d="M4,6.25C2.759,6.25,1.75,5.241,1.75,4S2.759,1.75,4,1.75S6.25,2.759,6.25,4S5.241,6.25,4,6.25z
	 M4,2.25C3.035,2.25,2.25,3.035,2.25,4S3.035,5.75,4,5.75S5.75,4.965,5.75,4S4.965,2.25,4,2.25z"/>
<path style="fill:#333333;" d="M20.5,8.25c-0.965,0-1.75-0.785-1.75-1.75s0.785-1.75,1.75-1.75s1.75,0.785,1.75,1.75
	S21.465,8.25,20.5,8.25z M20.5,5.25c-0.689,0-1.25,0.561-1.25,1.25s0.561,1.25,1.25,1.25s1.25-0.561,1.25-1.25
	S21.189,5.25,20.5,5.25z"/>
</svg>






