<?xml version="1.0" encoding="iso-8859-1"?>
<svg version="1.1" id="&#x56FE;&#x5C42;_1" xmlns="http://www.w3.org/2000/svg" xmlns:xlink="http://www.w3.org/1999/xlink" x="0px"
	 y="0px" viewBox="0 0 24 24" style="enable-background:new 0 0 24 24;" xml:space="preserve">
<path style="fill:#333333;" d="M11.99,22.251c-1.596,0-3.181-0.377-4.644-1.123c-2.44-1.243-4.249-3.36-5.094-5.963
	s-0.627-5.38,0.615-7.819c1.243-2.44,3.361-4.249,5.965-5.094c2.602-0.845,5.378-0.628,7.819,0.615
	c2.439,1.242,4.249,3.36,5.094,5.964c0.846,2.603,0.627,5.38-0.614,7.819c-1.243,2.44-3.361,4.249-5.965,5.094
	C14.124,22.083,13.055,22.251,11.99,22.251z M12.008,2.246c-1.013,0-2.031,0.16-3.022,0.481l0,0
	C6.509,3.531,4.494,5.252,3.312,7.573c-1.181,2.32-1.389,4.961-0.585,7.438c0.804,2.475,2.524,4.489,4.845,5.672
	c2.321,1.182,4.963,1.391,7.438,0.587c2.477-0.805,4.491-2.525,5.673-4.846s1.39-4.961,0.586-7.438
	c-0.805-2.477-2.525-4.491-4.847-5.673C15.032,2.604,13.525,2.246,12.008,2.246z"/>
<path style="fill:#333333;" d="M15,16.75H9l-0.237-0.171l-2-6l0.081-0.274l5-4h0.312l5,4l0.081,0.274l-2,6L15,16.75z M9.18,16.25
	h5.639l1.889-5.664L12,6.82l-4.708,3.766L9.18,16.25z"/>
<rect x="16.878" y="9.5" transform="matrix(0.9487 -0.3162 0.3162 0.9487 -2.0954 6.5877)" style="fill:#333333;" width="4.743" height="0.5"/>
<polygon style="fill:#333333;" points="17.811,20.163 14.811,16.663 15.189,16.337 18.189,19.837 "/>
<rect x="5.195" y="18" transform="matrix(0.6514 -0.7587 0.7587 0.6514 -11.2321 12.0516)" style="fill:#333333;" width="4.61" height="0.501"/>
<rect x="4.5" y="7.378" transform="matrix(0.3162 -0.9487 0.9487 0.3162 -6.0017 11.173)" style="fill:#333333;" width="0.5" height="4.743"/>
<rect x="11.75" y="2" style="fill:#333333;" width="0.5" height="4.5"/>
</svg>






