<?xml version="1.0" encoding="iso-8859-1"?>
<svg version="1.1" id="&#x56FE;&#x5C42;_1" xmlns="http://www.w3.org/2000/svg" xmlns:xlink="http://www.w3.org/1999/xlink" x="0px"
	 y="0px" viewBox="0 0 24 24" style="enable-background:new 0 0 24 24;" xml:space="preserve">
<path style="fill:#333333;" d="M16.323,17.677c-0.681-0.681-2.805-3.146-1.556-6.27C15.831,8.75,18.44,8.75,20,8.75v0.5
	c-1.525,0-3.831,0-4.768,2.343c-1.137,2.841,0.818,5.104,1.444,5.73L16.323,17.677z"/>
<rect x="9" y="4.75" style="fill:#333333;" width="11" height="0.5"/>
<path style="fill:#333333;" d="M8.417,22.199c-1.249,0-2.502-0.432-3.593-1.522c-1.158-1.157-1.752-2.556-1.721-4.043
	c0.031-1.446,0.661-2.838,1.729-3.818c1.638-1.503,3.486-3.009,3.919-3.359V3c0-0.689,0.561-1.25,1.25-1.25h9
	c0.689,0,1.25,0.561,1.25,1.25v9.144c0,1.786-0.848,3.494-2.267,4.569c-1.856,1.407-4.288,3.241-5.338,3.99
	C11.44,21.564,9.932,22.199,8.417,22.199z M10,2.25C9.587,2.25,9.25,2.586,9.25,3v6.696L9.157,9.771
	c-0.021,0.017-2.14,1.717-3.987,3.413c-0.968,0.889-1.539,2.149-1.567,3.46c-0.029,1.348,0.516,2.62,1.575,3.679
	c2.834,2.833,6.476,0.474,7.177-0.026c1.101-0.785,3.81-2.832,5.326-3.982c1.296-0.981,2.069-2.54,2.069-4.171V3
	c0-0.414-0.337-0.75-0.75-0.75H10z"/>
</svg>






