<?xml version="1.0" encoding="iso-8859-1"?>
<svg version="1.1" id="&#x56FE;&#x5C42;_1" xmlns="http://www.w3.org/2000/svg" xmlns:xlink="http://www.w3.org/1999/xlink" x="0px"
	 y="0px" viewBox="0 0 24 24" style="enable-background:new 0 0 24 24;" xml:space="preserve">
<path style="fill:#333333;" d="M6.25,17.75h-4.5v-7.5h4.5V17.75z M2.25,17.25h3.5v-6.5h-3.5V17.25z"/>
<path style="fill:#333333;" d="M22.25,17.75h-4.5v-7.5h4.5V17.75z M18.25,17.25h3.5v-6.5h-3.5V17.25z"/>
<path style="fill:#333333;" d="M18.25,17.75H5.75v-4.5h12.5V17.75z M6.25,17.25h11.5v-3.5H6.25V17.25z"/>
<polygon style="fill:#333333;" points="20.25,10 19.75,10 19.75,4.25 4.25,4.25 4.25,10 3.75,10 3.75,3.75 20.25,3.75 "/>
<rect x="3.75" y="18" style="fill:#333333;" width="0.5" height="2"/>
<rect x="19.75" y="18" style="fill:#333333;" width="0.5" height="2"/>
</svg>






