<?xml version="1.0" encoding="iso-8859-1"?>
<svg version="1.1" id="&#x56FE;&#x5C42;_1" xmlns="http://www.w3.org/2000/svg" xmlns:xlink="http://www.w3.org/1999/xlink" x="0px"
	 y="0px" viewBox="0 0 24 24" style="enable-background:new 0 0 24 24;" xml:space="preserve">
<path style="fill:#333333;" d="M22.25,19.25H1.75V8.75h4.5v6.5h11.5v-6.5h4.5V19.25z M2.25,18.75h19.5v-9.5h-3.5v6.5H5.75v-6.5h-3.5
	V18.75z"/>
<path style="fill:#333333;" d="M18.25,15.75H5.75v-13h12.5V15.75z M6.25,15.25h11.5v-12H6.25V15.25z"/>
<path style="fill-rule:evenodd;clip-rule:evenodd;fill:#333333;" d="M5,22c1.105,0,2-0.895,2-2c-0.549,0.002-3.65,0-4,0
	C3,21.105,3.895,22,5,22z"/>
<path style="fill-rule:evenodd;clip-rule:evenodd;fill:#333333;" d="M19,22c1.105,0,2-0.895,2-2c-0.952-0.003-3.569,0-4,0
	C17,21.105,17.895,22,19,22z"/>
</svg>






