<?xml version="1.0" encoding="iso-8859-1"?>
<svg version="1.1" id="&#x56FE;&#x5C42;_1" xmlns="http://www.w3.org/2000/svg" xmlns:xlink="http://www.w3.org/1999/xlink" x="0px"
	 y="0px" viewBox="0 0 24 24" style="enable-background:new 0 0 24 24;" xml:space="preserve">
<path style="fill:#333333;" d="M8,21.25H4.75v-6.5H8c1.792,0,3.25,1.458,3.25,3.25S9.792,21.25,8,21.25z M5.25,20.75H8
	c1.517,0,2.75-1.233,2.75-2.75S9.517,15.25,8,15.25H5.25V20.75z"/>
<rect x="4.75" y="14" style="fill:#333333;" width="0.5" height="8"/>
<rect x="2" y="15.75" style="fill:#333333;" width="3" height="0.5"/>
<rect x="2" y="18.75" style="fill:#333333;" width="3" height="0.5"/>
<path style="fill:#333333;" d="M15,18.25h-4v-0.5h4c0.413,0,0.75-0.337,0.75-0.75v-5.5h0.5V17C16.25,17.689,15.689,18.25,15,18.25z"
	/>
<rect x="15.75" y="2" style="fill:#333333;" width="0.5" height="3.5"/>
<rect x="12.25" y="3.5" transform="matrix(0.7071 -0.7071 0.7071 0.7071 0.1256 10.3033)" style="fill:#333333;" width="0.5" height="3"/>
<rect x="11" y="11.25" transform="matrix(0.7071 -0.7071 0.7071 0.7071 -4.4706 12.2071)" style="fill:#333333;" width="3" height="0.5"/>
<rect x="18" y="4.75" transform="matrix(0.7071 -0.7071 0.7071 0.7071 2.1759 15.253)" style="fill:#333333;" width="3" height="0.5"/>
<rect x="19.25" y="10" transform="matrix(0.7071 -0.7071 0.7071 0.7071 -2.4203 17.1569)" style="fill:#333333;" width="0.5" height="3"/>
<path style="fill:#333333;" d="M16,11.75c-1.792,0-3.25-1.458-3.25-3.25S14.208,5.25,16,5.25s3.25,1.458,3.25,3.25
	S17.792,11.75,16,11.75z M16,5.75c-1.517,0-2.75,1.233-2.75,2.75s1.233,2.75,2.75,2.75s2.75-1.233,2.75-2.75S17.517,5.75,16,5.75z"
	/>
<rect x="10" y="8.25" style="fill:#333333;" width="3" height="0.5"/>
<rect x="19" y="8.25" style="fill:#333333;" width="3" height="0.5"/>
</svg>






