<?xml version="1.0" encoding="iso-8859-1"?>
<svg version="1.1" id="&#x56FE;&#x5C42;_1" xmlns="http://www.w3.org/2000/svg" xmlns:xlink="http://www.w3.org/1999/xlink" x="0px"
	 y="0px" viewBox="0 0 24 24" style="enable-background:new 0 0 24 24;" xml:space="preserve">
<path style="fill:#333333;" d="M21,16.25H3c-0.689,0-1.25-0.561-1.25-1.25V5c0-0.689,0.561-1.25,1.25-1.25h18
	c0.689,0,1.25,0.561,1.25,1.25v10C22.25,15.689,21.689,16.25,21,16.25z M3,4.25C2.586,4.25,2.25,4.586,2.25,5v10
	c0,0.413,0.336,0.75,0.75,0.75h18c0.413,0,0.75-0.337,0.75-0.75V5c0-0.414-0.337-0.75-0.75-0.75H3z"/>
<rect x="14.75" y="4" style="fill:#333333;" width="0.5" height="12"/>
<rect x="8.75" y="4" style="fill:#333333;" width="0.5" height="12"/>
<rect x="3" y="9.75" style="fill:#333333;" width="18" height="0.5"/>
<rect x="11.75" y="16" style="fill:#333333;" width="0.5" height="4.5"/>
<rect x="8.5" y="20.25" style="fill:#333333;" width="7" height="0.5"/>
</svg>






