<?xml version="1.0" encoding="iso-8859-1"?>
<svg version="1.1" id="&#x56FE;&#x5C42;_1" xmlns="http://www.w3.org/2000/svg" xmlns:xlink="http://www.w3.org/1999/xlink" x="0px"
	 y="0px" viewBox="0 0 24 24" style="enable-background:new 0 0 24 24;" xml:space="preserve">
<path style="fill:#333333;" d="M12,20.25c-5.094,0-10.25-0.772-10.25-2.25c0-1.102,2.436-1.656,4.552-1.929l2.432-9.044L7.276,4.112
	l0.303-0.349L13.69,5.8l3.988,10.269C19.8,16.341,22.25,16.896,22.25,18C22.25,19.478,17.094,20.25,12,20.25z M7.994,4.428
	l1.272,2.545l-2.568,9.552l-0.167,0.021C3.151,16.963,2.25,17.656,2.25,18c0,0.73,3.709,1.75,9.75,1.75c6.041,0,9.75-1.02,9.75-1.75
	c0-0.344-0.901-1.037-4.28-1.454l-0.148-0.019l-0.055-0.139L13.31,6.2L7.994,4.428z"/>
</svg>






