<?xml version="1.0" encoding="iso-8859-1"?>
<svg version="1.1" id="&#x56FE;&#x5C42;_1" xmlns="http://www.w3.org/2000/svg" xmlns:xlink="http://www.w3.org/1999/xlink" x="0px"
	 y="0px" viewBox="0 0 24 24" style="enable-background:new 0 0 24 24;" xml:space="preserve">
<path style="fill:#333333;" d="M18,22.25H6c-0.965,0-1.75-0.785-1.75-1.75v-17c0-0.965,0.785-1.75,1.75-1.75h12
	c0.965,0,1.75,0.785,1.75,1.75v17C19.75,21.465,18.965,22.25,18,22.25z M6,2.25c-0.689,0-1.25,0.561-1.25,1.25v17
	c0,0.689,0.561,1.25,1.25,1.25h12c0.689,0,1.25-0.561,1.25-1.25v-17c0-0.689-0.561-1.25-1.25-1.25H6z"/>
<path style="fill:#333333;" d="M12,14.75c-2.068,0-3.75-1.683-3.75-3.75c0-2.068,1.682-3.75,3.75-3.75c2.067,0,3.75,1.682,3.75,3.75
	C15.75,13.067,14.067,14.75,12,14.75z M12,7.75c-1.792,0-3.25,1.458-3.25,3.25s1.458,3.25,3.25,3.25s3.25-1.458,3.25-3.25
	S13.792,7.75,12,7.75z"/>
<path style="fill:#333333;" d="M16,4L16,4c0.552,0,1,0.448,1,1l0,0c0,0.552-0.448,1-1,1l0,0c-0.552,0-1-0.448-1-1l0,0
	C15,4.448,15.448,4,16,4z"/>
<rect x="13.5" y="17.75" style="fill:#333333;" width="1" height="0.5"/>
<rect x="9.5" y="17.75" style="fill:#333333;" width="1" height="0.5"/>
</svg>






