<?xml version="1.0" encoding="iso-8859-1"?>
<svg version="1.1" id="&#x56FE;&#x5C42;_1" xmlns="http://www.w3.org/2000/svg" xmlns:xlink="http://www.w3.org/1999/xlink" x="0px"
	 y="0px" viewBox="0 0 24 24" style="enable-background:new 0 0 24 24;" xml:space="preserve">
<path style="fill:#333333;" d="M21.25,7h-0.5V6c0-1.517-1.233-2.75-2.75-2.75H6C4.483,3.25,3.25,4.483,3.25,6v1h-0.5V6
	c0-1.792,1.458-3.25,3.25-3.25h12c1.792,0,3.25,1.458,3.25,3.25V7z"/>
<rect x="15.75" y="9" style="fill:#333333;" width="0.5" height="6"/>
<rect x="19.75" y="10" style="fill:#333333;" width="0.5" height="4"/>
<rect x="11.75" y="7.5" style="fill:#333333;" width="0.5" height="9"/>
<rect x="7.75" y="9" style="fill:#333333;" width="0.5" height="6"/>
<rect x="3.75" y="10" style="fill:#333333;" width="0.5" height="4"/>
<path style="fill:#333333;" d="M18,21.25H6c-1.792,0-3.25-1.458-3.25-3.25v-1h0.5v1c0,1.517,1.233,2.75,2.75,2.75h12
	c1.517,0,2.75-1.233,2.75-2.75v-1h0.5v1C21.25,19.792,19.792,21.25,18,21.25z"/>
</svg>






