<?xml version="1.0" encoding="iso-8859-1"?>
<svg version="1.1" id="&#x56FE;&#x5C42;_1" xmlns="http://www.w3.org/2000/svg" xmlns:xlink="http://www.w3.org/1999/xlink" x="0px"
	 y="0px" viewBox="0 0 24 24" style="enable-background:new 0 0 24 24;" xml:space="preserve">
<path style="fill:#333333;" d="M19,22.25H5c-0.689,0-1.25-0.561-1.25-1.25V3c0-0.689,0.561-1.25,1.25-1.25h14
	c0.689,0,1.25,0.561,1.25,1.25v18C20.25,21.689,19.689,22.25,19,22.25z M5,2.25C4.586,2.25,4.25,2.586,4.25,3v18
	c0,0.413,0.336,0.75,0.75,0.75h14c0.413,0,0.75-0.337,0.75-0.75V3c0-0.414-0.337-0.75-0.75-0.75H5z"/>
<path style="fill:#333333;" d="M12,10.25c-1.517,0-2.75-1.233-2.75-2.75S10.483,4.75,12,4.75s2.75,1.233,2.75,2.75
	S13.517,10.25,12,10.25z M12,5.25c-1.241,0-2.25,1.009-2.25,2.25S10.759,9.75,12,9.75c1.24,0,2.25-1.009,2.25-2.25
	S13.24,5.25,12,5.25z"/>
<circle style="fill:#333333;" cx="7" cy="5" r="1"/>
<circle style="fill:#333333;" cx="7" cy="19" r="1"/>
<circle style="fill:#333333;" cx="17" cy="5" r="1"/>
<circle style="fill:#333333;" cx="17" cy="19" r="1"/>
<path style="fill:#333333;" d="M12,19.25c-1.792,0-3.25-1.458-3.25-3.25s1.458-3.25,3.25-3.25s3.25,1.458,3.25,3.25
	S13.792,19.25,12,19.25z M12,13.25c-1.517,0-2.75,1.233-2.75,2.75s1.233,2.75,2.75,2.75s2.75-1.233,2.75-2.75S13.517,13.25,12,13.25
	z"/>
</svg>






