<?xml version="1.0" encoding="iso-8859-1"?>
<svg version="1.1" id="&#x56FE;&#x5C42;_1" xmlns="http://www.w3.org/2000/svg" xmlns:xlink="http://www.w3.org/1999/xlink" x="0px"
	 y="0px" viewBox="0 0 24 24" style="enable-background:new 0 0 24 24;" xml:space="preserve">
<path style="fill:#333333;" d="M20.466,12.75H16v-0.5h4.466c0.069,0,0.134-0.028,0.182-0.079c0.049-0.051,0.072-0.118,0.068-0.188
	l-0.434-6.5c-0.009-0.131-0.119-0.233-0.25-0.233H17.5v-0.5h2.532c0.394,0,0.723,0.308,0.748,0.7l0.434,6.5
	c0.014,0.207-0.06,0.412-0.201,0.562C20.871,12.664,20.672,12.75,20.466,12.75z"/>
<path style="fill:#333333;" d="M15.715,15.75H7.283L5.764,5.118L3.323,2.677L3.5,2.25h14.291L15.715,15.75z M7.717,15.25h7.568
	l1.924-12.5H4.104l2.132,2.132L7.717,15.25z"/>
<path style="fill:#333333;" d="M17.847,21.75H5.153l2.167-6.5h8.361L17.847,21.75z M5.847,21.25h11.307l-1.834-5.5H7.68L5.847,21.25
	z"/>
<rect x="10.5" y="18.25" style="fill:#333333;" width="2" height="0.5"/>
</svg>






