<?xml version="1.0" encoding="iso-8859-1"?>
<svg version="1.1" id="&#x56FE;&#x5C42;_1" xmlns="http://www.w3.org/2000/svg" xmlns:xlink="http://www.w3.org/1999/xlink" x="0px"
	 y="0px" viewBox="0 0 24 24" style="enable-background:new 0 0 24 24;" xml:space="preserve">
<path style="fill:#333333;" d="M21.25,21.5h-0.5V3c0-0.414-0.337-0.75-0.75-0.75h-3.5c-0.413,0-0.75,0.336-0.75,0.75v9h-0.5V3
	c0-0.689,0.561-1.25,1.25-1.25H20c0.689,0,1.25,0.561,1.25,1.25V21.5z"/>
<path style="fill:#333333;" d="M21.25,22.25H2.75V20c0-5.101,4.149-9.25,9.25-9.25s9.25,4.149,9.25,9.25V22.25z M3.25,21.75h17.5V20
	c0-4.825-3.925-8.75-8.75-8.75c-4.825,0-8.75,3.925-8.75,8.75V21.75z"/>
<rect x="3.75" y="4" style="fill:#333333;" width="0.5" height="11.5"/>
<rect x="7.75" y="7" style="fill:#333333;" width="0.5" height="5"/>
<rect x="15.5" y="6.75" style="fill:#333333;" width="5.5" height="0.5"/>
<path style="fill:#333333;" d="M15.75,21h-0.5v-1.5c0-4.472-1.488-8.25-3.25-8.25s-3.25,3.778-3.25,8.25V21h-0.5v-1.5
	c0-4.906,1.647-8.75,3.75-8.75c2.103,0,3.75,3.844,3.75,8.75V21z"/>
<rect x="2" y="21.75" style="fill:#333333;" width="20" height="0.5"/>
<path style="fill:#333333;" d="M20.476,17.749C20.425,17.744,15.274,17.25,12,17.25c-3.275,0-8.424,0.494-8.476,0.499l-0.048-0.498
	C3.528,17.246,8.701,16.75,12,16.75c3.299,0,8.473,0.496,8.524,0.501L20.476,17.749z"/>
</svg>






