<?xml version="1.0" encoding="iso-8859-1"?>
<svg version="1.1" id="&#x56FE;&#x5C42;_1" xmlns="http://www.w3.org/2000/svg" xmlns:xlink="http://www.w3.org/1999/xlink" x="0px"
	 y="0px" viewBox="0 0 24 24" style="enable-background:new 0 0 24 24;" xml:space="preserve">
<path style="fill:#333333;" d="M4.864,21.749c-0.669,0-1.338-0.253-1.848-0.759C2.522,20.5,2.25,19.848,2.25,19.153
	s0.272-1.347,0.766-1.837l6.163-6.119c-0.323-0.78-0.487-1.608-0.487-2.463c0-3.576,2.929-6.484,6.529-6.484
	c0.998,0,1.956,0.218,2.848,0.648l0.318,0.153l-1.853,1.839c-0.398,0.396-0.618,0.922-0.618,1.482s0.22,1.086,0.618,1.483
	c0.827,0.819,2.169,0.817,2.992,0l1.704-1.692l0.134,0.368c0.256,0.705,0.386,1.446,0.386,2.203c0,3.575-2.929,6.484-6.529,6.484
	c-0.786,0-1.555-0.138-2.285-0.409L6.711,20.99C6.202,21.496,5.533,21.749,4.864,21.749z M15.221,2.75
	c-3.324,0-6.029,2.685-6.029,5.984c0,0.843,0.172,1.656,0.513,2.418l0.07,0.158l-6.406,6.361C2.97,18.067,2.75,18.594,2.75,19.153
	s0.22,1.086,0.619,1.481c0.824,0.82,2.166,0.82,2.99,0l6.456-6.409l0.152,0.061c0.718,0.287,1.476,0.433,2.254,0.433
	c3.324,0,6.029-2.685,6.029-5.984c0-0.564-0.078-1.119-0.233-1.654l-1.139,1.13c-1.017,1.011-2.675,1.012-3.695,0
	c-0.494-0.491-0.767-1.144-0.767-1.838c0-0.694,0.272-1.346,0.767-1.836l1.343-1.333C16.796,2.902,16.022,2.75,15.221,2.75z"/>
</svg>






