<?xml version="1.0" encoding="iso-8859-1"?>
<svg version="1.1" id="&#x56FE;&#x5C42;_1" xmlns="http://www.w3.org/2000/svg" xmlns:xlink="http://www.w3.org/1999/xlink" x="0px"
	 y="0px" viewBox="0 0 24 24" style="enable-background:new 0 0 24 24;" xml:space="preserve">
<path style="fill:#333333;" d="M19,23.25H5c-0.689,0-1.25-0.561-1.25-1.25V2c0-0.689,0.561-1.25,1.25-1.25h14
	c0.689,0,1.25,0.561,1.25,1.25v20C20.25,22.689,19.689,23.25,19,23.25z M5,1.25C4.586,1.25,4.25,1.586,4.25,2v20
	c0,0.413,0.336,0.75,0.75,0.75h14c0.413,0,0.75-0.337,0.75-0.75V2c0-0.414-0.337-0.75-0.75-0.75H5z"/>
<path style="fill:#333333;" d="M12,19.25c-1.792,0-3.25-1.458-3.25-3.25s1.458-3.25,3.25-3.25s3.25,1.458,3.25,3.25
	S13.792,19.25,12,19.25z M12,13.25c-1.517,0-2.75,1.233-2.75,2.75s1.233,2.75,2.75,2.75s2.75-1.233,2.75-2.75S13.517,13.25,12,13.25
	z"/>
<path style="fill:#333333;" d="M12,9.25c-1.241,0-2.25-1.009-2.25-2.25S10.759,4.75,12,4.75c1.24,0,2.25,1.009,2.25,2.25
	S13.24,9.25,12,9.25z M12,5.25c-0.965,0-1.75,0.785-1.75,1.75S11.035,8.75,12,8.75S13.75,7.965,13.75,7S12.965,5.25,12,5.25z"/>
</svg>






