<?xml version="1.0" encoding="iso-8859-1"?>
<svg version="1.1" id="&#x56FE;&#x5C42;_1" xmlns="http://www.w3.org/2000/svg" xmlns:xlink="http://www.w3.org/1999/xlink" x="0px"
	 y="0px" viewBox="0 0 24 24" style="enable-background:new 0 0 24 24;" xml:space="preserve">
<path style="fill:#333333;" d="M12,22.25C6.348,22.25,1.75,17.652,1.75,12C1.75,6.348,6.348,1.75,12,1.75
	c1.807,0,3.583,0.477,5.137,1.378l-0.25,0.433C15.408,2.703,13.719,2.25,12,2.25c-5.376,0-9.75,4.374-9.75,9.75
	s4.374,9.75,9.75,9.75s9.75-4.374,9.75-9.75c0-1.708-0.447-3.387-1.294-4.856l0.434-0.25c0.89,1.545,1.36,3.311,1.36,5.106
	C22.25,17.652,17.652,22.25,12,22.25z"/>
<path style="fill:#333333;" d="M12.086,14.163c-0.577,0-1.153-0.22-1.591-0.658c-0.425-0.425-0.659-0.989-0.659-1.59
	s0.234-1.166,0.659-1.591c0.796-0.796,4.924-2.357,5.392-2.532l0.322,0.322c-0.176,0.468-1.735,4.596-2.532,5.392
	C13.238,13.943,12.662,14.163,12.086,14.163z M15.542,8.458c-1.479,0.573-4.156,1.681-4.694,2.218
	c-0.331,0.331-0.512,0.77-0.512,1.238c0,0.467,0.182,0.907,0.512,1.237c0.683,0.682,1.793,0.682,2.475,0
	C13.86,12.614,14.969,9.936,15.542,8.458z"/>
</svg>






