<?xml version="1.0" encoding="iso-8859-1"?>
<svg version="1.1" id="&#x56FE;&#x5C42;_1" xmlns="http://www.w3.org/2000/svg" xmlns:xlink="http://www.w3.org/1999/xlink" x="0px"
	 y="0px" viewBox="0 0 24 24" style="enable-background:new 0 0 24 24;" xml:space="preserve">
<path style="fill:#333333;" d="M11.328,15.595c-0.563,0-1.127-0.21-1.563-0.631c-0.892-0.861-0.917-2.289-0.055-3.181
	c0.783-0.811,4.882-2.443,5.347-2.626l0.327,0.316c-0.167,0.471-1.654,4.626-2.438,5.437C12.506,15.365,11.917,15.595,11.328,15.595
	z M14.723,9.83c-1.467,0.599-4.125,1.754-4.654,2.3c-0.67,0.694-0.65,1.804,0.043,2.475c0.693,0.669,1.805,0.651,2.475-0.043
	C13.115,14.015,14.176,11.317,14.723,9.83z"/>
<path style="fill:#333333;" d="M19.602,19.602l-0.354-0.354c1.936-1.936,3.002-4.51,3.002-7.248c0-5.652-4.598-10.25-10.25-10.25
	C6.348,1.75,1.75,6.348,1.75,12c0,2.737,1.066,5.312,3.002,7.248l-0.354,0.354C2.368,17.57,1.25,14.871,1.25,12
	C1.25,6.072,6.072,1.25,12,1.25S22.75,6.072,22.75,12C22.75,14.872,21.632,17.571,19.602,19.602z"/>
<rect x="11.75" y="2" style="fill:#333333;" width="0.5" height="2"/>
<rect x="17.645" y="5.95" transform="matrix(0.7774 -0.629 0.629 0.7774 0.2501 13.1076)" style="fill:#333333;" width="2" height="0.5"/>
<polygon style="fill:#333333;" points="21.204,13.859 19.256,13.409 19.369,12.923 21.317,13.373 "/>
<rect x="2.713" y="13.142" transform="matrix(0.9744 -0.225 0.225 0.9744 -2.9178 1.1788)" style="fill:#333333;" width="2" height="0.499"/>
<rect x="5.105" y="5.2" transform="matrix(0.6293 -0.7772 0.7772 0.6293 -2.8336 6.4601)" style="fill:#333333;" width="0.5" height="2"/>
</svg>






