<?xml version="1.0" encoding="iso-8859-1"?>
<svg version="1.1" id="&#x56FE;&#x5C42;_1" xmlns="http://www.w3.org/2000/svg" xmlns:xlink="http://www.w3.org/1999/xlink" x="0px"
	 y="0px" viewBox="0 0 24 24" style="enable-background:new 0 0 24 24;" xml:space="preserve">
<path style="fill:#333333;" d="M12.222,22.562c-2.201,0-4.254-1.537-4.841-2.125c-0.205-0.204-0.4-0.435-0.579-0.685
	c-0.28-0.39-0.249-0.913,0.077-1.272c0.523-0.577,1.323-1.229,2.169-1.061c0.424,0.085,0.77,0.187,1.075,0.276
	c0.739,0.218,1.185,0.349,1.952,0.026c1.163-0.489,1.289-1.615,1.289-2.077c0-0.845-0.604-1.542-1.541-1.776
	c-1.086-0.271-2.065,0.292-2.298,0.99c-0.084,0.253-0.116,0.481-0.146,0.702c-0.069,0.509-0.134,0.99-0.818,1.446
	c-0.267,0.178-0.644,0.363-1.12,0.554c-0.329,0.132-0.698,0.103-0.987-0.078c-0.275-0.171-0.446-0.458-0.472-0.787
	c-0.073-0.963,0.008-2.813,1.386-4.389c0.582-0.664,1.182-1.193,1.786-1.572l0.266,0.424c-0.562,0.353-1.125,0.851-1.675,1.479
	c-1.257,1.437-1.331,3.136-1.264,4.021c0.013,0.172,0.098,0.314,0.238,0.401c0.154,0.097,0.356,0.111,0.537,0.037
	c0.438-0.175,0.793-0.349,1.028-0.505c0.496-0.331,0.538-0.636,0.6-1.098c0.032-0.232,0.067-0.495,0.167-0.793
	c0.341-1.021,1.67-1.622,2.894-1.316c1.166,0.291,1.92,1.179,1.92,2.261c0,0.562-0.155,1.933-1.596,2.538
	c-0.929,0.392-1.529,0.218-2.287-0.008c-0.295-0.087-0.63-0.186-1.032-0.266c-0.648-0.134-1.344,0.513-1.702,0.906
	c-0.168,0.186-0.185,0.445-0.041,0.646c0.164,0.228,0.34,0.437,0.526,0.622c0.482,0.483,2.752,2.228,4.984,1.948
	c2.103-0.263,4.109-1.825,4.994-3.889c0.839-1.958,0.235-4.574-1.375-5.954l0.326-0.38c1.795,1.54,2.443,4.348,1.508,6.531
	c-0.952,2.221-3.118,3.904-5.391,4.188C12.594,22.552,12.407,22.562,12.222,22.562z"/>
<path style="fill:#333333;" d="M16.276,12.111L11.34,2.232c-0.029-0.059-0.079-0.102-0.136-0.119
	c-0.044-0.014-0.087-0.009-0.127,0.014C10.616,2.392,10.1,2.86,10.265,3.588c0.266,1.172,1.769,6.367,2.459,7.803l-0.451,0.217
	c-0.703-1.463-2.228-6.725-2.496-7.91c-0.182-0.8,0.191-1.512,1.051-2.006c0.159-0.09,0.344-0.111,0.521-0.059
	c0.188,0.057,0.348,0.193,0.438,0.374l4.936,9.88L16.276,12.111z"/>
<path style="fill:#333333;" d="M9.817,11.67c-1.131-1.207-2.645-3.354-3.232-4.361C6.168,6.595,6.315,5.798,7,5.065
	c0.121-0.13,0.287-0.204,0.465-0.209c0.19-0.022,0.38,0.068,0.522,0.203l3.435,3.26l-0.344,0.362l-3.435-3.26
	c-0.046-0.043-0.103-0.06-0.164-0.066C7.434,5.356,7.395,5.374,7.365,5.406C6.997,5.8,6.638,6.407,7.017,7.057
	c0.576,0.987,2.059,3.09,3.166,4.271L9.817,11.67z"/>
</svg>






