<?xml version="1.0" encoding="iso-8859-1"?>
<svg version="1.1" id="&#x56FE;&#x5C42;_1" xmlns="http://www.w3.org/2000/svg" xmlns:xlink="http://www.w3.org/1999/xlink" x="0px"
	 y="0px" viewBox="0 0 24 24" style="enable-background:new 0 0 24 24;" xml:space="preserve">
<path style="fill:#333333;" d="M22,7.25h-8L13.75,7V3L14,2.75h8L22.25,3v4L22,7.25z M14.25,6.75h7.5v-3.5h-7.5V6.75z"/>
<path style="fill:#333333;" d="M21,19.25H4c-1.241,0-2.25-1.01-2.25-2.25v-3c0-2.343,1.907-4.25,4.25-4.25h7.75V7L14,6.75h8L22.25,7
	v11C22.25,18.689,21.689,19.25,21,19.25z M6,10.25c-2.068,0-3.75,1.682-3.75,3.75v3c0,0.965,0.785,1.75,1.75,1.75h17
	c0.413,0,0.75-0.337,0.75-0.75V7.25h-7.5V10L14,10.25H6z"/>
<rect x="6.75" y="10" style="fill:#333333;" width="0.5" height="3"/>
<rect x="10.25" y="10" style="fill:#333333;" width="0.5" height="3"/>
<rect x="7.25" y="19" style="fill:#333333;" width="0.5" height="2"/>
<rect x="3.75" y="19" style="fill:#333333;" width="0.5" height="2"/>
<rect x="10.75" y="19" style="fill:#333333;" width="0.5" height="2"/>
<rect x="16.75" y="19" style="fill:#333333;" width="0.5" height="2"/>
<rect x="20.25" y="19" style="fill:#333333;" width="0.5" height="2"/>
<rect x="6" y="9.75" style="fill:#333333;" width="5.5" height="0.5"/>
</svg>






