<?xml version="1.0" encoding="iso-8859-1"?>
<svg version="1.1" id="&#x56FE;&#x5C42;_1" xmlns="http://www.w3.org/2000/svg" xmlns:xlink="http://www.w3.org/1999/xlink" x="0px"
	 y="0px" viewBox="0 0 24 24" style="enable-background:new 0 0 24 24;" xml:space="preserve">
<path style="fill:#333333;" d="M18.75,22h-0.5v-7c0-2.067-1.683-3.75-3.75-3.75h-8v-0.5h8c2.344,0,4.25,1.906,4.25,4.25V22z"/>
<path style="fill:#333333;" d="M6.5,7.222c-1.517,0-2.75-1.233-2.75-2.75s1.233-2.75,2.75-2.75s2.75,1.233,2.75,2.75
	S8.017,7.222,6.5,7.222z M6.5,2.222c-1.241,0-2.25,1.009-2.25,2.25s1.009,2.25,2.25,2.25s2.25-1.009,2.25-2.25
	S7.741,2.222,6.5,2.222z"/>
<rect x="6.25" y="7" style="fill:#333333;" width="0.5" height="14.5"/>
<polygon style="fill:#333333;" points="6.5,22.354 3.823,19.677 4.177,19.323 6.5,21.646 8.823,19.323 9.177,19.677 "/>
<polygon style="fill:#333333;" points="18.5,22.354 15.823,19.677 16.177,19.323 18.5,21.646 20.823,19.323 21.177,19.677 "/>
</svg>






