<?xml version="1.0" encoding="iso-8859-1"?>
<svg version="1.1" id="&#x56FE;&#x5C42;_1" xmlns="http://www.w3.org/2000/svg" xmlns:xlink="http://www.w3.org/1999/xlink" x="0px"
	 y="0px" viewBox="0 0 24 24" style="enable-background:new 0 0 24 24;" xml:space="preserve">
<path style="fill:#333333;" d="M20.5,15.75h-2v-0.5h2c0.413,0,0.75-0.337,0.75-0.75v-11c0-0.414-0.337-0.75-0.75-0.75h-10
	c-0.414,0-0.75,0.336-0.75,0.75V5h-0.5V3.5c0-0.689,0.561-1.25,1.25-1.25h10c0.689,0,1.25,0.561,1.25,1.25v11
	C21.75,15.189,21.189,15.75,20.5,15.75z"/>
<path style="fill:#333333;" d="M13.5,21.25h-10c-0.689,0-1.25-0.561-1.25-1.25V10c0-0.689,0.561-1.25,1.25-1.25h10
	c0.689,0,1.25,0.561,1.25,1.25v10C14.75,20.689,14.189,21.25,13.5,21.25z M3.5,9.25c-0.414,0-0.75,0.336-0.75,0.75v10
	c0,0.413,0.336,0.75,0.75,0.75h10c0.413,0,0.75-0.337,0.75-0.75V10c0-0.414-0.337-0.75-0.75-0.75H3.5z"/>
</svg>






