<?xml version="1.0" encoding="iso-8859-1"?>
<svg version="1.1" id="&#x56FE;&#x5C42;_1" xmlns="http://www.w3.org/2000/svg" xmlns:xlink="http://www.w3.org/1999/xlink" x="0px"
	 y="0px" viewBox="0 0 24 24" style="enable-background:new 0 0 24 24;" xml:space="preserve">
<path style="fill:#333333;" d="M9.5,22.25h-7c-0.414,0-0.75-0.337-0.75-0.75V17h0.5v4.5c0,0.138,0.112,0.25,0.25,0.25h7
	c0.138,0,0.25-0.112,0.25-0.25v-19c0-0.138-0.112-0.25-0.25-0.25h-7c-0.138,0-0.25,0.112-0.25,0.25V7h-0.5V2.5
	c0-0.414,0.336-0.75,0.75-0.75h7c0.414,0,0.75,0.336,0.75,0.75v19C10.25,21.913,9.914,22.25,9.5,22.25z"/>
<path style="fill:#333333;" d="M21.5,22.25h-7c-0.413,0-0.75-0.337-0.75-0.75v-19c0-0.414,0.337-0.75,0.75-0.75h7
	c0.413,0,0.75,0.336,0.75,0.75V7h-0.5V2.5c0-0.138-0.112-0.25-0.25-0.25h-7c-0.138,0-0.25,0.112-0.25,0.25v19
	c0,0.138,0.112,0.25,0.25,0.25h7c0.138,0,0.25-0.112,0.25-0.25V17h0.5v4.5C22.25,21.913,21.913,22.25,21.5,22.25z"/>
<rect x="14" y="11.753" style="fill:#333333;" width="8" height="0.5"/>
<rect x="2" y="11.753" style="fill:#333333;" width="8" height="0.5"/>
<polygon style="fill:#333333;" points="19.79,14.565 19.437,14.212 21.646,12.003 19.437,9.792 19.79,9.439 22.354,12.003 "/>
<polygon style="fill:#333333;" points="4.201,14.569 1.638,12.007 4.201,9.443 4.554,9.797 2.345,12.007 4.554,14.216 "/>
</svg>






