<?xml version="1.0" encoding="iso-8859-1"?>
<svg version="1.1" id="&#x56FE;&#x5C42;_1" xmlns="http://www.w3.org/2000/svg" xmlns:xlink="http://www.w3.org/1999/xlink" x="0px"
	 y="0px" viewBox="0 0 24 24" style="enable-background:new 0 0 24 24;" xml:space="preserve">
<path style="fill:#333333;" d="M12,12.25c-2.895,0-5.25-2.355-5.25-5.25S9.105,1.75,12,1.75c2.895,0,5.25,2.355,5.25,5.25
	S14.895,12.25,12,12.25z M12,2.25C9.381,2.25,7.25,4.381,7.25,7s2.131,4.75,4.75,4.75S16.75,9.619,16.75,7S14.619,2.25,12,2.25z"/>
<rect x="11.75" y="12" style="fill:#333333;" width="0.5" height="6"/>
<path style="fill:#333333;" d="M12,22.25c-0.965,0-1.75-0.785-1.75-1.75v-1c0-0.965,0.785-1.75,1.75-1.75s1.75,0.785,1.75,1.75v1
	C13.75,21.465,12.965,22.25,12,22.25z M12,18.25c-0.689,0-1.25,0.561-1.25,1.25v1c0,0.689,0.561,1.25,1.25,1.25
	s1.25-0.561,1.25-1.25v-1C13.25,18.811,12.689,18.25,12,18.25z"/>
</svg>






