<?xml version="1.0" encoding="iso-8859-1"?>
<svg version="1.1" id="&#x56FE;&#x5C42;_1" xmlns="http://www.w3.org/2000/svg" xmlns:xlink="http://www.w3.org/1999/xlink" x="0px"
	 y="0px" viewBox="0 0 24 24" style="enable-background:new 0 0 24 24;" xml:space="preserve">
<path style="fill:#333333;" d="M12,6.25c-1.241,0-2.25-1.009-2.25-2.25S10.759,1.75,12,1.75c1.24,0,2.25,1.009,2.25,2.25
	S13.24,6.25,12,6.25z M12,2.25c-0.965,0-1.75,0.785-1.75,1.75S11.035,5.75,12,5.75S13.75,4.965,13.75,4S12.965,2.25,12,2.25z"/>
<polygon style="fill:#333333;" points="9.75,17 9.25,17 9.25,9.25 3.5,9.25 3.5,8.75 9.75,8.75 "/>
<polygon style="fill:#333333;" points="14.75,22 14.25,22 14.25,8.75 20.5,8.75 20.5,9.25 14.75,9.25 "/>
</svg>






