<?xml version="1.0" encoding="iso-8859-1"?>
<svg version="1.1" id="&#x56FE;&#x5C42;_1" xmlns="http://www.w3.org/2000/svg" xmlns:xlink="http://www.w3.org/1999/xlink" x="0px"
	 y="0px" viewBox="0 0 24 24" style="enable-background:new 0 0 24 24;" xml:space="preserve">
<path style="fill:#333333;" d="M17,18.25H7c-0.689,0-1.25-0.561-1.25-1.25V7c0-0.689,0.561-1.25,1.25-1.25h10
	c0.689,0,1.25,0.561,1.25,1.25v10C18.25,17.689,17.689,18.25,17,18.25z M7,6.25C6.586,6.25,6.25,6.586,6.25,7v10
	c0,0.413,0.336,0.75,0.75,0.75h10c0.413,0,0.75-0.337,0.75-0.75V7c0-0.414-0.337-0.75-0.75-0.75H7z"/>
</svg>






