<?xml version="1.0" encoding="iso-8859-1"?>
<svg version="1.1" id="&#x56FE;&#x5C42;_1" xmlns="http://www.w3.org/2000/svg" xmlns:xlink="http://www.w3.org/1999/xlink" x="0px"
	 y="0px" viewBox="0 0 24 24" style="enable-background:new 0 0 24 24;" xml:space="preserve">
<path style="fill:#333333;" d="M19.25,19h-0.5V3c0-0.414-0.337-0.75-0.75-0.75H6C5.586,2.25,5.25,2.586,5.25,3v16h-0.5V3
	c0-0.689,0.561-1.25,1.25-1.25h12c0.689,0,1.25,0.561,1.25,1.25V19z"/>
<rect x="11.5" y="6.75" style="fill:#333333;" width="1" height="0.5"/>
<rect x="11.5" y="10.75" style="fill:#333333;" width="1" height="0.5"/>
<path style="fill:#333333;" d="M16,22.25H8c-1.792,0-3.25-1.458-3.25-3.25S6.208,15.75,8,15.75h8c1.792,0,3.25,1.458,3.25,3.25
	S17.792,22.25,16,22.25z M8,16.25c-1.517,0-2.75,1.233-2.75,2.75S6.483,21.75,8,21.75h8c1.517,0,2.75-1.233,2.75-2.75
	s-1.233-2.75-2.75-2.75H8z"/>
<rect x="8.25" y="19.5" style="fill:#333333;" width="0.5" height="2.5"/>
<rect x="10.75" y="19.5" style="fill:#333333;" width="0.5" height="2.5"/>
<rect x="13.25" y="19.5" style="fill:#333333;" width="0.5" height="2.5"/>
<circle style="fill:#333333;" cx="16" cy="19" r="1"/>
<rect x="7.5" y="21.75" style="fill:#333333;" width="7" height="0.5"/>
</svg>






