<?xml version="1.0" encoding="iso-8859-1"?>
<svg version="1.1" id="&#x56FE;&#x5C42;_1" xmlns="http://www.w3.org/2000/svg" xmlns:xlink="http://www.w3.org/1999/xlink" x="0px"
	 y="0px" viewBox="0 0 24 24" style="enable-background:new 0 0 24 24;" xml:space="preserve">
<path style="fill:#333333;" d="M15.75,17.25h-7.5V1.75h7.5V17.25z M8.75,16.75h6.5V2.25h-6.5V16.75z"/>
<rect x="8.5" y="6.75" style="fill:#333333;" width="7" height="0.5"/>
<rect x="8.5" y="11.75" style="fill:#333333;" width="7" height="0.5"/>
<rect x="4.25" y="3.5" transform="matrix(0.7071 -0.7071 0.7071 0.7071 -2.2175 4.6464)" style="fill:#333333;" width="0.5" height="3"/>
<rect x="3" y="15.25" transform="matrix(0.7071 -0.7071 0.7071 0.7071 -9.6421 7.7218)" style="fill:#333333;" width="3" height="0.5"/>
<rect x="18" y="4.75" transform="matrix(0.7071 -0.7071 0.7071 0.7071 2.1759 15.253)" style="fill:#333333;" width="3" height="0.5"/>
<rect x="19.25" y="14" transform="matrix(0.7071 -0.7071 0.7071 0.7071 -5.2487 18.3284)" style="fill:#333333;" width="0.5" height="3"/>
<rect x="2" y="10.25" style="fill:#333333;" width="3" height="0.5"/>
<rect x="19" y="10.25" style="fill:#333333;" width="3" height="0.5"/>
<path style="fill:#333333;" d="M14.25,22.25h-4.5v-5.5h4.5V22.25z M10.25,21.75h3.5v-4.5h-3.5V21.75z"/>
</svg>






