<?xml version="1.0" encoding="iso-8859-1"?>
<svg version="1.1" id="&#x56FE;&#x5C42;_1" xmlns="http://www.w3.org/2000/svg" xmlns:xlink="http://www.w3.org/1999/xlink" x="0px"
	 y="0px" viewBox="0 0 24 24" style="enable-background:new 0 0 24 24;" xml:space="preserve">
<path style="fill:#333333;" d="M19.623,21.83L17.7,20.388l-1.9,1.425L13.9,20.388L12,21.812l-1.9-1.425l-1.9,1.425l-1.9-1.425
	L4.376,21.83L2.17,19.623L3.612,17.7l-1.425-1.9L3.612,13.9L2.188,12l1.425-1.9L2.188,8.2l1.425-1.9L2.17,4.376L4.376,2.17
	L6.3,3.612l1.9-1.425l1.9,1.425L12,2.188l1.9,1.425L15.8,2.188l1.9,1.425l1.923-1.442l2.207,2.207L20.388,6.3l1.425,1.9l-1.425,1.9
	l1.425,1.9l-1.425,1.9l1.425,1.899l-1.425,1.9l1.442,1.923L19.623,21.83z M6.3,19.763l1.9,1.425l1.9-1.425l1.9,1.425l1.9-1.425
	l1.899,1.425l1.9-1.425l1.876,1.407l1.594-1.594L19.763,17.7l1.425-1.9L19.763,13.9l1.425-1.9l-1.425-1.9l1.425-1.9l-1.425-1.9
	l1.407-1.876L19.576,2.83L17.7,4.237l-1.9-1.425L13.9,4.237L12,2.812l-1.9,1.425L8.2,2.812L6.3,4.237L4.423,2.83L2.83,4.423
	L4.237,6.3L2.812,8.2l1.425,1.9L2.812,12l1.425,1.9L2.812,15.8l1.425,1.9L2.83,19.576l1.593,1.594L6.3,19.763z"/>
<path style="fill:#333333;" d="M12,16.75c-2.619,0-4.75-2.131-4.75-4.75S9.381,7.25,12,7.25s4.75,2.131,4.75,4.75
	S14.619,16.75,12,16.75z M12,7.75c-2.343,0-4.25,1.907-4.25,4.25c0,2.344,1.907,4.25,4.25,4.25c2.344,0,4.25-1.906,4.25-4.25
	C16.25,9.657,14.344,7.75,12,7.75z"/>
</svg>






