<?xml version="1.0" encoding="iso-8859-1"?>
<svg version="1.1" id="&#x56FE;&#x5C42;_1" xmlns="http://www.w3.org/2000/svg" xmlns:xlink="http://www.w3.org/1999/xlink" x="0px"
	 y="0px" viewBox="0 0 24 24" style="enable-background:new 0 0 24 24;" xml:space="preserve">
<path style="fill:#333333;" d="M10,21.25c-2.895,0-5.25-2.355-5.25-5.25c0-2.306,1.477-4.319,3.675-5.009l0.149,0.477
	C6.586,12.093,5.25,13.914,5.25,16c0,2.619,2.131,4.75,4.75,4.75c1.508,0,2.894-0.692,3.8-1.9c0.114-0.151,0.22-0.31,0.314-0.475
	l0.434,0.25c-0.106,0.183-0.222,0.358-0.349,0.525C13.198,20.484,11.667,21.25,10,21.25z"/>
<polygon style="fill:#333333;" points="18.75,22 18.25,22 18.25,15.25 11.096,15.25 14.596,8.25 9.375,8.25 8.7,9.15 8.3,8.85 
	9.125,7.75 15.404,7.75 11.904,14.75 18.75,14.75 "/>
<path style="fill:#333333;" d="M17,6.25c-1.24,0-2.25-1.009-2.25-2.25S15.76,1.75,17,1.75S19.25,2.759,19.25,4S18.24,6.25,17,6.25z
	 M17,2.25c-0.965,0-1.75,0.785-1.75,1.75S16.035,5.75,17,5.75S18.75,4.965,18.75,4S17.965,2.25,17,2.25z"/>
</svg>






