<?xml version="1.0" encoding="iso-8859-1"?>
<svg version="1.1" id="&#x56FE;&#x5C42;_1" xmlns="http://www.w3.org/2000/svg" xmlns:xlink="http://www.w3.org/1999/xlink" x="0px"
	 y="0px" viewBox="0 0 24 24" style="enable-background:new 0 0 24 24;" xml:space="preserve">
<polygon style="fill:#333333;" points="21.25,21.75 2.75,21.75 2.75,17.25 15.5,17.25 15.5,17.75 3.25,17.75 3.25,21.25 
	20.75,21.25 20.75,17.5 21.25,17.5 "/>
<polygon style="fill:#333333;" points="14.791,13.824 2.468,9.339 4.007,5.11 19.278,10.668 19.106,11.138 4.306,5.751 3.109,9.041 
	14.963,13.354 "/>
<path style="fill:#333333;" d="M11.61,8.388l-0.252-0.073L3.864,5.537l0.995-2.685C4.913,2.703,5.08,2.625,5.234,2.677l4.754,1.763
	c1.495,0.555,2.261,2.222,1.707,3.718L11.61,8.388z M4.506,5.242l6.791,2.518c0.31-1.175-0.319-2.42-1.482-2.851l-4.559-1.69
	L4.506,5.242z M5.328,3.024L5.327,3.027C5.328,3.026,5.328,3.025,5.328,3.024z"/>
<path style="fill:#333333;" d="M7.224,13.818c-0.087,0-0.174-0.015-0.257-0.045l-3.289-1.197C3.49,12.508,3.34,12.37,3.255,12.189
	c-0.085-0.183-0.094-0.386-0.025-0.575l0.684-1.879l0.47,0.171L3.7,11.786c-0.023,0.063-0.02,0.131,0.008,0.192
	c0.028,0.06,0.078,0.105,0.141,0.128l3.289,1.197c0.131,0.051,0.273-0.02,0.321-0.149l0.684-1.879l0.47,0.171l-0.684,1.88
	c-0.069,0.188-0.207,0.338-0.388,0.423C7.439,13.795,7.332,13.818,7.224,13.818z"/>
<path style="fill:#333333;" d="M18,18.75c-2.067,0-3.75-1.683-3.75-3.75s1.683-3.75,3.75-3.75s3.75,1.683,3.75,3.75
	S20.067,18.75,18,18.75z M18,11.75c-1.792,0-3.25,1.458-3.25,3.25s1.458,3.25,3.25,3.25s3.25-1.458,3.25-3.25S19.792,11.75,18,11.75
	z"/>
</svg>






