<?xml version="1.0" encoding="iso-8859-1"?>
<svg version="1.1" id="&#x56FE;&#x5C42;_1" xmlns="http://www.w3.org/2000/svg" xmlns:xlink="http://www.w3.org/1999/xlink" x="0px"
	 y="0px" viewBox="0 0 24 24" style="enable-background:new 0 0 24 24;" xml:space="preserve">
<path style="fill-rule:evenodd;clip-rule:evenodd;fill:#333333;" d="M8.436,16.522l-0.437,5.83c-0.031,0.41,0.334,0.692,0.659,0.509
	c2.306-1.292,9.531-6.037,13.193-16.466c0.168-0.478-0.283-0.91-0.669-0.64c-2.163,1.515-6.89,4.646-9.811,5.242
	c0,0,1.871-1.299,2.991-3.294c0.11-0.196,0.101-0.446-0.022-0.622l-4.083-5.886C10.014,0.846,9.518,0.99,9.43,1.435L8.159,7.904
	l-5.967,5.208C1.893,13.372,1.954,13.9,2.299,14.04L8.436,16.522z"/>
<path style="fill-rule:evenodd;clip-rule:evenodd;fill:#333333;" d="M18.987,14.224c-0.378,0.527-1.192,1.612-1.943,2.275
	c-0.15,0.132-0.13,0.355,0.042,0.463l3.971,2.493c0.239,0.15,0.562-0.028,0.522-0.288c-0.185-1.191-0.717-3.675-2.062-4.979
	C19.366,14.042,19.107,14.057,18.987,14.224z"/>
</svg>






