<?xml version="1.0" encoding="iso-8859-1"?>
<svg version="1.1" id="&#x56FE;&#x5C42;_1" xmlns="http://www.w3.org/2000/svg" xmlns:xlink="http://www.w3.org/1999/xlink" x="0px"
	 y="0px" viewBox="0 0 24 24" style="enable-background:new 0 0 24 24;" xml:space="preserve">
<path style="fill:#333333;" d="M18.169,17.25H7.055l-1.375-5.5h14.689L18.169,17.25z M7.445,16.75h10.386l1.8-4.5H6.32L7.445,16.75z
	"/>
<polygon style="fill:#333333;" points="5.771,12.102 3.837,7.75 1.75,7.75 1.75,7.25 4.163,7.25 6.229,11.898 "/>
<path style="fill:#333333;" d="M10,22.25c-0.965,0-1.75-0.785-1.75-1.75s0.785-1.75,1.75-1.75s1.75,0.785,1.75,1.75
	S10.965,22.25,10,22.25z M10,19.25c-0.689,0-1.25,0.561-1.25,1.25s0.561,1.25,1.25,1.25s1.25-0.561,1.25-1.25S10.689,19.25,10,19.25
	z"/>
<path style="fill:#333333;" d="M15.5,22.25c-0.965,0-1.75-0.785-1.75-1.75s0.785-1.75,1.75-1.75s1.75,0.785,1.75,1.75
	S16.465,22.25,15.5,22.25z M15.5,19.25c-0.689,0-1.25,0.561-1.25,1.25s0.561,1.25,1.25,1.25s1.25-0.561,1.25-1.25
	S16.189,19.25,15.5,19.25z"/>
<path style="fill:#333333;" d="M20.163,12.25h-6.347l-2.619-8.378l0.19-0.095c1.184-0.592,4.329-2.164,7.539,1.047
	c3.085,3.085,1.32,7.235,1.303,7.277L20.163,12.25z M14.184,11.75h5.646c0.268-0.739,1.266-4.052-1.256-6.573
	c-2.532-2.532-4.932-1.931-6.771-1.047L14.184,11.75z"/>
</svg>






