<?xml version="1.0" encoding="iso-8859-1"?>
<svg version="1.1" id="&#x56FE;&#x5C42;_1" xmlns="http://www.w3.org/2000/svg" xmlns:xlink="http://www.w3.org/1999/xlink" x="0px"
	 y="0px" viewBox="0 0 24 24" style="enable-background:new 0 0 24 24;" xml:space="preserve">
<path style="fill:#333333;" d="M8,16.25c-3.912,0-6.25-2.924-6.25-5.75V3.25h3.026V2h0.5v1.25h5.447V2h0.5v1.25h3.026v7.25
	C14.25,13.326,11.912,16.25,8,16.25z M2.25,3.75v6.75c0,2.545,2.015,5.25,5.75,5.25s5.75-2.705,5.75-5.25V3.75h-2.526V5h-0.5V3.75
	H5.276V5h-0.5V3.75H2.25z"/>
<path style="fill:#333333;" d="M20,11.75c-1.24,0-2.25-1.009-2.25-2.25S18.76,7.25,20,7.25s2.25,1.009,2.25,2.25
	S21.24,11.75,20,11.75z M20,7.75c-0.965,0-1.75,0.785-1.75,1.75s0.785,1.75,1.75,1.75s1.75-0.785,1.75-1.75S20.965,7.75,20,7.75z"/>
<path style="fill:#333333;" d="M14,22.25c-3.446,0-6.25-2.804-6.25-6.25h0.5c0,3.171,2.58,5.75,5.75,5.75
	c3.171,0,5.75-2.579,5.75-5.75v-4.5h0.5V16C20.25,19.446,17.446,22.25,14,22.25z"/>
</svg>






