<?xml version="1.0" encoding="iso-8859-1"?>
<svg version="1.1" id="&#x56FE;&#x5C42;_1" xmlns="http://www.w3.org/2000/svg" xmlns:xlink="http://www.w3.org/1999/xlink" x="0px"
	 y="0px" viewBox="0 0 24 24" style="enable-background:new 0 0 24 24;" xml:space="preserve">
<path style="fill:#333333;" d="M12,22.25C6.348,22.25,1.75,17.652,1.75,12C1.75,6.348,6.348,1.75,12,1.75h0.365l-0.132,0.34
	c-0.018,0.043-1.652,4.399,1.45,7.74c3.104,3.344,8.197,1.944,8.248,1.93l0.318-0.091V12C22.25,17.652,17.652,22.25,12,22.25z
	 M11.655,2.256C6.438,2.438,2.25,6.739,2.25,12c0,5.376,4.374,9.75,9.75,9.75c5.271,0,9.577-4.203,9.745-9.433
	c-1.214,0.258-5.582,0.918-8.429-2.147C10.525,7.164,11.321,3.402,11.655,2.256z"/>
<rect x="16.75" y="-0.071" transform="matrix(0.7071 -0.7071 0.7071 0.7071 0.0294 14.0711)" style="fill:#333333;" width="0.5" height="14.142"/>
</svg>






