<?xml version="1.0" encoding="iso-8859-1"?>
<svg version="1.1" id="&#x56FE;&#x5C42;_1" xmlns="http://www.w3.org/2000/svg" xmlns:xlink="http://www.w3.org/1999/xlink" x="0px"
	 y="0px" viewBox="0 0 24 24" style="enable-background:new 0 0 24 24;" xml:space="preserve">
<path style="fill:#333333;" d="M12,22.25c-4.825,0-8.75-3.925-8.75-8.75c0-4.825,3.925-8.75,8.75-8.75c4.825,0,8.75,3.925,8.75,8.75
	C20.75,18.325,16.825,22.25,12,22.25z M12,5.25c-4.549,0-8.25,3.701-8.25,8.25s3.701,8.25,8.25,8.25s8.25-3.701,8.25-8.25
	S16.549,5.25,12,5.25z"/>
<rect x="8.5" y="1.75" style="fill:#333333;" width="7" height="0.5"/>
<rect x="17.189" y="5.5" transform="matrix(0.7071 -0.7071 0.7071 0.7071 1.2794 14.5888)" style="fill:#333333;" width="2.121" height="0.5"/>
<rect x="11.75" y="9" style="fill:#333333;" width="0.5" height="4.5"/>
</svg>






