<?xml version="1.0" encoding="iso-8859-1"?>
<svg version="1.1" id="&#x56FE;&#x5C42;_1" xmlns="http://www.w3.org/2000/svg" xmlns:xlink="http://www.w3.org/1999/xlink" x="0px"
	 y="0px" viewBox="0 0 24 24" style="enable-background:new 0 0 24 24;" xml:space="preserve">
<path style="fill:#333333;" d="M17.25,11h-0.5c0-2.619-2.131-4.75-4.75-4.75S7.25,8.381,7.25,11h-0.5c0-2.895,2.355-5.25,5.25-5.25
	C14.895,5.75,17.25,8.105,17.25,11z"/>
<path style="fill:#333333;" d="M12,18.25c-5.748,0-10.25-1.64-10.25-3.733c0-1.386,1.944-2.605,5.201-3.262l0.099,0.49
	c-2.916,0.588-4.799,1.676-4.799,2.771c0,1.562,3.918,3.233,9.75,3.233s9.75-1.672,9.75-3.233c0-1.096-1.884-2.184-4.8-2.771
	l0.1-0.49c3.256,0.656,5.2,1.876,5.2,3.262C22.25,16.61,17.748,18.25,12,18.25z"/>
<path style="fill:#333333;" d="M12,13.25c-2.828,0-4.356-1.35-5.008-1.926L6.84,11.192l0.32-0.384
	c0.046,0.038,0.1,0.086,0.163,0.141C7.933,11.488,9.361,12.75,12,12.75c2.896,0,4.347-1.45,4.823-1.927l0.354,0.354
	C16.664,11.689,15.104,13.25,12,13.25z"/>
<rect x="8.654" y="11" transform="matrix(0.3714 -0.9285 0.9285 0.3714 -4.1593 16.3566)" style="fill:#333333;" width="2.693" height="0.5"/>
</svg>






