<?xml version="1.0" encoding="iso-8859-1"?>
<svg version="1.1" id="&#x56FE;&#x5C42;_1" xmlns="http://www.w3.org/2000/svg" xmlns:xlink="http://www.w3.org/1999/xlink" x="0px"
	 y="0px" viewBox="0 0 24 24" style="enable-background:new 0 0 24 24;" xml:space="preserve">
<path style="fill:#333333;" d="M3.137,21.313c-0.595,0-1.124-0.428-1.231-1.033l-0.173-0.985c-0.12-0.678,0.334-1.328,1.013-1.448h0
	l16.742-2.951c0.327-0.06,0.659,0.015,0.934,0.206c0.273,0.191,0.456,0.479,0.514,0.808l0.174,0.985
	c0.058,0.328-0.016,0.66-0.207,0.934s-0.479,0.456-0.808,0.514L3.354,21.294C3.281,21.307,3.208,21.313,3.137,21.313z M2.833,18.339
	L2.833,18.339c-0.408,0.072-0.681,0.463-0.609,0.869l0.173,0.985c0.073,0.407,0.47,0.679,0.869,0.608l16.742-2.952
	c0.197-0.035,0.369-0.145,0.483-0.309c0.115-0.164,0.159-0.363,0.125-0.561l-0.174-0.985c-0.035-0.197-0.145-0.369-0.309-0.483
	c-0.163-0.116-0.363-0.158-0.56-0.124L2.833,18.339z"/>
<rect x="20.75" y="17.586" transform="matrix(0.7071 -0.7071 0.7071 0.7071 -7.2843 20.4142)" style="fill:#333333;" width="0.5" height="2.828"/>
<path style="fill:#333333;" d="M11.071,13.667L4.53,7.126C3.043,5.639,3.043,4.868,3.043,4.121c0-0.757,0.704-2.173,0.733-2.233
	l0.155-0.31l9.614,9.614L11.071,13.667z M4.074,2.428C3.852,2.921,3.543,3.7,3.543,4.121c0,0.674,0,1.311,1.341,2.652l6.188,6.187
	l1.768-1.768L4.074,2.428z"/>
<rect x="10.5" y="-0.796" transform="matrix(0.7071 -0.7071 0.7071 0.7071 -3.0386 10.1642)" style="fill:#333333;" width="0.5" height="19.092"/>
</svg>






