<?xml version="1.0" encoding="iso-8859-1"?>
<svg version="1.1" id="&#x56FE;&#x5C42;_1" xmlns="http://www.w3.org/2000/svg" xmlns:xlink="http://www.w3.org/1999/xlink" x="0px"
	 y="0px" viewBox="0 0 24 24" style="enable-background:new 0 0 24 24;" xml:space="preserve">
<path style="fill:#333333;" d="M12,6.25c-1.241,0-2.25-1.009-2.25-2.25S10.759,1.75,12,1.75c1.24,0,2.25,1.009,2.25,2.25
	S13.24,6.25,12,6.25z M12,2.25c-0.965,0-1.75,0.785-1.75,1.75S11.035,5.75,12,5.75S13.75,4.965,13.75,4S12.965,2.25,12,2.25z"/>
<polygon style="fill:#333333;" points="14.75,22 14.25,22 14.25,8.675 20.344,3.805 20.656,4.195 14.75,8.916 "/>
<polygon style="fill:#333333;" points="3.677,20.676 3.323,20.324 9.25,14.354 9.25,9.438 5.183,11.84 4.929,11.41 9.373,8.785 
	9.75,9 9.75,14.562 9.677,14.634 "/>
</svg>






