<?xml version="1.0" encoding="iso-8859-1"?>
<svg version="1.1" id="&#x56FE;&#x5C42;_1" xmlns="http://www.w3.org/2000/svg" xmlns:xlink="http://www.w3.org/1999/xlink" x="0px"
	 y="0px" viewBox="0 0 24 24" style="enable-background:new 0 0 24 24;" xml:space="preserve">
<rect x="2.5" y="11.75" style="fill:#333333;" width="19" height="0.5"/>
<path style="fill:#333333;" d="M12,22.25c-5.136,0-6.232-4.147-6.243-4.189l0.485-0.122C6.282,18.095,7.264,21.75,12,21.75
	c2.26,0,4.248-1.569,4.626-3.65c0.436-2.402-1.327-4.596-4.714-5.865l0.176-0.468c3.632,1.362,5.512,3.763,5.029,6.423
	C16.697,20.504,14.498,22.25,12,22.25z"/>
<path style="fill:#333333;" d="M7.595,9.137c-1.049-1.609-1.199-3.45-0.4-4.925C8.043,2.647,9.794,1.75,12,1.75
	c4.62,0,6.219,4.121,6.234,4.162l-0.469,0.176C17.707,5.931,16.268,2.25,12,2.25c-2.017,0-3.607,0.802-4.365,2.2
	c-0.71,1.311-0.568,2.96,0.379,4.413L7.595,9.137z"/>
<path style="fill:#333333;" d="M12,22.25c-4.107,0-6.139-3.969-6.224-4.139l0.447-0.224C6.243,17.927,8.206,21.75,12,21.75
	c1.872,0,3.463-0.872,4.254-2.333c0.728-1.344,0.63-2.903-0.268-4.28l0.418-0.273c0.987,1.513,1.095,3.305,0.289,4.792
	C15.813,21.28,14.059,22.25,12,22.25z"/>
</svg>






