<?xml version="1.0" encoding="iso-8859-1"?>
<svg version="1.1" id="&#x56FE;&#x5C42;_1" xmlns="http://www.w3.org/2000/svg" xmlns:xlink="http://www.w3.org/1999/xlink" x="0px"
	 y="0px" viewBox="0 0 24 24" style="enable-background:new 0 0 24 24;" xml:space="preserve">
<path style="fill:#333333;" d="M20.5,22.25h-17c-0.965,0-1.75-0.785-1.75-1.75v-17c0-0.965,0.785-1.75,1.75-1.75h17
	c0.965,0,1.75,0.785,1.75,1.75v17C22.25,21.465,21.465,22.25,20.5,22.25z M3.5,2.25c-0.689,0-1.25,0.561-1.25,1.25v17
	c0,0.689,0.561,1.25,1.25,1.25h17c0.689,0,1.25-0.561,1.25-1.25v-17c0-0.689-0.561-1.25-1.25-1.25H3.5z"/>
<path style="fill:#333333;" d="M6,7c0.552,0,1-0.448,1-1S6.552,5,6,5S5,5.448,5,6S5.448,7,6,7z"/>
<path style="fill:#333333;" d="M6,19c0.552,0,1-0.448,1-1s-0.448-1-1-1s-1,0.448-1,1S5.448,19,6,19z"/>
<path style="fill:#333333;" d="M18,7c0.552,0,1-0.448,1-1s-0.448-1-1-1s-1,0.448-1,1S17.448,7,18,7z"/>
<path style="fill:#333333;" d="M18,19c0.552,0,1-0.448,1-1s-0.448-1-1-1s-1,0.448-1,1S17.448,19,18,19z"/>
<path style="fill:#333333;" d="M12,16.75c-2.619,0-4.75-2.131-4.75-4.75S9.381,7.25,12,7.25s4.75,2.131,4.75,4.75
	S14.619,16.75,12,16.75z M12,7.75c-2.343,0-4.25,1.907-4.25,4.25c0,2.344,1.907,4.25,4.25,4.25c2.344,0,4.25-1.906,4.25-4.25
	C16.25,9.657,14.344,7.75,12,7.75z"/>
</svg>






