<?xml version="1.0" encoding="iso-8859-1"?>
<svg version="1.1" id="&#x56FE;&#x5C42;_1" xmlns="http://www.w3.org/2000/svg" xmlns:xlink="http://www.w3.org/1999/xlink" x="0px"
	 y="0px" viewBox="0 0 24 24" style="enable-background:new 0 0 24 24;" xml:space="preserve">
<path style="fill:#333333;" d="M20.5,21.75H9c-0.689,0-1.25-0.561-1.25-1.25V16h0.5v4.5c0,0.413,0.336,0.75,0.75,0.75h11.5
	c0.413,0,0.75-0.337,0.75-0.75V9c0-0.414-0.337-0.75-0.75-0.75H16v-0.5h4.5c0.689,0,1.25,0.561,1.25,1.25v11.5
	C21.75,21.189,21.189,21.75,20.5,21.75z"/>
<path style="fill:#333333;" d="M15,16.25H3.5c-0.689,0-1.25-0.561-1.25-1.25V3.5c0-0.689,0.561-1.25,1.25-1.25H15
	c0.689,0,1.25,0.561,1.25,1.25V15C16.25,15.689,15.689,16.25,15,16.25z M3.5,2.75c-0.414,0-0.75,0.336-0.75,0.75V15
	c0,0.413,0.336,0.75,0.75,0.75H15c0.413,0,0.75-0.337,0.75-0.75V3.5c0-0.414-0.337-0.75-0.75-0.75H3.5z"/>
<rect x="0.974" y="5.75" transform="matrix(0.6802 -0.733 0.733 0.6802 -2.5593 6.1334)" style="fill:#333333;" width="9.552" height="0.5"/>
<rect x="-0.139" y="8.25" transform="matrix(0.6762 -0.7367 0.7367 0.6762 -3.6717 8.6466)" style="fill:#333333;" width="16.279" height="0.5"/>
<rect x="3.567" y="10.25" transform="matrix(0.6721 -0.7405 0.7405 0.6721 -4.1679 11.5882)" style="fill:#333333;" width="14.866" height="0.499"/>
<rect x="9.783" y="13" transform="matrix(0.6721 -0.7405 0.7405 0.6721 -5.3844 14.3412)" style="fill:#333333;" width="7.433" height="0.499"/>
</svg>






