<?xml version="1.0" encoding="iso-8859-1"?>
<svg version="1.1" id="&#x56FE;&#x5C42;_1" xmlns="http://www.w3.org/2000/svg" xmlns:xlink="http://www.w3.org/1999/xlink" x="0px"
	 y="0px" viewBox="0 0 24 24" style="enable-background:new 0 0 24 24;" xml:space="preserve">
<path style="fill:#333333;" d="M20.5,21.75H9c-0.689,0-1.25-0.561-1.25-1.25V9c0-0.689,0.561-1.25,1.25-1.25h11.5
	c0.689,0,1.25,0.561,1.25,1.25v11.5C21.75,21.189,21.189,21.75,20.5,21.75z M9,8.25C8.586,8.25,8.25,8.586,8.25,9v11.5
	c0,0.413,0.336,0.75,0.75,0.75h11.5c0.413,0,0.75-0.337,0.75-0.75V9c0-0.414-0.337-0.75-0.75-0.75H9z"/>
<path style="fill:#333333;" d="M8,16.25H3.5c-0.689,0-1.25-0.561-1.25-1.25V3.5c0-0.689,0.561-1.25,1.25-1.25H15
	c0.689,0,1.25,0.561,1.25,1.25V8h-0.5V3.5c0-0.414-0.337-0.75-0.75-0.75H3.5c-0.414,0-0.75,0.336-0.75,0.75V15
	c0,0.413,0.336,0.75,0.75,0.75H8V16.25z"/>
<rect x="6.474" y="11.25" transform="matrix(0.6802 -0.733 0.733 0.6802 -4.8321 11.9237)" style="fill:#333333;" width="9.552" height="0.5"/>
<rect x="5.361" y="13.75" transform="matrix(0.6762 -0.7367 0.7367 0.6762 -5.9427 14.4798)" style="fill:#333333;" width="16.279" height="0.5"/>
<rect x="9.067" y="15.75" transform="matrix(0.6721 -0.7405 0.7405 0.6721 -6.437 17.4643)" style="fill:#333333;" width="14.866" height="0.499"/>
<rect x="15.283" y="18.5" transform="matrix(0.6731 -0.7396 0.7396 0.6731 -7.6554 20.1822)" style="fill:#333333;" width="7.433" height="0.499"/>
</svg>






