<?xml version="1.0" encoding="iso-8859-1"?>
<svg version="1.1" id="&#x56FE;&#x5C42;_1" xmlns="http://www.w3.org/2000/svg" xmlns:xlink="http://www.w3.org/1999/xlink" x="0px"
	 y="0px" viewBox="0 0 24 24" style="enable-background:new 0 0 24 24;" xml:space="preserve">
<path style="fill:#333333;" d="M12,22.31l-2.708-1.976L5.94,20.34L4.911,17.15l-2.716-1.965L3.237,12L2.195,8.814l2.716-1.965
	l1.029-3.19l3.353,0.007L12,1.69l2.708,1.976l3.352-0.007l1.03,3.19l2.715,1.965L20.763,12l1.042,3.186L19.09,17.15l-1.03,3.189
	l-3.352-0.006L12,22.31z M9.455,19.834L12,21.69l2.546-1.856l3.15,0.006l0.968-2.998l2.553-1.848L20.237,12l0.979-2.995
	l-2.553-1.847L17.696,4.16l-3.15,0.006L12,2.31L9.455,4.166L6.304,4.16L5.336,7.159L2.784,9.005L3.763,12l-0.979,2.994l2.553,1.848
	l0.968,2.998L9.455,19.834z"/>
<polygon style="fill:#333333;" points="11,14.854 8.323,12.177 8.677,11.823 11,14.146 15.823,9.323 16.177,9.677 "/>
</svg>






