<?xml version="1.0" encoding="iso-8859-1"?>
<svg version="1.1" id="&#x56FE;&#x5C42;_1" xmlns="http://www.w3.org/2000/svg" xmlns:xlink="http://www.w3.org/1999/xlink" x="0px"
	 y="0px" viewBox="0 0 24 24" style="enable-background:new 0 0 24 24;" xml:space="preserve">
<path style="fill:#333333;" d="M18.25,10.25H5.75V5c0-0.689,0.561-1.25,1.25-1.25h10c0.689,0,1.25,0.561,1.25,1.25V10.25z
	 M6.25,9.75h11.5V5c0-0.414-0.337-0.75-0.75-0.75H7C6.586,4.25,6.25,4.586,6.25,5V9.75z"/>
<path style="fill:#333333;" d="M18.2,20.25c-0.919,0-1.995-0.346-3.356-0.783c-0.718-0.23-1.531-0.492-2.408-0.726l0.129-0.482
	c0.889,0.236,1.709,0.5,2.432,0.732c1.32,0.424,2.363,0.759,3.204,0.759c2.017,0,2.746-1.122,3.279-1.941
	c0.119-0.183,0.226-0.345,0.328-0.469l0.385,0.32c-0.093,0.11-0.187,0.257-0.294,0.421C21.371,18.893,20.487,20.25,18.2,20.25z"/>
<path style="fill:#333333;" d="M6,20.25c-2.396,0-3.324-1.354-3.878-2.163c-0.113-0.164-0.212-0.311-0.31-0.422l-0.126-0.145
	l0.106-0.159c0.03-0.045,2.993-4.507,3.971-7.44L5.82,9.75h12.361l0.057,0.171c0.978,2.935,3.94,7.396,3.971,7.44l-0.347,0.347
	c-1.783-1.188-6.15,0.091-10.005,1.221C9.536,19.608,7.344,20.25,6,20.25z M2.309,17.485c0.071,0.095,0.146,0.203,0.225,0.319
	C3.097,18.626,3.867,19.75,6,19.75c1.272,0,3.43-0.632,5.715-1.302c3.488-1.021,7.387-2.162,9.617-1.52
	c-0.864-1.358-2.704-4.381-3.511-6.679H6.179C5.228,12.96,2.838,16.678,2.309,17.485z"/>
</svg>






