<?xml version="1.0" encoding="iso-8859-1"?>
<svg version="1.1" id="&#x56FE;&#x5C42;_1" xmlns="http://www.w3.org/2000/svg" xmlns:xlink="http://www.w3.org/1999/xlink" x="0px"
	 y="0px" viewBox="0 0 24 24" style="enable-background:new 0 0 24 24;" xml:space="preserve">
<rect x="4.882" y="4.345" transform="matrix(0.707 -0.7073 0.7073 0.707 -2.1259 5.1337)" style="fill:#333333;" width="0.5" height="1.575"/>
<rect x="1.5" y="11.75" style="fill:#333333;" width="1.575" height="0.5"/>
<rect x="4.345" y="18.618" transform="matrix(0.7071 -0.7071 0.7071 0.7071 -11.8387 9.1553)" style="fill:#333333;" width="1.575" height="0.5"/>
<rect x="18.618" y="18.081" transform="matrix(0.7071 -0.7071 0.7071 0.7071 -7.8154 18.8682)" style="fill:#333333;" width="0.5" height="1.574"/>
<rect x="20.925" y="11.75" style="fill:#333333;" width="1.575" height="0.5"/>
<rect x="18.081" y="4.882" transform="matrix(0.7071 -0.7071 0.7071 0.7071 1.8973 14.845)" style="fill:#333333;" width="1.574" height="0.5"/>
<rect x="11.75" y="1.5" style="fill:#333333;" width="0.5" height="1.575"/>
<g>
	<path style="fill:#333333;" d="M12,18c3.314,0,6-2.686,6-6s-2.686-6-6-6s-6,2.686-6,6S8.686,18,12,18z"/>
	<path style="fill:#333333;" d="M12,18.25c-3.446,0-6.25-2.804-6.25-6.25S8.554,5.75,12,5.75s6.25,2.804,6.25,6.25
		S15.446,18.25,12,18.25z M12,6.25c-3.17,0-5.75,2.58-5.75,5.75c0,3.171,2.58,5.75,5.75,5.75c3.171,0,5.75-2.579,5.75-5.75
		C17.75,8.83,15.171,6.25,12,6.25z"/>
</g>
<rect x="11.75" y="20.925" style="fill:#333333;" width="0.5" height="1.575"/>
</svg>






