<?xml version="1.0" encoding="iso-8859-1"?>
<svg version="1.1" id="&#x56FE;&#x5C42;_1" xmlns="http://www.w3.org/2000/svg" xmlns:xlink="http://www.w3.org/1999/xlink" x="0px"
	 y="0px" viewBox="0 0 24 24" style="enable-background:new 0 0 24 24;" xml:space="preserve">
<path style="fill:#333333;" d="M15.392,12.532v-0.5c1.731,0,3.141-1.409,3.141-3.141S17.123,5.75,15.392,5.75
	c-1.532,0-2.834,1.094-3.096,2.602l-0.492-0.085c0.303-1.748,1.812-3.017,3.588-3.017c2.008,0,3.641,1.633,3.641,3.641
	S17.399,12.532,15.392,12.532z"/>
<path style="fill:#333333;" d="M16.5,3.5c0.552,0,1-0.448,1-1s-0.448-1-1-1c-0.552,0-1,0.448-1,1S15.948,3.5,16.5,3.5z"/>
<path style="fill:#333333;" d="M21,6c0.552,0,1-0.448,1-1c0-0.552-0.448-1-1-1s-1,0.448-1,1C20,5.552,20.448,6,21,6z"/>
<path style="fill:#333333;" d="M22,10.5c0.552,0,1-0.448,1-1s-0.448-1-1-1s-1,0.448-1,1S21.448,10.5,22,10.5z"/>
<path style="fill:#333333;" d="M11,5c0.552,0,1-0.448,1-1s-0.448-1-1-1s-1,0.448-1,1S10.448,5,11,5z"/>
<path style="fill:#333333;" d="M19.374,21.229l-0.203-0.457c1.566-0.696,2.579-2.272,2.579-4.015c0-2.414-1.927-4.379-4.296-4.379
	c-0.683,0-1.335,0.158-1.938,0.471l-0.277,0.144l-0.079-0.301C14.388,9.782,11.78,7.75,8.818,7.75c-3.622,0-6.568,3.002-6.568,6.692
	c0,2.126,0.958,4.078,2.629,5.356l-0.304,0.396c-1.795-1.373-2.825-3.47-2.825-5.753c0-3.966,3.171-7.192,7.068-7.192
	c3.089,0,5.819,2.051,6.74,5.024c0.599-0.264,1.234-0.396,1.896-0.396c2.645,0,4.796,2.188,4.796,4.879
	C22.25,18.696,21.121,20.451,19.374,21.229z"/>
<path style="fill:#333333;" d="M6.702,16.798C6.088,16.184,5.75,15.368,5.75,14.5c0-1.792,1.458-3.25,3.25-3.25
	c0.868,0,1.685,0.338,2.298,0.952l-0.354,0.354C10.425,12.036,9.735,11.75,9,11.75c-1.516,0-2.75,1.233-2.75,2.75
	c0,0.734,0.286,1.425,0.806,1.944L6.702,16.798z"/>
</svg>






