<?xml version="1.0" encoding="iso-8859-1"?>
<svg version="1.1" id="&#x56FE;&#x5C42;_1" xmlns="http://www.w3.org/2000/svg" xmlns:xlink="http://www.w3.org/1999/xlink" x="0px"
	 y="0px" viewBox="0 0 24 24" style="enable-background:new 0 0 24 24;" xml:space="preserve">
<rect x="2" y="11.75" style="fill:#333333;" width="1.5" height="0.5"/>
<rect x="5.25" y="4.793" transform="matrix(0.7071 -0.7071 0.7071 0.7071 -2.2782 5.5)" style="fill:#333333;" width="0.5" height="1.414"/>
<rect x="11.75" y="2" style="fill:#333333;" width="0.5" height="1.5"/>
<path style="fill:#333333;" d="M15.037,16.283l-0.289-0.408c1.254-0.891,2.002-2.339,2.002-3.875c0-2.619-2.131-4.75-4.75-4.75
	S7.25,9.381,7.25,12h-0.5c0-2.895,2.355-5.25,5.25-5.25c2.895,0,5.25,2.355,5.25,5.25C17.25,13.697,16.423,15.299,15.037,16.283z"/>
<rect x="17.793" y="5.25" transform="matrix(0.7071 -0.7071 0.7071 0.7071 1.5294 14.6924)" style="fill:#333333;" width="1.414" height="0.5"/>
<rect x="20.5" y="11.75" style="fill:#333333;" width="1.5" height="0.5"/>
<rect x="18.335" y="18.013" transform="matrix(0.7075 -0.7067 0.7067 0.7075 -7.6987 18.5697)" style="fill:#333333;" width="0.5" height="1.146"/>
<path style="fill:#333333;" d="M5.394,21.291c-0.737,0-1.418-0.015-1.985-0.026C3.04,21.257,2.73,21.25,2.5,21.25v-0.5
	c0.232,0,0.546,0.007,0.919,0.015c2.443,0.054,8.935,0.192,9.336-1.813c0.049-0.242-0.011-0.47-0.181-0.696
	c-0.413-0.552-1.39-0.944-2.096-1.006c-0.127-0.011-0.266-0.021-0.413-0.031C8.745,17.125,6.75,16.983,6.75,15.5
	c0-1.178,1.636-1.75,5-1.75v0.5c-3.916,0-4.5,0.783-4.5,1.25c0,1.018,1.715,1.139,2.851,1.219c0.15,0.011,0.292,0.021,0.421,0.032
	c0.804,0.07,1.937,0.516,2.453,1.204c0.253,0.337,0.347,0.716,0.271,1.094C12.853,21.014,8.601,21.291,5.394,21.291z"/>
</svg>






