<?xml version="1.0" encoding="iso-8859-1"?>
<svg version="1.1" id="&#x56FE;&#x5C42;_1" xmlns="http://www.w3.org/2000/svg" xmlns:xlink="http://www.w3.org/1999/xlink" x="0px"
	 y="0px" viewBox="0 0 24 24" style="enable-background:new 0 0 24 24;" xml:space="preserve">
<path style="fill:#333333;" d="M16.919,17.25H2.082L9.28,3.881h0.44L16.919,17.25z M2.918,16.75h13.163L9.5,4.527L2.918,16.75z"/>
<polygon style="fill:#333333;" points="21.5,17.25 16,17.25 16,16.75 21.042,16.75 16.974,10.422 14.692,13.16 14.308,12.84 
	17.026,9.578 21.71,16.865 "/>
<rect x="5" y="20.25" style="fill:#333333;" width="14" height="0.5"/>
<path style="fill:#333333;" d="M19,6.75c-0.965,0-1.75-0.785-1.75-1.75S18.035,3.25,19,3.25S20.75,4.035,20.75,5
	S19.965,6.75,19,6.75z M19,3.75c-0.689,0-1.25,0.561-1.25,1.25S18.311,6.25,19,6.25S20.25,5.689,20.25,5S19.689,3.75,19,3.75z"/>
</svg>






