<?xml version="1.0" encoding="iso-8859-1"?>
<svg version="1.1" id="&#x56FE;&#x5C42;_1" xmlns="http://www.w3.org/2000/svg" xmlns:xlink="http://www.w3.org/1999/xlink" x="0px"
	 y="0px" viewBox="0 0 24 24" style="enable-background:new 0 0 24 24;" xml:space="preserve">
<path style="fill:#333333;" d="M16.202,14.207c-1.669,0-3.654-0.25-5.586-0.769c-4.406-1.18-7.648-3.42-7.227-4.994
	c0.432-1.609,1.909-3.778,4.238-4.994c2.072-1.082,4.421-1.199,6.793-0.342c5.729,2.071,6.744,6.608,5.872,9.864L20.284,13
	C19.973,13.793,18.35,14.207,16.202,14.207z M11.32,3.044c-1.209,0-2.377,0.284-3.461,0.85C5.664,5.04,4.275,7.07,3.873,8.574
	c-0.265,0.99,2.221,3.136,6.873,4.382c4.485,1.2,8.677,0.783,9.069-0.128c0.81-3.05-0.161-7.296-5.563-9.249
	C13.262,3.222,12.278,3.044,11.32,3.044z"/>
<path style="fill:#333333;" d="M9.25,21h-0.5c0-0.038,0.017-3.846,1.509-9.069c1.492-5.223,3.507-8.529,3.528-8.562l0.426,0.262
	c-0.02,0.032-2.001,3.286-3.473,8.438C9.269,17.22,9.25,20.963,9.25,21z"/>
<path style="fill:#333333;" d="M7.736,8.581L7.264,8.419c1.428-4.169,6.478-5.126,6.691-5.165l0.09,0.492
	C13.995,3.755,9.068,4.692,7.736,8.581z"/>
<path style="fill:#333333;" d="M15.737,11.079l-0.475-0.158c1.431-4.293-1.411-7.215-1.439-7.244l0.354-0.354
	C14.208,3.354,17.269,6.486,15.737,11.079z"/>
<path style="fill:#333333;" d="M5.041,21.747l-0.082-0.494C5.004,21.246,9.52,20.5,13,20.5c3.471,0,6.49,0.248,6.521,0.251
	l-0.041,0.498C19.449,21.247,16.448,21,13,21C9.562,21,5.086,21.739,5.041,21.747z"/>
<path style="fill:#333333;" d="M14,3.75v-0.5c0.384,0,1.315-0.438,1.685-1.155l0.445,0.229C15.674,3.208,14.582,3.75,14,3.75z"/>
<path style="fill:#333333;" d="M17.25,20.5h-0.5c0-0.65-0.368-1.75-1.75-1.75s-1.75,1.1-1.75,1.75h-0.5
	c0-1.084,0.704-2.25,2.25-2.25S17.25,19.416,17.25,20.5z"/>
</svg>






