<?xml version="1.0" encoding="iso-8859-1"?>
<svg version="1.1" id="&#x56FE;&#x5C42;_1" xmlns="http://www.w3.org/2000/svg" xmlns:xlink="http://www.w3.org/1999/xlink" x="0px"
	 y="0px" viewBox="0 0 24 24" style="enable-background:new 0 0 24 24;" xml:space="preserve">
<rect x="2.75" y="13" style="fill:#333333;" width="0.5" height="8"/>
<polygon style="fill:#333333;" points="6.634,16.75 3,16.75 3,16.25 6.366,16.25 8.292,13.361 8.708,13.639 "/>
<path style="fill:#333333;" d="M17.014,19.157c-0.146,0-0.291-0.042-0.416-0.125L3.361,10.208l0.277-0.416l13.236,8.824
	c0.082,0.055,0.188,0.057,0.268,0.006l4.729-2.837l0.258,0.43L17.4,19.052C17.281,19.122,17.147,19.157,17.014,19.157z"/>
<path style="fill:#333333;" d="M16.507,15.153c-0.146,0-0.29-0.042-0.416-0.126L3.4,6.567c-0.195-0.13-0.316-0.339-0.332-0.573
	c-0.016-0.233,0.075-0.457,0.25-0.612l3.729-3.315C7.3,1.843,7.674,1.814,7.958,2.001l13.532,8.866
	c0.214,0.14,0.341,0.376,0.339,0.632c-0.001,0.256-0.132,0.491-0.348,0.628l-4.572,2.909C16.786,15.114,16.646,15.153,16.507,15.153
	z M7.546,2.378c-0.06,0-0.119,0.021-0.166,0.063L3.65,5.757C3.592,5.809,3.562,5.883,3.567,5.96
	c0.005,0.078,0.046,0.147,0.111,0.191l12.689,8.46c0.082,0.056,0.191,0.056,0.272,0.003l4.573-2.91
	c0.073-0.046,0.115-0.123,0.115-0.209c0.001-0.086-0.04-0.163-0.112-0.21L7.683,2.419C7.642,2.392,7.594,2.378,7.546,2.378z"/>
</svg>






