<?xml version="1.0" encoding="iso-8859-1"?>
<svg version="1.1" id="&#x56FE;&#x5C42;_1" xmlns="http://www.w3.org/2000/svg" xmlns:xlink="http://www.w3.org/1999/xlink" x="0px"
	 y="0px" viewBox="0 0 24 24" style="enable-background:new 0 0 24 24;" xml:space="preserve">
<polygon style="fill:#333333;" points="9.753,18.75 2.5,18.75 2.5,18.25 9.253,18.25 9.253,13.138 9.753,13.138 "/>
<path style="fill:#333333;" d="M20.452,14.778l-3.449-0.925l2.251-4.056l2.363,0.633L20.452,14.778z M17.751,13.537l2.348,0.628
	l0.905-3.381l-1.502-0.402L17.751,13.537z"/>
<path style="fill:#333333;" d="M16.615,15.303L2.194,11.438l1.941-7.245l16.514,4.425l-1.057,1.601l-1.996,3.597L16.615,15.303z
	 M2.806,11.085l13.59,3.642l0.771-1.169l2.001-3.605l0.681-1.03L4.488,4.806L2.806,11.085z"/>
</svg>






