<?xml version="1.0" encoding="iso-8859-1"?>
<svg version="1.1" id="&#x56FE;&#x5C42;_1" xmlns="http://www.w3.org/2000/svg" xmlns:xlink="http://www.w3.org/1999/xlink" x="0px"
	 y="0px" viewBox="0 0 24 24" style="enable-background:new 0 0 24 24;" xml:space="preserve">
<rect x="6.75" y="2" style="fill:#333333;" width="0.5" height="3.5"/>
<rect x="16.75" y="2" style="fill:#333333;" width="0.5" height="3.5"/>
<path style="fill:#333333;" d="M13.25,22.25h-3V22c0-2.29-2.791-3.75-4.25-3.75H5.75v-3h12.5v3H18c-1.41,0-4.75,1.455-4.75,3.75
	V22.25z M10.741,21.75h2.02c0.209-2.369,3.344-3.845,4.989-3.988V15.75H6.25v2.011C7.905,17.902,10.564,19.385,10.741,21.75z"/>
<path style="fill:#333333;" d="M7,12.75c-2.068,0-3.75-1.682-3.75-3.75S4.932,5.25,7,5.25S10.75,6.932,10.75,9S9.068,12.75,7,12.75z
	 M7,5.75C5.208,5.75,3.75,7.208,3.75,9S5.208,12.25,7,12.25s3.25-1.458,3.25-3.25S8.792,5.75,7,5.75z"/>
<path style="fill:#333333;" d="M17,12.75c-2.067,0-3.75-1.682-3.75-3.75S14.933,5.25,17,5.25S20.75,6.932,20.75,9
	S19.067,12.75,17,12.75z M17,5.75c-1.792,0-3.25,1.458-3.25,3.25s1.458,3.25,3.25,3.25s3.25-1.458,3.25-3.25S18.792,5.75,17,5.75z"
	/>
<rect x="10.5" y="8.75" style="fill:#333333;" width="3" height="0.5"/>
</svg>






