<?xml version="1.0" encoding="iso-8859-1"?>
<svg version="1.1" id="&#x56FE;&#x5C42;_1" xmlns="http://www.w3.org/2000/svg" xmlns:xlink="http://www.w3.org/1999/xlink" x="0px"
	 y="0px" viewBox="0 0 24 24" style="enable-background:new 0 0 24 24;" xml:space="preserve">
<g>
	<defs>
		<rect id="SVGID_1_" width="24" height="24"/>
	</defs>
	<clipPath id="SVGID_00000094586399366249639990000006491563865951202976_">
		<use xlink:href="#SVGID_1_"  style="overflow:visible;"/>
	</clipPath>
	<g style="clip-path:url(#SVGID_00000094586399366249639990000006491563865951202976_);">
		<path style="fill:#333333;" d="M11,21.75c-2.48,0-4.979-1.457-6.217-3.626l0,0C3.749,16.314,3.75,13.036,3.75,8.5
			c0-0.757,0.444-1.362,1.159-1.578c0.846-0.258,1.748,0.113,2.299,0.939c0.387,0.581,0.674,1.789,0.826,2.554l2.906-5.033
			c0.417-0.722,1.344-0.968,2.063-0.553c0.35,0.202,0.6,0.527,0.704,0.917c0.009,0.033,0.016,0.066,0.022,0.099
			c0.469-0.343,1.116-0.399,1.65-0.092c0.534,0.309,0.809,0.898,0.745,1.476c0.396-0.136,0.85-0.107,1.243,0.121
			c0.721,0.417,0.969,1.342,0.554,2.063l-0.215,0.371c0.369-0.077,0.744-0.019,1.069,0.17c0.721,0.416,0.97,1.341,0.556,2.062
			l-4.585,7.98c-0.056,0.096-0.112,0.19-0.183,0.277C14.282,20.621,13.195,21.75,11,21.75z M5.437,7.345
			c-0.139,0-0.269,0.02-0.383,0.055C4.558,7.55,4.25,7.972,4.25,8.5c0,4.459-0.001,7.682,0.967,9.376l0,0
			C6.37,19.895,8.694,21.25,11,21.25c1.975,0,2.93-0.987,3.175-1.29c0.053-0.065,0.096-0.139,0.138-0.213l4.585-7.98
			c0.277-0.482,0.11-1.102-0.372-1.38c-0.233-0.135-0.507-0.171-0.768-0.101c-0.26,0.07-0.477,0.236-0.611,0.468l-0.002,0.003
			l-0.434-0.25l0,0l0.776-1.344c0.278-0.482,0.112-1.102-0.37-1.38c-0.481-0.277-1.1-0.113-1.379,0.368l-0.001,0.002l-0.434-0.25
			c0.001,0,0.001-0.001,0.001-0.001l0.193-0.335c0.278-0.482,0.113-1.102-0.369-1.38c-0.486-0.28-1.104-0.112-1.38,0.37
			l-0.194,0.335v0l-0.434-0.25l0,0l0.002-0.002c0.134-0.233,0.169-0.505,0.1-0.765c-0.07-0.261-0.237-0.479-0.471-0.614
			c-0.486-0.278-1.102-0.112-1.38,0.37l-3.248,5.625L7.661,11.17c-0.003-0.022-0.352-2.256-0.869-3.031
			C6.398,7.548,5.875,7.345,5.437,7.345z"/>
		<path style="fill:#333333;" d="M21.647,7.529c-0.157-1.347-0.421-2.238-0.855-2.89c-0.665-0.998-1.596-1.489-2.275-1.847
			l-0.134-0.071l0.234-0.441l0.133,0.07c0.686,0.361,1.723,0.908,2.458,2.012c0.48,0.721,0.77,1.68,0.936,3.11L21.647,7.529z"/>
	</g>
</g>
</svg>






