<?xml version="1.0" encoding="iso-8859-1"?>
<svg version="1.1" id="&#x56FE;&#x5C42;_1" xmlns="http://www.w3.org/2000/svg" xmlns:xlink="http://www.w3.org/1999/xlink" x="0px"
	 y="0px" viewBox="0 0 24 24" style="enable-background:new 0 0 24 24;" xml:space="preserve">
<path style="fill:#333333;" d="M11.322,13.748c-0.573,0-1.183-0.264-1.799-0.789L2.845,7.696l0.31-0.393l6.686,5.269
	c0.657,0.56,1.615,1.051,2.491,0.244c0.316-0.292,0.48-0.618,0.487-0.969c0.012-0.542-0.354-1.029-0.495-1.17L8.35,7.7l0.3-0.4l4,3
	c0.054,0.05,0.686,0.693,0.668,1.558c-0.01,0.493-0.229,0.939-0.649,1.326C12.261,13.561,11.805,13.748,11.322,13.748z"/>
<polygon style="fill:#333333;" points="18.832,9.185 13.403,4.25 2,4.25 2,3.75 13.597,3.75 19.168,8.815 "/>
<rect x="4.5" y="16.255" style="fill:#333333;" width="17.5" height="0.5"/>
<polygon style="fill:#333333;" points="22.25,20.25 4.25,20.25 4.25,9 4.75,9 4.75,19.75 21.75,19.75 21.75,9.25 11,9.25 11,8.75 
	22.25,8.75 "/>
</svg>






