<?xml version="1.0" encoding="iso-8859-1"?>
<svg version="1.1" id="&#x56FE;&#x5C42;_1" xmlns="http://www.w3.org/2000/svg" xmlns:xlink="http://www.w3.org/1999/xlink" x="0px"
	 y="0px" viewBox="0 0 24 24" style="enable-background:new 0 0 24 24;" xml:space="preserve">
<path style="fill:#333333;" d="M20,19.25h-5v-0.5h5c0.872,0,1.311,0,1.53-0.22s0.22-0.658,0.22-1.53V7c0-0.873,0-1.311-0.22-1.53
	S20.872,5.25,20,5.25h-5v-0.5h5c0.979,0,1.518,0,1.884,0.366S22.25,6.021,22.25,7v10c0,0.979,0,1.518-0.366,1.884
	S20.979,19.25,20,19.25z"/>
<path style="fill:#333333;" d="M9,19.25H4c-0.979,0-1.518,0-1.884-0.366S1.75,17.979,1.75,17V7c0-0.979,0-1.518,0.366-1.884
	S3.021,4.75,4,4.75h5v0.5H4c-0.873,0-1.311,0-1.53,0.22S2.25,6.127,2.25,7v10c0,0.872,0,1.311,0.22,1.53S3.127,18.75,4,18.75h5
	V19.25z"/>
<rect x="11.75" y="3" style="fill:#333333;" width="0.5" height="18"/>
</svg>






