<?xml version="1.0" encoding="iso-8859-1"?>
<svg version="1.1" id="&#x56FE;&#x5C42;_1" xmlns="http://www.w3.org/2000/svg" xmlns:xlink="http://www.w3.org/1999/xlink" x="0px"
	 y="0px" viewBox="0 0 24 24" style="enable-background:new 0 0 24 24;" xml:space="preserve">
<path style="fill:#333333;" d="M22.247,13.75H11.25v-12h11L22.247,13.75z M11.75,13.25h9.997l0.003-11h-10V13.25z"/>
<path style="fill:#333333;" d="M15.503,22.25H9.329c-0.666,0-1.908-0.168-2.755-1.293C6.029,20.231,5.752,19.236,5.752,18v-5.5h0.5
	V18c0,1.126,0.243,2.02,0.721,2.656c0.716,0.952,1.783,1.094,2.355,1.094h6.174V22.25z"/>
<polygon style="fill:#333333;" points="9.83,16.677 6.002,12.854 2.177,16.677 1.823,16.323 6.002,12.146 10.184,16.323 "/>
<rect x="15" y="9.25" style="fill:#333333;" width="3.5" height="0.5"/>
<rect x="15" y="5.75" style="fill:#333333;" width="3.5" height="0.5"/>
</svg>






