<?xml version="1.0" encoding="iso-8859-1"?>
<svg version="1.1" id="&#x56FE;&#x5C42;_1" xmlns="http://www.w3.org/2000/svg" xmlns:xlink="http://www.w3.org/1999/xlink" x="0px"
	 y="0px" viewBox="0 0 24 24" style="enable-background:new 0 0 24 24;" xml:space="preserve">
<path style="fill:#333333;" d="M12,21.75c-5.376,0-9.75-4.374-9.75-9.75S6.624,2.25,12,2.25s9.75,4.374,9.75,9.75
	S17.376,21.75,12,21.75z M12,2.75c-5.101,0-9.25,4.149-9.25,9.25s4.149,9.25,9.25,9.25s9.25-4.149,9.25-9.25S17.101,2.75,12,2.75z"
	/>
<path style="fill:#333333;" d="M15.373,15.176H8.626c-1.588,0-2.879-1.291-2.879-2.879s1.292-2.88,2.879-2.88h6.747
	c1.588,0,2.88,1.292,2.88,2.88S16.961,15.176,15.373,15.176z M8.626,9.917c-1.312,0-2.379,1.067-2.379,2.38
	c0,1.312,1.067,2.379,2.379,2.379h6.747c1.312,0,2.38-1.067,2.38-2.379c0-1.312-1.067-2.38-2.38-2.38H8.626z"/>
<path style="fill:#333333;" d="M15.503,15.176c-1.517,0-2.75-1.233-2.75-2.75c0-1.516,1.233-2.75,2.75-2.75s2.75,1.233,2.75,2.75
	C18.253,13.942,17.02,15.176,15.503,15.176z M15.503,10.176c-1.24,0-2.25,1.009-2.25,2.25s1.01,2.25,2.25,2.25s2.25-1.01,2.25-2.25
	S16.743,10.176,15.503,10.176z"/>
</svg>






