<?xml version="1.0" encoding="iso-8859-1"?>
<svg version="1.1" id="&#x56FE;&#x5C42;_1" xmlns="http://www.w3.org/2000/svg" xmlns:xlink="http://www.w3.org/1999/xlink" x="0px"
	 y="0px" viewBox="0 0 24 24" style="enable-background:new 0 0 24 24;" xml:space="preserve">
<path style="fill:#333333;" d="M17.75,22.25H4c-0.965,0-1.75-0.785-1.75-1.75v-17c0-0.965,0.785-1.75,1.75-1.75h12
	c0.965,0,1.75,0.785,1.75,1.75V22.25z M4,2.25c-0.689,0-1.25,0.561-1.25,1.25v17c0,0.689,0.561,1.25,1.25,1.25h13.25V3.5
	c0-0.689-0.561-1.25-1.25-1.25H4z"/>
<path style="fill:#333333;" d="M20,22.25h-2.75V12c0-0.689,0.561-1.25,1.25-1.25h2c0.689,0,1.25,0.561,1.25,1.25v8.5
	C21.75,21.465,20.965,22.25,20,22.25z M17.75,21.75H20c0.689,0,1.25-0.561,1.25-1.25V12c0-0.414-0.337-0.75-0.75-0.75h-2
	c-0.413,0-0.75,0.336-0.75,0.75V21.75z"/>
<rect x="5.5" y="5.75" style="fill:#333333;" width="4" height="0.5"/>
<rect x="5.5" y="9.25" style="fill:#333333;" width="6" height="0.5"/>
</svg>






