<?xml version="1.0" encoding="iso-8859-1"?>
<svg version="1.1" id="&#x56FE;&#x5C42;_1" xmlns="http://www.w3.org/2000/svg" xmlns:xlink="http://www.w3.org/1999/xlink" x="0px"
	 y="0px" viewBox="0 0 24 24" style="enable-background:new 0 0 24 24;" xml:space="preserve">
<path style="fill:#333333;" d="M15.726,8.73c-1.517,0-2.75-1.233-2.75-2.75s1.233-2.75,2.75-2.75s2.75,1.233,2.75,2.75
	S17.242,8.73,15.726,8.73z M15.726,3.73c-1.24,0-2.25,1.009-2.25,2.25s1.01,2.25,2.25,2.25s2.25-1.009,2.25-2.25
	S16.966,3.73,15.726,3.73z"/>
<polygon style="fill:#333333;" points="17.754,17.045 16.812,11.86 11.604,14.228 11.444,14.243 4.944,12.743 5.056,12.257 
	11.474,13.737 16.896,11.272 17.246,11.455 18.246,16.955 "/>
<rect x="2" y="20.265" style="fill:#333333;" width="20" height="0.5"/>
<circle style="fill:#333333;" cx="4.5" cy="12.5" r="2.5"/>
<circle style="fill:#333333;" cx="3" cy="8.5" r="1"/>
<polygon style="fill:#333333;" points="14.579,17.237 14.421,16.763 21.405,14.435 16.871,11.714 17.129,11.286 22.129,14.285 
	22.079,14.737 "/>
</svg>






