<?xml version="1.0" encoding="iso-8859-1"?>
<svg version="1.1" id="&#x56FE;&#x5C42;_1" xmlns="http://www.w3.org/2000/svg" xmlns:xlink="http://www.w3.org/1999/xlink" x="0px"
	 y="0px" viewBox="0 0 24 24" style="enable-background:new 0 0 24 24;" xml:space="preserve">
<path style="fill:#333333;" d="M21,2.5h-2.293c-0.445,0-0.669,0.539-0.354,0.854l2.293,2.293C20.961,5.961,21.5,5.738,21.5,5.293V3
	C21.5,2.724,21.276,2.5,21,2.5z"/>
<path style="fill:#333333;" d="M4,21.5h2.293c0.445,0,0.669-0.539,0.354-0.854l-2.293-2.293C4.039,18.039,3.5,18.262,3.5,18.707V21
	C3.5,21.276,3.724,21.5,4,21.5z"/>
<path style="fill:#333333;" d="M22,17.25H8c-0.689,0-1.25-0.561-1.25-1.25V2h0.5v14c0,0.413,0.336,0.75,0.75,0.75h14V17.25z"/>
<polygon style="fill:#333333;" points="17.75,13.5 17.25,13.5 17.25,6.75 10.5,6.75 10.5,6.25 17.75,6.25 "/>
<rect x="3" y="6.25" style="fill:#333333;" width="4" height="0.5"/>
<rect x="17.75" y="17" style="fill:#333333;" width="0.5" height="4"/>
</svg>






