<?xml version="1.0" encoding="iso-8859-1"?>
<svg version="1.1" id="&#x56FE;&#x5C42;_1" xmlns="http://www.w3.org/2000/svg" xmlns:xlink="http://www.w3.org/1999/xlink" x="0px"
	 y="0px" viewBox="0 0 24 24" style="enable-background:new 0 0 24 24;" xml:space="preserve">
<path style="fill:#333333;" d="M3.25,22h-0.5v-7c0-0.689,0.561-1.25,1.25-1.25h4v0.5H4c-0.414,0-0.75,0.337-0.75,0.75V22z"/>
<path style="fill:#333333;" d="M21.25,22h-0.5v-7c0-0.413-0.337-0.75-0.75-0.75h-4v-0.5h4c0.689,0,1.25,0.561,1.25,1.25V22z"/>
<path style="fill:#333333;" d="M14.11,12.25H9.889l-0.075-0.082c-0.109-0.12-2.675-2.97-2.051-4.75
	C8.07,6.545,8.647,5.983,9.259,5.388c0.185-0.18,0.373-0.363,0.558-0.56c0.777-0.825,1.997-1.997,2.009-2.009L12,2.653l0.173,0.167
	c0.012,0.012,1.232,1.184,2.009,2.009c0.186,0.197,0.374,0.38,0.56,0.561c0.611,0.594,1.188,1.156,1.495,2.028
	c0.625,1.781-1.941,4.631-2.052,4.751L14.11,12.25z M10.111,11.75h3.777c0.729-0.828,2.298-2.964,1.875-4.167
	c-0.267-0.761-0.779-1.259-1.371-1.835c-0.19-0.185-0.385-0.374-0.575-0.576C13.224,4.54,12.363,3.7,12,3.348
	C11.636,3.7,10.776,4.54,10.182,5.171c-0.19,0.202-0.384,0.391-0.574,0.575C9.015,6.323,8.503,6.821,8.235,7.583
	C7.813,8.786,9.382,10.922,10.111,11.75z"/>
<rect x="2" y="21.75" style="fill:#333333;" width="20" height="0.5"/>
<path style="fill:#333333;" d="M16.25,22.25h-8.5v-10.5h8.5V22.25z M8.25,21.75h7.5v-9.5h-7.5V21.75z"/>
<rect x="11.75" y="17" style="fill:#333333;" width="0.5" height="5"/>
<rect x="11.75" y="2" style="fill:#333333;" width="0.5" height="1.5"/>
<rect x="4.75" y="12" style="fill:#333333;" width="0.5" height="2"/>
<rect x="18.75" y="12" style="fill:#333333;" width="0.5" height="2"/>
<rect x="10" y="21.75" style="fill:#333333;" width="4" height="0.5"/>
</svg>






