<?xml version="1.0" encoding="iso-8859-1"?>
<svg version="1.1" id="&#x56FE;&#x5C42;_1" xmlns="http://www.w3.org/2000/svg" xmlns:xlink="http://www.w3.org/1999/xlink" x="0px"
	 y="0px" viewBox="0 0 24 24" style="enable-background:new 0 0 24 24;" xml:space="preserve">
<g>
	<defs>
		<rect id="SVGID_1_" width="24" height="24"/>
	</defs>
	<clipPath id="SVGID_00000101792876785188827540000002619649938327069873_">
		<use xlink:href="#SVGID_1_"  style="overflow:visible;"/>
	</clipPath>
	<g style="clip-path:url(#SVGID_00000101792876785188827540000002619649938327069873_);">
		<rect x="2.499" y="20.244" style="fill:#333333;" width="19" height="0.5"/>
		<path style="fill:#333333;" d="M4.136,15.916l-2.523-4.37l0.216-0.125c0.636-0.369,3.092,0.562,3.92,0.961l4.469-1.6L6.018,3.508
			l2.568-0.154l6.672,6.204l3.986-1.262c1.761-0.504,2.517,0.278,2.811,0.788c0.511,0.884,0.138,1.804-0.996,2.459
			c-1.612,0.93-16.126,4.194-16.744,4.333L4.136,15.916z M2.353,11.828l2.032,3.52c5.252-1.182,15.2-3.531,16.423-4.236
			c0.516-0.298,1.306-0.925,0.813-1.777c-0.389-0.673-1.161-0.866-2.233-0.56l-4.257,1.348L8.402,3.865L6.855,3.958l4.095,7.093
			l-5.235,1.874l-0.097-0.049C4.742,12.425,3.05,11.879,2.353,11.828z"/>
	</g>
</g>
</svg>






