<?xml version="1.0" encoding="iso-8859-1"?>
<svg version="1.1" id="&#x56FE;&#x5C42;_1" xmlns="http://www.w3.org/2000/svg" xmlns:xlink="http://www.w3.org/1999/xlink" x="0px"
	 y="0px" viewBox="0 0 24 24" style="enable-background:new 0 0 24 24;" xml:space="preserve">
<path style="fill:#333333;" d="M6.217,16.965c-0.408,0-0.811-0.143-1.135-0.419l-3.564-3.038l2.174-0.833
	c0.369-0.143,0.779-0.153,1.159-0.033l1.639,0.523c0.314,0.101,0.651,0.073,0.946-0.076l11.131-5.649
	c0.245-0.124,0.519-0.189,0.792-0.189h3.046l-0.957,1.915c-0.169,0.337-0.446,0.615-0.783,0.783l-4.553,2.276l-0.223-0.447
	L20.441,9.5C20.681,9.38,20.88,9.181,21,8.941l0.596-1.191h-2.237c-0.195,0-0.391,0.047-0.565,0.136L7.662,13.534
	c-0.413,0.21-0.884,0.247-1.325,0.107l-1.639-0.523c-0.27-0.085-0.562-0.076-0.827,0.023l-1.389,0.532l2.924,2.491
	c0.382,0.326,0.92,0.393,1.37,0.167l4.112-2.056l0.224,0.447L7,16.779C6.751,16.903,6.483,16.965,6.217,16.965z"/>
<polygon style="fill:#333333;" points="11.721,20.617 11.276,20.611 8.665,15.388 10.889,14.276 11.112,14.724 9.335,15.612 
	11.506,19.954 15.779,11.883 16.221,12.117 "/>
<polygon style="fill:#333333;" points="8.281,12.621 5.781,8.122 6.061,7.757 14.061,9.757 13.939,10.243 6.499,8.382 8.719,12.379 
	"/>
</svg>






