<?xml version="1.0" encoding="iso-8859-1"?>
<svg version="1.1" id="&#x56FE;&#x5C42;_1" xmlns="http://www.w3.org/2000/svg" xmlns:xlink="http://www.w3.org/1999/xlink" x="0px"
	 y="0px" viewBox="0 0 24 24" style="enable-background:new 0 0 24 24;" xml:space="preserve">
<path style="fill:#333333;" d="M3.75,9.5h-0.5V6c0-0.965,0.785-1.75,1.75-1.75S6.75,5.035,6.75,6v1.5h-0.5V6
	c0-0.689-0.561-1.25-1.25-1.25S3.75,5.311,3.75,6V9.5z"/>
<path style="fill:#333333;" d="M14.25,19.75H1.75V13.5c0-3.446,2.804-6.25,6.25-6.25s6.25,2.804,6.25,6.25V19.75z M2.25,19.25h11.5
	V13.5c0-3.17-2.58-5.75-5.75-5.75s-5.75,2.58-5.75,5.75V19.25z"/>
<path style="fill:#333333;" d="M22.25,19.75h-8.5v-6.5h8.5V19.75z M14.25,19.25h7.5v-5.5h-7.5V19.25z"/>
<path style="fill:#333333;" d="M8,15.75c-1.241,0-2.25-1.01-2.25-2.25S6.759,11.25,8,11.25s2.25,1.01,2.25,2.25S9.241,15.75,8,15.75
	z M8,11.75c-0.965,0-1.75,0.785-1.75,1.75S7.035,15.25,8,15.25s1.75-0.785,1.75-1.75S8.965,11.75,8,11.75z"/>
<rect x="19.25" y="13.5" style="fill:#333333;" width="0.5" height="2"/>
<rect x="16.25" y="13.5" style="fill:#333333;" width="0.5" height="2"/>
<rect x="15" y="13.25" style="fill:#333333;" width="6" height="0.5"/>
</svg>






