<?xml version="1.0" encoding="iso-8859-1"?>
<svg version="1.1" id="&#x56FE;&#x5C42;_1" xmlns="http://www.w3.org/2000/svg" xmlns:xlink="http://www.w3.org/1999/xlink" x="0px"
	 y="0px" viewBox="0 0 24 24" style="enable-background:new 0 0 24 24;" xml:space="preserve">
<path style="fill:#333333;" d="M21,19.25H3c-0.689,0-1.25-0.561-1.25-1.25V6c0-0.689,0.561-1.25,1.25-1.25h18
	c0.689,0,1.25,0.561,1.25,1.25v12C22.25,18.689,21.689,19.25,21,19.25z M3,5.25C2.586,5.25,2.25,5.586,2.25,6v12
	c0,0.413,0.336,0.75,0.75,0.75h18c0.413,0,0.75-0.337,0.75-0.75V6c0-0.414-0.337-0.75-0.75-0.75H3z"/>
<path style="fill:#333333;" d="M16.031,8.25H7.968c-0.372,0-0.722-0.164-0.96-0.45l-0.833-1C5.861,6.423,5.795,5.914,6.003,5.47
	s0.642-0.72,1.132-0.72h9.73c0.49,0,0.924,0.276,1.132,0.72s0.142,0.954-0.172,1.331l-0.833,1C16.753,8.086,16.403,8.25,16.031,8.25
	z M7.135,5.25c-0.299,0-0.553,0.162-0.679,0.432C6.329,5.952,6.368,6.25,6.559,6.48l0.833,1c0.143,0.172,0.353,0.27,0.576,0.27
	h8.063c0.223,0,0.434-0.099,0.577-0.27l0.832-1c0.191-0.229,0.23-0.528,0.104-0.798s-0.38-0.432-0.679-0.432H7.135z"/>
<rect x="3" y="4.75" style="fill:#333333;" width="18" height="0.5"/>
<path style="fill:#333333;" d="M16.5,15.75c-1.24,0-2.25-1.01-2.25-2.25s1.01-2.25,2.25-2.25s2.25,1.01,2.25,2.25
	S17.74,15.75,16.5,15.75z M16.5,11.75c-0.965,0-1.75,0.785-1.75,1.75s0.785,1.75,1.75,1.75s1.75-0.785,1.75-1.75
	S17.465,11.75,16.5,11.75z"/>
<path style="fill:#333333;" d="M7.5,15.75c-1.241,0-2.25-1.01-2.25-2.25s1.009-2.25,2.25-2.25s2.25,1.01,2.25,2.25
	S8.741,15.75,7.5,15.75z M7.5,11.75c-0.965,0-1.75,0.785-1.75,1.75s0.785,1.75,1.75,1.75s1.75-0.785,1.75-1.75
	S8.465,11.75,7.5,11.75z"/>
</svg>






