<?xml version="1.0" encoding="iso-8859-1"?>
<svg version="1.1" id="&#x56FE;&#x5C42;_1" xmlns="http://www.w3.org/2000/svg" xmlns:xlink="http://www.w3.org/1999/xlink" x="0px"
	 y="0px" viewBox="0 0 24 24" style="enable-background:new 0 0 24 24;" xml:space="preserve">
<path style="fill:#333333;" d="M11.944,20.194c-4.549,0-8.25-3.701-8.25-8.25s3.701-8.25,8.25-8.25s8.25,3.701,8.25,8.25
	S16.493,20.194,11.944,20.194z M11.944,4.194c-4.273,0-7.75,3.477-7.75,7.75s3.477,7.75,7.75,7.75s7.75-3.477,7.75-7.75
	S16.218,4.194,11.944,4.194z"/>
<path style="fill:#333333;" d="M11.944,16.194c-2.343,0-4.25-1.906-4.25-4.25c0-2.343,1.907-4.25,4.25-4.25
	c2.344,0,4.25,1.907,4.25,4.25C16.194,14.288,14.288,16.194,11.944,16.194z M11.944,8.194c-2.068,0-3.75,1.682-3.75,3.75
	c0,2.067,1.682,3.75,3.75,3.75c2.067,0,3.75-1.683,3.75-3.75C15.694,9.876,14.012,8.194,11.944,8.194z"/>
<path style="fill:#333333;" d="M11.944,12.944c0.55,0,1-0.45,1-1s-0.45-1-1-1s-1,0.45-1,1S11.394,12.944,11.944,12.944z"/>
<rect x="11.694" y="1.944" style="fill:#333333;" width="0.5" height="2"/>
<rect x="17.695" y="18.179" transform="matrix(0.8682 -0.4961 0.4961 0.8682 -7.6549 11.5636)" style="fill:#333333;" width="0.5" height="4.031"/>
<rect x="3.929" y="19.944" transform="matrix(0.4957 -0.8685 0.8685 0.4957 -14.5408 15.3462)" style="fill:#333333;" width="4.031" height="0.5"/>
</svg>






