<?xml version="1.0" encoding="iso-8859-1"?>
<svg version="1.1" id="&#x56FE;&#x5C42;_1" xmlns="http://www.w3.org/2000/svg" xmlns:xlink="http://www.w3.org/1999/xlink" x="0px"
	 y="0px" viewBox="0 0 24 24" style="enable-background:new 0 0 24 24;" xml:space="preserve">
<path style="fill:#333333;" d="M12,15.25c-1.792,0-3.25-1.458-3.25-3.25c0-1.246,0.727-2.397,1.851-2.934l0.216,0.451
	C9.865,9.972,9.25,10.946,9.25,12c0,1.517,1.233,2.75,2.75,2.75c1.054,0,2.028-0.615,2.483-1.566l0.451,0.215
	C14.396,14.523,13.245,15.25,12,15.25z"/>
<path style="fill:#333333;" d="M12,18.75c-3.722,0-6.75-3.028-6.75-6.75c0-3.722,3.028-6.75,6.75-6.75
	c0.762,0,1.509,0.126,2.222,0.375l-0.164,0.472C13.397,5.867,12.705,5.75,12,5.75c-3.446,0-6.25,2.804-6.25,6.25
	s2.804,6.25,6.25,6.25s6.25-2.804,6.25-6.25c0-0.706-0.116-1.397-0.347-2.058l0.473-0.164c0.248,0.712,0.374,1.46,0.374,2.222
	C18.75,15.722,15.722,18.75,12,18.75z"/>
<path style="fill:#333333;" d="M12,22.25C6.348,22.25,1.75,17.652,1.75,12C1.75,6.348,6.348,1.75,12,1.75
	c1.712,0,3.408,0.431,4.904,1.247l-0.24,0.439C15.242,2.66,13.629,2.25,12,2.25c-5.376,0-9.75,4.374-9.75,9.75s4.374,9.75,9.75,9.75
	s9.75-4.374,9.75-9.75c0-1.63-0.41-3.243-1.186-4.664l0.439-0.239C21.819,8.591,22.25,10.286,22.25,12
	C22.25,17.652,17.652,22.25,12,22.25z"/>
<rect x="9.929" y="6.75" transform="matrix(0.7071 -0.7071 0.7071 0.7071 0.0294 14.0711)" style="fill:#333333;" width="14.142" height="0.5"/>
</svg>






