<?xml version="1.0" encoding="iso-8859-1"?>
<svg version="1.1" id="&#x56FE;&#x5C42;_1" xmlns="http://www.w3.org/2000/svg" xmlns:xlink="http://www.w3.org/1999/xlink" x="0px"
	 y="0px" viewBox="0 0 24 24" style="enable-background:new 0 0 24 24;" xml:space="preserve">
<path style="fill:#333333;" d="M17.502,21.75c-1.242,0-2.252-1.01-2.252-2.25v-0.25h-6.5v0.25c0,1.24-1.009,2.25-2.25,2.25
	c-1.24,0-2.25-1.01-2.25-2.25v-0.25H3.5c-0.965,0-1.75-0.785-1.75-1.75v-3.646c0-1.239,0.688-2.353,1.797-2.907l0.244-0.122
	l1.125-3.85C5.15,5.965,6.051,5.25,7.103,5.25h9.844c1.062,0,1.965,0.724,2.196,1.759l1.069,3.817l0.24,0.121
	c1.108,0.554,1.797,1.668,1.797,2.907V17.5c0,0.965-0.785,1.75-1.75,1.75h-0.748v0.25C19.752,20.74,18.742,21.75,17.502,21.75z
	 M8.25,18.75h7.5v0.75c0,0.965,0.786,1.75,1.752,1.75c0.965,0,1.75-0.785,1.75-1.75v-0.75H20.5c0.689,0,1.25-0.561,1.25-1.25v-3.646
	c0-1.049-0.582-1.991-1.52-2.46l-0.439-0.219l-1.133-4.044c-0.183-0.819-0.885-1.381-1.711-1.381H7.103
	c-0.818,0-1.519,0.556-1.704,1.353L4.21,11.176l-0.439,0.218c-0.938,0.469-1.521,1.412-1.521,2.46V17.5
	c0,0.689,0.561,1.25,1.25,1.25h1.25v0.75c0,0.965,0.785,1.75,1.75,1.75s1.75-0.785,1.75-1.75V18.75z"/>
<path style="fill:#333333;" d="M6.75,16.5C7.44,16.5,8,15.94,8,15.25S7.44,14,6.75,14S5.5,14.56,5.5,15.25S6.06,16.5,6.75,16.5z"/>
<path style="fill:#333333;" d="M17.25,16.5c0.69,0,1.25-0.56,1.25-1.25S17.94,14,17.25,14S16,14.56,16,15.25S16.56,16.5,17.25,16.5z
	"/>
<path style="fill:#333333;" d="M15.305,5.75h-6.61L9.25,2.973C9.334,2.554,9.684,2.25,10.082,2.25h3.837
	c0.403,0,0.745,0.297,0.831,0.723L15.305,5.75z M9.305,5.25h5.39L14.26,3.071c-0.038-0.188-0.179-0.321-0.341-0.321h-3.837
	c-0.16,0-0.304,0.135-0.341,0.321L9.305,5.25z"/>
<rect x="7.5" y="11.25" style="fill:#333333;" width="9" height="0.5"/>
</svg>






