<?xml version="1.0" encoding="iso-8859-1"?>
<svg version="1.1" id="&#x56FE;&#x5C42;_1" xmlns="http://www.w3.org/2000/svg" xmlns:xlink="http://www.w3.org/1999/xlink" x="0px"
	 y="0px" viewBox="0 0 24 24" style="enable-background:new 0 0 24 24;" xml:space="preserve">
<path style="fill:#333333;" d="M10,21.25c-5.619,0-9.25-4.416-9.25-11.25V9.75h18.5V10C19.25,16.834,15.619,21.25,10,21.25z
	 M1.251,10.25c0.087,6.388,3.501,10.5,8.749,10.5s8.662-4.112,8.748-10.5H1.251z"/>
<rect x="9.75" y="3" style="fill:#333333;" width="0.5" height="4"/>
<rect x="14.75" y="5" style="fill:#333333;" width="0.5" height="2"/>
<rect x="4.75" y="5" style="fill:#333333;" width="0.5" height="2"/>
<path style="fill:#333333;" d="M19.5,15.75c-0.511,0-1.006-0.066-1.473-0.198l-0.264-0.074l0.098-0.256
	c0.482-1.258,0.771-2.675,0.859-4.21l0.013-0.214l0.214-0.021c0.181-0.017,0.365-0.026,0.553-0.026c2.067,0,3.75,1.122,3.75,2.5
	C23.25,14.629,21.567,15.75,19.5,15.75z M18.426,15.137c0.345,0.075,0.705,0.113,1.074,0.113c1.792,0,3.25-0.897,3.25-2
	s-1.458-2-3.25-2c-0.099,0-0.197,0.003-0.294,0.008C19.108,12.657,18.846,13.959,18.426,15.137z"/>
</svg>






