<?xml version="1.0" encoding="iso-8859-1"?>
<svg version="1.1" id="&#x56FE;&#x5C42;_1" xmlns="http://www.w3.org/2000/svg" xmlns:xlink="http://www.w3.org/1999/xlink" x="0px"
	 y="0px" viewBox="0 0 24 24" style="enable-background:new 0 0 24 24;" xml:space="preserve">
<path style="fill:#333333;" d="M19.52,12.75H3.482l0.088-0.316C4.579,8.792,7.84,6.25,11.5,6.25c3.66,0,6.921,2.542,7.931,6.184
	L19.52,12.75z M4.146,12.25h14.708c-1.046-3.255-4.025-5.5-7.354-5.5C8.171,6.75,5.192,8.995,4.146,12.25z"/>
<path style="fill:#333333;" d="M17.42,20.75H5.581l-0.074-0.081C4.052,19.076,3.25,16.99,3.25,14.796
	c0-0.803,0.107-1.598,0.32-2.362l0.051-0.184h15.76l0.051,0.184c0.212,0.765,0.319,1.56,0.319,2.362c0,2.194-0.802,4.28-2.257,5.873
	L17.42,20.75z M5.802,20.25h11.396c1.324-1.489,2.053-3.422,2.053-5.454c0-0.693-0.085-1.381-0.253-2.046H4.003
	c-0.168,0.665-0.253,1.353-0.253,2.046C3.75,16.828,4.479,18.761,5.802,20.25z"/>
<path style="fill:#333333;" d="M13.75,6.5h-0.5v-1c0-0.965-0.785-1.75-1.75-1.75S9.75,4.535,9.75,5.5v1h-0.5v-1
	c0-1.241,1.009-2.25,2.25-2.25c1.24,0,2.25,1.009,2.25,2.25V6.5z"/>
<path style="fill:#333333;" d="M3.484,14.249c-0.046-0.003-1.152-0.09-1.714-1.4c-0.574-1.34-0.061-2.299,0.437-3.227
	C2.41,9.241,2.621,8.847,2.763,8.421c0.325-0.975-0.31-1.713-0.717-2.067C1.858,6.19,1.75,5.964,1.75,5.733V5.424
	c0-0.384,0.291-0.697,0.662-0.711C2.929,4.695,3.91,4.745,4.65,5.3c1.062,0.796,1.573,3.05,1.595,3.146L5.756,8.554
	C5.751,8.533,5.264,6.385,4.35,5.7C3.733,5.237,2.881,5.194,2.431,5.213C2.313,5.217,2.25,5.325,2.25,5.424v0.309
	c0,0.086,0.045,0.176,0.125,0.244c0.403,0.35,1.295,1.306,0.863,2.603c-0.156,0.467-0.376,0.879-0.59,1.278
	c-0.481,0.899-0.896,1.675-0.417,2.794c0.437,1.019,1.254,1.097,1.289,1.1L3.484,14.249z"/>
<rect x="4.5" y="20.25" style="fill:#333333;" width="14" height="0.5"/>
<path style="fill:#333333;" d="M19.5,12.75v-0.5c1.24,0,2.25-1.009,2.25-2.25s-1.01-2.25-2.25-2.25c-0.895,0-1.704,0.53-2.062,1.35
	l-0.459-0.2c0.438-1.002,1.428-1.65,2.521-1.65c1.517,0,2.75,1.233,2.75,2.75S21.017,12.75,19.5,12.75z"/>
</svg>






