<?xml version="1.0" encoding="iso-8859-1"?>
<svg version="1.1" id="&#x56FE;&#x5C42;_1" xmlns="http://www.w3.org/2000/svg" xmlns:xlink="http://www.w3.org/1999/xlink" x="0px"
	 y="0px" viewBox="0 0 24 24" style="enable-background:new 0 0 24 24;" xml:space="preserve">
<path style="fill:#333333;" d="M16.5,21.75c-1.215,0-2.17-2.394-3.094-4.709c-0.455-1.142-1.079-2.705-1.381-2.779
	c-0.322,0.071-1.106,1.873-1.625,3.066C9.24,19.999,8.411,21.75,7.5,21.75c-1.539,0-2.421-1.598-2.776-5.027
	c-0.174-1.683-0.472-2.71-0.964-4.412c-0.17-0.589-0.507-1.23-0.864-1.908C2.356,9.376,1.798,8.314,1.75,7.287
	C1.69,6.003,2.134,4.772,3,3.822c0.866-0.951,2.05-1.507,3.334-1.566C6.409,2.251,6.484,2.25,6.559,2.25h0.443
	c1.191,0.173,1.956,0.581,2.631,0.94C10.365,3.582,10.999,3.919,12,3.919c1.002,0,1.636-0.337,2.369-0.729
	c0.674-0.359,1.438-0.767,2.594-0.938L17.25,2.25c2.757,0,5,2.243,5,5v0.313c0,0.905-0.546,1.864-1.073,2.792
	c-0.37,0.65-0.753,1.323-0.937,1.956c-0.485,1.68-0.806,3.002-0.901,4.403C19.124,19.867,18.063,21.75,16.5,21.75z M12.031,13.763
	c0.578,0,1.028,1.061,1.84,3.094c0.739,1.854,1.753,4.394,2.629,4.394c0.98,0,2.111-1.2,2.341-4.569
	c0.098-1.446,0.424-2.798,0.919-4.509c0.2-0.69,0.598-1.389,0.982-2.064c0.519-0.911,1.008-1.771,1.008-2.544V7.25
	c0-2.481-2.019-4.5-4.5-4.5h-0.251c-1.032,0.155-1.726,0.525-2.396,0.882C13.845,4.037,13.127,4.419,12,4.419
	c-1.126,0-1.844-0.382-2.603-0.787c-0.67-0.357-1.363-0.727-2.432-0.885L6.559,2.75c-0.067,0-0.133,0.001-0.2,0.004
	C5.208,2.808,4.146,3.307,3.37,4.158C2.594,5.01,2.196,6.113,2.25,7.264C2.292,8.18,2.824,9.191,3.338,10.17
	c0.369,0.701,0.717,1.363,0.902,2.002c0.5,1.729,0.802,2.772,0.981,4.5C5.696,21.25,7.006,21.25,7.5,21.25
	c0.651,0,1.729-2.48,2.442-4.122C10.904,14.917,11.434,13.763,12.031,13.763z"/>
<rect x="11.621" y="3.225" transform="matrix(0.3069 -0.9518 0.9518 0.3069 1.0297 16.5403)" style="fill:#333333;" width="0.5" height="8.677"/>
<rect x="7.532" y="7.313" transform="matrix(0.9518 -0.3068 0.3068 0.9518 -1.748 4.0071)" style="fill:#333333;" width="8.678" height="0.5"/>
</svg>






