<?xml version="1.0" encoding="iso-8859-1"?>
<svg version="1.1" id="&#x56FE;&#x5C42;_1" xmlns="http://www.w3.org/2000/svg" xmlns:xlink="http://www.w3.org/1999/xlink" x="0px"
	 y="0px" viewBox="0 0 24 24" style="enable-background:new 0 0 24 24;" xml:space="preserve">
<path style="fill:#333333;" d="M6,21.75c-1.792,0-3.25-1.458-3.25-3.25v-13c0-1.792,1.458-3.25,3.25-3.25S9.25,3.708,9.25,5.5v13
	C9.25,20.292,7.792,21.75,6,21.75z M6,2.75c-1.517,0-2.75,1.233-2.75,2.75v13c0,1.517,1.233,2.75,2.75,2.75s2.75-1.233,2.75-2.75
	v-13C8.75,3.983,7.517,2.75,6,2.75z"/>
<path style="fill:#333333;" d="M18,21.75c-1.792,0-3.25-1.458-3.25-3.25v-13c0-1.792,1.458-3.25,3.25-3.25s3.25,1.458,3.25,3.25v13
	C21.25,20.292,19.792,21.75,18,21.75z M18,2.75c-1.517,0-2.75,1.233-2.75,2.75v13c0,1.517,1.233,2.75,2.75,2.75
	s2.75-1.233,2.75-2.75v-13C20.75,3.983,19.517,2.75,18,2.75z"/>
<path style="fill:#333333;" d="M6,21.75c-1.792,0-3.25-1.458-3.25-3.25S4.208,15.25,6,15.25s3.25,1.458,3.25,3.25
	S7.792,21.75,6,21.75z M6,15.75c-1.517,0-2.75,1.233-2.75,2.75S4.483,21.25,6,21.25s2.75-1.233,2.75-2.75S7.517,15.75,6,15.75z"/>
<path style="fill:#333333;" d="M18,21.75c-1.792,0-3.25-1.458-3.25-3.25s1.458-3.25,3.25-3.25s3.25,1.458,3.25,3.25
	S19.792,21.75,18,21.75z M18,15.75c-1.517,0-2.75,1.233-2.75,2.75s1.233,2.75,2.75,2.75s2.75-1.233,2.75-2.75S19.517,15.75,18,15.75
	z"/>
<path style="fill:#333333;" d="M15.25,10.5h-0.5c0-1.517-1.233-2.75-2.75-2.75S9.25,8.983,9.25,10.5h-0.5
	c0-1.792,1.458-3.25,3.25-3.25S15.25,8.708,15.25,10.5z"/>
<path style="fill:#333333;" d="M15.25,15.5h-0.5c0-1.517-1.233-2.75-2.75-2.75s-2.75,1.233-2.75,2.75h-0.5
	c0-1.792,1.458-3.25,3.25-3.25S15.25,13.708,15.25,15.5z"/>
</svg>






