<?xml version="1.0" encoding="iso-8859-1"?>
<svg version="1.1" id="&#x56FE;&#x5C42;_1" xmlns="http://www.w3.org/2000/svg" xmlns:xlink="http://www.w3.org/1999/xlink" x="0px"
	 y="0px" viewBox="0 0 24 24" style="enable-background:new 0 0 24 24;" xml:space="preserve">
<path style="fill:#333333;" d="M11.896,22.259c-1.829,0-3.508-0.612-4.589-1.527c-0.549,0.164-1.251,0.428-1.694,0.755
	c-0.379,0.28-0.332,0.565-0.264,0.681c0.3,0.506,5.148,0.323,6.547,0.166V22.259z M11.896,22.259c1.829,0,3.508-0.612,4.59-1.527
	c0.549,0.164,1.251,0.428,1.694,0.755c0.379,0.28,0.332,0.565,0.263,0.681c-0.3,0.506-5.148,0.323-6.547,0.166V22.259z"/>
<path style="fill-rule:evenodd;clip-rule:evenodd;fill:#333333;" d="M18.169,10.466c-0.82,0.224-3.241,0.809-6.262,0.829h-0.022
	c-3.097-0.021-5.564-0.635-6.321-0.846c-0.156-0.043-0.241-0.133-0.241-0.133C5.322,10.289,5.31,9.825,5.31,9.585
	c0-4.033,1.904-8.085,6.586-8.085c4.682,0,6.586,4.053,6.586,8.086c0,0.239-0.012,0.704-0.012,0.731
	C18.469,10.317,18.365,10.413,18.169,10.466z M19.414,12.675c0.259,0.675,0.514,1.378,0.702,1.98
	c0.893,2.874,0.604,4.063,0.383,4.09c-0.473,0.057-1.84-2.163-1.84-2.163c0,2.256-2.037,5.72-6.701,5.752h-0.124
	c-4.665-0.032-6.702-3.496-6.702-5.752c0,0-1.367,2.22-1.84,2.163c-0.22-0.027-0.51-1.216,0.383-4.089
	c0.187-0.602,0.443-1.305,0.702-1.98c0,0,0.175-0.011,0.263,0.015c0.725,0.209,1.497,0.395,2.281,0.55
	c-0.134,0.828-0.21,1.852-0.138,3.061c0.192,3.217,2.103,5.239,5.052,5.269h0.12c2.949-0.029,4.86-2.052,5.052-5.269
	c0.072-1.21-0.004-2.234-0.138-3.061c0.798-0.158,1.584-0.347,2.32-0.561C19.265,12.657,19.414,12.675,19.414,12.675z M16.87,13.24
	c-1.72,0.34-3.498,0.535-4.963,0.518h-0.022c-1.465,0.018-3.243-0.177-4.963-0.518c0.007-0.043,0.014-0.086,0.021-0.128
	c1.713,0.338,3.482,0.531,4.941,0.513h0.022l0,0c1.459,0.018,3.228-0.176,4.942-0.513C16.856,13.154,16.863,13.196,16.87,13.24z
	 M9.019,5.843c0.034,0.92,0.577,1.643,1.212,1.615c0.635-0.028,1.121-0.798,1.087-1.718c-0.034-0.92-0.577-1.643-1.211-1.615
	C9.471,4.154,8.984,4.923,9.019,5.843z M13.563,7.458c0.635,0.029,1.178-0.695,1.212-1.615c0.035-0.92-0.452-1.689-1.087-1.718
	C13.053,4.097,12.51,4.82,12.476,5.74C12.441,6.66,12.928,7.43,13.563,7.458z M11.907,7.962c2.116,0,3.825,0.419,3.995,0.795v0
	c0.008,0.017,0.012,0.035,0.012,0.053c0,0.026-0.008,0.051-0.023,0.073c-0.143,0.209-2.041,1.239-3.984,1.239h-0.023
	c-1.943,0-3.841-1.03-3.984-1.239C7.885,8.862,7.877,8.837,7.877,8.811c0-0.019,0.004-0.037,0.012-0.054
	c0.17-0.376,1.879-0.795,3.995-0.795H11.907z"/>
<path style="fill:#333333;" d="M11.011,5.857c0.029,0.363-0.17,0.686-0.445,0.721c-0.275,0.035-0.521-0.231-0.55-0.594
	c-0.029-0.364,0.17-0.687,0.444-0.722C10.736,5.227,10.982,5.494,11.011,5.857L11.011,5.857z M12.756,5.979
	c0.056-0.101,0.438-0.629,1.23-0.437c0.208,0.051,0.304,0.125,0.324,0.154c0.03,0.043,0.038,0.105,0.008,0.188
	c-0.06,0.164-0.184,0.16-0.253,0.128c-0.045-0.021-0.596-0.388-1.104,0.16c-0.035,0.038-0.097,0.05-0.157,0.006
	C12.745,6.132,12.721,6.042,12.756,5.979z"/>
<path style="fill:#333333;" d="M7.752,13.356v3.166c0,0,1.45,0.292,2.903,0.09v-2.92C9.735,13.639,8.742,13.523,7.752,13.356z"/>
<path style="fill:#333333;" d="M18.469,10.317c0,0-2.821,0.891-6.562,0.916h-0.022c-3.735-0.025-6.552-0.913-6.562-0.916
	l-0.945,2.358c2.363,0.712,5.292,1.172,7.507,1.145h0.022c2.215,0.027,5.143-0.432,7.507-1.145L18.469,10.317z"/>
</svg>






