<?xml version="1.0" encoding="iso-8859-1"?>
<svg version="1.1" id="&#x56FE;&#x5C42;_1" xmlns="http://www.w3.org/2000/svg" xmlns:xlink="http://www.w3.org/1999/xlink" x="0px"
	 y="0px" viewBox="0 0 24 24" style="enable-background:new 0 0 24 24;" xml:space="preserve">
<path style="fill:#333333;" d="M20.5,21.25h-17c-0.689,0-1.25-0.561-1.25-1.25v-8h0.5v8c0,0.413,0.336,0.75,0.75,0.75h17
	c0.413,0,0.75-0.337,0.75-0.75v-8h0.5v8C21.75,20.689,21.189,21.25,20.5,21.25z"/>
<rect x="2.5" y="15.25" style="fill:#333333;" width="19" height="0.5"/>
<path style="fill:#333333;" d="M16.25,11.5h-0.5c0-2.068-1.683-3.75-3.75-3.75c-2.068,0-3.75,1.682-3.75,3.75h-0.5
	c0-2.343,1.907-4.25,4.25-4.25C14.344,7.25,16.25,9.157,16.25,11.5z"/>
<rect x="11.75" y="3" style="fill:#333333;" width="0.5" height="1"/>
<rect x="16.854" y="5.104" transform="matrix(0.7071 -0.7071 0.7071 0.7071 1.2972 13.8388)" style="fill:#333333;" width="1" height="0.5"/>
<rect x="6.104" y="4.854" transform="matrix(0.7071 -0.7071 0.7071 0.7071 -1.9246 6.0606)" style="fill:#333333;" width="0.5" height="1"/>
</svg>






