<?xml version="1.0" encoding="iso-8859-1"?>
<svg version="1.1" id="&#x56FE;&#x5C42;_1" xmlns="http://www.w3.org/2000/svg" xmlns:xlink="http://www.w3.org/1999/xlink" x="0px"
	 y="0px" viewBox="0 0 24 24" style="enable-background:new 0 0 24 24;" xml:space="preserve">
<rect x="2.379" y="4.25" transform="matrix(0.7071 -0.7071 0.7071 0.7071 -1.864 4.5)" style="fill:#333333;" width="4.243" height="0.5"/>
<rect x="17.379" y="19.25" transform="matrix(0.7071 -0.7071 0.7071 0.7071 -8.0772 19.5)" style="fill:#333333;" width="4.243" height="0.5"/>
<rect x="1.343" y="6.75" transform="matrix(0.7071 -0.7071 0.7071 0.7071 -2.8995 7)" style="fill:#333333;" width="11.314" height="0.5"/>
<rect x="0.308" y="9.25" transform="matrix(0.7071 -0.7071 0.7071 0.7071 -3.935 9.5)" style="fill:#333333;" width="18.385" height="0.5"/>
<rect x="-0.728" y="11.75" transform="matrix(0.7071 -0.7071 0.7071 0.7071 -4.9706 12)" style="fill:#333333;" width="25.456" height="0.5"/>
<rect x="5.308" y="14.25" transform="matrix(0.7071 -0.7071 0.7071 0.7071 -6.0061 14.5)" style="fill:#333333;" width="18.385" height="0.5"/>
<rect x="11.343" y="16.75" transform="matrix(0.7071 -0.7071 0.7071 0.7071 -7.0416 17)" style="fill:#333333;" width="11.314" height="0.5"/>
</svg>






