<?xml version="1.0" encoding="iso-8859-1"?>
<svg version="1.1" id="&#x56FE;&#x5C42;_1" xmlns="http://www.w3.org/2000/svg" xmlns:xlink="http://www.w3.org/1999/xlink" x="0px"
	 y="0px" viewBox="0 0 24 24" style="enable-background:new 0 0 24 24;" xml:space="preserve">
<polygon style="fill:#333333;" points="21.25,8 20.75,8 20.75,3.25 16,3.25 16,2.75 21.25,2.75 "/>
<path style="fill:#333333;" d="M15.271,16.101l-1.027-2.351H9.757l-1.028,2.351l-0.458-0.201l1.094-2.5L9.594,13.5l-0.229-0.101
	l2.406-5.5h0.458l2.406,5.5L14.406,13.5l0.229-0.101l1.094,2.5L15.271,16.101z M9.976,13.25h4.048L12,8.624L9.976,13.25z"/>
<polygon style="fill:#333333;" points="3.25,8 2.75,8 2.75,2.75 8,2.75 8,3.25 3.25,3.25 "/>
<polygon style="fill:#333333;" points="21.25,21.25 16,21.25 16,20.75 20.75,20.75 20.75,16 21.25,16 "/>
<polygon style="fill:#333333;" points="8,21.25 2.75,21.25 2.75,16 3.25,16 3.25,20.75 8,20.75 "/>
</svg>






