<?xml version="1.0" encoding="iso-8859-1"?>
<svg version="1.1" id="&#x56FE;&#x5C42;_1" xmlns="http://www.w3.org/2000/svg" xmlns:xlink="http://www.w3.org/1999/xlink" x="0px"
	 y="0px" viewBox="0 0 24 24" style="enable-background:new 0 0 24 24;" xml:space="preserve">
<path style="fill:#333333;" d="M8,22.25v-0.5c3.645,0,3.75-3.366,3.75-3.75V6c0-0.384-0.105-3.75-3.75-3.75v-0.5
	c3.355,0,4.25,2.671,4.25,4.25v12C12.25,19.578,11.355,22.25,8,22.25z"/>
<path style="fill:#333333;" d="M16,22.25c-3.354,0-4.25-2.672-4.25-4.25V6c0-1.089,1.046-4.25,4.25-4.25v0.5
	c-2.852,0-3.75,2.923-3.75,3.75v12c0,0.384,0.105,3.75,3.75,3.75V22.25z"/>
<rect x="8.5" y="11.75" style="fill:#333333;" width="7" height="0.5"/>
</svg>






