<?xml version="1.0" encoding="iso-8859-1"?>
<svg version="1.1" id="&#x56FE;&#x5C42;_1" xmlns="http://www.w3.org/2000/svg" xmlns:xlink="http://www.w3.org/1999/xlink" x="0px"
	 y="0px" viewBox="0 0 24 24" style="enable-background:new 0 0 24 24;" xml:space="preserve">
<path style="fill:#333333;" d="M20,22.25H4c-1.241,0-2.25-1.01-2.25-2.25V4c0-1.241,1.009-2.25,2.25-2.25h16
	c1.24,0,2.25,1.009,2.25,2.25v16C22.25,21.24,21.24,22.25,20,22.25z M4,2.25C3.035,2.25,2.25,3.035,2.25,4v16
	c0,0.965,0.785,1.75,1.75,1.75h16c0.965,0,1.75-0.785,1.75-1.75V4c0-0.965-0.785-1.75-1.75-1.75H4z"/>
<rect x="5.75" y="6" style="fill:#333333;" width="0.5" height="4"/>
<rect x="13.75" y="14" style="fill:#333333;" width="0.5" height="4"/>
<rect x="9.75" y="6" style="fill:#333333;" width="0.5" height="4"/>
<rect x="14" y="5.75" style="fill:#333333;" width="4" height="0.5"/>
<rect x="6" y="13.75" style="fill:#333333;" width="4" height="0.5"/>
<rect x="14" y="9.75" style="fill:#333333;" width="4" height="0.5"/>
<rect x="6" y="17.75" style="fill:#333333;" width="4" height="0.5"/>
<rect x="17.75" y="14" style="fill:#333333;" width="0.5" height="4"/>
</svg>






