<?xml version="1.0" encoding="iso-8859-1"?>
<svg version="1.1" id="&#x56FE;&#x5C42;_1" xmlns="http://www.w3.org/2000/svg" xmlns:xlink="http://www.w3.org/1999/xlink" x="0px"
	 y="0px" viewBox="0 0 24 24" style="enable-background:new 0 0 24 24;" xml:space="preserve">
<path style="fill:#333333;" d="M12,12.25H5.25V1.75H12c2.887,0,5.234,2.355,5.234,5.25S14.887,12.25,12,12.25z M5.75,11.75H12
	c2.61,0,4.734-2.131,4.734-4.75S14.61,2.25,12,2.25H5.75V11.75z"/>
<path style="fill:#333333;" d="M14.016,22.25H5.25v-10.5h8.766c2.887,0,5.234,2.355,5.234,5.25S16.902,22.25,14.016,22.25z
	 M5.75,21.75h8.266c2.61,0,4.734-2.131,4.734-4.75s-2.124-4.75-4.734-4.75H5.75V21.75z"/>
</svg>






