<?xml version="1.0" encoding="iso-8859-1"?>
<svg version="1.1" id="&#x56FE;&#x5C42;_1" xmlns="http://www.w3.org/2000/svg" xmlns:xlink="http://www.w3.org/1999/xlink" x="0px"
	 y="0px" viewBox="0 0 24 24" style="enable-background:new 0 0 24 24;" xml:space="preserve">
<path style="fill:#333333;" d="M14.25,13.5h-0.5c0-5.783-0.851-11.25-1.75-11.25c-0.846,0-1.75,2.956-1.75,11.25h-0.5
	c0-7.797,0.757-11.75,2.25-11.75C14.188,1.75,14.25,13.383,14.25,13.5z"/>
<path style="fill:#333333;" d="M16.75,22.25h-9.5v-9h9.5V22.25z M7.75,21.75h8.5v-8h-8.5V21.75z"/>
<path style="fill:#333333;" d="M13.995,18.25H9.732l-2.647-5H16.5l0.216,0.377L13.995,18.25z M10.033,17.75h3.677l2.353-4H7.915
	L10.033,17.75z"/>
</svg>






