<?xml version="1.0" encoding="iso-8859-1"?>
<svg version="1.1" id="&#x56FE;&#x5C42;_1" xmlns="http://www.w3.org/2000/svg" xmlns:xlink="http://www.w3.org/1999/xlink" x="0px"
	 y="0px" viewBox="0 0 24 24" style="enable-background:new 0 0 24 24;" xml:space="preserve">
<path style="fill:#333333;" d="M12,18.75c-7.129,0-7.249-3.114-7.25-3.247V7.25h14.5v8.25C19.248,15.636,19.129,18.75,12,18.75z
	 M5.25,15.496C5.254,15.567,5.469,18.25,12,18.25c6.586,0,6.749-2.728,6.75-2.756V7.75H5.25V15.496z"/>
<rect x="11.75" y="2" style="fill:#333333;" width="0.5" height="3"/>
<rect x="7.75" y="2.5" style="fill:#333333;" width="0.5" height="2"/>
<rect x="15.75" y="2.5" style="fill:#333333;" width="0.5" height="2"/>
<path style="fill:#333333;" d="M16,21.75H8c-0.689,0-1.25-0.561-1.25-1.25V18h0.5v2.5c0,0.413,0.336,0.75,0.75,0.75h8
	c0.413,0,0.75-0.337,0.75-0.75V18h0.5v2.5C17.25,21.189,16.689,21.75,16,21.75z"/>
</svg>






