<?xml version="1.0" encoding="iso-8859-1"?>
<svg version="1.1" id="&#x56FE;&#x5C42;_1" xmlns="http://www.w3.org/2000/svg" xmlns:xlink="http://www.w3.org/1999/xlink" x="0px"
	 y="0px" viewBox="0 0 24 24" style="enable-background:new 0 0 24 24;" xml:space="preserve">
<path style="fill:#333333;" d="M12,22.25c-2.619,0-4.75-2.131-4.75-4.75c0-1.765,0.954-3.354,2.5-4.185V5c0-0.973,0-3.25,2.25-3.25
	S14.25,4.027,14.25,5v8.315c1.546,0.831,2.5,2.421,2.5,4.185C16.75,20.119,14.619,22.25,12,22.25z M12,2.25
	c-1.615,0-1.75,1.419-1.75,2.75v8.623l-0.139,0.068C8.655,14.415,7.75,15.875,7.75,17.5c0,2.344,1.907,4.25,4.25,4.25
	c2.344,0,4.25-1.906,4.25-4.25c0-1.625-0.905-3.084-2.361-3.809l-0.139-0.068V5C13.75,3.669,13.615,2.25,12,2.25z"/>
</svg>






