<?xml version="1.0" encoding="iso-8859-1"?>
<svg version="1.1" id="&#x56FE;&#x5C42;_1" xmlns="http://www.w3.org/2000/svg" xmlns:xlink="http://www.w3.org/1999/xlink" x="0px"
	 y="0px" viewBox="0 0 24 24" style="enable-background:new 0 0 24 24;" xml:space="preserve">
<path style="fill:#333333;" d="M12,22.25c-2.895,0-5.25-2.355-5.25-5.25c0-1.625,0.727-3.12,2-4.123V5c0-1.792,1.458-3.25,3.25-3.25
	S15.25,3.208,15.25,5v7.877c1.272,1.002,2,2.498,2,4.123C17.25,19.895,14.895,22.25,12,22.25z M12,2.25
	c-1.517,0-2.75,1.233-2.75,2.75v8.125L9.15,13.2c-1.208,0.906-1.9,2.292-1.9,3.8c0,2.619,2.131,4.75,4.75,4.75s4.75-2.131,4.75-4.75
	c0-1.509-0.692-2.894-1.9-3.8l-0.1-0.075V5C14.75,3.483,13.517,2.25,12,2.25z"/>
<rect x="11.75" y="8.5" style="fill:#333333;" width="0.5" height="6.5"/>
<path style="fill:#333333;" d="M12,19.25c-1.241,0-2.25-1.01-2.25-2.25s1.009-2.25,2.25-2.25c1.24,0,2.25,1.01,2.25,2.25
	S13.24,19.25,12,19.25z M12,15.25c-0.965,0-1.75,0.785-1.75,1.75s0.785,1.75,1.75,1.75s1.75-0.785,1.75-1.75S12.965,15.25,12,15.25z
	"/>
</svg>






