<?xml version="1.0" encoding="iso-8859-1"?>
<svg version="1.1" id="&#x56FE;&#x5C42;_1" xmlns="http://www.w3.org/2000/svg" xmlns:xlink="http://www.w3.org/1999/xlink" x="0px"
	 y="0px" viewBox="0 0 24 24" style="enable-background:new 0 0 24 24;" xml:space="preserve">
<path style="fill:#333333;" d="M16.5,12.75h-9c-0.533,0-1.856-0.053-2.632-0.538c-0.865-0.547-1.467-1.42-1.696-2.458
	C2.918,8.603,3.144,7.368,3.79,6.365l3.002-4.503l0.435,0.033c0.865,1.856,2.688,3.011,4.756,3.015c0.003,0,0.006,0,0.01,0
	c2.075,0,3.906-1.155,4.781-3.016l0.435-0.032l3,4.5c0.647,1.004,0.872,2.238,0.619,3.388c-0.229,1.04-0.83,1.915-1.693,2.462
	C18.366,12.697,17.036,12.75,16.5,12.75z M6.972,2.493L4.208,6.639C3.635,7.527,3.435,8.625,3.66,9.646
	c0.2,0.907,0.723,1.668,1.474,2.143C5.818,12.217,7.118,12.25,7.5,12.25h9c1.025,0,1.91-0.173,2.366-0.461
	c0.75-0.476,1.272-1.238,1.473-2.147c0.225-1.021,0.024-2.117-0.549-3.006l-2.763-4.144c-1.021,1.811-2.911,2.917-5.035,2.917
	c-0.003,0-0.007,0-0.011,0C9.865,5.406,7.982,4.299,6.972,2.493z"/>
<path style="fill:#333333;" d="M6.178,22.176l-0.355-0.352c1.151-1.161,1.609-2.88,1.195-4.486l-1.259-4.774l0.483-0.127l1.26,4.775
	C7.959,18.989,7.452,20.891,6.178,22.176z"/>
<path style="fill:#333333;" d="M17.822,22.176c-1.291-1.302-1.786-3.152-1.324-4.948l1.26-4.791l0.484,0.127l-1.26,4.79
	c-0.418,1.623,0.029,3.294,1.195,4.471L17.822,22.176z"/>
<rect x="11.75" y="20" style="fill:#333333;" width="0.5" height="1"/>
</svg>






