<?xml version="1.0" encoding="iso-8859-1"?>
<svg version="1.1" id="&#x56FE;&#x5C42;_1" xmlns="http://www.w3.org/2000/svg" xmlns:xlink="http://www.w3.org/1999/xlink" x="0px"
	 y="0px" viewBox="0 0 24 24" style="enable-background:new 0 0 24 24;" xml:space="preserve">
<path style="fill:#333333;" d="M7,22.792l-5.25-3.15v-6.283L7,10.208l5.25,3.15v6.283L7,22.792z M2.25,19.358L7,22.208l4.75-2.85
	v-5.717L7,10.792l-4.75,2.85V19.358z"/>
<path style="fill:#333333;" d="M17,22.792l-5.25-3.15v-6.283l5.25-3.15l5.25,3.15v6.283L17,22.792z M12.25,19.358l4.75,2.85
	l4.75-2.85v-5.717L17,10.792l-4.75,2.85V19.358z"/>
<path style="fill:#333333;" d="M12,13.792l-5.25-3.15V4.358L12,1.208l5.25,3.15v6.283L12,13.792z M7.25,10.358l4.75,2.85l4.75-2.85
	V4.642L12,1.792l-4.75,2.85V10.358z"/>
</svg>






