<?xml version="1.0" encoding="iso-8859-1"?>
<svg version="1.1" id="&#x56FE;&#x5C42;_1" xmlns="http://www.w3.org/2000/svg" xmlns:xlink="http://www.w3.org/1999/xlink" x="0px"
	 y="0px" viewBox="0 0 24 24" style="enable-background:new 0 0 24 24;" xml:space="preserve">
<path style="fill:none;" d="M8.5,3.5L12,9.562l2.995,5.188H2.005L8.5,3.5z"/>
<path style="fill:none;" d="M15.5,3.5l6.495,11.25H9.005L12,9.562L15.5,3.5z"/>
<path style="fill:none;" d="M5.505,20.75h12.99l-3.5-6h-5.99L5.505,20.75z"/>
<path style="fill:#333333;" d="M18.495,21H5.505l-0.216-0.376L8.57,15H1.572L8.5,3L12,9.062L15.5,3l6.928,12h-6.997l3.28,5.624
	L18.495,21z M5.94,20.5h12.12L14.852,15H9.148L5.94,20.5z M15.14,14.5h6.423L15.5,4l-3.211,5.562L15.14,14.5z M9.438,14.5h5.125
	L12,10.062L9.438,14.5z M2.438,14.5H8.86l2.851-4.938L8.5,4L2.438,14.5z"/>
</svg>






