<?xml version="1.0" encoding="iso-8859-1"?>
<svg version="1.1" id="&#x56FE;&#x5C42;_1" xmlns="http://www.w3.org/2000/svg" xmlns:xlink="http://www.w3.org/1999/xlink" x="0px"
	 y="0px" viewBox="0 0 24 24" style="enable-background:new 0 0 24 24;" xml:space="preserve">
<path style="fill:#333333;" d="M19.5,21.25h-15c-0.965,0-1.75-0.785-1.75-1.75v-15c0-0.965,0.785-1.75,1.75-1.75h15
	c0.965,0,1.75,0.785,1.75,1.75v15C21.25,20.465,20.465,21.25,19.5,21.25z M4.5,3.25c-0.689,0-1.25,0.561-1.25,1.25v15
	c0,0.689,0.561,1.25,1.25,1.25h15c0.689,0,1.25-0.561,1.25-1.25v-15c0-0.689-0.561-1.25-1.25-1.25H4.5z"/>
<path style="fill:#333333;" d="M12,17.25c-1.369,0-2.215-0.615-2.685-1.132l0.37-0.336c0.401,0.441,1.129,0.968,2.315,0.968
	c0.527,0,2.25-0.162,2.25-2.25c0-1.722-1.215-2.75-3.25-2.75l-0.197-0.403l3.187-4.097H9.5v-0.5h5l0.197,0.403l-3.202,4.117
	c2.021,0.167,3.254,1.373,3.254,3.23C14.75,16.529,13.269,17.25,12,17.25z"/>
</svg>






