<?xml version="1.0" encoding="iso-8859-1"?>
<svg version="1.1" id="&#x56FE;&#x5C42;_1" xmlns="http://www.w3.org/2000/svg" xmlns:xlink="http://www.w3.org/1999/xlink" x="0px"
	 y="0px" viewBox="0 0 24 24" style="enable-background:new 0 0 24 24;" xml:space="preserve">
<path style="fill:#333333;" d="M13.052,21.25H12.89c-1.627,0-2.95-1.323-2.95-2.95v-3.35H4.79c-0.608,0.016-1.171-0.25-1.567-0.705
	c-0.396-0.455-0.571-1.058-0.48-1.653l1.242-8.1C4.137,3.488,5.04,2.758,6.035,2.75h10.705l-0.021,10.252L13.052,21.25z
	 M10.189,14.45h0.25v3.85c0,1.297,1.013,2.362,2.29,2.445l3.51-7.897V3.25H6.032C5.248,3.26,4.594,3.808,4.479,4.568l-1.242,8.1
	c-0.068,0.45,0.064,0.905,0.363,1.249c0.299,0.345,0.753,0.562,1.187,0.533H10.189z"/>
<path style="fill:#333333;" d="M18.925,13.25c-0.012,0-0.024,0-0.036,0H16.24V2.75h2.652c1.183-0.016,2.187,0.846,2.346,2.017
	L21.24,11.1C21.076,12.327,20.064,13.25,18.925,13.25z M16.74,12.75h2.152c0.894,0.005,1.72-0.724,1.85-1.684L20.74,4.8
	C20.619,3.925,19.843,3.25,18.93,3.25c-0.011,0-0.021,0-0.032,0H16.74V12.75z"/>
</svg>






