<?xml version="1.0" encoding="iso-8859-1"?>
<svg version="1.1" id="&#x56FE;&#x5C42;_1" xmlns="http://www.w3.org/2000/svg" xmlns:xlink="http://www.w3.org/1999/xlink" x="0px"
	 y="0px" viewBox="0 0 24 24" style="enable-background:new 0 0 24 24;" xml:space="preserve">
<path style="fill:#333333;" d="M17.978,21.25c-0.008,0-0.015,0-0.022,0H7.25l0.021-10.251l3.666-8.249H11.1
	c1.626,0,2.95,1.323,2.95,2.95v3.35h5.15c0.008,0,0.016,0,0.022,0c0.592,0,1.154,0.256,1.545,0.705
	c0.396,0.455,0.57,1.057,0.479,1.653l-1.242,8.1C19.854,20.504,18.985,21.25,17.978,21.25z M7.75,20.75h10.208
	c0.006,0,0.012,0,0.017,0c0.765,0,1.422-0.563,1.536-1.317l1.242-8.101c0.068-0.45-0.063-0.906-0.362-1.25s-0.717-0.535-1.188-0.533
	H13.55V5.7c0-1.297-1.013-2.362-2.29-2.444l-3.51,7.898V20.75z"/>
<path style="fill:#333333;" d="M5.056,21.25c-1.159,0-2.147-0.86-2.303-2.018L2.75,12.899c0.165-1.24,1.17-2.163,2.352-2.149H7.75
	v10.5H5.097C5.083,21.25,5.07,21.25,5.056,21.25z M5.07,11.25c-0.884,0-1.696,0.749-1.822,1.683l0.002,6.267
	c0.121,0.876,0.896,1.551,1.81,1.551c0.011,0,0.022,0,0.033,0H7.25v-9.5H5.097C5.088,11.25,5.079,11.25,5.07,11.25z"/>
</svg>






