<?xml version="1.0" encoding="iso-8859-1"?>
<svg version="1.1" id="&#x56FE;&#x5C42;_1" xmlns="http://www.w3.org/2000/svg" xmlns:xlink="http://www.w3.org/1999/xlink" x="0px"
	 y="0px" viewBox="0 0 24 24" style="enable-background:new 0 0 24 24;" xml:space="preserve">
<path style="fill:#333333;" d="M10.454,21.663l-0.432-0.224l1.257-5.039l-3.104-0.444L10.08,9.75h5.037l0.208,0.388l-2.45,3.686
	l3.58,0.897L10.454,21.663z M8.825,15.544l3.073,0.44l-1.137,4.56l4.784-5.535l-3.479-0.872l2.584-3.887h-4.201L8.825,15.544z"/>
<path style="fill:#333333;" d="M19.374,16.229l-0.203-0.457c1.566-0.696,2.579-2.272,2.579-4.015c0-2.414-1.927-4.378-4.296-4.378
	c-0.682,0-1.334,0.158-1.939,0.47l-0.276,0.143L15.159,7.69c-0.771-2.909-3.379-4.94-6.341-4.94c-3.622,0-6.568,3.002-6.568,6.692
	c0,2.126,0.958,4.078,2.629,5.356l-0.304,0.396C2.78,13.822,1.75,11.725,1.75,9.442c0-3.966,3.171-7.192,7.068-7.192
	c3.089,0,5.819,2.051,6.741,5.024c0.598-0.263,1.233-0.396,1.895-0.396c2.645,0,4.796,2.188,4.796,4.878
	C22.25,13.696,21.121,15.451,19.374,16.229z"/>
</svg>






