<?xml version="1.0" encoding="iso-8859-1"?>
<svg version="1.1" id="&#x56FE;&#x5C42;_1" xmlns="http://www.w3.org/2000/svg" xmlns:xlink="http://www.w3.org/1999/xlink" x="0px"
	 y="0px" viewBox="0 0 24 24" style="enable-background:new 0 0 24 24;" xml:space="preserve">
<path style="fill:#333333;" d="M20.75,17.25h-3.5V17c0-0.998-0.968-1.75-2.25-1.75v-0.5c1.438,0,2.587,0.86,2.734,2h2.516V2.25
	h-2.519c-0.146,1.004-1.163,2-2.731,2s-2.585-0.996-2.731-2H9.75V9h-0.5V1.75h3.5V2c0,0.842,0.86,1.75,2.25,1.75
	S17.25,2.842,17.25,2V1.75h3.5V17.25z"/>
<path style="fill:#333333;" d="M15.25,22.25h-3.5V22c0-0.998-0.967-1.75-2.25-1.75S7.25,21.002,7.25,22v0.25h-3.5V6.75h3.5V7
	c0,0.842,0.86,1.75,2.25,1.75S11.75,7.842,11.75,7V6.75h3.5V22.25z M12.234,21.75h2.516V7.25h-2.519c-0.146,1.004-1.163,2-2.731,2
	s-2.585-0.996-2.731-2H4.25v14.5h2.516c0.147-1.14,1.295-2,2.734-2S12.087,20.61,12.234,21.75z"/>
<circle style="fill:#333333;" cx="7" cy="12" r="1"/>
<circle style="fill:#333333;" cx="9.5" cy="12" r="1"/>
<circle style="fill:#333333;" cx="12" cy="12" r="1"/>
</svg>






