<?xml version="1.0" encoding="iso-8859-1"?>
<svg version="1.1" id="&#x56FE;&#x5C42;_1" xmlns="http://www.w3.org/2000/svg" xmlns:xlink="http://www.w3.org/1999/xlink" x="0px"
	 y="0px" viewBox="0 0 24 24" style="enable-background:new 0 0 24 24;" xml:space="preserve">
<path style="fill:#333333;" d="M22.25,20.25H11.296l-0.041-0.2c-0.019-0.094-0.495-2.3-2.755-2.3c-2.269,0-2.736,2.205-2.755,2.299
	l-0.04,0.201H1.75V3.75h3.954l0.041,0.201C5.764,4.044,6.24,6.25,8.5,6.25c2.269,0,2.736-2.205,2.755-2.299l0.04-0.201H22.25V20.25z
	 M11.691,19.75H21.75V4.25H11.691C11.5,4.876,10.738,6.75,8.5,6.75s-3-1.874-3.191-2.5H2.25v15.5h3.059
	c0.192-0.626,0.953-2.5,3.191-2.5S11.5,19.124,11.691,19.75z"/>
<rect x="8.25" y="9.5" style="fill:#333333;" width="0.5" height="1"/>
<rect x="8.25" y="13.5" style="fill:#333333;" width="0.5" height="1"/>
<rect x="12.5" y="10.25" style="fill:#333333;" width="5.5" height="0.5"/>
<rect x="12.5" y="13.25" style="fill:#333333;" width="5.5" height="0.5"/>
</svg>






