<?xml version="1.0" encoding="iso-8859-1"?>
<svg version="1.1" id="&#x56FE;&#x5C42;_1" xmlns="http://www.w3.org/2000/svg" xmlns:xlink="http://www.w3.org/1999/xlink" x="0px"
	 y="0px" viewBox="0 0 24 24" style="enable-background:new 0 0 24 24;" xml:space="preserve">
<path style="fill:#333333;" d="M20.5,21.25h-17c-0.689,0-1.25-0.561-1.25-1.25V9c0-0.689,0.561-1.25,1.25-1.25h17
	c0.689,0,1.25,0.561,1.25,1.25v11C21.75,20.689,21.189,21.25,20.5,21.25z M3.5,8.25C3.086,8.25,2.75,8.586,2.75,9v11
	c0,0.413,0.336,0.75,0.75,0.75h17c0.413,0,0.75-0.337,0.75-0.75V9c0-0.414-0.337-0.75-0.75-0.75H3.5z"/>
<polygon style="fill:#333333;" points="4.608,8.226 4.392,7.774 16.122,2.165 18.728,7.896 18.272,8.104 15.878,2.835 "/>
<circle style="fill:#333333;" cx="6.5" cy="11.5" r="1"/>
<circle style="fill:#333333;" cx="6.5" cy="14.5" r="1"/>
<circle style="fill:#333333;" cx="6.5" cy="17.5" r="1"/>
<polygon style="fill:#333333;" points="12.61,17.75 10.5,17.75 10.5,17.25 12.39,17.25 17.815,11.331 18.185,11.669 "/>
<rect x="12" y="14.25" style="fill:#333333;" width="3" height="0.5"/>
</svg>






