<?xml version="1.0" encoding="iso-8859-1"?>
<svg version="1.1" id="&#x56FE;&#x5C42;_1" xmlns="http://www.w3.org/2000/svg" xmlns:xlink="http://www.w3.org/1999/xlink" x="0px"
	 y="0px" viewBox="0 0 24 24" style="enable-background:new 0 0 24 24;" xml:space="preserve">
<polygon style="fill:#333333;" points="4.593,8.232 4.407,7.768 17.14,2.675 19.232,7.907 18.768,8.093 16.86,3.325 "/>
<path style="fill:#333333;" d="M22.25,20.25H1.75v-3.5H2c1.325,0,2.75-0.86,2.75-2.75S3.325,11.25,2,11.25H1.75v-3.5h20.5v3.5H22
	c-1.333,0-2.75,0.876-2.75,2.5c0,1.542,1.337,3,2.75,3h0.25V20.25z M2.25,19.75h19.5v-2.512c-1.6-0.153-3-1.747-3-3.488
	c0-1.846,1.503-2.887,3-2.991V8.25H2.25v2.509c1.529,0.109,3,1.218,3,3.241s-1.471,3.132-3,3.241V19.75z"/>
<rect x="8.5" y="12.442" style="fill:#333333;" width="3" height="0.5"/>
<rect x="8.5" y="15.442" style="fill:#333333;" width="7" height="0.5"/>
</svg>






