<?xml version="1.0" encoding="iso-8859-1"?>
<svg version="1.1" id="&#x56FE;&#x5C42;_1" xmlns="http://www.w3.org/2000/svg" xmlns:xlink="http://www.w3.org/1999/xlink" x="0px"
	 y="0px" viewBox="0 0 24 24" style="enable-background:new 0 0 24 24;" xml:space="preserve">
<path style="fill:#333333;" d="M16.593,22.25h-3.77c-2.275,0-4.442-1.092-5.796-2.92l-2.132-2.879
	c-0.422-0.567-0.459-1.328-0.095-1.938c0.279-0.464,0.747-0.768,1.284-0.834c0.538-0.066,1.065,0.115,1.448,0.498l0.218,0.219V8
	c0-0.965,0.785-1.75,1.75-1.75S11.25,7.035,11.25,8v1.284c0.32-0.329,0.769-0.534,1.263-0.534c0.973,0,1.764,0.791,1.764,1.763
	v2.218c0.315-0.32,0.753-0.519,1.236-0.519c0.758,0,1.404,0.488,1.642,1.166c0.319-0.384,0.802-0.629,1.34-0.629
	c0.961,0,1.744,0.781,1.745,1.742l0.006,4.101c0.002,0.976-0.378,1.895-1.067,2.585C18.487,21.869,17.569,22.25,16.593,22.25z
	 M6.3,14.167c-0.051,0-0.104,0.003-0.155,0.009c-0.383,0.048-0.717,0.265-0.916,0.596c-0.26,0.434-0.233,0.977,0.067,1.382
	l2.132,2.88c1.261,1.701,3.278,2.717,5.395,2.717h3.77c0.843,0,1.635-0.328,2.23-0.925s0.923-1.39,0.922-2.232l-0.006-4.101
	c-0.001-0.685-0.56-1.242-1.245-1.242s-1.244,0.559-1.244,1.244V15h-0.5v-1.051c0-0.682-0.555-1.236-1.237-1.236
	c-0.682,0-1.236,0.555-1.236,1.236V14.5h-0.5v-3.987c0-0.696-0.566-1.263-1.264-1.263c-0.696,0-1.263,0.567-1.263,1.263v3.424h-0.5
	V8c0-0.689-0.561-1.25-1.25-1.25S8.25,7.311,8.25,8v7l-0.427,0.177l-0.645-0.646C6.942,14.295,6.628,14.167,6.3,14.167z"/>
<rect x="15.75" y="2" style="fill:#333333;" width="0.5" height="4"/>
<path style="fill:#333333;" d="M21.25,10.25H14v-0.5h6.75V8.236c-0.517-0.057-1.003-0.288-1.365-0.653
	c-0.413-0.417-0.628-0.966-0.622-1.585c0.015-1.347,0.993-2.122,1.987-2.233V2.25H3.25v1.514c0.994,0.112,1.973,0.887,1.987,2.233
	c0.006,0.619-0.208,1.167-0.622,1.585C4.253,7.948,3.766,8.179,3.25,8.236V9.75H8v0.5H2.75v-2.5H3c0.474,0,0.934-0.189,1.26-0.519
	c0.317-0.32,0.482-0.745,0.477-1.229C4.725,4.864,3.833,4.25,3,4.25H2.75v-2.5h18.5v2.5H21c-0.833,0-1.725,0.614-1.737,1.753
	c-0.005,0.483,0.16,0.908,0.478,1.228C20.066,7.561,20.525,7.75,21,7.75h0.25V10.25z"/>
</svg>






