<?xml version="1.0" encoding="iso-8859-1"?>
<svg version="1.1" id="&#x56FE;&#x5C42;_1" xmlns="http://www.w3.org/2000/svg" xmlns:xlink="http://www.w3.org/1999/xlink" x="0px"
	 y="0px" viewBox="0 0 24 24" style="enable-background:new 0 0 24 24;" xml:space="preserve">
<path style="fill:#333333;" d="M3.25,22h-0.5V7.5c0-0.793,0.506-2.622,2.387-4.045L4.058,2.16L4.25,1.75
	c0.881,0,2.844,0.314,4.094,1.493c1.625-0.091,4.339,0.53,5.229,1.946c0.312,0.495,0.545,1.318-0.107,2.437
	C12.945,8.407,12.033,8.75,10.5,8.75v-0.5c1.348,0,2.132-0.274,2.542-0.889c0.414-0.711,0.453-1.357,0.108-1.906
	c-0.777-1.236-3.362-1.823-4.88-1.707L8.155,3.758L8.073,3.677c-0.917-0.917-2.322-1.286-3.26-1.392l1.053,1.264L5.644,3.705
	C3.75,5.03,3.25,6.767,3.25,7.5V22z"/>
<path style="fill:#333333;" d="M17.626,21.478c-0.661,0-1.201-0.183-1.609-0.546C15.324,20.315,15.25,19.376,15.25,19
	c0-4.453-4.03-6.75-5.75-6.75v-0.5c2.121,0,6.25,2.559,6.25,7.25c0,0.309,0.059,1.077,0.599,1.559
	c0.391,0.346,0.964,0.479,1.689,0.395c1.48-0.173,2.626-1.271,3.225-3.094l0.475,0.156c-0.663,2.018-1.956,3.237-3.641,3.434
	C17.934,21.469,17.776,21.478,17.626,21.478z"/>
<path style="fill:#333333;" d="M8.75,22h-0.5c0-1.114,0.378-4.75,5.25-4.75H15v0.5h-1.5C9.213,17.75,8.75,20.722,8.75,22z"/>
</svg>






