<?xml version="1.0" encoding="iso-8859-1"?>
<svg version="1.1" id="&#x56FE;&#x5C42;_1" xmlns="http://www.w3.org/2000/svg" xmlns:xlink="http://www.w3.org/1999/xlink" x="0px"
	 y="0px" viewBox="0 0 24 24" style="enable-background:new 0 0 24 24;" xml:space="preserve">
<path style="fill:#333333;" d="M9.989,21.833c-2.427,0-4.368-0.987-5.463-2.78c-1.143-1.87-1.228-4.462-0.209-6.448
	c1.192-2.326,3.334-3.438,6.375-3.284l0.238,0.011v3.637h-0.25c-1.173,0-1.88,0.156-2.366,0.523
	c-0.902,0.682-1.037,1.589-1.037,2.069c0,0.849,0.73,2.434,2.491,2.434c0.667,0,1.258-0.241,1.708-0.697
	c0.482-0.488,0.777-1.197,0.768-1.85c-0.011-0.774-0.011-5.159,0-13.032v-0.25h4.059v0.25c0.001,0.68,0.001,1.049-0.021,1.25h0.021
	c0,1.72,2.157,2.772,2.403,2.886c0.543,0.252,1.199,0.426,1.95,0.517l0.22,0.026v3.69l-0.23,0.018
	c-0.162,0.016-0.512,0.005-1.675-0.215c-0.781-0.147-1.727-0.551-2.814-1.204v6.06C16.155,16.099,15.982,21.833,9.989,21.833z
	 M10.15,9.807c-2.581,0-4.347,0.993-5.389,3.026c-0.942,1.837-0.865,4.231,0.19,5.959c0.709,1.159,2.158,2.541,5.037,2.541
	c5.507,0,5.666-5.285,5.666-5.888V8.938l0.384-0.211c1.196,0.758,2.214,1.22,3.022,1.372c0.687,0.129,1.084,0.184,1.313,0.202V7.536
	c-0.713-0.103-1.345-0.281-1.881-0.531c-0.449-0.208-2.692-1.351-2.692-3.339l0.001-0.237c0-0.166,0-0.42-0.001-0.762h-3.059
	c-0.011,7.713-0.011,12.011,0,12.775c0.011,0.781-0.339,1.627-0.912,2.208c-0.546,0.553-1.259,0.846-2.063,0.846
	c-1.951,0-2.991-1.704-2.991-2.934c0-0.573,0.161-1.655,1.235-2.468c0.541-0.409,1.272-0.6,2.417-0.622V9.811
	C10.335,9.808,10.242,9.807,10.15,9.807z"/>
</svg>






