<?xml version="1.0" encoding="iso-8859-1"?>
<svg version="1.1" id="&#x56FE;&#x5C42;_1" xmlns="http://www.w3.org/2000/svg" xmlns:xlink="http://www.w3.org/1999/xlink" x="0px"
	 y="0px" viewBox="0 0 24 24" style="enable-background:new 0 0 24 24;" xml:space="preserve">
<g>
	<defs>
		<rect id="SVGID_1_" width="24" height="24"/>
	</defs>
	<clipPath id="SVGID_00000067916981564166708150000016190563200145946302_">
		<use xlink:href="#SVGID_1_"  style="overflow:visible;"/>
	</clipPath>
	<g style="clip-path:url(#SVGID_00000067916981564166708150000016190563200145946302_);">
		<path style="fill:#333333;" d="M8.5,8.25C7.259,8.25,6.25,7.241,6.25,6S7.259,3.75,8.5,3.75S10.75,4.759,10.75,6
			S9.741,8.25,8.5,8.25z M8.5,4.25C7.535,4.25,6.75,5.035,6.75,6S7.535,7.75,8.5,7.75S10.25,6.965,10.25,6S9.465,4.25,8.5,4.25z"/>
		<path style="fill:#333333;" d="M17.5,14.25c-1.24,0-2.25-1.01-2.25-2.25c0-1.241,1.01-2.25,2.25-2.25s2.25,1.009,2.25,2.25
			C19.75,13.24,18.74,14.25,17.5,14.25z M17.5,10.25c-0.965,0-1.75,0.785-1.75,1.75s0.785,1.75,1.75,1.75s1.75-0.785,1.75-1.75
			S18.465,10.25,17.5,10.25z"/>
		<path style="fill:#333333;" d="M8.5,20.25c-1.241,0-2.25-1.01-2.25-2.25s1.009-2.25,2.25-2.25s2.25,1.01,2.25,2.25
			S9.741,20.25,8.5,20.25z M8.5,16.25c-0.965,0-1.75,0.785-1.75,1.75s0.785,1.75,1.75,1.75s1.75-0.785,1.75-1.75
			S9.465,16.25,8.5,16.25z"/>
		<rect x="2" y="17.75" style="fill:#333333;" width="4.5" height="0.5"/>
		<rect x="10.5" y="17.75" style="fill:#333333;" width="11.5" height="0.5"/>
		<rect x="2" y="5.75" style="fill:#333333;" width="4.5" height="0.5"/>
		<rect x="10.5" y="5.75" style="fill:#333333;" width="11.5" height="0.5"/>
		<rect x="1.75" y="2" style="fill:#333333;" width="0.5" height="20"/>
		<rect x="2" y="11.75" style="fill:#333333;" width="13.5" height="0.5"/>
		<rect x="19.5" y="11.75" style="fill:#333333;" width="2.5" height="0.5"/>
	</g>
</g>
</svg>






