<?xml version="1.0" encoding="iso-8859-1"?>
<svg version="1.1" id="&#x56FE;&#x5C42;_1" xmlns="http://www.w3.org/2000/svg" xmlns:xlink="http://www.w3.org/1999/xlink" x="0px"
	 y="0px" viewBox="0 0 24 24" style="enable-background:new 0 0 24 24;" xml:space="preserve">
<path style="fill:#333333;" d="M12,5.25c-7.023,0-10.051-2.948-10.177-3.073l0.353-0.354C2.206,1.852,5.202,4.75,12,4.75
	s9.794-2.898,9.823-2.927l0.354,0.354C22.052,2.302,19.022,5.25,12,5.25z"/>
<rect x="11.75" y="5" style="fill:#333333;" width="0.5" height="3"/>
<path style="fill:#333333;" d="M15,22.25c-2.344,0-4.25-3.252-4.25-7.25c0-3.998,1.906-7.25,4.25-7.25s4.25,3.252,4.25,7.25
	C19.25,18.998,17.344,22.25,15,22.25z M15,8.25c-2.067,0-3.75,3.028-3.75,6.75c0,3.722,1.683,6.75,3.75,6.75s3.75-3.028,3.75-6.75
	C18.75,11.278,17.067,8.25,15,8.25z"/>
<path style="fill:#333333;" d="M15,18.25c-0.981,0-1.75-1.428-1.75-3.25s0.769-3.25,1.75-3.25s1.75,1.428,1.75,3.25
	S15.981,18.25,15,18.25z M15,12.25c-0.591,0-1.25,1.129-1.25,2.75s0.659,2.75,1.25,2.75s1.25-1.129,1.25-2.75S15.591,12.25,15,12.25
	z"/>
<path style="fill:#333333;" d="M9,22.25c-2.343,0-4.25-3.252-4.25-7.25c0-3.998,1.907-7.25,4.25-7.25v0.5
	c-2.068,0-3.75,3.028-3.75,6.75c0,3.722,1.682,6.75,3.75,6.75V22.25z"/>
<rect x="9" y="7.75" style="fill:#333333;" width="6" height="0.5"/>
<rect x="9" y="21.75" style="fill:#333333;" width="6" height="0.5"/>
<rect x="5" y="14.25" style="fill:#333333;" width="6" height="0.5"/>
<rect x="6" y="10.75" style="fill:#333333;" width="5.5" height="0.5"/>
<rect x="6" y="18.25" style="fill:#333333;" width="5.5" height="0.5"/>
</svg>






