<?xml version="1.0" encoding="iso-8859-1"?>
<svg version="1.1" id="&#x56FE;&#x5C42;_1" xmlns="http://www.w3.org/2000/svg" xmlns:xlink="http://www.w3.org/1999/xlink" x="0px"
	 y="0px" viewBox="0 0 24 24" style="enable-background:new 0 0 24 24;" xml:space="preserve">
<path style="fill:#333333;" d="M14.249,11.25h-4.5v-6.5h4.5V11.25z M10.25,10.75h3.5v-5.5h-3.5V10.75z"/>
<polygon style="fill:#333333;" points="18.424,22.25 5.575,22.25 8.281,17.379 8.719,17.621 6.425,21.75 17.574,21.75 
	15.281,17.621 15.719,17.379 "/>
<path style="fill:#333333;" d="M17.249,11h-0.5V2.5c0-0.138-0.112-0.25-0.25-0.25h-9c-0.138,0-0.25,0.112-0.25,0.25V11h-0.5V2.5
	c0-0.414,0.336-0.75,0.75-0.75h9c0.413,0,0.75,0.336,0.75,0.75V11z"/>
<path style="fill:#333333;" d="M12,18.25c-1.19,0-2.549-0.246-4.037-0.73c-2.546-0.83-4.478-3.179-5.167-6.283
	C2.77,11.118,2.798,10.995,2.874,10.9c0.076-0.095,0.19-0.15,0.312-0.15h17.627c0.121,0,0.234,0.054,0.311,0.148
	c0.076,0.095,0.105,0.218,0.079,0.337c-0.69,3.106-2.622,5.455-5.167,6.284C14.549,18.004,13.191,18.25,12,18.25z M3.312,11.25
	c0.673,2.869,2.463,5.03,4.806,5.795C9.556,17.513,10.862,17.75,12,17.75c1.139,0,2.444-0.237,3.882-0.705
	c2.342-0.764,4.131-2.925,4.806-5.795H3.312z"/>
</svg>






