<?xml version="1.0" encoding="iso-8859-1"?>
<svg version="1.1" id="&#x56FE;&#x5C42;_1" xmlns="http://www.w3.org/2000/svg" xmlns:xlink="http://www.w3.org/1999/xlink" x="0px"
	 y="0px" viewBox="0 0 24 24" style="enable-background:new 0 0 24 24;" xml:space="preserve">
<path style="fill:#333333;" d="M12,22.25c-5.652,0-10.25-3.813-10.25-8.5c0-3.102,1.97-5.97,5.142-7.483l0.111-0.053L8.75,7.096
	v2.565l3-0.923l2.968,0.913l-0.233-2.559l2.014-0.872l0.098,0.041c3.488,1.452,5.654,4.322,5.654,7.489
	C22.25,18.437,17.652,22.25,12,22.25z M6.998,6.771C4.066,8.214,2.25,10.878,2.25,13.75c0,4.411,4.374,8,9.75,8s9.75-3.589,9.75-8
	c0-2.932-2.008-5.601-5.249-6.986l-1.485,0.644l0.268,2.941L11.75,9.262l-3.5,1.077V7.404L6.998,6.771z"/>
<path style="fill:#333333;" d="M15.662,10.734L11.75,9.267l-3.912,1.467l-0.329-0.302l0.871-3.09L5.354,5.158l0.124-0.452
	L9.712,4.32l2.038-2.739l2.038,2.739l4.234,0.386l0.124,0.452l-3.027,2.185l0.871,3.09L15.662,10.734z M6.188,5.144l2.769,1.998
	l-0.832,2.951l3.625-1.359l3.625,1.359l-0.832-2.951l2.769-1.998l-3.791-0.346L11.75,2.419L9.979,4.797L6.188,5.144z"/>
</svg>






