<?xml version="1.0" encoding="iso-8859-1"?>
<svg version="1.1" id="&#x56FE;&#x5C42;_1" xmlns="http://www.w3.org/2000/svg" xmlns:xlink="http://www.w3.org/1999/xlink" x="0px"
	 y="0px" viewBox="0 0 24 24" style="enable-background:new 0 0 24 24;" xml:space="preserve">
<path style="fill:#333333;" d="M18.5,20.75h-13c-0.965,0-1.75-0.785-1.75-1.75v-6.5h0.5V19c0,0.689,0.561,1.25,1.25,1.25h13
	c0.689,0,1.25-0.561,1.25-1.25v-6.5h0.5V19C20.25,19.965,19.465,20.75,18.5,20.75z"/>
<path style="fill:#333333;" d="M20.5,12.75h-17c-0.689,0-1.25-0.561-1.25-1.25v-4c0-0.689,0.561-1.25,1.25-1.25h17
	c0.689,0,1.25,0.561,1.25,1.25v4C21.75,12.189,21.189,12.75,20.5,12.75z M3.5,6.75c-0.414,0-0.75,0.336-0.75,0.75v4
	c0,0.414,0.336,0.75,0.75,0.75h17c0.413,0,0.75-0.336,0.75-0.75v-4c0-0.414-0.337-0.75-0.75-0.75H3.5z"/>
<path style="fill:#333333;" d="M15.75,6.5h-0.5v-2c0-0.414-0.337-0.75-0.75-0.75h-5c-0.414,0-0.75,0.336-0.75,0.75v2h-0.5v-2
	c0-0.689,0.561-1.25,1.25-1.25h5c0.689,0,1.25,0.561,1.25,1.25V6.5z"/>
<rect x="7.25" y="11.5" style="fill:#333333;" width="0.5" height="3"/>
<rect x="16.25" y="11.5" style="fill:#333333;" width="0.5" height="3"/>
</svg>






