<?xml version="1.0" encoding="iso-8859-1"?>
<svg version="1.1" id="&#x56FE;&#x5C42;_1" xmlns="http://www.w3.org/2000/svg" xmlns:xlink="http://www.w3.org/1999/xlink" x="0px"
	 y="0px" viewBox="0 0 24 24" style="enable-background:new 0 0 24 24;" xml:space="preserve">
<path style="fill:#333333;" d="M4.5,22.354L1.646,19.5l8.743-8.743C9.971,9.905,9.75,8.956,9.75,8c0-3.446,2.804-6.25,6.25-6.25
	c1.017,0,2.027,0.25,2.923,0.724l0.299,0.159L15.354,6.5L17.5,8.646l3.868-3.868l0.158,0.299C22,5.971,22.25,6.981,22.25,8
	c0,3.446-2.804,6.25-6.25,6.25c-0.955,0-1.904-0.221-2.758-0.639L4.5,22.354z M2.354,19.5L4.5,21.646l8.648-8.648l0.163,0.087
	C14.146,13.526,15.05,13.75,16,13.75c3.171,0,5.75-2.58,5.75-5.75c0-0.822-0.177-1.639-0.515-2.381L17.5,9.354L14.646,6.5
	l3.735-3.735C17.638,2.427,16.821,2.25,16,2.25c-3.171,0-5.75,2.58-5.75,5.75c0,0.937,0.23,1.866,0.666,2.688l0.087,0.164
	L2.354,19.5z"/>
</svg>






