<?xml version="1.0" encoding="iso-8859-1"?>
<svg version="1.1" id="&#x56FE;&#x5C42;_1" xmlns="http://www.w3.org/2000/svg" xmlns:xlink="http://www.w3.org/1999/xlink" x="0px"
	 y="0px" viewBox="0 0 24 24" style="enable-background:new 0 0 24 24;" xml:space="preserve">
<path style="fill:#333333;" d="M12.718,20.569c-0.054,0-0.107-0.006-0.161-0.018l-4.543-0.966c-0.2-0.042-0.371-0.159-0.483-0.33
	c-0.112-0.172-0.15-0.377-0.107-0.577l2.03-9.595L9.401,9.329l-4.29-0.912C4.698,8.329,4.433,7.921,4.521,7.508l0.966-4.544
	c0.088-0.413,0.496-0.676,0.909-0.59l14.641,3.112c0.412,0.087,0.677,0.495,0.591,0.908l-0.967,4.544
	c-0.087,0.414-0.501,0.678-0.908,0.59l-4.253-0.904c-0.047-0.01-0.065-0.006-0.065-0.006l-0.645,3.119l-1.324,6.225
	c-0.041,0.2-0.159,0.371-0.33,0.483C13.009,20.527,12.865,20.569,12.718,20.569z M6.236,2.857c-0.123,0-0.234,0.086-0.261,0.211
	L5.01,7.612c-0.03,0.144,0.062,0.285,0.206,0.316l4.29,0.912C9.807,8.904,9.961,9.14,9.897,9.441l-1.985,9.341
	c-0.015,0.069-0.001,0.141,0.037,0.2s0.098,0.101,0.167,0.114l4.544,0.967c0.074,0.015,0.144,0.001,0.201-0.037
	c0.06-0.039,0.101-0.099,0.114-0.168l1.986-9.338c0.065-0.307,0.308-0.454,0.641-0.385l4.253,0.904
	c0.143,0.03,0.285-0.061,0.316-0.205l0.966-4.543c0.029-0.144-0.062-0.285-0.205-0.315L6.292,2.863
	C6.273,2.859,6.254,2.857,6.236,2.857z"/>
</svg>






