<?xml version="1.0" encoding="iso-8859-1"?>
<svg version="1.1" id="&#x56FE;&#x5C42;_1" xmlns="http://www.w3.org/2000/svg" xmlns:xlink="http://www.w3.org/1999/xlink" x="0px"
	 y="0px" viewBox="0 0 24 24" style="enable-background:new 0 0 24 24;" xml:space="preserve">
<path style="fill:#333333;" d="M12,22.25c-1.36,0-2.68-0.262-3.923-0.778c-0.615-0.254-1.211-0.573-1.772-0.948
	c-0.05-0.011-0.538-0.021-3.239,0.718l-0.307-0.307c0.738-2.701,0.724-3.187,0.702-3.271c-0.357-0.525-0.676-1.121-0.933-1.739
	C2.012,14.678,1.75,13.358,1.75,12C1.75,6.348,6.348,1.75,12,1.75c5.652,0,10.25,4.598,10.25,10.25
	C22.25,17.652,17.652,22.25,12,22.25z M6.276,20.033c0.195,0,0.255,0.04,0.306,0.074c0.534,0.357,1.101,0.661,1.686,0.902
	c1.183,0.491,2.438,0.74,3.732,0.74c5.376,0,9.75-4.374,9.75-9.75S17.376,2.25,12,2.25S2.25,6.624,2.25,12
	c0,1.292,0.249,2.548,0.74,3.732c0.244,0.588,0.547,1.154,0.902,1.685c0.094,0.14,0.233,0.348-0.537,3.228
	C5.185,20.155,5.936,20.033,6.276,20.033z"/>
<rect x="8.302" y="9.66" style="fill:#333333;" width="8.39" height="0.5"/>
<rect x="6" y="11.75" transform="matrix(0.172 -0.9851 0.9851 0.172 -3.3799 19.9789)" style="fill:#333333;" width="8.389" height="0.5"/>
<rect x="9.501" y="11.75" transform="matrix(0.172 -0.9851 0.9851 0.172 -0.4815 23.4272)" style="fill:#333333;" width="8.389" height="0.5"/>
<rect x="7.302" y="13.75" style="fill:#333333;" width="8.39" height="0.5"/>
</svg>






