<?xml version="1.0" encoding="iso-8859-1"?>
<svg version="1.1" id="&#x56FE;&#x5C42;_1" xmlns="http://www.w3.org/2000/svg" xmlns:xlink="http://www.w3.org/1999/xlink" x="0px"
	 y="0px" viewBox="0 0 24 24" style="enable-background:new 0 0 24 24;" xml:space="preserve">
<path style="fill:#333333;" d="M13.5,22.25h-3L10.25,22v-5l0.25-0.25h3L13.75,17v5L13.5,22.25z M10.75,21.75h2.5v-4.5h-2.5V21.75z"
	/>
<path style="fill:#333333;" d="M15.5,17.25h-7l-0.234-0.162l-1.5-4L7,12.75h10l0.234,0.338l-1.5,4L15.5,17.25z M8.673,16.75h6.654
	l1.312-3.5H7.361L8.673,16.75z"/>
<path style="fill:#333333;" d="M13.5,13.25h-4c-1.408,0-2.43-1.11-2.43-2.64c0-1.364,2.117-5.546,2.208-5.723l0.448,0.005
	c0,0.001,0.342,0.716,0.761,1.536c1.04-2.178,2.736-4.474,2.812-4.577l0.42,0.028c0.131,0.237,3.211,5.824,3.211,7.736
	C16.93,11.688,15.455,13.25,13.5,13.25z M9.497,5.567C8.805,6.979,7.57,9.689,7.57,10.61c0,1.24,0.812,2.14,1.93,2.14h4
	c1.67,0,2.93-1.348,2.93-3.135c0-1.526-2.279-5.882-2.96-7.146c-0.552,0.778-1.962,2.838-2.74,4.631l-0.451,0.016
	C9.976,6.537,9.687,5.954,9.497,5.567z"/>
</svg>






