<?xml version="1.0" encoding="iso-8859-1"?>
<svg version="1.1" id="&#x56FE;&#x5C42;_1" xmlns="http://www.w3.org/2000/svg" xmlns:xlink="http://www.w3.org/1999/xlink" x="0px"
	 y="0px" viewBox="0 0 24 24" style="enable-background:new 0 0 24 24;" xml:space="preserve">
<path style="fill:#333333;" d="M18.5,18.25h-13c-0.689,0-1.25-0.561-1.25-1.25v-5.75h15.5V17C19.75,17.689,19.189,18.25,18.5,18.25z
	 M4.75,11.75V17c0,0.413,0.336,0.75,0.75,0.75h13c0.413,0,0.75-0.337,0.75-0.75v-5.25H4.75z"/>
<path style="fill:#333333;" d="M19.75,11.75H4.25V4c0-0.689,0.561-1.25,1.25-1.25h13c0.689,0,1.25,0.561,1.25,1.25V11.75z
	 M4.75,11.25h14.5V4c0-0.414-0.337-0.75-0.75-0.75h-13C5.086,3.25,4.75,3.586,4.75,4V11.25z"/>
<path style="fill:#333333;" d="M7.5,21.25c-0.965,0-1.75-0.785-1.75-1.75v-1.75h3.5v1.75C9.25,20.465,8.465,21.25,7.5,21.25z
	 M6.25,18.25v1.25c0,0.689,0.561,1.25,1.25,1.25s1.25-0.561,1.25-1.25v-1.25H6.25z"/>
<path style="fill:#333333;" d="M16.5,21.25c-0.965,0-1.75-0.785-1.75-1.75v-1.75h3.5v1.75C18.25,20.465,17.465,21.25,16.5,21.25z
	 M15.25,18.25v1.25c0,0.689,0.561,1.25,1.25,1.25s1.25-0.561,1.25-1.25v-1.25H15.25z"/>
<rect x="2.75" y="6" style="fill:#333333;" width="0.5" height="2"/>
<rect x="20.75" y="6" style="fill:#333333;" width="0.5" height="2"/>
<circle style="fill:#333333;" cx="7.5" cy="15" r="1"/>
<circle style="fill:#333333;" cx="16.5" cy="15" r="1"/>
<rect x="9.887" y="5.25" transform="matrix(0.6691 -0.7432 0.7432 0.6691 0.2972 11.6675)" style="fill:#333333;" width="6.727" height="0.5"/>
<rect x="15.797" y="4.75" transform="matrix(0.6398 -0.7685 0.7685 0.6398 2.5508 15.4426)" style="fill:#333333;" width="3.905" height="0.501"/>
</svg>






