<?xml version="1.0" encoding="iso-8859-1"?>
<svg version="1.1" id="&#x56FE;&#x5C42;_1" xmlns="http://www.w3.org/2000/svg" xmlns:xlink="http://www.w3.org/1999/xlink" x="0px"
	 y="0px" viewBox="0 0 24 24" style="enable-background:new 0 0 24 24;" xml:space="preserve">
<path style="fill:#333333;" d="M18,13.25H2L1.75,13V9L2,8.75h16L18.25,9v4L18,13.25z M2.25,12.75h15.5v-3.5H2.25V12.75z"/>
<path style="fill:#333333;" d="M20,22.25H8c-1.241,0-2.25-1.01-2.25-2.25v-1.75H4c-1.241,0-2.25-1.01-2.25-2.25V4
	c0-1.241,1.009-2.25,2.25-2.25h16c1.24,0,2.25,1.009,2.25,2.25v16C22.25,21.24,21.24,22.25,20,22.25z M6.25,18.25V20
	c0,0.965,0.785,1.75,1.75,1.75h12c0.965,0,1.75-0.785,1.75-1.75V4c0-0.965-0.785-1.75-1.75-1.75H4C3.035,2.25,2.25,3.035,2.25,4v12
	c0,0.965,0.785,1.75,1.75,1.75h12c0.965,0,1.75-0.785,1.75-1.75V6h0.5v10c0,1.24-1.01,2.25-2.25,2.25H6.25z"/>
</svg>






