<?xml version="1.0" encoding="iso-8859-1"?>
<svg version="1.1" id="&#x56FE;&#x5C42;_1" xmlns="http://www.w3.org/2000/svg" xmlns:xlink="http://www.w3.org/1999/xlink" x="0px"
	 y="0px" viewBox="0 0 24 24" style="enable-background:new 0 0 24 24;" xml:space="preserve">
<polygon style="fill:#333333;" points="10.25,7.25 9.75,7.25 9.75,1.75 14.25,1.75 14.25,6.75 13.75,6.75 13.75,2.25 10.25,2.25 "/>
<polygon style="fill:#333333;" points="7.25,12.5 6.75,12.5 6.75,7.51 17.25,6.217 17.25,11.5 16.75,11.5 16.75,6.783 7.25,7.952 
	"/>
<polygon style="fill:#333333;" points="5.75,17.5 5.25,17.5 5.25,12.777 18.75,11.22 18.75,16 18.25,16 18.25,11.78 5.75,13.223 "/>
<path style="fill:#333333;" d="M20.25,22.25H3.75v-4.471l16.5-2.062V22.25z M4.25,21.75h15.5v-5.467l-15.5,1.938V21.75z"/>
</svg>






