<?xml version="1.0" encoding="iso-8859-1"?>
<svg version="1.1" id="&#x56FE;&#x5C42;_1" xmlns="http://www.w3.org/2000/svg" xmlns:xlink="http://www.w3.org/1999/xlink" x="0px"
	 y="0px" viewBox="0 0 24 24" style="enable-background:new 0 0 24 24;" xml:space="preserve">
<path style="fill:#333333;" d="M17.227,22.25H7.752v-2.223c-0.241-0.136-0.461-0.28-0.669-0.419
	c-0.53-0.354-1.026-0.763-1.477-1.214C3.764,16.553,2.75,14.104,2.75,11.5c0-5.376,4.374-9.75,9.75-9.75s9.75,4.374,9.75,9.75
	c0,2.604-1.014,5.052-2.855,6.895c-0.45,0.45-0.947,0.858-1.478,1.214c-0.228,0.151-0.458,0.292-0.686,0.419
	c0.007,0.555-0.003,1.911-0.003,1.975L17.227,22.25z M8.252,21.75h8.479c0.003-0.493,0.008-1.573-0.002-1.862l-0.005-0.155
	l0.138-0.073c0.257-0.137,0.519-0.294,0.778-0.467c0.502-0.336,0.974-0.724,1.401-1.151c1.747-1.748,2.709-4.071,2.709-6.541
	c0-5.101-4.149-9.25-9.25-9.25S3.25,6.399,3.25,11.5c0,2.471,0.962,4.793,2.709,6.541c0.428,0.428,0.899,0.815,1.401,1.151
	c0.234,0.156,0.486,0.321,0.759,0.467l0.132,0.07V21.75z"/>
<path style="fill:#333333;" d="M9,13.75c-1.241,0-2.25-1.01-2.25-2.25c0-1.241,1.009-2.25,2.25-2.25h0.104l2.146,2.146V11.5
	C11.25,12.74,10.241,13.75,9,13.75z M8.899,9.753C7.981,9.805,7.25,10.569,7.25,11.5c0,0.965,0.785,1.75,1.75,1.75
	c0.931,0,1.695-0.731,1.747-1.649L8.899,9.753z"/>
<path style="fill:#333333;" d="M16,13.75c-1.24,0-2.25-1.01-2.25-2.25v-0.104l2.146-2.146H16c1.24,0,2.25,1.009,2.25,2.25
	C18.25,12.74,17.24,13.75,16,13.75z M14.253,11.601c0.053,0.918,0.816,1.649,1.747,1.649c0.965,0,1.75-0.785,1.75-1.75
	c0-0.931-0.731-1.695-1.649-1.747L14.253,11.601z"/>
<polygon style="fill:#333333;" points="11.179,17.175 10.821,16.825 12.462,15.149 14.172,16.767 13.828,17.13 12.476,15.851 "/>
</svg>






