<?xml version="1.0" encoding="iso-8859-1"?>
<svg version="1.1" id="&#x56FE;&#x5C42;_1" xmlns="http://www.w3.org/2000/svg" xmlns:xlink="http://www.w3.org/1999/xlink" x="0px"
	 y="0px" viewBox="0 0 24 24" style="enable-background:new 0 0 24 24;" xml:space="preserve">
<path style="fill:#333333;" d="M12,21.25c-5.101,0-9.25-4.149-9.25-9.25S6.899,2.75,12,2.75v0.5c-4.825,0-8.75,3.925-8.75,8.75
	c0,4.825,3.925,8.75,8.75,8.75c4.825,0,8.75-3.925,8.75-8.75h0.5C21.25,17.101,17.101,21.25,12,21.25z"/>
<path style="fill:#333333;" d="M12,16.75c-2.619,0-4.75-2.131-4.75-4.75S9.381,7.25,12,7.25v0.5c-2.343,0-4.25,1.907-4.25,4.25
	c0,2.344,1.907,4.25,4.25,4.25c2.344,0,4.25-1.906,4.25-4.25h0.5C16.75,14.619,14.619,16.75,12,16.75z"/>
<rect x="11.347" y="10.174" transform="matrix(0.7071 -0.7071 0.7071 0.7071 -3.3945 12.6521)" style="fill:#333333;" width="4.457" height="0.5"/>
<path style="fill:#333333;" d="M18.416,9.1h-3.517V5.61l2.775-2.787L18.102,3v2.9H21l0.177,0.426L18.416,9.1z M15.399,8.6h2.81
	l2.189-2.2h-2.797V3.605l-2.202,2.211V8.6z"/>
</svg>






