<?xml version="1.0" encoding="iso-8859-1"?>
<svg version="1.1" id="&#x56FE;&#x5C42;_1" xmlns="http://www.w3.org/2000/svg" xmlns:xlink="http://www.w3.org/1999/xlink" x="0px"
	 y="0px" viewBox="0 0 24 24" style="enable-background:new 0 0 24 24;" xml:space="preserve">
<path style="fill:#333333;" d="M12,22.25C6.348,22.25,1.75,17.652,1.75,12C1.75,6.348,6.348,1.75,12,1.75
	c5.652,0,10.25,4.598,10.25,10.25C22.25,17.652,17.652,22.25,12,22.25z M12,2.25c-5.376,0-9.75,4.374-9.75,9.75
	s4.374,9.75,9.75,9.75s9.75-4.374,9.75-9.75S17.376,2.25,12,2.25z"/>
<rect x="6" y="9.25" style="fill:#333333;" width="4" height="0.5"/>
<rect x="7.75" y="9.5" style="fill:#333333;" width="0.5" height="5"/>
<polygon style="fill:#333333;" points="18.25,14.5 17.75,14.5 17.75,10.19 15.5,12.891 13.25,10.19 13.25,14.5 12.75,14.5 
	12.75,9.5 13.192,9.34 15.5,12.109 17.808,9.34 18.25,9.5 "/>
</svg>






