<?xml version="1.0" encoding="iso-8859-1"?>
<svg version="1.1" id="&#x56FE;&#x5C42;_1" xmlns="http://www.w3.org/2000/svg" xmlns:xlink="http://www.w3.org/1999/xlink" x="0px"
	 y="0px" viewBox="0 0 24 24" style="enable-background:new 0 0 24 24;" xml:space="preserve">
<path style="fill:#333333;" d="M15.22,21.75H8.809L8.78,21.533c-0.243-1.834-0.594-2.112-0.696-2.154
	C4.236,17.803,1.75,14.121,1.75,10V9.75h20.5V10c0,4.174-2.646,7.982-6.582,9.476c-0.063,0.024-0.386,0.236-0.44,2.032L15.22,21.75z
	 M9.246,21.25h5.492c0.063-1.374,0.299-2.068,0.753-2.241c3.665-1.392,6.153-4.89,6.257-8.759H2.253
	c0.098,3.816,2.438,7.199,6.02,8.666C8.736,19.105,9.039,19.829,9.246,21.25z"/>
<path style="fill:#333333;" d="M8.854,16.233c-0.44-0.336-0.816-0.705-1.118-1.099c-0.312-0.409-0.566-0.931-0.754-1.551
	l0.479-0.145c0.17,0.562,0.396,1.03,0.673,1.391c0.274,0.358,0.618,0.696,1.023,1.005L8.854,16.233z"/>
<path style="fill:#333333;" d="M12.832,10.122l-0.449-0.218c1.876-3.875,2.98-6.159,3.31-6.853c0.545-1.149,1.707-1.58,2.896-1.074
	c0.522,0.223,0.939,0.667,1.144,1.219c0.199,0.536,0.181,1.111-0.05,1.58c-0.255,0.517-1.12,2.295-2.595,5.334l-0.449-0.218
	c1.475-3.041,2.34-4.82,2.595-5.337c0.171-0.346,0.182-0.778,0.03-1.185c-0.159-0.43-0.469-0.761-0.872-0.933
	c-0.931-0.399-1.817-0.076-2.248,0.828C15.814,3.96,14.71,6.245,12.832,10.122z"/>
</svg>






