<?xml version="1.0" encoding="iso-8859-1"?>
<svg version="1.1" id="&#x56FE;&#x5C42;_1" xmlns="http://www.w3.org/2000/svg" xmlns:xlink="http://www.w3.org/1999/xlink" x="0px"
	 y="0px" viewBox="0 0 24 24" style="enable-background:new 0 0 24 24;" xml:space="preserve">
<path style="fill:#333333;" d="M18.5,19.25h-13c-0.689,0-1.25-0.561-1.25-1.25V4.419c0-0.584,0.296-1.096,0.773-1.335
	C6.017,2.586,8.245,1.75,12,1.75c3.755,0,5.982,0.836,6.977,1.334c0.477,0.239,0.773,0.751,0.773,1.335V18
	C19.75,18.689,19.189,19.25,18.5,19.25z M12,2.25c-3.652,0-5.798,0.803-6.752,1.281C4.936,3.688,4.75,4.02,4.75,4.419V18
	c0,0.413,0.336,0.75,0.75,0.75h13c0.413,0,0.75-0.337,0.75-0.75V4.419c0-0.4-0.187-0.732-0.498-0.888
	C17.798,3.053,15.652,2.25,12,2.25z"/>
<rect x="16.75" y="19" style="fill:#333333;" width="0.5" height="2"/>
<rect x="6.75" y="19" style="fill:#333333;" width="0.5" height="2"/>
<g>
	<path style="fill:#333333;" d="M10.25,16c0,0.414-0.336,0.75-0.75,0.75S8.75,16.414,8.75,16s0.336-0.75,0.75-0.75
		S10.25,15.586,10.25,16z"/>
	<path style="fill:#333333;" d="M9.5,17c-0.551,0-1-0.448-1-1s0.449-1,1-1s1,0.448,1,1S10.051,17,9.5,17z M9.5,15.5
		C9.224,15.5,9,15.725,9,16s0.224,0.5,0.5,0.5S10,16.275,10,16S9.776,15.5,9.5,15.5z"/>
</g>
<g>
	<path style="fill:#333333;" d="M15.25,16c0,0.414-0.336,0.75-0.75,0.75s-0.75-0.336-0.75-0.75s0.336-0.75,0.75-0.75
		S15.25,15.586,15.25,16z"/>
	<path style="fill:#333333;" d="M14.5,17c-0.552,0-1-0.448-1-1s0.448-1,1-1s1,0.448,1,1S15.052,17,14.5,17z M14.5,15.5
		c-0.275,0-0.5,0.225-0.5,0.5s0.225,0.5,0.5,0.5S15,16.275,15,16S14.775,15.5,14.5,15.5z"/>
</g>
<rect x="10" y="21.75" style="fill:#333333;" width="4" height="0.5"/>
<path style="fill:#333333;" d="M19.75,13.25H4.25v-7.5h15.5V13.25z M4.75,12.75h14.5v-6.5H4.75V12.75z"/>
<rect x="11.75" y="6" style="fill:#333333;" width="0.5" height="7"/>
<rect x="10" y="5.75" style="fill:#333333;" width="4" height="0.5"/>
<rect x="10" y="12.75" style="fill:#333333;" width="4" height="0.5"/>
</svg>






