<?xml version="1.0" encoding="iso-8859-1"?>
<svg version="1.1" id="&#x56FE;&#x5C42;_1" xmlns="http://www.w3.org/2000/svg" xmlns:xlink="http://www.w3.org/1999/xlink" x="0px"
	 y="0px" viewBox="0 0 24 24" style="enable-background:new 0 0 24 24;" xml:space="preserve">
<path style="fill:#333333;" d="M15.271,16.101l-1.027-2.351H9.757l-1.028,2.351l-0.458-0.201l1.094-2.5L9.594,13.5l-0.229-0.101
	l2.406-5.5h0.458l2.406,5.5L14.406,13.5l0.229-0.101l1.094,2.5L15.271,16.101z M9.976,13.25h4.048L12,8.624L9.976,13.25z"/>
<path style="fill:#333333;" d="M1.669,10.374L1.755,9.95C2.72,5.199,6.944,1.75,11.8,1.75c4.856,0,9.081,3.449,10.045,8.2l-0.49,0.1
	c-0.917-4.52-4.935-7.8-9.555-7.8c-4.472,0-8.381,3.075-9.458,7.373l2.579-0.86l0.158,0.475L1.669,10.374z"/>
<path style="fill:#333333;" d="M11.8,22.25c-4.855,0-9.08-3.448-10.045-8.2l0.49-0.1c0.917,4.52,4.936,7.8,9.555,7.8
	c4.465,0,8.367-3.063,9.452-7.349l-2.162,0.832l-0.18-0.467l2.6-1l0.335,0.283C20.881,18.802,16.656,22.25,11.8,22.25z"/>
</svg>






