<?xml version="1.0" encoding="iso-8859-1"?>
<svg version="1.1" id="&#x56FE;&#x5C42;_1" xmlns="http://www.w3.org/2000/svg" xmlns:xlink="http://www.w3.org/1999/xlink" x="0px"
	 y="0px" viewBox="0 0 24 24" style="enable-background:new 0 0 24 24;" xml:space="preserve">
<path style="fill:#333333;" d="M21,17.25H10c-0.689,0-1.25-0.561-1.25-1.25V5c0-0.689,0.561-1.25,1.25-1.25h11
	c0.689,0,1.25,0.561,1.25,1.25v11C22.25,16.689,21.689,17.25,21,17.25z M10,4.25C9.586,4.25,9.25,4.586,9.25,5v11
	c0,0.413,0.336,0.75,0.75,0.75h11c0.413,0,0.75-0.337,0.75-0.75V5c0-0.414-0.337-0.75-0.75-0.75H10z"/>
<path style="fill:#333333;" d="M9.25,17.25h-7.5v-4.129L5.402,9.75H9.25V17.25z M2.25,16.75h6.5v-6.5H5.598L2.25,13.34V16.75z"/>
<path style="fill:#333333;" d="M7,20.25c-1.241,0-2.25-1.01-2.25-2.25h0.5c0,0.965,0.785,1.75,1.75,1.75S8.75,18.965,8.75,18h0.5
	C9.25,19.24,8.241,20.25,7,20.25z"/>
<path style="fill:#333333;" d="M18,20.25c-1.24,0-2.25-1.01-2.25-2.25h0.5c0,0.965,0.785,1.75,1.75,1.75s1.75-0.785,1.75-1.75h0.5
	C20.25,19.24,19.24,20.25,18,20.25z"/>
</svg>






