<?xml version="1.0" encoding="iso-8859-1"?>
<svg version="1.1" id="&#x56FE;&#x5C42;_1" xmlns="http://www.w3.org/2000/svg" xmlns:xlink="http://www.w3.org/1999/xlink" x="0px"
	 y="0px" viewBox="0 0 24 24" style="enable-background:new 0 0 24 24;" xml:space="preserve">
<path style="fill:#333333;" d="M18.5,22.25h-13c-0.689,0-1.25-0.561-1.25-1.25V5c0-0.689,0.561-1.25,1.25-1.25h13
	c0.689,0,1.25,0.561,1.25,1.25v16C19.75,21.689,19.189,22.25,18.5,22.25z M5.5,4.25C5.086,4.25,4.75,4.586,4.75,5v16
	c0,0.413,0.336,0.75,0.75,0.75h13c0.413,0,0.75-0.337,0.75-0.75V5c0-0.414-0.337-0.75-0.75-0.75H5.5z"/>
<rect x="8.75" y="2" style="fill:#333333;" width="0.5" height="3"/>
<rect x="14.75" y="2" style="fill:#333333;" width="0.5" height="3"/>
<rect x="8" y="9.25" style="fill:#333333;" width="8" height="0.5"/>
<rect x="8" y="13.25" style="fill:#333333;" width="6" height="0.5"/>
<rect x="8" y="17.25" style="fill:#333333;" width="4" height="0.5"/>
</svg>






