<?xml version="1.0" encoding="iso-8859-1"?>
<svg version="1.1" id="&#x56FE;&#x5C42;_1" xmlns="http://www.w3.org/2000/svg" xmlns:xlink="http://www.w3.org/1999/xlink" x="0px"
	 y="0px" viewBox="0 0 24 24" style="enable-background:new 0 0 24 24;" xml:space="preserve">
<path style="fill:#333333;" d="M20.5,15.25h-11c-0.965,0-1.75-0.785-1.75-1.75v-6c0-0.965,0.785-1.75,1.75-1.75h11
	c0.965,0,1.75,0.785,1.75,1.75v6C22.25,14.465,21.465,15.25,20.5,15.25z M9.5,6.25c-0.689,0-1.25,0.561-1.25,1.25v6
	c0,0.689,0.561,1.25,1.25,1.25h11c0.689,0,1.25-0.561,1.25-1.25v-6c0-0.689-0.561-1.25-1.25-1.25H9.5z"/>
<rect x="11.75" y="9" style="fill:#333333;" width="0.5" height="3"/>
<rect x="17.75" y="9" style="fill:#333333;" width="0.5" height="3"/>
<polygon style="fill:#333333;" points="18.25,6 17.75,6 17.75,3.25 12.25,3.25 12.25,6 11.75,6 11.75,2.75 18.25,2.75 "/>
<path style="fill:#333333;" d="M22,18.25H6c-0.689,0-1.25-0.561-1.25-1.25V5.5c0-0.414-0.336-0.75-0.75-0.75H2v-0.5h2
	c0.689,0,1.25,0.561,1.25,1.25V17c0,0.413,0.336,0.75,0.75,0.75h16V18.25z"/>
<path style="fill:#333333;" d="M9.5,21.25c-0.965,0-1.75-0.785-1.75-1.75v-1.75h3.5v1.75C11.25,20.465,10.465,21.25,9.5,21.25z
	 M8.25,18.25v1.25c0,0.689,0.561,1.25,1.25,1.25s1.25-0.561,1.25-1.25v-1.25H8.25z"/>
<path style="fill:#333333;" d="M18.5,21.25c-0.965,0-1.75-0.785-1.75-1.75v-1.75h3.5v1.75C20.25,20.465,19.465,21.25,18.5,21.25z
	 M17.25,18.25v1.25c0,0.689,0.561,1.25,1.25,1.25s1.25-0.561,1.25-1.25v-1.25H17.25z"/>
</svg>






