<?xml version="1.0" encoding="iso-8859-1"?>
<svg version="1.1" id="&#x56FE;&#x5C42;_1" xmlns="http://www.w3.org/2000/svg" xmlns:xlink="http://www.w3.org/1999/xlink" x="0px"
	 y="0px" viewBox="0 0 24 24" style="enable-background:new 0 0 24 24;" xml:space="preserve">
<path style="fill:#333333;" d="M20.772,21.104l-1.075-2.354h-5.395l-1.075,2.354l-0.455-0.207l1.142-2.499l2.857-6.498h0.457
	l2.857,6.498l1.142,2.499L20.772,21.104z M14.525,18.25h4.949L17,12.621L14.525,18.25z"/>
<rect x="8" y="2.959" transform="matrix(0.9487 -0.3162 0.3162 0.9487 -0.7625 2.8013)" style="fill:#333333;" width="0.5" height="1.581"/>
<rect x="3" y="5.25" style="fill:#333333;" width="11" height="0.5"/>
<path style="fill:#333333;" d="M13.91,16.233c-0.149-0.058-3.692-1.425-5.932-3.167C5.703,11.298,4.797,8.2,4.76,8.069l0.48-0.138
	c0.009,0.031,0.901,3.074,3.045,4.741c2.181,1.695,5.769,3.081,5.805,3.095L13.91,16.233z"/>
<path style="fill:#333333;" d="M3.112,16.224l-0.225-0.447c0.036-0.018,3.622-1.834,5.802-4.06c2.16-2.203,3.058-6.229,3.066-6.27
	l0.488,0.106c-0.037,0.17-0.936,4.206-3.197,6.513C6.807,14.353,3.262,16.148,3.112,16.224z"/>
</svg>






