<?xml version="1.0" encoding="iso-8859-1"?>
<svg version="1.1" id="&#x56FE;&#x5C42;_1" xmlns="http://www.w3.org/2000/svg" xmlns:xlink="http://www.w3.org/1999/xlink" x="0px"
	 y="0px" viewBox="0 0 24 24" style="enable-background:new 0 0 24 24;" xml:space="preserve">
<g>
	<defs>
		<rect id="SVGID_1_" width="24" height="24"/>
	</defs>
	<clipPath id="SVGID_00000091735988862981819740000003659349410850921114_">
		<use xlink:href="#SVGID_1_"  style="overflow:visible;"/>
	</clipPath>
	<g style="clip-path:url(#SVGID_00000091735988862981819740000003659349410850921114_);">
		<path style="fill:#333333;" d="M11.674,21.963c-0.334,0-0.648-0.13-0.884-0.366l-8.485-8.485
			c-0.236-0.235-0.366-0.549-0.366-0.883c0-0.334,0.13-0.648,0.366-0.884l9.192-9.192c0.487-0.487,1.281-0.487,1.768,0l8.485,8.485
			c0.236,0.236,0.366,0.55,0.366,0.884c0,0.333-0.13,0.648-0.366,0.883l-9.192,9.192C12.321,21.833,12.008,21.963,11.674,21.963z
			 M12.381,2.286c-0.192,0-0.384,0.073-0.53,0.219l-9.192,9.192c-0.142,0.142-0.22,0.33-0.22,0.531c0,0.2,0.078,0.388,0.22,0.529
			l8.485,8.485c0.283,0.282,0.777,0.283,1.061,0l9.192-9.192c0.142-0.142,0.22-0.33,0.22-0.53c0-0.201-0.078-0.389-0.22-0.53
			l-8.485-8.485C12.765,2.359,12.573,2.286,12.381,2.286z"/>
		<polygon style="fill:#333333;" points="19.275,8.516 18.922,8.162 20.866,6.217 17.685,3.036 15.739,4.98 15.386,4.626 
			17.685,2.329 21.573,6.217 		"/>
		<rect x="9" y="10.25" style="fill:#333333;" width="6" height="0.5"/>
		<rect x="9" y="13.25" style="fill:#333333;" width="2" height="0.5"/>
		<rect x="14" y="13.25" style="fill:#333333;" width="1" height="0.5"/>
	</g>
</g>
</svg>






