<?xml version="1.0" encoding="iso-8859-1"?>
<svg version="1.1" id="&#x56FE;&#x5C42;_1" xmlns="http://www.w3.org/2000/svg" xmlns:xlink="http://www.w3.org/1999/xlink" x="0px"
	 y="0px" viewBox="0 0 24 24" style="enable-background:new 0 0 24 24;" xml:space="preserve">
<path style="fill:#333333;" d="M19.875,22.25H4.655c-1.602,0-2.905-1.304-2.905-2.905v-2.71c0-0.359,0.154-0.701,0.423-0.939
	s0.63-0.351,0.982-0.304l17.01,2.125c1.188,0.151,2.084,1.165,2.084,2.358C22.25,21.185,21.185,22.25,19.875,22.25z M3.001,15.882
	c-0.182,0-0.359,0.066-0.497,0.188c-0.162,0.143-0.254,0.349-0.254,0.564v2.71c0,1.326,1.079,2.405,2.405,2.405h15.22
	c1.034,0,1.875-0.841,1.875-1.875c0-0.942-0.708-1.743-1.646-1.862L3.094,15.888C3.063,15.884,3.032,15.882,3.001,15.882z"/>
<polygon style="fill:#333333;" points="7.77,16.099 1.77,2.099 2,1.75 5.215,1.75 5.215,2.25 2.379,2.25 8.23,15.901 "/>
<rect x="2" y="13.25" transform="matrix(0.6006 -0.7995 0.7995 0.6006 -8.9965 8.9895)" style="fill:#333333;" width="5" height="0.5"/>
<rect x="4.5" y="7.25" style="fill:#333333;" width="8" height="0.5"/>
</svg>






