<?xml version="1.0" encoding="iso-8859-1"?>
<svg version="1.1" id="&#x56FE;&#x5C42;_1" xmlns="http://www.w3.org/2000/svg" xmlns:xlink="http://www.w3.org/1999/xlink" x="0px"
	 y="0px" viewBox="0 0 24 24" style="enable-background:new 0 0 24 24;" xml:space="preserve">
<rect x="3.75" y="19.5" style="fill:#333333;" width="0.5" height="2.5"/>
<rect x="19.75" y="19.5" style="fill:#333333;" width="0.5" height="2.5"/>
<polygon style="fill:#333333;" points="18.234,15.588 17.766,15.412 20.721,7.532 18.792,4.639 19.208,4.361 21.279,7.468 "/>
<rect x="15.464" y="4.25" transform="matrix(0.7071 -0.7071 0.7071 0.7071 2.383 14.753)" style="fill:#333333;" width="7.071" height="0.5"/>
<path style="fill:#333333;" d="M20,19.75H4c-1.241,0-2.25-1.01-2.25-2.25S2.759,15.25,4,15.25h16c1.24,0,2.25,1.01,2.25,2.25
	S21.24,19.75,20,19.75z M4,15.75c-0.965,0-1.75,0.785-1.75,1.75S3.035,19.25,4,19.25h16c0.965,0,1.75-0.785,1.75-1.75
	s-0.785-1.75-1.75-1.75H4z"/>
</svg>






