<?xml version="1.0" encoding="iso-8859-1"?>
<svg version="1.1" id="&#x56FE;&#x5C42;_1" xmlns="http://www.w3.org/2000/svg" xmlns:xlink="http://www.w3.org/1999/xlink" x="0px"
	 y="0px" viewBox="0 0 24 24" style="enable-background:new 0 0 24 24;" xml:space="preserve">
<path style="fill:#333333;" d="M15,7.25c-1.517,0-2.75-1.233-2.75-2.75S13.483,1.75,15,1.75s2.75,1.233,2.75,2.75
	S16.517,7.25,15,7.25z M15,2.25c-1.24,0-2.25,1.009-2.25,2.25S13.76,6.75,15,6.75s2.25-1.009,2.25-2.25S16.24,2.25,15,2.25z"/>
<polygon style="fill:#333333;" points="15.26,19.068 14.28,15.641 10.837,12.689 10.776,12.389 12.152,9.637 8.548,8.285 
	5.66,10.692 5.34,10.308 8.34,7.808 8.588,7.766 12.588,9.266 12.724,9.612 11.311,12.438 14.663,15.311 14.74,15.432 15.74,18.932 
	"/>
<polygon style="fill:#333333;" points="8.469,16.748 4.469,16.248 4.531,15.752 8.373,16.232 10.788,12.367 11.212,12.633 
	8.712,16.633 "/>
<polygon style="fill:#333333;" points="20,22.25 3,22.25 3,21.75 19.838,21.75 21.771,17.398 22.229,17.602 20.229,22.102 "/>
<polygon style="fill:#333333;" points="16.579,12.237 16.367,12.212 12.367,9.712 12.633,9.288 16.532,11.726 19.421,10.763 
	19.579,11.237 "/>
</svg>






