<?xml version="1.0" encoding="iso-8859-1"?>
<svg version="1.1" id="&#x56FE;&#x5C42;_1" xmlns="http://www.w3.org/2000/svg" xmlns:xlink="http://www.w3.org/1999/xlink" x="0px"
	 y="0px" viewBox="0 0 24 24" style="enable-background:new 0 0 24 24;" xml:space="preserve">
<path style="fill:#333333;" d="M12,18.25c-4.273,0-7.75-3.701-7.75-8.25S7.727,1.75,12,1.75s7.75,3.701,7.75,8.25
	S16.273,18.25,12,18.25z M12,2.25c-3.998,0-7.25,3.477-7.25,7.75s3.252,7.75,7.25,7.75c3.998,0,7.25-3.477,7.25-7.75
	S15.998,2.25,12,2.25z"/>
<rect x="11.75" y="7" style="fill:#333333;" width="0.5" height="11"/>
<path style="fill:#333333;" d="M12,18.25c-1.081,0-2.125-0.232-3.106-0.689l0.212-0.453c1.826,0.854,3.96,0.854,5.789,0l0.211,0.453
	C14.125,18.018,13.08,18.25,12,18.25z"/>
<rect x="11.75" y="18" style="fill:#333333;" width="0.5" height="4"/>
<rect x="11.379" y="9.25" transform="matrix(0.7071 -0.7071 0.7071 0.7071 -2.7635 12.3284)" style="fill:#333333;" width="4.243" height="0.5"/>
<rect x="10.25" y="10.879" transform="matrix(0.7071 -0.7071 0.7071 0.7071 -6.117 11.2322)" style="fill:#333333;" width="0.5" height="4.243"/>
</svg>






