<?xml version="1.0" encoding="iso-8859-1"?>
<svg version="1.1" id="&#x56FE;&#x5C42;_1" xmlns="http://www.w3.org/2000/svg" xmlns:xlink="http://www.w3.org/1999/xlink" x="0px"
	 y="0px" viewBox="0 0 24 24" style="enable-background:new 0 0 24 24;" xml:space="preserve">
<path style="fill:#333333;" d="M8.951,19.245C8.739,19.203,3.75,18.169,3.75,15c0-2.109,1.545-3.164,1.611-3.208l0.278,0.416
	C5.583,12.246,4.25,13.165,4.25,15c0,2.76,4.751,3.745,4.799,3.755L8.951,19.245z"/>
<path style="fill:#333333;" d="M15.049,19.245l-0.098-0.49c0.048-0.01,4.799-0.995,4.799-3.755c0-1.835-1.332-2.754-1.39-2.792
	l0.278-0.416c0.065,0.044,1.611,1.099,1.611,3.208C20.25,18.169,15.262,19.203,15.049,19.245z"/>
<rect x="11.75" y="8" style="fill:#333333;" width="0.5" height="14"/>
<path style="fill:#333333;" d="M14.64,6.896l-0.406-0.292C14.571,6.134,14.75,5.58,14.75,5c0-1.517-1.233-2.75-2.75-2.75
	S9.25,3.483,9.25,5c0,0.58,0.178,1.135,0.516,1.604L9.36,6.896C8.961,6.341,8.75,5.686,8.75,5c0-1.792,1.458-3.25,3.25-3.25
	S15.25,3.208,15.25,5C15.25,5.685,15.039,6.341,14.64,6.896z"/>
<path style="fill:#333333;" d="M5.84,12.692C5.775,12.638,4.25,11.346,4.25,9.5c0-1.867,2.031-3.158,2.118-3.212l0.265,0.424
	C6.614,6.724,4.75,7.912,4.75,9.5c0,1.608,1.396,2.796,1.41,2.809L5.84,12.692z"/>
<path style="fill:#333333;" d="M18.16,12.692l-0.32-0.384c0.014-0.013,1.41-1.201,1.41-2.809c0-1.588-1.864-2.776-1.883-2.788
	l0.266-0.424C17.719,6.342,19.75,7.633,19.75,9.5C19.75,11.346,18.225,12.638,18.16,12.692z"/>
</svg>






