<?xml version="1.0" encoding="iso-8859-1"?>
<svg version="1.1" id="&#x56FE;&#x5C42;_1" xmlns="http://www.w3.org/2000/svg" xmlns:xlink="http://www.w3.org/1999/xlink" x="0px"
	 y="0px" viewBox="0 0 24 24" style="enable-background:new 0 0 24 24;" xml:space="preserve">
<path style="fill:#333333;" d="M5,14.25c-1.241,0-2.25-1.01-2.25-2.25c0-1.241,1.009-2.25,2.25-2.25S7.25,10.759,7.25,12
	C7.25,13.24,6.241,14.25,5,14.25z M5,10.25c-0.965,0-1.75,0.785-1.75,1.75S4.035,13.75,5,13.75S6.75,12.965,6.75,12
	S5.965,10.25,5,10.25z"/>
<path style="fill:#333333;" d="M19,7.25c-1.24,0-2.25-1.009-2.25-2.25S17.76,2.75,19,2.75S21.25,3.759,21.25,5S20.24,7.25,19,7.25z
	 M19,3.25c-0.965,0-1.75,0.785-1.75,1.75S18.035,6.75,19,6.75S20.75,5.965,20.75,5S19.965,3.25,19,3.25z"/>
<path style="fill:#333333;" d="M19,14.25c-1.24,0-2.25-1.01-2.25-2.25c0-1.241,1.01-2.25,2.25-2.25s2.25,1.009,2.25,2.25
	C21.25,13.24,20.24,14.25,19,14.25z M19,10.25c-0.965,0-1.75,0.785-1.75,1.75s0.785,1.75,1.75,1.75s1.75-0.785,1.75-1.75
	S19.965,10.25,19,10.25z"/>
<path style="fill:#333333;" d="M19,21.25c-1.24,0-2.25-1.01-2.25-2.25s1.01-2.25,2.25-2.25s2.25,1.01,2.25,2.25
	S20.24,21.25,19,21.25z M19,17.25c-0.965,0-1.75,0.785-1.75,1.75s0.785,1.75,1.75,1.75s1.75-0.785,1.75-1.75S19.965,17.25,19,17.25z
	"/>
<polygon style="fill:#333333;" points="17,19.25 10.75,19.25 10.75,4.75 17,4.75 17,5.25 11.25,5.25 11.25,18.75 17,18.75 "/>
<rect x="7" y="11.75" style="fill:#333333;" width="10" height="0.5"/>
</svg>






