<?xml version="1.0" encoding="iso-8859-1"?>
<svg version="1.1" id="&#x56FE;&#x5C42;_1" xmlns="http://www.w3.org/2000/svg" xmlns:xlink="http://www.w3.org/1999/xlink" x="0px"
	 y="0px" viewBox="0 0 24 24" style="enable-background:new 0 0 24 24;" xml:space="preserve">
<path style="fill:#333333;" d="M17.5,16.25h-11c-2.619,0-4.75-2.131-4.75-4.75c0-2.551,2.022-4.639,4.548-4.746
	C6.666,3.886,9.079,1.75,12,1.75s5.334,2.136,5.702,5.005c2.537,0.117,4.548,2.2,4.548,4.745C22.25,14.119,20.119,16.25,17.5,16.25z
	 M6.5,7.25c-2.343,0-4.25,1.907-4.25,4.25c0,2.344,1.907,4.25,4.25,4.25h11c2.344,0,4.25-1.906,4.25-4.25
	c0-2.343-1.906-4.25-4.25-4.25h-0.229l-0.043-0.228C16.983,4.302,14.735,2.25,12,2.25c-2.736,0-4.983,2.052-5.229,4.772L6.751,7.25
	H6.5z"/>
<rect x="11.482" y="12.5" transform="matrix(0.7071 -0.7071 0.7071 0.7071 -5.1348 13.1036)" style="fill:#333333;" width="3.536" height="0.5"/>
<rect x="10.25" y="8.879" transform="matrix(0.7071 -0.7071 0.7071 0.7071 -4.7028 10.6464)" style="fill:#333333;" width="0.5" height="4.243"/>
<rect x="11.75" y="9" style="fill:#333333;" width="0.5" height="13"/>
</svg>






