<?xml version="1.0" encoding="iso-8859-1"?>
<svg version="1.1" id="&#x56FE;&#x5C42;_1" xmlns="http://www.w3.org/2000/svg" xmlns:xlink="http://www.w3.org/1999/xlink" x="0px"
	 y="0px" viewBox="0 0 24 24" style="enable-background:new 0 0 24 24;" xml:space="preserve">
<rect x="2" y="21.75" style="fill:#333333;" width="20" height="0.5"/>
<path style="fill:#333333;" d="M6.25,19.25h-4.5v-6.57l4.5,1.125V19.25z M2.25,18.75h3.5v-4.555l-3.5-0.875V18.75z"/>
<path style="fill:#333333;" d="M14.25,19.25h-4.5v-7.404l4.5-2.25V19.25z M10.25,18.75h3.5v-8.346l-3.5,1.75V18.75z"/>
<path style="fill:#333333;" d="M22.25,19.25h-4.5V7.846l4.5-2.25V19.25z M18.25,18.75h3.5V6.404l-3.5,1.75V18.75z"/>
<polygon style="fill:#333333;" points="6.029,10.265 1.939,9.243 2.061,8.757 5.971,9.735 20.941,2.25 17,2.25 17,1.75 22,1.75 
	22.111,2.224 "/>
</svg>






