<?xml version="1.0" encoding="iso-8859-1"?>
<svg version="1.1" id="&#x56FE;&#x5C42;_1" xmlns="http://www.w3.org/2000/svg" xmlns:xlink="http://www.w3.org/1999/xlink" x="0px"
	 y="0px" viewBox="0 0 24 24" style="enable-background:new 0 0 24 24;" xml:space="preserve">
<path style="fill:#333333;" d="M21.266,21.25H2.734c-0.452,0-0.857-0.234-1.083-0.626c-0.226-0.392-0.225-0.859,0.001-1.25
	L10.918,3.37c0.226-0.391,0.63-0.624,1.082-0.624s0.855,0.233,1.082,0.624l9.266,16.004c0.227,0.392,0.227,0.859,0.001,1.251
	C22.122,21.017,21.718,21.25,21.266,21.25z M12,3.246c-0.271,0-0.513,0.14-0.649,0.374v0L2.085,19.624
	c-0.136,0.235-0.136,0.516-0.001,0.751c0.136,0.234,0.378,0.375,0.65,0.375h18.531c0.271,0,0.514-0.141,0.649-0.375
	c0.136-0.235,0.136-0.516-0.001-0.751L12.648,3.62C12.514,3.386,12.271,3.246,12,3.246z"/>
</svg>






