<?xml version="1.0" encoding="iso-8859-1"?>
<svg version="1.1" id="&#x56FE;&#x5C42;_1" xmlns="http://www.w3.org/2000/svg" xmlns:xlink="http://www.w3.org/1999/xlink" x="0px"
	 y="0px" viewBox="0 0 24 24" style="enable-background:new 0 0 24 24;" xml:space="preserve">
<path style="fill:#333333;" d="M6,19.75c-1.241,0-2.25-1.01-2.25-2.25S4.759,15.25,6,15.25s2.25,1.01,2.25,2.25S7.241,19.75,6,19.75
	z M6,15.75c-0.965,0-1.75,0.785-1.75,1.75S5.035,19.25,6,19.25s1.75-0.785,1.75-1.75S6.965,15.75,6,15.75z"/>
<path style="fill:#333333;" d="M17.5,19.75c-1.24,0-2.25-1.01-2.25-2.25s1.01-2.25,2.25-2.25s2.25,1.01,2.25,2.25
	S18.74,19.75,17.5,19.75z M17.5,15.75c-0.965,0-1.75,0.785-1.75,1.75s0.785,1.75,1.75,1.75s1.75-0.785,1.75-1.75
	S18.465,15.75,17.5,15.75z"/>
<polygon style="fill:#333333;" points="15.75,17.75 8,17.75 8,17.25 15.25,17.25 15.25,5.75 1.25,5.75 1.25,17.25 4,17.25 4,17.75 
	0.75,17.75 0.75,5.25 15.75,5.25 "/>
<polygon style="fill:#333333;" points="23.25,17.75 19.905,17.75 19.905,17.25 22.75,17.25 22.75,13.334 19.662,9.25 15.75,9.25 
	15.75,17.5 15.25,17.5 15.25,8.75 19.91,8.75 23.25,13.166 "/>
</svg>






