<?xml version="1.0" encoding="iso-8859-1"?>
<svg version="1.1" id="&#x56FE;&#x5C42;_1" xmlns="http://www.w3.org/2000/svg" xmlns:xlink="http://www.w3.org/1999/xlink" x="0px"
	 y="0px" viewBox="0 0 24 24" style="enable-background:new 0 0 24 24;" xml:space="preserve">
<path style="fill:#333333;" d="M17.5,21.25c-0.965,0-1.75-0.785-1.75-1.75v-5.75h3.5v5.75C19.25,20.465,18.465,21.25,17.5,21.25z
	 M16.25,14.25v5.25c0,0.689,0.561,1.25,1.25,1.25s1.25-0.561,1.25-1.25v-5.25H16.25z"/>
<path style="fill:#333333;" d="M19.5,14.25H14v-0.5h5.5c0.689,0,1.25-0.561,1.25-1.25v-5c0-0.689-0.561-1.25-1.25-1.25h-5v-0.5h5
	c0.965,0,1.75,0.785,1.75,1.75v5C21.25,13.465,20.465,14.25,19.5,14.25z"/>
<path style="fill:#333333;" d="M7,13.25H6c-1.792,0-3.25-1.458-3.25-3.25S4.208,6.75,6,6.75h1v0.5H6c-1.517,0-2.75,1.233-2.75,2.75
	S4.483,12.75,6,12.75h1V13.25z"/>
<path style="fill:#333333;" d="M8.75,16.75H7.099c-0.192,0-0.349-0.157-0.349-0.35V3.099c0-0.192,0.157-0.349,0.349-0.349H8.75
	c3.859,0,7,3.14,7,7C15.75,13.609,12.609,16.75,8.75,16.75z M7.25,16.25h1.5c3.584,0,6.5-2.916,6.5-6.5s-2.916-6.5-6.5-6.5h-1.5
	V16.25z"/>
</svg>






