<?xml version="1.0" encoding="iso-8859-1"?>
<svg version="1.1" id="&#x56FE;&#x5C42;_1" xmlns="http://www.w3.org/2000/svg" xmlns:xlink="http://www.w3.org/1999/xlink" x="0px"
	 y="0px" viewBox="0 0 24 24" style="enable-background:new 0 0 24 24;" xml:space="preserve">
<path style="fill:#333333;" d="M16,20.25H8c-1.241,0-2.25-1.01-2.25-2.25V8c0-1.241,1.009-2.25,2.25-2.25h8
	c1.24,0,2.25,1.009,2.25,2.25v10C18.25,19.24,17.24,20.25,16,20.25z M8,6.25C7.035,6.25,6.25,7.035,6.25,8v10
	c0,0.965,0.785,1.75,1.75,1.75h8c0.965,0,1.75-0.785,1.75-1.75V8c0-0.965-0.785-1.75-1.75-1.75H8z"/>
<rect x="9.75" y="3" style="fill:#333333;" width="0.5" height="3"/>
<rect x="13.75" y="3" style="fill:#333333;" width="0.5" height="3"/>
<rect x="8" y="1.75" style="fill:#333333;" width="8" height="0.5"/>
<rect x="8.75" y="20" style="fill:#333333;" width="0.5" height="2"/>
<rect x="14.75" y="20" style="fill:#333333;" width="0.5" height="2"/>
<rect x="10" y="12.25" style="fill:#333333;" width="4" height="0.5"/>
</svg>






