<?xml version="1.0" encoding="iso-8859-1"?>
<svg version="1.1" id="&#x56FE;&#x5C42;_1" xmlns="http://www.w3.org/2000/svg" xmlns:xlink="http://www.w3.org/1999/xlink" x="0px"
	 y="0px" viewBox="0 0 24 24" style="enable-background:new 0 0 24 24;" xml:space="preserve">
<path style="fill:#333333;" d="M20.25,11.5h-0.5V6c0-1.792-1.458-3.25-3.25-3.25S13.25,4.208,13.25,6v0.5h-0.5V6
	c0-2.068,1.683-3.75,3.75-3.75S20.25,3.932,20.25,6V11.5z"/>
<path style="fill:#333333;" d="M16,18.75H8c-2.343,0-4.25-1.906-4.25-4.25v-3.25h16.5v3.25C20.25,16.844,18.344,18.75,16,18.75z
	 M4.25,11.75v2.75c0,2.067,1.682,3.75,3.75,3.75h8c2.067,0,3.75-1.683,3.75-3.75v-2.75H4.25z"/>
<rect x="2.5" y="11.25" style="fill:#333333;" width="19" height="0.5"/>
<rect x="5.697" y="19.75" transform="matrix(0.5547 -0.8321 0.8321 0.5547 -13.3013 15.1464)" style="fill:#333333;" width="3.606" height="0.5"/>
<rect x="16.25" y="18.197" transform="matrix(0.8321 -0.5547 0.5547 0.8321 -8.3228 12.5115)" style="fill:#333333;" width="0.5" height="3.606"/>
</svg>






