<?xml version="1.0" encoding="iso-8859-1"?>
<svg version="1.1" id="&#x56FE;&#x5C42;_1" xmlns="http://www.w3.org/2000/svg" xmlns:xlink="http://www.w3.org/1999/xlink" x="0px"
	 y="0px" viewBox="0 0 24 24" style="enable-background:new 0 0 24 24;" xml:space="preserve">
<path style="fill:#333333;" d="M21.75,19.75H2.25V4.25h9.5v3.5h-6v8.5h12.5v-2.5h3.5V19.75z M2.75,19.25h18.5v-5h-2.5v2.5H5.25v-9.5
	h6v-2.5h-8.5V19.25z"/>
<path style="fill:#333333;" d="M21.75,11.25H21.5c-4.269,0-7.25-2.776-7.25-6.75V4.25h3.5V4.5c0,2.187,1.227,3.25,3.75,3.25h0.25
	V11.25z M14.754,4.75c0.116,3.523,2.687,5.897,6.496,5.997v-2.5c-3.135-0.09-3.924-1.886-3.994-3.497H14.754z"/>
</svg>






