<?xml version="1.0" encoding="iso-8859-1"?>
<svg version="1.1" id="&#x56FE;&#x5C42;_1" xmlns="http://www.w3.org/2000/svg" xmlns:xlink="http://www.w3.org/1999/xlink" x="0px"
	 y="0px" viewBox="0 0 24 24" style="enable-background:new 0 0 24 24;" xml:space="preserve">
<path style="fill:#333333;" d="M19.639,22.25H4.361l-2.573-4.117L2,17.75h20l0.212,0.383L19.639,22.25z M4.639,21.75h14.723
	l2.188-3.5H2.451L4.639,21.75z"/>
<path style="fill:#333333;" d="M18.75,18.25H5.25V15c0-2.194,0.67-3.898,1.992-5.064c2.187-1.93,5.417-1.765,6.145-1.699
	c1.146-1.46,2.475-1.796,3.752-0.945c0.586,0.391,0.933,0.908,1.03,1.539c0.124,0.797-0.176,1.745-0.824,2.63
	c0.436,0.406,1.405,1.585,1.405,4.039V18.25z M5.75,17.75h12.5V15.5c0-2.811-1.376-3.783-1.39-3.793l-0.223-0.152l0.167-0.211
	c0.664-0.831,0.981-1.718,0.87-2.436c-0.075-0.486-0.35-0.89-0.813-1.2C15.51,6.807,14.396,7.722,13.7,8.65l-0.087,0.116
	l-0.145-0.018c-0.035-0.005-3.646-0.426-5.898,1.564C6.362,11.38,5.75,12.957,5.75,15V17.75z"/>
<path style="fill:#333333;" d="M9.25,14.5h-0.5c0-0.034,0.006-0.835,0.542-1.639c0.531-0.796,1.073-1.074,1.096-1.085l0.224,0.447
	L10.5,12l0.113,0.223c-0.004,0.003-0.454,0.239-0.905,0.916C9.255,13.817,9.25,14.493,9.25,14.5z"/>
<rect x="16.297" y="5.75" transform="matrix(0.6398 -0.7685 0.7685 0.6398 1.9624 16.1871)" style="fill:#333333;" width="3.905" height="0.501"/>
<circle style="fill:#333333;" cx="19.178" cy="3.741" r="1.25"/>
<circle style="fill:#333333;" cx="20.405" cy="4.603" r="1.25"/>
</svg>






