<?xml version="1.0" encoding="iso-8859-1"?>
<svg version="1.1" id="&#x56FE;&#x5C42;_1" xmlns="http://www.w3.org/2000/svg" xmlns:xlink="http://www.w3.org/1999/xlink" x="0px"
	 y="0px" viewBox="0 0 24 24" style="enable-background:new 0 0 24 24;" xml:space="preserve">
<path style="fill:#333333;" d="M12,7.25c-1.517,0-2.75-1.233-2.75-2.75S10.483,1.75,12,1.75s2.75,1.233,2.75,2.75
	S13.517,7.25,12,7.25z M12,2.25c-1.241,0-2.25,1.009-2.25,2.25S10.759,6.75,12,6.75c1.24,0,2.25-1.009,2.25-2.25S13.24,2.25,12,2.25
	z"/>
<path style="fill:#333333;" d="M18.25,14.75H5.75V14.5c0-0.472,0-0.708,0.02-0.916c0.199-2.011,1.802-3.615,3.813-3.814
	c0.208-0.02,0.445-0.02,0.917-0.02h3c0.472,0,0.708,0,0.916,0.02c2.012,0.199,3.616,1.803,3.813,3.814
	c0.021,0.207,0.021,0.444,0.021,0.916V14.75z M6.25,14.25h11.5c-0.001-0.296-0.004-0.471-0.019-0.617
	c-0.174-1.774-1.589-3.19-3.364-3.365c-0.183-0.018-0.412-0.018-0.867-0.018h-3c-0.456,0-0.684,0-0.868,0.018
	c-1.774,0.175-3.189,1.59-3.364,3.365C6.253,13.779,6.25,13.954,6.25,14.25z"/>
<path style="fill:#333333;" d="M12,19.75c-5.748,0-10.25-1.867-10.25-4.25c0-0.837,0.558-1.639,1.615-2.318l0.271,0.42
	C3.003,14.009,2.25,14.669,2.25,15.5c0,2.032,4.465,3.75,9.75,3.75s9.75-1.718,9.75-3.75c0-0.832-0.753-1.491-1.386-1.898
	l0.271-0.42c1.056,0.68,1.614,1.481,1.614,2.318C22.25,17.883,17.748,19.75,12,19.75z"/>
<polygon style="fill:#333333;" points="9.677,22.177 9.323,21.823 11.646,19.5 9.323,17.177 9.677,16.823 12.354,19.5 "/>
</svg>






