<?xml version="1.0" encoding="iso-8859-1"?>
<svg version="1.1" id="&#x56FE;&#x5C42;_1" xmlns="http://www.w3.org/2000/svg" xmlns:xlink="http://www.w3.org/1999/xlink" x="0px"
	 y="0px" viewBox="0 0 24 24" style="enable-background:new 0 0 24 24;" xml:space="preserve">
<path style="fill:#333333;" d="M13.351,22.337c-0.915,0-1.864-0.201-2.938-0.603l0,0c-2.447-0.915-4.466-4.021-5.451-5.791
	c-0.476-0.854-0.247-1.935,0.544-2.568c0.862-0.69,2.103-0.621,2.883,0.16l0.361,0.361V8.75c0-0.827,0.673-1.5,1.5-1.5
	s1.5,0.673,1.5,1.5v1.883c0.266-0.238,0.616-0.383,1-0.383c0.789,0,1.438,0.612,1.496,1.387c0.266-0.24,0.618-0.387,1.004-0.387
	c0.789,0,1.438,0.612,1.496,1.387c0.266-0.24,0.618-0.387,1.004-0.387c0.827,0,1.5,0.673,1.5,1.5v3.934
	c0,0.626-0.168,1.195-0.486,1.646c-0.58,0.822-1.513,1.906-2.665,2.399C15.153,22.135,14.269,22.337,13.351,22.337z M6.858,13.4
	c-0.366,0-0.734,0.12-1.04,0.365c-0.6,0.48-0.776,1.294-0.42,1.934c0.952,1.71,2.893,4.707,5.189,5.566l0,0
	c2.045,0.766,3.535,0.767,5.314,0.005c1.1-0.472,2.01-1.599,2.454-2.229c0.258-0.365,0.395-0.835,0.395-1.357V13.75
	c0-0.552-0.448-1-1-1s-1,0.448-1,1h-0.5v-1c0-0.552-0.448-1-1-1s-1,0.448-1,1h-0.5v-1c0-0.551-0.448-1-1-1s-1,0.449-1,1h-0.5v-3
	c0-0.551-0.449-1-1-1s-1,0.449-1,1v5.75l-0.427,0.177l-0.788-0.788C7.711,13.564,7.286,13.4,6.858,13.4z"/>
<rect x="6.5" y="4.189" transform="matrix(0.7071 -0.7071 0.7071 0.7071 -1.7353 6.3107)" style="fill:#333333;" width="0.5" height="2.121"/>
<rect x="9.5" y="1.979" transform="matrix(0.9864 -0.1644 0.1644 0.9864 -0.4427 1.6505)" style="fill:#333333;" width="0.5" height="3.041"/>
<rect x="12.099" y="4.5" transform="matrix(0.5547 -0.8321 0.8321 0.5547 1.8367 12.9318)" style="fill:#333333;" width="1.803" height="0.5"/>
</svg>






