<?xml version="1.0" encoding="iso-8859-1"?>
<svg version="1.1" id="&#x56FE;&#x5C42;_1" xmlns="http://www.w3.org/2000/svg" xmlns:xlink="http://www.w3.org/1999/xlink" x="0px"
	 y="0px" viewBox="0 0 24 24" style="enable-background:new 0 0 24 24;" xml:space="preserve">
<path style="fill:#333333;" d="M21,21.25H3c-0.689,0-1.25-0.561-1.25-1.25V7c0-0.689,0.561-1.25,1.25-1.25h18
	c0.689,0,1.25,0.561,1.25,1.25v13C22.25,20.689,21.689,21.25,21,21.25z M3,6.25C2.586,6.25,2.25,6.586,2.25,7v13
	c0,0.413,0.336,0.75,0.75,0.75h18c0.413,0,0.75-0.337,0.75-0.75V7c0-0.414-0.337-0.75-0.75-0.75H3z"/>
<path style="fill:#333333;" d="M15.75,17.75H5.25v-8.5h10.5V17.75z M5.75,17.25h9.5v-7.5h-9.5V17.25z"/>
<polygon style="fill:#333333;" points="11.554,6.331 6.841,2.443 7.159,2.057 11.537,5.669 16.831,0.816 17.169,1.184 "/>
<rect x="18.75" y="9" style="fill:#333333;" width="0.5" height="0.5"/>
<rect x="18.75" y="12.5" style="fill:#333333;" width="0.5" height="0.5"/>
</svg>






