<?xml version="1.0" encoding="iso-8859-1"?>
<svg version="1.1" id="&#x56FE;&#x5C42;_1" xmlns="http://www.w3.org/2000/svg" xmlns:xlink="http://www.w3.org/1999/xlink" x="0px"
	 y="0px" viewBox="0 0 24 24" style="enable-background:new 0 0 24 24;" xml:space="preserve">
<path style="fill:#333333;" d="M11.042,20.762c-3.251,0-6.536-1.479-8.586-2.619L2.379,18.1l0.168-0.464
	c1.448,0.271,3.322-0.165,5.564-1.314c-2.258-1.146-3.72-2.552-4.347-4.182c-0.986-2.563-0.521-4.88-0.008-6.851L4.21,5.221
	c1.301,2.121,3.996,5.392,7.531,3.733c-0.243-3.381,0.927-5.447,3.223-5.677c1.648-0.169,2.96,0.46,3.91,1.859
	c0.812,0.208,1.614-0.069,2.456-0.848l0.42,0.184c0,1.977-0.569,2.789-1.026,3.44C20.585,8.11,20.453,8.298,20.351,8.5l0.001,0.307
	c0.013,2.503,0.039,7.712-4.809,10.742C14.143,20.424,12.597,20.762,11.042,20.762z M3.657,18.211
	c2.762,1.378,7.854,3.268,11.62,0.914c4.611-2.882,4.588-7.717,4.574-10.315l-0.001-0.423l0.024-0.051
	c0.124-0.26,0.277-0.479,0.439-0.71c0.392-0.559,0.83-1.184,0.919-2.606c-0.856,0.638-1.728,0.83-2.587,0.572l-0.088-0.026
	l-0.05-0.076c-0.855-1.304-1.995-1.86-3.494-1.715c-2.874,0.289-2.889,3.809-2.762,5.309l0.015,0.168l-0.15,0.076
	c-3.783,1.911-6.691-1.374-8.019-3.354C3.672,7.742,3.387,9.77,4.23,11.96c0.62,1.61,2.147,2.999,4.539,4.126l0.013,0.446
	C6.82,17.595,5.104,18.156,3.657,18.211z"/>
</svg>






