<?xml version="1.0" encoding="iso-8859-1"?>
<svg version="1.1" id="&#x56FE;&#x5C42;_1" xmlns="http://www.w3.org/2000/svg" xmlns:xlink="http://www.w3.org/1999/xlink" x="0px"
	 y="0px" viewBox="0 0 24 24" style="enable-background:new 0 0 24 24;" xml:space="preserve">
<path style="fill:#333333;" d="M13.372,22.25h-0.447c-2.699,0-5.193-1.348-6.672-3.605L5.155,16.97
	c-0.847-1.293-0.596-3.021,0.583-4.019l1.144-0.968C6.958,11.92,7,11.828,7,11.73V3.625C7,2.591,7.841,1.75,8.875,1.75
	c0.605,0,1.145,0.288,1.488,0.735c0.262-0.72,0.953-1.235,1.762-1.235C13.159,1.25,14,2.091,14,3.125v4.477
	C14.343,7.232,14.832,7,15.375,7c1.034,0,1.875,0.841,1.875,1.875v0.727C17.593,9.232,18.082,9,18.625,9
	c1.034,0,1.875,0.841,1.875,1.875v5.109c0,0.879-0.263,1.727-0.759,2.452l-0.486,0.711C17.926,21.09,15.727,22.25,13.372,22.25z
	 M8.875,2.25C8.117,2.25,7.5,2.867,7.5,3.625v8.105c0,0.245-0.107,0.476-0.294,0.634l-1.144,0.968
	c-0.987,0.836-1.197,2.281-0.489,3.364l1.098,1.675c1.386,2.115,3.724,3.379,6.254,3.379h0.447c2.189,0,4.234-1.079,5.471-2.886
	l0.486-0.711C19.768,17.512,20,16.762,20,15.984v-5.109c0-0.758-0.617-1.375-1.375-1.375s-1.375,0.617-1.375,1.375h-0.5v-2
	c0-0.758-0.617-1.375-1.375-1.375S14,8.117,14,8.875h-0.5v-5.75c0-0.758-0.617-1.375-1.375-1.375c-0.758,0-1.375,0.617-1.375,1.375
	v0.5h-0.5C10.25,2.867,9.633,2.25,8.875,2.25z"/>
</svg>






