<?xml version="1.0" encoding="iso-8859-1"?>
<svg version="1.1" id="&#x56FE;&#x5C42;_1" xmlns="http://www.w3.org/2000/svg" xmlns:xlink="http://www.w3.org/1999/xlink" x="0px"
	 y="0px" viewBox="0 0 24 24" style="enable-background:new 0 0 24 24;" xml:space="preserve">
<path style="fill:#333333;" d="M15.471,22.25h-5.74c-2.47,0-4.981-3.688-4.981-5.75c0-1.435,0.468-2.482,1.392-3.115l0.282,0.412
	C5.634,14.339,5.25,15.223,5.25,16.5c0,2.025,2.447,5.25,4.481,5.25h5.74c2.111,0,3.279-1.903,3.279-3.22v-6.525
	c0-0.689-0.561-1.25-1.25-1.25c-0.691,0-1.25,0.559-1.25,1.245h-0.5c0-0.962,0.783-1.745,1.745-1.745c0.97,0,1.755,0.785,1.755,1.75
	v6.525C19.25,20.326,17.731,22.25,15.471,22.25z"/>
<path style="fill:#333333;" d="M7.241,14.723h-0.5v-9.22c0-0.964,0.784-1.749,1.749-1.749l0.062,0.001
	c0.939,0.033,1.695,0.809,1.695,1.756v6.785h-0.5V5.511c0-0.691-0.562-1.255-1.254-1.257H8.458c-0.674,0.017-1.217,0.57-1.217,1.249
	V14.723z"/>
<path style="fill:#333333;" d="M13.262,12.004h-0.5V3.508c0-0.693-0.564-1.258-1.258-1.258s-1.257,0.564-1.257,1.258v8.496h-0.5
	V3.508c0-0.969,0.789-1.758,1.757-1.758c0.97,0,1.758,0.789,1.758,1.758V12.004z"/>
<path style="fill:#333333;" d="M16.25,12.002h-0.5v-1.5c0-0.689-0.561-1.25-1.25-1.25s-1.25,0.561-1.25,1.25v1.356h-0.5v-1.356
	c0-0.965,0.785-1.75,1.75-1.75s1.75,0.785,1.75,1.75V12.002z"/>
</svg>






