<?xml version="1.0" encoding="iso-8859-1"?>
<svg version="1.1" id="&#x56FE;&#x5C42;_1" xmlns="http://www.w3.org/2000/svg" xmlns:xlink="http://www.w3.org/1999/xlink" x="0px"
	 y="0px" viewBox="0 0 24 24" style="enable-background:new 0 0 24 24;" xml:space="preserve">
<path style="fill:#333333;" d="M5.587,21.214c-0.88,0-1.591-0.249-2.089-0.748C2.511,19.479,2.5,17.662,3.467,15.35
	c0.938-2.242,2.688-4.711,4.93-6.953s4.71-3.993,6.953-4.93c2.316-0.966,4.13-0.954,5.116,0.031l0,0l0,0
	c0.987,0.987,0.998,2.804,0.031,5.116c-0.938,2.242-2.688,4.711-4.93,6.954c-2.242,2.241-4.711,3.992-6.954,4.93
	C7.47,20.976,6.448,21.214,5.587,21.214z M18.372,3.254c-0.793,0-1.756,0.225-2.829,0.674C13.359,4.841,10.947,6.554,8.75,8.75
	s-3.909,4.609-4.822,6.792c-0.871,2.082-0.899,3.748-0.077,4.569s2.487,0.793,4.57-0.076c2.184-0.913,4.596-2.626,6.793-4.822
	c2.196-2.197,3.909-4.609,4.822-6.793c0.87-2.083,0.898-3.748,0.076-4.57l0,0C19.714,3.453,19.118,3.254,18.372,3.254z"/>
<path style="fill:#333333;" d="M18.445,21.214c-0.86,0-1.883-0.238-3.027-0.717c-2.242-0.938-4.711-2.688-6.953-4.93
	c-4.757-4.758-6.91-10.06-4.899-12.07c2.011-2.01,7.312,0.142,12.07,4.899c2.241,2.242,3.992,4.71,4.93,6.953
	c0.967,2.312,0.956,4.13-0.031,5.116C20.035,20.965,19.325,21.214,18.445,21.214z M5.638,3.254c-0.723,0-1.313,0.191-1.719,0.597
	c-1.751,1.751,0.492,6.955,4.899,11.363c2.197,2.196,4.609,3.909,6.792,4.822c2.083,0.869,3.748,0.898,4.569,0.076
	c0.822-0.821,0.794-2.487-0.076-4.569c-0.913-2.184-2.626-4.596-4.822-6.792C11.895,5.364,8.038,3.254,5.638,3.254z"/>
</svg>






