<?xml version="1.0" encoding="iso-8859-1"?>
<svg version="1.1" id="&#x56FE;&#x5C42;_1" xmlns="http://www.w3.org/2000/svg" xmlns:xlink="http://www.w3.org/1999/xlink" x="0px"
	 y="0px" viewBox="0 0 24 24" style="enable-background:new 0 0 24 24;" xml:space="preserve">
<path style="fill:#333333;" d="M19.5,21.25h-15c-0.965,0-1.75-0.785-1.75-1.75v-15c0-0.965,0.785-1.75,1.75-1.75h15
	c0.965,0,1.75,0.785,1.75,1.75v15C21.25,20.465,20.465,21.25,19.5,21.25z M4.5,3.25c-0.689,0-1.25,0.561-1.25,1.25v15
	c0,0.689,0.561,1.25,1.25,1.25h15c0.689,0,1.25-0.561,1.25-1.25v-15c0-0.689-0.561-1.25-1.25-1.25H4.5z"/>
<path style="fill:#333333;" d="M14.5,17.25H9.25V17c0-1.336,1.198-2.487,2.466-3.706c1.246-1.196,2.534-2.434,2.534-3.794
	c0-1.39-1.168-2.25-2.25-2.25S9.75,8.11,9.75,9.5h-0.5c0-1.699,1.427-2.75,2.75-2.75c1.322,0,2.75,1.051,2.75,2.75
	c0,1.573-1.366,2.886-2.688,4.155c-1.101,1.058-2.145,2.061-2.294,3.095H14.5V17.25z"/>
</svg>






