<?xml version="1.0" encoding="iso-8859-1"?>
<svg version="1.1" id="&#x56FE;&#x5C42;_1" xmlns="http://www.w3.org/2000/svg" xmlns:xlink="http://www.w3.org/1999/xlink" x="0px"
	 y="0px" viewBox="0 0 24 24" style="enable-background:new 0 0 24 24;" xml:space="preserve">
<path style="fill:#333333;" d="M9.25,9.25h-6.5v-6.5h6.5V9.25z M3.25,8.75h5.5v-5.5h-5.5V8.75z"/>
<path style="fill:#333333;" d="M9.25,21.25h-6.5v-6.5h6.5V21.25z M3.25,20.75h5.5v-5.5h-5.5V20.75z"/>
<path style="fill:#333333;" d="M21.25,21.25h-6.5v-6.5h6.5V21.25z M15.25,20.75h5.5v-5.5h-5.5V20.75z"/>
<path style="fill:#333333;" d="M21.25,9.25h-6.5v-6.5h6.5V9.25z M15.25,8.75h5.5v-5.5h-5.5V8.75z"/>
<rect x="11.75" y="3" style="fill:#333333;" width="0.5" height="9"/>
<rect x="11.75" y="15" style="fill:#333333;" width="0.5" height="6"/>
<rect x="3" y="11.75" style="fill:#333333;" width="9" height="0.5"/>
<rect x="15" y="11.75" style="fill:#333333;" width="6" height="0.5"/>
</svg>






