<?xml version="1.0" encoding="iso-8859-1"?>
<svg version="1.1" id="&#x56FE;&#x5C42;_1" xmlns="http://www.w3.org/2000/svg" xmlns:xlink="http://www.w3.org/1999/xlink" x="0px"
	 y="0px" viewBox="0 0 24 24" style="enable-background:new 0 0 24 24;" xml:space="preserve">
<path style="fill:#333333;" d="M22.25,12.75H1.75V12.5C1.75,6.848,6.348,2.25,12,2.25c5.652,0,10.25,4.598,10.25,10.25V12.75z
	 M2.253,12.25h19.494c-0.134-5.261-4.454-9.5-9.747-9.5C6.708,2.75,2.386,6.989,2.253,12.25z"/>
<path style="fill:#333333;" d="M12,21.25c-2.895,0-5.25-2.355-5.25-5.25v-0.25h10.5V16C17.25,18.895,14.895,21.25,12,21.25z
	 M7.256,16.25c0.131,2.503,2.208,4.5,4.744,4.5s4.613-1.997,4.743-4.5H7.256z"/>
</svg>






