<?xml version="1.0" encoding="iso-8859-1"?>
<svg version="1.1" id="&#x56FE;&#x5C42;_1" xmlns="http://www.w3.org/2000/svg" xmlns:xlink="http://www.w3.org/1999/xlink" x="0px"
	 y="0px" viewBox="0 0 24 24" style="enable-background:new 0 0 24 24;" xml:space="preserve">
<path style="fill:#333333;" d="M11.5,22.25c-4.069,0-5.827-1.344-6.224-2.139l-0.003-0.007L3.22,15.655
	c-0.593-1.285-0.121-2.799,1.098-3.52l2.771-1.637c0.564-0.335,1.261-0.326,1.818,0.023l0.343,0.214
	c0.084,0.052,0.183,0.052,0.267,0c0.083-0.053,0.126-0.143,0.114-0.241L8.826,3.659C8.77,3.182,8.932,2.714,9.271,2.375
	c0.405-0.404,1.046-0.439,1.494-0.083l0.189,0.151c0.339,0.272,0.565,0.658,0.634,1.088l1.12,6.94l0.066-0.002l0.664-6.862
	c0.046-0.467,0.282-0.904,0.649-1.198l0.104-0.083c0.473-0.376,1.148-0.339,1.574,0.087c0.312,0.311,0.483,0.725,0.483,1.166v11.13
	c0,0.099,0.053,0.183,0.142,0.226c0.089,0.042,0.188,0.031,0.265-0.03l1.688-1.351c1.085-0.868,2.51-0.06,2.921,0.209
	c0.157,0.103,0.261,0.261,0.294,0.446c0.035,0.194-0.014,0.399-0.134,0.562l-3.974,5.376C17.363,20.25,15.566,22.25,11.5,22.25z
	 M5.725,19.892c0.264,0.52,1.808,1.858,5.775,1.858c3.842,0,5.545-1.896,5.562-1.915l3.961-5.359
	c0.039-0.053,0.056-0.118,0.045-0.178c-0.007-0.034-0.024-0.082-0.076-0.116c-0.34-0.222-1.51-0.896-2.335-0.236l-1.688,1.351
	c-0.227,0.183-0.53,0.218-0.794,0.09c-0.262-0.126-0.425-0.385-0.425-0.676V3.58c0-0.307-0.119-0.596-0.337-0.812
	c-0.246-0.246-0.638-0.266-0.908-0.05l-0.104,0.083c-0.263,0.21-0.432,0.522-0.464,0.855l-0.664,6.862
	C13.247,10.792,13.02,11,12.742,11c-0.265,0-0.486-0.189-0.527-0.45l-1.119-6.938c-0.05-0.307-0.211-0.583-0.454-0.777l-0.189-0.151
	C10.206,2.485,9.85,2.504,9.625,2.729C9.395,2.959,9.284,3.277,9.322,3.6l0.804,6.836c0.034,0.29-0.098,0.566-0.344,0.722
	c-0.245,0.155-0.551,0.157-0.799,0.002l-0.343-0.214c-0.397-0.248-0.896-0.254-1.298-0.016l-2.771,1.636
	c-0.997,0.591-1.383,1.829-0.898,2.881L5.725,19.892z"/>
</svg>






