<?xml version="1.0" encoding="iso-8859-1"?>
<svg version="1.1" id="&#x56FE;&#x5C42;_1" xmlns="http://www.w3.org/2000/svg" xmlns:xlink="http://www.w3.org/1999/xlink" x="0px"
	 y="0px" viewBox="0 0 24 24" style="enable-background:new 0 0 24 24;" xml:space="preserve">
<polygon style="fill:#333333;" points="15.25,6 14.75,6 14.75,2.25 9.25,2.25 9.25,6 8.75,6 8.75,1.75 15.25,1.75 "/>
<path style="fill:#333333;" d="M12,22.25c-3.17,0-5.75-2.579-5.75-5.75V6.187c0-0.241,0.196-0.437,0.437-0.437h10.627
	c0.24,0,0.437,0.196,0.437,0.437V16.5C17.75,19.671,15.171,22.25,12,22.25z M6.75,6.25V16.5c0,2.895,2.355,5.25,5.25,5.25
	c2.895,0,5.25-2.355,5.25-5.25V6.25H6.75z"/>
<rect x="10" y="10.25" style="fill:#333333;" width="4" height="0.5"/>
<rect x="10" y="14.25" style="fill:#333333;" width="4" height="0.5"/>
</svg>






