<?xml version="1.0" encoding="iso-8859-1"?>
<svg version="1.1" id="&#x56FE;&#x5C42;_1" xmlns="http://www.w3.org/2000/svg" xmlns:xlink="http://www.w3.org/1999/xlink" x="0px"
	 y="0px" viewBox="0 0 24 24" style="enable-background:new 0 0 24 24;" xml:space="preserve">
<path style="fill:#333333;" d="M16.5,17.75H2v-0.5h14.5c2.895,0,5.25-2.355,5.25-5.25c0-2.895-2.355-5.25-5.25-5.25H7v-0.5h9.5
	c3.171,0,5.75,2.58,5.75,5.75C22.25,15.171,19.671,17.75,16.5,17.75z"/>
<polygon style="fill:#333333;" points="4.323,20.177 1.646,17.5 4.323,14.823 4.677,15.177 2.354,17.5 4.677,19.823 "/>
<path style="fill:#333333;" d="M4.5,9.25c-1.517,0-2.75-1.233-2.75-2.75S2.983,3.75,4.5,3.75S7.25,4.983,7.25,6.5
	S6.017,9.25,4.5,9.25z M4.5,4.25c-1.241,0-2.25,1.009-2.25,2.25S3.259,8.75,4.5,8.75S6.75,7.741,6.75,6.5S5.741,4.25,4.5,4.25z"/>
</svg>






