<?xml version="1.0" encoding="iso-8859-1"?>
<svg version="1.1" id="&#x56FE;&#x5C42;_1" xmlns="http://www.w3.org/2000/svg" xmlns:xlink="http://www.w3.org/1999/xlink" x="0px"
	 y="0px" viewBox="0 0 24 24" style="enable-background:new 0 0 24 24;" xml:space="preserve">
<path style="fill:#333333;" d="M12,22.25c-3.17,0-5.75-2.579-5.75-5.75V7h0.5v9.5c0,2.895,2.355,5.25,5.25,5.25
	c2.895,0,5.25-2.355,5.25-5.25V2h0.5v14.5C17.75,19.671,15.171,22.25,12,22.25z"/>
<polygon style="fill:#333333;" points="19.823,4.677 17.5,2.354 15.177,4.677 14.823,4.323 17.5,1.646 20.177,4.323 "/>
<path style="fill:#333333;" d="M6.5,7.25c-1.517,0-2.75-1.233-2.75-2.75S4.983,1.75,6.5,1.75S9.25,2.983,9.25,4.5
	S8.017,7.25,6.5,7.25z M6.5,2.25c-1.241,0-2.25,1.009-2.25,2.25S5.259,6.75,6.5,6.75S8.75,5.741,8.75,4.5S7.741,2.25,6.5,2.25z"/>
</svg>






