<?xml version="1.0" encoding="iso-8859-1"?>
<svg version="1.1" id="&#x56FE;&#x5C42;_1" xmlns="http://www.w3.org/2000/svg" xmlns:xlink="http://www.w3.org/1999/xlink" x="0px"
	 y="0px" viewBox="0 0 24 24" style="enable-background:new 0 0 24 24;" xml:space="preserve">
<path style="fill:#333333;" d="M6.75,22h-0.5V7.5c0-3.17,2.58-5.75,5.75-5.75c3.171,0,5.75,2.58,5.75,5.75V17h-0.5V7.5
	c0-2.895-2.355-5.25-5.25-5.25c-2.895,0-5.25,2.355-5.25,5.25V22z"/>
<polygon style="fill:#333333;" points="6.5,22.354 3.823,19.677 4.177,19.323 6.5,21.646 8.823,19.323 9.177,19.677 "/>
<path style="fill:#333333;" d="M17.5,22.25c-1.517,0-2.75-1.233-2.75-2.75s1.233-2.75,2.75-2.75s2.75,1.233,2.75,2.75
	S19.017,22.25,17.5,22.25z M17.5,17.25c-1.24,0-2.25,1.01-2.25,2.25s1.01,2.25,2.25,2.25s2.25-1.01,2.25-2.25
	S18.74,17.25,17.5,17.25z"/>
</svg>






