<?xml version="1.0" encoding="iso-8859-1"?>
<svg version="1.1" id="&#x56FE;&#x5C42;_1" xmlns="http://www.w3.org/2000/svg" xmlns:xlink="http://www.w3.org/1999/xlink" x="0px"
	 y="0px" viewBox="0 0 24 24" style="enable-background:new 0 0 24 24;" xml:space="preserve">
<path style="fill:#333333;" d="M11,22.25c-5.101,0-9.25-4.149-9.25-9.25S5.899,3.75,11,3.75s9.25,4.149,9.25,9.25
	S16.101,22.25,11,22.25z M11,4.25c-4.825,0-8.75,3.925-8.75,8.75c0,4.825,3.925,8.75,8.75,8.75c4.825,0,8.75-3.925,8.75-8.75
	C19.75,8.175,15.825,4.25,11,4.25z"/>
<path style="fill:#333333;" d="M20.5,5.25c-0.965,0-1.75-0.785-1.75-1.75s0.785-1.75,1.75-1.75s1.75,0.785,1.75,1.75
	S21.465,5.25,20.5,5.25z M20.5,2.25c-0.689,0-1.25,0.561-1.25,1.25s0.561,1.25,1.25,1.25s1.25-0.561,1.25-1.25
	S21.189,2.25,20.5,2.25z"/>
</svg>






