<?xml version="1.0" encoding="iso-8859-1"?>
<svg version="1.1" id="&#x56FE;&#x5C42;_1" xmlns="http://www.w3.org/2000/svg" xmlns:xlink="http://www.w3.org/1999/xlink" x="0px"
	 y="0px" viewBox="0 0 24 24" style="enable-background:new 0 0 24 24;" xml:space="preserve">
<path style="fill:#333333;" d="M8.377,13.841l-0.176-0.151c-1.696-1.453-2.578-1.758-3.02-1.758s-1.323,0.305-3.019,1.758L1.75,13.5
	C1.75,7.848,6.348,3.25,12,3.25c5.652,0,10.25,4.598,10.25,10.25l-0.413,0.189c-1.695-1.453-2.577-1.758-3.019-1.758
	s-1.323,0.305-3.019,1.758l-0.176,0.151l-0.164-0.164c-2.319-2.318-4.604-2.315-6.919,0L8.377,13.841z M12,11.432
	c1.219,0,2.445,0.582,3.648,1.73c1.387-1.164,2.426-1.73,3.17-1.73c0.698,0,1.655,0.499,2.916,1.521C21.45,7.83,17.192,3.75,12,3.75
	c-5.193,0-9.45,4.08-9.735,9.203c1.261-1.023,2.218-1.521,2.917-1.521c0.745,0,1.783,0.566,3.17,1.73
	C9.554,12.014,10.781,11.432,12,11.432z"/>
<path style="fill:#333333;" d="M14.75,22.256c-1.654,0-3-1.337-3-2.979V12h0.5v7.276c0,1.367,1.121,2.479,2.5,2.479
	s2.5-1.112,2.5-2.479h0.5C17.75,20.919,16.404,22.256,14.75,22.256z"/>
<rect x="11.75" y="1.5" style="fill:#333333;" width="0.5" height="2"/>
</svg>






