<?xml version="1.0" encoding="iso-8859-1"?>
<svg version="1.1" id="&#x56FE;&#x5C42;_1" xmlns="http://www.w3.org/2000/svg" xmlns:xlink="http://www.w3.org/1999/xlink" x="0px"
	 y="0px" viewBox="0 0 24 24" style="enable-background:new 0 0 24 24;" xml:space="preserve">
<path style="fill:#333333;" d="M22.25,12.25H1.75V12C1.75,6.348,6.348,1.75,12,1.75c5.652,0,10.25,4.598,10.25,10.25V12.25z
	 M2.253,11.75h19.494c-0.134-5.261-4.454-9.5-9.747-9.5C6.708,2.25,2.386,6.489,2.253,11.75z"/>
<path style="fill:#333333;" d="M14.75,22.256c-1.654,0-3-1.337-3-2.979V12h0.5v7.276c0,1.367,1.121,2.479,2.5,2.479
	s2.5-1.112,2.5-2.479h0.5C17.75,20.919,16.404,22.256,14.75,22.256z"/>
</svg>






