<?xml version="1.0" encoding="iso-8859-1"?>
<svg version="1.1" id="&#x56FE;&#x5C42;_1" xmlns="http://www.w3.org/2000/svg" xmlns:xlink="http://www.w3.org/1999/xlink" x="0px"
	 y="0px" viewBox="0 0 24 24" style="enable-background:new 0 0 24 24;" xml:space="preserve">
<path style="fill:#333333;" d="M11.5,22.25c-1.846,0-2.25-2.211-2.25-3.062h0.5c0,0.025,0.048,2.562,1.75,2.562
	c1.624,0,1.75-2.439,1.75-3.188V12h0.5v6.562C13.75,19.428,13.588,22.25,11.5,22.25z"/>
<path style="fill:#333333;" d="M22.274,12.25H1.726l0.025-0.273C2.083,8.439,4.651,1.75,12,1.75s9.917,6.689,10.249,10.227
	L22.274,12.25z M2.278,11.75h19.443c-0.42-3.439-2.918-9.5-9.722-9.5C5.196,2.25,2.698,8.311,2.278,11.75z"/>
<polygon style="fill:#333333;" points="11.514,9.368 9.323,7.177 9.677,6.823 11.486,8.632 14.311,5.337 14.689,5.663 "/>
</svg>






