<?xml version="1.0" encoding="iso-8859-1"?>
<svg version="1.1" id="&#x56FE;&#x5C42;_1" xmlns="http://www.w3.org/2000/svg" xmlns:xlink="http://www.w3.org/1999/xlink" x="0px"
	 y="0px" viewBox="0 0 24 24" style="enable-background:new 0 0 24 24;" xml:space="preserve">
<path style="fill:#333333;" d="M12,21.25c-2.47,0-4.793-0.962-6.541-2.709l0.354-0.354C7.466,19.84,9.663,20.75,12,20.75
	c4.825,0,8.75-3.925,8.75-8.75c0-4.825-3.925-8.75-8.75-8.75c-2.337,0-4.535,0.91-6.187,2.563C4.999,6.627,3.205,8.646,3.187,8.666
	L2.813,8.334c0.074-0.083,1.822-2.05,2.646-2.875C7.206,3.712,9.529,2.75,12,2.75c5.101,0,9.25,4.149,9.25,9.25
	S17.101,21.25,12,21.25z"/>
<polygon style="fill:#333333;" points="7,8.75 2.75,8.75 2.75,4.5 3.25,4.5 3.25,8.25 7,8.25 "/>
</svg>






