<?xml version="1.0" encoding="iso-8859-1"?>
<svg version="1.1" id="&#x56FE;&#x5C42;_1" xmlns="http://www.w3.org/2000/svg" xmlns:xlink="http://www.w3.org/1999/xlink" x="0px"
	 y="0px" viewBox="0 0 24 24" style="enable-background:new 0 0 24 24;" xml:space="preserve">
<path style="fill:#333333;" d="M5.886,5.886H1.75V1.75h4.136V5.886z M2.25,5.386h3.136V2.25H2.25V5.386z"/>
<path style="fill:#333333;" d="M22.25,22.25h-4.137v-4.137h4.137V22.25z M18.613,21.75h3.137v-3.137h-3.137V21.75z"/>
<path style="fill:#333333;" d="M5.886,15.887H1.75V11.75h4.136V15.887z M2.25,15.387h3.136V12.25H2.25V15.387z"/>
<path style="fill:#333333;" d="M12.25,22.25H8.114v-4.137h4.136V22.25z M8.614,21.75h3.136v-3.137H8.614V21.75z"/>
<path style="fill:#333333;" d="M15.887,5.886H11.75V1.75h4.137V5.886z M12.25,5.386h3.137V2.25H12.25V5.386z"/>
<path style="fill:#333333;" d="M22.25,12.25h-4.137V8.114h4.137V12.25z M18.613,11.75h3.137V8.614h-3.137V11.75z"/>
<rect x="5.636" y="3.568" style="fill:#333333;" width="6.364" height="0.5"/>
<rect x="12" y="19.932" style="fill:#333333;" width="6.363" height="0.5"/>
<polygon style="fill:#333333;" points="14.068,14.068 5.636,14.068 5.636,13.568 13.568,13.568 13.568,5.636 14.068,5.636 "/>
<path style="fill:#333333;" d="M10.432,18.363h-0.5v-4.549h0.5V18.363z M18.363,10.432h-3.949v-0.5h3.949V10.432z"/>
<rect x="3.568" y="5.636" style="fill:#333333;" width="0.5" height="6.364"/>
<rect x="19.932" y="12" style="fill:#333333;" width="0.5" height="6.363"/>
</svg>






