<?xml version="1.0" encoding="iso-8859-1"?>
<svg version="1.1" id="&#x56FE;&#x5C42;_1" xmlns="http://www.w3.org/2000/svg" xmlns:xlink="http://www.w3.org/1999/xlink" x="0px"
	 y="0px" viewBox="0 0 24 24" style="enable-background:new 0 0 24 24;" xml:space="preserve">
<path style="fill:#333333;" d="M12,7.75c-1.517,0-2.75-1.233-2.75-2.75S10.483,2.25,12,2.25S14.75,3.483,14.75,5
	S13.517,7.75,12,7.75z M12,2.75c-1.241,0-2.25,1.009-2.25,2.25S10.759,7.25,12,7.25c1.24,0,2.25-1.009,2.25-2.25S13.24,2.75,12,2.75
	z"/>
<rect x="11.75" y="7.5" style="fill:#333333;" width="0.5" height="4"/>
<polygon style="fill:#333333;" points="9.25,16.5 8.75,16.5 8.75,11.25 12,11.251 12,11.751 9.25,11.75 "/>
<rect x="20.25" y="20.5" style="fill:#333333;" width="0.5" height="0.5"/>
<rect x="3.25" y="20.5" style="fill:#333333;" width="0.5" height="0.5"/>
<rect x="8.75" y="20.5" style="fill:#333333;" width="0.5" height="0.5"/>
<rect x="14.75" y="20.5" style="fill:#333333;" width="0.5" height="0.5"/>
</svg>






