<?xml version="1.0" encoding="iso-8859-1"?>
<svg version="1.1" id="&#x56FE;&#x5C42;_1" xmlns="http://www.w3.org/2000/svg" xmlns:xlink="http://www.w3.org/1999/xlink" x="0px"
	 y="0px" viewBox="0 0 24 24" style="enable-background:new 0 0 24 24;" xml:space="preserve">
<path style="fill:#333333;" d="M12,19.25c-3.998,0-7.25-3.252-7.25-7.25c0-3.998,3.252-7.25,7.25-7.25c3.998,0,7.25,3.252,7.25,7.25
	C19.25,15.998,15.998,19.25,12,19.25z M12,5.25c-3.722,0-6.75,3.028-6.75,6.75c0,3.722,3.028,6.75,6.75,6.75
	c3.722,0,6.75-3.028,6.75-6.75C18.75,8.278,15.722,5.25,12,5.25z"/>
<path style="fill:#333333;" d="M6.833,15.022c-0.537,0-1.069-0.143-1.429-0.291l0.191-0.463c0.783,0.325,1.851,0.412,2.344-0.166
	c0.249-0.29,0.272-0.689,0.295-1.075c0.027-0.465,0.058-0.991,0.538-1.261c0.495-0.279,0.906,0.006,1.307,0.279
	c0.421,0.288,0.855,0.584,1.522,0.467c1.263-0.227,2.148-2.089,2.148-3.012c0-0.417-0.172-0.607-0.389-0.848
	c-0.231-0.257-0.494-0.548-0.529-1.109C12.743,6.147,13.805,5.334,13.85,5.3l0.301,0.4c-0.036,0.027-0.891,0.69-0.82,1.812
	c0.025,0.387,0.2,0.581,0.402,0.806C13.975,8.586,14.25,8.892,14.25,9.5c0,1.073-0.972,3.219-2.56,3.504
	c-0.863,0.156-1.458-0.249-1.893-0.546c-0.404-0.275-0.576-0.372-0.78-0.256c-0.23,0.129-0.258,0.408-0.284,0.854
	c-0.026,0.447-0.056,0.954-0.414,1.373C7.938,14.873,7.383,15.022,6.833,15.022z"/>
<path style="fill:#333333;" d="M13.84,18.691l-0.151-0.125c-0.482-0.396-0.938-0.77-0.938-1.566c0-0.629,0.322-0.767,0.606-0.888
	c0.152-0.065,0.31-0.132,0.467-0.289c0.188-0.188,0.245-0.504,0.301-0.81c0.071-0.395,0.146-0.803,0.515-0.987
	c0.639-0.317,2.285,0.278,3.519,1.279l-0.314,0.389c-1.18-0.957-2.623-1.402-2.981-1.221c-0.145,0.072-0.193,0.343-0.245,0.629
	c-0.066,0.364-0.141,0.775-0.439,1.074c-0.226,0.226-0.455,0.323-0.624,0.396C13.309,16.677,13.25,16.701,13.25,17
	c0,0.561,0.301,0.807,0.756,1.181l0.154,0.128L13.84,18.691z"/>
<circle style="fill:#333333;" cx="12" cy="2" r="1"/>
<circle style="fill:#333333;" cx="12" cy="22" r="1"/>
<circle style="fill:#333333;" cx="22" cy="12" r="1"/>
<circle style="fill:#333333;" cx="19" cy="5" r="1"/>
<circle style="fill:#333333;" cx="5" cy="19" r="1"/>
<circle style="fill:#333333;" cx="2" cy="12" r="1"/>
<circle style="fill:#333333;" cx="5" cy="5" r="1"/>
<circle style="fill:#333333;" cx="19" cy="19" r="1"/>
<path style="fill:#333333;" d="M6.821,17.074C5.486,15.711,4.75,13.909,4.75,12h0.5c0,1.777,0.685,3.455,1.929,4.725L6.821,17.074z"
	/>
<path style="fill:#333333;" d="M12,19.25v-0.5c3.722,0,6.75-3.028,6.75-6.75h0.5C19.25,15.998,15.998,19.25,12,19.25z"/>
<path style="fill:#333333;" d="M16.725,7.179C15.455,5.935,13.777,5.25,12,5.25v-0.5c1.909,0,3.711,0.736,5.074,2.071L16.725,7.179z
	"/>
</svg>






