<?xml version="1.0" encoding="iso-8859-1"?>
<svg version="1.1" id="&#x56FE;&#x5C42;_1" xmlns="http://www.w3.org/2000/svg" xmlns:xlink="http://www.w3.org/1999/xlink" x="0px"
	 y="0px" viewBox="0 0 24 24" style="enable-background:new 0 0 24 24;" xml:space="preserve">
<path style="fill:#333333;" d="M12,21.427L11.921,21.4C8.372,20.221,1.75,15.094,1.75,9.5c0-3.17,2.58-5.75,5.75-5.75
	c1.755,0,3.413,0.805,4.5,2.17c1.087-1.365,2.745-2.17,4.5-2.17c3.171,0,5.75,2.58,5.75,5.75h-0.5c0-2.895-2.355-5.25-5.25-5.25
	c-1.706,0-3.312,0.834-4.296,2.231L12,6.771l-0.205-0.29C10.812,5.084,9.207,4.25,7.5,4.25c-2.895,0-5.25,2.355-5.25,5.25
	c0,5.316,6.302,10.211,9.75,11.399c0.569-0.196,1.218-0.495,1.883-0.867l0.244,0.436c-0.723,0.405-1.431,0.728-2.048,0.933
	L12,21.427z"/>
<rect x="18.949" y="12.891" transform="matrix(0.7773 -0.6291 0.6291 0.7773 -5.5545 15.5571)" style="fill:#333333;" width="0.5" height="5.467"/>
<rect x="16.466" y="15.375" transform="matrix(0.629 -0.7774 0.7774 0.629 -5.0239 20.7233)" style="fill:#333333;" width="5.467" height="0.5"/>
</svg>






