<?xml version="1.0" encoding="iso-8859-1"?>
<svg version="1.1" id="&#x56FE;&#x5C42;_1" xmlns="http://www.w3.org/2000/svg" xmlns:xlink="http://www.w3.org/1999/xlink" x="0px"
	 y="0px" viewBox="0 0 24 24" style="enable-background:new 0 0 24 24;" xml:space="preserve">
<path style="fill:#333333;" d="M12,22.25c-3.998,0-7.25-3.252-7.25-7.25c0-3.998,3.252-7.25,7.25-7.25c3.998,0,7.25,3.252,7.25,7.25
	C19.25,18.998,15.998,22.25,12,22.25z M12,8.25c-3.722,0-6.75,3.028-6.75,6.75c0,3.722,3.028,6.75,6.75,6.75
	c3.722,0,6.75-3.028,6.75-6.75C18.75,11.278,15.722,8.25,12,8.25z"/>
<path style="fill:#333333;" d="M8.75,8.5h-0.5v-3c0-2.068,1.682-3.75,3.75-3.75c2.067,0,3.75,1.682,3.75,3.75V6h-0.5V5.5
	c0-1.792-1.458-3.25-3.25-3.25S8.75,3.708,8.75,5.5V8.5z"/>
<rect x="11.75" y="13" style="fill:#333333;" width="0.5" height="4"/>
</svg>






