<?xml version="1.0" encoding="iso-8859-1"?>
<svg version="1.1" id="&#x56FE;&#x5C42;_1" xmlns="http://www.w3.org/2000/svg" xmlns:xlink="http://www.w3.org/1999/xlink" x="0px"
	 y="0px" viewBox="0 0 24 24" style="enable-background:new 0 0 24 24;" xml:space="preserve">
<path style="fill:#333333;" d="M19.5,22.273h-15c-0.689,0-1.25-0.561-1.25-1.25v-9c0-0.689,0.561-1.25,1.25-1.25h15
	c0.689,0,1.25,0.561,1.25,1.25v9C20.75,21.713,20.189,22.273,19.5,22.273z M4.5,11.274c-0.414,0-0.75,0.336-0.75,0.75v9
	c0,0.413,0.336,0.75,0.75,0.75h15c0.413,0,0.75-0.337,0.75-0.75v-9c0-0.413-0.337-0.75-0.75-0.75H4.5z"/>
<path style="fill:#333333;" d="M7.25,11h-0.5V7.002c-0.002-2.707,2.047-4.954,4.768-5.226c2.713-0.279,5.181,1.523,5.727,4.176
	l-0.49,0.101c-0.493-2.4-2.72-4.016-5.187-3.779C9.104,2.521,7.248,4.553,7.25,7.002V11z"/>
<rect x="11.75" y="15" style="fill:#333333;" width="0.5" height="3"/>
</svg>






