<?xml version="1.0" encoding="iso-8859-1"?>
<svg version="1.1" id="&#x56FE;&#x5C42;_1" xmlns="http://www.w3.org/2000/svg" xmlns:xlink="http://www.w3.org/1999/xlink" x="0px"
	 y="0px" viewBox="0 0 24 24" style="enable-background:new 0 0 24 24;" xml:space="preserve">
<rect x="3.75" y="9" style="fill:#333333;" width="0.5" height="4.5"/>
<rect x="2.5" y="13.25" style="fill:#333333;" width="3" height="0.5"/>
<rect x="2.5" y="5.75" style="fill:#333333;" width="3" height="0.5"/>
<path style="fill:#333333;" d="M2.624,6.217L2.376,5.783C3,5.426,4.671,4.284,4.903,3.299c0.058-0.246,0.022-0.462-0.111-0.661
	C4.565,2.298,4.306,2.118,4,2.088C3.449,2.035,2.859,2.495,2.677,2.677L2.323,2.323C2.356,2.29,3.153,1.5,4.05,1.59
	c0.458,0.045,0.847,0.305,1.158,0.771C5.419,2.678,5.48,3.032,5.39,3.415C5.06,4.812,2.723,6.16,2.624,6.217z"/>
<path style="fill:#333333;" d="M3.979,21.845c-0.366,0-0.677-0.117-0.915-0.253c-0.483-0.275-0.76-0.686-0.771-0.703l0.416-0.278
	c0.089,0.133,0.905,1.266,2.154,0.432c0.353-0.235,0.539-0.498,0.554-0.78c0.029-0.55-0.569-1.064-0.576-1.069l-0.229-0.191
	l0.229-0.192c0.006-0.006,0.607-0.518,0.576-1.071c-0.016-0.282-0.202-0.545-0.554-0.779c-1.275-0.851-2.118,0.379-2.153,0.431
	l-0.416-0.277c0.012-0.018,0.288-0.428,0.771-0.703c0.461-0.263,1.194-0.454,2.075,0.134c0.491,0.327,0.752,0.721,0.776,1.17
	C5.945,18.267,5.592,18.746,5.358,19c0.234,0.254,0.587,0.733,0.558,1.288c-0.024,0.449-0.285,0.843-0.776,1.17
	C4.713,21.742,4.321,21.845,3.979,21.845z"/>
<rect x="4" y="18.75" style="fill:#333333;" width="1" height="0.5"/>
<rect x="2.349" y="9.25" transform="matrix(0.8321 -0.5547 0.5547 0.8321 -4.7238 3.3983)" style="fill:#333333;" width="1.803" height="0.5"/>
<rect x="10" y="11.75" style="fill:#333333;" width="11" height="0.5"/>
<rect x="10" y="18.75" style="fill:#333333;" width="11" height="0.5"/>
<rect x="10" y="4.75" style="fill:#333333;" width="11" height="0.5"/>
</svg>






