<?xml version="1.0" encoding="iso-8859-1"?>
<svg version="1.1" id="&#x56FE;&#x5C42;_1" xmlns="http://www.w3.org/2000/svg" xmlns:xlink="http://www.w3.org/1999/xlink" x="0px"
	 y="0px" viewBox="0 0 24 24" style="enable-background:new 0 0 24 24;" xml:space="preserve">
<path style="fill:#333333;" d="M22.25,22.25H5.75v-4.5h4v-4h4v-4h4v-4h4.5V22.25z M6.25,21.75h15.5V6.25h-3.5v4h-4v4h-4v4h-4V21.75z
	"/>
<rect x="8.068" y="4" transform="matrix(0.7071 -0.7071 0.7071 0.7071 0.2898 9.1997)" style="fill:#333333;" width="6.364" height="0.5"/>
<polygon style="fill:#333333;" points="13.75,5 13.25,5 13.25,2.25 10.5,2.25 10.5,1.75 13.75,1.75 "/>
<polygon style="fill:#333333;" points="5,13.75 1.75,13.75 1.75,10.5 2.25,10.5 2.25,13.25 5,13.25 "/>
<rect x="1.068" y="11" transform="matrix(0.7071 -0.7071 0.7071 0.7071 -6.7102 6.3003)" style="fill:#333333;" width="6.364" height="0.5"/>
</svg>






