<?xml version="1.0" encoding="iso-8859-1"?>
<svg version="1.1" id="&#x56FE;&#x5C42;_1" xmlns="http://www.w3.org/2000/svg" xmlns:xlink="http://www.w3.org/1999/xlink" x="0px"
	 y="0px" viewBox="0 0 24 24" style="enable-background:new 0 0 24 24;" xml:space="preserve">
<path style="fill:#333333;" d="M12,22.25H5c-0.689,0-1.25-0.561-1.25-1.25V3c0-0.689,0.561-1.25,1.25-1.25h14
	c0.689,0,1.25,0.561,1.25,1.25v9h-0.5V3c0-0.414-0.337-0.75-0.75-0.75H5C4.586,2.25,4.25,2.586,4.25,3v18
	c0,0.413,0.336,0.75,0.75,0.75h7V22.25z"/>
<rect x="17.5" y="15.5" style="fill:#333333;" width="0.5" height="6.5"/>
<polygon style="fill:#333333;" points="19.823,17.427 17.75,15.354 15.677,17.427 15.323,17.073 17.75,14.646 20.177,17.073 "/>
<rect x="8" y="7.75" style="fill:#333333;" width="8" height="0.5"/>
<rect x="8" y="11.75" style="fill:#333333;" width="4" height="0.5"/>
</svg>






