<?xml version="1.0" encoding="iso-8859-1"?>
<svg version="1.1" id="&#x56FE;&#x5C42;_1" xmlns="http://www.w3.org/2000/svg" xmlns:xlink="http://www.w3.org/1999/xlink" x="0px"
	 y="0px" viewBox="0 0 24 24" style="enable-background:new 0 0 24 24;" xml:space="preserve">
<path style="fill:#333333;" d="M19,22.25H5c-0.689,0-1.25-0.561-1.25-1.25V11c0-0.689,0.561-1.25,1.25-1.25h14
	c0.689,0,1.25,0.561,1.25,1.25v10C20.25,21.689,19.689,22.25,19,22.25z M5,10.25c-0.414,0-0.75,0.336-0.75,0.75v10
	c0,0.413,0.336,0.75,0.75,0.75h14c0.413,0,0.75-0.337,0.75-0.75V11c0-0.414-0.337-0.75-0.75-0.75H5z"/>
<path style="fill:#333333;" d="M16.75,10.25h-9.5v-8.5h9.5V10.25z M7.75,9.75h8.5v-7.5h-8.5V9.75z"/>
<rect x="10.25" y="5" style="fill:#333333;" width="0.5" height="1"/>
<rect x="13.25" y="5" style="fill:#333333;" width="0.5" height="1"/>
</svg>






