<?xml version="1.0" encoding="iso-8859-1"?>
<svg version="1.1" id="&#x56FE;&#x5C42;_1" xmlns="http://www.w3.org/2000/svg" xmlns:xlink="http://www.w3.org/1999/xlink" x="0px"
	 y="0px" viewBox="0 0 24 24" style="enable-background:new 0 0 24 24;" xml:space="preserve">
<path style="fill:#333333;" d="M20.5,16.75h-17c-0.965,0-1.75-0.785-1.75-1.75V9c0-0.965,0.785-1.75,1.75-1.75h17
	c0.965,0,1.75,0.785,1.75,1.75v6C22.25,15.965,21.465,16.75,20.5,16.75z M3.5,7.75C2.811,7.75,2.25,8.311,2.25,9v6
	c0,0.689,0.561,1.25,1.25,1.25h17c0.689,0,1.25-0.561,1.25-1.25V9c0-0.689-0.561-1.25-1.25-1.25H3.5z"/>
<path style="fill:#333333;" d="M18.75,11.75H5.25v-4.5h13.5V11.75z M5.75,11.25h12.5v-3.5H5.75V11.25z"/>
<rect x="10.25" y="10.5" style="fill:#333333;" width="0.5" height="1"/>
<rect x="13.25" y="10.5" style="fill:#333333;" width="0.5" height="1"/>
<rect x="15.75" y="10.5" style="fill:#333333;" width="0.5" height="1"/>
<rect x="7.75" y="10.5" style="fill:#333333;" width="0.5" height="1"/>
<rect x="4" y="7.25" style="fill:#333333;" width="16" height="0.5"/>
</svg>






