<?xml version="1.0" encoding="iso-8859-1"?>
<svg version="1.1" id="&#x56FE;&#x5C42;_1" xmlns="http://www.w3.org/2000/svg" xmlns:xlink="http://www.w3.org/1999/xlink" x="0px"
	 y="0px" viewBox="0 0 24 24" style="enable-background:new 0 0 24 24;" xml:space="preserve">
<path style="fill:#333333;" d="M18.669,16.75H5.332c-0.607,0-1.162-0.308-1.484-0.822l-1.832-2.93
	c-0.174-0.28-0.266-0.601-0.266-0.929V9c0-0.965,0.785-1.75,1.75-1.75h17c0.965,0,1.75,0.785,1.75,1.75v3.069
	c0,0.327-0.092,0.648-0.265,0.928l-1.833,2.931C19.83,16.442,19.275,16.75,18.669,16.75z M3.5,7.75C2.811,7.75,2.25,8.311,2.25,9
	v3.069c0,0.234,0.066,0.464,0.19,0.664l1.831,2.929c0.23,0.368,0.626,0.588,1.06,0.588h13.337c0.434,0,0.829-0.22,1.06-0.588
	l1.832-2.93c0.124-0.199,0.189-0.429,0.189-0.663V9c0-0.689-0.561-1.25-1.25-1.25H3.5z"/>
<path style="fill:#333333;" d="M18.75,11.75H5.25v-4.5h13.5V11.75z M5.75,11.25h12.5v-3.5H5.75V11.25z"/>
<rect x="10.25" y="10.5" style="fill:#333333;" width="0.5" height="1"/>
<rect x="13.25" y="10.5" style="fill:#333333;" width="0.5" height="1"/>
<rect x="15.75" y="10.5" style="fill:#333333;" width="0.5" height="1"/>
<rect x="7.75" y="10.5" style="fill:#333333;" width="0.5" height="1"/>
<rect x="4" y="7.25" style="fill:#333333;" width="16" height="0.5"/>
</svg>






