<?xml version="1.0" encoding="iso-8859-1"?>
<svg version="1.1" id="&#x56FE;&#x5C42;_1" xmlns="http://www.w3.org/2000/svg" xmlns:xlink="http://www.w3.org/1999/xlink" x="0px"
	 y="0px" viewBox="0 0 24 24" style="enable-background:new 0 0 24 24;" xml:space="preserve">
<path style="fill:#333333;" d="M16.5,16.75h-9c-4.037,0-5.875-2.462-5.875-4.75c0-2.288,1.838-4.75,5.875-4.75h9
	c4.036,0,5.875,2.462,5.875,4.75C22.375,14.288,20.536,16.75,16.5,16.75z M7.5,7.75c-3.693,0-5.375,2.203-5.375,4.25
	s1.682,4.25,5.375,4.25h9c3.693,0,5.375-2.203,5.375-4.25S20.193,7.75,16.5,7.75H7.5z"/>
<rect x="10.25" y="10.5" style="fill:#333333;" width="0.5" height="3"/>
<rect x="13.25" y="10.5" style="fill:#333333;" width="0.5" height="3"/>
<rect x="16.25" y="10.5" style="fill:#333333;" width="0.5" height="3"/>
<rect x="7.25" y="10.5" style="fill:#333333;" width="0.5" height="3"/>
<rect x="6" y="11.75" style="fill:#333333;" width="12" height="0.5"/>
</svg>






