<?xml version="1.0" encoding="iso-8859-1"?>
<svg version="1.1" id="&#x56FE;&#x5C42;_1" xmlns="http://www.w3.org/2000/svg" xmlns:xlink="http://www.w3.org/1999/xlink" x="0px"
	 y="0px" viewBox="0 0 24 24" style="enable-background:new 0 0 24 24;" xml:space="preserve">
<path style="fill:#333333;" d="M6,11.25c-1.241,0-2.25-1.009-2.25-2.25S4.759,6.75,6,6.75S8.25,7.759,8.25,9S7.241,11.25,6,11.25z
	 M6,7.25C5.035,7.25,4.25,8.035,4.25,9S5.035,10.75,6,10.75S7.75,9.965,7.75,9S6.965,7.25,6,7.25z"/>
<path style="fill:#333333;" d="M18,14.25c-1.24,0-2.25-1.01-2.25-2.25c0-1.241,1.01-2.25,2.25-2.25s2.25,1.009,2.25,2.25
	C20.25,13.24,19.24,14.25,18,14.25z M18,10.25c-0.965,0-1.75,0.785-1.75,1.75s0.785,1.75,1.75,1.75s1.75-0.785,1.75-1.75
	S18.965,10.25,18,10.25z"/>
<polygon style="fill:#333333;" points="14.323,4.677 12,2.354 9.677,4.677 9.323,4.323 12,1.646 14.677,4.323 "/>
<polygon style="fill:#333333;" points="12.341,19.692 5.75,14.25 5.75,11 6.25,11 6.25,14.014 12.659,19.308 "/>
<polygon style="fill:#333333;" points="12.142,20.706 11.859,20.294 17.75,16.263 17.75,14 18.25,14 18.25,16.526 "/>
<rect x="11.75" y="2" style="fill:#333333;" width="0.5" height="19.5"/>
<rect x="10.5" y="21.75" style="fill:#333333;" width="3" height="0.5"/>
</svg>






