<?xml version="1.0" encoding="iso-8859-1"?>
<svg version="1.1" id="&#x56FE;&#x5C42;_1" xmlns="http://www.w3.org/2000/svg" xmlns:xlink="http://www.w3.org/1999/xlink" x="0px"
	 y="0px" viewBox="0 0 24 24" style="enable-background:new 0 0 24 24;" xml:space="preserve">
<path style="fill:#333333;" d="M12,11.25c-1.792,0-3.25-1.458-3.25-3.25S10.208,4.75,12,4.75S15.25,6.208,15.25,8
	S13.792,11.25,12,11.25z M12,5.25c-1.517,0-2.75,1.233-2.75,2.75s1.233,2.75,2.75,2.75S14.75,9.517,14.75,8S13.517,5.25,12,5.25z"/>
<path style="fill:#333333;" d="M18.25,18h-0.5c0-3.171-2.579-5.75-5.75-5.75c-3.17,0-5.75,2.579-5.75,5.75h-0.5
	c0-3.446,2.804-6.25,6.25-6.25S18.25,14.554,18.25,18z"/>
<polygon style="fill:#333333;" points="22.25,6 21.75,6 21.75,2.25 18,2.25 18,1.75 22.25,1.75 "/>
<polygon style="fill:#333333;" points="2.25,6 1.75,6 1.75,1.75 6,1.75 6,2.25 2.25,2.25 "/>
<polygon style="fill:#333333;" points="22.25,22.25 18,22.25 18,21.75 21.75,21.75 21.75,18 22.25,18 "/>
<polygon style="fill:#333333;" points="6,22.25 1.75,22.25 1.75,18 2.25,18 2.25,21.75 6,21.75 "/>
</svg>






