<?xml version="1.0" encoding="iso-8859-1"?>
<svg version="1.1" id="&#x56FE;&#x5C42;_1" xmlns="http://www.w3.org/2000/svg" xmlns:xlink="http://www.w3.org/1999/xlink" x="0px"
	 y="0px" viewBox="0 0 24 24" style="enable-background:new 0 0 24 24;" xml:space="preserve">
<path style="fill:#333333;" d="M12,10.25c-2.343,0-4.25-1.907-4.25-4.25S9.657,1.75,12,1.75c2.344,0,4.25,1.907,4.25,4.25
	S14.344,10.25,12,10.25z M12,2.25C9.932,2.25,8.25,3.932,8.25,6S9.932,9.75,12,9.75c2.067,0,3.75-1.682,3.75-3.75
	S14.067,2.25,12,2.25z"/>
<path style="fill:#333333;" d="M21.25,22h-0.5c0-4.825-3.925-8.75-8.75-8.75c-4.825,0-8.75,3.925-8.75,8.75h-0.5
	c0-5.101,4.149-9.25,9.25-9.25S21.25,16.899,21.25,22z"/>
</svg>






