<?xml version="1.0" encoding="iso-8859-1"?>
<svg version="1.1" id="&#x56FE;&#x5C42;_1" xmlns="http://www.w3.org/2000/svg" xmlns:xlink="http://www.w3.org/1999/xlink" x="0px"
	 y="0px" viewBox="0 0 24 24" style="enable-background:new 0 0 24 24;" xml:space="preserve">
<path style="fill:#333333;" d="M7,9.25c-2.068,0-3.75-1.682-3.75-3.75S4.932,1.75,7,1.75s3.75,1.682,3.75,3.75S9.068,9.25,7,9.25z
	 M7,2.25c-1.792,0-3.25,1.458-3.25,3.25S5.208,8.75,7,8.75s3.25-1.458,3.25-3.25S8.792,2.25,7,2.25z"/>
<path style="fill:#333333;" d="M17,9.25c-2.067,0-3.75-1.682-3.75-3.75S14.933,1.75,17,1.75s3.75,1.682,3.75,3.75
	S19.067,9.25,17,9.25z M17,2.25c-1.792,0-3.25,1.458-3.25,3.25S15.208,8.75,17,8.75s3.25-1.458,3.25-3.25S18.792,2.25,17,2.25z"/>
<path style="fill:#333333;" d="M2.25,22h-0.5v-4.5c0-2.895,2.001-5.25,4.46-5.25h2.526c2.159,0,3.424,2.047,3.477,2.134l-0.428,0.26
	c-0.011-0.019-1.176-1.894-3.049-1.894H6.21c-2.184,0-3.96,2.131-3.96,4.75V22z"/>
<path style="fill:#333333;" d="M22.25,22h-0.5v-4.5c0-2.619-1.799-4.75-4.011-4.75h-2.557c-1.826,0-2.953,1.865-2.964,1.885
	l-0.214-0.124L12,14.514h-0.25c0-0.19,1.365-2.264,3.433-2.264h2.557c2.487,0,4.511,2.355,4.511,5.25V22z"/>
<rect x="5.5" y="19.75" style="fill:#333333;" width="13.5" height="0.5"/>
<polygon style="fill:#333333;" points="17.327,22.095 16.968,21.747 18.656,20.002 16.97,18.305 17.325,17.953 19.357,19.998 "/>
<polygon style="fill:#333333;" points="6.987,22.084 4.923,19.994 6.988,17.939 7.341,18.293 5.629,19.998 7.342,21.732 "/>
</svg>






