<?xml version="1.0" encoding="iso-8859-1"?>
<svg version="1.1" id="&#x56FE;&#x5C42;_1" xmlns="http://www.w3.org/2000/svg" xmlns:xlink="http://www.w3.org/1999/xlink" x="0px"
	 y="0px" viewBox="0 0 24 24" style="enable-background:new 0 0 24 24;" xml:space="preserve">
<path style="fill:#333333;" d="M12.25,15c-2.429,0-3.216-2.576-3.994-5.944C7.761,6.91,7.957,5.2,8.822,4.112
	C9.541,3.208,10.694,2.75,12.25,2.75c1.408,0,2.476,0.413,3.175,1.228c0.901,1.05,1.178,2.752,0.822,5.06
	C15.64,12.994,14.295,15,12.25,15z M12.25,3.25c-1.396,0-2.417,0.395-3.037,1.174c-0.969,1.218-0.791,3.13-0.47,4.52
	C9.47,12.092,10.189,14.5,12.25,14.5c2.192,0,3.114-3.012,3.503-5.538l0,0c0.332-2.157,0.094-3.724-0.707-4.658
	C14.446,3.604,13.505,3.25,12.25,3.25z"/>
<path style="fill:#333333;" d="M19.979,12.961c-0.167,0-0.34-0.023-0.516-0.071c-0.893-0.24-1.226-0.804-1.348-1.233
	c-0.201-0.709,0.039-1.611,0.585-2.193c0.781-0.833,2.028-1.162,3.044-0.855c-0.064-2.154-0.721-3.006-2.341-3.107
	c-1.354-0.085-2.165,0.168-2.983,0.931l-0.342-0.365C17,5.208,17.937,4.91,19.436,5.002c2.412,0.15,2.794,1.991,2.813,3.82l0.001,0
	v0.155c0,1.676-0.467,3.035-1.249,3.633C20.699,12.843,20.353,12.961,19.979,12.961z M20.963,8.997c-0.685,0-1.409,0.29-1.896,0.809
	c-0.426,0.454-0.623,1.174-0.469,1.715c0.126,0.444,0.462,0.743,0.997,0.887c0.422,0.111,0.784,0.051,1.103-0.192
	c0.626-0.48,1.023-1.649,1.051-3.076C21.505,9.043,21.237,8.997,20.963,8.997z"/>
<path style="fill:#333333;" d="M4.506,12.963c-0.413,0-0.824-0.146-1.21-0.435C2.371,11.838,1.75,10.42,1.75,9l0.002-0.149
	c0.052-2.244,1.297-3.713,3.274-3.849c1.411-0.096,2.468,0.005,3.388,0.809L8.085,6.188c-0.79-0.689-1.741-0.775-3.025-0.687
	C3.41,5.615,2.383,6.773,2.262,8.625c1.096-0.323,2.785,0.056,3.459,0.847c0.515,0.604,0.726,1.525,0.513,2.242
	c-0.12,0.406-0.43,0.939-1.219,1.173C4.846,12.938,4.676,12.963,4.506,12.963z M2.253,9.157c0.042,1.215,0.57,2.395,1.342,2.97
	c0.289,0.215,0.745,0.438,1.279,0.282c0.461-0.138,0.758-0.418,0.882-0.836c0.187-0.628-0.067-1.369-0.415-1.776
	C4.761,9.116,3.128,8.794,2.253,9.157z"/>
<rect x="9.75" y="13.5" style="fill:#333333;" width="0.5" height="8"/>
<rect x="14.25" y="13.5" style="fill:#333333;" width="0.5" height="8"/>
</svg>






