<?xml version="1.0" encoding="iso-8859-1"?>
<svg version="1.1" id="&#x56FE;&#x5C42;_1" xmlns="http://www.w3.org/2000/svg" xmlns:xlink="http://www.w3.org/1999/xlink" x="0px"
	 y="0px" viewBox="0 0 24 24" style="enable-background:new 0 0 24 24;" xml:space="preserve">
<path style="fill:#333333;" d="M5.434,12.395l-0.152-0.273c-0.843-1.512-0.42-3.229-0.125-4.311L2.178,8.307l0.078-0.36
	C3.234,3.431,6.274,2.752,8,2.75c0.004,0,0.007,0,0.011,0c1.619,0,3.155,0.588,3.989,0.974c0.834-0.386,2.372-0.974,4-0.974h0.001
	c2.935,0,5.027,1.894,5.743,5.197l0.078,0.36L18.844,7.81c0.295,1.083,0.718,2.799-0.125,4.311l-0.152,0.273l-0.233-0.209
	c-0.921-0.826-2.63-1.936-4.138-2.914C13.366,8.733,12.578,8.222,12,7.808c-0.578,0.413-1.365,0.924-2.193,1.462
	c-1.509,0.979-3.218,2.089-4.14,2.916L5.434,12.395z M12,7.189l0.147,0.108c0.577,0.422,1.424,0.972,2.32,1.554
	c1.398,0.908,2.969,1.928,3.952,2.748c0.582-1.325,0.18-2.792-0.093-3.784l-0.168-0.627l3.012,0.502
	c-0.983-3.853-3.642-4.441-5.17-4.441c0,0,0,0-0.001,0c-1.603,0-3.127,0.611-3.893,0.976L12,4.277l-0.107-0.051
	C11.126,3.861,9.603,3.25,8.011,3.25c-0.003,0-0.007,0-0.01,0C6.472,3.252,3.812,3.842,2.83,7.691l3.012-0.502L5.673,7.815
	C5.401,8.808,4.999,10.274,5.581,11.6c0.983-0.821,2.554-1.841,3.954-2.75c0.896-0.582,1.742-1.131,2.318-1.553L12,7.189z"/>
<path style="fill:#333333;" d="M11.757,18.059c-0.906-3.733-0.397-8.57-0.002-10.606l0.491,0.096
	c-0.388,1.999-0.888,6.743-0.002,10.394L11.757,18.059z"/>
<path style="fill:#333333;" d="M18,21.25H6l-0.203-0.396c0.904-1.252,3.499-3.104,6.198-3.104c0.001,0,0.003,0,0.004,0
	c2.562,0.002,3.731,0.73,6.173,3.069L18,21.25z M6.531,20.75h10.841c-2.059-1.923-3.125-2.498-5.372-2.5c-0.001,0-0.003,0-0.004,0
	C9.744,18.25,7.573,19.624,6.531,20.75z"/>
</svg>






