<?xml version="1.0" encoding="iso-8859-1"?>
<svg version="1.1" id="&#x56FE;&#x5C42;_1" xmlns="http://www.w3.org/2000/svg" xmlns:xlink="http://www.w3.org/1999/xlink" x="0px"
	 y="0px" viewBox="0 0 24 24" style="enable-background:new 0 0 24 24;" xml:space="preserve">
<path style="fill:#333333;" d="M19.25,17h-0.5V5c0-1.325-0.86-2.75-2.75-2.75S13.25,3.675,13.25,5v6.25h-0.5V5
	c0-1.615,1.116-3.25,3.25-3.25S19.25,3.385,19.25,5V17z"/>
<path style="fill:#333333;" d="M22.283,20.25h-6.566l0.438-3.5h5.691L22.283,20.25z M16.283,19.75h5.434l-0.312-2.5h-4.809
	L16.283,19.75z"/>
<path style="fill:#333333;" d="M12.943,20.25H5v-0.5h7.75v-8.123c0-3.517-2.861-6.377-6.377-6.377c-1.446,0-2.623,1.176-2.623,2.623
	V14.5h-0.5V7.873c0-1.722,1.401-3.123,3.123-3.123c3.792,0,6.877,3.085,6.877,6.877v8.316C13.25,20.112,13.112,20.25,12.943,20.25z"
	/>
<path style="fill:#333333;" d="M5,20.25c-1.792,0-3.25-1.458-3.25-3.25S3.208,13.75,5,13.75S8.25,15.208,8.25,17
	S6.792,20.25,5,20.25z M5,14.25c-1.517,0-2.75,1.233-2.75,2.75S3.483,19.75,5,19.75S7.75,18.517,7.75,17S6.517,14.25,5,14.25z"/>
<rect x="6.75" y="5" style="fill:#333333;" width="0.5" height="9.5"/>
</svg>






