<?xml version="1.0" encoding="iso-8859-1"?>
<svg version="1.1" id="&#x56FE;&#x5C42;_1" xmlns="http://www.w3.org/2000/svg" xmlns:xlink="http://www.w3.org/1999/xlink" x="0px"
	 y="0px" viewBox="0 0 24 24" style="enable-background:new 0 0 24 24;" xml:space="preserve">
<path style="fill:#333333;" d="M16.861,13.974l-0.223-0.447c0.145-0.072,3.555-1.796,4.376-4.521
	c0.392-1.302,0.294-2.39-0.292-3.232c-0.51-0.735-1.373-1.267-2.566-1.581c-0.511-0.134-1.383-0.19-2.092,0l-0.129-0.483
	c0.801-0.214,1.756-0.155,2.348,0c1.312,0.345,2.271,0.944,2.85,1.779c0.678,0.974,0.799,2.206,0.36,3.662
	C20.626,12.03,17.244,13.783,16.861,13.974z"/>
<path style="fill:#333333;" d="M14.404,20.961c-0.273-0.001-0.551-0.028-0.827-0.081l0.094-0.49
	c0.933,0.175,1.824,0.015,2.456-0.491c0.537-0.428,0.898-1.052,1.044-1.807c0.151-0.785-0.061-1.519-0.332-2.328
	c-0.198-0.596-0.32-1.46-0.339-2.006l0.5-0.016c0.017,0.496,0.132,1.318,0.313,1.863c0.282,0.845,0.522,1.678,0.348,2.581
	c-0.168,0.873-0.591,1.601-1.223,2.103C15.883,20.734,15.198,20.961,14.404,20.961z"/>
<path style="fill:#333333;" d="M6.395,13.477C6.271,13.42,3.378,12.043,2.507,9.15C2.069,7.696,2.19,6.464,2.867,5.488
	c0.581-0.835,1.54-1.434,2.85-1.779c0.576-0.151,1.129-0.228,1.644-0.228v0.5c-0.472,0-0.983,0.071-1.517,0.211
	C4.651,4.507,3.788,5.039,3.277,5.773C2.692,6.617,2.594,7.705,2.986,9.006c0.807,2.681,3.592,4.005,3.62,4.018L6.395,13.477z"/>
<path style="fill:#333333;" d="M9.001,21c-0.796,0-1.296-0.271-1.845-0.71c-0.601-0.479-1.011-1.183-1.22-2.094
	c-0.211-0.923,0.073-1.77,0.347-2.589c0.33-0.987,0.412-1.658,0.243-1.996l0.447-0.223c0.237,0.473,0.168,1.229-0.216,2.377
	c-0.253,0.754-0.514,1.533-0.334,2.319c0.183,0.797,0.534,1.408,1.044,1.814C7.956,20.289,8.344,20.5,9,20.5
	c0.151-0.001,0.629-0.139,0.92-0.237l0.16,0.475C9.95,20.78,9.289,20.999,9.001,21z"/>
<path style="fill:#333333;" d="M11.75,16.361l-0.18-0.188c-0.197-0.205-4.82-5.064-4.82-8.985c0-3.506,1.776-5.438,5-5.438
	c3.225,0,5,1.931,5,5.438c0,3.922-4.623,8.78-4.82,8.985L11.75,16.361z M11.75,2.25c-2.053,0-4.5,0.856-4.5,4.938
	c0,3.297,3.64,7.498,4.5,8.444c0.86-0.946,4.5-5.147,4.5-8.444C16.25,3.106,13.803,2.25,11.75,2.25z"/>
<path style="fill:#333333;" d="M12,21.364c-1.016,0-1.938-0.318-2.599-0.896c-0.722-0.635-1.087-1.528-1.087-2.655
	c0-0.951,0.495-1.715,0.973-2.453c0.31-0.479,0.747-1.435,0.761-1.465c0,0.001,0,0.001,0,0.001c-0.002,0,0.211-0.757,0.176-1.229
	c-0.04-0.546-0.4-1.021-0.717-1.439c-0.206-0.271-0.383-0.504-0.453-0.734C8.971,10.22,8.725,9.392,9.294,9.007
	C9.355,8.964,9.456,8.932,9.592,8.91C9.576,8.605,9.556,8.103,9.585,7.875c0.067-0.52,0.343-1.093,0.913-1.141
	c0.323-0.029,0.726,0.002,0.96,0.495c0.055,0.115,0.094,0.252,0.146,0.439c0.099,0.372,0.237,0.791,0.394,1.197
	c0.155-0.403,0.292-0.816,0.389-1.174c0.055-0.205,0.093-0.338,0.152-0.463c0.232-0.492,0.637-0.521,0.961-0.494
	c0.532,0.046,0.854,0.694,0.912,1.14c0.035,0.272,0.036,0.611,0.002,1.031c0.103,0.017,0.211,0.047,0.291,0.102
	c0.408,0.275,0.429,0.961,0.237,1.497c-0.096,0.268-0.298,0.512-0.512,0.77c-0.309,0.373-0.628,0.759-0.683,1.254
	c-0.058,0.528,0.037,0.829,0.209,1.374c0.182,0.575,0.396,0.903,0.69,1.356l0.064,0.1c0.479,0.739,0.974,1.504,0.974,2.456
	c0,1.129-0.366,2.021-1.087,2.654C13.937,21.046,13.014,21.364,12,21.364z M10.659,7.226c-0.036,0-0.075,0.002-0.119,0.006
	c-0.293,0.025-0.427,0.457-0.459,0.708c-0.03,0.229,0.008,0.928,0.025,1.178l0.017,0.251L9.872,9.383
	C9.747,9.391,9.599,9.413,9.56,9.429c-0.051,0.036-0.251,0.171-0.028,0.92c0.043,0.143,0.203,0.354,0.373,0.576
	c0.341,0.451,0.767,1.011,0.818,1.705c0.042,0.57-0.197,1.403-0.207,1.438c-0.031,0.075-0.476,1.048-0.808,1.562
	c-0.44,0.68-0.894,1.38-0.894,2.184c0,0.978,0.309,1.744,0.917,2.279c0.568,0.497,1.375,0.771,2.269,0.771
	c0.893,0,1.7-0.274,2.269-0.773c0.608-0.533,0.917-1.299,0.917-2.277c0-0.805-0.454-1.506-0.894-2.185l-0.063-0.098
	c-0.305-0.469-0.546-0.839-0.741-1.457c-0.187-0.592-0.305-0.969-0.235-1.602c0.069-0.644,0.472-1.129,0.794-1.518
	c0.185-0.223,0.359-0.434,0.426-0.619c0.146-0.408,0.095-0.819-0.047-0.916c-0.031-0.016-0.153-0.037-0.261-0.037h-0.278
	l0.006-0.277c0.054-0.493,0.062-0.886,0.024-1.167c-0.04-0.306-0.254-0.69-0.459-0.708c-0.28-0.025-0.377,0.022-0.467,0.211
	c-0.047,0.098-0.077,0.215-0.121,0.378c-0.147,0.55-0.388,1.224-0.643,1.802l-0.458,0c-0.256-0.583-0.496-1.257-0.641-1.803
	c-0.047-0.171-0.076-0.283-0.12-0.376C10.931,7.283,10.848,7.226,10.659,7.226z"/>
</svg>






