<?xml version="1.0" encoding="iso-8859-1"?>
<svg version="1.1" id="&#x56FE;&#x5C42;_1" xmlns="http://www.w3.org/2000/svg" xmlns:xlink="http://www.w3.org/1999/xlink" x="0px"
	 y="0px" viewBox="0 0 24 24" style="enable-background:new 0 0 24 24;" xml:space="preserve">
<path style="fill:#333333;" d="M19.736,21.25H4.553c-0.633,0-1.167-0.474-1.241-1.103L1.951,8.707
	C1.892,8.21,2.048,7.711,2.38,7.338S3.189,6.75,3.689,6.75H5v0.5H3.689c-0.357,0-0.698,0.153-0.935,0.42
	C2.517,7.937,2.405,8.293,2.447,8.648l1.36,11.441c0.045,0.377,0.365,0.661,0.745,0.661h15.184c0.389,0,0.71-0.291,0.747-0.678
	l1.108-11.452C21.626,8.27,21.51,7.92,21.272,7.66c-0.239-0.264-0.568-0.41-0.925-0.41H19v-0.5h1.348
	c0.492,0,0.965,0.209,1.295,0.573c0.332,0.365,0.494,0.855,0.447,1.345l-1.108,11.453C20.919,20.765,20.384,21.25,19.736,21.25z"/>
<rect x="2.5" y="10.75" style="fill:#333333;" width="19" height="0.5"/>
<rect x="7.5" y="14.25" style="fill:#333333;" width="9" height="0.5"/>
<rect x="8.5" y="17.75" style="fill:#333333;" width="7" height="0.5"/>
<path style="fill:#333333;" d="M16.245,11.25H7.756L7.75,10.733C7.75,6.257,9.617,2.75,12,2.75c2.383,0,4.25,3.507,4.25,7.983
	L16.245,11.25z M8.25,10.75l7.5-0.017c0-4.126-1.683-7.483-3.75-7.483c-2.068,0-3.75,3.357-3.75,7.483V10.75z"/>
</svg>






