<?xml version="1.0" encoding="iso-8859-1"?>
<svg version="1.1" id="&#x56FE;&#x5C42;_1" xmlns="http://www.w3.org/2000/svg" xmlns:xlink="http://www.w3.org/1999/xlink" x="0px"
	 y="0px" viewBox="0 0 24 24" style="enable-background:new 0 0 24 24;" xml:space="preserve">
<polygon style="fill:#333333;" points="15.25,16.5 14.75,16.5 14.75,2.25 9.25,2.25 9.25,16.484 8.75,16.484 8.75,1.75 15.25,1.75 
	"/>
<rect x="12.5" y="6.75" style="fill:#333333;" width="2.5" height="0.5"/>
<rect x="12.5" y="9.75" style="fill:#333333;" width="2.5" height="0.5"/>
<path style="fill:#333333;" d="M12,22.25c-1.792,0-3.25-1.525-3.25-3.4v-2.601l6.5,0.034v2.566C15.25,20.725,13.792,22.25,12,22.25z
	 M9.25,16.751v2.099c0,1.6,1.233,2.9,2.75,2.9s2.75-1.301,2.75-2.9v-2.068L9.25,16.751z"/>
</svg>






