<?xml version="1.0" encoding="iso-8859-1"?>
<svg version="1.1" id="&#x56FE;&#x5C42;_1" xmlns="http://www.w3.org/2000/svg" xmlns:xlink="http://www.w3.org/1999/xlink" x="0px"
	 y="0px" viewBox="0 0 24 24" style="enable-background:new 0 0 24 24;" xml:space="preserve">
<g>
	<defs>
		<rect id="SVGID_1_" width="24" height="24"/>
	</defs>
	<clipPath id="SVGID_00000022559760937347950570000010038521477642371223_">
		<use xlink:href="#SVGID_1_"  style="overflow:visible;"/>
	</clipPath>
	<g style="clip-path:url(#SVGID_00000022559760937347950570000010038521477642371223_);">
		<path style="fill:#333333;" d="M9.493,21.309c-2.178,0-4.367-0.782-5.9-2.146C2.404,18.105,1.75,16.805,1.75,15.5
			c0-2.604,1.269-4.413,3.669-5.228c0.323-0.109,0.622-0.196,0.909-0.278c1.039-0.299,1.859-0.535,2.995-1.671
			c0.507-0.507,0.841-1.214,1.194-1.962c0.646-1.37,1.379-2.923,3.404-3.598c1.608-0.535,3.382-0.387,4.865,0.407
			c1.456,0.78,2.506,2.117,2.955,3.764c1.018,3.732-1.935,8.389-3.049,9.726c-2.225,2.669-4.971,4.213-8.163,4.588
			C10.186,21.289,9.84,21.309,9.493,21.309z M15.88,2.946c-0.606,0-1.216,0.096-1.801,0.292c-1.822,0.607-2.477,1.995-3.11,3.337
			c-0.372,0.789-0.724,1.534-1.292,2.103c-1.227,1.227-2.146,1.492-3.21,1.798c-0.279,0.08-0.572,0.164-0.886,0.271
			c-2.21,0.75-3.331,2.35-3.331,4.754c0,1.16,0.595,2.328,1.675,3.289c1.674,1.488,4.181,2.238,6.546,1.963
			c3.062-0.36,5.698-1.845,7.837-4.412c1.348-1.616,3.841-6.01,2.951-9.274c-0.413-1.514-1.375-2.741-2.709-3.455
			C17.727,3.17,16.806,2.946,15.88,2.946z"/>
		<path style="fill:#333333;" d="M9.194,12.633c-1.084,0-2.298-0.559-3.391-1.957l0.394-0.308c1.61,2.06,3.476,2.089,4.612,1.207
			c1.3-1.011,1.715-3.198-0.006-5.422l0.396-0.306c1.921,2.483,1.414,4.959-0.082,6.123C10.583,12.384,9.917,12.633,9.194,12.633z"
			/>
		<path style="fill:#333333;" d="M5.581,10.746L5.42,10.272c0.323-0.109,0.622-0.196,0.909-0.278
			c1.039-0.299,1.859-0.535,2.995-1.671c0.508-0.508,0.841-1.214,1.194-1.963c0.646-1.37,1.379-2.923,3.403-3.598l0.158,0.475
			c-1.821,0.607-2.476,1.995-3.109,3.336c-0.372,0.789-0.724,1.534-1.293,2.103c-1.227,1.227-2.146,1.492-3.21,1.798
			C6.188,10.555,5.896,10.639,5.581,10.746z"/>
	</g>
</g>
</svg>






