<?xml version="1.0" encoding="iso-8859-1"?>
<svg version="1.1" id="&#x56FE;&#x5C42;_1" xmlns="http://www.w3.org/2000/svg" xmlns:xlink="http://www.w3.org/1999/xlink" x="0px"
	 y="0px" viewBox="0 0 24 24" style="enable-background:new 0 0 24 24;" xml:space="preserve">
<path style="fill:#333333;" d="M16.5,20.75H3c-0.689,0-1.25-0.561-1.25-1.25v-8c0-0.689,0.561-1.25,1.25-1.25h13.5
	c0.689,0,1.25,0.561,1.25,1.25v8C17.75,20.189,17.189,20.75,16.5,20.75z M3,10.75c-0.414,0-0.75,0.336-0.75,0.75v8
	c0,0.413,0.336,0.75,0.75,0.75h13.5c0.413,0,0.75-0.337,0.75-0.75v-8c0-0.414-0.337-0.75-0.75-0.75H3z"/>
<path style="fill:#333333;" d="M14.75,17.75h-5v-4.5h5V17.75z M10.25,17.25h4v-3.5h-4V17.25z"/>
<path style="fill:#333333;" d="M13.5,9.25c-1.517,0-2.75-1.233-2.75-2.75s1.233-2.75,2.75-2.75s2.75,1.233,2.75,2.75
	S15.017,9.25,13.5,9.25z M13.5,4.25c-1.24,0-2.25,1.009-2.25,2.25s1.01,2.25,2.25,2.25s2.25-1.009,2.25-2.25S14.74,4.25,13.5,4.25z"
	/>
<path style="fill:#333333;" d="M6.5,9.25c-1.517,0-2.75-1.233-2.75-2.75S4.983,3.75,6.5,3.75S9.25,4.983,9.25,6.5
	S8.017,9.25,6.5,9.25z M6.5,4.25c-1.241,0-2.25,1.009-2.25,2.25S5.259,8.75,6.5,8.75S8.75,7.741,8.75,6.5S7.741,4.25,6.5,4.25z"/>
<polygon style="fill:#333333;" points="22.25,19.885 17.398,17.729 17.602,17.271 21.75,19.115 21.75,11.885 17.602,13.729 
	17.398,13.271 22.25,11.115 "/>
</svg>






