<?xml version="1.0" encoding="iso-8859-1"?>
<svg version="1.1" id="&#x56FE;&#x5C42;_1" xmlns="http://www.w3.org/2000/svg" xmlns:xlink="http://www.w3.org/1999/xlink" x="0px"
	 y="0px" viewBox="0 0 24 24" style="enable-background:new 0 0 24 24;" xml:space="preserve">
<path style="fill:#333333;" d="M17,18.75H3c-0.689,0-1.25-0.561-1.25-1.25v-11c0-0.689,0.561-1.25,1.25-1.25h14
	c0.689,0,1.25,0.561,1.25,1.25v11C18.25,18.189,17.689,18.75,17,18.75z M3,5.75c-0.414,0-0.75,0.336-0.75,0.75v11
	c0,0.413,0.336,0.75,0.75,0.75h14c0.413,0,0.75-0.337,0.75-0.75v-11c0-0.414-0.337-0.75-0.75-0.75H3z"/>
<path style="fill:#333333;" d="M10,15.25c-1.792,0-3.25-1.458-3.25-3.25S8.208,8.75,10,8.75s3.25,1.458,3.25,3.25
	S11.792,15.25,10,15.25z M10,9.25c-1.517,0-2.75,1.233-2.75,2.75s1.233,2.75,2.75,2.75s2.75-1.233,2.75-2.75S11.517,9.25,10,9.25z"
	/>
<polygon style="fill:#333333;" points="22.25,16.904 17.889,14.724 18.111,14.276 21.75,16.096 21.75,7.904 18.111,9.724 
	17.889,9.276 22.25,7.096 "/>
</svg>






