<?xml version="1.0" encoding="iso-8859-1"?>
<svg version="1.1" id="&#x56FE;&#x5C42;_1" xmlns="http://www.w3.org/2000/svg" xmlns:xlink="http://www.w3.org/1999/xlink" x="0px"
	 y="0px" viewBox="0 0 24 24" style="enable-background:new 0 0 24 24;" xml:space="preserve">
<path style="fill:#333333;" d="M17,20.25H3c-0.689,0-1.25-0.561-1.25-1.25V5c0-0.689,0.561-1.25,1.25-1.25h14
	c0.689,0,1.25,0.561,1.25,1.25v4l3.6-2.7l0.4,0.2V18l-0.4,0.2l-3.6-2.7V19C18.25,19.689,17.689,20.25,17,20.25z M3,4.25
	C2.586,4.25,2.25,4.586,2.25,5v14c0,0.413,0.336,0.75,0.75,0.75h14c0.413,0,0.75-0.337,0.75-0.75v-4l0.4-0.2l3.6,2.7V7l-3.6,2.7
	l-0.4-0.2V5c0-0.414-0.337-0.75-0.75-0.75H3z"/>
<path style="fill:#333333;" d="M8.5,13.25c-1.517,0-2.75-1.233-2.75-2.75S6.983,7.75,8.5,7.75s2.75,1.233,2.75,2.75
	S10.017,13.25,8.5,13.25z M8.5,8.25c-1.241,0-2.25,1.009-2.25,2.25s1.009,2.25,2.25,2.25s2.25-1.009,2.25-2.25S9.741,8.25,8.5,8.25z
	"/>
</svg>






