<?xml version="1.0" encoding="iso-8859-1"?>
<svg version="1.1" id="&#x56FE;&#x5C42;_1" xmlns="http://www.w3.org/2000/svg" xmlns:xlink="http://www.w3.org/1999/xlink" x="0px"
	 y="0px" viewBox="0 0 24 24" style="enable-background:new 0 0 24 24;" xml:space="preserve">
<path style="fill:#333333;" d="M12,14.75c-3.446,0-6.25-2.804-6.25-6.25S8.554,2.25,12,2.25s6.25,2.804,6.25,6.25
	S15.446,14.75,12,14.75z M12,2.75c-3.17,0-5.75,2.58-5.75,5.75s2.58,5.75,5.75,5.75c3.171,0,5.75-2.58,5.75-5.75
	S15.171,2.75,12,2.75z"/>
<path style="fill:#333333;" d="M8,21.75c-3.446,0-6.25-2.804-6.25-6.25S4.554,9.25,8,9.25s6.25,2.804,6.25,6.25
	S11.446,21.75,8,21.75z M8,9.75c-3.17,0-5.75,2.579-5.75,5.75S4.83,21.25,8,21.25s5.75-2.579,5.75-5.75S11.17,9.75,8,9.75z"/>
<path style="fill:#333333;" d="M16,21.75c-3.446,0-6.25-2.804-6.25-6.25S12.554,9.25,16,9.25s6.25,2.803,6.25,6.25
	S19.446,21.75,16,21.75z M16,9.75c-3.171,0-5.75,2.58-5.75,5.75c0,3.171,2.579,5.75,5.75,5.75s5.75-2.579,5.75-5.75
	C21.75,12.33,19.171,9.75,16,9.75z"/>
</svg>






