<?xml version="1.0" encoding="iso-8859-1"?>
<svg version="1.1" id="&#x56FE;&#x5C42;_1" xmlns="http://www.w3.org/2000/svg" xmlns:xlink="http://www.w3.org/1999/xlink" x="0px"
	 y="0px" viewBox="0 0 24 24" style="enable-background:new 0 0 24 24;" xml:space="preserve">
<path style="fill:#333333;" d="M3.25,8h-0.5V4c0-0.689,0.561-1.25,1.25-1.25h4v0.5H4C3.586,3.25,3.25,3.586,3.25,4V8z"/>
<path style="fill:#333333;" d="M8,21.25H4c-0.689,0-1.25-0.561-1.25-1.25v-4h0.5v4c0,0.413,0.336,0.75,0.75,0.75h4V21.25z"/>
<path style="fill:#333333;" d="M20,21.25h-4v-0.5h4c0.413,0,0.75-0.337,0.75-0.75v-4h0.5v4C21.25,20.689,20.689,21.25,20,21.25z"/>
<path style="fill:#333333;" d="M21.25,8h-0.5V4c0-0.414-0.337-0.75-0.75-0.75h-4v-0.5h4c0.689,0,1.25,0.561,1.25,1.25V8z"/>
<path style="fill:#333333;" d="M17.75,16.75H6.25v-8h3.116l1-1.5h3.268l1,1.5h3.116V16.75z M6.75,16.25h10.5v-7h-2.884l-1-1.5
	h-2.732l-1,1.5H6.75V16.25z"/>
<path style="fill:#333333;" d="M12,14.25c-0.965,0-1.75-0.785-1.75-1.75s0.785-1.75,1.75-1.75s1.75,0.785,1.75,1.75
	S12.965,14.25,12,14.25z M12,11.25c-0.689,0-1.25,0.561-1.25,1.25s0.561,1.25,1.25,1.25s1.25-0.561,1.25-1.25S12.689,11.25,12,11.25
	z"/>
</svg>






