<?xml version="1.0" encoding="iso-8859-1"?>
<svg version="1.1" id="&#x56FE;&#x5C42;_1" xmlns="http://www.w3.org/2000/svg" xmlns:xlink="http://www.w3.org/1999/xlink" x="0px"
	 y="0px" viewBox="0 0 24 24" style="enable-background:new 0 0 24 24;" xml:space="preserve">
<path style="fill:#333333;" d="M12,20.494c-0.215,0-0.42-0.092-0.562-0.254L2.082,9.635C1.644,9.184,1.635,8.484,2.067,8.014h0
	l4.006-4.347C6.318,3.402,6.67,3.25,7.041,3.25h9.918c0.371,0,0.724,0.152,0.967,0.417l4.006,4.347
	c0.434,0.47,0.425,1.17-0.021,1.63L12.562,20.24C12.42,20.402,12.215,20.494,12,20.494z M2.435,8.353
	c-0.25,0.272-0.244,0.677,0.013,0.942l9.364,10.615c0.097,0.107,0.279,0.106,0.375,0l9.355-10.606
	c0.267-0.274,0.272-0.68,0.021-0.951l-4.006-4.347c-0.149-0.163-0.368-0.255-0.6-0.255H7.041c-0.231,0-0.45,0.093-0.6,0.255
	L2.435,8.353z"/>
<polygon style="fill:#333333;" points="12,14.876 7.813,10.166 8.187,9.834 12,14.124 15.813,9.834 16.187,10.166 "/>
</svg>






