<?xml version="1.0" encoding="iso-8859-1"?>
<svg version="1.1" id="&#x56FE;&#x5C42;_1" xmlns="http://www.w3.org/2000/svg" xmlns:xlink="http://www.w3.org/1999/xlink" x="0px"
	 y="0px" viewBox="0 0 24 24" style="enable-background:new 0 0 24 24;" xml:space="preserve">
<path style="fill:#333333;" d="M21.5,20.25h-6.604l-2.893-2.896l-2.9,2.896H2.5c-0.414,0-0.75-0.337-0.75-0.75v-11
	c0-0.414,0.336-0.75,0.75-0.75h19c0.413,0,0.75,0.336,0.75,0.75v11C22.25,19.913,21.913,20.25,21.5,20.25z M15.104,19.75H21.5
	c0.138,0,0.25-0.112,0.25-0.25v-11c0-0.138-0.112-0.25-0.25-0.25h-19c-0.138,0-0.25,0.112-0.25,0.25v11
	c0,0.138,0.112,0.25,0.25,0.25h6.396l3.107-3.103L15.104,19.75z"/>
<path style="fill:#333333;" d="M7,16.25c-1.241,0-2.25-1.01-2.25-2.25S5.759,11.75,7,11.75S9.25,12.76,9.25,14S8.241,16.25,7,16.25z
	 M7,12.25c-0.965,0-1.75,0.785-1.75,1.75S6.035,15.75,7,15.75S8.75,14.965,8.75,14S7.965,12.25,7,12.25z"/>
<path style="fill:#333333;" d="M17,16.25c-1.24,0-2.25-1.01-2.25-2.25s1.01-2.25,2.25-2.25s2.25,1.01,2.25,2.25
	S18.24,16.25,17,16.25z M17,12.25c-0.965,0-1.75,0.785-1.75,1.75s0.785,1.75,1.75,1.75s1.75-0.785,1.75-1.75S17.965,12.25,17,12.25z
	"/>
<path style="fill:none;" d="M3,5h18H3z"/>
<rect x="3" y="4.75" style="fill:#333333;" width="18" height="0.5"/>
</svg>






