<?xml version="1.0" encoding="iso-8859-1"?>
<svg version="1.1" id="&#x56FE;&#x5C42;_1" xmlns="http://www.w3.org/2000/svg" xmlns:xlink="http://www.w3.org/1999/xlink" x="0px"
	 y="0px" viewBox="0 0 24 24" style="enable-background:new 0 0 24 24;" xml:space="preserve">
<path style="fill:#333333;" d="M12,22.25C6.348,22.25,1.75,17.652,1.75,12C1.75,6.348,6.348,1.75,12,1.75
	c5.652,0,10.25,4.598,10.25,10.25C22.25,17.652,17.652,22.25,12,22.25z M12,2.25c-5.376,0-9.75,4.374-9.75,9.75
	s4.374,9.75,9.75,9.75s9.75-4.374,9.75-9.75S17.376,2.25,12,2.25z"/>
<path style="fill:#333333;" d="M8.5,12.95c0.552,0,1-0.448,1-1c0-0.552-0.448-1-1-1s-1,0.448-1,1C7.5,12.502,7.948,12.95,8.5,12.95z
	"/>
<path style="fill:#333333;" d="M11.151,14.602l-0.354-0.354c0.614-0.614,0.952-1.431,0.952-2.298c0-0.868-0.338-1.684-0.952-2.298
	l0.354-0.354c0.708,0.708,1.099,1.65,1.099,2.652S11.86,13.894,11.151,14.602z"/>
<path style="fill:#333333;" d="M13.626,17.076l-0.354-0.354c1.275-1.274,1.978-2.97,1.978-4.773c0-1.804-0.702-3.499-1.978-4.773
	l0.354-0.354c1.37,1.369,2.124,3.189,2.124,5.126S14.996,15.708,13.626,17.076z"/>
</svg>






