<?xml version="1.0" encoding="iso-8859-1"?>
<svg version="1.1" id="&#x56FE;&#x5C42;_1" xmlns="http://www.w3.org/2000/svg" xmlns:xlink="http://www.w3.org/1999/xlink" x="0px"
	 y="0px" viewBox="0 0 24 24" style="enable-background:new 0 0 24 24;" xml:space="preserve">
<path style="fill:#333333;" d="M12,15.75c-2.068,0-3.75-1.683-3.75-3.75V5.5c0-2.068,1.682-3.75,3.75-3.75
	c2.067,0,3.75,1.682,3.75,3.75V12C15.75,14.067,14.067,15.75,12,15.75z M12,2.25c-1.792,0-3.25,1.458-3.25,3.25V12
	c0,1.792,1.458,3.25,3.25,3.25s3.25-1.458,3.25-3.25V5.5C15.25,3.708,13.792,2.25,12,2.25z"/>
<path style="fill:#333333;" d="M12,19.25c-4.273,0-7.75-3.477-7.75-7.75h0.5c0,3.998,3.252,7.25,7.25,7.25
	c0.829,0,1.642-0.139,2.417-0.412l0.166,0.471C13.755,19.102,12.886,19.25,12,19.25z M19.105,14.6L18.646,14.4
	c0.4-0.917,0.604-1.893,0.604-2.9h0.5C19.75,12.577,19.533,13.62,19.105,14.6z"/>
<rect x="11.75" y="19" style="fill:#333333;" width="0.5" height="3"/>
<rect x="11.75" y="-0.728" transform="matrix(0.7071 -0.7071 0.7071 0.7071 -4.9706 12)" style="fill:#333333;" width="0.5" height="25.456"/>
</svg>






