<?xml version="1.0" encoding="iso-8859-1"?>
<svg version="1.1" id="&#x56FE;&#x5C42;_1" xmlns="http://www.w3.org/2000/svg" xmlns:xlink="http://www.w3.org/1999/xlink" x="0px"
	 y="0px" viewBox="0 0 24 24" style="enable-background:new 0 0 24 24;" xml:space="preserve">
<path style="fill:#333333;" d="M5.5,15.75c-2.068,0-3.75-1.683-3.75-3.75c0-2.068,1.682-3.75,3.75-3.75S9.25,9.932,9.25,12
	C9.25,14.067,7.568,15.75,5.5,15.75z M5.5,8.75c-1.792,0-3.25,1.458-3.25,3.25s1.458,3.25,3.25,3.25S8.75,13.792,8.75,12
	S7.292,8.75,5.5,8.75z"/>
<path style="fill:#333333;" d="M18.5,15.75c-2.067,0-3.75-1.683-3.75-3.75c0-2.068,1.683-3.75,3.75-3.75s3.75,1.682,3.75,3.75
	C22.25,14.067,20.567,15.75,18.5,15.75z M18.5,8.75c-1.792,0-3.25,1.458-3.25,3.25s1.458,3.25,3.25,3.25s3.25-1.458,3.25-3.25
	S20.292,8.75,18.5,8.75z"/>
<rect x="6" y="15.25" style="fill:#333333;" width="12" height="0.5"/>
</svg>






