<?xml version="1.0" encoding="iso-8859-1"?>
<svg version="1.1" id="&#x56FE;&#x5C42;_1" xmlns="http://www.w3.org/2000/svg" xmlns:xlink="http://www.w3.org/1999/xlink" x="0px"
	 y="0px" viewBox="0 0 24 24" style="enable-background:new 0 0 24 24;" xml:space="preserve">
<path style="fill:#333333;" d="M12.017,22.248c-3.989,0-7.791-2.346-9.449-6.246c-1.07-2.517-1.094-5.301-0.067-7.84
	c1.026-2.537,2.979-4.524,5.498-5.595c2.517-1.071,5.302-1.095,7.842-0.067c2.539,1.027,4.525,2.979,5.594,5.498
	c2.205,5.199-0.231,11.225-5.432,13.435C14.702,21.986,13.349,22.248,12.017,22.248z M11.998,2.247c-1.291,0-2.581,0.26-3.804,0.78
	C5.798,4.046,3.94,5.936,2.964,8.35c-0.977,2.415-0.955,5.062,0.063,7.457c2.105,4.949,7.839,7.266,12.78,5.166l0,0
	c4.946-2.102,7.264-7.834,5.166-12.779c-1.016-2.396-2.905-4.253-5.32-5.23C14.472,2.486,13.233,2.247,11.998,2.247z"/>
<path style="fill:#333333;" d="M11.867,12.212c-3.211-2.014-4.863-5.737-4.112-9.264l0.489,0.104
	c-0.708,3.322,0.854,6.833,3.888,8.736L11.867,12.212z"/>
<path style="fill:#333333;" d="M6.077,20.238l-0.154-0.477c3.359-1.089,5.701-4.212,5.827-7.771l0.5,0.018
	C12.116,15.777,9.635,19.084,6.077,20.238z"/>
<path style="fill:#333333;" d="M21.837,12.689c-2.788-2.391-7.206-2.111-9.7-0.48l-0.273-0.418c2.644-1.73,7.333-2.023,10.3,0.52
	L21.837,12.689z"/>
<path style="fill:#333333;" d="M8.648,8.202L8.352,7.798c0.06-0.042,5.984-4.297,12.263-1.02l-0.23,0.443
	C14.379,4.088,8.705,8.161,8.648,8.202z"/>
<path style="fill:#333333;" d="M9.907,16.732C9.843,16.706,3.548,14.1,3.25,7.011l0.5-0.021c0.284,6.76,6.283,9.254,6.343,9.278
	L9.907,16.732z"/>
<path style="fill:#333333;" d="M11.994,22.226l-0.269-0.422c5.724-3.64,5.033-10.706,5.025-10.777l0.498-0.054
	C17.257,11.047,17.977,18.422,11.994,22.226z"/>
</svg>






