<?xml version="1.0" encoding="iso-8859-1"?>
<svg version="1.1" id="&#x56FE;&#x5C42;_1" xmlns="http://www.w3.org/2000/svg" xmlns:xlink="http://www.w3.org/1999/xlink" x="0px"
	 y="0px" viewBox="0 0 24 24" style="enable-background:new 0 0 24 24;" xml:space="preserve">
<path style="fill:#333333;" d="M12.25,21.25H12c-3.313,0-5.781-3.814-6.244-4.58H3c-0.689,0-1.25-0.561-1.25-1.25V8.505
	c0-0.689,0.561-1.25,1.25-1.25h2.758C6.221,6.501,8.689,2.75,12,2.75h0.25V21.25z M3,7.755c-0.414,0-0.75,0.336-0.75,0.75v6.915
	c0,0.413,0.336,0.75,0.75,0.75h3.045l0.072,0.127c0.025,0.043,2.444,4.232,5.633,4.444V3.258C8.56,3.467,6.141,7.588,6.116,7.63
	L6.043,7.755H3z"/>
<path style="fill:#333333;" d="M16.167,16.687l-0.334-0.373c0.307-0.273,0.584-0.581,0.826-0.915
	C17.373,14.41,17.75,13.234,17.75,12c0-1.245-0.384-2.429-1.11-3.423c-0.237-0.325-0.508-0.624-0.807-0.89l0.334-0.373
	c0.323,0.29,0.619,0.615,0.877,0.968C17.833,9.362,18.25,10.648,18.25,12c0,1.341-0.41,2.617-1.186,3.691
	C16.801,16.055,16.499,16.39,16.167,16.687z"/>
</svg>






