<?xml version="1.0" encoding="iso-8859-1"?>
<svg version="1.1" id="&#x56FE;&#x5C42;_1" xmlns="http://www.w3.org/2000/svg" xmlns:xlink="http://www.w3.org/1999/xlink" x="0px"
	 y="0px" viewBox="0 0 24 24" style="enable-background:new 0 0 24 24;" xml:space="preserve">
<path style="fill:#333333;" d="M12.25,21.25H12c-3.313,0-5.781-3.814-6.244-4.58H3c-0.689,0-1.25-0.561-1.25-1.25V8.505
	c0-0.689,0.561-1.25,1.25-1.25h2.758C6.221,6.501,8.689,2.75,12,2.75h0.25V21.25z M3,7.755c-0.414,0-0.75,0.336-0.75,0.75v6.915
	c0,0.413,0.336,0.75,0.75,0.75h3.045l0.072,0.127c0.025,0.043,2.444,4.232,5.633,4.444V3.258C8.56,3.467,6.141,7.588,6.116,7.63
	L6.043,7.755H3z"/>
<rect x="16" y="11.75" style="fill:#333333;" width="6" height="0.5"/>
<rect x="18.75" y="9" style="fill:#333333;" width="0.5" height="6"/>
</svg>






