<?xml version="1.0" encoding="iso-8859-1"?>
<svg version="1.1" id="&#x56FE;&#x5C42;_1" xmlns="http://www.w3.org/2000/svg" xmlns:xlink="http://www.w3.org/1999/xlink" x="0px"
	 y="0px" viewBox="0 0 24 24" style="enable-background:new 0 0 24 24;" xml:space="preserve">
<path style="fill:#333333;" d="M23.25,18.25h-8.354L12,15.354L9.104,18.25H0.75V5.75h22.5V18.25z M15.104,17.75h7.646V6.25H1.25
	v11.5h7.646L12,14.646L15.104,17.75z"/>
<path style="fill:#333333;" d="M6.5,14.25c-1.241,0-2.25-1.01-2.25-2.25c0-1.241,1.009-2.25,2.25-2.25S8.75,10.759,8.75,12
	C8.75,13.24,7.741,14.25,6.5,14.25z M6.5,10.25c-0.965,0-1.75,0.785-1.75,1.75s0.785,1.75,1.75,1.75S8.25,12.965,8.25,12
	S7.465,10.25,6.5,10.25z"/>
<path style="fill:#333333;" d="M17.5,14.25c-1.24,0-2.25-1.01-2.25-2.25c0-1.241,1.01-2.25,2.25-2.25s2.25,1.009,2.25,2.25
	C19.75,13.24,18.74,14.25,17.5,14.25z M17.5,10.25c-0.965,0-1.75,0.785-1.75,1.75s0.785,1.75,1.75,1.75s1.75-0.785,1.75-1.75
	S18.465,10.25,17.5,10.25z"/>
</svg>






