<?xml version="1.0" encoding="iso-8859-1"?>
<svg version="1.1" id="&#x56FE;&#x5C42;_1" xmlns="http://www.w3.org/2000/svg" xmlns:xlink="http://www.w3.org/1999/xlink" x="0px"
	 y="0px" viewBox="0 0 24 24" style="enable-background:new 0 0 24 24;" xml:space="preserve">
<path style="fill:#333333;" d="M12.035,16.751c-2.465,0-4.615-0.518-5.646-1.026l0.222-0.449c1.307,0.647,6.294,1.847,10.794-0.007
	l0.189,0.463C15.78,16.479,13.824,16.751,12.035,16.751z"/>
<circle style="fill:#333333;" cx="12" cy="12.706" r="1"/>
<path style="fill:#333333;" d="M4.75,21.517L4.25,21.483c0.159-2.429,0.848-3.872,1.577-5.4c0.322-0.674,0.654-1.37,0.937-2.16
	c0.327-0.913,0.49-1.896,0.486-2.922C7.233,7.147,5.191,3.346,4.782,2.623l0.436-0.246c0.419,0.742,2.515,4.644,2.532,8.622
	c0.004,1.084-0.168,2.125-0.515,3.092c-0.291,0.814-0.629,1.522-0.956,2.207C5.571,17.782,4.902,19.184,4.75,21.517z"/>
<path style="fill:#333333;" d="M19.251,21.517c-0.153-2.334-0.822-3.735-1.53-5.219c-0.327-0.686-0.665-1.393-0.956-2.207
	c-0.347-0.969-0.52-2.01-0.515-3.092c0.018-3.979,2.112-7.88,2.532-8.622l0.436,0.246c-0.409,0.723-2.451,4.524-2.468,8.378
	c-0.005,1.024,0.158,2.008,0.485,2.922c0.282,0.79,0.615,1.486,0.937,2.159c0.729,1.528,1.419,2.973,1.577,5.401L19.251,21.517z"/>
<path style="fill:#333333;" d="M4.23,13.097L3.77,12.903C3.774,12.892,4.25,11.745,4.25,11c0-0.927-0.469-1.879-0.474-1.888
	l0.447-0.224C4.245,8.931,4.75,9.953,4.75,11C4.75,11.846,4.252,13.046,4.23,13.097z"/>
<path style="fill:#333333;" d="M19.77,13.097c-0.021-0.051-0.52-1.251-0.52-2.097c0-1.047,0.505-2.069,0.526-2.112l0.447,0.224
	C20.219,9.121,19.75,10.073,19.75,11c0,0.745,0.476,1.892,0.48,1.903L19.77,13.097z"/>
</svg>






