<?xml version="1.0" encoding="iso-8859-1"?>
<svg version="1.1" id="&#x56FE;&#x5C42;_1" xmlns="http://www.w3.org/2000/svg" xmlns:xlink="http://www.w3.org/1999/xlink" x="0px"
	 y="0px" viewBox="0 0 24 24" style="enable-background:new 0 0 24 24;" xml:space="preserve">
<path style="fill:#333333;" d="M18,21.25H4.5c-0.965,0-1.75-0.785-1.75-1.75v-15c0-0.965,0.785-1.75,1.75-1.75H18
	c0.965,0,1.75,0.785,1.75,1.75V8h-0.5V4.5c0-0.689-0.561-1.25-1.25-1.25H4.5c-0.689,0-1.25,0.561-1.25,1.25v15
	c0,0.689,0.561,1.25,1.25,1.25H18c0.689,0,1.25-0.561,1.25-1.25V16h0.5v3.5C19.75,20.465,18.965,21.25,18,21.25z"/>
<path style="fill:#333333;" d="M19.5,16.25h-7c-0.965,0-1.75-0.785-1.75-1.75v-5c0-0.965,0.785-1.75,1.75-1.75h7
	c0.965,0,1.75,0.785,1.75,1.75v5C21.25,15.465,20.465,16.25,19.5,16.25z M12.5,8.25c-0.689,0-1.25,0.561-1.25,1.25v5
	c0,0.689,0.561,1.25,1.25,1.25h7c0.689,0,1.25-0.561,1.25-1.25v-5c0-0.689-0.561-1.25-1.25-1.25H12.5z"/>
<circle style="fill:#333333;" cx="15" cy="12" r="1"/>
</svg>






