<?xml version="1.0" encoding="iso-8859-1"?>
<svg version="1.1" id="&#x56FE;&#x5C42;_1" xmlns="http://www.w3.org/2000/svg" xmlns:xlink="http://www.w3.org/1999/xlink" x="0px"
	 y="0px" viewBox="0 0 24 24" style="enable-background:new 0 0 24 24;" xml:space="preserve">
<path style="fill:#333333;" d="M18.198,6.245l-9.208-0.01L8.866,5.768l7.118-4.109l2.431,4.211L18.198,6.245z M9.922,5.735
	l7.842,0.009l-1.964-3.403L9.922,5.735z"/>
<path style="fill:#333333;" d="M21,22.25H3c-0.689,0-1.25-0.561-1.25-1.25V7c0-0.689,0.561-1.25,1.25-1.25h18
	c0.689,0,1.25,0.561,1.25,1.25v14C22.25,21.689,21.689,22.25,21,22.25z M3,6.25C2.586,6.25,2.25,6.586,2.25,7v14
	c0,0.413,0.336,0.75,0.75,0.75h18c0.413,0,0.75-0.337,0.75-0.75V7c0-0.414-0.337-0.75-0.75-0.75H3z"/>
<path style="fill:#333333;" d="M22.25,16.75h-4.625c-1.585,0-2.875-1.233-2.875-2.75s1.29-2.75,2.875-2.75h4.625V16.75z
	 M17.625,11.75c-1.31,0-2.375,1.01-2.375,2.25s1.065,2.25,2.375,2.25h4.125v-4.5H17.625z"/>
<rect x="21.75" y="8.25" style="fill:#333333;" width="0.5" height="12"/>
</svg>






