<?xml version="1.0" encoding="iso-8859-1"?>
<svg version="1.1" id="&#x56FE;&#x5C42;_1" xmlns="http://www.w3.org/2000/svg" xmlns:xlink="http://www.w3.org/1999/xlink" x="0px"
	 y="0px" viewBox="0 0 24 24" style="enable-background:new 0 0 24 24;" xml:space="preserve">
<rect x="9" y="11.75" style="fill:#333333;" width="8" height="0.5"/>
<polygon style="fill:#333333;" points="11.823,15.177 8.646,12 11.823,8.823 12.177,9.177 9.354,12 12.177,14.823 "/>
<path style="fill:#333333;" d="M19,14.25c-1.24,0-2.25-1.01-2.25-2.25c0-1.241,1.01-2.25,2.25-2.25s2.25,1.009,2.25,2.25
	C21.25,13.24,20.24,14.25,19,14.25z M19,10.25c-0.965,0-1.75,0.785-1.75,1.75s0.785,1.75,1.75,1.75s1.75-0.785,1.75-1.75
	S19.965,10.25,19,10.25z"/>
<path style="fill:#333333;" d="M12,22.25C6.348,22.25,1.75,17.652,1.75,12C1.75,6.348,6.348,1.75,12,1.75
	c2.699,0,5.248,1.041,7.175,2.93c0.521,0.512,0.988,1.078,1.387,1.683l-0.418,0.275c-0.379-0.576-0.822-1.114-1.318-1.601
	C16.991,3.24,14.567,2.25,12,2.25c-5.376,0-9.75,4.374-9.75,9.75s4.374,9.75,9.75,9.75c2.568,0,4.992-0.989,6.825-2.787
	c0.496-0.486,0.939-1.024,1.318-1.601l0.418,0.275c-0.398,0.604-0.865,1.171-1.387,1.683C17.248,21.21,14.7,22.25,12,22.25z"/>
</svg>






