<?xml version="1.0" encoding="iso-8859-1"?>
<svg version="1.1" id="&#x56FE;&#x5C42;_1" xmlns="http://www.w3.org/2000/svg" xmlns:xlink="http://www.w3.org/1999/xlink" x="0px"
	 y="0px" viewBox="0 0 24 24" style="enable-background:new 0 0 24 24;" xml:space="preserve">
<polygon style="fill:#333333;" points="15.686,22.25 8.315,22.25 6.283,15.573 6.761,15.427 8.685,21.75 15.314,21.75 
	17.239,15.427 17.718,15.573 "/>
<polygon style="fill:#333333;" points="17.239,8.573 15.314,2.25 8.685,2.25 6.761,8.573 6.283,8.427 8.315,1.75 15.686,1.75 
	17.718,8.427 "/>
<path style="fill:#333333;" d="M12,18.75c-2.313,0-4.44-1.165-5.688-3.115C5.617,14.55,5.25,13.293,5.25,12
	c0-1.293,0.367-2.55,1.062-3.635C7.56,6.415,9.687,5.25,12,5.25s4.44,1.165,5.689,3.115C18.383,9.45,18.75,10.707,18.75,12
	c0,1.293-0.367,2.55-1.061,3.635C16.439,17.586,14.312,18.75,12,18.75z M12,5.75c-2.142,0-4.111,1.079-5.268,2.885
	C6.09,9.639,5.75,10.802,5.75,12c0,1.197,0.34,2.361,0.982,3.365C7.889,17.172,9.858,18.25,12,18.25s4.111-1.078,5.268-2.885
	C17.91,14.36,18.25,13.197,18.25,12c0-1.198-0.34-2.361-0.982-3.365C16.111,6.829,14.142,5.75,12,5.75z"/>
<polygon style="fill:#333333;" points="13.823,14.177 11.75,12.104 11.75,8.5 12.25,8.5 12.25,11.896 14.177,13.823 "/>
</svg>






