<?xml version="1.0" encoding="iso-8859-1"?>
<svg version="1.1" id="&#x56FE;&#x5C42;_1" xmlns="http://www.w3.org/2000/svg" xmlns:xlink="http://www.w3.org/1999/xlink" x="0px"
	 y="0px" viewBox="0 0 24 24" style="enable-background:new 0 0 24 24;" xml:space="preserve">
<path style="fill:#333333;" d="M12,22.25C6.348,22.25,1.75,17.652,1.75,12h0.5c0,1.24,1.009,2.25,2.25,2.25S6.75,13.24,6.75,12h0.5
	c0,1.24,1.009,2.25,2.25,2.25s2.25-1.01,2.25-2.25h0.5c0,1.24,1.01,2.25,2.25,2.25s2.25-1.01,2.25-2.25h0.5
	c0,1.24,1.01,2.25,2.25,2.25s2.25-1.01,2.25-2.25h0.5C22.25,17.652,17.652,22.25,12,22.25z M2.415,13.791
	C3.258,18.314,7.235,21.75,12,21.75s8.742-3.436,9.585-7.959c-0.505,0.587-1.252,0.959-2.085,0.959c-1.107,0-2.064-0.658-2.5-1.604
	c-0.436,0.946-1.393,1.604-2.5,1.604s-2.064-0.658-2.5-1.604c-0.435,0.946-1.392,1.604-2.5,1.604S7.435,14.092,7,13.146
	c-0.435,0.946-1.392,1.604-2.5,1.604C3.667,14.75,2.919,14.378,2.415,13.791z"/>
<path style="fill:#333333;" d="M12,8.75c-1.241,0-2.25-1.009-2.25-2.25c0-1.14,1.826-4.273,2.035-4.627L12,1.507l0.216,0.366
	C12.424,2.227,14.25,5.36,14.25,6.5C14.25,7.741,13.24,8.75,12,8.75z M12,2.5c-0.634,1.119-1.75,3.246-1.75,4
	c0,0.965,0.785,1.75,1.75,1.75s1.75-0.785,1.75-1.75C13.75,5.746,12.634,3.619,12,2.5z"/>
</svg>






