<?xml version="1.0" encoding="iso-8859-1"?>
<svg version="1.1" id="&#x56FE;&#x5C42;_1" xmlns="http://www.w3.org/2000/svg" xmlns:xlink="http://www.w3.org/1999/xlink" x="0px"
	 y="0px" viewBox="0 0 24 24" style="enable-background:new 0 0 24 24;" xml:space="preserve">
<path style="fill:#333333;" d="M19.5,18.249c-0.467,0-0.934-0.118-1.369-0.354c-0.729-0.395-1.533-0.395-2.262,0
	c-0.871,0.471-1.867,0.471-2.738,0c-0.729-0.395-1.533-0.395-2.262,0c-0.87,0.471-1.868,0.471-2.738,0
	c-0.729-0.395-1.533-0.395-2.262,0c-0.87,0.471-1.868,0.471-2.738,0l-1.25-0.676l0.237-0.439l1.25,0.676
	c0.729,0.395,1.534,0.395,2.262,0c0.87-0.471,1.868-0.471,2.738,0c0.729,0.395,1.533,0.395,2.262,0c0.87-0.471,1.867-0.471,2.738,0
	c0.729,0.395,1.533,0.395,2.262,0c0.871-0.471,1.867-0.471,2.738,0c0.729,0.395,1.533,0.395,2.262,0l1.25-0.676l0.238,0.439
	l-1.25,0.676C20.434,18.131,19.967,18.249,19.5,18.249z"/>
<path style="fill:#333333;" d="M19.5,21.249c-0.467,0-0.934-0.118-1.369-0.354c-0.729-0.395-1.533-0.395-2.262,0
	c-0.871,0.471-1.867,0.471-2.738,0c-0.729-0.395-1.533-0.395-2.262,0c-0.87,0.471-1.868,0.471-2.738,0
	c-0.729-0.395-1.533-0.395-2.262,0c-0.87,0.471-1.868,0.471-2.738,0l-1.25-0.676l0.237-0.439l1.25,0.676
	c0.729,0.395,1.534,0.395,2.262,0c0.87-0.471,1.868-0.471,2.738,0c0.729,0.395,1.533,0.395,2.262,0c0.87-0.471,1.867-0.471,2.738,0
	c0.729,0.395,1.533,0.395,2.262,0c0.871-0.471,1.867-0.471,2.738,0c0.729,0.395,1.533,0.395,2.262,0l1.25-0.676l0.238,0.439
	l-1.25,0.676C20.434,21.131,19.967,21.249,19.5,21.249z"/>
<path style="fill:#333333;" d="M22.039,14.051l-0.49-0.102c0.399-1.937,0.199-3.927-0.58-5.754
	c-1.016-2.398-2.906-4.257-5.321-5.232c-2.416-0.977-5.062-0.952-7.457,0.065C3.948,4.83,1.529,9.411,2.44,13.92l-0.49,0.1
	C0.993,9.278,3.535,4.462,7.996,2.568c2.516-1.069,5.301-1.095,7.838-0.069c2.54,1.026,4.527,2.979,5.596,5.5
	C22.248,9.92,22.459,12.013,22.039,14.051z"/>
<path style="fill:#333333;" d="M11.867,12.212c-3.263-2.043-4.876-5.68-4.112-9.264l0.489,0.104
	c-0.721,3.376,0.806,6.805,3.888,8.736L11.867,12.212z"/>
<path style="fill:#333333;" d="M11.936,14.065l-0.482-0.131c0.172-0.637,0.272-1.29,0.296-1.944l0.5,0.018
	C12.225,12.7,12.118,13.393,11.936,14.065z"/>
<path style="fill:#333333;" d="M21.833,13.186c-2.559-2.305-6.464-2.694-9.716-0.965l-0.234-0.441
	c3.438-1.828,7.57-1.41,10.284,1.035L21.833,13.186z"/>
<path style="fill:#333333;" d="M9.157,8.195l-0.313-0.39c0.054-0.043,5.481-4.31,11.772-1.027l-0.23,0.443
	C14.386,4.094,9.208,8.154,9.157,8.195z"/>
<path style="fill:#333333;" d="M6.315,14.169C4.364,12.034,3.361,9.693,3.25,7.01l0.5-0.021c0.105,2.56,1.065,4.798,2.935,6.841
	L6.315,14.169z"/>
<path style="fill:#333333;" d="M17.211,14.062l-0.492-0.086c0.29-1.668,0.188-2.898,0.188-2.91l0.498-0.043
	C17.409,11.076,17.513,12.325,17.211,14.062z"/>
</svg>






