<?xml version="1.0" encoding="iso-8859-1"?>
<svg version="1.1" id="&#x56FE;&#x5C42;_1" xmlns="http://www.w3.org/2000/svg" xmlns:xlink="http://www.w3.org/1999/xlink" x="0px"
	 y="0px" viewBox="0 0 24 24" style="enable-background:new 0 0 24 24;" xml:space="preserve">
<path style="fill:#333333;" d="M12,22.25c-4.549,0-8.25-3.375-8.25-7.522c0-3.998,2.721-8.344,8.088-12.918L12,1.671l0.162,0.138
	c5.367,4.574,8.088,8.92,8.088,12.918C20.25,18.875,16.549,22.25,12,22.25z M12,2.329c-5.143,4.423-7.75,8.594-7.75,12.398
	c0,3.872,3.477,7.022,7.75,7.022s7.75-3.15,7.75-7.022C19.75,10.923,17.143,6.752,12,2.329z"/>
<polygon style="fill:#333333;" points="12,12.546 9.248,9.673 9.609,9.327 12,11.823 14.391,9.327 14.752,9.673 "/>
<rect x="9" y="12.829" style="fill:#333333;" width="6" height="0.5"/>
<rect x="9" y="15.514" style="fill:#333333;" width="6" height="0.5"/>
<rect x="11.75" y="13.079" style="fill:#333333;" width="0.5" height="4.921"/>
</svg>






