<?xml version="1.0" encoding="iso-8859-1"?>
<svg version="1.1" id="&#x56FE;&#x5C42;_1" xmlns="http://www.w3.org/2000/svg" xmlns:xlink="http://www.w3.org/1999/xlink" x="0px"
	 y="0px" viewBox="0 0 24 24" style="enable-background:new 0 0 24 24;" xml:space="preserve">
<path style="fill:#333333;" d="M12,22.25C6.348,22.25,1.75,17.652,1.75,12h0.5c0,1.24,1.009,2.25,2.25,2.25S6.75,13.24,6.75,12h0.5
	c0,1.24,1.009,2.25,2.25,2.25s2.25-1.01,2.25-2.25h0.5c0,1.24,1.01,2.25,2.25,2.25s2.25-1.01,2.25-2.25h0.5
	c0,1.24,1.01,2.25,2.25,2.25s2.25-1.01,2.25-2.25h0.5C22.25,17.652,17.652,22.25,12,22.25z M2.415,13.791
	C3.258,18.314,7.235,21.75,12,21.75s8.742-3.436,9.585-7.959c-0.505,0.587-1.252,0.959-2.085,0.959c-1.107,0-2.064-0.658-2.5-1.604
	c-0.436,0.946-1.393,1.604-2.5,1.604s-2.064-0.658-2.5-1.604c-0.435,0.946-1.392,1.604-2.5,1.604S7.435,14.092,7,13.146
	c-0.435,0.946-1.392,1.604-2.5,1.604C3.667,14.75,2.919,14.378,2.415,13.791z"/>
<rect x="11.75" y="1.464" transform="matrix(0.7071 -0.7071 0.7071 0.7071 -0.0208 9.9497)" style="fill:#333333;" width="0.5" height="7.071"/>
<rect x="8.464" y="4.75" transform="matrix(0.7071 -0.7071 0.7071 0.7071 -0.0208 9.9497)" style="fill:#333333;" width="7.071" height="0.5"/>
</svg>






