<?xml version="1.0" encoding="iso-8859-1"?>
<svg version="1.1" id="&#x56FE;&#x5C42;_1" xmlns="http://www.w3.org/2000/svg" xmlns:xlink="http://www.w3.org/1999/xlink" x="0px"
	 y="0px" viewBox="0 0 24 24" style="enable-background:new 0 0 24 24;" xml:space="preserve">
<path style="fill:#333333;" d="M12,19.25c-6.043,0-8.555-2.012-8.659-2.097L3.179,17.02l8.604-15.143h0.435l8.604,15.143
	l-0.162,0.134C20.555,17.238,18.043,19.25,12,19.25z M3.829,16.888C4.477,17.318,7.01,18.75,12,18.75
	c4.989,0,7.522-1.432,8.171-1.862L12,2.506L3.829,16.888z"/>
<circle style="fill:#333333;" cx="12" cy="8.5" r="1"/>
<circle style="fill:#333333;" cx="13.5" cy="11.5" r="1"/>
<circle style="fill:#333333;" cx="10.5" cy="11.5" r="1"/>
<path style="fill:#333333;" d="M12,22.25c-6.043,0-8.555-2.012-8.659-2.097l0.317-0.387C3.683,19.786,6.157,21.75,12,21.75
	c5.842,0,8.317-1.964,8.342-1.983l0.317,0.387C20.555,20.238,18.043,22.25,12,22.25z"/>
</svg>






