<?xml version="1.0" encoding="iso-8859-1"?>
<svg version="1.1" id="&#x56FE;&#x5C42;_1" xmlns="http://www.w3.org/2000/svg" xmlns:xlink="http://www.w3.org/1999/xlink" x="0px"
	 y="0px" viewBox="0 0 24 24" style="enable-background:new 0 0 24 24;" xml:space="preserve">
<path style="fill:#333333;" d="M12,22.25c-4.549,0-8.25-3.701-8.25-8.25c0-6.556,7.777-11.979,8.108-12.206L12,1.697l0.142,0.097
	C12.473,2.021,20.25,7.444,20.25,14C20.25,18.549,16.549,22.25,12,22.25z M12,2.307C10.935,3.083,4.25,8.18,4.25,14
	c0,4.273,3.477,7.75,7.75,7.75s7.75-3.477,7.75-7.75C19.75,8.18,13.065,3.083,12,2.307z"/>
<polygon style="fill:#333333;" points="12.224,18.111 11.776,17.889 13.596,14.25 9.596,14.25 11.776,9.888 12.224,10.112 
	10.404,13.75 14.404,13.75 "/>
</svg>






