<?xml version="1.0" encoding="iso-8859-1"?>
<svg version="1.1" id="&#x56FE;&#x5C42;_1" xmlns="http://www.w3.org/2000/svg" xmlns:xlink="http://www.w3.org/1999/xlink" x="0px"
	 y="0px" viewBox="0 0 24 24" style="enable-background:new 0 0 24 24;" xml:space="preserve">
<path style="fill:#333333;" d="M19.5,18.749c-0.467,0-0.934-0.118-1.369-0.354c-0.729-0.395-1.533-0.395-2.262,0
	c-0.871,0.471-1.867,0.471-2.738,0c-0.729-0.395-1.533-0.394-2.262,0c-0.87,0.471-1.868,0.471-2.738,0
	c-0.729-0.395-1.533-0.395-2.262,0c-0.87,0.471-1.868,0.471-2.738,0l-1.25-0.676l0.237-0.439l1.25,0.676
	c0.729,0.395,1.534,0.395,2.262,0c0.87-0.471,1.868-0.471,2.738,0c0.729,0.395,1.533,0.395,2.262,0c0.87-0.471,1.867-0.471,2.738,0
	c0.729,0.395,1.533,0.395,2.262,0c0.871-0.471,1.867-0.471,2.738,0c0.729,0.395,1.533,0.395,2.262,0l1.25-0.676l0.238,0.439
	l-1.25,0.676C20.434,18.631,19.967,18.749,19.5,18.749z"/>
<path style="fill:#333333;" d="M19.5,21.749c-0.467,0-0.934-0.118-1.369-0.354c-0.729-0.395-1.533-0.395-2.262,0
	c-0.871,0.471-1.867,0.471-2.738,0c-0.729-0.395-1.533-0.394-2.262,0c-0.87,0.471-1.868,0.471-2.738,0
	c-0.729-0.395-1.533-0.395-2.262,0c-0.87,0.471-1.868,0.471-2.738,0l-1.25-0.676l0.237-0.439l1.25,0.676
	c0.729,0.395,1.534,0.395,2.262,0c0.87-0.471,1.868-0.471,2.738,0c0.729,0.395,1.533,0.395,2.262,0c0.87-0.471,1.867-0.471,2.738,0
	c0.729,0.395,1.533,0.395,2.262,0c0.871-0.471,1.867-0.471,2.738,0c0.729,0.395,1.533,0.395,2.262,0l1.25-0.676l0.238,0.439
	l-1.25,0.676C20.434,21.631,19.967,21.749,19.5,21.749z"/>
<path style="fill:#333333;" d="M12.5,9.25c-1.517,0-2.75-1.233-2.75-2.75s1.233-2.75,2.75-2.75s2.75,1.233,2.75,2.75
	S14.017,9.25,12.5,9.25z M12.5,4.25c-1.241,0-2.25,1.009-2.25,2.25s1.009,2.25,2.25,2.25c1.24,0,2.25-1.009,2.25-2.25
	S13.74,4.25,12.5,4.25z"/>
<rect x="12" y="12.469" transform="matrix(0.9701 -0.2428 0.2428 0.9701 -2.9108 3.3776)" style="fill:#333333;" width="0.5" height="2.062"/>
<polygon style="fill:#333333;" points="21,12.715 12,12.715 5.445,11.244 5.289,11.134 1.789,5.634 2.211,5.366 5.656,10.779 
	12.055,12.221 21,12.215 "/>
<path style="fill:#333333;" d="M5.5,5C6.328,5,7,4.328,7,3.5S6.328,2,5.5,2C4.672,2,4,2.672,4,3.5S4.672,5,5.5,5z"/>
</svg>






