<?xml version="1.0" encoding="iso-8859-1"?>
<svg version="1.1" id="&#x56FE;&#x5C42;_1" xmlns="http://www.w3.org/2000/svg" xmlns:xlink="http://www.w3.org/1999/xlink" x="0px"
	 y="0px" viewBox="0 0 24 24" style="enable-background:new 0 0 24 24;" xml:space="preserve">
<path style="fill:#333333;" d="M12,22.25C6.348,22.25,1.75,17.652,1.75,12C1.75,6.348,6.348,1.75,12,1.75
	c5.652,0,10.25,4.598,10.25,10.25C22.25,17.652,17.652,22.25,12,22.25z M12,2.25c-5.376,0-9.75,4.374-9.75,9.75
	s4.374,9.75,9.75,9.75s9.75-4.374,9.75-9.75S17.376,2.25,12,2.25z"/>
<path style="fill:#333333;" d="M15.904,16.75H8.096l0.181-0.361C8.32,16.301,9.375,14.25,12,14.25c2.624,0,3.68,2.051,3.724,2.139
	L15.904,16.75z M8.956,16.25h6.088c-0.403-0.543-1.354-1.5-3.044-1.5S9.359,15.707,8.956,16.25z"/>
<rect x="7.382" y="9.25" transform="matrix(0.8944 -0.4472 0.4472 0.8944 -3.3512 4.8043)" style="fill:#333333;" width="2.236" height="0.5"/>
<polygon style="fill:#333333;" points="16.389,10.224 14.389,9.224 14.611,8.776 16.611,9.776 "/>
</svg>






