<?xml version="1.0" encoding="iso-8859-1"?>
<svg version="1.1" id="&#x56FE;&#x5C42;_1" xmlns="http://www.w3.org/2000/svg" xmlns:xlink="http://www.w3.org/1999/xlink" x="0px"
	 y="0px" viewBox="0 0 24 24" style="enable-background:new 0 0 24 24;" xml:space="preserve">
<path style="fill:#333333;" d="M23.25,22.25H0.75V22c0-2.711,1.059-5.301,2.983-7.291l0.207-0.214l0.175,0.24
	C5.947,17.249,8.895,18.75,12,18.75c3.106,0,6.054-1.501,7.886-4.015l0.175-0.24l0.207,0.214C22.19,16.7,23.25,19.289,23.25,22
	V22.25z M1.253,21.75h21.494c-0.061-2.394-0.99-4.676-2.638-6.479C18.174,17.768,15.165,19.25,12,19.25
	c-3.165,0-6.173-1.482-8.109-3.979C2.243,17.074,1.314,19.356,1.253,21.75z"/>
<path style="fill:#333333;" d="M12,15.25c-3.722,0-6.75-3.028-6.75-6.75c0-3.722,3.028-6.75,6.75-6.75c3.722,0,6.75,3.028,6.75,6.75
	C18.75,12.222,15.722,15.25,12,15.25z M12,2.25c-3.446,0-6.25,2.804-6.25,6.25s2.804,6.25,6.25,6.25s6.25-2.804,6.25-6.25
	S15.446,2.25,12,2.25z"/>
<path style="fill:#333333;" d="M12,11.25c-1.517,0-2.75-1.233-2.75-2.75S10.483,5.75,12,5.75s2.75,1.233,2.75,2.75
	S13.517,11.25,12,11.25z M12,6.25c-1.241,0-2.25,1.009-2.25,2.25s1.009,2.25,2.25,2.25c1.24,0,2.25-1.009,2.25-2.25
	S13.24,6.25,12,6.25z"/>
</svg>






