<?xml version="1.0" encoding="iso-8859-1"?>
<svg version="1.1" id="&#x56FE;&#x5C42;_1" xmlns="http://www.w3.org/2000/svg" xmlns:xlink="http://www.w3.org/1999/xlink" x="0px"
	 y="0px" viewBox="0 0 24 24" style="enable-background:new 0 0 24 24;" xml:space="preserve">
<path style="fill:#333333;" d="M20.5,22.25h-17c-0.965,0-1.75-0.785-1.75-1.75v-17c0-0.965,0.785-1.75,1.75-1.75h17
	c0.965,0,1.75,0.785,1.75,1.75v17C22.25,21.465,21.465,22.25,20.5,22.25z M3.5,2.25c-0.689,0-1.25,0.561-1.25,1.25v17
	c0,0.689,0.561,1.25,1.25,1.25h17c0.689,0,1.25-0.561,1.25-1.25v-17c0-0.689-0.561-1.25-1.25-1.25H3.5z"/>
<path style="fill:#333333;" d="M6.192,9.687L5.808,9.367C7.512,7.316,9.596,6.277,12,6.277c2.405,0,4.488,1.04,6.192,3.09
	l-0.385,0.319c-1.604-1.931-3.559-2.91-5.808-2.91C9.751,6.777,7.797,7.756,6.192,9.687z"/>
<path style="fill:#333333;" d="M12,15.5c0.828,0,1.5-0.672,1.5-1.5s-0.672-1.5-1.5-1.5s-1.5,0.672-1.5,1.5S11.172,15.5,12,15.5z"/>
<rect x="10.502" y="10.098" transform="matrix(0.8133 -0.5818 0.5818 0.8133 -5.1202 8.5429)" style="fill:#333333;" width="0.5" height="4.303"/>
</svg>






