<?xml version="1.0" encoding="iso-8859-1"?>
<svg version="1.1" id="&#x56FE;&#x5C42;_1" xmlns="http://www.w3.org/2000/svg" xmlns:xlink="http://www.w3.org/1999/xlink" x="0px"
	 y="0px" viewBox="0 0 24 24" style="enable-background:new 0 0 24 24;" xml:space="preserve">
<path style="fill:#333333;" d="M12,13.75c-1.517,0-2.75-1.233-2.75-2.75S10.483,8.25,12,8.25s2.75,1.233,2.75,2.75
	S13.517,13.75,12,13.75z M12,8.75c-1.241,0-2.25,1.009-2.25,2.25c0,1.24,1.009,2.25,2.25,2.25c1.24,0,2.25-1.01,2.25-2.25
	C14.25,9.759,13.24,8.75,12,8.75z"/>
<rect x="2" y="4.25" style="fill:#333333;" width="20" height="0.5"/>
<rect x="1.75" y="2" style="fill:#333333;" width="0.5" height="5"/>
<rect x="21.75" y="2" style="fill:#333333;" width="0.5" height="5"/>
<polygon style="fill:#333333;" points="11.87,17.214 5.37,13.264 5.25,13.05 5.25,4.5 5.75,4.5 5.75,12.909 11.999,16.707 
	18.25,12.86 18.25,4.5 18.75,4.5 18.75,13 18.631,13.213 12.131,17.213 "/>
<rect x="11.75" y="17" style="fill:#333333;" width="0.5" height="5"/>
</svg>






