<?xml version="1.0" encoding="iso-8859-1"?>
<svg version="1.1" id="&#x56FE;&#x5C42;_1" xmlns="http://www.w3.org/2000/svg" xmlns:xlink="http://www.w3.org/1999/xlink" x="0px"
	 y="0px" viewBox="0 0 24 24" style="enable-background:new 0 0 24 24;" xml:space="preserve">
<path style="fill:#333333;" d="M19,22.25h-3.059c-0.97,0-1.827-0.618-2.135-1.538l-0.987-2.962H6.831l-1.2-3h12.657l0.352-2.11
	c0.086-0.509,0.482-0.919,0.988-1.02l2.17-0.434l-0.551,3.85L21.25,20C21.25,21.24,20.24,22.25,19,22.25z M7.169,17.25h6.011
	l1.101,3.304c0.238,0.716,0.906,1.196,1.66,1.196H19c0.965,0,1.75-0.785,1.75-1.75v-5l0.453-3.186l-1.478,0.296
	c-0.303,0.061-0.541,0.307-0.593,0.611l-0.421,2.528H6.369L7.169,17.25z"/>
<path style="fill:#333333;" d="M2.203,12.814l0.55-3.85L2.75,4c0-1.241,1.009-2.25,2.25-2.25h3.059c0.97,0,1.828,0.618,2.135,1.539
	L11.18,6.25h5.989l1.2,3H5.712L5.36,11.36c-0.085,0.509-0.481,0.919-0.987,1.021L2.203,12.814z M5,2.25
	C4.035,2.25,3.25,3.035,3.25,4v5l-0.453,3.186l1.477-0.295c0.303-0.061,0.542-0.307,0.592-0.612L5.288,8.75h12.343l-0.8-2H10.82
	L9.719,3.447C9.48,2.731,8.813,2.25,8.059,2.25H5z"/>
</svg>






