<?xml version="1.0" encoding="iso-8859-1"?>
<svg version="1.1" id="&#x56FE;&#x5C42;_1" xmlns="http://www.w3.org/2000/svg" xmlns:xlink="http://www.w3.org/1999/xlink" x="0px"
	 y="0px" viewBox="0 0 24 24" style="enable-background:new 0 0 24 24;" xml:space="preserve">
<path style="fill:#333333;" d="M12,22.361l-3.73-3.9l-5.243-1.28L4.54,12L3.026,6.819l5.243-1.28L12,1.638l3.73,3.901l5.243,1.28
	L19.461,12l1.513,5.181l-5.243,1.28L12,22.361z M3.653,16.819l4.877,1.19L12,21.639l3.471-3.629l4.876-1.19L18.939,12l1.407-4.819
	l-4.876-1.19L12,2.362L8.53,5.99l-4.877,1.19L5.061,12L3.653,16.819z"/>
<path style="fill:#333333;" d="M15.719,18.44L12,16.537L8.281,18.44l-0.21-4.172L4.562,12l3.509-2.269l0.21-4.173L12,7.463
	l3.719-1.904l0.21,4.173L19.438,12l-3.51,2.269L15.719,18.44z M5.483,12l3.074,1.987l0.184,3.656L12,15.975l3.258,1.669l0.185-3.656
	L18.517,12l-3.074-1.987l-0.185-3.656L12,8.024L8.741,6.356l-0.184,3.656L5.483,12z"/>
</svg>






