<?xml version="1.0" encoding="iso-8859-1"?>
<svg version="1.1" id="&#x56FE;&#x5C42;_1" xmlns="http://www.w3.org/2000/svg" xmlns:xlink="http://www.w3.org/1999/xlink" x="0px"
	 y="0px" viewBox="0 0 24 24" style="enable-background:new 0 0 24 24;" xml:space="preserve">
<path style="fill:#333333;" d="M12,21.354L2.646,12L12,2.646L21.354,12L12,21.354z M3.354,12L12,20.646L20.646,12L12,3.354L3.354,12
	z"/>
<rect x="11.75" y="14.5" style="fill:#333333;" width="0.5" height="6.5"/>
<rect x="3" y="11.75" style="fill:#333333;" width="6.5" height="0.5"/>
<rect x="11.75" y="3" style="fill:#333333;" width="0.5" height="6.5"/>
<rect x="14.5" y="11.75" style="fill:#333333;" width="6.5" height="0.5"/>
<path style="fill:#333333;" d="M12,14.75c-1.517,0-2.75-1.233-2.75-2.75S10.483,9.25,12,9.25s2.75,1.233,2.75,2.75
	S13.517,14.75,12,14.75z M12,9.75c-1.241,0-2.25,1.009-2.25,2.25c0,1.24,1.009,2.25,2.25,2.25c1.24,0,2.25-1.01,2.25-2.25
	C14.25,10.759,13.24,9.75,12,9.75z"/>
</svg>






