<?xml version="1.0" encoding="iso-8859-1"?>
<svg version="1.1" id="&#x56FE;&#x5C42;_1" xmlns="http://www.w3.org/2000/svg" xmlns:xlink="http://www.w3.org/1999/xlink" x="0px"
	 y="0px" viewBox="0 0 24 24" style="enable-background:new 0 0 24 24;" xml:space="preserve">
<path style="fill:#333333;" d="M7.5,7.25C6.259,7.25,5.25,6.241,5.25,5S6.259,2.75,7.5,2.75S9.75,3.759,9.75,5S8.741,7.25,7.5,7.25z
	 M7.5,3.25C6.535,3.25,5.75,4.035,5.75,5S6.535,6.75,7.5,6.75S9.25,5.965,9.25,5S8.465,3.25,7.5,3.25z"/>
<path style="fill:#333333;" d="M16.5,7.25c-1.24,0-2.25-1.009-2.25-2.25s1.01-2.25,2.25-2.25S18.75,3.759,18.75,5
	S17.74,7.25,16.5,7.25z M16.5,3.25c-0.965,0-1.75,0.785-1.75,1.75s0.785,1.75,1.75,1.75S18.25,5.965,18.25,5S17.465,3.25,16.5,3.25z
	"/>
<path style="fill:#333333;" d="M9.229,21.25H5.771L4.726,9.75h5.548L9.229,21.25z M6.229,20.75h2.543l0.955-10.5H5.274L6.229,20.75z
	"/>
<path style="fill:#333333;" d="M18.229,21.25h-3.457l-1.045-11.5h5.547L18.229,21.25z M15.229,20.75h2.543l0.955-10.5h-4.453
	L15.229,20.75z"/>
</svg>






