<?xml version="1.0" encoding="iso-8859-1"?>
<svg version="1.1" id="&#x56FE;&#x5C42;_1" xmlns="http://www.w3.org/2000/svg" xmlns:xlink="http://www.w3.org/1999/xlink" x="0px"
	 y="0px" viewBox="0 0 24 24" style="enable-background:new 0 0 24 24;" xml:space="preserve">
<path style="fill:#333333;" d="M12,22.25C6.348,22.25,1.75,17.652,1.75,12C1.75,6.348,6.348,1.75,12,1.75
	c5.652,0,10.25,4.598,10.25,10.25C22.25,17.652,17.652,22.25,12,22.25z M12,2.25c-5.376,0-9.75,4.374-9.75,9.75
	s4.374,9.75,9.75,9.75s9.75-4.374,9.75-9.75S17.376,2.25,12,2.25z"/>
<path style="fill:#333333;" d="M9.501,17.251c-0.18,0-0.36-0.018-0.538-0.054c-0.535-0.106-1.022-0.367-1.408-0.753
	c-0.386-0.386-0.646-0.873-0.753-1.408s-0.052-1.085,0.157-1.589c0.208-0.504,0.559-0.931,1.013-1.234
	C8.426,11.91,8.954,11.75,9.5,11.75v0.5c-0.447,0-0.879,0.131-1.25,0.379s-0.658,0.598-0.829,1.01s-0.215,0.862-0.128,1.3
	c0.087,0.438,0.3,0.837,0.616,1.152s0.714,0.529,1.152,0.616c0.438,0.088,0.888,0.042,1.3-0.128c0.413-0.172,0.762-0.458,1.01-0.829
	s0.379-0.804,0.379-1.25v-5c0-0.546,0.16-1.074,0.463-1.527c0.304-0.454,0.73-0.805,1.234-1.013
	c0.504-0.209,1.053-0.263,1.589-0.157c0.535,0.106,1.022,0.367,1.408,0.753c0.386,0.386,0.646,0.873,0.753,1.408
	s0.053,1.084-0.157,1.589c-0.208,0.504-0.559,0.931-1.013,1.234c-0.453,0.303-0.981,0.463-1.527,0.463v-0.5
	c0.446,0,0.879-0.131,1.25-0.379s0.657-0.597,0.829-1.01c0.171-0.413,0.215-0.862,0.128-1.3s-0.301-0.836-0.616-1.152
	s-0.714-0.529-1.152-0.616c-0.438-0.087-0.888-0.043-1.3,0.128c-0.412,0.171-0.762,0.458-1.01,0.829
	C12.381,8.621,12.25,9.053,12.25,9.5v5c0,0.546-0.16,1.074-0.463,1.527c-0.304,0.454-0.73,0.805-1.234,1.013
	C10.216,17.18,9.86,17.251,9.501,17.251z"/>
</svg>






