<?xml version="1.0" encoding="iso-8859-1"?>
<svg version="1.1" id="&#x56FE;&#x5C42;_1" xmlns="http://www.w3.org/2000/svg" xmlns:xlink="http://www.w3.org/1999/xlink" x="0px"
	 y="0px" viewBox="0 0 24 24" style="enable-background:new 0 0 24 24;" xml:space="preserve">
<path style="fill:#333333;" d="M10.25,17.763c-2.784,0-5.822-0.71-7.815-2.564C1.689,14.456,1.432,13.93,2.3,12.344
	c-0.12-1.204,0.151-2.919,1.267-4.218c1.01-1.175,2.51-1.806,4.458-1.875h0.009c1.386,0,4.083,0.583,6.565,4.483
	c0.44,0.692,1.177,1.172,1.922,1.255c0.529,0.057,0.994-0.09,1.32-0.415c0.103-0.102,0.289-0.38,0.268-0.708
	c-0.021-0.31-0.218-0.609-0.586-0.891c-0.751-0.6-1.016-1.694-0.751-3.084l0.457-0.086c0.301,0.48,1.449,1.11,2.242,0.951
	l0.076-0.042c0.736-0.333,1.746-0.788,2.075-1.341l0.442,0.024c0.415,0.909,0.322,3.929-2.313,5.749
	c-0.231,1.329-1.817,3.632-4.782,4.849C13.734,17.468,12.045,17.763,10.25,17.763z M8.039,6.75C6.238,6.815,4.861,7.388,3.947,8.452
	c-1.036,1.206-1.269,2.813-1.141,3.916l0.009,0.08l-0.04,0.07c-0.83,1.488-0.568,1.749,0.006,2.321
	c3.082,2.866,9.056,2.819,12.004,1.69c2.86-1.174,4.347-3.373,4.487-4.559l0.014-0.115l0.096-0.064
	c2.108-1.401,2.504-3.667,2.343-4.764c-0.506,0.479-1.304,0.839-1.972,1.141l-0.129,0.059c-0.811,0.167-1.828-0.221-2.434-0.732
	c-0.088,0.95,0.134,1.68,0.641,2.085c0.484,0.37,0.747,0.792,0.777,1.252c0.031,0.473-0.203,0.885-0.413,1.095
	c-0.437,0.436-1.056,0.634-1.729,0.558c-0.906-0.1-1.762-0.654-2.289-1.483C11.826,7.307,9.324,6.751,8.039,6.75z"/>
<path style="fill:#333333;" d="M5.362,14.578c-1.137,0-2.211-0.202-2.908-0.332l0.092-0.492c1.327,0.249,4.084,0.769,5.81-0.458
	l0.289,0.408C7.696,14.377,6.498,14.578,5.362,14.578z"/>
<circle style="fill:#333333;" cx="6" cy="10" r="1"/>
</svg>






