<?xml version="1.0" encoding="iso-8859-1"?>
<svg version="1.1" id="&#x56FE;&#x5C42;_1" xmlns="http://www.w3.org/2000/svg" xmlns:xlink="http://www.w3.org/1999/xlink" x="0px"
	 y="0px" viewBox="0 0 24 24" style="enable-background:new 0 0 24 24;" xml:space="preserve">
<path style="fill:#333333;" d="M9,22.25c-3.446,0-6.25-2.804-6.25-6.25c0-2.436,1.431-4.667,3.646-5.683l0.209,0.454
	C4.566,11.707,3.25,13.759,3.25,16c0,3.171,2.58,5.75,5.75,5.75c2.625,0,4.915-1.773,5.568-4.312l0.484,0.125
	C14.343,20.322,11.854,22.25,9,22.25z"/>
<polygon style="fill:#333333;" points="20.5,20.25 18.809,20.25 17.312,14.763 9.778,15.266 8.751,6.028 9.249,5.972 10.222,14.734 
	17.688,14.237 19.191,19.75 20.5,19.75 "/>
<path style="fill:#333333;" d="M9,6.25C7.759,6.25,6.75,5.241,6.75,4S7.759,1.75,9,1.75S11.25,2.759,11.25,4S10.241,6.25,9,6.25z
	 M9,2.25C8.035,2.25,7.25,3.035,7.25,4S8.035,5.75,9,5.75S10.75,4.965,10.75,4S9.965,2.25,9,2.25z"/>
<rect x="12.5" y="9.75" style="fill:#333333;" width="4" height="0.5"/>
</svg>






