<?xml version="1.0" encoding="iso-8859-1"?>
<svg version="1.1" id="&#x56FE;&#x5C42;_1" xmlns="http://www.w3.org/2000/svg" xmlns:xlink="http://www.w3.org/1999/xlink" x="0px"
	 y="0px" viewBox="0 0 24 24" style="enable-background:new 0 0 24 24;" xml:space="preserve">
<path style="fill:#333333;" d="M12,14.75c-1.517,0-2.75-1.233-2.75-2.75S10.483,9.25,12,9.25s2.75,1.233,2.75,2.75
	S13.517,14.75,12,14.75z M12,9.75c-1.241,0-2.25,1.009-2.25,2.25c0,1.24,1.009,2.25,2.25,2.25c1.24,0,2.25-1.01,2.25-2.25
	C14.25,10.759,13.24,9.75,12,9.75z"/>
<path style="fill:#333333;" d="M11.75,22.25c-3.584,0-6.5-2.916-6.5-6.5s2.916-6.5,6.5-6.5v0.5c-3.309,0-6,2.691-6,6s2.691,6,6,6
	V22.25z"/>
<path style="fill:#333333;" d="M15.75,18.25c-3.584,0-6.5-2.916-6.5-6.5h0.5c0,3.309,2.691,6,6,6s6-2.691,6-6h0.5
	C22.25,15.334,19.334,18.25,15.75,18.25z"/>
<path style="fill:#333333;" d="M11.75,14.75v-0.5c3.309,0,6-2.691,6-6s-2.691-6-6-6v-0.5c3.584,0,6.5,2.916,6.5,6.5
	S15.334,14.75,11.75,14.75z"/>
<path style="fill:#333333;" d="M14.75,11.75h-0.5c0-3.309-2.691-6-6-6s-6,2.691-6,6h-0.5c0-3.584,2.916-6.5,6.5-6.5
	S14.75,8.166,14.75,11.75z"/>
</svg>






