<?xml version="1.0" encoding="iso-8859-1"?>
<svg version="1.1" id="&#x56FE;&#x5C42;_1" xmlns="http://www.w3.org/2000/svg" xmlns:xlink="http://www.w3.org/1999/xlink" x="0px"
	 y="0px" viewBox="0 0 24 24" style="enable-background:new 0 0 24 24;" xml:space="preserve">
<path style="fill:#333333;" d="M11,22.25c-1.241,0-2.25-1.01-2.25-2.25s1.009-2.25,2.25-2.25c1.24,0,2.25,1.01,2.25,2.25
	S12.24,22.25,11,22.25z M11,18.25c-0.965,0-1.75,0.785-1.75,1.75s0.785,1.75,1.75,1.75s1.75-0.785,1.75-1.75S11.965,18.25,11,18.25z
	"/>
<path style="fill:#333333;" d="M13,6.25c-1.241,0-2.25-1.009-2.25-2.25S11.759,1.75,13,1.75c1.24,0,2.25,1.009,2.25,2.25
	S14.24,6.25,13,6.25z M13,2.25c-0.965,0-1.75,0.785-1.75,1.75S12.035,5.75,13,5.75S14.75,4.965,14.75,4S13.965,2.25,13,2.25z"/>
<path style="fill:#333333;" d="M18,14.25c-1.24,0-2.25-1.01-2.25-2.25c0-1.241,1.01-2.25,2.25-2.25s2.25,1.009,2.25,2.25
	C20.25,13.24,19.24,14.25,18,14.25z M18,10.25c-0.965,0-1.75,0.785-1.75,1.75s0.785,1.75,1.75,1.75s1.75-0.785,1.75-1.75
	S18.965,10.25,18,10.25z"/>
<path style="fill:#333333;" d="M6,14.25c-1.241,0-2.25-1.01-2.25-2.25c0-1.241,1.009-2.25,2.25-2.25S8.25,10.759,8.25,12
	C8.25,13.24,7.241,14.25,6,14.25z M6,10.25c-0.965,0-1.75,0.785-1.75,1.75S5.035,13.75,6,13.75S7.75,12.965,7.75,12
	S6.965,10.25,6,10.25z"/>
<rect x="8" y="11.75" style="fill:#333333;" width="8" height="0.5"/>
<rect x="6.298" y="7.75" transform="matrix(0.6247 -0.7809 0.7809 0.6247 -2.6816 10.4207)" style="fill:#333333;" width="6.403" height="0.5"/>
<rect x="11.298" y="15.75" transform="matrix(0.6247 -0.7809 0.7809 0.6247 -7.0522 17.3271)" style="fill:#333333;" width="6.404" height="0.5"/>
</svg>






