<?xml version="1.0" encoding="iso-8859-1"?>
<svg version="1.1" id="&#x56FE;&#x5C42;_1" xmlns="http://www.w3.org/2000/svg" xmlns:xlink="http://www.w3.org/1999/xlink" x="0px"
	 y="0px" viewBox="0 0 24 24" style="enable-background:new 0 0 24 24;" xml:space="preserve">
<path style="fill:#333333;" d="M2.172,9.664L1.828,9.301c0.295-0.279,0.606-0.55,0.924-0.806c5.732-4.601,14.08-4.253,19.42,0.806
	l-0.344,0.363C16.669,4.774,8.603,4.44,3.065,8.884C2.758,9.131,2.457,9.394,2.172,9.664z"/>
<path style="fill:#333333;" d="M18.823,13.076c-3.763-3.762-9.884-3.761-13.646,0l-0.354-0.354c3.957-3.957,10.396-3.958,14.354,0
	L18.823,13.076z"/>
<path style="fill:#333333;" d="M15.823,16.334C14.802,15.312,13.444,14.75,12,14.75s-2.802,0.562-3.823,1.584L7.823,15.98
	c1.116-1.116,2.599-1.73,4.177-1.73c1.578,0,3.062,0.614,4.177,1.73L15.823,16.334z"/>
<path style="fill-rule:evenodd;clip-rule:evenodd;fill:#333333;" d="M12,20c0.69,0,1.25-0.56,1.25-1.25S12.69,17.5,12,17.5
	s-1.25,0.56-1.25,1.25S11.31,20,12,20z"/>
</svg>






