<?xml version="1.0" encoding="iso-8859-1"?>
<svg version="1.1" id="&#x56FE;&#x5C42;_1" xmlns="http://www.w3.org/2000/svg" xmlns:xlink="http://www.w3.org/1999/xlink" x="0px"
	 y="0px" viewBox="0 0 24 24" style="enable-background:new 0 0 24 24;" xml:space="preserve">
<path style="fill:#333333;" d="M12,12.25h-0.25V1.75H12c2.895,0,5.25,2.355,5.25,5.25S14.895,12.25,12,12.25z M12.25,2.256v9.487
	c2.503-0.131,4.5-2.208,4.5-4.744S14.753,2.387,12.25,2.256z"/>
<path style="fill:#333333;" d="M17,17.25c-2.895,0-5.25-2.355-5.25-5.25v-0.25h10.5V12C22.25,14.895,19.895,17.25,17,17.25z
	 M12.257,12.25c0.13,2.503,2.208,4.5,4.743,4.5s4.613-1.997,4.743-4.5H12.257z"/>
<path style="fill:#333333;" d="M12.25,12.25H1.75V12c0-2.895,2.355-5.25,5.25-5.25s5.25,2.355,5.25,5.25V12.25z M2.256,11.75h9.487
	C11.613,9.247,9.535,7.25,7,7.25S2.387,9.247,2.256,11.75z"/>
<path style="fill:#333333;" d="M12.25,22.25H12c-2.895,0-5.25-2.355-5.25-5.25s2.355-5.25,5.25-5.25h0.25V22.25z M11.75,12.257
	c-2.503,0.13-4.5,2.208-4.5,4.743s1.997,4.613,4.5,4.743V12.257z"/>
</svg>






