<?xml version="1.0" encoding="iso-8859-1"?>
<svg version="1.1" id="&#x56FE;&#x5C42;_1" xmlns="http://www.w3.org/2000/svg" xmlns:xlink="http://www.w3.org/1999/xlink" x="0px"
	 y="0px" viewBox="0 0 24 24" style="enable-background:new 0 0 24 24;" xml:space="preserve">
<path style="fill:#333333;" d="M6,12.75H5c-1.241,0-2.25-1.009-2.25-2.25S3.759,8.25,5,8.25h1v0.5H5c-0.965,0-1.75,0.785-1.75,1.75
	S4.035,12.25,5,12.25h1V12.75z"/>
<path style="fill:#333333;" d="M11,20.75H9.5c-1.241,0-2.25-1.01-2.25-2.25s1.009-2.25,2.25-2.25H11v0.5H9.5
	c-0.965,0-1.75,0.785-1.75,1.75s0.785,1.75,1.75,1.75H11V20.75z"/>
<path style="fill:#333333;" d="M13.5,7.75H12c-1.241,0-2.25-1.009-2.25-2.25S10.759,3.25,12,3.25h1.5v0.5H12
	c-0.965,0-1.75,0.785-1.75,1.75S11.035,7.25,12,7.25h1.5V7.75z"/>
<rect x="12" y="7.25" style="fill:#333333;" width="8" height="0.5"/>
<rect x="6" y="12.25" style="fill:#333333;" width="15" height="0.5"/>
<rect x="11" y="16.25" style="fill:#333333;" width="6" height="0.5"/>
</svg>






