<?xml version="1.0" encoding="iso-8859-1"?>
<svg version="1.1" id="&#x56FE;&#x5C42;_1" xmlns="http://www.w3.org/2000/svg" xmlns:xlink="http://www.w3.org/1999/xlink" x="0px"
	 y="0px" viewBox="0 0 24 24" style="enable-background:new 0 0 24 24;" xml:space="preserve">
<path style="fill:#333333;" d="M5.75,12.25V6.883l6.06-5.075L12.221,2l0.03,10.247L5.75,12.25z M6.25,7.117v4.633l5.499-0.004
	l-0.027-9.212L6.25,7.117z"/>
<path style="fill:#333333;" d="M11.754,12.251L11.75,5.75h5.367l0.074,0.089l5,5.971l-0.19,0.411L11.754,12.251z M12.25,6.25
	l0.004,5.499l9.212-0.027L16.883,6.25H12.25z"/>
<path style="fill:#333333;" d="M12.189,22.191l-0.41-0.19l-0.03-10.247l6.5-0.004v5.367l-0.09,0.074L12.189,22.191z M12.251,12.254
	l0.026,9.212l5.473-4.583V12.25L12.251,12.254z"/>
<path style="fill:#333333;" d="M12.25,18.25H6.883l-5.075-6.061L2,11.779l10.247-0.03L12.25,18.25z M7.117,17.75h4.633l-0.004-5.499
	l-9.212,0.026L7.117,17.75z"/>
</svg>






