<?xml version="1.0" encoding="iso-8859-1"?>
<svg version="1.1" id="&#x56FE;&#x5C42;_1" xmlns="http://www.w3.org/2000/svg" xmlns:xlink="http://www.w3.org/1999/xlink" x="0px"
	 y="0px" viewBox="0 0 24 24" style="enable-background:new 0 0 24 24;" xml:space="preserve">
<path style="fill:#333333;" d="M18,22.25H3.7l0.532-2.924l0.492,0.09L4.299,21.75H18V22.25z M19.3,19.545l-1.7-9.348l0.492-0.09
	l1.7,9.348L19.3,19.545z M5.564,14.795l-0.492-0.09L6.54,6.633l0.492,0.09L5.564,14.795z M17.013,6.968l-0.236-1.301l-3.322-1.661
	c-0.912-0.455-1.998-0.455-2.908,0L8.802,4.878L8.579,4.431l1.744-0.872c1.05-0.525,2.305-0.525,3.354,0l3.547,1.773l0.281,1.546
	L17.013,6.968z"/>
<path style="fill:#333333;" d="M17,11.042c-0.192,0-0.384-0.073-0.53-0.219L15.177,9.53c-0.292-0.292-0.292-0.768,0-1.061
	l4.293-4.293c0.293-0.292,0.768-0.292,1.061,0l1.293,1.293c0.292,0.292,0.292,0.768,0,1.061l-4.293,4.293
	C17.384,10.969,17.192,11.042,17,11.042z M20,4.457c-0.064,0-0.128,0.024-0.177,0.073L15.53,8.823c-0.098,0.098-0.098,0.256,0,0.354
	l1.293,1.293c0.098,0.098,0.256,0.098,0.354,0l4.293-4.293c0.098-0.098,0.098-0.256,0-0.354L20.177,4.53
	C20.128,4.481,20.064,4.457,20,4.457z"/>
<rect x="13.086" y="9.25" transform="matrix(0.7071 -0.7071 0.7071 0.7071 -2.4706 13.0355)" style="fill:#333333;" width="2.828" height="0.5"/>
<path style="fill:#333333;" d="M18,22.043c-0.192,0-0.384-0.073-0.53-0.22l-4.293-4.293c-0.292-0.292-0.292-0.769,0-1.061
	l1.293-1.293c0.293-0.293,0.768-0.293,1.061,0l4.293,4.293c0.292,0.292,0.292,0.769,0,1.061l-1.293,1.293
	C18.384,21.97,18.192,22.043,18,22.043z M15,15.457c-0.064,0-0.128,0.024-0.177,0.073l-1.293,1.293
	c-0.098,0.098-0.098,0.256,0,0.354l4.293,4.293c0.098,0.098,0.256,0.098,0.354,0l1.293-1.293c0.098-0.098,0.098-0.256,0-0.354
	l-4.293-4.293C15.128,15.481,15.064,15.457,15,15.457z"/>
<rect x="14.25" y="13.086" transform="matrix(0.7071 -0.7071 0.7071 0.7071 -6.0061 14.5)" style="fill:#333333;" width="0.5" height="2.828"/>
<path style="fill:#333333;" d="M4,20.043c-0.192,0-0.384-0.073-0.53-0.22L2.177,18.53c-0.292-0.292-0.292-0.769,0-1.061l4.293-4.293
	c0.292-0.293,0.769-0.293,1.061,0l1.293,1.293c0.292,0.292,0.292,0.769,0,1.061L4.53,19.823C4.384,19.97,4.192,20.043,4,20.043z
	 M7,13.457c-0.064,0-0.128,0.024-0.177,0.073L2.53,17.823c-0.098,0.098-0.098,0.256,0,0.354l1.293,1.293
	c0.098,0.098,0.256,0.098,0.354,0l4.293-4.293c0.098-0.098,0.098-0.256,0-0.354L7.177,13.53C7.128,13.481,7.064,13.457,7,13.457z"/>
<rect x="8.086" y="14.25" transform="matrix(0.7071 -0.7071 0.7071 0.7071 -7.4706 10.9645)" style="fill:#333333;" width="2.828" height="0.5"/>
<path style="fill:#333333;" d="M9,9.042c-0.192,0-0.384-0.073-0.53-0.219L4.177,4.53c-0.292-0.292-0.292-0.768,0-1.061L5.47,2.177
	c0.292-0.292,0.769-0.292,1.061,0l4.293,4.293c0.292,0.292,0.292,0.768,0,1.061L9.53,8.823C9.384,8.969,9.192,9.042,9,9.042z
	 M6,2.457c-0.064,0-0.128,0.024-0.177,0.073L4.53,3.823c-0.098,0.098-0.098,0.256,0,0.354L8.823,8.47
	c0.098,0.098,0.256,0.098,0.354,0l1.293-1.293c0.098-0.098,0.098-0.256,0-0.354L6.177,2.53C6.128,2.481,6.064,2.457,6,2.457z"/>
<rect x="9.25" y="8.086" transform="matrix(0.7071 -0.7071 0.7071 0.7071 -3.935 9.5)" style="fill:#333333;" width="0.5" height="2.828"/>
<path style="fill:#333333;" d="M12,14.25c-1.241,0-2.25-1.01-2.25-2.25c0-1.241,1.009-2.25,2.25-2.25c1.24,0,2.25,1.009,2.25,2.25
	C14.25,13.24,13.24,14.25,12,14.25z M12,10.25c-0.965,0-1.75,0.785-1.75,1.75s0.785,1.75,1.75,1.75s1.75-0.785,1.75-1.75
	S12.965,10.25,12,10.25z"/>
</svg>






