<?xml version="1.0" encoding="iso-8859-1"?>
<svg version="1.1" id="&#x56FE;&#x5C42;_1" xmlns="http://www.w3.org/2000/svg" xmlns:xlink="http://www.w3.org/1999/xlink" x="0px"
	 y="0px" viewBox="0 0 24 24" style="enable-background:new 0 0 24 24;" xml:space="preserve">
<path style="fill:#333333;" d="M12,7.25c-1.517,0-2.75-1.233-2.75-2.75S10.483,1.75,12,1.75s2.75,1.233,2.75,2.75
	S13.517,7.25,12,7.25z M12,2.25c-1.241,0-2.25,1.009-2.25,2.25S10.759,6.75,12,6.75c1.24,0,2.25-1.009,2.25-2.25S13.24,2.25,12,2.25
	z"/>
<path style="fill:#333333;" d="M16.5,22.25h-9L7.25,22v-3.75H4L3.75,18c0-4.472,3.778-8.25,8.25-8.25
	c2.176,0,4.242,0.868,5.816,2.444c1.572,1.573,2.436,3.636,2.434,5.806L20,18.25h-3.25V22L16.5,22.25z M7.75,21.75h8.5V18l0.25-0.25
	h3.246c-0.062-1.945-0.866-3.784-2.283-5.202c-1.48-1.482-3.42-2.298-5.463-2.298c-4.117,0-7.608,3.409-7.746,7.5H7.5L7.75,18V21.75
	z"/>
<rect x="7.25" y="11.5" style="fill:#333333;" width="0.5" height="6.5"/>
<rect x="16.25" y="11.5" style="fill:#333333;" width="0.5" height="6.5"/>
<rect x="11.75" y="10" style="fill:#333333;" width="0.5" height="12"/>
</svg>






