<?xml version="1.0" encoding="iso-8859-1"?>
<svg version="1.1" id="&#x56FE;&#x5C42;_1" xmlns="http://www.w3.org/2000/svg" xmlns:xlink="http://www.w3.org/1999/xlink" x="0px"
	 y="0px" viewBox="0 0 24 24" style="enable-background:new 0 0 24 24;" xml:space="preserve">
<path style="fill:#333333;" d="M12,22.25C6.348,22.25,1.75,17.652,1.75,12C1.75,6.348,6.348,1.75,12,1.75
	c5.652,0,10.25,4.598,10.25,10.25C22.25,17.652,17.652,22.25,12,22.25z M12,2.25c-5.376,0-9.75,4.374-9.75,9.75
	s4.374,9.75,9.75,9.75s9.75-4.374,9.75-9.75S17.376,2.25,12,2.25z"/>
<polygon style="fill:#333333;" points="16.323,12.177 14.146,10 16.323,7.823 16.677,8.177 14.854,10 16.677,11.823 "/>
<path style="fill:#333333;" d="M12,17.75c-2.625,0-3.68-2.051-3.724-2.139l0.447-0.224C8.762,15.464,9.692,17.25,12,17.25
	s3.238-1.786,3.276-1.862l0.447,0.224C15.68,15.699,14.624,17.75,12,17.75z"/>
<path style="fill:#333333;" d="M8.5,12.25c-1.241,0-2.25-1.009-2.25-2.25S7.259,7.75,8.5,7.75s2.25,1.009,2.25,2.25
	S9.741,12.25,8.5,12.25z M8.5,8.25c-0.965,0-1.75,0.785-1.75,1.75s0.785,1.75,1.75,1.75s1.75-0.785,1.75-1.75S9.465,8.25,8.5,8.25z"
	/>
</svg>






