<?xml version="1.0" encoding="iso-8859-1"?>
<svg version="1.1" id="&#x56FE;&#x5C42;_1" xmlns="http://www.w3.org/2000/svg" xmlns:xlink="http://www.w3.org/1999/xlink" x="0px"
	 y="0px" viewBox="0 0 24 24" style="enable-background:new 0 0 24 24;" xml:space="preserve">
<path style="fill:#333333;" d="M16.419,12.419l-0.354-0.354C17.151,10.979,17.75,9.536,17.75,8c0-3.17-2.579-5.75-5.75-5.75
	C8.83,2.25,6.25,4.83,6.25,8c0,1.536,0.598,2.98,1.684,4.065l-0.354,0.354C6.4,11.239,5.75,9.67,5.75,8
	c0-3.446,2.804-6.25,6.25-6.25S18.25,4.554,18.25,8C18.25,9.669,17.6,11.239,16.419,12.419z"/>
<polygon style="fill:#333333;" points="20.755,22.049 20.274,19.645 15.025,15.828 12,18.854 8.974,15.828 3.726,19.645 
	3.245,22.049 2.755,21.951 3.274,19.355 9.026,15.172 12,18.146 14.975,15.172 20.726,19.355 21.245,21.951 "/>
<path style="fill:#333333;" d="M17.401,11.049l-0.482-0.129c0.341-1.28-0.942-2.114-1.709-2.613l-0.215-0.141
	c-0.358-0.241-1.155-0.376-1.927-0.508c-0.717-0.122-1.393-0.237-1.816-0.445C10.705,6.946,10.384,6.358,10.1,5.84
	C9.936,5.539,9.749,5.198,9.603,5.135c-0.32-0.139-0.914-0.399-1.898,1.008c-0.63,0.9-0.952,2.368-0.958,4.361l-0.5-0.002
	c0.006-2.097,0.359-3.66,1.048-4.646c1.079-1.544,1.907-1.443,2.507-1.181c0.303,0.131,0.504,0.499,0.737,0.923
	c0.248,0.453,0.529,0.967,0.933,1.165c0.359,0.176,1.03,0.291,1.68,0.401c0.862,0.147,1.676,0.285,2.123,0.586l0.208,0.137
	C16.306,8.423,17.837,9.418,17.401,11.049z"/>
</svg>






