<?xml version="1.0" encoding="iso-8859-1"?>
<svg version="1.1" id="&#x56FE;&#x5C42;_1" xmlns="http://www.w3.org/2000/svg" xmlns:xlink="http://www.w3.org/1999/xlink" x="0px"
	 y="0px" viewBox="0 0 24 24" style="enable-background:new 0 0 24 24;" xml:space="preserve">
<path style="fill:#333333;" d="M21.045,22.25H2.956c-0.381,0-0.697-0.301-0.705-0.67c-0.015-0.793,0.205-1.47,0.654-2.012
	c0.372-0.45,0.899-0.809,1.613-1.096c0.618-0.25,1.312-0.421,1.915-0.562l0.401-0.093c0.468-0.105,0.998-0.227,1.483-0.37
	c0.43-0.128,0.692-0.413,0.826-0.9c0.059-0.216,0.146-0.572,0.218-0.948c-1.893-0.438-3.305-1.356-4.168-2.064L4.94,13.328
	l0.264-0.189c1.393-1,1.182-2.17,1.027-3.024c-0.019-0.103-0.036-0.198-0.049-0.286C5.777,7.116,6.068,5.165,7.047,4.029
	C7.798,3.158,8.796,2.95,9.53,2.936c2.1-1.529,3.633-1.303,4.552-0.84c1.626,0.819,2.677,3.081,2.677,5.762
	c0.092,2.912,1.37,4.136,2.057,4.793l0.209,0.199l-0.22,0.186c-1.377,1.077-2.792,1.854-4.21,2.312
	c0.071,0.422,0.181,0.898,0.264,1.199c0.134,0.487,0.396,0.772,0.826,0.9c0.485,0.144,1.015,0.265,1.482,0.37l0.399,0.092
	c0.604,0.142,1.301,0.313,1.917,0.562c0.714,0.287,1.241,0.646,1.612,1.096c0.449,0.542,0.669,1.219,0.653,2.012
	C21.743,21.949,21.427,22.25,21.045,22.25z M5.755,13.344c0.871,0.669,2.204,1.462,3.944,1.818l0.237,0.049l-0.041,0.238
	c-0.081,0.474-0.197,0.959-0.271,1.231c-0.178,0.651-0.571,1.07-1.166,1.246c-0.501,0.149-1.039,0.271-1.514,0.38l-0.399,0.092
	c-0.583,0.136-1.255,0.302-1.84,0.537c-0.635,0.256-1.097,0.567-1.415,0.951c-0.376,0.454-0.552,1.005-0.54,1.684
	c0.002,0.099,0.094,0.18,0.205,0.18h18.089c0.111,0,0.202-0.08,0.204-0.179c0.013-0.68-0.163-1.23-0.538-1.685
	c-0.317-0.384-0.78-0.694-1.415-0.951c-0.583-0.235-1.257-0.4-1.842-0.538l-0.398-0.091c-0.475-0.108-1.013-0.23-1.514-0.38
	c-0.595-0.176-0.987-0.595-1.166-1.246c-0.101-0.368-0.24-0.985-0.309-1.472l-0.03-0.213l0.205-0.062
	c1.35-0.406,2.703-1.118,4.026-2.117c-0.774-0.763-1.921-2.108-2.01-4.952c0-2.502-0.942-4.589-2.401-5.324
	c-1.153-0.58-2.569-0.288-4.096,0.843L9.695,3.435H9.613c-0.636,0-1.531,0.16-2.187,0.92c-0.88,1.021-1.132,2.837-0.75,5.399
	c0.013,0.084,0.029,0.174,0.046,0.271C6.872,10.85,7.116,12.199,5.755,13.344z"/>
</svg>






