<?xml version="1.0" encoding="iso-8859-1"?>
<svg version="1.1" id="&#x56FE;&#x5C42;_1" xmlns="http://www.w3.org/2000/svg" xmlns:xlink="http://www.w3.org/1999/xlink" x="0px"
	 y="0px" viewBox="0 0 24 24" style="enable-background:new 0 0 24 24;" xml:space="preserve">
<path style="fill:#333333;" d="M21,22.25H3c-0.689,0-1.25-0.561-1.25-1.25v-3c0-0.689,0.561-1.25,1.25-1.25h18
	c0.689,0,1.25,0.561,1.25,1.25v3C22.25,21.689,21.689,22.25,21,22.25z M3,17.25c-0.414,0-0.75,0.337-0.75,0.75v3
	c0,0.413,0.336,0.75,0.75,0.75h18c0.413,0,0.75-0.337,0.75-0.75v-3c0-0.413-0.337-0.75-0.75-0.75H3z"/>
<rect x="7.25" y="13" style="fill:#333333;" width="0.5" height="4"/>
<rect x="11.75" y="13" style="fill:#333333;" width="0.5" height="4"/>
<rect x="16.25" y="13" style="fill:#333333;" width="0.5" height="4"/>
<path style="fill:#333333;" d="M12,6.25c-1.241,0-2.25-1.009-2.25-2.25S10.759,1.75,12,1.75c1.24,0,2.25,1.009,2.25,2.25
	S13.24,6.25,12,6.25z M12,2.25c-0.965,0-1.75,0.785-1.75,1.75S11.035,5.75,12,5.75S13.75,4.965,13.75,4S12.965,2.25,12,2.25z"/>
<path style="fill:#333333;" d="M20.25,17h-0.5c0-5.005-0.881-10.75-7.75-10.75S4.25,11.995,4.25,17h-0.5c0-3.077,0-11.25,8.25-11.25
	S20.25,13.923,20.25,17z"/>
</svg>






