<?xml version="1.0" encoding="iso-8859-1"?>
<svg version="1.1" id="&#x56FE;&#x5C42;_1" xmlns="http://www.w3.org/2000/svg" xmlns:xlink="http://www.w3.org/1999/xlink" x="0px"
	 y="0px" viewBox="0 0 24 24" style="enable-background:new 0 0 24 24;" xml:space="preserve">
<path style="fill:#333333;" d="M12,12.25c-2.343,0-4.25-1.907-4.25-4.25h0.5c0,2.068,1.682,3.75,3.75,3.75
	c2.067,0,3.75-1.682,3.75-3.75h0.5C16.25,10.343,14.344,12.25,12,12.25z"/>
<path style="fill:#333333;" d="M16.25,8.25h-8.5V8c0-2.343,1.907-4.25,4.25-4.25c2.344,0,4.25,1.907,4.25,4.25V8.25z M8.258,7.75
	h7.484c-0.13-1.952-1.759-3.5-3.742-3.5C10.016,4.25,8.387,5.798,8.258,7.75z"/>
<rect x="6" y="7.75" style="fill:#333333;" width="12" height="0.5"/>
<rect x="11.75" y="2" style="fill:#333333;" width="0.5" height="2"/>
<path style="fill:#333333;" d="M20.75,21.75H3.25V21.5c0-4.549,3.925-8.25,8.75-8.25c4.825,0,8.75,3.701,8.75,8.25V21.75z
	 M3.754,21.25h16.492c-0.142-4.158-3.786-7.5-8.246-7.5S3.896,17.092,3.754,21.25z"/>
<rect x="8.75" y="17" style="fill:#333333;" width="0.5" height="2"/>
<rect x="14.75" y="17" style="fill:#333333;" width="0.5" height="2"/>
</svg>






