<?xml version="1.0" encoding="iso-8859-1"?>
<svg version="1.1" id="&#x56FE;&#x5C42;_1" xmlns="http://www.w3.org/2000/svg" xmlns:xlink="http://www.w3.org/1999/xlink" x="0px"
	 y="0px" viewBox="0 0 24 24" style="enable-background:new 0 0 24 24;" xml:space="preserve">
<path style="fill:#333333;" d="M12,22.25C6.348,22.25,1.75,17.652,1.75,12C1.75,6.348,6.348,1.75,12,1.75
	c5.652,0,10.25,4.598,10.25,10.25C22.25,17.652,17.652,22.25,12,22.25z M12,2.25c-5.376,0-9.75,4.374-9.75,9.75
	s4.374,9.75,9.75,9.75s9.75-4.374,9.75-9.75S17.376,2.25,12,2.25z"/>
<path style="fill:#333333;" d="M7.863,13.184c-0.135,0-0.266-0.018-0.392-0.054c-0.742-0.208-1.147-0.989-1.504-1.679
	c-0.245-0.472-0.475-0.917-0.767-1.125c-0.64-0.455-1.68-0.346-3.093,0.32l-0.214-0.452C3.481,9.446,4.691,9.352,5.49,9.919
	c0.39,0.277,0.648,0.775,0.921,1.302c0.325,0.628,0.662,1.278,1.195,1.427c0.345,0.101,0.769-0.011,1.293-0.33
	c0.466-0.283,0.723-0.544,0.763-0.774c0.047-0.269-0.196-0.572-0.477-0.923C8.706,10.023,8.11,9.278,8.501,8.164
	c0.416-1.184,1.327-1.36,2.06-1.502c0.774-0.15,1.333-0.259,1.443-1.307c0.04-0.379-0.056-0.68-0.293-0.92
	c-0.667-0.674-2.393-0.884-5.129-0.627L6.534,3.311c2.936-0.276,4.744-0.022,5.532,0.773c0.344,0.348,0.49,0.793,0.436,1.323
	c-0.148,1.417-1.05,1.591-1.846,1.746C9.956,7.289,9.294,7.417,8.973,8.33c-0.3,0.853,0.159,1.425,0.602,1.979
	c0.342,0.428,0.666,0.832,0.58,1.322c-0.068,0.389-0.385,0.743-0.996,1.115C8.678,13.038,8.25,13.184,7.863,13.184z"/>
<path style="fill:#333333;" d="M15.222,21.625l-0.43-0.256c1.114-1.875,1.679-3.274,1.679-4.158c0-0.496-0.432-0.859-0.978-1.319
	c-0.753-0.634-1.69-1.423-1.821-2.938c-0.049-0.567,0.105-1.041,0.46-1.408c0.976-1.01,3.22-0.896,4.296-0.84
	c0.171,0.009,0.309,0.016,0.401,0.016c0.209,0,0.403-0.306,0.442-0.696c0.049-0.489-0.156-1.114-0.897-1.263
	c-0.648-0.131-1.106,0-1.547,0.125c-0.564,0.161-1.146,0.327-1.949-0.156c-0.248-0.149-0.393-0.374-0.417-0.648
	c-0.047-0.529,0.252-1.547,3.375-4.273l0.328,0.377c-2.864,2.5-3.237,3.487-3.205,3.852c0.01,0.115,0.064,0.196,0.177,0.264
	c0.62,0.373,1.012,0.26,1.554,0.104c0.476-0.136,1.015-0.29,1.783-0.135c1,0.201,1.371,1.05,1.297,1.802
	c-0.066,0.665-0.462,1.147-0.94,1.147c-0.099,0-0.245-0.007-0.427-0.017c-0.924-0.048-3.093-0.159-3.911,0.688
	c-0.253,0.261-0.357,0.594-0.321,1.017c0.113,1.309,0.927,1.993,1.645,2.599c0.595,0.5,1.156,0.973,1.156,1.701
	C16.971,18.199,16.398,19.644,15.222,21.625z"/>
<path style="fill:#333333;" d="M11.224,22.062l-0.441-0.234c0.439-0.823,0.661-1.564,0.661-2.206c0-0.447-0.306-0.576-0.847-0.766
	c-0.321-0.112-0.654-0.229-0.887-0.473c-0.236-0.248-0.283-0.6-0.333-0.973c-0.084-0.634-0.172-1.289-1.116-1.706
	c-0.861-0.38-2.237-0.195-4.087,0.553c-0.228,0.093-0.569,0.237-1.022,0.435l-0.199-0.459c0.458-0.199,0.803-0.346,1.034-0.438
	c2.007-0.812,3.471-0.992,4.477-0.547c1.201,0.529,1.321,1.436,1.41,2.098c0.041,0.302,0.075,0.563,0.199,0.692
	c0.15,0.157,0.412,0.249,0.69,0.347c0.526,0.185,1.182,0.414,1.182,1.237C11.944,20.346,11.702,21.167,11.224,22.062z"/>
</svg>






