<?xml version="1.0" encoding="iso-8859-1"?>
<svg version="1.1" id="&#x56FE;&#x5C42;_1" xmlns="http://www.w3.org/2000/svg" xmlns:xlink="http://www.w3.org/1999/xlink" x="0px"
	 y="0px" viewBox="0 0 24 24" style="enable-background:new 0 0 24 24;" xml:space="preserve">
<path style="fill:#333333;" d="M14.604,12.25H11.75V9.396l7.75-7.75L22.354,4.5L14.604,12.25z M12.25,11.75h2.146l7.25-7.25
	L19.5,2.354l-7.25,7.25V11.75z"/>
<path style="fill:#333333;" d="M19.5,22.25H9v-0.5h10.5c1.24,0,2.25-1.01,2.25-2.25s-1.01-2.25-2.25-2.25h-15
	c-1.517,0-2.75-1.233-2.75-2.75s1.233-2.75,2.75-2.75H8v0.5H4.5c-1.241,0-2.25,1.01-2.25,2.25s1.009,2.25,2.25,2.25h15
	c1.517,0,2.75,1.233,2.75,2.75S21.017,22.25,19.5,22.25z"/>
</svg>






