<?xml version="1.0" encoding="iso-8859-1"?>
<svg version="1.1" id="&#x56FE;&#x5C42;_1" xmlns="http://www.w3.org/2000/svg" xmlns:xlink="http://www.w3.org/1999/xlink" x="0px"
	 y="0px" viewBox="0 0 24 24" style="enable-background:new 0 0 24 24;" xml:space="preserve">
<path style="fill:#333333;" d="M22.25,21.25H1.75V9.87L12,2.695L22.25,9.87V21.25z M2.25,20.75h19.5V10.13L12,3.305L2.25,10.13
	V20.75z"/>
<path style="fill:#333333;" d="M17.48,13.52c-0.725-0.724-1.571-1.289-2.515-1.68c-1.891-0.783-4.041-0.783-5.932,0
	c-0.944,0.392-1.79,0.956-2.514,1.68l-0.354-0.354c0.771-0.771,1.671-1.372,2.676-1.788c2.013-0.833,4.302-0.833,6.314,0
	c1.005,0.416,1.905,1.018,2.677,1.788L17.48,13.52z"/>
<path style="fill:#333333;" d="M9.348,16.349l-0.354-0.354c0.396-0.396,0.859-0.706,1.379-0.921c1.036-0.429,2.214-0.43,3.252,0
	c0.521,0.215,0.984,0.525,1.379,0.921l-0.354,0.354c-0.349-0.35-0.758-0.623-1.217-0.813c-0.914-0.38-1.956-0.379-2.87,0
	C10.106,15.726,9.697,15.999,9.348,16.349z"/>
</svg>






