<?xml version="1.0" encoding="iso-8859-1"?>
<svg version="1.1" id="&#x56FE;&#x5C42;_1" xmlns="http://www.w3.org/2000/svg" xmlns:xlink="http://www.w3.org/1999/xlink" x="0px"
	 y="0px" viewBox="0 0 24 24" style="enable-background:new 0 0 24 24;" xml:space="preserve">
<path style="fill:#333333;" d="M12,21.417c-1.333,0-2.42-0.992-2.7-1.951c-0.054-0.185-0.1-0.411-0.151-0.664
	c-0.171-0.848-0.407-2.009-1.25-2.765c-0.656-0.589-1.532-0.797-2.304-0.979c-0.529-0.125-1.029-0.244-1.415-0.47
	C3.351,14.103,2.583,13.453,2.583,12c0-5.192,4.224-9.417,9.417-9.417S21.417,6.808,21.417,12S17.192,21.417,12,21.417z M12,3.083
	c-4.917,0-8.917,4-8.917,8.917c0,1.138,0.517,1.669,1.35,2.156c0.322,0.188,0.786,0.298,1.277,0.415
	c0.831,0.196,1.771,0.419,2.523,1.093c0.966,0.867,1.22,2.122,1.406,3.038c0.048,0.237,0.09,0.45,0.141,0.623
	c0.223,0.766,1.136,1.592,2.22,1.592c4.917,0,8.917-4,8.917-8.917C20.917,7.083,16.917,3.083,12,3.083z"/>
<path style="fill:#333333;" d="M11.121,15.525c-0.82,0-1.558-0.569-1.738-1.401c-0.182-0.837-0.273-1.694-0.273-2.547
	c0-0.912,0.142-1.719,0.422-2.401h0c0.306-0.745,1.081-1.189,1.876-1.086c0.724,0.096,1.471,0.377,2.222,0.836
	c0.695,0.425,1.375,0.916,2.02,1.457l0.064,0.058c0.718,0.663,0.762,1.79,0.097,2.511c-0.554,0.598-1.158,1.099-1.797,1.489
	c-0.684,0.419-1.495,0.762-2.414,1.02L11.5,15.485C11.373,15.513,11.246,15.525,11.121,15.525z M9.994,9.366
	c-0.255,0.621-0.385,1.365-0.385,2.211c0,0.818,0.088,1.639,0.262,2.442c0.15,0.688,0.833,1.127,1.52,0.979l0.077-0.02
	c0.872-0.245,1.641-0.57,2.285-0.964c0.601-0.367,1.17-0.84,1.691-1.403c0.478-0.518,0.446-1.328-0.071-1.806
	c-0.67-0.565-1.329-1.041-2.004-1.453c-0.689-0.423-1.372-0.681-2.026-0.767C10.773,8.509,10.215,8.831,9.994,9.366L9.994,9.366z"/>
</svg>






