<?xml version="1.0" encoding="iso-8859-1"?>
<svg version="1.1" id="&#x56FE;&#x5C42;_1" xmlns="http://www.w3.org/2000/svg" xmlns:xlink="http://www.w3.org/1999/xlink" x="0px"
	 y="0px" viewBox="0 0 24 24" style="enable-background:new 0 0 24 24;" xml:space="preserve">
<path style="fill:#333333;" d="M12.121,22.221c-1.431,0-2.903-0.332-4.233-0.997C5.287,19.923,3.25,17.08,3.25,14.75
	c0-1.414,2.042-2.389,3.26-2.844c0.123-0.045,0.198-0.168,0.179-0.292L5.546,3.992c-0.084-0.562,0.08-1.132,0.451-1.563
	C6.369,1.997,6.908,1.75,7.477,1.75c0.996,0,1.83,0.747,1.94,1.736l0.494,4.448l0.254-4.833c0.055-1.038,0.912-1.852,1.952-1.852
	c0.551,0,1.079,0.234,1.448,0.643c0.37,0.409,0.551,0.958,0.496,1.506L13.65,7.508c0.233-0.163,0.518-0.258,0.823-0.258
	c1.223,0,2.224,0.97,2.274,2.181c0.367-0.417,0.904-0.681,1.502-0.681c1.103,0,2,0.897,2,2v5.324c0,0.37-0.045,0.662-0.142,0.919
	c-0.282,0.747-1.235,2.653-3.984,4.224C14.953,21.887,13.558,22.221,12.121,22.221z M7.477,2.25c-0.423,0-0.824,0.184-1.101,0.504
	C6.1,3.075,5.978,3.499,6.04,3.917l1.144,7.623c0.054,0.355-0.156,0.707-0.499,0.834C5.997,12.632,3.75,13.564,3.75,14.75
	c0,2.156,1.916,4.804,4.362,6.026c2.52,1.26,5.568,1.264,7.764,0.007l0,0c2.607-1.49,3.501-3.271,3.765-3.967
	c0.074-0.198,0.109-0.435,0.109-0.742V10.75c0-0.827-0.673-1.5-1.5-1.5s-1.5,0.673-1.5,1.5h-0.5V9.527
	c0-0.98-0.797-1.777-1.776-1.777c-0.482,0-0.883,0.362-0.932,0.842l-0.498-0.05l0.52-5.193c0.041-0.408-0.093-0.816-0.368-1.121
	S12.527,1.75,12.117,1.75c-0.773,0-1.412,0.605-1.453,1.378l-0.415,7.885l-0.498,0.015L8.92,3.542
	C8.838,2.805,8.217,2.25,7.477,2.25z"/>
</svg>






