<?xml version="1.0" encoding="iso-8859-1"?>
<svg version="1.1" id="&#x56FE;&#x5C42;_1" xmlns="http://www.w3.org/2000/svg" xmlns:xlink="http://www.w3.org/1999/xlink" x="0px"
	 y="0px" viewBox="0 0 24 24" style="enable-background:new 0 0 24 24;" xml:space="preserve">
<path style="fill:#333333;" d="M11.999,19.25c-1.971,0-4.167-0.078-6.525-0.233c-1.617-0.105-2.89-1.354-3.026-2.968
	c-0.131-1.554-0.198-2.929-0.198-4.087c0-1.145,0.065-2.5,0.194-4.031c0.135-1.614,1.458-2.893,3.076-2.974h0
	C8.279,4.82,10.459,4.75,11.999,4.75c1.53,0,3.711,0.07,6.482,0.208c1.619,0.081,2.941,1.36,3.076,2.975
	c0.127,1.517,0.191,2.873,0.191,4.029c0,1.167-0.066,2.542-0.196,4.086c-0.133,1.589-1.434,2.865-3.025,2.969
	C16.167,19.172,13.971,19.25,11.999,19.25z M5.544,5.457L5.544,5.457c-1.37,0.069-2.489,1.15-2.604,2.517
	c-0.127,1.516-0.192,2.858-0.192,3.989c0,1.145,0.066,2.505,0.196,4.044c0.116,1.366,1.193,2.423,2.561,2.513
	c2.349,0.153,4.533,0.231,6.493,0.231s4.146-0.078,6.495-0.231c1.347-0.089,2.447-1.169,2.561-2.513
	c0.129-1.53,0.194-2.891,0.194-4.044c0-1.143-0.063-2.484-0.189-3.987c-0.114-1.367-1.233-2.449-2.604-2.518
	c-2.763-0.137-4.936-0.207-6.457-0.207C10.467,5.25,8.295,5.319,5.544,5.457z"/>
<path style="fill:#333333;" d="M10.929,14.882c-0.374,0-0.679-0.305-0.679-0.679V9.805c0-0.135,0.04-0.266,0.115-0.378
	c0.209-0.311,0.632-0.394,0.942-0.185l3.3,2.218c0.075,0.051,0.138,0.114,0.188,0.189c0.1,0.15,0.135,0.332,0.099,0.509
	s-0.14,0.331-0.291,0.431l-3.299,2.181C11.189,14.843,11.061,14.882,10.929,14.882z M10.929,9.626c-0.058,0-0.115,0.028-0.149,0.079
	c-0.02,0.029-0.03,0.064-0.03,0.1v4.398c0,0.134,0.159,0.225,0.278,0.148l3.298-2.181c0.04-0.026,0.066-0.066,0.076-0.112
	c0.01-0.047,0.001-0.094-0.025-0.134c-0.014-0.021-0.03-0.038-0.051-0.051l-3.298-2.218C10.998,9.636,10.963,9.626,10.929,9.626z"/>
</svg>






