<?xml version="1.0" encoding="iso-8859-1"?>
<svg version="1.1" id="&#x56FE;&#x5C42;_1" xmlns="http://www.w3.org/2000/svg" xmlns:xlink="http://www.w3.org/1999/xlink" x="0px"
	 y="0px" viewBox="0 0 24 24" style="enable-background:new 0 0 24 24;" xml:space="preserve">
<path style="fill:#333333;" d="M19.5,21.25h-15c-0.965,0-1.75-0.785-1.75-1.75v-15c0-0.965,0.785-1.75,1.75-1.75h15
	c0.965,0,1.75,0.785,1.75,1.75v15C21.25,20.465,20.465,21.25,19.5,21.25z M4.5,3.25c-0.689,0-1.25,0.561-1.25,1.25v15
	c0,0.689,0.561,1.25,1.25,1.25h15c0.689,0,1.25-0.561,1.25-1.25v-15c0-0.689-0.561-1.25-1.25-1.25H4.5z"/>
<path style="fill:#333333;" d="M12,17.25c-1.517,0-2.75-1.233-2.75-2.75v-5c0-1.517,1.233-2.75,2.75-2.75s2.75,1.233,2.75,2.75v5
	C14.75,16.017,13.517,17.25,12,17.25z M12,7.25c-1.241,0-2.25,1.009-2.25,2.25v5c0,1.24,1.009,2.25,2.25,2.25
	c1.24,0,2.25-1.01,2.25-2.25v-5C14.25,8.259,13.24,7.25,12,7.25z"/>
</svg>






