<?xml version="1.0" encoding="iso-8859-1"?>
<svg version="1.1" id="&#x56FE;&#x5C42;_1" xmlns="http://www.w3.org/2000/svg" xmlns:xlink="http://www.w3.org/1999/xlink" x="0px"
	 y="0px" viewBox="0 0 24 24" style="enable-background:new 0 0 24 24;" xml:space="preserve">
<path style="fill:#333333;" d="M21.5,21.75h-19c-0.414,0-0.75-0.337-0.75-0.75V6.838c0-0.309,0.185-0.582,0.472-0.696L12,2.231
	l9.778,3.912c0.286,0.114,0.472,0.387,0.472,0.696V21C22.25,21.413,21.913,21.75,21.5,21.75z M12,2.769L2.407,6.607
	C2.312,6.645,2.25,6.736,2.25,6.838V21c0,0.138,0.112,0.25,0.25,0.25h19c0.138,0,0.25-0.112,0.25-0.25V6.838
	c0-0.103-0.062-0.194-0.157-0.231L12,2.769z"/>
<rect x="11.75" y="11" style="fill:#333333;" width="0.5" height="5"/>
<path style="fill:#333333;" d="M16.5,13.75c-0.965,0-1.75-0.673-1.75-1.5v-1.1c0-0.221,0.18-0.4,0.4-0.4h1.35
	c0.965,0,1.75,0.673,1.75,1.5S17.465,13.75,16.5,13.75z M15.25,11.25v1c0,0.552,0.561,1,1.25,1s1.25-0.448,1.25-1
	c0-0.551-0.561-1-1.25-1H15.25z"/>
<rect x="14.75" y="11" style="fill:#333333;" width="0.5" height="5"/>
<polygon style="fill:#333333;" points="9.002,16.25 6,16.25 5.786,15.871 8.561,11.25 6,11.25 6,10.75 9.002,10.75 9.217,11.129 
	6.442,15.75 9.002,15.75 "/>
</svg>






