<?xml version="1.0" encoding="iso-8859-1"?>
<svg version="1.1" id="&#x56FE;&#x5C42;_1" xmlns="http://www.w3.org/2000/svg" xmlns:xlink="http://www.w3.org/1999/xlink" x="0px"
	 y="0px" viewBox="0 0 24 24" style="enable-background:new 0 0 24 24;" xml:space="preserve">
<path style="fill:#333333;" d="M12.851,22.337c-0.916,0-1.864-0.201-2.938-0.603l0,0c-2.447-0.915-4.466-4.021-5.451-5.791
	c-0.476-0.854-0.247-1.935,0.544-2.568c0.863-0.69,2.102-0.621,2.883,0.16l0.361,0.361V10.25c0-0.827,0.673-1.5,1.5-1.5
	c0.384,0,0.734,0.145,1,0.383V8.25c0-0.827,0.673-1.5,1.5-1.5s1.5,0.673,1.5,1.5v2.883c0.266-0.238,0.616-0.383,1-0.383
	c0.827,0,1.5,0.673,1.5,1.5v0.383c0.266-0.238,0.616-0.383,1-0.383c0.827,0,1.5,0.673,1.5,1.5v3.934
	c0,0.626-0.168,1.195-0.486,1.646c-0.58,0.822-1.513,1.906-2.665,2.399C14.653,22.135,13.769,22.337,12.851,22.337z M6.358,13.4
	c-0.366,0-0.734,0.12-1.04,0.365c-0.6,0.48-0.776,1.294-0.42,1.934c0.952,1.71,2.893,4.707,5.189,5.566l0,0
	c2.046,0.766,3.535,0.767,5.314,0.005c1.1-0.472,2.01-1.599,2.454-2.229c0.258-0.365,0.395-0.835,0.395-1.357V13.75
	c0-0.552-0.448-1-1-1s-1,0.448-1,1h-0.5v-1.5c0-0.551-0.448-1-1-1s-1,0.449-1,1h-0.5v-4c0-0.551-0.448-1-1-1c-0.551,0-1,0.449-1,1v2
	h-0.5c0-0.551-0.449-1-1-1s-1,0.449-1,1v4.25l-0.427,0.177l-0.788-0.788C7.211,13.564,6.786,13.4,6.358,13.4z"/>
<rect x="6.5" y="3.75" style="fill:#333333;" width="11" height="0.5"/>
<polygon style="fill:#333333;" points="8.323,6.177 6.146,4 8.323,1.823 8.677,2.177 6.854,4 8.677,5.823 "/>
<polygon style="fill:#333333;" points="15.677,6.177 15.323,5.823 17.146,4 15.323,2.177 15.677,1.823 17.854,4 "/>
</svg>






