<?xml version="1.0" encoding="iso-8859-1"?>
<svg version="1.1" id="&#x56FE;&#x5C42;_1" xmlns="http://www.w3.org/2000/svg" xmlns:xlink="http://www.w3.org/1999/xlink" x="0px"
	 y="0px" viewBox="0 0 24 24" style="enable-background:new 0 0 24 24;" xml:space="preserve">
<path style="fill:#333333;" d="M10.5,19.25c-4.825,0-8.75-3.925-8.75-8.75c0-4.825,3.925-8.75,8.75-8.75
	c4.825,0,8.75,3.925,8.75,8.75C19.25,15.325,15.325,19.25,10.5,19.25z M10.5,2.25c-4.549,0-8.25,3.701-8.25,8.25
	s3.701,8.25,8.25,8.25s8.25-3.701,8.25-8.25S15.049,2.25,10.5,2.25z"/>
<rect x="7.5" y="10.25" style="fill:#333333;" width="6" height="0.5"/>
<rect x="18.482" y="15.732" transform="matrix(0.707 -0.7072 0.7072 0.707 -7.7594 18.7351)" style="fill:#333333;" width="0.5" height="6"/>
</svg>






